<!-- by TradingView --><svg width="18" height="18" viewBox="0 0 18 18" xmlns="http://www.w3.org/2000/svg"><path fill="#002A2E" d="M0 0h18v18H0z"/><path d="M10 4H8c-.33 0-1 .18-1 .58 0 .43.2.75.5.96v1.17l-2.34 5.24c-.47.93.16 2.05 1.15 2.05h5.38c1 0 1.62-1.13 1.15-2.05L10.5 6.71V5.52c.2-.19.5-.52.5-.94 0-.5-.54-.58-1-.58ZM8 6.87V5.26c-.15-.1-.5-.34-.5-.76h3c0 .37-.35.64-.47.73a.96.96 0 0 0-.03.03v1.59l.28.62a4.08 4.08 0 0 0-.9-.14c-.26 0-.53.21-.79.42-.26.2-.52.42-.78.42a.81.81 0 0 1-.36-.07L8 6.87ZM8 13H7l1.6-4h.8l1.6 4h-1l-.39-1h-.78L9 11h.22L9 10.43 8 13Z" fill="#2FCAD4"/></svg>