<!-- by TradingView --><svg width="18" height="18" viewBox="0 0 18 18" xmlns="http://www.w3.org/2000/svg"><path fill="url(#a)" d="M0 0h18v18H0z"/><path d="M5.27 12.51c.43.39.83.67 1.2.85.81.41 1.74.58 2.77.5a4.74 4.74 0 0 0 2.69-1.01 5 5 0 0 0 1.79-2.82 5.07 5.07 0 0 0-1.76-4.98c-1.04-.77-2.42-.87-3.66-.88a2 2 0 0 0-.59.09c-.35.1-.71.27-1.07.47a5.8 5.8 0 0 0-2.1 2.31c-.74 1.46-.56 3.05.05 4.51a7.16 7.16 0 0 1-.46-1.37A5 5 0 0 1 6.5 4.62c1-.55 2.13-.71 3.27-.57 2.95.35 4.65 3.1 4.14 5.9a4.95 4.95 0 0 1-5.72 3.98 6.85 6.85 0 0 1-1.94-.6 2.88 2.88 0 0 1-.98-.82Z" fill="#1B0001"/><path d="M5.27 12.51c-.25-.3-.48-.63-.68-.96-.6-1.46-.8-3.05-.05-4.5a5.98 5.98 0 0 1 2.1-2.32.24.24 0 0 0-.05.06v.05l.1.14c-.37.28-.67.54-.92.79-1.8 1.86-2.12 5.1 0 6.88a4.64 4.64 0 0 0 5.04.5c.45-.21.9-.52 1.37-.9.38-.32.7-.68.98-1.1.14-.27.25-.51.33-.7.37-1.06.07-2.08-.26-3.13a3.7 3.7 0 0 0-1.95-2.33 6.4 6.4 0 0 0-2.86-.47l-.12-.35c1.24.01 2.62.11 3.66.88a5.07 5.07 0 0 1 1.76 4.98 5 5 0 0 1-1.8 2.82c-.75.6-1.65.94-2.68 1.02a5.26 5.26 0 0 1-2.78-.5 5.72 5.72 0 0 1-1.2-.86Z" fill="#270002"/><path d="m8.3 4.17.12.35v.06l-1.66.49-.08-.09-.08-.14a.04.04 0 0 1 0-.05 5.24 5.24 0 0 1 1.12-.53 2 2 0 0 1 .58-.09Z" fill="#3C0004"/><path d="M13.16 11.15c.25-.76.4-1.5.3-2.28a6.78 6.78 0 0 0-.5-1.81 3.6 3.6 0 0 0-2.7-2.22 8.93 8.93 0 0 0-1.8-.18.22.22 0 0 0-.04-.08v-.06a6.4 6.4 0 0 1 2.86.47 3.7 3.7 0 0 1 1.95 2.33c.33 1.05.63 2.07.26 3.12-.08.2-.19.44-.33.71Z" fill="#320003"/><path d="M8.42 4.58c.02.02.03.05.03.08l.09.3c0 .02 0 .04-.02.04l-.6.22c-.26.1-.5.24-.73.41h-.05a.1.1 0 0 1-.03-.04l-.23-.32-.12-.2 1.66-.49Z" fill="#570007"/><path d="M13.16 11.15c-.28.42-.6.78-.98 1.1-.72.42-1.42.72-2.12.9-.61.17-1 .26-1.17.29a4.12 4.12 0 0 1-4.15-5.61 4.62 4.62 0 0 1 2.14-2.56l.23.32c-.41.13-.76.31-1.04.54a4.04 4.04 0 0 0-1.22 2.25c-.04.2-.1.5-.16.91-.01.06-.04.12-.08.19a.4.4 0 0 0-.06.32 4.63 4.63 0 0 0 1.59 2.77 4 4 0 0 0 2.33.8 4.64 4.64 0 0 1-3.75-3.48l.14-.1.24-.13c.13.44.27.8.4 1.06a3.73 3.73 0 0 0 2.36 1.98c1.15.33 2.52.11 3.56-.4a2.93 2.93 0 0 0 1.52-1.73 3.7 3.7 0 0 0-.08-2.51 4.05 4.05 0 0 0-2.62-2.7 5.95 5.95 0 0 0-2.33-.14l.6-.22c.03 0 .03-.02.03-.03l-.09-.3c.68 0 1.28.06 1.81.17a3.6 3.6 0 0 1 2.7 2.22c.24.58.41 1.19.5 1.81.1.79-.05 1.52-.3 2.28Z" fill="#3C0004"/><path d="m6.76 5.07.12.2a4.62 4.62 0 0 0-2.14 2.56 4.12 4.12 0 0 0 3 5.56c.4.08.78.1 1.15.05.17-.03.56-.12 1.17-.28.7-.2 1.4-.5 2.12-.91-.47.38-.92.69-1.37.9a4.64 4.64 0 0 1-5.04-.5c-2.12-1.78-1.8-5.02 0-6.88.25-.25.55-.51.91-.79l.08.09Z" fill="#320003"/><path d="m5.1 9.66.2-.14a.04.04 0 0 0 .02-.04l-.01-.26c0-.03 0-.03 0 0l.28.9c.84 2.38 3.25 2.86 5.4 2.04 1.36-.52 1.84-1.62 1.98-3 0-.01 0-.01 0 0l-.1.39-.18.43c.02-.31.02-.62.02-.92a3.68 3.68 0 0 0-2.21-3.44 3.98 3.98 0 0 0-3.29.13 7.9 7.9 0 0 0-1.14.75c-.28.21-.44.48-.58.78a8 8 0 0 0-.63 2.5l-.14.1c-.01.02-.02.03-.01.05a4.64 4.64 0 0 0 3.76 3.44 4 4 0 0 1-2.33-.8A4.63 4.63 0 0 1 4.55 9.8a.4.4 0 0 1 .06-.32.46.46 0 0 0 .08-.19c.06-.41.12-.72.16-.91.16-.8.58-1.73 1.22-2.25.28-.23.63-.4 1.04-.54 0 .02.02.03.03.04h.05c.23-.17.47-.3.72-.4a5.95 5.95 0 0 1 2.33.13 4.05 4.05 0 0 1 2.62 2.7c.3.82.36 1.68.08 2.51a2.93 2.93 0 0 1-1.52 1.72 5.14 5.14 0 0 1-3.56.4 3.73 3.73 0 0 1-2.35-1.97 7.02 7.02 0 0 1-.41-1.06Z" fill="#4C0006"/><path d="M12.7 9.98a4.23 4.23 0 0 1-1.02 1.38c.65-1.24.96-2.7.26-4-1.32-2.45-5.16-2.2-6.09.44-.28.8-.27 1.73.05 2.52.8 1.94 2.87 2.36 4.71 1.8.4-.12.71-.27.96-.44.72-.5 1.06-1.3 1.3-2.13a184.92 184.92 0 0 1 .1-.39c-.14 1.38-.62 2.48-1.99 3-2.14.82-4.55.33-5.4-2.05a9.85 9.85 0 0 1-.27-.89l.01.26c0 .01 0 .03-.02.04l-.2.14-.24.13a8 8 0 0 1 .63-2.51c.14-.3.3-.57.58-.78.42-.32.8-.57 1.14-.75 1-.52 2.25-.56 3.29-.13a3.68 3.68 0 0 1 2.2 3.44v.92Z" fill="#570007"/><path d="m12.7 9.98.17-.43c-.24.83-.58 1.63-1.3 2.13-.25.17-.57.32-.96.44-1.84.56-3.91.14-4.7-1.8a3.65 3.65 0 0 1-.06-2.52c.93-2.65 4.77-2.89 6.1-.45.7 1.3.38 2.77-.27 4.01-.01.02 0 .02 0 0 .44-.39.77-.85 1.01-1.38Z" fill="#630008"/><path d="M8.73 5.95c.79-.07 1.6.14 2.2.62a3.19 3.19 0 0 1 .94 3.57c-.62 1.71-2.58 2.36-4.17 1.66a2.94 2.94 0 0 1-1.75-2.37 3 3 0 0 1 2.78-3.48Z" fill="#6F0009"/><path d="M7.53 6.6c.74-.44 1.76-.5 2.57-.17.8.33 1.33.92 1.57 1.75.3 1.04 0 2.23-.82 2.94-.9.79-2.33.86-3.34.25a2.77 2.77 0 0 1-1.25-2.86c.14-.84.56-1.48 1.27-1.9Z" fill="#7B000A"/><path d="M6.82 8.41c.56-2.3 3.95-2.2 4.39.16a2.2 2.2 0 0 1-1.86 2.66 2.4 2.4 0 0 1-1.64-.34 2.26 2.26 0 0 1-.89-2.48Z" fill="#91000C"/><path d="M7.23 8.5c.35-1.4 2.18-1.76 3.1-.74.5.53.6 1.38.31 2.05-.56 1.27-2.36 1.34-3.12.28a1.96 1.96 0 0 1-.29-1.6Z" fill="#AD170F"/><path d="M10.31 8.49c.13.33.12.7-.03 1.03a1.39 1.39 0 0 1-1.81.7 1.34 1.34 0 0 1-.7-1.77 1.39 1.39 0 0 1 1.82-.7c.33.14.6.4.72.74Z" fill="#C43310"/><path d="M7.87 9.1c-.12-1.17 1.2-1.5 2.01-.98.36.23.42.63.31 1.04a1.23 1.23 0 0 1-1.92.68 1.01 1.01 0 0 1-.4-.74Z" fill="#D04211"/><path d="M8.4 8.3c.52-.23 1.3-.2 1.68.27.01.02.02.03.01.05-.06.3-.18.58-.35.85-.16.27-.39.33-.71.38-.4.07-.8-.03-.94-.45-.12-.38-.12-.92.31-1.1Z" fill="#E76011"/><path d="M8.27 8.75c.22-.5 1.35-.55 1.39.12.03.6-.6 1-1.13.76-.31-.14-.4-.57-.26-.88Z" fill="#F47312"/><path d="M9.18 8.88c.05.08.06.18.04.27a.38.38 0 0 1-.45.27.35.35 0 0 1-.22-.16.35.35 0 0 1-.04-.27.38.38 0 0 1 .45-.27c.1.02.18.08.22.16Z" fill="#F98914"/><defs><linearGradient id="a" x1="3.35" y1="3.12" x2="21.9" y2="24.43" gradientUnits="userSpaceOnUse"><stop stop-color="#1A1E21"/><stop offset="1" stop-color="#06060A"/></linearGradient></defs></svg>