<!-- by TradingView --><svg width="18" height="18" viewBox="0 0 18 18" xmlns="http://www.w3.org/2000/svg"><path fill="url(#a)" d="M0 0h18v18H0z"/><path d="M12.08 3.85c-.17-.03-.34-.1-.5-.19l-.38-.2a3.77 3.77 0 0 0-.39-.11l-.4-.1c-.29-.09-.5-.14-.61-.15a11.3 11.3 0 0 0-1.8.05 6.07 6.07 0 0 0-2.56 1.11 6.17 6.17 0 0 0-2.3 3.79 6.44 6.44 0 0 0-.01 1.83c.05.14 0 .28.08.42.03.05.03.1.03.16v.05c.05.1.07.23.1.3l.1.33c.03.08.07.18.14.31.08.15.14.3.18.47a6 6 0 0 1 8.32-8.07Z" fill="#D4AD93"/><path d="M12.08 3.85a6 6 0 0 1 2.9 5.6l-.64.02c0-.36.03-.69 0-1.07-.01-.13-.08-.27-.08-.43a1.27 1.27 0 0 0 0 .03.77.77 0 0 0-.15-.37 5.37 5.37 0 0 0-3.1-3.53c-.16-.08-.32-.12-.5-.17A5.36 5.36 0 0 0 8 3.8c-.3.05-.63.16-.94.25-.18-.04-.3-.05-.39-.04-.26.03-.52.01-.76-.06.07-.06.17-.13.3-.2a5.51 5.51 0 0 1 2.68-.68l.9.03c.11.01.32.06.62.14l.39.1.39.13c.06.02.18.09.37.2.17.09.34.15.5.18Z" fill="#E8821E"/><path d="M5.92 3.95c.24.07.5.09.76.06.08-.01.21 0 .39.04-.4.18-.78.39-1.14.62l-.05-.32a.04.04 0 0 0-.04-.03.76.76 0 0 1-.4-.06c.15-.13.3-.24.48-.3Z" fill="#CE371E"/><path d="M14.01 9a5 5 0 1 1-10 0 5 5 0 0 1 10 0Z" fill="#0F1115"/><path d="M5.44 4.26c.12.06.26.07.4.06a.04.04 0 0 1 .04.03l.05.32c-1.26.94-1.99 2.19-2.2 3.74-.03.29 0 .53-.03.8 0 .12.03.27.05.4a1.69 1.69 0 0 0-.65-.03c-.04-.6-.03-1.11.04-1.53a6.17 6.17 0 0 1 2.3-3.79ZM9.12 5.26c-.03 0-.05-.03-.05-.1v-.48c0-.02 0-.03-.02-.03l-.17-.02a.03.03 0 0 1-.03-.04v-.02c0-.02.01-.03.03-.03h.5c.02 0 .03.02.03.04v.01a.03.03 0 0 1-.03.04l-.17.02c-.02 0-.03.01-.03.03v.48c0 .07-.02.1-.06.1Z" fill="#EF9921"/><path d="M8.14 4.96a9.16 9.16 0 0 0-.2-.17c-.07-.05-.08-.1-.01-.12a.05.05 0 0 1 .05.01l.16.17a.04.04 0 0 0 .04.01.05.05 0 0 0 .04-.02l.13-.23a.05.05 0 0 1 .04-.03h.01c.03 0 .04.02.03.04l-.14.29a.06.06 0 0 0 .02.07l.28.29v.01h-.06a.13.13 0 0 1-.1-.04L8.3 5.1a.06.06 0 0 0-.1.02l-.09.2c0 .02-.01.03-.03.03l-.52.22a.1.1 0 0 1-.12-.05L7.2 5a.04.04 0 0 1 .03-.05l.42-.18c.01 0 .03 0 .05.02l.02.01a.03.03 0 0 1-.01.05l-.31.13c-.05.02-.06.05-.04.1l.01.04c.02.04.05.05.1.03l.27-.08c.02 0 .04 0 .05.02a.02.02 0 0 1 0 .03c-.1.07-.2.1-.28.13-.05 0-.07.04-.05.08l.04.08c.01.04.04.05.07.04L8 5.32a.02.02 0 0 0 .01-.01l.14-.3v-.05ZM9.74 5.32a.33.33 0 0 1-.22-.14.39.39 0 0 1-.01-.41.37.37 0 0 1 .1-.11.34.34 0 0 1 .11-.06.32.32 0 0 1 .36.13.39.39 0 0 1 .01.41.38.38 0 0 1-.1.11.34.34 0 0 1-.11.06.32.32 0 0 1-.14.01Z" fill="#E8BD4D"/><path d="M9.56 4.91c-.03.15.06.3.19.32.12.02.25-.08.28-.23.03-.15-.06-.3-.19-.32-.13-.02-.25.08-.28.23Z" fill="#0F1115"/><path d="M10.41 5.05c.13-.05.28-.17.44-.17.02 0 .03.01.02.03 0 .03-.02.05-.03.06a1.98 1.98 0 0 0-.29.13v.04h.01l.01.03.11.36c.01.04 0 .05-.04.04l-.02-.01a.1.1 0 0 1-.07-.07l-.1-.3a.05.05 0 0 0-.03-.05.05.05 0 0 0-.05.02.69.69 0 0 0-.13.23c0 .02-.02.03-.04.03h-.03c-.03 0-.03-.01-.03-.04l.2-.6c.01-.03.04-.05.08-.04h.02a.1.1 0 0 1 .03.03v.02l-.09.23a.02.02 0 0 0 0 .03.02.02 0 0 0 .03 0ZM11.03 5.42c-.03-.02-.06-.02-.08.02l-.07.09a.05.05 0 0 0 0 .04.05.05 0 0 0 .02.03l.3.18c.02.01.03.03.01.06v.01l-.02.02h-.02l-.43-.25c-.02-.01-.02-.03-.01-.04l.29-.5c.03-.06.08-.07.13-.04l.36.2.01.01a.02.02 0 0 1 0 .03c-.04.02-.08.02-.14 0a.13.13 0 0 1-.04-.01l-.16-.1c-.05-.04-.09-.03-.12.02l-.03.05c-.01.03 0 .06.03.08l.25.14c.02.02.03.03.01.05l-.01.03c-.01.02-.03.02-.05.01l-.23-.13Z" fill="#E8BD4D"/><path d="M6.9 5.59a.04.04 0 0 0 0 .05l.1.17c.02.03.02.05 0 .07h-.03c-.01.02-.03.02-.04 0l-.35-.52a.04.04 0 0 1 0-.06c.09-.07.2-.13.32-.19.23-.1.39.25.17.4l-.16.08Z" fill="#B77F30"/><path d="M6.73 5.37a.05.05 0 0 1 .02-.07l.08-.04a.25.25 0 0 1 .13-.04c.04 0 .07.02.08.04l.01.02v.1a.25.25 0 0 1-.1.08l-.08.05a.05.05 0 0 1-.06-.02l-.08-.12Z" fill="#0F1115"/><path d="M11.66 5.64a.02.02 0 0 0-.01-.03.02.02 0 0 0-.03 0l-.26.33c-.02.02-.04.03-.06.02l-.02-.02c-.03-.01-.03-.03-.01-.05l.4-.5h.04c.06.02.08.06.07.1l-.06.46c-.01.07.01.08.06.03a2.84 2.84 0 0 0 .24-.3.06.06 0 0 1 .07 0l.01.01a.05.05 0 0 1 .02.04.05.05 0 0 1-.01.04c-.15.15-.25.28-.32.37-.13.18-.2.16-.18-.07 0-.12.02-.27.05-.43Z" fill="#E8BD4D"/><path d="m6.58 5.92-.15.13-.01.02v.02l.05.19c0 .02 0 .03-.02.03l-.02.01a.06.06 0 0 1-.08-.03l-.18-.63a.07.07 0 0 1 .1-.09l.6.34v.06c-.02.02-.03.02-.06.01l-.18-.07a.05.05 0 0 0-.05 0Z" fill="#B77F30"/><path d="m6.34 5.93-.06-.19a.03.03 0 0 1 .04-.03l.16.1a.05.05 0 0 1 .03.04.05.05 0 0 1-.02.04.23.23 0 0 1-.14.05.02.02 0 0 1-.01-.01Z" fill="#0F1115"/><path d="M10.38 5.98c-.02.03-.05.03-.1 0a4.8 4.8 0 0 1-.33-.12.25.25 0 0 0-.22.03l-.06-.03c.02 0 .03-.02.04-.04 0-.02 0-.03-.03-.04a.66.66 0 0 0-.39.03c-.01.03-.04.04-.08.03l-.45.01-.08-.02v-.01a.03.03 0 0 0-.01-.03.62.62 0 0 0-.25-.02.08.08 0 0 0-.05.03c-.04.04-.1.06-.17.05a.1.1 0 0 0-.05 0c-.14.07-.28.1-.43.1a7.9 7.9 0 0 1 .54-.17c.08 0 .14-.06.21-.06h.9c.14 0 .3.02.46.07.18.05.37.11.55.19Z" fill="#A88F7B"/><path d="M8.68 5.83A3.24 3.24 0 0 0 6 7.93c-.02.06 0 .13-.06.17a.06.06 0 0 0-.02.05v.13a.1.1 0 0 1-.01.05.28.28 0 0 0-.04.18v.02l-.02.03a22.76 22.76 0 0 0 0 .92c0 .04.01.06.05.06.02.09.07.17.08.26 0 .13 0 .25.06.38.2.5.52.93.93 1.29h-.03c-.02.01-.02.02 0 .03.22.2.47.37.75.5.19.1.36.15.5.16.1.01.18.04.23.07l.05.02a265.07 265.07 0 0 1 1.18-.01l.02-.02a.06.06 0 0 1 .05-.03c.17-.02.33-.07.49-.13a3.25 3.25 0 0 0 1.57-1.34 3.25 3.25 0 0 0 .49-1.49c.02-.18.02-.36-.02-.53-.03-.11-.02-.24-.03-.33a.1.1 0 0 0-.01-.05.3.3 0 0 1-.06-.14c-.01-.13-.07-.2-.12-.35-.01-.02-.02-.03-.04-.01l-.01.02A3.19 3.19 0 0 0 9.73 5.9a.25.25 0 0 1 .21-.03 5 5 0 0 0 .34.12c.05.03.08.02.1 0a3.02 3.02 0 0 1 1.4 1.18 3.7 3.7 0 0 1 .5 1.15c.04.1 0 .19.04.3.06.24.06.48.01.73l-.03.24c0 .11-.05.19-.08.31-.02.13-.04.23-.07.3a3.33 3.33 0 0 1-2.83 2.14l-.8-.01c-.13-.01-.24-.06-.36-.07-.01 0-.03 0-.04-.02l-.02-.01-.03-.01a3.5 3.5 0 0 1-1.87-1.38c-.2-.3-.35-.62-.43-.95-.02-.1-.01-.23-.1-.35a6.59 6.59 0 0 0 0-.73c0-.12 0-.24.04-.35.02-.04.05-.18.1-.43.02-.08.07-.16.09-.23l.02-.05c.05-.04.04-.1.07-.16a3.48 3.48 0 0 1 .96-1.2c.25-.18.5-.32.77-.42.15 0 .29-.04.43-.1a.1.1 0 0 1 .05 0c.07 0 .13-.02.17-.06a.08.08 0 0 1 .05-.03c.1-.01.18 0 .25.02a.03.03 0 0 1 .02.03l-.01.01Z" fill="#5A4F49"/><path d="m9.3 5.81.37.05.06.03a3.19 3.19 0 0 1 2.42 3.65.2.2 0 0 0-.22-.01h-.05l-.16-.06c.04-.32.04-.54.02-.65l-.12-.53c-.01-.03-.02-.03-.04 0l-.01.01-.04-.06a.05.05 0 0 0-.04-.03h-.55c-.02 0-.03 0-.03-.03a1.83 1.83 0 0 0-.94-1.09c.06-.24.08-.56.04-.96 0-.1-.04-.14-.12-.15-.08 0-.12.02-.12.08l.03.96c-1.1-.41-2.32.03-2.72 1.17 0 .02-.02.03-.04.03l-.37-.01-.24-.04-.02-.01-.1-.46a.06.06 0 0 0-.04-.05l-.07-.01a3.04 3.04 0 0 1 2.34-1.72.7.7 0 0 0 .22-.07h.45c.04 0 .07-.01.08-.04Z" fill="#EF9921"/><path d="m8.68 5.83.08.02a.7.7 0 0 1-.22.07l-.2.02A3.04 3.04 0 0 0 6 8.16c-.1.4-.12.82-.08 1.27 0 .04 0 .08-.03.1-.04 0-.05-.01-.06-.05a22.76 22.76 0 0 1 .02-.95v-.02c0-.07.01-.13.05-.18a.1.1 0 0 0 .01-.05v-.16l.02-.02c.05-.04.04-.1.06-.16a3.24 3.24 0 0 1 2.68-2.1Z" fill="#D4AD93"/><path d="m9.97 7.1-.17-.08-.03-.96c0-.06.04-.09.12-.08.08 0 .12.06.12.15.04.4.02.72-.04.96Z" fill="#E05E20"/><path d="M12.48 6.27h.2a.03.03 0 0 1 .02.05l-.17.13a.03.03 0 0 0 0 .03l.06.19a.03.03 0 0 1-.01.03.03.03 0 0 1-.04 0l-.16-.12a.03.03 0 0 0-.03 0l-.17.12a.03.03 0 0 1-.03 0v-.03l.05-.2a.03.03 0 0 0 0-.02l-.17-.13a.03.03 0 0 1 0-.04h.22a.03.03 0 0 0 .02-.02l.07-.2h.01a.03.03 0 0 1 .03 0l.07.2a.03.03 0 0 0 .03.01Z" fill="#E8BD4D"/><path d="M5.92 6.32h.22a.02.02 0 0 1 .02.02.02.02 0 0 1 0 .02l-.18.13a.02.02 0 0 0-.01.02l.06.22a.02.02 0 0 1-.02.02l-.19-.13a.02.02 0 0 0-.02 0l-.18.13a.02.02 0 0 1-.03-.02l.06-.22a.02.02 0 0 0 0-.01l-.18-.14a.02.02 0 0 1 .01-.03h.22a.02.02 0 0 0 .02-.02l.07-.2a.02.02 0 0 1 .04 0l.07.2a.02.02 0 0 0 .02.01Z" fill="#B77F30"/><path d="M12.7 7.17c0-.02-.02-.02-.03-.02l-.24.09a.03.03 0 0 1-.04-.01v-.04l.04-.05.56-.28H13l.02.01c.06.1.12.22.16.34.03.1 0 .17-.1.21l-.06.02c-.11.04-.19 0-.24-.1l-.08-.17Z" fill="#E8BD4D"/><path d="M12.93 7a.05.05 0 0 1 .06.03l.06.1a.2.2 0 0 1 .03.12c0 .03-.02.06-.04.08h-.02a.08.08 0 0 1-.04.02c-.01 0-.03 0-.05-.02a.18.18 0 0 1-.04-.03.23.23 0 0 1-.04-.05l-.06-.1a.05.05 0 0 1 0-.04.05.05 0 0 1 .02-.03l.12-.07Z" fill="#0F1115"/><path d="m8.61 7.62.03-.2c0-.02.02-.03.04-.02l.15.09c.03.02.06 0 .08-.02a.53.53 0 0 0 .08-.2c0-.02.01-.03.03-.03l.04.01.01.03a4.08 4.08 0 0 0 .06.2.04.04 0 0 0 .04 0l.2-.08a.02.02 0 0 1 .04.02v.2a.05.05 0 0 0 .04.03l.19.04c.06 0 .06.02 0 .04-.1.04-.19.17-.25.23l-.03.02c-.12-.14-.27-.29-.47-.2a.6.6 0 0 0-.24.16.04.04 0 0 1-.05 0h-.02a.69.69 0 0 0-.2-.2c-.04-.03-.04-.05.02-.06l.17-.02c.03 0 .04-.01.04-.04Z" fill="#EF9921"/><path d="M9.95 10.15a.03.03 0 0 0 .04-.02.03.03 0 0 0 0-.04L9.9 10a.08.08 0 0 1 0-.1l.04-.02a.18.18 0 0 1 .1 0 .06.06 0 0 1 .04.02c.03.06.02.12-.04.19a.07.07 0 0 0-.01.04v.18a.04.04 0 0 0 .06.03l.35-.35c.01-.02.01-.03-.01-.04a.72.72 0 0 1-.22-.11.08.08 0 0 1-.02-.04 65.9 65.9 0 0 0-.01-1.31c0-.17-.16-.18-.26-.26a6.16 6.16 0 0 1-.02-.48c0-.07-.03-.14.01-.2a.08.08 0 0 0-.04-.11l-.18-.06a.04.04 0 0 1-.03-.04V7.3c0-.02.01-.02.03-.02.35.15.63.38.84.7.08.12.1.21.15.3.04.07.06.13.08.2.01.08.05.18.05.3v.38c0 .16-.05.26-.08.4 0 .02 0 .04-.02.05a.32.32 0 0 0-.1.22c0 .02 0 .04-.02.05l-.14.2c-.1.15-.27.28-.42.38-.04.03-.06.02-.06-.02v-.19a.03.03 0 0 0-.01-.02l-.18-.1a.04.04 0 0 1-.02-.04V9.6c0-.02 0-.03-.02-.04-.07-.03-.08-.09-.05-.17l.04-.03a.2.2 0 0 1 .11 0c.02 0 .03.02.03.04v.02a.03.03 0 0 1-.03.02h-.07a.02.02 0 0 0 0 .04l.13.08a.05.05 0 0 0 .07-.04v-.4c0-.01 0-.03-.02-.04-.06-.08-.16-.07-.2-.13-.07-.08-.05-.2-.04-.3v-.04a.23.23 0 0 0-.06-.06c-.03-.02-.03-.04 0-.07a.2.2 0 0 1 .1-.07c.03 0 .06 0 .08.04l.03.04v.04a.42.42 0 0 0-.05.35c0 .02.02.03.03.04l.08.05c.02 0 .04 0 .04-.02a.15.15 0 0 1 .06-.1c.02 0 .01-.01 0-.02-.02 0-.05 0-.08.03h-.04a.05.05 0 0 1-.01-.03c0-.04 0-.06.02-.08.04-.03.09-.04.16-.03.02 0 .03.01.03.03 0 .1-.01.16-.06.2a.06.06 0 0 0-.01.04l.02.54c0 .01 0 .03-.02.04a.34.34 0 0 1-.12.08.12.12 0 0 0-.08.1c-.01.13-.04.36.11.39ZM9.11 8.78l.06.03c.02.01.02.03 0 .04a6.28 6.28 0 0 1-.57.03c-.03 0-.04 0-.05.03l-.03.11a.06.06 0 0 1-.04.04l-.18.07c-.02-.04-.06-.05-.14-.06A.06.06 0 0 1 8.11 9c.05-.08.09-.15.08-.21a3.2 3.2 0 0 1 0-.33h-.02a.38.38 0 0 0-.12-.02c-.06 0-.1-.03-.1-.1v-.3c0-.02 0-.03-.03-.01l-.02.01a.06.06 0 0 0-.03.05v.28l.1.25c0 .02 0 .03-.02.04-.05.03-.12.02-.2 0a.05.05 0 0 1-.02-.1c.04-.04.06-.06.06-.12a10.51 10.51 0 0 1 .01-.44l.13-.13.02-.23v-.01a1.58 1.58 0 0 0-.64 1.02c-.02.08-.06.14-.07.2-.01.06.01.1.07.09h.12c.06-.01.1-.04.09-.1 0-.15.03-.35-.05-.48a.05.05 0 0 1 0-.05.18.18 0 0 1 .13-.08.07.07 0 0 1 .08.1 1.27 1.27 0 0 0-.05.57.04.04 0 0 0 .04.03.2.2 0 0 1 .1 0c.02.01.03.03.03.05v.5c0 .04.02.05.05.05h.02c.05-.02.07-.05.07-.1v-.48c0-.01 0-.03-.02-.04a.1.1 0 0 0-.02-.03l-.02-.02v-.06l.03-.03c.06-.05.1-.07.14-.06a.1.1 0 0 1 .04.13.44.44 0 0 0-.06.24 24.38 24.38 0 0 1 0 .41l-.05.05-.14.1-.02.01a.32.32 0 0 0-.03.13v.43c0 .04.02.08.06.1l.06.03c.04.02.06 0 .05-.04a.79.79 0 0 1 0-.3l-.02-.04-.06-.06v-.05c.03-.06.07-.1.13-.12.02 0 .03 0 .04.02.03.04.04.09.05.15 0 .02 0 .03-.02.04l-.06.04a.04.04 0 0 0-.02.05l.03.02h.03a.59.59 0 0 0 .22-.1.06.06 0 0 0 .02-.04v-.14a.03.03 0 0 0-.01-.03c-.1-.06-.11-.13-.04-.2a.08.08 0 0 1 .05-.02c.04 0 .07 0 .08.02v.04l-.06.01a.03.03 0 0 0 0 .06c.01.02.04.01.06-.01.02-.02.03-.01.03.01 0 .05 0 .07-.02.08a.05.05 0 0 0-.03.03l-.01.05c.02.12 0 .2-.08.23l-.22.12c-.02.01-.02.03-.02.04a.5.5 0 0 1 0 .28.03.03 0 0 1-.03 0c-.09-.04-.22-.12-.28-.21-.04-.06-.11-.09-.15-.14a1.84 1.84 0 0 1-.3-.6c-.05-.18-.11-.3-.1-.46 0-.1-.02-.23.02-.32.05-.15.05-.3.12-.44.14-.3.35-.57.63-.79a1.15 1.15 0 0 1 .39-.2.04.04 0 0 1 .03.04v.01a.02.02 0 0 1-.02.02.63.63 0 0 0-.33.2v.05h.01l.01.03v.62a.04.04 0 0 0 .04.04h.13c.05 0 .08.02.08.07l.02.51-.01.04-.03.03c-.02.01-.02.02 0 .02h.17c.02 0 .03-.01.03-.03 0-.06.01-.1.05-.15a.05.05 0 0 1 .04-.02h.56Z" fill="#A88F7B"/><path d="M5.39 7.85c0-.09-.06-.14-.11-.2-.02-.03-.02-.05.02-.04.2.01.2.23.14.39-.14.35-.89.09-.64-.35A.28.28 0 0 1 5 7.5c.02 0 .04 0 .05.02.01.01.02.03.01.04 0 .01 0 .02-.02.03-.09.04-.17.07-.2.18-.04.27.51.43.55.08ZM12.78 7.81l.1.36v.02l-.05.04a.02.02 0 0 1-.03 0v-.01l-.15-.48v-.02h.02l.64-.2h.02v.02l.14.45a.02.02 0 0 1-.02.02h-.08V8l-.1-.33a.02.02 0 0 0-.03-.01l-.14.03a.02.02 0 0 0-.01.03l.1.33a.02.02 0 0 1-.02.03h-.07a.02.02 0 0 1-.02-.01l-.1-.32a.02.02 0 0 0-.02-.01l-.16.05h-.01v.02Z" fill="#E8BD4D"/><path d="M10.33 8.51v.41c0 .02-.01.03-.02.03h-.03l-.02-.01v-.9c0-.16-.1-.17-.2-.23a.06.06 0 0 1-.03-.04L10 7.63c-.03-.1 0-.11.08-.05.14.1.27.23.38.4.07.1.09.17.1.3a.08.08 0 0 1-.04.08l-.16.1a.06.06 0 0 0-.02.05Z" fill="#0F1115"/><path d="m6.67 8.2-.2.01-.03.03c-.06.3-.14.66-.1.96.04.19.03.38.1.58.28.78.8 1.34 1.55 1.69.08.09.2.14.33.15a.1.1 0 0 1 .05.02c.03.03.06.04.08.04.17 0 .32.05.47.06h.3c.1 0 .17-.05.29-.06.14 0 .26-.04.38-.1.13-.05.29-.1.4-.17.2-.1.38-.24.55-.39.38-.33.64-.74.78-1.24l.1-.3.16.05h.05a.2.2 0 0 1 .22.01 3.2 3.2 0 0 1-1.53 2.22c-.17.1-.4.18-.55.25-.13.05-.27.1-.43.12-.5.08-1 .07-1.46-.03-.2-.05-.42-.16-.61-.24a3.34 3.34 0 0 1-1.53-1.67c-.06-.14-.05-.26-.06-.39 0-.1-.06-.17-.08-.26a.14.14 0 0 0 .03-.11A3.9 3.9 0 0 1 6 8.16c.04-.14.1-.32.2-.52l.06.01c.02.01.04.03.04.05l.1.46.02.01.24.04Z" fill="#CE371E"/><path d="M6.97 11.47c.26.2.46.33.6.39.2.08.4.2.6.24.48.1.97.11 1.47.03.16-.03.3-.07.43-.12.16-.07.38-.15.55-.25a3.2 3.2 0 0 0 1.36-3.92l.01-.02c.02-.02.03-.01.04 0 .05.15.1.23.11.36 0 .04.03.09.07.14a.1.1 0 0 1 .01.05c0 .1 0 .22.03.33.04.17.04.35.02.53a4.47 4.47 0 0 0-.07.5 3.25 3.25 0 0 1-.96 1.66c-.29.28-.63.5-1.03.67-.16.06-.32.1-.5.13a.06.06 0 0 0-.04.03l-.02.02a265.07 265.07 0 0 0-1.23 0 .49.49 0 0 0-.22-.08 1.65 1.65 0 0 1-.51-.16c-.28-.13-.53-.3-.76-.5v-.03h.04ZM10 7.92c0-.04 0-.05.04-.03.03.01.07.03.1.06s.05.06.05.11v.15c0 .04-.02.05-.06.04l-.07-.02a.08.08 0 0 1-.06-.08v-.23Z" fill="#0F1115"/><path d="M9.75 8.09c.02-.04 0-.06-.07-.04a.22.22 0 0 0-.05.03c-.12.09-.32.15-.44.05a1.05 1.05 0 0 0-.12-.09.06.06 0 0 0-.05 0c-.13.04-.23.18-.38.12-.06-.03-.06-.05 0-.07.17.03.2-.03.33-.14a.09.09 0 0 1 .14.02c.07.13.19.16.34.1a.74.74 0 0 0 .19-.1.08.08 0 0 1 .1-.02c.02.02.03.07.01.14Z" fill="#D4AD93"/><path d="M8.63 8.09c-.05.02-.05.04 0 .06.16.07.26-.07.39-.11h.05l.12.09c.12.1.32.04.44-.05a.22.22 0 0 1 .05-.03c.06-.02.09 0 .07.04l-.27.18c-.06.04-.07.08-.09.14 0 .02.01.03.03.03l.1.01c.02 0 .03.01.04.03 0 .02 0 .03-.02.04-.06.03-.09.1-.08.21a.06.06 0 0 0 .03.05c.04.02.07.06.07.1 0 .02 0 .03-.02.05a.12.12 0 0 0-.02.06c0 .02 0 .03.02.02a.39.39 0 0 1 .18 0c.02 0 .02.01.02.03l-.02.15a.03.03 0 0 1-.03.03l-.32.01-.02.02v.01h.02l.09.03c.07.02.07.05 0 .07a1.1 1.1 0 0 0-.26.2.66.66 0 0 0-.37-.02l-.14-.07a.14.14 0 0 0-.12-.05c-.01 0-.02 0-.03-.02V9.4l.04-.03c.15.01.3 0 .44-.01.02 0 .03-.02.01-.04l-.05-.03c-.01-.04-.04-.05-.08-.05-.1-.01-.3 0-.56 0-.02 0-.03 0-.04-.02v-.08l.18-.07a.06.06 0 0 0 .04-.04l.03-.11c0-.02.02-.03.04-.03a6.3 6.3 0 0 0 .58-.03c.02-.01.02-.03 0-.04l-.06-.03h.02a.02.02 0 0 0 0-.03.02.02 0 0 0-.02-.01h-.53a.04.04 0 0 1-.04-.04.24.24 0 0 0-.04-.13c.1-.1.26-.04.39-.06.08 0 .08-.03.01-.07h-.05l.02-.02a.02.02 0 0 0-.02-.02h-.2c-.02 0-.04-.01-.05-.03a.45.45 0 0 0-.25-.19c-.06-.02-.1-.06-.09-.14.01-.08.05-.1.12-.07l.25.12Z" fill="#E8821E"/><path d="M5.85 8.28c-.01-.02 0-.06.01-.11.02-.03.02-.03.02 0v.1c0 .07-.01.07-.03.01Z" fill="#0F1115"/><path d="m4.98 8.6-.14.07c-.07.03-.06.05.02.06l.37.03c.01 0 .03 0 .04.02l.02.04a.05.05 0 0 1-.02.04l-.02.01h-.03l-.56-.07c-.13-.02-.14-.06-.03-.13a3.83 3.83 0 0 1 .44-.22c.08-.04.07-.06 0-.06l-.38-.03-.04-.02a.07.07 0 0 1-.02-.05v-.02l.02-.02h.02l.02-.01.57.08c.13.02.14.06.03.13l-.3.15ZM13.15 8.44c0-.05-.03-.07-.08-.06l-.08.01c-.05 0-.07.03-.06.08l.05.3v.03l-.03.03h-.02a.04.04 0 0 1-.04 0V8.8l-.07-.45a.05.05 0 0 1 .02-.05h.02l.57-.08c.07 0 .1.02.1.09l.04.39c0 .02 0 .03-.03.02h-.02a.06.06 0 0 1-.05-.06l-.03-.27c0-.04-.03-.06-.07-.05h-.06c-.04 0-.06.03-.06.07l.04.3c0 .02-.01.04-.04.03h-.02c-.03 0-.04-.02-.04-.05l-.04-.26Z" fill="#E8BD4D"/><path d="m11.71 9.47-.09.3c-.14.5-.4.92-.78 1.25-.17.15-.35.28-.54.4-.12.06-.28.1-.41.17-.12.05-.24.08-.38.1-.12 0-.2.05-.3.05h-.29c-.15-.01-.3-.07-.47-.06-.02 0-.05-.01-.08-.04a.1.1 0 0 0-.05-.02.55.55 0 0 1-.33-.15l.36.1.02.02.01.02a.6.6 0 0 1 .26.02c.2.06.44.04.65.04.07-.04.12-.05.14-.04a2.64 2.64 0 0 0 2.23-2.57c.02-.25-.04-.5-.09-.76l.01-.02c.02-.02.03-.02.04 0l.12.54c.02.11.02.33-.03.65Z" fill="#D4AD93"/><path d="M10.36 9.1a.04.04 0 0 0 .02.02.04.04 0 0 0 .04 0 .1.1 0 0 0 .05-.07l-.01-.09a.73.73 0 0 1-.05-.41c0-.02 0-.03.02-.05a.25.25 0 0 1 .11-.05l.03-.01.04-.05c.04-.05.06-.05.06.02s.02.14.06.21l.02.05v.5c0 .14-.06.22-.08.33a.06.06 0 0 1-.04.05h-.02c-.03 0-.04 0-.03-.03a1 1 0 0 0 .04-.52c0-.02 0-.03.02-.04l.02-.02c.02-.01.02-.03.02-.04a.25.25 0 0 1-.01-.14c0-.02-.01-.03-.03-.03-.15-.02-.2.14-.08.23v.05a.7.7 0 0 0 0 .29.1.1 0 0 1-.01.05.22.22 0 0 0 0 .19.02.02 0 0 1 0 .03.13.13 0 0 1-.09 0c-.01 0-.02 0-.02-.02l.03-.2c0-.03 0-.04-.02-.05-.05-.02-.1-.01-.15.04h-.03a.03.03 0 0 1-.01-.02l-.01-.2c0-.01 0-.02.02-.03l.06-.04c0-.03 0-.03.01 0l.02.05Z" fill="#0F1115"/><path d="M8.85 8.44h.05c.07.04.07.06-.01.07-.13.02-.3-.04-.39.06-.03-.04-.02-.08.02-.1a.14.14 0 0 1 .08-.03h.25ZM6.96 8.98a.88.88 0 0 1-.41.04.07.07 0 0 0-.08.05v.03c0 .05.01.1.04.16s.05.12.05.16c0 .1-.02.16-.08.18l-.06-.62v-.01l.02-.01c.2-.04.37-.03.52.02ZM11.57 9.03h-.41a.03.03 0 0 0-.03.03l-.01.42c-.05.15-.1.3-.14.47-.03.1-.09.16-.16.16.17-.34.24-.71.23-1.12 0-.03.01-.04.04-.04h.45c.03 0 .04 0 .05.02l-.02.06Z" fill="#D4AD93"/><path d="M13.2 9.38c-.02-.01-.03-.02-.05 0l-.19.13a.06.06 0 0 1-.05.01c-.09-.03-.1-.07 0-.12.14-.08.31-.15.26-.32a.04.04 0 0 0-.03-.02l-.25-.04a.03.03 0 0 1-.03-.02.03.03 0 0 1 .02-.04l.03-.02h.02l.62.01c.04 0 .05.02.05.06l-.03.37c-.01.06-.04.1-.09.11-.13.05-.22.01-.29-.1ZM5.2 9.35l-.01-.36v-.01l.02-.01.03-.01c.02 0 .03 0 .03.02l.04.46a.05.05 0 0 1-.02.05h-.02l-.65.03a.03.03 0 0 1-.03-.03l-.02-.43c0-.03.01-.04.04-.05h.03c.03 0 .04.02.04.04l.02.3c0 .05.02.07.07.06h.04c.04-.01.06-.04.06-.09v-.25c-.01-.02 0-.04.02-.04.01-.01.03-.02.05-.01.02 0 .03 0 .04.03.02.12.02.22 0 .29-.01.02 0 .03.02.03.07.02.13.02.18 0 .02 0 .02 0 .02-.02Z" fill="#E8BD4D"/><path d="M7.37 9.2c-.01.05 0 .08.04.1l.02.05c.01.02.02.05.04.06.02.02.03.02.05.02a.5.5 0 0 1 .2.02.04.04 0 0 1 .03.02.04.04 0 0 1 0 .03 14.2 14.2 0 0 0-.02.55c0 .1-.02.12-.09.04-.18-.2-.29-.44-.33-.7-.02-.12-.07-.2-.08-.3 0-.05.02-.08.08-.09L7.64 9c.06 0 .09.02.09.08l.01.26c0 .02 0 .03-.03.03h-.1c-.02 0-.03 0-.04-.03l.02-.08a.08.08 0 0 0-.07-.12c-.02 0-.05 0-.09.02-.03.01-.06.03-.06.06Z" fill="#0F1115"/><path d="M6.96 8.98c-.02.42.06.79.26 1.1v.03l-.37.33a.01.01 0 0 1-.02 0c-.18-.28-.3-.55-.35-.84.06-.02.08-.08.08-.18 0-.04-.02-.1-.05-.16a.43.43 0 0 1-.04-.16.07.07 0 0 1 .05-.07h.03c.14.01.28 0 .41-.05Z" fill="#CE371E"/><path d="M11.57 9.03c.01.2-.01.39-.07.57-.03-.01-.05-.03-.07-.07 0-.02-.02-.02-.03-.02l-.12.04-.05-.01a.25.25 0 0 0-.11-.06v-.42l.02-.02h.02l.4-.01Z" fill="#E8821E"/><path d="M13.43 9.06h-.07a.07.07 0 0 0-.07.06l-.01.2c0 .03.03.06.07.06h.07c.04 0 .07-.02.07-.06v-.19a.07.07 0 0 0-.06-.07Z" fill="#0F1115"/><path d="M8.98 9.28c.03 0 .05.02.06.03 0 .02 0 .03-.02.04-.15.02-.3.02-.44.02l-.04.02c-.03-.01-.04-.02-.04-.04s.02-.03.04-.04a.11.11 0 0 1 .06-.02l.38-.01Z" fill="#D4AD93"/><path d="M10.34 9.44c-.01.05 0 .1.03.16l.04.03c.14.04.18.12.08.23 0 .01 0 .02-.02.02h-.02l-.15-.1a.09.09 0 0 1-.04-.07v-.2c0-.07.04-.13.11-.13.03 0 .04.01.02.03h-.02a.04.04 0 0 0-.03.03Z" fill="#0F1115"/><path d="M14.98 9.46a6 6 0 0 1-.62 2.23c-.23 0-.45-.03-.66-.08.38-.68.59-1.4.64-2.14l.64-.01Z" fill="#E05E20"/><path d="M8.83 9.54v.03H8.8c-.03.02-.03.03-.02.06l.01.04c0 .11 0 .2-.03.28h-.1l-.01-.27c0-.03 0-.07.02-.1a.04.04 0 0 0 0-.04c0-.04-.04-.05-.1-.06h.12l.14.06Z" fill="#622620"/><path d="M9.45 9.58a.11.11 0 0 0-.07.02.06.06 0 0 0-.02.04l-.01.3c-.06-.06-.09-.15-.08-.27 0-.1.08-.16.17-.2.02 0 .03 0 .04.02 0 .03 0 .06-.03.09Z" fill="#D4AD93"/><path d="M11.5 9.6a1.67 1.67 0 0 1-.34.8.04.04 0 0 1-.05-.02c-.06-.1-.16-.19-.29-.27.07 0 .13-.06.16-.16l.14-.47c.04 0 .08.03.11.06h.05l.12-.03c.01 0 .03 0 .03.02.02.04.04.06.07.07Z" fill="#CE371E"/><path d="m8.65 9.94-.03.03a.03.03 0 0 1-.03 0 .03.03 0 0 1-.02-.02v-.47c.06 0 .1.02.1.06.02.01.02.03 0 .05a.12.12 0 0 0-.02.09v.26Z" fill="#D4AD93"/><path d="m9.2 9.56.02.32v.03l.03.02c.12.06.2.13.26.23l.02.01h.06a.07.07 0 0 1 .07.05.07.07 0 0 1-.04.08l-.33.16c-.04.02-.07.06-.09.14l-.03.16c0 .02-.01.03-.03.03a22.84 22.84 0 0 1-.27.02.17.17 0 0 1-.04-.03.07.07 0 0 0-.04-.01c-.2-.02-.4-.08-.58-.18a.15.15 0 0 1 .06-.1h.1c.07 0 .13-.01.2-.04l.1.05c.02 0 .03.01.03.03v.1a.05.05 0 0 0 .05.05h.03v-.03c.01-.08 0-.15-.04-.2a.07.07 0 0 0-.05-.02.25.25 0 0 1-.18-.08.08.08 0 0 0-.05-.02H8.4l.44-.36a.07.07 0 0 0 .02-.05c.02-.1.02-.2-.01-.3 0-.02 0-.02-.02-.03l-.02-.01h.03v-.04a.66.66 0 0 1 .37.02ZM3.75 9.6l.07.58.02.04c.07.11.07.25.11.35l.27.7c.07.16.18.3.25.46l-.12.14a.06.06 0 0 1-.05.03c-.1 0-.17.03-.26.1a.12.12 0 0 1-.08.01c-.02 0-.03 0-.03.03-.02.17.13.36.24.47.08.07.17.06.25-.02a.33.33 0 0 1 .23-.1l.05-.01.13-.11.11.1c.16.14.26.32.4.45.18.16.4.34.65.53.01.07.07.12.18.17l.33.18.33.18c.31.13.58.23.8.3.09.04.19.03.27.06.13.06.26.03.4.07l.15.03c.63.02.99.02 1.09 0 .41-.05.75-.12 1.01-.2a4.66 4.66 0 0 0 1.64-.83c-.1.28-.22.53-.36.76-.03.05-.07.14-.11.28a5.99 5.99 0 0 1-7.96-2.43c-.04-.16-.1-.32-.18-.47a1.98 1.98 0 0 1-.14-.3l-.1-.33c-.03-.08-.05-.22-.1-.31a.09.09 0 0 1 0-.05c0-.06 0-.11-.03-.16-.07-.14-.03-.28-.08-.42a.57.57 0 0 1-.03-.3c.22-.04.43-.03.65.02Z" fill="#CE371E"/><path d="M5.02 9.79h.04l.16-.19a.06.06 0 0 1 .05-.02c.09.01.1.05.03.12-.12.11-.27.22-.18.37 0 .02.02.02.04.02l.25-.03a.03.03 0 0 1 .03.02.03.03 0 0 1 0 .03l-.03.04H5.4l-.61.14c-.04.01-.06 0-.06-.04l-.07-.37c0-.05.01-.1.06-.12.11-.08.21-.07.3.03Z" fill="#E8BD4D"/><path d="M9.45 9.58c.03.12.04.24.02.37 0 .02-.02.03-.04.02l-.08-.03v-.3c0-.02.02-.03.03-.04a.11.11 0 0 1 .07-.02Z" fill="#CE371E"/><path d="M8.8 9.58h.02l.02.03c.03.1.03.2.01.31 0 .02 0 .03-.02.05l-.44.37c-.09.03-.03.07.17.11a.44.44 0 0 1-.2.03c-.04 0-.07 0-.1.02a.15.15 0 0 0-.05.09c-.09-.01-.08-.06.02-.14.07-.06.16-.05.13-.18l.01-.05a.15.15 0 0 1 .08-.03l.04-.01.27-.23a.67.67 0 0 0 .03-.28l-.01-.04c-.01-.03 0-.04.02-.05Z" fill="#D4AD93"/><path d="M4.85 10.16a.04.04 0 0 1-.03 0 .04.04 0 0 1-.01-.03l-.03-.1a.37.37 0 0 1 0-.15c0-.04.03-.07.05-.07h.02c.03-.01.05 0 .08.04.03.03.05.08.06.14l.03.1a.04.04 0 0 1 0 .02.04.04 0 0 1-.03.02l-.14.03Z" fill="#0F1115"/><path d="M13.43 10.23c-.01.07-.03.15-.07.25 0 .01-.01.02-.03.02h-.02a.04.04 0 0 1-.03-.04l.03-.18a45.62 45.62 0 0 0-.49-.16c-.07-.01-.1-.04-.1-.07.02-.04.05-.05.12-.03l.47.13c.02 0 .03 0 .04-.02l.06-.17a.04.04 0 0 1 .02-.02.04.04 0 0 1 .03 0l.01.01c.02 0 .03.02.02.04-.01.1-.04.18-.06.24ZM5.25 10.48l.12-.21a.06.06 0 0 1 .05-.03c.1 0 .1.03.05.1-.1.14-.23.27-.11.41.01.01.02.02.04.01l.25-.07a.03.03 0 0 1 .03.01.03.03 0 0 1 0 .03l-.02.05h-.01l-.58.25c-.03.01-.06 0-.07-.03l-.13-.36c-.01-.05 0-.1.03-.13.1-.1.2-.1.32-.03.01.02.02.01.03 0Z" fill="#E8BD4D"/><path d="M8.4 10.34c0-.02.03-.02.06-.01.02 0 .04 0 .05.02.04.05.1.08.18.08a.07.07 0 0 1 .05.03c.04.04.05.11.05.2a.03.03 0 0 1-.03.02h-.01a.05.05 0 0 1-.05-.05v-.1c0-.01-.01-.03-.03-.03a.32.32 0 0 1-.1-.05c-.2-.04-.27-.08-.18-.11Z" fill="#0F1115"/><path d="M9.76 10.39c-.1.06-.2.1-.3.13-.07.02-.13.12-.16.27-.06-.15 0-.26.17-.34a.57.57 0 0 1 .3-.06Z" fill="#D4AD93"/><path d="M9.3 10.8c.03-.16.09-.26.17-.28.1-.03.2-.07.29-.13l.06.05a.1.1 0 0 1 .01.13.1.1 0 0 1-.04.03l-.32.14h-.02a.38.38 0 0 0-.15.05Z" fill="#CE371E"/><path d="M13.19 10.93a.33.33 0 0 1-.2.18.38.38 0 0 1-.28-.02.38.38 0 0 1-.2-.2.33.33 0 0 1 0-.26c.05-.08.12-.14.2-.17a.38.38 0 0 1 .28.01c.1.04.16.11.2.2.03.09.03.18 0 .26Z" fill="#E8BD4D"/><path d="M5.09 10.9a.02.02 0 0 1-.02 0l-.04-.08a.52.52 0 0 1-.04-.17c0-.05 0-.08.03-.1h.04c.02-.02.05 0 .08.03.04.04.07.1.1.15l.03.07a.02.02 0 0 1 0 .02l-.18.08ZM12.77 11c.14.06.3 0 .34-.12.05-.12-.03-.26-.18-.31-.14-.06-.3 0-.34.11-.05.12.03.27.18.32Z" fill="#0F1115"/><path d="M10.45 10.56a1.48 1.48 0 0 1-1 .57.06.06 0 0 0-.05.02l-.02.06a.02.02 0 0 1-.02.01c-.02-.01-.02-.03-.02-.06 0-.02 0-.03.02-.04a.23.23 0 0 1 .04-.03c.36-.1.7-.27 1.05-.53Z" fill="#D4AD93"/><path d="M9.43 11.63c-.02-.01-.07 0-.14.04l.05-.06a.05.05 0 0 0 0-.04 1.31 1.31 0 0 1-.03-.47l.02-.01c.02-.01.04-.01.07 0a.23.23 0 0 0-.04.03.06.06 0 0 0-.02.04c0 .03 0 .05.02.06a.02.02 0 0 0 .02 0l.02-.07a.06.06 0 0 1 .04-.02c.15-.03.27-.06.36-.1.26-.09.48-.25.65-.47l.26.3c.03.04.03.08-.01.11-.38.33-.8.53-1.27.6-.03 0-.03.02 0 .06Z" fill="#CE371E"/><path d="m7.7 10.64-.42.33.3-.35a.04.04 0 0 1 .05-.01c.03 0 .05.02.07.03Z" fill="#D4AD93"/><path d="M7.79 10.73c.18.16.39.28.63.37.1.04.2.06.3.06l-.02.3a.1.1 0 0 1-.12.1l-.63-.16c-.1-.03-.33-.17-.67-.43l.42-.33c.08.04.11.07.09.09Z" fill="#CE371E"/><path d="m5.83 11.16-.02-.03c-.06-.09-.14-.1-.23-.04-.14.1-.25.17-.33.2-.04.03-.07.03-.1.01a.03.03 0 0 1 0-.04v-.01l.47-.31a.06.06 0 0 1 .07 0c.11.05.19.11.23.18.1.17.01.28-.13.37-.13.09-.24.2-.38.2-.02 0-.02 0-.02-.03.02-.04.04-.07.06-.08.2-.12.3-.2.35-.24a.14.14 0 0 0 .03-.18ZM12.34 11.48l-.18-.18a.03.03 0 0 1 0-.03l.01-.02h.02l.06.01.48.38a.03.03 0 0 1 0 .04c-.06.1-.13.2-.23.28-.07.08-.15.07-.23 0l-.04-.04c-.08-.08-.08-.17-.01-.25l.12-.15v-.04ZM5.8 11.8c-.16.36.4.4.47.04.03-.2-.13-.25-.29-.22h-.03s-.02 0-.02-.02c-.05-.03-.03-.06.04-.08.28-.09.52.21.36.47-.13.21-.4.31-.6.1-.08-.1-.13-.3.03-.34a.03.03 0 0 1 .03.01.03.03 0 0 1 0 .03Z" fill="#E8BD4D"/><path d="M12.59 11.65a.05.05 0 0 1 0 .07l-.1.13a.13.13 0 0 1-.08.05h-.04a.1.1 0 0 1-.04-.02h-.02a.1.1 0 0 1-.04-.09l.03-.09.1-.13a.05.05 0 0 1 .04-.02.05.05 0 0 1 .03.01l.12.09Z" fill="#0F1115"/><path d="M14.36 11.7c-.14.28-.32.56-.5.83l-.77-.05c.22-.28.43-.57.61-.87.21.05.43.08.66.08Z" fill="#622620"/><path d="M12.1 12.27c.05-.04.05-.08 0-.11l-.03-.04c-.04-.04-.08-.04-.12 0l-.17.18a.07.07 0 0 1-.07.01h-.03a.02.02 0 0 1 0-.05l.23-.21c.03-.04.03-.07 0-.11l-.05-.04c-.04-.04-.07-.04-.11 0l-.2.18a.08.08 0 0 1-.08.02h-.03v-.05l.34-.31.01-.01h.04l.02.01.43.46v.03l-.34.3-.01.01h-.05l-.02-.01a.04.04 0 0 1 0-.05l.25-.21Z" fill="#E8BD4D"/><path d="m4.83 12.27-.13.1a.08.08 0 0 1-.05.02c-.1 0-.17.04-.23.1-.08.08-.17.1-.25.02-.1-.11-.26-.3-.25-.47 0-.02.02-.03.04-.03.03 0 .06 0 .08-.02a.44.44 0 0 1 .26-.1c.02 0 .04 0 .05-.02l.12-.14.36.54Z" fill="#622620"/><path d="m6.9 12.28-.23-.16-.01-.02v-.02l.02-.02.03-.02h.03l.3.22a.03.03 0 0 1 .01.04l-.35.51-.03.03a.1.1 0 0 1-.05 0c-.01 0 0-.06.05-.17 0-.01 0-.02 0 0a41.81 41.81 0 0 1 .24-.38v-.01Z" fill="#E8BD4D"/><path d="m7.43 12.69.16-.12h.05l.01.02v.04l-.49.46a.07.07 0 0 1-.12-.05l.03-.66a.06.06 0 0 1 .04-.05h.05c.02 0 .02.02.02.03v.2a.04.04 0 0 0 .01.03l.19.1a.05.05 0 0 0 .05 0Z" fill="#EF9921"/><path d="M13.85 12.53c-.06.1-.13.18-.2.27a5.38 5.38 0 0 0-.67-.09.1.1 0 0 1-.04-.05l.15-.18.76.05Z" fill="#CE371E"/><path d="M7.87 12.64c.04 0 .04.05.02.11l-.15.45c0 .02 0 .04.02.04l.15.08a.04.04 0 0 1 .02.02.03.03 0 0 1 0 .02v.02c-.01.02-.03.02-.04.02l-.24-.08a1.44 1.44 0 0 1-.24-.08c-.02 0-.02-.02-.02-.04v-.01a.03.03 0 0 1 .02-.03h.02l.17.03c.02 0 .04 0 .04-.02l.15-.45c.02-.07.05-.1.08-.08Z" fill="#B77F30"/><path d="M12.94 12.66c0 .02.02.03.04.05l.07.02c.18.01.38.03.6.07a5.96 5.96 0 0 1-1.93 1.55c.04-.14.07-.23.1-.28.15-.23.27-.48.38-.75l.74-.66Z" fill="#622620"/><path d="M7.33 12.77a.02.02 0 0 1 0 .02.45.45 0 0 1-.1.1c-.04.03-.07.04-.09.03l-.01-.03v-.06l.03-.06a.54.54 0 0 1 .04-.07.02.02 0 0 1 .03 0l.1.07Z" fill="#0F1115"/><path d="M8.09 13.42a.02.02 0 0 1-.02 0 .02.02 0 0 1 0-.02l.11-.53a.48.48 0 0 1 .04-.1l.02-.03h.02c.02 0 .03.02.03.05a.4.4 0 0 1 0 .1l-.12.53a.02.02 0 0 1-.01.02h-.01l-.06-.02ZM10.09 13.42a.04.04 0 0 1-.01.03h-.01l-.02.01-.23.04a.33.33 0 0 1-.24-.06.32.32 0 0 1-.14-.2v-.07a.32.32 0 0 1 .05-.24.33.33 0 0 1 .21-.14l.24-.04a.04.04 0 0 1 .02.01.04.04 0 0 1 .02.02l.1.64ZM8.53 13.09l.16.02c.02 0 .03.02.02.04l-.02.02c0 .01 0 .02-.02.02h-.03l-.22-.03h-.03v-.03l.02-.19a.06.06 0 0 1 .03-.04c.3-.2.67 0 .6.37-.07.32-.48.38-.65.1a.04.04 0 0 1 0-.05l.04-.03.04.02c.03.05.07.1.13.13.35.12.46-.38.23-.5-.08-.03-.3-.05-.34.08a.06.06 0 0 0 .02.06h.02ZM9.24 12.84H9.2a.04.04 0 0 0-.03.04l.04.66c0 .02.01.03.03.03h.03c.02 0 .04-.02.04-.04l-.04-.66a.04.04 0 0 0-.04-.03Z" fill="#B77F30"/><path d="M9.95 13.33a.04.04 0 0 1-.04.05l-.12.02a.2.2 0 0 1-.15-.04.22.22 0 0 1-.08-.14l-.02-.08a.22.22 0 0 1 .04-.16.2.2 0 0 1 .13-.09l.12-.02.03.01.02.03.07.42Z" fill="#0F1115"/><defs><linearGradient id="a" x1="3.35" y1="3.12" x2="21.9" y2="24.43" gradientUnits="userSpaceOnUse"><stop stop-color="#1A1E21"/><stop offset="1" stop-color="#06060A"/></linearGradient></defs></svg>