<!-- by TradingView --><svg width="18" height="18" viewBox="0 0 18 18" xmlns="http://www.w3.org/2000/svg"><path fill="url(#a)" d="M0 0h18v18H0z"/><path d="M4.68 6.86c.3-.12.5-.4.42-.62-.06-.22-.36-.3-.66-.19-.3.12-.5.4-.43.63.07.22.37.3.67.18Zm8.58.23a.27.27 0 0 0-.07-.1.23.23 0 0 0-.1-.05L13 6.93c-.13-.02-.27-.05-.36-.16-.1-.14-.1-.3.01-.49.07-.1.22-.16.43-.16.38 0 .66.16.84.5.3.57-.4 1.04-.67.47Zm.03 1.82c.15-.31.21-.62.2-.96v-.09a.18.18 0 0 0-.05-.06c-.31-.27-.57-.2-.79.2l-.13.25c-.13.26-.28.55-.44.78A4.5 4.5 0 0 1 9.21 11c-1.71.35-3.35-.55-4.05-2.39l-.29-.82c-.06-.19-.2-.25-.38-.18h-.01c-.18.1-.25.24-.2.45.25 1.17.74 2.1 1.48 2.8a4.34 4.34 0 0 0 4.42.89A5.23 5.23 0 0 0 13.3 8.9Z" fill="#9AFD9B"/><defs><linearGradient id="a" x1="3.35" y1="3.12" x2="21.9" y2="24.43" gradientUnits="userSpaceOnUse"><stop stop-color="#1A1E21"/><stop offset="1" stop-color="#06060A"/></linearGradient></defs></svg>