<!-- by TradingView --><svg xmlns="http://www.w3.org/2000/svg" width="18" height="18"><path fill="#101115" d="M0 0h18v18H0z"/><path fill-rule="evenodd" d="M6.24 9.31c-.26-.3-.1-.8 0-1.02.04-.04.16.12.22.2a.8.8 0 01.12-.2c.02 0 .09.14.12.2.04-.08.14-.24.17-.2v.2l.01.27V5.82h4.24v2.94l.02-.18c.01-.14.03-.27.05-.3.03-.03.12.13.17.22.03-.07.1-.21.12-.21.02 0 .09.14.12.2.06-.08.18-.24.22-.2.1.21.26.73 0 1.02.02-.02.07-.04.08.03l.02.07c.08.23.31.92-.24 1.25l.04.11.24-.3c.03-.03.05 0 .05.02l.01.05c.03.15.11.53.1.69-.03.19-.28.47-.54.68l-.03.1.33-.04c.02 0 .06 0 .06.05-.01.04-.33.69-.6.82a1.1 1.1 0 01-.78.06l-.01-.05-.18.08c.1.06.29.19.3.24 0 .06-.49.18-.66.18a.6.6 0 01-.25-.03c.02.05.07.15.06.17a.83.83 0 01-.5-.14c-.11-.1-.12-.2-.1-.26a.34.34 0 01-.18.08h-.02a.34.34 0 01-.18-.08c.02.05.01.17-.1.26a.83.83 0 01-.5.14c-.01-.02.04-.12.06-.17a.6.6 0 01-.25.03c-.17 0-.66-.12-.65-.18 0-.05.2-.18.29-.24l-.18-.08c0 .03-.01.05-.02.05-.11.06-.5.08-.77-.06-.27-.13-.59-.78-.6-.82 0-.04.04-.05.06-.05l.33.05-.03-.11c-.26-.21-.52-.5-.54-.68-.01-.16.07-.54.1-.69v-.05c0-.02.03-.05.05-.03.03.02.18.21.25.31l.04-.1c-.55-.34-.32-1.03-.25-1.26a.63.63 0 00.02-.07c.02-.07.07-.05.09-.03zm.64-.1l-.08.15.08.16v-.3zm0 1.23l-.07.12.07.26v-.38zm0 1.17l-.05.1.1.06a.35.35 0 01-.05-.16zm.64.6c.05.03.18.07.28.08a.84.84 0 00-.21.07l-.07-.15zm.25.45l-.15-.08-.01.13-.1.02v.04l.26-.11zm1.05.04l-.04-.06.03-.04.05.05-.04.05zm-2.23-.82l.05-.08.09.07.02-.04.04.13-.2-.08zm-.02-1.13l.08-.09-.04.12-.04-.03zm.11-1.16l.03.02.05-.08-.08.06zm-.25.06l-.09-.15.12.1-.03.05zm2.83 2.99l-.04.06-.04-.05.05-.05.03.04zm1 .02l.17-.08v.13l.1.02v.04l-.26-.11zm.22-.44a.86.86 0 01-.27.07l.2.07.07-.14zm.64-.69l.08.17-.17.1a.71.71 0 00.09-.27zm.33.35l-.05-.08-.08.07-.03-.04-.03.13.2-.08zm-.33-1.39l.08.1-.08.22v-.32zm.35.26l-.08-.09.05.12.03-.03zm-.35-1.53l.08.15-.08.16v-.3zm.24.37l-.03.02-.05-.08.08.06zm.25.06l.09-.15-.11.1.02.05z" fill="#00539F"/><path d="M7.24 11.2v.26c0 .25.02.47.37.57.13.04.27.06.4.08.31.04.64.09 1 .42.14-.12.74-.4 1.4-.5.37-.05.36-.33.36-.5v-.33l-.04.02h-.6c-.05 0-.04-.04 0-.06.03-.02.1-.11.1-.19a.49.49 0 00-.06-.17h-.51s-.09.12-.09.2c0 .08.08.15.15.16.08 0 .07.07.02.07h-.52v.13c.04.03.1.12.14.2.03.04.14.1.27.09.1-.01.09.04.08.06-.02.02-.07.1-.24.17a.36.36 0 01-.39-.03.7.7 0 01-.11-.11.284.284 0 00-.1-.09c-.05-.03-.16-.06-.24-.08l-.08-.02c-.06-.02-.03-.05.07-.1.11-.06.14-.13.14-.22V9.25c-.26.02-.45.01-.62-.12a.86.86 0 01-.3-.38c-.04-.1 0-.14.04-.1.04.05.22.19.35.24.13.05.31.06.4.06h.16l.23-.01h.53a.5.5 0 00.29-.08c.06-.05.08-.03.1 0a4.94 4.94 0 01.13.36c.03.09.06.18.05.2l-.13-.06-.08-.04a.98.98 0 00-.35-.08l-.34.02v.44c.19 0 .19-.11.19-.16v-.02c0-.04.03-.1.07-.1.04 0 .05.08.05.12a11.53 11.53 0 000 .44c0 .1 0 .24-.05.24-.06 0-.08-.08-.08-.15 0-.08-.05-.12-.18-.12v1.2c.14-.06.2-.2.25-.32l.04-.08.2-.46.08-.16c.1-.21.22-.5.25-.6.04-.07.06-.07.07-.03l.06.15.3.87.03.09.14.39c.02.06.08.13.11.15l.01.02v-5H7.24v4.93a.4.4 0 00.13-.14 822.43 822.43 0 00.65-1.44l.01-.03c.02-.03.05-.08.07-.02l.14.42.01.02.08.24.12.33.17.48c.02.06.07.12.11.16.04.04.01.07-.03.07h-.6c-.03 0-.03-.04 0-.05.02-.01.08-.07.1-.16.02-.07 0-.11-.03-.17l-.01-.05h-.53l-.01.04c-.03.06-.07.12-.06.18 0 .04.04.09.09.13l.06.02c.02 0 .05 0 .05.04s-.07.03-.07.03h-.45zm2.7-1.04l-.21.46h.39l-.18-.46zm-2.02-.04l-.2.46h.38l-.18-.46z" fill="url(#assrsxfwb)"/><path fill="#88C9EF" d="M7 6h4v2H7z"/><path d="M7.62 4.06l.24.45.5.09-.36.36.07.51-.45-.22-.46.22.08-.5-.36-.37.5-.09.24-.45z" fill="url(#bssrsxfwb)"/><path d="M10.38 4.06l.24.45.5.09-.36.36.08.51-.46-.22-.45.22.07-.5-.35-.37.5-.09.23-.45z" fill="url(#cssrsxfwb)"/><path fill-rule="evenodd" d="M9 15A6 6 0 109 3a6 6 0 000 12zm0-.5a5.5 5.5 0 100-11 5.5 5.5 0 000 11z" fill="#ABDBF5"/><path d="M7.13 11.21c.02-.01.62-1.24.91-1.85l.76 1.85H7.13zm2.06 0c.02-.01.62-1.24.91-1.85l.76 1.85H9.2z" fill="#00539F"/><path d="M6.51 9.5c-.49-.2-.35-.9-.28-1.13l.2.17.12-.17.14.17.2-.15c.07 1.09-.35 1.1-.38 1.1zm-.03 1.15c-.49-.19-.35-.9-.28-1.12l.2.16.12-.16.13.16.21-.14c.07 1.08-.36 1.1-.38 1.1zm-.37.07c-.04.23-.1.95.4 1.08.03 0 .45-.06.26-1.13l-.19.16-.15-.14-.1.17-.22-.14zm1.37 2.08c-.46.25-.91-.32-1.04-.51l.26-.06-.05-.19h.21l.03-.25c.87.66.6.99.59 1zm.17.37c.22.1.91.3 1.14-.28 0-.03.02-.54-1.07-.53l.13.26-.18.16.16.14-.18.25zm3.9-3.68c.49-.18.35-.9.28-1.12l-.2.17-.12-.17-.14.17-.2-.15c-.07 1.09.35 1.1.38 1.1zm.03 1.16c.49-.19.35-.9.28-1.12l-.2.16-.12-.16-.14.16-.2-.14c-.07 1.08.35 1.1.38 1.1zm.37.07c.04.23.1.95-.4 1.08-.03 0-.45-.06-.26-1.13l.18.16.16-.14.1.17.22-.14zm-1.37 2.08c.46.25.91-.32 1.04-.51l-.26-.06.05-.19h-.22l-.02-.25c-.87.66-.6.99-.6 1zm-.17.37c-.22.1-.92.3-1.14-.28 0-.03-.02-.54 1.07-.53l-.13.26.18.16-.16.14.18.25zM9.03 13a.16.16 0 100-.32.16.16 0 000 .32z" fill="#00A88E"/><defs><linearGradient id="assrsxfwb" x1="9" y1="6.18" x2="9" y2="12.53" gradientUnits="userSpaceOnUse"><stop offset=".42" stop-color="#E0BE73"/><stop offset=".87" stop-color="#A38F59"/></linearGradient><linearGradient id="bssrsxfwb" x1="9" y1="4.06" x2="9" y2="5.47" gradientUnits="userSpaceOnUse"><stop stop-color="#C39A4E"/><stop offset="1" stop-color="#AA8247"/></linearGradient><linearGradient id="cssrsxfwb" x1="9" y1="4.06" x2="9" y2="5.47" gradientUnits="userSpaceOnUse"><stop stop-color="#C39A4E"/><stop offset="1" stop-color="#AA8247"/></linearGradient></defs></svg>