<!-- by TradingView --><svg width="18" height="18" viewBox="0 0 18 18" xmlns="http://www.w3.org/2000/svg"><path fill="#CF1B1A" d="M0 0h18v18H0z"/><path d="M14 9.31a2.48 2.48 0 0 0-1.6-.06l-.7.26-.33.1c-.36.1-.7.16-1.05.2l-.19.02c-.74.07-1.47.07-2.2 0-.13 0-.27-.04-.41-.04-.07 0-.17-.02-.3-.05a7.94 7.94 0 0 0-.56-.11 8.1 8.1 0 0 0-1.05-.37 2.47 2.47 0 0 0-1.6.05v-.2a4.94 4.94 0 0 1 4.67-4.54c.03-.46.1-.92.2-1.38a.35.35 0 0 1 .09-.17L8.99 3a.05.05 0 0 1 .04 0l.01.03c.04.07.07.16.1.26a12.77 12.77 0 0 1 .2 1.31A4.86 4.86 0 0 1 14 9.31Z" fill="#FFD61A"/><path d="M8.04 7.78c-.09-.13-.2-.25-.3-.33-.39-.28-.87-.2-1.2.11v.01a.02.02 0 0 0 0 .03c.26.16.08.36-.17.28-.02 0-.03 0-.03.02a.86.86 0 0 0 .04.66c.2.38.54.54 1 .47a1 1 0 0 0 .52-.3 1.1 1.1 0 0 1-.58.5 1.22 1.22 0 0 1-1.67-1.08c-.02-.77.66-1.4 1.5-1.22.47.1.77.38.9.85ZM10.18 8.82a.9.9 0 0 0 .56.23c.97.05 1.33-1.17.55-1.65a.93.93 0 0 0-1.14.17v.03h.01c.07.04.1.09.13.14a.1.1 0 0 1-.01.08.11.11 0 0 1-.05.05.3.3 0 0 1-.23 0c-.02 0-.03 0-.04.02l-.01.02-.03-.03c.1-.47.44-.86.94-.96.73-.15 1.36.32 1.48 1 .07.4-.05.74-.34 1.04a1.2 1.2 0 0 1-1.39.23.97.97 0 0 1-.43-.37Z" fill="#fff"/><path d="M8.04 7.78c.1.36.06.68-.14.96a1 1 0 0 1-.52.3c-.46.06-.8-.1-1-.48a.86.86 0 0 1-.04-.66c0-.02.01-.03.03-.02.25.08.43-.12.18-.28h-.01a.02.02 0 0 1 0-.03c.33-.32.81-.4 1.2-.12.1.08.21.2.3.33ZM10.18 8.82a.93.93 0 0 1-.23-.91v-.02a.04.04 0 0 1 .05-.01.3.3 0 0 0 .22 0 .1.1 0 0 0 .06-.06.1.1 0 0 0 0-.08.25.25 0 0 0-.12-.14.03.03 0 0 1-.01-.02.03.03 0 0 1 0-.02c.31-.3.77-.38 1.14-.16.78.48.42 1.7-.54 1.65a.9.9 0 0 1-.57-.23Z" fill="#501F01"/><path d="m12.67 8.28.38-.04h.03l.01.01.2.32v.03l-.01.02-.29.23-.02.01h-.02l-.35-.11-.02-.02v-.02l.06-.4.01-.02h.02Z" fill="#FEC125"/><path d="M8.53 9.18c.07.08.18.1.24.06.06-.05.06-.16-.01-.24-.07-.08-.18-.1-.24-.05-.06.04-.06.15.01.23ZM9.25 9c-.07.09-.07.2 0 .24.06.04.16.01.23-.07.07-.09.07-.19 0-.23-.06-.05-.16-.02-.23.06Z" fill="#C78332"/><path d="M6.3 9.5v.38c.14 1.31 1.11 1.92 2.44 1.98 1.14.04 2.29-.19 2.79-1.28.13-.3.2-.66.17-1.07l.7-.26a2.48 2.48 0 0 1 1.6.06c.01.25-.01.53-.08.82a2.9 2.9 0 0 1-1.1 1.73 5.4 5.4 0 0 1-2.52 1.05c-.65.1-1.32.11-2.01.06a5.78 5.78 0 0 1-2.85-.92A3 3 0 0 1 4 9.3c.54-.2 1.07-.21 1.6-.05.2.06.43.14.69.25Z" fill="#fff"/><path d="M6.66 9.63a2.08 2.08 0 0 0 .49.48h.01a2.36 2.36 0 0 1 .54-.26l.03.02c.18.2.38.39.6.56h.06l.55-.45a.1.1 0 0 1 .13 0l.56.45a.03.03 0 0 0 .04 0 4.09 4.09 0 0 0 .64-.58h.03c.17.06.34.15.5.25h.04c.18-.13.35-.3.49-.5l.33-.1c.02.42-.04.77-.17 1.08-.5 1.1-1.65 1.32-2.79 1.28-1.33-.06-2.3-.67-2.43-1.98L6.3 9.5a1.59 1.59 0 0 1 .36.12Z" fill="#BA0000"/><path d="M11.37 9.6c-.14.2-.3.37-.49.5h-.04a2.38 2.38 0 0 0-.53-.25l-.02.01a4.08 4.08 0 0 1-.64.58h-.02l-.56-.46a.1.1 0 0 0-.13 0l-.55.45h-.05a4 4 0 0 1-.64-.58h-.04a2.37 2.37 0 0 0-.51.26h-.01a2.08 2.08 0 0 1-.48-.48l.55.1c.14.04.24.06.3.06.15 0 .29.04.41.05.74.06 1.47.06 2.21 0l.2-.04c.34-.03.68-.1 1.04-.2Z" fill="#fff"/></svg>