<!-- by TradingView --><svg xmlns="http://www.w3.org/2000/svg" width="18" height="18" viewBox="0 0 18 18"><path fill="#F0F3FA" d="M0 0h18v18H0z"/><circle cx="9" cy="9" r="4.75" fill="url(#abakpkgae)" stroke="#F5DB06" stroke-width=".5"/><path d="M10.37 9.09c.16-.18-.74-2-2.69-1.73-.25.03-1.4.38-1.73 2.17-.09.48.6.3.88.1.07-.04.11-.1.16-.16L7 9.44c.36-.48.85-1 1.19-1 .06 0 .22.09.42.21.38.24.92.57 1.34.56.14 0 .3 0 .41-.12zM7.63 8.9c-.16.18.74 2 2.69 1.73.25-.04 1.4-.39 1.73-2.17.08-.45-.52-.32-.83-.14-.1.06-.16.14-.23.23l-.02.02c-.35.47-.84.98-1.17.99-.06 0-.22-.1-.42-.22-.38-.24-.92-.57-1.34-.56-.14 0-.3 0-.41.12z" fill="#F5DB06"/><defs><linearGradient id="abakpkgae" x1="6.64" y1="4.56" x2="11.78" y2="13.03" gradientUnits="userSpaceOnUse"><stop stop-color="#444446"/><stop offset="1" stop-color="#201F27"/></linearGradient></defs></svg>