<!-- by TradingView --><svg width="18" height="18" xmlns="http://www.w3.org/2000/svg"><path fill="#F04086" d="M0 0h18v18H0z"/><path d="M13.185 9.622a2.384 2.384 0 00-1.53-.784v-.012a2.075 2.075 0 001.35-.766c.317-.405.49-.918.49-1.447a2.438 2.438 0 00-.182-1.086 2.277 2.277 0 00-.634-.869C12.133 4.188 11.312 4 10.193 4H6v4H4v2h5.749c.824 0 1.973-.022 1.973 1.04 0 .955-1.157.96-1.973.96H8v-1H6v2.995h4.333c.902.042 1.792-.187 2.531-.742.288-.244.518-.559.668-.918.151-.359.22-.751.199-1.145a2.397 2.397 0 00-.546-1.568zM9.743 8H8V6h1.749c1.035 0 1.732.076 1.732.932C11.48 7.79 10.784 8 9.743 8z" fill="#fff"/></svg>