<!-- by TradingView --><svg width="18" height="18" viewBox="0 0 18 18" xmlns="http://www.w3.org/2000/svg"><path fill="#F0F3FA" d="M0 0h18v18H0z"/><path d="M7.54 3a2.42 2.42 0 0 0-.22 1.89 6.1 6.1 0 0 0 .45 1.2 1.92 1.92 0 0 1 .95-.39.02.02 0 0 0 0-.02c-.3-.38-.54-.78-.74-1.19a3.26 3.26 0 0 1-.2-.55c-.07-.25-.1-.51-.07-.79V3h.1c-.05.4-.01.8.13 1.17a5.53 5.53 0 0 0 .9 1.53c.26.01.52.07.78.19a6.12 6.12 0 0 1 .47.22 3.24 3.24 0 0 1 1.06-.32A4.45 4.45 0 0 0 12.25 3h.1c-.02.4-.08.8-.2 1.16-.12.38-.3.76-.52 1.13-.1.17-.2.3-.36.49-.02.03-.01.04.03.04.27-.03.5.05.69.23a13 13 0 0 1 .16.13v-.01l.2-.37A4 4 0 0 0 12.5 3h.09a3.98 3.98 0 0 1-.4 3.27v.03l.06.15c.02.03.04.1.06.21l.02.02c.28.07.5.2.7.4l.09.07a9.34 9.34 0 0 1 .17.14c.04.1.09.18.15.25.04.05.06.1.06.13a31.24 31.24 0 0 1 .03.26 3.44 3.44 0 0 1-.16.23l-.02.09v.02l-.02.01-.21.11a.07.07 0 0 0-.03.04c-.08.2-.32.33-.52.43l-.01.01v.02l.16.21a.13.13 0 0 0-.03.04l-.23-.23-.02-.01h-.03a.7.7 0 0 1-.4.1h-.26c-.02 0-.02.02-.02.03V9.09a.02.02 0 0 1-.02 0 3.25 3.25 0 0 1-.57-.29c0-.02.01-.02.03-.01.16.08.3.13.43.14.28.02.57-.01.87-.1l.15-.06.13-.08a.42.42 0 0 0 .11-.08.26.26 0 0 0 .06-.12.02.02 0 0 0 0-.02h-.03l-.73.05a3.48 3.48 0 0 1-.99-.1V8.4c.01-.02.03-.02.05-.02l.31.07a10.67 10.67 0 0 0 1.48-.09c.1-.03.18-.07.25-.12.02-.01.02-.03.02-.06l-.01-.02c-.07.01-.13.01-.19.03-.36.09-.64.16-.98.16l-.02-.01V8.3c.06-.02.12-.04.19-.04a4 4 0 0 0 .87-.13l.23-.1c.14-.08.11-.23-.01-.3a1.04 1.04 0 0 0-.27-.1c-.2-.05-.41-.07-.63-.08h-.8c.1-.02.2-.04.29-.04a162.87 162.87 0 0 0 .75-.01c.08 0 .13.02.17.03a4.85 4.85 0 0 0 .53.12v-.01c-.07-.24-.54-.35-.76-.38a3.82 3.82 0 0 0-1.1.05l-.52.13c-.02 0-.03.01-.03.03l.02.18c0 .01 0 .02.02.03h.18v.06l-.1.04a.03.03 0 0 0-.02.02l-.12.3v.02l.02.02a3.1 3.1 0 0 0 .87.18c.02 0 .02.02 0 .02s-.05.01-.07 0a7.35 7.35 0 0 1-.77-.08.06.06 0 0 0-.02.02.38.38 0 0 1-.08.12 1.16 1.16 0 0 1-.37.17l-.25.05-.24.02h-.46c-.14 0-.32-.03-.55-.07a1.7 1.7 0 0 1-.5-.16.24.24 0 0 1-.07-.06c-.03-.02-.02-.03.01-.02.14.04.29.12.42.15.24.06.41.1.51.1.26.02.54.02.83 0 .18-.02.34-.07.5-.14a.33.33 0 0 0 .15-.14.05.05 0 0 0 0-.04.05.05 0 0 0-.04-.03l-.11.01-.36.14c-.19.06-.38.1-.58.1-.14 0-.33 0-.47-.03-.2-.03-.4-.1-.57-.19a4.2 4.2 0 0 1-.33-.21.2.2 0 0 0-.1-.04c-.09 0-.54-.01-.45-.2a.2.2 0 0 1 .08-.08 63.07 63.07 0 0 1 .24-.04c.2-.03.39-.09.55-.17l.42-.22c.14-.06.3-.1.48-.12a5.71 5.71 0 0 1 .7.03l.48.12c.03.01.04 0 .05-.03 0-.03-.01-.05-.03-.06a5.74 5.74 0 0 0-.4-.16.67.67 0 0 0-.2-.05h-.61a.75.75 0 0 0-.26.04 6.9 6.9 0 0 0-.99.46.35.35 0 0 1-.25.04l-.02-.02.01-.01.02-.01c.12-.01.23-.04.31-.08l.47-.25a1.73 1.73 0 0 1 .86-.22c.25 0 .45 0 .67.04a.02.02 0 0 0 .02 0V7a.28.28 0 0 0-.08-.1c-.22-.16-.45-.3-.7-.4a.59.59 0 0 0-.2-.05H8.9c-.13.02-.25.05-.37.1-.12.04-.28.12-.48.22-.04.02-.05 0-.02-.03l.04-.04a2.8 2.8 0 0 1 1.14-.31 1.85 1.85 0 0 1 .86.21 2.61 2.61 0 0 0 .2.1h.02v-.02a.54.54 0 0 0-.13-.4 1.05 1.05 0 0 0-.26-.22 2.2 2.2 0 0 0-.98-.29c-.17 0-.32-.01-.45.02-.18.04-.33.1-.45.18A2.58 2.58 0 0 0 6.88 7.6a14.75 14.75 0 0 0 .03.36H6.9l-.02-.01v-.01l-.01-.01a.8.8 0 0 1-.03-.47v-.01H6.8c-.3.3-.56.62-.79 1-.14.23-.24.48-.3.73-.05.16-.06.3-.05.44.03.22.08.46.15.72.05.16.14.33.27.5.1.12.23.24.35.36l-.05.04a1.3 1.3 0 0 1-.4-.38 1.5 1.5 0 0 1-.21-.42 5.32 5.32 0 0 1-.14-.56l-.01.02a.39.39 0 0 1-.04-.13A2.68 2.68 0 0 1 6 8.4l.4-.56c.07-.08.14-.17.23-.25a23.14 23.14 0 0 0 .3-.3l.2-.42a2.46 2.46 0 0 1 .56-.72v-.02c-.24-.48-.4-.98-.5-1.51-.1-.57-.01-1.11.26-1.62h.1Z" fill="#0A4924"/><path d="M7.72 3v.15c-.03.28-.01.54.06.8.05.18.12.36.2.54a6.89 6.89 0 0 0 .74 1.22H8.7c-.35.04-.66.18-.94.38h-.03a6.1 6.1 0 0 1-.5-1.66A2.38 2.38 0 0 1 7.54 3h.18ZM12.5 3a4 4 0 0 1-.37 3.18.03.03 0 0 1-.02 0l-.12-.13a.81.81 0 0 0-.7-.23c-.03 0-.04-.01-.02-.04.15-.2.26-.32.36-.49.22-.37.4-.75.52-1.13.12-.36.18-.75.2-1.16h.16Z" fill="#07AD53"/><path d="m11.84 8.33.25-.02v.03l.02.01c.34 0 .62-.07.98-.16.06-.02.12-.02.19-.03l.01.02c0 .03 0 .05-.02.06a.76.76 0 0 1-.25.12 10.66 10.66 0 0 1-1.16.11c-.1 0-.21 0-.32-.02a1914.2 1914.2 0 0 0-.35-.05v.02a.01.01 0 0 0 0 .01c.32.08.64.1.98.1a11.74 11.74 0 0 0 .76-.05v.01a.27.27 0 0 1-.06.12.42.42 0 0 1-.1.08c-.06.02-.1.05-.14.08a.57.57 0 0 1-.15.06c-.3.09-.6.12-.87.1a1.19 1.19 0 0 1-.43-.14h-.03v.03a3.25 3.25 0 0 0 .59.28V9.03c0-.01 0-.02.02-.02H12a.7.7 0 0 0 .41-.1.04.04 0 0 1 .05 0l.23.23.25.43v.01l-.35.14c-.23.1-.51.15-.72.17a12.58 12.58 0 0 1-1.48.03 12.75 12.75 0 0 1-1.8-.34.67.67 0 0 0-.59.13c-.13.12-.1.26-.1.44 0 .04.01.08.03.1.06.12.17.22.28.3a1 1 0 0 0 .25.1c.5.17.99.22 1.53.23a25.12 25.12 0 0 0 .83 0l.54-.03a37.5 37.5 0 0 1 1.15-.06.3.3 0 0 1-.04.07 3.13 3.13 0 0 1-1 .76c-.37.17-.73.29-1.08.35-.16.03-.32.05-.5.05-.32 0-.68 0-.98-.03a8.82 8.82 0 0 1-1.7-.35c-.15-.04-.29-.1-.4-.18a3.41 3.41 0 0 1-.38-.25c-.12-.12-.26-.24-.35-.36a1.61 1.61 0 0 1-.27-.5c-.07-.26-.12-.5-.15-.72-.01-.13 0-.28.04-.44.07-.25.17-.5.31-.74a4.69 4.69 0 0 1 .81-1c.01 0 .02.01.01.02a.8.8 0 0 0 .03.48l.01.01.02.01h.02a.02.02 0 0 0 0-.02 14.8 14.8 0 0 1-.04-.34c-.01-.05 0-.12.04-.22.06-.16.12-.32.2-.46.23-.4.53-.72.9-.95.12-.08.27-.14.45-.18.13-.03.28-.02.45-.02a2.2 2.2 0 0 1 .98.3c.1.05.19.13.26.22.1.1.14.24.13.4l-.01.01a.03.03 0 0 1-.03 0 2.61 2.61 0 0 1-.18-.1 1.85 1.85 0 0 0-.85-.22 2.8 2.8 0 0 0-.95.21 1.04 1.04 0 0 0-.25.15c-.02.04-.01.05.03.03l.48-.23c.12-.04.24-.07.37-.08h.62c.07 0 .14.01.2.04.25.1.48.24.7.4.04.02.06.06.08.1a.02.02 0 0 1 0 .01h-.02c-.22-.04-.42-.03-.67-.03a1.73 1.73 0 0 0-.87.21l-.46.26a.86.86 0 0 1-.3.08h-.03v.02l.01.02c.1.01.18 0 .25-.04l.06-.04c.3-.16.6-.3.93-.42a.75.75 0 0 1 .26-.04h.6c.07 0 .14.02.22.05l.4.16.02.05v.01c0 .03-.02.04-.05.03l-.47-.12-.36-.04h-.35c-.18.02-.34.07-.48.13l-.42.22a1.53 1.53 0 0 1-.67.18c-.05 0-.1.01-.12.03a.2.2 0 0 0-.08.08c-.1.19.36.2.46.2a.2.2 0 0 1 .09.04l.33.21c.18.1.37.16.56.2.15.02.34.01.48.01.2 0 .39-.03.58-.1.09-.02.2-.07.36-.13a.22.22 0 0 1 .1 0 .05.05 0 0 1 .05.02.05.05 0 0 1 0 .04.33.33 0 0 1-.15.14c-.16.07-.32.12-.5.13-.3.03-.57.03-.83.01-.1 0-.27-.04-.51-.1-.13-.03-.28-.1-.42-.15-.03 0-.04 0-.01.02.01.03.04.05.07.06.15.08.31.13.5.16a3.98 3.98 0 0 0 1.5 0 1.17 1.17 0 0 0 .37-.17.38.38 0 0 0 .08-.12l.02-.02.04-.01a7.35 7.35 0 0 0 .8.1c.02-.01.02-.02 0-.03h-.03Z" fill="#07AD53"/><path d="M10.37 6.04c.16-.07.31-.11.47-.14.2-.04.42-.05.65-.03.19.01.37.13.5.25.07.07.13.15.16.24a4.23 4.23 0 0 1 .1.28 4.8 4.8 0 0 0-1.44-.02l-.4.1c-.04 0-.07-.01-.07-.06a.66.66 0 0 0-.2-.47l-.01-.02v-.03h.02l.22-.1Z" fill="#07AD53"/><path d="M10.94 7.23a1.82 1.82 0 0 1-.53-.45.03.03 0 0 1 0-.02h.02c.05-.02.28-.05.68-.12.13-.03.28-.03.44-.03.16 0 .3.02.45.04.19.02.39.09.57.16a.79.79 0 0 1 .33.23.01.01 0 0 1 0 .01 6.6 6.6 0 0 0-.43-.03 3.34 3.34 0 0 0-1.12.1 344.55 344.55 0 0 0-.41.11Z" fill="#07AD53"/><path d="M13.1 7.2c.05.03.16.11.17.17 0 .02-.01.03-.03.02-.08-.05-.13-.08-.23-.11-.37-.1-.75-.13-1.13-.07-.15.02-.35.06-.62.13l-.24.05c-.06.01-.08 0-.04-.05a.25.25 0 0 1 .1-.08c.1-.05.24-.1.4-.12.16-.03.33-.04.47-.04h.7c.16 0 .3.03.44.1ZM10.92 7.46l.01.07c0 .03-.01.04-.04.04a5.91 5.91 0 0 0-.61 0l-.22.03c-.13.01-.25.03-.37.06l-.27.07a823.86 823.86 0 0 1-1.13.22h-.25a.17.17 0 0 1-.08-.05l-.02-.02a.05.05 0 0 1 .02-.05l.02-.01c.14-.05.3-.08.47-.09.04 0 .08-.02.12-.04a6.97 6.97 0 0 1 .82-.4l.22-.02c.34-.02.56-.02.7 0 .05 0 .18.04.4.11l.17.04.03.01.01.03Z" fill="#07AD53"/><path d="m11.67 7.56-.45.13h-.18l-.02-.03-.02-.18c0-.02 0-.03.03-.03l.52-.13a3.82 3.82 0 0 1 1.1-.05c.22.03.69.14.76.38a.02.02 0 0 1-.01.02h-.01a4.85 4.85 0 0 1-.68-.16h-.75l-.29.05Z" fill="#07AD53"/><path d="M12.47 7.56v.2c-.02.15-.03.27-.19.35l-.16.1a.3.3 0 0 1-.15.04c-.25 0-.58-.01-.68-.26l-.04-.2c0-.03 0-.04-.02-.04l-.01-.06.45-.13h.8Z" fill="#1E1A18"/><path d="M9 7.96a.5.5 0 0 0 .23.33c.1.06.22.1.36.1.15-.01.27-.03.39-.07.32-.11.34-.41.28-.7h.6c.03 0 .05.01.08.03.16.13.1.3-.03.43-.13.12-.28.2-.46.25-.32.08-.6.09-.96.07a1.42 1.42 0 0 1-.96-.37C8.5 8 8.5 8 8.53 7.99l.44-.1s.02 0 .02.02v.05Z" fill="#E6F6EB"/><path d="M10.26 7.63c.06.28.04.58-.28.7-.12.03-.24.05-.39.05a.69.69 0 0 1-.36-.09.5.5 0 0 1-.23-.33c.12-.13.32-.15.48-.18l.3-.05c.16-.02.32-.05.48-.1Z" fill="#1E1A18"/><path d="M10.4 8.75c-.07.07-.15.11-.24.15l-.6.26a.51.51 0 0 1-.14.02l-.02-.01c0-.05.03-.07.09-.07a1.59 1.59 0 0 0 .54-.2c.12-.07.25-.13.37-.18.03-.02.03 0 .02.01 0 0 0 .02-.02.02Z" fill="#0A4924"/><path d="m12.73 9.1.3.45.03.01.08.02c.2.07.2.32.06.44a3.78 3.78 0 0 1-.19.15v.02l.02.02.02.03.02.04c.03.27-.1.36-.35.43a.24.24 0 0 0-.13.1c-.14.18-.29.33-.45.45-.2.14-.33.25-.42.3a2.86 2.86 0 0 1-.75.38l.03.04V12h-.01c-.11-.06-.2-.04-.24.06a3.8 3.8 0 0 0-.23.63c-.04.14-.06.35-.06.46l-.04.94a5.1 5.1 0 0 1-.13.92h-.09c.08-.32.11-.58.12-.78l.05-1.05a2.56 2.56 0 0 1 .3-1.16h-.01c-.22.05-.42.09-.62.1-.46.03-.95 0-1.47-.08a9.16 9.16 0 0 1-1.3-.33c-.34-.1-.63-.25-.88-.45l.05-.04c.12.1.24.18.37.25.12.08.26.14.41.18.56.17 1.12.29 1.7.35.3.03.66.03.97.03a4.52 4.52 0 0 0 1.97-.62c.22-.15.46-.33.62-.54a.3.3 0 0 0 .04-.07v-.01a.02.02 0 0 0-.01-.01l-1.14.08-.54.03-.22.01H10a5.33 5.33 0 0 1-1.53-.23 1 1 0 0 1-.25-.12.87.87 0 0 1-.28-.28.26.26 0 0 1-.03-.11c0-.18-.03-.32.1-.44a.67.67 0 0 1 .6-.13 18.47 18.47 0 0 1 1.17.25l.62.09c.19.02.4.02.65.02l.83-.05c.2-.02.49-.07.72-.17a3.2 3.2 0 0 1 .35-.15l-.25-.43c0-.02.02-.03.03-.04Z" fill="#21250E"/><path d="M8.48 10.06c-.02 0-.02 0-.01.01.04.08.22.14.3.16a14.56 14.56 0 0 0 3.35.15c.14-.02.36-.08.66-.17l.14-.02h.03c.04.04.05.07.06.1.03.16-.04.27-.2.33-.09.03-.18.06-.28.07l-.86.07c-.77.07-1.53.08-2.3.01-.33-.02-.65-.1-.95-.2a.93.93 0 0 1-.3-.18.48.48 0 0 1-.14-.51.4.4 0 0 1 .34-.27 11.41 11.41 0 0 1 1.38.25 6.6 6.6 0 0 0 2.6.04l.2-.07c.16-.08.32-.14.46-.18.1-.03.24-.02.27.1.05.18-.12.28-.29.36-.12.05-.26.1-.43.13a11.13 11.13 0 0 1-3.53 0 2.19 2.19 0 0 1-.5-.18Z" fill="#CA601B"/><path d="M5.6 9.78c0 .04 0 .09.03.13-.12.23-.29.4-.52.53-.28.16-.58.27-.89.32l-.53.09a4.94 4.94 0 0 0-.58.15L3 10.93c.3-.1.63-.17 1-.22.16-.02.35-.06.56-.12.26-.08.49-.2.67-.33.15-.11.27-.27.36-.48Z" fill="#21250E"/><path d="M6.4 11.25c.24.2.53.35.86.45.46.15.9.26 1.31.33.52.08 1 .1 1.47.08a3.57 3.57 0 0 0 .63-.09v.01a2.56 2.56 0 0 0-.3 1.14l-.05 1.05c0 .2-.04.46-.12.78h-.55l-.02-.01c0-.02 0-.04.02-.06a.65.65 0 0 0 .14-.15c.08-.13.14-.28.17-.43.01-.04 0-.04-.02-.01-.08.1-.16.24-.25.32a.95.95 0 0 1-.62.3c-.18 0-.27-.09-.29-.25 0-.05.02-.08.05-.1.23-.12.42-.24.58-.36.16-.13.28-.28.3-.47a.24.24 0 0 0-.21-.26.63.63 0 0 0-.44.12c-.14.1-.27.24-.37.42-.16.26-.25.62-.12.9V15l-.01.01H7.42c0-.03.02-.05.04-.06.3-.24.53-.59.55-.97a.45.45 0 0 0-.07-.32c-.14-.18-.39-.1-.56 0-.25.15-.44.36-.59.6a6.65 6.65 0 0 1 .3-1.24.81.81 0 0 0 0-.56c-.01-.04-.03-.05-.06-.04l-.02.02a.97.97 0 0 1-.08.15.96.96 0 0 0-.12.26l-.06.28a123.08 123.08 0 0 0-.26 1.49c0 .09 0 .16.05.23l.05.07v.03c0 .03 0 .05.02.06h-.62a5.65 5.65 0 0 1-2.87-4.02l.57-.13.53-.09c.31-.05.61-.16.89-.32a1.24 1.24 0 0 0 .53-.55h.01c.04.23.08.41.13.56.04.14.11.28.2.42.12.16.25.28.41.38Z" fill="#07AD53"/><path d="M7.42 15h-.81l-.02-.06v-.03a.68.68 0 0 0-.05-.07c-.06-.07-.06-.14-.05-.23l.07-.41a123.08 123.08 0 0 1 .25-1.36.96.96 0 0 1 .12-.26.97.97 0 0 0 .08-.15s0-.02.02-.02c.03-.01.05 0 .06.04.07.2.07.38 0 .56a6.65 6.65 0 0 0-.3 1.25c.15-.25.34-.46.59-.6.17-.11.42-.2.56 0 .06.07.08.18.07.3-.02.4-.24.74-.55.98a.07.07 0 0 0-.04.05ZM9.63 14.99a.1.1 0 0 0-.05.01H8.56v-.04c-.12-.28-.03-.64.13-.9.1-.18.23-.32.37-.42.14-.1.28-.14.44-.12.13 0 .22.13.21.26-.02.2-.14.34-.3.47-.16.12-.35.24-.58.36-.03.02-.05.05-.05.1.02.16.11.24.29.24.23 0 .45-.13.62-.29.09-.08.17-.22.25-.32.02-.03.03-.03.02 0-.03.16-.09.3-.17.44a.65.65 0 0 1-.14.15c-.02.02-.02.04-.02.06Z" fill="#161E15"/><path d="M9 13.99c.1-.12.24-.26.4-.26 0 0 .02 0 .02.02.09.08-.03.24-.1.3a2.55 2.55 0 0 1-.5.34c.03-.14.1-.28.19-.4Z" fill="#07AD53"/><path fill-rule="evenodd" d="M12.55 15h.98a1.6 1.6 0 0 0 .47-.8.02.02 0 0 0-.02-.01c-.04.02-.09.08-.14.15l-.07.1c-.14.18-.3.33-.51.45a.47.47 0 0 1-.24.07c-.17 0-.29-.1-.28-.27 0-.04.02-.07.05-.1.27-.12.5-.27.68-.44.1-.1.17-.22.19-.35.02-.2-.12-.3-.32-.28a.67.67 0 0 0-.33.12c-.33.25-.55.65-.55 1.06 0 .11.03.21.09.3Zm.8-1.27c-.16 0-.3.14-.4.26a1.12 1.12 0 0 0-.18.4v.01c.2-.1.36-.22.5-.35.08-.06.2-.22.1-.3 0-.01 0-.02-.02-.02Z" fill="#1E1A18"/><path d="M7.43 13.87c.07-.04.26-.13.3-.02.04.08.05.17.01.28-.1.33-.34.67-.7.78-.14.04-.24 0-.3-.11v-.03c.1-.32.4-.7.7-.9Z" fill="#07AD53"/><path fill-rule="evenodd" d="M10.56 15h.78c.33-.25.53-.56.61-.95.05-.2-.02-.53-.3-.5a.6.6 0 0 0-.22.05c-.3.15-.52.4-.7.67 0 .02 0 .02 0 0a9.3 9.3 0 0 1 .25-1.05c.04-.11.08-.24.1-.36a.58.58 0 0 0-.04-.37.06.06 0 0 0-.03-.03h-.04a.2.2 0 0 0-.13.14 34.34 34.34 0 0 0-.37 1.88v.04c-.02.1-.05.24 0 .3a.3.3 0 0 1 .09.18Zm.83-1.13c-.3.2-.6.58-.7.9v.03c.06.12.16.15.3.11.36-.1.6-.45.7-.78.04-.1.04-.2 0-.29-.05-.1-.23-.01-.3.03Z" fill="#1E1A18"/></svg>