<!-- by TradingView --><svg width="18" height="18" viewBox="0 0 18 18" xmlns="http://www.w3.org/2000/svg"><path fill="#F0F3FA" d="M0 0h18v18H0z"/><path d="M7.56 7.43c-.2-.11-1.08-.33-1.49-.43 0 .13-.01.43-.07.58.5.08 1.2.31 1.48.42.03-.12.08-.4.08-.57ZM8 10.57c-.27.11-1.38.33-1.91.43 0-.13-.02-.43-.09-.58.64-.08 1.53-.31 1.9-.42.03.12.1.4.1.57ZM12 12.55l-1.64.97A1.03 1.03 0 0 0 10 13c.82-.45 1.5-.9 1.68-1 .04.22.23.46.32.55ZM12 5.45l-1.64-.97c-.12.32-.29.48-.36.52.82.45 1.5.9 1.68 1 .04-.22.23-.46.32-.55ZM9 10.28c0 .15.05.54.07.72 2.29-1.41 3.05-2 3.41-2.63A.91.91 0 0 1 12 8c-1.5 1.5-2.68 2.1-3 2.28Z"/><path d="M9 7.72c0-.15.05-.54.07-.72 2.29 1.41 3.05 2 3.41 2.63A.91.91 0 0 0 12 10c-1.5-1.5-2.68-2.1-3-2.28Z"/><circle cx="9" cy="4" r="1" fill="#3AB16D"/><circle cx="9" cy="14" r="1" fill="#3AB16D"/><circle cx="5" cy="11" r="1" fill="#3AB16D"/><circle cx="5" cy="7" r="1" fill="#3AB16D"/><circle cx="13" cy="7" r="1" fill="#3AB16D"/><circle cx="13" cy="11" r="1" fill="#3AB16D"/><path d="M7.44 9c0 2.04.46 3.74.69 4.33.13-.08.41-.26.56-.26a13.85 13.85 0 0 1 0-8.14c-.15 0-.43-.18-.56-.26-.23.59-.7 2.28-.7 4.32Z"/></svg>