<!-- by TradingView --><svg width="18" height="18" viewBox="0 0 18 19" xmlns="http://www.w3.org/2000/svg"><path fill="#F0F3FA" d="M0 .76h18v18H0z"/><path d="M6.77 6.12a.03.03 0 0 0 .03 0V6.1c-.01-.27-.02-.5-.01-.7 0-.23.14-.37.4-.42.4-.08.85-.15 1.32-.21.16-.02.3 0 .44.02l1.38.25c.18.03.23.09.31.2l.03.03h.02c.44.07.85.14 1.24.22.09.01.17.05.23.12l.7.72c.12.12.16.25.13.38-.02.07-.09.18-.2.33-.67.92-1.5 1.9-2.27 2.95-.02.02-.04.05-.04.08v4.11c0 .14.02.25-.1.34a.74.74 0 0 1-.35.11l-.75.12a.67.67 0 0 1-.23 0l-1.48-.25c-.28-.04-.42-.13-.43-.4l-.17-4.01a.16.16 0 0 0-.05-.1l-2.3-2.34a.4.4 0 0 1-.12-.33c0-.07.06-.17.14-.3l.7-.93c.11-.16.22-.18.43-.14l1 .17Zm1.79-.71c.1-.07.15-.12.3-.15l.77-.12c.14-.02.14-.04 0-.06l-.81-.13a.9.9 0 0 0-.33 0l-1.24.18c-.19.03-.19.06 0 .09l1.25.2.06-.01Zm-1.51-.06c-.06-.01-.09.01-.09.07l.03.7c0 .01 0 .02.02.03l.04.02.3.05c.07.02.14.07.24.16l.89.91c.02.03.03.02.03-.01L8.44 5.6c0-.01 0-.02-.02-.02l-1.37-.23Zm3.61 1.55v.01h.04l.93-1.28V5.6h-.01l-.93-.16a.02.02 0 0 0-.02 0V6.9Zm-4.52.63h.02l.85-1.17v-.02h-.02l-1.42-.25h-.02v.01L4.7 7.26v.02l.02.01 1.42.24Zm.15.4c-.07-.07-.08-.12-.12-.2a.07.07 0 0 0-.06-.03l-1.36-.23h-.02v.01a.02.02 0 0 0 0 .02l2.34 2.37a.2.2 0 0 0 .1.06l1.22.2c.06.01.07 0 .03-.04L6.29 7.93Zm1.4 6.41a28.61 28.61 0 0 1 1.12.18l-.17-4.13c0-.01 0-.02-.02-.03l-.03-.02-1.4-.24h-.01l-.01.01-.01.01v.01c.04 1.27.1 2.58.17 3.93 0 .08.01.14.04.18.04.05.1.09.19.1h.13Z" fill="#4700FF"/></svg>