<!-- by TradingView --><svg width="18" height="18" viewBox="0 0 18 18" xmlns="http://www.w3.org/2000/svg"><path fill="#6EC4FF" d="M0 0h18v18H0z"/><path d="M6.1 5.94C6.43 5.29 7.61 4 9.78 4c2.36 0 3.4 1.92 4.01 3.05l.24.44.09.14c.53.89.88 1.47.88 2.57 0 1.94-.58 2.52-2.7 2.71-1.71.16-4.84.07-6.2 0-1.1-.12-3.25-1-3.1-3.48a3.65 3.65 0 0 1 3.1-3.5ZM9 7a.5.5 0 1 0 0-1 .5.5 0 0 0 0 1Zm2.5 0a.5.5 0 1 0 0-1 .5.5 0 0 0 0 1Zm.79 1c-.27 0-.53.07-.8.15-.3.09-.61.18-.99.18-.5 0-.84-.1-1.13-.2A2.11 2.11 0 0 0 8.71 8C8.18 8 8 8.5 8 9s.54 2 2.5 2A2.4 2.4 0 0 0 13 9c0-.33 0-1-.71-1Z" fill="#F5FBF9"/><path d="M12 9.83c0 .37-.67.67-1.5.67S9 10.2 9 9.83c0-.36.67-.33 1.5-.33s1.5-.03 1.5.33Z" fill="#F5FBF9"/></svg>