<!-- by TradingView --><svg width="18" height="18" viewBox="0 0 18 18" xmlns="http://www.w3.org/2000/svg"><path fill="#F0F3FA" d="M0 0h18v18H0z"/><path d="M8.66 6.12V8h.68V6.12L11.4 3H6.6l2.06 3.12Zm0 5.76V10h.68v1.88L11.4 15H6.6l2.06-3.12ZM8 8.66H6.12L3 6.6v4.8l3.12-2.06H8v-.68Zm3.68 2.42L10.6 10l-.6.6 1.08 1.08.69 3.32L15 11.77l-3.32-.69ZM8 7.4 6.92 6.32 6.23 3 3 6.23l3.32.69L7.4 8l.6-.6Zm-1.68 3.68L7.4 10l.6.6-1.08 1.08L6.23 15 3 11.77l3.32-.69ZM10 7.4l1.08-1.08.69-3.32L15 6.23l-3.32.69L10.6 8l-.6-.6Z" fill="url(#a)"/><defs><linearGradient id="a" x1="4.91" y1="4.51" x2="13.47" y2="13.09" gradientUnits="userSpaceOnUse"><stop stop-color="#EF70C4"/><stop offset=".34" stop-color="#F94279"/><stop offset="1" stop-color="#FE204B"/></linearGradient></defs></svg>