<!-- by TradingView --><svg width="18" height="18" viewBox="0 0 18 18" xmlns="http://www.w3.org/2000/svg"><path fill="url(#a)" d="M0 0h18v18H0z"/><path d="m12.75 4.35-.02.01a6.04 6.04 0 0 1 1.42 1.7l.25.46.02.02c.01 0 .01 0 0 0v-.05c.09.15.16.33.22.51l.1.33c.07.2.12.42.16.63 0 .08.05.18.05.24l.03.46c.03.25.02.5-.01.72l-.04.05v.01l-.01.01c0 .03 0 .03 0 0a.42.42 0 0 1-.03-.13v-.54a6.32 6.32 0 0 0-.18-1.1c-.04-.17-.1-.36-.16-.53a3.51 3.51 0 0 0-.31-.72l-.01.01.43 1.5c.04.26.07.53.09.8a1.5 1.5 0 0 1-.05-.2 8.68 8.68 0 0 0-.33-1.47 5.54 5.54 0 0 1-.26-.62l.03.01.02-.01-.04-.22a.04.04 0 0 1 0-.02V6.2h.01l.15.26h.01s.01 0 0 0a14.5 14.5 0 0 1-.16-.35c-.1-.2-.23-.38-.36-.56-.05-.08-.13-.14-.18-.21a5.27 5.27 0 0 0-.44-.5.34.34 0 0 1-.1-.07 1.7 1.7 0 0 0-.38-.33h-.02v.01l.2.15c.02.03.04.07.08.1a13.19 13.19 0 0 1 .51.56v.01a.02.02 0 0 1-.01.01h-.01a4.2 4.2 0 0 0-.29-.3c-.03-.04-.06-.09-.1-.12l-.28-.28-.14-.13a.66.66 0 0 0-.12-.08.06.06 0 0 1-.02-.03c-.05-.1-.12-.1-.19-.16a3.12 3.12 0 0 0-1.19-.67 3 3 0 0 0-.7-.17c0 .06.04.1.08.1a9.2 9.2 0 0 1 .31.16l-.32-.09c-.34-.09-.7-.13-1.04-.12a.1.1 0 0 0 0-.05l-.01-.01a5.2 5.2 0 0 0-3.12.62 5.13 5.13 0 0 0-1.07.61 6.18 6.18 0 0 0-1.6 2.12.68.68 0 0 0-.1.19c-.07.18-.16.46-.27.86a1.73 1.73 0 0 1-.1.22v-.02c.12-.43.19-.69.2-.77.04-.15.1-.27.15-.43.07-.2.15-.33.23-.49.19-.38.41-.73.68-1.04a.67.67 0 0 0 .15-.26 5.96 5.96 0 0 1 6.97-1.36 6.24 6.24 0 0 1 1.22.78Z" fill="#411F03"/><path d="M9.62 3.22a4.39 4.39 0 0 1 .5.13 15.56 15.56 0 0 0-1-.19c.2.01.36.03.5.06Z" fill="#9A4902"/><path d="M9.42 3.39c-.04.01-.07.03-.08.06l.01.03.25.13c.58.24 1.17.45 1.77.64a.73.73 0 0 0-.2.15c-.18-.1-.36-.19-.55-.26-.15-.06-.27-.13-.4-.17a3.52 3.52 0 0 0-2.52.02c-.2.08-.38.19-.59.3-.14.06-.28.15-.42.24-.3.2-.6.44-.87.7v-.11c-.08-.12-.24-.13-.39-.16-.08-.01-.15-.05-.14-.14 0-.03.02-.07.06-.12.16-.2.36-.37.58-.51l.36-.25a5.2 5.2 0 0 1 3.13-.6.1.1 0 0 1 0 .05Z" fill="#121417"/><path d="m12.07 4.04-.01.02h-.13a9.68 9.68 0 0 1-.38-.14h-.01a2.26 2.26 0 0 1 .67.54.02.02 0 0 1-.01 0c-.06.02-.11.01-.17 0A25.14 25.14 0 0 1 9.6 3.6a1.85 1.85 0 0 1-.25-.13v-.03c0-.03.03-.05.07-.06a3.68 3.68 0 0 1 1.36.21 9.1 9.1 0 0 0-.31-.15.15.15 0 0 1-.09-.1.01.01 0 0 1 .01-.02 3 3 0 0 1 .7.18c.36.13.71.3.98.53Z" fill="#FEE2C8"/><path d="M11.18 4.4a.8.8 0 0 1 .1.06c.41.27.62.4.88.64a10.08 10.08 0 0 1 .78.84c-.12-.1-.21-.2-.37-.23a4.13 4.13 0 0 0-3.51-1.59c.03.1.03.17.01.25a4.63 4.63 0 0 0-2.93 1.02l.04-.12a.02.02 0 0 0 0-.02.02.02 0 0 0-.02 0 .92.92 0 0 0-.22.14c-.46.39-.84.84-1.12 1.37l-.16.33a15.24 15.24 0 0 0-.18.4 4.66 4.66 0 0 1 1.34-2.27 6.81 6.81 0 0 1 1.29-.94c.2-.1.39-.21.59-.29a3.52 3.52 0 0 1 2.52-.02c.13.04.25.1.4.17.2.07.37.16.56.26Z" fill="#9A4902"/><path d="M12.06 4.06a6.85 6.85 0 0 1 .27.22c.09.07.17.17.27.24l.11.09a11.17 11.17 0 0 1 .9 1 5.57 5.57 0 0 1 1.09 2.93l.05.2a4.9 4.9 0 0 1-.1 1.29l-.04.15a5.82 5.82 0 0 1-.7 1.79.06.06 0 0 1-.02-.04v-.02c.02-.03.01-.04-.02-.05a.03.03 0 0 0-.02.02c-.28.47-.63.9-1.04 1.29-.27.26-.57.46-.92.69-.1.06-.18.08-.26.07.04-.04.03-.07-.04-.09h-.07c-.37.06-.72.14-1.05.25a.81.81 0 0 0-.33-.08c-.08 0-.09-.03-.01-.07a.41.41 0 0 0 .11-.13 4.68 4.68 0 0 0 3.1-2.52c.15-.26.26-.51.34-.74l.08-.27a.71.71 0 0 0 .02-.2l-.03-.45h-.01l-.08.28v.02h-.03l-.03-.01c0-.02 0-.02-.01 0v.01a.37.37 0 0 0-.06.16l-.04-.04c.02-.05.02-.1.02-.16h-.02l-.02.1a4.12 4.12 0 0 1-.74 1.56c-.02.02-.06.03-.08.06-.27.38-.6.71-.97 1h-.04c-.01 0-.02-.01 0-.02a.27.27 0 0 1 .05-.06.33.33 0 0 0 .06-.05.28.28 0 0 1 .08-.05.2.2 0 0 0 .07-.06l.12-.1.12-.1a4.6 4.6 0 0 0 1.2-2.25l-.03.04c-.12.14-.2.25-.23.3-.06.1-.1.26-.15.36a4.89 4.89 0 0 1-1.2 1.65l-.32.25-.27.16a3.71 3.71 0 0 1-1.45.52 4.76 4.76 0 0 1-2.3-.26c-.18-.07-.42-.21-.58-.3a3.72 3.72 0 0 1-1.19-1.08c-.1-.13-.19-.24-.25-.35a6.29 6.29 0 0 1-.49-1.16l-.02-.27c0-.05-.03-.1-.04-.13l-.03-.28-.03-.18a2.13 2.13 0 0 1 0-.59 4.92 4.92 0 0 1 .64-1.88c.05-.08.14-.2.2-.33-.1.15-.21.28-.34.4l.06-.08.12-.17.14-.17.02-.02a.3.3 0 0 0 .08-.09.19.19 0 0 1 .05-.05l.04-.05c.08-.1.16-.16.27-.26A4.34 4.34 0 0 1 9.7 4.85c.16.1.3.12.5.18l.3.1a4.19 4.19 0 0 1 1.28.76 3 3 0 0 0 .56.5l.23.31.24.42a.5.5 0 0 0 .09.1l.01-.01.02-.08.1.15c.1.23.17.46.23.7l.1.27-.02-.15.02-.33a3.07 3.07 0 0 1 .17.5h.01c.01 0 .02 0 .01-.01a4.5 4.5 0 0 0-.21-.8l-.2-.51a4.89 4.89 0 0 0-1.95-2l.2.09a4.64 4.64 0 0 1 1.7 1.7l.23.52a5.14 5.14 0 0 1 .29 1v-.01h.01a4.5 4.5 0 0 0-.38-1.3c-.07-.16-.2-.34-.26-.46-.07-.1-.16-.2-.23-.32a.1.1 0 0 0-.03-.02l-.04-.05c.07.03.12.06.16.12.32.45.58.92.77 1.44.06.18.11.43.17.6h.01a4.15 4.15 0 0 0-1.1-2.66l-.52-.5c-.26-.24-.47-.37-.87-.64a.8.8 0 0 0-.11-.06c.05-.06.12-.1.2-.15.21.08.43.15.65.2.06.02.11.03.17.02a.02.02 0 0 0 .01-.02v-.01a2.25 2.25 0 0 0-.68-.51l.02-.01.38.13c.04.02.08 0 .13 0Z" fill="#271501"/><path d="m6.29 3.94-.36.25c-.22.14-.42.31-.58.51a.24.24 0 0 0-.06.12c0 .1.06.13.14.14.15.03.31.04.39.16v.03c-.01.04 0 .07 0 .07l-.2.22a4.66 4.66 0 0 0-1.14 2.14l-.08.35a5.16 5.16 0 0 0 .09 2.49c.06.2.1.38.19.55.15.32.3.64.52.9.05.07.11.1.18.07l.23.26a5.26 5.26 0 0 0 .63.57.09.09 0 0 0-.03.09v.02c.34.3.72.54 1.15.72a7.34 7.34 0 0 0 .97.36.54.54 0 0 0 .17.06c0 .03 0 .04-.03.05l-.6.15-.24.08-.01.01a.03.03 0 0 0 0 .03v.01c.05.07.1.11.19.14l.31.1c-.39-.01-.72-.1-1.1-.23l-.56-.23c-.25-.1-.53-.28-.75-.38-.35-.17-.66-.4-.92-.7l-.36-.46c-.16-.2-.28-.41-.43-.61a.77.77 0 0 1-.07-.13c-.11-.22-.24-.42-.32-.65-.12-.3-.21-.6-.28-.89l-.1-.63a6.23 6.23 0 0 1 .08-2c.06-.3.2-.65.3-.97l.02-.02a6.18 6.18 0 0 1 1.6-2.13c.12-.11.27-.22.43-.31.2-.12.41-.22.63-.3Z" fill="#271501"/><path d="M14.11 6.45a5.57 5.57 0 0 0-.72-1.13 11.12 11.12 0 0 0-.8-.8l-.26-.24a2.07 2.07 0 0 1-.26-.24 4.46 4.46 0 0 1 .21.14c.07.06.14.07.19.16 0 .01 0 .02.02.03l.12.08c.05.05.09.1.14.13l.28.28.1.12a4.2 4.2 0 0 1 .3.3h.01v-.02a.49.49 0 0 1-.09-.1l-.07-.1-.35-.36-.09-.1a11.1 11.1 0 0 0-.19-.16h.02c.15.1.28.2.39.33.01.02.04.04.09.06l.05.07.02.02a6.82 6.82 0 0 1 .12.1l.25.32c.05.07.13.13.18.21.13.18.25.35.36.56a14.93 14.93 0 0 0 .16.35h-.01l-.15-.26h-.01v.02l.04.23c0 .01 0 .02-.02.01h-.03Z" fill="#753404"/><path d="M12.57 5.71a4.33 4.33 0 0 1 .3.43h-.03c-.11-.15-.24-.3-.4-.37-.01 0-.02 0 0 0l.23.33.04.05-.01.03a4.64 4.64 0 0 0-1.33-1.14 1.2 1.2 0 0 1-.2-.1s-.01 0 0 0v.02h.02a4.89 4.89 0 0 1 1.64 1.52h-.01a4.11 4.11 0 0 0-1.54-1.34v.03l.13.07-.08.03c-.44-.26-.9-.45-1.4-.57l-.02-.05-.02-.01-.46-.07-.14-.02-.27-.02L9 4.52l.03-.1a3.74 3.74 0 0 1 1.54.27v-.02l-.64-.2c-.27-.08-.57-.09-.86-.1a.45.45 0 0 0 0-.24.02.02 0 0 1 0-.02 4.13 4.13 0 0 1 3.5 1.6Z" fill="#FEE2C8"/><path d="m12.75 4.35.05.03a6.1 6.1 0 0 1 1.62 2.16l-.02-.02-.25-.46a6.04 6.04 0 0 0-1.4-1.7Z" fill="#FD9F4B"/><path d="M9.07 4.37c.29.01.6.02.86.1a14.23 14.23 0 0 1 .64.2v.01c-.3-.1-.58-.18-.85-.22l-.7-.05-.67.06a4.55 4.55 0 0 0-3.04 7.15c.01 0 .01.01 0 0a.28.28 0 0 1-.12-.1l-.22-.37a3.19 3.19 0 0 1-.36-.92l.05.2h-.02c-.05-.15-.06-.3-.15-.46V10c.01.16.03.33.06.49a.48.48 0 0 1-.05-.14 1.35 1.35 0 0 0-.05-.2 5.16 5.16 0 0 1-.05-2.22 2.22 2.22 0 0 1-.03.32l.02.02c.01 0 .02 0 .02-.02l.02-.03c0-.02.01-.02.01 0l.02.1h.01v-.02a4.7 4.7 0 0 1 1.37-2.64l.3-.26a4.63 4.63 0 0 1 2.93-1.02Z" fill="#753404"/><path d="m9.03 4.41-.03.1c0 .02 0 .02.02.02l.27.02.02.02v.01h-.25L9 4.6v.01l.06.03c.17 0 .29-.01.41.04a.6.6 0 0 0 .13.03l.15.03c.53.1 1.02.28 1.47.55l.23.16c0 .02 0 .02-.01.01a.98.98 0 0 0-.26-.11l.2.09-.2-.07-.1-.06-.51-.25a.86.86 0 0 0-.39-.17.54.54 0 0 0-.26-.01l-.23-.03a4.05 4.05 0 0 0-.94-.05 4.34 4.34 0 0 0-2.7 1.1c-.12.1-.2.17-.28.26a.51.51 0 0 1-.04.05.19.19 0 0 0-.05.05.3.3 0 0 1-.08.09l-.02.02-.14.17v-.1l.23-.32v-.03c0-.03.02-.05.03-.08l.03-.1c.1-.11.2-.23.32-.33l.13-.11v-.03l-.01-.02a4.44 4.44 0 0 1 2.86-1Z" fill="#9A4902"/><path d="M9.43 4.57c.17.06.33.1.5.13a4.82 4.82 0 0 1 1.93.98c.05.04.07.1.12.12l.1.1c.1.08.18.17.25.26l.03.1a8.36 8.36 0 0 0-.32-.34c-.06-.03-.1-.1-.14-.12a2.15 2.15 0 0 0-.09-.06l-.15-.13h-.01v.01l.04.03h-.02v.02l.03.04v.01h-.01l-.29-.22.11.03h.01v-.01l-.15-.08-.2-.09h.01c.09.02.17.06.26.11l.01-.01-.23-.16h.03v-.03c-.27-.16-.56-.3-.86-.4l-.4-.12c-.1-.03-.18-.03-.24 0L9.6 4.7a.6.6 0 0 1-.13-.03c-.12-.05-.24-.04-.4-.04L9 4.6a.19.19 0 0 1 .06-.03h.24c.02 0 .02 0 0-.01l-.01-.02.14.02Z" fill="#CF6509"/><path d="m10.57 5.06-.65-.18a.54.54 0 0 1 .26 0c.17.05.3.1.39.18ZM12.84 6.46c.11.15.2.31.28.49.04.07.1.24.2.52a4.5 4.5 0 0 1 .21.8h-.02c-.04-.17-.09-.34-.16-.5l-.06-.14h-.02c-.01 0-.02 0-.02-.02-.06-.19-.13-.37-.22-.54-.01-.02-.03-.03-.05-.02l-.12-.22c0-.1-.04-.18-.12-.26a4.63 4.63 0 0 0-1.33-1.33l-.13-.07v-.03a4.11 4.11 0 0 1 1.56 1.33Z" fill="#B2540C"/><path d="M12.74 6.57c0 .1.07.2.12.26l.12.22.03.08c.01.03 0 .04-.02.03a.02.02 0 0 1 0-.01 6.55 6.55 0 0 0-.28-.49c-.05-.09-.14-.18-.2-.28a.94.94 0 0 0-.09-.1 4.44 4.44 0 0 0-.44-.47c-.05-.03-.07-.09-.12-.13a4.94 4.94 0 0 0-.53-.4l.08-.04a4.63 4.63 0 0 1 1.33 1.34Z" fill="#FD9F4B"/><path d="m6.14 5.39-.3.26A4.7 4.7 0 0 0 4.46 8.3l-.02-.09c0-.02 0-.02-.01 0l-.02.03c0 .01 0 .02-.02.02l-.02-.02v-.01l.03-.3.08-.35a15.24 15.24 0 0 1 .18-.5l.16-.32c.28-.53.66-.98 1.12-1.37a.92.92 0 0 1 .23-.14.02.02 0 0 1 0 .02l-.03.12Z" fill="#CF6509"/><path d="m6.17 5.42.02.02-.01.03a1.7 1.7 0 0 1-.13.11 9.22 9.22 0 0 0-.5.55.25.25 0 0 0-.06.14l-.01.02c-.25.32-.45.68-.6 1.06-.1.28-.19.57-.25.87-.03.08-.06.12-.1.1l.07-.39a4.55 4.55 0 0 1 1.57-2.5Z" fill="#CF6509"/><path d="m11.81 5.74.02.03v.01h-.01l-.05-.02h-.02v.04l-.06-.08h.01V5.7l-.04-.04a.01.01 0 0 1 0-.01.01.01 0 0 1 .02 0h.01l-.04-.04v-.01l.16.13Z" fill="#5D1E00"/><path d="M12.94 5.94a4.15 4.15 0 0 1 .83 2.31c-.06-.16-.1-.4-.17-.6a5.7 5.7 0 0 0-.77-1.43l.03-.04v-.02c-.02 0-.02-.01-.02-.02h.03v-.02a4.33 4.33 0 0 0-.3-.4c.16.02.25.11.37.22Z" fill="#B2540C"/><path d="m12.36 6.25.25.34-.05.11-.23-.3a5.6 5.6 0 0 0-.58-.63c0-.02.01-.02.02-.01l.05.03h.01v-.02l-.02-.03.09.06c.03.03.08.09.14.12l.06.05.26.28Z" fill="#753404"/><path d="m12.84 6.14.02.02v.02l-.03.04a.35.35 0 0 0-.16-.12l-.24-.32v-.01c.17.08.3.22.41.37Z" fill="#9A4902"/><path d="m5.73 5.92-.03.1c0 .02-.03.04-.03.07v.03l-.24.32-.05.07a4.2 4.2 0 0 0-.71 2.74c0 .05.01.2.05.45.01.1.05.21.07.34l.1.37c0 .06-.02.1-.05.1a2.96 2.96 0 0 1-.16-.55 3.9 3.9 0 0 1-.1-1.47l.05-.27c.06-.3.15-.59.26-.87a4.19 4.19 0 0 1 .6-1.08c0-.06.03-.1.06-.14l.18-.21Z" fill="#5D1E00"/><path d="M12.7 6.18v-.03a.1.1 0 0 1 .04.02l.23.32c.07.12.19.3.26.45a4.5 4.5 0 0 1 .38 1.3l-.01.01a5.14 5.14 0 0 0-.29-1c-.06-.15-.16-.33-.24-.5a3.91 3.91 0 0 0-.37-.57Z" fill="#B2540C"/><path d="m5.71 11.7-.07-.08a.3.3 0 0 0-.13-.04l-.1-.14c-.1-.15-.19-.3-.26-.47a2.3 2.3 0 0 1-.22-.47 3.75 3.75 0 0 1-.14-.46c-.02-.13-.06-.24-.07-.34a5.68 5.68 0 0 1-.05-1.03l.03-.37.1-.44c.1-.38.26-.73.46-1.06a2.46 2.46 0 0 0 .34-.41c-.06.14-.15.25-.2.33a4.92 4.92 0 0 0-.64 1.88 2.13 2.13 0 0 0 .03.77c0 .06 0 .19.03.28.01.03.04.08.04.13l.02.27c0 .07.04.18.1.35.12.29.25.56.4.8.05.12.14.23.24.36l.1.14Z" fill="#411F03"/><path d="M14.55 7.15a.37.37 0 0 0-.05-.1l-.01.01c.07.29.19.57.17.88l-.43-1.5h.02c.13.22.23.46.3.7Z" fill="#271501"/><path d="m5.44 6.54-.12.17.06-.2.05-.07c.01.03.02.07.01.1Z" fill="#B2540C"/><path d="m5.38 6.51-.06.2-.06.09a3.93 3.93 0 0 0-.56 1.5c0-.14.03-.3.07-.45a4.72 4.72 0 0 1 .6-1.34Z" fill="#CF6509"/><path d="M12.61 6.6c.12.16.22.34.3.53l-.01.08h-.01a.5.5 0 0 1-.1-.1 15.5 15.5 0 0 0-.23-.4l.05-.12Z" fill="#5D1E00"/><path d="M3.62 6.7c-.1.33-.25.68-.3.98a6.23 6.23 0 0 0-.09 2l.1.63c.07.3.16.59.28.9.08.22.2.42.32.64l.07.13c.15.2.27.4.43.6l.36.47c.26.3.57.53.92.7.22.1.5.27.75.38l.57.23c.37.13.7.22 1.1.23.32.07.65.1.99.09.16 0 .3-.03.45-.04a.03.03 0 0 0 .03-.03l-.01-.01a3.78 3.78 0 0 0 2.04-.67c.08.01.16 0 .26-.07.35-.23.65-.43.92-.69a6.32 6.32 0 0 0 1.06-1.3c.03 0 .04.01.02.04v.02c0 .02.01.03.03.04a3.02 3.02 0 0 1-.46.64c-.11.15-.24.3-.38.44l-.2.19a2.1 2.1 0 0 1-.16.14l-.38.3a5.02 5.02 0 0 0-.31.22 27.8 27.8 0 0 1-.47.25 6.16 6.16 0 0 1-2.21.67 8.45 8.45 0 0 0 1.22-.16 5.48 5.48 0 0 0 1.77-.8l.3-.21.32-.26.07-.08.37-.37.12-.14.1-.11a6.75 6.75 0 0 0 .64-1.02v-.01h-.02a7.13 7.13 0 0 1 .18-.4l.06-.18c.06-.13.1-.27.15-.4l.04-.17a.66.66 0 0 1 .16-.33c-.02.19-.07.37-.12.54l-.19.52a5.73 5.73 0 0 1-2.38 2.83.1.1 0 0 1-.03.02 1.9 1.9 0 0 0-.27.14 6.84 6.84 0 0 1-1.68.6l-.38.05-.3.03a5.8 5.8 0 0 1-3.54-.85 6.06 6.06 0 0 1-1.86-1.77 5.88 5.88 0 0 1-.87-1.84v.02l-.03-.03a5.75 5.75 0 0 1-.11-2.31c.09-.12.15-.23.18-.35l.2-.69c.04-.13.1-.26.17-.38Z" fill="#411F03"/><path d="m13.35 7.77-.02.33a3.88 3.88 0 0 0-.32-.97.23.23 0 0 0-.03-.08c.02 0 .04 0 .05.02a3.31 3.31 0 0 1 .24.55h.02l.06.15Z" fill="#5D1E00"/><path d="M4.63 8.22c0 .1-.04.19-.04.27a5.51 5.51 0 0 0 .1 1.47l.06.26c0 .05.04.15.1.3l.14.36h.02l.01-.03a.67.67 0 0 0-.03-.1v-.01c.02.1.07.18.16.23.07.16.16.32.26.47-.02 0-.02 0-.02.02l-.04-.04-.2-.18c-.01-.01-.02 0 0 .01l.2.35h.01v-.02a.01.01 0 0 1 .02 0l.07.1v.05l.14.2c0 .05.02.1.06.15.02.01.02.02 0 .02-.01 0-.02 0-.02.02s0 .02-.01.01a27.37 27.37 0 0 0-.41-.53c-.02-.02-.03-.02-.05-.02l-.01.02v.06a4.95 4.95 0 0 1-.6-1.18 4.18 4.18 0 0 1-.06-.51c.09.16.1.31.15.46h.01l-.04-.2c.08.34.2.64.36.92l.22.37c.03.05.07.08.12.1.01.01.01 0 0 0a5.18 5.18 0 0 1-.78-2.02 143.49 143.49 0 0 1-.02-1.1l.03-.17c.03 0 .06-.03.1-.11Z" fill="#9A4902"/><path d="M13.35 9.24c.02-.24 0-.4-.01-.66 0-.07 0-.13.03-.2l.02-.01a.03.03 0 0 1 .02 0c.07.06.07.36.07.45.02.32.02.63-.05.92l-.07.12h-.01a.5.5 0 0 1-.03-.2l.03-.42Z" fill="#121417"/><path d="M8.18 6.9v.05h.01l.01.01 3.57-.01L9.92 8.8a.14.14 0 0 1-.1.05h-1.4c-.36 0-.7.26-.85.6-.01-.04-.01-.1 0-.14v-.14c0-.17.04-.32.13-.46l.08-.11c.04-.06.07-.11.07-.17a.84.84 0 0 1 .43-.2l-.01.02.01.01h1.03a2.54 2.54 0 0 0 .4-.03l.01-.01c0-.02 0-.03-.01-.02l.62-.63c.04-.04.03-.06-.02-.05H8.66c-.27.01-.46.03-.58.06-.42.1-.78.38-1.01.75a.13.13 0 0 0-.04-.01H7c-.04.07-.09.15-.12.25a1.7 1.7 0 0 0 1.6 2.32H9.7c.05-.01.1 0 .14-.02.06-.02.06-.04.02-.05l.12-.04c.15-.02.22-.13.2-.32 0-.15-.07-.25-.17-.3a.65.65 0 0 0-.3-.05 95.06 95.06 0 0 1-1.31-.04c-.16-.07-.2-.25-.11-.41v-.03l-.01-.05a.27.27 0 0 1 .07-.04c0 .03.04.05.14.05l1.27-.01c.26 0 .49.08.66.27l.14.17c.22.35.18.8-.09 1.11v.03l.02.01a.76.76 0 0 1-.27.2l-.43.07c-.32 0-.67-.03-.95-.03-.4 0-.72 0-1.08-.14a2.4 2.4 0 0 1-.82-.5 2.92 2.92 0 0 1-.44-.61l-.15-.36c-.07-.24-.1-.46-.09-.68.02-.39.12-.75.31-1.07.11-.2.3-.41.43-.62.34-.3.74-.47 1.2-.52Z" fill="#EE7003"/><path d="M7 7.43c-.15.21-.33.43-.44.62-.19.32-.29.68-.3 1.07-.02.22.01.44.08.68l.15.36.07.14c.12.18.24.34.37.47.22.22.53.4.82.5.36.14.68.14 1.08.14.28 0 .63.04.95.03.07 0 .22-.03.43-.07a.62.62 0 0 1-.2.08c-.1.01-.26.02-.48.01H9.4l-1.08.01A2.29 2.29 0 0 1 7 7.43Z" fill="#B2540C"/><path d="M7.07 8.33a1.65 1.65 0 0 0 1.18 2.48 153.48 153.48 0 0 0 1.6.01c.04.01.04.03-.02.05-.05.02-.1.01-.14.01H8.5A1.7 1.7 0 0 1 7 8.34c0-.01.02-.02.03-.01l.04.01Z" fill="#FD9F4B"/><path d="M7.85 8.43c0 .06-.03.11-.07.17l-.08.1a.86.86 0 0 0-.13.47v.14c-.01.05-.01.1 0 .14l-.02.04h-.01a1 1 0 0 1 .2-.98.44.44 0 0 1 .1-.08Z" fill="#B2540C"/><path d="m10.48 11.17-.02-.01v-.03a.94.94 0 0 0-.05-1.28.86.86 0 0 0-.66-.27H8.48c-.1 0-.14 0-.14-.04.05-.02.11-.03.18-.03h1.3a.97.97 0 0 1 .66 1.66Z" fill="#FD9F4B"/><path d="m8.27 9.58.01.05v.03c-.1.16-.05.34.11.41a95.06 95.06 0 0 0 1.32.04c.13 0 .23.01.29.04.1.06.16.16.17.31.02.2-.05.3-.2.32.12-.1.16-.23.13-.36-.04-.17-.18-.26-.35-.26H8.6a.65.65 0 0 1-.28-.03.33.33 0 0 1-.05-.55Z" fill="#B2540C"/><path d="M13.17 11.6a5.4 5.4 0 0 0 .56-1.6v-.01h-.01a4.2 4.2 0 0 1-.95 1.87v-.02a4.7 4.7 0 0 0 .83-1.92l.03.01a.03.03 0 0 0 .03-.02l.08-.28h.01l.03.45a.7.7 0 0 1-.02.2l-.08.27a7.25 7.25 0 0 1-.5 1.04Z" fill="#5D1E00"/><path d="m13.49 10.05-.1.35a4.52 4.52 0 0 1-4.56 3.16 4.49 4.49 0 0 1-2.56-.93h-.01a2.9 2.9 0 0 1-.56-.52.02.02 0 0 1 .02-.01c.41.43.9.77 1.45 1h.12l.41.16.33.1.28.05.34.04a5.54 5.54 0 0 0 1.47-.11c.2-.04.42-.13.57-.2.04 0 .05-.03.1-.04l.17-.07a4.52 4.52 0 0 0 1.69-1.42c.02-.03.06-.04.08-.06a4.12 4.12 0 0 0 .76-1.66h.02c0 .06 0 .1-.02.16Z" fill="#FD9F4B"/><path d="M11.68 12.6a4.13 4.13 0 0 1-.9.5c-.04 0-.05.04-.09.05-.15.06-.37.15-.57.19a5.43 5.43 0 0 1-1.47.11c-.12 0-.23-.02-.34-.04l-.28-.05-.33-.1.04-.01v-.01c0-.01 0-.02-.02-.02a4.99 4.99 0 0 1-1.91-1.2 1.66 1.66 0 0 1-.14-.17h-.02v.01h-.01a1.03 1.03 0 0 0-.07-.1.23.23 0 0 1-.03-.06l.09.1c0 .02 0 .02.02 0h.03l.18.2.06.07a5.11 5.11 0 0 0 1.23.88c.21.1.43.19.65.25a7.29 7.29 0 0 0 .82.15h-.1l.3.02.24.02.43-.02c.06 0 .11-.02.16-.04h.11c.09-.03.16-.01.24-.04l.2-.06a.82.82 0 0 1 .13-.04c.04 0 .08-.02.13-.04a4.3 4.3 0 0 0 2.85-3.2l.02-.03h.01v.02a4.6 4.6 0 0 1-1.5 2.49.28.28 0 0 0-.09.05.33.33 0 0 1-.06.05.27.27 0 0 0-.06.06v.01h.05Z" fill="#CF6509"/><path d="M13.58 9.93a4.7 4.7 0 0 1-.81 1.92c0 .01 0 .01 0 0a4.2 4.2 0 0 0 .95-1.86h.01l.01.01a4.68 4.68 0 0 1-3.5 3.8l-.55.1a4.56 4.56 0 0 1-2.4-.45 5.66 5.66 0 0 1-1.66-1.29.02.02 0 0 1 .01 0 5.7 5.7 0 0 0 .87.72l.1.04c.08.02.16.09.21.12a4.56 4.56 0 0 0 6.7-2.95.37.37 0 0 1 .06-.16Z" fill="#FD9F4B"/><path d="M13.31 9.96a3.96 3.96 0 0 1-.61 1.44 106.2 106.2 0 0 1-.84.9 6.34 6.34 0 0 1-.54.4 155.88 155.88 0 0 1-.6.29 4.8 4.8 0 0 1-1.85.36l.35-.01v-.02c-.51-.01-.96-.06-1.45-.2-.21-.06-.43-.17-.64-.23h-.01l.03.06-.3-.15a5.11 5.11 0 0 1-.99-.8l-.18-.2-.06-.08.02-.1.07.08a4.77 4.77 0 0 0 1.1.94c.16.09.4.23.59.3.3.13.58.2.83.25a4.77 4.77 0 0 0 2.27-.2 6.03 6.03 0 0 0 .9-.47c.12-.09.24-.16.34-.26a4.88 4.88 0 0 0 1.2-1.64c.04-.1.08-.26.14-.35.04-.06.11-.17.23-.31ZM4.55 10.48c.15.42.35.81.6 1.18l.23.28c-.07.02-.13 0-.18-.06-.21-.27-.37-.6-.52-.9-.09-.18-.13-.36-.2-.57a2.16 2.16 0 0 1-.08-.44l.05.18.05.19c0 .04.02.09.05.14Z" fill="#411F03"/><path d="m14.65 10.08-.1.48a6.43 6.43 0 0 1-.99 2.05.54.54 0 0 1-.07.07 4.35 4.35 0 0 1-.51.59c-.04.04-.04.05.01.02a.41.41 0 0 0 .12-.1c.06-.08.13-.16.21-.23l.12-.12.11-.13c.13-.15.24-.33.34-.48a4.17 4.17 0 0 0 .36-.57.02.02 0 0 1 .01.03 6.75 6.75 0 0 1-.73 1.1l-.13.15a11.36 11.36 0 0 1-.44.45l-.32.26c-.1.08-.2.14-.3.2a5.48 5.48 0 0 1-3 .95 6.16 6.16 0 0 0 3-1.12l.38-.3.15-.14.2-.19a4.03 4.03 0 0 0 .54-.62 5.81 5.81 0 0 0 1.03-2.4.7.7 0 0 0 0 .05Z" fill="#9A4902"/><path d="m13.49 10.05.04.04c0 .04-.02.09-.04.13v.05a4.55 4.55 0 0 1-5.53 3.22 5.1 5.1 0 0 1-1.14-.45c-.05-.03-.13-.1-.2-.12a.63.63 0 0 1-.11-.04 5.7 5.7 0 0 1-.88-.72c-.02 0-.02.02-.02.04l-.23-.26-.22-.28-.01-.06v-.02c.03 0 .05 0 .06.02a26.65 26.65 0 0 1 .4.53h.02c0-.02.01-.03.02-.03.02 0 .02 0 0-.02a.2.2 0 0 1-.06-.15l.14.17h-.01a.02.02 0 0 0-.02.02 2.9 2.9 0 0 0 .58.51 4.48 4.48 0 0 0 2.56.93 4.5 4.5 0 0 0 4.65-3.51Z" fill="#B2540C"/><path d="M3.2 10.47v-.02c.01-.02.02-.02.03 0a5.88 5.88 0 0 0 1.53 2.65 6.06 6.06 0 0 0 2.11 1.42 5.8 5.8 0 0 0 2.9.36l.39-.06a6.84 6.84 0 0 0 2.1-.85l.03-.01.03-.02a5.77 5.77 0 0 0 2.39-3.22c.05-.17.1-.35.12-.54.02-.02.04-.06.05-.11v-.01l-.01.13a5.8 5.8 0 0 1-1.45 2.88 6.03 6.03 0 0 1-4.65 1.92 6.1 6.1 0 0 1-5.57-4.53Z" fill="#CF6509"/><path d="M4.9 10.4c0 .04.02.07.03.1l.04.09c.05.13.1.25.18.38a.32.32 0 0 1-.16-.23l.03.11v.03h-.03l-.15-.36c.03 0 .05-.04.06-.11Z" fill="#753404"/><path d="M5.35 11.42a.3.3 0 0 0 .12.2l.07.08c0 .03.02.06.03.07l.07.1s.01 0 0 0a.65.65 0 0 0 .01-.02h.02l.14.17c.15.17.32.33.5.47a4.99 4.99 0 0 0 1.43.76l-.04.01-.41-.16h-.12a4.03 4.03 0 0 1-1.44-1l-.14-.17-.14-.2v-.06l-.07-.1h-.01v.01l-.01.01v.01a.01.01 0 0 1-.02 0l-.2-.35c0-.02 0-.02.01 0l.2.17Z" fill="#5D1E00"/><path d="M12.7 11.4a4.9 4.9 0 0 1-1.04 1.13 4.3 4.3 0 0 1-1.46.7l-.2.06c-.08.03-.15.01-.24.04h-.11a.49.49 0 0 1-.16.04c-.18 0-.32 0-.43.02l-.24-.02-.3-.01v-.02h.72a4.8 4.8 0 0 0 2.62-1.03c.09-.07.18-.17.3-.3l.54-.6Z" fill="#9A4902"/><path d="m5.41 11.44.1.14.11.14.06.07c-.02 0-.03.01-.03.02h-.02l-.1-.11-.06-.09-.08-.15c0-.01 0-.02.02-.02Z" fill="#B2540C"/><path d="m5.64 11.62-.02.1-.1-.14a.3.3 0 0 1 .12.04Z" fill="#5D1E00"/><path d="M11.63 13.93a3.79 3.79 0 0 1-2.04.67l-.2-.01h-.02a.03.03 0 0 1-.01-.02v-.01c.01-.04.03-.07.06-.08a7.48 7.48 0 0 1 2.18-.64c.06.02.07.05.03.09Z" fill="#FD9F4B"/><defs><linearGradient id="a" x1="3.35" y1="3.12" x2="21.9" y2="24.43" gradientUnits="userSpaceOnUse"><stop stop-color="#1A1E21"/><stop offset="1" stop-color="#06060A"/></linearGradient></defs></svg>