<!-- by TradingView --><svg width="18" height="18" viewBox="0 0 18 18" xmlns="http://www.w3.org/2000/svg"><path fill="#F0F3FA" d="M0 0h18v18H0z"/><path d="M7.86 3a.86.86 0 0 0-.86.86v1.42C7 6.28 6.14 7 5.09 7H3.86a.86.86 0 0 0-.86.86v2.28c0 .48.38.86.86.86h2.28c.48 0 .86-.38.86-.86V9.02C7 7.78 7.76 7 9.02 7h1.12c.48 0 .86-.38.86-.86V3.86a.86.86 0 0 0-.86-.86H7.86ZM11.86 7a.86.86 0 0 0-.86.86v1.42c0 1-.86 1.72-1.91 1.72H7.86a.86.86 0 0 0-.86.86v2.28c0 .48.38.86.86.86h2.28c.48 0 .86-.38.86-.86v-1.12c0-1.24.76-2.02 2.02-2.02h1.12c.48 0 .86-.38.86-.86V7.86a.86.86 0 0 0-.86-.86h-2.28Z" fill="#001405"/></svg>