<!-- by TradingView --><svg width="18" height="18" viewBox="0 0 18 18" xmlns="http://www.w3.org/2000/svg"><path fill="url(#at1f3bbuf)" d="M0 0h18v18H0z"/><path d="m13.22 8.94-.11.09-.02.04-.86-1.01a.02.02 0 0 0-.02 0 .02.02 0 0 0-.01 0l-.66 2.07-.16-.09.66-2.11V7.9a.05.05 0 0 0-.02-.03l-.42-.2-.03.01-.06.18c0-.04-.02-.08-.05-.1a3.04 3.04 0 0 0-.1-.04l.14-.47a.08.08 0 0 0-.01-.07L9.1 4.38h-.02v4.5a.22.22 0 0 0-.04.09c0 .06-.02.07-.06.02-.04-.04-.03-.1-.06-.14H8.9v.04l-.01-4.5a58.53 58.53 0 0 0-.48.53.45.45 0 0 0-.09.16l-.48 1.48v-.09a.24.24 0 0 0 .04-.1.02.02 0 0 0 0-.02.02.02 0 0 0-.02 0h-.08c0 .02-.01.03-.03.03-.02 0-.02 0-.03.02 0 .03-.02.05-.04.07l.1-.33c0-.01 0-.02-.02-.01l-.57.28a.13.13 0 0 0-.07.07l-.45 1.4-.01-.1c-.04-.04-.08-.06-.13-.05l.28-.9c.02-.04 0-.04-.02-.01l-.63.74c-.06-.06-.12-.1-.16-.1l.95-1.11a.34.34 0 0 1 .1-.09 38.52 38.52 0 0 1 .8-.38c.01-.01.03-.03.03-.05l.28-.87a80.41 80.41 0 0 1 .8-.96H9c.03 0 .05.02.07.04l2.6 3.07c.08.09 0 .24-.02.34-.01.02 0 .03.01.04l.44.21c.1.04.15.09.21.17l.91 1.07Z" fill="#EB3459"/><path d="M8.05 7.42V7.1c-.01-.02-.02-.02-.03-.02L8 7.09l-.01.03h-.02l.06-.22.14-.44c.04-.16.1-.34.19-.49.02-.03.04-.04.07-.03.02 0 .02.01.02.03V6.14c-.01.01-.02.02-.01.03v.03l-.38 1.22Z" fill="#501C27"/><path d="m7.85 6.56-.67 2.1a.7.7 0 0 0-.1 0l-.03-.01-.03-.04.67-2.14a.11.11 0 0 0 .04-.07c0-.02.01-.02.03-.02.02 0 .03 0 .03-.03h.08a.02.02 0 0 1 .02 0 .02.02 0 0 1 0 .01c0 .04-.01.08-.04.11v.09Z" fill="#E6668B"/><path d="m8.05 7.42-1.08 3.45a.35.35 0 0 0-.15-.1l1.14-3.64.02-.01.01-.03.03-.01c.01 0 .02 0 .02.02l.01.32Z" fill="#663B58"/><path d="m9.08 10.5-.01-.42.01-.7.01.1c0 .02 0 .02.03 0l.53-.5.34-.35.15-.13a113.15 113.15 0 0 1 1.23-1.16h.06v.03l-.08.2-.03.04c-.07.05-.11.12-.17.18l-.46.43A240.95 240.95 0 0 1 9.1 9.78c-.01.1-.02.2-.01.3l-.01.41Z" fill="#501C27"/><path d="m6.17 7.56-2.7 3.2a.2.2 0 0 0-.09.07c-.07.07-.15.13-.23.17a.1.1 0 0 0-.04.03.15.15 0 0 0-.02.06c0 .01 0 .02-.02.02v-.01h-.02l.01.02a6.03 6.03 0 0 0-.05-.03c-.02-.03 0-.06.02-.1.07-.06.15-.18.23-.27L6 7.47c.04 0 .1.03.16.1Z" fill="#CB6DA4"/><path d="M7.29 10.85v-.03h-.01c0 .02 0 .02-.02 0a.2.2 0 0 1-.03-.07.04.04 0 0 0-.04-.03v-.01c0-.02-.01-.02-.02-.01l-.03.01.4-1.25.16-.51a18.7 18.7 0 0 1 .37-1.1l.08-.26c0-.02.02-.02.04-.02.04 0 .06.03.06.07 0 .08-.01.16-.05.24a.42.42 0 0 0-.03.13.5.5 0 0 1-.03.1l-.04.18-.05.18a144.17 144.17 0 0 0-.76 2.38Z" fill="#221A2E"/><path d="m11.51 7.86-1.16 3.66v-.02c-.02 0-.03.01-.03.03l-.02.02h-.01l-.01.01h-.01c-.06.01-.1 0-.11-.04l1.2-3.8.1.05c.03.01.05.05.05.1ZM6.68 7.87l-.63 1.98a.3.3 0 0 1-.16-.08l.65-2.04c.05-.01.1.01.13.06.02.02.01.05.01.08Z" fill="#E6668B"/><path d="M7.02 8.6c0 .02 0 .04.02.05h.05a.7.7 0 0 1 .1.01l-.67 2.11h-.05s-.02 0-.02-.02c-.03-.04-.06-.06-.1-.06l.67-2.08Z" fill="#926BC4"/><path d="M5.22 9.96V9.9L5.2 9.9a.08.08 0 0 1-.06-.05.02.02 0 0 0-.03 0h-.04l.48-.58.36-.38.1-.08a.68.68 0 0 0 .12-.15h.01a.01.01 0 0 1 .01 0 .54.54 0 0 1-.06.23c0 .02-.01.03-.02.03l-.02.01-.2.3-.24.28-.4.46Z" fill="#221A2E"/><path d="M13.22 8.94a380.08 380.08 0 0 1 1.77 2.1c.02.04 0 .07-.03.1l-1.04.5a.43.43 0 0 0-.15-.13l.93-.44.04-.03v-.02l-.19-.23-1.46-1.72.01-.03v-.01l.12-.1Z" fill="#E6668B"/><path d="M13.2 10.1h-.09c-.05 0-.07.04-.06.1l-.9-1.06V9.1l-.01-.05v-.02a.03.03 0 0 1 .03-.01l.09.02a.2.2 0 0 1 .1.07 4.59 4.59 0 0 1 .17.2l.67.77Z" fill="#221A2E"/><path d="m8.91 9.68-.01.26-1.46 1.4-.01-.03a.02.02 0 0 1-.02-.02c0-.02 0-.04-.03-.04v-.04l-.04-.01L8.9 9.68Z" fill="#874E77"/><path d="m5.22 9.96-.16.18a.02.02 0 0 0 0 .02l.6.3-.04.16-.02-.01a352.93 352.93 0 0 1-.7-.31.1.1 0 0 0-.04 0l-1.56.77c-.03-.01-.04-.03-.04-.06 0-.02 0-.04.03-.06a.55.55 0 0 0 .09-.12.2.2 0 0 1 .09-.08 117.3 117.3 0 0 1 1.31-.6 3.83 3.83 0 0 0 .3-.3l.03-.02.03.01c.02.03.04.04.06.05l.02.01v.06Z" fill="#1B398F"/><path d="m11.38 10.04.16.1-.23.72c-.03.01-.05.01-.07-.01a.04.04 0 0 0-.03-.02h-.03l-.03-.02v-.03l.23-.74Z" fill="#CB6DA4"/><path d="M13.2 10.1c.05.05.09.09.13.11.2.1.6.3 1.22.58l.2.23v.02l-.05.03-1.45-.7a.08.08 0 0 0-.07 0l-2.02.97.08-.28c.01.02.03.02.05.02a332.85 332.85 0 0 1 1.76-.87c0-.07.01-.1.06-.12h.09ZM5.84 10.55l.47.23c0 .05-.01.1-.04.16l-.49-.24.06-.15Z" fill="#1B398F"/><path d="M9.08 10.62c.01.12.02.24 0 .35 0 .07.02.07.05.01a.62.62 0 0 0 .05-.12v-.04c.01-.04.03-.06.07-.05l.03.01v.03c0 .02 0 .04.02.06v.03a3.09 3.09 0 0 1-.2.7 8.98 8.98 0 0 1-.02-.98Z" fill="#221A2E"/><path d="m7.29 10.85-.13.38a.18.18 0 0 1-.1.1l-.25.12.12-.4v.03a.06.06 0 0 0 .05.02h.03l.02-.03.1-.36.03-.01c.02-.01.03 0 .02.01l.01.01c.02 0 .03.02.04.03 0 .03.01.05.03.08h.02v.02Z" fill="#1B398F"/><path d="M6.82 10.77c.05 0 .1.04.16.1l-.05.18-.12.4c-.05.11-.1.23-.12.36h.01l.64-.61.04.01v.04c.03 0 .04.02.03.04 0 .01 0 .02.02.02l.01.04-.78.75v.03l.43.2c-.02.04-.05.06-.1.05.02 0 .02 0 .01.02l-.02.02-.01.01v.02a.01.01 0 0 1-.02 0h-.02l-.46-.2c-.06-.04-.09-.09-.08-.16.08-.15.13-.32.17-.52l.05-.21a.35.35 0 0 0 .09-.22l.05-.16.07-.21Z" fill="#5E5AC4"/><path d="m6.5 10.86.25.12-.05.16-.26-.12.05-.16Z" fill="#1B398F"/><path d="m10.35 11.5-.08.27-.34 1.06c-.09.01-.14-.01-.16-.07v-.02l.27-.86.08-.24.04-.12c.02.04.05.05.11.05h.01v-.01c0-.01.01-.02.02-.01l.02-.02c0-.02.01-.03.03-.03Z" fill="#5E5AC4"/><path d="m10.12 11.64-.08.24c-.02 0-.05 0-.09.03a42.04 42.04 0 0 0-.86.43v-.22l.27-.11.76-.37ZM8.88 11.8c.03.05.04.08.03.1l-.02.63c-.08-.02-.23-.07-.2-.19l.19-.53ZM9.1 12.44l.65.31h.01v.01l-.06.18-.61-.3v-.2Z" fill="#1B398F"/><path fill-rule="evenodd" d="M6.05 9.85a.3.3 0 0 1-.16-.08l-.22.7-.05.15-.42 1.34-.01.01h-.01l-1.88-.9c-.03-.01-.04-.03-.04-.06 0-.02 0-.04.03-.06a.55.55 0 0 0 .1-.12c-.08.07-.16.13-.24.17a.1.1 0 0 0-.04.03.15.15 0 0 0-.02.06c0 .01 0 .02-.02.02v-.01h-.02l.01.02c.05.03.08.05.1.08l2.02.98c.04.02.09.02.13 0a55.7 55.7 0 0 0 .66-.3l-.16.5c-.01.06 0 .1.06.13l3.07 1.47a.13.13 0 0 0 .11 0l.51-.24h.02c.04-.03.08-.05.1-.1a54.24 54.24 0 0 1 .2-.62l.54.25a.12.12 0 0 0 .1 0l3.4-1.63a.43.43 0 0 0-.15-.13l-3.12 1.5h-.01a.01.01 0 0 1-.01 0V13l.53-1.66.08-.28.07-.2c-.03.01-.05.01-.07-.01a.04.04 0 0 0-.03-.02h-.03l-.03-.02v-.03l-.12.38a.12.12 0 0 1-.06.07l-.62.29v-.02l-.08.27.63-.31a.02.02 0 0 1 .02 0v.02l-.5 1.56a.03.03 0 0 1-.01.02.03.03 0 0 1-.03 0l-.45-.23c-.09.01-.14-.01-.16-.07l-.07.18-.17.54a.02.02 0 0 1 0 .01H9.5l-.4-.19-.01-.02-.01-.03v-.81a.22.22 0 0 1 0-.1v-.22l-.01-.27a.24.24 0 0 1-.1-.07h-.02a.28.28 0 0 0-.05.13l-.02.62.01.04a31.21 31.21 0 0 1-.02.62l-1.79-.86c-.02.04-.05.06-.1.05.02 0 .02 0 .01.02l-.02.02-.01.01v.02a.01.01 0 0 1-.02 0h-.02l1.94.93c.02.01.03.03.03.05v.3a.02.02 0 0 1-.02.02l-2.75-1.32h-.01a.01.01 0 0 1 0-.02l.35-.17c-.06-.03-.09-.08-.08-.15l-.31.15c-.02 0-.03 0-.02-.02l.14-.44a.1.1 0 0 1 .04-.06l.32-.15.05-.21-.29.13c-.02.01-.03 0-.02-.02l.14-.45.05-.16.03-.09h-.05s-.02 0-.02-.02c-.03-.04-.06-.06-.1-.06l-.04.09c0 .05-.01.1-.04.16l-.2.64a.1.1 0 0 1-.05.06l-.6.29H5.4a.01.01 0 0 1-.01-.02l.38-1.2.06-.16.21-.7Zm3.3 3.77-.25-.13h-.01v.25a.01.01 0 0 0 0 .02h.01l.25-.12a.01.01 0 0 0 0-.01v-.01Z" fill="#2A5FEB"/><defs><linearGradient id="at1f3bbuf" x1="3.35" y1="3.12" x2="21.9" y2="24.43" gradientUnits="userSpaceOnUse"><stop stop-color="#1A1E21"/><stop offset="1" stop-color="#06060A"/></linearGradient></defs></svg>