<!-- by TradingView --><svg width="18" height="18" viewBox="0 0 18 18" xmlns="http://www.w3.org/2000/svg"><path fill="#F0F3FA" d="M0 0h18v18H0z"/><path d="M5.86 6.48a.22.22 0 0 1 .28 0l.33.3c.08.06.08.18 0 .25l-.3.27a.17.17 0 0 0-.07.13v.4c0 .04.02.1.06.13l.31.27c.08.07.08.19 0 .26l-.33.29a.22.22 0 0 1-.28 0l-.33-.3a.17.17 0 0 1 0-.25l.3-.27a.17.17 0 0 0 .07-.13v-.4c0-.05-.02-.1-.06-.13l-.3-.27a.17.17 0 0 1 0-.26l.32-.29Z" fill="url(#a)"/><path fill-rule="evenodd" d="M8.82 3.34c0 .1-.08.17-.17.17a.17.17 0 0 1-.18-.17c0-.1.08-.17.18-.17.1 0 .17.08.17.17Zm.13.17a.35.35 0 0 1-.3.18.36.36 0 0 1-.29-.14 5.72 5.72 0 0 0-5.18 5.62c0 1.46.56 2.78 1.5 3.79l.08-.02c.2 0 .36.16.36.35l-.01.09A5.9 5.9 0 0 0 9 14.83a5.9 5.9 0 0 0 3.9-1.45.33.33 0 0 1-.02-.1c0-.18.16-.34.36-.34.03 0 .06 0 .09.02a5.55 5.55 0 0 0 .76-6.53.17.17 0 0 1-.15-.17c0-.1.08-.17.18-.17.1 0 .17.07.17.17 0 .04 0 .07-.03.1a5.67 5.67 0 0 1-.78 6.68c.07.07.1.15.1.25 0 .19-.15.34-.34.34a.36.36 0 0 1-.25-.1A6.08 6.08 0 0 1 9 15a6.08 6.08 0 0 1-3.99-1.47.36.36 0 0 1-.25.1.35.35 0 0 1-.35-.34c0-.1.04-.18.1-.25A5.71 5.71 0 0 1 3 9.17a5.9 5.9 0 0 1 5.3-5.79v-.04c0-.19.15-.34.35-.34.2 0 .35.15.35.34.9 0 1.77.2 2.54.55a.18.18 0 0 1 .1-.03c.1 0 .18.07.18.17s-.08.17-.17.17a.17.17 0 0 1-.18-.15 5.94 5.94 0 0 0-2.52-.54Zm4.46 9.78c0 .09-.08.17-.17.17a.17.17 0 0 1-.18-.17c0-.1.08-.18.18-.18.1 0 .17.08.17.18Zm-8.65.17c.1 0 .18-.08.18-.17 0-.1-.08-.18-.18-.18-.1 0-.17.08-.17.18 0 .09.08.17.17.17Z" fill="url(#b)"/><path fill-rule="evenodd" d="M13.76 9.17a4.68 4.68 0 0 1-4.1 4.59v.03a.36.36 0 0 0-.3-.16.35.35 0 0 0-.34.22L9 13.8a5.09 5.09 0 0 1-2.3-.51c-.1 0-.17.07-.17.17s.08.17.18.17c.06 0 .12-.04.15-.1a4.7 4.7 0 0 0 2.14.44c0 .2.16.34.35.34a.35.35 0 0 0 .35-.39 4.85 4.85 0 0 0 4.24-4.75c0-1.3-.54-2.5-1.42-3.36v-.07a.35.35 0 0 0-.34-.34l-.1.01a5.01 5.01 0 0 0-6.32.14.36.36 0 0 0-.29-.15c-.2 0-.35.15-.35.34 0 .12.06.22.15.28a4.7 4.7 0 0 0-.49 5.65.17.17 0 0 0-.02.07c0 .1.08.17.18.17.1 0 .18-.07.18-.17a.17.17 0 0 0-.2-.17 4.5 4.5 0 0 1 .55-5.48.35.35 0 0 0 .35-.37 4.83 4.83 0 0 1 6.1-.2.34.34 0 0 0-.1.22c0 .2.16.35.36.35.1 0 .2-.05.26-.12a4.54 4.54 0 0 1 1.32 3.2ZM5.47 5.91c.1 0 .18-.07.18-.17s-.08-.17-.18-.17c-.1 0-.18.08-.18.17 0 .1.08.17.18.17Zm6.88-.17c0 .1-.08.17-.17.17a.17.17 0 0 1-.18-.17c0-.1.08-.17.18-.17.1 0 .17.08.17.17Zm-2.82 8.23c0 .1-.08.17-.18.17a.17.17 0 0 1-.17-.17c0-.1.08-.17.17-.17.1 0 .18.08.18.17Z" fill="url(#c)"/><path d="M9.7 9.53c0 1.5 1.3 1.78 1.95 1.78H12V12h-.35C10.76 12 9 11.59 9 9.53S11.06 7 12 7v.69c-.7 0-2.3.33-2.3 1.84Z" fill="url(#d)" fill-opacity=".6"/><path d="M10.47 9.52c0 .9.86 1.07 1.3 1.07H12V11h-.24c-.58 0-1.76-.25-1.76-1.48C10 8.28 11.37 8 12 8v.41c-.47 0-1.53.2-1.53 1.1Z" fill="url(#e)" fill-opacity=".6"/><path d="M6.88 8.83v-.69c.41 0 1.24.24 1.24 1.2s-.83 1.2-1.24 1.2v-.68c.18 0 .53-.1.53-.52 0-.4-.35-.51-.53-.51Z" fill="url(#f)"/><path d="M6 9.51h-.7V12h1.76c.88 0 2.65-.6 2.65-2.66 0-2.05-1.84-2.53-2.78-2.53v.69c.7 0 2.07.33 2.07 1.84s-1.3 1.97-1.94 1.97H6v-1.8Z" fill="url(#g)"/><defs><linearGradient id="a" x1="6" y1="6.43" x2="6" y2="8.83" gradientUnits="userSpaceOnUse"><stop stop-color="#150B01"/><stop offset="1" stop-color="#D19F24"/></linearGradient><linearGradient id="b" x1="12.53" y1="4.71" x2="5.55" y2="14" gradientUnits="userSpaceOnUse"><stop stop-color="#11182A"/><stop offset="1" stop-color="#EAA80C"/></linearGradient><linearGradient id="c" x1="12" y1="5.57" x2="5.31" y2="12.28" gradientUnits="userSpaceOnUse"><stop stop-color="#F3B018"/><stop offset="1" stop-color="#030303"/></linearGradient><linearGradient id="d" x1="12.35" y1="8.67" x2="9.59" y2="10.98" gradientUnits="userSpaceOnUse"><stop/><stop offset="1" stop-color="#EFAA1E"/></linearGradient><linearGradient id="e" x1="13.24" y1="9.02" x2="11.56" y2="10.58" gradientUnits="userSpaceOnUse"><stop/><stop offset="1" stop-color="#EFAA1E"/></linearGradient><linearGradient id="f" x1="6.88" y1="8.66" x2="7.9" y2="10.23" gradientUnits="userSpaceOnUse"><stop stop-color="#141102"/><stop offset="1" stop-color="#EAAB10"/></linearGradient><linearGradient id="g" x1="6.35" y1="8.49" x2="9.11" y2="10.79" gradientUnits="userSpaceOnUse"><stop/><stop offset="1" stop-color="#EFAA1E"/></linearGradient></defs></svg>