<!-- by TradingView --><svg width="18" height="18" viewBox="0 0 18 18" xmlns="http://www.w3.org/2000/svg"><path fill="#01D634" d="M0 0h18v18H0z"/><path fill-rule="evenodd" d="M15 9A6 6 0 1 1 3 9a6 6 0 0 1 12 0Zm-.7 0A5.3 5.3 0 1 1 3.7 9a5.3 5.3 0 0 1 10.6 0Zm-2.6.82-3.57.95a.03.03 0 0 1-.03 0 .03.03 0 0 1 0-.02l-.26-.95a.03.03 0 0 1 .02-.03l3.5-.94a.03.03 0 0 0 .02 0V8.8l-.24-.9-.01-.02h-.02L7.6 8.8a.03.03 0 0 1-.04-.02l-.24-.87a.03.03 0 0 1 .02-.03l3.58-.96h.01l.01-.01V6.9l-.26-.98-.01-.01h-.03l-1.7.45a.03.03 0 0 1-.04-.02l-.23-.85a.03.03 0 0 0-.04-.02l-1.1.3a.03.03 0 0 0-.02.03l.23.84a.03.03 0 0 1 0 .03h-.02l-1.87.5a.03.03 0 0 0-.03.04l1.32 4.9a.03.03 0 0 0 .04.01l1.88-.5a.03.03 0 0 1 .03.03l.23.86a.03.03 0 0 0 .04.02l1.1-.3a.03.03 0 0 0 .02-.03l-.23-.86a.03.03 0 0 1 .02-.04l1.7-.45H12a.03.03 0 0 0 0-.04l-.25-.97-.02-.02h-.02Z"/></svg>