<!-- by TradingView --><svg width="18" height="18" viewBox="0 0 18 18" xmlns="http://www.w3.org/2000/svg"><path fill="#C3FF01" d="M0 0h18v18H0z"/><path d="M14 6.73a.14.14 0 0 0-.04-.07l-.02-.01a.17.17 0 0 0-.07-.04l-.09.01-2.42.87a.16.16 0 0 0-.04.03h-.01a.14.14 0 0 0-.03.05l-.45.99-1.02-4.72v-.02l-.16-.7A.15.15 0 0 0 9.52 3a.17.17 0 0 0-.16.06l-4.03 5.5-.02.03V8.66c0 .03 0 .04.02.06l.84 1.3-1.4-.82a.18.18 0 0 0-.17 0c-.05.02-.1.07-.1.12v1.93a.13.13 0 0 0 .02.06c0 .02.02.03.04.05l4.83 3.61.03.02h.01a.22.22 0 0 0 .03.01.18.18 0 0 0 .05 0h.04a.15.15 0 0 0 .03-.02h.01l.01-.01.03-.03.96-1.3 1.3-1.75.63-.85a.13.13 0 0 0 0-.16.17.17 0 0 0-.16-.06l-.47.08 2.1-4.07v-.09ZM4.85 9.58l.19.11.17.88-.36.33V9.58Zm.05 1.65.48-.4 2.67 2.75-3.15-2.35Zm1.9-.83L5.68 8.7l1.52-.75.22.71 1.58 5.16-2.22-3.42Zm.4-2.77-1.25.6 3.46-4.71.07.33L7.2 7.63Zm4.84 3.53-.34.45-.6-.28.54-.1.4-.07Zm-1.2-.68.1-1.38.54-1.21.43.42-1.07 2.17Zm2.46-3.03-.27.15-.9.5-.43-.42 1.82-.65-.22.42Z"/></svg>