<!-- by TradingView --><svg width="18" height="18" viewBox="0 0 18 18" xmlns="http://www.w3.org/2000/svg"><path fill="#181B1E" d="M0 0h18v18H0z"/><path d="M10.19 4c.32.52.54 1.08.66 1.69.01.05 0 .08-.04.1-.05-.01-.12 0-.21.04a6.26 6.26 0 0 0-.4-1.55 1.5 1.5 0 0 0-.63-.74l-.59-.51C8.95 3 8.95 2.99 9 3c.47.24.87.57 1.2.99ZM6.03 3.07c.54.31 1 .65 1.36 1.03a4.14 4.14 0 0 1 1.04 1.84l.03-.01v-.19c0-.04.03-.06.07-.06l.6.03c.27.14.44.29.52.44l-.73.01c-.23 0-.56.1-1 .31v.03l.01.01h.02c.3-.15.57-.23.78-.22.64.08 1.2.25 1.7.51l.24.2c.08.07.17.13.28.18a1.63 1.63 0 0 1-.03.7h-.02a.03.03 0 0 1-.03 0 2.23 2.23 0 0 0-2.01-.65c-.5.08-.89.28-1.17.58-.1.13-.16.27-.2.42a.6.6 0 0 0 0 .37l.11.35c.09.84 1.3 1.08 1.94 1.05.29-.01.54-.12.79-.27.04-.03.05-.06.05-.1l.13-.1.03-.02.04.01.03.03v.04c-.08.37-.31.57-.68.6l-.01.01v.03c0 .02 0 .02.03.02.3-.04.65-.24.72-.58V9.5c-.01-.06.01-.11.06-.18V9.3a.16.16 0 0 1-.02-.02l-.01-.01h-.02a1.2 1.2 0 0 1-.5.29c-.1.03-.19.05-.25.08a.93.93 0 0 1-.26.06c-.73.07-1.71-.2-2.07-.94-.06-.12-.04-.14.07-.06.78.6 1.78.74 2.72.55.2-.08.37-.04.5.1.06.23.2.42.43.57.44.28.85.32 1.24.12a1.47 1.47 0 0 0 .8-.3s0-.02-.02-.03h-.04c-.57.25-1.45.26-1.98-.1-.2-.13-.18-.16.04-.1.15.05.36.08.62.1l1.43.04-.01.13c0 .03-.02.06-.04.08-.28.3-.62.44-1.03.43h-.04l-.02.03c-.01.03 0 .05.02.06a.88.88 0 0 1 .4.32.04.04 0 0 1 0 .03h-.02c-1.28.62-2.67.12-3.96-.17-.25-.05-1.1-.15-1.34.13-.05 0-.07-.05-.05-.13.13-.61.11-1.2-.08-1.78a4.12 4.12 0 0 1-.18-.7c-.07-.8.19-1.46.78-1.95.08-.07.22-.11.3-.15l.02-.03V5.9a3.83 3.83 0 0 0-.98-1.83c-.3-.3-.66-.57-1.06-.8-.08 0-.16-.04-.22-.14.04.01.08-.01.13-.07Z" fill="#7440B9"/><path d="M7.37 10.69a.62.62 0 0 0-.1.39c.04.22.16.35.34.38.35.3.76.54 1.25.73l-.9-.16c-.99-.23-2.5-1-2.5-2.12l.01-.03.01-.01a.04.04 0 0 1 .05 0 1.03 1.03 0 0 0 .91 0l-.02-.03a.04.04 0 0 0-.05-.01c-.6.2-1.08-.1-1.48-.58-.5-.64-1.02-1.76-.86-2.63a.08.08 0 0 1 .03-.05.07.07 0 0 1 .07-.01 4.03 4.03 0 0 1 2.35 1.89l.02-.01c.01 0 .02-.02.01-.03a3.8 3.8 0 0 0-.73-.96.1.1 0 0 1-.03-.06l.01-.07c.4-.71 1-1.2 1.78-1.46.05-.02.08 0 .08.05V6.03H7.68a2 2 0 0 0-.08-.6c-.21-.66-.32-1-.75-1.44a22.8 22.8 0 0 0-.73-.7 3.83 3.83 0 0 1 2.04 2.67l-.02.02c-.08.04-.22.08-.3.15-.6.5-.85 1.14-.78 1.95 0 .11.07.35.18.7.19.57.21 1.17.08 1.78-.02.08 0 .12.05.13ZM10.6 5.83h-.38c-.03 0-.05-.01-.05-.05.01-.45-.03-.89-.12-1.32a1.36 1.36 0 0 0-.3-.62.66.66 0 0 1-.18-.3c.29.18.5.42.63.74.19.47.32.98.4 1.55Z" fill="#432684"/><path d="M9.98 6.04c.1.1.2.19.27.29.05.07.04.09-.05.06l-.55-.24c-.08-.15-.25-.3-.52-.44.33.03.6.14.85.33Z" fill="#A95ED5"/><path d="m10.84 5.84.2.04a.1.1 0 0 0 0 .02c0 .03 0 .04.03.04.46.08.82.32 1.08.7a2.9 2.9 0 0 0-1 .12c-.04.01-.06.03-.08.06-.01.04 0 .05.04.03.3-.13.54-.17.74-.1.73.08 1.22.37 1.47.89-.7-.29-1.62-.36-2.21.14-.09.07-.12.05-.1-.06.13-.57-.13-.84-.52-1.17-.04-.04-.1-.12-.17-.24a1.08 1.08 0 0 0-.27-.3c0-.03 0-.04.02-.05.22-.05.48-.09.77-.12Z" fill="#7440B9"/><path d="M12.36 6.55c.08.07.01.1-.21.1-.26-.4-.62-.63-1.08-.7-.02-.01-.03-.02-.03-.05v-.02c.53.04.97.27 1.32.67Z" fill="#A95ED5"/><path d="M10.05 6.02c.1.08.2.17.27.29.07.12.13.2.17.24.39.33.65.6.53 1.17-.03.11 0 .13.09.06.59-.5 1.52-.43 2.2-.14.05.05.13.1.26.16 0 .03-.02.05-.06.07a2.07 2.07 0 0 0-2.5.07.1.1 0 0 0-.04.06v.07c.06.08.08.17.09.26a.12.12 0 0 0 .04.09.11.11 0 0 0 .09.02c.5-.06 1-.08 1.5-.04a.18.18 0 0 0-.04.09l-1.53.05c-.04 0-.06.02-.06.06-.03.18-.1.35-.2.5-.01.03-.01.05.02.07.32.22.67.34 1.05.37l.05.07a2.88 2.88 0 0 1-.62-.1c-.22-.06-.23-.03-.04.1.53.36 1.41.35 1.98.1h.04c.02.01.02.03.02.04v.01c-.26.18-.52.27-.8.28a2.35 2.35 0 0 1-1.67-.68c-.13-.15-.3-.19-.5-.11l-.01-.1c.37-.01.57-.23.57-.64a.09.09 0 0 0-.04-.08.7.7 0 0 0-.34-.11l-.77-.07c-.33-.05-.67.05-1.01.08l-.02-.08a5.05 5.05 0 0 1 2.15.05c.03.01.05 0 .04-.04-.3-1.02-1.9-1.17-2.67-.77-.21.06-.4.18-.54.36a.15.15 0 0 0-.06-.04c.28-.3.67-.5 1.17-.58a2.23 2.23 0 0 1 2.03.66h.01l.02-.01v-.02c.06-.26.07-.49.03-.68a1.72 1.72 0 0 0-.75-.72c-.46-.24-.95-.3-1.47-.17-.21 0-.47.07-.78.22h-.02l-.02-.01v-.03c.45-.21.78-.32 1.01-.31h.73l.55.23c.09.03.1.01.05-.06-.07-.1-.16-.2-.27-.29a.16.16 0 0 1 .07-.02Z" fill="#121220"/><path d="M10.94 7.18a.98.98 0 0 1-.27-.18l-.25-.2a4.67 4.67 0 0 0-1.69-.5c.52-.13 1-.08 1.47.16.32.16.57.4.74.72ZM13.57 7.8a.63.63 0 0 1-.25-.16c-.25-.52-.74-.81-1.47-.9.45-.09.86 0 1.24.29.24.19.4.45.48.77Z" fill="#A95ED5"/><path d="M8.77 8.25c-.28.08-.57.1-.88.07.07-.3.2-.58.4-.83.76-.4 2.37-.25 2.67.77 0 .04 0 .05-.04.04a5.05 5.05 0 0 0-2.15-.05Z" fill="#7440B9"/><path d="M8.29 7.5c-.2.24-.33.52-.4.82-.09 0-.18-.01-.27-.04-.03-.01-.05-.03-.04-.07a.61.61 0 0 1 .17-.36c.15-.18.33-.3.54-.36Z" fill="#432684"/><path d="M13.51 7.87c.3.26.46.56.46.9v.02l-.02.02a.04.04 0 0 1-.05 0 2.85 2.85 0 0 0-1.2-.41 7.59 7.59 0 0 0-1.56.04.11.11 0 0 1-.07-.06.12.12 0 0 1-.01-.05c0-.1-.03-.18-.08-.26a.1.1 0 0 1-.01-.07.1.1 0 0 1 .04-.06c.82-.59 1.65-.61 2.5-.07Z" fill="#7440B9"/><path d="M7.75 7.85c-.1.1-.16.23-.17.36 0 .04 0 .06.04.07.1.03.18.04.27.04.3.03.6.01.88-.07l.02.08c-.41.11-.77.13-1.1.05-.23-.05-.26 0-.07.17a2.74 2.74 0 0 0 .92.53v-.01l.01-.01c.14-.98 1.74-.97 1.83.1l.01.09c-.94.19-1.94.05-2.72-.55-.1-.08-.13-.06-.07.06.36.74 1.34 1 2.07.94.1-.01.18-.03.26-.06.06-.03.15-.05.25-.08a1.2 1.2 0 0 0 .5-.29.02.02 0 0 1 .03 0v.01l.02.02v.02a.27.27 0 0 0-.07.18l.01.17c-.07.34-.42.54-.72.58-.02 0-.03 0-.03-.02v-.03c.38-.04.6-.24.69-.6v-.05a.07.07 0 0 0-.03-.03.06.06 0 0 0-.07 0l-.13.11c-.1-.03-.15.03-.22.05-.98.3-1.9.05-2.56-.73a4.15 4.15 0 0 1-.12-.35.6.6 0 0 1 0-.37c.05-.15.12-.29.2-.42.03.01.06.02.07.04Z" fill="#080508"/><path d="M10.38 9.16c-.09-1.07-1.7-1.08-1.83-.1v.01l-.01.01h-.02a2.74 2.74 0 0 1-.9-.53c-.19-.17-.16-.22.08-.17.32.08.68.06 1.09-.05.34-.03.68-.13 1.01-.08l.77.07a.7.7 0 0 1 .34.1c.03.03.04.05.04.09 0 .41-.2.63-.57.65ZM12.65 8.49c.67.03 1.12.24 1.35.63-.1.27-.22.39-.38.36.06-1.18-1.7-1.21-1.65 0l-.01.03-.03.03a2.13 2.13 0 0 1-1.05-.37c-.03-.02-.03-.04-.01-.07.1-.15.16-.32.19-.5 0-.04.02-.06.06-.06l1.53-.05Z" fill="#00F3D6"/><path d="M13.62 9.48c-.08.11-.15.16-.21.17l-1.43-.04a.17.17 0 0 0-.05-.07l.03-.03v-.03c-.03-1.21 1.72-1.18 1.66 0Z" fill="#080508"/><path d="M10.38 9.63c0 .04-.01.07-.05.1-.25.15-.5.26-.8.27-.63.03-1.84-.2-1.93-1.05a2.33 2.33 0 0 0 2.56.73c.07-.02.11-.08.22-.05ZM12.56 10.04c-.39.2-.8.16-1.24-.12a.98.98 0 0 1-.43-.56c.44.43 1 .66 1.67.68Z" fill="#432684"/><path d="M10.82 11.74a.65.65 0 0 0-.19.22h-.01l-.36-.61c-.02-.03-.01-.04.02-.03l.32.09c.04.01.06.03.08.07l.14.26Z" fill="#E28226"/><path d="m10.67 12.2.02.04c.01.04 0 .05-.03.06a7.5 7.5 0 0 1-1.8-.11c-.49-.19-.9-.43-1.25-.73.65.03 1.08.08 1.28.14.51.16 1.03.27 1.55.34.03 0 .06.02.08.05l.15.21Z" fill="#7440B9"/><path d="m10.82 11.74.98 1.49c-.14.12-.24.12-.3.01a13.18 13.18 0 0 0-.66-1.06c-.04-.03-.05-.06-.03-.09a.28.28 0 0 0-.04-.07.28.28 0 0 1-.14-.06c.04-.07.1-.14.19-.22Z" fill="#E9E5DF"/><path d="m9.84 13.94-.7.06c-.14-.77-.58-1.04-1.3-.83a.8.8 0 0 0-.54.56l-1.03-.45c.1-.35.3-.56.6-.63l.81-.1c.04 0 .06.02.05.06l-.03.14.01.03h.04c.11-.21.16-.43.16-.66l.46.1c.02 0 .04 0 .05.02l.02.06-.05.59c0 .02 0 .03.03.03h.03l.02-.01v-.16c0-.05.02-.07.07-.06.4.08.7.23.88.43.15.17.3.45.42.82Z" fill="#7440B9"/><path d="M9.15 14a5.35 5.35 0 0 1-1.85-.27.8.8 0 0 1 .54-.56c.72-.21 1.16.06 1.3.83Z" fill="#A95ED5"/><path d="M6.2 9.51c-.16-.15-.22-.27-.2-.38.02-.03.03-.06.06-.07l.12-.07c.04-.03.05-.06.03-.1l-.26-.46a.06.06 0 0 0-.04-.03c-.37-.08-.6.07-.67.45h-.03c-.02 0-.03-.01-.02-.03.05-.35.24-.52.56-.5.09.01.1-.02.05-.08-.38-.48-.9-.9-1.55-1.26.33.12.62.28.9.49.22.17.44.4.66.65.22.26.38.53.48.82V9l-.04.04-.15.09a.07.07 0 0 0-.02.02.07.07 0 0 0 .01.1c.05.04.08.13.1.26Z" fill="#121311"/><path d="M6.2 9.51c-.47.02-.86-.15-1.16-.51a3.78 3.78 0 0 1-.79-2.02c.65.36 1.17.78 1.55 1.26.05.06.04.1-.05.09-.32-.03-.5.14-.56.49 0 .02 0 .03.02.03h.03c.08-.38.3-.53.67-.45a.06.06 0 0 1 .04.03l.26.46c.02.04.01.07-.03.1l-.12.07a.12.12 0 0 0-.05.07c-.03.1.03.23.19.38Z" fill="#2E1B5F"/><path d="M7.81 10.91v.04h.03c.23-.05.5-.04.78.06a5.2 5.2 0 0 0 1.56.33l.28.5v.02h-.01c-.51-.07-1.02-.19-1.52-.33-.17-.05-.6-.1-1.26-.16-.21-.02-.32-.14-.32-.37V11c0-.23.11-.36.34-.38a3.3 3.3 0 0 1 1.1.05c1.22.3 2.11.58 3.21.4.27-.05.53-.21.84-.24.16 0 .22.07.17.23v.05c-.06.16-.16.26-.33.28-.56.07-1 .09-1.32.05-.48-.05-.98-.19-1.5-.22a2.75 2.75 0 0 1-.55-.08c-.4-.13-1.28-.43-1.5-.22Z" fill="#A13FB7"/><path d="M11.11 11.95a.2.2 0 0 1-.16-.11l-.18-.34c-.03-.06-.02-.08.04-.07.5.1 1.06.12 1.7.05a.1.1 0 0 1 .07.02c.03.02.04.04.05.07.06.33-.3.53-.56.5l-.96-.12Z" fill="#A13FB7"/><path d="m11.18 12.04.56.09c.07 0 .07.02 0 .04l-.41.1c-.05 0-.08 0-.1-.05l-.08-.14c-.02-.03 0-.04.03-.04Z" fill="#7440B9"/></svg>