<!-- by TradingView --><svg width="18" height="18" viewBox="0 0 18 18" xmlns="http://www.w3.org/2000/svg"><path fill="url(#a1whgp4pp)" d="M0 0h18v18H0z"/><path d="M10.11 6.54c.01.04.01.06 0 .07a.09.09 0 0 1-.1 0 18.8 18.8 0 0 0-1-.47.45.45 0 0 1-.12-.04.3.3 0 0 0-.2-.02c-.1.02-.14.09-.14.2a13.13 13.13 0 0 1 .03.76v.27a9.5 9.5 0 0 0 0 1.69c-.58.03-1.15.03-1.71 0-.05-.03-.07-.08-.04-.15a.53.53 0 0 0 .03-.18 30.26 30.26 0 0 1 0-1.99 38.8 38.8 0 0 1 .01-1.55c0-.08-.04-.13-.11-.17a10.62 10.62 0 0 0-1.03-.45c-.05-.02-.1 0-.13.03a.24.24 0 0 1-.07.06.54.54 0 0 1-.13.06.08.08 0 0 0-.04.03c-.05.07-.1.1-.14.1l-.21-.75C4.99 4 5 3.99 5.05 4l5.06 2.53Z" fill="#89D7F1"/><path d="M6.87 9a.35.35 0 0 0-.28.04.5.5 0 0 1-.18-.04L5.22 4.8c.04 0 .09-.03.14-.1a.08.08 0 0 1 .04-.03.54.54 0 0 0 .13-.06.24.24 0 0 0 .07-.06c.03-.04.08-.05.13-.03.05.01.1.04.13.07a.1.1 0 0 0 .06.02c.08.02.16.04.23.08.03.02.05.03.08.03.03.01.06.03.07.05.02.02.03.03.05.03h.02a10.62 10.62 0 0 1 .39.17c.07.04.11.1.11.17a20295.87 20295.87 0 0 1-.04 3.72c-.03.07-.01.12.04.15ZM10.11 6.54 15 8.98v.03a.31.31 0 0 1-.14.07.81.81 0 0 0-.41-.09c-.77.02-1.55.02-2.32.02A129 129 0 0 0 9.34 9h-.76a9.5 9.5 0 0 1 0-1.96 6.05 6.05 0 0 1-.03-.76c0-.11.05-.18.15-.2a.3.3 0 0 1 .2.02l.1.04c.05 0 .09.02.12.03.31.14.6.29.9.44.03.02.06.02.09 0 .01-.01.01-.03 0-.07Z" fill="#5BCFF0"/><path d="m14.85 9.08-.26.13-.08-.03a.07.07 0 0 0-.04-.04h-.06a42.23 42.23 0 0 0-.77.2 202.77 202.77 0 0 0-4.46.99.17.17 0 0 1-.12-.01L6.78 9.18a.98.98 0 0 1-.19-.14.35.35 0 0 1 .28-.04 194.16 194.16 0 0 1 5.25 0h2.32c.16-.01.3.02.4.08Z" fill="#3FB2E4"/><path d="M6.41 9c.05.02.11.04.18.04.09.08.15.12.19.14l2.28 1.14c.04.02.08.02.12.01a25.46 25.46 0 0 1 1.48-.33 53.25 53.25 0 0 1 1.38-.32 203.22 203.22 0 0 1 1.99-.44 41.9 41.9 0 0 1 .44-.1l.04.04.08.03-5.22 2.62a.12.12 0 0 0-.02-.04h-.03l-.62.27a.1.1 0 0 1-.1 0c-.03-.02-.04-.05-.04-.08-.01-.35 0-.7.02-1.03 0-.1-.03-.1-.1-.04l-1.55 1.42a.1.1 0 0 1-.03.02H6.9c-.03-.02-.03-.02-.02 0l.04.09v.04c-.1.18-.2.22-.31.13l-.3-.48c0-.02 0-.03.03-.04l.28-.06c.04 0 .08-.03.12-.06a.36.36 0 0 1 .11-.05c.02 0 .04-.02.04-.04v-1.22c0-.06-.04-.09-.1-.09l-.58.03c-.02 0-.03 0-.04.02l-.04.07c-.06.13-.11.22-.15.27a.21.21 0 0 0-.05.11l-.02.1c-.02.02-.03.02-.05 0a.06.06 0 0 0-.04-.03L6.41 9Z" fill="#2D90B6"/><path d="M6.6 12.6c-.07.1-.16.2-.27.3l-.2.17c-.06.07-.13.13-.2.17-.02.01-.02.02 0 .02l.11.05c.02.02.04.02.06.02l.18-.05.04.01c.01.01.02.03.01.06L5.04 14h-.03v-.03l.8-2.83.04.02c.02.03.03.03.05 0a.32.32 0 0 0 .02-.09c0-.05.02-.09.05-.11a1.33 1.33 0 0 0 .2-.34c0-.02.01-.02.03-.02l.57-.03c.07 0 .1.03.1.09v1.22c0 .02 0 .03-.03.04a.36.36 0 0 0-.1.05.4.4 0 0 1-.13.06l-.28.06c-.03 0-.04.02-.02.04l.29.48Z" fill="#49A1A3"/><path d="m9.37 11.83-3.03 1.52-.02-.06a.04.04 0 0 0-.04-.01l-.18.05c-.02 0-.04 0-.06-.02a.25.25 0 0 0-.11-.05c-.02 0-.02 0 0-.02.07-.04.14-.1.2-.17l.2-.18c.11-.1.2-.19.27-.28.1.1.21.05.31-.13v-.04a1.33 1.33 0 0 1-.04-.08c-.01-.03 0-.03.02-.01h.01l.03-.02 1.55-1.42c.07-.07.1-.06.1.04-.02.33-.03.68-.02 1.03 0 .03.01.06.04.07a.1.1 0 0 0 .1 0 16.48 16.48 0 0 0 .65-.26l.02.04Z" fill="#38A2BF"/><defs><linearGradient id="a1whgp4pp" x1="3.35" y1="3.12" x2="21.9" y2="24.43" gradientUnits="userSpaceOnUse"><stop stop-color="#1A1E21"/><stop offset="1" stop-color="#06060A"/></linearGradient></defs></svg>