<!-- by TradingView --><svg width="18" height="18" viewBox="0 0 18 18" xmlns="http://www.w3.org/2000/svg"><path fill="url(#ajunokqdf)" d="M0 0h18v18H0z"/><circle cx="9" cy="9" r="5" fill="url(#bjunokqdf)"/><path fill-rule="evenodd" d="M9 13.69A4.69 4.69 0 1 0 9 4.3a4.69 4.69 0 0 0 0 9.38ZM9 14A5 5 0 1 0 9 4a5 5 0 0 0 0 10Z" fill="url(#cjunokqdf)"/><path fill-rule="evenodd" d="M9 11.93a2.93 2.93 0 1 0 0-5.86 2.93 2.93 0 0 0 0 5.86ZM9 12a3 3 0 1 0 0-6 3 3 0 0 0 0 6Z" fill="#575757"/><path d="M10.25 7.44H8.37v1.25h-.93v1.87h2.81v-.31h-2.5V9h.63v.63h.3V9h.63v-.31H8.7v-.94h1.56v-.31Z" fill="#535353"/><path d="M8.34 7.4h1.94v.38H8.72v.88h.62v.37h-.62v.63h-.38v-.63h-.56v1.19h2.5v.37H7.41V8.66h.93V7.4Zm.07.07v1.25h-.94v1.81h2.75v-.25h-2.5V8.97h.69v.62h.25v-.62h.62v-.25h-.62v-1h1.56v-.25H8.4Z" fill="url(#djunokqdf)"/><defs><linearGradient id="ajunokqdf" x1="3.35" y1="3.12" x2="21.9" y2="24.43" gradientUnits="userSpaceOnUse"><stop stop-color="#1A1E21"/><stop offset="1" stop-color="#06060A"/></linearGradient><linearGradient id="bjunokqdf" x1="5.88" y1="4.47" x2="12.13" y2="12.59" gradientUnits="userSpaceOnUse"><stop stop-color="#E1E1E1"/><stop offset="1" stop-color="#333"/></linearGradient><linearGradient id="cjunokqdf" x1="5.88" y1="4.47" x2="11.97" y2="13.06" gradientUnits="userSpaceOnUse"><stop stop-color="#8C8C8C"/><stop offset="1" stop-color="#B5B5B5"/></linearGradient><linearGradient id="djunokqdf" x1="8.38" y1="7.44" x2="9.47" y2="10.56" gradientUnits="userSpaceOnUse"><stop stop-color="#EBEBEB"/><stop offset="1" stop-color="#3D3D3D"/></linearGradient></defs></svg>