<!-- by TradingView --><svg width="18" height="18" viewBox="0 0 18 18" xmlns="http://www.w3.org/2000/svg"><path fill="#181B1E" d="M0 0h18v18H0z"/><path d="M9.9 5.4a.82.82 0 0 1-.3.39.14.14 0 0 0-.06.09.38.38 0 0 1-.08.17c-.02.04-.05.04-.1.02-.07-.05-.1-.06-.08-.01-.6-.37-1.45-.33-2.17-.26-.43.04-.72.21-.89.51a.17.17 0 0 0-.08-.02c-.4-.41-1.5-.75-1.72.05l.11.38v.1c-.04.07 0 .13.08.18-.06.1-.15.1-.26-.01a.14.14 0 0 0-.1-.04c-.3 0-.45.15-.43.46 0 .05.03.07.08.06.06-.01.1-.06.14-.14.01-.04.04-.04.07-.02.16.1.32.16.48.18.02.01.04.04.05.09a.14.14 0 0 1-.07.04c-.02.01-.05.01-.07 0-.37-.15-.8-.19-.76.36.02.32 0 .64-.06.95L3.65 7.9l.11-.94.16-.55c.04-.16 0-.3-.14-.38l.46-.69c.54.03 1.07.08 1.6.17.24.04.47.04.68.01a9.07 9.07 0 0 1 2.33-.05c.32.04.7-.05 1.05-.07Z" fill="#3C1D25"/><path d="m9.28 6.06-.16.3a4.56 4.56 0 0 0-1.87.1c-.11-.1-.24-.17-.39-.22-.03 0-.06 0-.07.04a.22.22 0 0 1-.2.15.57.57 0 0 1-.37-.12c.17-.3.46-.47.89-.5.72-.08 1.57-.12 2.17.25ZM6.14 6.29l-.24.18c-.48-.16-.97-.2-1.48-.13.23-.8 1.32-.46 1.72-.05Z" fill="#581D27"/><path d="M3.78 6.03c.14.09.18.22.14.38l-.16.55a.5.5 0 0 0-.06-.2.09.09 0 0 0-.09-.04l-.17.01.34-.7ZM14.93 8.28h-.15a.11.11 0 0 1-.08-.08c-.06-.2-.13-.38-.23-.55a.18.18 0 0 1-.02-.13c0-.03.02-.05.05-.08.02-.03.03-.06 0-.09a1.4 1.4 0 0 0-.23-.36.98.98 0 0 1-.25-.22c-.03-.04-.02-.06.03-.06h.27c.03.01.04 0 .03-.03l-.04-.06a.04.04 0 0 0-.02-.02.65.65 0 0 1-.28-.1c-.04-.03-.04-.06 0-.09.02-.02.06-.03.12-.03l.14-.21c.36.65.58 1.36.66 2.11ZM5.9 6.47c-.06.2-.06.4 0 .61a.06.06 0 0 1-.02.06.06.06 0 0 1-.06.01l-.66-.22c-.04 0-.06 0-.08.04l-.12.23a.29.29 0 0 0-.32-.05L4.61 7c-.09-.05-.12-.11-.09-.17a.14.14 0 0 0 .01-.1l-.11-.39c.5-.08 1-.03 1.48.13ZM9.12 6.36c-.05.1-.06.18-.03.24.07.13.04.17-.1.11-.02 0-.05.02-.08.1a1.81 1.81 0 0 0-1.65.25v-.6c.6-.16 1.22-.2 1.86-.1Z" fill="#8C1927"/><path d="M6.78 8.08a.47.47 0 0 0-.04.28l-.78.16-.03-.93V6.6a.14.14 0 0 1 .1-.13l.1-.04c.07-.03.1 0 .06.07l-.12.25c-.03.05-.02.06.03.03l.6-.34a.07.07 0 0 1 .1.06l-.02 1.58Z" fill="#544B5B"/><path d="M8.9 6.8c0 .07-.02.11-.06.13-.33.15-.8.33-1.4.55-.03.01-.04.06-.04.13v.8c-.06.02-.1.01-.13-.01a.17.17 0 0 1-.05-.13l.04-1.21A1.81 1.81 0 0 1 8.9 6.8Z" fill="#B91827"/><path d="m3.76 6.96-.1.94c-.15-.07-.25-.07-.33-.02a.12.12 0 0 0-.06.1l-.07.49V7.5l.24-.78.17-.01c.04 0 .07.01.1.05a.5.5 0 0 1 .05.19Z" fill="#DA1521"/><path d="m4.61 7 .03.15a.7.7 0 0 1-.05.34 1.13 1.13 0 0 1-.48-.18c-.03-.02-.06-.02-.07.02-.03.08-.08.13-.14.14-.05.01-.08 0-.08-.06-.02-.31.12-.47.44-.46.03 0 .07.01.1.04.1.1.19.11.25.01Z" fill="#B05B26"/><path d="m4.96 7.2-.23.39-.09-.01c-.01-.05-.03-.08-.05-.09a.7.7 0 0 0 .05-.34.29.29 0 0 1 .32.05Z" fill="#DA1521"/><path d="M8.07 9.08c-.18-.12-.16-.43-.15-.62a.1.1 0 0 0-.05-.1l-.18-.1a.08.08 0 0 0-.09 0 .1.1 0 0 1-.04.02.07.07 0 0 1-.08-.06l-.04-.6c.03-.05.05-.07.07-.08.27-.09.5-.17.69-.25.04-.02.05 0 .04.04-.12.27-.1.53.04.79.02.03.03.07.02.11-.02.14.03.24.15.3a.08.08 0 0 1 .02.12l-.4.43Z" fill="#5C4547"/><path d="M4.64 7.58h.1L4.7 11.1h-.1c-.03 0-.05-.02-.05-.06v-.56a.13.13 0 0 0-.06-.1.41.41 0 0 1-.17-.26.3.3 0 0 0-.03-.1l-.22-.38a.12.12 0 0 0-.1-.06c-.12 0-.22.05-.3.16-.06-.3-.05-.58 0-.81.07-.31.09-.63.07-.95-.03-.55.4-.5.76-.36h.08c.02 0 .04-.02.06-.04Z" fill="#B05B26"/><path d="m5.93 7.6.03.92-.01.74c-.14.08-.21.08-.24 0l.03-1.54c0-.04.02-.07.05-.08l.14-.05Z" fill="#8C1927"/><path d="m3.65 7.9.03 1.03c-.06.23-.07.5-.02.81-.04.17-.06.33-.07.5 0 .16-.08.25-.13.4-.02.05-.04.06-.06.01v-.12c.04-.31.05-.6.04-.89a.1.1 0 0 0-.06-.08l-.13-.08a.1.1 0 0 1-.05-.1v-.91l.07-.5c0-.03.02-.06.06-.09.08-.05.18-.05.32.02Z" fill="#FB5922"/><path d="m6.78 8.08.44.19c0 .05.01.1.05.13.02.02.07.03.13.01l-.02.77-.08.16a.12.12 0 0 1-.09.07.9.9 0 0 1-.39 0l-.08-1.05c-.02-.11 0-.2.04-.28Z" fill="#5C4547"/><path d="m6.74 8.36.08 1.05-.39.2-.08-.02c-.04-.01-.07 0-.09.05a.85.85 0 0 0-.03.43.39.39 0 0 1-.18.15c-.03.01-.06 0-.08-.03l-.14-.2.02-.53a.1.1 0 0 1 .06-.08.66.66 0 0 1 .26-.06c.05 0 .07.02.07.07v.13c.02.07.04.07.05 0l.02-.18c.01-.05 0-.07-.05-.08a.94.94 0 0 0-.31 0l.01-.74.78-.16Z" fill="#935E49"/><path d="M9.48 9.5c0 .08-.05.14-.14.2l-.33-.09c-.04 0-.06 0-.07.04-.14.35-.08.68-.06 1.04-.1.1-.18.13-.25.12l.04-1.35a.08.08 0 0 0-.06-.08.64.64 0 0 0-.39.02l.34-.54c.02-.04.05-.05.1-.04l.22.08c.04.01.07.03.1.06.14.18.54.23.5.54Z" fill="#C67443"/><path d="M5.83 9.99c-.28.13-.37.36-.28.7a.1.1 0 0 1-.07.12c-.14.05-.3.03-.5-.05-.07-.42-.06-.84.02-1.26a.1.1 0 0 1 .08-.07l.63-.17c.03.08.1.08.24 0 .1-.02.2-.02.3 0 .05 0 .07.03.06.08l-.02.17c-.01.08-.03.08-.05 0V9.4c0-.05-.02-.08-.07-.07a.67.67 0 0 0-.26.06.1.1 0 0 0-.06.08l-.02.53ZM9.61 10.14c.07-.29-.02-.44-.27-.45.09-.05.13-.11.14-.2l.01.07c.02.03.05.04.09.03.06-.02.11 0 .15.04.03.03.06.04.1.01l.03-.08c0-.06.04-.09.1-.08.07 0 .12.01.15.03.06.03.08.07.06.13l-.08.41c-.01.04-.03.06-.06.08l-.2.1c-.08.04-.15 0-.22-.1Z" fill="#65504B"/><path d="M6.43 9.6c0 .02 0 .02-.02.03.05 0 .1 0 .16-.03.04-.02.06 0 .05.04-.02.29-.15.43-.39.43a.85.85 0 0 1 .03-.43c.02-.04.05-.06.09-.05l.08.01Z" fill="#5C4547"/><path d="M14.04 12.22c.03-.7.28-1.35.74-1.94a3.34 3.34 0 0 1-.56 1.62.13.13 0 0 0-.05.08.53.53 0 0 1-.13.24Z" fill="#4DD2EF"/><path d="M9.88 11.4c.14-.04.27-.11.4-.2.03-.02.05-.02.05.02a.8.8 0 0 1-.06.46c-.13.2-.22.4-.28.64a.08.08 0 0 1-.07.06c-.3.05-.58-.04-.85-.26l.85-1.44h.02l.03.01a.01.01 0 0 1 .01.02c-.25.34-.36.72-.35 1.15 0 0 0 .01 0 0h.03c.02-.18.1-.34.22-.46ZM13.3 11.97l-1.95.85v-1.1l.26-.17a.16.16 0 0 1 .1-.03c.08 0 .16-.05.23-.18.05-.08.11-.1.2-.05l.59.38c.06.08.11.1.16.08.1-.08.15-.17.13-.28l.32-.52c.16-.26.2-.25.13.05-.07.28-.13.6-.18.97Z" fill="#7BDCEE"/><path d="M6.16 11.61c-.24-.25-.5-.44-.78-.56.13-.12.28-.17.45-.07.3.18.4.4.33.63Z" fill="#01C9BD"/><path d="m10.15 12.14.12-.46a.8.8 0 0 0 .06-.46c0-.04-.02-.04-.05-.02-.13.09-.26.16-.4.2.08-.14.2-.27.39-.4.16-.11.27-.07.31.13.05.2.1.26-.04.46l-.39.55ZM13.02 11.47c.02.11-.03.2-.13.28 0-.05-.03-.1-.07-.11-.05-.03-.08-.02-.1.03l-.59-.38c-.08-.05-.14-.03-.2.05-.06.13-.14.19-.22.18-.04 0-.07 0-.1.03l-.26.18c.04-.26.19-.5.44-.71a.22.22 0 0 1 .29 0c.2.18.4.34.6.48.13.08.24.07.34-.03Z" fill="#246A81"/><path d="M5.38 11.05c.28.12.54.31.78.56a.2.2 0 0 1-.1.08.07.07 0 0 1-.08-.02l-.28-.26a.26.26 0 0 0-.1-.05.22.22 0 0 0-.1-.01.14.14 0 0 0-.07.03.11.11 0 0 0-.04.07l-.02.2c0 .03-.02.07-.05.1-.05.04-.07.1-.04.15.02.17.02.38.07.52l.06.15c.05.17.02.27-.1.29-.29-.39-.32-.82-.08-1.31a.22.22 0 0 0 .02-.12c0-.06.03-.1.08-.13.04-.02.05-.06.04-.1-.02-.08-.02-.13.01-.15Z" fill="#00756A"/><path d="m10.27 11.68-.12.46c-.46.86-.54 1.85-.69 2.8L9.2 15a3.16 3.16 0 0 1-.45-1.77c0-.03-.01-.05-.05-.05-.01 0-.03 0-.04-.03a.04.04 0 0 1 0-.03l.41-1c.27.22.55.31.85.26.03 0 .06-.02.07-.06.06-.24.15-.45.28-.64Z" fill="#4DD2EF"/><path d="M6.98 14.65a.56.56 0 0 1-.25-.1 2.13 2.13 0 0 0-.18-.6c-.13-.28-.34-.35-.6-.46-.18-.07-.21-.15-.33-.27a.09.09 0 0 0-.08-.02.09.09 0 0 0-.06.05l-.01.04a.66.66 0 0 0-.16-.43c.12-.02.15-.12.1-.29a1.4 1.4 0 0 0-.06-.15c-.05-.14-.05-.35-.07-.52.1.08.17.2.21.34.06.19.11.3.15.35.11.12.27.17.5.16a.07.07 0 0 1 .05.1.51.51 0 0 1-.26.21.04.04 0 0 0 0 .08l.09.03h.01l.38-.13c.05-.02.09 0 .1.05l.47 1.56Z" fill="#003B37"/><path d="m13.3 11.97-.2 1.39-.28.22c-.23.04-.4 0-.54-.1-.02-.03-.05-.03-.08 0-.18.23-.3.49-.36.78a2.1 2.1 0 0 1-.64.3c0-.62.04-1.2.15-1.74l1.94-.85Z" fill="#4DD2EF"/><path d="M5.32 13.74a3.69 3.69 0 0 1-.9-.85c.2-.1.4-.12.6-.07.1.02.18.1.23.26.06.2.08.43.07.66Z" fill="#004D7E"/><path d="M6.73 14.56a3.63 3.63 0 0 1-1.22-.68l-.04-.6v-.03a.09.09 0 0 1 .07-.05.09.09 0 0 1 .08.02c.12.12.15.2.33.27.26.1.47.18.6.46.09.2.15.4.18.6Z" fill="#00756A"/><path d="M12.82 13.58c-.23.21-.43.39-.7.52-.1.04-.19.1-.28.16.06-.3.18-.55.36-.78.03-.03.06-.03.08 0 .13.1.3.14.54.1Z" fill="#030608"/><path d="M11.28 5.27c-.22 0-.23.15-.37.2-.05.01-.09 0-.13-.06a.14.14 0 0 1-.02-.07v-.06a.2.2 0 0 1 .04-.07.22.22 0 0 1 .06-.05c.14-.08.3-.1.46-.04.28.1.56.13.83.11a.1.1 0 0 1 .1.05c.04.05.1.1.19.15l.01.02a.03.03 0 0 1-.01.04 1.62 1.62 0 0 1-.88.14l-.02-.01-.03-.06c0-.01 0-.02.02-.02.07 0 .12 0 .14-.04.03-.04.02-.05-.02-.05a.99.99 0 0 0-.42.08c-.03.01-.05 0-.06-.02v-.05l.13-.13c.04-.04.03-.06-.02-.06Z" fill="#022C40"/><path d="m10.6 5.35-.12.24c-.06.15-.11.14-.14 0-.02-.09.04-.19.18-.3.11-.1.14-.07.08.06ZM10.03 5.73a.24.24 0 0 1-.05-.06.1.1 0 0 1 0-.07.37.37 0 0 1 .1-.18c.04-.03.05-.03.05.03l-.04.36c0 .06-.02.06-.03 0v-.03c0-.02-.01-.04-.03-.05Z" fill="#4C7F97"/><path d="M11.71 5.9c-.1.2-.09.37.06.53a.04.04 0 0 1 .01.04.04.04 0 0 1-.03.03h-.06a1.3 1.3 0 0 0-.55-.42.17.17 0 0 0-.11 0l-1.02.3c.3-.45.7-.68 1.22-.7.1-.01.26.06.48.22Z" fill="#009282"/><path d="m9.75 6.01.01-.06c.02-.07.04-.07.06 0l.08.3a.13.13 0 0 1-.15.17l-.3-.07a.1.1 0 0 0-.1.03c-.03.03-.04.07-.05.14a.01.01 0 0 1-.01.01c-.1-.32.21-.34.4-.43a.1.1 0 0 0 .06-.09Z" fill="#4C7F97"/><path d="M8.5 8.35c.1-.1.24-.17.42-.18l.86-.04c.02 0 .04 0 .05.02l.03.03a.06.06 0 0 1 0 .06.05.05 0 0 1-.03.03l-.52.1c-.03 0-.05.03-.05.07 0 .05.02.07.06.08.43.08.78.15 1.04.22.09.03.34.04.75.04.31 0 .55-.05.73-.15.3-.16.53-.4.7-.7a.18.18 0 0 0 .03-.11c-.02-.27-.1-.53-.22-.78a.94.94 0 0 0-.36-.3.09.09 0 0 0-.13.08c.04.3-.05.5-.27.64a.1.1 0 0 0-.05.1c.01.27-.1.42-.33.45L11.18 8l-.03-.04c-.02-.02-.02-.04.02-.05.1 0 .15-.03.18-.07a.21.21 0 0 0 .03-.1.2.2 0 0 0-.02-.1.18.18 0 0 0-.06-.07.16.16 0 0 0-.1-.03.82.82 0 0 1-.4-.16c.1-.06.22-.09.36-.09.17 0 .29-.02.35-.05.22-.11.26-.28.12-.5-.3-.28-.62-.41-.96-.4a.16.16 0 0 0-.1.05c-.13.12-.24.2-.33.2-.19.02-.27-.05-.23-.22l1.02-.3.1.01c.22.09.4.23.56.42h.06a.05.05 0 0 0 .03-.03.04.04 0 0 0 0-.04c-.15-.16-.17-.34-.07-.53.13.09.26.18.38.3.16.13.24.3.4.45.03.02.04.04.05.08a.6.6 0 0 0 .12.3c.03.03.04.06.04.1-.02.26-.05.56-.1.92-.1.78-1.13 1.02-1.79.92-.5-.07-.89-.13-1.17-.19-.22-.04-.53.09-.77-.03a.82.82 0 0 1-.38-.4Z" fill="#003B37"/><path d="M10.3 6.96c.12.22.29.36.5.42.16.1.3.16.4.16.04 0 .07.01.1.03.03.01.05.04.06.07a.2.2 0 0 1 .02.1c0 .03-.01.07-.03.1-.03.04-.09.06-.18.07-.04 0-.04.03-.02.05l.03.04h.03c.23-.02.34-.17.33-.45a.1.1 0 0 1 .05-.1c.22-.12.3-.33.27-.63a.09.09 0 0 1 .13-.09c.16.08.27.18.36.31.07.34.09.67.05 1-.01.04-.03.07-.07.09a.45.45 0 0 0-.18.19.22.22 0 0 1-.08.08c-.2.14-.45.22-.72.24a6.6 6.6 0 0 1-1.72-.13c-.03-.01-.04-.03-.03-.06v-.03c.01-.03.03-.04.06-.05l.98-.13h.69l-.05.06a.12.12 0 0 0 .03.1.1.1 0 0 0 .1.03c.2-.04.32-.13.35-.25.02-.08 0-.13-.02-.16a.08.08 0 0 0-.1-.01l-.31.23-.01-.06-1.63-.24c-.4-.06-.8-.05-1.2.05-.05 0-.08 0-.11-.03-.08-.07-.1-.17-.09-.3.09 0 .17 0 .24-.02a.14.14 0 0 0 .09-.07c.2-.38.5-.17.75-.38a.1.1 0 0 0 .04-.07c0-.04-.03-.06-.07-.07l.06-.1a.38.38 0 0 1 .18-.04c.04.06.1.06.2.01.06-.03.07-.08.01-.14l.13-.12h.03l.01.03c-.08.03-.12.07-.13.12 0 .05.02.08.06.1.05.02.1.01.15-.02a.12.12 0 0 1 .1-.01c.06.01.12.04.17.08Z" fill="#009282"/><path d="M10.77 6.82v.02l.03.02a.05.05 0 0 0 .04 0l.08-.08c.02-.07.06-.08.12-.03.07.05.08.1.03.15a.32.32 0 0 1-.2.09.28.28 0 0 1-.2-.07c-.03-.02-.03-.07-.01-.16 0-.04.03-.05.07-.03.03.01.04.04.04.09Z" fill="#4DD2EF"/><path d="M10.8 7.38a.81.81 0 0 1-.5-.42l.59.28c.21.07.41-.03.6-.31.03-.04.02-.05-.02-.06h-.05l.21-.14c.14.23.1.4-.12.5a.85.85 0 0 1-.35.06.73.73 0 0 0-.36.09Z" fill="#00756A"/><path d="M9.8 6.78c.05.06.04.11-.02.14-.1.05-.16.05-.2-.01.03-.03.05-.04.05-.06a.5.5 0 0 0 .16-.07ZM10.89 7.24l.53-.36h.05c.04 0 .05.01.03.05-.2.28-.4.38-.61.3Z" fill="#4DD2EF"/><path d="M9.34 7.05c.04.01.07.03.07.07a.1.1 0 0 1-.04.07c-.25.2-.55 0-.75.38a.14.14 0 0 1-.09.07.66.66 0 0 1-.24.02.4.4 0 0 1 .08-.3.04.04 0 0 1 .04-.02.04.04 0 0 1 .03.03v.03c.01.04.04.06.07.04a.2.2 0 0 0 .1-.07.05.05 0 0 0-.06-.07l-.03.02c-.05.03-.07.02-.06-.03 0-.04.02-.06.05-.07.27-.07.55-.13.83-.17Z" fill="#01C9BD"/><path d="M8.5 8.35c-.17-.12-.1-.22.2-.3.14-.05.44-.06.91-.03.2.01.55.08 1.03.22l-.98.13c-.03 0-.05.02-.05.05l-.01.03c0 .03 0 .05.03.06a6.6 6.6 0 0 0 1.72.13c.27-.02.51-.1.72-.24a.22.22 0 0 0 .08-.08c.04-.08.1-.15.18-.2a.12.12 0 0 0 .07-.08c.04-.33.02-.66-.05-1 .13.25.2.5.22.78 0 .04 0 .07-.02.1-.18.31-.42.55-.71.71-.18.1-.42.15-.73.15-.41 0-.66-.01-.75-.04-.26-.07-.6-.14-1.04-.22-.04 0-.06-.03-.06-.08 0-.04.02-.07.05-.08a22.24 22.24 0 0 0 .54-.1.05.05 0 0 0 .02-.05l-.01-.03-.03-.03a.06.06 0 0 0-.05-.02c-.28 0-.57.02-.86.04a.65.65 0 0 0-.43.18Z" fill="#00756A"/><path d="m11.99 9.99-.42.27c.09-.37.23-.73.42-1.06l.06-.06h.08c-.02.06-.03.1-.02.12a.14.14 0 0 0 .07.1.13.13 0 0 0 .13-.01c.31-.18.68-.6.57-.99-.02-.08-.08-.1-.17-.07l.13-.6c.02-.13.06-.13.1-.01.11.26.12.5.32.74l.25.29c.12.14.14.26.04.36-.12.13-.27.23-.46.3-.08.04-.1.01-.06-.07l.1-.24V9c0-.03-.02-.04-.05-.01-.09.09-.25.21-.48.37-.18.12-.38.33-.61.62Z" fill="#003B37"/><path d="m11.33 8.24.3-.23a.08.08 0 0 1 .1 0c.04.04.05.1.03.17-.03.12-.15.2-.35.25a.1.1 0 0 1-.1-.03.11.11 0 0 1-.03-.1l.05-.06Z" fill="#01C9BD"/><path d="M12.13 9.14c.05-.08.1-.1.2-.05a.06.06 0 0 0 .07 0l.02-.03.3-.77c.08-.04.14-.01.16.07.11.4-.26.8-.57.99a.13.13 0 0 1-.13 0 .14.14 0 0 1-.07-.1l.02-.1Z" fill="#009282"/><path d="M10.56 9.47c-.16 0-.31-.03-.45-.1a.35.35 0 0 0-.22-.02c-.05.01-.1 0-.14-.02l-.52-.3a.04.04 0 0 1 .01-.07 1.5 1.5 0 0 1 1.35.47.03.03 0 0 1-.01.03h-.02Z" fill="#003B37"/><path d="M13.3 10.72c-.23.16-.4.24-.5.24a.04.04 0 0 1-.05-.03.04.04 0 0 1 .02-.05c.3-.22.7-.58.77-.98a.88.88 0 0 0-.07-.56l.2-.15c.04-.03.07-.02.1.01.1.18.15.33.12.45-.08.36-.28.71-.6 1.07Z" fill="#4C7F97"/><path d="M13.47 9.34c.08.18.11.36.07.56-.07.4-.47.76-.77.98a.04.04 0 0 0 0 .07h.02c.11 0 .28-.07.5-.23l-.41.62c-.02.03-.05.04-.1.01a3.1 3.1 0 0 1-.5-.37 4.22 4.22 0 0 0-.33-.25 1.14 1.14 0 0 1-.3-.32.08.08 0 0 1 0-.04c-.01-.03 0-.05.04-.06a2.91 2.91 0 0 0 1.51-.81c.03-.05.12-.1.27-.16Z" fill="#D9F0F8"/><path d="M13.2 9.5c-.43.42-.93.7-1.51.8-.04.02-.05.04-.05.07l.01.04a.23.23 0 0 1-.1.02c-.06 0-.07-.03-.05-.08a.23.23 0 0 1 .07-.1L12 10l1.21-.5Z" fill="#4C7F97"/><path d="M7.28 9.7c.12 0 .23-.01.23-.05s-.1-.08-.22-.1c-.13 0-.23.02-.23.06 0 .04.1.08.22.09Z" fill="#18202D"/><path d="M7.53 10.26a7.52 7.52 0 0 1-.96 1.31c-.1.18-.18.27-.32.43a.1.1 0 0 1-.1.04c-.14 0-.29-.04-.44-.09-.17-.06-.17-.1.01-.14.05-.01.12.02.21.08.04.02.07.03.11.02.21-.02.21-.2.3-.33.11-.18.2-.29.27-.33.32-.18.4-.48.56-.7l.56-.78c.01-.02 0-.04-.02-.06a.14.14 0 0 0-.06-.03c-.08 0-.09-.04-.04-.07a.27.27 0 0 1 .2-.05c.03 0 .06.03.06.06a.36.36 0 0 1-.12.36 1.3 1.3 0 0 0-.22.28Z" fill="#246A81"/><path d="m7.23 9.88-.34-.15a.12.12 0 0 0-.17.07v.02c-.03.06 0 .13.07.16l.34.14c.07.03.14 0 .16-.07l.01-.01a.12.12 0 0 0-.07-.16Z" fill="#01C9BD"/><path d="M10.67 10.45A3.2 3.2 0 0 0 10 11l-.02-.01v-.05c.1-.25.18-.47.24-.67a.21.21 0 0 1 .06-.1c.08-.07.1-.18.08-.32 0-.06.01-.1.06-.1h.05l.03.03.33.57c.02.03.01.06-.03.07a.1.1 0 0 1-.05.01c-.03 0-.06 0-.08.02Z" fill="#D9F0F8"/><path d="M11.13 10.04c.02-.02.04-.07.05-.14.03-.16.07-.17.13-.02.06.15.05.3-.05.46a.13.13 0 0 1-.16.06 2.52 2.52 0 0 1-.37-.46c-.09-.16-.06-.2.1-.1.06.03.13.1.2.2.03.03.07.03.1 0Z" fill="#003B37"/><path d="m6.55 10.15.29.34c.04.05.05.1.03.16l-.04.11c-.02.07-.06.08-.1.03l-.53-.46v-.04l.02-.01.26-.15c.02-.02.04 0 .07.02ZM5.81 10.64a.1.1 0 0 1-.07-.08c0-.01.1-.07.3-.17a.12.12 0 0 1 .17.05l.22.38c.02.04 0 .07-.04.08a.3.3 0 0 1-.12 0c-.04-.01-.07-.02-.08-.04a.72.72 0 0 0-.38-.22Z" fill="#01C9BD"/><path d="M7.78 10.82c-.16.21-.27.28-.34.23.1-.24.21-.4.33-.46.06-.04.12-.03.16 0 .03.04.03.07.01.1-.05.07-.1.11-.16.13Z" fill="#009282"/><path d="m7.96 12.98.12-.22.85-1.68v-.03h-.04c-.22.26-.38.5-.46.72-.06.14-.1.25-.14.31-.09.17-.11.16-.07-.03.07-.29.17-.6.3-.92a.35.35 0 0 1 .16-.18l.67-.35c.14-.07.16-.04.06.08a6.63 6.63 0 0 0-1.12 1.93c-.1.24-.28.43-.23.78 0 .02 0 .04-.03.05l-.04.02c-.02.02-.03.04-.02.06.03.09.04.18.02.27a.1.1 0 0 1-.07.07c-.13.04-.24 0-.32-.1a.09.09 0 0 1 0-.12.36.36 0 0 1 .31-.16c.04 0 .05-.02.03-.05a.09.09 0 0 0-.05-.04c-.04-.01-.06-.04-.04-.09 0-.02.02-.05.04-.06a.17.17 0 0 0 .07-.1.3.3 0 0 0 0-.16Z" fill="#7BDCEE"/><path d="M11.13 11.37a.1.1 0 0 1-.04 0c-.01 0-.03 0-.04.02a.07.07 0 0 0-.03.03c-.03.08-.1.11-.2.1a.09.09 0 0 1-.07-.09c0-.02 0-.05.02-.08a.1.1 0 0 1 .08-.05h.24c.02-.01.03-.02.03-.04l.01-.05c0-.01 0-.02-.02-.02l-.28.05c-.05.01-.08 0-.1-.06a4.15 4.15 0 0 1-.08-.35c-.02-.23.06-.28.22-.15.14.12.32.08.54-.1a.07.07 0 0 1 .1 0c.26.25.02.56-.21.74a.1.1 0 0 0-.05.1c0 .08 0 .14-.04.18a.1.1 0 0 1-.12.02l-.04-.02c-.05-.03-.05-.07 0-.1a.61.61 0 0 0 .1-.08c.05-.06.05-.07-.02-.05Z" fill="#71111C"/><path d="M7.78 10.83c.05.27.02.46-.1.59-.24.27-.45.58-.62.9-.1.2-.43.4-.63.44-.06 0-.1 0-.14-.05l-.18-.2a.06.06 0 0 1 .02-.1h.03c.62.03.59-.8 1.15-1a.1.1 0 0 0 .07-.09l.06-.27c.07.06.18-.02.34-.22Z" fill="#003B37"/><path d="M8.03 12.33a.5.5 0 0 1-.04.19c-.13.23-.2.22-.2-.04v-.7c0-.1.05-.15.14-.18l.2-.06c.09-.02.12 0 .09.1-.08.22-.18.46-.19.69Z" fill="#3C1D25"/><path d="M10.53 11.92a.82.82 0 0 1 .16-.34c.03-.03.06-.04.1-.02.08.05.13.12.16.21a.07.07 0 0 0 .07.05l.04.01c.03.02.04.05.04.08v.5c0 .04-.02.05-.05.02-.2-.12-.34-.29-.43-.5a.05.05 0 0 0-.1-.01Z" fill="#DA1521"/><path d="M10.53 11.92c0 .1.03.17.08.23l-.2.27a.26.26 0 0 1-.1-.1c-.02-.04-.02-.09 0-.14.05-.11.12-.2.22-.26Z" fill="#71111C"/><path d="m10.6 12.15.07.07c.02.03 0 .06-.02.08l-.06.03c-.03.02-.04.04 0 .07.06.04.12.05.19.02a.1.1 0 0 1 .1 0c.22.1.28.32.17.65-.01.03-.04.04-.07.02a1.51 1.51 0 0 1-.57-.67l.2-.27ZM10.89 13.18a.65.65 0 0 1-.22.3l-.56-.54a.18.18 0 0 1-.05-.2l.09-.26c.02-.08.07-.1.12-.03l.62.73Z" fill="#DA1521"/><path d="m8.08 12.76-.12.22c-.06 0-.1.03-.13.1-.05-.08-.11-.1-.2-.08a3 3 0 0 1-.92.14c.09-.03.1-.08.03-.15a.11.11 0 0 1-.02-.12.1.1 0 0 1 .1-.06c.38 0 .89-.03.93.01.02.03.05.04.08.02l.25-.08Z" fill="#022C40"/><path d="M7.83 13.08a.33.33 0 0 0-.15.26c0 .04-.02.07-.06.1a.39.39 0 0 0-.18.26.08.08 0 0 1-.04.06c-.05.02-.1.08-.15.18a.12.12 0 0 1-.07.07l-.15.05c-.05.02-.08 0-.1-.04l-.14-.5c-.01-.05 0-.08.06-.08h.61c.02 0 .04-.01.04-.03v-.04a.04.04 0 0 0-.04-.01c-.42.05-.67-.02-.75-.22a3 3 0 0 0 .92-.14c.09-.03.15 0 .2.08Z" fill="#004D7E"/><path d="M10.28 13.3c0 .1-.04.17-.1.2-.03.01-.06 0-.09-.03a.62.62 0 0 0-.16-.18l.04-.26c0-.05.03-.05.06-.01l.25.28Z" fill="#FB5922"/><path d="M10.67 13.48a.65.65 0 0 0 .22-.3c.15.11.2.31.13.6 0 .04-.02.05-.06.03a.86.86 0 0 1-.29-.33Z" fill="#71111C"/><path d="m8.56 13.84.03.07c.02.05 0 .07-.04.07l-.04-.03a.07.07 0 0 1-.03-.08l.12-.58c.03-.13.05-.13.07 0 .03.16 0 .3-.1.42a.13.13 0 0 0 0 .13Z" fill="#4C7F97"/><path d="M9.93 13.29c.06.05.12.1.16.18.03.03.06.04.1.03.05-.03.09-.1.1-.2.12.09.23.2.33.33l-.22.33-.26-.1-.14-.02c-.2-.11-.22-.3-.07-.55Z" fill="#DA1521"/><path d="m10 13.84.14.03c.08.04.17.07.26.09l.22-.33.31.3c.03.03.05.07.05.11v.4a.2.2 0 0 1-.25.2.2.2 0 0 1-.1-.07l-.63-.73Z" fill="#71111C"/><path d="m7.94 14.15-.44-.29a.04.04 0 0 0-.05.01l-.03.04c-.01.02 0 .05.01.06l.43.3c.02 0 .05 0 .06-.02l.03-.04a.04.04 0 0 0-.01-.06Z" fill="#4C7F97"/><path d="m10.5 14.68-.22.12c-.07.05-.13.03-.18-.03a.97.97 0 0 0-.3-.28c-.08-.04-.11-.11-.1-.21l.08-.36c.02-.07.05-.08.1-.02l.63.74v.04Z" fill="#8C1927"/><path d="M7.84 14.8a1.44 1.44 0 0 0-.69-.55.05.05 0 0 1 0-.07c.1-.08.18-.09.28 0a4.55 4.55 0 0 1 .52.57l-.01.03-.03.02c-.02.03-.05.02-.07 0Z" fill="#9E9E9E"/><path d="M8.48 14.73v-.4l.01-.01h.01c.12.16.21.33.29.5.04.1.02.13-.08.07l-.2-.12a.06.06 0 0 1-.03-.04Z" fill="#246A81"/><path d="M4.1 6.25a.67.67 0 0 1 .04-.49c.03-.05.04-.05.05 0l.11.61c0 .04.02.08.05.1.05.07.07.14.06.23 0 .04-.02.06-.06.05a.75.75 0 0 1-.34-.15c-.04-.02-.04-.05-.02-.08l.1-.17a.13.13 0 0 0 0-.1Z" fill="#65504B"/><path d="M4.4 9.05c.09-.08.17-.04.24.1.02.04.02.19.01.45 0 .04-.02.06-.06.06-.1 0-.22-.03-.37-.08a.13.13 0 0 1-.09-.1.84.84 0 0 1 .02-.38.1.1 0 0 1 .07-.08c.04-.02.07 0 .09.02.02.03.05.03.08 0Z" fill="#C67443"/><path d="M9.3 7.63c.1-.07.12-.18.07-.25-.05-.08-.17-.08-.26-.01s-.12.18-.07.25c.05.07.17.07.26 0Z" fill="#030608"/><path d="M10.08 7.71c0 .06-.03.09-.08.08a.76.76 0 0 0-.4 0c-.05.03-.08.02-.1-.02a.1.1 0 0 1-.02-.06c0-.03 0-.05.02-.07.02-.03.05-.04.1-.02.09.04.22.04.4.01.06 0 .08.02.08.08Z" fill="#003B37"/><path d="m11.9 7.84-.16-.04c-.05-.15 0-.2.13-.13.03 0 .04.06.04.15v.02h-.01Z" fill="#010A13"/></svg>