<!-- by TradingView --><svg width="18" height="18" viewBox="0 0 18 18" xmlns="http://www.w3.org/2000/svg"><path fill="#848A3A" d="M0 0h18v18H0z"/><path d="M12.88 13.57a2.2 2.2 0 0 0-1.26-1.64.12.12 0 0 0-.12.07.65.65 0 0 1-.18.23c-.34.27-.7.46-1.1.59a7.89 7.89 0 0 1-4.7-.12 1.9 1.9 0 0 1-1.02-.72.08.08 0 0 0-.06-.01l-.03.01-.34.27c-.04-.03-.05-.05-.03-.07a9 9 0 0 1 .35-.33 1.28 1.28 0 0 1-.34-.4 1.65 1.65 0 0 1-.13-.86c.02-.27.05-.48.1-.62l.11-.61c.15-.77.53-1.4 1.16-1.9.03-.03.1-.11.2-.26a.8.8 0 0 0 .11-.3l.09-.39a1.72 1.72 0 0 1 1.06-1.04c.5-.16.99-.18 1.49-.07.37.08.7.26.95.52a.1.1 0 0 0 .12.02c.36-.23.76-.36 1.18-.38.46-.02.94.02 1.42.11.52.1 1.03.23 1.12.83l.04.27c0 .03.02.04.04.03.56-.03.8.32 1.05.77a.5.5 0 0 0 .13.15l.15.13c.06.1.05.18-.03.28v.05c.05.07.12.14.14.21.05.2.04.37-.04.49l-.09.16v.05c.05.1.03.2-.06.26l-.2.16a.48.48 0 0 1-.2.15.05.05 0 0 0-.03.05.3.3 0 0 1-.02.12c-.01.02 0 .04.01.05l.12.05.02.02.01.03c.11.42-.34.56-.68.57-.04 0-.06.02-.07.06-.04.18-.18.27-.41.26h-.2a.07.07 0 0 0-.04.02c-.1.15-.26.41-.41.56a1.69 1.69 0 0 1-.56.38v.03l.01.01c.66.33 1.07.85 1.24 1.57.01.05-.01.1-.07.13Zm-6.4-7.88c-.33.22-.56.5-.69.88-.05.16-.08.36-.12.54-.01.05-.09.16-.22.33-.02.01-.01.02 0 .03.28.05.4.21.37.5-.05.62-.3 1.17-.75 1.67-.2.22-.6.54-.87.21-.02-.02-.03-.02-.04 0l-.06.2-.07.47c-.02.2-.01.42.04.66a1 1 0 0 0 .28.5c.11.08.2.13.28.16.5.2 1.03.34 1.58.42.5.09.99.14 1.5.17a8.9 8.9 0 0 0 4.05-.75c.28-.12.5-.35.69-.68a.56.56 0 0 1 .09-.1c.06-.06.05-.1-.03-.11-.3-.06-.6-.09-.89-.07-.26.01-.5.09-.76.14-.12.02-.3.07-.55.14-.66.2-1.32.32-2 .3-.18 0-.3-.01-.4-.04-.18-.06-.29-.2-.33-.42-.01-.32.12-.52.38-.62.14-.05.38-.05.5-.03a6.26 6.26 0 0 0 2.96-.24 9.58 9.58 0 0 1 1.2-.02v-.01a.54.54 0 0 0-.2-.17c-.02-.02-.03-.04-.02-.06l.01-.02c.02-.03.04-.03.07 0l.12.07h.04c.41 0 .82-.05 1.22-.16a.38.38 0 0 0 .2-.12.64.64 0 0 1 .23-.18.08.08 0 0 0 .05-.07v-.03a.03.03 0 0 0-.05-.03c-.34.2-.71.32-1.1.37a9.64 9.64 0 0 1-1.15.04c-.56 0-1.08-.13-1.57-.38-.03-.01-.05 0-.07.01-.14.14-.27.25-.47.3-.46.14-.93.19-1.42.16-.44-.02-.8-.06-1.1-.1-.02-.01-.03-.03 0-.05l.02-.02a.12.12 0 0 1 .1-.03c.57.08 1.14.1 1.72.07.2 0 .35-.06.55-.1a.94.94 0 0 0 .45-.23c.12-.14.1-.17-.07-.11-.3.11-.65.17-1.04.17-.3 0-.63-.07-1-.23-.47-.2-.87-.44-1.23-.72-.16-.13-.34-.22-.53-.33a.03.03 0 0 1-.02-.02.03.03 0 0 1 .01-.02.13.13 0 0 1 .08-.04c.27-.03.51-.07.71-.14.4-.13.7-.24 1.08-.25.75-.03 1.44.11 2.09.4.08.04.1.02.04-.05a6.76 6.76 0 0 1-.52-.67c-.41-.08-.9-.14-1.46-.19-.4-.03-.76-.03-1.1 0-.16.02-.39.09-.66.21h-.1a.1.1 0 0 1-.04-.01.03.03 0 0 1 0-.05c.38-.18.76-.28 1.13-.29a11.75 11.75 0 0 1 2.19.2.04.04 0 0 0 0-.04c-.21-.49-.53-.9-.95-1.24a1.59 1.59 0 0 0-.42-.2 2.66 2.66 0 0 0-1.96.12Zm3.36.11-.5.25a.03.03 0 0 0 0 .04c.25.28.46.6.6.94.01.03.03.04.06.03.39-.1.82-.15 1.3-.16a22.3 22.3 0 0 0 1.62-.09c.02 0 .03-.01.03-.03 0-.25-.08-.6-.28-.73-.1-.07-.23-.13-.4-.18a6.43 6.43 0 0 0-1.89-.2c-.12.01-.3.06-.54.13Zm.82 2.44c0 .02.02.02.04.02l.48-.1.61-.24c.27-.1.47-.17.62-.2.34-.07.72-.1 1.14-.07a56.1 56.1 0 0 1 .54.02v-.02l-.2-.3a.83.83 0 0 0-.89-.43c-.35.04-.95.08-1.77.1-.45.01-.83.06-1.17.14-.05.01-.06.04-.03.08.18.22.31.4.42.56.08.12.14.26.2.44ZM4.38 9.88c.11.06.29 0 .48-.17.2-.17.4-.44.56-.74.15-.3.26-.62.3-.87.02-.26-.02-.44-.14-.5-.11-.06-.29 0-.48.17-.2.17-.4.44-.55.74-.16.3-.27.61-.3.87-.03.26.01.43.13.5Zm3.58-2.25a.23.23 0 0 0-.2.04.94.94 0 0 0-.4.81c0 .03.02.05.07.07.02 0 .03 0 .03-.02l.06-.3c0-.1.04-.2.1-.27.12-.13.23-.24.34-.32.01 0 .01 0 0 0Zm1.13.01c-.05 0-.06.02-.03.05.25.28.34.56.26.86-.05.23-.22.37-.43.55a.02.02 0 0 0 0 .04H8.95c.03 0 .06-.01.08-.03.14-.13.23-.21.26-.26.2-.24.23-.53.1-.87a1.4 1.4 0 0 0-.19-.3.1.1 0 0 0-.08-.04h-.03Zm.24 1.34-.15.13c-.02.02-.01.04.02.03.37 0 .66-.05.87-.13.36-.15.5-.42.46-.82a.1.1 0 0 0-.03-.05.47.47 0 0 0-.11-.09 4 4 0 0 0-1-.34c-.03 0-.04 0-.02.03.3.42.28.83-.04 1.24Zm1.63-.63c.28.03.64-.04.96-.14a5.03 5.03 0 0 1 2.4-.13.1.1 0 0 0 .05-.06c.03-.15-.1-.2-.22-.21a5.61 5.61 0 0 0-1.6-.01c-.11.01-.21.06-.31.08l-.23.07c-.38.16-.73.29-1.05.37-.06.02-.06.03 0 .03ZM6.68 8l.56.4a.02.02 0 0 0 .03 0v-.02a.9.9 0 0 1 .19-.54c.07-.08.05-.1-.05-.06-.23.1-.47.16-.72.18-.05 0-.05.02-.01.04Zm1.27.2.08-.01c.02 0 .04-.02.05-.03.05-.09.03-.15-.05-.2-.03-.02-.04-.02-.04 0-.03-.02-.04-.02-.06-.01-.14.1-.13.18.02.25Zm5.2.3c.08.26.1.66-.1.87-.05.04-.04.06.02.05.41-.03.9-.15 1.21-.42.3-.26.24-.79-.21-.86a4.5 4.5 0 0 0-1.1-.02c-.03 0-.03.01-.02.03 0 .02.04.07.1.16l.1.19Zm-4.42.1c.07.02.14.02.2 0 .06-.03.11-.06.14-.1.04-.05.06-.1.05-.16 0-.05-.04-.1-.08-.14a.3.3 0 0 0-.13-.06h-.15a.32.32 0 0 0-.13.07.24.24 0 0 0-.07.11.2.2 0 0 0 .02.17c.03.05.09.1.15.11Zm4.17-.12c.16.35.1.65-.15.92-.03.02-.02.04.02.04h.03c.03.01.06 0 .08-.02.26-.3.3-.62.12-.98a3.74 3.74 0 0 0-.16-.25.1.1 0 0 0-.09-.05h-.02c-.04 0-.04.03-.02.06.05.1.15.2.19.28ZM7.99 8.4c-.09.02-.11.07-.08.15.02.05.06.07.13.06.14-.01.17-.08.08-.2a.06.06 0 0 0-.05-.03c-.04 0-.06 0-.08.02Zm3.13.09-.45-.07c-.01 0-.02 0-.02.02-.02.2-.1.36-.26.5-.02 0-.02.03 0 .04.18.14.4.24.63.3.04.02.05 0 .04-.03-.06-.25-.04-.5.07-.74v-.02Zm.25-.04h-.05a.08.08 0 0 0-.07.04 1 1 0 0 0-.08.82.06.06 0 0 0 .06.05h.03c.03 0 .04-.01.03-.04-.05-.3-.07-.55.1-.83.02-.03.01-.04-.02-.04Zm.4.2a.08.08 0 0 0-.08-.08h-.1a.08.08 0 0 0-.07.09v.07a.08.08 0 0 0 .08.08h.09a.08.08 0 0 0 .08-.08v-.08Zm.61.17c-.1 0-.17.06-.18.19 0 .1.04.17.12.18.17.06.3.04.37-.07.1-.14.02-.3-.14-.34-.04 0-.1 0-.17.04Zm-.54.3a.11.11 0 0 0-.04-.08.15.15 0 0 0-.15-.03.14.14 0 0 0-.04.03.12.12 0 0 0-.03.03.1.1 0 0 0-.01.05c0 .03 0 .06.03.09.03.02.06.03.1.03a.15.15 0 0 0 .1-.03.12.12 0 0 0 .03-.04.1.1 0 0 0 0-.05Zm1.93.6a5.9 5.9 0 0 1-1 .14c-.05 0-.07.03-.07.08 0 .02.01.03.03.03.26.03.48.05.65.04.12 0 .44-.1.43-.26a.04.04 0 0 0-.01-.02.04.04 0 0 0-.03-.01Zm-5.15 1.03c.35 0 .66-.02.92-.08.27-.06.58-.15.92-.27a2.38 2.38 0 0 1 1.24-.14c.69.1 1.24.16 1.66.18.23.01.62-.07.62-.36a.09.09 0 0 0-.08-.09h-.04c-.33.13-.53.15-.89.12-.34-.04-.68-.06-1-.07-.3 0-.62.03-.96.1l-.6.14a6.72 6.72 0 0 1-1.88.02 1.26 1.26 0 0 0-.45 0c-.28.08-.41.26-.38.54.04.34.39.36.65.36a6.45 6.45 0 0 0 2.01-.32c.52-.15.9-.24 1.13-.27.3-.04.7 0 1.16.1.18.04.47.1.56-.12.01-.02 0-.03-.02-.03-.37-.03-.83-.09-1.37-.17a2.45 2.45 0 0 0-1.03.02l-.95.3a3.9 3.9 0 0 1-1.23.13l-.02-.03v-.01a.04.04 0 0 1 .02-.05h.01Zm-2.56 1.6c-.47-.08-.91-.2-1.34-.36-.1-.04-.11-.01-.04.07.07.09.18.18.31.28.17.12.44.23.82.36.84.23 1.74.33 2.69.3a6.4 6.4 0 0 0 1.68-.27c.29-.1.65-.28.87-.42.11-.07.23-.18.34-.32 0-.02 0-.03-.02-.02a9.36 9.36 0 0 1-3.85.56c-.48-.03-.97-.09-1.46-.18Z" fill="#010100"/><path d="m8.86 5.77-.2.18a.32.32 0 0 1-.15.07.53.53 0 0 0-.33.14c-.38.1-.74.08-1.1-.05l-.45-.28c-.05 0-.1-.05-.15-.14a2.66 2.66 0 0 1 1.96-.12c.15.05.28.11.42.2ZM12.27 5.87l-.21.23a1.93 1.93 0 0 1-1.74.14c-.05 0-.1-.01-.13-.05-.04-.09-.08-.11-.13-.09a.72.72 0 0 1-.22-.3c.24-.07.42-.11.54-.12.64-.03 1.27.03 1.9.19Z" fill="#7C5D00"/><path d="M6.48 5.7c.06.08.1.13.15.13.1.12.26.21.45.28.36.13.72.14 1.1.05l.33-.14a.32.32 0 0 0 .15-.07l.2-.18a3.22 3.22 0 0 1 .95 1.26.04.04 0 0 1-.04.03c-.7-.12-1.43-.23-2.15-.2a2.71 2.71 0 0 0-1.14.3.03.03 0 0 0 0 .03.1.1 0 0 0 .05.01 1.54 1.54 0 0 0 .1 0c.27-.12.5-.2.67-.21.33-.03.7-.03 1.1 0a17.4 17.4 0 0 1 1.5.22c.15.23.3.44.47.64.06.07.04.09-.04.05a4.63 4.63 0 0 0-2.09-.4c-.38.01-.68.12-1.08.25-.2.07-.44.11-.71.14a.13.13 0 0 0-.08.04.03.03 0 0 0 0 .02.03.03 0 0 0 0 .02c.2.11.38.2.54.33.36.28.76.52 1.22.72.38.16.71.24 1 .23.4 0 .75-.06 1.05-.17.17-.06.2-.03.07.1-.1.11-.3.22-.45.25-.2.03-.34.08-.55.1a8.8 8.8 0 0 1-1.77-.08.12.12 0 0 0-.05.03l-.02.02c-.03.02-.02.04 0 .04.3.05.66.09 1.1.11.49.03.96-.02 1.42-.15.2-.06.33-.17.47-.3.02-.03.04-.03.07-.02.49.25 1 .37 1.57.38h.57c.2 0 .39-.02.57-.04a2.8 2.8 0 0 0 1.13-.37.03.03 0 0 1 .03.03v.03c0 .03-.02.05-.05.07-.1.04-.17.1-.23.18a.38.38 0 0 1-.2.12 5.2 5.2 0 0 1-1.26.16l-.12-.08c-.03-.02-.05-.02-.07 0v.03c-.02.02-.01.04.01.06.09.04.15.1.2.17v.02a.02.02 0 0 1-.02.01c-.4-.02-.8-.02-1.18 0-.09 0-.3.05-.63.13a6.26 6.26 0 0 1-2.32.1 1.3 1.3 0 0 0-.5.04c-.27.1-.4.3-.39.62l-.1.05a.43.43 0 0 0-.15.25c0 .02 0 .03-.02.05a2.5 2.5 0 0 0-.32.41.13.13 0 0 1-.04.05.38.38 0 0 0-.12.11.58.58 0 0 1-.12.15 4.6 4.6 0 0 0-.37.28c-.04 0-.07.01-.09.03a.2.2 0 0 0-.04.04 7.17 7.17 0 0 1-1.58-.42 1.42 1.42 0 0 1-.28-.16c.15-.1.23-.24.26-.4 0-.03.01-.05.03-.06a.1.1 0 0 0 .02-.06 1.6 1.6 0 0 0-.19-.86c-.06-.1-.18-.2-.37-.25l.06-.2c.01-.02.02-.02.04 0 .26.33.67.01.87-.21.45-.5.7-1.05.75-1.67.03-.29-.1-.45-.36-.5-.02 0-.03-.02-.01-.03.13-.17.2-.28.22-.33.04-.18.07-.38.12-.54.13-.37.36-.66.7-.88Zm3.17 4.06c-.13.07-.3.13-.5.17-.08.02-.09.05 0 .1h.06c.18-.04.34-.1.5-.18.13-.08.3-.13.49-.17.09-.02.1-.05.01-.1h-.06c-.18.04-.34.1-.5.18Z" fill="#848A3A"/><path d="M9.84 5.8c.05.13.13.23.22.3l.13.09c.03.04.08.06.13.05.6.28 1.19.23 1.74-.14l.21-.23c.17.05.3.1.4.18.2.14.27.48.28.73 0 .02-.01.03-.03.03-.54.05-1.08.08-1.61.1-.49 0-.92.05-1.3.15-.04.01-.06 0-.07-.03a3.1 3.1 0 0 0-.61-.96.03.03 0 0 1 .01-.02l.5-.25Z" fill="#848A3A"/><path d="M7.08 6.11a1.1 1.1 0 0 1-.45-.28l.45.28Z" fill="#45461C"/><path d="M12.06 6.1c-.55.37-1.13.42-1.74.14l.48.12c.43.06.85-.03 1.26-.26Z" fill="#010100"/><path d="M10.66 8.24a1.9 1.9 0 0 0-.21-.44c-.1-.15-.24-.34-.42-.56-.03-.04-.02-.07.03-.08.34-.08.72-.13 1.17-.14.82-.02 1.42-.06 1.77-.1.4-.06.7.08.9.42a6.83 6.83 0 0 0 .19.33l-.01.01h-.02a56.4 56.4 0 0 0-.5-.03c-.43-.03-.81 0-1.15.06-.15.03-.35.1-.62.21l-.6.24a9.2 9.2 0 0 1-.5.1c-.01 0-.03 0-.03-.02ZM4.38 9.88c-.12-.07-.16-.24-.13-.5s.14-.57.3-.87c.15-.3.35-.57.55-.74.2-.17.37-.23.48-.17.12.06.16.24.13.5-.03.25-.14.57-.3.87-.15.3-.35.57-.55.74-.2.17-.37.23-.48.17Zm.13-.3c.03.02.07.01.12-.01.05-.03.1-.08.17-.15l.19-.24a3.44 3.44 0 0 0 .44-.94c.04-.18.04-.3-.02-.33-.03-.01-.07 0-.12.02a.76.76 0 0 0-.17.14l-.19.25a3.44 3.44 0 0 0-.44.94c-.04.18-.03.3.02.32Z" fill="#848A3A"/><path d="M7.96 7.63v.01c-.1.08-.22.19-.34.32a.46.46 0 0 0-.1.27l-.06.3c0 .02-.01.02-.03.02-.05-.02-.07-.04-.07-.07 0-.34.13-.61.4-.81a.23.23 0 0 1 .2-.04Z" fill="#7C5D00"/><path d="M9.09 7.64h.03a.1.1 0 0 1 .08.05c.11.13.17.23.2.29.12.34.09.63-.1.87l-.27.26a.11.11 0 0 1-.07.03H8.9a.02.02 0 0 1-.01-.04c.21-.18.38-.32.43-.55.08-.3 0-.58-.26-.86-.03-.03-.02-.05.03-.05Z" fill="#A9A605"/><path d="M9.33 8.98c.32-.4.33-.82.04-1.24-.02-.03-.01-.04.02-.03a4 4 0 0 1 1 .34c.03.01.07.04.11.09a.1.1 0 0 1 .03.05c.05.4-.1.67-.46.82-.2.08-.5.13-.87.13-.03 0-.04 0-.02-.03l.15-.13Z" fill="#fff"/><path d="M10.96 8.32c.32-.08.67-.2 1.05-.37l.23-.07c.1-.02.2-.07.3-.08a5.61 5.61 0 0 1 1.6 0c.12.02.26.07.23.22a.1.1 0 0 1-.04.06.09.09 0 0 1-.08 0 5.03 5.03 0 0 0-2.34.13c-.31.1-.67.17-.95.14-.06 0-.06-.01 0-.03Z" fill="#848A3A"/><path d="M6.69 7.96c.25-.02.5-.08.72-.18.1-.05.12-.02.05.06a.9.9 0 0 0-.19.55.02.02 0 0 1-.03 0L6.68 8c-.04-.02-.04-.04 0-.04Z" fill="#fff"/><path d="M4.51 9.59c-.05-.04-.06-.15-.02-.33a2.82 2.82 0 0 1 .44-.94c.07-.1.13-.18.2-.25a.76.76 0 0 1 .16-.14c.05-.03.09-.03.12-.02.06.03.06.15.02.33a2.82 2.82 0 0 1-.44.94c-.07.1-.13.17-.2.24a.76.76 0 0 1-.16.15c-.05.02-.09.03-.12.02Zm.09-.15c.03.02.1-.04.18-.16a3.73 3.73 0 0 0 .5-.98c.05-.14.06-.22.03-.24-.02-.01-.09.05-.18.16a3.73 3.73 0 0 0-.5.98c-.05.14-.06.23-.03.24Z" fill="#010100"/><path d="m7.99 7.96-.07.07a.05.05 0 0 0-.01.05l.04.12c-.15-.07-.16-.16-.02-.25H8Z" fill="#696868"/><path d="m7.95 8.2-.05-.12c0-.02 0-.04.02-.05l.07-.07c0-.02 0-.02.04 0 .08.05.1.11.05.2a.06.06 0 0 1-.05.03h-.08Z" fill="#fff"/><path d="M4.85 8.7c-.2.38-.31.71-.25.74.06.03.27-.25.46-.63.2-.38.31-.72.25-.75-.06-.03-.27.25-.46.64Z" fill="#45461C"/><path d="M13.04 9.37c.22-.2.19-.61.1-.87a.87.87 0 0 0-.1-.2 3.44 3.44 0 0 1-.1-.15c0-.02 0-.03.02-.03.4-.04.78-.03 1.11.02.45.07.52.6.21.86-.3.27-.8.39-1.21.42-.06 0-.07-.01-.03-.05Z" fill="#fff"/><path d="M8.93 8.6c.09-.07.13-.14.13-.23 0-.08-.03-.14-.1-.19-.11-.06-.2-.03-.3.08-.08.11-.06.23.07.34a.26.26 0 0 1-.15-.11.2.2 0 0 1-.02-.17.24.24 0 0 1 .07-.1.32.32 0 0 1 .13-.07c.05-.01.1-.02.15 0 .05 0 .09.02.13.05.04.04.07.09.08.14 0 .06-.01.11-.05.16a.29.29 0 0 1-.14.1Z" fill="#696868"/><path d="M12.9 8.48c-.04-.08-.13-.19-.2-.28-.01-.03 0-.05.03-.06h.02a.1.1 0 0 1 .1.05l.15.25c.18.36.14.69-.12.98a.09.09 0 0 1-.08.03h-.03c-.04-.01-.05-.03-.02-.05.26-.26.3-.57.15-.92Z" fill="#A9A605"/><path d="M8.93 8.6a.34.34 0 0 1-.2 0c-.13-.11-.15-.23-.06-.34.08-.11.18-.14.28-.08.08.05.12.11.11.2 0 .08-.04.15-.13.21ZM8.04 8.62c-.07-.05-.09-.12-.05-.22a.14.14 0 0 1 .07-.02c.03 0 .04.01.06.03.09.12.06.19-.08.2Z" fill="#fff"/><path d="M7.99 8.4c-.04.1-.02.17.05.21-.07.01-.11 0-.13-.06-.03-.08 0-.13.08-.15Z" fill="#696868"/><path d="M11.13 8.5c-.1.25-.13.5-.07.75.01.04 0 .05-.04.04a1.84 1.84 0 0 1-.63-.3c-.02-.02-.02-.04 0-.06.15-.13.24-.3.26-.5h.02l.45.06c.01 0 .02 0 .01.02Z" fill="#fff"/><path d="M11.4 8.5c-.18.27-.16.52-.1.82 0 .03-.01.04-.04.04h-.03a.06.06 0 0 1-.06-.05 1 1 0 0 1 .08-.82.08.08 0 0 1 .07-.04h.05c.03 0 .04.01.02.04Z" fill="#7C5D00"/><path d="M11.69 8.57h-.1a.08.08 0 0 0-.07.09v.07c0 .05.04.08.08.08h.09c.04 0 .08-.04.08-.08v-.08a.08.08 0 0 0-.08-.08Z" fill="#fff"/><path d="M12.38 8.82c-.13.1-.15.23-.06.37-.08-.01-.12-.07-.12-.18.01-.13.07-.2.18-.19Z" fill="#696868"/><path d="M9.65 9.76c.16-.08.32-.14.5-.18h.06c.08.05.08.08-.01.1-.2.04-.36.1-.5.17-.15.08-.31.14-.49.17-.03 0-.06.01-.07 0-.08-.04-.07-.07.02-.09.2-.04.36-.1.5-.17Z" fill="#010100"/><path d="M13.77 9.72a.04.04 0 0 1 .04.02v.01c0 .17-.3.25-.43.26-.17 0-.4 0-.65-.04-.02 0-.03-.01-.03-.03 0-.05.02-.08.07-.08a5.9 5.9 0 0 0 1-.14Z" fill="#848A3A"/><path d="M8.62 10.75a.04.04 0 0 0-.03.05v.01c0 .02.01.03.02.03l.03.02c.44 0 .84-.04 1.2-.15l.95-.3c.28-.1.68-.07 1.03-.02.54.08 1 .14 1.37.17.03 0 .03.01.02.03-.09.22-.38.16-.56.12-.46-.1-.85-.14-1.16-.1-.23.03-.6.12-1.13.27a6.45 6.45 0 0 1-2.01.32c-.26 0-.6-.02-.65-.36-.03-.28.1-.46.38-.55.08-.02.23-.02.45.01l.44.06a6.72 6.72 0 0 0 2.04-.21c.34-.08.66-.12.96-.11.32 0 .66.03 1 .07.36.04.56.01.89-.11a.09.09 0 0 1 .12.08c0 .3-.39.37-.62.36-.42-.02-.97-.08-1.66-.18a2.38 2.38 0 0 0-1.23.14c-.35.12-.66.21-.93.27-.26.06-.57.09-.92.08Z" fill="#A46850"/><path d="M4.1 10.05c.19.06.31.14.37.25.14.27.2.56.19.86a.1.1 0 0 1-.02.06.14.14 0 0 0-.03.05.62.62 0 0 1-.26.41 1 1 0 0 1-.28-.5 2.22 2.22 0 0 1-.04-.66c0-.08.03-.24.07-.47Z" fill="#7C5D00"/><path d="M6.2 12.26a.2.2 0 0 1 .05-.04c.06 0 .1 0 .16-.03l.32-.26c.08-.06.1-.14.18-.2a.46.46 0 0 0 .13-.14c.05-.09.12-.17.2-.26.05-.07.1-.13.14-.21l.1-.23.1-.05c.04.22.15.36.34.42.08.03.21.04.39.05.68.01 1.34-.12 2-.3.25-.08.43-.13.55-.15.26-.05.5-.13.76-.14.3-.02.59 0 .89.06.08.02.09.06.03.11a.56.56 0 0 0-.09.11c-.18.33-.41.56-.69.68a8.9 8.9 0 0 1-4.06.75c-.5-.03-1-.08-1.5-.17Z" fill="#A9A605"/><path d="m7.49 10.9-.11.22a.97.97 0 0 1-.14.2 1.9 1.9 0 0 0-.2.27.46.46 0 0 1-.13.15c-.08.05-.1.13-.18.2l-.32.25a.2.2 0 0 1-.16.03c.02-.02.05-.03.09-.03a4.61 4.61 0 0 1 .37-.28.58.58 0 0 0 .12-.15.38.38 0 0 1 .12-.11.13.13 0 0 0 .05-.05c.09-.15.2-.29.3-.41a.11.11 0 0 0 .04-.06c.02-.1.07-.17.15-.24Z" fill="#010100"/><path d="M12.88 13.57c-.28.23-.59.45-.92.64l-.02-.39c0-.03-.02-.05-.05-.06h-.03c-.03 0-.04.02-.04.06.04.14.05.29.03.44a5.93 5.93 0 0 1-7.78-2.01l.34-.27a.08.08 0 0 1 .06-.01.08.08 0 0 1 .05.03c.22.35.62.56 1 .7a7.89 7.89 0 0 0 4.7.12c.4-.13.76-.32 1.1-.59a.65.65 0 0 0 .18-.23.12.12 0 0 1 .16-.05 2.2 2.2 0 0 1 1.22 1.62Z" fill="#19273D"/><path d="m5.8 12.7.03-.05c.1-.06.17-.14.23-.23-.02 0-.02-.02 0-.07.49.09.98.15 1.47.18a9.36 9.36 0 0 0 3.84-.56c.02 0 .03 0 .02.02a1.3 1.3 0 0 1-.34.32c-.22.14-.58.33-.87.42-.5.15-1.06.24-1.68.27a8.64 8.64 0 0 1-2.7-.3Z" fill="#A9A605"/><path d="M6.06 12.35c-.02.05-.02.07 0 .07a.61.61 0 0 0-.23.23c-.01 0-.02.02-.02.05a3.1 3.1 0 0 1-.82-.36c-.13-.1-.24-.2-.31-.28-.07-.08-.06-.1.04-.07.43.16.87.28 1.34.36Z" fill="#848A3A"/><path fill-rule="evenodd" d="M9 14.5a5.5 5.5 0 1 0 0-11 5.5 5.5 0 0 0 0 11Zm0 .5A6 6 0 1 0 9 3a6 6 0 0 0 0 12Z" fill="#010100"/></svg>