<!-- by TradingView --><svg width="18" height="18" viewBox="0 0 18 18" xmlns="http://www.w3.org/2000/svg"><path fill="#226DD3" d="M0 0h18v18H0z"/><path d="M7.33 4.03V3h-1v.34H6v.7h-.67v1.02H5v2.4h-.67V8.5H4v2.06h.33v1.03H5v.35h.33v.69H6v.35h1v.68h.67V14h2.66v-.34H11v-.68h1v-.36h.67v-.68H13v-.35h.67v-1.03H14V8.5h-.33V7.47H13v-2.4h-.33V4.02H12v-.69h-.33V3h-1v1.03h-.34v1.38H7.67V4.03h-.34Z" fill="#101010"/><path d="M7.33 4.03V6.1H7v.7h-.67v.33h-1V5.06H6V4.03h.33v-.69H7v.7h.33Z" fill="#E9E9E9"/><path d="M6.33 5.06V4.03H7v1.92h-.67v.49H6V5.06h.33Z" fill="#C9C9C9"/><path d="M10.67 4.03V6.1H11v.7h.67v.33h1V5.06H12V4.03h-.33v-.69H11v.7h-.33Z" fill="#E9E9E9"/><path d="M11.67 5.06V4.03H11v1.92h.67v.49H12V5.06h-.33Z" fill="#C9C9C9"/><path d="M7.35 8.84v.7h-1.9v1.02H6v1.03h.4v.4h.43v.51h.5v.5h.5v.48h.5V14h.68V8.5h-.34v-.69h-.34V6.47h-.51v.66h-.49v.35H7v1.36h.35Z" fill="#E9E9E9"/><path d="M10.67 8.84v.7h1.9v1.02h-.56v1.03h-.4v.4h-.43v.51h-.5v.5h-.5v.48h-.5V14H9V8.5h.34v-.69h.34V6.47h.51v.66h.49v.35H11v1.36h-.34Z" fill="#E9E9E9"/><path d="M7.67 6.44h.66v.68h-.66v-.68Zm-1 3.78H6v.34h-.67V9.53h1.34v.69Zm-.67.34h.33v1.03H6v-1.03Zm.83 1.03h-.5v.52h.5v.52h.5v.51h.5v.34h.5v-.51h-.5v-.35h-.5v-.51h-.5v-.52Zm2 1.9h-.5V14h.5v-.52Zm1.5-7.05h-.66v.68h.66v-.68ZM11.33 10.22H12v.34h-.33v1.03H12v-1.03h.67V9.53h-1.34v.69Zm-.16 1.37h.5v.52h-.5v.52h-.5v.51h-.5v.34h-.5v-.51h.5v-.35h.5v-.51h.5v-.52Zm-2 1.9h.5V14h-.5v-.52Z" fill="#C9C9C9"/><path fill="#63799E" d="M7.33 7.81h1v1.03h-1z"/><path fill="#0E0D12" d="M7.83 8.33h.5v.52h-.5z"/><path fill="#63799E" d="M10.67 7.81h-1v1.03h1z"/><path fill="#0E0D12" d="M10.17 8.33h-.5v.52h.5zM8.33 9.53h1.33v1.03H8.33zM9.67 10.9H8.33v.7H8v1.03h.33v.34h1.34v-.35H10V11.6h.67v-.68H10v.68h-.33v-.68Zm-2.34.7v-.7H8v.7h-.67Z"/><path fill="#DF9CAE" d="M8.33 11.59h1.33v1.03H8.33z"/></svg>