<!-- by TradingView --><svg width="18" height="18" viewBox="0 0 18 18" xmlns="http://www.w3.org/2000/svg"><path fill="url(#ahhs5stju)" d="M0 0h18v18H0z"/><path d="M8.64 9.17v1.12L4 7.39V6.38l4.64 2.8Z" fill="url(#bhhs5stju)"/><path d="M8.64 10.82v1.11L4 9.03V8.03l4.64 2.8Z" fill="url(#chhs5stju)"/><path d="M8.64 12.34v1.11L4 10.55V9.55l4.64 2.8Z" fill="url(#dhhs5stju)"/><path d="M8.64 13.89V15L4 12.1V11.1l4.64 2.8Z" fill="url(#ehhs5stju)"/><path d="m9.01 8.78-.93-.57 4.77-2.8.85.51-4.69 2.86Z" fill="url(#fhhs5stju)"/><path d="m7.64 7.94-.94-.57 4.77-2.8.85.51-4.68 2.86Z" fill="url(#ghhs5stju)"/><path d="m6.36 7.16-.93-.57 4.77-2.8.85.52-4.69 2.85Z" fill="url(#hhhs5stju)"/><path d="m5.06 6.37-.93-.56L8.9 3l.85.52-4.69 2.85Z" fill="url(#ihhs5stju)"/><path d="M9 9.35V15l1-.52V8.76l-1 .59Zm1.32-.77v5.59l1-.52V8l-1 .59Zm1.34-.79v5.6l1-.51V7.21l-1 .58ZM13 7.01v5.6l1-.51V6.42l-1 .6Z" fill="url(#jhhs5stju)"/><defs><linearGradient id="ahhs5stju" x1="3.35" y1="3.12" x2="21.9" y2="24.43" gradientUnits="userSpaceOnUse"><stop stop-color="#1A1E21"/><stop offset="1" stop-color="#06060A"/></linearGradient><linearGradient id="bhhs5stju" x1="8.41" y1="9.65" x2="3.5" y2="8.49" gradientUnits="userSpaceOnUse"><stop stop-color="#E75C40"/><stop offset="1" stop-color="#E75C40" stop-opacity="0"/></linearGradient><linearGradient id="chhs5stju" x1="8.41" y1="11.29" x2="3.5" y2="10.14" gradientUnits="userSpaceOnUse"><stop stop-color="#E75C40"/><stop offset="1" stop-color="#E75C40" stop-opacity="0"/></linearGradient><linearGradient id="dhhs5stju" x1="8.41" y1="12.81" x2="3.5" y2="11.66" gradientUnits="userSpaceOnUse"><stop stop-color="#E75C40"/><stop offset="1" stop-color="#E75C40" stop-opacity="0"/></linearGradient><linearGradient id="ehhs5stju" x1="8.41" y1="14.36" x2="3.5" y2="13.21" gradientUnits="userSpaceOnUse"><stop stop-color="#E75C40"/><stop offset="1" stop-color="#E75C40" stop-opacity="0"/></linearGradient><linearGradient id="fhhs5stju" x1="6.56" y1="7.48" x2="8.79" y2="3.53" gradientUnits="userSpaceOnUse"><stop stop-color="#E75C40"/><stop offset="1" stop-color="#E75C40" stop-opacity="0"/></linearGradient><linearGradient id="ghhs5stju" x1="6.56" y1="7.48" x2="8.79" y2="3.53" gradientUnits="userSpaceOnUse"><stop stop-color="#E75C40"/><stop offset="1" stop-color="#E75C40" stop-opacity="0"/></linearGradient><linearGradient id="hhhs5stju" x1="6.56" y1="7.48" x2="8.79" y2="3.53" gradientUnits="userSpaceOnUse"><stop stop-color="#E75C40"/><stop offset="1" stop-color="#E75C40" stop-opacity="0"/></linearGradient><linearGradient id="ihhs5stju" x1="6.56" y1="7.48" x2="8.79" y2="3.53" gradientUnits="userSpaceOnUse"><stop stop-color="#E75C40"/><stop offset="1" stop-color="#E75C40" stop-opacity="0"/></linearGradient><linearGradient id="jhhs5stju" x1="11.88" y1="7.38" x2="14.47" y2="12.48" gradientUnits="userSpaceOnUse"><stop stop-color="#E75C40"/><stop offset="1" stop-color="#E75C40" stop-opacity="0"/></linearGradient></defs></svg>