<!-- by TradingView --><svg width="18" height="18" viewBox="0 0 18 18" xmlns="http://www.w3.org/2000/svg"><path fill="#F0F3FA" d="M0 0h18v18H0z"/><path d="M14 7.53c-1.18.44-4.22 3.97-5.59 5.88C7.6 11.18 5.13 8.95 4 8.11 4.74 7.54 6.84 5.33 8.12 4c.73.74 4.02 2.65 5.88 3.53Z" fill="url(#a)"/><path d="m7.71 4.72-.15.66c0 .02-.02.03-.03.04a.45.45 0 0 0-.22.41l.01.05.08.12c.03.03.02.06-.01.07A.28.28 0 0 0 7.33 6c-.02-.01-.03 0-.03.02v.03a.62.62 0 0 0-.1.19c-.05-.04-.07-.05-.07-.02-.12-.1-.1-.27-.1-.45 0-.05-.03-.08-.07-.1l.26-.38c.1-.21.27-.4.5-.56Z" fill="#2B988A"/><path d="m9.47 5.4.2.25-.19-.18-.63-.56.62.5Z" fill="#B0B6B6"/><path d="M9.43 5.5h-.02c-.02 0-.03 0-.03.02v.02l-.01.01a.8.8 0 0 1-.16.01c-.11 0-.22.05-.31.1a.07.07 0 0 0-.06.06l-.08-.08v-.01a.03.03 0 0 1 .01-.04l.3-.12a.44.44 0 0 1 .36.03Z" fill="#0E6626"/><path d="m9.68 5.65.04.1v.01c-.01.02-.02.03-.04.02a.53.53 0 0 0-.43.12.61.61 0 0 1-.41-.18.07.07 0 0 1 .06-.05c.07.08.16.12.28.11l.04.01c.03.02.05.01.08-.02a.07.07 0 0 1 .05-.03l.23-.04h.01l.01-.01a.02.02 0 0 0 0-.02l-.16-.16h.03l.01-.01v-.03l.2.18Z" fill="#309828"/><path d="M9.43 5.5h.01l.16.17a.02.02 0 0 1 0 .02v.01h-.02l-.23.04a.07.07 0 0 0-.05.03c-.03.03-.05.04-.08.02a.07.07 0 0 0-.04 0 .33.33 0 0 1-.28-.12c.1-.06.2-.11.3-.1a.8.8 0 0 0 .17-.02l.01-.01v-.02c0-.01 0-.02.03-.02h.02Z" fill="#72D363"/><path d="M8.67 5.68v.08s-.02.02-.05.02a1.3 1.3 0 0 0-.88.85c-.1.2-.13.4-.1.6 0 .08 0 .14-.03.17l-.04.02h-.04a.08.08 0 0 1-.02-.06c0-.03 0-.04-.02-.03h-.02v-.04c.05-.05.1-.1.1-.17.02-.35.14-.66.36-.94a.9.9 0 0 0 .13-.23c.04-.1.08-.2.14-.29a.3.3 0 0 1 .2-.1c.03 0 .08.01.13.05l.14.07Z" fill="#D3D8DB"/><path d="M6.95 5.67c.05 0 .07.04.07.09 0 .18-.02.35.1.45l.08.12c.01.02.02.02.03 0 0-.04 0-.07-.03-.1a.62.62 0 0 1 .1-.19c.02.04.05.06.08.08.04.1.05.2.02.32.03.25 0 .48-.05.7l.01.39c0 .04 0 .07-.03.08-.02.01-.04 0-.04-.01v-.08c0-.12-.02-.14-.05-.05 0 .04 0 .07-.02.1-.05.1-.12.13-.2.11-.17-.03-.26-.18-.34-.34a.68.68 0 0 1-.05-.4v-.01c-.01-.02-.02-.02-.02 0a.68.68 0 0 0 .06.5l-.03.09v.05l.04.04c.04.1.1.21.2.31.11.11.22.13.32.04h.03c0 .03-.02.05-.03.07-.01.02-.02.03-.04.03-.14.04-.26 0-.35-.11a1.08 1.08 0 0 1-.13-.2.13.13 0 0 0-.03-.03c-.03-.02-.04-.04-.03-.06v-.03c0-.02-.02-.04-.05-.04-.02 0-.03-.02-.02-.04l.01-.04a.04.04 0 0 0 0-.05.06.06 0 0 0-.03-.03c0-.02 0-.03-.02-.04l-.02-.45a.5.5 0 0 1 .04-.19.92.92 0 0 1 .08-.17c.16-.22.35-.2.58.05l.09.19c.01.04.02.08.01.1a1.4 1.4 0 0 0-.02.11v.02h.02c.01.01.02 0 .03-.01.03-.1.03-.19-.01-.26a.12.12 0 0 1-.02-.05l-.01-.07a2.7 2.7 0 0 0-.17-.33.88.88 0 0 1-.1-.29 6.6 6.6 0 0 1-.06-.31v-.06Z" fill="#032F23"/><path d="M9.02 6.1c.03.17.1.31.2.44.09.18.14.41.16.69 0 .04.04.06.12.04-.04 0-.07.01-.07.03-.06 0-.1.02-.11.08l-.03.12c-.13.35-.36.59-.7.72h-.05c-.04 0-.07 0-.1.03a.07.07 0 0 1-.06.02l-.13-.02c-.03 0-.04 0-.03.03 0 .04 0 .06-.03.08l-.01-.04a1.16 1.16 0 0 1-.53-.58c0-.02-.01-.02-.02 0 0 .02 0 .04.02.07-.06 0-.1.03-.09.1 0-.1-.02-.15-.05-.13a.6.6 0 0 1 .12-.28.05.05 0 0 0 .01-.05.13.13 0 0 0-.03-.05c.02-.03.03-.09.03-.17.04.3.16.53.35.7.04.12.13.15.27.1.05-.02.1-.02.16-.01.03.05.1.06.18.03v-.03L8.63 8c.02.01.04.01.07 0 .26-.13.4-.34.44-.62l-.01-.01a.99.99 0 0 0-.14-.8c-.2-.3-.6-.44-.92-.23l-.33.3c.15-.44.45-.73.88-.86.03 0 .05-.01.05-.02v-.08c.14.11.26.25.35.42Z" fill="#49605E"/><path d="m6.95 5.73.05.31c.02.1.06.2.11.3.06.1.12.2.17.32l.01.07c0 .02 0 .03.02.05.04.07.04.16 0 .26 0 .01 0 .02-.02.02l-.01-.01v-.02l.01-.1c0-.03 0-.07-.02-.11a1.67 1.67 0 0 0-.08-.19c-.1-.27-.26-.5-.48-.68l.2-.23h.03Z" fill="#fff"/><path d="m10.87 6.26.01.02a4.85 4.85 0 0 0-.93-.05l-.18-.36c-.01-.03-.03-.04-.06-.04l-.46.07c.12-.1.26-.14.43-.12.02 0 .03 0 .03-.02v-.02l.24.43.01.02H10c.3-.02.59 0 .88.07Z" fill="#72D363"/><path d="M6.71 5.95c.22.19.38.41.48.68-.23-.25-.42-.27-.58-.05a.92.92 0 0 0-.08.17.5.5 0 0 0-.04.19c0 .15 0 .3.02.45v.02l-.03.01c-.04-.01-.06-.04-.06-.1v-.58c0-.04 0-.07.03-.1a.09.09 0 0 0 .01-.06c0-.07 0-.13.04-.18.02-.03.02-.05.01-.09 0-.02 0-.03.02-.05l.1-.2c0-.02.03-.06.08-.11Z" fill="#B0B6B6"/><path d="M9.6 6.2c-.08.02-.12.06-.13.14v.18c-.02.06 0 .12.04.19.03.06.1.13.2.2a.42.42 0 0 1-.23-.06.26.26 0 0 1-.12-.18c-.02-.08-.03-.2-.04-.36 0-.05 0-.12.04-.18l.09-.17h.04l-.09.17c-.06.12-.04.14.07.07h.13Z" fill="#0E6626"/><path d="m10.88 6.28-.01-.02.07-.08a.1.1 0 0 1 .07-.03.09.09 0 0 1 .07.04l.33.45a.1.1 0 0 0 .06.04c.15.03.3.03.46.02.05 0 .07.02.08.1 0 .01 0 .03-.03.03-.05.02-.1 0-.13-.04a.06.06 0 0 0-.04-.02l-.38-.05a.04.04 0 0 1-.03-.02l-.35-.48-.02-.02H11c-.02 0-.02 0-.02.02.02.04.04.06.06.07h.01a.03.03 0 0 1 0 .04l-.02.02h-.02a.85.85 0 0 1-.14-.07Z" fill="#D3D8DB"/><path d="M9.6 6.2c.11.1.18.22.2.36v.24c0 .03 0 .06-.02.07-.02.03-.04.04-.07.04a.68.68 0 0 1-.2-.2h.06l.03-.03v-.06c0-.02.02-.03.03-.04h.04a.04.04 0 0 0 .03 0 .04.04 0 0 0 0-.04v-.06c0-.03 0-.05-.03-.05l-.13-.02c-.02 0-.03 0-.04.02l-.04.09v-.18c.02-.08.06-.12.14-.13Z" fill="#309828"/><path d="m9.13 7.37-.04-.03c.02-.12.01-.24-.01-.36-.02-.07-.03-.07-.05 0-.03.15-.1.3-.2.44-.17.18-.36.25-.56.19-.16-.04-.28-.18-.36-.4a.82.82 0 0 1 .07-.53c.08-.16.2-.28.38-.34.04-.01.04-.02 0-.02h-.1c-.06 0-.1.06-.18.07v-.05c.3-.21.71-.07.91.23.16.25.2.51.14.8Z" fill="#01200F"/><path d="M7.9 7.21c-.02.15.04.3.2.43.12.1.26.13.42.08.17-.06.27-.16.3-.3.11-.14.18-.29.21-.45.02-.06.03-.06.05 0 .02.13.03.25 0 .37-.06.32-.2.5-.43.57-.37.06-.62-.06-.75-.35a.92.92 0 0 0-.13-.24c-.04-.04-.05-.1-.04-.2.03-.18.1-.36.2-.56a.55.55 0 0 1 .15-.17c.07-.01.12-.07.18-.07h.1c.04 0 .04 0 0 .02a.65.65 0 0 0-.38.34.82.82 0 0 0-.07.53Z" fill="#2ABD56"/><path d="M8.07 6.34v.05a.55.55 0 0 0-.14.17c-.1.2-.17.38-.2.57 0 .08 0 .15.04.2.02.2.1.36.25.5.17.15.39.18.63.08.22-.06.37-.25.44-.57l.04.03c-.09.3-.25.5-.49.6V8l-.04.02a.27.27 0 0 0-.18 0h-.16c-.1 0-.2-.03-.27-.09a1.14 1.14 0 0 1-.25-1.3l.33-.3Z" fill="#010404"/><path d="M11.36 6.87h.2c.18.05.3.07.37.06.06 0 .13 0 .22.03a.5.5 0 0 0 .24.02h.05c.04.03.05.06.03.1l-.02.01h-.03c-.15-.06-.3-.1-.44-.1-.22-.01-.4-.08-.6-.07a.1.1 0 0 1-.06 0 .1.1 0 0 1-.04-.04l-.3-.47v-.02H11c.1.13.18.26.26.39.03.06.07.09.1.1Z" fill="#B7EEB7"/><path d="m7.45 6.41-.02.8c-.04-.06-.07-.08-.08-.07.06-.22.08-.45.05-.7h.03l.02-.03Z" fill="#2B988A"/><path d="M8.15 6.7H8.1c-.02 0-.02-.02-.01-.04.02-.06.05-.1.1-.14l.02-.01.03.01.07.07h.04c.12 0 .23-.01.3.1.14.18.08.51-.15.6a.25.25 0 0 1-.24-.03c-.08-.06-.12-.15-.13-.27 0-.08.05-.18.05-.26 0-.02 0-.03-.03-.03ZM6.77 7.12c.05.19.17.32.28.29.1-.03.15-.2.1-.39-.04-.19-.16-.32-.27-.29-.1.03-.15.2-.1.39Z" fill="#fff"/><path d="M7.22 7.58c.03.1.01.16-.07.2-.07.03-.15.02-.24-.03s-.17-.16-.24-.32a.68.68 0 0 1-.06-.5c0-.02 0-.02.01 0h.01v.01c-.02.15 0 .28.05.4.08.16.17.3.34.34.08.02.15-.01.2-.1Z" fill="#BDF28E"/><path d="M7.43 7.2c-.01.42.01.83.07 1.23 0 .05.02.1.05.17l.05.18-.4-.48a.32.32 0 0 0 .07-.15.23.23 0 0 0 .01-.09c0-.02 0-.03-.02-.01l-.08.06a.3.3 0 0 1-.2 0 .06.06 0 0 1-.03-.02.05.05 0 0 0-.05-.03c-.01 0-.03 0-.04-.02l-.13-.12a.09.09 0 0 1-.03-.03v-.1l.12.16c.08.11.2.15.35.1 0 0 .02 0 .03-.02a.24.24 0 0 0 .03-.06v-.01H7.2c-.1.09-.2.07-.32-.04a.77.77 0 0 1-.2-.31.1.1 0 0 1 .06.07l.04.07c.1.13.2.25.37.2a.05.05 0 0 0 .03-.03l.02-.03c0-.03.02-.02.04.01a.1.1 0 0 0 .06.06c.01 0 .02 0 .02-.03v-.07c0-.03-.01-.04-.04-.03l-.03.01a.01.01 0 0 1-.02 0V7.8l.01-.02c.05-.02.07-.04.07-.06 0-.02 0-.03.03-.03.02 0 .03-.01.03-.05v-.12l-.02-.4c.01 0 .04.02.08.07Z" fill="#B7EEB7"/><path d="M9.72 7.48a.2.2 0 0 1-.11.08l-.74.95v.01a.02.02 0 0 0 0 .02h.03c0 .01 0 0 0 0l.29-.32c.04-.06.1-.09.15-.1l.03-.01v-.04l-.01-.01h-.02c-.02 0-.02 0-.01-.02l.23-.36c.04-.05.06-.05.09 0a.2.2 0 0 0 .07.07.04.04 0 0 1 .01.04.35.35 0 0 1-.11.17.07.07 0 0 1-.05.01.15.15 0 0 0-.1.04c-.04 0-.06.03-.05.1l.01.02.02.02a.05.05 0 0 0 .06-.01l.07-.06.1.03a.35.35 0 0 0-.16.18c-.02 0-.04.02-.06.06 0 .02-.02.03-.04.03l-.18.08a.12.12 0 0 0-.08.04.19.19 0 0 1-.05.05l-.03-.02c-.02 0-.03.02-.01.03l.2.24v.04l-.01.01a.02.02 0 0 1-.03 0 1.5 1.5 0 0 0-.22-.21h-.02c-.01 0-.02 0 0 .01l.18.2a1 1 0 0 1 .28.26l.11.17.02.04v.4c0 .05-.02.05-.05 0-.05-.06-.06-.15-.03-.25v-.05a.75.75 0 0 0-.43-.35c-.05-.01-.08.01-.1.08a.3.3 0 0 0-.1.1c0 .02-.02.02-.03.02l-.08-.05a.02.02 0 0 0-.02 0v.02c-.04.18-.02.39.12.51l.22.2c.01 0 .02 0 .02-.02-.01-.1-.01-.2.01-.31.03.05.04.12.04.2v.01l.02.01.03-.01.01-.05c.01-.02.02-.02.04-.02.04 0 .07-.01.1-.04a.07.07 0 0 1 .08-.01l.12.06c.01 0 .02 0 .02.02v.23l-.01.05-.15.19c-.04.05-.09.04-.14-.03-.04-.06-.05-.06-.03.02.02.05.05.08.09.09.02 0 .03 0 .05-.02.12-.14.18-.15.16-.05l.03.01.01.03a.31.31 0 0 1-.12.04.11.11 0 0 0-.1.05l-.12.2-.08.11c-.05.16-.09.2-.1.13a.46.46 0 0 0-.12-.23.4.4 0 0 0-.47.08.24.24 0 0 0-.08.17v.2l.03.03c.07.03.14.05.21.05.1.05.22.07.39.05l-.07.4-.05.05c-.04.02-.06.02-.08 0a.6.6 0 0 0-.26-.04.2.2 0 0 0-.12-.18l-.04.01c-.08.08-.13.12-.18.12-.06-.07-.08-.02-.07.14 0 .04 0 .04-.03.02a.12.12 0 0 1-.03-.05.06.06 0 0 0-.03-.04h-.09c-.07.04-.13 0-.17-.11a.23.23 0 0 1 .04-.23.53.53 0 0 0 .08-.17l.17-.03c.02 0 .03 0 .03.02l.01.18.03.01c.02 0 .02 0 .02-.03l-.06-.51-.01-.06a.64.64 0 0 1-.06-.21l-.1-.8c.07-.04.12-.1.13-.19h.03v.05h.03a.35.35 0 0 0 .15-.2c0-.03.02-.04.04-.04a.37.37 0 0 0 .2-.19c.03-.04.03-.1.03-.17 0-.02-.02-.02-.03 0l-.36.33c-.03.01-.04-.04-.02-.16h-.02a.28.28 0 0 1-.19.09h-.02l-.01-.02a.04.04 0 0 1 0-.03c0-.03 0-.05-.03-.07h-.03l-.02-.03v-.03l.25-.45h.06c.02-.01.02-.02 0-.03L8.1 8.5l-.29-.28a.97.97 0 0 1-.24-.3c0-.08.03-.11.09-.1.03.11.07.2.12.25.07.1.18.2.34.31l.04.02.04-.04c.02-.02.03-.04.03-.08 0-.02 0-.03.03-.03l.13.02a.06.06 0 0 0 .06-.02c.03-.03.06-.04.1-.03h.05c.34-.13.57-.37.7-.72l.03-.12c.01-.06.05-.09.1-.08.03.03.07.04.12.01l.18-.05c.07 0 .1 0 .1-.05.05-.05.11-.05.17 0 .02 0 .02.02.01.04l-.06.16-.01.02H9.9a.36.36 0 0 0-.18.05Z" fill="#010404"/><path d="M7.9 7.21c.09.22.2.36.36.4.21.06.4 0 .57-.19-.04.14-.14.24-.3.3a.41.41 0 0 1-.44-.08c-.15-.14-.21-.28-.18-.43Z" fill="#BDF28E"/><path d="M12 7.35c0 .03 0 .05.01.04l-.54-.04a.03.03 0 0 0-.02 0l-.51.63-.02.02h-.03l-.92-.03a75.57 75.57 0 0 0 .96-.02l.05-.05a6.26 6.26 0 0 1 .47-.58l.56.03Z" fill="#B7EEB7"/><path d="M7.3 7.52a.1.1 0 0 1-.04.02l-.01-.02-.01-.05c.03-.09.05-.07.06.05Z" fill="#72D363"/><path d="M7.22 7.58a.16.16 0 0 0 .02-.11v.05c0 .02.02.03.03.02l.03-.02c-.02.03-.02.06-.01.08 0 .02.02.02.04.01.02 0 .03-.04.03-.08l.01.12c0 .04-.01.06-.03.05-.02 0-.03.01-.03.03 0 .02-.02.04-.07.06l-.01.02v.03h.05c.03-.02.04 0 .04.02v.07c0 .02 0 .03-.02.03a.1.1 0 0 1-.06-.06c-.02-.03-.03-.04-.04-.01a6.82 6.82 0 0 1-.05.05c-.17.06-.26-.06-.37-.2a.2.2 0 0 1-.04-.06.1.1 0 0 0-.06-.07l-.03-.04a.04.04 0 0 1 0-.05.27.27 0 0 0 .02-.09c.07.16.15.27.24.32.1.05.17.06.24.03.08-.04.1-.1.07-.2ZM9.72 7.48l.2.01a.05.05 0 0 1 .04.03v.03l-.05.01c-.07-.01-.12 0-.15.07-.01.02-.03.02-.05.02a.2.2 0 0 1-.1-.09.2.2 0 0 0 .1-.08Z" fill="#2ABD56"/><path d="m9.9 7.56.06.01.02.06c0 .01 0 .01 0 0v-.02L10 7.6c.01 0 .02 0 .02.02a.02.02 0 0 1 0 .02c0 .01 0 .02.02.03h.01v.05c-.01.01-.02.02-.03.01-.06 0-.1.01-.1.07 0 .02 0 .03-.03.03-.03-.01-.05.01-.06.07 0 .02 0 .03-.02.04-.06.04-.1.1-.13.17a.23.23 0 0 0-.1-.03.15.15 0 0 0 .06-.04.02.02 0 0 0 0-.03h-.02a.3.3 0 0 1-.15 0 .15.15 0 0 1 .1-.04l.05-.01c.05-.05.09-.1.11-.17a.04.04 0 0 0-.01-.04.2.2 0 0 1-.07-.07c-.03-.05-.05-.05-.09 0l-.23.36v.02h.04v.05l-.03.02c-.06 0-.1.03-.15.09a29.48 29.48 0 0 0-.3.33h-.01a.02.02 0 0 1-.01-.02.02.02 0 0 1 0-.02l.73-.95a.2.2 0 0 0 .11.09c.02 0 .04 0 .05-.02.03-.06.08-.08.15-.07Z" fill="#05403B"/><path d="M12.06 7.82a.13.13 0 0 1-.1.02.27.27 0 0 0-.1 0 .05.05 0 0 0-.05.02l-.32.5a.12.12 0 0 1-.08.05l-.41.05c-.02 0-.04.02-.04.05v.14c0 .01 0 .03.02.04l.03.01h.63l.03-.04.32-.57h.05v.01l-.36.59a.12.12 0 0 1-.04.04.11.11 0 0 1-.05.02h-.41l-.36-.04a.1.1 0 0 1-.06-.03.1.1 0 0 1-.03-.07c0-.05.02-.08.05-.1.04-.02.04-.04 0-.04l-.26-.04h-.01V8.4c.07.02.14.01.2-.02h.65c.05 0 .08-.02.1-.06l.33-.51a.07.07 0 0 1 .05-.03l.06-.02v-.04h-.02c-.03-.02-.04-.03-.03-.05.04-.1.2-.1.21.04v.01a.02.02 0 0 1-.02.01h-.01L12 7.71c0-.03-.02-.03-.05-.02v.01c-.02.02-.01.02 0 .03.08 0 .12.04.11.1Z" fill="#BDF28E"/><path d="M6.62 7.63v.03c-.03 0-.05 0-.04.05l-.05-.01c0-.04.03-.07.1-.07Z" fill="#B0B6B6"/><path d="M6.62 7.66c-.01.02 0 .04.03.06-.02 0-.02.01-.03.02a.03.03 0 0 0 .02.03.03.03 0 0 0 .03 0v-.02l.03.04v.1c-.02.01-.07-.01-.12-.07.02-.04.02-.08 0-.1 0-.05 0-.07.04-.06Z" fill="#49605E"/><path d="M6.58 7.82c.05.06.1.08.12.07l.03.03-.02.05v.05c.1.08.2.16.3.22.06.03.1.05.15.05h.01l.01.02h.02l.4.47c.01.03.04.08.09.12a.06.06 0 0 1 .01.05l-.02.16c0 .1.04.18.1.26.01-.02.03-.03.05-.02l.07.47c.01.1.06.2.05.33a.1.1 0 0 0 0 .05.6.6 0 0 1 .05.22l-.01.05c-.02.02-.02.05.01.09l.02.06c0 .02 0 .03-.03.02l-.12-.05c-.03-.05-.07-.07-.11-.06-.09.03-.13.07-.14.13l-.03.03a.09.09 0 0 1-.01-.08.62.62 0 0 0 .04-.18c0-.07.01-.13.03-.18.03-.1.03-.23.01-.38 0-.03 0-.03-.02 0a.7.7 0 0 0-.06.28.3.3 0 0 0-.04-.23c.02-.01.02-.05 0-.12v-.01c.06 0 .1-.04.12-.1v-.05a.41.41 0 0 0-.04-.06.26.26 0 0 1-.03-.1.4.4 0 0 0-.2-.26l-.07.01-.12.09h-.05l-.03-.04c-.02-.01-.04-.01-.04.01l-.04.1a.6.6 0 0 0 0 .35c0 .04 0 .07-.02.1 0 .01-.02.02-.03 0l-.18-.1c0-.07-.03-.1-.08-.1-.02 0-.03 0-.03-.03v-.1a.71.71 0 0 0 .15-.24.74.74 0 0 0 .22-.2c.04-.02.06-.02.06 0 0 .03-.01.07-.03.1l.01.02h.02A.47.47 0 0 0 7.2 9c.02-.01.03-.03.03-.06 0-.01-.01-.02-.03-.02l-.05-.06a.04.04 0 0 0-.05-.02.11.11 0 0 0-.08.09c0 .02-.02.03-.05.03h-.02c-.02 0-.03.01-.04.03-.01.03-.03.04-.06.03l.02-.04a.24.24 0 0 0 .1-.13l.04-.04c.04-.05.08-.1.12-.18l-.01-.04-.22-.2-.13-.16a.7.7 0 0 0-.1-.19.33.33 0 0 1-.06-.1.87.87 0 0 1-.03-.13Z" fill="#061410"/><path d="m7.18 8.11.03.02c-.02 0-.02.01-.03.02 0 .03 0 .04.02.05a.03.03 0 0 0 .03-.01v-.05l.04.01a.32.32 0 0 1-.07.17h-.02V8.3l-.02-.01a.3.3 0 0 1-.14-.05c-.11-.06-.21-.14-.3-.22-.02-.02-.02-.04-.01-.05l.02-.05.12.12c.02.02.03.02.05.02.02 0 .04.01.05.03l.02.01a.3.3 0 0 0 .21.01Z" fill="#49605E"/><path d="M7.27 8.15h-.04l-.02-.02-.03-.02.08-.06c.01-.02.02-.01.02.01l-.01.09Z" fill="#02543B"/><path d="M11.46 8.19h-1.39l-.01.02.01.02h1.4l.01-.02c0-.02 0-.02-.02-.02Z" fill="#72D363"/><path d="m10.27 8.86-.02-.02.01-.02h1.03l.55-.02c.02 0 .04 0 .05-.02l.3-.54h.01l.03.01-.33.57a.1.1 0 0 1-.04.03.1.1 0 0 1-.05.01h-1.54Z" fill="#B7EEB7"/><path d="m6.9 8.4.22.2c.01.01.02.03 0 .04a.67.67 0 0 1-.11.18.13.13 0 0 0-.03.04.24.24 0 0 1-.1.13c-.02 0-.02.02-.03.04-.03.02-.05.02-.05 0h-.58l-.04-.1c.06-.03.08-.1.05-.21 0-.02 0-.03.02-.04l.2-.04v-.01l-.02-.01a.6.6 0 0 1-.2-.02l.4-.05.01-.01.01-.02c0-.02-.01-.04-.05-.06l.2-.02-.32-.03.42-.02ZM10.7 8.39a.23.23 0 0 1-.19.02v.02l.26.04c.05 0 .05.02 0 .04-.02.02-.04.05-.04.1 0 .03 0 .05.03.07a.1.1 0 0 0 .06.03l.36.04c.03.03.07.05.11.06l-1.03.01c-.01 0-.02.01-.01.02l.01.02h-.11a.18.18 0 0 0-.03-.05.07.07 0 0 0-.04-.03.28.28 0 0 1-.13-.09.08.08 0 0 1-.03-.04c-.01-.09-.06-.12-.15-.12v.04a.01.01 0 0 1-.02 0l-.31-.12c-.02-.01-.02-.02 0-.03 0-.01.02-.02.04-.01.03 0 .05 0 .06.02l.02.02h.04a18.46 18.46 0 0 1 1.11-.06ZM5.6 8.44c0 .07.03.12.08.15.03.02.08.02.15.02h.27c-.03 0-.05.04-.06.08l-.3-.03c-.09-.01-.14-.07-.16-.18v-.05h.02Z" fill="#2ABD56"/><path d="m5.63 8.43.97.03c.04.02.06.04.05.06v.02h-.02l-.4.06-.13.01a.99.99 0 0 0-.27 0c-.07 0-.12 0-.15-.02-.05-.03-.08-.08-.08-.15h.03Z" fill="#03643B"/><path d="m9.11 8.55.16.14c.01.01.03.02.05.01l.2.01c.05.01.06.04 0 .07-.04.03-.05.06-.04.1a.05.05 0 0 0 .03.02l.13.04c.03 0 .03 0 .03-.02-.01-.04-.02-.07-.01-.1v-.01h.03l.06.16c.02.07 0 .1-.06.06A.22.22 0 0 0 9.58 9a.3.3 0 0 1-.12-.07l-.2-.13-.2-.24c0-.01 0-.03.02-.03.01 0 .02 0 .03.02Z" fill="#72D363"/><path d="M6.04 8.7c.01-.05.03-.08.06-.09h.13a.6.6 0 0 0 .2 0c.01 0 .02 0 .02.02l-.2.05c-.02 0-.03.02-.02.04.03.12.02.18-.05.2h-.53c-.04 0-.08-.03-.1-.09l-.16-.22v-.02h.01c.05.05.09.11.13.2l.08.06a6.67 6.67 0 0 0 .42.01c.07 0 .07-.02 0-.06-.02-.01-.02-.05 0-.1Z" fill="#BDF28E"/><path d="m8.11 9.5.06-.23.36-.34c.01-.01.02-.01.02.01.01.07 0 .13-.02.17a.37.37 0 0 1-.2.19.05.05 0 0 0-.04.03.35.35 0 0 1-.15.21h-.03v-.05Z" fill="#72D363"/><path d="M10.05 8.91h.03l.03.05c.02.02.03.03.05.03.04 0 .07.01.1.04a.2.2 0 0 1 .08.03l.02.04c0 .03.01.06.05.07l.01.02v.08c.02.01.02.02.01.04l-.03.04a.04.04 0 0 1-.02.02.04.04 0 0 1-.03 0 .18.18 0 0 1-.08-.1.76.76 0 0 0-.3.01.03.03 0 0 0-.02.03v.01c-.02.08-.01.15.02.19-.01.03-.04.03-.1-.01l-.32-.3a.39.39 0 0 1-.07-.12.32.32 0 0 0-.07-.1c-.02-.02-.02-.03 0-.05h.05a.3.3 0 0 0 .12.07l.25.27a.03.03 0 0 0 .03 0h.01l.01-.01A.46.46 0 0 0 9.93 9v-.04h.02l.03.01v.08a.29.29 0 0 0-.02.12c0 .02.01.03.03.04.07.01.14 0 .2-.02.03 0 .03-.02.02-.04l-.16-.24Z" fill="#010404"/><path d="m8.17 9.27-.06.22h-.03a.24.24 0 0 1-.14.2c.03-.08.02-.15-.03-.2a.06.06 0 0 1-.02-.04v-.2l-.01-.01h-.02c-.01 0-.02 0-.02.02v.09c-.03 0-.05 0-.06.02 0-.06 0-.1-.03-.13l.13-.16c.02.02.03.04.02.07a.04.04 0 0 0 .01.03l.01.02h.02c.09-.01.15-.04.2-.1v.01c-.01.12 0 .17.03.16Z" fill="#49605E"/><path d="M11.37 9.35c-.08-.05-.1-.08-.21-.08a124.65 124.65 0 0 1-.67-.02l-.01-.02.01-.02a17.94 17.94 0 0 1 .79-.02 9.86 9.86 0 0 1 .17-.03c.07.03.08.09.04.16-.03.06-.07.07-.12.03Z" fill="#BDF28E"/><path d="M6.85 9.27c-.04.1-.1.18-.16.24h-.04V9.5l.07-.1c0-.03 0-.06.04-.08l.02-.04c-.01-.04 0-.08.03-.1.02-.01.03-.01.04.01v.08Z" fill="#72D363"/><path d="M7.32 9.23c.02 0 .03 0 .03.03v.04a.74.74 0 0 0-.06.27v.04c0 .03-.01.03-.03 0a.86.86 0 0 0-.22-.21l.04-.1c0-.03.02-.03.04-.02l.03.04h.05l.12-.09Z" fill="#fff"/><path d="m7.94 9.69.1.79c0 .07-.02.1-.04.08-.03-.04-.03-.07-.01-.1a.08.08 0 0 0 .01-.04.6.6 0 0 0-.04-.22.1.1 0 0 1-.01-.05c.01-.12-.04-.24-.05-.33l-.07-.47.01-.1.02-.02h.02v.23l.03.04c.05.04.06.1.03.19ZM9.95 9.32c.02.02.02.02 0 .01.01.08.06.12.16.13.02 0 .02 0 0 .02a.24.24 0 0 1-.14.03c-.03-.04-.04-.1-.02-.19ZM7.04 9.4c.08.05.16.13.22.22.02.02.03.02.03-.01v-.04l.02.07c0 .02 0 .04-.03.04-.02 0-.03.02-.04.04l-.02.15c-.01.11-.05.12-.1.02a1.6 1.6 0 0 1-.08-.15.6.6 0 0 1 0-.34Z" fill="#B0B6B6"/><path d="M6.7 9.51v.1c0 .02 0 .03.03.03.05 0 .08.03.08.1l-.13.2h-.01l-.02-.12c0-.02 0-.04.02-.05a.11.11 0 0 0 .02-.06c0-.02 0-.04-.02-.05-.04-.03-.05-.08-.02-.15h.04Z" fill="#D3D8DB"/><path d="M7.54 9.92a.3.3 0 0 1 .04.23.42.42 0 0 1-.18.2c-.01 0-.03 0-.04-.02l-.07-.11a.2.2 0 0 0-.1-.1c-.02-.07 0-.1.04-.12l.05-.02a.7.7 0 0 1 .1-.1c.03-.03.06-.04.08-.04.04.01.06.04.08.08Z" fill="#010404"/><path d="M7.19 10.12a.2.2 0 0 1 .1.1 2.28 2.28 0 0 0-.68-.05c-.03 0-.05 0-.07-.03 0-.02 0-.02.02-.02h.63Z" fill="#72D363"/><path d="M8.05 10.48c0 .08.02.15.06.21l.01.06.06.51c0 .02 0 .03-.02.03h-.02l-.01-.01-.01-.18c0-.02-.01-.03-.03-.02l-.17.03-.1.02c.03-.03.03-.06 0-.1h-.03a.04.04 0 0 0-.03 0c-.02.02-.04.03-.07.03-.02 0-.03-.01-.04-.03a.22.22 0 0 1 0-.17l-.01-.05a.21.21 0 0 1-.02-.14l.25-.08.12.05c.02 0 .03 0 .03-.02L8 10.56c.01.01.03-.01.04-.08Z" fill="#49605E"/><path d="M8.94 10.6a.34.34 0 0 1-.17.05c-.09 0-.14.01-.16.02-.08.03-.13.09-.13.16-.01.07 0 .12.04.16l.02.04c.01.04.02.06.04.06a.2.2 0 0 1 .07.02v.01l-.02.02a.53.53 0 0 1-.2-.05.05.05 0 0 1-.04-.04.87.87 0 0 1 0-.2c0-.06.03-.11.08-.16a.4.4 0 0 1 .47-.08Z" fill="#B0B6B6"/><path d="M7.62 10.66c0 .06 0 .1.02.15v.05a.22.22 0 0 0 0 .17c.02.02.03.03.05.03l.07-.02a.04.04 0 0 1 .03-.02.04.04 0 0 1 .03.02c.03.03.03.07 0 .1l-.19.01a.06.06 0 0 1-.04-.02.06.06 0 0 1-.02-.04l.02-.4.03-.03Z" fill="#72D363"/><path d="M8.58 11.09c-.02 0-.03-.02-.04-.06a.08.08 0 0 0-.02-.04c-.04-.04-.05-.09-.04-.16.01-.04.04-.05.09-.04a.05.05 0 0 0 .04-.01.4.4 0 0 1 .15-.09l.05.01c.1.07.1.35-.02.4-.03 0-.05 0-.06-.04-.01-.02-.02-.02-.04 0-.03.03-.06.04-.11.03Z" fill="#0E6626"/><path d="m11.46 13.59-.02.02c-.01 0-.02.01-.01.02-.08-.06-.14-.07-.18-.04-.06-.05-.1-.05-.12-.02-.27-.2-.5-.43-.69-.71a7.08 7.08 0 0 1-.63-1.13l.01-.08a.36.36 0 0 1 .1-.1c.13.3.3.64.52 1 .21.37.47.66.77.89l.07.03c.03 0 .06 0 .08-.02l.14-.08c.06-.02.06-.05 0-.08a2.13 2.13 0 0 1-.74-.66c-.26-.36-.56-.76-.74-1.18-.01-.01.08-.13.08-.14 0 0 .02-.05.06-.07.23.55.49 1 .77 1.36.2.26.44.46.72.59.04.02.1 0 .15-.05l.22-.2c.17-.2.26-.38.26-.55l.02-.43c.01-.18.11-.34.3-.48.21-.15.41-.26.61-.34a5.53 5.53 0 0 1 .74-.21l.02.01v.01a4.4 4.4 0 0 0-.7.23c-.27.11-.5.26-.7.44a.73.73 0 0 0-.19.5v.2c0 .25-.08.48-.24.66a65.8 65.8 0 0 0-.17.23h.01c.4 0 .68-.36.74-.74.01-.04.02-.15.02-.33 0-.07.03-.16.06-.27.03-.1.08-.17.14-.23.2-.19.44-.3.71-.36h.02l-.01.02c-.23.09-.43.2-.61.35a.55.55 0 0 0-.2.42l-.04.48c-.01.16-.1.34-.25.53a.8.8 0 0 1-.42.27l-.27.02a.6.6 0 0 0-.41.22Z" fill="#309828"/><path d="m8.51 13.3.07-.11c.19.28.43.46.74.54.07.01.08 0 .02-.05a2.27 2.27 0 0 1-.58-.71.32.32 0 0 0 .1-.11c.15.3.35.55.6.75.19.16.4.23.65.2.04 0 .04 0 0-.03a2.32 2.32 0 0 1-1.02-1.21.28.28 0 0 0 .08-.11l.24.43c.2.33.46.58.76.76.11.06.21.08.3.06.06 0 .12.03.2.09.03.01.05.01.07 0v-.03a.08.08 0 0 0-.02-.02c-.02-.01-.01-.02.02-.04l.03-.02c.14-.03.26-.06.36-.12.02-.03.06-.03.11.02.07.02.13.04.18.04l.02-.02.04-.01c.17.05.35.07.53.06a.97.97 0 0 0 .5-.17c.32-.22.5-.55.55-.99l.01-.36c0-.06.05-.15.14-.26.18-.23.43-.38.76-.44v.03l-.01.01c-.1.04-.24.1-.42.2s-.3.23-.35.38c-.07.2-.02.53-.08.73-.14.55-.47.89-.98 1l-.3.03a.8.8 0 0 0-.28.07c-.14.06-.22.1-.25.1a.79.79 0 0 1-.5-.08c-.08-.04-.26-.03-.37 0-.23.05-.46.05-.68.01l-.39-.06a1.21 1.21 0 0 1-.85-.56Z" fill="#0E6626"/><path d="m8.22 11.55-.03.24c-.06.02-.13-.03-.22-.16.03-.02.06-.02.09-.01l.03.04c0 .02.02.04.03.05.02.02.03.02.03-.02-.01-.16.01-.2.07-.14Z" fill="#B0B6B6"/><path d="M9.48 12.1c.02.02.04.03.04.05.16.36.36.7.6 1 .13.16.3.32.49.48.05.04.1.06.16.06l-.04.02c-.02.02-.03.03 0 .04l.01.02v.03a.05.05 0 0 1-.06 0 .42.42 0 0 0-.2-.09 3.45 3.45 0 0 1-1.05-1.44v-.06l.05-.06v-.01h-.02l.02-.04Z" fill="#309828"/><defs><linearGradient id="a" x1="5.03" y1="7.38" x2="11.06" y2="9.59" gradientUnits="userSpaceOnUse"><stop stop-color="#0E6626"/><stop offset=".41" stop-color="#05403B"/><stop offset=".71" stop-color="#032F23"/><stop offset="1" stop-color="#03643B"/></linearGradient></defs></svg>