<!-- by TradingView --><svg width="18" height="18" viewBox="0 0 18 18" xmlns="http://www.w3.org/2000/svg"><path fill="url(#a)" d="M0 0h18v18H0z"/><path d="M13.96 6.12 9.31 5a.06.06 0 0 0-.04 0l-.01.02-.01.01-.52 1.73a.04.04 0 0 0 0 .04l.01.01h.02l2.61.63.02.01.02.02v.03l-.58 1.93v.03l.02.02h.02l1.94.47a.06.06 0 0 0 .04 0l.01-.02.01-.01L14 6.17v-.03l-.02-.02h-.02Zm-4.72 5.06-2.61-.63a.06.06 0 0 1-.04-.02v-.04l.58-1.93a.03.03 0 0 0 0-.02l-.02-.02h-.01L5.2 8.05h-.05a.05.05 0 0 0-.03.04L4 11.83a.04.04 0 0 0 0 .03l.02.02h.01L8.71 13h.03l.01-.02.52-1.75c.01-.03 0-.04-.03-.05Z" fill="url(#b)"/><defs><linearGradient id="a" x1="3.35" y1="3.12" x2="21.9" y2="24.43" gradientUnits="userSpaceOnUse"><stop stop-color="#1A1E21"/><stop offset="1" stop-color="#06060A"/></linearGradient><linearGradient id="b" x1="5.49" y1="8.03" x2="8.52" y2="12.32" gradientUnits="userSpaceOnUse"><stop stop-color="#70B8FF"/><stop offset="1" stop-color="#F95AA9"/></linearGradient></defs></svg>