<!-- by TradingView --><svg width="18" height="18" fill="none" xmlns="http://www.w3.org/2000/svg"><path fill="#F0F3FA" d="M0 0h18v18H0z"/><path d="M8.5 4.4H4v4.904c.044 2.425 2.052 4.412 4.5 4.696v-1.33c-.847-.193-1.798-.806-1.894-2.076l1.397-.391c-.01.419.178 1.255.998 1.25.82-.005.998-.575.984-.86.031-.185-.122-.636-.984-.954-1.078-.398-2.05-1.154-2.05-2.18 0-.79.842-1.465 1.549-1.734V4.4z" fill="#745DDF"/><path d="M10 13.95c2.31-.426 4-2.383 4-4.733 0-2.35-1.69-4.306-4-4.731V5.76c.47.184.866.55 1.276 1.237 0 .04-.785.564-1.178.82-.135-.408-.673-1.234-1.383-.724-.816.586.532 1.199.958 1.359l.032.012c.456.17 1.71.64 1.69 2.129-.013 1.073-.642 1.702-1.395 1.979v1.376z" fill="#745DDF"/><path d="M8.5 4.4H4v4.904c.044 2.425 2.052 4.412 4.5 4.696v-1.33c-.847-.193-1.798-.806-1.894-2.076l1.397-.391c-.01.419.178 1.255.998 1.25.82-.005.998-.575.984-.86.031-.185-.122-.636-.984-.954-1.078-.398-2.05-1.154-2.05-2.18 0-.79.842-1.465 1.549-1.734V4.4z" fill="#745DDF"/><path d="M10 13.95c2.31-.426 4-2.383 4-4.733 0-2.35-1.69-4.306-4-4.731V5.76c.47.184.866.55 1.276 1.237 0 .04-.785.564-1.178.82-.135-.408-.673-1.234-1.383-.724-.816.586.532 1.199.958 1.359l.032.012c.456.17 1.71.64 1.69 2.129-.013 1.073-.642 1.702-1.395 1.979v1.376z" fill="#745DDF"/><path d="M8.5 4.4H4v4.904c.044 2.425 2.052 4.412 4.5 4.696v-1.33c-.847-.193-1.798-.806-1.894-2.076l1.397-.391c-.01.419.178 1.255.998 1.25.82-.005.998-.575.984-.86.031-.185-.122-.636-.984-.954-1.078-.398-2.05-1.154-2.05-2.18 0-.79.842-1.465 1.549-1.734V4.4z" fill="#2EB6EA"/><path d="M8.5 4.4H4v4.904c.044 2.425 2.052 4.412 4.5 4.696v-1.33c-.847-.193-1.798-.806-1.894-2.076l1.397-.391c-.01.419.178 1.255.998 1.25.82-.005.998-.575.984-.86.031-.185-.122-.636-.984-.954-1.078-.398-2.05-1.154-2.05-2.18 0-.79.842-1.465 1.549-1.734V4.4z" fill="#2EB6EA"/></svg>