<!-- by TradingView --><svg width="18" height="18" viewBox="0 0 18 18" xmlns="http://www.w3.org/2000/svg"><path fill="url(#a)" d="M0 0h18v18H0z"/><circle cx="9" cy="9" r="6" fill="url(#b)"/><ellipse cx="9.27" cy="9" rx="5.38" ry="5.29" fill="url(#c)"/><circle cx="9.18" cy="9" r="4.76" fill="url(#d)"/><path d="M10.06 8.63v.63l1.27 2c.14.22.44.28.65.12a.53.53 0 0 0 .1-.7l-1.1-1.64v-.27l1.03-1.5a.49.49 0 0 0-.06-.62.41.41 0 0 0-.64.08l-1.25 1.9Zm-1.41-1.6c0-.27.2-.5.44-.5s.44.23.44.5v1.82c0 .28-.2.5-.44.5-.25 0-.44-.22-.44-.5V7.03Zm-2.47 3.18v-3.2c0-.27.2-.48.46-.48s.42.21.42.48V9.9c0 .34.31.69.64.69h1.9c.26 0 .47.13.47.4s-.2.48-.46.48H7.39c-.67 0-1.21-.56-1.21-1.26Z" fill="url(#e)"/><defs><linearGradient id="a" x1="3.35" y1="3.12" x2="21.9" y2="24.43" gradientUnits="userSpaceOnUse"><stop stop-color="#1A1E21"/><stop offset="1" stop-color="#06060A"/></linearGradient><linearGradient id="b" x1="3.41" y1="8.44" x2="14.64" y2="8.44" gradientUnits="userSpaceOnUse"><stop offset=".19" stop-color="#1B1B1B"/><stop offset="1" stop-color="#575757"/></linearGradient><linearGradient id="c" x1="4.25" y1="8.51" x2="14.32" y2="8.51" gradientUnits="userSpaceOnUse"><stop offset=".03" stop-color="#303030"/><stop offset="1" stop-color="#1E1E1E"/></linearGradient><linearGradient id="d" x1="4.73" y1="8.56" x2="13.65" y2="8.56" gradientUnits="userSpaceOnUse"><stop offset=".03" stop-color="#575757"/><stop offset="1" stop-color="#1A1A1A"/></linearGradient><linearGradient id="e" x1="5.57" y1="8.91" x2="11.96" y2="11.19" gradientUnits="userSpaceOnUse"><stop stop-color="#CDFE78"/><stop offset=".66" stop-color="#54FEB8"/><stop offset="1" stop-color="#08FFE2"/></linearGradient></defs></svg>