<!-- by TradingView --><svg width="18" height="18" viewBox="0 0 18 18" xmlns="http://www.w3.org/2000/svg"><path fill="#181B1E" d="M0 0h18v18H0z"/><path fill-rule="evenodd" d="M9 14A5 5 0 1 0 9 4a5 5 0 0 0 0 10Zm-.01-.3a2.65 2.65 0 1 1 .02 0c1.78 0 3.4-1.51 3.4-3.38A3.41 3.41 0 0 0 9 7a3.41 3.41 0 0 0-3.41 3.32 3.46 3.46 0 0 0 3.4 3.39Zm2.36-2.35c0 1.3-1.04 2.35-2.34 2.36.97-.01 1.75-.73 1.75-1.62 0-.9-.79-1.62-1.76-1.62s-1.76.72-1.76 1.62c0 .89.78 1.6 1.75 1.62a2.35 2.35 0 1 1 2.36-2.36ZM13 10.03c0 2.02-1.87 3.66-3.97 3.68a4.41 4.41 0 0 0 4.38-4.42C13.41 6.86 11.44 5 9 5a4.31 4.31 0 0 0-4.41 4.3c0 2.42 1.96 4.4 4.38 4.4-2.1 0-3.97-1.65-3.97-3.67C5 8 6.89 6.35 9 6.35c2.11 0 4 1.65 4 3.68ZM9.57 13.5a1.43 1.43 0 1 0-1.14 0 .88.88 0 0 1-.31-.68c0-.48.4-.82.88-.82.49 0 .88.34.88.82 0 .28-.12.52-.31.68Z" fill="#fff"/></svg>