<!-- by TradingView --><svg width="18" height="18" viewBox="0 0 18 18" xmlns="http://www.w3.org/2000/svg"><path fill="#F0F3FA" d="M0 0h18v18H0z"/><path d="M9.05 4.04a.8.8 0 0 1 .33.14l.17.13a.6.6 0 0 0 .18.1 2.17 2.17 0 0 0 .54.1l.28.04.72.11a2.7 2.7 0 0 1 .97.3c.06.03.06.03.01-.02a.23.23 0 0 1-.05-.1l.14.14.15.4a1.93 1.93 0 0 0-.97-.27l-.42-.04a3.8 3.8 0 0 1-.86-.26 13.97 13.97 0 0 1-1-.46.53.53 0 0 0-.36.04c-.11.04-.2.07-.27.08l-.44.07c-.14.03-.31.1-.5.2l-.48.3c-.1.07-.22.13-.34.17-.09.03-.21.07-.37.1-.23.06-.4.12-.52.2a14.74 14.74 0 0 0-.52.3l.04-.13c.05-.23.1-.4.16-.5.04.1.1.15.17.14l.1-.05a.43.43 0 0 1 .2-.09c.12 0 .2-.01.23-.03l.07-.04.17-.08.21-.1a5.82 5.82 0 0 1 .66-.34c.09-.02.16-.05.22-.08l.25-.09.45-.13c.17-.05.3-.12.42-.21l.1-.07h.04c.03.04.07.05.12.03Z" fill="#C92428"/><path d="M12.2 4.84c.01.05.03.08.05.1.05.05.04.05 0 .02a2.7 2.7 0 0 0-.98-.3 12.43 12.43 0 0 1-1-.15 7.3 7.3 0 0 1-.54-.1.6.6 0 0 1-.18-.1l-.17-.13a.8.8 0 0 0-.34-.14.31.31 0 0 1 .18 0 .91.91 0 0 1 .18.1l.1.04a4.48 4.48 0 0 1 .94.2l.28.06h.14l.13-.01c.24 0 .46.03.66.08.2.06.38.17.55.33ZM8.79 4.08c-.11.09-.25.16-.42.21a11.32 11.32 0 0 1-.7.22c-.06.03-.13.06-.22.08a5.83 5.83 0 0 0-.66.34l-.21.1a1.33 1.33 0 0 0-.24.12.66.66 0 0 1-.23.03.43.43 0 0 0-.2.1.26.26 0 0 1-.1.04c-.07.01-.13-.04-.17-.15.1-.18.23-.31.38-.39a7.97 7.97 0 0 0 .33-.16.59.59 0 0 1 .14-.05.9.9 0 0 0 .2-.04c.02 0 .02-.02 0-.03h-.02l.2-.03a48.27 48.27 0 0 1 .66-.07 2.11 2.11 0 0 1 .51-.16h.27a1 1 0 0 0 .3-.1 1.63 1.63 0 0 1 .18-.06Z" fill="#D92C2A"/><path d="m12.34 4.98.05.05.13.44v.02c-.23.09-.46.11-.68.06a6.7 6.7 0 0 1-1.3-.46 7.37 7.37 0 0 0-.43-.18 2.2 2.2 0 0 0-.44-.13 5.66 5.66 0 0 0-1.13-.05.9.9 0 0 0-.63.3l-.3.34c-.1.1-.21.2-.37.3a6.56 6.56 0 0 1-.65.4c-.03 0-.1.05-.2.13a.3.3 0 0 0-.12.03l-.02.03c0 .02 0 .03.02.04l.03.03v.02l-.02.44a.66.66 0 0 1-.4-.06.94.94 0 0 1-.23-.17.68.68 0 0 1-.17-.25 1.17 1.17 0 0 1-.04-.5l.13-.07.39-.24c.12-.07.29-.13.52-.18l.37-.11c.12-.04.23-.1.34-.17l.48-.3c.19-.1.36-.17.5-.2l.43-.07c.08 0 .17-.04.28-.08a.53.53 0 0 1 .36-.04l.23.1c.35.17.6.3.77.36a3.8 3.8 0 0 0 1.53.32 1.93 1.93 0 0 1 .72.25l-.15-.4Z" fill="#BA1A1F"/><path d="M6.67 4.5h.02c.02.01.02.02 0 .03a.9.9 0 0 1-.2.04.59.59 0 0 0-.14.05 3.43 3.43 0 0 1-.2.09l-.13.07a.96.96 0 0 0-.38.4 2.9 2.9 0 0 0-.2.63c-.02.22 0 .38.04.5.03.09.09.17.17.25.07.07.15.13.24.17.12.06.25.08.39.06l-.06.05v.03l.02.01.12-.02s.02 0 .02-.02v-.02l-.04-.04v-.02a12.41 12.41 0 0 1 .03-.29l.05.37c0 .01 0 .02.02.02l.04-.02v-.11l.02-.04a80.6 80.6 0 0 1 .04-.31h.01v.37l-.02.01a.07.07 0 0 0-.03.03l-.01.04.01.01a.77.77 0 0 0 .16-.03.27.27 0 0 1 .11-.02h.05c.01 0 .03 0 .03-.03l-.01-.04-.02-.02-.01-.03v-.06l.02-.02c.06 0 .11 0 .15.05v.03c0 .03-.03.06-.06.06l-.01.02v.02c0 .01 0 .02.02.02s.06 0 .1-.02v-.01l-.04-.01v-.01c.03 0 .05 0 .08.02l.02.01h.22l.06-.02a.2.2 0 0 1 .08 0 .2.2 0 0 0 .09 0l.25-.02a3.2 3.2 0 0 0 .35-.03 2.5 2.5 0 0 0 0-.08v-.16h-.05l-.02.04-.03.1c0 .03-.02.05-.04.06a.19.19 0 0 1-.08 0c-.04 0-.06-.01-.07-.05v-.15c0-.03 0-.04.02-.05l.05.01c.02.02.03.06.03.1l.02.03.01.01.02-.01A5.03 5.03 0 0 0 8 6.2l-.02-.02-.01.02c0 .07-.04.11-.1.13l-.01-.02a.53.53 0 0 1 0-.2l.01-.02h.06c.05 0 .08.03.1.07l.06.12.04.02.01-.01-.01-.2c0-.04-.02-.06-.04-.06a1.71 1.71 0 0 0-.42.01c-.02.02-.04.03-.06.02a.1.1 0 0 0-.09 0l-.1.02-.09-.02h-.1a.33.33 0 0 1-.07.01c-.01 0-.02.01-.01.03v.01c0 .02.01.03.03.03.04 0 .06.03.06.08a10.15 10.15 0 0 0 0 .44.06.06 0 0 1-.05.03h-.04c-.04.01-.06 0-.07-.05l-.14-.54c0-.01-.01-.02-.02-.01-.02 0-.04.03-.04.06l-.06.21a.42.42 0 0 0-.02.12l-.03.08a.93.93 0 0 0-.03.15l-.01.01-.06.01h-.02a2.89 2.89 0 0 1 .01-.52.25.25 0 0 0 .05-.07v-.02h-.11c-.03 0-.05.03-.06.06l-.07.33c0 .01 0 .01 0 0l-.07-.32a4.97 4.97 0 0 1 .85-.53c.16-.1.28-.2.37-.3l.3-.34a.9.9 0 0 1 .63-.3c.4-.02.78 0 1.13.05.14.02.29.07.45.13a7.38 7.38 0 0 1 .59.26c.33.15.71.27 1.13.38.22.05.45.03.67-.06l.01-.02-.13-.44c.07.1.13.2.17.31l-.03.7c-.02.23-.06.43-.13.59l-.42.96c-.08.17-.12.3-.14.39l-.1.47c-.07.23-.17.44-.3.63-.06.1-.13.18-.21.24a.57.57 0 0 1-.28.13h-.26c-.1 0-.2-.03-.3-.06a.43.43 0 0 0-.14-.02.71.71 0 0 1-.14 0 .3.3 0 0 0 .06 0c.06-.01.06-.02 0-.03a53.16 53.16 0 0 0-1-.06 6.22 6.22 0 0 0-.89.08l-.2.03a18.85 18.85 0 0 1-1.13.2.46.46 0 0 1-.14.04 13.75 13.75 0 0 0-.36.06v.01l.47-.03a21.63 21.63 0 0 1-.8.1 3.46 3.46 0 0 1-.77-.03l.03-.09-.01-.02c-.04-.02-.06-.06-.06-.11 0-.03-.01-.05-.04-.05-.09 0-.13-.05-.13-.16a8.38 8.38 0 0 1 .06-.86 57.74 57.74 0 0 1 .05-1.04v-.78a9.21 9.21 0 0 1 .13-1.02c.1-.42.32-.73.66-.9.2-.1.4-.17.63-.2Z" fill="#AA151C"/><path d="m12.56 5.34.06.16.12.85a7.54 7.54 0 0 1 .06 1.4v.12l.03.4a.12.12 0 0 0-.1.05v.01c-.02 0-.02 0-.02-.02h-.02a1.02 1.02 0 0 0 0 .06.64.64 0 0 0 0 .22c0 .01 0 0 0 0v-.02l.02-.02.15-.05.02.1c-.06 0-.1.02-.16.05-.02 0-.03.02-.03.03l-.01.04c0 .01 0 .02.01.01l.18-.06.01.31v.2a.34.34 0 0 1-.08.15.76.76 0 0 1-.11.1l-.07.04v.02c0 .07-.01.12-.07.15l-.02.03a.89.89 0 0 1-.44.04 3.77 3.77 0 0 1-.86-.13.46.46 0 0 0-.1-.02L11 9.53l-.3-.07h.26a.57.57 0 0 0 .28-.14c.08-.06.15-.14.21-.24.13-.2.23-.4.3-.63l.1-.47c.02-.1.07-.22.14-.4l.42-.95c.07-.16.11-.36.13-.6l.03-.69Z" fill="#9A1218"/><path d="m10.43 6.15.02.07v.08c0 .08-.03.12-.1.13a.23.23 0 0 0-.1.03h-.01c-.02-.02-.02-.04-.01-.07h.12c.01 0 .03 0 .04-.02a.06.06 0 0 0 .02-.04c0-.11-.06-.16-.16-.15l-.01.01v.03a.05.05 0 0 0-.03.04v.05l-.01.02a.2.2 0 0 0-.01.06c0 .12 0 .23-.04.34l-.02.01c-.07.01-.1 0-.07-.05l.06-.06a1.78 1.78 0 0 0 0-.4l-.02-.06a.03.03 0 0 0-.02-.02h-.04v.19H10L10 6.32v-.04a.25.25 0 0 0-.06-.12l-.02-.01-.11-.02h-.03l-.01.03v.17a.3.3 0 0 1 0 .12c-.01.04-.02.1-.01.19 0 .02 0 .03.03.04h.1c.03 0 .06 0 .08-.04a2.42 2.42 0 0 1 .06-.15h.02v.02c0 .07-.02.14-.06.21 0 .02-.02.02-.07.03l-.37-.04-.02.02-.01.02c-.03 0-.06 0-.1-.02h-.13l-.03.01h-.01V6.7c0-.02 0-.02.02-.02h.05a5.26 5.26 0 0 0 .04-.42c0-.08-.02-.08-.04 0l-.12.47h-.01c-.03 0-.04 0-.05-.02a.5.5 0 0 1-.02-.1v-.09a10.62 10.62 0 0 1-.12-.4v.02c.02.03.03.08.02.13A.83.83 0 0 0 9 6.6v.02l-.01.03v.01h.06v.05h-.13a3.74 3.74 0 0 1-.3 0c-.02 0-.03-.02-.03-.06h.05l.01-.01v-.02l-.02-.07.01-.12v-.01L8.6 6.4l-.02-.03c0-.1-.03-.2-.07-.3l.02-.04c.03-.04.05-.04.06.02a11.68 11.68 0 0 1 .14.5c0 .04.02.06.04.08l.03.01h.08c.03 0 .04-.01.04-.04a836.57 836.57 0 0 1 0-.49l-.02-.01a.6.6 0 0 0-.04-.02l-.01-.02c0-.01 0-.02.02-.02h.16c.02.01.04.03.05.08v.01l.07.25c.01.1.03.1.06.01l.09-.31s0-.02.02-.02a9.68 9.68 0 0 1 .27 0c.05-.02.1-.02.14-.01a7.32 7.32 0 0 0 .38.04c.08 0 .19.01.31.05Z" fill="#F1E4EE"/><path d="M8.63 6.56c-.04-.05-.1-.06-.16-.03l-.02.01a.2.2 0 0 0-.01.07l.01.02.05.02c.02 0 .02 0 .02.02v.01c0 .02-.02.02-.03.01l-.04.01h-.16l-.01-.03v-.03h.05l.01-.02.04-.09a.78.78 0 0 0 .03-.1l.07-.2a2.32 2.32 0 0 1 .04-.15c.04.1.06.2.07.3 0 .02.01.02.02.03.01 0 .02 0 .03.02v.01l-.01.12Z" fill="#E2C6D4"/><path d="m7.46 6.31.09-.12.07-.07a.15.15 0 0 1 .1 0c.02 0 .03.02.03.04v.46c0 .02 0 .03-.02.03a.24.24 0 0 1-.1.02l-.03-.02-.14-.32v-.02ZM9.56 6.11h.05c.03 0 .05.02.05.06V6.65a.42.42 0 0 1-.2.04c-.02 0-.03-.01-.03-.04v-.48c0-.02 0-.03.02-.04h.03l.06-.01h.02Z" fill="#AA151C"/><path d="M7.4 6.12c.02-.02.04 0 .06.02.01.03.01.06-.01.09a.51.51 0 0 0-.1.14c-.01.03-.02.03-.03 0v-.18c.01-.04.03-.05.06-.06l.02-.01ZM10.06 6.7l-.08.02a.38.38 0 0 0 .07-.2l-.01-.03H10L10 6.5a2.4 2.4 0 0 0-.04.14c-.02.03-.05.05-.08.05l-.1-.01c-.02 0-.03-.02-.03-.04v-.19a.3.3 0 0 0 0-.12v-.17l.02-.03h.03l.1.02h.03c.02.03.04.07.05.13l.01.04.02.02h.02l.01-.02v-.17h.04l.02.02.03.07v.02c.01.14 0 .27-.01.37 0 .02-.03.04-.06.06Z" fill="#9A1218"/><path d="M10.83 6.22a.1.1 0 0 0-.08-.03c-.02 0-.03.01-.02.03l-.01.15v.1a2.76 2.76 0 0 1-.02.28v.03h-.03l-.22-.01c-.02 0-.02-.01-.03-.03 0-.03-.01-.04-.04-.04l-.1-.2c.02-.02.04-.02.07.02l.11.1c.04.06.1.1.17.11.02 0 .03 0 .03-.03a7.4 7.4 0 0 0 0-.47.12.12 0 0 0-.04-.04.06.06 0 0 1-.02-.02v-.03l.23.02c.02 0 .03.01.03.02v.04h-.03Z" fill="#E2C6D4"/><path d="M10.21 6.18c0 .01-.01.02-.03.01-.03-.02-.05-.03-.04-.04h.05c.02 0 .02.01.02.03ZM10.46 6.61a.35.35 0 0 1-.1-.1c-.04-.03-.06-.03-.08-.01h-.04l-.01.01v.13c-.01.04.01.06.06.06.03 0 .04 0 .03.03v.02c-.01.02-.03.04-.05.03l-.36-.03c.05 0 .07-.01.07-.03l.08-.03c-.03.05 0 .06.07.05l.02-.01c.03-.1.05-.22.04-.34l.01-.06V6.3l.01-.05c0-.01 0-.03.02-.04a.41.41 0 0 0 0 .17v.06h.03a.23.23 0 0 1 .08-.02c.08-.01.11-.05.1-.13 0-.02 0-.04.02-.06v-.02a.18.18 0 0 1-.03-.07c.05.05.08.1.09.17 0 .03 0 .07-.03.1a.52.52 0 0 1-.06.07v.02c0 .03 0 .07.03.1Z" fill="#C9969F"/><path d="M10.23 6.4a.42.42 0 0 1 0-.18V6.2l.02-.01c.1-.01.16.04.16.15l-.02.04a.05.05 0 0 1-.04.02h-.12Z" fill="#9A1218"/><path d="M10.83 6.22c-.04 0-.06.03-.06.06l-.01.4c0 .03 0 .07.02.1-.01.02 0 .04.02.05a7.82 7.82 0 0 1-.38-.05l-.02-.02-.02-.06c.03 0 .04.01.04.04 0 .02.01.03.03.03l.22.02.02-.01.01-.03c0-.01 0-.03.02-.04v-.03a.1.1 0 0 1-.01-.06v-.05a2.76 2.76 0 0 0 0-.2c.02-.04.02-.09.02-.15 0-.02 0-.03.02-.03a.1.1 0 0 1 .08.03Z" fill="#C9969F"/><path d="M11.06 6.29a.63.63 0 0 0-.05.38c0 .05.02.09.04.1.03.03.06.04.1.04l.02-.01a.21.21 0 0 0 .05-.11c0-.02.01-.03.03-.02v.02l.02.02c0 .05-.02.1-.04.13a.11.11 0 0 1-.1.06.18.18 0 0 1-.14-.06.46.46 0 0 1-.08-.15.3.3 0 0 1-.03-.1c0-.1.01-.2.06-.28.05-.1.13-.13.23-.09a.2.2 0 0 0 .08.02l.03.01V6.5l-.02.02h-.02l-.02-.01v-.16c0-.03-.03-.05-.07-.06a.13.13 0 0 0-.07 0l-.02.01Z" fill="#E2C6D4"/><path d="m9.89 6.3-.01-.04.01-.02.02.01.01.02-.01.3-.01.02h-.02V6.47l-.02-.03-.08-.03-.01-.02v-.02l.11-.06.01-.01Z" fill="#EDEDED"/><path d="m8.48 6.44.04-.13.02-.01.02.01.04.13c0 .01 0 .02-.02.02l-.1-.01v-.01Z" fill="#9A1218"/><path d="M11.39 6.78c0 .04-.02.06-.03.07l-.02.01a.14.14 0 0 1-.06.06c-.02-.02-.02-.04 0-.06a.27.27 0 0 0 .05-.1 29.15 29.15 0 0 0 .13-.44c.02-.03.03-.03.04 0 .02.04.02.07.02.09v.08a3.16 3.16 0 0 0 .12.5h.04c.02 0 .02.02.02.03v.02c0 .01 0 .02-.02.01a.3.3 0 0 1-.06-.03.15.15 0 0 0-.08-.02h-.03c-.01 0-.02-.01-.02-.03v-.03c.05-.03.05-.08.02-.14l-.02-.01a.24.24 0 0 0-.1 0Z" fill="#B6B6B6"/><path d="M6.91 6.4c0 .02 0 .04.02.06v.05l-.09.01a.8.8 0 0 1 .03-.12c0-.02.01-.03.03-.03l.01.01v.02ZM7.46 6.67c-.05.02-.08.02-.1 0-.03-.03-.04-.06-.03-.1a.86.86 0 0 1 .04-.11l.01-.01h.02l.08.18c0 .02 0 .04-.02.04ZM11.5 6.72l-.07-.02c-.02 0-.02-.01-.02-.03l.03-.13c0-.03.01-.03.02 0l.04.17Z" fill="#9A1218"/><path d="M8.61 7.24a1 1 0 0 0-.1.04c-.01 0-.02 0-.02.02l-.01.1c0 .03-.02.05-.03.06l-.01.01c-.02.01-.03 0-.03-.01v-.24c0-.03.02-.04.04-.04h.38c.03 0 .05.02.06.06v.22l-.01.02h-.03c0-.1-.03-.17-.07-.22-.01-.02-.02-.03-.03-.02a.06.06 0 0 0-.03.05l-.01.4c0 .08.02.12.07.12.01 0 .02 0 .02.02v.01l-.01.02h-.05l-.07.01h-.15l-.02-.02v-.02c0-.01 0-.02.02-.02l.08-.03v-.02l.01-.52ZM7.75 7.9a.92.92 0 0 0-.29-.02l-.03-.01-.14-.2a.17.17 0 0 0-.1-.07c-.04.03-.05.1-.03.18v.02l.06.04c.01.01.02.03.01.04h-.01c-.04 0-.07 0-.1.03h-.15l.01-.06h.05v-.02a1.7 1.7 0 0 0 .01-.48l-.01-.02h-.05l-.01.02v.16c0 .01 0 .02-.02.03h-.01l-.01-.02-.08-.14a.06.06 0 0 0-.04-.04l-.05.01a.15.15 0 0 0-.05.07.67.67 0 0 0-.04.34c.02.08.05.12.12.12.01 0 .02 0 .02-.02a.4.4 0 0 0 .03-.14c0-.01 0-.02-.02-.02h-.04v-.01l-.01-.02.01-.02A.65.65 0 0 1 7 7.61v.02a.14.14 0 0 1-.04.05l-.01.02c0 .08 0 .14-.03.19a.13.13 0 0 1-.1.06c-.11 0-.19-.04-.23-.13a.42.42 0 0 1-.02-.22.64.64 0 0 1 .06-.22c.05-.1.12-.13.2-.1H6.93l.01-.04h.02c0 .02.01.02.02.03h.01l.26-.03.12.03c.03.02.05.05.06.1a.2.2 0 0 1-.08.2c-.02.02-.02.04-.01.06l.06.11c.02.04.05.06.1.06h.02l.02-.04v-.44c0-.02-.01-.03-.02-.03-.04 0-.06-.02-.07-.05l.01-.02c.13-.02.27-.03.42-.02.02 0 .03.01.03.04v.2c0 .02 0 .03-.02.03s-.03-.01-.04-.04a1.9 1.9 0 0 0-.05-.13.21.21 0 0 0-.11-.03c-.03 0-.04 0-.04.03l-.01.16v.03h.03c.05-.01.08-.05.08-.1l.01-.02.02.01c.02.1.03.2 0 .31 0 .02-.01.03-.02.03h-.02c0-.04 0-.09-.02-.13 0-.01 0-.02-.02-.02h-.05c-.01-.02-.02-.01-.02 0v.23c0 .01 0 .02.02.03.06.01.1 0 .15-.03a.24.24 0 0 0 .05-.16l.02-.01h.03c.02 0 .02 0 .02.02l-.01.17v.01h.05v-.01c.01-.03.02-.06.05-.09v-.02c0-.04.01-.1.05-.17a.96.96 0 0 0 .07-.26c0-.05.02-.08.06-.09l.02.01.17.62.02.02h.05c.01 0 .02 0 .02.02s0 .03-.02.03l-.24-.01c-.02 0-.03-.01-.01-.03a.16.16 0 0 1 .06-.04v-.02c-.02-.08-.08-.11-.17-.1-.02 0-.03 0-.03.03v.07l.01.02.04.01c.01 0 .02 0 .02.02v.01l-.01.01-.36.04Z" fill="#E2C6D4"/><path d="M9.53 7.84h.05c.02 0 .02.01.01.02v.02c0 .01-.01.02-.03.02l-.23-.02-.01-.01v-.02l.04-.02c.02-.01.03-.03.02-.05l-.03-.06c0-.01 0-.02-.02-.02L9.2 7.7c-.01 0-.02 0-.03.02a.2.2 0 0 0 0 .07c0 .02 0 .03.02.03l.05.01.01.02v.01l-.01.01H9.1a.13.13 0 0 1-.04.01c-.02 0-.04 0-.05-.03v-.01c.05-.02.08-.06.09-.11a2 2 0 0 1 .09-.3l.04-.15a.1.1 0 0 1 .06-.07h.01l.01.01v.09a.9.9 0 0 1 .06.17l.04.13.04.13.02.04.03.05.02.02Z" fill="#F1E4EE"/><path d="M10.06 7.3a.26.26 0 0 0 0 .16.1.1 0 0 1 0 .03l-.02.02h-.02L10 7.49l-.03-.1c0-.04-.02-.07-.05-.09-.04-.02-.07-.02-.1 0a.25.25 0 0 0-.07.1.38.38 0 0 0 .02.35c.02.05.05.07.08.08.04.02.07 0 .1-.05a.39.39 0 0 0 .02-.13l-.01-.02a.13.13 0 0 1-.07.02c-.01 0-.02-.01-.02-.03v-.01c0-.02 0-.02.02-.02.09 0 .17.01.24.04v.01c0 .02 0 .03-.02.02h-.03c-.02 0-.03.01-.03.03v.23h-.02L10 7.88v-.1l-.01.01c-.01.05-.03.09-.07.1-.03.02-.06.02-.1 0a.31.31 0 0 1-.17-.17.4.4 0 0 1 0-.34.27.27 0 0 1 .14-.14c.05-.03.12-.02.19.04l.02-.01c0-.01.01-.02.03-.02h.01l.02.05Z" fill="#EDEDED"/><path d="m10.4 7.29-.02.08v.03l.01.02.01.01.08.27v.02c-.02.01-.02.03-.01.04a4.27 4.27 0 0 1 .04.15c-.01.02-.03.02-.05.02l-.01.02h-.04v-.03l.02-.02.02-.01.01-.02a.28.28 0 0 0-.04-.1c0-.01 0-.02-.02-.02h-.1c-.04.04-.05.07-.04.12 0 .01.01.02.03.01.02 0 .03 0 .05.02v.03c-.05 0-.08 0-.1-.04h-.02a.08.08 0 0 0-.03.03l-.01.02h-.02l-.02-.02v-.04c.04-.04.07-.09.07-.13.03-.1.05-.2.09-.28l.01-.07c0-.07.03-.11.06-.13h.02v.02Z" fill="#F1E4EE"/><path d="M10.59 7.94a.12.12 0 0 0-.03.04l-.11-.03v-.02h.01c.02 0 .04 0 .05-.02v-.05a4.76 4.76 0 0 0-.04-.14l.01-.02-.08-.27a.1.1 0 0 1-.02-.03v-.03l.02-.08.19.65Z" fill="#C9969F"/><path d="M11.07 7.5a.6.6 0 0 0 .08.24l.03.08.02.09h.01l.01-.02v-.1a.7.7 0 0 0 0-.29l-.02-.05a.21.21 0 0 1-.03-.06l.02-.01c.07 0 .1.01.12.02l.03.04c0 .04-.01.05-.04.02l-.02-.01-.01.01v.13a4.4 4.4 0 0 1 0 .49h.02l-.01.02h-.04l-.01-.01a9.81 9.81 0 0 0-.24-.53v.32l-.01.02-.05.1-.03.02h-.07l-.07-.03c0-.01.01-.02.03-.02l.04-.01c.06.01.1-.01.1-.07a19.81 19.81 0 0 1-.02-.5h-.07a.19.19 0 0 1-.07-.03h-.02l-.01.02v.5a.1.1 0 0 1-.03.07h-.02c-.02 0-.04 0-.06.02l-.02.01h-.05l.03-.04.1-.03v-.02l.02-.06-.01-.34c0-.08-.02-.12-.05-.13-.02 0-.02 0-.03-.03v-.02c0-.02 0-.02.02-.02l.18.05h.02c.05-.02.1-.01.14.02.03.01.06.06.09.13v.01Z" fill="#E2C6D4"/><path d="M7.3 7.36c.02.01.02.03.02.05l-.02.05a.16.16 0 0 1-.06.07c-.02.02-.04.02-.06.01-.02-.01-.03-.03-.03-.06l.01-.1.02-.04c.01-.02.02-.03.04-.02l.08.04Z" fill="#9A1218"/><path d="M10.84 7.4c-.02 0-.04.02-.04.05v.46c0 .04 0 .05.03.05h-.04c-.02 0-.03.02-.03.03h-.17.02l.02-.02c.01-.02.03-.02.06-.01h.02a.1.1 0 0 0 .04-.09 24.96 24.96 0 0 0 0-.51h.02c.02.02.04.03.07.03Z" fill="#C9969F"/><path d="M10.82 7.96a21.65 21.65 0 0 0-.02-.5c0-.04.02-.06.04-.07h.07l.02.02v.48c0 .06-.04.08-.1.07ZM8.18 7.44c0 .07 0 .12.03.17v.01h-.12l-.01-.01.07-.2c0-.02.01-.02.02 0v.03ZM9.22 7.54l.03-.1c0-.04.02-.05.03 0a5.07 5.07 0 0 1 .05.2l-.12-.02c-.02 0-.02 0-.01-.02v-.02l.02-.04ZM10.34 7.51V7.5h.03l.05.18v.02l-.02.01-.08-.01h-.02l-.02.01c-.02.03-.02.03-.01 0a.45.45 0 0 1 .06-.16l.01-.03Z" fill="#9A1218"/><path d="m7.75 7.9-.28.01a.38.38 0 0 1-.16-.04l-.01-.02-.1-.25c.03.01.06.04.09.07a4.95 4.95 0 0 0 .17.21c.1 0 .2 0 .3.02ZM10.99 7.67v.28l.02.01a.15.15 0 0 0-.05.07c-.04.01-.08 0-.14-.01h.08c.01 0 .02 0 .02-.02l.06-.1V7.67ZM12.71 8.2l-.01.05c-.01-.04 0-.07.02-.1h.06c.03.03.03.04-.02.04h-.03l-.02.01ZM12.83 8.27l.01.08-.13.04-.01.02v.08l.15-.06v.07l-.14.05-.01.02v.02h-.02l.01-.22v-.05c0-.02 0-.02.01 0l.02.01h.02a.12.12 0 0 1 .1-.06Z" fill="#C9969F"/><path d="M12.84 8.35v.08l-.13.06-.02-.01V8.4l.02-.02.13-.04Z" fill="#9A1218"/><path d="m12.88 8.6-.01.07-.18.06h-.01v-.05l.04-.03c.05-.03.1-.04.16-.05Z" fill="#E2C6D4"/><path d="M10.69 9.46a3.06 3.06 0 0 1 .44.1l.1.02c.03.02.06.02.1.02l.18.04a3.77 3.77 0 0 0 .64.08c.14 0 .26 0 .38-.05 0 .04 0 .08.02.12a.18.18 0 0 0-.14-.01.55.55 0 0 1-.11.03l-.17-.01a332.1 332.1 0 0 0-.48-.07 16 16 0 0 0-1.43-.3h.08v-.01c-.02-.02-.08-.01-.16 0l-.4-.03a11.48 11.48 0 0 0-2.83.28l-.46.03v-.01l.36-.06c.04 0 .09-.02.14-.04a18.85 18.85 0 0 0 1.37-.23l.23-.02a6.22 6.22 0 0 1 1.02-.05 45.78 45.78 0 0 0 .82.1l.3.07Z" fill="#9A1218"/><path d="M10.14 9.42a.52.52 0 0 1 .06 0h-.02c-.02.02-.02.03 0 .03l.15.03a27.65 27.65 0 0 0 .82.21c.16.04.31.11.44.21a5.1 5.1 0 0 1 .53.46l.7.68c.08.28.13.58.17.87l-.01.33-.03.13-.1.05a.67.67 0 0 1-.46 0 5.18 5.18 0 0 1-.54-.22 5.13 5.13 0 0 0-1.14-.42.7.7 0 0 0 .11-.25c.02-.07.03-.17.03-.28l-.01-.02a6.62 6.62 0 0 0-1-.22 4 4 0 0 0-.5-.04v-.01a2.5 2.5 0 0 1 .8.07l.14.02a145.25 145.25 0 0 0 .6.16.18.18 0 0 0 .09-.15l-.01-.02a10.28 10.28 0 0 0-1.11-.27v-.01a10.62 10.62 0 0 1 1.19.26c.02.01.03 0 .03-.02v-.12c0-.03-.02-.05-.04-.06a.74.74 0 0 0-.25-.06c-.01 0-.02 0-.01-.02l.01-.03h.02l.05.03c.07 0 .13.03.2.06.02.02.03.01.04-.02l.02-.13c.01-.03 0-.05-.03-.06a11.3 11.3 0 0 0-.98-.22l.01-.02c.07 0 .14.02.2.03a11.71 11.71 0 0 0 .62.15l.3.07c.07 0 .14 0 .2-.03a2.07 2.07 0 0 0-.77-.65c-.4-.2-.8-.36-1.19-.46a1.06 1.06 0 0 0-.25-.04h-.35a4.53 4.53 0 0 1 1.27 0Z" fill="#C92428"/><path d="m12.55 9.79.28 1.25a1295.88 1295.88 0 0 1-.97-.91c-.12-.11-.2-.19-.27-.23a1.3 1.3 0 0 0-.44-.21 27.8 27.8 0 0 1-.82-.21l-.14-.03c-.03 0-.03 0 0-.02h.01c.01 0 .01 0 0 0h-.06c.08-.02.14-.03.16-.01l-.08.01h.1c.08.03.14.04.21.05l.2.04a15.97 15.97 0 0 1 1 .24 351.85 351.85 0 0 1 .57.05l.11-.03c.05-.02.1-.01.14 0Z" fill="#AA151C"/><path d="M10.72 11.78a4.71 4.71 0 0 0-3.17.17 14.96 14.96 0 0 0-.96.33 18.21 18.21 0 0 1-.76.28 6.3 6.3 0 0 0-.26.07 2 2 0 0 0-.15 0s0 .01 0 0l-.1-.01a.7.7 0 0 0-.2-.15.5.5 0 0 1-.05-.14 2.41 2.41 0 0 1-.05-.86 8.03 8.03 0 0 1 .33-1.73h.07l.07.01a3.46 3.46 0 0 0 .95-.01 21.69 21.69 0 0 0 .93-.16l.52-.07a11.48 11.48 0 0 1 1.33-.09 6.02 6.02 0 0 1 1.82.73 2.07 2.07 0 0 1 .39.42.35.35 0 0 1-.2.03l-.3-.07a5.13 5.13 0 0 0-.83-.17v.01l.01.01.12.01c.27.06.56.12.85.2.03 0 .04.03.03.06l-.02.13c-.01.03-.02.04-.05.02a.46.46 0 0 0-.2-.06.3.3 0 0 1-.04-.03h-.02v.03c-.02.01-.01.02 0 .02.1 0 .18.03.25.06.03.01.04.03.04.06V11c0 .02-.01.03-.03.02l-.17-.04a10.56 10.56 0 0 0-1.03-.22c0 .02 0 .02.02.02a1.9 1.9 0 0 1 .34.07 10.23 10.23 0 0 1 .77.2c0 .07-.03.12-.08.16h-.03a129.68 129.68 0 0 1-.72-.18L10 11a2.5 2.5 0 0 0-.66-.05v.01c.21 0 .37.02.5.04l.45.07a6.51 6.51 0 0 1 .56.17c0 .11 0 .2-.03.28a.7.7 0 0 1-.1.25Z" fill="#D92C2A"/><path d="M12.18 11.62c-.07 0-.15 0-.23-.02a10.07 10.07 0 0 1-.52-.18 6.62 6.62 0 0 1 .72.16c.05 0 .09 0 .12-.03a.31.31 0 0 0 .08-.12h.01v.01a.31.31 0 0 1-.08.14.13.13 0 0 1-.1.04Z" fill="#BA1A1F"/><path d="M10.71 11.78a9.46 9.46 0 0 1 1.68.64c.16.06.31.06.46 0v.01c-.06.06-.1.1-.14.1a.35.35 0 0 1-.14.06.71.71 0 0 1-.35-.04 12.02 12.02 0 0 1-.95-.4 12.3 12.3 0 0 1-.53-.2 4.25 4.25 0 0 1-.35-.08 10.44 10.44 0 0 1-.35-.06 5.33 5.33 0 0 0-1.89.11 2.05 2.05 0 0 0-.41.12l-.3.1a73.65 73.65 0 0 1-1.26.45c-.14.06-.3.1-.47.12a.7.7 0 0 1-.2-.02.33.33 0 0 1-.1-.03.65.65 0 0 0-.09-.04l.1.02v-.01H5.58l.13-.03.13-.04a18.85 18.85 0 0 0 1.13-.42 72.44 72.44 0 0 0 1.08-.34l.14-.04.18-.04.14-.03a5.63 5.63 0 0 1 1.43-.07c.2.02.45.07.78.16Z" fill="#9A1218"/><path d="m12.85 12.42.1-.05a.84.84 0 0 1-.52.51c-.12.05-.24.1-.36.12a19.42 19.42 0 0 1-1.42.09 15.13 15.13 0 0 0-.74.04c-.27 0-.53.02-.79.03a29.44 29.44 0 0 1-2.5-.03l-.42-.05h-.02a.21.21 0 0 0 .03 0h-.09c-.2-.05-.4-.12-.6-.2l-.08-.04a.83.83 0 0 1-.31-.37.7.7 0 0 1 .2.15l.08.04.1.03a.7.7 0 0 0 .2.02c.17-.02.33-.06.47-.12a3.04 3.04 0 0 1 .33-.1 73.65 73.65 0 0 0 1.43-.52l.21-.05a94.35 94.35 0 0 1 .67-.1l.1-.02h.12c.04 0 .12 0 .23-.02a5.32 5.32 0 0 1 1.47.18 12.2 12.2 0 0 0 .53.2 12.06 12.06 0 0 0 .95.4c.1.03.22.04.35.03l.14-.05.13-.1.01-.02Z" fill="#373737"/><path d="M12.98 12.24c.02.07.02.12.02.15a.97.97 0 0 1-.11.34.57.57 0 0 1-.05.08.47.47 0 0 0-.05.08.99.99 0 0 1-.21.22l-.39.24a5.93 5.93 0 0 1-2.08.47l-.17.04-.23.04H9.5a7.72 7.72 0 0 0-.62-.01l-.55-.06.62.05a5.87 5.87 0 0 0 1-.02 8.95 8.95 0 0 1-3.02-.3l-.39-.13a19.63 19.63 0 0 0 1.23.27 1.71 1.71 0 0 0 .31.03l.24.03c.33.06.66.09.99.09a67.79 67.79 0 0 0 .58-.01h-.01c-.24-.02-.48-.02-.72-.02-.2 0-.44-.02-.71-.06-.46-.06-.88-.13-1.27-.2a7.64 7.64 0 0 1-.98-.25 3.78 3.78 0 0 1-.52-.24.64.64 0 0 1-.15-.19 3.33 3.33 0 0 0 1.24.26 13.68 13.68 0 0 1 .77.03l1.59-.01a36.59 36.59 0 0 1 1.46.02 60.84 60.84 0 0 0 .87-.05 5.96 5.96 0 0 0 .98-.25c.26-.1.43-.28.52-.51l.03-.13Z" fill="#B6B6B6"/><path d="M8.88 13.9a7.72 7.72 0 0 1 .83 0c.1 0 .17-.02.23-.04l.17-.03a5.92 5.92 0 0 0 2.08-.47l.39-.25c.05-.03.12-.1.21-.22a.84.84 0 0 1-.07.14l-.09.13c-.1.18-.25.3-.44.38a7.23 7.23 0 0 1-1.93.46c-.1 0-.18 0-.28-.02a1.68 1.68 0 0 0-.35-.04h-.14a4.4 4.4 0 0 0-.61-.04Z" fill="#F1E4EE"/><path d="M12.07 13a5.96 5.96 0 0 1-1.05.17c-.14.01-.29.02-.44.01a8.88 8.88 0 0 0-.73 0c-.25-.02-.49-.02-.73-.02a1033.27 1033.27 0 0 1 1.53-.07 50.6 50.6 0 0 0 1.42-.09Z" fill="#888989"/></svg>