<!-- by TradingView --><svg width="18" height="18" viewBox="0 0 18 18" xmlns="http://www.w3.org/2000/svg"><path fill="url(#acd22vhln)" d="M0 0h18v18H0z"/><path d="m9.22 4-.05.88c0 .02 0 .03.02.04 0 .02.02.03.03.04.73.34 1.5.64 2.32.9l-1.06.34a9.5 9.5 0 0 1-1.28-.5v.48l-.13.03c-.13 0-.26.03-.4.08-.04.01-.05 0-.05-.03v-.82l-.03-.04c-.2-.1-.4-.2-.62-.28l-1.29-.55a5 5 0 0 1 1.1-.43c.06.05.1.1.16.12a88.4 88.4 0 0 0 .68.37v-.62h.6Z" fill="#F0ECEB"/><path d="M8.62 4v.63l-.01.01H8.6a88.4 88.4 0 0 1-.66-.38.76.76 0 0 1-.15-.12c.27-.07.55-.12.83-.13ZM11.9 4.92c-.06.28-.09.57-.1.87l-.26.06a17.49 17.49 0 0 1-2.35-.93.08.08 0 0 1-.02-.04L9.23 4h.2a5 5 0 0 1 2.46.92ZM6.68 4.57c.44.2.87.38 1.3.55a8.47 8.47 0 0 1 .63.32l.01.82a.29.29 0 0 1-.13.06l-.03-.01c-.14-.12-.3-.2-.48-.27-.39-.14-.79-.25-1.19-.33a1.35 1.35 0 0 0-.39-.02.27.27 0 0 0-.2.11.4.4 0 0 0-.07.23v.63c.02.22.05.42.1.6a2.12 2.12 0 0 1 .05.3h-.05a.5.5 0 0 0-.16-.2.21.21 0 0 0-.08-.03.63.63 0 0 0-.12-.01.5.5 0 0 1-.16-.05.73.73 0 0 0-.26-.08.5.5 0 0 0-.3.08l-.12.05a.36.36 0 0 1-.14.02c-.26-.01-.46.11-.58.37a.48.48 0 0 0-.04.13l-.01.14c0 .09-.02.15-.03.2a.4.4 0 0 0 0 .18l.03.24v.14a15.23 15.23 0 0 0 .04 1 6.56 6.56 0 0 0 .06.64c0 .17.04.33.11.48.03.06.04.13.04.22a.92.92 0 0 1-.2-.32l-.1-.37a4.92 4.92 0 0 1 .4-3.77 4.9 4.9 0 0 1 2.07-2.05Z" fill="#E73130"/><path d="m11.9 4.92.55.45c-.05.12-.07.24-.07.37l-.58.05c.01-.3.04-.6.1-.87Z" fill="#F0ECEB"/><path d="M13.18 6.3a8.81 8.81 0 0 1-.58-.11c.02-.25-.06-.4-.22-.45 0-.13.02-.25.07-.37a5.78 5.78 0 0 1 .73.93Z" fill="#E73130"/><path d="M8.62 6.26c0 .03.01.04.05.03.14-.05.27-.07.4-.08l-.02.06c-.07-.01-.1 0-.12.03-.06.17-.02.3.1.41.07.06.14.1.22.12a.7.7 0 0 0 .5-.03.55.55 0 0 0 .2-.15c.07-.08.09-.2.06-.34a.03.03 0 0 0-.03-.02l-.09-.03v-.02l-.01-.01.41.07h.04l.15-.1 1.06-.35.26-.06.58-.05c.16.05.23.2.22.45l-.03.73a3.31 3.31 0 0 1-.42 1.29.09.09 0 0 0-.01.08 2.16 2.16 0 0 1 .12 1.13c0 .04 0 .07.02.1l.04.11-.02.02c0 .02-.02.02-.03.02h-.03l-.01.04c-.09.33-.23.64-.43.92l-.22.25a.96.96 0 0 1-.2.14 3.23 3.23 0 0 1-1.31.4 14.66 14.66 0 0 0-.6.03c-.09 0-.1.03-.01.08l.08.03a.4.4 0 0 1 .14.08c.06.06.1.13.14.22v.05l.02.06c0 .03.02.04.04.06 0 .06.04.08.1.07a6 6 0 0 1 .54-.1c.17-.03.3-.07.42-.1.15-.06.28-.13.38-.21.07-.06.12-.16.12-.29.01-.1 0-.2-.03-.31v-.03c.01-.01.02-.02.03-.01l.04.01c.05.16.06.3.01.42-.02.07 0 .08.04.02a6.32 6.32 0 0 1 .19-.22.65.65 0 0 0 .1-.2c.04-.06.06-.12.04-.17a1 1 0 0 1-.06-.2l.02-.01h.02a.7.7 0 0 1 .07.18c0 .06.03.1.08.11.41.16.78.37 1.11.63-.01 0-.02.01-.02.03a4.06 4.06 0 0 0-.9-.52l-.24-.12h-.02l-.01.01c-.04.15-.12.29-.24.43-.1.12-.23.23-.37.34-.16.11-.35.2-.57.25a5.47 5.47 0 0 1-.83.14c0 .03.01.05.03.07 0 .02-.01.03-.03.03-.01.04 0 .06.01.06.04.1.07.19.08.3.02.12 0 .22-.04.3l.01.05c.03.04.04.08.03.12 0 .03-.03.05-.06.07a.1.1 0 0 1-.1 0c-.03 0-.05-.04-.06-.08v-.06l.05-.04c.07-.04.12-.1.14-.17a.65.65 0 0 0 0-.23c0-.05-.03-.1-.05-.14l-.02-.02h-.01l-.01.01c-.05.18-.16.28-.35.3a.1.1 0 0 0-.04.02.42.42 0 0 1-.16.07.73.73 0 0 1-.48-.42l-.04-.24-.02-.04a.05.05 0 0 0-.04 0c-.08 0-.17 0-.26-.02a3.1 3.1 0 0 1-1.16-.47c-.2-.13-.35-.28-.48-.43a1.34 1.34 0 0 1-.26-.55.47.47 0 0 0-.07-.16 2.42 2.42 0 0 1-.39-1.64l.04-.3c0-.03 0-.04-.03-.04-.04 0-.08 0-.12-.02h-.05a.36.36 0 0 0-.04.06.26.26 0 0 1-.06.07.6.6 0 0 1-.2.1c-.05.02-.06 0-.04-.02l.2-.09c.03-.02.04-.06.05-.12A.2.2 0 0 0 6 8.37c.02 0 .02-.01.02-.03h.04v.02L6 8.45c0 .02 0 .03.02.03.1.02.19 0 .25-.04s.1-.1.12-.18A.59.59 0 0 0 6.4 8a.59.59 0 0 0-.08-.23 1.6 1.6 0 0 0-.21-.32.26.26 0 0 0-.1-.07.64.64 0 0 0-.12-.03.56.56 0 0 1-.16-.04.7.7 0 0 0-.34-.08l-.15.03-.17.08a.3.3 0 0 1-.1.03l-.12.01a.6.6 0 0 0-.18.02.55.55 0 0 0-.35.43 2.16 2.16 0 0 0-.02.26c-.01.08-.02.18-.01.3l.01.54c.02.64.07 1.28.17 1.92-.07-.15-.1-.31-.1-.48l-.03-.27a6.56 6.56 0 0 1-.06-.6 4.65 4.65 0 0 1-.02-.77V8.6c0-.08 0-.16-.02-.24a.4.4 0 0 1 0-.19l.02-.19.01-.14c0-.04.02-.09.04-.13.12-.26.32-.38.58-.37.04 0 .09 0 .14-.02a1.03 1.03 0 0 0 .16-.07.5.5 0 0 1 .26-.06c.08 0 .17.03.26.08a.5.5 0 0 0 .2.05l.08.01c.03 0 .05.02.08.03a.5.5 0 0 1 .16.2h.05v-.02c-.01-.1-.03-.19-.06-.29a2.96 2.96 0 0 1-.09-.59 7.25 7.25 0 0 1 0-.63c0-.1.03-.17.07-.23.04-.06.11-.1.2-.1.13-.02.26-.01.4.01.4.08.8.2 1.18.33.18.06.34.15.48.27h.03c.05 0 .09-.02.13-.05Z" fill="#7A1717"/><path d="m10.48 6.2-.15.1a.05.05 0 0 1-.04 0l-.41-.07a3.24 3.24 0 0 0-.68-.05V5.7c0-.02 0-.02.02-.01.4.2.81.37 1.26.51Z" fill="#E73130"/><path d="M8.2 6.51a.4.4 0 0 1-.21.1c-.02 0-.04-.01-.05-.03a2.06 2.06 0 0 1-.08-.12.36.36 0 0 0-.07-.08l-.32-.19c-.25-.11-.5-.2-.74-.28l-.4-.13a.53.53 0 0 1 .29-.04c.5.08.98.2 1.42.38.13.06.25.12.36.2l.02.04-.03.03a.62.62 0 0 0-.2.12Z" fill="#D6CACA"/><path d="m6.33 5.78.4.13a5.57 5.57 0 0 1 1.06.47l.07.08a1.13 1.13 0 0 1 .08.12c.01.02.03.02.05.02a.4.4 0 0 0 .2-.09l.64-.24.04.01v.04a.36.36 0 0 0 0 .23c.02.06.06.13.12.18a.7.7 0 0 0 .68.14.65.65 0 0 0 .22-.1.45.45 0 0 0 .15-.2.44.44 0 0 0 .02-.25V6.3h.03c.28.07.53.18.76.32l.25.12.09.09.1.1.26.37a5.43 5.43 0 0 1 .53.93c.12.27.18.57.17.87 0 .3-.07.6-.19.89a1.7 1.7 0 0 1-.06.05l-.1.1c-.23.3-.5.54-.82.7-.3.17-.65.27-1.04.32a7.18 7.18 0 0 1-2.45-.09c-.2-.08-.32-.15-.38-.2a2.62 2.62 0 0 1-.7-2.03c0-.14.03-.27.07-.4a4.51 4.51 0 0 1 .88-1.53l.05-.04a.64.64 0 0 1 .21-.15c.02 0 .04 0 .05-.02v-.03a.64.64 0 0 0-.12-.1 2.63 2.63 0 0 0-.92-.39c-.14-.03-.23.03-.26.19-.04.23-.03.47.04.72a2.27 2.27 0 0 0 .31.68 8.49 8.49 0 0 1-.19.41 2.15 2.15 0 0 1-.2-.42 4.2 4.2 0 0 1-.24-1.78c0-.05.02-.1.04-.14.03-.04.06-.06.1-.06ZM12.56 6.12c-.1-.11-.2-.16-.27-.14-.4.11-.85.27-1.32.47a.25.25 0 0 0-.1.07l-.03.03h-.02l-.42-.2a.03.03 0 0 1-.01-.02l.01-.02c.14-.09.3-.16.49-.23a6.46 6.46 0 0 1 1.02-.27c.23-.04.38-.05.45-.04.13.04.2.16.2.35Z" fill="#fff"/><path d="M12.56 6.12c0 .34-.02.66-.06.96-.06.36-.18.72-.36 1.1-.02.02-.03.02-.05 0l-.1-.22a.08.08 0 0 1 .01-.09 1.88 1.88 0 0 0 .36-1.3c-.02-.15-.08-.23-.18-.25h-.16l-.17.05a2.61 2.61 0 0 0-.75.37l-.25-.12c.01 0 .02-.01.02-.04 0-.01-.01-.02-.03-.02h-.02l.02-.01c.02 0 .03-.02.03-.03a.25.25 0 0 1 .1-.07c.47-.2.91-.36 1.32-.47.08-.02.17.03.27.14Z" fill="#D6CACA"/><path d="M12.6 6.19a8.81 8.81 0 0 0 .62.14c.18.27.33.57.45.88h-.04l-1.06-.29.03-.73Z" fill="#F0ECEB"/><path d="M6.9 6.3c.15.08.27.2.35.36v.04h-.02c0 .02-.02.02-.02 0a1.15 1.15 0 0 0-.4-.34c-.04-.02-.05-.01-.03.03.01.03.03.05.06.07.09.05.17.12.25.2.1.11.14.2.14.28H7.2a1.01 1.01 0 0 0-.3-.29h-.03v.02l-.01.01v.02l.25.23c.02.02.02.04 0 .06 0 .02-.01.02-.03.01l-.14-.08H6.9a.03.03 0 0 0-.01.03c0 .02 0 .03.03.04.01 0 .02 0 .02.02v.03c0 .01-.02.02-.03.01a.43.43 0 0 0-.07 0h-.03l-.01.02c0 .02 0 .03.02.03.1.03.17.04.25.04.02 0 .03 0 .04.02v.06l-.26.45-.02.01h-.02a1.9 1.9 0 0 1-.32-1.16c0-.07.02-.14.04-.2a.1.1 0 0 1 .04-.06.1.1 0 0 1 .07-.02l.24.05ZM9.05 6.27l.03.12c.02.09.1.15.2.2a.62.62 0 0 0 .3.03.43.43 0 0 0 .18-.08c.07-.05.1-.1.1-.16V6.3l.01-.02.02-.02.1.03s.02 0 .02.02c.03.15 0 .26-.06.34a.55.55 0 0 1-.2.15.7.7 0 0 1-.5.03.62.62 0 0 1-.22-.12c-.12-.1-.16-.24-.1-.41.01-.03.05-.04.12-.03ZM12.24 6.4c0 .03-.01.05-.03.07a.05.05 0 0 0-.02.04c0 .21-.05.42-.15.61a.12.12 0 0 1-.08.07.4.4 0 0 1-.1.01.5.5 0 0 0-.08 0c-.04.02-.05 0-.01-.02a.17.17 0 0 1 .08-.03c.02 0 .03-.02.03-.05V7.1c0-.03-.01-.03-.03-.02l-.18.1a.03.03 0 0 0-.02.03v.02c-.01.01-.02.02-.04.01h-.04a1.25 1.25 0 0 0-.28-.3l-.1-.1v-.1c.29-.19.6-.31.93-.37h.06l.06.04Z" fill="#FD2D03"/><path d="M11.57 7.23h.04l.04-.01V7.2c0-.02 0-.03.02-.03l.18-.1c.02-.01.03 0 .03.02v.01c0 .03-.01.04-.03.05a.17.17 0 0 0-.08.03c-.04.03-.03.04.01.03a.5.5 0 0 1 .08-.01.4.4 0 0 0 .1-.01.12.12 0 0 0 .08-.07c.1-.2.15-.4.15-.61 0-.02 0-.03.02-.04a.08.08 0 0 0 .03-.07.2.2 0 0 1 .06.12l.01.14v.05c.02.17-.01.37-.08.58-.06.18-.14.36-.25.53 0 .01-.01.02-.03.01l-.02-.01-.36-.59Z" fill="#C61B32"/><path d="M11.58 7.1c.07-.1.17-.2.3-.3l.01.01.01.01v.04c-.1.07-.18.15-.25.23-.02.03-.05.04-.1.03-.04-.02-.05-.07-.02-.15a.39.39 0 0 1 .05-.11c.1-.13.23-.25.4-.34h.01l.01.02c-.19.13-.34.27-.45.45a.1.1 0 0 0 0 .08v.02c0 .02.02.03.03 0Z" fill="#7A1717"/><path d="M13.63 7.21h.04a4.99 4.99 0 0 1-.1 3.8 9.95 9.95 0 0 1-.85-1.83 3.8 3.8 0 0 1-.17-.7c-.05-.3-.08-.6-.12-.91.07-.2.11-.4.14-.65l1.06.29Z" fill="#E73130"/><path d="m6.32 7.78-.05.32a.34.34 0 0 1-.08.16c-.03.02-.06.03-.09 0a.04.04 0 0 1-.01-.03c0-.13-.02-.25-.05-.36l-.02-.01c-.02 0-.03.01-.03.03l.02.38a.8.8 0 0 1-.13.12c-.05.04-.1.05-.14.04a.22.22 0 0 1-.13-.1l-.04-.44-.02-.01h-.01l-.01.01v.35l-.22.26-.03.02h-.1c-.12 0-.2-.06-.23-.2a.8.8 0 0 1-.02-.17 2.77 2.77 0 0 1-.01-.24H4.9c-.05.26-.04.44.03.53v.03c0 .01 0 .02-.02.03a.67.67 0 0 1-.27.01c-.15-.02-.24-.12-.27-.31h-.02v.01c.01.13.05.22.11.27.05.05.15.08.27.1.03 0 .04 0 .05.03.02.05.06.09.1.11.24.1.49.12.75.05.03 0 .04.01.04.03a2.4 2.4 0 0 0 .56 1.9c.05.05.1.12.14.22.17.4.45.73.83.98.5.34 1.05.5 1.64.52.09.2.25.34.48.42.2.1.35.05.48-.12a.42.42 0 0 0 .06-.13l.05-.13.05.14v.23a.25.25 0 0 1-.14.17.08.08 0 0 0-.05.1c0 .04.03.07.07.09a.1.1 0 0 0 .09 0 .12.12 0 0 0 .06-.08c.01-.04 0-.08-.03-.12a.05.05 0 0 1 0-.05.54.54 0 0 0 .03-.3.96.96 0 0 0-.08-.3c0-.02.02-.02.04-.02.12.1.26.24.44.38.06.06.11.13.14.22l-.01.04-.04.04c-.05.04-.05.08 0 .12.03.04.07.04.11.01.05-.03.06-.08.03-.13a1.65 1.65 0 0 1-.06-.11 1.47 1.47 0 0 0-.07-.11 7.56 7.56 0 0 0-.34-.3.62.62 0 0 1-.14-.18l.13-.03c.13 0 .25-.01.38-.04.32-.08.6-.2.84-.34.28-.17.49-.38.63-.63a.12.12 0 0 1 .04-.04l.16-.1c.31.14.6.31.89.53l.09.06v.04a5.06 5.06 0 0 1-4.7 2.22 4.99 4.99 0 0 1-3.63-2.2 2.6 2.6 0 0 1-.33-.69c0-.1 0-.16-.04-.22a14.79 14.79 0 0 1-.15-3.01.55.55 0 0 1 .35-.44.6.6 0 0 1 .18-.02h.11a.3.3 0 0 0 .1-.04l.18-.08.15-.03c.1 0 .21.02.34.08l.16.04.11.03c.04.01.08.04.1.07.1.1.16.2.22.32Z" fill="#fff"/><path d="m8.93 7.77-.27-.28a.07.07 0 0 1-.02-.06c0-.02.01-.04.03-.05l.1-.08a.07.07 0 0 1 .04-.01c.02 0 .04 0 .05.02l.15.13.02.04.03.22v.05l-.04.03-.05.01a.07.07 0 0 1-.04-.02ZM10.1 7.54l.1-.12a.08.08 0 0 1 .06-.03c.03 0 .05.01.06.03l.1.12c.02.02.02.04.02.06 0 .03-.02.05-.04.06l-.23.13a.08.08 0 0 1-.04.01c-.02 0-.03 0-.05-.02a.08.08 0 0 1-.02-.03V7.7l.02-.13.02-.03Z" fill="#D6CACA"/><path d="m13.58 11-.2.4a7.2 7.2 0 0 1-1.12-1.98.87.87 0 0 1 .01-.16c.03-.35-.01-.67-.13-.97a.09.09 0 0 1 0-.08c.08-.12.14-.25.2-.38.04-.14.07-.23.1-.26l.1.9c.04.25.1.48.18.71.22.63.5 1.24.86 1.83Z" fill="#F0ECEB"/><path d="m11.29 7.91-.03.02h-.02v-.01c-.03-.03 0-.07.04-.11a.29.29 0 0 1 .12-.06l.08.01c.08.04.08.08-.02.12a.23.23 0 0 1-.08.02h-.03l-.06.01ZM7.64 7.88l-.2.07H7.4l-.06-.04a.03.03 0 0 1-.02-.03c0-.01 0-.02.02-.03l.1-.07h.04l.16.03.02.03c0 .02 0 .03-.02.04Z" fill="#7A1717"/><path d="M6 8.37V7.9L6 7.86h.03c.03.12.04.24.05.37l.01.03c.03.03.06.02.09 0 .04-.05.07-.1.08-.16l.05-.32c.04.07.07.14.08.23.02.09.02.17 0 .25a.31.31 0 0 1-.13.18.33.33 0 0 1-.25.04C6 8.48 6 8.47 6 8.45l.06-.09v-.02h-.04c0 .02 0 .03-.02.03Z" fill="#D6CACA"/><path d="m5.61 8.34-.08.16v.02h.34c0 .05-.02.1-.05.11v-.04a.03.03 0 0 0-.04 0 .48.48 0 0 1-.26.01.44.44 0 0 0-.18 0 .48.48 0 0 1-.12 0H5.1l-.12-.02h-.13l-.02.02v.03a.2.2 0 0 0 .08.05.69.69 0 0 0 .11.04c.2.06.4.06.6 0-.02.03 0 .04.05.03l-.04.02c-.26.07-.51.06-.75-.05a.21.21 0 0 1-.1-.11.05.05 0 0 0-.04-.04c-.13 0-.23-.04-.28-.1-.06-.04-.1-.13-.12-.26l.01-.01h.02c.03.19.12.3.27.31.1.01.19 0 .27-.01l.02-.03v-.03c-.07-.1-.08-.27-.03-.53h.02l.01.01a2.54 2.54 0 0 1 0 .23c0 .07 0 .13.02.18.03.13.11.2.23.2h.15a.3.3 0 0 0 .13-.04c.08-.05.1-.14.07-.25V7.9l.02-.01.02.01.04.45Z" fill="#7F4E45"/><path d="M8.43 8.04A2.78 2.78 0 0 0 7.86 8c-.02 0-.02-.01-.02-.02l.01-.03c.22-.06.43-.08.64-.06.1.01.19.06.27.13a1.77 1.77 0 0 1 .23.25c.04.05.03.07-.04.06a.44.44 0 0 1-.14-.06 1.33 1.33 0 0 1-.13-.09l-.12-.08a.45.45 0 0 0-.13-.06ZM10.52 8.13a.44.44 0 0 0-.23.11.55.55 0 0 1-.26.12c-.07 0-.09-.01-.04-.07l.04-.04.2-.18c.07-.06.15-.09.23-.1a1.58 1.58 0 0 1 .7.11v.03l-.02.01-.62.01Z"/><path d="m11.57 8.02.07.08a.03.03 0 0 1 0 .04l-.06.05h-.04l-.22-.13c-.02-.01-.02-.02-.02-.04s.02-.02.03-.02h.22l.02.02Z" fill="#7A1717"/><path d="m6.78 10.38-.04.01c0-.04-.03-.03-.07.01a.42.42 0 0 0-.07.08c-.02.03-.04.03-.05 0-.2-.32-.33-.65-.37-.98-.03-.26-.03-.57.02-.93 0-.02.02-.03.04-.04.13-.08.21-.21.24-.39 0-.03.03-.04.05-.02l.04.04a.1.1 0 0 1 .02.1 7.41 7.41 0 0 1-.1.34 2.45 2.45 0 0 0 .01 1.01c.06.25.15.5.28.77Z" fill="#E73130"/><path d="M5.53 8.24c.03.11 0 .2-.07.25a.3.3 0 0 1-.13.04h-.15.1l.03-.03.22-.26Z" fill="#D6CACA"/><path d="M6 8.27v.1a.2.2 0 0 1-.13.14l-.32.02-.02-.01V8.5l.08-.16c.04.05.08.08.13.09.05 0 .1 0 .14-.04a.8.8 0 0 0 .13-.12Z" fill="#F0ECEB"/><path d="M7.7 8.36c.13.03.24.06.32.11.11.06.2.14.25.23v.01h-.02c0 .01 0 .01 0 0A.63.63 0 0 0 8 8.5a1.23 1.23 0 0 0-.32-.11v-.01l.02-.01Z"/><path d="M8.84 12.42a3.04 3.04 0 0 1-1.64-.52 2.2 2.2 0 0 1-.83-.98.77.77 0 0 0-.14-.23 2.1 2.1 0 0 1-.49-.87c-.1-.35-.13-.7-.07-1.02 0-.02 0-.03-.04-.03l.04-.02a.6.6 0 0 0 .2-.1.26.26 0 0 0 .05-.08.36.36 0 0 1 .04-.05c.01-.02.03-.02.05-.01l.12.02c.02 0 .04 0 .03.03l-.04.31c-.06.6.07 1.14.4 1.64.02.04.05.1.06.16.04.19.13.37.27.55.12.15.27.3.47.43a2.99 2.99 0 0 0 1.46.5l.02.03.04.24Z" fill="#D6CACA"/><path d="M8.04 8.72a.9.9 0 0 0-.29-.01v.02c0 .01 0 .02.02.01.16-.01.3.02.43.1-.03.04-.04.08-.02.12a.52.52 0 0 0-.38.2c-.2.03-.38 0-.55-.12a.28.28 0 0 1-.1-.1.19.19 0 0 1 .02-.22.3.3 0 0 1 .11-.08c.13-.05.27-.08.44-.1.06 0 .12.01.18.05.05.03.1.07.14.13ZM5.82 8.63l-.2.1a1.04 1.04 0 0 1-.71-.05.2.2 0 0 1-.07-.05V8.6l.01-.01.13-.01.12.01.12.02.12-.01a.44.44 0 0 1 .18 0c.08.02.17.01.26-.02l.03.01.01.04Z" fill="#FFE4DF"/><path d="M8.05 8.72c.1.03.15.07.15.12a.65.65 0 0 0-.43-.1l-.02-.01V8.7a.9.9 0 0 1 .3 0Z" fill="#D6CACA"/><path d="M9.4 8.75c.1 0 .18.02.23.03.12.02.12.06.02.11l-.12.06H9.5a.5.5 0 0 1-.24-.13c.04-.07.1-.1.16-.07Z" fill="#FD2D03"/><path d="m8.18 8.96-.38.2a.52.52 0 0 1 .38-.2Z"/><path d="m13.38 11.4-.15.26c-.01.01-.02.02-.04.01A4.61 4.61 0 0 0 12 11a.14.14 0 0 1-.08-.1.7.7 0 0 0-.07-.19l-.04-.07a2.84 2.84 0 0 0 .44-.95h.03l.03-.03.02-.02a7.2 7.2 0 0 0 1.06 1.77Z" fill="#E73130"/><path d="M12.06 9.99c-.1.3-.25.56-.46.8a.79.79 0 0 1-.21.15c-.3.16-.63.28-1 .36-.34.07-.69.1-1.06.1-.02 0-.02 0-.02.02v.1c0 .01 0 .02-.02.02l-.02-.02v-.1c0-.01 0-.02-.02-.02-.42 0-.84-.06-1.25-.17a1.82 1.82 0 0 1-.4-.16l.24.03c.72.13 1.45.15 2.2.06a2.6 2.6 0 0 0 1.86-1.02l.1-.1.06-.05Z" fill="#D6CACA"/><path d="M6.78 10.38c.05.06.08.12.1.18v.04c-.08.06-.12.16-.1.28 0 .02-.02.03-.04.04-.01 0-.03 0-.03-.02a.84.84 0 0 1-.08-.36l.01-.04.1-.1.04-.02Z" fill="#FD2D03"/><path d="m11.8 10.63.04.07h-.02c-.01 0-.02 0-.02.02a1 1 0 0 0 .06.19c.02.05 0 .11-.05.18a.16.16 0 0 0-.1-.12h-.04a.37.37 0 0 1-.2.1c0-.02-.01-.02-.03-.02h-.02l-.01.04c.03.1.04.21.03.31 0 .13-.05.23-.12.29-.1.08-.23.15-.38.2-.11.04-.25.08-.42.11a.56.56 0 0 0 .11-.51l-.01-.03h-.03c-.14.04-.3.07-.46.07a.05.05 0 0 0-.03-.04h-.03l-.01.03a.8.8 0 0 1-.17.46c-.01.02-.02.04 0 .05a.12.12 0 0 1-.05-.06l-.01-.06-.01-.05a.63.63 0 0 0-.14-.22.4.4 0 0 0-.14-.08.68.68 0 0 1-.08-.03c-.08-.05-.08-.07.02-.08a8.64 8.64 0 0 0 .98-.1 4.3 4.3 0 0 0 .91-.33c.09-.04.15-.09.21-.14.08-.08.16-.16.22-.25Z" fill="#C61B32"/><path d="M6.97 10.66a7.18 7.18 0 0 1 .23.28l.07.06c.02.03.02.05 0 .08a.43.43 0 0 0-.04.22l.04.13.02.1c0 .01 0 .02 0 0-.17-.09-.3-.21-.4-.37a.29.29 0 0 1-.06-.18c0-.13.03-.24.07-.32l.03-.02c.02 0 .03 0 .04.02ZM11.81 11.09a.64.64 0 0 1-.1.2 2.18 2.18 0 0 1-.18.21c-.05.06-.06.05-.04-.02a.65.65 0 0 0-.01-.42.37.37 0 0 0 .19-.09.03.03 0 0 1 .03 0c.06.01.1.05.11.12Z" fill="#FD2D03"/><path d="m12.19 11.13-.16.09a.12.12 0 0 0-.04.04c-.14.25-.35.46-.63.63-.23.15-.52.26-.84.34-.13.03-.25.04-.38.04-.04 0-.08 0-.13.03l-.08-.05a.1.1 0 0 1-.03-.07c0-.02.01-.02.03-.02a5.47 5.47 0 0 0 .8-.12c.22-.05.4-.14.57-.25.14-.1.27-.22.37-.34.12-.14.2-.28.24-.43h.03l.25.1Z" fill="#D6CACA"/><path d="m7.91 11.5-.57-.35c0-.02 0-.05.02-.07h.03l.5.19.04.04v.06l-.02.12Z" fill="#C61B32"/><path d="m7.34 11.15.57.34c0 .18.06.32.16.4.06.06.06.07-.02.04a11.78 11.78 0 0 0-.4-.16c-.11-.06-.2-.12-.28-.2a8.72 8.72 0 0 0-.07-.3c-.02-.04 0-.09.04-.12ZM11.26 11.65l-.36.16h-.04a.04.04 0 0 1-.02-.04v-.34c0-.02.01-.03.03-.04l.43-.15h.04c.01.02.02.03.01.05l-.07.33c0 .02-.01.03-.02.03ZM8.77 11.63c.06.12.06.22 0 .3l.01.02h.02a.1.1 0 0 0-.01.07v.01c.01 0 .01 0 0 0l-.04.03a.06.06 0 0 1-.04 0c-.2 0-.35-.04-.47-.09-.07-.03-.13-.1-.2-.23-.04-.1-.06-.2-.05-.27.25.08.51.13.78.16ZM10.52 12a4.28 4.28 0 0 1-.54.1c-.06 0-.1-.01-.1-.07h.05l.03-.04c.1-.14.15-.3.17-.46.16 0 .32-.03.46-.07h.03l.01.03c.05.19.01.36-.11.51Z" fill="#FD2D03"/><path d="M9 11.58a.47.47 0 0 0-.09.06.87.87 0 0 1-.04.03h-.02c0-.07 0-.12-.02-.17v-.03l.03-.01h.23c.07.02.08.04 0 .07l-.1.05Z" fill="#C61B32"/><path d="M8.95 11.78v.01c-.02.02-.03.01-.03 0a.08.08 0 0 1 .02-.1.48.48 0 0 1 .41-.13c.07 0 .14.03.2.07.07.05.13.1.18.16v.05c0 .03 0 .03-.02 0v-.01a.07.07 0 0 0-.04-.03l-.15-.07a.52.52 0 0 0-.27-.05.77.77 0 0 0-.27.07.05.05 0 0 0-.03.03Z" fill="#EFCF4B"/><path d="m8.79 12.02.01-.07a.84.84 0 0 1 .09-.1.22.22 0 0 1 .1-.06l.07-.03a.28.28 0 0 1 .09-.03l.27.01c.02 0 .03.02.02.03 0 .02 0 .03-.02.03-.13 0-.24.01-.32.03a.4.4 0 0 0-.25.17c0 .02-.03.02-.06.02Z" fill="#EFCF4B"/><path d="m9.3 12 .02.03v.03c-.12.24-.07.45.14.63v.03c0 .01 0 .02-.02.03-.1.03-.2.01-.29-.05a.65.65 0 0 1-.31-.57c0-.08.04-.15.12-.2a.53.53 0 0 1 .23-.08c.22-.02.4.01.53.12.06.04.1.1.11.17a.5.5 0 0 1 0 .23.54.54 0 0 1-.1.21c-.04.06-.1.1-.16.12H9.5a.54.54 0 0 1-.12-.2.56.56 0 0 1-.05-.2l.03-.12a1.24 1.24 0 0 1 .08-.19c0-.02 0-.04-.03-.05a.16.16 0 0 0-.11 0 .03.03 0 0 0-.02.03l.01.04Z" fill="#EFCF4B"/><path d="m10 12.3.15.17a3.28 3.28 0 0 0 .25.2l.09.1.07.12.06.1c.03.06.02.1-.03.14-.04.03-.08.03-.12-.01-.04-.04-.04-.08 0-.12l.05-.04a.04.04 0 0 0 0-.04.45.45 0 0 0-.13-.22 7.3 7.3 0 0 1-.49-.42c.02 0 .03-.01.03-.03l.08.05Z"/><path d="M9.83 13.04c-.03.03-.03.08 0 .1.03.02.07.01.1-.02.03-.04.03-.08 0-.1-.02-.03-.07-.02-.1.02Z" fill="#EFCF4B"/><defs><linearGradient id="acd22vhln" x1="3.35" y1="3.12" x2="21.9" y2="24.43" gradientUnits="userSpaceOnUse"><stop stop-color="#1A1E21"/><stop offset="1" stop-color="#06060A"/></linearGradient></defs></svg>