<!-- by TradingView --><svg width="18" height="18" viewBox="0 0 18 18" xmlns="http://www.w3.org/2000/svg"><path fill="#F3BF6C" d="M0 0h18v18H0z"/><path d="M5.76 6.09C6.1 5.4 6.5 5.07 7.26 5c.99-.08 1.52.39 1.93 1.4 0 .02 0 .02.02.02l.02-.01c.39-.98 1.05-1.45 2-1.41.66.03 1.18.3 1.54.8.32.46.2 1.1.23 1.88v2.56c0 .37.59.76.93.75.05 0 .07.07.07.12v.83c0 .02-.01.03-.03.03C12.7 12 12 11.44 12 10.34V8c0-.5-.03-.9-.19-1.2a1 1 0 0 0-.9-.59c-.57-.02-1 .26-1.29.83-.25.5-.07 1.08-.07 1.64v3.28c0 .03 0 .04-.03.04h-1.1c-.02 0-.03-.01-.03-.03V8.73c.02-.93-.26-2.44-1.22-2.5-.99-.05-1.14.91-1.17 1.97v3.73c0 .04-.03.07-.07.07h-.91c-.03 0-.02-.02-.02-.05v-4.9c0-.25-.51-.43-.55-.55a.12.12 0 0 0-.04-.06.38.38 0 0 0-.35-.07c-.04.01-.06 0-.06-.05V5.21c0-.04.01-.05.04-.06.94-.02 1.5.28 1.68.92 0 .03.02.04.04.02Z"/></svg>