<!-- by TradingView --><svg width="18" height="18" viewBox="0 0 18 18" xmlns="http://www.w3.org/2000/svg"><path fill="#F0F3FA" d="M0 0h18v18H0z"/><path d="M7.98 8.37 9 7.77 7.96 5.94A1.97 1.97 0 0 0 6.28 5 2 2 0 0 0 4.3 7.03v.05L4 11.23v.12c0 .91.72 1.65 1.6 1.65a1.62 1.62 0 0 0 1.59-1.34l.79-3.29Z" fill="url(#a00prwix2)"/><path d="M6.22 7.57c.3 0 .56-.25.56-.57a.56.56 0 0 0-.56-.57c-.3 0-.55.25-.55.57 0 .32.25.57.55.57Z" fill="#070B10"/><path d="M10.02 8.37 9 7.77l1.04-1.83c.35-.56.97-.94 1.68-.94a2 2 0 0 1 1.98 2.03v.05l.3 4.16v.11c0 .91-.72 1.65-1.61 1.65a1.62 1.62 0 0 1-1.58-1.34l-.79-3.29Z" fill="url(#b00prwix2)"/><path d="M11.78 7.57c.3 0 .56-.25.56-.57a.56.56 0 0 0-.56-.57c-.3 0-.56.25-.56.57 0 .32.25.57.56.57Z" fill="#070B10"/><defs><linearGradient id="a00prwix2" x1="6.5" y1="5.29" x2="6.5" y2="12.65" gradientUnits="userSpaceOnUse"><stop stop-color="#FC2ECF"/><stop offset="1" stop-color="#8401EA"/></linearGradient><linearGradient id="b00prwix2" x1="11.5" y1="5.29" x2="11.5" y2="12.65" gradientUnits="userSpaceOnUse"><stop stop-color="#FC2ECF"/><stop offset="1" stop-color="#8401EA"/></linearGradient></defs></svg>