<!-- by TradingView --><svg width="18" height="18" viewBox="0 0 18 18" xmlns="http://www.w3.org/2000/svg"><path fill="#181B1E" d="M0 0h18v18H0z"/><path fill-rule="evenodd" d="M9 7.88 7.44 5.22a.46.46 0 0 0-.79 0l-3.59 6.12c-.17.3.04.66.4.66h4.2c.18 0 .34-.1.42-.24L9 10.18l.92 1.58c.08.15.24.24.41.24h4.22c.35 0 .56-.37.39-.66l-3.6-6.12a.46.46 0 0 0-.78 0L9 7.88Zm.67 1.15 1.1 1.97h2c.2 0 .33-.15.34-.32a.32.32 0 0 0-.05-.17l-1.82-3.35a.33.33 0 0 0-.27-.16.33.33 0 0 0-.3.16l-1 1.87Zm-1.34 0-1-1.87a.33.33 0 0 0-.3-.16c-.1 0-.21.06-.27.16l-1.82 3.35a.32.32 0 0 0-.05.17c0 .17.15.32.34.32h2l1.1-1.97Z" fill="url(#a)"/><defs><linearGradient id="a" x1="4.94" y1="8.26" x2="14.96" y2="11.89" gradientUnits="userSpaceOnUse"><stop stop-color="#F14D8C"/><stop offset=".37" stop-color="#D85CF3"/><stop offset="1" stop-color="#93D7FE"/></linearGradient></defs></svg>