<!-- by TradingView --><svg width="18" height="18" viewBox="0 0 18 18" xmlns="http://www.w3.org/2000/svg"><path fill="#F0F3FA" d="M0 0h18v18H0z"/><circle cx="9" cy="9" r="6" fill="url(#a)"/><circle cx="9" cy="9" r="4.59" fill="url(#b)"/><path fill-rule="evenodd" d="M9 11.67a2.67 2.67 0 1 0 0-5.34 2.67 2.67 0 0 0 0 5.34Zm0 .46a3.13 3.13 0 1 0 0-6.26 3.13 3.13 0 0 0 0 6.26Z" fill="#fff"/><path d="M9 7.83c.13 0 .23.1.23.23v2.21l1.03-1.05c.08-.09.23-.09.32 0s.09.23 0 .32l-1.35 1.39V15h-.45v-4.98L7.3 8.53a.23.23 0 0 1 0-.32.23.23 0 0 1 .32 0l1.16 1.17V8.06c0-.13.1-.23.23-.23Z" fill="#fff"/><defs><linearGradient id="a" x1="6.79" y1="3.62" x2="10.82" y2="14.61" gradientUnits="userSpaceOnUse"><stop stop-color="#77C01F"/><stop offset=".25" stop-color="#7FD421"/><stop offset=".51" stop-color="#7CC71C"/><stop offset=".75" stop-color="#77DA15"/><stop offset="1" stop-color="#75D01B"/></linearGradient><linearGradient id="b" x1="7.01" y1="5.02" x2="10.81" y2="13.15" gradientUnits="userSpaceOnUse"><stop stop-color="#45AA22"/><stop offset=".23" stop-color="#49BF1D"/><stop offset=".51" stop-color="#3B8E22"/><stop offset=".74" stop-color="#49BB21"/><stop offset="1" stop-color="#42A920"/></linearGradient></defs></svg>