<!-- by TradingView --><svg width="18" height="18" viewBox="0 0 18 18" xmlns="http://www.w3.org/2000/svg"><path fill="#F0F3FA" d="M0 0h18v18H0z"/><path d="M8.56 14h-.42a1.88 1.88 0 0 1-.75-.32.04.04 0 0 0-.05 0c-.4.23-.83.2-1.27.08-.42-.12-.67-.47-.79-.86a.06.06 0 0 0-.03-.04 1.93 1.93 0 0 1-.81-.78 1.1 1.1 0 0 1-.16-.6c.01-.14.02-.28-.05-.4A1.9 1.9 0 0 1 4 9.98c.02-.32.14-.61.36-.86l.16-.16a.05.05 0 0 0 0-.06c-.16-.43.02-.92.32-1.26.33-.36.77-.62 1.27-.58a.2.2 0 0 0 .17-.09c.21-.28.53-.48.95-.59.02 0 .03-.02.03-.05L7 5.46c-.02-.04 0-.06.04-.04l.14.08c.04.01.05 0 .05-.03a5.37 5.37 0 0 1 .11-1.43.02.02 0 0 1 .02 0l.2.19a.03.03 0 0 0 .03 0h.01V4.2l.03-.26c.06-.3.13-.6.22-.93 0-.02.02-.02.04-.02.5.18.93.46 1.3.84.03.02.04.02.05-.01l.03-.1c0-.03.01-.03.03-.02l.16.13a3.73 3.73 0 0 1 1.2 1.6c.06.04.1.1.13.16.13.31.18.64.16.97 0 .06.02.08.08.06.25-.07.51-.14.78-.13.25.02.5.07.79.14.09.03.17.07.24.14.23.2.47.39.72.57.2.15.35.24.47.28.3.1.62.08.94.12l.02.01v.06a26.2 26.2 0 0 1-.98.66c-.04.03-.03.05.02.05a.74.74 0 0 1 .26.09.01.01 0 0 1 0 .02l-.98.46a2 2 0 0 1-.76.18.04.04 0 0 0-.02.04v.01l.05.1a.04.04 0 0 1 0 .03l-.02.02H11.87c-.07 0-.1.03-.08.1.1.41-.02.84-.24 1.2a.09.09 0 0 0 0 .06c.03.23.03.45.01.65a1.46 1.46 0 0 1-1.05 1.33c-.13.05-.27.07-.41.09a.06.06 0 0 0-.06.04c-.26.64-.81.95-1.48 1.05Z" fill="#010202"/><path d="M8.76 4.5c.24.41.5.84.6 1.3.01.03 0 .04-.02.03l-.42-.21h-.05v.02c-.02 0-.02.02 0 .02.26.17.58.43.64.74a7.46 7.46 0 0 1 .13 1.47l-.04.01c-1.05.04-1.62-.73-1.96-1.59-.03-.06-.01-.07.04-.02.05.04.1.06.17.07a.05.05 0 0 0 .05-.02.05.05 0 0 0 0-.05 2.44 2.44 0 0 1-.27-1.4.03.03 0 0 1 .03-.02h.02c.08.09.18.14.28.17.04.01.06 0 .06-.04a4.16 4.16 0 0 1 .1-1.42.04.04 0 0 1 .02-.03.04.04 0 0 1 .04 0c.18.1.35.23.51.37a7.34 7.34 0 0 1 .76.75h.01l.01-.02.02-.14.01-.02a.04.04 0 0 1 .04-.01l.03.01c.16.16.31.34.46.55.13.19.2.38.18.57a2.1 2.1 0 0 0 .02.2h.02l.16.01c.02 0 .04.02.05.04.15.3.13.76.02 1.07a2.15 2.15 0 0 1-.58.86.02.02 0 0 1-.02-.01v-.01c0-.23-.02-.46-.06-.7a.25.25 0 0 1 .05-.19c.08-.1.28-.35.28-.49 0-.04-.01-.04-.04-.01l-.3.37c-.02.02-.03.02-.03-.01a4.04 4.04 0 0 0-1-2.24c-.05-.05-.06-.05-.02.01Z" fill="#66B32E"/><path d="M6.73 7.07c.17-.15.36-.23.58-.28.06-.02.11 0 .14.06.18.32.4.61.65.88.02.02.02.03 0 .04-.35.16-.7.2-1.06.14a.72.72 0 0 1-.4-.2c-.18-.18-.1-.48.09-.64Z" fill="#E41B6E"/><path d="M13.13 7.88h.01v-.03a2.8 2.8 0 0 0-1.88-.25.05.05 0 0 1-.04-.04v-.03l.11-.18c.01-.03 0-.04-.02-.03a.17.17 0 0 0-.1.06c-.2.27-.47.42-.83.45-.05 0-.07-.02-.05-.07.2-.44.56-.73 1.06-.84.31-.07.96-.05 1.25.2.32.26.64.5.96.73.11.07.23.13.36.16.02 0 .03.02 0 .03-.32.2-.67.35-1.04.46-.02 0-.03.02-.01.04.06.08.13.14.21.18.03.01.03.02 0 .03-.3.12-.6.17-.89.18-.1 0-.18-.03-.27-.06a.04.04 0 0 0-.05.02v.02c0 .05 0 .1.02.14 0 .02 0 .03-.02.04a.53.53 0 0 1-.21 0c-.63-.14-1.14-.4-1.32-1.02-.01-.03 0-.05.03-.07.34-.13.75-.24 1.11-.2a1.75 1.75 0 0 1 .62.18.01.01 0 0 0 0-.01.34.34 0 0 0-.15-.21c-.03-.03-.03-.04.01-.04.34-.03.66 0 .96.08l.17.08Z" fill="#66B32E"/><path d="M5.25 7.82c-.36.35-.48.8-.27 1 .21.21.67.1 1.04-.26.36-.36.48-.81.27-1.01-.22-.21-.68-.09-1.04.27ZM8.66 8.1c.4.2.88.2 1.33.13.01 0 .03 0 .04.02a2.54 2.54 0 0 0 .35.63.1.1 0 0 1 0 .05c-.13.34-.56.5-.9.42-.48-.12-.81-.41-1.02-.87A.87.87 0 0 1 8.42 8a.03.03 0 0 1 .02-.01h.02l.2.1ZM6.37 8.55c-.49.5-.52 1.25-.06 1.68.46.43 1.23.38 1.72-.11.48-.5.51-1.25.05-1.68-.46-.43-1.22-.38-1.71.11ZM10.69 9.11l.6.27.04.04c.13.37.1.91-.2 1.19a.14.14 0 0 1-.11.03.14.14 0 0 1-.1-.05c-.28-.37-.28-1-.25-1.47h.02ZM4.4 10.18c0 .54.3.97.69.97.38 0 .69-.43.69-.97s-.31-.98-.7-.98c-.37 0-.68.44-.68.98ZM8.43 10.04c-.5.54-.53 1.31-.07 1.73.47.43 1.26.34 1.76-.2.5-.53.54-1.3.07-1.73-.46-.42-1.25-.33-1.76.2ZM6.25 12.6c.57.32 1.26.19 1.54-.29.27-.48.03-1.12-.54-1.44-.57-.31-1.26-.18-1.54.3-.27.47-.03 1.11.54 1.43ZM10.7 11.32c.06-.13.15-.35.25-.44a.08.08 0 0 1 .07-.02.08.08 0 0 1 .06.04c.14.26.1.53.02.8-.09.31-.3.58-.61.7-.14.05-.66.25-.68-.02a.1.1 0 0 1 .04-.08c.33-.3.67-.6.85-.98ZM5.66 12.42v.01a.23.23 0 0 1-.15.04.48.48 0 0 1-.18-.05.91.91 0 0 1-.2-.13 1.25 1.25 0 0 1-.19-.2l-.03-.05c-.06-.07-.1-.15-.14-.23a.88.88 0 0 1-.07-.23.45.45 0 0 1 0-.19c.02-.05.05-.1.1-.12l.86 1.15ZM7.77 13.44c-.21-.13-.32-.4-.1-.59.11-.08.24-.15.38-.2.25-.1.5-.16.72-.21.13-.03.29-.05.47-.05.14 0 .24.03.3.1.23.21.06.53-.14.7-.22.2-.5.33-.83.4-.3.05-.56 0-.8-.15ZM5.77 12.74c.22.12.44.27.68.34.21.07.4.02.63.1l.02.01v.02c.06.25-.4.25-.53.24-.44-.02-.73-.22-.87-.6a.14.14 0 0 1 0-.08.05.05 0 0 1 .02-.04.05.05 0 0 1 .05 0Z" fill="#E41B6E"/></svg>