<!-- by TradingView --><svg width="18" height="18" viewBox="0 0 18 18" xmlns="http://www.w3.org/2000/svg"><path fill="url(#aspfbpvf5)" d="M0 0h18v18H0z"/><path d="M13.85 10.3A5.03 5.03 0 0 0 9 4a5.03 5.03 0 0 0-4.72 6.72l3.47-3.26c.1-.1.36-.26.6 0l2.3 1.86.41-.74c.1-.13.36-.3.6 0l2.19 1.72Zm-.16.5-2.3-2.06c.04.2.1.66-.1.91-.18.26-.23.5-.23.6L8.19 7.68c.22.35.5 1.24-.1 1.97-.75.92-.8 1.79-.8 2.22 0 .44.37 1.61 1.66 1.63 1.3.02 1.03-.73.77-.82-.26-.08-.55-.85.2-1l.75-.1c.65-.09 1.32-.18 1.36-.36.02-.12-.12-.14-.26-.16-.15-.02-.3-.05-.3-.18 0-.22.92-.12 1.37-.04-.29 0-.86 0-.81.08.02.03.11.06.22.1.2.05.46.13.45.28 0 .1-.46.27-.93.43-.58.2-1.19.42-1.11.58.08.16.49.39.88.6l.4.23c.79-.58 1.4-1.4 1.75-2.34Z" fill="#fff"/><defs><linearGradient id="aspfbpvf5" x1="9" y1="0" x2="9" y2="18" gradientUnits="userSpaceOnUse"><stop stop-color="#1286DE"/><stop offset="1" stop-color="#073BA3"/></linearGradient></defs></svg>