<!-- by TradingView --><svg width="18" height="18" viewBox="0 0 18 18" xmlns="http://www.w3.org/2000/svg"><path fill="#8E9C00" d="M0 0h18v18H0z"/><path d="M12.91 8.5c.09.07.15.15.2.24 0 .02 0 .03.02.04h.04c.32-.02.6-.11.87-.28.23-.16.46-.44.46-.72 0-.05-.02-.05-.05-.01-.37.51-.89.72-1.55.64a7.67 7.67 0 0 0-.22-.07c-.28-.1-.49-.25-.62-.47-.22-.4-.15-.95-.03-1.4.09-.29.25-.53.5-.7a1.4 1.4 0 0 1 1.08-.27l-.07-.22-.02-.02c-.56.06-1.17-.28-1.16-.9a2 2 0 0 0 0-.14h-.02L12 4.14c-.03 0-.04 0-.02.03.14.25.21.65.02.89a.6.6 0 0 1-.44.24l-.27-.04-.02.01-.01.06c0 .02-.02.03-.03.02-.04 0-.06-.03-.06-.05a1.13 1.13 0 0 0-.44-.63.03.03 0 0 0-.04 0c-.36.2-.67.28-1.1.22a2.51 2.51 0 0 1-.75-.24 1.1 1.1 0 0 1-.48-.46.04.04 0 0 0-.05-.01l-.7.22a.02.02 0 0 0-.02.02c.14.36.1.7-.1 1.02-.3.45-.91.57-1.45.54a.7.7 0 0 1-.35-.09l-.27.2v.02c.26.16.47.38.62.66.03.06.04.1.03.11-.02.1-.05.1-.09.02-.25-.51-.83-1.06-1.43-.7-.64.38-.77 1.24-.8 1.93-.04.56.17 1.13.66 1.43.25.16.57.23.86.09.38-.2.45-.52.57-.89.06-.18.09-.18.08.01 0 .16-.05.32-.14.5-.2.41-.61.65-1.08.54l-.02.01.02.42s0 .02.02.02c.29-.01.47.03.54.13.12.15.24.27.37.37.3.24.61.27.67.72a.74.74 0 0 1-.36.77.02.02 0 0 0 0 .02l.26.15a.03.03 0 0 0 .04 0v-.01c.3-.6.5-1.22.58-1.87.05-.4.02-.96.03-1.35 0-.13.04-.28.2-.25l.17.04c.55.17 1.05.3 1.5.36.65.1 1.33.17 1.96.19.76.02 1.52 0 2.3-.04.43-.03 1.1-.12 1.43-.38.06-.05.08-.11.07-.19-.03-.18-.11-.21-.28-.24-.08-.02-.08-.04 0-.06.19-.05.32.02.39.22.13.4-.45.56-.75.63-.02 0-.03.01-.02.03.16.49.15.97-.02 1.46-.13.39-.6.7-.97.83a.02.02 0 0 0-.02.01v.02c.15.17.25.38.31.61.13.5.23 1.02.3 1.56l-.1-.01-.08-.55a.04.04 0 0 0-.03-.03c-.06-.02-.13-.02-.18-.05-.22-.12-.53-.16-.4-.5a2.81 2.81 0 0 1 .32-.64v-.02a1.04 1.04 0 0 0-.23-.35h-.02l-.4.07c-.02 0-.02 0-.02.02a10.51 10.51 0 0 1 .2 2.05c-.06.02-.1.01-.11-.01a8.27 8.27 0 0 0-.19-2.02.03.03 0 0 0-.03-.03h-.45c-.8-.1-1.41-.2-1.82-.3-.7-.17-1.09-.41-1.85-.82a2.86 2.86 0 0 0-.22-.1c-.2-.1-.37-.12-.55-.18l-.02-.02v-.01l.02-.02h.02c.25 0 .46.05.64.15l.94.5c.33.16.65.3.95.37.59.13 1.24.24 1.96.3.15.02.34.02.57 0 .39-.05.73-.18 1.01-.42.26-.21.38-.43.43-.74.03-.23.05-.43.04-.6a5.39 5.39 0 0 0-.12-.52l-.49.07a.01.01 0 0 0 0 .02c.14.24.27.42.14.7-.13.28-.46.53-.73.64-.44.18-.95.26-1.45.21a5.54 5.54 0 0 1-2.07-.63 7.06 7.06 0 0 1-1.5-1.01c-.12-.11-.24-.21-.35-.33A.4.4 0 0 0 7 9.07c-.02 0-.03.01-.03.03v.73a4.74 4.74 0 0 1-.26 1.77 7.5 7.5 0 0 1-.45 1.06c-.2.37-.53.86-.77 1.3-.02.04-.06.05-.13.03l.85-1.48a.03.03 0 0 0 0-.03.03.03 0 0 0-.02-.02c-.2-.06-.37-.12-.53-.23a2.55 2.55 0 0 1-.98-1.47l-.01-.01a.04.04 0 0 0-.04 0c-.2.1-.37.25-.53.43a.08.08 0 0 0-.02.04c-.04.37.14.7.05 1.03l-.18.65a.47.47 0 0 1-.1.2c-.11.1-.34.03-.45-.07-.11-.1-.21-.24-.3-.4 0-.02-.01-.02-.02 0l-.07.1v-.27c.37-.57.65-.96.84-1.18.23-.25.47-.5.78-.64l.02-.03a3.72 3.72 0 0 1-.07-.82.07.07 0 0 0-.03-.03c-.62-.27-.93-.9-.9-1.55.01-.62.1-1.23.46-1.73.27-.39.72-.61 1.2-.42h.03l.43-.38c.07-.06.18-.18.31-.35.22-.27.47-.5.75-.65.42-.25.87-.44 1.36-.56a3.01 3.01 0 0 1 2.54.38h.01c.15-.2.36-.33.64-.39a1.88 1.88 0 0 1 2.34 1.38c0 .02.01.03.03.03.33.06.6.18.82.42.06.07.06.12.07.2 0 .02.02.03.03.04.15.07.24.12.27.15.11.16.1.29-.06.39a.44.44 0 0 0-.06.04l-.02.04c.04.21-.11.6-.21.78v.05c.12.32-.17.75-.44.94-.3.2-.62.3-.97.33-.01 0-.02 0-.03.02-.07.34-.45.36-.72.3a.25.25 0 0 1-.06-.04c-.05-.03-.08-.07-.08-.11v-.02h.02a.03.03 0 0 1 .02 0c.15.08.31.1.5.06.1-.02.17-.07.2-.15.03-.12-.08-.29-.14-.4-.01-.03 0-.05.03-.05Z" fill="#040303"/><path d="M12.91 8.5a.13.13 0 0 1 0-.1c.65.1 1.17-.12 1.54-.63.03-.04.05-.04.05.01 0 .28-.23.56-.46.72-.26.17-.55.26-.87.29a.07.07 0 0 1-.07-.05.64.64 0 0 0-.19-.23ZM12.37 14h-6.9c.25-.45.58-.97.78-1.34a6.05 6.05 0 0 0 .7-2.82A16.1 16.1 0 0 1 7 9.06c.1.01.2.05.26.12.11.12.23.22.35.33.44.4.99.74 1.5 1.01.67.36 1.36.57 2.07.63.5.05 1-.03 1.45-.2.27-.12.6-.37.73-.65s0-.46-.15-.7a.01.01 0 0 1 .01-.02l.49-.07.02.01.1.5c0 .18 0 .38-.04.6a1.1 1.1 0 0 1-.43.75c-.28.24-.62.37-1.01.42a2.9 2.9 0 0 1-.57 0c-.72-.06-1.37-.17-1.96-.3-.3-.07-.62-.2-.95-.37l-.94-.5a1.38 1.38 0 0 0-.66-.15l-.02.02v.01c0 .01 0 .02.02.02.18.06.35.09.55.17l.22.1c.76.42 1.15.66 1.85.83.41.1 1.02.2 1.82.3h.45c.02 0 .03.01.03.03l.06.26c.1.58.16 1.2.13 1.78Z" fill="#F4F235"/><path d="M3.56 14h-.12a.81.81 0 0 0-.43-.41.3.3 0 0 1 0-.14 1 1 0 0 1 .55.54Z" fill="#040303"/><path d="M3.44 14h-.41C3 14 3 13.99 3 13.97l.01-.38c.2.08.33.21.43.4Z" fill="#A85C1A"/><path d="M11.15 6.5c.12.48.05.95-.2 1.39-.05.07-.05.1-.04.18.01.17-.1.32-.26.4-.45.26-.93.31-1.46.28-.92-.06-2-.2-2.67-.87-.13-.13-.03-.3.1-.37a.68.68 0 0 0 .07-.04.06.06 0 0 0 .02-.04c.06-.42.24-.64.52-1.01a3.96 3.96 0 0 1 1.66-1.3c.84-.33 1.52-.01 1.98.7 0 .02.02.03.03.03.1.04.21.1.32.19.14.12.09.33-.06.42-.01 0-.02.02-.01.03ZM5.12 8.74c-.32.24-.66.08-.83-.23-.23-.44-.06-1.12.21-1.5.1-.16.33-.27.52-.2.69.27.57 1.22.3 1.7a.71.71 0 0 1-.2.23ZM10.74 9.12c.12.2.4.23.6.14l.36-.15c.07-.03.07-.01.02.04-.21.23-.6.34-.87.21-.33-.15-.27-.47-.15-.77.07-.17.2-.28.39-.3.05-.02.08-.02.1-.01.08.04.08.07-.02.1l-.12.03c-.16.03-.24.16-.28.3-.05.16-.1.28-.03.4ZM12.48 8.84c.07.04.16.04.2 0 .03-.06 0-.13-.07-.18-.07-.05-.16-.05-.2 0-.03.05 0 .13.07.18Z" fill="#040303"/><path d="M11.08 8.83c-.03.07 0 .15.06.18.07.03.15 0 .18-.08.03-.07 0-.16-.06-.18-.07-.03-.15 0-.18.08Z" fill="#040303"/><path d="M10.57 4.63c-.3.14-.6.2-.88.17a2.22 2.22 0 0 1-.97-.33.87.87 0 0 1-.25-.29v-.03a2.77 2.77 0 0 1 2.15.44.02.02 0 0 1-.01.02l-.04.02ZM11.06 4.85l-.24-.25v-.04c.21-.28.53-.35.88-.4l.1.01c.02 0 .03.01.04.03.1.12.16.28.17.47.01.2-.07.34-.24.45-.16.1-.33.07-.5.03a.05.05 0 0 1-.04-.03c-.06-.11-.09-.18-.17-.27ZM13.47 5.17c-.53.02-1.06-.3-1-.88 0-.02.02-.03.03-.02.37.07.8.53.98.87v.01a.02.02 0 0 1-.01.02ZM5.78 5.8c.15-.13.26-.24.37-.4l.15-.18c.32-.32.7-.56 1.14-.73.05-.02.07 0 .08.04.1.42.01.76-.25 1.01-.24.23-.63.33-.95.35a1.2 1.2 0 0 1-.54-.06.02.02 0 0 1 0-.03Z" fill="#A85C1A"/><path d="M14.5 6.17c-.54 0-1.08.04-1.62.11-.23.04-.47.1-.71.16.18-.5.53-.77 1.04-.84.17-.02.36 0 .57.03.28.05.5.18.68.37.07.07.08.13.04.17Z" fill="#82911F"/><path d="M14.5 6.17v.07l.03.03c.12.03.4.1.35.27a.13.13 0 0 1-.17.1c-.34-.1-.8-.15-1.11-.16-.52-.03-.98.11-1.48.24-.02 0-.03 0-.02-.02l.07-.26c.24-.06.48-.12.71-.16.54-.07 1.08-.1 1.62-.1Z" fill="#F4F235"/><path d="M14.28 6.65c.17.03.44.04.4.26-.04.3-.12.53-.24.7-.13.18-.53.65-.78.59l-.18-.11c-.18-.13-.25-.37-.27-.58 0-.17.08-.37.14-.56a.4.4 0 0 0-.03-.33V6.6a.03.03 0 0 1 .01-.02h.02c.33 0 .64.03.93.07Z" fill="#262627"/><path d="M13.17 8.3c-.26-.34-.34-.7-.22-1.1.05-.19.16-.38.07-.57.3-.13.25.26.19.41-.07.18-.1.3-.1.37-.01.31.1.71.41.84.03.01.03.02 0 .02l-.35.03Z" fill="#A85C1A"/><path d="M13.02 6.63c.09.2-.02.38-.07.57-.12.4-.04.76.23 1.1h-.12a1.2 1.2 0 0 1-.21-1.03c0-.06.05-.19.12-.4.03-.06.02-.14-.03-.23l.08-.01Z" fill="#FAC354"/><path d="M12.94 6.64c.05.09.06.17.03.24l-.12.39c-.09.37-.02.71.21 1.02-.14 0-.24-.04-.3-.13a.8.8 0 0 1-.1-.56l.1-.56a.5.5 0 0 0-.04-.34l.01-.02a.6.6 0 0 1 .21-.04Z" fill="#A85C1A"/><path d="M12.6 6.74c.07.09.08.18.06.29-.1.4-.2.79-.01 1.16.01.02 0 .03-.02.02-.57-.24-.66-.78-.57-1.33l.02-.03.03-.02.46-.1.04.01Z" fill="#F9ECE2"/><path d="M12.53 10.27a.77.77 0 0 0-.1-.62l.58-.04a.08.08 0 0 1 .07.03c.06.08.12.17.16.27.22.45-.44.87-.79.99-.36.12-.72.18-1.06.16a4.82 4.82 0 0 1-1.67-.36 6.88 6.88 0 0 1-2.29-1.5 9.6 9.6 0 0 0 1.58.3c.17.02.17.11.28.2.04.03.13.1.26.23.56.52 1.3.8 2.07.84.4.03.8-.07.9-.5Z" fill="#D94860"/><path d="M9.66 9.87a13.9 13.9 0 0 0-.33-.28c-.03-.03-.03-.04.02-.04a19.84 19.84 0 0 0 2.9.11c.08.07.13.13.15.18.09.28.03.63-.26.75a.88.88 0 0 1-.36.07c-.82 0-1.53-.27-2.12-.79Z" fill="#FFA8B7"/><path d="M5.85 12.18a.08.08 0 0 1-.1 0c-.59-.36-.94-1.12-1.04-1.78a.03.03 0 0 1 .02-.02c.18-.02.37-.02.5.14.24.3.45.4.77.61.07.05.13.14.16.26.1.35 0 .61-.31.8ZM3.2 12.59a1.86 1.86 0 0 1-.06-.1v-.03c.24-.38.49-.75.76-1.1.03-.03.05-.02.05.02.03.29.13.58.05.91-.06.23-.12.45-.2.67-.02.08-.08.1-.17.08-.21-.06-.32-.26-.44-.45ZM13.2 13.32a4.26 4.26 0 0 1-.4-.16c-.11-.05-.14-.13-.1-.25a2.97 2.97 0 0 1 .28-.56.03.03 0 0 1 .03 0l.01.02.2.92v.02l-.01.01h-.02Z" fill="#A85C1A"/><path d="M9.99 5.91a.39.39 0 0 0-.17.01l-.8.2c-.46.11-.89.27-1.25.46-.19.1-.46.25-.8.46a.2.2 0 0 0 .02-.08L7 6.92c.2-.29.37-.52.52-.7C7.97 5.7 8.96 5 9.7 5.1c.46.07.76.33 1.02.69.03.03.02.04-.03.04a1.1 1.1 0 0 0-.7.08Z" fill="#82911F"/><path d="M9.99 5.91c.22.03.4.03.54.02.22-.02.42.04.58.17.1.07.1.15.03.24a.06.06 0 0 1-.05.02h-.16a4.1 4.1 0 0 0-2.14.1c-.36.1-.86.32-1.15.44-.16.06-.32.17-.44.24-.14.07-.23.2-.35.28-.07.05-.1.03-.06-.05.04-.11.1-.22.17-.33.35-.2.62-.37.81-.46.36-.2.8-.35 1.25-.46l.8-.2a.39.39 0 0 1 .17 0Z" fill="#F4F235"/><path d="M9.67 6.98a1 1 0 0 0-.18-.52.04.04 0 0 1 .02-.03h.01a3.95 3.95 0 0 1 1.3.02c.1.03.24.01.25.15l.02.29c.02.36-.1.73-.3 1.03a.47.47 0 0 1-.24.2.4.4 0 0 1-.26 0c-.38-.13-.65-.3-.66-.73 0-.11.05-.28.04-.4Z" fill="#262627"/><path d="m8.8 6.57.5-.11.04.01c.14.13.2.3.21.5 0 .2-.08.41 0 .67.08.28.32.47.6.56.05.01.05.02 0 .03a3.78 3.78 0 0 1-.81.04c-.5-.23-.35-.67-.33-1.06a.92.92 0 0 0-.07-.4c-.03-.09-.1-.13-.16-.2a.03.03 0 0 1 0-.02.03.03 0 0 1 .01-.02Z" fill="#A85C1A"/><path d="M8.73 6.73c.07.04.1.08.13.17.03.16.04.32.03.49l-.04.36c0 .19.08.35.22.5.02.02.02.02-.01.02a4.4 4.4 0 0 1-1.36-.35 2.08 2.08 0 0 1-.69-.48v-.02c.2-.17.47-.33.74-.44.36-.16.63-.26.8-.32.04-.01.1 0 .18.07Z" fill="#F9ECE2"/><path d="M7.23 7.79a4.42 4.42 0 0 0 3.1.52c.16-.03.3-.1.43-.18.03-.02.04-.01.03.02-.04.17-.29.29-.44.35-.32.12-.67.17-1.05.14a9.1 9.1 0 0 1-1.27-.15c-.49-.1-1.1-.32-1.43-.69-.04-.05-.03-.11.04-.17a.54.54 0 0 1 .15-.08.2.2 0 0 1 .22.05c.07.06.12.13.22.19Z" fill="#F4F235"/><path d="M13.93 7.1c-.02.17.05.33.16.34.1.01.21-.12.23-.3.02-.18-.05-.33-.15-.35-.11 0-.22.13-.24.3Z" fill="#F9ECE2"/><path d="M4.95 6.9c.35.1.49.46.48.79-.01.36-.16 1.12-.7 1.05-.26-.04-.4-.33-.42-.56-.04-.35.04-.72.21-1.02.09-.15.24-.3.43-.25Z" fill="#4F5413"/><path d="M10.7 6.58c.17.08.17.37.11.5-.1.27-.4.16-.4-.08.01-.16.08-.3.21-.41a.07.07 0 0 1 .08-.01Z" fill="#F9ECE2"/><path d="M9.19 7.57c-.05-.34.1-.72-.11-1.02a.02.02 0 0 1 0-.02.02.02 0 0 1 .02 0h.03a.07.07 0 0 1 .04.03c.15.23.1.53.1.82-.02.39.2.61.46.85v.04h-.04a.93.93 0 0 1-.5-.7Z" fill="#FAC354"/></svg>