<!-- by TradingView --><svg width="18" height="18" xmlns="http://www.w3.org/2000/svg"><path fill="url(#paint0_linear)" d="M0 0h18v18H0z"/><path d="M14.965 10.167l-3.892-5.121a.112.112 0 00-.18 0L8.983 7.55 7.11 5.086c-.051-.066-.13-.066-.181 0l-.585.755-2.148 2.773-.47.606-.69.886a.193.193 0 00-.036.122c0 .046.015.087.035.122l1.941 2.554c.051.067.135.067.181 0l1.864-2.45L8.91 12.94c.051.067.135.067.181 0l1.869-2.459 1.88 2.474a.108.108 0 00.092.046.116.116 0 00.092-.046l1.942-2.555a.192.192 0 00.035-.122c0-.05-.011-.084-.035-.11zm-.349.212l-1.116-.54-.512-1.452.296.055 1.403 1.847-.07.09zm-.63.83l-.332-.932.761.369-.43.563zM6.301 7.85l-1.573.557 1.573-2.035V7.85zM4.35 8.892l1.103-.389-.073 1.635-1.341-.84.311-.406zm1.368-.482l.196-.066.523 1.056-.819 1.193.1-2.183zm.893.72l-.439-.885.25-.087.626.34-.437.632zm-.05-1.265v-.619l1.49.163.373 1.472L6.56 7.865zm1.261 1.913l.534.43.088 1.64-.754-.988.132-1.082zm.726.185l-.677-.551.05-.43.638.349c.015.014.03.026.05.026l.642.354.27 1.048-.973-.796zm.966-.301l.7-.477-.513 1.2-.187-.723zm.968-1.034l-.646.441.154-1.442.9.722-.408.279zm.678-.464l-1.207-.967-.212-.171.318-.416 1.372.587.13.694-.402.273zm.657-.334l-.32-1.75 1.491 1.962-1.171-.212zm.01.342l.274.047.296 3.663-.787-1.036.218-2.674zm.535.102l.326.06.466 1.322-.57 1.39-.222-2.772zm-1.383-2.868l.16.212.219 1.193-1.092-.465.713-.94zM9.07 7.92l.487-.642.192.157-.196 1.826-.201.136-.62-.334-.507-2.008.661.87c.053.056.13.056.184-.005zM7.015 5.455l.803 1.054.139.551-1.397-.156v-.865l.455-.584zm-3.177 4.1l1.522.946-.042.9-1.36-.314-.647-.85.527-.683zm1.227 2.995l-.792-1.042 1.023.238-.026.525-.205.279zm1.861-2.453L5.55 11.909l.035-.776.005-.005 1.707-2.485.377.203-.077.627-.135 1.088-.352-.464c-.049-.067-.13-.067-.184 0zm2.076 2.488l-.28-.369-.093-1.791 1.024.83.093.354-.744.976zm1.961-2.508a.123.123 0 00-.092.046l-.927 1.22-.135-.526.823-1.922.927-.627-.186 2.267-.315-.415a.134.134 0 00-.095-.043zm1.968 2.52l-.25-.329-.05-.627.657-1.608.503 1.431-.86 1.133z" fill="#fff"/><defs><linearGradient id="paint0_linear" x1="0" y1="9" x2="18" y2="9" gradientUnits="userSpaceOnUse"><stop stop-color="#C31F5D"/><stop offset="1" stop-color="#302361"/></linearGradient></defs></svg>