<!-- by TradingView --><svg width="18" height="18" xmlns="http://www.w3.org/2000/svg"><path fill="url(#paint0_linear)" d="M0 0h18v18H0z"/><path d="M11 6.599v-.462c0-.768.229-1.042 1.073-1.35L11.742 4C10.636 4.391 10 5.09 10 6.137V6.5a11.71 11.71 0 00-2 0v-.364c0-.768.355-1.042 1.198-1.35L8.891 4C7.77 4.391 7 5.09 7 6.137v.462C5.784 6.735 3 7.459 3 9c0 1.54 2.783 2.267 4 2.4v.463c0 .768-.243.982-1.087 1.29l.345.847C7.364 13.609 8 12.91 8 11.863v-.367a11.686 11.686 0 002 0v.367c0 .768-.342.982-1.186 1.29l.31.847C10.229 13.609 11 12.91 11 11.863V11.4c1.22-.136 4-.857 4-2.4 0-1.542-2.78-2.267-4-2.401zM7 10.56c-.869-.108-3-.42-3-1.561 0-1.05 2.222-1.464 3-1.56v3.121zm3 .075a11.686 11.686 0 01-2 0V7.33a11.71 11.71 0 012 0v3.306zm1-.075V7.44c.707.088 3.052.596 3 1.56-.062 1.154-2.089 1.448-3 1.561z" fill="#fff"/><defs><linearGradient id="paint0_linear" x1="3.349" y1="3.122" x2="21.904" y2="24.434" gradientUnits="userSpaceOnUse"><stop stop-color="#1A1E21"/><stop offset="1" stop-color="#06060A"/></linearGradient></defs></svg>