<!-- by TradingView --><svg width="18" height="18" viewBox="0 0 18 18" xmlns="http://www.w3.org/2000/svg"><path fill="#F0F3FA" d="M0 0h18v18H0z"/><path d="M9 4a5.12 5.12 0 0 1 4.96 3.52c.05.19.09.39-.14.46a291.9 291.9 0 0 1-1.94.02c-.16 0-.23-.08-.3-.21A2.83 2.83 0 0 0 9 6.19a2.83 2.83 0 0 0-2.58 1.6c-.07.13-.13.2-.29.2a302.02 302.02 0 0 1-1.94-.01c-.23-.07-.2-.27-.14-.46A5.12 5.12 0 0 1 9 4Z" fill="url(#a)"/><path d="M10.14 10.1a1.54 1.54 0 0 0 0-2.2 1.64 1.64 0 0 0-2.28 0 1.54 1.54 0 0 0 0 2.2 1.64 1.64 0 0 0 2.28 0ZM9.48 9c0 .26-.21.47-.48.47A.48.48 0 0 1 8.5 9c0-.26.22-.47.49-.47s.48.2.48.47Z" fill="#4AB1D6"/><path d="M8 13.67v-1.73c-.01-.13-.07-.21-.18-.25a2.65 2.65 0 0 1-1.69-1.53c-.06-.14-.18-.16-.31-.16H4.38a.54.54 0 0 0-.26.05c-.15.1-.13.26-.09.43a4.8 4.8 0 0 0 3.5 3.5c.24.05.46.05.47-.3Zm2-1.73v1.74c0 .35.23.35.48.3a4.8 4.8 0 0 0 3.49-3.5c.04-.16.06-.34-.09-.43a.54.54 0 0 0-.26-.05h-1.44c-.13 0-.25.02-.31.16-.36.79-.92 1.3-1.69 1.54-.11.03-.17.11-.17.24Z" fill="url(#b)"/><defs><linearGradient id="a" x1="9" y1="4" x2="9" y2="8" gradientUnits="userSpaceOnUse"><stop stop-color="#84E1CC"/><stop offset="1" stop-color="#1B88DA"/></linearGradient><linearGradient id="b" x1="9" y1="10" x2="9" y2="14" gradientUnits="userSpaceOnUse"><stop stop-color="#F09465"/><stop offset=".37" stop-color="#EB4269"/><stop offset="1" stop-color="#CF0C9B"/></linearGradient></defs></svg>