<!-- by TradingView --><svg xmlns="http://www.w3.org/2000/svg" width="18" height="18"><path fill="#F0F3FA" d="M0 0h18v18H0z"/><path d="M4.94 6l1.57-1.05 2.38-1.11 3.6 1.73.25.72-.58 1.04L8.89 8.7 5.12 6.9 4.94 6zm1.21 4.04l-.12 2.52 1.4 1.08 1.51.49v-2.9l-1.5-1.2-1.08-.23-.2.24z" fill="#E7F2F8"/><path d="M5.03 5.45c.11-.08.19-.13.24-.14l2.69-1.53a2.12 2.12 0 012.1 0l2.78 1.58c.75.42.75 1.51 0 1.94l-2.77 1.58c-.66.37-1.46.37-2.11 0L5.18 7.3a1.1 1.1 0 01-.2-.15c-.13 0-.26.07-.35.29v3.29a.31.31 0 01-.63 0V7.27c.04-.5.26-1.27 1.03-1.82zm.47.43a.52.52 0 000 .88L7.81 8.2c.7.43 1.57.44 2.28.01l2.43-1.46a.52.52 0 000-.87l-2.4-1.44a2.18 2.18 0 00-2.25 0L5.5 5.89z" fill="#F42E3F"/><path d="M6.03 9.7c.16-.16.6-.36.92-.2l.07.04c.27.13.75.37 1.25.68.6.35.73.47.76.54.18.25-.14.46-.27.42-.07-.01-.29-.15-.56-.31-.42-.26-.97-.6-1.3-.71-.44-.16-.53.2-.55.41V12c0 .23.07.46.09.54.14.49 1.39 1.03 2.04 1.25.1 0 .32.1.33.33 0 .24-.16.3-.24.3-.12 0-.62-.14-1.67-.68-1.05-.53-1.2-1.2-1.18-1.48v-1.8c.02-.35.16-.6.31-.74zm5.96.4a.31.31 0 100-.63.31.31 0 000 .63zm.02.31a.31.31 0 00-.31.32v1.89a.31.31 0 00.62 0v-1.9a.31.31 0 00-.31-.3z" fill="#0391F5"/></svg>