<!-- by TradingView --><svg width="18" height="18" viewBox="0 0 18 18" xmlns="http://www.w3.org/2000/svg"><path fill="url(#a3ud3p1vr)" d="M0 0h18v18H0z"/><circle cx="9" cy="9" r="6" fill="url(#b3ud3p1vr)"/><circle cx="9.03" cy="9.07" r="5.52" fill="url(#c3ud3p1vr)"/><circle cx="9.01" cy="9.16" r="4.33" fill="url(#d3ud3p1vr)"/><path d="m9.64 5.2.4.1c.2.1.39.25.56.45l.16.23.02.06.04.17c-.14-.06-.26-.17-.45-.18a3.97 3.97 0 0 0-.68.02l-.03.02c-.13.22.11.35.17.51.08.19.17.34.3.47.05.05.1.05.14 0a4.64 4.64 0 0 0 .52-.28c.08-.04.14-.04.23-.03a.07.07 0 0 0 .07-.1c-.05-.1-.11-.2-.2-.3-.02-.01-.03-.06-.04-.12l.47.37c.15.13.24.24.27.35.03.1 0 .16-.06.18-.08.03-.08.05 0 .07.12.02.62.1.59.3 0 .03-.02.05-.04.07-.02.02-.05.02-.07.01a.08.08 0 0 0-.06 0c-.05 0-.05.02 0 .05.07.04.13.11.16.21.01.03.02.06.01.08 0 .02-.02.03-.04.01a1.53 1.53 0 0 0-1.41.07c-.16.1-.24.2-.3.36a.11.11 0 0 0 .04.14c.1.07.23.11.38.12.48.04.9-.06 1.28-.3.02-.01.03 0 .04.02v.08a.5.5 0 0 1-.4.25v.03a.01.01 0 0 0 .01.01.3.3 0 0 1 .08 0c.07 0 .08.03.02.06-.17.1-.37.16-.61.14v.01c-.01.03 0 .05.02.07l.08.02.53-.03c.08 0 .14.03.2.09.06.05.1.12.13.2a.9.9 0 0 1-.03.47c-.08.16-.23.3-.47.4-.47.23-.97.35-1.5.33h-.49c-.35-.01-.7-.08-1.03-.2.23 0 .52.03.87.08s.74.03 1.16-.07l.38-.06c.28-.04.74-.2.87-.5a.1.1 0 0 0-.05-.13.1.1 0 0 0-.05 0h-.07c-.03 0-.06 0-.08-.02a3.62 3.62 0 0 0-.43-.17 2.06 2.06 0 0 1-1.06-1h-.02v.01c-.03.2-.15.37-.23.55a.88.88 0 0 1-.4.4 6.5 6.5 0 0 1-.75.33c-.13.04-.25.07-.37.07s-.24.02-.35.04c-.08.01-.15-.01-.23-.02a.03.03 0 0 0-.03.02.03.03 0 0 0 0 .03l.11.23c-.24-.09-.61-.27-.82-.26-.23.02-.38.2-.37.43.02.27.22.42.42.57.08.06.16.1.25.14l.36.15c.16.06.38.12.67.17.95.16 1.9.17 2.86.02.07.05.14.06.22.03h.06c.08 0 .14.06.18.15v.06c-.18.2-.32.43-.4.69a.42.42 0 0 1-.18.23c-.23.13-.44.29-.65.47a.08.08 0 0 0-.02.05c-.01.05 0 .07.05.04.33-.16.63-.35.91-.57.03-.03.08-.03.14 0a.75.75 0 0 1-.14.15 5.1 5.1 0 0 1-1.2.63.3.3 0 0 0-.18.13 4.1 4.1 0 0 1-.4.1c-.1.02-.18.01-.23-.02.04-.01.06-.03.07-.05 0-.03 0-.04-.03-.04h-.13c-.02 0-.03-.01-.03-.03v-.07a.12.12 0 0 1 .08-.05 30.57 30.57 0 0 0 .4-.15v-.05c0-.14-.01-.34.14-.41.16-.07.32-.16.48-.27.12-.09.15-.25.16-.38a.05.05 0 0 0-.02-.05.05.05 0 0 0-.04-.01c-.34.02-.7 0-1.05-.04l-.46-.04c-.27 0-.57-.02-.81-.14-.11-.06-.22-.1-.33-.14-.24-.08-.47-.19-.69-.34a.18.18 0 0 0-.2-.02.06.06 0 0 0-.03.05v.1a.07.07 0 0 1-.08.06l-.03-.02-.2-.18a.1.1 0 0 0-.06-.02c-.2-.04-.27-.2-.4-.35-.1-.12-.08-.27-.09-.42a.93.93 0 0 1 .19-.68h.03v.02c-.07.14-.12.27-.15.4a.7.7 0 0 0 .08.48l.02.02h.05v-.05a1.5 1.5 0 0 1-.03-.31c0-.32.18-.46.38-.66.13-.13.37-.16.55-.16.15 0 .26.11.41.15.34.06.65.08.93.03a1.8 1.8 0 0 0 .51-.18V9.4c.02-.09-.02-.09-.12 0-.03.02-.06.02-.08-.02-.04-.05-.08-.09-.14-.1a14.67 14.67 0 0 1-1.17-.26c-.11-.05-.33-.1-.38-.2a1.05 1.05 0 0 0-.32-.35c-.14-.08-.42-.31-.42-.49v-.42c.02-.14.1-.23.15-.36a.8.8 0 0 1 .55-.45l.9-.2c.21-.04.46-.02.74.09l.35.1.04.06v.08a.05.05 0 0 0 .03.07l.37.04a.04.04 0 0 0 .03-.06.3.3 0 0 1-.06-.13.7.7 0 0 0-.21-.42 1.39 1.39 0 0 0-.61-.3c-.48-.11-.88-.12-1.21-.05a2.3 2.3 0 0 0-.79.39.07.07 0 0 1-.05.01.21.21 0 0 1-.09-.03c-.02-.01-.03-.03-.01-.06.19-.37.8-.58 1.2-.58a3.76 3.76 0 0 1 .95.1.08.08 0 0 0 .05-.07l-.01-.04a.2.2 0 0 0-.08-.07 1.3 1.3 0 0 0-.78-.16.03.03 0 0 1-.01-.05l.01-.05c.31-.03.53.03.86.12.02.01.03 0 .05-.01a.9.9 0 0 1 .83-.32Z" fill="#5D8529"/><path d="m7.9 5.4-.01.06a.03.03 0 0 0 .03.05c.28-.02.53.03.76.16a.2.2 0 0 1 .08.07.08.08 0 0 1 0 .08.08.08 0 0 1-.09.03c-.3-.07-.6-.1-.9-.1-.4 0-1.01.2-1.2.58-.02.03-.01.05.01.06l.09.03.05-.01c.28-.2.54-.33.79-.39.33-.07.73-.06 1.21.04.22.05.42.15.6.31.13.1.18.26.22.42 0 .05.03.1.06.13a.04.04 0 0 1-.03.06l-.37-.04a.05.05 0 0 1-.04-.07v-.08a.07.07 0 0 0-.03-.05c-.12-.05-.23-.07-.35-.11-.28-.1-.53-.13-.74-.09l-.9.2a.8.8 0 0 0-.55.45c-.05.13-.13.22-.14.36-.01.15-.02.3-.01.42 0 .18.28.41.42.5.11.06.27.22.32.34.05.1.27.15.38.2l.27.08.9.18c.06.01.1.05.14.1.02.04.05.04.08.01.1-.08.14-.08.13.01a.04.04 0 0 1-.03.04 1.8 1.8 0 0 1-.49.16c-.28.05-.59.03-.93-.03-.15-.04-.26-.15-.4-.15-.19 0-.43.03-.56.16-.2.2-.39.34-.38.66 0 .1.01.21.04.31v.04l-.03.02h-.03l-.02-.03a.7.7 0 0 1-.08-.49c.03-.12.08-.25.16-.4h-.01l-.03-.01a.93.93 0 0 0-.19.68c.01.15 0 .3.1.42.12.14.18.31.4.35a.1.1 0 0 1 .04.02l.2.18a.07.07 0 0 0 .11-.04l.01-.1c0-.02.02-.04.04-.05a.18.18 0 0 1 .19.02c.22.15.45.26.7.34.1.04.21.08.32.14.24.12.54.14.81.14.16 0 .3.02.46.04a6.14 6.14 0 0 0 1.09.05.05.05 0 0 1 .02.05c-.01.13-.04.29-.16.38-.16.1-.32.2-.48.27-.15.07-.15.27-.13.4a.07.07 0 0 1-.05.09l-.36.12a.12.12 0 0 0-.07.05.09.09 0 0 0-.01.07c0 .02.01.03.03.03h.13c.03 0 .04.01.03.04-.01.02-.03.04-.07.05-.23.02-.47.05-.7.02a2.77 2.77 0 0 0-.4 0 .27.27 0 0 1-.15 0 4.6 4.6 0 0 1-.86-.22v-.06a6.27 6.27 0 0 1-.4-.18 2.3 2.3 0 0 1-.35-.24c-.38-.3-.73-.66-1.04-1.04-.19-.13-.35-.37-.5-.74-.03-.18-.08-.37-.14-.57a1.9 1.9 0 0 1-.1-.48c0-.17.1-.39.13-.56.07-.34.2-.65.38-.95l.38-.8.3-.46c.1-.14.17-.31.23-.52.05-.13.13-.3.25-.48.22-.35.59-.56.98-.65l.44-.07Z" fill="#68982E"/><path d="M10.6 5.75c.13.07.23.18.3.31.04.1.1.17.14.2.28.25.53.4.68.77.11.27.49.13.45.52-.03.03-.04.08-.03.14l.01.1c-.02 0-.03 0-.04.04a.38.38 0 0 0-.16-.21c-.05-.03-.05-.05 0-.06l.06.01c.03.01.05.01.07 0a.13.13 0 0 0 .04-.08c.03-.2-.47-.28-.59-.3-.08-.02-.08-.04 0-.07.07-.02.09-.08.06-.18a.78.78 0 0 0-.27-.35 39.08 39.08 0 0 0-.5-.38l-.04-.17a.14.14 0 0 0-.02-.06l-.16-.23Z" fill="#426437"/><path d="m10.82 6.2.03.02c0 .06.02.1.04.13.09.09.15.19.2.29a.07.07 0 0 1-.07.1c-.09 0-.15-.01-.23.03a4.63 4.63 0 0 1-.52.28c-.05.05-.1.05-.14 0a1.43 1.43 0 0 1-.3-.47c-.06-.16-.3-.29-.17-.5a.07.07 0 0 1 .06-.04c.22-.02.43-.03.65-.01.2 0 .3.12.45.18Z" fill="#6DA633"/><path d="M12.11 7.83c0-.03.02-.04.04-.03l.06.15.03.34a.59.59 0 0 0-.06.2h-.05l-.02-.03v-.13c0-.02-.02-.03-.04-.02-.37.24-.8.34-1.28.3a.76.76 0 0 1-.38-.12.11.11 0 0 1-.04-.14.67.67 0 0 1 .3-.36 1.53 1.53 0 0 1 1.4-.07c.03.02.04.01.05-.01v-.08ZM9.37 8.13c.07.21.02.42-.16.62-.52.06-1-.06-1.48-.37a1.24 1.24 0 0 0-.41-.17c-.1-.02-.1-.05 0-.09.32-.13.67-.22 1.06-.26.42-.06.75.04.99.27Z" fill="#22261A"/><path d="M7.64 8.25a.55.55 0 0 0-.17-.08.02.02 0 0 1-.01-.02.02.02 0 0 1 .01-.02c.34-.11.68-.19 1.02-.23.06 0 .07.01.03.06-.19.19-.22.4-.1.64a.02.02 0 0 1-.01.03c-.27-.09-.52-.21-.77-.38ZM10.95 8.17a.86.86 0 0 1-.49.2c.03-.25.28-.36.49-.43.02 0 .03 0 .02.03l-.02.2Z" fill="#F2CDCC"/><path d="M11.54 8.23c.07.04.16.02.2-.05.03-.06 0-.15-.07-.18-.07-.04-.15-.02-.19.04-.03.07 0 .15.06.19Z" fill="#B5B3B5"/><path d="M11.99 8.28c-.03.02-.04.02-.03-.01a.42.42 0 0 0 .02-.26c-.01-.04 0-.04.03-.03.05.03.08.06.1.1.02.03.02.05 0 .07a.46.46 0 0 1-.12.13Z" fill="#F2CDCC"/><path d="M11.2 8.15c.05-.02.07-.06.06-.1-.01-.04-.06-.06-.1-.04-.05.01-.07.06-.06.1.01.03.06.05.1.04Z" fill="#B5B3B5"/><path d="M8.7 8.27a.1.1 0 1 0 0-.18.1.1 0 0 0 0 .18Z" fill="#9D9990"/><path d="M9.37 8.13c.18.14.28.29.3.45 0 .02 0 .03-.03.04l-.43.13c.18-.2.23-.4.16-.62Z" fill="#D0C7BE"/><path d="M9.05 8.26c-.02.06 0 .13.05.14.05.02.11-.01.13-.07.03-.07 0-.13-.05-.15-.05-.02-.1.02-.13.08Z" fill="#9D9990"/><path d="M10.96 8.17c.03.14.1.26.2.36v.02c-.22.03-.44 0-.66-.08-.04-.01-.06-.05-.04-.1a.86.86 0 0 0 .5-.2Z" fill="#D0C7BE"/><path d="m8.65 10.26-.73-.21-.12-.23a.03.03 0 0 1 0-.03.03.03 0 0 1 .04-.02c.08 0 .15.03.23.02l.35-.04c.12 0 .24-.03.37-.07.27-.1.52-.21.75-.33a.88.88 0 0 0 .4-.4c.08-.18.2-.35.22-.55l.02-.01a.02.02 0 0 1 .01 0c.21.4.6.86 1.06 1 .14.05.29.1.43.17l.08.02h.07a.1.1 0 0 1 .1.13c-.13.3-.6.46-.87.5l-.38.06c-.42.1-.81.12-1.16.07a5.65 5.65 0 0 0-.87-.08Z" fill="#6DA633"/><path d="M12.1 8.41v.05l.04.03h.04l-.15.34v.05l.2.35c-.03 0-.05.02-.06.03a.5.5 0 0 0-.13-.2.27.27 0 0 0-.2-.09 12.32 12.32 0 0 0-.6.01.07.07 0 0 1-.04-.07h.01c.24 0 .44-.04.61-.15.06-.03.05-.05-.01-.06a.3.3 0 0 0-.1 0v-.03l.01-.01a.5.5 0 0 0 .38-.25Z" fill="#526031"/><path d="M12.23 9.23c0 .08.05.1.14.1.22.15.2.4.12.64l-.13.21a.05.05 0 0 0 0 .06c.06.08.09.18.08.27-.03.13-.09.24-.16.34l-.1.15-.9.27c-.95.15-1.9.14-2.85-.02a3.39 3.39 0 0 1-1.28-.46c-.2-.15-.4-.3-.42-.57 0-.23.14-.41.37-.43.21 0 .58.17.82.26l.73.21c.34.12.68.19 1.03.2h.5c.52.02 1.02-.1 1.49-.32.24-.12.4-.25.47-.4a.9.9 0 0 0 .03-.48l.06-.03Z" fill="#583710"/><path d="M7.29 10.24c-.08-.04-.1-.02-.06.06.03.06.08.1.15.12a6.4 6.4 0 0 0 4.23.3c.24-.08.53-.2.66-.42.01-.02.03-.03.05-.01.12.1.04.29-.01.4a.34.34 0 0 1-.18.16c-.55.25-1.04.4-1.45.43-.73.06-1.4.04-2.02-.05-.4-.06-.82-.18-1.27-.38-.2-.09-.38-.24-.53-.4a.34.34 0 0 1-.07-.34c.06-.2.19-.3.4-.25.27.05.58.24.88.32.38.1.76.27 1.15.33.42.06.87.06 1.36 0a2.98 2.98 0 0 0 1.46-.5.62.62 0 0 0 .25-.52.05.05 0 0 1 .04-.05h.03l.05.05c.03.04.05.1.06.15a.77.77 0 0 1-.38.68c-.13.07-.23.2-.39.24-.4.1-.81.17-1.22.23-.37.05-.74.05-1.11 0a10.7 10.7 0 0 1-1.59-.32 2.32 2.32 0 0 1-.5-.23Z" fill="#9E5722"/><path d="M12.18 11c-.12.47-.3.92-.53 1.35l-.05.06c-.06-.02-.1-.02-.14.01-.28.22-.58.4-.9.57-.05.03-.07.01-.06-.04 0-.02 0-.04.02-.05.2-.18.42-.34.65-.47a.42.42 0 0 0 .18-.23c.09-.26.22-.5.4-.7a.05.05 0 0 0 0-.05c-.04-.1-.1-.14-.18-.16l-.06.01a.23.23 0 0 1-.22-.03l.9-.27Z" fill="#546F22"/><defs><linearGradient id="a3ud3p1vr" x1="3.35" y1="3.12" x2="21.9" y2="24.43" gradientUnits="userSpaceOnUse"><stop stop-color="#1A1E21"/><stop offset="1" stop-color="#06060A"/></linearGradient><linearGradient id="b3ud3p1vr" x1="9" y1="3" x2="9" y2="15" gradientUnits="userSpaceOnUse"><stop stop-color="#C3B9AD"/><stop offset="1" stop-color="#898980"/></linearGradient><linearGradient id="c3ud3p1vr" x1="9.03" y1="3.55" x2="9.03" y2="14.59" gradientUnits="userSpaceOnUse"><stop stop-color="#3E7443"/><stop offset=".24" stop-color="#7CAB74"/><stop offset=".5" stop-color="#3A6731"/><stop offset=".76" stop-color="#56854E"/><stop offset="1" stop-color="#2E5022"/></linearGradient><linearGradient id="d3ud3p1vr" x1="9.01" y1="4.83" x2="9.01" y2="13.5" gradientUnits="userSpaceOnUse"><stop stop-color="#CFF7F6"/><stop offset=".25" stop-color="#FAFAF9"/><stop offset=".44" stop-color="#FCF"/><stop offset=".55" stop-color="#F9D0AA"/><stop offset="1" stop-color="#F7F8A8"/></linearGradient></defs></svg>