<!-- by TradingView --><svg width="18" height="18" viewBox="0 0 18 18" xmlns="http://www.w3.org/2000/svg"><path fill="url(#afzl1rbkf)" d="M0 0h18v18H0z"/><path d="M9.5 4C11.43 4 13 5.47 13 7.28v1.9c0 1.8-1.57 2.82-3.5 2.82-.3 0-.89-.03-1.17-.1v.8c0 1.33-.86 2.28-2.29 2.3H6V7.28C6 5.47 7.57 4 9.5 4Zm0 2c-.48 0-1 .3-1 .76v2.41c0 .46.52.83 1 .83.49 0 1-.37 1-.83v-2.4c0-.46-.51-.77-1-.77Z" fill="#fff"/><defs><linearGradient id="afzl1rbkf" x1="9" y1="0" x2="9" y2="18" gradientUnits="userSpaceOnUse"><stop stop-color="#7D43ED"/><stop offset="1" stop-color="#47289D"/></linearGradient></defs></svg>