<!-- by TradingView --><svg width="18" height="18" viewBox="0 0 18 18" xmlns="http://www.w3.org/2000/svg"><path fill="#F0F3FA" d="M0 0h18v18H0z"/><circle cx="9" cy="9" r="5" fill="#E98832"/><circle cx="9" cy="9" r="4.41" fill="#EE9E55"/><circle cx="9" cy="9" r="3.53" fill="#F6B47A"/><path d="m10.7 6.69-.19-.08a.05.05 0 0 0-.06.05c0 .04-.04.09-.12.14v.02c-.08.28-.1.56-.07.85 0 .02 0 .03.02.05 0 .03.02.05.01.06-.03.23.04.42.21.56.04.03.07.06.08.1.03.1-.01.16.08.25l.02.04c.01.07.04.13.07.18l.02.05c0 .07.02.14.05.2 0 .02.02.02.05.02l.23-.06.05-.04c.09-.12.16-.15.22-.1l.03.05c0 .09-.01.18-.06.27h-.05c-.02 0-.03 0-.04-.02 0-.03-.02-.04-.05-.06l-.44.06c-.05-.01-.09-.01-.1.02-.02.01-.02.02 0 .03l.11.09c.07.05.06.07-.02.08l-.2.01c.02-.1-.07-.08-.26.02l-.35.1c.17-.06.33-.14.47-.24.29-.19.18-.47.04-.7a.05.05 0 0 0-.04-.02.05.05 0 0 0-.04.01.78.78 0 0 1-.43.25c.02-.03.02-.05 0-.07a.1.1 0 0 0-.05-.02c.04 0 .07-.01.1-.04a7.45 7.45 0 0 0-.7-1.71c-.06-.08.04-.36-.06-.56-.02-.03-.01-.04.02-.01l.14.1h.03l.02-.01-.16-.34c.04-.1 0-.22-.13-.34.17-.04.3.03.38.23 0 .03.03.07.05.1l.04.04c.49.06.3.07.65.1.02.01.03 0 .04-.02l.04-.31c0-.24.06-.43.13-.6V5.4a.43.43 0 0 1 .05-.25h.09c.05-.01.08.01.08.07 0 .16-.02.31.01.48.05.32.1.65.13 1 0 .03-.01.04-.03.02l-.1-.04Z" fill="#212125"/><path d="M9.15 5.93c.12.12.17.24.13.34-.05.16 0 .27.16.34h-.05l-.14-.1c-.03-.02-.04-.01-.02.02.1.2.2.34.26.42.04.06.1.08.17.08-.05.04-.04.1.06.18a.4.4 0 0 0-.13.18c-.03 0 .82 1 .5 1.32h-.04c0 .06 0 .07-.1.15.01.02.01.04 0 .07-.16-.08-.25-.19-.28-.32a3.68 3.68 0 0 0-.24-.82c-.24-.49-.6-.66-1.1-.52-.15.04-.33.13-.45.18l.01-.02v-.02l-.03-.05.1-.07.01-.04v-.34a.03.03 0 0 0-.03-.04c-.24 0-.39-.1-.6-.27h-.02v.02c.08.07.13.15.15.26l-.5-.55h-.02v.34a.28.28 0 0 1-.05-.18.1.1 0 0 0-.01-.05.52.52 0 0 1-.05-.18 5.4 5.4 0 0 1-.19-.3.38.38 0 0 0-.19-.15 1.04 1.04 0 0 0-.26-.06l-.02-.02c-.02 0-.02 0 0 0 .09-.04.2-.04.26-.03.2.04.4.1.6.19.09.04.21.13.39.3a15.44 15.44 0 0 0 .4.33.1.1 0 0 0 .12-.04c0-.02.05-.03.11-.02.04 0 .07 0 .1.02.01.03.04.04.07.03a.03.03 0 0 0 .02-.03v-.01c-.02-.04 0-.06.05-.07.02 0 .03-.02.02-.04l-.02-.24a.09.09 0 0 0-.04-.06.07.07 0 0 1-.03-.05.43.43 0 0 0-.13-.24.1.1 0 0 1-.03-.04c-.05-.16-.16-.27-.35-.31l-.14-.06c-.03 0-.03-.02 0-.02.18-.02.35 0 .51.06.38.16.65.44.82.85.01.02.03.03.05.02l.14-.04a.04.04 0 0 0 .03-.05c-.03-.06-.02-.15.02-.25Z" fill="#322F2D"/><path d="M8.16 6.48a.15.15 0 0 0-.1-.02c.05-.07.05-.17 0-.3a1.12 1.12 0 0 0-.53-.66.01.01 0 0 1 0-.02l.03-.01h.03c.22.12.38.3.47.53a39.5 39.5 0 0 1 .13.38.16.16 0 0 0-.03.1Z" fill="#A5744D"/><path d="M6.2 5.75c.09 0 .18.03.26.06.08.03.14.08.19.15a5.41 5.41 0 0 0 .19.3c0 .06.02.12.05.18v.05c0 .07.03.13.07.18a.46.46 0 0 1-.1.14h-.02l-.02-.02-.12-.42c-.13-.22-.3-.46-.55-.56 0-.03.02-.05.05-.06Z" fill="#F7D992"/><path d="M6.15 5.81c.25.1.42.34.55.56v.05c0 .05-.01.05-.04.01-.1-.14-.16-.25-.31-.38a7.8 7.8 0 0 1-.26-.21c-.02-.02-.02-.03 0-.03h.06Z" fill="#965D37"/><path d="m9.28 6.27.16.34c-.16-.07-.2-.18-.16-.34Z" fill="#9A9A9A"/><path d="M7.86 7.36a.16.16 0 0 0-.1.05c-.01.02-.02.01-.02 0 0-.02 0-.03.02-.03v-.01h-.02c0 .03-.02.04-.04.05V7.4l-.04-.02a.6.6 0 0 1-.23-.02.1.1 0 0 0-.05 0l-.12.04c-.01 0-.02 0-.02.02v.01l.02.01a.5.5 0 0 0 .17 0c.08 0 .1.02.04.08-.06.07-.13.1-.15.2a.85.85 0 0 0-.03.19c0 .01 0 .02.02.02h.03l.01-.02a.22.22 0 0 1 .06-.09l-.01.1-.03.04a.1.1 0 0 0-.04.08l-.05.03a.03.03 0 0 1-.04-.01.1.1 0 0 0-.1-.04c-.01 0-.02.01-.02.04-.01.04-.04.06-.06.05a.04.04 0 0 1-.03-.03.05.05 0 0 1 .01-.05.23.23 0 0 0 .07-.09V7.9c0-.03-.02-.03-.04-.01l-.22.19c-.03-.09-.01-.13.05-.14a.1.1 0 0 0 .05-.02.19.19 0 0 0 .07-.12l.03-.1a.13.13 0 0 1 .09-.05.05.05 0 0 0 .03-.07c-.08-.1-.01-.18-.12-.27a.03.03 0 0 1 0-.04.3.3 0 0 0 .02-.12l-.01-.02-.02-.02H7a.05.05 0 0 1-.04-.04c-.04-.1-.1-.14-.19-.12a.1.1 0 0 1-.01-.12l.01-.01h.03v.03l.01.04c.01.01.02 0 .02-.01l.02-.06a.46.46 0 0 0 .1-.14v-.33c0-.02 0-.02.02 0l.5.54a.42.42 0 0 0-.15-.26v-.01h.01c.22.16.37.27.61.26a.03.03 0 0 1 .03.04v.34l-.01.04-.1.07Z" fill="#A5744D"/><path d="M10.7 6.69h-.09c-.01.01-.02.02 0 .03l.16.2-.08-.06c-.02-.01-.03 0-.04.01-.02.04-.05.06-.07.06-.02 0-.03.02-.03.04 0 .12.07.2.2.24.1.04.2.12.3.24a.7.7 0 0 0-.3-.06c-.05-.06-.1-.04-.15.03a1.2 1.2 0 0 0-.1.23c-.02.08 0 .21.08.4l.06.19c.01.04.03.06.05.07.03.02.06.02.1.03.02 0 .06-.01.1-.05l.19-.14c-.02.03 0 .06.03.07l.03.03-.01.1V8.3c-.01-.02-.02-.02-.04 0a.65.65 0 0 0-.18.22h-.04l-.01.03v.02l.05.18a.1.1 0 0 1 0 .07l-.07.16c-.01.03 0 .04.02.05.14.01.25-.04.33-.15a.09.09 0 0 1 .13 0c.03.02.05.06.05.1-.06-.05-.13-.02-.22.1a.08.08 0 0 1-.05.04l-.23.06c-.03 0-.04 0-.05-.02a.6.6 0 0 1-.05-.2l-.02-.05a.46.46 0 0 1-.07-.18.08.08 0 0 0-.02-.04c-.1-.1-.05-.15-.08-.25a.22.22 0 0 0-.08-.1.56.56 0 0 1-.2-.56l-.02-.06a.13.13 0 0 1-.02-.05 2.53 2.53 0 0 1 .07-.87c.08-.05.12-.1.12-.14a.05.05 0 0 1 .02-.04.05.05 0 0 1 .04 0l.2.07Z" fill="#9A9A9A"/><path d="M10.77 6.91c.2.16.33.36.4.6-.04.03-.08.01-.13-.06a.62.62 0 0 0-.3-.24c-.12-.04-.19-.12-.2-.24 0-.02.02-.03.04-.04.02 0 .05-.02.07-.06 0-.02.02-.02.04 0l.08.04Z" fill="#322F2D"/><path d="M6.85 8.07c-.2-.3-.43-.53-.69-.71.1.04.18.09.27.14.06.03.12.08.18.13.05.06.12.1.18.14l.02.02v.02h.11c.02 0 .03 0 .03-.02 0-.1-.02-.2-.07-.31 0-.02-.02-.02-.04-.02l-.02.02c-.02 0-.03 0-.04-.02v-.01a17.78 17.78 0 0 0-.3-.21c-.02-.02-.03-.05-.02-.1 0-.01.01-.02.03-.02l.3.09c.07.03.09 0 .05-.06a1.1 1.1 0 0 1-.07-.2c.09-.03.15.01.2.11 0 .02.01.03.03.04h.04l.02.02v.02a.3.3 0 0 1-.02.12.03.03 0 0 0 .01.04c.1.09.04.17.12.27a.05.05 0 0 1-.03.07.13.13 0 0 0-.09.06.25.25 0 0 0-.03.1c0 .04-.03.08-.07.11a.1.1 0 0 1-.05.02c-.06 0-.08.05-.05.14Z" fill="#714A2E"/><path d="M9.94 8.93a.78.78 0 0 0 .43-.25.05.05 0 0 1 .06 0l.02.01c.14.23.25.51-.04.7a10.66 10.66 0 0 1-1.93.75c-.14.04-.32.04-.55 0-.33-.07-.49-.28-.46-.63l.03-.04c.1-.05.2-.09.3-.1.12-.03.3-.06.55-.09l.74-.18.01-.02.01-.01c.15-.04.41-.13.47-.27.03-.08.01-.1-.05-.06-.14.07-.3.13-.5.17-.04 0-.05 0-.03-.04a.34.34 0 0 1 .11-.09c.02 0 .03-.02.02-.04l-.06-.22A.04.04 0 0 0 9 8.5l-.23.24a.08.08 0 0 1-.05.03c-.23.03-.42-.05-.53-.27a10.73 10.73 0 0 1-.15-.26.05.05 0 0 0-.03 0l-.21.11a.24.24 0 0 0-.05.13c-.04.13-.08.24-.13.31a.15.15 0 0 1-.24.02l-.09-.1a.07.07 0 0 1-.02-.05l.06-.62a.1.1 0 0 1 .04-.08.06.06 0 0 0 .03-.05v-.09l.3-.4a.08.08 0 0 0 .04-.04l.01-.01v.03c0 .02 0 .03.01.01a.16.16 0 0 1 .1-.05l.04.05v.02l-.02.01c.12-.04.3-.13.44-.17.5-.14.87.03 1.1.52.1.18.18.45.25.82.03.13.12.24.27.32Z" fill="#1A1512"/><path d="M6.16 7.36c.26.18.49.42.7.7l.21-.18c.02-.02.03-.02.05 0v.06c-.01.03-.04.06-.08.1a.05.05 0 0 0-.01.04.04.04 0 0 0 .03.03c.02.01.05 0 .06-.05l.03-.04h.03l.02.02v.01c.02.1 0 .16-.05.18a.04.04 0 0 0-.03.04v.11a.03.03 0 0 1-.04.03c-.09 0-.16.04-.23.13a.02.02 0 0 0 .01.03h.04c0 .05-.02.1-.04.13v-.08c-.02-.01-.03-.02-.04 0l-.02.01a.9.9 0 0 1-.33-.5l.15.06c.06.02.12 0 .17-.03a.03.03 0 0 0 .01-.03.06.06 0 0 0-.05-.04c-.09 0-.12 0-.16-.07-.1-.16-.2-.3-.33-.4a.57.57 0 0 0-.28-.14.15.15 0 0 1-.1-.08c-.01-.02-.01-.03.01-.04a.44.44 0 0 1 .27 0Z" fill="#5E351E"/><path d="M10.76 7.39c-.16.14-.22.37-.18.66-.08-.19-.1-.32-.08-.4l.1-.23c.04-.07.1-.09.16-.03Z" fill="#5F5E67"/><path d="m7.7 7.42-.3.4a.22.22 0 0 0-.05.1l-.01.01H7.3c-.02 0-.02 0-.02-.02 0-.05 0-.12.03-.2.02-.09.1-.12.15-.19.05-.06.04-.09-.04-.07a.5.5 0 0 1-.17-.01l-.01-.01V7.4l.13-.04a.1.1 0 0 1 .05 0 .6.6 0 0 0 .23.02c.01 0 .02 0 .03.02v.02Z" fill="#FDCDA8"/><path d="M11.04 7.45c.05.07.1.09.12.05l.03.11.03.12v.2c.05.2.06.4.02.55-.11.07-.22.08-.33.04.05-.09.1-.16.18-.23.02-.01.03 0 .04.01v.05l-.04.05v.05h.04c.08-.03.1-.08.07-.18a.84.84 0 0 1-.04-.18c0-.1-.02-.16-.02-.18a.56.56 0 0 0-.22-.3c-.1 0-.15.02-.18.04a.09.09 0 0 0-.03.08.09.09 0 0 0 .05.07c.06.03.12.04.19.03.07.1.11.2.13.32l-.18.14c-.05.04-.09.05-.12.05a.34.34 0 0 1-.09-.03c-.02 0-.04-.03-.05-.07a2.16 2.16 0 0 1-.06-.19c-.04-.3.02-.52.18-.66a.7.7 0 0 1 .28.06Z" fill="#1A1512"/><path d="M10.92 7.61a.16.16 0 0 0-.07.05.04.04 0 0 0 0 .06l.1.1c-.07.02-.13 0-.2-.02a.09.09 0 0 1 0-.15c.02-.02.08-.03.17-.04Z" fill="#5F5E67"/><path d="M11.13 8.35a.19.19 0 0 0 0-.1.04.04 0 0 0-.02-.03c-.04-.01-.05-.04-.03-.08a.72.72 0 0 0-.13-.31l-.1-.11-.01-.03v-.03a.16.16 0 0 1 .08-.05c.1.06.17.16.22.3l.02.18c.01.07.02.14.04.18.03.1 0 .15-.07.18h-.04V8.4l.04-.05Z" fill="#fff"/><path d="m12.24 8.3-.1.24a.04.04 0 0 1-.03.02l-.1.03a.05.05 0 0 0-.04.03.19.19 0 0 1-.08.1c-.15.08-.23.2-.22.35a.77.77 0 0 0 .18.41v.01a.02.02 0 0 1-.02.02.37.37 0 0 1-.26-.13.9.9 0 0 0-.14-.13.05.05 0 0 1-.02-.04v-.18c-.03-.1-.06-.21-.07-.32 0-.05-.01-.09-.03-.12a.88.88 0 0 0-.07-.11c.04-.16.03-.34-.02-.55.08.05.12.12.15.2v.24c0 .07.01.14.05.22.04.06.09.07.14 0 .12-.13.21-.29.28-.45.04-.1.07-.1.09.01l.04.22a.03.03 0 0 0 .01.02.03.03 0 0 0 .02 0c.04 0 .07-.04.08-.1.05-.23.06-.4.05-.55 0-.02 0-.03.02-.02.07.03.1.07.1.14v.45Z" fill="#FDCDA8"/><path d="m7.33 8.04-.06.62c0 .02 0 .04.02.05l.09.1a.15.15 0 0 0 .24-.02c.05-.07.1-.18.13-.31 0 .12-.03.32.1.38.1.05.2.07.3.07h.01l.01-.02-.01-.02c-.09-.01-.16-.07-.21-.18a1.98 1.98 0 0 1-.15-.36l.2-.1a.05.05 0 0 1 .04-.01.05.05 0 0 1 .03.02l.12.24c.1.22.3.3.53.27.02 0 .04-.01.05-.03L9 8.5a.04.04 0 0 1 .07.02l.06.22c0 .02 0 .03-.02.04a.34.34 0 0 0-.1.1c-.03.03-.02.04.02.03.2-.04.36-.1.5-.17.06-.03.08-.02.05.06-.06.14-.32.23-.47.27v.01l-.01.02h-.01l-.74.18-.76.04c-.03 0-.03 0 0-.02a.54.54 0 0 1 .11-.04c.1-.03.11-.07.03-.13a.61.61 0 0 1-.17-.2.04.04 0 0 0-.04-.02l-.39.04c-.02-.03-.02-.08 0-.15a.01.01 0 0 0-.02-.01c-.07.05-.15.06-.23.02-.02 0-.02-.02 0-.04a.15.15 0 0 1 .09-.04.1.1 0 0 0 .04 0 .1.1 0 0 0 .03-.03l.02-.04v-.04c-.01-.03 0-.06.02-.08.02-.02.01-.03-.01-.04-.05 0-.11.02-.17.08l-.04-.01a.02.02 0 0 1 0-.03c.06-.1.13-.13.22-.13a.03.03 0 0 0 .03-.03l.01-.1c0-.03.01-.04.03-.05.06-.02.07-.08.05-.18v-.01l-.02-.01h-.03c-.01 0-.02 0-.03.03 0-.03 0-.04.03-.04a.1.1 0 0 1 .1.04.03.03 0 0 0 .03 0l.05-.02Z" fill="#58473D"/><path d="M6.47 8.13c.05.2.16.37.33.5a.27.27 0 0 0-.03.11l-.02-.04a1.65 1.65 0 0 0-.83-.37c.05 0 .1-.03.13-.07l.09-.12c.1-.07.2-.07.33 0Z" fill="#A5744D"/><path d="M5.91 8.33a1.65 1.65 0 0 1 .84.37l.02.04c.02.03.05.02.09-.04a.26.26 0 0 0 .04-.12c.06-.06.12-.08.17-.08.02 0 .03.02.01.04-.03.02-.03.05-.02.08v.04c0 .01 0 .03-.02.04a.1.1 0 0 1-.03.02.1.1 0 0 1-.04.01.15.15 0 0 0-.1.04c-.01.02-.01.03.01.04.08.04.16.03.23-.02a.01.01 0 0 1 .01 0c-.01.08 0 .13.01.16a.87.87 0 0 1-.27-.04.45.45 0 0 0-.17-.01c-.14 0-.24-.03-.28-.07l-.21-.19c-.1-.09-.28-.11-.41-.17-.02-.01-.03-.02-.03-.04.02-.05.07-.08.15-.1Z" fill="#322F2D"/><path d="M7.8 8.35c.03.1.08.22.15.36.05.1.12.17.2.18.02 0 .02.01.02.02v.01l-.02.01c-.1 0-.2-.02-.3-.07-.13-.06-.1-.26-.1-.38 0-.05.02-.1.05-.13Z" fill="#ECB97A"/><path d="M11.24 8.48a.9.9 0 0 1 .07.1c.02.04.03.08.03.13.01.1.04.21.07.32h-.01l-.03-.05a.17.17 0 0 0-.05-.1.09.09 0 0 0-.13 0 .33.33 0 0 1-.33.15c-.03 0-.03-.02-.02-.05l.06-.16a.1.1 0 0 0 0-.07l-.04-.18a.03.03 0 0 1 .01-.04l.04-.01c.1.04.22.03.33-.04Z" fill="#A6B3C6"/><path d="M6.86 8.7c-.04.06-.07.07-.09.04l.03-.11.02-.02.03.01v.08Z" fill="#9A9A9A"/><path d="m6.86 8.9-.01.05c0 .02-.02.02-.03.03h-.06c-.04-.03-.07-.04-.1-.03.03-.02.04-.04.03-.05h.17Z" fill="#A5744D"/><path d="m8.35 9.28-.54.08c-.1.02-.2.06-.31.11a.05.05 0 0 0-.03.04c-.03.35.13.56.46.63l.24.08.02.03v.02c0 .01-.01.02-.03.02-.2-.02-.4-.07-.59-.16a.58.58 0 0 1-.22-.23 3.6 3.6 0 0 1-.22-.39v-.05a.83.83 0 0 0 .04-.17c0-.06 0-.1-.05-.11h-.05a.15.15 0 0 1-.12.03c.02-.05 0-.08-.05-.1l.03-.01c.02 0 .02-.02.01-.03a.19.19 0 0 0-.18-.09h.06l.03-.03v-.04c.1.03.19.04.28.04l.39-.04c.02 0 .03 0 .04.02.05.08.1.15.17.2.08.06.07.1-.03.13a.54.54 0 0 0-.11.04c-.03.02-.03.02 0 .02l.76-.04Z" fill="#5E351E"/><path d="M6.64 8.95c-.02.06-.01.09.02.1.06 0 .1.02.14.05.01.02.01.03-.01.02a.55.55 0 0 1-.27-.1c.01-.03-.01-.04-.07-.03l.19-.04Z" fill="#5F5E67"/><path d="M6.66 8.95c.03-.01.06 0 .1.03.08 0 .14.02.18.09v.03l-.04.01a.13.13 0 0 0-.03.08c0 .02.01.03.03.03l.05-.01c.05 0 .09 0 .12-.03a.05.05 0 0 1 .05 0c.04.01.06.05.05.1 0 .05-.02.1-.04.18v.05c.01.04.09.17.22.39.07.11.15.19.22.23.19.09.39.14.6.16l.02-.02v-.02c0-.01 0-.03-.02-.03l-.24-.08c.23.04.41.04.55 0 .4-.1.88-.27 1.46-.5l.35-.11-.16.08c-.41.2-.83.37-1.25.54a2.04 2.04 0 0 0-.38.2v.04l.02.01.12.03a.1.1 0 0 1 .04.03c.13.12.37.13.54.14.02 0 .02 0 .03.02v.03a.02.02 0 0 1 0 .01l-.01.01h-.01c-.27.03-.53.02-.79-.03a.08.08 0 0 0-.1.05l-.1.29a.05.05 0 0 1-.1 0l-.29-.5a.04.04 0 0 0-.04-.02h-.03l-.1.02h-.02a.04.04 0 0 1-.02-.05l.04-.1v-.02a.62.62 0 0 0-.24-.11.05.05 0 0 1-.04-.03c-.07-.13-.2-.06-.3-.04a.04.04 0 0 1-.05-.04c0-.07-.03-.11-.1-.1-.09 0-.19.01-.3.04a.04.04 0 0 1-.04-.01.04.04 0 0 1 0-.05l.13-.23c.01-.08.03-.14.07-.18h.02l.01.01c0 .03.02.03.04.02a.14.14 0 0 0 .07-.05c0-.02 0-.04-.02-.04-.12-.03-.22 0-.3.11l-.36-.17-.33-.06c-.02 0-.03-.02-.03-.03 0-.06.03-.1.1-.12h.5a.04.04 0 0 0 .03-.06.39.39 0 0 0-.12-.13C6.4 9.02 6.41 9 6.43 9c.03 0 .06 0 .1.02.07.05.16.08.26.1.02 0 .02-.01 0-.03a.22.22 0 0 0-.13-.06c-.03 0-.04-.03-.02-.09h.02Z" fill="#21120A"/><path d="M6.45 8.99c.06 0 .08 0 .07.04A.18.18 0 0 0 6.43 9c-.02 0-.03.01 0 .03.04.03.08.08.1.13a.04.04 0 0 1-.03.06H6c.06-.06.13-.1.2-.13a.05.05 0 0 0 .04-.04v-.02c0-.01.01-.03.03-.03a.44.44 0 0 1 .18-.02Z" fill="#A5744D"/><path d="M11.2 9.22c0 .16-.07.23-.2.22-.15-.02-.22-.07-.24-.16l.44-.06Z" fill="#A6B3C6"/><path d="M11.34 9.3a1.5 1.5 0 0 1-.66.56l.07-.2c0-.02 0-.03-.02-.04-.05-.04-.11-.03-.2.02a.57.57 0 0 0-.36.05 17.91 17.91 0 0 0-.44.2v-.01l.55-.28.27-.09.2-.01c.08 0 .09-.03.02-.08l-.11-.09c-.02 0-.02-.02 0-.03.01-.03.05-.03.1-.02.02.1.1.14.24.16.13 0 .2-.06.2-.22.03.02.05.03.05.06l.04.02h.05Z" fill="#58473D"/><path d="m10.55 9.51-.27.09-.15.01.16-.08c.2-.1.28-.11.26-.02Z" fill="#322F2D"/><path d="M6.74 9.74a.2.2 0 0 0-.11-.13c.08-.1.18-.14.3-.11.02 0 .03.02.02.04a.14.14 0 0 1-.07.05c-.02.01-.03 0-.04-.02v-.01H6.8a.36.36 0 0 0-.07.18Z" fill="#714A2E"/><path d="m10.53 9.64-.05.32c-.47.16-.77.49-.92.97-.03.02-.05.06-.07.1-.09.01-.15.04-.2.1-.18.22-.19.53-.1.81v.03l-.02.02-.33.2-.13-.03H8.7v-.02l.02-.02.16-.04.02-.01a.06.06 0 0 0 .02-.07l-.1-.25.18-.19v-.04a.45.45 0 0 1-.1-.42.05.05 0 0 0-.03-.06 1.41 1.41 0 0 0-.46-.14h-.04a.07.07 0 0 0-.03.04l-.08.19-.01.01a.03.03 0 0 1-.05 0l-.27-.4a.13.13 0 0 0-.04-.04.08.08 0 0 0-.05 0l-.08-.02a.05.05 0 0 1-.02-.05c0-.04.02-.07.07-.1.02-.02.02-.04 0-.05l-.03-.01h.03c.02 0 .03 0 .04.02l.29.5a.05.05 0 0 0 .05.02.05.05 0 0 0 .04-.04l.12-.28a.09.09 0 0 1 .1-.05 2.75 2.75 0 0 0 .8.02.02.02 0 0 0 0-.01v-.03c0-.02-.01-.02-.03-.02-.17-.01-.41-.02-.54-.14a.1.1 0 0 0-.04-.03l-.12-.03h-.01l-.01-.03a.04.04 0 0 1 .01-.03c.11-.07.23-.14.37-.2.42-.16.84-.33 1.25-.53l.15-.01-.55.28.44-.2a.57.57 0 0 1 .36-.04Z" fill="#5E351E"/><path d="m10.68 9.86-.2.1.05-.32c.09-.05.15-.06.2-.02.02 0 .02.02.02.04l-.07.2Z" fill="#A5744D"/><path d="M8.82 11.75c-.1-.02-.13 0-.04.24v.04l-.17.16a2 2 0 0 1-.33-.03.6.6 0 0 0-.27.03.04.04 0 0 0-.03.04c0 .07 0 .14.02.21v.01a.31.31 0 0 1-.04-.03.08.08 0 0 1-.03-.05.97.97 0 0 1 0-.24c0-.02 0-.03.02-.04a.23.23 0 0 0 .07-.07L8 11.97a.42.42 0 0 1-.12-.22c.07.01.1-.04.12-.15a2 2 0 0 0-.03-.61c0-.01-.01-.02-.03-.02 0-.1-.02-.14-.06-.13a.13.13 0 0 0 .04-.1l.27.4a.03.03 0 0 0 .03 0 .03.03 0 0 0 .03-.01l.08-.19a.07.07 0 0 1 .07-.04c.17.02.32.07.46.14a.05.05 0 0 1 .02.06c-.03.15 0 .29.11.42v.04l-.18.19Z" fill="#965D37"/><path d="M7.89 10.84c.04 0 .06.04.06.13-.04.02-.07.02-.1 0a.04.04 0 0 1-.01-.05c0-.03.02-.06.05-.08Z" fill="#21120A"/><path d="M9.56 10.93c-.02.18-.03.3-.01.36.01.06.05.14.1.24l.17.22.21.23c0 .05.03.1.06.16.03.07.05.12.05.16.03.23.06.45.12.66 0 .04.03.06.06.09-.02.02-.03.05-.02.1l.1.62a.3.3 0 0 0-.16.05c-.12-.15-.07-.26-.1-.42a1 1 0 0 1-.01-.2c0-.08.03-.17 0-.25l-.04-.38c0-.02 0-.03-.02-.04l-.02-.03c-.09-.28-.2-.53-.36-.76a1.18 1.18 0 0 0-.12-.12c-.15-.16-.21-.39-.08-.58.02-.05.04-.09.07-.1Z" fill="#5F5E67"/><path d="m10.73 11.42.3.38c.2.3.37.6.5.93l.14.46-.51.29v-.13a.1.1 0 0 0-.01-.05 1.6 1.6 0 0 0-.13-.23c-.09-.11-.24-.04-.29.08v.02l-.03.02c-.02 0-.04 0-.06-.02a.05.05 0 0 0-.03 0h-.02l-.01.01h-.02l-.01-.01c-.04-.1-.11-.15-.23-.12-.03-.03-.05-.05-.06-.09a4.5 4.5 0 0 1-.12-.66c0-.04-.02-.1-.05-.16a.47.47 0 0 1-.06-.16c.14-.08.2-.21.17-.41a3.97 3.97 0 0 0-.12-.44.03.03 0 0 0-.03.02.1.1 0 0 1-.01.02c-.04.03-.05.02-.05-.03a.23.23 0 0 1 .13-.18c.08-.04.11 0 .16.05l.45.41ZM9.49 11.04c-.13.2-.07.42.08.58l.12.12c.15.23.27.48.36.76l.02.03c.02 0 .02.02.02.04 0 .15.02.28.05.38.02.08 0 .17-.01.26l.02.19c.02.16-.03.27.1.42l-.72.13-.7.03-.05-.2c0-.02-.01-.04-.03-.04l-.1-.02c-.07-.01-.08-.04 0-.07.11-.07.23-.19.23-.34 0-.09.01-.15.07-.22a26.2 26.2 0 0 1 .2-.25l.02-.15a.08.08 0 0 0-.05-.08h-.04l-.18.02c-.13 0-.1-.05.1-.16a.06.06 0 0 0 .04-.04l.02-.2c0-.02-.01-.03-.04-.03l-.18-.01.33-.2.02-.02v-.03c-.09-.28-.08-.59.1-.82.05-.05.11-.08.2-.08Z" fill="#1A1512"/><path d="M7.4 12.2c-.07.13-.1.22-.12.28a43.5 43.5 0 0 1-.16.83c0 .05-.01.05-.05.03l-.13-.11a.06.06 0 0 0-.07 0l-.22.16-.55-.33.19-.57a3.63 3.63 0 0 1 1-1.21c.14-.12.24-.1.32.07 0 .02 0 .03-.02.02h-.04c-.02 0-.03 0-.04.02-.05.13-.09.25-.1.36-.02.1.01.19.07.27.02 0 .02.02 0 .04l-.08.14Z" fill="#21120A"/><path d="m8.82 11.75.1.25a.06.06 0 0 1-.04.08l-.16.04c-.02 0-.03.01-.03.02v.02h.01l.14.03h.18c.03 0 .04.02.04.05l-.02.19c0 .02-.01.03-.03.04-.2.11-.24.17-.1.16.04.14 0 .26-.13.36a.7.7 0 0 1-.72.13c-.18-.06-.17-.23-.17-.42 0-.06.03-.12.1-.17a.59.59 0 0 0-.05.4.15.15 0 0 0 .12.12c.1 0 .2-.01.33-.06a.57.57 0 0 0 .18-.1l.16-.14c.05-.04.04-.06-.03-.06a1 1 0 0 1-.56-.1.52.52 0 0 0-.15-.06.14.14 0 0 0 0-.08l.01-.01c.22.16.4.15.66.07.02 0 .03-.02.04-.04a.34.34 0 0 0 .02-.19.05.05 0 0 0-.02-.04l-.1-.05.17-.16c.02-.01.02-.03 0-.04l-.15-.27.01-.05.1-.09a.07.07 0 0 0 .01-.1.07.07 0 0 0-.02-.01l-.23-.14v-.01l.01-.02.3.18c.02.01.02.03 0 .05l-.12.17v.02h.01l.13.03Z" fill="#A5744D"/><path d="M7.9 11.75c0 .08.05.15.1.22.02.01.03.03.02.05a.23.23 0 0 1-.07.07.05.05 0 0 0-.02.04v.24c0 .02.01.03.03.05a.3.3 0 0 0 .04.03l-.01.08c-.07.05-.1.11-.1.17 0 .19-.01.36.17.42.27.1.5.05.72-.13.13-.1.17-.22.12-.36l.18-.02a.08.08 0 0 1 .1.08l-.02.15-.02.05-.19.2c-.06.07-.07.13-.07.22 0 .15-.12.27-.24.34-.07.03-.06.06.01.07l.1.02c.02 0 .03.02.03.04l.05.2-.38-.02c-.46-.08-.8-.13-1.23-.3l.05-.42c0-.02 0-.03-.02-.04h-.1c.05-.24.1-.48.13-.72.01-.06.05-.15.12-.28 0 .03 0 .05.02.06a.03.03 0 0 0 .02 0h.02l.15-.26a.1.1 0 0 1 .03-.04.4.4 0 0 0 .18-.2c0-.01 0-.02.02-.03.02-.01.04 0 .05.02Z" fill="#714A2E"/><path d="m7.92 13.87-.48-.2c-.02 0-.03-.02-.03-.05l.04-.45-.01-.05a.07.07 0 0 0-.04-.02c-.07-.02-.09-.06-.07-.13a.7.7 0 0 1 .41-.52.04.04 0 0 1 .03.01l.01.02c.05.33.05.62.15.93l.13.42c0 .03 0 .05-.03.04h-.11Z" fill="#1A1512"/><path d="m7.99 12.53.15.05c.19.1.38.13.56.11.07 0 .08.02.03.06l-.16.14a.57.57 0 0 1-.18.1.75.75 0 0 1-.33.06.15.15 0 0 1-.12-.12.59.59 0 0 1 .05-.4Z" fill="#ECB97A"/><path d="M8.04 7.82a.4.4 0 0 1 .27-.1.03.03 0 0 1 .02 0 .03.03 0 0 1 .01.03l-.02.04c-.2.1-.37.2-.51.34l-.04-.01v-.03c.03-.06.08-.1.14-.16l.13-.11Z" fill="#322F2D"/><path d="M8.73 8.22a.84.84 0 0 0-.12.04c-.05.02-.09.03-.12.02a.47.47 0 0 1-.26-.18.06.06 0 0 1 0-.07l.01-.01a.73.73 0 0 1 .18-.08c.04 0 .1 0 .17.04l.16.07c.15.07.14.13-.02.17Z" fill="#5F5E67"/><path d="M8.2 8.88a.83.83 0 0 1-.18-.15.17.17 0 0 1-.04-.1L8 8.59c.01-.03.03-.03.05 0 .26.26.55.3.89.11a.04.04 0 0 1 .05.03v.03a.75.75 0 0 1-.78.12Z" fill="#F38E4D"/><path d="M7.6 9.15a.02.02 0 0 1 0 .02.02.02 0 0 1-.02.01.3.3 0 0 1-.16.04c-.05-.01-.09-.03-.1-.06v-.02c-.02-.03-.02-.07 0-.11a.3.3 0 0 1 .13-.1l.01-.01a.02.02 0 0 1 .03.01l.1.22ZM8.5 11.34l.15.15a.06.06 0 0 1-.02.1.6.6 0 0 1-.27.05.1.1 0 0 1-.1-.09c-.02-.13.04-.2.18-.23.02 0 .04 0 .06.02Z" fill="#ECB97A"/><path d="M8.59 11.79c0 .04.04.1.1.15a.06.06 0 0 1 .02.05.06.06 0 0 1-.03.04.52.52 0 0 1-.5.02c-.05-.03-.08-.06-.08-.1 0-.13.06-.2.16-.24a.19.19 0 0 1 .14 0c.04.03.08.03.13.03.03 0 .05.02.06.05Z" fill="#F7D992"/></svg>