<!-- by TradingView --><svg width="18" height="18" viewBox="0 0 18 18" xmlns="http://www.w3.org/2000/svg"><path fill="#F0F3FA" d="M0 0h18v18H0z"/><path d="M13.44 6.4a5.64 5.64 0 0 0-.99-3.15c-.13-.2-.29-.27-.48-.24-.12.01-.25.1-.4.24A7.8 7.8 0 0 0 9.8 5.43a10.17 10.17 0 0 0-2.5.36h-.1a.17.17 0 0 1-.08-.06 9.93 9.93 0 0 0-1.93-1.72 1.24 1.24 0 0 0-.3-.17.14.14 0 0 0-.1 0 .74.74 0 0 0-.43.44 5.15 5.15 0 0 0 .14 3.96c.06.14.09.27.07.42a9 9 0 0 1-.34 1.83c-.03.1.02.21.13.37l.04.06c0 .03 0 .06-.04.07l-.3.14c-.05.02-.07.06-.05.1v.04l.02.01a.03.03 0 0 0 .02 0l.43-.13c.06-.02.1 0 .11.05l.14.38c.02.07 0 .12-.06.15-.1.06-.2.14-.28.23a.06.06 0 0 0 0 .08c.04.04.09.03.15 0l.31-.23c.03-.02.06-.02.08 0l.44.32c.02.02.02.04.02.06l-.12.34a.03.03 0 0 0 0 .04l.03.02c.03.02.06.02.08 0a.95.95 0 0 0 .16-.26c.03-.07.1-.1.17-.07l.6.19c.09.02.1.07.05.13a.92.92 0 0 0-.2.7c0 .04.03.06.06.08l.24.1c.18.1.34.17.53.21l.57.15a6.22 6.22 0 0 0 1.88.16 4.7 4.7 0 0 1 1.43-.5l1.33-.24.84-.52c.05-.31-.02-.6-.2-.84-.01-.03 0-.06.02-.08l.05-.01h.05c.17.12.22.25.27.38.03.1.07.2.15.28.06-.29-.02-.53-.26-.73a.04.04 0 0 1-.02-.03.05.05 0 0 1 .01-.02v-.02l.59-.54a.13.13 0 0 1 .13-.03l.56.17h.03a.08.08 0 0 0 .06-.03l.01-.02v-.03c.02-.04 0-.07-.04-.08l-.46-.14-.02-.02a.05.05 0 0 1-.01-.04v-.02l.3-.44a.1.1 0 0 1 .08-.04h.57c.03 0 .04-.01.05-.03l.02-.06c0-.03 0-.04-.04-.05a109 109 0 0 1-.48-.02c-.1 0-.17-.03-.2-.06-.08-.05-.1-.14-.04-.24.17-.32.33-.33.61-.35a7.02 7.02 0 0 0 .16-.03l.01-.03V9.5c0-.05-.02-.07-.07-.07h-.47a.1.1 0 0 1-.05-.01 5.26 5.26 0 0 0-1-2.35.16.16 0 0 1-.02-.1l.05-.57Z" fill="#052522"/><path d="m13.29 6.46-.02.4c0 .13.02.26.07.39l.16.41a.21.21 0 0 1-.14.06 3.93 3.93 0 0 0-.49-.96c.07.03.11.04.13.03.02 0 .04-.02.06-.04a6.03 6.03 0 0 0-.66-3c-.07-.19-.14-.28-.22-.29-.07-.06-.14-.06-.22-.02-.39.24-.64.57-.75 1a.56.56 0 0 0-.2.22l-.13.27a20.08 20.08 0 0 0-.33.54.12.12 0 0 1-.06.02c-.18.02-.35.01-.49-.02.3-.6.65-1.08 1.04-1.46l.72-.71c.13-.14.31-.23.46-.08a5.7 5.7 0 0 1 1.06 3.25Z" fill="#FDFEFE"/><path d="M12.18 3.46c-.33.22-.54.41-.62.58A13.23 13.23 0 0 0 11 5.39v.02a.05.05 0 0 0 .06 0c.14-.05.3-.08.46-.08l.08.01c.03.02.05.03.06.06a.16.16 0 0 1 .03.15l-.05.15c-.01.03 0 .05.04.06l.41.04c.02 0 .03.01.04.03l.02.04v.2c0 .03.01.05.04.08.05.05.09.1.1.16-.19 0-.34-.1-.3-.28v-.06c0-.03-.02-.05-.05-.05h-.64l-.01-.02a.04.04 0 0 1 0-.05l.27-.31a.04.04 0 0 0-.01-.06h-.03c-.22 0-.42.05-.62.14a.07.07 0 0 1-.07-.01.06.06 0 0 1-.02-.03v-.04l.4-1.1c.11-.43.36-.76.75-1 .08-.04.15-.04.22.02Z" fill="#2B4040"/><path d="M12.4 3.75a7.3 7.3 0 0 0 .1 2.11l.1.35.09.36-.4-.26a.27.27 0 0 0-.1-.16.1.1 0 0 1-.04-.08v-.2c0-.02 0-.03-.02-.04a.07.07 0 0 0-.04-.03l-.41-.04c-.04 0-.05-.03-.04-.06l.05-.15a.16.16 0 0 0-.03-.15.18.18 0 0 0-.06-.06.19.19 0 0 0-.08-.01 1.39 1.39 0 0 0-.49.09l-.02-.01a.04.04 0 0 1-.01-.05c.17-.46.35-.9.56-1.32.08-.17.29-.36.62-.58.08 0 .15.1.22.29Z" fill="#DC6E93"/><path d="m12.87 6.76-.18-.19a1.83 1.83 0 0 0-.09-.36l-.1-.35a7.3 7.3 0 0 1-.1-2.11 6.03 6.03 0 0 1 .66 3 .13.13 0 0 1-.06.04c-.02.01-.06 0-.13-.03Z" fill="#FCA7C4"/><path d="M6.98 5.84v.05a.09.09 0 0 1-.06.02 14.73 14.73 0 0 0-.84-.83c-.3-.28-.36-.24-.18.11a13.14 13.14 0 0 1 .55 1.32l.03.02a.07.07 0 0 0 .06-.01c.18-.13.39-.23.61-.29.1.29.18.52.27.7.1.17.15.16.17-.03l.08-.83c.1-.04.18-.06.2-.03l.3 1.6c.02.07.05.08.1.04a18.1 18.1 0 0 1 .37-1.78.75.75 0 0 1 .38 0 9 9 0 0 0 .05.75l.04.02h.04l.02-.04.3-.7c.03-.05.07-.06.12-.03 1.13.03 2.1.4 2.69 1.34.23.36.38.74.46 1.14a2.8 2.8 0 0 1-.53.36c-.18.09-.17.13.03.13.15 0 .34-.02.57-.05.05.04.07.11.07.24 0 .23-.01.4-.04.51l-.61.06c-.1 0-.15.04-.14.12l.01.03.04.03.61.21c-.32.9-1.08 1.43-1.98 1.73a9.27 9.27 0 0 1-4.93.28.3.3 0 0 1-.04-.05.6.6 0 0 1 .19-.17v-.01l.02-.02c0-.02-.01-.03-.03-.04a.08.08 0 0 0-.07 0 .87.87 0 0 0-.35.24.08.08 0 0 1-.05.03c-.02 0-.04 0-.06-.02l-.34-.25a.07.07 0 0 1-.02-.03.06.06 0 0 1 .01-.07l.03-.02.48-.15.02-.02v-.04c0-.02-.01-.02-.03-.02-.22.01-.42.06-.62.16l.35-.55.07-.1a.04.04 0 0 0 0-.05l-.02-.02h-.03c-.23 0-.45.02-.67.06a.16.16 0 0 1-.17-.09c-.2-.29-.04-.56.06-.84l.75-.15.04-.01.02-.03v-.04a.06.06 0 0 0-.02-.03l-.67-.59c0-.66.2-1.27.64-1.8a.48.48 0 0 1 .11-.38c.06 0 .1-.02.11-.05a.05.05 0 0 0-.01-.06h-.02l-.14-.03h-.03c-.03-.03-.03-.05-.01-.09l.01-.01h.02l.43-.08h.02l.02-.03a.05.05 0 0 0-.01-.04l-.06-.08c-.03-.04-.02-.06.03-.06H6a.1.1 0 0 0 .04 0l.03-.03a.08.08 0 0 0 .02-.07 6.1 6.1 0 0 0-.96-1.9c-.1-.12-.27-.2-.4-.08a.2.2 0 0 0-.08.2 5.82 5.82 0 0 0-.07 2.8l.07.4c-.07.07-.12.1-.15.08a4.97 4.97 0 0 1 .16-3.73.23.23 0 0 1 .2-.05l.1.03c.67.45 1.3.99 1.9 1.62.05.05.09.1.12.17Z" fill="#FDFEFE"/><path d="M5.44 6.93a.49.49 0 0 1-.31-.18c0-.05.03-.1.07-.14.11-.02.2-.06.28-.12.04-.03.03-.05 0-.07-.07-.03-.1-.07-.07-.13 0-.02.01-.03.03-.04l.04-.01h.4l.02-.02a.04.04 0 0 0 0-.04 9.87 9.87 0 0 0-.64-1.36 1.19 1.19 0 0 0-.3-.36l-.1-.03a.1.1 0 0 0-.08.05l-.13.05a.2.2 0 0 1 .07-.21c.14-.12.32-.04.4.09a6.1 6.1 0 0 1 .97 1.93s0 .02-.02.03l-.03.02A.1.1 0 0 1 6 6.4h-.2c-.05 0-.06.02-.03.06l.06.08a.05.05 0 0 1 0 .04l-.01.02-.02.01-.43.07h-.02l-.01.02c-.02.04-.02.06 0 .08l.04.01a1.23 1.23 0 0 1 .16.03l.01.02a.05.05 0 0 1 0 .04c-.01.03-.05.04-.1.05Z" fill="#2B4040"/><path d="m11.21 4.43-.4 1.11v.04l.02.03.04.01h.03a1.57 1.57 0 0 1 .65-.14l.01.02a.04.04 0 0 1 0 .04l-.27.31a.04.04 0 0 0 0 .05l.01.02h.63c.04 0 .06.02.06.05v.06c-.04.18.11.27.3.28l.4.26.18.19a3.94 3.94 0 0 1 .52.99l-.61.63h-.04c-.08-.4-.23-.78-.46-1.14-.6-.94-1.56-1.3-2.69-1.34-.06-.04-.08-.11-.04-.22.23-.05.38-.12.45-.21.14.03.3.04.5.02.01 0 .03 0 .05-.02a12.94 12.94 0 0 0 .47-.81c.04-.1.1-.17.2-.23Z" fill="#71CEE9"/><path d="m5.2 6.61.13-.67c.06-.37 0-.71-.17-1.02a1.27 1.27 0 0 0-.13-.16.95.95 0 0 1-.12-.18c-.03-.06-.08-.1-.13-.1a.1.1 0 0 1 .09-.05c.02 0 .05 0 .08.03.13.1.24.22.31.36a9.87 9.87 0 0 1 .64 1.4l-.02.01h-.4l-.04.02a.07.07 0 0 0-.03.04c-.02.06 0 .1.06.13.04.02.05.04.01.07a.64.64 0 0 1-.28.12Z" fill="#DC6E93"/><path d="M4.78 4.48c.05 0 .1.04.13.1l.12.18.13.16c.18.31.23.65.17 1.02l-.13.67a.33.33 0 0 0-.07.14c-.08.28-.21.67-.41.87a.4.4 0 0 0-.07.1 3.25 3.25 0 0 0-.07-.4c-.2-.94-.17-1.87.07-2.8l.13-.04Z" fill="#FCA7C4"/><path d="M6.98 5.84v.1l.03.04a.1.1 0 0 0 .04.02c.06.01.1.03.13.06l-.03.17a2.03 2.03 0 0 0-.64.3.07.07 0 0 1-.06-.02l-.02-.02c-.15-.45-.33-.88-.53-1.3-.18-.35-.11-.4.18-.11a14.72 14.72 0 0 1 .84.83c.02 0 .05 0 .06-.02v-.05ZM9.1 5.8c-.05.04-.08.07-.08.1a.75.75 0 0 0-.37 0c-.02-.03-.07-.03-.15-.01l.05-.02a.1.1 0 0 0 .03-.04c.22-.29.38-.3.51-.02Z" fill="#71CEE9"/><path d="M9.55 5.68c-.04.1-.02.18.04.22-.05-.03-.1-.02-.11.03a10.97 10.97 0 0 0-.33.73.06.06 0 0 1-.08-.01l-.01-.03a9 9 0 0 1-.04-.72c0-.03.03-.06.07-.1.17.11.32.07.46-.12Z" fill="#9E9E9E"/><path d="M7.96 5.94c-.05.03-.08.06-.08.1-.03-.03-.1-.01-.21.03h-.12c.1-.3.24-.35.41-.13Z" fill="#71CEE9"/><path d="M8.5 5.89c.08-.02.13-.02.15 0a18.12 18.12 0 0 0-.37 1.79c-.06.04-.09.03-.1-.03l-.3-1.61c0-.04.03-.07.08-.1.16.02.33 0 .54-.05ZM7.55 6.06l.12.01-.08.83c-.02.2-.07.2-.17.03-.09-.18-.18-.41-.27-.7l.03-.17c0 .09.05.12.13.1.1-.02.18-.05.24-.1Z" fill="#9E9E9E"/><path d="M5.44 6.93a.48.48 0 0 0-.11.38l-.01-.06s0-.02-.02-.02a.06.06 0 0 0-.06-.02 2.7 2.7 0 0 0-.54.92h-.04l-.02-.01a.86.86 0 0 1-.14-.32c.03.02.08 0 .14-.07a.4.4 0 0 1 .08-.1c.2-.21.33-.6.4-.88.09.1.2.17.32.18Z" fill="#DC6E93"/><path d="M13.8 8.57a.15.15 0 0 0-.1.04c-.02 0-.04-.02-.05-.05l-.26-.81c-.01-.04-.02-.05-.03-.03.06 0 .1-.02.14-.06.15.28.25.58.3.9Z" fill="#9E9E9E"/><path d="m13.4 7.75.25.81a.1.1 0 0 1-.02.05 2.71 2.71 0 0 1-.74.18.76.76 0 0 1-.11-.4l.61-.64Z" fill="#2E4D5C"/><path d="M12.74 8.38a1 1 0 0 0 .04 0c0 .18.04.31.11.42l-.08.02c-.23.03-.42.05-.57.05-.2 0-.2-.04-.03-.13.16-.08.34-.2.53-.36Z" fill="#9E9E9E"/><path d="M13.7 8.61c-.02.01-.02.03-.02.05.03.2.1.51.24.67.11.12.2.11.24-.01.02.03.03.05.03.08.01.03 0 .05-.04.05l-.62.05-.58.08h-.11c.03-.12.05-.3.04-.52 0-.13-.02-.2-.07-.24l.08-.02a2.72 2.72 0 0 0 .74-.19.1.1 0 0 0 .02-.05c.01.03.03.05.05.05Z" fill="#71CEE9"/><path d="m13.8 8.57.36.75c-.05.12-.13.13-.24 0-.14-.15-.2-.46-.24-.66 0-.02 0-.04.02-.05a.15.15 0 0 1 .1-.04Z" fill="#FDFEFE"/><path d="m4.7 9.11.66.6.02.02v.04l-.02.03-.04.01-.75.15.12-.85Z" fill="#9E9E9E"/><path d="M13.53 9.5c0 .13-.09.23-.26.3l-.06.04v.04c.01.03.03.04.06.02.23-.11.47-.17.72-.17-.06.12-.1.24-.1.37l-.06.04a2.9 2.9 0 0 1-1.03-.15c0-.2.04-.33.15-.4l.58-.09Z" fill="#2E4D5C"/><path d="m12.84 9.57.1.01c-.1.08-.15.21-.13.4l-.06.04-.61-.21a.07.07 0 0 1-.04-.03.07.07 0 0 1-.01-.03c0-.08.04-.12.14-.12l.6-.06ZM13.97 10.1h-.08c0-.13.04-.25.1-.37a.19.19 0 0 1 .11-.06h.03l.01.02a.04.04 0 0 1 0 .05l-.17.36Z" fill="#9E9E9E"/><path d="M12.8 9.99c.33.1.67.16 1.03.15.02 0 .04-.02.06-.04h.08c.05.02.09.06.1.1.02.03.01.05-.03.06l-.67.1c-.05.01-.07.03-.07.07v.04a.04.04 0 0 0 .03.03h.02l.42-.08c-.08.14-.13.3-.15.47l-.41-.02a.05.05 0 0 0-.04.01v.02l-.01.02v.03c.01.04.04.06.07.06h.27l.02.02v.06c-.4.36-.76.6-1.27.79a9.2 9.2 0 0 1-2.13.51v.03c0 .02 0 .03.02.03h.18c.14-.03.16 0 .05.1a.47.47 0 0 1-.18.1c-.58-.02-1.14 0-1.7.07l-.32-.01a.7.7 0 0 0-.34.05l-.06-.03c-.04-.04-.03-.05.03-.05l.25.01c.05 0 .1 0 .14-.04.02-.01.02-.04.01-.09a.05.05 0 0 0-.02-.02l-.03-.01c-.87 0-1.67-.15-2.4-.42-.03-.02-.04-.04-.03-.07.01-.03.04-.05.08-.06a.3.3 0 0 0 .04.05l.07.03c1.65.33 3.27.22 4.86-.31.9-.3 1.66-.82 1.98-1.73-.03 0 0 0 .05-.03Z" fill="#71CEE9"/><path d="M13.62 10.89c.02-.17.07-.33.15-.47l.2-.03H14l.03.02.02.03-.01.04a.8.8 0 0 1-.42.4Z" fill="#FDFEFE"/><path d="m5.33 11-.35.55c-.16-.07-.24-.22-.23-.45 0-.03.02-.05.05-.06.17-.05.35-.07.53-.04Z" fill="#9E9E9E"/><path d="m13.38 12.45-.34.27c.05-.31-.02-.6-.2-.84-.01-.03 0-.06.02-.08a.08.08 0 0 1 .1 0c.29.18.23.45.42.65ZM9.08 13.63c.3-.34.63-.64 1-.88.02.08.12.08.27 0a.82.82 0 0 1 .24-.09 50.94 50.94 0 0 1 1.11-.16c.2.05.22.12.03.22-.63.33-1.33.61-2.09.86-.17.05-.35.07-.56.05Z" fill="#2B4040"/><path d="M10.19 12.65A4.97 4.97 0 0 0 9 13.72c-.04.01-.07 0-.1-.02-.3-.33-.66-.65-1.08-.94a.7.7 0 0 1 .34-.05h.33c.55-.06 1.11-.08 1.69-.06Z" fill="#FDFEFE"/><path d="M12.2 13.24c-.83.47-1.75.71-2.76.74a4.7 4.7 0 0 1 1.43-.5l1.33-.24Z" fill="#2B4040"/><path d="M11.22 10.16a.46.46 0 0 1-.23-.03.62.62 0 0 1-.22-.13.87.87 0 0 1-.17-.23 1.04 1.04 0 0 1-.1-.3.93.93 0 0 1 .06-.56.5.5 0 0 1 .37-.3c.07-.01.15 0 .23.02.07.03.15.08.22.14.06.06.12.14.17.23.04.09.08.19.1.29.04.2.01.4-.07.57a.5.5 0 0 1-.36.3ZM6.6 10.7c-.14.02-.28-.04-.39-.17a.98.98 0 0 1-.2-.77.78.78 0 0 1 .1-.25c.03-.07.08-.13.14-.17a.39.39 0 0 1 .2-.07c.13-.02.27.05.38.17a.98.98 0 0 1 .2.77.78.78 0 0 1-.1.25.53.53 0 0 1-.14.17.39.39 0 0 1-.2.08ZM7.76 10.48a.52.52 0 0 1-.28-.19.15.15 0 0 1-.02-.11l.03-.06a.12.12 0 0 1 .04-.03 1 1 0 0 1 .72-.04c.02 0 .03.02.04.03.01.02.02.04.01.06a.4.4 0 0 1-.22.27l-.02.02v.04l.01.02c.35.25.61.2.8-.13l.02-.02h.03l.06.02h.01v.02a.04.04 0 0 1 0 .02c-.22.51-.54.47-.97.28-.04-.02-.07-.01-.1.02-.28.34-.6.44-.91.04v-.02l.02-.09v-.02h.03a.04.04 0 0 1 .04 0c.23.23.51.31.69-.04.02-.05 0-.08-.03-.09Z" fill="#052522"/><path d="M8.22 13.27c.12.08.31.2.42.32.07.1.05.12-.07.1-.45-.12-1.47-.4-1.74-.76a.08.08 0 0 1 0-.08l.02-.03.04-.02c.5-.08.87.14 1.33.47Z" fill="#2B4040"/><path d="M10.9 9.13c.04.12.16.19.27.16a.2.2 0 0 0 .14-.27.22.22 0 0 0-.26-.15.2.2 0 0 0-.15.26ZM6.54 9.86c.11 0 .2-.08.2-.18 0-.1-.09-.19-.2-.19-.1 0-.2.09-.2.19s.1.18.2.18Z" fill="#FDFEFE"/></svg>