<!-- by TradingView --><svg width="18" height="18" viewBox="0 0 18 18" xmlns="http://www.w3.org/2000/svg"><path fill="#DFE21E" d="M0 0h18v18H0z"/><path d="M12.5 4.87c-.35.16-.7.15-1.05.26a3 3 0 0 1-.46.1c-.17.01-.23.12-.2.3l.05.07c.21.16.4.37.56.64.01.03.04.05.07.06l.1-.01 1.42-.88.1.14c-.48.41-.98.74-1.52.99a.12.12 0 0 1-.15-.05 3.78 3.78 0 0 0-.83-.93l-.03.02a.03.03 0 0 0 0 .04l.87.95c.19.21.44.09.68.2.66.3 1.34.67 1.85 1.21.08.7.03 1.4-.15 2.09l-.08.15c-.29.32-.65.55-1.07.69-.4.12-.74.27-1.01.43-.46.27-.4.68-.24 1.15l.19.6c-.02.04-.03.07-.05.08a5.11 5.11 0 0 1-5.77-.13c-.31-.21-1.42-1.5-1.6-1.8.12-.14.2-.22.26-.25.58-.26.95-.46 1.13-.6.76-.6.34-1.44-.18-2A6.3 6.3 0 0 1 4 6.34c.25-.54.58-1.04.99-1.49.48-.03.88-.02 1.18 0 1.2.13 1.91.88 2.39 1.97.01.03.02.03.03 0 .04-.14.15-.24.34-.29.03 0 .05 0 .05.04.05.2.13.37.23.52.02.02.02.05 0 .07-.16.15-.29.18-.45.02-.04-.04-.05-.03-.04.02.3.84.52 1.44.7 1.81.05.13.15.2.3.23.81.1 1.68.13 2.39-.19.03-.01.04-.03.02-.06a3.66 3.66 0 0 0-1.03-1.04c-.06-.04-.12-.13-.17-.27-.18-.45-.47-.37-.85-.3-.56.12-.84-.33-1.04-.83 0-.02 0-.03.02-.04h.02l.03.01c.34.3-.1-.49-.01-.6.22-.31.6-.58.98-.54.2.02.39.37.43.52a.12.12 0 0 1 0 .09.1.1 0 0 0-.02.04c0 .04.01.04.04 0 .07-.1.07-.2 0-.3-.06-.08-.07-.14-.03-.17.03-.03.02-.06-.02-.07l-.26-.12a.06.06 0 0 1-.03-.04.06.06 0 0 1 0-.05A6.06 6.06 0 0 1 11.5 4a4.82 4.82 0 0 1 1.02.84l-.01.03ZM8 7.77c0 .1-.02.1-.06.01-.03-.08 0-.11.11-.11a.18.18 0 0 1 .16.09c.02.03.04.04.06.05h.07c.02 0 .05-.01.07-.03a.2.2 0 0 0 .05-.06.23.23 0 0 0 .03-.07c.02-.07-.01-.14-.08-.2a.94.94 0 0 1-.28-.52c-.05-.35-.1-.48-.3-.72-.35-.4-.76-.64-1.22-.74-.75-.15-1.3.28-1.24 1.08.05.64.3 1.08.71 1.54.23.25.3.63.59.87l.04.01h.03a.04.04 0 0 0 .01-.05l-.15-.27v-.02l.03-.01h.01c.06.09.12.16.2.22h.09c.04-.03.07-.06.07-.1 0-.05 0-.1-.04-.15-.06-.1-.11-.22-.15-.34v-.01l.03-.02c.02 0 .03 0 .04.02a1 1 0 0 0 .14.27c.06.08.13.07.23-.03a.14.14 0 0 0 .01-.16l-.08-.15v-.03l.04-.03c.02 0 .03 0 .03.02.04.12.1.2.17.22a.16.16 0 0 0 .17-.04.17.17 0 0 0 .03-.17.58.58 0 0 0-.13-.18v-.03h.02l.12.06c.12.07.17.03.14-.1a.32.32 0 0 1 .03-.23c.04-.08.02-.12-.07-.1-.07 0-.1.06-.1.16l.03.09c.03.04.02.05-.03.05a.12.12 0 0 1-.08-.06c-.02-.03-.05-.04-.08-.03a.2.2 0 0 0-.07.04c-.04.03-.05.06-.03.1l.15.28v.05l-.02.01c-.02.02-.04.02-.05 0A1.41 1.41 0 0 1 7.28 8c-.02-.05-.07-.06-.16-.03-.03 0-.04.03-.04.07 0 .11.02.22.07.32l.01.04-.01.03c-.03.02-.05.02-.07 0l-.15-.29c-.04-.07-.1-.08-.16-.04l-.05.11a.23.23 0 0 0 .02.19l.15.26v.03l-.04.02-.01-.01-.19-.22a.06.06 0 0 0-.09 0l-.04.04c-.02.03-.05.02-.06-.01-.1-.19-.17-.34-.3-.49-.42-.49-.67-.93-.68-1.61 0-.81.7-.98 1.33-.76.5.17.86.47 1.11.9.15.24.03.48.21.72l.2.23c.05.06.06.12.04.16 0 .03-.03.04-.06.03a.5.5 0 0 1-.19-.18.1.1 0 0 0-.16-.03.11.11 0 0 0-.03.05l-.08.2a.11.11 0 0 0 0 .08c.01.05.06.1.12.15a.1.1 0 0 0 .16-.03.12.12 0 0 0 .02-.06c0-.06-.03-.1-.06-.14-.02-.02-.05-.02-.06 0-.03.02-.04.04-.03.04ZM7.43 6.4c-.15-.2-.41-.57-.65-.56a.14.14 0 0 0-.12.05.15.15 0 0 0-.03.13c.06.29.18.56.36.8.11.15.28.17.44.12.08-.03.12-.09.12-.17a.62.62 0 0 0-.12-.37Zm2.44.22c-.1-.02-.16.01-.18.08a.1.1 0 0 1-.06.07.66.66 0 0 0-.1.05c-.05.1-.01.16.1.19.3.05.55.02.76-.08a9.54 9.54 0 0 0 .73-.42.13.13 0 0 0 0-.14A1.9 1.9 0 0 0 10.8 6c-.07-.07-.1-.05-.1.05s-.04.17-.15.2c-.01.01-.06.02-.15.01-.07 0-.12.04-.14.12 0 .03-.03.05-.06.05a.32.32 0 0 0-.25.17l-.04.03a.07.07 0 0 1-.04 0ZM6.75 7.67a.19.19 0 0 0 .08-.12.5.5 0 0 0 .01-.19 1.58 1.58 0 0 0-.51-.9.47.47 0 0 0-.17-.08.18.18 0 0 0-.13.01.19.19 0 0 0-.08.11.5.5 0 0 0-.01.2c0 .07.02.15.05.24a1.58 1.58 0 0 0 .46.66c.06.04.11.07.17.08.05.01.1 0 .13-.01Zm.64-.03a.46.46 0 0 0 .16-.12.07.07 0 0 0 0-.1.83.83 0 0 0-.39-.3l-.02.01v.01a.87.87 0 0 0 0 .5c0 .01 0 .03.02.04l.04.01c.07 0 .13-.02.2-.05Zm.91.59h.03c.03 0 .05 0 .06-.04v-.06a.08.08 0 0 0-.05-.07c-.05-.01-.1 0-.13.02-.08.07-.04.18-.01.28a.04.04 0 0 1 0 .04h-.04c-.07-.01-.11 0-.14.03-.02.04-.05.04-.07 0l-.05-.07a.16.16 0 0 0-.17.04.19.19 0 0 0-.04.18l.03.14c.01.04 0 .05-.04.02l-.1-.07a.12.12 0 0 0-.1-.02c-.06 0-.1.04-.12.12v.04l.02.03.03.04a.03.03 0 0 1-.01.03.03.03 0 0 1-.03 0c-.14-.02-.23.03-.27.16-.01.04 0 .08.01.11.02.04.05.07.09.08.82.3 1.73.07 1.58-1.04-.02-.11-.07-.18-.17-.2-.03-.02-.06 0-.07.03a.66.66 0 0 1-.13.17.13.13 0 0 0-.03.11.13.13 0 0 0 .06.1c.02 0 .04 0 .07-.02a.11.11 0 0 0 .05-.08c0-.05.02-.1.05-.12.04-.03.06-.03.06.02.15 1.03-.7 1.18-1.43.92-.04-.01-.05-.04-.03-.08l.04-.03c.06-.02.1-.02.13-.01.05.03.1.04.17.03.03 0 .05-.03.05-.06.01-.08-.03-.14-.11-.17-.01 0-.02-.01-.01-.02l.01-.04h.02l.16.08a.09.09 0 0 0 .08 0 .16.16 0 0 0 .07-.06.1.1 0 0 0 .01-.08l-.04-.17c0-.02 0-.03.02-.04h.03c.03-.02.05 0 .06.03.03.08.06.14.1.18.02.03.05.03.07.03.03-.01.05-.03.06-.06.01-.05.07-.09.17-.11a.05.05 0 0 0 .03-.03.05.05 0 0 0 0-.04l-.06-.25c0-.02 0-.03.03-.02ZM8.06 9.7c-.09-.21-.23-.29-.44-.21a.15.15 0 0 0-.07.05.16.16 0 0 0-.03.1v.22c0 .02 0 .03-.02.02l-.55-.24a.04.04 0 0 0-.05.01l-.01.02-.01.02v.02l.01.02c.36.21.73.33 1.12.34.03 0 .05.02.05.05v.75c0 .05.02.07.07.07h.04a.03.03 0 0 0 .02 0l.01-.02-.06-.7c0-.1.02-.1.08-.03.16.2.28.45.35.74 0 .01.01.02.03.02h.06c.03 0 .04-.01.03-.04a1.98 1.98 0 0 0-.42-.83.03.03 0 0 1 0-.03h.02c.35-.08.49-.31.59-.63a.08.08 0 0 1 .06-.05c.1-.02.13-.06.08-.12a.08.08 0 0 0-.06-.03c-.06 0-.11.03-.16.11-.04.08-.08.17-.12.3-.03.1-.06.1-.1 0a.77.77 0 0 0-.05-.1c-.08-.16-.26-.15-.34.02a2.9 2.9 0 0 0-.06.15c-.02.06-.04.06-.07 0Zm1.99 1.27v-.03l.05-.2c.02-.05 0-.1-.05-.13a.14.14 0 0 0-.06-.01c-.05 0-.09.02-.1.08l-.11.56c0 .04-.02.06-.05.08-.09.08-.09.15 0 .22.02.02.03.05.03.08-.04.18.02.32.16.42a.1.1 0 0 0 .1.02c.29-.08.45-.3.46-.63 0-.05-.02-.07-.07-.07h-.04a.1.1 0 0 0-.07.03.11.11 0 0 0-.04.07.45.45 0 0 1-.2.35.06.06 0 0 1-.07 0 .06.06 0 0 1-.03-.05v-.3a.09.09 0 0 1 .03-.06l.4-.42a.07.07 0 0 0 .02-.07.09.09 0 0 0-.04-.05c-.11-.06-.19.04-.28.12-.01.02-.03.02-.04 0Zm-.83.56-.03-.4c0-.06-.04-.1-.1-.09h-.04c-.03.01-.05.03-.05.06v.98l.01.06a.1.1 0 0 0 .05.04.1.1 0 0 0 .12-.02.62.62 0 0 0 .15-.26l.02-.02a.05.05 0 0 1 .07.01l.08.16a.1.1 0 0 0 .09.05h.08l.03-.01.03-.03a.07.07 0 0 0 0-.07l-.23-.4a.08.08 0 0 1 0-.07l.23-.55v-.04l-.01-.03a.1.1 0 0 0-.03-.03.1.1 0 0 0-.04 0H9.6l-.06.01a.12.12 0 0 0-.05.05l-.24.6c-.03.06-.04.06-.04 0Zm-.83.7c.21-.18.51-.53.42-.83a.1.1 0 0 0-.06-.07c-.43-.19-.6.42-.61.73a.1.1 0 0 1-.03.07l-.06.07a.08.08 0 0 0-.02.08c0 .03.03.05.06.07.04.01.07.03.1.07.23.4.56.16.78-.12a.1.1 0 0 0 0-.12l-.06-.05c-.03-.03-.06-.03-.08 0l-.26.26a.1.1 0 0 1-.1.02.1.1 0 0 1-.04-.02l-.04-.05c-.04-.04-.04-.08 0-.12Zm-.66-.42a.15.15 0 0 0-.09-.1.1.1 0 0 0-.12.05.1.1 0 0 0-.01.05l.02.97c0 .01 0 .03.02.04 0 .02.01.03.03.04a.12.12 0 0 0 .1.02h.02a.08.08 0 0 0 .06-.09l-.04-.46c0-.04 0-.07.03-.1l.37-.48a.07.07 0 0 0 .01-.07.07.07 0 0 0-.05-.04l-.03-.02c-.05-.02-.1 0-.13.04l-.12.16c-.03.03-.05.03-.07-.01Z"/><path d="M7.06 6.66c.08.11.19.17.25.13.06-.04.05-.17-.03-.28-.07-.11-.18-.17-.24-.13-.06.04-.05.17.02.28ZM6.4 7.36c.07.13.18.2.25.16.07-.04.06-.18-.02-.31-.07-.13-.2-.2-.26-.16-.06.05-.06.18.02.31ZM8.31 9.56a.04.04 0 0 1 .02-.02.04.04 0 0 1 .03 0h.02a.21.21 0 0 1 .1.12l.01.07-.01.07a.18.18 0 0 1-.11.1.2.2 0 0 1-.15-.02H8.2a.04.04 0 0 1-.02-.03.04.04 0 0 1 0-.03l.12-.26ZM8.03 9.9c.02.04 0 .07-.04.06a.62.62 0 0 1-.28-.1c-.06-.04-.09-.1-.07-.2l.02-.04c.04-.06.08-.08.14-.05.09.05.16.15.23.33Z"/></svg>