<!-- by TradingView --><svg width="18" height="18" viewBox="0 0 18 18" xmlns="http://www.w3.org/2000/svg"><path fill="url(#a)" d="M0 0h18v18H0z"/><path d="M9.04 3.5c.18.11.36.16.54.15.17.08.36.13.56.13.15.08.26.05.3-.08.12.03.2.05.22.08.18.3.42.49.73.59.13.04.25 0 .36-.13l.31.2-.23.26a.09.09 0 0 0-.03.08c.03.12.09.21.17.26.04.24.12.44.25.61l.19.18c.02.02.04.02.05-.01l.02-.1c.09-.35.2-.57.35-.66l.2.2c-.18.19-.26.38-.24.56a.5.5 0 0 0 .03.37c.04.07.12.17.24.31l.03.03c.05.06.12.1.2.11.07.01.14 0 .2-.04.17-.11.3-.15.4-.13l.23.54-.67-.04c-.04 0-.05.02-.03.06l.02.1c0 .04 0 .07-.02.1a.3.3 0 0 0-.06.16.6.6 0 0 1-.5.14c-.01 0-.02 0-.02.02l.03.64c0 .02.02.03.04.04a6.05 6.05 0 0 0 .72 0v.03l-.02.02-.4.04a.2.2 0 0 1-.1 0c-.05-.03-.1-.03-.12-.02-.04 0-.06.03-.06.06l-.05.4c0 .03.01.04.05.03l.24-.05c-.07.1-.2.14-.38.13.05-.44.03-.88-.04-1.3a.09.09 0 0 0-.05-.08l-.13-.06a.61.61 0 0 0-.32-.14c-.04 0-.05.01-.06.05 0 .45-.04.88-.08 1.3-.01.13.03.26.13.42l.17.31c.17.31.23.65.18 1.02l.01.09.05.11c-.1-.03-.17.04-.2.19a.1.1 0 0 0-.04.06c0 .02 0 .03.02.02l.06-.02c.02 0 .04 0 .04.02a.1.1 0 0 1 0 .06c0 .05-.03.08-.08.1a.49.49 0 0 0-.2.13v.08c-.09 0-.14.03-.15.06a.13.13 0 0 1-.1 0 1.1 1.1 0 0 0-.65-.14c-.47.23-.9.3-1.3.22-.1-.02-.1 0-.02.04l.57.35c.04.07.1.1.15.1.15.11.23.26.24.45 0 .02.01.03.03.03l.1.03s.02 0 .02-.02a.5.5 0 0 1 .2-.37 2.01 2.01 0 0 1 .47-.23 1.38 1.38 0 0 1 1.26.1.7.7 0 0 0-.2.18c-.06.05-.08.06-.08.04-.21-.16-.48-.18-.8-.05-.22.07-.35.2-.42.37-.05.13-.02.27.07.4.1.15.2.24.35.3.03.07 0 .18-.12.34a.63.63 0 0 0-.48.15c-.02.02-.02.05 0 .07.07.1.2.12.36.08v.04a.8.8 0 0 1-.34.16c-.03 0-.05-.01-.06-.04-.2-.52-.36-1.05-.5-1.58-.03-.14-.15-.28-.35-.44a2.77 2.77 0 0 0-.5-.31.39.39 0 0 1-.22-.35c0-.03.01-.06.05-.06.03-.01.06 0 .1.03.41.16.8.13 1.16-.07.04-.02.09-.04.13-.04h.14A4 4 0 0 0 12 11c.17-.02.3-.12.38-.29.05-.1.09-.26.11-.48.02-.2-.02-.42-.13-.68a2.74 2.74 0 0 0-.36-.62.4.4 0 0 0-.04-.15c-.02-.03-.03-.03-.04 0a2.6 2.6 0 0 1-.69 1.16 30.16 30.16 0 0 0 .5-1.22.74.74 0 0 1 .2-.19c.05-.03.06-.08.02-.16.06-.25.08-.5.05-.75l.1-.47c-.01-.02 0-.05.04-.08.18.07.35.15.52.24.22.13.42.12.6-.02a.1.1 0 0 0 .05-.08.48.48 0 0 0-.1-.34c-.29-.36-.63-.72-1.02-1.09a.76.76 0 0 1-.2-.31c-.2-.6-.63-1.05-1.28-1.35a4.29 4.29 0 0 0-1.52-.36.16.16 0 0 1-.09-.03c-.22-.16-.43-.16-.62.01a.44.44 0 0 0-.07.08.3.3 0 0 1-.17.12L7.2 4.2c-.25.07-.57.23-.96.47-.23.15-.46.4-.68.74-.22.51-.27 1-.15 1.47l-.11 1.15c-.02.24-.1.71-.26 1.42-.08.39-.14.77-.2 1.16-.07.3-.02.5.16.61.33.21.73.27 1.19.18l.54-.13c.13-.04.3-.05.54-.05.47 0 .9-.07 1.29-.22.08-.02.14 0 .19.07.03.05.03.11.01.17-.04.1-.1.15-.19.13-.47.22-.88.47-1.23.76l-.65 1.83c-.03.02-.06.01-.08 0l.04-.3.25-.59a.13.13 0 0 0 0-.12c-.03-.04-.01-.07.05-.08.1-.18.16-.36.17-.53-.04-.09-.09-.14-.13-.15-.01-.04 0-.07.03-.1l.1.05c.04.02.07.01.1 0 .04-.03.04-.08.01-.14l.9-.56c.16-.1.33-.19.52-.24.02 0 .03-.01.02-.03v-.03c-.02-.03-.04-.04-.06-.02-.28.11-.57.18-.87.18l-.6.04a3.02 3.02 0 0 0-.84.15c-.4.1-.78.08-1.15-.04l-.33-.23a.12.12 0 0 1-.05-.07.27.27 0 0 0-.1-.14l.16-1.32a.63.63 0 0 0 .07-.28.58.58 0 0 0 0-.27c.12-.37.2-.62.2-.75l.15-1.24c.01-.13 0-.3-.03-.52-.02-.2-.02-.4 0-.62.1-.18.15-.37.16-.58l.06-.07a.76.76 0 0 0 .15-.23c.01-.03 0-.05-.03-.05l-.3-.09.26-.23c.47.03.78-.18.93-.62l.23-.11c-.04.2.09.21.38.06.13-.01.26-.04.39-.09l.1-.02.23-.04c.03 0 .04-.02 0-.04a.69.69 0 0 1-.17-.2L8 3.61c.1.09.2.12.3.1.08-.02.11-.07.1-.16l.64-.05Z" fill="#F0F3FA"/><path d="m9.61 3.54-.03.11a.93.93 0 0 1-.54-.15l.57.04Z" fill="#D3B43C"/><path d="M8.4 3.55c.01.09-.02.14-.1.16-.1.02-.2 0-.3-.1l.4-.06Z" fill="#FEFC09"/><path d="M10.13 3.64c.01.05.01.1 0 .14-.19 0-.38-.05-.55-.13l.03-.1.52.09Z" fill="#FC01FC"/><path d="M12.14 7.08c-.3-.05-.6.03-.88.25-.04-.02-.1 0-.16.04l-.06-.02a.06.06 0 0 1-.05-.04c0-.03 0-.05.02-.07.37-.33.77-.45 1.2-.36.1.02.23.09.39.19.13.08.27.14.43.16a.1.1 0 0 0 .1-.04.1.1 0 0 0 0-.1 1.11 1.11 0 0 0-.26-.26c-.1-.07-.16-.13-.2-.17l-.37-.46a.79.79 0 0 0-.37-.22.08.08 0 0 1-.05-.06 2.32 2.32 0 0 0-.95-1.4c-.3-.19-.62-.33-.96-.42-.37-.1-.71-.12-1.03-.08-.06.01-.17.03-.35.04-.17.02-.33.05-.5.1l-.4.1a2.81 2.81 0 0 0-1.97 1.23.07.07 0 0 1-.07.03c-.06-.02-.09-.05-.08-.1.22-.35.45-.6.68-.75.39-.24.7-.4.96-.47l1.03-.25a.3.3 0 0 0 .18-.12.44.44 0 0 1 .06-.08c.19-.17.4-.17.62-.01l.09.03c.53.03 1.04.15 1.52.36.65.3 1.08.74 1.29 1.35.04.13.1.23.19.31.39.37.73.73 1.03 1.1.06.08.1.19.09.33a.1.1 0 0 1-.04.08c-.19.14-.39.15-.61.02-.17-.09-.34-.17-.52-.24Z" fill="#0C0914"/><path d="M10.45 3.7c-.05.13-.16.16-.31.08v-.14l.3.06Z" fill="#D3B43C"/><path d="M7.62 3.7c.04.06.1.13.18.2.03.02.02.03-.01.04l-.22.04-.11-.02c-.09-.04-.13-.09-.14-.16.1-.06.2-.1.3-.1Z" fill="#EED905"/><path d="M11.75 4.24c-.11.12-.23.17-.36.12-.3-.1-.55-.29-.73-.58l1.1.46Z" fill="#FEFC09"/><path d="M7.32 3.8c0 .07.05.12.14.16V4c-.13.05-.26.08-.39.09.01-.1 0-.17-.04-.2.1-.05.2-.08.3-.09Z" fill="#FC01FC"/><path d="M7.03 3.89c.04.03.05.1.04.2-.3.15-.42.13-.38-.06l.34-.14Z" fill="#FEFC09"/><path d="M11.1 7.36a.55.55 0 0 0-.17.12l-.75.24c-.4.06-.77-.01-1.14-.2l-.8-.49a3.16 3.16 0 0 0-1.1-.4l-.22.02-.96.2-.35.06c-.04 0-.1 0-.19-.03-.12-.47-.07-.96.15-1.47 0 .05.02.09.08.1.03.01.06 0 .08-.02A2.81 2.81 0 0 1 7.7 4.25l.39-.1c.17-.04.33-.07.5-.09.18-.01.29-.03.35-.04.32-.05.66-.02 1.03.08.34.1.66.23.96.42.44.27.75.73.95 1.4 0 .03.02.05.05.06.16.05.28.12.37.22l.38.46.19.17c.12.1.21.18.26.25a.1.1 0 0 1 0 .1.1.1 0 0 1-.1.05c-.16-.02-.3-.08-.43-.16-.16-.1-.29-.17-.4-.19-.42-.1-.82.03-1.2.36a.06.06 0 0 0-.01.07c0 .02.02.04.05.04l.06.01Z" fill="#232021"/><path d="M6.46 4.14c-.15.44-.46.65-.93.62l.93-.62ZM12.62 4.86c-.1 0-.19-.04-.27-.12-.02-.03-.05-.03-.07-.02-.02.02-.04.04-.03.08 0 .03-.01.06-.04.08l-.24.16c-.08-.05-.14-.14-.17-.26 0-.03 0-.06.03-.08l.23-.26.56.42Z" fill="#FEFC09"/><path d="M12.62 4.86a.2.2 0 0 1 .09.08c-.09.05-.16.1-.23.18a.6.6 0 0 0-.13.25c-.03.1-.07.19-.13.28-.13-.17-.2-.37-.24-.6l.23-.17a.08.08 0 0 0 .04-.08c0-.04 0-.06.03-.07.03-.02.05-.02.07 0 .08.1.17.14.27.13Z" fill="#FC01FC"/><path d="M12.7 4.94c.06.04.1.08.13.12-.15.1-.26.32-.35.66l-.02.1c-.01.03-.03.03-.05.01l-.2-.18c.07-.09.11-.18.14-.28a.6.6 0 0 1 .13-.25c.07-.07.14-.13.23-.18Z" fill="#EED905"/><path d="m5.27 5 .3.08c.03 0 .04.02.03.05a.76.76 0 0 1-.15.23.7.7 0 0 1-.37-.2.68.68 0 0 1 .19-.17Z" fill="#FEFC09"/><path d="M11.05 5.7h.17c.03 0 .05.02.05.05a.1.1 0 0 1-.01.05.07.07 0 0 1-.07.04h-.34c-.04 0-.06-.02-.06-.06v-.57c0-.04.02-.06.06-.06h.03c.05 0 .08.02.08.07l.02.42c0 .04.02.06.07.06Z" fill="#D3B43C"/><path d="M5.08 5.17c.1.1.23.16.37.18-.02.04-.04.07-.06.08h-.37a.5.5 0 0 1-.1-.09l.16-.17Z" fill="#CD4DD1"/><path d="M10 5.29c0-.05.02-.07.07-.08l.23-.01c.1 0 .18.01.26.07.07.05.11.12.12.2v.09c0 .08-.02.15-.09.21a.37.37 0 0 1-.24.11l-.23.02c-.05 0-.07-.02-.08-.07L10 5.3ZM9.42 5.87c-.03 0-.05 0-.06-.02-.02-.02-.02-.03.01-.04a.69.69 0 0 1 .24-.04c.03 0 .06-.01.07-.04a.32.32 0 0 0 .03-.21c-.01-.05-.03-.05-.06-.02l-.08.07c0 .01-.01.02-.02.01h-.03v-.04c0-.03.03-.07.08-.1.03-.01.04-.03.02-.06l-.02-.02-.02-.01c-.14.04-.19.12-.15.25 0 .03 0 .05-.03.07a.1.1 0 0 1-.07.03c-.03 0-.05-.03-.05-.06a.87.87 0 0 0-.04-.3.4.4 0 0 1 .35-.13c.21.02.3.14.28.36v.15c-.01.1-.08.16-.21.15h-.24Z" fill="#D3B43C"/><path d="M13.14 5.4c-.13.02-.21.13-.24.35-.03 0-.06.02-.11.07-.02-.18.06-.37.24-.56a.3.3 0 0 1 .1.14Z" fill="#F8F1B2"/><path d="M9.1 5.37a.97.97 0 0 0 .04.5c0 .08-.04.11-.12.1-.03 0-.05-.02-.05-.05v-.2h-.24l-.02.01v.22c0 .04-.02.06-.06.06H8.6c-.04 0-.06-.02-.06-.06v-.6c0-.02.01-.03.03-.03h.08c.03 0 .05.01.05.05v.15c0 .03.02.04.05.04h.16c.04 0 .06-.01.05-.05l-.03-.1v-.08c.07-.1.13-.08.18.04Z" fill="#D3B43C"/><path d="M10.5 5.46v.16c0 .05-.01.08-.05.1l-.14.05a.09.09 0 0 1-.08-.01.09.09 0 0 1-.04-.07l-.02-.27c0-.03.01-.05.04-.07a.09.09 0 0 1 .08-.02l.14.04c.05.02.07.04.07.09Z" fill="#232021"/><path d="M4.91 5.34a.5.5 0 0 0 .11.08c.03.02.07.02.13.02l.24-.01c0 .2-.06.4-.15.58-.08 0-.13 0-.15-.03-.12-.1-.24-.23-.37-.39l.2-.25Z" fill="#FC01FC"/><path d="M9.24 5.34c.03.08.05.18.04.3 0 .03.02.05.05.06a.1.1 0 0 0 .07-.03.07.07 0 0 0 .03-.07c-.04-.13.01-.21.15-.25l.02.01.02.02c.02.03.01.05-.02.06-.05.03-.09.07-.09.1l.01.03.03.02s.02 0 .02-.02l.08-.07c.03-.03.05-.02.06.02.01.08 0 .15-.03.2a.08.08 0 0 1-.07.05c-.09 0-.17.02-.24.04-.03.01-.03.03-.01.05l.06.01c0 .04-.03.06-.05.07-.02 0-.05 0-.08-.02a.59.59 0 0 0-.15-.05.97.97 0 0 1-.04-.5c.02.03.07.02.14-.03Z" fill="#576C38"/><path d="M13.14 5.4c.2.21.39.47.54.76-.41.08-.68-.05-.78-.41.03-.22.11-.33.24-.35Z" fill="#FC01FC"/><path d="M4.72 5.6c.13.15.25.28.37.38.02.02.07.03.15.03-.03.21-.03.42 0 .62.02.21.03.39.02.52l-.14 1.24c-.01.13-.09.38-.22.75l-.06-.64.01-.07a.19.19 0 0 0 0-.16.14.14 0 0 1-.02-.1.8.8 0 0 0 0-.31l.01-.09a.6.6 0 0 0 .06-.35c0-.02 0-.03-.02-.03h-.03l-.2.24h-.16c-.28.1-.56.15-.84.15l.07-.28a.7.7 0 0 0 .47-.16l.41-.36c.29-.32.3-.64.02-.93A.14.14 0 0 0 4.48 6a.14.14 0 0 0-.1.1.2.2 0 0 0 0 .16c.07.1.06.28-.02.52a.67.67 0 0 1-.25.29l-.33.24c.21-.66.53-1.23.94-1.72ZM12.9 5.75c.1.36.37.5.78.4.1.12.17.22.2.32-.09-.02-.22.02-.39.13a.28.28 0 0 1-.2.04.33.33 0 0 1-.2-.1c0-.02-.02-.03-.03-.04a1.7 1.7 0 0 1-.24-.31.5.5 0 0 1-.03-.37c.05-.05.08-.07.1-.07Z" fill="#FEFC09"/><path d="m3.72 7.5.06-.2c.12-.07.23-.15.33-.23.14-.1.22-.2.25-.29.08-.24.1-.41.03-.52a.2.2 0 0 1-.02-.16.14.14 0 0 1 .11-.1c.05 0 .1 0 .14.05.28.3.27.6-.02.93-.07.07-.2.2-.41.36a.7.7 0 0 1-.47.16Z" fill="#F0F3FA"/><path d="m7.14 6.64.04.1c.02.02.02.04 0 .07-.26.38-.52.74-.79 1.08a.8.8 0 0 0-.2.39l-.11.43c-.03.1 0 .13.1.09.1-.05.18-.08.25-.08l.52-.02c.04 0 .06-.02.09-.04a.87.87 0 0 0 .23-.62c0 .07.01.14.04.2a.1.1 0 0 1 0 .09c-.07.14-.12.24-.17.3a.37.37 0 0 1-.28.13c-.2 0-.38.02-.52.04-.12 0-.2.07-.26.2-.04.11-.06.26-.05.44l-.01.53c0 .04-.02.05-.05.06l-.04-.01c-.02-.01-.04-.04-.05-.07L5.6 8.77a1.25 1.25 0 0 0-.13-.28c-.02-.03-.03-.03-.04 0a59.4 59.4 0 0 0-.41 2.08c-.05.09-.1.1-.15.04.05-.39.11-.77.2-1.16a14.75 14.75 0 0 0 .36-2.57c.09.03.15.04.2.03l.34-.06a.65.65 0 0 0-.15.4c0 .04 0 .06.02.1.1.15.13.28.09.4-.11.28-.18.53-.21.76 0 .04 0 .05.04.05h.05c.03 0 .05-.01.05-.04l.02-.05c.02-.1.06-.19.11-.25.15-.17.23-.28.24-.32.06-.37.17-.7.33-1v-.03c-.01-.03 0-.05.03-.05a.6.6 0 0 0 .34-.17l.22-.01Z" fill="#F96504"/><path d="M6.92 6.65a.6.6 0 0 1-.34.17c-.03 0-.04.02-.03.05v.04c-.16.3-.27.62-.33.99-.01.04-.09.15-.24.32a.58.58 0 0 0-.11.25l-.02.05c0 .03-.02.05-.05.05h-.05c-.03 0-.05-.02-.04-.06.03-.23.1-.48.2-.76.05-.12.03-.25-.08-.4a.14.14 0 0 1-.02-.1c0-.15.05-.28.15-.4l.96-.2ZM9.04 7.51c-.2.09-.42.1-.66.05-.18-.15-.39-.16-.63-.04.01.02 0 .04-.01.06l-.3-.03a.1.1 0 0 0-.07.03c-.05.05-.08.13-.08.23l-.02.23c0 .25-.08.46-.23.62a.12.12 0 0 1-.09.04l-.52.02a.62.62 0 0 0-.25.08c-.1.04-.13.01-.1-.09l.12-.43c0-.1.07-.24.2-.4.26-.33.52-.69.79-1.07.01-.03.01-.05 0-.07a.21.21 0 0 1-.05-.1c.44.08.8.21 1.1.4l.8.47Z" fill="#F99201"/><path d="M14.12 7c.01.01.04.07.07.18l-.83.21c0-.05.02-.1.06-.17a.15.15 0 0 0 .02-.09.35.35 0 0 0-.02-.1c-.02-.04 0-.06.04-.06l.66.04Z" fill="#FEFC09"/><path d="M12.14 7.08c-.04.03-.05.06-.05.08l-.75.2-.08-.04c.29-.2.58-.29.88-.24Z" fill="#F8F1B2"/><path d="M14.48 8.69c-.42-.12-.86-.1-1.31.05l-.24.05c-.04.01-.05 0-.05-.04l.05-.4c0-.02.02-.04.06-.06.02 0 .07 0 .13.02a.2.2 0 0 0 .08.01l.41-.05.02-.01v-.03h-.72c-.02 0-.03-.02-.03-.04l-.04-.64c0-.02 0-.02.02-.02a.6.6 0 0 0 .5-.14l.83-.21c.05.22.12.48.21.76.04.13.06.25.07.37v.38Z" fill="#FC01FC"/><path d="m12.1 7.16-.1.47-.47.1c-.37-.02-.67.03-.92.16l-.33.06c-.03 0-.05-.01-.06-.04l-.04-.18.75-.24-.06.07c-.02.02-.02.03 0 .05h.06c.02 0 .03 0 .04-.02.1-.14.22-.22.37-.24l.75-.2Z" fill="#D30404"/><path d="M12.57 7.43a.53.53 0 0 0-.11.17c-.02.04 0 .07.03.1l.07.07c.02.03.02.07.02.15 0 .2 0 .39.03.58 0 .06-.03.17-.09.34a.2.2 0 0 0 0 .1c0 .06-.01.12-.05.17-.02.03-.04.04-.07.02l-.16-.07c-.1-.16-.14-.3-.13-.42.04-.42.07-.85.08-1.3 0-.04.02-.06.06-.05.12.02.23.07.32.14Z" fill="#FEFC09"/><path d="m11.26 7.33.08.02a.48.48 0 0 0-.37.24l-.04.03-.06-.01c-.02-.02-.02-.04 0-.05l.06-.07c.05-.05.1-.1.17-.12.06-.05.12-.06.16-.04Z" fill="#9F94A8"/><path d="M4.9 9.14c.03.1.03.2.01.27-.04.03-.08.02-.13 0a.34.34 0 0 1-.12-.26V9c-.06-.45-.07-.9-.02-1.35l.2-.24h.04c.01 0 .02 0 .02.02a.6.6 0 0 1-.06.35.11.11 0 0 0 0 .09.8.8 0 0 1-.01.32l.01.09c.03.05.03.1.01.16 0 .02-.01.05 0 .07l.05.64ZM12.57 7.43l.13.06c.03.02.04.04.05.07.07.43.09.87.04 1.3l-.38.51-.17-.31.16.07c.03.02.05 0 .07-.02a.26.26 0 0 0 .04-.18l.01-.1a.97.97 0 0 0 .09-.33c-.02-.2-.03-.39-.03-.59 0-.07 0-.11-.02-.14a.32.32 0 0 0-.07-.08c-.04-.02-.05-.05-.03-.09a.53.53 0 0 1 .1-.17Z" fill="#D30404"/><path d="m7.75 7.52.06.09a8.2 8.2 0 0 1 .57.1l.1.05c-.03.08-.01.16.04.24l-.83-.12c.12-.07.14-.17.05-.3.02-.02.02-.04.01-.06Z" fill="#6E1134"/><path d="M9.04 7.51c.37.2.75.27 1.14.22l.05.18c0 .03.02.04.05.04l.33-.06-.47.76c-.02.03-.02.06.02.08.18.08.31.2.4.36.05.11.12.23.22.35.13.18.24.37.33.57a.87.87 0 0 1-.37.07c-.07 0-.12-.01-.14-.06-.04-.13-.12-.19-.23-.16a.92.92 0 0 1-.46.02.92.92 0 0 0-.26-.04c-.1.02-.17.08-.21.2-.04.07-.13.1-.26.11-.15.06-.37.12-.64.17a.77.77 0 0 1-.36 0l.67-.63c.07.04.12.05.18.03.03-.01.05-.03.05-.06l.06-.8c0-.04.05-.06.15-.06v-.02l-.68-.75.84.1c.03 0 .06 0 .08-.02a.09.09 0 0 0 .02-.08c0-.03-.01-.05-.03-.06a2.78 2.78 0 0 0-1.05-.21l-.09-.06v-.14c.24.05.46.04.66-.05Z" fill="#DBDAC7"/><path d="M7.74 7.58c.09.13.07.23-.05.3a.17.17 0 0 1-.07.01.75.75 0 0 1-.33-.07c0-.11.03-.19.08-.24a.1.1 0 0 1 .08-.03l.29.03Z" fill="#D30404"/><path d="M4.64 7.63a5.74 5.74 0 0 0 .02 1.52c0 .1.04.18.12.26v.12l-.32-.32.12-.04c.02-.01.02-.03.01-.05a.92.92 0 0 1-.1-.6c.04-.4.07-.68.07-.85 0-.04-.03-.05-.07-.03h.15Z" fill="#F8F1B2"/><path d="M12 7.63c.03.25.02.5-.05.75l-.42-.64.47-.1Z" fill="#BCB6BB"/><path d="M4.49 7.64c.05-.02.07 0 .07.03 0 .17-.02.46-.06.86h-.26c-.03 0-.04.02-.01.06l.02.04c.02.02.02.04 0 .07-.02.02-.07.03-.14.03-.03 0-.06 0-.09.02a.12.12 0 0 0-.04.06c0 .03 0 .06.02.08l.15.14c.01.02.01.03-.02.04h-.32c-.03-.01-.04-.03-.02-.05l.02-.03a.1.1 0 0 0 .01-.08 2.62 2.62 0 0 1-.06-.33.08.08 0 0 0-.06-.08c-.04 0-.06 0-.06.04-.02.15-.02.3 0 .46 0 .05 0 .07-.03.08a.2.2 0 0 1-.1 0l.07-.85c.1 0 .19-.03.28-.07l.05.01.02.03c.02.02.04.02.06.02l.33-.04c.06 0 .06-.01 0-.03A.9.9 0 0 0 4 8.14h-.2l-.2-.04.05-.32c.28 0 .56-.05.84-.14Z" fill="#FC01FC"/><path d="m11.53 7.74.42.64c.04.08.03.13-.02.16a.74.74 0 0 0-.2.19.67.67 0 0 0-.08.2l-.07.2c-.1.26-.22.54-.35.82-.02.06-.06.08-.12.06-.1-.2-.2-.4-.33-.57-.1-.12-.17-.24-.23-.35a.79.79 0 0 0-.39-.36c-.04-.02-.04-.05-.02-.08l.47-.76c.25-.13.55-.18.92-.15Z" fill="#1544A7"/><path d="M8.47 7.76c.37 0 .72.07 1.05.21.02 0 .03.03.03.06s0 .05-.02.07a.09.09 0 0 1-.08.03l-.84-.1c0-.02-.03-.03-.09-.03a.28.28 0 0 1-.05-.24Z" fill="#D30404"/><path d="M7.62 7.9a.1.1 0 0 1 0 .07c-.15.42-.37.78-.66 1.07-.02.03-.01.04.02.05.11 0 .21 0 .3-.03.11-.02.2 0 .27.06 0 .13.03.27.1.41l.38.75c-.26-.13-.52-.2-.77-.2L7 10.02C7 10 6.98 10 6.98 9.97A.1.1 0 0 1 7 9.95c.02-.03.02-.05 0-.07a2.24 2.24 0 0 1-.37-.7c-.03-.07 0-.1.07-.06.04.02.06.02.08 0 .03-.04.03-.07.01-.1a.1.1 0 0 0-.1-.06c-.24.01-.36-.04-.34-.15.14-.03.31-.05.52-.05.1 0 .2-.05.27-.14.05-.05.11-.15.18-.29a.1.1 0 0 0 0-.08.56.56 0 0 1-.04-.2l.02-.23c.1.05.21.07.33.07Z" fill="#CACBC9"/><path d="M11.2 7.87c.02.08 0 .14-.07.16-.04.02-.07 0-.08-.04v-.11c.02 0 .03-.02.03-.03.01-.02.03-.03.05-.02.02 0 .04.02.06.04Z" fill="#DBDAC7"/><path d="M11.09 9.28c.08-.03.1-.1.06-.21a.03.03 0 0 0-.03-.02c-.02 0-.02-.02-.02-.06 0-.02.02-.03.04-.03h.15c.05 0 .06-.02.06-.07-.04-.18-.12-.3-.26-.38a.15.15 0 0 1-.09-.13c0-.06.02-.11.07-.14.04-.03.08-.03.12 0 .03.02.03.03 0 .06-.03.02-.05.04-.05.06-.01.04 0 .06.04.07.09.02.14-.01.16-.1 0-.03 0-.05-.03-.08-.04-.03-.07-.07-.07-.11 0-.04-.02-.06-.06-.05a.55.55 0 0 0-.21.07c-.06.04-.1.1-.1.17-.02.08 0 .14.05.2s.12.12.22.19c.03.02.05.05.04.08 0 .04-.02.06-.05.08a.2.2 0 0 1-.12.01c-.04 0-.05-.03-.03-.07a.2.2 0 0 0 .01-.05c0-.03 0-.06-.02-.08l-.05-.05a.03.03 0 0 0-.04 0 .03.03 0 0 0-.02.02.64.64 0 0 0 0 .22c.01.04.03.06.07.07.04 0 .07.02.1.05.02.02.03.04.01.06a.28.28 0 0 0-.04.16.61.61 0 0 1-.23.07c-.03 0-.06 0-.08-.02a.08.08 0 0 1-.03-.08l.02-.19a.6.6 0 0 0-.03-.17.73.73 0 0 1-.04-.35c0-.06.04-.16.1-.28l.07-.17c.03-.1.13-.15.28-.15a.24.24 0 0 0 0 .11c0 .04.03.06.07.04.07-.02.09-.08.06-.16.05-.03.1-.03.17.02.03.02.06.06.08.11l.16.37c.02.02.03.05 0 .08a.53.53 0 0 0-.03.15c-.05.32-.18.56-.4.72-.02.03-.05.02-.07 0l-.01-.04Z" fill="#0C0914"/><path d="m7.7 7.88.82.12c.06 0 .1.01.09.03l.69.75-.01.02c-.1 0-.15.02-.15.06-.1-.15-.22-.3-.36-.44-.13-.13-.24-.19-.33-.17-.03-.04-.06-.06-.1-.06l-.04.02a.19.19 0 0 0-.03.04 6 6 0 0 1-.1.03c-.3.07-.47.14-.52.24a2.58 2.58 0 0 0-.17.31l-.21.23a.67.67 0 0 1-.3.02c-.03 0-.04-.01-.02-.04.29-.3.5-.65.67-1.07a.1.1 0 0 0 0-.08l.06-.01Z" fill="#1544A7"/><path d="M14.08 8.12c.05-.06.11-.09.2-.07.02 0 .04.02.05.06.01.11 0 .22-.06.32-.02.06-.06.06-.1.02L14 8.28c-.03-.03-.03-.06 0-.09a2 2 0 0 1 .08-.07Z" fill="#F0F3FA"/><path d="M3.58 8.23c0-.04 0-.09.02-.13.07 0 .13.02.2.03.06.01.13.02.2 0 .1 0 .2 0 .32.02.06.02.06.03 0 .03l-.33.04c-.02 0-.04 0-.06-.02l-.03-.03h-.04a.9.9 0 0 1-.28.06Z" fill="#FCA4FE"/><path d="M11.09 9.28a.24.24 0 0 1-.09-.06c0-.06.01-.11.04-.16.02-.02.01-.04 0-.06a.18.18 0 0 0-.1-.05c-.05-.01-.07-.03-.08-.07a.64.64 0 0 1 0-.22l.02-.03.04.01.05.05c.02.02.03.05.02.08a.2.2 0 0 1-.01.05c-.02.04-.01.06.03.07a.2.2 0 0 0 .12-.01.09.09 0 0 0 .05-.08.09.09 0 0 0-.04-.08c-.1-.07-.17-.13-.22-.2a.24.24 0 0 1-.06-.19.24.24 0 0 1 .11-.17.55.55 0 0 1 .21-.07c.04-.01.06 0 .06.05 0 .04.03.07.07.11.03.02.04.05.03.08-.02.09-.07.12-.16.1-.04 0-.05-.03-.04-.07 0-.02.02-.04.05-.07.03-.02.03-.04 0-.05-.04-.03-.08-.03-.12 0a.15.15 0 0 0-.07.14c0 .06.04.1.1.13.13.07.21.2.25.38 0 .05-.01.07-.06.07h-.15c-.02 0-.03.01-.04.03 0 .04 0 .05.02.06.01 0 .02 0 .03.02.04.1.02.18-.06.21Z" fill="#CACBC9"/><path d="M8.45 8.25c0 .1-.04.15-.12.13-.03 0-.05-.05-.05-.13l.03-.04a.07.07 0 0 1 .04-.02c.04 0 .07.02.1.06Z" fill="#DBDAC7"/><path d="m9.14 8.86-.06.8c0 .03-.02.05-.05.06-.06.02-.11 0-.18-.03-.15 0-.31.02-.47.05a.45.45 0 0 1-.21.02.34.34 0 0 1-.16-.13 8.15 8.15 0 0 0-.46-.51c-.07-.06-.16-.08-.27-.06l.2-.22.03-.03.15-.3c.05-.08.22-.16.51-.23l.11-.03c0 .08.02.13.05.13.08.02.12-.02.12-.13.09-.02.2.04.33.17.14.14.26.29.36.44Z" fill="#0C0914"/><path d="M6.03 9.44c.01.18.1.32.24.42.06.12.06.28 0 .49-.03.16-.09.27-.16.3l-.14-.3c-.08-.16-.13-.15-.15.02l-.05.42c0 .03-.02.05-.06.06l-.2.06c-.06.02-.08.06-.06.12l.06.18c.02.06.05.08.11.07l.73-.17.18-.46a.1.1 0 0 1 .07-.06l.11-.04c.04-.01.05-.03.02-.06a.53.53 0 0 0-.13-.12c0-.06 0-.12-.04-.17-.04-.07-.05-.11-.04-.14.02-.04.07-.07.16-.1l.08.02-.08.03a.06.06 0 0 0-.05.06c0 .04.01.07.05.09.1.04.18.1.24.16.06.07.13.13.2.17.31.16.62.27.92.34.07.02.14 0 .2-.04.05.03.1.04.15.05.06 0 .1.02.12.03.03.03.05.07.06.13-.4.15-.82.22-1.29.22-.23 0-.41.01-.54.05l-.54.13c-.46.09-.85.03-1.19-.18-.18-.11-.23-.32-.15-.61.05.06.1.05.15-.03a59.38 59.38 0 0 1 .45-2.1c.07.14.12.24.13.29a32.45 32.45 0 0 0 .34 1.25h.04c.03 0 .05-.01.05-.05l.01-.53Z" fill="#FA7F02"/><path d="m8.27 8.6-.09.1c-.03.03-.06.02-.07-.02a.2.2 0 0 1 .03-.18c.06-.07.12-.09.19-.04.02.02.05.03.08.02h.03c.04-.01.06 0 .06.05v.2c0 .05-.02.07-.07.05l-.04-.01c-.04-.02-.06-.04-.06-.08v-.06c0-.06-.02-.07-.06-.03Z" fill="#CACBC9"/><path d="M4.5 8.53c-.04.17-.01.36.1.6 0 .01 0 .03-.02.04a.38.38 0 0 1-.12.04 2.62 2.62 0 0 0-.85-.06c-.02-.04-.05-.06-.1-.04V9.1a.2.2 0 0 0 .1 0c.02-.02.03-.04.03-.09-.02-.15-.02-.3 0-.46 0-.04.02-.05.06-.04.04.02.06.04.06.08l.06.33a.1.1 0 0 1-.01.08l-.02.03c-.02.02-.01.04.02.04.13.02.24.02.32 0 .03 0 .03 0 .02-.03L4 8.9a.07.07 0 0 1-.02-.08l.04-.06a.13.13 0 0 1 .09-.02c.07 0 .12 0 .13-.03.03-.03.03-.05.01-.07l-.02-.04c-.03-.04-.02-.05.01-.05l.26-.01Z" fill="#FCA4FE"/><path d="M14.48 8.69c.03.07.03.1-.02.12a6.17 6.17 0 0 0-.54 0c-.14 0-.3.06-.46.15-.18.1-.3.2-.39.32l-.15.22c-.12.12-.17.23-.17.33 0 .15 0 .26.03.34 0 .03.02.06.05.08.23.19.38.41.44.67.02.06.06.1.12.13.07.01.13 0 .17-.04l.68-.58a.56.56 0 0 0 .1-.17c.02.02.02.05.03.08 0 .03 0 .05-.02.07l-.18.45c0 .03-.02.05-.04.07l-.04.03c-.06 0-.1.01-.15.04a.04.04 0 0 0-.02.04c0 .01 0 .03.02.03.04.03.08.03.13.02l-.05.13h-.85c0-.03 0-.05-.02-.06v-.04l-.33-.35c0-.05-.05-.1-.15-.12a.1.1 0 0 0-.02-.06l-.05-.11a.19.19 0 0 1 0-.1 1.6 1.6 0 0 0-.19-1l.38-.52c.18.02.3-.02.38-.12.45-.15.88-.17 1.3-.05Z" fill="#FEFC09"/><path d="M12 8.94c-.06 0-.1.03-.12.1v.07c.02.06.02.12 0 .16a2.31 2.31 0 0 1-.71.97l-.36.33a1.5 1.5 0 0 1-.53.35c-.03.06-.09.08-.18.05-.42.08-.76.07-1.04-.02a3.6 3.6 0 0 1-.75-.38 1.85 1.85 0 0 0-.44-.2 2.55 2.55 0 0 1-.61-.3c.25.01.51.08.77.2.04.04.1.06.15.05.1.03.22.03.36 0 .27-.05.49-.11.64-.17h.17c.04.02.05.04.05.08v.25c0 .05.03.09.07.11.08.04.15.1.2.17l.14.08c.25.09.46.03.62-.17h.04c.06 0 .09 0 .1-.02a.55.55 0 0 0 .06-.54.21.21 0 0 1 .11-.03c.12 0 .25-.02.37-.07.06.02.1 0 .12-.06.34-.32.57-.71.7-1.16 0-.03.01-.03.03 0 .02.04.04.1.04.15Z" fill="#D30404"/><path d="m8.52 9.02-.01.24c0 .03-.02.05-.06.06a.3.3 0 0 1-.2-.05c-.06.05-.1.07-.1.06a.15.15 0 0 1-.06-.14c0-.06.03-.11.1-.15.02-.01.04 0 .06.06a.1.1 0 0 1 0 .08v.06s0 .02.02.02l.02-.01a.28.28 0 0 1 .1-.12c.03-.02.05-.05.03-.09 0-.04-.03-.06-.07-.06h-.19c-.04 0-.07-.02-.07-.06v-.1c0-.07.03-.08.08-.04.07.06.17.1.28.13.04 0 .06.03.06.06v.05Z" fill="#DBDAC7"/><path d="M8.42 9.52c-.04-.13-.09-.18-.13-.14l-.04-.1a.3.3 0 0 0 .2.04c.04 0 .05-.03.06-.06v-.24h.13c.04 0 .06-.01.07-.04l.03-.16c.02-.06.05-.07.11-.05l.04.01c.05.02.07.06.07.12-.02.17-.07.33-.15.47-.07.12-.2.17-.39.15Z" fill="#232021"/><path d="m14.46 8.81.03.16c-.01.01-.02.04-.02.09-.15.03-.32.04-.5.02-.17-.01-.34.07-.52.27a.67.67 0 0 0-.27.74c0 .03.02.06.04.08.14.1.3.19.45.23.06.02.11.01.16-.03l.53-.4.03.08-.04.2a.56.56 0 0 1-.1.18c-.2.17-.44.36-.68.58a.17.17 0 0 1-.18.04.17.17 0 0 1-.12-.13 1.28 1.28 0 0 0-.44-.67.14.14 0 0 1-.05-.08 1.74 1.74 0 0 1-.03-.34c0-.1.05-.21.17-.33l.15-.22c.09-.12.22-.23.4-.32.16-.09.31-.14.45-.15h.54Z" fill="#F0F3FA"/><path d="M6.34 8.8c-.02.12.1.17.35.16a.1.1 0 0 1 .1.05c.01.04 0 .07-.02.1s-.04.03-.08.01c-.08-.03-.1 0-.07.07.11.3.23.54.37.7.02.01.02.03 0 .06v.02c-.01.03 0 .04.02.05l.25.06c.2.12.4.22.61.29.17.05.32.12.44.2.28.18.53.3.75.38.28.1.62.1 1.04.02-.13.1-.18.17-.17.2-.04-.02-.07-.03-.1-.02-.04 0-.05.03-.05.06 0 .16.08.28.22.35l.02.12a.1.1 0 0 1-.02.09.57.57 0 0 0-.12.26v-.06h-.04c0 .02 0 .04.02.07l-.02.01a.09.09 0 0 0-.02-.03c-.02-.02-.04-.02-.06 0-.16.15-.41.19-.74.1-.25-.1-.4-.35-.44-.75.09.02.15-.03.2-.13a.18.18 0 0 0-.02-.17c-.05-.07-.11-.1-.19-.07a.24.24 0 0 0-.06-.13c-.02-.01-.06-.03-.12-.03a.4.4 0 0 1-.19-.07 3.7 3.7 0 0 0-.53-.3c-.23-.1-.43-.23-.61-.39a.85.85 0 0 0-.3-.1l-.08-.01-.12-.03c-.03-.01-.05-.03-.05-.07 0-.09 0-.17-.02-.23-.02-.1-.04-.1-.06 0a.3.3 0 0 1-.16.22.55.55 0 0 1-.24-.42c0-.18 0-.33.05-.44.05-.13.14-.2.26-.2Z" fill="#9F94A8"/><path d="M12 8.94c.15.2.27.4.36.62.11.26.15.49.13.69-.02.2-.06.37-.11.47a.47.47 0 0 1-.38.3 4 4 0 0 1-.78.05.33.33 0 0 0-.13.04c-.37.2-.75.23-1.16.07-.01-.04.04-.11.17-.2.1.02.15 0 .18-.06l.24-.04a4 4 0 0 1 .26-.14 18.85 18.85 0 0 0 .78-.7.36.36 0 0 0 .08-.13.34.34 0 0 1 .08-.12.12.12 0 0 0 .04-.09c0-.06-.02-.09-.06-.09l.18-.34c.02-.04.02-.1 0-.16v-.07c.02-.07.06-.1.12-.1Z" fill="#EED905"/><path d="m14.46 9.54-.02-.07a.09.09 0 0 0 .02-.05c0-.03-.01-.05-.05-.05l-.56-.02h-.03a.08.08 0 0 0-.02.04c0 .02 0 .04.02.04l.52.14-.03.14a.43.43 0 0 0-.21.22.5.5 0 0 0-.2.14l-.3-.1c.02.01.02 0 0-.04V9.7c0-.03 0-.05.03-.07a.07.07 0 0 1 .08 0c.13.08.25.1.37.06.09-.03.09-.05 0-.08-.1-.03-.24-.06-.42-.08-.07-.01-.08-.04-.04-.1a.7.7 0 0 1 .17-.14.32.32 0 0 1 .21-.05h.25c.15 0 .22-.06.22-.18 0-.05 0-.08.02-.09l-.03.57Z" fill="#CD4DD1"/><path d="M14.47 9.06c0 .12-.07.18-.22.18H14a.32.32 0 0 0-.2.05.7.7 0 0 0-.18.14c-.04.06-.03.09.04.1.18.02.31.05.42.08.09.03.09.05 0 .08-.12.04-.24.02-.37-.06a.07.07 0 0 0-.08 0 .07.07 0 0 0-.03.07v.23a.24.24 0 0 1-.05-.05.1.1 0 0 1-.02-.06v-.3c0-.09-.02-.14-.08-.17.18-.2.35-.29.52-.27.18.02.35 0 .5-.02Z" fill="#F8F1B2"/><path d="M3.6 9.15c-.06.16-.04.27.05.32-.05 0-.08.05-.09.15a1.13 1.13 0 0 1-.05-.5c.05-.03.08-.01.1.03Z" fill="#D3B43C"/><path d="m8.85 9.69-.67.63c-.06 0-.1 0-.15-.04l-.38-.75a.96.96 0 0 1-.1-.41l.46.5c.05.08.1.12.16.14.05.01.12 0 .21-.01.16-.04.32-.06.47-.06Z" fill="#1544A7"/><path d="m4.46 9.2.31.33c.01.07.03.12.07.16L4.68 11c.03 0 .02.03-.03.09l-.28.16a.12.12 0 0 0-.05.07.4.4 0 0 1-.18.23l-.25-.53.11-.14a.12.12 0 0 0 .03-.08v-.2a.37.37 0 0 0-.09-.18l-.23-.19a.1.1 0 0 1-.03-.08c0-.06-.02-.1-.07-.12a.35.35 0 0 1-.02-.2c.37-.04.58.12.64.49.04.26-.01.5-.18.69-.06.08-.07.17 0 .26l.01.02c.06.09.12.09.19 0 .18-.25.28-.47.28-.67v-.21c.02-.3 0-.5-.06-.59-.08-.14-.16-.23-.24-.27-.1-.04-.3-.07-.58-.09-.1-.05-.1-.16-.04-.32.31-.02.6 0 .85.06Z" fill="#FEFC09"/><path d="M14.44 9.47c-.05.07-.08.1-.1.1l-.52-.14c-.02 0-.03-.02-.02-.04 0 0 0-.02.02-.03l.03-.02.56.03c.04 0 .05.02.05.05l-.02.05Z" fill="#F0F3FA"/><path d="M8.42 9.52c0 .1-.04.13-.11.1a.08.08 0 0 1-.05-.07c0-.06 0-.12.03-.17.04-.03.09.01.13.14Z" fill="#DBDAC7"/><path d="M10.41 9.79c-.18.1-.38.1-.59 0a.08.08 0 0 1-.05-.07c0-.04 0-.06.03-.08l.26-.26a.08.08 0 0 1 .05-.03c.12 0 .24.08.35.23.03.04.04.07.03.12-.01.04-.04.07-.08.09Z" fill="#D30404"/><path d="M13.45 9.35c.06.03.09.08.08.17v.3c0 .02 0 .05.02.06l.06.05c.01.04 0 .05-.02.03.12.2.22.23.3.11a.51.51 0 0 1 .21-.14c.12-.01.19-.09.21-.22l.03-.14c.02 0 .05-.03.1-.1l.02.07v.29c0 .06-.04.11-.1.15l-.53.4a.17.17 0 0 1-.16.02 1.27 1.27 0 0 1-.45-.23.13.13 0 0 1-.04-.08.67.67 0 0 1 .27-.74Z" fill="#FEFC09"/><path d="M4.91 9.41c0 .1-.02.2-.07.28-.04-.04-.06-.09-.07-.16l.01-.12c.05.03.1.03.13 0Z" fill="#555353"/><path d="M3.65 9.47c.28.02.48.05.58.1.08.03.16.12.24.26.06.1.08.3.07.59l-.01.2c0 .21-.1.43-.28.68-.07.09-.13.09-.19 0a.54.54 0 0 0-.01-.02c-.07-.1-.07-.18 0-.26.16-.2.22-.43.18-.7-.06-.36-.27-.52-.64-.48l-.03-.22c.01-.1.04-.15.1-.15Z" fill="#F0F3FA"/><path d="M6.68 9.97c-.09.02-.14.05-.16.1-.01.02 0 .06.04.13.04.05.05.1.04.17-.13.05-.24.04-.33-.02.06-.21.06-.37 0-.49a.3.3 0 0 0 .16-.22c.02-.1.04-.1.06 0 .02.06.02.14.02.23 0 .04.02.06.05.07l.12.03Z" fill="#576C38"/><path d="M11.7 9.61c.04 0 .06.03.06.1 0 .03-.01.05-.04.08a.34.34 0 0 0-.08.12.36.36 0 0 1-.08.14 18.73 18.73 0 0 1-.78.7 4.2 4.2 0 0 0-.26.13l-.24.04c.21-.09.39-.2.53-.35l.36-.33c.21-.18.4-.39.53-.63Z" fill="#BCB6BB"/><path d="M14.3 9.7c-.01.14-.08.22-.2.23.04-.1.11-.17.2-.22Z" fill="#F8F1B2"/><path d="m10.6 10.02.03.1c.08.19.06.37-.05.53-.02.02-.05.03-.1.01 0-.14-.04-.24-.1-.3v-.1c-.04-.12-.1-.2-.2-.2-.23-.05-.4 0-.5.14l-.1.05c-.03.01-.05 0-.07-.02a.33.33 0 0 1-.07-.19c.04-.12.11-.18.2-.2.04-.01.13 0 .27.04.13.03.28.03.46-.02.1-.03.19.03.23.16Z" fill="#0F8ED6"/><path d="M14.46 9.83c.02.18 0 .25-.07.22l-.03-.07c.06-.04.1-.09.1-.15Z" fill="#696868"/><path d="M13.9 10.07c-.09.12-.19.09-.3-.1l.3.1Z" fill="#F0F3FA"/><path d="M6.76 9.98c.16.04.26.07.3.1.18.16.38.29.6.38a3.7 3.7 0 0 1 .58.33.25.25 0 0 1-.2.04c-.3-.07-.6-.18-.91-.34a.73.73 0 0 1-.21-.17.62.62 0 0 0-.23-.16c-.05-.02-.07-.05-.06-.09 0-.03.02-.05.05-.06l.08-.03Z" fill="#F96504"/><path d="M3.94 10.43c-.09 0-.14.03-.15.09 0 .03 0 .06.04.06l.2.02v.2c0 .04 0 .07-.03.1l-.11.14-.28-1c.05.02.07.06.07.12 0 .04 0 .06.03.08l.23.2Z" fill="#CD4DD1"/><path d="M9.44 10.04c0 .08.03.14.07.19.02.02.04.03.07.02l.1-.05c0 .04 0 .07.02.1.01.02.04.03.07.03.22 0 .43-.01.61-.07v.1a.3.3 0 0 1-.27.15.68.68 0 0 1-.33-.05c-.17-.1-.2-.06-.1.1.01.04.05.08.11.15.15.1.3.1.47 0l.1-.11a.05.05 0 0 1 .05-.02l.03.03c.02.03.01.05-.01.06-.16.2-.37.26-.62.17a.34.34 0 0 1-.14-.08.63.63 0 0 0-.2-.17.12.12 0 0 1-.07-.11v-.25c0-.04-.01-.06-.05-.07a.43.43 0 0 0-.17 0c.13-.01.22-.05.26-.12Z" fill="#9F94A8"/><path d="M10.38 10.26c-.18.06-.39.08-.6.07-.04 0-.07-.01-.08-.03-.03-.03-.03-.06-.01-.1.1-.14.26-.2.5-.15.08.02.15.09.2.21Z" fill="#BCB6BB"/><path d="M6.11 10.66c-.04.06 0 .08.14.06.03 0 .05.01.05.04l.05.35-.73.17c-.06.01-.1-.01-.11-.07l-.06-.18c-.02-.06 0-.1.06-.11l.2-.07a.07.07 0 0 0 .06-.06l.05-.42c.02-.17.07-.18.15-.02l.14.31Z" fill="#F99201"/><path d="M6.27 10.35c.09.06.2.07.33.02.05.03.1.07.13.12.03.03.02.05-.02.06l-.11.04a.1.1 0 0 0-.07.06l-.18.46-.05-.35c0-.03-.02-.04-.05-.04-.13.02-.18 0-.14-.06.07-.04.13-.15.16-.3Z" fill="#94771E"/><path d="M10.37 10.36c.07.06.1.16.1.3h-.04c.02 0 .03-.02.01-.05a.04.04 0 0 0-.03-.03c-.02 0-.04 0-.05.02l-.1.11a.7.7 0 0 0-.47 0l-.11-.14c-.1-.17-.07-.2.1-.1.06.03.17.05.33.04a.3.3 0 0 0 .26-.15Z" fill="#1544A7"/><path d="M12.65 10.6a.1.1 0 0 1 .02.05l-.18.17h-.04v-.04c.03-.15.1-.21.2-.19Z" fill="#9F94A8"/><path d="M12.67 10.65c.1.03.15.07.15.12-.1 0-.17.02-.23.05-.04.03-.06.06-.05.1a.1.1 0 0 0 0-.06c-.01-.02-.03-.02-.05-.02l-.06.02c-.02 0-.03 0-.02-.02a.1.1 0 0 1 .04-.06v.03c0 .02.02.02.04 0l.18-.16Z" fill="#DBDAC7"/><path d="M10.26 10.71c-.16.1-.32.1-.47 0a.7.7 0 0 1 .47 0Z" fill="#D30404"/><path d="m12.82 10.77.33.35v.04l-.89-.01c.05-.05.12-.1.2-.12.14.02.28.02.42 0 .04-.01.04-.03 0-.06a.29.29 0 0 0-.2-.04c-.07.01-.1-.01-.1-.08v-.03a.45.45 0 0 1 .24-.05Z" fill="#CD4DD1"/><path d="M14.09 10.96c.02.04.02.08-.02.13-.05.01-.1 0-.13-.01a.04.04 0 0 1-.02-.04c0-.02 0-.03.02-.04a.28.28 0 0 1 .15-.04Z" fill="#F8F1B2"/><path d="M4.68 11c.05.05.08.1.1.15 0 .03.02.05.05.07l.33.23a.43.43 0 0 1-.21.05l-.19-.1c-.02-.06-.08-.05-.17.04-.03.02-.05.02-.08 0l-.05-.05a.85.85 0 0 1 .17-.19c.06-.04.06-.07.02-.1.05-.06.06-.09.03-.1Z" fill="#CD4DD1"/><path d="M4.65 11.1c.04.03.04.06-.02.1a.85.85 0 0 0-.18.19c0 .13-.04.22-.1.27-.1.08-.08.1.05.07a.66.66 0 0 0 .36-.33l.19.1c-.07.03-.1.13-.1.31l-.06.26c-.08.05-.12.15-.14.3l-.12-.2.18-.44v-.04l-.03-.02c-.03-.03-.05-.03-.07.01a.18.18 0 0 1-.07.1c-.02.02-.05.02-.1.02a.19.19 0 0 0-.12.04l-.18-.28a.4.4 0 0 0 .18-.23c0-.03.02-.05.05-.07l.28-.16ZM8.14 11.44l-.39-.14c.3 0 .59-.07.87-.18.02-.02.04 0 .05.02l.01.03c0 .01 0 .03-.02.03-.2.05-.36.13-.52.24Z" fill="#D30404"/><path d="M12.26 11.15h.89l.02.08h-.92v-.08Z" fill="#CACBC9"/><path d="M12 11.3c-.39-.04-.72.1-1.01.45-.03.04-.11.07-.24.11-.06 0-.1-.04-.14-.1a.59.59 0 0 0 .3-.19.18.18 0 0 1 .07-.05.55.55 0 0 0 .37-.37c.25-.01.46.04.65.15Z" fill="#D30404"/><path d="M11.35 11.15a.55.55 0 0 1-.37.37.18.18 0 0 0-.07.05.59.59 0 0 1-.3.19l-.58-.35c-.08-.05-.07-.06.02-.04.4.08.83 0 1.3-.22Z" fill="#FEFC09"/><path d="M14.02 11.23c0 .08-.04.16-.12.23l-1.05.02-.75-.18c.01-.04.06-.06.15-.07h1.77Z" fill="#FC01FC"/><path d="M12 11.3h.1l.75.18.33.27c.01-.02.02 0 .01.04l-.12.06a1.38 1.38 0 0 0-.87-.2 1.36 1.36 0 0 0-.44.11c-.2.09-.33.16-.41.22a.5.5 0 0 0-.21.37c0 .01-.01.02-.03.02l-.09-.03a.04.04 0 0 1-.03-.03.57.57 0 0 0-.24-.45c.13-.04.2-.07.24-.1.29-.35.62-.5 1-.46ZM7.75 11.3l.4.14-.9.56a.47.47 0 0 0-.36-.15c-.03 0-.04.02-.03.05.03.07.09.14.17.2-.03.02-.04.05-.03.09-.06-.02-.06.04-.02.17l-.09.48c.02.18-.04.26-.2.22a.6.6 0 0 1 .01-.28v-.1c-.1-.32-.25-.63-.46-.9-.07-.1-.18-.15-.34-.16a.95.95 0 0 0-.38.06 1.9 1.9 0 0 1-.68.13c0-.18.04-.28.1-.31.09 0 .16-.02.22-.05a2.14 2.14 0 0 0 1.35 0c.27-.07.48-.11.63-.11.21 0 .42-.02.61-.04Z" fill="#FEFC09"/><path d="M4.76 11.4a.66.66 0 0 1-.36.33c-.13.04-.14.01-.04-.07.05-.05.08-.14.1-.27l.05.05c.03.02.05.02.08 0 .1-.09.15-.1.17-.04Z" fill="#9F94A8"/><path d="m13.9 11.46-.02.1c-.1.14-.3.2-.59.17.04.02 0 .03-.11.02l-.33-.27 1.05-.02Z" fill="#CD4DD1"/><path d="M13.88 11.57a.53.53 0 0 1-.15.25c-.22-.07-.46-.01-.71.19 0 .03-.06.04-.16.02a.7.7 0 0 1 .2-.18l.13-.06c.09-.01.12-.03.1-.06.3.02.5-.03.59-.16Z" fill="#555353"/><path d="M6.7 13.06a.09.09 0 0 1-.05.02c-.03 0-.05-.02-.06-.06v-.13c.02-.08.01-.13 0-.17a.74.74 0 0 0-.38-.45c-.14-.2-.34-.29-.6-.25a.15.15 0 0 0-.09.04l-.28.28c-.06.07-.07.14-.02.23.11.17.16.35.13.5l-.27-.23c-.06-.14-.14-.3-.25-.47a.37.37 0 0 1-.04-.3l.05-.25.35-.04.33-.1a.95.95 0 0 1 .38-.06c.16.01.27.06.34.16.2.27.36.58.46.91v.1a.6.6 0 0 0 0 .27Z" fill="#F0F3FA"/><path d="M11.13 14h-.92c-.02-.07-.04-.1-.06-.1v-.23c-.01-.05-.03-.07-.08-.07l-1.03-.02c-.06-.03-.12-.02-.17.01l-.24-.02c.05-.05.04-.09-.02-.1a.54.54 0 0 0 .1-.24c.04.03.07.05.07.08l-.02.06c0 .04.02.06.05.06h.22c.03 0 .05-.02.05-.05v-.22l.11-.02c-.02.1-.01.2.03.27.02.03.04.05.07.05H9.87c.08.03.16.04.25.02.03 0 .05-.02.05-.05 0-.05 0-.1-.02-.15l.03-.1c.1-.03.07-.07-.1-.1a2.46 2.46 0 0 0-.38-.05c-.02 0-.04-.01-.04-.04v-.12c0-.03-.01-.04-.04-.04l-.16.01c.03-.08.02-.14-.02-.19a.1.1 0 0 0-.1-.03.1.1 0 0 0-.07.05.22.22 0 0 0-.02.17.2.2 0 0 0-.1.03s-.03.03-.04.07a.24.24 0 0 1-.06.07.1.1 0 0 1-.08.03c-.14 0-.26 0-.37.04-.08.02-.12.08-.11.16l.01.77-1.71.03c-.04 0-.07-.03-.09-.08l.65-1.84c.06.1.12.16.18.17.03 0 .06 0 .08-.04.16-.22.31-.36.47-.42.1-.04.2-.1.27-.18.09-.08.13-.06.11.05 0 0 0 .03-.03.06-.02.03-.02.05.01.05l.1.03c.04 0 .06.02.08.05.15.24.35.41.62.52.03.01.04.04.03.07l-.02.07c-.02.05 0 .07.04.06.08 0 .14-.05.2-.13a.08.08 0 0 1 .04-.04l.62-.2c.02 0 .04 0 .05.03v.05c-.07.11-.16.21-.25.29-.04.03-.04.05.01.05.06 0 .11-.02.15-.07.11-.13.2-.29.27-.47.01-.05.05-.07.1-.04l.15.1c.03.02.06.06.08.14.19.52.34 1.02.46 1.5v.1l-.04.08Z" fill="#232021"/><path d="m4.53 12.18-.2-.34a.19.19 0 0 1 .1-.04l.1-.01a.18.18 0 0 0 .08-.1c.02-.05.04-.05.07-.02l.03.03v.03l-.18.45Z" fill="#D3B43C"/><path d="m13.73 11.82-.54.73c-.02.03-.04.03-.06 0-.14-.13-.3-.13-.49.01 0-.05 0-.09.02-.12.13-.18.32-.3.55-.36.04 0 .05-.03.02-.06-.02-.03-.1-.03-.21-.01.25-.2.49-.26.7-.2Z" fill="#FEFC09"/><path d="M7.24 12c.03.06.03.11-.02.14a.09.09 0 0 1-.08 0l-.11-.04a.44.44 0 0 1-.17-.2c-.01-.03 0-.05.03-.05.14 0 .26.05.35.15Z" fill="#D30404"/><path d="M12.79 12.07c-.04.1-.07.14-.1.15-.17-.24-.37-.23-.6.03v.04a.29.29 0 0 0-.04.12.42.42 0 0 0-.02.39c.01.03.03.04.06.04l.46-.07.03.07-.03.09a.35.35 0 0 0-.24.06.26.26 0 0 0-.15-.04c-.02 0-.05.03-.09.06a.57.57 0 0 1-.08.08.77.77 0 0 1-.35-.3c-.1-.13-.12-.27-.06-.4.06-.17.2-.3.4-.37.33-.13.6-.1.8.05Z" fill="#FEFC09"/><path d="M9.84 12.05c-.27.26-.55.28-.82.07.33.09.58.05.74-.1.02-.02.04-.02.06 0l.02.03Z" fill="#CACBC9"/><path d="M6.2 12.27c.2.22.3.4.28.52-.02.12-.02.22 0 .3 0 .05.02.07.07.07h.1c.04 0 .06.02.05.06-.04.15-.05.3-.04.44l-.04.3-.25-.14a1.96 1.96 0 0 0-.15-.64c0-.03-.03-.04-.06-.03-.18.1-.27.22-.27.36a2 2 0 0 1-.54-.43.76.76 0 0 0-.13-.52c-.05-.08-.04-.15.02-.22l.28-.28a.15.15 0 0 1 .09-.04c.26-.04.46.04.6.25Z" fill="#FEFC09"/><path d="m12.7 12.22-.06.08-.54-.01v-.04c.22-.26.42-.27.6-.03Z" fill="#FC01FC"/><path d="M4.79 12.07a.37.37 0 0 0 .04.3c.1.17.2.33.25.47l-.43-.48c.02-.14.06-.24.14-.29Z" fill="#D3B43C"/><path d="M6.2 12.27c.2.1.33.25.4.45V13.02c0 .04.02.05.05.05l.05-.01c.15.04.21-.04.2-.22l.06.03c-.06.01-.08.04-.06.08.03.04.03.08.01.12l-.25.6c-.01-.16 0-.3.04-.45 0-.04-.01-.06-.05-.06h-.1c-.05 0-.07-.02-.08-.07l.01-.3c.02-.13-.07-.3-.27-.52Z" fill="#F96504"/><path d="M7.14 12.34c-.02.17-.08.35-.18.53l-.07-.03.1-.48c.02 0 .08 0 .15-.02Z" fill="#CD4DD1"/><path d="M12.17 12.4c.03.07.08.1.16.07.17-.05.26 0 .28.14 0 .05-.02.1-.06.16l-.46.06c-.03 0-.05 0-.06-.03a.42.42 0 0 1 .02-.4.33.33 0 0 1 .12 0ZM6.03 12.5l.06-.03c.05-.03.06-.02.03.02l-.02.02-.02.02c-.17.07-.26.16-.27.3 0 .02-.03.04-.06.04h-.17c-.05 0-.06-.02-.05-.06.02-.09 0-.14-.03-.15-.1-.05-.1-.1.01-.15a.68.68 0 0 1 .45 0 .1.1 0 0 0 .07 0Z" fill="#FC01FC"/><path d="m12.73 12.91-.1-.02c0-.16.08-.27.24-.33.05-.02.1-.01.15.03.04.04.05.1.03.15-.03.09-.12.12-.25.11-.03 0-.05.02-.07.06Z" fill="#F8F1B2"/><path d="m9.46 12.84-.02.18c0 .04-.03.07-.07.07h-.04c-.04 0-.07-.03-.07-.08l-.01-.17a.22.22 0 0 1 .02-.17.1.1 0 0 1 .08-.05.1.1 0 0 1 .08.03c.05.05.06.12.03.2Z" fill="#F0F3FA"/><path d="m10.18 13.19-.99-.05-.1.02a.27.27 0 0 0-.2.01l-.04-.01-.19-.03c-.03 0-.05.01-.06.04-.04.1-.04.2 0 .3.07.02.08.05.04.1a.34.34 0 0 0-.05.27c.01.03.03.05.06.05l.37.01c.03-.01.05-.01.07 0h1.06c.02 0 .04.04.06.1H8.5l-.02-.76c0-.08.03-.14.11-.16.1-.03.23-.05.37-.04a.1.1 0 0 0 .09-.03.24.24 0 0 0 .05-.07c.01-.04.03-.06.05-.07a.2.2 0 0 1 .09-.03v.18c.01.04.04.07.08.07h.04c.04 0 .07-.02.07-.07l.02-.18.16-.01c.03 0 .04.01.04.04V13c0 .03.02.04.04.04.1 0 .24.02.39.05.16.03.19.07.1.1Z" fill="#040405"/><path d="m12.63 12.89.1.02.02.04c.02.02.02.04 0 .06a.46.46 0 0 1-.2.14.18.18 0 0 0-.04-.04c.05 0 .06-.05.04-.18a.21.21 0 0 0 .03-.1l.05.06Z" fill="#696868"/><path d="M5.69 12.93c.03-.01.04 0 .05.02v.02c.05.15.04.23-.02.26-.07.02-.13-.05-.17-.2l-.01-.01c0-.03 0-.05.03-.05l.12-.04Z" fill="#CD4DD1"/><path d="m12.3 12.99.2.11.06.05c-.23.25-.5.46-.8.62v-.04l.11-.3c.11-.16.15-.27.12-.34a.57.57 0 0 0 .08-.08l.1-.06c.04 0 .08.01.14.04Z" fill="#1544A7"/><path d="m6.37 13.82-.48-.3c0-.15.1-.27.27-.37.03-.01.05 0 .06.03.09.2.14.42.15.64Z" fill="#F0F3FA"/><path d="M8.85 13.16c-.04.07-.09.1-.15.07a.54.54 0 0 1-.1.24.36.36 0 0 1 0-.3c0-.03.03-.04.06-.04l.19.03Z" fill="#CACBC9"/><path d="m10.18 13.19-.03.1c-.01.08-.05.11-.11.09a2.75 2.75 0 0 0-.1-.04c.02-.04-.02-.07-.12-.08a.4.4 0 0 0-.23-.02c-.04.02-.05.04-.05.07.01.1-.01.16-.07.16l-.18-.01a.08.08 0 0 1-.07-.04.37.37 0 0 1-.03-.28l1 .05ZM9.09 13.16v.22c0 .03-.03.05-.06.05h-.22c-.03 0-.05-.02-.05-.05l.02-.06c.06-.05.1-.1.12-.15a.27.27 0 0 1 .19-.01Z" fill="#DBDAC7"/><path d="M9.82 13.26c-.1.05-.06.08.12.08l.1.04c.06.02.1-.01.1-.1l.03.15c0 .03-.02.05-.05.05a.49.49 0 0 1-.25-.02H9.47c.06.01.08-.04.07-.15 0-.03.01-.06.04-.07a.4.4 0 0 1 .24.02Z" fill="#9F94A8"/><path d="m11.87 13.43-.12.3c-.17.04-.29.02-.36-.08-.02-.02-.02-.05 0-.07a.63.63 0 0 1 .48-.15Z" fill="#FEFC09"/><path d="m8.64 13.57.23.02c.05.01.07.05.07.1 0 .04 0 .07.02.1l.06.11-.37-.01c-.03 0-.05-.02-.06-.05a.34.34 0 0 1 .05-.27Z" fill="#BCB6BB"/><path d="M9.04 13.58c.05.1.07.21.05.32-.02-.01-.04-.01-.07 0l-.06-.12a.19.19 0 0 1-.02-.08c0-.06-.02-.1-.07-.1.05-.04.1-.05.17-.02Z" fill="#696868"/><path d="M10.15 13.9H9.1a.5.5 0 0 0-.05-.32l1.03.02c.05 0 .07.02.07.07l.01.22Z" fill="#BCB6BB"/><path d="M8.5 14H11.18c.06.01.07.03 0 .05l-.7.25v-.17c0-.04-.03-.05-.06-.04a.26.26 0 0 0-.18.12.07.07 0 0 1-.07.04h-.15c-.04-.1-.1-.16-.17-.17-.04 0-.06 0-.07.04-.05.08-.05.19 0 .32l-.55.05a.99.99 0 0 0 .03-.33.04.04 0 0 0-.03-.04h-.02c-.03-.01-.05 0-.06.03a.71.71 0 0 0-.01.34c-.38.02-.76 0-1.13-.08a.4.4 0 0 0-.04-.28.07.07 0 0 0-.06-.03.07.07 0 0 0-.07.04.33.33 0 0 0-.01.24l-1.04-.34 1.71-.03Z" fill="#4BAEF6"/><path d="M10.02 14.24c-.1.06-.15.12-.13.18l-.11.02c-.05-.13-.05-.24 0-.33.01-.03.03-.04.07-.04.07.02.13.07.17.17Z" fill="#94771E"/><path d="m8.02 14.4-.2-.02a.33.33 0 0 1 .02-.24.07.07 0 0 1 .07-.04c.03 0 .05 0 .06.03a.4.4 0 0 1 .05.28Z" fill="#CACBC9"/><path d="m10.48 14.3-.6.13c-.01-.06.03-.13.14-.19h.15c.03.01.06 0 .07-.03.05-.07.1-.1.18-.12.04-.01.05 0 .06.04v.17Z" fill="#D3B43C"/><path d="M9.23 14.5a.2.2 0 0 1-.1 0 .71.71 0 0 1 .02-.35c0-.03.03-.04.06-.04h.02c.02.02.03.03.03.05 0 .1 0 .22-.03.33Z" fill="#F0F3FA"/><defs><linearGradient id="a" x1="3.35" y1="3.12" x2="21.9" y2="24.43" gradientUnits="userSpaceOnUse"><stop stop-color="#1A1E21"/><stop offset="1" stop-color="#06060A"/></linearGradient></defs></svg>