<!-- by TradingView --><svg width="18" height="18" viewBox="0 0 18 18" xmlns="http://www.w3.org/2000/svg"><path fill="#F0F3FA" d="M0 0h18v18H0z"/><circle cx="9" cy="9" r="5" fill="#F7DE60"/><circle cx="9" cy="9" r="4" fill="#E9B523"/><path d="M4.98 3.7c.3.25.63.42 1 .5.66.15 1.13.3 1.73.65.24.3.42.64.55 1 .01.03.06.09.15.19l.07.02h1.06c.03 0 .05-.01.06-.03l.71-1.22c.27-.21.57-.35.9-.43l.97-.23c.23-.07.45-.17.66-.3.26-.17.44-.43.54-.78a.1.1 0 0 1 .03-.05.07.07 0 0 1 .1-.01.1.1 0 0 1 .03.04c.07.15.1.31.11.5a1.96 1.96 0 0 1-.57 1.28c-.2.19-.5.4-.78.5v.01c-.27.14-.69.38-.83.62-.17.29-.26.65-.29.8l.34.5c.09-.16.33-.53.58-.67.25-.13.51-.5.62-.67l-.01-.01c.1-.16.16-.29.18-.4.04-.14.1-.31.17-.45v-.04l.08-.17c.23.07.39.24.48.5v.08c-.09.45-.29.8-.5 1.18l-.03.03-.61.56a.62.62 0 0 0-.3.37c-.02.03 0 .04.02.05l.43.08c.27.15.52.12.74-.08l.13-.05a.08.08 0 0 1 .08.01.1.1 0 0 1 .03.04l.01.04c.05.28 0 .5-.14.68a.32.32 0 0 0-.1.1.1.1 0 0 0-.03.07c.03.12.07.22.12.31.06.31.21.5.46.54l.04.02a.1.1 0 0 1 .02.04.11.11 0 0 1 0 .1c-.17.25-.38.42-.63.52-.27.07-.52.06-.74-.03l-.25-.19-.07-.07c-.15-.17-.29-.33-.4-.53l-.17-.3c-.02-.04-.03-.04-.03 0 0 .35 0 .55-.02.61-.1.44-.1.91-.11 1.39 0 .35-.01.7-.06 1.04-.02.3-.13.57-.32.78l-.03.01h-.04c-.09-.08-.13-.2-.13-.39 0-.1 0-.1-.04 0-.06.19-.15.36-.27.5-.13.16-.33.3-.6.45-.02 0-.03.03-.03.06v.37a1.4 1.4 0 0 1-.25.61.72.72 0 0 1-.21.18c-.09.06-.17.1-.23.2-.05.09-.12.17-.2.25 0 .02-.02.02-.03 0l-.09-.1a.05.05 0 0 0-.03-.02h-.03a.25.25 0 0 0-.1.11c-.01.04-.03.04-.06.01a4.88 4.88 0 0 1-.25-.32c-.36-.19-.57-.51-.63-.98v-.32c0-.03-.01-.05-.04-.06a1.25 1.25 0 0 1-.45-.3 3.95 3.95 0 0 0-.12-.11 1.47 1.47 0 0 1-.3-.57c0-.02-.01-.02-.02 0l-.1.35a.1.1 0 0 1-.01.03l-.03.03a.07.07 0 0 1-.07-.01c-.1-.08-.18-.22-.23-.4-.04-.18-.08-.31-.13-.4l-.19-2.89c0-.04-.01-.04-.03 0-.22.42-.5.74-.86.96a.78.78 0 0 1-.46.1l-.27-.02c-.22-.11-.42-.3-.6-.54A.1.1 0 0 1 4 9.48v-.05a.1.1 0 0 1 .03-.04.08.08 0 0 1 .04-.03c.25-.06.4-.23.43-.52l.3-.81c.2-.16.38-.27.57-.33.2-.04.4-.08.56-.13.37-.12.65-.38.84-.77a.16.16 0 0 0 .01-.09c-.07-.78-.66-1.13-1.22-1.46a4.28 4.28 0 0 1-.66-.44 1.7 1.7 0 0 1-.56-1.21.88.88 0 0 1 .09-.5c.07-.12.13-.12.18 0l.16.35a.8.8 0 0 0 .21.26Z" fill="#000001"/><path d="M5.52 4.23c-.03-.02-.05-.01-.06.02v.01l.01.01 1.17.6-.08.16a.1.1 0 0 0-.01.06l.01.03h.05c.1-.1.19-.16.28-.17.08.17.21.27.4.28-.14.05-.23.1-.27.16-.18.26-.14.3.1.15.09-.05.25-.1.48-.12a.4.4 0 0 1-.11.08l-.03.02-.01.03a.08.08 0 0 0 0 .06l.17.26a.39.39 0 0 0-.26.22.03.03 0 0 0 0 .03h.01l.01.01c.02 0 .04 0 .08-.04a.1.1 0 0 1 .07-.02l.27-.03a.44.44 0 0 1 .2 0l.2.07-.4.03h-.02l-.01.03a.07.07 0 0 0 0 .06c.08.17.13.34.15.52-.23.07-.46.1-.7.08-.08 0-.12-.06-.12-.15 0-.5-.16-.87-.48-1.13-.2-.16-.39-.29-.56-.38-.3-.15-.58-.31-.83-.47a1.5 1.5 0 0 1-.59-.68c-.05-.12-.08-.3-.09-.55 0-.04.02-.05.04-.02.08.06.12.18.2.26.22.22.46.4.73.52Z" fill="#BB6920"/><path d="M13.38 3.71c-.16.23-.33.39-.5.47-.5.24-.99.5-1.48.76l-.22-.27-.01-.02v-.03l.01-.03h.02c.49-.09.95-.22 1.39-.4a1.87 1.87 0 0 0 .8-.73h.03l.01.01.01.02c.02.1 0 .16-.06.22Z" fill="#FFC02E"/><path d="M13.38 3.71c.03.2-.01.37-.12.52-.18.25-.4.45-.7.6l-.47.24-.55.33c-.23.16-.4.37-.52.63-.04.08-.07.2-.08.36a4.67 4.67 0 0 1-.08.42 4.67 4.67 0 0 1-.4.03.85.85 0 0 1-.22-.05 2.01 2.01 0 0 0-.24-.06c0-.17.04-.34.13-.5a.07.07 0 0 0 0-.06v-.02l-.03-.01-.23-.04a.4.4 0 0 1 .25-.09c.1 0 .26.04.46.1.03.02.04 0 .03-.03 0-.05-.01-.08-.03-.1a.87.87 0 0 0-.24-.12.56.56 0 0 1 .11-.21c.14-.12.12-.17-.04-.15a.9.9 0 0 1-.23 0c.04-.08.07-.11.1-.1a1.7 1.7 0 0 1 .78.25h.01V5.6a.46.46 0 0 0-.29-.34c.2-.04.34-.13.41-.28.07.03.14.08.22.15.02.02.04.02.04-.02.01-.04 0-.1-.05-.18.5-.27.99-.52 1.48-.76.17-.08.34-.24.5-.47Z" fill="#BB6920"/><path d="m5.52 4.23 1.3.37.02.03v.02l-.01.02-.19.2-1.17-.6v-.02c0-.03.02-.04.05-.02ZM7.3 5.23a.44.44 0 0 1-.4-.29c.29-.15.51-.1.68.17.01.03 0 .04-.02.04-.1.01-.18.04-.27.08ZM11.2 4.99c-.08.15-.22.24-.42.28-.1-.05-.18-.1-.24-.1-.14-.04-.14-.1-.03-.19.21-.16.44-.16.68 0Z" fill="#FFC02E"/><path d="M13.49 5.32c-.09.1-.17.26-.24.51a1.85 1.85 0 0 1-.79 1c-.22.17-.4.38-.55.62l-.27-.08c-.02 0-.03-.02-.02-.05.08-.16.16-.29.26-.38l.64-.58c.1-.1.2-.21.28-.34.16-.26.24-.6.35-.94 0-.03.02-.04.05-.02.1.05.19.14.29.26Z" fill="#00D89D"/><path d="M11.91 7.45c.15-.24.33-.45.55-.62a1.85 1.85 0 0 0 .78-1c.08-.25.16-.42.25-.51-.05.46-.2.87-.47 1.23-.18.24-.5.43-.67.58-.11.09-.17.18-.25.33-.02.03-.04.04-.06.03a.32.32 0 0 1-.13-.04Z" fill="#009669"/><path d="m7.62 5.87-.16-.26-.01-.03v-.03l.01-.03.03-.02a.4.4 0 0 0 .11-.08c.2 0 .34.1.44.32 0 .03 0 .04-.03.05l-.39.08ZM10.18 5.5h.23c.16-.02.18.03.04.15a.56.56 0 0 0-.1.21l-.35-.1c-.03 0-.04-.02-.03-.04.05-.13.12-.2.2-.22ZM9.87 6.1l.23.04h.02l.02.03a.07.07 0 0 1 0 .06c-.1.16-.14.33-.14.5a.55.55 0 0 1-.32-.19.14.14 0 0 1-.03-.07c-.02-.19.05-.3.22-.37ZM8.2 6.1c.1.1.16.22.15.36a.1.1 0 0 1-.03.08.83.83 0 0 1-.4.2 1.56 1.56 0 0 0-.16-.54v-.03l.02-.02.03-.01.38-.03Z" fill="#FFC02E"/><path d="m10.89 7.08.2.54-.66.06c-.25.04-.47.05-.66.05H7.98c-.34 0-.7-.16-1.04-.1V7.6a.1.1 0 0 1 0-.08l.15-.43c.13.05.26.06.38.04l.3-.06c.22-.03.44-.13.66-.3.1-.06.14-.19.13-.36 0-.03.01-.05.04-.05h.8c.04 0 .05.02.04.05-.03.17.04.31.2.42.2.13.37.2.52.23.18.02.33.05.44.08.05.02.15 0 .29-.06Z" fill="#FF8A26"/><path d="m7.09 7.1-.16.42a.1.1 0 0 0 0 .08l.01.02c-.03.02-.07.02-.1 0a.32.32 0 0 0-.2-.07H6.6l-.02-.02v-.05c.05-.19.12-.35.22-.48.02-.03.04-.03.06-.01.08.07.15.1.22.1Z" fill="#BB6920"/><path d="M11.26 7.6a.72.72 0 0 0-.18-.56.16.16 0 0 1 .05-.06c.02-.01.04 0 .06.02l.2.42a.12.12 0 0 1 .01.1c-.02.06-.06.08-.14.07Z" fill="#FF8A26"/><path d="M11.08 7.04c.13.14.2.32.18.55l-.17.03-.2-.54c.07 0 .13 0 .19-.04Z" fill="#BB6920"/><path d="M13.5 8.06a1.1 1.1 0 0 0-.25.12c-.1.06-.18.1-.24.11-.41.07-.82-.03-1.21-.3a.42.42 0 0 0-.11-.39c-.02-.02-.02-.03.01-.03.1 0 .17.02.23.06.27.18.49.3.65.36.12.05.23.05.34 0a3.92 3.92 0 0 0 .55-.26l.04.01a.1.1 0 0 1 .03.04v.04c.01.07 0 .15-.03.24Z" fill="#00D89D"/><path d="M5.22 8c-.1.1-.18.24-.24.37-.09.23-.17.45-.23.69-.01.05-.05.1-.08.14 0 .03 0 .04.02.05.02 0 .04 0 .06-.04a6 6 0 0 0 .37-.67c.06-.13.15-.25.28-.36l.5-.4a.98.98 0 0 1 .34-.17c.06-.02.06 0 .01.04l-.07.06a.1.1 0 0 0-.03.08.7.7 0 0 1-.18.49l-.58.69c-.08.1-.07.11.03.04.27-.18.5-.41.72-.7.01-.01.03-.01.04.01l.05.08c.02.03.02.06 0 .09-.16.38-.34.7-.54.96a.91.91 0 0 1-.54.36.7.7 0 0 1-.46-.07l-.45-.21c-.03-.02-.03-.03 0-.05.23-.1.38-.28.46-.55l.12-.45c.07-.27.2-.44.4-.49Z" fill="#fff"/><path d="M8.4 7.87c.34.26.66.29.95.08.55-.05 1.15-.07 1.69-.19a.8.8 0 0 1 .24-.03c.08.01.16 0 .24-.03a.08.08 0 0 1 .08 0c.09.06.12.18.09.36l-.53.07c-.11.02-.21-.01-.31.03a.62.62 0 0 1-.23.05c-.12 0-.31-.04-.45.07a.11.11 0 0 1-.07.02c-.39 0-.7-.04-1.07 0-.3.04-.63.04-1.02 0a2.05 2.05 0 0 0-.3-.02l-.32-.01a754.59 754.59 0 0 0-1.13-.19c-.05-.26.04-.41.25-.4h.22c.4.16.88.08 1.3.16.13.03.25.03.37.03Z" fill="#00D89D"/><path d="m5.9 7.78-.5.4a1.1 1.1 0 0 0-.28.36 6 6 0 0 1-.37.67c-.02.03-.04.05-.06.04-.02 0-.03-.02-.02-.05.03-.05.07-.09.08-.14.06-.24.14-.46.23-.69.06-.13.13-.26.24-.38.2-.13.44-.2.69-.2Z" fill="#FF8A26"/><path d="M9.35 7.95c-.29.2-.6.18-.95-.08l.95.08ZM13.5 8.06a.73.73 0 0 1-.56.43c-.36.07-.72-.01-1.08-.24-.06-.03-.08-.12-.06-.27.4.28.8.38 1.2.31a.75.75 0 0 0 .25-.11c.08-.05.17-.09.26-.12Z" fill="#009669"/><path d="M9.48 8.5H7.81a1.19 1.19 0 0 0-.35-.05l-.34-.02-.65-.1a.27.27 0 0 1-.15-.06c-.06-.05-.08-.1-.06-.19a781.9 781.9 0 0 1 1.13.18c.08.02.19.02.31.02l.31.01c.39.05.73.05 1.02.02.38-.05.68-.01 1.07-.01.03 0 .05 0 .07-.02.14-.1.33-.07.45-.07.08 0 .15-.02.23-.05.1-.04.2-.01.31-.03l.53-.07c.02.06.02.11 0 .16-.03.03-.06.04-.1.05a43.46 43.46 0 0 1-1.06.12c-.14.01-.25.07-.39.06a2.2 2.2 0 0 0-.66.04Z" fill="#009669"/><path d="M13 8.63c.1.37.26.6.47.69l.3.17v.04c-.24.14-.5.23-.76.28a.3.3 0 0 1-.14-.02c-.07-.02-.13 0-.2-.03a1.03 1.03 0 0 1-.4-.36c-.2-.27-.37-.57-.5-.88-.06-.15-.03-.18.09-.1.14.1.26.2.34.28a194.35 194.35 0 0 0 .53.42l.02-.02V9.04a1.28 1.28 0 0 1-.39-.38v-.01l.01-.01h.64Z" fill="#fff"/><path d="M11.1 12.22c.1-.14.16-.36.17-.64.02-.36.02-.72.02-1.07 0-.1.03-.2.04-.31a8.29 8.29 0 0 0-.05-1.54l-.02-.02h-.02l-.73-.04c.22-.11.45-.16.7-.16.02 0 .05 0 .07-.02a.28.28 0 0 1 .18-.03c.03 0 .04.02.04.05v1.47c0 .1-.03.2-.05.31v.73c0 .08-.05.12-.05.2.02.45-.06.88-.23 1.28 0 .03-.02.03-.03 0l-.04-.2Z" fill="#FF8A26"/><path d="M9.48 8.5v.1c-.54.06-1.1.07-1.65.03a.3.3 0 0 0-.02-.13h1.67Z" fill="#0B3129"/><path d="m7.4 8.6-.73.03c-.02 0-.04.01-.05.03a.12.12 0 0 0-.04.05.75.75 0 0 0 .01.4c-.01.16 0 .31.01.46.1.67.08 1.38.1 2.06 0 .2.05.39.17.58l-.03.13c-.02.11-.05.11-.1 0a2.6 2.6 0 0 1-.13-.6c-.1-.78-.05-1.56-.15-2.34a5.31 5.31 0 0 1 0-.87l.04-.02c.13.01.26 0 .4-.01.03-.01.11.01.24.06.09.03.17.04.27.04Z" fill="#FF8A26"/><path d="M13.47 9.32c-.21-.09-.37-.32-.46-.69.12-.12.2-.1.25.07.05.22.12.42.2.62Z" fill="#EBAC34"/><path d="m9.49 8.6.42-.03.3.06c.1.02.2.01.3-.03l.73.04h.02l.02.02.02.03a.1.1 0 0 1 0 .03 1 1 0 0 0 .04.37.22.22 0 0 0-.11.04.08.08 0 0 0-.03.04.1.1 0 0 0 0 .04l.01.19c-.05-.02-.53.55-.57.67 0 .02-.08 0-.1 0l-.43.01h-.2l-.02.02a.07.07 0 0 0 0 .06c.27.4.51.82.72 1.25.15.32.18.66.08 1.03 0 .03-.04.07-.09.1a.03.03 0 0 1-.02-.02v-.04a.69.69 0 0 0 .06-.42 5.48 5.48 0 0 0-.2-.77h-.02l-.02.05v.35c0 .02-.01.04-.03.04h-.02v-.03h-.04l-.02.01v.03c0 .18-.04.32-.13.44a.52.52 0 0 1-.32.2.6.6 0 0 1-.5-.14.6.6 0 0 1-.21-.48c0-.23.06-.43.2-.62.2-.25.47.06.24.25-.02.01-.03.04-.02.07.03.15.22.12.37.12a.1.1 0 0 0 .07-.04c.2-.2.17-.34.15-.66a.09.09 0 0 0-.03-.07c-.19-.12-.38-.2-.56-.21a.55.55 0 0 1-.12-.02.57.57 0 0 0-.12-.03c-.32-.03-.62-.01-.92.05-.18.04-.35.1-.5.2a.1.1 0 0 0-.02.03l-.02.04c-.05.29 0 .5.13.66l.07.04h.31l.06-.05a.17.17 0 0 0 .03-.06v-.04a.06.06 0 0 0-.02-.03c-.23-.17.02-.5.2-.27.2.23.27.51.21.83a.5.5 0 0 0-.27.34c-.18.13-.38.14-.59.03-.19-.11-.28-.3-.28-.58 0-.03 0-.05-.03-.05l-.03.01a.7.7 0 0 1-.04-.38v-.04h-.04a.09.09 0 0 0-.04.05c-.04.1-.07.29-.11.55-.01.1 0 .24.02.42l.06.43c-.2-.25-.28-.54-.23-.87.03-.24.11-.48.25-.71a10.2 10.2 0 0 1 .59-1c.02-.02.01-.05-.02-.06a.27.27 0 0 0-.21 0l-.45-.02a.1.1 0 0 1-.07-.04c-.14-.15-.7-.6-.65-.83.01-.05-.02-.08-.1-.09a.75.75 0 0 1-.02-.4l.04-.05a.09.09 0 0 1 .05-.03l.74-.03c.14.04.28.05.42.03.56.04 1.11.03 1.66-.03Z" fill="#fff"/><path d="M11.34 9.1c.02.35.02.72 0 1.1-.02.1-.05.2-.05.3 0 .36 0 .72-.02 1.08-.01.28-.07.5-.17.64a14.02 14.02 0 0 0-.35-.9l-.45-.92a.3.3 0 0 1 .15.15l.1.18c.09.11.17.26.26.45.04.09.07.08.09-.01.04-.26.06-.49.06-.69 0-.16-.07-.22-.06-.37 0-.04 0-.06-.02-.1-.03-.04-.03-.1 0-.13 0-.03.03-.04.05-.04.22.05.29-.26.28-.44l-.02-.2a.1.1 0 0 1 .01-.03c0-.02.01-.03.03-.04a.22.22 0 0 1 .1-.04ZM6.6 9.11c.08 0 .11.04.1.1.07.18.1.47.18.6.02.04.04.05.07.05h.13c.04 0 .05.02.04.06a3.31 3.31 0 0 0-.04 1.27l.02.01a.04.04 0 0 0 .05 0c.07-.04.1-.18.13-.24.1-.2.23-.36.37-.5 0 .06-.04.14-.1.24-.25.4-.48.9-.68 1.5a1.11 1.11 0 0 1-.18-.57 13.32 13.32 0 0 0-.03-1.07v-.54l-.06-.45c-.02-.15-.02-.3 0-.46Z" fill="#BB6920"/><path d="M7.87 10.09a.84.84 0 0 1-.22.37c-.14.14-.26.3-.37.5-.03.06-.06.2-.13.24l-.03.01H7.1l-.02-.02v-.03c-.07-.47-.05-.88.04-1.24 0-.04 0-.06-.04-.06h-.13c-.03 0-.05-.01-.07-.04a1.18 1.18 0 0 1-.15-.42c.08 0 .13.04.14.11 0 .04.02.06.05.07.1.04.33.35.43.45a.1.1 0 0 0 .07.04l.45.02ZM11.21 9.4c.01.18-.06.49-.28.44-.02 0-.04 0-.06.04-.02.04-.02.09.01.14.02.03.02.05.02.09 0 .15.05.21.06.37 0 .2-.02.43-.06.69-.02.1-.05.1-.09.01-.09-.19-.17-.34-.25-.45a3.32 3.32 0 0 1-.1-.18.3.3 0 0 0-.16-.15l-.19-.32.43-.01c.02 0 .04-.02.04-.05.06-.18.5-.66.63-.62Z" fill="#FF8A26"/><path d="M7.64 11.7c0 .12.02.23.04.35a.56.56 0 0 0 .65.47c.22-.03.44-.12.63-.26.02-.02.05-.02.07 0 .2.14.4.23.63.27.2.03.38-.04.54-.21.05-.06.09-.15.11-.27l.04-.31h.02c.02-.01.03-.03.03-.05v-.35c0-.02 0-.04.02-.04h.03a5.5 5.5 0 0 1 .2.77c.02.15 0 .29-.06.41l-.01.04.02.03c-.05.19-.27.33-.44.44a.38.38 0 0 0-.13.12.68.68 0 0 1-.08.1.15.15 0 0 0-.04.09 2.2 2.2 0 0 0 0 .43c0 .08-.05.16-.16.24h-.09c.1-.2.14-.36.14-.47a11.5 11.5 0 0 1 .02-.54l.12-.24a.07.07 0 0 0 0-.06l-.01-.02H9.9A1.4 1.4 0 0 1 9 12.4l-.03.01-.01.02a.1.1 0 0 1-.04.03c-.27.14-.56.2-.86.17-.06 0-.07.02-.03.07l.14.24a.6.6 0 0 1 .02.25 2 2 0 0 0 .09.7c-.07-.02-.1 0-.1.04a.73.73 0 0 1-.08-.38.8.8 0 0 0-.03-.29.45.45 0 0 0-.17-.22c-.15-.1-.28-.2-.4-.31l-.07-.43a1.49 1.49 0 0 1-.02-.42l.1-.55c.01-.03.03-.04.05-.06.01 0 .03 0 .03.02v.03a.7.7 0 0 0 .05.38Z" fill="#C99B67"/><path d="M8.84 11.95c-.03.14-.12.25-.27.34a.5.5 0 0 1 .27-.34Z" fill="#C99B67"/><path d="M9.66 13.98a.33.33 0 0 1-.1.13c-.02.02-.04 0-.05-.02 0-.03 0-.05.02-.08.2-.31.2-.62.04-.94a.11.11 0 0 0-.05-.06c-.05-.02-.07-.04-.07-.06v-.06a.14.14 0 0 0-.04-.06.18.18 0 0 0-.13-.05l-.1-.06a.14.14 0 0 0-.07-.03.95.95 0 0 0-.47.1c-.06.02-.1.07-.1.13 0 .03-.02.05-.05.06-.02.01-.05.05-.07.1-.16.33-.13.67.08 1.01-.08.01-.13-.02-.15-.1-.02-.05-.04-.09-.07-.1a2 2 0 0 1-.09-.7.6.6 0 0 0-.02-.25 2.84 2.84 0 0 0-.14-.24c-.04-.05-.03-.08.03-.07.3.03.59-.03.86-.17a.1.1 0 0 0 .05-.05c0-.01.02-.02.03 0 .28.17.58.25.9.22h.03l.02.03v.06l-.13.24a11.5 11.5 0 0 0-.01.54c0 .11-.05.27-.15.48Z" fill="#402E17"/><path d="m9.66 13.98.1-.01c-.04.13-.1.21-.2.24a.12.12 0 0 0-.05.04l-.25.31a.2.2 0 0 0-.04.08l-.02.07c-.01.03-.03.04-.05.02a.27.27 0 0 0-.2-.06.08.08 0 0 0-.05.03l-.02.02c-.02.03-.04.03-.06 0l-.26-.36-.06-.27c-.21-.34-.24-.68-.08-1 .02-.06.05-.1.07-.1.03-.02.04-.04.04-.07.01-.06.05-.1.11-.14.17-.07.32-.1.47-.09.03 0 .05.02.07.03l.1.06a.18.18 0 0 1 .13.05l.04.06v.06c0 .02.02.04.07.06.02.01.04.03.05.06.17.32.15.63-.04.94-.02.03-.03.05-.02.08 0 .03.03.04.05.02a.33.33 0 0 0 .1-.13Z" fill="#fff"/><path d="M8.28 13.88c.03.02.05.06.07.12.02.07.07.1.15.1l.06.26c-.15-.1-.28-.25-.38-.43 0-.04.03-.06.1-.05Z" fill="#FFF0B9"/><path d="M8.74 6.7V6.7l.01-.02h.02v-.01h.35c.04 0 .07.01.1.04.02.02.03.06.03.1v.02a.16.16 0 0 1-.04.1.13.13 0 0 1-.04.04.11.11 0 0 1-.05 0l-.34.01-.02-.01-.02-.03V6.7ZM8.74 7.19l.01-.04.03-.01h.36a.2.2 0 0 1 .12.04c.03.02.05.06.05.1v.09c0 .03-.02.07-.05.1a.2.2 0 0 1-.12.03h-.36l-.03-.01v-.3Z" fill="#FFC02E"/><path d="M6.74 8.99c-.03 0-.04 0-.05-.03v-.17c.01-.03.03-.04.06-.04h1.8c.05 0 .07.02.06.08v.05c0 .03.02.05.05.05h.57c.04 0 .07-.03.06-.08l.01-.06c.01-.03.03-.04.06-.04h1.82l.01.01v.02l.01.01v.17c0 .21-.39.66-.75.98H9.76l-.02-.04c-.06-.2-.37-.28-.42-.48l-.01-.04-.01-.02c-.22-.25-.44-.26-.66-.04a.14.14 0 0 0-.04.08c-.02.1-.25.22-.3.32-.03.1-.09.16-.15.18-.27.06-.5.07-.7.02-.1-.02-.17-.09-.2-.22-.03-.1-.44-.5-.51-.71Z" fill="#000001"/><path d="M8.58 13.31a5.8 5.8 0 0 1 .31 1.2l-.01.02h-.04v-.01a2.1 2.1 0 0 0-.23-.4c-.1-.14-.12-.27-.16-.4a.24.24 0 0 1 0-.13l.06-.27.01-.03h.05l.01.02ZM9.4 13.33l.02-.02a.04.04 0 0 1 .04 0l.02.02.06.27v.13c-.04.13-.07.26-.16.4a2.08 2.08 0 0 0-.23.4H9.1l-.01-.01v-.08c.03-.26.13-.63.3-1.11Z" fill="#402E17"/></svg>