<!-- by TradingView --><svg width="18" height="18" viewBox="0 0 18 18" xmlns="http://www.w3.org/2000/svg"><path fill="#FFA101" d="M0 0h18v18H0z"/><path d="M8.55 5.78a10.58 10.58 0 0 0 .08.02h-.35a23.27 23.27 0 0 1-.95.02h-.05c-.09 0-.15 0-.23.06-.5.39-.88.83-1.14 1.32-.01.02-.04.05-.07.05a1519.49 1519.49 0 0 0-1.5.2l.22.01a101.75 101.75 0 0 1 1.16.15 3.78 3.78 0 0 0-.01 2.79 402.84 402.84 0 0 1-1.37.17l1.5.18h.04l.02.03c.28.52.67.98 1.17 1.35a.2.2 0 0 0 .11.05l1.57.02a8.47 8.47 0 0 1-.56.04l-.08.01-.13.01-.8.06-3.63.33-.15.02a6.04 6.04 0 0 1-.39.05 5 5 0 0 0 .16 0l.55.02.29.02 2.3.1.91.03c.2 0 .44.02.73.04a98.47 98.47 0 0 0 1.46.06h.46a4.37 4.37 0 0 0 2.81-1.11A3.9 3.9 0 0 0 14 8.96a3.84 3.84 0 0 0-.75-2.22c-.4-.57-1-1.03-1.64-1.33a4.58 4.58 0 0 0-2.12-.4l-1.46.06-.22.01-.33.01-.42.02-.52.02-.4.02A383.16 383.16 0 0 1 3 5.3h.03l.34.03.23.02a1388.23 1388.23 0 0 1 4.32.38l.2.02.23.02.2.01ZM11.32 9c0 .83-.71 1.5-1.6 1.5-.88 0-1.6-.67-1.6-1.5s.72-1.5 1.6-1.5c.89 0 1.6.67 1.6 1.5Z" fill="#fff"/></svg>