<!-- by TradingView --><svg width="18" height="18" viewBox="0 0 18 18" xmlns="http://www.w3.org/2000/svg"><path fill="#F0F3FA" d="M0 0h18v18H0z"/><path d="M9.82 5.16H7.76l4.17 3.68 1.36-.98-3.47-2.7Z" fill="#D9D9D9"/><path d="m6.91 7.15.85-1.99 4.19 3.75v2.65l-1.57 1.28h-2.2L6.9 11.56H4.13l.7-3.62 2.08-.8Z" fill="#fff"/><path d="M13.3 8.02 11.93 9v2.45l-1.6 1.4h2.16l1.35-1.4-.54-3.43Z" fill="#8B8B8B"/><path d="M8.16 12.83H5.65l-1.52-1.37h2.8l1.23 1.37Z" fill="#D9D9D9"/><path fill-rule="evenodd" d="M12.49 13c.04 0 .08-.02.11-.05l1.36-1.39a.16.16 0 0 0 .04-.13l-.55-3.56c0-.05-.02-.1-.06-.13l-3.47-2.7a.16.16 0 0 0-.1-.04H7.74a.16.16 0 0 0-.17.1l-.78 1.92-2.02.77a.16.16 0 0 0-.1.12L4 11.35c-.02.16 0 .21.16.37l1.38 1.24c.02.03.06.04.1.04h6.84ZM12 9.02v2.46c0 .04-.02.1-.06.12l-1.19 1.11h1.63l1.29-1.3-.49-3.24c-.36.26-.46.37-1.18.85Zm-7.52 2.55h2.26l1.1 1.14h-2.1l-1.26-1.14Zm3.77 1.14h2.02l1.41-1.3V8.95l-3.9-3.53-.72 1.78a.16.16 0 0 1-.09.09l-2 .76-.63 3.23H6.8c.05 0 .09.01.12.05l1.33 1.37Zm3.62-4.03 1.24-.82L9.8 5.29H8.1l3.77 3.4Z"/></svg>