<!-- by TradingView --><svg width="18" height="18" viewBox="0 0 18 18" xmlns="http://www.w3.org/2000/svg"><path fill="#F0F3FA" d="M0 0h18v18H0z"/><path d="m10.75 3.31-.65-.14a5.95 5.95 0 0 0-6.78 7.4 5.89 5.89 0 0 0 1.28 2.32c.1.13.22.23.36.37.14.15.26.26.36.34.29.22.61.42.98.62a5.97 5.97 0 0 0 8.23-2.85 5.29 5.29 0 0 1-1.5 2.12 6.16 6.16 0 0 1-4.83 1.45A6 6 0 0 1 3.87 5.9 6.16 6.16 0 0 1 9 3c.53-.02 1.11.09 1.76.31Z" fill="#823B00"/><path d="m10.1 3.17-.02.03a.03.03 0 0 0 0 .03.03.03 0 0 0 .02.02c1.07.2 2 .67 2.8 1.4a5.8 5.8 0 0 1 1.95 3.74c.01.1.06.22.15.34.03.89-.13 1.77-.47 2.64a5.97 5.97 0 0 1-8.23 2.85c-.37-.2-.7-.4-.98-.62-.1-.08-.22-.19-.36-.34-.14-.14-.26-.24-.36-.37l-.2-.25a1.44 1.44 0 0 1-.2-.27 19.74 19.74 0 0 0 1.08 1.07c.16.14.39.28.55.43a7.49 7.49 0 0 0 2.34.84c.05 0 .08-.02.1-.09a5.9 5.9 0 0 0 3.85-.84 5.4 5.4 0 0 0 2.43-3.35c.2-.76.25-1.49.14-2.2a5.66 5.66 0 0 0-4.77-4.81 5.48 5.48 0 0 0-3.66.67A5.64 5.64 0 0 0 3.4 8.44l-.04.6c-.09-.12-.14-.05-.17.21v.25l.12 1.06a5.95 5.95 0 0 1 6.78-7.4Z" fill="#FE9500"/><path d="M10.75 3.31A5.95 5.95 0 0 1 15 8.73a.78.78 0 0 1-.15-.34 5.8 5.8 0 0 0-1.95-3.75 5.74 5.74 0 0 0-2.82-1.4.03.03 0 0 1 0-.04l.02-.03.65.14Z" fill="#FCAF36"/><path d="M8.26 14.62a5.61 5.61 0 0 1-4.9-5.58l.04-.6c0 .42.03.53.11.33A5.08 5.08 0 0 0 4.7 12.4a5.36 5.36 0 0 0 3.52 2.03 5.73 5.73 0 0 0 4.3-1.06 5.35 5.35 0 0 0 2.02-3.45 5.6 5.6 0 0 0-2.7-5.7c-.66-.41-1.4-.65-2.22-.71a4.17 4.17 0 0 0-.61-.04c-.57 0-1.24.06-1.71.33-.09.04-.2.1-.35.15a.2.2 0 0 1-.1.02c-.03-.01-.05 0-.07.03a.1.1 0 0 1-.07.04.68.68 0 0 0-.35.17.45.45 0 0 0-.1-.12 5.48 5.48 0 0 1 3.66-.67 5.66 5.66 0 1 1-1.66 11.2Z" fill="#823B00"/><path d="M9.62 3.5a.4.4 0 0 1-.25.09l-.02.01v.03c.65.03 1.26.17 1.84.43.17.07.33.17.48.3a97.5 97.5 0 0 1-.85-.35 4.81 4.81 0 0 0-1.45-.27A5.02 5.02 0 0 0 5.4 5.26a5.97 5.97 0 0 0-1.52 3.09l-.09.04c-.07.03-.12.07-.12.13-.1 1.08.07 2.08.54 3 .12.25.35.58.5.89a5.08 5.08 0 0 1-1.19-3.64 4.71 4.71 0 0 1 .95-2.8c.24-.37.57-.73.96-1.1.25-.22.63-.45.94-.66.1-.1.22-.15.35-.17A.1.1 0 0 0 6.78 4c.02-.03.04-.04.08-.03a.2.2 0 0 0 .1-.02l.34-.15A3.67 3.67 0 0 1 9 3.47c.24 0 .44.01.62.04Z" fill="#FE9500"/><path d="M14.54 9.92a.32.32 0 0 1-.13-.07 5.32 5.32 0 0 0-2.74-5.5 2.15 2.15 0 0 0-.48-.3 4.89 4.89 0 0 0-1.84-.42V3.6l.02-.01a.4.4 0 0 0 .25-.08c.82.06 1.56.3 2.22.7a5.6 5.6 0 0 1 2.7 5.7Z" fill="#FFC66D"/><path d="M11.67 4.36a5.32 5.32 0 0 1 .4 9.1l-.6.33a4.5 4.5 0 0 1-1.97.5 5.16 5.16 0 0 0 1.87-9.8 5.68 5.68 0 0 0-2.06-.56 5.33 5.33 0 0 0-4.79 2.55 5.42 5.42 0 0 1 2.04-2.13c.85-.47 1.8-.68 2.81-.6.63.03 1.11.12 1.45.26l.85.35Z" fill="#823B00"/><path d="M9.5 14.3c-.43.04-.86.01-1.29-.07a5.2 5.2 0 0 1-3.69-7.75 5.33 5.33 0 0 1 4.8-2.55c.7.07 1.42.23 2.05.56a5.16 5.16 0 0 1 2.16 7.26A5.23 5.23 0 0 1 9.5 14.3Z" fill="#FFE6AB"/><path d="M8.85 4c.14.04.28.04.42 0 .18 0 .35.04.52.12a7 7 0 0 1 .4.28c.15.1.27.22.35.35.5.74.5 1.5-.02 2.28a.56.56 0 0 1-.11.11c-.11.09-.2.2-.3.26-.77.5-1.83.38-2.43-.31a1.85 1.85 0 0 1-.42-1.6c.14-.69.6-1.18 1.37-1.46A.53.53 0 0 1 8.85 4Z" fill="#FE9500"/><path d="M8.63 4.03c-.77.28-1.23.77-1.37 1.46A1.85 1.85 0 0 0 10.1 7.4c.1-.06.2-.17.3-.26a.56.56 0 0 0 .12-.11c.52-.78.53-1.54.02-2.28-.09-.13-.2-.24-.34-.35a7 7 0 0 0-.41-.28c.61.25.99.7 1.13 1.38l.06.26c.02.09.02.17 0 .26-.05.28-.1.47-.14.57a1.97 1.97 0 0 1-.24.4h.01l.02.01h.01l.45-.25c.03-.01.04-.03.03-.06a.52.52 0 0 1-.02-.31.09.09 0 0 1 .05-.05c.2-.08.34-.13.45-.27.01-.02.01-.04-.01-.06l-.06-.05c-.08-.06-.07-.11 0-.16.12-.06.2-.04.25.06h-.12c-.06-.01-.06 0-.02.05.08.08.07.18-.05.3a.33.33 0 0 0-.12.07.8.8 0 0 0-.27.11.05.05 0 0 0-.02.05l.01.02.02.02c.15.07.32.09.5.06.03 0 .07 0 .1-.05.12-.08.12-.2 0-.36-.02-.05 0-.08.05-.1.18.27.13.48-.14.64a.08.08 0 0 0-.04.05c-.03.14-.04.32-.2.38-.2.07-.56.19-.75.34a13.93 13.93 0 0 0-.55.5c0 .02 0 .03-.03.03s-.04-.02-.03-.06l.01-.02c.28-.3.59-.54.93-.73l.43-.15c.06-.03.1-.07.1-.14v-.12c0-.06-.03-.08-.1-.06l-.52.2-.94.64c-.56.27-1.16.3-1.79.08l-.4-.24a.04.04 0 0 1-.02-.03l-.01-.02a.77.77 0 0 1-.26-.15l.03-.02a.03.03 0 0 0 .02-.02.03.03 0 0 0-.02-.03 1 1 0 0 1-.2-.18 1.65 1.65 0 0 1-.26-.9c-.02-1.09.48-1.74 1.5-1.98Z" fill="#AA7222"/><path d="M6.26 4.09c.04.03.07.07.1.12-.31.21-.7.44-.94.66A6.02 6.02 0 0 0 4.2 6.4c-.44.7-.65 1.54-.68 2.37-.08.2-.12.1-.1-.33a5.64 5.64 0 0 1 2.85-4.35Z" fill="#661A05"/><path d="M8.94 4.73a.66.66 0 0 0 0 .26c0 .02 0 .04.03.04h.07c.03 0 .04-.02.05-.04a.55.55 0 0 0 0-.27c.05-.03.1-.03.15 0 .02 0 .03.02.03.05v.22c0 .02.01.03.04.04.1.01.2.04.28.09.13.13.19.25.17.35 0 .05-.04.16-.12.33-.03.07.02.1.14.12l.16.51a.63.63 0 0 1-.6.3c-.04 0-.07.03-.07.08v.22a.04.04 0 0 1-.04.04.3.3 0 0 1-.16-.04.46.46 0 0 0 .04-.24.05.05 0 0 0-.05-.05h-.08c-.03 0-.04.03-.04.06v.26a.28.28 0 0 1-.17 0c-.02-.01-.03-.03-.03-.05v-.24c0-.02-.02-.04-.04-.04h-.44c-.02 0-.03 0-.03-.03l.03-.27c0-.02.02-.03.04-.03h.09c.02 0 .04-.02.04-.05V5.4c0-.03-.02-.04-.05-.04h-.11c-.04 0-.07-.03-.07-.07v-.2c0-.04.03-.06.08-.06h.42c.03 0 .04-.01.04-.04v-.24c0-.03.01-.04.04-.05.06 0 .11 0 .16.03Z" fill="#F0F3FA"/><path d="M9.09 4.72c.02.08.02.17 0 .27 0 .02-.03.04-.05.04h-.07c-.02 0-.04-.02-.04-.04a.66.66 0 0 1 .01-.26.3.3 0 0 1 .15-.01ZM9.64 5.8c.08-.17.12-.28.12-.33.02-.1-.04-.22-.17-.35.36.12.36.52.05.68Z" fill="#FFC66D"/><path d="M9.3 5.37h-.41a.05.05 0 0 0-.05.04v.25c0 .02.02.04.04.04l.41.01c.03 0 .05-.02.05-.05v-.24a.05.05 0 0 0-.04-.05Z" fill="#FE9500"/><path d="M11.78 5.85c.04.05.06.1.08.17-.06.02-.07.05-.04.1.1.16.1.28 0 .36l-.23-.28c.12-.12.13-.22.05-.3-.04-.04-.04-.06.02-.06l.12.01Z" fill="#FDC503"/><path d="M6.3 5.9c-.13.05-.17.12-.14.21-.04.24-.22.43.12.57h.03l.4-.1c.13-.03.13-.07.02-.14a2.79 2.79 0 0 0-.3-.12v-.04c.21.06.57.1.45.43-.02-.07-.08-.1-.18-.06a.7.7 0 0 0-.18.07c-.11.05-.13.13-.05.25.06.08.14.14.25.17l.62.18.7.56a.05.05 0 0 1 0 .07l-.02.01L7.9 8v.03l.03.02h.03c.05-.02.1-.01.12.02l-.1.07h-.13a.05.05 0 0 0-.04.01.05.05 0 0 0 0 .05c.07.13.17.23.29.3.02.01.03.03.03.05.01.07.07.11.17.13-.18.05-.3 0-.33-.13a.15.15 0 0 0-.04-.07c-.08-.09-.16-.14-.2-.25-.04-.15.02-.24.17-.29a.04.04 0 0 0 .02-.02.04.04 0 0 0 0-.04c-.32-.3-.69-.51-1.1-.64l-.44-.23a1.16 1.16 0 0 0-.33-.38c-.09-.06-.1-.15-.07-.27l.1-.36c.01-.06.03-.1.06-.12.05-.03.1-.02.17.02Z" fill="#8B5D27"/><path d="m6.44 6.28-.01.04a.96.96 0 0 1-.27-.2c-.03-.1.01-.17.15-.22.04.01.08.04.11.08.02.02.02.04-.01.06l-.1.05a.05.05 0 0 0-.02.04.05.05 0 0 0 .02.05l.13.1ZM9.38 6.05H8.9a.07.07 0 0 0-.07.07v.2c0 .04.03.08.07.08h.47c.04 0 .08-.03.08-.07v-.2a.07.07 0 0 0-.07-.08Z" fill="#FE9500"/><path d="m6.43 6.32.3.12c.11.07.1.11-.02.14l-.4.1h-.03c-.34-.13-.16-.33-.12-.57.1.1.18.17.27.21Z" fill="#FDC503"/><path d="m11.6 6.2.21.28c-.03.04-.07.06-.1.05l-.24-.26a.33.33 0 0 1 .12-.07Z" fill="#FFC66D"/><path d="m11.47 6.27.24.26a.86.86 0 0 1-.5-.06.05.05 0 0 1-.03-.04.05.05 0 0 1 .02-.05.8.8 0 0 1 .27-.11Z" fill="#FDC503"/><path d="m6.35 7.07.03.04v.02l-.04.01c-.05-.04-.1-.07-.13-.07-.27-.27-.59-.43-.95-.48-.06 0-.08.02-.06.08.08.2.24.35.47.41l.7.28c.07.03.11 0 .13-.06.12.06.22.14.3.25l-1.21-.4c-.09-.04-.1-.01-.06.06.1.16.3.29.56.37l-.35-.01a.05.05 0 0 0-.06.03.05.05 0 0 0 .03.06l.03.01.02.06.03.04c.1.07.22.14.33.18v.06h-.2A.1.1 0 0 1 5.87 8h.04a.02.02 0 0 0 .01-.03.02.02 0 0 0-.01-.02.77.77 0 0 1-.37-.31.05.05 0 0 1 0-.05.05.05 0 0 1 .02-.03l.1-.03c.02-.01.02-.03 0-.05-.22-.16-.28-.36-.41-.54a1.33 1.33 0 0 1-.18-.33.05.05 0 0 1 .02-.06h.03c.47.01.86.25 1.23.53Z" fill="#8B5D27"/><path d="m11.4 6.6.02.02a.03.03 0 0 1-.02.05.34.34 0 0 1-.16.03c-.05 0-.08-.04-.06-.11 0-.05.03-.06.07-.04l.15.06Z" fill="#FDC503"/><path d="m12.8 7.08-.54.18-.03-.05.14-.07c.3-.06.52-.22.66-.48a.05.05 0 0 0 0-.04L13 6.6h-.02c-.25.03-.5.13-.72.27l-.46.3c-.37.2-.72.48-1.06.85a.26.26 0 0 0-.07.19.32.32 0 0 0-.07.24c.01.15.11.28.21.45.04.07.05.15.04.24a.63.63 0 0 1-.43.52.1.1 0 0 0-.05.05l-.02.07c0-.04-.02-.05-.05-.03-.01-.06 0-.1.03-.13h.03c.22-.1.34-.29.36-.55a4.26 4.26 0 0 1-.2-.44.46.46 0 0 1 0-.37c.06-.15.13-.27.2-.36.2-.2.42-.4.69-.58.47-.31.77-.5.9-.57.23-.13.49-.2.75-.2a.06.06 0 0 1 .06.03.06.06 0 0 1 0 .06l-.32.44Z" fill="#8B5D27"/><path d="m6.21 7.07-.75-.24h-.02l-.01.04v.01l.01.01c.12.06.2.12.23.19a.66.66 0 0 1-.47-.41c-.02-.06 0-.09.06-.08.36.05.68.21.95.48Z" fill="#FEA567"/><path d="m6.88 6.7-.02.1-.34-.08a.7.7 0 0 1 .18-.07c.1-.03.16-.01.18.06ZM11.06 7.15l-.03-.05c.05-.07.03-.12-.05-.16v-.06l.52-.2c.06-.02.09 0 .09.06v.12c0 .07-.04.11-.1.14l-.43.15Z" fill="#FDC503"/><path d="m6.52 6.72.34.07c.15.06.55.2.63.33a.12.12 0 0 0-.06.1.1.1 0 0 1-.03.05l-.06.05-.62-.18a.43.43 0 0 1-.25-.17c-.08-.12-.06-.2.05-.25Z" fill="#FE9500"/><path d="M9.07 7.03a.19.19 0 0 1-.14.03V6.8c0-.03.02-.05.05-.06h.08c.03 0 .04.02.05.05 0 .08 0 .16-.04.24Z" fill="#FCAF36"/><path d="m12.37 7.14-.14.07-.42.14c-.03.01-.05 0-.06-.02l-.03-.06c.23-.16.4-.26.52-.29.16-.04.32-.1.47-.16.03 0 .05 0 .06.03l.01.02v.03l-.41.24ZM6.21 7.07c.03 0 .08.03.13.07l.16.16c-.02.07-.06.09-.14.06l-.69-.28c-.04-.07-.11-.13-.23-.19h-.01v-.05h.03l.75.23Z" fill="#FD6316"/><path d="M10.97 6.88v.06c0 .07-.04.12-.12.15-.03 0-.03.02 0 .03.05.03.1.02.18-.02l.03.05a3.37 3.37 0 0 0-.94.75c-.01.04 0 .06.03.06.02 0 .03-.01.03-.03.07.01.11.03.14.06l-.02.17c-.08 0-.11-.01-.09-.02-.06-.09-.18-.14-.33-.16a.17.17 0 0 1-.08-.09.09.09 0 0 1 0-.07c.03-.1.1-.2.23-.3l.94-.64Z" fill="#FE9500"/><path d="M10.98 6.94c.08.04.1.1.05.16-.07.04-.13.05-.18.02-.03-.01-.03-.02 0-.03.08-.03.13-.08.13-.15Z" fill="#AA7222"/><path d="M6.82 7.24c-.03 0-.03.05 0 .15.28.24.52.5.73.79.02.02.03.02.03-.01v-.03l.08.11c-.05-.03-.08-.02-.1.03l-.51-.53c-.1-.11-.18-.18-.25-.2a.77.77 0 0 0-.3-.25l-.16-.16h.03V7.1a.11.11 0 0 0-.02-.04c.04-.02.05-.04.03-.06l.44.23Z" fill="#FFC66D"/><path d="M12.8 7.08c-.02.17-.11.3-.27.38-.02.02-.03.03 0 .05.02.02.05.04.09.05l-.07.07c0-.03 0-.05-.03-.05h-.35c.03-.07-.03-.1-.18-.08a3.11 3.11 0 0 0-.27.03v-.05l.54-.22.54-.18Z" fill="#FD6316"/><path d="M7.55 7.16c.08.07.16.12.26.15l.01.02.02.03.4.24c.06.05.1.1.1.14.03.04.01.1-.04.14-.06.07-.14.14-.22.19-.03-.03-.07-.04-.12-.02h-.03l-.03-.02V8l.12-.04a.05.05 0 0 0 .03-.04.05.05 0 0 0-.02-.04l-.69-.56.06-.05a.1.1 0 0 0 .03-.06c0-.04.03-.07.06-.09l.06.04Z" fill="#FDC503"/><path d="M6.8 7.55c.07.02.15.09.25.2.02.06.02.1.02.15-.2 0-.45-.04-.73-.12-.05-.01-.09 0-.12.05-.01.03 0 .05.02.06h.02c.02.02.02.03 0 .05-.02.03-.07.03-.14.01-.11-.04-.22-.1-.33-.18a.1.1 0 0 1-.03-.04.44.44 0 0 1-.02-.06.9.9 0 0 1 .55.07c.05.02.08.02.12 0 .03-.02.03-.02 0-.03a.78.78 0 0 1-.32-.13.98.98 0 0 1-.56-.37c-.05-.07-.03-.1.06-.07l1.2.41Z" fill="#FD6316"/><path d="m12.23 7.2.03.06-.54.22v.05l.02.01.25-.04c.15-.02.21 0 .18.09l-.2.08-.63.18a.35.35 0 0 1-.2.05c.06-.06.08-.12.07-.17l.51-.46.03.06c0 .02.03.03.06.02l.42-.14Z" fill="#AA3B01"/><path d="M6.81 7.39a2 2 0 0 1 .77.66c.02.03.03.06 0 .09v.03c0 .03-.01.03-.03 0-.2-.28-.45-.54-.74-.78Z" fill="#AA7222"/><path d="M6.09 7.58c.08.06.19.1.32.13.03 0 .03.01 0 .03a.12.12 0 0 1-.12 0 .9.9 0 0 0-.55-.07h-.03a.05.05 0 0 1-.03-.07.05.05 0 0 1 .06-.03h.35Z" fill="#FEA567"/><path d="M12.62 7.56c.03.01.04.03.02.05-.12.18-.29.32-.5.4v.04h.02a.44.44 0 0 1 .2-.03c.03 0 .04.02.04.05v.03c0 .03-.01.04-.03.06l-.17.08c-.28.06-.56.1-.84.14-.1.01-.13.03-.1.06l-.17.08-.19-.2c-.01-.02-.02-.04 0-.06l.24-.36c.06 0 .13-.01.2-.05l-.02.02c0 .03 0 .04.03.04l.58-.12c.02 0 .04 0 .06.02l.1.08c.03.02.05.02.08.02a.5.5 0 0 0 .3-.24c.03 0 .05-.01.08-.04l.07-.07Z" fill="#CA3101"/><path d="M12.47 7.67a.5.5 0 0 1-.3.24c-.03 0-.05 0-.08-.02l-.1-.08a.08.08 0 0 0-.07-.02l-.57.12c-.02 0-.03 0-.03-.04l.02-.02.63-.18h.5Z" fill="#FD6316"/><path d="M11.2 7.73c.02.05 0 .11-.06.17l-.24.36c-.02.02-.01.04 0 .05l.19.21c.02.02.02.04.01.07.05.25.04.48-.02.72l-.19.28c-.16.17-.34.23-.54.19l.02-.07a.1.1 0 0 1 .05-.05c.25-.09.39-.26.43-.52a.35.35 0 0 0-.04-.24c-.1-.17-.2-.3-.2-.45-.02-.1 0-.18.06-.24.17-.2.35-.37.54-.48ZM7.55 8.28c.12.31-.12.51-.18.77 0 .04 0 .07.02.1s.03.02.03 0c0-.06.01-.1.03-.13-.03.05-.02.1 0 .11a.1.1 0 0 1 .05.06v.15c0-.04-.01-.07-.04-.08-.03-.01-.03 0-.03.02.06.24.25.32.47.44a.03.03 0 0 1 .02.03.03.03 0 0 1-.01.03.15.15 0 0 1-.08.02.83.83 0 0 1-.4-.12.99.99 0 0 1-.32-.4.17.17 0 0 0 0-.14c0-.03-.02-.07-.08-.12.05-.05.05-.1.01-.14V8.8c.07-.04.08-.08.03-.11h-.02a6.38 6.38 0 0 0-.9-.04c-.02-.02 0-.03.01-.04.32-.08.61-.02.93 0 .03-.13.1-.23.23-.3.02-.02.02-.04 0-.06l-.25-.35a.3.3 0 0 0-.02-.15l.5.53Z" fill="#F48243"/><path d="m7.07 7.9.26.35c.01.02.01.04-.01.05a.49.49 0 0 0-.23.31L7 8.45l.04-.01c.03-.01.02-.02-.02-.03l-.91-.15a.14.14 0 0 0 .01-.06c.28-.16.68-.03.98.01v-.03l-.01-.01-.97-.16v-.06c.07.02.12.02.15 0 .01-.03.01-.04-.01-.05l-.02-.01c-.02-.01-.03-.03-.02-.06.03-.05.07-.06.12-.05.28.08.52.12.73.12Z" fill="#CA3101"/><path d="m10.3 8.16.02-.17c.1.02.14.06.13.11-.03.2-.04.31-.03.37.01.02 0 .04-.01.06a.6.6 0 0 1-.19.15.07.07 0 0 0-.04.06V9a.15.15 0 0 1-.08.13.15.15 0 0 1-.15 0l-.1-.06L9.78 9a.1.1 0 0 1-.04-.05c-.07-.27-.1-.54-.07-.81 0-.03-.01-.05-.03-.07a.74.74 0 0 0-.88-.1.6.6 0 0 1-.3.05c.17-.08.33-.14.5-.17a.71.71 0 0 1 .38.01c.11.04.22.1.33.18a.09.09 0 0 1 .04.07v.42c0 .02.01.05.03.06l.14.1a.05.05 0 0 0 .07 0l.13-.16c.07-.1.21-.16.27-.29.02-.03 0-.06-.05-.09Z" fill="#AA7222"/><path d="M9.85 9.07c0 .03-.02.05-.03.05l-.16.04h-.07l-.1-.05c-.02 0-.04 0-.05.02-.02.03-.05.04-.1.03a.07.07 0 0 1-.06-.03.11.11 0 0 0-.03-.04c-.02 0-.04-.01-.07 0-.21.03-.42.02-.63-.04a.58.58 0 0 1 .2-.19l.26-.31c.03-.04.02-.05-.02-.04a.1.1 0 0 0-.06.04c-.02.02-.04.02-.07.01a.12.12 0 0 1-.04-.03c0-.04 0-.08.02-.1.01-.01.04-.02.08 0l.15.02c.17.02.19-.03.05-.14a.39.39 0 0 0-.17-.08.67.67 0 0 1-.2-.25c.32-.16.61-.12.89.1.02.02.03.04.03.07-.03.27 0 .54.07.8 0 .03.02.05.04.06l.07.06Z" fill="#F0F3FA"/><path d="M5.87 8a.1.1 0 0 0 .05.02c-.02 0-.03.01-.04.03 0 0 0 .02.02.03.05.06.13.1.22.12l-.01.06a.49.49 0 0 0-.16.06c-.02.01-.02.03 0 .05.08.11.2.15.35.1.03 0 .03-.02.02-.04a.06.06 0 0 0-.04-.02c-.01 0-.02-.02 0-.03l.02-.01c.28.04.51.07.7.08l.1.16c-.33-.02-.62-.08-.94 0-.02 0-.03.02-.02.04l.03.01a6.37 6.37 0 0 1 .9.03c.05.03.04.07-.03.1-.42 0-.8-.03-1.03.09-.03.01-.03.03 0 .05.06.06.13.1.22.1h.04l.03-.06c0-.04 0-.05.04-.05l.7-.04c.04.04.04.09 0 .14l-.65.05a.68.68 0 0 0-.31.1c-.04.02-.04.05 0 .07.1.06.17.08.22.08a.08.08 0 0 0 .06-.03c.13-.2.44-.18.65-.2.03-.01.05 0 .07.02l.03.03c.02.05.02.1 0 .14a.24.24 0 0 0-.1-.03v-.02C7 9.2 7 9.2 6.98 9.2c-.18.05-.36.09-.55.11-.04 0-.1.03-.15.06-.05.03-.1.03-.15-.01a.79.79 0 0 1-.25-.1c-.04-.02-.04-.05 0-.07l.14-.08c.02 0 .02-.02 0-.03l-.17-.13c-.02-.02-.02-.03 0-.05a.17.17 0 0 1 .07-.06c.04-.02.04-.03 0-.05-.1-.04-.15-.08-.16-.12a.05.05 0 0 1 .03-.06l.2-.06c.05-.01.05-.02 0-.04a.6.6 0 0 1-.23-.15.06.06 0 0 1 .04-.1.3.3 0 0 0 .1-.03c.03-.01.03-.02 0-.04a.45.45 0 0 1-.17-.13c-.01-.02-.01-.04.02-.05A.27.27 0 0 1 5.87 8Z" fill="#8F2B05"/><path d="M8.76 7.98c.02.08.09.16.19.25-.22.02-.44 0-.66-.06.06-.08.12-.13.17-.14a.6.6 0 0 0 .3-.05ZM7.98 8.14c.03.09.09.18.17.26a.06.06 0 0 0 .08 0c.02-.03.02-.05.01-.09l.12.03c.03.15.02.26-.06.34-.1-.02-.16-.06-.17-.13a.06.06 0 0 0-.03-.05.73.73 0 0 1-.3-.3.05.05 0 0 1 .02-.06h.16Z" fill="#FE9500"/><path d="M8.29 8.17c.22.06.44.08.66.06.06.01.12.04.17.08.14.1.12.16-.06.14a1.3 1.3 0 0 1-.14-.03l-.08.01c-.02.02-.03.06-.02.1-.1.1-.12.2-.07.33a.58.58 0 0 0-.2.19h-.1a1 1 0 0 1 .12-.62c.01-.02 0-.04-.01-.06-.04-.04-.11-.05-.2-.03l-.12-.03c0-.06.02-.1.05-.14ZM7.66 8.25v.39c0 .03 0 .05-.02.07l-.2.31a.26.26 0 0 0-.02.12c0 .03-.01.04-.03.01a.11.11 0 0 1-.02-.1c.06-.26.3-.46.18-.77.03-.05.06-.06.1-.03Z" fill="#AA7222"/><path d="m12.2 8.24.2.06a.03.03 0 0 1 .02.04v.01c-.07.1-.16.15-.27.15-.01-.08-.08-.12-.2-.11l-.68.05c-.04-.03 0-.05.09-.06.28-.03.56-.08.84-.14ZM6.1 8.26l.92.15c.04 0 .05.02.02.03H7a6.87 6.87 0 0 1-.73-.06l.01.03c.02 0 .03 0 .04.02.01.02 0 .04-.02.04-.15.05-.27.01-.36-.1-.01-.02-.01-.04.01-.05.05-.03.1-.05.16-.06Z" fill="#FD6316"/><path d="M3.88 8.35a5.2 5.2 0 0 0 4.33 5.88l-.02.05a5.26 5.26 0 0 1-4.4-5.88l.09-.05Z" fill="#FEA567"/><path d="M12.15 8.5c-.03 0-.05 0-.07.04l-.08.03c-.29-.01-.59 0-.9.02.01-.03 0-.05-.01-.07l.18-.08.68-.05c.12-.01.19.03.2.1Z" fill="#8F2B05"/><path d="M3.78 8.4c-.03.63-.05 1.02-.04 1.18a5.23 5.23 0 0 0 .48 1.7 5.26 5.26 0 0 0 3.97 3h.03c.03.02.04.04.03.07l-.03.08A5.36 5.36 0 0 1 4.7 12.4c-.15-.31-.38-.64-.5-.88a5.37 5.37 0 0 1-.54-3.01c0-.06.05-.1.12-.13Z" fill="#FFC66D"/><path d="m12.08 8.54.26.08c.05.02.07.05.07.09 0 .02-.02.04-.04.05a.5.5 0 0 0-.17.07c-.03.02-.03.04 0 .04l.1.02a.05.05 0 0 1 .05.05.05.05 0 0 1-.04.05l-.19.07c-.03.02-.03.03 0 .05l.2.12a.03.03 0 0 1 .01.03v.01l-.01.01-.29.1c-.02.1-.08.14-.18.1-.08-.02-.18-.13-.26-.13a1.17 1.17 0 0 1-.37-.1.06.06 0 0 0-.07 0l-.07.06c.06-.24.07-.47.02-.72.31-.02.61-.03.9-.02.02 0 .05 0 .08-.03Z" fill="#CA3101"/><path d="M3.37 9.04a5.61 5.61 0 0 0 4.9 5.58c-.02.07-.05.1-.1.08a7.5 7.5 0 0 1-1.55-.43c-.43-.18-.7-.32-.79-.4-.16-.15-.4-.29-.55-.43a36.64 36.64 0 0 1-1.07-1.07c-.4-.53-.7-1.14-.9-1.8a23.49 23.49 0 0 1-.1-1.32c.02-.26.07-.33.16-.21Z" fill="#FCAF36"/><path d="M7.04 8.8v.08l-.7.04c-.03 0-.05.01-.04.05 0 .02-.01.04-.03.05a.06.06 0 0 1-.04.01.38.38 0 0 1-.23-.1c-.02-.02-.02-.04.01-.05.24-.12.6-.08 1.03-.08Z" fill="#FD6316"/><path d="M7.03 9.02c.06.05.08.09.08.12l-.03-.03A.08.08 0 0 0 7 9.08c-.21.03-.52.02-.65.2a.08.08 0 0 1-.06.04.45.45 0 0 1-.22-.08c-.04-.02-.04-.05 0-.07.09-.06.2-.1.31-.1l.64-.05Z" fill="#CA3101"/><path d="M8.55 9.05c.2.06.42.07.63.03l.07.01.03.04c.01.02.03.03.06.03.05 0 .08 0 .1-.03 0-.02.03-.03.05-.02l.1.04c.02.01.05.01.07 0l.16-.03.08.12H8.4a.25.25 0 0 0 .03-.13c0-.02 0-.04.02-.06h.1Z" fill="#8B5D27"/><path d="M8.43 9.11c0 .05 0 .1-.03.14l-.14-.03c.1 0 .17-.05.17-.1Z" fill="#A8A29A"/><path d="M11.5 9.27c.16.04.3.04.31 0 .01-.04-.11-.1-.28-.14-.16-.04-.3-.04-.31 0-.01.03.11.1.28.14Z" fill="#8F2B05"/><path d="m7 9.25-.44.12a.11.11 0 0 0-.05.03l-.08.1a.07.07 0 0 1-.07.02.53.53 0 0 1-.23-.1v-.05c.05.04.1.04.15.01l.15-.06c.19-.02.37-.06.55-.11.02-.01.03 0 .03.02v.02Z" fill="#CA3101"/><path d="M8.06 9.22c-.07.12-.1.3-.1.54-.11.3-.22.6-.31.89-.03.09-.09.14-.14.22v-.05l-.02-.02h-.03a.1.1 0 0 0-.03 0H7.4l-.13.07c-.03.02-.04.01-.05-.01l-.03-.16.37-.8c.01-.02.03-.03.05-.03.13.02.2 0 .22-.07.03 0 .06 0 .08-.02a.03.03 0 0 0 0-.05v-.01c-.23-.12-.42-.2-.48-.44 0-.03 0-.03.03-.02.03.01.04.04.03.08.08.14.2.24.36.28.03.01.04 0 .04-.03v-.03a.12.12 0 0 1-.03-.03v-.04a.6.6 0 0 0 .03-.24c0-.03 0-.04.04-.04l.13.01Z" fill="#8F2B05"/><path d="m8.26 9.22.14.03h1.87c.03 0 .04 0 .05.03.02.11.02.22 0 .34-.02.02-.03.07-.02.13l.02.32-.2.03a.23.23 0 0 0-.16 0h-.21l-.18-.01a.26.26 0 0 0-.16 0l-.2.01c-.08-.02-.14-.02-.17.01l-.16-.02h-.04c-.07-.02-.13-.01-.17.01a.4.4 0 0 0-.17 0 .3.3 0 0 0-.17 0 .36.36 0 0 0-.2 0 .46.46 0 0 0-.16-.01v-.33c-.01-.24.02-.42.09-.54h.2Z" fill="#0061E8"/><path d="m12.03 9.39.12.1c.04.02.03.04 0 .04l-.26.05c-.05.01-.06.03 0 .06l.14.12a.06.06 0 0 1 .01.07.06.06 0 0 1-.06.03c-.1 0-.2-.01-.28-.05l-.08-.01.01-.02v-.03a5.7 5.7 0 0 0-.43-.27c-.05-.03-.08-.01-.1.03 0 0-.02 0-.03-.02-.02-.01-.04-.02-.05 0H11c-.02.03-.01.04 0 .06l.5.4c.1.06.08.09-.03.08l-.05-.02a3.08 3.08 0 0 0-.53-.42l.19-.28.07-.06a.06.06 0 0 1 .07 0c.12.05.24.08.37.1.08 0 .18.11.26.14.1.03.16 0 .18-.1Z" fill="#8F2B05"/><path d="M7 9.25c.05 0 .1.02.11.03.08.18.2.3.33.4.09.07.22.1.4.12-.03.06-.1.09-.23.07-.02 0-.04 0-.05.03l-.37.8-.16.06a.08.08 0 0 1-.07 0 .07.07 0 0 1-.04-.06l.02-.04.02.02.02-.02.01-.06c0-.03.02-.05.04-.07a2.47 2.47 0 0 0 .48-.72.03.03 0 0 0-.02-.01l-.05-.01h-.03a.06.06 0 0 0-.03.02l-.47.72-.19.05H6.7a.06.06 0 0 1-.03-.04v-.03l.02-.13c.01-.02 0-.04-.03-.04a.2.2 0 0 0-.12.02.06.06 0 0 1-.06 0 .06.06 0 0 1-.03-.05c0-.07.02-.11.08-.14a.3.3 0 0 0 .14.04c.03 0 .05-.01.06-.03.12-.2.27-.36.46-.48l.02-.03v-.03l-.01-.03a.02.02 0 0 0-.01-.01h-.01l-.63.54-.2-.03a.05.05 0 0 1-.04-.04c-.02-.05.01-.09.08-.12.1.08.19.07.26-.02a.12.12 0 0 0 .03-.05v-.04a82.13 82.13 0 0 1 .4-.33V9.5a.03.03 0 0 0-.02-.02.03.03 0 0 0-.02 0l-.63.4c-.26 0-.33-.05-.23-.14.29.11.33-.08.52-.17a4.02 4.02 0 0 1 .38-.19v-.03l-.02-.02h-.03l-.55.2a.06.06 0 0 0-.03.03c-.06.12-.11.14-.15.07-.02-.05-.1-.08-.22-.09a.05.05 0 0 1-.04-.03.05.05 0 0 1 0-.05.15.15 0 0 1 .1-.04c.06.05.14.08.23.1.03 0 .05 0 .07-.02l.08-.1a.11.11 0 0 1 .05-.03L7 9.25Z" fill="#661A05"/><path d="M5.12 9.35a.69.69 0 0 0-.07.51c.02.1.07.18.14.24.08.07.11.06.1-.05l-.02-.18c0-.04.03-.08.08-.1a.06.06 0 0 0 .03-.05v-.04c.04-.11.1-.18.2-.22h.05c.02.01.03.02.03.04.02.04.01.06-.02.07a.39.39 0 0 0-.16.1.23.23 0 0 0-.05.17c0 .1 0 .19.03.28.08.05.15.02.22-.1a.08.08 0 0 1 .06-.03.08.08 0 0 1 .06.03c.02.01.02.04.01.1-.03-.01-.05 0-.05.02-.05.16-.14.35-.28.56l-.07.18c-.07.16-.35.13-.5.1l-.13-.15c-.08-.08-.06-.1.05-.1a.8.8 0 0 0 .19 0c.05 0 .09-.02.1-.05.03-.03.02-.05 0-.06-.24-.08-.4-.12-.5-.33.13-.04.26-.01.4.08l.08.02c.04 0 .06-.02.08-.04a.1.1 0 0 0 .07 0 .05.05 0 0 0 .02-.06l-.02-.02c-.42-.2-.34-.56-.26-.94 0-.03.02-.04.04-.05.05 0 .08.02.09.07Z" fill="#0A260A"/><path d="m5.12 9.35.2.37c0 .02.02.03.04 0l.02-.04v.04c0 .03-.01.04-.03.05-.05.02-.08.06-.08.1l.02.18c.01.1-.02.12-.1.05a.42.42 0 0 1-.14-.24.69.69 0 0 1 .07-.51Z" fill="#019158"/><path d="M11.62 9.8c-.02.01-.04.02-.06 0a3.88 3.88 0 0 1-.45-.29c.01-.04.04-.06.09-.03a5.7 5.7 0 0 1 .43.3v.02ZM6.38 9.95c.01 0 .02-.03.02-.08l.63-.39a.03.03 0 0 1 .04.02l.01.02v.02a81.78 81.78 0 0 0-.4.3l-.01.04c0 .02-.02.04-.03.05-.07.1-.16.1-.26.02Z" fill="#AA3B01"/><path d="m11.1 9.51.46.3.06-.01.08.01.14.16c.1.09.09.13-.05.14a.6.6 0 0 1-.12-.02c-.03-.01-.03 0-.02.03l.1.16c.03.06.01.08-.06.06l-.25-.06c-.01-.16-.33-.44-.45-.54a.09.09 0 0 0-.03-.01h-.03a.03.03 0 0 0-.04 0v.05a3.9 3.9 0 0 0 .5.5h.05c.07.07.1.15.1.24 0 .02-.02.04-.05.05-.07.02-.14 0-.23-.09l-.41-.65-.03-.02-.05-.02a.04.04 0 0 0-.05.02v.03c.12.23.27.45.46.65.08.06.1.13.08.22a.07.07 0 0 1-.05.05.07.07 0 0 1-.07-.01.43.43 0 0 0-.14-.08c-.03 0-.04 0-.04.04v.13c0 .02-.02.04-.04.04-.06 0-.1-.04-.13-.1a.07.07 0 0 0-.08-.03c-.02 0-.03.02-.03.04 0 .08 0 .13-.04.16 0 .02-.02.02-.04 0l-.12-.1c-.02 0-.03 0-.03.02l-.05.15-.08-.02v-.93l-.02-.32c.03-.02.05 0 .05.03.2.04.38-.02.54-.19a3.08 3.08 0 0 1 .53.42l.05.02c.11 0 .12-.02.04-.09l-.5-.4c-.02 0-.03-.02-.01-.04l.02-.01c.01-.02.03-.01.05 0 .01.02.02.03.04.02Z" fill="#661A05"/><path d="M5.64 9.57c.03.21-.02.4-.18.55l-.03-.28c0-.06.01-.12.05-.16.05-.05.1-.09.16-.11Z" fill="#019158"/><path d="M6.52 10.17c0-.03 0-.04.02-.03l.62-.54a.02.02 0 0 1 .02 0l.02.04v.03l-.02.03c-.19.12-.34.28-.46.48a.06.06 0 0 1-.06.03.3.3 0 0 1-.14-.04ZM7.27 9.7a.01.01 0 0 1 .01 0h.01c.01 0 .02.01.02.03a.1.1 0 0 1 0 .04v.04l-.03.04-.37.4a.15.15 0 0 1-.08.04c-.03 0-.05 0-.07-.02a.01.01 0 0 1 0-.01l.51-.57Z" fill="#AA3B01"/><path d="M11.44 10.28a.07.07 0 0 1-.04 0h-.04a3.89 3.89 0 0 1-.47-.52v-.02l.02-.02h.05l.03.02c.12.1.44.38.45.54Z" fill="#8F2B05"/><path d="M7.97 10.09v1.02c-.25.12-.49.3-.73.55.12-.25.3-.43.54-.54.02-.02.03-.03.02-.06a.2.2 0 0 0-.05-.07c-.01-.01-.02-.03 0-.05v-.03c.01-.02 0-.04-.01-.05a.1.1 0 0 0-.03-.01h-.02l-.01.01a.18.18 0 0 1-.11.1c-.03 0-.05 0-.06-.03v-.06c.05-.08.1-.13.14-.22.09-.3.2-.6.31-.89l.01.33Z" fill="#661A05"/><path d="M5.18 10.35a.11.11 0 0 1-.08.04c-.02 0-.04 0-.07-.02-.15-.09-.28-.12-.4-.08a1.14 1.14 0 0 1-.1-.4c0-.13.03-.13.1-.03.1.18.19.2.38.32.08.05.11.11.17.17Z" fill="#019158"/><path d="M11.26 10.48a.13.13 0 0 1-.08.01c-.19-.2-.34-.42-.46-.65V9.8a.04.04 0 0 1 .05-.01l.05.02.03.02.41.65Z" fill="#AA3B01"/><path d="M14.41 9.85c.03.03.08.05.13.07a5.35 5.35 0 0 1-3.35 4.2c-.9.33-1.99.49-2.97.3l.03-.07c.01-.03 0-.05-.03-.06l-.03-.01.02-.05c.43.08.86.1 1.29.07a4.5 4.5 0 0 0 1.96-.5l.62-.34a5.18 5.18 0 0 0 2.33-3.61Z" fill="#FE9500"/><path d="M8.33 10.1v1.74c0 .03.01.04.04.04h.08c-.13.03-.24.03-.32-.02V10.1a.36.36 0 0 1 .2 0Z" fill="#FD0411"/><path d="M9.57 10.09v1.77h-.15v-1.77c.04-.01.1-.02.15 0Z" fill="#F0F3FA"/><path d="M10.12 10.1v1.76c0 .02-.02.03-.06.04-.04 0-.08 0-.1-.03V10.1a.23.23 0 0 1 .16 0Z" fill="#FD0411"/><path d="m10.32 11 .03.28-.02.1c.03.18.01.46-.2.48V10.1l.19-.03V11Z" fill="#FCDBDB"/><path d="M8.13 10.1v1.76c-.09 0-.13-.03-.14-.09l-.02-.35v-1.33h.16Z" fill="#F0F3FA"/><path d="M8.5 10.1v1.77l-.01.01h-.04a.21.21 0 0 1-.08 0c-.03 0-.04-.01-.04-.04V10.1a.3.3 0 0 1 .18 0Z" fill="#FCDBDB"/><path d="M8.67 10.1v1.76c-.05.05-.1.05-.17 0v-1.75a.4.4 0 0 1 .17 0Z" fill="#FD0411"/><path d="M8.84 10.1v1.76h-.17V10.1c.04-.02.1-.03.17 0Z" fill="#FCDBDB"/><path d="M8.88 10.09v1.78a.1.1 0 0 1-.04 0v-1.78h.04Z" fill="#F48243"/><path d="M9.04 10.11v1.8l-.16-.04V10.1l.16.02Z" fill="#FD0411"/><path d="M9.22 10.1v1.85c0 .02-.01.04-.04.05-.1.03-.14 0-.14-.09v-1.8c.03-.03.1-.03.18 0Z" fill="#F0F3FA"/><path d="m9.41 10.1.01 1.76c-.03.04-.07.05-.13.05-.02 0-.03-.01-.04-.04l-.02-.74-.01-1.03h.2ZM9.75 10.1v1.77h.02c0 .03-.04.04-.1.05a.3.3 0 0 1-.1-.06v-1.77h.18Z" fill="#FD0411"/><path d="M9.77 10.1c-.02.11-.02.28 0 .5.05.36.04.78-.02 1.27V10.1h.02Z" fill="#FEA567"/><path d="M9.96 10.1v1.77a.45.45 0 0 1-.19 0h-.02c.06-.49.07-.91.03-1.27a1.87 1.87 0 0 1 0-.5h.18Z" fill="#F0F3FA"/><path d="M5.81 10.11c.03.15 0 .29-.1.42-.08.1-.07.13-.03.25v.03s0 .02-.02.02l-.14.12a.04.04 0 0 0 .02.05h.02c.08-.02.13-.06.15-.1l.16-.32a.08.08 0 0 1 .09-.03c.04.01.06.05.06.1 0 .18 0 .37-.03.57.02.04.04.09.04.15 0 .03.02.05.04.06.09.08.18.12.28.15l.05.07c0 .06.05.1.16.14.05.01.06.03.02.07-.1.08-.2.1-.34.06-.02-.01-.03-.03-.03-.05 0-.06 0-.1-.03-.1l.04-.02a.02.02 0 0 0 .01-.03v-.03a.05.05 0 0 0-.03-.03.96.96 0 0 1-.33-.28c0-.1-.04-.16-.12-.16-.03 0-.04.01-.04.04v.05a.1.1 0 0 0-.06 0c-.02.02-.03.04-.01.06 0 .02.03.04.08.07.02 0 .02.02 0 .04 0 .01 0 .02-.02.02-.17 0-.33.02-.48.08a.09.09 0 0 1-.07 0l-.1-.05c.1-.2-.12-.3-.25-.4-.03-.01-.03-.03 0-.05l.12-.1c.14.03.42.06.49-.1a5.91 5.91 0 0 1 .4-.77Z" fill="#07572C"/><path d="M12.41 10.8c-.03-.02-.05-.07-.06-.13.07-.08.14-.11.2-.1.03 0 .05 0 .05.03 0 .14-.07.2-.19.2ZM6.35 11.58a.8.8 0 0 1-.28-.15.08.08 0 0 1-.04-.06.38.38 0 0 0-.04-.15c.08-.1.14-.21.16-.33a.5.5 0 0 1 .1-.22c.03-.04.06-.05.1-.03.02 0 .03.02.03.05v.28c0 .03.01.04.04.02.15-.11.27-.15.36-.13a.02.02 0 0 1 .02.03h-.01a.08.08 0 0 0-.04.05.3.3 0 0 0-.02.05.92.92 0 0 1-.38.59Z" fill="#0A260A"/><path d="M12.35 10.67c.01.06.03.1.06.13-.05.05-.06.1-.02.13a.19.19 0 0 1-.08.08c-.02.01-.03.03 0 .04.02.03.04.03.08.03a.6.6 0 0 0 .17-.07v.23c-.05-.05-.12-.05-.21 0a.04.04 0 0 0-.02.03v.02l.01.01.11.04c0 .04.03.06.12.04l-.22.03c-.02 0-.03.01-.03.03v.03l-.22.16c-.05.04-.05.06.02.05.06 0 .12-.03.19-.1l.03.05-.2.12a.26.26 0 0 0-.14.05c-.02-.02-.05-.02-.08 0-.08.02-.12 0-.18-.04v-.08c0-.01-.02-.02-.05-.02a.2.2 0 0 0-.14.06.07.07 0 0 0-.02.07l.01.1c.01.02 0 .03-.02.04-.05.03-.1.01-.12-.04.05.01.08-.06.09-.2a.04.04 0 0 1 .02-.04l.2-.07c.09 0 .14-.03.16-.07.04-.12.1-.21.06-.28-.02-.04-.04-.04-.07 0l-.05.06c-.01.02-.03.02-.06.01a.12.12 0 0 1-.05-.03.12.12 0 0 1-.04-.07c-.01-.03 0-.05.02-.08l.36-.46a.04.04 0 0 1 .07.02c.02.02 0 .05-.02.07a.05.05 0 0 0-.02.05v.03a.04.04 0 0 0 .04.02h.01l.02-.01.21-.17Z" fill="#696868"/><path d="M10.4 11.02c-.04.04-.04.07 0 .09.25.13.43.31.55.54-.2-.03-.4-.16-.6-.37l-.03-.28.08.02Z" fill="#F48243"/><path d="m5.44 11.32-.12.02a.43.43 0 0 1-.2-.16.07.07 0 0 1 .06-.1h.31a.1.1 0 0 1 .1.05.1.1 0 0 1-.02.1.27.27 0 0 1-.13.09Z" fill="#0A1805"/><path d="M9.42 11.86h.16a.3.3 0 0 0 .1.07l-.13.36c-.03.03-.1.06-.24.08a.62.62 0 0 1-.55-.1.11.11 0 0 1-.04-.06.21.21 0 0 0-.1-.13c-.07-.04-.1-.12-.13-.2l.01-.01c.06.04.12.04.17 0h.17a.1.1 0 0 0 .04 0l.16.04c0 .1.04.12.14.09.03-.01.04-.03.04-.05v-.82l.03.74c0 .03.02.04.05.04.05 0 .1-.01.12-.05ZM7.96 11.11v.3l-.54.47a.03.03 0 0 0-.01.03.04.04 0 0 0 .03.03l.36.08.01.01c0 .03-.01.04-.04.05-.15.02-.3.04-.43.09l-.55-.06c-.01 0-.03 0-.05.03 0-.01 0-.03-.02-.04v-.03c.01-.02.03-.03.05-.03h.4c.05 0 .06-.02.05-.06 0-.04-.05-.06-.12-.08a.1.1 0 0 0-.03 0 .63.63 0 0 1-.34-.03h.3c.04 0 .06-.02.07-.04a2.7 2.7 0 0 1 .86-.72Z" fill="#AA3B01"/><path d="M12.55 11.24a.2.2 0 0 1-.1.1.21.21 0 0 1-.1-.04.03.03 0 0 1-.02-.03.04.04 0 0 1 .02-.03c.1-.05.16-.05.2 0Z" fill="#0A260A"/><path d="M5.87 11.38c-.07 0-.12-.03-.15-.07a.1.1 0 0 1-.01-.05c0-.03.01-.04.04-.04.08 0 .12.06.12.16Z" fill="#FFE6AB"/><path d="M11.71 11.58v-.31c.01.02.02.03.04.03.03.01.05 0 .06-.01l.05-.07c.03-.03.05-.03.07 0 .04.08-.02.17-.06.29-.02.04-.07.07-.16.07Z" fill="#A8A29A"/><path d="M5.72 11.3c.03.05.08.07.15.08.09.12.2.2.33.28l.03.03v.05h-.01a.08.08 0 0 0-.04.03.2.2 0 0 1-.07.02c-.1-.14-.22-.17-.38-.09-.03.02-.03.04-.02.06.03.04.07.06.13.06.04 0 .04.02.02.05a.31.31 0 0 1-.2.08.6.6 0 0 1-.58.03.05.05 0 0 1-.03-.05.05.05 0 0 1 .03-.05l.13-.07.01-.02v-.02a.04.04 0 0 0-.02-.03l-.3-.12c-.03-.02-.03-.03 0-.06s.09-.04.16-.03l.09.05h.07c.15-.06.31-.09.48-.08.01 0 .02 0 .03-.02.01-.02 0-.03-.01-.04-.05-.03-.07-.05-.08-.07-.02-.02-.01-.04.01-.06a.1.1 0 0 1 .07 0Z" fill="#0A1805"/><path d="M10.95 11.65c.01.05.05.11.1.18l-.04.25a1.4 1.4 0 0 1-.5.1 1.3 1.3 0 0 1-.58-.2c-.02-.02-.07-.03-.14-.03l-.12-.03c.06 0 .1-.02.1-.05h.19c.02.02.06.03.1.03a.07.07 0 0 0 0 .06c0 .03.03.04.06.05.21.04.44.02.67-.08.02-.01.03-.03.01-.05-.1-.17-.24-.3-.42-.4-.04 0-.05-.03-.05-.1l.02-.1c.2.21.4.34.6.37Z" fill="#AA3B01"/><path d="M10.06 11.9c.04 0 .06-.02.06-.04.22-.02.24-.3.21-.48 0 .07.01.1.05.1.18.1.32.23.42.4.02.02.01.04-.01.05-.23.1-.46.12-.67.08a.08.08 0 0 1-.06-.05.07.07 0 0 1 0-.06Z" fill="#661A05"/><path d="m12.34 11.63-.03-.04a.14.14 0 0 0 .06-.06c.01-.03 0-.05-.03-.05l-.03-.01.01-.03c0-.02 0-.03.03-.03l.22-.03c.04.13-.04.22-.23.25ZM7.97 11.42c0 .14 0 .26.02.35 0 .06.05.1.14.1.08.04.2.04.32 0-.01.01 0 .02.04.01.02.08.06.16.13.2.05.03.08.07.1.13 0 .02.02.04.04.05.18.13.36.16.55.11.02.04.04.06.07.06l.58.57c.07.05.1.12.08.2 0 .03 0 .05.03.06.02.01.02.02.02.04a.03.03 0 0 1-.02.02c-.08.03-.15 0-.2-.08l-.55-.78a.07.07 0 0 0-.06-.03h-.03a.03.03 0 0 0-.03.04v.02l.49.83c0 .02.02.03.04.03.03.02.06.01.07 0v.16c0 .13-.03.14-.1.03 0-.02-.05-.04-.12-.04-.03 0-.05.01-.06.04l-.03.15c0 .03-.02.04-.05.03-.1-.02-.1-.14-.17-.2-.04-.02-.06-.01-.07.03-.04.18-.09.25-.15.2l-.09-.2a.04.04 0 0 0-.04-.03.04.04 0 0 0-.04.03l-.07.14a.07.07 0 0 1-.06.03h-.04a.06.06 0 0 1-.03-.06l-.02-.14c0-.08-.03-.09-.08-.03a.3.3 0 0 1-.16.11c-.02.01-.04 0-.05-.02-.01-.03 0-.05.01-.08a1 1 0 0 0 .22-.27c.14-.27.3-.51.45-.72.01-.03 0-.05-.02-.06a.23.23 0 0 0-.05 0c-.02-.01-.04 0-.07.03l-.16.23c-.12.22-.27.39-.43.57l-.14.07a.05.05 0 0 1-.06 0 .05.05 0 0 1-.01-.05l.04-.2c0-.04 0-.05-.03-.05h-.17c-.03 0-.04-.02-.04-.05.06-.36.25-.63.57-.81l.02-.02.02-.04c0-.05 0-.1-.02-.14a.07.07 0 0 0-.06-.03h-.17a.1.1 0 0 0-.07.02.99.99 0 0 1-.86.19 1.87 1.87 0 0 1 .43-.09c.03 0 .04-.02.04-.05v-.01l-.37-.08h-.02a.04.04 0 0 1-.01-.05l.01-.01.55-.46Z" fill="#382A27"/><path d="M12.31 11.47h.03c.03.01.04.03.03.06a.14.14 0 0 1-.06.06c-.07.06-.13.1-.19.1-.07 0-.07-.02-.02-.06l.21-.16Z" fill="#A8A29A"/><path d="M6.73 11.87c.08.04.2.05.34.03a.1.1 0 0 1 .03 0c.07.02.11.04.12.08.01.04 0 .06-.05.06h-.4c-.02 0-.04.01-.04.03l-.01.03c-.05-.09-.13-.12-.25-.09-.16.05-.32.05-.46.02l.1-.24a.2.2 0 0 0 .07-.02c.03 0 .04.04.03.1 0 .02 0 .04.03.05.13.04.24.02.34-.06.04-.04.03-.06-.02-.07-.11-.03-.17-.08-.16-.14.18-.07.28-.04.3.09 0 .03 0 .07.03.13Z" fill="#FDC503"/><path d="m6.1 11.8-.1.23a.56.56 0 0 1-.36.01c.02-.02.02-.05.02-.09.08 0 .15-.03.2-.08.02-.03.02-.04-.02-.05-.06 0-.1-.02-.13-.06-.01-.02 0-.04.02-.06.16-.08.29-.05.38.1Z" fill="#07572C"/><path d="M11.74 11.76a.3.3 0 0 0-.1.05c-.02.01-.02.03 0 .05.13.1.26.12.4.04.03-.02.03-.04.01-.05L12 11.8a.26.26 0 0 1 .14-.05c-.01.04 0 .07.04.1.03.04.06.07.06.09.02.06 0 .1-.05.14-.06-.04-.11-.05-.15-.04-.04 0-.04.02-.01.04l.12.08v.07l-.28.15a.11.11 0 0 1-.07.02.52.52 0 0 0-.27.02h-.01l-.01-.01v-.03a.4.4 0 0 1 .2-.13.03.03 0 0 0 .01-.02v-.03l-.02-.02c.04-.02.1-.02.16 0l.04.01.04-.02.02-.03a.04.04 0 0 0 0-.03.04.04 0 0 0-.02-.03c-.2-.09-.36-.09-.5 0h-.43l.05-.25c.07.05.18.07.34.06.03.05.07.07.12.04.02 0 .03-.02.02-.05l-.01-.09c0-.03 0-.05.02-.07a.2.2 0 0 1 .14-.06c.03 0 .05 0 .06.02v.08Z" fill="#FE9500"/><path d="m9.67 11.92.12.03c-.18.07-.11.21 0 .3.23.16.37.3.47.57a.1.1 0 0 1-.02.1l-.16-.3a.07.07 0 0 0-.06-.04c-.13-.01-.35-.21-.47-.3l.12-.35Z" fill="#A8A29A"/><path d="m6.72 12.1.02.04c.24.21.39.4.45.59.02.04.03.14.05.29 0 .07-.02.1-.09.07l-.06-.03a.16.16 0 0 1-.1-.16c.02-.22-.07-.4-.28-.56 0-.06-.06-.08-.15-.09-.05-.1-.11-.12-.19-.05-.01.01-.03 0-.05-.02-.03-.06-.07-.1-.12-.1-.06 0-.1.03-.11.07-.06.06-.08.12-.07.18a.57.57 0 0 1-.2.33.07.07 0 0 1-.11-.04l-.03-.14c0-.03-.02-.04-.05-.04H5.5c-.03 0-.05-.02-.05-.05a.47.47 0 0 1 .18-.35c.1.04.23.04.36 0 .15.02.3.02.47-.03.12-.03.2 0 .25.09ZM11.7 12.18c0 .03-.02.04-.05.04-.03 0-.04 0-.05-.03-.02-.08-.07-.11-.16-.1.14-.1.3-.1.5-.01h.02V12.15l-.02.03-.04.02h-.04c-.07-.03-.12-.03-.16-.01Z" fill="#0A1805"/><path d="m6.32 12.18-.04.08a.11.11 0 0 1-.1.03.11.11 0 0 1-.1-.08l.01-.06c.01-.04.05-.07.1-.07.06 0 .1.04.13.1Z" fill="#FE9500"/><path d="M11.01 12.08h.43c.09 0 .14.03.16.1 0 .03.02.04.05.04.03 0 .04-.01.05-.04a.1.1 0 0 1 .02.02.03.03 0 0 1 0 .03v.01l-.02.01a.4.4 0 0 0-.2.13.02.02 0 0 0 0 .03.02.02 0 0 0 .03 0 .52.52 0 0 1 .27-.01c.03 0 .05 0 .07-.02l.29-.15v.04l-.03.04a1 1 0 0 1-.27.15.1.1 0 0 1-.07 0 .15.15 0 0 0-.07-.01c-.05 0-.05.03-.02.05l.03.02c.01.02.02.03.01.05a.55.55 0 0 0-.03.25c0 .06-.02.09-.07.09-.23 0-.68-.13-.7-.43l.03-.06c.09-.07.19-.1.3-.09.02 0 .05 0 .06-.02l.1-.13.01-.02a.02.02 0 0 0 0-.02h-.02l-.9.05c.2-.02.37-.05.5-.1Z" fill="#484645"/><path d="M6.09 12.15v.06a.11.11 0 0 0 .08.08.12.12 0 0 0 .11-.03.17.17 0 0 0 .04-.08c.02.03.04.03.05.02l-.02.12c0 .03 0 .05.02.05.17.06.23.02.19-.12.1 0 .15.03.15.09l-.16.1a.19.19 0 0 1-.17.03l-.36-.14c-.01-.06.01-.12.07-.18Z" fill="#AA7222"/><path d="M6.56 12.25c.04.14-.02.18-.19.12-.02 0-.03-.02-.02-.05l.02-.12c.08-.07.14-.05.19.05Z" fill="#FE9500"/><path d="M8.59 12.2a.06.06 0 0 1 .08.03l.01.02c.01.02 0 .04-.01.05-.2.09-.34.22-.45.39a.1.1 0 0 1-.07.04l-.04.01c-.03 0-.04 0-.03-.04.1-.2.26-.36.5-.5Z" fill="#A8A29A"/><path d="M9.55 12.29c.12.08.34.28.47.3.03 0 .05 0 .06.03l.16.3c.02.03.03.05.02.08 0 .03-.02.04-.04.04a.77.77 0 0 1-.23-.1l-.52-.56a.06.06 0 0 0-.06-.02c-.05.01-.06.04-.03.07-.03 0-.05-.02-.07-.06.13-.02.21-.05.24-.08ZM8.85 12.38a.06.06 0 0 0-.09 0l-.45.48a.06.06 0 0 0 0 .08c.02.03.06.03.09 0l.45-.47a.06.06 0 0 0 0-.09Z" fill="#696868"/><path d="m9.99 12.95-.03.05-.58-.57c-.03-.03-.02-.06.03-.07a.06.06 0 0 1 .06.02l.52.57Z" fill="#A8A29A"/><path d="M8.38 13.5c0-.11-.02-.18-.06-.22.16-.18.3-.35.43-.57l.16-.23c.03-.03.05-.04.07-.04l.05.01c.03.01.03.03.02.06-.16.2-.3.45-.45.72a1 1 0 0 1-.22.27ZM9.87 13.24h-.04l-.02.03v.08c-.02.01-.05.02-.08 0a.06.06 0 0 1-.04-.03l-.49-.83a.04.04 0 0 1 0-.04.03.03 0 0 1 .03-.02h.03a.08.08 0 0 1 .06.03l.55.78Z" fill="#696868"/><path d="M9.29 13.14c.07.14.15.25.18.24.03-.02 0-.15-.08-.29-.07-.14-.15-.25-.18-.23-.03 0 0 .14.08.28Z" fill="#484645"/></svg>