<!-- by TradingView --><svg width="18" height="18" viewBox="0 0 18 18" xmlns="http://www.w3.org/2000/svg"><path fill="#A5A883" d="M0 0h18v18H0z"/><path d="M13.44 7.94a6.81 6.81 0 0 1-.2-.41c0-.06 0-.06.04-.01a3.96 3.96 0 0 1 .13.2.6.6 0 0 0 .1.11l.01.02.02-.01c0-.15 0-.32-.05-.5a3.73 3.73 0 0 0-.43-1.07c.02-.02.04-.02.07-.02l.12.15a3.3 3.3 0 0 1 .16.28 2.97 2.97 0 0 0-.2-.52A5.5 5.5 0 0 0 11.9 4.5a2.44 2.44 0 0 0-.15-.1l-.14-.1a.48.48 0 0 1 .2-.01l.1.03h.01a3.4 3.4 0 0 0-.34-.22c-.14-.07-.3-.12-.47-.15-.03 0-.04-.02-.02-.05h.01a.17.17 0 0 1 .1-.03.85.85 0 0 1 .38.1l.01-.01v-.01a.6.6 0 0 0-.18-.14.91.91 0 0 0-.25-.08.7.7 0 0 0-.25 0 .38.38 0 0 0-.2.09h-.04a.71.71 0 0 0-.3-.27l-.12-.08a.48.48 0 0 1-.1-.08c-.06-.08-.08-.16-.04-.26v-.01a.59.59 0 0 0-.15.05.33.33 0 0 0-.12.1.17.17 0 0 0-.03.19l.05.08.07.08v.02h-.04c-.27-.11-.5-.17-.67-.19-.1 0-.2-.02-.3-.04a2.45 2.45 0 0 0-.9.06v.02c.2.01.37.07.53.17a2.7 2.7 0 0 0-1.2.06 1.66 1.66 0 0 0-.39.16v.01l.03.01v.04a.1.1 0 0 1-.05.04c-.16.04-.3.09-.4.14a1.92 1.92 0 0 0-.39.23.3.3 0 0 1 .1-.04h.08c.02.01.02.03.02.04 0 .02 0 .03-.02.04h-.02l-.35.2a1.63 1.63 0 0 0-.31.26.41.41 0 0 1 .07-.06.12.12 0 0 1 .08-.02c.01 0 .02 0 .02.02 0 .03 0 .06-.02.08l-.4.41c-.27.32-.5.66-.68 1.03-.07.13-.11.27-.14.4 0 .03 0 .03.02.02l.01-.03c.06-.1.11-.18.17-.25.02-.03.04-.03.07-.02.03 0 .02.04 0 .11a.51.51 0 0 1-.05.07l-.11.23a4.83 4.83 0 0 0-.23 2.04c0 .02 0 .02.01 0a4.8 4.8 0 0 1 .19-.87c.02-.08.06-.15.1-.22 0-.01.01-.02.03-.01.01 0 .02 0 .02.02.01.02.01.05 0 .07-.11.35-.19.65-.21.92-.04.34 0 .65.1.92l.08.12c.01.02.02.01.01 0a1.01 1.01 0 0 1-.05-.52.13.13 0 0 1 .04-.07h.04l.02.03c0 .14 0 .26.02.36.03.12.07.23.13.32.01.03.02.03.02 0-.02-.1-.02-.2-.01-.29 0-.01 0-.02.02-.03h.06v.03c.02.18.05.34.1.48.06.16.15.3.26.4.03.01.03.01.02-.02a1.1 1.1 0 0 1-.1-.44v-.02l.03-.02c.04 0 .05.01.06.04a1.28 1.28 0 0 0 .55.86v-.02a.57.57 0 0 1-.13-.24v-.03c.02-.03.04-.04.07-.04l.02.02c.1.2.24.35.43.44.02 0 .02 0 .01-.01a.4.4 0 0 1-.06-.2c0-.03.01-.04.05-.03.02 0 .03.02.03.03.06.1.11.18.17.25.07.07.16.13.3.2v-.02a2.94 2.94 0 0 0-.08-.13.33.33 0 0 1-.04-.12c0-.02 0-.03.02-.04h.04l.04.04.02.03.14.2c.06.09.12.14.17.16a15.12 15.12 0 0 1 .27.1.96.96 0 0 1-.1-.18c-.01-.03 0-.05.02-.07.02-.02.03-.02.05 0l.14.21c.05.08.1.13.18.16a3.54 3.54 0 0 0 .53.21l.08.03a9.03 9.03 0 0 0 .73.95 419.52 419.52 0 0 1 .5-.63.6.6 0 0 0 .09-.18l.11-.12a.78.78 0 0 0 .17-.1c.19-.04.36-.1.51-.18l.13-.08c.1-.09.18-.2.24-.31a.05.05 0 0 1 .05-.03c.02 0 .03.01.03.04v.03a.8.8 0 0 1-.13.22v.01l.2-.1c.14-.04.25-.1.33-.18a2.4 2.4 0 0 0 .2-.28h.05l.01.04a.3.3 0 0 1-.07.16c-.04.06-.03.06.02.02a1.32 1.32 0 0 0 .36-.47h.01v.01a.83.83 0 0 1-.1.25v.01h.01c.1-.1.18-.21.23-.33l.02-.02h.06v.1a.78.78 0 0 1-.1.2c-.02.03-.02.04.01.01.1-.07.2-.16.3-.27a1 1 0 0 0 .16-.25l.1-.27a.1.1 0 0 1 .02-.04.04.04 0 0 1 .04-.02l.02.02v.02a.8.8 0 0 1-.11.41c-.02.03-.02.03 0 .01a.78.78 0 0 0 .17-.22c.08-.1.13-.23.16-.37.02-.1.04-.23.04-.4.03-.02.05-.02.07-.02l.02.02c.01.07.02.14.01.21 0 .02 0 .02.01 0a6.15 6.15 0 0 0 .09-.5l.02.05v.13c0 .14-.04.28-.08.41-.01.03 0 .04.02.02l.01-.02a1 1 0 0 0 .16-.57v-.16l-.01-.14a2.34 2.34 0 0 0-.05-.22v-.05l.02-.03h.04c.03.02.05.05.05.09l.06.19v.1h.02a.71.71 0 0 0 .06-.24c.03-.3 0-.58-.11-.83 0-.02.01-.04.03-.04h.05l.07.13a1.61 1.61 0 0 1 .02 1.02.4.4 0 0 1-.11.16l-.01.03c0 .18-.04.35-.11.52a.47.47 0 0 1-.1.15c-.05.05-.1.07-.16.05l-.02.02c-.08.28-.23.52-.45.7v.02c.04.09.06.16.07.22.01.08 0 .15-.02.23v.02l.3.4A8.23 8.23 0 0 1 14 14h-.12l-.15-.49a8.37 8.37 0 0 0-1.2-2.18h-.03a3.27 3.27 0 0 0-.19.2 5.8 5.8 0 0 1-1.85 1.26c-.15.07-.24.02-.3-.15-.04-.13-.09-.27-.15-.4-.03-.07-.07-.1-.13-.11h-.03v.01a8.32 8.32 0 0 1-.33.41l-.28.36.01.01c.1.02.17.05.23.1.07.06.1.13.1.23V14h-.12a32.66 32.66 0 0 1-.01-.81c-.03-.08-.1-.13-.2-.15a.66.66 0 0 0-.26.01.2.2 0 0 0-.15.12.37.37 0 0 0-.02.16V14H8.7v-.78c0-.05.03-.1.06-.16.06-.07.13-.11.21-.13.01 0 .02 0 .01-.02a21.5 21.5 0 0 0-.55-.7c-.05-.07-.1-.1-.15-.07-.05.01-.09.06-.12.14l-.12.33a.43.43 0 0 1-.09.16.16.16 0 0 1-.16.05 6.4 6.4 0 0 1-2.33-1.47 5.74 5.74 0 0 1-.26.36A7.9 7.9 0 0 0 4.14 14H4a8.11 8.11 0 0 1 1.4-2.8.34.34 0 0 1-.02-.22.84.84 0 0 1 .08-.22v-.03c-.18-.14-.3-.3-.4-.5a.12.12 0 0 0-.02-.04L5 10.17a.17.17 0 0 1-.05-.04.59.59 0 0 1-.06-.1l-.02-.01c-.07.02-.12 0-.16-.06a1.05 1.05 0 0 1-.18-.38 1.85 1.85 0 0 1-.06-.42v-.01c0-.01 0-.02-.02-.03l-.02-.01a.11.11 0 0 1-.03-.02.2.2 0 0 1-.03-.07 1.63 1.63 0 0 1-.09-.6c.01-.3.03-.55.07-.77a3.79 3.79 0 0 1 .17-.75h-.01c-.09-.02-.1-.14-.01-.36a5.24 5.24 0 0 1 1.03-1.58c-.03 0-.05 0-.07-.02v-.07c.05-.07.11-.14.2-.21l.24-.16c.01 0 .02-.01.02-.03 0-.05.03-.1.08-.15a1.75 1.75 0 0 1 .7-.38.28.28 0 0 0 .1-.06c.08-.09.19-.15.32-.2a3.25 3.25 0 0 1 .59-.17.9.9 0 0 1 .47-.2 3.27 3.27 0 0 1 1.48.13l.01-.01c0-.19.1-.31.28-.38l.16-.04h.17l.03.04-.01.03-.02.03a.39.39 0 0 0-.07.1c-.01.05 0 .09.03.12.04.05.1.08.18.12l.03-.01a.45.45 0 0 1 .25-.18c.1-.04.2-.04.32-.01.03 0 .05.02.04.06v.01c0 .03-.03.04-.05.04a.68.68 0 0 0-.25 0 .37.37 0 0 0-.2.14v.03l.13.13h.04c.1-.05.23-.07.37-.05.26.03.47.13.61.3l.02.03-.02.04-.04.02v.01c.2.1.37.23.5.38.02.03.02.05 0 .08-.01.01-.04.02-.08 0h-.04a.38.38 0 0 0-.08-.07c-.02 0-.02 0 0 .01 0 .02.03.04.05.05a5.35 5.35 0 0 1 1.44 1.98c.05.1.08.22.1.34 0 .05-.02.1-.07.13v.02c.08.23.14.48.17.75v.19c-.01.08-.05.12-.1.13-.04 0-.08-.02-.12-.06Z" fill="#1E0618"/><path d="M11.8 4.3a.5.5 0 0 0-.23-.07c-.05 0-.05 0 0 .03a4.65 4.65 0 0 1 1.65 1.9 2.97 2.97 0 0 1 .18.52 4.1 4.1 0 0 1-.15-.28.85.85 0 0 0-.12-.15l-.15-.18h-.01l.1.2c0 .05.03.1.06.16l.07.12c.12.25.22.52.29.8.04.17.06.34.05.49l-.01.01c-.01 0-.02 0-.01-.02l-.17-.52-.11-.28.02.06s.01 0 0 0a6.25 6.25 0 0 0-.57-1.21 15.3 15.3 0 0 1 .16.3v-.02A4.6 4.6 0 0 0 12.09 5v.01l.14.17a1.11 1.11 0 0 0-.26-.21 2.52 2.52 0 0 0-.3-.26 9.16 9.16 0 0 1-.61-.39 12.7 12.7 0 0 0-.5-.23.76.76 0 0 0-.37-.03.94.94 0 0 0-.41.06l-.12.03c-.03.02-.04 0 0-.02a.41.41 0 0 1 .12-.09.8.8 0 0 1 .15-.04c.01 0 .02-.01 0-.02a1.14 1.14 0 0 0-.36-.16c.09 0 .17.02.25.05a.4.4 0 0 1-.1-.03H9.7v.01l.35.14a.16.16 0 0 0 .05-.06l-.41-.19a4.26 4.26 0 0 0-1.22-.27H8.3c-.01 0-.02-.01-.01-.02v-.03c.26-.02.47-.02.64 0l.3.04a2.75 2.75 0 0 1 .7.2l.33.08c.02 0 .02 0 0-.01l-.04-.03a9.47 9.47 0 0 0-.28-.2.19.19 0 0 1-.06-.09.9.9 0 0 1-.03-.13.33.33 0 0 1 .12-.1.59.59 0 0 1 .15-.06v.02c-.04.1-.02.18.04.26l.1.08a1.87 1.87 0 0 0 .16.1c.11.06.2.14.26.24l.02.01h.02a.38.38 0 0 1 .2-.1.7.7 0 0 1 .26 0c.08.03.16.05.24.1a.6.6 0 0 1 .18.13v.02h-.02a.85.85 0 0 0-.38-.1c-.03 0-.06 0-.09.02l-.01.01c-.02.03 0 .04.02.05.17.03.33.08.47.15a3.45 3.45 0 0 1 .34.23l-.12-.04Z" fill="#FEFEEA"/><path d="M9.84 3.28v.02c0 .05.02.09.03.11.01.05.04.08.06.1a9.4 9.4 0 0 1 .32.23 2.09 2.09 0 0 1-.33-.1v-.01a1.22 1.22 0 0 1-.06-.08.39.39 0 0 1-.05-.08.17.17 0 0 1 .03-.19Z" fill="#BF9670"/><path d="M8.28 3.42v.03l.01.02h.18a2.2 2.2 0 0 1 .27.1c.08.03.14.07.2.13v.01h-.01a1.77 1.77 0 0 0-.29-.1 5.08 5.08 0 0 0 .43.19h-.01c-.2-.01-.38-.06-.51-.13a.95.95 0 0 0-.53-.17v-.01l.26-.07Z" fill="#7A605A"/><path d="m8.9 3.53.18.09a8.58 8.58 0 0 1 1.02.31c0 .02-.03.04-.05.06a.43.43 0 0 0-.24-.12 1.13 1.13 0 0 0-.25-.06v.02c.14.03.26.08.36.15V4a.8.8 0 0 0-.15.04.41.41 0 0 0-.13.1c-.03.02-.02.03.01.01l.12-.03c.24-.04.47 0 .69.1l.23.12.32.16a8.22 8.22 0 0 0 .64.37l.16.1.14.14a5.35 5.35 0 0 0 .43.46c.06.07.19.25.38.54l.35.76c.06.11.11.22.15.34.01.03.04.06.09.1l.17.52a.6.6 0 0 1-.11-.11 1.97 1.97 0 0 1-.13-.2c-.03-.05-.05-.05-.04 0l.05.13a6.81 6.81 0 0 0 .14.32c-.02-.02-.04-.02-.05-.01-.02 0-.03.02-.03.04a.5.5 0 0 0-.1-.18c-.04-.05-.05-.04-.03.03.13.36.19.73.16 1.12a1.27 1.27 0 0 1-.06-.2.12.12 0 0 0-.05-.08h-.04a.03.03 0 0 0-.02.03v.05a2.68 2.68 0 0 0 .05.22.94.94 0 0 1 0 .18c-.03-.04-.05-.04-.07 0v.07l-.02.2a4.65 4.65 0 0 1-.03-.16h-.02a6.15 6.15 0 0 1-.08.5l-.01-.22-.02-.02c-.02 0-.04 0-.07.02l-.06-.35-.01-.01h-.04v.02c.04.17.05.32.04.46-.02.14-.06.36-.13.65a.78.78 0 0 1-.16.22c-.03.02-.03.02-.01 0a.8.8 0 0 0 .12-.42.03.03 0 0 0-.03-.04c-.01 0-.03 0-.04.02a2.09 2.09 0 0 1-.58.84c-.03.02-.03.01-.01-.02a.78.78 0 0 0 .1-.2.15.15 0 0 0 0-.1h-.06a.04.04 0 0 0-.02.02c-.05.12-.13.23-.23.33h-.01c-.01 0-.01 0 0 0 .04-.08.08-.17.1-.26h-.01a1.32 1.32 0 0 1-.36.46c-.05.04-.06.04-.02-.02a.3.3 0 0 0 .07-.16v-.03c-.02-.02-.04-.02-.06 0a2.38 2.38 0 0 1-.2.28l.06-.34c0-.01 0-.02-.02-.02l-.03.03a.83.83 0 0 1-.04.14 16.32 16.32 0 0 1-.3.36l-.2.1c-.01.01-.01 0 0 0 .05-.08.1-.15.13-.23v-.03c0-.03-.01-.04-.03-.04-.02 0-.04.01-.05.03a1.5 1.5 0 0 1-.24.31c-.01-.02-.01-.04.02-.08v-.01h-.05a.95.95 0 0 1-.2.17c-.03.02-.04.01-.02-.02a18.7 18.7 0 0 1 .15-.27.9.9 0 0 0 .07-.21v-.08c-.02-.03-.03-.03-.04 0a1.9 1.9 0 0 1-.08.19 10.35 10.35 0 0 1-.5.58.78.78 0 0 1-.16.1.42.42 0 0 0-.11.11l.05-.29-.02-.01H9.7a7.77 7.77 0 0 1-.45.52 3.16 3.16 0 0 0-.15-.48l-.05-.22c0-.01 0-.02-.01-.01-.02 0-.03.01-.02.02 0 .14.03.27.06.38l.12.56c.02.1.01.11-.04.02a291.48 291.48 0 0 1-.35-.73 10.08 10.08 0 0 0-.05-.07l-.01.02v.09a33.26 33.26 0 0 1 .07.53H8.8l-.02-.03a26.1 26.1 0 0 1-.32-.76c-.04-.1-.05-.09-.05 0 0 .04 0 .07.02.11.04.13.07.26.09.4a.31.31 0 0 0-.16-.19 3.06 3.06 0 0 1-.4-.49 1.2 1.2 0 0 1-.16-.37l-.01-.01c-.02 0-.03 0-.03.02 0 .07 0 .14.03.2a47.1 47.1 0 0 1 .08.32.66.66 0 0 1-.29-.24c-.07-.1-.13-.22-.18-.35l-.02-.01-.01.01c0 .08.02.16.05.24.01.03 0 .04-.02.02a2.15 2.15 0 0 1-.26-.53h-.02a.02.02 0 0 0-.01.02 1.63 1.63 0 0 0 .15.63v.02h-.01a3.58 3.58 0 0 1-.67-1.1 14.5 14.5 0 0 0 .43.2 8.59 8.59 0 0 0 1 .3 6.08 6.08 0 0 0 2.13.02 5 5 0 0 0 1.54-.58c.3-.19.54-.42.73-.69.02 0 .04-.01.06-.04a1.98 1.98 0 0 0 .45-1.01c.04-.16.05-.34.03-.53l-.03-.3a.52.52 0 0 0-.11-.28l.03-.01c-.06-.3-.18-.6-.35-.9-.25-.43-.6-.75-1.03-.94a1.76 1.76 0 0 0-.86-.16 1.83 1.83 0 0 0-1.52.82h-.04l-.26-.31a1.95 1.95 0 0 0-1.58-.5c-.35.04-.67.16-.96.35-.21.15-.38.31-.5.5l-.12.19a2.46 2.46 0 0 0-.25.52l-.08.2c-.01-.18 0-.35.05-.53l.01-.12a1.04 1.04 0 0 1 .04-.18 4.77 4.77 0 0 1 .12-.33A8.85 8.85 0 0 1 6 5.14l.15-.2a10.03 10.03 0 0 1 .7-.7c.3-.18.62-.27.98-.27h.3c.05 0 .05 0 .01-.03a2.16 2.16 0 0 1-.05-.02 5.15 5.15 0 0 1-.35-.06c-.22-.02-.4-.02-.51-.02a.72.72 0 0 0-.24.07h-.03v-.02c.13-.07.25-.13.38-.16.38-.11.78-.13 1.2-.06.14.07.31.12.52.14l.01-.01v-.02a5.09 5.09 0 0 1-.13-.07V3.7a.62.62 0 0 0-.2-.14 2.2 2.2 0 0 0-.27-.09 27.1 27.1 0 0 1 .43.06Z" fill="#BF9670"/><path d="m5.3 7.14-.01.04-.03.1a.3.3 0 0 0-.03.15 2.26 2.26 0 0 0-.01 1.4c.08.27.24.52.46.73.15.2.31.35.49.47l.42.26a3.58 3.58 0 0 0 .67 1.1v-.03a1.63 1.63 0 0 1-.14-.63l.01-.02h.01l.01.02a2.15 2.15 0 0 0 .26.5c.02.03.03.02.02-.01a.66.66 0 0 1-.05-.24v-.01l.03.01c.05.13.11.25.18.35.1.12.2.2.29.24h.01v-.01l-.1-.3a.54.54 0 0 1-.02-.21c0-.02.01-.03.03-.02l.01.01c.03.13.08.26.16.37.09.15.22.31.4.5a2.72 2.72 0 0 1-.21-.1c-.14-.04-.28-.09-.4-.15a.4.4 0 0 1-.18-.16l-.14-.21c-.02-.02-.03-.02-.05 0-.03.02-.03.04-.02.07l.1.18v.01l-.27-.11a.46.46 0 0 1-.17-.15 2.67 2.67 0 0 1-.16-.24.11.11 0 0 0-.04-.04h-.04a.04.04 0 0 0-.02.04l.04.12a1.21 1.21 0 0 0 .08.13v.01a.85.85 0 0 1-.3-.2 1.45 1.45 0 0 1-.17-.24.05.05 0 0 0-.03-.03c-.04 0-.05 0-.05.04 0 .06.02.13.06.19v.01a.94.94 0 0 1-.44-.44l-.02-.02c-.03 0-.05 0-.07.04v.03c.02.09.07.17.13.24v.01c-.3-.19-.48-.47-.55-.85 0-.03-.02-.04-.05-.04h-.01c-.01 0-.02 0-.03.02v.02c0 .14.03.29.1.44.01.03 0 .03-.02.01a.93.93 0 0 1-.26-.39c-.05-.14-.08-.3-.1-.48a.04.04 0 0 0-.02-.04h-.04a.04.04 0 0 0-.02.04v.29c0 .03 0 .03-.01 0a.94.94 0 0 1-.13-.32c-.02-.1-.02-.22-.02-.36 0-.01 0-.02-.02-.03h-.04l-.03.03v.04c-.04.15-.02.32.04.51 0 .02 0 .03-.01 0a.48.48 0 0 1-.07-.11c-.11-.27-.15-.58-.11-.92.02-.27.1-.57.21-.92.01-.02.01-.05 0-.07a.03.03 0 0 0-.02-.02l-.04.01-.1.22a3.88 3.88 0 0 0-.2.87 4.83 4.83 0 0 1 .23-2.04 1.9 1.9 0 0 1 .16-.3c.03-.07.04-.1.01-.11-.03-.01-.05 0-.07.02a2.39 2.39 0 0 0-.19.28c-.01.01-.02 0-.01-.01.03-.14.07-.28.14-.4A5.1 5.1 0 0 1 5.8 4.87a.08.08 0 0 0 .02-.08l-.02-.02c-.03 0-.06 0-.08.02a.41.41 0 0 0-.06.06h-.01c.08-.1.19-.18.31-.26a4.95 4.95 0 0 1 .4-.24l-.03-.03c-.02-.01-.05-.02-.09 0a.3.3 0 0 0-.08.03h-.01c.12-.1.25-.17.38-.23.11-.05.25-.1.41-.14A.1.1 0 0 0 7 3.95l-.01-.04c.1-.04.18-.06.24-.07a5.08 5.08 0 0 1 .86.08l.04.02h.01c.04.03.04.04 0 .03h-.31c-.36 0-.69.1-.99.27-.07.04-.17.13-.32.28a10.03 10.03 0 0 0-.58.7l-.12.19a8.86 8.86 0 0 0-.37.72 4.76 4.76 0 0 0-.1.47c-.05.18-.06.35-.05.54Z" fill="#706B6E"/><path d="M8.87 3.98a3.09 3.09 0 0 1-.2-.06.28.28 0 0 1-.12-.05v-.02a.42.42 0 0 1 .28.06l.06.05c.02.03.01.03-.02.02Z" fill="#E4D2A4"/><path d="m10.18 4.06.37.03a12.77 12.77 0 0 1 .65.32 9.11 9.11 0 0 0 .62.42 2.56 2.56 0 0 1 .36.4 4.7 4.7 0 0 1 .28.36 4.25 4.25 0 0 0 .1.14l.2.38a5 5 0 0 0-1.15-1.27 3.33 3.33 0 0 0-.92-.5 4.7 4.7 0 0 1-.23-.11 1.06 1.06 0 0 0-.7-.11.94.94 0 0 1 .42-.06Z" fill="#DBB890"/><path d="m12.22 5.18.06.06a4.6 4.6 0 0 1 .57.93 14.19 14.19 0 0 0-.16-.3v.01l.02.05-.15-.2a2.37 2.37 0 0 1-.1-.14 4.6 4.6 0 0 0-.29-.36 2.92 2.92 0 0 1-.2-.26c.09.06.17.13.25.21Z" fill="#EDE4BD"/><path d="m11.47 5.52-.18.62-.38.01a.76.76 0 0 0-.58.36.67.67 0 0 0-.09.44c.02.14.08.28.18.4.07.09.16.17.28.24a1.87 1.87 0 0 0 .47.2 9.34 9.34 0 0 1 .7.31c.25.15.43.33.53.55.1.22.13.46.07.7-.28.14-.58.25-.91.35-.28.08-.6.15-.95.21a3.97 3.97 0 0 1-3.06-.7 4.57 4.57 0 0 1-1.17-1.17l.46-.18.38-.14c.13-.07.25-.13.35-.2.06-.04.13-.1.19-.18.09-.12.14-.24.16-.38a.72.72 0 0 0-.31-.68.81.81 0 0 0-.35-.13c-.28-.03-.55 0-.8.11-.12.05-.23.1-.33.17a.44.44 0 0 1 0-.28c.05-.17.1-.32.12-.43.29-.19.6-.3.96-.35a1.95 1.95 0 0 1 1.58.5 2.63 2.63 0 0 1 .28.32l.02-.01a1.83 1.83 0 0 1 .67-.6c.28-.14.56-.21.85-.22.32-.02.6.03.86.16Z" fill="#FBF4C7"/><path d="M11.47 5.52c.43.19.78.5 1.03.95.17.3.29.6.35.89a2.3 2.3 0 0 0-1.56-1.21l.18-.63Z" fill="#FEFEEA"/><path d="m12.71 5.93.22.39.07.16.06.16c-.06-.1-.13-.21-.19-.35a1.07 1.07 0 0 0-.11-.18l-.2-.38.15.2Z" fill="#E4D2A4"/><path d="m6.25 5.72-.13.43a.44.44 0 0 0 0 .28c-.2.15-.36.3-.5.45a2.6 2.6 0 0 0-.4.55c0-.06.01-.1.04-.16a.44.44 0 0 0 .03-.09v-.04a123.68 123.68 0 0 1 .17-.4 2.46 2.46 0 0 1 .3-.52c.11-.19.28-.35.5-.5Z" fill="#BABEA7"/><path d="M13.13 6.25c-.03 0-.05 0-.07.02l-.1-.2h.02l.15.18Z" fill="#BF9670"/><path d="m6.38 8.04-.22.12c-.18.12-.33.27-.44.47a.93.93 0 0 0-.08.78l.04.15a1.7 1.7 0 0 1-.47-.74 2.26 2.26 0 0 1 .02-1.4c.1-.2.23-.37.39-.54.14-.15.3-.3.5-.45l.34-.17c.25-.1.52-.14.8-.1.13 0 .25.05.35.12.1.07.19.16.24.28a.72.72 0 0 1-.1.78.92.92 0 0 1-.18.18c-.1.07-.22.13-.35.2l-.38.14-.46.18Z" fill="#21031B"/><path d="M11.3 6.14a2.3 2.3 0 0 1 1.55 1.22h-.03a2.6 2.6 0 0 0-.84-.88 2.07 2.07 0 0 0-1.07-.33c.13-.01.25-.02.38 0Z" fill="#923A55"/><path d="M10.9 6.15a2.07 2.07 0 0 1 1 .29.85.85 0 0 1 .11.06l.08.05.09.07.07.05c.23.2.41.43.57.7.06.07.1.16.11.27l.04.3a1.7 1.7 0 0 1-.07.7c-.07.3-.2.6-.42.85-.02.03-.04.04-.05.04l.04-.17c.06-.25.04-.49-.07-.71-.1-.22-.28-.4-.53-.55l-.34-.17a9.34 9.34 0 0 0-.5-.18c-.12-.05-.23-.1-.33-.16a1.1 1.1 0 0 1-.28-.23.77.77 0 0 1-.18-.41.67.67 0 0 1 .1-.44c.12-.2.3-.32.57-.36Z" fill="#21031B"/><path d="M6.57 7.12c-.02 0-.02-.01-.02-.03l.01-.02a.11.11 0 0 0 .05-.04.6.6 0 0 1 .08-.11c.06-.06.1-.07.16-.04.08.06.17.07.27.02.07-.04.1-.1.1-.2l.02-.02.01-.01a4.02 4.02 0 0 1 .5.07l.02.02v.15c0 .07-.02.12-.04.14l-.07.01c-.37-.02-.73 0-1.1.06Z" fill="#D6464F"/><path d="M11.04 6.77c-.09.06-.17.14-.24.23v.03l.01.02-.34.01c-.01 0-.03 0-.04-.03a.24.24 0 0 1-.04-.13v-.15l.02-.02c.2-.04.4-.06.6-.06.02 0 .02 0 .03.02v.08Z" fill="#923A55"/><path d="m9.92 8.02-.12.07a2.82 2.82 0 0 1-.92.1A1.19 1.19 0 0 1 8.27 8a.63.63 0 0 1-.25-.44.77.77 0 0 1 .2-.54.95.95 0 0 1 .5-.3 1.74 1.74 0 0 1 .71 0c.12.02.23.06.33.12a.84.84 0 0 1 .38.48.64.64 0 0 1-.05.48.74.74 0 0 1-.17.2Z" fill="#1E0618"/><path d="M6.85 6.88c-.05-.03-.1-.02-.16.04a.6.6 0 0 0-.08.1.11.11 0 0 1-.05.05l-.01.02c0 .02 0 .02.02.03-.15.02-.3.06-.44.1-.07.02-.13-.01-.16-.09a.44.44 0 0 1-.02-.2l.01-.02a3.6 3.6 0 0 1 .76-.2c.03-.02.05 0 .05.02 0 .05.03.1.08.15Z" fill="#923A55"/><path d="M10.81 7.05V7c.06-.09.14-.17.23-.23.06.12.15.17.26.16.05-.01.1-.03.13-.07a.22.22 0 0 0 .06-.14v-.01h.02c.2.03.43.09.7.18.02.01.03.03.03.05 0 .08 0 .15-.03.2-.03.07-.08.1-.15.08a4.13 4.13 0 0 0-1.25-.17Z" fill="#D6464F"/><path d="M13.11 6.81c.06.07.1.14.13.22l.1.28a.26.26 0 0 1-.08-.1c-.04-.12-.09-.23-.15-.34v-.06Z" fill="#E4D2A4"/><path d="m9.16 6.81-.02.02v.02c.07.02.12.05.16.09l.1.07c.05.02.1.05.14.09l.03.01.03.02.23.18.16.2-.17-.13c-.06-.04-.1-.07-.12-.1a.7.7 0 0 0-.2-.1 1.27 1.27 0 0 1-.15-.06A1.32 1.32 0 0 0 9.1 7a.7.7 0 0 1-.21-.14v-.02c0-.01 0-.02.02-.02l.25-.02Z" fill="#BF9670"/><path d="m10.04 7.58-.05-.07-.16-.2a66.44 66.44 0 0 0-.29-.21.84.84 0 0 0-.14-.1.43.43 0 0 1-.1-.06.45.45 0 0 0-.15-.09l-.01-.01v-.01l.02-.02c.16 0 .32.03.47.09a.67.67 0 0 1 .32.26.6.6 0 0 1 .09.42Z" fill="#FEFEEA"/><path d="m8.9 6.83-.02.02v.02A.7.7 0 0 0 9.1 7l.25.1a1.27 1.27 0 0 0 .21.1.7.7 0 0 1 .14.08l.12.09.17.13.05.07a.46.46 0 0 1-.26.37.78.78 0 0 1-.27.07 1.62 1.62 0 0 0-.49-.16 1.95 1.95 0 0 1-.3-.06c.1-.03.16-.09.18-.16a.21.21 0 0 0-.08-.24.21.21 0 0 0-.26 0c0-.04 0-.1.02-.15l.11-.38.22-.04Z" fill="#7A605A"/><path d="M8.7 6.87a5.22 5.22 0 0 0-.14.54c-.07.07-.1.15-.06.24.04.1.11.14.23.15l.3.06c.14.02.3.07.48.16a2.48 2.48 0 0 1-.76.01c-.1 0-.17-.02-.24-.04a.5.5 0 0 1-.33-.31.49.49 0 0 1 .03-.4c.1-.21.26-.35.48-.41Z" fill="#524C5F"/><path d="M9.54 7.8c.12 0 .22-.1.22-.22s-.1-.22-.22-.22c-.11 0-.2.1-.2.22s.09.21.2.21Z" fill="#21031B"/><path d="M13.35 8c.1.25.14.53.11.83 0 .1-.03.17-.06.24h-.01a.25.25 0 0 1 0-.1c.02-.39-.04-.76-.17-1.12-.02-.07-.01-.08.04-.03l.09.18Z" fill="#FEFEEA"/><path d="M7.69 7.8c-.03.01-.05.01-.04.02a.2.2 0 0 1 .04.05c.02.02.01.05-.01.06a.11.11 0 0 1-.05.02H7.6v.02c.18.23.47.4.88.5l.2.03a4.49 4.49 0 0 0 1-.03c.18-.04.34-.1.47-.18.16-.08.29-.18.4-.31v-.02l-.01-.01-.05-.01a.05.05 0 0 1-.03-.04c0-.02 0-.05.02-.08.14-.04.25 0 .32.08.02.01.02.03.02.05 0 .02 0 .03-.02.05-.03.03-.06.02-.11 0h-.03c-.08.13-.18.23-.31.33-.12.08-.25.15-.39.2A2.83 2.83 0 0 1 8 8.43c-.23-.1-.4-.25-.5-.43h-.03c-.03.02-.06.03-.09.01a.06.06 0 0 1-.03-.03v-.05a.28.28 0 0 1 .13-.11c.03-.02.1-.02.2-.01Z" fill="#1E0618"/><path d="M7.69 7.8c.2.1.34.17.44.2l.14.01c.14.1.35.16.6.18.24.01.44 0 .6-.02.17-.03.28-.06.33-.08l.12-.07c.2-.04.39-.1.57-.2a.16.16 0 0 0-.02.08c0 .02.02.03.03.04l.05.01.01.01v.02c-.11.13-.25.23-.4.31a1.95 1.95 0 0 1-.76.22 4.49 4.49 0 0 1-.91-.05c-.41-.1-.7-.26-.87-.49v-.02l.06-.02c.02-.01.03-.04.01-.06a.2.2 0 0 0-.04-.05l.04-.01Z" fill="#7A605A"/><path d="M6.38 8.04A4.57 4.57 0 0 0 8.5 9.71a4.04 4.04 0 0 0 2.12.2 6.14 6.14 0 0 0 1.87-.55l-.05.17c-.2.27-.44.5-.74.69-.28.17-.56.3-.86.4-.24 0-.47 0-.71-.02-.46-.02-.9-.12-1.32-.29a6.85 6.85 0 0 1-1.29-.7 4.27 4.27 0 0 1-1.34-1.33v-.12l.21-.12Z" fill="#EDE4BD"/><path d="M6.16 8.16v.12c.04.15.08.3.14.44.03.08.06.15.1.2.34.39.7.73 1.1 1.03l.79.63c.08.08.22.17.42.28a4.8 4.8 0 0 1-2.54-.83 2.22 2.22 0 0 1-.49-.47l-.04-.15a.93.93 0 0 1 .08-.78c.11-.2.26-.35.44-.47Z" fill="#BABEA7"/><path d="M10.84 10.61a4.99 4.99 0 0 1-2.13.25c-.2-.11-.34-.2-.42-.28l-.8-.63c-.4-.3-.75-.64-1.08-1.03a.66.66 0 0 1-.11-.2c-.06-.14-.1-.3-.13-.44a4.27 4.27 0 0 0 1.35 1.34 9.68 9.68 0 0 0 1.28.7c.42.16.86.26 1.32.28.24.02.47.02.72.01Z" fill="#DAD4B3"/><path d="M13.26 9.17v.12a1 1 0 0 1-.16.6c-.03 0-.03 0-.02-.03.04-.13.07-.27.09-.41l.01-.21.01-.06c.02-.05.04-.05.07 0Z" fill="#D5C79D"/><path d="M12.94 9.56c0 .17-.02.3-.04.4-.03.14-.08.26-.16.37l.13-.65a1.43 1.43 0 0 0-.03-.47V9.2h.03l.01.01.06.35ZM11.78 11.84c-.1-.09-.2-.15-.3-.2-.14-.06-.25-.07-.33-.01a21.28 21.28 0 0 1-.82.32c-.12.03-.23.06-.33.07a.2.2 0 0 1-.03-.01c-.02-.02-.02-.03 0-.04a17.67 17.67 0 0 1 .68-.25 24.75 24.75 0 0 0 .82-.36 3.57 3.57 0 0 0 .45-.27c.04.02.09.02.14 0a.7.7 0 0 0 .12-.1c.09-.06.16-.13.22-.21l.02-.01.02.01a.8.8 0 0 1 .07.2c0 .08 0 .14-.04.19-.2.25-.44.47-.69.67Z" fill="#FEFEEA"/><path d="M6.74 11.41c.07.05.13.1.2.12l.17.07a40.1 40.1 0 0 1 .35.16l.7.3a.51.51 0 0 0-.1.13 6.24 6.24 0 0 0-.18.48l-.04.02H7.8l-.53-.25a5.72 5.72 0 0 1-1.75-1.33.17.17 0 0 1-.01-.14l.05-.14c.01-.05.04-.05.07-.02.07.1.17.18.3.26.07.04.13.05.18.02h.03c.08.06.16.1.24.14l.36.18Z" fill="#859382"/><path d="M11.33 11.24a.72.72 0 0 1-.32.18 15.81 15.81 0 0 0 .29-.36.85.85 0 0 0 .04-.14c0-.02.02-.03.03-.03.02 0 .02 0 .02.02l-.06.33ZM10.61 11.56a.54.54 0 0 1-.13.08c-.15.08-.32.14-.52.18a10.4 10.4 0 0 0 .5-.57l.08-.19c0-.03.02-.03.03 0v.08a.9.9 0 0 1-.06.2 3.14 3.14 0 0 1-.15.28c-.02.03-.01.04.02.02.07-.04.13-.1.2-.17h.05c-.03.05-.03.07-.02.1Z" fill="#706B6E"/><path d="M13.88 14h-.28a1.4 1.4 0 0 1-.08-.25 1.89 1.89 0 0 0-.14-.33 4.62 4.62 0 0 1-.2-.41.57.57 0 0 1-.05-.09 1.66 1.66 0 0 0-.22-.4c-.02-.03-.04-.02-.04.01l-.02.26c-.05.01-.06.06-.03.15.09.35.16.7.21 1.06h-.18a7.58 7.58 0 0 0-.35-1.09c-.05-.11-.1-.23-.13-.35a5.83 5.83 0 0 0-.24-.41 1.21 1.21 0 0 1-.1-.18 4.05 4.05 0 0 0 .48-.6l-.01-.03v-.01h.03A8.38 8.38 0 0 1 13.88 14Z" fill="#FEFEEA"/><path d="M7.79 12.82c-.34.03-.66-.04-.96-.2a8.19 8.19 0 0 1-.47-.3 4.38 4.38 0 0 0-.46-.34l-.03-.01a.65.65 0 0 0-.26.02.41.41 0 0 0-.2.15c-.07.1-.13.2-.17.34-.03.1-.07.22-.1.37-.12.38-.22.76-.29 1.15h-.71l.08-.28a7.9 7.9 0 0 1 1.24-2.37c.02-.02.03-.02.05 0a6.3 6.3 0 0 0 2.28 1.47Z" fill="#79877D"/><path d="M12.5 11.34v.04a2.6 2.6 0 0 1-.47.59 3.22 3.22 0 0 1-.81.6 4.41 4.41 0 0 1-1 .45l-.15.01a.38.38 0 0 1-.27-.13c-.1-.1-.2-.22-.28-.35a8.32 8.32 0 0 0 .33-.41l.03-.01c.06 0 .1.04.13.1l.16.41c.05.17.14.22.29.15a5.8 5.8 0 0 0 2.04-1.45Z" fill="#859382"/><path d="M6.74 11.4a55.94 55.94 0 0 0 1.48.57c.03.01.03.02 0 .04l-.06.05a134.9 134.9 0 0 0-1.21-.53.84.84 0 0 1-.2-.12Z" fill="#FEFEEA"/><path d="M9.69 12.04a.6.6 0 0 1-.08.18l-.48.63a9 9 0 0 1-.6-.76 2.1 2.1 0 0 0-.1-.4.35.35 0 0 1-.01-.1c0-.1.01-.1.05-.01a5.91 5.91 0 0 0 .35.8v-.12a33.28 33.28 0 0 0-.06-.53 29.16 29.16 0 0 1 .13.3l.27.5c.05.09.06.08.04-.02a10.2 10.2 0 0 0-.12-.56 2.3 2.3 0 0 1-.06-.38l.01-.02h.02l.05.23a3.17 3.17 0 0 1 .15.48h.03a7.82 7.82 0 0 0 .44-.52c.02 0 .03 0 .02.01l-.05.3Z" fill="#706B6E"/><path d="M11.78 11.84c-.19.16-.4.32-.64.46-.2.12-.44.24-.72.37-.04.02-.07.02-.1 0a8.42 8.42 0 0 0-.16-.42.64.64 0 0 0-.16-.23c.1-.01.2-.04.33-.08a21.28 21.28 0 0 0 .82-.31c.08-.06.19-.05.33.01.1.05.2.11.3.2Z" fill="#E4D2A4"/><path d="M7.79 12.82c.06.01.12 0 .16-.05a.43.43 0 0 0 .1-.16l.11-.33c.03-.08.07-.13.12-.14.05-.02.1 0 .15.08l.16.2a3.7 3.7 0 0 0-.4.44.35.35 0 0 1-.13.1.91.91 0 0 1-.18.07.04.04 0 0 0-.04.02.2.2 0 0 1-.15.14.43.43 0 0 1-.21 0 7.03 7.03 0 0 1-.36-.1 1.6 1.6 0 0 0-.3-.06 1.42 1.42 0 0 0-.46-.02h-.12l-.03.01c-.1.11-.18.22-.22.32a.7.7 0 0 0-.08.37c0 .08.02.16.04.25l.02.02h.27l.25.02H5a2.05 2.05 0 0 1 .08-.4 9.97 9.97 0 0 1 .17-.7.1.1 0 0 0-.02-.1h-.03c-.02 0-.04.02-.05.05.03-.15.07-.28.1-.37.04-.14.1-.25.16-.34a.41.41 0 0 1 .21-.15.65.65 0 0 1 .26-.02h.03a3.94 3.94 0 0 0 .46.35l.23.16.24.14c.3.16.62.23.96.2Z" fill="#859382"/><path d="m12.03 11.97.1.18a4 4 0 0 0 .16.25l.08.16.13.35c.03.05.05.13.08.23l.05.15c.09.24.16.47.22.71h-.67a22.78 22.78 0 0 0-.02-.78c-.02-.04-.06-.06-.1-.06h-1.01l-.19-.01a.26.26 0 0 1-.13-.03.71.71 0 0 1-.2-.2 4.42 4.42 0 0 0 1.07-.58c.1-.08.25-.2.43-.37Z" fill="#EDE4BD"/><path d="M8.6 12.43a21.46 21.46 0 0 1 .38.48v.02a.36.36 0 0 0-.22.13c-.05 0-.09.05-.11.13a.55.55 0 0 0-.03.18V14H6.48l-.25-.01c.06-.2.13-.38.22-.53.1-.17.22-.31.37-.43h.07l.22.05.36.1c.07.02.15.02.21 0a.2.2 0 0 0 .15-.13l.04-.02a7.16 7.16 0 0 1 .18-.06c.06-.03.1-.06.13-.1.13-.16.26-.31.4-.44Z" fill="#D5C79D"/><path d="M13.6 14h-.45a8.82 8.82 0 0 0-.23-1.11.17.17 0 0 0-.07-.1l.02-.26c0-.03.02-.04.04-.01.09.12.16.25.22.4l.05.09.04.08.16.33.15.33c.01.09.04.17.07.25ZM9.52 12.55c.09.13.18.24.28.35.06.08.15.12.27.13a.62.62 0 0 0 .3-.05l.15-.06c.06.08.13.15.21.2.04.02.08.03.13.03h.19l-.07.01a7.27 7.27 0 0 0-.3.03c-.03.02-.05.05-.05.1V14H9.58v-.75c0-.1-.03-.17-.1-.23a.45.45 0 0 0-.23-.1v-.01l.27-.36Z" fill="#E4D2A4"/><path d="M12.85 12.8c.03.02.05.05.07.09.1.36.18.73.23 1.11h-.12c-.05-.36-.12-.71-.21-1.06-.03-.1-.02-.14.03-.15Z" fill="#270511"/><path d="M4.99 14h-.14c.07-.39.17-.77.29-1.15.01-.03.03-.04.05-.05h.03a.1.1 0 0 1 .02.1 9.51 9.51 0 0 1-.2.8c-.03.14-.05.23-.05.3Z" fill="#1E0618"/><path d="M9.47 14H8.8v-.67c0-.07.01-.12.03-.16a.2.2 0 0 1 .15-.12c.1-.02.18-.02.26 0 .1.01.17.06.2.14l.02.14V14Z" fill="#E4D2A4"/><path d="M9.36 13.39c0 .07-.02.12-.07.17a.23.23 0 0 1-.16.07.23.23 0 0 1-.17-.07.23.23 0 0 1-.07-.17c0-.07.02-.13.07-.17.04-.05.1-.07.17-.07.06 0 .12.02.16.07.05.04.07.1.07.17Z" fill="#1E0618"/><path d="M12.18 14h-.1a19.28 19.28 0 0 0-1.38 0h-.07v-.72c0-.04.02-.07.05-.1a7.27 7.27 0 0 1 .3-.03l.18.01h.9c.04 0 .08.02.1.06a22.07 22.07 0 0 1 .02.78Z" fill="#270511"/><path d="M9.01 13.38c0 .07.04.14.11.15.07 0 .13-.06.13-.13 0-.08-.04-.15-.1-.15-.08 0-.13.05-.14.13Z" fill="#7A605A"/><path d="M12.04 13.27h-1.28a.03.03 0 0 0-.02.03v.56c0 .01 0 .03.02.03h1.28c.01 0 .03-.01.03-.03v-.56a.03.03 0 0 0-.03-.03Z" fill="#D6464F"/></svg>