<!-- by TradingView --><svg width="18" height="18" viewBox="0 0 18 18" xmlns="http://www.w3.org/2000/svg"><path fill="#06153C" d="M0 0h18v18H0z"/><path fill-rule="evenodd" d="M8.73 10.09c.07.06.15.06.24.06.04 0 .09 0 .13.02.52.12.44.8-.1.8-.28 0-.45-.17-.46-.42 0-.1-.01-.17-.1-.24L5.5 7.68l-.05-.04c-.14-.13-.26-.23-.16-.4.02-.04.07-.1.15-.17l3.33-2.98c.1-.09.21-.11.32-.07.05.02.13.07.23.16l3.52 3.15c.05.05.07.1.06.17-.01.1-.14.16-.23.13a.43.43 0 0 1-.14-.08l-3.3-2.96c-.15-.14-.32-.14-.48 0L5.9 7.15c-.12.11-.14.22-.07.33a1692.14 1692.14 0 0 1 2.9 2.61Zm.51-2.27c-.06-.06-.13-.06-.2-.06H8.9c-.18-.05-.3-.15-.34-.3-.1-.34.28-.63.63-.48.16.07.25.2.26.35l.01.15c0 .04.07.11.19.22l3 2.67c.08.08.11.2.06.3A15885.14 15885.14 0 0 0 8.98 14l-3.84-3.42c-.19-.16.08-.41.28-.23a6816.18 6816.18 0 0 0 3.36 3c.12.1.28.13.4.02l2.83-2.52c.1-.1.17-.16.18-.2.03-.1 0-.19-.1-.27L9.25 7.82Zm-4.76.08c0 .12-.1.22-.24.22-.13 0-.24-.1-.24-.22s.1-.21.24-.21c.13 0 .24.1.24.21Zm.46.93c.19 0 .34-.13.34-.3 0-.17-.15-.3-.34-.3-.2 0-.35.13-.35.3 0 .17.16.3.35.3Zm8.46.55c0 .17-.15.3-.34.3-.19 0-.34-.13-.34-.3 0-.17.15-.3.34-.3.19 0 .34.13.34.3ZM7.68 7.16c-.09.08-.13.2-.05.32l.1.11a813.98 813.98 0 0 1 3.32 2.98v.01L9 12.4h-.02a528.43 528.43 0 0 1-2.38-2.1c-.08-.03-.18 0-.28.02a.94.94 0 0 1-.9-.23.72.72 0 0 1-.12-.89c.33-.56 1.16-.57 1.54-.05.15.2.16.46.07.7-.05.15 0 .22.12.34l1.73 1.54c.18.16.34.1.5-.04.26-.24.6-.53.97-.88a.55.55 0 0 0 .16-.18c.03-.09 0-.17-.08-.24a1128.7 1128.7 0 0 0-3.38-3.05h.01L8.7 5.76c.18-.16.33-.24.54-.06l2.01 1.8c.14.13.24.1.37.07l.16-.04c.18-.02.36.01.52.08.62.29.65 1.08.03 1.4a.95.95 0 0 1-1.1-.18c-.22-.21-.27-.47-.17-.78.06-.19-.02-.26-.15-.38l-.02-.01-1.63-1.45c-.11-.1-.2-.16-.35-.12a218.77 218.77 0 0 1-1.22 1.05Zm4.2 1.62c.28 0 .5-.2.5-.45s-.22-.45-.5-.45c-.27 0-.5.2-.5.45s.23.45.5.45Zm-5.28.79c0 .24-.23.44-.5.44-.28 0-.5-.2-.5-.44 0-.25.22-.45.5-.45.27 0 .5.2.5.45ZM14 10c0 .12-.1.22-.24.22-.13 0-.24-.1-.24-.22s.1-.21.24-.21c.13 0 .24.1.24.21Z" fill="url(#a)"/><defs><linearGradient id="a" x1="9" y1="4" x2="9" y2="14" gradientUnits="userSpaceOnUse"><stop stop-color="#09D3F7"/><stop offset="1" stop-color="#0573DD"/></linearGradient></defs></svg>