<!-- by TradingView --><svg width="18" height="18" viewBox="0 0 18 18" xmlns="http://www.w3.org/2000/svg"><path fill="#F0F3FA" d="M0 0h18v18H0z"/><path d="m14.5 10.27-.02.02-.02.02-4.16 4.15c-.72.72-1.9.72-2.62 0L6.53 13.3a.2.2 0 0 1 .09-.34c1.23-.38 2.23-.82 3-1.32 1.83-1.18 3.45-1.64 4.88-1.38Zm-.88-3.41c1.54.48 1.36 1.61 1.38 2.06-1.68-.89-3.7-.56-6.06.96C7.17 11.02 5.7 11.5 4.5 11.3 3.32 11.1 3.05 9.64 3 9.25c1.3.66 3.06.29 5.25-1.13 2.05-1.33 3.84-1.75 5.37-1.26ZM10.3 3.54l1.08 1.08a.2.2 0 0 1-.1.35c-1.57.31-2.81.77-3.75 1.38-1.6 1.03-2.97 1.52-4.1 1.44l4.25-4.25c.73-.72 1.9-.72 2.62 0Z" fill="url(#azsrj51rn)"/><defs><linearGradient id="azsrj51rn" x1="9" y1="3" x2="8.88" y2="23.24" gradientUnits="userSpaceOnUse"><stop stop-color="#3068EF"/><stop offset="1" stop-color="#1322AC"/></linearGradient></defs></svg>