<!-- by TradingView --><svg width="18" height="18" viewBox="0 0 18 18" xmlns="http://www.w3.org/2000/svg"><path fill="url(#a)" d="M0 0h18v18H0z"/><path d="M10.49 4.71a1.92 1.92 0 0 0-2.2-.58 1.92 1.92 0 0 0-.67 3.1l.5.5.71.72.15.15a.02.02 0 0 0 .04 0l1.34-1.34c.35-.36.54-.8.55-1.32 0-.46-.14-.87-.42-1.23ZM7.06 7.47c-.26-.19-.55-.31-.87-.36a1.86 1.86 0 0 0-1.66.56 1.87 1.87 0 0 0-.46 1.86 1.93 1.93 0 0 0 1.8 1.38c.55 0 1-.18 1.37-.54l1.1-1.1.25-.25v-.04l-.08-.08-.62-.62-.83-.8Zm6.38.17c.28.3.46.64.53 1.03.07.4.02.76-.13 1.1-.26.58-.71.95-1.35 1.1a1.95 1.95 0 0 1-1.76-.53l-.81-.8L9.4 9a.02.02 0 0 1 0-.02l1.32-1.33a1.92 1.92 0 0 1 2.71-.02Zm-3.09 3.1-.7-.71L9 9.4H9c-.45.44-.9.89-1.33 1.34a1.87 1.87 0 0 0-.54 1.7 1.91 1.91 0 1 0 3.23-1.7Z" fill="#fff"/><defs><linearGradient id="a" x1="2.5" y1="2.64" x2="14.9" y2="16.89" gradientUnits="userSpaceOnUse"><stop stop-color="#FF4E4D"/><stop offset="1" stop-color="#7F01FF"/></linearGradient></defs></svg>