<!-- by TradingView --><svg width="18" height="18" viewBox="0 0 18 18" xmlns="http://www.w3.org/2000/svg"><path fill="#F0F3FA" d="M0 0h18v18H0z"/><path d="M4 9c0-2.87 2.15-5 5.01-5A4.87 4.87 0 0 1 14 9c0 2.86-2.14 5-5.01 5A4.84 4.84 0 0 1 4 9Zm8.51 0c0-2.1-1.45-3.68-3.52-3.68-2.06 0-3.5 1.6-3.5 3.68 0 2.09 1.46 3.68 3.5 3.68 2.05 0 3.52-1.55 3.52-3.68Z" fill="url(#a)"/><defs><linearGradient id="a" x1="5.34" y1="5.47" x2="12.02" y2="14.1" gradientUnits="userSpaceOnUse"><stop stop-color="#00F2FE"/><stop offset=".54" stop-color="#4FACFE"/><stop offset=".97" stop-color="#C471F5"/></linearGradient></defs></svg>