<!-- by TradingView --><svg width="18" height="18" viewBox="0 0 18 18" xmlns="http://www.w3.org/2000/svg"><path fill="#F0F3FA" d="M0 0h18v18H0z"/><path d="m9.23 7.37 4.23 2.8c.23.16.54 0 .54-.32V6.2c0-.16-.08-.24-.23-.32L9.15 3.06a.23.23 0 0 0-.3 0L4.23 5.9c-.16.08-.23.16-.23.32v.96L8.85 4.3c.15-.08.23-.08.38 0l3.54 2.2c.15.08.23.25.23.33v1.8L9.23 6.2c-.15-.08-.23-.08-.38 0L4.23 9.04c-.15.08-.23.24-.23.32v2.43c0 .16.08.24.15.32l.85.61V9.98c0-.16.07-.25.22-.33l3.63-2.2c.1-.08.24-.14.38-.08Z" fill="#4DB5C4"/><path d="M9.18 13.65c-.15.08-.23.08-.38 0L6 12.03v1.05c0 .16.1.24.18.32l2.62 1.54c.15.08.23.08.38 0L14 12.03l-.84-.59c-.16-.08-.23-.08-.39 0l-3.6 2.2Z" fill="#4DB5C4"/><path d="m9.26 11.96 1.97-1.24c.15-.09.15-.25 0-.33L9.26 9.06c-.15-.08-.23-.08-.38 0L6.83 10.3c-.15.09-.15.25 0 .33l1.98 1.24c.16.13.3.17.45.09Z" fill="#4DB5C4"/></svg>