<!-- by TradingView --><svg width="18" height="18" viewBox="0 0 18 18" xmlns="http://www.w3.org/2000/svg"><path fill="#F0F3FA" d="M0 0h18v18H0z"/><path d="M2.64 6.94h-.52v-.35h.73v.14h.01l.15-.14h-.14l-.01-.02v-.39H3.33l.01-.02.2-.4c.13-.28.3-.56.47-.82a2.9 2.9 0 0 1 .92-.83c.13-.06.3-.08.46-.09l.46-.01c1.34-.02 2.7-.02 4.05.05a13.6 13.6 0 0 1 2.33.34 3.5 3.5 0 0 1 1.68 1.05c.1.13.14.25.14.41 0 .14.03.31.09.46a.9.9 0 0 0 .24.32l.19.15c.2.17.35.4.4.67a17.82 17.82 0 0 1 .03.82 1.5 1.5 0 0 1-.2.76l-.2.4c-.1.21-.15.43-.16.66l-.02.55c0 .67.02 1.34.05 2.02 0 .26.03.51.05.77 0 .12 0 .27-.05.38-.07.17-.17.33-.3.5a1.92 1.92 0 0 1-1.07.63l-.4.04H11.2a4.27 4.27 0 0 1-.9-.14 38.66 38.66 0 0 0-1.74-.42c-.52-.21-1.02-.48-1.51-.73a12.42 12.42 0 0 0-1.1-.5 13.48 13.48 0 0 1-1.2-.7 3.7 3.7 0 0 1-.49-.42 4.12 4.12 0 0 1-.78-.93l-.22-.44c-.11-.22-.27-.45-.45-.64-.26-.27-.5-.56-.68-.88A1.17 1.17 0 0 1 2 8.6v-.57c.01-.16.05-.3.14-.45a3.77 3.77 0 0 1 .5-.63Z"/><path d="M4.8 5.81h.01l.21-.12c.13-.1.25-.2.38-.28.39-.25.81-.47 1.27-.67a3.41 3.41 0 0 1 1.66-.27l1.07.1c.47.07.95.1 1.41.09.38-.01.78-.04 1.18.01.22.03.42.1.63.2a4.85 4.85 0 0 1 .92.6.7.7 0 0 1 .23.46 7.68 7.68 0 0 1 .01.25h-1.16v-.02c-.02-.27-.2-.45-.43-.58l-.28-.14a.97.97 0 0 0-.45-.05 16.83 16.83 0 0 0-1 .12c-.04.01-.13.03-.15.07a.02.02 0 0 0 0 .03h.11l.2-.04c.3-.05.6-.08.92-.1.15 0 .28.02.4.08l.3.18c.16.1.26.25.31.44h-2.01a.73.73 0 0 1 .09-.23.23.23 0 0 0 .03-.1.03.03 0 0 0 0-.03h-.03c-.12.05-.16.24-.17.35l-.01.02H8.74l-.01-.01c0-.15 0-.31-.05-.45a.74.74 0 0 0-.24-.31.14.14 0 0 0-.05-.03.02.02 0 0 0-.02 0 .02.02 0 0 0 0 .02c0 .04.03.07.05.1.12.14.2.29.24.46a2.34 2.34 0 0 1 .04.21 75.66 75.66 0 0 1-1.56 0 119.86 119.86 0 0 1-1.44 0 2.8 2.8 0 0 1 .8-.6c.27-.12.55-.2.85-.22.27-.03.52-.04.74-.03a7.98 7.98 0 0 0 .57-.02.08.08 0 0 0-.04-.02 8.22 8.22 0 0 0-1.36 0 2.7 2.7 0 0 0-1.13.39 2.8 2.8 0 0 0-.57.5H3.7l.19-.4c.1-.2.2-.4.33-.59.15-.23.34-.43.55-.6.14-.1.27-.18.4-.22a7.14 7.14 0 0 1 .72-.07 63.92 63.92 0 0 1 4.6.1l.56.08c.07 0 .2.03.25.07a.02.02 0 0 1 0 .02 24.08 24.08 0 0 1-2.51-.14 7.45 7.45 0 0 0-.95-.02 4.52 4.52 0 0 0-1.76.51 9.91 9.91 0 0 0-1.27.87v.03Z" fill="#F7F7F7"/><path d="M7.21 5A3.61 3.61 0 0 0 5.2 6.15c-.04.02-.05 0-.02-.03a2.31 2.31 0 0 1 .34-.39c.22-.19.46-.35.72-.48a4.86 4.86 0 0 1 .97-.33 6.65 6.65 0 0 1 1.66-.05l.46.08c.4.06.76.08 1.06.07a13.9 13.9 0 0 0 1.52-.1h.28c.1.01.24.08.29.18a.02.02 0 0 1 0 .03h-.02c-.05 0-.1-.03-.15-.06-.12-.08-.28-.09-.41-.07l-.6.05c-.36.03-.72.04-1.09.04-.42 0-.84-.05-1.25-.13A4.75 4.75 0 0 0 7.2 5Z"/><path d="M4 6.82a123.6 123.6 0 0 0-.65-.04c-.02 0-.03-.02-.02-.04l.12-.15h1.56v.28a.7.7 0 0 0-.15.04.03.03 0 0 0 0 .03v.01l.04.04a.66.66 0 0 0 .41.07v-.02A2.07 2.07 0 0 1 5.1 7c-.03 0-.03-.02-.01-.03a.14.14 0 0 1 .07-.03 30.8 30.8 0 0 0 .24 0v.2l-.02.01c-.08 0-.14.03-.11.13a.01.01 0 0 0 .02 0l.1-.06V7.3l.02.01h.32v.01l.01.36-.01.01a4.04 4.04 0 0 1-.95-.38 2.36 2.36 0 0 0-.88-.07c-.4.06-.7.45-.83.83-.1.33-.05.71.11 1.02.03.06.12.2.2.17.05-.01.08-.05.08-.09 0-.05 0-.11-.02-.18-.05-.17-.13-.33-.15-.52-.02-.15.07-.35.15-.5.1-.17.23-.34.42-.4.2-.06.42-.07.63-.04.05 0 .09.02.13.05a3.96 3.96 0 0 0 .93.37 2.32 2.32 0 0 0 .58.06v.05l.01.01a11.45 11.45 0 0 1 .54 0 1018.73 1018.73 0 0 1 2.04 0V7.71h.38V7.34H9.47V6.94h.73v.09l-.1.01c-.05 0-.27.03-.24.12.03.1.23.19.32.24.1.05.13.14.13.26 0 .13 0 .28.04.41a.6.6 0 0 0 .37.36c.1.02.2.2.17.3a.45.45 0 0 1-.05.11c-.1.16-.21.28-.34.39-.08.06-.22.14-.32.07-.06-.05-.13-.12-.2-.05-.08.06-.1.13-.04.21.1.13.33.17.48.15.14-.01.25-.13.35-.23a11.2 11.2 0 0 1 .39-.37c.04-.03.08-.03.1 0 .1.09.14 0 .19-.06.05-.07.16-.04.23 0a2.82 2.82 0 0 1 .53.24.1.1 0 0 0 .04 0h.01a.02.02 0 0 0 0-.02.68.68 0 0 0-.39-.25.44.44 0 0 1-.12-.04.64.64 0 0 1-.16-.12 3.17 3.17 0 0 0-.8-.64c-.15-.09-.18-.24-.2-.4l.02-.01h2.06l-.29.2a.21.21 0 0 1-.23.02c-.07-.03-.3-.16-.37-.07-.04.05-.04.1-.01.16.07.16.25.21.4.24.15.02.29.03.4.01.15-.01.16-.1.22-.21.04-.08.1-.15.19-.18a.83.83 0 0 1 .66.1c.05.03.16.09.22.05.08-.06.07-.16.01-.23a.48.48 0 0 0-.22-.16 1.34 1.34 0 0 0-.5-.07V7.3h.37a.01.01 0 0 0 0-.01h.01v-.28l.01-.01c.08 0 .16 0 .23.02.08.01.14.06.2.13.08.09.18.17.28.23.12.07.2.19.26.32.06.16.08.3.07.42a2.62 2.62 0 0 1-.14.57c-.06.14-.2.2-.32.27a194.28 194.28 0 0 0-.38.2c-.04.02-.04.04-.01.05a2.23 2.23 0 0 0 .52-.2c.12-.08.26-.17.3-.33a3.6 3.6 0 0 0 .1-.72.7.7 0 0 0-.04-.2c-.04-.13-.1-.25-.17-.36a.19.19 0 0 0-.07-.06c-.12-.06-.24-.18-.36-.28a.5.5 0 0 0-.31-.13 2 2 0 0 1 .17 0v-.47h.01c.08.15.17.28.3.39.13.12.25.22.37.37.07.1.12.2.14.31.05.26.06.51.04.78l-.05.25c-.09.25-.22.49-.34.73-.07.16-.12.31-.15.47l-.02.33a44.74 44.74 0 0 0 .07 3.12c.02.15.03.32-.04.47-.1.23-.24.43-.43.6a2.01 2.01 0 0 1-1.05.45 5.44 5.44 0 0 1-1.1.01 5.64 5.64 0 0 1-1.27-.2 38.8 38.8 0 0 0-1.53-.38c-.06 0-.17-.05-.34-.12a353.3 353.3 0 0 0-1.96-.95l-.28-.12a11.07 11.07 0 0 1-1.62-.99l-.45-.43a2.57 2.57 0 0 1-.5-.72l-.14-.3a2.5 2.5 0 0 0-.42-.6.3.3 0 0 1-.05-.07v-.01a.01.01 0 0 1 0-.01.01.01 0 0 1 .02 0c.06.02.15.05.21.05h.01v-.03c-.07-.06-.18-.11-.27-.15a.94.94 0 0 1-.38-.3 1.77 1.77 0 0 1-.41-1.2.94.94 0 0 1 .11-.4c.17-.28.36-.53.6-.74a.5.5 0 0 1 .2-.12c.28-.08.57-.1.86-.13Z" fill="#F7F7F7"/><path d="M6.13 6.54h-.38v.4h.38v-.4ZM6.86 6.54H6.5v.4h.38v-.4ZM10.92 6.54h-.37v.4h.38v-.4ZM11.28 6.95v.34l-.01.01h-.33v-.35h.33V6.53h.39v.4h-.38v.01ZM6.47 6.94h-.32l-.01.01v.34l.01.01h.32l.01-.01V6.94ZM7.25 6.94h-.37V7.3h.37l.01-.01v-.34h-.01ZM12 6.94h-.32l-.02.01v.34l.02.01H12v-.35H12Z" fill="#F7F7F7"/><path d="m3.14 9.5-.2-.1a.7.7 0 0 1-.24-.37 5.49 5.49 0 0 1-.07-1.22c0-.1.03-.2.07-.27.1-.2.23-.36.4-.48.1-.07.23-.09.34-.1a5.86 5.86 0 0 1 .81 0v.01c-.35.03-.72.05-1.06.12a.24.24 0 0 0-.1.07c-.1.1-.2.23-.29.38a.85.85 0 0 0-.11.43c0 .23 0 .45.02.65.02.28.06.54.32.7.14.1.3.17.45.27.03.02.02.03-.01.03l-.04-.01-.3-.11Z"/><path d="M6.86 7.3H6.5c-.01 0-.02 0-.02.02v.37s0 .02.02.02h.35l.02-.02v-.37l-.01-.02ZM7.64 7.3h-.37v.01l-.01.38.01.02h.37V7.3Z" fill="#F7F7F7"/><path d="M13.67 7.33c.13.01.28.08.4.16.06.04.08.16.1.23.04.22.06.43.06.62 0 .18-.17.33-.3.41a.13.13 0 0 1-.07.02.02.02 0 0 1-.02-.01v-.01c.06-.1.16-.19.24-.26.06-.07.09-.14.08-.24 0-.12-.02-.25-.05-.4-.02-.12-.05-.24-.16-.3-.1-.06-.21-.1-.3-.18v-.02c0-.02 0-.02.02-.02ZM5.73 8.64c.3.12.56.23.82.31.43.15.9.3 1.4.45a9.44 9.44 0 0 0 2.62.42c.29 0 .56-.02.81-.06.4-.08.85-.25 1.18-.5a.9.9 0 0 0 .25-.24c.1-.16.12-.34.15-.53a.7.7 0 0 1 .07-.28c.04-.05.1-.05.13 0a.3.3 0 0 1 .05.12c.02.12.03.24.12.32.08.07.11.21.13.31.05.26.08.54.1.83.01.4 0 .8-.03 1.19-.02.17-.05.33-.11.48-.07.2-.17.4-.32.56-.2.21-.5.32-.8.38a7.2 7.2 0 0 1-.96.14c-.73.06-1.5.06-2.29 0a6.65 6.65 0 0 1-1.68-.35 3.4 3.4 0 0 1-.76-.37c-.43-.28-.8-.57-1.13-.88a7.76 7.76 0 0 1-1.04-1.4 2.44 2.44 0 0 0-.22-.27.12.12 0 0 1-.02-.13c.04-.09-.02-.24-.07-.32-.05-.08-.15-.09-.24-.08a.9.9 0 0 1-.32-.04c-.12-.05-.03-.15.04-.18l.36-.14a.4.4 0 0 0 .22-.25l.06-.19c.01-.06.06-.17.13-.2h.02c.06.03.1.1.1.17.03.1.22.22.3.27.28.16.59.3.93.46Z"/><path d="M7.67 8.51c.08-.02.12-.1.08-.17a.03.03 0 0 1 0-.04c.04-.04.08 0 .1.04.03.14-.04.23-.16.26l-.34.04-.62.05c-.02 0-.03-.01-.03-.03v-.04l.03-.01c.09-.03.17-.04.25-.04a22.82 22.82 0 0 0 .7-.06ZM8.34 8.6c-.12.04-.16.1-.14.22.01.09.05.15.11.2.06.06.1.13.07.2-.02.05-.07.14-.13.12A.7.7 0 0 1 8 9.17a.34.34 0 0 1-.07-.22v-.28c.01-.36.42-.4.68-.37l.12.05c.05.03.06.09.02.13a.2.2 0 0 1-.13.07c-.1.01-.19.03-.28.06Z"/><path d="M5.06 8.67c.16.08.33.16.48.27.09.06.12.14.14.24a2.09 2.09 0 0 1 0 .43c-.01.01-.02.02-.04.01-.3-.13-.58-.27-.84-.42a.9.9 0 0 1-.18-.15.88.88 0 0 1-.2-.4c-.02-.06-.04-.18 0-.22.04-.03.14 0 .17.01.15.06.3.14.47.23Z" fill="#F7F7F7"/><path d="M9.03 9.07c-.07 0-.22.01-.27.07-.03.05-.08.07-.13.02-.06-.06-.07-.18-.05-.26.01-.07.1-.1.16-.1.22-.02.44-.02.65.05.06.02.2.1.13.18-.05.05-.19.05-.25.05h-.24Z"/><path d="M7.5 9.6c.07.02.14.07.12.17a4.76 4.76 0 0 1-.14.49h-.02a15.55 15.55 0 0 0-.69-.27l-.3-.09a.22.22 0 0 1-.1-.04 1.3 1.3 0 0 1-.4-.51.23.23 0 0 1 0-.2L6 9.13h.02c.04 0 .08.02.1.03l.72.22.66.21ZM13.13 9.29c.03.07.07.12.09.1.02 0 0-.06-.03-.13s-.07-.12-.09-.11c-.01 0 0 .07.03.14ZM12.93 9.59l.15.48c.02.1-.07.16-.14.2a.12.12 0 0 1-.04.02h-.01c-.03-.03-.04-.08-.05-.1a2.75 2.75 0 0 1-.02-.73.02.02 0 0 1 .01 0 .02.02 0 0 1 .01 0c.04.04.06.08.09.13ZM5.1 9.73c.15.07.32.14.45.23.09.06.14.14.16.24.02.1.07.4-.1.42h-.02a9.32 9.32 0 0 1-.69-.96c.08.01.14.04.2.07ZM12.48 10.37c-.03.08-.1.12-.19.13a2.08 2.08 0 0 0-.16.03.39.39 0 0 1-.03-.12 1.68 1.68 0 0 0-.06-.35c-.02-.06 0-.12.06-.16.09-.06.19-.11.3-.16.03 0 .07 0 .08.02.1.15.06.46 0 .6ZM9.12 10.02a.2.2 0 0 1 .14.17l.02.32c0 .08-.07.1-.13.1h-.36a4.43 4.43 0 0 1-.95-.26c-.03-.02-.03-.05-.03-.09l.08-.35.06-.13.04-.01a29.3 29.3 0 0 1 1.13.25ZM11.53 10.04c.08 0 .17 0 .2.1l.08.27c.01.06-.01.1-.08.12a3.32 3.32 0 0 1-.88.06c-.06-.01-.07-.1-.08-.15v-.17c0-.06.02-.1.07-.11l.16-.04.53-.08ZM9.62 10.58c-.05-.02-.06-.08-.06-.13v-.22c0-.07 0-.15.1-.16h.13a13.2 13.2 0 0 1 .64.1c.03.12.06.23.07.33 0 .05-.02.09-.07.1l-.18.01a12.64 12.64 0 0 1-.63-.03ZM6.33 10.35c.3.14.57.27.86.35.13.03.2.13.17.27-.04.23-.13.46-.25.65-.03.07-.08.09-.14.06a20.62 20.62 0 0 1-1.04-.73.23.23 0 0 1-.06-.08c-.01-.04.02-.08.04-.11.1-.12.1-.3.11-.44 0-.03 0-.04.02-.06h.08l.21.09ZM7.56 11.4c.07-.12.1-.3.09-.42 0-.07.01-.12.1-.1l.09.02c.31.13.65.24 1 .33.09.02.14.07.15.15a14.63 14.63 0 0 1 0 .64c-.01.12-.04.22-.18.2a5.14 5.14 0 0 1-1.39-.37c-.04-.05 0-.13.01-.18l.13-.28ZM13.07 11.5l-.12.28c0 .02-.02.02-.03 0h-.01v-.08c.04-.15.1-.3.2-.46.02-.04.04-.08.08-.12h.01v.07l-.13.32ZM10.25 12.16c-.02.13-.1.15-.21.15-.23 0-.46 0-.68-.02-.1-.02-.1-.25-.1-.33a5.83 5.83 0 0 1 .06-.58l.02-.03h.03c.26.08.55.1.83.12.06 0 .14.02.14.1v.15l-.09.44ZM12.63 11.83l.04.01c.03 0 .1 0 .12.02a.02.02 0 0 1 0 .02c-.05.06-.14.1-.21.13a2.7 2.7 0 0 1-.35.08h-.01a.02.02 0 0 1 0-.03c.05-.17.13-.33.22-.49.04-.07.11-.2.2-.22h.01l.01.01v.01c0 .1-.13.4-.03.46ZM12.1 11.55c-.07.15-.16.31-.2.49V12.13c-.05.07-.26.1-.37.1-.03 0-.06-.02-.05-.06l.14-.41c.02-.06.08-.22.14-.22a2.07 2.07 0 0 0 .33-.07c.02 0 .03 0 .03.03l-.02.05ZM11.32 11.71c-.06.16-.13.32-.22.46-.05.09-.1.11-.19.13a1.3 1.3 0 0 1-.27.01c-.12 0-.1-.1-.08-.19.02-.14.05-.28.1-.42.01-.06.03-.13.1-.14.18-.02.35-.02.52.01.07.02.06.1.04.14Z" fill="#F7F7F7"/><path d="M8.12 13.05a15.76 15.76 0 0 1-2.59-1.22h.01a70.87 70.87 0 0 0 5.71 1.47c.18 0 .4 0 .59-.03.38-.07.7-.23.99-.5.05-.05.1-.09.17-.12h.02a.02.02 0 0 1 0 .02 1.28 1.28 0 0 1-.38.38c-.23.15-.48.24-.74.28a5.48 5.48 0 0 1-1.1.03c-.7-.02-1.3-.06-1.8-.1-.27-.03-.57-.1-.88-.2Z"/><path d="M6.4 12.64a10.86 10.86 0 0 0 1.4.53c.6.15 1.17.27 1.7.37.33.06.7.1 1.08.13.46.03.94.05 1.44.06.29 0 .58 0 .83-.13a6.94 6.94 0 0 0 .6-.4c.14-.11.14-.25.16-.41v-.01c.02.14.02.24.02.32 0 .07-.05.13-.12.19l-.2.15c-.22.14-.43.3-.69.33-.2.02-.4.02-.6.02-.67-.01-1.2-.03-1.57-.06-.48-.04-.97-.1-1.48-.2a41.86 41.86 0 0 1-1.18-.28c-.4-.11-.75-.23-1.04-.36a15.49 15.49 0 0 1-1.92-1.02l-.01-.02h.02c.1.03.2.07.29.12l.6.33.68.34Z"/></svg>