<!-- by TradingView --><svg width="18" height="18" viewBox="0 0 18 18" xmlns="http://www.w3.org/2000/svg"><path fill="#0F1427" d="M0 0h18v18H0z"/><path d="M6.07 6.18c-.02 0-.02.04 0 .12-.04-.01-.06.05-.03.2 0 .03.02.04.04.04l.3.02-.27.03a.07.07 0 0 0-.05.04l-.02.07-.48.16c0-.02-.04-.04-.1-.06l-.08-.16a.51.51 0 0 1-.05-.17c-.02-.22.06-.37.25-.44.14-.05.3 0 .49.15Z" fill="#949394"/><path d="M6.94 6.7c-.04-.1-.1-.14-.16-.13l.12-.02c.02 0 .04-.02.04-.04.02-.15-.01-.22-.08-.21.05-.04.08-.08.08-.11.21-.2.4-.24.56-.12.14.11.19.29.13.53a.1.1 0 0 1-.04.06c-.06.04-.1.07-.12.1a.22.22 0 0 1-.14.07.62.62 0 0 1-.4-.14Z" fill="#B0AAA8"/><path d="M11.22 6.33c-.14.04-.12.1.04.19-.06 0-.1.01-.12.06-.02.1.02.16.15.18-.16 0-.22.05-.17.16l-.1-.02c-.02 0-.04 0-.05.02-.1.11-.2.13-.32.04-.02-.02-.04-.01-.06.02l-.49.73a.06.06 0 0 0 0 .07c.08.14.1.28.02.44 0 .02-.02.03-.04.03h-.02c-.03 0-.04 0-.05.04 0 .03-.01.06-.03.08a.07.07 0 0 1-.06.02c-.19-.01-.22 0-.08.07-.06 0-.1.01-.11.03a.37.37 0 0 0-.16-.13.09.09 0 0 1-.05-.04l-.07-.15a.1.1 0 0 0-.06-.05.2.2 0 0 0-.07 0c.08 0 .1-.07.03-.19l.03.02c.03 0 .05-.01.05-.04.07-.25.23-.35.47-.3.04.01.07 0 .1-.04l.4-.6.03-.03.05-.03c.02-.02.02-.04 0-.06a.4.4 0 0 1-.1-.36.4.4 0 0 1 .22-.33.32.32 0 0 1 .35.04c.12.08.21.13.27.13Z" fill="#949394"/><path d="M6.94 6.18c0 .04-.03.08-.08.12h-.78c-.03-.08-.03-.12-.01-.13.29-.03.58-.03.87.01Z" fill="#C9C6C7"/><path d="M12.55 7.15a.25.25 0 0 1-.09.03l-.56-.19a.1.1 0 0 0 .05 0c.02-.01.03-.03.03-.06a.2.2 0 0 0-.03-.07l.07.06v-.07a.46.46 0 0 1-.04-.22c0-.02-.01-.04-.03-.04l-.23-.02.21-.02c.03 0 .05-.01.06-.04v-.1c.05 0 .14-.03.26-.1.06-.04.14-.03.24.01.22.11.3.3.22.59-.03.09-.07.14-.14.15-.04 0-.05.02-.05.06l.03.03Z" fill="#949394"/><path d="M6.08 6.3h.78c.07 0 .1.06.08.2 0 .03-.02.05-.04.05l-.12.02h-.4l-.3-.03c-.03 0-.04-.01-.04-.04-.03-.15-.01-.21.04-.2Z" fill="#0F1427"/><path d="m11.22 6.33.77.08v.1c-.01.03-.03.04-.06.04l-.21.02-.46-.05c-.16-.09-.18-.15-.04-.19Z" fill="#B0AAA8"/><path d="m11.26 6.52.46.05.23.02c.02 0 .03.02.03.04 0 .08.01.16.05.22v.06h-.01a.23.23 0 0 0-.06-.05.2.2 0 0 0-.14-.05l-.53-.06c-.12 0-.17-.06-.15-.17.02-.05.06-.07.12-.06Z" fill="#0F1427"/><path d="M6.78 6.57c.07-.01.12.03.16.12l-.9.01.02-.07a.07.07 0 0 1 .05-.04l.27-.03h.4ZM11.3 6.75l.52.06c.06 0 .1.02.13.05a.2.2 0 0 1 .03.07c0 .03 0 .05-.03.06a.1.1 0 0 1-.05 0l-.78-.07c-.05-.1 0-.16.17-.17ZM7.97 7.52c0 .05-.03.08-.07.1-.02.02-.05 0-.07-.04l-.37-.67c-.02-.03-.02-.06.02-.08l.02-.02c.04-.02.08-.01.1.03l.37.68Z" fill="#C9C6C7"/><path d="M5.46 6.8c.06.02.1.04.1.06l-.39.79c-.01.02 0 .05.01.07.08.08.1.18.07.3a.1.1 0 0 0 .01.08l.49.91a.15.15 0 0 1-.08.1c-.04-.02-.08-.05-.1-.1l-.32-.62a1.3 1.3 0 0 1-.1-.37V7.9c-.01-.02-.03-.04-.05-.04-.02 0-.04.01-.04.04-.01.1 0 .17.06.2.03 0 .03.03.02.06l-.06.12c-.02.03-.04.04-.07.03-.08-.04-.13-.03-.15.03-.01.03-.03.04-.06.03a.38.38 0 0 1-.25-.3c0-.02-.02-.03-.04-.03l-.36.02-.02-.16.35-.02c.03 0 .05-.02.06-.04.1-.2.22-.29.37-.29.02 0 .04.01.05.03A.1.1 0 0 0 5 7.6c.03 0 .05 0 .06-.03l.4-.77Z" fill="#B0AAA8"/><path d="m12.55 7.14.04.04c.12.23.22.48.3.73a.14.14 0 0 1-.1.06l-.33-.8.09-.03Z" fill="#C9C6C7"/><path d="M7.95 10.75c0 .03-.03.06-.1.11l-.42-.91c0-.02-.02-.03-.04-.02-.2.04-.34-.03-.44-.23a.09.09 0 0 1 0-.08c.04-.12.03-.16-.04-.12-.01-.05-.03-.07-.04-.06l.27-.29c.1-.1.17-.2.22-.3.12-.25.23-.45.32-.6a.54.54 0 0 0 .08-.23v-.07c.01-.17.06-.26.14-.28.02 0 .02-.01.01-.03v-.02a.13.13 0 0 0 .06-.1v.03c.01.02.03.03.05.02.19-.06.34 0 .44.2a.1.1 0 0 1 .01.07.82.82 0 0 0-.01.28c0 .03 0 .06-.02.08a.42.42 0 0 1-.2.15.08.08 0 0 0-.03.04l-.54 1a.14.14 0 0 0-.01.06c0 .19-.06.32-.18.4-.05.02-.05.04.01.06h.03c.02 0 .04.02.05.04l.38.8Z" fill="#B0AAA8"/><path d="M3.38 7.56h-.06c-.17 0-.31.15-.32.35v.11c0 .2.14.35.3.36h.08c.17 0 .3-.16.3-.35v-.12c.01-.19-.13-.35-.3-.35ZM4.13 7.9l.02.15a.69.69 0 0 1-.33.06c-.05 0-.08-.03-.09-.09v-.05c0-.09.02-.12.1-.12l.3.04Z" fill="#EF1112"/><path d="M12.9 7.91c0 .02.02.03.05.04a.1.1 0 0 0 .05.01c.19-.02.32.07.39.27 0 .03 0 .05-.02.07a.12.12 0 0 0-.05.11c0 .04.02.05.05.04l.02.02v.03c-.05.13-.12.2-.2.24a.4.4 0 0 0-.18.1c-.01-.03-.05-.04-.09-.03.02-.02.03-.05.03-.07 0-.03-.02-.05-.05-.05a.22.22 0 0 1-.16-.18.07.07 0 0 0-.04-.05c-.03-.01-.05-.04-.05-.08 0-.08.01-.17.05-.25a.1.1 0 0 1 .06-.05c.1-.04.1-.08.03-.11.05 0 .08-.02.1-.06Z" fill="#B0AAA8"/><path d="m14.6 8.1-.07.01c-.18.03-.3.2-.28.4v.1c.02.2.18.34.36.32l.07-.01c.18-.03.3-.2.28-.4v-.1c-.02-.2-.18-.34-.36-.31Z" fill="#EF1112"/><path d="M7.59 9.28v.04l-.01.01-.02-.01a.23.23 0 0 0-.15-.16c-.02-.02-.03-.03-.01-.06l.4-.72c.04-.06.04-.13.02-.21l.01-.02h.03c0 .1.07.16.18.19.01 0 .02.01 0 .03l-.46.84v.07Z" fill="#0F1427"/><path d="M10.58 9.15c-.05.03-.1.02-.17-.02l-.33-.77V8.3l.02-.03c.03-.05.06-.05.08 0l.4.88ZM13.8 8.38l-.01.14-.34-.04c-.04 0-.05-.02-.04-.06.02-.06.06-.1.12-.1.1.01.18.03.27.06Z" fill="#C9C6C7"/><path d="M13.8 8.52v-.14a.6.6 0 0 1 .38.03c.02.01.03.03.03.06v.07c-.01.03-.03.05-.05.05a.66.66 0 0 1-.37-.07Z" fill="#EF1112"/><path d="M5.67 9.1a.15.15 0 0 0 .08-.09c.05.07.11.13.2.18.08.05.1.13.07.24-.01.05 0 .12.02.22.01.02.01.04 0 .07-.06.13-.16.2-.28.23a.37.37 0 0 1-.34-.12c-.06-.07-.1-.2-.1-.38V9.4l-.01-.08-.44-.85c-.02-.05 0-.07.04-.07h.03c.05 0 .1.03.12.07l.36.7c.01.03.03.03.05.02a.22.22 0 0 1 .22-.02c.01 0 .02 0 .03-.02v-.02l-.01-.01-.04-.02Z" fill="#949394"/><path d="m9.84 8.46.38.8-.01.1c0 .03-.02.05-.05.04h-.03l-.4-.91c.02-.02.05-.03.11-.03ZM12.2 9.42c-.05-.03-.08-.06-.08-.1l.47-.76c.02-.03.04-.04.07-.01l.03.02c.03.03.03.05.01.08l-.5.77ZM12.92 8.8c.04 0 .07.01.1.05l-.53.82a.24.24 0 0 1-.05-.13l.48-.73Z" fill="#C9C6C7"/><path d="m10.58 9.15.21.2c.02.01.04.04.04.06.04.11.08.18.12.2-.03.02-.03.07-.02.15-.12.18-.26.29-.43.31-.02 0-.05 0-.06-.02l-.25-.2a.12.12 0 0 1-.04-.07.59.59 0 0 1 0-.17c0-.1 0-.16-.03-.22l.04.01c.03 0 .04 0 .05-.04v-.1c.05.03.08.05.1.04.07-.03.1-.09.1-.17.06.04.11.04.17.02ZM12.11 9.31c.01.05.04.08.1.1.06.1.13.15.23.13 0 .05.02.1.05.13.02.2-.02.36-.12.46-.1.12-.22.16-.36.11-.14-.04-.25-.17-.33-.39a.23.23 0 0 0 .03-.1c0-.02-.01-.04-.04-.05h-.04c.06-.01.12-.05.17-.12.03-.05.05-.08.08-.09.1-.04.17-.1.23-.18Z" fill="#949394"/><path d="M6.87 9.44c.02-.01.03.01.04.06 0 .04-.01.06-.03.08-.01.02-.03.02-.06.02h-.65c-.05 0-.07-.02-.08-.07v-.02c0-.05.02-.07.06-.07h.72ZM10.96 9.62l.67.07h.04c.03.02.04.04.04.07 0 .04-.02.07-.03.09l-.75-.09c-.01-.08 0-.13.03-.14Z" fill="#C9C6C7"/><path d="M9.94 10.88v.04c.13.23.11.43-.05.59a.3.3 0 0 1-.35.07c-.14-.05-.2-.16-.2-.32 0-.07-.02-.1-.03-.13a.08.08 0 0 1 0-.08c.08-.2.21-.29.4-.27.02 0 .04 0 .05-.03l.47-.71c.02-.03.04-.03.06-.02l.02.01c.03.02.04.05.02.09l-.39.76Z" fill="#EF1112"/><path d="m8.12 11.68-.1-.02v-.02c0-.03 0-.04-.02-.05l-.17-.06c-.02 0-.04 0-.06.03l-.12.23c-.1.02-.14 0-.12-.06l.16-.3a.17.17 0 0 0 .03-.08v-.15c-.01-.05 0-.11.04-.18l.1-.16c.06-.05.1-.08.1-.11v.03c.01.02.03.02.05.02.18-.04.31.04.4.24.02.02.02.04 0 .06a.2.2 0 0 0 .02.2c.02.03.02.05 0 .07-.08.13-.18.23-.3.31Z" fill="#949394"/><path d="M8.82 11.26c.03-.04.03-.08 0-.13l.4-.05c.05 0 .08.02.08.07v.09c0 .04-.02.06-.06.06l-.42-.04Z" fill="#EF1112"/><path d="M8.82 11.13c.03.05.03.1 0 .13l-.3.02c-.03 0-.04-.01-.04-.04v-.04c0-.04 0-.06.04-.07h.3Z" fill="#C9C6C7"/><path d="M8.02 11.67a.53.53 0 0 0-.17.28.93.93 0 0 0-.23.36l-.11-.06c-.02-.01-.02-.03-.02-.05l.16-.41.12-.23c.02-.03.04-.04.06-.03l.17.07c.02 0 .02.02.02.04v.03Z" fill="#0F1427"/><path d="m8.12 11.68-.17.33c-.06 0-.09-.01-.1-.06a.53.53 0 0 1 .17-.28l.1.01Z" fill="#C9C6C7"/><path d="M7.53 11.73c-.02.06.02.08.12.06l-.16.4c0 .03 0 .05.02.06l.1.06h.01a.93.93 0 0 1 .23-.36c.01.05.05.07.1.06l-.2.46a.23.23 0 0 0-.01.07c-.02.19-.07.32-.17.4a.3.3 0 0 1-.3.04.37.37 0 0 1-.22-.23.5.5 0 0 1 .03-.4c.02-.05.08-.1.17-.17l.03-.04.25-.41Z" fill="#EF1112"/></svg>