<!-- by TradingView --><svg width="18" height="18" xmlns="http://www.w3.org/2000/svg"><path fill="#D8191E" d="M0 0h18v18H0z"/><path d="M13.997 5.125l-.875 1.897a.062.062 0 01-.019.027.042.042 0 01-.027.01H11.25a.041.041 0 01-.023-.008.057.057 0 01-.018-.02.066.066 0 01-.002-.056l.002-.004.9-1.887a.06.06 0 01.018-.027.041.041 0 01.026-.01h1.798a.04.04 0 01.023.007.055.055 0 01.018.02.068.068 0 01.005.05z" fill="#fff"/><path d="M12.573 8.004H7.14L6.786 7h2.976c.02 0 .037-.023.044-.043l.522-1.889a.05.05 0 00-.022-.062.046.046 0 00-.022-.006H4.048a.046.046 0 00-.04.023.05.05 0 00-.005.045l1.85 4.9a.05.05 0 00.044.031h4.182l-1.155 3.258-.558-1.211c-.004-.013-.03-.046-.044-.046H6.57c-.032 0-.055.05-.044.08l1.197 2.888a.047.047 0 00.044.032h2.304a.047.047 0 00.044-.031l2.502-6.884c.006-.015.01-.041 0-.054-.005-.009-.024-.027-.044-.027z" fill="#fff"/></svg>