<!-- by TradingView --><svg width="18" height="18" viewBox="0 0 18 18" xmlns="http://www.w3.org/2000/svg"><path fill="url(#a)" d="M0 0h18v18H0z"/><path d="M7.89 11.73h.02l3.57-3.62c.12-.12.17-.26.13-.4a.38.38 0 0 0-.17-.24.37.37 0 0 0-.28-.06.42.42 0 0 0-.22.13L7.9 10.6c-.02.02-.03.02-.05 0L5.96 8.7c-.19-.2-.3-.42-.35-.66a1.2 1.2 0 0 1 .2-.94c.21-.28.49-.44.83-.48.37-.04.69.07.96.33l.26.26h.05l1.13-1.15c.23-.24.43-.41.58-.53a2.66 2.66 0 0 1 1.95-.5 2.75 2.75 0 0 1 1.76.96c.4.47.62 1.02.66 1.63a2.79 2.79 0 0 1-.84 2.21L9.04 14h-.06l-.51-.52c-.02-.02-.02-.04 0-.06l4.17-4.22a2 2 0 0 0-1.69-3.36c-.25.03-.5.11-.72.25-.15.09-.33.24-.55.46l-1.77 1.8h-.05a88.9 88.9 0 0 0-.8-.81.4.4 0 0 0-.23-.12.36.36 0 0 0-.25.05.4.4 0 0 0-.2.29c-.02.12.02.23.11.32l1.36 1.39c.02.02.04.02.06 0l2.16-2.19c.25-.25.41-.4.5-.46.17-.12.36-.2.57-.2.2-.02.39.01.57.1a1.18 1.18 0 0 1 .69.92c.05.4-.06.75-.35 1.04l-4.14 4.2h-.05C6.83 11.8 5.8 10.77 4.8 9.76a2.8 2.8 0 0 1-.71-2.62 2.8 2.8 0 0 1 1.82-2c.43-.15.86-.18 1.3-.12.44.07.84.25 1.18.52.02.01.02.03 0 .05l-.5.51c-.03.02-.06.03-.08 0-.3-.21-.65-.32-1.06-.3a2 2 0 0 0-1.6.85 2 2 0 0 0-.33 1.45c.04.26.13.5.26.73.1.15.27.35.52.6a328.76 328.76 0 0 1 2.29 2.29Z" fill="#fff"/><defs><linearGradient id="a" x1="2.16" y1="2.53" x2="14.59" y2="15.33" gradientUnits="userSpaceOnUse"><stop stop-color="#5F77FE"/><stop offset=".41" stop-color="#6B5CFF"/><stop offset="1" stop-color="#C052FF"/></linearGradient></defs></svg>