<!-- by TradingView --><svg width="18" height="18" viewBox="0 0 18 18" xmlns="http://www.w3.org/2000/svg"><path fill="#F0F3FA" d="M0 0h18v18H0z"/><path d="M14.03 5.73c-1.45.33-2.85.8-4.21 1.38l-.57-.35-.04-.02a.16.16 0 0 0-.08-.04l-.16-.1-1.4-.64c-.5-.1-1.01-.2-1.52-.28a1.54 1.54 0 0 1-.46-.16c-.35-.19-.7-.35-1.07-.51A5.94 5.94 0 0 1 9 3a5.95 5.95 0 0 1 5.03 2.73Z" fill="#231B17"/><path d="M4.52 5.01c.37.16.72.32 1.07.5.15.09.3.14.47.17l1.5.28-.83-.04a3.8 3.8 0 0 0-.9.1c-.12.03-.3.03-.55.03-.25-.01-.44 0-.55.03a.85.85 0 0 0-.48.31c-.07.1-.23.3-.46.64-.14.2-.35.41-.64.65.23-1.01.68-1.9 1.37-2.67Z" fill="#3F2C1E"/><path d="M14.74 7.25h-.32c-.5 0-.86.05-1.05.14l-1.03.47a.88.88 0 0 0-.25.22c-.02.03-.01.05.02.07l.06.02c.05.02.04.03 0 .04-.24.04-.48 0-.73-.1l-1.62-1c1.36-.59 2.76-1.05 4.21-1.38a6 6 0 0 1 .7 1.52Z" fill="#4F4743"/><path d="m7.56 5.96 1.4.63c-.5-.1-.9-.11-1.17-.03a5.7 5.7 0 0 1 1.42.18c-.17.06-.4.05-.7-.04a1.88 1.88 0 0 0-.32-.07.71.71 0 0 0-.44.13c-.15-.07-.27-.1-.38-.12-.1 0-.22.01-.38.05-.13.02-.24.04-.35.04-.49.03-1 .03-1.53-.01-.04 0-.04-.02-.01-.04l.07-.06c.02-.02.02-.04 0-.06-.09-.1-.18-.16-.28-.16a.11.11 0 0 0-.07.03c-.05.04-.14.15-.26.32a1.1 1.1 0 0 1-.3.25c-.44.26-.83.58-1.17.96l.06-.28c.29-.24.5-.45.64-.65l.46-.64a.85.85 0 0 1 .48-.31c.11-.03.3-.04.55-.03a3.46 3.46 0 0 0 .77-.06c.3-.05.53-.07.68-.07.28 0 .56.02.83.04Z" fill="#715038"/><path d="M7.75 6.76a.1.1 0 0 0 0 .07c.02.02.04.03.07.03h.07c.2-.03.3-.01.35.04.04.03.05.08.04.13a.53.53 0 0 1-.08.2c-.02.04-.05.04-.07 0-.13-.2-.28-.24-.46-.11-.17.1-.3.24-.42.4l-.22.58c0 .01-.01.02-.03.02l-.04-.01-.14-.18c-.06-.07-.1-.06-.12.03l-.05.26c0 .03-.01.05-.03.06a.78.78 0 0 1-.23.1c-.06.02-.1 0-.1-.05a6.79 6.79 0 0 0-.16-.55c-.06-.18-.2-.35-.43-.52-.03-.02-.06-.02-.09 0l-.14.12c-.03.02-.05.02-.07 0a1.2 1.2 0 0 1-.1-.1.49.49 0 0 0-.32-.16 1.6 1.6 0 0 0-.45.04c-.02 0-.03.02-.03.04v.03c-.01.04 0 .05.04.05l.48-.08c.04-.01.07 0 .08.04l.15.52c.01.02 0 .04-.01.06a.05.05 0 0 1-.06 0l-.26-.09c-.04-.02-.06 0-.04.04l.3.6v.03l-.03.02c-.03.01-.05 0-.07-.02a.68.68 0 0 0-.18-.18c-.02-.02-.04-.02-.06 0l-.01.03c0 .01 0 .03.02.05l.1.18v.03l-.03.02H4.9l-.2-.23c-.01-.02-.03-.03-.06-.02l-.02.01c-.04.02-.05.05-.03.1l.3.62c.06.1.04.1-.04.03a.8.8 0 0 0-.25-.15c-.1-.04-.2-.03-.26.03-.03.03-.02.04.01.05l.2.02c.04 0 .06.03.04.06v.06c.02.03.01.05-.02.06l-.1.03a.09.09 0 0 0-.05.03l-.34.42a.52.52 0 0 1-.04-.3c.01-.03 0-.05-.03-.06l-1-.36c0-.32.03-.65.09-.97.34-.38.73-.7 1.16-.96.14-.08.24-.17.3-.25.14-.17.22-.28.27-.32a.11.11 0 0 1 .07-.03c.1 0 .2.05.28.16.02.02.02.04 0 .06l-.07.06c-.03.02-.03.03 0 .04A11.28 11.28 0 0 0 7 6.69c.16-.04.29-.05.38-.05.1.01.23.05.38.12ZM8.97 6.6l.16.1a5.7 5.7 0 0 0-1.34-.14c.28-.08.67-.07 1.18.03Z" fill="#8E735A"/><path d="m9.21 6.74.04.02a.63.63 0 0 1-.28.14.6.6 0 0 1-.3-.04c-.3-.1-.6-.14-.92-.1.15-.1.3-.14.44-.13.07 0 .18.03.33.07.3.09.52.1.7.04Z" fill="#8E735A"/><path d="m9.25 6.76.57.35 1.62 1 .21.19c-.18-.1-.23.05-.17.47 0 .04.02.07.05.09l.17.12c.02.02.02.03-.01.04-.14.02-.23-.02-.28-.12-.05-.12-.1-.12-.13 0l-.03.12c-.04.11-.1.18-.2.23a4.55 4.55 0 0 0-.24.17c-.02.02-.02.04 0 .07v.04c.01.03 0 .04-.03.02a.16.16 0 0 0-.05-.03c-.03 0-.06 0-.07.03a.22.22 0 0 1-.1.1.1.1 0 0 1-.09 0c-.03-.03-.04-.05-.01-.08s.03-.1.02-.2c0-.03 0-.05.04-.06.15-.02.25-.1.3-.23a.09.09 0 0 1 .07-.05l.1-.03c.04-.01.06-.03.06-.07a.45.45 0 0 0-.08-.32c-.02-.03-.05-.03-.08-.01l-.45.38a.07.07 0 0 0-.03.07.64.64 0 0 1-.1.44.1.1 0 0 0-.01.07c.01.1-.02.18-.1.25a.03.03 0 0 0 0 .04c0 .01 0 .02.02.03.14.02.23 0 .28-.1a.08.08 0 0 1 .06-.04l.21-.03c.05-.01.08 0 .09.05l.02.05c0 .05 0 .07-.05.08l-.3.05c-.06.01-.07.04-.05.09.07.12.09.22.05.3a.11.11 0 0 0 0 .08c.04.12.01.2-.08.26-.03.01-.03.03 0 .05a.1.1 0 0 0 .03.02c.03 0 .03.02.01.04a.56.56 0 0 0-.12.17.1.1 0 0 0 0 .08l.07.24c0 .02 0 .03-.02.02-.1-.04-.15-.1-.17-.17a.4.4 0 0 1 0-.13v-.12c0-.12-.06-.17-.16-.16-.06 0-.1-.02-.12-.07l-.18-.6a.1.1 0 0 0-.08-.07.7.7 0 0 0-.22 0c-.14.04-.14.07 0 .1.06.02.13.09.22.2.03.03.05.1.06.18a.3.3 0 0 0 .08.16c.07.07.06.1-.04.09l-.03-.03a.15.15 0 0 1-.04-.06c-.04-.11-.1-.17-.23-.18H9.5v-.02h.04c.03 0 .04-.02.04-.04s0-.03-.02-.03a.46.46 0 0 1-.15-.17.1.1 0 0 0-.06-.06.31.31 0 0 0-.23.01.44.44 0 0 0-.12.12c-.05.06-.1.1-.13.12-.02 0-.04 0-.05-.02v-.02a7.1 7.1 0 0 0 .27-.3c.03-.03.09-.05.17-.06h.04c.02 0 .03-.01.04-.03V9.9c0-.02-.02-.03-.04-.04-.1-.04-.23-.02-.37.05-.18.1-.27.22-.26.37 0 .03 0 .05-.02.08-.06.08-.1.16-.14.24l-.02.03a.18.18 0 0 1-.03.02c-.03 0-.05 0-.04-.03a2.07 2.07 0 0 1 .31-.78c.08-.13.05-.16-.08-.07a.95.95 0 0 0-.4.6c0 .03-.02.04-.05.05h-.03l-.03-.06a2.4 2.4 0 0 1 .05-1.09c.01-.06.06-.09.12-.08l.36.04.01-.03c0-.01 0-.02-.02-.02l-.38-.15c-.05-.01-.1 0-.12.05-.14.24-.27.44-.41.6-.08.08-.1.07-.06-.05l.04-.13a3.05 3.05 0 0 1 .62-.98c.13-.16.1-.22-.1-.16l-.5.1c-.07 0-.08-.01-.04-.06l.5-.55a1 1 0 0 0 .25-.6c0-.07-.01-.07-.05-.03-.29.3-.67.4-1.16.3.12-.16.25-.3.42-.4.18-.13.33-.09.46.1.02.05.05.05.07.01a.53.53 0 0 0 .08-.2c.01-.05 0-.1-.04-.13-.04-.05-.16-.06-.35-.05l-.07.01a.06.06 0 0 1-.07-.03.1.1 0 0 1 0-.07c.31-.04.62 0 .92.1a.6.6 0 0 0 .3.04c.1-.02.2-.07.28-.14Z" fill="#B27C53"/><path d="M7.25 7.52c.5.1.88 0 1.16-.3.04-.04.06-.04.05.03a1 1 0 0 1-.26.6c-.18-.12-.36-.09-.53.1a.8.8 0 0 1-.19.14.1.1 0 0 1-.07 0l-.2-.05c-.04-.01-.06 0-.08.02a.92.92 0 0 0-.07.19.44.44 0 0 1-.09.16.55.55 0 0 0-.06.1c-.06.1-.05.18.03.23.03.03.03.04 0 .04l-.07.01c-.02 0-.03.01-.03.03 0 .02 0 .04.02.05l.04.03c.03.01.02.03 0 .05a.25.25 0 0 1-.1.03c-.02 0-.03.02-.03.05v.02c.01.02.02.02.03.02H7c.04 0 .04.02 0 .04l-.26.2c-.02.03-.02.05.02.07l.02.01v.02c-.16 0-.26.06-.29.2 0 .03 0 .04.03.02a3 3 0 0 1 .28-.2.21.21 0 0 1 .2-.01l.07-.01a.07.07 0 0 0 .04-.06v-.07c0-.02.02-.03.04-.03h.12l.08-.02a.46.46 0 0 1 .2-.07c.05 0 .06 0 .02.04l-.3.2c-.03.02-.02.04 0 .06l.03.01c.03.02.03.04 0 .05-.06.03-.1.07-.1.11 0 .04 0 .05.04.03.14-.08.22-.16.26-.25.01-.03.03-.04.06-.04s.05.01.06.03v.05l-.02.01c-.03.03-.02.04.03.03l.1.01-.04.13c-.04.12-.02.13.06.04.14-.15.28-.35.41-.6.03-.04.07-.05.12-.04l.38.15c.01 0 .02 0 .02.02v.02h-.01L8.3 9.2c-.06 0-.1.02-.12.08-.1.33-.11.69-.05 1.09 0 .03.02.05.03.05h.03c.03 0 .05-.01.05-.04.06-.26.2-.46.4-.6.13-.09.16-.06.08.07l-.03.06c-.17.3-.26.54-.28.72 0 .03 0 .04.04.03l.03-.02.02-.03c.03-.08.08-.16.14-.24a.12.12 0 0 0 .02-.08c0-.15.08-.27.26-.37.14-.07.27-.09.37-.05.02.01.04.02.04.04v.03c0 .02-.02.03-.04.03h-.04c-.08.01-.14.03-.17.07a7.1 7.1 0 0 1-.27.29v.02c.01.02.03.03.05.02a.55.55 0 0 0 .13-.13c.05-.06.09-.1.12-.11a.31.31 0 0 1 .23-.01.1.1 0 0 1 .06.06c.02.05.07.1.15.17.01 0 .02.01.02.03 0 .03-.01.04-.04.04h-.03l-.01.01.02.01c.11.01.19.07.22.18a.15.15 0 0 0 .07.09c.1 0 .11-.02.04-.09a.3.3 0 0 1-.07-.16.42.42 0 0 0-.07-.18c-.09-.11-.16-.18-.22-.2-.14-.03-.14-.06 0-.1a.7.7 0 0 1 .22 0 .1.1 0 0 1 .08.07l.18.6c.02.05.06.08.12.07.1-.01.16.04.17.16v.12c-.02.06-.02.1-.01.13.02.08.08.13.17.17.02.01.03 0 .02-.02l-.07-.24a.1.1 0 0 1 0-.08.56.56 0 0 1 .12-.17c.02-.02.02-.03 0-.04a.1.1 0 0 1-.04-.02c-.03-.02-.02-.04 0-.05.09-.06.12-.14.08-.26v-.08c.04-.08.02-.18-.04-.3-.03-.05-.02-.08.04-.09l.3-.05c.04 0 .06-.03.05-.08l-.02-.05c-.01-.04-.04-.06-.09-.05l-.2.03a.08.08 0 0 0-.07.05c-.04.08-.14.11-.28.09a.04.04 0 0 1-.03-.03l.01-.04c.08-.07.12-.15.1-.25 0-.02 0-.05.02-.07a.64.64 0 0 0 .09-.44c0-.03 0-.05.03-.07l.45-.38c.03-.02.06-.02.08 0 .07.1.1.21.08.33 0 .04-.02.06-.05.07l-.11.03a.09.09 0 0 0-.06.05.38.38 0 0 1-.31.23c-.04 0-.05.03-.04.06.01.1 0 .17-.02.2-.03.03-.02.05.01.07a.1.1 0 0 0 .09 0 .22.22 0 0 0 .1-.09c.02-.02.04-.03.07-.03l.05.03c.03.02.04.01.04-.02l-.02-.04c-.01-.03 0-.05.02-.07a4.75 4.75 0 0 1 .24-.17.39.39 0 0 0 .19-.23c0 .1.06.2.15.27l.1.08c.03.04.07.05.11.04.05-.02.07-.04.05-.07l-.03-.02a.49.49 0 0 1-.2-.15c-.08-.13-.05-.16.09-.08l.14.08c.03.01.04.03.04.06v.03c0 .03.01.04.04.04.1 0 .21.03.31.1.05.02.05.04 0 .06a.4.4 0 0 1-.19-.02.1.1 0 0 0-.1.03l-.16.2c-.04-.12-.1-.19-.2-.21-.03.01-.08-.05-.13-.2-.01-.05-.04-.06-.1-.04-.1.05-.18.13-.24.25a.73.73 0 0 0-.04.34l.02.47c0 .05 0 .09-.04.12a.07.07 0 0 0-.01.07c.03.1.08.13.17.1.01.02.02.04.01.06l-.14.1c-.03.02-.03.04 0 .06a.2.2 0 0 0 .13.02c.02 0 .04.01.05.03l.1.2c.01.03.02.05.01.08l-.03.33c0 .03-.02.05-.06.06a.63.63 0 0 1-.35.02l.2-.08c.03-.01.03-.03 0-.04a.14.14 0 0 0-.14.03.13.13 0 0 1-.08.02h-.16a.29.29 0 0 1-.15-.04.29.29 0 0 0-.18-.04.07.07 0 0 1-.07-.04l-.21-.37a.17.17 0 0 0-.07-.06c-.21-.13-.34-.2-.37-.24-.2-.2-.42-.23-.65-.06-.02.01-.02.03 0 .04l.01.04c.02.03.04.03.06 0 .1-.11.22-.14.35-.07.06.04.16.12.3.26a.45.45 0 0 0-.18.03.5.5 0 0 0-.45-.07c-.03 0-.03.02-.02.04l.02.02c-.1-.02-.15.02-.16.11 0 .03-.02.04-.05.04a.15.15 0 0 1-.1-.04 12.99 12.99 0 0 1-.88-.33.86.86 0 0 0-.38-.06c-.06 0-.1.03-.1.09 0 .03.01.05.04.06l.48.29c-.16-.07-.3-.11-.4-.11a.16.16 0 0 1-.14-.07.21.21 0 0 1-.04-.16s0-.03-.04-.05a.08.08 0 0 0-.07-.02c-.08.01-.14-.02-.18-.1a.07.07 0 0 0-.06-.03.07.07 0 0 0-.06.04c-.05.1-.13.15-.22.13a.1.1 0 0 1-.07-.05l-.13-.23a.22.22 0 0 0-.06-.06c-.08-.07-.22-.1-.41-.1-.03.01-.06 0-.08-.02a.53.53 0 0 0-.18-.09.14.14 0 0 1-.07-.04c-.23-.26-.47-.28-.74-.06-.03.03-.03.05.02.04.14-.02.27.04.38.18a1.28 1.28 0 0 0-.82.04l-.37-.65.34-.42a.09.09 0 0 1 .04-.03l.11-.03c.03-.01.04-.03.03-.06a.07.07 0 0 1 0-.06c0-.03 0-.06-.05-.06l-.2-.02c-.03 0-.04-.02-.01-.05.07-.06.16-.07.26-.03a.8.8 0 0 1 .25.15c.08.07.1.06.05-.03l-.3-.62c-.03-.05-.02-.08.02-.1h.02c.03-.02.05-.01.07 0l.19.24h.03l.03-.02v-.03a.95.95 0 0 0-.1-.18l-.02-.05.01-.03c.02-.02.04-.02.06 0 .07.05.13.1.18.18.02.02.04.03.07.02l.03-.02v-.03l-.3-.6c-.02-.04 0-.06.04-.04l.26.1.06-.01a.06.06 0 0 0 .02-.06l-.16-.52c-.01-.03-.04-.05-.07-.04l-.49.08c-.03 0-.05-.01-.05-.05V7.2c.01-.02.02-.04.04-.04l.09-.01c.16-.03.28-.04.36-.03.12.02.23.07.31.16l.11.1c.02.02.05.02.07 0l.14-.12c.03-.02.06-.02.09 0 .22.17.37.34.43.52.04.12.1.3.15.55.02.05.05.07.1.06a.78.78 0 0 0 .24-.1.08.08 0 0 0 .03-.07l.05-.26c.02-.1.06-.1.12-.03l.14.18.04.01c.02 0 .03 0 .03-.02l.22-.58Z" fill="#BFA489"/><path d="M14.74 7.25c.27.89.33 1.8.18 2.72-.12-.03-.2-.12-.2-.27 0-.07-.04-.11-.08-.14-.02 0-.03-.03-.03-.05.02-.21-.03-.38-.15-.5.09-.05.13-.1.13-.15V8.3c0-.05 0-.1-.02-.15A4.73 4.73 0 0 0 14.5 8a.1.1 0 0 0-.08-.06.1.1 0 0 0-.1.03l-.7.75-.8-.1c-.07 0-.13-.06-.18-.18 0-.03-.03-.03-.05-.03l-.04.01a.39.39 0 0 1-.13.02 4.04 4.04 0 0 1-.78-.14l-.21-.2c.25.11.49.15.73.1.04 0 .05-.01 0-.03l-.06-.02c-.03-.02-.04-.04-.02-.07.11-.12.2-.2.25-.22.34-.16.69-.3 1.03-.47.2-.09.54-.13 1.05-.14h.32Z" fill="#68635F"/><path d="m8.2 7.85-.49.55c-.04.05-.03.06.03.06.15-.02.31-.05.5-.1.2-.06.24 0 .11.16l-.11.15c-.26.33-.43.6-.5.83a.23.23 0 0 0-.1 0c-.06 0-.07-.01-.04-.04l.02-.01V9.4a.08.08 0 0 0-.06-.03c-.03 0-.05.01-.06.04-.04.09-.12.17-.26.25-.03.02-.05 0-.04-.03 0-.04.04-.08.1-.11.03-.01.03-.03 0-.05h-.02c-.03-.03-.04-.05 0-.07l.28-.2c.05-.03.04-.04-.01-.04a.46.46 0 0 0-.2.07.16.16 0 0 1-.08.02h-.12c-.02 0-.03 0-.04.03v.07c0 .03-.02.05-.04.06a.08.08 0 0 1-.07 0 .21.21 0 0 0-.2.03 3 3 0 0 0-.28.19c-.03.02-.04.01-.03-.02.03-.14.13-.2.29-.2v-.02l-.02-.01c-.04-.02-.04-.04-.02-.06l.27-.2c.03-.03.03-.05-.01-.05h-.2c-.01 0-.02 0-.02-.02v-.02c-.01-.03 0-.04.03-.05.03 0 .05-.02.08-.03.03-.02.04-.04.01-.05l-.05-.03-.02-.05c0-.02.02-.03.04-.03h.07c.03-.01.03-.02 0-.05-.08-.05-.09-.13-.03-.23a.55.55 0 0 1 .06-.1.44.44 0 0 0 .1-.16.92.92 0 0 1 .06-.19c.02-.02.04-.03.07-.02l.2.06a.1.1 0 0 0 .08-.01.8.8 0 0 0 .19-.15c.17-.18.35-.2.53-.09Z" fill="#D6AC89"/><path d="M10.13 7.93c.04-.06.1-.12.19-.18.03-.01.05 0 .07.02.04.04.03.09 0 .13-.16.17-.4.34-.75.5l-.25.13a.05.05 0 0 1-.05 0L9.3 8.5c-.02 0-.02-.02 0-.04.21-.23.47-.4.76-.48a.1.1 0 0 0 .06-.05Z" fill="#8E735A"/><path d="M4.12 8.94v.03c0 .02 0 .04-.03.05l-.32.05a.1.1 0 0 1-.08-.02c-.3-.25-.41-.6-.33-1.04 0-.06.04-.1.1-.1l.32-.06c.09-.02.15.02.19.1.1.24.18.5.23.8 0 .03-.01.08-.06.12a.07.07 0 0 0-.02.07Z" fill="#AEA394"/><path d="M6.32 7.93c0-.02 0-.02.02-.02.05-.01.1 0 .13.03.04.03.06.07.07.12v.02c0 .05 0 .1-.03.14a.16.16 0 0 1-.11.06h-.01l-.02-.01-.05-.34Z" fill="#BFA489"/><path d="M14.46 9a1.2 1.2 0 0 1-.74-.02c-.02 0-.03-.02-.03-.05 0-.05 0-.08-.02-.1a.15.15 0 0 1-.07-.03.04.04 0 0 1-.01-.04c0-.02.01-.03.03-.04l.7-.75a.1.1 0 0 1 .1-.03.1.1 0 0 1 .1.06l.05.14.02.15v.57c0 .06-.04.1-.13.15Z" fill="#D4CCCC"/><path d="M5.8 8.32c.02.01.07.1.15.27.02.03.11.15.3.36l.02.07c.03.18-.01.32-.12.43-.1.1-.2.2-.3.25a.12.12 0 0 1-.1.01c-.04 0-.05-.03-.04-.06l-.01-.1a.1.1 0 0 0-.07-.05.43.43 0 0 0-.18 0l-.41.06-.09-.01-.13-.08a.1.1 0 0 0-.09-.01.33.33 0 0 1-.18 0c-.05 0-.05-.02 0-.03a.49.49 0 0 1 .13-.01.1.1 0 0 0 .08-.03.25.25 0 0 0 .06-.1c.01-.03.03-.05.06-.06.03 0 .06 0 .1.03.02.02.05.02.07 0l.01-.03c0-.02 0-.04-.02-.06-.07-.06-.11-.16-.12-.3 0-.04 0-.05.04-.02l.14.1c.04.01.06.02.08 0 .03-.01.04-.03.03-.06a.97.97 0 0 0-.2-.35C5 8.5 5 8.5 5.03 8.5h.43c.05 0 .07-.02.05-.07l-.07-.25c-.02-.05 0-.08.05-.08.1 0 .17.05.23.15l.08.07Z" fill="#DEEDF8"/><path d="M11.65 8.3c.26.07.52.12.78.14.04 0 .08 0 .13-.02h.04c.02-.01.04 0 .05.02.05.12.1.18.18.19l.8.1c-.03 0-.04.01-.04.03l.01.04.06.04c.03.09 0 .17-.08.24-.02.02-.03.04-.02.07.01.03.03.04.06.03l.1-.05c.06-.14.1-.13.11.03 0 .04.05.1.12.16.02.02.02.04.02.06l-.03.09a.75.75 0 0 0-.05.2c0 .1-.04.2-.1.28 0 .08.02.14.05.18.04.05.06.1.05.16a.21.21 0 0 1-.1.15.2.2 0 0 0-.08.13c0 .02-.01.03-.03.04l-.02.01c-.03.02-.05.01-.05-.02a.48.48 0 0 0-.09-.22.1.1 0 0 0-.08-.05.1.1 0 0 0-.08.04l-.26.37h-.02a.81.81 0 0 0-.23-.2c-.08-.05-.15-.15-.2-.3-.03-.15-.1-.2-.22-.17-.03 0-.04.02-.01.05l.1.11c.07.1.04.14-.09.11a.8.8 0 0 0-.24 0c-.06 0-.1.03-.12.07-.01.03 0 .05.02.07l.07.04v.05l-.28-.07.08-.02c.02 0 .03-.02.01-.04 0-.02-.03-.03-.08-.05a.17.17 0 0 0-.18.03.48.48 0 0 1-.29.12c-.03 0-.05 0-.06-.04l-.02-.13c0-.02-.02-.03-.04-.04h-.06a.9.9 0 0 1 .02-.38.65.65 0 0 0 .03-.22l-.01-.23c-.01-.1-.06-.13-.16-.08l-.08.04c-.1.05-.14.12-.12.23.04.27.06.53.05.78 0 .02.02.06.06.1-.09.03-.15 0-.17-.1l.01-.07a.16.16 0 0 0 .04-.12l-.02-.47c-.01-.16 0-.27.04-.34.06-.12.14-.2.25-.25.04-.02.08 0 .1.04.04.15.08.21.12.2-.02.25.04.32.2.2l.16-.19a.1.1 0 0 1 .1-.03.4.4 0 0 0 .18.02c.06-.02.06-.04.01-.07a.61.61 0 0 0-.31-.09c-.03 0-.04 0-.04-.04v-.03a.07.07 0 0 0-.04-.06l-.15-.08c-.13-.08-.16-.05-.08.08.03.05.1.1.2.15.02 0 .03.02.03.02.02.03 0 .05-.05.07a.11.11 0 0 1-.12-.04.97.97 0 0 0-.09-.08.38.38 0 0 1-.15-.27l.03-.11c.04-.13.08-.13.13-.01.05.1.14.14.28.12.03-.01.03-.02 0-.04l-.16-.12a.13.13 0 0 1-.05-.09c-.06-.42 0-.58.17-.47Z" fill="#D6AC89"/><path d="M14.46 9c.12.13.17.3.15.5 0 .03 0 .05.03.06.04.03.07.07.08.14 0 .15.08.24.2.27-.04.24-.1.48-.17.72-.2.06-.4.16-.6.3-.17 0-.33-.03-.5-.09.07 0 .1-.04.13-.12 0 .06.04.1.09.1.3.02.45-.11.47-.39.06-.08.06-.12 0-.13.07-.01.1-.03.13-.06.02-.02.02-.04-.01-.05a.68.68 0 0 0-.35-.06c-.03 0-.05 0-.06-.03a.32.32 0 0 1-.07-.15.07.07 0 0 0-.05-.06.2.2 0 0 0-.13 0 .52.52 0 0 0 .1-.27c0-.07.01-.14.04-.21l.03-.09c0-.02 0-.04-.02-.06-.07-.07-.11-.12-.12-.16-.01-.16-.05-.17-.11-.03l-.1.05c-.03 0-.05 0-.06-.03 0-.03 0-.05.02-.07.08-.07.1-.15.09-.24.02.01.03.04.02.1 0 .02 0 .04.03.04.27.09.51.1.74.03Z" fill="#E2C6A5"/><path d="m4.07 9.65.37.65.4.65.13.28c.06.11.11.2.18.25.05.04.17.07.36.1.03.01.05 0 .07-.02.06-.06.14-.1.26-.14.02 0 .04-.03.05-.05 0-.04 0-.08-.04-.13a.1.1 0 0 1-.01-.08c0-.02.03-.06.08-.13a.06.06 0 0 0 .01-.06l-.12-.26a.1.1 0 0 0-.06-.04.93.93 0 0 1-.49-.4c-.11-.15-.24-.2-.38-.19-.05 0-.05 0-.02-.04.27-.22.51-.2.74.06l.06.04c.08.02.14.05.2.1l.07.02c.19 0 .32.02.4.09.03.01.05.04.07.06l.13.23a.1.1 0 0 0 .07.05c.1.02.16-.03.21-.13a.07.07 0 0 1 .07-.04c.03 0 .05.01.06.04.04.07.1.1.18.09.03 0 .05 0 .07.02.03.02.04.04.04.05 0 .06.01.11.04.16.04.04.08.07.13.07.1 0 .24.04.41.1.32.16.66.29 1 .4.2.05.34.12.42.2l.45.44c.05.05.1.14.14.28l.11.33c.06.18.07.38.04.61 0 .06.03.12.1.19l-.05.01c-.02 0-.03.02-.03.05v.03c-.08-.17-.12-.3-.1-.38a2.33 2.33 0 0 0-.27-.94c-.05-.1-.13-.13-.25-.1l-.06-.01-.82-.49-.01-.01v-.04c.03-.02.03-.04-.02-.05a.59.59 0 0 1-.2-.1l-.2-.14a1 1 0 0 0-.2-.09c-.2-.04-.35-.08-.45-.12a.1.1 0 0 1-.06-.06V11a.06.06 0 0 0-.07-.05 5.5 5.5 0 0 1-.29-.05c-.1-.02-.18.03-.23.14-.03.07-.07.08-.12.03-.07-.07-.13-.1-.2-.1-.03 0-.04-.01-.04-.04 0-.04 0-.07.02-.1a.06.06 0 0 0 0-.07.06.06 0 0 0-.06-.03l-.3.05a.06.06 0 0 0-.05.04v.05c.08.14.07.26-.03.36a.09.09 0 0 0-.03.08l.02.11c0 .04 0 .06-.04.09-.05.04-.15.1-.3.17-.1.05-.2.05-.31 0a1.1 1.1 0 0 1-.28-.16.9.9 0 0 1-.2-.32.79.79 0 0 0-.2-.32.05.05 0 0 0-.06 0c-.01 0-.02.01-.02.03v.02c.04.06.05.1.03.13-.02.03-.04.03-.05 0l-.05-.06a.1.1 0 0 0-.08-.04c-.05 0-.09.02-.12.07a.06.06 0 0 1-.06.03c-.03 0-.06-.03-.07-.08v-.05a.05.05 0 0 1 .05-.02c.05 0 .1 0 .13-.02l.03-.03c0-.02 0-.04-.02-.05-.07-.05-.14-.06-.2-.01a.8.8 0 0 0-.19.2c-.03.04-.02.07.02.1l.1.07v.03l-.06.03H4a.3.3 0 0 0-.28-.07.9.9 0 0 0-.26.14A5.94 5.94 0 0 1 3 8.93l1 .36c.03 0 .04.03.04.06-.02.11-.01.21.03.3Z" fill="#4F4743"/><path d="M14.33 9.29a.15.15 0 0 1-.16-.02.04.04 0 0 1-.01-.04c0-.02 0-.03.02-.03a2.2 2.2 0 0 1 .2-.08h.03c.02.01.02.03.02.04 0 .06-.04.1-.1.13Z" fill="#8E735A"/><path d="m9.95 9.39.02-.12c0-.03.02-.05.06-.05h.06c.03 0 .05.01.06.04l.07.24c0 .03 0 .04-.03.04H9.6c-.02 0-.03 0-.03-.03v-.03l.02-.01h.27c.05 0 .08-.03.08-.08ZM8.84 9.52l-.59.24c-.1.04-.11.02-.05-.07.14-.21.35-.3.62-.3.02 0 .03.02.04.04v.03c.01.03 0 .05-.02.06Z" fill="#BFA489"/><path d="M11.24 10.33c0 .17.07.32.2.45a.6.6 0 0 0 .1.22l.06.07c.04.07.1.11.2.14.15.05.3.08.46.08.03 0 .05.02.07.04.03.05.07.06.11.05.01 0 .02 0 .02-.02l.07-.07.02.07.06.05c.04.02.07.06.1.1.01.03 0 .04-.03.05-.04.02-.1 0-.17-.04-.06-.04-.1-.03-.09.04l-.01.07-.25.06c-.4.07-.81.07-1.22 0a.03.03 0 0 1-.02-.02l-.02-.04c-.01-.04 0-.07.05-.07h.22c.05 0 .08-.02.08-.08 0-.3-.06-.59-.2-.85 0-.02 0-.04-.02-.06-.04-.04-.06-.08-.05-.1 0-.25-.02-.51-.06-.78-.02-.1.02-.18.12-.23l.08-.04c.1-.05.15-.02.16.08l.01.23c0 .06 0 .13-.03.22a.9.9 0 0 0-.02.38Z" fill="#DEEDF8"/><path d="M11.4 9.46c.1.02.16.1.2.2-.16.12-.22.05-.2-.2Z" fill="#DEEDF8"/><path d="M10.06 10.27a.4.4 0 0 1-.02 0H10l-.13-.5c-.01-.02 0-.05.02-.07l.07-.06c.03-.02.05-.02.07.02.07.2.1.39.07.58 0 .02-.02.03-.04.03ZM9.74 9.85c0 .03-.05.04-.13.04-.1-.01-.15-.04-.14-.09 0-.05.06-.06.16-.03.08.02.11.05.1.08Z" fill="#D6AC89"/><path d="m6.6 9.94.68-.11h.02v.06l-.6.18c-.02 0-.04 0-.06-.03l-.04-.07v-.03Z" fill="#8E735A"/><path d="M10.23 10.13v-.02c-.02-.03-.01-.06.02-.07.05-.03.09-.03.12 0 .02.01.03.03.02.06-.04.18-.05.36-.01.56 0 .02 0 .03-.02.04h-.03l-.19-.14c-.02-.01-.03-.03-.02-.05l.12-.32v-.06Z" fill="#E2C6A5"/><path d="m6.84 10.28-.14.08c-.03.02-.05.01-.05-.03v-.05c0-.02.01-.03.03-.04.07-.04.11-.05.14-.05.1.02.1.05.02.1Z" fill="#8E735A"/><path d="M11.88 10.5h-.12a.06.06 0 0 0-.04.06c0 .02 0 .04.03.06l.53.38c.03.02.03.04-.02.06a.06.06 0 0 1-.05 0c-.18-.07-.33-.18-.45-.35a.13.13 0 0 0-.07-.04c-.15-.05-.23-.01-.26.1a.68.68 0 0 1-.2-.44h.07c.02 0 .04.02.04.04l.02.13c0 .03.03.05.06.04.12 0 .21-.04.3-.12a.17.17 0 0 1 .17-.03c.05.02.08.03.09.05.01.02 0 .04-.02.04l-.08.02Z" fill="#B27C53"/><path d="M14.35 10.36c.05 0 .04.05-.01.13a.6.6 0 0 0-.27.11.1.1 0 0 1-.07.02c-.05 0-.07.01-.08.05-.03.1-.07.14-.14.11.06-.28.24-.42.57-.42Z" fill="#3F2C1E"/><path d="m10.75 11.53-.23.02a.48.48 0 0 1-.22-.05c-.05-.02-.12-.03-.2-.01-.05 0-.06-.01-.05-.05l.04-.04c.02-.02.02-.04.01-.07-.12-.21-.3-.36-.5-.45a1.82 1.82 0 0 0-.31-.26c-.13-.07-.25-.04-.35.08-.02.02-.04.02-.06 0l-.02-.05v-.04c.24-.17.46-.15.66.06l.37.24c.03.01.05.03.07.06l.21.37c.02.03.04.04.07.04.07 0 .13 0 .18.04.05.03.1.04.15.04h.16c.03 0 .05 0 .07-.02.05-.04.1-.05.15-.03.03.01.03.03 0 .04l-.2.08Z" fill="#715038"/><path d="M14.34 10.5c-.02.27-.18.4-.47.38-.06 0-.09-.04-.1-.1.08.03.12 0 .15-.1 0-.05.03-.07.08-.06a.1.1 0 0 0 .07-.02.6.6 0 0 1 .27-.1Z" fill="#AEA394"/><path d="M12.8 10.86c-.03 0-.07-.04-.1-.1a.08.08 0 0 0-.07-.05l-.42-.04-.05-.1v-.05c.33-.07.56.01.7.24.02.05 0 .08-.06.1Z" fill="#3F2C1E"/><path d="m8.96 10.9.04.02.07.27c.02.06.05.1.1.14l.14.15c0 .08.03.12.07.12l.27.05c.06.14.2.2.38.19a.33.33 0 0 0-.2.06c-.02.02-.02.04-.02.07.04.15.12.24.24.28.04.02.06.05.07.1.01.04 0 .08-.04.11a.37.37 0 0 0-.15.24l-.11-.33a.67.67 0 0 0-.14-.28l-.45-.43a1.07 1.07 0 0 0-.42-.22c-.34-.1-.68-.23-1-.38l-.48-.29a.06.06 0 0 1-.04-.06c0-.06.04-.09.1-.1.12 0 .24.02.38.07a12.99 12.99 0 0 0 .88.33c.03.03.06.04.1.04.03 0 .05-.01.05-.04.01-.1.07-.13.16-.1Z" fill="#C3CFDD"/><path d="M12.16 11.69c-.18.09-.3.14-.38.15-.38.06-.77.06-1.15 0 0-.04 0-.06-.03-.07-.02 0-.03 0-.04.04a.2.2 0 0 1-.09-.06c-.02-.03-.04-.03-.06 0l-.01.05c-.01.02-.03.03-.06.04h-.3c-.2.02-.33-.05-.4-.2.06.01.1 0 .13-.03.02-.02.01-.04-.02-.05l-.44-.08-.14-.15c.09-.01.17-.03.25-.07a.14.14 0 0 1 .08 0c.13.01.25.06.36.14h.01l.01-.02v-.02a1.27 1.27 0 0 0-.37-.2.1.1 0 0 0-.08 0 .44.44 0 0 1-.36.03L9 10.92h.4a.45.45 0 0 1 .2-.04c.2.09.38.24.5.45.01.03.01.05 0 .07a.12.12 0 0 0-.05.04c0 .04 0 .05.04.05.09-.02.16-.01.2.01.07.03.15.05.23.05.08 0 .15 0 .23-.02.13.03.24.02.35-.02a.08.08 0 0 0 .06-.06l.03-.33-.01-.08-.1-.2c-.01-.02-.03-.03-.05-.03a.2.2 0 0 1-.14-.02c-.02-.02-.02-.04 0-.06l.15-.1c.15.26.22.55.2.85 0 .06-.02.08-.07.08h-.22c-.04 0-.06.03-.05.07l.01.04.03.02c.4.07.81.07 1.22 0Z" fill="#D4CCCC"/><path d="m12.28 11 .27.08c.15.05.25 0 .32-.13a.06.06 0 0 1 .05-.03l.03.01c.03.1 0 .16-.08.2l-.33.16-.08.07c0 .01 0 .02-.02.02-.04.01-.08 0-.11-.05a.09.09 0 0 0-.07-.04c-.16 0-.31-.03-.46-.08a.35.35 0 0 1-.2-.14h.23c.03 0 .04-.01.04-.05 0-.03-.02-.05-.06-.06a.3.3 0 0 0-.27.04.6.6 0 0 1-.1-.22c.02-.12.1-.16.25-.11.03 0 .05.02.07.04.12.17.27.28.45.36h.06c.04-.03.04-.05 0-.07Z" fill="#E2C6A5"/><path d="M12.8 10.86c-.25.18-.44.12-.6-.2l.43.05c.03 0 .05.02.06.04.04.07.08.1.11.11Z" fill="#AEA394"/><path d="M14.75 10.7c-.06.22-.14.45-.24.67-.01-.02-.03-.03-.06-.04l-.07.01a.34.34 0 0 1-.16.05c-.11 0-.12-.03-.03-.1l.11-.07a.13.13 0 0 0 .06-.05.5.5 0 0 1 .18-.2l.01-.02v-.06c-.01-.02-.02-.02-.04 0a.5.5 0 0 1-.37.1c.2-.14.4-.24.61-.3ZM9.88 13.21c-.06-.3-.2-.25-.43.14-.02.03 0 .04.02.05.1.02.19.05.26.08.12.05.11.08-.02.1a.62.62 0 0 1-.2-.07.12.12 0 0 0-.07-.01.43.43 0 0 0-.24.12.09.09 0 0 1-.07.03.13.13 0 0 1-.09-.05l.14-.06a.07.07 0 0 0 .04-.06.06.06 0 0 0-.04-.07c-.1-.03-.2 0-.33.1v.03c0 .02.01.03.03.03.02 0 .04.02.06.04-.1.04-.15.1-.17.21-.02.09-.09.13-.2.11l-.03-.04c0-.03 0-.05.02-.07l.21-.2c.02-.02.03-.04.02-.06 0-.05 0-.09.02-.12a.1.1 0 0 1 .07-.04c.08-.02.13-.05.16-.1.01-.04 0-.06-.04-.06h-.05c-.04-.01-.05-.03-.04-.07 0-.02.02-.03.03-.04.03 0 .06 0 .08.02l.22.21c.02.02.04.03.07.02.02-.01.03-.03.03-.05 0-.07-.03-.1-.1-.13-.02 0-.03-.02-.02-.05a.15.15 0 0 1 .05-.07.06.06 0 0 0 .03-.06.06.06 0 0 0-.04-.05c-.08-.03-.14 0-.18.07a.06.06 0 0 1-.06.03.68.68 0 0 0-.29.03.18.18 0 0 1-.15 0l-.07-.05c-.06-.03-.06-.06 0-.08.08-.03.22-.05.41-.07.03 0 .06-.01.08-.03.09-.09.19-.09.3 0 .02.02.04.04.04.07.03.1.09.14.19.13h.03l.01-.02c.01-.03 0-.05-.02-.06-.07-.02-.12-.06-.14-.1a.07.07 0 0 1 0-.08l.08-.12v-.03c-.02-.02-.03-.02-.05 0-.1.05-.2.05-.27-.02-.03-.02-.03-.04 0-.06a.25.25 0 0 0 .05-.06c.01-.04 0-.06-.03-.05h-.07a.08.08 0 0 0-.06.05.52.52 0 0 1-.23.24.07.07 0 0 1-.07 0l-.05-.04c-.02-.01-.04 0-.06.02-.04.05-.09.1-.15.12a.34.34 0 0 1-.11.02c-.08 0-.14.03-.16.06a.08.08 0 0 1-.07.03c-.05 0-.09 0-.12.02-.04.02-.04.04-.02.08.13.17.3.29.48.34.03.01.04.03.05.06 0 .04-.01.06-.04.07-.06.04-.11 0-.17-.1 0-.03-.01-.02-.01 0-.02.06-.07.11-.16.15-.04.02-.05.05-.04.09l.01.03c.01.03.03.04.06.03a.3.3 0 0 0 .12-.09.07.07 0 0 1 .07-.03.4.4 0 0 0 .2-.05h.04c.03.01.03.03.01.05a.6.6 0 0 1-.35.19.08.08 0 0 0-.06.04l-.08.13c-.12.16-.09.2.09.1l.13-.07c.15-.08.18-.05.08.09l-.14.05c-.02 0-.02.02 0 .04v.02h.03a.55.55 0 0 1 .25-.1c.02 0 .05 0 .07-.02l.22-.12c.02-.02.04-.01.05 0 .04.04.09.07.15.1.03 0 .05 0 .07-.02.03-.05.06-.06.1-.06.02 0 .03.02.04.04l-.01.04c-.1.11-.2.11-.3 0h-.02l-.02.01v.04c-.01.03-.02.04-.05.05a.72.72 0 0 1-.36.06c-.12-.01-.2.03-.26.15a.31.31 0 0 1-.08.12c-.03.03-.03.05.02.05l.07.01c.04 0 .05.02.03.05l-.04.04a.1.1 0 0 1-.09 0 .09.09 0 0 1-.05-.05c-.01-.02-.03-.04-.07-.05-.03-.01-.03-.02 0-.04a.11.11 0 0 0 .05-.03c.02-.04.01-.06-.03-.07a.19.19 0 0 1-.06-.02.03.03 0 0 1 0-.03l.01-.03.13-.03c.02-.01.03-.02.03-.04v-.02c0-.03-.02-.04-.04-.04a.95.95 0 0 0-.3.07c-.1.04-.12.02-.07-.06a.94.94 0 0 1 .22-.24v-.04c0-.02-.02-.02-.03-.02l-.2.07a.1.1 0 0 0-.07.05l-.06.1c-.02.04-.03.04-.05 0v-.03l.04-.13c.01-.04 0-.06-.03-.07l-.2-.07c-.02-.02-.04 0-.05.02a.52.52 0 0 1-.08.16c-.02.03-.02.04.01.05.07 0 .13.03.2.07l-.17.42c-.01.02-.03.03-.05.02l-.5-.19c-.03 0-.03-.02-.02-.03v-.03l.04-.02.27.07c.02 0 .03 0 .03-.02v-.05c.01-.02 0-.03-.03-.03l-.51.03H6.5l-.01-.02c-.01-.02 0-.04.02-.05l.26-.1c.05-.02.06-.04 0-.06l-.15-.08a.14.14 0 0 0-.08-.01c-.2.02-.38.1-.54.22a5.96 5.96 0 0 1-2.55-2.89.9.9 0 0 1 .26-.14c.1-.02.2 0 .28.07h.02l.06-.03c.01 0 .02-.01 0-.03l-.1-.07c-.04-.03-.05-.06-.02-.1l.02-.02a.8.8 0 0 1 .16-.18c.07-.05.14-.04.2.01.02.01.03.03.03.05 0 .02-.02.03-.03.03a.29.29 0 0 1-.13.02c-.02 0-.03 0-.04.02a.05.05 0 0 0-.01.05c.01.05.04.07.07.08.03 0 .05-.01.06-.03.03-.05.07-.07.12-.07a.1.1 0 0 1 .08.04l.05.07c.01.02.03.02.05 0 .02-.03.01-.08-.03-.14v-.02c0-.02 0-.03.02-.04h.05c.07.06.14.17.21.33a.9.9 0 0 0 .2.32c.07.06.16.11.28.16.1.05.2.05.3 0 .16-.07.26-.13.31-.17a.08.08 0 0 0 .04-.09l-.02-.1c0-.04 0-.06.03-.09.1-.1.11-.22.03-.36a.06.06 0 0 1 0-.05l.05-.04.3-.05c.03 0 .05 0 .07.03v.08a.15.15 0 0 0-.03.09c0 .03.01.04.04.04.07 0 .13.03.2.1.05.05.09.04.12-.03.05-.11.12-.16.23-.14l.3.05c.02 0 .04.02.05.05l.01.05c.01.03.03.05.06.06.1.04.25.08.45.12a1 1 0 0 1 .4.23c.05.05.12.08.2.1.05.01.05.03.02.05v.04l.01.01.82.49c.02.01.04.02.06 0 .12-.02.2.01.25.1.15.3.24.62.26.95Z" fill="#7D7771"/><path d="m14.51 11.37-.01.03a.48.48 0 0 0-.32.17.13.13 0 0 0-.03.07c0 .08-.03.15-.1.2-.03.02-.03.04 0 .06l.05.03c.04 0 .06.02.07.05 0 .03 0 .07-.03.11-.12.2-.25.4-.4.58-.14-.04-.26-.14-.35-.32-.04-.07-.15-.14-.33-.22l-.17-.11c.08 0 .14-.02.2-.06.04-.02.04-.03 0-.04a.3.3 0 0 1-.25-.2c0-.02 0-.04.03-.05a.83.83 0 0 1 .32-.04c-.03.05 0 .1.12.16.02 0 .04.03.06.05.03.06.07.07.13.04.1-.06.18-.14.22-.24 0-.11 0-.19-.03-.23-.04-.09-.07-.2-.1-.33 0-.1.01-.15.07-.18.16.06.32.1.48.1a.5.5 0 0 0 .37-.12c.02-.01.03 0 .03.01l.01.06v.02a.5.5 0 0 0-.2.2.13.13 0 0 1-.05.05l-.11.07c-.09.07-.08.1.03.1.05 0 .1-.01.16-.05a.11.11 0 0 1 .07 0c.03 0 .05 0 .06.03Z" fill="#D4CCCC"/><path d="m11.6 11.07-.06-.07a.3.3 0 0 1 .27-.04c.04.01.06.03.06.06 0 .04-.01.05-.04.05h-.23Z" fill="#8E735A"/><path d="M9.17 11.33a.24.24 0 0 1-.1-.14c.12.04.24.03.36-.03a.1.1 0 0 1 .08 0c.13.04.25.1.37.2v.04h-.02a.79.79 0 0 0-.35-.15l-.08.01a.78.78 0 0 1-.26.07Z" fill="#715038"/><path d="M4.34 11.24h-.02a.03.03 0 0 1-.03-.01l.01-.03c.06-.04.1-.06.13-.04.03 0 .03.02.01.04a.17.17 0 0 1-.08.03l-.02.01Z" fill="#4F4743"/><path d="m14.5 11.4-.13.27-.04.08c-.06.11-.12.23-.2.34a.24.24 0 0 0 .04-.1c0-.04-.03-.05-.07-.06a.12.12 0 0 1-.05-.03c-.03-.02-.03-.04 0-.06.07-.05.1-.12.1-.2 0-.03.01-.05.03-.07a.48.48 0 0 1 .32-.17Z" fill="#7D7771"/><path d="m7.45 11.76-.02-.02c-.02-.02-.04-.03-.06-.01a.89.89 0 0 0-.29.3.1.1 0 0 1-.06.05.23.23 0 0 1-.11.02c-.1-.02-.1-.06-.02-.1l.18-.12c.03-.02.03-.04 0-.06l-.01-.01a.06.06 0 0 0-.04-.01l-.22.05c-.02 0-.04 0-.05-.02l-.01-.03c-.01-.02 0-.03.01-.04l.23-.13a.87.87 0 0 1 1.06.01c.02.02.03.04.02.06a.35.35 0 0 0-.03.14c0 .03.02.05.05.06.12.07.15.18.1.34-.02.03-.03.04-.06.05h-.14a.68.68 0 0 0-.3.04.46.46 0 0 1-.17.05c-.07 0-.12 0-.15-.02-.03 0-.03-.02 0-.04.2-.1.43-.18.67-.22.01 0 .03-.01.04-.04v-.03a.04.04 0 0 0-.05-.03c-.3-.01-.56.07-.8.24a.07.07 0 0 1-.06 0l-.12-.03c-.04-.02-.04-.03 0-.05.12-.03.2-.07.22-.1l.19-.25v-.05Z" fill="#969490"/><path d="M9.65 11.65a2.24 2.24 0 0 0-.27-.05c-.05 0-.07-.04-.07-.12l.44.08c.03.01.04.03.02.05-.03.03-.07.04-.12.04Z" fill="#8E735A"/><path d="M12.4 11.63c.03.04.03.08 0 .11a4.32 4.32 0 0 0-1.35.8.32.32 0 0 0-.1.08.14.14 0 0 0-.03.13c.03.1.07.18.1.24.05.06.04.1-.02.13-.03 0-.04.03-.03.06.04.2-.01.4-.16.57-.1.06-.21.09-.33.1a.45.45 0 0 1-.26-.1 3.91 3.91 0 0 1-.23-.16v-.03c0-.03 0-.04.03-.05l.05-.01c.2.29.46.31.74.07a.1.1 0 0 0 .04-.06l.07-.38v-.05a.78.78 0 0 1-.11-.37c-.01-.14-.06-.36-.15-.64a7.96 7.96 0 0 1-.06-.2.17.17 0 0 1 .03-.04c.39.07.77.07 1.15 0 .08 0 .2-.05.38-.14l.25-.06Z" fill="#3F2C1E"/><path d="M13.19 11.63c.17.08.35.08.52.01-.03.1-.1.18-.21.24-.06.03-.1.02-.13-.04a.11.11 0 0 0-.06-.05c-.11-.05-.15-.1-.12-.16Z" fill="#B27C53"/><path d="M13.7 11.93c-.04.02-.05 0-.02-.03l.21-.24c.02-.01.04-.02.06-.01h.02c.02 0 .02.01.02.02a.49.49 0 0 1-.28.26Z" fill="#E2C6A5"/><path d="M12.4 11.74c.13.14.29.23.49.28l.17.1-.28.15a.08.08 0 0 0-.05.07c0 .08 0 .15.03.22v.08c-.02.09.03.14.13.15.22.03.42.02.6-.04.03 0 .03 0 .02.02v.05a.87.87 0 0 0-.3.36c0 .02 0 .03.02.02l.09-.04c-.4.42-.86.78-1.37 1.06a.22.22 0 0 1-.04-.14c0-.03-.02-.04-.04-.04a.3.3 0 0 0-.18.06c-.07.06-.14.06-.21.02a.04.04 0 0 1-.02-.04c0-.02 0-.03.03-.04l.68-.2c.02 0 .03-.02.03-.04s0-.04-.02-.05l-.02-.02a.11.11 0 0 0-.12 0l-.29.14a.1.1 0 0 1-.09 0 .4.4 0 0 0-.32.02.16.16 0 0 1-.13 0c-.05-.02-.05-.04 0-.06l.07-.03c.01 0 .02-.02.01-.03 0-.01 0-.02-.02-.02-.15-.02-.3-.02-.46 0 .15-.17.2-.36.15-.57 0-.03 0-.05.04-.06.05-.03.06-.07.03-.13a.78.78 0 0 1-.1-.24c-.02-.04-.01-.09.02-.13a.32.32 0 0 1 .1-.08 4.32 4.32 0 0 1 1.36-.8Z" fill="#7D7771"/><path d="M4.58 11.99h-.02l-.04-.03c-.02-.02-.02-.03 0-.04l.18-.08c.16-.08.18-.06.06.07a.54.54 0 0 1-.18.08Z" fill="#4F4743"/><path d="m11.94 12.76-.03.02c-.05.01-.08.02-.1.01-.03 0-.03-.02 0-.04a.6.6 0 0 0 .13-.2.45.45 0 0 1 .12-.18 21.8 21.8 0 0 0 .37-.39h.04c.01.01.02.02 0 .03l-.53.75Z" fill="#3F2C1E"/><path d="M6.94 12.34a1.9 1.9 0 0 0-.4-.1c-.14-.01-.15-.05-.03-.13h.03a.1.1 0 0 1 .08 0l.28.12.03.02c.06.07.13.1.2.11.03 0 .03.02.01.05a.27.27 0 0 1-.09.08c-.03.02-.05 0-.07-.02v-.07c0-.03-.01-.05-.04-.06Z" fill="#969490"/><path d="M13.06 12.13c.18.08.3.15.33.22.1.18.21.28.35.32-.13.17-.27.34-.42.5l-.08.03c-.03 0-.03 0-.02-.02a.87.87 0 0 1 .29-.36v-.05c.01-.02 0-.03-.01-.02-.19.06-.4.07-.6.04-.11-.01-.16-.06-.14-.15v-.08a.42.42 0 0 1-.02-.22c0-.03.01-.05.04-.07l.28-.14Z" fill="#3F2C1E"/><path d="M11.42 12.43c.15-.18.28-.28.4-.29.16 0 .17.04.05.13l-.33.24c-.05.04-.09.03-.12-.01-.02-.03-.02-.05 0-.07Z" fill="#4F4743"/><path d="m5.38 12.63.02.12c0 .03-.01.05-.05.05-.01 0-.03 0-.03-.02l-.01-.03v-.05c0-.02 0-.04-.03-.04l-.1-.01c-.03 0-.04-.02-.05-.03v-.03c0-.02.02-.03.04-.03.2-.05.43-.06.69-.03.04 0 .07-.02.09-.05a.05.05 0 0 0 0-.06.05.05 0 0 0-.06-.02.36.36 0 0 1-.33-.1c-.02-.02-.02-.04 0-.06l.02-.03c.01-.02.03-.03.06-.01.12.08.25.12.37.14.04 0 .06.03.04.08l-.05.17c-.01.03-.04.05-.07.04l-.5-.05c-.04 0-.06.01-.05.05Z" fill="#68635F"/><path d="M11.92 12.33a.05.05 0 0 0-.08 0l-.25.25a.05.05 0 0 0 .08.08l.25-.25a.05.05 0 0 0 0-.08Z" fill="#4F4743"/><path d="m8.5 12.6.32-.19a.08.08 0 0 1 .08 0l.03.02v.03a.97.97 0 0 1-.37.2.07.07 0 0 0-.03.02.31.31 0 0 1-.1.11.08.08 0 0 1-.08 0 1.1 1.1 0 0 0-.2-.06c-.2-.02-.2-.05-.01-.09h.19c.08 0 .14-.01.18-.04ZM8.94 13.61l.1-.01c.03.03.06.05.1.05.02 0 .04 0 .06-.03.06-.06.14-.1.24-.12h.08c.1.06.16.08.19.08.13-.02.14-.05.02-.1a1.27 1.27 0 0 0-.26-.08c-.03 0-.04-.02-.02-.05.23-.39.37-.43.43-.14-.01.09.03.21.11.38l.23.17c.09.06.18.08.26.08.12 0 .23-.03.33-.1h.46c.02 0 .02.02.03.03 0 .01 0 .02-.02.03l-.07.03c-.05.02-.04.04 0 .06.05.02.1.02.13 0a.4.4 0 0 1 .33-.02.1.1 0 0 0 .08 0l.3-.15a.11.11 0 0 1 .11.01l.02.02c.02 0 .03.03.02.05 0 .02-.01.03-.03.04l-.68.2a.04.04 0 0 0-.03.04c0 .01 0 .03.02.04.07.04.14.04.21-.02a.3.3 0 0 1 .18-.06c.02 0 .04.01.04.04 0 .06.01.11.04.14a5.97 5.97 0 0 1-5.94-.02c.16-.12.34-.2.54-.22l.08.01.16.08c.05.02.04.04 0 .06l-.27.1c-.03.01-.03.03-.02.05l.01.02h.03l.51-.03c.03 0 .04 0 .04.03v.05c0 .02-.02.03-.04.02l-.27-.07c-.02 0-.03 0-.04.02v.03c-.01.01 0 .02.01.03l.5.19c.03 0 .05 0 .05-.02l.17-.42.11-.03.01.04c.02.03.03.03.05 0l.06-.11a.1.1 0 0 1 .07-.05l.2-.07c.01 0 .02 0 .03.02v.04a.94.94 0 0 0-.22.24c-.05.08-.03.1.06.06a.95.95 0 0 1 .3-.07c.03 0 .05.01.06.04v.02l-.04.04-.13.03a.03.03 0 0 0-.02.03l.01.03.06.02c.04 0 .05.03.02.07l-.04.03c-.03.02-.03.03 0 .04.04.01.06.03.07.05 0 .03.03.05.05.06a.1.1 0 0 0 .09-.01.12.12 0 0 0 .04-.04c.02-.03 0-.04-.03-.05h-.07c-.05-.01-.05-.03-.02-.06a.32.32 0 0 0 .08-.12c.05-.12.14-.16.26-.15.1.02.22 0 .36-.06.03 0 .04-.02.04-.05v-.04s.01-.02.03-.02h.03c.09.12.19.12.29.01a.04.04 0 0 0 0-.04.04.04 0 0 0-.03-.04c-.04 0-.07.01-.1.06-.02.02-.04.03-.07.02a.39.39 0 0 1-.15-.1c-.01-.01-.03-.02-.05 0l-.22.12a.18.18 0 0 1-.07.03.55.55 0 0 0-.25.1h-.03v-.03c-.02-.02-.02-.03 0-.04a.65.65 0 0 0 .14-.05c.1-.14.07-.17-.08-.09l-.13.07c-.18.1-.2.06-.09-.1l.08-.13a.08.08 0 0 1 .06-.04.6.6 0 0 0 .35-.19c.02-.02.02-.04 0-.05h-.05a.4.4 0 0 1-.2.05c-.03 0-.05.01-.07.03a.3.3 0 0 1-.12.09c-.03.01-.05 0-.06-.03v-.03c-.02-.04 0-.07.03-.09.1-.04.14-.09.16-.16 0-.01 0-.02.01 0 .06.11.11.15.17.11a.07.07 0 0 0 .04-.07.07.07 0 0 0-.05-.06.91.91 0 0 1-.48-.34c-.02-.04-.02-.06.02-.08a.26.26 0 0 1 .12-.02c.03 0 .05 0 .07-.03.02-.03.08-.05.16-.06.05 0 .08 0 .1-.02a.38.38 0 0 0 .16-.12c.02-.03.04-.03.06-.02l.05.03c.03.02.05.02.07 0 .1-.05.18-.12.23-.23a.08.08 0 0 1 .06-.05h.07c.03 0 .04.01.03.05l-.06.06c-.02.02-.02.04 0 .06.09.07.18.07.28.01h.05v.03l-.08.13a.07.07 0 0 0 0 .08c.02.04.07.08.14.1.03.01.03.03.02.06l-.01.01-.03.01c-.1 0-.16-.04-.19-.13a.11.11 0 0 0-.04-.07c-.11-.09-.21-.09-.3 0a.12.12 0 0 1-.08.03c-.2.02-.33.04-.41.07-.06.02-.06.05 0 .08l.07.04c.04.03.1.03.15.01.1-.03.2-.04.3-.03.02 0 .04 0 .05-.03.04-.08.1-.1.18-.07l.04.05c0 .03 0 .04-.03.06a.15.15 0 0 0-.05.07c-.01.03 0 .04.03.05.06.02.1.06.1.13 0 .02-.02.04-.04.05a.06.06 0 0 1-.07-.02l-.22-.21c-.02-.02-.05-.03-.08-.02a.06.06 0 0 0-.03.04c-.01.04 0 .06.04.06H9c.04.01.05.03.04.07-.03.05-.08.08-.16.1a.1.1 0 0 0-.07.04c-.02.03-.03.07-.02.12.01.02 0 .04-.02.06l-.21.2c-.02.02-.03.04-.02.07l.03.04c.11.02.18-.02.2-.1.02-.11.08-.18.17-.22Z" fill="#969490"/><path d="m7.18 13.65-.15-.02c-.03 0-.04.01-.04.04 0 .07.05.15.17.24.03.02.03.04 0 .05l-.24.12-.02-.01-.02-.03v-.01a.15.15 0 0 1 .11-.05c.04 0 .05-.02.04-.05L7 13.9a.06.06 0 0 0-.03-.01c-.11-.04-.17-.09-.18-.16 0-.03-.02-.05-.06-.04a.45.45 0 0 1-.36-.06c-.02-.02-.03-.04 0-.07.04-.06.1-.1.17-.13a1.22 1.22 0 0 1 .27-.05c.01 0 .02 0 .02-.02v-.03c0-.02-.02-.02-.03-.02a.74.74 0 0 0-.32.07.07.07 0 0 1-.07 0 .15.15 0 0 1-.06-.1c-.01-.02 0-.04.01-.06.02-.02.05-.03.07-.02.1.02.2.02.27 0 .03-.02.03-.04.02-.07 0-.02-.03-.04-.07-.05-.03-.01-.05-.03-.04-.07l.01-.03.04-.02c.08 0 .14.05.19.13 0 .02.03.03.06.02l.03-.01c.05-.02.1-.03.13-.02.34.06.56.08.67.07.07 0 .08-.03.02-.07-.1-.07-.18-.07-.25-.02h-.06l-.02-.03c-.01-.02 0-.04.02-.04l.06-.02c.01 0 .02-.01.02-.03l-.02-.02a.2.2 0 0 1-.07-.03.1.1 0 0 1-.05-.06c-.02-.1-.08-.13-.17-.1-.03 0-.05.02-.05.05v.05c-.01.04-.03.05-.07.03a.22.22 0 0 1-.08-.1c-.01-.02 0-.04.03-.05a.64.64 0 0 1 .4-.05c.03 0 .04.02 0 .05-.01.01-.02.03 0 .04.03.06.1.08.18.07l.25-.05c.01 0 .02 0 .01.02v.04l-.01.01a.64.64 0 0 0-.13.04c-.09.05-.08.08.01.1l.17.02c.02 0 .03.02.04.04 0 .02 0 .04-.03.05l-.04.02a.07.07 0 0 0-.04.06c0 .03.01.05.04.07l.26.12c.05.03.05.04-.02.05a.61.61 0 0 1-.26-.05.1.1 0 0 0-.08 0 .7.7 0 0 1-.37.06c-.05 0-.08.02-.08.06v.03c-.01.04 0 .07.06.06.08 0 .16.03.24.09.02.02.02.04 0 .06l-.02.02h-.06a.5.5 0 0 0-.44.08h-.03l-.03-.03c-.03-.01-.03-.03 0-.04l.11-.05c.05-.03.05-.04 0-.05Z" fill="#969490"/><path d="M8.7 13.27c.02-.05.06-.05.12-.03l.02.02c.03.04-.01.08-.11.13a.15.15 0 0 1-.12 0 .8.8 0 0 1-.37-.28c-.03-.04-.02-.07.01-.09l.03-.01c.03-.02.04-.01.06.01.08.17.18.27.3.28.03 0 .05 0 .06-.03Z" fill="#7D7771"/><path d="m9.04 13.6-.1.01a.13.13 0 0 0-.06-.04.04.04 0 0 1-.03-.03v-.03c.13-.1.23-.13.33-.1.03.02.04.04.04.07 0 .03-.01.05-.04.06l-.14.06ZM7.58 14.1l-.1.03a.45.45 0 0 0-.2-.07c-.03 0-.03-.02-.01-.05l.08-.16c0-.03.03-.04.05-.02l.2.07c.03 0 .04.03.03.07l-.05.13ZM7.15 14.24c.06.04.14.03.16-.01.02-.05-.01-.1-.08-.14-.06-.04-.13-.03-.15.01-.03.04 0 .1.07.14ZM8.98 14.64a.53.53 0 0 0-.18.04.4.4 0 0 1-.23.07c-.04 0-.05-.02-.02-.05a.31.31 0 0 1 .07-.08c.08-.05.22-.1.41-.13.06 0 .1.01.14.06.01.03 0 .05-.02.06a.5.5 0 0 1-.17.03Z" fill="#AEA394"/><path d="M8.98 14.64a.4.4 0 0 1 .07 0c.08.03.08.05 0 .08-.11.03-.2.02-.25-.04a.53.53 0 0 1 .18-.04Z" fill="#68635F"/></svg>