<!-- by TradingView --><svg width="18" height="18" viewBox="0 0 18 18" xmlns="http://www.w3.org/2000/svg"><path fill="url(#ahzt1v0av)" d="M0 0h18v18H0z"/><path d="M5.26 4H4.2c-.14 0-.23.12-.17.23L5.9 7.9c.03.06.1.1.17.1H7.3a.2.2 0 0 0 .17-.1l1.39-2.38a.1.1 0 0 1 .08-.04h.12a.1.1 0 0 1 .08.04l1.4 2.39c.03.06.1.09.17.09h1.22a.2.2 0 0 0 .17-.1l1.88-3.67c.06-.11-.03-.23-.17-.23h-1.02a.1.1 0 0 0-.08.05l-1.24 2.32c-.07.13-.27.13-.34 0L9.78 4.1A.2.2 0 0 0 9.61 4h-1.2a.2.2 0 0 0-.16.09L6.9 6.37c-.07.13-.28.12-.34 0L5.35 4.05A.1.1 0 0 0 5.26 4Zm0 10H4.2c-.14 0-.23-.12-.17-.23L5.9 10.1a.2.2 0 0 1 .17-.1H7.3a.2.2 0 0 1 .17.1l1.39 2.38a.1.1 0 0 0 .08.04h.12a.1.1 0 0 0 .08-.04l1.4-2.39a.2.2 0 0 1 .17-.09h1.22a.2.2 0 0 1 .17.1l1.88 3.67c.06.11-.03.23-.17.23h-1.02a.1.1 0 0 1-.08-.05l-1.24-2.32c-.07-.13-.27-.13-.34 0L9.78 13.9a.2.2 0 0 1-.17.09h-1.2a.2.2 0 0 1-.16-.09L6.9 11.63c-.07-.13-.28-.12-.34 0l-1.21 2.32a.1.1 0 0 1-.09.05ZM4.21 8.5c-.12 0-.21.1-.21.24v.52c0 .13.1.24.2.24h9.6c.1 0 .2-.1.2-.24v-.52c0-.13-.1-.24-.2-.24H4.2Z" fill="#fff"/><defs><linearGradient id="ahzt1v0av" x1="9" y1="0" x2="9" y2="18" gradientUnits="userSpaceOnUse"><stop stop-color="#0176F0"/><stop offset="1" stop-color="#8C54FE"/></linearGradient></defs></svg>