<!-- by TradingView --><svg width="18" height="18" viewBox="0 0 18 18" xmlns="http://www.w3.org/2000/svg"><path fill="url(#a)" d="M0 0h18v18H0z"/><circle cx="8.5" cy="8.5" r="4.5" fill="#fff"/><circle cx="8.5" cy="8.5" fill="url(#b)" r="4.39"/><circle cx="8.5" cy="8.5" r="2.5"/><circle cx="6.5" cy="10.5" r=".5" fill="#fff"/><circle cx="10.5" cy="6.5" r=".5" fill="#fff"/><path d="M13.57 11c-.62 0-1.29 1.02-1.54 1.52-1.39.24-2.03.58-2.03.96 0 .37.53.52.93.52s1.1-.2 1.8-.58A3 3 0 0 0 14 11.6c0-.34-.12-.61-.43-.61Z" fill="#060000"/><path d="M13.98 11.73a.93.93 0 0 0-.41-.1c-.41 0-1.03.33-1.33.52-.09.13-.16.27-.21.37-1.39.24-2.03.58-2.03.96 0 .37.53.52.93.52s1.1-.2 1.8-.58a3.13 3.13 0 0 0 1.25-1.7Z" fill="#AA3778"/><path d="M13.95 11.86c-.37 0-1.03.08-1.31.42-.2.21-.3.45-.31.54-.6.07-1.78.39-1.9 1.1.16.06.34.08.5.08.4 0 1.1-.2 1.8-.58a3.16 3.16 0 0 0 1.22-1.56Z" fill="#D2416B"/><defs><linearGradient id="a" x1="9" y1="0" x2="9" y2="18" gradientUnits="userSpaceOnUse"><stop offset=".26" stop-color="#FEB63F"/><stop offset=".5" stop-color="#D77F28"/></linearGradient><linearGradient id="b" x1="8.5" y1="4.11" x2="8.5" y2="12.89" gradientUnits="userSpaceOnUse"><stop offset=".32" stop-color="#6649F9"/><stop offset=".73" stop-color="#4A389B"/></linearGradient></defs></svg>