<!-- by TradingView --><svg width="18" height="18" viewBox="0 0 18 18" xmlns="http://www.w3.org/2000/svg"><path fill="#B22FAF" d="M0 0h18v18H0z"/><path d="M14.59 11.19a6.02 6.02 0 0 1-10.4 1.4A6 6 0 0 1 11 3.33a2 2 0 0 1 .68.26l.35.25a6 6 0 0 1 2.55 7.36Z" fill="#120507"/><path d="m5.35 7.1.04-.06c.03.02.05.04.06.07a.04.04 0 0 1 0 .03 2.16 2.16 0 0 0-.03 1.7 2.87 2.87 0 0 1-.36.62.06.06 0 0 0 .04.06.76.76 0 0 0 .33-.01.02.02 0 0 1 .01.01l-.05.3c-.04.15-.01.3-.01.46 0 .08.03.18.06.26.05.11.01.2-.06.3a7.11 7.11 0 0 1-.17.23c-.01.03 0 .05.03.06.07.02.14.04.21.04.02 0 .02.01.02.03-.02.25-.03.54.02.78.01.08.06.14.1.21a.02.02 0 0 1 0 .02h-.02c-.17 0-.34-.01-.5.03-.17.05-.33.14-.49.28a.03.03 0 0 0 0 .05l.03.05c.01.02.02.02.04 0 .32-.27.6-.31 1.03-.27a.04.04 0 0 1 .03.02c.08.1.12.24.22.33h.03l.18-.2a.01.01 0 0 1 .02 0c.05.23.1.47.19.68a.06.06 0 0 0 .03.04.06.06 0 0 0 .05 0 .9.9 0 0 0 .29-.21c0-.02.01-.01.02 0 .06.12.13.22.26.28a3.05 3.05 0 0 0 .2.11.08.08 0 0 1 0 .1.13.13 0 0 0-.04.1s0 .02.02.02h.09a3.47 3.47 0 0 0 .38-.19c.02 0 .03 0 .04.02.17.12.37.2.57.2.09 0 .26-.03.32.05a1.56 1.56 0 0 0 .27.27.05.05 0 0 0 .06-.03.81.81 0 0 1 .25-.33c.02-.02.03-.01.03.02-.03.1-.07.25-.03.35.01.01.03.02.04.01a12.75 12.75 0 0 0 .52-.34.37.37 0 0 1 .2-.06 1.25 1.25 0 0 0 .78-.28.02.02 0 0 1 .03.02c.03.08.08.27.14.31h.03l.01-.01c.07-.18.2-.43.34-.54l.03-.01c.18 0 .46-.06.59-.21.08-.1.1-.24.16-.35.12-.18.25-.4.28-.6a.76.76 0 0 0 0-.25 2.43 2.43 0 0 1-.03-.61h.23c.08 0 .15.05.21.09.41.28.63.81.74 1.29 0 .03.02.03.04 0l.03-.04a.1.1 0 0 0 .02-.08c-.02-.1-.03-.2-.07-.28-.04-.08-.05-.17-.1-.24-.08-.15-.15-.32-.26-.46-.09-.1-.2-.2-.32-.28-.04-.03-.03-.05.01-.06h.09c.1.1.21.1.33.04h.03c.13.01.25-.02.3-.15l.02-.02c.04 0 .09 0 .12-.03.1-.09.2-.34.03-.4a.05.05 0 0 1-.03-.05l.02-.32c0-.08 0-.27-.05-.34-.03-.02-.06-.01-.08 0a.02.02 0 0 1-.03 0l-.04-.1a.03.03 0 0 0-.05 0 .2.2 0 0 0-.06.06.02.02 0 0 1-.02.01h-.01l-.01-.01c-.02-.05-.05-.06-.1-.03-.09.08-.05.3-.03.4 0 .07.03.1.08.1h.03l.02-.04h.01c.01 0 .02.01.01.02l-.05.11v.01a.03.03 0 0 1-.02.01h-.01c-.15-.07-.22.05-.25.18l-.02.01c-.06 0-.1.01-.14.04h-.03c-.06-.04-.1-.05-.14-.04a8.03 8.03 0 0 1-.38.02l.11-.55c.08-.28-.02-.65-.08-.94a.52.52 0 0 1 .03-.25 4.85 4.85 0 0 1 .38-.86c.03-.13.07-.3.23-.3l.09-.01a.08.08 0 0 0 .06-.06l.03-.14a14.5 14.5 0 0 1 .72.28c.06.03.16.04.22.01.17-.08.1-.33.02-.45a.44.44 0 0 0-.14-.14l-.6-.37a4.01 4.01 0 0 0-.83-.38 6.87 6.87 0 0 0-.06-.5c-.03-.23-.02-.46-.05-.66l-.1-.72a.3.3 0 0 0-.05-.15 4.26 4.26 0 0 0-.16-.28 5.89 5.89 0 0 1 2.1 7.67 5.9 5.9 0 1 1-3.87-8.4c-.16 0-.32-.02-.48 0a17.67 17.67 0 0 0-1.75.3c-.04.01-.06 0-.09-.02-.18-.2-.6-.1-.8-.02-.05.01-.13.05-.26.12-.12.06-.2.1-.25.2a9.26 9.26 0 0 0-.09.14c-.11.04-.23.07-.34.14-.14.1-.3.2-.39.34-.08.12-.19.24-.25.37-.05.12-.1.25-.13.4l-.13.54c-.05.24.07.34.24.45a.02.02 0 0 1 0 .03.56.56 0 0 0-.2.23.04.04 0 0 1-.06.02c-.08-.06-.16-.12-.26-.14-.13-.01-.26.11-.31.23-.04.08-.07.18-.09.3-.03.21-.05.41-.05.62 0 .08 0 .17.06.23.08.07.2.03.28-.03.05-.05.09-.1.12-.16a4.94 4.94 0 0 0 .18-.48Z" fill="#B230AF"/><path d="M13.76 7.29c.01-.01 0-.03-.02-.06a1.65 1.65 0 0 0-.37-.2 4.1 4.1 0 0 0-1.08-.25 7.55 7.55 0 0 1-.68-.06l-1.04.04c-.14 0-.3.03-.52.07a2.5 2.5 0 0 1-.35.04l-.51.06-.66.08c-.15 0-.31.04-.46.03a2.67 2.67 0 0 1-.95-.2 1.5 1.5 0 0 1-.59-.34.27.27 0 0 0-.17-.12.43.43 0 0 1-.1-.03 2.4 2.4 0 0 0-.36-.12c-.11-.02-.36-.16-.37-.3 0-.06 0-.15.03-.25.06-.25.1-.52.21-.77.07-.15.17-.26.26-.4a.7.7 0 0 1 .16-.15l.23-.16c.15-.08.34-.14.51-.19l.99-.26a18.03 18.03 0 0 1 1.92-.37c.27-.03.5-.02.75-.01.32 0 .61.08.92.22.29.13.57.42.71.68.11.2.1.48.14.7l.04.36a27.08 27.08 0 0 0 .07.93h-.01a2.72 2.72 0 0 0-1.37-.22h-1l-.54.06-.32.05-.43.07-.94.2c-.24.06-.5.08-.77.05-.1 0-.18-.05-.28-.06a.03.03 0 0 0-.03.04c.06.13.44.27.52.29.19.05.4.1.6.1.34 0 .66-.03.98-.1l.24-.01.77-.12.46-.04c.21 0 .42-.03.62-.03.35 0 .7 0 1.05.05l.7.1c.16.04.31.1.45.12.33.02.59.17.84.36.12.08.16.2.14.35-.01.1-.11.1-.18.06a7.77 7.77 0 0 0-1.34-.47 1.67 1.67 0 0 0-.36.01l-.02-.01a1.42 1.42 0 0 0-.23-.23c-.03-.02-.03-.04.01-.04l.24.01a3.33 3.33 0 0 1 1.48.45v-.01Z" fill="#C72728"/><path d="M8.03 6.47c.21-.06.45-.08.68-.15l.48-.09.2-.03.47-.06c.2-.02.45-.02.75-.02h.65c.17-.01.35.02.52.06a5.42 5.42 0 0 0 .58.14c.14.08.27.14.4.18a3.62 3.62 0 0 1 .54.22c.01.02 0 .03-.02.03a7.74 7.74 0 0 0-2.25-.28l-.77.03c-.2.01-.41.04-.63.08-.35.06-.7.08-1.05.13l-.56.06a2.42 2.42 0 0 1-.9-.18c-.06-.03-.05-.05.02-.04.3.03.6 0 .89-.08Z" fill="#C72728"/><path d="M5.95 6.36c.13.05.26.1.39.13.04.01.07.03.1.07.11.1.22.2.36.26a5.63 5.63 0 0 0 .65.27H6.3a.25.25 0 0 1-.15-.05 10.21 10.21 0 0 1-.58-.43v-.04c.07-.14.21-.27.38-.2Z" fill="#A15D2D"/><path d="m5.39 7.04-.04.05c-.09-.04-.13 0-.15.08-.05.12-.16.45-.29.5a.05.05 0 0 1-.07-.05 4.64 4.64 0 0 1 .05-.78c.02-.11.1-.3.22-.33.05-.02.12.02.16.05l.82.57c.05.04.08.09.07.15v.04c0 .07-.03.09-.09.05a11.32 11.32 0 0 1-.75-.5c-.03-.02-.05-.01-.06.01v.01a.07.07 0 0 0 .03.09l.1.06Z" fill="#CB4D41"/><path d="m8.88 7.08.18-.03c.11 0 .23 0 .35-.03.15-.03.3-.04.48-.05.12 0 .23-.05.34-.06.16 0 .3-.04.46-.04a12.61 12.61 0 0 1 .75-.03c.12 0 .27-.03.39.03.07.04.16.1.25.2a1150.48 1150.48 0 0 1-1.83.07c-.2.04-.31.22-.42.4-.02.03-.08.07-.12.04-.12-.08-.16-.23-.27-.33-.14-.13-.36-.14-.56-.15-.07 0-.07 0 0-.02Z" fill="#A15D2D"/><path d="M9.75 8.38a.2.2 0 0 0-.13.13c-.12.3-.22.58-.43.83-.11.13-.24.16-.43.17-.42 0-.8-.02-1.12-.05a1.73 1.73 0 0 1-.4-.1.56.56 0 0 1-.3-.26 2.87 2.87 0 0 1-.3-.74c-.03-.15-.04-.31-.06-.47-.03-.2-.12-.25-.3-.33a.06.06 0 0 1-.03-.06l.04-.28c0-.01 0-.02.02-.02h2.54c.16.01.42.01.54.15.05.07.1.14.13.23.02.04.06.07.1.09.12.04.25.03.32-.08.11-.18.2-.36.44-.36l1.8-.04c.07 0 .14.02.21.01.16-.01.28 0 .36.02l.29.08c.1.03.03.16-.05.17-.1 0-.18 0-.23.11-.07.2-.15.39-.25.59-.12.23-.2.47-.29.72-.09.22-.21.44-.45.51a1.6 1.6 0 0 1-1.4-.1c-.25-.15-.37-.4-.43-.7-.01-.08-.07-.26-.19-.22Z" fill="#CB4D41"/><path d="M8.48 13.23c-.06 0-.1.05-.08.1a6.55 6.55 0 0 1 .04.2h-.01c-.23.01-.42.02-.6-.14a.05.05 0 0 1-.02-.03.05.05 0 0 1 .02-.04l.1-.1a.03.03 0 0 0-.02-.05 17.43 17.43 0 0 0-.53.27c0-.16-.04-.31-.1-.46l-.02-.01h-.02c-.02 0-.03.02-.03.05a1.9 1.9 0 0 0 0 .22l-.02.01h-.01a.53.53 0 0 1-.32-.29c-.05-.1 0-.17.05-.26.02-.03.01-.06-.02-.09h-.01c-.02-.02-.04-.02-.06 0l-.07.12a1.1 1.1 0 0 1-.3.34h-.01a.02.02 0 0 1-.01 0 2.1 2.1 0 0 1-.13-1.17c0-.03 0-.05-.03-.05h-.01c-.03-.02-.06 0-.07.03-.05.12-.05.27-.06.4 0 .02 0 .03-.02.04l-.16.18h-.02a5.07 5.07 0 0 0-.28-.46.36.36 0 0 1-.05-.2 32.14 32.14 0 0 1 .01-.63l.04-.02c.17-.04.33-.1.49-.19a.05.05 0 0 0 .02-.05v-.02a.1.1 0 0 0-.09 0 1.25 1.25 0 0 1-.67.12v-.01a.02.02 0 0 1 0-.02c.12-.15.22-.32.3-.5a1.26 1.26 0 0 0 .1-.28.04.04 0 0 0-.03-.03h-.01c-.03 0-.05 0-.06.03a3.18 3.18 0 0 1-.14.23h-.02c-.11-.31 0-.66.05-.96.02-.08.15-.12.22-.16a.1.1 0 0 0 .05-.09v-.02c0-.04-.02-.05-.06-.03a1.2 1.2 0 0 1-.5.18.02.02 0 0 1-.01-.02l.19-.33c.1-.24.18-.52.25-.77l-.01-.12a.03.03 0 0 0-.04-.01h-.01c-.08.08-.12.28-.15.4l-.03.06h-.02a2.3 2.3 0 0 1-.03-1.04c.03-.12.08-.23.13-.34 0-.03.02-.03.04-.02a5.4 5.4 0 0 1 .48.35c.07.08.16.14.26.18.05.02.08.05.09.1.05.23.06.46.13.69.1.26.18.48.26.63.19.37.74.43 1.1.44l.82.03c.64.03.81-.65 1-1.1 0-.02.01-.02.02 0 .02.01.03.04.03.06.07.34.24.66.54.84.22.14.48.18.75.2.34 0 .71-.03.97-.27.08-.07.14-.16.2-.25a7.28 7.28 0 0 1 .1.45c.01.1.02.2-.01.3-.07.22-.1.44-.13.66 0 .02-.01.03-.03.03h-.05a.02.02 0 0 1-.02 0v-.02a.95.95 0 0 0-.08-.39c-.04-.1-.13-.15-.26-.15-.15.01-.3.04-.44.07l-.91.23a3.4 3.4 0 0 1-.88.12c-.3 0-.62-.03-.98-.07a4.66 4.66 0 0 1-1.08-.24 1.08 1.08 0 0 0-.55-.06c-.23.04-.35.24-.4.45-.05.18-.02.44.13.56a2 2 0 0 0 .75.36c.43.11.9.19 1.4.23a5.5 5.5 0 0 0 2.57-.41c.13-.06.24-.13.35-.2 0-.02.02-.02.03-.02h.32a.05.05 0 0 1 .06.05c0 .13-.02.26-.04.38-.01.1 0 .2.05.3.07.14-.04.39-.1.52a.26.26 0 0 1-.13.11.04.04 0 0 0-.02.03c-.03.07-.03.15-.05.23-.06.19-.2.3-.4.32a.02.02 0 0 1-.03-.04l.2-.3a.24.24 0 0 0 .04-.2l-.01-.01h-.02a.03.03 0 0 0-.02 0 .44.44 0 0 0-.08.1c-.1.18-.23.37-.39.5-.1.1-.16.23-.24.35-.02.03-.04.03-.04-.01-.04-.17-.01-.35 0-.52v-.1l-.02-.02a.04.04 0 0 0-.06.01c-.07.12-.07.26-.1.4-.04.21-.45.34-.64.37-.05 0-.06-.01-.03-.05a.9.9 0 0 0 .23-.48c.01-.03 0-.06-.03-.09h-.02c-.02 0-.04 0-.04.03-.09.25-.19.43-.32.53-.1.09-.2.18-.32.24-.07.04-.13.1-.2.15-.02 0-.03 0-.02-.02.02-.12.07-.23 0-.35-.02-.03-.04-.04-.07-.02l-.24.19a.67.67 0 0 0-.14.19h-.02l-.15-.15-.13-.21c-.03-.06-.04-.12-.05-.18a.03.03 0 0 0-.02-.02Z" fill="#A15D2D"/><path d="M10.28 8.86c-.1-.28-.15-.56-.16-.86 0-.28 0-.5.3-.57.15-.04.3-.06.48-.06h1.37c.2.01.23.3.2.42a5 5 0 0 1-.38 1.05c-.18.38-.46.46-.84.47-.4.01-.8 0-.97-.45Zm-2.87.32c-.32-.08-.47-.51-.54-.83a3.96 3.96 0 0 1-.06-.6c-.01-.2.23-.3.4-.3.4-.02.87-.03 1.39-.02.18 0 .34.02.48.07.25.07.3.29.3.51 0 .22-.04.46-.1.7-.06.24-.26.6-.53.6-.51.02-.96-.03-1.34-.13Z" fill="#190D58"/><path d="M11.65 8.4c-.11-.02-.22 0-.2-.18a4.37 4.37 0 0 1 .18-.7h.03l.25.01c.1.02.13.1.1.18a1.9 1.9 0 0 0-.06.23c0 .03 0 .06.04.08.07.04.19.15.18.25a7.11 7.11 0 0 1-.33.75c-.08.15-.23.12-.37.12a.02.02 0 0 1-.02 0v-.02l.01-.11a7.5 7.5 0 0 0 .21-.58c0-.01 0-.02-.02-.02Zm-3.02.1a.02.02 0 0 0 0-.03h-.01c-.12-.03-.24-.05-.21-.21a4.77 4.77 0 0 1 .18-.69h.03a1.97 1.97 0 0 1 .33.03.06.06 0 0 1 .03.07l-.08.28c-.04.14.26.2.22.42-.04.2-.1.4-.18.62-.05.14-.12.2-.27.2a26.01 26.01 0 0 1-.26-.02l-.01-.02c0-.03 0-.07.02-.1.09-.2.16-.39.21-.56Zm2.43-.41c.24.05.2.22.16.4a.91.91 0 0 1-.14.38c-.06.09-.06.29-.2.26a1.93 1.93 0 0 1-.25-.07v-.02a2172.46 2172.46 0 0 1 .19-.6.05.05 0 0 0-.04-.02c-.14-.03-.28-.05-.23-.24a3.57 3.57 0 0 1 .2-.6l.03-.02h.27a.1.1 0 0 1 .1.13l-.12.34v.02a.04.04 0 0 0 .01.03h.02Zm-3.37.36a.02.02 0 0 0-.02-.03c-.19-.02-.3-.06-.24-.28.04-.16.1-.31.16-.48.02-.04.04-.07.1-.07.1 0 .2 0 .3.02.03 0 .05.03.04.07a3.54 3.54 0 0 1-.14.39l.03.03c.06.02.16.06.19.12.05.13-.04.39-.1.51a5.23 5.23 0 0 1-.22.38l-.2-.04c-.08-.02-.1-.06-.08-.13a39.4 39.4 0 0 0 .18-.5Z" fill="#8499C9"/><path d="M6.14 8.29a.07.07 0 0 0-.1.03l-.17.37c-.02.03 0 .08.03.1.04.01.09 0 .1-.04l.17-.37a.07.07 0 0 0-.03-.1Zm7.51 1.01c0 .07 0 .18-.1.18l-.02-.02a.22.22 0 0 1-.03-.12 2.21 2.21 0 0 0 0-.41.06.06 0 0 1 .02-.04l.03-.01c.03 0 .06 0 .08.02.01 0 .02 0 .02.02.04.09.05.18.02.26a.37.37 0 0 0-.02.12Z" fill="#120507"/><path d="M13.63 9.18c-.03.08 0 .16-.03.24 0 .02 0 .02-.02.02h-.01a.11.11 0 0 1-.04-.08 9.57 9.57 0 0 1 .02-.45.03.03 0 0 1 .03 0c.08.05.07.2.05.27Z" fill="#fff"/><path d="M13.1 9.66s-.02 0-.03-.02a.2.2 0 0 1-.03-.06.77.77 0 0 1 0-.4c.01-.05.04-.08.06-.08.02 0 .03 0 .04.02a.2.2 0 0 1 .03.06l.03.09a.77.77 0 0 1-.03.3c-.01.06-.04.09-.06.09Z" fill="#190D58"/><path d="M13.05 9.38c0 .13.03.24.06.24s.05-.11.05-.24c0-.14-.03-.24-.06-.24s-.05.1-.05.24Z" fill="#fff"/><path d="M9.89 9.4a2 2 0 0 0 .21.46c.03.03.02.06-.01.08l-.02.01a.08.08 0 0 1-.08-.02c-.1-.13-.16-.26-.2-.4a.17.17 0 0 1 0-.14l.02-.02c.03-.02.06-.02.08.03Zm-3.38.3c-.15.13-.19.3-.25.47-.01.05-.04.06-.09.06-.02 0-.03-.02-.05-.04v-.05c.02-.06.24-.7.4-.47v.02l-.01.01Z" fill="#120507"/><path d="m13.49 10.82.02.02a.03.03 0 0 1 .01.03c-.03.12-.15.14-.25.13-.02 0-.03 0-.02-.02l-.01-.03h-.02c0 .06-.04.1-.1.1-.07 0-.24-.03-.2-.14a.28.28 0 0 0 0-.17v-.04c.03-.03.03-.06 0-.1a.05.05 0 0 1 0-.06.13.13 0 0 1 .12-.04c.01 0 .02 0 .01.02l.01.03c.01.02.02.02.02 0 0-.1.06-.34.21-.23h.02c.15-.1.14-.23.11-.38v.08h-.02a.11.11 0 0 0-.06.09.02.02 0 0 1-.03.01c-.08-.09-.06-.33-.03-.42a.03.03 0 0 1 .05 0l.05.06a.02.02 0 0 0 .02.01.03.03 0 0 0 .03-.01l.03-.08c.01-.03.03-.03.03 0a.8.8 0 0 1 .03.22v.02h.01l.02-.01.03-.12a.04.04 0 0 1 .06-.01.1.1 0 0 1 .03.06c.02.2 0 .39-.01.59v.03h-.01v.01c.06-.02.1 0 .12.06.02.09 0 .17-.06.24-.05.07-.15.06-.21.03-.02 0-.02 0-.01.02Z" fill="#fff"/><path d="m12.89 10.25-.04-.01a.14.14 0 0 1-.03-.05.32.32 0 0 1-.02-.07.46.46 0 0 1 .02-.24c.02-.04.04-.06.07-.06 0 0 .02 0 .03.02.01 0 .03.02.03.04l.03.07v.09c0 .05 0 .1-.02.15-.02.04-.05.06-.07.06Z" fill="#120507"/><path d="M12.83 10.04c0 .1.02.18.05.18.04 0 .06-.08.06-.18 0-.1-.02-.18-.05-.18-.03 0-.06.08-.06.18Z" fill="#fff"/><path d="M6.94 10.56v.02a42.16 42.16 0 0 0 1.12.33 7.18 7.18 0 0 0 2.72-.03l.1.08a.07.07 0 0 0 .07.01.44.44 0 0 1 .17-.02 136.17 136.17 0 0 1 .45.06c-.26.16-.52.24-.83.32a6.13 6.13 0 0 1-3.73-.2.93.93 0 0 1-.3-.2c-.12-.15-.07-.35-.01-.51a.4.4 0 0 1 .38-.29c.24 0 .46.07.68.15a7.8 7.8 0 0 0 1.96.23c.6-.03 1.27-.27 1.83-.39l.27-.02c.16 0 .18.31.17.43l-.01.02-.02.01-.4.04c-.04 0-.05-.01-.01-.03 0-.01.03-.02.07-.02.02 0 .03-.02.03-.04l-.02-.04h-.03a.91.91 0 0 0-.24.06c-.07.03-.14.08-.22.08l-.14-.02c-.16-.03-.16.12-.27.15-.97.21-1.92.22-2.87.01-.31-.06-.57-.17-.87-.24-.04 0-.05 0-.05.05Z" fill="#EB6294"/><path d="M12.63 10.52c.03-.01.04 0 .04.02 0 .04-.03.07-.07.08l-.02.02v.06h-.03a.03.03 0 0 0-.03.01l-.01.02v.01c0 .02.02.03.05.02a.33.33 0 0 1 .1 0l.02.01v.08c0 .02 0 .02-.02.02h-.07l-.02.01v.01c0 .02 0 .03.03.04l.11.03h.01v.02l-.01.01-.62-.03a.02.02 0 0 1-.01-.01 2.32 2.32 0 0 1 .26-.39l.3-.04Zm-.6.45-.68-.04v-.01l.13-.27.79-.07v.01l-.23.37h-.01Zm-.75-.05-.3-.02a.03.03 0 0 1-.03-.04v-.16a.03.03 0 0 1 .02-.04l.44-.03h.02l.02.02v.03l-.13.23a.03.03 0 0 1-.04.01Z" fill="#E1D8C4"/><path d="M9.4 12.8h-.01a.06.06 0 0 0-.1 0l-.26.37a.06.06 0 0 0 .1.08l.28-.36a.06.06 0 0 0-.02-.1Z" fill="#120507"/><path d="M11.47 5.12H6.88v-.36h4.6v.36Zm-.7.7H7.58v-.35h3.17v.35Z" fill="#fff" fill-opacity=".6"/></svg>