<!-- by TradingView --><svg width="18" height="18" viewBox="0 0 18 18" xmlns="http://www.w3.org/2000/svg"><path fill="#F0F3FA" d="M0 0h18v18H0z"/><path fill-rule="evenodd" d="M10.6 6.67v3.45l-.02.01-2.91-3.9a.06.06 0 0 1-.01-.04.98.98 0 1 0-1.7.43v.02l.04.04v4.65l-.02.02h-.02c0 .02-.03.05-.06.1a.98.98 0 1 0 1.53-.09h-.01l-.02-.03V8.35c0-.02.02-.03.04 0l2.87 3.84c.04.05.06.1.08.16l.05.11a.98.98 0 0 0 1.8-.1 1 1 0 0 0-.2-1c-.02-.01-.04-.02-.04-.04V6.68l.03-.04.02-.01a.97.97 0 0 0 .24-.74.98.98 0 0 0-.8-.87.98.98 0 0 0-.9 1.63l.02.02Zm-3.25-.69a.65.65 0 1 1-1.31 0 .65.65 0 0 1 1.3 0Zm3.96.66a.65.65 0 1 0 0-1.31.65.65 0 0 0 0 1.31Zm-3.96 5.38a.65.65 0 1 1-1.31 0 .65.65 0 0 1 1.3 0Zm3.96.65a.66.66 0 1 0 0-1.3.66.66 0 0 0 0 1.3Z" fill="#460063"/><path fill-rule="evenodd" d="M8.81 3h.38A6.02 6.02 0 0 1 15 8.82v.37a6 6 0 0 1-4.96 5.72c-.26.05-.54.07-.81.09H8.8A6.02 6.02 0 0 1 3 9.2v-.4a5.9 5.9 0 0 1 2.6-4.75c.96-.65 2.03-1 3.21-1.05Zm5.7 6A5.52 5.52 0 1 1 3.49 9a5.52 5.52 0 0 1 11.04 0Z" fill="#460063"/></svg>