<!-- by TradingView --><svg width="18" height="18" viewBox="0 0 18 18" xmlns="http://www.w3.org/2000/svg"><path fill="#F0F3FA" d="M0 0h18v18H0z"/><path d="m4.17 5 3.9 3.94h.02l-2.42 2.28v.2L4 13h2.35L9 10.48c.97.89 2.6 2.49 2.6 2.52h2.32l-1.8-1.7.09-.11-2.28-2.25L14 5h-.17l-.13.12H11.9l-.38.25-.2-.16-.97 1.02-.1-.06-1.21 1.21L6.7 5.21l-.2.12-.4-.21H4.45L4.17 5Z" fill="#091534"/><path d="M13.66 5.12 12.2 6.14l-.13-.06-2.63 2.71 2.58 2.49.89.74 1.02.98h-.12c-.63-.48-1.99-1.5-3.02-1.93-.27-.2-1.28-1.35-1.79-1.9v-.81l-1.5-1.4c-.35-.18-1.16-.6-1.6-.88-.34-.21-.98-.64-1.44-.96H6.1l.4.21.03-.02 2.55 2.43 2.42-2.37.39-.25h1.77Z" fill="url(#a)"/><defs><linearGradient id="a" x1="9.19" y1="5.12" x2="9.19" y2="12.96" gradientUnits="userSpaceOnUse"><stop stop-color="#3884CA"/><stop offset=".42" stop-color="#2E4B9B"/><stop offset="1" stop-color="#286EB3"/></linearGradient></defs></svg>