<!-- by TradingView --><svg width="18" height="18" viewBox="0 0 18 18" xmlns="http://www.w3.org/2000/svg"><path fill="#F0F3FA" d="M0 0h18v18H0z"/><path d="M9.98 4h1.13c.39 0 .71 0 .98.02.28.02.54.07.8.2.38.2.7.52.89.9.13.25.18.52.2.8.02.27.02.6.02.98v1.2c0 .38 0 .71-.02.98a2.1 2.1 0 0 1-.2.8c-.2.38-.5.7-.9.9-.25.13-.51.18-.79.2-.27.02-.6.02-.98.02H7.74a.6.6 0 0 1-.42-1L9.9 7.01l.82.82L8.88 10h2.45c.7 0 1.6-.1 1.67-1.02v-3.2c-.04-.47-.3-.74-.8-.78H8.9C7.87 5.08 8 6.18 8 6.94v.5l-1 .01v-.51c0-.4 0-.72.02-1s.07-.55.2-.8a2.24 2.24 0 0 1 1.77-1.12C9.26 4 9.6 4 10 4Z" fill="url(#add3wkwtq)"/><path d="M5.78 13h3.37c.48-.04.81-.33.85-.8V11h1v1.07a2.22 2.22 0 0 1-1.23 1.74c-.24.11-.48.15-.74.17-.24.02-.54.02-.89.02H6.9c-.39 0-.71 0-.98-.02a2.07 2.07 0 0 1-.8-.2c-.38-.2-.7-.52-.89-.9a2.1 2.1 0 0 1-.2-.8C4 11.8 4 11.48 4 11.1V9.9c0-.39 0-.72.02-.98.02-.29.07-.55.2-.8.2-.39.5-.7.9-.9.25-.13.51-.18.8-.2.26-.03.58-.02.97-.02h3.37c.33 0 .59.2.59.52 0 .33-.26.48-.59.48H6.7c-.42 0-.7.02-.9.03-.48.04-.75.3-.79.78v3.39c.04.47.3.76.78.8Z" fill="url(#bdd3wkwtq)"/><defs><linearGradient id="add3wkwtq" x1="10.54" y1="4" x2="10.54" y2="10.89" gradientUnits="userSpaceOnUse"><stop offset=".15" stop-color="#19CFD8"/><stop offset=".57" stop-color="#498CFE"/><stop offset="1" stop-color="#4A8FFD"/></linearGradient><linearGradient id="bdd3wkwtq" x1="8.9" y1="7.76" x2="8.99" y2="13.4" gradientUnits="userSpaceOnUse"><stop offset=".01" stop-color="#4A8FFD"/><stop offset=".95" stop-color="#2950FF"/></linearGradient></defs></svg>