<!-- by TradingView --><svg width="18" height="18" viewBox="0 0 18 18" xmlns="http://www.w3.org/2000/svg"><path fill="url(#a)" d="M0 0h18v18H0z"/><path d="M11 10.26h-.02v.02l1.7 1.69c.03.03.03.04-.01.02l-3.62-1.45a.14.14 0 0 0-.1 0L5.35 12c-.05.02-.06 0-.02-.03L7 10.3c.03-.03.02-.04-.01-.04H5.78c-.43-.01-.68-.18-.99-.49a537.8 537.8 0 0 0-2.76-2.76l6.94 2.74a.1.1 0 0 0 .07 0l6.93-2.74c.03-.01.04 0 .02.02l-2.9 2.85c-.31.31-.6.38-1.05.38h-1.05Z" fill="#fff"/><defs><linearGradient id="a" x1="3.35" y1="3.12" x2="21.9" y2="24.43" gradientUnits="userSpaceOnUse"><stop stop-color="#1A1E21"/><stop offset="1" stop-color="#06060A"/></linearGradient></defs></svg>