<!-- by TradingView --><svg width="18" height="18" viewBox="0 0 18 18" xmlns="http://www.w3.org/2000/svg"><path fill="url(#a)" d="M0 0h18v18H0z"/><path d="m8.66 4.01.01.9-.1.02a4.64 4.64 0 0 0-1.38.34v.05a.3.3 0 0 1 .02.19.05.05 0 0 0 .06.05c.45-.15.88-.25 1.32-.3.05.05.08.09.06.13 0 .03-.02.04-.04.04-.45.06-.85.14-1.21.26a.45.45 0 0 0-.3.3l-.15-.2a.51.51 0 0 0 0-.33c-.02-.03-.03-.04-.06-.04a.16.16 0 0 0-.08.03v-.03c.01-.02 0-.03-.01-.04h-.03c.31-.2.64-.33 1-.42a.08.08 0 0 0 .07-.09l-.05-.72c.29-.07.58-.12.87-.14Z" fill="#486561"/><path d="M9.19 4c.07.37.04.73.01 1.24a16.4 16.4 0 0 0 .03 1.36c-.01.04-.09.04-.23 0V4.28c0-.03-.02-.05-.06-.06h-.02a.04.04 0 0 0-.04.04l-.01 2.35c-.09.03-.14.03-.16 0l-.03-1.7-.01-.9h.53Z" fill="#6CA59D"/><path d="M9.26 4c-.02.32-.02.63-.01.94 0 .04 0 .04.03.02l.02-.02.05-.02c.44.04.86.14 1.28.28.08.03.13.1.12.19v.08c0 .09-.05.12-.13.08a4.17 4.17 0 0 0-1.3-.29c-.03 0-.05.01-.05.04l-.05 1.25a16.4 16.4 0 0 1-.02-1.31c.03-.5.06-.87-.01-1.24h.07Z" fill="#577A77"/><path d="M9.44 4.02a.1.1 0 0 1 .03.07 6.5 6.5 0 0 1 0 .75.04.04 0 0 0 .03.01h.02a.02.02 0 0 0 .02 0 .03.03 0 0 0 0-.02l-.02-.8a5 5 0 0 1 .55.11.05.05 0 0 0-.04.05l-.02.68c0 .04.02.06.05.06.26.06.5.14.74.27l.48.24c-.03.01-.05.04-.04.08l-.12-.05a.05.05 0 0 0-.07.04.94.94 0 0 0-.02.3l-.1.19c-.11-.19-.31-.32-.6-.4a6.46 6.46 0 0 0-.96-.17v.01l-.05.67a.06.06 0 0 0 .05.06l.87.3c.02.01.04 0 .07 0l.23-.1-.34.25a1.33 1.33 0 0 0-.9-.32.6.6 0 0 1-.07.3v-.05l.04-1.25c0-.03.02-.04.04-.04a4 4 0 0 1 1.3.3c.1.03.14 0 .14-.1V5.4c0-.1-.04-.16-.12-.19a5.3 5.3 0 0 0-1.33-.26l-.02.02c-.02.02-.03.02-.03-.02-.01-.3 0-.62.01-.93l.18.01Z" fill="#486561"/><path d="m9.52 4.03.03.8a.03.03 0 0 1-.01.02.03.03 0 0 1-.02 0H9.5a.04.04 0 0 1-.04-.04 6.5 6.5 0 0 0-.02-.79h.08Zm-1.19.03a.04.04 0 0 0-.05.04v.73c0 .02.03.04.05.04.03 0 .05-.02.05-.04V4.1a.04.04 0 0 0-.05-.04Z" fill="#6CA59D"/><path d="M10.15 4.13a5 5 0 0 1 3.5 3.05.88.88 0 0 1-.4 0c-.03 0-.04.01-.03.04l.15.38c.1.3.15.62.2.94l.01.3a.04.04 0 0 0 .03.04h.01l.38-.04v.3a1.19 1.19 0 0 0-.39-.02c-.02 0-.03.02-.03.04v.04c0 .02 0 .04.04.04h.3c.03 0 .04 0 .04.02v.02c0 .03-.02.05-.05.05h-.33l-.01.03v.06c0 .02.01.03.03.03.1-.01.19 0 .28.02h.02v.04c0 .02 0 .03-.02.03h-.27c-.02 0-.04.01-.04.04l-.04.25a.3.3 0 0 0-.03.18.04.04 0 0 0 .02.03h.03c.18-.04.28-.01.32.1v.03l-.39.06a.06.06 0 0 0-.05.05c-.07.22-.16.45-.26.66-.02.03-.01.05.02.04h.4a5 5 0 0 1-9.18 0 .6.6 0 0 1 .3 0 .04.04 0 0 0 .04-.02.04.04 0 0 0 0-.04l-.17-.46a.06.06 0 0 0-.06-.05l-.25-.01c-.03 0-.05-.02-.04-.05l.03-.09c0-.03.03-.04.06-.04l.14.01h.02a.04.04 0 0 0 .02-.03v-.02a2.86 2.86 0 0 1-.1-.58c0-.03-.02-.04-.05-.04l-.32-.01A5.03 5.03 0 0 1 4 8.87l.31-.04c.04-.01.05-.03.06-.06v-.22c0-.02 0-.04-.03-.04a.72.72 0 0 0-.32.01l.02-.12h.34c.02 0 .03 0 .03-.02l.02-.17a.02.02 0 0 0 0-.01.02.02 0 0 0-.02 0H4.2c-.07 0-.1-.01-.12-.06v-.01h.33a.06.06 0 0 0 .06-.05l.03-.16c0-.04 0-.05-.04-.05h-.32a5 5 0 0 1 .25-.78l.3-.01h.02l.02.01a.05.05 0 0 0 .05.03.05.05 0 0 0 .04-.03l.37-.66c.02-.02.01-.03-.02-.03a.4.4 0 0 1-.33-.16 5 5 0 0 1 2.96-2.1l.05.74a.08.08 0 0 1-.07.08c-.36.09-.69.22-1 .41a.33.33 0 0 1-.2.07 216.15 216.15 0 0 1-.85.02.09.09 0 0 0-.03.06l-.01.86c-.23.18-.36.44-.5.67a.86.86 0 0 0-.1.25l-.1.26a2 2 0 0 0-.2.76 14 14 0 0 0-.06 1c0 .15.02.31.06.5l.1.47a4.54 4.54 0 0 0 .73 1.43 4.5 4.5 0 0 0 2.83 1.53c.1 0 .22 0 .35-.05h.06c.37.02.68.06 1.05-.04a4.55 4.55 0 0 0 2.15-1.2 4.12 4.12 0 0 0 1.13-2.14c.04-.18.06-.35.05-.52-.02-.28.01-.58-.03-.87-.03-.2-.03-.42-.12-.6a.97.97 0 0 1-.08-.26c-.02-.14-.15-.28-.2-.41-.1-.23-.23-.44-.37-.64a.08.08 0 0 0-.08-.04.29.29 0 0 1-.05-.15v-.81c0-.05-.02-.08-.08-.08h-.94l-.48-.24a2.86 2.86 0 0 0-.74-.27c-.03 0-.05-.02-.05-.06l.02-.68c0-.02.01-.04.04-.05a.2.2 0 0 1 .08 0Z" fill="#6CA59D"/><path d="M9 6.6c-.01.02-.06.02-.14.01V4.26a.04.04 0 0 1 .05-.04h.02c.04 0 .06.03.06.06L9 6.6Z" fill="#EAD8A9"/><path d="M8.57 4.93c.03.02.03.05 0 .08a5.17 5.17 0 0 0-1.18.25c-.03-.01-.04-.03-.04-.06.39-.15.8-.24 1.22-.27Z" fill="#ABBF64"/><path d="M8.67 4.92 8.7 6.6h-.1l.01-.07c.11-.07.11-.13-.01-.18.02 0 .03-.02.03-.04a.03.03 0 0 0 0-.02.03.03 0 0 0-.03-.01c-.3.05-.6.14-.9.27l-.6-.56a.45.45 0 0 1 .3-.3c.36-.12.76-.2 1.2-.26.03 0 .05-.01.05-.04.02-.04 0-.08-.06-.12.03-.02.03-.04-.02-.07h-.02c-.08 0-.17 0-.25.02l-.95.23c-.02.01-.04 0-.06-.02a.18.18 0 0 1 0-.21c.01-.02.03-.02.06-.02 0 .03.01.05.04.06A5.17 5.17 0 0 1 8.57 5c.03-.03.03-.06 0-.08l.1-.01Z" fill="#577A77"/><path d="M8.59 5.27a6.16 6.16 0 0 0-1.36.28.05.05 0 0 1-.02-.04.3.3 0 0 0-.02-.19.07.07 0 0 1 0-.05c.02-.03.05-.05.1-.05a.18.18 0 0 0 0 .21c.02.02.04.03.06.02a17.82 17.82 0 0 1 1.2-.26h.02c.05.04.05.06.02.08Z" fill="#ABBF64"/><path d="M6.81 5.45c-.09.02-.14.07-.14.14 0 .02 0 .04.03.04l.1.01c.04 0 .05.02.06.05 0 .07.04.1.1.1l.15.2.6.56v.03a.04.04 0 0 0 .05.03l.84-.26c.12.05.12.1.01.18l-.74.2a.04.04 0 0 0-.03.05v.02c.01.01.02.02.03.01l.74-.21h.09c.02.04.07.04.16.01.08.01.13 0 .14 0 .14.03.22.03.23 0 .05-.1.07-.2.06-.3.33.15.63.25.91.3l.35-.25.38-.36.1-.19c.02.02.04.02.06.01a.06.06 0 0 0 .04-.05c0-.07.02-.12.07-.13h.1l.03.02.01.03v.06l-.42.46a.12.12 0 0 1-.06.04.15.15 0 0 0-.07.04l-.33.33c-.18.15-.32.33-.43.53a.7.7 0 0 0-.2.03 25.85 25.85 0 0 1-1.78-.01l-.24-.28a.14.14 0 0 0-.05-.04.2.2 0 0 1-.13-.13 4.6 4.6 0 0 1-.54-.56c-.07-.09-.18-.13-.23-.24a.13.13 0 0 0-.08-.06.2.2 0 0 1-.13-.16.06.06 0 0 0-.05-.05.55.55 0 0 0-.23-.01c-.14-.01-.28 0-.42.02-.06.01-.08.07-.04.18a.52.52 0 0 0 0 .19.74.74 0 0 0 0 .34c-.02.11.01.18.09.21l.08.07c.04.09.1.15.17.18.03.02.04.04.04.07l-.02 1.13c0 .07-.03.12-.1.14a.12.12 0 0 0-.08.11v1.26c-.01.1-.05.17-.13.2a.05.05 0 0 0-.03.05l-.03.49.03.54a.04.04 0 0 0 .03.04c.07 0 .11.04.12.11a18.08 18.08 0 0 1 .06.4c.18.22.38.42.6.6.06.04.13.06.2.09.18.09.28.29.48.37l.3.14c.14.09.31.02.45.11.1.07.22.15.29.24.03.05.07.08.13.08a4.15 4.15 0 0 0 .93-.04l.21-.21c.14-.13.33-.13.5-.14a.1.1 0 0 0 .05-.02.72.72 0 0 1 .26-.14c.27-.1.35-.37.65-.43a158.55 158.55 0 0 0 .62-.58c.12-.12.1-.3.12-.46a.1.1 0 0 1 .03-.07l.11-.1a.08.08 0 0 0 .03-.06v-.96a.07.07 0 0 0-.04-.06L12 9.7a.09.09 0 0 1-.04-.07l-.04-.54v-.82a.12.12 0 0 0-.12-.12c-.05 0-.08-.02-.08-.07a23.2 23.2 0 0 1 0-1.22.14.14 0 0 1 .05-.05c.06-.03.1-.08.14-.13a.17.17 0 0 1 .06-.07c.1-.05.13-.13.12-.24.03-.09.04-.2.03-.32a.71.71 0 0 1 .02-.33c-.08-.08-.23-.1-.46-.07-.11-.01-.29.02-.37-.07l-.07-.05c0-.04 0-.07.04-.08h.94c.06 0 .08.03.08.08v.8c0 .06.02.1.05.16v.05c0 .03 0 .05-.03.06a.17.17 0 0 1-.06 0l-.08.01a.06.06 0 0 0-.04.05.52.52 0 0 1-.08.17c-.04.01-.08.04-.11.1a.24.24 0 0 0-.04.13v.75l.05.27c0 .03.02.04.04.05.13.08.11.28.12.41V9.7a.02.02 0 0 0 .02.02l.04-.02.04-.02a.06.06 0 0 1 .04.02.05.05 0 0 1 .02.04l.02.37c0 .03.01.04.03.05l.26.12a6.5 6.5 0 0 1-.5 1.1 42.66 42.66 0 0 0-.66.7.81.81 0 0 1-.27.2c-.48.26-.96.5-1.43.74a1.85 1.85 0 0 1-.94.2l-.27-.02a.07.07 0 0 1-.06-.03.7.7 0 0 0-.37-.28 3.81 3.81 0 0 1-1-.48c-.14-.1-.29-.16-.44-.23-.3-.22-.56-.47-.77-.76v-.39c0-.02 0-.04-.03-.06l-.14-.12a.08.08 0 0 1-.03-.07l.03-1c0-.03.02-.04.04-.05l.07-.01c.04-.01.05-.03.05-.06l-.01-.61a3 3 0 0 0 .03-.59.7.7 0 0 1 .18-.47 5.81 5.81 0 0 0 0-1.14.05.05 0 0 0-.07 0c-.17.16-.3.35-.4.58-.02.03-.03.03-.05 0a.25.25 0 0 1-.01-.08l.35-.61a.08.08 0 0 0-.07-.12c-.06 0-.1-.01-.12-.05l-.02-.18.01-.86a.09.09 0 0 1 .1-.08h.77a.3.3 0 0 0 .21-.07l.03.01c.02 0 .02.02.02.04v.03Z" fill="#454641"/><path d="M6.95 5.8c-.05 0-.08-.04-.1-.1 0-.04-.01-.05-.04-.06h-.1c-.03-.01-.05-.03-.04-.05 0-.07.05-.12.14-.14a.16.16 0 0 1 .08-.03c.03 0 .04.01.05.04a.5.5 0 0 1 .01.34Z" fill="#F1E469"/><path d="m10.93 6-.38.36-.24.1a.09.09 0 0 1-.07.01l-.87-.3a.06.06 0 0 1-.05-.06l.05-.67a.04.04 0 0 1 .01-.03.04.04 0 0 1 .03 0c.33.04.63.1.92.19.29.08.49.21.6.4Z" fill="#577A77"/><path d="m11.24 5.52.07.05c.01.05-.02.07-.1.07-.06.01-.08.06-.08.13a.06.06 0 0 1-.04.05h-.06a.94.94 0 0 1 .03-.33.05.05 0 0 1 .06-.02l.12.05Z" fill="#F1E469"/><path d="M11.68 5.64a.13.13 0 0 0-.1.04A78.46 78.46 0 0 1 10.4 6.8c-.12.13-.24.24-.38.34.11-.2.25-.38.43-.53l.33-.33a.15.15 0 0 1 .07-.04c.03 0 .05-.02.06-.04l.41-.46.01-.03v-.03l-.01-.03-.03-.01a.28.28 0 0 0-.1-.01c.09 0 .12-.02.11-.07.08.1.26.06.37.07Z" fill="#B36F3D"/><path d="M6.37 5.64c.16.15.31.32.48.47.32.29.64.6.95.95.03.03.07.06.11.07l.14.03a25.85 25.85 0 0 0 1.79.02c.06-.02.12-.02.19-.03.14-.1.26-.21.38-.34a23.5 23.5 0 0 1 1.16-1.13.13.13 0 0 1 .1-.04c.24-.03.4-.01.47.07l-1.36 1.34a.07.07 0 0 0-.02.07.06.06 0 0 0 .06.04c.06 0 .1.04.1.11l.03.4c0 .32.33.49.59.59.17.16.29.3.33.4.04.08.05.22.05.42l.04.54c0 .03.01.05.04.07l.06.04.03.06.02.47c-.15.03-.3.04-.45.04-.04 0-.07.02-.1.07l-.02-.1c0-.06 0-.1-.02-.1-.22-.19-.4-.36-.55-.53-.12-.14-.25-.16-.4-.05v-.52c.1.03.24.1.33.03.02-.02.02-.04 0-.06-.2-.3-.59-.72-.97-.36a2.48 2.48 0 0 0-.34.4.05.05 0 0 0 .03.05c.2.06.24-.08.38-.13-.1.18-.11.4-.03.62a2.32 2.32 0 0 1-.38-.2c-.14-.1-.27-.12-.4.01a.25.25 0 0 1-.31.04c-.08-.04-.12-.12-.21-.12-.1-.01-.16 0-.24.07a.6.6 0 0 1-.3.13.55.55 0 0 0 .05-.37.07.07 0 0 0-.04-.05.24.24 0 0 1-.06-.05c.08.04.16.05.25.05a.06.06 0 0 0 .05-.03.06.06 0 0 0 0-.06 2.1 2.1 0 0 0-.3-.34c-.39-.38-.8.01-.99.35a.06.06 0 0 0 .05.09c.11 0 .2-.03.28-.07-.02.16-.02.33 0 .5-.12-.06-.2-.08-.33.02-.22.2-.42.4-.6.63l-.04.12-.55-.06.03-.5c0-.02.01-.03.03-.04.08-.03.12-.1.12-.2 0-.24 0-.48.03-.71a.64.64 0 0 1 .12-.31c.07-.1.15-.18.23-.26.09-.03.2-.09.33-.16.39-.22.22-.52.3-.86 0-.03.02-.04.04-.06l.05-.03a.07.07 0 0 0 0-.11L6.13 5.97l-.02-.03c-.02-.09-.08-.12-.19-.1-.04-.11-.02-.17.04-.18.14-.02.28-.03.42-.02Z" fill="#EFC968"/><path d="M8.05 7.16c-.05 0-.1-.02-.14-.03a.25.25 0 0 1-.11-.07c-.31-.34-.63-.66-.95-.95-.17-.15-.32-.32-.48-.47.08-.02.15-.01.23 0 .03.01.04.03.05.06a.2.2 0 0 0 .13.16c.04.01.06.03.08.06.05.1.16.15.23.24a4.6 4.6 0 0 0 .54.56c.02.06.07.1.13.13l.05.04.24.27Zm4.09-1.45a.71.71 0 0 0-.03.33c-.04-.04-.1-.03-.15.03a44.65 44.65 0 0 1-1 1.02.07.07 0 0 0 .03.08c.05.04.09.08.1.14.06.31.1.54.37.66a.05.05 0 0 0 .07-.04c-.04-.42-.01-.8.08-1.14l-.07 1.47c-.26-.1-.6-.27-.6-.58 0-.13 0-.26-.02-.4 0-.08-.04-.12-.1-.12a.06.06 0 0 1-.06-.04.06.06 0 0 1 .02-.07l1.36-1.34ZM6.46 8.26l.02-.3c.14 0 .26-.1.36-.28a.96.96 0 0 0 .05-.36c0-.02 0-.04.02-.06a.27.27 0 0 1 .12-.09.06.06 0 0 0 .03-.07l-.01-.03a95.9 95.9 0 0 0-.98-1C6.03 6 5.97 6 5.9 6.02a.52.52 0 0 1 0-.2c.1-.01.17.02.2.11v.03l1.1 1.08a.07.07 0 0 1-.01.11l-.05.03a.09.09 0 0 0-.04.06c-.08.34.09.64-.3.86-.14.07-.24.13-.33.16Z" fill="#B36F3D"/><path d="M6.48 7.95v-.78c0-.1-.02-.19-.05-.28a.14.14 0 0 0-.03-.06 1.73 1.73 0 0 1-.14-.16 1.46 1.46 0 0 0-.35-.3.74.74 0 0 1 0-.34c.07-.03.12-.02.16.03l.08.1a95.9 95.9 0 0 1 .91.94.06.06 0 0 1-.01.06l-.02.01a.27.27 0 0 0-.12.09.11.11 0 0 0-.02.06c0 .19-.02.3-.05.36-.1.18-.22.27-.36.27Zm5.64-1.91c0 .13 0 .23-.03.32l-.48.43a2.95 2.95 0 0 0-.08 1.16.05.05 0 0 1-.07.02c-.26-.12-.31-.35-.37-.66a.22.22 0 0 0-.1-.14.07.07 0 0 1-.03-.05.07.07 0 0 1 .02-.06c.34-.33.66-.66.98-1 .06-.05.1-.06.15-.02Z" fill="#EAD8A9"/><path d="M4.83 6.24c.09.1.2.16.33.16.03 0 .04 0 .02.03a11.15 11.15 0 0 0-.39.68.05.05 0 0 1-.05 0l-.02-.02H4.7l-.01-.01-.31.01c.12-.3.27-.58.45-.85Z" fill="#577A77"/><path d="m8.6 6.35-.84.26a.04.04 0 0 1-.05-.03v-.03a3.85 3.85 0 0 1 .92-.26.03.03 0 0 1 0 .02c0 .02-.01.04-.03.04Zm1.6.27a3.87 3.87 0 0 1-.9-.32c.35 0 .65.1.9.32Z" fill="#ABBF64"/><path d="m6.48 7.95-.02.3-.23.27a.72.72 0 0 0-.12.31 4.5 4.5 0 0 0-.03.71V8.28a.12.12 0 0 1 .1-.11c.06-.02.1-.07.1-.14l.01-1.13a.07.07 0 0 0-.04-.07.37.37 0 0 1-.17-.18.13.13 0 0 0-.08-.07c-.08-.03-.11-.1-.1-.21.17.1.29.2.36.3.06.07.1.13.14.16l.03.06c.03.09.05.18.05.28v.78Zm5.62-1.59c0 .11-.04.2-.13.24a.17.17 0 0 0-.06.07.34.34 0 0 1-.14.13.14.14 0 0 0-.06.12v1.15c.01.05.04.07.09.07a.1.1 0 0 1 .08.04c.02.02.03.05.03.08v.82c.01-.2 0-.34-.04-.41a1.33 1.33 0 0 0-.33-.41l.07-1.47.48-.43Z" fill="#8B5737"/><path d="m5.67 6.38.03.18-.04-.03s-.02 0-.03.02a4.4 4.4 0 0 0-.22 4.61c.03.05.07.06.12.03l.1-.08c.05-.03.06-.07.03-.1a5.28 5.28 0 0 1-.5-1.74c-.02-.07.01-.11.09-.12l.28-.02c.07-.01.1.02.1.1l.04.38c0 .09.06.12.15.1l-.07.01c-.02 0-.04.02-.04.05l-.03 1c0 .03 0 .05.03.07l.14.12.03.06v.39l-.16-.18H5.7l-.02.03v.02c.16.23.34.44.53.63.09.08.1.2.12.3 0 .03.01.06.04.08.09.1.2.17.33.24.03.01.05 0 .06-.03.05-.13.02-.25-.1-.33.15.07.3.14.44.23.3.21.64.37 1 .48a.7.7 0 0 1 .37.28l.06.03.27.01a.85.85 0 0 1-.35.05 4.44 4.44 0 0 1-2.83-1.53 4.54 4.54 0 0 1-.89-2.39c0-.3.02-.64.05-1.01a2 2 0 0 1 .2-.76c.05-.09.08-.18.1-.26a.86.86 0 0 1 .1-.25c.15-.23.28-.5.5-.67Zm6.99.26-.1-.1a.05.05 0 0 1 0-.07l.02-.01c.06-.01.12.01.16.07a3.8 3.8 0 0 1 .75 2.24l-.01.8c-.02.23-.06.47-.14.73a8.1 8.1 0 0 1-.5 1.12c-.01.03-.04.05-.07.04l-.02-.01h-.02a.03.03 0 0 1 0-.04v-.01c.12-.2.2-.4.26-.56.01-.07.04-.13.07-.19l.07-.19c.21-.6.28-1.21.21-1.82a28.75 28.75 0 0 0-.14-.92.28.28 0 0 1-.06-.11 2.4 2.4 0 0 0-.26-.6 3.9 3.9 0 0 1-.22-.37Z" fill="#486561"/><path d="M8.85 13.2c.31 0 .6-.06.88-.19.47-.24.95-.48 1.43-.74a.26.26 0 0 0-.05.26c0 .03.02.04.04.02.14-.07.26-.16.37-.26a.13.13 0 0 0 .04-.1v-.12a.1.1 0 0 1 .03-.07c.11-.14.25-.25.37-.4l.41-.53a.1.1 0 0 1 .1-.04h.04c.03 0 .06-.01.07-.04a4.2 4.2 0 0 0-.21-4.33.12.12 0 0 0-.11-.06l.06-.01c.02-.01.04-.03.03-.06v-.05a.1.1 0 0 1 .08.04c.14.2.26.41.36.64.06.13.19.27.21.4.02.1.04.18.08.26.09.19.09.41.12.61.04.29.01.59.03.87 0 .17 0 .34-.04.5a4.13 4.13 0 0 1-1.14 2.15 4.21 4.21 0 0 1-2.15 1.21c-.37.1-.68.06-1.05.04Zm-4.3-4.22c0 .2 0 .4.04.6l.06.35c.02.13.05.24.09.35l.27.74c.06.14.14.26.21.4a.04.04 0 0 1 0 .03c0 .02-.02.03-.03.03l-.04-.02a4.42 4.42 0 0 1 .1-4.94h.06a.02.02 0 0 1 .01.03c-.04.12-.1.23-.16.33-.1.15-.18.3-.26.47-.07.14-.13.31-.17.53l-.13.61c-.04.16-.05.33-.05.49Z" fill="#486561"/><path d="M5.7 6.56c.02.04.06.06.12.05a.08.08 0 0 1 .07.12l-.35.61-.2.48a3 3 0 0 0-.17.94l.44.04c.03 0 .05.01.06.03.03.04.06.06.1.08a.1.1 0 0 1 .05.05l.04.08c.01.3.02.5.01.61 0 .03-.01.05-.05.06-.1.02-.14-.01-.15-.1l-.03-.39c0-.07-.04-.1-.11-.1l-.28.03c-.08 0-.1.05-.1.12.09.66.26 1.24.51 1.73.03.04.02.08-.02.1l-.1.09c-.06.03-.1.02-.13-.03a4.4 4.4 0 0 1 .25-4.63c.01 0 .03 0 .04.03Z" fill="#F1E469"/><path d="M8.61 6.53a.09.09 0 0 0 0 .07l-.74.21-.02-.01v-.02a.04.04 0 0 1 .02-.05l.74-.2Zm1.07.2c.2.07.35.1.36.07.01-.03-.13-.1-.32-.17-.2-.07-.35-.1-.36-.07-.01.03.13.1.32.17Z" fill="#ABBF64"/><path d="M12.26 6.6c.04 0 .08.02.1.06a4.2 4.2 0 0 1 .22 4.33.07.07 0 0 1-.07.04h-.05a.1.1 0 0 0-.09.04l-.41.53c-.12.15-.26.26-.37.4a.1.1 0 0 0-.03.07v.13c0 .03-.01.06-.04.09-.1.1-.23.19-.37.26-.02.02-.04.01-.05-.02a.26.26 0 0 1 .06-.26c.1-.04.19-.1.27-.2a39.8 39.8 0 0 1 .66-.7c.1-.16.28-.53.5-1.1.11-.34.18-.67.2-1 0-.09-.03-.13-.11-.13h-.27c-.08 0-.12.03-.14.1l-.09.45-.04.02a.02.02 0 0 1-.02-.01V8.53l.1-.28.07.46c0 .02 0 .03.02.04l.04.01h.38a.05.05 0 0 0 .05-.06 3.88 3.88 0 0 0-.72-1.88.52.52 0 0 0 .08-.17c0-.02.02-.04.04-.05h.08Z" fill="#F1E469"/><path d="M8.07 7a.02.02 0 0 1-.02-.02v-.01c0-.02.03-.05.07-.07a2.6 2.6 0 0 1 .8-.1h.02c.23 0 .45.02.61.05.16.03.26.08.26.12v.01a.02.02 0 0 1-.02.02H8.07Z" fill="#FEFBEC"/><path d="M12.06 6.82a3.88 3.88 0 0 1 .7 1.91.05.05 0 0 1-.03.02l-.38.01-.04-.01a.06.06 0 0 1-.02-.04l-.07-.46-.19-.59c-.05-.15-.09-.15-.12.01v.13a10 10 0 0 1 0-.75c0-.05.01-.1.04-.14a.19.19 0 0 1 .11-.09ZM6.07 7.98a.95.95 0 0 0-.02-.4.05.05 0 0 0-.08-.03.32.32 0 0 0-.12.22c0 .06-.02.12-.04.17-.1.25-.15.5-.17.74a.06.06 0 0 1-.06.06l-.4.02a3 3 0 0 1 .17-.94l.19-.48.01.08c.02.03.03.03.04 0a1.85 1.85 0 0 1 .43-.6.05.05 0 0 1 .06.04 6 6 0 0 1-.01 1.12Z" fill="#486561"/><path d="M13.66 7.18a5 5 0 0 1 .31 1.32.6.6 0 0 0-.4.04c-.05-.32-.1-.64-.2-.94l-.15-.38c0-.03 0-.04.03-.03a.9.9 0 0 0 .4 0Z" fill="#577A77"/><path d="M6.07 7.98a.7.7 0 0 0-.18.47 3 3 0 0 1-.03.59l-.04-.08a.1.1 0 0 0-.05-.05.27.27 0 0 1-.1-.08.08.08 0 0 0-.06-.03l-.44-.04.41-.02a.06.06 0 0 0 .06-.06c.02-.25.08-.5.17-.74a.67.67 0 0 0 .04-.17c0-.08.05-.15.12-.22a.05.05 0 0 1 .08.03c.04.11.04.25.02.4Zm6.15.27-.1.28c0-.13 0-.33-.12-.4a.07.07 0 0 1-.04-.06l-.04-.27-.01-.13c.03-.16.07-.16.12 0l.2.58Z" fill="#ABBF64"/><path d="M4.13 7.87h.32c.03 0 .04.01.04.05l-.03.16a.06.06 0 0 1-.06.05h-.32l.05-.26Zm-.06.27c.02.05.05.07.12.07a8.1 8.1 0 0 0 .24 0l-.02.17c0 .02-.01.03-.03.03h-.34c0-.1.02-.18.03-.27Z" fill="#577A77"/><path d="M13.97 8.5c.02.11.02.23.03.34l-.38.04a.04.04 0 0 1-.03 0 .04.04 0 0 1 0-.03l-.01-.3a.6.6 0 0 1 .4-.05ZM4 8.87l.02-.35c.1-.03.21-.03.32-.01.03 0 .04.02.04.04l-.01.22c0 .03-.02.05-.06.06l-.3.04Z" fill="#486561"/><path d="M8.08 9.08h-.03c-.14-.2-.5-.23-.63-.01a.63.63 0 0 1-.28.07.06.06 0 0 1-.05-.09c.2-.34.6-.73 1-.35a2.1 2.1 0 0 1 .3.37.06.06 0 0 1-.03.05h-.03a.43.43 0 0 1-.25-.04Zm2.5-.01c-.12-.2-.42-.18-.58-.07-.14.05-.19.19-.38.13a.05.05 0 0 1-.02-.07c.09-.12.2-.25.33-.38.38-.36.77.06.98.36l-.01.06c-.09.07-.23 0-.32-.03Z" fill="#FEFBEC"/><path d="M8.05 9.07c.03.17.03.34 0 .5-.14.2-.5.22-.63 0a1.53 1.53 0 0 1 0-.5c.14-.22.5-.2.63 0Zm2.53 0v.52c-.15.19-.45.17-.6.03A.72.72 0 0 1 10 9c.16-.1.46-.14.58.07Z" fill="#040405"/><path d="m8.08 9.08.06.05.04.05a.6.6 0 0 1-.05.37c-.04.03-.06.04-.08.03a1.4 1.4 0 0 0 0-.5h.03Z" fill="#B36F3D"/><path d="M14 9.14c0 .22-.03.45-.07.67a.94.94 0 0 0-.4.02l.04-.25c0-.03.02-.04.04-.04h.27c.02 0 .03 0 .03-.03V9.5l-.01-.01-.02-.01a.78.78 0 0 0-.28-.02c-.02 0-.03 0-.03-.03v-.06a.03.03 0 0 1 .03-.03h.32c.02 0 .04-.02.04-.05v-.02c0-.02-.01-.03-.03-.03h-.31c-.03 0-.04 0-.04-.03v-.04c0-.02.01-.04.03-.04.13-.01.26 0 .39.02Z" fill="#577A77"/><path d="m12.59 10.27-.26-.12a.05.05 0 0 1-.03-.05l-.02-.37a.05.05 0 0 0-.06-.06l-.04.02.1-.44c0-.08.05-.12.13-.11h.27c.08 0 .12.04.11.12a3.9 3.9 0 0 1-.2 1.01Z" fill="#486561"/><path d="M9.97 9.62c.16.14.46.16.6-.03.15-.1.28-.1.4.05.15.17.33.34.55.52l.02.1-1.75.01a.44.44 0 0 0-.37-.35 2.2 2.2 0 0 0-.45-.02c-.37 0-.63 0-.75.37-.68.02-1.23.03-1.68.02-.03 0-.05-.02-.06-.07.19-.23.39-.44.61-.63.12-.1.2-.08.33-.02.13.22.49.2.63 0 .02.02.04.01.08-.02a.6.6 0 0 0 .3-.13c.08-.07.13-.08.24-.07.09 0 .13.07.2.12a.25.25 0 0 0 .32-.04c.13-.13.26-.12.4-.02.12.08.25.15.38.2Z" fill="#FEFBEC"/><path d="M4.41 10.99a5 5 0 0 1-.38-1.44h.32c.03 0 .04.02.04.05a2.86 2.86 0 0 0 .1.6.04.04 0 0 1-.01.03h-.16c-.03 0-.05 0-.06.03l-.03.09c0 .03 0 .05.04.05l.25.01c.03 0 .05.02.06.05l.18.46a.04.04 0 0 1 0 .04.04.04 0 0 1-.05.01.69.69 0 0 0-.3.02Z" fill="#577A77"/><path d="M13.93 9.8c-.01.12-.04.23-.06.34-.04-.11-.14-.14-.32-.1a.04.04 0 0 1-.05-.03.29.29 0 0 1 .03-.18.94.94 0 0 1 .4-.02Z" fill="#486561"/><path d="M9.79 10.27c0 .32-.12.42-.3.62-.08.08-.18.38-.07.5.1.12.28.06.4.2.06.1.1.08.13-.03.02-.14 0-.3.08-.43.08-.14.23-.26.35-.36a.42.42 0 0 1 .24-.1c.03 0 .05 0 .08.02.07.02.08.06.03.1l-.42.42c-.23.22-.08.52-.21.76a.8.8 0 0 1-.26.29c-.05.03-.07.08-.09.13-.06.06-.11.05-.15-.01a.69.69 0 0 0-.31-.32.9.9 0 0 0-.58 0 .68.68 0 0 0-.31.32c-.01.03-.04.05-.08.05l-.05-.02a.12.12 0 0 1-.03-.05c-.02-.04-.03-.07-.05-.08a.82.82 0 0 1-.29-.3c-.13-.25.02-.55-.2-.76a72.1 72.1 0 0 0-.41-.41c-.07-.06-.05-.1.03-.13h.03c.1 0 .2.02.26.07.13.1.24.2.33.33.1.14.09.31.12.48.02.12.07.13.14.03s.2-.11.32-.15a.16.16 0 0 0 .1-.14.62.62 0 0 0-.05-.33c-.08-.16-.24-.24-.3-.41a.63.63 0 0 1-.05-.3c.12-.36.38-.35.75-.36.18 0 .33 0 .45.02.2.04.32.16.37.35Z" fill="#040405"/><path d="M13.86 10.17c-.07.28-.15.54-.27.8l-.4.01c-.03 0-.04 0-.02-.04.1-.21.19-.44.26-.66 0-.03.02-.05.05-.05l.38-.06Z" fill="#486561"/><path d="M6.48 10.22c.01.05.03.07.06.07.45.01 1 0 1.68-.02-.01.1 0 .2.04.29.07.17.23.25.3.41.06.1.08.21.07.33a.16.16 0 0 1-.11.14c-.11.04-.25.04-.32.15-.07.1-.12.09-.14-.03-.03-.17-.01-.34-.12-.48a1.7 1.7 0 0 0-.33-.33.42.42 0 0 0-.26-.08h-.03c-.08.04-.1.08-.03.14l.42.4c.21.22.06.52.2.76.06.13.16.23.28.3l.05.1c0 .04-.04.06-.11.06a.45.45 0 0 1-.3-.1l-.74-.75c-.09-.1-.17-.2-.24-.33a3.06 3.06 0 0 0-.2-.28c-.13-.17-.2-.39-.2-.63l.03-.12Z" fill="#EAD8A9"/><path d="M6.45 10.34c0 .24.07.46.2.63l.2.28c.07.13.15.24.24.33l.74.74c.07.07.17.1.3.11.07 0 .1-.02.1-.07l.04.05.05.02c.04 0 .07-.02.08-.05.04.39.4.45.73.42a.57.57 0 0 0 .3-.11c.1-.08.16-.19.17-.31.04.06.09.07.15.01.16.07.3.06.4-.04l.83-.83c.07-.07.13-.18.2-.33.06-.13.17-.25.26-.36.1-.13.09-.3.12-.46.03-.05.06-.08.1-.07.15 0 .3-.01.45-.04l-.01.49-.03.06-.1.1a.1.1 0 0 0-.04.07c-.01.15 0 .34-.12.45a167.4 167.4 0 0 1-.62.59c-.3.06-.38.34-.65.43a.72.72 0 0 0-.26.14.09.09 0 0 1-.05.02c-.17 0-.36 0-.5.14a27.68 27.68 0 0 1-.26.23c-.28.04-.57.05-.88.02a.18.18 0 0 1-.13-.08c-.07-.1-.2-.17-.29-.24-.14-.09-.3-.02-.45-.1a2.6 2.6 0 0 0-.3-.15c-.2-.08-.3-.28-.49-.37-.06-.03-.13-.05-.18-.1a4.04 4.04 0 0 1-.61-.59 18.25 18.25 0 0 0-.06-.4c0-.07-.05-.1-.12-.11a.04.04 0 0 1-.03-.04l-.03-.54.55.06Z" fill="#8B5737"/><path d="m11.54 10.27.02.1c-.03.16-.02.33-.12.46-.09.11-.2.23-.26.36-.07.15-.13.26-.2.33l-.84.83c-.1.1-.23.11-.38.04.01-.05.03-.1.08-.13a.8.8 0 0 0 .26-.29c.13-.24-.02-.54.2-.76l.43-.41c.05-.05.04-.1-.03-.11a.21.21 0 0 0-.08-.01c-.1 0-.18.03-.24.09-.12.1-.27.22-.35.36-.07.12-.06.3-.08.43-.02.11-.07.12-.14.04-.11-.15-.3-.09-.4-.2-.1-.13 0-.43.08-.51.18-.2.3-.3.3-.62h1.75Z" fill="#EAD8A9"/><path d="M5.88 11.41c.21.29.47.54.77.76.12.08.15.2.1.33-.01.03-.03.04-.06.03a1.23 1.23 0 0 1-.33-.24.15.15 0 0 1-.04-.08c-.02-.1-.03-.22-.12-.3a4.82 4.82 0 0 1-.53-.65l.02-.03h.03l.16.18Z" fill="#ABBF64"/><path d="M9.29 12.06a.44.44 0 0 0-.09.23c0 .09-.05.13-.14.13h-.14c-.08 0-.13-.04-.13-.13s-.03-.16-.08-.23a.9.9 0 0 1 .58 0Z" fill="#8B8B8B"/><path d="M8.71 12.06c.05.07.07.14.08.23 0 .09.05.13.13.13h.14c.1 0 .14-.04.14-.13a.46.46 0 0 1 .09-.23c.15.08.25.19.31.32a.45.45 0 0 1-.16.3.57.57 0 0 1-.3.12c-.34.03-.7-.03-.74-.42a.68.68 0 0 1 .31-.32Z" fill="#D47E9B"/><defs><linearGradient id="a" x1="3.35" y1="3.12" x2="21.9" y2="24.43" gradientUnits="userSpaceOnUse"><stop stop-color="#1A1E21"/><stop offset="1" stop-color="#06060A"/></linearGradient></defs></svg>