<!-- by TradingView --><svg width="18" height="18" viewBox="0 0 18 18" xmlns="http://www.w3.org/2000/svg"><path fill="#F0F3FA" d="M0 0h18v18H0z"/><path fill-rule="evenodd" d="M9 14.3A5.3 5.3 0 1 0 9 3.7a5.3 5.3 0 0 0 0 10.6Zm0-.1A5.2 5.2 0 1 0 9 3.8a5.2 5.2 0 0 0 0 10.4Z"/><path d="M14.3 9.01V9A5.3 5.3 0 1 0 3.7 9v.01h10.6Z"/><circle cx="9" cy="9" r="4" fill="#5FCBFC"/><path fill-rule="evenodd" d="M9 15A6 6 0 1 0 9 3a6 6 0 0 0 0 12Zm0-.11A5.89 5.89 0 1 0 9 3.1 5.89 5.89 0 0 0 9 14.9Z"/><circle cx="9" cy="9" r="3.18" fill="#90E4FF"/><path d="m10.75 11.6.5.12c.18.05.25.1.22.16-.33-.15-.73-.21-1.18-.2-.19.01-.3-.08-.35-.26-2.62-.59-1.05 1.15-2.62-1.58-.15-.38-.39-.74-.45-1.13-.24-1.36.23-2.36 1.57-2.7.96-.23 2.46.39 2.67 1.44.06.31.22.54.2.86-.02.49.24.91.04 1.39-.16.37-.34.75-.54 1.13a.8.8 0 0 1-.69.46.1.1 0 0 0-.08.05.1.1 0 0 0 0 .1c.1.24.45.2.71.16Z"/><path d="M11.3 9.61c-.26-.12-.4-.4-.42-.84.03-.15-.03-.25-.17-.28l-.26-.68a.3.3 0 0 0-.08-.13 1.48 1.48 0 0 1-.47-.63.15.15 0 0 0-.1-.09c-.22-.07-.42-.2-.59-.35a.96.96 0 0 0-.45-.25.2.2 0 0 1-.14-.1.3.3 0 0 0-.2-.17c.39-.1.8-.08 1.26.08.61.21 1.15.59 1.34 1.2l.15.5c.04.14.07.35.07.63.01.4.24.7.07 1.11Z" fill="#B1B1B1"/><path d="M8.42 6.1c.1.01.16.07.2.15.03.06.08.1.14.11.18.04.33.13.45.25.17.16.37.28.6.35.04.02.07.05.09.1.1.24.25.45.47.62a.3.3 0 0 1 .08.13c.29.77.4 1.04.86 1.8-.15.41-.33.8-.55 1.17-.13.22-.27.35-.4.4-.6.2-1.02.1-1.44-.31-.48-.48-1.1-.8-.98-1.59 0-.01 0-.02-.02-.03l-.02.01c-.16.8.48 1.2 1 1.65.25.23.48.37.69.42-.12.03-.14.1-.05.2a.3.3 0 0 1 .06.13c.06.24.19.38.4.43.28.08.58.07.9 0 .05-.02.07 0 .08.05 0 .07-.02.15-.07.23a3.8 3.8 0 0 1-3.25.3 3.84 3.84 0 0 1-1.4-.86l.05-.04c.3-.04.56-.1.73-.36.3-.44.39-.91.28-1.43a.25.25 0 0 1 0-.14c.05-.23-.2-.57-.3-.77-.3-.6-.2-2.2.44-2.59.3-.18.62-.3.96-.39Z" fill="#989898"/><path d="M10.7 8.49c.15.03.2.13.18.28-.04.06-.1.1-.17.1a.18.18 0 0 1-.2-.21c.02-.09.09-.14.2-.17ZM7.32 9.98c.1.52.01 1-.28 1.43-.17.27-.43.32-.73.36.13-.1.3-.16.47-.19a.67.67 0 0 0 .26-.29c.25-.4.34-.84.28-1.31Z"/><path d="m9.59 11.33.26.01c.05 0 .08.03.09.08.05.18.16.27.35.26.45-.01.85.05 1.18.2.03.04.04.04.03 0 .02.05.01.08-.01.1-.17.15-.36.28-.58.4a.38.38 0 0 0 .07-.24c0-.05-.03-.07-.08-.05-.32.07-.62.08-.9 0-.21-.05-.34-.2-.4-.43a.3.3 0 0 0-.06-.13c-.09-.1-.07-.17.05-.2Z" fill="#B1B1B1"/><path d="M9.1 8.87a.19.19 0 1 0 0-.37.19.19 0 0 0 0 .37ZM10.25 9.32c.09.25.17.44.19.44.01-.01-.04-.21-.12-.46a1.65 1.65 0 0 0-.19-.43c-.01 0 .04.21.12.45ZM10.47 10a24.1 24.1 0 0 1-.9 0v-.05c0-.02 0-.03.03-.03.21.02.65.07.84-.04.02-.01.04 0 .06.01.02.02.02.04.02.06a.05.05 0 0 1-.05.04Z"/><path fill-rule="evenodd" d="M9 13a4 4 0 1 0 0-8 4 4 0 0 0 0 8Zm0-.11A3.89 3.89 0 1 0 9 5.1a3.89 3.89 0 0 0 0 7.78Z"/></svg>