<!-- by TradingView --><svg width="18" height="18" viewBox="0 0 18 18" xmlns="http://www.w3.org/2000/svg"><path fill="url(#a0kp3zn41)" d="M0 0h18v18H0z"/><path d="M11.24 4.52A5 5 0 0 0 4 9.24c2-.33 5.27-1.6 7.23-4.72ZM4.07 9.86c.12.66.36 1.28.7 1.82 1.1-.31 2.61-.9 4.12-1.8 1.57-.94 3.11-2.2 4.16-3.83a5.03 5.03 0 0 0-1.27-1.21 11.39 11.39 0 0 1-7.7 5.02Zm9.35-3.23a13.39 13.39 0 0 1-4.21 3.79 18.73 18.73 0 0 1-4.04 1.8c.4.46.87.85 1.4 1.15 1.81-.57 5.03-2.1 7.41-4.94a4.96 4.96 0 0 0-.56-1.8ZM14 9.36a17.65 17.65 0 0 1-6.59 4.38A5 5 0 0 0 14 9.36Z" fill="#F79D2D"/><defs><linearGradient id="a0kp3zn41" x1="3.35" y1="3.12" x2="21.9" y2="24.43" gradientUnits="userSpaceOnUse"><stop stop-color="#1A1E21"/><stop offset="1" stop-color="#06060A"/></linearGradient></defs></svg>