<!-- by TradingView --><svg width="18" height="18" viewBox="0 0 18 18" xmlns="http://www.w3.org/2000/svg"><path fill="#F0F3FA" d="M0 0h18v18H0z"/><path fill-rule="evenodd" d="M12.54 4.15a5.92 5.92 0 0 0-5.37-.86A6.02 6.02 0 0 0 3 8.69v.72a6.12 6.12 0 0 0 4.11 5.28A5.7 5.7 0 0 0 8.7 15h.61a6 6 0 0 0 3.23-10.85Zm.89 1.96a5.28 5.28 0 0 0-9.72 3.1A5.36 5.36 0 0 0 9.2 14.3a5.14 5.14 0 0 0 3.38-1.4A5.13 5.13 0 0 0 14.19 10a5.22 5.22 0 0 0-.76-3.9Z" fill="url(#a)"/><path d="M9.84 9.52c.01.02 0 .03-.02.03h-.76l-.02.01v.03l.63 1 .03.01h.7c.03 0 .05.02.06.04l.72 1.27c.04.06.1.09.17.09h1.63c.02 0 .03 0 .01-.03L9.03 5.01 9 5l-.02.01-.81 1.41a.18.18 0 0 0 0 .2l1.67 2.9ZM7.2 8.1l-.7 1.25v.02h-.02l-1.47 2.6c-.02.02 0 .03.02.03h1.64c.06 0 .1-.03.13-.07l.92-1.62a.05.05 0 0 0 0-.05v-.01c-.1-.18-.23-.39-.35-.54a.23.23 0 0 1-.05-.13c0-.02.01-.03.04-.03h.67c.02 0 .03-.01.02-.03a.83.83 0 0 0-.09-.2l-.37-.64a27.03 27.03 0 0 1-.37-.59l-.02.01Z"/><defs><linearGradient id="a" x1="9" y1="3" x2="9" y2="15" gradientUnits="userSpaceOnUse"><stop stop-color="#00EADB"/><stop offset=".51" stop-color="#6B8AD3"/><stop offset="1" stop-color="#E656CB"/></linearGradient></defs></svg>