<!-- by TradingView --><svg width="18" height="18" viewBox="0 0 18 18" xmlns="http://www.w3.org/2000/svg"><path fill="#F0F3FA" d="M0 0h18v18H0z"/><path fill-rule="evenodd" d="M7.16 4h4.73L14 6.57l-2.39 2.25 2.06 2.46-3 2.72-4.73-.6L4 11.01 6.1 9.1 4.1 6.66 7.16 4Zm.5.5L9.3 6.33h3.97L11.7 4.5H7.66ZM4.71 6.7l1.75 2.1L8.9 6.6 7.18 4.55 4.7 6.7Zm3.72 4.47-3.6-.34 4.49-4h3.77l-4.66 4.34Zm-3.59.17 1.31 1.64 3.89.5-1.62-1.85-3.58-.29Zm5.8 2.07L8.8 11.45l2.44-2.32 1.84 2.1-2.43 2.18Z" fill="#0B9BA9"/></svg>