<!-- by TradingView --><svg width="18" height="18" viewBox="0 0 18 18" xmlns="http://www.w3.org/2000/svg"><path fill="url(#a)" d="M0 0h18v18H0z"/><path d="M11.59 5.97c.2.37.7.41.94.04.03-.05.05-.05.07 0 .04.14.05.29-.1.37-.3.18-.6.18-.88-.01a.72.72 0 0 1-.29-.4c-.03-.1-.04-.26-.01-.47l.07-.65c.02-.25.07-.42.14-.5a.76.76 0 0 1 .46-.33c.44-.09.82.13.94.55.03.09.03.22 0 .41a23 23 0 0 0-.06.54l-.2-.16a.03.03 0 0 1-.02-.03c.05-.4.16-.75-.15-.98-.2-.16-.42-.16-.64 0-.14.09-.2.24-.22.43l-.08.7c-.03.24-.02.4.03.5ZM4.47 6.35c.24.38.75.33.93-.04.05-.09.06-.25.03-.49a35 35 0 0 1-.08-.7c-.02-.19-.08-.34-.22-.44-.23-.15-.44-.14-.65.01-.3.24-.2.59-.14.98l-.01.03-.2.17a.01.01 0 0 1-.02 0 23.4 23.4 0 0 0-.06-.54 1.16 1.16 0 0 1 0-.4c.13-.44.5-.65.94-.57.18.04.33.14.47.32.06.1.11.26.14.5l.08.66c.02.2.02.37-.02.47a.72.72 0 0 1-.29.4c-.28.19-.57.2-.88.02-.14-.09-.13-.24-.1-.37.02-.05.05-.06.08 0Z" fill="#FFC800"/><path d="M12.76 6.17c0-.54-.72-.76-1-.27-.03.05-.05.04-.07-.01a.71.71 0 0 1 0-.25c0-.02 0-.04.02-.06.16-.13.34-.2.55-.18.28.02.49.14.63.38s.15.48.03.74l-.4.91a.81.81 0 0 1-.53.39c-.34.06-.63-.07-.84-.4-.03-.03-.02-.06.03-.08l.07-.03a.1.1 0 0 1 .13.03c.21.29.48.33.8.14.06-.03.12-.12.18-.25.05-.14.14-.36.27-.64.08-.2.13-.33.13-.42ZM5.85 7.77a.77.77 0 0 1-.85.38.7.7 0 0 1-.53-.42C4.3 7.36 4.14 7 4 6.63c-.01-.43.16-.71.51-.85a.77.77 0 0 1 .68.08c.08.05.13.1.13.17 0 .1-.02.16-.04.22-.01.03-.03.03-.04 0-.15-.24-.35-.32-.6-.26a.55.55 0 0 0-.4.51c0 .07.01.16.06.27l.38.87c.16.36.72.41.93.07.03-.06.07-.08.13-.06.1.03.14.07.1.12Z" fill="#FFB400"/><path d="M11.32 6.3a.01.01 0 0 1 .02 0c.05.03.1.07.12.11.03.05.03.1.01.15l-.07.16a.16.16 0 0 1-.11.09.26.26 0 0 1-.17-.02v-.01l.2-.47ZM5.67 6.61l.21.5c.01.04 0 .05-.03.05l-.16-.03a.13.13 0 0 1-.1-.1.46.46 0 0 0-.1-.19v-.03l.17-.2Z" fill="#FFB400"/><path d="M11.8 7.43c-.24-.33-.66-.36-.9-.03l-.46.66c-.13.18-.2.33-.2.43 0 .24.13.4.37.52.04.02.05.05.02.07l-.1.11c-.04.03-.07.03-.1.01-.31-.2-.45-.46-.42-.79.02-.13.09-.29.22-.47l.46-.66c.34-.51 1.06-.45 1.35.1.02.02 0 .04-.03.05l-.13.03a.08.08 0 0 1-.09-.03ZM6.5 8.3l-.45-.64c-.27-.23-.64-.2-.84.11-.02.04-.05.05-.1.03L5 7.77c-.03-.01-.04-.03-.02-.07.14-.26.35-.4.63-.43.2-.01.36.03.5.13.09.05.2.18.33.37l.31.45c.15.21.23.37.25.49.06.35-.09.63-.44.84h-.02a.6.6 0 0 1-.16-.17v-.02c.29-.12.41-.32.38-.6-.03-.17-.14-.32-.25-.45ZM11.18 9.01c.01-.08 0-.13.05-.2a278.75 278.75 0 0 1 .58-.82l.2-.05c.07-.01.09.01.05.07-.17.27-.38.57-.63.92a.97.97 0 0 1-.25.25c-.04.03-.05.02-.04-.03l.04-.14Z" fill="#FFC800"/><path d="M9.45 9.92v-.2c0-.03 0-.04.03-.05l.97-.3c.23-.06.35-.23.36-.5.02-.23-.12-.4-.4-.54V8.3l.15-.15h.03c.36.19.5.48.45.87a.7.7 0 0 1-.24.42c-.08.08-.22.14-.41.2-.3.1-.62.19-.94.28ZM9.84 8.44l-.5.15a.98.98 0 0 0-.3.11c-.05.03-.15.06-.3.09-.07 0-.08-.01-.04-.07a.9.9 0 0 1 .23-.22c.06-.04.15-.08.28-.12a53.47 53.47 0 0 0 .73-.21l-.08.25s0 .02-.02.02Z" fill="#FFB400"/><path d="m5.83 9.36.04.14c.02.04 0 .05-.03.02a.96.96 0 0 1-.26-.25c-.25-.34-.46-.65-.63-.92-.04-.06-.03-.08.04-.06l.2.04a288.13 288.13 0 0 1 .59.82c.05.07.04.12.05.2Z" fill="#FFC800"/><path d="M6.43 8.48c.06.04.11.1.15.17 0 .02 0 .03-.02.04-.29.12-.4.32-.35.61.04.23.18.37.44.44l.76.22c.16.05.28.06.35.05a.58.58 0 0 0 .32-.2.01.01 0 0 1 .01.01l.09.2-.01.04a.7.7 0 0 1-.6.18c-.2-.04-.6-.15-1.23-.35-.3-.22-.43-.5-.37-.83.05-.26.2-.45.46-.58ZM7.09 8.49l.72.22a1.1 1.1 0 0 1 .35.16.03.03 0 0 1-.02.04.4.4 0 0 0-.15.08.05.05 0 0 1-.05 0l-.78-.23-.01-.01-.08-.25.01-.01ZM8.16 9.15l.93-.2a.08.08 0 0 1 .1.07l.03 1.05a.08.08 0 0 1-.06.08l-.56.12a.08.08 0 0 1-.09-.04l-.4-.97a.08.08 0 0 1 .05-.11Z" fill="#FFB400"/><path d="M7.74 10.39a3 3 0 0 0 .37-.13c.05-.03.09-.08.12-.16 0-.03.03-.04.05-.03l.03.01.04.03.17.25c.02.02.03.02.06.02l.56-.13c.03 0 .05-.02.06-.04l.26-.3v.19c.16.05.3.05.42 0l.25-.08 1.56-.2c.36-.06.68.04.94.3.2.2.3.42.31.67v.49c0 .2-.03.36-.06.48-.17.5-.51.81-1.03.93-.04.01-.15.03-.32.04l-.27.05a.06.06 0 0 0-.04.04c-.09.3-.24.5-.46.57-.19.08-.44.11-.75.11-.12 0-.23.02-.32.04-.26.08-.5.12-.74.1-.1 0-.2.01-.3.05-.22.07-.46.1-.72.1a.57.57 0 0 1-.4-.16c-.03-.03-.05-.03-.07 0-.15.15-.28.25-.4.28-.08.03-.22.06-.42.08-.2.02-.4.03-.56-.06a.7.7 0 0 1-.32-.35 1.17 1.17 0 0 1-.04-.45l.08-1.71c.01-.26.05-.44.12-.55.19-.33.54-.35.92-.4a.8.8 0 0 1 .31.02c.1.03.2.08.28.15.02.02.03.02.05 0l.26-.25Z" fill="#231815"/><path d="M10.8 12.36a.07.07 0 0 0-.06.07v.27c0 .06-.02.1-.05.13-.13.13-.38.19-.58.2a.18.18 0 0 1-.2-.13 2.05 2.05 0 0 1-.04-.79l.03-.54v-.6c0-.14.02-.25.09-.32.08-.1.22-.16.4-.19l1.01-.14c.32-.04.53-.04.64-.01.48.14.47.67.4 1.12-.07.45-.34.72-.8.8-.25.05-.53.1-.84.13Z" fill="#08070E"/><path d="M12.35 10.68c-.41.08-.82.2-1.2.35l-.45.1-.68.2.02-.57a.17.17 0 0 1 .15-.16l1.62-.22c.22-.03.4.07.54.3Z" fill="#FBD686"/><path d="m8.92 12.42-.02.53c0 .1.05.14.14.12l.4-.05c.1-.02.15-.07.15-.17l.07-1.4.02-.62c0-.1-.05-.15-.15-.14l-.37.05c-.11.02-.17.08-.17.2l-.02.68-.02.33c-.07-.31-.1-.63-.08-.96 0-.08.02-.14.05-.18.13-.2.44-.23.64-.22.1 0 .17.05.2.13.02.03.03.1.03.2a25.47 25.47 0 0 1-.12 2.02.1.1 0 0 1-.03.03 1.57 1.57 0 0 1-.63.22l-.03-.02a3.28 3.28 0 0 1-.13-.1c-.03-.03-.04-.08-.04-.16 0-.18.03-.34.11-.49Z" fill="#08070E"/><path d="M12.35 10.68c.03.28.04.54 0 .77a.8.8 0 0 1-.3.53c-.1.08-.29.14-.54.18l-.82.11c-.03 0-.04.02-.04.05v.37c0 .1-.06.17-.17.19l-.38.05c-.1.02-.16-.03-.15-.14l.07-1.47.67-.19-.01.51a.04.04 0 0 0 .01.03.04.04 0 0 0 .04.01l.77-.1c.12-.02.18-.09.18-.21v-.24c0-.11-.06-.16-.17-.13-.12.03-.24.04-.37.03.4-.15.8-.27 1.21-.35Z" fill="#FFB400"/><path d="M9.66 11.44a2.5 2.5 0 0 0-.7.18l.03-.69c0-.1.06-.17.17-.19l.37-.05c.1-.01.16.03.15.14l-.02.61Z" fill="#FBD686"/><path d="M8.61 11.8v-.09l.03-.75c0-.1-.04-.14-.14-.13l-.4.06a.19.19 0 0 0-.16.18v.66a.06.06 0 0 1-.05.06l-.8.1c-.03.01-.05 0-.04-.03l.03-.68c0-.1-.04-.15-.14-.13l-.4.05c-.1.01-.15.07-.15.17l-.05 1.07-.03.96c0 .1.04.14.14.13l.39-.06c.11-.01.17-.08.17-.19v-.67a.05.05 0 0 1 .04-.05l.8-.11c.02 0 .03 0 .03.02v.74c0 .08.04.12.12.1l.38-.05c.12-.01.18-.08.18-.19l.01-.43c.07.17.09.34.06.52a.11.11 0 0 1-.06.08c-.17.1-.37.16-.57.19a.1.1 0 0 1-.07-.02.4.4 0 0 1-.19-.4l.04-.32c.01-.07-.02-.1-.1-.1l-.47.05c-.07 0-.1.05-.1.12l-.01.33c-.03.43-.32.48-.67.54-.06.01-.12-.01-.16-.08a.28.28 0 0 1-.05-.16 12 12 0 0 1 .1-2.13l.03-.03c.17-.12.37-.18.6-.18.05 0 .11.03.18.09.04.03.06.1.06.17v.54c0 .02 0 .03.02.03l.58-.08.01-.02.07-.73a.07.07 0 0 1 .03-.05c.22-.12.44-.17.67-.16a.15.15 0 0 1 .14.14c.04.3 0 .6-.1.91Z" fill="#08070E"/><path d="m8.6 11.71-2.26.63.05-1.07c0-.1.05-.16.15-.17l.4-.05c.1-.02.15.03.14.13l-.04.68c0 .03.02.04.05.04l.8-.11a.06.06 0 0 0 .05-.06v-.66a.19.19 0 0 1 .16-.18l.4-.06c.1-.01.14.03.14.13l-.03.75Z" fill="#FBD686"/><path d="m9.66 11.44-.07 1.41c0 .1-.05.15-.15.17l-.4.05c-.1.02-.14-.02-.13-.12l.01-.53.03-.47.02-.33c.23-.1.46-.16.7-.18ZM8.6 11.71l.01.08-.04.75-.01.43c0 .11-.06.18-.18.2l-.38.05c-.08 0-.12-.03-.12-.11v-.74c0-.02-.01-.02-.03-.02l-.8.1a.05.05 0 0 0-.04.06v.67c0 .11-.06.18-.17.2l-.4.05c-.1.01-.14-.03-.14-.13l.04-.96 2.27-.63Z" fill="#FFB400"/><defs><linearGradient id="a" x1="3.35" y1="3.12" x2="21.9" y2="24.43" gradientUnits="userSpaceOnUse"><stop stop-color="#1A1E21"/><stop offset="1" stop-color="#06060A"/></linearGradient></defs></svg>