<!-- by TradingView --><svg width="18" height="18" viewBox="0 0 18 18" xmlns="http://www.w3.org/2000/svg"><path fill="url(#aegc5i2lo)" d="M0 0h18v18H0z"/><path d="M12.27 13.87a1.13 1.13 0 0 1-.18-.13c-.19-.18-.48-.8-.49-.9l-.08-.51c-.1-.65-.28-1.7-.28-1.95 0-.34 0-.54.07-.75.06-.2.48.02.88.23l.14.07c.44.22.65.46.88.8.18.27-.08.92-.23 1.2l.72.21a5.53 5.53 0 0 1-1.43 1.73Z" fill="#2E2846"/><path d="m4.1 12.21.63-.63.9-1.35.68-.5.42.5c.07.22.2.71.2.93a.9.9 0 0 1-.24.57l-.54.6-1 1.25c-.41-.4-.77-.86-1.05-1.37Z" fill="#4F303F"/><path d="M9.6 7.07a15.1 15.1 0 0 1 .94.33c-.19-.15-.4-.3-.65-.39a.64.64 0 0 0-.2-.05l-.04.03-.04.06-.02.02Zm.07-.11Zm1.69.73ZM9.4 5.99c.27-.07.56-.03.86.09a3.45 3.45 0 0 1 1.7 1.53c.04.09.08.2.1.3 0 .1.02.28-.1.46a.72.72 0 0 1-.4.29.88.88 0 0 1-.42 0c-.18-.03-.4-.11-.66-.21l-.12-.05-.98-.35c-.32-.11-.55-.18-.68-.2a.74.74 0 0 1-.43-.2.62.62 0 0 1-.17-.49.76.76 0 0 1 .1-.31 1 1 0 0 1 .14-.19l.19-.2.23.05.04-.05.07-.09c.09-.12.25-.3.53-.38Z" fill="#3A7E26"/><path d="M11.88 7.95c.16-.33-.08-.85-.22-1.07.15.08.48.28.59.37.1.1.07.3.04.38.04.1.13.34.14.44.01.13-.22.44-.38.72-.16.28-.95.61-1.4.77-.44.16-.44-.12-.45-.16-.02-.03-.06-.4.43-.58.48-.18 1.06-.45 1.25-.87Z" fill="#AD1F37"/><path d="M11.93 8.16c-.25.76-1.64 1.12-1.67 1.13-.07-.18-.16-.62.06-.93.28-.4 1.02-1.35 1.15-1.44.14-.1.27.07.41.16.15.1.29.32.05 1.08Z" fill="#48151E"/><path d="M10.52 5.98c-.36 0-.45-.11-.46-.16-.11.1-.3.35-.1.5.24.2.74.22.95.1.16-.09.12-.42.08-.58 0 .05-.1.15-.47.14Z" fill="#223D2A"/><path d="M10.14 5.9c-.13-.08-.1-.18-.06-.22.1-.02.4-.05.7-.05.3 0 .28.06.24.09l-.1.24c-.2.01-.64.02-.78-.06Z" fill="url(#begc5i2lo)"/><path d="M10.6 4.77c-.14-.06-.8-.07-.85-.06l-.02.46c0 .16.12.33.27.35.15.03.13-.04.42-.09.3-.04.52.08.53.02l.02-.16a.65.65 0 0 0-.08-.2c-.01-.02-.13-.26-.28-.32Z" fill="#216A1B"/><path d="M7.87 4.81c-.33.13-.57.1-.65.06.06.3.18 1.03.18 1.47 0 .55.39.41.99.5.6.07.56.11 1.3-.09.76-.2.4-.3.4-.92 0-.63-.09-.4-.12-.9-.04-.52-.21-.25-.4-.31a3 3 0 0 0-.9-.13c-.32 0-.4.16-.8.32Z" fill="url(#cegc5i2lo)"/><path d="M10.88 6.07c.1-.03.11-.12.11-.16l.04.03.06.16c.02.03.17.21.25.37.07.12.08.17.08.18.32.21.45.52.52.75.07.23.01.7-.07.83s-.21.04-.3.03c-.08-.02-.04-.07-.06-.2-.02-.14-.4-.4-.38-.43l-.14-.37c-.07-.21-.07-.07-.23-.22-.17-.15-.54-.19-.64-.28-.1-.1.42-.07.1-.11-.32-.05-.05-.1-.15-.26-.1-.17.08-.03.1 0 .02.02.55.02.59 0l.16-.23c.03-.04-.15-.05-.24-.06.03 0 .1 0 .2-.03Z" fill="url(#degc5i2lo)"/><path d="M6.2 6.22c0-.07.02-.08.04-.08.04.04.17.1.38.05.25-.05.66-.27.7-.31.05-.04.12-.06.14.02.01.08-.16.4-.33.47-.18.07-.68.12-.76.03-.02-.01-.14-.1-.16-.18Z" fill="url(#eegc5i2lo)"/><path d="M6.31 6.2c-.08-.03-.12-.2-.13-.28.1-.05.36-.15.56-.17.26-.03.51.14.57.15.06 0-.05.1-.3.23-.25.12-.6.12-.7.08Z" fill="url(#fegc5i2lo)"/><path d="M7.28 4.97c-.06-.1-.29-.06-.4-.02-.11.04-.37.11-.44.16-.09.06.04.19 0 .25l-.11.27c.14 0 .5-.01.73.06.24.07.36.19.4.24-.02.05-.1.2-.33.38-.23.19-.63.12-.8.06l.11.23c.07.13-.32.22-.43.4-.11.17-.14.45-.2.6-.06.15.2.45.31.45.11-.01.31-.28.48-.48.18-.2.84-.69 1.65-.72.82-.04 2.68.76 2.75.78.08.03.26-.01 0-.22a1.99 1.99 0 0 0-.95-.42c-.4-.08-1.4-.44-1.46-.46-.06-.02-.06-.03-.1-.16-.02-.13.18-.23.17-.3-.01-.06-.19-.07-.27-.12-.07-.05-.13-.04-.29-.04-.13 0-.31.06-.39.09a1.04 1.04 0 0 1-.16-.07c-.08-.05-.03-.16 0-.18l.3-.2c.1-.07.12-.02.18-.11.06-.1.26-.13.44-.17.18-.04.35.02.37.02l.43.17c.18.09.1.16.2.36.1.2.44.5.56.55.11.04.33.08.66.2.33.12.04-.05.05-.09 0-.04.02-.07.14-.22.09-.11.1-.17.1-.19a.7.7 0 0 1-.5.25c-.28 0-.18-.02-.37-.13-.2-.1-.13-.06-.18-.19-.05-.12.17 0 .2-.02.01-.03-.14-.04-.24-.12-.1-.08-.06-.16 0-.23s.2-.08.4-.17c.2-.09.07-.14.05-.13-.01 0-.28.1-.29.03 0-.08.12-.11.2-.2.09-.1.1-.16.1-.15-.02 0-.3.13-.46.29-.15.16-.2.3-.21.36-.02.06-.14.02-.12-.1a.97.97 0 0 1 .05-.2c.02-.08.23-.25.37-.4.14-.16-.18 0-.28 0-.11 0-.2.15-.24.1-.05-.07-.07-.02-.16-.07-.07-.05-.1-.04-.1-.03l-.5.15c-.14.04-.23.02-.32.05-.1.04-.44.32-.51.3-.08-.03-.13-.06-.32-.17-.2-.1-.2-.2-.27-.32Z" fill="url(#gegc5i2lo)"/><path d="M8.11 7.3c-.58 0-1.37.57-1.69.85-.04-.02-.13 0-.17.25-.04.3.36.56.67.79.31.22 1.93.3 2.5.26.57-.04.65-.32.81-1 .16-.7-.36-.61-.75-.8-.4-.18-.65-.34-1.37-.34Z" fill="#203B28"/><path d="M8.77 7.6c-.75-.05-1.4.15-1.64.26l1.56.13c.38.05.38.14.75.26.36.13-.06.46.06.75s-.2.3-1.14.29c-.74 0-1.26-.2-1.43-.29l.14.57c.02.15.63.63 1.19.61a3.83 3.83 0 0 0 1.67-.75c.1-.13.85-.45 1.48-.8.64-.34.4-.42.4-.53v-.46a2.04 2.04 0 0 0-.16-.4c-.1-.17-.36-.25-.42-.27-.06-.03.04.15.06.27.03.11.2.35.26.55.06.19 0 .29 0 .52.01.23-.26.15-.26.1 0-.05.01-.1 0-.14 0-.03-.3-.12-.66-.28a5.35 5.35 0 0 0-1.86-.4Z" fill="#1B2C24"/><path d="m9.4 14-.96-2.8c0-.05.02-.17.16-.27.16-.13.48-.36.75-.5.26-.16.45-.32.58-.4.1-.07.23-.29.28-.39l.11-.18c.34-.1 1.09-.32 1.32-.36.3-.04-.1.42-.2.54-.12.12.02.58.15.73.1.12.3-.06.38-.17.04-.26.12-.57.11.22 0 .98.2.6 0 1.17s-.42.63-.32.94c.1.32.15.28.21.19v-.01c.02-.03.03-.03 0 0 0 .05-.03.18.05.37.14.3.12.14.17.37.11.26.19.36-.03.55H9.39Z" fill="#25203E"/><path d="M9.63 10.76c-.35.11-.73.28-.94.36-.23.05.43 1.48.68 1.9.2.34.54.8.68.97h2.09c-.12-.04-.22-.18-.4-.37-.22-.24-.14.05-.3-.14-.15-.2-.17-.1-.46-.4a5.47 5.47 0 0 1-.8-1.11c0-.07.1-.03.34.07.23.1.62.54.65.64.03.11.26.18.27.05.02-.14-.27-.53-.27-.97 0-.44-.08-.38-.13-.52s.08-.29.13-.66c.05-.36-.54.21-.57.06-.04-.16-.1-.34-.25-.24-.15.1-.38.26-.72.36Z" fill="#3E3142"/><path d="M10.14 11.5c0-.2.14-.37.23-.48.02-.04.1-.17.2-.3.1-.17.36-.56.66-1 .29-.45-.03-.32.21-.43.25-.1.45-.4.57-.48.11-.09-.01.3 0 .35 0 .04.07.3.05.32l-.17.18c-.05.05-.51.43-.57.53-.06.1-.12.23-.19.55-.05.26-.02.62 0 .76a71.7 71.7 0 0 1-.24-.76c-.13-.41-.03.02-.05.09-.02.07-.06.32.05.47.11.16.25.92.3 1.07.07.15-.02.11-.14 0-.12-.1-.09-.1-.38-.37-.29-.26-.1-.03-.4-.15-.3-.12-.13-.15-.13-.35Z" fill="#4A546D"/><path d="M5.16 13.59 6.7 11.6l.13-.53-.2-1.04.46-.67c.07.24.38.73 1.14.74.75 0 1.66-.6 2.02-.9.02.15.01.5-.24.69l-.24.19c-.23.17-.43.33-.56.4-.14.07-.6.42-.82.59l.96 2.92h-3.7a5.48 5.48 0 0 1-.48-.4Z" fill="#2A122C"/><path d="M7.02 9.9c-.04.24.12.67.16.72l-.87-.86-.18-.34.03-.24.27-.4.79.55c-.05.12-.16.4-.2.58Z" fill="url(#hegc5i2lo)"/><path d="M6.05 13.44c.02.12.18-.02.22.02.09.15.31.44.56.48.3.06 1.1 0 1.54 0 .34.01.3-.03.23-.05a2.26 2.26 0 0 0-.38-.08c-.29-.05.05-.07.15-.17.09-.1.33-.25.52-.5.19-.24.05-.18 0-.33-.04-.15-.47.1-.52.04-.06-.05-.03-.07.18-.21.2-.15.08-.35.05-.42s-.31.17-.38.11c-.06-.06-.05-.13-.12-.4-.07-.26.24-.8.32-.93.08-.14.19-.2.37-.37.18-.16.14-.17.26-.36.11-.19.15-.15.3-.27.16-.12.28-.18.29-.23 0-.05-.56.25-.6.26-.02.01-.36.11-.82.2-.46.1-.41.04-.7 0s-.05.02 0 .2c.05.17-.07.17-.1.2-.04.03.02.08.34.5.33.43 0 .08-.19.18-.18.11-.26.11-.42-.08-.16-.2-.04.03-.1.15-.06.12-.1.3-.16.65-.05.35.06.42.1.6.04.2-.07.14-.04.36.02.22.12.2.25.32.12.12-.37 0-.48 0-.1 0-.2-.06-.3-.46-.1-.4-.1-.3-.15-.2-.05.11-.1.54-.1.57-.01.04-.14.1-.12.22Z" fill="#44283E"/><path d="M7.1 13.45c-.13 0-.61-.1-.65-.09l.65.3c.11.07-.33.12-.54.15-.21.03-.03.1.15.1s.3 0 .65-.04c.33-.04.44-.11.64-.23.2-.12.25-.19.61-.35.36-.16.3-.24.35-.28.04-.04-.04-.05-.1-.06-.13.09-.46.27-.66.31-.25.06-.32-.06-.57-.15-.2-.07-.37-.34-.43-.46-.04.05-.05.2.16.43.25.28.68.35.64.35-.04 0-.19.05-.37 0a.95.95 0 0 1-.53-.46c-.16-.26-.15-.04-.15.04s.33.35.48.44c.15.1-.2 0-.33 0Z" fill="#E17858"/><path d="M8.01 10.44c-.15.03-.33.13-.41.18l.33-.02c.05 0-.1.1-.2.12-.1.02-.08.07-.03.12.05.06.12.08.23.12.1.05-.04.02-.2.04-.16.01.06.08.2.08h.26c.18 0 .08-.12.1-.16.02-.04.12-.08.12-.18 0-.1-.08.04-.25.05-.17 0 .06-.1.17-.12.1-.03-.08-.01-.14-.07-.06-.05.04-.05.22-.12.17-.08.53-.23.57-.3.05-.08-.15.05-.26.07-.12.01-.53.16-.71.2Z" fill="#7E3E43"/><path d="M9.35 10.34c-.36.17-.94.7-.97.71v.1L9.35 14h.08c-.3-.88-.92-2.67-.95-2.84-.04-.22.74-.6 1-.72.25-.12.46-.37.56-.47.1-.1.29-.55.3-.64 0-.09-.04-.13-.08-.11-.03 0-.17.51-.26.64-.08.12-.29.31-.65.48Z" fill="#DE7049"/><path d="M9.75 12.3c-.1-.09-.85-.72-.98-.85-.08-.17.13-.12.3-.13.18-.01.16.2.2.1.03-.08.06.03.1.1.03.06.12.13.19.26.06.14.07 0 .1-.08.04-.08.12 0 .12.05s0 .2.03.31c.02.12.04.33-.06.24Z" fill="#E8664C"/><path d="M9.24 12.88c-.07-.2 0-.27.03-.31a1.16 1.16 0 0 1 .21.7 1.5 1.5 0 0 1-.24-.4Z" fill="#EA6846"/><path d="M9.86 11.52c.05.08.13.15.17.17.06-.11.2-.37.32-.46.11-.08.03-.1-.03-.1-.08.05-.26.17-.3.24-.03.1-.03.03-.1-.09-.08-.11-.12-.01-.16.03-.03.04.04.11.1.2Z" fill="#E8664C"/><path d="M9.45 12.7c-.06-.19-.03-.24 0-.24.1.07.32.24.44.37.1.12.34.22.44.26a2.26 2.26 0 0 1-.17-.3l-.18-.6c-.03-.12 0-.24.03-.3.04-.05.05.05.09.09.04.03.33.44.51.59.18.15.5.51.61.79.1.28-.03.31-.18.35-.15.04-.47.1-.58.1-.11 0-.23-.1-.4-.27-.17-.18-.55-.6-.61-.84Z" fill="#58728B"/><path d="M10.98 14h-.13c-.3-.68-.88-2.08-.9-2.28-.04-.24.26-.68.36-.82.1-.13.33-.59.48-.79.12-.15.35-.58.45-.78l.05-.05.04.08c-.1.26-.33.81-.45.95-.15.18-.6.87-.74 1.05-.14.19.04.68.14.91l.7 1.72Z" fill="#51122D"/><path d="m13.88 11.76-.02-.04-.62-1.25c-.03-.05-.8-.78-1.18-1.13l-.25.02-.05.08c-.05.1-.11.2-.03.3.06.05.12.07.18.09.07.02.13.04.19.1 0 0 .02 0 .03.02.1.1.19.17.19.4 0 .13 0 .14-.02.16-.02.02-.04.04-.07.17-.02.13-.01.18 0 .22.01.04.02.07-.03.19-.05.1-.1.15-.16.2-.06.04-.09.07-.01.14l.06.08c.06.07.06.07.23-.18l.16-.26c.09-.16.14-.24.26-.25.08 0 .18-.07.26-.1.1-.07.15-.1-.02.1-.13.15-.23.2-.3.25-.08.04-.1.06-.08.2.03.11.07.12.1.12.04 0 .05 0 0 .12l-.1.17c-.08.11-.12.17.07.2.13.17.08.32.04.44-.02.08-.04.14-.01.19.04.04.02.11 0 .16 0 .06-.01.08.13-.05.08-.07.12-.13.16-.18.08-.12.12-.18.44-.17h.2l.25-.5Zm-.47.86-.07.12c-.06 0-.11.02-.16.03-.15.04-.21-.03-.2-.06 0-.03.08-.12.17-.12l.26.03Z" fill="#8099AF"/><path d="M14 11.46a.43.43 0 0 1-.06-.05l-.07-.07c-.03-.02-.06-.05-.09-.1-.02-.04-.06-.06-.09-.1a.45.45 0 0 1-.11-.13 4.31 4.31 0 0 0-.05-.1c-.05-.08-.1-.17-.1-.2 0-.05.03-.07.04-.07a2.01 2.01 0 0 1-.37-.54c0-.05 0-.06-.03-.07l-.07-.1a3.12 3.12 0 0 0-.25-.3 2.1 2.1 0 0 1-.24-.3c-.02-.05-.04-.04-.06-.02l-.07.02c-.07-.01-.1-.08-.1-.14 0-.06-.01-.08-.1-.16-.04-.05-.08-.05-.11-.04l-.05-.01c-.02-.02.01-.06.05-.1.03-.05.07-.1.06-.13-.02-.06-.14.08-.2.16l-.25.54c-.03.05 0 .16.12.14l.17-.06a.27.27 0 0 1 .05-.02c.03 0 .1.15.1.17l.11.18c.11.18.28.44.34.6.1.22-.21.52-.24.55l.26-.2c.05-.04.28-.12.42-.16l.09-.03c.06-.03.14.1.1.08-.01 0-.1.05-.16.1a.57.57 0 0 1-.12.07c-.04 0 .54.5.66.56.1.06.18.3.24.47l.18-.44Zm-.24.56-.15.28-.05.01c-.05.02-.4.07-.58.09-.03-.02-.1-.06-.08-.07l.03-.04c.02-.03.05-.08.13-.16l.16-.2c.08-.13.17-.24.21-.23.03.01.03.04.04.08 0 .06.02.15.15.18l.14.06Z" fill="#F1FCF8"/><path d="M10.17 7.59c-.53-.16-1.86-.3-1.9-.3.4.13 1.29.41 1.62.5a5.2 5.2 0 0 1 1.34.67c.12.13.2.06.27.05.08 0 .07-.23.07-.32-.01-.08-.1-.01-.1.1-.01.1-.12.05-.12.02a.9.9 0 0 0-.14-.24c-.04-.05-.5-.32-1.04-.48Z" fill="#285E2C"/><path d="M6.25 7.93c-.02.11.06.15.1.15.08-.08.25-.25.3-.33.08-.09.69-.33.93-.39a8.36 8.36 0 0 1 1.76 0c.37.07 1.02.19 1.34.3.32.1.46.23.45.19 0-.04-.54-.56-.77-.55a4.5 4.5 0 0 1-1.1-.32c-.23-.09-.43-.22-1.04-.21-.62 0-1.32.5-1.56.65a.9.9 0 0 0-.4.51Z" fill="url(#iegc5i2lo)"/><path d="M6.72 7.5c-.19.1-.3.35-.33.45.08-.12.31-.41.61-.53.37-.14.91-.3 1.16-.34.26-.03.84.1 1.5.17.51.07 1.01.28 1.2.37a5 5 0 0 0-.45-.26 5.3 5.3 0 0 0-1.13-.24c-.45-.07-.45-.1-.67-.12-.23-.03-.72 0-.93.12-.22.1-.71.25-.96.38Z" fill="#160839"/><path d="M9.66 4.66c-.15.05-.7.46-.78.49h.08c.06.03.2.09.23.08.05-.02.12.02.2.04.09.02.12.05.14.01.02-.03.02-.09.02-.18 0-.1.02-.13.08-.24.06-.12.18-.12.34-.14.16-.02.25-.02.21-.06-.03-.04-.38-.05-.52 0Z" fill="#EEC549"/><path d="M7.74 4.4c-.05-.03-.07.02-.07.05l.17.25.18.06c.05 0 .33-.11.46-.17.11-.03.39-.09.63-.07.24.02.41.1.47.12l.13-.05.02-.07c0-.02.03-.15.03-.27 0-.11-.16.05-.18.06-.03 0-.12-.05-.16-.08-.05-.03-.24-.09-.28-.14-.04-.05-.02-.1-.09-.09-.07 0-.06.07-.08.07h-.2a.4.4 0 0 0-.22.1l-.05-.05c0-.03-.03-.1-.08-.1-.05-.03-.04.1-.04.14 0 .04-.14.12-.15.12-.09-.01-.12.04-.13.07 0-.02-.05-.06-.14-.07-.11 0-.1.13-.12.14-.01 0-.04 0-.1-.03Z" fill="url(#jegc5i2lo)"/><path d="M9.58 4.6a34.7 34.7 0 0 1-.47-.1v.06c0 .01.36.12.42.12s.05.02.14 0l.2-.03c.14-.01.4.06.55.1.12.02.23.08.27.11a2.1 2.1 0 0 0-.35 0c-.23.02-.4.24-.42.26-.03.03.21-.2.55-.2.34 0 .43.27.43.27 0 .01-.17-.14-.23-.16-.06-.03-.02.07-.04.13-.01.06-.1.05-.04.09.06.03.3.15.23.14-.06 0-.34.01-.4.03-.06.03.09.09.36.12s.34.18.36.14c.03-.03-.1-.25-.14-.3-.05-.05 0-.08 0-.13 0-.06-.1-.2-.14-.26-.04-.05.03-.07.04-.08 0-.02-.34-.38-.67-.38-.32 0-.55.1-.65.07Z" fill="#F5FAE3"/><path d="m7.62 4.43.24.35-.05.09.1.11.28-.15c.13-.07.28.06.33.04.05-.02 0-.06-.06-.1-.06-.04-.11-.12-.1-.12l.23-.12h-.26c-.03 0-.13.12-.2.12s-.03-.04-.07-.05c-.03 0-.16.1-.19.1-.02 0-.04-.09-.06-.17-.02-.07-.13-.1-.19-.1Z" fill="#F5C765"/><path d="M7.1 5.28c-.23-.18-.44-.14-.5-.14 0 .03.05.1.3.17.31.07.53.38.58.43.05.06.03 0 .06-.05.02-.04-.2-.23-.44-.41Z" fill="#6C463D"/><path d="M6.44 5.5c-.2.01-.36.43-.35.45.03-.02.47-.12.84-.1.37.02.47.14.5.13.02-.01 0-.03 0-.09-.02-.06-.12-.2-.3-.27-.17-.07-.5-.14-.7-.12Z" fill="#574754"/><path d="M6.4 5.68c-.1.04-.25.17-.31.22a.94.94 0 0 1 .33-.53.23.23 0 0 1-.09.03c-.07.01.05-.12.12-.19-.05.03-.11.05-.05-.06.08-.15.33-.37.48-.37.16 0 .2.09.24.13.05.05-.16.05-.2.08-.06.02-.12.06-.3.08-.2.03-.15.1-.03.05.11-.05.13.02.14.06 0 .04-.03.08-.05.08l-.11.05c-.02.01.11.1.13.13.02.03-.12.03-.16.03-.03 0-.17.08-.14.09.03 0 .12.06 0 .12Z" fill="#F8FCA8"/><path d="M6.84 5.82c-.3-.03-.6.07-.73.12l.06.04.2-.05c.04.05.13.15.24.15.15 0 .23-.18.33-.18.08-.01.2.04.25.06-.06.06-.25.19-.44.23-.2.04-.4.03-.47.02.02.01.12.04.39.04.37-.05.6-.23.67-.31-.05-.03-.21-.1-.5-.12Z" fill="#270831"/><path d="M7.4 4.8c-.23-.09-.49-.03-.51-.02l.18.07c.13.04.22.07.41.18.2.11.15.2.3.19.15-.02.1-.03.17-.07.06-.03.03-.11 0-.2a.18.18 0 0 0-.13-.1 1 1 0 0 1-.42-.06Z" fill="#FFFFC7"/><path d="M7.87 5.87c-.02-.12-.33-.09-.35-.08a1 1 0 0 0 .2.17c.07.03.16.03.15-.1Z" fill="#401318"/><path d="M7.87 5.72c.06.02.02.09 0 .12l-.1-.03c-.09-.03-.27.03-.28-.01 0-.04 0-.1.06-.13.05-.02.23.03.32.05Z" fill="#FAE3C1"/><path d="M8.93 5.71c-.08.01-.24.16-.25.17l.25.01c.1 0 .1-.1.1-.13.02-.03-.02-.06-.1-.05Z" fill="#2B1723"/><path d="M9.05 5.68c-.04-.08-.23-.09-.26-.1.02.03.1.1.2.15.1.07.03.14.05.13.02-.02.06-.1.01-.18Z" fill="#F1EAC0"/><path d="M8.8 6.08c.03.03.12.36.09.41a.9.9 0 0 0 .42.26c.24.06.52.2.82.23.3.03.12-.05 0-.14-.1-.1-.14-.14-.06-.25.08-.1.02-.16-.08-.23-.1-.08-.15-.09-.36-.24-.22-.15-.28-.1-.5-.15-.2-.06-.24-.05-.38-.04-.13.02.04.13.06.15Z" fill="#33DC1D"/><path d="M10.36 5.68c-.02-.03-.27 0-.3 0l.01-.07c.01-.01.07-.03.23-.04.2 0 .35-.02.61.03.26.04.2.09.2.1 0 .02-.06.05-.08.06a.23.23 0 0 0-.07-.1c-.05-.03-.27.12-.38.13-.1.01-.2-.08-.22-.11Z" fill="#120E35"/><path d="M11 5.85c.04-.06 0-.14 0-.15-.13.04-.11.18-.09.25l.08-.1Z" fill="#E3FFC7"/><path d="M12.2 7.42c.02-.2-.1-.26-.18-.33.5.2.3.44.35.65.04.2.08.18.05.4-.03.22-.3.48-.4.42-.07-.04.17-.4.3-.57-.1.12-.3.4-.34.57-.03.18-.31.28-.45.3.01-.02.07-.1.22-.24.18-.18.23-.4.42-.59.18-.18.04-.1 0-.24-.04-.14.02-.18.04-.37Z" fill="#F5ECDD"/><path d="m4.94 13.36.01-.05c.06-.19.2-.72.46-1.05.25-.32.46-.43.71-.57l.23-.12c.36-.22.1-.24-.36-.12-.36.1-.68.48-.79.66.1-.26.3-.83.34-1.04.03-.2-.06-.09-.16.06a3.7 3.7 0 0 1-.1.13c-.12.14-.32.84-.4 1.17 0-.13-.03-.36-.08-.17-.04.17-.02.69 0 .95l.14.15Zm-.15-.16c-.06-.33-.19-.91-.29-.81-.07.07.04.38.16.65l.13.16Z" fill="#342336"/><path d="M4.15 12.29A5.53 5.53 0 0 1 4 12l.06-.02a.8.8 0 0 0 .16-.08c.07-.05.23-.23.3-.3-.02-.01-.05-.04-.03-.06.01-.02.05-.04.09-.06l.1-.08a2.07 2.07 0 0 0 .16-.24c.04-.07.08-.1.1-.12l.03-.03.06-.05c0-.01.33-.5.42-.58.08-.08.24-.23.29-.3l.07-.07.05-.06c0-.03 0-.07.12-.12.1-.05.21-.14.25-.18-.07-.1-.22-.3-.22-.33l.06-.17.27-.4a1.8 1.8 0 0 1-.36-.52.23.23 0 0 0-.07-.13c-.04-.05-.09-.1-.12-.33-.06-.38-.05-.51-.02-.6.02-.08.12-.31.21-.36.1-.05.28-.14.32-.22a.65.65 0 0 0 .05-.18.77.77 0 0 1-.15-.13v-.1c0 .05.05.15.17.17.07.02.16.02.23.01-.12.02-.24.05-.18.1a6 6 0 0 0 .21.16.94.94 0 0 0-.19.06c-.07.03-.34.29-.43.53-.08.19-.1.41-.08.5.06-.2.23-.62.42-.73a5.1 5.1 0 0 0 1-.76c.07-.05.24-.18.32-.2l.25-.1c.08-.03.25-.04.31.1.08.17.16.53-.2.6l-.1.03c-.34.06-.68.13-.88.28-.22.16-.9.77-.9.94 0 .17.15.32.22.16s.56-.57.98-.67c.43-.09.75-.1.65-.03-.06.04-.15.06-.25.1l-.3.1c-.25.1-.57.3-.74.44-.07.07-.15.12-.22.16-.1.06-.17.1-.18.16v.04c-.02.08-.03.17.13.37.15.18.73.59 1 .76-.02 0-.12 0-.29-.1a8.84 8.84 0 0 1-.74-.52l-.26.48a4.24 4.24 0 0 0 .79 1.05c.07.07.38.37.4.42.03.05.1.26.1.38 0 .07.07.13.13.18.05.04.09.08.1.12.04.1.1.52.1.54h.05c.03 0 .08 0 .08.03 0 .04.03.22.02.26a.6.6 0 0 0 0 .1c.02.1.03.24 0 .3-.02.06-.08.13-.12.18a.46.46 0 0 0-.06.08c-.01.04-.13-.06-.17-.23a.59.59 0 0 0-.05-.15c-.03-.07-.04-.1 0-.17l.06-.07c.04-.04.05-.06.05-.17v-.01c0-.14 0-.39-.18-.69-.16-.24-.14-.36-.1-.4-.03-.08-.1-.26-.2-.33-.12-.07-.59-.62-.81-.89a1.51 1.51 0 0 1-.24.27 3.35 3.35 0 0 0 .34.48c0 .04.01.1.04.14.04.03.14.24.22.37l.04.1c.06.09.1.17.05.26-.05.1-.38.63-.6.85-.17.18-.64.81-.85 1.1l-.16.19a5.44 5.44 0 0 1-.08-.07l.33-.43.35-.42.28-.35c.02-.02.26-.35.24-.34a34.87 34.87 0 0 0-.4.31c0 .03 0 .07-.06.1l-.02.02c-.07.05-.18.12-.2.19a2.05 2.05 0 0 1-.09.17.4.4 0 0 1-.07.09.36.36 0 0 0-.07.08.8.8 0 0 1-.15.2c-.04.03-.08.04-.11.04H5.1a.25.25 0 0 1-.07.02l-.01-.14c.03-.11.1-.36.16-.46.07-.14.2-.34.31-.4.09-.04.33-.2.45-.28l.08-.05h.02l.2-.13c.07-.02.13-.04.14 0 .02.04.08.08.13 0 0-.02.03-.04.05-.07.07-.1.17-.24.15-.34a3.76 3.76 0 0 0-.36-.69c-.09-.1-.16-.2-.2-.22.02.03.03.09-.02.1a.35.35 0 0 0-.1.06c0 .03-.03.1-.09.17l-.12.2v.1l-.01.06c-.02.08-.04.24-.14.32l-.25.18a242.26 242.26 0 0 0 .33-1.07c-.03.01-.05.05-.09.1a.78.78 0 0 1-.1.13l-.02.03a2.23 2.23 0 0 0-.43.66l-.2.55c.04-.12.1-.37.08-.47l-.01-.26c-.05.05-.13.16-.13.18v.01c0 .04.02.13-.03.2-.04.08-.1.3-.13.39l-.09-.13c0 .04-.03.1-.05.1l-.03.01c-.03 0-.08 0-.07.03 0 .02.02.04.03.05l.02.03c0 .02 0 .05-.07.04-.07-.02-.17.02-.23.05a.32.32 0 0 0-.05.03Zm2.57-5.94Z" fill="#F5A869"/><defs><linearGradient id="aegc5i2lo" x1="0" y1="9" x2="18" y2="9" gradientUnits="userSpaceOnUse"><stop stop-color="#D95842"/><stop offset=".51" stop-color="#565784"/><stop offset="1" stop-color="#4C4460"/></linearGradient><linearGradient id="begc5i2lo" x1="10.17" y1="5.79" x2="10.79" y2="5.84" gradientUnits="userSpaceOnUse"><stop stop-color="#C5111A"/><stop offset="1" stop-color="#A12831"/></linearGradient><linearGradient id="cegc5i2lo" x1="7.43" y1="5.04" x2="9.56" y2="5.03" gradientUnits="userSpaceOnUse"><stop stop-color="#619B37"/><stop offset="1" stop-color="#216B1B"/></linearGradient><linearGradient id="degc5i2lo" x1="10.04" y1="6.67" x2="11.45" y2="6.18" gradientUnits="userSpaceOnUse"><stop stop-color="#ABFE96"/><stop offset="1" stop-color="#F3FFD5"/></linearGradient><linearGradient id="eegc5i2lo" x1="6.17" y1="6.27" x2="7.38" y2="6" gradientUnits="userSpaceOnUse"><stop stop-color="#AE7759"/><stop offset="1" stop-color="#22202D"/></linearGradient><linearGradient id="fegc5i2lo" x1="6.25" y1="6.04" x2="6.56" y2="6.17" gradientUnits="userSpaceOnUse"><stop stop-color="#FAD67E"/><stop offset="1" stop-color="#B6110F"/></linearGradient><linearGradient id="gegc5i2lo" x1="6.48" y1="7.04" x2="8.65" y2="6.67" gradientUnits="userSpaceOnUse"><stop stop-color="#403E25"/><stop offset="1" stop-color="#284322"/></linearGradient><linearGradient id="hegc5i2lo" x1="6.24" y1="9.07" x2="7.14" y2="9.61" gradientUnits="userSpaceOnUse"><stop stop-color="#711927"/><stop offset="1" stop-color="#2A122C"/></linearGradient><linearGradient id="iegc5i2lo" x1="6.71" y1="7.42" x2="9.65" y2="7.74" gradientUnits="userSpaceOnUse"><stop stop-color="#72333E"/><stop offset="1" stop-color="#4B254E"/></linearGradient><linearGradient id="jegc5i2lo" x1="8.01" y1="4.5" x2="9.67" y2="4.57" gradientUnits="userSpaceOnUse"><stop stop-color="#713446"/><stop offset=".64" stop-color="#BB8755"/><stop offset="1" stop-color="#89523A"/></linearGradient></defs></svg>