<!-- by TradingView --><svg width="18" height="18" viewBox="0 0 18 18" xmlns="http://www.w3.org/2000/svg"><path fill="url(#agtn1b3pq)" d="M0 0h18v18H0z"/><path d="M13.03 12.8 5.16 5.1l4.1-1.7 4.18 2.2.76 1.65.2 2.12-1.37 3.44Z" fill="url(#bgtn1b3pq)"/><path d="m5.16 5.08 7.87 7.72-4.1 1.7-4.28-1.6-.66-2.26-.2-2.12 1.37-3.44Z" fill="url(#cgtn1b3pq)"/><path fill-rule="evenodd" d="M15 9A6 6 0 1 1 3 9a6 6 0 0 1 12 0Zm-1 .05a5 5 0 0 1-10 0L7 12v-.76a2.99 2.99 0 0 0 4 0V12l3-2.95Zm0 0L11 6v.76a2.99 2.99 0 0 0-4 0V6L4 9.05V9a5 5 0 1 1 10 .05ZM6 9c0-.3.04-.6.13-.86l-.94.88.94.87A3 3 0 0 1 6 9Zm6.82.02-.99.97a3 3 0 0 0 0-1.96l.99 1ZM9 7a2 2 0 1 1 0 4 2 2 0 0 1 0-4Z" fill="#fff"/><defs><linearGradient id="agtn1b3pq" x1="3.66" y1="4.58" x2="15.8" y2="14.3" gradientUnits="userSpaceOnUse"><stop stop-color="#4B03A7"/><stop offset="1" stop-color="#5106D3"/></linearGradient><linearGradient id="bgtn1b3pq" x1="13.4" y1="6.26" x2="9.7" y2="9.76" gradientUnits="userSpaceOnUse"><stop stop-color="#4E04BC"/><stop offset="1" stop-color="#3E0396"/></linearGradient><linearGradient id="cgtn1b3pq" x1="4.79" y1="11.62" x2="8.49" y2="8.12" gradientUnits="userSpaceOnUse"><stop stop-color="#4704AC"/><stop offset="1" stop-color="#4E05CF"/></linearGradient></defs></svg>