<!-- by TradingView --><svg width="18" height="18" viewBox="0 0 18 18" xmlns="http://www.w3.org/2000/svg"><path fill="url(#a)" d="M0 0h18v18H0z"/><path d="M9.18 3a5.9 5.9 0 0 1 5.05 3.05c.12.2.22.44.31.66.1.2.16.36.2.51.14.5.23 1 .26 1.51v.5l-.04.39a5.64 5.64 0 0 1-.5 1.84c0-.04-.02-.05-.06-.03a.1.1 0 0 1-.12-.02.1.1 0 0 1-.03-.1c.07-.29.2-.55.26-.83a6.27 6.27 0 0 0-.08-3.25 5.87 5.87 0 0 0-1.38-2.25 5.72 5.72 0 0 0-6.31-1.22l-.16.07-.12-.27c.74-.34 1.5-.52 2.3-.56h.42Z" fill="#B1D1EA"/><path d="m6.46 3.56.12.27a5.85 5.85 0 0 0-2 1.57l-.4.55a5.76 5.76 0 0 0 .32 6.56c.14.2 0 .24-.04.4a5.97 5.97 0 0 1-1.38-2.86C3.03 9.8 3.03 9.5 3 9.2v-.4c.03-.19.02-.39.04-.55a6.12 6.12 0 0 1 3.42-4.69Z" fill="#C9D0E4"/><path d="M6.74 3.76c.05.19.31.77.54.7.09-.03.16-.07.2-.1a.08.08 0 0 1 .06-.01c.16.02.34.22.46.32.06.05.09.15.1.3 0 .03.02.04.03.06l.1.08c.06.06.09.1.09.15a.12.12 0 0 1-.13.12 119.35 119.35 0 0 0-3.6.02 5.85 5.85 0 0 1 2-1.57l.15-.07Z" fill="#81B1DC"/><path d="M14.26 6.83a34 34 0 0 1-2.06 0l-1.05.03c-.1 0-.17-.06-.17-.15 0-.03 0-.05.03-.06.1-.05.18-.15.22-.3a.14.14 0 0 1 .17-.09l.22.06a.06.06 0 0 0 .07-.06l-.01-.32c.06-.1.14-.13.25-.1.19.04.36.06.53.05.1 0 .16-.05.2-.14.08-.2.08-.41.11-.62 0-.02.02-.04.03-.05a.73.73 0 0 1 .25-.1c.52.54.93 1.15 1.21 1.85Z" fill="#90B1D9"/><path d="M5.3 8.71c.02.1.01.17-.03.23-.04.04-.1.06-.2.06h-.9A.19.19 0 0 1 4 8.89V7.16c0-.04.02-.08.05-.11A.17.17 0 0 1 4.17 7h.97c.04 0 .08.02.11.05.03.03.05.07.05.11v.19c0 .11-.06.17-.18.17h-.3a.04.04 0 0 0-.04.02.04.04 0 0 0-.01.02v.87l.01.03.03.01h.35l.05.02c.07.07.1.14.1.22Z" fill="#2C2D36"/><path d="M4.68 8a28.13 28.13 0 0 0 .01.54l.04.02h.45c.03 0 .04 0 .04.03v.29c0 .02-.01.03-.04.03h-.86l-.01-.03a209.73 209.73 0 0 0 .01-1.8h.86c.03 0 .04.01.04.04v.28c0 .02-.01.03-.04.03h-.45c-.01 0-.03 0-.03.02l-.02.03V8Z" fill="#fff"/><path d="m8.34 8-.24.23-.03.02-.08.02c-.02 0-.03.02-.03.04v.52c0 .04-.02.09-.05.12a.18.18 0 0 1-.13.05h-.4a.18.18 0 0 1-.14-.05.17.17 0 0 1-.05-.12V8.3c0-.02 0-.03-.03-.03a.38.38 0 0 1-.2-.13c-.05-.05-.07-.13-.07-.24v-.76c0-.1.06-.14.15-.14A31.5 31.5 0 0 1 7.72 7h.48c.04 0 .07.01.1.03l.03.09.01.88Z" fill="#2C2D36"/><path d="M7.57 7.77c0 .03.02.05.05.05h.22c.03 0 .05-.02.05-.05v-.65a.04.04 0 0 1 .01-.03.05.05 0 0 1 .04-.02h.27c.03 0 .05.02.05.05v.71c0 .12-.02.2-.07.25a.3.3 0 0 1-.27.1.04.04 0 0 0-.03 0 .04.04 0 0 0-.01.04v.65c0 .02 0 .03-.02.03l-.02.01H7.52l-.02-.04v-.65c0-.02 0-.03-.03-.04a.38.38 0 0 1-.2-.11c-.05-.05-.08-.12-.07-.2V7.1c0-.02 0-.03.02-.03h.33l.02.01V7.77Z" fill="#fff"/><path d="M11.09 8.49a.1.1 0 0 1-.09.02v-.98c0-.03.01-.04.03-.04h.22c.04 0 .05-.02.05-.06v-.29c0-.03-.01-.05-.05-.05h-.95c-.04 0-.06.02-.06.07v.25c0 .06.03.09.07.09h.2c.02 0 .04.01.04.04v1.13l-.32.01V7.65c0-.03-.02-.05-.05-.05-.29 0-.26-.2-.24-.48 0-.02 0-.04.02-.06.05-.04.11-.06.18-.06h1.08c.12.01.18.08.18.21v.22l-.03.09c-.08.08-.16.1-.23.08a.03.03 0 0 0-.03 0l-.01.01v.02l-.01.86Z" fill="#2C2D36"/><path d="M11 8.5a.55.55 0 0 1-.25.29.06.06 0 0 1-.05 0 .4.4 0 0 1-.15-.12V7.54c0-.03-.02-.04-.04-.04h-.2c-.04 0-.07-.03-.07-.09v-.25c0-.05.02-.07.06-.07h.95c.04 0 .05.02.05.05v.29c0 .04-.01.06-.05.06h-.22c-.02 0-.03.01-.03.04v.98Z" fill="#fff"/><path d="M6.83 7.16v.8c0 .03-.01.05-.04.07a.4.4 0 0 0-.1.1.03.03 0 0 0-.02.02.03.03 0 0 0 .02.02l.12.08c.02.01.03.03.03.06v.49c0 .13-.07.2-.2.2h-.46l-.04-.03v-.02c-.01-.02-.03-.02-.04 0a.23.23 0 0 1-.05.04 3.5 3.5 0 0 0-.4.01c-.16 0-.3-.07-.28-.25V7.13c0-.03.02-.06.04-.09a.14.14 0 0 1 .1-.04h1.1c.06 0 .13.06.22.16Z" fill="#2C2D36"/><path d="M6.06 8.27v.6c0 .03-.01.04-.04.04h-.28c-.04 0-.05-.01-.05-.04V7.1c0-.02.01-.03.03-.03h.85c.12 0 .18.06.18.17v.74c0 .03-.01.04-.03.05l-.09.05a.06.06 0 0 0-.03.05.06.06 0 0 0 .02.05l.11.1.02.02v.58c0 .02-.02.03-.04.03h-.3c-.02 0-.04 0-.04-.03v-.51c0-.1-.05-.17-.15-.2H6.2c-.1-.02-.14.01-.14.1Z" fill="#fff"/><path d="M6.06 7.47c0-.01 0-.02.02-.03l.03-.01h.08a.18.18 0 0 1 .13.05.19.19 0 0 1 .06.13v.02c0 .05-.02.1-.06.13a.18.18 0 0 1-.12.05h-.1a.04.04 0 0 1-.02 0 .04.04 0 0 1-.02-.04v-.3ZM9.17 8.93a.17.17 0 0 1-.07-.06v-.68l.03-.01h.5a.14.14 0 0 0 .15-.14V7.2a.13.13 0 0 0-.04-.1.13.13 0 0 0-.1-.03h-.89c-.02 0-.03 0-.03.03v1.77c0 .02.01.03.03.03l.16.02c-.1.09-.2.1-.3.01a.08.08 0 0 0-.06-.02h-.14V7.13c0-.03.02-.07.05-.1a.15.15 0 0 1 .1-.04h1.05c.07 0 .13.03.18.07.05.05.08.11.08.18v.65c0 .12-.02.2-.07.25a.35.35 0 0 1-.28.12h-.3c-.02 0-.03.01-.03.03l-.02.63Z" fill="#2C2D36"/><path d="M9.1 8.87c-.03.04-.1.06-.2.06l-.15-.02c-.02 0-.03-.01-.03-.03V7.1c0-.02.01-.03.03-.03h.9c.03 0 .07.01.1.03.02.03.03.06.03.1v.82c0 .04-.01.08-.04.1a.15.15 0 0 1-.1.05H9.1l-.01.03v.66Z" fill="#fff"/><path d="M9.1 7.46a.02.02 0 0 1 .01-.02.03.03 0 0 1 .02 0h.08c.05 0 .1.02.14.05.04.03.06.08.06.12v.04l-.01.06a.18.18 0 0 1-.05.06.21.21 0 0 1-.07.03.24.24 0 0 1-.08.02h-.08l-.01-.01-.01-.02v-.33ZM13 8.5v.15l-.01.03h-.03c-.04.01-.06 0-.04-.06v-1.4a.14.14 0 0 0-.05-.1.13.13 0 0 0-.1-.04h-.74a.15.15 0 0 0-.11.05.16.16 0 0 0-.05.1v1.64c0 .06-.05.1-.13.12-.1.03-.16-.01-.17-.12a3.38 3.38 0 0 1-.02-.43V7.27c0-.07.03-.14.08-.19a.27.27 0 0 1 .2-.08h.92a.25.25 0 0 1 .18.08.26.26 0 0 1 .07.18V8.5Z" fill="#2C2D36"/><path d="M12.92 8.62c-.2.04-.22.16-.35.21h-.04l-.13-.05a.05.05 0 0 0-.06.01l-.1.1h-.05a.43.43 0 0 0-.32-.02V7.24a.16.16 0 0 1 .05-.11.16.16 0 0 1 .1-.05h.76c.03 0 .07.01.1.04.02.02.03.06.03.1v1.4Z" fill="#fff"/><path d="M12.4 7.46h-.01a.15.15 0 0 0-.15.15v.87c0 .08.07.15.15.15.1 0 .16-.07.16-.15V7.6a.15.15 0 0 0-.15-.15Z" fill="#2C2D36"/><path d="M11.02 8.57c0 .13 0 .27.02.4.02.11.07.15.17.13.08-.02.12-.06.13-.12a.43.43 0 0 1 .31.02.05.05 0 0 0 .06 0l.08-.1a.05.05 0 0 1 .06 0l.13.04h.04c.13-.05.15-.16.34-.2-.02.05 0 .07.04.07a.03.03 0 0 0 .04-.04v-.14c.13 0 .28.04.47.1.14.04.37-.06.5-.12.3-.03.44.08.42.34-.04.01-.06.02-.07.04-.03.13-.3.2-.4.2a.03.03 0 0 0-.03.02v.02c0 .12.05.17.14.16l.16.25c.04.07.06.13.06.2 0 .16.03.32.22.34.08 0 .16.02.23.05l.04.04c.1.18.09.34-.04.5-.1-.04-.18-.08-.3-.1a3.8 3.8 0 0 1-.33-.07c-.17-.04-.28 0-.32.12-.12.03-.2.1-.25.2l-.08.04-.59.3a.52.52 0 0 1-.21 0c-.02 0-.04 0-.05-.02-.1-.1-.37-.27-.2-.46.02-.02.02-.03 0-.03l-.5.01c-.13.04-.26.05-.4.06-.12 0-.23.06-.33.06l-.59.07a20 20 0 0 0-1.86.44c-.12.04-.22 0-.29-.1a.57.57 0 0 0-.15-.18v-.02c0-.04-.03-.06-.07-.06-.26.02-.29-.22-.3-.38a.06.06 0 0 0-.08-.05c-.04.01-.07.05-.09.1l-.09.31c-.01.09-.07.15-.17.18-.12.01-.22-.02-.28-.1-.12-.13-.1-.29-.05-.45.1-.44.23-.83.4-1.17l.2-.23a.06.06 0 0 1 .04-.02h.22a.1.1 0 0 1 .06.02l.22.19c-.02.08 0 .13.04.14.02 0 .03 0 .04-.02a.7.7 0 0 0 .07-.24.52.52 0 0 1 .22-.2h.14l.05.02c.1.09.2.08.3-.01.09 0 .15-.01.18-.06.01.03.04.05.07.07.1.1.12.21.07.35a.06.06 0 0 0 .08.08l.24-.1c.13.09.17-.04.11-.36.1-.08.14-.19.26-.26l.27-.16h.31l.14.1h.06a.5.5 0 0 0 .24-.25.1.1 0 0 0 .08-.02l.35.06Z" fill="#EE68AE"/><path d="M10.74 9.86a.02.02 0 0 0 .03.02l.2-.11a.04.04 0 0 1 .03 0 .04.04 0 0 1 .02.02c.1.28-.16.42-.4.38a.13.13 0 0 1-.08-.04.13.13 0 0 1-.03-.09V9.6a.04.04 0 0 0-.04-.04.5.5 0 0 1-.16-.03.07.07 0 0 1-.03-.1c0-.01.01-.02.03-.02l.19-.09c.02 0 .03-.02.02-.04 0-.14-.03-.29.04-.4a46.61 46.61 0 0 1 .14-.19.18.18 0 0 1 .09-.02h.03c.07 0 .08.03.05.09-.08.14-.13.26-.14.35a.07.07 0 0 0 .03.06.07.07 0 0 0 .06.01l.16-.06a.04.04 0 0 1 .04.01c.04.07.05.17-.04.22a.44.44 0 0 1-.19.06c-.01 0-.02 0-.03.02l-.02.03v.4Z" fill="#fff"/><path d="M12.92 10.48c.04-.03.04-.04 0-.03-.11 0-.22.02-.33.05-.2.06-.42 0-.64.06-.17.06-.38.04-.54.05-.12 0-.19.08-.3.08-.14 0-.25 0-.38.04-.16.06-.35.02-.51.08a3.1 3.1 0 0 1-.46.08c-.34.05-.65.13-1.04.21-.26.05-.44.14-.68.19-.08.01-.12-.02-.12-.09 0-.08.04-.13.1-.15a11.78 11.78 0 0 0 .65-.2l1.25-.3.42-.06.35-.04c.16-.03.31 0 .47-.04.2-.05.46.02.66-.1a.1.1 0 0 1 .05-.01c.33 0 .57.02.89-.06.1-.02.24-.03.41-.01.02 0 .04 0 .05-.02a.95.95 0 0 0 .09-.2c.06-.2-.25-.45-.37-.58-.07-.07-.08-.13-.04-.21a.73.73 0 0 1 .4-.4c.14-.05.24-.09.37-.05a.05.05 0 0 1 .04.04.05.05 0 0 1-.01.05.42.42 0 0 1-.12.1 7.22 7.22 0 0 0-.46.25.1.1 0 0 0 .01.12c.14.14.4.34.42.5 0 .13 0 .24-.04.33-.01.03 0 .05.03.06l.49.12c.08.02.12.07.12.14v.02c0 .07-.02.1-.09.08l-.36-.06a.16.16 0 0 1-.05-.01.42.42 0 0 0-.24-.05c-.07 0-.14.04-.21.11-.12.12-.2.2-.26.22-.36.2-.57.3-.63.32-.16.04-.5.01-.39-.25a.08.08 0 0 1 .13-.03c.14.13.23 0 .33-.04.17-.06.35-.16.54-.3Z" fill="#fff"/><path d="M9.36 10.08v-.03c.05-.1.16-.08.25-.04.15.06.57.08.42-.21a.07.07 0 0 0-.04-.04.96.96 0 0 1-.4-.19c-.17-.14-.15-.37-.01-.53.17-.18.37-.25.6-.21.05 0 .1.04.11.1v.03c.03.06 0 .1-.07.09a.61.61 0 0 0-.44.11c-.08.06-.1.15-.04.26.01.01.03.03.05.03.19.06.24.06.4.18.23.2.12.44-.05.61a.32.32 0 0 1-.2.1c-.23.03-.43-.06-.58-.26ZM12.18 9.5a.72.72 0 0 1 .05-.6.06.06 0 0 1 .08-.02l.03.02c0 .02.02.03.04.04.02 0 .04 0 .06-.02.12-.12.25-.13.4-.05l.04.04v.1c-.01.03-.03.04-.05.04h-.14a.1.1 0 0 0-.06.01.94.94 0 0 0-.25.23.06.06 0 0 0 0 .06c.06.17.07.39.05.64 0 .02-.02.03-.04.02-.27-.05-.15-.34-.2-.5Z" fill="#fff"/><path d="M13.83 8.95c.03.03.03.05 0 .07l-.36.37c-.09 0-.14-.04-.15-.16v-.01a.03.03 0 0 1 .02-.02h.01c.1-.01.38-.08.41-.2 0-.03.03-.04.07-.05Z" fill="#2E0423"/><path d="M11.7 9.16c.03-.05.09-.1.17-.11a.04.04 0 0 1 .05.03v.02a.68.68 0 0 0 .06.41 1.2 1.2 0 0 1 .1.28l-.01.03a.1.1 0 0 1-.06.03h-.05l-.13-.11c-.02-.01-.03-.02-.05 0l-.1.1c-.12.1-.35.26-.47.09-.23-.3-.05-.58.2-.77.08-.07.15-.04.24.01.02.02.03.01.04 0Z" fill="#fff"/><path d="M9.31 9.1c.06.32.02.45-.1.37-.06-.16-.03-.28.1-.37ZM10.4 9.26l-.01.01-.01.01-.38.06a.33.33 0 0 1-.11 0 .1.1 0 0 1-.04-.02l-.01-.02c0-.02 0-.04.04-.06a.28.28 0 0 1 .1-.03l.37-.06a.02.02 0 0 1 .02 0 .02.02 0 0 1 0 .01l.02.1Z" fill="#2E0423"/><path d="M12.76 9.41c.19.18.42.38.42.62v.03l-.03.02c-.05.01-.09 0-.12-.03-.06-.07-.08-.18-.18-.27a1.07 1.07 0 0 1-.32-.44l.01-.05a.41.41 0 0 1 .1-.1.05.05 0 0 1 .08.03v.03c0 .06 0 .12.04.16Z" fill="#130511"/><path d="m8.15 10.4.01.01a.03.03 0 0 0 .02.01h.02a.28.28 0 0 1 .18-.06.1.1 0 0 1 .07.06.1.1 0 0 1 0 .1c-.1.13-.24.25-.4.1-.28-.21-.21-.84-.12-1.13.04-.12.1-.17.2-.23a.06.06 0 0 1 .06 0 .06.06 0 0 1 .03.06c-.02.1-.04.2-.08.3-.04.13-.07.23-.07.3 0 .17.02.33.08.48ZM8.87 10.25l.19-.1a.06.06 0 0 1 .05-.01.06.06 0 0 1 .04.04c.03.16-.14.3-.26.36-.15.07-.28-.16-.32-.27-.13-.31-.2-.62-.02-.91.04-.08.1-.11.15-.11a.04.04 0 0 1 .04.04v.17c-.08.2-.1.3-.03.48a5.99 5.99 0 0 0 .13.31h.02Z" fill="#fff"/><path d="M7.85 9.31a.7.7 0 0 1-.07.24c0 .02-.02.02-.04.02-.05-.01-.06-.06-.04-.14.04-.05.09-.09.15-.12Z" fill="#9C81A1"/><path d="M11.38 9.5c-.07.13-.07.25-.01.28.05.03.15-.04.22-.16.06-.12.07-.24.01-.27-.06-.04-.16.04-.22.16Z" fill="#EE68AE"/><path d="M7.48 10.73c0-.08-.05-.16-.08-.23a.1.1 0 0 0-.08-.07.1.1 0 0 0-.04.01l-.26.11a.06.06 0 0 0-.04.05l-.09.37c-.02.09-.07.1-.14.05l-.03-.01a.19.19 0 0 1-.07-.22L7 9.71a.46.46 0 0 1 .26-.29.14.14 0 0 1 .15.04c.15.15.16.4.21.7.03.18.23.65-.04.75a.08.08 0 0 1-.09-.04l-.01-.03v-.11Z" fill="#fff"/><path d="M6.96 9.47c-.17.34-.3.73-.4 1.16-.04.17-.07.33.05.46.06.08.16.11.28.1-.02.08-.07.13-.15.14-.3.06-.4-.23-.36-.47.05-.24.11-.46.2-.67.06-.3.19-.53.38-.72Z" fill="#130511"/><path d="M9.19 9.86c.1-.03.18-.1.16-.17-.02-.06-.12-.09-.23-.06-.1.03-.18.11-.16.17.02.07.12.1.23.06Z" fill="#fff"/><path d="M8.25 10.23a.01.01 0 0 1-.01-.01v-.01a4.03 4.03 0 0 1 0-.46l.01-.04.03.04.03.1a2.45 2.45 0 0 1 .05.35v.01a.01.01 0 0 1-.02.02h-.09ZM9.94 9.88a.01.01 0 0 1 0 .01.1.1 0 0 1-.03.05.16.16 0 0 1-.06.02h-.08a.33.33 0 0 1-.08-.02l-.04-.02a.3.3 0 0 1-.13-.1c-.03-.04-.03-.08-.02-.11a.01.01 0 0 1 .01-.02l.43.19Z" fill="#2E0423"/><path d="M6.58 10.19c-.09.21-.15.43-.2.67-.04.24.05.53.36.47.08-.01.13-.06.15-.14.1-.03.16-.1.17-.18.04-.16.07-.27.1-.31l.04.22c.02.09.04.15.08.19.08.09.19.08.3.07.03 0 .04.01.04.04.04.29.18.4.42.31a.85.85 0 0 1-.34.06c-.02 0-.04 0-.05-.02-.08-.1-.2-.13-.34-.08-.03 0-.03.01-.03.03.04.14.08.25.14.36.06.12.03.16-.1.1a.53.53 0 0 1-.28-.26c-.04-.1-.08-.1-.1 0l.02.09c.02.08.07.18.12.28.11.2 0 .77-.08.96l-.22.51c-.04.09-.05.2-.07.27a.04.04 0 0 1-.03.03h-.02l-.02-.02a.97.97 0 0 1-.23-.52l-.06-.45c-.02-.1.01-.16.1-.18.04-.01.04-.02.02-.03a.17.17 0 0 0-.07-.02.05.05 0 0 1-.05-.03c-.04-.07-.06-.12-.05-.16a1.3 1.3 0 0 0-.09-.62h-.02a.63.63 0 0 1-.2.25.07.07 0 0 1-.11-.07l.1-.4a.05.05 0 0 0-.06-.07c-.27.1-.39.3-.54.6a1456.88 1456.88 0 0 0-.46.81.08.08 0 0 1-.11-.03l-.15-.26a.15.15 0 0 1 0-.14c.17-.4.49-.75.8-1.06.03-.03.03-.1 0-.18 0-.03-.01-.03-.03 0-.05.1-.12.15-.2.14l-.06.01-.85.37c-.02 0-.04 0-.05-.02a.1.1 0 0 1-.01-.02c-.02-.13 0-.23.07-.3a2.88 2.88 0 0 1 1.24-.74l.01-.02v-.02h-.02c-.05.01-.11-.01-.18-.07a.05.05 0 0 0-.05 0c-.12.03-.23.01-.35.07-.22.11-.47.19-.75.23a.1.1 0 0 0-.05.02l-.06.05c-.1.1-.15.07-.12-.07.06-.39.39-.53.75-.72.13-.06.29-.09.42-.14.03-.02.03-.03 0-.03-.21-.03-.37.02-.58-.07a.05.05 0 0 1 0-.08c.1-.08.18-.13.34-.14.29-.01.53 0 .73.06a2.03 2.03 0 0 1 .79.51.05.05 0 0 0 .05-.03.13.13 0 0 1 .08-.08Z" fill="#9C81A1"/><path d="m7.37 10.08.05.04a.04.04 0 0 1 0 .06c-.11.07-.23.11-.34.12-.03 0-.03 0-.02-.03l.14-.44c.02-.06.04-.09.09-.1a.04.04 0 0 1 .03 0 .04.04 0 0 1 .02.04v.25c0 .03 0 .05.03.06Z" fill="#EE68AE"/><path d="M9.36 10.05v.03c-.09.26.1.3.3.37.07.03.07.05 0 .07-.19.04-.48.05-.49-.22 0-.05 0-.13-.03-.26 0-.03.01-.04.03-.04.04 0 .07-.01.1-.04a.04.04 0 0 1 .05 0c.03.02.04.05.04.1ZM11.94 10.1c-.06.06-.14.05-.22-.04-.02-.02-.02-.04 0-.05l.1-.06h.04l.12.06c.02.02.04.01.06-.01l.01-.03c.01-.02.03-.02.04-.01l.02.01c.02.01.03.03.02.05 0 .03 0 .06.04.07.07.02.07.04 0 .05-.07.02-.13 0-.18-.04-.01-.02-.03-.02-.05 0Z" fill="#130511"/><path d="m11.16 10.26-.01.02h-.04l-.05-.09v-.02l.01-.02c.03-.02.04-.04.04-.07 0-.06 0-.07.05-.03.11.11.26.13.45.05.03-.02.03 0 .02.02-.1.15-.28.1-.42.1l-.05.04ZM10.4 10.15c.09.1.15.15.18.15.13.02.13.05 0 .08a.83.83 0 0 1-.28-.01c-.03 0-.03-.02-.02-.04l.1-.17h.01Z" fill="#2E0423"/><path d="M12.86 10.96c.03.02.03.04-.01.07a3.1 3.1 0 0 1-.6.33.59.59 0 0 1-.24.05.32.32 0 0 1-.23-.1c-.1-.09-.16-.18-.17-.28 0-.02.01-.03.03-.05a.13.13 0 0 0 .04-.06v-.02h-.01l-.02-.01c-.27 0-.38 0-.57.04l-.19.03-.27.03a20.52 20.52 0 0 0-2.58.54c-.24.08-.38-.02-.42-.31 0-.03-.01-.04-.03-.04-.12 0-.23.02-.31-.07a.37.37 0 0 1-.08-.2 2.98 2.98 0 0 0-.05-.21c.02-.05.05-.09.09-.1a.06.06 0 0 1 .07.02v.03c.02.16.05.4.3.38.05 0 .08.02.08.06a.04.04 0 0 0 .02.04c.02 0 .07.06.13.16.07.1.17.14.29.1a20 20 0 0 1 1.86-.44l.59-.07c.1 0 .2-.05.34-.06.13 0 .26-.02.39-.06h.5c.02 0 .02 0 0 .02-.17.2.1.35.2.46.01.02.03.03.05.03.11 0 .18 0 .21-.02l.59-.29Z" fill="#130511"/><path d="M7.91 10.62c.03.18.13.2.28.2.02 0 .02 0 .02.02v.01c0 .02 0 .03-.02.03a.8.8 0 0 0-.27.1.05.05 0 0 1-.04-.01.04.04 0 0 1-.02-.04v-.3l.03-.02h.02Z" fill="#2E0423"/><path d="M12.94 10.91c.21.06.4.18.55.33.13.13.45 0 .6.13a.14.14 0 0 1 .04.18l-.19.33c-.04.1-.14.17-.2.27l-.31.45c-.04.08-.15.19-.32.35 0-.06.03-.13.09-.21.02-.03 0-.04-.02-.03l-.14.04a.02.02 0 0 1-.02-.01l-.01-.01v-.01c.04-.08.04-.2.02-.38 0-.03 0-.05.04-.06a.06.06 0 0 1 .05.01c.02.03.06.04.1.03a.03.03 0 0 0 .01 0 .02.02 0 0 0 0-.03c0-.04-.03-.06-.05-.06-.12 0-.2-.03-.24-.08-.05-.07-.1-.07-.13 0-.21.42-.4.86-.57 1.34a.46.46 0 0 0 0 .18l-.09.1-.4.24c-.07.04-.1.02-.06-.06.07-.19.18-.51.3-.77.1-.2.18-.4.26-.6.08-.22.26-.43.3-.65a.08.08 0 0 0-.02-.06.08.08 0 0 0-.06-.03l-.44-.03-.03.01a.87.87 0 0 1-.4.14c-.1 0-.17.06-.28.1-.07.03-.12.02-.15-.02-.01-.02-.02-.02-.03 0-.02.15-.22.25-.34.33h-.02a.03.03 0 0 1-.02-.01v-.04c.01-.18.07-.37.16-.56.05-.1.14-.14.27-.1h.02a.04.04 0 0 0 .02 0v-.02c.03-.1.09-.15.19-.18l.36-.15c.06.06.14.1.23.1.07 0 .15-.01.24-.05.21-.09.41-.2.6-.33.04-.02.04-.05 0-.07.05 0 .07-.03.09-.05Z" fill="#9C81A1"/><path d="M13.92 12.4c-.2.3-.35.5-.42.59-.4.43-.84.8-1.34 1.1a.88.88 0 0 0 0-.32l.08-.1a5.98 5.98 0 0 0 1.19-1.07l.3-.45.2.25Z" fill="#F5CCDD"/><path d="M9.96 13.26a.59.59 0 0 0-.15.05h-.03l-.02-.01c-.04-.04-.08-.04-.12-.01a.1.1 0 0 1-.04.02c-.2.01-.37.06-.52.15-.07.04-.1.02-.07-.06.1-.28.3-.37.56-.45.2-.06.34 0 .53.06a.15.15 0 0 0 .14-.03c.21-.2.36-.33.67-.25.08.02.14.06.2.12v.01a.03.03 0 0 1-.03.04 5.19 5.19 0 0 0-.42.05.36.36 0 0 0-.06.07.08.08 0 0 0 .05.12c.16.01.32-.02.43.11.05.06.03.08-.04.06a.63.63 0 0 0-.26.02.05.05 0 0 0-.04.03c-.02.06-.01.12.02.2l.34.67v.05c-.1.1-.38.24-.4-.02a10.93 10.93 0 0 1-.03-.2.36.36 0 0 1-.13-.25c0-.02-.01-.04-.04-.04-.04 0-.07.03-.08.09a3.93 3.93 0 0 1-.1.47c-.04.04-.06.05-.08.02-.03-.02-.03-.16-.06-.22a.5.5 0 0 1-.06-.24c0-.02 0-.03-.02-.03h-.13c-.02 0-.03.02-.04.04a.63.63 0 0 1-.15.26.07.07 0 0 0-.02.05c0 .1-.02.17-.05.2a.08.08 0 0 1-.08.03.08.08 0 0 1-.05-.06c-.07-.36.01-.69.26-.98a.56.56 0 0 1 .13-.09l.02-.01v-.02l-.02-.02h-.01Z" fill="#B6819C"/><path d="M10.83 14.72c-.52.16-1.04.25-1.58.28H8.8c-.46-.02-.8-.06-1.05-.12A5.97 5.97 0 0 1 4.8 13.3c.07-.01.1-.07.12-.18a.04.04 0 0 1 .02-.03.04.04 0 0 1 .04 0c.26.21.52.42.8.62.18.14.42.26.61.37l.26.13a5.76 5.76 0 0 0 4.06.25.06.06 0 0 1 .05.06v.14c0 .03 0 .04.03.05l.03.02ZM11.55 14.43l-.26.1-.13-.14c-.04-.05-.03-.1.03-.12l.36-.16a.06.06 0 0 1 .06.01c.02.02.03.05.02.08 0 .03-.01.05-.04.08-.05.06-.06.11-.04.15Z" fill="#F5CCDD"/><defs><linearGradient id="a" x1="9" y1="0" x2="9" y2="18" gradientUnits="userSpaceOnUse"><stop offset=".26" stop-color="#629ED3"/><stop offset=".78" stop-color="#D29DC0"/></linearGradient></defs></svg>