<!-- by TradingView --><svg width="18" height="18" viewBox="0 0 18 18" xmlns="http://www.w3.org/2000/svg"><path fill="#F0F3FA" d="M0 0h18v18H0z"/><circle cx="9" cy="9" r="4.69" fill="#FFCD00"/><path d="M10.58 12H7.61l-.27-.73c-.03-.1.03-.19.14-.2l3.33-.4c.12-.02.22.09.18.2L10.58 12ZM8 8.67 7.33 7H6.17c-.12 0-.2.11-.16.22L6.83 10l4.5-.67.66-2.1a.17.17 0 0 0-.16-.23h-1.16L10 8.67l-.43-1.55A.17.17 0 0 0 9.41 7h-.74a.17.17 0 0 0-.16.12L8 8.67Z" fill="#221E20"/><circle cx="7.67" cy="10.5" fill="#221E20" r=".33"/><path d="M9.5 10.24a.33.33 0 1 1-.66 0 .33.33 0 0 1 .67 0ZM11 10a.33.33 0 1 1-.67 0 .33.33 0 0 1 .67 0Z" fill="#221E20"/><path d="M13.38 9a4.38 4.38 0 1 1-8.36-1.82.33.33 0 0 0-.06-.37c-.15-.15-.4-.12-.49.07A5 5 0 1 0 7.04 4.4a.3.3 0 0 0-.12.44c.08.13.26.18.4.12A4.36 4.36 0 0 1 13.37 9Z" fill="#2E2720"/><path d="M6.28 5.57c.14-.1.17-.3.08-.44a.3.3 0 0 0-.43-.07c-.27.2-.52.45-.75.7a.3.3 0 0 0 .03.41c.13.13.35.12.48-.03.18-.2.38-.4.6-.57Z" fill="#2E2720"/></svg>