<!-- by TradingView --><svg width="18" height="18" viewBox="0 0 18 18" xmlns="http://www.w3.org/2000/svg"><path fill="#F0F3FA" d="M0 0h18v18H0z"/><path d="M11.23 4c.08.09.17.18.27.25.17.13.26.2.29.25.09.14.1.3.03.48a.03.03 0 0 1-.03.02.03.03 0 0 1-.03-.01c-.1-.16-.22-.29-.36-.39-.15-.11-.24-.2-.26-.24-.07-.11-.05-.24.04-.38l.01-.01h.02c.01 0 .02 0 .02.02Z"/><path d="m11.37 4.32.23.18c.05.04.1.09.1.13.04.1.03.1-.04.03-.09-.11-.2-.21-.34-.3a.16.16 0 0 1-.07-.1c0-.01 0-.02.02 0 .04.01.07.03.1.06Z" fill="#98C1E1"/><path d="M6.94 5.35a1.68 1.68 0 0 0-.96.1c-.09-.1-.09-.17 0-.24a.07.07 0 0 0 .03-.06v-.27c0-.02 0-.04.02-.06l.33-.5a.1.1 0 0 1 .17 0l.18.29c.07.1.12.2.14.3l.09.44ZM12.34 4.75c.12 0 .18.05.2.16.02.28 0 .55-.04.82l-.28-.17a.03.03 0 0 1-.01-.03.04.04 0 0 1 .02-.03c.1-.05.14-.14.12-.25 0-.08-.1-.14-.17-.18v-.1a.27.27 0 0 1-.02-.1c.02-.09.08-.13.18-.12Z" fill="#CAE6FC"/><path d="M12.18 5.07c.07.04.16.1.17.18.02.11-.02.2-.12.25h-.02v.03a.03.03 0 0 0 .01.03l.28.17c.21.17.37.42.48.74.08.35.04.69-.13 1.01a.82.82 0 0 0-.09.24.6.6 0 0 1-.24.44l-.02.03v.02c.01.13 0 .24-.05.35a.7.7 0 0 1-.28.25.25.25 0 0 0-.17.07l-.13.13c-.27.16-.59.06-.86-.07-.05-.02-.1-.01-.12.03l-.04.05c-.03.03-.02.05.02.05l.25.07c.05.02.13.03.25.04.14 0 .22.04.25.1a19.78 19.78 0 0 0 1.53 1.4c.13.08.22.16.26.22.16.22.16.46 0 .73.1.09.15.2.18.32.06.31-.1.51-.4.56-.11.02-.21.03-.29.02l-1.16-.18c-.25-.04-.43 0-.58-.25a.04.04 0 0 0-.05-.03c-.15.01-.25.04-.3.09-.06.05-.1.07-.13.08l-.2.02a.7.7 0 0 1-.2 0 4.35 4.35 0 0 0-.33-.04c-.1 0-.2-.02-.29-.06l-.28-.1a.99.99 0 0 1-.19-.13h-.03v.04l.06.12v.05l-.02.02h-.03l-.62.03c-.12.01-.26 0-.41-.06a.06.06 0 0 1-.04-.04l-.16-.4c-.02-.04-.03-.04-.04 0l-.1.38c-.02.08-.06.1-.13.14-.1.06-.2.02-.31.06a.3.3 0 0 1-.16.01 3.67 3.67 0 0 0-.43-.05l-.01-.03v-.25c0-.08-.02-.09-.07-.03-.16.2-.36.34-.6.44-.2.08-.45.13-.75.14-.42.03-.72-.12-.92-.45-.12-.41-.04-.78.23-1.12.1-.13.25-.26.43-.37.14-.09.31-.24.52-.44.05-.06.27-.26.65-.6.08-.07.1-.07.1-.16.13-.05.25-.16.29-.17a2.89 2.89 0 0 0 .62-.14l-.15-.17c-.01-.01-.03-.02-.04 0-.3.11-.71.2-1-.03l-.1-.14a.29.29 0 0 0-.1-.07c-.27-.11-.38-.32-.32-.63l-.01-.05a.72.72 0 0 1-.2-.36v-.16a.57.57 0 0 0-.05-.15 1.42 1.42 0 0 1 .69-1.85c.32-.12.63-.15.96-.09l.18.06a.03.03 0 0 1 0 .05c-.25.13-.48.31-.68.54-.14.17-.22.33-.15.54.01.02.02.03.05.03.14-.01.24-.04.3-.08a1.27 1.27 0 0 0 .5-.68.02.02 0 0 1 .03.01c.26.47.24 1.1-.25 1.42a1 1 0 0 1-.46.09c-.02 0-.04 0-.06.02l-.16.13a.02.02 0 0 0 0 .02c0 .12-.03.25-.08.38 0 .02 0 .04.02.05.04.05.08.12.09.22 0 .02.01.02.03.02L6.76 8A.03.03 0 0 0 6.77 8l.15-.35V7.6c-.02-.1 0-.19.06-.24l.44-.2.8-.24c.03 0 .03-.02.02-.04-.06-.14-.04-.24.06-.3.03-.02.1-.04.23-.06.12-.02.19-.06.2-.14.06-.16.12-.3.2-.42.14-.22.36-.06.54 0a.1.1 0 0 0 .06.01c.15-.04.32-.1.45.04.06.07.1.16.11.28.02.14.05.27.1.39l.24.11c.1.06.14.14.15.24 0 .02.02.03.03.04l.29.16c.06.05.12.1.2.14.03.03.07.1.1.23.07.14.1.3.1.47 0 .02.02.03.03.04l.4.17a.03.03 0 0 0 .03 0v-.02a.5.5 0 0 1 .13-.2.05.05 0 0 0 .01-.05.75.75 0 0 1-.02-.38.05.05 0 0 0-.01-.04l-.16-.12a.1.1 0 0 0-.05-.03 1.17 1.17 0 0 1-.4-.1 1.08 1.08 0 0 1-.36-.5l-.03-.32a1.44 1.44 0 0 1 .24-.65.03.03 0 0 1 .04.01l.07.2a.02.02 0 0 0 .02.02.02.02 0 0 0 .02 0l.2-.35-.01-.05-.26-.2a.02.02 0 0 1 0-.02v-.01c.18-.05.35-.07.51-.05l.06-.01a.82.82 0 0 0 .2-.3.1.1 0 0 1 .05-.04.17.17 0 0 1 .17 0Z"/><path d="M8.73 6.38c-.01.08-.08.12-.2.14a.65.65 0 0 0-.23.06c-.1.06-.12.16-.06.3.01.02 0 .03-.01.04l-.8.25c-.02-.11 0-.2.06-.28.07-.09.3-.23.43-.41a.1.1 0 0 0 .02-.06V5.17c0-.03.03-.05.05-.05h.6c.05 0 .06.05.06.1v.93c0 .15 0 .23.08.23Z" fill="#CAE6FC"/><path d="M12.07 5.36c.05.04.12.04.15 0 .04-.04.03-.1-.02-.15-.05-.04-.12-.05-.16 0-.03.03-.02.1.03.15Z" fill="#D09769"/><path d="M11.7 5.68h-.01v-.02l.02-.03a.87.87 0 0 1 .16-.16.22.22 0 0 1 .07-.04l.05.01.05.03.02.05-.01.08-.05.1a.86.86 0 0 1-.06.1l-.02.02v.01a.02.02 0 0 1-.02 0l-.2-.15Z" fill="#743713"/><path d="M5.4 7.2a1.3 1.3 0 0 1 .5-1.57c.28-.16.58-.22.9-.18.05 0 .05.03.01.05-.28.19-.5.43-.66.73-.03.07-.03.17 0 .31.03.14.2.29.24.42.04.14-.01.26-.16.37-.02.02-.04.02-.06 0A.92.92 0 0 0 6 7.15c-.22-.15-.41-.13-.57.05a.02.02 0 0 1-.02 0Z" fill="#FF4E01"/><path d="M14.4 7.83c.1.46.14 1.02.12 1.5 0 .02-.03.03-.03.03h-2.83a.38.38 0 0 0-.29-.18c-.12 0-.2-.02-.25-.04l-.25-.07c-.04 0-.05-.02-.02-.05l.03-.05c.04-.04.08-.05.13-.03.27.13.59.23.86.07l.13-.13c.05-.04.1-.07.17-.07.07.08.18.1.31.07.02 0 .03-.02.04-.04.03-.12 0-.22-.07-.28.04-.1.06-.22.05-.35a.05.05 0 0 1 .02-.05.61.61 0 0 0 .24-.44c.01-.06.04-.14.1-.24.16-.32.2-.66.12-1.01a3.42 3.42 0 0 0 .06-1 .02.02 0 0 1 .02.01l.02.04v.82c0 .06.02.08.08.08l.18-.02a.06.06 0 0 1 .06.05c.02.2.02.37.01.53 0 .17.08.28.08.46 0 .08.03.12.08.17l.02.04v.8c0 .03.02.06.05.06h.25c.03 0 .05-.03.05-.06v-.6c0-.03.01-.05.04-.05.1-.02.3 0 .42.03Z" fill="#98C1E1"/><path d="M11.53 5.53c.04-.02.07 0 .08.04a.05.05 0 0 1 0 .04.05.05 0 0 1-.06.01.08.08 0 0 1-.05-.05c0-.02 0-.04.03-.04ZM12.74 6.5l-.2-.32a.04.04 0 0 0-.04-.02.04.04 0 0 0-.03 0c-.02.02-.03.05-.03.08.01.1.03.2.07.3a.62.62 0 0 0-.34.29c-.13.22.08.38.29.32l.37-.09c.03 0 .05 0 .04.04a.79.79 0 0 1-.12.3c-.01.02-.03.02-.04 0-.1-.12-.2-.17-.32-.16a.58.58 0 0 0-.37.17c-.08.07-.14.07-.2-.02a.56.56 0 0 1-.04-.11.28.28 0 0 1 .05-.29c.14-.17.26-.3.27-.5 0-.07-.05-.2-.16-.4a.06.06 0 0 1 0-.07l.2-.33a.03.03 0 0 1 .04-.02c.33.17.54.42.65.78 0 .02 0 .03-.03.04h-.06Z" fill="#FF4E01"/><path d="m11.84 5.93-.23-.15a.04.04 0 0 0-.05.01l-.07.1c-.01.03 0 .05.01.06l.23.15.05-.01.07-.1a.04.04 0 0 0-.01-.06Z" fill="#CC290B"/><path d="m10.87 6.52.03.33v.38l-.29-.16a.05.05 0 0 1-.03-.04.3.3 0 0 0-.15-.24c-.1-.05-.18-.1-.23-.11a.7.7 0 0 1-.01-.32.63.63 0 0 1 .13-.22c.06-.06.1-.14.14-.22a.03.03 0 0 1 .02-.02.03.03 0 0 1 .03.02c.1.13.25.25.3.4.03.06.05.13.06.2Z" fill="#98C1E1"/><path d="M5.55 6.25c-.07.17-.1.33-.05.35.05.02.15-.1.23-.28.07-.17.1-.33.05-.35-.05-.02-.15.1-.23.28Z" fill="#FEAF8C"/><path d="m9.5 6.12.3-.06c.06-.02.1.01.12.08l.08.35c.02.1-.02.14-.12.15-.33.02-.63-.03-.9-.14-.09-.03-.11-.09-.08-.17l.1-.24c.04-.1.11-.13.21-.08l.26.1.04.01Z" fill="#272213"/><path d="m11.48 6.06.16.1a.05.05 0 0 1 .01.08l-.17.22c-.03.03-.06.03-.09 0l-.08-.1a.12.12 0 0 1 .01-.15c.05-.06.09-.1.1-.14.01-.03.03-.03.06-.01Z" fill="#743713"/><path d="m6.48 6.86-.07-.13c0-.02 0-.03.02-.03.33-.08.51-.28.7-.56a.03.03 0 0 1 .02-.01.02.02 0 0 1 .02.02c.06.23.06.44-.02.62a.65.65 0 0 1-.63.44.03.03 0 0 1-.02-.02v-.02c.03-.12.04-.19-.02-.3Z" fill="#FF4E01"/><path d="m12.74 6.5-.23.05c-.04-.1-.06-.2-.07-.3 0-.04 0-.07.03-.08a.04.04 0 0 1 .06 0l.2.32Z" fill="#FEAF8C"/><path d="M11.7 6.98c-.08.1-.07.18-.07.3a.03.03 0 0 1 0 .03.03.03 0 0 1-.03 0 .65.65 0 0 1-.57-.5.96.96 0 0 1 .06-.62.02.02 0 0 1 .03 0c.16.3.32.52.64.63a18.13 18.13 0 0 0-.07.16Z" fill="#FF4E01"/><path d="M11.82 6.21c.02-.02.03-.02.05 0 .1.14.12.28.08.43a.1.1 0 0 1-.12.06.73.73 0 0 1-.26-.12c-.01-.02-.02-.03 0-.05l.25-.32Z" fill="#DFF2FF"/><path d="M9.4 6.75c.15.02.35.01.59-.02.02 0 .04.01.05.03.02.03 0 .07-.03.1-.13.11-.47.08-.63.07-.16-.02-.5-.06-.6-.2-.03-.04-.03-.07 0-.1a.05.05 0 0 1 .05-.02c.22.08.41.12.57.14Z" fill="#CC290B"/><path d="M12.91 6.83a.07.07 0 0 1-.04.08l-.2.07a.85.85 0 0 1-.26.05c-.08 0-.13-.02-.14-.05l-.02-.06c0-.03.02-.08.08-.12a.85.85 0 0 1 .24-.12l.2-.07a.07.07 0 0 1 .08.04l.06.18Z" fill="#D09769"/><path d="M6.62 6.87c0 .07.02.13.06.13.03 0 .06-.06.06-.13s-.03-.14-.06-.14-.06.06-.06.14Z" fill="#FEAF8C"/><path d="M11.44 6.94c-.02.08 0 .15.03.16.04.01.09-.04.1-.12.03-.08.01-.15-.03-.16-.04 0-.08.05-.1.12Z" fill="#DB7853"/><path d="M10.22 6.85c.1.03.16.08.2.16.02.02.01.03-.01.03-.6.08-.96.11-1.07.11-.21 0-.45-.08-.73-.21V6.9l.02-.02a.04.04 0 0 1 .05 0c.4.16.8.21 1.2.17a.31.31 0 0 0 .28-.19l.02-.02h.04Z" fill="#272213"/><path d="M8.27 7.1a.4.4 0 0 1-.05.02c-.1 0-.11-.02-.01-.06a.96.96 0 0 1 .17-.04.1.1 0 0 1 .05 0 2.79 2.79 0 0 0 .88.26l.01.03.01.02H8.8c-.02 0-.04 0-.05-.02l-.07-.09c-.08-.11-.2-.1-.36-.12a.1.1 0 0 0-.06 0ZM5.94 7.9a.29.29 0 0 1-.25-.01.46.46 0 0 1-.23-.35v-.15a.32.32 0 0 1 .06-.11.27.27 0 0 1 .1-.08.29.29 0 0 1 .25.01c.09.04.16.12.2.21l.03.14v.15a.32.32 0 0 1-.07.11.27.27 0 0 1-.1.08Z" fill="#FF4E01"/><path d="M6.92 7.24c.01.07.03.11.06.12-.06.05-.08.13-.06.24v.05L6.77 8a.03.03 0 0 1-.01.01l-.46.16c-.02 0-.03 0-.03-.02a.36.36 0 0 0-.1-.21.05.05 0 0 1 0-.06 1.22 1.22 0 0 0 .06-.39h.01l.16-.14a.08.08 0 0 1 .06-.02 1 1 0 0 0 .46-.09ZM11.2 7.6l.06-.27c.13.07.26.1.4.11a.1.1 0 0 1 .05.03l.15.12a.05.05 0 0 1 .02.04.75.75 0 0 0 .02.38c.01.02 0 .04-.01.05a.5.5 0 0 0-.13.21.03.03 0 0 1-.02.01l-.4-.17a.04.04 0 0 1-.03-.04c0-.17-.04-.33-.1-.47Z" fill="#98C1E1"/><path d="M12.13 8.06a.29.29 0 0 1-.14-.21c-.01-.1 0-.2.06-.28a.46.46 0 0 1 .1-.12.4.4 0 0 1 .12-.07.32.32 0 0 1 .13-.02c.04 0 .08.02.12.04.07.04.12.12.13.2.01.1 0 .2-.06.29a.46.46 0 0 1-.1.11.4.4 0 0 1-.12.07.32.32 0 0 1-.13.02.27.27 0 0 1-.11-.03Z" fill="#FF4E01"/><path d="M7.17 7.65a.13.13 0 1 0 0-.26.13.13 0 0 0 0 .26ZM10.94 7.68a.13.13 0 1 0 0-.26.13.13 0 0 0 0 .26Z" fill="#fff"/><path d="M5.34 7.6c.02.13.09.25.2.36l.01.05c-.06.3.05.52.31.63.05.02.08.05.1.07l.11.14c.28.23.7.14 1 .02l.04.01.15.16v.01c-.21.07-.42.12-.62.14-.04 0-.22.18-.22.18H3.38l-.03-.01v-.02c-.01-.42.14-.93.21-1.34l.01-.06h.26c.03 0 .04.02.04.05 0 .08.01.13.06.13.03 0 .06.03.1.04.02 0 .03.01.03.03v.4c0 .04.02.06.06.06h.25c.03 0 .04-.02.04-.05V7.52c0-.05.02-.07.07-.07.27-.01.58.04.86.15Z" fill="#98C1E1"/><path d="M10.04 8.39a.23.23 0 0 1-.14.11c-.1.03-.2.08-.28.14a2.23 2.23 0 0 0-.14-.18c-.2-.25-.52-.33-.78-.13a.57.57 0 0 0-.21.33l-.5-.27c.19-.03.53-.1.59-.3a26.51 26.51 0 0 1 .2-.62l.03-.01h.46c.03 0 .05.01.06.04.03.15.09.34.17.6.06.18.37.26.54.29Z" fill="#FF4E01"/><path d="m12.47 7.67.01.01v.05a.33.33 0 0 1-.05.12c-.02.03-.04.04-.06.03h-.02l-.02-.02a.12.12 0 0 1-.02-.04v-.06a.4.4 0 0 1 0-.07l.01-.02v-.01a.03.03 0 0 1 .04-.01l.1.02Z" fill="#FEAF8C"/><path d="M11.12 8.35a.3.3 0 0 0-.18-.07l.16-.45c.02-.07.04-.07.06 0 .04.16.03.33-.04.52ZM7.12 8.25l-.17.1c-.09-.17-.09-.33 0-.48h.02a.02.02 0 0 1 .03 0l.12.38ZM6.06 8.01a.07.07 0 0 1 .08.07v.02l-.01.16c0 .05-.02.1-.04.13a.28.28 0 0 1-.07.1.16.16 0 0 1-.1.03c-.06 0-.13-.03-.18-.1a.57.57 0 0 1-.08-.29v-.02a.07.07 0 0 1 .06-.08l.34-.02ZM12.04 8.15a.6.6 0 0 0 .3.06c.03 0 .04.01.04.03.02.23-.08.38-.3.46-.02 0-.04 0-.05-.02a1.51 1.51 0 0 0-.12-.22c-.08-.12-.03-.2.05-.3a.06.06 0 0 1 .08 0ZM6.71 8.42a.12.12 0 0 0-.12-.07l-.05.02a.63.63 0 0 0-.26.37c-.02.06-.06.07-.1.03-.08-.06-.1-.11-.09-.17a.33.33 0 0 1 .09-.16 1.06 1.06 0 0 1 .56-.28.03.03 0 0 1 .02.03c.04.2.11.38.23.54.02.02.01.03-.01.04l-.19.06c-.02 0-.03 0-.03-.02l-.01-.2a.4.4 0 0 0-.04-.2Z" fill="#FF4E01"/><path d="m9.62 8.64.06.1a.04.04 0 0 1-.03.07 2.82 2.82 0 0 1-1.2.04.04.04 0 0 1-.02-.03V8.8l.06-.14c.03-.13.1-.25.2-.33.27-.2.6-.12.8.13l.13.18Z"/><path d="M11.3 8.24h.03l.1.03c.15.07.28.16.37.26.09.1.12.2.08.29v.01c-.04.08-.13.13-.26.14-.14.01-.3-.02-.45-.09l-.1-.04h-.01v-.02l.24-.58Z" fill="#FF4E01"/><path d="M7.12 8.25c.03.07.08.1.14.11.24.04.48.05.73.03l.5.27-.05.14a.04.04 0 0 0 0 .04.04.04 0 0 0 .03.02 2.82 2.82 0 0 0 1.2-.06.04.04 0 0 0 .01-.05l-.06-.1c.09-.07.18-.12.28-.15a.23.23 0 0 0 .14-.11c.24.02.48.02.73 0 .07-.02.13-.05.17-.11a.3.3 0 0 1 .18.07l-.13.28a.56.56 0 0 0-.25.15.09.09 0 0 1-.05.02l-.08-.01-.04-.04-.23-.2a.04.04 0 0 0-.05 0v.03l-.02.11c0 .02-.01.03-.03.04-.11 0-.17.09-.16.24-.06.02-.07.06-.05.11l.02.06c0 .03-.01.04-.03.05a4.1 4.1 0 0 1-.63.18c-.33.06-.67.03-1.03-.1l-.58-.22c-.06-.03-.08-.07-.06-.11l.07-.07a.04.04 0 0 1 .05 0l.35.14c.02.01.04 0 .05-.02v-.01c.02-.03.01-.06-.02-.07l-.27-.14-.02-.03v-.02c.02-.04.02-.08 0-.1 0-.02-.02-.02-.04-.02a.23.23 0 0 0-.07.06.06.06 0 0 1-.05.02l-.05-.02a.04.04 0 0 1-.01-.03.03.03 0 0 1 0-.02c.06-.05.07-.1.03-.14-.01-.01-.03-.02-.05-.01-.03 0-.06.04-.1.1a.03.03 0 0 1-.02 0 .03.03 0 0 1-.02 0c-.05-.04-.09-.05-.12-.05-.02 0-.04.01-.04.03 0 .03.02.08.08.13.01.01.02.03 0 .04-.02.03-.02.06 0 .09a.04.04 0 0 0 .06 0l.06-.04a.06.06 0 0 1 .05-.02l.03.02v.05a.18.18 0 0 0-.01.1.1.1 0 0 1-.05.02l-.04-.01-.15-.09a.62.62 0 0 1-.13-.1.35.35 0 0 0-.23-.11l-.1-.27.16-.1Z" fill="#FEAF8C"/><path d="M9.35 8.49c-.2.08-.4.09-.6.03a.06.06 0 0 1-.02-.1c.2-.17.41-.16.62.02a.03.03 0 0 1 0 .05Z" fill="#fff"/><path d="M11.5 8.64c.1.02.2 0 .21-.06.01-.05-.07-.11-.17-.13-.1-.02-.2 0-.21.06-.01.05.07.11.17.13Z" fill="#D09769"/><path d="M7.71 8.94a.1.1 0 0 1-.06-.02c0-.04 0-.07.02-.1v-.06a.05.05 0 0 0-.03-.02c-.02 0-.04 0-.05.02l-.06.04a.04.04 0 0 1-.05 0c-.03-.03-.03-.06 0-.09l-.01-.04c-.06-.05-.09-.1-.08-.13 0-.02.01-.03.04-.03s.07.01.12.05a.03.03 0 0 0 .03 0h.01c.04-.06.07-.1.1-.1l.05.01c.04.04.03.09-.02.14a.03.03 0 0 0-.01.02.03.03 0 0 0 0 .03l.06.02c.02 0 .03 0 .05-.02a.23.23 0 0 1 .07-.06c.02 0 .04 0 .05.02V8.74l.01.03.27.14c.03.01.04.04.03.07v.01c-.02.03-.04.03-.06.02l-.35-.15-.05.01-.08.07Z"/><path d="M6.41 8.83a.02.02 0 0 1 0-.01V8.8a.9.9 0 0 1 .07-.22c.04-.05.07-.08.09-.07h.02c.02 0 .03.04.04.1a.9.9 0 0 1-.03.24.02.02 0 0 1-.03.02l-.16-.04Z" fill="#D09769"/><path d="m10.57 8.75-.5.22c0-.15.06-.23.17-.24.02 0 .03-.02.03-.04l.02-.11a.03.03 0 0 1 .02-.03.04.04 0 0 1 .03 0l.23.2ZM9.14 8.77l.27-.22h.04c.05.06.09.12.11.17a.03.03 0 0 1-.02.04l-.38.04c-.04 0-.05 0-.02-.03Z" fill="#CC290B"/><path d="M7.66 8.92a.1.1 0 0 0 .06.02c-.02.04 0 .08.06.1.17.08.37.16.58.23.36.13.7.16 1.03.1.18-.03.38-.1.63-.18.02-.01.03-.02.03-.05l-.02-.06.58-.3c.02.02.05.03.08.02.02 0 .03 0 .05-.02a.56.56 0 0 1 .25-.15c-.15.24-.37.44-.65.58-.34.18-.7.3-1.08.36-.16.03-.33.02-.5-.01-.38-.08-.72-.2-1.04-.36a1.86 1.86 0 0 1-.66-.58c.1 0 .17.04.23.1.05.06.1.1.13.11a3.56 3.56 0 0 1 .19.1.1.1 0 0 0 .05-.01Z" fill="#DB7853"/><path d="m10.57 8.75.04.04-.58.29c-.02-.05 0-.09.05-.11l.5-.22Z"/><path d="M7.01 9.25c.13-.03.18-.04.34-.1h.06l.21.13c.02.01.02.02 0 .04a.57.57 0 0 1-.53.17.07.07 0 0 1-.05-.04.48.48 0 0 1-.06-.16c0-.03 0-.04.03-.04ZM10.74 9.15c.15.06.21.07.34.1.02 0 .03.01.03.04a.48.48 0 0 1-.06.16.07.07 0 0 1-.05.04.58.58 0 0 1-.55-.17v-.04l.23-.13a.07.07 0 0 1 .06 0ZM11.2 9.35a.07.07 0 0 1 .09-.06l.18.04a.14.14 0 0 1 .12.1v.06l-.01.03c0 .03-.03.07-.06.09a.14.14 0 0 1-.1.02l-.19-.04a.07.07 0 0 1-.05-.08l.03-.16ZM6.58 9.63a.07.07 0 0 1-.08-.06v-.13l.02-.06a.14.14 0 0 1 .04-.04.12.12 0 0 1 .05-.02l.13-.02c.04 0 .08.01.1.04a.2.2 0 0 1 .06.12v.06a.07.07 0 0 1-.05.07l-.27.04Z" fill="#FF4E01"/><path d="M7.87 9.4c.07.15-.13.23-.23.23-.05 0-.08-.03-.07-.09.1-.1.2-.14.3-.13Z" fill="#DB7853"/><path d="m9.92 9.53.3-.12a.13.13 0 0 1 .1 0c.08.03.17.09.26.17.06.06.06.1 0 .16l-.05.04c-.1.08-.2.08-.3.01l-.31-.2c-.03-.03-.03-.04 0-.06ZM6.47 9.7a.01.01 0 0 1 0 .01v.02a2.91 2.91 0 0 1-.16.3l-.03.02-.01-.04.02-.08a1.78 1.78 0 0 1 .1-.24v-.01a.01.01 0 0 1 0-.01h.01l.07.03ZM11.67 9.67a.01.01 0 0 1 .02 0v.02a2.75 2.75 0 0 1 .11.32v.04c-.02 0-.04-.03-.08-.1a2.32 2.32 0 0 1-.1-.23h-.01a.01.01 0 0 1 0-.02l.06-.03ZM7.42 9.87h.01a.1.1 0 0 1 .08.04.12.12 0 0 1 .02.08v.02c0 .03-.01.06-.04.08a.11.11 0 0 1-.08.03.01.01 0 0 1-.01-.01l.02-.24ZM10.62 10.11l-.08-.12c-.01-.02-.01-.05.01-.06l.06-.05a.03.03 0 0 1 .03 0 .03.03 0 0 1 .01.01c.02.09.02.16.02.21-.01.05-.03.05-.05.01Z" fill="#FF4E01"/><path d="m10.3 10.35.32.06c.37.13.58.36.64.69.04.22 0 .42-.1.6-.21.37-.75.43-1.15.37a1.9 1.9 0 0 1-.33-.07c-.36-.12-.57-.35-.63-.68a.85.85 0 0 1 .09-.6c.22-.38.75-.43 1.16-.37ZM8.59 11.2l-.02.01a.04.04 0 0 0 0 .05c.09.07.15.15.19.23a13.91 13.91 0 0 1 .2.5.03.03 0 0 1-.02.02h-.62a.12.12 0 0 1-.1-.08l-.13-.36a.17.17 0 0 0-.18-.12l-.3.03-.02.01-.01.02v.5a.05.05 0 0 1-.04.05l-.56.05h-.02l-.02-.01a.05.05 0 0 1-.01-.03v-1.61c0-.02 0-.03.03-.04l.86-.06c.28-.01.8-.03.98.23.13.18.12.36-.03.55a.08.08 0 0 1-.05.03l-.13.03ZM13.14 11.6l.17.13c.2.18.21.54-.11.6-.15.03-.33.03-.53 0a120.03 120.03 0 0 1-1.17-.2V10.5a.03.03 0 0 1 .03-.03c.5.07.87.12 1.12.18.33.07.72.2.72.6 0 .16-.08.26-.22.29-.05 0-.06.03-.01.05ZM5.55 11.84c.21-.02.37-.1.45-.25a.12.12 0 0 1 .13-.06l.5.05c.06 0 .07.04.04.09-.13.26-.34.44-.62.54-.34.12-.66.16-.95.12-.67-.11-.7-.85-.35-1.3.32-.41 1-.58 1.49-.44a.7.7 0 0 1 .45.37.03.03 0 0 1-.03.04l-.58.2a.04.04 0 0 1-.04-.01c-.14-.1-.2-.2-.4-.15-.33.08-.46.27-.4.6.02.06.06.12.13.16.04.03.1.04.18.04Z" fill="#0074FF"/><path d="M9.78 11.4c.12.22.38.31.59.2.2-.11.27-.38.15-.6-.12-.22-.38-.3-.58-.2-.2.12-.28.39-.16.6ZM7.57 10.87a.05.05 0 0 1 .05-.05l.32-.01a.66.66 0 0 1 .19.02l.05.03.03.04v.03c0 .03-.03.05-.08.07a.55.55 0 0 1-.19.04l-.31.01H7.6a.05.05 0 0 1-.03-.05v-.13ZM12.15 11.02a.04.04 0 0 1 .06-.03l.35.06c.06.01.11.03.15.06.04.02.06.05.05.08v.01l-.02.04a.14.14 0 0 1-.06.02H12.53l-.36-.06h-.02a.05.05 0 0 1-.02-.04v-.01l.02-.13Z"/><path d="M13.47 5a6.01 6.01 0 0 0-4.2-2H8.7c-1.42.1-2.66.6-3.7 1.53-1 .9-1.63 2.02-1.9 3.38.18-.02.33.01.47.1l.01-.06a5.54 5.54 0 0 1 8.86-3.29l.77.73c.17.22.3.38.37.49a5.53 5.53 0 0 1 .95 3.45c0 .02-.01.03-.03.03h-2.83c.45.46.82.78 1.2 1.1.09.08.18.15.29.22.13.08.22.16.26.22.16.22.16.46 0 .73.1.09.15.2.18.32.06.31-.1.51-.4.56-.11.02-.21.03-.29.02l-1.16-.18-.14-.02c-.18-.02-.32-.03-.44-.23a.04.04 0 0 0-.05-.03c-.15.01-.25.04-.3.09-.06.05-.1.07-.13.08l-.2.02a.7.7 0 0 1-.2 0 4.35 4.35 0 0 0-.33-.04c-.1 0-.2-.02-.29-.06l-.28-.1a.99.99 0 0 1-.19-.13h-.03v.04l.06.12v.05l-.02.02h-.03l-.62.03c-.12.01-.26 0-.41-.06a.06.06 0 0 1-.04-.04l-.17-.4c0-.04-.02-.04-.03 0l-.1.38c-.02.07-.06.1-.12.13l-.01.01a.32.32 0 0 1-.17.04c-.05 0-.1 0-.14.02a.3.3 0 0 1-.16.01 3.63 3.63 0 0 0-.43-.05l-.01-.03v-.25c0-.08-.02-.09-.07-.03-.16.2-.36.34-.6.44-.2.08-.45.13-.75.14-.42.03-.72-.12-.92-.45-.12-.41-.04-.78.23-1.12.1-.13.25-.26.43-.37.14-.09.31-.24.52-.44.05-.06.27-.26.65-.6.08-.07.1-.07.1-.16H3.49l-.02-.01-.01-.02c0-.42.04-.92.11-1.33a.74.74 0 0 0-.46-.1l-.1.83v.59a5.99 5.99 0 0 0 11.59 1.87A6 6 0 0 0 13.47 5Z" fill="url(#a)"/><path d="M12.16 11.6v-.01h.01l.45.07c.04 0 .09.03.12.05.03.03.04.06.04.09l-.02.04a.13.13 0 0 1-.05.03.22.22 0 0 1-.06.01.3.3 0 0 1-.07 0l-.45-.08v-.01l.03-.2Z"/><path d="M9.87 12.77c0 .13-.06.26-.18.35a.78.78 0 0 1-.69.11.66.66 0 0 1-.2-.1.5.5 0 0 1-.14-.16.4.4 0 0 1-.05-.2c0-.12.07-.25.18-.35.12-.09.28-.14.45-.14a.66.66 0 0 1 .45.14c.06.05.1.1.13.16a.4.4 0 0 1 .05.2ZM7.82 12.8l.02-.01a28.98 28.98 0 0 0 .2-.47l.04-.01h.37a.05.05 0 0 1 .05.05v.85c0 .02-.01.03-.03.03H8.2c-.02 0-.03-.01-.03-.03v-.44c0-.08-.02-.09-.05 0l-.14.32c0 .02-.02.03-.04.04H7.7a.05.05 0 0 1-.04-.04l-.14-.33c-.04-.08-.05-.07-.05.01v.43c0 .03-.02.04-.04.04h-.26c-.02 0-.03-.01-.03-.03v-.86a.05.05 0 0 1 .05-.04h.4l.02.03a27.05 27.05 0 0 0 .2.46ZM10.93 12.8a.5.5 0 0 0 .04.02c.15.06.15.27 0 .34a.6.6 0 0 1-.2.07 7.04 7.04 0 0 1-.78-.02v-.87a.03.03 0 0 1 .03-.03h.64a.6.6 0 0 1 .32.1c.02 0 .03.02.03.04.04.13.01.23-.08.31-.02.02-.02.03 0 .04Z" fill="#fff"/><path d="M9.26 12.53H9.2a.2.2 0 0 0-.19.21v.09c.01.1.1.19.21.18h.07c.1 0 .19-.1.18-.2v-.1a.2.2 0 0 0-.2-.18Z" fill="#01296C"/><path d="M10.62 12.53h-.23a.06.06 0 0 0-.05.06v.01c0 .03.02.06.05.06h.23c.04 0 .06-.03.06-.06a.06.06 0 0 0-.06-.07ZM10.64 12.87h-.25a.05.05 0 0 0-.05.06v.02c0 .03.02.05.05.05h.25c.03 0 .06-.03.06-.06v-.01a.05.05 0 0 0-.06-.06Z" fill="#002B7F"/><defs><linearGradient id="a" x1="9" y1="3" x2="9" y2="15" gradientUnits="userSpaceOnUse"><stop stop-color="#0074FF"/><stop offset="1" stop-color="#001F58"/></linearGradient></defs></svg>