<!-- by TradingView --><svg width="18" height="18" viewBox="0 0 18 18" xmlns="http://www.w3.org/2000/svg"><path fill="url(#awiqld0zr)" d="M0 0h18v18H0z"/><path d="M7.5 8c0 .6.53 1 1.13 1H9c1 0 2 1 2 2s-.6 2-2 2c-1.5 0-2-1-2-2H5a4 4 0 1 0 4-4h-.37c-.6 0-1.13.4-1.13 1ZM5 4h6.74c.7 0 1.26.45 1.26 1s-.57 1-1.26 1H5V4Z" fill="#F0F3FA"/><defs><linearGradient id="awiqld0zr" x1="3.35" y1="3.12" x2="21.9" y2="24.43" gradientUnits="userSpaceOnUse"><stop stop-color="#1A1E21"/><stop offset="1" stop-color="#06060A"/></linearGradient></defs></svg>