<!-- by TradingView --><svg width="18" height="18" viewBox="0 0 18 18" xmlns="http://www.w3.org/2000/svg"><path fill="#F0F3FA" d="M0 0h18v18H0z"/><path d="M8.77 4h.41a5 5 0 0 1 .09 10H8.79a4.98 4.98 0 0 1-.07-10h.05Z" fill="#392322"/><path d="M12.4 5.77c.1.23.2.47.13.7a1.5 1.5 0 0 1-.16.29 2.51 2.51 0 0 0-.22.41h.02a.04.04 0 0 1 .03-.02c.04 0 .06.03.07.06a.06.06 0 0 1-.02.05.06.06 0 0 1-.05.02c-.51-.06-.9-.24-1.15-.73l.08-.45c.06-.32.07-.55.06-.85a.56.56 0 0 0-.07-.28c-.15-.2-.31-.21-.5-.06l-.26.2c-.46.3-.85.66-1.17 1.09a5.85 5.85 0 0 1-.7-.06c-.12-.02-.31-.08-.36-.22-.13-.37-.2-.6-.21-.68-.04-.25-.12-.5-.25-.76a4.6 4.6 0 0 1 3.7.48c.37.22.71.49 1.02.81Z" fill="#FFD44B"/><path d="M7.67 4.48c.13.26.21.5.25.76.01.09.08.32.21.68.05.14.24.2.36.22.18.03.42.05.7.06h.2l.05-.01c.16-.13.29-.26.37-.37l.55-.7.26-.2c.19-.16.35-.15.5.05.04.05.06.15.07.28.01.3 0 .53-.06.85l-.08.45c-.05.26-.08.5-.07.75.01.18.18.28.16.46-.03.45.26.8.28 1.24 0 .3-.07.58-.24.85a5.81 5.81 0 0 1-.54 3.55l-.13.03c.17-.4.28-.75.33-1.03a16.47 16.47 0 0 0 .23-2.31l-.1.2-.04-.01c.01-.06.03-.11.06-.17v-.01h-.02c-.16.22-.36.42-.58.57.27-.27.48-.5.63-.72.06-.08.12-.2.2-.36.13-.31.14-.63.03-.95a63 63 0 0 1-.15-.46c-.05-.15-.04-.28-.04-.42 0-.29-.31-.46-.42-.6a4.9 4.9 0 0 0-.47-.5l.07-.36a.34.34 0 0 1 .09-.1l-.07.27v.03c0 .05 0 .09-.03.12-.02 0-.02.02 0 .03l.39.4c.07.1.16.2.26.27l.02-.01c0-.43.05-.86.17-1.27a2.9 2.9 0 0 0-.02-1.02c-.1-.15-.21-.17-.36-.06a.7.7 0 0 0-.25.19c-.18.2-.35.42-.51.66-.12.16-.25.29-.4.41-.02.01-.02.02 0 .03.08.03.1.05.08.07-.43-.08-.86-.04-1.29-.16a.32.32 0 0 1-.06-.02c-.07-.04-.09-.03-.05.03.02.03.02.06.02.1a.01.01 0 0 1-.01 0 .01.01 0 0 1-.01 0c-.2-.4-.32-.71-.36-.92a4.4 4.4 0 0 0-.18-.68c-.2-.56-.64.05-.73.28a3.21 3.21 0 0 0-.17 1.73.63.63 0 0 1-.1-.34c0-.05-.01-.06-.04-.01-.06.1-.1.2-.1.3l-.01.68c0 .08-.02.18-.06.3-.07.25-.15.47-.2.74l-.17.76c-.04.24-.1.4-.16.47a2.8 2.8 0 0 0-.43.84h-.01v-.02l.03-.2c0-.03 0-.04-.03-.02a5.46 5.46 0 0 0-.82.67l-.02-.02c-.02-.02-.02-.06 0-.1a4.44 4.44 0 0 1 .93-.75 4 4 0 0 1 .25-.44.9.9 0 0 0 .12-.27l.23-.96c.06-.25.12-.5.2-.74.08-.27.06-.55.06-.83 0-.16.02-.28.07-.36.06-.14.12-.24.13-.4.02-.4.1-.8.27-1.17a.99.99 0 0 1 .3-.36.4.4 0 0 1 .22-.1c.1 0 .18.04.24.13Z" fill="#010101"/><path d="M9.6 6.32c.08.06.14.03.2-.1l.16-.28c.22-.33.46-.65.73-.98.14-.11.26-.1.36.06a2.9 2.9 0 0 1 .01 1.02 4.58 4.58 0 0 0-.18 1.28c-.1-.08-.2-.17-.26-.27 0-.1.02-.2.07-.27 0-.02 0-.03-.02-.03l-.01-.01c0-.09.01-.15.05-.2a.03.03 0 0 0 0-.04l-.03-.06a.05.05 0 0 1 0-.05c.11-.21.18-.44.2-.67a.52.52 0 0 0-.02-.4.08.08 0 0 0-.13-.02c-.17.18-.24.34-.37.61a4.1 4.1 0 0 0-.2.5c-.03.06-.07.1-.13.1-.01 0-.02.01 0 .03a4.9 4.9 0 0 1 .62.63c.1.13.41.3.4.59 0 .14 0 .27.05.42l.15.46c.11.32.1.64-.04.95 0-.05.01-.14.05-.27a3.56 3.56 0 0 0-.02-.59 8.44 8.44 0 0 1-.04-.1.66.66 0 0 0-.34-.39c-.02 0-.03 0-.04.02v.04c.02.02.01.03-.01.04h-.04a.71.71 0 0 0-.03-.1c-.04-.13-.28-.26-.4-.31v-.01l-.01-.01V7.9a.5.5 0 0 1 .3-.08v-.01a.61.61 0 0 1-.18-.2c-.15-.24-.38-.07-.53.09l-.3-.06c-.01 0-.02 0-.02.03l.01.03.05.05c.02.01.02.03 0 .04a.11.11 0 0 0-.03.1c0 .02 0 .03-.02.04a.74.74 0 0 0-.19.07 1.9 1.9 0 0 1-.71.26H8.7v-.04l.11-.04c.02 0 .02-.02 0-.02a.62.62 0 0 0-.22-.04c-.03 0-.05-.01-.08-.04L8.24 8c-.07-.02-.07-.04 0-.07l.04-.01c.02 0 .02-.01 0-.02-.14-.06-.4-.06-.64-.07l-.04.01a.47.47 0 0 1-.26.07c-.01 0-.02 0-.02.02 0 .03-.03.05-.06.06-.65.25-.88.76-.69 1.52-.16-.33-.2-.7-.1-1.07.07-.31.14-.58.22-.81l.13-.33c0-.02 0-.03-.02-.03h-.05a.08.08 0 0 1-.08-.07c-.03-.2 0-.37.1-.53-.11-.6-.05-1.17.16-1.73.1-.23.53-.84.73-.28.08.2.13.42.18.68a4.26 4.26 0 0 0 .38.92c0-.04 0-.07-.02-.1-.04-.06-.02-.07.05-.03l.06.02c.43.12.86.08 1.29.16Z" fill="#E7A459"/><path d="M6.91 4.81a3.1 3.1 0 0 0-.27 1.16c0 .17-.07.27-.13.4a.87.87 0 0 0-.07.37c0 .28.02.56-.06.83-.08.24-.15.49-.2.74l-.23.95a.9.9 0 0 1-.12.28 3.99 3.99 0 0 0-.28.48c-.33.2-.63.43-.9.72a1 1 0 0 1-.14-.3c.14-.11.23-.26.35-.37a1.9 1.9 0 0 0 .58-.78l.13-.6.01-.04.08-.38a.25.25 0 0 0 .04-.13v-.05a.24.24 0 0 0 .05-.13 22.64 22.64 0 0 1-.73-.15c-.17-.02-.38-.01-.57-.04l.04-.13 1.24.27.04-.01a.17.17 0 0 0 .03-.11v-.05a.29.29 0 0 0 .06-.13c0-.02 0-.03-.02-.03l-1.2-.33.02-.06 1.19.38c.01 0 .02 0 .03-.02.13-.32.16-.49.16-.82a4.18 4.18 0 0 1 .28-1.56c.15-.13.35-.25.59-.36Z" fill="#DCA43B"/><path d="M7.63 6.2c-.19-.3-.23-.64-.29-.98a.08.08 0 0 0-.06-.06h-.03c-.1.02-.13.15-.18.22 0-.13.08-.36.22-.41a.08.08 0 0 1 .11.06l.23 1.16Z" fill="#BA8047"/><path d="M10.7 4.96c-.28.33-.52.65-.74.98-.1.04-.15.13-.17.27-.05.14-.1.17-.18.1.02-.01 0-.03-.08-.06-.02 0-.02-.02 0-.03.15-.12.28-.25.4-.41.16-.24.33-.46.51-.66a.7.7 0 0 1 .26-.19Z" fill="#A06636"/><path d="m10.36 5.11-.55.71a2.3 2.3 0 0 1-.37.37.07.07 0 0 1-.05.01h-.2c.32-.43.7-.8 1.17-1.09Z" fill="#DCA43B"/><path d="m7.63 6.2.1.23v.05a.4.4 0 0 1-.15.15.8.8 0 0 0-.25.2c-.08.09-.16.19-.23.3-.02-.06-.03-.11-.07-.17-.09-.12-.03-.24-.06-.36l.04-.26v-.03l.03-.01c.01 0 .03 0 .04.02l.01.03c.04.03.05.03.04-.03a2.56 2.56 0 0 1-.06-.94c.05-.07.09-.2.18-.22a.08.08 0 0 1 .08.03l.01.03c.06.34.1.68.29.97Z" fill="#A06636"/><path d="M6.32 5.17a5.25 5.25 0 0 0-.28 1.56c0 .33-.03.5-.16.82 0 .02-.02.02-.03.02l-1.2-.38c.34-.8.93-1.5 1.67-2.02Z" fill="#FFD44B"/><path d="m10.89 5.72-.07-.2a.06.06 0 0 0-.05-.04c-.05 0-.1.02-.12.1a4.84 4.84 0 0 1-.4.72c-.04.08-.07.12-.1.11l.2-.5c.14-.27.2-.43.38-.61a.08.08 0 0 1 .07-.02.08.08 0 0 1 .06.04c.06.11.07.25.03.4ZM7.07 5.39c-.04.33-.02.64.06.93 0 .06 0 .06-.04.03l-.01-.03c-.01-.02-.03-.03-.04-.02L7 6.3v.03c0 .09-.02.17-.04.26 0-.37 0-.67.03-.9 0-.08.03-.19.07-.31Z" fill="#BA8047"/><path d="M10.89 5.72a1.78 1.78 0 0 1-.22.7v.02l.04.06v.04a.35.35 0 0 0-.05.2c0 .01 0 .02.01.01.02 0 .02 0 .02.02v.01a.5.5 0 0 0-.07.27l-.4-.4v-.03a.12.12 0 0 0 .04-.12v-.03l.07-.28c.12-.19.22-.4.31-.62.04-.07.08-.1.13-.09a.06.06 0 0 1 .05.04l.07.2Z" fill="#A06636"/><path d="M13.7 9.47h-1.41v.01l1.4.11-.02.12a29.85 29.85 0 0 0-1.42-.08l1.4.17-.02.12-1.43-.15v.02l1.35.25a.04.04 0 0 1 .04.03v.05a.38.38 0 0 1-.21.01 92.88 92.88 0 0 0-1.26-.2v.01l1.42.34a.35.35 0 0 1-.04.12l-1.56-.35-.01.01v.02l1.54.43-.06.14-1.54-.44v.02l1.51.5-.04.12-1.56-.5h-.02v.01c.5.22 1.01.41 1.53.58l-.06.12-1.48-.55h-.02v.02l1.44.65-.03.07a2.02 2.02 0 0 1-.46-.14 48.59 48.59 0 0 1-1.1-.49v.01h-.01a17.26 17.26 0 0 0 1.42.76l-.01.06c0 .02-.02.02-.03.02-.44-.17-.87-.4-1.36-.67h-.02l-.01.02v.01l1.09.66v.04l-.02.01c-.11-.02-.27-.1-.5-.22a141.34 141.34 0 0 1-.7-.4l.38.3.01.03v.03a.03.03 0 0 1-.05.01l-.42-.23h-.02v.01c.15.11.35.28.4.45h-.02l-.44-.33v.04l.7.67c.02.01.01.02 0 .03-.2.06-.29.03-.45 0-.16-.03-.32.01-.5-.01a16.64 16.64 0 0 0 .16-2.07c.17-.27.25-.55.24-.85-.02-.43-.31-.79-.28-1.24.02-.18-.15-.28-.16-.46 0-.24.02-.5.07-.75.26.49.64.67 1.15.73a.06.06 0 0 0 .06-.04V7.2c0-.03-.02-.05-.06-.06l-.03.01-.02.01c.04-.12.12-.25.22-.4.09-.15.14-.24.16-.3.07-.23-.03-.47-.14-.7.96 1 1.45 2.32 1.3 3.7Z" fill="#FDCD4F"/><path d="M7.45 6.3h-.01v.02c0 .07.01.13.04.2v.03h-.03a.77.77 0 0 1-.09-.33c0-.02.01-.02.03-.02h.02c.01 0 .02 0 .02-.02v-.11c0-.01 0-.02.02-.02h.02v.02a2.51 2.51 0 0 0 .1.4.01.01 0 0 1-.01.02l-.01-.01-.09-.18h-.01Z" fill="#010101"/><path d="M6.77 6.68a.76.76 0 0 0-.1.53l.04.05.05.02h.05c.02 0 .02.01.02.03l-.13.32c-.2.39-.3.75-.33 1.08-.04.5.16.97.46 1.34l.48.6c-.22-.1-.4-.26-.55-.47a60.45 60.45 0 0 0-.43-.6.04.04 0 0 0-.03.03c-.05.14-.06.3-.04.48l.02.2c0 .02 0 .02 0 0l-.05-.1c-.02-.05-.04-.05-.05 0-.07.24.02.57.12.8.03.06.02.07-.03 0a2.13 2.13 0 0 1-.27-.52H6a.02.02 0 0 0-.02 0 .85.85 0 0 0-.08.59c.04.2.08.37.13.53a1.8 1.8 0 0 0 .15.34h-.02l-.3-.5h-.03v.02a2.94 2.94 0 0 0 .37 1.1h-.01l-.36-.62c-.04-.05-.04-.05-.03 0l.16.64a4.76 4.76 0 0 1-1.25-1.72c.24-.25.5-.47.8-.67.02-.02.03-.01.02.01a1.57 1.57 0 0 1-.03.22h.02c.1-.3.24-.57.42-.83.06-.08.12-.23.16-.47l.17-.76c.05-.27.13-.49.2-.74.04-.12.05-.22.06-.3l.01-.67c0-.11.04-.22.1-.31.03-.05.04-.04.04 0 0 .13.03.24.1.35ZM10.24 6.3l-.07.36a.37.37 0 0 1-.15-.12l.01-.03c.06 0 .1-.04.12-.1.03 0 .06-.03.1-.11Z" fill="#A06636"/><path d="M10.32 6.64c-.01 0-.02 0-.02-.02l-.01-.03v-.04l.01-.05v-.02a.26.26 0 0 1 .05-.08l.04-.03v.01l-.07.26Z" fill="#010101"/><path d="M9.24 6.59c.18.29.25.6.23.94h-.01c-.08-.48-.11-.74-.37-1.05-.04-.05-.03-.06.02-.02.05.03.1.08.13.13Z" fill="#392322"/><path d="M10.37 6.64a.8.8 0 0 1 .1-.08c.12-.08.14-.06.05.05a1.3 1.3 0 0 0-.1.14c0 .03-.02.02-.02 0V6.7c0-.02-.01-.03-.03-.02l-.05.01c-.02 0-.02 0-.02-.02l.01-.02h.02c.02 0 .03 0 .04-.02ZM7.58 6.63l-.48.5c.07-.11.15-.21.23-.3a.8.8 0 0 1 .25-.2Z" fill="#010101"/><path d="M8.68 6.95c-.01 0-.02-.01-.02-.03a.02.02 0 0 1 .01-.02l.17.07.02-.01.02-.05c0-.01.01-.02.03-.02h.05c.02 0 .03.01.04.03.01.05.04.08.09.1l.03.03c.03.11 0 .2-.07.3a.11.11 0 0 1-.15.01l-.2-.14c-.13-.08-.42-.01-.54.01-.03 0-.03 0-.01-.02.15-.1.33-.18.52-.21l.02-.02v-.02l-.01-.01ZM10.24 7.18l.1.09c.01.01.01.02-.01.01a.35.35 0 0 0-.25.05.26.26 0 0 1-.16.05c-.1 0-.16-.07-.19-.2 0-.03 0-.06.03-.08l.12-.1a.09.09 0 0 1 .05-.02c.1 0 .17.03.22.1l.09.1Z" fill="#FFFDC5"/><path d="m5.8 7.74-1.23-.32.06-.17 1.2.33c.02 0 .03.01.03.03 0 .05-.02.09-.05.13Z" fill="#FDCD4F"/><path d="M8.97 7.72c-.1.03-.18.08-.3.08a.62.62 0 0 1-.2-.07 1.28 1.28 0 0 0-.57-.14v-.02c-.02-.01-.01-.02 0-.01.15.01.26 0 .33-.04.19-.1.44-.27.6-.03l.14.2c.02.02.02.03 0 .03Z" fill="#010101"/><path d="M5.8 7.74v.05a.04.04 0 0 0-.04-.04c-.35-.07-.76-.14-1.24-.21l.05-.12 1.24.32Z" fill="#EBB142"/><path d="m10.77 8.35.05.3c.01.3-.11.6-.38.75l-.11.02a.04.04 0 0 0-.03.03l-.11.28v.05c.02.1.06.19.13.28.05.09.08.2.1.3.01.19-.06.31-.21.38a.1.1 0 0 0-.04.03.89.89 0 0 1-.22.21l-.15.06a.78.78 0 0 1-.8-.37v-.04c.26.34.74.53 1.07.2.07-.07.06-.1-.03-.06-.47.18-.73-.16-1-.48a.39.39 0 0 1-.03-.07 28.22 28.22 0 0 1-.24-.28c-.3-.27-.53-.6-.69-.97a.04.04 0 0 0-.04-.03h-.06c-.05-.03-.06-.06-.01-.1A.06.06 0 0 1 8 8.82c.28 0 .46.11.69.26.42.27.97.06 1.45-.07a.04.04 0 0 0 .03-.03l.04-.1c0-.02 0-.03-.02-.04a.67.67 0 0 1-.3-.3.1.1 0 0 0-.03-.04c-.15-.1-.17-.23-.06-.38.1-.06.21-.1.33-.1-.02.05-.06.08-.13.08H10v.02h.01a.46.46 0 0 1 .23-.02c.05 0 .08 0 .12-.03a.07.07 0 0 1 .04-.02c.05 0 .06 0 .05-.02a.17.17 0 0 0-.1-.05.84.84 0 0 0-.53-.1h.01l.01-.01c.07 0 .12-.02.15-.05a.04.04 0 0 1 .04-.01l.14.04h.01v-.01a2.26 2.26 0 0 1-.26-.14c.15-.16.38-.33.53-.09.06.1.12.16.18.2v.01a.5.5 0 0 0-.3.07.02.02 0 0 0 0 .02l.01.02c.12.05.36.18.4.32l.03.1Z" fill="#010101"/><path d="M5.8 7.79c0 .04-.01.08-.03.1a.04.04 0 0 1-.04.02l-1.24-.27.03-.1c.48.07.89.14 1.24.21.02 0 .03.02.04.04Z" fill="#FDCD4F"/><path d="M6.7 7.64c-.08.23-.15.5-.23.8-.09.39-.05.75.11 1.08a6.48 6.48 0 0 0 .92 1.23c-.01.03-.03.04-.05.04l-.14-.15-.48-.59a1.9 1.9 0 0 1-.46-1.34c.02-.33.13-.7.33-1.07Z" fill="#392322"/><path d="M9.92 7.7a2.25 2.25 0 0 0 .26.15h-.01l-.14-.04a.04.04 0 0 0-.04 0 .23.23 0 0 1-.15.06.04.04 0 0 0-.02.01c.19-.02.37 0 .54.1a.1.1 0 0 1-.08.03c-.05-.01-.1-.01-.14 0a.6.6 0 0 0-.33.11c-.1.03-.17.13-.2.3-.02.2-.06.33-.1.4-.03.05-.1.13-.22.23-.3.07-.5-.05-.78-.22-.14-.08-.44-.15-.6-.05a.04.04 0 0 0-.02.04c0 .04 0 .08.02.12.1.07.18.2.27.39.04.08.14.23.32.44.17.2.2.33.12.58a.04.04 0 0 1-.04.03h-.01a2.8 2.8 0 0 1-.24-.15c-.06-.04-.11-.04-.16 0a.1.1 0 0 0-.05.08c0 .3.05.58.15.83.23.63 1.14.72 1.5.17.07-.1.13-.2.18-.33a.89.89 0 0 0 .22-.2.1.1 0 0 1 .04-.04c.15-.07.22-.2.2-.37a.77.77 0 0 0-.09-.31c.05-.17.1-.3.15-.37a6.39 6.39 0 0 0 .31-.5 2.5 2.5 0 0 0-.11.12c-.07.08-.14.1-.23.1a.8.8 0 0 0 .38-.76c0-.1-.04-.2-.05-.3l.04-.01c.02 0 .03-.02.02-.04v-.04c0-.02.01-.02.03-.02.17.09.28.21.34.39a7.2 7.2 0 0 0 .07.2 3.57 3.57 0 0 1-.06.76c-.07.16-.13.28-.19.36-.15.21-.36.45-.63.72-.21.18-.35.38-.4.62-.03.09-.01.1.05.03a.59.59 0 0 1 .15-.12.84.84 0 0 0 .15-.1 81.15 81.15 0 0 0 .35-.36c.06-.13.1-.12.1.02.02.54-.19 1.03-.62 1.48-.03.02-.02.02 0 .02a.2.2 0 0 0 .09-.05h.03v.02l-.25.2c-.04.04-.03.05.02.03a.76.76 0 0 0 .2-.11h.02v.02l-.3.3c-.07.06-.06.07.02.03l.25-.15c.06-.03.08-.02.03.04l-.06.1c-.03.04-.03.04.01.02.13-.09.23-.18.3-.27.04-.04.04-.04.03.01a4.83 4.83 0 0 1-.06.19l.1-.1.01.01c0 .31-.1.58-.31.8l-.2.22c-.75.19-1.5.18-2.25-.02-.3-.2-.54-.44-.72-.7-.03-.03-.02-.04.01-.02l.49.34h.02v-.01c-.2-.17-.37-.36-.5-.57-.02-.04-.01-.05.03-.02l.67.5.01-.02v-.01c-.3-.23-.59-.52-.72-.88-.02-.06 0-.06.04-.02.2.21.42.39.65.52.06.04.07.03.03-.02a2.2 2.2 0 0 1-.18-.24c-.03-.04-.02-.05.02-.02l.3.22.01-.02v-.01a1.99 1.99 0 0 1-.36-.4c-.03-.05-.03-.06.02-.02l.29.2h.01v-.02c-.17-.16-.3-.33-.39-.53-.01-.03 0-.04.02-.02.08.07.16.13.26.18.02.02.02.01 0 0l-.26-.28a3.11 3.11 0 0 1-.42-.57h.03l.15.14c.03.03.03.03 0 0l-.26-.44c-.02-.03-.01-.04.02-.03.03 0 .07.03.13.07h.04l.04-.02a.04.04 0 0 1 .04 0l.19.08c.04.05.1.08.15.1.02 0 .02 0 0-.01l-.21-.24c-.33-.34-.6-.68-.83-1.03a.73.73 0 0 1-.09-.2c-.19-.77.04-1.28.7-1.53.02 0 .04-.03.05-.06 0-.01 0-.02.02-.02.11 0 .2-.03.25-.07h.05c.25 0 .5 0 .64.05.02.01.02.02 0 .03a.27.27 0 0 0-.05.01c-.06.03-.06.05 0 .07l.26.07c.04.03.06.04.1.04l.21.03c.02.01.02.02 0 .03l-.11.04v.03l.02.01c.26-.03.48-.14.7-.26a.74.74 0 0 1 .2-.07c.01 0 .02-.02.01-.04 0-.04 0-.07.03-.1.02-.01.02-.03 0-.04a1.32 1.32 0 0 1-.05-.05l-.01-.03c0-.02.01-.03.03-.03l.3.06Z" fill="#FFFDC5"/><path d="M4.45 7.77c.19.03.4.02.57.05a22.58 22.58 0 0 0 .73.15c0 .04-.02.08-.04.12l-1.29-.22.03-.1Z" fill="#FDCD4F"/><path d="m4.42 7.87 1.28.22v.05a7.58 7.58 0 0 0-1.3-.1l.02.02 1.24.2-.08.4-.98-.05c-.02 0-.03 0-.03.03v.02a.03.03 0 0 0 .02.03h.98l-.13.6a7 7 0 0 0-1.04.14h.01v.01l1-.1c-.12.32-.31.5-.55.73-.12.1-.21.26-.35.37a4.53 4.53 0 0 1-.09-2.57Z" fill="#EBB142"/><path d="M5.7 8.14c0 .05-.02.09-.04.13l-1.24-.2-.01-.02v-.02a.01.01 0 0 1 0-.01c.44 0 .76.04 1.29.12Z" fill="#FDCD4F"/><path d="M10.39 8.27h-.03a.04.04 0 0 0-.03.03.33.33 0 0 1-.18.27h-.03v-.02a.38.38 0 0 0 .12-.22.08.08 0 0 0-.02-.07.08.08 0 0 0-.07-.03c-.08.01-.13.05-.15.11-.02.07-.05.08-.1.02a.13.13 0 0 1-.01-.1c0-.02 0-.03.02-.04.1-.05.2-.07.29-.08.03 0 .1 0 .19-.03.11-.02.2.02.29.14.03.05.03.1.01.16v.01h-.03c0-.06-.02-.1-.03-.12a.1.1 0 0 0-.1-.02c-.04 0-.06.05-.06.12 0 .07.02.12.04.14v.03h-.03l-.03-.01-.02-.03a18.23 18.23 0 0 0-.04-.26Z" fill="#A06636"/><path d="M9.81 8.12c-.1.15-.09.28.06.38a.1.1 0 0 1 .03.04c.07.13.17.23.3.3.02 0 .02.02.02.04l-.04.1a.04.04 0 0 1-.03.03c-.48.13-1.03.34-1.45.07-.23-.15-.41-.27-.7-.26 0 0-.02 0-.03.02-.05.04-.05.07.01.1a.2.2 0 0 0-.07 0 .38.38 0 0 1-.02-.12c0-.02 0-.03.02-.04.16-.1.46-.03.6.05.28.17.48.3.78.22.13.03.29-.12.3-.24l.06-.14v-.05l-.04-.2c.03-.17.1-.27.2-.3Z" fill="#ACA285"/><path d="m9.6 8.42.06.2v.05a.51.51 0 0 0-.06.14c-.02.12-.18.27-.3.24.1-.1.18-.18.2-.22.05-.08.09-.22.1-.4Z" fill="#D5C799"/><path d="M10.46 9.21a.3.3 0 0 1 .06-.12.69.69 0 0 0 .15-.5l.05-.09c.02-.02.03-.02.04.01a.95.95 0 0 1-.22.77c-.03.04-.05.03-.06-.02l-.02-.05Z" fill="#FFFDC5"/><path d="M10.67 8.6a.69.69 0 0 1-.15.49.3.3 0 0 0-.06.12.58.58 0 0 0-.2-.19.04.04 0 0 1-.01-.04l.02-.09c0-.02 0-.03.03-.03a.57.57 0 0 0 .37-.27Z" fill="#ACA285"/><path d="m7.98 8.93.06.01c.02 0 .03.01.04.03.16.37.39.7.68.97l-.02.25c0 .08.02.16.07.23.06.08.12.15.2.21v.04c-.09.07-.18.07-.28-.01l-.16-.15h-.02c0 .02 0 .03.02.04v.02h-.04a.14.14 0 0 0-.12-.04c-.02 0-.02.01-.02.03.04.2.12.36.22.5.02.03.02.04-.03.03a.48.48 0 0 1-.08-.04H8.5l-.01.01v.02c.04.03.06.07.08.12 0 .02 0 .02-.02.01l-.07-.05h-.02v.03c.29.34.77.47 1.13.2a.08.08 0 0 0 .03-.05.4.4 0 0 1 .16-.2.06.06 0 0 0 .02-.04l.01-.06.15-.06c-.05.12-.1.23-.17.33-.37.55-1.28.46-1.51-.17a2.37 2.37 0 0 1-.14-.88.1.1 0 0 1 .04-.03c.05-.04.1-.04.16 0a2.8 2.8 0 0 0 .27.14.04.04 0 0 0 .02-.02c.09-.25.05-.38-.12-.58a2.7 2.7 0 0 1-.32-.44 1.15 1.15 0 0 0-.27-.4.2.2 0 0 1 .07 0ZM8.55 9.06c.08.1.12.21.12.33 0 .05-.02.06-.06.04l-.04-.02a.12.12 0 0 1-.06-.1v-.23c0-.05.02-.05.04-.02ZM10.32 10.06a.82.82 0 0 1-.14-.28v-.05l.12-.28c0-.02.01-.02.03-.03l.11-.01c.09 0 .16-.02.23-.1a2.55 2.55 0 0 1 .12-.12v.02c-.1.16-.2.32-.32.48-.05.08-.1.2-.15.37Z" fill="#D5C799"/><path d="m9.68 9.69-.4-.15a3.95 3.95 0 0 1 .06.13c.12.19.13.43.14.65-.04-.18-.07-.3-.18-.46-.08-.11-.3-.18-.3-.35 0-.04 0-.08-.02-.12-.01-.02 0-.03.02-.02a1 1 0 0 0 .4.05l.04.01c.1.06.18.15.24.26ZM10 9.6l-.18.25-.24-.4v-.02c.19-.03.32.02.42.16Z" fill="#BA8047"/><path d="m8.82 9.63-.1-.1v-.04a.28.28 0 0 1 .08-.05c.03-.01.04 0 .04.03v.15c0 .02 0 .02-.02.01Z" fill="#D5C799"/><path d="m9.68 9.69.15.28-.27-.08a.04.04 0 0 0-.05.04l.05.21c-.01.08.01.15.08.22.1.12.22.24.37.35-.27-.02-.44-.15-.53-.4-.01-.21-.02-.45-.14-.64a3.9 3.9 0 0 0-.07-.12c-.01-.02 0-.02.02-.01l.39.15ZM7.3 10.64l.15.15.1.12-.18-.08a.04.04 0 0 0-.04 0l-.04.02h-.04a.59.59 0 0 0-.13-.07c-.04-.01-.04 0-.02.03l.27.43c.02.04.02.04-.01.01l-.15-.14H7.2c.14.24.28.43.41.57a34.72 34.72 0 0 1 .26.28c-.1-.05-.18-.11-.26-.18-.03-.02-.03-.01-.02.02a1.46 1.46 0 0 0 .4.53v.01h-.02l-.29-.2c-.05-.03-.05-.02-.02.03.1.15.22.28.36.4v.03l-.3-.22c-.05-.03-.06-.02-.03.02l.18.24c.04.05.03.06-.03.02a3.16 3.16 0 0 1-.65-.52c-.05-.04-.06-.04-.04.02a1.97 1.97 0 0 0 .72.89v.01h-.01l-.67-.49c-.04-.03-.05-.02-.02.02a2.35 2.35 0 0 0 .49.58h-.02l-.49-.34c-.03-.02-.04-.01-.01.02.18.26.43.5.72.7a4.63 4.63 0 0 1-1.9-.98l-.16-.63c-.01-.06 0-.06.03-.01l.35.62.02-.01v-.02a2.94 2.94 0 0 1-.37-1.1h.02l.3.51a.01.01 0 0 0 .01 0h.02a1.8 1.8 0 0 1-.15-.34c-.05-.16-.1-.34-.13-.53a.85.85 0 0 1 .09-.6.02.02 0 0 1 .03.02c.07.2.16.37.26.51.05.07.06.06.03 0-.1-.23-.2-.56-.13-.8.02-.05.04-.05.06 0l.04.1c0 .02.01.02.01 0l-.02-.2c-.02-.17 0-.34.04-.48a.04.04 0 0 1 .05-.03l.02.02.4.58c.14.21.32.37.54.46Z" fill="#E7A459"/><path d="M10 9.6c.16.26.27.45.32.58.03.08.04.17.04.27-.02.2-.17.27-.35.26-.15-.1-.27-.23-.37-.35.02-.14-.01-.21-.08-.22l-.05-.21a.04.04 0 0 1 .03-.05h.02l.27.1a.4.4 0 0 1 .06.12.63.63 0 0 0-.07-.25L10 9.6Z" fill="#F0A97E"/><path d="m13.67 9.7-.02.1-1.4-.17c-.02 0-.02 0 0-.01h.07c.45.01.9.05 1.35.09Z" fill="#EEAE57"/><path d="m9 9.81-.07-.08V9.7l.02-.04a.03.03 0 0 1 .05.02l.02.14H9Z" fill="#D5C799"/><path d="m13.63 9.92-.04.18v-.03a.04.04 0 0 0-.04-.03l-1.35-.25v-.02l1.43.15Z" fill="#EEAE57"/><path d="M9.18 9.89v.08c.01.03 0 .03-.02.02a.17.17 0 0 1-.08-.08c-.01-.02 0-.03.01-.04h.08l.01.02ZM9 10.63a1.18 1.18 0 0 1-.2-.21.38.38 0 0 1-.06-.23c0-.08 0-.16.02-.25a28.97 28.97 0 0 0 .28.35c.27.32.53.65 1 .48.09-.03.1-.01.03.05-.33.34-.8.15-1.07-.19ZM9.33 10.14c-.02.01-.04 0-.08-.05v-.05l.02-.01h.02c.02-.01.03 0 .04.01.02.06.02.1 0 .1Z" fill="#ACA285"/><path d="m10.5 13.43-.4.14.2-.21c.21-.23.32-.5.31-.8 0-.02 0-.03-.01-.02a61.03 61.03 0 0 0-.12.09 5.02 5.02 0 0 0 .06-.2c-.08.1-.18.2-.3.28-.05.02-.05.02-.02-.02l.06-.1c.05-.06.03-.07-.03-.04l-.25.15c-.08.04-.09.03-.02-.03l.3-.3v-.02h-.02a.76.76 0 0 1-.2.11c-.05.02-.06 0-.02-.03l.25-.2v-.01l-.02-.01h-.01a.2.2 0 0 1-.08.05c-.03 0-.04 0-.01-.02.43-.45.64-.94.62-1.48 0-.14-.04-.15-.1-.02a.57.57 0 0 1-.19.2v-.05c0-.02.02-.02.03-.03l-.02-.01c-.01-.01-.02-.02-.02 0l-.02.02h-.01v-.01a4.22 4.22 0 0 1 .21-.21h.04a.7.7 0 0 0 .15-.18l.1-.17.1-.21h.01c-.02.77-.1 1.54-.23 2.31-.05.28-.16.62-.33 1.03Z" fill="#E7A459"/><path d="M10.93 10.28c-.06.07-.08.14-.07.2a.7.7 0 0 1-.15.18h-.02l-.02-.01h-.02a4.22 4.22 0 0 0-.16.2c0-.02 0-.01.02 0h.02v.01c-.01 0-.02.01-.02.03v.04l-.17.16a.84.84 0 0 1-.15.11.58.58 0 0 0-.15.12c-.06.07-.08.06-.06-.03.06-.24.2-.44.4-.62.23-.15.43-.35.6-.57h.01v.01a.71.71 0 0 0-.06.17Z" fill="#BA8047"/><path d="M9.64 10.36c-.07-.07-.1-.14-.08-.22.07.01.1.08.08.22Z" fill="#FFFDC5"/><path d="m13.41 10.65-.03.08-1.5-.5-.01-.01v-.01l1.54.44Z" fill="#EEAE57"/><path d="m10.21 10.32.02.1c.02 0 .03-.04.03-.1 0-.04 0-.08-.02-.08s-.03.04-.03.08Z" fill="#FFFDC5"/><path d="M13.34 10.85a.28.28 0 0 1-.05.1 18.96 18.96 0 0 1-1.53-.59v-.01h.02l1.56.5Z" fill="#EEAE57"/><path d="M9 10.67c.2.29.46.4.8.37v.06a.05.05 0 0 1-.03.04.4.4 0 0 0-.16.2c0 .02-.02.03-.03.04-.36.28-.84.15-1.12-.19a.03.03 0 0 1 0-.02v-.01h.01l.07.05h.02a.26.26 0 0 0-.07-.13l-.01-.02v-.01h.02l.08.04c.05.01.05 0 .03-.03-.1-.14-.18-.3-.22-.5 0-.02 0-.03.02-.03.04 0 .08.01.12.04h.03l.01-.01v-.01l-.02-.03c0-.02.01-.02.02 0l.16.14c.1.08.2.08.28.01Z" fill="#ACA285"/><path d="m13.23 11.06-.06.12-1.44-.64v-.01a.01.01 0 0 1 0-.02h.02l1.48.55ZM13.14 11.25c-.58 1-1.41 1.72-2.5 2.15.2-.5.33-.99.39-1.48.17.02.33-.02.49 0 .16.04.26.07.45.01.01 0 .02-.01 0-.03l-.7-.67v-.04l.44.33h.01c-.04-.17-.24-.34-.39-.45l.02-.01.42.23a.03.03 0 0 0 .04 0l.01-.02a.03.03 0 0 0 0-.04l-.4-.3v-.01h.02l.7.4c.22.12.38.2.49.22h.02v-.05l-1.09-.66.01-.02h.02c.49.25.92.49 1.36.66.01 0 .02 0 .03-.02v-.06a17.3 17.3 0 0 1-1.42-.76h.03l1.1.48c.16.07.31.12.45.14Z" fill="#EEAE57"/><path d="m7.56 10.91-.1-.12.04-.03.22.24c.01.01 0 .02 0 0a.45.45 0 0 1-.16-.09Z" fill="#A06636"/><path d="M8.7 12.03a1.79 1.79 0 0 1-.44-.35c-.04-.06-.04-.06.02-.02a1.59 1.59 0 0 0 1.85.13v.03l-.38.29c-.1.1-.2.14-.27.16-.46.1-.8 0-1.13-.34-.04-.04-.03-.05.02-.02a1.5 1.5 0 0 0 .33.13v-.01Z" fill="#F4DB98"/><path d="M8.37 12.3c.11.07.22.12.35.17l.22.03.24.02c.27.03.6-.18.81-.36h.03v.02c-.12.1-.23.2-.32.3a.73.73 0 0 1-.26.22.59.59 0 0 1-.35.04c-.3-.08-.54-.22-.73-.42-.03-.03-.03-.04.01-.02Z" fill="#F4DB98"/></svg>