<!-- by TradingView --><svg width="18" height="18" xmlns="http://www.w3.org/2000/svg"><path fill="#0245B2" d="M0 0h18v18H0z"/><path d="M14.06 9.922a5.17 5.17 0 00-.007-1.884l-1.839-.325v2.566l1.846-.357zm-.091.41l-1.68.323v.003l.655 1.642a5.13 5.13 0 001.025-1.968zm-1.316 2.288l-.015.015-1.764-.705 1.076-1.076.703 1.767zm-.33.305a5.13 5.13 0 01-1.938 1.03l.296-1.689 1.642.66zM9.975 14.05l.327-1.836H7.74l.357 1.85a5.176 5.176 0 001.878-.014zm-2.287-.076l-.327-1.705-1.672.666a5.127 5.127 0 001.999 1.039zM5.082 12.33l.667-1.67-1.71-.3a5.13 5.13 0 001.043 1.97zm-1.137-2.38A5.171 5.171 0 013.94 8.08l1.847-.36v2.563l-1.84-.33zm.086-2.28l1.715-.33-.663-1.674A5.13 5.13 0 004.031 7.67zm1.342-2.317l1.786.714-1.073 1.077-.713-1.791zm.317-.29a5.13 5.13 0 011.962-1.028l-.298 1.693-1.664-.665zm2.368-1.12l-.324 1.858h2.565l-.359-1.86a5.172 5.172 0 00-1.882.001zm2.292.092l.325 1.69 1.646-.653a5.13 5.13 0 00-1.971-1.037zm2.284 1.325l.02.02-.704 1.764-1.076-1.077 1.76-.707zm.307.335a5.129 5.129 0 011.017 1.932l-1.675-.294.658-1.638zM9.018 8.57l1.201-2.463h-2.4L9.018 8.57zm-2.91-.771v2.4L8.59 8.998 6.107 7.799zm5.588-.367l-1.113-1.11-1.131 2.241 2.244-1.13zm.197 2.767V7.8l-2.45 1.199 2.45 1.201zm-4.728 1.734l-.002-.002.002-.001v.003zm-.002-.002l-1.79.711.716-1.785 1.074 1.074zm4.533-1.365h-.002l.002-.003v.003zM9.455 9.435l2.24 1.13-1.109 1.111-1.131-2.241zm-.437-.012l-1.199 2.47h2.4l-1.201-2.47zm-2.676-1.99l2.242 1.13-1.132-2.24-1.11 1.11zm0 3.13l.002.002-.002.001v-.003zm.002.002l1.108 1.111 1.132-2.241-2.24 1.13z" fill="#fff"/></svg>