<!-- by TradingView --><svg width="18" height="18" viewBox="0 0 18 18" xmlns="http://www.w3.org/2000/svg"><path fill="#F0F3FA" d="M0 0h18v18H0z"/><circle cx="9" cy="9" r="5" fill="#00050B"/><path d="m9 12.36-1.99.62.37.43a4.6 4.6 0 0 1-2.12-1.56l.5.24V9.97L4.5 8.3l-.2.4c.05-.87.34-1.68.8-2.36l-.04.67 2.02-.75 1.18-1.7-.45-.11a4.76 4.76 0 0 1 2.43 0l-.41.1 1.18 1.7 2.02.76-.04-.54c.39.6.64 1.3.72 2.06l-.12-.23-1.35 1.67v2.12l.47-.19a4.87 4.87 0 0 1-2.06 1.47l.34-.4L9 12.37Z" fill="url(#a)"/><path d="M7.37 4.59c-.12.02-.37.14-.48.2l.34.03-.56.76-.91.3.04-.35-.25.26-.08.56 1.47-.5.88-1.16-.45-.1Z" fill="#FF8033"/><path d="M4.4 9.26c-.03.1 0 .38.02.5l.15-.29.54.77v.94l-.33-.16.17.32.52.27v-1.52l-.83-1.22-.25.39ZM13.6 9.26c.03.1 0 .38-.02.5l-.15-.29-.54.77v.94l.33-.16-.17.32-.52.27v-1.52l.83-1.22.25.39Z" fill="#F96302"/><path d="M10.63 4.59c.12.02.37.14.48.2l-.34.03.56.76.91.3-.04-.35.25.26.08.56-1.47-.5-.88-1.16.45-.1Z" fill="#FF8033"/><path d="m7.6 13.2 1.4-.44 1.4.44-.3.3c-.09.07-.25.1-.32.1l.22-.23-1-.33-1 .33.22.22a.53.53 0 0 1-.32-.1c-.1-.08-.23-.22-.3-.29Z" fill="#B84809"/><path d="m9 12 2.35-2.3-.35-.87V7L9.66 8H8.34L7 7v1.9l-.35.8L9 12Z" fill="url(#b)"/><path d="m9 11.34.52.17L9 12l-.52-.49.52-.17Z"/><path d="M7.73 8.7c-.12 0-.22.12-.2.25l.2 1.34c.01.1.1.18.2.18h.4a.2.2 0 0 0 .19-.14l.04-.13a.17.17 0 0 1 .16-.12h.56c.07 0 .13.05.16.12l.04.13c.03.09.1.14.19.14h.4a.2.2 0 0 0 .2-.18l.2-1.34c.02-.13-.08-.24-.2-.24H7.73Z" fill="#040000"/><path d="M8.12 9.11c0-.06.04-.11.1-.11h.39c.05 0 .1.05.1.11v.66c0 .06-.05.11-.1.11h-.4c-.05 0-.1-.05-.1-.1V9.1ZM9.3 9.11c0-.06.04-.11.1-.11h.38c.06 0 .1.05.1.11v.66c0 .06-.04.11-.1.11H9.4c-.05 0-.1-.05-.1-.1V9.1Z" fill="#DFDFDF"/><defs><linearGradient id="a" x1="9" y1="4.29" x2="9" y2="13.41" gradientUnits="userSpaceOnUse"><stop offset=".49" stop-color="#FCFCFC"/><stop offset="1" stop-color="#939393"/></linearGradient><linearGradient id="b" x1="9" y1="6.94" x2="9" y2="11.94" gradientUnits="userSpaceOnUse"><stop stop-color="#FFA263"/><stop offset=".5" stop-color="#F60"/><stop offset=".9" stop-color="#D35501"/></linearGradient></defs></svg>