<!-- by TradingView --><svg width="18" height="18" viewBox="0 0 18 18" xmlns="http://www.w3.org/2000/svg"><path fill="url(#a50jgfwpz)" d="M0 0h18v18H0z"/><path d="M8.15 6.28a454.81 454.81 0 0 0-1.23-.7c-.26-.14-.53-.31-.79-.06a.33.33 0 0 0-.07.13.84.84 0 0 1-.06.13v-.41c.02-.2.19-.32.37-.4l2.46-.94c.15-.06.28-.01.41.06l3.48 1.89c.2.1.28.3.28.52v1.98c0 .3-.22.46-.47.56-.81.31-1.7.63-2.53.96V7.7c0-.28-.05-.44-.3-.57a598.68 598.68 0 0 0-1.55-.85Z" fill="#FE6E00"/><path d="M8 6.18v2.48c0 .18.08.32.2.42l.36.2c.44.24 1 .49 1.44.73l-3.5 1.37c-.2.07-.37.05-.5-.08V5.78a.84.84 0 0 0 .06-.13c.02-.06.04-.1.07-.13.26-.25.53-.08.79.06l1.08.6Z" fill="#F3EED9"/><path d="M10 10.01v4.9c-.09.11-.18.12-.3.02l-3.59-3.27c-.08-.08-.11-.22-.11-.36.13.13.3.15.5.08L10 10Z" fill="#19867F"/><defs><linearGradient id="a50jgfwpz" x1="3.35" y1="3.12" x2="21.9" y2="24.43" gradientUnits="userSpaceOnUse"><stop stop-color="#1A1E21"/><stop offset="1" stop-color="#06060A"/></linearGradient></defs></svg>