<!-- by TradingView --><svg width="18" height="18" viewBox="0 0 18 18" xmlns="http://www.w3.org/2000/svg"><path fill="url(#a)" d="M0 0h18v18H0z"/><path d="M8.3 10.93a3.98 3.98 0 0 1-1.67-.96A4.89 4.89 0 0 1 5.5 8.26a6.02 6.02 0 0 1-.43-1.72 5.4 5.4 0 0 1-.02-1.5c0-.04.02-.05.05-.03.86.57 1.65 1.19 2.4 1.86.59.55 1.23 1.17 1.91 1.86.14.14.3-.03.46-.53a3.17 3.17 0 0 1 .59-1.03c.48-.54 1.01-.7 1.6-.47l.37.16c.14.07.33.11.58.12a8.16 8.16 0 0 0 1.59-.16c.13-.02.27 0 .39.04l.01.02-.01.01c-.68.2-1.18.39-1.5.57a2.1 2.1 0 0 0-.4.3 4.4 4.4 0 0 0-.97 1.09 2.34 2.34 0 0 0-.32 1.07c-.08.5-.14.88-.2 1.13a2.9 2.9 0 0 1-.91 1.61c-.5.46-1.13.78-1.88.98a3.3 3.3 0 0 0-.75.32 24.9 24.9 0 0 0-1.73 1.02.3.3 0 0 1 .05-.16l1.94-3.85c.01-.02 0-.03-.01-.04Z" fill="#6966F0"/><defs><linearGradient id="a" x1="3.35" y1="3.12" x2="21.9" y2="24.43" gradientUnits="userSpaceOnUse"><stop stop-color="#1A1E21"/><stop offset="1" stop-color="#06060A"/></linearGradient></defs></svg>