<!-- by TradingView --><svg xmlns="http://www.w3.org/2000/svg" width="18" height="18"><path fill="url(#aiw1birfa)" d="M0 0h18v18H0z"/><path opacity=".6" d="M4.47 7.22c-.21.1-.47.09-.47-.15V6.1L7.75 4v.97c0 .24-.17.53-.4.64l-2.88 1.6z" fill="#298DFF"/><path opacity=".6" d="M9.87 14.02c.2-.12.2-.32 0-.43l-2.99-1.67a.9.9 0 00-.76 0l-.86.49 3.75 2.1.86-.5z" fill="#344AE6"/><path opacity=".6" d="M13.13 5.61c-.21-.11-.4-.02-.4.21v3.35c0 .24.18.53.4.64l.86.48V6.1l-.86-.48z" fill="#4264F2"/><path d="M4 6.1L7.75 4l3.37 1.89c.2.1.2.3 0 .42L8.13 7.98a.9.9 0 01-.76 0L4 6.1z" fill="#298DFF"/><path d="M5 8.47c0-.24.18-.33.41-.22L8.6 9.97c.22.12.41.41.41.66v3.87l-4-2.15V8.47z" fill="#344AE6"/><path d="M10.41 12.35c-.22.12-.41.03-.41-.22V8.7a.8.8 0 01.41-.65L14 6.1v4.31l-3.59 1.94z" fill="#4264F2"/><defs><linearGradient id="aiw1birfa" x1="3.35" y1="3.12" x2="21.9" y2="24.43" gradientUnits="userSpaceOnUse"><stop stop-color="#1A1E21"/><stop offset="1" stop-color="#06060A"/></linearGradient></defs></svg>