<!-- by TradingView --><svg width="18" height="18" viewBox="0 0 18 18" xmlns="http://www.w3.org/2000/svg"><path fill="#F0F3FA" d="M0 0h18v18H0z"/><circle cx="9" cy="9" r="6" fill="#D32620"/><circle cx="9" cy="9" r="5" fill="url(#a)"/><path fill-rule="evenodd" d="M5.01 9.77c.01-.02 0-.03-.01-.03h-.66c-.15 0-.24-.12-.32-.23a.1.1 0 0 1 0-.1l.75-1.4a.6.6 0 0 1 .17-.22c.2-.13.52-.2.72-.03a1.9 1.9 0 0 1 .42.45.02.02 0 0 0 .02 0l.33-.28c.2-.18.45-.28.7-.26.07 0 .12.02.17.05.03 0 .06.02.08.03h.04A8.6 8.6 0 0 1 10 6.8c.46-.08.92-.1 1.4-.06.55.05 1.16.28 1.35.89 0 0 0 .02.02.02l.02.01h.58a.4.4 0 0 1 .3.13l.06.07c.18.17.35.35.2.62l-.07.14c-.13.25-.23.45-.5.56a.06.06 0 0 0-.03.03v.04l.27 1v.02a.02.02 0 0 1-.02.02h-.79c-.1 0-.19-.1-.26-.18l-.02-.03a.5.5 0 0 1-.1-.18 114.34 114.34 0 0 0-.2-.67h-.02l-.02.04a9.2 9.2 0 0 0-.22.4c-.05.07-.08.07-.17.07-.02 0-.02 0-.01.03l.05.05c.02.03.05.05.06.09.03.07.03.15-.01.21a28.67 28.67 0 0 0-.46.76l-.1.07c-.15.1-.31.22-.49.22H9.76a.95.95 0 0 0-.4.13l-.11.06c-.54.22-1.06.39-1.57.5a5.7 5.7 0 0 1-1.52.13 2.05 2.05 0 0 1-1.05-.31.97.97 0 0 1-.44-.63c-.09-.37.06-.8.25-1.13l.1-.16Zm6.6-2.1H7.99c-.02 0-.02 0 0-.02a5.35 5.35 0 0 1 1.9-.55c.48-.04 1 .03 1.42.28a.9.9 0 0 1 .3.28Zm-4.36 3.51c-.1 0-.16-.02-.23-.1l-.07-.04c-.01 0-.02 0-.03.02-.08.08-.2.12-.37.12l-.6.01c-.03 0-.04.01 0 .04.5.36 1.13.45 1.7.38a5.25 5.25 0 0 0 1.7-.49v-.01h-.03a.7.7 0 0 1-.35.07H7.25Z"/><path d="M8.11 6.75a.4.4 0 0 0-.12.09l-.27.28c-.03.03-.06.04-.1.05l-.01-.01-.02-.02a.05.05 0 0 1 0-.04l.15-.27a.07.07 0 0 0-.01-.08l-.03-.02-.15-.06h-.02a.05.05 0 0 1 0-.05V6.6c.09-.12.23-.13.4-.18h.03a.4.4 0 0 0 .13-.1c.1-.12.2-.21.27-.28.03-.03.06-.04.09-.04h.02l.01.02a.05.05 0 0 1 0 .05l-.14.27a.07.07 0 0 0 0 .08l.03.01.16.06.01.01a.05.05 0 0 1 .02.05l-.01.02c-.1.11-.23.12-.41.17l-.03.01ZM6.65 7.12c.1-.04.18-.17.27-.25.04-.01.05 0 .05.02v.04l-.09.15a.03.03 0 0 0 0 .02.03.03 0 0 0 .01.02L7 7.2a.03.03 0 0 1 .01.03v.01c-.06.08-.17.07-.27.11-.1.05-.19.18-.27.25h-.01c-.03.02-.04.01-.05-.01l.01-.04.08-.15a.03.03 0 0 0 0-.03.03.03 0 0 0 0-.02l-.11-.06h-.01a.03.03 0 0 1 0-.03v-.01c.06-.08.17-.07.27-.12Z" fill="#FFE061"/><path d="m6.28 8.79-.02.03-.37.3c-.12.1-.22.16-.3.18a.4.4 0 0 1-.22.01c-.12-.03-.15-.25-.17-.36-.03-.13-.02-.26-.03-.4l-.02-.01h-.01v.01l-.01.12-.02.04-.31.6h-.53a.03.03 0 0 1 0-.02l.06-.15c.3-.59.5-.96.6-1.11.1-.18.38-.22.55-.18.12.02.18.1.2.23a15.69 15.69 0 0 0 .07.59c-.02.02-.03.03-.02.04 0 .05.02.05.04 0a3.98 3.98 0 0 1 .9-.76c.17-.1.47-.19.63-.04l.02.04c0 .04-.01.1-.05.18a55.26 55.26 0 0 1-.65 1.2h-.45l-.03-.02-.02-.02a.06.06 0 0 1 .01-.06c.08-.08.14-.22.18-.3a11.1 11.1 0 0 0 .2-.35l-.23.2ZM7.96 8.37a107.84 107.84 0 0 0 1.18 0c.19.07.13.22.06.36-.13.25-.2.42-.4.53a.55.55 0 0 1-.26.04 113.4 113.4 0 0 0-1.77 0 .03.03 0 0 1 0-.03l.2-.38.03-.03h1.6l.02-.01.02-.02.01-.03a1024.74 1024.74 0 0 0-1.14-.03.2.2 0 0 1-.15-.07c-.06-.07-.02-.17.03-.25l.14-.28c.11-.21.27-.33.5-.33a127.75 127.75 0 0 0 1.63 0 .03.03 0 0 1 0 .03l-.22.4-.02.02H8c-.02 0-.03 0-.04.02l-.01.03c-.01.02 0 .03.01.03ZM11.14 7.84h.53l.01.02a.04.04 0 0 1 0 .04l-.22.38h-.67l-.01.01-.01.02-.53.98-.03.02h-.49V9.3a.02.02 0 0 1 0-.02l.52-.98v-.01H9.6c-.05 0-.06-.02-.04-.07l.2-.37.03-.02h1.34Z" fill="#fff"/><path d="M11.8 7.84c.01.14-.1.29-.16.4a.02.02 0 0 0 0 .02l.01.01h1.28c.01 0 .02 0 .02.03s0 .05-.03.06a233.42 233.42 0 0 1-1.4.02.1.1 0 0 0 .01-.05c0-.02 0-.03-.02-.03-.2.01-.22 0-.05-.02l.22-.38a.04.04 0 0 0 0-.04l-.01-.01h-.02l-.51-.01a23.67 23.67 0 0 0 .56 0 .1.1 0 0 1 .03.05h.02a.16.16 0 0 0 .05-.05Z" fill="#165777"/><path d="M12.29 8.81v-.03a.04.04 0 0 0-.04-.02h-.38c-.02 0-.03 0-.04.02a.25.25 0 0 0-.04.12l-.2.4-.01.01H11.1c-.05 0-.06-.02-.04-.07l.45-.86a233.4 233.4 0 0 0 1.4-.02c.02-.01.04-.03.03-.06 0-.02 0-.03-.02-.03h-1.29v-.02c.07-.12.17-.27.16-.41l1.54-.01c.1 0 .21 0 .24.12.04.14-.1.35-.2.52-.1.21-.28.32-.5.3-.02 0-.03.01-.02.03l.03.06.02.05a6.35 6.35 0 0 1 .1.34c.03.1.06.18.06.25 0 .1.06.25.08.34l-.01.01h-.55l-.01-.02-.16-.52V9.3a1.64 1.64 0 0 1-.13-.48ZM5.84 10.38h1.2a.02.02 0 0 1 0 .02.5.5 0 0 1-.23.27l-.22.14a.19.19 0 0 1-.1.03H5.1a.02.02 0 0 1 0-.02l.36-.63.01-.02h1.2c.03 0 .06-.02.08-.05l.02-.05c.02-.03.01-.04-.02-.04H5.57v-.01l.08-.16h.01l.02-.01h1.4c.02 0 .03 0 .04.02l.07.2v.04a.6.6 0 0 1-.1.18c0 .02-.01.02-.03.02h-1.2s-.02 0-.03.02v.02c-.01.02 0 .03.01.03ZM7.36 10.17H7.3c-.02 0-.03-.01-.02-.03.05-.16.2-.18.3-.23a.38.38 0 0 1 .2-.06 2.55 2.55 0 0 1 .24.02l-.55.96-.02.01h-.43l.36-.64a.02.02 0 0 0 0-.02l-.02-.01ZM8.68 10.84a428.01 428.01 0 0 0-1.12-.02l.4-.68a5.75 5.75 0 0 0 .34-.24c.1-.08.24-.05.38-.05a331.66 331.66 0 0 0 1.12.02l-.39.68a6.31 6.31 0 0 0-.34.24c-.1.08-.25.05-.4.05ZM10.46 10.84a328.87 328.87 0 0 0-1.11-.02l.39-.68a6.12 6.12 0 0 0 .34-.24c.1-.08.25-.05.39-.05a457.91 457.91 0 0 0 1.11.02l-.39.68a6 6 0 0 0-.34.24c-.1.08-.25.05-.39.05Z" fill="#fff"/><path d="m12.06 10.7-.01-.02a.08.08 0 0 1-.02-.06c.03-.28.24-.1.32-.28a.14.14 0 0 1 .05-.05.11.11 0 0 1 .07-.02h.2c.03 0 .05 0 .07.03.02.02.03.05.03.08v.06l.01.05c.1.1.07.21 0 .33a.6.6 0 0 0-.05.15c-.05.23-.18.36-.39.39a.15.15 0 0 0-.1.07l-.08.1a.05.05 0 0 1-.04.03h-.17c-.09.01-.14 0-.16-.12a.07.07 0 0 0-.02-.04l-.06-.06c-.02-.01-.02-.03-.02-.05.03-.12.09-.19.18-.21.02 0 .03-.01.04-.03.07-.09.12-.2.16-.31l-.01-.04Z"/><path d="M12.1 11.34v-.03h-.06l-.02.03-.04.08c-.01.03-.03.04-.05.04h-.03c-.02 0-.03-.01-.02-.04l.04-.07c.02-.04 0-.05-.02-.05h-.09c-.02 0-.03-.01-.03-.04l.03-.05c.06-.07.14-.04.18-.12a5.3 5.3 0 0 1 .21-.42v-.02a.06.06 0 0 0-.05-.02c-.02 0-.03 0-.03-.03 0-.05.02-.07.05-.07l.15-.01c.01 0 .02 0 .03-.02.05-.04.05-.14.13-.15h.01l.01.02a.04.04 0 0 1 0 .03l-.02.06v.05c.03 0 .05 0 .06-.02a.6.6 0 0 0 .05-.1c0-.02.02-.04.05-.03h.01c.02 0 .03.02.02.04l-.02.09c0 .03 0 .04.03.05.04.01.07.03.1.07v.05a.45.45 0 0 1-.13.17l-.02.03v.04c.08.23-.24.38-.37.4l-.04.01a.34.34 0 0 0-.07.12l-.02.02-.03.01h-.03l-.01-.01v-.03l.04-.08Z" fill="#FDC172"/><defs><linearGradient id="a" x1="5.81" y1="5.27" x2="12.63" y2="12.27" gradientUnits="userSpaceOnUse"><stop stop-color="#AD162D"/><stop offset=".22" stop-color="#D32620"/><stop offset=".82" stop-color="#D32A23"/><stop offset="1" stop-color="#D8513F"/></linearGradient></defs></svg>