<!-- by TradingView --><svg width="18" height="18" viewBox="0 0 18 18" xmlns="http://www.w3.org/2000/svg"><path fill="#F0F3FA" d="M0 0h18v18H0z"/><path d="m10.5 6.71-.9.86a1.9 1.9 0 0 0-1.95-1.43c-1.32 0-1.75.96-1.8 1.43H5.7c-1.2 0-1.5.76-1.5 1.14 0 1.15.8 1.43 1.2 1.43 0 .29.18.86.9.86s.9-.57.9-.86V9.3h1.2v1.14c0 .71-1.05 1.71-2.1 1.71-.84 0-1.55-.76-1.8-1.14C4 10.9 3 10.31 3 8.71s1.4-2.19 2.1-2.28C5.3 5.95 6.09 5 7.65 5a3.36 3.36 0 0 1 2.85 1.71Z" fill="url(#a)"/><path d="M9.6 7.57v1.14h1.2v-.85c0-.29.18-.86.9-.86s.9.57.9.86c.4 0 1.2.28 1.2 1.43 0 .38-.3 1.14-1.5 1.14h-.15c-.05.47-.48 1.43-1.8 1.43a1.9 1.9 0 0 1-1.95-1.43c0 .37-.28.82-.7 1.16.43.6 1.34 1.41 2.65 1.41 1.56 0 2.35-.95 2.55-1.43.7-.1 2.1-.68 2.1-2.28 0-1.6-1-2.2-1.5-2.29-.25-.38-.96-1.14-1.8-1.14-1.05 0-2.1 1-2.1 1.7Z" fill="url(#b)"/><path d="M8.4 10.43H7.2V7.86c0-.43.45-.57.75-.57.24 0 .6.14.75.42l.9 1.15v-1h1.2v2.28c0 .29-.3.57-.75.57-.36 0-.75-.38-.9-.57L8.4 9.3v1.14Z" fill="#7700F6"/><defs><linearGradient id="a" x1="9.3" y1="5.57" x2="5.09" y2="11.77" gradientUnits="userSpaceOnUse"><stop stop-color="#A79EC2"/><stop offset=".61" stop-color="#7700F6"/><stop offset="1" stop-color="#7A24F5"/></linearGradient><linearGradient id="b" x1="8.25" y1="11.43" x2="13.27" y2="6.76" gradientUnits="userSpaceOnUse"><stop stop-color="#A79EC2"/><stop offset=".61" stop-color="#7700F6"/><stop offset="1" stop-color="#7A24F5"/></linearGradient></defs></svg>