<!-- by TradingView --><svg width="18" height="18" viewBox="0 0 18 18" xmlns="http://www.w3.org/2000/svg"><path fill="#F0F3FA" d="M0 0h18v18H0z"/><path fill-rule="evenodd" d="M9 15A6 6 0 1 0 9 3a6 6 0 0 0 0 12Zm0-.67A5.33 5.33 0 1 0 9 3.67a5.33 5.33 0 0 0 0 10.66Z" fill="url(#a)"/><path d="M13.15 6.22c-.47.14-.87.37-1.19.71l-.38-.23-.04-.09a.28.28 0 0 0-.18-.21c-.1-.1-.14-.22-.25-.31a3.94 3.94 0 0 1-.28-.28.64.64 0 0 0-.41-.2c-2.69-.48.15-1.5-2.74.03a.07.07 0 0 0-.04.07c0 .05.03.09.06.13-.14-.05-.24-.03-.29.06a.59.59 0 0 0-.22.11.09.09 0 0 1-.08.02.3.3 0 0 1-.15-.12l-.28-.5a.06.06 0 0 0-.08-.04l-.02.02-.4.4c-.1.09.1-1.07.97-1.42a4.97 4.97 0 0 1 6 1.85Z" fill="#F3E3EF"/><path d="M9.52 5.2c-.3-.03-.57.02-.81.15-.03.02-.04.01-.03-.02 0-.02.02-.03.03-.04.04-.02.04-.04 0-.06a.29.29 0 0 0-.03-.01c-.02-.01-.05 0-.07.01a.4.4 0 0 1-.32.1c.14-.51.5-.75 1.07-.72.03 0 .06.02.09.04l.17.18c.04.03.03.06-.02.06l-.65.09a.06.06 0 0 0-.05.05v.05l.04.02h.67c.04 0 .05.02.03.05-.02.03-.06.05-.12.06Z" fill="#D4C7D6"/><path d="M9.84 5.64c-.11.08-.21.19-.3.32-.01.03-.03.03-.06.02l-.09-.06a.07.07 0 0 1-.02-.1l.03-.03.25-.09c.05-.01.05-.04.02-.07l-.11-.1.2-.05c.02 0 .03-.02.01-.04l-.05-.09c-.03-.04-.02-.08.03-.1.13-.06.25-.07.36-.01.04.02.04.03-.01.04a78.32 78.32 0 0 1-.26.05l-.01.03a.06.06 0 0 0 .04.06l.07.02c.04.01.04.03 0 .05a.28.28 0 0 0-.1.15Z" fill="#A8CAD6"/><path d="M10.42 5.6c.47.63.52.76.15.38l-.24-.23-.28-.1a.62.62 0 0 1 .37-.05Z" fill="#897FA2"/><path d="M11.36 6.4c0 .11.06.18.18.21l.04.09v.06c.04.1.15.13.18.27.06.27.16.52.22.8-.16.05-.31.12-.46.2-.15.07-.27.1-.35.08a.6.6 0 0 1-.32-.23l-.26-.66c-.07-.18-.67-.36-.17-.46.32-.11.41-.15.33-.38-.04-.13-.15-.24-.18-.4.37.38.32.25-.15-.38.16.02.3.1.4.21l.29.28c.1.1.15.2.25.3Z" fill="#A8CAD6"/><path d="m10.04 5.65.3.1c-.16.1-.2.22-.16.37.05.14.26.29.25.51 0 .04 0 .07.03.1a5.69 5.69 0 0 1 .06 1.37h-.04c-.03-.01-.05-.03-.05-.06.02-.75-.04-.84-.14-.03a.1.1 0 0 1-.03.07c-.03.02 0 .2 0 .24.02.24-1.05.96-1.22.7a.13.13 0 0 1-.02-.1c0-.03 0-.05-.03-.07a.72.72 0 0 0-.28-.17c-.03 0-.04-.02-.02-.05l.06-.06c.05.03.13 0 .22-.1.3-.32.77-.66-.04-.06H8.9l-.02-.03c-.03-.02-.03-.04 0-.07a.58.58 0 0 0 .16-.3.6.6 0 0 1-.02-.21c.1-.3.14-.57.16-.8.02-.3-.02-.3-.1-.02-.13.42-.1.18-.33.7-.12.29-.36.55-.53.8l-.08.13-.08-.08c-.02-.02-.03-.02-.05 0l-.21.2a.1.1 0 0 0-.03.07c0 .06.02.11.06.15l-.13.15h-.05c-.04-.08-.3.14-.26.07.02-.05-.6-.08-.86-.4a.8.8 0 0 1-.17-.45c0-.05.01-.1.04-.14a.28.28 0 0 1 .11-.1c.08-.04.11-.1.12-.18 0-.04.01-.07.03-.1.1-.14.29-.36.48-.33.13.02.15-.01.08-.11-.04-.05-.03-.09.01-.13.05-.05.1-.06.16-.05.03.01.05 0 .06-.03l.14-.24c-.01-.06 0-.12.04-.17.02-.03.04-.05.07-.05.02 0 .04 0 .06.03.02.02.04.03.07.02l.11-.04H8l.42.2a.08.08 0 0 0 .08 0 .5.5 0 0 0 .19-.2.1.1 0 0 1 .07-.06c.11-.02.2-.02.25-.01.03 0 .05 0 .07-.03.08-.1.1-.16.06-.2-.03-.04-.03-.08.01-.1.04-.03.08-.03.13-.02.05.12.01.21-.1.26-.02.01-.03.02-.01.03l.03.04h.04l.52-.52c.03-.03.06-.03.08.01.04.06.06.13.07.22 0 .02.01.03.03.01l.03-.03a.05.05 0 0 0 .01-.04c-.02-.16-.06-.31-.13-.45a.23.23 0 0 0 .05-.1c.09-.08.14-.1.15-.06Z" fill="#B9C9D6"/><path d="M7.58 6.14c-.07-.06-.1 0-.1.14 0 .03.03.04.08.03a.43.43 0 0 1-.24.07.32.32 0 0 0-.08-.18A.11.11 0 0 1 7.3 6c.04 0 .08-.04.11-.1.05-.1.15-.12.3-.07a.8.8 0 0 0 .24-.1c.02-.02.04-.02.05 0l.01.02v.02c-.16.1-.3.21-.43.36Z" fill="#D4C7D6"/><path d="m10.33 5.75.24.23c.03.16.14.27.18.4.08.23.2.44-.12.56l-.17-.22a.12.12 0 0 1-.03-.09c.01-.22-.2-.37-.25-.51-.05-.15 0-.28.15-.37Z" fill="#F3E3EF"/><path d="M9.84 5.81c.07.14.11.29.13.45v.04l-.04.03c-.02.02-.02.01-.03 0a.52.52 0 0 0-.07-.23c-.02-.04-.05-.04-.08 0l-.52.51h-.04l-.03-.04c-.02 0-.01-.02 0-.03.12-.05.16-.14.1-.26.14-.07.25-.09.35-.2l.23-.27ZM6.96 5.9c.04.07.09.1.15.13.03 0 .06 0 .08-.02a.59.59 0 0 1 .22-.1c-.03.06-.07.1-.11.1a.11.11 0 0 0-.08.08.11.11 0 0 0 .02.1c.04.06.07.12.08.2-.08.02-.14.06-.17.11a.07.07 0 0 0 .02.09c.07.08.15.1.24.05.04-.03.06-.02.04.03l-.06.16v.03l.04.04c.03.02.08.02.16 0l-.14.25c-.01.03-.03.04-.06.03-.06-.01-.11 0-.15.05-.07 0-.11-.03-.12-.1a.78.78 0 0 0-.25-.17.94.94 0 0 0 .13-.5c.01-.17.01-.3-.02-.4-.03-.06-.04-.12-.02-.15Z" fill="#6881B9"/><path d="M7 6.46a.72.72 0 0 0-.62.38c-.02.04-.04.04-.07.01 0-.01-.01-.03 0-.07l-.02-.05c-.02-.03-.05-.04-.1-.04a.08.08 0 0 1-.07-.05.24.24 0 0 0-.07-.12c-.04-.03-.06-.02-.07.03v.06a.6.6 0 0 1-.04-.41.04.04 0 0 1 .03-.03.04.04 0 0 1 .03 0c.11.08.19.18.23.28a.09.09 0 0 0 .06.05.08.08 0 0 0 .08-.03c.17-.17.37-.3.61-.4.03.08.03.22.02.4Z" fill="#A8CAD6"/><path d="M7 6.46c0 .18-.04.34-.13.5a.35.35 0 0 1-.17-.05c-.15-.07-.24-.02-.28.15-.07.31-.1.56-.06.75.02.13.07.14.15.03.08-.12.15-.3.2-.56 0-.04.03-.05.06-.03.05.03.1.03.14-.02a.08.08 0 0 1 .08-.03c.08.02.12 0 .13-.07 0 .07.05.1.12.1-.05.04-.06.08-.02.13.07.1.05.13-.08.11-.2-.03-.37.19-.48.34a.18.18 0 0 0-.03.09c0 .08-.04.14-.12.18a.28.28 0 0 0-.11.1.24.24 0 0 0-.04.14c0 .02.83 1.1 1.12.66a.55.55 0 0 1 .13-.13c.04-.03.05-.02.03.02a.24.24 0 0 0 0 .23l-.08.22c0 .01-.01.02-.03.02h-.02a.05.05 0 0 1-.02-.04.25.25 0 0 0-.05-.11.04.04 0 0 0-.06 0 .6.6 0 0 0-.09.43c.02.08-.3-.04.27.88-.07-.02-.12 0-.14.05 0 .04 0 .05.04.06h.03c.02 0 .04.02.06.04.18.25.26.54.24.86a.86.86 0 0 0-.2-.25c-.08-.07-.1-.05-.08.05l-.02.06c-.02.03-.05.03-.07 0l-.1-.15a.1.1 0 0 0-.04-.03.1.1 0 0 0-.04-.02c-.02 0-.03 0-.04.02a.07.07 0 0 0-.03.03c-.01.02-.04.02-.08 0-.39-.29-.5-.67-.62-1.14-.03-.14-.05-.14-.07 0-.04.43.1.8.4 1.12.04.03.07.07.08.1.04.09.02.13-.06.14a.3.3 0 0 1-.07.15c-.15.14-.23.18-.24.12.1-.15.12-.3.05-.4-.02-.05-.04-.05-.05 0-.03.06-.06.1-.1.1-.03.01-.06 0-.08-.03-.14-.24-.15-.44-.03-.6a.1.1 0 0 0 .02-.1 1.35 1.35 0 0 0-.1-.27c-.15-.19-.11-.45-.1-.61 0-.03.01-.05.05-.05.45-.06.04.15.42-.17l.15-.22a.1.1 0 0 0-.04-.15c-.32-.13-.27-.28-.55-.31-.03 0-.05-.02-.05-.04l-.05-.25c0-.06-.02-.06-.04 0l-.04.3v-.37c0-.04 0-.05.04-.06l.08-.01a.07.07 0 0 0 .06-.07l.02-.44c.08-.34-.03-.65-.05-.98 0-.04-.02-.06-.05-.07l-.26-.04.03-.02c.13-.05.18-.13.14-.24v-.06c0-.05.03-.06.07-.03.11.11.18.23.26.33.03.03.05.03.07 0A.72.72 0 0 1 7 6.45ZM11.58 6.7l.38.23-.05.1c-.02.04-.01.06.02.08.11.1.22.11.28.28l.02.11h-.06c-.02-.15-.08-.25-.2-.3a.05.05 0 0 0-.05 0 .05.05 0 0 0-.02.06c.04.12.1.23.16.35l.03.03h.06c0 .04.02.06.05.07-.02.07 0 .08.08.04.05-.03.08-.09.13-.12a.1.1 0 0 1 .09-.01c.07.02.14.02.2 0 .02.05.01.1-.01.15-.17.04-.26.14-.26.29a.14.14 0 0 1-.06.12.16.16 0 0 1-.14.02c-.03-.01-.05 0-.07.04a.13.13 0 0 0 0 .1v.04c0 .06-.02.07-.06.03a9.42 9.42 0 0 0-.12-.59c-.06-.27-.15-.52-.22-.79-.03-.14-.14-.17-.18-.27V6.7Z" fill="#897FA2"/><path d="M9.02 7.8a.45.45 0 0 1 .04-.34v-.02L9 7.4H9l-.5.87a.02.02 0 0 0 .02.02l.29-.01a.14.14 0 0 0 .1-.05.12.12 0 0 0 .03-.1c-.02-.08.02-.12.1-.13a.58.58 0 0 1-.15.3c-.03.03-.03.05 0 .07l.02.02h.03a.79.79 0 0 0 .3-.45l.03-.03.03-.02.03.01c.03.01.04.03.04.05a.4.4 0 0 1-.1.25.09.09 0 0 0-.02.08v.11a.06.06 0 0 1-.07.04c-.09-.03-.16-.02-.2.02-.1.1-.17.14-.22.1a.3.3 0 0 0 .08-.07c.02-.03 0-.05-.03-.06a.96.96 0 0 0-.58.06c.17-.26.41-.52.53-.8l.18-.37.05-.15c.06-.1.1-.17.1-.2.08-.28.12-.27.1.03-.02.23-.07.5-.16.8Z" fill="#9E9E9E"/><path d="M12.7 7.61a.31.31 0 0 1-.2.01.1.1 0 0 0-.1.01c-.04.03-.07.09-.13.12-.07.04-.1.03-.07-.04.07-.03.07-.1.03-.2l-.02-.12a.53.53 0 0 0 0-.52c-.03-.03-.02-.04.02-.03.06.02.1.05.1.11.07.23.11.35.14.38l.24.28Z" fill="#D4C7D6"/><path d="m5.84 6.85-.03.02c.03.44-.04.85-.21 1.24-.06-.16-.12-.25-.2-.26l-.02-.59a.05.05 0 0 1 .04-.05l.05-.02c.02 0 .02-.02.01-.03A.43.43 0 0 1 5.43 7c-.01-.03-.03-.04-.06-.03a.24.24 0 0 0-.07.05c-.02-.06 0-.1.09-.13.07-.02.22-.04.45-.05Z" fill="#AAA2BC"/><path d="m5.81 6.87.26.04c.03.01.05.03.05.07.02.33.13.64.05.98L6.14 8c-.01.02-.03.03-.05 0-.03-.01-.04-.04-.04-.08a1.87 1.87 0 0 0-.1-.71s0-.02-.02-.02h-.02v.03c0 .13.01.28-.03.4-.12.3-.2.6-.24.9l-.06.5v.02l-.04.01h-.01c-.05-.32-.06-.52-.01-.61a.7.7 0 0 0 .08-.32c.17-.4.24-.8.21-1.24Z" fill="#4E4A71"/><path d="M6.87 6.96c.1.05.18.1.25.17 0 .07-.05.09-.13.07-.03 0-.06 0-.08.03-.04.05-.09.05-.14.02-.03-.02-.06-.01-.06.03-.05.26-.12.44-.2.56-.08.1-.13.1-.15-.03-.03-.2-.01-.44.06-.75.04-.17.13-.22.28-.15.07.04.13.06.17.05Z" fill="#B9C9D6"/><path d="m5.4 7.85-.2 1.4c-.01.02-.02.03-.05.04a.2.2 0 0 1-.1.02C5 9.3 5 9.28 5 9.24c.04-.19.11-.36.23-.52a.1.1 0 0 0 .02-.04v-.03c0-.02-.01-.03-.02-.03L5.2 8.6h-.02a6.38 6.38 0 0 0 .06-1.31c0-.1.01-.19.06-.26a.24.24 0 0 1 .07-.05c.03-.01.05 0 .06.03 0 .05.03.1.05.15v.03l-.06.02a.06.06 0 0 0-.04.05l.02.59Z" fill="#6D4D69"/><path d="m6.17 7.96-.02.44a.07.07 0 0 1-.06.07l-.08.01c-.03 0-.05.02-.05.06l.01.37c-.25-.06-.21.06.13.37-.3-.14-.45-.4-.46-.77.05-.3.12-.6.24-.9a.92.92 0 0 0 .02-.4v-.02h.03l.03.01.02.03c.07.25.1.48.07.68 0 .04.01.07.04.09.02.02.04.01.05 0l.03-.04Z" fill="#6881B9"/><path d="M10.85 7.88c.04.13.03.22-.04.26a.1.1 0 0 1-.04-.07l.02-.06c.04-.07.03-.12-.03-.17-.04-.03-.06-.02-.08.02l-.17.4a.09.09 0 0 1-.07.06h-.03a.13.13 0 0 0-.08.07l-.15.26a2.5 2.5 0 0 0-.12.27c-.1.25-.3.4-.58.47-.06.01-.06 0 0-.03l.31-.22a.27.27 0 0 0 .07-.07.35.35 0 0 1 .07-.07.18.18 0 0 0 .05-.07l.2-.5c.04-.05.05-.14.04-.28 0-.02.01-.05.04-.07a.1.1 0 0 0 .03-.07l.07-.57a.04.04 0 0 1 .03-.03h.02c.02 0 .03.01.04.03v.03l-.02.57c0 .03.02.05.05.05h.04l.02-.01v-.82l.02-.05h.03l.26.67Z" fill="#A97587"/><path d="M9.02 7.8c0 .05 0 .12.02.2-.1.02-.13.06-.11.13a.12.12 0 0 1-.03.1.14.14 0 0 1-.1.06l-.29.01a.02.02 0 0 1-.02-.01v-.01l.5-.86H9l.05.02v.02a.45.45 0 0 0-.04.34Z" fill="#F9D5D1"/><path d="M12.69 7.77c-.03.16.04.34.2.55.01.02.01.05-.01.07-.06.06-.06.12-.01.18.02.03.02.05.01.09a.1.1 0 0 1-.02.03.09.09 0 0 0-.02.07c0 .1-.01.18-.05.25a.43.43 0 0 0-.27-.27c-.05-.01-.06-.04-.03-.09l.02-.03.02-.03h.03l.17.02a.03.03 0 0 0 .02-.02.03.03 0 0 0 0-.03.4.4 0 0 0-.25-.14c-.04 0-.06 0-.06.04l-.01.08c0 .06-.03.07-.06.03-.02-.02-.03-.07-.04-.15 0-.04-.02-.05-.06-.04-.06.03-.09.09-.07.17-.2-.04-.25.15-.35.27-.02.03-.05.03-.07 0-.1-.17-.15-.27-.18-.3-.03-.02-.05-.01-.05.03-.01.22.01.42.06.6.1.28.06.57-.1.86a.73.73 0 0 1-.54.39c-.06.02-.1.02-.12 0-.03-.02-.03-.04 0-.06.17-.08.29-.24.37-.47a3.04 3.04 0 0 0 .21-.97h-.03s-.02 0-.02.02a1 1 0 0 1-.15.38.05.05 0 0 1-.05.02.05.05 0 0 1-.04-.05V8.4c0-.03-.02-.04-.04-.03-.03.02-.04.07-.05.15-.04-.02-.07-.03-.09-.02 0-.18-.03-.28-.12-.3a.1.1 0 0 1-.03-.05c.07-.04.08-.13.04-.26.1.13.21.2.32.23.08.02.2-.01.35-.09.15-.07.3-.14.47-.2a9.6 9.6 0 0 1 .11.6c.04.03.06.02.06-.04v-.05c-.02-.03-.02-.06 0-.09.02-.04.04-.05.07-.04a.16.16 0 0 0 .14-.02.14.14 0 0 0 .06-.12c0-.15.09-.25.26-.29Z" fill="#C5C4D1"/><path d="m10.81 8.14.03.04c.01.14.03.23.05.27.01.04.04.05.07.04.02-.01.05 0 .09.02 0 .05-.02.08-.05.12l-.01.05c-.01.04-.03.05-.07.04l-.38-.13h-.03l-.03.03a.02.02 0 0 0 0 .02v.01c.18.12.37.19.56.23.06.16.08.33.05.52a.9.9 0 0 0-.7-.22c-.12.01-.18.1-.28.16-.02.01-.02.03 0 .04l.04.02c.02.01.03.03.02.06-.04.14-.1.3-.06.38.02.04.04.04.04 0a.37.37 0 0 1 .08-.18c.05.1.14.15.25.14a.05.05 0 0 1 .05.06v.05l-.02.04a.08.08 0 0 1-.04.03.27.27 0 0 1-.24-.05c-.05-.03-.06-.03-.02.03a.2.2 0 0 0 .07.06c.09.08.2.1.34.04-.02-.1.01-.2.1-.3a.16.16 0 0 0 .05-.08l.04-.26.16.22c-.18.22-.22.36-.1.44l-.28.64c-.26.28-.56.48-.9.6l-.35.16c-.29.06-.71-.3-.94-.46a.54.54 0 0 0-.25-.25.8.8 0 0 1-.3-.42c-.02-.02-.06-.04-.11-.03a.09.09 0 0 1-.08-.04.28.28 0 0 1-.04-.2c0-.03.02-.04.05-.01l.23.24h.04l.01-.03-.01-.05c-.1-.13-.19-.21-.27-.24-.02 0-.02-.01-.01-.03l.01-.02a.1.1 0 0 1 .07-.03l.25-.04c.07.12.15.15.24.08.04-.02.03-.04 0-.06a.63.63 0 0 1-.32-.25.12.12 0 0 1-.02-.1l.05-.22a.37.37 0 0 1 .2-.3h.03l.01.03a.36.36 0 0 0-.07.36.04.04 0 0 0 .03.03h.03c.05 0 .06 0 .06-.05v-.11c.03-.04.05-.04.08 0l.08.12c.02.04.05.05.08.03.06-.02.09.01.1.08a.09.09 0 0 1-.05.1H8.5c-.11.01-.21 0-.3-.04-.05-.01-.06 0-.04.04 0 .02.01.03.03.04.01.02.04.03.07.03l.26-.01a.1.1 0 0 0 .08-.05l.1-.28c.03-.13.09-.18.19-.17 0 .04.02.06.04.07.02.01.04 0 .05-.02.02-.12-.03-.22-.17-.3a.63.63 0 0 0-.22-.2.15.15 0 0 0-.1-.02l-.23.03c-.03 0-.06-.01-.08-.04a.24.24 0 0 1-.03-.08l.08-.12c.19-.08.38-.1.58-.06.04 0 .05.03.03.06a.3.3 0 0 1-.08.08l-.06.06c-.02.03-.01.04.02.05.09.02.18.08.28.17.02.02.03.04.03.08 0 .02 0 .05.02.08s.04.04.08.04c.16-.02.3-.09.42-.2.08-.07.18-.08.25-.11a.16.16 0 0 0 .07-.06l.07-.13c.04-.07.05-.07.04 0v.03h.01c.05-.12.11-.17.2-.14l-.2.5a.18.18 0 0 1-.05.06.35.35 0 0 0-.07.07.27.27 0 0 1-.07.07l-.32.22c-.05.03-.05.04.02.03a.77.77 0 0 0 .57-.47 2.5 2.5 0 0 1 .27-.53.13.13 0 0 1 .08-.06l.03-.01c.03 0 .06-.02.07-.06l.17-.4c.02-.04.04-.05.08-.02.06.05.07.1.03.17l-.02.06c0 .03.02.05.04.07Z" fill="#F9D5D1"/><path d="M5.6 8.11c0 .1-.03.2-.08.32-.05.09-.04.29.01.6v.01l.04-.01.01-.01.06-.51c.01.37.16.63.46.77l.49.3a.31.31 0 0 0-.12.2c0 .01 0 .03-.02.03l-.04.01v-.01a.1.1 0 0 0-.02-.05.06.06 0 0 0-.06-.04l-.16.03c-.04 0-.05.02-.05.05-.01.16-.05.42.1.61l.1.28a.1.1 0 0 1-.02.1c-.12.15-.11.35.03.59.02.03.05.04.08.04.04-.01.07-.05.1-.11.01-.05.03-.05.05 0 .07.1.05.25-.05.4l-.14-.2c-.02-.02-.05-.02-.08 0l-.22.14c-.05.03-.06.01-.03-.04a.9.9 0 0 1 .13-.13.11.11 0 0 0 .04-.08c0-.05-.02-.09-.07-.12a.14.14 0 0 1-.06-.08c-.06-.2-.65-2.06-.88-1.94l.2-1.41c.08 0 .14.1.2.26Z" fill="#B9C9D6"/><path d="M11.22 9.87c-.03-.13-.15-.06-.36.21-.1-.08-.07-.22.11-.44.04.09.1.11.22.07.03 0 .04-.02.05-.05 0-.04-.01-.06-.05-.05-.04 0-.06 0-.08-.03v-.06c.02 0 .02-.01.02-.02a.06.06 0 0 0 0-.06c0-.02-.02-.04-.04-.04.03-.19 0-.36-.05-.52 0-.1 0-.18-.04-.25a.23.23 0 0 0 .05-.12c0-.08.02-.13.05-.15.03-.01.04 0 .04.03v.88a.05.05 0 0 0 .04.05.05.05 0 0 0 .05-.02 1 1 0 0 0 .15-.38c0-.02.01-.02.02-.02h.03l.01.01c-.02.34-.1.65-.22.96Z" fill="#A97587"/><path d="m12.79 9-.07.16c-.02.04-.04.04-.06 0l-.03-.04-.11-.08a.18.18 0 0 1-.06-.08 1.33 1.33 0 0 0-.26-.4c-.02-.09 0-.15.07-.18.04-.01.06 0 .06.04 0 .08.02.13.04.15.03.04.05.03.06-.03l.01-.08c0-.03.02-.05.06-.04.1.01.18.06.25.14v.02a.03.03 0 0 1-.02.03l-.17-.02h-.03a.06.06 0 0 0-.02.03l-.02.03c-.03.05-.02.08.03.1.12.03.21.12.27.26Z" fill="#897FA2"/><path d="M8.14 8.6c0 .04.02.06.03.09.02.03.05.04.08.04l.23-.03.1.01c.1.06.17.12.22.2a.85.85 0 0 0-.75-.05c-.01-.07 0-.13.01-.16.05-.1.02-.12-.06-.06-.1.06-.12.15-.09.28a.19.19 0 0 0-.07.03.19.19 0 0 1-.07-.15.1.1 0 0 1 .03-.06l.2-.21c.03-.02.04-.02.06 0l.08.08Z" fill="#B97375"/><path d="M12.2 8.55c.11.12.2.26.26.41.01.03.03.06.06.08l.1.08c-.05 0-.08.05-.06.12 0 .04.02.07.05.11.08.1.15.22.2.34-.04.03-.1.04-.18.03-.03 0-.05 0-.07.02l-.14.14h-.04l-.03-.03a.05.05 0 0 1 0-.07.65.65 0 0 0 .05-.07c.04-.1.02-.12-.08-.07-.12.06-.16.16-.14.3l-.01-.32-.02-.04-.04-.03c-.02-.03-.03-.02-.03 0l-.03.35-.18.24-.01.01-.02.01h-.04c-.02 0-.04-.02-.03-.05l.06-.53-.01-.01h-.05c-.13.55-.36.73-.69 1.06l-.1-.23a.72.72 0 0 0 .53-.4c.16-.28.2-.57.1-.86a1.82 1.82 0 0 1-.06-.6c0-.03.02-.04.05-.01.03.02.09.12.18.29.02.03.05.03.07 0 .1-.12.16-.3.35-.27Z" fill="#AAA2BC"/><path d="m6.59 9.58-.49-.3c-.34-.3-.38-.43-.13-.37 0-.12.02-.22.04-.3.02-.06.03-.06.04 0l.05.25c0 .02.02.04.05.04a7.88 7.88 0 0 0 .19.03v.01l-.01.01c-.01 0-.02.01-.02.03l.02.01c.27 0 .21.16.37.22a.1.1 0 0 1 .06.11.1.1 0 0 1-.02.04l-.15.22Z" fill="#F9D5D1"/><path d="M11 8.63c.03.07.05.16.04.25a1.62 1.62 0 0 1-.56-.23.02.02 0 0 1 0-.02l.03-.04h.03l.38.13c.04 0 .06 0 .07-.04v-.05Z" fill="#D9B8BD"/><path d="M8.8 8.91c.14.09.2.19.17.3-.01.03-.03.04-.05.03-.02 0-.04-.03-.04-.07-.05-.1-.15-.15-.31-.13l-.05-.03-.34.04-.01-.03h-.03a.37.37 0 0 0-.2.3c-.03.04-.06.04-.09 0a.46.46 0 0 0-.15-.22l.14-.15a.19.19 0 0 1 .07-.03l.14-.06c.27-.1.52-.08.75.05Z" fill="#481A22"/><path d="M8.52 9.01c-.1.03-.1.08 0 .14.03.02.05.02.06-.02l-.01-.09c.16-.02.26.02.3.13-.09-.01-.15.04-.19.17l-.09.28a.1.1 0 0 1-.08.05 6.34 6.34 0 0 1-.33-.02.12.12 0 0 1-.03-.04c-.02-.04-.01-.05.03-.04.1.04.2.05.3.05a.09.09 0 0 0 .09-.1c-.01-.08-.04-.1-.1-.09-.03.02-.06 0-.08-.03l-.08-.13c-.03-.03-.05-.03-.07 0-.02.03-.02.07-.01.12 0 .04-.01.06-.06.05h-.03a.04.04 0 0 1-.03-.03.36.36 0 0 1 .07-.36L8.52 9Z" fill="#84555D"/><path d="m8.52 9.01.05.03v.09c0 .04-.02.04-.06.02-.09-.06-.09-.1.01-.14Z" fill="#AAA2BC"/><path d="M7.7 9.1c.08.06.13.14.16.22a.8.8 0 0 0-.05.29c0 .03.02.06.04.08a.5.5 0 0 1 .14.18l-.25.04a.09.09 0 0 0-.07.03l-.01.02V10c.1.03.18.11.28.24.01.02.02.04.01.05l-.01.03H7.9l-.23-.24c-.03-.03-.05-.02-.05.02-.01.08 0 .14.04.19.02.02.04.04.08.04.05 0 .09 0 .12.03a.1.1 0 0 0-.06 0 .04.04 0 0 0-.03.02.05.05 0 0 0 0 .04l.34.71c-.03.15-.01.31.05.48a.18.18 0 0 1-.05.04c-.04.01-.06 0-.08-.03a.26.26 0 0 1-.04-.18c.01-.04 0-.07-.01-.1l-.42-.83-.52-.85c-.03-.04-.1-.03-.22.04-.07-.02-.09-.06-.07-.14 0-.03.06-.1.15-.24.04-.04.06-.04.08.02L7 9.4c.02.04.04.05.07.01a.1.1 0 0 1 .04-.02c.03-.02.05 0 .05.03 0 .09.03.16.09.2.04.04.05.04.04-.01a.6.6 0 0 1 .1-.44.04.04 0 0 1 .05.01c.02.02.04.06.05.11 0 .01 0 .03.02.03l.02.01c.02 0 .03 0 .03-.02l.09-.22h.05Z" fill="#D4C7D6"/><path d="m11.1 9.4.04.04v.06l-.02.02c-.02.02-.02.04 0 .06.01.02.03.03.07.03.04 0 .05.01.05.05 0 .03-.02.05-.05.05-.11.04-.18.02-.22-.07l-.16-.22a.48.48 0 0 0-.45-.03.23.23 0 0 0-.13.27.37.37 0 0 0-.08.17c0 .05-.02.05-.04.01-.05-.07.02-.24.06-.38 0-.03 0-.05-.02-.06l-.04-.02c-.02-.01-.02-.03 0-.04.1-.06.16-.15.28-.16a.9.9 0 0 1 .7.22Z" fill="#481A22"/><path d="M5.88 10.07c-.04-.01-.07 0-.08.01-.01.05-.07.08-.17.08-.15.1-.4.26-.57.24a.06.06 0 0 1-.05-.04.06.06 0 0 1 0-.06.37.37 0 0 0 .08-.3 5.13 5.13 0 0 0-.11-.53L5 9.44c.01-.02.02-.02.03.01l.09.47a.1.1 0 0 0 .07.08.1.1 0 0 0 .1-.03c.15-.18 0-.45-.06-.64-.01-.03-.04-.04-.08-.04.03 0 .04-.02.05-.03.18-.09.3-.04.39.15 0 .01 0 .02-.02.02h-.03c-.02-.1-.08-.14-.18-.14a.07.07 0 0 0-.07.08v.03c.1.13.14.25.15.39 0 .04.03.06.07.05.04 0 .1 0 .16.02a.1.1 0 0 0 .1-.01l.04-.12a.08.08 0 0 1 .06-.06h.03a.04.04 0 0 1 .03.03l.04.34c0 .03 0 .05-.04.05-.02 0-.04 0-.05-.02Z" fill="#897FA2"/><path d="m7.94 9.32-.05.23c0 .03 0 .06.02.09.07.12.18.2.31.25.04.02.05.04.01.06-.1.07-.17.04-.24-.08a.5.5 0 0 0-.14-.18.11.11 0 0 1-.04-.08c0-.1.01-.19.05-.29.02.04.05.04.08 0Z" fill="#9E9E9E"/><path d="m10.81 9.42-.04.26-.05.08c-.1.1-.12.2-.1.3-.06-.09-.17-.1-.34-.04a.2.2 0 0 1-.07-.06c-.04-.06-.03-.06.02-.03.08.05.16.07.24.05.02 0 .03-.02.04-.03a.08.08 0 0 0 .02-.04v-.07a.05.05 0 0 0-.03-.03h-.02c-.11 0-.2-.05-.25-.15a.23.23 0 0 1 .13-.27c.16-.07.3-.06.45.03Z" fill="#6D4D69"/><path d="M12.05 9.9c.08.3.08.58 0 .82-.06.01-.1.03-.11.06-.02-.03-.06-.05-.11-.04-.04 0-.06-.01-.07-.02a.15.15 0 0 1-.01-.08c-.15.16-.27.23-.38.22-.09 0-.09-.03-.02-.08.12-.07.19-.14.2-.21.01-.07 0-.07-.05-.03-.25.26-.5.45-.77.57h-.04l-.02-.02v-.04l.41-.42c.33-.33.56-.51.69-1.05 0-.01 0-.02.02-.02h.03l.01.02-.06.53c0 .03 0 .04.03.05h.06l.01-.02.18-.24Z" fill="#C5C4D1"/><path d="m12.18 9.95.06.35c.05.17.02.32-.09.43-.03.03-.07.03-.1-.01.08-.24.08-.51 0-.82l.03-.34c0-.03.01-.04.03-.01l.04.03.02.04v.33Z" fill="#6D4D69"/><path d="m12.81 9.7-.02.14c0 .03.01.05.04.05l.28.06c.07 0 .1.02.1.07a.04.04 0 0 1-.03.03l-.94.25-.06-.35c-.02-.15.02-.25.14-.31.1-.05.12-.03.08.07l-.05.07a.05.05 0 0 0 0 .07l.03.03h.04l.14-.14a.08.08 0 0 1 .07-.02c.08 0 .14 0 .18-.03Z" fill="#F9D5D1"/><path d="M7.04 9.65c0 .13.01.23.07.3.05.08.06.16.04.25l-.02.06c-.06.07-.11.08-.17.02-.2-.2-.25-.4-.14-.6.11-.06.19-.07.22-.03Z" fill="#481A22"/><path d="M11.22 9.87c-.08.23-.2.39-.37.47-.03.02-.03.04 0 .07.02.01.06.01.12-.01l.11.23-.4.42c-.02 0-.02.02 0 .04l.01.02h.04c.26-.12.52-.3.77-.57.05-.04.06-.04.05.03-.01.07-.08.14-.2.21-.07.05-.07.07.02.08.1.01.23-.06.38-.22l-.34.8-.06.07a.1.1 0 0 1-.08.03h-.33a.1.1 0 0 0-.08.04.39.39 0 0 0-.05.35v.02l-.03.02a.02.02 0 0 1-.03 0l-.05-.35c0-.04.01-.06.03-.09l.05-.04c.03-.03.02-.05-.02-.07-.27-.1-.32-.33-.17-.7l.27-.64c.21-.27.33-.34.36-.21Z" fill="#4E4A71"/><path d="m7.79 11.5.1.3a.92.92 0 0 0-.58-.27c-.03 0-.06.02-.07.05-.04.13 0 .25.12.34v.06h-.02c-.16-.13-.2-.35-.26-.54-.01-.03-.03-.04-.06-.03l-.03.01-.02.07c0 .28-.04.55-.14.8l-.1-.12c-.03-.03-.02-.05.02-.05.1-.03.15-.12.14-.28a.05.05 0 0 0-.03-.04h-.04c-.08.06-.13.09-.17.07-.02 0-.02-.02 0-.03.18-.13.24-.26.17-.4.08 0 .1-.05.06-.14a.39.39 0 0 0-.08-.1c-.3-.32-.44-.69-.4-1.11.02-.15.04-.15.07 0 .11.46.23.84.62 1.12.04.03.07.03.08 0 0 0 .01-.02.03-.02l.04-.02a.1.1 0 0 1 .04.02.1.1 0 0 1 .04.03l.1.15c.02.03.05.03.07 0l.02-.06c-.03-.1 0-.12.08-.05.07.05.13.13.2.25Z" fill="#A8CAD6"/><path d="M10.62 10.06c-.14.06-.25.04-.34-.04.17-.06.28-.05.34.04ZM7.86 10.35c.04.16.14.3.3.42.04.25.03.36-.05.35l-.34-.71a.05.05 0 0 1 0-.06h.03a.1.1 0 0 1 .06 0Z" fill="#84555D"/><path d="m7.57 10.5.4.83c.03.03.03.06.02.1 0 .07 0 .13.04.18.02.04.04.04.08.03l.05-.04.1-.02.1.03 1.02.2c.03 0 .06-.01.06-.05.03-.13 0-.22-.1-.28l.36-.16.03.01v.03a.1.1 0 0 1-.06.04l-.04.02c-.1.12-.13.23-.09.34l.02.1c0 .12.02.26.1.4-.06.14-.18.22-.35.27a.1.1 0 0 0-.07.05c-.07.15-.05.26.06.32a.1.1 0 0 0 .08 0l.33-.11a.03.03 0 0 1 .04.02v.03c-.23.12-.48.16-.73.14-.18 0-.36-.04-.53-.12-.1-.06-.2-.06-.33 0-.04.01-.05 0-.04-.04l.07-.17c.01-.04.03-.05.06-.02.07.08.12.12.15.13.2.06.4.1.6.13.03 0 .05-.01.05-.05-.02-.19-.13-.3-.33-.36-.05-.04-.03-.1.03-.18.02-.02.02-.04 0-.07a.06.06 0 0 0-.05-.01c-.04 0-.07-.01-.1-.04l-.05-.1c-.02-.04-.04-.04-.07 0a.3.3 0 0 0-.06.08.06.06 0 0 0 .03.08c.14.07.18.13.1.17a.81.81 0 0 1-.52-.2.03.03 0 0 0-.03 0H8l-.01.02-.04.3a.08.08 0 0 1-.06.07c-.05.01-.08 0-.08-.04.1-.26.14-.5.1-.75l-.11-.3c.02-.32-.06-.61-.24-.86a.09.09 0 0 0-.06-.04h-.03c-.03 0-.04-.02-.04-.06.02-.05.07-.07.15-.05Z" fill="#84555D"/><path d="m11.75 10.64.01.08c.01.01.03.02.07.02.05 0 .09 0 .11.04l-.07.11a.12.12 0 0 0-.02.1c.05.16.16.29.34.4.27.19.49.19.67.02.05-.04.06-.04.04.03l-.02.08-.07.03a.94.94 0 0 1-.87-.2c-.02-.02-.04-.01-.04.02l-.04.49-.23-.4a.08.08 0 0 0-.08-.04l-.14.01.34-.8Z" fill="#AAA2BC"/><path d="M10.6 10.72c-.16.37-.1.6.16.7.04.02.05.04.02.07l-.05.04a.1.1 0 0 0-.03.09l.05.34v.01h.01a.02.02 0 0 0 .02 0l.03-.03a.39.39 0 0 1 .05-.36.1.1 0 0 1 .08-.04h.33a.1.1 0 0 0 .08-.03l.06-.08c.07.15.17.28.28.4.03.03.04.05.04.07a.1.1 0 0 1-.03.1.04.04 0 0 0 0 .03v.03c.02.01.04.01.05-.01.04-.07.08-.07.11.01a.2.2 0 0 0-.07.04c-.03.02-.03.05 0 .07.24.28.34.51.3.7-.21.2-.42.34-.63.42a.54.54 0 0 1-.29-.32.05.05 0 0 0-.03-.04c-.03 0-.03 0-.02.02.06.08.1.15.12.22-.06.07-.06.13-.02.21.02.03.01.05-.02.07-.04.02-.1.03-.17.02l.02-.06c0-.04 0-.06-.04-.07-.08-.01-.15-.08-.22-.19v-.03l.16-.16a.06.06 0 0 0 .01-.07.15.15 0 0 0-.05-.07l.05-.14v-.02l-.18-.5c-.01-.04-.04-.05-.07-.05h-.04c-.03 0-.05-.02-.05-.05v-.38a.08.08 0 0 0-.03-.07.33.33 0 0 0-.16-.07c-.03 0-.05-.02-.06-.05a.5.5 0 0 0-.12-.27.07.07 0 0 0-.08-.02l-.5.2a.1.1 0 0 0 .05-.04v-.03l-.02-.01c.33-.12.63-.32.9-.6Z" fill="#6881B9"/><path d="M8.4 11.02c-.05-.02-.09-.01-.12.01l-.03-.01c-.04-.02-.05-.01-.04.03.05.17.07.35.06.53l-.11.02a.92.92 0 0 1-.05-.48c.08.01.1-.1.04-.35.1.05.19.13.25.25Z" fill="#A97587"/><path d="M8.28 11.03c.09.16.11.36.07.58l-.08-.03c.01-.18 0-.36-.06-.53 0-.04 0-.05.04-.03l.03.01Z" fill="#D9B8BD"/><path d="M8.4 11.02c.23.16.65.52.94.46.1.06.13.15.1.28 0 .04-.03.05-.06.04l-1.03-.19a.85.85 0 0 0-.07-.58c.03-.02.07-.03.12-.01Z" fill="#B97375"/><path d="M10.91 12.82a.98.98 0 0 1-.2-.26c0-.01 0-.01 0 0l-.03.02a.04.04 0 0 0-.01.05c.03.07.07.14.13.2l.02.06a.1.1 0 0 1-.04.09c-.02.02-.05.02-.07-.02-.09-.16-.14-.3-.16-.45v-.66c0-.03 0-.04-.03-.05-.07-.02-.13-.1-.18-.25-.03-.1-.05-.09-.06 0-.02.17-.04.27-.08.3a.24.24 0 0 1-.18.06.28.28 0 0 1-.17-.09.6.6 0 0 1-.14-.33.07.07 0 0 0-.05-.06l-.04-.01.05-.02.5-.2a.07.07 0 0 1 .08.02c.07.1.12.19.12.27 0 .03.03.05.06.05.05 0 .1.03.16.07.02.01.03.04.03.07v.38c0 .03.02.05.05.05h.04c.03 0 .06.01.07.05l.18.5v.02l-.05.14Z" fill="#897FA2"/><path d="M7.9 11.8c.04.25 0 .5-.1.76-.08.1-.11.18-.1.25l-.14.12c.03-.12.02-.2-.03-.23a.4.4 0 0 0-.33-.3.17.17 0 0 1-.09-.04c-.08-.08-.18-.06-.28.06-.17 0-.34.1-.52.28-.13.13-.11.17.07.1l.1.02c.03 0 .04.02.01.05l-.17.18c-.03.02-.04.02-.06 0a.32.32 0 0 0-.2-.14c-.05-.02-.06-.05-.02-.1.22-.22.49-.4.8-.53.09-.24.14-.5.13-.8l.02-.06.03-.01c.03 0 .05 0 .06.03.07.19.1.4.26.54h.01l.02-.02-.01-.04c-.12-.1-.16-.2-.12-.34.01-.03.04-.05.07-.05.21.02.41.1.59.28Z" fill="#B9C9D6"/><path d="m9.63 11.42.03.01.03.02.02.04a.6.6 0 0 0 .14.33c.05.05.11.08.17.09.07 0 .13-.02.18-.06.04-.03.06-.13.08-.3 0-.09.03-.1.06 0 .05.14.11.23.18.25.03 0 .04.02.04.05l-.01.66a.5.5 0 0 1-.14-.11h-.07c-.05.03-.05.05 0 .07l.13.08c.02.01.03.03.03.06 0 .04-.02.06-.05.05l-.8-.4a.93.93 0 0 1-.1-.4v-.1c-.05-.1-.03-.22.08-.34Z" fill="#D4C7D6"/><path d="M8.72 12.48c-.07 0-.13-.02-.16-.07.07-.04.03-.1-.11-.17a.06.06 0 0 1-.03-.08.3.3 0 0 1 .06-.09c.03-.03.05-.03.07.01l.06.1c.02.03.05.04.09.04l.05.01c.02.03.02.05 0 .07-.06.08-.08.14-.03.18Z" fill="#B97375"/><path d="M8.56 12.41c.03.05.09.08.16.07.2.05.31.17.32.36 0 .04 0 .05-.04.05-.2-.03-.4-.07-.6-.13a.49.49 0 0 1-.15-.13c-.03-.03-.05-.02-.06.02l-.07.17c-.02.04 0 .05.04.04.13-.06.24-.06.33 0-.1.06-.06.13.1.2a.1.1 0 0 0-.1.05l-.18-.1c-.03-.02-.06-.01-.08.01l-.14.14a.07.07 0 0 0-.02.08c.04.08.05.16.02.24a.15.15 0 0 0 0 .1c.04.1.05.2.04.32a.5.5 0 0 0-.23-.05c-.03-.14-.02-.25.03-.33.02.02.04.02.06.01a.04.04 0 0 0 .02-.02.04.04 0 0 0 0-.04l-.15-.15a.12.12 0 0 0-.1-.08c.07 0 .1-.03.11-.08 0-.03 0-.05-.03-.06-.02-.01-.03-.03-.02-.06l.01-.02h.05c.02 0 .04-.02.04-.05.01-.1 0-.18-.05-.27-.01-.03-.03-.04-.06 0l-.1.11c-.02-.07 0-.15.09-.25 0 .04.03.05.08.04a.08.08 0 0 0 .06-.06l.04-.3a.03.03 0 0 1 .04-.04l.01.01c.13.12.3.19.53.2Z" fill="#D9B8BD"/><path d="M10.45 12.66c0 .05 0 .08-.02.1-.02.02-.04.03-.07.01l-.12-.07c-.05-.03-.07-.01-.07.04 0 .07.04.13.12.17a.06.06 0 0 1 .03.07l-.12.4c-.02.05-.04.09-.07.1-.02 0-.04-.03-.05-.07a.2.2 0 0 0-.03-.08.1.1 0 0 0-.08-.03.07.07 0 0 0-.07.04l-.09.16a.07.07 0 0 1-.05.03c-.05.01-.09-.02-.11-.1-.02-.04 0-.07.04-.09.09-.04.15-.1.18-.17.02-.04 0-.06-.04-.07l-.81-.12a1.41 1.41 0 0 0 .73-.14v-.03a.03.03 0 0 0-.04-.02l-.33.11a.1.1 0 0 1-.08 0c-.1-.06-.13-.17-.06-.32a.1.1 0 0 1 .07-.05c.17-.05.29-.13.34-.26l.8.4Z" fill="#A97587"/><path d="M7.53 12.7a.12.12 0 0 0-.06.07c0 .03-.03.03-.05.01-.15-.1-.3-.09-.45.05l-.14-.4c.1-.13.2-.15.28-.07l.09.04a.4.4 0 0 1 .33.3Z" fill="#D9B8BD"/><path d="M10.55 12.51c.02.14.07.3.16.45.02.04.05.04.07.02a.1.1 0 0 0 .04-.09c0-.02 0-.04-.02-.06a.62.62 0 0 1-.13-.2v-.05l.03-.03h.02c.05.1.11.2.2.27l.04.07c.01.03 0 .05-.01.07l-.16.16v.03c.07.11.14.18.22.2.03 0 .05.02.04.06l-.02.06c-.16.1-.36.15-.59.15-.05.03-.13-.05-.24-.24l.12-.4a.06.06 0 0 0-.03-.07c-.08-.04-.12-.1-.12-.17 0-.05.02-.07.07-.04l.12.07c.03.02.05.01.07 0 .02-.03.02-.06.02-.1.03 0 .05-.02.05-.06a.06.06 0 0 0-.03-.06l-.14-.08c-.04-.02-.04-.04 0-.06l.05-.02h.03c.04.06.09.1.14.12ZM7 13.08c.05 0 .08-.03.07-.08a.6.6 0 0 0 .32.18.77.77 0 0 0 .11.5c0 .04-.02.06-.07.06-.09-.01-.13-.05-.13-.12.04-.06.01-.13-.09-.2-.02-.05-.05-.06-.1-.04-.1-.08-.18-.08-.24 0a.85.85 0 0 1-.17-.7c.04-.15.07-.15.09.01l.05.36c0 .03.02.06.05.07.04.01.08 0 .12-.04Z" fill="#AAA2BC"/><path d="M7.53 12.7c.05.03.06.1.03.23a.53.53 0 0 0-.09.18c0 .03 0 .06.03.08.06.05.15.07.26.05.05.01.08.04.1.08h-.03c-.03 0-.04 0-.04.03.02.07.07.12.14.17-.05.08-.06.2-.03.33a.56.56 0 0 1-.22-.05c-.03-.02-.04-.04-.04-.08l.02-.2c.03-.02.04-.05.03-.09-.02-.05-.04-.06-.09-.03a.35.35 0 0 0-.12.25.77.77 0 0 1-.09-.47c.01-.13-.04-.2-.16-.24-.07-.02-.12 0-.16.06 0 .05-.02.07-.06.08l-.04-.25c.15-.14.3-.15.45-.05.02.02.04.02.05-.01a.12.12 0 0 1 .06-.07Z" fill="#B97375"/><path d="M8.5 12.86c.16.08.34.12.52.12l.81.12c.05 0 .06.03.04.07a.35.35 0 0 1-.18.17c-.05.02-.06.05-.04.1.02.07.06.1.11.1a.07.07 0 0 0 .05-.04l.1-.16a.07.07 0 0 1 .06-.04.1.1 0 0 1 .08.03.2.2 0 0 1 .03.08c0 .04.03.06.05.07a.82.82 0 0 1-.14.4l-.16.02c-.03.01-.05 0-.07-.02l-.14-.18-.01-.07a.14.14 0 0 0-.04-.08.57.57 0 0 0-.47-.2c-.04 0-.08 0-.1-.02l-.42-.26c-.15-.08-.18-.15-.09-.2Z" fill="#F3E3EF"/><path d="M11.46 13.29c-.02.08-.1.05-.22-.12a.55.55 0 0 0-.12-.22c0-.01 0-.02.02-.02l.03.04c.05.14.15.25.3.32Z" fill="#481A22"/><path d="m8.58 13.07.41.26c.03.02.07.02.1.02.2-.01.35.06.48.2l.04.08v.07-.03l-.25-.15a.57.57 0 0 0-.24-.07.88.88 0 0 1-.18-.03.36.36 0 0 1-.15-.08c-.1-.09-.2-.16-.3-.23a.1.1 0 0 1 .1-.04Z" fill="#84555D"/><path d="M9.58 6.99c-.03-.25-.02-.46.03-.63.02-.05.04-.1.07-.1.04-.03.08-.03.13 0a.1.1 0 0 1 .05.08v.79c0 .01 0 .03-.02.04a.07.07 0 0 1-.04.02l-.17.03c-.05 0-.08-.01-.1-.06-.02-.03-.01-.06.02-.09A.1.1 0 0 0 9.58 7Z" fill="#F3E3EF"/><path d="m6.88 10.4.15.02a.13.13 0 0 1 .07.2c-.1.1-.17.12-.21.03a4.61 4.61 0 0 1-.19-.42l.03-.03h.03l.06.14c0 .03.03.05.06.06Z" fill="#4E4A71"/><path d="M9.5 10c.07.03.13.02.16-.02.02-.04 0-.1-.07-.14-.06-.03-.12-.03-.15.01-.02.05 0 .1.07.14Z" fill="#FEF8F7"/><path d="M9.44 10.73c.1.01.2 0 .2-.03s-.08-.07-.18-.09c-.1 0-.2 0-.2.04 0 .03.08.07.18.08Z" fill="#B97375"/><defs><linearGradient id="a" x1="9" y1="3" x2="9" y2="15" gradientUnits="userSpaceOnUse"><stop stop-color="#8EEBD2"/><stop offset="1" stop-color="#B5E89E"/></linearGradient></defs></svg>