<!-- by TradingView --><svg width="18" height="18" viewBox="0 0 18 18" xmlns="http://www.w3.org/2000/svg"><path fill="#F0F3FA" d="M0 0h18v18H0z"/><path d="m4.5 8-.2-1h6.98L13 10.26c-1.27 1.7-2.32 3.48-4 4.74a20.48 20.48 0 0 1-3.13-3H7c.63.74 1.47 1.56 2 2 1-.96 2.12-2.37 3-3.8L10.72 8H4.5Z" fill="#006ACF"/><path d="M5.19 11C4.27 9.69 4 6.47 4 5h10c0 2.43-.31 3.74-.47 4.09L13 7.9V6H5c0 2.01.48 3.67.72 4.05l.89.95H5.19Z" fill="#0082FF"/><path d="M5.5 10h2v1h-2v-1Z" fill="#0082FF"/><path fill-rule="evenodd" d="M8.5 12a1.5 1.5 0 1 0 0-3 1.5 1.5 0 0 0 0 3Zm0-.67a.83.83 0 1 0 0-1.66.83.83 0 0 0 0 1.66Z" fill="#0082FF"/></svg>