<!-- by TradingView --><svg width="18" height="18" viewBox="0 0 18 18" xmlns="http://www.w3.org/2000/svg"><path fill="#F0F3FA" d="M0 0h18v18H0z"/><path d="M12 4.93c0-.52.45-.93 1-.93s1 .41 1 .93v7.14c0 .52-.45.93-1 .93s-1-.41-1-.93V4.93Z" fill="url(#a)"/><path d="M6.33 10.81V12L8 10.52V9.33l-1.67 1.48Z" fill="url(#b)"/><path d="M9.67 7.48v1.19l2-1.48V6l-2 1.48Z" fill="url(#c)"/><path d="M14 14v-2.22c-.17.39-.77.55-1 .55-1 0-4.36-4.97-6.17-7.33H5.67v1.08c1.3 1.72 4.14 5.4 5.14 6.4S13.35 13.9 14 14Z" fill="url(#d)"/><path d="M6.83 5 4 4v9.17c0 .27.28.83 1 .83s1-.56 1-.83V6.5c0-.67.53-1.31.83-1.5Z" fill="url(#e)"/><defs><linearGradient id="a" x1="13" y1="4" x2="13" y2="13" gradientUnits="userSpaceOnUse"><stop stop-color="#83D2E1"/><stop offset="1" stop-color="#334666"/></linearGradient><linearGradient id="b" x1="8" y1="9.78" x2="6.88" y2="11.82" gradientUnits="userSpaceOnUse"><stop stop-color="#4F7588"/><stop offset="1" stop-color="#252A52"/></linearGradient><linearGradient id="c" x1="11.67" y1="6.74" x2="9.86" y2="8.43" gradientUnits="userSpaceOnUse"><stop stop-color="#85CEDF"/><stop offset="1" stop-color="#4E6A7F"/></linearGradient><linearGradient id="d" x1="6.36" y1="5.67" x2="13.86" y2="13.31" gradientUnits="userSpaceOnUse"><stop stop-color="#262D5B"/><stop offset="1" stop-color="#80D2E0"/></linearGradient><linearGradient id="e" x1="4.9" y1="4.42" x2="9.46" y2="7.51" gradientUnits="userSpaceOnUse"><stop stop-color="#5255A4"/><stop offset="1" stop-color="#202356"/></linearGradient></defs></svg>