<!-- by TradingView --><svg xmlns="http://www.w3.org/2000/svg" width="18" height="18"><path fill="#0B594F" d="M0 0h18v18H0z"/><path d="M9 10.05a720.83 720.83 0 00-.36.36c-.12.13-.27.08-.3.07l-1.37-.42c-.27-.09-.32-.18-.36-.3 0 0-.02-.07-.08-.09l-1.7-.55c-.06-.03-.1-.05-.13-.1l-.09-.2c-.02-.04-.06-.04-.06-.04a.22.22 0 01-.18-.13l-.08-.15c-.02-.05-.05-.05-.06-.05-.07 0-.1-.03-.13-.08l-.08-.14c-.03-.07-.02-.13 0-.16.03-.06.1-.07.12-.07h4.04c.12 0 .21.04.28.12.05.05.08.12.1.2 0 0 0 .03.04.03h.8c.03 0 .04-.02.04-.02a.44.44 0 01.1-.21.35.35 0 01.28-.12h4.04c.02 0 .09 0 .12.07.02.03.03.09 0 .16l-.08.14c-.03.05-.06.07-.13.08 0 0-.04 0-.06.05l-.08.15a.22.22 0 01-.18.13s-.04 0-.06.05l-.1.18c-.02.06-.06.08-.13.1l-1.69.56c-.06.02-.08.1-.08.1-.04.1-.1.2-.36.3l-1.38.41c-.02.01-.17.06-.3-.07l-.32-.34s-.01-.02-.03-.02z" fill="#fff"/><path fill-rule="evenodd" d="M9 15A6 6 0 109 3a6 6 0 000 12zm0-.5a5.5 5.5 0 100-11 5.5 5.5 0 000 11z" fill="#fff"/></svg>