<!-- by TradingView --><svg width="18" height="18" viewBox="0 0 18 18" xmlns="http://www.w3.org/2000/svg"><path fill="#F0F3FA" d="M0 0h18v18H0z"/><path fill-rule="evenodd" d="M9 14A5 5 0 1 0 9 4a5 5 0 0 0 0 10Zm0-.3a4.7 4.7 0 0 0 3.63-1.7h-.08l-.9-2h-.86l.89 2h-.45l-.9-2h-.28l.89 2h-.46l-.88-2H8.28l-.8 2h-.42l.8-2h-.9l-.8 2h-.42l.8-2h-.32l-.8 2h-.05A4.7 4.7 0 0 0 9 13.7ZM5.8 10l-.67 1.68a4.7 4.7 0 1 1 7.73.01L9.9 5l-.63 1.56L8.56 5l-.34.87-.4-.87-1.88 4.67h-.6V10h.47Zm.56-.33h.32L8 6.4l-.17-.39-1.47 3.65Zm.74 0H8l.7-1.7-.48-1.07L7.1 9.67Zm1.32 0h1.03L8.9 8.45l-.5 1.22Zm1.48 0h.29l-.93-2.1-.14.35.78 1.75Zm.74 0h.87L9.89 6.02l-.41 1.02 1.16 2.63ZM8.57 6.02l.47 1.07-.13.34-.48-1.07.14-.34Z" fill="url(#a)"/><defs><linearGradient id="a" x1="9" y1="3" x2="9" y2="15" gradientUnits="userSpaceOnUse"><stop stop-color="#90682E"/><stop offset=".55" stop-color="#D5AA6C"/><stop offset="1" stop-color="#684A20"/></linearGradient></defs></svg>