<!-- by TradingView --><svg width="18" height="18" viewBox="0 0 18 18" xmlns="http://www.w3.org/2000/svg"><path fill="#F0F3FA" d="M0 0h18v18H0z"/><path fill-rule="evenodd" d="M9.75 14c1.98 0 3.25-1.01 3.25-2.8 0-1.55-1.23-2.32-2.92-2.37V8.8c1.58-.15 2.64-1.04 2.64-2.51C12.72 4.73 11.5 4 9.53 4H5v.03l.8.9c.11.1.2.15.2.34v7.46c0 .19-.09.23-.2.35l-.8.9V14h4.75Zm-.89-5.33H8V4.62c0-.24.11-.29.3-.29h.61c.93 0 1.32.8 1.32 2.07 0 1.41-.4 2.27-1.37 2.27Zm-.48 5h.53c1.17 0 1.63-.84 1.63-2.39 0-1.52-.48-2.28-1.67-2.28H8v4.4c0 .25.12.27.38.27Z" fill="#1C1C1C"/></svg>