<!-- by TradingView --><svg width="18" height="18" viewBox="0 0 18 18" xmlns="http://www.w3.org/2000/svg"><path fill="#181B1E" d="M0 0h18v18H0z"/><path d="M6.4 10.14c0 .05-.01.08-.03.12a.15.15 0 0 1-.05.05.12.12 0 0 1-.14 0 .16.16 0 0 1-.05-.07.74.74 0 0 1 0-.56.13.13 0 0 1 .06-.07.1.1 0 0 1 .1 0c.16.06.3.15.44.27.06.04.05.08-.02.09l-.18.03a.14.14 0 0 0-.08.05.19.19 0 0 0-.04.1ZM6.83 11.46c.26.21.41.7.6 1 .05.07.04.09-.03.05a.36.36 0 0 1-.17-.18 8.88 8.88 0 0 0-.43-.83c-.05-.08-.04-.1.03-.04ZM7.27 12.9c.12.17.23.46.18.67-.02.08-.04.07-.05 0-.1-.71-.9-1.14-.97-1.93-.02-.28 0-.28.09-.02.15.48.48.9.75 1.28ZM6.59 12.64c.31.28.5.6.53.95 0 .04-.07.03-.1.04-.05 0-.07-.02-.07-.07.06-.62-.9-.97-.87-1.6 0-.22.04-.22.09-.01.07.27.2.5.42.69Z" fill="#3CB459"/><path fill-rule="evenodd" d="M7.47 6c-.65-.01-1.22.1-1.73.33L4 7.58v3.2c.3.14.65.47.92.7.14.13.14.29.2.45.07.18.12.18.14-.01.03-.3.18-.5.45-.58.14-.05.1-.29.22-.39.05-.03.1-.04.16-.03l.41.13a.14.14 0 0 0 .14-.04.53.53 0 0 0 .14-.29c.02-.1-.01-.12-.09-.05a.68.68 0 0 1-.2.13.24.24 0 0 1-.22-.02c-.93-.51-.27-2.11.34-1.24.1.13.14.12.13-.05v-.18c0-.1.03-.17.11-.23.1-.07.19-.15.27-.24.2-.19.38-.37.66-.35.3.03.54.2.73.53.07.1.08.1.05-.03a.94.94 0 0 0-.27-.45c-.15-.15-.12-.2.08-.19.54.07 1 .4 1.4.98.11.12.11.63.11.8v.32c0 .06 0 .14-.04.2a.35.35 0 0 0-.02.4l.47.8c.07.1-.07.1-.13.09-.3-.09-.84-.24-.9.2-.01.16.06.27.14.38.06.07.11.15.07.24a.6.6 0 0 1-.36.36c-.06.02-.03.14 0 .13.36-.14.65-.2.88-.15.17.04.17.09.01.16-.34.14-.57.36-.7.65-.03.07.07.08.07.08H13V3c-.42.2-.97.36-1.45.58-.43.2-.85.48-1.27.84a61.4 61.4 0 0 1-1.8 1.48L7.47 6Zm-.44 2.42-.83-.46-.02.01c-.04.07-.03.17.02.26.05.1.13.18.24.24.17.1.48.21.6-.02l-.01-.03Zm2.16-.14c0 .14.04.26.09.26.05 0 .09-.11.09-.25s-.04-.26-.08-.26c-.05 0-.1.11-.1.25ZM10 9.9c.02.14.06.28.1.4.13.34.37.5.7.46.42-.04 1.32-.25 1.5-.72a.38.38 0 0 0 0-.27.35.35 0 0 0-.18-.2c-.6-.28-1.18-.36-1.77-.23-.3.07-.41.25-.35.56Z" fill="#3CB459"/><path d="M10.75 9.88a3.3 3.3 0 0 0-.35-.03c-.22-.02-.23-.06-.03-.13.52-.19 1-.16 1.45.07.1.05.15.14.14.23 0 .1-.08.18-.18.21-.28.1-.63.12-1.05.07-.07 0-.1-.04-.07-.1.08-.16.57-.24.09-.32Z" fill="#3CB459"/></svg>