<!-- by TradingView --><svg width="18" height="18" viewBox="0 0 18 18" xmlns="http://www.w3.org/2000/svg"><path fill="url(#a)" d="M0 0h18v18H0z"/><path d="M9 13.94a4.94 4.94 0 1 0 0-9.88 4.94 4.94 0 0 0 0 9.88ZM9 15A6 6 0 1 0 9 3a6 6 0 0 0 0 12Z" fill="#613C10"/><path fill-rule="evenodd" d="M9 14.82A5.82 5.82 0 1 0 9 3.18a5.82 5.82 0 0 0 0 11.64ZM9 15A6 6 0 1 0 9 3a6 6 0 0 0 0 12Z" fill="url(#b)"/><circle cx="9" cy="9" r="4.94" fill="url(#c)"/><path fill-rule="evenodd" d="M9 13.76a4.76 4.76 0 1 0 0-9.52 4.76 4.76 0 0 0 0 9.52Zm0 .18a4.94 4.94 0 1 0 0-9.88 4.94 4.94 0 0 0 0 9.88Z" fill="url(#d)"/><path d="M8.65 6.53V9l.53-.7V7.05h.35v1.23l-.88 1.06v.53c0 .06-.04.18-.18.18-.14 0-.18-.12-.18-.18v-.17H7.24v.35c0 .47.28 1.41 1.4 1.41 1.14 0 1.42-.94 1.42-1.41V9l-.53.7v.36c0 .3-.18.88-.88.88s-.89-.47-.89-.7h.36c0 .11.1.35.53.35.42 0 .53-.35.53-.53v-.53l.88-1.06V6.53H8.65Z" fill="url(#e)"/><path fill-rule="evenodd" d="M9 12.53a3.53 3.53 0 1 0 0-7.06 3.53 3.53 0 0 0 0 7.06Zm0 1.06A4.59 4.59 0 1 0 9 4.4a4.59 4.59 0 0 0 0 9.18Z" fill="url(#f)" fill-opacity=".6"/><defs><linearGradient id="a" x1="3.35" y1="3.12" x2="21.9" y2="24.43" gradientUnits="userSpaceOnUse"><stop stop-color="#1A1E21"/><stop offset="1" stop-color="#06060A"/></linearGradient><linearGradient id="b" x1="3.18" y1="9.18" x2="14.82" y2="9.35" gradientUnits="userSpaceOnUse"><stop stop-color="#ECE097"/><stop offset="1" stop-color="#9D7C24"/></linearGradient><linearGradient id="c" x1="4.41" y1="9" x2="13.76" y2="9" gradientUnits="userSpaceOnUse"><stop stop-color="#9A7024"/><stop offset=".28" stop-color="#74430E"/><stop offset=".66" stop-color="#8E5A0F"/><stop offset="1" stop-color="#8D6118"/></linearGradient><linearGradient id="d" x1="4.41" y1="9" x2="13.76" y2="9" gradientUnits="userSpaceOnUse"><stop stop-color="#FFE09D"/><stop offset="1" stop-color="#B38C3F"/></linearGradient><linearGradient id="e" x1="7.59" y1="9.35" x2="9.88" y2="9.35" gradientUnits="userSpaceOnUse"><stop stop-color="#F7E57F"/><stop offset="1" stop-color="#AF8024"/></linearGradient><linearGradient id="f" x1="4.94" y1="8.47" x2="13.24" y2="9.53" gradientUnits="userSpaceOnUse"><stop stop-color="#EBDF95"/><stop offset="1" stop-color="#9D7C24"/></linearGradient></defs></svg>