<!-- by TradingView --><svg width="18" height="18" viewBox="0 0 18 18" xmlns="http://www.w3.org/2000/svg"><path fill="#5B27F1" d="M0 0h18v18H0z"/><path d="M9.26 3.51a.11.11 0 0 0-.1 0L4.64 6.26a.59.59 0 0 0-.13.1.08.08 0 0 0-.03.06v5.34c0 .04.02.07.05.1l4.62 2.63a.11.11 0 0 0 .11 0l3.26-1.86v-.88l-3.03 1.69a.58.58 0 0 1-.59 0l-3.34-1.96a.61.61 0 0 1-.3-.53V7.17c0-.18.08-.32.17-.42.09-.08.2-.14.27-.18l3.1-1.75.03-.02c.07-.04.2-.12.36-.13.12 0 .22.03.3.07l.14.08.04.02 2.73 1.58c.08.04.12.12.13.2 0 .1-.04.17-.1.22l-1.36.94a.24.24 0 0 1-.27 0l-1.38-.94c-.02 0-.03-.02-.05-.03a3.66 3.66 0 0 0-.1-.06c-.02-.02-.04-.02-.05-.02-.02 0-.04 0-.08.03a1 1 0 0 0-.08.04L9 6.85 7.06 8a.11.11 0 0 0-.05.1v2.15c0 .04.01.07.04.09l1.86 1.05.1.06.1.06c.05.03.08.03.1.03.02 0 .05 0 .1-.03l.09-.05.01-.01.1-.05 1.34-.76-.64-.6-.83.5a.33.33 0 0 1-.33.02l-1.08-.58a.35.35 0 0 1-.19-.31V8.7c0-.13.07-.24.18-.3l1.08-.63a.33.33 0 0 1 .35 0l.98.66c.1.08.14.23.07.35a.24.24 0 0 1-.34.07l-.9-.6-.93.54v.78l.93.5.92-.57c.1-.05.2-.04.29.03l1.02.97a.25.25 0 0 1-.05.4l-1.65.92-.07.05h-.01a2 2 0 0 1-.12.07.7.7 0 0 1-.32.1.7.7 0 0 1-.33-.1 2 2 0 0 1-.11-.07h-.02l-.07-.05-1.88-1.07a.61.61 0 0 1-.28-.51V8.08c0-.21.11-.41.3-.52l1.93-1.14.03-.02.14-.08a.65.65 0 0 1 .28-.08c.2-.01.37.1.45.17l.03.02 1.26.85.89-.62-2.4-1.39-.06-.03a4.6 4.6 0 0 0-.16-.07l-.05.01a.81.81 0 0 0-.08.05l-.05.02L5.93 7a.79.79 0 0 0-.16.1.1.1 0 0 0-.02.03v3.82c0 .04.02.08.05.1L9.14 13a.11.11 0 0 0 .12 0l3.38-1.88a.24.24 0 0 1 .24 0c.07.05.12.13.12.22v1.43c0 .1-.05.18-.12.22L9.5 14.92a.59.59 0 0 1-.6 0L4.3 12.28a.61.61 0 0 1-.29-.52V6.42c0-.34.26-.5.4-.58l4.52-2.76a.59.59 0 0 1 .57 0h.01l3.38 2.01c.12.07.15.22.09.34a.24.24 0 0 1-.33.1L9.26 3.5Z" fill="#fff"/></svg>