<!-- by TradingView --><svg width="18" height="18" viewBox="0 0 18 18" xmlns="http://www.w3.org/2000/svg"><path fill="url(#avrcfbaaq)" d="M0 0h18v18H0z"/><path d="M10.3 5.73C10.3 4.22 11.03 4 12 4v6.13c0 .8-.35 1.66-.8 2.1 1.42 0 1.8.82 1.8 1.77H8.05C5.89 14 4 12.27 4 10.13A4.24 4.24 0 0 1 8.05 6c.8 0 1.8.31 2.25.74V5.73Zm-2.25 6.5c1.2 0 2.25-1.03 2.25-2.2 0-1.2-.87-2.22-2.25-2.22a2.17 2.17 0 0 0-2.25 2.21 2.29 2.29 0 0 0 2.25 2.21Z" fill="#fff"/><defs><linearGradient id="avrcfbaaq" x1="2.25" y1="14.46" x2="17.04" y2="4.5" gradientUnits="userSpaceOnUse"><stop stop-color="#C41859"/><stop offset="1" stop-color="#4D0E75"/></linearGradient></defs></svg>