<!-- by TradingView --><svg width="18" height="18" viewBox="0 0 18 18" xmlns="http://www.w3.org/2000/svg"><path fill="#F0F3FA" d="M0 0h18v18H0z"/><path d="M3 8.47c3.12.69 4.74 3.27 5.37 4.53A8.45 8.45 0 0 0 3 9.98v-1.5Z" fill="#2BE0CD"/><path d="m3.49 7.7-.16 1.48c2.2.17 4.28 2.61 5.03 3.81-.65-2.54-3.52-4.59-4.87-5.3Z" fill="#16BDB6"/><path d="m4.14 6.64-.33 1.7c2.47.5 4.07 3.31 4.55 4.65a10.25 10.25 0 0 0-4.22-6.35Z" fill="#33398F"/><path d="m4.95 6-.49 1.48A10.05 10.05 0 0 1 8.36 13C8.36 9.6 6.1 6.92 4.96 6Z" fill="#242663"/><path d="M15 8.47c-3.12.69-4.74 3.27-5.37 4.53A8.45 8.45 0 0 1 15 9.98v-1.5Z" fill="#2BE0CD"/><path d="m14.51 7.7.16 1.48c-2.2.17-4.28 2.61-5.03 3.81.65-2.54 3.52-4.59 4.87-5.3Z" fill="#16BDB6"/><path d="m13.86 6.64.33 1.7c-2.47.5-4.07 3.31-4.55 4.65a10.25 10.25 0 0 1 4.22-6.35Z" fill="#33398F"/><path d="m13.05 6 .49 1.48A10.05 10.05 0 0 0 9.64 13c0-3.39 2.27-6.07 3.4-6.99Z" fill="#242663"/></svg>