<!-- by TradingView --><svg width="18" height="18" viewBox="0 0 18 18" xmlns="http://www.w3.org/2000/svg"><path fill="#000040" d="M0 0h18v18H0z"/><path d="M6.55 4.02a1.44 1.44 0 0 0-.22 1.64c.06.13.14.23.24.32.03.02.05.02.07 0l.94-.94a.05.05 0 0 0 0-.08l-.95-.94a.06.06 0 0 0-.08 0ZM11.42 6c.55-.55.51-1.38.03-1.96a.08.08 0 0 0-.1 0l-.93.93c-.03.02-.03.04 0 .07l.96.96a.03.03 0 0 0 .02.01.04.04 0 0 0 .02 0Zm-2.4.37.74-.75a.05.05 0 0 1 .07 0l.95.95c.03.03.03.05 0 .08L9.67 7.76c-.37.38-.81.52-1.23.12A126.84 126.84 0 0 1 7.2 6.6l.01-.04.95-.95a.05.05 0 0 1 .07 0l.75.75a.04.04 0 0 0 .02 0 .04.04 0 0 0 .03 0Zm-3.03.21c-.1-.12-.23-.21-.4-.27A1.45 1.45 0 0 0 4 6.58a.05.05 0 0 0 .01.05L5 7.6a.02.02 0 0 0 .03 0l.97-.98L6 6.6v-.03Zm6.47-.3c.5-.2 1-.11 1.47.25.06.04.06.08.01.14l-.91.91c-.03.03-.05.03-.08 0l-.93-.93c-.03-.03-.03-.05 0-.08.12-.12.27-.22.44-.28ZM5.6 8.24l.75.75a.04.04 0 0 1 0 .06l-.75.75a.04.04 0 0 0 0 .06l.96.95a.04.04 0 0 0 .03.02h.01l.01-.02L8.4 9.03a.04.04 0 0 0 0-.06L6.63 7.21a.04.04 0 0 0-.05 0l-.97.97a.04.04 0 0 0 0 .05Zm6.02.8.76.75v.02a.03.03 0 0 1 0 .02v.01l-.97.97a.03.03 0 0 1-.02 0 .03.03 0 0 1-.03 0L9.62 9.02a.03.03 0 0 1 0-.04l1.77-1.78a.03.03 0 0 1 .04 0l.96.97a.03.03 0 0 1 .01.02v.02l-.76.77a.03.03 0 0 0-.01.02v.02Zm-3.4 3.35.72-.72c.03-.03.05-.03.08 0l.73.73c.02.02.05.02.07 0l.95-.95a.05.05 0 0 0 .02-.04.05.05 0 0 0-.02-.04l-1.22-1.22c-.3-.32-.77-.35-1.09-.03l-1.25 1.26c-.03.03-.03.06 0 .08l.92.93c.03.03.06.03.1 0Zm-2.26-.92c-.58.5-1.38.52-1.95-.02-.02-.02-.02-.04 0-.05l.97-.97a.03.03 0 0 1 .04-.01h.01l.94.95a.07.07 0 0 1 .01.08s0 .02-.02.02Zm6.03-.04c.53.6 1.45.5 2 .02v-.02a.03.03 0 0 0 0-.02l-.98-.98-.03-.01h-.03l-.96.97v.04Zm-5.69.97c.06-.14.15-.26.26-.37.03-.02.05-.02.08 0l.94.95a.04.04 0 0 1 .01.03.04.04 0 0 1-.01.03l-.96.95a.05.05 0 0 1-.04.02.05.05 0 0 1-.03-.02c-.41-.48-.5-1-.25-1.59Zm5.11 1.6c.12-.1.2-.23.27-.38a1.46 1.46 0 0 0-.26-1.6.04.04 0 0 0-.04 0h-.02l-.95.96c-.03.03-.03.05 0 .08l.93.94a.05.05 0 0 0 .07 0Z" fill="#F30"/></svg>