<!-- by TradingView --><svg width="18" height="18" fill="none" xmlns="http://www.w3.org/2000/svg"><path fill="#F0F3FA" d="M0 0h18v18H0z"/><path fill-rule="evenodd" clip-rule="evenodd" d="M5.86 4A1.86 1.86 0 004 5.86v6.28A1.86 1.86 0 005.86 14h6.28A1.86 1.86 0 0014 12.14V5.86A1.86 1.86 0 0012.14 4H5.86zm2.515 5s.01-.019 0 2.188V13h1.25v-1.813c0-.458.002-.892.004-1.25.003-.52.005-.882-.004-.936.317-.115.694-.268.971-.398.4-.187.8-.58.97-.95.243-.53.26-.93.069-1.578-.168-.567-.173-.762-.024-1.002.05-.078.086-.122.078-.155-.013-.055-.144-.082-.536-.187-.347-.093-.347-.093-.41-.01-.207.275-.217.784-.027 1.378.21.652.148 1.137-.191 1.513-.153.168-.45.332-.758.417-.306.084-1.171.085-1.515.001-.636-.154-.996-.509-1.074-1.057-.04-.284-.008-.498.142-.952.149-.452.162-.875.035-1.156-.053-.118-.082-.186-.134-.215-.073-.04-.19.002-.48.1l-.436.15.109.206c.142.271.137.437-.027.927-.16.477-.19.804-.106 1.181.122.549.426.978.915 1.292.364.234.665.417 1.179.494zM8 12H6v1h2v-1zm4 0h-2v1h2v-1zm-4-1.5H6v1h2v-1zm4 0h-2v1h2v-1zM8 9H6v1h2V9zm4 .001h-2V10h2v-.999zM8.35 7.9c.213.011.58-1.144.65-1.4.011.031.032.109.061.213.112.409.336 1.224.49 1.224.016 0 .744-.382.77-.404.006-.005-.214-.429-.489-.94l-.52-1.03h-.624L8.06 6.597l-.498.936.375.182c.207.1.393.183.413.184z" fill="#C44536"/></svg>