<!-- by TradingView --><svg width="18" height="18" viewBox="0 0 18 19" xmlns="http://www.w3.org/2000/svg"><path fill="#F0F3FA" d="M0 .14h18v18H0z"/><circle cx="9" cy="9.14" r="6" fill="url(#a)"/><path d="m4.1 5.68.2.01c.41 0 .69-.03.96-.05.54-.06 1.06-.1 2.51.05 1.44.16 1.58.52 1.75.96.09.23.19.47.48.72.3.26.63.4.94.52.55.22 1.08.43 1.43 1.33.37.95.24.98-.05 1.06-.14.03-.32.08-.5.25-.29.27-.43.26-.67.26-.23 0-.54-.01-1.15.18-.73.24-.5.36 0 .63.37.2.89.48 1.27.95.56.69.76.78 1.03.91.14.06.3.14.52.3a6 6 0 0 1-1.19.77 8.2 8.2 0 0 1-.56-.42c-.2-.16-.43-.34-.7-.53-.58-.42-.83-.38-1.14-.33-.2.03-.42.07-.77-.01-.57-.13-.86-.25-1.22-.4l-.77-.29c-.71-.24-.97-.27-1.6-.34l-.56-.07c-.22-.03-.41-.07-.58-.12a5.96 5.96 0 0 1-.68-2.11c.22.09.46.22.67.41.62.55 1.51-.17 1.34-.3-.08-.07-.19-.39-.3-.76-.14-.4-.3-.85-.45-1.1-.24-.37-.85-.39-1.16-.35.17-.78.5-1.5.95-2.13Z" fill="#52554E"/><path d="M10.97 5.04c.05.03.1.07.16.14.05.07.1.11.15.13.04.02.06.05.08.08l.12.23-1.02-.27c-.05-.02-.09 0-.1.05l.03.07-.16-.03c-.07-.01-.08 0-.04.06l.53.62c.1.1.12.09.09-.04a2.44 2.44 0 0 0-.13-.4 2 2 0 0 1 .28 1.34c0 .04-.02.04-.03 0a.73.73 0 0 1-.06-.3c0-.04-.02-.06-.06-.06l-1.57.14a.64.64 0 0 1-.16-.18 4.5 4.5 0 0 1-.21-.71c-.03-.12-.1-.16-.21-.12-.87.27-1.48.23-1.81-.11l.07-.17c.82-.9 1.73-1.6 4.05-.47Z" fill="#313941"/><path d="m11.48 5.62.33.6.39 1.25-.02.6-.03-.26c0-.02-.01-.03-.04-.03h-.43c-.03 0-.04-.01-.05-.04a5.4 5.4 0 0 0-.2-.84c-.08-.22-.15-.22-.23 0-.1.33-.2.58-.3.77-.07.13-.13.12-.16-.03a2.43 2.43 0 0 1-.07-.59c0-.09-.04-.13-.12-.14l-1.31-.1 1.57-.15c.04 0 .06.02.06.06 0 .1.01.2.06.3.01.04.03.04.03 0a2 2 0 0 0-.28-1.33.93.93 0 0 0-.3-.22.36.36 0 0 1-.02-.07c.01-.05.05-.07.1-.05l1.02.27Z" fill="#12161D"/><path d="M10.39 5.47c.11.05.2.13.29.22.06.14.1.27.13.39.03.13 0 .14-.09.04l-.53-.62c-.04-.05-.03-.07.04-.06l.16.03Z" fill="#52554E"/><path d="M6.85 5.68c.33.34.94.38 1.81.1.12-.03.18.01.2.13.05.22.12.45.22.7.01.05.07.1.16.2a2 2 0 0 0-1 .5.68.68 0 0 1-.17.13c-.08.04-.15.04-.21.02-.2-.09-.35-.15-.46-.18a.53.53 0 0 0-.33 0 1.4 1.4 0 0 0-.28.17l-.12.08a.19.19 0 0 1-.1.04.76.76 0 0 1-.49-.2l.01-.27.27-.6v-.11c0-.04 0-.07.04-.1a.58.58 0 0 0 .22-.43l.01-.02.22-.16Z" fill="#12161D"/><path d="M12.18 8.07c.05.32-.07.52-.35.59l-.47-.03-.85-.12c-.14-.05-.2-.13-.2-.23.04-.32.04-.64.03-.94a.17.17 0 0 0-.12-.16c-.25-.1-.51-.1-.78 0-.13.5.06.89.55 1.15l.3.8c.02.03.04.05.08.07l.05.02c-.01.04.05.06.18.07.17.1.3.1.39-.02.06 0 .1.02.14.04l.1.06.27.07c-.26.2-.39.42-.4.62a6.04 6.04 0 0 1-.07.72c-.1.17-.08.35.08.54-.01.19.05.36.17.51 0 .02.02.02.03.01l.01-.03.24.02c.04 0 .06.02.04.06a.1.1 0 0 1-.03.03l-.24-.02c-.04 0-.08 0-.12.02a.26.26 0 0 1-.25-.02c.01-.05 0-.08-.02-.08.07-.01.09-.03.08-.08a2.87 2.87 0 0 1-.11-.42.57.57 0 0 0-.1-.2.82.82 0 0 0-.22-.33.12.12 0 0 1-.04-.1.8.8 0 0 0-.04-.38c-.02-.07-.07-.09-.14-.06l-.7.3-.82.02c-.23 0-.45-.03-.65-.1l-.6-.25-.31-.29a2.8 2.8 0 0 1-.83-.85.86.86 0 0 1-.1-.2c-.05-.16-.03-.24.06-.25l3.6.5c.03.01.05 0 .05-.04a.93.93 0 0 0-.33-.67l-3.65-.44c-.08-.15-.09-.36-.01-.61.15.13.3.2.48.2.04 0 .08-.01.11-.04l.12-.08c.12-.08.22-.14.28-.16.1-.04.21-.04.33 0 .1.02.26.08.46.17.06.02.13.02.21-.02.05-.02.1-.06.17-.12a2 2 0 0 1 1-.52l1.3.11c.1 0 .14.05.13.14 0 .18.02.38.07.6.03.14.09.15.16.02.1-.19.2-.44.3-.76.08-.23.15-.23.23 0 .08.2.14.48.2.83 0 .03.02.04.05.04h.43c.03 0 .04.01.04.03l.03.26Z"/><path d="M10.5 8.51c-.17-.02-.2.22-.08.7l-.05-.01a.11.11 0 0 1-.07-.07l-.3-.8a.64.64 0 0 1-.03-.25l-.06-.26c.03.08.06.13.1.14.05.01.07 0 .08-.05a.33.33 0 0 0-.07-.22l.23.62.03.01c.01 0 .02 0 .02-.02v-.97c0-.08-.04-.12-.12-.13l-.74-.02c.27-.1.53-.1.78 0 .07.02.11.08.12.16.01.3 0 .62-.02.94-.01.1.05.18.19.23Z" fill="#52554E"/><path d="M10.02 7.69c-.03-.05-.05-.08-.09-.09-.04 0-.06.01-.07.05-.01.05 0 .1.05.17l.06.26a1.2 1.2 0 0 1-.53-.9l.74.02c.08 0 .12.05.12.13v.97l-.02.02-.03-.01-.23-.62Z" fill="#313941"/><path d="M9.44 7.18c.04.38.21.68.53.9 0 .1 0 .17.02.25-.5-.26-.68-.65-.55-1.15Z" fill="#12161D"/><path d="m12.32 8.06.16.08c.12.08.23.08.34.02-.03.11.07.17.3.18l-.47-.03c-.03 0-.06.01-.06.04v.05c0 .03.02.04.05.04h.15l-.26.03c-.34-.05-.4-.01-.2.1-.04-.01-.06 0-.06.03 0 .04 0 .06.04.08.02.02.05.02.08.01.2-.08.38-.09.51-.02-.27.01-.18.12.27.32-.04.04-.02.1.05.17-.04 0-.06 0-.05.02v.03c.02.03.03.04.06.04.17 0 .34-.04.49-.11 0-.01.03-.02.07-.01l-.1.13c-.02.03-.02.05.02.04.15-.04.3.02.42.17.12.07.26.08.43.03.03 0 .04-.03.04-.06s0-.05-.03-.07l-.09.02a.2.2 0 0 0 .02-.06c0-.04-.01-.07-.05-.07l-.26-.05c.02-.04.02-.07 0-.08.18-.05.3-.03.4.05.05.08.13.1.22.07.05-.02.05-.05.02-.08-.04-.04-.1-.05-.2-.04.04-.07.04-.14 0-.23.15.05.25 0 .27-.15a.14.14 0 0 1 .01-.12v1.21L11.7 9.2a.29.29 0 0 1 .2-.03c.05 0 .08 0 .12-.02l.21-.13a.16.16 0 0 1 .12-.02c.15.04.3.04.45.03l.02-.03c0-.02 0-.03-.02-.03a.68.68 0 0 0-.44 0c-.01 0-.03 0-.04-.02a.92.92 0 0 0-.48-.28c.28-.07.4-.27.35-.59l.02-.6.04.54c0 .03.01.05.04.05h.04Z" fill="#9D885E"/><path d="m4.41 7.79 1.68.19 3.65.44c.02.2.06.36.1.46.06.17.01.22-.16.14a2 2 0 0 0-.83-.18.06.06 0 0 1-.06-.04.17.17 0 0 0-.03-.04.15.15 0 0 0-.07-.04c-.2-.06-.37-.13-.53-.23a.11.11 0 0 1-.04-.04L8.1 8.4c-.02-.04-.05-.04-.07-.01-.2.19-.44.23-.71.14-.04-.02-.05-.03-.06-.05 0-.04.01-.06.05-.07.03 0 .04-.02.05-.03.02-.03.02-.05-.01-.06-.07-.02-.14 0-.2.06a.17.17 0 0 1-.1.05c-.22.02-.38-.03-.48-.15a.13.13 0 0 0-.1-.05h-.83c-.04 0-.07.02-.08.06l-.05.16a.82.82 0 0 1-.46-.08.25.25 0 0 0-.1-.03c-.19 0-.36-.05-.53-.15a.52.52 0 0 0-.22-.08l-.14-.07c-.15-.03-.25-.06-.3-.12-.11-.12-.1-.16.07-.12.22.06.42.05.58-.02Z" fill="#F2F8F8"/><path d="M9.74 8.42c.19.15.3.37.33.67 0 .04-.02.05-.06.05l-3.6-.5a.9.9 0 0 0-.16-.06.38.38 0 0 0-.17.01.59.59 0 0 1-.57-.13l.05-.16c.01-.04.04-.06.08-.06h.83c.04 0 .07.02.1.05.1.12.26.17.48.15.04 0 .07-.03.1-.05.06-.06.13-.08.2-.06.03.01.03.03.01.06l-.05.03c-.04 0-.05.03-.05.07 0 .02.02.03.06.05.27.1.51.05.7-.14.03-.03.06-.03.08 0l.02.05.04.04c.16.1.34.17.53.23.03 0 .06.02.07.04l.03.04c.01.02.03.04.06.04a2 2 0 0 1 .83.18c.17.08.22.03.15-.14-.03-.1-.07-.25-.1-.46Z" fill="#BAC1BB"/><path d="m10.5 8.51.86.12c0 .07-.04.14-.13.2a.22.22 0 0 0-.07.1c-.1.24-.29.36-.56.36-.13-.01-.2-.04-.18-.07-.11-.5-.09-.73.09-.71Z" fill="#F2F8F8"/><path d="M11.83 8.66c.15.02.3.12.48.28.01.02.03.02.04.01.17-.04.31-.04.44 0 .02.01.02.02.02.04 0 .01 0 .02-.02.02-.15.02-.3.02-.45-.02-.04 0-.08 0-.12.02l-.21.13a.16.16 0 0 1-.11.02.29.29 0 0 0-.21.03c-.3-.01-.53.01-.7.08-.09.11-.22.12-.4.02.28 0 .47-.12.57-.36a.22.22 0 0 1 .07-.1c.1-.06.14-.13.13-.2l.47.03ZM12.9 8.67c.24.1.58.16 1.02.16l.7.07c.05.09.05.16.01.23l-.05.05c-.08-.08-.21-.1-.4-.05a1.45 1.45 0 0 0-1.01-.14c-.45-.2-.54-.3-.27-.32Z" fill="#C6B68D"/><path d="M14.18 9.13c.03.01.03.04.01.08a.18.18 0 0 1-.06.05.09.09 0 0 1-.1-.03.3.3 0 0 0-.24-.1h-.07c-.04-.11-.12-.16-.23-.14a.4.4 0 0 0-.16.09.72.72 0 0 1-.11.08c-.07-.08-.1-.13-.05-.17.33-.08.67-.03 1.01.14Z" fill="#694C40"/><path d="m14.2 9.21.24.05c.05 0 .06.03.06.07a.2.2 0 0 1-.02.06c-.05.04-.14.04-.25 0-.07-.02-.1 0-.1.08-.13-.15-.27-.21-.42-.17-.04 0-.04 0-.02-.04l.1-.13a.3.3 0 0 1 .24.1c.02.03.06.04.1.03l.06-.05Z" fill="#C6B68D"/><path d="m14.59 9.18.04-.05c.1-.01.16 0 .2.04.03.03.03.06-.02.08-.1.04-.17.01-.22-.07Z" fill="#694C40"/><path d="m11.69 9.19 3.22.65V10c-.07-.01-.11-.01-.13.02l-.65-.12-2.17-.41c-.17-.09-.33-.1-.46-.05l-.28-.07-.1-.06a.39.39 0 0 0-.13-.04c.17-.07.4-.1.7-.08Z" fill="#1C0E03"/><path d="m14.48 9.39.09-.02c.03.02.04.04.03.07 0 .03-.02.05-.04.06-.17.05-.31.04-.43-.03 0-.07.03-.1.1-.08.11.04.2.04.25 0Z" fill="#313941"/><path d="M7.6 10.22c-.17 0-.26.07-.3.2a2.5 2.5 0 0 1-.12.33.81.81 0 0 0-.08.3l-.02.3c0 .02.01.04.05.05.04.01.07 0 .08-.04.07-.16.18-.2.34-.14.03.02.05.05.04.09-.06.2-.2.4-.41.6a.08.08 0 0 0-.02.1c.05.12.07.3.06.54 0 .07-.04.09-.1.06-.14-.06-.19-.18-.15-.33.04-.16 0-.18-.1-.05l-.25.3a.21.21 0 0 0-.05.12c0 .14-.1.2-.24.16a.08.08 0 0 1-.06-.05c0-.03 0-.06.02-.08.06-.06.08-.13.05-.2-.01-.04 0-.08.04-.1a.3.3 0 0 0 .15-.22c.01-.06 0-.07-.06-.04l-.18.13-.3.1a.3.3 0 0 1-.12 0c-.07 0-.13.02-.17.06-.07.09-.12.07-.13-.06l.04-.06a7.45 7.45 0 0 0 .4-.24c.17-.07.34-.16.5-.25.1-.06.17-.12.2-.18a5.44 5.44 0 0 1 .38-1.06l.04-.17a.2.2 0 0 1 .07-.12.13.13 0 0 0 .05-.09l.04-.25.3.3Z" fill="#12161D"/><path d="M10.84 11.9c-.14.07-.2.17-.16.3.01.03.04.06.08.06.1.02.19.05.25.1.02.01.05.01.07-.01l.02-.06a.1.1 0 0 1 .05-.08c.1-.06.2-.05.3.02-.12.05-.16.21-.13.48 0 .04.02.08.04.11.05.08.07.16.04.25a.22.22 0 0 0 0 .13l.17.55c.01.04 0 .08-.02.12l-.03.04c-.04.07-.03.1.04.08a.5.5 0 0 1 .04 0c.03 0 .04 0 .03.04-.02.04-.08.08-.18.13-.05.02-.07 0-.06-.04 0-.1-.05-.14-.15-.14-.05 0-.07-.03-.06-.07 0-.03.03-.06.08-.1.04-.02.05-.04.03-.08a.62.62 0 0 0-.22-.28c-.03-.02-.05-.02-.07.01-.09.14-.15.22-.2.23-.07.01-.1-.01-.1-.07v-.15c0-.05.03-.08.08-.08h.08c.03 0 .04-.01.03-.04-.01-.03-.05-.06-.1-.09-.05-.02-.06-.06-.03-.11l.1-.2a.21.21 0 0 0 .02-.13l-.03-.3a.12.12 0 0 0-.06-.1.25.25 0 0 0-.2-.03c-.06.02-.1 0-.14-.06a.19.19 0 0 1 0-.18c0-.02.04-.05.1-.1.08-.04.11-.11.12-.2 0-.04.02-.06.06-.07h.04c.03 0 .04.02.05.04l.02.07Z"/><path d="M10.84 11.9h.12c.08.05.16.06.25.02a.23.23 0 0 1 .12-.02l.24.02.06.05V12c-.02.05-.01.1.01.15a.15.15 0 0 0-.03.1h-.1l-.07-.03c-.1-.07-.2-.08-.3-.02a.1.1 0 0 0-.04.08c0 .03 0 .05-.02.06-.02.02-.05.02-.07 0a.61.61 0 0 0-.25-.09.09.09 0 0 1-.08-.07c-.03-.12.02-.22.16-.3Z" fill="#F06B68"/><defs><linearGradient id="a" x1="12.82" y1="5.66" x2="9" y2="15.14" gradientUnits="userSpaceOnUse"><stop stop-color="#BAC1BB"/><stop offset="1" stop-color="#6C6B64"/></linearGradient></defs></svg>