<!-- by TradingView --><svg width="18" height="18" viewBox="0 0 18 18" xmlns="http://www.w3.org/2000/svg"><path fill="#F0F3FA" d="M0 0h18v18H0z"/><path fill-rule="evenodd" d="M11.8 4c-.34 0-.66.13-.9.37L9 6.27l-1.9-1.9A1.26 1.26 0 0 0 6.2 4H5l3 3H6.3c-.24 0-.3.14-.3.2 0 .05 0 .25.3.25.38 0 .71.3.7.44v4.22c0 .35-.4.46-.69.55-.17.05-.31.09-.31.16 0 .16.26.19.4.18h3.22c1.66 0 2.38-1 2.38-1.75 0-.6-.55-1.18-.83-1.4.2-.12.54-.53.54-1.21 0-1-1.04-1.46-1.76-1.6L13 4h-1.2ZM8.34 8h1.34c.41 0 .75.38.75.86 0 .47-.34.85-.75.85H8.34c-.19 0-.34-.17-.34-.38v-.94c0-.22.15-.39.34-.39Zm.05 2.43a.39.39 0 0 0-.39.39v.94c0 .2.17.38.39.38h1.25a.86.86 0 0 0 0-1.71H8.4ZM10 14v-1H8v1h2Z" fill="#F5B947"/></svg>