<!-- by TradingView --><svg width="18" height="18" viewBox="0 0 18 18" xmlns="http://www.w3.org/2000/svg"><path fill="url(#a)" d="M0 0h18v18H0z"/><path fill-rule="evenodd" d="M6.4 7.57c-.18.4-.18.82.02 1.24.02.05 0 .1-.05.13a.08.08 0 0 1-.07 0c-.35-.2-.36-.75-.36-1.09v-.07c.07-.55.33-1.07.6-1.58l.09-.18a1.4 1.4 0 0 0 .12-.44l-.01-.01-.02-.01h-.01c-.13.03-.23.07-.32.13-.38.21-.8.5-1.24.84-.38.29-.76.6-1.15.92l-.34.46c-.12.17-.2.31-.2.42-.03.18-.03.34 0 .5l.2.87c.16.64.45 1.12.82 1.71l.2.33c.18.28.36.47.56.67l.08.09c.05.05.07.04.06-.03v-.32c0-.3-.01-.6-.1-.8-.14-.3-.3-.52-.46-.64l-.16-.1c-.17-.09-.36-.19-.39-.4 0-.04 0-.09.03-.13a.17.17 0 0 1 .11-.07c.6-.1 1.13-.24 1.62-.42a.4.4 0 0 1 .24 0c.03.01.04.03.03.06-.08.2-.2.32-.35.38a29.21 29.21 0 0 0-.76.31c-.06.02-.07.05-.02.1.28.28.45.5.54.93l.02.06c.08.39.19.84.12 1.23-.06.33-.38.41-.65.28a1.65 1.65 0 0 1-.6-.54l-.14-.18a3.41 3.41 0 0 1-.39-.56 9.4 9.4 0 0 1-1.02-2.59v-.03c-.06-.46-.1-.79.09-1.18.13-.31.26-.5.37-.6.24-.16.47-.36.68-.55.19-.16.37-.32.54-.44.25-.2.67-.49 1.25-.89.35-.23.78-.51 1.14-.31.13.07.18.14.14.3-.14.52-.27.9-.38 1.11-.24.5-.4.86-.48 1.1Zm5.04.05-.22.5c-.04.1-.13.15-.27.14-.16-.1-.2-.22-.14-.36l.56-1.13c.03-.05.01-.08-.05-.07-.16 0-.31.03-.46.05-.24.04-.47.08-.7.06-.2-.02-.45-.02-.76 0a.19.19 0 0 0-.1.04.2.2 0 0 0-.07.1 72 72 0 0 0-.57 1.67c-.09.27-.13.44-.19.72l-.04.2c-.06.26-.09.5-.08.71v.02c.01.5.03.96.15 1.4l.12.42c.03.1-.01.2-.13.26-.14.01-.24-.04-.3-.16a3.2 3.2 0 0 1-.33-1.6c.04-.56.09-.93.12-1.1l.15-.54c.07-.21.14-.43.18-.66.04-.2.1-.4.18-.59l.1-.3.2-.49a.14.14 0 0 0-.04-.15.12.12 0 0 0-.05-.02l-.8-.2c-.02-.01-.04 0-.05.03l-.1.76c-.05.17-.07.33-.09.5 0 .1.02.17.05.25l.03.1c.04.17 0 .2-.12.08-.16-.14-.24-.54-.27-.84.03-.5.07-1 .14-1.51.01-.13.05-.21.16-.26a.2.2 0 0 1 .15 0 .2.2 0 0 1 .1.1c.09.15.15.26.3.34.32.18.67.24 1.05.18l.08.01a.9.9 0 0 0 .55.1l1.25-.17c.35-.04.7-.15 1.03-.32.19-.09.5-.15.55.17a.1.1 0 0 1-.02.08c-.13.16-.3.29-.44.4l-.23.2c-.24.24-.43.53-.58.88Zm1.7-.46.07 1.12c0 .02 0 .04.02.06l.04.04a.11.11 0 0 0 .1 0c.29-.11 1.42-.46 1.56-.05.01.03.02.05.01.08a.16.16 0 0 1-.14.14c-.45.04-.86.16-1.24.36a.3.3 0 0 0-.15.36l.32.83c.08.23.2.44.36.64.27.35.42.54.46.57.16.14.3.27.41.4.02.01.03.04.04.07l-.01.08a.15.15 0 0 1-.06.07.14.14 0 0 1-.07.02c-.49-.02-.95-.65-1.18-1.04l-.16-.26c-.16-.26-.34-.52-.38-.78-.04-.19-.08-.35-.13-.49-.02-.05-.06-.07-.11-.06-.24.08-.45.26-.65.43l-.1.09c-.12.1-.25.27-.38.51-.55 1.03-.95 1.8-1.2 2.3a.25.25 0 0 1-.11.1.2.2 0 0 1-.15.01c-.12-.05-.17-.14-.13-.26.18-.56.47-1.03.76-1.51a25.27 25.27 0 0 0 .26-.46.2.2 0 0 0-.04-.15.19.19 0 0 0-.06-.05l-.08-.05a.07.07 0 0 1-.03-.02.08.08 0 0 1 0-.04l-.05-.26a1.13 1.13 0 0 1-.04-.38l.06-.3c.02-.04.04-.06.08-.06.02 0 .03.02.04.04l.14.53.02.04.05.02h.04l.04-.04.03-.07c.06-.13.14-.3.24-.44.12-.18.2-.33.23-.45l.33-1.19c.1-.3.21-.6.33-.89a.7.7 0 0 1 .23-.3.09.09 0 0 1 .11 0c.16.11.2.3.23.49a2 2 0 0 0 .04.2Zm-.43.48.12 1a.1.1 0 0 1-.01.05.76.76 0 0 1-.36.32c-.07.03-.14.07-.22.13-.03.03-.04.02-.03-.02l.47-1.48c.01-.04.02-.04.03 0Z"/><defs><linearGradient id="a" x1="9" y1="0" x2="9" y2="18" gradientUnits="userSpaceOnUse"><stop stop-color="#6266AC"/><stop offset=".2" stop-color="#BD67AE"/><stop offset="1" stop-color="#FEAD6B"/></linearGradient></defs></svg>