<!-- by TradingView --><svg width="18" height="18" viewBox="0 0 18 18" xmlns="http://www.w3.org/2000/svg"><path fill="url(#a)" d="M0 0h18v18H0z"/><path fill-rule="evenodd" d="M6.7 6a.86.86 0 0 1-.7.7v1.45c.1.02.2.06.3.11l1.5-1.81A.85.85 0 0 1 7.59 6H6.7Zm-.03 2.74.02.08h3.19a.86.86 0 1 1-.01.33H6.7l-.02.08 4.81 2.36a.86.86 0 0 1 1.51.55.86.86 0 0 1-1.7.17H9.27a.86.86 0 0 1-1.68 0h-.9a.86.86 0 1 1-1-1V9.83a.86.86 0 0 1 0-1.68V6.7a.86.86 0 1 1 1-1h.9a.86.86 0 0 1 1.68 0h2.03a.86.86 0 1 1 .17.7l-4.8 2.34ZM9.27 12h2.03l.03-.12-4.72-2.3 1.49 1.77a.85.85 0 0 1 1.17.65Zm-.84-5.29c.42 0 .78-.3.84-.71h2.02l.02.1-4.7 2.3 1.47-1.76c.1.05.22.07.35.07ZM6.7 12h.88a.86.86 0 0 1 .24-.46l-1.5-1.81c-.1.06-.2.1-.32.12v1.45c.36.06.64.34.7.7Zm-.84-5.64a.5.5 0 1 0 0-1 .5.5 0 0 0 0 1Zm0 3.15a.5.5 0 1 0 0-1.02.5.5 0 0 0 0 1.02ZM11.22 9a.5.5 0 1 1-1.01 0 .5.5 0 0 1 1.01 0Zm-5.36 3.65a.5.5 0 1 0 0-1.01.5.5 0 0 0 0 1Zm3.07-6.8a.5.5 0 1 1-1 0 .5.5 0 0 1 1 0Zm-.5 6.8a.5.5 0 1 0 0-1.01.5.5 0 0 0 0 1Zm4.22-6.79a.5.5 0 1 1-1.02 0 .5.5 0 0 1 1.02 0Zm-.5 6.79a.5.5 0 1 0 0-1.01.5.5 0 0 0 0 1Z" fill="#fff"/><defs><linearGradient id="a" x1="3.35" y1="3.12" x2="21.9" y2="24.43" gradientUnits="userSpaceOnUse"><stop stop-color="#1A1E21"/><stop offset="1" stop-color="#06060A"/></linearGradient></defs></svg>