<!-- by TradingView --><svg width="18" height="18" viewBox="0 0 18 18" xmlns="http://www.w3.org/2000/svg"><path fill="#F0F3FA" d="M0 0h18v18H0z"/><path d="m13 11-2-2-3 2v4l5-4Z" fill="url(#armwt2ops)"/><path d="m7.5 8.5-.5-2-2 2 .5.5 2-.5Z" fill="url(#brmwt2ops)"/><path d="M9 6.5V3l1.5 4L9 6.5Z" fill="url(#crmwt2ops)"/><path d="M10.5 7 9 6.5l-4 5 2.5 2 3-6.5Z" fill="url(#drmwt2ops)"/><path d="M11 9V7l2 4-2-2Z" fill="url(#ermwt2ops)"/><path d="M7 6.5 7.5 4 5 8.5l2-2Z" fill="url(#frmwt2ops)"/><defs><linearGradient id="armwt2ops" x1="13.22" y1="10.93" x2="8.68" y2="11.58" gradientUnits="userSpaceOnUse"><stop stop-color="#5C02FF"/><stop offset=".79" stop-color="#5402DB"/><stop offset="1" stop-color="#35077D"/></linearGradient><linearGradient id="brmwt2ops" x1="7.38" y1="7.93" x2="5.22" y2="8.36" gradientUnits="userSpaceOnUse"><stop stop-color="#35028B"/><stop offset=".31" stop-color="#5704E7"/><stop offset="1" stop-color="#4101BA"/></linearGradient><linearGradient id="crmwt2ops" x1="8.67" y1="3" x2="10.16" y2="7.51" gradientUnits="userSpaceOnUse"><stop stop-color="#7412FD"/><stop offset="1" stop-color="#9A39FC"/></linearGradient><linearGradient id="drmwt2ops" x1="9.32" y1="6.43" x2="6.98" y2="13.73" gradientUnits="userSpaceOnUse"><stop stop-color="#6001FF"/><stop offset="1" stop-color="#7E1FFF"/></linearGradient><linearGradient id="ermwt2ops" x1="11.27" y1="7.93" x2="12.76" y2="10.73" gradientUnits="userSpaceOnUse"><stop stop-color="#7D2BD8"/><stop offset="1" stop-color="#A35CEA"/></linearGradient><linearGradient id="frmwt2ops" x1="7.59" y1="4.71" x2="5.24" y2="8.16" gradientUnits="userSpaceOnUse"><stop stop-color="#7416F0"/><stop offset="1" stop-color="#9A43FF"/></linearGradient></defs></svg>