<!-- by TradingView --><svg width="18" height="18" viewBox="0 0 18 18" xmlns="http://www.w3.org/2000/svg"><path fill="#3D9B4E" d="M0 0h18v18H0z"/><path d="M15 10.92c-.09.15-.18.3-.28.43a5.88 5.88 0 0 0-.9-2.83h-.02l-.01.02-.1.12c-.03.04-.04.04-.04-.01v-.2c.14-.29.17-.58.08-.87-.06-.23-.15-.28-.28-.17a5.7 5.7 0 0 1-2.4.4l-.99-.15a.64.64 0 0 0-.11-.1c-.12-.07-.1-.1.04-.08l.08-.02c.03 0 .04-.02.02-.04-.56-.81-.86-1.53-.47-2.44.04-.1.02-.12-.07-.04l-.76.7-.6.56a.07.07 0 0 0-.03.04v.04l1 1.54.02.01a.04.04 0 0 0 .04 0l.01-.01c.02-.05.06-.1.1-.14.03-.02.05-.02.07.01.02.03.02.06.01.1-.15.28-.27.47-.38.56-.5.46-1.01.78-1.55.97-.28.1-.64.13-1.07.1a1.6 1.6 0 0 0-.5-.07c-.03 0-.06 0-.09.02a.16.16 0 0 0-.06.06.14.14 0 0 0 0 .14c.08.12.19.2.32.26.03.02.03.03 0 .03h-.04a.73.73 0 0 1-.5-.34c0-.21.15-.33.45-.36.09 0 .11-.05.07-.12a5 5 0 0 1-.88-2.2c0-.04-.02-.05-.04-.03l-.35.24c-.11.07-.22.17-.34.3-.4.44-.7.93-.93 1.46l-.16.53a1.9 1.9 0 0 1-.23.51c-.05-.16-.1-.32-.13-.49.2-.59.47-1.13.8-1.61.3-.46.69-.85 1.16-1.16.18-.13.37-.59.63-.84.3-.28.78-.35 1.24-.34.44.01.81.2 1.11.59.03.03.06.03.1 0 .7-.62 1.02-.94 1.6-1.35.6-.42 1.2-.87 1.94-.53.4.2.73.5.97.9.23.4.45 1 .66 1.79.05.18.46.27.6.43.28.3.33.64.15 1a.12.12 0 0 0 .01.13c.14.2.25.32.34.5.31.65.54 1.34.69 2.05Z" fill="#160F10"/><path d="M8.8 5.63a11.88 11.88 0 0 0 .79 1.76c0 .02 0 .05-.02.07l-.16.33v-.1c-.03-.03-.05-.03-.08 0a.42.42 0 0 0-.1.13l-.01.01h-.06l-1-1.55a.06.06 0 0 1 0-.04l.02-.04.61-.57ZM5.55 9.52c-.2.53-.28 1.1-.24 1.67.05.53.22 1 .52 1.43.04.06.16.19.37.4.13.12.24.26.33.41a6.4 6.4 0 0 1-2.13-1.46 5.59 5.59 0 0 1-1.27-2.12c.1-.15.18-.32.23-.5l.16-.54c.22-.53.53-1.02.93-1.46.12-.13.23-.23.34-.3l.35-.24c.02-.02.04-.01.04.02a5 5 0 0 0 .88 2.21c.04.07.02.11-.07.12-.3.03-.45.15-.44.36ZM13.65 8.45a3.47 3.47 0 0 0-.2-1.04c.13-.1.22-.05.28.17.09.29.06.58-.08.87ZM11.04 7.82c-.1.09-.14.21-.1.36v.03l-.02.02h-.05c-.36-.11-.63-.3-.8-.57l.97.16Z" fill="#20532A"/><path d="M6.4 9.42c-.18.1-.26.24-.23.43 0 .03-.01.04-.04.04a.15.15 0 0 1-.09-.03h.04c.03 0 .03-.01 0-.03a.73.73 0 0 1-.31-.26.14.14 0 0 1 0-.14.16.16 0 0 1 .05-.06.18.18 0 0 1 .08-.02c.16 0 .33.02.5.07Z" fill="#20532A"/><path d="M10.67 5.49c-.06.15-.04.23-.02.36.03.23-.11.42-.38.44-.64.07-.58-.72-.44-1.07.14-.35.65-1 1.1-.58.18.17.16.4-.02.55-.1.1-.18.15-.24.3ZM6.43 6.88c-.03.17 0 .26.08.4.1.21 0 .45-.22.53-.69.23-.8-.7-.73-1.07.08-.38.56-1.2 1.1-.77.17.14.17.4 0 .56-.12.12-.2.19-.23.35ZM12.09 6.7c0-.1-.16-.22-.1-.36a.32.32 0 0 1 .27-.21c.33-.05.47.4.46.6-.01.2-.19.63-.5.56a.31.31 0 0 1-.26-.23c-.05-.15.12-.25.13-.36ZM8.78 7.83c0 .2-.18.63-.5.55a.31.31 0 0 1-.25-.23c-.05-.14.12-.25.13-.35 0-.1-.16-.22-.1-.36a.32.32 0 0 1 .27-.21c.33-.05.47.4.45.6Z" fill="#fff"/><path d="M10.42 9.32c.36.09.62 0 .8-.24.22-.35.43-.78.95-.55.6.25.75.67.45 1.23-.24.45-.6.78-1.08 1-.7.31-1.54.11-2.16-.28-.5-.32-.35-.97.09-1.23.23-.13.64 0 .95.07Z" fill="#160F10"/><path d="M10.89 9.57c.37-.05.56-.34.74-.64.13-.22.25-.3.51-.15.72.38.13 1.15-.28 1.5-.4.34-.9.46-1.46.34-.52-.12-1.51-.46-.87-1.12.14-.14.42-.01.74.06.18.04.4.05.62.01Z" fill="#B24357"/><path d="M9.79 9.77c.58.1 1.26.5 1.7-.08l.32-.55c.03-.06.1-.09.18-.08l.04.02a.1.1 0 0 1 .04.05v.06c-.3.62-.6 1.14-1.39 1.06a6.2 6.2 0 0 1-.98-.33.1.1 0 0 1-.01-.08v-.02c.02-.04.05-.06.1-.05Z" fill="#160F10"/></svg>