<!-- by TradingView --><svg width="18" height="18" viewBox="0 0 18 18" xmlns="http://www.w3.org/2000/svg"><path fill="#0068B3" d="M0 0h18v18H0z"/><path d="M5 5.3c1.63 0 2.94-.35 4-.78 1.02.43 2.25.8 4 .79l-.03 5.68c-.14 1.7-1.17 3.12-3.98 4.01-2.31-.68-3.8-1.91-3.96-4.01L5 5.3ZM5.7 4.58l.08-.43-.33-.3.46-.04.22-.4.21.4.47.04-.33.3.09.43-.44-.18-.43.18ZM7.56 4.18l.08-.43-.33-.3.46-.04.22-.41.21.41.47.04-.33.3.08.43L8 3.99l-.43.19ZM9.56 4.18l.08-.43-.33-.3.46-.04.22-.41.22.41.46.04-.33.3.08.43-.43-.19-.43.19ZM11.42 4.58l.08-.43-.34-.3.46-.04.23-.4.21.4.46.04-.32.3.08.43-.43-.18-.43.18Z" fill="#BFAE76"/><path d="M5.34 5.51a9.13 9.13 0 0 0 3.64-.75c.97.4 2.01.77 3.67.75l.02 5.44c-.13 1.62-.99 2.9-3.69 3.85-2.2-.8-3.5-1.87-3.65-3.85V5.51Z" fill="#0068B3"/><path d="M10.06 13.76c-.35.17-.71.3-1.07.45a8.28 8.28 0 0 1-1.06-.45V9.13c.56.57 1.56.54 2.13 0v4.63Z" fill="#FFFEFF"/><path d="M8 9.2v4.6c-1.16-.6-1.94-1.47-2-2.82l.03-2.6s1.02-.23 1.54-.28c.02.48.18.85.43 1.1Z" fill="#00AB49"/><path d="M10 13.8c1.01-.5 1.87-1.2 2-2.65V8.36s-1.05-.22-1.58-.26c0 .48-.15.84-.42 1.1v4.6Z" fill="#F11126"/><path d="M7.96 8.7c-.26-1.25 1.07-1.24 1.5-1.1-.7-1.15-2.16.2-1.5 1.1Z" fill="#BFAE76"/><path d="M10.01 8.76c-1.1.85-1.75-.36-1.77-.7-.7 1.18 1.27 1.7 1.77.7Z" fill="#BFAE76"/><path d="M9.05 7.05c1.26.5.58 1.53.23 1.78 1.4.02.96-1.8-.23-1.78ZM5.97 7.86v-.23c.6-.14 1.2-.2 1.81-.26a.7.7 0 0 0-.11.22c-.58.05-1.15.14-1.7.27ZM12.03 7.87v-.23c-.6-.14-1.2-.2-1.8-.26.05.08.08.15.1.22.59.05 1.15.13 1.7.27ZM6 7.2l.22-.07V6.02L6 6.06V7.2ZM7 7l.25-.04v-.92l.3-.05V5.8l-.88.12v.2L7 6.06V7ZM8.67 6.43l-.42.02V6c0-.02.04-.04.07-.04l.28-.02c.02 0 .07.02.07.04v.45ZM8 6.88l.27-.02v-.2l.4-.02v.2h.26l-.01-.97c0-.06-.08-.14-.16-.14l-.56.03c-.1 0-.2.1-.2.18v.94ZM9.33 6.84v-1.1h.25v.93l.47.03v.18l-.72-.04ZM10.44 6.94l.23.02v-1.1l-.23-.05v1.13ZM11.24 5.93c-.08 0-.17.04-.17.1l-.02.98.28.05v-.23l.4.06v.24l.27.06v-1c0-.07-.1-.14-.18-.16l-.56-.1h-.02Zm.12.2h.01l.32.06c.02 0 .05.02.05.04l-.01.45-.4-.06v-.45l.03-.03Z" fill="#BFAE76"/></svg>