<!-- by TradingView --><svg xmlns="http://www.w3.org/2000/svg" width="18" height="18"><path fill="url(#az0ewdjdz)" d="M0 0h18v18H0z"/><path d="M6.53 12.69c.04.32.35.52.77.39l5.99-3.98c.3-.22.3-.66-.13-.94L6.9 4.04c-.15-.1-.37 0-.37.18v2l3.82 2.47-3.82 2.47v1.53z" fill="url(#bz0ewdjdz)"/><path d="M11.47 13.57c-.04.32-.34.52-.76.39l-5.99-3.87a.65.65 0 01.13-1.06l6.27-4.11c.15-.1.35 0 .35.19v1.94L7.6 9.57l3.87 2.48v1.52z" fill="url(#cz0ewdjdz)"/><path d="M9.67 5.87l-1.83 1.2 1.8 1.16 1.82-1.19-1.79-1.17zm.46 5.33L8.3 10.01l-1.77 1.13v.11l1.78 1.15 1.82-1.22z" fill="#fff"/><defs><linearGradient id="az0ewdjdz" x1="9" y1="0" x2="9" y2="18" gradientUnits="userSpaceOnUse"><stop stop-color="#5AB6CC"/><stop offset=".76" stop-color="#244790"/></linearGradient><linearGradient id="bz0ewdjdz" x1="6.26" y1="3.18" x2="10.78" y2="11.4" gradientUnits="userSpaceOnUse"><stop offset=".26" stop-color="#fff"/><stop offset=".84" stop-color="#95C9E3"/></linearGradient><linearGradient id="cz0ewdjdz" x1="9.09" y1="4.05" x2="12.34" y2="13.65" gradientUnits="userSpaceOnUse"><stop offset=".38" stop-color="#95C9E3"/><stop offset=".94" stop-color="#fff"/></linearGradient></defs></svg>