<!-- by TradingView --><svg width="18" height="18" viewBox="0 0 18 18" xmlns="http://www.w3.org/2000/svg"><path fill="#110E39" d="M0 0h18v18H0z"/><path d="M10.38 8.29c.01-.03 0-.05-.03-.05a1.49 1.49 0 0 0-.87.3.06.06 0 0 0 0 .06c.23.24.6.3.78-.02.06-.1.1-.2.12-.3ZM7.66 8.24a1.48 1.48 0 0 1 .87.29.06.06 0 0 1-.01.07c-.23.24-.59.29-.78-.02a.95.95 0 0 1-.12-.3c0-.03 0-.04.04-.04ZM8.83 10.3c-.08.1-.23.08-.33-.02s-.11-.27-.03-.36c.08-.09.22-.08.32.03.1.1.12.26.04.35ZM9.5 10.28c.1-.1.11-.27.03-.36-.08-.09-.23-.08-.33.03-.1.1-.11.26-.03.35.08.1.23.08.33-.02ZM8.4 11h1.2c.1 0 .2.1.2.21v.03c0 .12-.1.2-.2.2H8.4c-.11 0-.2-.08-.2-.2v-.03c0-.11.09-.2.2-.2Z" fill="#fff"/><path d="M10.3 9.65c.23.45.38.93.42 1.44.04.48-.06.89-.32 1.22-.25.32-.64.51-1.01.58-.16.03-.36.03-.6.02a1.67 1.67 0 0 1-1.16-.57 1.65 1.65 0 0 1-.36-1.05c0-.17.02-.36.07-.58.09-.36.23-.72.42-1.07.01-.02 0-.03-.01-.03a1.29 1.29 0 0 1-.63-.2 1.13 1.13 0 0 1-.51-1.03c0-.43.25-.8.6-.99.35-.19.79-.17 1.14 0l.47.24c.16.09.33.09.49.01l.4-.21c.35-.2.78-.24 1.13-.03.29.18.47.45.54.81a1.49 1.49 0 0 1-.04.6c-.17.48-.51.75-1.03.8-.03 0-.03.01-.02.04Zm-.66-.26c0-.07.02-.14.06-.19.03-.04.1-.06.2-.06h.15c.17 0 .33.01.46-.04a.7.7 0 0 0 .45-.77.68.68 0 0 0-.57-.6c-.19-.04-.39.07-.6.18l-.07.04c-.21.1-.37.17-.47.19-.35.06-.6-.06-.95-.25a1.6 1.6 0 0 0-.6-.17.71.71 0 0 0-.65.84c.06.35.37.56.7.58h.38c.07 0 .12.02.15.05.06.05.08.11.08.18 0 .05-.03.12-.1.21-.24.38-.41.8-.52 1.28-.13.6 0 1.06.4 1.35.39.28.98.32 1.42.15.33-.12.56-.34.68-.66.08-.22.09-.5.02-.85-.1-.5-.29-.93-.55-1.3-.05-.07-.07-.12-.07-.16Z" fill="#fff"/><path fill-rule="evenodd" d="M11.9 7.3a.95.95 0 0 1 .44-.03c.23.04.4.17.53.38.09.14.13.34.13.61 0 .42-.05.78-.15 1.09a.87.87 0 0 1-.34.45c-.02 0-.02.02-.02.04.12.47.14.9.05 1.27-.1.42-.28.8-.57 1.14-.17.21-.45.45-.82.7-.44.31-1 .63-1.7.97-.2.1-.45.1-.76.04a10.27 10.27 0 0 1-2.28-1.32c-.16-.12-.29-.26-.4-.4a3.43 3.43 0 0 1-.32-.49 2.51 2.51 0 0 1-.18-1.9L5.5 9.8a.84.84 0 0 1-.32-.36c-.14-.39-.2-.83-.17-1.32 0-.18.03-.31.07-.4.22-.4.56-.54 1.01-.42.02 0 .03 0 .04-.02.05-.3.11-.57.18-.81.14-.5.35-.95.65-1.35.32-.43.7-.75 1.15-.94a2.37 2.37 0 0 1 2.27.26c.6.43 1.04 1.14 1.26 1.88.09.3.17.62.23.96 0 .02.01.03.03.02ZM9 4.46c1.22 0 2.05 1.14 2.32 2.31.16.69.3 1.4.45 2.13.02.13.1.41.24.87.1.34.16.6.16.78.01.34-.08.68-.26 1.01-.17.3-.38.54-.63.73-.56.43-1.15.79-1.75 1.08a2.22 2.22 0 0 1-.54.17h-.04c-.17-.04-.33-.1-.49-.17-.6-.3-1.19-.65-1.75-1.08a2.3 2.3 0 0 1-.63-.74 1.97 1.97 0 0 1-.26-1c0-.18.06-.44.17-.8.14-.44.22-.73.24-.86.14-.73.3-1.44.45-2.12.28-1.17 1.1-2.3 2.32-2.3Zm-3.57 3.8v.39a1.7 1.7 0 0 0 .2.68.02.02 0 0 0 .03 0l.01-.01a14.29 14.29 0 0 0 .32-1.55l-.02-.02-.03-.01c-.2-.04-.34 0-.44.14-.05.08-.08.2-.07.38Zm7.13.39a1.7 1.7 0 0 1-.2.67v.01a.02.02 0 0 1-.02 0l-.01-.01A14.26 14.26 0 0 1 12 7.77a.08.08 0 0 1 .04-.04c.2-.04.35.01.44.15.06.08.08.2.08.38l-.01.39Z" fill="#fff"/></svg>