<!-- by TradingView --><svg width="18" height="18" viewBox="0 0 18 18" xmlns="http://www.w3.org/2000/svg"><path fill="url(#a)" d="M0 0h18v18H0z"/><path d="M6.23 7.43c.3-.49.51-1.2.62-1.47 0 2.13-.62 2.45-.62 4.25a3.08 3.08 0 0 0 1.54 2.62 4.78 4.78 0 0 1-1.08-2.62c0-1.3 1.85-3.6 1.85-4.58 0-.72-.26-1.12-.42-1.27.61.5 1.5 1.64 1.5 3.24 0 1.63-1.24 1.47-1.08 3.6.12 1.7 1.28 2.01 2 1.96-.37 0-.51-.22-.62-.33 2.16-.33 2.98-2.62 2.93-3.93.05.33.15 1.18.15 1.97 0 .98-.77 2.78-2.77 2.78-1.6 0-2.2-1.75-2.3-2.62a3.02 3.02 0 0 0 1.53 2.94A3.87 3.87 0 0 1 5 10.21c0-1.3.85-2.17 1.23-2.78Z" fill="#FCF7F4"/><path d="M10.54 6.45A6.92 6.92 0 0 1 9.3 4c0 2.13 1.38 3.43 1.38 5.56 0 1.18-1.23 2.34-1.84 2.78.46.98 1.43.93 1.69.82-.25 0-.51-.22-.62-.33 3.23-.33 2.93-3.1 2.93-3.93 0-.65-.72-1.68-1.08-2.12.26.33.74 1.37.61 2.94-.12 1.57-1.59 2.18-2.3 2.3.56-.39 1.69-1.15 1.69-2.46 0-1.3-.46-2.29-1.23-3.1Z" fill="url(#b)"/><path d="M8.85 12.34c1.07-.33 1.84-1.73 1.84-2.78 0-1.15-.3-1.96-.46-2.29.15 1.3-.77 2.29-1.23 3.27a2.5 2.5 0 0 0-.15 1.8Z" fill="url(#c)"/><defs><linearGradient id="a" x1="5.3" y1="2.89" x2="12.54" y2="15.75" gradientUnits="userSpaceOnUse"><stop stop-color="#DA262F"/><stop offset="1" stop-color="#A5202C"/></linearGradient><linearGradient id="b" x1="10.85" y1="4" x2="10.85" y2="13.2" gradientUnits="userSpaceOnUse"><stop stop-color="#FFBA72"/><stop offset="1" stop-color="#F57337"/></linearGradient><linearGradient id="c" x1="9.72" y1="7.27" x2="9.72" y2="12.34" gradientUnits="userSpaceOnUse"><stop stop-color="#FA7E36"/><stop offset="1" stop-color="#F5632A"/></linearGradient></defs></svg>