<!-- by TradingView --><svg width="18" height="18" viewBox="0 0 18 18" xmlns="http://www.w3.org/2000/svg"><path fill="#181B1E" d="M0 0h18v18H0z"/><path d="M12.38 6.9a.35.35 0 0 1-.24.1H4.2c-.17 0-.27-.19-.17-.32L5.6 5.1c.07-.06.15-.1.24-.1h7.96c.17 0 .27.19.17.32l-1.6 1.58ZM12.38 12.9a.35.35 0 0 1-.24.1H4.2c-.17 0-.27-.19-.17-.32L5.6 11.1c.07-.07.15-.1.24-.1h7.96c.17 0 .27.19.17.32l-1.58 1.59-.01-.01ZM12.38 8.1a.35.35 0 0 0-.24-.1H4.2c-.17 0-.27.19-.17.32L5.6 9.9c.07.06.15.1.24.1h7.96c.17 0 .27-.19.17-.32l-1.58-1.59-.01.01Z" fill="#1DD8E9"/></svg>