<!-- by TradingView --><svg width="18" height="18" viewBox="0 0 18 18" xmlns="http://www.w3.org/2000/svg"><path fill="#F0F3FA" d="M0 0h18v18H0z"/><circle cx="9" cy="9" r="6" fill="#111135"/><path d="M8.97 3.23a3.48 3.48 0 0 0-1 .88.36.36 0 0 0-.08.13l-.12.03.04-.06c0-.02 0-.02-.02-.02-.06.02-.12.03-.19.03h-.4a.2.2 0 0 1-.13-.06l-.02-.03c0-.04 0-.08.02-.12a.78.78 0 0 1 .25-.36c.14-.11.23-.2.28-.25l.2-.04a7 7 0 0 1 1.17-.13Z" fill="#FFEE4C"/><path d="M14.68 9.99a.8.8 0 0 0-.16.26.17.17 0 0 1-.08.09c-.22.12-.37-.8-.38-.9-.07-.46-.15-.93-.25-1.4a2.53 2.53 0 0 0-.2-.5v.04l-.16-.46A4.8 4.8 0 0 0 9.8 4.2a4.96 4.96 0 0 0-1.91.04c.01-.05.04-.1.08-.13l.12-.12c.24-.3.54-.55.88-.76a5.7 5.7 0 0 1 4.57 2.21A5.75 5.75 0 0 1 14.68 10Z" fill="#FFC72F"/><path d="M7.6 3.4c-.05.05-.14.14-.28.25-.12.1-.2.22-.25.36a.31.31 0 0 0-.02.12c0 .01 0 .02.02.03a.2.2 0 0 0 .13.05l.4.01c.07 0 .13-.01.2-.03.01 0 .02 0 0 .02l-.03.06c-.24.07-.47.15-.67.24-.2-.02-.33-.1-.4-.21a.42.42 0 0 1-.06-.35l.05-.21c.28-.14.59-.25.91-.34Z" fill="#fff"/><path d="m6.69 3.74-.05.21a.42.42 0 0 0 .06.35c.07.12.2.19.4.21l-.44.2a.7.7 0 0 1-.2.01l-.2-.05c-.18-.04-.23-.27-.18-.41A.6.6 0 0 1 6.22 4L6.23 4l-.01-.03.47-.22Z" fill="#FFEE4C"/><path d="m6.22 3.96.01.03V4a.6.6 0 0 0-.15.25c-.05.14 0 .37.17.41l.21.05h.2A4.86 4.86 0 0 0 5 6.15v-.14c0-.07 0-.12-.02-.14-.02-.05-.07-.07-.13-.08a.68.68 0 0 0-.46.1c-.15.1-.3.22-.46.35a5.52 5.52 0 0 1 2.29-2.28Z" fill="#fff"/><path d="M10.73 4.68a27.1 27.1 0 0 1-.84-.1c-.37-.01-.7 0-1.07.05-.47.07-.92.17-1.37.3-.23.06-.46.17-.67.33a1.72 1.72 0 0 1-.09-.06c-.14-.1-.3-.13-.38.07l-.17.47c-.25.2-.46.41-.64.65-.25.33-.47.69-.66 1.06-.1.22-.18.4-.22.55-.08.31-.18.8-.31 1.48l-.04-.29A4.6 4.6 0 0 1 5.6 5.74c.3-.3.64-.56 1.04-.8l.17-.07a4.35 4.35 0 0 1 2.36-.55 4.45 4.45 0 0 1 1.58.35Z" fill="#D64B1B"/><path d="M10.73 4.68a4.66 4.66 0 0 1 2.2 1.85 1.3 1.3 0 0 1-.24-.24l-.2-.24a2.93 2.93 0 0 0-.74-.6c-.14-.08-.26-.18-.38-.27a6.02 6.02 0 0 0-2.48-.21c-.6.09-1.17.29-1.7.59l-.4-.3c.2-.16.43-.27.66-.34.45-.12.9-.22 1.37-.3a5.85 5.85 0 0 1 1.91.06Z" fill="#FF9328"/><path d="M12.93 6.53a4.5 4.5 0 0 1 .7 2.21 4.63 4.63 0 0 1-1.12 3.3 4.66 4.66 0 0 1-7.77-1.02c0-.3-.01-.6-.03-.88a7.64 7.64 0 0 1 0-1.22c.07-.52.24-1.02.5-1.5a4.45 4.45 0 0 1 .68-.86c.79.34 1.12-.9 1.3-1 .53-.3 1.1-.5 1.7-.6.44-.06.9-.08 1.34-.05a4 4 0 0 1 1.14.27c.12.1.24.2.38.27a2.93 2.93 0 0 1 .94.84c.07.1.15.17.24.24Z" fill="#FFC72F"/><path d="m5.64 10.64.26-.1h.03c.17.01.33-.02.47-.1h.01c2.49-2 3.8.5 5.19-4.73-.01-.08-.03-.19-.07-.32.09.07.14.16.15.27.02.12.02.26.02.4-.01.15 0 .27.03.41.02.15.08.27.12.4a1.48 1.48 0 0 1-.16 1.1v.02a.4.4 0 0 1 .06.23c0 .09-.06.15-.11.22a.03.03 0 0 0 0 .03 1 1 0 0 1 .11.36c0 .02.01.03.03.03.1.01.24-.03.25.12.01.11 0 .22-.02.32 0 .02 0 .04.02.05.18.12.33.26.45.43.07.1.05.18-.03.27a1.5 1.5 0 0 1-.22.2.05.05 0 0 0-.02.05c.02.1.02.22 0 .32-.01.1-.08.22-.07.33.03.28.04.62-.03.9-.07.24-.18.53-.46.62-.1.03-.17-.07-.22-.14a.02.02 0 0 0-.02 0 .02.02 0 0 0-.01 0c-.09.17-.2.3-.32.4-.28.22-.57.37-.87.45-.19.05-.39.1-.6.12-.21.02-.45 0-.71-.04-.5-.1-1.04-.28-1.37-.68a2.95 2.95 0 0 1-.2-.3.55.55 0 0 1-.07-.15c-.02-.07-.08-.07-.13-.1a.74.74 0 0 1-.43-.55.03.03 0 0 0-.03-.02c-.07.03-.16.04-.21-.02a.36.36 0 0 1-.08-.12 1.53 1.53 0 0 1-.1-.6h-.01l-.01-.01h-.01a.74.74 0 0 1-.34-.01c-.07-.02-.13 0-.2 0-.04-.01-.06-.03-.07-.06Z" fill="#D64B1B"/><path d="M6.14 5.74c-.12.3-.2.57-.25.82a4.45 4.45 0 0 0-.68.86 4.26 4.26 0 0 0-.53 2.11c0 .17 0 .37.03.61.02.29.03.58.03.88a4.16 4.16 0 0 1-.43-1.53c.13-.69.23-1.18.31-1.49.04-.15.11-.33.22-.55.2-.37.41-.73.66-1.06.18-.24.39-.45.64-.65Z" fill="#FF9328"/><path d="M5 6.15a5 5 0 0 0-.43.73c-.02-.08-.01-.16-.04-.22-.05-.15-.17-.22-.35-.2a.65.65 0 0 0-.3.07l-.14.1.2-.4c.15-.12.3-.24.45-.33.14-.1.3-.13.46-.11.06 0 .1.03.13.08.02.02.03.07.03.14v.14Z" fill="#FFEE4C"/><path d="M4.57 6.88c-.1.2-.2.43-.26.67-.02-.03-.03-.08-.02-.13V7.3a2.54 2.54 0 0 0-.04-.3c-.03-.18-.22-.12-.33-.06-.07.04-.21.14-.41.3.06-.23.14-.43.23-.61l.15-.1a.65.65 0 0 1 .29-.07c.18-.02.3.05.35.2.03.06.02.14.04.22Z" fill="#fff"/><path d="M4.3 7.55a4.88 4.88 0 0 0-.15 2.26.1.1 0 0 1-.02.08l-.02.03-.04.15c-.1.5-.17 1.02-.2 1.57a5.7 5.7 0 0 1-.36-4.4c.2-.16.34-.26.41-.3.11-.06.3-.12.33.06l.05.3a.5.5 0 0 1-.01.12c-.01.05 0 .1.02.13Z" fill="#FFEE4C"/><path d="M5.87 8.38a.61.61 0 0 1-.32-.37 1.18 1.18 0 0 1-.04-.5c.01.1.04.23.08.38.06.2.18.35.35.45v.01a.18.18 0 0 1-.07.03Z" fill="#D64B1B"/><path d="m14.68 9.99-.02.17c-.13.5-.26.95-.5 1.4l-.03.01a.03.03 0 0 0-.02.02.22.22 0 0 1-.05.05c-.13.12-.4.35-.57.2-.17-.14-.09-.54-.04-.72l.02-.08c0-.07-.01-.1-.05-.08.46-1.06.54-2.28.2-3.38v-.04h.01c.1.2.15.37.18.5.1.47.18.94.25 1.4.01.1.16 1.02.38.9a.17.17 0 0 0 .08-.09.8.8 0 0 1 .16-.26Z" fill="#FFEE4C"/><path d="M4.15 9.81a4.82 4.82 0 0 0 1.52 2.79c0 .03 0 .05.03.07a6.46 6.46 0 0 0 2.22 1.55l.53.2c.18.06.38.1.57.15a5 5 0 0 0 .55.09.4.4 0 0 1 .18.06 4.92 4.92 0 0 1-1.87-.05 5.82 5.82 0 0 1-4-3.03 9.24 9.24 0 0 1 .25-1.75.1.1 0 0 0 .02-.08Z" fill="#FFC72F"/><path d="M13.42 10.96c.04-.01.06.01.05.08 0 .03 0 .05-.02.08-.05.18-.13.58.04.72.17.15.44-.08.57-.2a.22.22 0 0 0 .05-.05v-.01h.02l.03-.02c-.14.3-.31.58-.5.85-.27.01-.55-.06-.63-.35a.86.86 0 0 1-.01-.17c0-.05 0-.1-.02-.16.16-.24.3-.5.42-.77Z" fill="#fff"/><path d="m13.65 12.4-.4.5c-.3-.01-.49-.12-.55-.34a73.63 73.63 0 0 0-.02-.41l.32-.42.02.16.01.17c.08.29.36.36.62.35Z" fill="#FFEE4C"/><path d="M12.68 12.15a73.52 73.52 0 0 1 .02.4c.06.23.25.34.56.35a5.86 5.86 0 0 1-2.07 1.44.6.6 0 0 0-.05-.43.58.58 0 0 0-.2-.2l-.27-.14c.79-.3 1.46-.78 2.01-1.42Z" fill="#fff"/><path d="M5.67 12.6a4.84 4.84 0 0 0 3.8 1.25c.1.07.24.13.4.16.1.02.17.06.25.14.1.09.11.25 0 .33-.1.06-.19.12-.3.17-.02.02-.03.04-.02.07h-.05a.4.4 0 0 0-.18-.06 5 5 0 0 1-.55-.09c-.19-.05-.39-.09-.57-.15l-.53-.2a6.47 6.47 0 0 1-2.22-1.54.1.1 0 0 1-.03-.08ZM10.67 13.57c.1.04.18.09.26.14.1.06.17.13.21.2a.6.6 0 0 1 .05.43l-.63.21c0-.09.05-.17.05-.26a.61.61 0 0 0-.34-.5 11 11 0 0 1-.1-.06l.5-.16Z" fill="#FFEE4C"/><path d="m10.16 13.73.1.05c.2.1.33.29.35.5 0 .1-.04.18-.05.27-.25.08-.5.13-.76.17-.01-.03 0-.05.03-.07.1-.05.2-.1.28-.17.12-.08.11-.24.01-.33a.52.52 0 0 0-.24-.14.95.95 0 0 1-.4-.16l.68-.12Z" fill="#fff"/><path d="M9.11 3.82c.19-.11.3-.28.24-.37-.05-.09-.25-.06-.44.05-.19.12-.3.29-.24.37.05.1.25.07.44-.05ZM9.81 3.8c.09-.05.12-.14.09-.21-.04-.08-.14-.1-.22-.06-.08.04-.12.13-.09.2.04.08.14.1.22.07ZM13.54 6.71c.03.09.1.14.16.12.07-.02.1-.1.07-.19-.02-.09-.1-.14-.16-.12-.07.02-.1.1-.07.2ZM14.12 8.88c.01.22.12.39.23.38.11 0 .2-.2.18-.4-.02-.22-.12-.4-.23-.39-.12.01-.2.2-.18.41Z" fill="#FFEE4C"/><path d="M9.8 5.79c.17-.14.22-.36.1-.48-.1-.13-.32-.11-.48.03-.17.14-.21.36-.1.48.1.13.32.11.49-.03ZM12.93 9.29c-.04.23.01.43.11.44.1.02.2-.16.24-.39.04-.23-.01-.43-.11-.44-.1-.02-.2.16-.24.39ZM5.34 11.17c.06-.05.15-.08.2-.02.07.06.1.12.09.2-.01.1-.08.25-.2.15-.1-.07-.15-.17-.12-.27a.1.1 0 0 1 .03-.06ZM6.17 12.72c-.16-.1-.31-.24-.4-.4-.13-.23.04-.58.34-.48.26.08.53.29.58.57a.31.31 0 0 1-.14.34c-.1.07-.28.03-.38-.03Z" fill="#FF9328"/><path d="M14.44 10.7v.05c-.03.1-.17.28-.3.2-.13-.08-.18-.35-.19-.49a8.32 8.32 0 0 0-.02-.39h.01c.06.23.2.6.48.61l.02.02Z" fill="#FFC72F"/><path d="M4.15 10.97c.03-.1.13-.11.2-.04.13.14.06.62.02.77-.02.08-.07.13-.14.13-.2.02-.14-.57-.13-.68a.7.7 0 0 1 .05-.18ZM4.47 12.06c0 .05.05.1.1.09.05 0 .08-.06.07-.11 0-.06-.05-.1-.1-.1-.04.02-.08.06-.07.12Z" fill="#FFEE4C"/><path d="m5.42 12.75.02.02c.08.1.1.2.04.32-.04.07-.1.1-.18.09-.1-.02-.18-.22-.16-.31.04-.12.13-.16.28-.12Z" fill="#FF9328"/><path d="m6.83 5.2.42.3c.3.22.55.36.74.7.05.11.12.2.2.29a1.87 1.87 0 0 1 .3.43h.04c.11 0 .23.03.34.07.03.01.04 0 .04-.03l-.01-.08a.06.06 0 0 1 .08-.06l.37.18c.03.01.04 0 .05-.03 0-.1.04-.18.12-.25a.06.06 0 0 1 .09.02l.02.04c.03.04.05.04.06-.01.03-.1.07-.2.13-.28.01-.03.03-.03.05-.02.04 0 .08.03.1.06.02.03.04.03.04 0A.89.89 0 0 1 10.3 6c.39-.38.7-.64.92-.78.22-.14.4-.09.53.16.04.32.06.64.05.97 0 .12.01.24.04.34.06.23.06.44 0 .65l-.17.47a.48.48 0 0 1-.14.18c-.03.03-.02.05.02.05.21.04.2.21.05.32-.03.02-.04.04 0 .07.16.18.24.38.22.59 0 .03 0 .04.04.03l.08-.04a.05.05 0 0 1 .07.03v.03c-.02.15-.06.28-.14.4-.01.03 0 .04.02.04.18.04.55.17.67.35a.09.09 0 0 1-.05.13l-.36.12c-.03.01-.04.03-.02.06.07.08.08.18.03.3-.01.02-.03.02-.05.01l-.13-.06c-.05-.02-.06 0-.03.03.1.19.28.64.18.86a.17.17 0 0 0 0 .09c.04.31-.04.61-.26.9a.08.08 0 0 1-.13 0l-.15-.36a.02.02 0 0 0-.04 0c-.15.27-.4.4-.59.66a.8.8 0 0 1-.24.22c-.8.46-1.59.31-2.4.01-.4-.15-.74-.4-1-.77a.12.12 0 0 0-.05-.04c-.33-.15-.49-.38-.46-.7 0-.03-.01-.03-.04-.01-.1.08-.2.15-.3.2l-.04-.12a1.96 1.96 0 0 1 0-.82c.01-.03 0-.04-.03-.03a.81.81 0 0 1-.39.08c-.12 0-.23.06-.34.11a.1.1 0 0 1-.03-.02v-.03c0-.19.05-.37.14-.53l.1-.15c.02-.03.01-.04-.02-.04l-.5.03c.18-.3.46-.51.83-.66a.57.57 0 0 1-.05-.24c0-.02 0-.03-.03-.04a.84.84 0 0 1-.34-.15c.02-.12.09-.18.2-.2l.01-.02h-.02a9.48 9.48 0 0 0-.25.06.1.1 0 0 1-.07-.12c.03-.09.13-.16.3-.22l-.22-.28c-.09-.12-.12-.26-.19-.4l-.02-.5a.05.05 0 0 1 .07-.04c.04.03.08.07.11.12.05.07.08.06.07-.03-.02-.13-.01-.29 0-.46 0-.04.02-.05.06-.03l.03.02c.02.04.04.04.05 0a.83.83 0 0 0 0-.27l.25-.8.16-.47c.03-.1.1-.17.18-.22a.07.07 0 0 1 .07 0l.27.15Z" fill="#13132B"/><path d="M11.6 6.03c-.02-.12-.06-.2-.13-.22a.18.18 0 0 0-.08-.08c-.03-.01-.07 0-.1.02l-.18.1c.02-.02.01-.04 0-.05a.04.04 0 0 0-.06.01l-.35.5a.3.3 0 0 1-.16.02.1.1 0 0 1-.07-.06.35.35 0 0 1-.03-.1c.18-.24.39-.44.63-.62.02.04.06.06.12.07.15 0 .28-.14.14-.26.11-.07.2-.05.27.06.1.15.1.36 0 .61ZM6.47 5.37c0 .06.06.09.14.1.08 0 .12-.04.14-.1.4.23.81.5 1.02.95a.1.1 0 0 1-.06.05c-.02.02-.04.01-.06-.01-.22-.32-.43-.65-.85-.71l-.16-.06h-.06l-.3.16.19-.38Z" fill="#474752"/><path d="M11.33 5.36c.14.12.01.27-.14.26-.06 0-.1-.03-.12-.07l.26-.2Z" fill="#73737A"/><path d="M6.8 5.65c-.35.1-.28.43-.43.69l-.23.43c-.04.08-.06.08-.07-.01a.5.5 0 0 0-.03-.08c.02-.32.1-.63.23-.93l.3-.16a.08.08 0 0 1 .07 0l.16.06Z" fill="#34313A"/><path d="M6.8 5.65c.42.06.63.39.85.7.02.03.04.04.06.03a.1.1 0 0 0 .06-.06c.07.12.14.3.05.42a.77.77 0 0 1-.13.12c-.1-.62-.42-.96-.95-1.02l-.28.73a1.3 1.3 0 0 0-.04.33c-.07-.01-.12 0-.13.06l.01.07c.11.13.18.27.2.43.03.17.13.3.26.42a.02.02 0 0 1-.01.04 2.3 2.3 0 0 0-.67.16c-.02.01-.03.03-.03.05.01.05.05.07.11.08a.24.24 0 0 0-.04.08.91.91 0 0 1-.34-.39.9.9 0 0 0 .41-.06l.02-.08-.06-.28-.11-.8a.5.5 0 0 1 .03.08c0 .09.03.1.07.01l.23-.43c.15-.26.08-.58.43-.7Z" fill="#242128"/><path d="M11.47 5.81c-.24.17-.35.46-.33.87-.21 0-.35.12-.52.22-.04.02-.05.02-.02-.03.2-.33.27-.69.51-1.01l.17-.11c.04-.03.08-.03.1-.02.04.01.07.04.1.08Z" fill="#FC3F68"/><path d="M11.6 6.03c.03.45-.03.86-.17 1.2a3 3 0 0 1-.27.42h-.02l-.02-.02c-.03-.02-.03-.04-.02-.07.05-.08.03-.14-.06-.16-.03 0-.03-.02-.01-.05.19-.23.23-.46.11-.67-.02-.4.1-.7.33-.87.07.03.1.1.13.22Z" fill="#D55375"/><path d="m7.7 6.86-.05.4c0 .01-.02.02-.03 0a1.6 1.6 0 0 0-.56-.34c.05-.36-.06-.71-.32-1.08.53.06.84.4.95 1.02Z" fill="#FC3F68"/><path d="M6.74 5.84c.26.37.37.72.32 1.08a1.23 1.23 0 0 0-.64-.02c0-.18.02-.29.04-.33l.28-.73Z" fill="#D55375"/><path d="M10.44 6.16c0 .05.01.08.03.11a.1.1 0 0 0 .07.06c.05.01.1 0 .16-.03-.06.24-.16.45-.3.65-.02.02-.04.02-.05 0-.23-.23-.09-.56.1-.79Z" fill="#34313A"/><path d="m10.07 7.06-.12.48c-.01.02-.03.03-.06.03-.04 0-.09-.05-.13-.12l-.2-.3a.1.1 0 0 1-.02-.1L9.56 7c.02-.03.03-.03.06 0 .12.14.2.29.25.45.02.04.03.04.04 0a.53.53 0 0 0-.09-.37.26.26 0 0 1-.03-.22l.04-.14c.02-.09.06-.1.1-.02.07.1.12.22.14.36ZM8.52 7.2c-.06.01-.1 0-.13-.05-.03-.07-.05-.06-.06 0l-.01.13c0 .04-.03.06-.07.04l-.06-.04c-.03-.01-.05 0-.07.03-.08.17-.2.33-.35.47a.05.05 0 0 1-.04.01c-.02 0-.03-.02-.03-.05.05-.3.1-.66.24-.94.02-.03.03-.03.04 0 .03.16.04.32.03.47h.01c0 .01 0 .01 0 0h.02a2.25 2.25 0 0 0 .12-.56.02.02 0 0 1 .02 0l.34.49Z" fill="#474752"/><path d="M8.22 7.8c-.3.2-.52.48-.65.84l-.63.24c-.13.05-.15.03-.06-.08.04-.04.08-.1.1-.15.02-.05 0-.06-.04-.04-.17.08-.3.23-.5.28a.82.82 0 0 1-.4 0 .04.04 0 0 1 0-.07c.17-.13.35-.2.53-.21.05 0 .05-.02 0-.03l-.13-.05a.24.24 0 0 1-.07-.04l-.25-.2.04-.08.61.23c.2.03.34-.07.43-.3a.04.04 0 0 0-.05-.05c-.17.04-.38.04-.54.15l-.21-.11c-.03-.02-.03-.03 0-.03l.79-.18c.06-.02.06-.04 0-.06a.72.72 0 0 0-.14-.02c.04-.02.05-.05.03-.08a.32.32 0 0 0-.12-.1l.02-.02V7.6a.1.1 0 0 0-.06-.05.08.08 0 0 0 .04-.06c0-.03.02-.03.04-.02.22.1.41.23.58.37.02.02.04.02.05 0a.2.2 0 0 0 0-.1h.07c0 .03 0 .05.03.05l.04-.01c.15-.14.27-.3.35-.47.02-.03.04-.04.07-.03l.06.04c.04.02.06 0 .07-.04l.01-.12c.01-.07.03-.08.06-.01.03.05.07.06.13.05.1.15.13.2.12.11l.7.33.45.31c.02.02.03.01.03-.01a.84.84 0 0 0-.1-.44l.04-.05c.04.07.09.11.13.12.03 0 .05 0 .06-.03l.12-.48.12.44a.53.53 0 0 0-.04.33v.02l.03.01a.04.04 0 0 0 .04 0c.17-.17.33-.35.48-.55a.5.5 0 0 0 .12-.36l.19-.1a.04.04 0 0 1 .06.01v.02c-.03.22-.14.42-.32.63-.04.04-.03.05.03.04l.1-.03c.03 0 .04 0 .05.03.01.03 0 .06-.02.09a.26.26 0 0 0-.08.11l-.01.04c-.01.03-.03.04-.04.03l-.02-.02c-.02-.09-.07-.11-.14-.07-.36.17-.56.44-.62.82 0 .04-.03.06-.07.04l-.15-.04c-.05-.01-.06-.04-.06-.08a1 1 0 0 0-.22-.65c-.05-.06-.1-.07-.16-.03a.06.06 0 0 1-.08 0 .83.83 0 0 0-.5-.22.04.04 0 0 0-.03.04l.02.12c0 .03-.01.05-.04.04a1.08 1.08 0 0 0-.49.03Z" fill="#34313A"/><path d="M10.82 6.95a.5.5 0 0 1-.12.36 4.66 4.66 0 0 1-.52.55h-.02l-.01-.03a.53.53 0 0 1 .04-.33c.16-.23.37-.41.63-.55ZM9.72 7.5c.07.13.1.28.1.44 0 .02-.01.03-.03.01a3.75 3.75 0 0 0-.46-.3l-.69-.34-.02-.21c0-.04 0-.05.04-.05l.27.05a.08.08 0 0 1 .06.04c.08.18.22.38.42.43.04 0 .05 0 .02-.04-.13-.14-.25-.26-.32-.44a.03.03 0 0 1 .04-.04c.23.08.42.23.57.45Z" fill="#474752"/><path d="m6.15 7.48.07.28-.25-.2a.13.13 0 0 1-.04-.07 1.46 1.46 0 0 1-.08-.38c0-.06.01-.06.04-.02l.26.39Z" fill="#34313A"/><path d="M7.64 7.74a.2.2 0 0 1-.01.1c-.01.02-.03.02-.05 0A2.6 2.6 0 0 0 7 7.47c-.02-.01-.04 0-.04.02 0 .03-.02.05-.04.06a1.08 1.08 0 0 1-.32-.42c0-.03 0-.04.03-.05.31-.06.6.05.86.22.17.12.15.26.15.44Z" fill="#474752"/><path d="M6.2 7.84a.9.9 0 0 1-.42.06.63.63 0 0 1-.13-.39c0-.02 0-.03.03-.02l.51.35Z" fill="#34313A"/><path d="m11.2 8.16-.15.03.08-.43c0-.03.02-.04.04-.05l.36-.1a.04.04 0 0 1 .06.04l-.01.03-.38.48Z" fill="#242128"/><path d="M9.44 8.12a.13.13 0 0 1-.02-.1c.01-.05.03-.05.05-.02.09.12.13.25.14.4 0 .04 0 .04-.04.02a1.17 1.17 0 0 0-.58-.3.04.04 0 0 1-.03-.02l-.11-.42a.01.01 0 0 1 0-.01h.01c.24.1.42.26.54.5l.03-.01c.01-.01.02-.03 0-.04Z" fill="#73737A"/><path d="m11.05 8.2.15-.04.27-.01a.08.08 0 0 1 .05.15l-.01.01a.07.07 0 0 1-.07.01 1.84 1.84 0 0 0-.58-.04.43.43 0 0 0-.23.1l-.33.2c-.05.02-.1.02-.17 0l.37-.4.02.06c0 .02 0 .03.03.03h.02l.02-.02c.14-.2.13-.3.4-.36a.03.03 0 0 1 .04.04c-.12.22-.11.3.02.26Z" fill="#474752"/><path d="M8.57 8.13c-.04 0-.07 0-.08-.02.01-.06 0-.1-.04-.1-.08-.03-.08-.05 0-.08.13-.04.25 0 .36.12.02.02.01.03-.02.04l-.22.04ZM10.5 8.18l-.37.39c.03-.28.16-.5.4-.64.03-.01.04 0 .04.02 0 .08-.02.15-.07.23Z" fill="#73737A"/><path d="M6.78 8.44a.5.5 0 0 0-.17-.2c.16-.11.37-.11.54-.15a.04.04 0 0 1 .05.05c-.09.23-.23.33-.42.3ZM8.49 8.1c.01.03.04.04.08.03l-.59.16a.02.02 0 0 1-.01-.02.65.65 0 0 1 .52-.16Z" fill="#474752"/><path d="m10.44 8.87-.92-.16c-.2-.31-.43-.37-.79-.35-.4.01-.53.3-.72.6l-.1.02c.08-.38.21-.6.6-.71.4-.11.7-.01.98.24.24.2.59.24.9.2a.1.1 0 0 0 .07-.04.74.74 0 0 1 .73-.3c.26.04.49.28.5.55a.78.78 0 0 1-.27.65h-.02l-.02-.01v-.02l.15-.19a.32.32 0 0 0 .07-.25.84.84 0 0 1-.01-.2c.01-.2-.1-.34-.31-.46a.1.1 0 0 0-.08-.01.56.56 0 0 1-.23 0c-.03 0-.05 0-.08.02a.96.96 0 0 0-.45.42Z" fill="#803717"/><path d="m8.95 8.47-.24.25-.41.33c.08-.2.2-.4.37-.6.05-.02.14-.02.28.02Z" fill="#FF9328"/><path d="M8.67 8.45c-.16.2-.29.4-.37.6 0 .03-.02.05-.07.08-.02.01-.03 0-.04-.02-.08-.32.16-.62.48-.66ZM9.23 8.57c-.25.18-.45.37-.6.57l-.28.22H8.3l-.02-.03v-.05l.43-.56.24-.25.28.1ZM11.15 8.52c0 .06-.02.1-.07.13l-.49.43c-.02.01-.03.01-.03-.01a.35.35 0 0 1 .05-.24c.12-.23.3-.33.54-.31Z" fill="#F64521"/><path d="M11.26 8.51c-.02.04 0 .08.06.12l-.45.57-.13.15c-.02.03-.04.03-.07 0l-.05-.06v-.06l.46-.58c.05-.03.07-.07.07-.13h.11Z" fill="#FF9328"/><path d="M11.26 8.51c.38.29.4.59.08.9a.65.65 0 0 0 .1-.36c0-.03-.01-.04-.03-.02l-.54.44c-.08 0-.05-.08.08-.21l.46-.44a.05.05 0 0 0 .01-.06.24.24 0 0 0-.1-.13c-.06-.04-.08-.08-.06-.12ZM9.22 8.57c.2.16.26.34.18.54-.15.36-.58.49-.92.36a.04.04 0 0 1-.03-.03.04.04 0 0 1 .01-.04.59.59 0 0 0 .16-.26c.16-.2.36-.4.6-.57Z" fill="#FDF2CB"/><path d="m7.76 8.82-.29.14a.12.12 0 0 0-.05.04l-.1.18a.45.45 0 0 1-.07-.27c0-.04.02-.05.05-.06a1 1 0 0 0 .47-.2c.02-.01.04 0 .04.03 0 .04-.02.09-.05.14Z" fill="#803717"/><path d="M11.32 8.63c.05.04.08.08.1.13l-.01.06-.46.44a.16.16 0 0 0-.08-.06l.45-.57Z" fill="#F64521"/><path d="M10.44 8.87c0 .25.07.48.24.67.02.02.02.04 0 .06l-.04.01a.1.1 0 0 1-.04-.02.75.75 0 0 1-.32-.54.12.12 0 0 0-.09-.1c-.28-.07-.48 0-.62.2-.1.14-.13.13-.12-.03 0-.11.03-.25.07-.41l.92.16Z" fill="#3B0316"/><path d="M11.34 9.41a.55.55 0 0 1-.47.06l.54-.44c.02-.02.03-.01.03.02.01.1-.02.23-.1.36Z" fill="#FF9328"/><path d="m10.02 9.35-.08.05a.05.05 0 0 0-.02.03.05.05 0 0 0 .01.03l.17.24c.06.07.04.1-.05.07l-.49-.13c-.03-.01-.04-.03-.02-.06l.17-.36a.25.25 0 0 1 .46.02l.18.4v.02l-.06.03h-.03l-.18-.32c-.02-.03-.04-.03-.06-.02Z" fill="#242128"/><path d="m9.18 9.56.22-.23c.07-.08.1-.06.07.04-.06.27-.32.27-.53.33h-.01l-.02-.03c-.02-.02-.01-.03.01-.04l.21-.04c.02 0 .03-.02.05-.03Z" fill="#803717"/><path d="m7.31 9.64-.91-.12c.49-.22.9-.12 1.4-.04.06 0 .06.01 0 .02l-.49.14Z" fill="#242128"/><path d="m6.4 9.52.91.12c-.12.1-.2.23-.22.38-.01.04 0 .04.02 0 .13-.15.3-.27.5-.35h.03v.03a1.15 1.15 0 0 0-.43.76l.02.01h.02a.8.8 0 0 1 .19-.26c.22-.1.44-.17.65-.2.08-.02.09 0 .02.05-.35.25-.57.6-.65 1.07 0 .06-.01.11-.04.16-.02.04-.03.04-.03-.01s0-.1-.02-.16c-.02-.1-.04-.1-.06 0-.03.25-.02.49.04.72 0 .03 0 .04-.04.03-.22-.08-.33-.23-.34-.45l.01-.05.03-.03.02-.03.19-.4a.05.05 0 0 0-.05-.07 33.35 33.35 0 0 0-.45.33l-.01-.01v-.03c.1-.13.16-.28.2-.44l.1-.16c.03-.05.03-.06-.02-.02l-.17.11c-.05.04-.07.03-.05-.04.07-.27.04-.34-.09-.2a.37.37 0 0 1 0-.13c0-.03-.01-.05-.04-.05H6.6l-.02.03a.4.4 0 0 1-.16.13c-.04.02-.05 0-.02-.03a.15.15 0 0 0 .02-.1.03.03 0 0 0-.02-.02.03.03 0 0 0-.03 0 .33.33 0 0 1-.1.08c-.04.02-.05.01-.03-.02a.99.99 0 0 1 .13-.17l-.02-.01c-.01-.02-.02-.02-.03 0-.15.14-.3.27-.44.37-.04.03-.06.02-.05-.03.09-.32.29-.54.6-.68l.01-.02V9.7l-.02-.01c-.21.05-.42.08-.63.1-.05 0-.06 0-.01-.04.18-.14.38-.22.62-.24ZM11.84 10.06c-.13-.17-.3-.2-.47-.28-.03-.02-.04-.03-.02-.06.2-.22.77 0 1 .14.03.02.03.04-.01.06l-.4.17c-.04.01-.07 0-.1-.03Z" fill="#34313A"/><path d="M7.46 11.13c.08-.46.3-.82.65-1.07.07-.05.06-.07-.02-.05-.21.03-.43.1-.65.2a.91.91 0 0 1 .64-.53h.07c.17.07.34.12.52.15.07 0 .07.03.02.06-.31.18-.66.35-.92.6a.03.03 0 0 0 .01.05l.2.04c.03 0 .03.02 0 .04l-.52.5Z" fill="#242128"/><path d="M10.65 10.04c.15-.05.33-.07.54-.07.02 0 .03 0 .04-.02.02-.03 0-.04-.02-.05a.82.82 0 0 0-.6.05.11.11 0 0 0-.05.05c-.02.03 0 .05.03.05h.03a.32.32 0 0 1-.13.04 1.1 1.1 0 0 0-.4.15.07.07 0 0 1-.07 0 1 1 0 0 0-.47-.04c.14-.1.3-.15.47-.14h.03l.02-.03c.02-.02.01-.04 0-.05a1.2 1.2 0 0 0-.83-.14c-.17.03-.31.15-.5.2.25-.23.52-.34.82-.32.15.01.34.07.58.18h.07c.5-.27.95-.2 1.33.18.04.03.03.05-.02.04a.62.62 0 0 1-.11-.02.18.18 0 0 0-.08 0 .9.9 0 0 1-.44-.02.43.43 0 0 0-.24-.04Z" fill="#474752"/><path d="M9.55 10.2c-.1.04-.18.1-.22.19-.02.03-.02.04.02.03.12-.05.23-.08.33-.09.08 0 .08.01.02.04-.13.07-.25.17-.38.3a.82.82 0 0 0-.33.18c-.1.07-.14.05-.12-.07a.4.4 0 0 1 .02-.09c.01-.04 0-.05-.04-.04l-.24.1-.05.01c-.05 0-.08-.02-.1-.04-.02-.02-.02-.04 0-.06.14-.18.29-.33.45-.45.06-.05.05-.06-.01-.03l-.37.15-.05.01a.15.15 0 0 1-.02-.07l.29-.23c.18-.05.32-.17.49-.2.29-.05.56 0 .82.14.02.01.03.03.01.05a.06.06 0 0 1-.05.03.73.73 0 0 0-.47.14ZM10.65 10.04h-.06c-.04 0-.05 0-.03-.04a.11.11 0 0 1 .05-.05c.2-.1.4-.1.6-.05.03 0 .04.02.02.05l-.04.02c-.21 0-.4.02-.54.07Z" fill="#73737A"/><path d="M8.56 10.76a.46.46 0 0 1-.14.19c-.03-.05-.06-.09-.1-.1l-.45.19c-.07.02-.08.01-.04-.05.16-.22.37-.41.64-.55.1-.05.11-.08.06-.11l.36-.15c.07-.03.08-.02.02.03-.16.12-.31.27-.45.45-.02.02-.02.04 0 .06.02.02.05.04.1.04ZM8.46 10.27c0 .03 0 .05.02.07l-.05.05c-.16.05-.3.16-.48.08-.03 0-.03-.02 0-.04l.41-.24c.03-.02.05-.01.05.02.01.04.03.06.05.06Z" fill="#474752"/><path d="m10.72 10.57-.37.03a.7.7 0 0 1-.23-.17l-.01-.03a.05.05 0 0 1 0-.04l.02-.02c.3-.18.81-.23 1.12 0l.01.02a.05.05 0 0 1 0 .05l-.02.02c-.14.07-.32.12-.52.14Z" fill="#FC3F68"/><path d="m6.91 10.69-.36.45c-.01.02-.02.01-.02 0-.02-.27.03-.52.15-.76.13-.14.16-.07.09.2-.02.07 0 .08.05.04l.17-.11c.05-.04.06-.03.02.02l-.1.16ZM11.6 11.11l-.19-.42c.04-.1.04-.19.02-.3 0-.03.01-.04.04-.05.38-.02.49.36.53.67 0 .03 0 .04-.03.02l-.14-.1a.07.07 0 0 0-.05-.02l-.02.01v.02c.1.18.24.34.22.56-.01.1-.03.2-.06.29-.01.06-.03.06-.06 0l-.26-.68ZM10.01 10.87a1.2 1.2 0 0 1-.55.45c-.2 0-.33.13-.4.37-.01.04 0 .05.02.02l.22-.2h.02v.04a.74.74 0 0 0-.24.8c0 .03 0 .04-.04.03a.96.96 0 0 1-.49-.47c-.14-.32.3-.7.51-.87.13-.1.12-.12-.03-.06-.24.08-.43.25-.58.52-.02.04-.03.04-.03 0a1.07 1.07 0 0 1 .24-.72.03.03 0 0 0-.01-.02h-.02l-.02-.02.24-.09c.04-.01.05 0 .04.04a.4.4 0 0 0-.02.1c-.01.11.02.13.12.05.09-.08.2-.13.33-.17l.52-.23c.08-.04.13-.01.14.08l.03.35Z" fill="#474752"/><path d="m10.35 10.6.36-.03a.7.7 0 0 0 .56 0c.04 0 .05 0 .05.04a.51.51 0 0 1-.12.25c-.06.06-.07.05-.05-.03l.03-.07c0-.03 0-.05-.02-.06-.04-.03-.08-.02-.12.03-.06.07-.06.15 0 .22l.02.04-.01.04a.34.34 0 0 1-.14.03h-.02v-.03l.02-.16c0-.05 0-.05-.03-.02a.42.42 0 0 0-.08.18c0 .03-.02.04-.04.04a.37.37 0 0 1-.17 0c-.04-.02-.04-.04-.01-.06.06-.05.11-.1.15-.17a.13.13 0 0 0 0-.1.21.21 0 0 0-.02-.06.04.04 0 0 0-.04-.02h-.02v.02a.84.84 0 0 0-.06.14c-.05.18-.25.2-.37.08a.4.4 0 0 1-.12-.26c0-.04.01-.05.04-.05h.2Z" fill="#D55375"/><path d="M11.6 11.11c-.12.17-.14.37-.07.6a.1.1 0 0 1-.01.09l-.09.14c-.02.04-.03.04-.04 0l-.1-.52c-.01-.04-.03-.04-.04 0l-.04.07a.05.05 0 0 1-.05.03h-.2c-.05 0-.07-.02-.05-.07a.17.17 0 0 0 0-.13c-.01-.03-.03-.03-.05 0a.23.23 0 0 1-.19.09.07.07 0 0 1-.06-.05.16.16 0 0 1 0-.11c0-.03.01-.04.04-.04.38-.06.62-.1.76-.52l.19.42ZM8.42 10.95c-.11.16-.18.34-.19.54l-.03.4-.13.45c-.02.06-.04.06-.06 0a1.33 1.33 0 0 1-.06-.72c.02-.13.14-.39.36-.77.05.01.08.05.11.1ZM10.4 11.14a.55.55 0 0 1-.29.22c-.14.06-.3.1-.44.1-.13.02-.2-.03-.21-.14.19-.06.37-.21.55-.45l.39.27ZM7.68 11.64a.85.85 0 0 1-.1-.45.06.06 0 0 1 .03-.05.06.06 0 0 1 .05 0c.1.03.2.03.3 0 .03-.01.03 0 .01.03l-.18.29a.23.23 0 0 0-.03.08l-.02.1c0 .06-.03.06-.06 0Z" fill="#34313A"/><path d="M10.11 11.36c.1-.03.2-.1.28-.22.08.06.1.16.04.29a.08.08 0 0 1-.06.04l-.41.1c-.04.01-.05 0-.02-.03l.17-.18ZM9.94 12.08a.5.5 0 0 0-.02-.2c-.01-.02-.03-.03-.06-.03l-.3.03a.8.8 0 0 0-.23.4c-.03.13-.07.13-.1 0-.04-.2.02-.43.18-.68.02-.03.04-.03.06-.02.24.08.48.1.74.06.33-.06.64-.05.94.04.03 0 .04.03.04.06a1.19 1.19 0 0 1-.12.55h-.03l-.02-.03v-.02l.12-.32c.03-.07.02-.08-.04-.03a17.49 17.49 0 0 0-.25.18c-.02 0-.02-.01-.01-.03l.06-.1c.03-.05.02-.06-.03-.03-.15.09-.32.16-.47.01-.02-.02-.04-.02-.06 0a.65.65 0 0 1-.4.16Z" fill="#242128"/><path d="M7.5 11.98a.73.73 0 0 0-.04-.22c-.04-.1-.02-.1.05-.03l.2.2.02.06a1.57 1.57 0 0 0 .14.47h-.01l-.36-.3a.06.06 0 0 1-.02-.05c0-.05.03-.09.03-.13Z" fill="#FFCFB0"/><path d="M9.94 12.08a.2.2 0 0 1-.03.08l-.02.03h-.03c-.23-.02-.32-.12-.3-.3l.3-.04c.03 0 .05.01.06.04a.5.5 0 0 1 .02.19Z" fill="#34313A"/><path d="M8.36 12c.03.08.08.15.15.21.03.04.03.05-.02.03a.6.6 0 0 1-.17-.09.06.06 0 0 1-.01-.08.13.13 0 0 0 .01-.07l.02-.01a.02.02 0 0 1 .02 0ZM9.97 12.34c.1-.08.23-.15.36-.13a5.28 5.28 0 0 0 .45.04c.02 0 .03-.02.05-.03.01-.01.02-.01.01.01l-.02.02c-.44.14-.88.2-1.34.2-.03 0-.05-.03-.04-.06l.05-.2c0-.04.02-.05.04-.02.09.12.22.18.38.2l.06-.03Z" fill="#AD9EB6"/><path d="M8.22 12.34c.5.21 1 .32 1.48.32.11 0 .15.05.1.16v.04c-.05.1-.12.16-.23.14a4.67 4.67 0 0 1-1.5-.43l.12-.22h.03ZM10 12.93c.03-.1.03-.18.01-.27 0-.02 0-.04.03-.04.29-.03.56-.1.8-.23.05-.02.07-.01.06.04v.05l-.01.03c-.21.22-.5.37-.87.45-.02 0-.03 0-.02-.03Z" fill="#FFCFB0"/><path d="M9.24 8.93a1.3 1.3 0 0 0-.42.42c-.02.05-.08.07-.2.09-.07 0-.08-.02-.03-.08a5.42 5.42 0 0 1 .62-.6h.01c.04.09.04.14.02.17Z" fill="#FF9328"/><path d="M9.24 8.93a.51.51 0 0 1-.42.42c.1-.16.23-.3.42-.42Z" fill="#F64521"/><path d="M11.62 10.65c.08.07.15.1.17.08.02-.02-.02-.1-.1-.16-.07-.07-.14-.1-.16-.08-.02.02.02.09.1.16ZM9.5 10.9a1.25 1.25 0 0 1 .31-.31.04.04 0 0 1 .04.03c0 .2-.08.34-.25.42a.08.08 0 0 1-.08 0 .1.1 0 0 1-.05-.07c0-.02 0-.04.02-.06Z" fill="#73737A"/></svg>