<!-- by TradingView --><svg width="18" height="18" viewBox="0 0 18 19" xmlns="http://www.w3.org/2000/svg"><path fill="#F0F3FA" d="M0 .06h18v18H0z"/><path fill-rule="evenodd" d="M9.3 3.06a5.9 5.9 0 0 1 3.02 1A5.95 5.95 0 0 1 15 8.76v.59a5.91 5.91 0 0 1-1.15 3.24 5.95 5.95 0 0 1-4.55 2.47h-.6a5.92 5.92 0 0 1-3.46-1.33A5.95 5.95 0 0 1 3 9.36v-.6a5.99 5.99 0 0 1 2.67-4.7 6 6 0 0 1 3.03-1h.6Zm4.7 6a4.96 4.96 0 0 1-3.09 4.62 4.95 4.95 0 0 1-5.45-1.09 4.96 4.96 0 0 1-1.08-5.45A4.96 4.96 0 0 1 9 4.06a4.95 4.95 0 0 1 4.62 3.08c.25.62.38 1.25.38 1.92ZM8.53 6.35l.25-1.01c0-.02.02-.03.04-.03l.6.15s.02.02.01.04l-.25 1v.01l.5.12s.02 0 .02-.02l.25-.99.03-.02.6.15c.02 0 .02.02.02.03l-.26 1.02c0 .02 0 .03.02.03.37.13.65.28.85.43.28.23.43.5.44.8 0 .29-.05.54-.18.75a.94.94 0 0 1-.6.44c-.04.01-.05.03 0 .05.17.09.32.21.45.38.15.18.21.42.19.7-.02.23-.09.47-.22.72-.26.5-.74.74-1.44.7a4.61 4.61 0 0 1-.73-.07l-.26 1.03c0 .02-.02.03-.04.02l-.6-.15c-.01 0-.02-.01-.01-.02l.25-1.01c0-.02 0-.04-.02-.04l-.46-.12c-.02 0-.03 0-.04.02l-.25 1.01c0 .02-.02.03-.03.02l-.6-.15c-.02 0-.02-.01-.02-.02l.26-1.04c0-.02 0-.02-.02-.03l-1.26-.32c-.01 0-.02 0-.01-.02l.3-.7c0-.01.02-.02.04-.01l.41.1c.11.03.2.02.26-.04.04-.04.07-.11.1-.22l.66-2.67a.56.56 0 0 0 .02-.28.33.33 0 0 0-.23-.22 4 4 0 0 0-.49-.12c-.02 0-.03-.02-.03-.04l.16-.63c0-.02.02-.03.04-.02l1.25.3c.01.01.03 0 .03-.01Zm.48.93L9 7.3l-.31 1.27v.01l.59.14c.25.07.48.06.7 0 .2-.08.32-.2.36-.36l.03-.11c.04-.17-.01-.33-.17-.48a1.22 1.22 0 0 0-.6-.34L9 7.28Zm-.48 1.95H8.5l-.34 1.4v.02l.7.17c.31.08.59.08.84 0 .24-.07.39-.2.43-.37l.03-.13c.05-.18-.02-.36-.2-.54-.2-.18-.44-.3-.74-.38l-.7-.17Z" fill="#0052FF"/></svg>