<!-- by TradingView --><svg width="18" height="18" viewBox="0 0 18 18" xmlns="http://www.w3.org/2000/svg"><path fill="#F0F3FA" d="M0 0h18v18H0z"/><path d="M12.57 13.78c-.02-.01-.04-.04-.04-.07a.08.08 0 0 0-.03-.04l-.07-.07a.06.06 0 0 0-.09 0c-.06.1-.1.16-.19.23-.18.14-.34.32-.52.42-.23.13-.47.2-.7.2-.1 0-.18-.01-.26-.03a.46.46 0 0 1-.19-.1c-.17-.16-.36-.24-.57-.37a1.45 1.45 0 0 0-.7-.2.05.05 0 0 0-.03.04v.02l.02.1c.05.15.12.3.15.44.02.12.05.24.1.36l.06.27c-.3.02-.63.03-.96 0a3 3 0 0 0 .15-.39l.07-.2c.06-.14.13-.25.16-.4a1.15 1.15 0 0 1 .06-.2.03.03 0 0 0-.02-.04 4.56 4.56 0 0 0-.52.15c-.24.1-.5.23-.74.26-.46.06-1.01.06-1.38-.2l-.3-.23c-.05-.04-.07-.03-.05.03l.08.39c0 .01 0 .02-.02.03H6L6 14.16l-.13-.44a.66.66 0 0 0-.11-.22c-.13-.16-.25-.35-.38-.49-.21-.23-.35-.46-.57-.65-.19-.15-.38-.26-.44-.48a2.76 2.76 0 0 1 .82.75 19.6 19.6 0 0 0 .46.63c.16.22.39.37.56.5.34.27.78.42 1.2.34.15-.02.34-.04.52-.11.27-.11.54-.2.82-.3a1 1 0 0 1 .3-.04c.34 0 .59 0 .91.2l.59.37a.6.6 0 0 0 .24.1c.15.02.26.03.34.02.16-.02.34-.1.55-.21a4.03 4.03 0 0 0 1.02-1.1l.2-.3c.1-.13.15-.3.24-.43.12-.15.18-.35.2-.52 0-.17.07-.33.03-.5a6.76 6.76 0 0 0-.1-.38c-.03-.13.04-.24.03-.37-.01-.08-.02-.2-.01-.35 0-.09-.04-.17-.03-.26.03-.27.04-.51.02-.72 0-.1.03-.18.04-.29 0-.06.02-.13.05-.2a2.23 2.23 0 0 0 .14-.8v-.29a1 1 0 0 0-.08-.38c-.07-.21-.27-.57-.52-.64-.2-.06-.39-.13-.55-.2-.07-.04-.13-.02-.2-.04l-.64-.13c-.15-.04-.3 0-.44 0h-.23a30.4 30.4 0 0 1-.82.03c.13-.14.37-.14.54-.15l.53.02.24-.03c.13-.02.28.07.4.07.07 0 .14.01.2.04a1.34 1.34 0 0 0 .23.07.68.68 0 0 0-.17-.2.95.95 0 0 1-.17-.14 1.59 1.59 0 0 0-.24-.23.68.68 0 0 1-.1-.12.43.43 0 0 0-.12-.1 1.9 1.9 0 0 1-.31-.26.3.3 0 0 0-.1-.06A3.2 3.2 0 0 0 10.4 5a.77.77 0 0 0-.28 0 2.07 2.07 0 0 1-1.47-.2 1.87 1.87 0 0 1-.23-.09l-.24-.1a2.3 2.3 0 0 0-.45-.05c-.36 0-.84.07-1.12.31l-.6.54c-.19.18-.42.32-.7.42.13-.11.26-.2.4-.29.13-.09.22-.17.33-.28.11-.12.3-.24.44-.38.04-.03.12-.1.26-.18a2.01 2.01 0 0 1 1.49-.14c.27.07.6.26.85.33.36.1.72.1 1.1 0 .04-.01.14 0 .3.04l.38.13c.22.07.38.24.59.4l.2.2.7.63c.06.06.14.1.25.14.26.09.45.11.61.3.27.32.4.7.37 1.1-.01.31 0 .55-.1.8-.06.14-.1.24-.1.3 0 .37-.02.65-.04.83-.02.23 0 .38.02.69v.3c0 .1.01.2.04.3a2.02 2.02 0 0 1-.16 1.26c-.1.16-.2.36-.3.5-.1.13-.15.23-.24.32-.07.06-.15.17-.23.3a.1.1 0 0 0 0 .1c.05.05.09.12.13.2.01.03 0 .04-.03.05Z" fill="#030303"/><path d="M7.73 4.56c-.16.06-.32.1-.49.12a.74.74 0 0 0-.37.17l-.63.55c-.1.1-.22.24-.38.45a3 3 0 0 1-.52.51 3.96 3.96 0 0 1 .2-.38H5.5c-.28.25-.52.43-.64.7a.09.09 0 0 0 .02.1l.02.02c.03.03.05.02.06-.01a.32.32 0 0 1 .08-.15.05.05 0 0 1 .05-.01c.04 0 .07.04.1.08a.05.05 0 0 1 0 .05c-.1.33-.18.65-.24.97 0 .03 0 .04.03.04H5c.01 0 .02 0 .02-.02.07-.25.17-.36.34-.54.08-.08.1-.14.09-.24v-.04a3 3 0 0 1 .53-.59 1.83 1.83 0 0 0 .22-.25.02.02 0 0 0 0-.01l-.03-.01c-.03-.02-.05-.02-.07.01l-.16.22c-.04.05-.05.04-.05-.01 0-.12.1-.32.24-.3.21.02.28.05.46-.05.23-.15.45-.24.64-.28.2-.04.39 0 .6 0 .18 0 .31 0 .4.04.17.05.27.15.32.3-.35-.03-.64-.1-1.03-.1-.16 0-.3.03-.43.07-.54.18-.98.5-1.32.98-.04.16-.1.3-.15.45-.05.14 0 .29-.02.4-.03.2-.03.38-.08.57l-.11.43a529.65 529.65 0 0 1-.38 1.05l-.15.39-.4.66c-.06.1-.05.2-.06.31a.08.08 0 0 1-.13.06l-.18-.18a.06.06 0 0 1-.02-.05c.02-.3.05-.45.17-.68.12-.22.14-.48.29-.65.14-.16.21-.25.28-.47.07-.2.16-.4.19-.6.02-.16 0-.25.07-.35a1.36 1.36 0 0 0 .23-.6.04.04 0 0 0-.06 0 .39.39 0 0 0-.16.18c0 .01-.01.03-.03.03-.09.05-.16.05-.17.17-.05.33-.07.52-.22.8l-.16.34-.25.5c-.07.12-.22.27-.26.38-.03.07-.05.19-.07.35-.04.3-.07.5.07.74l.28.28c.18.17.34.35.47.56a.95.95 0 0 1-.18-.1c-.15-.13-.3-.2-.44-.33-.07-.06-.1-.16-.14-.22-.03-.07-.05-.06-.04 0 .01.16.03.23.17.33l.23.18c.06.22.25.33.44.48.22.19.36.42.57.65.13.14.25.33.38.5.05.06.08.13.1.2a29.72 29.72 0 0 0 .17.47h.02l.02-.03-.08-.39c-.02-.06 0-.07.05-.03l.3.22c.37.27.92.27 1.38.21.24-.03.5-.17.74-.26a12.18 12.18 0 0 0-.93.67.05.05 0 0 0-.02.04l.02.21a5.9 5.9 0 0 1-3.73-2.85l.01-.02.27-.16h.01a.02.02 0 0 0 0-.02v-.01c-.17-.13-.19-.26-.25-.45a2.23 2.23 0 0 1 0-.91c.02-.17.1-.34.2-.5.02 0 .02-.04.02-.09-.01-.28-.07-.53-.08-.8 0-.23-.06-.46-.04-.72.03-.39.09-.7.16-.94.06-.19.16-.38.3-.57.28-.36.59-.68.93-.95.27-.1.5-.24.7-.42l.59-.54c.28-.24.76-.32 1.12-.3Z" fill="#17151B"/><path d="M7.73 4.56c.15 0 .3.03.45.06.06.01.14.04.24.1l.23.09c-.33.01-.67.02-1 0-.15 0-.25.01-.32.04-.12.06-.19.16-.18.3 0 .12.07.2.18.2.19.01.34.03.48.06.25.06.54.2.82.3.19.06.3.12.46.22.07.04.18.03.28.04l.18.03c.27.08.55.1.84.08l.17.03c-.17 0-.4.01-.54.15a3.23 3.23 0 0 0-.6-.07c-.15 0-.3-.09-.43-.1-.1 0-.18-.06-.3-.07-.05 0-.1-.02-.14-.03-.05-.14-.15-.24-.31-.3-.1-.02-.23-.04-.4-.04-.22 0-.4-.03-.6.01-.2.04-.42.13-.65.28-.18.1-.25.07-.46.05-.13-.02-.23.18-.24.3 0 .05.01.06.05.01l.16-.22c.02-.03.04-.03.07-.01h.02a.02.02 0 0 1 0 .04l-.2.23a3 3 0 0 0-.54.63c0 .1 0 .16-.09.24-.17.18-.27.3-.34.54 0 .02 0 .02-.02.02h-.02c-.03 0-.04-.01-.03-.04a7.54 7.54 0 0 1 .24-1.02c-.03-.04-.06-.07-.1-.08l-.05.01a.32.32 0 0 0-.08.15c-.01.03-.03.04-.06.01l-.02-.02a.09.09 0 0 1-.02-.1c.12-.27.36-.45.64-.7h.05v.03l-.23.34c-.02.04-.01.04.02.01a3 3 0 0 0 .52-.5c.16-.22.28-.37.38-.46l.63-.55c.1-.09.23-.15.37-.17.17-.02.33-.06.5-.12Z" fill="#24232A"/><path d="M8.65 4.8c.25.14.52.22.81.25h-.12c-.02 0-.03 0-.01.02a3.52 3.52 0 0 1 .4.64.05.05 0 0 1-.03.03h-.03a.12.12 0 0 1-.1-.06c-.15-.29-.3-.54-.57-.62-.35-.11-.65-.2-1-.08-.02 0-.02.01-.02.02l.02.03.34.1c.03 0 .03.01 0 .03l-.05.03a.05.05 0 0 0-.02.06l.02.02c.14.1.36.14.46.18.08.03.15.08.22.14.07.07.18.15.33.23h.04a.58.58 0 0 1 .27 0c.26.1.52.18.78.26-.29.03-.57 0-.84-.08a.78.78 0 0 0-.18-.03c-.1 0-.2 0-.28-.04-.16-.1-.27-.16-.46-.23-.28-.09-.57-.23-.82-.29-.14-.03-.3-.05-.48-.05-.1 0-.18-.09-.18-.2 0-.15.06-.25.18-.3a.79.79 0 0 1 .32-.05c.33.02.67.01 1 0Z" fill="#34333E"/><path d="M9.46 5.05c.22 0 .44-.01.66-.05.12-.02.21-.02.28 0 .18.04.36.1.55.17a.3.3 0 0 1 .1.06c.11.12.22.2.31.26.04.02.08.06.11.1.04.06.08.1.11.12.1.08.18.16.24.23.03.04.09.09.17.14a.68.68 0 0 1 .17.2c-.11-.02-.18-.05-.23-.07a.47.47 0 0 0-.2-.04c-.12 0-.27-.09-.4-.07l-.24.03c-.18 0-.35 0-.53-.02l-.17-.03-.78-.25a.58.58 0 0 0-.27 0l-.04-.01a1.71 1.71 0 0 1-.33-.23.72.72 0 0 0-.22-.14c-.1-.04-.32-.09-.46-.18a.05.05 0 0 1 0-.08l.05-.03c.03-.02.03-.03 0-.04L8 5.04 8 5.02 7.98 5 8 4.98c.36-.13.66-.03 1.01.08.27.08.42.33.57.62a.13.13 0 0 0 .1.06h.03a.05.05 0 0 0 .03-.07 3.52 3.52 0 0 0-.4-.6c-.02-.02-.01-.02 0-.02h.13Z" fill="#4C4A62"/><path d="M11.33 5.64c.07.05.14.08.15.06.01-.01-.04-.07-.12-.12-.07-.05-.14-.08-.15-.06-.01.02.04.07.12.12Z" fill="#17151B"/><path d="m8.55 6 .14.02c.12.01.2.07.3.08.12 0 .28.09.42.09.23 0 .43.03.61.07h.25a30.35 30.35 0 0 0 .8-.04c.14 0 .3-.03.44 0 .2.06.36.08.63.14.08.02.14 0 .21.04.16.07.34.14.55.2.25.07.45.43.52.64a.28.28 0 0 1-.12.04 1.91 1.91 0 0 0-.2-.35.61.61 0 0 0-.25-.21 4.03 4.03 0 0 0-.28-.1c-.17-.06-.41-.02-.6-.05a2.04 2.04 0 0 0-.33-.03c-.39 0-.82-.01-1.3-.05-.32-.02-.6-.03-.89-.07-.42-.05-.83-.11-1.25-.18-.52-.1-1.01-.13-1.46.14a4.6 4.6 0 0 0-.63.44L5.95 7a.08.08 0 0 1-.14 0l-.04-.06c.34-.47.78-.8 1.32-.98.13-.04.27-.06.43-.06.4 0 .68.06 1.03.08Z" fill="#4C4A62"/><path d="M13.3 7.28v.04h-.03c-.05-.02-.08-.07-.1-.15a.68.68 0 0 0-.3-.33 1.3 1.3 0 0 0-.2-.08.72.72 0 0 0-.2-.02c-.16 0-.32-.01-.46-.03-.09-.02-.24.05-.36.05l-.34.01h-.34a8.6 8.6 0 0 0-.73-.05c-.35-.01-.63-.07-1.02-.11-.22-.02-.38-.13-.6-.12-.1 0-.22 0-.37-.03a1.68 1.68 0 0 0-.36-.03 35.6 35.6 0 0 0-.64.04c-.22.05-.37.1-.57.26a.05.05 0 0 0-.02.04c0 .02.01.02.03.02l.04-.02-.22.19a.85.85 0 0 0-.35.6c0 .08-.05.16-.05.24 0 .4-.03.79-.08 1.17l-.01-.08c0-.02-.01-.03-.03-.02a.14.14 0 0 0-.05.02.06.06 0 0 0-.02.05 3.07 3.07 0 0 0-.01.15.56.56 0 0 0-.1.27c0 .06-.02.1-.05.15a.1.1 0 0 0 0 .05.2.2 0 0 1-.05.16.05.05 0 0 0-.02.04c.02.1-.03.18-.13.21l-.02.02v.07l-.02.04a.76.76 0 0 0-.17.4l-.02.04c-.09.08-.18.18-.24.31a5.21 5.21 0 0 1-.15.33l.03.03.03-.04c-.02.16-.02.33.02.5l-.06-.14a.06.06 0 0 0-.03-.03.34.34 0 0 1-.07-.05c-.07-.06-.1-.04-.1.06l.02.04.02.05c.08.12.13.26.15.4 0 .02 0 .04.02.05.07.08.11.14.2.2.24.18.42.33.66.48a59.3 59.3 0 0 1 .81.58l.04.02.2.1c.19.1.4.14.64.12l.03.01.02.01.04.01a16.59 16.59 0 0 1 .82.01c.23-.04.4-.1.67-.13l.43-.07a.9.9 0 0 1 .78.15c.2.12.39.2.6.26.1.02.2.07.29.1.03.01.09 0 .16-.02.3-.1.57-.24.8-.42.03-.02.06-.02.1 0-.27.28-.51.49-.73.61-.16.1-.37.14-.63.15-.1 0-.2-.02-.3-.07a2.97 2.97 0 0 1-.38-.25 1.82 1.82 0 0 0-.5-.3c-.2-.05-.44-.06-.73-.01-.26.04-.64.12-1.11.24-.13.03-.25.04-.39.05l-.39.03a1 1 0 0 1-.59-.14c-.27-.15-.42-.22-.56-.4l-.44-.53a5.8 5.8 0 0 1-.2-.28c-.06-.09-.18-.14-.25-.22l-.3-.32c-.13-.2-.29-.4-.47-.56a1.78 1.78 0 0 1-.28-.28c-.14-.23-.11-.45-.07-.74.02-.16.04-.28.07-.35.04-.11.2-.26.26-.38a9.82 9.82 0 0 0 .41-.85c.15-.27.17-.46.22-.79.01-.12.08-.12.17-.17.02 0 .03-.02.03-.03a.39.39 0 0 1 .16-.19.04.04 0 0 1 .06.04c-.02.18-.1.37-.23.57-.06.1-.05.19-.07.34-.03.21-.12.41-.19.61-.07.22-.14.3-.28.47-.15.17-.17.43-.29.65-.12.23-.15.37-.17.68 0 .02 0 .04.02.05l.18.18a.08.08 0 0 0 .08.01.08.08 0 0 0 .05-.07c0-.1 0-.21.06-.31l.4-.66c.27-.28.46-.61.56-1.02l.11-.27a.1.1 0 0 0-.03-.12.1.1 0 0 0-.04-.02H5.4a13 13 0 0 0 .11-.44c.05-.2.05-.38.08-.57.02-.11-.03-.26.02-.4.06-.14.1-.3.15-.45l.04.06a.08.08 0 0 0 .14 0l.16-.2c.18-.14.39-.3.63-.43.45-.27.94-.23 1.46-.14.42.07.83.13 1.25.18.3.04.57.05.9.07.47.04.9.05 1.3.05.08 0 .18 0 .31.03.2.03.44-.01.61.05l.28.1c.1.04.17.1.25.21.08.11.15.23.2.35Z" fill="#24232A"/><path d="M13.17 7.17c0 .06 0 .12-.03.17a.88.88 0 0 0-.35-.46 36.65 36.65 0 0 1-3.76-.2c-.34-.04-.6-.1-.89-.14-.44-.06-1.04-.04-1.41.23l-.04.02c-.02 0-.03 0-.03-.02l.02-.04a1.34 1.34 0 0 1 .76-.3h.45c.12 0 .24 0 .36.03l.37.03c.22-.01.38.1.6.12.4.03.67.1 1.02.1.25.01.49.03.73.06h.34l.34-.01c.12 0 .27-.07.36-.05l.46.03c.07 0 .14 0 .2.02.11.03.18.06.2.08.14.07.24.18.3.33Z" fill="#724C79"/><path d="M13.14 7.34c.06.06.1.13.1.2 0 .1-.08.18-.04.3v.04l-.1.34v.05c0 .11-.07.23-.08.3-.05.22-.13.45-.15.69v.53l.06.27.07.26c.03.12.05.26.05.4v.41c0 .1.05.25 0 .37l-.16.58c-.03.1-.08.2-.15.27l-.2.21c-.07.1-.18.2-.35.33a.47.47 0 0 1-.21.08.73.73 0 0 1-.24.01c-.17-.06-.34-.1-.5-.13a1.08 1.08 0 0 0-.44-.06h-.29c-.22 0-.43.05-.63.17-.13.08-.27.09-.4.16-.34.16-.7.18-1.06.07-.28-.09-.42-.14-.64-.18a8.97 8.97 0 0 1-.68-.16c-.15-.03-.28-.04-.41-.08l-.54-.13a1.3 1.3 0 0 1-.6-.3c-.08-.08-.09-.12 0-.1h.01c.37.2.74.31 1.15.39.14.02.26.05.37.09.45.14.78.2 1.18.31.22.06.35.1.42.1.18.02.38 0 .59-.06.06-.02.06-.03 0-.04a3.4 3.4 0 0 1-1.36-.7c-.1-.07-.24-.15-.36-.19-.31-.1-.67-.23-1.07-.4-.43-.18-.85-.5-1.01-.96l-.01-.02a.04.04 0 0 0-.06.01c-.12.18-.24.34-.27.54-.04.25.06.45.15.68V12c0 .04-.03.05-.08.03a.56.56 0 0 1-.18-.36 1.5 1.5 0 0 1-.02-.5c.1-.13.2-.28.32-.4.1-.12.18-.24.23-.37.08-.23.27-.46.3-.66l.18-.77c.05-.38.07-.77.08-1.17 0-.08.05-.16.05-.25a.85.85 0 0 1 .35-.6c.08-.05.15-.11.22-.18.37-.27.97-.3 1.41-.23.3.04.55.1.89.13l.61.08.97.12c.26.03.54.04.84.03a54.16 54.16 0 0 1 1.34-.02c.16.1.28.26.35.46Z" fill="#030303"/><path d="M9.2 7.01c-.2-.04-.4-.05-.6-.03-.2.01-.39.04-.56.08a2 2 0 0 0-.55.2.03.03 0 0 1-.02-.01v-.01c-.02-.09-.08-.13-.17-.13a8 8 0 0 1-.56.03c.07.4.4.48.73.33v.04l.02.01c.17 0 .3-.02.47-.11.27-.14.53-.24.82-.28l.51.07-.25.04a.08.08 0 0 0-.04.02c-.02.03-.12.03-.23.04a46.25 46.25 0 0 1-1.03.3.57.57 0 0 1-.25.04c-.1-.02-.21 0-.34-.02-.2-.03-.37-.1-.52-.2a.03.03 0 0 0-.04 0v.03l-.04-.06c-.03-.06-.06-.06-.08 0a.73.73 0 0 0-.05.35l-.01.03-.1.08c-.02 0-.02.02 0 .03.07.04.15.07.23.08l-.1.01c-.06.01-.07.04-.02.08.04.04.1.05.19.04l-.42.07c.04-.04.04-.08.02-.11A.05.05 0 0 1 6.2 8c.02-.13 0-.26.05-.39l.07-.18c.05-.14.08-.25.17-.33l.21-.19.23-.16c.27-.13.58-.17.91-.1l.37.01 1.6.22c.14.02.28.07.42.08.05 0 .08.03.1.07 0 .02 0 .03.02.03.08.04.14.1.16.18l.03.02.01-.02v-.01a.31.31 0 0 0-.06-.18c-.06-.06-.05-.1.04-.08.4.04.76.03 1.23 0l.77-.03c.04 0 .08 0 .12.03.04.02.08.06.1.1.03.02.02.03 0 .03a3.33 3.33 0 0 0-1.32.09c-.17.05-.37.08-.55.14a11.82 11.82 0 0 1-.23.07l-.1-.09a.17.17 0 0 0-.05-.03c-.14-.06-.3-.16-.46-.2a2.77 2.77 0 0 0-.46-.06c-.2 0-.32-.01-.38-.02Z" fill="#352629"/><path d="M9.2 7.01c-.48.01-.92.13-1.34.36-.07.04-.2.07-.39.1-.34.15-.66.06-.73-.33a.02.02 0 0 1 .02-.02 8 8 0 0 0 .54 0c.09-.01.15.03.16.12a.03.03 0 0 0 .05.01 2 2 0 0 1 .53-.2c.17-.03.36-.06.55-.07.2-.02.41 0 .6.03Z" fill="#6C5B5B"/><path d="m9.3 7.2-.52-.07c.36-.06.7-.06 1.05 0 .27.05.58.18.77.35l.06.08V7.63h-.04c-.31-.35-.87-.45-1.33-.43ZM13.1 7.54c-.16-.23-.68-.28-.89-.26-.26.03-.5.04-.73.1-.25.07-.46.13-.65.2l-.07-.01-.01-.01c-.03-.03-.03-.05 0-.06.15-.07.36-.16.53-.19.1 0 .2-.06.32-.08.4-.06.81-.1 1.22 0 .13.02.34.15.33.3 0 .07-.02.07-.06.01Z" fill="#708C91"/><path d="M13.3 7.28c.04 0 .08-.01.12-.04.06.17.1.3.09.38l-.01.3a2.01 2.01 0 0 1-.14.78.66.66 0 0 0-.05.21c0 .11-.04.19-.04.29.02.2.01.45-.02.72 0 .09.03.17.03.26v.35c.02.13-.05.24-.02.37.06.2.1.34.1.39.04.16-.03.32-.04.49-.01.17-.07.37-.19.52-.1.12-.14.3-.24.44l-.2.3-.23.28c-.04-.05-.1 0-.2.14-.04-.02-.07-.02-.1 0-.23.18-.5.31-.8.42-.08.03-.13.03-.16.02-.1-.03-.2-.08-.3-.1-.2-.05-.4-.14-.59-.26a.9.9 0 0 0-.78-.15l.63-.2c.07-.02.11-.01.14.02.12.13.22.28.42.3l.29-.05a1.84 1.84 0 0 0 .43-.15c.02 0 .03 0 .03.02a1 1 0 0 0-.14.18c-.04.1 0 .13.1.08.12-.07.22-.22.37-.24a7.5 7.5 0 0 0 .34-.1.04.04 0 0 0-.01-.04.45.45 0 0 0-.19-.1 11.3 11.3 0 0 1-.7-.26c.16.03.33.07.5.13h.23a.47.47 0 0 0 .22-.1c.16-.11.28-.22.36-.32l.19-.2a.66.66 0 0 0 .15-.28c.05-.2.1-.39.17-.58.04-.12-.01-.26-.01-.37v-.4c0-.15-.02-.29-.05-.4a5.52 5.52 0 0 0-.07-.27 1.1 1.1 0 0 1-.05-.27 4.5 4.5 0 0 1 0-.53c0-.24.09-.47.14-.69.01-.07.08-.19.07-.3v-.05l.1-.34c.25.07.23-.25.2-.37-.02-.08-.03-.08-.04 0 0 .1.03.33-.15.33-.04-.12.04-.2.03-.3a.32.32 0 0 0-.09-.2c.02-.05.03-.1.03-.17.02.08.05.13.1.15h.02v-.04Z" fill="#34333E"/><path d="M6.58 7.45v.02c-.08 0-.12.05-.13.16 0 .06.03.1.09.11.17.04.31.02.45-.06l.23.05a.01.01 0 0 1 0 .01.01.01 0 0 1 0 .02c-.19.17-.38.21-.68.2a.67.67 0 0 1-.23-.08c-.02-.01-.02-.02 0-.03l.1-.08.01-.03a.73.73 0 0 1 .05-.35c.02-.06.05-.06.08 0l.03.06Z" fill="#556E6F"/><path d="M9.75 7.38c.23.35.14.7-.16.98a.89.89 0 0 1-.52.1c-.12-.03-.25-.06-.35-.12a.58.58 0 0 1-.27-.37c-.03-.13-.02-.3.03-.5a.61.61 0 0 1 .2-.06c.27-.04.46-.06.56-.06.14-.01.3 0 .5.03Z" fill="#FE0000"/><path d="M10.38 8.22c-.25.1-.48.15-.7.17h-.05a.16.16 0 0 0-.04-.03c.3-.27.4-.63.16-.98.24.04.46.12.66.26.06.04.12.08.12.15 0 .07.03.13 0 .22-.02.1-.07.18-.15.21Z" fill="#F8EE68"/><path d="M13.01 7.67a.46.46 0 0 1-.22 0l-.18-.05c-.17-.01-.33 0-.49.03l-.15-.21c.27-.03.52-.02.74.04.1.03.2.1.3.2Z" fill="#D7CE59"/><path d="m11.97 7.44.15.2a.7.7 0 0 1-.03.53c-.05.11-.1.2-.19.24-.09.03-.14.07-.15.1-.13.02-.26.03-.39 0-.39-.15-.52-.42-.39-.82.27-.1.47-.15.6-.19.13-.03.26-.05.4-.06Z" fill="#FE0000"/><path d="M13.2 7.88v-.04c.18 0 .14-.22.15-.33.01-.08.02-.08.04 0 .03.12.05.44-.2.37Z" fill="#17151B"/><path d="M6.58 7.47c.1.08.24.15.4.2a.59.59 0 0 1-.44.07c-.06-.01-.09-.05-.09-.11 0-.1.05-.16.13-.16Z" fill="#92B1B6"/><path d="M8.48 7.48c-.05.2-.06.36-.03.49.04.15.13.28.27.37.1.06.23.09.35.13a.1.1 0 0 1 0 .03c-.47-.1-.76-.3-1.12-.56a.16.16 0 0 0-.1-.03h-.32a.16.16 0 0 1-.11-.05h-.01c-.05-.06-.04-.1.03-.11.1-.02.23 0 .34-.04.22-.06.46-.13.7-.23Z" fill="#D7CE59"/><path d="M13.01 7.67c.13.17.11.34-.03.5-.14.13-.35.2-.55.26-.22.05-.44.08-.68.08.01-.03.06-.07.15-.1.1-.03.14-.13.2-.24a.7.7 0 0 0 .02-.52c.16-.03.32-.04.49-.03l.18.05c.07.02.14.02.22 0Z" fill="#F8EE68"/><path d="M10.97 7.69c-.13.4 0 .67.4.82-.27 0-.51-.05-.75-.11a.07.07 0 0 1-.04-.03l-.07-.1v-.05a.5.5 0 0 0 .12-.37c0-.02 0-.03.02-.03l.32-.13Z" fill="#D7CE59"/><path d="M8.49 8.46c-.09-.01-.13 0-.12.03l-.57-.35a.05.05 0 0 0-.04 0 .06.06 0 0 0-.04.02v.03a8.94 8.94 0 0 0 .73.45l.42.17c.21.1.4.12.6.1l.2-.02c.02 0 .03 0 0 .02a.68.68 0 0 1-.22.1c-.41.1-.72.2-1.12.11-.2-.04-.39-.13-.57-.26a2.17 2.17 0 0 1-.7-.78c-.05-.05-.04-.1.02-.13l.12-.07c.06-.04.1-.02.13.04.08.2.29.15.46.14h.05l.65.4Z" fill="#C65D58"/><path d="m6.2 8.16.4-.07.3-.07c.03 0 .04 0 .01.02a1.43 1.43 0 0 1-.72.38.04.04 0 0 1-.03-.05l.03-.21Z" fill="#708C91"/><path d="M7.77 9.02a5.17 5.17 0 0 0-.34-.2.58.58 0 0 1-.18-.16.07.07 0 0 0-.12.02v.02l-.02.01h-.14c-.02 0-.03.02-.04.03a.18.18 0 0 0 0 .1c-.24-.1-.54-.17-.76 0-.01 0-.02 0-.02-.02v-.3c0-.02.01-.03.03-.03.06 0 .18-.03.37-.08.12-.03.28-.2.39-.29.03-.02.06-.02.07.02.06.13.14.25.24.36.15.19.33.36.52.52Z" fill="#556E6F"/><path d="M10.38 8.22c-.24.2-.54.31-.9.32a1.4 1.4 0 0 1-.4-.04v-.03c.18.01.35-.03.5-.11.03 0 .04.01.05.02.02.01.03.02.05.01.22-.02.45-.07.7-.17Z" fill="#BBE0E2"/><path d="M10.66 8.54c.1.04.19.06.28.07.46.04.8.06 1 .04.26-.02.5-.07.75-.15.09-.03.17-.08.24-.14h.02l.01.02v.04c-.1.08-.2.14-.3.17a2.98 2.98 0 0 1-1.15.16c-.16 0-.37-.02-.64-.07-.1-.01-.15-.08-.21-.14-.01 0-.01 0 0 0Z" fill="#708C91"/><path d="M8.37 8.5c0-.04.03-.05.12-.04.22.1.4.17.53.2.15.04.33.05.56.04.18 0 .31-.06.47-.1a.89.89 0 0 0 .38-.2.04.04 0 0 1 .05 0c.02.03.02.05-.01.07-.2.13-.42.23-.68.3-.26.06-.53.05-.8-.02a5.9 5.9 0 0 1-.62-.26ZM10.78 8.88l-.16-.08a.53.53 0 0 0-.22-.15c.13-.12.26-.04.38.23Z" fill="#92B1B6"/><path d="M7.77 9.02c.03.01.06.02.08.05a.3.3 0 0 1-.12-.02c-.04 0-.06 0-.06.05v.02c0 .04.02.06.05.07.31.12.58.2.8.26.14.03.3.04.48.02.08 0 .19-.04.31-.09.17-.07.35-.12.53-.16l-.28.18a2.87 2.87 0 0 1-.74.17 4.52 4.52 0 0 1-.75-.12c-.28-.1-.49-.2-.62-.29-.22-.16-.4-.26-.52-.32v-.1l.04-.02h.13l.01-.01.01-.01.01-.02a.07.07 0 0 1 .12-.02c.06.06.11.12.18.15l.34.21Z" fill="#93B0C4"/><path d="M10.4 8.65c.1.03.17.09.22.15-.01 0-.03 0-.06-.03h-.02c-.26.44.05.93.5 1.05a.05.05 0 0 0 .06-.03v-.03a.58.58 0 0 0-.22-.38.07.07 0 0 1-.03-.04c-.02-.08-.07-.13-.07-.21 0-.05 0-.09.02-.13 0 .32.16.4.36.6.07.07.09.15.06.23v.02a.02.02 0 0 0 .02.01c.03 0 .06 0 .09-.02a.05.05 0 0 0 .01-.04v-.17h.2c-.08.07-.1.1-.07.12l-.29.23V10l-.01.02.03.13c0 .02.01.03.03.03.14.02.3.08.48.17h.04c.08-.12.17-.19.28-.23.02 0 .03-.02.04-.03a.08.08 0 0 0 .01-.06c-.04-.19-.15-.29-.35-.3l.22-.05c.04.11.1.21.19.3a.88.88 0 0 1-.14.26c-.04.06-.1.1-.17.12-.07.03-.15.04-.22.05l-.43-.2a.06.06 0 0 1-.04-.04c-.04-.1-.02-.18.06-.26V9.9l-.02-.01a.62.62 0 0 0-.17.17s-.02.02-.04.01a1.88 1.88 0 0 1-.48-.06c-.16-.07-.26-.18-.3-.32-.03-.09-.06-.1-.1 0-.04.1-.1.2-.2.25-.1.07-.14.19-.23.24a.64.64 0 0 1-.12.05c-.15.02-.18-.03-.09-.14l.02-.1c0-.03 0-.07.02-.1.06-.1.14-.19.25-.24.12-.07.2-.1.2-.12.08-.08.08-.17 0-.27l.2-.2.09-.21a.03.03 0 0 0 0-.03.03.03 0 0 0-.03-.02c-.1.01-.13.06-.1.13l-.05-.01c-.01-.03-.03-.04-.06-.01-.09.07-.17.1-.24.08.11-.1.24-.17.4-.22.09-.03.16-.1.25-.12Z" fill="#93B0C4"/><path d="M11.04 8.83a3.82 3.82 0 0 0 1.54-.08c-.33.45-.83.6-1.38.64-.26.02-.29-.35-.32-.56 0-.02 0-.02.02-.02l.14.02Z" fill="#C65D58"/><path d="m10.62 8.8.16.08c0 .04 0 .08.02.12a.46.46 0 0 0-.02.13c0 .08.05.13.07.21 0 .02.01.03.03.04.12.1.2.22.23.38a.05.05 0 0 1-.07.06c-.45-.12-.76-.61-.5-1.05h.02c.03.03.05.04.06.03Z" fill="#BBE0E2"/><path d="M4.88 10.24c.04-.14.1-.27.15-.4A529.64 529.64 0 0 0 5.4 8.8l.07.01a.1.1 0 0 1 .08.1.1.1 0 0 1 0 .04c-.05.09-.1.17-.12.27-.1.4-.29.74-.56 1.02Z" fill="#4C4A62"/><path d="m6.94 8.95-.4.05a.42.42 0 0 0-.24.08.56.56 0 0 0-.17.28l-.03.04-.08.1.12-.57a.05.05 0 0 1 .02-.04c.29-.15.51-.05.78.06Z" fill="#556E6F"/><path d="M6.03 8.97c-.07.26-.12.51-.17.77-.04.2-.23.43-.31.66-.05.13-.13.25-.23.36-.12.13-.21.28-.32.41l-.03.04a.06.06 0 0 1-.02-.08l.14-.28c.06-.13.15-.23.24-.31a.07.07 0 0 0 .02-.04.76.76 0 0 1 .17-.4.07.07 0 0 0 .01-.04V10l.01-.02.02-.02c.1-.03.15-.1.13-.2a.05.05 0 0 1 .02-.05.2.2 0 0 0 .05-.16.1.1 0 0 1 0-.05c.03-.05.05-.09.06-.15 0-.1.03-.18.09-.27l.01-.04v-.11c0-.02 0-.03.02-.05A.14.14 0 0 1 6 8.87c.02-.01.03 0 .03.02l.01.08Z" fill="#4C4A62"/><path d="M10.1 8.93v.1l-.26.19c-.18.04-.36.1-.53.16-.12.05-.23.08-.31.09-.18.02-.34 0-.48-.02a5.76 5.76 0 0 1-.8-.26.07.07 0 0 1-.05-.07V9.1c0-.04.02-.06.06-.05.05.02.09.02.12.02.3.15.6.22.91.21.22 0 .45-.08.67-.13a.93.93 0 0 0 .32-.16c.07.01.15-.01.24-.08.03-.03.05-.02.06.01.01.01.02.02.04.01Z" fill="#BBE0E2"/><path d="M7.47 9.3c0 .1.1.15.12.26 0 .01 0 .02.02.03.06.02.09.05.07.08H7.5a.17.17 0 0 1-.14-.07c-.13-.18-.29-.32-.48-.42l-.12-.1a.06.06 0 0 0-.04 0 .62.62 0 0 1-.26-.03l-.04.01a.79.79 0 0 0-.28.3c.03-.12.09-.2.17-.28A.42.42 0 0 1 6.53 9l.41-.05c.18.1.36.21.53.35Z" fill="#93B0C4"/><path d="m6.87 9.18-.36.04c-.12.01-.2.04-.22.08a.9.9 0 0 0-.1.15.4.4 0 0 0-.01.17c0 .27-.04.5-.14.69l-.17.27a.1.1 0 0 1-.06 0c-.01 0-.02 0-.02-.02.01-.18.15-.36.21-.49a.87.87 0 0 0 .07-.2v-.23c0-.08 0-.16.03-.24l.03-.04a.79.79 0 0 1 .28-.3h.04c.09.02.17.02.26.01.01 0 .03 0 .04.02l.12.09Z" fill="#BBE0E2"/><path d="M11.54 9.63h-.2a.44.44 0 0 1-.14-.13c-.01-.02 0-.03.01-.03.3.04.57-.06.86-.17.1-.05.2-.15.28-.2.13-.08.18-.05.14.1-.07.32-.7.43-.95.43Z" fill="#AED8EA"/><path d="M9.93 9.26c.09.1.1.2.02.27l-.2.12c-.12.05-.2.14-.26.25a.2.2 0 0 0-.02.1c0 .04 0 .07-.02.09-.09.1-.06.16.09.14l.12-.05c.1-.05.13-.17.23-.24.1-.06.16-.14.2-.25.04-.1.07-.09.1 0 .04.14.14.25.3.32.06.03.22.05.48.06l.04-.01c.04-.07.1-.13.16-.17h.03v.02c-.08.08-.1.16-.06.26l.04.04.43.2c-.16.03-.32.02-.48-.03h-.04l-.13.02c-.04.01-.05 0-.02-.04l.1-.15c.02-.02.02-.04 0-.08L11 10.1c-.02 0-.03 0-.04.02l-.1.22c0 .01-.01.03-.03.03-.35.2-.73.16-1.1.07a.02.02 0 0 1 0-.02.02.02 0 0 1 0-.02c.15-.09.25-.22.28-.39 0-.02 0-.03-.02 0l-.15.2-.18.15c-.14.1-.3.05-.51.02-.17-.03-.29-.1-.4-.18-.04-.02-.04-.04 0-.04s.1 0 .15-.02a1.55 1.55 0 0 0 .55-.35.02.02 0 0 0-.02-.02c-.05 0-.09 0-.13.02a.43.43 0 0 0-.25-.03l-.2.03c-.27 0-.42.01-.63-.04l-.04.01v.05c0 .02 0 .03.02.03.07.03.13.06.18.1.19.12.45-.05.57.06a.92.92 0 0 1-.2.08.42.42 0 0 1-.22 0l-.23-.07a.83.83 0 0 1-.2-.1l-.42-.25c.02-.03 0-.06-.07-.08a.03.03 0 0 1-.02-.03c-.02-.1-.13-.16-.12-.26.3.14.55.24.76.3l.18.01c.16.02.35.07.48.05l.35-.07c.13-.02.24-.06.33-.1.13-.07.25-.15.36-.23Z" fill="#708C91"/><path d="M12.47 10.88c-.09-.01-.06-.06.08-.13l.13-.15-.02-.01-.02-.01h-.02c-.14.14-.44.14-.67.14-.04 0-.1 0-.16.02a.37.37 0 0 1-.17 0c-.25-.08-.5-.09-.76-.02l-.57.12a.81.81 0 0 1-.37 0c-.23-.08-.33-.11-.53-.14a3 3 0 0 1-.88-.22 2.13 2.13 0 0 1-.31-.13l-.38-.17a.7.7 0 0 1-.21-.14.76.76 0 0 0-.27-.16c-.2-.07-.32-.17-.46-.3l-.31-.27c.19-.08.35-.05.48.09l.27.28c.06.07.15.07.26.07a.3.3 0 0 1 .2.07c.15.12.27.2.36.24.14.07.38.1.5.17.16.13.29.2.37.22.23.04.34.08.53.07.2 0 .45.1.61.1h.3c.2-.05.4-.12.6-.15.05 0 .11 0 .2.02.25.07.45 0 .77-.05.22-.04.41 0 .62-.1.01-.02.02-.01.03 0 .1.1.12.22.07.33a.38.38 0 0 1-.27.21Z" fill="#AED8EA"/><path d="m6.57 9.3.3.28c-.1-.07-.2-.06-.24.03-.05.07-.03.15.05.23.06.1.14.2.25.3l.05.09c-.16-.15-.3-.3-.39-.46-.04-.08-.06-.07-.05.02.06.4.33.52.67.7.3.17.62.31.92.48.13.07.47.1.65.16.12.04.29.12.44.14.42.09.8.12 1.12.1.22 0 .5-.1.72-.11.23 0 .46.03.7 0l.67-.05c.1 0 .2-.04.3-.13.06.15.05.25-.04.31a.6.6 0 0 1-.34.12c-.16 0-.26 0-.3.03-.12.05-.29.13-.47.1a6.02 6.02 0 0 0-.56-.05c-.17 0-.37.07-.5.1-.13.05-.4-.04-.55-.08-.21-.08-.44 0-.6.02-.23.03-.5-.1-.7-.2a.28.28 0 0 0-.14-.03c-.25.02-.47 0-.7-.08a.5.5 0 0 1-.2-.13.92.92 0 0 0-.52-.2.3.3 0 0 1-.2-.13c-.15-.2-.32-.37-.52-.54-.05-.04-.08-.12-.08-.22 0-.01 0-.03-.02-.04-.05-.07-.06-.11-.03-.2a.4.4 0 0 0-.02-.27.05.05 0 0 1 0-.05.76.76 0 0 1 .13-.2.07.07 0 0 1 .04-.03h.16Z" fill="#93B0C4"/><path d="M6.1 9.4a.62.62 0 0 0-.03.24v.22a.87.87 0 0 1-.07.21c-.06.13-.2.3-.21.49 0 .02 0 .03.02.03a.1.1 0 0 0 .06 0l-.03.06c-.04.07-.1.07-.15.01h-.04v.05c.06.2.17.37.36.5.08.04.17.11.29.21l.17.09h.03l.02-.03a.03.03 0 0 0 0-.02.03.03 0 0 0-.01-.02.28.28 0 0 1-.13-.12.12.12 0 0 1 .05-.17l.16-.13a.07.07 0 0 1 .1-.01l.14.1a.11.11 0 0 1 .05.12l-.08.43c-.09.1-.24.07-.45-.06a401.41 401.41 0 0 1-.44-.3c-.1-.11-.24-.21-.28-.33-.06-.17-.12-.28-.07-.42.08-.2.23-.4.31-.6l.15-.45.08-.1Z" fill="#92B1B6"/><path d="M9.43 11.54c-.1.1-.42-.03-.51-.06a.5.5 0 0 1-.16-.1.37.37 0 0 0-.3-.09 1 1 0 0 1-.71-.13 5.1 5.1 0 0 0-.28-.17.44.44 0 0 0-.18-.06.52.52 0 0 1-.39-.23 2.02 2.02 0 0 0-.36-.36c-.22-.17-.16-.48-.18-.82l.03-.06.01-.01a.02.02 0 0 1 .04.01c.03.3.02.62.25.88.13.15.25.26.34.34.05.04.15.1.29.15.18.08.35.17.51.26.23.14.61.1.9.2.28.1.52.18.82.15.2-.02.33-.02.4 0l.4.07c.2.02.46-.07.66-.07.19 0 .4.04.61.03.06 0 .15-.03.28-.06a4.41 4.41 0 0 1 .72-.1l-.01.01c-.11.04-.21.06-.3.08-.22.04-.34.09-.56.14a.54.54 0 0 1-.2.02l-.63-.06-.19.02c-.01 0-.03 0-.04.02-.19.13-.45.09-.66 0-.1-.03-.18-.03-.29-.04a.35.35 0 0 0-.14 0 .52.52 0 0 1-.13.02c-.02 0-.03 0-.04.02ZM12.56 9.86c-.03 0-.05-.03-.05-.06-.01-.06.03-.1.04-.16 0-.03-.02-.04-.05-.04-.12.02-.3.04-.24.21.02.07.03.14.02.23 0 .01 0 .03.02.04a.2.2 0 0 0 .13.05c.1.01.17-.02.22-.09.04.03.04.07.01.13-.04.09-.15.14-.26.14-.12 0-.22.01-.32.03-.04 0-.05-.01-.02-.04l.1-.1.02-.03.05-.17a.05.05 0 0 0-.02-.05c-.04-.03-.07-.02-.07.03-.08-.09-.15-.19-.2-.3.16-.05.31-.1.45-.17.05-.02.08-.03.1-.02.09.04.09.14.06.22v.15Z" fill="#708C91"/><path d="M6.88 9.58c.14.13.26.23.46.3.1.04.2.1.27.16a.7.7 0 0 0 .2.14c.1.03.22.09.39.17.08.05.18.09.31.13.04 0 .14.05.32.11.1.04.3.08.56.11.2.03.3.06.53.14.08.03.2.03.37 0l.57-.12c.26-.07.51-.06.76.03l.17-.01a.86.86 0 0 1 .16-.02c.23 0 .53 0 .67-.13a.04.04 0 0 1 .04 0h.02v.01l-.13.15c-.32.05-.64.07-.97.06-.08 0-.14-.04-.21-.05-.11-.02-.25-.01-.42.02-.06 0-.09.04-.14.04-.08 0-.15.07-.24.08-.2.04-.38.09-.63.06-.1-.02-.2-.07-.28-.1a.69.69 0 0 0-.22-.06 2.65 2.65 0 0 1-.7-.17c-.09-.03-.27-.04-.33-.08a2.6 2.6 0 0 0-.65-.33c-.09-.03-.17-.1-.23-.14a.98.98 0 0 0-.18-.1 1.37 1.37 0 0 1-.42-.29.26.26 0 0 0-.21-.07c-.02 0-.03.01-.03.03-.02.03 0 .07.02.1-.02 0-.03.04-.03.1-.08-.1-.1-.17-.05-.24.05-.09.13-.1.25-.03Z" fill="#708C91"/><path d="m12.56 9.86.09.18c-.05.07-.12.1-.22.1a.2.2 0 0 1-.13-.06.05.05 0 0 1-.02-.04c0-.09 0-.16-.02-.23-.07-.17.12-.2.24-.2.03-.01.05 0 .05.03 0 .06-.05.1-.04.16 0 .03.02.05.05.06Z" fill="#BBE0E2"/><path d="M12.55 10.75c-.14.07-.17.12-.08.13a9.8 9.8 0 0 0-.62.1.84.84 0 0 1-.34 0c-.2-.04-.34-.07-.5-.03-.29.07-.57.13-.86.17a.77.77 0 0 1-.41-.04 1.8 1.8 0 0 0-.28-.09c-.12-.03-.25-.03-.35-.04-.17-.01-.38-.18-.5-.19-.2-.02-.31-.04-.35-.07l-.23-.15c-.13-.08-.24-.1-.43-.15a.28.28 0 0 1-.12-.07.77.77 0 0 1-.07-.08c-.07-.09-.16-.12-.26-.15A.55.55 0 0 1 7 10a2.7 2.7 0 0 1-.27-.25c-.04-.03-.05-.07-.03-.1 0-.02.01-.03.03-.03.08 0 .16.02.21.07.14.14.28.23.42.3l.18.09c.06.04.14.11.23.14.23.08.44.19.65.33.06.04.24.05.33.08.21.09.45.14.7.17.1 0 .17.03.22.05.08.04.19.1.28.1.25.04.44-.01.63-.05.09-.01.16-.09.24-.08.05 0 .08-.04.14-.04.17-.03.31-.04.42-.02.07 0 .13.05.21.05.33 0 .65-.01.97-.06Z" fill="#A59ECB"/><path d="M6.98 10.23a2.32 2.32 0 0 0 .46.2 26.5 26.5 0 0 0 .67.29c.08.05.14.1.25.12.22.04.44.12.64.23.11.06.18.09.22.09.13 0 .25.02.4.07.22.1.56.08.77.04.23-.06.36-.08.53-.14a.66.66 0 0 1 .2-.04l.2-.02c.26.08.52.07.8-.01a.77.77 0 0 1 .6.02c-.1.09-.2.13-.29.13-.24.02-.47.03-.66.06-.25.02-.48-.02-.71-.01-.21 0-.5.1-.72.12-.32 0-.7-.02-1.12-.1-.15-.03-.32-.11-.44-.15-.18-.06-.52-.09-.65-.16-.3-.17-.62-.3-.92-.47-.33-.19-.61-.32-.67-.71-.01-.09 0-.1.05-.02.1.16.23.31.4.46Z" fill="#AED8EA"/><path d="M11.73 9.73c.2.01.31.11.35.3v.06a.08.08 0 0 1-.05.03c-.1.04-.2.12-.28.22-.01.01-.02.02-.04 0-.18-.08-.34-.14-.48-.16-.02 0-.03 0-.03-.03l-.03-.13a.04.04 0 0 1 .01-.04l.29-.23.26-.02ZM9.3 9.8l-.35.21c-.12-.1-.38.06-.57-.06a1.12 1.12 0 0 0-.18-.1.06.06 0 0 1-.03-.03v-.05a.03.03 0 0 1 .05-.01c.2.05.36.04.63.04.02 0 .1 0 .2-.03.09-.01.17 0 .25.03Z" fill="#BBE0E2"/><path d="M7.44 10.44a2.32 2.32 0 0 1-.46-.2l-.05-.1c.23.02.4.12.51.3ZM6.26 10.57c-.08-.02-.16.05-.24.19-.1.15-.05.26.11.32.02.08.07.08.13-.02a.96.96 0 0 0 .1-.36l.18-.11c.15.1.25.23.31.37.1.2.08.44-.05.7l.08-.43a.11.11 0 0 0-.05-.12l-.14-.1a.07.07 0 0 0-.1 0c-.05.07-.1.11-.16.14a.12.12 0 0 0-.05.17c.03.05.07.1.13.12a.03.03 0 0 1 0 .04v.02a.03.03 0 0 1-.04.01l-.17-.09-.29-.22a.85.85 0 0 1-.36-.5v-.04h.04c.06.06.1.06.15 0v.05l.03.03h.01l.03-.02c.05-.1.07-.17.13-.23a.46.46 0 0 0 .14-.32c0-.01 0-.02.02-.02h.01l.07.24c.02.06.01.12-.02.18Z" fill="#708C91"/><path d="m6.54 10.59-.19.1.02-.22a.03.03 0 0 1 .03-.02c.07.03.1.08.14.14Z" fill="#303C3D"/><path d="M6.26 10.57a1.4 1.4 0 0 1-.13.51c-.16-.06-.2-.17-.11-.32.08-.14.16-.2.24-.19Z" fill="#BBE0E2"/><path d="M11.9 12.23c.02-.01.02-.02.02-.03a.04.04 0 0 0-.03-.03h-.03c-.18.07-.38.1-.58.1-.01 0-.02 0 0-.01.1-.13.21-.24.4-.3.21-.05.37-.12.58-.28l.2-.1c.1-.03.2-.08.28-.14.07-.05.1-.08.11-.16a.35.35 0 0 0-.15-.32.05.05 0 0 1 0-.09.68.68 0 0 0 .17-.26c.03-.07.04-.07.05 0l.04.55c0 .2 0 .35-.05.46l-.12.44c-.02.09-.09.2-.2.32-.13.18-.3.32-.48.44-.22.14-.59-.03-.82-.06-.16-.03-.33-.08-.5-.09h-.23c-.05 0-.06-.01-.02-.04.17-.13.34-.16.56-.22.18-.05.38-.06.57-.08a.48.48 0 0 0 .24-.1Z" fill="#24232A"/><path d="M5.56 12.33a1.27 1.27 0 0 1-.36-.3c.05.02.08 0 .08-.03V12c-.1-.23-.2-.43-.15-.68.03-.2.15-.36.27-.54l.02-.01h.02a.04.04 0 0 1 .03.02c.16.46.58.78 1.01.96.4.17.76.3 1.07.4.12.04.27.12.36.2.4.3.89.61 1.36.69.06 0 .06.02 0 .04-.2.06-.4.08-.6.06-.06 0-.2-.04-.41-.1-.4-.1-.73-.17-1.18-.31-.1-.04-.23-.07-.37-.1a3.6 3.6 0 0 1-1.17-.39c-.08 0-.07.03.02.1Z" fill="#17151B"/><path d="m11.32 11.07-.2.02a.66.66 0 0 0-.2.04c-.17.06-.3.08-.53.14-.21.04-.55.06-.78-.04a1.08 1.08 0 0 0-.4-.07.7.7 0 0 1-.21-.1c.1.01.2.02.3.01.1 0 .26.05.46.14.03.02.1.03.22.04l.23-.01c.16-.03.39-.07.7-.15.12-.03.26-.04.41-.02Z" fill="#837A9F"/><path d="M8.16 11.48c-.17.04-.3.04-.37 0a1.4 1.4 0 0 0-.48-.16.1.1 0 0 0-.09.04l-.15.2c0 .02-.01.02-.02.02H7c-.02 0-.03 0-.05.02l-.1.1c.1-.2.13-.32.13-.38l.01-.23a4.85 4.85 0 0 1 .23 0c.16.01.28.06.35.14a.9.9 0 0 0 .17.15c.08.05.22.08.42.1Z" fill="#556E6F"/><path d="M8.16 11.48a.34.34 0 0 1-.23.15 1.17 1.17 0 0 0-.6-.22l-.01.01-.01.04c0 .01 0 .03.03.04.12.09.26.15.4.18l-.13.03c-.02 0-.02.02 0 .03 0 .01.02.02.05.02.13.04.24.05.32.04l.77-.1-.57.18a.04.04 0 0 0-.03.04v.03c0 .01.01.02.03.02a.9.9 0 0 0 .67-.09c.01 0 .02-.01.02-.03l-.01-.08.04.08v.03l-.05.05-.14.06c-.26.09-.5.08-.72.1-.02 0-.02.01 0 .02.26.07.46.1.62.09a4.98 4.98 0 0 1 .38-.01c0-.02.01-.03.02-.03.15-.1.3-.17.46-.23l-.25.17c-.04.03-.04.04 0 .06.13.03.26.04.4.05.01 0 .03 0 .04-.02a.5.5 0 0 1 .19-.1c.06 0 .1-.07.14-.12a.05.05 0 0 0-.03-.08.8.8 0 0 0-.49.04l.13-.11a.07.07 0 0 1 .05-.02c.16 0 .32.03.47.08.04.02.04.05 0 .11l-.31.18-.16.13c-.02.02-.01.02 0 .02.25-.02.5-.13.76-.22.3-.1.43-.3.77-.3.15 0 .25.05.3.16-.11.07-.21.14-.3.23a.45.45 0 0 1-.2.12c-.21.04-.42-.05-.6-.04a.51.51 0 0 0-.2.07l-.2.09c-.15.05-.3.07-.44.06-.17-.01-.32-.1-.47-.15a.83.83 0 0 0-.51.03.84.84 0 0 1-.33.04.6.6 0 0 1-.25-.12 1.78 1.78 0 0 0-.7-.32c-.14-.04-.29-.12-.44-.17a.05.05 0 0 1-.03-.05c0-.03.01-.05.05-.05l.1-.1a.06.06 0 0 1 .04-.02h.04l.03-.01.15-.2a.1.1 0 0 1 .09-.05c.17.03.33.08.48.16.07.04.2.04.37 0Z" fill="#92B1B6"/><path d="m4.76 12.02.3.32c.07.08.19.13.24.22l.2.28c.14.18.32.36.45.53.14.18.3.25.56.4a1 1 0 0 0 .59.14l.4-.03c.13 0 .25-.02.38-.05.47-.12.85-.2 1.11-.24.29-.05.53-.04.73.02.15.04.36.18.5.3.1.07.24.16.39.24.1.05.19.08.29.07.26 0 .47-.06.63-.15.22-.12.46-.33.73-.61.1-.15.16-.2.2-.14a7.42 7.42 0 0 1-.2.28c-.3.29-.49.46-.6.53-.2.12-.38.2-.54.21-.08.01-.19 0-.34-.02a.6.6 0 0 1-.24-.1l-.59-.38c-.32-.19-.57-.19-.91-.19a1 1 0 0 0-.3.05c-.28.08-.55.18-.82.29-.18.07-.37.09-.52.11-.42.08-.86-.07-1.2-.33-.17-.14-.4-.29-.56-.51a11.96 11.96 0 0 0-.84-1.04 4.36 4.36 0 0 0-.44-.34 2.54 2.54 0 0 0-.23-.18c-.14-.1-.16-.17-.17-.32 0-.07 0-.08.04-.01.04.06.07.16.14.22.14.12.29.2.44.32.06.04.11.08.18.1Z" fill="#724C79"/><path d="m7.93 11.63-.18.05c-.15-.03-.29-.1-.41-.18l-.03-.04v-.04l.03-.01h.02c.2.02.4.1.57.22Z" fill="#BBE0E2"/><path d="M5.02 11.67c.02.16.08.28.18.36.1.13.22.23.36.3.17.16.36.26.6.3l.53.14c.13.04.26.05.41.08.26.08.49.13.68.16.22.04.36.1.64.18.37.11.72.09 1.05-.07.14-.07.28-.08.4-.16.2-.12.42-.17.64-.17h.3c.13-.01.28 0 .42.06.24.1.47.18.71.26.07.02.13.05.19.1v.02a.04.04 0 0 1-.02.05 7.5 7.5 0 0 1-.31.07c-.15.02-.25.17-.37.24-.1.05-.14.03-.1-.08a1.01 1.01 0 0 1 .14-.18l-.02-.02h-.02a1.85 1.85 0 0 1-.71.2c-.2-.02-.3-.17-.42-.3-.03-.03-.07-.04-.14-.02l-.63.2-.43.07c-.26.03-.44.09-.67.13a16.8 16.8 0 0 0-.88-.03.05.05 0 0 0-.03-.01c-.24.02-.45-.02-.65-.12a2.13 2.13 0 0 0-.2-.1.09.09 0 0 1-.03-.02 62.37 62.37 0 0 0-.8-.57c-.25-.16-.43-.31-.67-.49-.09-.06-.13-.12-.2-.2a.08.08 0 0 1-.02-.04.88.88 0 0 0-.15-.41.2.2 0 0 1-.02-.05.25.25 0 0 1-.02-.04c0-.1.03-.12.1-.06l.07.05c.02 0 .03.01.03.03l.06.14Z" fill="#4C4A62"/><path d="m8.85 11.93.05-.05v-.03l-.04-.08c0-.03-.04-.05-.11-.07l-.77.1a.79.79 0 0 1-.32-.04 1 1 0 0 0 .38-.09c.24-.15.49-.26.75-.08.05.04.17.08.36.12.02 0 .02 0 0 .02a.93.93 0 0 1-.3.2Z" fill="#556E6F"/><path d="M10.13 11.99c.03-.06.03-.1-.01-.1a1.27 1.27 0 0 0-.47-.09c-.02 0-.03 0-.05.02l-.13.1c-.16.07-.31.15-.46.24l-.02.03-.03.02-.35-.01a2.14 2.14 0 0 1-.62-.1c.22-.03.46-.02.72-.11-.01.06.04.07.17.02.1-.04.2-.12.34-.24a2.1 2.1 0 0 1 .62-.1c.09 0 .26.04.5.12.02 0 .03.01.02.03a.53.53 0 0 1-.23.17ZM11.48 11.96c-.05-.1-.15-.16-.3-.16-.34 0-.48.2-.77.3-.26.1-.5.2-.75.22-.02 0-.03 0 0-.02l.15-.13c-.02.04 0 .05.06.04l.07-.02c.15-.07.28-.16.4-.25a1 1 0 0 1 .28-.18c.2-.07.4-.1.56-.08a19.62 19.62 0 0 0 .56.08v.01a.74.74 0 0 1-.26.2Z" fill="#556E6F"/><path d="M8.75 11.7c.07.02.1.04.11.07v.08l-.01.03a.9.9 0 0 1-.67.1c-.02 0-.03-.02-.03-.03v-.05l.03-.02.57-.18ZM9.47 11.93a.8.8 0 0 1 .49-.04.05.05 0 0 1 .04.06l-.01.02c-.04.05-.08.11-.14.13a.5.5 0 0 0-.2.1.06.06 0 0 1-.04 0c-.13 0-.26-.01-.38-.04-.05-.02-.05-.03-.01-.06l.25-.17Z" fill="#BBE0E2"/><path d="M10.52 12.52c-.04-.04-.1-.03-.17.02a.63.63 0 0 1-.14.07l-.43.17c-.1.03-.17.05-.23.05a1.94 1.94 0 0 1-.85-.15.41.41 0 0 0-.18-.04.46.46 0 0 1-.14-.1v-.02c.2-.06.38-.09.57-.09.2 0 .33.15.55.16.21 0 .35 0 .42-.04.28-.1.44-.2.68-.17.09 0 .1.04.02.09a.47.47 0 0 1-.1.05Z" fill="#303C3D"/><path d="M10.52 12.52a.99.99 0 0 1-.36.23l-.34.12c-.19.08-.39.1-.6.05a2.29 2.29 0 0 1-.7-.28c.06 0 .12.01.18.04l.16.07c.23.06.46.1.69.08.06 0 .13-.02.23-.05l.43-.17.14-.07c.08-.05.13-.06.17-.02Z" fill="#837A9F"/><path d="m12.57 13.78-.15.12c-.86.6-1.88.99-2.91 1.08l-.06-.27a2.05 2.05 0 0 1-.1-.36c-.03-.14-.1-.3-.15-.44-.02-.05-.01-.08 0-.1.01-.01.03-.02.04 0 .16.16.28.26.35.29.12.04.23.1.34.16.1.06.2.1.28.12.23.06.46.08.71.07.24 0 .48-.07.71-.2.18-.1.34-.28.52-.42.1-.07.13-.14.2-.22a.06.06 0 0 1 .08 0l.07.06.03.04c0 .03.02.06.04.07Z" fill="#34333E"/><path d="M8.55 14.99a7.26 7.26 0 0 1-1.03-.17l-.02-.2c0-.02 0-.04.02-.05.08-.07.17-.15.3-.24l.63-.43a4.58 4.58 0 0 1 .53-.14.03.03 0 0 1 0 .03l-.05.2c-.03.15-.1.26-.16.4l-.07.2a3 3 0 0 1-.15.4Z" fill="#4C4A62"/><path d="M10.92 14.45c-.25.01-.48 0-.7-.07a1.15 1.15 0 0 1-.3-.12c-.1-.06-.2-.12-.33-.16a1.32 1.32 0 0 1-.35-.3l-.04.01c-.01.02-.02.05 0 .1l-.02-.1a.05.05 0 0 1 .03-.05h.02c.26.01.49.08.68.2.21.12.4.2.57.35.07.06.13.1.2.1.07.03.15.04.24.04Z" fill="#17151B"/><path fill-rule="evenodd" d="M9 14.8a5.82 5.82 0 1 0 .01-11.64A5.82 5.82 0 0 0 9 14.8Zm0 .18a6 6 0 1 0 .01-12 6 6 0 0 0-.01 12Z" fill="#030303"/></svg>