<!-- by TradingView --><svg width="18" height="18" viewBox="0 0 18 18" xmlns="http://www.w3.org/2000/svg"><path fill="#F0F3FA" d="M0 0h18v18H0z"/><path fill-rule="evenodd" d="M15 9A6 6 0 1 1 3 9a6 6 0 0 1 12 0Zm-1 0A5 5 0 1 1 4 9a5 5 0 0 1 10 0ZM9.71 5H8.64v.67A2.45 2.45 0 0 0 6.5 8.03a2.4 2.4 0 0 0 1.61 2.23c.05.42.43.74.89.74.5 0 .9-.37.9-.83 0-.46-.4-.84-.9-.84a.94.94 0 0 0-.45.11 1.5 1.5 0 0 1-1.08-1.4c0-.83.7-1.5 1.58-1.5.72 0 1.32.46 1.52 1.07l.93-.24a2.48 2.48 0 0 0-1.79-1.65V5ZM9 8.67c.16 0 .32-.04.45-.12.63.2 1.08.76 1.08 1.41 0 .83-.7 1.49-1.58 1.49-.72 0-1.32-.45-1.52-1.07l-.93.25c.28.9 1.12 1.6 2.14 1.71V13h1.07v-.75a2.42 2.42 0 0 0 1.79-2.29 2.4 2.4 0 0 0-1.61-2.22A.87.87 0 0 0 9 7c-.5 0-.9.37-.9.83 0 .46.4.84.9.84Z"/></svg>