<!-- by TradingView --><svg width="18" height="18" viewBox="0 0 18 18" xmlns="http://www.w3.org/2000/svg"><path fill="#F0F3FA" d="M0 0h18v18H0z"/><path d="m11.29 3.46-.53.18a5.73 5.73 0 0 0-3.92.12c.02 0 .03-.02.04-.03.01-.04.04-.05.07-.05.02 0 .03 0 .02-.03a.13.13 0 0 0-.1-.07c-.02 0-.03 0-.04.02 0 .03-.02.03-.04.01a.03.03 0 0 1 0-.04.62.62 0 0 0 .1-.11c.04-.07.03-.08-.04-.04-.02 0-.03.02-.03.04l-.07-.01.01-.02a6 6 0 0 1 4.53.03Z" fill="#E02600"/><path d="m10.76 3.64.68.27a5.63 5.63 0 0 1 2.93 6.81 5.65 5.65 0 1 1-3.6-7.08Z" fill="#F0F3FA"/><path d="M6.82 3.79a5.66 5.66 0 0 0-3.11 7.2c-.12-.01-.22.04-.31.15a6.02 6.02 0 0 1 3.35-7.7l.06.02h.01c0-.02.01-.03.03-.04.07-.04.08-.03.04.04a.62.62 0 0 1-.1.1.03.03 0 0 0 0 .05c.02.02.04.02.04 0 .01-.03.02-.03.04-.03.05 0 .08.03.1.07.01.03 0 .04-.02.03-.03 0-.06.01-.07.05l-.04.03c-.04 0-.04.01-.02.03Z" fill="#D11C01"/><path d="m11.3 3.46.2.08-.06.37-.68-.27.53-.18Z" fill="#980201"/><path d="M11.5 3.54a6.01 6.01 0 0 1 3.13 7.54l-.26-.36a5.69 5.69 0 0 0-2.93-6.8l.05-.38Z" fill="#D11C01"/><path d="M10.23 3.82c-.52.24-.92.46-1.18.66a3.86 3.86 0 0 0-1.39 2.05c-.6.48-.53.42-.53 1.75-.04 0-.38.06-.38.1l-.01.06a.08.08 0 0 1-.08.02.06.06 0 0 0-.07.05v.38c0 .02 0 .03-.02.05-.02.01-.03.03-.01.06v.16c0 .02 0 .04.02.06.04.12-.11.33-.17.44 0 .02-.02.03-.04.05a.1.1 0 0 0-.03.05l-.02.05-.15.17c-.02.03-.04.04-.07.03l-.04.01-.22.22a.05.05 0 0 1-.04.02h-.02c-.02 0-.03 0-.04.02a.22.22 0 0 1-.16.1.06.06 0 0 0-.04.03c-.08.1-.2.07-.3.2-.02.02-.04.02-.06 0a.07.07 0 0 0-.08.01l-.02.01h-.03c-.16-.01-.32.05-.49.03a.1.1 0 0 0-.05.01c-.1.05-.2.06-.28.04a.63.63 0 0 0-.3-.04 5.27 5.27 0 0 1-.24-2.22c.06 0 .08-.02.08-.08 0-.02 0-.03.02-.04a.1.1 0 0 0 .05-.03l.05-.02h.03c.02.02.02.04 0 .05l-.03.02v.04c.07.05.13.06.2.05.13-.03.29-.06.42-.03.16.03.29.04.39.03.05 0 .08-.04.08-.09 0-.01 0-.03.02-.04l.28-.19a.06.06 0 0 0 .03-.05c0-.05.02-.1.04-.15a.1.1 0 0 1 .04-.03c.1-.08.1-.26.11-.36 0-.02.01-.04.03-.05l.02-.02a.25.25 0 0 0 .03-.1h.01c.02.06.02.11.02.17 0 .02 0 .03 0 0 .02-.03 0-.13.01-.2l.01-.02h.03s.02 0 .02-.02a.4.4 0 0 1 .18-.19c.01 0 .02-.02 0-.03-.02-.03-.03-.05-.03-.1a16.35 16.35 0 0 0-.04-.4.27.27 0 0 1-.06-.1l.01-.05c.03-.02.03-.05 0-.07v-.06c.07-.1.07-.2 0-.3a.05.05 0 0 1 0-.06.05.05 0 0 1 .06-.02c.03 0 .04 0 .04-.03 0-.07.02-.14.01-.21 0-.04.01-.06.05-.07l.01-.02v-.03l.02-.05A.2.2 0 0 0 6 5.37c0-.02 0-.04.02-.06a.16.16 0 0 1 .08-.05c.02 0 .04-.02.05-.04a.32.32 0 0 1 .13-.15.04.04 0 0 0 .02-.04c-.01-.11.03-.17.13-.2.02 0 .03 0 .03-.03a1.38 1.38 0 0 1 .04-.2l.02-.01.02-.04c.02-.09-.02-.16-.1-.22a5.25 5.25 0 0 1 3.8-.5Z" fill="#E02600"/><path d="M10.23 3.82c.5.12.96.3 1.4.57.1.24.25.4.48.51.5.22.9.6.94 1.17.03.58-.06 1.43.14 2.23a8.56 8.56 0 0 1-.9 0c-.15.01-.32-.03-.46-.03-.45.03-.89.03-1.33.01-.4-.01-.65-.2-1.17-.52-.5-.13-1.13 0-1.56.23V6.7c0-.02-.01-.03-.03-.03h-.22c.26-.86.86-1.72 1.53-2.2.26-.2.66-.42 1.18-.66Z" fill="#980201"/><path d="M6.43 4.33c.08.06.12.13.1.22 0 .01 0 .03-.02.04l-.02.01-.01.02-.02.18c0 .02-.02.03-.04.04-.1.02-.14.08-.13.19 0 .02 0 .03-.02.04a.32.32 0 0 0-.13.15c-.01.02-.03.04-.05.04a.16.16 0 0 0-.08.05.08.08 0 0 0-.02.06.2.2 0 0 1-.06.13.07.07 0 0 0-.01.05v.03l-.02.02c-.03 0-.05.03-.05.07l-.01.21c0 .03-.01.04-.04.03-.02 0-.04 0-.06.02a.05.05 0 0 0 0 .07c.07.1.07.2 0 .3v.05c.03.02.03.05 0 .07-.01.01-.02.03-.01.05.01.04.04.07.07.1a.08.08 0 0 1 .02.06v.34c0 .05.02.07.04.1.02.01.01.02 0 .03a.4.4 0 0 0-.18.2l-.02.01h-.02c-.01 0-.02 0-.02.02v.2c0 .03-.01.02-.01 0 0-.06 0-.11-.02-.16 0-.02 0-.02 0 0l-.04.09-.02.02a.07.07 0 0 0-.03.05c-.02.1 0 .28-.11.36a.1.1 0 0 0-.03.03.35.35 0 0 0-.05.15c0 .02 0 .04-.02.05l-.29.2a.05.05 0 0 0-.02.03c0 .05-.02.08-.08.09-.1 0-.23 0-.38-.03-.14-.03-.3 0-.43.03a.24.24 0 0 1-.2-.05v-.04l.03-.02c.02-.01.02-.03 0-.04h-.03a.31.31 0 0 0-.05 0 .1.1 0 0 1-.05.04l-.02.04c0 .06-.02.09-.08.08a5.36 5.36 0 0 1 2.74-4.12ZM11.64 4.39a5.33 5.33 0 0 1 2.53 5.82c-.06 0-.09 0-.1-.04l-.46-.84c-.18-.35-.32-.7-.42-1.03-.2-.8-.11-1.65-.14-2.23-.03-.57-.44-.95-.94-1.17a.86.86 0 0 1-.47-.51Z" fill="#D11C01"/><path d="m9.54 7.73-.35.73a.1.1 0 0 1-.08.04H7.88c-.03 0-.05 0-.05-.04l-.05-.55a2.61 2.61 0 0 1 1.76-.18Z" fill="#E02600"/><path d="M11.83 8.27c.14 0 .31.04.47.02H13.19c.1.35.24.69.42 1.04l.45.84c.02.03.06.04.1.04v.08a5.32 5.32 0 0 1-1.88 2.9 5.48 5.48 0 0 1-.9-1.87h.17c.06 0 .07-.03.04-.07l-.21-.48a5.85 5.85 0 0 0-.34-1.27c-.14-.39-.4-.94-.72-1.16.09-.45 1.26-.05 1.51-.07Z" fill="#AC0B01"/><path d="M7.4 8.12v1.54c-.3.44-1.21 1-1.56 1.28-.4.33-.86.62-1.37.88a5.09 5.09 0 0 1-.54-1.15c.08-.02.18 0 .3.04.08.02.18.01.28-.04a.1.1 0 0 1 .05 0c.18 0 .33-.05.5-.03a.06.06 0 0 0 .04-.02.07.07 0 0 1 .08 0c.02.01.04 0 .06-.01.1-.13.22-.1.3-.2a.06.06 0 0 1 .04-.02.22.22 0 0 0 .16-.11.04.04 0 0 1 .04-.03h.03l.03-.01.22-.22a.04.04 0 0 1 .04-.01c.03 0 .05 0 .08-.03a3.59 3.59 0 0 0 .16-.22.1.1 0 0 1 .03-.05.14.14 0 0 0 .04-.05c.06-.1.21-.32.17-.44a.12.12 0 0 1-.01-.06L6.56 9c-.02-.03-.01-.05.01-.06a.05.05 0 0 0 .02-.05v-.38a.06.06 0 0 1 .03-.04.06.06 0 0 1 .04-.01c.03 0 .06 0 .08-.02a.06.06 0 0 0 .02-.05c-.01-.05.59-.27.63-.27Z" fill="#E93600"/><path d="M10.32 8.34c.32.22.58.77.72 1.16.17.42.28.85.34 1.27l-1.35-2.01a.04.04 0 0 1 0-.05l.3-.37ZM11.13 11.22l-.13.58a.1.1 0 0 1-.01.04.19.19 0 0 0-.01.14.1.1 0 0 1 0 .06l-.01.07c-.01.08-.05.15-.05.23l-.01.06c-.06.12-.02.25-.04.36-.03.24-.02.46-.06.7-.03.18-.04.37-.02.56a5.31 5.31 0 0 1-5.8-1.52.12.12 0 0 0 .04-.03v-.04L5 12.42v-.01a.02.02 0 0 1 .01-.03c.2 0 .38.07.56.07h.67c.02 0 .03.01.04.03.02.02.04.03.07.02.01 0 .03 0 .04.02.12.12.27.1.43.1.02 0 .04 0 .05.02.07.04.14.06.22.04l.06.01c.1.06.34.13.47.09h.06c.03 0 .07 0 .1-.02a.13.13 0 0 1 .06-.02c.08 0 .12-.04.13-.12 0-.02 0-.02-.02-.02a.27.27 0 0 1-.1 0c-.03 0-.05.01-.06.03l-.02.05c0 .02-.02.03-.04.03h-.07c-.03 0-.03-.02 0-.03l.15-.08.02-.03c0-.06.03-.11.07-.15.02-.02.01-.04-.01-.05l-.02-.01c-.02-.02-.02-.04 0-.05.02-.02.03-.05.02-.09h.03v.02l.01.01h.01l.01-.01a.87.87 0 0 0 0-.44v-.06c-.05-.54-.25-1.67-.25-2.42 0-.02 0-.03.03-.03l1.64-.2c.02 0 .04.01.05.03l1.16 2.08.01.01h.54Z" fill="#E02600"/><path d="m7.42 9.32-.36 1.95c0 .02 0 .04.03.04h.87v.03c0 .02.01.02.02 0L8 11.3a.02.02 0 0 1 .03 0v.02l-.07.4c-.01.03-.01.05 0 .07a.87.87 0 0 1-.02.45h-.02v-.03h-.03c.01.04 0 .07-.02.09-.02.01-.02.03 0 .05l.02.01c.02.01.03.03 0 .05a.25.25 0 0 0-.06.15c0 .01 0 .02-.02.03l-.16.08c-.02.01-.02.02 0 .03h.08c.02 0 .03-.01.04-.03l.02-.05c.01-.02.03-.03.05-.02h.1c.03-.01.03 0 .03.01 0 .08-.05.12-.13.12l-.06.02a.12.12 0 0 1-.1.02h-.06c-.13.04-.36-.03-.47-.09a.08.08 0 0 0-.06 0 .27.27 0 0 1-.22-.05.08.08 0 0 0-.05-.02c-.16 0-.3.02-.43-.1a.05.05 0 0 0-.04-.02c-.03 0-.05 0-.07-.02a2114145.86 2114145.86 0 0 0-.72-.03c-.17 0-.36-.06-.55-.07l-.02.02a.02.02 0 0 0 .01.02h.02c.02.02.02.03.01.05l-.05.03-.5-.68c.5-.26.96-.55 1.36-.88.35-.28 1.28-1.18 1.58-1.62Z" fill="#D11C01"/><path d="m14.37 10.72.26.36a6.02 6.02 0 0 1-1.96 2.67l-.15-.34c.87-.7 1.5-1.6 1.85-2.69Z" fill="#AC0B01"/><path d="M3.71 11c.13.34.3.67.49.98l-.3.17c-.2-.32-.37-.66-.5-1.01.09-.11.19-.16.31-.14ZM11.01 11.27h.6c-.02.04-.01.05 0 .05l-.03-.02c-.02-.01-.04 0-.04.02a1.9 1.9 0 0 0 0 .5 3.36 3.36 0 0 1 .14.59.1.1 0 0 1 .02.05c0 .16.03.32.08.47l.05.2c.03.1.08.19.16.27-.38.26-.78.46-1.2.62-.02-.2-.01-.38.02-.56.04-.24.03-.46.06-.7.02-.11-.02-.24.04-.36v-.06c.01-.08.05-.15.06-.23v-.07a.1.1 0 0 0 0-.06.19.19 0 0 1 .02-.14.1.1 0 0 0 0-.04l.02-.53Z" fill="#E93600"/><path d="M11.6 11.57c.14.62.32 1.13.68 1.62l-.29.21a.6.6 0 0 1-.16-.28l-.05-.19c-.05-.15-.07-.3-.08-.47a.1.1 0 0 0-.02-.05.49.49 0 0 1-.16-.84c0-.03.02-.04.04-.02l.04.02Z" fill="#EC5B01"/><path d="M4.2 11.98c.48.78 1.11 1.4 1.9 1.87-.03.1-.1.15-.23.18v.01l.01.02c0 .02 0 .03-.02.05a6.07 6.07 0 0 1-1.96-1.96l.3-.17Z" fill="#E02600"/><path d="m12.52 13.41.15.34a6 6 0 0 1-6.81.36c.02-.02.03-.03.02-.05v-.02c-.02 0-.02 0 0-.01.12-.03.19-.09.22-.18a5.68 5.68 0 0 0 6.42-.44Z" fill="#E93600"/><path d="M7.78 6h.2C8 6 8 6.01 8 6.04V7.93c0 .04.03.05.06.05h1.12c.02 0 .05-.02.06-.05l.28-.42.96-1.47c0-.02.02-.04.04-.04h1.33c.05 0 .05.04.03.08L10.56 8.1a.37.37 0 0 0-.06.1l-.28.43-.01.03v.03l1.34 2.41.43.8c.03.06.02.09-.04.09h-1.3l-.01-.02-1.41-2.52c-.01-.03-.03-.03-.05-.03H8.04c-.02 0-.04 0-.04.03V12h-.96c-.02 0-.03-.02-.03-.05L7 10.02V6.04C7 6 7.02 6 7.04 6h.74Z" fill="#F0F3FA"/></svg>