<!-- by TradingView --><svg width="18" height="18" viewBox="0 0 18 18" xmlns="http://www.w3.org/2000/svg"><path fill="#F0F3FA" d="M0 0h18v18H0z"/><circle cx="9" cy="9" r="5" fill="url(#a)"/><path d="m12.75 4.32-.36.25A5.59 5.59 0 0 0 3.8 7l-.39-.17A5.95 5.95 0 0 1 9.02 3a5.94 5.94 0 0 1 3.73 1.32Z" fill="#FFCF82"/><path d="M9.66 6.33c.12.15.26.24.42.28.16.04.32 0 .48-.09.31-.18.44-.46.4-.84 0-.02 0-.04.02-.06.29-.32.65-.5 1.07-.54.09 0 .13 0 .13.03a8.85 8.85 0 0 0-.88 2.36l-.02.08c0 .03-.02.04-.04.04H6.76c-.02 0-.03-.01-.04-.03a8.1 8.1 0 0 0-.9-2.46l.04-.02.22.02c.33.03.65.2.94.52.02.02.02.03.02.06-.05.4.1.68.45.87.17.1.35.1.54.02.17-.07.3-.2.4-.36.1-.16.12-.33.08-.5a.82.82 0 0 0-.27-.46c-.03-.03-.04-.06-.02-.1.23-.38.48-.75.76-1.08h.04a7.3 7.3 0 0 1 .76 1.11v.05c-.12.12-.18.2-.2.23-.16.32-.14.6.08.87Z" fill="#141414"/><path d="M12.75 4.32c.75.6 1.32 1.33 1.72 2.2l-.36.25c-.39-.88-.96-1.61-1.72-2.2l.36-.25Z" fill="#FFBA67"/><path d="M14.47 6.53a5.94 5.94 0 0 1 .08 4.74 5.94 5.94 0 0 1-3.51 3.37 5.97 5.97 0 0 1-6.88-2.1c-.36-.48-.63-1-.83-1.57l.46.03a5.56 5.56 0 0 0 6.12 3.5 5.54 5.54 0 0 0 3.57-2.17 5.57 5.57 0 0 0 .64-5.56l.35-.24Z" fill="#FFA84F"/><path d="M3.4 6.83 3.8 7a5.6 5.6 0 0 0 0 4l-.46-.03a5.96 5.96 0 0 1 .08-4.14Z" fill="#FFBA67"/><path d="M5.83 12.08v-.64c0-.17.02-.33.04-.48l.09-.47c.15-.64.36-1.27.63-1.9a.12.12 0 0 1 .1-.07c.7-.1 1.4-.25 2.1-.45.14-.05.28-.07.43-.07h1.98c.03 0 .04.01.05.04l.24.88c.02.07-.01.15-.09.25a.42.42 0 0 0-.1.2c0 .08 0 .14.05.2a4.17 4.17 0 0 1 .7 1.24c.03.07 0 .13-.09.17l-.4.16c-.06.02-.1.04-.1.07a.22.22 0 0 0-.02.1c0 .02-.01.03-.03.04-.56.14-1.1.32-1.6.54a.09.09 0 0 0-.05.05l-.41.96c-.02.05-.05.05-.08.03l-1.58-1.11c-.19-.13-.4-.26-.65-.38a.1.1 0 0 0-.1 0l-.17.1a6.62 6.62 0 0 0-.94.54Z" fill="#141414"/><path d="m10.76 9.62.09.23c0 .02 0 .03-.02.02a125.77 125.77 0 0 0-1.44-.55.04.04 0 0 1 0-.04c0-.01.01-.02.03-.02l1.42-.16c.02 0 .03 0 .02.02l-.1.27a.4.4 0 0 0 0 .23Z" fill="#D2490F"/><path d="m11.51 13.16-.28.27a.05.05 0 0 1-.04.02l-.84-.16c-.03-.01-.04-.03-.04-.06l.08-.63c0-.02 0-.03.02-.04l1.03-.64h.05l.03.03.05.3-.01.05-.13.13a.05.05 0 0 0-.01.04l.1.64v.05Z" fill="#141414"/><defs><linearGradient id="a" x1="7.15" y1="4.93" x2="10.28" y2="13.47" gradientUnits="userSpaceOnUse"><stop stop-color="#DC520A"/><stop offset="1" stop-color="#CA4214"/></linearGradient></defs></svg>