<!-- by TradingView --><svg width="18" height="18" viewBox="0 0 18 18" xmlns="http://www.w3.org/2000/svg"><path fill="#F0F3FA" d="M0 0h18v18H0z"/><path d="M8.34 7h.87c.02 0 .03.01.03.03v2.03l.44-.49.01-.02V6.56h-.4c-.02 0-.03-.01-.03-.03v-2.2s0-.02.03-.03c.49-.2.6-.83.17-1.15a.68.68 0 0 0-.54-.14c-.7.12-.82 1.01-.16 1.29l.01.01.01.02v2.21c0 .02 0 .03-.03.03h-.41c-.02 0-.03 0-.03.02v.38c0 .02 0 .03.03.03Zm.9-3.33c0 .11-.1.2-.21.2a.2.2 0 0 1-.21-.2c0-.1.1-.2.2-.2.12 0 .21.1.21.2ZM7.98 5.5 8 5.48V4.02A.02.02 0 0 0 7.98 4H6.52a.02.02 0 0 0-.02.02v1.46a.02.02 0 0 0 .02.02h1.47Zm-.92-.98h.35c.02 0 .03.02.03.03v.35c0 .02-.01.03-.03.03h-.35a.03.03 0 0 1-.03-.03v-.35l.03-.03Zm4.43.96a.03.03 0 0 1-.03.03h-1.45a.02.02 0 0 1-.02-.03V4.03a.03.03 0 0 1 .02-.03h1.45a.03.03 0 0 1 .03.03v1.44Zm-.58-.95h-.35a.03.03 0 0 0-.03.03v.35c0 .01.01.03.03.03h.35l.02-.03v-.35a.03.03 0 0 0-.02-.03Zm-2.94 3.8V7.8l.01-.01H8.35V8.6l.42.44h.01V7.34l-.01-.01H5.48l-.01-.01V5.68l.01-.04a.66.66 0 0 0 .4-.5.66.66 0 0 0-.36-.71.72.72 0 0 0-.94.26c-.22.35-.02.8.37.95l.02.02.02.01v2.11H6.6c.01 0 .02.01.02.03v.24l.02.02.45.04c.01 0 .02 0 .02-.02V7.8c0-.01 0-.02.02-.02h.32c.02 0 .02.01.02.02v.35l.01.02.02.02.44.16a.02.02 0 0 0 .02 0v-.02ZM5.4 5.03c0 .1-.09.2-.2.2a.2.2 0 0 1-.21-.2c0-.11.1-.2.2-.2.12 0 .21.09.21.2Zm7.11 2.3V5.65h-.01c-.5-.22-.54-.85-.1-1.18.4-.3 1-.1 1.08.4v.05l.02.07c0 .26-.2.48-.46.63-.02.01-.04.02-.04.04v2.11H11.5l-.02.03v.24c0 .01 0 .02-.02.02l-.43.04a.02.02 0 0 1-.02 0V6.02C11 6 11 6 11.02 6h.43c.02 0 .03.01.03.03v1.3h1.03V7.3Zm.3-2.1a.2.2 0 0 0 .2-.2.2.2 0 0 0-.2-.2.2.2 0 0 0-.21.2c0 .1.1.2.2.2ZM7.24 6.56a2.54 2.54 0 0 1 .2 0v-.55c0-.01.01-.02.04-.02h.48C7.99 6 8 6 8 6.02V7h-.01a222.34 222.34 0 0 1-1.47 0H6.5l-.01-.97c0-.01.01-.02.03-.02h.44C7 6 7 6 7 6.03v.52l.02.02H7.25ZM10.5 6H10v2.51h.02l.49-.15V6h-.01Zm-1.38 8.45a.64.64 0 0 1-.24 0c-.57-.1-.98-.36-1.4-.76a5.74 5.74 0 0 1-1.83-3.73l.2.2c.4.43.99.66 1.6.54.4-.07.76-.05 1.06.23l.08.1.05.06a404.21 404.21 0 0 0 .03-.68c0-.26-.03-.48-.08-.66-.29-.89-1.1-1.24-2-1.23l-.36.03-.3.03c-.34.02-.64-.06-.9-.23-.02 0-.03 0-.03.02-.01.43 0 .85.03 1.27a6.9 6.9 0 0 0 .88 2.93c.55.98 1.25 1.8 2.33 2.25.23.1.5.18.76.18.25 0 .53-.08.76-.18a4.88 4.88 0 0 0 2.33-2.25c.5-.9.8-1.88.88-2.93.03-.42.04-.85.02-1.27 0-.03 0-.03-.02-.02-.26.17-.56.25-.9.23l-.3-.03a3.38 3.38 0 0 0-.36-.03c-.9 0-1.72.34-2 1.23-.06.18-.08.4-.08.66v.67c0 .03.01.03.03.01l.04-.05a.8.8 0 0 1 .09-.11c.3-.28.65-.3 1.06-.23.6.11 1.2-.11 1.6-.54a4.57 4.57 0 0 1 .22-.2 5.74 5.74 0 0 1-1.85 3.72c-.42.41-.83.66-1.4.77Zm-.94-4.29c-.22-.1-.4-.1-.71-.03-.11.02-.26.03-.45.01-.4-.03-.7-.33-.92-.64-.02-.02-.01-.04.01-.04.19-.02.36-.05.5-.1.31-.07.64-.1.93 0 .32.12.56.47.66.79 0 .02 0 .02-.02.01Zm2.37-.03c-.3-.07-.5-.06-.72.03-.01.01-.02 0-.01-.01.1-.32.33-.67.65-.79.3-.1.62-.07.93 0 .15.05.32.08.5.1.03 0 .04.02.02.04-.23.31-.51.61-.93.64-.18.02-.33.01-.44-.01Zm-1.32 1.6a.41.41 0 0 1-.21.07c-.09 0-.14-.03-.21-.07l-.02-.01c-.19-.1-.31-.03-.45.1a.07.07 0 0 1-.08 0 .07.07 0 0 1-.03-.02.07.07 0 0 1-.01-.03c0-.09 0-.17.03-.24.01-.01 0-.02-.01-.02-.02 0-.04.03-.06.08-.09.19-.05.32.1.4.08.03.16.03.23.03a.5.5 0 0 1 .23.05c.14.07.22.18.25.34 0 .03.01.05.03.05.02 0 .03-.02.03-.05.03-.16.1-.27.25-.34a.5.5 0 0 1 .23-.05c.07 0 .15 0 .22-.03.16-.08.2-.21.1-.4-.01-.05-.03-.08-.05-.08-.02 0-.02 0-.02.02.03.07.05.15.04.24l-.01.03-.03.03a.08.08 0 0 1-.08-.02c-.14-.12-.26-.2-.45-.1l-.02.02Zm-.21 1.15c.08 0 .14-.04.2-.07.08-.06.16-.1.32-.03l.1.05c.1.05.19.1.29.13.1.02.22.03.33.03.07 0 .08.02.01.06a.85.85 0 0 1-.53.06.79.79 0 0 0-.37 0 .99.99 0 0 1-.35.1.98.98 0 0 1-.35-.1.8.8 0 0 0-.37 0 .85.85 0 0 1-.53-.06c-.07-.04-.06-.06.01-.06l.33-.03c.1-.03.2-.08.3-.13l.1-.05c.15-.07.23-.03.31.03.06.03.12.07.2.07Zm.59.55c-.2.06-.38.11-.58.11-.21 0-.4-.05-.59-.11-.02-.01-.03 0-.02.02.1.27.3.43.6.43s.52-.16.61-.43c.01-.02 0-.03-.02-.02Z" fill="#072E4A"/></svg>