<!-- by TradingView --><svg width="18" height="18" viewBox="0 0 18 18" xmlns="http://www.w3.org/2000/svg"><path fill="#00367A" d="M0 0h18v18H0z"/><path d="M12.5 8a.5.5 0 0 0 0-1 .5.5 0 0 0 0 1ZM9 10l.54 1H10l-.54-1H9Z" fill="#FCC265"/><path d="M9.12 8.82H8.5V7.57h.62c.21 0 .38.27.38.61 0 .34-.17.64-.38.64Zm.88-.64C10 7.53 9.67 7 9.27 7H8v4h.5V9.39h.77c.4 0 .73-.56.73-1.21Z" fill="#FCC265"/><path d="M11.96 10.72a3.16 3.16 0 0 1-2.68 1.45c-1.78 0-3.14-1.47-3.14-3.34 0-1.86 1.35-3.37 3.13-3.37l-2.03.19-1.31 1.37-.27 1.1-.27 1.09.48 1.56.48 1 1.08.75 1.91.38 1.02-.32 1.38-1 .22-.86Z" fill="#FFE2B3"/><path d="M15.98 9.73c-.07-.35-.46-.6-.74-.77-.38-.2-.7-.3-1.13-.3-.22 0-.31.08-.34.15-.04.02.87.4 1.4.85.02.02.2.17.2.24 0 .07-.22.12-.26.13-.51.15-1.06.17-1.59.17-.42 0-.84-.03-.94-.03-.55-.05-1.15-.07-1.7-.1-.26-.02-.29 0-.29 0 0 .08.16.23.51.38.18.08.41.16.73.23A3.22 3.22 0 0 1 9 12.34a3.4 3.4 0 0 1 0-6.82c.8-.01 1.56.34 2.22.81V6.3c0-.05-.03-.12-.05-.15C10.74 5.41 9.79 5.07 9 5h-.16A3.9 3.9 0 0 0 5 8.63c-.63-.17-2.24-.64-2.36-1.37.08-.14.67-.32 2.31-.26.07-.2.22-.44.34-.62-2.06-.12-3.16.14-3.28.77-.21 1.18 2.2 1.87 3 2.12a4.2 4.2 0 0 0 1.98 3.15 3.65 3.65 0 0 0 5.34-1.66c.47.07.95.08 1.43.08.55 0 1.16-.04 1.68-.25.25-.1.56-.31.56-.62 0-.1 0-.17-.02-.24Z" fill="#FCC265"/></svg>