<!-- by TradingView --><svg width="18" height="18" viewBox="0 0 18 18" xmlns="http://www.w3.org/2000/svg"><path fill="#F0F3FA" d="M0 0h18v18H0z"/><path d="M8.93 4.66v.01a.02.02 0 0 0 .02 0h.01c1.15-1.4 3.03-.45 3.05 1.36 0 .24-.05.54-.15.91-.1.31-.17.62-.25.93 0 .02 0 .05.02.07l.18.18c.02.02.04.02.07.01l.17-.1a.07.07 0 0 0 .03-.05c.13-.95 1.25-1.1 1.51-.19.03.12.14.16.2.24.56.7-.09 1.7-.87 1.39a.07.07 0 0 0-.06 0l-.25.15-.01.01v.03a2.93 2.93 0 0 1-.53 2.54.09.09 0 0 0 .02.08.3.3 0 0 0 .23.09c.26-.03.49.19.56.46.06.24.02.45-.14.64-.1.1-.22.14-.3.26-.37.55-1.1.26-1.06-.43v-.06a.13.13 0 0 0-.04-.05l-.2-.2c-.03-.01-.05-.02-.08 0a7.42 7.42 0 0 1-.4.2c-.3.48-.67.69-1.12.61-.02 0-.05 0-.08.02a.86.86 0 0 1-.91 0 .13.13 0 0 0-.09-.02c-.46.07-.82-.13-1.1-.58a.13.13 0 0 0-.06-.06l-.39-.15h-.05l-.22.22a.1.1 0 0 0-.02.03.1.1 0 0 0 0 .04c0 .31-.1.54-.32.67-.25.15-.55.07-.72-.17a.69.69 0 0 0-.2-.2c-.44-.28-.36-.96.09-1.17.12-.06.24-.02.37-.07 0 0 .02 0 .02-.02l.02-.03a.09.09 0 0 0 0-.07c-.1-.14-.22-.27-.3-.42A2.94 2.94 0 0 1 5.3 9.6c.01-.03 0-.05-.01-.06-.07-.08-.18-.13-.27-.1-.8.32-1.38-.84-.75-1.46a.65.65 0 0 0 .15-.24c.3-.83 1.32-.69 1.48.2.02.13.1.18.21.14.02 0 .03-.02.05-.03.1-.08.12-.18.09-.3l-.29-1.07a2.7 2.7 0 0 1-.09-.62C5.85 5 6.62 4.05 7.56 4c.53-.02.98.2 1.37.66Z"/><path d="m9.32 7.13.01-.04-.17-1.9c0-.03 0-.07.03-.1.75-1.17 2.28-.63 2.4.76 0 .21-.02.44-.09.7l-.36 1.37c-.02.08.02.15.07.2.2.19.37.39.52.6.57.83.7 1.97.15 2.84-.35.55-.9.89-1.5 1.07a.07.07 0 0 0-.04.04c-.13.4-.53.72-.9.45-.01-.02-.03-.02-.04 0-.03.04-.06.08-.1.1-.24.21-.47.18-.7-.1-.02-.02-.04-.02-.06 0a.31.31 0 0 1-.18.1c-.31.04-.56-.2-.69-.5a.15.15 0 0 0-.03-.06.13.13 0 0 0-.06-.03c-.94-.27-1.85-.97-1.92-2.16A2.85 2.85 0 0 1 6.74 8.1a.1.1 0 0 0 .03-.05A157.8 157.8 0 0 0 6.4 6.5a1.71 1.71 0 0 1 .2-1.46c.7-1.04 2.03-.67 2.33.56l.37 1.51c0 .03.02.03.03 0ZM5.33 8.3c0-.01.02-.03.01-.04a.92.92 0 0 0-.51-.23c-.07 0-.09-.04-.06-.12.03-.1.09-.17.16-.22.12-.1.24-.1.37-.03.2.1.26.3.2.58v.04l.02.03.28.11c.01 0 .02.03 0 .04-.13.2-.25.4-.34.63 0 .03-.02.03-.04.02l-.32-.2h-.05c-.1.1-.2.15-.3.15-.24-.02-.42-.28-.36-.54.1-.44.64-.36.92-.21l.02-.01Zm7.35 0c.21-.12.61-.19.81.02.21.22.13.57-.12.7-.14.07-.28.04-.42-.1-.02-.02-.04-.02-.06 0l-.38.23c-.04.02-.06 0-.07-.03a2.68 2.68 0 0 0-.33-.61c0-.02 0-.03.02-.04l.35-.18.02-.02v-.03c-.16-.7.63-.85.74-.26l-.02.04h-.02a.9.9 0 0 0-.55.25v.04h.03Zm-.84 4.79v.02c.09.14.19.22.3.27.1.03.1.09.03.15l-.06.05a.21.21 0 0 1-.27.02c-.17-.1-.2-.27-.1-.48 0-.02 0-.04-.02-.06-.08-.1-.17-.17-.27-.24-.05-.04-.05-.08 0-.11.12-.07.23-.16.33-.27.04-.03.07-.03.1 0 .08.1.15.17.23.24.03.03.05.03.09 0 .25-.16.51.19.35.46-.15.26-.5.1-.67-.05h-.04Zm-5.68.01h-.03c-.15.13-.41.28-.6.17-.24-.15-.17-.54.1-.6.09 0 .15.05.22.05l.06-.03.19-.2c.02-.03.05-.03.08 0 .12.1.24.19.37.26.03.02.03.05 0 .08l-.28.25c-.02.02-.02.04-.01.06.08.18.07.33-.05.44a.25.25 0 0 1-.13.08c-.05 0-.1 0-.14-.02a.4.4 0 0 1-.13-.1c-.06-.05-.05-.1.02-.13a.79.79 0 0 0 .33-.27c.02-.02.01-.03 0-.04Z" fill="#fff"/><path d="m7.18 10.46.97.55c.11.06.18.13.2.2.05.14.02.26-.1.37-.3.3-.63.36-.97.17-.34-.19-.5-.63-.46-1.07.02-.2.19-.31.36-.22Zm2.61.6c.36-.2.71-.42 1.07-.6.16-.09.3.06.32.24.1 1-.86 1.55-1.47.83a.3.3 0 0 1 .08-.47Z"/></svg>