<!-- by TradingView --><svg width="18" height="18" viewBox="0 0 18 18" xmlns="http://www.w3.org/2000/svg"><path fill="url(#a)" d="M0 0h18v18H0z"/><path d="M9 11.97V14l3.73-3c.8-.64 1.27-1.6 1.27-2.6C14 6.51 12.42 5 10.48 5H7.54A3.48 3.48 0 0 0 4 8.41a3.6 3.6 0 0 0 3.54 3.56H9Zm0 0v-1.74H7.54c-1.02 0-1.78-.72-1.78-1.7 0-.99.76-1.79 1.78-1.79h2.9c1 0 1.8.8 1.8 1.77 0 .53-.21 1.03-.63 1.37L9 11.97Z" fill="url(#b)"/><ellipse cx="7.53" cy="8.48" rx=".88" ry=".87" fill="#fff"/><ellipse cx="10.47" cy="8.48" rx=".88" ry=".87" fill="#fff"/><path d="M9 11.97V14l3.73-3c.8-.64 1.27-1.6 1.27-2.6 0-1.83-1.49-3.32-3.36-3.4l-.4 1.74h.2c1 0 1.8.8 1.8 1.77 0 .53-.21 1.03-.63 1.37l-2.6 2.09Z" fill="url(#c)"/><defs><linearGradient id="a" x1="3.35" y1="3.12" x2="21.9" y2="24.43" gradientUnits="userSpaceOnUse"><stop stop-color="#1A1E21"/><stop offset="1" stop-color="#06060A"/></linearGradient><linearGradient id="b" x1="13.47" y1="9.5" x2="10.3" y2="12.9" gradientUnits="userSpaceOnUse"><stop stop-color="#CABDF8"/><stop offset=".31" stop-color="#FEB66A"/><stop offset=".74" stop-color="#D36AB7"/><stop offset="1" stop-color="#A365EB"/></linearGradient><linearGradient id="c" x1="12.34" y1="5.66" x2="9.31" y2="13.86" gradientUnits="userSpaceOnUse"><stop stop-color="#D0C3F7"/><stop offset="1" stop-color="#7B71F9"/></linearGradient></defs></svg>