<!-- by TradingView --><svg width="18" height="18" viewBox="0 0 18 18" xmlns="http://www.w3.org/2000/svg"><path fill="#F0F3FA" d="M0 0h18v18H0z"/><path fill-rule="evenodd" d="M10.15 5.81c-.04-.05-.03-.06.02-.03.24.1.43.24.57.4.16.19.24.4.24.63 0 .03.01.04.03.05l.1.02c.11.03.19.05.22.08.07.05.09.13.05.23 0 .02 0 .03.02.03.33 0 .53-.16.6-.48l-.01-.03h-.03c-.18.07-.32.03-.43-.13a1.16 1.16 0 0 1-.17-.56.58.58 0 0 0-.08-.28c-.73-1-1.25-1.91-1.56-2.71-.01-.04-.02-.04-.03 0a.93.93 0 0 0-.04.32c.04.5.16.95.39 1.37.01.04 0 .05-.03.04a3.15 3.15 0 0 0-1.24-.13.9.9 0 0 0-.42.18c-.14.1-.25.2-.32.3a1.22 1.22 0 0 0-.1 1.3c.06.13.15.24.24.34a832.93 832.93 0 0 0 2.85 2.84.1.1 0 0 0 .07.02.1.1 0 0 0 .06-.04c.1-.11.17-.24.2-.39a.8.8 0 0 0-.01-.44c-.04-.12-.1-.24-.18-.34a3.82 3.82 0 0 0-.3-.32l-.06-.06-1.9-1.9a.64.64 0 0 1-.13-.18.25.25 0 0 1 0-.21.37.37 0 0 1 .31-.2h.44c.02 0 .03.02.04.03v.04c-.13 0-.25.01-.36.04-.06.01-.06.03-.01.06.25.13.45.25.6.38a1 1 0 0 1 .33.6v.2L10.1 7c0 .02.01.03.03.04.17.08.36.1.56.09V7.1a.93.93 0 0 1-.27-.46l-.13-.54a.74.74 0 0 0-.14-.28Zm.92-.01c.02 0 .02-.02.01-.03l-.38-.51c-.04-.06-.05-.06-.03.01a.7.7 0 0 1 .04.24c0 .11.03.2.1.24.06.05.15.07.26.05ZM9.71 13c.42-.06.71-.26.88-.6.23-.46.13-.9-.3-1.34-1.6-1.58-3.24-3.23-4.95-4.94-.36-.36-.43-.74-.22-1.15a.68.68 0 0 1 .15-.18c.01-.02.03-.02.05 0l.18.16 5.37 5.37c.26.26.43.46.51.6.28.47.35.99.2 1.55a1.97 1.97 0 0 1-1.77 1.51c-.63.09-1.24-.16-1.8-.74L6.75 12c-.08-.07-.08-.14 0-.22l.5-.5a.1.1 0 0 1 .14 0l1.42 1.42a1.16 1.16 0 0 0 .89.31Zm.37-1.07a.58.58 0 0 0-.17-.37 1165.42 1165.42 0 0 0-3.68-3.65c-.03-.03-.06-.02-.08 0A.91.91 0 0 0 6.2 9.2l3.1 3.1c.13.13.29.17.48.1.1-.02.17-.08.24-.17.06-.1.08-.2.07-.3Z" fill="#D1B15E"/></svg>