<!-- by TradingView --><svg width="18" height="18" viewBox="0 0 18 18" xmlns="http://www.w3.org/2000/svg"><path fill="url(#arnjkl1iq)" d="M0 0h18v18H0z"/><path d="M4.37 6.03c-.17-.1-.37.03-.37.23v1.6c0 .19.1.36.24.45l3.95 2.4c.5.31 1.12.31 1.62 0l3.95-2.4c.15-.1.24-.26.24-.45v-1.6c0-.2-.2-.33-.37-.23L9.57 8.52c-.35.21-.79.21-1.14 0L4.37 6.03Zm-.03 3.1c-.15-.1-.34.02-.34.22v1.54c0 .19.09.36.22.45l2.44 1.62c.15.1.34-.02.34-.22v-1.55a.53.53 0 0 0-.22-.44L4.34 9.12Zm9.66.22c0-.2-.19-.33-.34-.23l-2.44 1.63a.53.53 0 0 0-.22.44v1.55c0 .2.19.32.34.22l2.44-1.62c.13-.1.22-.26.22-.45V9.35Z" fill="#6DD9BF"/><defs><linearGradient id="arnjkl1iq" x1="3.35" y1="3.12" x2="21.9" y2="24.43" gradientUnits="userSpaceOnUse"><stop stop-color="#1A1E21"/><stop offset="1" stop-color="#06060A"/></linearGradient></defs></svg>