<!-- by TradingView --><svg width="18" height="18" viewBox="0 0 18 18" xmlns="http://www.w3.org/2000/svg"><path fill="#F0F3FA" d="M0 0h18v18H0z"/><path fill-rule="evenodd" d="M6.8 3h4.4L15 6.8v4.4L11.2 15H6.8L3 11.19V6.8L6.8 3Zm.16.35L4.6 5.82h1.16l.37-.36 1.12-1.4h.7v2.12h-.7v.7h1.94v1.94h1.58v-.88h-.7V4.06h.7l.36.7v1.42h-.7v.7h2.31l-.9-.8V4.13l-.79-.78H9.18v2.83h-.36V3.35H6.96ZM5.9 6.18l.98-.99V7.58H5.82v-.7h-1.4l-.36.36v.7h3.88v-.7h.88v1.58H6.88v1.94H5.82v-.7H4.06v.7l.35.36h.03l1.38 1.3v.97l-2.47-2.34V9.18h2.83v-.36H3.35V6.95l.89-.77H5.9Zm2.04 3.88h-.7v-.88h1.58v1.94h1.94v.7h-.7v2.12h.7l.17-.25 1.33-1.51h1.26l-2.48 2.47H9.18v-2.47h-.36v2.47H6.96l-.78-.87v-1.5l-1.24-1.16H7.58v.7h-.7v1.6l.36.52h.7v-3.88Zm1.24.7h.88v-.7H13.94v.7l-.35.36h-1.41v-.7h-1.06v2.52l.98-1.12h1.77l.78-.78V9.18h-2.83v-.36h2.83V6.96l-2.47-2.48v1.44l.42.37 1.34.95v.7h-1.76v-.7h-1.06v1.94H9.18v1.58Z" fill="#E78D24"/></svg>