<!-- by TradingView --><svg width="18" height="18" viewBox="0 0 18 18" xmlns="http://www.w3.org/2000/svg"><path fill="#181B1E" d="M0 0h18v18H0z"/><path d="M7 8.32c0-.24.27-.4.5-.28l.22.12c.17.09.28.26.28.46v3.05L7 12V8.32Z" fill="url(#a)"/><path d="M10.01 9.37c0-1.15-1.2-2.21-2.24-2.79L5.06 5.13a.11.11 0 0 1 .03-.2L8.49 4l2.9 1.6c1 .55 1.61 1.58 1.61 2.69V13l-1 .3V8.77c0-1.24-.86-2.39-1.99-2.98L8.4 4.95a.85.85 0 0 0-.65-.05l-.19.07a.25.25 0 0 0-.18.25c0 .09.05.17.13.22l1.5.79c1.02.54 2 1.55 2 2.65v4.74l-.99.38V9.37Z" fill="url(#b)"/><defs><linearGradient id="a" x1="7.5" y1="8" x2="7.5" y2="12" gradientUnits="userSpaceOnUse"><stop stop-color="#06CBE1"/><stop offset="1" stop-color="#0E91EC"/></linearGradient><linearGradient id="b" x1="9" y1="4" x2="9" y2="14" gradientUnits="userSpaceOnUse"><stop stop-color="#10F1DA"/><stop offset="1" stop-color="#0E92F1"/></linearGradient></defs></svg>