<!-- by TradingView --><svg width="18" height="18" viewBox="0 0 18 18" xmlns="http://www.w3.org/2000/svg"><path fill="url(#a)" d="M0 0h18v18H0z"/><mask id="b" maskUnits="userSpaceOnUse" x="4" y="3" width="11" height="11"><path d="M15 3H4v11h11V3Z" fill="#fff"/></mask><g mask="url(#b)"><path d="m7.3 6.5-.5.07a1.84 1.84 0 0 1 1.5-2.04l.08.5c-.73.19-1.12.7-1.08 1.46Z" fill="#19FB9B"/><path d="M13.46 9.2s-.06-.64-.61-.72c-.55-.07-.67.12-.67.12s.41.4.52.92c.12.52-.07.64-.26.48-.2-.16-.37-.48-.67-1.36-.3-.89-.9-1.89-2.29-2.45a4.41 4.41 0 0 0-2.59-.18L6.75 6a11.5 11.5 0 0 0-2.18 0H4.5a.33.33 0 0 0-.25.26l-.25 1c-.06.26-.02.5.1.68l.15.26a3.22 3.22 0 0 0-.18.83c.54-.27 1.6-.66 3.21-.06 2.32.87 2.45 1.98 4.13 2.41.97.25 1.46-.07 1.73-.47.12-.25.21-.52.25-.83 0 0 .49-.04.86-.26.36-.22.6-.42.72-.46 0 0-.35-.65-1.5-.16ZM9.43 4.72a.94.94 0 1 0-1.88-.01.94.94 0 0 0 1.88.01Z" fill="#19FB9B"/><path d="M8.92 4.72a.43.43 0 1 0-.86-.01.43.43 0 0 0 .86 0Z" fill="#fff"/><path d="M13.14 10.91c-.54 1.04-1.74 1.58-2.67 1.85-1.16.35-3.81.52-5.36-1.07a3.39 3.39 0 0 1-1.04-2.66c.54-.27 1.6-.66 3.21-.06 2.32.87 2.45 1.98 4.13 2.41.97.25 1.46-.07 1.73-.47Z" fill="#9945FF"/><path d="m4.37 7.29-.02.12a.79.79 0 0 0 .04.5l.03.06.02.02a.51.51 0 0 0 .3.2l.34-.07.08-.02.08-.01-.74-1.3-.13.5Zm.48-1.03 1 1.73a2.84 2.84 0 0 1 .4 0l-1-1.76-.4.03Zm4.84.42a20.63 20.63 0 0 0-4.01-.45h-.02l1.05 1.83c.32.07.63.2.94.38l.79.46a.97.97 0 0 0 1.07-.72l.32-1.32c.02-.1-.05-.17-.14-.18Z" fill="#260246"/><path d="M4.75 6.27h-.02c-.06 0-.12.05-.14.12l-.1.4.75 1.3.19-.04a2.95 2.95 0 0 1 .41-.06l-.99-1.73-.1.01Zm.91-.04a10.66 10.66 0 0 0-.4 0l1 1.76a2.94 2.94 0 0 1 .45.07L5.66 6.23Z" fill="#fff"/></g><defs><linearGradient id="a" x1="3.35" y1="3.12" x2="21.9" y2="24.43" gradientUnits="userSpaceOnUse"><stop stop-color="#1A1E21"/><stop offset="1" stop-color="#06060A"/></linearGradient></defs></svg>