<!-- by TradingView --><svg width="18" height="18" viewBox="0 0 18 18" xmlns="http://www.w3.org/2000/svg"><path fill="#181B1E" d="M0 0h18v18H0z"/><path d="M14 9A5 5 0 1 1 4 9a5 5 0 0 1 10 0Z" fill="#E1A32C"/><path d="m11.7 4.95-.35.09a3.16 3.16 0 0 0-1.81-.6l-.48.01a2.2 2.2 0 0 0-.75.02c-.03 0-.04 0-.05-.03a.92.92 0 0 1 0-.3 4.85 4.85 0 0 1 3.39.73c.03.02.05.05.05.08Z" fill="#BC161C"/><path d="M8.27 4.14a.92.92 0 0 0 0 .3c0 .02.01.03.04.03.24-.05.5-.05.75-.02l-.75.08c-.12.01-.13.03 0 .06.09.03.22.06.4.08-1.02.13-1.21.33-1.69.57a2 2 0 0 0-.26-.05c.14.01.19-.01.13-.07l-.08-.51a5.1 5.1 0 0 1 1.46-.47Z" fill="#001A2D"/><path d="M9.54 4.44c.32.05.62.12.92.2.44.14.8.34 1.1.63.3.3.45.64.44 1.02 0 .2-.1.33-.3.4l-.02.04c-.03-.03-.04-.04-.05-.02v-.06c.25-.38-.06-1.07-.25-1.42h-.02c.15.37.49 1.08.2 1.4h-.06c-.15-.11-.29-.2-.4-.36l-.53-.79c-.35-.5-.7-.82-1.33-.96l-.01.01v.03l.33.11c.41.15.73.44.96.87a3.6 3.6 0 0 0-1.82-.87c-.17-.02-.3-.05-.4-.08-.12-.03-.11-.05 0-.06l.76-.08.48-.01Z" fill="#FFA543"/><path d="M11.5 6.63a.51.51 0 0 1-.35-.23c-.27-.4-.48-.68-.63-.86a1.72 1.72 0 0 0-.96-.87 20.21 20.21 0 0 1-.33-.14h.01c.63.13.98.44 1.33.95l.54.8c.1.14.24.24.39.35Z" fill="#3A2320"/><path d="m6.8 4.6.1.52a.19.19 0 0 0-.16.03.07.07 0 0 1-.1 0l-.02-.03a3.54 3.54 0 0 1-.07-.2l-.02-.01a.02.02 0 0 0-.02 0 .02.02 0 0 0 0 .02v.26c-.05-.03-.11-.03-.18 0a.15.15 0 0 0-.06-.03c-.03 0-.04 0-.03.03.12.44.47.62.88.8-.05 0-.07.01-.07.03-.09.23-.23.43-.43.59a.05.05 0 0 0 0 .09c.03.01.06 0 .07-.02a.07.07 0 0 1 .04-.04c.05-.01.06 0 .04.04a1.1 1.1 0 0 1-.25.37c-.04.04-.03.06.02.05h.1c.03 0 .04 0 .03.04a.7.7 0 0 1-.16.28L5.34 6.05a.19.19 0 0 1 .05-.1c.02 0 .03 0 .05.02l.18.1c.04.01.05 0 .02-.04l-.13-.18c-.02-.03-.02-.05 0-.08a.7.7 0 0 0 .1-.12c.02-.06.01-.07-.04-.04a.33.33 0 0 1-.14.02c.4-.42.86-.76 1.38-1.02Z" fill="#002248"/><path d="M8.2 4.74a2.8 2.8 0 0 1-.47 0c-.07 0-.1.03-.1.1h-.05l-.17-.1a.02.02 0 0 1 0-.04c.26-.07.52-.06.78.04Z" fill="#E1A32C"/><path d="M8.7 4.67a3.6 3.6 0 0 1 1.82.87c.15.18.36.46.63.86.08.13.2.2.35.23-.01-.01.01 0 .07 0a.29.29 0 0 1-.14.05c-.73-.02-.95-.54-1.36-1a2.72 2.72 0 0 0-1.55-.88h.01a3.03 3.03 0 0 1 1.79 1.25c.13.16.27.33.43.5l-1.08-.22a1.65 1.65 0 0 1-.4-.35c-.22-.4-.67-.9-1.14-1-.12-.02-.42-.03-.5-.14 0-.07.03-.1.1-.1.15.02.3.01.46 0l.51-.07Z" fill="#FFCD60"/><path d="M11.57 6.64c.28-.33-.06-1.04-.21-1.4v-.01h.02c.19.35.5 1.04.25 1.42v.06l-.1.03a.06.06 0 0 0-.05.05c-.1.3-.16.65-.18 1 0 .1-.04.2-.1.3l.19-1.28-.01-.05a.08.08 0 0 0-.05-.04l-.38-.08c-.08-.06-.15-.1-.2-.1-.16-.16-.3-.33-.43-.5a3.03 3.03 0 0 0-1.8-1.25h.01a2.7 2.7 0 0 1 1.54.88c.41.47.63 1 1.36 1.01a.3.3 0 0 0 .14-.04Z" fill="#3A2320"/><path d="M7.62 4.84c.1.1.38.12.51.14.47.1.92.6 1.15 1 .03.07.17.19.39.35.32.3.73.43 1.23.4a.35.35 0 0 1-.2.05 1.75 1.75 0 0 1-1.37-.68 4.71 4.71 0 0 1-.4-.54c-.05-.07-.18-.2-.41-.35-.33-.24-.81-.26-1.19-.2a.09.09 0 0 0-.06.03.19.19 0 0 1-.09.07v-.05c0-.02 0-.04-.03-.04-.04 0-.07.02-.08.07-.05 0-.09-.02-.1-.05-.02-.02-.01-.04.01-.05h.14l.26-.04c.08 0 .14-.06.2-.11h.04Z" fill="#3A2320"/><path d="M6.9 5.12c.05.06 0 .08-.13.07a2 2 0 0 1 .25.05l.05.03c.07.03.11.03.14.02.33-.12.86-.23 1.17 0 .18.13.3.25.4.38.24.36.45.63.63.82 0 .03 0 .05-.04.05-.53-.06-.92-.15-1.15-.6-.11-.22-.38-.3-.6-.29a2.36 2.36 0 0 1-.95-.1c.36.2.7.14 1.09.16.29.02.4.2.53.45-.03.02-.04.03-.04.05a.74.74 0 0 0-.39-.1c-.28.02-.52-.02-.74-.12-.4-.18-.76-.36-.88-.8-.01-.03 0-.04.03-.03l.06.03c.06.1.12.15.19.18.1.04.12.02.05-.07a.7.7 0 0 1-.06-.11v-.26a.02.02 0 0 1 0-.02h.02l.02.01v.01a3.55 3.55 0 0 0 .1.22.07.07 0 0 0 .06.01l.03-.01c.04-.03.09-.04.15-.03Z" fill="#FFA543"/><path d="M11.7 4.95a5.06 5.06 0 0 1 1.24 1.18l-.88.07a1.7 1.7 0 0 0-.71-1.16l.35-.1Z" fill="#fff"/><path d="m9.33 6.1-.07.14c-.1-.1-.23-.29-.41-.55-.15-.21-.45-.5-.72-.56a1.23 1.23 0 0 0-.53 0 9.1 9.1 0 0 0-.53.14c-.01 0-.03 0-.05-.03.02-.04.06-.06.13-.07.03 0 .04-.02.03-.06a.19.19 0 0 0 .09-.07.09.09 0 0 1 .06-.04c.38-.05.86-.03 1.19.2.23.17.36.29.41.36.13.2.26.37.4.54Z" fill="#FFCD60"/><path d="M9.26 6.24a.7.7 0 0 0 .43.32c.04 0 .04.02 0 .02a.34.34 0 0 1-.28-.09 7.19 7.19 0 0 1-.64-.82 1.65 1.65 0 0 0-.39-.38c-.31-.23-.84-.12-1.17 0-.03.01-.07 0-.14-.02l.53-.14c.17-.03.35-.03.53 0 .27.06.57.35.72.56l.4.55Z" fill="#3A2320"/><path d="m9.37 6.54.04.03v.01c-.4-.02-.86-.1-1.12-.42-.13-.25-.24-.43-.53-.45-.4-.02-.73.04-1.09-.16a2.36 2.36 0 0 0 .95.1c.22-.01.49.07.6.29.23.45.62.54 1.15.6Z" fill="#3A2320"/><path d="M5.34 6.05c-.04 0-.08-.05-.13-.14l.22-.28c.06 0 .1 0 .14-.02.05-.03.06-.02.03.04a.7.7 0 0 1-.09.12c-.02.03-.02.05 0 .08l.13.18c.03.04.02.05-.02.04a.62.62 0 0 1-.18-.1.04.04 0 0 0-.05-.01c-.02 0-.04.04-.05.09Z" fill="#fff"/><path d="M5.2 5.9c.06.1.1.15.14.15L6.5 7.42l-.1.12h-.25a.06.06 0 0 1-.04-.02l-.15-.18c-.04-.05-.05-.04-.04.02l.02.14a.04.04 0 0 1-.04.05l-.18-.02c-.05 0-.05.01-.01.04l.23.14c.03.01.05.04.05.07l.03.18c0 .04.02.05.05.01l.09-.1c.01-.02.04-.03.07-.02l.2.08.06.06c.06.5.23.94.52 1.34.01.02.02.04.01.06l-.01.09h-.03l-.2-.16c-.03-.03-.04-.03-.02.01l.08.2a.02.02 0 0 1 0 .03.02.02 0 0 1-.02 0l-.17-.02c-.05 0-.05 0-.01.03.08.06.17.1.26.14a.1.1 0 0 1 .05.06l.03.08c.02.05.03.05.03 0V9.7c0-.04.01-.06.04-.04.03.14.07.29.12.43.1.3.3.53.61.68a.76.76 0 0 1-.5-.29c-.04-.04-.11-.06-.22-.06-.22-.21-.44-.54-.75-.6l.03-.12c0-.02 0-.05-.02-.07A14.5 14.5 0 0 1 4.8 7.51l-.27-.47c0-.1.04-.2.11-.26l.14.1a.1.1 0 0 1 .04.06l.05.21c0 .05.02.05.05 0l.05-.1c0-.03.03-.03.06-.02.05.02.11.05.17.1l.02-.02v-.03l-.13-.17a.06.06 0 0 1 0-.07l.06-.12c.02-.03.01-.04-.02-.03L5 6.72c-.03 0-.05 0-.07-.03L4.8 6.5c-.01-.02 0-.05 0-.07.12-.19.25-.36.4-.52Z" fill="#001A2D"/><path d="m8.25 6.21-.96-.1c-.03 0-.04.02-.04.05-.02.26 0 .54.05.83.04.25.1.61-.05.82a.1.1 0 0 1-.08.05c-.21.03-.4-.02-.6-.1-.04 0-.06 0-.05.04 0 .07 0 .14-.02.2-.02-.04-.04-.06-.07-.07l-.11-.18a.07.07 0 0 1 0-.06l.04-.14.05-.01c.01.04.02.06.04.07.2.14.43.2.7.18.02 0 .04-.02.05-.04.12-.16.06-.6.04-.8-.02-.1-.04-.11-.08 0-.11.27-.26.54-.55.67L6.6 7.6v-.03c.29-.13.41-.41.57-.66a.3.3 0 0 0 .04-.17l-.01-.18c0-.06-.02-.06-.05-.01a.92.92 0 0 1-.45.4l-.01-.01v-.03c.15-.08.56-.4.48-.6a.08.08 0 0 1 0-.07c.05-.1.04-.22-.1-.23 0-.02.01-.03.06-.03.22.1.46.14.74.12a.8.8 0 0 1 .39.1Z" fill="#3A2320"/><path d="M7.05 6.02c.15 0 .16.13.1.23a.08.08 0 0 0 0 .07c.1.2-.32.52-.47.6v.03h.01c.2-.08.35-.21.45-.4.03-.04.04-.04.05.02l.01.18a.3.3 0 0 1-.04.17c-.16.25-.28.53-.56.66l-.01.03h.02c.29-.12.44-.39.55-.67.04-.1.06-.1.08.01.02.2.08.64-.04.8a.08.08 0 0 1-.06.04c-.26.02-.49-.04-.7-.18l-.03-.07.1-.12a.7.7 0 0 0 .16-.28c.01-.03 0-.05-.03-.04h-.1c-.05 0-.06 0-.02-.05.1-.1.19-.22.25-.37.02-.04 0-.05-.04-.04a.07.07 0 0 0-.04.04c-.01.03-.04.03-.06.01a.05.05 0 0 1 0-.08c.19-.16.33-.36.42-.6Z" fill="#FFCD60"/><path d="M8.25 6.21c0-.02.01-.03.04-.05.26.31.73.4 1.12.42l-.04-.04c.03 0 .04-.02.04-.05.07.07.17.1.28.1.04-.01.04-.02 0-.03a.67.67 0 0 1-.43-.32l.07-.14c.36.44.82.66 1.37.68.07 0 .13-.02.2-.06.03-.02.05-.05.05-.08l.38.08c.02 0 .03.02.05.04v.05l-.18 1.27c0 .03.01.05.03.07-.05.02-.07.04-.08.07 0 .02.02.03.04.02l.12-.07a.05.05 0 0 1 .07.04c.02.39-.05.75-.21 1.1l-.1.09a2.75 2.75 0 0 1 .04-.44c-.12.41-.22.86-.4 1.25a.93.93 0 0 1-.45.44c-.11.06-.12.04-.04-.05a.97.97 0 0 0 .2-.39c-.15.3-.37.56-.7.67a2.6 2.6 0 0 1-.98.15c-.62-.02-1.03-.37-1.33-.9h-.02v.01c.1.23.25.43.42.61l-.02.03a1.1 1.1 0 0 1-.61-.68 5.16 5.16 0 0 1-.16-.63l.01-.08-.01-.06c-.29-.4-.46-.85-.52-1.34a.54.54 0 0 0 .02-.19c0-.04.01-.05.05-.04.2.08.39.13.6.1a.1.1 0 0 0 .08-.05c.14-.2.1-.57.05-.82-.05-.3-.07-.57-.05-.83 0-.03.01-.05.04-.04l.96.1Z" fill="#FF834C"/><path d="M12.95 6.13c.28.3.5.68.64 1.13.02.03 0 .05-.02.06-.68 0-1.3.26-1.96.45l-.05-.3.01-.07a.8.8 0 0 0 .08-.54.41.41 0 0 0 .03-.13l.01-.05c0 .05.01.06.03.06.23-.1.34-.28.34-.54l.89-.07Z" fill="#BC161C"/><path d="M10.75 6.54c.05 0 .12.04.2.1 0 .03-.02.06-.05.08-.5.04-.9-.1-1.23-.39l1.08.21Z" fill="#FFA543"/><path d="m4.8 6.5.14.2.07.02.12-.03c.03-.01.04 0 .02.03l-.06.12a.06.06 0 0 0 0 .07l.13.17v.03l-.02.02a.79.79 0 0 0-.17-.1c-.03-.01-.05 0-.06.02l-.05.1c-.03.05-.04.05-.05 0l-.05-.21a.1.1 0 0 0-.04-.06l-.14-.1a.27.27 0 0 0 .03-.1c0 .02.02.04.07.04.03.01.05 0 .04-.03a.32.32 0 0 0-.02-.1c0-.06 0-.09.05-.09Z" fill="#fff"/><path d="m4.76 6.58.03.1c0 .04-.02.05-.05.04-.05 0-.08-.02-.07-.04.02-.09.05-.12.09-.1Z" fill="#001A2D"/><path d="M11.68 6.73a.4.4 0 0 1-.03.13l-.03.33c0 .03 0 .05-.03.07l-.05.07a.12.12 0 0 0-.03.1c.04.2.06.42-.07.6-.06.08-.13.12-.21.12a.14.14 0 0 1-.03-.07c.06-.1.1-.19.1-.28.02-.36.08-.7.18-1.01 0-.03.02-.04.04-.05l.11-.03c.01-.02.02-.01.05.02Z" fill="#FFCD60"/><path d="M11.65 6.86a.8.8 0 0 1-.07.54.1.1 0 0 0-.02.07l.05.3-.19.36a.08.08 0 0 0 0 .07c.1.34-.03.83-.2 1.11h-.05a2.4 2.4 0 0 0 .2-1.12.05.05 0 0 0-.03-.02h-.03l-.12.07a.02.02 0 0 1-.03 0v-.02c0-.03.02-.05.07-.07.08 0 .15-.04.2-.12.14-.18.12-.4.08-.6a.12.12 0 0 1 .03-.1l.05-.07a.13.13 0 0 0 .03-.07l.03-.33Z" fill="#010101"/><path d="m4.53 7.04.27.47-.26-.1c-.02 0-.04 0-.06.02l-.19.22.24-.61Zm1.83.51-.05.14.01.06.11.18-.2-.08c-.02 0-.04 0-.06.02l-.1.1c-.02.04-.04.03-.04-.01L6 7.78a.09.09 0 0 0-.05-.07 1.88 1.88 0 0 1-.23-.14c-.04-.03-.04-.04 0-.04l.19.02a.04.04 0 0 0 .04-.05l-.02-.14c-.01-.06 0-.07.04-.02l.15.18a.06.06 0 0 0 .05.02h.2Zm7.21-.23.04.04c.14.4.23.8.27 1.24-.34.05-.63.12-.86.22a12.81 12.81 0 0 1-1.8.55c-.02 0-.03-.01-.03-.03l.04-.03c.16-.28.29-.77.19-1.11-.01-.02 0-.05 0-.07l.2-.36c.64-.19 1.27-.45 1.95-.45Z" fill="#fff"/><path d="M4.8 7.5c.45.77.96 1.48 1.53 2.14.02.02.02.05.02.07l-.03.11c-.23-.02-.44 0-.64.08a5.66 5.66 0 0 0-1.3.68.06.06 0 0 1-.04-.03 4.6 4.6 0 0 1-.24-1.76c.05.04.09.06.12.06s.04 0 .03-.03a.58.58 0 0 0-.08-.17.15.15 0 0 1-.01-.1l.15-.28c.03-.04.02-.05-.03-.03-.06.02-.1.07-.15.15l.16-.74.19-.22a.05.05 0 0 1 .06-.02l.26.1Z" fill="#002248"/><path d="M4.16 8.55c-.03-.02-.04-.07-.03-.16a.3.3 0 0 1 .15-.15c.05-.02.06 0 .03.03l-.15.28Z" fill="#fff"/><path d="M13.88 8.6a4.39 4.39 0 0 1-.12 1.57 6.15 6.15 0 0 1-1.56.36c.1-.24.34-.22.23-.58a.08.08 0 0 0-.04-.05l-.06-.02a.07.07 0 0 1-.04-.07l.01-.03a.22.22 0 0 0 .02-.23h-.04c-.02.02-.01.03 0 .04a.1.1 0 0 1 .03.03c-.02-.02-.03-.02-.04 0a5.16 5.16 0 0 1-.31.45c-.02-.01-.03-.03-.02-.05a.26.26 0 0 0 .03-.13c0-.1-.03-.1-.08-.02a.86.86 0 0 0-.07.25l-.57-.69v-.05c.56-.13 1.15-.32 1.77-.56.23-.1.52-.17.86-.22Z" fill="#BC161C"/><path d="m4.17 8.65.08.17c.01.03 0 .04-.03.03a.27.27 0 0 1-.12-.06c.01-.11.03-.16.07-.14Z" fill="#fff"/><path d="m11.06 9.4-.16.55a1.1 1.1 0 0 1-.3.57c-.08.07-.24.16-.5.27a5.24 5.24 0 0 0-.67.33c-.17-.08-.26-.06-.27.07l-.68.02-.12-.04-.03-.08a.08.08 0 0 0-.05-.04.86.86 0 0 1-.34-.2l-.13-.1a2.16 2.16 0 0 1-.42-.62h.02c.3.53.71.88 1.33.9.33.02.66-.03.99-.15a1.3 1.3 0 0 0 .7-.67.98.98 0 0 1-.21.39c-.08.09-.07.1.04.05.21-.1.36-.25.44-.44.19-.4.29-.84.41-1.25h.01c-.03.14-.05.29-.05.44Z" fill="#3A2320"/><path d="M6.99 9.48 7 9.7l.01.13c0 .06-.01.06-.03 0l-.03-.07a.1.1 0 0 0-.05-.06 1.4 1.4 0 0 1-.26-.14c-.04-.02-.04-.03 0-.03l.18.03a.02.02 0 0 0 .02-.01.02.02 0 0 0 0-.03l-.08-.2c-.02-.04-.01-.04.02-.01l.2.16Z" fill="#fff"/><path d="M11.23 9.31c-.02 0-.03.02-.04.03 0 .02.01.03.02.03l.05.01-.01.03v.02l.57.69c0 .05-.02.14-.07.25-.15-.01-.24.02-.27.1-.05.04-.1.04-.13.01.03-.01.04-.03.05-.04 0-.01 0-.03-.03-.04l-.47-.45.17-.55.1-.1.06.01Z" fill="#901216"/><path d="M7.02 9.48c.02.05.04.12.04.19-.03-.02-.04 0-.05.04L7 9.48h.03Z" fill="#3A2320"/><path d="M12.2 10.53c-.06 0-.12 0-.17.02a.08.08 0 0 0-.06.05.76.76 0 0 1-.14.2c-.17.19-.39.32-.65.42a.14.14 0 0 0-.06.04c-.22.27-.5.42-.82.46-.02 0-.04.02-.04.05 0 .03 0 .07.04.1 0 .18-.03.32-.1.43a.71.71 0 0 0-.02-.65v-.02a.06.06 0 0 1 .04-.07c.25-.09.47-.13.68-.34.12-.11.25-.13.39-.18.02 0 .04-.02.06-.04.07-.07.14-.12.24-.11.09 0 .13-.04.15-.12 0-.03.01-.05.04-.06.05-.04.06-.08.04-.13-.06-.13-.17-.16-.34-.11.03-.08.12-.11.27-.1a.5.5 0 0 0 .11.15.07.07 0 0 0 .07.02.87.87 0 0 0 .33-.21c.02-.02.02-.04-.01-.05-.12-.03-.17-.1-.14-.24l.03-.03c.03-.01.04 0 .03.02l-.02.05v.04l.02.03.14.09c.03.02.05.01.06-.02a.43.43 0 0 0 .04-.19.1.1 0 0 0-.03-.06.17.17 0 0 0-.15-.06c-.04 0-.05 0-.03-.04.06-.08.1-.17.11-.25a.1.1 0 0 0-.03-.03c-.01-.01-.02-.02 0-.03l.02-.01h.02c.04.08.03.15-.02.23a.07.07 0 0 0 0 .06.07.07 0 0 0 .03.04l.06.02.04.05c.1.36-.14.34-.23.58Z" fill="#002248"/><path d="M12.31 9.62a.66.66 0 0 1-.1.25c-.03.03-.02.05.02.04.05 0 .1.01.15.06a.1.1 0 0 1 .03.06c0 .07-.01.14-.04.2-.01.02-.03.03-.06 0l-.14-.08a.06.06 0 0 1-.02-.07l.02-.05c0-.02 0-.03-.03-.02a.04.04 0 0 0-.03.03c-.03.13.02.21.14.24.03.01.03.03 0 .05-.09.1-.2.16-.32.2h-.07a.5.5 0 0 1-.11-.16c.05-.11.07-.2.07-.25a.86.86 0 0 1 .07-.25c.05-.08.08-.07.08.02 0 .04 0 .08-.03.13 0 .02 0 .04.02.05h.03c.1-.16.2-.3.28-.45 0-.02.02-.02.04 0Z" fill="#FF834C"/><path d="M6.32 9.82c.3.07.53.4.75.61.12.15.29.28.5.42.03.02.03.04 0 .08l-.63.04c-.52.03-1 .2-1.44.48l-.5.32a6.25 6.25 0 0 1-.61-1.16l.01-.02c.42-.3.84-.53 1.28-.7.2-.07.4-.1.64-.07Zm4.58.13a6.55 6.55 0 0 0 .5.49c0 .01-.02.03-.05.04-.17.08-.32.2-.44.35l-.34.09c-.2.04-.4.13-.6.26-.03-.12-.15-.16-.37-.14.17-.1.34-.18.5-.25.26-.11.42-.2.5-.27.15-.14.25-.34.3-.57Zm2.86.22a5.1 5.1 0 0 1-.64 1.47c-.02 0-.04 0-.05-.02a13.46 13.46 0 0 1-.91-1.07c.57-.06 1.1-.19 1.6-.38Z" fill="#fff"/><path d="m7.8 10.78.01-.03.13.1c-.17.1-.3.12-.38.08.04-.04.04-.06 0-.08a2.7 2.7 0 0 1-.5-.42c.12 0 .19.02.23.06.14.17.3.27.5.29Z" fill="#C0C3CA"/><path d="M10.2 12.3a.77.77 0 0 0-.03.33l-.01.13a.33.33 0 0 1-.05.12.88.88 0 0 0-.17.4c0 .02-.02.04-.04.05l-.09.06c-.06-.03-.78-.04-1.02-.05a.23.23 0 0 0-.17 0 .1.1 0 0 1-.12-.08l-.03-.18a.1.1 0 0 0-.04-.06 1.29 1.29 0 0 1-.5-.64c-.05-.12-.02-.14.07-.06.1.09.21.13.34.12a9.86 9.86 0 0 1 .52-.03v-.03l-.49-.06c-.24-.03-.43-.2-.62-.34-.04-.03-.05-.02-.02.02l.07.13v.06l-.12.48-.1.23a.06.06 0 0 0 0 .06l.39.46c-.1.06-.13.12-.1.18-.37-.1-.57-.28-.62-.52-.14-.35-.24-.7-.29-1.04a.91.91 0 0 1 .2-.74.4.4 0 0 1 .4-.17c.19.01.28.15.5.13h.39c.04.04.04.07.02.1-.11.1-.2.22-.29.37a.04.04 0 0 0 .02.05l.85.53.37.29a.06.06 0 0 0 .08-.01l.26-.35c.17-.14.27-.3.33-.47 0-.05 0-.08-.03-.1l-.2-.26-.01-.13c.05-.02.1-.05.12-.1.2-.13.4-.22.6-.26.12.02.2.03.25.02.08-.01.1-.05.1-.11.11-.15.26-.27.43-.35.04.03.08.03.13-.01.17-.05.28-.02.34.1.02.06 0 .1-.04.14a.08.08 0 0 0-.04.06c-.01.08-.06.12-.15.12-.1 0-.17.04-.24.11a.16.16 0 0 1-.06.04c-.14.05-.27.07-.39.18-.2.2-.43.25-.68.34a.06.06 0 0 0-.04.04.07.07 0 0 0 0 .05c.1.22.11.43.02.65Z" fill="#002B87"/><path d="m12.2 10.53-.04.02c.27.37.56.72.87 1.04l.04.03.05.02c-.02.03-.04.04-.06.04-.14.01-.24-.01-.31-.07-.2-.16-.51-.43-.91-.8.06-.07.1-.14.13-.2a.08.08 0 0 1 .06-.06.5.5 0 0 1 .17-.02Z" fill="#C0C3CA"/><path d="M11.83 10.8c.4.38.71.65.92.81.07.06.17.08.3.07.04.02.04.05.02.09-.04.09-.1.13-.14.14-.77-.15-1.41.1-2.07.49-.03 0-.05 0-.07.02a1.9 1.9 0 0 0-.49-.55c-.03-.03-.05-.07-.04-.1 0-.03.02-.04.04-.05.33-.04.6-.2.82-.46a.14.14 0 0 1 .06-.04c.26-.1.48-.23.65-.41ZM8.36 11.17c-.2.04-.37.07-.56 0-.13-.06-.3-.13-.44-.1a.4.4 0 0 1-.2 0 .08.08 0 0 0-.07.02l-.14.14c-.08.09-.16.3-.23.64l-.07.63-.64.34h-.09a4.81 4.81 0 0 1-.92-.99c-.03-.06-.03-.08 0-.08l.5-.32c.44-.29.92-.45 1.44-.48l.62-.04c.08.04.2.01.38-.07.1.08.2.15.34.19.02 0 .04.02.05.04l.03.08Z" fill="#BC161C"/><path d="M9.6 11.04c.22-.02.34.02.37.14a.18.18 0 0 1-.12.1.88.88 0 0 1-.28-.08.12.12 0 0 0-.08 0 1 1 0 0 1-.33-.01c.01-.13.1-.15.27-.07.02.01.04 0 .06-.01a.29.29 0 0 1 .11-.07Z" fill="#901216"/><path d="m8.36 11.17.12.04-.03.04-.4.01c-.2.02-.3-.12-.49-.13a.4.4 0 0 0-.4.17.33.33 0 0 0-.2.08.3.3 0 0 0-.1.15c-.04.16-.06.3-.05.42.03.42.11.8.44 1.13.05.24.25.41.62.52l.41.18c.03.01.05 0 .07-.01l.23-.29h.04v.08a.1.1 0 0 0 .18-.03c.02-.06 0-.1-.03-.13l.02-.06.54.02-.3.02c-.04 0-.07.03-.08.07v.07a.06.06 0 0 0 0 .05.06.06 0 0 0 .05.02h.75c.03 0 .04 0 .05-.03a.33.33 0 0 0 .01-.17l.09-.06a.09.09 0 0 0 .04-.06.88.88 0 0 1 .17-.4c-.12.3-.16.6-.13.94-.42.07-.84.1-1.26.08a.4.4 0 0 1-.02-.15.1.1 0 0 0-.16-.1c-.06.04-.08.12-.05.24l-.74-.15a1.7 1.7 0 0 1-.7-.8.07.07 0 0 0-.05-.04h-.03l-.02.05a5.98 5.98 0 0 1-.02.36h-.02a1.3 1.3 0 0 1 0-.35 1 1 0 0 0-.03-.33c-.07-.25-.12-.5-.16-.75.07-.34.15-.55.23-.64a4.67 4.67 0 0 1 .17-.16h.04a.4.4 0 0 0 .2 0c.14-.03.31.04.44.1.19.07.37.04.56 0Z" fill="#010101"/><path d="M9.85 11.28v.13a5.66 5.66 0 0 0-1.38-.04c.02-.04.02-.07-.02-.12a.09.09 0 0 0 .03-.04l.68-.02a1 1 0 0 0 .33 0l.08.01c.08.04.18.07.28.08Zm-2.68.02a.91.91 0 0 0-.21.74c.05.35.15.7.3 1.04-.34-.32-.42-.71-.45-1.13 0-.12.01-.26.06-.42a.3.3 0 0 1 .1-.15.33.33 0 0 1 .2-.08Z" fill="#002248"/><path d="m9.86 11.4.2.27c-.02.2-.19.4-.3.57l-.26.35a.06.06 0 0 1-.08 0l-.37-.28c-.04-.1-.1-.1-.17-.15l-.59-.39a.06.06 0 0 1-.03-.06c0-.08.06-.13.17-.15a.29.29 0 0 0-.05.14l.01.03.03.02h.04a.03.03 0 0 0 .02-.02c0-.1.04-.17.11-.22.03-.02.03-.04.01-.07-.01-.01-.04-.02-.07 0 0-.03 0-.05.02-.07.44-.04.88-.03 1.3.04Z" fill="#BC161C"/><path d="M8.47 11.37h.08a.1.1 0 0 0-.02.06.3.3 0 0 0-.1.13c-.1.02-.16.07-.17.15 0 .03 0 .05.03.06l.6.4c.07.05.12.03.16.14l-.85-.53a.04.04 0 0 1-.02-.05c.08-.15.18-.27.29-.36ZM6.72 11.87c.04.25.09.5.16.75.03.13.04.24.03.33a1.3 1.3 0 0 0 0 .35h.02a5.98 5.98 0 0 0 .04-.4c0-.02.02-.02.03-.02.02.01.04.02.05.05.13.32.37.6.7.8-.38-.08-.73-.2-1.05-.4-.07-.03-.08-.07-.08-.15l.03-.68.07-.63Z" fill="#670F0D"/><path d="M12.93 11.9c-.4.54-.87.97-1.42 1.3-.31-.35-.52-.58-.6-.7a.42.42 0 0 1-.05-.1c.66-.38 1.3-.64 2.07-.5Z" fill="#fff"/><path d="m10.8 12.42-.63.2a.9.9 0 0 1 .03-.32c.07-.1.1-.25.1-.43.2.15.36.33.5.55Z" fill="#901216"/><path d="m8.8 13.34-.03.06c-.1-.03-.15 0-.15.09l-.04-.01.02-.04c0-.02-.02-.03-.04-.04h-.1c-.04 0-.05-.02-.03-.05.02-.02.02-.04 0-.05-.05-.03-.11-.02-.17-.02.04-.08.01-.14-.06-.18-.12-.06-.26-.1-.34-.2a1.84 1.84 0 0 1-.18-.23l.12-.48v-.06L7.73 12c-.03-.04-.02-.05.02-.02.19.14.38.31.62.34a20.9 20.9 0 0 1 .49.07v.02l-.02.02-.5.01a.46.46 0 0 1-.34-.12c-.1-.08-.12-.06-.08.06.1.25.26.47.51.64a.1.1 0 0 1 .04.06l.02.18a.1.1 0 0 0 .09.09.1.1 0 0 0 .04-.01.23.23 0 0 1 .17 0Z" fill="#002248"/><path d="m10.86 12.4.04.1.61.7a.26.26 0 0 1-.12.1 16.4 16.4 0 0 0-.95-.46c-.1-.05-.18-.04-.28-.08l.01-.13.62-.21c.02-.02.04-.02.07-.02Z" fill="#C0C3CA"/><path d="m6.65 12.5-.03.68v.03a.03.03 0 0 1-.02.04h-.02a3.65 3.65 0 0 1-.57-.38v-.03l.64-.34Z" fill="#fff"/><path d="M8.26 13.28a.85.85 0 0 0-.12.11c-.03.03-.05.05-.08.05s-.06 0-.1-.02l-.37-.46a.06.06 0 0 1-.01-.06l.1-.23.18.22c.08.1.22.15.34.21.07.04.1.1.06.18Z" fill="#670F0D"/><path d="M11.4 13.3c-.47.25-.94.42-1.42.5a2.1 2.1 0 0 1 .18-1.04c.1.04.19.03.29.08l.95.46Z" fill="#BC161C"/><path d="M9.81 13.39v.17a.07.07 0 0 1-.06.04L9 13.59h-.02a.06.06 0 0 1-.03-.07v-.07c.01-.04.04-.06.08-.07l.78.01Zm-1.04.01c.04.03.05.07.03.13a.1.1 0 0 1-.18.03c-.01-.01-.01-.04 0-.07 0-.09.05-.12.15-.1Z" fill="#FFA543"/><path d="m8.72 13.9-.23-.02c-.03-.12 0-.2.05-.24a.1.1 0 0 1 .16.1c0 .03 0 .09.02.15Z" fill="#BC161C"/><path d="M10.72 4.84v-.02c0-.01 0-.01 0 0 .42.37.67.8.74 1.32.01.1 0 .1-.02 0a2.62 2.62 0 0 0-.72-1.3Z" fill="#3A2320"/><path d="m6.31 6.58-.17-.07c-.05-.01-.05-.03 0-.04l.16-.04c.03 0 .04-.02.03-.05a1.41 1.41 0 0 1-.01-.22c0-.04 0-.04.03 0l.1.15c.02.03.04.03.07.03a.38.38 0 0 0 .12-.06c.06-.03.08-.02.05.04l-.1.24a.1.1 0 0 1-.05.05.13.13 0 0 0-.05.04.08.08 0 0 0-.01.05.3.3 0 0 1-.06.15c-.02.04-.04.03-.04 0l-.02-.2a.07.07 0 0 0-.05-.07Z" fill="#fff"/><path d="M6.8 6.58h-.02v-.03c-.01 0-.01 0 0 0a1.2 1.2 0 0 0 .32-.23l.01.01v.03a.9.9 0 0 1-.3.22Z" fill="#3A2320"/><path d="M9.1 7.03a.3.3 0 0 1-.1-.09c0-.02-.03-.03-.05-.01-.1.05-.18-.02-.28-.02a3.88 3.88 0 0 1-.39-.01.07.07 0 0 0-.03.02.09.09 0 0 0-.01.07 1 1 0 0 0-.5.21h-.06c-.09-.06-.1-.14-.01-.23.1-.1.22-.2.37-.3a.11.11 0 0 1 .07-.01.7.7 0 0 0 .35-.05.1.1 0 0 1 .07 0l.4.11.06.04.16.14c.02.02.03.05.02.07 0 .04-.03.06-.07.06Z" fill="#D86524"/><path d="M9.92 6.93c.07.13.2.17.41.1l.08.01c.1.07.23.1.37.08a.03.03 0 0 1 .02 0 .03.03 0 0 1 0 .03c0 .01-.01.02-.02.01a.03.03 0 0 0-.04.05c.03.06.09.1.16.1.05 0 .07.03.05.08a.94.94 0 0 1-.28-.15c-.3-.2-.6-.17-.92.07-.14.1-.1.38-.1.52 0 .07-.01.07-.03 0-.07-.21-.04-.4.07-.54.02-.02.02-.03 0-.04-.13-.1-.04-.28-.03-.42h.02a6.2 6.2 0 0 1-.01.32.08.08 0 0 0 .08.05c.05 0 .1-.02.13-.04a.07.07 0 0 0 .03-.08c-.01-.06 0-.1.01-.15Z" fill="#3A2320"/><path d="m8.24 6.99.01-.07a.07.07 0 0 1 .06-.03l.36.02c.1 0 .18.07.28.02.02-.02.04-.01.06.01a.3.3 0 0 0 .09.09l.02.05c.02.02.04.03.06.02.13-.01.2-.1.21-.26h.01c.01 0 .02 0 .01.01 0 .18-.1.29-.26.32-.02 0-.04.02-.03.05.02.17-.05.29-.2.35-.06.01-.06 0-.02-.02.14-.1.2-.21.16-.35-.06-.23-.2-.16-.37-.18-.15-.03-.3-.03-.45-.03Z" fill="#670F0D"/><path d="M10.95 7.39c.02-.05 0-.08-.05-.08a.18.18 0 0 1-.16-.1.03.03 0 0 1 .02-.05h.04v-.03a.03.03 0 0 0-.03-.01.56.56 0 0 1-.36-.08.08.08 0 0 0-.08 0c-.2.06-.34.02-.4-.11-.03-.05-.01-.08.06-.1h.1c.22 0 .43.03.64.07.29.05.4.2.33.47 0 .03-.02.04-.05.03l-.06-.01Z" fill="#D86524"/><path d="M8.59 7.23a.1.1 0 0 0 .07.03c.04.01.04.02 0 .02-.25.04-.44-.17-.65.09-.02.02-.04.02-.06 0a.08.08 0 0 1-.02-.07.06.06 0 0 1 .04-.05.61.61 0 0 0 .24-.1.15.15 0 0 1 .1-.03 5.22 5.22 0 0 0 .45.02c0 .01 0 .02-.02.02a.5.5 0 0 0-.13 0 .04.04 0 0 0-.02.07ZM10.4 7.44a.53.53 0 0 1-.36-.01v-.09c0-.03.01-.03.04-.02l.32.12ZM7 8.71a.25.25 0 0 0-.02-.22 1.13 1.13 0 0 0-.22-.27h.01c0-.02.02-.02.02 0 .16.18.33.24.24.54-.02.05-.05.06-.1.03a.56.56 0 0 1-.21-.25 1.67 1.67 0 0 1-.14-.53L6.59 8h.02c.04.26.1.57.33.73.02.02.04.01.05-.02Z" fill="#3A2320"/><path d="M8.89 8.43v.02l.03.01a.05.05 0 0 0 .05-.01l.06-.06c.02-.03.04-.02.06.01.16.3.46.12.52-.12 0-.02.02-.03.04-.02l.02.01v.02c-.06.1-.1.24-.21.3-.16.08-.3.06-.4-.08 0-.01-.02-.02-.04 0a.2.2 0 0 1-.11.02c-.02 0-.03 0-.04-.02-.05-.05-.04-.12.04-.2.04-.03.05-.03.02.02l-.04.1Z" fill="#010101"/><path d="m9.59 8.52.07.02c.04 0 .06-.02.05-.06a.23.23 0 0 0-.02-.08c-.02-.04-.01-.04.02-.01.04.03.05.07.04.12-.03.09-.09.1-.17.05v-.03Zm-.84.65a.1.1 0 0 0-.02.08c0 .03 0 .03-.02.01-.01-.18.17-.3.27-.44H9l.01.01c-.1.12-.2.23-.27.34Zm.97-.05a.33.33 0 0 1-.1-.18c-.04-.2 0-.14.1.18Z" fill="#3A2320"/><path d="M9.46 8.95c.04.09.04.2-.01.33 0 .02-.02.03-.03.04h-.05L9 9.3a.2.2 0 0 0-.02-.08c.03-.04.06-.05.08-.04l.33.04c.04 0 .05 0 .05-.04l-.02-.1c0-.04-.03-.06-.07-.06L9.16 9c-.03 0-.05 0-.06.03a.36.36 0 0 0-.06.12h-.02L9 9.14c0-.1.03-.16.1-.2a.1.1 0 0 1 .09-.01.4.4 0 0 0 .27.03Z" fill="#010101"/><path d="M9.61 8.94a.4.4 0 0 0 .11.18.1.1 0 0 1 .05.1c0 .02-.02.03-.04.03-.05 0-.08 0-.09.04v-.03c-.02-.04-.03-.04-.03 0s-.03.08-.06.11c-.17.15-.11.38-.36.47a.1.1 0 0 1-.1-.02c-.14-.1-.16-.32-.1-.45.04.07.1.1.19.11.15.01.21-.04.19-.15l.05-.01.03-.04c.05-.13.05-.24 0-.33l.16-.01Z" fill="#D86524"/><path d="m9.06 9.17-.02-.03a.36.36 0 0 1 .06-.12.06.06 0 0 1 .06-.03l.2.02c.03 0 .05.02.06.06l.02.1c0 .03-.01.05-.05.04l-.33-.04Z" fill="#fff"/><path d="m8.98 9.2.02.1v.08c-.07.13-.05.34.08.45a.1.1 0 0 0 .11.02c.25-.1.19-.32.36-.47a.18.18 0 0 0 .06-.11c0-.04.01-.04.02 0l.01.03a.2.2 0 0 1-.1.17.11.11 0 0 0-.04.07c-.05.21-.14.39-.37.39-.03 0-.05-.01-.08-.03-.17-.14-.17-.39-.14-.6a.1.1 0 0 1 .02-.05.1.1 0 0 1 .05-.03Z" fill="#901216"/><path d="M9.37 9.33c.02.11-.04.16-.2.15A.18.18 0 0 1 9 9.37v-.08l.37.04Z" fill="#C0C3CA"/><path d="M8.62 10.5c.34.26.58.21.93.01.08-.05.09-.04.02.03-.3.3-.69.33-.97-.01-.05-.06-.04-.06.02-.02Z" fill="#3A2320"/><path d="m5.28 9.3.16.2c.03.04.02.05-.03.04l-.22-.07a.06.06 0 0 0-.07.03l-.09.17C5.01 9.7 5 9.7 5 9.66l-.02-.2a.05.05 0 0 0-.05-.06l-.19-.05c-.05-.01-.05-.03-.01-.06l.17-.14a.07.07 0 0 0 .03-.07 1.43 1.43 0 0 1-.02-.18c0-.06.01-.07.05-.02l.09.12c.01.03.04.04.07.03l.27-.06c.05 0 .06 0 .04.04l-.14.23a.04.04 0 0 0 0 .06Z" fill="#fff"/><path d="m9.78 11.65.03-.02a.09.09 0 0 1 .09 0 .09.09 0 0 1 .05.06c0 .07-.02.1-.08.12l-.09-.01a.86.86 0 0 0-.62-.07.5.5 0 0 1-.3-.02.04.04 0 0 1-.03-.03.05.05 0 0 1 .02-.05c.16-.13.55-.23.7-.02a.17.17 0 0 0 .23.04Zm-.47.49a.23.23 0 0 0-.2 0 .1.1 0 0 1-.1 0l-.12-.09c-.03-.02-.03-.04.02-.04h.5c.06 0 .12.03.17.07a.07.07 0 0 1 0 .1l-.02.02c-.1.04-.17.02-.22-.04l-.03-.02Z" fill="#FFA543"/></svg>