<!-- by TradingView --><svg width="18" height="18" viewBox="0 0 18 18" xmlns="http://www.w3.org/2000/svg"><path fill="url(#acxnwrom4)" d="M0 0h18v18H0z"/><path d="M6.67 9.56c.13 2.08 1.45 3.4 2.24 3.73-.93.42-3.09.26-3.09-3.86 0-4.14 2.4-5 3.65-5.14l1.27.28 1-.28.26.28c-.34.12-.83.76-1.07 1.1C10.6 4.98 9.8 5 9.47 5 7.93 5 6.5 6.99 6.67 9.56Z" fill="url(#bcxnwrom4)"/><path d="M11.73 4.29c-.43.13-.85.66-1 1A1.4 1.4 0 0 0 9.5 4.5C8.37 4.5 6 6.35 6 9.5c0 3.13 1.92 3.8 3.47 3.8.93 0 1.5-.63 1.4-1.01-.04-.2-.02-.58.43-.58s.48.29.42.58C11.58 13 10.49 14 8.67 14c-1.83 0-3.27-2.29-3.69-3.29-.33-.8-.8-1.1-.98-1.14.22-.46.75-.47.98-.43C4.98 5.14 8.2 4 9.47 4c.56 0 .99.19 1.13.29.09-.1.36-.29.7-.29.17 0 .3.14.43.29Z" fill="url(#ccxnwrom4)"/><defs><linearGradient id="acxnwrom4" x1="3.35" y1="3.12" x2="21.9" y2="24.43" gradientUnits="userSpaceOnUse"><stop stop-color="#1A1E21"/><stop offset="1" stop-color="#06060A"/></linearGradient><linearGradient id="bcxnwrom4" x1="8.91" y1="4.29" x2="8.91" y2="13.45" gradientUnits="userSpaceOnUse"><stop stop-color="#7C4F14"/><stop offset=".17" stop-color="#CF8C21"/><stop offset=".28" stop-color="#F0B035"/><stop offset=".43" stop-color="#734A08"/><stop offset=".67" stop-color="#BC7908"/><stop offset="1" stop-color="#3E1E05"/></linearGradient><linearGradient id="ccxnwrom4" x1="7.87" y1="4" x2="7.87" y2="14" gradientUnits="userSpaceOnUse"><stop stop-color="#EFDF58"/><stop offset=".47" stop-color="#C67D16"/><stop offset="1" stop-color="#8B4102"/></linearGradient></defs></svg>