<!-- by TradingView --><svg width="18" height="18" viewBox="0 0 18 18" xmlns="http://www.w3.org/2000/svg"><path fill="#F0F3FA" d="M0 0h18v18H0z"/><circle cx="9" cy="9" r="6" fill="url(#ahrrsyapn)"/><path fill-rule="evenodd" d="M9 14.65a5.65 5.65 0 1 0 0-11.3 5.65 5.65 0 0 0 0 11.3ZM9 15A6 6 0 1 0 9 3a6 6 0 0 0 0 12Z" fill="url(#bhrrsyapn)"/><path d="M6.18 6.53v-.35h3v.35H9c-.28 0-.35.23-.35.35v3.18c0 .41.17 1.23.88 1.23.7 0 .88-.82.88-1.23V6.88c0-.28-.23-.35-.35-.35h-.18v-.35h1.94v.35h-.17c-.14 0-.18.23-.18.35v3.53c0 1.13-1.41 1.41-2.12 1.41-2.26 0-2.82-1.17-2.82-1.76V6.88c0-.28-.12-.35-.18-.35h-.17Z" fill="url(#chrrsyapn)"/><path d="M7.41 7.06c.43-.7 1.06-.7 1.41-.7-.42.13-.53.4-.53.52v3.18c0 1.06.71 1.41 1.42 1.41.7 0 .7-.53.88-.7.17-.18 0-.18 0-.36 0-.17.17-.53.17-.88s.18-.35 0-.7c-.17-.36 0-.36 0-.71 0-.36 0-.36-.17-.36-.14 0 .06-.47.17-.7V6.7c0-.29.48-.36.71-.36-.28 0-.35.36-.35.53v3.18c-.06.53-.43 1.59-1.41 1.59-1 0-1.6-.36-1.77-.53a2.5 2.5 0 0 1-.53-.88c-.17-.53.18-.71.18-.89 0-.14-.24.06-.35.18-.18-.18 0-.7.17-.88.14-.14.41-.06.53 0v-.53c0-.14-.35-.18-.53-.18v-.88Z" fill="url(#dhrrsyapn)"/><path d="M11.47 6.35h-1.41c.56 0 .7.24.7.36.15-.29.53-.36.71-.36ZM6.53 6.35h2.3c-.57 0-1.18.47-1.42.7-.14-.27-.65-.58-.88-.7Z" fill="#4C4A2E" fill-opacity=".6"/><defs><linearGradient id="ahrrsyapn" x1="8.82" y1="3.71" x2="11.65" y2="14.12" gradientUnits="userSpaceOnUse"><stop stop-color="#637289"/><stop offset=".27" stop-color="#7C5A58"/><stop offset=".42" stop-color="#9A7879"/><stop offset=".59" stop-color="#232E30"/><stop offset="1" stop-color="#1A2225"/></linearGradient><linearGradient id="bhrrsyapn" x1="9" y1="3" x2="9" y2="15" gradientUnits="userSpaceOnUse"><stop stop-color="#888479"/><stop offset="1" stop-color="#72664E"/></linearGradient><linearGradient id="chrrsyapn" x1="9" y1="6.18" x2="9" y2="11.82" gradientUnits="userSpaceOnUse"><stop stop-color="#28211B"/><stop offset=".38" stop-color="#271D0C"/><stop offset="1" stop-color="#6B422C"/></linearGradient><linearGradient id="dhrrsyapn" x1="9.32" y1="6.34" x2="9.71" y2="11.65" gradientUnits="userSpaceOnUse"><stop stop-color="#FEEBB3"/><stop offset=".5" stop-color="#FFECAF"/><stop offset="1" stop-color="#D7AB7A"/></linearGradient></defs></svg>