<!-- by TradingView --><svg xmlns="http://www.w3.org/2000/svg" width="18" height="18"><path fill="#4482EE" d="M0 0h18v18H0z"/><path d="M9.53 4.3a.6.6 0 00-1.06 0l-4.4 8.09a.52.52 0 00-.06.35c1.46.4 3.82.22 4.99-1.9 1.03-1.88 1.64-2.92 2.02-3.57l.06-.11L9.53 4.3z" fill="#fff"/><path d="M11.2 7.39l-1.9 3.45A3.38 3.38 0 0012.63 13c.57 0 1.02-.1 1.36-.24a.52.52 0 00-.06-.37l-2.72-5z" fill="url(#ak2r3k3z3)"/><defs><linearGradient id="ak2r3k3z3" x1="10.61" y1="10.19" x2="14.54" y2="13.81" gradientUnits="userSpaceOnUse"><stop stop-color="#fff"/><stop offset=".9" stop-color="#4483EF"/></linearGradient></defs></svg>