<!-- by TradingView --><svg width="18" height="18" viewBox="0 0 18 18" xmlns="http://www.w3.org/2000/svg"><path fill="url(#a)" d="M0 0h18v18H0z"/><path d="M10.5 6.98A192.63 192.63 0 0 1 8.06 7a.4.4 0 0 1-.21-.07 2975.63 2975.63 0 0 0-2.94-1.9l-.7 4.37a.2.2 0 0 0 .05.17l3.14 3.23c.14.14.33.2.58.2l2.28.01c.22 0 .37-.01.46-.04a.86.86 0 0 0 .4-.25l2.83-3.17a.14.14 0 0 0 .04-.12l-.7-4.38c0-.01-.01-.02-.03-.02h-.03L10.5 6.98ZM5.6 8.45c0-.04.02-.06.06-.05.41.05.79.12 1.13.21.6.16 1.1.43 1.51.83.4.4.6.88.58 1.47 0 .02 0 .03-.03.03-.49.05-.98.01-1.45-.11-1.12-.3-1.72-1.1-1.8-2.38Zm7.01 0c-.08 1.28-.68 2.07-1.8 2.38-.47.12-.96.16-1.45.11-.02 0-.03 0-.03-.03-.01-.59.18-1.08.58-1.47.42-.4.92-.67 1.5-.83.35-.09.73-.16 1.14-.2.04-.01.06 0 .06.04Z" fill="#D7FE00"/><defs><linearGradient id="a" x1="3.35" y1="3.12" x2="21.9" y2="24.43" gradientUnits="userSpaceOnUse"><stop stop-color="#1A1E21"/><stop offset="1" stop-color="#06060A"/></linearGradient></defs></svg>