<!-- by TradingView --><svg width="18" height="18" viewBox="0 0 18 18" xmlns="http://www.w3.org/2000/svg"><path fill="#D4E8FF" d="M0 0h18v18H0z"/><path d="M11.9 12.53c-.54 1.02-4.59.35-6.42-.01-.32.11-.47.26-.48.4-.02.28.32.57.97.74 1.46.38 5.06.6 6.35-.23.6-.37.14-.79-.42-.9Z" fill="#94A3B2"/><path d="M5.4 12.52c.43.54.5.8 1.37 1.03 1.52.4 1.75-.23 1.97-.34.3.33.57.68 1.58.42.54-.14.12-.2.85-.22.44 0 .54-.04.82-.2.08-.35.1-.4-.09-.68 0-.01-.03-.04-.04-.03 0 .02-.03-.02-.03-.02l-.12-.1c-.32-.43.15-.57.65-1.78.14-.36.23-.76.4-1.08.2-.38.3-.6.2-1.23-.14-.97 0-1.7-.64-2.32-.47-.45-.2-.48-.42-1.06-.75-1.84-1.33-.36-2.3-.14-.94.22-.67.27-1.32.34-.4.04-.35.14-.63.2-.48.1-.3-.11-1.5.16-.27 1.16.2 1.5.34 1.88.2.56-.26.86.5 1.95l-.6.75c-.23.2.07.1-.32.13-.13-.47-.79-.55-1.1-.49-.92.18-1.4 1.46-.46 2.01.84.5.62-.19.89.82Z" fill="#131314"/><path d="M7.06 9c.1-.07 1.17-1.95 1.2-2.03l-.02-.23c.53.01.5-1 1.77-.19.02.01.04 0 .05.02l.04.01c.44.04.63-.17 1.23.12.5.23.66.36 1.32.37-.3-1.12-.58-.88-.77-1.28-.2-.42-.18-1.63-.83-1.56-.2.02-.63.33-.78.43-.6.42-.64.18-1.21.44-.4.18-.19.12-.67.18-.35.04-.37.13-.62.2-.22.05-.53.02-.79.04-.76.03-.6.15-.65.2-.32.4.29 1.3.39 1.55.2.5-.18 1.05.34 1.74Z" fill="#F9AE5F"/><path d="M8.26 6.97c-.13.33-.47.33-.7.97-.31.92-.5.34-.5 1.06.23.48.83.97 1.42 1.2.7.27 1.55.18 2.23-.03 1.41-.43 2.18-1.36 1.94-3.1-.66 0-.82-.14-1.32-.37-.61-.29-.8-.09-1.23-.12 0 0-.03.01-.04-.01 0-.02-.03 0-.05-.02l-.51-.2c0 .04-.13 1-1.14.5-.12.09-.08-.15-.1.12Z" fill="#FEFEFE"/><path d="M7.03 13.43c.4-.38.36-.13.55-.82-.22-.03.7-.66 1.42.47-.02-.63.5-.46 1.19-.76-.03-.3-.18-.66.19-.55.11-.41.01-.42-.07-.81-1.57.15-2.54-.1-3.07-1.45-.22.12-.31.3-.5.5-.11.12-.45.4-.5.48-.37.57.1.5-.73 1.1-.08 1.05.62 1.6 1.52 1.84Z" fill="#F9AE5F"/><path d="M8.26 6.97c.02-.27-.02-.04.1-.12.4.48.24.26.73.53-.32.82-.75.43-1.07.42.03.57.28.6.62.9-.1.45 0 .83.54.8.47-.04.66-.35.83-.67.22-.43.5-.3.75-.73.2-.34.3-.9-.05-1.2-.46.15-.31.76-1.22.5l-.24-.1c.06-.2.38-.25.25-.94l.51.2c-.16-.13-.09-.08-.16-.2.24-.33.36-.21.57-.37-.36-.18-.54.1-.76.27-.95-.33-.95.18-1.58.34-.3.07-.28 0-.4.3l.56-.15.02.22Z" fill="#020202"/><path d="M10.27 10.95c.08.4.17.38.05.8l.01.92c.75-.2 1.76-1.6 1.97-2.57-.6.31-.58.6-2.03.85Z" fill="#FEFEFE"/><path d="M4.66 11.08c.36.02.08 0 .3.18.8.66 1.76-1.4.22-1.38-1.08.03-1.4 1.51-.19 1.8.42.1.22.03.3-.03-.37-.24-.53-.09-.63-.57Z" fill="#F9AE5F"/><path d="m8.99 13.07.04.3c.34.14 1.13.24 1.46-.03.24-.48-.38-.53-.67-.73.05-.05-.02-.11.34-.06l.02-.24c-.54.07-.5.24-1.25.17l.06.6Z" fill="#FEFEFE"/><path d="M9.4 7.98c-.25.05-.2.07-.32.32l-.2.39c-.52.9 1.03 1.1 1.22-.85-.97-.12-.26.9-.95 1.2-.01-.08.21-.77.26-1.06Z" fill="#F58B8C"/><path d="M6.87 13.4c.33.05 1 .16 1.32.01.62-.28.22-.85-.73-.8-.2.7-.2.41-.59.79ZM10.79 13.22c.38.03.75 0 1.04-.11.05-.33.08-.33-.18-.52-.38-.3-.15-.16-.32-.42-.16.22-.44.42-.74.6l.2.45Z" fill="#FDFDFD"/><path d="M11.32 4.37c-.51-.11-.92.39-1.06.66.22.18.28.06.76.37.49.3.46.41.75.42a3.72 3.72 0 0 0-.45-1.45ZM6.44 5.73c-.02.02-.14-.03-.09.4l.5 1.15c.2-.2.22-.52.32-.77.12-.32.28-.5.4-.68-.26-.2-.85-.23-1.13-.1Z" fill="#0B0906"/></svg>