<!-- by TradingView --><svg width="18" height="18" viewBox="0 0 18 18" xmlns="http://www.w3.org/2000/svg"><path fill="#F0F3FA" d="M0 0h18v18H0z"/><circle cx="9" cy="9" r="6" fill="#CAB04D"/><path d="M6.38 8.58c-2.53 0-2.8 1.96-2.63 2.94.7 1.05 1.93 3.13 5.27 3.13 3.52 0 5.22-2.9 5.63-4.34l-.18-.52c-.53-1.21-1.93-1.21-2.29-1.39-.35-.17-.71-.29-.71-.46 0-.17-.85-1.98-1.04-2.31-.2-.34-.37.02-.18-.7.06-.2-.18-.52-.35-.52-.18 0-.35.35-.7.52-.36.18-.56.01-.9.01-.36 0-.33-.53-.51-.53s0 .18 0 .52c0 .35-.18.35-.35.52-.18.18-.35.52-.53.87-.18.35 0 .7 0 .87 0 .17.35.7.18.86-.14.14-.53.41-.7.53Z" fill="#E0CD88"/><path d="M8.65 7.41c-.7.14-.77-.41-.7-.7-.24-.06-.71-.11-.71.17 0 .36.17.88.52.88.29 0 .71-.23.89-.35Z" fill="#6B604A"/><path d="m7.23 6.88.18.36s.53-.31.53-.53c0-.22-.88-.18-.7.17Z" fill="#25230A"/><path d="M9.18 6c-.57-.14-.7.06-.7.18 0 .14.1.17.17.17.28 0 .47-.23.53-.35Z" fill="#DCDAC1"/><path d="M7.59 6.18c-.14-.14-.06-.3 0-.36.06 0 .18.04.18.18 0 .14-.12.18-.18.18ZM8.65 6.35c.28 0 .47-.23.53-.35-.22-.04-.36 0-.36 0-.17.18 0 .18-.17.35Z" fill="#2F2300"/><path d="M9.53 9c-.99.14-1.35 1.47-1.41 2.12 0-.53 0-1.6.7-1.94.71-.36 1.6-.7 1.6-.89 0-.14-.36.06-.54.18.06-.12.18-.39.18-.53s-.12-.18-.18-.18c.12-.23.36-.77.36-1.05 0-.36-.36-.53-.71-.53S9 6 9 5.82c0-.17.18-.17 0-.35-.18-.18-.53.18-.53.35 0 .18-.53.36-.35 0 .17-.35 0-.7-.18-.7s-.35-.7-.18-.7c.27 0 .36.52.53.52h.89c.53-.35.35-.53.7-.53.44 0 .53.7.36.88a9.22 9.22 0 0 1 1.23 2.65c.05.22 1.24.53 1.59.7-.53.18-2.3.18-3.53.36ZM7.41 8.82c-.28-.14-.35-.53-.35-.7-.18 0-.7.4-.88.53.42 0 1.4.47 1.76.7-.18-.35-.18-.35-.53-.53Z" fill="#C19A38"/><path d="M5.3 9.88c-.18.83-.22 2.44 1.05 2.3 1.1-.13 1.4-.78 1.42-1.23.05.62.34 1.58 1.23 1.58h1.06l-.18-.18h.36v-.17c.23.06.74 0 .88-.7.17-.9.17-1.42 0-1.77l.7.88c.06-.18.25-.6.53-.88-.11.7-.24 2.11.18 2.11.32 0 .46-.27.5-.5l.03-.2c0 .05 0 .12-.02.2-.01.33.1.8.55 1.03l-.18.36-.7-.36c-.36.12-1.1.6-1.24 1.6v.34l-1.23.36c.05-.06.2-.25.35-.53.18-.36-.18-.53-.35-.7-.15-.15-.3-.42-.36-.54.06.12.14.4 0 .53-.17.18 0 .53-.17.7-.15.15-.18.54-.18.71h-.18c.06-.11.14-.35 0-.35-.17 0-.88-.18-.88 0v.35H8.3v-.7c.3.12.92.32 1.06.17.18-.17.18-.53 0-.53-.14 0-.64-.11-.88-.17l-.18-.35c.3.11.92.31 1.06.17.18-.17.18-.35 0-.53-.17-.17-.7-.17-.88-.17-.14 0-.3.23-.35.35 0-.12-.07-.35-.35-.35-.36 0-.89.17-.71.35.14.14.65.3.88.35-.17 0-.53.04-.53.18 0 .17 0 .53.53.7-.06.06-.17.22-.17.36H7.4c0-.18-.07-.64-.35-1.06-.35-.53-.53-.7-.88-.88-.36-.18-.36.17-.36.53 0 .28.12.58.18.7-.41-.18-1.3-.67-1.59-1.23.35.11 1.03.2.88-.36a5.81 5.81 0 0 1 0-2.47Z" fill="#C19A38"/><path d="M12.7 12.35c-.42-.28-.76-1.06-.88-1.4 0 .84-.7 1.52-1.05 1.76.7-.18.88-.53 1.05-.71.15-.14.18.3.18.53-.28.42-.94 1.35-1.23 1.76h.35l.35-.35h-.18c.71-1.41 1.24-1.65 1.42-1.59ZM9.7 12.7c.12.18.25.6-.17.89.12-.18.32-.6.18-.88ZM8.3 12.53l-.36-.7c0 .42-.12.52-.17.52.42 0 .4.36.35.53l.17-.35ZM8.12 13.41c0 .14-.12.18-.18.18.14 0 .3.12.35.17l.18-.17c-.12-.12-.35-.32-.35-.18ZM5.82 13.59c0-.12-.1-.39-.53-.53.12.18.4.53.53.53Z" fill="#A87730"/><path fill-rule="evenodd" d="M5.82 9.7v1.77c.47.06 1.42.04 1.42-.53 0-.18-.07-.53-.36-.53.06 0 .18-.07.18-.35 0-.35-.35-.53-.7-.53a.8.8 0 0 0-.54.18Zm.36.18v.53c.17 0 .53-.07.53-.35 0-.18-.36-.24-.53-.18Zm0 1.24c.23 0 .7-.04.7-.18 0-.14-.47-.18-.7-.18v.36Z" fill="#939550"/><path d="M7.41 9.88c0-.35 0-.35.18-.35.14 0 .18.18.18.35v.53c0 .35 0 .7.35.7.42 0 .53-.46.53-.7v-.7c0-.06.03-.18.17-.18.15 0 .18.12.18.18v.7c0 .53-.35 1.06-.88 1.06-.38 0-.7-.31-.7-1.06v-.53Z" fill="#939550"/><path fill-rule="evenodd" d="M6 9.7v1.77c.47.06 1.41.04 1.41-.53 0-.18-.07-.53-.35-.53.06 0 .18-.07.18-.35 0-.35-.36-.53-.71-.53A.8.8 0 0 0 6 9.7Zm.35.18v.53c.18 0 .53-.07.53-.35 0-.18-.35-.24-.53-.18Zm0 1.24c.24 0 .7-.04.7-.18 0-.14-.46-.18-.7-.18v.36Z" fill="#EFD159"/><path d="M7.59 9.88c0-.35 0-.35.17-.35.14 0 .18.18.18.35v.53c0 .35 0 .7.35.7.43 0 .53-.46.53-.7v-.7c0-.06.04-.18.18-.18.14 0 .18.12.18.18v.7c0 .53-.36 1.06-.89 1.06-.38 0-.7-.31-.7-1.06v-.53ZM9.53 11.3V9.52h1.06c.06 0 .18.03.18.18 0 .14-.12.17-.18.17h-.7v.36h.7c.06 0 .18.03.18.17s-.12.18-.18.18h-.7v.7c0 .06-.04.18-.18.18-.14 0-.18-.12-.18-.18ZM10.94 11.3V9.52H12c.06 0 .18.03.18.18 0 .14-.12.17-.18.17h-.7v.36h.7c.06 0 .18.03.18.17s-.12.18-.18.18h-.7v.7c0 .06-.04.18-.18.18-.14 0-.18-.12-.18-.18Z" fill="#EFD159"/><path fill-rule="evenodd" d="M9 14.82A5.82 5.82 0 1 0 9 3.18a5.82 5.82 0 0 0 0 11.64ZM9 15A6 6 0 1 0 9 3a6 6 0 0 0 0 12Z" fill="#846A13"/><path d="M13.92 8.65a4.94 4.94 0 0 0-9.86 0H3.7a5.3 5.3 0 0 1 10.56 0h-.35Z" fill="#EFD159" fill-opacity=".6"/></svg>