<!-- by TradingView --><svg width="18" height="18" viewBox="0 0 18 18" xmlns="http://www.w3.org/2000/svg"><path fill="url(#a1304gpqo)" d="M0 0h18v18H0z"/><path opacity=".7" fill-rule="evenodd" d="M5.65 11.46c.3.25 1.02.97 1.46 1.92.55 1.18 1.2 1.62 1.9 1.62s1.32-.78 1.81-1.62c.5-.85.77-1.18 1.06-1.5.3-.33 1.4-1 2.13-1.36.74-.36.99-1.12.99-1.53 0-.77-.57-1.29-1.34-1.69a6.65 6.65 0 0 1-1.9-1.34 6.27 6.27 0 0 1-1.01-1.65C10.57 3.87 9.95 3 9.01 3s-1.5.87-1.66 1.31c-.19.5-.75 1.6-1.45 2.02l-1.4.83C4 7.38 3 8.04 3 8.99c0 .94 1.07 1.6 1.61 1.8.26.15.84.5 1.04.67Zm.99-4.89a11.93 11.93 0 0 0 0 4.79c.38.08 1.38.24 2.35.24.97 0 1.97-.16 2.35-.24.09-.45.27-1.58.27-2.5 0-.93-.18-1.91-.27-2.29-.44-.06-1.55-.17-2.43-.17-.89 0-1.88.11-2.27.17Z" fill="#E1412C"/><defs><linearGradient id="a1304gpqo" x1="3.35" y1="3.12" x2="21.9" y2="24.43" gradientUnits="userSpaceOnUse"><stop stop-color="#1A1E21"/><stop offset="1" stop-color="#06060A"/></linearGradient></defs></svg>