<!-- by TradingView --><svg width="18" height="18" viewBox="0 0 18 18" xmlns="http://www.w3.org/2000/svg"><path fill="url(#a)" d="M0 0h18v18H0z"/><path fill-rule="evenodd" d="M13.54 5.95a777.98 777.98 0 0 0-4.08-2.29 1.26 1.26 0 0 0-.36-.15c-.2-.03-.33.02-.51.12A1100.78 1100.78 0 0 0 4.4 5.97c-.18.1-.3.2-.37.37-.02.07-.04.2-.04.37a811.36 811.36 0 0 0 0 4.58c0 .17.02.3.04.37.07.18.19.26.37.37a1200.5 1200.5 0 0 0 4.18 2.34c.18.1.32.15.51.12.08-.01.2-.06.36-.15a1117.35 1117.35 0 0 0 4.08-2.28c.16-.1.26-.17.31-.23.13-.15.15-.28.15-.5a1128.55 1128.55 0 0 0 0-4.67c0-.2-.02-.34-.15-.5a1.23 1.23 0 0 0-.31-.21ZM8.21 9A292.07 292.07 0 0 1 6 11.82c-.03.1.04.19.14.19h.66c.21 0 .36-.02.45-.04a.78.78 0 0 0 .39-.27A340.13 340.13 0 0 0 9.01 10l1.47 1.87c.1.14.28.13.46.13H11c.03 0 .05-.02.05-.06 0-.02 0-.04-.02-.05l-1.12-1.42c-.08-.1-.14-.2-.04-.32.07-.07.14-.1.22-.06.04.01.09.06.15.14.8 1.02 1.27 1.6 1.39 1.74.01.02.04.03.09.03.12 0 .29 0 .28-.17 0-.05-.04-.1-.07-.13A3964.05 3964.05 0 0 1 9.8 8.99c1.04-1.33 1.76-2.23 2.16-2.72.05-.06.05-.13.01-.2-.03-.04-.06-.06-.1-.06H11a.84.84 0 0 0-.45.13c-.09.06-.2.17-.33.34A1672.21 1672.21 0 0 1 9 8L7.52 6.13C7.41 5.99 7.2 6 7.04 6H7a.05.05 0 0 0-.04.03.05.05 0 0 0 0 .04 2366.47 2366.47 0 0 1 1.18 1.51c.06.1.06.19-.02.28-.06.07-.13.09-.2.06a.41.41 0 0 1-.15-.13L6.39 6.04C6.35 6 6.29 6 6.2 6h-.04c-.14 0-.22.14-.13.26L8.21 9V9Z" fill="#fff"/><defs><linearGradient id="a" x1="3.35" y1="3.12" x2="21.9" y2="24.43" gradientUnits="userSpaceOnUse"><stop stop-color="#1A1E21"/><stop offset="1" stop-color="#06060A"/></linearGradient></defs></svg>