<!-- by TradingView --><svg width="18" height="18" viewBox="0 0 18 18" xmlns="http://www.w3.org/2000/svg"><path fill="url(#a)" d="M0 0h18v18H0z"/><path d="M14.75 7.31c-.37-.3-.72-.62-1.07-.93a9.83 9.83 0 0 0-2.14-1.45 94.2 94.2 0 0 0-.79-.4c-.02 0-.03 0-.03.03l-.02.23c0-.2 0-.35-.05-.48a.63.63 0 0 0-.15-.24.2.2 0 0 0-.01-.06.08.08 0 0 0-.02-.04 1.54 1.54 0 0 0-.47-.32 3.95 3.95 0 0 0-2.23-.14c-.15.03-.25.11-.37.19-.05.02-.07.06-.07.1a.1.1 0 0 1-.01.06c-.08.13-.07.24.03.35a.07.07 0 0 1 .02.06l-.08.94v-.66a.2.2 0 0 1 0 .06c0 .03-.02.04-.04.05a5.97 5.97 0 0 0-3.47 2.6c-.24.39-.5.84-.77 1.37a6 6 0 0 1 11.74-1.32Z" fill="#FFBC08"/><path d="M10.5 4.07c-.02-.02-.05-.03-.09-.03 0-.06-.04-.1-.1-.12a.1.1 0 0 1-.05-.04c-.05-.07-.13-.1-.23-.1l-.02-.01v-.03a.06.06 0 0 0-.02-.05c-.03-.02-.06-.03-.11-.02h-.06a.26.26 0 0 0-.13-.07 11.34 11.34 0 0 1-.6-.11.28.28 0 0 1-.21.01l-.06.02c-.02.01-.03.03-.02.06 0 .01 0 .03.02.04.1.08.2.07.34-.02a.07.07 0 0 1 .05 0c.04 0 .08.04.12.1v.08c.03.02.06.02.1 0a.34.34 0 0 1 .36.03c.02.01.01.03 0 .03l-.12.05a.27.27 0 0 0-.24.07c-.02.02-.02.03.01.03l.07-.01a.18.18 0 0 1-.04.04.03.03 0 0 0 .02.05c.06 0 .11.01.14.06l.06.03c.07.04.11.06.19.05.17 0 .28.04.34.13l-.34-.04-.32-.14a1.12 1.12 0 0 0-.62.03.39.39 0 0 0-.2-.08V4.1l.06-.08c.02-.03.02-.05-.01-.07h-.04c-.02 0-.04 0-.05.03l-.04.16c0 .02-.02.03-.04.04-.16.05-.3.08-.42.1-.1.03-.21 0-.36-.05-.2-.08-.33-.13-.37-.16-.02-.02-.04-.01-.06 0l-.05.07c-.02.02-.02.04 0 .07.03.02.07.03.12.03-.07.28-.1.55-.1.84 0 .05 0 .1-.03.16l-.08.15a.22.22 0 0 1-.1.02l.12-.2.08-.94a.08.08 0 0 0-.02-.06c-.1-.1-.11-.22-.03-.35a.1.1 0 0 0 .01-.06c0-.04.02-.08.07-.1.12-.08.22-.16.37-.19.35-.06.7-.1 1.05-.1a3.95 3.95 0 0 1 1.18.23c.14.06.3.17.47.33l.02.04a.2.2 0 0 1 0 .06Z" fill="#4A4E57"/><path d="M10.41 4.04c.07.07.11.15.13.23 0 .02.02.04.03.05.05.02.07.07.04.15l-.4-.13c-.05-.1-.16-.13-.33-.13-.08 0-.12-.01-.2-.04a.14.14 0 0 1-.05-.04.16.16 0 0 0-.14-.06.03.03 0 0 1-.02-.03v-.02a.18.18 0 0 0 .04-.04.36.36 0 0 0 .16-.1l.11-.04c.02 0 .03-.02 0-.03a.34.34 0 0 0-.35-.03c-.04.02-.07.02-.1 0v-.09a.31.31 0 0 0-.12-.1.07.07 0 0 0-.05.01c-.13.1-.25.1-.34.02a.06.06 0 0 1-.02-.04c0-.03 0-.05.02-.06l.06-.02c.08.02.14.02.2-.01a11.34 11.34 0 0 0 .6.11c.07.01.1.03.14.06.02.02.04.02.06.01.05 0 .08 0 .1.02a.06.06 0 0 1 .03.05v.03h.02c.1 0 .18.04.23.11a.1.1 0 0 0 .05.04c.06.02.1.06.1.12ZM7.77 3.67c-.03.06-.09.07-.17.03a.04.04 0 0 1 0-.06c.18-.07.34-.1.51-.1v.02l-.01.02-.3.06a.05.05 0 0 0-.03.03Z" fill="#696868"/><path d="M9.67 3.89a.36.36 0 0 1-.16.09.12.12 0 0 1-.07.01c-.03 0-.03-.01-.01-.03a.27.27 0 0 1 .24-.07Z" fill="#2C2C36"/><path d="M10.5 4.07c.08.09.13.17.15.24.04.13.06.29.05.48l-.1.75c0 .02.01.04.03.05.19.1.26.28.23.52a.92.92 0 0 1-.32.47.06.06 0 0 0-.02.05l.08.65c.02.12.1.28.24.47l.04.03a.5.5 0 0 1 .33.26c-.14-.05-.23-.08-.35.03a2.47 2.47 0 0 1-.58.35l-.01-.02c.08-.03.14-.08.16-.15l.35-.28c.06-.03.08-.06.05-.09a1.39 1.39 0 0 1-.32-.59 1.87 1.87 0 0 1-.02-.62c0-.03 0-.04-.03-.05-.04 0-.09.01-.13.04-.09.03-.15.02-.2-.04V6.6c0-.02.01-.02.03-.02l.08.02h.08c.25-.09.41-.27.46-.54.02-.1.01-.19-.03-.26-.1-.17-.27-.2-.48-.1l-.05.01a.74.74 0 0 0-.15-.18l.32.03c.09 0 .13-.03.13-.1v-.08c.06-.3.08-.6.09-.9.03-.08.02-.13-.04-.15a.06.06 0 0 1-.03-.05.43.43 0 0 0-.13-.23c.04 0 .07.01.09.03Z" fill="#644335"/><path d="M9.56 4.16h-.2l-.06.03c-.22.22-.24.45-.3.8 0 .04-.03.1-.07.2a.05.05 0 0 0 0 .06c.03.02.07.04.14.04-.35.03-.67.1-.97.19h-.06a1.09 1.09 0 0 0-.77-.1l.08-.14c.02-.05.03-.1.03-.16 0-.29.03-.56.1-.84 0-.01.01-.02.03-.02h.03c.2.13.38.18.54.16.13 0 .41-.07.86-.19.2-.07.4-.08.62-.03Z" fill="#E1A491"/><path d="m9.56 4.16.32.14-.08.21-.04.55c0 .02 0 .04.02.06a1 1 0 0 1 .15.23c0 .02.02.03.03.04h.05v.05c0 .02 0 .03-.02.04h-.02l-.9-.19c-.07 0-.11-.02-.14-.04a.05.05 0 0 1 0-.06L9 5c.05-.35.07-.58.3-.8a.08.08 0 0 1 .05-.02l.2-.01Z" fill="#FCC491"/><path d="m9.88 4.3.34.04.39.13a6.23 6.23 0 0 1-.09.98c0 .07-.04.1-.13.1a4.58 4.58 0 0 1-.42-.06l.02-.01c.02 0 .02-.02.02-.04V5.4l.03-.04c0-.01 0-.02-.03-.04a.57.57 0 0 1-.2-.3.04.04 0 0 1 .04-.03l.06-.01.02-.02c0-.01 0-.02-.02-.02h-.04l-.03-.01-.01-.03c-.02-.08 0-.14.03-.18v-.05a.46.46 0 0 1-.06-.15l.08-.2Z" fill="#E9E8E0"/><path d="m7.3 5.2-.13.21c-.13.03-.19.11-.18.25l.03.24c-.34.23-.66.48-.97.75a5.78 5.78 0 0 0-1.93 3.3c-.12.58-.2 1.1-.24 1.54-.06.1-.11.23-.14.37a5.93 5.93 0 0 1-.73-3.22c.27-.54.53-1 .77-1.37a5.97 5.97 0 0 1 2.26-2.1 9.1 9.1 0 0 1 1.21-.51c.02 0 .03-.02.04-.05a.2.2 0 0 0 0-.06v.66ZM14.75 7.31a6.1 6.1 0 0 1-.47 4.54c-.03.06-.09.14-.17.23a.14.14 0 0 0-.03.06.25.25 0 0 1-.14.17c-.03-.03-.01-.07.05-.13.04-.04.05-.1.04-.16.04.02.08.01.1-.02.17-.24.27-.48.3-.71.08-.61-.14-1.04-.5-1.5.05-.28 0-.57-.14-.87a5.34 5.34 0 0 0-2.93-2.81c.03-.24-.04-.41-.23-.52a.05.05 0 0 1-.02-.05l.09-.75.02-.23c0-.03.01-.03.03-.02l.8.4c.8.4 1.51.88 2.13 1.44l1.07.93Z" fill="#FFCB0C"/><path d="m9.8 4.51.06.15v.05c-.04.04-.05.1-.03.18l.01.03h.07c.02.01.03.02.02.03l-.01.01-.07.02a.04.04 0 0 0-.03.05c.03.11.1.2.2.28l.02.04-.03.04h-.05l-.03-.04a1 1 0 0 0-.15-.23.08.08 0 0 1-.02-.06l.04-.55ZM8.66 5.1c-.11 0-.22.01-.3.03-.3.07-.54 0-.74-.03l-.01-.01v-.02l.02-.01a1 1 0 0 1 .34.05c.23.06.45-.12.7-.03a.01.01 0 0 1 0 .01Z" fill="#696868"/><path d="M9.97 5.49c.03 0 .06 0 .1.03.06.05.11.12.15.18l-.14.17c-.02.02-.03.02-.04 0a.17.17 0 0 1-.02-.1.09.09 0 0 0-.07-.09.82.82 0 0 0-.3-.02c-.02 0-.03.01-.03.04-.02.17-.08.34-.18.5a.65.65 0 0 1-.3.11h-.37l-.14-.05a.05.05 0 0 0-.05.01.05.05 0 0 0-.01.05c.03.1 0 .16-.1.19l-.18.06c-.2.07-.53.12-.56-.18a.05.05 0 0 0-.04-.04.6.6 0 0 0-.25 0h-.06c-.21-.05-.33-.2-.36-.45l-.03-.24c0-.14.05-.22.18-.25.04 0 .07 0 .1-.02.28-.07.53-.04.77.08h.06c.3-.09.62-.15.97-.18l.9.2Z" fill="#18171E"/><path d="m8.9 5.47.52.52c0 .08-.06.14-.18.2-.09.03-.15.03-.18 0l-.58-.61c-.05-.05-.05-.08 0-.08.16 0 .25-.1.43-.03Z" fill="#4A4E57"/><path d="m9.42 6-.51-.53.44.07a.08.08 0 0 1 .07.08V6Z" fill="#2C2C36"/><path d="M7.92 5.85c-.01.13-.06.26-.13.39l-.65-.63c-.02-.02-.01-.03.02-.04l.27-.08c.05-.02.1 0 .14.05.1.15.22.25.35.3Z" fill="#696868"/><path d="M10.24 6.6c.02-.07.05-.1.08-.11.19-.08.3-.23.34-.44.04-.17-.03-.26-.18-.27a.66.66 0 0 1-.21-.1c.21-.1.37-.06.48.11.04.07.05.16.03.26a.69.69 0 0 1-.46.54h-.08Z" fill="#FEE1C7"/><path d="m10.22 5.7.05-.02c.07.05.14.08.2.1-.17.04-.27.17-.3.37 0 .03.01.04.04.03l.1-.03a.1.1 0 0 1 .1.16.35.35 0 0 0-.09.18c-.03 0-.06.04-.08.1l-.08-.02c-.02 0-.03 0-.03.02v.03c.05.06.11.07.2.04l.03.37c.03.37.17.68.42.94l-.35.28-.3.14c-.04-.02-.02-.07.04-.15v-.02a.04.04 0 0 0-.02-.02h-.02a.57.57 0 0 0-.24.28.41.41 0 0 1-.24.1c.2-.45.4-.87.44-1.37.03-.14.03-.3 0-.44h-.02a.02.02 0 0 0-.02 0 .02.02 0 0 0 0 .02c0 .1 0 .23-.03.36a.4.4 0 0 1-.18.26c-.15.1-.3.17-.47.21a.15.15 0 0 0-.05.03l-.24.2c-.16 0-.33.04-.47.02-.21-.04-.5-.22-.49-.47.06-.03.01-.06-.14-.08l.09-.17c.23 0 .46-.02.7-.05.15-.03.3-.11.46-.12.02 0 .03-.02.02-.04-.02-.04-.07-.07-.13-.08-.02 0-.04.01-.04.03-.01.05-.05.08-.12.1-.25.06-.48.1-.67.1v-.52l.19-.06c.1-.03.12-.1.09-.2a.05.05 0 0 1 .01-.04.05.05 0 0 1 .05 0l.14.05c.18.13.38.23.6.3.18.07.3-.15.39-.28a.04.04 0 0 0 0-.05.04.04 0 0 0-.04-.02c-.17.02-.26 0-.28-.08.1-.15.16-.32.18-.5 0-.02.01-.03.03-.03.11-.01.21 0 .3.02.02 0 .04.02.05.04l.02.06c0 .03 0 .06.02.09 0 .02.02.02.04 0l.14-.17Z" fill="#FCC491"/><path d="m8.3 5.93-.3.45a.06.06 0 0 0-.01.06c.03.07.1.1.21.07-.22.11-.51.03-.41-.27.07-.13.12-.26.13-.4.17-.15.3-.12.38.09Z" fill="#E1A491"/><path d="M10.48 5.78c.15.01.22.1.18.27a.57.57 0 0 1-.34.44c0-.05.04-.11.1-.18a.1.1 0 0 0-.11-.16l-.1.03c-.03 0-.04 0-.03-.03.02-.2.12-.33.3-.37Z" fill="#644335"/><path d="M7.02 5.9c.03.25.15.4.36.45l.03.44v.05l-.07.17a.07.07 0 0 0 0 .07c.06.08.1.12.07.21-.05.18-.15.35.04.53.13.13.29.2.47.18.04.26 0 .44-.12.53-.25.16-.47.39-.74.49a.58.58 0 0 1-.3 0c-.9-.2-1.88.38-2.01 1.33a51.8 51.8 0 0 0-.07.34l-.36.25c-.19.14-.33.32-.44.55.04-.45.12-.96.24-1.55a5.78 5.78 0 0 1 1.93-3.3c.3-.26.63-.5.97-.74Z" fill="#FED60E"/><path d="m8.3 5.93.21.31a.14.14 0 0 1-.02.18.13.13 0 0 1-.05.03l-.24.06c-.1.02-.18 0-.21-.07v-.06l.3-.45Z" fill="#FCC491"/><path d="m13.94 9.78-.36-.32c-.15-.12-.32-.3-.52-.4a2.06 2.06 0 0 0-.48-.16c-.2-.04-.4-.28-.6-.4l-.77-.46a.5.5 0 0 0-.33-.26.08.08 0 0 1-.04-.03c-.15-.19-.22-.35-.24-.47l-.08-.65c0-.02 0-.04.02-.05a.92.92 0 0 0 .32-.47 5.34 5.34 0 0 1 2.93 2.8c.14.3.2.6.15.87Z" fill="#FED60E"/><path d="M9.44 6.2c.02.06.11.09.28.07a.04.04 0 0 1 .04.02.04.04 0 0 1 0 .05c-.08.13-.2.35-.4.28a2.22 2.22 0 0 1-.59-.3h.36a.65.65 0 0 0 .3-.13Z" fill="#E1A491"/><path d="m7.44 6.35.06.41v.03l-.07.18v.06l.07.12v.06c-.06.28-.2.52.16.68.08.04.14.05.18.04.1-.02.23 0 .41.07.25.08.6.05.83-.16l.24-.2a.15.15 0 0 1 .06-.02c.16-.04.31-.11.46-.21a.4.4 0 0 0 .18-.26 1.51 1.51 0 0 0 .03-.38.02.02 0 0 1 .02 0h.02c.03.15.03.3 0 .44-.15.36-.58.4-.86.62-.18.15-.33.25-.55.28-.09.01-.2 0-.36-.04a4.29 4.29 0 0 0-.4-.07.6.6 0 0 1-.47-.18c-.19-.18-.1-.35-.04-.53.03-.1 0-.13-.07-.21a.07.07 0 0 1 0-.07l.06-.17.01-.05-.03-.44h.06Z" fill="#644335"/><path d="M8.29 6.57v.52a1.93 1.93 0 0 1-.77-.07l-.03.03c-.01.02 0 .02.01.03l.57.07-.09.17-.17-.03H7.8v.04l.33.07c-.01.25.28.43.49.47.14.02.3-.02.47-.03a.87.87 0 0 1-.83.16.84.84 0 0 0-.41-.07c-.04.01-.1 0-.18-.04-.35-.16-.22-.4-.15-.68l-.01-.06-.07-.12a.07.07 0 0 1 0-.06l.07-.18v-.03l-.06-.4a.6.6 0 0 1 .25-.01.05.05 0 0 1 .04.04c.03.3.36.25.56.18Z" fill="#E1A491"/><path d="M9.36 7.11c.1-.22-.13-.41-.33-.42C9 6.69 9 6.68 9 6.66l.02-.02.01-.01c.24.01.53.23.4.5a.03.03 0 0 1-.03.01.03.03 0 0 1-.02 0l-.02-.01a.01.01 0 0 1 0-.02Z" fill="#696868"/><path d="M10.78 7.97c-.25-.26-.4-.57-.42-.94l-.03-.37a.21.21 0 0 1 .13-.04c.02 0 .04.02.03.05-.02.27-.02.48.02.62.06.23.17.43.32.6.03.02.01.05-.05.08Z" fill="#E9E8E0"/><path d="m8.07 7.15-.57-.07c-.02 0-.02-.01 0-.03l.02-.03h.02c.25.07.5.1.75.07.2 0 .42-.04.67-.1.07-.02.1-.05.12-.1 0-.02.02-.03.04-.03.06.01.1.04.13.08.01.02 0 .04-.02.04-.15.01-.3.1-.47.12-.23.03-.46.05-.7.05Z" fill="#644335"/><path d="M10.1 7.21c-.05.5-.25.92-.45 1.37-.06.04-.15.07-.25.1-.42.11-.84.14-1.26.1-.1-.01-.17-.05-.26-.08a.12.12 0 0 1-.07-.06c.04-.03.05-.05.05-.08 0-.02-.02-.03-.06-.03.12-.1.16-.27.12-.53l.4.07c.15.04.27.05.36.04.22-.03.37-.13.55-.28.28-.22.71-.26.86-.62Z" fill="#E1A491"/><path d="m11.21 8.04.77.47c.2.11.4.35.6.39.16.03.32.08.48.16.2.1.37.28.52.4.14.11.26.22.36.32.35.47.57.9.49 1.5-.06-.03-.08-.13-.06-.32a2.1 2.1 0 0 0-1.58-1.79c.01-.02 0-.05-.01-.09l.3.1v-.02h.01a.02.02 0 0 0-.01-.03 8.43 8.43 0 0 0-.4-.13c-.03-.01-.05 0-.06.02l-.09.02a6.17 6.17 0 0 0-1.46-.95l.04.12c0 .03 0 .04-.02.06l-.08.08c.03-.08.04-.13.03-.17a.05.05 0 0 0-.04-.04.05.05 0 0 0-.05.02c-.11.15-.26.27-.44.35-.32.15-.64.28-.95.4a.35.35 0 0 0-.09-.14.06.06 0 0 0-.05-.01c-.46.1-.93.12-1.4.06-.1-.02-.15-.06-.14-.12.09.03.17.07.26.08.42.04.84.01 1.26-.1.1-.03.19-.06.25-.1.1-.01.19-.05.24-.1.11-.01.2-.04.24-.09l.3-.14c-.02.07-.08.12-.16.15v.02a.01.01 0 0 0 .02 0c.2-.09.4-.2.57-.35.12-.1.21-.08.35-.03Z" fill="#2C2C36"/><path d="m11.07 8.09.07.08.05.04a7.96 7.96 0 0 1 1.1.78c-.15.01-.29.05-.41.12h-.25c-.21 0-.37.05-.55.1-.03 0-.05 0-.07-.02l-.06-.03a.09.09 0 0 0-.06 0l-.3.04h-.03l-.46-.26a.03.03 0 0 1-.02-.04l.02-.01.91-.54.08-.08a.05.05 0 0 0 .02-.06l-.04-.12Z" fill="#2D363D"/><path d="M11.16 8.12a6.14 6.14 0 0 1 1.37.92l-.65.07c.12-.07.26-.1.41-.12.02 0 .03 0 .01-.02a7.96 7.96 0 0 0-1.16-.8c0-.02 0-.04.02-.05Z" fill="#E9E8E0"/><path d="m11.01 8.35-.91.54a.03.03 0 0 0-.02.02v.02l.02.01.46.25h.04l.3-.04.05.01.06.03c.02.01.04.02.07.01.18-.04.34-.08.55-.09h.25l.65-.07.1-.02c.04.03.1.05.15.06.02.04.02.07.01.1a1.4 1.4 0 0 0-.6-.03l-.04.36c0 .02 0 .04-.02.05-.23.34-.32.75-.03 1.07l.02.02a.05.05 0 0 1-.02.06h-.03l-.1.01c-.06 0-.06.02 0 .05.68.28 1.13.47 1.67.83a.08.08 0 0 0 .08 0l.2-.11h.03a.04.04 0 0 1 .03.03l.03.42c0 .01.01.02.03.01h.03a.02.02 0 0 1 0 .03c0 .02-.02.04-.04.04.01.07 0 .12-.04.16-.06.06-.08.1-.06.13 0 .08-.02.12-.08.15-.1-.24-.28-.44-.54-.6-.2-.11-.43-.22-.71-.3l-.1-.05-.73-.51a1.29 1.29 0 0 0-1.65.5.05.05 0 0 0 .02.04h.02c.13.03.31.07.55.15.14.04.29.14.45.29.2.18.43.36.45.51.02.06-.01.04-.08-.04a2.02 2.02 0 0 0-1.93-.84l-.19.06-.5-.11a19.9 19.9 0 0 1-1.37-.28.47.47 0 0 0-.3 0 .99.99 0 0 0-.31.23l-.23.37a.05.05 0 0 0 .02.07h.02a3.1 3.1 0 0 1 1.8.73 2 2 0 0 0-.1.86l.06.15.07.16c0 .02.02.04.04.05l.25.11a.02.02 0 0 1 .01.02v.02h-.03l-.2-.05c-.03-.01-.03 0 0 .02.16.11.32.2.5.27.44.15.88.24 1.33.25.23 0 .54-.07.83-.04 0 .04-.03.07-.1.08-.08-.01-.13 0-.14.05a6 6 0 0 1-4.2-.02c-.05-.01-.07-.04-.06-.07l-.19-.5c-.15 0-.29.02-.4.07a.08.08 0 0 1-.1-.03l-.01-.04v-.29c0-.01 0-.02-.03-.02a.77.77 0 0 0-.5.2c0-.02-.02-.03-.03-.03.17-.1.36-.19.56-.24a2.65 2.65 0 0 0 .71-.15.02.02 0 0 0 0-.02c-.23-.21-.36-.47-.42-.77a.06.06 0 0 0-.04-.05.13.13 0 0 0-.12.01.06.06 0 0 0-.03.05l-.1.72c0-.1-.02-.15-.08-.14-.3.01-.58 0-.83-.01v-.04l.88.01a.02.02 0 0 0 .02-.01l.01-.61.02-.09.2-.3-.01-.06-.61-.47c-.02-.05-.03-.1 0-.13.07-.2.17-.35.3-.47a.08.08 0 0 0 0-.12c-.31-.28-.76-.44-1.1-.09a.1.1 0 0 1-.05.03.1.1 0 0 1-.07-.01.1.1 0 0 0-.06-.02h-.1a.37.37 0 0 0-.24.05.14.14 0 0 0-.06-.03l.36-.25a52.83 52.83 0 0 1 .07-.34c.13-.95 1.11-1.52 2-1.33.14.03.24.03.31 0 .27-.1.49-.33.74-.49.04 0 .06.01.06.03 0 .03-.01.05-.05.08a.32.32 0 0 0-.1.06l-.51.37.01.02a.02.02 0 0 0 .03 0l.5-.3c-.06.17.07.27.38.3.49.03.87-.06 1.44-.19.3-.11.63-.24.95-.39.18-.08.33-.2.44-.35a.05.05 0 0 1 .05-.02.05.05 0 0 1 .04.04c.01.04 0 .1-.03.17Z" fill="#18171E"/><path d="M10.13 8.4a.48.48 0 0 1-.24.08.57.57 0 0 1 .25-.28c.02 0 .03 0 .03.02v.02c-.06.08-.08.13-.04.15Z" fill="#E1A491"/><path d="M7.81 8.64c.02.03.04.05.07.06-.01.06.03.1.14.12.47.06.94.04 1.4-.07.02 0 .03 0 .05.02l.09.13c-.57.13-.95.22-1.44.18-.31-.02-.44-.12-.38-.3l-.02-.08a.32.32 0 0 1 .1-.06Z" fill="#696868"/><path d="m7.72 8.7.02.08-.5.3a.02.02 0 0 1-.03 0H7.2v-.01l.52-.37Z" fill="#E1A491"/><path d="M12.78 9.08a.5.5 0 0 1-.16-.06c.01-.02.03-.03.06-.02a8.44 8.44 0 0 1 .41.15v.01l-.01.02-.3-.1ZM5.2 9.58a1.75 1.75 0 0 1 1.69-.45v.03a1.7 1.7 0 0 0-1.57.44c-.26.24-.34.52-.46.9a.03.03 0 0 1-.02.02h-.02l-.02-.03v-.02c.08-.34.18-.68.4-.9Z" fill="#E9E8E0"/><path d="M12.18 9.15c.26.03.51.08.75.17.25.1.46.23.64.4.4.4.63.89.65 1.49a1.77 1.77 0 0 1-.18.73h.02l-.02.01c-.02.01-.03 0-.03-.01l-.02-.42a.04.04 0 0 0-.03-.03.04.04 0 0 0-.03 0l-.2.12a.08.08 0 0 1-.09 0c-.54-.37-.99-.56-1.67-.84-.06-.03-.06-.04 0-.05h.1a.05.05 0 0 0 .05-.04.05.05 0 0 0-.01-.05c-.3-.32-.2-.73.02-1.07a.13.13 0 0 0 .02-.05l.03-.36Z" fill="#2C2C36"/><path d="M9.52 9.36a1 1 0 0 0-.5-.13V9.2c.38-.02.7-.02.98.17h.01a.02.02 0 0 1 0 .03H10l-.26.05c-.03 0-.1-.03-.22-.1Z" fill="#2D363D"/><path d="m10.68 10.07.17.6c.02.05 0 .09-.05.11-.18.09-.36.2-.55.34a.93.93 0 0 1-.67.24c-.47-.01-.96-.11-1.29-.43a.1.1 0 0 1-.03-.06 1.69 1.69 0 0 1 .32-1.27l-.01-.02a.04.04 0 0 0-.04-.02.05.05 0 0 0-.03.02c-.18.24-.26.4-.42.67-.28.47-.7.72-1.26.53-.2-.07-.32-.22-.33-.46-.05-.65.62-.8 1.1-.88.14-.02.35-.02.63.01.65.07 1.3.07 1.93.02.36-.03.55.2.8.45.03.01.03.04.02.06l-.06.1a.05.05 0 0 1-.06.02l-.14-.06c-.02 0-.03 0-.03.03Z" fill="#2D363D"/><path d="M5.7 11.6a.83.83 0 0 0-.64-.12c-.3.07-.56.2-.81.42-.07 0-.09-.03-.07-.07.09-.25.24-.56.43-.9l.11-.01a.1.1 0 0 1 .06.02.1.1 0 0 0 .07.01.1.1 0 0 0 .06-.03c.33-.35.78-.19 1.1.1a.08.08 0 0 1 .01.08c0 .01 0 .02-.02.03-.13.12-.23.27-.3.47Z" fill="#FCC491"/><path d="M11.77 11c-.2.39-.17.95-.11 1.37 0 .03.01.03.03.02.02 0 .03-.02.05-.03-.02.05-.02.09 0 .12l.02.01a.03.03 0 0 0 .03 0v-.02c.07-.32.33-.46.6-.58a.29.29 0 0 0 .15-.13.59.59 0 0 0 .06-.2c.28.08.51.19.7.3l-.23.4c-.16.3-.43.47-.64.65a.08.08 0 0 0-.03.05c-.05.47-.24.77-.57.92l.1-.3-.01-.03h-.05v.01a.28.28 0 0 1-.08.16c.04-.14.13-.38 0-.5a.58.58 0 0 0 .13-.52c0-.02 0-.02-.02-.01l-.03.02-.01.02c.05.24-.01.42-.19.52-.1.07-.12.05-.05-.06.06-.09.1-.18.12-.29l-.01-.03h-.02c-.02-.02-.04-.01-.05 0l-.16.4c-.1.1-.25.1-.4.16a.77.77 0 0 1-.73-.1c-.17-.11-.26-.41-.37-.6-.05-.08-.06-.07-.05 0 .03.14.08.28.18.43.26.41.66.5 1.2.27l-.42.67a.02.02 0 0 0 0 .02v.01h.02c.25.01.47-.05.66-.17l.04.18v.04h.04c0 .1-.08.16-.22.18-.29.04-.59.09-.86.1-.48 0-.96-.09-1.42-.24-.12-.05-.22-.1-.33-.17h.02a.02.02 0 0 0 .01-.02.02.02 0 0 0 0-.02l-.26-.1a.1.1 0 0 1-.04-.06l-.06-.16v-.05a.05.05 0 0 1 .04-.02.06.06 0 0 1 .04 0l.31.26h.04v-.03l-.4-.31c-.08-.07-.1-.14-.04-.22a.09.09 0 0 1 .12-.03l.32.17c.25.12.54.18.85.16h.01v-.04c-.5.02-.8-.16-1.26-.38-.02-.01-.03-.03-.01-.06v-.02c.02-.02.03-.02.05-.01a2.34 2.34 0 0 0 1.31.27l.01-.01v-.01c-.2-.01-.43.01-.62-.04a3.5 3.5 0 0 1-.74-.3.09.09 0 0 1 0-.06l.05-.3c.2.18.46.29.8.33.2.03.33-.02.37-.13a.3.3 0 0 0 .13 0c.03 0 .03 0 0-.01l-1.07-.47-.08-.02.1-.16c.19-.2.3-.37.57-.53l.19-.06c.12.14.26.22.35.38.35.54.6 1.01 1.32 1.1a.08.08 0 0 0 .08-.03c.1-.17.19-.23.08-.44.05.04.1.09.13.14.02.02.04.03.06.01l.02-.01c.02-.01.03-.03.03-.05l-.06-.22c-.02-.15-.25-.33-.45-.5a1.29 1.29 0 0 0-.45-.3 3.77 3.77 0 0 0-.57-.15.05.05 0 0 1-.02-.06 1.29 1.29 0 0 1 1.65-.48ZM4.61 10.93c-.2.34-.34.65-.43.9-.02.04 0 .06.06.07a.45.45 0 0 0-.15.22v.24c0 .03 0 .04-.03.02l-.03-.02a.96.96 0 0 1-.22-.4 2 2 0 0 1 .57-1 .37.37 0 0 1 .23-.03Z" fill="#E1A491"/><path d="m4.32 10.94.06.03a2 2 0 0 0-.57.98l-.07-.1c.03-.13.08-.25.14-.36.1-.23.25-.41.44-.55ZM14.43 11.29c-.03.23-.13.47-.3.71-.02.03-.06.04-.1.02.02 0 .04-.02.05-.04a.02.02 0 0 0 0-.02l-.02-.02c.2-.26.31-.59.3-.98-.01.19 0 .3.07.33Z" fill="#644335"/><path d="m11.77 11 .72.51c.06.17 0 .29-.18.36-.08.03-.1 0-.06-.07a.55.55 0 0 0 .03-.24.04.04 0 0 0-.04-.03h-.03l-.01.05c-.01.12-.03.26-.12.36-.14.15-.24.22-.34.42a.15.15 0 0 1-.05.03c-.02.01-.03 0-.03-.02-.06-.42-.09-.98.1-1.37Z" fill="#FCC491"/><path d="M6.8 11.53c-.1.13-.25.06-.42 0a.9.9 0 0 1 .46-.38c.11-.04.26 0 .37.02.09.02.1.04 0 .07a.98.98 0 0 0-.4.3Z" fill="#2D363D"/><path d="m6.17 11.53-.15.04a.07.07 0 0 1-.08-.09c.07-.24.25-.33.53-.26.03 0 .04.02.01.04l-.2.2a.24.24 0 0 1-.1.07Z" fill="#2C2C36"/><path d="M8.92 11.56c-.49.06-.96-.06-1.45-.05h-.54c.1-.1.2-.17.32-.22a.47.47 0 0 1 .29 0c.46.1.92.2 1.38.27Z" fill="#2D363D"/><path d="M5.7 11.6c-.03.03-.02.08 0 .13-.45-.25-.84-.23-1.17.06-.15.06-.29.18-.44.37v-.04a.45.45 0 0 1 .16-.22c.25-.21.52-.35.81-.42.2-.05.42 0 .63.12Z" fill="#644335"/><path d="M6.93 11.51h.54c.49-.01.96.11 1.45.05l.49.1c-.27.17-.38.33-.57.54a.74.74 0 0 0-.3.48 3.1 3.1 0 0 0-1.82-.73.05.05 0 0 1-.02-.07l.23-.37Z" fill="#2C2C36"/><path d="m12.5 11.51.1.04a.6.6 0 0 1-.06.2.29.29 0 0 1-.14.14c-.28.12-.54.26-.6.58a.03.03 0 0 1-.03.02.03.03 0 0 1-.02-.01c-.03-.03-.03-.07-.01-.12.1-.2.2-.27.34-.42.1-.1.1-.24.12-.36l.01-.05h.06v.03c.01.11 0 .2-.02.24-.04.07-.02.1.06.07.18-.07.24-.19.18-.36Z" fill="#696868"/><path d="m5.7 11.73.6.47c.02.02.03.03.02.05l-.2.31h-.95v.04l.02.01.91.04-.01.6a.02.02 0 0 1 0 .01h-.01l-.01.01H5.2l-.27-.12a.17.17 0 0 0-.14 0c-.07-.05-.12-.05-.16-.02l-.6-.77.03.02c.02.02.03.01.03-.02v-.24.04c.19.02.37.02.54 0 .23-.03.38-.04.47-.04a18.05 18.05 0 0 0 .75 0 .04.04 0 0 0 0-.04c-.08-.12-.2-.23-.33-.31a.59.59 0 0 0-.35-.07c-.2.01-.42.04-.64.09.33-.3.72-.31 1.17-.06ZM11.53 12.45v.11c-.01.03-.03.03-.04 0-.08-.1-.17-.2-.27-.24-.04 0-.04 0-.02.03l.23.27c.1.21.01.27-.08.44a.08.08 0 0 1-.08.03c-.72-.09-.97-.56-1.32-1.1-.1-.16-.23-.24-.35-.38.81-.08 1.45.2 1.93.84Z" fill="#FCC491"/><path d="M4.1 12.16c.14-.19.28-.31.43-.37.22-.05.44-.08.64-.1.15 0 .27.02.35.08.14.08.25.19.33.3a.04.04 0 0 1-.04.08c-.24 0-.47-.02-.71-.03-.09 0-.24.01-.47.04-.17.02-.35.02-.54 0Z" fill="#FEE1C7"/><path d="M13.3 11.86c.27.16.45.36.55.6-.07.18-.18.33-.35.46l-.43.13c-.1.03-.28.11-.36.2-.09.11-.08.17.04.17l-.2.27c-.01.01-.02.06-.01.13-.33.26-.69.47-1.07.64 0-.03 0-.06-.02-.1.14-.02.21-.08.22-.19.1-.05.21-.07.33-.05v-.03a.78.78 0 0 1-.3-.1c0-.06.04-.1.13-.1.33-.16.52-.46.57-.93 0-.02.02-.04.03-.05.2-.18.48-.35.64-.64.07-.14.15-.28.24-.4Z" fill="#FCC491"/><path d="m8.84 12.2-.1.16-.15.3-.05.3a.09.09 0 0 0 .04.1c.22.1.46.2.7.26.19.05.41.03.62.03v.03h-.01c-.48.05-.88-.06-1.3-.27-.03-.01-.04 0-.05.01l-.01.02c-.02.03-.01.05.01.06.46.22.76.4 1.25.38.01 0 .02 0 .01.01v.02l-.01.01c-.31.02-.6-.04-.85-.16a11.8 11.8 0 0 1-.39-.18.09.09 0 0 0-.05.04c-.05.08-.04.15.05.22a26.27 26.27 0 0 1 .39.33l-.02.01H8.9l-.3-.25-.03-.01a.06.06 0 0 0-.04 0l-.02.02v.05a.7.7 0 0 1-.07-.15 2 2 0 0 1 .1-.86.74.74 0 0 1 .3-.48Z" fill="#644335"/><path d="M11.53 12.45c.07.08.1.1.08.04l.06.22c0 .02 0 .04-.03.05l-.02.01c-.02.02-.04.01-.05 0a.55.55 0 0 0-.14-.15l-.23-.27c-.02-.03-.02-.04.02-.03.1.04.2.15.27.24.01.03.03.03.04 0v-.11Z" fill="#696868"/><path d="m4.82 12.58.43-.22c.1-.01.19 0 .27.01.02.01.02.02 0 .02l-.7.19Z" fill="#644335"/><path d="m8.74 12.36.08.02a1 1 0 0 0 .35.22c.22.08.41.17.59.26-.04.11-.16.16-.37.13-.34-.04-.6-.15-.8-.32l.15-.31Z" fill="#FCC491"/><path d="M9.76 12.86c-.18-.1-.37-.18-.59-.26a1 1 0 0 1-.35-.22l1.08.47c.02 0 .02.01 0 .02a.3.3 0 0 1-.14 0Z" fill="#644335"/><path d="m6.12 12.56-.02.09-.9-.04h-.02l-.01-.01v-.02a.01.01 0 0 1 0-.01l.95-.01Z" fill="#E1A491"/><path d="M6.1 13.66v-.21l.1-.72c0-.02.01-.04.03-.05a.13.13 0 0 1 .12-.01.06.06 0 0 1 .04.05 1.35 1.35 0 0 0 .42.78v.02h-.02c-.22.08-.45.13-.7.14Z" fill="#2C2C36"/><path d="M11.5 13.26c.02 0 .03 0 .03.02a.1.1 0 0 1-.01.05l-.19.1c-.54.23-.94.14-1.2-.27-.1-.15-.15-.29-.18-.42-.01-.09 0-.09.05-.02.1.2.2.5.37.61.23.16.47.19.73.1.15-.05.3-.07.4-.17Z" fill="#644335"/><path d="M11.8 13.22c-.1.08-.2.11-.28.11a.1.1 0 0 0 0-.05c0-.01 0-.02-.02-.02l.16-.38c.01-.02.03-.03.05-.02l.02.01.01.03a.8.8 0 0 1-.12.3c-.07.1-.05.12.05.05.18-.1.24-.28.19-.52v-.02l.04-.02h.02c.05.2 0 .38-.12.53Z" fill="#696868"/><path d="M4.79 13.14c.12.08.26.13.4.16.25.02.52.02.83 0 .06 0 .09.05.08.15v.21c-.2.05-.39.13-.56.24a5.96 5.96 0 0 1-.9-.77c.03-.03.08-.03.15.01Z" fill="#E1A491"/><path d="M5.2 13.26v.04a1.12 1.12 0 0 1-.41-.16c.04-.02.1-.02.14 0l.27.12Z" fill="#696868"/><path d="M11.8 13.22c.12.12.03.36 0 .5-.07.12-.17.17-.31.14h-.01l-.01.02v.02c.05 0 .1.02.12.06a1.12 1.12 0 0 1-.67.17h-.01a.02.02 0 0 1 0-.03l.42-.67.19-.1c.09 0 .18-.03.28-.1Z" fill="#FCC491"/><path d="M12.54 13.82v-.13c.11-.05.2-.13.27-.23a.35.35 0 0 1 .13-.14.66.66 0 0 1 .18-.06.13.13 0 0 1 .07-.01c.03 0 .03.01.01.03l-.66.54Z" fill="#E1A491"/><path d="M11.83 13.88c-.1 0-.14.05-.12.12-.03 0-.06.05-.08.14l-.04-.18a.19.19 0 0 0-.11-.06c-.01 0-.02-.01-.01-.02v-.02h.02c.14.03.24-.02.3-.14.04-.04.06-.09.07-.16a.02.02 0 0 1 .03-.02l.03.01v.04l-.09.3Z" fill="#696868"/><path d="M6.61 14.04c-.07 0-.11.01-.13.04l-.45.13-.45-.27c.14-.13.31-.2.5-.21.01 0 .02 0 .02.02v.3a.08.08 0 0 0 .1.06c.12-.05.26-.07.41-.07Z" fill="#E1A491"/><path d="M8.84 14.05c.1.06.21.12.33.17.46.15.94.23 1.42.23.27 0 .57-.05.86-.09.02.04.02.07.02.1a.23.23 0 0 1-.17.04c-.28-.03-.6.04-.83.04-.45-.01-.89-.1-1.33-.25a1.94 1.94 0 0 1-.5-.27c-.03-.03-.03-.03 0-.02l.2.05Z" fill="#E9E8E0"/><path d="M11.7 14c.1.05.2.08.3.09v.03a.54.54 0 0 0-.33.05c-.01.02-.03.02-.04.01v-.04c.02-.1.05-.14.08-.14ZM6.48 14.08l.19.4c-.04.01-.06 0-.08-.03l-.13-.23c0-.02-.02-.03-.05-.03l-.28.06-.1-.04.45-.13Z" fill="#18171E"/><path d="M6.59 14.45c0 .02-.01.03-.03.02-.15-.04-.3-.12-.43-.22l.28-.06c.03 0 .04 0 .05.03l.13.23Z" fill="#FED60E"/><path fill-rule="evenodd" d="M9 14.82A5.82 5.82 0 1 0 9 3.18a5.82 5.82 0 0 0 0 11.64ZM9 15A6 6 0 1 0 9 3a6 6 0 0 0 0 12Z" fill="#18171E"/><defs><linearGradient id="a" x1="9" y1="0" x2="9" y2="18" gradientUnits="userSpaceOnUse"><stop stop-color="#FFBC08"/><stop offset="1" stop-color="#FED60E"/></linearGradient></defs></svg>