<!-- by TradingView --><svg width="18" height="18" viewBox="0 0 18 18" xmlns="http://www.w3.org/2000/svg"><path fill="#F0F3FA" d="M0 0h18v18H0z"/><path d="m13.66 6.1-.36.53c-.05.08-.13.16-.2.25a25.64 25.64 0 0 1-1.13 1.58l-.62.84-2.04 2.8h-.02c-.04.02-.06.01-.06-.01v-.15c-.05 0-.1.03-.13.06l-.16.15c-.02.03-.02.05.01.06 0 .12-.01.17-.05.15a.32.32 0 0 0-.07-.1c0-.02-.02-.02-.03-.02a.5.5 0 0 1-.13-.01 119.54 119.54 0 0 1-2.85-1.45l-.17-.08-.12-.07A12.26 12.26 0 0 1 4.44 10c0-.03-.01-.05-.04-.05h-.02l-.01.06v.01h-.04L4.32 10v-.25a.67.67 0 0 1 .13-.33l.28-.35.43-.52 3.41-4.22c.09-.1.18-.19.28-.26C8.98 4 9.14 4 9.3 4c.05 0 .11.02.2.06l1.18.49 2.29.93c.2.08.34.16.41.22.12.1.22.23.29.4Z" fill="#231C12"/><path d="M13.93 6.57c.07.05.09.1.06.14l-.06.12v.04c.05.21-.03.44-.08.61-.03.1-.07.2-.12.27a22.66 22.66 0 0 1-.95 1.34l-.13.22-.4.64-.29.41c-.13.21-.27.4-.42.6-.1.11-.2.26-.31.45-.22.34-.45.69-.7 1.04-.1.14-.18.3-.28.45a.32.32 0 0 1-.11-.32c.02-.16.04-.3.04-.42a884.28 884.28 0 0 1 2.7-3.84c.08-.1.14-.23.22-.31a.54.54 0 0 0 .08-.12l.08-.12c.05-.05.1-.1.13-.17a8.67 8.67 0 0 0 .19-.28 4.71 4.71 0 0 0 .28-.4h-.02a123.51 123.51 0 0 0-.9 1.24 171.73 171.73 0 0 1-1.81 2.55 107.32 107.32 0 0 1-1.72 2.37.68.68 0 0 1-.5.26l-.27-.05a.29.29 0 0 1-.1-.04l-.2-.1-.84-.45-.49-.26a54.4 54.4 0 0 1-1.36-.72 26.36 26.36 0 0 1-1.36-.73.38.38 0 0 1-.18-.23v-.04a.02.02 0 0 1 .02-.02.02.02 0 0 1 .02.01c.06.1.14.17.24.23.36.18.67.35.94.5.17.1.4.2.56.3l.32.15.19.1 1.05.56c.21.12.39.17.6.3l.32.19c.08.04.2.13.31.18 0 .05.03.07.08.05.08-.03.13-.04.18-.02.03.01.05.01.08-.02v-.05a.07.07 0 0 1-.01-.04l-.1-.78c.03.02.04-.03.04-.15a6.94 6.94 0 0 0 .14.78v.16c0 .04.02.06.06.05.02 0 .04-.01.05-.03v-.05a29.73 29.73 0 0 1-.12-.84l.1-.17a.16.16 0 0 0 .04-.08v-.09c.01.06.02.1.01.15 0 .02.02.03.06.01l-.03.04c-.09.06-.12.13-.1.2l.04.12a2.28 2.28 0 0 1 .09.59.04.04 0 0 0 .02.03h.02l.02-.02.2-.24 2.16-3.06c.16-.23.33-.46.48-.7l.41-.57.42-.58.09-.14a11.7 11.7 0 0 0 .56-.78c.1-.13.18-.27.26-.42Z" fill="#412212"/><path d="M10.18 12.16a12 12 0 0 0-.68.96.82.82 0 0 1-.53.26c-.03 0-.05-.01-.05-.04.1-.01.19-.04.27-.08.08-.03.15-.1.22-.18.1-.11.2-.24.29-.37a191.14 191.14 0 0 1 4.14-5.79h.03v.01a4.73 4.73 0 0 1-.4.53 8.05 8.05 0 0 1-.37.55c-.07.08-.14.21-.23.3a.6.6 0 0 0-.08.13 851.44 851.44 0 0 0-2.6 3.72Z" fill="#D07C31"/><path d="M13.67 6.99c.1-.13.18-.27.26-.42l-.27-.48-.36.54-.1.12a26.15 26.15 0 0 1-1.24 1.71l-.6.84-2.05 2.8h-.02l-.03.04c.04.02.06.05.07.09l.1.31c0 .03.02.07.07.13.03.04.04.09.04.15l2.17-3.06a61.76 61.76 0 0 0 .65-.93l.24-.34a12.46 12.46 0 0 1 .47-.66l.04-.06a11.72 11.72 0 0 0 .56-.78Z" fill="#B46626"/><path d="M4.44 10c-.03.07 0 .13.07.2l.31.18a156.94 156.94 0 0 0 3.48 1.77c.1.04.18.1.26.14l.06.09.02.03a4.3 4.3 0 0 1 .03.28c.03.18.03.35.01.53-.11-.05-.23-.14-.3-.18l-.34-.2c-.2-.12-.38-.17-.59-.29L6.4 12l-.19-.1c-.11-.07-.22-.1-.32-.16-.16-.1-.39-.2-.56-.3-.27-.15-.58-.32-.94-.5a.56.56 0 0 1-.24-.23.02.02 0 0 0-.02-.01h-.01l-.01.02v.04c-.01-.05-.02-.1 0-.13.08-.2.14-.41.16-.64l.05-.24v.26l.02.01h.01a.01.01 0 0 0 .02 0l.01-.06c0-.01 0-.02.02-.01.03 0 .04.02.04.05Z" fill="#502F19"/><path d="M4.27 10c-.02.22-.08.43-.16.63-.02.03-.01.08 0 .13.04.11.1.19.18.23a29.48 29.48 0 0 1 1.36.73 58.68 58.68 0 0 1 1.36.72l.49.26.83.44.22.1a.3.3 0 0 0 .09.05l.28.05c0 .03.02.04.05.04a.62.62 0 0 1-.23 0 .54.54 0 0 1-.2-.09 362.02 362.02 0 0 1-4.38-2.35c-.02 0-.04.01-.07.06a.3.3 0 0 0-.08-.23L4 10.74c0-.1.01-.19.03-.25.01-.05.05-.1.1-.14l.02-.03.12-.33Z" fill="#946941"/><path d="m4.44 10 .22.15a12.3 12.3 0 0 0 1 .55l.17.08a119.59 119.59 0 0 0 2.84 1.45.5.5 0 0 0 .13 0l.03.02.07.1.1.8.02.03v.05c-.03.03-.05.03-.08.02l-.13-.79c-.01-.04-.03-.1-.07-.15 0-.02-.01-.02-.02 0l-.03.03h-.03l-.1-.05a34.8 34.8 0 0 1-1.97-1.02l-1.77-.9c-.1-.05-.23-.12-.3-.18-.08-.06-.1-.12-.08-.19Z" fill="#D3AB6B"/><path d="M8.97 13.38c.2-.02.37-.1.52-.26.02.04 0 .08-.06.12a.74.74 0 0 0-.14.2c0 .01-.01.02-.03.02h-.23a.06.06 0 0 0-.05.03V13.8a.1.1 0 0 1 .04.07c0 .02 0 .03-.02.03a.09.09 0 0 1-.04.01l-.53-.25-.26-.13c-.2-.07-.4-.15-.57-.24a17.16 17.16 0 0 1-.65-.35 5.3 5.3 0 0 1-.29-.13 11.81 11.81 0 0 0-1.3-.66 8.3 8.3 0 0 1-.17-.12c-.17-.12-.36-.21-.52-.3a.5.5 0 0 1-.15-.1c-.18-.21-.32-.42-.43-.63.03-.05.05-.07.06-.06.05.05.11.09.17.12a365.79 365.79 0 0 0 4.42 2.32h.23Z" fill="#3A2617"/><path d="m9.23 11.94-.01.1-.03.07a2.46 2.46 0 0 0-.12.2 29.86 29.86 0 0 0 .13.86c-.01.02-.03.03-.05.03-.04.01-.06 0-.06-.05V13l-.03-.16a6.95 6.95 0 0 1-.12-.68L9.1 12a.22.22 0 0 1 .13-.06Z" fill="#D3AB6B"/><path d="M9.26 12.14c.04.02.06.05.07.09l.1.31c0 .03.02.07.07.13.03.04.04.09.04.15l-.2.25h-.05v-.02a11.84 11.84 0 0 0-.12-.7c-.03-.08 0-.15.09-.2Z" fill="#FEFCAA"/><path d="M10.18 12.16c0 .12-.02.26-.04.42-.03.13.01.24.1.32-.13.33-.33.52-.6.78a.91.91 0 0 0-.18.24.07.07 0 0 1-.05.04c-.06 0-.1.02-.14.03-.1.03-.22-.03-.31-.08H9c.02-.01.02-.02.02-.04A.1.1 0 0 0 9 13.8a.05.05 0 0 1-.02-.03v-.25a.06.06 0 0 1 .02-.04.06.06 0 0 1 .04-.02h.23c.02 0 .03 0 .03-.02a.74.74 0 0 1 .14-.2c.06-.04.08-.08.06-.12a.8.8 0 0 1 .11-.14.23.23 0 0 0 .07-.1l.02-.03a.4.4 0 0 0 .1-.12 3.53 3.53 0 0 1 .4-.57Z" fill="#9F5824"/><path d="M8.94 13.25c-.05-.02-.1-.01-.18.02-.05.02-.08 0-.08-.05a1.8 1.8 0 0 0-.01-.53l-.02-.14a4.36 4.36 0 0 0-.03-.17.24.24 0 0 1-.06-.09l.1.05a.03.03 0 0 0 .03 0l.03-.04h.02l.07.16.13.79Z" fill="#D07C31"/><path d="M8.88 4.08a.68.68 0 0 1 .19-.06.36.36 0 0 1 .19.01c.03 0 .12.05.26.11a155.4 155.4 0 0 0 2.26.95l1.2.52c.07.03.14.08.2.15.05.05.06.1.06.17 0 .04-.03.1-.07.15a283.74 283.74 0 0 1-4.19 5.8c-.1.07-.2.1-.32.1a.94.94 0 0 1-.3-.12l-1.9-.98a16.87 16.87 0 0 1-.6-.31c-.42-.21-.8-.4-1.16-.6-.11-.06-.18-.12-.2-.17-.05-.1-.04-.21.03-.33l.33-.41a5724.22 5724.22 0 0 0 4.02-4.98Z" fill="#FAF5B4"/><path d="m12.7 5.84-3.27-1.3a.42.42 0 0 0-.48.12l-3.93 4.9c-.08.1-.05.23.06.29l3.39 1.75c.18.09.4.04.53-.13l3.8-5.35a.18.18 0 0 0-.1-.28Z" fill="#AC8248"/><path d="M7.7 11.6a33.9 33.9 0 0 1 .74.37c.11.04.18.07.2.09v.01a.13.13 0 0 1-.08 0 2.4 2.4 0 0 1-.43-.2c-.04-.03-.12-.05-.17-.08a8.36 8.36 0 0 0-.61-.32 16.07 16.07 0 0 1-.58-.33c.08-.02.16.08.23.1l.17.08a4.46 4.46 0 0 0 .52.27Z" fill="#B5AD6B"/><path d="M4.74 9.71v.03a.02.02 0 0 1-.01.01h-.01l-.06-.2.08-.13A433.71 433.71 0 0 0 7.6 5.87l1.23-1.53A.56.56 0 0 1 9 4.18a.33.33 0 0 1 .27 0 8.66 8.66 0 0 1 .97.4l.36.15 1.16.47.1.04c.54.22.89.36 1.03.43.09.04.15.08.18.13l.02.05c0 .02 0 .02-.01.01a.76.76 0 0 0-.15-.12 13.55 13.55 0 0 0-1-.43 34.65 34.65 0 0 0-1.36-.56c-.07-.03-.12-.07-.2-.09a.77.77 0 0 1-.13-.05 9.27 9.27 0 0 1-1.02-.42.22.22 0 0 0-.16.02c-.1.05-.16.1-.2.16A250.22 250.22 0 0 1 5.8 8.19l-.96 1.2c-.09.1-.14.2-.1.32Z" fill="#56431F"/><path d="M10.5 4.8c0 .03-.03.04-.1.03l-.57-.24c-.25-.1-.34-.16-.44-.18l-.15-.05a.17.17 0 0 0-.13 0 .3.3 0 0 0-.1.09l-.36.44-.56.7-.17.2c-.43.55-.37.51-.87 1.12-.4.5-.88.99-1.23 1.53l-.12.15a249.9 249.9 0 0 0-.6.8l-.06.03a.19.19 0 0 0-.06.07 3.7 3.7 0 0 0-.13.25c-.04-.1-.03-.18.02-.24l.47-.6c.55-.67 1.1-1.33 1.63-2.01l.61-.77 1.4-1.76c.08-.1.19-.12.32-.06l1.2.5Z" fill="#3A2617"/><path d="M9.88 5.98c-.07 0-.1.03-.1.08l-.02.01-.01.01v-.05l-.01-.02a.62.62 0 0 0-.19-.03c-.17 0-.33-.01-.48.01a2.64 2.64 0 0 0-1.4.56c-.2.16-.37.35-.5.57-.1.19-.16.38-.16.58a3.49 3.49 0 0 0 .04.5h.01l.01-.03.03.06c.03.13.08.26.15.38.03.03.05.06.06.1l.06.1.03.06.03.06a.2.2 0 0 0 .07.06c.06.03.1.08.13.14a1.5 1.5 0 0 1-.46-.44c-.12-.19-.21-.42-.26-.7a1.08 1.08 0 0 1 0-.27c.04-.2.09-.36.14-.49.03-.08.09-.18.17-.3l.14-.19.22-.2.09-.09.16-.08c.11-.03.22-.19.35-.23l.24-.07c.79-.3.9-.2 1.1-.17 1.55.2-.32.01.36.08Z" fill="#D3AB6B"/><path d="m9.97 6.14-.04.12c-.07.18-.22.32-.28.5l-.02.04a.21.21 0 0 0-.06.08l.01.03.67.68c.05.04.1.08.12.13.03.04.05.05.09.05h.01v.02l-.03.01c-.49.08-1.58.65.04.12.01.02.01.04 0 .07 0 .01 0 .02-.02.02-1.1.6-2.03.47-2.32 1.37l-.51-.25a.28.28 0 0 0-.13-.14.2.2 0 0 1-.07-.06c-.07-.1-.11-.22-.18-.32a1.11 1.11 0 0 1-.15-.38.14.14 0 0 0-.02-.06c-.08-.44.02-.84.3-1.18.17-.23.4-.42.66-.58a2.64 2.64 0 0 1 1.93-.27Z" fill="#FEFCAA"/><path d="M10.07 6.24c.12.36.22.73.35 1.08.05.1.08.22.12.33.1.27 0 .22-.06.27l-1.82.6a.04.04 0 0 1-.04-.02l-.29-.36-.6-.7c-.04-.06-.06-.11-.06-.16l-.01-.03-.04-.04a.04.04 0 0 1 0-.05v-.01c.04-.02.07-.01.1.02l.05.06c0 .04.01.06.02.07l.25.3.25.29a3.77 3.77 0 0 1 .4.47l.1-.04a7.75 7.75 0 0 0 .5-.17 286.62 286.62 0 0 1 1.15-.35h.02l.01-.02v-.01h-.01c-.04 0-.06-.01-.09-.05a.57.57 0 0 0-.12-.13c.01-.1 0-.2-.04-.28a4.54 4.54 0 0 1-.3-1c.04-.09.1 0 .06-.17a.12.12 0 0 1-.02-.07c0-.04.12.16.12.17Z" fill="#3F1A0E"/><path d="M8.95 7.7c-.05.04-.07.02-.06-.07l.93-1.43a.03.03 0 0 0 0-.04h-.04c.07-.05.08-.07.03-.07 0-.01.01-.02.03-.02.01 0 .02 0 .03.02l.03.06v.03a126.57 126.57 0 0 0-.95 1.51Z" fill="#946941"/><path d="M9.81 6.1c.05-.01.04.01-.03.05A553.04 553.04 0 0 1 7.83 7.2l.01.02.02.01h-.09c-.02-.02-.04-.04-.04-.06L9.8 6.09Z" fill="#56431F"/><path d="m9.93 6.26.04-.12a4.98 4.98 0 0 1 .2.59c.03.06.05.14.06.21 0 .02.02.04.04.06l.01.03a8.93 8.93 0 0 1 .09.45h-.02c-.02-.02-.02-.04-.02-.07l-.01-.03a1.1 1.1 0 0 1-.12-.34l-.05-.15a.51.51 0 0 1-.06-.14 1.63 1.63 0 0 0-.16-.49Z" fill="#946941"/><path d="M9.78 6.15h.02a.03.03 0 0 1 .02.02.03.03 0 0 1 0 .03L8.9 7.63l-.04.04h-.02c0-.04-.03-.05-.06-.05l-.9-.39-.03-.01a.02.02 0 0 1 0-.02.02.02 0 0 1 0-.02 551.18 551.18 0 0 0 1.94-1.03Z" fill="#fff"/><path d="M10.54 6.44c.23.19.4.42.5.7l.02.16v.17a.5.5 0 0 1 0 .15v.2a.8.8 0 0 0-.03.13.4.4 0 0 1-.04.12c-.05.1-.08.19-.1.28a28.85 28.85 0 0 0-.43.47l-.17.13c-.05.03-.1.07-.19.11l-.33.19c-.42.16-.87.22-1.33.18a.23.23 0 0 1-.1-.04c.07 0 .13-.02.18-.04a54.96 54.96 0 0 0 2.07-1.2v-.03a.18.18 0 0 0-.05-.04l-.01-.01v-.03l.03-.02c.02 0 .03-.01.03-.03 0-.03 0-.06-.04-.08a.42.42 0 0 0-.01-.26 3.3 3.3 0 0 1-.12-.33l-.04-.13-.3-.95c-.02-.05 0-.07.04-.04l.27.13.15.11Z" fill="#FEFCAA"/><path d="M11.22 8.3a.54.54 0 0 1-.14.2l-.02.03v.05c-.12.45-.63.73-.89.95-.54.45-.95.31-1.62.14-.26-.07-.52-.06-.72-.26-.03-.02-.07-.03-.15-.04-.21-.02-.3-.16-.47-.28-.54-.41-.18-.38-.33-1.06a.45.45 0 0 1-.02-.16 2.19 2.19 0 0 0 .03-.17v-.02h.01l.01.04v.27c.05.28.14.51.26.7.1.16.25.3.46.44l.51.25.2.01.1.04c.46.04.9-.02 1.33-.18.13.03.24.01.36-.05.3-.17.5-.36.75-.6a.12.12 0 0 0 .04-.12l-.02-.02c-.08 0-.01-.08-.01-.1.05-.06.1-.12.12-.18 0 0 .07-.07.21.12Z" fill="#6E371A"/><path d="M7.83 7.23v.02c0 .02 0 .03.02.05.08.08.17.17.26.29a3485.5 3485.5 0 0 0 .5.6.1.1 0 0 0 .05-.01v.1l.04.02.08.02-.1.04-.03-.01a3.77 3.77 0 0 0-.36-.46c-.1-.1-.19-.2-.25-.3a4.96 4.96 0 0 0-.25-.3s-.02-.02-.02-.06h.06Z" fill="#946941"/><path d="m7.86 7.23.9.4c.04.01.06.04.05.06l-.15.49a.1.1 0 0 1-.05.01l-.02-.01a4109.63 4109.63 0 0 1-.75-.93v-.02h.02Z" fill="#231C12"/><path d="M8.18 8.98a.28.28 0 0 0 0 .2l.01.05c0 .02 0 .05.02.06h.03a194.64 194.64 0 0 0 2.3-1.22l.04.05a.05.05 0 0 1-.01.07l-.25.16c-.58.33-1.18.67-1.8 1a.49.49 0 0 1-.18.04l-.2-.01c-.1-.3-.2-.58-.27-.87-.04-.14-.11-.3-.14-.46a2.35 2.35 0 0 1-.15-.52l-.01-.16v-.04h.04c.01 0 .02 0 .01.02v.06c.23.5.42 1.03.56 1.57Z" fill="#3F1A0E"/><path d="M8.9 7.63c-.02.1 0 .11.05.06h.04l-.23.53c-.01.03 0 .04.03.03a11.73 11.73 0 0 1 1.12-.35 12.4 12.4 0 0 0 .4-.1c.04 0 .06.01.06.04a289.1 289.1 0 0 0-1.59.48L8.7 8.3l-.03-.02c-.02-.03-.02-.06 0-.1l.14-.5c.01-.01 0-.04-.04-.06.03 0 .05.01.06.04h.02l.04-.03Z" fill="#CA9A5F"/><path d="M10.44 7.8c-.04.01-.06.02-.07.04 0-.03-.02-.04-.06-.04h-.05a12.4 12.4 0 0 1-.56.17l-.21.06-.7.22c-.03.01-.04 0-.03-.03L9 7.7h.1c.35.03.7.05 1.04.05.06 0 .1-.02.16 0l.03.01c.03.04.07.05.12.05Z" fill="#231C12"/><path d="M10.55 7.9c.03.03.05.06.04.1 0 0-.01.02-.03.02l-.03.02v.03c-.03 0-.06 0-.08.02A194.66 194.66 0 0 1 8.24 9.3H8.2c-.02-.02-.02-.05-.02-.07v-.04a.28.28 0 0 1-.01-.2c-.02.02 0 .04.04.03a.02.02 0 0 0 .01 0l.26-.5.04-.02h.03v.02l-.3.6v.02l.05-.01-.03.05a42.82 42.82 0 0 0 1.98-1.08l-.07-.01c.1-.04.18-.07.27-.08.01 0 .02 0 .02-.02.01-.03.01-.05 0-.07l.05-.05c.01-.01.02-.01 0 .01v.04l.02-.01Z" fill="#A57E48"/><path d="m10.2 8.09.06.01a.02.02 0 0 1 0 .02 42.8 42.8 0 0 1-1.98 1.06c0-.01 0-.03.03-.05a219.24 219.24 0 0 0 1.89-1.04Z" fill="#3F1A0E"/><path d="M10.85 8.41c0 .03.02.05.05.05 0 0 .02 0 .02.02 0 .04 0 .08-.04.11l-.14.16c-.04.06-.1.1-.15.16l-.17.14a.55.55 0 0 1-.14.08l-.15.07a.47.47 0 0 1-.36.05 6.98 6.98 0 0 1 .52-.3c.05-.05.1-.09.17-.13l.16-.16.23-.25Z" fill="#B46626"/><path d="M6.86 9.56a.6.6 0 0 1-.22.28l-.04-.01.01-.03a.1.1 0 0 0 .03-.04.78.78 0 0 1 .1-.13c.03-.03.04-.06.03-.1a.03.03 0 0 0-.03-.02c-.09 0-.14.03-.18.07l-.1.12H6.4a.02.02 0 0 1 0-.03l.5-.59a.04.04 0 0 1 .04 0h.02a.02.02 0 0 1 0 .01.02.02 0 0 1 0 .02l-.26.32c.09 0 .14.04.16.13ZM6.32 9.33c-.04 0-.07.01-.07.04l-.1.11c-.02.03-.02.05 0 .07.03.06.02.09 0 .08a.15.15 0 0 1-.07-.07c0-.12.05-.15.11-.22.03-.02.04-.05.03-.09.04-.05.1-.05.16-.02a.03.03 0 0 1 .02.03.03.03 0 0 1-.01.02l-.07.05Z" fill="#F1D9B1"/><path d="M6.15 9.55c-.02-.02-.02-.04 0-.07l.1-.1a.1.1 0 0 1 .1 0h.03l.07-.02c.05-.04.07-.03.06.04l-.05.08c0 .01-.01.02-.03.02h-.15l-.03.02a.16.16 0 0 1-.1.03Z" fill="#3F1A0E"/><path d="M6.64 9.76c-.25.07-.34.1-.27.02 0-.02.01-.02.02-.03.04 0 .06-.02.08-.05l.1-.12c.03-.04.08-.06.17-.07l.03.02c.01.04 0 .07-.03.1a.78.78 0 0 0-.1.13Z" fill="#412212"/><path d="M6.92 9.62a.34.34 0 0 0-.16.18v.04c.04.1.11.17.22.2.06.02.14 0 .16-.07 0-.01 0-.02-.02-.02l-.08.01h-.03a.27.27 0 0 1-.15-.07.08.08 0 0 1-.02-.03V9.8l.04-.03c.1.08.2.12.32.1.05 0 .08-.04.08-.12 0-.03.04-.02.08.05l.01.04v.04a.5.5 0 0 1-.15.2c-.18.11-.27.1-.47-.09 0-.03-.03-.05-.07-.05h-.03c-.08-.05-.08-.08-.01-.11a.6.6 0 0 0 .22-.28c0-.02.01-.03.02-.03h.03c.01.02.02.04.01.09Z" fill="#502F19"/><path d="M7.26 9.63c.02.03.02.05 0 .06-.17-.1-.3-.08-.38.09l-.04.03v.05l.02.03c.05.04.1.07.15.08h.03a.18.18 0 0 1 .08-.02c.02 0 .02 0 .02.02-.02.07-.1.09-.16.07a.31.31 0 0 1-.22-.2V9.8a.34.34 0 0 1 .16-.18c.12-.1.23-.1.34.01Z" fill="#D3AB6B"/><path d="m4.66 9.56.05.18v.01h.03V9.7a.2.2 0 0 0 .07.1l.34.18.35.16a140.2 140.2 0 0 0 3.02 1.55c.1.04.25.06.35 0l.07-.03c.14-.03.14 0 .02.07a.51.51 0 0 1-.34.05 1.1 1.1 0 0 1-.3-.13 180.24 180.24 0 0 0-1.65-.84l-.24-.12a60.67 60.67 0 0 0-1.61-.83 14.54 14.54 0 0 0-.13-.1H4.6c-.02-.01-.03-.03-.03-.06-.01-.06.01-.11.08-.15Z" fill="#B5AD6B"/><path d="M6.08 9.56c0 .03.03.05.06.07.01.02.02.02.03.02.02 0 .03-.01.03-.03v-.01l.01-.02h.05l.01.03c-.01.09-.06.14-.14.16-.02 0-.02 0-.03-.02l-.07-.14v-.04s0-.02.02-.02h.03Z" fill="#502F19"/><path d="M7.26 9.63c.01 0 .02 0 .03.02v.03a.17.17 0 0 0-.01.08c0 .08-.03.12-.08.13a.42.42 0 0 1-.32-.11c.09-.17.21-.2.37-.08h.02c.01-.02.01-.04-.01-.07Z" fill="#A57E48"/><path d="M7.61 9.92a.06.06 0 0 1-.06.03l-.12.01-.03.02-.11.14c-.05 0-.08 0-.07-.04a.5.5 0 0 0 .15-.19.31.31 0 0 0 .06-.06c.03-.04.05-.04.05.01l.01.04h.11c.01 0 .02.02.01.04Z" fill="#F1D9B1"/><path d="M9.57 9.93c-.02.02-.02.04-.01.05h-.63a.07.07 0 0 0-.06.02l-.2.27-.01.03c0 .05 0 .1-.04.14a246.65 246.65 0 0 1-.24.26c-.13-.02-.2-.1-.24-.22l.19-.27.01-.01h.02l.04.01v.03l-.01.02-.14.19c-.05.06-.02.12.04.15a.07.07 0 0 0 .08-.01c.1-.1.18-.2.24-.3l.1-.17.12-.16c.05-.07.2-.06.28-.05l.19-.01c.1 0 .18 0 .27.03Z" fill="#D3AB6B"/><path d="m7.73 9.97-.1.08a.2.2 0 0 0-.06.1.2.2 0 0 0 .06.2l.15.11h.03l.12-.05.02-.01v-.02c0-.02 0-.04-.02-.04H7.9c-.16.06-.25 0-.28-.15l.35.06.03.01h.01c.02.02.03.02.04 0v-.02l.03-.12.03-.03h.02a.02.02 0 0 1 .01 0l.03.27v.03c-.04.03-.05.06-.03.09.03.13.11.2.24.22h.03l.21-.26a.17.17 0 0 0 .04-.14v-.03l.2-.27a.07.07 0 0 1 .07-.03l.63.01c.06.05.1.03.14-.05h.06a.03.03 0 0 1 .02.02c0 .07-.01.14-.04.22l-.03.02c-.16 0-.07-.04-.19-.1a.11.11 0 0 0-.05-.02h-.5a.09.09 0 0 0-.08.04c-.09.13-.21.24-.12.42l-.18.19v.07h.01c.03.02.05.02.06 0l.2-.22c0-.01 0-.02.02-.02h.06a.1.1 0 0 1 .02.03c.03.03.03.06 0 .1l-.15.15a.45.45 0 0 0-.13.11h-.02c-.66-.09-.61-.56-.58-.43a.04.04 0 0 0-.06-.02H8c-.1.01-.36.12-.36.03a.03.03 0 0 0 0-.04.49.49 0 0 1-.12-.23v-.04a.2.2 0 0 0 .01-.12.03.03 0 0 0-.04-.02h-.01c-.16.12-.13.44-.29.12a.03.03 0 0 1 .02-.04l.08-.03.11-.14.03-.02h.12c.03 0 .05-.02.06-.04.05-.04.1 0 .12.05Z" fill="#502F19"/><path d="M9.7 9.93c-.04.08-.08.1-.14.05v-.05c.06-.03.1-.04.13-.03.02 0 .02.01.01.03ZM7.75 10.06h-.02c-.03.08-.07.12-.1.13.02.16.11.2.27.15h.03c.02 0 .02.02.02.04v.02h-.02l-.12.06h-.03a.85.85 0 0 1-.15-.12.2.2 0 0 1-.06-.18.2.2 0 0 1 .06-.1l.1-.1c.12-.05.23-.04.3.05l.02.03v.02h-.02a.25.25 0 0 0-.28 0Z" fill="#F1D9B1"/><path d="m7.75 10.06.17.01c.06 0 .08.03.08.07 0 .05-.03.06-.08.05a1.16 1.16 0 0 1-.16-.06c-.02 0-.03-.03-.03-.07h.02Z" fill="#412212"/><path d="M7.73 10.06c0 .04 0 .06.03.07.05.03.1.05.16.06.05.01.08 0 .08-.05.03-.01.05 0 .06.03v.07l-.01.02c-.01.02-.02.02-.04 0a.07.07 0 0 0-.04-.01l-.35-.06c.04 0 .08-.05.11-.13Z" fill="#B5AD6B"/><path d="M9.23 10.6c.03.03.05.07.06.1v.04l-.16.23h-.06l-.01-.04v-.04l.14-.16c.03-.03.03-.05-.02-.06h-.03a.12.12 0 0 0-.11.03l-.15.19c-.09 0-.12-.02-.08-.06l.15-.16c.03-.03.03-.06 0-.1a.1.1 0 0 0-.05-.02h-.03l-.03.02-.19.22c-.01.02-.03.02-.06 0a.12.12 0 0 1-.02-.04v-.03l.19-.19a.19.19 0 0 0 .04-.06.06.06 0 0 1 .08-.03c.06.04.12.08.17.14.02.02.05.02.07.01h.1Z" fill="#D3AB6B"/><path d="M9.37 10.76c.02.05.01.08-.01.1a2.06 2.06 0 0 0-.25.28h-.02a.19.19 0 0 1-.09-.08.02.02 0 0 1 .01-.03h.01a.1.1 0 0 0 .1-.06l.16-.23.01-.03a.26.26 0 0 0-.06-.11v-.03h.04c.04.04.07.07.07.1l.03.1Z" fill="#412212"/><path d="M9.06 10.89a.3.3 0 0 0-.13.12l-.02.01c-.06 0-.1-.02-.12-.09 0-.02.03-.04.1-.04l.15-.19a.12.12 0 0 1 .11-.04h.03c.05.02.05.04.02.07l-.14.16Z" fill="#412212"/><path d="M8.09 7.13c.07-.03.23-.08.47-.12l.73-.16c.05-.01.06 0 .02.04a.22.22 0 0 1-.12.04c-.09 0-.17.05-.24.06a8.73 8.73 0 0 0-.92.2c-.05 0-.05-.01 0-.03l.06-.03Z" fill="#F1D9B1"/><path d="M5.93 9.07C5.89 9.02 5.85 9 5.82 9a.72.72 0 0 0-.13.03l-.12.13c-.02.03-.02.05 0 .07l.11.1h.04c.02 0 .04-.02.05-.03a.04.04 0 0 1 .04-.01.04.04 0 0 1 .03.02c0 .04 0 .06-.05.07-.07.03-.1.04-.16 0a.32.32 0 0 1-.12-.14c-.02-.13.03-.22.14-.27.14-.07.26-.05.38.06a.05.05 0 0 1 .02.05.05.05 0 0 1-.04.03h-.03l-.02-.01a.05.05 0 0 0-.03-.04Z" fill="#D3AB6B"/><path d="M5.93 9.07c.02.07 0 .1-.08.09-.1-.02-.16-.06-.16-.12l.13-.03c.03 0 .07.01.1.06Z" fill="#502F19"/><path d="M5.51 9.25c.03.05.07.1.12.13.06.05.1.04.16.01.04-.01.06-.03.05-.07a.04.04 0 0 0-.03-.02.04.04 0 0 0-.04 0 .12.12 0 0 1-.05.04h-.04a.55.55 0 0 1-.11-.1c-.02-.02-.02-.04 0-.07l.35.09a.03.03 0 0 0 .03-.02l.02-.08.02-.02a.07.07 0 0 1 .07 0l.01.03-.04.19a.03.03 0 0 1-.01.02l-.25.15a.15.15 0 0 1-.13 0 .17.17 0 0 1-.08-.07 5.52 5.52 0 0 0-.1-.17c0-.04.01-.06.05-.04Z" fill="#412212"/></svg>