<!-- by TradingView --><svg width="18" height="18" viewBox="0 0 18 18" xmlns="http://www.w3.org/2000/svg"><path fill="#D73082" d="M0 0h18v18H0z"/><path d="m14.38 11.68-.18-.09a5.78 5.78 0 0 0-2.13-7.52l-.25-.14a5.78 5.78 0 0 0-5.64-.03l-.23-.07A.5.5 0 0 1 6 3.8l.06-.03a5.88 5.88 0 0 1 4.6-.54 5.99 5.99 0 0 1 3.72 8.45Z" fill="#5D4DAF"/><path d="M14.38 11.68c.07.04.14.1.2.18.08.11.1.2.05.29a.18.18 0 0 1-.15.08c-.05.01-.1 0-.17-.02a2.4 2.4 0 0 1-.2-.07l-.17-.08a5.83 5.83 0 0 1-8.35 1.65 5.82 5.82 0 0 1-.09-9.36l-.26-.03c-.16-.01-.32 0-.47.05-.02 0-.02.02-.02.03.02.07 0 .14-.05.21a.13.13 0 0 1-.06.04.24.24 0 0 1-.18 0 .32.32 0 0 1-.14-.13.54.54 0 0 1-.09-.4c.03-.14.1-.26.2-.36.12-.1.28-.15.5-.13a3.87 3.87 0 0 1 1.02.2l.23.08h.02l.24-.13a5.74 5.74 0 0 1 5.63.3 5.84 5.84 0 0 1 2.13 7.51l.18.09Z"/><path d="M6.1 4.03a2.48 2.48 0 0 0 .23.13l-.1-.01-.62-.17a3.38 3.38 0 0 0-.55-.09l-.27.01a.89.89 0 0 0-.4.17c-.01-.1.03-.19.14-.26a.57.57 0 0 1 .29-.1l.22.01c.16.03.35.07.54.13l.52.18Z" fill="#D5BAFB"/><path d="M6.1 4.03c.33.1.65.23.96.39a3.68 3.68 0 0 1 1.15.93c.08.1.13.24.15.4a4.26 4.26 0 0 1-.06.96l-.08.43a2.13 2.13 0 0 0 0 .5h.01l.07-.14.21-.28a10.9 10.9 0 0 1 .88-1.04 10.31 10.31 0 0 1 .82-.68h-.05a2.08 2.08 0 0 0-.68.24l-.06-.1c0-.05.02-.09.06-.11a.79.79 0 0 1 .4-.13 3.45 3.45 0 0 1 .28-.03 5.92 5.92 0 0 0 1.52-.56c.03-.01.05 0 .07 0 .08.07.16.14.22.22v.03a.36.36 0 0 1-.05.07l-.16.19a.56.56 0 0 0-.08.22v.15a.62.62 0 0 1-.04.14.18.18 0 0 1-.06.07.59.59 0 0 1-.34.08c-.07 0-.12-.05-.13-.13a.78.78 0 0 0 .03-.11 13.7 13.7 0 0 0-.37.5 3.73 3.73 0 0 0-.22.41 2.5 2.5 0 0 0-.2.46 378.23 378.23 0 0 0-.31 1.03v.09l.06.05c.15.09.3.11.47.09a.6.6 0 0 0 .18-.06.34.34 0 0 0 .17-.21l.05-.2a23.55 23.55 0 0 1 .14-.8.7.7 0 0 1 .29-.39c.14-.1.29-.15.44-.16.12-.01.25.02.4.08.14.07.25.14.34.2.14.1.26.25.37.45.01.03.03.07.03.11.02.12.01.23 0 .35a.88.88 0 0 0-.06-.2 1.34 1.34 0 0 0-.23-.34.9.9 0 0 0-.72-.29c-.1 0-.18 0-.26.03a.4.4 0 0 0-.28.3 7.52 7.52 0 0 0-.04.52c0 .11 0 .2-.02.28a.95.95 0 0 1-.6.73.85.85 0 0 1-.25.05 2.12 2.12 0 0 1-.48-.03c-.02 0-.02.01 0 .03l.06.04c.12.05.25.1.38.1l.27.03c.1 0 .22 0 .34-.02a32.31 32.31 0 0 0 .84-.15 2.23 2.23 0 0 1 .78.1c.08.03.16.08.23.13.16.12.27.28.35.46a.1.1 0 0 1-.05-.04.25.25 0 0 0-.03-.04.76.76 0 0 0-.25-.14 1.38 1.38 0 0 0-.43-.09c-.2 0-.4.02-.59.07l-.27.07a7.8 7.8 0 0 1-.65.2c-.19.05-.38.06-.58.04-.21-.03-.4-.08-.6-.16a.92.92 0 0 1-.26-.19h-.01v.01c0 .06.04.11.1.17l.16.11a6.7 6.7 0 0 1 .73.18 2.51 2.51 0 0 1 .9.47.9.9 0 0 1 .3.41v.02a.57.57 0 0 0-.18-.18c-.16-.1-.34-.16-.55-.18l-.17-.01-.04.01h-.01l-.21.01h-.43c-.32 0-.6-.1-.85-.28a.82.82 0 0 1-.2-.21c0-.02-.01-.02-.01 0a.82.82 0 0 1-.08.27l-.13.26a2.1 2.1 0 0 0-.21.76c-.01.1 0 .21.04.33.02.07.05.13.09.17l.13.14c.08.06.17.1.27.13l.28.05c.26.02.5.02.73 0 .2 0 .38-.04.57-.1a11.68 11.68 0 0 1 1.03-.24c.3-.04.61-.07.92-.08a2.84 2.84 0 0 1 1.51.33c.1.04.16.1.21.18a.29.29 0 0 1-.06-.04 1.86 1.86 0 0 0-.5-.23c-.22-.06-.44-.1-.66-.11a3.78 3.78 0 0 0-1.17.15 1.63 1.63 0 0 0-.2.1 12.26 12.26 0 0 0-.55.23c-.3.1-.53.19-.68.23-.4.12-.81.16-1.21.12-.64-.06-1.1-.26-1.4-.6-.19-.21-.28-.46-.27-.74 0-.1.02-.2.03-.27.02-.11.06-.23.13-.34l.15-.25a2.94 2.94 0 0 0 .23-.53c0-.04 0-.04-.03-.02l-.01.02-.14.2a.83.83 0 0 1-.41.32 9.81 9.81 0 0 0-.75.15 5.67 5.67 0 0 0-1.35.51 1.52 1.52 0 0 0-.5.44 5.27 5.27 0 0 0-.33.44l-.02.02h-.02l-.02-.02a.22.22 0 0 1-.01-.1c0-.1.04-.2.1-.32a3.15 3.15 0 0 1 .63-.8 6.33 6.33 0 0 1 1-.7 3.85 3.85 0 0 1 .57-.2l.3-.12c.11-.05.21-.13.3-.22.04-.06.07-.1.06-.13v-.01h-.02l-.1.05a.87.87 0 0 1-.42.05 3.38 3.38 0 0 1-.37-.05 1.6 1.6 0 0 1-.67-.3 30.18 30.18 0 0 1-.62-.45c-.16-.1-.34-.17-.54-.2a2.06 2.06 0 0 0-.43 0 .45.45 0 0 0-.17.04.7.7 0 0 0-.17.13l-.15.17a.41.41 0 0 1-.05.05h-.03c-.02-.03-.02-.07 0-.14l.03-.12c.13-.16.3-.27.48-.34.1-.04.19-.06.28-.06H5a29.1 29.1 0 0 1 .65.06 4.82 4.82 0 0 1 .68.3 2.1 2.1 0 0 0 .73.2V8.5l-.15-.15a1.02 1.02 0 0 1-.25-.5 1.7 1.7 0 0 1-.02-.52c.02-.18.07-.35.13-.53l.1-.27a.9.9 0 0 0 .03-.45c0-.05-.02-.1-.04-.14a.3.3 0 0 0-.09-.11c-.05-.05-.1-.05-.16-.03a.28.28 0 0 0-.13.12.76.76 0 0 0-.07.17c-.04.11-.01.2.07.29a4.06 4.06 0 0 1 .13.15c0 .03 0 .04-.02.05-.03.02-.08.01-.14 0a.68.68 0 0 1-.26-.14.51.51 0 0 1-.15-.24.76.76 0 0 1-.02-.35c.02-.1.05-.18.1-.25v.09a.65.65 0 0 0 0 .23c0 .02.01.02.01 0a.6.6 0 0 1 .48-.49c.11-.03.23-.04.34-.03.15.08.24.2.29.35.04.12.05.25.05.38 0 .12-.01.25-.03.37l-.04.5c0 .17 0 .33.02.47.01.07.03.15.06.22.05.12.13.2.25.24.02 0 .03 0 .03-.02v-.06a1.3 1.3 0 0 1-.04-.36 4.39 4.39 0 0 1 .28-.97l.06-.22a.99.99 0 0 0-.06-.48 2 2 0 0 0-.72-.94 4.28 4.28 0 0 0-1.26-.59c-.4-.12-.74-.15-1.03-.08a.65.65 0 0 0-.16.06c-.07.04-.1.08-.07.12l.03.05v.05c-.02.03-.04.05-.08.03a.17.17 0 0 1-.08-.05.38.38 0 0 1-.1-.3l.03-.1a.89.89 0 0 1 .4-.17h.27c.18 0 .37.04.55.08a9.92 9.92 0 0 1 .72.18 2.48 2.48 0 0 1-.23-.13Z" fill="#5D4DAF"/><path d="M14.12 12.14a6 6 0 1 1-8.88-7.82c.08 0 .17 0 .26.03l-.26.22a5.84 5.84 0 0 0-1.58 6.73 5.82 5.82 0 0 0 10.28.76l.18.08Z" fill="#5D4DAF"/><path d="m11.45 4.92-.18.08-.1.05a5.92 5.92 0 0 1-1 .32 2.47 2.47 0 0 1-.3.03.79.79 0 0 0-.4.13.15.15 0 0 0-.05.11 1.32 1.32 0 0 1-.02-.07.23.23 0 0 1 0-.18c.03-.06.07-.1.13-.12l.17-.04a3.25 3.25 0 0 1 .66-.03h.07c.13 0 .3-.03.5-.1l.52-.18ZM6.96 5.4c-.11 0-.23 0-.34.03a.6.6 0 0 0-.48.5.65.65 0 0 1-.01-.24v-.1a.85.85 0 0 1 .05-.06.25.25 0 0 1 .05-.05c.1-.08.21-.13.33-.15a.6.6 0 0 1 .4.07ZM10.17 5.54a10.3 10.3 0 0 0-.97.83 10.9 10.9 0 0 0-.9 1.13 5.8 5.8 0 0 1 .65-1.04c.14-.16.3-.32.5-.48.21-.18.45-.33.72-.44Z" fill="#D5BAFB"/><path d="M11.1 5.85c.02.08.07.13.14.13.12 0 .23-.02.34-.08a.17.17 0 0 0 .06-.07c.01-.02.03-.06.04-.14l.03.16v.02c.01.05.02.08.01.1l-.03.09a.41.41 0 0 1-.18.11 2.2 2.2 0 0 1-.58.08v-.01l.18-.39ZM12.97 7.74c0 .1-.03.2-.08.3 0 .02-.02.03-.03.04h-.01c-.03-.02-.04-.04-.04-.09a3.9 3.9 0 0 1-.01-.2.17.17 0 0 0-.05-.07.6.6 0 0 0-.13-.08l-.1-.07a.87.87 0 0 1-.18-.13.54.54 0 0 1-.1-.17l-.02-.1a.31.31 0 0 0-.07-.15.4.4 0 0 0-.18-.1L12 6.9h.07a.9.9 0 0 1 .62.29c.1.11.17.23.23.35.02.05.04.11.05.2Z" fill="#382E6A"/><path d="M8.98 7.16a.6.6 0 0 1 .1.2v.03c0 .01-.01.02-.03.01a.51.51 0 0 1-.2-.1.24.24 0 0 1-.07-.1.1.1 0 0 1 .03-.1c.02-.03.05-.03.1 0l.07.06ZM9.76 7.46c.03.03.03.06 0 .1a.08.08 0 0 1-.07.05L9.6 7.6a1.17 1.17 0 0 1-.17-.06.14.14 0 0 1-.04-.03l-.01-.02c0-.01 0-.02.02-.02.1-.04.21-.05.32-.03a.1.1 0 0 1 .04.02Z"/><path d="M5.66 8.03h-.21a29 29 0 0 0-.72-.06c-.1 0-.19.02-.28.06-.19.07-.35.18-.48.34a.48.48 0 0 1 .09-.17.8.8 0 0 1 .57-.32h.24a3.48 3.48 0 0 1 .79.15Z" fill="#D5BAFB"/><path d="M13.29 9.51c.08.2.1.4.06.6a.53.53 0 0 1-.04.14.12.12 0 0 1-.06.07c-.03 0-.06 0-.08-.03v-.12a.66.66 0 0 0-.16-.5 4.15 4.15 0 0 0-.36-.27.61.61 0 0 0-.17-.07 1.18 1.18 0 0 0-.25-.04c-.1 0-.19 0-.29-.02.2-.05.4-.08.6-.07.14 0 .28.03.42.08.1.04.18.09.25.15l.03.04a.1.1 0 0 0 .05.04Z" fill="#382E6A"/><path d="m5.1 11.02.04-.1c.1-.15.24-.3.4-.44a5.04 5.04 0 0 1 1-.65 8.88 8.88 0 0 1 .88-.32 31.95 31.95 0 0 0-.7.31c-.3.13-.59.3-.84.5a6.4 6.4 0 0 0-.79.7Z" fill="#D5BAFB"/><path d="M11.77 10.58c.04.11.06.23.07.35 0 .07-.01.11-.04.13h-.01a.1.1 0 0 1-.08-.04.53.53 0 0 1-.05-.12.61.61 0 0 0-.06-.14 1.1 1.1 0 0 0-.21-.26.79.79 0 0 0-.28-.17 2.48 2.48 0 0 0-.38-.07l-.13-.01h.22a.06.06 0 0 1 .04-.02l.17.01c.2.02.39.07.55.18.07.04.13.1.18.18v-.02ZM14.47 11.96c.03.03.04.06.04.1 0 .02 0 .03-.02.03h-.08a.9.9 0 0 1-.21-.07 2.65 2.65 0 0 0-2.09-.23l-.26.07a5.74 5.74 0 0 0 .23-.13c.16-.05.3-.1.43-.11.26-.04.51-.05.74-.04.22.01.44.05.66.1a1.86 1.86 0 0 1 .56.28Z" fill="#382E6A"/><path d="M5.56 11.99c-.04 0-.07.03-.08.06-.01.03 0 .06.02.1a6.1 6.1 0 0 0 .21.26c.03.06.03.12 0 .17a.3.3 0 0 1-.1.1.22.22 0 0 1-.12.05.22.22 0 0 1-.12-.03 37.45 37.45 0 0 0-.37-.41l.1-.08a22.93 22.93 0 0 0 .36.37c.02.01.05 0 .07 0 .04-.03.06-.06.06-.09a.13.13 0 0 0-.04-.09l-.14-.15a.3.3 0 0 1-.08-.16c-.01-.07.03-.14.11-.2a.2.2 0 0 1 .16-.05c.05.01.1.04.15.09a51.78 51.78 0 0 1 .27.31l-.1.09a38.03 38.03 0 0 0-.3-.33.07.07 0 0 0-.06-.01ZM11.79 12.64h-.05a.07.07 0 0 0-.03.04l.01.06.19.43a.2.2 0 0 1 .01.12.2.2 0 0 1-.06.1.35.35 0 0 1-.1.07c-.07.03-.15 0-.22-.07a106.4 106.4 0 0 0-.41-.44l.12-.1.01.01.42.45c.02.02.03.02.05.01.04-.02.05-.05.04-.09l-.2-.45c-.03-.07-.02-.13.02-.18.05-.06.1-.1.17-.1.05-.02.1 0 .16.04l.36.32c.02.02.04.02.06 0 .02 0 .03-.02.03-.04l-.01-.04a94.4 94.4 0 0 1-.29-.53l.12-.1h.02l.3.56c.04.08.03.16-.04.23-.08.07-.15.1-.23.07a.3.3 0 0 1-.08-.05l-.35-.3a.09.09 0 0 0-.02-.02ZM6.04 13.26l-.13-.08c-.17-.12-.21-.27-.13-.44.04-.08.1-.16.16-.22.12-.1.24-.12.39-.04l.16.12c.06.04.1.1.12.15a.3.3 0 0 1 .01.19.56.56 0 0 1-.1.19.6.6 0 0 1-.15.14.3.3 0 0 1-.09.04.2.2 0 0 1-.1 0l-.02.01-.02.16-.12-.07.02-.14Z" fill="#fff"/><path d="m6.1 12.93-.03.18a.6.6 0 0 1-.14-.11.16.16 0 0 1-.03-.17.5.5 0 0 1 .14-.2c.05-.05.1-.06.17-.04.03 0 .08.04.15.09h.02a.3.3 0 0 1 .1.1c.01.05.01.1 0 .14a.53.53 0 0 1-.14.2.2.2 0 0 1-.14.05s-.01 0 0 0l.02-.16-.12-.08Z"/><path d="m6.86 13.6.02.02.12.04c.04 0 .07-.02.1-.07a64.92 64.92 0 0 0 .25-.49l.1.06.01.01c-.13.26-.2.43-.25.5a.24.24 0 0 1-.09.1.2.2 0 0 1-.12.04.54.54 0 0 1-.2-.08h-.03a.54.54 0 0 1-.15-.1.2.2 0 0 1-.06-.13c0-.04 0-.08.03-.13a85.17 85.17 0 0 1 .26-.5l.11.04v.02l-.23.48c-.02.05-.02.09 0 .12l.11.07h.02ZM11.25 13.39c.03.08.04.17 0 .25a.32.32 0 0 1-.17.18l-.16.07a.32.32 0 0 1-.26 0 .32.32 0 0 1-.18-.17l-.06-.13a.32.32 0 0 1 0-.25c.03-.09.09-.15.17-.19l.17-.07a.32.32 0 0 1 .25 0c.08.03.14.09.18.17l.06.14Z" fill="#fff"/><path d="m10.8 13.21-.15.07a.2.2 0 0 0-.1.26l.06.12c.04.1.16.14.26.1l.14-.07a.2.2 0 0 0 .1-.25l-.05-.13a.2.2 0 0 0-.26-.1Z"/><path d="m7.77 13.27-.12-.04h-.01l-.28.75.13.05.28-.75ZM7.92 13.37c0-.02.01-.03.03-.04h.04l.31.06c.1.02.16.07.21.15.05.08.07.16.05.25l-.03.13a.33.33 0 0 1-.15.21.32.32 0 0 1-.25.05l-.31-.07a.06.06 0 0 1-.04-.02.06.06 0 0 1 0-.05l.14-.67ZM10.17 13.8l.25.26-.15.03h-.01l-.24-.26-.21.04-.02.02.07.29-.14.03-.07-.32c-.02-.08.01-.12.09-.14a22.79 22.79 0 0 1 .38-.1.1.1 0 0 0 .02-.1.1.1 0 0 0-.08-.08 23.1 23.1 0 0 1-.5.08l-.01-.12.36-.09a.56.56 0 0 1 .18-.01c.06 0 .1.03.13.07.04.03.06.08.06.13.01.05 0 .1-.01.14a.21.21 0 0 1-.1.11v.01ZM9.19 14.11c.04 0 .07-.01.09-.04a.12.12 0 0 0 .02-.1c0-.05-.04-.07-.1-.08a291.76 291.76 0 0 1-.18 0v-.12h.2a.2.2 0 0 1 .15.06c.03.03.05.08.06.15 0 .07-.01.13-.05.18a.21.21 0 0 1-.16.09 1.5 1.5 0 0 1-.32-.02c-.1-.04-.18-.13-.2-.26a.74.74 0 0 1 0-.19c0-.07.01-.13.04-.17a.3.3 0 0 1 .17-.15.74.74 0 0 1 .23-.02 19.34 19.34 0 0 0 .25.02v.11c0 .01 0 .02-.02.02h-.31c-.06 0-.1 0-.14.03a.18.18 0 0 0-.08.11.51.51 0 0 0 0 .17c0 .06.01.12.04.15.04.04.09.06.15.06h.16Z" fill="#fff"/><path d="M8.04 13.5c0-.02 0-.02.02-.02l.2.05c.06 0 .1.04.13.09.03.04.04.1.03.15l-.03.12a.2.2 0 0 1-.08.12.19.19 0 0 1-.15.03L7.94 14v-.02l.1-.49Z"/></svg>