<!-- by TradingView --><svg width="18" height="18" viewBox="0 0 18 18" xmlns="http://www.w3.org/2000/svg"><path fill="url(#a)" d="M0 0h18v18H0z"/><path d="M7.35 9.53c-.3.3-.3.79 0 1.08l2.19 2.17a.77.77 0 1 0 1.1-1.08l-2.2-2.17a.79.79 0 0 0-1.09 0Z" fill="url(#b)"/><path d="M14.77 8.67c.3-.3.3-.78 0-1.08a.79.79 0 0 0-1.09 0l-3.05 3.02-.55.54c-.67.67-1.6.57-1.9.28l1.36 1.34c.3.3.79.3 1.09 0l4.14-4.1Z" fill="url(#c)"/><path d="M10.65 8.47c.3-.3.3-.79 0-1.08L8.46 5.22a.77.77 0 1 0-1.1 1.08l2.2 2.17c.3.29.78.29 1.09 0Z" fill="url(#d)"/><path d="M3.23 9.33c-.3.3-.3.79 0 1.09.3.29.79.29 1.09 0l3.05-3.03.55-.54c.67-.67 1.6-.57 1.9-.28L8.46 5.23a.79.79 0 0 0-1.09 0l-4.14 4.1Z" fill="url(#e)"/><defs><linearGradient id="a" x1="3.35" y1="3.12" x2="21.9" y2="24.43" gradientUnits="userSpaceOnUse"><stop stop-color="#1A1E21"/><stop offset="1" stop-color="#06060A"/></linearGradient><linearGradient id="b" x1="5.3" y1="7.55" x2="10.92" y2="13.15" gradientUnits="userSpaceOnUse"><stop offset=".35" stop-color="#4DA5FF"/><stop offset=".51" stop-color="#40BAFF"/><stop offset=".66" stop-color="#39C7FF"/></linearGradient><linearGradient id="c" x1="4.09" y1="17.57" x2="20.72" y2=".3" gradientUnits="userSpaceOnUse"><stop offset=".39" stop-color="#6978FF"/><stop offset=".44" stop-color="#6284FF"/><stop offset=".65" stop-color="#4AABFF"/></linearGradient><linearGradient id="d" x1="8.16" y1="5.72" x2="10.14" y2="8.39" gradientUnits="userSpaceOnUse"><stop offset=".19" stop-color="#6087FF"/><stop offset=".35" stop-color="#4DA5FF"/><stop offset=".51" stop-color="#40BAFF"/><stop offset=".66" stop-color="#39C7FF"/><stop offset=".81" stop-color="#36CBFF"/><stop offset="1" stop-color="#67FFFC"/></linearGradient><linearGradient id="e" x1=".62" y1="14.83" x2="8.5" y2="5.47" gradientUnits="userSpaceOnUse"><stop offset=".36" stop-color="#6087FF"/><stop offset=".48" stop-color="#4DA5FF"/><stop offset=".59" stop-color="#40BAFF"/><stop offset=".7" stop-color="#39C7FF"/><stop offset=".81" stop-color="#36CBFF"/><stop offset="1" stop-color="#67FFFC"/></linearGradient></defs></svg>