<!-- by TradingView --><svg width="18" height="18" viewBox="0 0 18 18" xmlns="http://www.w3.org/2000/svg"><path fill="url(#a5v4b402l)" d="M0 0h18v18H0z"/><path d="M10.21 5.04a9.22 9.22 0 0 0 1.62 1.22l.11.07.31-.56-.12-.06a8.16 8.16 0 0 1-2.67-2.6L9.4 3H9v.56l.02.04c.3.49.7.98 1.2 1.44ZM8.98 3.6 9 3.56V3h-.41l-.04.1a8.15 8.15 0 0 1-2.68 2.61l-.12.06.3.55.12-.06c.13-.07.87-.51 1.62-1.23.49-.45.89-.94 1.19-1.43ZM7.2 6.58a9.3 9.3 0 0 1-2.02 1.66l-.13.06.33.57.11-.06a9.62 9.62 0 0 0 2.55-2.23H7.2ZM10.8 6.58a9.31 9.31 0 0 0 2.02 1.66l.13.06-.33.57-.11-.06a9.62 9.62 0 0 1-2.55-2.23h.85ZM13.86 11.8c-.18-.11-1.5-.93-2.5-2.2h-.89a10.62 10.62 0 0 0 3.05 2.84l.12.07.36-.64-.14-.07ZM4.14 11.8c.18-.1 1.5-.93 2.5-2.2h.89a10.63 10.63 0 0 1-3.05 2.84l-.12.07-.36-.64.14-.07ZM10.16 5.75H7.83c-.36.23-.58.41-.83.55h4c-.25-.13-.49-.32-.84-.55ZM10.85 8.5h-3.7c-.4.21-.65.38-.94.5h5.58c-.29-.12-.54-.29-.94-.5ZM11.77 11.74l-.94-1.12s-.54-.18-1.84-.18-1.8.18-1.8.18l-.96 1.12s1.3-.52 2.76-.52c1.64 0 2.78.52 2.78.52ZM10.12 12.04 9.33 12c.05.31.24.77.4 1.13a7.87 7.87 0 0 0-1.47 0c.16-.36.35-.82.4-1.13-.27 0-.53.03-.79.05-.1.35-.37.96-.57 1.36L7 14l.74-.15a7.14 7.14 0 0 1 2.5 0L11 14l-.3-.59c-.21-.4-.49-1.02-.58-1.37Z" fill="#82F7B7"/><defs><linearGradient id="a5v4b402l" x1="3.35" y1="3.12" x2="21.9" y2="24.43" gradientUnits="userSpaceOnUse"><stop stop-color="#1A1E21"/><stop offset="1" stop-color="#06060A"/></linearGradient></defs></svg>