<!-- by TradingView --><svg width="18" height="18" viewBox="0 0 18 18" xmlns="http://www.w3.org/2000/svg"><path fill="url(#alqe051sp)" d="M0 0h18v18H0z"/><path d="M11.96 5C11.93 7.13 9.83 7.67 9 7.67v2.29h5V5h-2.04Z" fill="url(#blqe051sp)"/><path d="M11.66 13H9v-3h3V5c1.24 0 2 1.07 2 2.4v3.08c0 1.36-1.07 2.52-2.34 2.52Z" fill="url(#clqe051sp)"/><path d="M6.5 10h5C9.47 10 9 12 9 12.93c-.03-2.08-1.61-2.91-2.44-2.93H6.5Z" fill="url(#dlqe051sp)"/><path d="M9.01 7.54v.3H6.43V5.02h.22c1.3 0 2.36 1.13 2.36 2.52Z" fill="url(#elqe051sp)"/><path d="M4.06 13H4V7.4C4 6.08 5 5 6.25 5h.25c0 2.07 1.52 2.66 2.25 2.67h.44c1.28 0 2.31.97 2.31 2.33H6v.34C6 11.8 5.43 13 4.06 13Z" fill="url(#flqe051sp)"/><defs><linearGradient id="alqe051sp" x1="3.35" y1="3.12" x2="21.9" y2="24.43" gradientUnits="userSpaceOnUse"><stop stop-color="#1A1E21"/><stop offset="1" stop-color="#06060A"/></linearGradient><linearGradient id="blqe051sp" x1="14" y1="5.26" x2="10.7" y2="8.15" gradientUnits="userSpaceOnUse"><stop stop-color="#2F1E58"/><stop offset="1" stop-color="#4C318D"/></linearGradient><linearGradient id="clqe051sp" x1="11.51" y1="5" x2="8.76" y2="13.52" gradientUnits="userSpaceOnUse"><stop stop-color="#7B42A1"/><stop offset=".54" stop-color="#C75693"/><stop offset="1" stop-color="#A1467A"/></linearGradient><linearGradient id="dlqe051sp" x1="7.26" y1="10.44" x2="9.51" y2="11.57" gradientUnits="userSpaceOnUse"><stop stop-color="#84354C"/><stop offset="1" stop-color="#B64A69"/></linearGradient><linearGradient id="elqe051sp" x1="6.75" y1="5.22" x2="8.06" y2="7.77" gradientUnits="userSpaceOnUse"><stop stop-color="#8454F4"/><stop offset="1" stop-color="#5D3BAC"/></linearGradient><linearGradient id="flqe051sp" x1="5.53" y1="5.31" x2="7.66" y2="12.76" gradientUnits="userSpaceOnUse"><stop stop-color="#8453EE"/><stop offset=".68" stop-color="#B456B2"/><stop offset=".98" stop-color="#201128"/></linearGradient></defs></svg>