<!-- by TradingView --><svg width="18" height="18" viewBox="0 0 18 18" xmlns="http://www.w3.org/2000/svg"><path fill="#F0F3FA" d="M0 0h18v18H0z"/><circle cx="9" cy="9" r="6" fill="#CB9E1E"/><path d="M4.8 6.8c-.64.96-1.2 2-1.4 2.4.48 3.68 2.33 5 3.2 5.2L6 13.2l-.2.2-.2-1-.2-.2v-.6l-.2-.4.2-.6-.2-.2.4-.4v-.2h.6l.4-.2.4.2v-.2l.4.2c.2.2 1.4 1 2 .6.48-.32-.33-1.47-.8-2l.4.2v-.2l.4.2v-.2l.4.4.2-.2.2-.2h.4c-.07.07-.2.32-.2.8 0 .48.27 1 .4 1.2.32-.48.27-1.67.2-2.2.4-1.6.8-4 .4-4.2-.32-.16-1.6.87-2.2 1.4h.4l.2.2h.4l-.6 1a5.83 5.83 0 0 1-.6-1h-.6v.8c-.13-.13-.4-.64-.4-1.6 0-.96-.13-1.2-.2-1.2-1.12-.16-2.47 2.07-3 3.2Z" fill="#EBC46A"/><path d="M4.6 7.4 4 8v.8l.2-.2V9l.2.6.2-1-.2-.2.2-.4h-.2l.2-.6ZM5.4 9l-.4.8.4-.4v.2l.2-.2v.2L6 9v.2l.2-.6.2.2.8-1-.8.4-.4.4-.2.2-.2.4-.2-.2Z" fill="#CB9E1E"/><path d="m8.2 8.2.4.2.4.2v-.2l.4.2v-.2l.4.4.4-.4h.4l.2-.2h-.2l-.2-.4V8l-.2-.4v.2l-.2-.4-.2.2-.4-.6v.2l-.2-.4v.6L9 7.2v.2L8.6 7l.2.6h-.4l.2.4h-.4l.4.2h-.4ZM8.4 8.6c.48.16.6.6.6.8-.16-.32-.73-.53-1-.6h.2l-.4-.2a.9.9 0 0 1 .6.2v-.2ZM10.8 8.8c-.32.16-.4.33-.4.4L11 9h-.2l.2-.2h-.2ZM3.8 10.4 4 9.2v.8l.2-.2v.8h.2l-.2 1V11c0-.16-.13-.07-.2 0v-.6h-.2Z" fill="#F9DF9D"/><path d="M8.2 9.2H8v.2h.2v-.2Z" fill="#F8F7DF"/><path fill-rule="evenodd" d="M8.6 14.6c2.85 0 5.2-2.48 5.2-5.6 0-3.12-2.35-5.6-5.2-5.6S3.4 5.88 3.4 9c0 3.12 2.35 5.6 5.2 5.6Zm0 .4c3.1 0 5.6-2.69 5.6-6s-2.5-6-5.6-6C5.5 3 3 5.69 3 9s2.5 6 5.6 6Z" fill="#F9DF9D"/><path d="m9 8.6-.4-.2c.47.53 1.28 1.68.8 2-.48.32-1.53-.27-2-.6L7 9.6v.2l-.4-.2-.4.2h-.6v.2l-.4.4.2.2-.2.6.2.4v.6l.2.2.2 1 .2-.2.6 1.2 2.2.4c.2-.13.6-.48.6-.8 0-.32.27-.53.4-.6.32.16.93.07 1.2 0 .4 0 .4-.6.6-1.2.2-.6-.2-.8-.8-1.8a2.41 2.41 0 0 1-.2-2h-.4l-.4.4-.4-.4v.2L9 8.4v.2Z" fill="#F8F7DF"/><path d="m9.8 11 .6 1-.2.2-.4-1.2ZM10.8 13.4h.2V13c-.8.4-1 .2-1.6.2-.6 0-1.4-1-1.6-1-.16 0 .47.53.8.8-.33-.2-1.04-.72-1.2-1.2-.2-.6-.4-1-1.2-.8-.8.2-.2 1 .4 1.4.6.4 2.2.6 2.4 1 .16.32.07.93 0 1.2.13-.07.4-.28.4-.6 0-.32.27-.53.4-.6.48.16.87.07 1 0ZM6.6 13.8c-.16-.16-.2-.87-.2-1.2.16.48.33.73.4.8l.2-.2c0 .32.53 1.07.8 1.4a3.38 3.38 0 0 1-1.2-1v.2Z" fill="#DCD5B8"/><path d="m9.4 8.2.2.2.2-.2.2.2.2-.4H10v-.2h-.2l-.2-.2v.2L9.2 7v1l-.4.2h.6Z" fill="#CDA01F"/><path d="M6 5.4C6.64 4.12 7.33 3.93 7.6 4c.07-.07.2-.04.2.6 0 .8.2 1.6.2 2 0 .4-.4.6-1 .8-.6.2-1 .8-1.4 1-.4.2-.4-1.4.4-3ZM9.6 6.6a7.09 7.09 0 0 1 1.4-2c.64.32.13 2.27-.2 3.2-.16-.48-.87-1-1.2-1.2ZM10.2 12.2c0-.32.53-.4.8-.4.13 0 .44.04.6.2.2.2-.4 1-.6 1-.4 0-.8-.4-.8-.8ZM8.2 9.8c-.32 0-.53-.4-.6-.6a.96.96 0 0 1 .8 0c.4.2.4.6.4.8 0 .2-.2-.2-.6-.2ZM10.8 9.2l-.4.2.2.6c.16-.16.2-.6.2-.8Z" fill="#604D25"/><path d="M6.4 6c0-1.6.8-2 1.2-2 .07-.07.2-.08.2.4 0 .6.2 1.4.2 2.2 0 .64-.67.67-1 .6V7h-.4v-.4l-.2.2V6ZM10.4 6.2c0-.48.4-1.27.6-1.6.64.16.27 1.8 0 2.6l-.2-.2-.2-.2c-.07 0-.2-.12-.2-.6ZM11.4 12.2h-1c.13 0 .4.04.4.2s-.27.07-.4 0c.16.48.47.33.6.2.16.16.33.07.4 0-.16 0-.2-.13-.2-.2.16 0 .2-.13.2-.2ZM7.8 9.4c0-.16.13-.2.2-.2v.4c-.07 0-.2-.04-.2-.2ZM8.4 9.8c.07 0 .2-.08.2-.4.07.2.12.56-.2.4ZM10.8 9.4h-.2s-.04.39 0 .4c.04.01.2-.2.2-.4Z" fill="#9E7A2C"/><path d="M8.2 9.2H8v.2h.2v-.2ZM10.6 9.4c-.07.07-.16.24 0 .4v-.4Z" fill="#F8F7DF"/></svg>