<!-- by TradingView --><svg width="18" height="18" viewBox="0 0 18 18" xmlns="http://www.w3.org/2000/svg"><path fill="#1FFEAB" d="M0 0h18v18H0z"/><path d="M7.43 6.45a.26.26 0 0 1-.15-.01.38.38 0 0 0-.15-.02c-.08 0-.18.02-.29.05a.63.63 0 0 0-.25.17c-.22.2-.38.38-.49.5-.17.22-.3.46-.38.74-.05.15-.07.32-.07.5s.01.35.04.52c0 .07.02.07.04 0 .1-.4.38-.59.83-.54.49.05 1.01.3 1.58.77a5.07 5.07 0 0 1 1.34 1.7c.15.3.2.62.16.97a.5.5 0 0 1-.03.11.75.75 0 0 0-.03.08c0 .02 0 .03-.02.04l-.2.2a.08.08 0 0 1-.05.02l-.1.01c-.14.02-.14.04 0 .07.32.07.65.06.97-.04a2.11 2.11 0 0 0 .9-.55c.2-.2.33-.34.39-.45.1-.17.13-.37.08-.59v-.08c0-.03 0-.06.02-.07.43-.46.76-.89.98-1.29.29-.5.44-1.01.45-1.52 0-.09 0-.2-.03-.33-.1-.59-.23-1.19-.42-1.8a.24.24 0 0 0-.18-.17 63.1 63.1 0 0 0-1.27-.34A4.02 4.02 0 0 0 10.08 5a3.24 3.24 0 0 0-1.65.65c-.26.18-.55.42-.88.71a.35.35 0 0 1-.12.08ZM5.9 11.21a9.48 9.48 0 0 0-.48.9l-.08.16-.12.24a3.44 3.44 0 0 0-.22.48h.06c.6-.3 1.28-.64 2.03-1.04.25-.14.49-.28.71-.43a.92.92 0 0 0 .42-.62.88.88 0 0 0-.1-.66 1 1 0 0 0-.97-.48c-.1 0-.19.03-.28.09a1 1 0 0 0-.24.18l-.22.26-.5.92Z" fill="#fff"/></svg>