<!-- by TradingView --><svg width="18" height="18" viewBox="0 0 18 18" xmlns="http://www.w3.org/2000/svg"><path fill="url(#a)" d="M0 0h18v18H0z"/><path d="M12 4.52v1.14a.01.01 0 0 1-.01.01h-.01l-.97-.5a.01.01 0 0 1-.01-.01V4l.01-.01h.01l.97.5v.01H12ZM7.17 8.28l-1.14.57a.02.02 0 0 1-.02 0L6 8.84V6.36l4.71-2.35a.02.02 0 0 1 .02 0v1.17L7.19 6.94v1.32l-.01.01Zm4.68-2.46-1-.49a.02.02 0 0 0-.01 0L7.52 7a.02.02 0 0 0 0 .03l1.04.54a.02.02 0 0 0 .02 0l3.27-1.7.01-.01a.02.02 0 0 0 0-.02Zm.07 3.77-1.01.55h-.02L7.34 8.29v-1.1a.02.02 0 0 1 .02 0l4.56 2.37v.02Zm-1.12 1.78.03-1.14v-.01L7.34 8.44a.01.01 0 0 0-.01 0l-1.16.57v.02l4.62 2.35a.01.01 0 0 0 .01 0ZM12 9.7v1.12h-.01l-.96.56a.02.02 0 0 1-.03-.01v-1.12h.01l.01-.02.95-.55a.02.02 0 0 1 .02 0v.01l.01.01Zm-5.97 3.55 1.14-.54.01-.01V9.92a.02.02 0 0 0-.02 0L6 10.53v2.7h.02Zm1.33-3.33.96.48h.01V13.23H8.3l-.97-.5V9.9a.02.02 0 0 1 .02 0Zm.87 3.49-.95-.53h-.02l-1.13.53v.01a.01.01 0 0 0 0 .01v.01l1.02.57h.01l1.07-.58v-.02Z"/><defs><linearGradient id="a" x1="15.38" y1="0" x2="0" y2="16.01" gradientUnits="userSpaceOnUse"><stop stop-color="#09D2FE"/><stop offset=".52" stop-color="#507CFF"/><stop offset="1" stop-color="#926BFF"/></linearGradient></defs></svg>