<!-- by TradingView --><svg width="18" height="18" viewBox="0 0 18 18" xmlns="http://www.w3.org/2000/svg"><path fill="url(#a)" d="M0 0h18v18H0z"/><path d="m5.63 8.82.77.38.18.08.04.02L9 7.96l2.54 1.43c.26.15.46.43.46.73v.06c0 .3-.2.58-.46.73l-.27.15a17.77 17.77 0 0 0 1.28.31c.29-.32.45-.75.45-1.19V7.81c0-.66-.36-1.27-.95-1.6l-2.1-1.19-.03-.01L9.9 5 9 4.5l-.88.5a.77.77 0 0 1-.07.02l-2.1 1.19c-.59.33-.95.94-.95 1.6v.65l.63.36ZM6 7.72c0-.3.2-.49.46-.64L9 5.65l2.54 1.43a.9.9 0 0 1 .46.75v.66L9.95 7.33l-.03-.01-.02-.01-.9-.5-.88.49a.51.51 0 0 1-.04.01l-.03.02L6 8.47V7.7Zm3.51 4.23-.66.39-2.44-1.43a.84.84 0 0 1-.38-.5c-.35-.2-.68-.42-1-.65l-.01-.01A.4.4 0 0 0 5 9.74v.62h.01c.06.6.4 1.13.9 1.42l1.16.68.87.5.01.01h.01l.9.53.88-.52h.01l.02-.01 1.14-.67c-.46-.09-.93-.2-1.4-.35Zm5.14-1.58c.1.12.17.26.24.4.06.15.11.3.11.48s-.07.37-.19.5a1.1 1.1 0 0 1-.41.28 3.9 3.9 0 0 1-.9.19c-.6.03-1.18-.01-1.76-.1a14.61 14.61 0 0 1-4.97-1.67 14.64 14.64 0 0 1-2.87-2.1 6.5 6.5 0 0 1-.24-.25l-.04-.04a2.96 2.96 0 0 1-.14-.17l-.03-.03a3.34 3.34 0 0 1-.34-.54c-.06-.14-.11-.3-.11-.47 0-.17.07-.34.19-.46.11-.12.26-.2.4-.25a3.92 3.92 0 0 1 .88-.15c.41-.02.83 0 1.25.05l-.3.24-.1-.02a5.83 5.83 0 0 0-1.26-.03 1.8 1.8 0 0 0-.4.1.82.82 0 0 0-.33.2.46.46 0 0 0-.12.32c0 .13.04.25.1.37.06.12.14.24.23.35.17.21.38.4.6.58.2.17.43.33.65.48l.14.09h.02l.01.02.06.03a3.12 3.12 0 0 1 .05.03l.06.04.08.05.1.06.04.02.03.02a9.4 9.4 0 0 0 .54.3h.01l.38.18.2.1.15.07a36.21 36.21 0 0 0 3.56 1.45l.1.04.06.02.64.2h.01l.4.11h.01l.4.11.12.03.06.01a.42.42 0 0 0 .04.01l.05.01.12.03h.04a.4.4 0 0 1 .03.01l.17.03a6.67 6.67 0 0 0 1.43.1c.14-.01.27-.04.39-.08.24-.07.45-.23.44-.46a.88.88 0 0 0-.1-.36 2 2 0 0 0-.23-.34 4.45 4.45 0 0 0-.58-.59 8.6 8.6 0 0 0-.73-.55v-.5c.33.24.66.5.96.78.22.2.42.42.6.67Zm.24.4Z" fill="url(#b)"/><defs><linearGradient id="a" x1="3.35" y1="3.12" x2="21.9" y2="24.43" gradientUnits="userSpaceOnUse"><stop stop-color="#1A1E21"/><stop offset="1" stop-color="#06060A"/></linearGradient><linearGradient id="b" x1="6.55" y1="4.13" x2="11.67" y2="13.97" gradientUnits="userSpaceOnUse"><stop stop-color="#01FEA8"/><stop offset=".51" stop-color="#46A5FF"/><stop offset="1" stop-color="#D632FF"/></linearGradient></defs></svg>