<!-- by TradingView --><svg width="18" height="18" viewBox="0 0 18 18" xmlns="http://www.w3.org/2000/svg"><path fill="#F0F3FA" d="M0 0h18v18H0z"/><path d="M15 9a5.94 5.94 0 0 1-1.76 4.24A5.94 5.94 0 0 1 9 15a5.94 5.94 0 0 1-4.24-1.76 5.94 5.94 0 0 1-1.3-6.54A5.94 5.94 0 0 1 9 3a5.94 5.94 0 0 1 4.24 1.76A5.94 5.94 0 0 1 15 9Zm-11.77.82a5.81 5.81 0 0 0 11.55-.14A5.81 5.81 0 0 0 3.66 6.66a5.82 5.82 0 0 0-.43 3.16Zm.87-1.45a7.42 7.42 0 0 1-.04.44 11.69 11.69 0 0 0 .03.66 4.86 4.86 0 0 0 1.1 2.77 4.76 4.76 0 0 0 2.72 1.69c.01 0 .02 0 .02-.02v-.43c0-.01 0-.02-.02-.02a4.25 4.25 0 0 1-1.87-.98A4.62 4.62 0 0 1 4.5 9.14a4.69 4.69 0 0 1 1.02-3.1 4.31 4.31 0 0 1 2.41-1.56v-.43l-.01-.02a4.76 4.76 0 0 0-3.35 2.69 5.36 5.36 0 0 0-.47 1.65Zm9.39 1.04a4.94 4.94 0 0 0-1.09-3.48 4.33 4.33 0 0 0-2.31-1.42c-.02 0-.03-.02-.03-.03v-.43c0-.02.01-.02.02-.02a4.7 4.7 0 0 1 2.57 1.5 5.02 5.02 0 0 1 1.25 2.78 5.89 5.89 0 0 1-.05 1.66 5.08 5.08 0 0 1-1.53 2.8 4.66 4.66 0 0 1-2.26 1.14v-.43c0-.02 0-.03.02-.03l.32-.08a4.47 4.47 0 0 0 2.77-2.63c.17-.42.27-.87.32-1.33ZM8.7 12.13h.04v.85c0 .01 0 .02.02.02h.46c.01 0 .02 0 .02-.02v-.87c0-.02.01-.03.03-.03h.35a1.36 1.36 0 0 0 1.1-.54c.16-.2.24-.44.26-.7a7.9 7.9 0 0 0 0-.75c0-.2-.04-.36-.1-.5-.1-.2-.25-.38-.47-.52-.2-.12-.4-.2-.64-.26l-1.43-.27a1.04 1.04 0 0 1-.46-.22.66.66 0 0 1-.25-.44 3.98 3.98 0 0 1 0-.69.7.7 0 0 1 .17-.43.8.8 0 0 1 .39-.25c.12-.04.3-.05.5-.05h.62c.2 0 .35.01.46.05a.91.91 0 0 1 .53.64l.05.34c0 .02 0 .02.02.02h.47c.01 0 .02 0 .02-.02.02-.05.03-.1.02-.16a1.62 1.62 0 0 0-.17-.69c-.27-.5-.72-.76-1.37-.77h-.08v-.85c0-.01 0-.02-.02-.02h-.47c-.01 0-.02 0-.02.02v.83c0 .01 0 .02-.02.02a2.2 2.2 0 0 0-.48.04.13.13 0 0 1-.04.01c-.23.04-.44.12-.62.26-.2.14-.35.32-.43.53-.06.16-.1.37-.1.61 0 .26 0 .47.02.64.03.3.16.55.39.76.2.2.45.32.75.38l1.35.25c.57.1.85.38.86.83l-.01.63a.7.7 0 0 1-.24.47.95.95 0 0 1-.7.25H8.6c-.37 0-.64-.13-.81-.38-.17-.24-.24-.5-.23-.79 0-.02-.01-.03-.03-.03h-.51l-.02.01c0 .36.06.67.2.95a1.47 1.47 0 0 0 1.08.8c.15.03.3.04.43.04Z"/></svg>