<!-- by TradingView --><svg width="18" height="18" viewBox="0 0 18 18" xmlns="http://www.w3.org/2000/svg"><path fill="#F0F3FA" d="M0 0h18v18H0z"/><path d="M8.84 10.93 6 9.03V9H6V5L6.01 5 9 3a.02.02 0 0 1 .03 0l2.97 2 .01.01v1.56l-.01.01a.02.02 0 0 1-.02 0L9.02 4.61a.02.02 0 0 0-.03 0L7.4 5.8h-.01V8.22l1.48 1.13v.01l.01.01v1.56l-.01.01a.02.02 0 0 1-.02 0Zm3.76-2.16-1.72-1.19a.02.02 0 0 0-.01 0l-2 .98-.01.01v.37l-.01.01a.02.02 0 0 1-.02 0l-1.22-.78v-.4l3.26-1.79a.02.02 0 0 1 .01 0l3.11 2a.02.02 0 0 1 .01.01V12l-3.12 2a.02.02 0 0 1-.01 0l-1.62-1.04v-.01a.02.02 0 0 1 0-.03l1.21-.78a.02.02 0 0 1 .02 0l.39.25a.02.02 0 0 0 .02 0l1.71-1.19h.01V8.76ZM9 9.05V11.2l-.02.01-1.84 1.19H7.1L5.4 11.2h-.01V8.77l.16-.2.01-.02V7a.02.02 0 0 0-.04 0l-1.5.98-.02.01V12l.01.01 3.1 2h.03l3.22-2.02V8.23a.02.02 0 0 0-.03 0L9 9.03 9 9.05Z" fill="#4153A4"/></svg>