<!-- by TradingView --><svg width="18" height="18" viewBox="0 0 18 18" xmlns="http://www.w3.org/2000/svg"><path fill="#F0F3FA" d="M0 0h18v18H0z"/><path d="M10.1 12.03c-.03.01-.03.02 0 .03h.03l.17.07c.25.13.48.3.7.5.04.04.08.08.13.1 0 .02.02.03.03.03.05.04.1.07.13.12v.04l-.22.1a.73.73 0 0 0-.23.19 2.13 2.13 0 0 1-.24.23.02.02 0 0 0 0 .02c.08.04.14.08.18.14.13.2.24.41.24.67a6.72 6.72 0 0 1-.04.73.23.23 0 0 1-.08-.07c-.19-.24-.43-.44-.67-.63l-.24-.2c-.32-.26-.63-.52-.96-.76a5.6 5.6 0 0 0-1.16-.66 2.3 2.3 0 0 0-1.19-.2 1.8 1.8 0 0 0-.65.25.73.73 0 0 0-.22.23.3.3 0 0 1-.16.11h-.03a.3.3 0 0 1-.08-.2v-.03a.7.7 0 0 1 .17-.12l.48-.22a.58.58 0 0 0 .28-.25c.02-.04.01-.07-.02-.09l-.15-.13a.03.03 0 0 1 0-.01.03.03 0 0 1 0-.03l.59-.45c.13-.1.27-.19.42-.24a.2.2 0 0 0 .13-.14v-.04c-.09-.36.09-.83.26-1.13.3-.5.66-.93 1.1-1.28.16-.14.33-.24.5-.3.09-.04.17-.1.25-.15a2.74 2.74 0 0 0 1.16-1.94l.01-.06c.05-.33-.05-.77-.16-1.08a2.54 2.54 0 0 0-1.47-1.5 3.73 3.73 0 0 0-1.54-.34c-.14 0-.3.03-.48.08-.22.07-.43.14-.64.23-.26.1-.46.25-.62.45a.68.68 0 0 1-.22.18c-.06.03-.07.02-.03-.05l.14-.21c.1-.15.21-.27.35-.38a3.06 3.06 0 0 1 3.13-.36c.04.03.09.04.14.05.05.01.1 0 .16-.01l.09-.02c.06 0 .13.05.19.1a.42.42 0 0 0 .3.08c.07 0 .12 0 .18.02a8.43 8.43 0 0 0 .5.2v-.01a.71.71 0 0 1-.09-.11c-.02-.03-.01-.04.02-.03l.18.07c.07.04.09.11.1.19l.03.06c.01.05.02.05.03 0a21.06 21.06 0 0 1 .05-.2h.01v.01a.5.5 0 0 1 .06.24c0 .08 0 .17.05.23l.02.01c.03.03.06.06.07.09.1.19.11.37.04.54v.01a.01.01 0 0 0 0 .01h.02l.1-.04a.02.02 0 0 1 .02 0 .02.02 0 0 1 0 .02c-.02.12-.1.17-.17.23a.49.49 0 0 0-.16.17v.03c0 .02.02.03.03.05l.05.08c.07.13.14.25.23.36a4.64 4.64 0 0 1 .3.47c0 .16 0 .3.09.43l.08.1c.04.05.1.1.12.18.07.18.01.36-.05.54l-.02.05c-.05.14-.01.24.05.36.09.15.2.29.32.43l.04.05c.17.2.33.36.47.47.13.12.17.24.17.42 0 .04-.01.08-.04.12l-.1.11a.54.54 0 0 1-.24.11l-.07.02a.01.01 0 0 0 0 .02c.13.14.25.33.26.54a.03.03 0 0 1-.02.02l-.03.03c-.06.03-.1.04-.12.14a.07.07 0 0 1-.02.04l-.02.01-.3.07a.03.03 0 0 1-.02-.01.03.03 0 0 1 0-.04l.02-.08v-.01a.02.02 0 0 0-.02 0c-.05 0-.05.06-.06.1 0 .03 0 .05-.02.07l-.01.02a.05.05 0 0 1-.02.01c-.17.07-.33.2-.24.44a2.38 2.38 0 0 0 .03.07c.06.14.13.31.08.44a.37.37 0 0 1-.16.2c-.13.07-.26.12-.4.16a.32.32 0 0 1-.2 0 1.93 1.93 0 0 0-.25-.06.75.75 0 0 0-.36.05c-.2.07-.4.14-.57.23Z" fill="url(#asrqljoc4)"/><path d="M6.95 4.8c-.05-.13-.09-.26-.1-.38a.1.1 0 0 1 0-.06c.05-.1.13-.16.24-.18l.37-.09A.65.65 0 0 0 7.7 4l.02-.01h.02c.05.02.08.08.06.14a35.55 35.55 0 0 0-.5 1.2.03.03 0 0 1-.01.01c-.05 0-.1 0-.13-.06l-.2-.46Z" fill="url(#bsrqljoc4)"/><path d="M9.07 4.41c.07-.05.01-.15-.05-.17a8.74 8.74 0 0 0-.98-.26l-.02.03a.83.83 0 0 0 .02.44 22.44 22.44 0 0 1 .21.7c.07.05.16-.06.22-.14a.83.83 0 0 1 .04-.04l.09-.1c.15-.16.3-.32.47-.46Z" fill="url(#csrqljoc4)"/><path d="m8.1 5.3.03.03c.03.06.08.12.06.19l-.03.16-.05.22-.05.42a1.05 1.05 0 0 1-.06.24h-.04L7.56 6c-.07-.1-.13-.2-.17-.3v-.04l.03-.09v-.04l-.03-.08a.3.3 0 0 1-.03-.13c0-.05.01-.09.03-.13.16-.28.28-.59.38-.91a.96.96 0 0 1 .09-.2h.02a.04.04 0 0 1 .03 0l.02.03a48.38 48.38 0 0 0 .24 1.07l-.07.07v.03Z" fill="url(#dsrqljoc4)"/><path d="M5.94 5.09a1.69 1.69 0 0 0 .2.09l-.27-.05h-.02l-.02.01c-.04.05-.08.05-.13.06h-.03a.32.32 0 0 0-.03.01h-.01l-.01.02-.02.05-.04.1-.02.03-.01.02-.04.07a2.34 2.34 0 0 1-.28.43v.04l.04.1c.01.03.04.05.07.05a3.77 3.77 0 0 1 .7.1l.02.01c.05.02.09.04.13.02a5.4 5.4 0 0 0 .87-.6l-.02-.12a.04.04 0 0 0 0-.02L7 5.49a16.92 16.92 0 0 0-.8-.29h-.01.07l.15.05c.19.04.37.09.53.19.04.02.07.02.1-.01.06-.05.08-.11.05-.2a3.85 3.85 0 0 0-.18-.48 2.92 2.92 0 0 1-.14-.32.07.07 0 0 0-.04-.02H6.6a5.07 5.07 0 0 1-.72.53v.02c0 .06.02.1.06.13Z" fill="url(#esrqljoc4)"/><path d="M9.3 5.2c-.05-.06-.1-.15-.07-.23.04-.12.04-.26.04-.4a8.96 8.96 0 0 1 .02-.13.06.06 0 0 1 .02-.02.06.06 0 0 1 .02 0h.02l.03.01c.1.1.2.2.3.27l.4.31a1 1 0 0 1 .24.27v.01l-.01.01h-.01l-.83.06a.05.05 0 0 1-.03-.01h-.01l-.13-.16Z" fill="url(#fsrqljoc4)"/><path d="M9.03 5.45c0-.1.04-.16.1-.24a.41.41 0 0 0 .05-.28c-.01-.13 0-.26.02-.4v-.07l-.02-.02a.04.04 0 0 0-.05 0h-.01c-.1.12-.19.22-.3.3l-.3.28c-.11.12-.2.28-.1.45a6.93 6.93 0 0 0 .63.85h.02a.13.13 0 0 0 .07-.1c.03-.24.04-.54-.1-.74v-.03Z" fill="url(#gsrqljoc4)"/><path d="M10.41 5.62a.65.65 0 0 0-.03.2c0 .12-.01.23-.03.34-.02.12-.12.13-.19.06l-.31-.27a1.94 1.94 0 0 1-.44-.43.07.07 0 0 1 0-.03c.02-.05.06-.06.1-.06.15.02.3 0 .45-.04a1.3 1.3 0 0 1 .35 0l.01.01a.47.47 0 0 0 .03.04c.04.05.09.11.06.18Z" fill="url(#hsrqljoc4)"/><path d="M8.17 6.11a1 1 0 0 1-.06.24c-.03.1-.03.19.02.28l.03.02h.03l.76-.13a.03.03 0 0 0 .01 0 .05.05 0 0 0 0-.01l.01-.01A.24.24 0 0 0 9 6.39c0-.02 0-.03-.02-.04a5.03 5.03 0 0 1-.63-.85c-.02-.03-.04-.05-.07-.04a.05.05 0 0 0-.02.01l-.02.03a28.32 28.32 0 0 1-.08.61Z" fill="url(#isrqljoc4)"/><path d="M9.37 6.58c.03-.14-.02-.26-.16-.29l-.02-.01v-.03l.01-.56c0-.03.01-.05.04-.06a.32.32 0 0 1 .11-.03h.02l.02.01c.04.06.08.1.12.13l.22.17.25.19a.78.78 0 0 1 .18.22.06.06 0 0 1 0 .02l-.01.23-.02.04a4.86 4.86 0 0 1-.65.57c-.06.05-.17-.03-.19-.1-.03-.11-.04-.22-.05-.32 0-.02 0-.03.02-.04l.1-.11.01-.03Z" fill="url(#jsrqljoc4)"/><path d="M6.79 6.4a31.82 31.82 0 0 1 .94.22c.06.03.13.06.18 0v-.03c-.06-.07-.1-.14-.15-.22l-.35-.54c-.03-.05-.09-.09-.14-.1h-.22a5.55 5.55 0 0 1-.69.5v.03l.02.02c.08.07.2.09.3.1.04 0 .07 0 .1.02Z" fill="url(#ksrqljoc4)"/><path d="m6.25 6.67.02-.19v-.02l.03-.02h.02l.02.02c.1.15.24.28.4.4l.09.1.05.07a.66.66 0 0 0 .03.07l.02.02a.48.48 0 0 0 .08.08h.02c.06.06.13.11.16.2a.05.05 0 0 1 0 .04.05.05 0 0 1-.03.02h-.01l-.6.06-.02-.02c-.02-.05-.05-.1-.09-.11a1.06 1.06 0 0 1-.08-.04l-.03-.02V7.3a2.12 2.12 0 0 0-.06-.4v.12l.01.03v.03a8.71 8.71 0 0 1 0 .29.05.05 0 0 1-.04 0 .04.04 0 0 1-.02 0c-.11-.1-.22-.2-.32-.32l-.34-.44-.15-.18-.16-.16a.2.2 0 0 1-.03-.08v-.01a.04.04 0 0 1 .01-.02.03.03 0 0 1 .02-.01h.02a2.57 2.57 0 0 0 .8.14l.04.05c.08.1.13.17.14.33Z" fill="url(#lsrqljoc4)"/><path d="M5.05 6.93c0 .06-.01.13-.04.2-.03.1.01.29.04.39 0 .01 0 .02.02.03l.03.01h1.03a.03.03 0 0 0 .02-.01l.01-.02c.03-.08 0-.16-.07-.24a1.94 1.94 0 0 0-.11-.11 1.7 1.7 0 0 1-.19-.2 8.96 8.96 0 0 0-.2-.24l-.1-.14-.13-.17a2.73 2.73 0 0 0-.2-.17l-.03.01c-.06.03-.07.18-.07.24l-.01.42Z" fill="url(#msrqljoc4)"/><path d="M6.94 7.03 6.8 6.9a2.86 2.86 0 0 1-.43-.5V6.4a.05.05 0 0 1 .05-.02c.12 0 .24.03.34.06l.58.16a2.61 2.61 0 0 0 .48.1c.11.11.18.24.17.4l.01.25c.03.19.04.35.02.5 0 .04-.03.07-.08.08h-.03a1.4 1.4 0 0 0-.35-.27.36.36 0 0 1-.12-.1.28.28 0 0 1-.04-.11c-.01-.08-.02-.14-.15-.1l-.04-.01a2.66 2.66 0 0 0-.29-.31Z" fill="url(#nsrqljoc4)"/><path d="M8.2 7.95c.28-.1.57-.27.84-.44.17-.1.24-.27.2-.48L9.22 7l-.01-.04a38.05 38.05 0 0 1-.06-.22h-.01a.3.3 0 0 1-.1-.1c-.03-.03-.05-.04-.09-.04a130.25 130.25 0 0 0-.78.13.08.08 0 0 0-.02.03.25.25 0 0 1-.09.1v.02c-.02.28-.02.57 0 .86.02.08.05.15.1.22a.03.03 0 0 0 .02 0Z" fill="url(#osrqljoc4)"/><path d="M6.8 8.72c.02-.06 0-.16-.06-.19-.05-.02-.09-.04-.12-.1a9.24 9.24 0 0 1-.18-.65l.02-.02a.5.5 0 0 0 .1-.14.1.1 0 0 1 .08-.05l.39-.05c.09-.02.17 0 .23.08l.02.03v.25a5494.92 5494.92 0 0 0-.01 1.05l-.02.39c0 .05 0 .05-.04.02l-.36-.43c-.05-.06-.07-.12-.05-.19Z" fill="url(#psrqljoc4)"/><path d="M5.82 7.59a2.11 2.11 0 0 1-.65.02c-.07 0-.1.03-.12.1v.02c.17.22.31.45.44.7.04.05.08.07.13.03.13-.09.24-.23.34-.37l.03-.04c.06-.08.13-.19.19-.32.09-.18-.3-.15-.36-.14Z" fill="url(#qsrqljoc4)"/><path d="M7.86 8.42a9.27 9.27 0 0 1-.53.86l-.01-.02a.64.64 0 0 1 0-.07V7.66c0-.03.01-.05.04-.06.05 0 .09 0 .12.04l.1.12a7.07 7.07 0 0 0 .34.26c0 .07 0 .13.03.18v.04l-.1.18Z" fill="url(#rsrqljoc4)"/><path d="M6.58 8.5a.86.86 0 0 0-.05-.2 2.33 2.33 0 0 1-.13-.49h-.02l-.1-.04a.07.07 0 0 0-.06.01 3.15 3.15 0 0 1-.47.65.17.17 0 0 0-.04.1l.01.05.03.02c.22.04.42.05.62.03a.3.3 0 0 0 .2-.1.05.05 0 0 0 0-.03Z" fill="url(#ssrqljoc4)"/><defs><linearGradient id="asrqljoc4" x1="5" y1="8.34" x2="13" y2="8.26" gradientUnits="userSpaceOnUse"><stop stop-color="#18AEF1"/><stop offset="1" stop-color="#36EDB5"/></linearGradient><linearGradient id="bsrqljoc4" x1="5" y1="8.34" x2="13" y2="8.26" gradientUnits="userSpaceOnUse"><stop stop-color="#18AEF1"/><stop offset="1" stop-color="#36EDB5"/></linearGradient><linearGradient id="csrqljoc4" x1="5" y1="8.34" x2="13" y2="8.26" gradientUnits="userSpaceOnUse"><stop stop-color="#18AEF1"/><stop offset="1" stop-color="#36EDB5"/></linearGradient><linearGradient id="dsrqljoc4" x1="5" y1="8.34" x2="13" y2="8.26" gradientUnits="userSpaceOnUse"><stop stop-color="#18AEF1"/><stop offset="1" stop-color="#36EDB5"/></linearGradient><linearGradient id="esrqljoc4" x1="5" y1="8.34" x2="13" y2="8.26" gradientUnits="userSpaceOnUse"><stop stop-color="#18AEF1"/><stop offset="1" stop-color="#36EDB5"/></linearGradient><linearGradient id="fsrqljoc4" x1="5" y1="8.34" x2="13" y2="8.26" gradientUnits="userSpaceOnUse"><stop stop-color="#18AEF1"/><stop offset="1" stop-color="#36EDB5"/></linearGradient><linearGradient id="gsrqljoc4" x1="5" y1="8.34" x2="13" y2="8.26" gradientUnits="userSpaceOnUse"><stop stop-color="#18AEF1"/><stop offset="1" stop-color="#36EDB5"/></linearGradient><linearGradient id="hsrqljoc4" x1="5" y1="8.34" x2="13" y2="8.26" gradientUnits="userSpaceOnUse"><stop stop-color="#18AEF1"/><stop offset="1" stop-color="#36EDB5"/></linearGradient><linearGradient id="isrqljoc4" x1="5" y1="8.34" x2="13" y2="8.26" gradientUnits="userSpaceOnUse"><stop stop-color="#18AEF1"/><stop offset="1" stop-color="#36EDB5"/></linearGradient><linearGradient id="jsrqljoc4" x1="5" y1="8.34" x2="13" y2="8.26" gradientUnits="userSpaceOnUse"><stop stop-color="#18AEF1"/><stop offset="1" stop-color="#36EDB5"/></linearGradient><linearGradient id="ksrqljoc4" x1="5" y1="8.34" x2="13" y2="8.26" gradientUnits="userSpaceOnUse"><stop stop-color="#18AEF1"/><stop offset="1" stop-color="#36EDB5"/></linearGradient><linearGradient id="lsrqljoc4" x1="5" y1="8.34" x2="13" y2="8.26" gradientUnits="userSpaceOnUse"><stop stop-color="#18AEF1"/><stop offset="1" stop-color="#36EDB5"/></linearGradient><linearGradient id="msrqljoc4" x1="5" y1="8.34" x2="13" y2="8.26" gradientUnits="userSpaceOnUse"><stop stop-color="#18AEF1"/><stop offset="1" stop-color="#36EDB5"/></linearGradient><linearGradient id="nsrqljoc4" x1="5" y1="8.34" x2="13" y2="8.26" gradientUnits="userSpaceOnUse"><stop stop-color="#18AEF1"/><stop offset="1" stop-color="#36EDB5"/></linearGradient><linearGradient id="osrqljoc4" x1="5" y1="8.34" x2="13" y2="8.26" gradientUnits="userSpaceOnUse"><stop stop-color="#18AEF1"/><stop offset="1" stop-color="#36EDB5"/></linearGradient><linearGradient id="psrqljoc4" x1="5" y1="8.34" x2="13" y2="8.26" gradientUnits="userSpaceOnUse"><stop stop-color="#18AEF1"/><stop offset="1" stop-color="#36EDB5"/></linearGradient><linearGradient id="qsrqljoc4" x1="5" y1="8.34" x2="13" y2="8.26" gradientUnits="userSpaceOnUse"><stop stop-color="#18AEF1"/><stop offset="1" stop-color="#36EDB5"/></linearGradient><linearGradient id="rsrqljoc4" x1="5" y1="8.34" x2="13" y2="8.26" gradientUnits="userSpaceOnUse"><stop stop-color="#18AEF1"/><stop offset="1" stop-color="#36EDB5"/></linearGradient><linearGradient id="ssrqljoc4" x1="5" y1="8.34" x2="13" y2="8.26" gradientUnits="userSpaceOnUse"><stop stop-color="#18AEF1"/><stop offset="1" stop-color="#36EDB5"/></linearGradient></defs></svg>