<!-- by TradingView --><svg width="18" height="18" viewBox="0 0 18 18" xmlns="http://www.w3.org/2000/svg"><path fill="#F0F3FA" d="M0 0h18v18H0z"/><path d="M9 15c2.2 0 4-1.76 4-3.94 0-1.33-1.2-3.53-2.3-5.58C9.99 4.17 9.3 2.92 9 2c-.31.92-.99 2.17-1.7 3.48C6.2 7.53 5 9.73 5 11.06 5 13.24 6.8 15 9 15ZM6.2 9.88c.27.72 1.04 2.2 2 2.36-.4.2-1.32.44-1.8-.2-.48-.62-.33-1.7-.2-2.16Z" fill="url(#a)"/><defs><linearGradient id="a" x1="11.4" y1="6.53" x2="6.51" y2="14.08" gradientUnits="userSpaceOnUse"><stop stop-color="#6266B0"/><stop offset=".39" stop-color="#2594D2"/><stop offset="1" stop-color="#3ABD9D"/></linearGradient></defs></svg>