<!-- by TradingView --><svg width="18" height="18" viewBox="0 0 18 18" xmlns="http://www.w3.org/2000/svg"><path fill="#181B1E" d="M0 0h18v18H0z"/><path d="M5.97 8.61c.27 2.69.87 4 4.15 3.33 1.55-.3 2.86-.67 4.5-.41 0 0 .68.15.22.14-.6-.01-2.44.82-3.87 1.64-.89.5-1.74.7-2.5.69-2.2 0-3.57-1.98-2.5-5.39Z" fill="url(#axdsmj5n5)"/><path d="M6.24 8.45c-.53.71-.87 1.3-.86 1.83 0 .57.43 1.08 1.45 1.63.24.13 2.67 1.59 2.67 2.09-.02.02-.26-.58-2.86-1.03-1.45-.26-2.3-1.07-2.3-2.04.01-.8.61-1.7 1.9-2.48Z" fill="url(#bxdsmj5n5)"/><path d="M6.62 8.64c-1.14-.02-1.72.15-1.6 1.46.03.32 0 .62.01.92 0 .11 0 .81-.13.98v-.06c.04-.24-.23-.97-.5-1.57-.65-1.45.37-2.52 2.22-1.73Z" fill="url(#cxdsmj5n5)"/><path d="M9.48 3c-.07.41.2 1.21.6 2 0 .02.34-1.61.34-1.67.28.56.9 2.4.6 3.11 0 .04.04.06.07.07.86.67.48.18.48.98 0 .15.5.32.49.33a.65.65 0 0 1-.18.36c-.24.27-.44.05-1.12.32-.19.06-.05.03-.2.85-.17 1.04-1.34 1.13-2.17.62C7.31 9.3 6.62 9 6.31 9c-.17 0-.25.07-.25.18 0 .38.93 1.3 1.9 1.55 1.08.27 2 0 3.6.5.04.01-.34-.09-.9-.12-.3-.02-.65.05-1.05.11-.76.13-1.48.4-2.32.14-.82-.25-1.27-1.39-1.33-1.65-.57-2.37 2.31-1.12 2.26-.97-.11.33 1.34-.03 1.28-.63-.1-.05-.68-.22-.69-.4 0-.02 0-.03.02-.05.3-.49.54-.7.54-.75 0-.05-.42-.34-.59-.76-.29-.73-.13-1.95.7-3.15Z" fill="url(#dxdsmj5n5)"/><path d="M10.4 8.4c-.27-.1-.5-.34-.54-.43a.16.16 0 0 1-.02-.07c0-.1.1-.24.3-.23.18 0 .4.12.67.22s.44.11.58.11c.2 0 .34-.05.67-.18 0 0-.03.16-.1.26s-.14.16-.15.17c-.11.1-.22.1-.4.1l-.2.03c-.21.04-.38.1-.45.13l-.04.01s-.04.02-.04.04c-.03.07-.02.16-.03.22l-.03.37c-.12.06.04-.65-.22-.75Z" fill="#FF951C"/><path d="M6.04 8.67c-.15-.52-.33-.77-1-.53-.33.1-.6.22-.95.22 0 0-.15 0-.06-.02.14-.02.5-.24.77-.44.67-.5 1.39-.18 1.24.77Z" fill="url(#exdsmj5n5)"/><defs><linearGradient id="axdsmj5n5" x1="5.6" y1="11.33" x2="15.01" y2="11.33" gradientUnits="userSpaceOnUse"><stop stop-color="#FF3F21"/><stop offset="1" stop-color="#FE8716"/></linearGradient><linearGradient id="bxdsmj5n5" x1="9.04" y1="13.79" x2="4.78" y2="9.59" gradientUnits="userSpaceOnUse"><stop stop-color="#FE8116"/><stop offset="1" stop-color="#FF4520"/></linearGradient><linearGradient id="cxdsmj5n5" x1="4.97" y1="12.08" x2="5.55" y2="8.31" gradientUnits="userSpaceOnUse"><stop offset=".03" stop-color="#FE8516"/><stop offset="1" stop-color="#FF4520"/></linearGradient><linearGradient id="dxdsmj5n5" x1="8.95" y1="11.74" x2="10.78" y2="3.23" gradientUnits="userSpaceOnUse"><stop stop-color="#FF4021"/><stop offset=".47" stop-color="#FF8318"/><stop offset="1" stop-color="#FF3F21"/></linearGradient><linearGradient id="exdsmj5n5" x1="4.13" y1="7.88" x2="6.11" y2="8.41" gradientUnits="userSpaceOnUse"><stop stop-color="#F46F23"/><stop offset=".52" stop-color="#F95D21"/><stop offset="1" stop-color="#FF4520"/></linearGradient></defs></svg>