<!-- by TradingView --><svg width="18" height="18" viewBox="0 0 18 18" xmlns="http://www.w3.org/2000/svg"><path fill="#DFF9DC" d="M0 0h18v18H0z"/><path d="M10.22 12.57c-.1.02-.24-.02-.4-.14.1 0 .23 0 .36-.04a5 5 0 0 0 1.74-.75.06.06 0 0 0 .03-.05l.02-.39c0-.02-.01-.02-.03-.02h-.03c-.34.2-.7.34-1.07.44-.26.07-.52.12-.78.16h-.03l-.57.05c-.03 0-.04.02-.04.04-.02.14-.01.28.02.41l-.2-.08v-.34l-.01-.01-.29-.01-.01.01V12.18l.03.01.06.01.56.33c-.29-.18-.56-.2-.82-.08a.73.73 0 0 0-.31.25.7.7 0 0 0-.05.7.75.75 0 0 0 1.42-.21.71.71 0 0 0-.12-.5l.03-.08.03-.01c.09.02.15.06.19.14.11.34.08.64-.11.88a.94.94 0 0 1-.9.37.93.93 0 0 1-.75-.62.89.89 0 0 1 .08-.73v-.02a6.78 6.78 0 0 1-2.5-.92.1.1 0 0 1-.05-.1l.03-.67c0-.02 0-.03-.03-.05-.6-.42-.99-.91-1.14-1.48 0-.02-.02-.02-.04-.01l-.61.34-.01-.02.62-.4V9.3c-.06-.3-.09-.6-.07-.92 0-.02 0-.02-.02-.02l-.94.13v-.03l.95-.18c.01 0 .02 0 .02-.02a4.7 4.7 0 0 1 .1-.76l-.55-.08h-.01V7.4l.58.05.02-.01a5.6 5.6 0 0 1 .34-1 .2.2 0 0 0 0-.06 3.06 3.06 0 0 1-.08-2.06c.02-.12.08-.2.17-.24a.8.8 0 0 1 .33-.03c.22.02.46.07.71.16.15.05.38.14.68.27.35.16.62.27.8.32.15.05.28.06.4.05l.45-.07c.4-.06.82-.07 1.27-.01a1.47 1.47 0 0 0 1-.18c.24-.14.46-.26.66-.34A3.3 3.3 0 0 1 12.5 4c.03 0 .06 0 .1.03l.06.06a3.05 3.05 0 0 1 .07 2.14.59.59 0 0 0-.02.21c.01.06.03.13.08.2l.09.17a6.2 6.2 0 0 1 .36.66l.73-.08v.03l-.71.1-.01.02c.08.23.12.47.12.7 0 .02.01.03.03.03a9.43 9.43 0 0 1 1.09.2v.01l-1.08-.14c-.02 0-.03 0-.03.02l-.03.89v.02a5.95 5.95 0 0 1 .72.45v.01l-.72-.4c-.02 0-.03 0-.03.02a2.87 2.87 0 0 1-1.17 1.7 316.56 316.56 0 0 1-.04.67.29.29 0 0 1-.07.05 5.08 5.08 0 0 1-1.83.8Z" fill="#040402"/><path d="M7.23 5.1c0 .02.02.03.04.02a9.28 9.28 0 0 1 1.74-.22 5.4 5.4 0 0 1 1.73.22c.02 0 .03 0 .03-.02.01-.02 0-.04-.01-.05l-.42-.15c-.03-.01-.03-.02 0-.03.15-.04.37-.14.66-.3.1-.07.18-.1.23-.13.41-.2.84-.3 1.29-.31.01 0 .02 0 .03.02.2.45.26.96.19 1.52a9.47 9.47 0 0 1-.17.67c-.02-.02-.03-.04-.03-.07l.1-.37c.1-.54.08-1.08-.1-1.6-.02-.06-.06-.08-.12-.07-.33.09-.62.21-.88.37-.08.05-.17.12-.25.22-.08.1-.1.2-.07.31.03.1.1.18.2.26a4.56 4.56 0 0 1 1.61 2.12c-.67.1-1.32.24-1.93.41-.04.01-.05.03-.04.06V8c0 .02.02.03.05.02l1.94-.44c.02 0 .03 0 .03.02.06.21.1.43.1.64l-.02.01c-.62-.07-1.23-.09-1.84-.07-.02 0-.03.02-.03.04v.02c0 .03 0 .04.03.04a22.09 22.09 0 0 1 1.86.07l-.03.8h-.02a9.7 9.7 0 0 0-1.61-.64v-.08c-.01-.02-.02-.03-.05-.04-.04 0-.06.02-.06.1l-.34-.08c-.03 0-.05 0-.06.04v.01c0 .02 0 .04.03.05l.33.08c.01 0 .02 0 .03.02v.04c-.1.24-.28.37-.53.38-.21 0-.43-.06-.67-.21l-.64-.38c-.16-.1-.32-.16-.47-.2l-.02-.01-.01-.26.01-.02.52-.33c.03-.02.04-.05.03-.1a.75.75 0 0 0-1.26-.08c-.05.06-.06.11-.05.15.02.04.06.07.13.1a7.2 7.2 0 0 1 .45.28v.27l-.03.02a2.88 2.88 0 0 0-.86.4c-.15.1-.26.17-.33.2-.13.07-.24.12-.35.15-.37.09-.62-.03-.76-.36-.01-.03 0-.04.02-.05l.38-.09c.02 0 .03-.01.04-.03v-.04l-.02-.01a.03.03 0 0 0-.04-.02l-.38.09-.02-.01v-.04c.01-.03 0-.04-.02-.05-.03-.01-.05 0-.06.03v.09a9.41 9.41 0 0 0-1.68.67 3.62 3.62 0 0 1-.07-.83s0-.02.02-.02c.62-.05 1.27-.07 1.95-.06.02 0 .04-.01.04-.04 0-.04-.01-.06-.05-.06-.64-.02-1.29 0-1.94.09-.02 0-.03-.01-.03-.03l.1-.65c0-.02.02-.03.04-.03.6.12 1.29.28 2.05.47.03 0 .05 0 .05-.03.01-.04 0-.06-.03-.07-.66-.18-1.35-.33-2.06-.43-.02 0-.03-.02-.02-.03.04-.2.1-.4.16-.6.1-.3.27-.57.52-.83.23-.24.5-.44.8-.6l.25-.14a.3.3 0 0 0 .14-.2.33.33 0 0 0-.04-.25.52.52 0 0 0-.16-.15 2.3 2.3 0 0 0-1.4-.37c-.03 0-.04.01-.05.04-.04.1-.06.2-.07.32-.03.4 0 .82.06 1.3a1 1 0 0 0 .1.3l-.01.03h-.04a2.68 2.68 0 0 1-.16-1.65l.08-.35c.02-.07.06-.1.12-.13a.68.68 0 0 1 .21 0c.3.01.62.09.94.23l.35.15a9.11 9.11 0 0 0 .95.4l-.33.1c-.02 0-.03.01-.02.04Z" fill="#fff"/><path d="M12.44 4.38c.12.3.2.6.2.9a2.14 2.14 0 0 1-.16.93l-.02-.01a4.37 4.37 0 0 0-.92-.92.45.45 0 0 1-.17-.2c-.02-.05 0-.12.08-.2a.8.8 0 0 1 .18-.16c.24-.14.5-.26.78-.35l.03.01ZM5.3 6.06l-.08.1c-.04.06-.06.05-.08 0a4.26 4.26 0 0 1-.12-1.33c0-.12.04-.24.1-.35 0-.02.02-.03.04-.03a2.45 2.45 0 0 1 1.2.35c.12.06.18.12.19.18.01.1-.03.17-.12.22-.49.25-.86.54-1.12.86Z" fill="#FAD7D3"/><path d="m8.82 5.8.02-.01v-.27c0-.02.02-.03.03-.03.02 0 .03 0 .04.02.03.1.03.23 0 .4 0 0 0 .02-.02.03h-.03l-.29-.2c-.01 0-.02-.02-.01-.03 0-.02 0-.03.02-.02h.03l.2.11ZM10.12 6.5a20.98 20.98 0 0 0-.37.4c-.04 0-.05 0-.03-.04.09-.17.19-.33.3-.48.06-.06.24-.12.54-.15h.02a13.04 13.04 0 0 1 .95-.07c0 .03-.01.04-.04.05a8.6 8.6 0 0 1-1.26.23.18.18 0 0 0-.1.05ZM8.11 6.87a.97.97 0 0 0-.25-.32.67.67 0 0 0-.38-.1 7.88 7.88 0 0 1-1.24-.14v-.04h.02c.5-.04.94-.04 1.34.01.31.04.5.23.56.59 0 0 0 .02-.02.02-.01 0-.02 0-.03-.02Z" fill="#040402"/><path d="M9.06 7.26c.03.09.11.13.25.11.05.03.1.07.15.14v.01l-.01.01c-.03 0-.07 0-.13-.02-.07-.02-.12-.03-.15-.02-.05.01-.07.04-.06.1l.02.12c0 .03 0 .05-.04.07l-.02.01c-.02.02-.04.01-.04-.02L9 7.61c-.02-.06-.04-.06-.04 0l-.03.17c0 .03-.02.03-.04.02h-.02c-.02-.02-.03-.04-.03-.07a.4.4 0 0 0 .02-.15c-.03-.06-.07-.1-.12-.1a.51.51 0 0 0-.17.05l-.05.02a.13.13 0 0 1-.07 0c-.02 0-.02-.01-.01-.02.16-.22.37-.31.61-.27Z" fill="#FAD7D3"/><path d="M7.42 8.2c.05 0 .1-.02.1-.04s-.05-.04-.1-.04c-.06 0-.1.03-.1.05 0 .03.04.04.1.04ZM10.53 8.37v.01c0 .02 0 .03-.02.05a.08.08 0 0 1-.05.01h-.02l-.05-.01a.05.05 0 0 1-.02-.05h.16Z" fill="#040402"/><path d="M11.53 8.63c.57.17 1.1.37 1.59.59l.02.04c-.07.41-.26.8-.58 1.17a3.41 3.41 0 0 1-1.77 1.07 7.2 7.2 0 0 1-3.32.05 3.88 3.88 0 0 1-2.3-1.44 2.1 2.1 0 0 1-.37-.83v-.03a12.77 12.77 0 0 1 1.66-.6c.1.33.31.5.64.53.13 0 .28-.02.43-.07.15-.05.28-.12.4-.2.28-.2.57-.34.87-.44.1-.03.17-.04.25-.03a1 1 0 0 1 .26.09c.2.1.44.23.72.4.35.22.68.3.98.23.13-.03.24-.1.33-.19.09-.1.15-.2.17-.33h.02Z" fill="#fff"/><path d="M8.91 9.51c.16.01.32-.02.48-.08h.03v.03c0 .01 0 .02-.02.03a.78.78 0 0 1-.5.13.77.77 0 0 1-.46-.19L8.4 9.4c0-.01 0-.02.02-.03h.02c.15.08.3.13.46.14Z" fill="#040402"/><path d="m7.78 11.72.15.03.2.03.59.05c.02 0 .04.02.03.04l-.01.37-.01.01c-.07.03-.16.1-.28.17-.03.03-.08.04-.14.03a6.47 6.47 0 0 1-2.36-.84.07.07 0 0 1-.04-.07l.02-.48v-.02h.03c.54.38 1.15.6 1.82.68ZM9.82 12.43l.24-.65c.26-.04.52-.1.78-.16a4.6 4.6 0 0 0 1.1-.45c.02 0 .03.01.03.03l-.02.39c0 .02-.01.03-.03.05a5 5 0 0 1-2.1.8ZM10.03 11.79c-.14.17-.25.36-.35.55 0 .02-.02.03-.04.02l-.2-.08a1.06 1.06 0 0 1-.02-.41c0-.02.02-.03.04-.04l.57-.04Z" fill="#EC0502"/><path d="m10.06 11.78-.24.65c.16.12.3.17.4.14l.07.14v.04c-.02.01-.03.02-.04.01l-.3-.02c-.04-.08-.1-.12-.2-.14l-.02.01-.03.07c-.1.18-.18.33-.26.44-.07.1-.1.09-.07-.03.04-.17.11-.35.21-.56a17.86 17.86 0 0 0-.65-.38h.1l.2.05.21.08.2.08c.02.01.03 0 .04-.02.1-.2.21-.38.35-.55h.03Z" fill="#fff"/><path d="M9.23 12.2a.58.58 0 0 0-.2-.05h-.1v-.3l.02-.01h.28V12.2ZM9.58 12.53c-.1.2-.17.4-.2.56-.03.12-.01.13.06.03.08-.11.17-.26.26-.44a.71.71 0 0 1-.1.93.74.74 0 0 1-.95.08.71.71 0 0 1-.2-.99c.08-.1.18-.2.3-.25.27-.13.54-.1.83.08Z" fill="#FFC649"/></svg>