<!-- by TradingView --><svg width="18" height="18" viewBox="0 0 18 18" xmlns="http://www.w3.org/2000/svg"><path fill="url(#a)" d="M0 0h18v18H0z"/><path d="M9.7 6.6h-.01a109.2 109.2 0 0 1-.7.73 726.35 726.35 0 0 1-2.1-2.28l.02-.04h.04L11.04 5l.06.03v.01l-.02.04-.1.12A2155.38 2155.38 0 0 0 9.7 6.6Z" fill="#5B98F3"/><path d="M3.27 6.34a54.41 54.41 0 0 1-.27-.3L3.08 6a2664.38 2664.38 0 0 0 3.41 0 9339.74 9339.74 0 0 0 2.2 2.28.08.08 0 0 1-.04.05H5.26a.17.17 0 0 1-.12-.06 1447.33 1447.33 0 0 0-1.87-1.93ZM13.15 7.98a.75.75 0 0 0-.1.1l-.19.2a.18.18 0 0 1-.14.05 591.7 591.7 0 0 0-3.38 0 .22.22 0 0 1-.03-.03v-.03a2.18 2.18 0 0 1 .05-.08l2.09-2.15a.15.15 0 0 1 .1-.04 6178.39 6178.39 0 0 0 3.44.02v.04l-.02.04a2061.08 2061.08 0 0 1-1.82 1.88ZM7.58 10.9l-.17.17-.02.02-.01.01a70.49 70.49 0 0 0-.89.9 16431.87 16431.87 0 0 0-3.4 0 .22.22 0 0 1-.09-.02 1713.34 1713.34 0 0 0 2.14-2.24.17.17 0 0 1 .13-.06h3.29c.05 0 .1 0 .14.03a672.57 672.57 0 0 0-1.12 1.18ZM11.19 11.68A1594.06 1594.06 0 0 1 9.3 9.7a.2.2 0 0 1 .12-.03 17381.68 17381.68 0 0 0 3.35 0l.06.03A1572.8 1572.8 0 0 0 15 11.97a18325.63 18325.63 0 0 0-3.41.02h-.04c-.03.01-.06 0-.09-.02l-.27-.3Z" fill="#fff"/><path d="M10.81 12.62a10.4 10.4 0 0 1 .28.31c.02.03.01.05-.01.06a1720.53 1720.53 0 0 0-4.16 0c-.02-.01-.02-.02-.02-.03 0-.03.02-.05.04-.08a3213.74 3213.74 0 0 0 2.03-2.2c.03-.02.05-.02.07 0l.3.33.02.02.01.01.02.02.03.03.01.02.02.02.02.03.03.02a272.42 272.42 0 0 0 1.31 1.43Z" fill="#5B98F3"/><defs><linearGradient id="a" x1="3.35" y1="3.12" x2="21.9" y2="24.43" gradientUnits="userSpaceOnUse"><stop stop-color="#1A1E21"/><stop offset="1" stop-color="#06060A"/></linearGradient></defs></svg>