<!-- by TradingView --><svg width="18" height="18" viewBox="0 0 18 18" xmlns="http://www.w3.org/2000/svg"><path fill="url(#a)" d="M0 0h18v18H0z"/><path d="m11.7 7.06.46.18V5.89L8.8 4.5 5.37 5.77l.18 3.03 1.65 2-.9.35 2.06 2.25 2.76-1.18 1.23-2.41-.73-1.2.07-1.56Z" fill="url(#b)"/><path d="M6 9.76V6.44L9 5.4l3 1.11v3.25c0 .22-.2.67-.82 1.3-.5.49-1.67 1.2-2.18 1.5-.47-.29-1.56-.98-2.18-1.5A2.22 2.22 0 0 1 6 9.76Z" fill="url(#c)"/><path d="M5 9.8c0 .28.04.45.06.5l4-1.51 3.05 1.15c-.5 1.35-2.28 2.57-3.11 3.01a10.9 10.9 0 0 1-2.42-1.9l-.92.4A10.26 10.26 0 0 0 9.06 14c.37-.23 1.4-.89 2.5-1.72A3.48 3.48 0 0 0 13 9.98V8.92L9.05 7.38l-3.2 1.23V6.2l3.2-1.18 3.1 1.18v1.03l.85.37V5.52L9.05 4 5 5.52V9.8Z" fill="#7E58FD"/><defs><linearGradient id="a" x1="3.35" y1="3.12" x2="21.9" y2="24.43" gradientUnits="userSpaceOnUse"><stop stop-color="#1A1E21"/><stop offset="1" stop-color="#06060A"/></linearGradient><linearGradient id="b" x1="8.86" y1="4.5" x2="8.86" y2="13.41" gradientUnits="userSpaceOnUse"><stop stop-color="#4C27C2"/><stop offset="1" stop-color="#5230BB"/></linearGradient><linearGradient id="c" x1="9" y1="5.4" x2="9" y2="12.55" gradientUnits="userSpaceOnUse"><stop offset=".16" stop-color="#331B7D"/><stop offset="1" stop-color="#03010B"/></linearGradient></defs></svg>