<!-- by TradingView --><svg width="18" height="18" viewBox="0 0 18 18" xmlns="http://www.w3.org/2000/svg"><path fill="url(#a)" d="M0 0h18v18H0z"/><path d="M5.32 6 4 7.4l5 2.85 1.84-1-2.37-1.27 3.82.28L14 7.41 9 4 7 5l2 1H5.32Z" fill="#fff"/><path d="m4.3 9.24.65-.87L9 10.97l3.92-2.6.79.87L9 12.12 4.3 9.25Z" fill="#fff"/><path d="m4.3 11.12.65-.87L9 12.85l3.92-2.6.79.87L9 14l-4.7-2.88Z" fill="#fff"/><defs><linearGradient id="a" x1="9" y1="0" x2="9" y2="18" gradientUnits="userSpaceOnUse"><stop stop-color="#909DF8"/><stop offset="1" stop-color="#6275F5"/></linearGradient></defs></svg>