<!-- by TradingView --><svg width="18" height="18" viewBox="0 0 18 18" xmlns="http://www.w3.org/2000/svg"><path fill="url(#a)" d="M0 0h18v18H0z"/><path d="M10.81 4.33c-.23-.04-.46-.09-.7-.08-.39.03-.7-.1-1.04.12a.77.77 0 0 0-.28.23c-.08.09-.1.22-.25.25a.58.58 0 0 1-.23-.03l-.28-.06a14.46 14.46 0 0 1-.64-.16c-.18-.08-.37-.06-.53-.07h-.03l-.22.08a5.1 5.1 0 0 1 4.2-.28Z" fill="#A1A19A"/><path d="m10.81 4.33.2.08c.29.28.5.52.65.87.2.47.38.88.56 1.23.07.15.14.34.2.58l-.01.03-.04.03a.45.45 0 0 0-.25.17.04.04 0 0 0 .03.07c.04 0 .08-.01.11-.04.19-.16.43-.1.49.14a1.55 1.55 0 0 1 .04.22.03.03 0 0 0 .02.02h.01a2.17 2.17 0 0 1 .5-.06l.01.02.02.27a.01.01 0 0 1 0 .01.01.01 0 0 1-.02 0 .72.72 0 0 0-.47-.08l-.02.01-.12.22a.01.01 0 0 1-.01 0 .01.01 0 0 1-.01 0l-.22-.22-.02-.01-.3-.08a.04.04 0 0 0-.04.01.04.04 0 0 0-.02.03c0 .08.02.15.06.23.03.04.08.06.14.09a.47.47 0 0 1-.17-.08l-.06-.3-.01-.01-.11-.1a.03.03 0 0 0-.05.02c-.04.1-.04.2-.02.32v.02h-.03v-.02l-.1-.06h-.03l-.02.05c-.01.02-.01.01-.01 0 0-.02.01-.04.03-.05l.03-.01h.03a.08.08 0 0 1 .05.04l.02.02h.01a.15.15 0 0 0-.1-.12c-.02 0-.04 0-.05.03a.81.81 0 0 0-.1.36c0 .15-.01.34-.13.43l-.02-.01-.19-.36c-.1-.19.04-.3.1-.44a.51.51 0 0 0 .03-.2c0-.28-.03-.53-.01-.83.01-.24 0-.5-.02-.76a126.27 126.27 0 0 1-.09-.8c-.05-.27-.15-.47-.3-.59a.76.76 0 0 0-.27-.01l-.27.06a.27.27 0 0 1-.14 0c-.34-.1-.64-.03-.94.14-.2.1-.35.2-.48.37-.1.12-.17.3-.27.43l-.24.34c-.03.05-.06.05-.1.01l-.06-.03c-.01.02-.03.03-.05.02-.01 0-.02 0-.02-.02l-.02-.01c-.02 0-.02 0-.01-.02l.01-.02.04-.02c.02 0 .04.01.05.04h.02v-.04l-.08-.08v-.04a.64.64 0 0 1 .26-.45l.4-.3c.11-.08.2-.2.3-.27.17-.13.34-.2.5-.22.29-.03.47-.04.53-.03l.43.06c.04 0 .08 0 .1-.04v-.03a.93.93 0 0 0-.43-.2L9.8 4.3c-.25-.05-.5-.02-.72.08.34-.22.65-.1 1.04-.12.24 0 .47.04.7.08Z" fill="#A7A6AE"/><path d="M8.15 5.84v-.09c-.02-.03-.03-.03-.04 0-.08.22-.13.4-.15.55-.03.26-.22.35-.34.54a.7.7 0 0 0-.1.37.03.03 0 0 1-.04.02 1.3 1.3 0 0 1-.38-.08c.29-.8.6-1.6.93-2.4l.28.07c.11.03.19.04.23.03.16-.03.18-.16.25-.25.07-.1.17-.18.28-.23.23-.1.47-.13.72-.08l.45.08c.16.03.3.09.42.19a.02.02 0 0 1 0 .03c-.01.03-.05.05-.1.04l-.42-.06c-.06 0-.24 0-.53.03-.16.02-.33.1-.5.22-.1.07-.19.19-.3.27l-.4.3a.64.64 0 0 0-.26.45Z" fill="#C4C4BB"/><path d="M14 9.15v-.37l-.02-.02c-.02 0-.03 0-.04-.03l-.03-.01a2 2 0 0 1-.9-.03.51.51 0 0 1-.25-.16l-.02-.02-.03-.04.05.01h.02a.4.4 0 0 0 .05-.17l-.01-.02-.32-.15.08-.05v-.02a.51.51 0 0 0-.43-.2c-.02 0-.03 0-.02.01l.03.2a.66.66 0 0 1-.06-.23.04.04 0 0 1 .02-.03.04.04 0 0 1 .03 0l.3.07h.03l.22.23a.01.01 0 0 0 .01 0l.13-.22.02-.01h.01a.72.72 0 0 1 .47.08.01.01 0 0 0 .01-.01l-.02-.27v-.02h-.03a2.17 2.17 0 0 0-.5.05h-.01V7.7l-.04-.21c-.06-.25-.3-.3-.49-.14a.38.38 0 0 1 .15-.16v-.03h-.01l-.03-.01.04-.03v-.03a2.73 2.73 0 0 0-.19-.58c-.18-.35-.37-.76-.56-1.23a2.48 2.48 0 0 0-.66-.87 5.03 5.03 0 0 1 2.9 3.5c0 .12.06.32.07.48.03.25.04.5.02.76Z" fill="#A09E9D"/><path d="M8.03 4.76c-.34.79-.64 1.58-.93 2.39-.2-.07-.45-.11-.6-.15l-.45-.1c-.42-.1-.85-.2-1.28-.27-.05-.01-.09-.04-.11-.1A5.04 5.04 0 0 1 6.6 4.6l.22-.07h.03c.16 0 .35-.02.53.06l.19.06.45.1Z" fill="#D0D0C5"/><path d="M10.98 4.72c-.26 0-.35.09-.5.2a.97.97 0 0 1-.2.1c-.43.16-.74.32-1.07.59a29.32 29.32 0 0 0-.87.74l.26.15c-.17-.04-.34-.1-.35-.3h-.01a.2.2 0 0 0-.05.12l.02-.29.06.03c.04.04.07.04.1 0l.24-.35c.1-.14.17-.31.27-.43.13-.17.28-.26.48-.37.3-.17.6-.23.94-.14.05.01.1.01.14 0l.27-.06c.05-.02.14-.01.27.01Z" fill="#8D8A77"/><path d="M10.98 4.72c.15.12.25.32.3.59a4.17 4.17 0 0 1 .09.8c.02.26.03.52.02.76-.02.3 0 .55 0 .84 0 .08 0 .14-.02.2-.06.14-.2.24-.1.43a32 32 0 0 1 .22.37c.1-.09.12-.28.13-.43l.11-.25h.02l.12.05c.03.03.07.07.1.14a1.08 1.08 0 0 0 .3.35c.13.1.25.22.36.33-.16-.1-.44-.23-.54-.39a.95.95 0 0 0-.27-.33h-.03c-.04.03-.06.06-.06.09l-.05.79a.29.29 0 0 0-.07.13c0 .01-.01.02-.02 0l-.04-.05h-.03l-.01.02.01.01h.02v.01l-.01.02c-.01 0-.02.01-.02.03l.01.07.02.07c.08.25.05.46 0 .72-.04.2-.2.27-.33.38l-.01-.01c.1-.17.26-.28.3-.48.06-.24.05-.47-.02-.7l-.1-.38-.02-.02-.06-.04a.03.03 0 0 0-.05 0l-.1.27a.01.01 0 0 1-.01 0h-.02v-.02c.05-.1.04-.18-.03-.24-.06-.06-.22-.06-.3-.05a14.17 14.17 0 0 1-.86.11v.01c.02.2.06.4.12.6a6.97 6.97 0 0 0-.13-.33l-.03-.2c0-.02-.01-.02-.02-.02h-.05l.01-.01c-.03-.02-.06-.01-.08 0 0 .01 0 .01 0 0l.02-.02h.02l.06.02-.06-.1c-.03-.03-.05-.02-.05.02a.56.56 0 0 1-.1.24.6.6 0 0 0 0-.36l-.11-.29a3.4 3.4 0 0 1-.18-.63.16.16 0 0 0 .02-.07l-.01-.03A.87.87 0 0 1 9 7.55a.61.61 0 0 1-.05-.2c-.01-.05-.03-.08-.07-.1a.24.24 0 0 0-.16-.02c-.07.02-.1.06-.09.11 0 .01 0 .02.02.03l.13.07c.03.03.04.06.04.1-.12-.1-.24-.16-.37-.21-.03-.01-.05 0-.06.02a.3.3 0 0 1-.07.08H8.3a.62.62 0 0 0-.14-.15c.01-.02.03-.02.06-.01l.08.04a.03.03 0 0 0 .03.01.03.03 0 0 0 .02-.02l.04-.17a.32.32 0 0 0-.08-.37l-.05-.03h-.07c-.02-.01-.02 0 0 0h-.17c-.02 0-.02-.01 0-.01l.24-.01c.1 0 .22-.02.38-.06.05 0 .06-.04.04-.12a.18.18 0 0 0-.08-.03l-.26-.15v-.03c.27-.23.56-.47.87-.71.33-.27.64-.43 1.07-.6a.97.97 0 0 0 .2-.1c.15-.1.24-.2.5-.19Z" fill="#787160"/><path d="M8.15 5.84v.04l.08.08V6H8.2c-.01-.03-.03-.04-.05-.04-.02 0-.03 0-.04.02L8.11 6v.02l.03.01c0 .02.01.02.02.02.02 0 .04 0 .05-.02l-.02.29c-.12.09-.24.2-.35.33l.25-.05h.17c.13.02.27.03.41.02a.12.12 0 0 0 0-.09c.03.08.02.12-.03.12H8.6a2.93 2.93 0 0 0-.41-.04.93.93 0 0 0-.4.12c-.04 0-.07.02-.09.06 0 0 0 .01 0 0l.01.01v.01c-.14.07-.18.18-.12.32a5.34 5.34 0 0 1-.14.81H7.3c-.1-.04-.34-.11-.43-.06-.1.05-.23.1-.3.17a4.21 4.21 0 0 0-.26.21.95.95 0 0 0-.37.55l-.06.26c-.07.18-.12.37-.17.57-.03.15-.1.24-.13.37-.03.11-.1.25-.15.37v-.13a.04.04 0 0 0-.02-.03l-.18-.02.09-.01.02-.02.09-1c.08-.79.33-1.53.62-2.27l.46.1c.14.04.4.08.6.15a1.3 1.3 0 0 0 .38.08.03.03 0 0 0 .03-.03.7.7 0 0 1 .1-.36c.12-.2.31-.28.34-.54.02-.15.07-.33.15-.55.01-.03.03-.03.04 0v.09Z" fill="#AEADA6"/><path d="M8.6 6.5c.03 0 .06.02.08.03v.1a.78.78 0 0 1-.51-.2.04.04 0 0 0-.05 0l-.28.22c.11-.13.23-.24.35-.33a.2.2 0 0 1 .05-.12c0-.01 0 0 0 0 .02.2.19.26.36.3Z" fill="#A1A19A"/><path d="M8.67 6.62c-.14 0-.28 0-.41-.02a.47.47 0 0 0-.17 0l-.25.05.28-.21a.04.04 0 0 1 .05 0c.14.12.3.18.5.18Z" fill="#8D8A77"/><path d="M6.05 6.9a8.65 8.65 0 0 0-.71 3.27l-.02.02h-.1l-.13-.01-.59-.13a1.3 1.3 0 0 0-.4-.03 4.97 4.97 0 0 1 .32-3c.09-.13.14-.24.17-.32l.07-.18c.02.07.06.1.11.1.43.08.86.17 1.28.28Z" fill="#A1A19A"/><path d="M8.6 6.65h-.05c-.3 0-.55 0-.8.14a.1.1 0 0 1 .02-.06.93.93 0 0 1 .4-.12c.1 0 .24.01.42.04Z" fill="#8D8A77"/><path d="M8.6 6.65h.04c-.16.04-.29.06-.38.06a1.76 1.76 0 0 0-.24.01l.18.02h.04v.02c-.2 0-.38 0-.52.1-.18.13-.05.25-.03.4l.08.62c.03.2.02.38.02.57l-.1-.21a.97.97 0 0 1-.14-.3 1.07 1.07 0 0 1 0-.33l.03-.48c-.06-.14-.02-.25.12-.32V6.8c.01-.05.04-.08.08-.07a.1.1 0 0 0-.04.06 13.06 13.06 0 0 1 .41-.1c.14 0 .27-.02.4-.04h.04Z" fill="#5B5247"/><path d="m8.39 7.13-.04.17a.03.03 0 0 1-.02.02.03.03 0 0 1-.03 0 .35.35 0 0 0-.08-.05h-.06l-.04.04c-.04.11-.07.24-.09.4 0 .07.03.15.11.25-.2-.2-.1-.42-.06-.64 0-.01 0-.02-.02-.01l-.1.02a.04.04 0 0 0-.02.04c-.02.1-.12.33-.1.44.05.2.06.31.06.37-.02.14-.06.27-.04.42v.08l-.07-.23c0-.2 0-.38-.02-.57l-.08-.62c-.02-.15-.15-.27.03-.4.14-.1.32-.1.51-.1.02 0 .02 0 0-.01l-.03-.01c.05 0 .08.01.09.03.13.08.13.22.1.36Z" fill="#575240"/><path d="M8.34 7.25H8.3c-.18-.13-.32-.16-.37-.41a.03.03 0 0 1 .02-.04h.02c.16 0 .32.03.37.2.02.03.01.11 0 .24h-.01ZM12.82 7.53c-.02-.01-.03.01-.03.06l.02-.45c0-.01 0-.02.02-.02a.75.75 0 0 1 .2 0c.05 0 .05.02 0 .05a.28.28 0 0 1-.1.01l-.01.02v.02a.05.05 0 0 1 0 .06c-.06.06-.15.15-.1.25Z" fill="#332B27"/><path d="M7.69 8.24c.04.06-.02.04-.16-.04H7.5l.05.23c-.13-.18-.27-.2-.41-.08-.25.21-.48.36-.7.45-.12.05-.25.09-.39.1l-.02-.02a.15.15 0 0 0-.1-.07.95.95 0 0 1 .37-.55 1.42 1.42 0 0 0 .25-.2c.08-.08.21-.13.31-.18.09-.05.32.02.43.06a.2.2 0 0 0 .14 0l.06-.21c.02-.09.05-.29.08-.6l-.03.48c-.02.15-.02.26 0 .33.03.1.07.2.14.3Z" fill="#7E7A6F"/><path d="M12.37 7.15h.03l.01.02v.02a.38.38 0 0 0-.15.16.15.15 0 0 1-.1.04.04.04 0 0 1-.04-.03v-.04a.45.45 0 0 1 .25-.17Z" fill="#332B27"/><path d="M8.88 7.26a.3.3 0 0 0-.15 0v.02l.14.17v.02h-.01a.15.15 0 0 0-.11-.06c-.04-.01-.07-.03-.09-.06-.02-.05.03-.1.06-.12.05-.01.1 0 .16.03Z" fill="#575240"/><path d="M8.82 7.54c.1.16.23.23.4.33l.06.05h.03a.26.26 0 0 0 .04-.08 3.4 3.4 0 0 0 .29.92.6.6 0 0 1 0 .36c-.18.11-.37.26-.57.45-.09.08-.24.14-.37.1-.11-.03-.26-.07-.29-.17a1.08 1.08 0 0 0-.08-.18v-.03a.37.37 0 0 0-.04-.16l.01-.46a.75.75 0 0 0-.08-.26.4.4 0 0 1-.04-.15c0-.11-.02-.21-.04-.3-.08-.1-.12-.18-.11-.25.02-.16.05-.29.1-.4 0-.02.01-.03.03-.03.06.04.1.09.14.14 0 .01.02.02.02 0a.3.3 0 0 0 .07-.07c.01-.03.03-.03.06-.02.13.05.25.12.37.2Z" fill="#BF977B"/><path d="M12.82 7.53c.08.04.2.05.3.06h.02v.01l.01.01-.31.08a.03.03 0 0 1-.04-.03v-.07c0-.05 0-.07.02-.06Z"/><path d="M12.1 7.58v-.02a.03.03 0 0 1 .03-.01 2.08 2.08 0 0 1 .29 0l.09.02.03.03-.03.03a1.3 1.3 0 0 1-.37.06.03.03 0 0 1-.03 0 .03.03 0 0 1 0-.03l-.01-.08ZM9.35 7.84l-.04.07h-.03a.13.13 0 0 1-.06-.04c.07.01.1-.02.12-.1l-.01-.01c-.12-.05-.25-.1-.33-.21.1.1.22.16.36.2l.01.02c0 .02 0 .04-.02.07Z" fill="#5B5247"/><path d="M12.3 8.17a.2.2 0 0 0 .06.02h.03l.1-.05.33.15.01.02a.4.4 0 0 1-.05.16l-.02.01-.05-.01v-.01l.03.05c-.06-.05-.11-.13-.17-.17a.56.56 0 0 0-.1-.05.02.02 0 0 0-.03 0v.03c.02.07.06.12.12.15l.13.1a.5.5 0 0 1 .1.13c.07.1.12.18.14.25.03.05.05.08.08.1l.14.05.05.02.31.24c.04.03.09.04.13.05l.08.08a.8.8 0 0 0 .1.1c.03.03.02.06 0 .08h-.04c-.03.01-.06 0-.09-.01l-.62-.37-.34-.32-.1-.07a6.88 6.88 0 0 0-.53-.49c-.05-.06-.1-.13-.13-.2a.57.57 0 0 0-.1-.13l-.04-.06h.01l.01.01h.02l.01-.01a.59.59 0 0 1 .02-.32.03.03 0 0 1 .02-.02.03.03 0 0 1 .03 0l.11.1v.01l.06.3a.03.03 0 0 0 .01.01l.17.07Z" fill="#D0D0C5"/><path d="m12.5 8.14-.1.05h-.04a.2.2 0 0 1-.06-.02.37.37 0 0 1-.14-.09l-.03-.2c0-.01 0-.02.02-.02.18 0 .32.07.44.2v.03l-.1.05Z" fill="#696868"/><path d="m13.52 8.01-.08-.07-.01-.01a.03.03 0 0 1 0-.03l.02-.01a.93.93 0 0 1 .36.01c.02 0 .03.01.03.03l-.03.18a.06.06 0 0 1-.05.05l-.17.01-.02-.01-.03-.13c0-.01 0-.02-.02-.02Z" fill="#5B5247"/><path d="M11.84 8.02h-.01L11.78 8l.05.02.04.06a.35.35 0 0 1-.12-.05h-.02l-.11.25c0-.12.03-.25.09-.36 0-.02.03-.03.05-.03a.15.15 0 0 1 .1.12.06.06 0 0 1-.03-.02.08.08 0 0 0-.05-.04h-.06a.07.07 0 0 0-.03.06c0 .01 0 .02 0 0l.03-.04h.03l.1.05Z" fill="#AEADA6"/><path d="m12.92 7.9.18.02h.02v.02l.04.14c0 .02 0 .03-.02.03a.65.65 0 0 1-.28.05c-.03 0-.05-.02-.04-.06l.04-.15c0-.03.03-.05.06-.04Z" fill="#696868"/><path d="m12.63 8.9.1.07c-.1 0-.2-.03-.3-.1-.22-.18-.3-.29-.56-.3a.03.03 0 0 0-.02 0l-.17.49.05-.79c0-.03.02-.06.06-.09h.03c.12.09.18.18.27.33.1.16.38.29.54.39Z" fill="#5B5247"/><path d="m7.69 8.24.1.21.08.23a18.71 18.71 0 0 1 .18.7c0 .07 0 .07-.04.02a2.15 2.15 0 0 0-.26-.36.65.65 0 0 1-.12-.32L7.6 8.6l-.05-.17-.05-.22c0-.01 0-.02.02-.01.14.08.2.1.16.04Z" fill="#787160"/><path d="m7.56 8.43.05.17-.06-.1c-.09.08-.17.17-.24.27a.37.37 0 0 0-.08.2c-.01.24-.03.43-.08.56-.11.35-.15.72-.1 1.09l.01.01h.05l.01-.02c.03-.16.07-.3.13-.46l.06-.24.1-.33c.06-.18.08-.39.13-.57a.03.03 0 0 1 .04-.02L7.6 9c.05.07.1.16.12.24a2 2 0 0 0 .16.41l.06.3c.04.16.1.24.18.37.09.13.15.29.19.48 0 .02.01.03.03.03h.03a.05.05 0 0 0 .04-.06l-.02-.18c0-.03.01-.04.04-.04h.01c.03 0 .06 0 .06.04.03.1.1.17.2.2.3.07.57.06.85-.03a.51.51 0 0 1 .24 0 .03.03 0 0 0 .03-.01l.3-.27-.17.18c-.05.05-.07.1-.1.15l-.17.18c-.12.13-.11.28-.3.37l-.2.11c-.1.06-.2.08-.3.13-.14.08-.28.17-.41.27-.06.04-.08.02-.05-.04l.03-.1a.17.17 0 0 0 .02-.1c-.02-.1 0-.39-.15-.4a.58.58 0 0 0-.24.05c-.08.03-.13.1-.14.2-.02.16-.02.33-.09.48a2.95 2.95 0 0 1-.14.32.03.03 0 0 0 .02.02c.15.06.26-.02.42-.08a.04.04 0 0 1 .03 0c.05.02.07.06.06.11-.02.08-.07.19-.15.32-.11.2-.13.4-.17.62-.02.17-.1.38-.13.5a.02.02 0 0 0 .01.02l.1.06h.02v-.01c.08-.12.12-.2.13-.23l.12-.33c.16-.25.2-.52.3-.77.06-.15-.02-.27-.07-.4v-.03a4.02 4.02 0 0 1 .65-.27l.34.14H9.3l-.36-.1c-.03 0-.05 0-.05.03l-.04.15a.03.03 0 0 0 0 .02h.01l.01.01c.1.02.24.02.4 0h.09l.09.01a29.1 29.1 0 0 0 .71.14v-.01a.01.01 0 0 0 0-.02L9.52 12a4.4 4.4 0 0 1 .7.17l.03-.02.08-.08c.02-.02.04-.02.05.01l.02.04c0 .02 0 .04-.02.05-.35.17-.72-.08-1.1-.1h-.03l-.13.14c-.2.21-.6.12-.54.53 0 .07.01.17 0 .28 0 .14.04.23.17.28a.7.7 0 0 1-.06.47l-.02.01a.03.03 0 0 1-.03 0v-.01a1.4 1.4 0 0 1-.15-.37c-.01-.08-.03-.08-.06 0-.06.16-.1.35-.14.56a5.39 5.39 0 0 1-.98-.25l.27.07c.01 0 .02 0 .02-.02 0-.12 0-.25-.03-.38a.53.53 0 0 1 0-.28c.11-.22.28-.5.08-.72a.05.05 0 0 0-.07 0c-.12.12-.22.21-.37.28a4.7 4.7 0 0 0-.2.09c-.12.06-.28.23-.3.38-.01.13.07.28.13.39a5.43 5.43 0 0 1-1.91-1.6c.14 0 .29 0 .43.04.08.01.15 0 .22-.01a.02.02 0 0 0 0-.03c-.03-.18-.1-.22-.23-.35a.38.38 0 0 1-.1-.15c-.06-.2 0-.45.02-.66l.15-.38c.05-.12.12-.26.15-.37.04-.13.1-.22.13-.37.05-.2.1-.39.17-.57l.06-.26c.04.01.07.03.1.07l.02.01c.14 0 .27-.04.4-.09.2-.09.44-.24.69-.45.14-.12.28-.1.4.08Z" fill="#5B5247"/><path d="M13.22 8.34a.12.12 0 0 1 .1.1c0 .04-.02.06-.06.06-.13 0-.22.02-.35-.05l-.01-.01v-.01l-.03-.1a.04.04 0 0 1 .03-.04h.02l.3.05Z" fill="#575240"/><path d="m12.74 8.5.02.03-.2-.06a.26.26 0 0 1-.12-.15v-.01a.02.02 0 0 1 .02-.02l.1.05c.07.04.12.12.18.17Z" fill="#7E7A6F"/><path d="M12.76 8.53c.08.09.16.14.25.16a2 2 0 0 0 .9.03l.03.01c.01.02.02.03.04.03l.02.02v.37l-.03.58-.04.08a.03.03 0 0 1-.02.01.03.03 0 0 1-.02 0 3.3 3.3 0 0 1-.36-.22c-.15-.1-.35-.16-.46-.31l.62.37c.03.02.06.02.09.02a.1.1 0 0 0 .03-.01c.03-.02.04-.05 0-.07a.8.8 0 0 1-.1-.11l-.07-.08c-.04 0-.1-.02-.13-.05a6.82 6.82 0 0 0-.36-.26.44.44 0 0 1-.14-.05.21.21 0 0 1-.08-.1 2 2 0 0 0-.13-.25.5.5 0 0 0-.11-.13l-.13-.1.2.06Z" fill="#8D8A77"/><path d="m7.55 8.5-.15.44c-.08.22-.12.44-.13.62 0 .04 0 .05.04.01.06-.08.1-.14.11-.24.03-.12.04-.2.09-.29.05-.1.1-.18.11-.32.03.15.07.25.13.32.1.12.2.24.26.36.03.05.04.05.04-.01a18.71 18.71 0 0 0-.18-.71 4.06 4.06 0 0 1 .22.76c0 .04 0 .05-.04.02-.1-.1-.15-.21-.27-.29a.02.02 0 0 0-.03.01v.01c.02.16.06.31.12.46a2 2 0 0 1-.17-.41.91.91 0 0 0-.12-.25.03.03 0 0 0-.04.02c-.06.18-.07.39-.13.57l-.1.32c-.03.09-.03.17-.06.25a2.19 2.19 0 0 0-.13.47H7.1l-.05.01-.02-.01c-.04-.37 0-.74.11-1.1.05-.12.07-.3.08-.56 0-.05.03-.12.08-.19.07-.1.15-.19.24-.27ZM12.73 8.97l.34.32c.11.15.3.2.46.31a3.3 3.3 0 0 0 .38.22.03.03 0 0 0 .02-.01l.04-.08a5.01 5.01 0 0 1-1.3 2.7c-.02-.18 0-.36.03-.54.06-.23.24-.49.2-.74 0-.04-.03-.06-.06-.06 0-.03-.02-.05-.04-.06l-.03.16c0 .01 0 .02-.02.03a.14.14 0 0 1-.13-.03l.1.02a.57.57 0 0 0 .05-.32 166.07 166.07 0 0 0-.72-1.04c-.13-.23-.28-.4-.42-.6l-.02-.01-.02-.01-.02-.02h-.04v.09l-.02-.07c0-.02 0-.02.02-.03l.02-.02-.01-.01h-.02l-.01-.01.01-.02h.03l.04.06h.02c0-.06.03-.1.07-.14l.17-.48a.02.02 0 0 1 .02-.02c.25.02.34.13.57.31.08.07.18.1.3.1Z" fill="#575240"/><path d="m8.3 9.13.03.16v.03c.03.05.06.11.08.18.03.1.18.14.3.17.12.04.27-.02.36-.1.2-.19.39-.34.57-.45a.56.56 0 0 0 .1-.24c0-.04.02-.05.05-.01l.06.08-.06-.02-.02.01a.4.4 0 0 0-.02.02c.02-.01.05-.02.08 0-.01 0-.01 0 0 0h.04c.01 0 .02.01.02.03 0 .07 0 .13.03.2.05.1.09.22.13.34l.35.55c0 .07-.05.16-.15.25l-.15.15-.3.27a.03.03 0 0 1-.02 0 .51.51 0 0 0-.24 0c-.28.1-.56.11-.84.04-.12-.03-.18-.1-.2-.2-.01-.03-.04-.05-.07-.04h-.01c-.03 0-.04.01-.04.04l.02.18c0 .03-.01.05-.04.06h-.03a.04.04 0 0 1-.03-.03c-.04-.2-.1-.35-.19-.48-.08-.13-.14-.21-.18-.37l-.06-.3a2.23 2.23 0 0 1-.12-.47.02.02 0 0 1 .03 0c.12.07.18.19.27.28.03.03.05.02.04-.03a4.06 4.06 0 0 0-.22-.75l-.01-.08c.07.1.11.18.12.24.08.33.11.5.25.76l.02.02h.02l.09-.03a.04.04 0 0 0 .03-.06 1.67 1.67 0 0 1-.1-.4Z" fill="#332B27"/><path d="M13.02 9a.46.46 0 0 1-.08-.2v-.02a.03.03 0 0 1 .02-.02h.01c.19.01.37.02.46.08a.03.03 0 0 1 0 .05.25.25 0 0 1-.12.05l-.03.01a.16.16 0 0 0-.05.1v.02a.03.03 0 0 1-.03.01l-.12-.03a.12.12 0 0 1-.06-.04Z" fill="#575240"/><path d="m11.48 9.27-.1-.3a.04.04 0 0 0-.03-.03c-.07-.04-.11 0-.15.06-.05.12-.11.2-.13.36l-.04.48-.15.64v.53c0 .08-.02.15-.04.2-.04.08-.06.07-.07 0-.03-.31.02-.64-.16-.94l.1.26-.12-.24a1 1 0 0 0-.19-.21l-.35-.55a3.33 3.33 0 0 1-.12-.63.03.03 0 0 1 .02 0l.84-.1c.08-.01.24-.01.3.05.07.06.08.14.03.24v.01l.01.01h.01l.11-.26.01-.01a.03.03 0 0 1 .04 0l.06.04.02.02.1.37Z" fill="#8D8A77"/><path d="M11.48 9.27c.07.24.08.47.03.7-.05.2-.2.32-.31.49l-.01-.03-.06.22c-.03.23-.07.45-.15.65-.08.2-.08.44-.17.64h-.01c.06-.19.1-.38.1-.57l-.01-.01-.06.01-.01.02-.01.02a2.13 2.13 0 0 1-.06.48h-.01l-.01-.01.06-.39c0-.14.14-.27.13-.44-.01-.31-.03-.5.02-.77.04-.14.06-.29.09-.44l.03-.48c.03-.15.09-.24.14-.36.04-.06.08-.1.15-.06l.02.02.1.31Z" fill="#5B5247"/><path d="m12.77 10.89-.03.22c0 .07-.03.07-.06.02-.08-.13-.2-.2-.38-.2.16 0 .3.05.39.16a.02.02 0 0 0 .02 0l.03-.08-.01-.02-.5-.2a.08.08 0 0 1-.04-.09c.05-.28-.07-.4-.25-.58-.2-.2-.24-.41-.34-.65l-.06-.1-.02-.07v-.05l.01-.03.04-.01.02.02h.02l.02.01c.14.2.29.38.42.6l.15.25.57.8Z" fill="#AEADA6"/><path d="m7.58 9.8-.02.35c0 .07-.02.08-.07.02a.4.4 0 0 1-.1-.28c.03-.2.08-.38.17-.56 0-.02.02-.02.02 0 .05.16.03.3 0 .47Z" fill="#787160"/><path d="m11.6 9.47.04.23.05.15c.11.18.23.36.3.56.08.21.12.36.31.53.17 0 .3.06.38.19.03.05.05.05.06-.02l.03-.22c0 .13-.01.23-.06.32l-.2-.22a.1.1 0 0 0-.08-.03c-.27 0-.46.03-.6-.06-.08-.05-.16-.14-.25-.18a.73.73 0 0 0-.33-.06.51.51 0 0 1-.04-.19c.13-.1.29-.19.33-.38.05-.26.08-.47 0-.72l.06.1Z" fill="#8D8A77"/><path d="M12.3 10.94c-.2-.17-.23-.32-.3-.53-.08-.2-.2-.38-.3-.56a.4.4 0 0 1-.06-.15 1.87 1.87 0 0 0-.04-.23c.1.24.14.45.34.65.18.18.3.3.25.58a.08.08 0 0 0 .04.09l.5.2V11l-.01.08h-.03a.46.46 0 0 0-.39-.15Z" fill="#A1A19A"/><path d="M8.26 9.92a.04.04 0 0 1-.02.05l-.09.02a.03.03 0 0 1-.04-.03v-.18c-.01-.04 0-.05.04-.01.05.05.08.1.11.15Z" fill="#575240"/><path d="m11.03 9.84-.08.44c-.06.26-.04.46-.03.77 0 .17-.13.3-.13.44l-.06.39v.01h.02a2.13 2.13 0 0 0 .07-.5l.01-.02.06-.01.02.01a2.17 2.17 0 0 1-.11.57h.01c.1-.2.1-.43.17-.64.08-.2.12-.42.15-.65 0-.06.04-.15.06-.22v.03l.02.01c0 .07.02.13.04.2.15.04.18.13.22.28.05.2.07.4.2.5.15.13.52.07.67 0l.32-.14c.1-.05.15-.12.18-.22.03 0 .05.02.06.06.04.25-.14.51-.2.74-.04.18-.05.36-.04.54a4.7 4.7 0 0 1-1.94 1.27c.14-.15.18-.27.24-.44.06-.18.17-.35.24-.52.05-.1.07-.26-.04-.34-.1-.07-.2 0-.24.1-.03.08-.06.16-.07.25 0 .03-.02.04-.04.03a.53.53 0 0 1-.34-.45v-.03c.15-.22.23-.4.26-.54.02-.05.03-.16.04-.33l.07-.15c.05-.1.07-.18.06-.28l-.02-.52.15-.64ZM6.97 10.07c0 .26-.04.53.2.67a12.21 12.21 0 0 0 .42.22c.17.32.24.63.06.95l-.19.36a.37.37 0 0 1-.1.14 2.87 2.87 0 0 1-.24.15l-.04-.02c-.17-.13-.3-.23-.4-.33-.1-.1-.18-.15-.31-.24-.2-.14-.25-.31-.15-.53.1-.2.18-.36.25-.47.12-.16.2-.25.23-.42.04-.17.12-.35.19-.52.02-.05.04-.05.07 0v.04Z" fill="#74695E"/><path d="m5.23 10.2.18.02a.04.04 0 0 1 .03.03v.13l-.16.38-.33.94a.24.24 0 0 1-.08.11 5.1 5.1 0 0 1-.76-1.8c.13 0 .26 0 .4.04l.58.13.14.02Z" fill="#C4C4BB"/><path d="M10.71 10.53v.34h-.04v-.01h-.01l-.02.05v-.03c.01-.02.02-.02.03 0l.1.34a.01.01 0 0 1 0 .02.34.34 0 0 0-.18.28 10.76 10.76 0 0 1-.05.36 1.4 1.4 0 0 1-.43-.14c-.08-.04-.15-.15-.2-.2a.36.36 0 0 0-.17-.08c-.2-.04-.4-.06-.58.04a2.25 2.25 0 0 0-.26.18.05.05 0 0 0 0 .04l.02.02.12.07a4.02 4.02 0 0 0-.65.27v.02c.05.14.13.26.07.4-.1.26-.14.53-.3.78l-.12.33a1.4 1.4 0 0 1-.13.24h-.02l-.1-.06a.02.02 0 0 1-.01-.03c.03-.11.1-.32.13-.49.04-.21.06-.42.17-.62.08-.13.13-.24.15-.32.01-.05 0-.09-.06-.11a.04.04 0 0 0-.03 0c-.16.06-.27.14-.42.08a.03.03 0 0 1-.02-.02.03.03 0 0 1 0-.03c.05-.09.1-.18.14-.29.07-.15.07-.32.09-.47.01-.11.06-.18.14-.21a.58.58 0 0 1 .24-.05c.14.01.13.3.15.4 0 .03 0 .06-.02.1l-.03.1c-.03.06 0 .08.05.04.13-.1.27-.19.41-.27.1-.05.2-.07.3-.13l.2-.1c.19-.1.18-.25.3-.38l.16-.18-.16.21a.07.07 0 0 0 0 .05v.02h.04c.07-.06.14-.1.2-.1l.54-.03c.1.02.14-.02.14-.11a21.24 21.24 0 0 1 0-.15l-.07-.06c-.06-.1-.14-.26-.27-.3.1-.1.15-.19.15-.26a.99.99 0 0 1 .31.45Z" fill="#74695E"/><path d="m10.88 10.48.02.52c0 .1-.01.18-.06.28a.73.73 0 0 0-.07.15 3.5 3.5 0 0 1-.04.33c-.03.14-.11.32-.25.54v.03c.02.2.13.35.33.45.02 0 .03 0 .04-.03.01-.09.04-.17.07-.25.04-.1.14-.17.24-.1.11.08.09.23.04.34-.07.17-.18.34-.24.52-.06.17-.1.3-.24.44l-.43.14c-.17 0-.34 0-.5.03-.1.01-.19 0-.26-.03a.96.96 0 0 1-.2-.13c-.11-.1-.25-.15-.35-.23a4.37 4.37 0 0 1-.22-.18c-.13-.05-.17-.14-.16-.28l-.01-.28c-.06-.4.35-.32.54-.53a11.69 11.69 0 0 1 .16-.14c.38.02.75.27 1.1.1.02-.01.03-.03.02-.05l-.02-.04c-.01-.03-.03-.03-.05 0l-.08.07a.06.06 0 0 1-.06.02 4.38 4.38 0 0 0-.67-.17l-.15-.05-.34-.14-.12-.07a.05.05 0 0 1-.02-.04.05.05 0 0 1 .02-.04l.24-.16c.19-.1.39-.08.58-.04.07.01.12.04.17.09.05.04.12.15.2.2.13.06.27.1.43.13l.02-.01.03-.35a.34.34 0 0 1 .17-.28v-.02l-.1-.34c0-.02 0-.02-.01 0v.03-.05h.02l.02.01h.01l.01-.02v-.31l-.1-.26v-.01c.18.3.13.63.16.93.01.08.03.09.07.01a.48.48 0 0 0 .04-.2v-.53Z" fill="#8A796A"/><path d="M10.52 10.64c.04.13.02.24-.07.32l-.54.03a.35.35 0 0 0-.2.1h-.04v-.07l.16-.2c.04-.06.06-.11.11-.16l.16-.18.15-.15c.13.05.2.2.27.31Z" fill="#A1A19A"/><path d="M7.91 10.9c.04.05.05.1.04.16l-.08.21c-.02.07-.05.07-.08 0a3.87 3.87 0 0 1-.24-.64h.12c.02 0 .04.01.05.03l.2.24Z" fill="#332B27"/><path d="M12.71 11.2h-.09l-.17-.22h-.03V11c.08.11.16.2.25.26h.06a.06.06 0 0 0 .04-.04l.03-.18c.02.01.03.03.04.06a.32.32 0 0 1-.18.22l-.33.14c-.14.07-.5.13-.65 0-.14-.1-.16-.3-.21-.5-.04-.15-.08-.24-.22-.29.12 0 .23.01.33.06.1.04.17.13.26.18.13.09.32.06.59.06a.1.1 0 0 1 .08.03l.2.22Z" fill="#8A796A"/><path d="M5.28 10.76c-.02.2-.08.45-.02.66.02.05.05.1.1.15.12.13.2.17.24.35a.02.02 0 0 1-.02.03.44.44 0 0 1-.21 0 2.57 2.57 0 0 0-.43-.04l-.07-.1a.24.24 0 0 0 .08-.1l.33-.95Z" fill="#787160"/><path d="M8.82 11.45h-.01a.04.04 0 0 1-.03-.01l-.01-.02-.04-.16v-.03a.38.38 0 0 1 .21-.17c.12-.04.32-.12.41-.07v.03c-.15.17-.32.32-.53.43Z" fill="#8A796A"/><path d="M12.62 11.2c.04.02.09.03.13.02l.02-.03.03-.16-.03.18a.06.06 0 0 1-.04.05.06.06 0 0 1-.06-.01.99.99 0 0 1-.25-.26l.03-.01.17.21Z" fill="#8D8A77"/><path d="M9.3 11.95c-.05.11-.25.11-.36.1-.03 0-.04 0-.04-.04l.03-.1c0-.02.02-.03.05-.03l.33.07Z" fill="#332B27"/><path d="m7.32 13.71-.47-.2c-.06-.1-.14-.25-.13-.38.02-.15.18-.32.3-.38l.2-.1a1.13 1.13 0 0 0 .39-.28.05.05 0 0 1 .04 0l.01.01c.2.21.03.5-.07.72a.53.53 0 0 0-.01.28l.03.38c0 .02 0 .02-.02.02l-.27-.07ZM10.29 13.84a5.88 5.88 0 0 1-2 .12c.04-.21.09-.4.15-.56.03-.08.05-.08.06 0a1.4 1.4 0 0 0 .15.38.03.03 0 0 0 .03 0l.02-.01a.7.7 0 0 0 .06-.47l.22.18c.1.08.24.14.36.23.09.08.15.12.19.13.07.03.16.04.26.03a4 4 0 0 1 .5-.03Z" fill="#74695E"/><defs><linearGradient id="a" x1="3.35" y1="3.12" x2="21.9" y2="24.43" gradientUnits="userSpaceOnUse"><stop stop-color="#1A1E21"/><stop offset="1" stop-color="#06060A"/></linearGradient></defs></svg>