<!-- by TradingView --><svg width="18" height="18" viewBox="0 0 18 18" xmlns="http://www.w3.org/2000/svg"><path fill="#F0F3FA" d="M0 0h18v18H0z"/><path d="M3.98 12.25a6.08 6.08 0 0 0 4.66 2.73h.11a5.94 5.94 0 0 0 2.94-.65 5.94 5.94 0 0 0 1.09-9.95 5.76 5.76 0 0 0-6.1-.88A6 6 0 0 0 3.74 6.2a5.92 5.92 0 0 0 .25 6.07ZM9.6 4.09a4.73 4.73 0 0 1 4.16 4.13 4.8 4.8 0 0 1-1.92 4.5 5.03 5.03 0 0 1-2.67 1 5.44 5.44 0 0 1-2.95-.82 4.73 4.73 0 0 1-2.15-3.86A4.83 4.83 0 0 1 7.57 4.3a4.75 4.75 0 0 1 2.04-.21Zm-4.73 7.09c.58 1 1.6 1.82 2.78 2.12a6.35 6.35 0 0 0 1.33.2v-2.9c0-.23.3-.45.5-.6l.07-.06c.11-.08.14-.12.17-.2V8.1c-.02-.08-.17-.16-.28-.21l-.1-.06c-.1-.07-.35-.28-.35-.42V4.39l-.02-.08V4.3c0-.02-.02-.03-.05-.03-.51.01-1.01.15-1.5.32-.84.28-1.5.76-2.1 1.43a4.67 4.67 0 0 0-.45 5.17Z"/></svg>