<!-- by TradingView --><svg width="18" height="18" viewBox="0 0 18 18" xmlns="http://www.w3.org/2000/svg"><path fill="#F0F3FA" d="M0 0h18v18H0z"/><path d="M15 9a5.94 5.94 0 0 1-3.7 5.54 5.94 5.94 0 0 1-6.54-1.3 5.95 5.95 0 0 1-1.3-6.54A5.95 5.95 0 0 1 9 3a5.94 5.94 0 0 1 5.54 3.7c.3.74.46 1.5.46 2.3Z"/><path d="M12.02 5.13c-.03-.08-.08-.13-.15-.14a.6.6 0 0 0-.24.01 3.86 3.86 0 0 0-.82.24l-.86.29c-.27.1-.53.2-.77.32-.03 0-.05 0-.06-.03a9.36 9.36 0 0 0-.5-1.06c-.04-.07-.09-.11-.13-.13-.04-.03-.1-.02-.17.02-.6.31-1.05.56-1.37.76a4.48 4.48 0 0 0-1.3 1.27c-.32.44-.6.92-.84 1.43-.1.22-.18.45-.24.69l-.12.7c-.1.82-.14 1.64-.1 2.47.01.05 0 .06-.03.01a5.5 5.5 0 0 1 .1-6.11 5.5 5.5 0 0 1 5.72-2.3 5.51 5.51 0 0 1 4.4 4.99 5.53 5.53 0 0 1-.68 3.1l-.02-.01-.43-.81c-.24-.43-.41-.76-.51-.97-.17-.36-.3-.7-.38-1.01a.17.17 0 0 0-.06-.1.76.76 0 0 1-.02-.01 8.52 8.52 0 0 0-.33-3.29 1.67 1.67 0 0 0-.1-.33Z" fill="#EE3124"/><path d="M8.87 6.33c.03.03.07.06.12.07.02 0 .02.02 0 .03-.13.12-.26.27-.38.45h-.03a.42.42 0 0 1-.12-.12 13.32 13.32 0 0 1-.22-.36.74.74 0 0 0-.24-.19 1.77 1.77 0 0 0-.6-.17 3.66 3.66 0 0 0-.62-.01c-.04 0-.04-.01-.02-.03l.25-.2c.4-.31.83-.54 1.28-.7.03 0 .05 0 .06.02.1.14.2.32.28.52l.18.57.02.06c0 .02.02.04.04.06Z" fill="#F0F3FA"/><path d="M7.63 9.11c-.03.2.04.34.22.44.12.07.26.1.42.11.18 0 .32-.04.4-.13.05-.05.06-.1.05-.18 0-.08-.05-.13-.14-.15a.39.39 0 0 0-.23.03c-.02.01-.03 0-.03-.01-.02-.23.02-.4.1-.51a.06.06 0 0 1 .04-.02l.05.01c.33.3.61.5.86.6.22.08.45.11.71.1.24-.02.48-.07.71-.16.52-.2.84-.55.98-1.04.12-.46.07-.9-.16-1.32-.2-.35-.51-.58-.94-.7a2.1 2.1 0 0 0-1.19.04 5.5 5.5 0 0 1 2.13-.75c.02 0 .03 0 .04.02.16.39.25.8.26 1.23a56.75 56.75 0 0 0 .11 1.71c0 .19.01.33.06.41l.18.32.09.3c.02.12.05.22.1.3a16.5 16.5 0 0 0 .62 1.21 32.82 32.82 0 0 1 .57 1.08 5.56 5.56 0 0 1-8.81.6A12.67 12.67 0 0 1 4.8 9.4c.1-.55.28-1.07.52-1.56.02-.04.04-.04.04 0 .06.27.18.5.39.68.18.17.42.3.7.37.5.13 1 .06 1.5-.21.02-.01.03 0 .03.02.01.1 0 .22-.03.35 0 .02-.02.02-.03.02h-.02a.56.56 0 0 0-.16-.04c-.07 0-.1.03-.12.1Z" fill="#F0F3FA"/><path d="M6.16 8.43a.97.97 0 0 1-.4-.45 1 1 0 0 1-.07-.56 1.47 1.47 0 0 1 .64-.98c.16-.1.36-.14.63-.12.2.01.42.05.64.13.14.05.26.11.36.2.09.07.17.17.25.3.1.18.13.34.1.51a1.66 1.66 0 0 1-.58.92c-.21.18-.47.26-.78.26-.29 0-.55-.07-.79-.2ZM11.46 7.41a1.26 1.26 0 0 1-.2.97c-.22.31-.52.51-.9.6-.4.1-.75.06-1.09-.1-.16-.1-.29-.2-.4-.33a1.12 1.12 0 0 1-.23-.94c.04-.17.1-.33.2-.48.22-.3.52-.5.91-.6.39-.1.75-.06 1.08.11.16.09.3.2.4.33.11.13.19.28.23.44Z" fill="#F0F3FA"/><path d="M7.33 7.92a.21.21 0 1 0 0-.43.21.21 0 0 0 0 .43ZM9.83 8.2c.1.07.25.06.32-.04s.04-.24-.07-.32c-.11-.08-.26-.06-.33.04-.06.1-.03.24.08.32Z"/></svg>