<!-- by TradingView --><svg width="18" height="18" viewBox="0 0 18 18" xmlns="http://www.w3.org/2000/svg"><path fill="url(#a)" d="M0 0h18v18H0z"/><path d="M8.6 15c-.09-.5-.2-.99-.33-1.44a6.3 6.3 0 0 0-.98-1.94c-.3-.4-.63-.7-.99-.9a.08.08 0 0 1-.04-.07 17.51 17.51 0 0 0-.81-3.2c-.26-.7-.61-1.4-1.07-2.06-.2-.28-.37-.5-.52-.62-.2-.17-.47-.45-.86-.77.04 0 .1 0 .18.04L6.1 5.87c.43.28.75.52.96.73.8.8 1.27 1.7 1.6 2.87.14.51.28 1.1.42 1.75.11.55.21.93.3 1.14.22.53.55.92.95 1.3-.54.49-1.13.98-1.74 1.34ZM10.8 13a2.04 2.04 0 0 1-.77-1.46 7.65 7.65 0 0 1 1-4.5 4.98 4.98 0 0 1 1.8-1.75l1.95-1.2A.66.66 0 0 1 15 4c-.01.02-.15.16-.42.4-.19.16-.32.3-.4.4a12.24 12.24 0 0 0-1.74 3.61c-.18.57-.26 1.1-.24 1.6 0 .03-.01.04-.03.05-.42.21-.75.55-.99 1-.29.57-.5 1.3-.37 1.94Z" fill="#261E2D"/><defs><linearGradient id="a" x1="9" y1="0" x2="9" y2="18" gradientUnits="userSpaceOnUse"><stop stop-color="#E60000"/><stop offset="1" stop-color="#840100"/></linearGradient></defs></svg>