<!-- by TradingView --><svg width="18" height="18" viewBox="0 0 18 18" xmlns="http://www.w3.org/2000/svg"><path fill="#FFD124" d="M0 0h18v18H0z"/><path d="M6.04 10.94c-.04.19-.1.39-.18.6-.18.47-.33.8-.65 1.15a.9.9 0 0 1-.6.3c-.66.07-1.05-.51-1.24-1.03a5.9 5.9 0 0 1-.36-1.78 8.9 8.9 0 0 1 .46-3.23c.1-.3.3-.66.44-.9.23-.37.53-.64.92-.84a1.52 1.52 0 0 1 1.74.36h.04l.12-.08a2.92 2.92 0 0 1 2.96.1l.03-.01c.55-.5 1.35-.67 2.07-.53a1.58 1.58 0 0 1 .82.41.02.02 0 0 0 .02 0 1 1 0 0 1 .87-.4c.57.03.97.94 1.1 1.39l.19.74c.1.42.17.82.18 1.2l.02.42a4.9 4.9 0 0 1-.63 2.78 1.1 1.1 0 0 1-1.67.2 1.71 1.71 0 0 1-.44-.76h-.01c-.15.09-.3.14-.47.25-.17.11-.34.19-.5.24l-.59.17a5.47 5.47 0 0 1-2.6.03 5.14 5.14 0 0 1-2.04-.79Z" fill="#020101"/><path d="M11.84 7.2a1.93 1.93 0 0 0-.14-.08c-.13-.07-.28-.2-.23-.37.01-.05 0-.06-.05-.03-.19.15-.33.3-.35.57a.59.59 0 0 0-.16.03c-.1.04-.1.08 0 .1h.07c.01 0 .02 0 .03.02.07.15.1.26.23.38a2 2 0 0 0 1.68.44c.11-.03.27-.09.47-.18h.03c.07.15.18.2.27.3.08.07 0 .2-.06.25-.22.18-.42.22-.75.3a15.67 15.67 0 0 1-1.36.19c-.7.06-1.23.1-1.6.11a17.68 17.68 0 0 1-2.95-.13c-.1-.01-.15.03-.15.12-.01.19.08.36.2.51.19.25.32.4.38.45.18.13.31.25.48.34a6.26 6.26 0 0 0 1.14.49 5 5 0 0 0 2.39-.1c.42-.12 1.1-.47 1.24-.93a.44.44 0 0 0-.06-.38 1.07 1.07 0 0 0-.48-.4 6.69 6.69 0 0 0 .44-.07h.1c.19.12.31.28.38.47.05.15.03.32-.06.53-.1.24-.27.44-.49.6-.36.25-.72.4-1.13.49a7.51 7.51 0 0 1-1.05.15h-.2c-.03 0-.04 0-.04.03v.01l.01.02h.02l.37.06c.08.01.2 0 .34-.03.01 0 .02 0 .02.02v.04A4.43 4.43 0 0 1 9 11.7c-.48-.07-.9-.18-1.22-.31a2.52 2.52 0 0 1-.75-.49c-.2-.18-.35-.3-.42-.46l-.15-.3c-.12-.2-.22-.41-.29-.63-.02-.08-.04-.1-.05-.06 0-.05-.01-.1.02-.15.05-.1.13-.2.16-.34 0-.05 0-.05-.03-.01l-.13.18c-.02.02-.03.02-.03 0a4.67 4.67 0 0 0-.08-.68 1.32 1.32 0 0 0-.13-.35h-.02v.01l.09 1c.04.47.03.93-.02 1.4a3.83 3.83 0 0 1-.86 2.13.69.69 0 0 1-.2.14 1.26 1.26 0 0 1-.65-.36c-.36-.37-.51-.8-.68-1.34-.06-.16-.1-.36-.15-.6l-.12-.62c-.03-.2-.05-.42-.05-.7 0-.06-.01-.16-.05-.31.05-.57.25-1.25.34-1.61.04-.2.1-.35.16-.5.18-.38.4-.8.72-1.08v.02a.04.04 0 0 0 .05 0c.1-.1.23-.2.37-.27a.2.2 0 0 1 .08-.02l.07-.01a.88.88 0 0 0 .08-.04.31.31 0 0 1 .09-.03c.18-.04.36-.05.53-.05l.08.02.03-.01v-.03c.27.07.5.2.7.4l-.01.02c-.14.1-.25.2-.33.34a8.05 8.05 0 0 1-.25.49.02.02 0 0 0 .02 0 .02.02 0 0 0 .02 0c.03-.05.08-.1.16-.17.28-.22.5-.4.68-.52l.43-.26.45-.25a2.76 2.76 0 0 1 2.48.83c.05.05.14.1.18.15.05.03.05.03.02-.02a2.4 2.4 0 0 0-.26-.34c0-.17 0-.33.03-.47.3-.18.64-.28 1-.3.4-.03.84.02 1.17.23a1.89 1.89 0 0 1 .4.39c-.25-.03-.57-.03-.78.13-.04.03-.04.04.02.03.37-.08.74-.08 1.1.06.23.1.33.25.35.48 0 .02 0 .03-.03.02a2.21 2.21 0 0 0-1.39.02c-.06.03-.05.04.01.04.3-.01.86-.1 1.23.01.19.06.9.32.93.53v.01l-.01.01-.01.01h-.02c-.73.02-1.46.02-2.24.08Z" fill="#FFD124"/><path d="M5.79 5.24v.03l-.03.01-.08-.02c-.17 0-.34.01-.53.05a.31.31 0 0 0-.09.03.88.88 0 0 1-.08.04h-.07a.2.2 0 0 0-.08.03c-.14.07-.26.16-.37.27H4.4v-.02c.16-.14.33-.26.53-.36.1-.06.21-.09.32-.1.18-.02.35 0 .53.04Z" fill="#FFFFFE"/><path d="M13.8 5.32c0 .03 0 .07.03.1l.06.09a5.58 5.58 0 0 1 .8 2.37l.09.63c.03.24.04.5.04.8 0 .03.01.05.04.06-.01.4-.07.79-.18 1.17-.1.35-.24.68-.44.98a.93.93 0 0 1-.38.36.72.72 0 0 1-.36.07 1.1 1.1 0 0 1-.58-.56l-.13-.36-.02-.4.11-.12c.23-.26.4-.68.26-1a.92.92 0 0 0-.31-.4c-.03-.01-.03-.02 0-.03.31-.04 1.12-.27 1.01-.71a.2.2 0 0 0-.1-.12 1.3 1.3 0 0 1-.21-.2.06.06 0 0 1 0-.04l.02-.02c.28-.2.54-.44.6-.78l.01-.03c.28-.24-.54-.6-.67-.64-.02 0-.02-.01-.02-.03a.6.6 0 0 0-.27-.57 2.22 2.22 0 0 0-.33-.13.03.03 0 0 1-.02-.02.42.42 0 0 0-.14-.22.02.02 0 0 1 0-.02c.24-.3.74-.49 1.08-.23Z" fill="#FFD124"/><path d="M7.66 5.3a107.38 107.38 0 0 1-.88.5 14.49 14.49 0 0 0-.88.69v-.05c.1-.15.18-.3.25-.44l.28-.18.29-.18c.15-.08.3-.18.46-.23.15-.05.31-.09.48-.12Z" fill="#E79929"/><path d="M14.86 9.37c-.03 0-.04-.03-.04-.05 0-.3-.01-.57-.04-.81l-.08-.63a5.58 5.58 0 0 0-.9-2.56c.12.1.23.23.33.41.16.28.26.53.32.75a8.49 8.49 0 0 1 .4 2.9Z" fill="#FFFFFE"/><path d="M10.11 5.44c-.03.14-.04.3-.03.47l-.28-.25a.01.01 0 0 1 0-.01l.31-.21Z" fill="#E79929"/><path d="m6.37 7.56.68-.09c.52-.06 1.05-.1 1.58-.13l.52-.05a53.55 53.55 0 0 1 1.17-.1.9.9 0 0 0-.5-.3c-.13-.03-.33-.08-.49-.1-.54-.02-1.04-.01-1.51.03a3.86 3.86 0 0 0-.86.18h-.11c-.05.03-.06.02-.02-.02a.63.63 0 0 1 .28-.15c.26-.07.5-.11.72-.13a12.44 12.44 0 0 1 1.77 0 .78.78 0 0 0-.38-.52c-.32-.2-.66-.27-1.04-.22L7.65 6c-.03 0-.04-.01 0-.03a.84.84 0 0 1 .25-.1c.5-.1 1.07-.08 1.48.22.22.16.33.37.33.62 0 .01 0 .02.02.02.3.06.64.2.73.52v.04l-.07.16c-.15.39-.4.69-.76.9-.3.18-.6.3-.93.37-.72.14-1.35 0-1.9-.4l-.26-.2c-.15-.14-.21-.3-.3-.5a.03.03 0 0 1 .02-.06l.11-.01Z" fill="#020101"/><path d="m11.84 7.2-.77.1c.02-.28.16-.43.35-.58.05-.03.06-.02.05.03-.05.16.1.3.23.37l.14.07ZM7.03 6.98c-.05.12-.16.2-.1.35l.12.14-.68.09a.65.65 0 0 1 .14-.22c.12-.12.27-.24.45-.34-.01-.01.01-.02.07-.02Z" fill="#E79929"/><path d="M11.74 7.92c.3.19.71.22.98-.07.14-.16.2-.34.2-.54l.01-.04.04-.02 1.07-.04.02.01c-.11.39-.52.68-.87.82-.3.13-.62.17-.93.1a1.82 1.82 0 0 1-.93-.41.7.7 0 0 1-.19-.32V7.4l.27-.03h.01c0 .24.1.42.32.55Z" fill="#FFFFFE"/><path d="M12.55 7.61a.14.14 0 1 0 0-.27.14.14 0 0 0-.14.13c0 .08.07.14.14.14ZM6.93 7.58a.02.02 0 0 1 .02 0 .02.02 0 0 1 0 .02c.03.49.4.81.88.86.29.03.54-.06.77-.27.22-.21.22-.44.21-.72 0-.02.01-.03.03-.03l1.47-.06c-.03.1-.08.2-.15.28-.25.34-.55.6-.94.77-.49.22-1 .28-1.55.19-.1-.02-.25-.07-.44-.16a1.71 1.71 0 0 1-.84-.79c0-.01 0-.02.02-.02l.52-.07Z" fill="#FFFFFE"/><path d="M8.47 7.92c.08-.05.1-.14.06-.21-.05-.07-.14-.08-.22-.04-.07.05-.1.14-.05.2.04.08.14.1.21.05Z" fill="#FFFFFE"/><path d="M3.2 8.85c.03.15.04.25.04.31a4.75 4.75 0 0 0 .17 1.32c.04.24.1.44.15.6.17.55.32.97.68 1.34.18.19.4.3.66.36-.16.08-.34.1-.53.08-.55-.05-.88-.9-1.02-1.34-.06-.2-.12-.54-.2-1.03-.02-.24-.01-.5-.03-.83 0-.15.02-.43.07-.81Z" fill="#E79929"/><path d="M8.24 9.36a.3.3 0 0 0-.11.24c0 .2.24.2.4.21.1 0 .25 0 .46-.02.34-.02.68 0 1.02.08.16.04.3.13.41.27a10.6 10.6 0 0 1-.44-.08c-.47-.1-.93-.05-1.37.14-.16.07-.3.17-.4.29-.02.02-.04.02-.06 0-.23-.13-.45-.29-.69-.47-.2-.16-.46-.46-.5-.73a.04.04 0 0 1 .01-.04.05.05 0 0 1 .04-.01c.4.07.81.11 1.23.12Z" fill="#D74971"/><path d="M10 10.97a.86.86 0 0 1 .08-.57c.03-.05.06-.1.1-.12l.03-.01h.17c.15.05.35.07.48-.04.17-.13.22-.37.18-.57-.02-.11-.1-.22-.15-.32a.02.02 0 0 1 0-.03.03.03 0 0 1 .02-.01l.8-.06c.1 0 .24.06.3.08.17.04.32.14.43.28.21.25.04.59-.2.75-.29.22-.6.37-.92.45-.42.12-.86.18-1.32.17Z" fill="#900100"/><path d="M10.42 10.14a.76.76 0 0 0-.41-.27c-.34-.08-.68-.1-1.02-.08a4.9 4.9 0 0 1-.46.02c-.16 0-.4-.02-.4-.21 0-.1.03-.17.1-.24a26.44 26.44 0 0 0 2.33-.04c.05 0 .11.02.17.08.2.19.28.55.03.74-.04.03-.1.04-.17.03a.46.46 0 0 1-.17-.03Z" fill="#FB678F"/><path d="M9 11.7a5.73 5.73 0 0 1-1.45-.24c-.32-.08-.62-.2-.9-.35-.23-.13-.38-.2-.55-.35-.03-.03-.05-.06-.04-.1.05-.4.07-.8.06-1.2.01-.05.03-.03.05.05.07.22.17.43.29.63l.15.3c.07.16.22.28.42.46.23.21.47.37.75.48.33.14.74.25 1.22.32Z" fill="#E79929"/><path d="M10.38 10.27h-.2a.31.31 0 0 0-.1.13c-.1.2-.12.4-.08.57-.38.01-.76-.04-1.13-.17a7.33 7.33 0 0 1-.57-.23v-.03c.25-.21.55-.3.86-.37.15-.03.34-.04.57-.01.22.02.44.06.65.11Z" fill="#690100"/><path d="M12.77 10.64c0 .2.01.33.02.39l.13.36c.09.22.28.41.58.56-.3.01-.53-.06-.7-.24a1.49 1.49 0 0 1-.38-.77v-.03l.35-.27ZM10.89 11.3l-.1.07c-.02 0-.02 0 0 .02.03.02.07.03.12.03a3.6 3.6 0 0 0 .35-.03l-.44.13v-.04c0-.01 0-.02-.02-.02a.99.99 0 0 1-.34.03 7.73 7.73 0 0 0-.4-.08v-.01c0-.02 0-.03.03-.03h.2l.6-.06Z" fill="#E79929"/></svg>