<!-- by TradingView --><svg width="18" height="18" viewBox="0 0 18 18" xmlns="http://www.w3.org/2000/svg"><path fill="#F0F3FA" d="M0 0h18v18H0z"/><path d="M5.89 8.76c-.12.18-.33.29-.61.32h-.23c-.3-.02-.52-.13-.64-.34-.42-.73.61-2.39.66-2.46l.1-.16.1.17c.44.78.98 1.9.62 2.47Z" fill="#24BC48"/><path d="M7.35 9.07c-.07.1-.19.18-.36.2v.33l-.13.01v-.18H6.8v-.16c-.18-.02-.31-.09-.38-.21-.25-.44.33-1.4.4-1.5l.08-.13.07.13c.27.48.6 1.15.37 1.5Z" fill="#239942"/><path d="m13.96 9.8-.02.12a4.35 4.35 0 0 1-.12.53l-.03.1a4.6 4.6 0 0 1-.2.52h-.24l-.53-.01-.6-.01-1.94-.04-.6-.01h-.4l-.7-.43-.2-.13-.1-.06-.53-.34.07-.08.82-.99.45-.61.73-.62.46-.17.18.09.55.61.27.44.19.26.27-.35.37-.35.27-.09.27.1.37.52.46.44.27.32.2.24Z" fill="#0B6C96"/><path d="M8.85 10.39 7.2 13.45l-.11.2a4.5 4.5 0 0 1-.42-.2l-.06-.03a4.86 4.86 0 0 1-2.57-3.4L4 9.81a7.07 7.07 0 0 1 1.05-.18l.23-.03c.45-.03.95-.02 1.46.06l.18.03c.28.06.55.13.82.24.04-.08.12-.19.21-.32l.18.15-.18.26c.2.09.39.2.57.32l.16-.1.17.15Z" fill="#239942"/><path d="M13.82 10.45c0 .04-.02.07-.03.1a4.61 4.61 0 0 1-.45 1l-.05.09a4.79 4.79 0 0 1-.72.9A5.1 5.1 0 0 1 8.97 14h-.04a5.15 5.15 0 0 1-1.1-.13c-.02 0-.05 0-.08-.02a5.05 5.05 0 0 1-1.09-.4l.04-.22.11-.57.46-.79.27-.44.73-.79.16-.09.22-.12.26-.14.55-.35.82-.18.64-.08 1.19.08.9.27.56.26.05.04.2.12Z" fill="#24BC48"/><path d="m13.34 11.55-.05.09a4.79 4.79 0 0 1-.72.9A5.1 5.1 0 0 1 8.97 14h-.04a5.15 5.15 0 0 1-1.1-.13l.08-.16v-.04l.18-.75.36-.87.73-.62.46-.26.73-.27.82-.17.64.09.73.17.46.35.13.1.2.11Z" fill="#239942"/><path d="m9.1 13.89.08-.61.46-.7.73-.53.91-.18.73.26.37.18.18.09-.55.52-.9.53-1.01.35-.73.09h-.28Z" fill="#24BC48"/><path fill-rule="evenodd" d="m11.7 4-.23.85.22.05.23-.85L11.7 4Zm-.82.03.23-.03.12.87-.22.03-.13-.87Zm-.66.28-.18.13.58.69.17-.14-.57-.68Zm-.71.73.1-.2.8.43-.1.2-.8-.43Zm2.65.69.01.09v.04c0 .15-.04.3-.13.43a.84.84 0 0 1-.35.3.87.87 0 0 1-.9-.11.81.81 0 0 1-.27-.38.78.78 0 0 1 .24-.85.86.86 0 0 1 .57-.2c.14 0 .27.03.4.09.07.03.22.14.29.19l.02.02a6.6 6.6 0 0 1 .22.17 4.74 4.74 0 0 1 1.72 4.11 2.72 2.72 0 0 1-.04.29 4.2 4.2 0 0 1-.09.41 1.67 1.67 0 0 1-.06.21v.02a4.6 4.6 0 0 1-.38.88 1.8 1.8 0 0 1-.11.2 4.33 4.33 0 0 1-.72.9h-.01A5.1 5.1 0 0 1 8.97 14h-.04a6.58 6.58 0 0 1-1.1-.13c-.02 0-.05 0-.08-.02a5.02 5.02 0 0 1-1.09-.4l-.03-.01-.03-.02a4.86 4.86 0 0 1-2.57-3.4L4 9.81a7.19 7.19 0 0 1 1-.18v-.55c-.28-.03-.48-.14-.6-.34-.4-.73.62-2.39.67-2.46l.1-.16.1.17c.44.78.98 1.9.62 2.47-.12.18-.33.29-.61.32h-.05v.53h.05a6.31 6.31 0 0 1 1.53.06v-.4c-.18-.02-.31-.09-.38-.21-.25-.44.33-1.4.4-1.5l.08-.13.07.13c.27.48.6 1.15.37 1.5-.07.12-.19.19-.36.2v.45c.26.05.5.12.75.22l.21-.32c.5-.7 1.53-2.04 2.23-2.12.16-.02.3.03.4.13.34.32.53.66.66.9.07.12.16.3.2.3 0 0 .03 0 .08-.05.09-.09.17-.18.24-.28.2-.22.37-.44.6-.44.11 0 .23.07.34.2.2.25.7.77 1.07 1.16v-.24a4.5 4.5 0 0 0-1.6-3.44ZM7 8.76v.33c.1-.02.17-.06.2-.12.13-.18.03-.58-.3-1.18-.18.33-.45.93-.3 1.18.04.07.11.11.22.12v-.33h.18Zm-1.76-.49v.59h.05c.2-.03.33-.1.41-.22.21-.33.03-1.03-.53-2.07-.31.54-.81 1.6-.55 2.07.07.12.2.2.39.22v-.59h.23Zm8.42 1.93a4.76 4.76 0 0 0-5.13.14 3.97 3.97 0 0 0-.57-.32c.05-.08.1-.17.18-.26.54-.77 1.51-1.99 2.08-2.05.09-.01.16.01.22.07.3.3.48.61.6.84h.01c.13.24.22.4.37.41.13.02.24-.08.27-.11.1-.09.18-.18.26-.28v-.01l.22-.25c.07-.06.14-.1.2-.1.04 0 .1.03.16.1.24.3.84.93 1.22 1.33a4.4 4.4 0 0 1-.09.5Zm-5.13.41a4.2 4.2 0 0 0-1.68 2.69 4.6 4.6 0 0 0 .92.33A3.33 3.33 0 0 1 9.68 11a3.56 3.56 0 0 1 3.55.3l.12-.23c.1-.21.18-.42.24-.64a4.52 4.52 0 0 0-4.88.05l-.13.09-.03.02-.02.01-.01.01Zm-3.24-.79a4.9 4.9 0 0 1 3.05.66 4.44 4.44 0 0 0-1.7 2.7 4.63 4.63 0 0 1-2.37-3.2 7.79 7.79 0 0 1 1.02-.16Zm7.27 2.42c.21-.23.4-.48.57-.74a3.28 3.28 0 0 0-2.84-.49 3.13 3.13 0 0 0-2.3 2.67c.32.07.64.1.96.1a2.23 2.23 0 0 1 2.25-1.97c.5 0 .97.15 1.36.43Zm-3.38 1.54a2 2 0 0 1 2.02-1.76c.43 0 .86.14 1.2.38a4.86 4.86 0 0 1-3.22 1.38Zm1.72-7.5a.63.63 0 0 0 1-.17.57.57 0 0 0-.08-.62.62.62 0 0 0-.48-.22.63.63 0 0 0-.44.17.58.58 0 0 0 0 .84ZM8.7 9.95l-.2-.11c.03-.05.75-1.17 1.23-1.44l.12.19c-.36.2-.95 1.05-1.15 1.36Zm.7-4.07v-.22h.92v.22h-.92Zm.98.26-.87.27.07.21.87-.27-.07-.2Zm1.51-1.13.54-.71.18.13-.53.7-.19-.12Z" fill="#131414"/><path d="M11.33 6.52c.38 0 .68-.3.68-.66 0-.37-.3-.66-.68-.66-.38 0-.69.3-.69.66 0 .36.31.66.69.66Z" fill="#E07103"/></svg>