<!-- by TradingView --><svg width="18" height="18" viewBox="0 0 18 18" xmlns="http://www.w3.org/2000/svg"><path fill="url(#as3a2sxhw)" d="M0 0h18v18H0z"/><path d="M11.81 13.2c-.79.51-1.75.8-2.8.8C6.15 14 4 11.94 4 9s2.15-5 5-5 5 2.06 5 5c0 1.34-.45 2.5-1.2 3.35l-.99.86ZM12.5 9c0-2.05-1.47-3.5-3.5-3.5A3.38 3.38 0 0 0 5.5 9c0 2.06 1.47 3.5 3.5 3.5 2.52 0 3.5-1.83 3.5-3.5Z" fill="#fff"/><path d="M10 10H8l4.02 4H14l-4-4Z" fill="#00ADEE"/><defs><linearGradient id="as3a2sxhw" x1="3.35" y1="3.12" x2="21.9" y2="24.43" gradientUnits="userSpaceOnUse"><stop stop-color="#1A1E21"/><stop offset="1" stop-color="#06060A"/></linearGradient></defs></svg>