<!-- by TradingView --><svg width="18" height="18" viewBox="0 0 18 18" xmlns="http://www.w3.org/2000/svg"><path fill="#F0F3FA" d="M0 0h18v18H0z"/><path fill-rule="evenodd" d="M14.5 9a5.5 5.5 0 1 1-11 0 5.5 5.5 0 0 1 11 0Zm.5 0A6 6 0 1 1 3 9a6 6 0 0 1 12 0ZM6.93 6.97h.59c.1-.1.41-.32.89-.32.47 0 .79.21.89.32h.59C9.74 6.65 9.24 6 8.4 6s-1.34.65-1.48.97Zm.3 3.08c0 .17-.04.52-.16.65h3.12c.04-.1.14-.39.14-.65h-3.1ZM5.58 10H5c0 .38.18 1.03.89 1.03s.89-.65.89-.98V7.14h-.6v2.91c0 .11-.05.33-.3.33-.23 0-.29-.11-.29-.22V10ZM10 7.14v.64h1.4v2.92h.6V7.78h1v-.64h-3Zm.63 1.62H7.07v.65h3.56v-.65ZM7.07 7.14h2.37v.64H7.07v-.64Zm.6 3.89h-.6c.1.32.54.97 1.49.97a1.5 1.5 0 0 0 1.48-.97h-.6c-.1.1-.41.32-.88.32-.48 0-.8-.21-.9-.32Z" fill="#1D463B"/></svg>