<!-- by TradingView --><svg width="18" height="18" viewBox="0 0 18 18" xmlns="http://www.w3.org/2000/svg"><path fill="#FE0000" d="M0 0h18v18H0z"/><path d="M11.1 4.93a.04.04 0 0 0 .04 0c.25-.3.54-.53.85-.7.45-.25 1.02-.33 1.48-.05.28.16.44.42.5.77.05.28.04.59-.02.91-.05.3-.14.65-.25 1.04l-.37 1.18a.8.8 0 0 0-.04.28c0 .13.02.33.05.62.02.19.02.37 0 .54l-.03.37c0 .2.09.47.1.68a2.8 2.8 0 0 1-.62 1.9 3.26 3.26 0 0 1-1.09.84c-.43.2-.89.36-1.38.47-.32.08-.67.14-1.05.18-.24.03-.46.05-.68.04a7 7 0 0 1-2.57-.6 3.31 3.31 0 0 1-1.6-1.72 2.44 2.44 0 0 1-.05-1.74.91.91 0 0 0 .03-.3l-.01-.67c0-.29.04-.57.13-.85l-.02-.1-.07-.33a98.06 98.06 0 0 0-.4-1.87A5.29 5.29 0 0 1 4 5.26c0-.53.25-.99.77-1.17.53-.2 1.02-.06 1.47.25a6.78 6.78 0 0 1 .6.45h.03a4.56 4.56 0 0 1 2.2-.47c.62.02 1.2.17 1.73.46l.3.15Z" fill="#fff"/><path d="M11.1 5.34c.06.03.12.02.18-.03.4-.43.81-.85 1.4-.93.34-.05.7.07.86.38.13.25.12.61.09.9l-.11.58c-.14.53-.32 1.13-.54 1.82a1.2 1.2 0 0 0-.03.4l.06.67c.02.14 0 .31-.02.5-.02.1-.02.2-.02.28 0 .12.04.3.08.51.03.1.03.24.03.41a2.55 2.55 0 0 1-.36 1.2c-.29.4-.65.72-1.1.94-.44.21-.89.37-1.35.47a5.89 5.89 0 0 1-3.47-.11 3.24 3.24 0 0 1-1.59-1.02 3.3 3.3 0 0 1-.36-.58 2.08 2.08 0 0 1-.2-1.4 7.04 7.04 0 0 1 .12-.56l-.01-.8c0-.2.01-.37.04-.5l.08-.3a.37.37 0 0 0 0-.18l-.11-.45-.33-1.47c-.07-.28-.09-.63-.07-.9.03-.3.15-.55.41-.7.35-.18.8-.13 1.14.08.3.19.54.4.8.6.06.05.13.05.2.01a4.1 4.1 0 0 1 3.57-.13l.6.3Z"/><path d="M5.1 5.87c-.01.03-.02.07 0 .14l.2.94c.01.09-.01.16-.07.23H5.2a.2.2 0 0 1-.07-.1l-.22-1.04c-.05-.25-.07-.51-.06-.78 0-.09.02-.17.05-.24.08-.2.23-.26.46-.22.2.04.4.13.59.27a6.5 6.5 0 0 1 .46.4c.02.04.01.07-.02.1a4.36 4.36 0 0 0-.76.72l-.03-.01-.02-.03-.08-.23a.36.36 0 0 0-.08-.15c-.07-.07-.24-.08-.31 0ZM12.77 5.9a.17.17 0 0 0-.13-.01c-.2.06-.27.38-.34.56a.04.04 0 0 1-.03.03.04.04 0 0 1-.04-.02l-.7-.73a.06.06 0 0 1 0-.09c.3-.34.68-.65 1.1-.82.24-.1.48.07.52.3.02.1.02.21.01.34a6.7 6.7 0 0 1-.17.99 24.74 24.74 0 0 1-.3 1.03.03.03 0 0 1-.04-.02.97.97 0 0 1-.07-.16.28.28 0 0 1 0-.15l.24-1a.48.48 0 0 0 0-.16c0-.05-.02-.08-.05-.1ZM9.25 8.56c.12 0 .2-.09.23-.2.04-.11.06-.2.07-.26.06-.23.2-.46.32-.64.16-.24.38-.45.63-.6.1-.07.2-.11.3-.14a.42.42 0 0 1 .4.07c.48.37.85.84 1.06 1.4.05.16.1.35.12.57l.05.57c.02.2-.02.41-.03.6a7.18 7.18 0 0 0 .14.67c.02.06.02.17 0 .33a1.96 1.96 0 0 1-.91 1.51 4.99 4.99 0 0 1-5.52.08c-.32-.2-.6-.48-.78-.82-.13-.24-.2-.54-.22-.87-.02-.33.04-.6.19-.8a.13.13 0 0 0 .02-.07c.01-.14-.01-.32-.03-.57a2.82 2.82 0 0 1 .62-1.95c.2-.25.44-.48.71-.68.1-.08.21-.1.32-.06.3.09.51.18.73.4.07.07.14.18.2.31.14.26.28.54.42.86.06.12.14.29.3.3l.66-.01Z" fill="#fff"/><path d="M7.4 8.38c-.23-.12-.44-.15-.64 0a.18.18 0 0 1-.1.03c-.04 0-.05-.02-.03-.07a.63.63 0 0 1 .29-.3.3.3 0 0 1 .28 0c.13.06.24.15.31.27a.04.04 0 0 1 0 .04c-.03.05-.07.05-.11.03ZM10.51 8.29a1.82 1.82 0 0 0-.27.1.04.04 0 0 1-.04-.02v-.02l.03-.1c.13-.23.47-.3.67-.12.09.07.17.16.23.27v.03h-.02c-.08-.02-.16-.09-.23-.11a.57.57 0 0 0-.37-.03ZM6.62 9.88a.04.04 0 0 0 .05.06c.1-.01.26-.06.36 0 .03 0 .04.03.02.05l-.02.02c-.26.04-.43.07-.5.1a2.03 2.03 0 0 0-.23.11h-.02l-.01-.02v-.02c-.03-.45.06-.92.36-1.27a.5.5 0 0 1 .32-.18c.31-.04.54.21.65.48.06.15.12.34.19.58.02.08.02.15.01.22 0 .07-.06.08-.12.06a.63.63 0 0 1-.3-.33 1.28 1.28 0 0 0-.3-.45c-.07-.07-.13-.06-.19.02a3.05 3.05 0 0 0-.27.57ZM10.98 9.88l-.01-.04a3.88 3.88 0 0 0-.23-.51c-.05-.08-.15-.12-.22-.04-.11.14-.18.24-.2.29-.05.11-.1.25-.19.32a.74.74 0 0 1-.23.15.05.05 0 0 1-.07-.02V10c0-.09.02-.2.05-.34.07-.3.18-.54.36-.74.22-.25.46-.26.72-.04.04.03.09.1.15.22.15.28.22.6.24.95 0 .04-.01.08-.03.1a.2.2 0 0 1-.08.04h-.03c-.22-.13-.37-.15-.63-.18a.19.19 0 0 1-.1-.05v-.01a1.34 1.34 0 0 1 .47-.02.05.05 0 0 0 .03-.03v-.02ZM8.87 10.27c.15 0 .32.02.4.15.04.08.03.14-.04.2-.1.06-.23.07-.35.07-.12 0-.24 0-.35-.06-.07-.05-.09-.11-.04-.2.07-.13.24-.16.38-.16ZM8.1 11.73c-.08-.02-.16 0-.22-.02-.1-.01-.38-.09-.43-.19-.02-.05 0-.1.05-.14l.02-.02a.06.06 0 0 1 .05.01l.02.02c.1.14.23.16.4.17.34.02.59-.13.82-.37l.02-.01h.04l.02.01c.07.06.19.19.29.25.3.2.59.17.88-.07h.03c.04.02.08.05.1.09v.03a.13.13 0 0 1-.08.07c-.17.07-.34.12-.51.16-.05.01-.08.05-.08.1-.04.25-.13.47-.26.65-.1.12-.27.17-.43.17-.28 0-.49-.18-.58-.43a4 4 0 0 1-.13-.47l-.02-.01Z"/><path d="M9.03 12c.08.07.15.14.16.25.01.13-.05.22-.2.26-.2.06-.36 0-.5-.14-.16-.17.03-.32.16-.4.13-.08.25-.07.38.03Z" fill="#BA2720"/></svg>