<!-- by TradingView --><svg width="18" height="18" viewBox="0 0 18 18" xmlns="http://www.w3.org/2000/svg"><path fill="#F0F3FA" d="M0 0h18v18H0z"/><path d="M6.18 7.24v3.17l1.4-.35v-2.3l-1.4-.52Z" fill="#30175F"/><path d="m7.59 6.53-1.41.7 1.4.53V6.53Z" fill="#A95EBE"/><path d="m7.59 10.06-1.41.35 1.4.88v-1.23Z" fill="#34226F"/><path d="m9 12-1.41-.7v-1.24l1.41.7V12Z" fill="#30165F"/><path d="M10.41 11.3 9 12v-1.24l1.41-.7v1.23Z" fill="#301760"/><path d="m11.82 10.41-1.4.88v-1.23l1.4.35Z" fill="#8251C4"/><path d="M10.41 6.53v3.53l1.41.35-1.23-1.59 1.23-1.4-1.4-.9Z" fill="#C66DAD"/><path d="m10.41 8.65 1.41 1.76v-3l-1.4 1.24Z" fill="#8953C4"/><path d="m10.41 10.06-1.41.7-1.41-.7L9 9.36l1.41.7Z" fill="#2F1660"/><path d="M10.41 10.06 9 9.36l1.41-.71v1.4Z" fill="#A05BC0"/><path d="M7.59 10.06 9 9.36l-1.41-.71v1.4Z" fill="#3E2B88"/><path d="M7.59 7.76v.89l1.41.7v-.88l-1.41-.7ZM10.41 7.76v.89L9 9.35v-.88l1.41-.7Z" fill="#9055C1"/><path d="M7.59 7.76 9 8.47l1.41-.7V6.52L9 5.83l-1.41.7v1.23Z" fill="#E3BB99"/><path fill-rule="evenodd" d="M9 14.3A5.3 5.3 0 1 0 9 3.7a5.3 5.3 0 0 0 0 10.6Zm0 .7A6 6 0 1 0 9 3a6 6 0 0 0 0 12Z" fill="#412B8E"/><circle cx="11.65" cy="11.29" r=".18" fill="#C36AB7"/><circle cx="6.35" cy="11.29" r=".18" fill="#301760"/><circle cx="5.65" cy="10.59" r=".18" fill="#301760"/><circle cx="5.65" cy="7.41" r=".18" fill="#301760"/><circle cx="12.35" cy="7.41" r=".18" fill="#C36AB7"/><circle cx="9.18" cy="5.29" r=".18" fill="#C36AB7"/><circle cx="12.35" cy="10.59" r=".18" fill="#9158C2"/></svg>