<!-- by TradingView --><svg width="18" height="18" viewBox="0 0 18 18" xmlns="http://www.w3.org/2000/svg"><path fill="url(#ahcgay10q)" d="M0 0h18v18H0z"/><path d="M11 9.47h-1C10 8.5 9.67 8 9 8c-.53 0-1 .27-1 1v2c0 .5.33 1 1 1 .53 0 1-.5 1-1.5h1c0 .88-.13 2.5-2 2.5-1.5 0-2-1-2-2V9c0-.7.27-2 2-2 1.39 0 2 1.06 2 2.47Z" fill="url(#bhcgay10q)"/><path fill-rule="evenodd" d="M9 14.65a5.65 5.65 0 1 0 0-11.3 5.65 5.65 0 0 0 0 11.3ZM9 15A6 6 0 1 0 9 3a6 6 0 0 0 0 12Z" fill="#F9CB51"/><path fill="url(#chcgay10q)" d="M7 5h4v1H7z"/><defs><linearGradient id="ahcgay10q" x1="3.35" y1="3.12" x2="21.9" y2="24.43" gradientUnits="userSpaceOnUse"><stop stop-color="#1A1E21"/><stop offset="1" stop-color="#06060A"/></linearGradient><linearGradient id="bhcgay10q" x1="7" y1="9.65" x2="11" y2="9.65" gradientUnits="userSpaceOnUse"><stop stop-color="#C69F38"/><stop offset="1" stop-color="#FAD256"/></linearGradient><linearGradient id="chcgay10q" x1="7" y1="5.63" x2="11" y2="5.63" gradientUnits="userSpaceOnUse"><stop stop-color="#C69F38"/><stop offset="1" stop-color="#FAD259"/></linearGradient></defs></svg>