<!-- by TradingView --><svg width="18" height="18" viewBox="0 0 18 18" xmlns="http://www.w3.org/2000/svg"><path fill="#FAF1E8" d="M0 0h18v18H0z"/><path d="M9 9.27a.1.1 0 0 0-.06-.09.1.1 0 0 0-.1.03l-2.46 2.63a.1.1 0 0 0-.02.1l.4 1a.1.1 0 0 0 .16.03l2.05-2.1A.1.1 0 0 0 9 10.8V9.27Z" fill="#131620"/><path d="M4.91 10.8 6.96 13l-.41-1.09L4.1 9.27l.81 1.53Z" fill="#F2E2D8"/><path d="M4.04 9.2a.1.1 0 0 1 .13 0l2.45 2.64.02.04.31.98a.1.1 0 0 1-.04.12.1.1 0 0 1-.12-.01l-1.95-2.1a.1.1 0 0 1-.01-.02L4 9.32a.1.1 0 0 1 .03-.13Zm.5.7.45.84 1.62 1.74-.15-.51L4.54 9.9Z" fill="#131620"/><path d="m9 10.8 2.04 2.2.41-1.09L9 9.27v1.53Z" fill="#FFE6D6"/><path d="M8.87 9.08a.1.1 0 0 1 .1.02l2.55 2.74a.1.1 0 0 1 .02.1l-.4 1a.1.1 0 0 1-.08.06.1.1 0 0 1-.09-.03l-2.14-2.1a.1.1 0 0 1-.03-.07V9.17a.1.1 0 0 1 .07-.09Zm.13.34v1.34l2 1.96.34-.79L9 9.43Z" fill="#131620"/><path d="M13.09 10.8 11.04 13l.41-1.09 2.45-2.64-.81 1.53Z" fill="#131620"/><path d="M13.96 9.2a.1.1 0 0 1 .03.12l-.82 1.53-.01.02-2.05 2.1a.1.1 0 0 1-.12.02.1.1 0 0 1-.04-.12l.4-1a.1.1 0 0 1 .03-.03l2.45-2.63a.1.1 0 0 1 .13-.02Zm-2.42 2.77-.23.6 1.7-1.83.45-.84-1.92 2.07Z" fill="#131620"/><path d="M4.1 9.27 9 4l4.9 5.27-2.45 2.64L9 9.27l-2.45 2.64L4.1 9.27Z" fill="url(#azikuoxct)"/><path d="M9 4a.1.1 0 0 1 .07.03l4.9 5.2a.1.1 0 0 1 0 .14l-2.45 2.6a.1.1 0 0 1-.14 0L9 9.44l-2.38 2.53a.1.1 0 0 1-.14 0l-2.45-2.6a.1.1 0 0 1 0-.14l4.9-5.2A.1.1 0 0 1 9 4Zm0 .24L4.23 9.3l2.32 2.46 2.38-2.53a.1.1 0 0 1 .14 0l2.38 2.53 2.32-2.46L9 4.24Z" fill="#131620"/><defs><linearGradient id="azikuoxct" x1="9" y1="4" x2="9" y2="11.91" gradientUnits="userSpaceOnUse"><stop stop-color="#F6958C"/><stop offset="1" stop-color="#FFCAA3"/></linearGradient></defs></svg>