<!-- by TradingView --><svg width="18" height="18" viewBox="0 0 18 18" xmlns="http://www.w3.org/2000/svg"><path fill="#F0F3FA" d="M0 0h18v18H0z"/><circle cx="9" cy="9" r="6"/><circle cx="9.02" cy="8.99" r="5.69" fill="url(#a)"/><path d="m13.35 6.73-.04.24V7a4.75 4.75 0 0 1 .4 2.41 4.52 4.52 0 0 1-2.09 3.54l-.51.3a4.88 4.88 0 0 1-4.77-.34A4.54 4.54 0 0 1 4.3 9.26a4.8 4.8 0 0 1 .78-2.98v-.25l.13-.73c.05-.26.11-.46.36-.56.25-.1.38.01.78.3l.01.01h.02l.22-.13a4.73 4.73 0 0 1 5.11.21c.02.01.04.01.07 0l.29-.13.16-.1.14-.1c.47-.33.61-.03.7.12.3.49.32 1.24.27 1.81Z" fill="#FFFEFF"/><path d="M11.68 5.35c.3-.04.59-.2.83-.38.18-.13.4-.04.45.16.18.59.26 1.24.13 1.84 0 .03 0 .07.02.1a4.62 4.62 0 0 1-1.07 5.3 4.32 4.32 0 0 1-1.76.96 4.8 4.8 0 0 1-3.02-.16 4.31 4.31 0 0 1-2.57-2.9 4.7 4.7 0 0 1 .6-3.88c.03-.36.07-.73.15-1.1.02-.12.05-.24.14-.32.13-.11.29-.04.4.06l.31.2c.06.04.12.06.18.01L6.91 5a4.45 4.45 0 0 1 4.77.35Z" fill="#030115"/><path d="m11.1 5.47-.15.06a1.64 1.64 0 0 0-.4-.2h-.01a.3.3 0 0 0-.04.15l.27.1.01.02v.01l-.18.14a2.9 2.9 0 0 0-.58-.24c-.2-.05-.4-.1-.6-.12a3.35 3.35 0 0 0-1.34.1 6.66 6.66 0 0 0-.52.21l.03.02h.03a3.35 3.35 0 0 1 2.7-.04c.06.03.13.08.19.14l-.1.1a.02.02 0 0 1-.02 0 3.23 3.23 0 0 0-2.7 0c-.23-.17-.54-.34-.77-.48.48-.27.96-.44 1.5-.52a3.82 3.82 0 0 1 1.96.19 4.37 4.37 0 0 1 .72.36Z" fill="#FBE952"/><path d="m7 5.76.28.29a.06.06 0 0 1 0 .08c-.03.03-.05.03-.08 0-.14-.1-.3-.22-.46-.28l-.48-.16a.8.8 0 0 1-.23-.1 1.75 1.75 0 0 1-.23-.23.02.02 0 0 0-.04.02c-.04.17-.04.35-.08.52a3.1 3.1 0 0 0-.05.78c.01.2.05.4.11.57.03.07.05.14.05.21-.25-.4-.25-.85-.2-1.33a9.02 9.02 0 0 1 .16-.95h.01a1.73 1.73 0 0 0 .84.45l.4.13Zm5.86.27a14.65 14.65 0 0 1-.02.3h-.01v-.01c0-.16-.02-.3-.05-.42l-.05-.25a1.44 1.44 0 0 0-.04-.3.03.03 0 0 0-.03 0c-.17.14-.33.24-.54.31-.22.08-.45.12-.68.17a1.54 1.54 0 0 0-.93.77 6.71 6.71 0 0 0-.16.34c0 .04 0 .07-.02.09a.35.35 0 0 0-.12-.14l.03-.07c.06-.29.18-.53.37-.73.3-.33.72-.42 1.15-.5a1.92 1.92 0 0 0 .9-.41.03.03 0 0 1 .04.02c.08.28.14.55.16.83Z" fill="#FFFEFF"/><path d="m12.86 6.03.02.39-.07.06-.02.03c-.1.47-.33 1.06-.8 1.27a.89.89 0 0 1-.66.02c-.01 0-.01 0 0 0l.06.15a2.84 2.84 0 0 1 .46 1.13c.07.45.06.9-.05 1.33l-.17.42c-.08.05-.15.1-.22.17l-.18.19c-.22.19-.46.34-.71.47a3.16 3.16 0 0 1-.71.27c.17-.02.35-.05.51-.1h.15c-.54.24-1.07.38-1.6.4a2.1 2.1 0 0 1-1.01-.2 9.2 9.2 0 0 1-.55-.3h.02a.6.6 0 0 0 .17.04c.05 0 .05 0 .01-.02a17.47 17.47 0 0 1-.5-.3c-.02 0-.02-.01 0-.02h.01l.01.01h.01v-.01l-.01-.03a1.72 1.72 0 0 1-.85-.79h-.03v.02l.01.1a3.9 3.9 0 0 1-.14-.41.9.9 0 0 1 .07-.64c.03.63.4 1.03.97 1.23l.31.07.03.02.01.02.09.24c.15.44.5.64.94.64.3 0 .58-.1.82-.27.11-.08.22-.21.34-.38.09-.14.17-.29.24-.44a.91.91 0 0 0 .2-.13c.12-.09.21-.18.28-.28.05.04.1.06.14.06.13-.01.13-.1.08-.19a.3.3 0 0 0-.13-.12c0-.1 0-.16-.02-.2a.43.43 0 0 0-.28-.23c-.02 0-.03 0-.03.02v.05l-.02.15a1.27 1.27 0 0 1-.1.23h-.01l-.01-.02v-.05c.12-.36.08-.7-.1-1.03l.22-.16c.05-.04.15-.08.3-.14a.15.15 0 0 1 .08-.02c.07.01.08.04.02.08a.82.82 0 0 1-.2.12v.03h.02c.12-.02.26-.03.43-.02.28.03.48.14.6.36.02.05.06.06.1.04.06-.03.05-.09.04-.13.02 0 .03-.04.03-.12 0 .05.03.09.05.11.03.03.04.03.04-.01l-.01-.03a.82.82 0 0 0-.46-.52l-.2-.1a.56.56 0 0 0-.44-.1.57.57 0 0 0 .17-.4c0-.3-.15-.49-.44-.58a.6.6 0 0 1 .1-.32c.04-.04.06-.08.04-.13.02-.02.03-.05.02-.09v-.02l.15-.32a1.54 1.54 0 0 1 .94-.77c.23-.05.46-.09.68-.17a1.67 1.67 0 0 0 .55-.31.03.03 0 0 1 .03.02c.02.09.03.18.03.28l.05.25a1.62 1.62 0 0 1 .05.42c.02-.1.03-.19.03-.29ZM7 5.76a1.18 1.18 0 0 1 .45.32 2.4 2.4 0 0 0-.36.28c-.15-.2-.33-.33-.53-.4l-.53-.18-.16-.13a.1.1 0 0 0-.04-.04l-.02.01a.74.74 0 0 0-.04.18c-.02.26-.05.49-.05.76a1.42 1.42 0 0 0 .46 1.05c.01.04 0 .05-.03.05a1.11 1.11 0 0 1-.38-.43c-.01-.03-.02-.03-.02 0v.02c-.07-.17-.1-.36-.12-.57-.01-.29 0-.55.05-.78.04-.17.04-.35.08-.52a.02.02 0 0 1 .05-.01c.07.08.15.16.22.21a.8.8 0 0 0 .23.11l.48.16c.17.06.32.17.46.29.03.02.05.02.08 0a.06.06 0 0 0 0-.1l-.29-.28Z" fill="#FFBDD8"/><path d="M12.34 7.3c.02-.03 0-.03-.05 0a.12.12 0 0 1-.05.03.38.38 0 0 1-.38-.1v-.02a.04.04 0 0 1 0-.03v-.02c.1-.08.2-.15.29-.25a.93.93 0 0 1 .15-.16l-.02-.01-.2.08-.05.01h-.14c0-.05.05-.1.13-.15.05-.03.1-.1.15-.17a4.2 4.2 0 0 1 .23-.4c.06-.12.12-.24.15-.37a14.48 14.48 0 0 1 .06-.16c.02.03.03.06.03.1 0 .09 0 .16.02.23s.01.15.02.22c.02.39-.1.85-.34 1.18Z" fill="#FE6BB2"/><path d="M12.56 5.59h.02l-.03.15c-.03.13-.1.25-.15.38a4.24 4.24 0 0 0-.24.4.52.52 0 0 1-.14.16c-.08.06-.12.1-.13.14-.07.02-.15-.01-.22-.08l-.01-.01a.04.04 0 0 1 .02-.05c.27-.09.46-.3.6-.53.04-.05.03-.07-.03-.05l-.17.06c-.02 0-.03 0-.03-.04a1.58 1.58 0 0 0 .39-.36l-.01-.01h-.02a.1.1 0 0 0-.04.02l.09-.1.1-.08Z" fill="#C72B8D"/><path d="M5.87 5.65v.04a1 1 0 0 0 .12.68 3.95 3.95 0 0 0 .27.44h-.04a.6.6 0 0 1-.2-.06c-.03 0-.04 0-.02.02l.19.29a.05.05 0 0 1 0 .06.71.71 0 0 1-.1.08l-.07.04c-.04.03-.06.07-.04.14a1.42 1.42 0 0 1-.26-.82c0-.27.03-.5.05-.76l.04-.18h.02a.1.1 0 0 1 .04.03Zm6.59.01-.1.1c-.1.07-.2.12-.3.15a4.7 4.7 0 0 0-.6.22l-.22.15-.12-.08a.01.01 0 0 1 0-.01v-.01c.26-.18.52-.26.84-.3.14-.03.31-.1.5-.22Z" fill="#FE6BB2"/><path d="m5.86 5.7.09.16c-.01.12.02.24.08.36.11.2.25.42.43.5a.04.04 0 0 1 .01.06l-.04.05-.02.02a.3.3 0 0 1-.19-.04h.04v-.03c-.1-.13-.18-.26-.27-.4a1.04 1.04 0 0 1-.13-.69Z" fill="#C72B8D"/><path d="M12.05 6.12c-.13.09-.27.16-.42.24a.7.7 0 0 0-.3.27.47.47 0 0 0-.04.2v.01c.04.02.08 0 .12 0a4.55 4.55 0 0 0 .62 0l.06-.02h.03a.03.03 0 0 1 .01.06 4.8 4.8 0 0 1-.52.3v.05c.04.17.02.32-.07.46-.04 0-.07-.02-.08-.04-.06-.2-.15-.4-.28-.57a.46.46 0 0 0-.16-.17H11v.01c0 .08 0 .12-.05.13-.07-.3.07-.58.28-.77.1-.08.18-.13.23-.15.16-.08.36-.15.58-.22.1-.03.21-.08.32-.14a.1.1 0 0 1 .04-.03h.02v.03c-.1.14-.23.26-.38.35Z" fill="#030115"/><path d="m7.09 6.36-.12.13a.01.01 0 0 1-.02 0c-.11-.33-.47-.45-.75-.58a.49.49 0 0 1-.17-.13c.08.03.26.1.53.18.2.07.38.2.53.4Z" fill="#C942AD"/><path d="M6.35 7.29c-.06.08-.15.1-.27.06-.04-.02-.05-.01-.01.02l.17.15-.04.11c0-.02 0-.03-.02-.02a1.04 1.04 0 0 1-.2-.23c-.02-.07 0-.11.04-.14l.08-.04a.71.71 0 0 0 .08-.08.05.05 0 0 0 0-.06L6 6.77c-.02-.02-.01-.03.01-.02a.6.6 0 0 0 .21.06.3.3 0 0 0 .19.04l.02-.02.04-.05a.04.04 0 0 0-.01-.06c-.18-.08-.32-.3-.43-.5a.62.62 0 0 1-.08-.36c.1.16.21.29.36.39.19.13.37.18.4.44.01.04 0 .08-.03.12a.17.17 0 0 1-.12.07.95.95 0 0 1-.5-.07v.01c0 .02 0 .04.03.05l.15.14.15.12a.04.04 0 0 1 .02.05l-.06.1Z" fill="#A21679"/><path d="M10.1 6.1c-.05.18-.2-.02-.3.07a.02.02 0 0 0 .01.03l.17.08s.02 0 .02.02c.02.02.03.05.03.09a.04.04 0 0 1-.02.04H10l-.09-.01a2.3 2.3 0 0 0-1.22-.12 3.47 3.47 0 0 0-1.11.36c-.06 0-.07 0-.02-.04.17-.13.37-.25.6-.35l.05-.03v-.02c-.17.03-.3.07-.43.15l-.24.14c-.15.1-.28.23-.39.38l-.13.15c-.22.26-.39.55-.5.85l-.24.84-.11.04-.02-.01c.15-.79.4-1.54.98-2.11.4-.37.86-.6 1.39-.7a2.97 2.97 0 0 1 1.58.15Z" fill="#FFFEFF"/><path d="m11.9 6.82.13.01a4.55 4.55 0 0 1-.62.01c-.04 0-.08.02-.11 0h-.01v-.01a.5.5 0 0 1 .04-.2.7.7 0 0 1 .3-.27c.15-.08.29-.15.42-.24 0 .03.01.04.03.04l.17-.06c.06-.02.07 0 .04.05a1.18 1.18 0 0 1-.63.54.04.04 0 0 0 0 .04v.01c.08.07.16.1.23.08Z" fill="#A21679"/><path d="m10.24 6.82-.03.07a.5.5 0 0 0-.53 0 .29.29 0 0 0-.11.12c-.05.08.03.2.13.14.16-.1.33-.1.5 0a.1.1 0 0 0 .1 0c-.07.1-.1.21-.11.33a.56.56 0 0 0-.6.24.6.6 0 0 0 .58.9h.08v.02h.03l-.13.07a.9.9 0 0 0-.25.2.04.04 0 0 1-.06-.01.26.26 0 0 0-.06-.1 2.89 2.89 0 0 0-.42-.34.27.27 0 0 0-.2-.05 3.4 3.4 0 0 0-.67-.3 1.48 1.48 0 0 1 .84.24V8.3A1.71 1.71 0 0 0 9 8.1a.01.01 0 0 0 0-.02c-.2-.13-.5-.24-.74-.2-.04 0-.04 0 0 .02l.11.04-.65.08c0-.27-.2-.52-.48-.53-.3-.01-.5.26-.52.54 0 .14.03.26.12.37a.01.01 0 0 1 0 .02l-.22.17c-.1.04-.2.1-.3.17.01-.02 0-.03-.04-.02.1-.35.17-.63.25-.84.1-.3.27-.59.5-.85 0 .05 0 .08.02.1a.06.06 0 0 0 .07.02c.17-.09.3-.12.48-.01.11.07.22-.04.16-.15a.32.32 0 0 0-.2-.15.57.57 0 0 0-.4.04c.1-.15.23-.27.38-.38l.24-.14c.12-.08.26-.12.42-.15.02 0 .02 0 0 .02a.16.16 0 0 1-.05.03c-.22.1-.42.22-.59.35-.05.03-.04.05.02.04l.04-.02.46-.2c.13-.04.33-.09.6-.14.43-.07.84-.03 1.23.12l.09.01a.04.04 0 0 0 .02-.01.04.04 0 0 0 .01-.03.27.27 0 0 0-.03-.1l-.02-.01-.17-.08a.02.02 0 0 1 0-.03c.1-.1.24.11.3-.07l.12.05v.02c-.1.21-.1.43 0 .65Z" fill="#FED7FA"/><path d="M12.88 6.42a1.9 1.9 0 0 1-.49 1.36c-.26.26-.67.38-.99.16h-.01v.01l-.07-.14c0-.01 0-.02.01-.01.22.07.43.07.65-.02.48-.21.71-.8.81-1.27l.02-.03.07-.06Z" fill="#C942AD"/><path d="M12.34 7.3c-.2.27-.45.45-.8.4.1-.15.11-.3.07-.47a.07.07 0 0 1 .03-.08 4.8 4.8 0 0 0 .5-.3.03.03 0 0 0-.02-.03h-.03l.2-.08h.01v.01a.93.93 0 0 0-.15.16c-.08.1-.18.17-.28.25a.04.04 0 0 0 0 .07c.1.1.23.14.37.1l.05-.02c.05-.04.07-.04.05 0Z" fill="#C72B8D"/><path d="M10.21 6.9c.05.02.1.07.12.13.02.05 0 .09-.03.13h-.1a.46.46 0 0 0-.5 0c-.1.05-.18-.07-.13-.15a.29.29 0 0 1 .1-.11.5.5 0 0 1 .54 0Zm-3.19.14.13-.15a.57.57 0 0 1 .41-.04c.1.02.16.07.2.15.06.1-.05.22-.16.15-.18-.11-.3-.08-.48.01a.06.06 0 0 1-.07-.02.23.23 0 0 1-.03-.1Z" fill="#030115"/><path d="m5.35 7.1-.07.22-.08.21-.15.5c-.05.18-.08.44-.1.78a4 4 0 0 0 .4 2.03.1.1 0 0 1-.03.07 5.52 5.52 0 0 1-.4-1.27l-.04-.3a9.32 9.32 0 0 1 0-.86c.02-.43.21-.82.26-1.24l.16-.33h.01l.04.19Z" fill="#FEFBC0"/><path d="M11.18 7.08c-.08-.03-.11.13-.1.18 0 .03-.01.03-.02 0l-.1-.21c.04-.01.06-.05.04-.13a.01.01 0 0 1 .02-.01c.07.04.13.1.16.17Z" fill="#C942AD"/><path d="M5.41 7.32c.01.1.03.17.06.22l.27.45a.42.42 0 0 0-.02.1l-.02.1a4.35 4.35 0 0 0-.1 1.12c0 .09-.03.18-.02.26 0 .02.02.03.05.03-.04.64.2 1.28.56 1.8v.03l-.01.06a.02.02 0 0 0 0 .03.3.3 0 0 0 .07.13c.1.08.17.16.2.25a.26.26 0 0 0-.07.08V12l.27.2a.03.03 0 0 0 .04-.01v-.01l.05-.06c.02 0 .04 0 .06.02a.96.96 0 0 0 .3.19l.01.01.02.04-.04.08v.03l.28.14v.12a6.48 6.48 0 0 1-.74-.4c-.15-.1-.27-.24-.42-.36-.1-.08-.17-.18-.26-.27a1.91 1.91 0 0 1-.18-.22l-.25-.37-.17-.3c-.1-.23-.17-.4-.2-.54a3.15 3.15 0 0 1-.18-.88 4 4 0 0 1-.02-.6 3.75 3.75 0 0 1 .25-1.28l.08-.21.07-.22.06.22Z" fill="#FECB37"/><path d="M6.18 7.61c.01-.01.02 0 .02.02l-.06.16h-.02a1.1 1.1 0 0 1-.33-.33.49.49 0 0 0-.05-.2v-.03c.01-.03.02-.03.03 0a1.11 1.11 0 0 0 .38.43c.03 0 .04-.01.03-.05Z" fill="#C942AD"/><path d="M5.14 7.24c-.05.42-.24.8-.26 1.24a9.32 9.32 0 0 0 .03 1.16 2.49 2.49 0 0 0 .11.48l-.08.03c-.26-.96-.2-2 .2-2.91Z" fill="#FBE183"/><path d="M5.41 7.32c.12.3.33.59.62.74l.01.02-.06.24a.55.55 0 0 0-.17-.22 20.58 20.58 0 0 0-.34-.56.56.56 0 0 1-.06-.22Zm7.59.21c-.03.01-.05.05-.06.11l-.04.08a.39.39 0 0 0-.05.22.08.08 0 0 0-.1.01.03.03 0 0 1-.02 0h-.02s-.02 0-.02.02v.04c-.02.01-.04.05-.04.1l-.01.02-.16.2a.02.02 0 0 1-.02 0 .03.03 0 0 1-.02-.02 1.61 1.61 0 0 0-.04-.14h-.02v.01c0 .06 0 .12.02.18l-.15.15-.08-.25v-.01l.01-.01a.79.79 0 0 0 .22-.12 1.74 1.74 0 0 0 .55-.72v.01l.05.12Z" fill="#C5732D"/><path d="M13 7.53c.13.33.2.64.23.93.03.46.04.94-.07 1.4a.18.18 0 0 1-.08-.08c.01-.19.05-.4.06-.56a5 5 0 0 0-.18-1.59l-.02.01c.01-.06.03-.1.06-.11Z" fill="#FECB37"/><path d="M13.08 9.78a4.2 4.2 0 0 1-1.67 2.62 3.93 3.93 0 0 1-1.46.63 3.99 3.99 0 0 1-2.16-.07 4 4 0 0 1-2.47-2.05.16.16 0 0 0 .03-.07l.17.29.25.37.18.22.26.27c.15.12.27.25.42.36a6.44 6.44 0 0 0 .74.4c.16.08.3.13.42.16.16.04.35.08.57.11a3.9 3.9 0 0 0 1.62-.06 3.16 3.16 0 0 0 1.1-.43c.15-.1.3-.19.44-.3a3.92 3.92 0 0 0 1.05-1.22 5.21 5.21 0 0 0 .41-1.12 4.28 4.28 0 0 0-.07-2.03.33.33 0 0 1 0-.14l.03-.08h.03a8.75 8.75 0 0 0 .11.52 5 5 0 0 1 .06 1.06c-.01.17-.05.37-.06.56Z" fill="#FBE183"/><path d="M7.18 7.95a.14.14 0 1 0 0-.28.14.14 0 0 0 0 .28Zm2.79.01a.15.15 0 1 0 0-.3.15.15 0 0 0 0 .3Z" fill="#FFFEFF"/><path d="m12.9 7.72.01.14v.02c0 .01 0 .02.02.03a.03.03 0 0 1 .02.02l.02.06a3.9 3.9 0 0 1 .1 1.1 4.28 4.28 0 0 1-.5 1.92c-.13.21-.26.41-.42.6v-.16l.06-.09v-.02a.07.07 0 0 0-.03-.04c0-.02 0-.04-.02-.05a.04.04 0 0 1 0-.06l.15-.3c.02-.05.02-.12.05-.18l.09-.27v-.03c-.02-.05-.03-.07-.02-.13.02-.12.03-.23.02-.35-.01-.12 0-.2.01-.27a3.3 3.3 0 0 0 0-1.31l-.04-.02-.02.03a.62.62 0 0 1-.02-.19h.02l.04.14c0 .01 0 .02.02.03a.02.02 0 0 0 .02 0l.16-.2.01-.03c0-.05.02-.09.04-.1l.05.18c0 .02.02.03.05.02.02 0 .04 0 .07-.02a.1.1 0 0 0 .04 0l.01-.01-.06-.24c0-.08.01-.15.05-.22Z" fill="#FECB37"/><path d="M8.98 8.09c-.18-.08-.4-.11-.6-.16l-.12-.04c-.04-.01-.04-.02 0-.03a1.17 1.17 0 0 1 .74.22h-.02Z" fill="#FE6BB2"/><path d="M8.37 7.93c.2.05.43.08.61.16.13.06.25.14.35.22v.03a.01.01 0 0 1 0 .01.01.01 0 0 1-.02 0 1.48 1.48 0 0 0-.82-.23 1.8 1.8 0 0 0-.3-.05 3.4 3.4 0 0 0-.47 0v-.06l.65-.08Z" fill="#FEF7FE"/><path d="M5.74 7.99c.05.04.07.07.07.1l-.12.6c-.03.2-.03.4 0 .6l-.06.31c-.03 0-.04 0-.05-.03l.02-.26a4.35 4.35 0 0 1 .14-1.32Z" fill="#FBE952"/><path d="m5.98 8.32-.1.5a.3.3 0 0 1-.05.15c-.05.1-.1.21-.14.33a1.98 1.98 0 0 1 0-.6c.02-.16.06-.35.12-.6.09.07.15.14.17.22Z" fill="#FECB37"/><path d="M6.15 10.8c.02 0 .03-.01.02-.03a.28.28 0 0 1 0-.05l-.02-.09v-.02h.03c.19.35.49.65.85.8.01 0 .02 0 .02.02a.01.01 0 0 1-.03 0H7v.03l.17.11a17.44 17.44 0 0 0 .33.2.68.68 0 0 1-.17-.05H7.3v.01c.22.13.4.23.55.3.32.15.66.22 1.01.2a4.33 4.33 0 0 0 1.6-.4c.5-.21.88-.55 1.16-1l.17-.42c.1-.44.12-.88.05-1.33a2.84 2.84 0 0 0-.35-.96c.05.02.1.06.15.1.06.04.13.07.21.08l.03.02.04.11c.21.56.28 1.14.22 1.73-.1.9-.88 1.63-1.67 1.98a4.39 4.39 0 0 1-.95.27 3.16 3.16 0 0 1-3.38-1.61Z" fill="#C942AD"/><path d="M9.74 9.78c-.01.03-.03.04-.04.01-.01-.13 0-.24-.06-.35a1.61 1.61 0 0 0-.3-.4 2.76 2.76 0 0 0-.65-.42c-.44-.2-1-.19-1.45.04-.35.18-.72.43-.8.85a1.1 1.1 0 0 0-.01.21c0 .06-.02.1-.06.14-.08-.45.1-.8.45-1.09.16-.13.34-.24.54-.32.51-.2 1.01-.16 1.5.1.24.12.43.27.6.46.2.22.3.48.28.77Z" fill="#FFFEFF"/><path d="M12.46 9.66c-.03-.4-.1-.79-.21-1.15l.15-.15c0-.02.01-.03.02-.03a.06.06 0 0 1 .05.05l.03.18c.05.37.04.73-.04 1.1Z" fill="#FBE952"/><path d="M10.28 8.64c.18-.08.39-.1.62-.07a13.78 13.78 0 0 1 .4.2.82.82 0 0 1 .27.44c0 .04-.01.04-.04.01a.25.25 0 0 1-.05-.1.65.65 0 0 0-.5-.37h-.02v.03c.2.11.36.26.49.45.01.04.02.1-.03.13-.05.02-.09 0-.12-.04-.11-.22-.31-.33-.6-.36a1.4 1.4 0 0 0-.44.02v-.03a.82.82 0 0 0 .2-.12c.06-.04.05-.07-.02-.08-.02 0-.05 0-.07.02-.16.06-.26.1-.3.14l-.24.16c-.15-.27-.41-.5-.67-.66.07-.01.14 0 .2.05.15.1.29.21.42.34a.2.2 0 0 1 .06.1.04.04 0 0 0 .06.01.9.9 0 0 1 .25-.2l.13-.07Z" fill="#FFFEFF"/><path d="M10.46 8.46c.18-.02.33.02.44.1-.23-.02-.44 0-.62.08h-.02l-.01-.01v-.01h-.08a.68.68 0 0 0 .3-.16Z" fill="#C942AD"/><path d="m9.34 9.04-.27.15a.53.53 0 0 0-.3-.27.25.25 0 0 0-.08-.02c-.05 0-.07.01-.07.04-.21.01-.35.12-.4.33l-.02-.01c-.07.28-.06.65.22.8-.3-.09-.58-.1-.87-.02a.86.86 0 0 0 .14-.18.88.88 0 0 0 .05-.27c0-.01 0-.02-.02-.01a.1.1 0 0 0-.04.02c0-.16 0-.3-.05-.44-.08-.22-.33-.26-.51-.13a.64.64 0 0 0-.27.45c-.04 0-.05.07-.05.2a.54.54 0 0 0-.35-.17c.08-.42.45-.67.8-.85.45-.23 1-.23 1.45-.04.22.1.44.24.65.42Z" fill="#FD6FD3"/><path d="M6.62 8.58c-.15.15-.27.3-.35.45-.12.2-.17.41-.18.65a.9.9 0 0 0-.07.64 3.9 3.9 0 0 0 .15.45c0 .02 0 .03-.02.03-.2-.42-.3-.87-.23-1.33.05-.28.18-.52.4-.72.1-.08.2-.13.3-.17Z" fill="#FFFEFF"/><path d="M11.48 9.11c0 .08-.01.11-.03.12a1.5 1.5 0 0 0-.49-.45v-.02h.01c.23.03.4.15.5.35Z" fill="#FE6BB2"/><path d="M9.07 9.19c.11.23.13.45.05.64a.48.48 0 0 1-.15.2c-.15.13-.39.12-.56.04-.28-.16-.3-.53-.22-.8 0-.02 0-.02.01-.01l.02.01c-.02.1-.03.21-.02.31.02.11.05.2.12.28.16.19.37.2.65.07a.23.23 0 0 1 .07-.1.37.37 0 0 0 .08-.17l-.01-.24c-.07-.28-.23-.43-.5-.48 0-.03.03-.04.08-.04l.08.02a.5.5 0 0 1 .3.27Z" fill="#FDE9FB"/><path d="M8.62 8.94c.26.05.42.2.49.48l-.04.28c0-.15 0-.27-.04-.34-.07-.14-.2-.29-.37-.26l-.03.02c-.09.12-.1.3-.11.44 0 .1.02.18.08.26a.3.3 0 0 0 .1.07l.09.03.01.03c0 .01 0 .02.02.02h.02c0-.02.02-.03.04-.04a.16.16 0 0 1 .09 0c-.28.14-.5.12-.65-.07a.5.5 0 0 1-.12-.28c-.01-.1 0-.2.02-.3.05-.22.19-.33.4-.34Zm-.95.66v.03l-.01-.26a.54.54 0 0 0-.08-.2c-.05-.1-.25-.14-.3-.02a.96.96 0 0 0-.08.5c0 .03 0 .05.02.07.02.06.02.1.08.14.07.05.15.06.25.03-.22.17-.42.17-.6-.01a.37.37 0 0 1-.1-.18.64.64 0 0 1 .25-.67c.19-.13.44-.09.52.13.06.14.05.28.05.44Z" fill="#930C63"/><path d="M9.34 9.04c.12.13.23.26.3.4.06.11.05.22.06.34v.01c.01.03.03.02.04-.01v.03l-.03.02-.02-.02-.01-.04a.02.02 0 0 0-.03.01.98.98 0 0 1-.71.77 3.25 3.25 0 0 1-1.95-.05 1.1 1.1 0 0 1-.57-.55l-.04-.05a.1.1 0 0 1-.01-.04.18.18 0 0 0 .06-.14v-.21c.15.01.27.07.36.17.09.43.34.55.75.36.29-.07.58-.07.87.03.17.08.4.1.56-.03a.48.48 0 0 0 .15-.2.8.8 0 0 0-.05-.65l.27-.15Z" fill="#F64AAB"/><path d="m9.04 9.83.03-.13.04-.28c.01.12.02.2.01.24 0 .05-.03.1-.08.17Z" fill="#FE6BB2"/><path d="M6.84 9.48c0 .08 0 .15.02.22.01.07.04.13.1.18.17.18.37.18.6.01.06-.08.1-.17.1-.26V9.6a.1.1 0 0 1 .05-.02h.02c0 .1-.02.2-.05.28a.78.78 0 0 1-.14.18c-.41.19-.66.07-.75-.36 0-.13.01-.2.05-.2Z" fill="#FDE9FB"/><path d="m10.41 10.15-.3-.37a.02.02 0 0 0-.02 0 .02.02 0 0 0-.01 0v-.04c0-.02 0-.03.03-.02.13.04.22.12.28.24l.02.2Z" fill="#C942AD"/><path d="M13.16 9.85a4.1 4.1 0 0 1-2.9 3.21 4.31 4.31 0 0 1-4.67-1.52c-.3-.4-.51-.86-.65-1.4l.08-.02a4 4 0 0 0 3.35 2.97 3.99 3.99 0 0 0 1.84-.13 3.93 3.93 0 0 0 2.54-2.14c.14-.3.25-.64.33-1.04.02.04.05.06.08.07Z" fill="#A54F2F"/><path d="M9.74 9.81a.97.97 0 0 1-.4.67l-.1.08a.41.41 0 0 1-.12.07l-.21.06a1.2 1.2 0 0 0-.18.05.28.28 0 0 1-.1.01c-.05 0-.08 0-.12.02-.07.02-.17.01-.25.02h-.35c-.23 0-.47-.04-.72-.11-.2-.06-.36-.14-.49-.25a1.05 1.05 0 0 1-.32-.48.1.1 0 0 1 0-.05l.04.05c.12.25.3.44.57.55.19.08.4.13.6.16.45.05.92.03 1.35-.1a.98.98 0 0 0 .71-.78.02.02 0 0 1 .03 0l.01.03.02.02s.02 0 .03-.02Z" fill="#900C8B"/><path d="M12.45 9.93c0 .12 0 .23-.02.35 0 .06 0 .08.02.13v.03l-.1.27-.04.19-.16.3a.04.04 0 0 0 0 .05c.02.01.03.03.03.05l-.07-.04-.02.01a.98.98 0 0 0-.17.26c-.1.11-.2.22-.32.32l-.02.06a.06.06 0 0 0-.03-.03h-.02a22.27 22.27 0 0 0-.24.2.1.1 0 0 0 0 .05h-.06l-.34.24v-.03a.03.03 0 0 0-.03 0l-.28.13-.02.02v.07c-.01-.02-.04-.03-.07-.01-.12.05-.27.09-.43.13-.11 0-.23.01-.35.05l-.02.01v.03l-.5.06c-.02 0-.02 0-.02.02l-.02-.04v-.02h-.01l-.27.01-.02.01-.01.03a.45.45 0 0 0-.2-.03 1.2 1.2 0 0 1-.32-.05l-.32-.1-.03.01a.1.1 0 0 0-.02.05c0-.03 0-.04-.02-.05a2.7 2.7 0 0 1-.4-.13.1.1 0 0 0-.07-.01v-.03l-.01-.01a5.52 5.52 0 0 1-.3-.14l-.02.03-.02-.04a.03.03 0 0 0-.02-.02.96.96 0 0 1-.29-.18c-.02-.02-.04-.02-.06-.02a.12.12 0 0 0-.04-.09l-.2-.16h-.02l-.02.03a.61.61 0 0 0-.2-.25.36.36 0 0 1-.09-.13v-.02c.02-.03.03-.05.02-.07v-.04c.18.25.39.46.62.63a3.53 3.53 0 0 0 2.54.7 3.98 3.98 0 0 0 2.09-.86 3.18 3.18 0 0 0 .7-.83c.15-.29.27-.6.28-.93a.5.5 0 0 1 .03-.17Z" fill="#C5732D"/><path d="m10.06 9.94.02.2a.07.07 0 0 1-.03.06.53.53 0 0 1-.15.07.02.02 0 0 1-.01-.02l.05-.14v.06h.02l.01-.01c.04-.07.06-.14.09-.22Zm.26.46c-.07.1-.16.2-.28.28l-.2.13.13-.23.26-.23h.03l.06.05Z" fill="#C942AD"/><path d="M8.31 11.5v.02h.08c.17-.15.37-.23.6-.26.08 0 .14 0 .2.02h.02a.03.03 0 0 1 0 .03v.02a1.2 1.2 0 0 1-.73.3c-.1.02-.33-.02-.4-.1a.03.03 0 0 1-.02 0 .02.02 0 0 1 .01-.03.4.4 0 0 1 .27-.1c.06 0 .07.02.02.06a.23.23 0 0 0-.04.05Z" fill="#C72B8D"/><path d="M8.45 11.51c.05-.05.11-.1.19-.13a.93.93 0 0 0 .1-.03.55.55 0 0 1 .26-.04.05.05 0 0 1 .04.02v.04L9 11.4l-.21.08a.94.94 0 0 1-.35.07.02.02 0 0 1 0-.03Z" fill="#FD6FD3"/><path d="m12.14 11.45.01.16c-.18.23-.4.44-.63.62-.13.11-.3.2-.44.3a3.7 3.7 0 0 1-1.63.52 3.9 3.9 0 0 1-1.09-.03 6.7 6.7 0 0 1-.57-.11 2.32 2.32 0 0 1-.42-.16v-.12c.04.02.07 0 .09-.1a.1.1 0 0 1 .06 0c.1.05.24.1.4.14.03 0 .04.02.03.05l-.02.1.32.07h.03l.04-.13c.13.04.24.05.32.05a.5.5 0 0 1 .2.03v.1l.02.01h.28l.02-.01v-.09l.02-.02.51-.06.03.11c0 .02 0 .02.02.02l.3-.08a.04.04 0 0 0 .03-.03v-.02a.13.13 0 0 1 0-.1c.15-.03.3-.07.42-.12.03-.02.06-.01.07.01l.03.06v.01h.01a.03.03 0 0 0 .02 0l.3-.14.01-.03-.04-.09.34-.24h.06c.02.04.07.08.11.05a4.02 4.02 0 0 1 .24-.19c0-.03 0-.05-.05-.06l-.01-.02c0-.03 0-.05.02-.06.12-.1.23-.2.32-.32l.08.06h.04l.1-.14Z" fill="#F7AB37"/><defs><linearGradient id="a" x1="9.02" y1="3.3" x2="9.02" y2="14.67" gradientUnits="userSpaceOnUse"><stop stop-color="#F647FF"/><stop offset="1" stop-color="#721C9D"/></linearGradient></defs></svg>