<!-- by TradingView --><svg width="18" height="18" viewBox="0 0 18 18" xmlns="http://www.w3.org/2000/svg"><path fill="#F0F3FA" d="M0 0h18v18H0z"/><path fill-rule="evenodd" d="M7.83 13.83a3.67 3.67 0 1 0 0-7.33 3.67 3.67 0 0 0 0 7.33Zm0 .17a3.83 3.83 0 1 0 0-7.67 3.83 3.83 0 0 0 0 7.67Z" fill="#0C364F"/><path d="M4.77 9.37c.09-.07.22-.12.4-.04l.4.28c.3.22.6.45.6.22 0-.33.5-.33.66 0 .07.14.05.26.03.37-.02.17-.05.34.14.63.2.3.22.86.24 1.29.01.3.02.55.1.55.16 0 .66-.84.83-1.17.16-.33.16-.67 0-.83l-.2-.22a3.65 3.65 0 0 0-.8-.78c-.34-.17-.34-.67 0-.84l.3-.12c.36-.13.78-.29.53-.54-.18-.18-.54-.26-.82-.33-.24-.05-.43-.1-.35-.17.1-.1.14-.34.16-.56a3.17 3.17 0 0 0-2.22 2.26Zm5.27-1.48a3.16 3.16 0 0 1-.21 4.74c-.08-.1-.09-.28 0-.46.17-.34 0-1.17-.16-1.67-.1-.31-.28-.3-.47-.29a.68.68 0 0 1-.37-.04c-.33-.17 0-.67.34-1 .24-.25.3-.4.39-.6l.1-.24c.08-.15.23-.3.38-.44Z" fill="#0C364F"/><path fill-rule="evenodd" d="M7.83 13.17a3 3 0 1 0 0-6 3 3 0 0 0 0 6Zm0 .16a3.17 3.17 0 1 0 0-6.33 3.17 3.17 0 0 0 0 6.33Z" fill="#0C364F"/><path d="M5 13c.91.92 1.9 1.04 2.27.99-1.94-3.46 1.46-5.77 3.4-6.49v-.17C5.88 7.73 4.9 11.27 5 13Z" fill="#FAA41A"/><path fill-rule="evenodd" d="M11.47 6h-.43c-.02 0-.03.02-.05.03l-.64.74c-.04.05.01.13.08.1l.5-.19c.04-.02.08.02.09.06.04.37.34.5.56.54.05 0 .08.05.06.1l-.22.53c-.03.06.04.11.1.08l.96-.53a.06.06 0 0 0 .03-.05V7c0-.03.02-.05.04-.06 1-.38 1.37-1.35 1.45-1.84 0-.03-.02-.06-.05-.07-1.4-.22-2.18.5-2.42.93a.07.07 0 0 1-.06.04ZM13 6a.33.33 0 1 0 0-.67.33.33 0 0 0 0 .67Z" fill="#FEA224"/></svg>