<!-- by TradingView --><svg width="18" height="18" viewBox="0 0 18 18" xmlns="http://www.w3.org/2000/svg"><path fill="#F0F3FA" d="M0 0h18v18H0z"/><path d="M4.97 7C4.19 7 4 6.32 4 6c0-.52.32-1 .97-1h6.13c1.13 0 2.9.75 2.9 3.5 0 2.85-1.94 3.5-2.9 3.5H8.2l-.33 1.58c-.16.49-.64.49-.97.32-.57-.29-.32-.8-.16-1.62L7.42 10H10c.22 0 .5.02.5-.5s-.48-.5-.7-.5H8.2c-.17 0-.7 0-.7-.5s.48-.5.7-.5H10c.32 0 .5-.11.5-.5S10.32 7 10 7H4.97Z" fill="url(#a)"/><path d="M6.9 8.65c-.15.26-.47.41-.7.33-.22-.09-.27-.37-.1-.63.15-.26.47-.41.7-.33.22.09.27.37.1.63Z" fill="#C5DEE4"/><defs><linearGradient id="a" x1="14" y1="7.59" x2="5.6" y2="10.97" gradientUnits="userSpaceOnUse"><stop stop-color="#FFCB80"/><stop offset=".5" stop-color="#D1DCDF"/><stop offset="1" stop-color="#B4E1EA"/></linearGradient></defs></svg>