<!-- by TradingView --><svg width="18" height="18" viewBox="0 0 18 18" xmlns="http://www.w3.org/2000/svg"><path fill="#F7D713" d="M0 0h18v18H0z"/><path d="M7.35 3c.7 0 1.26.18 1.68.5a3.3 3.3 0 0 1 1.86-.5C12.42 3 14 3.99 14 5.75c0 .87-.47 1.78-1.25 2.3.64.31 1.27.99 1.25 1.77-.01.67-.54 1.18-.93 1.66.3.44.6.85.93 1.24l-.03.47c-.06.94-.88 1.78-1.82 1.78-.6 0-1.04-.39-1.32-.68-.15.2-.28.39-.41.6l-.45.08c-.48.1-.96-.05-1.33-.34-.38.17-.94.37-1.43.37C5.31 15 4 13.25 4 11.34c0-1.15.43-2.01 1.07-2.59A3.35 3.35 0 0 1 4 6.26C4 4.42 5.66 3 7.35 3Z" fill="url(#asqutijzv)"/><path d="m10.22 11.48-.91 1.21a.8.8 0 0 0-.16.7c.1.43.48.66.76.6l1.08-1.42.68 1.1a.7.7 0 0 0 .6.33c.41 0 .71-.34.73-.64-.07-.08-.59-.97-1.18-1.84l.88-1.13a.97.97 0 0 0 .16-.76c-.1-.43-.57-.63-.79-.63l-1.03 1.38c-.23-.34-.44-.76-.62-1.02A.85.85 0 0 0 9.77 9c-.42 0-.71.44-.77.66l1.22 1.82Z" fill="url(#bsqutijzv)"/><path d="M10.5 7.46v1.48c-.13.02-.23.06-.5.06-.58 0-1-.38-1-.58V4.58c.07-.22.47-.58 1.71-.58C12.4 4 13 4.88 13 5.75c0 .86-.63 1.71-1.82 1.71h-.68Zm0-1.15h.67c.34 0 .63-.25.63-.58 0-.33-.3-.58-.63-.58h-.67v1.16Z" fill="url(#csqutijzv)"/><path d="M8.86 4.92c0 .26-.23.5-.34.59a1.85 1.85 0 0 0-1.02-.36c-.55 0-1 .5-1 1.32 0 1.16.5 1.38.88 1.38.18 0 .54-.08.62-.12V6h.64c.2 0 .36.18.36.4v1.74c0 .34-.25.86-1.63.86C6 9 5 8.02 5 6.47A2.47 2.47 0 0 1 7.38 4c1.05 0 1.48.6 1.48.92Z" fill="url(#dsqutijzv)"/><path d="M9 9.83c0 .3-.23.55-.35.64a1.72 1.72 0 0 0-1.04-.32c-.63 0-1.11.58-1.11 1.29 0 1.13.74 1.4 1.2 1.4.35 0 .82-.15 1.01-.25.1.1.29.36.29.6 0 .3-.29.81-1.49.81S5 13.3 5 11.44 6.49 9 7.45 9C8.4 9 9 9.44 9 9.83Z" fill="url(#esqutijzv)"/><defs><linearGradient id="asqutijzv" x1="4.71" y1="8.99" x2="13.99" y2="8.99" gradientUnits="userSpaceOnUse"><stop stop-color="#D40E4C"/><stop offset="1" stop-color="#652584"/></linearGradient><linearGradient id="bsqutijzv" x1="9" y1="11.51" x2="13" y2="11.51" gradientUnits="userSpaceOnUse"><stop stop-color="#F6E526"/><stop offset="1" stop-color="#F39803"/></linearGradient><linearGradient id="csqutijzv" x1="9" y1="6.51" x2="13" y2="6.51" gradientUnits="userSpaceOnUse"><stop stop-color="#F6E526"/><stop offset="1" stop-color="#F39803"/></linearGradient><linearGradient id="dsqutijzv" x1="5" y1="6.51" x2="9" y2="6.51" gradientUnits="userSpaceOnUse"><stop stop-color="#F6E526"/><stop offset="1" stop-color="#F39803"/></linearGradient><linearGradient id="esqutijzv" x1="5" y1="11.51" x2="9" y2="11.51" gradientUnits="userSpaceOnUse"><stop stop-color="#F6E526"/><stop offset="1" stop-color="#F39803"/></linearGradient></defs></svg>