<!-- by TradingView --><svg width="18" height="18" viewBox="0 0 18 18" xmlns="http://www.w3.org/2000/svg"><path fill="url(#amvr3yscd)" d="M0 0h18v18H0z"/><path d="M9 6a1.5 1.5 0 0 0 1.48-1.5C10.48 3.67 9.82 3 9 3a1.5 1.5 0 0 0-1.48 1.5C7.52 5.33 8.18 6 9 6Zm1.74-1.43c0 .67-.37 1.25-.9 1.54L12 7.38v1.85l2-1.13V6.23l-3.28-1.92.02.26ZM6 7.37 8.17 6.1a1.75 1.75 0 0 1-.86-1.8L4 6.23v1.86l2 1.13V7.38Zm8 1.67-2 1.11v.74l-3.02 1.76L6 10.9v-.75L4 9.03v3.05L9 15l5-2.92V9.04Zm-7.67.32V8.22l2.7 1.55-.97.58-1.73-.99Zm5.34-1.14v1.14l-1.67.99-.97-.58 2.64-1.55Z" fill="url(#bmvr3yscd)"/><defs><linearGradient id="amvr3yscd" x1="3.35" y1="3.12" x2="21.9" y2="24.43" gradientUnits="userSpaceOnUse"><stop stop-color="#1A1E21"/><stop offset="1" stop-color="#06060A"/></linearGradient><linearGradient id="bmvr3yscd" x1="9" y1="3" x2="9" y2="15" gradientUnits="userSpaceOnUse"><stop stop-color="#00A7FF"/><stop offset="1" stop-color="#0068FF"/></linearGradient></defs></svg>