<!-- by TradingView --><svg width="18" height="18" viewBox="0 0 18 18" xmlns="http://www.w3.org/2000/svg"><path fill="#F0F3FA" d="M0 0h18v18H0z"/><path d="M6.44 5H7.5v1.43L8 6.1V5h.63v.77h.19c.47 0 1.18.41 1.18 1.1V8h1.79c.4.03 1.21.48 1.21 1.31 0 .18-.08.47-.35.75-.2.23-.8.79-1.07 1.04.07-.08.2-.33.2-.7 0-.83-.6-1.4-1.19-1.4H8.63V7.77c-.06-.36-.16-.99-1.13-1.01v3.57h4.19v.03c0 .62-.56 1.64-1.25 1.64H9.06v1h-.73v-1H7.17v1h-.73v-1H6V7.68c0-.34.17-.65.44-.86V5Z" fill="#FF1396"/><path d="M14 9a5 5 0 1 1-8.77-3.29l.2.16a4.75 4.75 0 1 0 1.21-1l-.13-.2A5 5 0 0 1 14 9ZM5.5 5.42c.21-.2.43-.38.67-.54l.13.21c-.2.14-.38.29-.56.45l-.04.03-.2-.15Z" fill="#FF1396"/><path d="M13.77 12.64a5.99 5.99 0 1 1 .94-1.78l-.35-.08a5.64 5.64 0 1 0-.88 1.66l.3.2Zm.77-1.33c-.14.33-.3.64-.5.94l-.3-.2c.18-.26.33-.55.46-.84l.34.1Z" fill="#FF1396"/></svg>