<!-- by TradingView --><svg width="18" height="18" viewBox="0 0 18 18" xmlns="http://www.w3.org/2000/svg"><path fill="#F0F3FA" d="M0 0h18v18H0z"/><path d="M15 9A6 6 0 1 1 3 9a6 6 0 0 1 12 0Z" fill="#C20A00"/><path d="M14.8 9A5.8 5.8 0 1 1 3.2 9a5.8 5.8 0 0 1 11.6 0Z" fill="#FCE14C"/><path d="M14 9A5 5 0 1 1 4 9a5 5 0 0 1 10 0Z" fill="#FFF3C2"/><path d="M14.8 9.36a5.85 5.85 0 0 0-.08-1.33l-10.6 4.1c.26.43.59.81.96 1.15l9.71-3.92ZM3.2 8.62a5.9 5.9 0 0 0 .1 1.49l10.58-4.26a5.83 5.83 0 0 0-.85-1.03L3.2 8.62Z" fill="#FFF69C"/><path d="M13.8 9a4.8 4.8 0 1 1-9.6 0 4.8 4.8 0 0 1 9.6 0Z" fill="#FEEB72"/><path d="M14 9a5 5 0 0 1-.28 1.65L11.76 8.7 8.7 11.77l1.96 1.95c-.23.08-.46.15-.7.2l-2.07-3.2-.77.5L8.91 14a5 5 0 1 1 5.1-5Z" fill="#D56303"/><path d="M13.71 10.67a5 5 0 0 0-.83-4.82L4 9.1A5 5 0 0 0 8.95 14l-1.82-2.81.76-.5 2.08 3.22c.24-.05.48-.12.7-.2L8.7 11.73l3.04-3.05 1.98 2Z" fill="#F6770C"/><path d="M13.24 9a4.24 4.24 0 1 1-8.48 0 4.24 4.24 0 0 1 8.48 0Z" fill="#FDDB3C"/><path d="M13.1 10.04a4.24 4.24 0 0 0 .12-1.43l-7.6 2.94c.31.42.7.77 1.15 1.05l6.34-2.56Zm-1.76-4.57c.4.27.75.6 1.04.98L4.8 9.51a4.28 4.28 0 0 1 .1-1.55l6.45-2.49Z" fill="#FFF69C"/><path d="M11.2 10.28c0 .87-.9 1.57-2 1.57-1.12 0-2.02-.7-2.02-1.57 0-1.57 0-1.57 2.01-1.57 1.12 0 2.02.7 2.02 1.57Z" fill="#D0640A"/><path d="M10.95 7.14c.01.16-.49.37-.56.43-.16-.12-.48-.43-.45-.7.37-.03.99.1 1 .27Z" fill="#FEC107"/><path d="M11.45 8.92c0-.11-1.04-1.4-1.53-2.04 0 .22-.28.27-.42.27.14.5.42 1.49.42 1.54 0 .05.75 1.04 1.12 1.53.21-.23.4-1.03.4-1.3Z" fill="#D0640A"/><path d="M11.8 9.58v.02l-.64.47.08-.53V9.1h1.07v.48h-.52Z" fill="#D0640A"/><path d="M11.17 9.03h1.2v.62h-.52l-.78.56.1-.67v-.5Zm.54.56-.06-.07h.6v-.36h-.95v.39l-.06.38.47-.34Z" fill="#A71F07"/><path d="M8.38 8.84c-.3-.27-.9-.8-.9-.83-.47.45-.53.93-.5 1.1h.45l.95-.27Z" fill="#D0640A"/><path d="M9.28 8.76c-.76-1.1-1.71-1.45-2.1-1.48.16.07.47.24.47.4 0 .18-.14.36-.2.43l.45.76c.3.08 1.01.17 1.38-.11Z" fill="#E1870D"/><path d="M8.68 7.15c-.8 0-1.64-.06-1.67-.06v.16l.55.24 1.12 1.3c.4.11 1.23.37 1.23.3s.39-.7.68-.97c-.78-.87-.6-.97-1.91-.97Z" fill="#FCF604"/><path d="M8.68 7.15c-.8 0-1.64-.06-1.67-.06v.16l.55.24 1.33 1c.4.12 1.02.67 1.02.6 0-.07.39-.7.68-.97-.78-.87-.6-.97-1.91-.97Z" fill="#FEC107"/><path d="M11.08 10.1c0 .77-.8 1.4-1.79 1.4-.98 0-1.78-.63-1.78-1.4 0-1.4 0-1.4 1.78-1.4.99 0 1.79.63 1.79 1.4Z" fill="#FBA405"/><path d="M11.08 9.68c0 .54-.66.97-1.46.97-.81 0-1.46-.43-1.46-.97s.65-.97 1.46-.97c.8 0 1.46.43 1.46.97Z" fill="#F4F6ED"/><path d="M9.03 6.66a.75.75 0 0 0 .74-.86.5.5 0 1 1-.52-.6.75.75 0 1 0-.22 1.46Z" fill="#C14E0F"/><path d="M6.99 6.9h1.46v.25L6.99 7.1v-.2ZM9.97 6.9h1v.19h-1v-.2Z" fill="#FDFFCE"/><path d="M10.44 7.54c.11-.07.26-.22.39-.33.09-.08.15-.2.15-.32H9.96c0 .02 0 .08-.02.12-.24.35-1.08.15-1.5.14v-.26H7v.12c.01.14.06.28.2.32.16.06.46.16.46.36 0 .23-.15.4-.32.58-.2.23-.41.46-.36.84h.31a.85.85 0 0 0-.04.13c-.06.23-.06.57-.06 1.04 0 .87.9 1.57 2.01 1.57 1.12 0 2.02-.7 2.02-1.57 0-.1-.02-.19-.04-.28.16-.33.28-.86.28-1.08l-1.01-1.38Zm.87 2.48c.02.08.03.17.03.26 0 .97-1 1.7-2.15 1.7s-2.14-.73-2.14-1.7c0-.29 0-.52.02-.72 0-.12.02-.22.04-.32h-.25l-.02-.1c-.1-.72.68-.87.68-1.45 0-.15-.36-.23-.45-.26-.14-.05-.2-.18-.2-.33l-.02-.34h1.73v.26l.4.02.4.02c.1 0 .41-.01.41-.18v-.14l1.32.02v.22c0 .15-.08.28-.2.37l-.28.23a57.1 57.1 0 0 1 .84 1.12c.05.06.1.14.1.22a3.6 3.6 0 0 1-.27 1.1Z" fill="#A71F07"/><path d="M9.2 6.66a.75.75 0 0 0 .73-.86.5.5 0 1 1-.52-.6.75.75 0 1 0-.22 1.46Z" fill="#FCFDFF"/><path d="M9.75 9.71h-.56l.56.52v-.52Z" fill="#FBC108"/><path d="M9.26 9.37a.8.8 0 1 1-1.59 0 .8.8 0 0 1 1.59 0ZM11.14 9.37a.8.8 0 1 1-1.59 0 .8.8 0 0 1 1.6 0Z" fill="#B92A00"/><path d="M9.13 9.37a.66.66 0 1 1-1.33 0 .66.66 0 0 1 1.33 0ZM11.01 9.37a.66.66 0 1 1-1.33 0 .66.66 0 0 1 1.33 0Z" fill="#FBC108"/><path d="M8.68 9.37a.21.21 0 1 1-.43 0 .21.21 0 0 1 .43 0Z" fill="#7D1E07"/><path d="M8.68 9.3a.13.13 0 1 1-.26 0 .13.13 0 0 1 .26 0Z" fill="#F4F6ED"/><path d="M10.56 9.37a.21.21 0 1 1-.42 0 .21.21 0 0 1 .42 0Z" fill="#7D1E07"/><path d="M9.1 9.55a.67.67 0 0 1-1.28 0h1.29ZM10.99 9.55a.67.67 0 0 1-1.28 0h1.28Z" fill="#FDF107"/><path d="M10.56 9.3a.13.13 0 1 1-.26 0 .13.13 0 0 1 .26 0Z" fill="#F4F6ED"/><path d="M5.5 8.89h.32c.54.27 1.64.82 1.72.89.1.08.13 1.05-.13 1.08-.26.04-.75.31-.8.25-.04-.07.22-.55-.04-.65-.21-.08-.88-.92-1.07-1.57Z" fill="#CF600F"/><path d="M6.99 9.05 5.8 8.89c0 .26.23.57.35.7l.83.89.6-.24v-.71l-.6-.48Z" fill="#FDAC05"/><path d="M5.41 8.82h.43L7.02 9 7 9.05 7 8.99h.01a1.45 1.45 0 0 1 .1.05l.21.13c.09.05.17.12.24.2.07.08.12.17.13.27a.2.2 0 0 1 0 .07l-.02.05v.02a.63.63 0 0 0-.03.18v.1a10.1 10.1 0 0 1 .01.4c0 .11-.02.22-.05.3-.03.08-.1.16-.2.17-.1.01-.27.08-.43.15l-.23.08a.44.44 0 0 1-.09.02h-.04a.09.09 0 0 1-.06-.03.1.1 0 0 1-.01-.06v-.05l.02-.11c.03-.1.05-.19.05-.27a.2.2 0 0 0-.02-.1.1.1 0 0 0-.06-.04.44.44 0 0 1-.11-.07 3.9 3.9 0 0 1-.45-.52c-.22-.31-.44-.7-.54-1.02l-.03-.09Zm1.56.3-1.16-.17h-.22a3.85 3.85 0 0 0 1 1.45c.06.02.1.06.13.1.02.06.03.1.03.16 0 .1-.03.2-.05.3l-.02.09.03-.01.22-.08c.16-.07.34-.14.47-.16.03 0 .06-.03.09-.09a.85.85 0 0 0 .04-.25v-.5l.02-.22.01-.02.01-.04v-.02a.4.4 0 0 0-.1-.2 1.1 1.1 0 0 0-.2-.19 1.94 1.94 0 0 0-.3-.16Zm-.3 1.96Z" fill="#A71F07"/></svg>