<!-- by TradingView --><svg width="18" height="18" viewBox="0 0 18 18" xmlns="http://www.w3.org/2000/svg"><path fill="url(#a)" d="M0 0h18v18H0z"/><path fill-rule="evenodd" d="M9.33 9.6 6.67 5.58a.04.04 0 0 1 0-.04l.26-.39a.8.8 0 0 1 .54-.35 1.56 1.56 0 0 1 .38 0h.28l.92.1h.36c.48-.08.75-.37.81-.88a.03.03 0 0 1 .02-.02.02.02 0 0 1 .03 0l.09.13c.12.2 1.3 1.96 3.5 5.3.1.12.14.27.14.43v1.11c0 .02-.01.03-.03.03h-2.12a.08.08 0 0 1-.07-.04l-.6-.9a.94.94 0 0 0-.46-.38c-.1-.04-.28-.06-.53-.06a106.98 106.98 0 0 1-.86-.02Zm.85-3.38c.6 0 1.14.57 1.43 1.07-.37.05-.75-.06-1-.34a2.48 2.48 0 0 1-.44-.72h.01ZM5.41 11.9l.48.71c.18.26.44.39.79.39a14381.45 14381.45 0 0 0 3.99-.03L6.1 6.25H6.1a.02.02 0 0 0-.02 0c-.52.74-1.15 1.67-1.9 2.79a.87.87 0 0 0 0 1.04c.38.58.8 1.19 1.23 1.81Z" fill="url(#b)"/><defs><linearGradient id="a" x1="3.35" y1="3.12" x2="21.9" y2="24.43" gradientUnits="userSpaceOnUse"><stop stop-color="#1A1E21"/><stop offset="1" stop-color="#06060A"/></linearGradient><linearGradient id="b" x1="6.77" y1="6.93" x2="7.26" y2="13" gradientUnits="userSpaceOnUse"><stop stop-color="#ED474F"/><stop offset="1" stop-color="#FCAB26"/></linearGradient></defs></svg>