<!-- by TradingView --><svg width="18" height="18" viewBox="0 0 18 18" xmlns="http://www.w3.org/2000/svg"><path fill="#FDE680" d="M0 0h18v18H0z"/><path d="M11.79 14.32a7.1 7.1 0 0 0-1.36-.5l-.27-.16c-.04-.04-.07-.07-.07-.11l.01-.06.01-.04-.01-.03a1.9 1.9 0 0 1-.25-.07.46.46 0 0 1-.25-.4c0-.06.02-.1.07-.14l.15-.06c.15-.01.3-.06.46-.15.16-.1.28-.15.37-.17l.43-.1a.4.4 0 0 0 .15-.08c.05-.04.05-.05-.02-.03l-.45.11c-.06.02-.09 0-.1-.07 0-.07.03-.11.09-.14.18-.07.36-.13.53-.17.15-.04.25-.08.3-.11.1-.06.18-.14.24-.24v-.03l-.6-.33a.35.35 0 0 1-.14-.13.05.05 0 0 1 0-.05c0-.02.01-.03.03-.04.04 0 .1 0 .15.02a9.73 9.73 0 0 1 .72.28l.28-.31v-.03a3.63 3.63 0 0 1-.9-.17c-.03 0-.05-.03-.05-.06v-.02c0-.04.03-.06.07-.05a2.65 2.65 0 0 0 1 .07l.27-.01c.02 0 .04-.01.04-.04l.08-.2c0-.02 0-.03-.02-.04-.34-.05-.73-.09-1.18-.11-.04 0-.05-.02-.06-.06v-.02c0-.03.02-.05.05-.05a12.24 12.24 0 0 1 1.14-.08l-.3-.07a.52.52 0 0 1-.2-.09c-.04-.04-.06-.1-.06-.18 0-.1.02-.2.06-.29.11-.26.18-.5.2-.73.01-.34.03-.6.06-.78l-.03-.2a.63.63 0 0 1 0-.33c.02-.07.07-.22.16-.43.03-.1.05-.2.06-.32V6.36c-.01-.1-.04-.2-.09-.32a2.72 2.72 0 0 1-.16-.72.7.7 0 0 1-.02-.02c-.02-.05-.03-.05-.05 0a.73.73 0 0 1-.08.17c-.05.08-.12.1-.21.06-.03-.02-.06-.01-.08.02l-.2.29h-.05a.22.22 0 0 1-.08-.03c-.02-.02-.04-.02-.05.01-.06.12-.13.22-.21.31a.04.04 0 0 1-.04.02l-.06-.01c-.03 0-.05 0-.06.04l-.11.5v.02h.03c.1-.06.2-.1.33-.16.1-.04.2-.05.3-.02l.04.02c.05.06.11.1.18.1.03 0 .04.01.05.04.01.08 0 .19-.05.3-.04.1-.08.2-.14.28-.07.1-.15.14-.25.11-.02 0-.03 0-.04.02l-.04.05a.07.07 0 0 1-.06.03c-.02 0-.04-.01-.05-.03a.26.26 0 0 1-.05-.24 47.7 47.7 0 0 1 .09-.36h-.03l-.34.18c-.03.02-.07.08-.11.17a.93.93 0 0 1-.05.08c0 .02-.02.02-.03.02a.13.13 0 0 1-.05-.03h-.03a.62.62 0 0 1-.05.05c-.03.03-.06.03-.1.01v-.17c0-.05-.02-.06-.05-.02l-.11.16c-.01.02-.02.02-.04.02-.04 0-.07-.02-.1-.07 0-.02-.02-.03-.04 0a.1.1 0 0 1-.07.03c-.02 0-.03 0-.04-.02a.35.35 0 0 1-.07-.15l-.02-.02-.02.01c-.1.11-.21.2-.34.27-.03.02-.07 0-.1-.03a.62.62 0 0 1-.07-.24v-.05l-.02-.02h-.01a2.2 2.2 0 0 0-.06.08.9.9 0 0 1-.24.25h-.03a.04.04 0 0 1-.03-.02l-.03-.12a.02.02 0 0 0-.02-.01h-.02l-.1.13-.03.01a.03.03 0 0 1-.02-.02L8.9 7.1c0-.02 0-.02-.02 0l-.07.1-.04.01c-.05 0-.09.02-.1.04a6.12 6.12 0 0 0-.24.31.04.04 0 0 1-.03-.02.73.73 0 0 1-.05-.28 11.25 11.25 0 0 0-.02-.41H8.3l-.68.5c-.03.01-.05 0-.07-.02l-.06-.12h-.03l-.03.02c-.01.03-.03.04-.04.04-.03.01-.06 0-.08-.05-.02-.04-.04-.04-.04 0a.7.7 0 0 1-.08.23c-.03.05-.08 0-.13-.12-.02-.04-.04-.04-.06 0l-.06.15c-.01.02-.02.03-.04.03-.03 0-.04 0-.05-.03l-.01-.01-.02-.02-.02.02v.01a6.8 6.8 0 0 1-1.53 2.68c-.02.01-.02.03 0 .04.07.06.19.13.35.2.07.03.1.08.06.15 0 .02-.01.03-.03.03-.08.01-.21-.02-.39-.1v-.01a.22.22 0 0 0-.2 0 .04.04 0 0 0-.03.03c0 .02 0 .03.02.04a.6.6 0 0 0 .1.05l.12.07c.08.07.1.16.08.3 0 0 0 .02.02.03h.03l.43-.1c.03-.01.06 0 .08.03.03.06 0 .11-.08.18-.03.01-.04.03-.03.06l.11.33c.02.05 0 .08-.05.1-.05.03-.08.02-.1-.03l-.12-.25a.13.13 0 0 0-.1-.08l-.07-.02c-.04 0-.05 0-.03.04l.3.5c.01.02.04.03.08.03l.05-.01c.08-.03.14-.03.17-.02.05.02.1.06.13.12v.04c0 .03 0 .05-.02.08v.03c.1.06.18.09.22.1.2 0 .4.04.61.08.02 0 .04.02.05.04 0 .03 0 .05-.02.07l-.06.06v.03c0 .01 0 .02.02.03a2.06 2.06 0 0 0 .58.14l.36.07c.11.03.21.09.3.17l.05.02.45.05c.02 0 .03.02.03.04l-.06.4c0 .07-.03.1-.08.12a.4.4 0 0 1-.14 0l-.05-.01c-.07 0-.08.02-.03.06.07.08.08.17.03.28-.07.15-.16.28-.28.4-.02 0-.01.02 0 .02l.23.1c.04.02.05.05.03.08-.01.05-.05.08-.1.09-.26.04-.46.09-.61.12-.1.03-.1.05 0 .06l.22.02c.07 0 .12.01.15.04.04.04.04.1 0 .19-.28-.04-.56-.1-.84-.19-.02 0-.03-.02-.01-.04l.13-.18c.03-.04.08-.09.16-.13a4.65 4.65 0 0 0 .38-.27l-.01-.02-.08.01-.52.14c-.02 0-.04 0-.06-.02a.05.05 0 0 1 0-.05l.05-.08c.02-.04.01-.05-.03-.04a.73.73 0 0 1-.3 0 .05.05 0 0 1-.04-.02.05.05 0 0 1 0-.05c.03-.1.1-.15.2-.18.32-.08.63-.2.93-.35.1-.05.16-.1.2-.17.05-.06.04-.08-.04-.07-.13.02-.28.02-.44 0-.04 0-.07-.03-.07-.07 0-.1.05-.15.14-.17.02 0 .02 0 .01-.02a7.44 7.44 0 0 0-.2-.05l-.4-.08a4.3 4.3 0 0 0-.56-.12.64.64 0 0 1-.17-.06.04.04 0 0 1-.02-.03l.01-.03.06-.05v-.03h-.1l-.2.03a.28.28 0 0 1-.15-.06.04.04 0 0 1-.02-.04c.02-.08 0-.16-.07-.24h-.03l-.04.07c-.03.03-.05.05-.09.05-.03 0-.06-.01-.08-.05a4.94 4.94 0 0 1-.57-.95.9.9 0 0 0-.11.03.78.78 0 0 1-.41-.02.06.06 0 0 1-.04-.04l.01-.06a.3.3 0 0 1 .16-.09c.1-.02.2-.04.3-.08V11L5 10.9l-.03-.02-.16-.02c-.01 0-.02 0-.03-.02a.23.23 0 0 1-.04-.13c0-.03-.02-.04-.04-.04l-.47.04a1 1 0 0 1-.3-.03c-.02 0-.04-.02-.04-.05 0-.07.04-.11.11-.12a2.4 2.4 0 0 0 .69-.19l-.01-.01a1.34 1.34 0 0 1-.34-.22 1.07 1.07 0 0 1-.17-.17.31.31 0 0 1-.06-.22l.03-.03h.04c.24.15.48.28.74.38a.1.1 0 0 0 .1-.02 5.14 5.14 0 0 0 .69-.78c.14-.27.32-.64.51-1.13.05-.11.1-.29.14-.53.03-.19.06-.33.09-.42a41.38 41.38 0 0 1 .35-1.04l.04-.02.03.03.04.16c.01.05.02.05.04 0a3.29 3.29 0 0 1 .8-1.36c.01-.01.02-.02.03-.01.02 0 .03 0 .03.02l.2.32h.01l.02-.01v-.26c0-.06.03-.09.09-.1.02 0 .03 0 .04.02a8.37 8.37 0 0 1 .38 1.48l.02.49c0 .04.01.05.04 0 .07-.12.13-.22.2-.3.02-.04.05-.06.09-.06.04 0 .07.01.1.05l.05.06c.01.02.02.02.04 0l.11-.16a.05.05 0 0 1 .05-.02c.02 0 .04.01.04.03.05.12.07.2.06.25 0 .16.01.17.07 0 .03-.1.08-.2.16-.31.06-.09.1-.08.11.02l.04.33a1.05 1.05 0 0 0 .06.25h.02c.17-.3.33-.51.47-.66a.34.34 0 0 1 .1-.07c.03-.02.06-.01.08.02l.17.3h.02c.1-.26.23-.53.4-.8.06-.1.12-.18.19-.25.1-.1.2-.14.3-.13l.05-.01.47-.45c.1-.09.18-.16.26-.21.02-.02.04-.01.06 0l.16.18c.01.02.03.02.06 0a.12.12 0 0 1 .05-.01l.04.01.05.17c.04.42.1.83.2 1.22a2.29 2.29 0 0 1-.02.65l-.04.2c-.05.29-.08.5-.08.64l-.05.87c-.01.2-.04.38-.09.55a1.4 1.4 0 0 1-.23.5v.03l.02.01.45.07c.06.01.08.06.08.13 0 .03.01.04.03.05.17.04.35.1.54.21.02.01.03.03.03.05l-.01.05c-.04.04-.16.06-.35.06h-.05a.08.08 0 0 0-.08.05l-.06.14v.02l.23.25c.02.02.02.04.02.06 0 .02-.02.04-.04.05-.05.02-.12.02-.2 0a.58.58 0 0 0-.08-.03c-.02 0-.03 0-.04.02l-.6.54-.01.02.01.02c.26.07.54.2.85.38.03.02.05.05.05.1a.1.1 0 0 1-.03.06.1.1 0 0 1-.07.03 8.26 8.26 0 0 1-.95-.34c-.05-.02-.08-.01-.12.03l-.33.4c-.44.5-.98.78-1.61.87-.06 0-.06.02-.01.04l.49.22c.02 0 .03.02.03.04 0 .01 0 .03-.02.04a.71.71 0 0 1-.13.06c-.06.02-.06.04 0 .06.22.09.45.15.69.2l.3.09.1.03.32.1.37.06c.04.01.04.03 0 .05l-.46.26Z" fill="#010102"/><path d="M11.79 14.32a6.2 6.2 0 0 1-3.73.58c.04-.08.04-.15 0-.19-.03-.03-.08-.04-.15-.04-.09 0-.16 0-.22-.02-.1-.01-.1-.03 0-.06l.6-.12c.06-.01.1-.04.11-.09.02-.03 0-.06-.03-.08l-.23-.1c-.01 0-.02-.01 0-.03.12-.1.21-.24.28-.39.05-.1.04-.2-.03-.27-.05-.05-.04-.07.03-.07h.05a.4.4 0 0 0 .14 0c.05 0 .07-.04.08-.1l.06-.4c0-.03-.01-.04-.03-.04l-.45-.06-.04-.02a.91.91 0 0 0-.31-.17 2.63 2.63 0 0 0-.46-.08 2.06 2.06 0 0 1-.48-.13.03.03 0 0 1-.02-.03v-.03l.07-.06a.06.06 0 0 0 0-.06.06.06 0 0 0-.04-.05 4.28 4.28 0 0 0-.61-.09.67.67 0 0 1-.22-.09V12a.24.24 0 0 0 .03-.08v-.04a.27.27 0 0 0-.14-.12c-.03-.01-.09 0-.17.02a.59.59 0 0 1-.05 0c-.04.01-.07 0-.08-.02l-.3-.5c-.02-.03-.01-.05.03-.04l.08.02c.04.01.07.04.1.08l.1.25c.03.05.06.07.11.04.05-.03.07-.06.05-.11l-.1-.33c-.02-.03 0-.05.02-.06.09-.06.11-.12.08-.18-.02-.03-.05-.04-.08-.03l-.43.1h-.03a.04.04 0 0 1-.02-.04c.03-.12 0-.22-.08-.3a.48.48 0 0 0-.12-.06.58.58 0 0 1-.1-.05.04.04 0 0 1-.02-.04l.03-.03a.22.22 0 0 1 .2 0c.18.09.3.12.4.1 0 0 .02 0 .02-.02.03-.07.01-.12-.06-.15a1.48 1.48 0 0 1-.35-.2c-.02-.01-.02-.03 0-.04a6.8 6.8 0 0 0 1.57-2.7v.02c.02.02.03.03.06.03.02 0 .03-.01.04-.03L7 7.34c.02-.04.04-.04.06 0 .05.13.1.17.13.12a.7.7 0 0 0 .08-.23c0-.04.02-.04.04 0 .02.05.05.06.08.06l.05-.05a.3.3 0 0 1 .02-.02h.03l.06.12c.02.03.04.03.07.01a26.59 26.59 0 0 1 .7-.49c.02 0 .03.01.03.02v.39c0 .1.01.2.05.28 0 .02.01.02.03.02l.04-.01c.06-.1.12-.2.2-.3.01-.02.05-.03.1-.04.02 0 .03 0 .04-.02l.07-.1h.02l.06.22c0 .01.01.02.03.02l.03-.01.09-.12c0-.01.01-.02.02-.01.01 0 .02 0 .02.02l.03.11.03.03h.03a.9.9 0 0 0 .24-.26 2.2 2.2 0 0 1 .07-.08l.02.02v.05c.03.13.05.2.08.24.02.04.06.05.1.03.12-.07.23-.16.33-.27h.02l.02.01c0 .06.03.1.07.15l.04.02a.1.1 0 0 0 .07-.04c.02-.02.04-.01.05.01.02.05.05.08.1.07l.03-.01.11-.17c.03-.04.05-.03.05.02v.17c.04.02.07.02.1 0l.05-.06h.03l.05.03c.01 0 .02 0 .03-.02a.91.91 0 0 0 .05-.08c.04-.09.08-.15.11-.17a3.13 3.13 0 0 1 .37-.18v.03l-.09.33a.26.26 0 0 0 .05.24c.01.02.03.03.05.03.03 0 .05-.01.06-.03l.04-.05a.03.03 0 0 1 .04-.02c.1.03.18 0 .25-.1l.14-.28a.61.61 0 0 0 .05-.3c0-.03-.02-.05-.05-.05a.28.28 0 0 1-.18-.1.08.08 0 0 0-.04-.02.46.46 0 0 0-.3.02 2.62 2.62 0 0 0-.36.16v-.02l.11-.5c.01-.03.03-.04.06-.04h.1c.08-.1.16-.2.21-.32.01-.02.03-.03.05-.01l.09.04.03-.01.2-.29c.03-.03.06-.04.09-.02.1.03.16.02.2-.06a.74.74 0 0 0 .1-.17c0-.05.02-.05.04 0l.02.02v.03c.04.26.09.5.16.69a1.03 1.03 0 0 1 .08.34l.01.34c0 .12-.03.23-.06.32a9.2 9.2 0 0 0-.16.43c-.03.1-.03.2 0 .34l.03.2c-.02.17-.05.43-.07.77 0 .23-.07.47-.2.73a.67.67 0 0 0-.05.29c0 .08.02.14.07.18.03.03.1.06.2.09a94.63 94.63 0 0 0 .28.1c-.26-.01-.64 0-1.13.05-.03 0-.05.02-.05.05v.02c0 .04.03.06.06.06.45.02.84.06 1.18.11.02 0 .02.02.02.03l-.08.21c0 .03-.02.04-.04.04-.06 0-.14 0-.26.02a2.64 2.64 0 0 1-1-.08c-.05 0-.07.01-.08.05v.02c0 .03.02.05.05.06a3.64 3.64 0 0 0 .9.17V11l-.28.31h-.03l-.69-.28a.25.25 0 0 0-.15-.02.05.05 0 0 0-.04.04v.05c.04.05.08.1.14.13a28.55 28.55 0 0 0 .61.36.72.72 0 0 1-.23.24 1.2 1.2 0 0 1-.3.1l-.54.18c-.06.03-.09.07-.08.13 0 .07.03.1.1.08l.44-.11c.07-.02.07 0 .02.03a.4.4 0 0 1-.15.07c-.2.05-.34.09-.43.1-.09.03-.21.08-.37.18-.15.09-.3.14-.46.16-.05 0-.1.02-.15.05-.05.04-.08.08-.07.13 0 .19.1.32.25.4.03.02.1.05.25.08l.02.03-.02.05-.01.05c0 .04.03.07.07.1.06.05.15.1.27.17.05.03.14.06.28.1.37.1.73.24 1.08.4ZM7.55 6.17l-.03.01-.23.4-.02.01c-.06-.02-.1 0-.14.06a11.4 11.4 0 0 0-.15.29c-.08.05-.1.03-.06-.05l.14-.25.13-.26a25.71 25.71 0 0 1 .55-1.04h.02a1.39 1.39 0 0 1 .24.6c.01.06.03.1.07.13l.04.04c.05.05.09.09.1.12.05.1.08.2.1.32 0 .02-.01.03-.03.03-.15.04-.29.1-.4.19h-.02l-.01-.02.12-.33c.02-.07 0-.1-.07-.09h-.02c-.07 0-.13.05-.17.12l-.1.16a226.69 226.69 0 0 0-.02-.36c0-.05-.01-.08-.04-.08Z" fill="#72C7BA"/><path d="m8 9.96-.03.03-.18.17a.38.38 0 0 1-.21.08c-.24 0-.45-.05-.64-.17a.36.36 0 0 1-.13-.17c-.07-.18-.1-.39-.1-.62.02-.41.1-.78.24-1.12l.15-.26c.08-.12.2-.2.34-.26.13-.05.28-.07.43-.06.13 0 .25.08.37.24.1.13.16.26.2.4.01.1 0 .26-.02.49a6.9 6.9 0 0 1-.2.9c-.06.14-.13.25-.22.35ZM10.46 9.99a1 1 0 0 1-.36.28c-.12.05-.28.1-.47.13a.89.89 0 0 1-.33-.03l-.08-.02a.55.55 0 0 1-.29-.15 1.18 1.18 0 0 1-.18-.28 1.17 1.17 0 0 1-.14-.5c0-.23.01-.48.04-.75.01-.12.04-.22.09-.33.07-.15.17-.31.28-.48a.25.25 0 0 1 .08-.06c.31-.19.66-.22 1.05-.1.13.05.24.14.33.28a1.05 1.05 0 0 1 .18.49c.05.27.06.48.04.62-.01.15-.04.32-.07.5a.84.84 0 0 1-.17.4Z" fill="#010102"/><path d="M7.79 9.32c-.02.1.02.16.11.19.03 0 .04.02.03.04a.67.67 0 0 1-.25.37.38.38 0 0 1-.2.08.63.63 0 0 1-.22-.04.25.25 0 0 1-.14-.11.82.82 0 0 1-.14-.4c0-.14 0-.32.03-.54.02-.23.09-.44.2-.63a.9.9 0 0 1 .5-.43.32.32 0 0 1 .2.01c.13.05.21.16.24.35.03.2.04.32.02.38 0 .02 0 .02-.02.03a.25.25 0 0 0-.21.18c-.07.18-.12.36-.15.52ZM9.1 9.95c-.14-.2-.23-.42-.25-.67-.02-.2 0-.45.05-.75a.78.78 0 0 1 .3-.46.58.58 0 0 1 .28-.14h.33c.1.02.19.04.25.08.12.08.21.16.27.26.04.07.06.19.07.34a2.45 2.45 0 0 1-.16 1.04.83.83 0 0 1-.24.33.79.79 0 0 1-.47.19.48.48 0 0 1-.43-.22Z" fill="#fff"/><path d="M9.37 8.71c.02.19 0 .44-.04.77 0 .06-.03.1-.06.13-.04.04-.08.04-.11 0a.42.42 0 0 1-.13-.25c-.02-.26 0-.52.09-.76.01-.04.04-.06.08-.05.1.01.16.07.17.16ZM10.53 10.3l-.04-.04a.11.11 0 0 1-.03-.05.17.17 0 0 1 .04-.16c.06-.06.14-.07.27-.03.09.03.12.1.09.23a.56.56 0 0 1-.13.24c-.12.14-.3.29-.5.45-.17.13-.37.23-.6.31-.31.12-.62.2-.91.24-.24.04-.5 0-.81-.09-.39-.11-.7-.23-.94-.34a1.71 1.71 0 0 1-.36-.22c-.13-.1-.2-.21-.23-.33 0-.04.01-.06.05-.08a.3.3 0 0 1 .11-.03c.04 0 .07.02.11.05.1.1.18.17.26.22a2.5 2.5 0 0 0 .59.28c.27.11.6.17.98.17.24 0 .44 0 .59-.03.25-.04.44-.09.57-.15l.56-.3c.1-.08.2-.18.33-.31v-.03Z" fill="#010102"/><path fill-rule="evenodd" d="M9 14.65a5.65 5.65 0 1 0 0-11.3 5.65 5.65 0 0 0 0 11.3ZM9 15A6 6 0 1 0 9 3a6 6 0 0 0 0 12Z" fill="#010102"/></svg>