<!-- by TradingView --><svg width="18" height="18" viewBox="0 0 18 18" xmlns="http://www.w3.org/2000/svg"><path fill="#2F4B23" d="M0 0h18v18H0z"/><path d="M13.7 5.95c-.03 0-.06 0-.08-.03-.3-.22-.65-.25-1-.28-.18-.02-.36.02-.54.03-.43.02-.85.16-1.23.39a.17.17 0 0 0-.06.06.04.04 0 0 0 0 .05.1.1 0 0 0 .1.03l.14-.05c.33-.14.63-.23.95-.25l.52-.02.39.01a1.74 1.74 0 0 1 .73.24c.04.02.08.02.12 0V6.1l.01-.01a.05.05 0 0 0 0-.03.2.2 0 0 1-.03-.1c.07.05.11.13.14.23l.03.12c.03.12.04.25.06.38l.04.41v.15c-.01.09-.02.18-.06.26l-.12.29c-.03.08-.07.2-.1.36 0 .05-.04.05-.07.07v.02c0 .03-.02.05-.05.07l-.34.24c-.05.04-.06.09-.03.14l.43.68.2.35c.02.05.05.11.05.17v.12a.6.6 0 0 1-.13.2l.02-.26v-.16c0-.06-.05-.09-.1-.05-.2.2-.43.34-.7.44a4.69 4.69 0 0 1-1.45.34l-.35.03h-.59c-.19 0-.39-.02-.57-.06a3.53 3.53 0 0 0-.46-.07l-.89-.2a9.68 9.68 0 0 1-1.97-.67.67.67 0 0 0-.26-.05c-.24 0-.4.18-.44.46-.02.16 0 .3.05.4.03.08.09.17.18.3a6.45 6.45 0 0 0 3.24 2.29c.2.06.4.1.6.12.1 0 .22-.01.32-.05l.4-.15c.18-.06.38-.07.58-.12.12-.03.25-.04.4-.03l.08-.01c.18-.06.37-.05.55-.06.13 0 .26-.01.4-.04a.88.88 0 0 0 .57-.4.7.7 0 0 0 .1-.6c0-.04-.03-.1-.07-.2-.01-.04 0-.06.05-.06a40.46 40.46 0 0 1 .17.4v.1c0 .09-.02.17-.06.24-.05.11-.13.19-.2.28l-.14.22a13.54 13.54 0 0 1-.54.7.51.51 0 0 1-.26.14c-.15.04-.3.1-.44.15l-.49.2a.73.73 0 0 1-.32.05l-.21.02-.24.02a.56.56 0 0 0-.12.04c-.1.04-.2.07-.3.07h-.24l-.15-.01h-.98l-.16-.02a5.32 5.32 0 0 1-1.56-.27l-.4-.18a6.7 6.7 0 0 1-1.46-.95l-.14-.1a25 25 0 0 0-.5-.46l-.16-.12c-.12-.13-.25-.3-.4-.53a.82.82 0 0 1-.14-.46 18.07 18.07 0 0 1 0-.49L4 10.3a39.82 39.82 0 0 0 .02-.59l.02-.38.05-.58c.02-.33.11-.63.26-.91.12-.21.23-.38.37-.56.13-.17.25-.37.35-.56a.77.77 0 0 0 .06-.27 1.74 1.74 0 0 1 .25-.78c.1-.17.21-.36.36-.56.16-.23.38-.44.62-.6.2-.12.42-.25.68-.37.15-.07.31-.12.48-.13.22 0 .42 0 .6.05.17.04.34.13.51.26l.48.36c.04.03.07.04.11.05.08.01.16 0 .23-.05a2.06 2.06 0 0 1 1.18-.33c.1 0 .18.01.26.03.12.04.23.08.33.14l.26.17a257.34 257.34 0 0 1 .96.52c.38.16.75.37 1.1.59a.61.61 0 0 1 .17.14v.01Z" fill="#10140D"/><path d="M9.92 5.9c-.04 0-.08 0-.11-.03 0-.04-.03-.07-.07-.07a20.47 20.47 0 0 1-.85.02c-.23.02-.45.08-.66.17l-.52.24c-.22.1-.43.18-.65.23a.64.64 0 0 0-.17.07c-.07.04-.12.1-.11.2 0 .12.05.2.14.23.17.05.33.16.48.33.2.2.37.44.58.6.13.12.3.22.49.3.34.13.7.2 1.08.18.28 0 .54-.01.8-.1a.26.26 0 0 1 .13 0l.02.02.01.02a.06.06 0 0 1 0 .05c-.04.06-.13.1-.19.12l-.28.12c-.19.06-.39.08-.59.06a3.1 3.1 0 0 1-2.2-1.15c-.02-.02-.04-.03-.07-.02h-.01c-.02.02-.02.04 0 .05.1.17.2.3.33.42.27.26.61.43.94.6.18.08.37.13.55.18.08.02.16.03.26.03.02 0 .04 0 .06.02a.2.2 0 0 0 .12.03l.01.01v.02c0 .04-.06.06-.1.07a3.5 3.5 0 0 1-.97 0 6.78 6.78 0 0 1-.81-.23 1.96 1.96 0 0 1-.26-.12l-.22-.1a.03.03 0 0 0-.03 0l-.01.01v.02c-.01.02 0 .04.01.05.18.19.4.3.62.37a6.6 6.6 0 0 0 1.07.22c.4.04.8-.09 1.17-.26.22-.1.39-.23.57-.37.13-.1.2-.24.26-.41.02-.06.06-.09.11-.05.45.31.8.81 1.1 1.3a.4.4 0 0 0 .1.1h.02l.02-.01v-.05a.87.87 0 0 1-.1-.25c-.01-.08.06-.1.11-.12l.3-.08c.26-.04.48-.06.66-.06.19 0 .35.32.44.49.07.14.08.28-.04.4-.18.17-.4.29-.62.37a5.35 5.35 0 0 1-2.27.3c-.35 0-.7-.02-1.02-.12-.23-.06-.46-.1-.68-.17a12.36 12.36 0 0 1-2.23-.75.52.52 0 0 0-.16-.04c-.22-.02-.42.18-.52.4a.82.82 0 0 0-.1.38c.01.12.05.24.13.37l.22.3a32.11 32.11 0 0 0 .57.63 9.4 9.4 0 0 0 1.51 1.18c.37.23.78.38 1.2.48l.47.12c.16.04.3.04.44-.04.09-.05.2-.07.3-.1l.69-.23c.11-.03.24-.04.37-.04.15 0 .3 0 .43-.04l.18-.04h.18c.05 0 .09.02.11.03.1.05.08.22.03.3a.37.37 0 0 1-.24.19 1.9 1.9 0 0 0-.77.34.38.38 0 0 1-.23.06c-.24 0-.5.05-.74.15a.55.55 0 0 1-.2.05h-.52a.86.86 0 0 0-.23.03c-.04.01-.1 0-.14-.02-.02-.02-.06-.05-.09-.03a9.55 9.55 0 0 1-1.59-.04c-.3-.05-.59-.14-.86-.27a9.87 9.87 0 0 1-1.98-1.27 4.3 4.3 0 0 1-.63-.6 1.44 1.44 0 0 1-.32-.78l-.02-.33c0-.32 0-.65.02-.98.02-.31.06-.64.1-.97.02-.22.07-.41.14-.58.09-.23.22-.45.38-.66.07-.1.16-.21.27-.2.06 0 .12 0 .13-.1l.07-.5c.08-.54.33-1 .66-1.41.34-.43.73-.76 1.22-.84a5 5 0 0 1 .41-.05c.17-.01.34 0 .54.05a3.16 3.16 0 0 1 .95.4c0 .04-.01.06-.05.06-.16.01-.31.03-.47.03l-.27.03-.27.05-.24.02a1.88 1.88 0 0 0-1.1.46 4.9 4.9 0 0 1-.2.17c-.02.01-.02.02-.01.03h.04l.5-.29a2.8 2.8 0 0 1 1.27-.24l.48.03c.4.01.8.09 1.16.26a.05.05 0 0 1 .03.05v.02h-.02l-.3.04-.42.02c-.34.02-.69.07-1.01.17-.16.05-.32.12-.46.2a122.78 122.78 0 0 1-.55.3c.01.03.03.03.05.03.1-.03.2-.05.29-.09l.3-.14a5.13 5.13 0 0 1 1.8-.38c.25 0 .5.05.75.12.12.04.2.11.27.2.02.02.02.04.02.06v.01l-.02.02a.03.03 0 0 1-.03 0 1 1 0 0 0-.25-.07 1.92 1.92 0 0 0-.33-.02c-.03 0-.05.01-.06.05ZM10.6 5.24l.01.01h.02a4.93 4.93 0 0 1 1.32-.05l.36.06c.05 0 .1.03.1.1.01.1-.1.08-.16.1l-.65.16c-.23.05-.44.12-.64.22a.1.1 0 0 1-.1-.01l-.55-.39a3.7 3.7 0 0 0-.71-.4c-.05-.03-.1-.06-.13-.12a.1.1 0 0 1 .05-.12c.19-.1.35-.17.5-.23.3-.1.61-.13.93-.04.13.03.24.1.36.16.04.02.08.03.12.02.01 0 .02 0 .02.02.03.1 0 .15-.08.17-.2.04-.37.11-.55.2l-.2.09c-.03 0-.03.03-.02.05Z" fill="#56883A"/><path d="M13.7 5.95c.02.02.02.03.02.01 0 .04.01.08.03.1v.02a.05.05 0 0 1 0 .03l-.01.02c-.04.02-.08.02-.12 0a1.74 1.74 0 0 0-.73-.23 2.82 2.82 0 0 0-.39-.02l-.52.02c-.32.02-.62.11-.95.25a.79.79 0 0 1-.15.05.1.1 0 0 1-.09-.03v-.05a.17.17 0 0 1 .06-.06c.38-.23.8-.37 1.23-.4.18 0 .36-.04.54-.02.35.03.7.06 1 .28.02.02.05.03.08.03Z" fill="#56883A"/><path d="M9.81 5.87c.03.03.07.04.11.03.38.08.67.31.85.69a1.27 1.27 0 0 1 0 1.1c-.1.21-.25.36-.45.44a2.04 2.04 0 0 1-1.11.1l-.57-.15a2.16 2.16 0 0 1-1.09-.83 1.08 1.08 0 0 0-.49-.4c-.08-.02-.12-.08-.12-.16 0-.07.06-.1.12-.11.16-.01.32-.05.49-.12.08-.03.18-.08.28-.15.19-.11.39-.2.6-.27.27-.09.53-.14.77-.17.19-.02.4-.02.61 0ZM13.43 6.2c.12.06.23.13.31.25.07.11.12.23.13.36.02.26.01.54-.06.77a.51.51 0 0 1-.2.28.84.84 0 0 1-.49.18l-.48-.01a3.23 3.23 0 0 1-1.1-.25c-.17-.07-.39-.22-.45-.4-.04-.08-.04-.19-.05-.29l-.06-.53c-.02-.16.03-.27.16-.33a3.81 3.81 0 0 1 1.62-.2c.24.02.45.07.67.17Z" fill="#FEFEFE"/><path d="M9.8 6.37c.15.1.24.24.27.42.02.16.02.36 0 .52-.05.34-.32.46-.57.52-.15.04-.3.05-.44-.04-.3-.2-.35-.6-.22-.96.1-.29.35-.5.61-.54a.5.5 0 0 1 .35.08ZM13.17 7.2c-.04.13-.09.25-.14.34-.07.13-.17.2-.3.18-.05 0-.1-.04-.14-.03-.1 0-.2 0-.29-.06a.6.6 0 0 1-.26-.45c-.03-.28.1-.6.29-.78.1-.1.28-.12.4-.1.14.04.21.11.3.24.08.11.13.22.17.33.04.11 0 .22-.03.33Z" fill="#10140D"/><path d="M9.61 7.39a.08.08 0 0 1-.06.03.08.08 0 0 1-.07-.03.39.39 0 0 1-.1-.21l.01-.1a.2.2 0 0 1 .04-.09.17.17 0 0 1 .07-.05.18.18 0 0 1 .1 0l.08.03c.03.01.06.04.09.07.02.03.03.05.03.08s0 .05-.02.07l-.17.2ZM12.6 7.1c.05-.09.13-.12.24-.08.06.02.09.06.09.14 0 .18-.23.16-.31.15-.08-.02-.07-.16-.03-.21Z" fill="#FEFEFE"/><path d="M11.4 8.1a.02.02 0 0 0 0 .03c.19.12.38.17.59.23.22.06.44.12.65.2l.03.02.01.02c.02.06-.02.1-.06.1a.7.7 0 0 0-.15.02c-.09.03-.17.05-.26.06-.2.03-.38-.07-.54-.21a5.72 5.72 0 0 1-.67-.72c-.05-.08.02-.18.1-.15l.4.21c.11.06.25.1.37.13l.55.12.24.03c.22.03.45.03.66-.03l.24-.06c.06-.02.08.02.08.09 0 .03-.02.06-.05.07-.22.1-.45.13-.7.1l-.4-.02-.33-.05c-.23-.05-.48-.14-.72-.2l-.04.01Z" fill="#56883A"/><path d="M5.92 9.24a2.84 2.84 0 0 1-.37.54h-.02c-.04-.01-.03-.06-.02-.1a1.81 1.81 0 0 1 .39-.52h.01l.01.01v.07Z" fill="#10140D"/><path d="M13.77 10.22a.2.2 0 0 1-.06.12c-.03.03-.06.04-.08.04a.55.55 0 0 0-.18.04l-.1.04a58.55 58.55 0 0 0-.76.28l-.69.14-.43.08c-.2.04-.4.06-.6.06L9.86 11c-.29 0-.56-.04-.8-.09a12.23 12.23 0 0 1-2.24-.7c-.05-.02-.2-.05-.21.03-.04.12 0 .2.06.3.17.2.36.36.56.51.37.28.75.54 1.14.77a5.32 5.32 0 0 0 2 .63h.98l.31-.03c.26-.04.52-.1.76-.17.17-.05.33-.12.49-.2.13-.08.28-.22.19-.4a9.42 9.42 0 0 0-.67-.74v-.03H12.71c.12-.01.23 0 .33.05.02.01.04 0 .05-.03.13.11.26.25.37.41v.05c-.05 0-.06.02-.05.06.04.1.07.16.07.2a.7.7 0 0 1-.1.6.88.88 0 0 1-.58.4c-.13.03-.26.04-.4.04-.18 0-.36 0-.54.06a.26.26 0 0 1-.09 0c-.14 0-.27.01-.4.04-.2.05-.39.06-.56.12l-.4.15a.77.77 0 0 1-.33.05c-.2-.02-.4-.06-.6-.12a6.45 6.45 0 0 1-3.42-2.58.75.75 0 0 1-.05-.41c.03-.28.2-.46.44-.46.09 0 .18.02.26.05l.56.23c.45.17.93.33 1.41.44a58.35 58.35 0 0 1 1.04.23l.3.04c.2.04.39.06.58.06h.59l.35-.03.7-.1c.23-.06.49-.13.76-.24.26-.1.49-.25.7-.44.04-.04.1-.01.1.05v.16c-.02.08-.02.16-.03.25Z" fill="#945D23"/><path d="M13.63 10.38a.57.57 0 0 1-.13.11l-.3.16a.3.3 0 0 0-.12.1c-.04.06-.04.12.01.16-.01.03-.03.04-.05.03a.73.73 0 0 0-.33-.05H12.42v.06a9.45 9.45 0 0 1 .67.7c.09.2-.06.33-.2.4-.15.1-.31.16-.48.21a5.4 5.4 0 0 1-1.07.2h-.98a5.31 5.31 0 0 1-2-.63c-.39-.23-.77-.49-1.14-.77-.2-.15-.4-.3-.55-.51-.07-.1-.1-.18-.07-.3.02-.08.16-.05.2-.03a3.98 3.98 0 0 1 .64.23 8.8 8.8 0 0 0 2.41.56h1.03c.2 0 .4-.01.6-.05l.42-.08.7-.14.22-.07a59.68 59.68 0 0 1 .81-.29Z" fill="#10140D"/><path d="M9.98 11.84a30.12 30.12 0 0 0-1.11-.53 1.28 1.28 0 0 0-.53-.07c-.07 0-.13.05-.19.08-.14.07-.3.02-.43-.06a7.25 7.25 0 0 1-.95-.71c-.02-.03-.03-.08 0-.1.06-.04.14-.03.2-.02a14 14 0 0 1 1.05.36 8.35 8.35 0 0 0 2.6.39c.18.01.37.03.55.11.1.04.15.1.17.21.02.1.02.23-.04.32a.73.73 0 0 1-.54.28.83.83 0 0 1-.39-.07 8.75 8.75 0 0 1-.38-.2Z" fill="#D52D57"/><path d="M11.36 11.19c.07-.08.2-.1.3-.11l.3-.05c.12-.02.26-.03.36.04.18.14.36.3.5.49.1.12.15.26.01.38-.04.04-.12.06-.18.09a5.02 5.02 0 0 1-1.21.33.72.72 0 0 1-.32 0 .05.05 0 0 1-.04-.02.02.02 0 0 1 0-.03c.14-.11.25-.22.35-.33.05-.06.1-.12.14-.2a.18.18 0 0 0 0-.18 5.32 5.32 0 0 0-.22-.38l.01-.03ZM9.47 11.79l.2.13a25.17 25.17 0 0 1 .39.27c0 .03-.01.06-.04.06l-.24-.03a4.86 4.86 0 0 1-1.5-.6c-.07-.03-.02-.1.03-.11a.76.76 0 0 1 .46-.01c.24.07.47.17.7.29Z" fill="#DCAFC3"/></svg>