<!-- by TradingView --><svg width="18" height="18" viewBox="0 0 18 18" xmlns="http://www.w3.org/2000/svg"><path fill="url(#a)" d="M0 0h18v18H0z"/><path opacity=".6" d="M8.94 6.57v-.02l.01-.01 1.36-.73a.05.05 0 0 1 .05 0 .05.05 0 0 1 .03.04v1.42l.8.44V5.1a.35.35 0 0 0-.05-.2.4.4 0 0 0-.52-.13L8.6 5.87a.9.9 0 0 0-.34.31.85.85 0 0 0-.12.45V9.4l.8-.43v-2.4Z" fill="#00C6A8"/><path d="M12.66 7.02s.02 0 .02.02a.04.04 0 0 1 0 .04l-.02.02-1.33.69.84.43 1.62-.84a.38.38 0 0 0 .15-.13.34.34 0 0 0 0-.37.38.38 0 0 0-.15-.14l-2.1-1.09a1 1 0 0 0-.41-.1v.75l1.38.72ZM6.81 9.73v.4l1.25-.67V6.63c0-.17.03-.34.12-.5a.98.98 0 0 1 .36-.35l1.98-1.09.17-.05-1.08-.6a.37.37 0 0 0-.37 0l-1.97 1.1a.88.88 0 0 0-.46.76v3.83Z" fill="#00C6A8"/><path d="m10.35 7.34-1.3-.69V8l2.69 1.42c.16.09.29.21.38.36.1.15.14.32.14.49v2.15c0 .06-.01.13-.04.18l1.13-.59c.05-.03.1-.08.14-.13a.35.35 0 0 0 .05-.19V9.54c0-.15-.04-.3-.13-.44a.9.9 0 0 0-.34-.32l-.88-.47-1.84-.97Z" fill="#00C6A8"/><path opacity=".6" d="m11.28 10.17.01.01v.01h.01v1.5l-.02.02h-.05L9.87 11l-.82.43 2.5 1.31a.4.4 0 0 0 .52-.14.35.35 0 0 0 .05-.18v-2.15c0-.16-.04-.3-.12-.44a.9.9 0 0 0-.35-.32L9 8.1v.86l2.28 1.2ZM5.02 5.98a.4.4 0 0 0-.51.14.34.34 0 0 0-.05.17v2.17c0 .14.03.28.1.4l.72-.37V7.03l.02-.01a.05.05 0 0 1 .05 0l1.36.69v-.87l-1.69-.86Z" fill="#00C6A8"/><path d="m6.84 5.45-.44-.2a.4.4 0 0 0-.38 0l-1.11.6c.05 0 .11.02.16.05l1.65.83V5.9c0-.16.04-.31.12-.45Z" fill="#00C6A8"/><path opacity=".6" d="m13.85 7.46-1.53.81.8.43a1 1 0 0 1 .35.31l.33-.17a.37.37 0 0 0 .15-.14.35.35 0 0 0 .05-.18V7.34a.5.5 0 0 1-.15.12ZM8.13 13.63c0 .07.02.13.05.19a.4.4 0 0 0 .53.14l1.18-.63.88-.47a.91.91 0 0 0 .32-.27l-.71-.38-1.31.7h-.04L9 12.87V11.48l-.87.45v1.7Z" fill="#00C6A8"/><path d="m4.2 9.8 2.05 1.1a.98.98 0 0 0 .9 0l2.67-1.42L9 9.05l-2.27 1.2h-.04L5.3 9.53l-.02-.02a.05.05 0 0 1 .02-.07l1.4-.74v-.87l-1.36.72-1.15.61a.38.38 0 0 0-.14.14.35.35 0 0 0-.06.18c0 .07.02.13.05.19.04.06.09.1.15.14Z" fill="#00C6A8"/><path opacity=".6" d="m8.97 11.39 2.22-1.18-1.27-.67-2.72 1.43a1.07 1.07 0 0 1-1 0L4.15 9.9A.48.48 0 0 1 4 9.77v1.17c0 .07.02.13.05.19.04.05.09.1.15.13l2.05 1.09a.98.98 0 0 0 .9 0l1.82-.96Z" fill="#00C6A8"/><path d="m8.06 12-.8.43c-.14.07-.3.11-.45.12v.35c0 .07.02.13.05.19.04.06.09.1.15.13l1.09.6a.45.45 0 0 1-.04-.19V12Z" fill="#00C6A8"/><defs><linearGradient id="a" x1="0" y1="1.56" x2="16.97" y2="16.51" gradientUnits="userSpaceOnUse"><stop stop-color="#56238A"/><stop offset=".44" stop-color="#1F3149"/><stop offset="1" stop-color="#192A3C"/></linearGradient></defs></svg>