<!-- by TradingView --><svg width="18" height="18" viewBox="0 0 18 18" xmlns="http://www.w3.org/2000/svg"><path fill="#F0F3FA" d="M0 0h18v18H0z"/><path d="M10.7 6.13a6.15 6.15 0 0 1 1.78-1.04c.25-.08.49-.1.7-.08.28.04.49.22.63.55.1.23.16.52.18.85.03.42 0 .82-.08 1.2-.09.45-.23.82-.44 1.11v.04c.12.37.18.75.2 1.13.01.4-.04.78-.15 1.13-.29.9-1.03 1.49-2.21 1.76-.73.17-1.68.24-2.86.21a6.4 6.4 0 0 1-2.73-.55c-.9-.46-1.36-1.24-1.38-2.32a4.07 4.07 0 0 1 .19-1.4 2.81 2.81 0 0 1-.4-.96A4.72 4.72 0 0 1 4 6.72c0-.57.09-1 .28-1.33.17-.28.43-.4.8-.39.26.02.57.12.92.3a7.37 7.37 0 0 1 1.33.84 5.62 5.62 0 0 1 3.37 0Z" fill="#050708"/><path d="m5.35 5.34-.38.12a.54.54 0 0 0-.3.31c-.05.14-.09.29-.1.44-.08.5-.12 1-.14 1.53a4.02 4.02 0 0 1-.12-1.43c.05-.44.16-.74.34-.92.08-.07.19-.1.33-.1.12-.01.24.01.37.05ZM13.55 7.83h-.02V7.8c-.01-.74-.06-1.32-.15-1.73-.06-.29-.15-.47-.27-.55-.1-.07-.26-.13-.47-.18.13-.05.25-.07.37-.07.14 0 .25.03.32.1.16.13.27.36.32.69.1.6.06 1.18-.1 1.76Z" fill="#D5D5D6"/><path d="M6.5 5.92c.02.24-.06.41-.23.53-.27-.3-.64-.54-1.12-.7-.07-.03-.12-.02-.17.03-.05.05-.06.1-.02.16.03.03.08.07.18.1l.04.01c-.03.23-.03.43 0 .62 0 .07.03.15.09.22l-.03.14c-.1.42-.35.74-.74.96a.74.74 0 0 1-.07-.25c.02-.53.06-1.04.13-1.53.02-.15.06-.3.11-.44a.54.54 0 0 1 .3-.3l.38-.13c.41.13.8.33 1.16.58ZM12.64 5.35c.21.05.37.11.47.18.12.08.21.26.27.55a9.42 9.42 0 0 1 .15 1.74h.02l-.03.1a.63.63 0 0 1-.29-.2 1.5 1.5 0 0 1-.32-.54l-.1-.29v-.12c.1-.11.1-.35.04-.72l.12-.05c.07-.03.1-.08.1-.15 0-.02 0-.04-.02-.05-.05-.06-.1-.08-.18-.05-.44.13-.8.36-1.11.68a.76.76 0 0 1-.15-.3.78.78 0 0 1-.02-.14l-.02-.12c.35-.24.7-.41 1.07-.52Z" fill="#B0AEAF"/><path d="m11.57 5.87.02.12c0 .07 0 .12.02.15.02.1.08.2.15.29l-.1.13h-.03a4.31 4.31 0 0 0-.62-.3l.56-.4ZM6.27 6.45c.17-.12.25-.3.24-.53l.47.33v.02a4.8 4.8 0 0 0-.63.29l-.08-.11Z" fill="#909090"/><path d="M5.34 6.13c0 .27-.02.52-.07.76a.5.5 0 0 1-.1-.22c-.02-.2-.02-.4 0-.62l.17.08ZM12.85 6.05c.07.37.05.61-.05.72a2.1 2.1 0 0 1-.02-.69l.07-.03Z" fill="#F18CA5"/><path d="M12.78 6.08c-.03.23-.02.46.02.69v.12l-.23.4a4.62 4.62 0 0 0-.65-.57c.07-.13.2-.26.37-.38.15-.1.32-.2.49-.26ZM5.48 7.24l-.25-.21.04-.14c.05-.24.07-.5.07-.76.33.14.58.33.76.57v.04c-.22.15-.43.32-.62.5Z" fill="#B97A8C"/><path d="M9.45 6.18c0 .5-.04 1-.13 1.48-.07.33-.15.5-.26.52-.09 0-.17-.1-.24-.33a8.42 8.42 0 0 1-.18-1.67h.8Z" fill="#7F8180"/><path d="M8.64 6.18a8.42 8.42 0 0 0 .18 1.67c.07.23.15.34.24.33.1-.02.2-.19.26-.52.1-.49.13-.98.13-1.48l.34.04c.02.5.1.9.22 1.22.03.06.06.1.11.14.03.02.06.03.1 0 .09-.05.16-.2.21-.45.06-.24.1-.48.12-.73.62.2 1.16.5 1.61.9a3.64 3.64 0 0 1 1.2 2.47l-.14.43c-.06.18-.12.32-.17.42-.34.6-.94 1-1.8 1.2-.25.07-.5.11-.7.14-.95.11-1.91.12-2.9.02a5.33 5.33 0 0 1-1.5-.34A2.22 2.22 0 0 1 4.74 10l-.02-.15a.2.2 0 0 0-.06-.14 3.5 3.5 0 0 1 1.1-2.33c.49-.48 1.1-.82 1.8-1.02 0 .36.07.72.2 1.06.03.06.06.1.1.14a.1.1 0 0 0 .07.02.1.1 0 0 0 .07-.02.4.4 0 0 0 .08-.13c.08-.18.13-.38.17-.6l.07-.63.33-.03Z" fill="#B0AEAF"/><path d="M8.3 6.2c-.01.28-.04.49-.06.63-.04.23-.1.43-.17.6a.4.4 0 0 1-.08.14.1.1 0 0 1-.07.02.1.1 0 0 1-.07-.02.36.36 0 0 1-.1-.14c-.13-.34-.2-.7-.2-1.06.25-.08.5-.13.76-.16ZM10.55 6.4c-.02.25-.06.5-.12.73-.05.25-.12.4-.21.46a.08.08 0 0 1-.1 0 .32.32 0 0 1-.1-.15c-.13-.31-.2-.72-.23-1.22.26.04.52.1.76.18Z" fill="#7F8180"/><path d="M12.8 6.89c.04.1.08.2.1.3.07.18.17.35.33.53.1.1.2.17.3.2l-.2.46h-.01c-.2-.4-.44-.77-.75-1.09l.24-.4ZM5.48 7.24a3.96 3.96 0 0 0-.8 1.15h-.02l-.16-.4c.39-.22.63-.54.73-.96l.25.21Z" fill="#909090"/><path d="M7.95 9.02c0 .2-.08.36-.23.5a.75.75 0 0 1-.53.2.75.75 0 0 1-.54-.2.67.67 0 0 1-.22-.5c0-.2.08-.37.22-.5.15-.15.33-.22.54-.22.2 0 .39.07.53.21.15.14.23.3.23.5ZM11.57 9.02c0 .2-.08.36-.22.5a.75.75 0 0 1-.54.2.75.75 0 0 1-.53-.2.67.67 0 0 1-.23-.5c0-.2.08-.37.23-.5.14-.15.32-.22.53-.22.21 0 .39.07.54.21.14.14.22.3.22.5Z" fill="#050708"/><path d="M7.4 9.55c.15 0 .27-.12.27-.26s-.12-.26-.27-.26c-.15 0-.27.12-.27.26s.12.26.27.26ZM10.61 9.55c.15 0 .28-.12.28-.26s-.13-.26-.28-.26c-.15 0-.27.12-.27.26s.12.26.27.26Z" fill="#fff"/><path d="M13.35 9.77c.04.4 0 .77-.1 1.12-.12.38-.32.7-.6.95-.31.28-.72.49-1.23.63-.4.1-.86.18-1.4.22-.63.04-1.26.04-1.9 0a7.96 7.96 0 0 1-1.27-.15c-.46-.1-.85-.26-1.17-.46-.41-.25-.7-.6-.87-1.03-.15-.39-.2-.83-.16-1.33a.2.2 0 0 1 .07.14v.15c.18.77.66 1.3 1.44 1.63.43.17.93.29 1.5.34.98.1 1.94.1 2.88-.02.22-.03.46-.07.72-.13.85-.21 1.45-.61 1.79-1.2.06-.1.11-.25.17-.43l.13-.43Z" fill="#909090"/><path d="M9.15 11.09c-.02.22.04.33.17.34.13 0 .2-.06.21-.2 0-.06.05-.1.12-.11.08-.01.13.01.16.07.03.06.02.13-.01.22a.48.48 0 0 1-.45.3.51.51 0 0 1-.33-.11H9a.54.54 0 0 1-.43.1.45.45 0 0 1-.33-.25.38.38 0 0 1-.05-.18c0-.07.03-.12.09-.14a.15.15 0 0 1 .16.02c.02.02.04.06.05.11v.04l.06.09c.03.02.07.04.1.04.17 0 .24-.1.21-.35 0-.01 0-.02-.02-.02a.97.97 0 0 1-.48-.27.5.5 0 0 1-.15-.48c.03-.1.08-.2.17-.26a.59.59 0 0 1 .3-.13c.27-.05.52-.04.73.01.14.04.25.1.32.2.08.1.1.22.1.36a.56.56 0 0 1-.23.37c-.11.09-.25.15-.4.2-.03 0-.03 0-.04.03Z" fill="#050708"/><path d="M9.51 10.47c-.07-.1-.14-.15-.22-.16a1.52 1.52 0 0 0-.27-.03c-.11 0-.2 0-.26.02-.1.01-.2.06-.27.15-.01-.13.06-.22.2-.25a1.52 1.52 0 0 1 .47-.03c.1 0 .2.03.26.07.07.05.1.13.1.23Z" fill="#D5D5D6"/><path d="M9.51 10.47c-.01.07-.06.14-.15.2a.84.84 0 0 1-.26.12c-.09.02-.2 0-.31-.04a.64.64 0 0 1-.25-.18.2.2 0 0 1-.05-.12.47.47 0 0 1 .27-.15c.06-.02.15-.02.26-.02.1 0 .2.01.27.03.08.01.15.07.22.16Z" fill="#F18CA5"/></svg>