<!-- by TradingView --><svg width="18" height="18" viewBox="0 0 18 18" xmlns="http://www.w3.org/2000/svg"><path fill="#F0F3FA" d="M0 0h18v18H0z"/><path d="M15 9A6 6 0 1 1 3 9a6 6 0 0 1 12 0Z" fill="#FBBE19"/><path d="m12.1 5.27-.18.09L9.02 7a.07.07 0 0 1-.07 0l-.16-.09a251.76 251.76 0 0 0-2.47-1.35l-.4.43a.02.02 0 0 0 .01.03l.07.04 2.91 1.65a.08.08 0 0 0 .08 0l4.3-2.45a.03.03 0 0 1 .04 0l.39.5v.02l-.18.1L9 8.55a.06.06 0 0 1-.06 0l-3.77-2.2-.12-.06a.01.01 0 0 1 0-.02l.38-.49c.29-.34.6-.62.97-.85.88-.55 1.85-.8 2.9-.76a4.52 4.52 0 0 1 2.8 1.1ZM8.65 9.56V9.2a.03.03 0 0 0-.02-.03L3.96 6.54a.02.02 0 0 0-.02 0l-.28.5v.04c0 .01 0 .02.02.03.01.02.03.03.06.04L8 9.63a.02.02 0 0 1 .01.02v3.63c0 .01 0 .02-.02.02l-.95-.33a.03.03 0 0 1-.03-.03v-3.1a.05.05 0 0 0-.02-.05L4.32 8.23c-.02-.01-.04 0-.05.02a2.8 2.8 0 0 0-.09 1.23c.1.73.32 1.42.7 2.07a4.78 4.78 0 0 0 3.09 2.25c.2.04.41.08.65.1.02 0 .03 0 .03-.03V9.57ZM13.94 9.3a4.1 4.1 0 0 0-.48-2.31h-.01L9.36 9.17a.03.03 0 0 0-.02.03v5.19a.02.02 0 0 0 .01.01h.02c.2-.02.4-.06.6-.07h.01l.01-.02v-4.7a.04.04 0 0 1 .02-.02l3.22-1.74a.02.02 0 0 1 .02 0 .02.02 0 0 1 .02 0 6.25 6.25 0 0 1 .2.55l-.26.13L11 9.85v3.51l.02.01c1-.35 1.54-.88 2.13-1.76.46-.69.73-1.46.79-2.32Z" fill="#6F5920"/></svg>