<!-- by TradingView --><svg width="18" height="18" viewBox="0 0 18 18" xmlns="http://www.w3.org/2000/svg"><path fill="#01E882" d="M0 0h18v18H0z"/><path d="M12 6V5H5.62C4.72 5 4 5.76 4 6.7c0 .93.73 1.8 1.62 1.8H6V13h1V8.5h1v-1H7V6h5Zm0 0h1v5.17c0 .52.34.83.86.83H14v1h-.25c-.97 0-1.75-.8-1.75-1.8V6ZM6 6v1.5h-.38c-.4 0-.72-.38-.72-.8 0-.42.32-.7.72-.7H6Zm1.5 3v2.08c0 1.06.78 1.92 1.75 1.92S11 12.14 11 11.08V9h-1v2.14c0 .55-.26 1-.77 1-.5 0-.73-.45-.73-1V9h-1Z" fill="url(#a)"/><defs><linearGradient id="a" x1="9" y1="5" x2="9" y2="13" gradientUnits="userSpaceOnUse"><stop stop-color="#FF8B9B"/><stop offset=".44" stop-color="#FF26C0"/><stop offset=".66" stop-color="#7655C6"/><stop offset="1" stop-color="#00C7B2"/></linearGradient></defs></svg>