<!-- by TradingView --><svg width="18" height="18" viewBox="0 0 18 18" xmlns="http://www.w3.org/2000/svg"><path fill="url(#a)" d="M0 0h18v18H0z"/><path d="M6.45 4c.78.03 1.19.26 1.42.86.13.33.16.9.13 1.58v2.12c0 .06.16.1.23.12.52.1 1.04.1 1.55 0 .08-.02.22-.07.22-.14V5.64c0-.46.03-.84.3-1.15.28-.32.64-.48 1.07-.49.45-.02.83.12 1.14.41.3.3.46.67.49 1.12 0 .2-.02.48-.08.82-.09.5-.25.95-.5 1.34A3.88 3.88 0 0 1 8.7 9.66a3.78 3.78 0 0 1-2.63-1.29A4.11 4.11 0 0 1 5 5.61c0-.4.13-.77.42-1.1.27-.3.61-.47 1.03-.51Zm-.43 2.09c.09.9.4 1.65.93 2.23 0 .02.02.02.03 0L7 8.29l-.01-2.35c0-.25-.02-.44-.06-.55a.5.5 0 0 0-.28-.34c-.2-.1-.39-.02-.54.21-.1.16-.13.44-.1.84Zm5.01 2.24h.04c.53-.6.83-1.35.92-2.26.03-.4 0-.67-.1-.83-.16-.23-.35-.3-.56-.2a.51.51 0 0 0-.28.34c-.03.12-.05.3-.05.55a268.8 268.8 0 0 0 .03 2.4Zm-.87 4.98c.16.23.38.41.64.55a1.53 1.53 0 0 0 1.94-.62c.16-.27.25-.6.25-.95V8.54c0-.07-.01-.07-.05-.02a11.04 11.04 0 0 1-.77.83c-.08.08-.17.16-.17.25v2.66c0 .37 0 .61-.27.75-.44.21-.73-.05-.73-.52v-1.25a668.04 668.04 0 0 0-.02-.95.08.08 0 0 0-.08 0c-.46.17-1.19.26-1.7.27-.63.04-1.5-.05-2.11-.27l-.07.01c-.02.02-.02.04-.02.06v2.03c-.01.39-.12.71-.47.7-.32-.02-.53-.28-.53-.6V9.67c0-.14-.02-.24-.1-.3l-.08-.06c-.23-.2-.51-.42-.69-.69-.07-.1-.1-.09-.1.04 0 1.16 0 2.4-.02 3.7 0 .65.27 1.13.82 1.44.32.17.62.23.92.18.7-.12 1.07-.54 1.25-1.26v-1.19c0-.05.01-.07.06-.07h1.9c.02 0 .04 0 .04.03v1.09c0 .26 0 .5.16.73Z" fill="#fff"/><defs><linearGradient id="a" x1="0" y1="9" x2="18" y2="9" gradientUnits="userSpaceOnUse"><stop stop-color="#16141F"/><stop offset=".81" stop-color="#2E314C"/></linearGradient></defs></svg>