<!-- by TradingView --><svg width="18" height="18" viewBox="0 0 18 18" xmlns="http://www.w3.org/2000/svg"><path fill="#F0F3FA" d="M0 0h18v18H0z"/><path d="M9.06 14.14a5.14 5.14 0 1 0 0-10.28 5.14 5.14 0 0 0 0 10.28ZM9 13.5a4.5 4.5 0 1 0 0-9 4.5 4.5 0 0 0 0 9Z" fill="url(#any2s42ve)"/><path fill-rule="evenodd" d="M9 14.67A5.76 5.76 0 1 0 9 3.14a5.76 5.76 0 0 0 0 11.53Zm0-.73a4.94 4.94 0 1 0 0-9.88 4.94 4.94 0 0 0 0 9.88Z" fill="url(#bny2s42ve)"/><path fill-rule="evenodd" d="M9 15A6 6 0 1 0 9 3a6 6 0 0 0 0 12Zm0-.35a5.65 5.65 0 1 0 0-11.3 5.65 5.65 0 0 0 0 11.3Z" fill="url(#cny2s42ve)"/><path fill-rule="evenodd" d="M9 15A6 6 0 1 0 9 3a6 6 0 0 0 0 12Zm0-.35a5.65 5.65 0 1 0 0-11.3 5.65 5.65 0 0 0 0 11.3Z" fill="url(#dny2s42ve)"/><circle cx="9" cy="9.09" r="4.59" fill="url(#eny2s42ve)"/><path opacity=".5" d="M4.41 9.21c.52.08 1.38.16 1.98.06.7-.11 1.6-.69 1.97-.96h2.6c.05.12.34.41 1.11.66.57.18 1.13.4 1.5.54l.02-.42a4.59 4.59 0 1 0-9.18.12Z" fill="url(#fny2s42ve)"/><path d="M5.24 8.09a.47.47 0 0 1-.2-.13C5 7.92 5 7.87 5 7.83c0-.35.28-.62.63-.61l5.43.14.22-.01 1.23-.14a.44.44 0 0 1 .22.84l-.75.31a.44.44 0 0 1-.43-.05.44.44 0 0 0-.45-.03l-1.38.7a.2.2 0 0 0-.1.25l.29.68c.19.47.29.98.29 1.49v.39c0 .51-.1 1.1-.6 1.18a2.88 2.88 0 0 1-.92 0c-.65-.08-.88-.75-.88-1.4v-.17c0-.51.1-1.02.31-1.5l.3-.66a.28.28 0 0 0-.16-.37l-1.33-.53a.43.43 0 0 0-.41.05.43.43 0 0 1-.42.04c-.31-.13-.72-.3-.85-.34Z" fill="#BD2B03"/><path d="M11.7 6.5H6.5c-.09 0-.15.06-.15.13l.01.05c.05.08-.05.16-.13.1l-.27-.16a.14.14 0 0 1-.05-.06l-.22-.47A.15.15 0 0 0 5.55 6h-.39c-.08 0-.15.06-.15.14v1.39c0 .05.03.1.1.13l1.07.4c.05.02.1.02.15-.01l.28-.18c.05-.03.1-.03.16 0l1.57.7c.05.02.08.07.08.12v.33c0 .04-.01.07-.04.1l-.55.5c-.02.03-.03.08-.03.12v2.48c.01.16.31.47 1.28.47.81 0 1.07-.3 1.12-.45v-2.5c0-.08-.06-.13-.1-.2l-.26-.33c-.05-.06-.12-.12-.12-.2V8.7c0-.06.04-.1.09-.13l1.5-.7c.04-.02.1-.02.15 0l.3.19c.05.03.1.03.16 0l1-.47a.14.14 0 0 0 .08-.13v-1.3c0-.09-.07-.15-.15-.15h-.32c-.05 0-.1.03-.13.07l-.36.53a.67.67 0 0 1-.18.16c-.08.06-.15-.03-.08-.1a.09.09 0 0 0 0-.13.1.1 0 0 0-.08-.03Z" fill="url(#gny2s42ve)"/><path d="M11.42 6.65H6.67c.04.09.22.35.12.44a1 1 0 0 1-.38 0c-.1-.03-.41-.23-.56-.32l-.4-.5H5.2V7.5l1.11.38.4-.32 1.86.9v.73L8 9.73v2.49c.05.1.4.28 1.03.28.64 0 .88-.19.97-.28v-2.5l-.45-.54v-.74l1.87-.89.39.32.95-.52V6.28h-.2l-.5.49c-.14.1-.47.3-.58.32-.15.03-.22-.05-.22-.1 0-.04.1-.26.16-.34Z" fill="url(#hny2s42ve)"/><defs><linearGradient id="any2s42ve" x1="13.05" y1="6.69" x2="5.21" y2="11.45" gradientUnits="userSpaceOnUse"><stop offset=".22" stop-color="#5BBFEA"/><stop offset=".37" stop-color="#393869"/><stop offset="1" stop-color="#3B75B9"/></linearGradient><linearGradient id="bny2s42ve" x1="11.61" y1="4.06" x2="5.97" y2="13.51" gradientUnits="userSpaceOnUse"><stop stop-color="#FFD33F"/><stop offset=".43" stop-color="#FFA322"/><stop offset="1" stop-color="#FFE63B"/></linearGradient><linearGradient id="cny2s42ve" x1="12.93" y1="4.4" x2="6.13" y2="14.28" gradientUnits="userSpaceOnUse"><stop offset=".02" stop-color="#FAF87B"/><stop offset=".46" stop-color="#B73D0F"/><stop offset="1" stop-color="#BE7A1F"/></linearGradient><linearGradient id="dny2s42ve" x1="14.14" y1="11.8" x2="5.99" y2="6.24" gradientUnits="userSpaceOnUse"><stop offset=".02" stop-color="#FAF87B"/><stop offset=".64" stop-color="#BE7A1F" stop-opacity="0"/></linearGradient><linearGradient id="eny2s42ve" x1="12.64" y1="6.02" x2="7.3" y2="13.13" gradientUnits="userSpaceOnUse"><stop offset=".18" stop-color="#4397DA"/><stop offset=".48" stop-color="#3C42AD"/><stop offset=".86" stop-color="#489BDA"/></linearGradient><linearGradient id="fny2s42ve" x1="7.73" y1="8.38" x2="7.7" y2="5.21" gradientUnits="userSpaceOnUse"><stop stop-color="#9DD6FF"/><stop offset="1" stop-color="#9DD6FF" stop-opacity="0"/></linearGradient><linearGradient id="gny2s42ve" x1="5.41" y1="6.51" x2="10.16" y2="12.14" gradientUnits="userSpaceOnUse"><stop stop-color="#E0511A"/><stop offset=".69" stop-color="#F25F0E"/><stop offset=".87" stop-color="#EBAC4E"/><stop offset="1" stop-color="#FBF8DE"/></linearGradient><linearGradient id="hny2s42ve" x1="9.02" y1="6.22" x2="9.02" y2="12.5" gradientUnits="userSpaceOnUse"><stop offset=".68" stop-color="#FFFBDD"/><stop offset=".77" stop-color="#FFFEED"/></linearGradient></defs></svg>