<!-- by TradingView --><svg xmlns="http://www.w3.org/2000/svg" width="18" height="18" viewBox="0 0 18 18"><path fill="url(#aisqr32ef)" d="M0 0h18v18H0z"/><path d="M9.97 3.97a.97.97 0 1 1-1.93 0 .97.97 0 0 1 1.93 0zm-.97.7a.7.7 0 1 0 0-1.4.7.7 0 0 0 0 1.4z" fill="#fff"/><path d="M7.74 4.77s.63-.3 1.26-.54c.63.24 1.27.54 1.27.54v.58s-.53.42-1.27.87c-.74-.45-1.26-.87-1.26-.87v-.58z" fill="#ED202E"/><path d="M9 4.1l.04.01a18.53 18.53 0 0 1 1.25.53h.03v.01l-.05.12.05-.12.08.04v.72l-.05.04-.08-.1.08.1a2.66 2.66 0 0 1-.1.08 10.85 10.85 0 0 1-1.18.8L9 6.37l-.07-.04a12.8 12.8 0 0 1-1.27-.87l.08-.11-.09.1-.05-.04V4.7l.08-.04.06.12-.06-.12a8.7 8.7 0 0 1 .4-.18l.86-.36L9 4.1zm-1.13.76v.42a7.05 7.05 0 0 0 .3.23c.2.15.5.35.83.55a12.59 12.59 0 0 0 1.13-.78v-.42l-.03-.02A20.58 20.58 0 0 0 9 4.38a17.15 17.15 0 0 0-1.13.48z" fill="#fff"/><path d="M5.7 6.39L4.55 5.3c.24-.31.56-.66 1.04-.98l.96 1.2c.06.09.19.24.21.37.06.25 0 .52.1.77l5.95 6.24c.05.06.05.16 0 .21a.15.15 0 0 1-.22 0L6.73 6.78c-.23-.08-.5-.14-.68-.17-.15-.02-.32-.18-.36-.22z" fill="#EC2434"/><path d="M4.2 5.33l.15-.19c.25-.33.6-.7 1.1-1.04l.21-.14 1.1 1.4h.01l.13.18c.05.07.1.18.13.28a1.87 1.87 0 0 1 .04.44c0 .11.01.19.03.26l5.9 6.2c.17.16.16.42 0 .58a.42.42 0 0 1-.6-.01L6.58 7c-.2-.07-.41-.12-.57-.14a.79.79 0 0 1-.34-.15 1.48 1.48 0 0 1-.17-.14L4.2 5.33zM5.7 6.4c.03.04.2.2.35.22a3.58 3.58 0 0 1 .68.17l5.87 6.33c.05.06.15.06.21 0a.15.15 0 0 0 0-.2L6.87 6.65a1.85 1.85 0 0 1-.06-.43c0-.12 0-.23-.03-.35-.02-.12-.15-.28-.2-.35h-.01L5.6 4.31c-.48.32-.8.67-1.04.98L5.7 6.4z" fill="#fff"/><path d="M11.4 5.56l.98-1.23c.34.2.72.5 1.08.94l-1.11 1.06c-.07.07-.22.21-.34.25-.24.09-.52.05-.76.16l-5.83 6.34a.15.15 0 0 1-.2.02.15.15 0 0 1-.02-.22l5.9-6.25c.07-.24.1-.5.12-.7 0-.15.15-.33.18-.37z" fill="#EC2434"/><path d="M12.32 3.99l.2.12c.36.21.76.52 1.15 1l.15.18-1.29 1.24-.17.15a.93.93 0 0 1-.26.15 1.9 1.9 0 0 1-.44.08l-.26.05-5.78 6.3a.42.42 0 0 1-.58.04.41.41 0 0 1-.04-.6l5.87-6.2c.05-.2.07-.43.08-.58 0-.14.07-.27.12-.35.05-.09.1-.15.13-.18l1.12-1.4zm-.92 1.57c-.03.04-.18.22-.18.37a3.13 3.13 0 0 1-.1.7l-5.92 6.25a.15.15 0 0 0 .01.22c.06.05.15.04.2-.02l5.84-6.34a.78.78 0 0 1 .12-.04c.1-.03.2-.04.3-.05.12-.02.23-.03.34-.07.12-.04.27-.18.34-.24l1.11-1.07a4.12 4.12 0 0 0-1.08-.94l-.98 1.23z" fill="#fff"/><path d="M12.35 8.9a3.36 3.36 0 1 1-6.72 0 3.36 3.36 0 0 1 6.72 0z" fill="#fff"/><path d="M10.46 7.58c-.33.08-.68.28-.81.37V7.8c.31-.2.67-.33.8-.37v.16zM10.51 8.28a2 2 0 0 0-.9.41v-.17c.38-.27.75-.37.88-.38l.02.14zM9.65 9.6v-.1c-.54 0-1.02.28-1.22.45 0 0 .01.11.03.16.27-.21.49-.32.58-.35v.1c.14-.1.46-.23.6-.26zM9.64 9.35v-.13a1.9 1.9 0 0 0-1.31.4l.04.17c.62-.47.97-.46 1.27-.44zM9.61 8.89c-.57-.1-1.14.21-1.39.38 0 .03.04.2.06.19.65-.43.9-.42 1.33-.42v-.15z" fill="#222"/><path d="M9.62 8.5c-.58-.12-1.23.22-1.5.42l.05.19c.74-.46 1.15-.47 1.45-.42V8.5zM9.65 8.17a1.01 1.01 0 0 0-.61 0v.16c.27-.08.52-.03.6 0v-.16z" fill="#222"/><path fill-rule="evenodd" d="M9 10.93a2.03 2.03 0 1 0 .01-4.06 2.03 2.03 0 0 0 0 4.06zm0 .72a2.75 2.75 0 1 0 .01-5.5 2.75 2.75 0 0 0 0 5.5z"/><path d="M7.41 8v-.5l.35.33L7.4 8zM7.71 8.57l.22.69.2.08-.24-.7-.18-.07zM8.25 10.31l-.22-.73.2.08.26.74-.24-.09zM8.35 10.64l.08.25.25.08-.08-.24-.25-.1z" fill="#222"/><path d="M7.61 8.24l.17.07-.17-.5-.1.1.1.33zM9.65 7.55c-.23-.26-.7-.13-.7-.13v.2c.14-.05.47-.11.7.1v-.17zM9.65 7.85c-.3-.2-.57-.1-.67-.01l.01.14c.23-.17.53-.09.66-.03v-.1zM10.6 8.65c-.37.04-.81.33-.99.47v-.23c.3-.24.71-.38.95-.43 0 .06.03.15.04.2zM10.47 7.96c-.3.05-.67.27-.82.37v-.16c.23-.2.64-.37.82-.43a.98.98 0 0 0 0 .22z" fill="#222"/><path d="M7.73 7.96a3.7 3.7 0 0 1 1.3-.55c.03.45.03.9.03.9-.2.05-.67.21-1 .44l-.33-.79zm.72.5a.36.36 0 1 0 0-.73.36.36 0 0 0 0 .72z" fill="#E7212E"/><path d="M8.46 8.27c-.02.07.01.08.04.07.11-.07.2-.33.23-.44H8.5v-.03c-.02-.01-.06-.02-.08.02-.01.03-.04.04-.05.04-.02 0 0-.04-.03-.04-.04 0-.05.04-.04.05-.1.02-.05.08-.08.09a.17.17 0 0 0-.06.04c-.02.05.04.08.08.03.04-.04.06 0 .08.04.01.03.05.02.05.02.02.08.07.1.09.11z" fill="#1D2217"/><path d="M8.24 12.74c.46-.17.7-.79.74-1.12.05.33.29.95.74 1.12.45.14 1.3-.22 1.74-.58.33-.26.66-.64.87-1.17-.06-.03-.23-.12-.37-.16.29-.14.82-.47 1.25-1.13.04.26.25 1.05-.17 1.96a1.33 1.33 0 0 1-.2-.38c-.55.98-1.44 2.1-2.97 2.4-.38.07-.86.73-.89.79-.03-.06-.5-.72-.88-.79-1.53-.3-2.43-1.42-2.98-2.4-.04.16-.15.32-.2.38-.42-.9-.2-1.74-.17-1.96.44.66.97.99 1.26 1.13-.15.04-.31.13-.37.16.2.53.53.9.86 1.17.45.36 1.3.72 1.74.58z" fill="#EC2131"/><path fill-rule="evenodd" d="M5.7 10.96l-.05.02-.01.01c.2.52.53.9.86 1.17.45.36 1.3.72 1.74.58.28-.1.48-.37.6-.64.22-.5.06-.5.29 0 .12.27.32.54.6.64.44.14 1.29-.22 1.73-.58.33-.27.66-.65.87-1.17h-.02l-.04-.03c-.08-.04-.2-.1-.31-.13a3.04 3.04 0 0 0 1.03-.83l.22-.3.02.1.04.27a2.93 2.93 0 0 1-.23 1.6 1.58 1.58 0 0 1-.2-.39c-.05.1-.1.2-.17.3a4.28 4.28 0 0 1-2.8 2.1c-.25.05-.54.35-.72.56l-.17.23c0-.02-.07-.11-.17-.23-.17-.21-.46-.51-.71-.56a4.28 4.28 0 0 1-2.8-2.1l-.18-.3a1.35 1.35 0 0 1-.2.38l-.12-.3a3 3 0 0 1-.06-1.6l.01-.06a3.53 3.53 0 0 0 1.26 1.13c-.11.03-.24.09-.32.13zm.29.16a2.63 2.63 0 0 0 1.47 1.27c.3.1.56.14.7.1a.8.8 0 0 0 .37-.38c.06-.1.1-.22.14-.32 0 .02.63.02.63.02.03.1.07.2.13.3.1.19.24.32.38.38.14.04.39 0 .7-.1a2.63 2.63 0 0 0 1.48-1.27.77.77 0 0 0-.1-.03l-.49-.18.44-.32c.26-.13.75-.43 1.15-1.03l.38-.58.1.68.02.1c.06.32.2 1.12-.2 2.01l-.2.41-.26-.36a4.48 4.48 0 0 1-2.91 2.12c-.04 0-.1.04-.19.1l-.24.22-.2.23-.07.1-.24.41-.23-.4-.08-.1a3.27 3.27 0 0 0-.44-.46.51.51 0 0 0-.18-.1 4.48 4.48 0 0 1-2.91-2.12l-.27.36-.19-.4c-.42-.93-.26-1.78-.2-2.06v-.06L4.6 9l.37.56c.4.6.9.9 1.16 1.03l.44.32-.5.18a.76.76 0 0 0-.08.03z" fill="#fff"/><path d="M5.24 11c-.14 0-.22.15-.25.2l-.01.01c.16-.36.1-.54.02-.77l-.05-.14c.18.46.52.5.68.5-.2 0-.3.08-.34.14a3.88 3.88 0 0 0 3.28 2.41v.08A3.95 3.95 0 0 1 5.23 11zM12.75 11c.13 0 .22.15.25.2v.01c-.15-.36-.1-.54-.01-.77l.04-.14a.7.7 0 0 1-.67.5c.2 0 .3.08.33.14a3.88 3.88 0 0 1-3.41 2.38v.08c1.32 0 2.8-.88 3.47-2.4z" fill="#fff"/><path d="M8.98 13.92v-1.17c-.1.37-.36.57-.48.64.27.13.42.36.48.53z" fill="#fff"/><path d="M9.7 3.97a.7.7 0 1 1-1.4 0 .7.7 0 0 1 1.4 0zm-.7.32a.32.32 0 1 0 0-.65.32.32 0 0 0 0 .65z" fill="#E21B30"/><path d="M9 4.1a.13.13 0 1 1 0-.27.13.13 0 0 1 0 .27zm.32-.13a.32.32 0 1 0-.64 0 .32.32 0 0 0 .64 0z" fill="#fff"/><defs><linearGradient id="aisqr32ef" x1="3.35" y1="3.12" x2="21.9" y2="24.43" gradientUnits="userSpaceOnUse"><stop stop-color="#1A1E21"/><stop offset="1" stop-color="#06060A"/></linearGradient></defs></svg>