<!-- by TradingView --><svg width="18" height="18" viewBox="0 0 18 18" xmlns="http://www.w3.org/2000/svg"><path fill="#181B1E" d="M0 0h18v18H0z"/><path d="M8.88 6.26a.11.11 0 0 1-.08-.04c-.04-.12-.02-.26.06-.42a.07.07 0 0 1 .07-.04h.23c.02 0 .04.01.05.03.03.05.05.11.06.2 0 .07-.01.13-.06.18-.09.1-.2.13-.33.1Z" fill="#DFFCE0"/><path d="M10 6.6a3.47 3.47 0 0 0-.82-.17L8.15 6.4c.14-.04.28-.06.42-.06l.13-.02c.08-.03.12-.06.1-.1.02.02.05.03.08.03a.22.22 0 0 0-.05.09c0 .03 0 .04.04.04.21 0 .64-.05.83.07a.07.07 0 0 0 .07 0 .08.08 0 0 0 .04-.06l.03-.29a.03.03 0 0 1 0-.02.02.02 0 0 1 .03 0l.02.01c.02.01.02.02.01.04-.1.18-.06.34.1.46Z" fill="#897A1C"/><path d="M11.35 6.43c0 .05-.01.1-.04.13a.08.08 0 0 0-.01.07c.1.35.02.64-.22.87l-.2.02-.06-.12a.08.08 0 0 0-.05-.04l-.1-.03a.06.06 0 0 1-.05-.05l-.07-.46c.03-.23.12-.38.27-.46a.1.1 0 0 1 .08 0c.08.02.17.02.25-.01h.07l.13.08Z" fill="#EFE139"/><path d="M11.5 7.25c-.09.09-.12.17-.1.27h-.05c0-.04-.05-.03-.16.03-.02-.02-.05-.04-.11-.05.24-.23.31-.52.22-.87a.08.08 0 0 1 .01-.07.2.2 0 0 0 .04-.13l.06.01c.02 0 .03.02.04.04 0 .08.02.15.03.22l.03.21c0 .11 0 .22-.02.34Z" fill="#92521E"/><path d="M10.47 7.03c0 .1.03.19.08.26.04.06.02.08-.05.07-.06 0-.09-.08-.07-.2-.2-.06-.4-.08-.58-.05-.08.01-.08.03 0 .05l.2.03c.07 0 .12.03.12.06.03.14-.01.17-.12.08l-.09-.09c-.02-.02-.04-.02-.06 0l-.07.11a.07.07 0 0 1-.08.03 2.73 2.73 0 0 0-.71-.01c-.07 0-.1-.05-.1-.17a.04.04 0 0 0-.03-.04c-.16-.07-.31-.07-.44 0a.09.09 0 0 0-.05.06.23.23 0 0 1-.08.13.09.09 0 0 1-.07.02c-.2-.04-.36-.02-.47.04 0-.02.02-.04.04-.06.02 0 .03-.03.02-.05v-.03c0-.03-.01-.05-.04-.07l-.16-.1c-.07-.1-.14-.13-.23-.13-.13.02-.2.14-.3.2a.08.08 0 0 0-.05.05l-.1.52c-.13-.15-.17-.28-.12-.4l.16-.24a.12.12 0 0 1 .06-.04c.08-.04.1-.1.18-.15.25-.13.45-.26.59-.25l.05-.01c.12-.05.26-.08.43-.1.76-.08 1.48.07 2.14.48Z" fill="#D4E6CD"/><path d="m10.55 6.82.07.46a.06.06 0 0 0 .05.05l.1.03c.02 0 .04.02.05.04l.06.12c-.05-.01-.09-.05-.12-.11a.05.05 0 0 0-.05-.03h-.26a.05.05 0 0 1-.05-.03c-.02-.05-.01-.1.03-.19-.02.12 0 .2.07.2.07.01.09-.01.05-.07a.51.51 0 0 1-.08-.26c.01-.07 0-.13-.01-.18a.08.08 0 0 0-.05-.05.6.6 0 0 1-.21-.13c-.06-.05-.13-.05-.2-.07.07-.02.12-.02.15 0 .15.11.28.18.4.22Z" fill="#897A1C"/><path d="m12.22 6.91.05.59c0 .03-.02.06-.05.06l-.1.02c-.05 0-.07-.01-.06-.05v-.1a.04.04 0 0 0-.01-.03.04.04 0 0 0-.04 0 .15.15 0 0 0-.07.04c-.02.02-.04.02-.06 0-.03-.03-.04-.07-.02-.14.01-.05.06-.06.14-.03.02.01.04 0 .05-.02a.6.6 0 0 0 0-.26c0-.03 0-.05.03-.07.03-.03.08-.03.14 0Z" fill="#83CF97"/><path d="M7.66 7.1v.6c-.1.03-.16 0-.2-.1 0-.03-.02-.03-.03 0-.06.1-.08.2-.15.3l-.15.12c-.11-.1-.17-.2-.16-.28l.1-.52a.08.08 0 0 1 .05-.06c.12-.05.18-.17.3-.19.1 0 .17.04.24.12Z" fill="#7D7778"/><path d="M7.8 7.41c0 .09.05.16.13.22-.07 0-.08.05-.04.15a.1.1 0 0 0 .05.06c.1.05.14.02.13-.07l.08.05.05.07.06.06h.06l.47-.01c.07.27.16.5.19.78a3.95 3.95 0 0 1-.36-.08c-.06-.02-.1 0-.13.03 0 .02-.02.03-.05.02a.72.72 0 0 0-.37 0l-.5-.04.24-.02c.03 0 .04-.01.05-.04.04-.13.06-.24.05-.34a.2.2 0 0 0-.14-.18.2.2 0 0 0-.08 0l-.21.02c.12-.07.18-.2.18-.4v-.6l.16.11c.03.02.04.04.03.07v.03c.02.02 0 .04-.01.05-.02.02-.04.04-.04.06Z" fill="#A89194"/><path d="M11.5 7.25c.05 0 .08.03.06.1a.03.03 0 0 0 .03.04h.01c.1-.03.16-.03.2 0l.03.12-.03.12a.2.2 0 0 1-.12.01.08.08 0 0 1-.05-.04c-.04-.09-.12-.12-.23-.08-.02-.1.01-.18.1-.27Z" fill="#F5A7A8"/><path d="M11.35 7.52a.83.83 0 0 0-.04.33c0 .02 0 .03.02.03h.03v.06l-.06.07c-.01.03-.04.03-.06.01l-.1-.06a.06.06 0 0 1-.02-.07l.07-.34c.11-.06.17-.07.16-.03Z" fill="#54B069"/><path d="m11.8 7.63.03-.12c.16-.01.22.05.2.18a.08.08 0 0 1-.06.05c-.03.01-.06 0-.08-.04-.03-.04-.06-.06-.09-.07Z" fill="#C2BEBB"/><path d="M7.66 7.7c0 .19-.06.32-.18.39-.11-.01-.18 0-.2.07a.6.6 0 0 1-.15-.14l.15-.13c.07-.08.09-.2.15-.3.01-.02.03-.02.04 0 .03.1.09.14.19.1Z" fill="#792F26"/><path d="M9.7 7.94h-.22c-.11-.04-.16-.14-.17-.28l-.01-.04c-.01-.02-.03-.02-.05 0 .04-.03.07-.04.1-.02a.8.8 0 0 1 .35.34Z" fill="#A2808B"/><path d="M9.25 7.61h.05l.01.05c0 .14.06.24.17.28 0 .13.04.24.13.33.01.02.01.04-.01.05-.22.11-.3.26-.27.42h-.18a.15.15 0 0 0-.1 0l-.07-.02c-.03-.28-.12-.51-.19-.78.11.01.2-.01.24-.07.1-.13.17-.22.22-.26Z" fill="#C2BEBB"/><path d="m11.43 8.04.1-.01h.03c.03.02.07.02.12.02.2.14.2.38 0 .72a.1.1 0 0 0 0 .07l.06.35c.06.23 0 .48-.21.76a.11.11 0 0 0-.03.07c0 .12-.03.22-.11.3a.16.16 0 0 0-.04.07c-.12.37-.4.45-.85.26.18.05.32.06.44.01a.54.54 0 0 0 .22-.15.06.06 0 0 0 .01-.04v-.11c.05 0 .08-.02.08-.06 0-.03-.02-.05-.05-.04h-.04c-.04.01-.05 0-.03-.04l.03-.14c0-.03 0-.04.03-.05h.07a.03.03 0 0 1 .01.02l-.03.1c0 .03 0 .05.03.06h.05l.01-.01a.29.29 0 0 0 .04-.2l.01-.07c.03-.04.09-.13.16-.28.06-.1.08-.2.07-.3a.87.87 0 0 0-.1-.36c-.06-.04-.07-.1-.03-.2a.97.97 0 0 0 .06-.18.92.92 0 0 1 .1-.26c.09-.04.08-.08-.02-.12h-.02l-.78-.02c-.05 0-.07.03-.07.08l-.08-.06c0-.08 0-.13-.03-.17-.02-.02-.04-.02-.05 0a.35.35 0 0 0 .01.36c.02.04.02.07.01.09-.01.02-.03.03-.06.02-.1-.03-.18 0-.21.1a.15.15 0 0 1-.1.02c.12-.19.16-.42.12-.72.02.02.04.03.06.02.02 0 .03-.02.03-.05v-.05a.05.05 0 0 1 .02-.05l.3-.18a.04.04 0 0 1 .04.01c.1.13.03.34.06.46 0 .03.02.04.05.03a.99.99 0 0 1 .44-.01c.05 0 .07-.02.07-.07Z" fill="#A6A330"/><path d="m12.1 7.99-.02.09c0 .02-.03.04-.05.04h-.06c-.03-.01-.04-.03-.02-.06l.04-.02c.03-.01.03-.03.02-.05l-.02-.03a.04.04 0 0 0-.02-.02.04.04 0 0 0-.04 0 .32.32 0 0 0-.06.1.06.06 0 0 1-.06.02c-.05 0-.08-.04-.1-.1-.03-.09-.06-.09-.08-.01l.05.1c-.05 0-.09 0-.12-.02h-.04l-.09.01-.07-.1v-.05c.01-.06.04-.1.09-.13.03-.03.05-.02.05.02v.14c.01.02.03.03.04.02.01 0 .02 0 .03-.02l.03-.13c0-.03 0-.04.03-.04.06 0 .1 0 .13.02a.08.08 0 0 1 .05.05c0 .02.02.04.03.05l.07-.01a.4.4 0 0 1 .35-.1c.03 0 .05.01.06.03l.11.2v.03a.04.04 0 0 1-.02.03c-.14.03-.21 0-.21-.12a.04.04 0 0 0-.03-.03h-.03l-.02.02a.38.38 0 0 0-.02.07Z" fill="#BCF4F1"/><path d="M10.36 7.93c.04.3 0 .53-.11.72h-.31c-.1 0-.2.02-.3.04l-.31.05c-.04-.16.05-.3.27-.42.02-.01.02-.03 0-.05a.45.45 0 0 1-.12-.33h.88Z" fill="#DFFCE0"/><path d="m7.56 8.65-.18-.02a.1.1 0 0 1-.08-.07.1.1 0 0 1 0-.04.8.8 0 0 0-.02-.36c.02-.06.09-.08.2-.07l.21-.03a.2.2 0 0 1 .2.11.2.2 0 0 1 .02.08c0 .1-.01.2-.05.34 0 .03-.02.04-.05.04l-.25.02Z" fill="#C2BEBB"/><path d="M11.64 8.35a42.72 42.72 0 0 1-.86-.04.18.18 0 0 1-.03-.02c0-.05.02-.08.07-.08a103.3 103.3 0 0 0 .8.02c.1.04.11.08.02.12Z" fill="#F2EED3"/><path d="m10.75 8.29.03.02.04.02.82.02a.92.92 0 0 0-.1.26.97.97 0 0 1-.06.18c-.04.1-.03.16.03.2-.11.05-.16.1-.15.16l-.03-.08c-.01-.02-.03-.03-.05-.02-.14.08-.28.2-.4.38-.04.05-.1.07-.17.05.26-.26.5-.56.72-.9.01-.01 0-.03-.04-.06a.05.05 0 0 0-.05-.01.26.26 0 0 0-.13.09l-.58.82c-.02.02-.02.04.01.05h.07c-.04.02-.07.03-.1.02-.02-.01-.03-.03-.02-.05.01-.07 0-.11-.07-.12-.03 0-.03-.03-.02-.05.01-.03.02-.05.01-.08 0-.02-.04-.03-.09-.03a.8.8 0 0 0-.2.03.07.07 0 0 0-.05.05c-.02.07-.02.14.01.19.02.02.02.04.01.06a.33.33 0 0 0-.02.13l-.02-.55c0-.03.01-.04.04-.05h.06c.02.02.04.02.07 0a.3.3 0 0 1 .14-.02c.03 0 .05-.01.07-.03.03-.04.04-.1.02-.17a.02.02 0 0 0-.02 0 .02.02 0 0 0-.01 0c0 .02-.01.03-.03.02V8.6c0-.03 0-.05-.04-.04-.03 0-.07.03-.11.07.03-.1.1-.13.21-.1.03.01.05 0 .06-.02v-.09c.04-.04.06-.1.06-.19l.08.06Z" fill="#7F6654"/><path d="M7.13 8.79a.98.98 0 0 1-.46-.31c-.06-.07-.16-.1-.31-.08.39-.1.64.03.77.39Z" fill="#CB8023"/><path d="M6.36 8.4c.15-.01.25.01.31.08.14.15.29.25.46.3l.02.1v.07c0 .05-.02.07-.05.08-.02 0-.04 0-.05.03 0 .02 0 .04.02.07a.07.07 0 0 0-.04.04c-.1-.01-.16.02-.2.1l-.03.05-.37.3a.6.6 0 0 1-.44.13.13.13 0 0 1-.07-.03c-.07-.05-.18-.1-.32-.14-.03-.58.22-.97.76-1.18Z" fill="#EFE139"/><path d="m10.71 9.48-.07-.01c-.03-.01-.03-.03-.01-.05l.58-.82a.26.26 0 0 1 .13-.1c.02 0 .04 0 .05.02.04.03.05.05.04.06-.22.34-.46.64-.72.9Z" fill="#FCFCFB"/><path d="m8.98 8.72.07.02c-.04.05-.06.09-.05.12.01.03.03.04.05.05.14 0 .25.05.33.14 0 .11-.07.1-.2-.05-.03-.04-.08 0-.16.12-.11.06-.2.08-.27.08a.3.3 0 0 1-.18-.11.07.07 0 0 1-.01-.07c.03-.1.04-.17 0-.21a1.65 1.65 0 0 0-.34-.03.53.53 0 0 0-.37.1.11.11 0 0 1-.07.04l-.64.03.01-.07c.01.04.04.06.07.06l.3-.02c.12 0 .21-.02.28-.05.1-.05.19-.11.27-.18a.72.72 0 0 1 .37 0c.03.01.04 0 .05-.02.03-.04.07-.05.13-.03l.36.08Z" fill="#792F26"/><path d="M9.15 8.74c.02.06.08.09.17.07a.1.1 0 0 1 .07.01c.06.03.18.1.28.1.13-.01.3 0 .52.04l.07-.01a.12.12 0 0 1 .13-.01h.06c.03-.03.04-.07.04-.12.02 0 .02 0 .03-.02a.02.02 0 0 1 .03 0c.02.08.01.13-.02.17a.09.09 0 0 1-.07.03.3.3 0 0 0-.14.03.07.07 0 0 1-.07 0 .09.09 0 0 0-.06 0c-.03 0-.04.01-.04.04l.02.55.13.3a.14.14 0 0 0 .15.08l.37-.06c.04.04.1.08.2.12.02.01.03.03.02.06l-.04.11c0 .03 0 .05.02.07a.3.3 0 0 0 .15.06v.06a.58.58 0 0 1-.33.05h.05c.03 0 .04-.02.03-.05 0-.03-.02-.04-.05-.05a.33.33 0 0 1-.28-.2c0-.03-.02-.04-.04-.01a.11.11 0 0 0-.02.09l-.01-.08c0-.03-.02-.04-.05-.05-.03 0-.05.01-.06.04-.3-.25-.45-.57-.42-.96a.14.14 0 0 0-.07-.14.14.14 0 0 0-.06-.01l-.33-.03c-.02 0-.03.01-.03.03v.03l-.01.01a.05.05 0 0 0-.03.05c0 .12 0 .23.05.34l.07.24c.02.08.02.17.02.24 0 .07.01.07.05.02l.07-.1c-.07.2-.13.3-.2.28 0-.25-.02-.45-.05-.6a5.28 5.28 0 0 1-.09-.5.47.47 0 0 0-.33-.15.05.05 0 0 1-.05-.05c0-.03 0-.07.05-.12a.15.15 0 0 1 .1 0ZM8.57 8.8c0 .08-.03.12-.08.12h-.22c-.16-.09-.27-.08-.32.04a.07.07 0 0 1-.06.04l-.34.03-.15.01c-.03 0-.05 0-.06.02-.08.05-.16.04-.24-.03.03 0 .04-.03.04-.08l.64-.03.07-.03a.53.53 0 0 1 .37-.11c.17 0 .29.01.35.03Z" fill="#C5BF5B"/><path d="M8.75 9.2c0 .05-.03.1-.07.12a.1.1 0 0 0-.02.12l.03.03.16.12c.02.01.03.03.03.06l-.02.27a.04.04 0 0 1-.03.04.04.04 0 0 1-.03 0 .77.77 0 0 1-.22-.2l-.32-.56c-.1-.14-.09-.24.01-.28h.22c.05 0 .07-.04.08-.11.03.04.02.12-.01.2v.08c.05.05.1.09.19.1Z" fill="#C2BEBB"/><path d="M8.27 8.92c-.1.04-.1.14-.01.28a.9.9 0 0 1-.24.28l-.17-.08a.07.07 0 0 0-.1.03v.04l.13.52c0 .03.03.04.05.05h.1l-.08.02-.44.02c-.01 0-.03 0-.03-.02l-.37-.9c-.01-.04 0-.06.04-.06.13 0 .26-.02.4-.07L7.89 9c.03 0 .04-.02.06-.04.05-.12.16-.13.32-.04Z" fill="#812758"/><path d="M9.17 9c.1.2.16.4.17.62 0 .08-.04.11-.05.19 0 .02-.02.04-.04.06a.23.23 0 0 0-.05.26c.01.03.03.04.05.02l.08-.04c.03-.02.05-.01.05.03v.41l-.07.52a5.23 5.23 0 0 1-.26-1.58.41.41 0 0 1-.05-.16c0-.03 0-.05.04-.05l.03-.02c.02-.02.02-.04 0-.06a.12.12 0 0 1-.05-.08c.08-.12.13-.16.15-.12Z" fill="#F2EED3"/><path d="M11.17 10.36a.3.3 0 0 1-.15-.06.06.06 0 0 1-.02-.07l.04-.11c0-.03 0-.05-.03-.06a.6.6 0 0 1-.19-.12.37.37 0 0 1-.15-.23c0-.02 0-.04.03-.04h.02a.07.07 0 0 1 .07.03c.06.13.14.2.24.24a.04.04 0 0 0 .05-.05l-.1-.39c0-.02 0-.03.03-.04l.02-.02a.06.06 0 0 1 .09.04l.07.3c0 .02.02.03.04.03h.03c.04 0 .05 0 .04-.04l-.13-.52a.05.05 0 0 1 .02-.06.05.05 0 0 1 .06 0l.05.04v.02l.08.27.03.03c.03.01.03 0 .03-.02l-.08-.38c-.01-.05.04-.1.15-.16.05.1.09.22.1.37 0 .1-.01.2-.07.3-.07.14-.13.23-.16.27a.09.09 0 0 0-.01.07c0 .08 0 .15-.04.2l-.01.01h-.05c-.02-.01-.03-.03-.03-.05l.03-.1a.03.03 0 0 0 0-.03h-.08c-.02 0-.04.02-.03.05l-.03.14c-.02.04 0 .05.03.04h.04c.03 0 .05 0 .05.04s-.03.06-.08.06Z" fill="#ECF699"/><path d="M9.38 9.05c.01.1.04.28.1.52.02.14.04.34.04.59-.04.32 0 .68.15 1.08-.02.1-.08.17-.2.23-.06.04-.1.03-.12-.02a.05.05 0 0 1 .02-.06h.02c.1 0 .14-.06.12-.15-.03-.18-.03-.34-.09-.5a1.1 1.1 0 0 1-.05-.19l.01-.41c0-.04-.02-.05-.05-.03l-.08.04c-.02.02-.04.01-.05-.02a.23.23 0 0 1 .05-.26.13.13 0 0 0 .04-.06c.01-.08.05-.1.05-.2-.01-.2-.07-.4-.17-.61.14.14.2.16.21.05Z" fill="#92521E"/><path d="m10.41 10.16-.03.07a.08.08 0 0 0 0 .07l.08.2a.22.22 0 0 0 .19.14l.29.02c-.12.05-.26.04-.44-.01a1.43 1.43 0 0 1-.36-.29l-.08-.17c-.06-.12-.1-.11-.13.02a6.86 6.86 0 0 0-.13 1.1.19.19 0 0 1-.07.05c-.03 0-.05 0-.07-.03a.08.08 0 0 1 0-.09 2.4 2.4 0 0 1-.14-1.08c.07.02.13-.07.2-.28.04-.05.07-.11.07-.17a.06.06 0 0 0-.03-.06.5.5 0 0 1-.17-.15.05.05 0 0 1 .01-.07l.08-.08c.02-.03.03-.05.01-.08a.43.43 0 0 0-.18-.19v-.03c-.01-.02 0-.03.02-.03l.33.03a.14.14 0 0 1 .13.1v.05c-.03.39.11.7.42.96Z" fill="#A2808B"/><path d="M7.1 9.03c.08.07.16.08.24.03a.13.13 0 0 1 .06-.02h.15c-.14.04-.27.06-.4.06-.04 0-.05.02-.04.06l.37.9c0 .02.02.02.03.02l.44-.02c.05.08.1.09.14.02v.02c.01.02 0 .03-.01.03a.84.84 0 0 0-.4.04.06.06 0 0 0-.03.08l.01.02.05.04c.03.02.04.04.04.07 0 .2.03.4.1.6l.06.41c0 .06.04.1.1.1.03.01.05 0 .06-.01l.04-.06a.1.1 0 0 1 .08-.04h.95c.03 0 .05-.01.07-.04.01-.02 0-.06-.01-.1.07-.07.1-.13.1-.17l.07-.52.05.2c.06.15.06.31.1.49.01.1-.03.14-.13.15a.04.04 0 0 0-.04.02.05.05 0 0 0 0 .04c.02.05.06.06.12.02-.05.1-.07.2-.07.32 0 .03-.01.05-.03.07-.03.05-.04.1-.02.16l.04.04c-.02.06 0 .13.09.21-.21.1-.08.25-.07.4 0 .03 0 .04-.03.04l-.1.02v-.15c0-.03 0-.04-.03-.03a.25.25 0 0 1-.12.03c-.03 0-.05.02-.05.05v.06c0 .03-.02.04-.05.03-.07-.03-.1-.07-.1-.13a.07.07 0 0 0-.04-.06c-.06-.03-.16-.03-.28 0-.04.01-.04.03 0 .05l.06.05c.02.01.02.03.01.06a.56.56 0 0 1-.18.17c.13-.15.13-.26 0-.33-.06-.13-.14-.2-.25-.24-.14-.04-.26-.02-.35.05-.06-.01-.1-.04-.1-.08a.05.05 0 0 1 .03-.06c.02 0 .03-.03.02-.05l-.01-.02-.02-.01a.13.13 0 0 0-.06 0c-.01-.1.02-.2.1-.27a.08.08 0 0 0 .01-.05v-.22a.1.1 0 0 0-.02-.07.32.32 0 0 0-.2-.1c.02-.1 0-.19-.02-.28 0-.02 0-.04.02-.05l.04-.04c0-.03 0-.05-.03-.05l-.11-.03c-.03 0-.05 0-.04.03v.32c-.04-.05-.08-.07-.12-.05a.07.07 0 0 0-.04.06l-.01.16c0 .03-.02.05-.04.07a.35.35 0 0 0-.08.14l-.03-.04a.05.05 0 0 0-.06-.03l-.3.06a.26.26 0 0 1-.1.05c-.03 0-.04-.01-.04-.04l-.03-.21c.06.03.11.04.18.04-.06.03-.03.04.07.03l.3-.02c.03 0 .05-.01.05-.04 0-.02 0-.04-.02-.07a.64.64 0 0 1 .06-.13c.02-.03.03-.06.02-.07-.02-.02-.05-.02-.1-.02l.1-.04a.05.05 0 0 0 .03-.06c0-.08-.05-.13-.05-.21 0-.1.03-.18.1-.23a.05.05 0 0 0 0-.06l-.16-.37v-.01c-.01-.2 0-.32-.05-.52a2.19 2.19 0 0 1-.08-.5l-.03-.06-.01-.01c-.02-.03-.03-.05-.02-.07.01-.02.03-.03.05-.03Z" fill="#7E7065"/><path d="m11.36 9.15.08.38c0 .03 0 .03-.03.02l-.02-.02-.01-.01-.08-.27v-.02l-.05-.03a.05.05 0 0 0-.08.05l.13.52c0 .04 0 .05-.04.05h-.03c-.02 0-.04-.02-.04-.05l-.07-.29a.06.06 0 0 0-.04-.04.06.06 0 0 0-.05 0l-.02.02c-.02 0-.03.02-.02.04l.1.4-.01.01a.04.04 0 0 1-.03.03h-.02c-.1-.03-.18-.11-.24-.24a.07.07 0 0 0-.07-.04h-.02c-.02.01-.03.03-.03.05.02.09.07.17.15.23l-.37.06a.14.14 0 0 1-.15-.08l-.13-.3c0-.05 0-.09.02-.13v-.06c-.04-.05-.04-.12-.02-.19l.02-.03.03-.02a.8.8 0 0 1 .2-.03c.05 0 .08.01.1.03 0 .03 0 .05-.02.08-.01.02 0 .04.02.05.06.01.08.05.07.11-.01.03 0 .05.02.06l.1-.01c.07.02.13 0 .16-.05.13-.17.27-.3.41-.38.02-.01.04 0 .05.02l.03.08Z" fill="#5E363E"/><path d="M9.5 9.08c.1.05.15.11.2.2 0 .02 0 .04-.02.07l-.08.08a.05.05 0 0 0 0 .07c.03.06.09.1.16.15.02.01.03.03.03.06 0 .06-.03.12-.07.17l-.07.1c-.04.05-.05.05-.05-.02s0-.16-.02-.24l-.07-.24a.85.85 0 0 1-.05-.34c0-.02.01-.04.03-.05h.02Z" fill="#ECF699"/><path d="m7.07 9.13.01.01c.02.02.03.03.03.06 0 .17.03.34.08.5.06.2.04.32.04.52v.01l.18.37a.05.05 0 0 1-.02.06.28.28 0 0 0-.1.23c0 .08.06.13.06.21 0 .03-.01.05-.03.06l-.1.04-.53.1a.1.1 0 0 0-.08.1.1.1 0 0 0 0 .04l.05.04.03.2c0 .04.01.05.04.04.03 0 .07-.01.1-.04l.12.48c-.1-.03-.17-.03-.21 0a.53.53 0 0 0-.11-.17.24.24 0 0 0-.1-.26.06.06 0 0 1-.03-.06v-.13a.06.06 0 0 0-.02-.05l-.15-.1a.07.07 0 0 1-.03-.07l.02-.2c.12-.24.19-.4.18-.47-.01-.3.02-.54.09-.73.03-.1.14-.22.3-.34a.1.1 0 0 0 .04-.05l.1-.36c0-.02.02-.03.04-.04Z" fill="#C2BEBB"/><path d="M9.02 9.12c0 .03.02.06.04.08.03.02.03.04.01.06l-.03.02c-.03 0-.05.02-.04.05 0 .06.03.12.05.16.02.02.02.04.02.07 0 .5.08 1 .24 1.51 0 .04-.04.1-.11.17a.69.69 0 0 1-.22-.21.11.11 0 0 1-.01-.07c.01-.17 0-.3-.07-.41 0-.15-.04-.25-.15-.3a.08.08 0 0 1-.05-.06l-.12-.43c.08.1.15.16.22.2a.04.04 0 0 0 .03 0 .04.04 0 0 0 .03-.04l.02-.27c0-.03-.01-.05-.03-.06l-.16-.12a.1.1 0 0 1-.03-.11.1.1 0 0 1 .02-.04.16.16 0 0 0 .07-.12c.07 0 .16-.02.27-.08Z" fill="#CB8023"/><path d="m7.03 9.17-.1.36a.1.1 0 0 1-.03.05c-.17.12-.28.24-.31.34-.07.2-.1.43-.09.73 0 .07-.06.23-.18.47-.03-.12-.03-.2 0-.25l.02-.7a.06.06 0 0 1 .05-.05c.08-.02.12-.1.1-.22a.05.05 0 0 0-.04-.05h-.03c-.27.1-.55.01-.82-.27.14.04.25.09.32.14.02.02.05.03.07.03a.6.6 0 0 0 .44-.12 22.08 22.08 0 0 0 .4-.37c.04-.07.1-.1.2-.1Z" fill="#92521E"/><path d="m8.58 9.76.12.43c0 .03.02.05.05.06.1.05.16.15.15.3-.04.04-.08.05-.12.02a.06.06 0 0 1-.02-.06c0-.07 0-.12-.03-.15-.2-.17-.4-.36-.62-.6a.06.06 0 0 1-.01-.06.2.2 0 0 1 .05-.06.05.05 0 0 0 .02-.07c-.03-.04-.08-.07-.15-.09a.9.9 0 0 0 .24-.28l.32.56Z" fill="#A6A330"/><path d="M8.02 9.48c.07.02.12.05.15.1a.05.05 0 0 1-.02.06.2.2 0 0 0-.05.06.06.06 0 0 0 .01.07c.21.23.42.42.62.6.03.02.04.07.03.14 0 .03 0 .05.02.06.04.03.08.02.12-.02.06.1.08.24.07.4l.01.08c.06.09.13.16.22.21.02.04.02.08 0 .1a.08.08 0 0 1-.06.04h-.95a.1.1 0 0 0-.08.04l-.04.06a.05.05 0 0 1-.05.02c-.07-.01-.1-.05-.11-.1a2.78 2.78 0 0 0-.07-.42c-.06-.2-.1-.4-.1-.6a.08.08 0 0 0-.03-.07l-.05-.04a.06.06 0 0 1-.02-.05.06.06 0 0 1 .03-.05.85.85 0 0 1 .4-.04c.02 0 .03 0 .03-.03v-.02a.13.13 0 0 0-.07-.03l-.1-.01a.06.06 0 0 1-.05-.05l-.12-.52a.07.07 0 0 1 .05-.08h.04l.17.1Z" fill="#5B1837"/><path d="m8.03 10.05.06.03c-.04.07-.09.06-.14-.02a.21.21 0 0 1 .08-.01Z" fill="#CB8023"/><path d="M10.14 10.36a.15.15 0 0 0-.05 0h-.04a.04.04 0 0 0-.01.03l-.07.92-.02.05a.22.22 0 0 1-.2.06.07.07 0 0 0-.05.03c-.16.16-.17.34-.05.53.03.07.12.1.28.08h.01l.01.03v.02a.52.52 0 0 1-.26 0l-.02.02v.03c0 .02.01.03.03.03.05 0 .09 0 .12.04.02.02.01.04-.02.04h-.32c-.08-.08-.11-.15-.09-.21l.1.02c.02 0 .04-.01.04-.04a.38.38 0 0 0-.03-.12c-.01-.03-.03-.04-.06-.04-.05 0-.08.05-.09.14-.02-.06-.01-.11.02-.16a.11.11 0 0 0 .03-.07c0-.11.02-.22.07-.32.12-.06.18-.14.2-.23a.08.08 0 0 0 0 .09c0 .02.03.03.06.03l.07-.04c.02-.01.03-.04.03-.08.01-.37.05-.72.1-1.03.03-.13.07-.14.13-.02l.08.17Z" fill="#A6A330"/><path d="M10.84 10.47a.5.5 0 0 1-.31-.22c0-.04 0-.07.02-.1.02-.02.03-.01.04.01.05.12.15.19.28.21.03 0 .05.02.05.05 0 .03 0 .04-.03.05h-.05Z" fill="#7E7065"/><path d="M10.53 10.25a.5.5 0 0 0 .31.22c.1.02.21 0 .33-.05v.05l-.01.04a.54.54 0 0 1-.22.15l-.3-.02a.22.22 0 0 1-.18-.14l-.09-.2a.08.08 0 0 1 0-.07l.04-.07c.01-.03.03-.04.06-.04s.04.02.05.05v.08Z" fill="#D4E6CD"/><path d="M6.03 10.68c.01.08 0 .16-.01.23-.03.15-.02.31.01.47 0 .03 0 .05-.02.06-.04.02-.09.03-.16.01l-.02.01c-.02 0-.03 0-.03-.03L5.8 11l.04-.29a.08.08 0 0 1 .03-.05l.02-.02.01-.03v-.4a.02.02 0 0 1 .01-.02h.02v.02c.03.11.04.23.01.35l.01.1c.02.01.05.03.1.03Z" fill="#54B069"/><path d="M6.08 10.66h.12c.03.05.05.11.04.17l-.03.07c0 .02 0 .02-.02.03H6.1c-.02 0-.05 0-.08-.02a.52.52 0 0 0 .01-.23l.05-.02ZM5.32 11.22l.01.15c-.07.11-.13.15-.18.1a1.23 1.23 0 0 1-.05-.45c0-.02 0-.04.03-.06a.2.2 0 0 1 .07-.01c.02 0 .03-.02.02-.04-.04-.07-.04-.13-.01-.18.02-.04.03-.03.04 0l.07.5Z" fill="#F25E5F"/><path d="m5.79 10.99.01.44c0 .02.01.03.03.03h.02c-.04.01-.08.02-.1.01a.39.39 0 0 0-.01-.2c-.01-.03-.03-.04-.06-.03l-.1.02c.02-.02.02-.05.01-.08a.67.67 0 0 0 .02-.39c0-.02 0-.04.02-.05h.02c.02 0 .03 0 .03.02.03.1.06.18.11.23Z" fill="#792F26"/><path d="M6.32 10.87c-.03.05-.03.13 0 .25l-.02.2a.07.07 0 0 0 .03.06l.15.11a.06.06 0 0 1 .03.05l-.01.13c0 .03 0 .05.02.06.1.07.13.15.1.26l-.47-.48a.09.09 0 0 1-.03-.07.14.14 0 0 0-.04-.11l-.02-.03v-.04l.04-.33h.06a.05.05 0 0 0 .05-.03l.03-.07c.01.04.04.05.08.04Z" fill="#7F6654"/><path d="M7.65 11.42a.1.1 0 0 1-.03.02c-.03 0-.05 0-.05-.03a.27.27 0 0 0-.06-.1v-.32c0-.03 0-.04.04-.03l.11.03c.03 0 .04.02.03.05l-.04.04c-.02.01-.02.03-.02.05.03.1.04.19.02.29Z" fill="#B2AE99"/><path d="m5.5 11.2.03.03v.05a.28.28 0 0 0-.05.1c0 .03-.02.04-.05.02a.21.21 0 0 0-.1-.03l-.01-.15a.18.18 0 0 1 .19-.01Z" fill="#83CF97"/><path d="M7.22 11.2c.05 0 .08 0 .1.02 0 .01 0 .04-.02.07a.64.64 0 0 0-.06.13c-.13.01-.27.04-.4.1-.07 0-.12 0-.18-.04l-.04-.04a.1.1 0 0 1 .03-.12.1.1 0 0 1 .04-.01l.53-.1Z" fill="#4A4436"/><path d="M5.75 11.47a.25.25 0 0 1-.14.1c-.03.01-.04 0-.05-.02a.47.47 0 0 1 .02-.29l.1-.02c.03-.01.05 0 .06.03.02.06.02.12 0 .2Z" fill="#F25E5F"/><path d="M7.24 11.42c.02.03.03.05.02.07 0 .03-.02.04-.05.04-.1 0-.2 0-.3.02-.1 0-.13 0-.07-.03.13-.06.27-.09.4-.1Z" fill="#C2BEBB"/><path d="M11.16 11.97c-.03.01-.05.01-.07 0a.88.88 0 0 0-.34-.22c-.25-.1-.45-.03-.58.19-.03.03-.06.03-.1.01 0-.3.28-.27.47-.36a.1.1 0 0 1 .07 0c.16.05.28.1.34.15.06.04.13.12.2.23Z" fill="#92521E"/><path d="m7.22 11.7.05.08-.01.12c-.02.03-.04.03-.06 0l-.06-.12a.07.07 0 0 0-.08-.03h-.03c-.03 0-.04.02-.02.04.02.04.02.09 0 .14 0 .03 0 .05.03.06l.05.02c.01 0 .04 0 .07-.03.05-.02.1-.02.13 0s.03.04-.01.04c-.13.02-.2.06-.19.13 0 .02 0 .04-.02.06a.1.1 0 0 1-.07.03c-.02 0-.03 0-.05-.02-.04-.02-.04-.04 0-.06l-.11-.48.29-.06c.03 0 .05 0 .06.03l.03.04Z" fill="#ECF699"/><path d="M11.16 11.97a.06.06 0 0 0-.02.04c.08.12.27.35.22.5l-.36.23h-.02l-.02-.01-.02-.03a.06.06 0 0 1-.01-.04.05.05 0 0 1 .02-.03l.23-.17c.06-.04.07-.09.03-.14l-.03-.04a.1.1 0 0 0-.15-.02l-.24.17h-.05l-.02-.04.03-.04.2-.15c.1-.06.12-.14.04-.23a.1.1 0 0 0-.1-.03.26.26 0 0 0-.1.07.6.6 0 0 1-.2-.06.17.17 0 0 0-.2.02.18.18 0 0 0-.04.06c-.05.09-.03.17.05.25.01.17.13.4.35.66-.16-.05-.3-.14-.41-.25a.48.48 0 0 0-.27-.2l-.06-.2a.6.6 0 0 0 .02-.29.1.1 0 0 1 .04-.05c.04.02.07.02.1-.01.13-.22.33-.28.58-.2.13.05.24.13.34.22.02.02.04.02.07 0Z" fill="#EFE139"/><path d="M7.27 11.78c.06.22.22.33.49.33h.06l.02.02v.02c.02.02 0 .04-.01.05a.05.05 0 0 0-.03.06c0 .04.04.07.1.08l-.03.31c0 .03-.02.04-.05.05-.02 0-.04.01-.07 0a.1.1 0 0 0-.05-.04c-.03-.01-.05 0-.06.02l-.02.03h-.07a.16.16 0 0 1-.01-.09c.07-.08.08-.16.03-.24a.06.06 0 0 0-.06-.03l-.26.04c-.03 0-.04.01-.05.04v.05l-.02.05c-.06 0-.11 0-.16.02l-.33-.23a.1.1 0 0 0-.15.02c-.16.22-.5.44-.22.64a.11.11 0 0 0 .16-.03l.18-.24a.08.08 0 0 1 .05-.04.08.08 0 0 1 .06.03c.04.04.1.06.19.04a.78.78 0 0 0 0 .38v.06c0 .03-.05.04-.15.04h-.03l-.02.02-.02.07a3.9 3.9 0 0 1-1.37-.98c.05 0 .1.07.12 0 .02-.02.03-.02.05 0 .09.12.21.19.37.22.02 0 .05 0 .07-.02l.11-.1c.04-.04.08-.05.12-.03.02.01.04 0 .04-.02.06-.19.32-.18.49-.22.04-.03.1-.03.2 0-.03.02-.03.04.01.06l.05.02a.1.1 0 0 0 .07-.03.08.08 0 0 0 .02-.06c0-.07.06-.11.19-.13.04 0 .04-.02 0-.04-.03-.02-.07-.02-.12 0l-.07.03c-.02 0-.04 0-.05-.02-.02-.01-.03-.03-.02-.06A.17.17 0 0 0 7 11.8c-.02-.02 0-.04.02-.04h.03c.04 0 .06 0 .08.03l.06.12c.02.03.04.03.06 0a.21.21 0 0 0 .01-.12Z" fill="#B2AE99"/><path d="m9.4 12.06-.05-.04c.01-.09.04-.13.09-.14.03 0 .05.01.06.04l.03.12c0 .03-.02.04-.04.04l-.1-.02ZM10.78 12.01l-.38.27c-.08-.08-.1-.16-.05-.25a.18.18 0 0 1 .24-.08.6.6 0 0 0 .2.06Z" fill="#ECF699"/><path d="m9.65 11.98.38.02a.6.6 0 0 1-.02.3c-.03 0-.05 0-.07.03 0 .02-.02.03-.04.02h-.02c-.03-.04-.05-.03-.04.01 0 .03.02.04.04.05.07 0 .1.04.1.09-.08 0-.17.02-.26.06-.23-.11-.28-.21-.16-.3h.24c.03 0 .04 0 .02-.03a.12.12 0 0 0-.12-.04c-.02 0-.03 0-.03-.03v-.03l.02-.01c.08.01.17.01.25-.01.01 0 .02-.01.01-.02v-.02l-.02-.01c-.16.02-.25-.01-.28-.08Z" fill="#F2EED3"/><path d="M11.4 12.17c0 .06.02.13.07.2a.1.1 0 0 1 .01.06l-.01.1-.11-.02c.05-.15-.14-.38-.22-.5l.27.16Z" fill="#792F26"/><path d="m11.4 12.17.49.17c-.01.1.01.18.07.23a.09.09 0 0 1-.04.15l-.3.03c-.06.02-.1.08-.12.17 0 .02-.02.03-.03.03h-.03a.03.03 0 0 1-.02-.03v-.02c.05-.06.05-.11.03-.15.06-.1.06-.18.02-.21l.01-.1a.1.1 0 0 0-.01-.07.32.32 0 0 1-.06-.2Z" fill="#7E7065"/><path d="M9.56 12.26c-.12.09-.07.19.16.3a.74.74 0 0 0-.24.27.05.05 0 0 1-.05.02l-.26-.02a.04.04 0 0 1-.03-.03v-.02c.02-.04.07-.05.15-.05l.09-.02c.02 0 .03-.01.03-.04-.01-.15-.14-.3.07-.4h.08ZM8.25 12.29c-.07 0-.12.01-.14.03-.02.03-.02.06.03.1.09.1.2.17.33.21.03.01.04 0 .05-.03l-.01-.07c.12.07.12.18-.01.33l-.32-.17c-.03 0-.05 0-.06.02l-.1.12a.05.05 0 0 1-.03.02l-.28-.02a.1.1 0 0 1-.06-.02l-.1-.1h.07c.01.03.03.04.06.04a.1.1 0 0 0 .07-.05c.03.01.05 0 .07 0 .03 0 .04-.02.05-.05l.03-.31c.1-.07.2-.09.35-.05Z" fill="#C5BF5B"/><path d="M8.25 12.29c.1.03.2.11.26.24v.07c0 .03-.01.04-.04.03a.8.8 0 0 1-.33-.2c-.05-.05-.05-.08-.03-.1.02-.03.07-.04.14-.04Z" fill="#ECF699"/><path d="m10 12.3.07.18c-.02 0-.05 0-.08.02 0-.05-.04-.08-.1-.1-.03 0-.05-.01-.05-.04 0-.04 0-.05.04-.02l.02.01c.02.01.04 0 .04-.02.02-.02.04-.04.07-.03Z" fill="#897A1C"/><path d="M7.54 12.62c0-.06-.01-.1-.05-.12h-.11a.24.24 0 0 1-.17-.02v-.05c0-.02.01-.04.04-.04l.26-.04c.03 0 .05 0 .06.03.05.08.04.16-.03.24Z" fill="#7E7065"/><path d="m7.18 12.53.01.08c0 .03.02.04.05.02l.04-.03c.02-.01.04-.01.04.02v.02c0 .02-.01.02-.03.03-.18.08-.3.23-.34.45a.78.78 0 0 1 0-.38.32.32 0 0 0 .07-.19c.05-.02.1-.02.16-.02Z" fill="#7D7778"/><path d="M10.75 12.94c.03.05.05.1.05.19-.15.02-.27-.02-.36-.1l-.12-.12a.07.07 0 0 1-.02-.06l.04-.16c.12.11.25.2.41.25Z" fill="#792F26"/><path d="M11.45 12.75c.02.04.02.1-.02.15v.02a.03.03 0 0 0 0 .02h.01l.03.01c.01 0 .02 0 .03-.03.02-.1.06-.15.13-.17-.01.06.02.1.09.1.03 0 .04 0 .02.04a.1.1 0 0 1-.1.04c-.03 0-.05 0-.06.03-.05.1-.15.16-.3.2a.08.08 0 0 0-.05.05l-.03.06c-.02.03-.04.03-.06.02-.02 0-.03-.02-.02-.03V13.17a.04.04 0 0 0-.02-.02h-.02l-.1-.01a.36.36 0 0 1 .2-.18c.03 0 .05-.02.07-.04a.8.8 0 0 1 .2-.17Z" fill="#9C947D"/><path d="M7.94 13.6c-.04 0-.07-.04-.1-.1a.06.06 0 0 0-.04-.03l-.2-.02c.1-.11.16-.2.19-.3.03-.1.06-.1.09 0 0 .03 0 .06-.03.08-.03.05-.03.06.02.04h.02c.02 0 .04 0 .05.02.07.1.07.21 0 .31ZM9.78 13.5a.44.44 0 0 0-.19.23c.01-.02 0-.01-.02.01a.76.76 0 0 0-.35-.24.06.06 0 0 1-.04-.05c-.01-.04-.04-.07-.1-.09-.03-.01-.04-.03-.02-.07.07-.13.18-.2.32-.2.03 0 .05.02.06.04.1.14.14.3.34.37Z" fill="#5B574C"/><path d="M9.04 6.13c0 .05-.04.07-.1.07-.03 0-.05-.01-.05-.04V6.1c0-.02 0-.04.02-.05.01-.03.03-.03.06-.02.06.01.08.05.07.1Z" fill="#302D27"/><path d="M7.45 7.39c0 .07.02.12.06.12.04 0 .08-.04.08-.1 0-.07-.02-.13-.06-.13-.04 0-.08.04-.08.11Z" fill="#EFCD88"/><path d="M8.55 7.32c.05.05.12.07.15.04.03-.03.01-.1-.04-.15-.04-.05-.1-.07-.14-.04-.03.03-.02.1.03.15Z" fill="#DFFCE0"/><path d="M8.94 7.5a.15.15 0 0 1 .1-.03c.03 0 .05.02.06.04.01.05 0 .1-.02.12-.09.06-.14.12-.17.15a.13.13 0 0 1-.12.06l-.25-.02c-.04-.02-.05-.04-.03-.06l.23-.26c.04-.05.09-.05.15 0 .01.02.03.02.05 0Z" fill="#C2BEBB"/><path d="M10.34 7.5c.02.02.04.02.06 0a.14.14 0 0 1 .1-.02c.03 0 .04.01.05.04.02.05.01.09-.02.11l-.17.16a.13.13 0 0 1-.11.05L10 7.83c-.04-.02-.05-.04-.03-.06l.23-.26c.04-.05.08-.05.14 0Z" fill="#B2AE99"/><path d="M10.9 7.85c0 .12.05.2.11.2.07 0 .12-.09.11-.2 0-.12-.05-.2-.11-.2s-.11.09-.11.2Z" fill="#F25E5F"/><path d="M6.62 8.7c.05.04.06.12.04.21a.02.02 0 0 1-.02.02.02.02 0 0 1-.02 0 .2.2 0 0 1-.06-.12l-.01-.01-.02-.02-.01-.01-.01-.01a.2.2 0 0 1-.12-.06.02.02 0 0 1 .01-.04c.1-.03.18-.02.22.03Z" fill="#F2EED3"/><path d="M6.18 9.06c.02-.06 0-.1 0-.16l.04-.05c.06-.07.1-.06.1.04 0 .05.05.08.13.1a.08.08 0 0 1 .05.04c.02.04.02.07 0 .1a.08.08 0 0 1-.07.04h-.15a.1.1 0 0 0-.06.02l-.14.1c-.03.02-.04.01-.04-.03 0-.06.03-.11.1-.15a.1.1 0 0 0 .04-.05Z" fill="#FCFCFB"/><path d="m6.27 9.39.13-.11h.08c-.14.13-.18.27-.41.2-.04-.02-.04-.03 0-.05a.37.37 0 0 1 .15-.02c.02 0 .04 0 .05-.02ZM5.9 9.45c.04 0 .07-.03.07-.06a.07.07 0 0 0-.06-.07.07.07 0 0 0-.07.07c0 .03.03.06.07.06Z" fill="#F2EED3"/><path d="M7.1 9.68a1.5 1.5 0 0 0-.23.28c-.06.1-.08.18-.06.25a1.55 1.55 0 0 0 .14.25.03.03 0 0 0 .04-.01v-.02c0-.13.04-.25.12-.35.02-.02.01-.03-.01-.04a.18.18 0 0 0-.1-.01c-.04 0-.05 0-.01-.03l.08-.06c.06-.04.08-.11.06-.21l.02.27c0 .02 0 .03.02.05.02.03.03.06 0 .11a.1.1 0 0 0 0 .07c.03.11.03.24.02.4a.1.1 0 0 1-.05.06.09.09 0 0 1-.08 0 .4.4 0 0 0-.18-.02.07.07 0 0 1-.06-.04c-.18-.25-.2-.51-.04-.77.06-.11.15-.15.21-.25.02-.03.04-.03.07-.01.02.02.04.05.03.08Z" fill="#9C947D"/><path d="m7.1 9.68.03.05c.02.1 0 .17-.06.21-.02 0-.04.03-.08.06s-.03.04.01.03h.1c.02.02.03.03.01.05a.55.55 0 0 0-.11.35.03.03 0 0 1-.03.03h-.02l-.01-.02-.13-.23c-.02-.07 0-.15.06-.25s.14-.2.22-.28Z" fill="#4A4436"/><path d="M5.89 12.3c.1-.05.11-.1.03-.16a.1.1 0 0 1-.04-.09v-.03c0-.04.01-.05.04-.03.1.06.17.14.22.24.01.02 0 .04-.01.06-.1.13-.2.22-.38.12-.34-.21-.4-.6-.03-.83.3-.17.62.09.64.38 0 .07-.02.12-.07.15a.07.07 0 0 1-.07-.01.07.07 0 0 1-.03-.07c.08-.35-.26-.46-.49-.21-.14.16-.12.31.07.46a.11.11 0 0 0 .12.02Z" fill="#FCFCFB"/><path d="M5.97 11.85a.26.26 0 0 0-.21.2.03.03 0 0 1-.02 0 .03.03 0 0 1-.02 0l-.03-.01v-.02c.03-.13.1-.21.22-.25.1-.03.18.01.2.14v.03l-.03.01c-.02 0-.03 0-.03-.02l-.02-.04c-.01-.03-.03-.04-.06-.04Z" fill="#8C9674"/><path d="M10.87 12.6c-.03.03-.04.05-.02.08l.1.13v.01h.02a.04.04 0 0 0 .03 0l.34-.24a.04.04 0 0 1 .07.01v.07c0 .02-.01.04-.03.05l-.42.3a.07.07 0 0 1-.1-.02l-.39-.56a.1.1 0 0 1 .02-.14l.4-.28a.05.05 0 0 1 .04-.01.04.04 0 0 1 .03.02l.01.03c.01.03 0 .05-.02.07l-.28.2c-.03.03-.04.05-.02.08l.07.1c.02.02.05.03.08 0l.26-.18a.06.06 0 0 1 .09.01l.02.03-.01.04-.3.2ZM6.76 12.49c.09 0 .15.03.18.1a.04.04 0 0 1 0 .06h-.02c-.04.03-.1.01-.14-.04a.1.1 0 0 0-.15 0l-.2.29-.03.02h-.03l-.03-.01c-.05-.02-.06-.04-.03-.08l.27-.44.04-.03h.05c.01.02.03.04.03.08l.02.03.04.02ZM9.74 13.09c.06.15.14.25.3.22.1-.01.17-.1.19-.24 0-.05.02-.07.07-.06h.02c.02 0 .04.01.04.03.01.13-.02.23-.1.3-.27.2-.56.12-.67-.2-.11-.3.05-.56.39-.57.1 0 .2.05.27.16v.05l-.03.02c-.03.03-.06.03-.1 0-.1-.1-.2-.13-.3-.07-.13.08-.13.22-.08.36ZM8.25 13.18a.02.02 0 0 0 0 .02h.03l.23-.16c.02-.02.04-.01.06 0 .02.02.02.04.02.06-.01.05-.07.08-.13.13-.02.01-.02.03 0 .05.05.13.15.27.12.36a.06.06 0 0 1-.06.05l-.03-.01a.06.06 0 0 1-.03-.03l-.1-.27a.06.06 0 0 0-.06-.04c-.01 0-.02 0-.03.02a.06.06 0 0 0-.02.03l-.07.2c0 .02-.02.03-.04.03h-.03c-.03-.02-.04-.04-.04-.07l.06-.77a.05.05 0 0 1 .01-.03h.08c.04 0 .06.02.06.06l-.03.37Z" fill="#FCFCFB"/><path d="m9.39 13.8-.47-.27a.05.05 0 0 0-.07.01c-.01.03 0 .06.02.07l.47.29c.02.01.05 0 .06-.02a.05.05 0 0 0-.01-.07Z" fill="#5B574C"/><path d="M11.72 12.2a.41.41 0 0 0 .43-.43.46.46 0 0 0-.45-.46.41.41 0 0 0-.42.43.46.46 0 0 0 .44.45Zm.25-.25c-.09.1-.27.12-.41.01-.14-.1-.2-.28-.1-.4.08-.11.26-.12.4-.01.14.1.19.28.1.4Z" fill="#FCFCFB"/><path fill-rule="evenodd" d="M7.66 13.22a.32.32 0 0 0-.17-.42.32.32 0 0 0-.44.3.32.32 0 0 0 .31.32.32.32 0 0 0 .3-.2Zm-.46-.02c.02.05.05.08.1.1.03.02.08 0 .12-.02a.25.25 0 0 0 .1-.12.25.25 0 0 0 0-.16.15.15 0 0 0-.08-.1.15.15 0 0 0-.14.02.25.25 0 0 0-.1.12.25.25 0 0 0 0 .16Z" fill="#FCFCFB"/><path fill-rule="evenodd" d="M9 14A5 5 0 1 0 9 4a5 5 0 0 0 0 10Zm0-.3a4.7 4.7 0 1 0 0-9.4 4.7 4.7 0 0 0 0 9.4Z" fill="#F4D38C"/></svg>