<!-- by TradingView --><svg width="18" height="18" viewBox="0 0 18 18" xmlns="http://www.w3.org/2000/svg"><path fill="url(#afevrh241)" d="M0 0h18v18H0z"/><path d="m9 8.03-.92.98-1.12-1.1c-.3-.3-.7-.4-1.1-.41-.83 0-1.43.57-1.43 1.5H3c0-1.63 1.3-3 2.86-3 .73 0 1.47.3 2.03.88L9 8.03Z" fill="url(#bfevrh241)"/><path d="m9 8.03-.92.98-1.12 1.1c-.3.3-.7.39-1.1.39-.83 0-1.43-.6-1.43-1.5H3c0 1.64 1.3 3 2.86 3 .73 0 1.47-.3 2.03-.88L9.92 9l-.93-.97Z" fill="#fff"/><path d="m9 9.97.91-.98 1.12 1.1c.3.3.71.4 1.11.41.83 0 1.43-.57 1.43-1.5H15c0 1.64-1.3 3-2.86 3a2.8 2.8 0 0 1-2.04-.88L9 9.97Z" fill="url(#cfevrh241)"/><path d="m9 9.97.91-.98 1.12-1.1c.3-.3.7-.39 1.1-.39.83 0 1.44.6 1.44 1.5H15c0-1.63-1.31-3-2.86-3-.74 0-1.48.3-2.04.88L8.08 9l.92.97Z" fill="#fff"/><defs><linearGradient id="afevrh241" x1="-.48" y1="9" x2="18.32" y2="9" gradientUnits="userSpaceOnUse"><stop stop-color="#039145"/><stop offset="1" stop-color="#191464"/></linearGradient><linearGradient id="bfevrh241" x1="5.83" y1="6.17" x2="9.17" y2="8.92" gradientUnits="userSpaceOnUse"><stop offset=".62" stop-color="#fff"/><stop offset=".84" stop-color="#E5E5E5"/></linearGradient><linearGradient id="cfevrh241" x1="12.16" y1="11.83" x2="8.82" y2="9.08" gradientUnits="userSpaceOnUse"><stop offset=".62" stop-color="#fff"/><stop offset=".84" stop-color="#E5E5E5"/></linearGradient></defs></svg>