<!-- by TradingView --><svg width="18" height="18" viewBox="0 0 18 18" xmlns="http://www.w3.org/2000/svg"><path fill="#F0F3FA" d="M0 0h18v18H0z"/><path d="M11.97 3.79a.8.8 0 0 1-.1.27 5.7 5.7 0 1 0-4.12 10.5l-.23.26a6 6 0 1 1 4.45-11.03Z" fill="#C8A960"/><path d="M11.86 4.06A5.7 5.7 0 1 1 3.81 6.6a5.7 5.7 0 0 1 8.05-2.54Z" fill="#231F1C"/><path d="m13.41 5.99-.1-.05c-.06-.03-.07-.01-.04.04l.15.3c.03.07.02.07-.03.02l-.18-.17.03-.01a.03.03 0 0 0 .02-.02v-.02l-.01-.01a.56.56 0 0 1-.16-.14.13.13 0 0 0-.05-.03.31.31 0 0 1-.1-.1.09.09 0 0 0-.06-.02 1.17 1.17 0 0 1-.35-.15l-.18-.12c-.06-.04-.05-.05.02-.03a5 5 0 0 1 .56.15V5.6c-.36-.22-.7-.42-1.06-.58-.05-.03-.05-.05 0-.06a.3.3 0 0 1 .12 0H12v-.03l-.03-.01c-.14-.05-.24-.16-.38-.22-.17-.08-.34-.14-.49-.24-.18-.14-.55-.16-.77-.15-.05 0-.1-.03-.1-.08 0-.01 0-.02.02-.03h.01c.03-.01.03-.03 0-.04-.13-.08-.53.05-.66.1-.1.04-.12.02-.03-.05l.22-.18V4h-.01c-.22.08-.42.2-.59.36a.07.07 0 0 1-.09 0 1.2 1.2 0 0 0-.66-.2c-.02 0-.04 0-.06.02-.06.05-.11.1-.2.11a7.28 7.28 0 0 0-.42.1l.03.01a3.34 3.34 0 0 0 .3.05c-.26 0-.42.02-.5.04-.2.06-.38.13-.55.2-.11.03-.1.05 0 .05.15 0 .29-.02.41-.06.02 0 .03 0 .03.02v.02c-.45.07-.84.22-1.18.46-.02 0-.02.02 0 .03.01.01.03.02.04.01a2.56 2.56 0 0 1 .55-.14v.03l-.3.1a4.25 4.25 0 0 0-.86.47 3.58 3.58 0 0 0 .54-.17c.02.02.03.01.03 0 0-.02.02-.03.04-.03v.01a.39.39 0 0 1-.18.1 3.78 3.78 0 0 0-1 .61c-.15.12-.34.15-.52.19h-.01v.01c0 .02 0 .02.02.02a7.1 7.1 0 0 0 .39.03.74.74 0 0 1-.16.04l-.38.02h-.2a.02.02 0 0 0-.02.03c.1.15.24.27.39.37.02.01.02.03.02.04 0 .03 0 .05-.03.05-.05 0-.04.03.06.1l.15.06a.3.3 0 0 0 .1.05l.4.17c0 .01.01.02.03.02.01.01.02.02 0 .04l-.02.01H5.2c-.25-.03-.49-.1-.7-.22h-.02v.02c.18.13.34.28.5.43l-.1.03a.38.38 0 0 0-.08-.05c-.03-.01-.04 0-.01.03.15.18.32.35.5.5.01.07.04.13.1.16l.26.25.02.05c0 .02 0 .02-.01 0h-.03v.01c.07.04.1.1.07.19v.05c.02.03.03.04.05.04l.43.4c.03.08 0 .08-.12 0a.08.08 0 0 0-.04-.02c-.03 0-.04 0-.02.04.11.13.38.21.56.26l.07.02c.05.01.09.03.12.06.02.02.02.03 0 .03-.44-.02-.7.08-1 .44l-.02.01-.26.05-1.56.25a.06.06 0 0 1-.07-.04 5.33 5.33 0 0 1 6.85-6.51A5.3 5.3 0 0 1 13.41 6Z" fill="#C8A960"/><path d="m7.52 14.82.23-.26a5.7 5.7 0 0 0 4.11-10.5.78.78 0 0 0 .11-.27 6 6 0 0 1-4.45 11.03Z" fill="#DEC88F"/><path d="M12.31 8.34v-.21c0-.08-.02-.08-.05-.01 0 .03-.04.06-.1.08l-.01-.03a.77.77 0 0 0 0-.26c0-.02-.01-.02-.02 0a1.4 1.4 0 0 1-.24.32.47.47 0 0 0 .01-.31c0-.02-.01-.02-.03 0l-.2.28c-.04.02-.06.03-.08.02-.01 0-.02-.02-.01-.03a.66.66 0 0 0 .04-.28c0-.1-.03-.1-.07-.01a.94.94 0 0 1-.37.43c-.05.03-.06.02-.04-.03a.67.67 0 0 0 .06-.42c0-.04-.01-.04-.02 0a.4.4 0 0 1-.1.17c-.13.13-.2.25-.38.33a.02.02 0 0 1-.02 0v-.02l.03-.17c.03-.04.04-.1.02-.2a1.99 1.99 0 0 0-.07-.22h-.02l-.1.36-.11.18a.36.36 0 0 0-.08.1.13.13 0 0 1-.04.03c-.01 0-.02 0-.02-.02a2.21 2.21 0 0 0-.18-.72c-.01-.02-.02-.02-.02 0a2.82 2.82 0 0 1-.1.55.01.01 0 0 1-.02 0 .01.01 0 0 1 0-.01c-.06-.3-.23-.52-.4-.76-.02-.02-.03-.02-.03 0a.8.8 0 0 0 0 .26c0 .12-.03.21-.07.27a1.15 1.15 0 0 0-.09-.27 6.62 6.62 0 0 1-.21-.33l-.02.13c0 .05 0 .1-.02.14-.01.03-.03.03-.04 0-.03-.07-.05-.17-.09-.23a81.05 81.05 0 0 0-.25-.37 8.84 8.84 0 0 1 .01.44c.2.16.39.35.55.57.06.08.16.14.24.2l.45.31a1.2 1.2 0 0 1-.53-.26c-.06-.05-.12-.06-.18-.1A.65.65 0 0 0 9 7.99a.02.02 0 0 0-.03.02v.02c.08.17.06.36-.05.58-.08.16-.27.24-.41.12-.21-.16-.12-.52 0-.7.02-.02.02-.03 0-.03h-.08a.05.05 0 0 1-.04-.08l.02-.02c.16-.05.3-.07.45-.04.04 0 .05 0 .01-.03a1.49 1.49 0 0 0-.6-.31.07.07 0 0 1-.06-.04c0-.02-.03-.03-.06-.03v-.03c.1.02.23.02.35 0h.06c0 .02.02.02.04.03.08.02.1 0 .05-.07l-.3-.43h-.01v.27c0 .09-.02.1-.06.01l-.13-.3c-.02-.05-.04-.05-.06 0a.45.45 0 0 1-.17.21c-.06.03-.1.07-.16.12-.12.04-.2.16-.24.34-.04.21-.07.43-.14.65-.04.12-.03.27-.03.4 0 .08-.01.08-.03 0-.05-.4-.07-.81-.06-1.24.01-.21-.07-.54-.34-.54-.24 0-.45.52-.47.69-.04.28-.02.58.05.9.05.21.18.6.4.68l.11.01c.03 0 .03.02.03.04-.05.24-.1.49-.23.7-.02 0-.03-.02-.03-.06V9.8c-.01-.02-.02-.03-.04-.03-.27.03-.5-.01-.71.2-.05.06-.1.1-.17.15a.1.1 0 0 0-.03.04c-.09.21-.07.47-.1.69l-.07.02.03-.27.02-.3c0-.03-.01-.03-.03-.03l-.15.02c-.04-.01-.06-.04-.07-.08l.26-.05.03-.01c.3-.36.55-.46.98-.44.03 0 .03-.01.01-.03a.31.31 0 0 0-.12-.06c-.04-.34-.1-.6-.2-.81-.29-.63-.52-1.23-.17-1.9A2.55 2.55 0 0 1 8.2 5.57a4.13 4.13 0 0 1 2.75.44c.8.5 1.43 1.36 1.36 2.34Z"/><path d="M13.41 5.99a5.35 5.35 0 0 1-.96 7.07l-1.61-1.44a.03.03 0 0 1-.01-.03.04.04 0 0 1 .02-.03c.25-.1.48-.25.67-.45.17-.17.22-.41.37-.6a3.88 3.88 0 0 0 .86-1.48.16.16 0 0 1 .07-.04c.14-.04.27-.11.39-.2.16-.13.16-.38.1-.56l.01-.02h.02l.02-.01c.02.06.04.09.07.09.02 0 .03 0 .02-.03l-.12-.37a.2.2 0 0 1 0-.08 6.12 6.12 0 0 1 .46.55c.04.07.06.06.04-.02-.05-.25-.16-.5-.32-.73l-.1-.2c.01-.04.04-.04.09 0a4.35 4.35 0 0 1 .32.4c.12.16.15.15.1-.06a1.49 1.49 0 0 0-.27-.52l-.07-.2a.04.04 0 0 1 0-.04.04.04 0 0 1 .04-.02c.02 0 .04 0 .07-.02l.05.03a.04.04 0 0 0 .03-.07 5.21 5.21 0 0 1-.3-.4.82.82 0 0 0-.33-.27L13 6.12c-.02 0-.02-.02 0-.04h.03l.16.04.2.18c.04.05.05.05.02-.02l-.15-.3c-.03-.05-.02-.07.04-.04l.1.05Z" fill="#DEC88F"/><path d="M13.14 6.24c.17.08.28.17.34.27a3.23 3.23 0 0 0 .3.42.04.04 0 0 1-.02.05h-.02s-.02 0-.05-.03a42.83 42.83 0 0 0-.15-.1c0 .01 0 .02-.01.01l-.03.01a.05.05 0 0 0-.02.03c0 .03-.01.03-.02 0v-.13l-.02-.01h-.01l-.01.01v.13l.01.05.22.28c.14.18.23.35.27.52.05.2.02.22-.1.05a4.35 4.35 0 0 0-.32-.4c-.05-.03-.08-.03-.08.01-.06-.07-.04-.16-.11-.24a.09.09 0 0 1-.02-.04.26.26 0 0 0-.11-.16.6.6 0 0 0-.22-.26.04.04 0 0 1-.02-.03v-.02a.04.04 0 0 1 .05-.02l.03.02c.06.1.16.17.24.26a2.84 2.84 0 0 0 .24.24l.01-.02a1.9 1.9 0 0 0-.17-.23.04.04 0 0 1 0-.05c.05-.14.01-.24-.1-.3a.05.05 0 0 1-.03-.03 4.25 4.25 0 0 1-.37-.44l.3.15Z" fill="#9C7D2D"/><path d="M7.77 7.26c.11.06.2.13.25.21.13.18.27.32.4.43a.11.11 0 0 0-.02.02.05.05 0 0 0 .04.09h.07c.03-.01.03 0 .02.02-.13.18-.22.54-.01.7.14.12.33.04.4-.12.12-.22.14-.41.06-.58A.02.02 0 0 1 9 7.99c.11.06.2.14.28.25-.03.46-.23.74-.59.85a.72.72 0 0 0-.5-.08.42.42 0 0 0-.23.13c-.09.1-.14.17-.15.23-.05.31-.02.6.1.87l.11.38-.31-.34c-.15.08-.2.23-.13.45.1.35.23.63.4.84.4.5.77 1.01 1.1 1.55-.19-.1-.37-.2-.55-.33a.57.57 0 0 1-.14-.16c-.2-.3-.4-.61-.66-.87A7.39 7.39 0 0 1 6.5 10.2a.05.05 0 0 1 .03-.03.83.83 0 0 0 .3-.28c.13-.2.17-.45.22-.69 0-.02 0-.03-.03-.04l-.11-.01c-.22-.07-.35-.47-.4-.69-.07-.31-.1-.6-.05-.89.02-.17.23-.7.47-.7.27 0 .35.34.34.55a7.28 7.28 0 0 0 .09 1.23c0-.12-.01-.27.03-.39.07-.22.1-.44.14-.65.04-.18.12-.3.24-.34Z" fill="#FFF8DF"/><path d="M8.42 7.9a2.2 2.2 0 0 1-.4-.43.84.84 0 0 0-.25-.21c.05-.05.1-.09.16-.12a.45.45 0 0 0 .17-.21c.02-.05.04-.05.06 0l.13.3c.04.08.06.08.06-.01v-.26c0-.02 0-.02.01 0l.3.42c.04.07.03.09-.05.07a.33.33 0 0 1-.05-.02.09.09 0 0 0-.05 0 .92.92 0 0 1-.36 0l.01.02c.03 0 .05 0 .06.03l.05.04c.23.06.44.16.61.31.03.03.03.04-.01.03a.85.85 0 0 0-.45.04Z" fill="#FCBE72"/><path d="M13.5 7.61c.17.24.28.48.33.73.02.08 0 .09-.05.02a6.12 6.12 0 0 0-.42-.56c-.02-.01-.03-.01-.03.01a.2.2 0 0 0 0 .08 1.59 1.59 0 0 0-.43-.73v-.03a.03.03 0 0 1 0-.02.03.03 0 0 1 .03 0c.13.1.2.21.31.3.1.08.14.19.24.27.03.03.04.02.02-.02V7.6Z" fill="#9C7D2D"/><path d="M6.82 8.12a.54.54 0 0 1-.01-.44c.02-.07.06-.1.13-.1l.02-.03a.43.43 0 0 0-.03-.17.08.08 0 0 0-.12-.03c-.14.1-.15.43-.13.58.01.11.03.2.06.23.02.11.07.2.14.28l.05.09c.01.07.03.13.06.2v.01h-.04l-.11-.3a.18.18 0 0 0-.04-.05.64.64 0 0 1-.16-.33c-.03-.15-.04-.7.17-.77l.1-.05c.02 0 .03 0 .04.02.09.15.09.38.1.55v.15c-.02.11-.04.11-.05 0a11.83 11.83 0 0 0-.07-.32c-.03 0-.06.02-.07.06-.03.06-.04.2-.04.42Z" fill="#695335"/><path d="m6.82 8.12-.08.04a.54.54 0 0 1-.06-.23c-.02-.15-.01-.48.13-.58a.08.08 0 0 1 .12.03c.02.05.03.1.03.17 0 .01 0 .02-.02.02-.07 0-.1.04-.13.1a.54.54 0 0 0 .01.45Z" fill="#FCBE72"/><path d="m13 7.71.35.46v.01l.01.02h-.03l-.01.01v.02c.05.18.05.43-.11.56-.12.09-.25.16-.4.2a.16.16 0 0 0-.1.1c-.15.53-.46 1-.82 1.43-.15.18-.2.42-.37.59a1.93 1.93 0 0 1-.69.46.04.04 0 0 0 0 .03v.02l1.61 1.44a.15.15 0 0 1-.07.05h-.07l-.26-.21-.17-.17a12.6 12.6 0 0 0-.42-.36l-.34-.32c-.1-.1-.2-.2-.32-.28a5.14 5.14 0 0 1-.36-.33.06.06 0 0 1 0-.06l.03-.02c.36-.15.69-.39.84-.74.04-.12.1-.22.17-.3a3.5 3.5 0 0 0 .86-1.48.38.38 0 0 1 .08-.04c.16-.06.31-.15.45-.27a.09.09 0 0 0 .03-.04c.03-.13.05-.27.03-.41-.02-.1 0-.12.05-.1a.03.03 0 0 1 .02.03l.07.45c0 .01 0 .02.01.01h.02v-.02a1.4 1.4 0 0 0-.14-.71c0-.02 0-.02.05-.03Z" fill="#9C7D2D"/><path d="M8.5 8.16c-.07.15-.03.3.08.35.1.05.24-.04.3-.19.07-.14.04-.3-.07-.35-.11-.04-.25.04-.31.19Z" fill="#fff"/><path d="M9.13 7.68a.3.3 0 0 0 .02-.14l.02-.13c0-.03 0-.03.02 0l.2.33c.02.03.05.12.08.27a.48.48 0 0 0 .07-.27.8.8 0 0 1 0-.26c0-.02 0-.02.02 0l.04.05c.17.23.31.42.36.7a.01.01 0 0 0 .02.02c.01 0 .02 0 .02-.02.05-.17.08-.35.1-.53 0-.02 0-.02 0 0 .11.24.17.48.19.72 0 .02 0 .02.02.02l.04-.03a.36.36 0 0 1 .08-.1l.11-.18.1-.36h.02l.07.23c.02.08.01.15-.02.2l-.04.16a.02.02 0 0 0 .03.02.73.73 0 0 0 .3-.24l.08-.09a.4.4 0 0 0 .1-.17c0-.04.01-.04.02 0 .02.16 0 .3-.06.42-.02.05-.01.06.04.03.16-.1.28-.24.37-.43.04-.08.06-.08.07.01 0 .1-.01.2-.04.28l.01.03c.02.01.04 0 .07-.02l.21-.28c.02-.02.02-.02.03 0 .03.1.03.2 0 .3.1-.09.17-.2.23-.31 0-.02.01-.02.02 0v.26c-.02.01-.02.02 0 .04l.01-.01c.06-.02.1-.05.1-.08.03-.07.05-.07.05 0a2.4 2.4 0 0 1 0 .3.4.4 0 0 0-.14.05l-.1.14a1.9 1.9 0 0 0-.2-.15.32.32 0 0 0-.21-.05.54.54 0 0 0-.22.08l-.22.11a.12.12 0 0 1-.04.03l-.31-.05a4.2 4.2 0 0 1-.6-.12l-.16-.05c-.18-.06-.35-.12-.56-.11a2.15 2.15 0 0 0-.07-.05l-.17-.16a2.89 2.89 0 0 0-.56-.6 8.84 8.84 0 0 0 0-.4c.09.11.17.24.25.36.03.04.05.1.06.15l.03.08c.01.03.03.03.04 0Z" fill="#FCBE72"/><path d="M10 8.6c.24.03.46.1.67.2.02.02.04.01.06 0a.68.68 0 0 0 .3.02.01.01 0 0 1 0 .02.74.74 0 0 0-.13.53c.01.1.12.17.21.13.24-.1.31-.31.33-.56a.3.3 0 0 0-.04-.16c-.03-.06-.02-.08.04-.06.1.02.16.07.2.15.01.07.04.07.06 0v-.05l.36-.14a.06.06 0 0 0 .04-.03l.07-.18a.4.4 0 0 1 .13-.04c-.01.1-.03.2-.08.3-.24.34-.45.7-.65 1.09-.19.36-.29.82-.58 1.12-.1.11-.28.23-.52.35a7.38 7.38 0 0 1-1.15.48h-.05a9.63 9.63 0 0 1-1.24-1.15l-.1-.38c.27.36.47.74.9.92.12.06.14.03.06-.08-.09-.13-.18-.3-.27-.5-.03-.06-.01-.1 0-.15a.1.1 0 0 0 0-.06.34.34 0 0 1-.01-.17l.16-.58a.65.65 0 0 0-.07-.53c.36-.11.55-.4.59-.85.06.04.12.05.18.1.16.13.34.22.53.26Z" fill="#FFF1CA"/><path d="m11.18 8.63-.48.15-.03.03c-.2-.1-.43-.18-.67-.2l-.45-.31c.27-.02.48.08.71.16.3.08.61.11.92.17Z" fill="#FDDDA5"/><path d="M12.07 8.6a.94.94 0 0 0-.54-.02c-.1.03-.1.04 0 .06.08.01.14.07.18.18v.05c-.03.07-.06.07-.08 0a.24.24 0 0 0-.19-.15c-.06-.02-.07 0-.04.06.03.05.04.1.04.16-.02.25-.09.47-.33.56a.16.16 0 0 1-.21-.13.74.74 0 0 1 .13-.54.01.01 0 0 0-.02 0c-.1 0-.19 0-.28-.03-.01 0-.02 0-.03-.02l.48-.15.04-.03.22-.1a.54.54 0 0 1 .22-.09.4.4 0 0 1 .2.05l.2.15Z"/><path d="m12.17 8.47-.07.18a.06.06 0 0 1-.04.03l-.35.14c-.04-.1-.1-.17-.18-.18-.1-.02-.1-.03 0-.06a.94.94 0 0 1 .54.03l.1-.14Z" fill="#FDDDA5"/><path d="M8.76 8.58c-.03.03-.03.08 0 .1.03.02.07 0 .1-.03.02-.03.02-.08 0-.1-.03-.02-.08 0-.1.03Z" fill="#fff"/><path d="M8.64 8.67h-.02c-.02-.01-.02 0-.02.01v.02a.21.21 0 0 1-.07-.12c-.01-.03 0-.04.03-.03l.06.02c.03 0 .04.02.03.04v.06Z" fill="#DEC88F"/><path d="M11.02 8.95c-.06.14-.05.28.03.3.08.04.19-.04.25-.18.06-.14.04-.28-.03-.31-.08-.04-.2.05-.25.19Z" fill="#fff"/><path d="M12.25 8.87c-.13.5-.41.91-.73 1.33-.06.07-.07.07-.04-.02a6.6 6.6 0 0 1 .79-1.37v.03l-.02.03Z" fill="#FFF1CA"/><path d="M8.7 9.1c.1.16.13.34.07.52l-.16.58c-.01.04 0 .1.02.17a.1.1 0 0 1 0 .06c-.02.05-.04.09-.01.14.09.21.18.38.27.51.08.11.06.14-.06.08-.43-.18-.63-.56-.9-.92a1.47 1.47 0 0 1-.1-.87c0-.06.05-.13.14-.23a.42.42 0 0 1 .23-.13c.17-.04.34 0 .5.08Z" fill="#FDDDA5"/><path d="M11.23 9.25c-.02.04-.02.09 0 .1.03.01.06-.01.08-.05.03-.05.03-.1 0-.1-.02-.02-.06 0-.08.05Z" fill="#FFF8DF"/><path d="M10.27 9.35c0 .04 0 .07.02.07s.04-.03.04-.06c0-.04 0-.07-.02-.07s-.03.02-.04.06Z" fill="#9C7D2D"/><path d="M11.1 9.34c.03 0 .05.02.04.06a.04.04 0 0 1-.04.03c-.08 0-.12-.04-.1-.1a.03.03 0 0 1 0-.02.03.03 0 0 1 .03 0c.01 0 .02 0 .03.02a.04.04 0 0 0 .04.01Z" fill="#C8A960"/><path d="M10.05 11.4a.06.06 0 0 1-.09-.02.13.13 0 0 1 .04-.13l.32-.29c.22-.21.27-.57.32-.87.03-.18.11-.3.25-.4a.08.08 0 0 1 .06 0c.55.08.24.8.06 1.07-.13.19-.35.31-.55.43-.14.08-.29.1-.4.21Z" fill="#FDDDA5"/><path d="M10.07 10.1c-.17.05-.36-.13-.5-.25a.34.34 0 0 0-.33-.07l-.09.02c-.12.03-.14.1-.05.2.13.14.31.27.54.36.11.04.22.03.34.03.02 0 .03 0 .05-.02l.13-.14a9.2 9.2 0 0 0-.33.65.22.22 0 0 1-.07.09c-.02.01-.02 0-.02-.01.04-.3-.07-.52-.33-.66a.81.81 0 0 0-.26-.15c-.1-.04-.18-.02-.24.05a.07.07 0 0 0-.01.05c.02.17 0 .34.15.46.09.06.18.12.27.16l.03.03c0 .02 0 .03-.03.02h-.06c-.4-.18-.51-.48-.35-.92a.42.42 0 0 1 .35-.29c.27-.02.36.14.56.27.07.05.16.06.25.11Z" fill="#4D221E"/><path d="M10.06 10.1c.06-.1.1-.04.1.13l-.13.14a.06.06 0 0 1-.05.02c-.12 0-.23.01-.34-.03-.23-.1-.4-.22-.55-.37-.08-.1-.06-.16.06-.19l.09-.02a.34.34 0 0 1 .32.07c.15.12.34.3.5.24Zm-3.28-.27a.95.95 0 0 1-.36.32.03.03 0 0 0 0 .03v.01a6.81 6.81 0 0 0 1.26 1.59c.15.16.27.3.36.43.27.38.5.76.8 1.12l.72.85c.03.03.02.04-.02.03-.15-.03-.35-.04-.47-.16-.25-.27-.51-.54-.76-.84l-.8-.99c-.08-.1-.06-.12.05-.04a2.82 2.82 0 0 1 .5.4v-.04c-.2-.22-.43-.4-.69-.56-.03-.02-.1-.03-.18-.02-.22.01-.53.19-.71.3a8.23 8.23 0 0 0-.86.58v-.01l.13-1.97c.02-.22 0-.48.08-.69a.1.1 0 0 1 .04-.04l.17-.15c.2-.21.44-.17.71-.2.02 0 .03 0 .03.03v.02Z" fill="#fff"/><path d="m10.09 9.83.23-.05c.03 0 .03 0 0 .03a.39.39 0 0 1-.25.1h-.01a.02.02 0 0 1 0-.03v-.01a.05.05 0 0 1 .03-.04Z" fill="#231F1C"/><path d="M9.41 10.3c0 .09.06.17.16.24l.04.04a.8.8 0 0 1 .05.35.08.08 0 0 1-.08.08.64.64 0 0 1-.32-.1l.06.01c.02 0 .03 0 .03-.02s-.02-.03-.03-.03c-.1-.04-.18-.1-.27-.16-.14-.12-.13-.3-.15-.46l.01-.05c.06-.07.14-.09.24-.05.1.03.19.08.26.15Zm-3.51.07c.03.07.07.13.09.12.02-.01 0-.08-.02-.15-.03-.07-.08-.13-.1-.12-.01.01 0 .08.03.15Z" fill="#E27F61"/><path d="m7.72 10.28.29.39c.11.25.26.5.45.75.37.48.75.91 1.16 1.3.07.06.17.13.3.2l.03.3a.09.09 0 0 1-.08.1c-.29 0-.54-.07-.77-.2a17.1 17.1 0 0 0-1.11-1.55c-.17-.21-.3-.5-.4-.84-.06-.22-.02-.37.13-.45Z" fill="#FDDDA5"/><path d="m5.7 10.61-1.72.18a.27.27 0 0 1-.07-.2c0-.02 0-.03.03-.03l1.6-.26.15-.02c.02 0 .03 0 .03.02l-.02.31Z" fill="#fff"/><path d="m5.94 10.7.04.08c.01.05 0 .06-.04.03a.28.28 0 0 1-.1-.22c0-.05.02-.06.05-.02.03.03.03.08.05.12Z" fill="#E27F61"/><path d="m5.7 10.61-.04.27c.02.31 0 .62-.06.93l.01.1v.04c-.03.12 0 .23-.02.35-.02.1-.03.22-.03.33 0 .1-.02.19-.03.28a.04.04 0 0 0 .06.05l.29-.2.78-.52c.06-.03.12-.04.18-.08.12-.07.45-.23.53-.04a.4.4 0 0 0 .05.09c.08.11.15.22.25.33a22.12 22.12 0 0 0 1.26 1.5c.1.1.21.17.34.18a.6.6 0 0 1 .2.06c.06.03.06.05-.02.05a5.55 5.55 0 0 1-3.22-.77 5.34 5.34 0 0 1-1.97-2.1c-.13-.24-.27-.39-.28-.67l1.72-.18Z" fill="#001DB9"/><path d="M9.92 12.92a1.71 1.71 0 0 1-.3-.2c-.4-.39-.8-.82-1.16-1.3-.19-.25-.34-.5-.45-.75a9.65 9.65 0 0 0 1.25 1.16c.02.01.04.02.05.01l.24-.07h.02l.01.01a.03.03 0 0 1 .01.03c-.02.17 0 .35.1.52.1.2.18.39.23.6Z" fill="#FCBE72"/><path d="M5.85 11.05c.04.08.08.13.1.12.02 0 0-.08-.03-.15-.03-.08-.08-.13-.1-.12-.01 0 0 .07.03.15Z" fill="#FD0302"/><path d="M5.82 11.4c.04.09.08.14.1.13.02 0 .01-.08-.02-.15-.03-.08-.08-.14-.1-.13-.02 0 0 .08.02.16Z" fill="#E27F61"/><path d="M10.4 11.56c.04.18.1.22.19.14a.4.4 0 0 1 .11.15l.04.03c.12.02.2.1.26.23 0 .02.02.03.04.03h.05l.06.03.14.16.05.03h.04l.04.04.07.14c0 .05-.02.08-.05.08-.2-.1-.5-.27-.73-.27-.1 0-.16-.04-.25-.02a.48.48 0 0 0-.37.34l-.02.02h.01l.01-.01.15-.2a.03.03 0 0 1 .05.02c.07.35.1.68.09 1a1.78 1.78 0 0 1-.17.69 2.22 2.22 0 0 1-.41.07c.22-.4.28-.85.17-1.37-.05-.21-.16-.41-.25-.61-.05-.14-.13-.47.02-.58a8.97 8.97 0 0 1 .49-.2c.1-.04.16-.02.18.06Z" fill="#fff"/><path d="M5.8 11.73c.04.08.08.14.1.13.02-.01 0-.08-.03-.16s-.08-.14-.1-.13c-.02 0 0 .08.03.16ZM5.8 12.09c.04.07.08.13.1.12.02 0 0-.08-.03-.15-.03-.07-.07-.13-.09-.12-.02 0 0 .08.03.15Zm0 .33c.04.07.08.11.1.1.02 0 0-.07-.04-.14-.04-.06-.09-.1-.1-.1-.02.01 0 .08.03.14Z" fill="#FD0302"/><path d="m12 13.4-1.63-.87c-.04-.02-.04-.05 0-.11a.08.08 0 0 1 .12-.03l1.52.96c.02 0 .02.03 0 .06Z" fill="#fff"/><path d="m12.3 13.1.07.01a.75.75 0 0 1-.23.17h-.04l-1.33-.82c-.02 0-.02-.01 0-.01a4.5 4.5 0 0 1 1.17.5l.25.15c.04.03.07.03.11 0Z" fill="#DEC88F"/><path d="m12 13.4-.29.19a8.43 8.43 0 0 1-1.32.56c-.06.02-.08 0-.06-.06.13-.35.17-.7.12-1.04l-.08-.52 1.63.88Z" fill="#001DB9"/><path d="M11.44 12.62c.03 0 .05-.03.05-.08l.02.03c0 .02.02.02.04 0h.05l.31.27v.02l-.02.02h-.02l-.43-.26Z" fill="#FFF8DF"/><path d="M9.9 13.37h.02c.02 0 .03.02.03.04a1.46 1.46 0 0 1-.2.8.06.06 0 0 1-.06 0l-.02-.01a37.45 37.45 0 0 0-1-1.2c0-.05.03-.06.07-.03.1.08.21.15.34.22.26.14.48.24.8.19l.02-.01Z" fill="#FD0302"/></svg>