<!-- by TradingView --><svg width="18" height="18" xmlns="http://www.w3.org/2000/svg"><path fill="url(#paint0_linear)" d="M0 0h18v18H0z"/><path d="M6.5 4.998a1.5 1.5 0 00-1.5 1.5v5.028c0 .841.138 1.677.408 2.474C4.631 14 4 13.37 4 12.592V6.498a2.5 2.5 0 012.5-2.5h5a2.5 2.5 0 012.5 2.5V11.5a2.5 2.5 0 01-2.5 2.5h-4A1.5 1.5 0 016 12.5V7a1 1 0 011-1h4a1 1 0 011 1v4a1 1 0 01-1 1H7v.5a.5.5 0 00.5.5h4a1.5 1.5 0 001.5-1.5V6.498a1.5 1.5 0 00-1.5-1.5h-5zM7 11h4V7H7v4z" fill="#fff"/><defs><linearGradient id="paint0_linear" x1="9" y1="0" x2="9" y2="18" gradientUnits="userSpaceOnUse"><stop stop-color="#26F294"/><stop offset="1" stop-color="#45D693"/></linearGradient></defs></svg>