<!-- by TradingView --><svg width="18" height="18" viewBox="0 0 18 18" xmlns="http://www.w3.org/2000/svg"><path fill="url(#a)" d="M0 0h18v18H0z"/><path d="m9.42 4.4-.08.1-.22-.1c-.06-.07-.13-.08-.23 0-.12.04-.3.1-.25.26l-.03.24-.17.05a.07.07 0 0 0-.05.04l-.05.14a.07.07 0 0 1-.05.05c-.2.04-.17.3-.15.43.02.21.15.32.39.32.02 0 .04 0 .05.02.02.01.03.03.03.05 0 .14.02.27.05.4.02.06 0 .08-.06.06a1.87 1.87 0 0 1-.13-.06.23.23 0 0 1-.11-.13c-.03-.07-.1-.12-.2-.14a.05.05 0 0 1-.04-.04l-.01-.05-.02-.03a.09.09 0 0 0-.03-.02c-.25-.12-.4-.07-.45.15-.11.03-.17.02-.18-.02a.54.54 0 0 1-.01-.16.4.4 0 0 0-.01-.15.27.27 0 0 0-.19-.17.34.34 0 0 1-.03-.22v-.38c0-.07-.04-.11-.12-.1l-.5.01a.09.09 0 0 0-.05.03.08.08 0 0 0-.03.05c0 .1-.05.14-.14.15a.13.13 0 0 0-.08.04.12.12 0 0 0-.03.08v.1l-.02.05a.06.06 0 0 1-.04.02l-.13.01-.03.01-.01.03-.03.68v.62a.04.04 0 0 0 0 .03.05.05 0 0 0 .05.02c.03-.01.06-.02.08-.05a.05.05 0 0 1 .07 0c.03.02.05.07.05.13l-.3.21a.67.67 0 0 0-.33.47c-.03.13-.15.28-.17.45v.2a34.32 34.32 0 0 1 .01 1.75l.3.54c.05.1.14.12.2.21.03.07.09.12.15.17.11.07.22.16.31.26.09.08.2.16.33.24l.47.26c.16.1.28.13.46.12l.7-.01a.3.3 0 0 1 .21.04c.02.02.03.03.03.06s0 .06.02.09c0 .02.03.04.05.04a2.17 2.17 0 0 0 .66 0 .1.1 0 0 0 .03-.04c.05-.1.15-.16.28-.2.32.02.87.07 1.1-.08.15-.1.31-.19.49-.28.25-.13.43-.33.64-.5.1-.08.14-.2.24-.27a.5.5 0 0 0 .15-.17c.12-.22.28-.47.28-.72V8.15a.47.47 0 0 0-.03-.18l-.22-.53a.45.45 0 0 0-.14-.18l-.14-.1a4.1 4.1 0 0 0-.26-.2.17.17 0 0 1 0-.16c.01-.03.03-.03.05 0 .03.02.08.04.13.03.02 0 .03-.01.04-.03v-.1a.5.5 0 0 0 .02-.23V6.1a1.3 1.3 0 0 0-.03-.55.06.06 0 0 0-.04-.04c-.04-.02-.09-.01-.13-.03-.04-.02-.05-.04-.05-.07l-.02-.16c0-.03-.01-.04-.04-.05l-.13-.02c-.04-.01-.06-.03-.06-.07 0-.08-.02-.13-.07-.14.07-.02.1-.09.09-.2 0 .05 0 .1.02.15.01.03.03.04.06.04h.34l.04.01.02.04.01.41c0 .02 0 .03.02.04l.04.02h.16l.04.02.01.04c-.02.5.05 1.02.05 1.4 0 .08-.01.18.08.24.17.12.23.34.28.54.04.14.23.2.31.06l.18-.3a.08.08 0 0 1 .05-.05.78.78 0 0 1 .37.01.1.1 0 0 1 .06.05c.04.1.12.15.24.15a.08.08 0 0 1 .05.02l.02.02v.03l.02.78c0 .03 0 .06-.02.08a.12.12 0 0 1-.08.04l-.13.02a.07.07 0 0 0-.06.05.72.72 0 0 0-.03.34c0 .03.02.04.04.04h.16c.08 0 .13.05.13.13a.86.86 0 0 1-.1.52c-.06.11-.22.09-.25.22 0 .02-.02.03-.04.04l-.12.03-.26.03a.07.07 0 0 0-.06.04c-.08.13-.17.13-.32.14-.2.03-.23.1-.08.23.05.04.09.09.12.14l.06.06c.08.04.15.09.21.15.04.04.06.06.04.06l.24.4.04.05a.3.3 0 0 1 .14.22c.05.37.06.72.01 1.04 0 .06-.04.09-.1.1-.21 0-.37-.07-.48-.23-.08-.12-.15-.23-.33-.2-.17.04-.36.26-.5.38a.12.12 0 0 1-.16 0c-.07-.06-.12-.11-.2-.15-.29-.13-.42-.24-.8-.24l-.06-.16c-.02-.03-.04-.04-.07-.03l-.1.04c-.03.01-.04.03-.03.06.01.09.08.15.19.18l.28.47c.01.03.03.04.06.06.25.14.3.33.36.58a.09.09 0 0 0 .06.06c.1.05.15.03.24.14a.74.74 0 0 1-.54.08c.02-.1 0-.23-.04-.37-.07-.2-.2-.38-.4-.52a.1.1 0 0 1-.03-.06c-.02-.08-.03-.14-.08-.2-.09-.12-.23-.26-.29-.4-.05-.11-.25-.05-.36-.05-.14 0-.25-.04-.4-.02-.15-.02-.4-.04-.45.14a.1.1 0 0 1-.1.07c-.17.03-.38.04-.57 0-.07-.01-.1-.05-.1-.12 0-.03-.02-.05-.05-.06a1.33 1.33 0 0 0-.42-.03l-.66.01c-.02 0-.04 0-.06.02a.15.15 0 0 0-.06.09c0 .02-.02.04-.04.06l-.27.3c-.05.06-.06.13-.08.2a.3.3 0 0 1-.1.12c-.14.14-.26.29-.34.45.03.2.03.33-.01.4l-.57-.09c.1-.13.17-.11.29-.18a.09.09 0 0 0 .04-.06c.04-.21.1-.41.3-.53.12-.06.16-.17.2-.29l.02-.02.18-.21.14-.1a.15.15 0 0 0 .06-.13c0-.05-.02-.07-.06-.08-.09-.02-.14.06-.14.13 0 .03-.02.04-.05.05H6.9c-.16 0-.32.04-.45.1a3.27 3.27 0 0 0-.63.32l-.04-.01-.32-.31c-.15-.17-.35-.07-.47.08-.16.2-.35.28-.59.23a.07.07 0 0 1-.04-.02 5.87 5.87 0 0 1-.02-1.14c.2-.15.27-.3.25-.46.03-.15.18-.08.23-.21a.44.44 0 0 1 .2-.15.1.1 0 0 0 .06-.04.6.6 0 0 1 .13-.16c.2-.15.17-.23-.08-.24-.1 0-.2 0-.28-.1-.07-.1-.2-.12-.3-.11l-.16-.04-.03-.01-.02-.03a.26.26 0 0 0-.19-.14.06.06 0 0 1-.04-.03.9.9 0 0 1-.08-.62l.02-.03.04-.01c.06 0 .13-.02.18-.04a.08.08 0 0 0 .05-.06c.02-.1 0-.21-.04-.3a.13.13 0 0 0-.06-.07.14.14 0 0 0-.08-.01c-.07 0-.1-.02-.11-.08a5.1 5.1 0 0 1 .04-.86.09.09 0 0 1 .06-.02c.13 0 .2-.05.2-.17 0-.04.02-.06.05-.06h.35c.03 0 .05.02.07.04l.21.33a.1.1 0 0 0 .08.05l.13.02c.04 0 .07-.01.08-.05.06-.23.1-.49.32-.63a.07.07 0 0 0 .04-.05l.03-.45c0-.4.02-.78.03-1.15 0-.02 0-.04.03-.04l.2-.01.02-.02.01-.03v-.4c0-.05.03-.07.08-.07h.35c.02 0 .04-.01.05-.03a.07.07 0 0 0 .02-.05v-.15l.03-.04a.06.06 0 0 1 .03-.02 2.37 2.37 0 0 1 .66.03l.02.04.05.14.01.03.04.01c.09.02.13.08.14.18l.02.48c0 .07.04.1.1.1h.15a.1.1 0 0 0 .07-.01.1.1 0 0 0 .04-.07l.04-.33c0-.02.01-.05.03-.07a.13.13 0 0 1 .07-.03c.15-.03.13-.26.17-.37.01-.03.03-.04.05-.05l.08-.02c.03 0 .04-.02.05-.05l.06-.18.01-.03.03-.02.1-.02a.1.1 0 0 0 .05-.05l.06-.1a.13.13 0 0 1 .07-.06c.05-.02.1-.06.12-.11a.17.17 0 0 1 .06-.07.19.19 0 0 1 .09-.03.2.2 0 0 1 .17.07c.05.06.1.1.18.13l.05.05.05.16Z" fill="#090515"/><path d="M9.12 4.4 9.1 6.04l-.04.13s0 .02-.02.03a.08.08 0 0 1-.07.02.08.08 0 0 1-.04-.02.13.13 0 0 1-.03-.1l-.01-.59V4.39c.1-.07.17-.06.23.01Z" fill="#E8FA55"/><path d="M8.88 4.4h.01c-.13.04-.29.1-.25.26l-.03.24v.73c.01.04.02.07.05.1.04.03.09.02.13-.02.02-.01.03-.02.05 0h.02l.01-.03.02-.17v-1.1ZM9.34 4.5l.06.41.02.35-.06.43a.27.27 0 0 1-.2.04c-.03 0-.04 0-.05.03l-.02.28.03-1.64.22.1Z" fill="#15C73C"/><path d="M11.51 4.75c0 .12-.02.2-.1.2h-.53c-.06 0-.09 0-.1.04-.01.12 0 .28.02.46v.1l-.03.05c-.14.12-.25.15-.2.37l-.02.17a.34.34 0 0 1-.18.01c0-.05 0-.1-.03-.14-.06-.11-.3-.08-.4-.06a.07.07 0 0 0-.05.04.28.28 0 0 1-.18.17c-.16.06-.11.26-.3.26-.04 0-.05-.02-.05-.05l.03-.38c0-.02 0-.03.02-.04a.07.07 0 0 1 .04-.02l.33-.02c.01 0 .03 0 .04-.02a.06.06 0 0 0 .02-.04l.02-.62c0-.03-.01-.04-.04-.05h-.13l-.03-.04c-.03-.04 0-.08-.03-.13 0-.05-.03-.08-.09-.08-.07 0-.11 0-.14-.02l-.06-.42.08-.08.17.03c.03 0 .05.02.05.05l.01.14c0 .03.02.06.04.08l.09.03c.07-.01.1.02.1.09l.01.28c0 .05.03.07.08.05.1-.03.15 0 .16.1l.02.33c0 .07.04.1.11.1h.13c.07-.01.12-.05.12-.13l.02-.55c0-.03.01-.05.04-.06a.18.18 0 0 1 .09 0c.02 0 .04 0 .06-.02.04-.03.06-.08.05-.14a.12.12 0 0 1 .02-.1.12.12 0 0 1 .1-.04h.58c.04 0 .05.04.04.1Z" fill="#050118"/><path d="M8.61 4.9v.73c0 .04.02.07.05.1.04.03.09.02.13-.02.02-.01.03-.02.05 0h.02l.01-.03.01-.17c.02.2.03.4.02.6 0 .04.01.06.03.09l.04.02a.08.08 0 0 0 .07-.02.07.07 0 0 0 .02-.03l.03-.13.02-.28c0-.02.02-.03.04-.03.07.02.13 0 .2-.04.04.05.1.04.18-.04a.12.12 0 0 0 .03-.05l.13-.43.13.01c.03 0 .04.02.04.05l-.02.62c0 .01 0 .03-.02.04a.07.07 0 0 1-.04.02l-.33.02c-.01 0-.03 0-.04.02a.06.06 0 0 0-.02.04l-.03.38c0 .03.01.05.05.05.19 0 .14-.2.3-.26A.28.28 0 0 0 9.89 6c0-.02.02-.03.05-.04.1-.02.34-.05.4.06.02.04.03.09.03.14l-.37.03a.12.12 0 0 0-.07.02c-.08.06-.15.12-.24.17-.07.04-.09.13-.17.18-.16.1-.31.22-.46.33a.12.12 0 0 1-.15 0c-.14-.13-.3-.23-.46-.32a.2.2 0 0 1-.1-.15.07.07 0 0 0-.04-.05.56.56 0 0 1-.21-.16.07.07 0 0 0-.06-.03l-.43-.03c.05-.22.2-.27.45-.15l.03.02.02.03v.05c.01.03.03.04.05.04.1.02.17.07.2.14.02.06.06.1.11.13l.13.06c.06.02.08 0 .06-.06a1.94 1.94 0 0 1-.05-.4c0-.02-.01-.04-.03-.05a.08.08 0 0 0-.05-.02c-.24 0-.37-.1-.4-.32 0-.13-.03-.4.16-.43a.07.07 0 0 0 .05-.05L8.39 5c.01-.02.03-.04.05-.04l.17-.05Z" fill="#068B57"/><path d="M9.63 5c0 .07-.01.12-.04.17a.06.06 0 0 1-.05.03c-.05 0-.1.02-.12.06l-.02-.35c.03.02.07.02.14.02.06 0 .08.03.09.08Z" fill="#198899"/><path d="M7.19 5.42a.24.24 0 0 1-.12.07c-.06.02-.09.05-.08.1 0 .03.02.04.04.05h.19c.1.03.16.08.19.17a.4.4 0 0 1 0 .15l.02.16a.95.95 0 0 0-.42.07c-.07-.01-.12 0-.15.03a1.34 1.34 0 0 1-.62.3.05.05 0 0 1-.03-.02V6.5c-.02-.23.18-.38.38-.47V6a.24.24 0 0 0-.15-.03.23.23 0 0 0-.1.05l-.16.12a.2.2 0 0 1-.09.05H6L6 5.52V5.5l.04-.01.13-.01.04-.02a.06.06 0 0 0 .02-.04v-.1c0-.04 0-.07.03-.09a.13.13 0 0 1 .08-.04c.1 0 .14-.06.14-.15 0-.02.01-.04.03-.05a.09.09 0 0 1 .06-.03l.5-.02c.07 0 .11.04.11.11v.38Z" fill="#F8D68C"/><path d="M11.31 4.95h-.1c-.03.02-.03.03 0 .04.02 0 .02.01.03.02l.01.06-.01.33c0 .06-.05.1-.11.08a.07.07 0 0 1-.06-.05 1.41 1.41 0 0 0-.16-.37v-.03c0-.02 0-.04.02-.05l-.01-.03h-.04.43Z" fill="#FCFCED"/><path d="M10.88 4.95a.1.1 0 0 1 .04 0c.02 0 .02.02 0 .03a.07.07 0 0 0-.02.05l.01.03c.07.12.12.24.16.37 0 .01 0 .02.02.03l.04.02c.06.01.1-.02.1-.08a3.34 3.34 0 0 0 0-.39.04.04 0 0 0-.02-.02c-.03-.01-.03-.02 0-.04h.2c.06.02.08.07.08.15 0 .04.02.06.06.07l.13.02c.03 0 .04.02.04.05l.02.16-.23.11a.06.06 0 0 0-.04.05c0 .02 0 .04.02.05.02.02.04.02.06.02l.19-.02c.02 0 .03.01.03.04l-.05.45a.42.42 0 0 0-.26-.13c-.04 0-.06.01-.06.06v.02c0 .05.03.07.08.09.1.02.18.07.26.15.02.11 0 .2-.04.28a1.19 1.19 0 0 0-.32-.17.4.4 0 0 1-.14-.08l-.12-.1a.4.4 0 0 0-.27-.03l-.3-.05.01-.17c.14-.01.2-.07.21-.17 0-.11.05-.17.12-.17.16-.01.17-.06.05-.16l-.15-.02a1.67 1.67 0 0 1 0-.46c0-.03.03-.04.09-.04Z" fill="#F8D68C"/><path d="m9.7 5.17-.14.43c0 .02-.01.04-.03.05-.09.08-.14.1-.17.04l.06-.43a.13.13 0 0 1 .12-.06c.02 0 .04-.01.05-.03.03-.05.04-.1.04-.16.03.05 0 .09.03.13 0 .02.02.03.03.03Z" fill="#032F27"/><path d="M11.74 5.4c0 .03.01.05.05.07.04.02.09.01.13.03.02 0 .04.02.04.04a1.3 1.3 0 0 1 .01.65c0 .02-.03.02-.05.02a.54.54 0 0 1-.2-.11l.05-.45c0-.03 0-.04-.03-.04l-.2.02c-.01 0-.03 0-.05-.02a.06.06 0 0 1-.02-.05c0-.02.02-.04.04-.05l.23-.11Z" fill="#76B3DF"/><path d="M7.19 5.42c-.01.08 0 .15.03.22a.54.54 0 0 1-.2 0c-.01 0-.03-.02-.03-.04-.01-.06.02-.1.08-.11a.24.24 0 0 0 .12-.07Z" fill="#954B67"/><path d="M10.56 5.97c-.04-.22.07-.25.21-.37a.08.08 0 0 0 .03-.06v-.1l.14.03c.12.1.1.15-.05.16-.07 0-.11.06-.12.17 0 .1-.07.16-.2.17Z" fill="#94689F"/><path d="M11.05 5.74c.02.08.1.13.15.11.07-.01.1-.09.09-.17-.02-.07-.1-.12-.16-.1-.06 0-.1.08-.08.16ZM6.9 5.81c.06-.03.1-.1.06-.16-.03-.05-.11-.06-.18-.02-.06.04-.09.1-.06.16.03.05.11.06.18.02Z" fill="#FCFCED"/><path d="M11.72 6.1c.05.05.12.08.2.1.02.01.04 0 .05-.01a.2.2 0 0 0 .03-.1v.38c0-.1-.02-.15-.1-.16a1.8 1.8 0 0 1-.16-.02.57.57 0 0 0-.26-.15c-.05-.02-.08-.04-.08-.1v-.01c0-.05.02-.07.06-.06.1 0 .18.05.26.13Z" fill="#954B67"/><path d="M7 6.2c.1-.04.17-.01.18.08v.04l-.04.03c-.04 0-.07.03-.07.07a.34.34 0 0 0-.11.11.09.09 0 0 1-.05.04c-.19.06-.35.07-.47.25-.02.03-.09.08-.2.13-.01-.06-.03-.1-.06-.13a.05.05 0 0 0-.07 0 .17.17 0 0 1-.08.04.05.05 0 0 1-.04 0 .05.05 0 0 1-.02-.04L6 6.2h.1a.2.2 0 0 0 .1-.05l.15-.12a.23.23 0 0 1 .1-.05.24.24 0 0 1 .15.03v.01c-.2.1-.4.24-.39.47a.04.04 0 0 0 .02.03.05.05 0 0 0 .04 0c.22-.04.42-.15.6-.3.03-.03.08-.04.15-.03Z" fill="#068B57"/><path d="M7.43 6.12c.01.04.07.05.18.02l.43.03a.08.08 0 0 1 .06.03c.05.07.12.13.21.16.02.01.04.03.04.05a.2.2 0 0 0 .1.15c.17.09.32.2.46.31a.12.12 0 0 0 .15 0l.46-.32c.08-.05.1-.14.17-.18.09-.05.16-.1.24-.17a.12.12 0 0 1 .07-.02l.37-.03h.18l.3.04c-.05.05-.05.1-.02.16 0 .02.03.03.05.03.06.02.1.05.11.11.01.03.03.06.06.08a.2.2 0 0 0 .1.04c.15.02.26.1.34.2.01.03.03.04.05.05l.21.1c.1.06.18.13.26.2l.14.1c.05.04.1.1.14.18 0 .05-.03.12-.1.2l-.33-.3a.17.17 0 0 1-.04-.05c-.07-.14-.22-.16-.35-.2a.1.1 0 0 1-.06-.04.2.2 0 0 1-.02-.19c-.42-.3-.77-.3-1.04-.03-.03.2 0 .3.07.33a.15.15 0 0 0-.07.07c-.06.15-.15.15-.23.26l-.23.27a.1.1 0 0 0 0 .1l.02.02c-.06.23-.05.46.03.67-.04.01-.06.04-.06.1 0 .06.02.1.06.13l.48.43c.09.07.16.07.22-.01.24.1.48.1.72 0-.01.04 0 .06.05.06l.11-.01c.12.03.2.03.26 0 .21.04.4-.15.47-.3.02-.05.02-.09 0-.12a.08.08 0 0 1 .08 0c.02 0 .03.02.04.05.03.1.03.19 0 .26-.08.17-.13.28-.14.34-.2-.11-.65-.19-.75.1v.06c.13.2.35.14.55.16a.97.97 0 0 1-.32.64l-.27.25c-.14.14-.3.26-.48.36l-.8.44c-.08.03-.18.07-.32.1-.02-.28.21-.24.25-.43.21-.02.38-.08.5-.16.21-.16.36-.38.43-.64.02-.06.04-.11.08-.15l.1-.14a.41.41 0 0 1 .23-.17l.02-.01a.05.05 0 0 0 .01-.07l-.1-.17c-.16-.22-.3-.22-.42 0l-.03.02a.09.09 0 0 1-.04.02l-.46.02H7.5l-.4-.03a.09.09 0 0 1-.06-.03l-.07-.1a.16.16 0 0 0-.22-.03.16.16 0 0 0-.05.07l-.04.07c-.06-.03-.1-.03-.16.01.03-.06.02-.12-.03-.17-.17-.17-.55-.15-.73 0-.05-.14-.14-.34-.13-.5 0-.1.04-.14.12-.13 0 .07.04.14.11.22.12.13.25.18.4.16.06 0 .12 0 .18-.03.05.01.1.02.15 0h.03v-.03c.02-.05 0-.08-.03-.1h.05c-.03.07 0 .12.08.14.22.06.44.04.65-.04 0 .1.07.1.22.02.1-.05.2-.16.33-.31.05-.08.17-.14.2-.24 0-.05-.01-.09-.06-.1.1-.2.1-.42.03-.66 0-.18-.11-.35-.33-.5-.06-.05-.1-.12-.12-.23.04-.06.03-.16-.02-.3.01-.12-.07-.2-.24-.23.05-.03.07-.08.06-.17 0-.06-.06-.09-.15-.08a.26.26 0 0 1-.2.03c.01-.04.04-.07.08-.07l.03-.03c.01-.01.02-.02.01-.04-.01-.1-.07-.12-.17-.09a.95.95 0 0 1 .42-.07Z" fill="#9FE51E"/><path d="M11.7 6.57c.07.1.16.15.28.13l-.01.1c0 .02-.02.03-.04.03-.05 0-.1 0-.13-.04-.02-.02-.03-.02-.05.01a.17.17 0 0 0 0 .15l-.2-.09a.13.13 0 0 1-.06-.04.47.47 0 0 0-.34-.2.2.2 0 0 1-.1-.05.18.18 0 0 1-.06-.08.16.16 0 0 0-.11-.1.08.08 0 0 1-.05-.04c-.03-.06-.03-.11.02-.16a.4.4 0 0 1 .27.03l.12.1a.4.4 0 0 0 .15.08c.08.03.18.08.3.17Z" fill="#079C4D"/><path d="M7.26 6.39c-.12.04-.13.13-.04.26l-.27.03c-.22.04-.35.17-.39.4l-.07.04c-.24 0-.27.13-.4.26l-.29.23c-.25-.13.03-.34.13-.45l.3-.21c.12-.05.19-.1.21-.13.12-.18.28-.19.46-.25.03 0 .04-.02.05-.04a.34.34 0 0 1 .12-.1c.06 0 .12 0 .19-.04Z" fill="#6AD013"/><path d="M7.35 6.64a.3.3 0 0 0-.13 0c-.09-.12-.07-.21.04-.25.1 0 .14.02.15.08.01.09 0 .14-.06.17Z" fill="#FAF5CF"/><path d="M10.27 6.6c.07-.02.12-.09.1-.14-.02-.06-.1-.08-.17-.06-.07.03-.12.1-.1.15.02.05.1.08.17.05Z" fill="#FFFCB4"/><path d="M10.62 6.65a.05.05 0 0 1-.03-.01.04.04 0 0 1-.02-.04v-.08c0-.03 0-.06.03-.09a.12.12 0 0 1 .08-.03h.04c.03 0 .06 0 .09.02.02.03.03.05.03.08v.1a.04.04 0 0 1 0 .02.05.05 0 0 1-.04.02h-.18Z" fill="#FAF5CF"/><path d="M7.78 6.4h-.07a.08.08 0 0 0-.08.08v.04c0 .05.03.08.08.08h.07c.04 0 .08-.03.08-.07v-.04a.08.08 0 0 0-.08-.09Z" fill="#FFFCB4"/><path d="M7.22 6.65a.3.3 0 0 1 .13 0c.17.03.25.1.24.22a4.93 4.93 0 0 0-.92.02.13.13 0 0 0-.07.08v.05c0 .03 0 .04-.04.05.04-.22.17-.35.4-.39l.26-.03Z" fill="#079C4D"/><path d="M9.79 6.92a.83.83 0 0 0-.28.26l-.02.02a.05.05 0 0 1-.06-.01l-.01-.03c-.02-.16.08-.2.2-.26a.4.4 0 0 1 .14-.05c.14-.01.15.01.03.07Z" fill="#FAF5CF"/><path d="M11.4 6.86a.2.2 0 0 0 0 .2.1.1 0 0 0 .07.04c.13.03.28.05.35.19 0 .02.02.03.04.05l.32.3a.2.2 0 0 1 .07.2c0 .04-.05.05-.11.04-.18-.17-.35-.4-.56-.52-.1-.05-.18-.1-.26-.17a.12.12 0 0 0-.08-.03h-.82c-.08-.03-.1-.13-.07-.33l1.04.03ZM7.59 6.87c.05.14.06.24.02.3-.3-.03-.6-.03-.9 0a.13.13 0 0 0-.06.04c-.08.07-.17.13-.27.18-.14.07-.21.2-.35.28a.11.11 0 0 0-.05.06.24.24 0 0 1-.17.14c-.06 0-.09-.03-.09-.1.01-.08.03-.13.08-.16l.29-.23c.13-.13.16-.26.4-.26.02 0 .04-.02.07-.05.03 0 .04-.02.04-.05a.13.13 0 0 1 .03-.1.13.13 0 0 1 .1-.05c.27-.03.56-.03.86 0Z" fill="#050118"/><path d="M7.6 7.17c.03.11.07.18.13.22.22.16.33.33.33.5l-.48-.45a.11.11 0 0 0-.06-.03 3.06 3.06 0 0 0-.83-.02.09.09 0 0 0-.05.03.08.08 0 0 0-.03.05c0 .08-.04.13-.11.16a.14.14 0 0 0-.07.04l-.2.24a.12.12 0 0 0-.04.06c-.03.18-.02.35.03.52v.21c0 .03.01.04.03.06l.06.03c.03 0 .04.02.05.05.04.1.1.18.2.24.03.03.05.06.04.1l-.01.03-.03.02-.15-.01-.28-.32c-.04-.05-.09-.06-.14-.09a.09.09 0 0 1-.04-.05.3.3 0 0 0-.2-.2c-.06-.27-.04-.5.06-.69a.24.24 0 0 0 .17-.14.11.11 0 0 1 .05-.06c.14-.08.2-.21.35-.28.1-.05.19-.11.27-.18a.13.13 0 0 1 .07-.03c.29-.04.58-.04.89-.01Z" fill="#FCFCED"/><path d="M5.93 7.16c-.1.1-.38.32-.13.45-.05.03-.07.08-.08.16 0 .07.03.1.09.1-.1.19-.12.42-.07.7-.03.14 0 .22.09.25-.05-.02-.08 0-.11.05-.08-.01-.11.04-.12.14 0 .15.08.35.13.5 0 .1.05.2.15.3.2.46.51.83.94 1.11.36.23.79.46 1.29.67.02.12.1.16.25.14v.09h-.7a.77.77 0 0 1-.46-.11c-.16-.1-.32-.18-.47-.26a1.4 1.4 0 0 1-.33-.24c-.1-.1-.2-.19-.31-.26a.55.55 0 0 1-.16-.17c-.05-.09-.14-.12-.2-.21a7.52 7.52 0 0 0-.3-.61 34.32 34.32 0 0 0 0-1.88c.02-.17.14-.32.17-.45a.67.67 0 0 1 .33-.47Z" fill="#198899"/><path d="M10.42 7.16h.82c.03 0 .06.01.08.03.08.07.16.12.25.17.22.11.4.35.57.52.16.12.1.51.1.64l-.72.73a.66.66 0 0 1-.11.01c-.05 0-.06-.02-.05-.06l.06-.12c.2-.17.3-.36.34-.57.06-.25.06-.45-.02-.6-.04-.08-.14-.2-.3-.34a.14.14 0 0 1-.04-.06.14.14 0 0 0-.13-.1 4.9 4.9 0 0 0-.84-.02.08.08 0 0 0-.06.03c-.03.04-.04.1-.02.16 0 .02.02.03.04.03.1.01.18.07.24.17 0 .02.03.04.05.05l.1.05a.09.09 0 0 1 .02.15l-.27.23a.1.1 0 0 1-.1.03.1.1 0 0 1-.07-.07c-.02-.08-.08-.12-.16-.14a.1.1 0 0 1-.07-.04.24.24 0 0 1-.04-.13c0-.04.06-.06.16-.06.07 0 .1-.02.1-.1V7.7c0-.05-.02-.08-.08-.07-.2 0-.13.16-.24.22l-.12.03-.03-.02a.1.1 0 0 1 .01-.1l.23-.27c.08-.11.17-.1.23-.26a.15.15 0 0 1 .07-.07Z" fill="#FCFCED"/><path d="M8.06 7.9c.07.24.06.46-.03.65-.08.03-.14.08-.17.14a.2.2 0 0 1-.05.05 1.1 1.1 0 0 0-.17.2c-.1.13-.3.05-.3.25-.21.08-.43.1-.65.04-.09-.02-.1-.07-.08-.15.1-.05.16-.12.15-.2 0-.03-.02-.05-.04-.05l-.25-.05a.1.1 0 0 1-.06-.04l-.2-.25a1.1 1.1 0 0 1-.02-.52l.03-.06.21-.24a.14.14 0 0 1 .06-.04.16.16 0 0 0 .12-.16c0-.02.01-.03.03-.05a.09.09 0 0 1 .05-.03c.28-.03.55-.02.82.02.03 0 .05.02.06.03l.5.46ZM11.76 8.51a.35.35 0 0 0-.17.2.09.09 0 0 1-.07.07.1.1 0 0 1-.1-.03l-.16-.18c0-.04-.03-.07-.08-.09-.2-.06-.3.13-.2.27 0 .08.01.16.05.23l.05.04.34.06-.06.12c-.24.1-.48.1-.72 0a.33.33 0 0 0-.15-.17.3.3 0 0 1-.06-.04l-.3-.27a.33.33 0 0 0-.2-.17 1.1 1.1 0 0 1-.02-.67l.12-.03.06.06c0 .05.01.1.04.13a.1.1 0 0 0 .07.04c.08.02.14.06.16.14 0 .02.01.03.03.04a.1.1 0 0 0 .1.03.1.1 0 0 0 .04-.03l.27-.23a.09.09 0 0 0 .03-.08.09.09 0 0 0-.05-.07l-.1-.05a.12.12 0 0 1-.05-.05.3.3 0 0 0-.24-.17.05.05 0 0 1-.04-.03c-.02-.07-.01-.12.02-.16a.08.08 0 0 1 .06-.03c.31-.02.6-.01.84.01.06.01.1.04.13.1 0 .03.02.05.04.07.16.14.26.26.3.34.08.15.08.35.02.6Z" fill="#050118"/><path d="M8.72 7.53c.06.06.13.08.15.06.02-.03-.01-.1-.08-.14-.06-.06-.13-.08-.15-.06-.02.03.01.09.08.14ZM9.3 7.53c.05-.04.09-.1.07-.12-.02-.03-.09-.01-.15.03s-.1.1-.07.12c.01.03.08.01.14-.03Z" fill="#F8D68C"/><path d="M9.64 11.81c0-.01 0-.03.02-.05.06 0 .1-.01.14-.04l.02-.06c0-.03 0-.06.02-.07.14-.03.25-.07.31-.1l.8-.44c.19-.1.35-.22.49-.36l.27-.25a.97.97 0 0 0 .32-.64c.14-.07.2-.17.2-.32.01-.06.06-.17.14-.34a.36.36 0 0 0 0-.26c0-.03-.02-.05-.04-.06a.08.08 0 0 0-.09 0l-.06-.01h.03c.02 0 .02-.02.02-.03v-.26c.01-.13.07-.52-.1-.64.08.01.11 0 .12-.05a.2.2 0 0 0-.07-.2c.08-.07.12-.14.11-.19l.22.53c.02.06.04.12.04.18l-.01 1.64c0 .25-.16.5-.28.72a.5.5 0 0 1-.15.17c-.1.08-.14.19-.24.26-.21.18-.39.38-.64.51l-.49.28c-.23.15-.78.1-1.1.08Z" fill="#198899"/><path d="M5.19 8.6a.7.7 0 0 1-.3-.01.06.06 0 0 1-.04-.05l-.03-.06a.06.06 0 0 0-.04-.04 1.1 1.1 0 0 0-.35-.06l-.04-.01a.07.07 0 0 1-.03-.05l-.05-.63c.06-.06.17-.08.33-.07.22.02.19.15.22.3 0 .02 0 .04.02.05a.1.1 0 0 0 .06.03l.22.03c.03 0 .05.02.05.05l-.02.51Z" fill="#F8D68C"/><path d="M6.54 8.1h-.08a.07.07 0 0 1-.05-.05c-.03-.05-.03-.1.01-.15a.14.14 0 0 1 .08-.04c.09-.02.13-.07.13-.15a.07.07 0 0 1 .03-.06.11.11 0 0 1 .12 0 .12.12 0 0 1 .06.07.2.2 0 0 0 .16.16c.01 0 .03 0 .04.02l.02.04a.08.08 0 0 1-.03.08c-.09.07-.16.16-.23.25a.07.07 0 0 1-.05.03c-.09 0-.14-.04-.15-.13a.07.07 0 0 0-.02-.04.08.08 0 0 0-.04-.02Z" fill="#FCFCED"/><path d="m10.1 7.91-.06-.06c.1-.06.03-.22.23-.22.06 0 .09.02.09.07v.06c0 .07-.04.1-.11.1-.1-.01-.15 0-.16.05Z" fill="#090515"/><path d="M13.66 8.11a.5.5 0 0 0-.07.18c-.01.02-.03.04-.05.04-.17.06-.26.06-.4.2-.08.09-.23.08-.35.06l.01-.51v-.02a.06.06 0 0 1 .04-.03h.02c.09 0 .16-.02.23-.05a.08.08 0 0 0 .04-.05c.05-.18 0-.29.25-.32.18-.02.28.06.29.23l-.01.27Z" fill="#F8D68C"/><path d="m4.31 7.69.05.63c0 .02.01.04.03.05 0 0 .03.02.04.01.13 0 .24.02.35.06.02 0 .03.02.04.04l.03.06c0 .03.02.04.04.05.1.02.2.02.3 0 .02.07.02.13 0 .19l-.03.02-.03.02c-.18.02-.35.02-.52 0a.06.06 0 0 1-.05-.04.65.65 0 0 0-.2-.25.1.1 0 0 1-.04-.05 1.67 1.67 0 0 1 0-.79ZM13.66 8.11l-.05.38a.1.1 0 0 1-.03.05l-.15.15c-.14-.14-.23-.1-.25.13h-.33a.05.05 0 0 1-.05-.03.33.33 0 0 1 0-.2c.1.02.26.03.35-.06.13-.14.22-.14.39-.2.02 0 .04-.02.05-.04a.5.5 0 0 1 .07-.18Z" fill="#954B67"/><path d="M11.26 8.57c.02.18-.12.23-.27.18-.1-.14 0-.33.2-.27.04.02.07.05.07.1Z" fill="#7CE5AA"/><path d="M6.61 9.08h-.05a.52.52 0 0 1-.2-.24.08.08 0 0 0-.05-.05.23.23 0 0 1-.06-.03.06.06 0 0 1-.03-.06v-.2l.2.24a.1.1 0 0 0 .05.04l.25.05c.02 0 .03.02.04.04 0 .1-.04.16-.15.21ZM11.76 8.51a.97.97 0 0 1-.34.57l-.34-.06a.07.07 0 0 1-.05-.04.36.36 0 0 1-.04-.23c.15.05.29 0 .27-.18l.17.18a.1.1 0 0 0 .09.03.09.09 0 0 0 .07-.06.35.35 0 0 1 .17-.21Z" fill="#0F4A9E"/><path d="M12.23 8.52v.26c0 .01 0 .02-.02.02l-.03.01c-.23.13-.37.27-.4.43-.06.04-.14.04-.26 0l.71-.72ZM6.4 9.22a.33.33 0 0 1-.17.03l-.4-.43c-.1-.03-.12-.11-.09-.26.1.04.18.1.2.2l.05.05c.05.03.1.04.14.09l.28.32Z" fill="#76B3DF"/><path d="M8.04 8.55c.04.02.06.06.04.11-.02.1-.13.16-.2.24-.11.15-.22.26-.32.31-.15.08-.22.07-.22-.02 0-.2.2-.12.3-.25.05-.07.1-.14.17-.2a.2.2 0 0 0 .05-.05c.03-.06.09-.1.18-.14ZM9.94 8.55c.08.04.14.09.18.16l.01.01.3.27a.3.3 0 0 0 .06.04c.07.04.12.1.15.17-.06.08-.13.08-.22.01a8.45 8.45 0 0 1-.48-.43.19.19 0 0 1-.06-.12c0-.07.02-.1.06-.1Z" fill="#FCFCED"/><path d="M8.7 8.99c.07 0 .14-.03.15-.1.01-.05-.04-.11-.12-.13-.07-.01-.14.03-.15.1-.01.05.04.11.11.13Z" fill="#FAF5CF"/><path d="M9.18 8.9c0 .08.03.15.08.16.06 0 .1-.06.12-.13 0-.08-.03-.15-.08-.16-.06 0-.1.06-.12.14Z" fill="#FFFCB4"/><path d="m5.83 8.82.4.43c-.14.02-.28-.03-.4-.16a.4.4 0 0 1-.11-.22c.03-.05.07-.07.1-.05Z" fill="#090515"/><path d="M12.18 8.81c.02 0 .04 0 .06.02.03.03.03.07.01.12-.08.15-.26.34-.47.3.03-.17.17-.31.4-.44Z" fill="#050118"/><path d="M8.12 9.2a.05.05 0 0 1 0-.07l.06-.07c.04-.05.1-.09.17-.1a.2.2 0 0 1 .17.04l.02.01c.05.04.07.1.07.16a.3.3 0 0 1-.07.18l-.06.08-.03.01H8.4l-.29-.24ZM9.42 9.06l.08-.09a.13.13 0 0 1 .17-.01l.12.1a.12.12 0 0 1 .05.08.11.11 0 0 1-.04.09l-.15.17a.13.13 0 0 1-.18 0 .12.12 0 0 1-.03-.05l-.05-.18a.11.11 0 0 1 .03-.11Z" fill="#090515"/><path d="M12.79 9.95v-.78a.12.12 0 0 1 .03-.09.13.13 0 0 1 .1-.03 4.35 4.35 0 0 0 .71.01.04.04 0 0 1 .02.04v.51c0 .04-.01.08-.04.11a.16.16 0 0 1-.1.05l-.25.02c-.13.02-.16.15-.28.18a.6.6 0 0 1-.15.03.05.05 0 0 1-.03-.02.04.04 0 0 1-.01-.03Z" fill="#B97769"/><path d="m4.33 9.14-.02.07.02.23c0 .03.02.06.05.09.02.02.06.03.1.03h.57a.15.15 0 0 0 .1-.04.14.14 0 0 0 .05-.1l-.01-.19c-.1.13-.29.22-.54.27h-.03l-.02-.03-.02-.04V9.4l.03-.02.16-.05.03-.02.01-.03.03-.13a.07.07 0 0 1 .05-.05.48.48 0 0 1 .1-.03h-.6a.19.19 0 0 0-.06.07Z" fill="#F8D68C"/><path d="M5.15 9.07c.03-.01.05.01.05.07l-.01.1c-.1.12-.29.2-.54.26h-.03l-.02-.03-.02-.04V9.4l.03-.02.16-.05.03-.02.01-.03.03-.13a.07.07 0 0 1 .04-.05.51.51 0 0 1 .27-.03ZM13.06 9.08H13a.1.1 0 0 0-.1.1v.12c0 .05.04.1.1.1h.07a.1.1 0 0 0 .1-.1v-.12a.1.1 0 0 0-.1-.1Z" fill="#FAF5CF"/><path d="m4.31 9.21.02.23c0 .03.02.06.05.09.02.02.06.03.1.03h.57a.15.15 0 0 0 .1-.04.14.14 0 0 0 .05-.1v-.28.8l-.01.02-.03.02c-.14.02-.24-.02-.32-.12a.11.11 0 0 0-.07-.05c-.32-.04-.47.03-.5-.36-.02-.08 0-.16.04-.24Z" fill="#954B67"/><path d="M6.5 9.67a.32.32 0 0 1-.27.11c-.13 0-.24 0-.34.03-.1-.1-.15-.2-.16-.3.18-.16.56-.18.73 0 .05.04.06.1.03.16ZM12.23 9.48c0 .15-.06.25-.2.32-.2-.02-.42.05-.55-.16a.07.07 0 0 1 0-.07c.1-.28.55-.2.75-.1Z" fill="#FD706B"/><path d="m7.49 9.71.1.02c.02 0 .03.01.03.04s0 .06.02.1l.05.02c1.3.02 2.14.02 2.54 0 .07 0 .14-.06.18-.18l.46-.02.04-.02.03-.03c.12-.21.26-.2.41 0-.1.08-.14.15-.15.23v.2l-.1.14a.43.43 0 0 0-.08.15c-.07.26-.22.48-.43.64-.04-.13-.17-.22-.4-.3a.07.07 0 0 0-.09.07c0 .1-.06.16-.17.19a.04.04 0 0 1-.04 0 .04.04 0 0 1-.01-.04l-.02-.26c0-.03-.02-.06-.06-.07a.4.4 0 0 1-.17-.1c-.1-.12-.3-.12-.43-.1a.1.1 0 0 0-.04.02.09.09 0 0 0-.03.03l-.08.14-.02.03a.07.07 0 0 1-.08 0 .07.07 0 0 1-.02-.03.39.39 0 0 1-.06-.14c0-.03-.02-.04-.05-.05a.9.9 0 0 0-.37.01.1.1 0 0 0-.06.05.29.29 0 0 1-.22.14.06.06 0 0 0-.05.06l-.03.2a.1.1 0 0 1-.02.04.1.1 0 0 1-.15 0 .26.26 0 0 1-.07-.17.05.05 0 0 0-.02-.04l-.03-.01h-.02c-.11.03-.13.12-.22.18a.7.7 0 0 1-.2.1.8.8 0 0 1-.37-.56c-.03-.17-.2-.25-.23-.44.03-.14 0-.24-.1-.29l.02-.07a.16.16 0 0 1 .27-.03l.08.1.07.02.39.03Z" fill="#050118"/><path d="M6.64 9.65a.28.28 0 0 0-.14.2c0 .02 0 .04.03.05.07.03.14.04.23.05.04.19.2.27.23.44.03.23.16.41.37.56.1.2.28.12.45.2.05.07.11.13.19.17.07.04.1.07.11.1v.17c-.5-.21-.93-.44-1.3-.67a2.42 2.42 0 0 1-.93-1.11c.11-.02.22-.03.34-.03.11 0 .2-.03.27-.1.05-.05.1-.05.15-.03Z" fill="#6AD013"/><path d="M11.2 10.07v-.2c0-.08.06-.15.15-.22l.11.17a.05.05 0 0 1 0 .07h-.03c-.1.04-.18.1-.23.18ZM6.65 9.65v.01c.1.05.14.15.1.29a.61.61 0 0 1-.22-.05c-.02-.01-.03-.03-.02-.05a.28.28 0 0 1 .14-.2Z" fill="#068B57"/><path d="M10.41 9.71c-.04.12-.1.17-.18.18-.4.02-1.25.02-2.54 0a.06.06 0 0 1-.05-.03.14.14 0 0 1-.02-.09c0-.03 0-.04-.04-.04L7.5 9.7h2.92Z" fill="#079C4D"/><path d="M7.38 10.22V10c0-.05.02-.07.08-.07a.2.2 0 0 1 .14.01c.03.01.04.03.04.06v.22a.1.1 0 0 1-.05.08.11.11 0 0 1-.09.03c-.07-.02-.11-.06-.12-.12ZM10.73 9.93c-.07-.02-.12.08-.13.3l-.01.03a.12.12 0 0 1-.11.06.13.13 0 0 1-.11-.06.32.32 0 0 1-.02-.25c0-.03.02-.04.04-.05a.78.78 0 0 1 .34-.03Z" fill="#FCFCED"/><path d="M10.59 11c-.13.08-.29.14-.5.16 0-.01 0-.03-.02-.05-.02-.02-.04-.03-.06-.02a.1.1 0 0 1-.08 0c-.06-.02-.1 0-.14.04-.13.2-.19.4-.15.61 0 .01 0 .02.02.02a.07.07 0 0 0-.02.05c-.14.04-.23.1-.28.2a.1.1 0 0 1-.07.05c-.2.03-.41.03-.62 0a.07.07 0 0 1-.05-.05.2.2 0 0 1-.02-.1c0-.02-.01-.04-.03-.05a.3.3 0 0 0-.22-.04l.01-.1a.8.8 0 0 0-.17-.58.1.1 0 0 0-.06-.03.43.43 0 0 0-.32.04c-.17-.08-.34 0-.45-.2a.7.7 0 0 0 .2-.1c.09-.06.1-.15.22-.18a.06.06 0 0 1 .05 0l.01.03.01.02c0 .07.03.13.07.18a.1.1 0 0 0 .1.02.1.1 0 0 0 .05-.03.1.1 0 0 0 .02-.05l.03-.2a.06.06 0 0 1 .05-.05c.1-.01.17-.06.22-.14a.1.1 0 0 1 .06-.05.9.9 0 0 1 .37 0c.03 0 .05.01.05.04.01.05.03.1.06.14 0 .02.01.02.02.03a.07.07 0 0 0 .08 0l.02-.03.08-.14c0-.02.01-.03.03-.03a.1.1 0 0 1 .04-.02c.14-.02.33-.02.43.1.05.04.1.08.17.1.04.01.06.04.06.07l.02.26a.04.04 0 0 0 .01.03l.02.01h.02c.1-.03.16-.1.17-.2l.01-.02.02-.02a.07.07 0 0 1 .06-.01c.23.07.36.16.4.3Z" fill="#A6296D"/><path d="M8.61 11.6c-.1-.1-.22-.12-.23-.28a5.35 5.35 0 0 1 0-.52c0-.12.05-.17.16-.16.1 0 .2.04.3.11a.1.1 0 0 1 .04.07l.04.2c.03.11.06.12.12 0 .04-.08.03-.17.1-.25.11-.1.24-.15.37-.14a.1.1 0 0 1 .06.02.1.1 0 0 1 .03.06c.03.23.03.47 0 .71 0 .07-.04.1-.1.12a.2.2 0 0 0-.13.06.14.14 0 0 1-.06.04c-.17.05-.54.09-.7-.04Z" fill="#FD706B"/><path d="M12.94 10.91c-.1 0-.14.04-.14.12l-.5-.15a.04.04 0 0 1-.02-.02.03.03 0 0 1 0-.03c.16-.32.48-.1.66.08Z" fill="#068B57"/><path d="M12.94 10.91c.09.15.19.29.33.4.1.08.14.2.14.34v.76c0 .03-.02.04-.05.05a.15.15 0 0 1-.14-.06 2.4 2.4 0 0 1-.24-.33.08.08 0 0 0-.06-.04c-.36-.04-.52.16-.73.38a.08.08 0 0 1-.09.02.08.08 0 0 1-.02-.02.81.81 0 0 0-.36-.21.15.15 0 0 1-.06-.05c-.12-.14-.44-.13-.61-.14-.03 0-.04-.02-.05-.04 0-.05.01-.08.05-.1.08-.06.12-.1.13-.14.1.16.36-.04.47.2.01.03.03.04.05.05.07.04.14.05.22.04.04.04.07.09.1.15 0 .03.02.04.04.04.09.02.15-.01.19-.1 0-.02.03-.04.05-.05l.15-.07a.06.06 0 0 0 .04-.05c0-.03.01-.06.04-.08a.1.1 0 0 1 .07-.02h.35c.03 0 .04.02.05.05l.06.1a.04.04 0 0 0 .05 0 .04.04 0 0 0 .03-.02.42.42 0 0 0-.01-.27v-.2c.03-.1 0-.16-.11-.19a.08.08 0 0 1-.05-.03l-.17-.25c0-.08.04-.12.13-.12Z" fill="#079C4D"/><path d="M5.2 11.03a6.45 6.45 0 0 1-.3.3c-.04.04-.06.1-.05.2a.31.31 0 0 0 0 .18c-.05.14-.05.24 0 .3-.02.19-.11.26-.29.2v-.07c-.02-.2-.04-.48.02-.68.02-.05.06-.1.13-.15.14-.1.26-.23.36-.38.08-.14.2-.23.36-.26.08-.02.15 0 .22.06l.02.02c.04.06.03.1-.04.13l-.44.14Z" fill="#6AD013"/><path d="M5.73 11.16a.43.43 0 0 0 0 .18.06.06 0 0 0 .03.05.3.3 0 0 1 .2.16.1.1 0 0 0 .05.05c.1.05.2.05.3 0 .2.02.4-.01.51.2l-.36.01a.1.1 0 0 0-.07.03.1.1 0 0 0-.03.07c-.01.09-.07.12-.19.1l-.12-.04c-.06 0-.1-.04-.1-.1-.02-.09-.06-.13-.14-.13a.08.08 0 0 0-.06.04c-.06.09-.14.13-.25.13l-.05-.07c.03-.04.04-.07.03-.1a.1.1 0 0 0-.07-.07.59.59 0 0 1-.24-.15.08.08 0 0 0-.11 0 .07.07 0 0 0-.02.04c-.01.06-.02.12-.09.15-.05.03-.08.03-.1 0a.31.31 0 0 1 0-.19l.1.01c.02 0 .04-.02.04-.04L5 11.4c0-.02.01-.04.03-.05a3.28 3.28 0 0 1 .6-.38.1.1 0 0 1 .09.05l.01.04v.1ZM13.14 11.5l-.01.2a.17.17 0 0 1-.1.03.06.06 0 0 1-.04-.04l-.05-.15a.07.07 0 0 0-.05-.05.08.08 0 0 0-.08.02l-.4.36a.08.08 0 0 1-.07.02.09.09 0 0 1-.06-.04.13.13 0 0 0-.05-.05.12.12 0 0 0-.16 0c-.12.1-.17.18-.15.22a.46.46 0 0 1-.22-.04.09.09 0 0 1-.05-.04c-.11-.25-.38-.05-.47-.21.13-.1.32-.14.57-.1.07.01.14 0 .2-.04a.11.11 0 0 0 .05-.05c.04-.07.1-.12.18-.15.08-.02.1-.06.08-.14-.03-.08-.03-.14-.02-.19.07-.07.15-.08.25-.03.23.14.39.26.46.35.06.09.12.13.19.12Z" fill="#A6296D"/><path d="M12.24 11.06c-.01.05 0 .11.02.2.03.06 0 .11-.08.13a.27.27 0 0 0-.18.15.11.11 0 0 1-.04.05.31.31 0 0 1-.21.04.23.23 0 0 1-.09-.04c-.02-.02-.02-.03 0-.05.06-.07.1-.14.13-.21 0 .04.02.06.08.06.04 0 .06-.01.08-.05l.05-.15.24-.13Z" fill="#068B57"/><path d="M10.1 11.16c-.05.2-.29.15-.26.43l-.02.06c0 .04-.01.06-.03.07-.03.03-.07.05-.13.04-.01 0-.02 0-.02-.02a.82.82 0 0 1 .15-.61c.04-.05.08-.06.14-.04a.1.1 0 0 0 .08 0c.02 0 .04 0 .06.02.02.02.02.04.02.05ZM8.36 11.73c-.15.02-.23-.02-.25-.14a.44.44 0 0 0 0-.17c0-.03-.04-.06-.11-.1a.51.51 0 0 1-.2-.17c.1-.06.21-.07.33-.04a.1.1 0 0 1 .06.03c.14.18.2.37.17.59Z" fill="#090515"/><path d="M6 11.2c-.03.16.07.24.23.2.04.05.07.11.08.2-.1.05-.2.05-.3 0a.1.1 0 0 1-.05-.05.3.3 0 0 0-.2-.16.06.06 0 0 1-.04-.05l.01-.18c.1-.01.2 0 .28.03Z" fill="#068B57"/><path d="M6.23 11.4c-.16.04-.26-.04-.22-.2.13 0 .2.07.22.2ZM12 11.19l-.05.15c-.02.04-.04.05-.08.05-.06 0-.08-.02-.08-.06.02-.08.09-.13.2-.14Z" fill="#A6296D"/><path d="M12.4 11.58c.07-.02.11-.07.1-.1-.02-.05-.08-.06-.14-.04-.06.02-.1.07-.09.1.01.05.08.06.14.04ZM5.45 11.84h-.39l-.06.03a.15.15 0 0 0-.04.08l-.01.04-.03.02h-.08c-.04-.06-.04-.16 0-.3.03.03.06.03.11 0 .07-.03.08-.09.09-.16a.08.08 0 0 1 .06-.05.08.08 0 0 1 .07.02c.07.07.15.12.24.15a.1.1 0 0 1 .07.07c0 .03 0 .06-.03.1ZM13.13 11.7c.03.07.03.16 0 .27v.02a.04.04 0 0 1-.05 0h-.02a.22.22 0 0 1-.06-.1c0-.03-.02-.04-.05-.04h-.35a.1.1 0 0 0-.07.01.1.1 0 0 0-.05.08.06.06 0 0 1-.03.05l-.15.07a.09.09 0 0 0-.05.05c-.04.09-.1.12-.19.1a.06.06 0 0 1-.05-.04.28.28 0 0 0-.1-.15c0-.04.04-.11.16-.21.05-.04.1-.05.15-.01.03 0 .04.03.06.05a.08.08 0 0 0 .06.04.09.09 0 0 0 .07-.02l.4-.36a.08.08 0 0 1 .07-.02.08.08 0 0 1 .06.05l.05.15a.06.06 0 0 0 .05.04l.09-.03ZM6.17 12c-.12 0-.21.05-.26.16a.1.1 0 0 1-.05.06c-.04.02-.08.02-.11-.01a.1.1 0 0 1-.04-.07c0-.08-.05-.13-.13-.14a.1.1 0 0 1-.06-.03c-.02-.02-.03-.04-.02-.06.11 0 .2-.04.25-.13a.08.08 0 0 1 .06-.04c.08 0 .12.04.14.13 0 .06.04.1.1.1l.12.03Z" fill="#F6A15B"/><path d="M6.82 11.8c.05.01.1.04.13.07.04.04.05.07.03.11 0 .02-.02.04-.04.04l-.47.04-.04.02a.55.55 0 0 1-.29.16c-.12.03-.19.1-.27.17-.03.03-.05.03-.08 0-.14-.1-.25-.2-.35-.33a.1.1 0 0 0-.06-.04c-.38-.1-.46.24-.7.4a.08.08 0 0 1-.08 0 .08.08 0 0 1-.05-.05.42.42 0 0 1 .01-.18c.18.06.27-.01.28-.2h.08l.03-.02.01-.04c0-.03.02-.05.04-.08a.08.08 0 0 1 .06-.02h.4l.04.06c0 .02 0 .04.02.06a.1.1 0 0 0 .06.03c.08.01.12.06.13.14 0 .03.02.05.04.07.03.03.07.03.11 0a.1.1 0 0 0 .05-.05c.05-.1.14-.16.26-.16.12.03.18 0 .18-.1a.1.1 0 0 1 .04-.06.1.1 0 0 1 .07-.03h.36Z" fill="#079C4D"/><path d="M9.85 12.07c0 .09.01.17.05.24 0 .02.02.03.04.04.08.03.12.08.14.14.02.08.02.24.01.48 0 .04-.07.05-.18.04l-.03-.35c-.01-.07-.05-.1-.12-.08-.08.02-.17.06-.25.1a1.3 1.3 0 0 1-.76.08c-.18-.03-.36-.13-.55-.19a.58.58 0 0 0-.3.01.2.2 0 0 1 0-.13c0-.02.02-.03.04-.04.14-.07.2-.18.2-.34.15 0 .3 0 .43.03.03 0 .04.03.04.06 0 .07.04.1.11.12.19.04.4.03.58 0a.1.1 0 0 0 .09-.07c.06-.18.3-.16.46-.14Z" fill="#B97769"/><path d="m11.4 13.32-.12-.03a.07.07 0 0 1-.05-.04c-.08-.17-.26-.2-.3-.4a.09.09 0 0 0-.03-.05.58.58 0 0 0-.18-.09.17.17 0 0 1-.07-.04.9.9 0 0 0-.11-.1.13.13 0 0 0-.12-.03.12.12 0 0 0-.08.08v.06a6.24 6.24 0 0 0 .05.58.1.1 0 0 0 .06.03c.1.01.15.06.18.14 0 .02.01.03.03.05a.3.3 0 0 0 .19.07c.05 0 .08-.03.1-.07 0 .09-.01.17-.05.24a.63.63 0 0 1-.29 0c.05-.08 0-.15-.13-.18-.07-.02-.11.01-.13.08l.01.1a.65.65 0 0 1-.28.01l.01-.55c.01-.04.06-.05.14-.05.03 0 .04 0 .04-.04v-.02a.05.05 0 0 0-.03-.05h-.02c-.08 0-.12-.01-.13-.05.01-.24 0-.4-.01-.48-.02-.06-.06-.1-.14-.14a.09.09 0 0 1-.04-.04.54.54 0 0 1-.05-.24c.14-.02.25.03.4.02.1 0 .3-.06.35.06.06.13.2.27.3.39.04.06.05.12.07.2l.03.06c.2.14.33.32.4.52ZM8.14 12.07c0 .16-.06.27-.2.33a.08.08 0 0 0-.04.05.2.2 0 0 0 0 .13l-.02.42c-.04.03-.1.03-.18.02a.44.44 0 0 1-.06-.26v-.15a.06.06 0 0 0-.04-.05c-.07-.05-.14-.04-.2.02-.11.08-.22.16-.33.22a.09.09 0 0 0-.04.06l-.03.1c0 .03-.02.05-.04.06a.42.42 0 0 0-.2.2.11.11 0 0 1-.05.05.42.42 0 0 1-.17.05c.08-.16.2-.31.35-.45a.3.3 0 0 0 .09-.12c.02-.07.02-.14.08-.2l.27-.3a.14.14 0 0 0 .04-.06.15.15 0 0 1 .06-.09.11.11 0 0 1 .06-.02h.65Z" fill="#068B57"/><path d="M7.64 12.76c-.01.15.03.4-.09.52a.13.13 0 0 1-.08.03c-.1 0-.16.06-.17.16 0 .03-.02.04-.05.05l-.21.01-.03-.17A.07.07 0 0 0 7 13.3a.08.08 0 0 0-.05-.02h-.07c-.05 0-.07.03-.07.08l-.02.34h-.25c.04-.06.04-.2.01-.39.07 0 .12-.02.17-.05a.11.11 0 0 0 .04-.05c.04-.09.11-.16.21-.2a.07.07 0 0 0 .04-.05l.03-.11c0-.02.02-.04.04-.06.11-.06.22-.14.32-.22.07-.06.14-.07.21-.02.03 0 .04.03.04.05v.15Z" fill="#9FE51E"/><path d="M8.2 12.57c-.08.05-.11.2-.11.44L7.88 13l.01-.42a.58.58 0 0 1 .3 0Z" fill="#F9B05D"/><path d="M11.4 13.32c.04.14.06.26.04.37a.57.57 0 0 1-.26 0v-.3a.07.07 0 0 0-.04-.06.13.13 0 0 0-.1-.02.06.06 0 0 0-.05.04l-.05.13c0 .04-.04.07-.1.07a.3.3 0 0 1-.18-.07.1.1 0 0 1-.03-.05c-.03-.08-.08-.13-.18-.14a.1.1 0 0 1-.06-.03 6.23 6.23 0 0 1-.05-.64l.03-.05a.13.13 0 0 1 .17 0 .9.9 0 0 1 .11.1l.07.04c.07.02.13.05.18.1.02 0 .03.02.03.04.04.2.22.23.3.4l.05.04.12.03Z" fill="#9FE51E"/><path d="M9.9 13H8.09c0-.23.04-.38.11-.43.2.06.38.16.56.2.24.03.54.02.76-.1l.25-.09c.07-.02.1 0 .12.08l.03.35Z" fill="#FFFCB4"/><path d="M7.64 12.76c0 .1.02.19.06.26-.02.03-.02.05-.02.07 0 .02.02.03.05.03.06 0 .12 0 .15.03l.02.56a.32.32 0 0 1-.28 0v-.1c0-.04-.02-.06-.06-.06l-.17.02c-.03 0-.05.01-.06.04a.36.36 0 0 1-.07.12c-.12.02-.2 0-.23-.04v-.16l.22-.01c.03 0 .04-.02.05-.05 0-.1.07-.15.17-.16.03 0 .06-.01.08-.03.12-.11.08-.37.09-.52Z" fill="#079C4D"/><path d="M10.1 13.18c-.02-.03-.09-.05-.22-.04h-2c-.03-.02-.09-.03-.15-.02-.03 0-.04 0-.05-.03 0-.02 0-.04.02-.07.08.01.14 0 .18-.02.06.01.13.02.2 0h1.83c.11.02.17 0 .18-.03.01.04.05.06.13.05a.05.05 0 0 1 .05.03v.04c0 .03 0 .04-.04.04-.08 0-.13.01-.14.05Z" fill="#F6A15B"/><path d="M8.15 13.13c-.09.08-.08.15.01.21.06.04.11.06.18.06a.5.5 0 0 1 .33.13c.02.02.04.03.07.03h.5a.1.1 0 0 0 .07-.02c.08-.08.22-.13.44-.16.12-.01.17-.1.13-.24.13 0 .2 0 .21.04l-.01.55-.51.06h-1.2l-.47-.08-.02-.56.27-.02Z" fill="#F9B05D"/><path d="M9.88 13.14c.04.15 0 .23-.13.24-.22.03-.36.08-.44.16a.1.1 0 0 1-.07.02h-.5a.11.11 0 0 1-.07-.03.5.5 0 0 0-.33-.13.32.32 0 0 1-.18-.06c-.1-.06-.1-.13-.01-.2h1.73Z" fill="#FFFCB4"/><path d="M7.04 13.53v.16c-.03.05-.12.05-.26.02l.02-.34c0-.05.02-.07.07-.07h.07l.05.01.02.05.03.17ZM11.17 13.7l-.27.02a.46.46 0 0 0 .04-.24l.05-.13c0-.02.02-.04.04-.04.04-.01.08 0 .11.02.02.01.03.03.03.06v.3ZM10.61 13.73a.57.57 0 0 1-.25 0 .32.32 0 0 1 0-.11c0-.07.05-.1.12-.08.13.03.18.1.13.19ZM7.62 13.72l-.36.01a.36.36 0 0 0 .07-.12c0-.03.03-.04.06-.04l.17-.02c.04 0 .06.02.06.06v.1Z" fill="#090515"/><path d="m9.57 13.79.5-.06c.11.02.2.02.3 0 .06.02.15.02.24 0 .1.02.2.02.29 0l.28-.03c.09.02.17.01.26-.01.21.04.4.01.54-.08l.35.07c.12.03.23 0 .35.03.13.03.13.06 0 .1-.43.1-.87.17-1.31.18l-1.4-.01c-.26 0-.4-.07-.4-.2ZM5.96 13.63l.57.08h.25c.14.03.23.03.25-.02.03.05.1.06.23.04l.36-.01c.1.04.2.04.28 0l.47.06.02.09c0 .03-.02.05-.05.06a14.1 14.1 0 0 1-1.74.05c-.44-.01-.9-.11-1.36-.18l-.02-.02-.02-.02v-.02c0-.03 0-.04.03-.04l.73-.07Z" fill="#7434A3"/><defs><linearGradient id="a" x1="9" y1="0" x2="9" y2="18" gradientUnits="userSpaceOnUse"><stop stop-color="#7FDEAE"/><stop offset="1" stop-color="#9C77E0"/></linearGradient></defs></svg>