<!-- by TradingView --><svg width="18" height="18" viewBox="0 0 18 18" xmlns="http://www.w3.org/2000/svg"><path fill="#F0F3FA" d="M0 0h18v18H0z"/><path d="M13.79 7.25c-.1.1-.17.22-.21.36a.07.07 0 0 0 .02.07l.22.18a.04.04 0 0 1 .01.04v.03h-.03l-.25.11-.02.01a.06.06 0 0 0-.02.04v.02l.1.25a.03.03 0 0 1-.01.03h-.01c-.18.06-.26.18-.23.38v.01l-.01.02a.04.04 0 0 1-.03.01l-.23.01-.03.03c-.02.08-.05.2-.14.21-.24.02-.48-.04-.73-.04-.01 0-.03 0-.04-.02-.02-.03-.05-.03-.09-.03V9l.02.03c.02 0 .03.04.03.08l-.05-.06v-.97c.15-.02.3-.05.44-.1a1.58 1.58 0 0 0 1.15-1.08h.01c.08.1.12.22.13.35Z" fill="#201341"/><path d="M13.79 7.25c0 .12-.02.24-.08.35v.04c.12.05.21.14.28.25a.08.08 0 0 1-.01.1.79.79 0 0 1-.25.15v.03a1.09 1.09 0 0 1 .19.33.04.04 0 0 1-.01.03h-.02c-.1.03-.2.04-.34.02-.02 0-.02 0-.02.03l.08.36c0 .02 0 .03-.03.03a.5.5 0 0 1-.39-.06.02.02 0 0 0-.02 0v.02a1 1 0 0 1-.03.34.07.07 0 0 1-.03.04.06.06 0 0 1-.05 0 .47.47 0 0 1-.21-.18h-.01a.02.02 0 0 0-.02 0 .59.59 0 0 1-.18.27c-.04.03-.07.02-.1-.01a.65.65 0 0 1-.12-.28V9.1l-.02-.01h-.02l-.01.01-.11.14h-.03a.44.44 0 0 1-.12-.13c0-.04 0-.07-.03-.08-.02-.02-.03-.02-.02-.03v-.02c.04-.01.07 0 .1.02l.03.02c.25 0 .5.06.73.04.1 0 .12-.13.14-.21 0-.02.02-.03.03-.03h.23l.02-.01.01-.01a.04.04 0 0 0 0-.03c-.02-.2.06-.32.24-.38a.03.03 0 0 0 .02-.03l-.1-.25a.06.06 0 0 1 .01-.04.06.06 0 0 1 .03-.03l.25-.1.02-.01a.05.05 0 0 0 0-.07l-.22-.18a.07.07 0 0 1-.02-.07c.04-.14.1-.25.2-.36Z" fill="#160B2C"/><path d="M4.6 7.39c-.08.42-.06.68.27.97.1.09.22.13.34.13a6.85 6.85 0 0 1 .48-.02v-.28l-.02-.02-.22-.2.45.1c.02.01.04.02.04.06v.92l-.13.17c-.03.04-.06.04-.08 0l-.1-.12-.01-.01h-.03l-.01.02c-.02.1-.06.2-.12.28a.06.06 0 0 1-.04.02h-.05a.58.58 0 0 1-.18-.27c-.01-.02-.02-.02-.03 0a.57.57 0 0 1-.18.16c-.07.03-.12 0-.13-.07a1.17 1.17 0 0 1-.01-.31h-.01a.02.02 0 0 0-.02 0 .53.53 0 0 1-.35.06c-.05 0-.06-.03-.05-.08l.06-.33v-.01l-.33-.01c-.05 0-.07-.03-.05-.07a.82.82 0 0 1 .2-.31.02.02 0 0 0 0-.02h-.02a.8.8 0 0 1-.26-.17v-.06a.55.55 0 0 1 .3-.29.02.02 0 0 0 0-.02c-.13-.23-.13-.45.02-.69.02-.04.04-.04.05 0 .03.17.1.32.21.47Z" fill="#201341"/><path d="M4.6 7.39c.22.28.5.48.85.59l.22.2.01.01v.28c0 .01 0 .02-.02.02h-.45a.5.5 0 0 1-.34-.13c-.33-.29-.35-.55-.28-.97Z" fill="#301C5C"/><path d="M12.06 6.96a.06.06 0 0 0-.04-.01c-.01 0-.02 0-.03.02-.04.1-.17.18-.27.26h-.05l-.02-.01V7.2a.7.7 0 0 1-.02-.27.03.03 0 0 0 0-.02h-.03a.9.9 0 0 1-.53.12 10.99 10.99 0 0 0-.5-.02.26.26 0 0 1-.13.06l-.05-.02a.11.11 0 0 0-.07-.01.11.11 0 0 0-.07 0l-.03-.01c.01-.07.03-.1.06-.14.15-.02.26 0 .32.08.01.01.02.02.04 0 .06-.04.09-.12.14-.16l.16-.17c.12-.12.12-.22.12-.36l-.01-.03-.02-.02a.05.05 0 0 0-.05 0c-.17.13-.34.15-.5.06a.06.06 0 0 1-.03-.04c-.05-.16-.1-.35-.28-.32a.47.47 0 0 0-.36-.2l-.01.01-.01.01a.04.04 0 0 0 0 .03h.02l.08.29c-.14-.03-.23 0-.28.1-.11.18-.1.37 0 .57 0 0-.02 0-.04.03-.11-.32-.3-.52-.56-.6h-.04c-.08.05-.15.06-.23.14-.09.08-.16.18-.21.3l-.06-.07a.61.61 0 0 0-.02-.27c-.05-.16-.16-.23-.33-.2.06-.07.1-.16.11-.28l.06.03c.05 0 .05-.02 0-.04-.17-.12-.38.04-.48.2a.33.33 0 0 0-.17.05.05.05 0 0 0-.03.04l-.03.17-.01.02-.01.01c-.21.13-.37.07-.56-.04a.03.03 0 0 0-.03 0l-.01.01v.02c-.03.17.01.3.13.42a1.37 1.37 0 0 1 .27.33v.01l-.02.01h-.01c-.1-.01-.22-.02-.35-.01a.9.9 0 0 1-.6-.13v.01l-.02.01v.02a.7.7 0 0 1-.01.28l-.01.02-.02.01a.04.04 0 0 1-.04 0c-.1-.1-.25-.16-.3-.3-.01-.03-.02-.03-.03 0v.02-1.1a.8.8 0 0 1 .15-.44C6.4 4.98 6.7 5 7.2 5a131.72 131.72 0 0 0 4.07 0c.18.02.35.1.5.26.18.17.27.4.27.65l.02 1.05Z" fill="#E3D8F7"/><path d="M7.7 5.57c.02 0 .03-.02.02-.04-.04-.07-.06-.13-.06-.17 0-.02.02-.02.04-.02.1.05.22.07.36.08.22 0 .38.1.5.28h.01c0 .01 0 .01 0 0-.32-.1-.59.02-.93.2a.57.57 0 0 1-.22.03c-.24 0-.35-.13-.32-.4v-.01h.03c.18.1.37.09.57.05ZM10.32 5.57a.8.8 0 0 0 .57-.06l.02.01v.01c.03.27-.08.4-.32.4a.57.57 0 0 1-.22-.04c-.33-.17-.6-.3-.91-.18h-.01v-.02c.13-.16.29-.27.5-.27.14 0 .27-.03.37-.08.02 0 .03 0 .03.02 0 .04-.01.1-.05.17-.01.02 0 .04.02.04Z" fill="#301C5C"/><path d="M8.23 5.79a.33.33 0 0 0-.04-.02h-.04a.47.47 0 0 0-.33.28c-.15.3-.15.6 0 .93.01.04.05.07.1.07.35.04.45-.17.6-.45.06-.1.13-.2.22-.3.08-.07.14-.08.23-.13H9c.26.08.45.28.56.6.13.22.3.31.52.29.09-.01.1-.05.13-.13.09-.18.08-.33.07-.52 0-.28-.15-.56-.41-.63a.1.1 0 0 0-.07 0h-.03a.04.04 0 0 1 0-.03l.02-.01h.01c.14 0 .26.07.36.2.18.27.2.6.1.95a.27.27 0 0 0-.05.14h.03c0 .03.02.04.07.01a.1.1 0 0 1 .07.01h-.02c-.02 0-.02 0 0 0l.02.03-.13-.01c-.1 0-.16.04-.27.03-.34-.04-.43-.28-.57-.56a.86.86 0 0 0-.22-.24.27.27 0 0 0-.15-.06c-.16 0-.3.07-.4.24l-.15.26a.87.87 0 0 1-.16.23.52.52 0 0 1-.25.12c-.05 0-.14 0-.27-.02a.52.52 0 0 0-.28.04l-.02-.01v-.02a.47.47 0 0 1 .25-.05c.01 0 .02-.01.01-.03a.57.57 0 0 0-.06-.16c-.08-.3-.05-.6.09-.85.1-.17.3-.33.49-.21.04.02.04.04-.01.04l-.06-.03Z" fill="#7355B5"/><path d="M10.28 6.9c.1-.37.07-.69-.1-.97.16-.03.22.16.27.32l.02.04c.17.1.34.07.51-.06h.05l.02.02v.03c0 .14 0 .24-.1.36l-.17.17c-.05.04-.08.12-.14.17h-.04c-.06-.09-.17-.11-.32-.09Z" fill="#C8BBE8"/><path d="M7.81 5.99c-.14.26-.17.54-.09.85a.86.86 0 0 1-.29.08h-.02v.02a.04.04 0 0 0 0 .05l.1.1c-.03 0-.04.01-.03.02-.06.06-.09.12-.07.19.02.08.06.16.12.24l.2.15c.22.13.39.32.51.58.15.3.27.68.48.95.09.1.25.23.39.15.22-.11.34-.34.44-.6.11-.28.22-.5.32-.65.11-.18.22-.3.33-.37.19-.11.36-.23.4-.42.02-.11-.01-.19-.1-.22h-.02a.08.08 0 0 0-.04-.04c.05 0 .1-.02.14-.06h.03l.05.02h.4a.9.9 0 0 0 .55-.13h.01l.01.02v.01a.7.7 0 0 0 .01.27l.01.02.02.02a.05.05 0 0 0 .05-.01c.1-.08.23-.17.27-.26 0-.02.02-.03.03-.02l.04.01-.01 1.12v.83c-.05-.25-.18-.4-.36-.47-.01 0-.02 0-.03.02l-.09.44v.01a.01.01 0 0 1-.02 0c-.17-.12-.26-.2-.47-.2-.02 0-.03 0-.03.03l-.01.54a.02.02 0 0 1 0 .01h-.02l-.08-.05a.53.53 0 0 0-.32-.14h-.02v.02l-.08.55h-.01c-.16-.16-.34-.2-.52-.3a.03.03 0 0 0-.03.01l-.01.01-.19.55h-.02c-.14-.1-.3-.16-.42-.29-.02-.02-.03-.02-.04 0l-.02.07-.03.04-.22.3h-.02l-.24-.3v-.02l-.03-.08c0-.02-.02-.02-.03 0a.44.44 0 0 1-.13.11l-.3.19-.03-.01-.15-.46-.01-.05c0-.02 0-.03-.02-.05a3.56 3.56 0 0 1-.33.12 1.6 1.6 0 0 0-.24.17l-.08-.54c0-.02-.01-.03-.03-.03-.17 0-.3.13-.39.19l-.01-.01-.03-.55v-.02L6.9 8.7a.6.6 0 0 0-.38.16L6.5 8.7l.01-.05c.08-.1.24-.25.26-.36l.06-.34c.02-.11 0-.12-.06-.03a.39.39 0 0 1-.11.1c-.23.15-.18.4-.21.64 0 .02 0 .02-.02 0s-.04-.03-.06-.01l-.05-.2c0-.01-.01-.02-.03-.01a.66.66 0 0 0-.36.46V6.96l.01-.03c0-.02.02-.02.03 0 .05.15.2.22.3.3l.02.01h.02l.02-.01.01-.02a.7.7 0 0 0 .01-.28V6.9l.01-.01a.03.03 0 0 1 .03 0 .9.9 0 0 0 .58.12 1.65 1.65 0 0 1 .36.01h.01a.03.03 0 0 0 0-.04 1.37 1.37 0 0 0-.26-.31.44.44 0 0 1-.13-.44h.01a.03.03 0 0 1 .03 0c.19.1.35.16.56.03l.01-.01v-.02l.04-.17c0-.02.01-.03.03-.04.05-.03.1-.04.17-.04Z" fill="#C8BBE8"/><path d="M8.47 6.54c-.04.3-.34.48-.5.13-.1-.25-.05-.45.15-.6.17-.03.28.04.33.2.03.1.04.19.02.27ZM9.89 6.07c.2.06.23.37.17.55-.06.23-.29.34-.44.12a.55.55 0 0 1-.01-.58c.05-.09.14-.12.28-.1Z" fill="#7355B5"/><path d="M8.09 6.36c.04.03.07.03.1 0 .02-.02.02-.06.02-.1.06-.02.1.01.13.1.04.12.01.22-.07.28-.06.05-.15.02-.18-.04a.28.28 0 0 1 0-.24Z" fill="#160B2C"/><path d="M9.05 6.24c-.1.5-.13 1-.06 1.5v.15c-.02.02-.02.02-.03 0a4.88 4.88 0 0 1-.06-1.36v-.02l.05-.1c0-.07-.02-.1-.09-.06a.48.48 0 0 0-.2.2c-.12.22-.18.38-.38.52a.24.24 0 0 1-.09.04c-.04 0-.08 0-.1-.02.1-.02.18-.06.25-.12.04-.04.1-.11.16-.23.04-.09.1-.18.15-.26.1-.17.24-.25.4-.24Z" fill="#C8BBE8"/><path d="M9.8 6.25c0 .07.05.17.12.12.03.04.03.1.02.16a.2.2 0 0 1-.07.12c-.06.04-.12.03-.16-.05-.08-.12-.06-.24.04-.35l.02-.01.04.01Z" fill="#160B2C"/><path d="M10.4 7.08c.02.02.05.03.08.02h.03c.09.13.09.24 0 .35-.12.17-.35.28-.47.4-.28.27-.4.6-.58 1.02-.1.23-.2.38-.4.5H9c-.21-.06-.36-.29-.45-.5-.2-.45-.3-.73-.58-1.03-.1-.1-.23-.18-.37-.27-.08-.05-.13-.15-.17-.3v-.04l.06-.1V7.1h-.02l.02-.02h.03l.01.02c.11-.04.2-.06.28-.04.13.02.22.03.27.02.02.02.06.03.1.02.03 0 .06-.02.1-.04.19-.14.25-.3.37-.52a.48.48 0 0 1 .2-.2c.07-.03.1-.01.1.06 0 .02-.03.05-.06.1v.03l.02.04a4.88 4.88 0 0 0 .06 1.3.29.29 0 0 0 .01-.13 4.41 4.41 0 0 1 .06-1.5c.06 0 .11.02.15.05.1.08.18.17.22.24.14.28.23.52.57.56.1.01.17-.04.27-.03l.13.01Z" fill="#A189DA"/><path d="M9.29 6.8c.01.07.03.11.05.1l-.01-.1c-.02-.07-.04-.12-.05-.11-.02 0-.01.05 0 .11Z" fill="#160B2C"/><path d="M7.48 7.1h.01v.02l-.05.1v.05c.04.15.1.25.17.3.14.1.28.17.37.27.28.3.37.58.58 1.04.09.2.24.43.45.49h.05c.2-.12.3-.27.4-.5.19-.42.3-.75.58-1.02.12-.12.35-.23.47-.4.09-.1.09-.22 0-.34.08.03.11.1.09.22-.04.2-.21.3-.4.42-.11.07-.22.19-.33.37-.1.15-.2.37-.32.66-.1.25-.22.48-.44.6-.14.07-.3-.05-.39-.16-.21-.27-.33-.66-.48-.95a1.4 1.4 0 0 0-.5-.58.93.93 0 0 1-.21-.15.56.56 0 0 1-.12-.24c-.02-.07 0-.13.07-.2Z" fill="#7355B5"/><path d="M8.88 8.05c-.08 0-.15 0-.21.02a.27.27 0 0 0-.15.08.79.79 0 0 0-.1.15c-.12-.26-.23-.48-.35-.66-.09-.13-.2-.25-.35-.38a.04.04 0 0 0-.04 0 .1.1 0 0 0-.08.07h-.01V7.3c.06-.1.13-.12.23-.1.02.01.02.02 0 .04l-.03-.01a.02.02 0 0 0-.02 0l-.01.01v.02l.01.01c.27.23.55.35.87.42.07.01.08 0 .04-.06l-.15-.2v-.01h.02c.17.2.23.38.33.62ZM9.6 8.31c-.07-.23-.22-.31-.46-.26l.14-.33c0-.01 0-.02.02-.01h.04c.17-.05.34-.1.49-.16.16-.06.3-.15.42-.27v-.04c0-.02 0-.03.02-.03.06 0 .11.03.15.09v.01h-.02a.16.16 0 0 0-.08-.06l-.03.01c-.09.1-.18.16-.27.27-.17.24-.31.5-.43.78Z" fill="#160B2C"/><path d="M11.42 8.6c-.1-.13-.17-.22-.2-.35a3.15 3.15 0 0 1-.08-.38v-.02a.03.03 0 0 1 .04 0c.3.24.33.44.35.82v.02h-.03l-.08-.1ZM6.53 8.87l-.08.04-.02-.01-.05-.24c.02-.02.04-.01.06.02l.02-.01c.03-.24-.02-.5.2-.64.07-.04.1-.07.12-.1.06-.1.08-.08.06.03l-.06.34c-.02.11-.18.26-.26.36a.06.06 0 0 0 0 .05v.16ZM10.89 9.03c-.2-.18-.32-.3-.33-.57a5.3 5.3 0 0 1 .04-.48h.01c.2.2.3.45.3.74a3.89 3.89 0 0 1-.02.31Z" fill="#E3D8F7"/><path d="M9.14 8.05c.24-.05.4.03.45.26-.03.1-.08.22-.15.36-.06.14-.14.27-.26.34-.27.14-.45-.04-.59-.3a2.66 2.66 0 0 1-.18-.41l.1-.15a.27.27 0 0 1 .16-.08l.2-.02.11.22.01.01a.03.03 0 0 0 .03 0l.01-.01.1-.22Z" fill="#A30A20"/><path d="m6.38 8.66.05.24h.02l.08-.03a.6.6 0 0 1 .38-.16h.02l.01.03.03.55h.01c.08-.05.22-.18.4-.18.01 0 .02.01.02.03l.08.54c-.07.13-.12.25-.16.36-.03.09-.05.09-.07 0l-.05-.26-.01-.02h-.01a.03.03 0 0 0-.04 0c-.38.27-.65.68-.61 1.2a23.94 23.94 0 0 0 .02.39.04.04 0 0 1-.05 0l-.26-.14a.97.97 0 0 0-.29-.3v-2a.66.66 0 0 1 .35-.46l.03.01.05.2ZM12.06 8.9v.15l-.01 1.83-.02-.07h-.04l-.23.43c-.4.12-.67-.14-.72-.56-.04-.3-.06-.56-.06-.8 0-.11-.03-.28-.09-.49-.02-.06 0-.11.05-.15l.08.05h.01l.02-.55c0-.02.01-.03.03-.03.21 0 .3.08.47.2a.01.01 0 0 0 .01 0h.01l.1-.45c0-.02 0-.03.02-.02.18.07.3.22.37.47Z" fill="#301C5C"/><path d="M10.94 9.24c-.05.04-.07.09-.05.15.06.21.09.38.1.5 0 .23.01.5.05.8.05.4.31.67.72.55a.73.73 0 0 1-.67.27.03.03 0 0 1-.02-.02l.04-.25v-.02l-.02-.02a.04.04 0 0 0-.04 0l-.15.06h-.04a.06.06 0 0 1-.03-.02l-.15-.2-.02-.02a.06.06 0 0 0-.08.01 1.02 1.02 0 0 0-.22.41l-.02.01a.03.03 0 0 1-.03 0l-.22-.2h-.05l-.02.02-.01.02-.03.22-.01.02H8V11.3l-.01-.02-.02-.02h-.03l-.29.18a.03.03 0 0 1-.02 0h-.01l-.01-.02a1.07 1.07 0 0 0-.25-.41.03.03 0 0 0-.03 0v.01l-.2.26-.01.01a.04.04 0 0 1-.03 0h-.02l-.12-.1a.05.05 0 0 0-.05-.01l-.02.02v.03l.05.26c0 .03 0 .04-.03.05a.72.72 0 0 1-.67-.33l.27.14a.04.04 0 0 0 .05 0l.01-.02v-.03l-.03-.34a1.36 1.36 0 0 1 .63-1.21h.02v.01l.02.02.05.25c.02.1.04.1.07 0l.16-.35a1.6 1.6 0 0 1 .54-.3l.03.01.02.05v.05l.16.46c0 .01.02.02.03 0l.3-.18a.44.44 0 0 0 .13-.11c.01-.02.02-.02.03 0l.03.08v.01l.24.32H9l.22-.3a.18.18 0 0 0 .03-.05l.02-.07c0-.02.02-.02.04 0 .11.13.28.2.42.3h.02l.19-.56.02-.02a.03.03 0 0 1 .02 0c.18.1.36.14.51.3h.01l.08-.55.01-.01h.02c.12 0 .23.05.32.13Z" fill="#201341"/><path d="M12.05 10.88c.03.37-.05.66-.24.9-.42.49-.93.3-1.37.33-.02 0-.02.02-.02.03l.02.33c0 .22.2.31.37.28.08-.01.15-.08.22-.1.05-.02.1 0 .17.03-.12.06-.18.16-.17.32h-.59c-.06-.33-.35-.33-.42 0h-.3c0-.14-.06-.24-.2-.3.2-.18.3.06.47.02.1-.02.17-.1.16-.2l-.06-.38c0-.02-.02-.03-.03-.03H7.94l-.02.02-.05.28c-.03.16-.01.29.15.31.1.02.2-.07.29-.09.05 0 .1.01.17.06-.14.07-.2.17-.2.3H8a.47.47 0 0 0-.1-.18c-.16-.13-.26-.06-.34.18h-.6c.02-.15-.04-.25-.17-.3.18-.13.24.03.37.06.2.04.39-.05.4-.28l.02-.33a.03.03 0 0 0 0-.02h-.02l-.7-.01a.92.92 0 0 1-.42-.12c-.34-.22-.5-.58-.49-1.07.1.06.2.16.29.29.16.24.38.34.66.33.02 0 .03-.02.03-.05l-.05-.26v-.03s0-.02.02-.02a.05.05 0 0 1 .05 0l.12.1a.04.04 0 0 0 .06 0l.2-.26.02-.01a.03.03 0 0 1 .03 0 1.07 1.07 0 0 1 .24.42.03.03 0 0 0 .02.01h.01l.29-.18a.03.03 0 0 1 .03 0l.02.02V11.53h1.98v-.02l.04-.22.01-.02.02-.02a.05.05 0 0 1 .05 0l.22.2h.02a.03.03 0 0 0 .03 0v-.02c.05-.16.12-.29.22-.4l.03-.02a.06.06 0 0 1 .07.02l.15.2.03.03h.04l.15-.07a.04.04 0 0 1 .04.01l.02.02v.02l-.04.24v.01l.01.02h.02c.27.03.5-.06.66-.27l.23-.42.01-.01a.02.02 0 0 1 .03 0l.02.07Z" fill="#160B2C"/><path d="M11.03 13c0-.16.05-.26.17-.32l.25.28V13H11.02ZM6.8 12.7c.12.04.18.14.16.3h-.39a.01.01 0 0 1 0-.02.87.87 0 0 1 .22-.29ZM8.28 13c0-.14.06-.24.2-.3l.27.28V13l-.01.01h-.46ZM9.52 12.7c.14.06.2.16.2.3h-.44c-.02 0-.02-.01-.01-.03l.25-.27Z" fill="#A189DA"/></svg>