<!-- by TradingView --><svg width="18" height="18" viewBox="0 0 18 18" xmlns="http://www.w3.org/2000/svg"><path fill="#F0F3FA" d="M0 0h18v18H0z"/><path d="M13.36 4.89c-.03.03-.05.1-.04.2 0 .04-.02.06-.05.06l-.61.02a.1.1 0 0 0-.1.1v.27a.1.1 0 0 1-.04.08.16.16 0 0 1-.16 0 .17.17 0 0 1-.06-.06.23.23 0 0 0-.2-.12l-.08.01-.44.25-.42-.1c-.05-.02-.07-.06-.07-.1 0-.04.02-.06.06-.06a.1.1 0 0 1 .07.01l.09.03h.11a.11.11 0 0 0 .12-.1v-.05c-.09-.21-.21-.39-.37-.52a1.2 1.2 0 0 0-.33-.43c-.1-.13-.4-.27-.53-.09-.02.04-.04.03-.05 0-.02-.18.23-.21.35-.22.38.2.65.5.82.9a.07.07 0 0 0 .06.04h.04c.02 0 .03 0 .02-.03-.2-.42-.48-.75-.85-.99a1.18 1.18 0 0 0-.48-.15c-.28-.04-.55-.1-.82-.16a1.2 1.2 0 0 0-.7.05l-.7.1c-.2-.13-.38-.1-.54.1a.09.09 0 0 1-.06.03.1.1 0 0 0-.07.04v-.03c-.25.09-.48.21-.7.37a.1.1 0 0 1-.08.02c-.28-.05-.27.2-.37.34a355.34 355.34 0 0 0-.42.55.05.05 0 0 1-.04-.03.75.75 0 0 1-.04-.32.1.1 0 0 0-.02-.08c-.07-.08-.15-.1-.24-.02a.1.1 0 0 1-.07.03h-.16a.09.09 0 0 0-.07.04.35.35 0 0 0-.04.38c.01.02.02.05.01.08-.02.1-.02.2 0 .32.01.05 0 .1-.03.15a.1.1 0 0 0-.01.08l.1.4v.04c0 .05-.02.06-.05.03a.1.1 0 0 1-.01-.02v-.01a3.04 3.04 0 0 1 .07.31l.01.02c.02.02.03.04.03.07l-.03 1.36a.07.07 0 0 1-.02.06.23.23 0 0 0-.09.12c.03 0 .03 0-.02.02a.11.11 0 0 0-.02-.02 7.59 7.59 0 0 1-.07-1.54.47.47 0 0 0-.15-.4c-.08-.07-.12-.05-.11.06.05.76.03 1.5-.08 2.24l-.24.17c-.1-.07-.16-.13-.15-.2.02-.8.02-1.6 0-2.4a.11.11 0 0 0-.02-.08l-.3-.3c.13-.14.25-.3.38-.46.46-.63 1-1.12 1.58-1.47a6.06 6.06 0 0 1 6.17-.07 3.52 3.52 0 0 1 .7.52v.06c0 .03.01.05.05.06.25.1.38.27.58.44Z" fill="#345E5C"/><path d="M10.61 4.07c-.43-.23-.47.29-.42.55.02.13.08.25.19.37.17.19.37.34.6.45.04.02.04.04.02.06-.03.04-.08.06-.14.07l-.2-.07c-.03-.06-.1-.13-.23-.22-.08-.06-.15-.06-.2 0a5.35 5.35 0 0 1-.86.38c-.08.03-.14.1-.25.07h-.09c-.52.13-.8-.06-1.22-.23a.1.1 0 0 1-.06-.07l-.1-.52v-.08l.09-.15c.14-.47.5-.8.96-.95.24-.08.44-.12.7-.05.27.07.54.12.82.16.2.02.36.08.48.15.37.24.66.57.85 1 0 .01 0 .02-.02.02h-.04a.07.07 0 0 1-.06-.04c-.17-.4-.44-.7-.82-.9Z" fill="#A1A0A1"/><path d="M8.7 3.73c-.47.16-.81.48-.96.95a.53.53 0 0 1-.08.15.09.09 0 0 0-.02.08l.11.52c0 .03.03.05.06.07.42.17.7.36 1.22.23h.1c.1.03.16-.04.23-.06a5.35 5.35 0 0 0 .87-.38c.05-.07.12-.07.2 0 .13.08.2.15.22.2-.69.13-1.34.37-1.96.75l-1.16.5a.05.05 0 0 1-.07-.05c-.01-.82-.07-1.72.07-2.52.05-.3.2-.35.48-.35l.7-.1Z" fill="#FED501"/><path d="M8 3.82c-.27 0-.42.04-.47.35-.14.8-.08 1.7-.07 2.52a.05.05 0 0 0 .07.05l1.16-.5v.07l.03.01h.03a.07.07 0 0 0-.03.02c-.01.02 0 .03.02.04a4.57 4.57 0 0 0 1.97.04v-.03l-.01-.01h-.02c-.12 0-.22-.03-.34-.02-.42.06-.84.04-1.25-.07.02.02.04 0 .05-.02 0-.02 0-.03-.02-.05.4.08.8.09 1.2.05.15-.02.27.02.41.03.02 0 .03 0 .03-.02v-.04s0-.02-.02-.02c-.26-.06-.52 0-.75-.02l-.8-.08c.19.03.27-.02.25-.13 0 .06.03.1.1.1h.62c.03 0 .06-.02.1-.06.12.02.24.01.36-.02.05-.02.05-.04 0-.06-.04-.02-.11-.03-.22 0 .19-.07.33-.03.44.1.02.03.05.04.08.05h.25l.03.04c.02.07.04.11.08.14-.76.41-1.8.4-2.6.2a.48.48 0 0 0-.28.03 8.14 8.14 0 0 1-.82.34.05.05 0 0 0 .02.09l.76.37c-.02.02-.06.03-.11.02L7.47 7a.24.24 0 0 0-.18-.01l-.53.17c-.12.01-.21.04-.28.1-.28.08-.5.22-.7.4l-.27.24c-.17.15-.21.34-.13.57.03.08.08.1.14.04a.1.1 0 0 1 .08-.02c.27.02.37-.05.63.1l.02.01c0 .01 0 .02-.02.03-.14-.07-.27-.1-.42-.11-.06 0-.07.01-.02.06.1.1.24.17.42.18.01.01.01.03-.01.07a.2.2 0 0 0-.1.07c0-.05-.02-.07-.07-.08-.05 0-.08-.02-.1-.06-.08-.12-.26-.2-.33-.03a.33.33 0 0 1-.13.02.31.31 0 0 0-.3.01v-.48c0-.02-.03-.03-.1-.02a.23.23 0 0 1 .08-.12.07.07 0 0 0 .02-.06l.03-1.36c0-.03-.01-.05-.03-.07l-.01-.02a3.04 3.04 0 0 0-.05-.28c.02.03.04.02.05-.03v-.03l-.11-.41V5.8c.04-.05.05-.1.04-.15a.93.93 0 0 1 0-.32l-.01-.08a.35.35 0 0 1 .04-.38.09.09 0 0 1 .07-.04h.16a.1.1 0 0 0 .07-.03c.09-.07.17-.06.24.02a.1.1 0 0 1 .02.08c-.01.11 0 .22.04.32a.05.05 0 0 0 .08.01l.38-.53c.1-.14.1-.4.37-.34a.1.1 0 0 0 .09-.02c.2-.16.44-.28.7-.37l-.55.4A3.4 3.4 0 0 0 5.47 6.2c-.16.49-.13 1.05-.12 1.58a.04.04 0 0 0 .07.03c.5-.53 1.19-.73 1.86-.93.02 0 .03-.02.04-.03a11.27 11.27 0 0 1 .08-2.83C7.4 4 7.38 4 7.33 4a.1.1 0 0 1 .07-.04c.02 0 .05 0 .06-.03.16-.2.34-.23.55-.1Z" fill="#3E4A32"/><path d="M8.65 4.07c.15-.05.3-.16.5-.14a.02.02 0 0 1 .02.01v.01l-.01.03-.02.01c-.24.08-.73.27-.81.54-.03.1-.05.19-.05.29-.02.33.3.4.5.54.09.05.18.07.27.05v.01c-.34.01-.63-.08-.89-.27A.2.2 0 0 1 8.08 5c-.03-.45.16-.77.57-.93Z" fill="#7D715D"/><path d="M7.34 3.97 7.33 4c.05-.01.08 0 .07.02a11.27 11.27 0 0 0-.08 2.83.07.07 0 0 1-.04.03c-.67.2-1.36.4-1.86.93a.04.04 0 0 1-.07-.03c-.01-.53-.04-1.1.12-1.58a3.4 3.4 0 0 1 1.32-1.82l.55-.4Z" fill="#FED501"/><path d="M10.61 4.07c-.12 0-.37.04-.35.21.01.04.03.05.05.01.14-.18.44-.04.53.1a.76.76 0 0 1-.24-.06.12.12 0 0 0-.15.06v.06l.03.35c0 .03.02.05.04.08.2.23.41.4.63.48.34.13.4.05.16-.23a2.08 2.08 0 0 1-.14-.32c.16.13.28.3.36.52a.12.12 0 0 1-.01.1.11.11 0 0 1-.1.05h-.11a.13.13 0 0 1-.09-.03.1.1 0 0 0-.07-.01c-.03 0-.05.02-.06.05 0 .05.02.09.07.12l-.3.02v-.06c.06 0 .11-.03.14-.07.02-.02.02-.04-.01-.06a2.03 2.03 0 0 1-.61-.45.73.73 0 0 1-.2-.37c-.04-.26 0-.78.43-.55Z" fill="#7D715D"/><path d="M10.84 4.38c.14.12.25.26.33.43l.14.32c.23.28.18.36-.16.23a1.62 1.62 0 0 1-.63-.48.15.15 0 0 1-.04-.08l-.04-.35a.12.12 0 0 1 .1-.13l.06.01c.07.03.15.05.24.05Z" fill="#A1A0A1"/><path d="M9.24 4.91c.19-.06.3-.21.27-.34-.04-.13-.23-.19-.42-.13-.19.06-.3.21-.27.34.04.13.23.19.42.13Z" fill="#7D715D"/><path d="M11.13 5.05v.02l-.02.02c-.22.08-.46-.25-.49-.43a.1.1 0 0 1 .1-.11.1.1 0 0 1 .05.01c.18.11.3.27.36.49Z" fill="#696868"/><path d="M13.37 4.89c.21.22.66.73.65 1.02 0 .03-.01.04-.04.03-.04 0-.09 0-.14.02-.38-.18-.74-.18-1.17-.19-.5 0-.98.25-1.4.51a.35.35 0 0 1-.07-.14.07.07 0 0 0-.03-.03.07.07 0 0 0-.05-.01.53.53 0 0 1-.2 0 .13.13 0 0 1-.08-.05c-.1-.13-.25-.17-.44-.1l-.24.06L9.44 6c.03.11-.06.16-.25.13a.3.3 0 0 0-.07.03c-.02.01-.02.02-.02.03 0 .02 0 .03.02.04l.02.05c-.01.03-.03.04-.05.02l-.34.03h-.03l-.02-.01-.01-.03v-.04a5.56 5.56 0 0 1 1.96-.74l.2.07v.06c-.31.01-.54.05-.67.1-.2.09-.33.13-.4.14l-.02.02v.03c.27-.02.51-.08.77-.08H11c.2-.01.37-.08.57-.14l.44-.25a.13.13 0 0 1 .07-.01c.1 0 .16.04.2.12l.07.05c.05.04.1.04.16.01a.1.1 0 0 0 .05-.08v-.28a.1.1 0 0 1 .09-.09l.6-.02c.04 0 .06-.02.06-.06-.01-.1 0-.17.05-.2Z" fill="#0C2E2D"/><path d="m11.16 5.6.42.1c-.2.06-.37.13-.57.14h-.48c-.26 0-.5.06-.76.08v-.05c.08 0 .22-.05.4-.13.14-.06.37-.1.69-.1l.3-.03ZM13.84 5.96c.01.02.02.02.03 0a.1.1 0 0 0 .01.09v.01h-.03c-.04 0-.05.01 0 .04.77.44.93 1.16.95 2-.17.34-.5.53-1 .55a3.51 3.51 0 0 1-1.63-.32l-.1-.07c-.25-.2 0-.45.06-.67.08-.32.13-.8-.02-1.1-.03-.1-.02-.16.03-.2.38-.26.83-.36 1.34-.29.02 0 .03 0 .04-.02v-.03l-.01-.02c-1.4-.23-1.92.93-3.07 1.32-.07.02-.1.01-.1 0l-.63.08a.17.17 0 0 0-.09.04c-.09.07-.2.09-.35.06-.32.01-.62-.03-.91-.12l-.76-.37a.05.05 0 0 1 0-.1c.27-.1.53-.2.8-.33.08-.04.2-.06.28-.03.81.2 1.84.21 2.6-.2.4-.26.89-.51 1.39-.5.43 0 .79 0 1.17.18Z" fill="#FED501"/><path d="m3.9 5.8.3.31c.02.03.03.05.03.08.01.8 0 1.6-.01 2.4 0 .07.05.13.15.2a1.38 1.38 0 0 0-.44.6v.01l.04.03a.02.02 0 0 0 .02 0c.17-.43.6-.66.94-.94a.04.04 0 0 1 .07.03l.05.37c-.01.15-.05.26-.11.36-.16.19-.26.4-.48.52-.3.17-.6.24-.91.37-.05.02-.04.03 0 .03h.04a10.64 10.64 0 0 1 .91-.33.03.03 0 0 1 0 .04c-.13.39-.34.6-.74.88-.04.04-.04.05.02.04.23-.05.28-.25.48-.3h.02c.02 0 .02.01.02.03-.02.17.02.3.11.35.1.07.12.06.04-.04a.87.87 0 0 1-.12-.37l.42-.66c.16-.26.23-.23.19.07l-.12.85a.59.59 0 0 1-.3.6c-.08.05-.14.15-.16.27a.03.03 0 0 0 .02.04h.04c.07 0 .08.03.05.09-.12.2-.11.4.03.57-.03.1-.13.2-.33.27a5.63 5.63 0 0 1-.8-1.54 5.22 5.22 0 0 1-.33-2.51c.06-.38.05-.82.21-1.18.07-.13.11-.25.14-.34.12-.43.3-.8.52-1.2Z" fill="#0C2E2D"/><path d="M12.1 6.5h-.03c0 .02-.01.02-.02.02-.04-.09-.1-.1-.2-.06a.48.48 0 0 0-.18.16.1.1 0 0 0-.01.09l.2.87-.06-.03a.1.1 0 0 1-.05-.07 1.67 1.67 0 0 0-.3-.73.04.04 0 0 0-.05.01c-.13.21-.13.42 0 .62.01.02.02.04.01.07 0 .03 0 .06.03.08.03.02.05.06.05.1.04.16.03.32-.02.48 0 .04-.03.05-.06.04h-.09a.45.45 0 0 0-.2-.08h.06l.02-.02v-.07a.1.1 0 0 0-.03-.03l-.38-.34a.06.06 0 0 0-.1.05v.1a.6.6 0 0 1-.08-.43c0-.03 0-.05-.03-.05l-.14-.03c1.15-.4 1.67-1.55 3.07-1.32v.05c0 .02-.01.03-.03.02-.5-.07-.96.03-1.34.3-.05.03-.06.1-.03.2ZM10.4 5.94c.1-.02.18-.01.23.01.04.02.04.04 0 .06a.84.84 0 0 1-.38.02c0-.03-.04-.03-.1-.02l.25-.07Z" fill="#9D9E19"/><path d="M10.16 6.01c.05-.01.08 0 .1.02-.04.04-.07.06-.1.06h-.62c-.07 0-.1-.04-.1-.1l.72.02Z" fill="#FED501"/><path d="M13.87 5.96c.15.06.26.1.35.24.35.5.59.84.66 1.56-.07-.2-.1-.1-.08.34-.02-.84-.18-1.56-.95-2-.05-.03-.05-.04 0-.04h.02c.01 0 .02 0 .01-.01a.1.1 0 0 1 0-.09Z" fill="#3E4A32"/><path d="m9.19 6.12.8.08c.23.03.49-.04.75.02l.02.02v.04c0 .02-.01.02-.03.02-.14 0-.26-.05-.4-.03-.4.04-.81.03-1.21-.05-.02 0-.03-.02-.03-.04l.03-.03a.3.3 0 0 1 .07-.03Z" fill="#FED501"/><path d="m5.05 8.28-.44.34c.1-.74.13-1.48.08-2.24 0-.11.03-.13.11-.05.11.1.16.23.15.39a7.59 7.59 0 0 0 .07 1.54l.03.02Z" fill="#0C2E2D"/><path d="M9.09 6.3c.42.1.83.12 1.25.06.12-.01.22.01.34.01a.02.02 0 0 1 .03.02v.03h-.01c-.66.13-1.31.12-1.96-.04-.03 0-.03-.02-.02-.04l.03-.02.34-.03ZM12.05 6.52c.15.45.1.87-.14 1.24l-.06-.18-.2-.87c0-.03 0-.06.02-.09.04-.06.1-.11.19-.16.08-.04.15-.03.19.06Z" fill="#FED501"/><path d="M12.1 6.5c.16.3.11.77.03 1.1-.06.21-.3.47-.07.66.02.03 0 .05-.04.07a.07.07 0 0 0-.04.04c0 .02-.01.03-.02.03a.04.04 0 0 0-.01.04.04.04 0 0 0 .02.03c.06.02.13.04.2.04-.02.03 0 .06.04.1-.55-.07-1 .07-1.36.43-.11.11-.21.17-.3.18a.63.63 0 0 1-.34-.04.14.14 0 0 1-.07-.06c-.24-.42-.63-.7-1.19-.84-.7-.18-1.79 0-1.93.85-.04.28 0 .54.13.77.23.4.69.63 1.11.74h.03l.03-.04v-.02c-1.11-.27-1.25-1.87 0-2.04.76-.1 1.33.1 1.7.63.03.39-.06.7-.26.95a.05.05 0 0 0-.01.04v.06c-.03.04-.05.1-.05.17-.74.48-1.5.46-2.3-.05a1.99 1.99 0 0 1-.33-.34c-.15-.24-.2-.5-.16-.78a.17.17 0 0 0-.12-.2l-.34-.12c-.1-.04-.11-.06-.06-.08l.48.15c.04.02.08 0 .1-.04V8.9a.04.04 0 0 0-.03-.06l-.49-.15c.1-.04.21-.03.36.04.12.06.21.04.28-.05.12-.17.28-.3.46-.38l.34-.13c.42-.02.75-.06 1-.14.43-.23.68-.05.96.23.14.16.12.2-.09.14a.66.66 0 0 0-.17-.04c-.15 0-.16.03-.02.09.23.1.42.25.57.46.01.02.02.05 0 .09 0 .03.01.05.04.07.07.03.14.04.23.02.18.04.3-.01.35-.14l.43-.3c.03-.03.03-.05 0-.06-.16-.06-.31-.09-.48-.08a.06.06 0 0 1-.03-.12l.24-.14a.04.04 0 0 0 .02-.03v-.04l-.2-.24-.05-.18v-.1a.06.06 0 0 1 .1-.05l.38.34a.1.1 0 0 1 .02.03l.01.03v.04l-.02.02h-.11c.03.07.08.11.16.13.13.2.26.31.4.34.16-.01.24-.07.23-.17-.01-.3 0-.5.05-.6.24-.38.29-.8.14-1.25.01 0 .02 0 .02-.02h.04Z" fill="#696868"/><path d="m11.85 7.58.06.18c-.05.11-.06.31-.04.61 0 .1-.08.16-.24.17.03-.18-.06-.3-.25-.4l.03.01c.03 0 .05 0 .06-.04a.94.94 0 0 0 .03-.49.19.19 0 0 0-.06-.1.09.09 0 0 1-.03-.07v-.07c-.14-.2-.14-.4 0-.62a.04.04 0 0 1 .07 0c.14.22.24.46.28.72 0 .03.02.05.04.07l.05.03Z" fill="#15CE40"/><path d="M8.25 7.33c.3.1.6.14.9.13.02-.02.04 0 .08.04l-.33.53c-.26.08-.6.12-1.01.14a.49.49 0 0 0-.15-.3c-.03-.02-.06-.02-.08 0-.17.1-.2.24-.1.43-.19.08-.35.2-.47.38-.07.1-.16.1-.28.05-.15-.07-.27-.08-.36-.04-.04.02-.06.06-.05.13-.06.02-.05.04.05.08l.34.13a.17.17 0 0 1 .12.19c-.05.28.01.54.16.78-.19.33-.04.72-.07 1.09-.02-.05-.05-.07-.09-.08-.03 0-.05.02-.05.06 0 .21.04.44.12.69-.07-.14-.13-.17-.17-.1.04-.2-.03-.36-.21-.49a1.52 1.52 0 0 0-.13-.32.8.8 0 0 1-.09-.5v-.05a.06.06 0 0 0-.03-.02c-.03-.02-.05-.01-.06.02-.03.05-.07.07-.14.05-.14-.14-.17-.26-.12-.45a.17.17 0 0 0-.06-.18c0-.1.04-.19.11-.27a.14.14 0 0 0 .03-.07l.09-.55c.02-.04.02-.06 0-.07.05-.03.05-.08.03-.13l.02-.03-.02-.02c-.26-.14-.36-.07-.63-.09a.1.1 0 0 0-.08.02c-.06.05-.11.04-.14-.04-.08-.23-.04-.42.13-.57a19 19 0 0 0 .28-.24c.18-.18.41-.32.69-.4.02.1-.03.17-.13.22-.02 0-.02.02-.02.03l.02.03c0 .02.02.03.04.02.16-.1.28-.24.37-.4L7.29 7a.24.24 0 0 1 .18 0l.78.34Z" fill="#FED501"/><path d="M10.93 7.1a.02.02 0 0 1 .02 0l.01.02a.7.7 0 0 1 .09.2c.01.06 0 .1-.02.12-.03.01-.07 0-.11-.04a.7.7 0 0 1-.13-.17h-.01V7.2a.02.02 0 0 1 0-.02l.15-.08Z" fill="#C2D234"/><path d="M6.76 7.16c-.09.16-.21.3-.37.4-.02 0-.03 0-.04-.02l-.02-.03.01-.03c.11-.05.16-.13.14-.23a.57.57 0 0 1 .28-.09Z" fill="#15CE40"/><path d="M10.34 7.24c0 .05 0 .08-.04.1-.06.04-.15.01-.23.05l-.84.11c-.04-.05-.06-.06-.07-.04l.11-.03c.15.03.26 0 .35-.06a.17.17 0 0 1 .09-.04l.63-.09Z" fill="#3E4A32"/><path d="M10.34 7.24c0 .02.03.03.1.01l.14.03c.03 0 .04.02.03.05a.6.6 0 0 0 .08.43l.04.18c-.1-.06-.16-.05-.18.02l-.04-.23a.17.17 0 0 0-.04-.07.78.78 0 0 0-.1-.09c-.03-.02-.07.02-.1.13a.5.5 0 0 1-.09-.23c0-.06-.04-.09-.11-.08.08-.04.17 0 .23-.05.04-.02.05-.05.04-.1Z" fill="#C2D234"/><path d="M8.1 7.5c-.01.2-.3.31-.4.1-.04-.1 0-.18.14-.26a.12.12 0 0 1 .13.01l.11.1c.02 0 .03.02.02.04Z" fill="#15CE40"/><path d="M10.07 7.4c.07-.02.1 0 .11.07.01.08.04.16.09.23.01.18.1.34.26.48.02.03.04.03.07 0l.02-.01a.06.06 0 0 0 0-.07l-.07-.14c.02-.07.08-.08.18-.02l.2.24a.04.04 0 0 1-.01.07l-.24.14a.06.06 0 0 0 .03.12c.17-.01.32.02.47.08.04.01.04.03 0 .05l-.42.3c-.17-.06-.29-.01-.35.15a.35.35 0 0 1-.23-.02c-.03-.02-.04-.04-.03-.07l-.01-.09a1.4 1.4 0 0 0-.57-.46c-.14-.06-.13-.1.02-.09.06 0 .12.02.17.04.2.06.23.02.09-.14-.28-.28-.53-.46-.95-.23l.33-.53.84-.1Z" fill="#E7C2B9"/><path d="m10.55 7.96.08.14v.07l-.03.02c-.03.02-.05.02-.07 0a.74.74 0 0 1-.26-.49c.03-.11.07-.15.1-.13l.1.1.04.06.04.23ZM14.88 7.76a6.2 6.2 0 0 1-1.02 4.79c-.14.2-.32.3-.55.27l-1.58-.01c-.12-.23-.25-.38-.24-.65.01-.23-.03-.5.06-.7.03-.08.06-.15.07-.23.03-.1 0-.12-.09-.06l-.08.06h-.04l-.01-.03v-.02c.03-.08.1-.12.17-.15a.16.16 0 0 0 .12-.16c-.01-.1-.07-.14-.18-.13a.15.15 0 0 0-.08.05.54.54 0 0 0-.17.42l.02.9c0 .04.01.06.05.07l.03.01c.02 0 .03.02.04.03.01.02.02.04.01.06-.04.19 0 .35.15.48.1.09.08.12-.05.1a.8.8 0 0 1-.23-.07c-.03-.01-.04-.03-.03-.05l.06-.45c0-.02 0-.04-.03-.05h-.05l-.04.07a12.17 12.17 0 0 0-.2.43l-.07.05c-.03-.05-.03-.07-.01-.06l.23-.93a.1.1 0 0 0-.01-.08.55.55 0 0 1-.09-.52l.24-.45c0-.14.1-.2.3-.18l.1-.01c.49-.29.7-.72.64-1.3a.4.4 0 0 0-.06-.18c-.04-.07-.1-.12-.14-.14-.46-.15-.9-.02-1.3.4.23-.43.59-.6 1.06-.54.98.15.56 1.3.06 1.7v.03l.01.02h.02c.56-.36.79-.85.69-1.48-.04-.21-.19-.37-.45-.47-.05-.03-.06-.06-.04-.09a.1.1 0 0 0 .05-.03c.02-.02.02-.05 0-.07-.04-.02-.05-.05-.05-.08.52.24 1.07.34 1.63.32.5-.02.83-.2 1-.55-.02-.44 0-.55.08-.34Z" fill="#0C2E2D"/><path d="m7.89 8.17-.33.13c-.1-.19-.07-.33.1-.43.02-.02.05-.02.08 0 .08.07.13.17.15.3Z" fill="#15CE40"/><path d="M11.32 8.14h.06c.2.1.28.22.25.4-.14-.03-.27-.14-.4-.34l-.01-.02c0-.02 0-.03.02-.03h.08Z" fill="#E7C2B9"/><path d="M12.2 8.6c.27.1.42.26.46.47.1.63-.13 1.12-.7 1.49l-.02-.03v-.04c.5-.39.92-1.54-.06-1.69-.47-.07-.83.11-1.07.55-.07.02-.12.17-.15.45l-.01.01a.02.02 0 0 1-.03 0V9.8a.49.49 0 0 0-.11-.3.11.11 0 0 0-.08-.05.24.24 0 0 0-.24.1.1.1 0 0 1-.03.03h-.04c-.04 0-.05-.02-.04-.05a.8.8 0 0 0-.05-.36c-.38-.53-.95-.74-1.71-.63-1.25.17-1.11 1.77 0 2.04v.02l-.03.03-.02.01h-.01c-.42-.11-.88-.34-1.1-.74-.14-.23-.18-.5-.14-.77.14-.85 1.22-1.03 1.93-.85.56.15.95.42 1.2.84 0 .02.03.04.06.06.11.04.23.06.34.04.09 0 .19-.07.3-.18.36-.36.81-.5 1.36-.44Z" fill="#A1A0A1"/><path d="M5.06 8.26c.08-.01.12 0 .12.02l-.01.48-.12.13L5 8.52a.04.04 0 0 0-.07-.03c-.33.28-.76.5-.93.94h-.02l-.04-.03a.04.04 0 0 1 0-.04c.09-.23.24-.42.43-.57l.24-.17.44-.34c.04-.01.04-.02.01-.02ZM12.06 8.26l.1.07c0 .03.02.06.06.08.02.02.02.05 0 .07a.1.1 0 0 1-.05.03.66.66 0 0 1-.2-.04.04.04 0 0 1-.02-.03.04.04 0 0 1 .01-.04s.02-.01.02-.03c0-.02.02-.03.04-.04.05-.02.06-.04.04-.07Z" fill="#C2D234"/><path d="M5.93 8.76v.06c-.17.04-.27.3-.37.44l-.04-.34h.08a.06.06 0 0 0 .03-.07l-.03-.12c.07-.17.25-.09.33.03Z" fill="#FED501"/><path d="M5.47 8.75c.04 0 .07.01.08.03 0 .01 0 .03-.03.06s-.03.06 0 .08l.04.34c-.01.03-.02.05-.01.06-.02.14-.03.28-.03.43 0 .06-.05.08-.16.05l-.11-.2a.12.12 0 0 0-.03-.04l-.16-.12a.09.09 0 0 1-.04-.07c0-.06-.02-.1-.08-.12.06-.1.1-.21.1-.36l.13-.13a.31.31 0 0 1 .3-.01Z" fill="#E7C2B9"/><path d="m6.45 8.7.5.14a.04.04 0 0 1 .02.06v.03c-.02.04-.06.06-.1.04l-.48-.15c0-.07.02-.1.06-.13Z" fill="#A1A0A1"/><path d="M5.47 8.75c.04 0 .09 0 .13-.02l.03.12c0 .03 0 .05-.03.07h-.08c-.03-.02-.03-.05 0-.08l.03-.06c0-.02-.04-.03-.08-.03Z" fill="#9D9E19"/><path d="M5.92 8.82c.03 0 .04.02.03.05l-.14.32a.2.2 0 0 0-.02.09c0 .06-.02.1-.08.12-.02 0-.03.02-.02.03l.01.03h.03c.18-.09.25-.39.37-.56a.2.2 0 0 1 .1-.07l-.09.55c0 .03-.01.05-.03.07a.38.38 0 0 0-.1.27.63.63 0 0 1-.14.24c-.03.03-.04.02-.06 0l-.03-.08a.05.05 0 0 0-.05-.03.3.3 0 0 0-.1.02l-.05-.55.01-.06c.1-.13.2-.4.36-.44Z" fill="#D64312"/><path d="m11.28 10.75-.27-.18c-.21-.13-.5-.53-.52-.73-.06-.4-.17-.41-.33-.04-.06.15-.22.34-.46.59 0-.08.02-.13.05-.17v-.03a.8.8 0 0 1 0-.03v-.04c.2-.25.3-.56.28-.95a.8.8 0 0 1 .05.36c0 .03 0 .05.04.05h.04a.1.1 0 0 0 .03-.03.24.24 0 0 1 .24-.1c.03 0 .06.02.08.04.07.1.1.2.1.3a.02.02 0 0 0 .03.02.02.02 0 0 0 .02-.01c.03-.28.08-.43.15-.45.42-.43.85-.56 1.3-.4.06.01.1.06.15.13a.4.4 0 0 1 .06.18c.06.58-.15 1.01-.65 1.3a.14.14 0 0 1-.08.01c-.2-.02-.3.04-.3.18Z" fill="#696868"/><path d="M4.94 9.25c.06.02.08.06.09.12 0 .03 0 .05.03.07l.16.12.03.04.1.2c.14.19.2.4.2.63 0 .02 0 .04-.02.06a9.62 9.62 0 0 1-.1.92c-.03.2.1.3.03.54l-.1.2a.08.08 0 0 0-.07 0 .06.06 0 0 0-.03.02l-.01.03c.01.1-.02.16-.1.2a.1.1 0 0 1-.1 0 .1.1 0 0 1-.06-.1l.02-.35a.18.18 0 0 0 .08-.11.1.1 0 0 0-.01-.08.46.46 0 0 1-.08-.24.07.07 0 0 0-.04-.06c-.08-.02-.1-.07-.1-.16l.03-.04.08-.08c.03-.03.03-.05 0-.07l-.07-.03a.06.06 0 0 1-.03-.04V11a.26.26 0 0 0-.05-.27l.12-.85c.04-.3-.03-.33-.2-.07l-.41.66c-.05 0-.08.01-.07.02-.2.06-.25.26-.48.3-.06.02-.06 0-.02-.03.4-.28.61-.5.75-.88a.03.03 0 0 0-.04-.04 10.68 10.68 0 0 0-.91.33c-.05 0-.06 0-.01-.03.31-.13.61-.2.91-.37.22-.13.32-.33.48-.52Z" fill="#C2D234"/><path d="m5.55 9.32.05.55.08.23a.1.1 0 0 0 .05.06l.09.04.05.06c.05.09.15.12.28.09.07.02.11 0 .14-.05.01-.03.03-.04.06-.02l.03.02v.04a.8.8 0 0 0 .1.51c.04.1.09.2.12.32a.26.26 0 0 0-.07.2l-.3-.88a.14.14 0 0 0-.16-.09h-.03a.11.11 0 0 0-.09.14l.06.24-.07-.09c-.02-.03-.03-.03-.05 0-.07.16 0 .26.03.4.05.16 0 .4 0 .58l-.2-1.29a.04.04 0 0 0-.01-.03.04.04 0 0 0-.04 0c-.07.02-.1.08-.1.18 0 .17-.02.36.04.53.03.05.04.1.05.15a.1.1 0 0 1-.02.07.52.52 0 0 0-.11.23c-.02.1.04.2 0 .3-.02.06-.02.1.03.14a.14.14 0 0 0-.1 0c.08-.23-.06-.34-.03-.54a9.6 9.6 0 0 0 .1-.92.12.12 0 0 0 .02-.06c0-.23-.06-.44-.2-.63.12.03.18.01.17-.05 0-.15 0-.3.03-.43Z" fill="#9D9E19"/><path d="m11.28 10.75-.24.45c-.3.28-.53.62-.8.88-.46.47-.57.75-1.33.67-.03 0-.05.01-.05.04l-.05.71-.01-.05c0-.03-.02-.04-.05-.04h-.04a.06.06 0 0 0-.06.03l-.22.39a.11.11 0 0 0-.01.07c.01.1 0 .21-.04.32-.02.03-.03.03-.04 0-.09-.24.08-.5.15-.72l.05-.06a.88.88 0 0 0 .3-.48.18.18 0 0 0-.1-.2.18.18 0 0 0-.08-.02.9.9 0 0 1-.45-.13l-.28-.13a.1.1 0 0 0-.09-.01c-.22.07-.33-.06-.35-.26-.02-.16-.2-.35-.3-.46-.1-.1-.15-.33-.19-.66.03-.37-.12-.76.08-1.09.15.19.26.3.31.34.8.51 1.57.53 2.3.05.25-.25.4-.44.47-.6.16-.36.27-.35.33.05.03.2.3.6.52.73l.27.18ZM5.97 9.72c.06.05.08.11.06.18-.05.2-.02.3.12.45-.13.03-.23 0-.28-.1a.15.15 0 0 0-.05-.04l-.1-.05a.1.1 0 0 1-.04-.06l-.08-.23a.3.3 0 0 1 .1-.02c.03 0 .05.01.05.03l.03.07c.02.03.03.04.06.01.05-.06.1-.14.13-.24Z" fill="#E7C2B9"/><path d="m5.91 11.67.2 1.01c.02.07-.01.11-.08.12h-.09a.05.05 0 0 1-.02-.04 2.9 2.9 0 0 1-.01-.69c0-.09-.01-.13-.06-.2h-.03a.4.4 0 0 0-.13.12c-.02.02-.04.02-.05 0-.03-.03-.05-.04-.06-.01a.06.06 0 0 1-.02-.03c-.05-.03-.05-.08-.03-.14.04-.1-.02-.2 0-.3a.52.52 0 0 1 .1-.23.1.1 0 0 0 .03-.07.6.6 0 0 0-.05-.15c-.06-.17-.05-.36-.04-.53 0-.1.03-.16.1-.18a.04.04 0 0 1 .04 0l.01.01v.02l.2 1.29ZM6.53 11.36l-.06.5c0 .04 0 .07.03.1l.06.07a.1.1 0 0 1 .02.1c-.1.25-.15.34-.04.62a.58.58 0 0 1-.12.17c-.02.02-.03.01-.03 0a.71.71 0 0 0-.16-.26c0-.06.02-.1.05-.13.02-.01.02-.03 0-.05-.16-.2-.12-.53-.08-.79 0-.03.02-.05.03-.08.16-.23-.1-.63-.22-.83l-.06-.24a.11.11 0 0 1 .09-.13l.03-.01a.14.14 0 0 1 .16.09l.3.87Z" fill="#15CE40"/><path d="M6 10.78c.14.2.4.6.23.83a.19.19 0 0 0-.03.08c-.04.26-.08.6.09.79v.05c-.04.03-.06.07-.06.13-.05-.02-.08.02-.08.12 0 .03 0 .05.02.08.06.08.06.15 0 .18v-.1c-.02-.03-.04-.04-.06-.02a.51.51 0 0 0-.2.36c0 .03 0 .05-.02.08a.91.91 0 0 0-.19.5.1.1 0 0 1-.07.09c-.05 0-.07 0-.06-.05-.03-.3.04-.56.18-.8.06-.1.07-.2 0-.29a.12.12 0 0 1-.02-.08c0-.07-.02-.1-.08-.12-.02-.01-.04 0-.05.02a.35.35 0 0 1-.06.14.57.57 0 0 1 .04-.32.12.12 0 0 0 0-.09c-.05-.13.08-.22 0-.38.01-.03.03-.02.06.01.02.02.03.02.05 0a.4.4 0 0 1 .13-.12h.03c.05.07.07.11.06.2-.02.23-.02.46.01.7l.02.02.04.02.05-.01c.07-.01.1-.05.08-.12l-.2-1.01c.02-.18.06-.42.01-.59-.04-.13-.1-.23-.03-.38.02-.04.03-.04.05 0l.07.08Z" fill="#C2D234"/><path d="M4.82 10.73c.07.08.08.17.05.26v.05c0 .02.01.03.03.04l.06.03c.04.02.04.04.01.07l-.08.08a.08.08 0 0 0-.02.04c-.02.09.01.14.09.16a.06.06 0 0 1 .04.06c0 .09.03.17.08.24a.1.1 0 0 1 .01.08.18.18 0 0 1-.08.11c-.1.02-.18.09-.24.2a.57.57 0 0 0-.27.15c-.14-.17-.15-.37-.03-.57.03-.06.02-.08-.05-.09h-.04a.04.04 0 0 1-.02-.02v-.02c.02-.12.08-.22.17-.27a.59.59 0 0 0 .3-.6Z" fill="#3E4A32"/><path d="m11.73 12.8-.07.14a.08.08 0 0 1-.08.05l-.29.02a.08.08 0 0 0-.07.04l-.24.53a.22.22 0 0 0 .04.24c.05.06.08.13.07.2a.16.16 0 0 1-.1.14c-.15.05-.22.01-.22-.13l.01-.33c.06-.2.14-.4.23-.6.02-.05 0-.1-.05-.13a.23.23 0 0 0-.1-.07c0-.04.02-.07.06-.1l.07-.06a12.44 12.44 0 0 1 .24-.5h.05c.03 0 .04.03.03.05l-.06.45c0 .02 0 .04.03.05.1.04.17.07.23.08.13.01.15-.02.05-.11a.46.46 0 0 1-.15-.48.07.07 0 0 0-.05-.09h-.03c-.04-.02-.05-.04-.05-.07 0-.3 0-.61-.02-.91 0-.18.06-.3.17-.42a.15.15 0 0 1 .08-.05c.1-.01.17.03.18.13a.15.15 0 0 1-.12.16.28.28 0 0 0-.18.15v.02l.02.02c0 .02.02.02.04.01l.08-.06c.09-.06.12-.04.1.06a1.2 1.2 0 0 1-.08.23c-.1.2-.05.47-.06.7 0 .27.12.42.24.65Z" fill="#C2D234"/><path d="M7 11.09c.03.33.1.55.19.66.1.11.28.3.3.46.02.2.13.33.35.26a.1.1 0 0 1 .09 0l.28.14a3 3 0 0 1-.46-.1c-.06-.02-.1 0-.12.05l.01.08c.03.04.07.07.12.1.03 0 .03.02 0 .02a.57.57 0 0 1-.37-.09c-.02 0-.02-.01 0-.02h.07a.1.1 0 0 0 .04-.17c-.13-.09-.2-.19-.22-.3l-.3-.42a2.16 2.16 0 0 1-.12-.7c0-.03.02-.05.05-.05.04 0 .07.03.1.08Z" fill="#9D9E19"/><path d="M6.6 11.17c.18.13.25.29.2.48l-.03.56c0 .03 0 .06.02.08.1.16.01.38.03.54l-.02.3-.02-.07h-.01l-.03.01a.01.01 0 0 1-.02 0 .42.42 0 0 0-.18-.32c-.11-.28-.05-.37.04-.63a.1.1 0 0 0-.02-.09l-.06-.08a.11.11 0 0 1-.03-.08l.06-.5c0-.07.02-.14.07-.2Z" fill="#D64312"/><path d="M11.04 11.2c-.06.2-.03.37.09.52a.1.1 0 0 1 .01.08l-.23.93c-.18.09-.27.22-.25.4 0 .03 0 .06-.04.08-.2.16-.24.36-.14.6v.05a.1.1 0 0 1-.1.1c-.26-.03-.35-.19-.3-.46a.07.07 0 0 1 .05-.05.06.06 0 0 1 .07.02c.04.05.04.1 0 .15a.06.06 0 0 0 0 .08l.03.03h.03a.04.04 0 0 0 .03 0c.06-.08.06-.15 0-.2a.06.06 0 0 1-.01-.07.76.76 0 0 1 .27-.31.04.04 0 0 0 .01-.06l-.02-.01a.04.04 0 0 1-.03-.03.04.04 0 0 0-.03-.01h-.02l-.01.01c-.1.14-.22.26-.37.35-.04.03-.07.02-.06-.04 0-.06.05-.1.13-.1l.06-.05c.1-.2.28-.26.37-.42a14.67 14.67 0 0 0 .1-.22h-.03a.04.04 0 0 0-.04 0c-.1.17-.22.31-.36.45-.12.13-.31.17-.43.33-.22.28-.44.45-.5.83-.01.12-.07.2-.09.32 0 .01 0 .02-.02.02h-.05c-.02 0-.03 0-.03-.03l.04-.5c0-.03.01-.05.03-.08a.67.67 0 0 0 .1-.45c.08-.08.17-.19.26-.32.09-.12.28-.29.33-.39.13-.25.09-.28-.12-.09-.24.22-.46.5-.67.86 0-.1.03-.2.07-.32v-.04c-.03-.03-.05-.02-.06 0l-.42.68.12-.34.05-.7c0-.04.01-.05.05-.05.76.08.87-.2 1.33-.67.27-.26.5-.6.8-.88ZM4.74 11.65a.2.2 0 0 1 .05-.1.04.04 0 0 1 .04-.02c.01 0 .02 0 .02.02l.01.02c0 .06-.01.1-.06.12h-.02a.04.04 0 0 1-.04-.02v-.02Z" fill="#9D9E19"/><path d="m6.98 11.76.3.42c-.17.13-.2.25-.1.38v.06c-.04.05-.03.1.01.14-.03-.01-.05 0-.07.06l-.04-.1a.06.06 0 0 0-.07-.04c-.08.01-.14.06-.19.15-.02-.16.06-.38-.03-.54a.14.14 0 0 1-.02-.08l.04-.56c.04-.06.1-.03.17.1Z" fill="#C2D234"/><path d="M9.4 11.82c.06.22.29.23.45.12.1-.07.11-.06.03.03-.2.2-.64.03-.54-.27 0 0 0-.02.02-.02l.02-.01h.03a.1.1 0 0 1 0 .07.13.13 0 0 0 0 .08ZM5 11.95v.36a.1.1 0 0 0 .04.09.1.1 0 0 0 .1 0c.09-.04.12-.1.11-.2l.01-.03c0-.02.02-.02.03-.03l.06.01c-.07.1-.06.22-.12.31a.86.86 0 0 1-.12.17c-.15.14-.13.18.06.12a1.03 1.03 0 0 0 .26-.16l.01.02v.03a1.6 1.6 0 0 0-.65.63.4.4 0 0 0-.13-.12 1.4 1.4 0 0 0 .3-.63.05.05 0 0 0-.06-.03c-.09.04-.18.06-.27.07-.04 0-.05 0 0-.03l.25-.18a.11.11 0 0 0 .05-.08c0-.03 0-.07-.02-.1a.08.08 0 0 0-.08-.03l-.06.01c.06-.11.14-.18.24-.2Z" fill="#7D715D"/><path d="M5.46 11.95a.14.14 0 0 1 .1 0l.02.03c.08.16-.05.25 0 .38v.1c-.04.09-.06.2-.04.3a.55.55 0 0 0-.05.32v.09l-.14.57c-.24-.15-.42-.3-.56-.47.16-.27.37-.48.64-.63.02 0 .02-.01.01-.03v-.02h-.01c-.11.09-.2.14-.26.16-.19.06-.21.02-.07-.12a.86.86 0 0 0 .13-.17c.06-.1.05-.2.12-.31l.11-.2ZM4.77 12.15h.06c.03-.01.06 0 .08.03.02.02.03.06.02.1 0 .03-.02.05-.05.07l-.26.18c-.04.03-.04.04.01.03.1-.01.18-.03.27-.07h.02a.05.05 0 0 1 .04.03v.03a1.4 1.4 0 0 1-.3.6l-.49-.58c.2-.08.3-.17.33-.27a.57.57 0 0 1 .27-.15ZM7.28 12.18c.02.11.1.21.22.3a.1.1 0 0 1-.04.17h-.07c-.02 0-.02.01 0 .02.11.07.23.1.36.09.04 0 .04-.01 0-.03a.33.33 0 0 1-.1-.1.08.08 0 0 1-.02-.07c.02-.05.06-.07.12-.06a3 3 0 0 0 .46.11c.14.08.29.13.45.13a.18.18 0 0 1 .17.22.88.88 0 0 1-.3.48.15.15 0 0 0-.04.06c-.07.22-.24.48-.15.72.01.03.02.03.04 0 .04-.1.05-.21.04-.32l.01-.07.22-.39a.06.06 0 0 1 .06-.03h.04c.03 0 .04.01.05.04v.05l-.11.34c-.12.23-.14.45-.07.64l.03.44c-.02.03-.04.04-.06.04-.22-.02-.59 0-.78-.1a.72.72 0 0 1 .25-.2.04.04 0 0 0 .02-.03l-.01-.02-.02-.01-.07-.02a.17.17 0 0 0-.15.02.78.78 0 0 0-.22.24c-.35-.07-.7-.19-1.05-.36.07-.17.24-.4.23-.56a5.82 5.82 0 0 1 0-.8l.03-.3c.05-.08.11-.13.19-.14.03 0 .05.01.07.04l.04.1.54.72c.03.06.05.05.04-.01-.05-.28-.34-.55-.5-.77-.05-.05-.06-.1-.02-.14v-.06c-.1-.13-.07-.25.1-.38Z" fill="#FFD5F9"/><path d="m9.3 13.46-.17.24c-.04.06-.08.06-.1-.01l.03-.12.04-.05c.2-.35.43-.64.67-.86.2-.2.25-.16.12.1-.05.1-.24.26-.33.38a2.5 2.5 0 0 1-.26.32Z" fill="#C2D234"/><path d="m10.9 12.73.02.06c-.04.04-.06.07-.06.1-.02.1-.08.1-.1.17-.03.05-.02.1 0 .15.04.04.07.03.08-.02l.06-.18c0-.02.01-.03.03-.03h.03c.05.03.07.07.05.12-.1.2-.17.4-.23.6-.01.08-.05.12-.1.14a.19.19 0 0 0-.07.04c-.11.1-.14.18-.08.24.08.04.13.09.14.15l.03.06.09.11c.01.02.03.03.06.04a.3.3 0 0 1 .09.03.07.07 0 0 1 .04.05.07.07 0 0 1-.03.06c-.07.05-.13.04-.18-.04l-.01-.01h-.03l-.03-.01-.22-.25c-.01-.02-.03-.02-.04 0a.6.6 0 0 1-.42.18c-.05 0-.05-.01-.03-.02-.08-.17-.2-.25-.35-.23-.19.02-.2.08-.03.17.1.06.1.17.27.14.02.05.02.08.01.1-.02.04-.04.06-.08.05-.02 0-.04-.02-.06-.05a1.08 1.08 0 0 0-.26-.24h-.02a.03.03 0 0 0-.02.03c-.05.23.02.4.23.49-.07.06-.16.08-.27.07-.23-.02-.43.02-.64 0a.1.1 0 0 1-.07-.05l-.05-.03-.03-.44c.02.16.06.26.1.3a.2.2 0 0 0 .34-.14c0-.13-.03-.43-.17-.51a.08.08 0 0 1-.03-.03v-.04a.86.86 0 0 1 .2-.49.31.31 0 0 0-.02.12c.01.07.05.07.1 0l.16-.23c.02.16-.02.31-.1.45a.17.17 0 0 0-.03.08l-.04.5c0 .02 0 .03.03.03h.05c.01 0 .02 0 .02-.02.02-.13.08-.2.1-.32.05-.38.27-.55.49-.83.12-.16.3-.2.43-.33a3.06 3.06 0 0 0 .38-.46h.02l.03.01a14.2 14.2 0 0 1-.1.22c-.1.16-.26.23-.37.42a.09.09 0 0 1-.07.04c-.07.02-.12.05-.12.11s.01.07.06.04a1.27 1.27 0 0 0 .38-.36h.04l.01.02.03.02a.04.04 0 0 1 .03.03.04.04 0 0 1-.02.04.76.76 0 0 0-.28.3v.04l.01.04c.07.05.07.12.01.2a.04.04 0 0 1-.06 0l-.02-.03a.06.06 0 0 1-.01-.08c.04-.05.04-.1 0-.15a.06.06 0 0 0-.1 0l-.01.03c-.06.28.03.43.28.45a.1.1 0 0 0 .12-.09.1.1 0 0 0-.01-.05c-.1-.24-.05-.44.14-.6a.1.1 0 0 0 .04-.08c-.02-.18.07-.31.25-.4Z" fill="#3E4A32"/><path d="m5.57 13.9-.22-.16.13-.57v-.1c0-.1.01-.2.06-.3a.35.35 0 0 0 .06-.14c0-.02.03-.03.05-.02.06.01.09.05.08.12 0 .03 0 .06.02.08.07.1.06.19 0 .3-.14.23-.2.5-.18.79Z" fill="#15CE40"/><path d="M6.23 12.66c.07.08.13.17.16.26 0 .01.01.02.03 0 .05-.05.09-.1.12-.17a.42.42 0 0 1 .18.32h.02a2.81 2.81 0 0 1 .04-.01l.02.07c-.02.26-.02.52 0 .8 0 .15-.17.38-.24.55h-.03a.23.23 0 0 0 0-.16c-.02-.06 0-.1.04-.13a.07.07 0 0 0 .04-.08l-.01-.03a.84.84 0 0 1-.15-.26c-.04-.1.01-.17-.07-.26a.07.07 0 0 1-.02-.08l.02-.08v-.05c-.02-.08-.11-.08-.25 0l-.2.78c-.06 0-.1-.03-.14-.06-.02-.02-.02-.04 0-.07l.02-.02.02-.03c.07-.32.18-.62.34-.9.06-.04.06-.1 0-.2a.13.13 0 0 1-.02-.07c0-.1.03-.14.08-.12Z" fill="#FED501"/><path d="M7.2 12.76c.16.22.45.5.5.77 0 .06 0 .07-.04.01l-.54-.72c.02-.05.04-.07.07-.06Z" fill="#9D9E19"/><path d="m11.73 12.8 1.58.02h.14a.09.09 0 0 1 .05.15l-.3.32a.14.14 0 0 1-.2 0 .21.21 0 0 0-.15-.05.1.1 0 0 0-.07.03.1.1 0 0 0-.03.05c0 .04 0 .07.03.1l.06.06.02.04c0 .01 0 .03-.02.04-.12.16-.33.23-.46.34-.32.27-.69.53-1.1.61h-.07c-.13-.08-.24-.04-.34-.08a.39.39 0 0 1-.2-.22.1.1 0 0 0-.06-.05l-.08-.04c-.06-.06-.03-.14.08-.24a.19.19 0 0 1 .07-.04c.05-.02.09-.06.1-.14l-.01.33c0 .14.07.18.21.13a.16.16 0 0 0 .11-.14.25.25 0 0 0-.07-.2.22.22 0 0 1-.04-.24l.24-.52a.08.08 0 0 1 .07-.05l.3-.02c.03 0 .05-.02.07-.05l.07-.13Z" fill="#7D715D"/><path d="M10.86 12.9c.05.02.08.04.1.07h-.03a.05.05 0 0 0-.03.04l-.06.18c-.01.05-.04.06-.07.02a.14.14 0 0 1-.02-.15c.03-.07.1-.08.11-.16Z" fill="#9D9E19"/><path d="m9.1 13.52-.04.05a.85.85 0 0 0-.2.49v.04l.03.03c.14.08.16.38.17.5a.2.2 0 0 1-.33.15c-.05-.04-.09-.14-.1-.3-.08-.2-.06-.4.06-.64l.42-.68c.01-.02.03-.03.05 0 .01 0 .02.02.01.04-.04.12-.07.23-.07.32Z" fill="#0C2E2D"/><path d="m6.53 14.47-.25-.13c0-.08-.01-.14-.05-.18a.15.15 0 0 1-.02-.2.15.15 0 0 1 .05-.04c.04-.02.05-.07.04-.16a1.27 1.27 0 0 1-.01-.25c0-.06 0-.1-.02-.12-.03-.03-.08-.05-.14-.04.14-.08.23-.08.25 0v.05l-.02.08c-.01.03 0 .06.02.08.08.09.03.17.07.26.03.1.08.18.15.26a.07.07 0 0 1 0 .09l-.03.02c-.05.02-.06.07-.04.13.02.05.02.1 0 .15Z" fill="#C2D234"/><path d="M6.13 13.35c.06 0 .1 0 .14.04.02.02.02.06.02.12v.25c.02.09 0 .14-.03.16a.15.15 0 0 0-.03.24c.04.04.06.1.05.18l-.35-.21.2-.78Z" fill="#A1A0A1"/><path d="M9.61 14.08c0 .08.05.15.1.15s.1-.06.1-.15c0-.08-.05-.15-.1-.15s-.1.07-.1.15Z" fill="#15CE40"/><path d="M9.99 14.47c-.04.05-.08.08-.1.08-.19.03-.18-.08-.28-.14-.17-.1-.16-.15.03-.17.16-.02.27.06.35.23Z" fill="#9D9E19"/><path d="M9.88 14.55c.03 0 .07-.03.1-.08-.01.01 0 .02.04.02.1.06.13.15.1.27a.1.1 0 0 1-.05.07.64.64 0 0 1-.4.1c-.2-.1-.27-.26-.22-.5a.03.03 0 0 1 .05-.02c.1.07.18.15.25.24.02.03.05.05.07.05.03 0 .05-.01.07-.05v-.1Z" fill="#A1A0A1"/><path d="M8.33 14.65c0 .13.04.24.08.24.03 0 .05-.12.03-.25 0-.13-.04-.24-.07-.24-.03 0-.05.11-.04.25Z" fill="#E7C2B9"/><path d="M7.8 14.87a.36.36 0 0 0-.18-.03.79.79 0 0 1 .21-.24.17.17 0 0 1 .15-.02l.07.02a.03.03 0 0 1 .03.03.04.04 0 0 1-.02.03.72.72 0 0 0-.25.2Z" fill="#15CE40"/></svg>