<!-- by TradingView --><svg width="18" height="18" viewBox="0 0 18 18" xmlns="http://www.w3.org/2000/svg"><path fill="url(#abwtaolrh)" d="M0 0h18v18H0z"/><path d="M7.18 4.76A3.76 3.76 0 0 1 9 3c0 1.01-.1 1.28-.14 1.29.15.01.52.05.72.12C9.8 4.21 10.76 4 11 4c-.1.45-.47.82-.64.91.13.09.42.34.49.46.1-.14.67-.1.85-.1.18-.45.9-.66 1.07-.66.26-.4 1.01-.58 1.23-.61-.07.22-.39.52-.57.52a.68.68 0 0 0-.34.1h.3a.95.95 0 0 1-.75.46c-.26 0-.49.15-.57.18h.63c-.13.36-.38.4-.94.4-.45 0-.76.2-.86.25h1.05c-.1.45-.8.42-1.12.4.08.03.3.1.47.1.17 0 .34-.07.4-.1.03.27.7.81 1.13 1.15.44.33.83.44.92.71.07.21.02.67-.23 1.15-.09.18-.25.22-.69.49-.43.27-.48.36-.62.36a.78.78 0 0 1-.46-.17c-.35-.35-1.06-.38-1.22-.38-.15 0-.4.03-.56.11 0 .35.46 1.49 1.19 1.85 1.1.53 1.78 1.56 1.84 2.42-.78-1.8-3.22-2.02-3.9-2.23-.7-.21-1.27-1.28-1.48-1.65 1.2.98 1.47 1.15 2.24 1.45A4.5 4.5 0 0 1 7.8 8.01c.4.98.77 1.16 2.07 1.16 1.38 0 2.03.67 2.28.67s.28-.14.57-.3c.24-.11.42-.21.48-.25v-.17c.1-.12.29-.42.29-.57 0-.18-.15-.36-.51-.36-.3 0-.61.23-.7.31l.2-.43-.62-.58a5.22 5.22 0 0 0-1.66-1.18c-.35-.14-.36-.25-.36-.46 0-.2-.75-.67-.75-.77 0-.1.1-.15.28-.24-1 0-1.68.32-1.9.48.1 0 .26.07.33.1-.84.21-1.47.7-1.51.76-.05.06-.28.78-.28 1.37V9c-.03-.04-.12-.3-.22-.5 0 2.08.98 2.49.98 3.72 0 .7-.56 1.02-.76 1.13v-.32c-.73.85-1.13.97-1.66.97.46-.16.82-.62.82-1.04 0-.34-.33-.83-.47-1.06v.48c-.8-.72-.53-2.09-.35-2.75-.05.08-.22.17-.34.37.21-3.73 2.5-4.97 3.18-5.24Z" fill="#FFFBEF"/><path d="M9 6.04c.04-.01.95-.3 1 .96-.25 0-.75-.27-1-.96Z" fill="#FFFBEF"/><defs><linearGradient id="abwtaolrh" x1="15.27" y1="1.93" x2="1.45" y2="14.46" gradientUnits="userSpaceOnUse"><stop stop-color="#F1912B"/><stop offset="1" stop-color="#F25F2B"/></linearGradient></defs></svg>