<!-- by TradingView --><svg width="18" height="18" viewBox="0 0 18 18" xmlns="http://www.w3.org/2000/svg"><path fill="#0174B7" d="M0 0h18v18H0z"/><path d="M9 3c-.13 0-.23.11-.23.25s.1.25.23.25.23-.11.23-.25S9.13 3 9 3Zm-.3 2c0-.18.13-.33.3-.33.17 0 .3.15.3.33 0 .18-.13.33-.3.33-.17 0-.3-.15-.3-.33ZM5.14 8.29a.42.42 0 0 0-.07.56c.12.18.36.21.53.08l1.17-.94c.16-.13.2-.38.07-.56a.36.36 0 0 0-.53-.08l-1.17.94Zm0 1.8a.42.42 0 0 0-.07.55c.12.18.36.21.53.08l2.34-1.9c.16-.13.2-.39.07-.56a.36.36 0 0 0-.53-.08l-2.34 1.9Zm-.07 2.35a.42.42 0 0 1 .07-.56l3.57-2.92c.14-.11.33-.1.47.01l3.66 2.91c.17.14.2.39.07.56a.36.36 0 0 1-.53.08L8.95 9.79 5.6 12.52c-.17.13-.4.1-.53-.08Zm1.12.35a.42.42 0 0 0-.07.57c.13.17.37.2.53.07L9 11.53l2.34 1.9c.17.14.4.1.53-.07a.42.42 0 0 0-.07-.57l-2.56-2.07a.36.36 0 0 0-.24-.08.36.36 0 0 0-.24.08L6.2 12.8Zm1.15 1.38a.42.42 0 0 1 .07-.56l1.34-1.07a.36.36 0 0 1 .24-.09c.08 0 .17.03.24.09l1.34 1.07c.17.13.2.38.07.56a.36.36 0 0 1-.53.08L9 13.35l-1.12.9c-.17.13-.4.1-.53-.08Zm1.65.07c-.2 0-.36.17-.36.38S8.8 15 9 15a.38.38 0 0 0 .35-.38.37.37 0 0 0-.35-.38ZM6.08 4.25c0-.14.1-.25.23-.25s.23.11.23.25-.1.25-.23.25-.23-.11-.23-.25ZM5.3 6.67c-.17 0-.31.15-.31.33 0 .18.14.33.3.33.18 0 .32-.15.32-.33 0-.18-.14-.33-.31-.33Zm1.23-1c0-.19.14-.34.3-.34.18 0 .31.15.31.34 0 .18-.13.33-.3.33-.17 0-.31-.15-.31-.33Zm6.31 2.62c.17.13.2.38.07.56a.36.36 0 0 1-.53.08l-1.17-.94a.42.42 0 0 1-.07-.56.36.36 0 0 1 .53-.08l1.17.94Zm.07 2.35a.42.42 0 0 0-.07-.56l-2.34-1.9a.36.36 0 0 0-.53.08c-.13.17-.1.43.07.56l2.34 1.9c.17.13.4.1.53-.08ZM11.7 4c.13 0 .23.11.23.25s-.1.25-.23.25-.23-.11-.23-.25.1-.25.23-.25ZM13 7c0-.18-.14-.33-.3-.33-.18 0-.32.15-.32.33 0 .18.14.33.31.33.17 0 .31-.15.31-.33Zm-1.85-1.67c.17 0 .31.15.31.34 0 .18-.14.33-.3.33-.18 0-.31-.15-.31-.33 0-.19.13-.34.3-.34Z" fill="#fff"/></svg>