<!-- by TradingView --><svg width="18" height="18" viewBox="0 0 18 18" xmlns="http://www.w3.org/2000/svg"><path fill="#E7CFDD" d="M0 0h18v18H0z"/><path d="M4.43 11.87a3.1 3.1 0 0 1-.22-2.17c.07-.35.08-.74.14-1.12a.91.91 0 0 0 0-.31c-.1-.5-.18-1.02-.22-1.54a5.09 5.09 0 0 0-.07-.48c-.09-.47-.06-.92-.05-1.39 0-.3.26-.57.52-.66.47-.15 1.48.47 1.9.7a.13.13 0 0 0 .12.01 5.48 5.48 0 0 1 4.62-.13c.11.05.18.02.27-.05A5.32 5.32 0 0 1 13.18 4c.35 0 .73.23.81.62.04.19-.05.42-.04.63.02.15.02.26.01.32-.04.67-.14 1.35-.2 2.02-.03.2-.05.39-.09.58-.05.3.06.59.08.88 0 .14 0 .27.03.4.14.55.26 1.18.1 1.72a3 3 0 0 1-1.21 1.63c-.8.54-1.66.9-2.6 1.1-.36.08-.92.12-1.37.09-.25-.02-.5-.03-.74-.08-.8-.16-1.4-.34-1.95-.62a7.95 7.95 0 0 1-.72-.46 2.74 2.74 0 0 1-.86-.96Z" fill="#fff"/><path d="M13.69 4.4c0 .04-.05.05-.13.04-.03 0-.04 0-.06.02-.14.13-.22.13-.38.17a.72.72 0 0 0-.19.07c-.18.1-.35.15-.53.21a2.2 2.2 0 0 0-.95.92l-.6-.34c-.05-.03-.06-.07-.02-.11.13-.16.28-.23.44-.36.72-.43 1.16-.69 1.8-.81.22-.04.42.02.62.19Z" fill="#B97332"/><path d="M11.27 5.02c-.15.13-.31.2-.44.36-.04.04-.03.08.02.1l.6.35c.04.06.08.1.11.12l.45.52-.1-.02c-.02 0-.02-.02-.02-.04l-.01-.03a.14.14 0 0 0-.09-.05l-.2-.04-.03-.02a.14.14 0 0 0-.1-.04.1.1 0 0 1-.04-.01c-.08-.05-.13-.03-.16.05a1.3 1.3 0 0 0-.02.74.1.1 0 0 1-.01.06.35.35 0 0 0-.03.12c0 .02-.02.04-.03.05l-.18.1-.04-.01a.4.4 0 0 0-.08-.1c-.08-.06-.21-.06-.31-.12a.11.11 0 0 1-.04-.04l-.19-.3c-.03-.05-.05-.05-.08 0l-.01.04c-.02.04-.01.07.02.1.06.06.1.13.11.23 0 .02 0 .03-.03.02-.03 0-.05 0-.07.03a.06.06 0 0 1-.05.02h-.41a.14.14 0 0 0-.05.04.16.16 0 0 0-.04.12c.01.26-.05.5-.07.76-.01.11-.07.3-.13.4-.15.25-.24.45-.45.66a.12.12 0 0 1-.1.03l-.04-.01a.13.13 0 0 1-.04-.04.54.54 0 0 0-.17-.14A.07.07 0 0 1 8.7 9c-.03-.07-.1-.13-.11-.2-.01-.04 0-.07.02-.1l.01-.03a.08.08 0 0 0-.03-.09c-.09-.06-.15-.14-.16-.27 0-.12.03-.21.08-.28.04-.01.05-.04.04-.08a.56.56 0 0 0-.06-.17c.09.05.08.14.08.23 0 .05-.01.08-.06.1h-.02v.03c-.01.07 0 .13.05.18l.01.03c.03.12.09.21.18.28a.05.05 0 0 0 .06 0 .14.14 0 0 0 .04-.09c0-.02.02-.04.03-.05a.13.13 0 0 1 .05-.04.11.11 0 0 1 .11.01c.02.02.06.02.1.01.13-.03.35-.13.4-.26.09-.23.12-.44.1-.66l.02-.16V7.2c-.03-.22.15-.24.21-.38.09-.2-.02-.43-.08-.6-.01-.06-.06-.11-.09-.2a2.18 2.18 0 0 0-.22-.45c-.07-.1-.14-.08-.23-.12a.95.95 0 0 0-.45-.09.58.58 0 0 0-.27.12.11.11 0 0 0-.03.05.67.67 0 0 1-.35.35.1.1 0 0 0-.05.05.08.08 0 0 1-.06.04.07.07 0 0 0-.04.03.48.48 0 0 1-.39.16.1.1 0 0 0-.05.01c-.22.12-.56.25-.5.51.06.22.2.37.4.43l.01.01v.01h.07a.1.1 0 0 0 .06-.02c.05-.04.1-.06.17-.05l.04-.01.15-.05H8l.02.04c0 .02 0 .04.02.05.06.05.11.12.15.2-.16-.11-.28-.16-.44-.04a.05.05 0 0 1-.05 0 .43.43 0 0 0-.2-.02.08.08 0 0 0-.06.03l-.24.28a.08.08 0 0 0-.02.04c-.03.24-.14.45-.2.72v.04l.06.11c.02.02.02.04.02.06 0 .19.07.34.22.46.03.01.05.05.05.1-.36 0-.7.1-1.06.18l-.04.01a.1.1 0 0 0-.03.04.1.1 0 0 0 0 .09c.03.06.07.1.14.13h.05a.23.23 0 0 1 .1-.02c.02 0 .03.02.02.04a.67.67 0 0 0-.01.31 1.4 1.4 0 0 0-.28-.1c-.15-.03-.47-.04-.6.07a.09.09 0 0 1-.05.02.36.36 0 0 0-.3.16l-.02.03c-.1.08-.24.13-.33.24a.73.73 0 0 0-.17.36.1.1 0 0 1-.03.07.2.2 0 0 0-.04.04c-.02.03-.02.05 0 .08 0 .02 0 .03-.02.04-.06.04-.07.1-.05.16v.05-.02h-.03c-.02 0-.03.01-.02.03a.02.02 0 0 1 0 .01h-.01a.12.12 0 0 1-.09-.02c-.06-.17-.04-.35-.05-.5-.02-.13-.02-.26 0-.39l.04-.05c.03-.05.03-.24.05-.34.04-.1.02-.2.07-.31l.04-.04c.02 0 .03-.02.02-.04a.06.06 0 0 1 .02-.08c.08-.03.12-.02.13.05 0 .01.01.02.02.01l.02-.02c.03-.09.12-.22.05-.31A.06.06 0 0 1 4.84 9L5 8.16a.16.16 0 0 1 .06-.03c.03 0 .04 0 .06.02a.3.3 0 0 0 .1.07c.02.01.04 0 .05-.01a.52.52 0 0 0 .08-.14c.04-.27.13-.47.26-.61.08-.1.17-.24.25-.43.16-.35.54-.64.79-.96a.14.14 0 0 0 .02-.05.04.04 0 0 0 0-.04h-.02l-.01-.01h-.24a1.54 1.54 0 0 0-.54-.35c-.08-.03-.11-.12-.19-.17L5 5.05a1 1 0 0 1-.3-.25c-.04-.17-.05-.36-.27-.33.44-.37 1.62.39 2 .67l.04.02.05-.01a5.23 5.23 0 0 1 4.76-.12Z" fill="#F1A64D"/><path d="M13.7 4.4c.1.13.15.3.13.54-.03.26-.07.69-.11 1.3l-.02-.13c0-.03-.01-.03-.03-.02l-.1.05c-.02.01-.03 0-.05-.01-.02-.04-.07-.04-.14 0 .1-.36.15-.7.15-1.06 0-.14.02-.27.03-.41v-.03l-.03-.03a.05.05 0 0 0-.05 0 .23.23 0 0 1-.13.05c-.1 0-.17.03-.23.1a.11.11 0 0 1-.04.04 1 1 0 0 0-.33.27.07.07 0 0 1-.05.03.3.3 0 0 0-.2.1.08.08 0 0 1-.06.04h-.14a.1.1 0 0 0-.06.02.1.1 0 0 0-.03.06.1.1 0 0 0 0 .06c0 .02.02.03.04.05.03.02.05.05.07.09.01.02.02.03.04.03l.05-.01a1 1 0 0 1-.44.33l-.4.1c-.04-.02-.08-.07-.12-.13.23-.37.57-.77.95-.92.18-.06.35-.1.53-.2a.72.72 0 0 1 .2-.08c.15-.04.23-.04.37-.17a.07.07 0 0 1 .06-.02c.08.01.12 0 .13-.04Z" fill="#F8CD81"/><path d="M4.42 4.47c.22-.03.23.16.28.33-.15.08-.23.2-.23.34-.01.23-.01.45.03.7.06.36.08.73.18 1.1.07.27.11.55.21.8v.02h.02a.02.02 0 0 0 .02 0 .97.97 0 0 0 .3-.46l.05.06v.01a.03.03 0 0 0 .05 0l.01-.02c.02-.02.03-.02.04 0v.07l-.04-.03c-.01-.02-.03-.01-.04 0a.93.93 0 0 0-.14.27c-.03.18-.1.35-.17.5L4.84 9c0 .03 0 .04.02.06.07.09-.02.22-.05.31l-.02.02-.02-.01c0-.07-.05-.08-.13-.05l-.01.02a.05.05 0 0 0-.02.04v.02c.02.02.01.04-.01.04a.05.05 0 0 0-.04.04c-.05.1-.03.21-.07.31-.02.1-.03.3-.05.34l-.03.05c-.03.13-.03.26-.01.39.01.15-.01.33.05.5.05.18.04.28-.04.28a3.15 3.15 0 0 1-.05-1.57 13.34 13.34 0 0 0 .1-.6c-.07-.15.07-.6.1-.78v-.06c-.15-.37-.2-.87-.23-1.27-.03-.38-.07-.76-.14-1.13-.03-.2-.05-.36-.05-.49-.02-.4-.05-.76.28-1Z" fill="#966232"/><path d="m13.38 6.12-.08.54a2.63 2.63 0 0 1-.28.88l-.02.02a.07.07 0 0 1-.06-.01.59.59 0 0 1-.27-.37l.23-.8.05-.17c0-.02 0-.04.02-.05a.39.39 0 0 0 .06-.22c0-.21.04-.48.1-.8 0-.02 0-.03-.02-.03-.14-.04-.46.15-.56.27-.04.06-.1.1-.14.15 0 .01-.02.02-.05.01a.06.06 0 0 1-.04-.03.26.26 0 0 0-.07-.1.1.1 0 0 1-.04-.04.1.1 0 0 1 .03-.12.1.1 0 0 1 .06-.02h.14c.03 0 .04-.02.06-.03a.3.3 0 0 1 .2-.11c.02 0 .04-.02.05-.03a1 1 0 0 1 .33-.27c.02 0 .03-.02.04-.03a.26.26 0 0 1 .23-.11c.05 0 .1-.02.13-.04l.03-.01h.02l.02.03.01.03c0 .14-.03.27-.03.41 0 .36-.05.7-.15 1.05ZM4.7 4.8c.1.12.2.2.29.26.23.12.45.25.67.39.08.05.1.14.19.17.2.08.39.2.54.36-.46.16-.71.17-.98-.26a1.24 1.24 0 0 0-.3-.37.5.5 0 0 0-.23-.12c-.02 0-.04 0-.06.02l-.1.12a.07.07 0 0 0-.03.06c.03.21.03.42-.02.62 0 .02 0 .05.02.07l.14.25.02.01.18.06c.02 0 .02.02.02.04l.01.08c.01.27.07.52.18.74a.97.97 0 0 1-.32.46H4.9v-.01c-.1-.26-.15-.54-.22-.81-.1-.37-.12-.74-.18-1.1a3.78 3.78 0 0 1-.03-.7c0-.15.08-.26.23-.34Z" fill="#FCE0BD"/><path d="M12.9 6.39c0-.16-.02-.86-.31-.78a.28.28 0 0 0-.12.09c-.14.14-.3.2-.5.16a1 1 0 0 0 .44-.33l.14-.15c.1-.12.42-.31.56-.27.02 0 .03.01.02.03-.06.32-.1.59-.1.8 0 .1-.02.16-.06.22a.17.17 0 0 0-.02.05l-.05.18Z" fill="#D89C8A"/><path d="M5.4 5.72c-.19.25-.3.54-.34.84a.19.19 0 0 1 0-.08c0-.02-.01-.03-.03-.04l-.18-.06-.02-.01-.14-.25a.1.1 0 0 1-.02-.07c.05-.2.05-.4.02-.62 0-.02 0-.04.02-.06l.11-.12a.06.06 0 0 1 .06-.02.5.5 0 0 1 .23.12c.14.12.24.24.3.37Z" fill="#EEBFB5"/><path d="m8.48 7.77-.12-.26a.2.2 0 0 0-.03-.05l-.15-.17a.63.63 0 0 0-.15-.19.05.05 0 0 1-.02-.05l-.02-.04a.06.06 0 0 0-.06 0l-.15.05h-.04a.24.24 0 0 0-.17.06.1.1 0 0 1-.06.02h-.07v-.01a.56.56 0 0 1-.4-.44c-.07-.26.27-.4.49-.5a.1.1 0 0 1 .05-.02c.15 0 .28-.05.39-.16A.07.07 0 0 1 8 5.98c.03 0 .05-.02.06-.04a.1.1 0 0 1 .05-.05.67.67 0 0 0 .35-.35c0-.02.02-.04.03-.05.1-.07.2-.11.27-.12.14 0 .29.02.45.09.09.04.16.02.22.12.11.18.2.33.23.46.03.08.08.13.1.19.05.17.16.4.07.6-.06.14-.24.16-.21.38v.17a.79.79 0 0 0-.02.16c.02.22-.01.43-.1.66-.05.13-.27.23-.4.26h-.1a.1.1 0 0 0-.1-.02.13.13 0 0 0-.06.04.14.14 0 0 0-.03.05c0 .03-.02.06-.04.08l-.03.01h-.03a.43.43 0 0 1-.18-.28l-.01-.03a.25.25 0 0 1-.06-.18l.01-.02.02-.02c.05-.01.07-.04.06-.09 0-.1 0-.18-.08-.23Z" fill="#D9913B"/><path d="m12.9 6.39-.22.79c-.04.01-.06.02-.08 0-.15-.13-.28-.33-.4-.48a5.5 5.5 0 0 1-.2-.23l-.44-.52.41-.1c.2.05.36 0 .5-.15a.28.28 0 0 1 .12-.09c.3-.08.3.62.31.78Z" fill="#AF6548"/><path d="M5.4 5.72c.28.43.53.42 1 .26l.22-.01h.02l.01.01a.04.04 0 0 1 .01.04l-.03.05c-.24.32-.62.61-.78.96a1.6 1.6 0 0 1-.26.43.2.2 0 0 1-.22-.04c.01-.03.02-.05.01-.06 0-.03-.02-.03-.04-.01l-.01.01-.02.01a.03.03 0 0 1-.02 0h-.01l-.05-.07c-.1-.22-.16-.47-.17-.74.04-.3.15-.59.35-.84Z" fill="#9A553A"/><path d="M13.71 6.23c-.03.47-.08.94-.13 1.41-.02.25-.1.53-.13.8-.1.11-.25.2-.41.24a.05.05 0 0 0-.04.03c-.1.23-.26.24-.48.18a.5.5 0 0 0-.37.05h-.03l-.22.15a.07.07 0 0 1-.05 0h-.05l-.01.01.02.07a1.82 1.82 0 0 0-.4-.1c-.37-.05-.66-.09-.99.08-.2.11-.21.3-.2.53.03.3.17.49.43.57.39.13.65-.03.91-.34a.45.45 0 0 1-.11.24.11.11 0 0 0-.03.05c-.03.13-.26.26-.39.29a6.94 6.94 0 0 0-.52.13c-.09.08-.13.12-.21.23a.2.2 0 0 1-.13.09c.13-.15.1-.3-.06-.46-.1-.08-.31-.2-.66-.33-.44-.18-1.26.02-1.62.35-.12.1-.2.3-.3.45a.09.09 0 0 1-.04.04c-.08.02-.1.08-.08.17l-.01.01h-.02l-.01.03c-.01 0-.02 0-.02.02 0 .01 0 .02-.02 0v-.05c.08-.22 0-.34-.2-.44a9.6 9.6 0 0 0-.36-.18.04.04 0 0 1 .01-.04l.01-.01c0-.02 0-.02.02-.03a.18.18 0 0 0 .08-.06v-.03a.24.24 0 0 1-.07-.1.2.2 0 0 0 .01-.07c.03.07.05.11.08.12.19.06.4.04.64-.06.34-.14.36-.48.35-.8-.01-.2-.11-.3-.3-.32.04-.02.04-.07 0-.15a.04.04 0 0 1 0-.03l.01-.02h.07c.02 0 .03-.01.03-.04a.6.6 0 0 1 .03-.1c.01-.06.04-.07.07-.06.02 0 .03.02.02.04a.3.3 0 0 0-.02.2c0 .03.02.04.04.05.05.01.1 0 .14 0 .27-.12.3-.18.42-.44a.1.1 0 0 0 0-.06L8.4 8.4v-.14l.02-.06c.02-.05.03-.1.02-.16 0-.02 0-.03.02-.03h.05c-.05.07-.08.16-.08.28 0 .13.07.21.16.27l.02.03a.08.08 0 0 1 0 .1.1.1 0 0 0-.03.09c.02.07.09.13.12.2 0 .02.02.04.03.04.06.04.12.08.17.14l.04.04a.12.12 0 0 0 .14-.02c.2-.2.3-.41.45-.66.06-.1.12-.29.13-.4.02-.27.08-.5.07-.76a.16.16 0 0 1 .04-.12.14.14 0 0 1 .05-.03c.01-.01.03-.02.05-.01h.36c.02 0 .03 0 .05-.02a.07.07 0 0 1 .07-.03c.02 0 .03 0 .03-.02a.34.34 0 0 0-.11-.23c-.03-.03-.04-.06-.02-.1l.01-.03c.03-.06.05-.06.08-.01l.19.3c0 .02.02.03.04.04.1.06.23.06.3.12a.4.4 0 0 1 .1.1c0 .02.02.02.03.01l.17-.1a.06.06 0 0 0 .04-.05l.03-.12a.1.1 0 0 0 0-.06 1.3 1.3 0 0 1 .03-.74c.03-.08.08-.1.15-.05a.1.1 0 0 0 .06.01c.03 0 .06.02.09.04l.03.02.2.04c.04 0 .07.02.09.05v.03c0 .02.01.03.03.04l.1.02.18.23c.13.15.26.35.4.48.02.02.05.01.08 0 .03.14.12.27.27.37a.07.07 0 0 0 .06 0h.02l.02-.03c.14-.27.22-.53.26-.86l.08-.54c.07-.03.11-.03.14.01.02.02.03.02.05.01l.1-.05c.02-.01.03 0 .03.02l.02.12Z" fill="#F8B95F"/><path d="m8.18 7.3.15.16a.2.2 0 0 1 .03.05l.12.26.06.17c0 .04 0 .07-.04.08h-.05c-.02 0-.02.01-.02.03 0 .06 0 .1-.02.16l-.01.06-.01.14v-.27c0-.08-.01-.13-.04-.15a.74.74 0 0 1-.26-.41.09.09 0 0 0-.04-.05.38.38 0 0 1-.1-.12.08.08 0 0 0-.04-.03h-.04a18.18 18.18 0 0 1-.45.12.08.08 0 0 0-.03.04c0 .02 0 .03-.02.04-.14.19-.23.4-.26.64-.02.16.05.3.1.44.04.1.02.2.06.32a.56.56 0 0 1-.22-.46c0-.02 0-.04-.02-.06l-.05-.1-.01-.05c.06-.27.17-.48.2-.72 0-.01 0-.03.02-.04l.24-.28a.08.08 0 0 1 .05-.03c.07 0 .14 0 .21.03l.05-.01c.16-.12.28-.07.44.03Z" fill="#F8CD81"/><path d="M9.83 8.87c-.06-.06-.09-.12-.08-.2l.04-.65c.01-.13.04-.25.08-.35.05-.13.15-.36.3-.36.14 0 .28 0 .42-.02h.05l.13.1.03.04a1.21 1.21 0 0 1 .13.45l.02.02c0 .19.03.43-.03.6l-.04.13c0 .02-.02.04-.03.05a21.53 21.53 0 0 1-.5.3l-.03.01c-.14.13-.38.13-.46-.07a.13.13 0 0 0-.03-.05Z" fill="#fff"/><path d="M5.37 7.42a.2.2 0 0 0 .23.04 1.2 1.2 0 0 0-.26.6c0 .03-.03.08-.08.15-.01.02-.03.02-.05.01a.3.3 0 0 1-.1-.07.07.07 0 0 0-.06-.02L5 8.16c.08-.15.14-.32.17-.5a.93.93 0 0 1 .14-.26c.01-.02.03-.03.04-.01l.03.03Z" fill="#D9913B"/><path d="m8.39 8.4.02.14a.1.1 0 0 1 0 .06c-.13.26-.15.32-.42.43a.22.22 0 0 1-.14 0c-.02 0-.03-.01-.04-.03a.3.3 0 0 1 .02-.21c0-.02 0-.03-.02-.04-.03-.01-.06 0-.07.05a.61.61 0 0 0-.03.11c0 .03-.01.04-.03.04H7.6v.02a.03.03 0 0 0 0 .03c.03.08.03.13-.02.15l-.27-.06c0-.06-.02-.1-.05-.11-.03-.11-.02-.21-.06-.32-.05-.15-.12-.28-.1-.44.03-.24.12-.45.26-.64a.12.12 0 0 0 .02-.04l.03-.04.02-.01a18.24 18.24 0 0 0 .47-.1c.02 0 .03 0 .04.02.03.05.06.09.1.12l.04.05c.04.17.13.3.26.4.03.03.04.08.04.16v.27Z" fill="#FDF1ED"/><path d="M10.12 8.58c.02.2.1.35.19.35.08-.01.14-.18.12-.38-.02-.2-.1-.36-.18-.35-.09 0-.14.17-.13.38Z" fill="#E2D0BC"/><path d="M13.45 8.44c.06.14.1.25.1.31.03.33.07.66.14 1.02a.96.96 0 0 1-.56-.02.09.09 0 0 1-.05-.03.1.1 0 0 0-.08-.03.78.78 0 0 1-.37-.05c-.23-.1-.31-.13-.52-.06a.06.06 0 0 1-.07-.01l-.02-.03V9.5c0-.04 0-.07-.03-.09.14-.16-.07-.24-.18-.24l-.02-.07h.06l.05-.01.21-.16h.01l.02.02a.5.5 0 0 1 .38-.06c.22.06.38.05.48-.18 0-.02.02-.03.04-.03.16-.05.3-.13.4-.24Z" fill="#F8CD81"/><path d="M11.8 9.17c.12 0 .33.08.2.24-.11.02-.22 0-.33-.04-.02-.01-.03 0-.02.02.03.2.04.35-.1.52-.25.31-.51.47-.9.34-.26-.08-.4-.27-.43-.57-.02-.24 0-.42.2-.53.33-.17.62-.13.99-.08.13.01.27.05.4.1ZM7.32 9.09l.28.06c.19.02.29.13.3.33.01.3-.01.65-.35.79a.91.91 0 0 1-.64.06c-.02 0-.05-.05-.07-.12L6.59 10l-.1-.14a.67.67 0 0 1 .01-.3c0-.03 0-.05-.03-.05s-.06 0-.09.02h-.05a.24.24 0 0 1-.14-.13.1.1 0 0 1 0-.1.1.1 0 0 1 .03-.03l.04-.01c.36-.07.7-.18 1.06-.17Z" fill="#241F1D"/><path d="M11.13 9.42c.09-.01.15-.08.14-.16-.01-.08-.09-.13-.17-.12-.08.01-.14.08-.13.16 0 .08.08.13.16.12ZM7.29 9.31c.05-.18.2-.13.3-.03l.02.03a.09.09 0 0 1-.02.08l-.04.03a.23.23 0 0 1-.25-.06.05.05 0 0 1-.01-.05Z" fill="#fff"/><path d="M12 9.41c.02.02.03.05.02.1a.08.08 0 0 0 .02.06l.03.02h.04c.2-.08.3-.04.52.05.12.04.24.06.37.05a.1.1 0 0 1 .08.03c.01.02.03.03.05.03.2.06.4.07.56.02a2.75 2.75 0 0 1-.05 1.47h-.04c.01-.27-.2-.55-.35-.74a2.46 2.46 0 0 1-.2-.3.57.57 0 0 0-.1-.12c-.1-.09-.19-.26-.33-.11-.17.16-.37.34-.5.55-.04.09-.08.15-.12.2-.09.08-.2.07-.3.15l-.08.07c-.09.07-.18.07-.28.13a.13.13 0 0 1-.05.02.7.7 0 0 0-.51.34c-.05.07-.1.1-.18.06a.3.3 0 0 0-.2 0c-.03 0-.04 0-.05-.03a.2.2 0 0 1-.02-.07.08.08 0 0 0-.02-.05c-.12-.11-.28-.2-.43-.14a.72.72 0 0 0-.31.24 2.55 2.55 0 0 0-1.09.02c.03-.07-.03-.1-.16-.07 0 .03-.03.04-.06.02-.08.02-.23.03-.3.09a.18.18 0 0 1-.04.03c-.13.06-.25.15-.37.25a.15.15 0 0 1-.16.03c-.02-.1-.07-.15-.13-.18.02-.02.03-.04.02-.06l-.05-.04c-.12-.06-.24-.14-.36-.17-.12-.04-.24-.05-.34-.1a.8.8 0 0 1-.17-.11 4.67 4.67 0 0 0-.64-.57.9.9 0 0 0-.13-.2c-.05-.05-.09-.1-.12-.16a.92.92 0 0 0-.13-.15c-.01-.02-.03-.02-.05 0l-.08.05c0-.03.01-.05.03-.08l.03-.03a.4.4 0 0 1 .32.2c.07.11.13.2.2.25l.08.07c.07.08.1.13.2.18a.7.7 0 0 1 .3.26c0 .02.02.03.04.04.07.03.1.07.18.09l.57.13c.11.02.16.1.16.23 0 .03 0 .05.04.05l.33.05c.01 0 .02 0 .02-.02v-.03l.03-.03.15-.11a.08.08 0 0 1 .05-.03c.22-.02.55.06.72 0a.87.87 0 0 1 .22-.06c.2-.02.36-.08.57-.05.02 0 .04 0 .05-.02a.13.13 0 0 1 .1-.01c.02 0 .04 0 .06-.02.15-.13.31-.2.5-.18.07.01.12-.02.13-.08.01-.03 0-.04-.02-.02a.2.2 0 0 1-.13.07s0-.02.03-.03a.2.2 0 0 0 .13-.09 1.23 1.23 0 0 1 .22-.23c.17-.05.34-.1.51-.13.13-.03.36-.16.4-.29 0-.02 0-.04.02-.05.06-.06.1-.14.11-.24.13-.17.12-.31.09-.52 0-.03 0-.03.02-.02.11.04.22.06.33.04Z" fill="#FCE4A4"/><path d="m6.49 9.86.1.14-.26.45c-.03.04-.02.07.03.08.08.02.15.02.23 0h.02l.02-.03c0-.08.05-.11.12-.1.02 0 .03-.01.04-.03a.3.3 0 0 0 .03-.09c.01.04.04.07.07.1v.03a.18.18 0 0 1-.08.06c-.02 0-.02.01-.02.03v.01a.04.04 0 0 0-.02.04l.01.01.01.01.34.16c.2.1.28.22.2.44v.06l.02-.01c0-.02 0-.02.02-.02.16.12.25.02.41 0 .14-.01.24-.05.37-.04.2.02.38.04.57.08.1.02.22 0 .38-.05a.66.66 0 0 1 .18-.04c.1 0 .2-.04.3-.04.11 0 .19-.07.28-.11a.1.1 0 0 1 .06 0c.08 0 .15 0 .22-.03a.2.2 0 0 0 .13-.07c.02-.02.03-.01.02.02-.02.06-.06.1-.14.08a.63.63 0 0 0-.5.18.06.06 0 0 1-.05.02c-.03-.01-.07 0-.1.01a.08.08 0 0 1-.05.01c-.2-.02-.37.04-.57.06a.87.87 0 0 0-.22.05c-.17.07-.5-.01-.73.01a.08.08 0 0 0-.04.03.85.85 0 0 1-.15.11.06.06 0 0 0-.02.03v.03l-.03.02-.34-.05c-.02 0-.03-.02-.03-.05 0-.13-.05-.21-.16-.23l-.57-.13c-.07-.02-.11-.06-.18-.1a.09.09 0 0 1-.05-.03.7.7 0 0 0-.29-.26c-.1-.05-.13-.1-.2-.18a1.34 1.34 0 0 0-.08-.07 1.02 1.02 0 0 1-.2-.25.4.4 0 0 0-.32-.2c.06-.1.16-.15.3-.16.01 0 .03 0 .04-.02.13-.1.45-.1.6-.08.04 0 .14.05.28.11Z" fill="#F8CD81"/><path d="m6.6 10 .24.2a.2.2 0 0 1-.02.08.3.3 0 0 1-.03.09c-.01.02-.02.03-.04.02-.07 0-.11.03-.12.1l-.01.03-.03.02a.48.48 0 0 1-.23 0c-.05-.02-.06-.05-.03-.1l.26-.44Z" fill="#E7CFDD"/><path d="M5.24 10.04a.14.14 0 0 0-.03.08c-.03.02-.03.03-.01.03a.23.23 0 0 0-.12.08l-.02.02h-.02c-.03 0-.05.02-.06.05l-.04.04-.03.03a1.1 1.1 0 0 1-.11.18.1.1 0 0 0-.02.06c0 .1-.09.13-.09.25 0 .02 0 .04-.02.05-.04.05-.04.1-.02.15a.6.6 0 0 1 .08.3l.01.06c.03.04.05.12.06.16l.11.19c.07.1.08.26.25.28a.1.1 0 0 1 .05.02l.17.13c.01.01.03.02.06.01.05 0 .08.02.1.08v.04l.03.02c.04.02.08.06.1.1 0 .02.02.03.04.04.07.02.13.06.18.12 0 .02.03.03.05.03l1.09.2a.1.1 0 0 0-.02.11c.07.14.17.26.3.35.32.23.81.14 1.15-.02.08-.04.14-.03.23-.05.15-.04.28.01.4-.02.29-.06.57-.02.83.12h-.28c-.02 0-.04 0-.05.02l-.02.02a.07.07 0 0 1-.04.02.4.4 0 0 0-.24.1l-.02.01-.3.07h-.01c-.08-.02-.14 0-.16.09a.03.03 0 0 0 0 .02h.01l.01.01c.02 0 .03 0 .03.02a.02.02 0 0 1 0 .02h-.01a.25.25 0 0 0-.13.04 6.1 6.1 0 0 1-2.56-.63c-.5-.25-.93-.5-1.24-.88-.2-.24-.44-.59-.5-.9.08 0 .1-.1.04-.28.03.02.05.03.09.03a.01.01 0 0 0 0-.01.02.02 0 0 0 0-.01c0-.02.01-.02.03-.03h.03a1.8 1.8 0 0 0 0 .02v-.05c-.02-.07 0-.12.05-.16.02 0 .02-.02.01-.04v-.08a.2.2 0 0 1 .05-.04.1.1 0 0 0 .03-.07c.01-.13.1-.27.17-.36.09-.1.22-.16.33-.24Z" fill="#CCB099"/><path d="M7.26 11.63a.1.1 0 0 0-.03.04l-.03.1c-.12.07-.19.17-.2.29 0 .05.02.06.07.03a.3.3 0 0 0 .06-.08c.02-.03.04-.04.08-.04.02 0 .03 0 .03-.03v-.02c0-.03 0-.03.02-.03h.06a.17.17 0 0 0 .07-.08c.06.02.12.01.16-.03a.12.12 0 0 1-.06.08c-.02 0-.02.01 0 .02.04.01.07.04.08.09l-.01.02-.08.02.02-.04c0-.04-.03-.05-.06-.03-.1.05-.36.25-.34.4v-.03c-.01-.03-.02-.03-.03 0l-.01.05-.02.02-.03.01c-.12 0-.23-.01-.36-.04a1.6 1.6 0 0 0-.56-.03c-.1.01-.2-.07-.31-.04h-.03l-.02-.01a.18.18 0 0 0-.1-.05.1.1 0 0 1-.04-.04c-.1-.12-.23-.2-.38-.27-.05-.02-.09-.07-.15-.1-.13-.08-.09-.24-.2-.34a.51.51 0 0 1-.08-.1.09.09 0 0 1-.01-.05c.03-.5.25-.78.43-1.17-.02 0-.02-.01.01-.03l.08-.06h.05l.13.16c.03.06.07.1.12.16.05.06.1.13.13.2l.04.05c.21.15.41.33.6.52a.8.8 0 0 0 .17.1c.1.06.22.07.34.1.12.04.24.12.36.18.02 0 .04.02.05.04 0 .02 0 .04-.02.06Z" fill="#F3EADD"/><path d="M10.17 10.94c-.03.01-.04.03-.03.03a.38.38 0 0 1-.22.02.1.1 0 0 0-.06 0c-.1.05-.16.11-.28.12-.1 0-.2.04-.3.04a.66.66 0 0 0-.18.04.73.73 0 0 1-.38.05 4.8 4.8 0 0 0-.57-.08c-.13-.01-.23.03-.37.04-.16.02-.25.12-.41 0v-.02h.03v-.02c-.02-.1 0-.15.09-.17l.04-.04c.1-.15.18-.34.3-.45.36-.33 1.18-.53 1.62-.35.35.13.56.25.66.33.16.15.19.3.06.46Z" fill="#D9913B"/><path d="M5.2 10.15c-.18.4-.4.68-.43 1.17l.01.05.08.1c.11.1.07.26.2.34.06.03.1.08.15.1.15.06.27.15.38.27a.1.1 0 0 0 .05.04c.03 0 .06.02.09.05l.02.01h.03c.12-.03.2.05.3.04.2-.02.39-.01.57.03.13.03.24.04.37.04h.02l.02-.03.02-.05c0-.03.01-.03.02 0v.03c.02.01.03 0 .05-.02a.45.45 0 0 1 .11-.11.12.12 0 0 0 .05-.05.3.3 0 0 1 .17-.15l.08-.02c.01 0 .02-.01.01-.02a.14.14 0 0 0-.08-.1v-.01a.12.12 0 0 0 .07-.08c.1-.1.23-.19.36-.25.02 0 .03-.02.05-.03.06-.06.21-.07.3-.09.02.02.04.01.05-.02.13-.02.19 0 .16.07a.3.3 0 0 1-.15.08.14.14 0 0 0-.08.05.16.16 0 0 0-.04.1c-.02.25-.04.37.13.58 0 .07.02.14.05.2v.06l-.18.38-.04.03-.27.14c-.13.08-.31.05-.46.05a.6.6 0 0 1-.28-.36l-.01-.01-.01-.01a.04.04 0 0 0-.04 0c-.02 0-.05.04-.07.08l-1.1-.19a.08.08 0 0 1-.04-.03.33.33 0 0 0-.18-.12.06.06 0 0 1-.04-.04.22.22 0 0 0-.1-.1.07.07 0 0 1-.02-.02.08.08 0 0 1-.02-.04c0-.06-.04-.08-.1-.08l-.05-.01-.17-.13a.1.1 0 0 0-.04-.02c-.18-.02-.2-.18-.26-.28a1.74 1.74 0 0 1-.1-.2c-.02-.03-.03-.1-.07-.15a.08.08 0 0 1-.01-.05.6.6 0 0 0-.08-.3c-.02-.06-.02-.11.02-.16a.08.08 0 0 0 .02-.05c0-.12.09-.15.09-.25 0-.02 0-.04.02-.06.04-.05.08-.11.1-.18l.04-.03c.02 0 .03-.02.04-.04 0-.03.03-.05.06-.05h.03l.01-.02a.23.23 0 0 1 .12-.08Z" fill="#E2D0BC"/><path d="M9.57 11.44c.2.07.37.28.37.52 0 .02-.01.04-.03.05a.41.41 0 0 0-.13.22l-.01.01-.17.1a.07.07 0 0 0-.04.04l-.03.12-.01.03-.31.24a.07.07 0 0 0-.03.05c-.02.2.16.23.3.21h.02l.01.03.03.02c.12-.02.22 0 .31.03.2.09.39.11.58.07h.1c.2.03.28-.2.39-.33.06-.04.1-.06.12-.05-.08.2-.2.51-.4.54-.17.02-.41.02-.72-.01a1.22 1.22 0 0 0-.82-.12c-.13.03-.26-.02-.41.02-.09.02-.15.01-.23.05-.34.16-.83.25-1.15.02a.93.93 0 0 1-.3-.35.1.1 0 0 1 .02-.12c.02-.04.05-.07.07-.08a.04.04 0 0 1 .03 0 .05.05 0 0 1 .03.02.6.6 0 0 0 .28.36c.2.1.38.13.54.1a29.38 29.38 0 0 1 .8-.16l.11-.13a.12.12 0 0 0 0-.15.88.88 0 0 0-.33-.26c-.13-.06-.18-.13-.22-.26-.17-.2-.15-.33-.13-.58 0-.04.02-.07.04-.1a.14.14 0 0 1 .08-.05.3.3 0 0 0 .15-.08c.35-.08.71-.09 1.09-.02Z" fill="#382B2B"/><path d="M10.72 11.69h.03l.01.01.01.02a.02.02 0 0 1 0 .02.8.8 0 0 0-.27.2c-.04.03-.05.02-.04-.03.02-.09.1-.16.26-.22ZM7.48 12.01a.3.3 0 0 0-.17.15.12.12 0 0 1-.05.05.45.45 0 0 0-.1.11c-.03.03-.04.03-.06.02-.02-.15.24-.35.34-.4.04-.02.05 0 .06.03 0 .01 0 .03-.02.04Z" fill="#846859"/><path d="M10.46 12.25h-.01v-.05l.02-.05a.26.26 0 0 1 .05-.05.36.36 0 0 1 .07-.03l.06-.03a.35.35 0 0 1 .07-.03h.06l.06.01.03.03v.01l-.41.2Z" fill="#CCB099"/><path d="M9.78 12.23c-.01.1.04.15.15.14l.06.03v.06a.07.07 0 0 0 .02.05c.06.08.14.14.23.18l.04.03a.3.3 0 0 0 .19.1c.02 0 .03 0 .05.02.16.11.26 0 .4.01-.11.13-.18.36-.4.33-.03-.05-.08-.06-.14-.05-.02 0-.04 0-.05-.02a3.36 3.36 0 0 0-.14-.12l-.02-.04-.01-.05a3.18 3.18 0 0 1-.13-.18c-.1-.13-.23-.2-.26-.4v-.08l.01-.01Z" fill="#E2D0BC"/><path d="M9.77 12.24v.08h-.03c-.09.2-.24.3-.13.55l.05.04a.1.1 0 0 1 .05.05l.04.04c.05.02.08.06.12.08.21.12.35.1.56.1a.95.95 0 0 1-.58-.07.56.56 0 0 0-.3-.03c-.02 0-.03 0-.03-.02l-.02-.02h-.02c-.14 0-.32-.02-.3-.22 0-.02.01-.04.03-.05l.3-.24c.02 0 .02-.02.02-.03l.03-.12c0-.02.02-.04.04-.05l.17-.09ZM8.34 12.27c.04.13.1.2.22.26.14.06.25.14.33.25a.12.12 0 0 1 0 .16l-.1.13a28.97 28.97 0 0 0-.8.16.86.86 0 0 1-.55-.1c.15 0 .33.03.46-.05l.27-.14c.02 0 .03-.02.04-.03l.18-.38v-.05a.63.63 0 0 1-.05-.21Z" fill="#846859"/><path d="M9.77 12.32c.03.2.17.27.26.4l.13.18c0 .01.02.03.01.05 0 .02 0 .04.02.04l.14.12c.01.02.03.02.05.02.06-.01.1 0 .14.05h-.1c-.2 0-.34.02-.55-.1-.04-.02-.07-.06-.12-.08a.07.07 0 0 1-.04-.04.1.1 0 0 0-.05-.05.08.08 0 0 1-.05-.04c-.11-.24.04-.35.13-.54l.01-.01h.02Z" fill="#CCB099"/><path d="M7.24 12.6c-.02-.02-.02-.03 0-.04a.29.29 0 0 1 .1-.05c.05-.02.08 0 .06.06-.01.08-.07.08-.16.02Z" fill="#846859"/><path d="m11.04 12.8.01.06c0 .02.01.04.03.04.3.15.49.12.81.09.03 0 .03 0 .02.03a.54.54 0 0 1-.17.14 6.4 6.4 0 0 1-3.03.61.25.25 0 0 1 .13-.03l.01-.01v-.02c0-.02-.01-.02-.03-.02a.02.02 0 0 1-.02 0v-.03c.03-.08.08-.11.16-.1h.02l.29-.06.02-.01a.4.4 0 0 1 .24-.1c.01 0 .03 0 .04-.02l.02-.02a.06.06 0 0 1 .05-.02h.28c.3.03.55.03.72 0 .2-.02.32-.34.4-.53Z" fill="#E2D0BC"/></svg>