<!-- by TradingView --><svg width="18" height="18" viewBox="0 0 18 18" xmlns="http://www.w3.org/2000/svg"><path fill="#031F49" d="M0 0h18v18H0z"/><path d="M10.14 3.75c.3.8-.08 1.5-.37 2.22a7.88 7.88 0 0 0-.54 2.57l.02.01h.01c.71-.49 1.31-1.09 1.81-1.8.48-.69.95-1.64 1.93-1.43.9.24 1.3 1.4.73 2.2-.35.4-.9.57-1.38.61a6.93 6.93 0 0 0-2.96.86l.01.02.01.01c.73.42 1.53.68 2.39.78.7.08 1.51.1 2 .76.32.66.25 1.25-.2 1.77-.25.28-.58.4-1 .37-.48-.06-.8-.42-1.08-.82a8.49 8.49 0 0 0-2.28-2.44l-.01.01v.02c.03.87.21 1.73.55 2.57.25.63.58 1.28.43 1.97-.12.47-.38.78-.77.9-.75.24-1.3-.01-1.63-.77-.12-.43-.1-.86.08-1.29a9.62 9.62 0 0 0 .86-3.41.02.02 0 0 0-.02 0 8.61 8.61 0 0 0-2.3 2.49c-.29.44-.69.8-1.23.77-1-.07-1.47-1.2-1.03-2.1.48-.75 1.42-.72 2.16-.82A6.25 6.25 0 0 0 8.59 9v-.02h-.02c-.7-.4-1.46-.66-2.28-.77-.65-.08-1.4-.07-1.93-.57-.47-.46-.45-1.24-.12-1.76.2-.34.5-.53.9-.58.9-.08 1.34.85 1.8 1.5a7.14 7.14 0 0 0 1.81 1.76l.01-.01v-.01A9.79 9.79 0 0 0 7.9 5.1c-.24-.58-.22-1.2.18-1.7.63-.64 1.67-.53 2.07.34Z" fill="#fff"/></svg>