<!-- by TradingView --><svg width="18" height="18" viewBox="0 0 18 18" xmlns="http://www.w3.org/2000/svg"><path fill="url(#ac3m05tqq)" d="M0 0h18v18H0z"/><path d="M9.03 3 14 6.06V12l-1.42.79L9.03 15 4 12V6.04L9.03 3ZM4.4 6.28v5.48l4.63 2.77 3.24-2.03v-.97l-.78.52-2.46 1.47-3.7-2.25V6.75l3.7-2.23 1.23.74 1.2.74 1.12.68 1.02.55v-.95l-4.57-2.8-4.63 2.8Zm9.2 1.41-.92-.5v5.08l.92-.51V7.69Zm-1.33-.72-.92-.57-.99.58v2.41l1.91-1.17V6.97Zm0 1.73-1.91 1.17v1.17l1.02.6.9-.6V8.7ZM11 11.88l-1.03-.6V6.73l1-.58-.8-.5-2.12 1.31v4.07l2.15 1.32.8-.48Zm-1.2.71-2.15-1.32V8.7L5.73 9.87v1.17l3.3 2 .76-.45Zm-4.06-3.2 1.91-1.17V6.75l2.13-1.32L9.03 5l-3.3 1.99v2.41Z" fill="#fff"/><defs><linearGradient id="ac3m05tqq" x1="3.35" y1="3.12" x2="21.9" y2="24.43" gradientUnits="userSpaceOnUse"><stop stop-color="#1A1E21"/><stop offset="1" stop-color="#06060A"/></linearGradient></defs></svg>