<!-- by TradingView --><svg xmlns="http://www.w3.org/2000/svg" width="18" height="18" viewBox="0 0 18 18"><path fill="#3562BD" d="M0 0h18v18H0z"/><path d="M4 6.92c0-.46.25-.9.65-1.12l3.08-1.72a2.6 2.6 0 0 1 2.54 0l3.08 1.72c.4.23.65.66.65 1.12v4.16c0 .46-.25.9-.65 1.12l-3.08 1.72a2.6 2.6 0 0 1-2.54 0L4.65 12.2c-.4-.23-.65-.66-.65-1.12V6.92z" fill="#16275F"/><path d="M4.94 7.53c0-.47.25-.9.66-1.13L8.15 5a1.76 1.76 0 0 1 1.7 0l2.55 1.4c.4.23.66.66.66 1.13v3.09c0 .34-.18.66-.48.82l-2.33 1.28a2.6 2.6 0 0 1-2.5 0l-2.33-1.28a.93.93 0 0 1-.48-.82V7.53z" fill="#050424"/><path d="M5.9 8.05c0-.47.25-.9.66-1.13l2.11-1.16c.2-.1.45-.1.66 0l2.11 1.16c.4.23.66.66.66 1.13v2.05c0 .34-.18.66-.48.82l-2.3 1.26a.68.68 0 0 1-.65 0l-2.29-1.26a.93.93 0 0 1-.48-.82V8.05z" fill="url(#a0kczrj43)"/><path d="M6.6 7.95c0-.17.1-.33.25-.41l1.93-1.07c.14-.07.3-.07.44 0l1.93 1.07c.15.08.24.24.24.4V10c0 .17-.1.32-.24.4l-1.93 1.07a.45.45 0 0 1-.44 0l-1.93-1.06A.47.47 0 0 1 6.6 10V7.95z" fill="#1085D5"/><path d="M7.09 8.14c0-.11.06-.22.16-.27l1.6-.9c.09-.05.21-.05.3 0l1.6.9c.1.05.16.16.16.27V9.9c0 .12-.06.22-.16.28l-1.6.89a.32.32 0 0 1-.3 0l-1.6-.9a.32.32 0 0 1-.16-.27V8.14z" fill="#4BD2FF"/><path d="M7.09 9.66v.23c0 .12.06.22.16.28l1.6.89c.09.05.21.05.3 0l1.6-.9c.1-.05.16-.15.16-.27v-.23c0 .11-.06.22-.16.28l-1.6.89h-.02l-.07.05a.12.12 0 0 1-.12 0l-.07-.04-.03-.01-1.59-.9a.32.32 0 0 1-.16-.27z" fill="#8EEBFF"/><path d="M7.73 8.4c0-.08.04-.15.1-.19L8.9 7.6a.2.2 0 0 1 .2 0l1.07.61c.06.04.1.1.1.18v1.2c0 .08-.04.15-.1.19l-1.07.61a.2.2 0 0 1-.2 0l-1.07-.61a.21.21 0 0 1-.1-.18V8.4z" fill="url(#b0kczrj43)"/><path d="M13.18 10.79c.12.06.27-.03.27-.17V6.86a.63.63 0 0 0-.32-.55L9.61 4.34c-.11-.06-.23.03-.23.15v1.4c0 .08.04.16.12.2l2.15 1.2c.12.07.2.2.2.34v2.28c0 .09.04.17.12.2l1.21.68z" fill="url(#c0kczrj43)"/><path d="M13.13 6.3l-.05.1-3.53-1.96h-.02-.01a.06.06 0 0 0-.03.05v1.4c0 .04.02.08.06.1l2.15 1.2c.16.08.26.26.26.44v2.28c0 .05.03.09.06.1l1.22.67c.04.03.1 0 .1-.06V6.86c0-.19-.1-.36-.26-.45l.05-.1zm.32 4.32c0 .14-.15.23-.27.17l-1.21-.67a.23.23 0 0 1-.12-.2V7.62a.4.4 0 0 0-.2-.34L9.5 6.09a.23.23 0 0 1-.12-.2v-1.4c0-.12.12-.21.23-.15l3.52 1.97c.2.1.32.32.32.55v3.76z" fill="url(#d0kczrj43)"/><path d="M5.15 11.87c-.18-.1-.17-.33 0-.42l1.14-.64a.23.23 0 0 1 .22 0l2.18 1.21c.2.11.43.11.62 0l2.15-1.19a.23.23 0 0 1 .21 0l1.27.7c.12.06.12.21 0 .28l-3.33 1.86c-.38.21-.84.21-1.22 0l-3.08-1.72-.16-.08z" fill="url(#e0kczrj43)"/><path fill-rule="evenodd" d="M9.6 13.67l3.35-1.86c.11-.07.1-.22 0-.28l-1.28-.7a.23.23 0 0 0-.21 0l-2.15 1.2c-.2.1-.43.1-.62 0L6.51 10.8a.23.23 0 0 0-.22 0l-1.13.64c-.18.1-.19.33 0 .42l.15.08 3.08 1.72c.38.21.84.21 1.22 0zm-.96-1.54L6.45 10.9a.11.11 0 0 0-.1 0l-1.14.64a.14.14 0 0 0-.07.11c0 .04.01.08.06.1l.16.09 3.09 1.72c.34.2.76.2 1.1 0l3.34-1.86.03-.04c0-.01 0-.03-.03-.04l-1.27-.7a.11.11 0 0 0-.1 0l-2.16 1.2a.74.74 0 0 1-.72 0z" fill="url(#f0kczrj43)"/><path d="M8.62 4.5c0-.13-.12-.22-.23-.16L4.87 6.3a.63.63 0 0 0-.32.55v3.73c0 .15.15.24.27.17l1.21-.68a.23.23 0 0 0 .12-.2V7.62a.4.4 0 0 1 .2-.34l2.15-1.2a.23.23 0 0 0 .12-.2v-1.4z" fill="url(#g0kczrj43)"/><path d="M4.92 6.4a.51.51 0 0 0-.26.46v3.73c0 .06.06.1.1.07l1.22-.69a.12.12 0 0 0 .06-.1V7.63c0-.18.1-.36.26-.44l2.15-1.2a.12.12 0 0 0 .06-.1v-1.4a.06.06 0 0 0-.03-.05h-.01-.02L4.92 6.41zM8.4 4.35c.11-.06.23.03.23.15v1.4c0 .08-.04.16-.12.2L6.35 7.3a.4.4 0 0 0-.2.34v2.24c0 .09-.04.17-.12.2l-1.2.69a.18.18 0 0 1-.28-.17V6.86c0-.23.12-.44.32-.55l3.52-1.97z" fill="url(#h0kczrj43)"/><path d="M8.35 5.94L6.25 7.1a.6.6 0 0 0-.3.53v2.5l.08-.05a.23.23 0 0 0 .12-.2V7.62a.4.4 0 0 1 .2-.34l2.15-1.2a.23.23 0 0 0 .12-.2v-.1l-.27.15z" fill="url(#i0kczrj43)"/><path d="M9.65 5.94l2.1 1.16c.19.11.3.31.3.53v2.54l-.08-.05a.23.23 0 0 1-.12-.2V7.62a.4.4 0 0 0-.2-.34L9.5 6.09a.23.23 0 0 1-.12-.2v-.1l.27.15z" fill="url(#j0kczrj43)"/><path d="M11.8 10.9l-.13-.07a.23.23 0 0 0-.21 0l-2.15 1.2c-.2.1-.43.1-.62 0L6.51 10.8a.23.23 0 0 0-.22 0l-.13.07 2.47 1.37c.25.12.54.11.79-.02l.83-.46 1.55-.87z" fill="url(#k0kczrj43)"/><path d="M8.95 10.29l-.67-.39-.39-.22-.16-.1v.02c0 .07.04.14.1.18l1.07.61a.2.2 0 0 0 .2 0l1.07-.61c.06-.04.1-.1.1-.18v-.02l-.15.1h-.01l-1.06.61a.09.09 0 0 1-.1 0z" fill="#B6FFEE"/><defs><linearGradient id="a0kczrj43" x1="9" y1="5.58" x2="9" y2="12.36" gradientUnits="userSpaceOnUse"><stop stop-color="#2642C0"/><stop offset="1" stop-color="#184298"/></linearGradient><linearGradient id="b0kczrj43" x1="9" y1="7.54" x2="9" y2="10.45" gradientUnits="userSpaceOnUse"><stop stop-color="#F7FFF7"/><stop offset="1" stop-color="#88FBF1"/></linearGradient><linearGradient id="c0kczrj43" x1="9.68" y1="5.06" x2="13.32" y2="10.49" gradientUnits="userSpaceOnUse"><stop stop-color="#48CBF3"/><stop offset="1" stop-color="#5098ED"/></linearGradient><linearGradient id="d0kczrj43" x1="11.41" y1="4.9" x2="11.41" y2="10.81" gradientUnits="userSpaceOnUse"><stop stop-color="#8AF4FF"/><stop offset="1" stop-color="#296CEF"/></linearGradient><linearGradient id="e0kczrj43" x1="12.54" y1="11.9" x2="5.24" y2="11.88" gradientUnits="userSpaceOnUse"><stop stop-color="#5699E8"/><stop offset="1" stop-color="#5296EB"/></linearGradient><linearGradient id="f0kczrj43" x1="12.87" y1="11.52" x2="5.36" y2="11.4" gradientUnits="userSpaceOnUse"><stop offset=".07" stop-color="#3366E6"/><stop offset=".52" stop-color="#3058C9"/><stop offset=".9" stop-color="#3A5CFB"/></linearGradient><linearGradient id="g0kczrj43" x1="8.15" y1="4.89" x2="4.68" y2="10.45" gradientUnits="userSpaceOnUse"><stop stop-color="#48CBF3"/><stop offset="1" stop-color="#5098ED"/></linearGradient><linearGradient id="h0kczrj43" x1="6.59" y1="4.32" x2="6.59" y2="10.78" gradientUnits="userSpaceOnUse"><stop stop-color="#91EFFF"/><stop offset="1" stop-color="#2A67F5"/></linearGradient><linearGradient id="i0kczrj43" x1="8.27" y1="5.79" x2="6.07" y2="9.95" gradientUnits="userSpaceOnUse"><stop stop-color="#0DF5FF"/><stop offset="1" stop-color="#0EF9FF"/></linearGradient><linearGradient id="j0kczrj43" x1="10.06" y1="5.99" x2="12.11" y2="10.04" gradientUnits="userSpaceOnUse"><stop stop-color="#0FF1FF"/><stop offset="1" stop-color="#0CF6FF"/></linearGradient><linearGradient id="k0kczrj43" x1="11.49" y1="10.98" x2="6.38" y2="10.92" gradientUnits="userSpaceOnUse"><stop stop-color="#4FEEFF"/><stop offset="1" stop-color="#2AEEFF"/></linearGradient></defs></svg>