<!-- by TradingView --><svg width="18" height="18" viewBox="0 0 18 18" xmlns="http://www.w3.org/2000/svg"><path fill="#181B1E" d="M0 0h18v18H0z"/><path d="M9 5C6.74 5 5 6.57 5 8.54c0 .25-.23.46-.5.46S4 8.8 4 8.54C4 6 6.27 4 9 4s5 2 5 4.54c0 .25-.23.46-.5.46s-.5-.2-.5-.46C13 6.57 11.26 5 9 5Z" fill="#77FCD1"/><path d="M12 9.06v4.34c0 .33-.33.6-.73.6-.41 0-.77-.27-.77-.6V9.83c0-.18-.15-.33-.37-.33s-.38.15-.38.33v1.57c0 .33-.34.6-.75.6-.4 0-.75-.28-.75-.62V9.81c0-.18-.16-.31-.38-.31s-.37.15-.37.33v3.57c0 .33-.36.6-.77.6-.4 0-.73-.27-.73-.6V9.04C6 7.91 7.34 7 9 7c1.41 0 3.02.78 3 2.06Z" fill="#77FCD1"/></svg>