<!-- by TradingView --><svg width="18" height="18" viewBox="0 0 18 18" xmlns="http://www.w3.org/2000/svg"><path fill="url(#a)" d="M0 0h18v18H0z"/><path fill-rule="evenodd" d="M9 15A6 6 0 1 0 9 3a6 6 0 0 0 0 12Zm2.5-1.67a5 5 0 1 0-5 0V9.5h-.98L5.25 8h7.5l-.27 1.5h-.98v3.83Zm-1.5.57V9.5H8v4.4a5.02 5.02 0 0 0 2 0ZM6 6h6l-.28 1.5H6.27L6 6Z" fill="#fff"/><defs><linearGradient id="a" x1="3.35" y1="3.12" x2="21.9" y2="24.43" gradientUnits="userSpaceOnUse"><stop stop-color="#1A1E21"/><stop offset="1" stop-color="#06060A"/></linearGradient></defs></svg>