<!-- by TradingView --><svg width="18" height="18" fill="none" xmlns="http://www.w3.org/2000/svg"><path fill="url(#paint0_linear_1530)" d="M0 0h18v18H0z"/><path fill-rule="evenodd" clip-rule="evenodd" d="M9 14A5 5 0 109 4a5 5 0 000 10zm4.26-3.726A4.444 4.444 0 005.806 5.91c-.217.328-.42.868-.375 1.635.066 1.153.728 1.67 1.226 2.004l.196.132c1.211.812 2.503 1.677 2.139 2.419-.033-.204-.215-.66-.68-.845-.463-.185-1.562-.817-2.053-1.11-.556-.326-1.62-1.22-1.566-2.251a4.444 4.444 0 007.77 3.891 2.97 2.97 0 00.235-1.605c-.146-1.039-1.233-2.337-2.857-2.89.617.114 2.052.61 2.857 1.689.327.438.492.887.56 1.295zm-2.346-3.13l.422-.146-.26-1.655c-.476-.255-1.72-.647-2.89-.179-1.46.584-1.652 1.77-1.587 2.42.065.65.272 1.054.792 1.395.415.273 1.45.882 1.915 1.153.303.184.897.698.845 1.282-.065.73-.334 1.164-1.153 1.234-.568.049-1.623-.617-2.11-1.9l-.491.077.183 1.623c.312.29 1.233.846 2.418.748 1.481-.123 2.694-.987 2.694-2.37 0-1.108-.724-1.766-1.087-1.957L8.57 7.697c-.328-.207-1.063-1.02-.335-1.833.757-.845 2.136.068 2.298.45.13.305.308.68.382.83z" fill="#fff"/><defs><linearGradient id="paint0_linear_1530" x1="3.349" y1="3.122" x2="21.904" y2="24.434" gradientUnits="userSpaceOnUse"><stop stop-color="#1A1E21"/><stop offset="1" stop-color="#06060A"/></linearGradient></defs></svg>