<!-- by TradingView --><svg width="18" height="18" viewBox="0 0 18 18" xmlns="http://www.w3.org/2000/svg"><path fill="url(#a)" d="M0 0h18v18H0z"/><path d="m11.9 6.74-.3-.35a3.61 3.61 0 0 0-2.97-1.06 3.69 3.69 0 0 0-3.3 3.8.43.43 0 0 0 .68.21 4.93 4.93 0 0 1 5.68-.2l.32.2c.1.07.21.09.33.05.23-.06.34-.2.34-.44a3.7 3.7 0 0 0-.77-2.2Z" fill="url(#b)"/><path d="M12.67 5.62a4.97 4.97 0 0 0-7.08-.27A5 5 0 0 0 4 8.8c-.02.24 0 .48.05.7.08.24.2.46.37.66.43-.23.86-.46 1.27-.72a.43.43 0 0 1-.37-.3 3.7 3.7 0 0 1 4.71-3.67c.58.17 1.1.47 1.55.93l.32.35c.11.15.21.3.3.46.39-.2.76-.43 1.13-.68-.19-.32-.41-.62-.67-.9Zm.67.9c.43.76.65 1.59.66 2.48a1.83 1.83 0 0 1-1.52 1.7 1 1 0 0 1-.1.02h-.12a1.87 1.87 0 0 1-1.04-.33l-.25-.16c-.3-.2-.63-.34-.97-.44l1.28-.9a5 5 0 0 1 .73.46c.1.06.21.08.33.04.23-.06.34-.2.34-.44a3.7 3.7 0 0 0-.47-1.75c.39-.2.76-.43 1.13-.68Zm-3.42 1.9A4.93 4.93 0 0 0 6 9.35c-.1.07-.2.1-.3.1-.42.25-.85.48-1.28.7a1.73 1.73 0 0 0 2.36.25l.27-.18A3.57 3.57 0 0 1 10 9.79l1.28-.9c-.44-.22-.9-.38-1.36-.46Z" fill="url(#c)"/><path d="M13.96 9.33c0 .3-.02.55-.1.78-.18.27-.41.49-.68.64-.19.1-.41.17-.66.19-.15.01-.27 0-.38-.01l.12-.2.11-.01a1.8 1.8 0 0 0 1.6-1.38ZM4.43 10.15c.35.4.8.6 1.33.6h-.01c-.01 0-.01 0 0 0l.04.04.07.14c-.21.04-.4.04-.58 0a1.82 1.82 0 0 1-1.08-.63h-.02a4.99 4.99 0 0 1-.12-.81c.08.24.2.46.37.66Z" fill="#035C66"/><path d="M13.65 10.84c.09-.23.16-.47.22-.73-.2.27-.42.49-.69.64-.19.1-.41.17-.66.19-.15.01-.27 0-.38-.01a3.68 3.68 0 0 1-2.63 1.72 3.7 3.7 0 0 1-3.65-1.73c-.21.05-.4.05-.58.02a1.82 1.82 0 0 1-1.08-.64h-.02a5 5 0 0 0 3.97 3.62 4.96 4.96 0 0 0 5.5-3.08Z" fill="url(#d)"/><defs><linearGradient id="a" x1="3.35" y1="3.12" x2="21.9" y2="24.43" gradientUnits="userSpaceOnUse"><stop stop-color="#1A1E21"/><stop offset="1" stop-color="#06060A"/></linearGradient><linearGradient id="b" x1="6.52" y1="7.37" x2="11.84" y2="9.88" gradientUnits="userSpaceOnUse"><stop stop-color="#026E7A"/><stop offset="1" stop-color="#046C79"/></linearGradient><linearGradient id="c" x1="10.13" y1="4" x2="14" y2="10.62" gradientUnits="userSpaceOnUse"><stop stop-color="#02BFC5"/><stop offset=".55" stop-color="#0596C6"/><stop offset="1" stop-color="#016C93"/></linearGradient><linearGradient id="d" x1="6.08" y1="11.42" x2="12.09" y2="13.33" gradientUnits="userSpaceOnUse"><stop stop-color="#026E7A"/><stop offset="1" stop-color="#025371"/></linearGradient></defs></svg>