<!-- by TradingView --><svg width="18" height="18" viewBox="0 0 18 18" xmlns="http://www.w3.org/2000/svg"><path fill="#35C6FF" d="M0 0h18v18H0z"/><path fill-rule="evenodd" d="M12.12 7.64c-.05-.21-.14-.4-.29-.57-.3-.31-.67-.43-1.09-.35-.28.05-.5.19-.68.4-.1.14-.19.3-.23.46l-.03.26c.03.1.06.24.08.4.02.1.09.23.22.4.06.08.14.14.22.19.15.1.31.17.48.19.26.03.5 0 .7-.12.2-.1.36-.24.46-.43.06-.09.08-.08.08.03 0 .58.06 1.19.19 1.82l.25 1.22c.04.21.06.43.05.66-.02.42-.33.6-.7.67-.03 0-.04.02-.03.04v.02l.01.01h.01c.2-.04.36-.1.49-.18.3-.22.3-.52.28-.9l-.06-.4-.22-1.07a9.5 9.5 0 0 1-.2-2.02l.08-.1.01-.03V8.2a.66.66 0 0 1-.07-.28l-.01-.28Zm-.81.72c.1.07.22.12.35.14.05-.01.08-.03.09-.05.29-.48.23-.93-.15-1.34.03.18.04.34.04.46 0 .11-.03.12-.08.02l-.02-.05c-.05-.1-.1-.21-.2-.28h-.05a.4.4 0 0 0-.08.22l.01.01c.1.02.16.04.22.08.07.04.06.07-.03.08a.51.51 0 0 0-.19.06l.02.22c.02.08 0 .16-.07.23l.06.11c.02.04.04.07.08.1Z" fill="#020101"/><path fill-rule="evenodd" d="M11.8 8.64a1.07 1.07 0 0 0 0-1.54 1.13 1.13 0 0 0-1.57 0 1.07 1.07 0 0 0 0 1.54 1.13 1.13 0 0 0 1.58 0Zm-.43-.27c.1.07.23.12.36.14.05-.01.08-.03.1-.05.28-.48.23-.92-.16-1.34.03.19.04.34.04.47 0 .1-.03.1-.08.01l-.02-.05c-.05-.1-.1-.21-.21-.28h-.05a.4.4 0 0 0-.08.22l.01.01c.1.02.17.05.22.08.08.05.07.07-.02.08a.53.53 0 0 0-.2.06c0 .09.01.16.03.23.01.07-.01.15-.08.22l.06.11.08.1Z" fill="#F9F146"/><path d="M4.47 4c.03.1.08.17.14.22l.14.13.33.37c.13.15.24.22.44.36.1.07.23.1.35.14.1.04.19.06.28.06.22 0 .44-.03.65-.12l1.34-.47c.03 0 .03-.01 0-.02a1.52 1.52 0 0 0-.39-.01h-.03l-.01-.02v-.05a1.54 1.54 0 0 1 1.34-.17 110.66 110.66 0 0 1 .3.1V4.5a.45.45 0 0 1 .03-.38c.08-.13.14-.12.16.05.03.14.11.28.26.42.09.08.21.17.38.26l.5.26c.17.09.32.21.5.3l.4.47.15.32c0 .03.03.04.06.03.5-.15.98-.33 1.42-.63.26-.18.45-.41.57-.7.09-.22.1-.49-.13-.64a.16.16 0 0 0-.2.02c-.1.1-.2.24-.32.41-.17.26-.44.5-.8.72a.88.88 0 0 1 .18-.22l.21-.2.58-.7c.04-.06.1-.12.17-.18l.02-.02c.01-.04.04-.06.1-.08.47.36.54.79.2 1.28-.1.12-.26.27-.48.45-.46.35-.96.62-1.5.82a.06.06 0 0 0-.05.04l-.04.17v.03l.01.02c.1.07.16.16.18.25a1.2 1.2 0 0 0-1.12-.34c-.29.05-.52.18-.69.4l-.32.13a.03.03 0 0 1-.04-.01v-.01a.78.78 0 0 1 .26-.67v-.04c-.01-.01-.03-.02-.05 0a.95.95 0 0 0-.23.17c-.12.13-.17.27-.25.45-.02.05-.03.07-.06.08-.02 0-.06 0-.1-.03-.05-.02-.07 0-.08.04-.02.13-.11.2-.26.22a.03.03 0 0 1-.03 0 .03.03 0 0 1 0-.03v-.18a.72.72 0 0 0-.35-.48c-.03-.02-.04-.01-.03.02.04.12.06.25.05.4a.06.06 0 0 1-.03.05.07.07 0 0 1-.07 0c-.34-.2-.67-.35-1-.43a1.6 1.6 0 0 0-.59-.03c-.01 0-.03.01-.03.03v.08c0 .02-.01.03-.03.01a.07.07 0 0 1-.02-.06c0-.02 0-.04-.03-.04-.02 0-.05 0-.07.02-.3.14-.5.43-.57.74 0 .05-.02.05-.04 0-.1-.26-.17-.5-.03-.75.04-.08.1-.1.14-.16a.02.02 0 0 0 0-.03.03.03 0 0 0-.03 0l-.31.08c-.14.04-.16.01-.06-.09a.71.71 0 0 1 .29-.16c.16-.05.16-.1 0-.13-.1-.03-.27-.09-.53-.2a4.61 4.61 0 0 1-1.2-.69c-.43-.35-.55-.88-.18-1.32.03-.03.11-.07.25-.12Z" fill="#FFFFFE"/><path d="M6.8 5.16a1.6 1.6 0 0 1-.65.12.8.8 0 0 1-.28-.06c-.12-.05-.25-.07-.35-.14-.2-.14-.3-.21-.44-.36A62.12 62.12 0 0 1 4.47 4c.3.22.59.46.87.71.05.06.16.1.31.16.08.04.2.06.34.09a6 6 0 0 1 .81.2ZM13.6 4.02c-.07.02-.1.04-.11.08l-.02.02-.17.17-.58.71-.2.2a.88.88 0 0 0-.2.22 4.8 4.8 0 0 1-.75.47l-.4-.47c.23-.1.42-.18.58-.23.36-.1.56-.15.79-.31.3-.23.46-.43.8-.8.03-.03.12-.06.25-.06Z" fill="#E7D3BD"/><path d="M5.72 5.36a1.74 1.74 0 0 0 .18.57.02.02 0 0 1-.03.02c-.4-.1-.77-.24-1.1-.44a1.38 1.38 0 0 1-.58-.68c-.08-.2-.06-.38.07-.52.08-.09.17-.08.27 0l.29.3c.24.28.52.49.83.65a.14.14 0 0 1 .07.1ZM11.57 5.9c.29-.15.54-.31.75-.48.37-.22.64-.46.8-.72a4 4 0 0 1 .32-.4.16.16 0 0 1 .2-.03c.24.15.23.42.14.64-.12.29-.3.52-.57.7-.44.3-.91.48-1.42.63-.03 0-.05 0-.06-.03l-.16-.32Z" fill="#585252"/><path d="M7.03 6.05c.09.02.1 0 .02-.05l-.29-.23c-.14-.15-.11-.2.08-.12l.26.03c.21 0 .47 0 .77-.04.08 0 .09-.02.01-.06-.2-.08-.38-.15-.54-.18-.05-.02-.05-.03 0-.05.3-.11.6-.18.91-.22.4-.04.73.08.99.35.08.09.1.08.05-.03a2.1 2.1 0 0 0-.28-.5c-.05-.07-.03-.1.05-.08.2.03.43.1.58.2.45.31.58.74.38 1.29l-.02.02h-.02c-.04.01-.06-.01-.07-.06A1.79 1.79 0 0 0 9.4 5.2c-.04-.04-.05-.03-.03.02.03.1.1.19.12.28.11.33.11.65 0 .96a2.62 2.62 0 0 1-.3.58c-.06.05-.08.03-.06-.04v-.1c.02-.37-.12-.69-.41-.96-.07-.05-.12-.08-.17-.09-.02 0-.03.01-.01.03.17.19.26.4.27.65v.03l-.03.02h-.02v-.01c-.1-.1-.2-.18-.31-.24-.21-.1-.47-.2-.78-.3-.02 0-.03 0-.02.03l.04.04.31.14c.21.1.3.19.43.34.01.01.02.02.01.04l-.02.02a.04.04 0 0 1-.04 0 1.3 1.3 0 0 0-.25-.16 3.3 3.3 0 0 0-.37-.12c-.11-.02-.24-.04-.38-.03a3.7 3.7 0 0 1-.45-.05 1 1 0 0 1-.36-.11 1.73 1.73 0 0 1-.32-.21.62.62 0 0 1-.17-.26c-.02-.06 0-.07.05-.03.27.2.57.32.9.38Z" fill="#E7D3BD"/><path d="M10.1 7.13c-.12.15-.2.3-.24.46a1.31 1.31 0 0 1-.14-.14c-.08-.1-.2-.12-.33-.05a2 2 0 0 0-.17.09.42.42 0 0 1-.17.07c-.22.02-.29-.1-.41-.17a.24.24 0 0 0-.2-.02.36.36 0 0 0-.19.13c-.13.2-.23.32-.27.4-.11.15-.25.23-.42.36a.1.1 0 0 0-.03.04c-.05.15-.07.31-.05.47-.07.05-.1.11-.11.19 0 .05 0 .1.04.17.1.19.28.35.46.47l.24.2.2.2c.32.3.7.37 1.13.2.3-.11.58-.32.83-.62.1-.13.15-.25.18-.41.02-.18-.05-.28-.23-.3.1.02.15 0 .14-.03.15.1.32.17.5.19a.31.31 0 0 0-.04.17v.16c-.05.17-.3.38-.41.48-.12.09-.17.24-.24.38-.05.08-.11.16-.21.26-.3.31-.45.42-.58.62-.08.11-.11.1-.1-.04a3.35 3.35 0 0 0 .02-.23c-.02-.02-.03-.02-.05 0-.12.22-.21.44-.26.65-.01.06-.03.06-.05 0a5.45 5.45 0 0 1-.22-.76c0-.04-.03-.06-.06-.06-.02 0-.03 0-.04.03l-.09.33H8.5c-.01 0-.02-.01-.02-.03a.72.72 0 0 0-.23-.56c-.23-.2-.4-.4-.5-.57-.13-.2-.35-.25-.45-.47-.05-.12-.04-.26-.06-.4a.9.9 0 0 0-.05-.16l-.1-.34c.02.04.04.07.06.08.01.02.03.02.04 0l.08-.16a.55.55 0 0 1 .13-.13c.13-.1.21-.22.25-.36.01-.04.05-.08.11-.12.02-.01.03-.03.02-.05l-.05-.03c0-.07.01-.1.05-.1.11.01.18-.02.19-.1 0-.02 0-.04-.03-.04-.34-.11-.51-.47-.84-.6-.02-.02-.04-.01-.05 0-.02.03-.04.06-.04.12l-.02.02h-.02c-.02-.04-.04-.06-.08-.06-.03-.02-.05-.06-.05-.1 0-.01 0-.03-.02-.03h-.07a.13.13 0 0 1 .07-.02c.02 0 .03.02.03.04s0 .04.02.06c.02.02.03.01.03-.01v-.08c0-.02.02-.03.04-.03.2-.02.4-.01.58.03a3.84 3.84 0 0 1 1.03.44.07.07 0 0 0 .06-.04l.01-.03c0-.14 0-.27-.05-.39 0-.03 0-.04.03-.02.19.11.3.27.35.48v.18a.03.03 0 0 0 0 .02.03.03 0 0 0 .03.01c.15-.01.24-.09.26-.22 0-.05.03-.06.07-.04l.11.03c.03 0 .04-.03.06-.08.08-.18.13-.32.25-.45a.95.95 0 0 1 .23-.17c.02-.02.04-.01.05 0v.04a.78.78 0 0 0-.26.68.03.03 0 0 0 .04.01l.32-.14Z" fill="#E7D3BD"/><path d="M7.77 7.62a3.22 3.22 0 0 0-.79-.4l-.2.05-.05-.01c-.04-.03-.04-.07-.01-.11l.16-.2c.04.01.06.03.08.07h.02L7 7.01V7c0-.06.02-.1.04-.12.01-.01.03-.02.05 0 .33.13.5.49.84.6.02 0 .03.02.03.04-.01.08-.08.11-.19.1ZM11.1 7c.03 0 .04 0 .06-.02l.14.15.03.07-.05.07a.05.05 0 0 1-.05 0 .24.24 0 0 0-.1-.03.7.7 0 0 0-.38.09l-.53.3-.06-.01c-.06-.03-.1-.06-.1-.11a.04.04 0 0 1 .04-.04.38.38 0 0 0 .17-.07 44.05 44.05 0 0 0 .64-.53.09.09 0 0 1 .09.03l.01.04.01.05V7h.01c.02.02.05.02.08 0Z" fill="#020101"/><path d="M11.67 7.12c.03.19.04.34.04.47 0 .1-.03.1-.08.01-.06-.12-.1-.25-.23-.33h-.05a.4.4 0 0 0-.08.22h-.07c-.02 0-.03-.01-.02-.03v-.03a.13.13 0 0 0-.04-.04c-.04-.05-.05-.1-.02-.15.04 0 .08.01.1.03a.05.05 0 0 0 .06 0 .13.13 0 0 0 .05-.07c0-.01 0-.04-.03-.07a.82.82 0 0 0-.14-.15v-.02c-.01-.03 0-.04.05-.03.17.04.32.1.46.2Z" fill="#FFFFFE"/><path d="M11.12 7.24c-.03.05-.02.1.02.15l.04.04v.03c0 .02 0 .03.02.03h.07l.01.01a.68.68 0 0 0-.33.06c-.23.12-.47.18-.7.2.02-.03.03-.06.03-.1 0-.03-.02-.03-.06-.04.12-.05.3-.15.53-.3a.7.7 0 0 1 .37-.08ZM7.77 7.62c-.04 0-.06.03-.05.1a.66.66 0 0 1-.35-.03c-.23-.1-.41-.16-.57-.2l.18-.26c.26.08.53.22.79.4Z" fill="#8B8283"/><path d="m9.86 7.59-.03.26c-.18-.14-.36-.2-.53-.16-.17.04-.33.04-.48.01a1.26 1.26 0 0 0-.32-.02c-.22.03-.35.18-.39.44l-.03.19-.03.04a.75.75 0 0 0-.29.32c0 .02-.02.03-.04.04a.67.67 0 0 1-.24.06c-.02-.16 0-.32.05-.47a.1.1 0 0 1 .03-.04c.17-.13.31-.21.42-.37l.27-.39c.04-.06.1-.1.19-.13a.24.24 0 0 1 .2.02c.12.07.2.19.4.17.06 0 .12-.03.18-.07a2 2 0 0 1 .17-.1c.13-.06.25-.04.33.06l.14.14Z" fill="#FFFFFE"/><path d="M6.8 7.5c.16.03.34.1.57.19.1.04.22.05.35.03l.05.03c0 .02 0 .04-.02.05-.06.04-.1.08-.11.12l-.78.1a.1.1 0 0 1-.09-.03.1.1 0 0 1-.02-.08.4.4 0 0 0-.03-.22l-.17-.02c-.12-.03-.12-.06-.01-.11a.94.94 0 0 1 .26-.07ZM11.28 7.5c.1.02.17.05.22.08.08.05.07.07-.02.08a.53.53 0 0 0-.2.06l-.02.24a.08.08 0 0 1-.06.07h-.03l-.79-.12-.13-.16c.23 0 .47-.07.7-.19.08-.04.2-.06.33-.06Z" fill="#020101"/><path d="m7.04 7.82-.12.12a.05.05 0 0 1-.05.01l-.03-.01V7.9l.01-.2c.02-.1.06-.11.11-.01a.4.4 0 0 0 .08.09.02.02 0 0 1 .01.02Z" fill="#FFFFFE"/><path d="M10.16 7.62h.06c.04 0 .06.01.06.03 0 .05 0 .08-.03.1l.13.16c.05.17.16.32.34.44.08.06.1.11.11.2a.03.03 0 0 0 .03.03h.01l.06-.06c.01.08-.01.18-.07.3-.14 0-.3-.06-.45-.19.07-.03.09-.11.04-.23a.31.31 0 0 0-.09-.14 1.29 1.29 0 0 1-.19-.18.15.15 0 0 0-.03-.03.12.12 0 0 0-.03-.02h-.03l-.02.02v.05c-.07-.08-.07-.15 0-.2.01 0 .02-.02.01-.04a.32.32 0 0 1 0-.17c.01-.06.04-.08.1-.07Z" fill="#E7D3BD"/><path d="M11.08 7.68v-.02c0-.02 0-.03.02-.03.04 0 .06 0 .07.02a.5.5 0 0 1 .01.29l-.01.02h-.02l-.01-.01-.11-.08a.06.06 0 0 1-.02-.08c0-.02.03-.04.05-.07a.05.05 0 0 0 .02-.04Z" fill="#FFFFFE"/><path d="m9.83 7.85.09.4c0 .1.08.23.22.4-.07.08-.04.16.08.22.18.02.25.12.23.3a.79.79 0 0 1-.18.4c-.25.31-.52.52-.83.63-.44.17-.81.1-1.13-.2a38.56 38.56 0 0 0-.44-.4 1.44 1.44 0 0 1-.46-.47.3.3 0 0 1-.04-.17c0-.08.04-.14.11-.19.1 0 .18-.03.24-.06l.04-.04a.75.75 0 0 1 .29-.32.07.07 0 0 0 .03-.04l.03-.19c.04-.26.17-.4.39-.44.05-.01.16 0 .32.02.15.03.31.03.48 0 .17-.04.35.01.53.15ZM7.64 7.92a.69.69 0 0 1-.25.36.55.55 0 0 0-.13.13l-.08.15c-.01.03-.03.03-.04.01a.18.18 0 0 1-.05-.08c0-.05-.01-.09-.03-.12-.01-.02-.05-.05-.1-.07a.4.4 0 0 1-.22-.23.13.13 0 0 0 0-.1.11.11 0 0 1-.02-.06V7.7a.4.4 0 0 1 .03.22.1.1 0 0 0 .02.08.1.1 0 0 0 .09.03l.78-.1ZM11.28 7.72c0 .09.01.16.03.23.01.07-.01.15-.08.22l-.2.16a.1.1 0 0 0-.03.04l-.07.15-.06.06a.03.03 0 0 1-.02 0 .03.03 0 0 1-.02-.02c0-.1-.03-.15-.11-.21a.77.77 0 0 1-.34-.44l.8.12a.08.08 0 0 0 .07-.04l.01-.03.02-.24Z" fill="#8B8283"/><path d="M9.83 8.4c-.1.03-.17.03-.21 0a.06.06 0 0 1-.03-.05l.02-.15c0-.05-.01-.09-.06-.11H9.5a.52.52 0 0 0-.19.2 9.7 9.7 0 0 0-.17.48c-.07.08-.1.07-.1-.04 0-.1 0-.22.02-.35 0-.02 0-.02-.02-.02h-.02v.01l-.04.48-.02.01a.02.02 0 0 1-.02 0c-.22-.22-.11-.58-.36-.77a.08.08 0 0 0-.11.02l-.02.04v.12a.1.1 0 0 1-.04.07.1.1 0 0 1-.07.02H8.16v.05c.32.1.56.26.74.51.04.07.07.13.08.2a.3.3 0 0 1-.05.22c-.02-.04-.04-.06-.08-.05a.65.65 0 0 1-.4-.03c-.2-.08-.18-.16-.13-.33a.1.1 0 0 0 0-.06c-.03-.14-.12-.24-.18-.38a.16.16 0 0 1 0-.1c.05-.2.11-.36.18-.44.09-.1.19-.13.3-.09l.29.12c.08.03.18.02.29-.04.14-.07.25-.11.35-.13l.05.01c.1.06.17.15.2.26l-.01.05a.1.1 0 0 0 0 .09c.06.08.07.14.04.18Z" fill="#585252"/><path d="M10.4 8.63a.96.96 0 0 1-.34-.53v-.05l.02-.02h.03l.03.02.03.03c.06.06.12.13.19.18.04.03.07.08.1.14.04.12.02.2-.05.23ZM6.74 8.07c.04.1.12.18.22.23.05.02.09.05.1.07a2.73 2.73 0 0 0 .12.46.9.9 0 0 1 .05.17c.02.13 0 .27.06.39.1.22.32.28.44.47.11.18.28.37.5.57.16.14.24.33.24.56 0 .02 0 .03.02.03h.04l.1-.33c0-.02.01-.03.03-.03.03 0 .05.02.06.06.06.29.14.54.22.76.02.06.04.06.05 0 .05-.21.14-.43.26-.65.02-.02.03-.02.05 0v.05l-.01.18c-.02.14 0 .15.09.04.13-.2.27-.3.58-.62.1-.1.16-.18.2-.26.08-.14.13-.3.25-.38.11-.1.36-.31.4-.48.01-.03.02-.08.01-.16 0-.07 0-.13.04-.17.26.03.5 0 .71-.12.08.16.14.32.18.48v.04l-.02.01-.04-.01a.72.72 0 0 0-.21-.2h-.01a.02.02 0 0 0-.01.02c.03.26.02.51-.02.77v.06c.05.1.12.2.21.26.1.07.2.08.35.12a.03.03 0 0 1 .02.03v.01c-.14.13-.25.19-.36.18-.13-.01-.14.03-.03.12.07.07.19.18.2.3v.02h-.01l-.01.01h-.02l-.28-.07h-.01a.03.03 0 0 0-.03.02v.01c.15.4.34.77.56 1.12.04.06.02.08-.05.06a.83.83 0 0 1-.16-.06h-.02a.03.03 0 0 0-.03.02v.02L11.9 14H6.04l.13-1.4v-.01l-.01-.02h-.04a.35.35 0 0 0-.1.13c-.05.1-.09.09-.1-.02l.02-.1.66-1.6c.04-.1.02-.1-.06-.06a.56.56 0 0 1-.27.1V11l.4-.55a.03.03 0 0 0-.02-.04h-.02c-.18.04-.34.05-.49.03-.03 0-.03-.01 0-.03l.37-.38a.07.07 0 0 0 .02-.05v-.26c-.02-.09-.04-.1-.06 0l-.03.12c-.02.08-.04.08-.07 0a.8.8 0 0 1 .12-.8V9h-.03l-.13.14c-.04.07-.06.06-.06-.02.01-.15.1-.3.24-.42.04-.04.03-.06-.02-.06h-.25a.22.22 0 0 1-.12-.04l-.01-.01a.03.03 0 0 1 0-.04h.02c.25-.12.45-.28.61-.5Z" fill="#FFFFFE"/><path d="M9.83 8.4v.06c-.54.1-.8.4-.8.88l.04.07c.1.1.2.17.3.19.1.02.33.02.43-.01a.66.66 0 0 0 .45-.48v-.05a.13.13 0 0 1-.03-.08.03.03 0 0 1 0-.02.03.03 0 0 1 .03 0l.13.03c.03 0 .03.02.01.04-.06.08-.1.24-.17.34a.87.87 0 0 1-.51.33c-.17 0-.34-.02-.5-.05a1.94 1.94 0 0 0-.36-.06H8.4a1.3 1.3 0 0 1-.81-.49c-.01-.01-.03-.02-.05 0l-.02.02a.02.02 0 0 1-.02 0 .02.02 0 0 1-.02 0 .2.2 0 0 1 0-.04v-.04c.03-.07.09-.14.16-.2a.05.05 0 0 1 .06-.01c.03.01.03.04.01.06a.28.28 0 0 0-.04.09v.05a.9.9 0 0 0 .58.44c.25.07.47.02.68-.13a.3.3 0 0 0 .05-.22.42.42 0 0 0-.08-.2 1.28 1.28 0 0 0-.73-.5c-.02-.01-.02-.02-.02-.04v-.02h.19a.1.1 0 0 0 .07-.02.1.1 0 0 0 .03-.07l.01-.12a.07.07 0 0 1 .05-.07.08.08 0 0 1 .08.01c.25.19.14.55.36.77a.02.02 0 0 0 .02 0 .02.02 0 0 0 .02-.01L9 8.38v-.01h.01l.02-.01c.02 0 .02 0 .02.02l-.03.35c0 .11.04.12.1.04l.03-.06.15-.43c.03-.06.1-.12.19-.19a.05.05 0 0 1 .05 0c.05.02.07.06.06.11a3.92 3.92 0 0 0-.01.17c0 .01 0 .02.02.02.04.04.1.04.2.01Z" fill="#020101"/><path d="m11.23 8.17.06.11.08.1c.1.06.23.1.36.13.01.04 0 .07-.04.1a1.1 1.1 0 0 1-.83.2c.06-.11.08-.21.07-.29l.07-.15a.1.1 0 0 1 .03-.04l.2-.16Z" fill="#FFFFFE"/><path d="M9.83 8.46c.03.07.02.13-.02.18a.78.78 0 0 0-.14.32V9c.06.08.1.16.14.24.02.03.01.08-.01.15-.02.04-.06.07-.11.09a.61.61 0 0 1-.54-.08l-.04-.02-.04.02a.12.12 0 0 1-.03-.07c-.01-.48.25-.77.8-.88Z" fill="#585252"/><path d="M10.14 8.64a.8.8 0 0 0 .22.2c0 .04-.04.05-.14.03-.12-.06-.15-.14-.08-.23Z" fill="#FFFFFE"/><path d="M8.4 9.6h.45c.09 0 .2.01.36.05.16.03.33.05.5.05-.11.08-.27.15-.46.2-.38.12-.66-.03-.94-.29-.02-.01-.01-.02 0-.03l.09.01Z" fill="#585252"/><path d="m7.53 11.29.46 1 .02.02a.05.05 0 0 0 .05 0h.02l.25-.35a.06.06 0 0 1 .06-.03s.02 0 .03.02l.01.03a1.17 1.17 0 0 0 .45.64.04.04 0 0 0 .04-.04l.02-.42c.04 0 .06-.01.06-.04l.13.52v.02a.04.04 0 0 0 .08 0c.07-.12.16-.24.27-.33a2.16 2.16 0 0 0 .36-.35.04.04 0 0 1 .04 0l.01.02.06.17c.03.06.05.06.08 0a.73.73 0 0 1 .27-.37l.4-.3c.08-.06.14-.17.16-.33a.61.61 0 0 0 .27-.33c.01-.02.03-.03.05-.03l.01.01v.01c-.01.44-.09.86-.22 1.24-.02.05-.04.05-.06 0l-.1-.25c-.04-.1-.07-.1-.08.01-.03.2-.09.39-.17.56-.07.13-.16.21-.25.34-.07.08-.1.07-.08-.03a.96.96 0 0 0 0-.3.03.03 0 0 0-.03-.02h-.03l-.01.03a.93.93 0 0 1-.17.3c-.05.05-.14.11-.26.19-.19.1-.33.21-.44.31-.04.05-.06.04-.06-.02l.03-.09v-.03l-.01-.01h-.03c-.13.1-.23.23-.3.36-.06.13-.1.12-.12-.02l-.07-.5v-.01l-.02-.01a.03.03 0 0 0-.03 0l-.01.02c0 .12-.02.25-.05.4-.01.05-.03.06-.07 0-.13-.21-.37-.36-.6-.56a1.26 1.26 0 0 1-.3-.34 1.87 1.87 0 0 1-.18-.53l-.05-.06c-.02-.02-.04-.02-.04.02l-.01.15-.02.02h-.02l-.5-1.2a.3.3 0 0 1-.03-.14c.01-.06.03-.07.06-.02.05.1.12.18.2.27.05.06.13.12.23.2l.24.18Z" fill="#E7D3BD"/><path d="M10.86 11.17c-.02.16-.08.27-.16.32-.1.09-.24.2-.4.31a.73.73 0 0 0-.27.36c-.03.07-.05.07-.08 0a.86.86 0 0 1-.06-.16.04.04 0 0 0-.03-.03.04.04 0 0 0-.04.02c-.1.12-.21.24-.34.34-.11.1-.2.2-.27.33a.04.04 0 0 1-.05.02l-.02-.02-.01-.02-.13-.52c.1-.22.27-.4.48-.56h.04l.01.01v.04a.52.52 0 0 0-.05.19.03.03 0 0 0 .01.03h.04l.23-.21c.23-.15.5-.27.73-.41a.9.9 0 0 0 .38-.37h.05l.01.01v.02c-.04.1-.07.2-.07.3ZM7.53 11.29c.2.13.42.25.63.36.13.07.2.16.3.25a.04.04 0 0 0 .04 0h.01a.7.7 0 0 0 .1-.42c0-.07.01-.07.04 0 .1.22.11.46.29.68l-.02.42v.02l-.02.01h-.03a1.17 1.17 0 0 1-.44-.63.06.06 0 0 0-.04-.05h-.04a.06.06 0 0 0-.02.03l-.25.34a.05.05 0 0 1-.09 0l-.46-1.01Z" fill="#D7BEA2"/></svg>