<!-- by TradingView --><svg width="18" height="18" viewBox="0 0 18 18" xmlns="http://www.w3.org/2000/svg"><path fill="url(#aaupuz2nt)" d="M0 0h18v18H0z"/><path d="M4.9 12H7.2c.74 0 1.3-.65 1.2-1.37-.04-.2-.3-.39-.43-.45-.2-.12-1-.97-.98-2.06C7.01 7.02 7.7 6 9 6s2 1.09 2 2.12c0 1.17-.57 1.94-.93 2.06a.84.84 0 0 0-.5.45c-.09.73.48 1.37 1.21 1.37h2.32c.5 0 .9-.4.9-.9v-.22c0-.13-.1-.23-.22-.23a.3.3 0 0 0-.16.05c-.51.32-2.35.31-3.22.3-.06-.29.31-.3.49-.37.77-.4 1.37-1.14 1.44-2.51C12.4 6.75 11.48 5 9 5S5.53 6.43 5.58 8.12c.05 1.68 1.14 2.35 1.55 2.5.33.13.38.24.4.38-1.94.1-2.92-.14-3.24-.32a.22.22 0 0 0-.1-.03c-.1 0-.19.09-.19.19v.26c0 .5.4.9.9.9Z" fill="#fff"/><defs><linearGradient id="aaupuz2nt" x1="3.35" y1="3.12" x2="21.9" y2="24.43" gradientUnits="userSpaceOnUse"><stop stop-color="#1A1E21"/><stop offset="1" stop-color="#06060A"/></linearGradient></defs></svg>