<!-- by TradingView --><svg width="18" height="18" viewBox="0 0 18 18" xmlns="http://www.w3.org/2000/svg"><path fill="#07023C" d="M0 0h18v18H0z"/><path fill-rule="evenodd" d="M11.1 9.01 11.08 9v-.01a780.03 780.03 0 0 0 1.88-1.92c.12-.12.22-.22.3-.34.8-1.27-.59-2.76-1.91-2.04-.11.06-.26.18-.44.36L9.05 6.88h-.06L7.1 4.93a1.28 1.28 0 0 0-.27-.2c-.5-.3-1.02-.3-1.53-.03-.36.19-.62.53-.73.92-.11.4-.07.78.13 1.16.08.14.23.32.46.54A211.03 211.03 0 0 1 6.86 9l-.01.03-1.7 1.65c-.23.22-.38.4-.46.55a1.52 1.52 0 0 0 .6 2.08c.51.27 1.02.26 1.53-.04.11-.07.2-.13.27-.2L9 11.12h.06l1.87 1.83c.18.18.33.3.44.36 1.32.72 2.7-.77 1.9-2.04-.07-.12-.17-.22-.29-.34l-.05-.05L11.1 9ZM6.33 5.47c0 .12.1.21.22.2.12 0 .2-.11.2-.23a.21.21 0 0 0-.23-.2c-.12.01-.2.12-.2.23Zm5.18.26a.21.21 0 1 0 0-.42.21.21 0 0 0 0 .42Zm-5.29.22a.21.21 0 1 1-.43 0 .21.21 0 0 1 .43 0Zm5.82.27a.21.21 0 1 0 0-.42.21.21 0 0 0 0 .42Zm-4.72-.19a.21.21 0 1 1-.43 0 .21.21 0 0 1 .43 0Zm3.62.28a.21.21 0 1 0 0-.42.21.21 0 0 0 0 .42Zm-5.25.13a.21.21 0 1 1-.42 0 .21.21 0 0 1 .42 0Zm6.87.27a.21.21 0 1 0 0-.42.21.21 0 0 0 0 .42ZM6.8 6.52a.21.21 0 1 1-.42 0 .21.21 0 0 1 .42 0Zm4.67.28a.21.21 0 1 0 0-.43.21.21 0 0 0 0 .43ZM7.9 6.6a.21.21 0 1 1-.42 0 .21.21 0 0 1 .42 0Zm2.47.29a.21.21 0 1 0 0-.43.21.21 0 0 0 0 .43ZM6.27 7a.21.21 0 1 1-.42 0 .21.21 0 0 1 .43 0ZM12 7.3a.21.21 0 1 0 0-.43.21.21 0 0 0 0 .43Zm-4.62-.2a.21.21 0 1 1-.43 0 .21.21 0 0 1 .43 0Zm3.52.28a.21.21 0 1 0 0-.42.21.21 0 0 0 0 .42Zm-4.05.22a.21.21 0 1 1-.42 0 .21.21 0 0 1 .42 0Zm4.57.27a.21.21 0 1 0 0-.42.21.21 0 0 0 0 .42Zm.21 2.49a.21.21 0 1 1-.42 0 .21.21 0 0 1 .42 0Zm-5 .27a.21.21 0 1 0 0-.42.21.21 0 0 0 0 .42Zm4.48.22a.21.21 0 1 1-.42 0 .21.21 0 0 1 .42 0Zm-3.94.28a.21.21 0 1 0 0-.43.21.21 0 0 0 0 .43Zm5.04-.2a.21.21 0 1 1-.43 0 .21.21 0 0 1 .43 0Zm-6.14.28a.21.21 0 1 0 0-.42.21.21 0 0 0 0 .42Zm4.51.13a.21.21 0 1 1-.42 0 .21.21 0 0 1 .42 0Zm-2.89.27a.21.21 0 1 0 0-.42.21.21 0 0 0 0 .42Zm3.99-.19a.21.21 0 1 1-.42 0 .21.21 0 0 1 .42 0Zm-5.09.28a.21.21 0 1 0 0-.42.21.21 0 0 0 0 .42Zm6.2-.2a.21.21 0 1 1-.43 0 .21.21 0 0 1 .42 0Zm-7.3.28a.21.21 0 1 0 0-.42.21.21 0 0 0 0 .42Zm5.67.13a.21.21 0 1 1-.43 0 .21.21 0 0 1 .43 0Zm-4.04.28a.21.21 0 1 0 0-.42.21.21 0 0 0 0 .42Zm5.14-.2a.21.21 0 1 1-.43 0 .21.21 0 0 1 .43 0Zm-6.24.29a.21.21 0 1 0 0-.43.21.21 0 0 0 0 .43Zm5.71.2a.21.21 0 1 1-.42 0 .21.21 0 0 1 .42 0Zm-5.19.28a.21.21 0 1 0 0-.42.21.21 0 0 0 0 .42Z" fill="#fff"/></svg>