<!-- by TradingView --><svg width="18" height="18" viewBox="0 0 18 18" xmlns="http://www.w3.org/2000/svg"><path fill="url(#a)" d="M0 0h18v18H0z"/><path fill-rule="evenodd" d="M14 9A5 5 0 1 1 4 9a5 5 0 0 1 10 0Zm-2.5 0a2.5 2.5 0 1 1-5 0 2.5 2.5 0 0 1 5 0Zm-.68.09a1.36 1.36 0 1 1-1.9-1.9l.16-.16a.13.13 0 0 0-.1-.22c-.52 0-.97.16-1.34.48-.7.58-.95 1.32-.77 2.2.08.4.27.74.58 1.06.32.3.67.5 1.06.58.89.18 1.62-.07 2.2-.77.32-.37.48-.82.48-1.34a.13.13 0 0 0-.22-.1c-.04.03-.09.09-.15.17Z" fill="#FF616E"/><defs><linearGradient id="a" x1="3.35" y1="3.12" x2="21.9" y2="24.43" gradientUnits="userSpaceOnUse"><stop stop-color="#1A1E21"/><stop offset="1" stop-color="#06060A"/></linearGradient></defs></svg>