<!-- by TradingView --><svg width="18" height="18" viewBox="0 0 18 18" xmlns="http://www.w3.org/2000/svg"><path fill="#F0F3FA" d="M0 0h18v18H0z"/><path d="M13.93 8.18a9.3 9.3 0 0 0-.48-1.3 11.1 11.1 0 0 0-.62-.92l-.29-.32a7.23 7.23 0 0 0-.78-.7 4.2 4.2 0 0 0-.72-.43L11 4.5a7.45 7.45 0 0 0-2.43-.4c-.02 0-.03-.01-.03-.04a5.3 5.3 0 0 1 2.74.5c.6.29 1.1.67 1.53 1.15a4.46 4.46 0 0 1 1.1 2.47Z" fill="#F4DB48"/><path d="M8.55 4.06c0 .03 0 .04.03.05l.22.02a4.25 4.25 0 0 1 1.51.2l.3.06a3.56 3.56 0 0 0 .4.11l.03.01.1.04a4.2 4.2 0 0 1 .9.6 7.26 7.26 0 0 1 1.14 1.3 11.12 11.12 0 0 1 .44.8c.12.3.22.6.3.93a4.12 4.12 0 0 1-.11 1.57h-.04l.03-.27-.02-.01a2.28 2.28 0 0 1-.69-.28 3.65 3.65 0 0 0-.65-2.72 4 4 0 0 0-2.14-1.5 4.45 4.45 0 0 0-2.94.15 4.07 4.07 0 0 0-1.4.97 1.1 1.1 0 0 1-.57-.42A4.66 4.66 0 0 1 6.11 5l.18-.14.18-.16a5.15 5.15 0 0 1 2.08-.63Z" fill="#F0CA29"/><path d="m6.47 4.7-.18.15a2.26 2.26 0 0 0-.35.3 4.66 4.66 0 0 0-.96 1.04l-.14.2-.13.21a18.52 18.52 0 0 0-.27.57.66.66 0 0 0-.04.15.92.92 0 0 1-.05.16 95.47 95.47 0 0 0-.12.5c-.03.14-.04.34-.02.6a5.09 5.09 0 0 0 .36 1.58l.07.16.1.23a9.03 9.03 0 0 0 .42.6 117.48 117.48 0 0 1 .52.6 34.85 34.85 0 0 0 .5.46l.15.1.22.15a3.77 3.77 0 0 0 .82.35l.2.07a19.82 19.82 0 0 0 1.34.36 5.25 5.25 0 0 1-3.56-1.49 4.57 4.57 0 0 1-1.3-2.94 4.24 4.24 0 0 1 .3-1.76 4.5 4.5 0 0 1 1.3-1.8c.26-.2.53-.4.82-.56Z" fill="#D78710"/><path d="m13.1 9.19-.05.16-.03.16a4 4 0 0 1-2.37 2.6 3.98 3.98 0 0 1-1.68.3 4.28 4.28 0 0 1-2.74-1.04 3.83 3.83 0 0 1-1.26-2.32c-.04-.36-.03-.71.02-1.06a3.75 3.75 0 0 1 1.19-2.1 4.07 4.07 0 0 1 1.69-.94 4.45 4.45 0 0 1 2.93.21 4 4 0 0 1 2.1 2.17c.23.6.29 1.22.2 1.86Z" fill="#392504"/><path d="M13.1 8.6c0 .5-.1.98-.3 1.44a4.06 4.06 0 0 1-2.2 2.04 4.3 4.3 0 0 1-4.43-.82A3.73 3.73 0 0 1 4.98 8.6a3.73 3.73 0 0 1 1.19-2.67 4.3 4.3 0 0 1 5.74 0 3.73 3.73 0 0 1 1.2 2.67Z" fill="#D78710"/><path d="M9.89 5.04a.16.16 0 0 1-.12.03 3.63 3.63 0 0 0-.9-.02 7.9 7.9 0 0 0-.82.15 460.2 460.2 0 0 0-.9.33l-.5.29c-.28.17-.5.37-.63.62a.66.66 0 0 1-.12.11c-.05.04-.11.13-.19.27a6.94 6.94 0 0 0-.5 1.46.8.8 0 0 0-.03.27c0 .2.02.35.03.49 0 .06 0 .09-.04.08a3.43 3.43 0 0 1 .55-2.43c.3-.47.71-.85 1.2-1.15a4.05 4.05 0 0 1 2.97-.5Z" fill="#F4DB48"/><path d="M9.89 5.04c.4.08.8.22 1.15.42.06.09.14.18.23.27a5.48 5.48 0 0 1 .97 1.34 2.1 2.1 0 0 1 .18.52l.07.26.06.46v.51a.4.4 0 0 0-.24 0 2.74 2.74 0 0 0-.14-.44 7.81 7.81 0 0 0-.46-1.45.38.38 0 0 0-.05-.1.44.44 0 0 0-.21-.12 1.61 1.61 0 0 0-.22-.04.3.3 0 0 1-.12-.04 1.67 1.67 0 0 1-.24-.18c-.12-.1-.21-.16-.28-.2-.14-.06-.29-.11-.45-.14a1.84 1.84 0 0 1-.28-.1 29.37 29.37 0 0 1-.37-.1 1.47 1.47 0 0 0-.27-.02H9.2c-.23 0-.43.06-.6.18a.76.76 0 0 0-.12.1l-.07.07a.38.38 0 0 0-.06.07 1.4 1.4 0 0 0-.21-.01.4.4 0 0 0-.29.13 6.18 6.18 0 0 0-.22.22s-.02 0-.03-.02a.29.29 0 0 0-.1-.03c-.05-.01-.1 0-.13.06l-.14.25a87.39 87.39 0 0 0-.32.81 2.8 2.8 0 0 1-.47-.16A5.41 5.41 0 0 1 6 7.34c-.1-.06-.24-.12-.42-.19l.14-.33c.08-.14.14-.23.18-.27l.13-.11c.14-.25.35-.45.63-.62a9.96 9.96 0 0 1 .79-.41 400.66 400.66 0 0 1 .61-.21l.22-.06a3.63 3.63 0 0 1 1.5-.06c.04 0 .08-.01.12-.04Z" fill="#F0CA29"/><path d="M11.04 5.46a3.8 3.8 0 0 1 1.53 1.52 3.44 3.44 0 0 1-.72 4.18 3.88 3.88 0 0 1-1.92 1 4.19 4.19 0 0 1-3.9-1.25c.11.05.2.1.25.14a5.2 5.2 0 0 0 .86.52 1.58 1.58 0 0 1 .23.1 2.06 2.06 0 0 0 .61.2l.47.07c.17.03.34.04.52.04.02 0 .03 0 .05.02l.12.1c.05.05.08.04.12 0l.08-.12a.1.1 0 0 1 .06-.05c.4-.08.73-.17.95-.25.34-.12.66-.32.95-.6.18-.16.35-.35.53-.54a1.6 1.6 0 0 0 .3-.47l.07-.16a7.85 7.85 0 0 1 .22-.6l.04-.14c.04-.11.07-.23.08-.35a5.16 5.16 0 0 0-.2-1.49 2.1 2.1 0 0 0-.23-.5 6.17 6.17 0 0 0-.84-1.1c-.1-.09-.17-.18-.23-.27Z" fill="#F4DB48"/><path d="M5.39 5.67c.14.2.33.34.57.42A3.75 3.75 0 0 0 5 7.99a.81.81 0 0 1-.37-.03c-.11-.05-.19-.14-.22-.28a2.07 2.07 0 0 1-.05-.2l.05-.16a.66.66 0 0 1 .04-.15L4.52 7a18.58 18.58 0 0 1 .32-.61l.14-.2a2.16 2.16 0 0 1 .41-.52Z" fill="#DFAC1D"/><path d="m12.3 8.82.04.12c0 .05 0 .08-.02.1l-.06.07a5.05 5.05 0 0 1-2.63 2.19l-.29.12h-.09a.37.37 0 0 1-.09-.03c-.03-.02-.04-.04-.03-.06.05.02.1.01.15-.02a12.98 12.98 0 0 0 2.58-1.87 5.56 5.56 0 0 0 .37-.42v-.07l-.18-.75a19.69 19.69 0 0 0-.4-1.28.4.4 0 0 0-.17-.12.8.8 0 0 0-.2-.07 1.48 1.48 0 0 0-.14-.02.18.18 0 0 1-.1-.05c-.17-.15-.4-.3-.67-.42a.84.84 0 0 0-.27-.08 6.38 6.38 0 0 0-.2-.07A1.4 1.4 0 0 0 9.62 6a5.42 5.42 0 0 0-.36-.05.7.7 0 0 0-.24 0l-.25.08a.7.7 0 0 0-.3.28H8.35a.38.38 0 0 1 .06-.07 1 1 0 0 0 .07-.06c.05-.05.09-.1.12-.11.17-.12.37-.18.6-.19h.02l.02.01a1.47 1.47 0 0 1 .44.07l.18.06.28.09c.16.03.31.08.45.15.07.03.16.1.28.2a3.09 3.09 0 0 0 .24.17.3.3 0 0 0 .12.04c.09 0 .16.02.22.04.08.02.15.06.2.13.03.02.05.05.06.08l.02.04.05.09a7.78 7.78 0 0 1 .4 1.33c0 .04 0 .07.02.09.04.11.08.23.1.35Z" fill="#F4DB48"/><path d="m9.13 11.33-.4-.26H8.7a.25.25 0 0 1-.14.06 3.18 3.18 0 0 1-.55 0 .26.26 0 0 1-.1-.07 42.1 42.1 0 0 0-.54-.54c-.02-.03-.03-.06-.03-.11v-.04c0-.03 0-.05-.04-.06l-1.12-.53a2.2 2.2 0 0 0-.35-.11l-.06-.02h-.01v-.02a3.36 3.36 0 0 0 .33-.32 4.66 4.66 0 0 0 .82-1.59l.09-.2.23-.6c.04-.1.09-.18.14-.26.03-.05.08-.07.14-.06l.09.03.03.02h.02l.2-.22a.4.4 0 0 1 .29-.13 1.4 1.4 0 0 1 .31.02l.02-.01a.7.7 0 0 1 .3-.28l.25-.08a.7.7 0 0 1 .24 0l.36.05a1.4 1.4 0 0 1 .38.13c.02.02.05.02.1.03.09 0 .18.03.27.08.28.13.5.27.67.42.03.03.07.05.1.05l.15.02a.8.8 0 0 1 .2.07.4.4 0 0 1 .15.12c.04.05.07.12.1.21a19.59 19.59 0 0 1 .5 1.89 14.37 14.37 0 0 1-1.6 1.45c-.37.26-.82.54-1.36.84a.18.18 0 0 1-.15.02Z" fill="#3C0300"/><path d="M9.72 6.15c-.14 0-.28 0-.43-.02-.08-.01-.15 0-.21.02a1.13 1.13 0 0 0-.18.1l-.12.08a.14.14 0 0 0-.1-.09c-.01 0-.02 0-.02-.02V6.2l.18-.1a.27.27 0 0 1 .11-.03h.11a.72.72 0 0 1 .26 0c.16.02.3.05.4.09Z" fill="#852703"/><path d="M9.72 6.15a.1.1 0 0 1 .06.01v.02c-.14.03-.26.07-.39.12a.78.78 0 0 1-.11.02l-.02.01-.03.04a.19.19 0 0 1-.06.04 2.42 2.42 0 0 0-.27.17l-.12-.14c-.02-.02-.03-.03-.02-.04l.02-.07.12-.08.18-.1a.44.44 0 0 1 .2-.02l.44.02Z" fill="#AA4208"/><path d="M10.8 6.71a1.13 1.13 0 0 0-.47-.2 12.9 12.9 0 0 1-.34-.06.38.38 0 0 0-.18-.04c-.06 0-.1.02-.1.05-.11.01-.22.04-.33.08a.28.28 0 0 0 .05-.13l.02-.02a.35.35 0 0 0 .08-.04 10.47 10.47 0 0 1 .31-.08c.05 0 .09 0 .14-.02h.08a1.87 1.87 0 0 1 .47.2 10.14 10.14 0 0 1 .38.25c-.05.02-.08.03-.1.01Z" fill="#852703"/><path d="m9.29 6.9-.04.13-.02.01a2.55 2.55 0 0 1-.38.03.7.7 0 0 1-.11 0l-.17.03a2.8 2.8 0 0 1-.3.03c-.03.02-.04.03-.02.05h-.04l-.1-.14.02-.01c.06 0 .09-.03.08-.09a.26.26 0 0 0-.04-.12c-.03-.05-.07-.06-.1-.05h-.03a1.5 1.5 0 0 1-.03-.15c0-.02-.02-.04-.05-.05-.03-.02-.03-.04-.02-.07.02-.02.03-.03.06-.02.02 0 .03.01.03.02v.04l.01.08c.09.1.16.2.22.31l.03.04h.03l.02-.02V6.9c0-.04 0-.06.02-.08h.03l.08.09h.03c.02 0 .02 0 .03-.02v-.03a.1.1 0 0 0 0-.03c-.02-.06-.02-.11 0-.14.02-.07.05-.14.1-.22.01-.03 0-.07-.03-.1l-.01-.02c0-.04.03-.06.08-.05.03 0 .04.03.03.06l-.02.07.01.02c.12.1.2.24.24.4 0 .02 0 .03.02.03h.04l.03-.03.01-.03v-.04c.02-.04.04-.04.07 0l.04.08.02.01c.02 0 .03 0 .03-.02 0-.1.03-.21.1-.3l.01-.01h.01l.04.07v.02l-.02.01a.1.1 0 0 0-.09.06c-.03.08-.02.15.05.2Z" fill="#F0CA29"/><path d="M9.31 6.38c.03 0 .04.02.04.06 0 .04 0 .06-.02.07l-.03-.06c-.02-.04-.01-.07.01-.07Z" fill="#F4DB48"/><path d="M8.4 6.43c-.05.12-.08.23-.1.34 0 .07-.03.07-.06.01a.92.92 0 0 0-.13-.15c-.02-.02-.02-.04-.02-.06 0-.02 0-.05.02-.07a.8.8 0 0 1 .29-.07Z" fill="#AA4208"/><path d="M9.03 6.69c-.02 0-.03.02-.03.04l-.02.01h-.02l-.03-.11V6.6l.26-.14h.02l.01.01c0 .02 0 .03-.03.05v.02l-.03.15-.02.01h-.03a.13.13 0 0 0-.08 0Z" fill="#852703"/><path d="M9.7 6.46a2.8 2.8 0 0 0-.15.35L9.43 7c-.02.03-.03.02-.02 0a.66.66 0 0 0-.03-.46c.11-.04.22-.07.33-.08ZM10.8 6.71a15.74 15.74 0 0 0-.27.08l-.13.06v.05a.3.3 0 0 0 .14.03c.15 0 .28 0 .4.03.12.02.25.07.39.15l.1.1v.01h-.02c-.2-.02-.38 0-.57.05a2.97 2.97 0 0 0-.53.22 5.13 5.13 0 0 1-.1.08l.01.01.16-.1.17-.08c.07-.04.13-.06.18-.07l.17-.05.18-.02h.29c.06 0 .11.03.16.07.01 0 .02 0 .02.02.01.04.03.08.07.1l.02.01c.03 0 .06 0 .09.02l.25.86c0 .02 0 .02-.02 0a1.57 1.57 0 0 0-.27-.23 1.49 1.49 0 0 0-.38-.17 2.28 2.28 0 0 0-1.14-.05l-.04.02s0 .01 0 0c.2-.04.4-.05.62-.04.12 0 .26.03.42.06.32.07.59.23.79.47l.07.14c0 .03 0 .03-.02 0a2 2 0 0 0-.57-.38c-.3-.11-.63-.19-1-.2a1.37 1.37 0 0 0-.36.02c0 .01 0 .02.01.01h.2a1.72 1.72 0 0 1 .53.04c.25.03.5.11.75.24.19.1.35.22.48.37l.02.05.08.31a.25.25 0 0 0-.14-.05.16.16 0 0 0-.11.05 7.52 7.52 0 0 0-.44.38 1.62 1.62 0 0 0-.17-.27c-.27-.3-.61-.5-1.02-.62-.1-.02-.2-.04-.3-.04h-.02a3.62 3.62 0 0 1 .16-.6 12.47 12.47 0 0 1 .12-.37.46.46 0 0 0 .1-.13.64.64 0 0 0 .03-.48.76.76 0 0 0-.3-.39l.27.04c.15.02.3.08.47.19Z" fill="#AA4208"/><path d="m10.03 6.58.06.16-.04.19c-.03.1-.1.17-.19.22a.73.73 0 0 1-.2.06c-.05 0-.05.01 0 .02h.2c.06 0 .12-.04.16-.08 0-.01 0 0 0 0 .04.05.05.1.03.16H10v.02l.07.15v.02h.03c-.13.38-.22.7-.26.92a6 6 0 0 0 .09 1.48l-.23.17-.5.27a1 1 0 0 0-.21.15c-.03.02-.03.02-.03-.01a6.72 6.72 0 0 0 0-.1h-.04c-.03.07-.06.13-.1.18l-.12.23a3.48 3.48 0 0 1-.1.17.74.74 0 0 1-.1.05 1.78 1.78 0 0 1-.46 0 1.3 1.3 0 0 1-.14-.15 4.45 4.45 0 0 0-.37-.38c.17.04.33.12.47.24h.02c.16-.2.37-.32.64-.38l.25-.05a.61.61 0 0 0 .2-.06.72.72 0 0 0 .29-.3l.07-.12a.3.3 0 0 1-.11.23.05.05 0 0 0-.02.04v.01l.01.02h.02l.27-.2a.26.26 0 0 0 .12-.24v-.13l-.01-.13v-.17a.3.3 0 0 0-.07-.28v-.02a.2.2 0 0 1 0-.08c0-.2.01-.38.05-.52a18.59 18.59 0 0 1 .18-.68.3.3 0 0 0 0-.16.25.25 0 0 0-.1-.14 1.28 1.28 0 0 0-.32-.13v-.02h-.01a.46.46 0 0 0-.1-.02c-.03 0-.04 0-.01-.03.2-.18.35-.4.42-.66 0-.01.01-.02.03-.02.09.02.16.05.21.1Z" fill="#D78710"/><path d="M7.95 6.63a.16.16 0 0 0-.09.05.42.42 0 0 0-.07.13H7.7c-.01 0-.02 0-.02-.02.03-.1.08-.18.15-.26l.02.01c0 .05.03.08.09.09Z" fill="#852703"/><path d="M10.03 6.58c.16.13.24.3.25.47 0 .08-.02.15-.05.23-.04.08-.08.15-.13.21h-.02l-.01-.01a.58.58 0 0 0-.07-.15V7.3h.05l.02.02h.02l.02-.11.04-.15a.28.28 0 0 0-.01-.2.35.35 0 0 0-.05-.13.47.47 0 0 1-.06-.16Z" fill="#F3A435"/><path d="M8.85 6.75c0 .04-.01.07-.04.1a.15.15 0 0 1-.1.04.15.15 0 0 1-.12-.04.13.13 0 0 1-.04-.1c0-.04.01-.07.04-.1a.15.15 0 0 1 .11-.04c.04 0 .08.01.1.04.04.03.05.06.05.1Z" fill="#0E0903"/><path d="m7.95 6.63.1.42a.6.6 0 0 0 .12.2v.03a.87.87 0 0 1-.18-.3.29.29 0 0 0-.04-.08.36.36 0 0 0-.07-.07.15.15 0 0 0-.1-.02.42.42 0 0 1 .08-.13.16.16 0 0 1 .09-.05Z" fill="#AA4208"/><path d="M8.77 6.72h-.05c-.03-.02-.04-.04-.04-.06.03-.02.06 0 .09.06Z" fill="#F4DB48"/><path d="M8.68 6.66c0 .02.01.04.04.06h.05c.02.03.02.06 0 .09h-.02c-.01.01-.04.01-.07 0-.03 0-.05 0-.06-.03a.09.09 0 0 1 0-.07c0-.02.03-.04.06-.05Z" fill="#AA4208"/><path d="M7.24 7.5a.43.43 0 0 0-.09.17v.02a.3.3 0 0 0-.05.09l-.01.03a25.98 25.98 0 0 1-.04.12l.02.01c.15-.02.29 0 .42.08a.07.07 0 0 0-.02.04h-.44c-.03 0-.05.02-.06.04a22.4 22.4 0 0 1-.26.76h.01l.2-.1a9.2 9.2 0 0 1 .6-.19l.31-.04c.01 0 .02 0 .02.02l-.01.01c-.08 0-.19.02-.33.05l-.14.03a1.2 1.2 0 0 0-.23.07.98.98 0 0 0-.17.07l-.08.04a.64.64 0 0 0-.17.1l-.01.01a.65.65 0 0 0 0 .27l.01.16.02.16c.01.06.03.1.07.13.04.05.1.08.17.08a2.13 2.13 0 0 0-.23.15c-.02.02-.05.02-.08 0a3.95 3.95 0 0 0-.72-.27c.17-.2.29-.34.36-.4a.19.19 0 0 0 .06-.1c0-.02.02-.04.05-.08a7.39 7.39 0 0 0 .86-1.96c.03-.07.08-.2.17-.37.01-.03.04-.03.08-.02l.04.02c.03.01.03.03.01.06-.02.03-.02.06-.02.1v.03a.81.81 0 0 0-.24.27.6.6 0 0 0-.08.34Z" fill="#852703"/><path d="M9.31 6.73c.01.03.03.05.05.03 0 .03 0 .06-.02.09h-.02c-.04-.03-.05-.08 0-.12Z" fill="#AA4208"/><path d="M10.09 6.74c.03.05.04.1.05.14l-.06.18v.03l.03.13-.02.1c0 .01 0 .02-.02.01a.03.03 0 0 1-.02-.02.22.22 0 0 0-.02-.16h-.01a.25.25 0 0 1-.16.08.87.87 0 0 1-.2 0c-.05-.01-.05-.02 0-.02a.73.73 0 0 0 .2-.06c.1-.05.16-.12.19-.22l.04-.2Z" fill="#3C0300"/><path d="M11.73 7.48a.19.19 0 0 0-.09-.02h-.02a.21.21 0 0 1-.07-.11c0-.01 0-.02-.02-.02a.32.32 0 0 0-.16-.07 2.6 2.6 0 0 0-.47.02c-.05.02-.1.04-.17.05l-.18.07-.17.08a1.3 1.3 0 0 1-.17.1v-.02a5.36 5.36 0 0 0 .21-.13c.18-.08.32-.14.42-.16.19-.05.38-.07.57-.04h.01V7.2a.32.32 0 0 0-.1-.1 1.26 1.26 0 0 0-.38-.15 1.97 1.97 0 0 0-.4-.03.3.3 0 0 1-.13-.03c-.02 0-.02-.03 0-.05l.01.02.23-.07.25-.02c.1 0 .18 0 .25.02.12.02.24.07.35.13.03.01.05.03.06.05l.03.07.01.02.13.41Z" fill="#852703"/><path d="M10.14 6.88c.02.06.03.12.01.2l-.04.14-.03-.13v-.03l.06-.18ZM7.8 6.9c-.2.15-.21.3-.05.46l.1.06-.08.03h-.03a.3.3 0 0 1-.16-.33c0-.05 0-.05-.04 0-.02.03-.02.1 0 .2l-.02.02a.27.27 0 0 0-.04.06.12.12 0 0 0 0 .1h.02c0-.04.02-.08.04-.11h.02l.09.09v.01l-.22.1h-.01a.28.28 0 0 1-.07-.14c0-.05 0-.1.03-.17.07-.2.21-.32.42-.39Z" fill="#D78710"/><path d="M7.86 7.42a.72.72 0 0 1-.1-.06c-.17-.15-.16-.3.04-.47.04.02.06.03.07.05l.1.21c.03.08.07.14.13.18.02.01.02.02 0 .03l-.24.06Z" fill="#F3A435"/><path d="m9.29 6.9.05.02v.02l-.04.13a7.92 7.92 0 0 0-1.05.12c-.02-.03-.01-.04.02-.06h.04a2.8 2.8 0 0 0 .43-.05l.11-.01a2.55 2.55 0 0 0 .4-.04l.04-.12Z" fill="#F4DB48"/><path d="M6.9 7.72a13.97 13.97 0 0 0-.36.87 4.66 4.66 0 0 1-.6.89 3.36 3.36 0 0 1-.18.16v.01l.07.02a2.08 2.08 0 0 0 .52.28 7.08 7.08 0 0 1 .52.25 3.9 3.9 0 0 1 .31.13l.06.06.02.08c0 .04.02.07.03.09l.1.1a7.76 7.76 0 0 0 .48.47c.05.04.1.06.19.08a1 1 0 0 0 .55-.02.14.14 0 0 1 .11.01c.1.05.18.1.25.16a.6.6 0 0 0 .08.05c.07.04.1.03.11-.02l.09.03h.09c.07-.02.17-.06.29-.13a3 3 0 0 1 .11-.06l.22-.12.26-.17a5.05 5.05 0 0 0 1.17-1 1.8 1.8 0 0 1 .17-.16l.05-.05a11.64 11.64 0 0 0 .7-.68.16.16 0 0 0 .02-.1l-.02-.13a.4.4 0 0 1 .23 0c-.01.12-.04.24-.08.35l-.05.15-.06.2a7.84 7.84 0 0 0-.22.55l-.04.08a1.6 1.6 0 0 1-.26.39l-.53.55c-.3.27-.6.47-.95.6-.23.07-.54.16-.95.24a.1.1 0 0 0-.06.05l-.08.12c-.04.04-.08.05-.12 0l-.12-.1a.07.07 0 0 0-.05-.02c-.18 0-.35 0-.53-.04l-.46-.07a2.05 2.05 0 0 1-.7-.24 2 2 0 0 1-.54-.25 5.2 5.2 0 0 1-.46-.33 1.1 1.1 0 0 0-.26-.14 3.63 3.63 0 0 1-.85-1.79c.03 0 .05-.02.04-.08-.02-.14-.02-.3-.03-.5 0-.1.01-.19.04-.26a1.16 1.16 0 0 0 .07-.32l.04-.16c.07-.22.15-.43.24-.65.18.07.32.13.42.19.18.1.33.17.45.22.15.07.3.12.47.16Z" fill="#DFAC1D"/><path d="m9.2 7.23-.29.04-.01-.1.34-.03c.02 0 .03 0 .02.02l-.01.04c-.01.02-.03.03-.05.03ZM8.26 7.24l.38-.06c.01 0 .02 0 .03.02l.04.06c0 .01 0 .02-.02.03l-.38.02H8.3l-.05-.07Z" fill="#F0CA29"/><path d="M9.47 7.23c.16.04.28.09.35.13.04.03.07.08.1.14a.3.3 0 0 1 0 .16 7.56 7.56 0 0 1-.2.68c-.03.14-.05.31-.05.52l.02.08v.01h-.01c-.19-.02-.33.04-.42.19v.02h.01A.47.47 0 0 1 9.52 9c.06-.02.1-.01.14.02.02 0 .03.04.05.1 0 .04.02.07.04.11a.55.55 0 0 0 0 .17v.26c.01.1-.03.19-.11.25a23.01 23.01 0 0 0-.29.19l-.01-.02c0-.03 0-.04.02-.05a.3.3 0 0 0 .1-.23c.08-.2.12-.4.12-.6 0-.04 0-.04.04-.01a.6.6 0 0 1 .04.06h.02v-.01c-.04-.09-.09-.13-.15-.14a.22.22 0 0 0-.2.1l.01.02h.01c.03-.05.08-.07.15-.07l.02.01c0 .12 0 .23-.03.34a1.2 1.2 0 0 0-.11.25.49.49 0 0 1-.22.26l-.21.11a4.02 4.02 0 0 0-.45.17 9.5 9.5 0 0 0-.48.33l-.1-.34c.18 0 .33-.05.46-.16a8.65 8.65 0 0 0 .3-.26l.05-.1c.1-.1.18-.2.26-.3l.15-.28c.05-.13.05-.23.02-.3-.02-.03-.06-.05-.11-.07a.81.81 0 0 0-.33-.04c-.23.02-.48.06-.76.12a9.75 9.75 0 0 1 .25-.17.35.35 0 0 0 .08-.06l.07.05c.04.01.09.01.13-.01a.21.21 0 0 0 .1-.1.19.19 0 0 0 .01-.12.17.17 0 0 0-.05-.1.22.22 0 0 0-.11-.04l-.13.01a.18.18 0 0 0-.1.11.7.7 0 0 1-.15-.16 81.43 81.43 0 0 1-.3-.54.15.15 0 0 1-.01-.08l.01-.02.15-.1c.01 0 .03-.02.05-.06.24-.08.49-.13.74-.15.22 0 .4-.03.51-.05a.3.3 0 0 0 .1-.06l.03-.01h.13Z" fill="#F3A435"/><path d="M4.35 7.48c0 .05.02.11.05.2.03.14.1.23.22.28.08.04.2.05.37.03-.05.35-.06.7-.02 1.06a.24.24 0 0 0-.07.19 13.27 13.27 0 0 0 .08.44l.15.32c.05.1.11.16.2.2A3.83 3.83 0 0 0 7.22 12a4.28 4.28 0 0 0 3.42.09 1.14 1.14 0 0 0-.16.5c0 .06-.02.12-.05.16a.35.35 0 0 1-.13.11l-.3.15c-.05.03-.13.08-.22.17-.3.04-.59.06-.88.05a9.58 9.58 0 0 0-1.34-.36 3.79 3.79 0 0 1-.41-.15 3.77 3.77 0 0 1-1.13-.63 34.85 34.85 0 0 1-.62-.65 120.1 120.1 0 0 0-.47-.6 9.03 9.03 0 0 1-.3-.53l-.07-.16a3.23 3.23 0 0 0-.14-.4.63.63 0 0 1-.05-.2.3.3 0 0 0-.02-.11 5.09 5.09 0 0 1-.15-.88 2.42 2.42 0 0 1 .09-.94l.05-.15Z" fill="#DBA51D"/><path d="M7.24 7.5c.02.08.07.15.12.18l.01.01.17.33v.01l-.04-.01a.75.75 0 0 0-.43-.08h-.02V7.9a25.32 25.32 0 0 0 .19-.41Z" fill="#AA4208"/><path d="M7.97 7.5a.24.24 0 0 1-.06.08 5.02 5.02 0 0 0-.16.1v.1l.1.2.21.33a.7.7 0 0 0 .14.16c0 .07.03.14.1.2a.35.35 0 0 1-.1.06 9.8 9.8 0 0 0-.24.18 4.4 4.4 0 0 0-.61.14 8.07 8.07 0 0 1 .82-.4v-.01l-.02-.02a2.01 2.01 0 0 1-.4-.45 6.1 6.1 0 0 1-.26-.5c.15-.07.31-.12.48-.16Z" fill="#D78710"/><path d="m8.93 7.75-.01.01-.05.25c0 .02 0 .02-.02.01L8.83 8a.88.88 0 0 1-.03-.32c0-.05.03-.08.07-.09a.27.27 0 0 1 .24.04c.14.09.27.2.38.32.04.04.05.09.03.14l-.03.06c-.02.06-.06.06-.1.02a4.2 4.2 0 0 0-.3-.32.44.44 0 0 0-.16-.1ZM8.68 7.63h-.02v.01l.1.46h.03l-.1-.46s0-.01 0 0ZM8.6 7.9h-.02a8.99 8.99 0 0 1 .08.38c0 .01 0 .03-.02.03H8.6l-.34-.1c-.03 0-.1-.02-.18-.06a.24.24 0 0 1-.1-.08v-.03c0-.01 0-.02.02-.02.11-.03.28-.02.5.03l.01-.02a4.87 4.87 0 0 0 0-.13l.04-.02.02-.01.01-.02c0-.03.02-.03.03 0 .06.11.11.23.15.35 0 .01 0 .02-.01.01h-.01L8.6 7.9Z" fill="#3C0300"/><path d="M7.47 8.06c.07.02.12.04.13.06a12.14 12.14 0 0 1 .25.32 1.75 1.75 0 0 0 .23.2c-.08.04-.18.07-.28.1a3 3 0 0 0-.51.22c-.1.05-.16.11-.19.18a.55.55 0 0 0-.04.38l.05.17v.02l-.04.01-.08.01a.3.3 0 0 1-.18-.08.22.22 0 0 1-.07-.13 2.23 2.23 0 0 1-.03-.32.65.65 0 0 1 0-.27l.01-.02a.64.64 0 0 1 .17-.1l.08-.03.17-.07a3.3 3.3 0 0 0 .23-.07l.14-.03c.14-.03.26-.05.33-.05v-.03a9.21 9.21 0 0 0-.92.23 4.09 4.09 0 0 1-.21.09l.08-.27a572.79 572.79 0 0 0 .24-.52h.44Z" fill="#AA4208"/><path d="M8.95 8.38a.2.2 0 0 0 .1.26c.11.04.23-.01.28-.12a.2.2 0 0 0-.1-.26.22.22 0 0 0-.28.12ZM8.3 8.67c-.07-.06-.1-.13-.1-.2a.18.18 0 0 1 .1-.1.26.26 0 0 1 .14-.02c.04 0 .08.02.1.05.04.02.06.05.06.1.01.03 0 .07-.02.11a.21.21 0 0 1-.09.1.15.15 0 0 1-.13 0 .23.23 0 0 1-.07-.04Z" fill="#3C0300"/><path d="M11.41 9.36a.1.1 0 0 1-.04.08l-.6.47a1.4 1.4 0 0 0-.53-.5.27.27 0 0 0-.07-.04 1 1 0 0 1-.17-.06h-.04l-.02-.02a4.05 4.05 0 0 1 0-.79c0-.02.01-.03.04-.03.1 0 .21.03.32.06.27.07.5.2.72.36.17.13.3.28.4.47Z" fill="#AA4208"/><path d="m7.93 9.9.09.08V10l-.33.03a.76.76 0 0 1-.2-.04l-.01-.02v-.04c.04-.1 0-.19-.08-.25a.58.58 0 0 0-.17-.05l-.02-.01c-.08-.27-.08-.41.02-.44A13.7 13.7 0 0 1 8.8 8.9l.27.02.02.01v.12c-.06.19-.17.36-.32.51h-.01a.3.3 0 0 0-.17-.16.62.62 0 0 0-.23-.03c-.17 0-.3.08-.42.2a.26.26 0 0 0-.05.22c0 .05.02.09.04.11Z" fill="#744E35"/><path d="M9.68 8.96c.07.08.1.17.07.28a.66.66 0 0 1-.04-.11c-.02-.06-.03-.1-.05-.1-.03-.03-.08-.04-.14-.02a.47.47 0 0 0-.25.15l-.01-.01v-.01c.1-.15.23-.21.42-.18Z" fill="#0E0903"/><path d="m12.15 9-.61.56h-.02l-.06-.18.17-.15A3.94 3.94 0 0 0 11.9 9a.16.16 0 0 1 .1-.05c.05 0 .1.02.15.05Z" fill="#852703"/><path d="M4.97 9.05c.06.39.17.77.35 1.15a.43.43 0 0 1-.2-.2c-.05-.1-.1-.2-.14-.32a13.35 13.35 0 0 1-.08-.44c0-.07.02-.13.07-.2Z" fill="#D78710"/><path d="M13.77 9.76a10.47 10.47 0 0 1-.88 1.58 4.56 4.56 0 0 1-.9.79 8.47 8.47 0 0 1-1.64.9l-.02.02v.03a5.3 5.3 0 0 1-.54.1l.23-.16.29-.15c.06-.03.1-.07.13-.1.03-.05.05-.1.05-.17l.02-.14c0-.09.06-.2.14-.36a4 4 0 0 0 2.37-2.6l.03-.15.04-.16c.21.13.45.22.7.28v.01l-.02.28Z" fill="#E8B711"/><path d="m10.58 10.02-.01.03-.02.02a2.65 2.65 0 0 0-.3.23 7.67 7.67 0 0 0-.52.34.91.91 0 0 0-.08.05h-.02v-.22c0-.05.01-.09.04-.1.12-.09.22-.18.3-.29.04-.05.06-.1.05-.16l-.07-.56v-.01h.02c.13.05.25.12.35.21.13.13.22.28.26.46Z" fill="#AA4208"/><path d="m10.77 9.9.6-.46a.1.1 0 0 0 .04-.08l.1.21c0 .02 0 .03-.02.04l-.62.52h-.02l-.08-.22ZM10.59 9.93a.89.89 0 0 0-.3-.43 8.04 8.04 0 0 0-.12-.1h.01c.09.04.17.1.26.17.19.16.32.35.38.57l-.01.02-.16.14h-.02v-.19c0-.05-.02-.1-.04-.18Z" fill="#852703"/><path d="M9.49 9.51a.8.8 0 0 1-.03.15c-.04.12-.1.23-.19.35a.49.49 0 0 1-.18.16l-.24.06c-.15.03-.29.07-.43.12a9.5 9.5 0 0 1 .17-.1l.36-.12.21-.11c.11-.07.18-.15.22-.26.04-.1.07-.19.11-.25Z" fill="#D78710"/><path d="M13.9 9.77a.6.6 0 0 1-.04.11.8.8 0 0 0-.04.11l-.04.12a.28.28 0 0 0-.02.12v.16l-.01.15-.01.47a.68.68 0 0 1-.12.21v-.8a4.34 4.34 0 0 0 .28-.82v.17Z" fill="#F4DB48"/><path d="M7.82 13.16c.02.05.03.1.02.15l-.03.13-.02.36a5.08 5.08 0 0 1-3.59-3.03 6.93 6.93 0 0 0-.07-1.1l.08.31c.3.85.79 1.57 1.5 2.16.6.5 1.31.84 2.11 1.02Z" fill="#DBA51D"/><path d="M9.13 11.33c0 .02 0 .04.03.06 0 .05-.04.06-.1.02a.6.6 0 0 1-.09-.05 1.52 1.52 0 0 0-.25-.16.14.14 0 0 0-.1 0 1 1 0 0 1-.56.01.46.46 0 0 1-.19-.08 1.56 1.56 0 0 1-.13-.13 7.78 7.78 0 0 1-.45-.44.25.25 0 0 1-.03-.1.27.27 0 0 0-.02-.07.15.15 0 0 0-.06-.06 2.08 2.08 0 0 1-1.36-.67c.16.05.28.08.36.12l1.12.53c.03 0 .04.03.04.06v.04c0 .05.01.08.03.1l.1.1.1.1.34.35c.03.04.07.06.1.07l.13.02c.12 0 .26 0 .42-.02.05-.01.1-.03.14-.06h.02l.41.26Z" fill="#D78710"/><path d="M6.89 9.94h.02a.94.94 0 0 0 .19-.18l.02-.01h.03c.03.05.08.11.12.2l.04.11a4.45 4.45 0 0 1-.01.13.56.56 0 0 1-.08-.04l-.24-.13-.1-.05a.37.37 0 0 0-.1-.04l-.01-.02v-.02l.25-.14h.02l.01.02v.01a.59.59 0 0 0-.17.14v.02Z" fill="#852703"/><path d="M13.8 9.75a4.41 4.41 0 0 1-1.6 2.41 5 5 0 0 1-1.87.92v-.03l.01-.01a5.47 5.47 0 0 0 .6-.29c.1-.05.18-.1.23-.11a8.48 8.48 0 0 0 1.1-.71 5.77 5.77 0 0 0 .62-.59l.09-.13.09-.13a27.24 27.24 0 0 1 .41-.73c.13-.25.22-.45.28-.6h.05Z" fill="#F4DB48"/><path d="m8.73 9.76-.06.1a8.79 8.79 0 0 1-.3.27.72.72 0 0 1-.45.16l-.02-.15.02-.02c.1-.01.23-.04.36-.08a.76.76 0 0 0 .21-.1l.24-.18ZM13.9 9.77v.86l-.03.12-.07.16a.4.4 0 0 1-.06.1 21.01 21.01 0 0 0 .02-.78c0-.04 0-.08.02-.12l.04-.12.04-.1a.6.6 0 0 0 .04-.12Z" fill="#D78710"/><path d="m10.58 10.02.01.3v.01l-.05.04a13.74 13.74 0 0 1-1.03.67V11a.47.47 0 0 0 .09-.23v-.01h-.02a2.63 2.63 0 0 0-.14.33l-.24.15h-.02l-.4-.28-.01-.01.1-.22a.2.2 0 0 1 .06-.08c.12-.08.34-.22.66-.4.16-.08.3-.2.43-.33 0 .05 0 .1-.05.16-.08.11-.18.2-.3.28-.03.02-.04.06-.04.1a9.96 9.96 0 0 0 .02.23.93.93 0 0 1 .08-.05l.12-.06a7.67 7.67 0 0 1 .54-.39 2.65 2.65 0 0 1 .18-.14v-.03Z" fill="#852703"/><path d="M7.88 10.28h-.15c-.05-.01-.06 0-.02.04.06.05.1.13.13.22-.12-.06-.24-.1-.37-.11l-.01-.01-.03-.32c0-.02.01-.03.03-.01l.13.04a7.7 7.7 0 0 0 .29.01v.14Z" fill="#D78710"/><path d="M7.88 10.28c.01.12.04.22.08.32.01.03 0 .03-.02.01l-.1-.07a.5.5 0 0 0-.13-.22c-.04-.04-.03-.05.02-.04h.15Z" fill="#F3A435"/><path d="m13.62 11.22-.16.27a14.36 14.36 0 0 1 .01-.76l.16-.31v.8Z" fill="#D78710"/><path d="M9.54 10.72a1.3 1.3 0 0 1-.38.1c-.05 0-.08 0-.1-.03a.04.04 0 0 1-.02-.03c0-.02.01-.03.03-.03l.5-.29c.02-.01.04 0 .03.02l-.01.2c0 .03-.02.05-.05.06Z" fill="#AA4208"/><path d="m13.47 11.5-.33.44.03-.72.3-.5c.02.06.02.11.01.17v.14c-.01.15-.02.3-.01.46Z" fill="#F0CA29"/><path d="m13.17 11.22-.03.72-.18.2.06-.73.15-.2Z" fill="#D78710"/><path d="m13.02 11.41-.05.73c-.2.23-.44.45-.7.65.02-.2.01-.41-.02-.61.28-.23.54-.48.77-.77Z" fill="#F0CA29"/><path d="M12.25 12.18c.03.2.04.4.02.61l-.15.1a2.8 2.8 0 0 1 .02-.62l.11-.1Z" fill="#D78710"/><path d="M12.14 12.27a2.8 2.8 0 0 0-.01.63c-.46.34-1 .6-1.61.8l.01-.63a5.63 5.63 0 0 0 1.61-.8Z" fill="#E8B711"/><path d="m10.53 13.07-.01.63-.17.05.01-.26.05-.38.12-.04Z" fill="#D78710"/><path d="m10.41 13.11-.05.38v.26c-.81.21-1.62.24-2.43.08l.04-.63a5.45 5.45 0 0 0 2.44-.09Z" fill="#DFAC1D"/><path d="m7.97 13.2-.04.63-.14-.03a9.62 9.62 0 0 1 .03-.64l.15.04Z" fill="#D78710"/></svg>