<!-- by TradingView --><svg width="18" height="18" viewBox="0 0 18 18" xmlns="http://www.w3.org/2000/svg"><path fill="url(#akkilvaci)" d="M0 0h18v18H0z"/><path d="M17 9A8 8 0 1 1 1 9a8 8 0 0 1 16 0Z" fill="url(#bkkilvaci)"/><path fill-rule="evenodd" d="M9 16.7a7.7 7.7 0 1 0 0-15.4A7.7 7.7 0 0 0 9 16.7Zm0 .3A8 8 0 1 0 9 1a8 8 0 0 0 0 16Z" fill="url(#ckkilvaci)"/><path d="M15.72 9A6.72 6.72 0 1 1 2.28 9a6.72 6.72 0 0 1 13.44 0Z" fill="url(#dkkilvaci)" fill-opacity=".4"/><path fill-rule="evenodd" d="M9 15.12A6.1 6.1 0 0 0 15.12 9 6.1 6.1 0 0 0 9 2.88 6.1 6.1 0 0 0 2.88 9 6.1 6.1 0 0 0 9 15.12Zm0 1.09A7.2 7.2 0 0 0 16.18 9c0-3.71-2.9-7.08-7.18-7.08A6.99 6.99 0 0 0 1.9 9 7.1 7.1 0 0 0 9 16.2Z" fill="url(#ekkilvaci)"/><path d="M5.67 12.76c.04.03.35.07.5.09a.69.69 0 0 0-.25-.4c0-.11-.03-.41-.03-.75s.08-.93.13-1.18c.2.53.64 1.6.69 1.72.05.12-.02.28-.07.35.1.08.57.06.8.04-.02-.18-.2-.25-.4-.39s-.53-1.1-.33-1.72c.16-.5.23-.9.25-1.03.24-.17.37-.52.4-.68.16-.08.41 0 .79.22.3.18.82.25 1.04.26-.11.38-.14.95-.13 1.19-.21.47-.24.64-.23.87 0 .23-.28.79-.2.94.06.12.04.22.02.25.25.13.51.11.61.09.03-.3-.21-.14-.3-.25-.08-.1-.02-.36 0-.65.04-.28.26-.31.33-.65.06-.27.18-.6.24-.74.11.4.04 1.1 0 1.4-.14.22.04.5 0 .7a.59.59 0 0 0 0 .32c.2.12.52.11.66.09 0-.26-.45-.25-.41-.4.03-.16.04-.34-.04-.6-.06-.23.08-.98.17-1.33.03 0 .11-.1.11-.37 0-.28.2-.8.31-1.03.35-.1.54-.43.58-.58 1.04-.03 1.17-1.67 1.18-1.8.01-.1.3-.33.57-.3.21.04.31-.03.34-.07-.23-.1-.45-.26-.07-.2.3.04.17-.14.07-.23.01-.22-.42-.27-.64-.26-.1-.15-.3-.18-.38-.17-.3-.1-.42.01-.45.09-.21-.12-.31-.09-.34-.05l.26.26c-.07.1-.12.43-.15.73-.02.3 0 .58-.27.78-.2.15-.41.03-.5-.05a.72.72 0 0 0-.5-.56c-.25-.08-.26-.16-.77-.77-.52-.61-.88-.19-1.1.08-.21.27-.2.46-.99.61-.62.12-1.05.48-1.19.64-.26.2-.45.9-.46 1.16-.01.27-.43.7-.38.89a.58.58 0 0 1-.05.38c.6-.17.48-.71.5-1.13.02-.34.27-.76.4-.94.07.2.02.64 0 .84-.16.42-.14.93-.1 1.13.02.1.01.34-.13.55-.19.25-.3.47-.23.78.07.25.07 1.03.07 1.39l.16.12c-.1.12-.1.26-.09.32Z" fill="#2C2315"/><defs><linearGradient id="akkilvaci" x1="3.35" y1="3.12" x2="21.9" y2="24.43" gradientUnits="userSpaceOnUse"><stop stop-color="#1A1E21"/><stop offset="1" stop-color="#06060A"/></linearGradient><linearGradient id="bkkilvaci" x1="9.59" y1="5.23" x2="5.36" y2="18.78" gradientUnits="userSpaceOnUse"><stop stop-color="#6E4626"/><stop offset="1" stop-color="#E9D686"/></linearGradient><linearGradient id="ckkilvaci" x1="3.36" y1="3.09" x2="14.61" y2="14.62" gradientUnits="userSpaceOnUse"><stop stop-color="#F7EF89"/><stop offset=".51" stop-color="#BB831D"/><stop offset="1" stop-color="#F6ED87"/></linearGradient><linearGradient id="dkkilvaci" x1="9" y1="2.28" x2="9" y2="17.56"><stop offset="1" stop-color="#D5B34D"/></linearGradient><linearGradient id="ekkilvaci" x1="4.27" y1="4.04" x2="13.72" y2="13.72" gradientUnits="userSpaceOnUse"><stop stop-color="#F7EF89"/><stop offset=".51" stop-color="#BB831D"/><stop offset="1" stop-color="#F6ED87"/></linearGradient></defs></svg>