<!-- by TradingView --><svg width="18" height="18" xmlns="http://www.w3.org/2000/svg"><path fill="url(#paint0_linear)" d="M0 0h18v18H0z"/><path d="M9.191 12c.783 0 1.235-.43 1.235-1 0-.529-.399-1-1.261-1H7.462v2h1.73zm-.345-4c.783 0 1.195-.43 1.195-1 0-.529-.425-1-1.195-1H7.462v2h1.384zM5 4h4.457c1.167 0 1.99.437 2.534 1.007.372.39.598.905.598 1.572v.028c0 1.127-.611 1.794-1.433 2.17 1.127.39 1.844 1.058 1.844 2.38v.027C13 12.854 11.7 14 9.483 14H5V4z" fill="#fff"/><defs><linearGradient id="paint0_linear" x1="1.446" y1="-.643" x2="15.268" y2="19.768" gradientUnits="userSpaceOnUse"><stop stop-color="#007CD0"/><stop offset="1" stop-color="#004EAE"/></linearGradient></defs></svg>