<!-- by TradingView --><svg width="18" height="18" viewBox="0 0 18 18" xmlns="http://www.w3.org/2000/svg"><path fill="#1C0961" d="M0 0h18v18H0z"/><path d="M11 8.55s.3-.27.3-.47a.31.31 0 0 0-.1-.22l-1.96-1.7a.36.36 0 0 0-.24-.1c-.1 0-.18.03-.24.1l-1.97 1.7a.31.31 0 0 0-.1.22c0 .2.31.47.31.47v3.96s-.3.27-.3.47c0 .08.03.16.1.22l1.96 1.7c.06.07.15.1.24.1.1 0 .18-.03.24-.1l1.97-1.7c.06-.06.1-.14.1-.22 0-.2-.31-.47-.31-.47V8.55Zm-1 3.74c0 .08-.04.16-.1.22l-.9.79-.9-.79a.31.31 0 0 1-.1-.22V8.78c0-.09.04-.17.1-.23l.9-.8.9.8c.06.06.1.14.1.23v3.5Z" fill="#FD62D5"/><path d="M12.9 5.57 11.28 3.8a.36.36 0 0 0-.24-.1c-.24 0-.28.05-.45.21a.36.36 0 0 1-.24.09h-2.7a.36.36 0 0 1-.24-.09c-.17-.16-.21-.2-.45-.2a.36.36 0 0 0-.24.09L5.1 5.57a.3.3 0 0 0-.1.21c0 .09.04.16.1.22l.55.56c.07.05.15.09.24.09.1 0 .18-.04.24-.1L7.5 5.1A.36.36 0 0 1 7.73 5h2.54c.09 0 .17.03.24.09l1.36 1.47c.06.05.15.09.24.09s.17-.04.24-.1L12.9 6a.3.3 0 0 0 .1-.22.3.3 0 0 0-.1-.21Z" fill="#FD62D5"/></svg>