<!-- by TradingView --><svg width="18" height="18" viewBox="0 0 18 18" xmlns="http://www.w3.org/2000/svg"><path fill="#F0F3FA" d="M0 0h18v18H0z"/><path fill-rule="evenodd" d="M8 3.17 7 4.2v6.18L9 12l2-1.62V7.62L9 6l-1 .78V3.17ZM9 7l-1 .9v2.22L9 11l1-.87V7.9L9 7Z" fill="url(#apcckpese)"/><path d="M6 6.5V5L4 7v3l1-1V7.55L6 6.5Z" fill="url(#bpcckpese)"/><path d="M14 8 9 4.5V3l5 3.5V8Z" fill="url(#cpcckpese)"/><path d="M13 10.3V8l1 .66V11l-1-.7Z" fill="url(#dpcckpese)"/><path d="M4 11.67 5.2 11l3.6 2.55 3.3-2.22.9.67-4.2 3L4 11.67Z" fill="url(#epcckpese)"/><defs><linearGradient id="apcckpese" x1="6.99" y1="8.13" x2="10.99" y2="8.13" gradientUnits="userSpaceOnUse"><stop stop-color="#D01681"/><stop offset="1" stop-color="#522678"/></linearGradient><linearGradient id="bpcckpese" x1="4.66" y1="5.62" x2="4.66" y2="10.01" gradientUnits="userSpaceOnUse"><stop stop-color="#63247A"/><stop offset="1" stop-color="#941E7D"/></linearGradient><linearGradient id="cpcckpese" x1="7.74" y1="4.38" x2="14" y2="4.38" gradientUnits="userSpaceOnUse"><stop stop-color="#552679"/><stop offset="1" stop-color="#7A217B"/></linearGradient><linearGradient id="dpcckpese" x1="13.5" y1="8" x2="13.5" y2="11" gradientUnits="userSpaceOnUse"><stop stop-color="#901F7C"/><stop offset="1" stop-color="#B81A7F"/></linearGradient><linearGradient id="epcckpese" x1="4" y1="12.05" x2="12.4" y2="12.05" gradientUnits="userSpaceOnUse"><stop stop-color="#A91B7E"/><stop offset="1" stop-color="#BF1980"/></linearGradient></defs></svg>