<!-- by TradingView --><svg width="18" height="18" viewBox="0 0 18 18" xmlns="http://www.w3.org/2000/svg"><path fill="url(#a)" d="M0 0h18v18H0z"/><path d="m7.19 5.62-.04.04c-.41.22-.72.45-.96.92-.26.5-.24 1.23.01 1.74.31.6 1.15.99 1.71 1.13.06.01.09-.02.09-.09V8.03c0-.03 0-.05-.02-.07a.11.11 0 0 0-.05-.05c-.29-.15-.56-.46-.3-.86a.76.76 0 0 1 .23-.2l.06-.04a.15.15 0 0 0 .05-.06.2.2 0 0 0 .02-.09V4.43c0-.29-.12-.43-.35-.43h-.02c-.24 0-.42.14-.42.43v1.13l-.01.06Zm3.28-.38c-.2.01-.41.01-.53-.01-.04 0-.08-.03-.08-.07v-.72c0-.28-.1-.42-.4-.42h-.02c-.3.01-.44.16-.44.46v2.21a.09.09 0 0 0 .1.09l1.48-.01c.27-.01.49-.12.66-.32.46-.56-.1-1.25-.77-1.2Zm-.52 7.14a.1.1 0 0 0-.06.04.11.11 0 0 0-.02.07v1.05c0 .33-.09.48-.4.46h-.02c-.3-.02-.45-.2-.45-.53V11.2l.01-.03.03-.02c.47-.03 1.08-.35 1-.9-.06-.37-.64-.67-.96-.75-.05-.01-.08-.05-.08-.1V8.1c0-.03.01-.05.03-.08A.1.1 0 0 1 9.1 8a39.13 39.13 0 0 1 1.04.33c.59.22 1.5.7 1.74 1.33.53 1.34-.82 2.36-1.93 2.72Zm-2.97.48h.18c.04 0 .05.03.06.08v.58c.01.27.14.43.4.48l.06-.01c.21-.07.32-.24.32-.52v-2.36c0-.03 0-.06-.02-.08a.07.07 0 0 0-.06-.03H6.85c-.43.01-.76.24-.83.77-.04.23-.02.43.06.6.24.49.53.5.9.5Z" fill="#fff"/><defs><linearGradient id="a" x1="0" y1="9" x2="18" y2="9" gradientUnits="userSpaceOnUse"><stop stop-color="#7A4FF6"/><stop offset="1" stop-color="#B796FE"/></linearGradient></defs></svg>