<!-- by TradingView --><svg width="18" height="18" viewBox="0 0 18 18" xmlns="http://www.w3.org/2000/svg"><path fill="url(#au32nchrf)" d="M0 0h18v18H0z"/><path d="M4.33 7.5c1.71 0 2.14 1 2.14 1.5-.2-.22-.74-.67-1.36-.67-.78 0-1.36.34-1.36 1 0 .67.78 1.34 1.56 1.34.62 0 1.3-.5 1.55-.67h1.36a5.45 5.45 0 0 1-3.5 2A2.62 2.62 0 0 1 2 9.67C2 9 2.39 7.5 4.33 7.5Z" fill="url(#bu32nchrf)"/><path d="M13.6 10.67c-1.77 0-2.22-1.04-2.22-1.56.2.23.77.7 1.4.7.81 0 1.41-.35 1.41-1.04 0-.7-.8-1.39-1.6-1.39-.64 0-.99.11-1.26.29h-1.4C11.2 6.15 12.53 6 13.19 6A2.7 2.7 0 0 1 16 8.42c0 .7-.4 2.25-2.4 2.25Z" fill="url(#cu32nchrf)"/><path d="M8.03 7.67H6.86l.97.66H9l-.97-.66ZM10.17 9.33H9l.97.67h1.17l-.97-.67Z" fill="#fff"/><path d="M11.33 7.67H9.97L6.87 10h1.35l3.11-2.33Z" fill="#fff"/><defs><linearGradient id="au32nchrf" x1="3.35" y1="3.12" x2="21.9" y2="24.43" gradientUnits="userSpaceOnUse"><stop stop-color="#1A1E21"/><stop offset="1" stop-color="#06060A"/></linearGradient><linearGradient id="bu32nchrf" x1="2.39" y1="8.5" x2="7.06" y2="11.44" gradientUnits="userSpaceOnUse"><stop stop-color="#7ABEE6"/><stop offset=".31" stop-color="#586FC7"/><stop offset="1" stop-color="#F9049F"/></linearGradient><linearGradient id="cu32nchrf" x1="15.6" y1="9.63" x2="10.76" y2="6.6" gradientUnits="userSpaceOnUse"><stop stop-color="#7ABEE6"/><stop offset=".31" stop-color="#586FC7"/><stop offset="1" stop-color="#F9049F"/></linearGradient></defs></svg>