<!-- by TradingView --><svg width="18" height="18" viewBox="0 0 18 18" xmlns="http://www.w3.org/2000/svg"><path fill="url(#a)" d="M0 0h18v18H0z"/><path fill-rule="evenodd" d="M9.75 3.05 9.32 3h-.68l-.2.02A6 6 0 1 0 15 9.36v-.7l-.05-.4a6.03 6.03 0 0 0-5.2-5.2Zm3.14 9.84A5.5 5.5 0 1 0 5.1 5.1a5.5 5.5 0 0 0 7.78 7.78Z" fill="url(#b)"/><path d="M9 8c.06 0 .12-.01.2-.04l2.77-1.35c.02-.01.03 0 .03.01V8.5l-.02.02-1.96.93c-.12.06-.19.19-.03.26a804.99 804.99 0 0 0 2 1v.68l-2.15-1.03c-.22-.1-.35-.18-.4-.23-.4-.4-.28-.99.22-1.23l1.56-.74.02-.02.01-.03V7.7a.02.02 0 0 0-.02 0l-1.77.85c-.13.06-.29.1-.46.1-.17 0-.33-.04-.46-.1L6.77 7.7a.02.02 0 0 0-.02 0V8.14l.03.02 1.56.74c.5.24.62.84.23 1.23-.06.05-.2.13-.4.23A446.38 446.38 0 0 0 6 11.4v-.71l.02-.01 2-.96c.15-.07.08-.2-.04-.26A448.58 448.58 0 0 0 6 8.48V6.62c0-.02.01-.02.03-.02L8.8 7.96c.07.03.13.05.19.05Z" fill="url(#c)"/><defs><linearGradient id="a" x1="3.35" y1="3.12" x2="21.9" y2="24.43" gradientUnits="userSpaceOnUse"><stop stop-color="#1A1E21"/><stop offset="1" stop-color="#06060A"/></linearGradient><linearGradient id="b" x1="9" y1="3" x2="9" y2="15" gradientUnits="userSpaceOnUse"><stop stop-color="#CDA87C"/><stop offset="1" stop-color="#876F55"/></linearGradient><linearGradient id="c" x1="9" y1="6.6" x2="9" y2="11.4" gradientUnits="userSpaceOnUse"><stop stop-color="#CDA87C"/><stop offset="1" stop-color="#876F55"/></linearGradient></defs></svg>