<!-- by TradingView --><svg width="18" height="18" viewBox="0 0 18 18" xmlns="http://www.w3.org/2000/svg"><path fill="url(#a)" d="M0 0h18v18H0z"/><path d="M13.76 5H4.24c-.18 0-.3.16-.22.3l.78 1.4c.1.18.3.3.54.3h7.32a.6.6 0 0 0 .54-.3l.78-1.4c.07-.14-.04-.3-.22-.3ZM9.11 15l.89-1.99V11H8v2.01L8.9 15h.2ZM8 9V7h2v2H8Zm2 0h1.83c.12 0 .2.12.15.23l-.7 1.48a.51.51 0 0 1-.46.29H10V9Z" fill="#fff"/><defs><linearGradient id="a" x1="3.35" y1="3.12" x2="21.9" y2="24.43" gradientUnits="userSpaceOnUse"><stop stop-color="#1A1E21"/><stop offset="1" stop-color="#06060A"/></linearGradient></defs></svg>