<!-- by TradingView --><svg width="18" height="18" viewBox="0 0 18 18" xmlns="http://www.w3.org/2000/svg"><path d="M0 0h18v18H0z"/><path d="m10.1 4.13.06.36a5.7 5.7 0 0 0-1.7.15c-.86.2-1.53.64-2 1.32-.07-.07-.16-.06-.26.02-.06.05-.1.1-.12.17a6.94 6.94 0 0 0-.39 1.67c-.02.05-.03.04-.05 0a1.52 1.52 0 0 1-.06-.34 4.75 4.75 0 0 1 .4-2.28.06.06 0 0 0-.07-.05c-.03 0-.06.03-.09.07l-.19.28c-.27.11-.45.28-.52.5-.04.12-.07.35-.1.7 0 .02 0 .03-.03.03h-.1a.06.06 0 0 1-.03-.04.48.48 0 0 0-.16-.22 5 5 0 0 1 5.42-2.34Z" fill="#5A128F"/><path d="M10.1 4.13c.7.14 1.33.44 1.9.88a7.25 7.25 0 0 0-1.84-.52l-.06-.36Z" fill="#2B113D"/><path d="M10.58 4.75c-.34.08-.65.15-.96.2l-.27.08-.24.06c-.1.01-.2.04-.3.09l-.43.22c-.37.2-.7.5-1 .86-.13.18-.26.32-.38.44-.02.02-.03.02-.04 0a.05.05 0 0 1-.02-.03v-.05l.16-.3c.19-.3.35-.6.61-.84a1.77 1.77 0 0 1 .75-.5c.09-.03.15-.1.2-.18a4.33 4.33 0 0 1 1.92-.05Z" fill="#A930DC"/><path d="M10.57 4.75c.43.07.85.2 1.26.4.05.09.07.17.08.24.01.08-.01.14-.06.17l-.2.14a.08.08 0 0 1-.06.01c-.3-.07-.57-.17-.88-.2a4.94 4.94 0 0 0-.86 0l-.18.06-.16.05a.28.28 0 0 0-.18.14l-.37.05c.1-.09.23-.15.37-.2.06-.01.13 0 .18-.03a5.23 5.23 0 0 0 .52-.15c.1-.03.22-.05.34-.05.12 0 .24 0 .37-.02.14-.02.2-.1.17-.25a.07.07 0 0 0-.04-.05c-.18-.1-.46-.08-.66-.04l-.66.1c-.26.04-.5.13-.71.25-.42.23-.78.5-1.08.8-.11.1-.22.25-.33.43v.05c0 .02.02.02.03.02-.34.44-.58.95-.7 1.52-.03-.1-.02-.23.05-.42l.16-.59v-.01l-.01-.01H6.9l-.16.15a.07.07 0 0 1-.12-.06c-.02-.26.1-.53.2-.77.02-.02.02-.04 0-.06a.02.02 0 0 0-.02 0 .83.83 0 0 0-.15.28c-.03.08-.05.15-.09.22l-.09.22c-.08.23-.2.44-.37.64 0-.23.04-.45.1-.64 0 .01 0 .02.03.02a.03.03 0 0 0 .02-.01.1.1 0 0 0 .01-.04.1.1 0 0 1 .03-.05c.13-.14.18-.3.28-.46l.15-.28.17-.28c.1-.14.18-.3.23-.46.42-.39.93-.65 1.53-.78a.35.35 0 0 1-.2.18c-.17.06-.28.12-.36.17-.08.05-.2.16-.39.33-.26.24-.42.54-.6.84l-.17.3v.05c0 .02 0 .03.02.04H7c.12-.13.25-.27.39-.45.28-.36.62-.65 1-.86l.43-.22c.1-.05.2-.08.3-.1.07 0 .15-.02.23-.05l.27-.08c.3-.05.62-.12.95-.2Z" fill="#8C33AF"/><path d="M8.96 5.8a2.7 2.7 0 0 0-1.5.87c-.01 0-.02 0-.03-.02V6.6c.1-.18.22-.32.33-.43.3-.3.66-.57 1.07-.8.23-.12.46-.2.72-.24l.66-.11c.2-.04.48-.06.66.04a.07.07 0 0 1 .04.05c.03.15-.03.24-.17.25-.13.02-.25.03-.38.02-.11 0-.22.02-.33.05a5.23 5.23 0 0 1-.52.15c-.05.03-.12.02-.18.03-.15.05-.27.11-.37.2Z" fill="#A930DC"/><path d="M6.45 5.96a3.3 3.3 0 0 0 .17 3.96c-.13-.01-.28-.02-.37-.13-.11-.12-.2-.27-.28-.44l-.4-.92a.96.96 0 0 1-.08-.25 5.34 5.34 0 0 1-.05-.86.13.13 0 0 0-.03-.05.1.1 0 0 0-.05-.02h-.05a.15.15 0 0 0-.09.12c-.02.1-.03.22-.03.35 0 .1.02.22.05.35l.1.5.09.3a1 1 0 0 1 .03.35 7.66 7.66 0 0 1-.2-.49 1.9 1.9 0 0 1-.11-.47l-.1-.8a4.26 4.26 0 0 1 .01-.77c.06-.06.13-.1.2-.12a.1.1 0 0 0 .07-.07c.07-.32.17-.66.3-1l.19-.28c.03-.04.06-.07.09-.07a.06.06 0 0 1 .06.08 4.75 4.75 0 0 0-.39 2.25c0 .11.03.22.06.33.02.05.03.06.05 0a6.94 6.94 0 0 1 .39-1.66.38.38 0 0 1 .12-.17c.1-.08.19-.09.25-.02Z" fill="#8C33AF"/><path d="m11.83 5.15.7.32c.78.76 1.25 1.69 1.42 2.8a1 1 0 0 1-.28-.38c-.04-.09-.02-.18-.1-.25-.37-.41-.8-.8-1.3-1.17a1.68 1.68 0 0 0-.56-.27c-.16-.04-.32-.13-.48-.16-.11-.02-.22-.09-.32-.09-.07 0-.11.02-.14.05a4.16 4.16 0 0 0-1.44-.24c.04-.08.1-.12.18-.14a5.93 5.93 0 0 0 .34-.1c.3-.03.58-.03.86 0 .3.02.59.12.88.2.02 0 .05 0 .06-.02.07-.03.13-.08.2-.14.05-.03.07-.1.06-.17a.67.67 0 0 0-.08-.24Z" fill="#5A128F"/><path d="M5.63 5.5a6.66 6.66 0 0 0-.32 1.05.1.1 0 0 1-.04.02.45.45 0 0 0-.2.12 4.26 4.26 0 0 0 0 .77l.08.8c.01.16.05.32.11.47a7.66 7.66 0 0 0 .6 1.23c.07.1.14.2.23.3.09.08.17.18.25.27.16.2.38.38.64.52l.48.24c.13.07.28.1.43.15.09.05.18.09.28.1.1.03.2.03.3 0 .2-.04.4-.07.6-.14l.28-.1-.19.21a.03.03 0 0 0 .02.05c.13.04.26.1.39.18.12.08.27 0 .38-.07a.07.07 0 0 1 .05-.01c.06 0 .1.04.13.1l-.45.28c0-.15-.1-.2-.23-.15-.19.07-.35.12-.49.13-.14.02-.3 0-.47-.06-.17-.06-.26-.23-.45-.27l-.3-.05c-.23-.04-.44-.15-.69-.18-.11-.01-.21-.06-.32-.1-.14-.06-.22-.17-.37-.22-.02 0-.03 0-.03.02 0 .04.01.08.05.1.28.2.5.46.68.77a5.2 5.2 0 0 1-2.44-2c-.22-.34-.43-.7-.62-1.1 0-.87.24-1.7.68-2.46.08.05.13.13.17.22l.03.03c.03.02.07.02.1.01.02 0 .03-.01.03-.03.02-.35.06-.58.1-.7.07-.22.25-.39.52-.5Z" fill="#6A2295"/><path d="M7.13 5.58c-.05.16-.13.32-.23.46l-.17.28c-.04.1-.1.2-.15.28-.1.15-.15.32-.28.46a.1.1 0 0 0-.03.05.1.1 0 0 1-.01.04.03.03 0 0 1-.03 0l-.03-.01c.16-.6.47-1.12.93-1.56Z" fill="#A930DC"/><path d="M13.95 8.26c.05.33.06.69.04 1.08 0 .01-.01.02-.03.02a.69.69 0 0 1-.07-.16c-.05-.18-.15-.35-.23-.52A5.46 5.46 0 0 0 10.77 6c.03-.03.07-.05.14-.05.1 0 .2.07.32.1.16.02.32.11.48.15.2.06.39.15.56.27.5.37.93.76 1.3 1.17.08.08.06.16.1.25a1 1 0 0 0 .28.37Z" fill="#6A2295"/><path d="M10.55 6.17c-.1.03-.2.05-.3.05h-.29c-.12.01-.22.04-.31.09a23.48 23.48 0 0 1-.45.24l-.2.14v.03h.04a6.54 6.54 0 0 1 2.34.52l.34.21c.16.12.37.23.44.42l.02.05.18.16.1.14c.05.07.04.12-.05.17-.16.1-.3.08-.32.32a.04.04 0 0 1-.03.04c-.09 0-.16-.01-.2-.07a.11.11 0 0 0-.05-.02l-.42-.16a.02.02 0 0 0-.02 0 .02.02 0 0 0-.01.03l.15.51c.11.52.2.92.2 1.28l-.05.25c0 .02-.01.03-.03.03l-.42.04c.3-.94.2-1.85-.29-2.71l.18-.08c.06-.03.12-.06.18-.07l.38-.12c.03 0 .04-.02.03-.05a.22.22 0 0 0-.11-.14 2.37 2.37 0 0 1-.2-.13 1.44 1.44 0 0 0-.38-.18 17.9 17.9 0 0 0-1.17-.32.34.34 0 0 0-.3.05c-.48-.1-.93-.06-1.36.11-.14-.1-.3-.16-.5-.2a2.74 2.74 0 0 1 2.88-.63Z" fill="#511C78"/><path d="m10.55 6.17.35.12c-.16.03-.39.03-.68 0a.98.98 0 0 0-.63.15l-.55.28H9c-.02-.01-.02-.02 0-.03l.19-.14a23.49 23.49 0 0 0 .45-.24 1.02 1.02 0 0 1 .6-.1c.1.01.2 0 .3-.04Z" fill="#6A2295"/><path d="M10.9 6.3c.9.36 1.62.95 2.19 1.77.21.32.41.65.54 1l.22.55c.03.08.04.17.03.27 0 .11-.02.23-.04.34a.7.7 0 0 1-.08.27 4.86 4.86 0 0 0-.69-1.5 1.1 1.1 0 0 1-.12-.3.58.58 0 0 0-.21-.33 3.28 3.28 0 0 0-.38-.29l-.18-.16a.1.1 0 0 1-.02-.05c-.07-.19-.28-.3-.44-.42a2.33 2.33 0 0 0-.72-.37 4.16 4.16 0 0 0-.24-.07c-.1-.16-.09-.29.03-.4a.04.04 0 0 0 0-.04v-.02h-.02a3.54 3.54 0 0 1-.24-.12.04.04 0 0 1-.02-.03c0-.01-.01-.02-.03-.02-.06 0-.12 0-.18-.02h-.16c-.18.04-.36.06-.55.08a.98.98 0 0 1 .63-.16c.3.04.52.04.68.01Z" fill="#8C3892"/><path d="M10.76 7a6.54 6.54 0 0 0-1.72-.28l.55-.28a9.3 9.3 0 0 0 .71-.08l.18.02c.02 0 .03 0 .03.02s0 .03.02.03a3.54 3.54 0 0 0 .27.14.04.04 0 0 1-.01.03c-.12.12-.13.25-.03.4Z" fill="#8C33AF"/><path d="M6.8 7.77a1 1 0 0 1-.43.15.1.1 0 0 0-.1.07c-.02.1-.05.28-.15.31a1.2 1.2 0 0 1 0-.52c.15-.2.27-.41.36-.64l.09-.22.09-.22a.83.83 0 0 1 .16-.29.02.02 0 0 1 .02.01v.06c-.11.24-.23.5-.2.77a.07.07 0 0 0 .1.06 1.22 1.22 0 0 0 .18-.16h.04v.03l-.15.59Z" fill="#511C78"/><path d="M7.68 6.8c.18.04.35.1.5.2A2.16 2.16 0 0 0 6.9 8.45h-.04c0 .01 0 0 0 0 .1-.64.36-1.19.8-1.65ZM10.92 7.93c-.33-.51-.8-.86-1.39-1.04a.34.34 0 0 1 .3-.05l.11.02.11.02c.31.08.63.18.95.28.13.04.26.1.37.18l.2.13c.07.03.1.08.12.14 0 .03 0 .04-.03.05a97.12 97.12 0 0 1-.56.2l-.18.07Z" fill="#2B113D"/><path d="M4.22 7.6a11.13 11.13 0 0 1 .28-.68.04.04 0 0 1 .03.02c.02.02.02.05.02.07a5.65 5.65 0 0 0 .36 2.15c.11.3.27.58.4.88.01.03 0 .03-.03.02a.66.66 0 0 1-.32-.26 6.6 6.6 0 0 1-.72-1.63 2.7 2.7 0 0 1-.06-.29.6.6 0 0 1 .04-.28Z" fill="#8C33AF"/><path d="M6.62 9.92c.24.31.5.55.79.72.42.26.71.41.88.46.2.06.5.08.92.06-.03.1-.1.15-.21.16l-.68.11c-.15.03-.29.02-.43.01-.15-.05-.3-.08-.43-.15l-.48-.24c-.26-.14-.48-.31-.65-.52-.07-.1-.16-.19-.24-.28-.09-.09-.16-.18-.23-.29-.15-.24-.28-.49-.4-.74a1 1 0 0 0-.03-.35l-.09-.3-.1-.5a1.5 1.5 0 0 1-.05-.35c0-.13.01-.24.03-.35.01-.05.04-.1.1-.12h.04a.1.1 0 0 1 .05.02l.03.05.01.05c0 .3 0 .57.04.81 0 .08.03.16.07.25l.4.92c.08.17.18.32.29.44.1.1.24.12.37.13Z" fill="#A930DC"/><path d="M6.8 7.77c-.06.19-.07.33-.03.42l-.05.43a.77.77 0 0 1-.02-.36c0-.02-.01-.03-.03-.03-.12-.02-.25.17-.3.28a1 1 0 0 1-.17.25l-.08-.46c.1-.03.13-.22.16-.3a.1.1 0 0 1 .1-.08 1 1 0 0 0 .43-.15Z" fill="#2B113D"/><path d="M12.36 8.08c.12.08.24.17.38.3.11.1.16.16.2.31.05.14.1.24.14.3.3.44.52.94.68 1.51a3.6 3.6 0 0 1-.42 1l.03-.21a.93.93 0 0 0 0-.34c-.02-.2-.06-.4-.11-.62a2.7 2.7 0 0 0-.17-.52 25.3 25.3 0 0 0-.26-.54l-.4-.06h-.01c.2.5.23.93.26 1.52.03.58-.05 1.12-.23 1.67a.5.5 0 0 0 .01.21 4.88 4.88 0 0 1-2.99 1.36 17.08 17.08 0 0 0 1.14-.29c.1-.06.2-.1.29-.19.13-.13.3-.2.43-.33.16-.16.15-.36.22-.56.15-.41.35-.83.44-1.26.07-.3.1-.59.1-.84-.02-.26-.1-.56-.23-.9a4.5 4.5 0 0 1-.1-.26.5.5 0 0 0-.25-.3l-.15-.5a.02.02 0 0 1 0-.03h.03l.42.15.05.02c.04.06.11.08.2.07a.04.04 0 0 0 .03-.04c.01-.24.16-.23.32-.32.09-.05.1-.1.05-.17a.53.53 0 0 1-.1-.14Z" fill="#6A2295"/><path d="m6.72 8.62.03.29c0 .12.06.19.1.3a2.87 2.87 0 0 0 .8 1.42c.05.04.04.05-.01.05a.4.4 0 0 1-.23-.11l-.47-.47a2.94 2.94 0 0 1-.74-1.34 1 1 0 0 0 .17-.25c.05-.1.18-.3.3-.28.02 0 .03.01.02.03a.77.77 0 0 0 .03.36Z" fill="#150F18"/><path d="M10.13 11.77a.17.17 0 0 0-.13-.11h-.05c-.11.08-.26.16-.38.08a1.33 1.33 0 0 0-.4-.19.03.03 0 0 1-.01-.02v-.02l.2-.2a5.23 5.23 0 0 0 1.2-.7.38.38 0 0 0 .2-.33c.2-.28.31-.54.36-.76a2.3 2.3 0 0 0 .06-.67v.01c.04.2.05.38.04.55-.01.16.03.31 0 .46-.1.7-.48 1.48-1.09 1.9Z" fill="#511C78"/><path d="m9.47 13.97-.62.03h-.06v-.09a.15.15 0 0 1 .07-.07l1.1-.6c.15-.08.35-.23.6-.47l.16-.15c.11-.1.18-.23.3-.3a.57.57 0 0 0 .28-.29c.08-.2.25-.33.29-.54l.13-.77a6.68 6.68 0 0 0-.2-1.68c.11.07.2.17.24.3l.1.26a2.65 2.65 0 0 1 .13 1.74c-.1.43-.29.85-.44 1.26-.07.2-.06.4-.22.56-.13.13-.3.2-.43.33-.08.09-.18.13-.29.19a17.16 17.16 0 0 1-1.14.3ZM13.34 11.5a4.96 4.96 0 0 1-.88 1.11.5.5 0 0 1 0-.21c.16-.55.25-1.09.22-1.67-.04-.59-.05-1.02-.26-1.52l.4.06h.02l.01.02.24.52c.07.16.13.33.17.52.05.22.09.43.11.62.02.12.02.22 0 .34-.02.07-.03.14-.03.22Z" fill="#8C33AF"/><path d="M4.03 9.4a8.31 8.31 0 0 0 1.24 1.7c-.06 0-.16-.02-.29-.06-.04 0-.08 0-.11.05l-.75-1.02a2.1 2.1 0 0 1-.09-.67Z" fill="#6A2295"/><path d="m4.12 10.07.75 1.02a8.47 8.47 0 0 0 1.34 1.29c.05.04.05.06-.02.06-.17 0-.33 0-.5-.1L5.1 12c-.03-.01-.03 0-.02.03.04.12.24.29.34.38a2.8 2.8 0 0 0 1.49.53c.15 0 .3.01.43.04.19.02.37.02.56-.01.26-.05.53-.06.8-.06.11 0 .22-.02.32-.07l.48-.23a3 3 0 0 0 .39-.23c.12-.09.25-.17.38-.24.05-.03.06-.08.03-.15.43-.36.74-.8.92-1.34l.42-.04c.01 0 .03-.01.03-.03l.04-.25c.03.2.03.33.02.4l-.13.77c-.04.21-.21.35-.3.54a.57.57 0 0 1-.26.29c-.13.07-.2.2-.3.3l-.18.15a3 3 0 0 1-.59.48l-1.1.6a.15.15 0 0 0-.07.06.11.11 0 0 0 0 .09h.06a5 5 0 0 1-4.73-3.93Z" fill="#5A128F"/><path d="M10.75 10.28c0 .15-.06.26-.18.34l-.45.3a5.23 5.23 0 0 1-1.04.48c-.2.07-.4.1-.61.15-.1.02-.2.02-.3 0-.1-.02-.2-.06-.28-.11.15 0 .28.02.43 0 .23-.05.45-.09.68-.12.1-.01.18-.07.21-.16a2.17 2.17 0 0 0 1.54-.88ZM5.27 11.1c.45.43.96.78 1.54 1.05.44.2.9.33 1.4.38.77.09 1.46-.1 2.08-.55.03.07.02.12-.03.15-.13.07-.25.15-.38.24a3 3 0 0 1-.39.23l-.48.23c-.1.05-.2.07-.32.07-.26 0-.54.01-.8.06-.19.03-.37.03-.56 0a3.05 3.05 0 0 0-.43-.03 2.8 2.8 0 0 1-1.49-.53c-.1-.1-.3-.26-.34-.38-.01-.04 0-.04.03-.03l.6.35c.16.1.32.1.49.1.07 0 .08-.02.02-.06l-.2-.15c-.41-.34-.8-.72-1.14-1.14.03-.04.07-.06.11-.05.13.04.23.06.3.06Z" fill="#8C33AF"/><path d="M9.69 12.04a2.5 2.5 0 0 1-.84.24 3.63 3.63 0 0 1-1.79-.25c-.18-.31-.4-.57-.68-.77a.1.1 0 0 1-.05-.1c0-.02.01-.02.03-.02.15.05.23.16.37.22.1.04.21.09.32.1.25.03.46.14.7.18l.3.05c.18.04.27.21.44.27.18.06.33.08.47.06.14-.01.3-.06.5-.13.12-.05.22 0 .23.15Z" fill="#8C33AF"/></svg>