<!-- by TradingView --><svg xmlns="http://www.w3.org/2000/svg" width="18" height="18" viewBox="0 0 18 18"><path fill="url(#acls5kwmv)" d="M0 0h18v18H0z"/><path d="M9 8.27V3.5l1.77 3.21L9 8.27z" fill="url(#bcls5kwmv)"/><path d="M9 8.27L7.23 6.7 9 3.5v4.77z" fill="url(#ccls5kwmv)"/><path fill-rule="evenodd" d="M4.92 10.92l.64-1.18c.36 1.6 1.4 1.27 1.83.99h3.22c.43.28 1.47.61 1.83-.99l.64 1.18L9 14.5l-4.08-3.58zm3.68 1.56c0 .19-.15.34-.34.34a.34.34 0 0 1-.35-.34c0-.18.16-.33.35-.33.19 0 .34.15.34.33zm1.14.34c.2 0 .35-.15.35-.34a.34.34 0 0 0-.35-.33.34.34 0 0 0-.34.33c0 .19.15.34.34.34z" fill="url(#dcls5kwmv)"/><path d="M4 8l5 4.06L14 8h-2.77L9 9.82 6.77 8H4z" fill="url(#ecls5kwmv)"/><defs><linearGradient id="acls5kwmv" x1="3.35" y1="3.12" x2="21.9" y2="24.43" gradientUnits="userSpaceOnUse"><stop stop-color="#1A1E21"/><stop offset="1" stop-color="#06060A"/></linearGradient><linearGradient id="bcls5kwmv" x1="9.01" y1="6.52" x2="10.55" y2="6.55" gradientUnits="userSpaceOnUse"><stop stop-color="#FFAD6D"/><stop offset="1" stop-color="#F75F43"/></linearGradient><linearGradient id="ccls5kwmv" x1="8.11" y1="3.5" x2="8.11" y2="8.27" gradientUnits="userSpaceOnUse"><stop stop-color="#EFB960"/><stop offset="1" stop-color="#F55A3E"/></linearGradient><linearGradient id="dcls5kwmv" x1="9" y1="11.61" x2="9" y2="14.5" gradientUnits="userSpaceOnUse"><stop stop-color="#AE0B38"/><stop offset="1" stop-color="#D80E36"/></linearGradient><linearGradient id="ecls5kwmv" x1="9" y1="7.77" x2="9" y2="12.16" gradientUnits="userSpaceOnUse"><stop stop-color="#750639"/><stop offset=".97" stop-color="#DD0E38"/></linearGradient></defs></svg>