<!-- by TradingView --><svg width="18" height="18" viewBox="0 0 18 18" xmlns="http://www.w3.org/2000/svg"><path fill="#F0F3FA" d="M0 0h18v18H0z"/><path d="M8.42 3.9c-.05 0-.07-.02-.07-.05V3.8a.08.08 0 0 0-.02-.03l-.03-.02h-.04c-.2.13-.26.28-.17.48l.04.04h.05c.04 0 .07-.02.09-.07 0 .06.01.1.05.1-.09.14-.16.3-.2.47 0 .03-.02.06-.05.08-.55.34-.17.64-.15 1.17l-.02.36a.73.73 0 0 0-.37.29l-.02.01a.05.05 0 0 1-.06 0V6.6c-.06-.01-.12.02-.18.1 0 .01-.01.02-.03.02h-.03c-.04 0-.06-.04-.07-.1-.01-.07-.04-.08-.1-.04a.65.65 0 0 0-.2.23c-.03.06-.02.07.04.03A.98.98 0 0 0 7 6.68h.07c.01.01.02.02 0 .04-.03.07-.04.12-.04.15.04.16.06.34.06.53a.6.6 0 0 1 .03.18c0 .13-.05.15-.14.06l-.1-.1c-.02-.03-.04-.03-.06 0a.67.67 0 0 1-.18.25.07.07 0 0 1-.03.02h-.04a.07.07 0 0 1-.03-.02.08.08 0 0 1-.02-.04l-.05-.21c-.01-.06-.04-.07-.08-.03l-.2.22a.08.08 0 0 1-.04.02h-.04a.08.08 0 0 1-.04-.02.1.1 0 0 1-.02-.05 1.01 1.01 0 0 0-.05-.2c-.02-.04-.03-.06-.05-.06-.03-.01-.05 0-.06.04 0 .04-.02.07-.03.1l-.03.03a.08.08 0 0 1-.08 0 .09.09 0 0 1-.03-.03.45.45 0 0 1-.04-.39c.12 0 .22-.09.3-.24.02-.03.02-.06 0-.08l-.1-.1c-.03-.04-.03-.07.02-.07.1-.02.2-.01.26.03h.08l.16-.16a.03.03 0 0 0 0-.04h-.04c-.07.05-.18.07-.34.05-.03 0-.04-.02-.01-.05l.1-.11c.02-.03.02-.04 0-.06-.03 0-.05 0-.07.02l-.17.17h-.05c-.03 0-.03-.02-.01-.05a.22.22 0 0 0 .04-.06c.02-.05.01-.07-.03-.05-.18.08-.22.16-.1.23l-.3.08h-.02l-.02-.01-.01-.02v-.03c0-.05.02-.12.08-.18.04-.05.03-.08-.03-.08a.7.7 0 0 1-.37-.07.11.11 0 0 1-.04-.03.13.13 0 0 1-.01-.11l.02-.05c.18-.18.36-.25.56-.21h.03l.02-.02.02-.03v-.03a.97.97 0 0 1 .01-.4V5.4c0-.01 0-.02-.02-.03a.1.1 0 0 0-.02-.02.1.1 0 0 0-.04 0c-.04-.01-.1-.05-.17-.12-.02-.02-.02-.05 0-.08.15-.23.36-.3.62-.2a.08.08 0 0 0 .09-.02c.02-.02.03-.05.03-.09a.17.17 0 0 0-.03-.09.84.84 0 0 1-.12-.31.1.1 0 0 1 0-.05.1.1 0 0 1 .02-.04.08.08 0 0 1 .04-.02h.04c.13.04.24.09.33.16.03.02.05.01.06-.02l.04-.2c.1-.03.15.1.13.37 0 .04.01.06.04.07.08.03.2 0 .25.06.03.03.03.07.02.13-.02.04 0 .05.03.03l.26-.14.03-.02v-.07a.06.06 0 0 0-.03-.02l-.04-.02.12-.17c.02-.02.02-.04 0-.06a.37.37 0 0 0-.05-.03c-.15-.01-.17-.07-.06-.17.08-.06.18-.1.33-.1.03-.01.04-.03.03-.06a.5.5 0 0 1 .03-.48l.04-.02h.04c.13.08.22.17.26.28.01.04.03.04.06 0a1.06 1.06 0 0 1 .32-.26h.03l.02.02.02.02c.04.09.03.18 0 .28Z" fill="#676436"/><path fill-rule="evenodd" d="m11.2 5.66-.02-.13c-.02-.14-.06-.21-.13-.22 0 .06 0 .1.03.14.02.02.02.05 0 .08-.02.01-.05.02-.09.01a1.27 1.27 0 0 0-.16 0 .04.04 0 0 0-.02.01.05.05 0 0 0 0 .04v.03l.02.03h.04a.49.49 0 0 1 .15 0c.15.02.15.06 0 .1l-.15.02c.03.1.1.14.2.14.02 0 .05 0 .07.02.03.01.05.03.06.06a.18.18 0 0 1 .01.17c-.06.13-.14.2-.23.24-.03 0-.05 0-.07-.03l-.13-.24c-.01-.03-.04-.04-.07-.04a.25.25 0 0 0-.08.04c-.03.01-.05 0-.06-.03a.22.22 0 0 1-.01-.1c0-.03 0-.03-.03-.01a.18.18 0 0 0-.02.03v.03c-.02.13-.04.23-.07.3-.03.09-.06.09-.09 0a.89.89 0 0 1-.05-.25v-.01l-.01-.01a.03.03 0 0 0-.03 0l-.03.01-.01.02c-.04.11-.07.17-.1.18-.04.02-.06 0-.07-.04 0-.17-.11-.25-.31-.24-.05 0-.1-.02-.11-.09-.01-.03-.03-.04-.06-.03l-.3.1c.04.17 0 .37-.15.61.04.22.1.36.16.44a.27.27 0 0 1 .05.26l-.24.7c-.02.07-.06.08-.1.01-.19-.25-.4-.38-.62-.4a.06.06 0 0 1-.04-.02.07.07 0 0 1-.02-.03.07.07 0 0 1 0-.03l.06-.3a.02.02 0 0 0 0-.01.02.02 0 0 0-.01-.01h-.01c-.01 0-.02 0-.02.02l-.07.3-.01.03-.02.01H8.2l-.02-.01-.02-.02a.12.12 0 0 1-.03-.05V7.4c.06-.14.09-.27.1-.38 0-.05.02-.06.05-.02l.05.1c0 .03.02.04.06.04h.14c.03 0 .05-.02.06-.04.03-.05.04-.1.04-.16l-.24-.01c-.03 0-.04-.02-.03-.05l.08-.22a.02.02 0 0 0 0-.01v-.01c-.02 0-.02-.01-.03-.02l-.02.01a.55.55 0 0 0-.14.22c-.04.14-.07.14-.1 0l-.07-.44c-.09-.06-.1-.16-.03-.33l-.01-.12c0-.05-.03-.06-.06-.03a.3.3 0 0 0-.06.1l-.02.36c.16.12.17.26.04.42l-.04.03h-.03c-.02 0-.03-.02-.02-.04v-.06c.02-.1 0-.11-.07-.04-.12.12-.26.24-.45.34a.1.1 0 0 1-.1 0c-.04-.01-.06-.05-.05-.1 0-.03 0-.06.03-.08l.23-.25c-.05-.01-.1.02-.17.1a.07.07 0 0 1-.04.03.06.06 0 0 1-.02 0c-.04-.01-.06-.05-.07-.12-.01-.06-.04-.07-.1-.03a.65.65 0 0 0-.2.23c-.03.06-.02.07.04.03a.98.98 0 0 0 .14-.17.03.03 0 0 1 .02-.01l.04.01c.01.01.02.02 0 .04-.03.07-.04.12-.04.15.04.16.06.34.06.53.08-.1.15-.14.2-.15.02 0 .05 0 .07.02.03.02.05.04.06.07.02.02.02.06.02.09l-.01.1-.1.2c.01.04.03.06.07.05a.65.65 0 0 1 .09-.24c.02-.03.04-.03.07-.02l.1.1.56.67c.02.03.03.06.03.1v.08c0 .06 0 .06.03 0l.04-.07a.09.09 0 0 1 .05-.05l.28-.08h.03l.02.03v.02c.05.16.1.37.3.45.06.04.14.02.21 0 .09 0 .18-.02.28.02.03.01.06 0 .08-.02a.5.5 0 0 1 .3-.15.1.1 0 0 0 .06-.04.1.1 0 0 0 .02-.07l-.02-.26c0-.03.01-.04.04-.04h.04c.17.04.37.07.47-.07.16-.22.4-.37.62-.5a.27.27 0 0 1 .12-.1.1.1 0 0 0-.03-.07 2.73 2.73 0 0 0-.85.66.14.14 0 0 1-.04.02h-.04a.84.84 0 0 0-.3-.07c-.05 0-.07-.02-.06-.06 0-.3.08-.51.21-.67.12-.13.16-.1.12.07l-.04.23.01.02.04-.01.02-.02.1-.43c.23-.19.52-.3.88-.34l.32-.27c.02-.02.04-.01.05.02l.08.3.3.31a.05.05 0 0 0 .03.02.05.05 0 0 0 .04-.02.07.07 0 0 0 .02-.05.04.04 0 0 1 0-.03.03.03 0 0 1 .05 0c.2.14.32.2.37.18.02-.01.04-.03.04-.06v-.04c.02-.03.04-.04.06 0l.1.14.05.06c.03 0 .05 0 .07-.04-.06-.14-.13-.29-.21-.42a.13.13 0 0 0-.07-.06c-.04-.02-.06 0-.04.04.02.06.03.11.02.15 0 .03-.03.05-.06.04-.13 0-.25-.09-.37-.25-.02-.03-.02-.06 0-.09a.3.3 0 0 1 .08-.07.12.12 0 0 0 .05-.05.13.13 0 0 0-.04-.16c-.13-.1-.22-.1-.27-.03-.01.03-.03.04-.06.03-.05-.01-.08-.06-.08-.13a.3.3 0 0 0-.12-.23c-.04-.03-.05-.02-.04.03a.1.1 0 0 1 0 .03c-.01.04-.03.05-.06.03-.16-.1-.43-.28-.37-.49a.27.27 0 0 0 0-.06v-.04Zm-.9 1.14c-.02-.03-.02-.09 0-.17.01-.03.02-.03.02 0l.05.19c0 .03.02.04.05.03l.38-.1c.04-.01.05-.03.03-.07-.04-.05-.04-.12 0-.2a.1.1 0 0 0 0-.1l-.1-.16v-.01l-.02-.01a.05.05 0 0 0-.05 0 .42.42 0 0 0-.17.25c-.03.13-.09.14-.17.05a.25.25 0 0 0-.1-.09c-.01 0-.04 0-.1.03a.71.71 0 0 1-.23.09.08.08 0 0 0-.07.05.71.71 0 0 0-.02.54c.01.05.04.06.09.04l.38-.24c.04-.03.05-.07.03-.12Zm-2.54.24.02.02a.06.06 0 0 0 .03.02.05.05 0 0 0 .03-.01l.02-.02.08-.15c.04-.07.07-.07.1 0l.07.12c.03.05.03.1 0 .15a.52.52 0 0 0-.1.24c0 .04-.01.04-.04.01l-.33-.36c-.03-.04-.04-.07-.01-.1a.14.14 0 0 1 .07-.06c.04-.01.06 0 .05.05l.01.09Zm.6 1.22.2-.06c.14-.03.15-.09.03-.16-.1-.06-.2-.1-.3-.13-.14-.05-.28-.1-.38-.2-.01-.02-.03-.01-.03 0l-.01.03.4.5c.02.02.05.03.08.02Z" fill="#412F24"/><path d="M10.6 3c-.33.67.92 2.63.78 2.67-.01 0-.42.1-.51.1l-.73.03h-.01l-.01-.01a.03.03 0 0 1 0-.03c-.16-.23-.74-.26-1.2-.23-.04 0-.05-.01-.02-.05l.06-.06c.04-.05.04-.07-.02-.08l-.24-.02c-.04 0-.06.02-.06.07 0 .2-.06.4-.18.58-.02.03-.05.04-.09.03l-.14-.06c-.03-.01-.05 0-.06.03-.03.1-.07.13-.12.11l-.01-.12c0-.05-.03-.06-.06-.03a.3.3 0 0 0-.06.1l-.59.09c-.03 0-.05-.01-.06-.04a.69.69 0 0 1-.03-.25c.03-.03.06-.08.08-.16a.62.62 0 0 0-.11-.24.07.07 0 0 1 0-.09c.08-.13.18-.24.3-.34.04-.02.06-.01.07.03l.03.14c0 .03.02.05.05.04.06 0 .1-.03.13-.08.07-.11.16-.2.28-.27a.12.12 0 0 0 .05-.08c.04-.17.11-.33.2-.46l.3-.24a.11.11 0 0 0 .03-.03V4c.02-.1-.03-.18-.13-.21l.13-.06c.03.1.08.14.14.12 0 .06.03.1.06.12 0 .15-.11.17-.13.29-.01.07 0 .14.05.2.02.03.03.03.04 0L8.97 4 9 3.95a.13.13 0 0 1 .04-.03.12.12 0 0 1 .1 0c.19.09.27.23.26.42v.02l.01.02h.07c.02 0 .03-.02.03-.04 0-.1.01-.2.05-.29.01-.04 0-.06-.03-.07a.73.73 0 0 1-.24-.14c-.07-.06-.06-.1.02-.12l.17-.05c.06-.01.11 0 .16.06.06.07.15.1.28.08l.03-.03.02-.02a.06.06 0 0 0-.01-.07h-.02c-.15-.06-.24-.21-.27-.47.01-.03.07-.03.15-.02.04 0 .06-.01.07-.05l.03-.09.03-.03c.01-.01.02-.02.04-.01l.34.02.08-.01A.35.35 0 0 1 10.6 3Z" fill="#7E7E44"/><path d="M11 3.04c-.1.13 0 .27.28.42.09.04.16.05.23.01a.7.7 0 0 1 .33.12c.04.02.05.05.03.09 0 .03-.03.05-.06.06a.35.35 0 0 0-.2.08c-.03-.05-.08-.06-.14-.04-.03.02-.04.05-.02.08.05.14.19.23.2.33l-.05.05c-.06-.04-.11-.05-.16-.03-.04.02-.04.04-.01.07l.13.15c.02.02.04.05.04.08 0 .1-.03.19-.08.26a.12.12 0 0 0-.02.1c.02.1.05.19.09.26.01.03.04.04.07.04.14 0 .26.02.37.07.03.01.04.04.02.07-.1.15-.3.12-.46.11-.03 0-.06 0-.1.02-.1.08-.21.1-.31.09-.02-.14-.06-.21-.13-.22l-.38.13h-.03l-.42-.27a.13.13 0 0 1-.06-.09c-.03-.1-.1-.13-.2-.1-.22.04-.31.21-.53.22-.06 0-.07-.03-.03-.08a.41.41 0 0 0 .08-.34l.01-.05.03-.03c.12-.06.23-.14.33-.23.1-.1.23-.1.35-.16.01 0 .02 0 .03-.02l.02-.04v-.04a.08.08 0 0 0-.03-.03.34.34 0 0 1-.13-.18c0-.04 0-.07.03-.09a.55.55 0 0 0 .26-.32c.06-.22.13-.42.22-.58l.4.03Z" fill="#9D9B5C"/><path d="M11.5 3.47c-.06.04-.13.03-.22-.01-.28-.15-.37-.3-.28-.42.22-.05.43-.05.62-.02.06.01.07.04.05.1l-.16.35Z" fill="#7E7E44"/><path d="M9.67 3.22c.03.26.12.41.27.46l.02.01v.02a.06.06 0 0 1 0 .05v.02l-.04.03c-.13.02-.22-.01-.28-.08a.15.15 0 0 0-.16-.06l-.17.05c-.08.02-.09.06-.02.12.07.06.15.1.24.14.03.01.04.03.03.07-.04.1-.06.2-.05.3l-.03.03h-.07l-.01-.02v-.02c.01-.2-.07-.33-.26-.42a.12.12 0 0 0-.14.03.14.14 0 0 0-.03.04l-.16.47c0 .03-.02.03-.04 0a.28.28 0 0 1-.05-.2c.02-.12.14-.14.13-.29.23-.24.34-.42.7-.39.07.01.1-.02.07-.09-.04-.16-.03-.25.05-.27Z" fill="#55512B"/><path d="M8.42 3.9c0 .05.01.08.03.1l-.18.2c-.02.06-.05.09-.1.09l-.04-.01a.1.1 0 0 1-.04-.05c-.1-.19-.04-.34.17-.46l.04-.01s.02 0 .03.02l.02.03v.04c0 .03.02.05.07.05Z" fill="#9D9B5C"/><path d="M11.62 3.82c.09.11.12.23.09.35-.01.02-.03.03-.06.02l-.01-.13a.33.33 0 0 0-.14-.14.13.13 0 0 1-.05-.06c-.02-.03 0-.06.02-.08.06-.02.11-.01.15.04Z" fill="#676436"/><path d="M8.32 4.32c-.04-.02-.06-.05-.05-.11l.18-.2.07-.22c.1.03.15.1.14.21l-.01.05-.03.03-.3.24Z" fill="#55512B"/><path d="m7.23 4.65.04.02.03.02a.06.06 0 0 1 0 .07l-.03.02-.26.14c-.04.02-.05.01-.03-.03.01-.06 0-.1-.02-.13-.05-.06-.17-.03-.25-.06-.03 0-.04-.03-.04-.07.02-.28-.02-.4-.13-.37.15-.26.28-.18.38.24l.03.06.04.04c.05.02.09.05.12.09.02.02.04.02.06 0a.22.22 0 0 0 .06-.04ZM12.46 4.93l.01-.27v-.03l-.02-.02h-.05c-.13.07-.19.14-.17.2l-.11.04-.02.02a.05.05 0 0 0 0 .06l.02.02c.04.01.08.02.14.01a4.83 4.83 0 0 0-.3.11.1.1 0 0 0-.02.06c0 .03.02.05.05.05l.47-.01c.22.06.35 0 .4-.17l.02-.04a.48.48 0 0 1 .07-.05h.04c.07.02.09.07.07.14L13 5.2v.07l.04.01h.03l.26-.1c.16 0 .2.05.14.16a.6.6 0 0 1-.28.24v.02c0 .02 0 .02.02.01a.38.38 0 0 1 .36 0l.03.02a.07.07 0 0 1 0 .08l-.03.02c-.17.1-.31.1-.42 0h-.05l-.02.01v.03a.7.7 0 0 1-.11.34c-.05-.24-.12-.32-.2-.24l-.97-.13h-.01l-.01.01v.03c.23.47.58.76 1.06.88.14.06.27-.05.36 0a.1.1 0 0 1 .06.04c.01.03 0 .05-.02.07-.07.04-.08.1-.05.18l-.26-.03c-.02 0-.04.01-.03.05a.6.6 0 0 1-.08.43c-.06-.14-.13-.29-.21-.42a.13.13 0 0 0-.07-.06c-.04-.02-.06 0-.04.04.02.06.03.11.02.15 0 .03-.03.05-.06.04-.13 0-.25-.09-.37-.25-.02-.03-.02-.06 0-.09a.3.3 0 0 1 .08-.07.11.11 0 0 0 .05-.05.13.13 0 0 0-.04-.16c-.13-.1-.22-.1-.27-.03-.01.03-.03.04-.06.03-.05-.01-.08-.06-.08-.13a.3.3 0 0 0-.12-.23c-.04-.03-.05-.02-.04.03v.04c-.01.03-.03.04-.06.02-.16-.1-.43-.28-.37-.49v-.1l-.01-.13c.1.02.2-.01.32-.09a.14.14 0 0 1 .09-.02c.16.01.36.04.45-.11.03-.03.02-.06-.01-.07a.78.78 0 0 0-.37-.07c-.03 0-.06-.01-.07-.04a.91.91 0 0 1-.09-.27c0-.03 0-.06.02-.1a.42.42 0 0 0 .08-.25.13.13 0 0 0-.04-.08l-.13-.15c-.03-.03-.03-.06.01-.07.05-.02.1 0 .16.03.07.09.12.2.13.32 0 .06.02.06.04 0a.96.96 0 0 1 .27-.44c.03-.02.05-.03.08 0 .04.02.07.07.08.13v.02l.02.02h.03l.02-.01a.9.9 0 0 1 .26-.18h.05c.02 0 .03 0 .04.02a.1.1 0 0 1 .03.04.1.1 0 0 1 0 .05.75.75 0 0 1-.08.26c-.03.03-.02.06.02.07l.04.01c.02 0 .03.02.06.04.08.09.13.18.14.29 0 .03 0 .05-.04.05h-.33Z" fill="#7E7E44"/><path d="M12.46 4.93c-.06.05-.06.13 0 .24h-.47c-.03 0-.05 0-.05-.04l.02-.06.05-.03.25-.08c.05 0 .08-.03.09-.06 0-.05-.03-.08-.12-.09-.02-.06.04-.13.17-.2a.04.04 0 0 1 .05 0l.02.02V4.93Z" fill="#55512B"/><path d="M12.22 4.81c.1.01.14.04.13.09-.01.03-.04.06-.1.06-.05.01-.1 0-.13-.01l-.02-.02a.05.05 0 0 1 0-.06l.02-.02.1-.04Z" fill="#BF9A73"/><path d="M10.13 5.55c-.1.02-.19-.01-.23-.1-.02-.05-.04-.05-.06-.01l-.1.17v.05l.02.04c.05.05.13.04.23 0 .02-.02.04-.01.05.02l.01.02c0 .04 0 .06-.04.07-.32.08-.42-.03-.32-.32.03-.08.08-.12.14-.13.04 0 .06-.02.08-.05l.06-.07c.04-.04.05-.03.05.02a1 1 0 0 1-.01.1v.06l.03.02c.02 0 .04 0 .05-.02l.03-.05c.03-.03.05-.02.05.02s0 .1-.04.16Z" fill="#412F24"/><path d="M9.7 5.49c-.11.3 0 .4.3.32.04 0 .06-.03.05-.07v-.02c-.02-.03-.04-.04-.06-.03-.1.05-.18.06-.23 0a.07.07 0 0 1-.02-.03V5.6l.1-.17c.02-.04.04-.04.06 0 .04.1.12.13.23.11.02.08.02.15-.01.21v.03l.02.01.73-.03c.03.1.1.14.2.14.02 0 .05 0 .07.02.03.01.05.03.06.06a.18.18 0 0 1 .01.17c-.06.13-.14.2-.23.24-.03 0-.05 0-.07-.03l-.13-.24c-.01-.03-.04-.04-.07-.04a.25.25 0 0 0-.08.04c-.03.01-.05 0-.06-.03a.22.22 0 0 1-.01-.1c0-.03 0-.03-.03-.01l-.02.03v.03c-.02.13-.04.23-.07.3-.03.09-.06.09-.09 0a.89.89 0 0 1-.05-.24v-.02l-.01-.01h-.03l-.03.01-.01.02c-.04.11-.07.17-.1.18-.04.02-.06 0-.07-.04 0-.17-.11-.25-.31-.24-.05 0-.1-.02-.11-.09-.01-.03-.03-.04-.06-.03l-.3.1c-.13.01-.22.08-.28.2a.1.1 0 0 1-.03.04.1.1 0 0 1-.1 0 .1.1 0 0 1-.04-.03c-.04-.06-.02-.12.04-.2a.04.04 0 0 0 .01-.04l-.01-.04c0-.02-.02-.02-.03 0l-.12.12c-.02.03-.05.03-.08.02-.03-.02-.05-.02-.08 0l-.04.1c-.04.26-.27.14-.43.25-.09-.06-.1-.16-.03-.33.05.02.09-.01.12-.1.01-.04.03-.05.06-.04l.14.06c.04.01.07 0 .09-.03a.99.99 0 0 0 .18-.58c0-.05.02-.07.06-.07l.24.02c.06 0 .06.03.02.08l-.06.06c-.03.04-.02.06.03.05l.76-.04Z" fill="#676436"/><path d="M7.32 5.67c-.02.08-.05.13-.08.16l-.15.06c-.04.02-.05 0-.03-.04.04-.09 0-.15-.13-.19h-.01l-.01-.02a.04.04 0 0 1 0-.03c0-.02 0-.03.02-.03h.03c.1.06.22.1.36.1Z" fill="#26221C"/><path d="m12.79 5.86.13.19c.01.03 0 .06-.02.08-.12.12-.25.15-.38.07-.05-.03-.06-.02-.03.03.06.1.15.16.26.15l.09.03c.04.04.08.06.13.07l.02.01.01.03v.02l-.02.02-.13.09a1.54 1.54 0 0 1-1.06-.9v-.02h.02l.98.13Z" fill="#9D9B5C"/><path d="M12.98 6.1a2.72 2.72 0 0 0 .34.3.04.04 0 0 1-.01.05l-.07.04c-.05.03-.05.05 0 .08.05.04.12.06.19.06a.1.1 0 0 1 .04 0 .1.1 0 0 1 .04.03.11.11 0 0 1 .02.09v.04c0 .09-.04.13-.12.13l-.2.02c-.04-.08-.03-.14.04-.18.03-.02.03-.04.02-.07a.1.1 0 0 0-.06-.05c-.1-.04-.22.07-.36 0l.13-.08.02-.02a.05.05 0 0 0 0-.05h-.03a.34.34 0 0 1-.13-.08.13.13 0 0 0-.1-.03c-.1 0-.19-.04-.25-.15-.03-.05-.02-.06.03-.03.13.08.26.05.38-.07.03-.02.03-.05.02-.08a.62.62 0 0 0-.13-.19c.07-.08.14 0 .19.24Z" fill="#676436"/><path d="M9.27 6c.04.16 0 .36-.15.6a.2.2 0 0 0-.05-.03.03.03 0 0 0-.04 0l-.01.02v.02c.02.13.02.25-.02.36l-.02.02h-.06l-.22-.25c-.02-.02-.04-.02-.04.01l-.03.2-.24-.02c-.03 0-.04-.02-.03-.05l.08-.22v-.02c-.02 0-.02-.01-.03-.02l-.02.01a.55.55 0 0 0-.14.22c-.04.14-.07.14-.1 0l-.07-.44c.16-.11.39.01.43-.25l.04-.1c.03-.02.05-.02.08 0 .03.01.06 0 .08-.02l.12-.13c.01-.01.02 0 .03.01l.01.04V6c-.07.08-.09.14-.05.2l.03.04a.1.1 0 0 0 .1 0A.1.1 0 0 0 9 6.18c.06-.12.15-.19.28-.2ZM5.7 7.17c-.16-.05-.25-.13-.29-.23-.01-.03 0-.05.03-.07a.6.6 0 0 1 .28-.04c.04 0 .05 0 .05-.05l-.04-.18c-.12-.08-.08-.15.1-.23.04-.02.05 0 .03.05 0 .02-.02.04-.04.06-.02.03-.02.05.01.06h.05l.17-.18c.02-.02.04-.02.06-.02.03.02.03.03.01.06l-.1.1c-.03.04-.02.05.01.06.16.02.27 0 .34-.05h.03l.01.02v.02a.78.78 0 0 1-.16.15.07.07 0 0 1-.08 0c-.07-.03-.15-.04-.26-.02-.05 0-.05.03-.02.06l.1.1c.02.03.02.06 0 .09-.08.15-.18.23-.3.24ZM7.9 6.4c.16.1.17.25.04.41l-.04.03h-.03c-.02 0-.03-.02-.02-.04v-.06c.02-.1 0-.11-.07-.04-.12.12-.26.24-.45.34a.1.1 0 0 1-.1 0c-.04-.01-.06-.05-.05-.1 0-.03 0-.06.03-.08l.23-.25v.07l.03.02a.05.05 0 0 0 .04 0l.02-.02c.1-.14.22-.23.37-.28Z" fill="#55512B"/><path d="M11.7 6.92a1.8 1.8 0 0 1-.47.36c-.07.04-.12-.01-.15-.14 0-.07.06-.16.17-.27l.32-.27c.02-.02.04-.01.05.02l.08.3Z" fill="#676436"/><path d="M11.65 10.2a.14.14 0 0 0-.02.13h-.16a2.87 2.87 0 0 0-.2-.91.15.15 0 0 1 0-.07l.02-.24c.04-.23.07-.44.05-.68l-.04-.68a.5.5 0 0 0-.07-.22.1.1 0 0 0-.03-.06c.06-.04.1-.05.15-.03l.04.04.02.04a4.43 4.43 0 0 1 .02 1.74l.22.94Z" fill="#7E7E44"/><path d="M7.67 7.62a.19.19 0 0 0-.03.1H7.6v.02l.3.78c.09.48-.41.48-.6.5-.02-.41 0-.82.1-1.24a.65.65 0 0 1 .09-.24c.02-.03.04-.03.07-.02l.1.1ZM11.23 7.53a.5.5 0 0 1 .07.22c0 .23.02.45.04.68.02.24-.01.45-.05.68-.18-.16-.21-.33-.35-.47-.04-.34.14-.63.28-.9a.04.04 0 0 0 0-.05h-.04c-.03 0-.04.02-.03.02a.18.18 0 0 1-.04-.08.28.28 0 0 1 .12-.1Z" fill="#BF9A73"/><path d="m7.67 7.62.56.67c.02.03.03.06.03.1v.08c0 .06 0 .06.03 0l.04-.07a.09.09 0 0 1 .05-.05l.28-.08h.03l.02.03c.04.16.1.39.3.47.14.07.3-.06.5.02.02.01.05 0 .07-.02a.5.5 0 0 1 .3-.15.1.1 0 0 0 .06-.04.1.1 0 0 0 .02-.07l-.02-.26c0-.03.01-.04.04-.04.18.03.4.08.5-.07.17-.22.4-.37.63-.5l.04.07a1.6 1.6 0 0 0-.29.8c0 .06.02.1.08.13.03.02.05.04.08.03.02.07.06.14.1.2.09.07.15.16.17.24l-.03.24.01.07c.12.3.19.6.2.92l-.2.05a.06.06 0 0 0-.02.02l-.02.03v.16c0 .04 0 .06.04.06a.4.4 0 0 0 .14.02c.1-.03.13 0 .06.1l-.25.4c-.03.04-.13.12-.32.23a.12.12 0 0 1-.09.02l-.13.01v.04h.01l.38-.04c.12.12.2.24.25.38v.06c0 .02-.02.03-.03.04l-.52.22a.57.57 0 0 1-.5-.3c-.01-.03-.02-.03-.04-.01l-.02.02v.01c.11.24.28.39.52.45l.14.03c.04.01.06.04.04.08-.29.73-.9.74-1.5.89l-1.16.06-.74-.04c-.32-.17-.47-.33-.44-.5l.02-.49a.05.05 0 0 1 .02-.03.04.04 0 0 1 .04-.01c.44.08.76-.05.97-.38.03-.06.04-.1.03-.15-.01-.04-.03-.04-.06-.01-.26.32-.58.4-.96.24-.1-.16-.09-.33.02-.51.12.1.23.11.35.04.04-.02.04-.03 0-.05a1.17 1.17 0 0 1-.42-.25.22.22 0 0 1-.06-.22l.09-.25a.1.1 0 0 0-.01-.08c-.02-.03-.04-.05-.07-.05-.04 0-.06-.02-.06-.07.02-.4.05-.64.1-.72.13-.29.22-.56.25-.83.05-.05.09-.08.11-.07a.6.6 0 0 0 .41-.3l.07-.12c.01.03.02.05.04.05.03 0 .03-.01.02-.03l-.33-.83.03-.09Z" fill="#EBDBAA"/><path d="M10.94 8.64c-.06-.03-.08-.07-.08-.14.02-.26.12-.53.3-.79-.02 0-.01-.01.02-.03h.02l.01.01a.04.04 0 0 1 0 .04c-.13.28-.31.57-.27.9ZM7.64 7.71l.33.83c.01.02 0 .03-.02.03s-.03-.02-.04-.05l-.3-.78v-.02h.03Z" fill="#412F24"/><path d="M7.35 7.74c0 .03.02.05.06.04-.1.42-.12.83-.1 1.23-.02.27-.1.54-.25.83-.04.08-.07.32-.09.72 0 .05.02.07.06.07.03 0 .05.02.07.05a.1.1 0 0 1 0 .08l-.08.25a.22.22 0 0 0 .06.22c.13.12.27.2.42.25.04.02.04.03 0 .05-.12.07-.23.06-.35-.04-.01-.04-.06-.07-.15-.1l-.23-.46c0-.03-.03-.04-.06-.03a.83.83 0 0 1-.2.05c-.15 0-.15-.03-.01-.08l.22-.08a.1.1 0 0 0 .07-.07.5.5 0 0 0 0-.21l-.01-.04a.06.06 0 0 0-.04-.02l-.3-.03c-.01 0-.02-.01 0-.03l.02-.01c.11.02.22 0 .32-.03a.08.08 0 0 0 .06-.07c.07-.42.29-.75.32-1.16.02-.46.03-.9.19-1.38ZM11.63 10.33c.03.02.04.03.05.06 0 0 0 .03-.03.05-.04.04-.05.1-.04.19l-.17.49a.13.13 0 0 0 0 .1c.12.28.22.58.29.9l.06.18a.4.4 0 0 1 .01.23.04.04 0 0 0 .01.03l.02.01h.01l.08-.02c.03 0 .04 0 .03.03l-.01.03c-.03.02-.02.04 0 .05.02 0 .04 0 .05-.03.08-.09.17-.14.28-.16.04 0 .05.01 0 .05a43.25 43.25 0 0 1-.32.26.07.07 0 0 0 .02.08c.21.16.45.28.71.34 0 .06-.03.1-.06.11-.03.02-.05.01-.08 0a.52.52 0 0 0-.28-.13c-.15-.02-.28.07-.45.07l-.09.03a.53.53 0 0 1-.4.08c.15-.09.34-.15.42-.3.05-.1.05-.2 0-.3a.83.83 0 0 1-.12-.46l-.23-.97c0-.04-.03-.05-.06-.04a.58.58 0 0 0-.26.15l-.38.04h-.01v-.04a.23.23 0 0 1 .13 0l.09-.03c.19-.1.3-.19.32-.23l.25-.4c.07-.1.05-.13-.06-.1a.4.4 0 0 1-.14-.02c-.03 0-.05-.02-.05-.06l.01-.16s0-.02.02-.03l.03-.02.2-.05.15-.01Z" fill="#6E5E4E"/><path d="M11.62 12.3c.04.2 0 .34-.12.42a.16.16 0 0 0-.06.07c-.06.14-.13.23-.21.26a5.06 5.06 0 0 1-.94.25l-.02.03a.06.06 0 0 1-.06.03l-.8-.05c.6-.15 1.21-.16 1.5-.89.02-.04 0-.07-.04-.08l-.14-.03a.66.66 0 0 0 .62-.25l-.02-.02a.02.02 0 0 0-.01-.01h-.02a.5.5 0 0 1-.53.1l.52-.21c.01-.01.03-.02.03-.04v-.06a1.02 1.02 0 0 0-.25-.38.58.58 0 0 1 .26-.15c.03 0 .05 0 .06.04l.23.97Z" fill="#BF9A73"/><path d="M7.15 11.49c-.1.18-.11.35-.02.5-.15.23-.17.5-.06.84-.03.17.12.33.44.5a.84.84 0 0 1-.52-.2c-.11-.09-.12-.22-.15-.35-.01-.04-.03-.05-.07-.04-.1.03-.2.02-.28-.03.03-.04.05-.1.07-.17.01-.04.03-.05.06-.01l.1.1c.03.03.04.02.04-.01.03-.42.1-.83.24-1.22.09.02.14.05.15.09Z" fill="#A88066"/><path d="M7.07 12.83c-.1-.33-.09-.61.06-.83.38.16.7.08.96-.24.03-.03.05-.03.06.01.01.05 0 .1-.03.15-.2.33-.53.46-.97.38a.04.04 0 0 0-.04 0l-.01.02v.02l-.03.5Z" fill="#6E5E4E"/><path d="M10.77 12.14c.2.07.37.03.53-.1a.02.02 0 0 1 .03 0l.02.03a.66.66 0 0 1-.62.24.79.79 0 0 1-.52-.45l.02-.03c.02-.02.03-.02.04 0 .11.2.28.3.5.3Z" fill="#412F24"/><path d="M11.75 12.76c-.03.16-.07.28-.23.3-.18.03-.29.17-.48.21-.32.07-.52.13-.78.11a1.7 1.7 0 0 0-.47.03c-.29.06-.57.04-.91.05-.22.01-.41-.07-.63-.1l1.15-.05.81.05c.03 0 .05 0 .06-.03l.02-.03a5.06 5.06 0 0 0 .94-.25c.08-.03.15-.12.21-.26a.16.16 0 0 1 .06-.07c.12-.08.16-.22.12-.42.01.2.05.36.13.46Z" fill="#7E7E44"/><path d="M6.5 12.71c.07.05.16.06.27.03.04-.01.06 0 .07.04.03.13.04.26.15.36.15.12.32.18.52.19l.74.04c.22.02.41.1.63.1.34-.02.62 0 .91-.06.13-.03.29-.04.47-.03.26.02.46-.04.78-.1.2-.05.3-.19.48-.22.16-.02.2-.14.23-.3.04.1.04.2-.01.3-.08.15-.27.21-.41.3-.66.2-1.34.28-2.05.26a5.95 5.95 0 0 1-2.32-.32l-.17-.21a.08.08 0 0 0-.08-.03c-.22.05-.43.05-.65 0l.36-.14c.1-.03.1-.07.01-.1-.03-.02-.06-.06-.09-.11-.02-.05 0-.06.04-.04l.11.04Z" fill="#26221C"/><path d="m12.68 13.2.07.04c.13.2.45.23.66.22l.58.14.01.01v.03l-1.18-.08c-.08-.01-.1.02-.03.08.06.05.15.1.28.12l.01.02-.01.01c-.47-.02-.84-.02-1.14 0-.44.02-1.02.1-1.53.08-.51 0-1 0-1.46.03-.16 0-.26.09-.42.1H7.05c-.13 0-.16-.1-.27-.1a5.84 5.84 0 0 1-1.52-.13l.01-.01c.28-.01.5-.03.66-.06.04 0 .06-.03.09-.09.27.1.55.06.94.08.21.02.46.05.74.1.38.07.77.06 1.15-.05l.43-.12c.7.02 1.39-.07 2.05-.26.14.02.28 0 .4-.08a.16.16 0 0 1 .08-.03c.17 0 .3-.09.45-.07.1.01.2.05.28.12.03.02.05.03.08.01.04-.02.05-.05.06-.1Z" fill="#C0967D"/><path d="M6.96 13.3c.74.29 1.51.33 2.32.32l-.43.12c-.38.11-.77.12-1.15.05a6.16 6.16 0 0 0-.74-.1c-.4-.02-.67.02-.94-.08a.1.1 0 0 0-.1-.06 7.36 7.36 0 0 1-.65-.06c-.04 0-.06-.03-.06-.07 0-.02 0-.05.03-.07a.38.38 0 0 1 .1-.07.19.19 0 0 1 .12-.02c.01.06.07.07.16.05l.33-.1h.1c.3.11.6.14.91.09Z" fill="#A88066"/><path d="M10.98 10.51c-.1.13-.23.21-.4.22a.62.62 0 0 1-.44-.15.73.73 0 0 1-.24-.7.6.6 0 0 1 .1-.21c.1-.13.24-.21.4-.22.15-.01.32.04.45.15a.72.72 0 0 1 .23.7.6.6 0 0 1-.1.21ZM8.31 9.78c.12.13.18.3.18.5a.8.8 0 0 1-.22.5.68.68 0 0 1-.47.23.58.58 0 0 1-.45-.19.7.7 0 0 1-.18-.5.8.8 0 0 1 .21-.51c.13-.14.3-.22.48-.23.17 0 .33.07.45.2Z" fill="#000001"/><path d="M10.11 9.85c-.04.13 0 .26.1.3.08.02.18-.06.22-.19.04-.13 0-.26-.09-.3-.09-.02-.19.06-.23.19ZM7.45 10.02c-.07.14-.06.3.03.36s.22-.01.3-.16c.07-.14.06-.3-.03-.36-.08-.06-.22.02-.3.16Z" fill="#fff"/></svg>