<!-- by TradingView --><svg width="18" height="18" viewBox="0 0 18 18" xmlns="http://www.w3.org/2000/svg"><path fill="#9B856D" d="M0 0h18v18H0z"/><path d="M8.05 4.83a.6.6 0 0 1-.07.26c-.02.02-.04.03-.07.02h-.06a.05.05 0 0 0-.04.04l-.01.09a.12.12 0 0 1-.1.09.12.12 0 0 1-.12-.05l-.42-.57a.04.04 0 0 0-.04-.02l-.34.06a.13.13 0 0 1-.11-.04c-.16-.17-.2-.3-.14-.4l.37-.17a.14.14 0 0 1 .09 0c.08 0 .14-.02.18-.1A.07.07 0 0 1 7.24 4c.04 0 .07.03.07.08a5.15 5.15 0 0 0 .04.26l.03.03.67.46Z" fill="#ADAC22"/><path d="M6.53 4.3c-.06.1-.01.24.14.4a.13.13 0 0 0 .11.05l.34-.06a.04.04 0 0 1 .04.02l.42.57a.12.12 0 0 0 .13.05.12.12 0 0 0 .09-.1l.01-.08a.05.05 0 0 1 .04-.04h.06c.03.01.05 0 .07-.02a.6.6 0 0 0 .07-.26l.98.99c.08.07.14.16.19.25a.26.26 0 0 1-.18-.12A.09.09 0 0 0 9 5.9l-.24-.08a.1.1 0 0 1-.05-.04c-.16-.25-.46-.39-.7-.53a.05.05 0 0 0-.06.01l-.01.03c0 .03.25.35.34.48.1.16.26.29.4.4.08.07.07.1-.04.07l-.04.02a.06.06 0 0 0-.02.07c.03.1.14.13.23.1.16-.04.3-.05.46-.04l.04-.01.02-.03a.4.4 0 0 0 .02-.14c.36.37.69.75 1 1.14l.45.48c.22.24.4.52.5.83l.04.2-.58.78-.05.05c-.27.14-.54.31-.8.5a1.8 1.8 0 0 1-.44.2l-.46.23-.25.08-.28.09a1.26 1.26 0 0 1-.36-.78.1.1 0 0 0-.03-.06.1.1 0 0 0-.06-.03c-.5-.05-.99.11-1.47.47-.35-.4-.7-.82-1.05-1.25a2.43 2.43 0 0 1-.5-.92c-.04-.17.1-.34.04-.52-.08-.3-.02-.51.19-.66a.14.14 0 0 1 .08-.03h.14c.04 0 .06-.02.05-.06a.52.52 0 0 0-.1-.28c-.03-.03-.05-.03-.08 0l-.13.12c-.02.02-.04.02-.05-.01-.06-.14.03-.33.02-.48 0-.15 0-.3.02-.46a.74.74 0 0 1 .15-.38c.33-.44.67-.81 1.02-1.1.05-.05.1-.07.17-.06Z" fill="#B9CF75"/><path d="m9.22 6.07.13.15c0 .06 0 .1-.02.14l-.02.03a.07.07 0 0 1-.04 0c-.15 0-.3.01-.46.06-.09.02-.2 0-.23-.1 0-.04 0-.06.02-.08l.04-.02c.1.02.12 0 .04-.06-.14-.12-.3-.25-.4-.4-.1-.14-.34-.46-.34-.49v-.03a.05.05 0 0 1 .07 0c.24.13.54.27.7.52a.1.1 0 0 0 .05.04L9 5.9c.02 0 .03.02.04.04.04.07.1.1.18.12Z" fill="#E4F2DA"/><path d="M9.86 8.22c.04.21.1.39.16.53.08.18.3.34.42.47.04.05.03.07-.03.08-.36.04-.84.07-1.15-.14-.3-.19-.45-.77-.54-1.14a.04.04 0 0 1 .01-.04.04.04 0 0 1 .05 0c.31.17.65.24 1 .2h.05l.03.04Z" fill="#C8DD9D"/><path d="m5.68 8.32.23-.1a.08.08 0 0 1 .09.02c.13.12.24.25.33.39.13.2.13.53.25.77.1.2.06.24-.13.1-.33-.24-.6-.6-.82-1.04-.03-.06-.01-.11.05-.14Z" fill="#A5AF5E"/><path d="m10.76 9.65.45.01c.03 0 .05.02.06.05.28.66-.03 1.13-.54 1.54-.11.1-.1.15.05.15.2 0 .4.05.6.14l.02.02.01.03v.04l-.03.02-.26.14c-.1.05-.09.09 0 .11l.49.13a.69.69 0 0 1-.41-.05c-.04-.02-.05-.01-.03.03l.02.04c.01.04 0 .05-.04.05h-.33c-.05 0-.06-.02-.04-.05.06-.08.15-.11.27-.1l.03-.01-.01-.03c-.16-.03-.28.02-.34.15a.06.06 0 0 0 .03.08h.03c.28-.05.45-.01.5.12a.77.77 0 0 1-.44.37c-.08.02-.25.02-.52-.01-.2-.03-.4-.02-.6.01-.03 0-.04-.02-.04-.08l.33-.05c.05 0 .08-.04.1-.08v-.04c.02-.07-.01-.1-.08-.09-.22.03-.4.1-.52.24-.13.15-.33.2-.57.14-.22-.05-.33-.16-.57-.09-.09.01-.17 0-.24-.03a.1.1 0 0 1-.05-.06.28.28 0 0 0-.15-.17.08.08 0 0 0-.07 0c-.05.03-.08.07-.08.13-.1.02-.13.03-.08.05-.36-.4-.3-.63.19-.7.06.07.14.12.24.15a.09.09 0 0 0 .1-.05v-.04l-.1-.67c0-.03 0-.05.03-.07l.16-.1v.51a.03.03 0 0 0 .02.04h.05a.07.07 0 0 0 .06-.06l.1-.53c0-.03-.01-.05-.04-.05a.28.28 0 0 0-.12.03l.07-.07c.02-.02.02-.04-.01-.05l-.04-.02.06-.02.28-.1-.03 1.14c0 .06.02.07.05.02.03-.03.05-.08.05-.14a10.59 10.59 0 0 0 .38-.97.08.08 0 0 0-.05-.06H9.1c-.04 0-.07-.02-.1-.06l.46-.23-.12.59c-.06.24-.06.46-.05.71 0 .12.03.13.09.03.23-.43.22-.9.54-1.26a.05.05 0 0 1 .05-.02.06.06 0 0 1 .04.04c.03.09.07.16.12.24a.07.07 0 0 0 .06.02.07.07 0 0 0 .05-.02l.63-.61a.15.15 0 0 0 .03-.07c.05-.17-.02-.28-.2-.35l.05-.05Z" fill="#38322F"/><path d="M10.71 9.7c.18.07.25.18.2.35 0 .03-.02.05-.03.07l-.63.61a.07.07 0 0 1-.05.02.07.07 0 0 1-.06-.02.82.82 0 0 1-.12-.24l-.01-.02a.05.05 0 0 0-.05-.01l-.03.01c-.32.36-.31.83-.54 1.26-.06.1-.09.1-.1-.03 0-.25 0-.47.06-.71l.12-.6c.22-.07.37-.13.44-.19.26-.19.53-.36.8-.5Z" fill="#5D5755"/><path d="M13.42 12.4c-.53-.3-.9-.51-1.07-.66-.19-.16-.36-.4-.52-.73a5.78 5.78 0 0 0-.02-1.09 1.53 1.53 0 0 0-.15-.54 5.24 5.24 0 0 0-.28-.5c-.01-.02-.03-.02-.04 0l-.58.77.45.01c.03 0 .05.02.06.05.28.66-.03 1.13-.54 1.54-.11.1-.1.15.05.15.2 0 .4.05.6.14a.06.06 0 0 1 .03.05.06.06 0 0 1-.03.06l-.26.14c-.1.05-.09.09 0 .11l.49.13c.07-.16.16-.28.27-.37a.18.18 0 0 1 .27.05.6.6 0 0 0 .3.29c.02 0 .03.02.05.05.04.07.13.12.25.13.06.01.11.03.15.07.03.02.02.04-.01.05-.2.07-.29.2-.27.42 0 .01 0 .02.02.03l.02.01.02-.01c.05-.33.33-.34.6-.3.02 0 .03 0 .03.02v.02l-.01.01a.47.47 0 0 0-.34.2.05.05 0 0 0 0 .06l.03.03H13c.11-.12.25-.19.4-.2l.25.1.01.02v.03c-.11-.06-.21-.05-.3.03-.04.03-.04.05.02.06.1.01.17.04.22.07a.08.08 0 0 1 .04.07c0 .04-.02.06-.03.07a.06.06 0 0 1-.07.02.89.89 0 0 0-.44-.07.06.06 0 0 0-.05.05v.02l-.05.04-.12.02a.7.7 0 0 0-.22.05 55.43 55.43 0 0 1-.7.33c-.25.18-.24.34.04.47.1.06.21.02.32-.03l.21-.06c.4-.02.78-.12 1.12-.3.24-.11.31-.2.33-.32.06-.41-.13-.7-.57-.87Z"/><path d="m8.48 10.8-.06.02-.58.16c-.38.1-.62-.06-.97-.13-.06-.28-.17-.42-.3-.45.47-.36.96-.52 1.46-.47a.1.1 0 0 1 .06.03.1.1 0 0 1 .03.06c.03.3.15.56.36.78Z" fill="#A5AF5E"/><path d="M9.01 10.63c.03.04.06.06.1.06a.08.08 0 0 1 .08.03.08.08 0 0 1 .01.08 10.6 10.6 0 0 1-.37.92c0 .06-.02.11-.05.14-.03.05-.05.04-.05-.02l.03-1.13.25-.08Z" fill="#5D5755"/><path d="m8.42 10.82.04.02c.03 0 .03.03.01.05l-.07.07-.07.06-.16.1a.06.06 0 0 0-.03.07l.1.67a.08.08 0 0 1-.02.07.09.09 0 0 1-.08.02.52.52 0 0 1-.24-.14l-.58-.54a.09.09 0 0 0-.09-.02l-.2.04c-.15-.08-.2-.23-.16-.44.35.07.6.24.97.13l.58-.16Z"/><path d="m8.33 11.02.07-.06a.28.28 0 0 1 .12-.03c.03 0 .04.02.04.05l-.1.53a.07.07 0 0 1-.06.06h-.04a.04.04 0 0 1-.03-.02v-.52Z" fill="#5D5755"/><path d="M7.9 11.8c-.49.07-.55.3-.2.7.1.25 0 .44-.29.56-.27.1-.48.05-.63-.17-.17-.24.04-.37.26-.44.03 0 .06-.02.08-.04.09-.13.12-.23.08-.32-.17-.35-.22-.62-.16-.8l.2-.04c.03 0 .05 0 .08.02l.58.54Z" fill="#E5DACD"/><path d="m12.75 12.18-.61.22a.07.07 0 0 1-.07-.01 1.25 1.25 0 0 0-.63-.31c-.03-.01-.06 0-.08.02a.21.21 0 0 0-.07.16c-.05-.13-.22-.17-.5-.12a.06.06 0 0 1-.06-.02.06.06 0 0 1 0-.06c.06-.13.18-.18.34-.15v.03c0 .01 0 .02-.02.01-.12-.01-.2.02-.27.1-.02.03-.01.05.04.05h.33c.04 0 .05-.01.04-.05l-.02-.04c-.02-.04-.01-.05.03-.03.13.06.27.07.4.05.08-.16.17-.28.28-.37a.18.18 0 0 1 .27.05.6.6 0 0 0 .3.29l.05.05c.04.07.13.12.25.13Z" fill="#5D5755"/><path d="M9.69 12.55a.49.49 0 0 0-.14.15c.03-.1.02-.16-.03-.17.13-.13.3-.21.52-.24.07 0 .1.02.09.09l-.01.04a.12.12 0 0 1-.1.08l-.33.05Z" fill="#A59179"/><path d="M9.52 12.53c.05 0 .06.06.03.17-.14.09-.36.18-.65.28-.17.06-.29.06-.48.05-.1 0-.19-.1-.29-.27-.03-.07-.01-.1.06-.13l.2-.05c.23-.07.34.04.56.09.24.05.44 0 .57-.14Z" fill="#F9F1F5"/></svg>