<!-- by TradingView --><svg width="18" height="18" viewBox="0 0 18 19" xmlns="http://www.w3.org/2000/svg"><path fill="#03336A" d="M0 .03h18v18H0z"/><path fill-rule="evenodd" d="M9 15.03a6 6 0 1 0 0-12 6 6 0 0 0 0 12Zm0-1a5 5 0 1 0 0-10 5 5 0 0 0 0 10Z" fill="#0F9AFD"/><path d="M9 10.54 6.5 9.09 9 5.03v5.5Z" fill="url(#a)"/><path d="m9 10.54 2.5-1.45L9 5.03v5.5Z" fill="url(#b)"/><path d="M9 10.99 6.5 9.5 9 13.03v-2.04Z" fill="url(#c)"/><path d="m9 10.99 2.5-1.49L9 13.03v-2.04Z" fill="url(#d)"/><path d="M11.5 9.1 9 10.53v-2.6l2.49 1.13.01.02Z" fill="#D6F1FF"/><defs><linearGradient id="a" x1="6.67" y1="8.98" x2="9" y2="8.98" gradientUnits="userSpaceOnUse"><stop stop-color="#C2EDFF"/><stop offset="1" stop-color="#2AA4FC"/></linearGradient><linearGradient id="b" x1="9.15" y1="6.75" x2="11.77" y2="6.75" gradientUnits="userSpaceOnUse"><stop stop-color="#C7E9FF"/><stop offset="1" stop-color="#4AABE8"/></linearGradient><linearGradient id="c" x1="6.83" y1="9.6" x2="9" y2="9.6" gradientUnits="userSpaceOnUse"><stop stop-color="#AEDDFF"/><stop offset="1" stop-color="#22A0FE"/></linearGradient><linearGradient id="d" x1="9.15" y1="11.27" x2="11.46" y2="11.27" gradientUnits="userSpaceOnUse"><stop stop-color="#BEEBFF"/><stop offset="1" stop-color="#2189D1"/></linearGradient></defs></svg>