<!-- by TradingView --><svg width="18" height="18" viewBox="0 0 18 18" xmlns="http://www.w3.org/2000/svg"><path fill="#09BE8B" d="M0 0h18v18H0z"/><circle cx="9" cy="9" r="3" fill="#040C4A"/><path d="M4 9c0 2.76 2.27 5 5 5v-1c-2.1 0-4-1.88-4-4H4ZM9 5c2.1 0 4 1.88 4 4h1c0-2.76-2.27-5-5-5v1Z" fill="#040C4A"/><path d="M12.75 4.31V6h-.19V4.12h1.69v.2h-1.5Z" fill="#040C4A"/><path d="M10.33 7.5c.4 0 .67.44.67.67h-.33c0-.27-.28-.34-.34-.34H7.67c-.27 0-.34.23-.34.34v1.66c0 .27.23.34.34.34h2.66c.14 0 .34-.23.34-.34H11c0 .54-.5.67-.67.67H7.67c-.54 0-.67-.44-.67-.67V8.17c0-.4.44-.61.67-.67h2.66Z" fill="#fff"/><path d="M9 3a6 6 0 0 0-6 6h1c0-2.7 2.3-5 5-5V3ZM14 9c0 2.7-2.3 5-5 5v1a6 6 0 0 0 6-6h-1Z" fill="#040C4A"/></svg>