<!-- by TradingView --><svg width="18" height="18" viewBox="0 0 18 19" xmlns="http://www.w3.org/2000/svg"><path fill="#0B1539" d="M0 .3h18v18H0z"/><path d="m9.6 3.32-.33.05-1.23.24c-.6.11-1.16.3-1.7.54l-.73.22c.46-.32.94-.57 1.44-.74a6.44 6.44 0 0 1 2.56-.31Z" fill="#F6D882"/><path d="m12.46 14.13-1.94.78c0-.08.01-.14.05-.17a4.56 4.56 0 0 0 1.7-.77c.03-.02.03-.04.01-.06-.02-.02-.05-.03-.1-.04.03-.04.03-.06.01-.07.14.06.25.06.32 0a5.99 5.99 0 0 0 1.75-2.26 3.19 3.19 0 0 0 .49-1.6l.06-.43c.01-.35-.04-.68-.15-.98l-.2-.91-.22-.56a5.36 5.36 0 0 0-1.31-1.92 1.87 1.87 0 0 0-.54-.53.14.14 0 0 1-.06-.05.71.71 0 0 0-.22-.26 4.67 4.67 0 0 0-2.37-.86 3.04 3.04 0 0 1-.47-.07l.34-.05a6.09 6.09 0 0 1 5.3 4.93c.2 1.22.06 2.37-.4 3.45a5.36 5.36 0 0 1-2.05 2.43Z" fill="#F1C252"/><path d="M9.27 3.37c.16.04.31.06.47.07.23.02.39.03.47.05.7.13 1.33.4 1.9.8.1.08.17.16.22.27.02.02.03.04.06.05.21.14.4.32.54.53-.22-.17-.43-.33-.65-.48a5.42 5.42 0 0 0-4.84-.81c-.35.11-.76.28-1.24.5l.14-.2a7.4 7.4 0 0 1 1.7-.54l1.23-.24Z" fill="#B57A2A"/><path d="m6.34 4.15-.14.2-.47.3-.31.24-.4.06a5 5 0 0 0-.82.89l-.36.57-.15.29c-.05.1-.13.2-.22.26a5.85 5.85 0 0 1 2.14-2.59l.73-.22Z" fill="#F1C252"/><path d="M5.42 4.89a5.35 5.35 0 0 0-1.7 2.3 5.75 5.75 0 0 0-.2 3.6l.3.83c.03.1.07.2.14.3l.14.28.65.91a16.5 16.5 0 0 0-.79-.8.68.68 0 0 1-.09-.13 2.2 2.2 0 0 0-.04-.07c-.03-.04-.05-.04-.05.01l-.01.1a5.9 5.9 0 0 1-.3-5.26c.1-.07.17-.15.22-.26a5.96 5.96 0 0 1 1.26-1.71.14.14 0 0 1 .08-.04l.39-.06Z" fill="#C8933B"/><path d="m8.3 5.66-.01.04c0 .03-.03.04-.05.03a.1.1 0 0 1-.08-.07 6.82 6.82 0 0 0-.06-.23.1.1 0 0 1 0-.07l.11-.22a2.19 2.19 0 0 1 .77-.25L9 4.9v.01c-.1.04-.21.1-.36.2-.2.12-.32.3-.33.54Z" fill="#F9F1D4"/><path d="m8.21 5.14-.11.22a.1.1 0 0 0 0 .07l.06.23a.1.1 0 0 0 .08.07c.02 0 .04 0 .05-.03l.01-.04.56-.26h.03c.02.03.02.05-.01.08l-.33.27c-.02.01-.02.03 0 .04l.01.01h.02l.5-.3c.02-.02.04-.01.05 0l.02.03-.01.04-.41.24c-.02 0-.02.01 0 .02l.03.02h.02A.26.26 0 0 1 9 5.8l.02.03v.03a.22.22 0 0 1-.1.04.39.39 0 0 0-.15.08c-.03.03-.03.04.01.05l.1.02.09.2c-.02-.01-.03-.02-.05 0-.03.02-.03.04 0 .06l.4.28v.03a.73.73 0 0 1-.27.03c-.04 0-.04 0-.03.03l.2.35c.02.02.01.03 0 .04l-.02.01h-.02c-.1-.1-.2-.19-.31-.25a.39.39 0 0 0-.35-.03c-.02.01-.04 0-.06-.02l-.1-.17c-.01-.02-.03-.03-.06-.03a.1.1 0 0 0-.03.01l-.04.08a.5.5 0 0 1-.21.23c-.02-.46.15-.75.5-.88a.19.19 0 0 0 .09-.04.1.1 0 0 0 .01-.1c0-.04-.03-.04-.05-.02a.36.36 0 0 1-.29.07.98.98 0 0 1-.28-.1c-.03-.02-.05-.02-.06 0l-.02.04c-.01.02 0 .04.01.05l.09.05c.03.01.02.03 0 .05-.05.02-.1.02-.17 0l-.01-.07c-.01-.03-.03-.04-.06-.04-.1.01-.16.04-.2.06a.92.92 0 0 1-.33.23c-.3.06-.56.23-.8.53A1.48 1.48 0 0 0 6 6.37 1 1 0 0 1 6 6.34a.3.3 0 0 0 .17.03c.03 0 .05-.02.05-.04.02-.15.09-.24.18-.28.13-.05.13-.09 0-.12-.24-.05-.5-.14-.77-.25a6.57 6.57 0 0 1 1.58.22c.2-.07.4-.1.61-.1.04 0 .05-.02.04-.05-.06-.3.05-.5.34-.6Z" fill="#E9CEA5"/><path d="M13.1 5.64c-.33.24-.72.48-1.16.72a.1.1 0 0 0-.05.09l-.26.17c-.08.05-.1.1-.06.15l-.03.04a8.76 8.76 0 0 1-.53-.55c-.07-.08-.3-.23-.67-.44a.83.83 0 0 0-.3-.12 2.7 2.7 0 0 0-.35-.02c-.04 0-.04 0 0 .01.32.1.62.23.89.41.09.06.21.18.37.34l.23.23a.07.07 0 0 0-.03.03c-.01.02 0 .05.02.07.33.3.6.66.8 1.07.16.11.32.16.46.16.08 0 .09.03.03.09v.03c0 .03.02.05.04.06.2.07.37.06.51-.04.18-.12.24-.33.2-.65.11.12.12.3.03.54-.13.38-.38.58-.77.6a.27.27 0 0 1-.17-.05l-.24-.16c-.03-.02-.03-.03.01-.03l.36-.03c.05 0 .05-.01 0-.04-.08-.05-.14-.07-.18-.07-.22.03-.46.03-.7.02l-.3-.12-.07-.18c0-.03 0-.05.03-.06.05-.02.1-.01.15.03.16.15.32.22.46.2h.25c.16.01.17-.01.02-.07l-.79-.3a.9.9 0 0 1-.28-.18c-.13-.12-.28-.2-.45-.25a.91.91 0 0 1-.36-.28c-.17-.22-.23-.2-.2.08.02.07.02.2 0 .4a9.54 9.54 0 0 0-.11-.33.13.13 0 0 0-.05-.07c-.05-.02-.09 0-.1.06a1.2 1.2 0 0 0-.42-.58l-.01-.03c.01.02.03.03.05.01.03-.02.03-.04 0-.06l-.4-.29-.09-.2.5.08.23.02c.26 0 .5.1.7.34.04.03.03.04-.01.03l-.17-.04c-.15-.04-.17 0-.05.1.14.14.27.24.38.31.03.02.07.03.1.03.05-.01.05-.03.03-.06l-.12-.14c-.03-.02-.02-.04.02-.03l.24.06c.03.01.06 0 .1-.04.01-.02 0-.04-.01-.06l-.25-.19c-.03-.02-.03-.04.01-.05l.03-.01c.07-.03.07-.05 0-.08a3.84 3.84 0 0 0-1.65-.37.1.1 0 0 1-.03-.05c.03 0 .06-.02.08-.04.01 0 .02-.02.01-.03A.03.03 0 0 0 9 5.8a.26.26 0 0 0-.22.05h-.02l-.03-.02c-.02-.01-.02-.02 0-.02l.4-.24c.02 0 .02-.02.02-.04l-.02-.02c-.01-.02-.03-.03-.05-.01l-.5.3h-.02l-.01-.01c-.02-.01-.02-.03 0-.04l.33-.27c.03-.03.03-.05 0-.08h-.02c.26-.1.49-.15.67-.15.23 0 .45.07.64.23l-.01.02h-.03l-.27-.1a.63.63 0 0 0-.44 0c-.03 0-.03.01 0 .02l.7.19c.05 0 .07-.01.08-.03.01-.03.03-.03.04 0 .06.07.19.12.39.14l.4.03c.04 0 .04 0 0 .03l-.18.1c-.03.02-.03.04 0 .06.03.02.07.03.11.01.29-.1.57-.16.84-.19l1.3-.12Z" fill="#F2E3BE"/><path d="M5.64 5.68c.27.11.53.2.76.25.14.03.14.07.01.12-.1.04-.16.13-.18.28 0 .02-.02.04-.05.04a.3.3 0 0 1-.17-.03l-.96-.63a.15.15 0 0 0-.15-.02c-.02-.02-.02-.04-.01-.06l.04-.02c.25 0 .48.03.71.07ZM11.54 6.8c.02.05 0 .08-.04.1l-.05-.01-.27-.22a4.8 4.8 0 0 1-.23-.23 2.56 2.56 0 0 0-.37-.34 2.91 2.91 0 0 0-.9-.4c-.03-.02-.03-.02 0-.02.1 0 .22 0 .35.02.08 0 .19.04.31.12.38.21.6.36.67.44.17.2.35.37.53.55Z" fill="#F9F1D4"/><path d="M12.83 6.6c0-.04-.01-.06-.02-.06l-.03.03c-.17.3-.34.57-.51.8-.11.16-.14.15-.07-.03l.03-.26c.08-.04.04-.12-.11-.24-.03-.02-.03-.04 0-.06a.32.32 0 0 1 .09-.07c.05-.02.05-.04 0-.06a.42.42 0 0 1-.25-.16.1.1 0 0 0-.03-.03.08.08 0 0 0-.04-.01.1.1 0 0 1 .05-.09c.44-.24.83-.48 1.16-.72.04-.02.06-.01.05.03-.02.3-.13.61-.32.92ZM6.01 6.34l-.02.03a.56.56 0 0 0-.34.38c-.11.13-.12.29-.03.48.02.06.02.12 0 .2a3.76 3.76 0 0 1-.74-1.63.14.14 0 0 1 .02-.1c.05-.03.1-.03.15 0 .32.22.64.44.96.64ZM8.02 6.9c.17.63.6 1.08 1.27 1.36.12.04.27.07.44.08a.65.65 0 0 0-.08.35.3.3 0 0 0-.24-.2.13.13 0 0 1-.07-.04.53.53 0 0 0-.27-.14c-.07-.08-.09-.04-.06.12 0 .04.02.07.04.11l.2.47c0 .03.02.05.04.06.14.09.2.19.2.3-.01.08-.04.08-.09.02l-.59-.8-.06-.44a.11.11 0 0 0-.04-.07l-.24-.2c-.02-.04-.08-.04-.18-.03-.03-.11-.09-.18-.17-.2-.03-.02-.04 0-.03.03l.16.65.31.57a.44.44 0 0 1-.2-.18h-.04c-.01 0-.02.01-.01.03.06.12.08.25.06.38a.4.4 0 0 0 .04.23c.17.38.41.76.72 1.15.01.03.03.04.06.03l.18-.01c-.08 0-.08.04 0 .11l.11.1c.02.02.02.03-.01.03-.05 0-.1 0-.15-.02-.17-.05-.32-.1-.47-.17-.05-.03-.1-.09-.15-.18a.98.98 0 0 1-.02-.03c-.08-.16-.23-.25-.44-.27a.6.6 0 0 0-.3-.2 4.35 4.35 0 0 0-.74-.08A.52.52 0 0 1 7 9.4c0-.01 0-.02-.02-.01l-.04.01a47.86 47.86 0 0 0-.03.54c0 .23.07.45.22.67v.03l-.02.02h-.05a8 8 0 0 1-.2-.24 1.12 1.12 0 0 1-.16-.25 21.1 21.1 0 0 1-.2-.41H6.5v.03c.13.5.42.89.87 1.15.1.05.2.13.3.24.02.03.08.06.19.09l.25.02c.04 0 .04.01.01.03a.3.3 0 0 1-.13.03c-.2 0-.4 0-.62-.02-.03-.03-.09-.06-.17-.07 0-.03.04-.06.12-.09.03 0 .03-.02 0-.03l-.45-.38c-.25-.34-.44-.7-.57-1.1a.46.46 0 0 1-.02-.22 30 30 0 0 1 .04-.26c0-.03.02-.03.04-.01l.07.06.02.01.02-.01a.06.06 0 0 0 .02-.04c0-.16.04-.3.1-.44a.09.09 0 0 0 0-.08.24.24 0 0 0-.1-.1l.14-.41c.05.03.07.08.06.17l-.04.22a.13.13 0 0 0 0 .08l.2.56c.01.02.02.03.04.03s.04 0 .05-.02c.07-.12.1-.24.08-.36 0-.02 0-.04.02-.06l.02-.02.02-.02a.06.06 0 0 0 .02-.05.68.68 0 0 1 .08-.42c.07-.12.1-.12.08.03a.8.8 0 0 0 0 .27v.44c0 .02.01.03.03.02l.03-.01c0 .02.02.04.04.06l-.02.16c0 .03 0 .05.03.07l.08.04-.03.02c-.01.01 0 .02.01.03l.62.32c.02 0 .02.03.02.06v.03c-.01.03 0 .06.03.08a.1.1 0 0 0 .1.02.53.53 0 0 1 .18-.03c.03 0 .05.02.07.04.06.06.1.1.12.1.06.03.07.01.03-.04l-.65-.86a.17.17 0 0 0 .04-.18c0-.02 0-.03.02-.03l.04-.02.02.01.05.16c.05.1.09.1.1-.01 0-.04 0-.1-.03-.17a.54.54 0 0 1-.04-.16c0-.22-.05-.45-.16-.68a.05.05 0 0 0-.04-.03c-.02 0-.04 0-.05.02a.79.79 0 0 0-.11.6c-.04-.08-.07-.2-.1-.37l.17-.34a.4.4 0 0 0 .04-.16c0-.05.02-.09.03-.11.01-.04 0-.06-.04-.05-.06.01-.13.09-.2.23a.05.05 0 0 1-.04.03H7.6c-.02 0-.03-.02-.02-.04l.21-.34.15-.89c.01-.08-.01-.1-.08-.05h-.08c-.04-.01-.04-.03-.01-.05l.35-.3c.05-.05.05-.07-.02-.06-.15.01-.23-.02-.25-.1.07.01.12 0 .16-.01.03-.02.04-.04 0-.05l-.08-.05c-.02-.01-.02-.03-.01-.05l.02-.03c.01-.03.03-.03.06-.02.12.06.21.1.28.11.1.02.2 0 .29-.07.02-.02.04-.02.05.01a.1.1 0 0 1-.01.1.19.19 0 0 1-.08.05c-.36.13-.53.42-.51.88Z" fill="#CF8E72"/><path d="M7.85 6.03c.02.08.1.11.25.1.07 0 .07.01.02.05l-.35.31c-.03.02-.03.04 0 .05h.09c.07-.05.1-.03.08.05l-.15.89a.52.52 0 0 0-.08-.2.07.07 0 0 1 0-.08l.1-.19c.02-.02.01-.04 0-.07l-.16-.14c-.02-.03-.05-.03-.08-.02-.21.11-.37.25-.46.4l-.21.39c-.1.17-.08.2.07.05l.2-.2h.08c.04 0 .04.01.02.03-.31.29-.42.7-.31 1.26 0 .03.02.05.05.05h.04l-.02.02a.07.07 0 0 0-.02.06.57.57 0 0 1-.08.36.04.04 0 0 1-.05.02.04.04 0 0 1-.04-.03l-.2-.56a.13.13 0 0 1 0-.08l.04-.22c.01-.09 0-.14-.06-.17.05-.19.1-.37.17-.56a.93.93 0 0 1 .22-.34v-.02l-.05-.02h-.03c-.22.26-.37.53-.47.83a.13.13 0 0 1-.05.06l-.04.03a.49.49 0 0 0-.14.12l-.34.47c-.03.04-.02.05.03.03.05-.02.1-.07.16-.16a.14.14 0 0 1 .09-.06h.03v.04c-.08.14-.17.23-.29.27-.12.07-.28.14-.48.2-.08.03-.14.09-.17.18l-.2.01c-.04 0-.05-.01-.02-.04l.32-.31c.01-.02 0-.03-.01-.03h-.19c-.06 0-.06 0 0-.03l.25-.1v.04c0 .03.02.04.06.03.2-.09.36-.21.5-.39a4.95 4.95 0 0 0 .45-.7c-.01-.06-.04-.08-.1-.04 0-.03-.01-.06-.04-.07 0-.02 0-.04.02-.06.03-.04.06-.04.1 0l.07.07c.02.02.04.02.05 0l.24-.3c.07-.1.16-.2.25-.26l.46-.35c.16-.12.15-.15-.04-.07l-.3.06c-.04 0-.04 0-.01-.04a2.56 2.56 0 0 1 .62-.43v-.03c0-.02 0-.03-.02-.02-.34.08-.62.26-.84.55a20.26 20.26 0 0 0-.2.27l-.02-.04-.02-.06c.16-.26.36-.5.6-.7a.92.92 0 0 0 .35-.22c.03-.02.1-.05.2-.06.02 0 .04 0 .05.04l.01.08Z" fill="#DEAB85"/><path d="M8.93 5.9c0 .02.02.04.03.05l.05.01c.56 0 1.1.12 1.6.36.07.03.07.05 0 .08h-.03c-.04.02-.04.04 0 .06l.24.19c.02.02.02.04 0 .06-.03.04-.06.05-.09.04a3.37 3.37 0 0 0-.24-.06c-.04 0-.05 0-.02.03l.12.14c.02.03.02.05-.02.06-.04 0-.08 0-.11-.03-.1-.07-.24-.17-.38-.31-.12-.1-.1-.14.05-.1l.17.04c.04.01.05 0 .02-.03a.93.93 0 0 0-.71-.34c-.1 0-.16 0-.22-.02a8.01 8.01 0 0 0-.5-.08l-.11-.02c-.04 0-.04-.02-.01-.05a.39.39 0 0 1 .16-.08ZM6.28 7.6l-.33.41a.16.16 0 0 0-.03.08c0 .03-.02.05-.04.07a52.73 52.73 0 0 0-.3.33c-.02.04-.01.06.03.07h.07c.27-.3.49-.6.64-.9.06-.03.09-.01.1.05v.04c-.12.2-.27.43-.45.66-.14.18-.3.3-.5.39-.04 0-.05 0-.06-.03v-.05L5.4 8.7c.05 0 .09-.02.11-.04.03-.02.03-.04.02-.07-.03-.06-.02-.1.03-.15a.1.1 0 0 0 .03-.06v-.03l.05-.06a.18.18 0 0 0 .05-.04c.02-.02.02-.05 0-.07-.07-.05-.06-.1 0-.17l.12-.12c.3-.33.51-.71.64-1.16.24-.3.5-.47.8-.53-.25.2-.45.43-.6.7v.05l.03.04v-.01l.2-.26c.22-.29.5-.47.84-.55.02 0 .03 0 .03.02v.03l-.02.01c-.25.13-.45.27-.61.42-.03.03-.03.04.01.04l.3-.06c.19-.08.2-.05.04.07L7 7.05c-.09.07-.18.15-.25.26l-.24.3c-.01.02-.03.02-.05 0l-.08-.08c-.03-.03-.06-.03-.1.01a.12.12 0 0 0-.01.06Z" fill="#F9F1D4"/><path d="M5.99 6.37c.18.1.34.22.46.36-.13.45-.34.83-.64 1.16a.46.46 0 0 0-.4.24l-.24.1c-.06.01-.07 0-.04-.05a1.62 1.62 0 0 1 .66-.46c.03-.02.03-.03.01-.06l-.17-.23a.44.44 0 0 0 0-.2c.18-.1.28-.27.3-.54 0-.02 0-.04-.02-.05a.05.05 0 0 0-.05 0l-.2.11c.05-.18.16-.3.33-.38Z" fill="#DFDAD6"/><path d="m12.23 7.08-.66-.3c-.04-.06-.02-.1.06-.16l.26-.17h.04l.03.04c.07.08.15.14.24.16.06.02.06.04 0 .06a.32.32 0 0 0-.09.07c-.02.02-.02.04 0 .06.16.12.2.2.12.24Z" fill="#F9F1D4"/><path d="m12.83 6.6-.1.2-.32.52-.26.34a.7.7 0 0 1-.19.18c-.2-.41-.46-.77-.8-1.07-.02-.02-.02-.05 0-.07 0-.01 0-.02.02-.03l.27.22h.05c.04 0 .06-.04.04-.08a.1.1 0 0 0 .03-.04l.66.31c0 .13-.02.21-.03.26-.07.18-.04.2.07.04a7.95 7.95 0 0 0 .54-.84c.01 0 .02.02.02.06Z" fill="#E9CEA5"/><path d="M9.33 6.62c.17.11.3.3.42.58.1.2.16.4.19.63 0 .05.02.06.05.03l.03-.02h.05c.2.07.42.1.63.06.03 0 .04.01.03.04v.03l-.02.01-.64.1c-.09 0-.24-.04-.44-.1a3.1 3.1 0 0 0-.17-.07c-.19-.17-.4-.3-.65-.4-.04-.02-.06 0-.06.03l-.03.1c0 .03 0 .05.02.08l.3.29c.18.08.26.16.25.25A2.01 2.01 0 0 1 8.02 6.9a.5.5 0 0 0 .2-.23l.05-.08h.03c.03-.01.05 0 .06.02l.1.17c.02.03.04.03.06.02.11-.04.22-.03.35.03.1.06.21.14.3.25h.03l.02-.01c.01 0 .02-.02 0-.04l-.2-.35c-.01-.03 0-.04.03-.03.1 0 .19 0 .28-.03ZM5.62 7.23c-.1-.19-.08-.35.03-.48l.2-.11h.06c.02.01.03.03.02.05-.02.27-.12.45-.3.54Z" fill="#F9F1D4"/><path d="m14.14 7.08-1 .23c-.26.06-.5.06-.73 0l.33-.5c.38.04.76 0 1.12-.12.08-.02.13 0 .16.08l.12.31Z" fill="#2B3451"/><path d="m7.8 7.48-.22.34c-.01.02 0 .04.02.04h.04c.02 0 .04 0 .04-.03.07-.14.14-.22.2-.23.04 0 .05 0 .04.05a.49.49 0 0 0-.03.11.4.4 0 0 1-.04.16c-.08.13-.13.24-.16.34l-.38.76h-.03c-.02.02-.03.01-.03-.01v-.44a.8.8 0 0 1 0-.27c.02-.15 0-.15-.08-.03a.68.68 0 0 0-.08.42c0 .02 0 .04-.02.05a.1.1 0 0 1-.02.02H7a.07.07 0 0 1-.05-.05c-.1-.55 0-.97.3-1.26.03-.02.03-.03 0-.03H7.16l-.2.2c-.15.14-.17.12-.07-.05l.21-.38c.1-.16.25-.3.46-.4.03-.02.06-.02.08 0l.15.15c.02.03.03.05.01.07l-.1.2a.07.07 0 0 0 0 .07c.04.06.07.13.08.2Z" fill="#F9F1D4"/><path d="M5.6 7.39a.1.1 0 0 1 .03.04l.17.23c.02.03.02.04 0 .06l-.04.01c-.32.16-.53.3-.63.45-.03.05-.02.06.04.04l.25-.1.16-.02c.03 0 .04 0 .03.03l-.21.57v.02l-.25.1c-.05.03-.05.04.01.04h.19c.02 0 .02.01 0 .03l-.3.3c-.04.04-.03.05.02.05h.19c.04 0 .07.02.1.04.01.04 0 .07-.02.09l-.3.22c-.03.01-.02.02 0 .03.09 0 .16 0 .22-.03l.4-.17c.03-.01.04 0 .04.03 0 .01 0 .03-.02.04a.07.07 0 0 0-.04.06l.01.32c-.17 0-.3.04-.39.13-.5.5-.98 1.04-1.44 1.62l-.3-.84c.35-.37.59-.82.71-1.34.2-.85.36-1.39.45-1.6.12-.3.27-.6.44-.89a.05.05 0 0 1 .05-.03c.02 0 .04.02.05.04.08.16.2.3.37.43Z" fill="#161E42"/><path d="M10.57 7.34c.05.06.1.12.16.16v.03c.01.03 0 .05-.02.07-.03.02-.05.02-.08 0a8.26 8.26 0 0 1-.33-.21c-.03.01-.03.04 0 .06l.04.05c.02.02.02.04-.01.05-.17.07-.28.08-.32.03v-.04c.02-.2.02-.33 0-.4-.03-.27.03-.3.2-.08.1.12.21.21.36.28Z" fill="#F9F1D4"/><path d="m14.24 7.06.22.56-.1.01-1.66 1.55-.42-.57s0-.02.02-.03c.05.03.1.05.17.04.39-.01.64-.21.77-.59l1-.62a.06.06 0 0 0 .03-.07.65.65 0 0 0-.1-.26l.07-.02Z" fill="#2B3451"/><path d="M14.14 7.08h.03c.06.08.09.17.1.26 0 .03 0 .06-.03.07l-1 .62c.1-.24.08-.42-.03-.54l-1.06.17.26-.34c.22.05.47.05.72 0l1-.24Z" fill="#4C536B"/><path d="m10.02 7.54-.01.04c-.03.09 0 .14.06.18.13.07.3.1.48.06l.46-.07a.26.26 0 0 1-.08.1c-.08.05-.07.07.03.07.08 0 .14-.03.19-.09.02-.03.01-.05-.02-.06a.28.28 0 0 0-.12-.02.74.74 0 0 0-.28-.25.65.65 0 0 1-.16-.16c.17.05.31.13.45.25.1.09.2.15.28.18l.79.3c.14.06.14.08-.02.08h-.25c-.14.01-.3-.06-.46-.2-.05-.05-.1-.06-.15-.04-.03.01-.04.03-.03.06l.06.18c-.03.04-.08.03-.13-.02-.02-.02-.05-.02-.07 0-.02.01-.03.04-.02.07 0 .04.04.11.1.22v.03l-.03.01h-.02a.48.48 0 0 1-.12-.19c0-.03-.03-.04-.06-.03l-.34.1c-.16.04-.16.07 0 .1.3.06.54.24.75.53l-.46-.01a1.46 1.46 0 0 0-.98-.48.53.53 0 0 0-.13-.14 1.3 1.3 0 0 1-.44-.08c0-.09-.07-.17-.25-.25.14-.06.28-.1.42-.1l.17.06c.2.07.35.1.44.1a4.98 4.98 0 0 0 .66-.1v-.03c.01-.03 0-.04-.03-.04-.21.03-.43.01-.63-.06h-.05l-.03.02c-.03.03-.05.02-.05-.03a1.7 1.7 0 0 0-.2-.63c.02-.06.06-.08.1-.06.03.02.05.04.06.07l.12.33Z" fill="#DEAB85"/><path d="m6.62 8.16-.13.4-.1.2-.07.04-.63.33-.02-.02v-.02c.1-.05.19-.13.24-.24.12-.04.21-.13.29-.27v-.03a.03.03 0 0 0-.03-.02.14.14 0 0 0-.1.07.38.38 0 0 1-.15.16c-.05.02-.06.01-.03-.03l.34-.47a.49.49 0 0 1 .14-.12.67.67 0 0 0 .04-.03.13.13 0 0 0 .05-.06c.1-.3.25-.57.47-.83h.03l.04.02c.02 0 .02.02 0 .02-.1.1-.16.22-.2.34a7.9 7.9 0 0 0-.18.56ZM10.73 7.5c.12.06.21.15.28.25a41 41 0 0 0-.46.07.74.74 0 0 1-.48-.06c-.07-.04-.09-.1-.06-.18.04.05.15.04.32-.03.03-.01.03-.03.01-.05l-.05-.05c-.02-.02-.02-.05 0-.06h.05l.3.21c.02.02.04.02.07 0a.06.06 0 0 0 .03-.07l-.01-.03ZM9.46 7.91c-.14 0-.28.04-.42.1l-.3-.3a.07.07 0 0 1-.02-.07l.03-.1c0-.04.03-.05.06-.03.24.1.46.23.65.4Z" fill="#F2E3BE"/><path d="M13.21 7.5c.04.3-.02.52-.2.64-.14.1-.3.11-.5.04a.06.06 0 0 1-.05-.06V8.1c.06-.06.04-.09-.03-.09a.84.84 0 0 1-.47-.16.7.7 0 0 0 .19-.18l1.06-.17Z" fill="#777C90"/><path d="M6.32 7.67c-.15.3-.37.6-.64.89H5.6c-.04-.01-.05-.03-.02-.06a52.64 52.64 0 0 1 .33-.41c0-.03.02-.06.03-.08l.33-.4c.03 0 .04.03.04.06Z" fill="#B57A2A"/><path d="M8.28 7.85c-.01.14 0 .29.06.44.01.03 0 .05-.03.05h-.06l-.16-.66c-.01-.04 0-.05.03-.04.08.03.14.1.16.21Z" fill="#F9F1D4"/><path d="m14.36 7.63.08.45c0 .03 0 .05-.02.07-.4.4-.7.78-.87 1.13l-.77 1.47c-.13.26-.3.51-.5.77a21 21 0 0 1-1.1 1.3l-.17-.19a.65.65 0 0 1-.05-.23v-.19c.02-.02.03-.03.06-.02l.38.1.02-.03c0-.02 0-.02-.02-.03-.28-.06-.43-.24-.44-.54 0-.07.03-.11.1-.12.07 0 .12-.04.16-.12a.1.1 0 0 1 .05-.05c.24-.11.37-.28.42-.5 0-.02.02-.03.05-.02.05.01.1.04.13.08h.03c.02-.01.02-.02.01-.04a.6.6 0 0 1-.15-.28c.25.04.46.05.65.04.13-.01.14-.05.02-.1-.1-.05-.2-.14-.3-.26-.03-.02-.03-.04 0-.06l.41-.32a.56.56 0 0 1-.12-.26.14.14 0 0 0-.04-.08.22.22 0 0 1-.04-.07c-.01-.04 0-.05.04-.06h.39a.4.4 0 0 0 .17-.04c.03-.01.03-.03 0-.05l-.24-.2 1.66-1.55Z" fill="#161E42"/><path d="M11 7.75c.05 0 .1 0 .13.02.03.01.04.03.01.06-.04.06-.1.08-.18.09-.1 0-.1-.02-.03-.07a.26.26 0 0 0 .08-.1Z" fill="#F9F1D4"/><path d="M8.47 7.88c-.13.01-.13.14-.02.38.05.1.17.2.36.34l.6.79c.04.06.07.06.08-.02 0-.11-.06-.21-.2-.3a.13.13 0 0 1-.05-.06 12.24 12.24 0 0 0-.23-.58c-.03-.16 0-.2.06-.12-.01.05 0 .1.04.14.02.02.03.04.03.07l.03.2c.01.04.02.07.05.1l.21.2.05.02.05-.01c.03 0 .05 0 .05.04l-.03.38c0 .04.01.06.06.06l.02.1c0 .04-.02.05-.05.04a1.3 1.3 0 0 1-.74-.44c-.06-.1-.15-.2-.28-.31l-.31-.57.06.01c.03 0 .04-.02.03-.05a.96.96 0 0 1-.05-.44c.1-.01.16 0 .18.03Z" fill="#E9CEA5"/><path d="M5.81 7.89 5.7 8c-.07.06-.08.12-.01.17.02.02.02.05 0 .07a.18.18 0 0 1-.05.04.08.08 0 0 0-.04.06v.03a.1.1 0 0 1-.04.06c-.05.04-.06.1-.03.15.01.03 0 .05-.02.07-.02.02-.06.04-.11.04l.21-.57c.01-.03 0-.04-.03-.03l-.16.03a.46.46 0 0 1 .4-.24Z" fill="#CF8E72"/><path d="m8.47 7.88.24.2c.03.02.04.05.04.07l.06.45c-.2-.14-.31-.25-.36-.34-.11-.24-.1-.37.02-.38Z" fill="#F9F1D4"/><path d="m7.94 9.12-.16-.49a.79.79 0 0 1 .1-.6.05.05 0 0 1 .06-.02c.02 0 .03.01.04.03.1.23.16.46.16.68l.04.16.03.17c-.01.11-.05.12-.1.01a1.37 1.37 0 0 1-.05-.16H8c-.02.01-.02.02-.02.04.03.07.01.13-.04.18Z" fill="#F2E3BE"/><path d="m11.02 8.01.01.01c0 .04-.03.07-.1.1-.08.04-.18.06-.29.08l-.03.01a1.2 1.2 0 0 1-.3.02c-.08 0-.12-.03-.13-.06v-.01l.84-.15Z" fill="#F9F1D4"/><path d="m11.24 8.15.3.12.43.5c.12.13.2.26.23.39l.08.3c.02.08.03.14.02.2-.02.09-.08.13-.19.12.01-.1 0-.24-.06-.4-.04-.13-.06-.22-.06-.28a.07.07 0 0 0-.05-.06c-.03-.02-.04-.05-.04-.09 0-.03 0-.05-.02-.07l-.17-.17c-.02-.02-.03-.02-.03.02l.13.86a.4.4 0 0 1-.02.23h-.03a.04.04 0 0 1-.03-.03c-.05-.33-.2-.6-.43-.82-.2-.3-.46-.47-.75-.53-.16-.03-.16-.06 0-.1l.34-.1c.03 0 .05 0 .06.03.03.07.07.14.12.19h.02l.03-.01v-.03a.8.8 0 0 1-.1-.22c0-.03 0-.06.02-.07.02-.02.05-.02.07 0 .05.05.1.06.13.02Z" fill="#E9CEA5"/><path d="M11.54 8.27c.25.01.49 0 .71-.02.04 0 .1.02.18.07.05.03.05.04 0 .04l-.36.03c-.04 0-.04.01 0 .03l.23.16-.02.03-.15-.03c-.05 0-.06.01-.02.06l.12.16-.01.05.02.1c.05.08.11.15.18.2a10.59 10.59 0 0 1 .35.31l-.4.01c-.03 0-.04.02-.03.06l.04.07c.02.02.04.05.04.08.01.08.05.17.12.26a.5.5 0 0 1-.24-.08c-.03-.03-.06-.02-.07.01a.6.6 0 0 1-.11.16c-.04.03-.05.03-.04-.02l.04-.23c.1.01.16-.03.18-.13a.44.44 0 0 0-.02-.19l-.08-.3a.96.96 0 0 0-.23-.4 12.6 12.6 0 0 1-.43-.49Z" fill="#DEAB85"/><path d="M7.69 8.26c.02.17.05.29.09.37l.16.5.65.85c.04.05.03.07-.03.04a.48.48 0 0 1-.12-.1.12.12 0 0 0-.07-.04c-.04 0-.1 0-.19.03a.1.1 0 0 1-.1-.02c-.02-.02-.03-.05-.02-.08v-.03c0-.03 0-.06-.02-.06l-.62-.32c-.02 0-.02-.02 0-.03l.02-.02c.18.09.35.15.5.2.16.05.18.02.06-.1-.08-.07-.17-.2-.25-.38a4.08 4.08 0 0 0-.18-.3c-.01 0-.02 0-.03.02l-.19.29a.12.12 0 0 1-.04-.06l.38-.76Z" fill="#9F5F52"/><path d="M9.07 8.31c.1.02.2.07.27.14l.07.04c.12.02.2.08.24.2l.48.61c.02.02.02.04-.01.05l-.38.12-.13.04c-.05 0-.07-.02-.06-.06l.03-.38c0-.03-.02-.05-.05-.04h-.05l-.05-.01-.21-.2a.15.15 0 0 1-.05-.1l-.03-.2a.14.14 0 0 0-.03-.07c-.04-.05-.05-.1-.04-.14Z" fill="#F4D7C0"/><path d="m9.73 8.34.13.14.1.13c.13.4.3.73.54 1 .1.1.22.14.37.1.03 0 .04.01.04.04 0 .09-.04.16-.09.24 0-.06-.02-.1-.08-.12a11.9 11.9 0 0 0-.2-.07l-.3-.34c-.02-.02-.04-.03-.07-.02l-.33.13a.32.32 0 0 1-.1-.1l.38-.12c.03 0 .03-.03.01-.05l-.48-.61c0-.15.03-.27.08-.35Z" fill="#9F5F52"/><path d="m10.84 8.96.1.14c.02.01.01.03 0 .04l-.02.01h-.05c-.32-.13-.62-.31-.9-.54l-.1-.13c.4.04.72.2.97.48Z" fill="#E9CEA5"/><path d="M14.26 11.54c.2-.55.34-1.03.4-1.43.05-.44.06-.97 0-1.58a2.57 2.57 0 0 1 .09 1.41 3.19 3.19 0 0 1-.49 1.6Z" fill="#C8933B"/><path d="m6.85 10.76-.16-.09h-.01l-.02.02v.03l.2.19c.02.02.02.05.01.08-.04.17-.03.3.06.42a.3.3 0 0 0-.07.16c0 .03-.01.05-.04.04a.05.05 0 0 1-.04-.03.91.91 0 0 1-.09-.44c0-.02 0-.04-.02-.05a.05.05 0 0 0-.05 0c-.1.06-.16.08-.21.06l.16-.2a.07.07 0 0 0 0-.08.1.1 0 0 0-.04-.05c0-.01 0-.03-.04-.05.1-.15.07-.29-.08-.42a.81.81 0 0 0-.23-.22c-.06-.05-.1-.1-.1-.17a.05.05 0 0 0-.03-.05l-.06.01c-.07.07-.08.18 0 .32v.02c.01.04 0 .05-.03.06-.03 0-.06-.01-.08-.03l-.23-.42v-.32c0-.03 0-.05.03-.06l.02-.04c0-.03-.01-.04-.04-.03l-.4.17a.47.47 0 0 1-.21.03c-.03 0-.04-.02-.02-.03l.3-.22c.04-.02.04-.05.02-.09-.02-.02-.05-.04-.09-.05.03-.1.09-.15.17-.18.2-.06.36-.13.48-.2a.52.52 0 0 1-.23.24c-.02 0-.02 0-.02.02l.03.02.63-.33a.22.22 0 0 0 .06-.04l.1-.2c.05.03.09.07.1.11.02.03.02.06 0 .08a.96.96 0 0 0-.1.44c0 .02 0 .03-.02.04l-.02.01h-.02l-.07-.07c-.02-.02-.03-.02-.04 0l-.04.27c-.02.08-.01.15.02.23.13.39.32.75.56 1.1Z" fill="#AA7E77"/><path d="m12.28 8.61.42.57.25.2c.02.02.02.04 0 .05a.4.4 0 0 1-.18.03 10.14 10.14 0 0 1-.35-.3.73.73 0 0 1-.18-.22c-.02-.04-.03-.07-.02-.09V8.8l-.11-.16c-.04-.05-.03-.07.02-.06l.15.03Z" fill="#E9CEA5"/><path d="m10.84 8.96.46.01c.23.22.38.5.44.82 0 .02 0 .03.02.04l.03-.01a.4.4 0 0 0 .02-.23l-.13-.86c0-.04 0-.04.03-.02l.17.17c.02.02.02.04.02.07 0 .04.01.07.05.1.02 0 .04.03.04.05 0 .06.02.15.06.27.05.17.08.3.07.41l-.04.23c0 .05 0 .05.04.02a.6.6 0 0 0 .1-.16c.02-.03.05-.04.08-.01a.5.5 0 0 0 .24.08l-.41.32c-.03.02-.03.04 0 .06.1.12.2.2.3.25.12.06.11.1-.02.1-.19.02-.4 0-.65-.03-.01-.04-.03-.06-.06-.05-.01 0-.03.01-.05.04-.27.33-.63.5-1.08.5a.05.05 0 0 0-.05.03.05.05 0 0 0 0 .05c.04.04.05.07.04.1a2.99 2.99 0 0 0-.63-.06c-.02 0-.04 0-.05-.02-.01-.03 0-.04.02-.03.28.03.5-.07.66-.31.02-.03.01-.04-.02-.04l-.33.05a.44.44 0 0 1 .17-.13.52.52 0 0 0 .2-.23.13.13 0 0 0 .02-.08c0-.05-.02-.07-.05-.08.08-.1.1-.14.03-.14l.02-.05c.02-.04 0-.06-.03-.07h-.07l-.03-.05.02-.1c.05-.03.08-.04.1-.02l.12.1c.02.01.04.01.07 0a.11.11 0 0 0 .04-.06.41.41 0 0 0 .09-.24c0-.03-.01-.04-.04-.03a.36.36 0 0 1-.37-.11c-.24-.27-.41-.6-.53-1a3.62 3.62 0 0 0 .95.54h.02c.01-.02.02-.04 0-.05l-.1-.14Z" fill="#CF8E72"/><path d="M8.56 8.9c.13.1.22.21.28.31a4.68 4.68 0 0 1 .41 1.03.1.1 0 0 0 .06.06c.12.05.24.13.34.24a.35.35 0 0 1-.17.02l-.11-.03-.18.01c-.03 0-.05 0-.06-.03-.3-.39-.55-.77-.72-1.15a.4.4 0 0 1-.04-.23.66.66 0 0 0-.06-.38v-.03h.05c.05.08.12.14.2.18Z" fill="#DEAB85"/><path d="m7.44 9.35-.08-.04c-.03-.02-.04-.04-.03-.07l.02-.16.19-.29.03-.02c.02 0 .03 0 .04.02l.14.28c.08.18.16.3.25.39.12.1.1.14-.05.1a3.5 3.5 0 0 1-.5-.2Z" fill="#F4D7C0"/><path d="M8.84 9.21c.22.25.47.4.74.44.03.01.05 0 .05-.04 0-.02 0-.06-.02-.1l.13-.04c.02.04.06.08.1.1-.02.06.02.09.11.09.04 0 .04.02.02.05a.18.18 0 0 1-.1.07c-.03 0-.04.02-.04.05l.02.05a.48.48 0 0 0-.37.23v.04l.03.01h.04c.08-.1.18-.15.3-.15-.03.1-.03.15 0 .15v.02a.28.28 0 0 0-.26.1c-.02.02-.02.05 0 .07.04.04.09.06.16.08l.02.02v.03s-.01.02-.03.02l-.09.04c-.1-.1-.22-.19-.34-.24a.1.1 0 0 1-.06-.06 4.68 4.68 0 0 0-.41-1.02Z" fill="#AA7E77"/><path d="M7.2 9.82a.9.9 0 0 0-.1.07c-.03.12 0 .15.12.08a.39.39 0 0 1 .13-.03c.03 0 .05 0 .07.03.05.07.1.12.16.16-.03 0-.07 0-.11.03-.13-.02-.2 0-.2.05-.1.04-.12.09-.09.13l.13.14.13.1c.03.03.02.04-.01.05h-.1c-.02-.02-.04-.02-.05 0v.03c-.01.02 0 .04.02.06.08.04.16.06.23.05.08-.01.08 0 0 .02-.1.04-.16.1-.17.15a1.86 1.86 0 0 1-.88-1.15l.01-.02.02-.01h.03l.17.41c.04.09.1.17.16.25l.2.24h.05l.01-.02v-.03a1.17 1.17 0 0 1-.2-.67 48.14 48.14 0 0 1 .02-.54L7 9.39 7 9.4c0 .18.06.31.19.42Z" fill="#9F5F52"/><path d="m10.53 9.8-.68.08a.1.1 0 0 1-.02-.05c0-.03.01-.05.04-.05a.18.18 0 0 0 .1-.07c.02-.03.02-.05-.02-.05-.09 0-.13-.03-.11-.09l.33-.13c.03 0 .05 0 .07.02l.3.34Z" fill="#DEAB85"/><path d="m5.65 9.87.23.42-1.1.9a.04.04 0 0 0-.02.04c.01.02.02.03.04.03h.03a1.94 1.94 0 0 0 .6-.04c.42-.07.73-.1.93-.08.14.15.24.3.3.49.02.03 0 .04-.03.04-.74.01-1.48.04-2.23.07a.6.6 0 0 0-.44.18.84.84 0 0 1-.14-.3c.46-.58.94-1.12 1.44-1.62.1-.1.22-.14.4-.13Z" fill="#2B3451"/><path d="M8.24 10.1c.03.07-.02.09-.16.04-.03 0-.05 0-.05.04l-.01.03v-.05c-.02-.02-.04-.02-.06-.01a.72.72 0 0 1-.38-.02.58.58 0 0 1-.16-.16.06.06 0 0 0-.07-.03c-.06 0-.1.02-.13.03-.11.07-.15.04-.12-.08l.1-.07c.33.01.58.04.75.08.1.02.2.08.3.2Z" fill="#0B1539"/><path d="m10.53 9.8.2.07c.07.02.1.06.09.12a.11.11 0 0 1-.04.06c-.03.01-.05.01-.07-.01a1.68 1.68 0 0 0-.11-.1c-.03-.01-.06 0-.1.03a.63.63 0 0 0-.65.04.37.37 0 0 0-.3.14c-.01.02-.02.02-.04.01l-.02-.02c-.02 0-.02-.01-.01-.03a.48.48 0 0 1 .37-.23l.68-.08Z" fill="#10161F"/><path d="M6.4 10.35c0 .04-.02.06-.08.07-.04-.07-.08-.1-.12-.08-.32.15-.6.35-.84.62a.03.03 0 0 0 0 .03c0 .02.01.02.03.02.17 0 .34-.02.51-.05a2 2 0 0 1 .32-.02c.14 0 .25-.04.31-.12a.1.1 0 0 1 .05.05l-.01.08-.16.2-.05-.01a3.74 3.74 0 0 0-1.12.11 1.94 1.94 0 0 1-.44 0 .04.04 0 0 1-.04-.02c0-.02 0-.04.02-.05l1.1-.89c.02.02.05.03.08.03s.04-.03.03-.06v-.02c-.08-.14-.07-.25 0-.32a.05.05 0 0 1 .06 0c.02 0 .03.02.03.04 0 .07.04.12.1.17.1.06.17.13.23.22ZM10.47 10.07l.03.04-.3.31a.7.7 0 0 1-.3-.2l.24.1c.03.02.06.02.08 0l.18-.19v-.02l-.02-.02c0-.03.03-.03.1-.02Z" fill="#4C536B"/><path d="m9.32 10.75-.26.58-.31-.14a.05.05 0 0 1-.03-.04c0-.01 0-.03.02-.04.07-.07.1-.15.08-.24-.01-.03-.03-.04-.06-.03-.08.04-.14.1-.17.21-.11-.13-.23-.2-.35-.2a.1.1 0 0 0-.08.02c-.12.11-.23.25-.31.4-.1-.03-.17-.06-.2-.09a.87.87 0 0 0-.3-.24c.02-.06.08-.1.19-.15.07-.02.07-.03 0-.02a.36.36 0 0 1-.24-.05.05.05 0 0 1-.03-.06l.01-.03c.01-.02.03-.02.05 0h.1c.03 0 .04-.02 0-.05l-.12-.1v-.03c.03-.04.05-.05.08-.02.05.04.1.06.16.06.05 0 .05-.01.02-.04l-.3-.24c0-.05.07-.07.2-.05.18.3.37.3.55.05v-.03c.01-.03.03-.04.06-.03.14.04.2.02.16-.05.21.02.36.11.44.27l.02.03c.04.1.1.15.15.18.15.07.3.12.47.17Z" fill="#F4D7C0"/><path d="m10.38 10.1.02.01v.02l-.18.18a.06.06 0 0 1-.08.02l-.25-.1a.13.13 0 0 1-.03-.05v-.02l.52-.07Z" fill="#5AEBFD"/><path d="m10.5 10.11.07.01c.03 0 .05.03.03.07l-.02.05a.51.51 0 0 0-.23.2c-.03.05-.08.05-.15-.02l.3-.3Z" fill="#F9F1D4"/><path d="m7.58 10.13-.02.03v.04l.12.11c.03.03.06.03.09.02.11-.03.18-.1.2-.18H8c.02.02.02.04.01.06-.18.26-.37.24-.55-.05a.19.19 0 0 1 .1-.03Z" fill="#777C90"/><path d="M7.96 10.15c-.01.08-.08.15-.2.18a.08.08 0 0 1-.08-.02l-.11-.11c-.01-.01-.02-.03 0-.04v-.03c.12.04.24.05.4.02Z" fill="#5AEBFD"/><path d="m9.86 10.18.03.04a.7.7 0 0 0 .3.2c.08.07.13.07.16.01.07.01.14 0 .2-.05.03.01.04.03.05.08l-.01.08a.52.52 0 0 1-.21.23.44.44 0 0 0-.17.13l-.73-.34c.07 0 .13 0 .17-.02l.09-.04c.02 0 .03-.01.03-.02v-.03a.03.03 0 0 0-.02-.02.31.31 0 0 1-.16-.08c-.02-.02-.02-.05 0-.07a.28.28 0 0 1 .27-.1Z" fill="#F4D7C0"/><path d="m7.26 10.2.3.25c.04.03.03.04 0 .04a.27.27 0 0 1-.17-.06c-.03-.03-.05-.02-.07.02v.03a.7.7 0 0 1-.14-.14c-.03-.04 0-.09.08-.13Z" fill="#CF8E72"/><path d="M10.58 10.24c.06 0 .05.04-.03.14a.24.24 0 0 1-.2.05.5.5 0 0 1 .23-.19Z" fill="#9F5F52"/><path d="M6.32 10.42a.34.34 0 0 0-.1.15c0 .03.01.05.03.07.07.07.15.1.24.13.03.02.05.04.04.05-.06.08-.17.12-.3.12a2 2 0 0 0-.33.02c-.17.03-.34.05-.51.05-.02 0-.03 0-.03-.02v-.03c.24-.27.52-.47.84-.62.04-.02.08 0 .12.08Z" fill="#696868"/><path d="M6.49 10.76a.48.48 0 0 1-.24-.12.07.07 0 0 1-.02-.07c.01-.05.04-.1.09-.15.06 0 .09-.03.09-.07.15.13.17.27.08.41Z" fill="#777C90"/><path d="m9.37 10.53.11.03.73.34.33-.05c.03 0 .04.01.02.04a.65.65 0 0 1-.66.3c-.03 0-.03.01-.02.04l.05.02c.26 0 .46.02.63.05l.14.03c.02 0 .03.01 0 .03l-.11.13c-.21-.08-.42-.12-.62-.12-.03 0-.05 0-.08.02l-.8.5-.65.04-1.08-.6c.22.02.42.03.63.02a.3.3 0 0 0 .12-.03c.03-.02.03-.03 0-.03l-.26-.02c.08-.15.19-.29.31-.4a.1.1 0 0 1 .08-.02c.12 0 .24.07.35.2-.1.22-.06.39.12.51.07.06.14.05.21 0 .1-.09.15-.16.14-.23l.26-.58c.04.02.1.02.15.02.03 0 .03-.01.01-.03a5.07 5.07 0 0 0-.1-.1c-.09-.07-.1-.1-.01-.11Z" fill="#F9F1D4"/><path d="M11.76 10.64c.02.1.07.2.15.28v.03l-.03.01a.32.32 0 0 0-.14-.08c-.03-.01-.05 0-.05.03-.05.21-.18.38-.42.49a.1.1 0 0 0-.05.05c-.04.08-.09.12-.16.12s-.1.05-.1.12c0 .3.16.48.44.54.02 0 .02.01.02.03l-.01.02h-.01l-.38-.1c-.03 0-.04.01-.05.04a.46.46 0 0 0-.01.18l-.01-.1c0-.03-.02-.04-.05-.05h-.05c-.02 0-.03.02-.04.04a.34.34 0 0 0-.02.1l-.16.24c-.42.37-.86.67-1.32.89l-.01-.03c0-.03 0-.04.02-.06a4.6 4.6 0 0 0 1.27-.88l-.04-.69h-.02l-1.42 1.38c-.14.04-.25.01-.34-.08a4.02 4.02 0 0 1-.11-.13.89.89 0 0 0-.3-.26.1.1 0 0 0-.09 0 .1.1 0 0 0-.05.08.72.72 0 0 1-.07.2.4.4 0 0 1-.14.12l-.15.11a.45.45 0 0 1-.16-.2l.1-.71c0-.03 0-.06-.02-.08a.25.25 0 0 0-.07-.06c-.03-.01-.05 0-.07.02a.64.64 0 0 0-.08.2.48.48 0 0 1-.11-.21c-.02-.05-.06-.07-.14-.05.07-.13.11-.28.12-.46.14.2.25.33.35.42l.83.68c.2.15.41.15.63 0 .33-.2.6-.4.8-.6.23-.2.41-.46.55-.74l.12-.13c.02-.02.01-.03-.01-.03l-.14-.03c.01-.02 0-.05-.03-.09a.05.05 0 0 1 0-.05c0-.02.02-.03.04-.03.45 0 .8-.17 1.08-.5.02-.03.04-.04.05-.04.03 0 .05.01.06.05ZM6.86 10.76l.46.38c.02.01.02.02 0 .03-.09.03-.13.06-.13.1.03.08.06.15.1.2.03.03.05.06.05.08v.09l-.41-.23c-.09-.11-.1-.25-.06-.42.01-.03 0-.06-.02-.08l-.18-.19v-.03l.01-.02h.01l.17.1Z" fill="#9F5F52"/><path d="M9.06 11.33c0 .07-.04.14-.14.23-.07.05-.14.06-.21 0-.18-.12-.22-.3-.12-.5.03-.11.09-.18.17-.22.03-.01.05 0 .06.03.02.1 0 .17-.08.24a.05.05 0 0 0-.02.04c0 .02.01.04.03.04l.3.14Z" fill="#DEAB85"/><path d="m6.93 11.41.42.23.08.1c-.01.17-.05.32-.12.45l.17.49c.01.02 0 .05-.01.07a.06.06 0 0 1-.08 0 6.53 6.53 0 0 0-2.35-.6 3.7 3.7 0 0 0-.94.05l-.14-.28a.6.6 0 0 1 .44-.18c.75-.03 1.5-.06 2.23-.07.03 0 .05-.01.03-.04a1.48 1.48 0 0 0-.3-.5l.05.02c.05.02.12 0 .2-.06a.05.05 0 0 1 .06 0c.02.01.02.03.02.05 0 .14.02.29.09.44 0 .02.02.03.04.03.03 0 .04 0 .04-.04s.02-.1.07-.16Z" fill="#161E42"/><path d="m7.36 11.33 1.08.6h-.06l.01.05c.02.01.03.02.05.01.35-.04.68-.03 1 .05.02 0 .02 0 .03-.02V12l-.01-.03-.36-.07.8-.5a.14.14 0 0 1 .07-.03c.2 0 .4.04.62.12-.14.28-.32.53-.55.75-.21.19-.47.39-.8.6-.22.14-.43.14-.63-.01l-.83-.68a3.05 3.05 0 0 1-.43-.51v-.09a.17.17 0 0 0-.05-.07.5.5 0 0 1-.1-.22c.07.01.13.04.16.07Z" fill="#F4D7C0"/><path d="m9.3 13.52.02.1-.22.09c-.03 0-.05 0-.06-.03a1.34 1.34 0 0 0-.04-.1c-.01-.03 0-.08.03-.14.04-.07.06-.13.08-.2l1.42-1.38h.02l.04.69c0 .02 0 .03-.02.04a4.6 4.6 0 0 1-1.25.84c-.02.02-.03.03-.02.06v.03Z" fill="#C09185"/><path d="M4.76 13.11c.33.34.7.65 1.1.93l-.27-.03c-.04 0-.06 0-.06.05l.03.06.27.13a.5.5 0 0 1 .25.27 6.16 6.16 0 0 1-2.31-2.3v-.1c.01-.05.03-.05.06-.01l.04.07.1.14c.26.25.53.51.79.8Z" fill="#F1C252"/><path d="m9.09 12.17.01.01v.01c0 .08-.07.11-.19.11h-.03c-.12 0-.18-.05-.17-.13l.01-.02.37.02Z" fill="#DEAB85"/><path d="M7.7 13.07c-.05.16-.1.37-.13.63-.01.07-.05.1-.11.07l-.04-.04a.55.55 0 0 0 .02-.26l.19-.87a.1.1 0 0 0-.02-.08l-.05-.07a.64.64 0 0 1 .08-.2c.02-.03.04-.03.07-.02l.07.06c.02.02.03.05.02.08l-.1.7ZM10.96 12.4c0 .1.02.17.05.23 0 .14.01.26.06.37l-.03.3-.1.39c-.02.16-.06.3-.1.39a11.85 11.85 0 0 1-.32.83c0-.05-.01-.06-.05-.06-.05 0-.07-.02-.08-.05l-.36-.5-.18-.18c.02-.04 0-.08-.03-.12a65.7 65.7 0 0 0-.5-.38.19.19 0 0 1-.01-.1c.46-.22.9-.52 1.32-.89 0 .3-.04.54-.11.72-.07.17-.02.21.13.12.17-.1.25-.26.23-.46-.01-.21-.04-.42-.09-.62l.02-.1c0-.02.02-.04.04-.04h.05c.03 0 .05.02.05.06v.1Z" fill="#DFDAD6"/><path d="M10.79 12.39c.05.2.08.41.1.62.01.2-.07.36-.24.46-.15.09-.2.05-.13-.12.07-.18.1-.42.11-.72l.16-.24Z" fill="#B69E9B"/><path d="m11.18 12.81.1.13c-.03.04-.02.08.03.12l.09.1a.18.18 0 0 1-.06.05c-.03.01-.05 0-.06-.03-.06-.12-.13-.18-.21-.18a.97.97 0 0 1-.07-.37l.18.18Z" fill="#777C90"/><path d="M9.11 13.24c-.02.07-.04.13-.08.2-.03.06-.04.1-.03.13l.04.1c.01.04.03.05.06.04l.22-.1.5.4c.04.03.05.07.03.11a.39.39 0 0 0-.15-.1c-.04-.02-.1 0-.16.03-.22.11-.46.2-.7.23h-.07l-.02-.01c.1-.04.13-.09.1-.16a.62.62 0 0 0-.2-.2c-.28-.2-.54-.41-.8-.63l.16-.1a.4.4 0 0 0 .14-.13.72.72 0 0 0 .07-.2.1.1 0 0 1 .05-.07.1.1 0 0 1 .09 0c.09.03.19.12.3.25l.11.13c.09.1.2.12.34.08Z" fill="#AA7E77"/><path d="M12.2 13.8c.01.01 0 .03-.02.07a.96.96 0 0 1-.23-.1c-.08-.05-.1-.04-.05.05l.1.15v.02l-.02.07s-.01.02-.03.02c-.01 0-.02 0-.03-.02a2.67 2.67 0 0 1-.18-.4.9.9 0 0 0-.15-.27 7.08 7.08 0 0 0-.28-.33c-.05-.04-.06-.08-.02-.12.07.03.13.07.18.12l.72.74Z" fill="#F9F1D4"/><path d="m11.4 13.16.2.23c.07.1.12.18.14.26.05.14.11.28.18.41l.03.02c.02 0 .02-.01.03-.02l.01-.07v-.02l-.09-.15c-.05-.09-.03-.1.05-.05.06.04.14.07.23.1.05 0 .08.02.1.04.02.02.02.04 0 .06-.42.31-.9.55-1.42.7l.1-.3c.02-.03.03-.04.06-.05.02 0 .03-.02.03-.04l.02-.2c0-.25 0-.5-.03-.79l.03-.3c.08.01.15.07.2.2.02.02.04.03.07.02.02 0 .04-.02.06-.05Z" fill="#10161F"/><path d="M7.7 13.07c.02.07.07.14.16.21.25.22.51.43.79.63.1.08.17.15.2.2.03.07 0 .12-.1.16a12 12 0 0 0-.24-.35c-.08-.11-.17-.17-.25-.16-.14 0-.26.07-.37.2l-.52.78-.08-.02c.12-.32.17-.64.17-.95.06.02.1 0 .1-.07l.14-.63Z" fill="#B69E9B"/><path d="M11.04 13.3a7.63 7.63 0 0 1 .02.98l-.04.04a.07.07 0 0 0-.05.05l-.1.3a.65.65 0 0 1-.3.07c.1-.22.2-.44.28-.66.03-.1.07-.23.1-.4.02-.12.05-.25.1-.39Z" fill="#AA7E77"/><path d="M7.44 13.47c.01.1 0 .2-.02.26-.03.39-.16.7-.38.92l-.9-.43c.09-.09.2-.16.33-.22.08-.03.2-.15.35-.36l.39.08c.02 0 .04 0 .05-.03.06-.13.12-.2.18-.22Z" fill="#10161F"/><path d="M6.82 13.64c-.16.2-.27.33-.35.36a1.2 1.2 0 0 0-.34.22l-.14-.1.83-.48Z" fill="#777C90"/><path d="m7.42 13.73.03.04c.01.3-.04.63-.16.95a.52.52 0 0 1-.25-.07c.22-.23.35-.53.38-.92ZM8.75 14.27h.02l-.3-.04c-.2-.15-.4-.24-.58-.26.1-.14.23-.2.37-.21.08 0 .17.05.25.16l.24.35Z" fill="#80556B"/><path d="m9.1 13.96.05.07v.05c0 .02-.02.03-.04.03-.06 0-.11-.02-.14-.07-.03-.04-.03-.1 0-.15 0-.02.02-.03.04-.03s.04.01.04.03l.05.07Z" fill="#E9CEA5"/><path d="M7.89 13.97c0 .06 0 .11-.03.16l-.07.14c-.03.1-.02.2.03.28l.15.35-.25-.08v-.02h.01c.03-.03.04-.05.02-.07l-.02-.01H7.7c-.11.09-.22.1-.33.02l.52-.77Z" fill="#80556B"/><path d="m8.46 14.23-.64.32a.41.41 0 0 1-.03-.28l.07-.14c.03-.05.04-.1.03-.16.18.02.37.11.57.26Z" fill="#10161F"/><path d="m5.87 14.04.12.09.14.1.91.42c.06.04.14.06.25.07l.08.02c.1.07.22.07.33-.02h.03l.02.01c.02.02.01.04-.02.06l-.01.01v.02l.25.08a4.2 4.2 0 0 0 1.63.03.9.9 0 0 0 .33-.2.07.07 0 0 1 .06-.02c.03 0 .05.01.06.04.06.13.17.15.34.05 0 .03.03.04.08.05a.74.74 0 0 1-.27.1l-1.07.18H8.9l-.18.01c-.33.05-.56.06-.72.04a6.8 6.8 0 0 1-1.92-.66.5.5 0 0 0-.25-.27 5.03 5.03 0 0 1-.27-.13l-.03-.06c0-.04.02-.06.06-.05l.28.03Z" fill="#F6D882"/><path d="m9.85 14.12.18.17a.52.52 0 0 1-.25.37c-.06-.2-.24-.3-.52-.3-.14 0-.27.02-.4.05h-.04c-.06-.04-.06-.08.01-.13.25-.04.49-.12.71-.23.07-.04.12-.05.16-.03.05.02.1.05.15.1Z" fill="#10161F"/><path d="M12.46 14.13a.83.83 0 0 1-.2.2 6.13 6.13 0 0 1-3.76.96.22.22 0 0 1-.12-.05.17.17 0 0 0-.08-.03l-.3-.03c.16.02.4.01.71-.04h.19l.23-.01 1.07-.18c.1-.01.2-.05.27-.1.04 0 .05.01.05.06l1.94-.78Z" fill="#B57A2A"/><path d="M8.77 14.28h.06c-.07.05-.07.09-.01.13h.04c.13-.03.26-.05.4-.06.28 0 .46.1.52.3-.12.1-.18.2-.18.28a4.2 4.2 0 0 1-1.63-.03l-.15-.35.64-.32.31.05Z" fill="#161E42"/><path d="M10.4 14.8c-.18.1-.3.08-.35-.05a.07.07 0 0 0-.06-.04c-.02 0-.04 0-.06.02a.9.9 0 0 1-.33.2c0-.08.06-.17.18-.27.14-.1.22-.22.25-.37l.36.51Z" fill="#80556B"/></svg>