<!-- by TradingView --><svg width="18" height="18" viewBox="0 0 18 18" xmlns="http://www.w3.org/2000/svg"><path fill="url(#a0uypy03o)" d="M0 0h18v18H0z"/><path fill-rule="evenodd" d="M9 13.5a4.5 4.5 0 1 0 0-9 4.5 4.5 0 0 0 0 9Zm0 .5A5 5 0 1 0 9 4a5 5 0 0 0 0 10Z" fill="url(#b0uypy03o)"/><path d="M5 6.8c-.23-.12-.22-.45-.26-.6.34.24 1.2.3 1.59.3-.23.12-.39.25-.43.3a4.4 4.4 0 0 1 1.16-.15c.92 0 1.54.49 1.74.73a2.1 2.1 0 0 0-.3 1.03c-.08-.59-.57-1.47-1.44-1.47-.7 0-1.16.5-1.31.74L6 7.53v2.5c-.12 0-.2-.1-.25-.15.23.6.87.88 1.3.88.5 0 .83-.2 1.06-.48.43-.52.45-1.22.57-1.87.2-1.15.99-1.76 2.15-1.76 1.15 0 2.17.88 2.17 2.06 0 1.53-.72 2.35-2.17 2.35-.82 0-1.45-.44-1.74-.88.23-.24.38-.79.43-1.03.15.44.58 1.32 1.3 1.32.88 0 1.18-.57 1.18-1.97 0-1.12-.6-1.56-1.17-1.56-.87 0-1.4.82-1.53 1.55-.07.38-.12.83-.21 1.1-.58 1.62-1.89 1.47-2.76 1.47-.7 0-1.23.59-1.33.88V6.8Z" fill="url(#c0uypy03o)"/><path d="M6.04 7.34v-.25l-.29.15c-.14-.15-.32-.3-.32-.45l-.86-.58c.04.14.2.47.43.58v5.15c.1-.3.63-.88 1.33-.88h.2c.71 0 1.62.02 2.22-.81l.1-.15c.07-.12.13-.25.19-.39L8.8 9.6c-.15.39-.64 1.2-1.45 1.32-.82.12-1.4-.15-1.6-.3l-.06-.14.2-.15h-.28c-.12-.35-.12-.7 0-.58.11.11.24.14.29.14 0-.12-.2-.34-.3-.44V8.12s-.14-.15-.14-.3c0-.23.2-.1.29 0l.15-.22-.15.08c.05-.1.15-.22.29-.34Z" fill="url(#d0uypy03o)"/><path d="M10.95 10.47C11.74 10.4 12 9.83 12 8.5c0-1.12-.6-1.56-1.18-1.56h-.14a1.76 1.76 0 0 1 2.03 1.77c0 1.61-1.02 2.05-1.74 2.05l-.02-.3Z" fill="url(#e0uypy03o)"/><path d="M10.97 11.06h-.14c-.82 0-1.45-.44-1.74-.88h.43c.15.2.64.58 1.45.58v.3Z" fill="url(#f0uypy03o)"/><defs><linearGradient id="a0uypy03o" x1="3.35" y1="3.12" x2="21.9" y2="24.43" gradientUnits="userSpaceOnUse"><stop stop-color="#1A1E21"/><stop offset="1" stop-color="#06060A"/></linearGradient><linearGradient id="b0uypy03o" x1="5.03" y1="6.5" x2="13.71" y2="11.79" gradientUnits="userSpaceOnUse"><stop stop-color="#F8FBEE"/><stop offset=".22" stop-color="#FFF7A0"/><stop offset=".44" stop-color="#CFA34F"/><stop offset=".72" stop-color="#884A1D"/><stop offset=".88" stop-color="#8F5114"/><stop offset="1" stop-color="#5C1C01"/></linearGradient><linearGradient id="c0uypy03o" x1="13" y1="9" x2="5.46" y2="9" gradientUnits="userSpaceOnUse"><stop stop-color="#F3D856"/><stop offset=".28" stop-color="#F8EE5D"/><stop offset=".56" stop-color="#C8742A"/><stop offset=".8" stop-color="#F7EE5D"/><stop offset="1" stop-color="#805321"/></linearGradient><linearGradient id="d0uypy03o" x1="9.09" y1="9" x2="5.17" y2="9" gradientUnits="userSpaceOnUse"><stop stop-color="#CC7E2E"/><stop offset=".67" stop-color="#ED7E1C"/><stop offset=".88" stop-color="#6E4720"/><stop offset="1" stop-color="#F47429"/></linearGradient><linearGradient id="e0uypy03o" x1="12.56" y1="8.56" x2="11.12" y2="8.56" gradientUnits="userSpaceOnUse"><stop offset=".21" stop-color="#6B4822"/><stop offset=".38" stop-color="#ED7022"/><stop offset=".73" stop-color="#F8B23C"/><stop offset="1" stop-color="#F7EB5C"/></linearGradient><linearGradient id="f0uypy03o" x1="9.09" y1="10.32" x2="10.97" y2="10.32" gradientUnits="userSpaceOnUse"><stop stop-color="#F18023"/><stop offset=".46" stop-color="#F59C1F"/><stop offset=".99" stop-color="#F8ED5D"/></linearGradient></defs></svg>