<!-- by TradingView --><svg width="18" height="18" viewBox="0 0 18 18" xmlns="http://www.w3.org/2000/svg"><path fill="#2F3238" d="M0 0h18v18H0z"/><path d="M13.46 4 14 5.66l-.1.34c-.04.1-.1.2-.16.3a6 6 0 0 1-1.19 1.37c-.22.17-.49.33-.76.33H7.94l-.56-.6h4.4c.07 0 .2-.05.4-.2A5.4 5.4 0 0 0 13.22 6l.78-.34m-.84-.72-.49.46h.61l-.12-.46Zm.84.72c0 .01 0-.02 0 0l-.78.34H8.6L7.38 7.4l.56.6 1.91 1.06a6.4 6.4 0 0 0 .46.24 5.48 5.48 0 0 1 .69.4h.6l-.6 1.04c0-.22-.15-.42-.47-.63-.15-.1-.36-.2-.53-.3l-.6-.31-2.45-1.36a.65.65 0 0 1-.3-.39.59.59 0 0 1 .12-.54l1.16-1.37.03-.04.17-.2c.08-.07.23-.2.44-.2h3.23L13.46 4M9.4 9.5l.6.31v2.97l.75-.64c.2-.19.25-.28.25-.4v-1l.6-1.03v2.03c0 .4-.22.64-.45.85h-.01L9.4 14V9.5Zm2.2.2V8.57a.77.77 0 0 0-.15-.45.93.93 0 0 0-.1-.11H10l.83.37a.3.3 0 0 1 .12.1c.03.04.04.08.04.1V9.7h.6Z" fill="url(#ax3vus3ul)"/><path d="M6 12.96a2 2 0 0 0 2-1.98A2 2 0 0 0 6 9a2 2 0 0 0-2 1.98 2 2 0 0 0 2 1.98Z" fill="url(#bx3vus3ul)"/><path d="M6 9.35c.91 0 1.65.73 1.65 1.63 0 .9-.74 1.64-1.65 1.64-.91 0-1.65-.74-1.65-1.64 0-.9.74-1.63 1.65-1.63Z" fill="url(#cx3vus3ul)"/><path d="M6 9.43c.86 0 1.56.7 1.56 1.55 0 .85-.7 1.55-1.56 1.55-.86 0-1.56-.7-1.56-1.55 0-.85.7-1.55 1.56-1.55Z" fill="url(#dx3vus3ul)"/><path d="M6.6 10.86a.4.4 0 0 0 .17-.38c-.02-.22-.21-.37-.5-.38l-.04-.34v-.03H6.2l-.2.03h-.03v.03l.04.33-.14.01-.04-.32v-.03H5.8l-.2.02h-.02v.04l.04.33-.6.06.04.33.22-.02c.04 0 .06.02.07.05l.1.92c0 .05-.02.08-.06.09l-.22.02.04.31.6-.06.03.32v.03h.03l.2-.03h.03v-.03l-.04-.32.14-.02.04.33v.03h.03l.2-.03h.02v-.03l-.04-.33c.15-.04.27-.1.35-.19.1-.1.13-.21.12-.35a.44.44 0 0 0-.32-.39Zm-.18.4c0 .04 0 .15-.2.17l-.3.04-.03-.3.3-.04c.14-.02.22.03.23.12Zm-.57-.46-.03-.28.3-.03c.1-.01.17.03.18.12.01.09-.05.15-.15.16l-.3.03Z" fill="#fff"/><defs><linearGradient id="ax3vus3ul" x1="6.34" y1="5.22" x2="14.95" y2="11.7" gradientUnits="userSpaceOnUse"><stop stop-color="#0FA"/><stop offset=".52" stop-color="#4579F5"/><stop offset="1" stop-color="#9C42F5"/></linearGradient><linearGradient id="bx3vus3ul" x1="4" y1="10.98" x2="8" y2="10.98" gradientUnits="userSpaceOnUse"><stop stop-color="#0FA"/><stop offset=".52" stop-color="#4579F5"/><stop offset="1" stop-color="#9C42F5"/></linearGradient><linearGradient id="cx3vus3ul" x1="4.35" y1="10.98" x2="7.65" y2="10.98" gradientUnits="userSpaceOnUse"><stop stop-color="#F5F7FA" stop-opacity=".12"/><stop offset="1" stop-color="#F5F7FA" stop-opacity=".01"/></linearGradient><linearGradient id="dx3vus3ul" x1="4.44" y1="10.98" x2="7.56" y2="10.98" gradientUnits="userSpaceOnUse"><stop stop-color="#0FA"/><stop offset=".52" stop-color="#4579F5"/><stop offset="1" stop-color="#9C42F5"/></linearGradient></defs></svg>