<!-- by TradingView --><svg width="18" height="18" viewBox="0 0 18 18" fill="none" xmlns="http://www.w3.org/2000/svg">
<rect width="18" height="18" fill="#F0F3FA"/>
<path d="M14.1712 10.6352C14.1029 10.3697 13.9185 10.1383 13.7741 9.93742C13.2416 9.19858 13.0386 8.94327 12.9424 8.28596C14.1156 8.26639 15 7.30696 15 6.26959C15 5.22149 14.2647 4.37184 13.3575 4.37184C12.7171 4.37184 12.2292 4.72756 11.8774 5.30795C11.765 5.49347 11.4885 5.8337 11.1159 5.92714C10.8912 5.79722 10.6535 5.68839 10.4062 5.60223C10.6228 5.13417 10.3961 4.73182 10.2846 4.5766C10.2795 4.56947 10.2725 4.56371 10.2643 4.55991C10.2561 4.5561 10.247 4.55437 10.2379 4.55488C10.2288 4.5554 10.22 4.55814 10.2124 4.56284C10.2047 4.56755 10.1985 4.57405 10.1943 4.5817C10.1259 4.70833 9.95969 4.96312 9.69436 5.06405C9.64184 4.46103 9.22093 4.12692 9.05812 4.01936C9.03926 4.00693 9.01685 4.00019 8.99385 4C8.97085 3.99982 8.94832 4.00621 8.92925 4.01834C8.75922 4.12624 8.3125 4.46647 8.28975 5.07358C8.00909 4.97946 7.83563 4.71276 7.76524 4.58238C7.76112 4.57468 7.75494 4.56812 7.74731 4.56337C7.73967 4.55862 7.73085 4.55584 7.72172 4.55531C7.71259 4.55477 7.70347 4.55651 7.69527 4.56033C7.68707 4.56415 7.68008 4.56994 7.67499 4.57711C7.56471 4.73029 7.34107 5.12532 7.54558 5.58674C7.29309 5.67123 7.05015 5.77922 6.82035 5.9091C6.48012 5.79558 6.22851 5.4836 6.12256 5.3088C5.77077 4.72841 5.2829 4.37269 4.6425 4.37269C3.73533 4.37269 3 5.22234 3 6.27044C3 7.31292 3.89291 8.27677 5.0746 8.28715C5.06811 8.3272 5.06209 8.36748 5.05656 8.40799C5.02365 8.69808 4.92715 8.97855 4.77318 9.2316C4.65171 9.42801 4.49215 9.64501 4.28061 9.93827C4.13621 10.1391 3.95157 10.3706 3.88352 10.6361C3.79327 10.9847 3.81132 11.436 3.50448 11.7084C3.64996 11.7594 3.88713 11.7254 4.03117 11.6558C3.96944 12.1197 4.12358 12.7194 4.52283 13.1004C4.5824 12.8429 4.66506 12.6829 4.75946 12.5851C4.95019 12.9554 5.27306 13.2507 5.6715 13.4191C5.65634 13.1484 5.65345 12.9815 5.67439 12.8782C5.9917 13.4179 6.61837 13.7852 7.33981 13.7852C7.36532 13.7852 7.39059 13.7846 7.41562 13.7836C7.75856 14.2173 8.31809 14.5 8.95073 14.5C9.58859 14.5 10.1523 14.2129 10.4936 13.7734C10.5671 13.7812 10.6411 13.7851 10.7151 13.7852C11.437 13.7852 12.0632 13.4179 12.3803 12.8782C12.4011 12.9815 12.3984 13.1484 12.3834 13.4191C12.7818 13.2507 13.1047 12.9554 13.2954 12.5851C13.3896 12.6829 13.4723 12.8429 13.532 13.1004C13.9311 12.7194 14.0853 12.1197 14.0235 11.6558C14.1679 11.7249 14.4047 11.7599 14.5504 11.7084C14.2434 11.4352 14.26 10.9838 14.1712 10.6352Z" fill="#000105"/>
<path d="M13.3595 4.71584C12.7684 4.64997 12.4457 5.00127 12.1863 5.46881C12.0878 5.6465 11.7385 6.00562 11.4723 6.08494C11.6995 6.22655 11.9369 6.45496 12.1531 6.74549C12.317 6.57529 12.5159 6.40696 12.672 6.26246C13.1429 5.82623 13.6776 6.00035 13.8469 6.31982C14.0274 6.66022 13.8649 7.11976 13.3577 7.38255C13.1514 7.48564 12.9272 7.55308 12.6957 7.58169C12.6738 7.58441 12.6519 7.58679 12.6302 7.58884C12.6699 7.68432 12.7045 7.77878 12.7339 7.8712C13.9866 7.91885 14.5692 7.07993 14.5692 6.2451C14.5692 5.40005 14.0097 4.78801 13.3595 4.71584Z" fill="#EE9A2F"/>
<path opacity="0.76" d="M11.6993 6.25174C11.9653 6.17242 12.3227 5.8167 12.4213 5.63901C12.6803 5.17147 13.003 4.82017 13.5945 4.88604C13.7612 4.90527 13.9216 4.95803 14.0649 5.04075C13.8641 4.85966 13.6192 4.7446 13.3598 4.71584C12.7687 4.64997 12.446 5.00127 12.1866 5.46881C12.0881 5.6465 11.7388 6.00562 11.4726 6.08494C11.5525 6.13511 11.6283 6.19086 11.6993 6.25174Z" fill="#FBFE05"/>
<path d="M13.5403 6.47298C13.4385 6.28116 13.2154 6.20066 12.8544 6.43894C12.6739 6.55808 12.4212 6.9155 12.331 7.03464C12.3871 7.11753 12.4573 7.28756 12.4644 7.30186C12.6496 7.2782 12.9588 7.20263 13.1432 7.11974C13.5223 6.94954 13.6486 6.67739 13.5403 6.47298Z" fill="#F87B8F"/>
<path d="M14.1595 5.13483C14.204 5.29669 14.2264 5.46324 14.2262 5.63045C14.2281 5.99371 14.1209 6.35004 13.9171 6.6583C13.8961 6.92415 13.7102 7.20039 13.359 7.3825C13.1523 7.48572 12.9276 7.55317 12.6956 7.58164C12.6737 7.58436 12.6519 7.58674 12.6301 7.58879C12.6698 7.68427 12.7045 7.77873 12.7339 7.87115C13.9865 7.91881 14.5692 7.07989 14.5692 6.24505C14.5692 5.79197 14.4085 5.40664 14.1595 5.13483Z" fill="#B56223"/>
<path d="M4.59609 4.71584C5.18739 4.64997 5.50993 5.00127 5.7693 5.46881C5.86785 5.6465 6.21711 6.00562 6.48334 6.08494C6.25628 6.22655 6.01875 6.45496 5.80269 6.74549C5.63881 6.57529 5.43972 6.40696 5.28359 6.26246C4.81268 5.82623 4.27824 6.00035 4.10875 6.31982C3.92826 6.66022 4.0907 7.11976 4.59789 7.38255C4.80428 7.48563 5.02856 7.55308 5.26013 7.58169C5.28197 7.58441 5.30381 7.58679 5.32547 7.58884C5.28594 7.68432 5.2511 7.77878 5.22168 7.8712C3.96923 7.91885 3.38641 7.07993 3.38641 6.2451C3.38641 5.40005 3.94595 4.78801 4.59609 4.71584Z" fill="#EE9A2F"/>
<path opacity="0.76" d="M6.25637 6.25174C5.99032 6.17242 5.63294 5.8167 5.53439 5.63901C5.27538 5.17147 4.95284 4.82017 4.36118 4.88604C4.19445 4.90527 4.03405 4.95803 3.89081 5.04075C4.09152 4.85966 4.33645 4.7446 4.59582 4.71584C5.18712 4.64997 5.50966 5.00127 5.76903 5.46881C5.86758 5.6465 6.21684 6.00562 6.48307 6.08494C6.40318 6.13511 6.3274 6.19086 6.25637 6.25174Z" fill="#FBFE05"/>
<path d="M4.41526 6.47298C4.51706 6.28116 4.74015 6.20066 5.10114 6.43894C5.28163 6.55808 5.53433 6.9155 5.62457 7.03464C5.56844 7.11753 5.49823 7.28756 5.49137 7.30186C5.306 7.2782 4.99699 7.20263 4.81235 7.11974C4.43331 6.94954 4.30696 6.67739 4.41526 6.47298Z" fill="#F87B8F"/>
<path d="M3.79614 5.13483C3.75162 5.29669 3.72918 5.46324 3.72935 5.63045C3.7278 5.99379 3.83531 6.35013 4.03944 6.6583C4.06056 6.92415 4.24629 7.20039 4.59753 7.3825C4.80403 7.48562 5.02843 7.55307 5.26013 7.58164C5.28197 7.58436 5.30381 7.58674 5.32547 7.58879C5.28594 7.68427 5.2511 7.77873 5.22168 7.87115C3.96923 7.91881 3.38641 7.07989 3.38641 6.24505C3.38641 5.79197 3.54705 5.40664 3.79614 5.13483Z" fill="#B56223"/>
<path d="M12.9823 11.3601H11.0942C10.6119 11.3601 10.1596 11.1256 9.9141 10.734C9.68198 10.3639 9.53416 9.83359 9.50131 9.13202C9.50131 9.13712 9.50131 9.14223 9.50131 9.14751V9.13202C9.50474 6.89847 9.98467 6.14958 11.3063 6.35621H11.3712C11.12 6.01104 10.5574 5.86263 10.0608 5.86263H9.55293C9.60518 5.83987 9.6561 5.81448 9.70545 5.78655C9.95489 5.64596 10.1002 5.34402 10.1182 5.19084C10.1246 5.13604 10.0886 5.18216 10.0821 5.19084C9.98684 5.31441 9.8049 5.43168 9.60437 5.50639C9.48282 5.55251 9.35539 5.58341 9.22533 5.5983C9.30475 5.46929 9.35619 5.26624 9.35619 5.03766C9.35619 4.76347 9.19122 4.5257 9.09321 4.40792C9.08476 4.39779 9.07399 4.38961 9.0617 4.38398C9.04942 4.37835 9.03593 4.37543 9.02227 4.37543C9.00861 4.37543 8.99513 4.37835 8.98284 4.38398C8.97056 4.38961 8.95979 4.39779 8.95134 4.40792C8.85333 4.52501 8.68836 4.76279 8.68836 5.03766C8.68836 5.26471 8.73908 5.46657 8.81777 5.59575C8.69583 5.57975 8.57642 5.54975 8.4622 5.50639C8.26149 5.43168 8.07955 5.31441 7.98443 5.19084C7.97793 5.18216 7.94183 5.13604 7.94833 5.19084C7.96638 5.34402 8.11168 5.6463 8.36112 5.78655C8.41043 5.81444 8.46128 5.83984 8.51346 5.86263H8.03912C7.54258 5.86263 6.93955 6.01087 6.66736 6.35621H6.70346C7.89093 6.1666 8.50498 6.89847 8.50841 9.13202C8.47538 9.83342 8.32791 10.3636 8.0958 10.7336C7.8505 11.1251 7.398 11.3601 6.91536 11.3601H4.97306C4.6442 11.3601 4.37508 11.5814 4.39313 11.9388C4.39313 11.9388 4.55179 11.7492 4.66387 11.7211C4.66964 11.719 4.67584 11.7183 4.68197 11.7189C4.6881 11.7195 4.69399 11.7215 4.69917 11.7247C4.70434 11.7278 4.70864 11.7321 4.71173 11.7371C4.71482 11.7422 4.7166 11.7478 4.71694 11.7536C4.72091 12.0857 4.92072 12.4947 5.3317 12.7047C5.3317 12.7047 5.36275 12.4709 5.38585 12.3983C5.4148 12.3026 5.4573 12.211 5.5122 12.126C5.65058 12.3997 5.84012 12.6476 6.07173 12.8579C6.56376 13.3004 7.2269 13.4366 7.2269 13.4366C7.2269 13.4366 7.1547 13.2834 7.13665 13.1643C7.12562 13.075 7.12435 12.9849 7.13286 12.8953C7.34966 13.1327 7.57989 13.3588 7.82253 13.5727C8.23117 13.9339 8.43242 14.0299 8.97769 14.0663C9.44319 14.0648 9.72422 13.9348 10.1329 13.5727C10.3755 13.3588 10.6057 13.1327 10.8225 12.8953C10.831 12.9849 10.8298 13.075 10.8187 13.1643C10.8007 13.2834 10.7285 13.4366 10.7285 13.4366C10.7285 13.4366 11.3918 13.3004 11.8837 12.8579C12.1153 12.6476 12.3048 12.3997 12.4432 12.126C12.4981 12.211 12.5406 12.3026 12.5695 12.3983C12.5926 12.4709 12.6237 12.7047 12.6237 12.7047C13.0379 12.4931 13.2374 12.0792 13.2384 11.7458C13.2387 11.7409 13.2403 11.7361 13.2429 11.7318C13.2455 11.7275 13.2492 11.7238 13.2536 11.7211C13.2579 11.7184 13.2629 11.7167 13.2682 11.7161C13.2734 11.7156 13.2786 11.7162 13.2836 11.7179C13.4141 11.7492 13.5621 11.9391 13.5623 11.9391C13.5803 11.5814 13.3112 11.3601 12.9823 11.3601Z" fill="#EAEAEA"/>
<path d="M10.1021 11.7747C9.87628 11.7523 9.68188 11.8321 9.57539 11.9604C9.52485 12.0212 9.35284 12.1747 9.10015 12.0556V11.6398C9.4124 11.5986 9.65066 11.3858 9.65066 11.2001C9.65066 10.9933 9.35573 10.8982 8.99185 10.8982C8.62797 10.8982 8.33305 10.9933 8.33305 11.2001C8.33305 11.3858 8.5713 11.5986 8.88355 11.6398V12.0556C8.66696 12.1747 8.45777 12.0268 8.42474 11.9814C8.32258 11.8411 8.11952 11.7511 7.88163 11.7747C7.77443 11.7829 7.67381 11.8268 7.59776 11.8985C7.52171 11.9702 7.47518 12.0651 7.46649 12.1662C7.54753 12.0981 7.69211 11.9235 7.86358 11.9279C7.94209 11.93 8.01592 11.9934 8.08324 12.0893C8.12837 12.3403 8.29677 13.2168 8.48647 13.4849C8.66696 13.7402 9.24346 13.7062 9.42504 13.4849C9.56619 13.3122 9.78603 12.4583 9.86526 12.1403C9.94522 12.0127 10.0324 11.925 10.1201 11.9274C10.3277 11.933 10.4362 12.0976 10.5172 12.1657C10.5084 12.0647 10.4618 11.9699 10.3858 11.8983C10.3097 11.8267 10.2092 11.7829 10.1021 11.7747Z" fill="black"/>
<path d="M9.49724 11.2046C9.49724 11.3174 9.27505 11.4769 9.00088 11.4769C8.72671 11.4769 8.50452 11.3174 8.50452 11.2046C8.50452 11.0917 8.72671 11.0684 9.00088 11.0684C9.27505 11.0684 9.49724 11.0917 9.49724 11.2046Z" fill="#F87B8F"/>
<path d="M9.05376 12.3132L8.9738 12.5827L8.91604 12.3104C8.91469 12.3041 8.91197 12.2981 8.90805 12.2929C8.90414 12.2876 8.89911 12.2832 8.89329 12.2799C8.88747 12.2766 8.88099 12.2745 8.87424 12.2736C8.8675 12.2728 8.86065 12.2733 8.85413 12.2751L8.63086 12.327L8.74367 12.6921C8.74786 12.7186 8.76212 12.7428 8.78379 12.7602C8.80547 12.7776 8.83309 12.7869 8.86153 12.7866H9.08607C9.11451 12.7869 9.14213 12.7776 9.16381 12.7602C9.18548 12.7428 9.19974 12.7186 9.20393 12.6921L9.31674 12.327L9.11477 12.2811C9.10852 12.2793 9.10197 12.2788 9.0955 12.2795C9.08903 12.2802 9.08277 12.2821 9.07709 12.2851C9.07141 12.2881 9.06642 12.2921 9.06241 12.2969C9.05841 12.3018 9.05546 12.3073 9.05376 12.3132Z" fill="#FEFEFE"/>
<path d="M12.692 8.77087C12.9267 9.63889 13.9194 10.2857 13.8472 10.9835C13.6847 10.8303 13.3418 10.8133 13.2335 10.8133C13.2876 10.8643 13.3598 10.9665 13.3959 11.1196C12.4213 10.7792 11.4466 10.9835 10.9593 10.9665C10.2373 10.9413 9.89435 10.0656 9.89435 8.83895C9.89435 7.61231 10.2095 6.60931 10.9322 6.60931C11.3046 6.60931 11.6477 6.66037 12.0242 7.03482C12.3491 7.3582 12.5362 8.1944 12.692 8.77087Z" fill="#F09930"/>
<path d="M12.6921 8.7705C12.5363 8.19437 12.3491 7.35783 12.0243 7.03445C11.6723 6.68418 11.3497 6.61695 11.005 6.60895C11.7649 6.92059 12.0519 7.92494 12.1687 8.49818C12.4394 9.82575 13.1975 9.75767 13.3058 10.6087C13.1253 10.4725 12.8184 10.4725 12.7101 10.4725C12.7583 10.518 12.8726 10.7072 12.8726 10.9831C13.0711 11.0172 13.2336 11.0682 13.396 11.1193C13.3599 10.9661 13.2877 10.864 13.2336 10.8129C13.3419 10.8129 13.6848 10.8299 13.8473 10.9831C13.9195 10.2853 12.9267 9.63853 12.6921 8.7705Z" fill="#B0602A"/>
<path d="M11.9701 8.61748C11.9277 8.57749 11.5974 8.76062 11.2481 9.0612C11.2745 8.95374 11.3143 8.84959 11.3665 8.75092C11.4759 8.54345 11.6283 8.37733 11.793 8.26959C11.4909 8.30925 11.1404 8.59587 10.9171 9.01848C10.8522 9.14051 10.8018 9.26894 10.7669 9.40143C10.7226 9.56603 10.6632 9.72668 10.5893 9.88157C10.4559 10.1673 10.4213 10.4065 10.4547 10.438C10.7254 10.6933 11.608 10.6497 11.9889 10.1656C12.4033 9.63869 12.3529 8.97848 11.9701 8.61748Z" fill="#040000"/>
<path d="M11.8798 8.99196C11.9132 9.01545 12.0603 9.51958 11.7173 9.97913C11.4549 10.3308 11.0495 10.3536 10.7607 10.2685C10.7539 10.2664 10.7223 10.2451 10.7246 10.2174C10.7347 10.094 10.8714 9.75565 11.1397 9.50256C11.6271 9.04302 11.8738 8.98787 11.8798 8.99196Z" fill="#EAEAEA"/>
<path d="M11.1308 10.0982C11.3252 10.0982 11.4827 9.94964 11.4827 9.76634C11.4827 9.58304 11.3252 9.43445 11.1308 9.43445C10.9364 9.43445 10.7788 9.58304 10.7788 9.76634C10.7788 9.94964 10.9364 10.0982 11.1308 10.0982Z" fill="#040000"/>
<path d="M5.30979 8.77087C5.07515 9.63889 4.08243 10.2857 4.15462 10.9835C4.31707 10.8303 4.66001 10.8133 4.76831 10.8133C4.71416 10.8643 4.64196 10.9665 4.60586 11.1196C5.61663 10.8133 6.5552 11.0289 7.04254 11.0175C7.76452 11.0005 8.10746 10.0658 8.10746 8.83895C8.10746 7.61214 7.79231 6.60931 7.06961 6.60931C6.69707 6.60931 6.35413 6.66037 5.97762 7.03482C5.65273 7.3582 5.46556 8.1944 5.30979 8.77087Z" fill="#F09930"/>
<path d="M5.30979 8.7705C5.46556 8.19437 5.65273 7.35783 5.97762 7.03445C6.32958 6.68418 6.65213 6.61695 6.99687 6.60895C6.23699 6.92059 5.95 7.92494 5.83322 8.49818C5.56248 9.82575 4.8766 9.91085 4.73221 10.6087C4.89465 10.4555 5.18344 10.4725 5.29174 10.4725C5.24355 10.518 5.12929 10.7242 5.12929 11.0001C4.9127 11.0342 4.8044 11.0682 4.60586 11.1193C4.64196 10.9661 4.71416 10.864 4.76831 10.8129C4.66001 10.8129 4.31707 10.8299 4.15462 10.9831C4.08243 10.2853 5.07515 9.63853 5.30979 8.7705Z" fill="#FEFE01"/>
<path d="M6.03177 8.61748C6.07419 8.57749 6.40449 8.76062 6.75375 9.0612C6.72736 8.95374 6.68762 8.84959 6.63535 8.75092C6.52597 8.54345 6.37363 8.37733 6.20884 8.26959C6.51099 8.30925 6.86151 8.59587 7.08478 9.01848C7.1496 9.14054 7.19996 9.26897 7.23495 9.40143C7.27927 9.56603 7.3387 9.72668 7.41256 9.88157C7.54666 10.1687 7.58168 10.407 7.54793 10.4386C7.27718 10.6939 6.39457 10.6504 6.01372 10.1663C5.59859 9.63869 5.64894 8.97848 6.03177 8.61748Z" fill="#040000"/>
<path d="M6.1221 8.99196C6.08853 9.01545 5.94161 9.51958 6.28455 9.97913C6.54699 10.3308 6.95238 10.3536 7.24117 10.2685C7.24803 10.2664 7.27961 10.2451 7.27727 10.2174C7.26716 10.094 7.13035 9.75565 6.86213 9.50256C6.3748 9.04302 6.12788 8.98787 6.1221 8.99196Z" fill="#EAEAEA"/>
<path d="M6.87113 10.0982C7.06551 10.0982 7.22309 9.94964 7.22309 9.76634C7.22309 9.58304 7.06551 9.43445 6.87113 9.43445C6.67674 9.43445 6.51917 9.58304 6.51917 9.76634C6.51917 9.94964 6.67674 10.0982 6.87113 10.0982Z" fill="#040000"/>
</svg>
