<!-- by TradingView --><svg width="18" height="18" viewBox="0 0 18 18" xmlns="http://www.w3.org/2000/svg"><path fill="#F0F3FA" d="M0 0h18v18H0z"/><path d="M15 7h-1.29L12.5 8.63 11.29 7H10l1.86 2.5L10 12h1.29l1.21-1.63L13.71 12H15l-1.86-2.5L15 7Z" fill="#E47A04"/><path d="M8.13 5.16 8.5 4l.37 1.16L8.5 6l-.38-.84ZM7 5c.26.02.85.25 1.12 1-.17-.1-.95-.16-1.12-1ZM10 5c-.26.02-.85.25-1.12 1 .17-.1.95-.16 1.12-1Z" fill="#08883E"/><path d="M4 7H3v5h4v-1H4V7ZM7.2 8.64l-.17-.44a.42.42 0 0 1 .06-.41l.53-.72c.05-.06.14-.08.23-.06.28.07.56.1.65.12.09-.01.37-.05.65-.12.09-.02.18 0 .23.06l.34.46-1.18.19 1.45.23a.4.4 0 0 1-.02.25l-.74 1.85-.94.15.83.13-.62 1.57-1.1-2.78 1.4-.23-1.6-.25Z" fill="#E47A04"/><path d="m7 12.74 1.5-.25 1.5.25-1.5.26-1.5-.26Z" fill="#B3B3B3"/></svg>