<!-- by TradingView --><svg width="18" height="18" viewBox="0 0 18 18" xmlns="http://www.w3.org/2000/svg"><path fill="#F0F3FA" d="M0 0h18v18H0z"/><path d="M9.03 8.17 8.17 9 5.18 6.1h-.04a4.59 4.59 0 0 0 .84 6.61c.02.02.02.04 0 .05l-.74.73h-.05a5.64 5.64 0 0 1 .07-8.98l3.77 3.66ZM11.18 11.94a5.75 5.75 0 0 0 .75-.7c.04-.06.07-.1.11-.13l.78.76c.03.02.05.02.07 0a4.6 4.6 0 0 0-.83-6.54c-.03-.04-.03-.06 0-.1l.72-.7h.05a5.65 5.65 0 0 1-.06 8.95l-1.59-1.54Z" fill="#DF1147"/><path d="M12.05 11.11a.34.34 0 0 0-.12.12 5.76 5.76 0 0 1-.75.7L9.06 9.9c-.03-.03-.07-.03-.1 0l-2.1 2.03c-.03.02-.05.02-.08 0-.52-.39-.9-.84-1.15-1.35a3.5 3.5 0 0 1 .03-3.17c.01-.03.03-.03.05-.01l.78.76c.03.02.03.05.02.09-.23.73-.15 1.43.26 2.09.01.02.03.02.05 0L8.17 9l.86-.83 2.17 2.13h.05c.04-.05.08-.1.11-.18.09-.19.16-.4.22-.63a.82.82 0 0 0 .03-.2v-.15c.02-.06.02-.11.02-.14-.03-.9-.43-1.61-1.2-2.12-.02-.02-.02-.04 0-.06l.75-.73h.05a4.39 4.39 0 0 1 .92.97 3.26 3.26 0 0 1 .59 1.7v.47a3.6 3.6 0 0 1-.7 1.88Z" fill="#110E0F"/></svg>