<!-- by TradingView --><svg width="18" height="18" viewBox="0 0 18 18" xmlns="http://www.w3.org/2000/svg"><path fill="#F0F3FA" d="M0 0h18v18H0z"/><path d="M9.29 4a5.04 5.04 0 0 1 4.7 4.6l.01.82A4.96 4.96 0 0 1 9.36 14V14h-.75A5.03 5.03 0 0 1 4 9.4v.04L4 8.56c.03-.08.04-.18.05-.32A5.03 5.03 0 0 1 8.61 4h.68Z" fill="#DBC95E"/><path d="M4.22 9.13c.02.02.03.04.03.08a4.77 4.77 0 0 0 4.16 4.51l.52.04c.12.02.23-.01.38-.02a4.71 4.71 0 0 0 4.43-4.28c0-.09 0-.19.02-.29a5.92 5.92 0 0 0-.17-1.4 4.79 4.79 0 0 0-4.85-3.52l-.2.01a4.76 4.76 0 0 0-4.28 4.41c0 .1-.02.18-.04.26a4.48 4.48 0 0 1 1.34-3.26 4.79 4.79 0 1 1-1.34 3.46Z" fill="#F8E388"/><path d="M4.22 9.13a.3.3 0 0 0 0-.2c.02-.08.04-.17.04-.26l.02-.25a4.76 4.76 0 0 1 4.26-4.16h.2c.12-.03.22-.03.3-.03l.27.02a4.79 4.79 0 0 1 4.45 4.92l-.03.3a4.71 4.71 0 0 1-4.43 4.28c-.14 0-.25.03-.37 0-.16-.01-.38 0-.52-.03a4.8 4.8 0 0 1-4.16-4.51c0-.04-.01-.06-.03-.08Z" fill="#DAB75C"/><path d="m8.43 4.42-.04.03h-.05c-.02-.01-.03-.02-.03-.04s.02-.03.04-.04h.05l.03.05ZM9.79 4.4h-.04a.03.03 0 0 0 .01.06h.04c.01 0 .03-.01.02-.03a.03.03 0 0 0-.03-.03ZM8.1 4.51a.05.05 0 1 0 0-.1.05.05 0 0 0 0 .1Z" fill="#F8E388"/><path d="M13.5 9a4.5 4.5 0 1 1-9 0 4.5 4.5 0 0 1 9 0Z" fill="#F8E388"/><path d="M13.46 9a4.46 4.46 0 1 1-8.91 0 4.46 4.46 0 0 1 8.9 0Z" fill="#CA9C48"/><path d="M10.57 4.7c.03 0 .06-.01.07-.03 0-.02-.01-.05-.04-.06-.03 0-.06 0-.07.02 0 .03.01.05.04.06ZM4.94 7.81H4.9a.03.03 0 0 1-.02-.02.03.03 0 0 1 0-.03l.2-.52H5.18l.26-.5c.02-.02.01-.03-.01-.04a.03.03 0 0 1-.03-.03v-.02l.33-.43a.04.04 0 0 1 .04-.01l.04.02a.02.02 0 0 0 .03-.01 2.44 2.44 0 0 1 .4-.41v-.02l-.04-.01c-.02-.01-.02-.03 0-.04l.46-.34a.02.02 0 0 1 .03 0v.01c0 .02.02.03.04.03l.04-.01a3.97 3.97 0 0 1 .48-.28c0-.02 0-.03-.02-.04-.03 0-.03-.02 0-.03l.53-.2a.02.02 0 0 1 .04.03c0 .01 0 .03.02.03h.03c.2-.06.38-.09.52-.1.03 0 .04-.03.04-.07 0-.02 0-.03.02-.03.18-.02.38-.05.57-.02.01 0 .02.01.01.02v.01a7.82 7.82 0 0 1 .58.06c.02 0 .02-.01.02-.03a.03.03 0 0 1 .04-.03 17.05 17.05 0 0 1 .56.13l-.01.04v.02l.54.21h.03V5.1l.02-.01h.03l.5.27a.02.02 0 0 1 0 .02v.01l-.03.03v.02l.46.34h.03l.03-.03h.04l.38.4v.02c0 .01 0 .03-.02.03v.01l-.01.01a.02.02 0 0 0 0 .02 2.73 2.73 0 0 1 .35.45h.03l.03-.02c.01 0 .02 0 .03.02l.27.48a.03.03 0 0 1 0 .03.03.03 0 0 1-.03.01l-.03.01v.03c.07.15.14.33.19.51l.02.02h.06a.03.03 0 0 1 .03.03l.11.54v.02h-.01l-.04.01-.02.03.04.53.02.03.04.02a.03.03 0 0 1 .01.02l-.02.55v.02h-.02a.2.2 0 0 0-.07.03l-.02.03a2.74 2.74 0 0 1-.1.54l.03.01a.03.03 0 0 1 .03.02.03.03 0 0 1 0 .03l-.2.5c0 .02-.01.02-.02.02h-.05l-.03.01a2.43 2.43 0 0 1-.27.5.01.01 0 0 0 .01.01l.05.02v.03l-.34.45-.02.01-.04-.01h-.02a.04.04 0 0 0-.02 0h-.01a2.26 2.26 0 0 1-.39.39v.02l.01.01c.02 0 .03.01.03.02v.03l-.47.35h-.02l-.02-.03a.02.02 0 0 0 0-.02.02.02 0 0 0-.03 0l-.5.28v.04c.04.02.04.03 0 .04a21.96 21.96 0 0 1-.54.2c-.02 0-.02-.01-.02-.02v-.02l-.01-.01h-.03l-.53.1a.05.05 0 0 0-.03.02l-.01.01v.04s0 .02-.02.02a3 3 0 0 1-.57.02L9 13.25a.03.03 0 0 0-.03-.02l-.55-.05-.02.01v.02a.03.03 0 0 1-.02.04h-.02l-.55-.11c-.02 0-.02-.01-.02-.03l.01-.02.01-.02c0-.01 0-.02-.02-.03a6.1 6.1 0 0 1-.55-.19v.04h-.02a.03.03 0 0 1-.03 0l-.49-.25a.03.03 0 0 1 0-.05l.01-.03v-.01l-.01-.02c-.17-.1-.32-.21-.44-.33h-.03c-.01 0-.02 0-.02.02a.02.02 0 0 1-.01.03.02.02 0 0 1-.03-.01l-.39-.39a.04.04 0 0 1 0-.05h.01l.02-.04-.01-.02a2.7 2.7 0 0 1-.32-.43h-.09l-.02-.02-.28-.48.01-.02.05-.03-.2-.55H4.9l-.02-.02-.12-.55v-.02l.06-.03h.02v-.02l-.07-.55L4.75 9h-.02a.02.02 0 0 1-.02-.03l.02-.54c0-.01 0-.02.02-.02l.07-.03.01-.02a3.88 3.88 0 0 1 .11-.55Z" fill="#F8E388"/><path d="M12.88 10.2a8.22 8.22 0 0 1-.16.5l.04.01v.03l-.24.48h-.03c-.06-.02-.1 0-.13.05-.06.12-.15.24-.27.37-.01.02 0 .04.02.05h.01a.03.03 0 0 1 0 .04l-.39.4h-.02l-.01-.01c0-.02-.01-.04-.03-.04 0 0-.02 0-.03.02a5.67 5.67 0 0 1-.44.34l.03.02v.01l.01.01a.02.02 0 0 1-.01.02l-.47.26h-.02c-.03 0-.04 0-.04-.03a.02.02 0 0 0-.02-.01l-.52.19c-.01 0-.02 0-.01.02l.02.02v.03c-.18.06-.36.1-.56.12l-.02-.01v-.03a.02.02 0 0 0 0-.02.02.02 0 0 0-.02-.01l-.56.06-.01.02a.02.02 0 0 1-.01.03h-.01l-.55-.02h-.02v-.05c.03-.02.03-.03 0-.04l-.53-.11-.03.01c0 .04-.03.05-.07.04a3.7 3.7 0 0 1-.48-.2c-.03 0-.03-.01 0-.02l.01-.03v-.02l-.5-.26H6.8l-.02.02a.34.34 0 0 1-.02.03l-.43-.3a.1.1 0 0 1-.02-.03v-.02l-.01-.01v-.02l.03-.02v-.01l-.38-.38c-.01-.01-.02-.02-.03-.01-.05.01-.09 0-.12-.05a11.43 11.43 0 0 1-.27-.4l.04-.02v-.03l-.12-.2a7.53 7.53 0 0 0-.12-.25c-.02-.03-.04-.04-.07-.03-.03 0-.05-.01-.06-.04l-.18-.47.01-.02.06-.03a.01.01 0 0 0 0-.02v-.01l-.01-.01-.1-.5c0-.02-.01-.03-.03-.03H4.9c-.01 0-.02 0-.02-.02l-.03-.54.01-.01.05-.01.01-.02.05-.55c0-.01 0-.02-.02-.01h-.03c-.02 0-.03 0-.02-.03l.1-.52c0-.02.01-.02.03-.02h.04l.02-.01.2-.51a.02.02 0 0 0 0-.02.02.02 0 0 0-.02-.01c-.01 0-.02 0-.03-.02v-.03l.24-.46c.01-.02.02-.02.04-.02l.04.02h.02l.32-.44a.02.02 0 0 0 0-.02.1.1 0 0 0-.03-.03v-.03l.38-.38h.03l.04.02h.02l.44-.33v-.04c-.03-.02-.03-.03 0-.04l.47-.26a.02.02 0 0 1 .02 0 .02.02 0 0 1 .01.02v.02h.03l.54-.2-.03-.03v-.03c.2-.06.37-.1.55-.12.02 0 .03 0 .05.02v.04h.02l.55-.04.02-.01V4.9L9 4.88v-.01c0-.02.01-.03.03-.03a13.05 13.05 0 0 1 .57.06l-.02.02-.02.02v.01h.02l.55.12.02-.01v-.03a.03.03 0 0 1 .01-.02.03.03 0 0 1 .03 0l.51.2a.01.01 0 0 1 .01.01v.01a.12.12 0 0 0-.03.03v.01a.02.02 0 0 0 .01.01l.48.26h.03c.04-.03.07-.03.09-.01a6.07 6.07 0 0 1 .4.34l-.02.02v.01a.02.02 0 0 0 0 .01l.39.39h.03l.02-.02a.03.03 0 0 1 .04 0l.32.43v.04l-.02.02v.04l.24.46H12.76a4.68 4.68 0 0 1 .2.5c.02.03 0 .05-.04.06v.02l.11.54.02.01h.06v.02l.04.53c0 .01 0 .02-.02.02l-.04.03c-.01 0-.02.01-.02.03v.12c-.02.14 0 .28-.04.4-.01.01 0 .02.01.02h.04c.02 0 .03.01.02.03l-.1.53c0 .01-.01.02-.03.02h-.04c-.02 0-.04 0-.05.03Z" fill="#CA9C48"/><path d="M6.8 4.9a.01.01 0 0 1 .02.02v.03l-.01.02-.02.01-.01.01h-.01c-.01 0-.03 0-.04-.02a.08.08 0 0 1-.01-.04.01.01 0 0 1 .01-.02h.07ZM6.55 5.13c.02-.01.04-.04.03-.06 0-.02-.04-.03-.06-.02-.03.01-.05.04-.04.06.01.02.04.03.07.02ZM8.69 5.12h-.01a.02.02 0 0 0-.02.03l.05.19.02.01h.02c.01 0 .02-.02.01-.03l-.04-.18a.02.02 0 0 0-.03-.02ZM9.18 5.12a.01.01 0 0 1 .01.01v.03c.01.05.02.1.01.13l-.01.06c-.02 0-.03-.01-.04-.05a.84.84 0 0 1-.03-.13v-.03l.01-.01h.05ZM11.6 5.2c.02 0 .04-.01.04-.03 0-.03-.02-.05-.05-.05-.03 0-.05.02-.05.05 0 .02.02.04.05.04ZM9.63 5.17h-.02c-.02 0-.02 0-.02.02v.1c0 .02 0 .03.02.03h.02l.02-.02v-.11c0-.01 0-.02-.02-.02ZM8.23 5.19h-.01a.03.03 0 0 0-.02.03l.03.1c0 .02.02.03.03.02h.01c.02 0 .02-.02.02-.03l-.03-.1a.03.03 0 0 0-.03-.02ZM10.06 5.26c-.02 0-.03 0-.03.02l-.09.9c0 .01.01.03.03.03.02 0 .03-.01.03-.02l.09-.9c0-.02-.01-.03-.03-.03ZM7.77 5.32a.03.03 0 0 0-.02.03l.3.73c0 .01.02.02.03.01h.01c.02 0 .02-.02.02-.04l-.3-.72a.03.03 0 0 0-.04-.01ZM8.34 5.54c-.02.03-.01.05.03.08l.2.13c.09.05.11.19.05.27-.06.08-.13.1-.23.1h-.22c-.03 0-.04-.01-.03-.04l.01-.07a.06.06 0 0 1 .06-.04c.1 0 .2.01.26-.02a.04.04 0 0 0 .02-.06l-.02-.01-.2-.12c-.08-.06-.12-.13-.1-.22.04-.2.3-.19.49-.17v.01l-.03.13a.03.03 0 0 1-.02.02h-.25a.03.03 0 0 0-.02.01ZM8.89 5.56v.52a.06.06 0 0 1-.04.06l-.07.02c-.03.01-.04 0-.04-.03 0-.15 0-.36-.02-.63 0-.1.08-.14.18-.14l.18.01c.23.05.32.32.17.48-.06.08-.16.11-.28.11-.02 0-.03-.01-.03-.03v-.1c0-.02 0-.03.03-.03.14.02.23-.1.16-.22-.02-.06-.16-.06-.22-.04-.02 0-.02 0-.02.02ZM9.55 5.54c-.02.03-.01.05.02.08l.2.13c.1.05.12.2.05.28-.06.08-.13.1-.23.1l-.23-.01c-.03 0-.04-.01-.03-.04L9.35 6a.06.06 0 0 1 .06-.04c.1 0 .2.01.26-.01a.04.04 0 0 0 0-.08l-.19-.13c-.09-.05-.12-.13-.1-.22.05-.2.31-.18.49-.16l.01.02-.04.12a.03.03 0 0 1-.02.02h-.25a.03.03 0 0 0-.02.01ZM6.13 5.43c0 .02-.02.04-.07.04l-.02-.01a.05.05 0 0 1-.01-.04l.01-.03h.03c.04 0 .06.02.06.04ZM10.49 5.4h-.01c-.01 0-.03 0-.03.02l-.2 1.06.01.03h.01c.02 0 .03 0 .03-.02l.2-1.06c.01-.01 0-.03-.01-.03ZM7.25 5.52a.03.03 0 0 0-.02.04l.71 1.26c.01.02.03.02.04.01.02 0 .02-.02.02-.04l-.71-1.26a.03.03 0 0 0-.04-.01ZM10.89 5.6h-.02l-.02.01-.29.95c0 .01 0 .02.02.03h.01c.01 0 .03 0 .03-.02l.28-.94-.01-.03ZM7.12 6.16a.45.45 0 0 1-.11-.1 4.66 4.66 0 0 0-.19-.3h.02c.02 0 .04 0 .05.03l1.03 1.5a.02.02 0 0 1 0 .01h-.03l-.03-.01-.71-1.04-.01-.03v-.04s0-.02-.02-.02ZM11.25 5.83h-.04l-.09.22c0 .01 0 .02.02.03h.04l.09-.23s0-.02-.02-.02ZM12.43 5.94c.03 0 .05 0 .06-.03 0-.02-.02-.04-.04-.05-.03 0-.05.01-.05.04 0 .02.01.04.03.04ZM9.24 6.2c0-.06-.04-.15-.03-.23 0-.02.01-.02.03-.02h.01a.03.03 0 0 1 .03.03v.13l.13 1.16c0 .03 0 .03-.03.01a.23.23 0 0 1-.04-.11 47 47 0 0 1-.1-.96ZM6.5 6.16a3.6 3.6 0 0 0-.06-.1c0-.02.03-.02.05 0l.06.06.06.07v.03h-.05l-.06-.06ZM11.47 6.47h.22v.03a.48.48 0 0 1-.35.1l-.03.01a.18.18 0 0 0-.02.04l-.01.02-.02.01h-.03l-.1-.08v-.03a.16.16 0 0 1 .07-.04c.01 0 .02 0 .01-.02s-.05-.03-.06-.06a.52.52 0 0 1-.06-.25c.01-.08.03-.09.07-.02l.14.2c.03.03.06.04.1.02.03-.02.05-.03.08 0v.02l-.02.03v.02ZM8.12 6.16a.03.03 0 0 0-.02.04l.46 1.1c.01.01.03.02.04.01.02 0 .03-.02.02-.04l-.46-1.1a.03.03 0 0 0-.04-.01Z" fill="#F8E388"/><path d="M6.7 6.4c-.12-.03-.22-.02-.3.04-.02.02-.05.01-.07 0l-.02-.03c-.02-.02-.02-.04.01-.05l.47-.16a.5.5 0 0 1 .27-.03c.03 0 .04.02 0 .04l-.08.06-.01.03c0 .14-.03.28-.07.4a.55.55 0 0 1-.1.18.03.03 0 0 1-.04.01c-.02 0-.02-.02-.03-.04a2.2 2.2 0 0 1-.02-.42c0-.01 0-.02-.02-.02Z" fill="#F8E388"/><path d="M10.29 12.27c-.02.01-.02.02 0 .02l.22-.01a230 230 0 0 0 .6-.01c-.13.06-.27.04-.37.05a6.07 6.07 0 0 1-.73 0c-.09-.01-.16-.03-.21-.1a.03.03 0 0 1 0-.03c.21-.11.35-.2.25-.47a.08.08 0 0 0-.07-.05h-.05c-.03-.01-.04 0-.02.03.08.13.09.22.02.26-.07.05-.17.1-.3.13-.06.02-.16.03-.3.03-.08 0-.3.01-.4.07a.04.04 0 0 0-.01.04.04.04 0 0 0 .03.03l.22.07a.06.06 0 0 1 .05.04.06.06 0 0 1 0 .06c-.04.04-.09.06-.16.06-.43-.02-.9.01-1.32.13-.1.03-.17 0-.24-.03v-.01c.22-.1.37-.18.46-.26.15-.11.26-.22.45-.3.19-.07.36-.04.52.1h.02l.15-.04v-.01l-.29-.23a.39.39 0 0 0-.14-.06c-.18-.04-.45.15-.59.27-.22.18-.48.37-.75.43h-.05l-.07-.03a.01.01 0 0 1 0-.02c.1 0 .22-.03.34-.1.16-.09.29-.17.38-.24.25-.2.63-.53.96-.27a17.99 17.99 0 0 1 .31.25h.06l.18-.01c.04 0 .04-.02 0-.03-.2-.1-.35-.24-.57-.4a.54.54 0 0 0-.19-.11c-.17-.04-.39.1-.52.2-.15.12-.4.34-.64.47-.21.13-.4.16-.63.08-.03 0-.03-.02 0-.03h.24c.22.02.39-.1.61-.27.2-.13.42-.35.7-.47a.4.4 0 0 1 .44.06 4.86 4.86 0 0 0 .71.47h.07l.13-.05c.05-.01.05-.03 0-.05a4.21 4.21 0 0 1-.96-.6c-.13-.1-.26-.1-.41-.02l-.29.18c-.35.28-.57.47-.9.62-.1.05-.23.01-.4-.01a1 1 0 0 0-.14.02c-.02 0-.03 0-.05-.03v-.02c.1-.03.18-.04.26-.02l.2.03c.14 0 .32-.13.44-.21l.53-.4c.15-.13.4-.31.6-.28a.6.6 0 0 1 .23.12c.29.21.63.47.97.59h.02a.04.04 0 0 0 .03-.04.48.48 0 0 0-.05-.12c-.02-.03-.05-.05-.1-.08a14.3 14.3 0 0 1-.89-.57.5.5 0 0 0-.23-.1.38.38 0 0 0-.25.05c-.32.22-.65.5-.92.7-.14.1-.35.24-.52.22-.08 0-.2-.07-.29-.06a.76.76 0 0 0-.16.05H6.45c-.02-.02-.02-.03 0-.04a.43.43 0 0 1 .21-.06c.03 0 .03 0 0-.02-.1-.08-.28-.2-.38-.2-.07 0-.12 0-.16-.02-.04 0-.04-.02 0-.03.2-.04.38.08.56.2.17.1.24.01.37-.09l.11-.1c.14-.14.3-.18.5-.12.05.01.09 0 .11-.04v-.02c-.18-.1-.39-.12-.55.03l-.19.17c-.12.11-.23.14-.37.05-.18-.1-.32-.2-.5-.19l-.16.01v-.01a.1.1 0 0 1 .05-.04c.19-.03.36 0 .52.12.14.1.24.18.4.04.26-.22.43-.43.83-.22a.06.06 0 0 0 .06 0c.03-.02.03-.04 0-.06a1.17 1.17 0 0 0-.18-.1c-.29-.12-.44.05-.62.22a.56.56 0 0 1-.12.1c-.22.1-.42-.15-.6-.2a.56.56 0 0 0-.4.03h-.03v-.03c.27-.14.51-.05.75.12.12.09.23.08.33-.02l.24-.21c.22-.16.46-.09.67.06a.06.06 0 0 0 .05 0h.03c.02 0 .02-.02 0-.03-.13-.12-.28-.2-.43-.23-.16-.04-.34.1-.44.21-.13.13-.26.24-.45.13l-.2-.13c-.2-.11-.4-.1-.6.02a.04.04 0 0 1-.03 0h-.01v-.02c.3-.22.59-.12.87.08.1.08.2.06.3-.04l.18-.16c.3-.26.6-.1.86.11l.08-.04c-.23-.17-.6-.49-.88-.22-.14.13-.28.3-.44.28a58.27 58.27 0 0 1-.34-.17c-.2-.12-.43-.1-.66.08h-.04v-.01c.2-.18.4-.23.63-.16.12.04.25.14.36.2.16.1.38-.2.49-.28.31-.23.65.04.88.23h.08c.02-.02.02-.03 0-.04-.29-.22-.64-.55-.95-.28-.12.1-.32.34-.5.28-.11-.05-.27-.17-.38-.21-.24-.09-.42 0-.6.16a.06.06 0 0 1-.05.01H5.7v-.01a.02.02 0 0 1 0-.02c.16-.17.38-.27.62-.21a2638.36 2638.36 0 0 1 2.38-.76l-.01-.01-.02-.01h-.02l-3.12.68c-.02 0-.03 0-.03-.02v-.01l.01-.03 3.15-.68.01-.02a.02.02 0 0 0-.03-.02l-2.18.25h-.01a.13.13 0 0 1 .1-.07 1583.01 1583.01 0 0 0 2.12-.25v-.01a.02.02 0 0 0-.01-.02h-.01l-.43.01a51.85 51.85 0 0 1-1.1.02H6.7c-.02 0-.03-.01-.02-.03h.01a.04.04 0 0 1 .04-.03l1.91-.02a.02.02 0 0 0 .02-.03v-.01h-.02a118.66 118.66 0 0 0-2.15-.2.02.02 0 0 1 .02-.03 57.04 57.04 0 0 1 2.16.16c.02 0 .02-.01.01-.03h-.02A90.89 90.89 0 0 1 6.4 9.2v-.02h.06a351.18 351.18 0 0 1 2.24.39l.02-.02v-.01a421.66 421.66 0 0 1-2.39-.7l-.03-.01h-.08a157.42 157.42 0 0 0-1.07-.32v-.01a.02.02 0 0 1 .03-.02l3.52 1h.02l.02-.01v-.02l-2.01-.8c-.02 0-.02 0 0-.01l.02-.02h.05l1.95.77h.02a.01.01 0 0 0 0-.03l-1.73-.88v-.02a.14.14 0 0 1 .12 0 3140.34 3140.34 0 0 1 1.65.84.02.02 0 0 0 0-.03l-1.42-.9v-.03h.07l1.37.87.04.01h.02v-.01l-1.25-.98V8.2a.1.1 0 0 1 .08.02l1.17.92a.05.05 0 0 0 .03 0h.02a.01.01 0 0 0 0-.02l-.24-.22a9.5 9.5 0 0 0-.63-.6c-.19-.2-.42-.4-.64-.62-.15-.15-.34-.3-.46-.44-.29-.3-.56-.53-.85-.83V6.4a.02.02 0 0 1 .01-.01c.03 0 .07.03.13.08a76.94 76.94 0 0 0 1.47 1.44l.34.3.4.4a17.82 17.82 0 0 1 .52.5h.01a.01.01 0 0 0 .02-.01v-.01L6.97 6.7l-.02-.05v-.02H7l2.04 2.38a.03.03 0 0 0 .03.01l-1-1.48c-.02-.01-.01-.02 0-.02h.03l.04.03.98 1.43a.02.02 0 0 0 .02 0h.02a.01.01 0 0 0 0-.02l-.81-1.44c-.01-.02 0-.03.02-.03h.01c.02 0 .03.02.04.03l.78 1.4a.02.02 0 0 0 .03.01h.01a.02.02 0 0 0 .01-.03l-.59-1.4.01-.02h.03a.02.02 0 0 1 .02.01l.6 1.4.02.01V8.9L8.5 6.2v-.02l.02-.02c.02 0 .03 0 .04.02l.83 2.68a.02.02 0 0 0 .01.02h.02l-.54-2.69a.02.02 0 0 1 0-.01.02.02 0 0 1 .01 0h.02l.03.01a1956.58 1956.58 0 0 1 .33 1.75c.01.07.05.12.06.18a71.08 71.08 0 0 1 .16.75h.02v-.02l-.07-.68c0-.03 0-.04.03-.01.03.02.04.06.05.1a51.88 51.88 0 0 0 .06.6h.02v-.79a.03.03 0 0 1 .02-.02h.03l.01.8v.03c-.3.22-.34.62-.16.93.06.1.18.24.22.36.04.17 0 .32-.1.46 0 .02 0 .03.03.02.26-.08.27-.23.26-.48a.3.3 0 0 0-.03-.12l-.07-.14-.14-.2a.7.7 0 0 1 .02-.78.08.08 0 0 0 0-.08v-.03a.32.32 0 0 0 .03-.08v-.29c.01-.1.04-.24.04-.37 0-.02 0-.03.02-.03h.04v.02l-.07.77v.02h.02c.02 0 .03 0 .03-.02l.14-.79a.1.1 0 0 1 .02-.04l.03-.02c.02 0 .03 0 .02.02l-.17.85a.02.02 0 0 0 .01.02h.02a.01.01 0 0 0 .02 0l.26-.94.01-.03c.05-.04.07-.1.06-.16v-.03l.28-.93.02-.02h.02c.02 0 .02 0 .02.02L9.93 8.9v.01h.03l.01-.02 1.04-2.57c.01-.02.02-.02.04 0l.02.01v.02l-1.05 2.58h.04l1.14-2.18.01-.01.02-.01h.02l.02.01-1.17 2.22v.01h.02a.03.03 0 0 0 .03 0l1.68-2.57c.01-.02.02-.02.04-.02h.01c.02.01.02.02.01.03l-1.7 2.6c-.02.01-.01.02 0 .02h.02L12.1 6.7c0-.01.02-.02.03-.01h.02a.02.02 0 0 1 0 .02l-1.89 2.35v.01h.04l.97-.99a.05.05 0 0 1 .04-.01h.04v.01l-1 1.03v.02c.02 0 .03 0 .05-.02a47.3 47.3 0 0 1 1.01-.82v.03a.01.01 0 0 1 0 .01l-1.01.87h.04a101.2 101.2 0 0 1 .96-.63h.01v.01h.01a.02.02 0 0 1 0 .03l-.96.65v.01l.02.01h.01l.9-.48c.01-.01.02 0 .02.01v.01a.02.02 0 0 1 0 .02l-.91.51.01.02a.02.02 0 0 0 .02 0l.86-.37a.01.01 0 0 1 .02.02v.01c0 .02 0 .03-.02.04l-.84.35a.01.01 0 0 0 0 .02l.01.02.82-.25a.03.03 0 0 1 .03 0v.01h.01v.03l-.85.26-.01.01a.01.01 0 0 0 0 .02h.05l.77-.16h.02v.01l.01.01c.01.02 0 .03-.01.03l-.8.18c-.01 0-.02 0 0 .02h.03a70.18 70.18 0 0 1 .78-.06v.04a19.22 19.22 0 0 1-.78.1c-.03.01-.03.02 0 .02h.74c.02 0 .03 0 .03.03l-.02.02h-.02l-.73.01-.02.01v.03l.75.07a.03.03 0 0 1 .03.02v.01l-.01.02-.75-.06h-.01a.02.02 0 0 0 0 .03v.01h.01l.74.14c.01 0 .02 0 0 .03a.04.04 0 0 1-.04.02l-.7-.13-.02.01v.01c.1.05.22.08.34.1a1.36 1.36 0 0 1 .42.12.03.03 0 0 0 .02 0l.01-.02c.04-.14.06-.27.05-.4v-.14a11.13 11.13 0 0 0 .02-1.47c0-.11 0-.2-.15-.2-.02 0-.03-.02-.04-.04 0-.02 0-.04.03-.07a14.35 14.35 0 0 1 .5-.53h.24l.01.02a53.1 53.1 0 0 0 0 2.53c0 .05 0 .15.02.19l.01.03c.02.14.09.24.22.28a.03.03 0 0 1 .02.02v.02c0 .02 0 .03-.03.03h-.57c-.02 0-.02.01-.01.02.07.08.12.13.23.17a9.77 9.77 0 0 1 .35.13c.06 0 .1-.04.17-.04.02 0 .03.01 0 .03-.2.1-.4.09-.57-.06-.2-.17-.44-.43-.76-.54-.3-.1-.54.04-.8.18-.2.1-.46.2-.65.31l-.7.4c-.02.01-.02.02 0 .03l.05.02h.06a14.4 14.4 0 0 1 1.51-.77c.39-.17.74-.03 1.03.24.1.1.24.2.33.27.1.08.22.09.39.03h.01l.02.01v.02c-.22.11-.38.04-.56-.1a3.1 3.1 0 0 1-.17-.15c-.3-.28-.64-.46-1.05-.27l-.5.22c-.33.15-.68.35-1 .54a.01.01 0 0 0 0 .01c.04.04.1.04.15 0 .44-.26.91-.49 1.43-.68.5-.2.85.17 1.2.47a.41.41 0 0 0 .4.08h.01v.04h-.01c-.17.05-.3.02-.42-.08-.35-.3-.68-.65-1.16-.47a8.87 8.87 0 0 0-1.46.73l.04.02h.05c.39-.21.83-.44 1.3-.62a.85.85 0 0 1 .89.16l.31.26c.12.1.2.1.35.12l.01.01-.01.01a.41.41 0 0 1-.36-.1c-.2-.15-.3-.26-.48-.37a.74.74 0 0 0-.38-.1c-.08 0-.2.02-.36.08-.26.1-.48.19-.66.28l-.57.3c-.02.01-.02.02 0 .03l.03.02h.06l.8-.4c.09-.04.24-.1.46-.16.48-.15.75.13 1.08.41.08.07.17.1.26.12a.03.03 0 0 1 .03 0v.03a.4.4 0 0 1-.29-.09l-.36-.3a.8.8 0 0 0-.46-.17c-.09 0-.2.02-.36.07-.38.13-.63.28-1.13.53-.03.01-.03.02 0 .03l.05.02a.1.1 0 0 0 .07-.01l.88-.43c.32-.12.6-.16.9.03.07.04.17.12.32.26a.8.8 0 0 0 .27.16c.02.01.02.02 0 .03-.05 0-.1-.01-.14-.04-.17-.13-.33-.27-.52-.4-.27-.17-.58-.1-.86.03-.32.14-.6.27-.83.4-.02.01-.02.03 0 .04h.03c.02.01.04.01.07 0 .14-.06.3-.12.44-.2.18-.1.38-.18.58-.25.3-.1.55.05.78.23.12.1.2.14.36.24.01 0 .02.01.01.02 0 .03-.02.03-.07.01l-.04-.02a3.4 3.4 0 0 0-.37-.2c-.5-.23-.9 0-1.33.27v.03c.02.03.03.06.03.1a.03.03 0 0 0 .02.02h.03c.33-.24.73-.41 1.13-.28.12.04.27.1.46.21v.02l-.02.01h-.05c-.18-.1-.36-.17-.55-.23a.3.3 0 0 0-.1 0c-.31.01-.58.15-.84.31a.12.12 0 0 0-.05.07l-.03.11c-.01.03 0 .04.02.02l.45-.22c.06-.03.18-.06.34-.1.1 0 .2 0 .3.03.14.04.27.09.36.14.02 0 .02.01 0 .02l-.01.01a.06.06 0 0 1-.05 0c-.17-.07-.3-.11-.39-.13-.33-.04-.56.1-.9.27-.11.06-.25.1-.35.15-.03.01-.03.02 0 .03l.23.06h.02l.43-.22a.99.99 0 0 1 .82-.03v.02l-.01.01a.05.05 0 0 1-.05 0 .96.96 0 0 0-.74.06l-.3.14Z" fill="#F8E388"/><path d="M9.65 6.18v1.43c0 .02 0 .02-.02 0a24.85 24.85 0 0 1-.02-1.45h.03l.01.02ZM10.32 6.63c.07.03.14.02.24.01.04 0 .05.01.01.04a.53.53 0 0 1-.39.1l-.02.02-.01.02c0 .03-.03.05-.05.06h-.03L10 6.83c-.02-.02-.04-.04-.03-.06 0-.02.03-.04.07-.06.02 0 .02-.02 0-.03-.09-.05-.1-.15-.13-.24-.01-.04 0-.08.01-.12v-.05a.04.04 0 0 1 .04 0h.01c.05.1.11.18.18.25.05.07.08.05.14.04h.05v.02l-.02.03v.02ZM12.8 6.31h-.02a.04.04 0 0 0-.04.03v.01c0 .02.01.04.03.04h.02c.02 0 .04-.01.04-.03a.04.04 0 0 0-.03-.05ZM5.15 6.42h.01V6.49c0 .01 0 .02-.02.03H5.1l-.01-.02-.01-.02v-.02l.07-.03ZM12.94 6.63a.05.05 0 1 0 0-.1.05.05 0 0 0 0 .1Z" fill="#F8E388"/><path d="M9.92 6.77c.02.14 0 .27-.01.38a8.34 8.34 0 0 1-.07.47h-.01l-.01-.01.08-.95c0-.01 0-.02.02-.01.02 0 .03.02.03.03l-.01.04c-.02.02-.03.04-.02.05ZM4.98 6.75c.03 0 .06-.02.06-.04 0-.03-.03-.05-.06-.05s-.05.02-.05.04c0 .03.02.05.05.05ZM8.07 7.23l-.05-.06v-.03c-.02-.05-.03-.25 0-.31.04-.05.04-.07.06-.13l.02-.01h.03l.01.03a2.68 2.68 0 0 0 .15.44h.03l.12.01a.03.03 0 0 1 0 .06.15.15 0 0 0-.02.03.03.03 0 0 0 0 .02.03.03 0 0 0 .01.02l.29.09a.01.01 0 0 1 0 .01v.01a.07.07 0 0 1-.03.02c-.18.04-.36.07-.5-.04a.03.03 0 0 0-.04 0 .2.2 0 0 1-.06.08h-.02a.34.34 0 0 1-.1-.05l-.01-.03c0-.03 0-.06-.02-.08a.02.02 0 0 1 0-.03h.02l.1-.03c.01 0 .02-.01 0-.02ZM7.47 8.04 5.85 6.76h-.04v.05l1.63 1.27h.04v-.04ZM10.19 6.85h.02a.02.02 0 0 1 .02.01l-.17.86-.03.03h-.01a.02.02 0 0 1-.02-.02l.18-.87ZM4.9 6.93l-.02.06a.04.04 0 0 1-.07 0 .04.04 0 0 1 .02-.07h.06Z" fill="#F8E388"/><path d="M9.44 7.88c.02-.01.02-.02 0-.03-.13-.06-.13-.2-.18-.3-.03-.08 0-.15 0-.22 0-.1.04-.1.09-.02a2.3 2.3 0 0 0 .3.4.03.03 0 0 0 .03-.01c.04-.04.09-.05.14-.03.02 0 .02.01.02.03l-.03.06a.02.02 0 0 0 .01.03h.34a.02.02 0 0 1 .02.02v.01c-.05.07-.18.1-.28.15a.35.35 0 0 1-.27 0H9.6l-.01.02-.06.13a.02.02 0 0 1-.02 0 .26.26 0 0 0-.09-.03s-.02 0-.02-.02L9.34 8a.06.06 0 0 1 0-.08.24.24 0 0 1 .1-.04ZM6.57 8.23a.61.61 0 0 1-.17-.14.67.67 0 0 1-.06-.17 1.36 1.36 0 0 0-.07-.17c-.03-.06-.02-.14.02-.22V7.5l-.02-.1c0-.03 0-.04.03-.04.02 0 .03 0 .05.03.03.03.09.1.16.22.1.14.21.27.35.38a.04.04 0 0 0 .05 0 .19.19 0 0 1 .19-.06.05.05 0 0 1 .04.05V8l-.04.07a.02.02 0 0 0 0 .03.02.02 0 0 0 .02 0c.16.02.31.02.45 0 .08-.02.1 0 .04.08a.33.33 0 0 1-.13.08 1 1 0 0 0-.14.07.64.64 0 0 1-.54.05.01.01 0 0 0-.01 0v.01a.66.66 0 0 1-.09.2.04.04 0 0 1-.05 0c-.02-.02-.05-.02-.1-.01a.03.03 0 0 1-.04-.02.33.33 0 0 0-.13-.15.02.02 0 0 1 0-.01.02.02 0 0 1 0-.01c.06-.08.13-.1.19-.13v-.03ZM12.5 7.37l-.4.33a.02.02 0 0 0 .03.04l.4-.33a.02.02 0 0 0-.03-.04ZM4.64 7.52c.02 0 .04-.03.04-.05 0-.03-.03-.04-.06-.04-.03.01-.05.03-.04.06 0 .02.03.04.06.03Z" fill="#F8E388"/><path d="m5.35 7.62.02-.01h.04l.05.01.05.02.73.38a.43.43 0 0 1 .1.06l.02.03v.03l-1.01-.52ZM12.64 7.71l-.54.37a.02.02 0 1 0 .03.04l.54-.36a.02.02 0 0 0-.03-.04ZM12.1 8.47v-.04l.01-.02.03-.02.56-.31.03-.01h.05l.01.02-.69.38ZM13.59 8.48c.02 0 .05-.02.05-.04 0-.03-.02-.05-.05-.05-.02 0-.05.02-.05.04 0 .03.02.05.05.05ZM12.81 8.4l-.7.3a.03.03 0 0 0 .02.05l.7-.3c.02 0 .03-.01.02-.03a.03.03 0 0 0-.04-.01ZM4.37 8.61c.02.01.05 0 .06-.01.01-.02 0-.05-.02-.06-.02-.01-.05 0-.06.01-.01.02 0 .05.02.06ZM6.13 9.48h.02a.3.3 0 0 1-.05-.22l.02-.02c.05-.06.08-.09.1-.16 0-.05.03-.1.05-.17l.02-.01c.02 0 .02.01.02.02.02.07.01.17.03.26a5.68 5.68 0 0 0 .18.5l.07-.02h.03c.04 0 .07.03.1.06v.02c-.04.03-.05.03-.07.08-.1.2-.25.36-.47.41l-.01.03-.01.04c-.07.11-.14.24-.28.23h-.12c-.02 0-.04-.01-.04-.04 0-.08-.03-.08-.1-.11a.07.07 0 0 1 .01-.12l.4-.17c.02 0 .02-.02 0-.03a.33.33 0 0 1-.23-.3s0-.02-.02-.02a.68.68 0 0 1-.11-.15.4.4 0 0 1 0-.28v-.03l-.07-.2a.04.04 0 0 1 .04-.06c.14.02.38.34.46.44 0 .01.01.02.03.02ZM5.55 9.02l-.42-.07c-.01 0-.03 0-.03.02 0 .01 0 .02.02.03l.42.07c.01 0 .03 0 .03-.02 0-.01 0-.03-.02-.03ZM13.58 9.6c.03.01.05 0 .06-.02 0-.03-.01-.05-.04-.06-.03 0-.05 0-.06.03 0 .02.01.05.04.05ZM13.56 9.89c.02 0 .04-.03.04-.06 0-.02-.03-.04-.06-.03-.03 0-.05.03-.04.05 0 .03.03.04.06.04ZM4.47 10.02a.05.05 0 1 0 0-.1.05.05 0 0 0 0 .1ZM12.73 10.03l-.59-.05a.03.03 0 0 0 0 .05l.58.05c.02 0 .03 0 .03-.02a.03.03 0 0 0-.02-.03Z" fill="#F8E388"/><path d="M7.25 10.73c-.08.06-.17.13-.27.18a18.82 18.82 0 0 0-.26.1L6.7 11l-.22-.14v-.02l2.18-.71a.06.06 0 0 1 .04 0h.01c.02.02.02.02 0 .03a258.55 258.55 0 0 0-1.19.49c-.13 0-.21.03-.26.08Z" fill="#CA9C48"/><path d="M12.19 10.24h.01l.32.05a.9.9 0 0 1 .14.05v.02h-.04a.53.53 0 0 1-.12 0l-.31-.06V10.23Z" fill="#F8E388"/><path d="M8.2 10.97a.06.06 0 0 1-.07 0l-.05-.02c-.02-.02-.02-.03 0-.05l.72-.5a.03.03 0 0 1 .03 0h.02v.02l-.65.55ZM8.6 10.82c-.09.1-.2.17-.34.23h-.03V11a1427.5 1427.5 0 0 0 .66-.53v.02l-.28.32Z" fill="#CA9C48"/><path d="m12.16 10.56.01-.02.05-.01h.06a.6.6 0 0 1 .07.01h.02a.6.6 0 0 1 .13.06l.03.02.01.03-.38-.09Z" fill="#F8E388"/><path d="M8.92 10.56a.04.04 0 0 1 .04-.01h.01c.01 0 .02.01 0 .02l-.26.34a.05.05 0 0 1-.05.02h-.04c-.02 0-.03-.02-.01-.03l.3-.34Z" fill="#CA9C48"/><path d="M13.33 10.7c.03-.01.04-.04.04-.06-.01-.02-.04-.03-.06-.02-.03 0-.04.03-.04.05 0 .02.04.03.06.02Z" fill="#F8E388"/><path d="M8.83 10.98h-.02l-.05-.01v-.02l.24-.32a.02.02 0 0 1 .02 0h.02a.01.01 0 0 1 .01.02l-.22.33ZM9.19 10.72c.02 0 .03.02.03.05l-.03.08-.03.05a.2.2 0 0 1-.02.04l-.03.02a.08.08 0 0 1-.03.02h-.02v-.01l.13-.25Z" fill="#CA9C48"/><path d="M13.21 10.96c.03 0 .05-.03.05-.05 0-.03-.03-.04-.06-.04s-.05.03-.04.05c0 .03.03.04.05.04ZM4.84 11.08c.02 0 .05 0 .05-.03 0-.02-.01-.05-.04-.05s-.05 0-.06.03c0 .02.02.05.05.05Z" fill="#F8E388"/><path d="m9.75 11.58.33-.14c.24-.13.46-.24.7-.31.21-.06.44.02.6.14v.01h-.01c-.46-.2-.86.06-1.25.27-.1.06-.26.1-.37.04v-.01Z" fill="#CA9C48"/><path d="M13.1 11.2c.02 0 .04-.02.03-.04 0-.03-.03-.04-.05-.03-.03 0-.05.03-.04.05 0 .02.03.03.06.03ZM4.96 11.34c.03 0 .06 0 .07-.02 0-.02 0-.05-.03-.06-.03-.01-.06 0-.07.02 0 .02 0 .05.03.06ZM12.94 11.46a.05.05 0 1 0 0-.1.05.05 0 0 0 0 .1Z" fill="#F8E388"/><path d="M6.95 11.83c.11-.06.26-.27.4-.32a.45.45 0 0 1 .3 0 .02.02 0 0 1 0 .02 2.6 2.6 0 0 1-.5.34c-.07.04-.16.04-.26 0-.01 0-.01 0 0 0l.06-.04Z" fill="#CA9C48"/><path d="M5.13 11.57a.04.04 0 1 0 0-.08.04.04 0 0 0 0 .08Z" fill="#F8E388"/><path d="M8.86 12.19c0 .15.19.14.28.18.03.02.03.03 0 .04-.05.03-.15.06-.19 0-.2-.27-.6-.17-.81.04a5.15 5.15 0 0 0-.46.13v-.01l.3-.18c.23-.2.6-.53.9-.24a.02.02 0 0 1 0 .02l-.02.02Z" fill="#CA9C48"/><path d="M12.25 12.33c.03 0 .05-.03.04-.05 0-.02-.03-.02-.06-.02-.02.01-.04.03-.04.05.01.02.04.03.06.02Z" fill="#F8E388"/><path d="M8.56 12.45a11 11 0 0 1-.3.01c-.03 0-.03 0-.01-.02a.5.5 0 0 1 .3-.14c.11-.01.22.02.33.1.02.02.02.03-.01.03l-.3.02Z" fill="#CA9C48"/><path d="M11.81 12.7c.03 0 .05-.01.05-.03 0-.03-.02-.04-.04-.05-.03 0-.05.02-.05.04s.02.04.04.04ZM6.52 12.95c.03 0 .05 0 .06-.03 0-.02-.01-.04-.04-.05-.03 0-.06 0-.06.03 0 .02.01.04.04.05ZM6.73 13.1a.01.01 0 0 1-.01-.02v-.05l.02-.01.02-.01c.02 0 .03 0 .04.02l.01.04a.01.01 0 0 1 0 .02h-.08ZM7.02 13.22c.03 0 .06-.02.06-.04 0-.03-.03-.04-.07-.04-.03 0-.06.02-.05.04 0 .03.03.04.06.04ZM7.28 13.32c.03 0 .05 0 .05-.03 0-.01-.02-.03-.05-.03-.03 0-.05.01-.05.03 0 .02.02.03.05.03ZM10.58 13.39c.03 0 .06-.02.06-.04 0-.03-.02-.05-.05-.05-.03 0-.05.02-.06.04 0 .03.03.05.05.05ZM10.32 13.48c.03 0 .05-.02.05-.04s-.02-.04-.05-.04c-.03 0-.05.02-.05.04s.02.04.05.04ZM9.77 13.6c.03.01.05 0 .06-.03 0-.02-.02-.04-.05-.05-.02 0-.05.01-.05.03 0 .03.01.05.04.06ZM8.33 13.56a.01.01 0 0 1 .01-.02h.04l.03.02.01.01v.02c0 .01 0 .02-.02.03a.12.12 0 0 1-.05 0h-.01a.02.02 0 0 1-.01 0v-.06Z" fill="#F8E388"/></svg>