<!-- by TradingView --><svg width="18" height="18" viewBox="0 0 18 18" xmlns="http://www.w3.org/2000/svg"><path fill="#A0CF7F" d="M0 0h18v18H0z"/><path d="M8.53 4.13c.26.14.47.37.6.66.15.35.06.72-.08 1.05v.02c.34.05.67.17.86.5a1.47 1.47 0 0 1-.2 1.73c-.27.27-.62.3-.95.25l-.01.01c.05.36.05.75-.18 1.04-.19.25-.44.41-.73.47s-.58 0-.83-.15c-.32-.18-.44-.54-.5-.9h-.02c-.3.16-.63.28-.96.13a1.3 1.3 0 0 1-.63-.61c-.15-.29-.19-.6-.13-.92.06-.38.33-.62.62-.8v-.02c-.23-.26-.44-.57-.41-.96.02-.31.14-.61.34-.84.2-.24.46-.38.75-.42.36-.05.65.16.9.4h.01c.15-.33.36-.64.7-.73.29-.07.58-.05.85.1Z"/><path d="M8.43 4.35c.26.13.49.4.55.71a1.2 1.2 0 0 1-.1.6h-.01c-.2-.29-.44-.5-.73-.65a1.79 1.79 0 0 0-.92-.2.01.01 0 0 1 0-.01c.07-.17.2-.38.36-.46.25-.15.59-.13.85 0ZM5.96 5.45a2.17 2.17 0 0 0-.47.9 1.13 1.13 0 0 1-.29-.52c-.04-.3.08-.65.27-.88.2-.23.51-.38.8-.35.17.02.36.17.48.29a.01.01 0 0 1 0 .01c-.31.12-.58.3-.8.55Z" fill="#F8C653"/><path d="M12.19 5.68c.12.06.27.15.25.3-.01.12 0 .19-.1.25a.54.54 0 0 1-.21.07l-.01.01v.01c.06.11.12.29.02.39a1.4 1.4 0 0 0-.09.1c-.07.08-.26-.03-.34-.07l-.01.01c-.04.13-.09.31-.24.31h-.07c-.14.03-.22-.16-.25-.28h-.03c-.1.08-.22.16-.33.1-.03-.02-.14-.1-.15-.18-.02-.1 0-.2.04-.3l-.02-.01c-.1-.01-.22-.02-.28-.1-.03-.05-.03-.07-.05-.13 0-.06-.02-.09 0-.14.01-.1.12-.17.2-.23.02 0 .02-.02 0-.03a.52.52 0 0 1-.15-.24c-.01-.07.05-.2.07-.23.07-.1.22-.1.34-.07.01 0 .02 0 .02-.02-.02-.12-.02-.33.11-.38.03 0 .05-.01.07-.03.13-.07.25.07.33.17h.02c.05-.08.18-.26.28-.22l.12.04c.13.04.14.23.14.36v.01a.01.01 0 0 0 .02 0 .53.53 0 0 1 .2-.03c.12 0 .15.07.2.17.09.13-.02.28-.1.38v.01Z"/><path d="M11.35 5.09c.04-.07.11-.22.17-.26.07-.04.08-.03.02.04a.64.64 0 0 0-.12.25c0 .01 0 .02-.01.01h-.1a8.13 8.13 0 0 1-.26.16c-.06-.1-.12-.32-.05-.42.09-.12.28.16.34.22h.01ZM11.81 5.25v.01a.01.01 0 0 0 .01 0c.08-.03.24-.1.32-.07.03.02.03.03 0 .03a.59.59 0 0 0-.32.15h-.02l-.31-.2v-.01c.02-.1.07-.24.16-.3a.07.07 0 0 1 .05-.02c.02 0 .03.02.04.03.07.08.07.27.07.38ZM10.87 5.3c.01 0 .02 0 .01-.02 0-.1-.04-.21-.01-.31.02-.08.03-.08.03 0a.74.74 0 0 0 .1.36v.01h-.01l-.19.13c-.06.04-.07.08-.06.15v.01h-.01c-.09-.04-.22-.14-.24-.24-.03-.17.3-.1.38-.09Z" fill="#EC8885"/><path d="M7.33 8.68c.91 0 1.65-.8 1.65-1.8s-.74-1.8-1.65-1.8c-.9 0-1.65.8-1.65 1.8s.74 1.8 1.65 1.8Z" fill="#F3A261"/><path d="m11.12 6.4-.27-.16a3.78 3.78 0 0 1-.02-.66l.26-.19.26-.17.27.15.27.16a3.8 3.8 0 0 1 .02.67l-.26.18-.26.18-.27-.15Z" fill="#E33A46"/><path d="M12.1 5.73c.07.02.27.1.28.2.02.17-.26.19-.36.17h-.01v-.03l-.03-.52c0-.06-.02-.1-.08-.12v-.04c.1-.07.2-.1.28-.1.02 0 .04.01.05.03a.1.1 0 0 1 .03.05c0 .11-.12.27-.18.34a.01.01 0 0 0 0 .01l.01.01ZM10.65 5.79a.01.01 0 0 0 0-.02c-.07-.05-.2-.17-.22-.26 0-.04 0-.04.03-.01.07.1.16.17.27.22h.01V6.15c-.1.03-.24.05-.33 0a.08.08 0 0 1-.03-.04v-.06c.03-.1.17-.2.27-.25Z" fill="#EC8885"/><path d="M9.87 7.24c-.04.31-.2.64-.46.8-.14.08-.38.1-.54.07h-.01a.01.01 0 0 1 0-.01 2.23 2.23 0 0 0 .24-1.98c.17.02.4.1.52.23.2.22.29.58.25.89Z" fill="#F8C653"/><path d="m10.76 6.32-.01-.01c-.08 0-.23 0-.29-.03-.07-.05-.07-.06.02-.04.07.02.15.01.26-.02l.01.01c.02.06.03.1.06.1a7.45 7.45 0 0 1 .25.17c-.06.1-.2.27-.31.25-.14-.02-.01-.34 0-.43ZM11.65 6.62h-.01v.01c0 .09-.04.28-.1.33-.03.02-.04.02-.02-.01a.72.72 0 0 0 .04-.37v-.03l.31-.2a.01.01 0 0 1 .02.01c.07.08.15.2.16.31 0 .02 0 .04-.02.05a.07.07 0 0 1-.04.03c-.1.03-.25-.07-.34-.13ZM11.14 6.65c-.08.06-.15.15-.24.18-.08.01-.08 0-.02-.04.1-.06.18-.15.24-.26h.02l.19.1c.06.04.1.04.15-.01h.01c.01.1 0 .29-.07.35-.12.12-.24-.23-.26-.31 0-.01-.01-.02-.02 0Z" fill="#EC8885"/><path d="M5.09 8.21a1.18 1.18 0 0 1-.06-.92 1.06 1.06 0 0 1 .4-.42c.01.37.1.7.24 1a2.04 2.04 0 0 0 .64.76c-.15.08-.37.17-.54.14a1.01 1.01 0 0 1-.68-.56Z" fill="#F8C653"/><path d="M12.2 7.75h.01a.62.62 0 0 1 .57-.2c.15.02.28.07.4.16.12.1.21.21.29.36.1.22.1.43 0 .65v.01h.01c.22.07.36.22.45.44a1.06 1.06 0 0 1-.08.92.64.64 0 0 1-.5.33h-.01v.01c.05.24.01.45-.12.64-.1.13-.2.23-.34.3a.83.83 0 0 1-.43.09.64.64 0 0 1-.52-.32h-.01a.62.62 0 0 1-.56.2.85.85 0 0 1-.41-.16.96.96 0 0 1-.28-.36.77.77 0 0 1-.02-.65v-.02a.67.67 0 0 1-.45-.43 1.06 1.06 0 0 1 .08-.91c.12-.2.29-.32.5-.34h.01v-.01a.76.76 0 0 1 .12-.64c.1-.13.21-.23.34-.3.13-.06.28-.1.43-.08.22 0 .4.11.52.3Z"/><path d="M11.63 8.42a3.93 3.93 0 0 0-.18.1l-.47-.05-.03-.02-.01-.03a.6.6 0 0 1 .01-.34.75.75 0 0 1 .36-.4c.17-.1.34-.1.51-.05.1.03.19.11.25.2a.06.06 0 0 1 0 .07l-.25.43-.02.02-.17.07ZM13.14 8.63a1.1 1.1 0 0 0-1.1-.35v-.01c.1-.2.3-.5.51-.55.39-.08.73.18.83.58a.6.6 0 0 1-.05.38l-.02.01c-.08 0-.12 0-.17-.06Z" fill="#E33A46"/><path d="M12.43 10.3c.57-.29.88-.9.68-1.38-.2-.47-.83-.62-1.4-.33-.58.29-.89.9-.69 1.38.2.47.83.62 1.4.33ZM7.8 9.63a.94.94 0 0 1-.82-.23 1.15 1.15 0 0 1-.24-.55 1.77 1.77 0 0 0 1.8-.37c.03.18.04.44-.04.6a1 1 0 0 1-.7.55Z" fill="#F8C653"/><path d="M10.85 10.02v.01a.01.01 0 0 1-.01 0c-.16-.02-.34-.08-.43-.24a.85.85 0 0 1-.02-.86c.1-.2.26-.3.49-.3a2.14 2.14 0 0 1 .38.04v.01c-.36.32-.58.84-.4 1.34ZM13.15 9.88a1.16 1.16 0 0 0 .12-1.01v-.01h.01c.22.03.4.12.5.34.13.34.09.64-.14.91-.07.09-.18.14-.33.15h-.01l-.01-.01-.14-.33a.04.04 0 0 1 0-.04Z" fill="#E33A46"/><path d="M5.76 9.69h.01a.48.48 0 0 1 .4.07.57.57 0 0 1 .23.38c.13.1.21.22.24.37a.6.6 0 0 1-.09.45c.03.17.01.32-.06.45a.52.52 0 0 1-.36.24.52.52 0 0 1-.33.27.48.48 0 0 1-.41-.1.48.48 0 0 1-.41-.07.57.57 0 0 1-.23-.39.57.57 0 0 1-.24-.37.6.6 0 0 1 .1-.44v-.01a.61.61 0 0 1 .06-.44.52.52 0 0 1 .35-.25c.1-.15.2-.23.34-.26a.48.48 0 0 1 .4.1Z"/><path d="M5.52 9.96a.4.4 0 0 1-.06.08l-.02.01-.34.08a.01.01 0 0 1-.01 0 .02.02 0 0 1 0-.01c-.03-.21.05-.35.24-.43a.35.35 0 0 1 .34.05.02.02 0 0 1 0 .01 1 1 0 0 0-.15.2ZM5.79 9.97l-.18.04c-.01 0-.02 0-.01-.01 0-.03.04-.07.05-.09.2-.3.57-.12.65.19v.01h-.01l-.32.04h-.01l-.13-.17h-.04ZM5 10.17c.02.08.03.1 0 .18a13.1 13.1 0 0 1-.12.38.83.83 0 0 1-.14-.13c-.1-.1-.08-.26-.04-.38a.42.42 0 0 1 .28-.26H5v.01c0 .07 0 .14.02.2Z" fill="#9850F8"/><path d="M12.36 10.53a1.63 1.63 0 0 0 .66-.48h.01c.12.23.25.56.14.8a.72.72 0 0 1-.63.45c-.22.01-.38-.08-.5-.27a.03.03 0 0 1 0-.03c.09-.12.17-.25.24-.4a.15.15 0 0 1 .08-.07Z" fill="#E33A46"/><path d="m5.78 10.09.21.25.21.27a3.82 3.82 0 0 1-.2.66c0 .01-.1.04-.3.08l-.32.07-.22-.26-.21-.27a3.83 3.83 0 0 1 .2-.66l.31-.08c.2-.04.3-.07.32-.06Z" fill="#44AA8C"/><path d="M12.08 10.61a.01.01 0 0 1 .01.02c-.1.2-.3.5-.51.55-.39.08-.73-.2-.83-.6a.6.6 0 0 1 .05-.36l.02-.02c.08 0 .12 0 .17.06.28.33.69.43 1.09.35Z" fill="#E33A46"/><path d="M6.3 10.6a.08.08 0 0 0-.01-.05l-.24-.3a.01.01 0 0 1 0-.01c.1-.03.26-.06.35.02.17.13.21.39.11.59H6.5l-.2-.17v-.08Z" fill="#9850F8"/><path d="M7.51 12.42c-.12 0-.26 0-.39-.05-.17-.05-.29-.33-.24-.5.05-.21.22-.27.41-.26a3.15 3.15 0 0 1 .44.04l.02-.01.23-.26v-.04l-.21-.44c-.1-.22-.06-.4.1-.56.14-.14.29-.14.44.01.04.04.1.13.16.27a9.43 9.43 0 0 1 .18.41l.33-.03.02-.02.24-.42a.35.35 0 0 1 .3-.17c.15 0 .33.07.37.24.05.2-.05.4-.16.55l-.06.1v.02c.11.16.19.29.22.5l.01.02c.25.02.47-.02.59.24.12.25.06.44-.16.56a3.04 3.04 0 0 1-.66-.01l-.23.24-.01.03v.02l.23.46c.07.16.06.32-.04.46-.15.22-.4.25-.56.01-.11-.18-.18-.4-.27-.61v-.01h-.02l-.32.03c-.01 0-.02 0-.03.02-.1.18-.2.38-.32.5-.06.06-.14.09-.25.08-.26 0-.43-.2-.33-.49.03-.1.1-.23.21-.38v-.02a1.61 1.61 0 0 0-.08-.13.89.89 0 0 1-.14-.38l-.02-.02Z"/><path d="M8.14 11.25h-.01a.04.04 0 0 1-.03-.01l-.01-.02-.2-.45a.29.29 0 0 1-.01-.2.22.22 0 0 1 .1-.13.18.18 0 0 1 .17 0l.07.05.06.08.19.46v.03c0 .02-.01.03-.02.03l-.3.16ZM9.16 11c.06-.12.14-.25.23-.36.11-.15.47-.08.37.18a1.64 1.64 0 0 1-.2.36h-.02a.9.9 0 0 0-.38-.16.02.02 0 0 1 0-.02Z" fill="#F3A261"/><path d="M4.86 10.92c0 .02 0 .04.02.07v.03l-.12.23a.45.45 0 0 1-.17-.27.49.49 0 0 1 .05-.33l.2.16c.01 0 .02.02.01.03v.08ZM6.14 11.34c-.01-.08-.02-.11 0-.19a13.54 13.54 0 0 1 .14-.38l.13.13c.1.1.09.27.04.39a.42.42 0 0 1-.28.26h-.01v-.02c0-.07 0-.13-.02-.2ZM5.3 11.5c.06.06.16.01.25 0a.01.01 0 0 1 0 .01.76.76 0 0 1-.1.16c-.14.13-.36.08-.48-.05-.15-.15-.16-.33-.02-.54h.02l.33.41Z" fill="#9850F8"/><path d="M9.06 12.93c.54-.28.83-.86.64-1.3-.2-.45-.78-.59-1.32-.31-.54.27-.83.85-.64 1.3.19.44.78.58 1.32.3Z" fill="#4F91F2"/><path d="M5.64 11.55a.4.4 0 0 1 .05-.08l.02-.02.34-.07a.01.01 0 0 1 .02 0c.03.22-.05.36-.24.43a.35.35 0 0 1-.35-.04.02.02 0 0 1 0-.02c.06-.06.11-.12.16-.2Z" fill="#9850F8"/><path d="M7.64 11.83c-.07.13-.1.26-.11.4 0 .02-.01.03-.02.03l-.27-.03c-.12-.01-.19-.1-.21-.23-.04-.19.11-.23.24-.23a2.95 2.95 0 0 1 .38.05ZM9.8 12.41a1 1 0 0 0 .11-.4c0-.02 0-.03.02-.03l.26.03c.13.01.2.1.22.23.04.19-.12.23-.25.23a2.9 2.9 0 0 1-.37-.05ZM9.3 13l.01-.01h.02l.01.01.01.02.2.45a.31.31 0 0 1 0 .2c0 .02-.01.05-.03.07a.2.2 0 0 1-.07.06.18.18 0 0 1-.08.02.2.2 0 0 1-.08-.02.24.24 0 0 1-.08-.06.29.29 0 0 1-.05-.08l-.2-.45a.05.05 0 0 1 .01-.05l.02-.01.3-.16ZM8.28 13.24c-.07.12-.14.25-.23.36-.12.15-.47.08-.37-.19a1.65 1.65 0 0 1 .2-.35h.02a.9.9 0 0 0 .37.16v.01Z" fill="#F3A261"/></svg>