<!-- by TradingView --><svg width="18" height="18" viewBox="0 0 18 18" xmlns="http://www.w3.org/2000/svg"><path fill="#F0F3FA" d="M0 0h18v18H0z"/><path d="M7.94 4.97h.4l.19-.1.27.13.22-.17.16.16.3-.18.11.24.4-.08v1.25H7.94V4.97Z" fill="url(#aoh1zwlec)"/><path d="M8.1 11.27c1.35 1.44.43 1.29 1.78-.02.2.99.06 1.16-.2 2-.15-.1-.01-.03-.14-.22-.27.41-.32.75-.55 1.17-.13-.16-.2-.5-.31-.73-.26-.56-.25-.36-.34-.31-.16.1.1.09-.06.04-.2-.52-.42-1.33-.17-1.93Zm3.14.67v-.55c-.2.16-.62.84-.81 1.05.03-.54.04-.8.35-1.13.14-.15.23-.2.38-.35.12-.13.22-.28.38-.4.1.5-.04 1.08-.3 1.38Zm-4.8-1.35.72.65c.25.23.37.64.38 1.15-.22-.2-.67-.92-.83-1l.05.55c-.27-.21-.41-.9-.33-1.35Zm1.67.03c.4-.92 2.34-.31 1.55.27-.33.25-1.32.2-1.55-.27ZM6.76 8.07c-.07.68.03 1.56.4 1.97l-.01-.67c.13.17.16.53.22.77.09.31.2.48.3.76-.36-.1-.61-.3-.78-.62-.3-.6-1.38-1.34-.13-2.21Zm4.07 1.96c.34-.4.44-1.31.4-1.95 1.29 1.05-.16 2.55-.92 2.82.04-.18.21-.49.28-.73.06-.22.11-.63.18-.8.13.2.06.4.06.66Zm-.74-.9c.01.02.03.02.03.05.07.34.23.87-.14 1.22-.15-.08-.22-.16-.42-.25-.83-.36-.27-.4-.04-1.03-.66.25-.55.08-1.08.02.4.86.65.56-.2 1.12-.18.1-.25.24-.35.03-.04-.1-.22-.84-.14-.98l.11-.14c-.33-.18-.58-.36-.73-.66-.25-.52.05-.76.22-1.09.18-.36.24-.82.5-.97.52-.32.88.06 1.14.05.24 0 .6-.36 1.1-.07.31.18.32.6.51.96.19.35.46.56.26 1.06-.13.32-.4.59-.77.68Zm.84-1.6c-.15-.74-.27-.87-.8-1.46 1.49-.18 1.28 1.25.8 1.47Zm-3.9 0c-.4-.09-.37-.72-.25-1.04.18-.47.56-.45 1.07-.44-.45.46-.75.81-.81 1.48Zm2.87-2.5-.24 1.05c-.4.1-.91.17-1.31 0-.14-.2-.19-.74-.26-1.02.9.44.91.44 1.8-.04Zm.83 7.81c.52-.94.26.45 1.05-1.03.37-.59.38-.95.48-1.11.24.17.08.18.38.3-.3-.7.34-.96.2-1.94-.1-.67-.5-1.12-.62-1.6.29.08.34.22.78.26l-.33-.38c-.42-.54-.27-1.05-.52-1.45-.4-.65-.93-.65-1.76-.77.06-.22.2-.3.2-.35.01-.03.03-.03.04-.04-1.3-.04-1.26.39-1.65-.73-.17 1.15-.46.74-1.6.73l.24.42c-.82 0-1.5.23-1.8.81-.16.3-.15.7-.28 1.04-.16.38-.33.45-.54.72.45-.02.47-.18.8-.26-.15.5-.56.98-.64 1.66-.12.98.5 1.19.19 1.9.38-.1.16-.18.4-.32.08.18.1.43.18.61.1.2.19.37.29.52C7 13.07 7.7 12.94 9 15c.57-.95 1.16-1.13 1.72-2.16Z" fill="#181B1E"/><path fill-rule="evenodd" d="M9 15A6 6 0 1 0 9 3a6 6 0 0 0 0 12Zm0-.35a5.65 5.65 0 1 0 0-11.3 5.65 5.65 0 0 0 0 11.3Z" fill="#181B1E"/><path d="M7.41 7.78c.14.41.36.54.8.56l.15.54.19-1.19c-.66.32-.15.18-.71.02-.14-.03-.36 0-.43.07Z" fill="#181B1E"/><path d="m9.65 8.88.17-.54c.35 0 .63-.2.74-.54-.36-.2-.42-.07-.78.13-.26-.23-.04-.13-.35-.24l.22 1.19Z" fill="url(#boh1zwlec)"/><defs><linearGradient id="aoh1zwlec" x1="7.96" y1="4.95" x2="9.96" y2="6.12" gradientUnits="userSpaceOnUse"><stop stop-color="#FC0"/><stop offset=".31" stop-color="#F7E7CB"/><stop offset=".52" stop-color="#E2A515"/><stop offset="1" stop-color="#DF9D00"/></linearGradient><linearGradient id="boh1zwlec" x1="9.99" y1="7.69" x2="9.99" y2="8.88"><stop offset="1" stop-color="#181B1E"/></linearGradient></defs></svg>