<!-- by TradingView --><svg width="18" height="18" viewBox="0 0 18 18" xmlns="http://www.w3.org/2000/svg"><path fill="#F0F3FA" d="M0 0h18v18H0z"/><path d="M10.69 4.31c.1.1.2.18.33.24.04.02.1.05.14.09l.15.1c.03 0 .07.03.1.06l.12.07.17.09a6.77 6.77 0 0 0 .58.36l.04.05.04.02.24.08.16.22-2-1.1a.33.33 0 0 0-.1-.24.07.07 0 0 0-.05-.02.1.1 0 0 1-.08-.03.58.58 0 0 0-.24-.13.1.1 0 0 1-.04-.03.6.6 0 0 0-.48-.29 2.84 2.84 0 0 0-.44-.24.98.98 0 0 0-.45-.08h-.15c.27-.06.54-.02.81.14.39.2.77.43 1.15.64Z" fill="#787B7A"/><path d="M8.73 3.53h.15l-.11.04c-.11.03-.2.06-.24.09a105.5 105.5 0 0 1-1.47.86l-.48.28c.08-.07.17-.12.27-.17a.22.22 0 0 0 .1-.12l1.5-.87c.1-.05.18-.09.28-.11Z" fill="#94846E"/><path d="M10.77 4.58 9.72 4a2.22 2.22 0 0 0-.6-.25 1 1 0 0 0-.67.14L7 4.7l.05-.18a4.17 4.17 0 0 0 .6-.36l.87-.5.24-.1c.05 0 .09-.02.11-.03.18 0 .32.03.44.08a2.84 2.84 0 0 1 .45.24.6.6 0 0 1 .1.05 3.01 3.01 0 0 0 .38.24.1.1 0 0 0 .04.03c.12.04.2.08.24.13a.1.1 0 0 0 .07.03c.03 0 .04 0 .06.02.07.07.1.15.1.23Z" fill="#E7E3D6"/><path d="m10.77 4.58 2 1.11.56.32c.22.12.37.32.45.6l.02 1.09.01 1.52c0 .02 0 .02.02 0l.17-.37v2.26c0 .24-.03.42-.07.53a.8.8 0 0 1-.37.43l-4.12 2.29c-.08.05-.19.09-.33.12a.74.74 0 0 0-.27 0 1.52 1.52 0 0 1-.32-.12l-4.05-2.3a.87.87 0 0 1-.4-.45c-.04-.12-.06-.3-.06-.56v-1.8c.3.05.58.15.85.29.02 0 .03.02.04.04l.04.11c.07.4.21.8.42 1.15.19.4.45.74.77 1.04a4.23 4.23 0 0 0 2.43 1.13c.13.01.28 0 .45-.01h.3c.11.01.23 0 .35-.03l.57-.13a4.03 4.03 0 0 0 1.68-1c.54-.52.9-1.12 1.1-1.8.27-.16.5-.37.68-.64a.1.1 0 0 0 .02-.06V8.1l.02-1.05a.95.95 0 0 0-.23-.75.85.85 0 0 0-.24-.21c-.24-.15-.49-.28-.74-.4L10.8 4.7l-1.17-.66a1.69 1.69 0 0 0-.52-.2c-.2-.04-.4 0-.57.1l-1.21.68-1.52.9c-.48.24-.84.45-1.1.62-.18.1-.3.26-.37.47l-.06.27a.38.38 0 0 1-.06-.14c.05-.24.17-.47.38-.68.33-.15.62-.32.87-.5l1.55-.86a112 112 0 0 0 1.44-.81 1 1 0 0 1 .67-.14c.12.02.32.1.6.25l1.05.58Z" fill="#0E0F13"/><path d="M10.8 4.7c-.05.1-.11.17-.2.18 0-.03 0-.06.02-.09l.06-.06c.02-.02.01-.03 0-.04l-.8-.45a6.01 6.01 0 0 0-.52-.26.94.94 0 0 0-.49-.06c-.11.02-.26.07-.44.16l-.72.4c-.12.07-.25.12-.4.14l1.22-.68c.17-.1.36-.14.57-.1.13 0 .3.08.52.2l1.17.66Z" fill="#E7E3D6"/><path d="M9.87 4.24c-.4.2-.8.32-1.21.33-.29.01-.6-.02-.95-.09l.72-.4c.18-.09.33-.14.45-.16.17-.02.33 0 .48.06.09.03.26.12.51.26Z" fill="#D2C9B5"/><path d="M10.63 4.79v-.05c-.01-.02-.02-.02-.03 0l-.3.57a3.9 3.9 0 0 0-2.87.21l.21-.18a11.73 11.73 0 0 1 .18-.1c0-.02 0-.02-.02-.02l-.3.03c-.02 0-.06.03-.11.08l-.04.01v-.02c0-.02 0-.03-.02-.02l-.08.04-.37-.35h-.05l-.27.15-.34.18a.24.24 0 0 1-.13.07c-.11.09-.2.13-.3.12l1.53-.89c.15-.02.28-.07.39-.14.35.07.66.1.95.1.41-.02.82-.13 1.21-.34l.8.45c.03.01.03.02.01.04l-.05.06Z" fill="#BFB29A"/><path d="M14 6.69v.2l-.01.09-.05.38a1 1 0 0 1-.13.34l-.03-1.09c.07-.11.09-.2.07-.27a.7.7 0 0 0-.33-.36c-.3-.18-.6-.35-.92-.5l-.24-.09a.12.12 0 0 1-.04-.02.37.37 0 0 1-.04-.05 6.77 6.77 0 0 1-.75-.45.32.32 0 0 1-.11-.07.36.36 0 0 0-.1-.06.53.53 0 0 1-.16-.1.66.66 0 0 0-.14-.1 1.06 1.06 0 0 1-.33-.23l2.65 1.49c.23.13.39.24.46.33a.9.9 0 0 1 .2.56Z" fill="#3C3C3B"/><path d="m12.52 5.68-.98-.5c-.03-.02-.05-.01-.06.02a.98.98 0 0 1-.1.16.71.71 0 0 0-.13.31c0 .02 0 .04.02.05l.53.4c.23.2.42.44.56.72a3.57 3.57 0 0 0-.86-.89c-.33-.24-.7-.44-1.08-.59l.17-.48c.1-.01.17-.07.2-.18l1.73.98Z" fill="#94846E"/><path d="M10.62 4.79a.21.21 0 0 0-.03.09l-.17.48-.03.09-.34.95v.01c-.05 0-.08 0-.1-.02l-.03-.02a.41.41 0 0 1-.14-.07l.42-.8.04-.1.06-.1.3-.56c0-.02.02-.02.03 0v.05Z" fill="#FFFFF3"/><path d="m7.32 5.24-.36-.32v-.01l.08-.05h.04c.1.12.2.24.28.39v.02h-.02v-.02l-.02-.01ZM7.25 5.34l-.46.27-.11-.07-.12-.4.27-.15h.05l.37.35Z" fill="#94846E"/><path d="M6.07 5.02c-.28.23-.51.4-.7.49-.34.17-.6.35-.78.55-.2.21-.33.44-.38.68v.12l-.01.31c0 .02-.01.02-.03.02a.3.3 0 0 0-.13-.02c-.02 0-.02 0-.02-.02L4 6.71a.84.84 0 0 1 .4-.74c.22-.14.78-.45 1.66-.95Z" fill="#3E4244"/><path d="m10.3 5.3-.06.1a3.69 3.69 0 0 0-4.32 1.63c-.15.24-.26.52-.33.84l-.06.22-.1.33-.07.2c.02-.36.08-.7.2-1.05.36-.92.98-1.6 1.87-2.05a3.9 3.9 0 0 1 2.87-.21Z" fill="#4A3004"/><path d="m6.56 5.14.12.4-.18.1a1.03 1.03 0 0 0-.29-.32l.35-.18Z" fill="#787B7A"/><path d="M12.52 5.68c.25.12.5.25.75.4.08.05.16.12.23.2l-.48-.25h-.05l-.3.21h-.05l-.02-.03c-.02-.01-.03 0-.04.01a.72.72 0 0 0-.04.37c0 .02 0 .03-.02 0a.96.96 0 0 0-.28-.21l-.3-.3a1.34 1.34 0 0 0-.09-.05c-.01 0-.02.02-.03.08l-.53-.39a.05.05 0 0 1-.02-.05c.01-.08.05-.19.13-.3a.97.97 0 0 0 .1-.17c.01-.03.03-.04.06-.02l.98.5Z" fill="#494D4F"/><path d="m10.24 5.4-.04.1a.84.84 0 0 0-.3 0c-.37.1-.74.15-1.1.18l-.03-.01-.03.01v.04a4.14 4.14 0 0 0-1.13-.2c.86-.36 1.74-.4 2.63-.12Z" fill="#BFB29A"/><path d="m7.64 5.34-.21.06v-.06l-.05-.01c.06-.05.1-.08.13-.08.1 0 .2 0 .3-.03v.03l-.17.09Z" fill="#94846E"/><path d="M6.5 5.65a4.82 4.82 0 0 1-.66.69v-.05l.47-.5v-.04c-.04-.02-.06-.05-.05-.08l-.01-.06-.16-.22c.04 0 .09-.03.12-.07.12.09.21.2.29.33Z" fill="#6D6257"/><path d="M7.35 5.34a4.8 4.8 0 0 0-.92.63c-.24.18-.43.4-.59.65-.15.25-.3.5-.42.77a.18.18 0 0 1-.07-.08 3.9 3.9 0 0 1 1.12-1.47l.31-.22V5.6l.47-.27.08-.04c.02-.01.03 0 .03.02v.02Z" fill="#D2C9B5"/><path d="m7.39 5.33.04.01v.06c-.34.17-.65.38-.93.63a.2.2 0 0 1-.07-.06c.28-.25.6-.46.92-.63l.04-.01Z" fill="#4A3004"/><path d="m7.64 5.34-.21.18a3.73 3.73 0 0 0-1.86 2.05.14.14 0 0 1-.07-.06.16.16 0 0 1 .02-.13 3.68 3.68 0 0 1 .99-1.35c.27-.25.58-.46.92-.63l.21-.06Z" fill="#FFFFF3"/><path d="M10.42 5.36c.39.15.75.35 1.08.6l.06.2-.47-.35c-.2-.15-.43-.27-.7-.36l.03-.09Z" fill="#29150C"/><path d="m6.09 5.4.16.21v.06c0 .03.02.06.05.08.02 0 .02.02 0 .04l-.47.5v.05h.02c.24-.2.46-.44.65-.7l.17-.1.12.07c-.02.01-.02.01 0 0-.25.07-.36.14-.32.23-.5.4-.87.9-1.13 1.47l-.08.2a.3.3 0 0 1-.03-.18l.14-.45c0-.04 0-.06-.04-.07a5.29 5.29 0 0 0-.48-.15 1.78 1.78 0 0 0-.52-.05.82.82 0 0 1 .36-.47c.27-.17.63-.38 1.1-.63.09.01.19-.03.3-.12Z" fill="#494D4F"/><path d="m10.2 5.5-.42.8-.08.14-.2-.14a.25.25 0 0 0-.07-.15h-.05a.47.47 0 0 0-.12.3.21.21 0 0 0-.12.08c-.03-.1-.07-.07-.1.1a.21.21 0 0 0-.16.06L8.8 5.68c.38-.03.74-.09 1.1-.18a.84.84 0 0 1 .31 0Z" fill="#94846E"/><path d="M10.39 5.45c.27.1.5.21.7.36-.1.31-.14.66-.15 1.04a8.8 8.8 0 0 1-.18-.91c-.01-.13-.04-.13-.09-.01-.05.14-.13.31-.22.5l-.4-.03.34-.95Z" fill="#827360"/><path d="M13.78 6.61a.97.97 0 0 0-.44-.6c-.2-.1-.38-.21-.57-.32l-.17-.22c.32.16.62.33.92.51.18.1.28.23.33.36.02.07 0 .16-.07.27Z" fill="#494D4F"/><path d="m8.73 5.72-.14.9a.74.74 0 0 0-.84-.15c-.01 0-.02 0-.02-.02V6.4c0-.02 0-.03-.02-.04l-.32-.4c0-.04-.02-.06-.03-.07-.02-.01-.04 0-.05.01a.17.17 0 0 0-.03.1l-.01-.07-.04-.02a.62.62 0 0 0-.43.16.1.1 0 0 1-.06.03h-.06c.29-.24.6-.43.93-.59.38.02.76.08 1.12.2Z" fill="#94846E"/><path d="m8.8 5.68.08 1.01-.23.5a.96.96 0 0 1-.06-.58l.14-.9.01-.03c0-.01.02-.02.03-.01h.02Z" fill="#FFFFF3"/><path d="m11.56 6.15.26.28c-.26.16-.48.36-.68.59a.08.08 0 0 0-.02.05c.01.17 0 .33-.06.48 0-.05-.01-.1-.04-.14v-.07l-.08-.49c0-.38.06-.73.15-1.04l.47.34Z" fill="#625F59"/><path d="m10.94 6.85.08.5-.95-.1.38-.82c.1-.19.17-.36.22-.5.05-.12.08-.12.1 0 .03.3.1.6.17.92ZM7.39 5.97l.57 1.27.25.56c-.42 0-.82-.09-1.2-.3L7.27 6c0-.04.01-.07.03-.09.01-.02.03-.02.05 0l.03.06Z" fill="#FDF6CD"/><path d="M7.28 6 7 7.5l-.04.2v-.42a.78.78 0 0 0-.02-.36.36.36 0 0 0-.23-.26 4.29 4.29 0 0 0-.36-.1c-.02 0-.04 0-.05.02l-.38.45c.2-.37.45-.68.76-.93h.06a.1.1 0 0 0 .06-.02c.12-.1.26-.16.43-.16.02 0 .03 0 .04.02l.01.06Z" fill="#625F59"/><path d="M8.6 6.61a.96.96 0 0 0 .05.57c-.23-.2-.46-.19-.69.06l-.57-1.27.32.4.02.04v.04c0 .02 0 .02.02.02.32-.13.6-.08.84.14Z" fill="#6D6257"/><path d="M12.36 6.84c.04 0 .08.05.1.14l.1.67c-.16-.47-.4-.88-.72-1.23l-.02.01-.26-.28-.06-.2c.32.23.6.53.86.89Z" fill="#6E5B42"/><path d="M6.43 5.97a.2.2 0 0 0 .07.06l-.27.28a3.68 3.68 0 0 0-.77 1.22.13.13 0 0 1-.05-.03.05.05 0 0 1 0-.05l.01-.06c.13-.26.27-.52.42-.77.16-.25.35-.47.59-.65Z" fill="#A87E28"/><path d="M13.5 6.29c.18.2.25.45.23.75l-.36.09c-.27.06-.38.23-.32.51v.02h-.02a3.56 3.56 0 0 0-.8-1.28c.1.05.19.13.27.22.01.02.02.01.02-.01a.72.72 0 0 1 .04-.37c.01-.02.02-.02.04 0l.02.02h.05l.3-.2a.04.04 0 0 1 .05-.01l.48.26Z" fill="#3E4244"/><path d="m11.91 6.08.28.36a3.8 3.8 0 0 1 .8 3.09c-.06.01-.1-.01-.1-.06a60.13 60.13 0 0 1 .02-.98 5.99 5.99 0 0 1-.04-.26l-.02-.01c-.03-.01-.04-.03-.03-.05a.42.42 0 0 0 0-.27l-.04-.17a2.46 2.46 0 0 0-.32-.75c-.02-.1-.06-.14-.1-.14a2.54 2.54 0 0 0-.56-.73c0-.06.02-.08.03-.08l.08.05Z" fill="#29150C"/><path d="M12.22 6.38c.04.04.07.07.1.07.28.4.5.8.64 1.23-.02.03-.05.05-.1.04a3.8 3.8 0 0 0-.67-1.28 5.8 5.8 0 0 1-.28-.36l.31.3Z" fill="#F7E9A6"/><path d="M9.78 6.3c.03.03.08.05.14.07.01 0 .02 0 .03.02.02.02.05.03.1.02l-.47 1.31-.04.11c-.13-.24-.36-.36-.7-.35l.2-.85c.03-.17.07-.2.1-.1l.1.73c.01.02.02.02.03 0l.42-.82.09-.14Z" fill="#FDF6CD"/><path d="m9.5 6.3.2.14-.43.82c-.01.02-.02.02-.02 0l-.11-.73a.21.21 0 0 1 .12-.07c0 .06 0 .1.02.12.02.02.03.02.04 0l.19-.28Z" fill="#827360"/><path d="m10.05 6.4.4.03-.38.81-.26.57-.23-.09.47-1.3V6.4Z" fill="#6E5B42"/><path d="M11.84 6.42c.32.4.55.85.7 1.33 0 .02 0 .03-.03.02a1.52 1.52 0 0 0-.63 0c-.29.07-.45.25-.48.55l-.08.63-.03-.2-.23-1.2c.05-.15.07-.31.06-.48 0-.02 0-.03.02-.05a2.75 2.75 0 0 1 .7-.6Z" fill="#3C3C3B"/><path d="M12.56 7.65c.12.28.18.56.2.83-.09.25-.12.5-.1.76 0 .02-.02.04-.03.05-.34.24-.73.39-1.16.43l-.1-.58-.05-.19.08-.63c.03-.3.2-.48.48-.54.2-.05.42-.05.63 0 .02 0 .03-.01.03-.03a3.87 3.87 0 0 0-.7-1.33c.32.35.56.76.72 1.23Z" fill="#202022"/><path d="m13.73 7.04-.01 1.05c-.3.06-.5.24-.58.55a4.08 4.08 0 0 0-.83-2.19 3.56 3.56 0 0 1 .73 1.2c-.05-.29.06-.46.33-.52l.36-.09Z" fill="#2D2E30"/><path d="M6.95 7.28c-.08.16-.2.21-.34.17-.3-.08-.56-.1-.79-.04a.06.06 0 0 0-.04.03l-.2.43c.08-.32.19-.6.34-.84l.38-.45a.05.05 0 0 1 .04-.01c.18.04.3.07.37.1.11.03.19.12.23.25.03.1.04.22.01.36Z" fill="#494D4F"/><path d="m5.23 7.33-.95-.29v-.16l.05-.27c.17 0 .34 0 .52.05l.48.15c.03.01.05.03.04.07l-.14.45Z" fill="#3E4244"/><path d="m9.04 6.63-.2.85-.08.42-.07-.06-.29-.36c-.1-.13-.12-.11-.07.04l.1.4.22.77-.03.01-.2-.46-.21-.44-.25-.56c.23-.25.46-.27.7-.06l.22-.49c.05-.04.1-.06.16-.06Z" fill="#5F503C"/><path d="M4.01 6.71v.44c0 .02.02.02.03.02.04 0 .09 0 .13.02.02 0 .03 0 .03-.02v-.3L4.19 8c0 .02 0 .03-.02.05a.44.44 0 0 1-.16.1l.01-1.45Z" fill="#2D2E30"/><path d="m4.27 6.88.01.16.02.85c0 .03.01.04.03.05.22.15.47.25.73.3l-.02.39a3.4 3.4 0 0 0 .46 2.1.2.2 0 0 1-.02.05l-.02.02h-.03A3.05 3.05 0 0 1 5 9.73a.06.06 0 0 0-.04-.04.1.1 0 0 0-.03 0l-.04-.12a.07.07 0 0 0-.04-.04 3.12 3.12 0 0 0-.85-.3L4 8.16a.44.44 0 0 0 .16-.1.07.07 0 0 0 .02-.05l.03-1.15v-.12l.06.14Z" fill="#1E1B1C"/><path d="M14 6.88V8.86l-.17.37h-.02V7.7a1 1 0 0 0 .13-.34l.05-.38v-.1Z" fill="#202022"/><path d="M12.46 6.98c.15.24.25.49.32.75l.05.17c.03.09.02.18 0 .27-.02.02 0 .04.01.05h.02c.02.02.03.03.03.05a5.99 5.99 0 0 0 .03.44l-.04.76-.03.02a.23.23 0 0 1-.07.09c-.02 0-.03 0-.04-.02a.36.36 0 0 1-.02-.17 3.5 3.5 0 0 0-.16-1.74l-.1-.67Z" fill="#D0A941"/><path d="M5.23 7.33c-.01.06 0 .12.03.18-.1.23-.16.47-.2.73-.26-.05-.5-.15-.73-.3a.06.06 0 0 1-.03-.05l-.02-.85.95.29Z" fill="#2D2E30"/><path d="m10.07 7.24.95.1v.07a.75.75 0 0 1-.44.3c-.27.05-.54.1-.8.17l.03-.07.26-.57Z" fill="#F7E9A6"/><path d="m6.95 7.28.01.42-.04.25-.03.17-.1.49-.07.33.02-.73c0-.02 0-.03-.02-.04a1.2 1.2 0 0 0-.77-.28c-.24 0-.38.14-.42.42L5.5 8.3v-.01l.02-.2.06-.22.19-.43c0-.02.02-.03.04-.03.23-.06.5-.04.79.04.14.04.26-.01.34-.17Z" fill="#3C3C3B"/><path d="M5.35 7.31c.01.04.04.06.07.08l-.02.06.01.05c.02.01.03.03.05.03l-.1.32c-.01.05-.03.08-.05.1-.02 0-.03.02-.02.04.03.1.02.2-.02.27a.51.51 0 0 0-.02.3v.2c0 .14 0 .26.02.37l-.01.05c-.02.02-.03.05-.03.1 0 .1.01.21.04.34 0 .08.05.15.1.21.04.04.1.1.17.2h.04V10a.2.2 0 0 1 .05.07l.04.14a.5.5 0 0 1-.3-.25h-.02a8.77 8.77 0 0 1 .18.47l.04-.01v-.04c0-.08.02-.09.07-.03l.08.13c-.03 0-.06.02-.07.03v.05l.13.2v.06c-.02.02-.03.02-.05 0l-.04-.04c-.02 0-.03.01-.03.03 0 .02 0 .05.02.07.02.01.02.02 0 .03h-.04l-.13-.15.05-.01c.02-.01.02-.03.01-.05a2.68 2.68 0 0 1-.35-.9.49.49 0 0 0-.03-.08.21.21 0 0 1-.03-.11v-.14l-.12-.84.02-.39c.04-.26.1-.5.2-.73l.09-.2Z" fill="#D0A941"/><path d="M8.69 7.84a.8.8 0 0 1-.25.09l-.11-.41c-.05-.15-.03-.17.07-.04l.29.36Z" fill="#F7E9A6"/><path d="m11.06 7.55.23 1.2h-.67a.59.59 0 0 0-.24-.19h-.09c0 .02-.01.03-.02.03-.05.06-.11.1-.17.13a.07.07 0 0 1-.06 0l-.57-.19.3-.65.81-.18a.75.75 0 0 0 .44-.29c.03.04.04.09.04.14Z" fill="#F1DE8B"/><path d="m9.54 7.83-.3.83-.01-.3c0-.11-.04-.2-.12-.26-.1-.07-.2-.14-.35-.2l.09-.42c.33 0 .56.1.69.35Z" fill="#F7E9A6"/><path d="M5.5 7.5c.01.04.03.06.07.07a3.57 3.57 0 0 0 .01 2.46h-.04a3.9 3.9 0 0 0-.17-.2.41.41 0 0 1-.1-.2 2.39 2.39 0 0 1-.04-.36c0-.04 0-.07.03-.09a.05.05 0 0 0 .01-.05c-.02-.1-.02-.23-.01-.36l-.01-.22a.51.51 0 0 1 .02-.29A.37.37 0 0 0 5.3 8c0-.02 0-.04.02-.05a16.4 16.4 0 0 0 .15-.4l.04-.03Z" fill="#F1DE8B"/><path d="m8.2 7.8.21.44A.96.96 0 0 0 8 8.16c-.39.04-.75-.03-1.08-.21l.04-.25.04-.2c.4.21.8.3 1.2.3Z" fill="#F7E9A6"/><path d="M13.14 8.64c.02.44-.03.87-.15 1.31-.02.03-.05.04-.1 0l.1-.42c.1-.62.05-1.22-.12-1.81.04 0 .07 0 .09-.04.1.31.16.63.18.96Z" fill="#E7CD66"/><path d="m9.58 7.72.23.1-.03.06-.31.65-.4.84-.06.13c-.02.01-.03 0-.05-.01l.1-.28.19-.55.29-.83.04-.1Z" fill="#5F400A"/><path d="m6.72 8.94-.02.13c-.06-.3-.25-.48-.58-.52a3.45 3.45 0 0 0-.5-.02c-.06 0-.12-.04-.19-.11l.1-.33-.02.2.02.02c.04-.28.18-.42.42-.42.28 0 .53.09.77.28.02 0 .03.02.02.04l-.02.73Z" fill="#2D2E30"/><path d="M8.76 7.9c.14.06.26.13.35.2.08.06.11.15.12.27 0 .1 0 .2.02.3l-.2.54a2 2 0 0 1-.4-.52l-.21-.76a.8.8 0 0 0 .24-.1l.08.07ZM6.92 7.95c.33.18.7.25 1.08.2.1 0 .24.03.41.1l.21.45a1.6 1.6 0 0 1-.74.2l-.14-.28-.01-.02H7.7c-.02 0-.02.01-.03.02l-.03.23c-.2-.1-.35-.2-.45-.3a1.16 1.16 0 0 1-.31-.43l.03-.17Z" fill="#F1DE8B"/><path d="m13 10.05-.01-.1c.12-.44.17-.87.15-1.31.09-.31.28-.5.58-.55l-.01 1.25a.1.1 0 0 1-.02.06 2.1 2.1 0 0 1-.68.65Z" fill="#1E1B1C"/><path d="M6.89 8.12c.06.16.17.3.3.43.11.1.26.2.46.3l-.02.08-.4.01c-.24.01-.38-.1-.44-.33l.1-.49Z" fill="#E7CD66"/><path d="m6.7 9.07-.1.56c-.22 0-.4.03-.55.1a.94.94 0 0 0-.42.34 3.57 3.57 0 0 1-.27-1.45l.07-.2c.07.07.13.1.2.1l.5.03c.32.04.51.21.57.52Z" fill="#202022"/><path d="M12.75 8.48a3.5 3.5 0 0 1-2.2 3.59c-.44.18-.86.28-1.29.28h-.39a3.7 3.7 0 0 1-3.03-1.8l-.17-.34-.04-.14a.94.94 0 0 1 .42-.35c.15-.06.33-.09.55-.1l-.12.62-.15.8c0 .04.01.06.05.06l.46-.01h.38c.02 0 .03-.01.03-.03l.05-.26.04-.28.13-.67c.32.12.64.17.97.16l.04.07.17.3.34.65c0 .02.02.02.03 0l.29-.56.4-.71.06-.13c.01.14.1.2.25.2l.5-.06.06.26.1.55.09.5c0 .02 0 .02.02.02h.87c.03 0 .04 0 .04-.03l-.01-.05a.15.15 0 0 1-.02-.06l-.04-.32-.1-.55-.06-.37c.43-.04.81-.19 1.16-.43a.05.05 0 0 0 .02-.05c-.01-.26.02-.51.1-.76Z" fill="#0E0F13"/><path d="m9.47 8.53.57.2h.06a.58.58 0 0 0 .17-.14c0 .04-.01.07-.03.1l-.44.23a.1.1 0 0 0-.05.04.78.78 0 0 1-.67.41l.39-.84Z" fill="#E7CD66"/><path d="M10.62 8.75c.25.27.5.4.75.39l.1.58.07.37-.55-.33a.05.05 0 0 0-.04 0 .04.04 0 0 0-.03.03c0 .09-.02.18-.07.27-.01.02-.03.02-.05.02l-.22-.05-.05-.26c-.08-.39-.14-.78-.2-1.18l-.04-.02c.02-.02.05-.02.09 0 .09.02.17.09.24.18Z" fill="#D0A941"/><path d="m10.53 9.77-.51.05c-.16.02-.24-.05-.25-.19l.47-.95a.24.24 0 0 0 .03-.09l.02-.02.04.02c.06.4.12.8.2 1.18ZM7.88 8.9l.57 1.1c-.34.02-.66-.03-.98-.15v-.03l.16-.9.02-.07.03-.23c0-.01.01-.02.03-.02h.02l.01.02.14.28Z" fill="#1E1B1C"/><path d="M6.8 8.6c.05.24.2.35.43.34l.4-.01-.15.9-.88-.2.1-.56.02-.13.07-.33Z" fill="#E1C254"/><path d="m5.51 10.76-.01-.03a3.4 3.4 0 0 1-.46-2.1 36.5 36.5 0 0 1 .12.98c0 .03 0 .07.03.1l.04.1a2.68 2.68 0 0 0 .35.9c0 .01 0 .03-.02.04a.11.11 0 0 1-.05 0ZM9.06 9.2l-.1.29-.49.1a.1.1 0 0 0-.07.06.1.1 0 0 0 0 .09c.05.1.08.2.09.34L8.45 10 7.88 8.9a1.6 1.6 0 0 0 .77-.21c.1.2.24.36.4.52Z" fill="#E7CD66"/><path d="m10.24 8.68-.47.95-.07.13a.78.78 0 0 1-.69-.26l.07-.13c.3-.01.52-.15.67-.4a.1.1 0 0 1 .05-.05l.44-.24ZM11.29 8.74l.04.21.04.19c-.25.01-.5-.12-.74-.4h.66Z" fill="#E1C254"/><path d="M12.72 9.39c-.01.06 0 .12.02.17 0 .02.02.03.04.02a.23.23 0 0 0 .07-.09c.02.15 0 .29-.06.42a.76.76 0 0 0-.05.17c0 .06-.03.11-.05.16l-.07.2c-.03.07-.05.14-.09.2-.13.24-.27.45-.43.63a.04.04 0 0 1-.04.01.04.04 0 0 1-.04-.03.12.12 0 0 1 .02-.13v-.02h-.05l-.31.3c0-.03-.01-.04-.03-.04.6-.59.95-1.25 1.07-1.97Z" fill="#92691C"/><path d="m12.98 9.53-.09.43c-.13.38-.3.73-.5 1.07l-.22.29a.06.06 0 0 0-.02.05c0 .07 0 .13-.04.17a4.97 4.97 0 0 1-.43.42.49.49 0 0 1-.13.13 1.8 1.8 0 0 0-.33.26.1.1 0 0 1-.05.02.31.31 0 0 0-.11.05c-.15.1-.31.17-.48.22a.92.92 0 0 0-.35.2l-.57.13.2-.5v-.05a.04.04 0 0 0-.04-.02h-.17a3.88 3.88 0 0 0 2.03-1l.31-.3h.05v.02a.12.12 0 0 0-.02.13c.01.02.02.03.04.03l.04-.01a3.86 3.86 0 0 0 .52-.83l.07-.2.05-.16c0-.04.02-.1.05-.17a.92.92 0 0 0 .06-.42l.03-.02c.02.05.05.07.1.06Z" fill="#5F400A"/><path d="M8.97 9.49c.01.02.03.02.04 0 .18.2.4.29.7.27l-.4.7-.47-.37c-.02-.02-.05-.02-.06.01l-.13.29-.16-.31a.8.8 0 0 0-.09-.34.1.1 0 0 1 0-.1.1.1 0 0 1 .08-.05l.49-.1ZM6.6 9.63l.88.2-.01.02-.13.67a2.6 2.6 0 0 0-.86-.28l.12-.61Z" fill="#D0A941"/><path d="M5.43 10.8c0 .02-.03.04-.07.04a3.44 3.44 0 0 1-.42-1.15.1.1 0 0 1 .04.01 11.3 11.3 0 0 0 .27.76l.18.33ZM11.54 10.09l.1.55c-.33.04-.64.02-.95-.06l-.1-.55.21.05c.02 0 .04 0 .05-.02a.59.59 0 0 0 .07-.27l.03-.04h.04l.55.34Z" fill="#A87E28"/><path d="m5.67 10.2.17.34c-.04.04-.08.02-.12-.06a.84.84 0 0 0-.08-.13c-.05-.06-.07-.05-.07.03v.03c0 .03-.02.03-.04.01l-.02-.01a8.78 8.78 0 0 0-.16-.45h.02a.5.5 0 0 0 .3.25Z" fill="#E1C254"/><path d="m12.99 9.95.02.1a3.94 3.94 0 0 1-1.1 1.8c-.49.47-1.05.8-1.68 1 .1-.1.22-.16.35-.2.17-.06.33-.13.48-.23a.31.31 0 0 1 .11-.05.1.1 0 0 0 .05-.02c.1-.1.21-.19.33-.26a.49.49 0 0 0 .14-.13l.12-.14.17-.14.14-.14c.03-.04.04-.1.03-.17 0-.02 0-.04.02-.05.08-.1.16-.19.22-.29.2-.33.38-.7.5-1.07.05.03.08.02.1 0Z" fill="#92691C"/><path d="m9.3 10.47-.28.56c-.01.02-.02.02-.03 0l-.34-.64.13-.29c.01-.03.03-.03.06-.01l.47.38ZM6.48 10.24c.31.05.6.14.86.28l-.04.28a1.8 1.8 0 0 0-.7 0c-.03 0-.03.01-.02.03l.26.26h-.46c-.04.01-.06 0-.05-.04l.15-.8Z" fill="#A87E28"/><path d="M5.72 10.48c.04.08.08.1.12.06.2.32.43.6.7.86-.02.01-.03.03-.01.06l-.13-.13c-.02-.02-.03-.02-.05 0a.23.23 0 0 1-.06.04.04.04 0 0 0-.03.04v.13l-.01.02h-.03c-.18-.13-.27-.25-.27-.37 0-.02 0-.04-.02-.05a.43.43 0 0 0-.18-.09.08.08 0 0 1-.05-.03l-.06-.1a.1.1 0 0 0 .04 0c.02-.02.02-.03 0-.04l-.02-.07c0-.02.01-.03.03-.03l.04.04c.02.02.03.02.05 0v-.05a1.26 1.26 0 0 0-.12-.2c-.02-.02-.02-.04 0-.06 0-.01.03-.03.06-.03ZM11.63 10.64l.04.32.02.06c.01.01.02.03.01.05 0 .02-.01.03-.04.03h-.87c-.01 0-.02 0-.02-.02l-.08-.5c.3.08.62.1.94.06ZM7.3 10.8l-.05.26c0 .02-.01.03-.03.03h-.38l-.26-.26c-.01-.02 0-.03.01-.03.24-.05.47-.05.71 0Z" fill="#92691C"/><path d="m5.5 10.73.01.03.13.16.06.1c.01.02.03.03.05.03.07.02.13.05.18.09.02.01.02.03.02.05 0 .12.1.24.27.37h.03v-.15c0-.02.02-.03.04-.04a.23.23 0 0 0 .06-.04c.02-.02.03-.02.05 0l.13.13c.08.1.14.16.2.2.39.25.8.46 1.25.61l-.52.35c-.02.01-.02.02 0 .03.1.05.13.09.12.14-.55-.2-1.04-.5-1.45-.9-.32-.31-.58-.66-.77-1.05.04 0 .06-.02.07-.05h.03l.02-.01a.2.2 0 0 0 .02-.05Z" fill="#5F400A"/><path d="M11.65 11.36c.02 0 .03.02.03.05a3.88 3.88 0 0 1-2.03 1 3.4 3.4 0 0 1-1.67-.14 5.47 5.47 0 0 1-1.25-.62 1.2 1.2 0 0 1-.2-.19c-.02-.03-.01-.05.01-.06a3.7 3.7 0 0 0 2.33.94h.4c.42 0 .84-.09 1.28-.27.4-.18.77-.41 1.1-.7Z" fill="#E1C254"/><path d="M12.36 12.42c0 .02.02.03.04.04l-3 1.67c-.19.11-.4.14-.61.09-.11-.03-.3-.11-.54-.25l-3.5-2a1.57 1.57 0 0 1-.31-.27h.02l4.05 2.37c.08.05.17.07.27.07h.43c.08-.01.16-.03.25-.08l.23-.12 2.67-1.52Z" fill="#3E4244"/><path d="M9.65 12.4h.17c.01 0 .03 0 .04.02v.05l-.2.5c-.12.03-.24.04-.36.03a1.44 1.44 0 0 0-.3 0c-.16.02-.31.02-.44 0a5.1 5.1 0 0 1-.98-.21c.01-.05-.03-.1-.12-.14-.02 0-.02-.02 0-.03l.52-.35c.54.19 1.1.23 1.67.13Z" fill="#4A3004"/></svg>