<!-- by TradingView --><svg width="18" height="18" viewBox="0 0 18 18" xmlns="http://www.w3.org/2000/svg"><path fill="#181B1E" d="M0 0h18v18H0z"/><path fill-rule="evenodd" d="M9 14A5 5 0 1 0 9 4a5 5 0 0 0 0 10Zm0-.31A4.69 4.69 0 1 0 9 4.3a4.69 4.69 0 0 0 0 9.38Z" fill="#fff"/><path d="M10.18 7.3 9.23 7l-.16.6.49.17c.45.15.54.45.48.7-.07.26-.22.33-.48.33-.2 0-.58-.1-.75-.16l-.12.52.65.2c.41.14.6.45.54.72-.06.27-.24.4-.54.4-.24 0-.7-.1-.91-.16l-.17.62.97.25c.7.14 1.36.03 1.58-.76a1.12 1.12 0 0 0-.39-1.2c.14-.05.44-.25.56-.69.15-.65-.47-1.1-.8-1.24ZM8.91 6l.4.12-.17.7-.4-.11L8.9 6ZM9.68 6.23l.4.12-.17.71-.4-.12.17-.7ZM7.7 10.94l.4.12-.17.7-.4-.11.17-.71ZM8.47 11.17l.4.12-.17.71-.4-.12.17-.7ZM8.15 10.9 7 10.55l.23-.57.04.01c.12.04.24-.05.28-.18l.54-2.24c.03-.14-.05-.28-.17-.31l-.38-.11.13-.55L9.1 7l-.96 3.9Z" fill="#fff"/></svg>