<!-- by TradingView --><svg width="18" height="18" viewBox="0 0 18 18" xmlns="http://www.w3.org/2000/svg"><path fill="url(#afchlear3)" d="M0 0h18v18H0z"/><path d="M9 14a5 5 0 0 0 4.1-7.87.43.43 0 0 0-.6-.1l-1.45.96.84-1.6c.1-.19.06-.43-.13-.56A5 5 0 1 0 9 14Z" fill="#73D449"/><path fill-rule="evenodd" d="m11.16 7.15-.28-.26.84-1.59c.06-.11.03-.24-.07-.3a4.8 4.8 0 1 0 1.28 1.24c-.07-.1-.2-.12-.32-.05l-1.45.96Zm.73-1.75c.1-.2.06-.44-.13-.57a5 5 0 1 0 1.33 1.3.43.43 0 0 0-.59-.1l-1.45.96.84-1.6Z" fill="url(#bfchlear3)"/><path d="M6.9 6.27c-.24-.23-.41-.18-.46-.13-.3.13.42.71.82.99l.98.28c-.35-.28-1.1-.9-1.34-1.14ZM11.66 11.62 10.54 10h-.3l1.13 1.73c.47.47.4.12.3-.11ZM6.16 11.9c-.23-.06.4-.67.74-.97l.27.16c-.24.29-.8.86-1.01.8Z" fill="#47A149"/><path d="M6.62 11.05V7.26c0-.25.2-.45.46-.45h2.55c1.09 0 1.97.86 1.97 1.92s-.88 1.83-1.97 1.83H8.7v.5c0 .24-.22.44-.48.44H7.08a.45.45 0 0 1-.46-.45Zm2.72-2.58h-.79v.54h.79a.27.27 0 0 0 0-.54Z"/><path d="M7.95 8.65c-.03-.43.48-.6.74-.64-.37.16-.43.87-.42 1.2-.1 0-.3-.13-.32-.56ZM8.16 10.82c-.03-.3.25-.5.4-.57-.2.28-.15.76-.1.97-.1 0-.27-.1-.3-.4ZM11.33 8.76c0-.66-.47-1.1-.7-1.25.16.3.37.5.42 1.25.04.6-.45 1.17-.7 1.37.34-.11 1-.54.98-1.37Z" fill="#D8D6D7"/><defs><linearGradient id="afchlear3" x1="3.35" y1="3.12" x2="21.9" y2="24.43" gradientUnits="userSpaceOnUse"><stop stop-color="#1A1E21"/><stop offset="1" stop-color="#06060A"/></linearGradient><linearGradient id="bfchlear3" x1="10.47" y1="4.29" x2="7.15" y2="13.54" gradientUnits="userSpaceOnUse"><stop stop-color="#6CD175"/><stop offset=".56" stop-color="#BFF9BD"/><stop offset="1" stop-color="#64C969"/></linearGradient></defs></svg>