<!-- by TradingView --><svg width="18" height="18" viewBox="0 0 18 18" xmlns="http://www.w3.org/2000/svg"><path fill="url(#a)" d="M0 0h18v18H0z"/><path d="M11.47 12a.02.02 0 0 0 .02-.01.02.02 0 0 0 0-.03l-.87-1.58a.08.08 0 0 1 0-.09 12.58 12.58 0 0 1 .61-.76h.02v.02l1.88 3.42a.02.02 0 0 1 0 .03h-3.3c-.02 0-.03 0-.04-.02l-1.22-2.24a.08.08 0 0 1 0-.08l3.58-4.61a.03.03 0 0 0 0-.03v-.01L12.14 6h-1.57a.08.08 0 0 0-.03.02l-.64.74a.03.03 0 0 1-.02.01.02.02 0 0 1-.02-.01l-.4-.84a.06.06 0 0 1 .02-.06l.64-.84a.05.05 0 0 1 .04-.02h3.81c.03 0 .04.01.02.03l-4.3 5.62a.08.08 0 0 0-.01.1l.74 1.23c0 .02.02.02.04.02h1.01Z" fill="#fff"/><path d="M5.9 11.97c-.02.02-.02.03.01.03H7.5l.03-.03.6-.76h.01a.02.02 0 0 1 .02 0l.4.85a.04.04 0 0 1 0 .05l-.6.8c-.09.1-.15.09-.3.09H4.01L4 12.98l4.34-5.66a.07.07 0 0 0 0-.07l-.73-1.23A.06.06 0 0 0 7.56 6H6.55a.03.03 0 0 0-.01.02v.01c.31.6.56 1 .84 1.53.03.06.03.12-.02.18-.18.26-.36.49-.54.69-.02.03-.04.03-.06 0A307.14 307.14 0 0 1 4.9 5h3.25a.1.1 0 0 1 .1.06l1.17 2.17a.12.12 0 0 1 0 .13l-3.37 4.4-.16.2Z" fill="#D99917"/><defs><linearGradient id="a" x1="3.35" y1="3.12" x2="21.9" y2="24.43" gradientUnits="userSpaceOnUse"><stop stop-color="#1A1E21"/><stop offset="1" stop-color="#06060A"/></linearGradient></defs></svg>