<!-- by TradingView --><svg width="18" height="18" viewBox="0 0 18 18" xmlns="http://www.w3.org/2000/svg"><path fill="url(#a)" d="M0 0h18v18H0z"/><path fill-rule="evenodd" d="M9 3.5a2 2 0 0 1 1.03.26l2.53 1.48c.42.25.7.43.81.56.27.27.46.6.56.98.05.17.07.48.07.93a1797.32 1797.32 0 0 1 0 2.58c0 .45-.02.76-.07.93-.1.38-.29.7-.56.98-.12.13-.39.31-.8.56l-2.54 1.48A2 2 0 0 1 9 14.5a2 2 0 0 1-1.03-.26l-2.53-1.48a4.48 4.48 0 0 1-.81-.56 2.2 2.2 0 0 1-.56-.98 4.15 4.15 0 0 1-.07-.93A1689.88 1689.88 0 0 1 4 7.7c0-.44.02-.75.07-.92.1-.38.29-.7.56-.98.12-.13.39-.31.8-.56l2.54-1.48A2 2 0 0 1 9 3.5Zm0 1c.21 0 .4.05.6.16l2.57 1.51c.3.18.49.31.56.42.22.28.26.54.27.94a334.6 334.6 0 0 1 0 2.94c0 .4-.05.65-.27.94-.07.1-.26.24-.55.42l-2.58 1.5a1.17 1.17 0 0 1-1.2 0l-2.57-1.5c-.3-.18-.49-.31-.56-.42-.22-.28-.27-.54-.27-.94a340.87 340.87 0 0 1 0-2.94c0-.4.04-.65.27-.94.07-.1.26-.24.55-.41L8.4 4.66c.19-.1.39-.16.6-.16Zm.1 6.48V9.2l2.63-1.34c.39-.2.35-.68-.05-.83-.17-.05-.31-.05-.43 0L8.28 8.55A.48.48 0 0 0 8 9v2.03c.01.17.1.3.26.4.4.21.83-.06.83-.45Z" fill="#fff"/><defs><linearGradient id="a" x1="2.95" y1="0" x2="15.95" y2="15.52" gradientUnits="userSpaceOnUse"><stop stop-color="#D274F7"/><stop offset="1" stop-color="#9A74F7"/></linearGradient></defs></svg>