<!-- by TradingView --><svg width="18" height="18" xmlns="http://www.w3.org/2000/svg"><path fill="url(#paint0_linear)" d="M0 0h18v18H0z"/><path fill-rule="evenodd" d="M7.5 3a.5.5 0 00-.5.5v.902A5.003 5.003 0 004 9a5.003 5.003 0 003 4.598v.902a.5.5 0 001 0v-.592a4.92 4.92 0 002-.021v.613a.5.5 0 001 0v-.949A5.004 5.004 0 0013.896 9 5.004 5.004 0 0011 4.449V3.5a.5.5 0 00-1 0v.613a4.917 4.917 0 00-2-.021V3.5a.5.5 0 00-.5-.5zM10 7.5V5.133a3.91 3.91 0 00-2-.027V7.5a.5.5 0 01-1 0V5.508A4.015 4.015 0 004.99 9c0 2.225 1.782 4.01 3.958 4.01s3.958-1.785 3.958-4.01A4.016 4.016 0 0011 5.57V7.5a.5.5 0 01-1 0zm-2.849 2.73a.5.5 0 10-.832.554A3.218 3.218 0 009 12.22c1.12 0 2.105-.571 2.681-1.436a.5.5 0 10-.832-.555A2.218 2.218 0 019 11.22c-.77 0-1.45-.392-1.849-.99z" fill="#fff"/><defs><linearGradient id="paint0_linear" x1="3.349" y1="3.122" x2="21.904" y2="24.434" gradientUnits="userSpaceOnUse"><stop stop-color="#1A1E21"/><stop offset="1" stop-color="#06060A"/></linearGradient></defs></svg>