<!-- by TradingView --><svg width="18" height="18" viewBox="0 0 18 18" xmlns="http://www.w3.org/2000/svg"><path fill="#181B1E" d="M0 0h18v18H0z"/><path d="m5.7 3.95 3.15-.6-4.5 3.76L5.7 3.95Z" fill="#9CC4C4"/><path d="m9.54 8.07-1.45-3.7L4 7.83l3.93 3.74 1.6-3.5Z" fill="#5BD9C3"/><path d="M9.64 3C9.3 3.33 8.6 4.01 8.5 4.05l2.56 7.18L13 6.33 9.64 3Z" fill="#45C4DA"/><path d="M7.78 12.07 4.35 8.83l1.96 5.42 1.84.75-.37-2.93Z" fill="#44C9DA"/><path d="M10.58 11.37 9.69 9 8.5 11.57l2.08-.2Z" fill="#2986CB"/><path d="m10.58 12-2.43.3.4 2.7.94-.39L10.58 12Z" fill="#63EEDB"/><path d="m10.23 13.97 2.42-5.48-.91 4.14-1.5 1.34Z" fill="#B8E6D6"/></svg>