<!-- by TradingView --><svg width="18" height="18" viewBox="0 0 18 18" xmlns="http://www.w3.org/2000/svg"><path fill="#535353" d="M0 0h18v18H0z"/><path fill-rule="evenodd" d="m6.57 4 2.57 1.46v2.92L6.57 9.83 4 8.38V5.46L6.57 4Zm-2.3 1.76v2.45l2.16 1.23V6.86l-2.16-1.1Zm2.43 1.1v2.58l2.16-1.23V5.76L6.7 6.86Zm2.01-1.33-2.14 1.1-2.15-1.1 2.15-1.21L8.7 5.53Z" fill="url(#azhs3pd3p)"/><path fill-rule="evenodd" d="M11.43 4 14 5.46v2.92l-2.57 1.45-2.57-1.45V5.46L11.43 4Zm-2.3 1.76v2.45l2.17 1.23V6.86l-2.16-1.1Zm2.44 1.1v2.58l2.16-1.23V5.76l-2.16 1.1Zm2-1.33-2.14 1.1-2.14-1.1 2.14-1.21 2.15 1.21Z" fill="url(#bzhs3pd3p)"/><path fill-rule="evenodd" d="m9 8.17 2.57 1.45v2.92L9 14l-2.57-1.46V9.62L9 8.17ZM6.7 9.93v2.45l2.16 1.23v-2.58L6.7 9.93Zm2.44 1.1v2.58l2.16-1.23V9.93l-2.16 1.1Zm2-1.33L9 10.8 6.86 9.7 9 8.48l2.14 1.22Z" fill="url(#czhs3pd3p)"/><defs><linearGradient id="azhs3pd3p" x1="4.54" y1="5.39" x2="9.19" y2="7.78" gradientUnits="userSpaceOnUse"><stop stop-color="#C66329"/><stop offset=".42" stop-color="#E08D39"/><stop offset="1" stop-color="#D6B087"/></linearGradient><linearGradient id="bzhs3pd3p" x1="9" y1="7.61" x2="14" y2="7.61" gradientUnits="userSpaceOnUse"><stop stop-color="#E1B88A"/><stop offset=".47" stop-color="#274527"/><stop offset="1" stop-color="#3A5959"/></linearGradient><linearGradient id="czhs3pd3p" x1="9" y1="8.17" x2="9" y2="14" gradientUnits="userSpaceOnUse"><stop stop-color="#D3B088"/><stop offset=".41" stop-color="#B4B4B4"/><stop offset="1" stop-color="#A3A2A4"/></linearGradient></defs></svg>