<!-- by TradingView --><svg width="18" height="18" viewBox="0 0 18 19" xmlns="http://www.w3.org/2000/svg"><path fill="#181B1E" d="M0 .33h18v18H0z"/><path d="M13.7 7.94c-.02.13-.01.27.01.41l-.04.88-1.52-1.06a8.62 8.62 0 0 0-4.2-1.01c-.37 0-.42-.11-.14-.36.25-.23.58-.42.97-.57.13-.05.33-.06.6-.04.2.02.4.01.6 0l1-.5c.3.2.47.42.52.65a.34.34 0 0 0 .21.25l.86.3c.15.02.26.02.33-.01.05-.03.07-.07.06-.12-.04-.22-.13-.4-.25-.56-1.07-1.28-2.59-1.66-4.23-1.56-.85.06-1.63.33-2.34.84-.28.2-.53.46-.73.78-.1.14-.12.27-.06.37.12.05.26.07.42.06a4.13 4.13 0 0 0-1.13 2.08c-.04.16-.06.16-.07 0l-.09-1.05c0-.04 0-.09-.03-.12.14-.8.54-1.55 1.18-2.04.23-.17.44-.34.64-.51.23-.2.58-.36 1.05-.5a5.96 5.96 0 0 1 4.32.4c.33.17.74.5 1.22 1.02.47.5.75 1.16.84 1.97Z" fill="#F2F6F7"/><path d="M12.57 6.89c-.06-.12-.1-.25-.14-.4a.79.79 0 0 0-.18-.35 2.92 2.92 0 0 0-1.94-.91c-.03 0-.05-.03-.05-.07a.4.4 0 0 0 .17-.13c.04-.05.02-.09-.03-.11a5.06 5.06 0 0 0-2.15-.11c-.06 0-.08.04-.08.1l.08.13-1.66.36a.12.12 0 0 0-.08.06l-.05.05c-.34.13-.64.35-.88.68a.73.73 0 0 0-.1.22c-.03.11-.08.18-.13.22-.06-.1-.03-.23.06-.37.2-.32.45-.58.73-.78.71-.5 1.49-.78 2.34-.84 1.64-.1 3.16.28 4.23 1.56.12.16.2.34.25.56 0 .05-.01.1-.06.12-.07.03-.18.03-.33 0Z" fill="#1E2A3F"/><path d="M10.26 5.16a.09.09 0 0 1-.07 0c-.06.08-.12.11-.19.1-.5-.12-1-.15-1.51-.1-.06 0-.12-.02-.18-.08l-.06-.04a.29.29 0 0 1-.08-.14c0-.05.02-.09.08-.1a5.06 5.06 0 0 1 2.15.12c.05.02.07.06.03.11a.4.4 0 0 1-.17.13Z" fill="#F2F6F7"/><path d="M8.3 5.08c-.5.43-1.12.31-1.64.68-.32.24-.59.53-.8.88a.18.18 0 0 0-.1.05.96.96 0 0 1-.41-.06c.05-.04.1-.11.13-.22.03-.1.06-.18.1-.22.24-.33.54-.56.88-.68.02 0 .03-.03.05-.05a.12.12 0 0 1 .08-.06l1.66-.36.06.04Z" fill="#6DA5BD"/><path d="M10.2 5.17c.01.07.04.11.07.13.27.13.51.25.72.38l-1 .5a9.15 9.15 0 0 0-4.13.46c.21-.35.48-.64.8-.88.52-.37 1.15-.25 1.65-.68.06.06.12.09.18.08a4.65 4.65 0 0 1 1.51.1c.07.01.13-.02.2-.1Z" fill="#80F1FA"/><path d="M10.26 5.16c0 .04.02.07.05.07.77.06 1.42.37 1.94.91.08.09.14.2.18.35.04.15.08.28.14.4l-.86-.3a.34.34 0 0 1-.21-.25c-.05-.23-.22-.45-.51-.66-.2-.13-.45-.25-.72-.38-.03-.02-.06-.06-.08-.13h.07Z" fill="#52BDDD"/><path d="M9.99 6.18c-.21.02-.42.03-.62.01-.26-.02-.46 0-.59.04-.4.15-.72.34-.97.57-.28.25-.23.37.14.36 1.4-.04 2.8.3 4.2 1.01a1.93 1.93 0 0 0-1-.24c-.49-.02-.89-.1-1.18-.27-.87-.23-2-.38-3.42-.45-.54-.03-.94.1-1.2.36-.35.35-.6 1.07-.7 1.57-.05.23-.1.23-.12 0-.05-.44-.07-.91-.05-1.42l.09 1.05c.01.16.03.16.07 0 .17-.8.54-1.49 1.13-2.08a9.15 9.15 0 0 1 4.22-.51Z" fill="#D8E8F4"/><path d="M9.97 7.66c-1.21.02-2.12.07-2.73.15a4.6 4.6 0 0 0-1.9.76c-.46.15-.68.63-.64 1.43l.03.9c0 .05-.02.08-.08.1h-.12l-.17-2.18.01-.67a.2.2 0 0 0-.12-.2.24.24 0 0 0-.24.03c-.02.02-.04.09-.07.2l.14-.54c.16.04.28.03.37-.04.02.03.03.08.03.12-.02.5 0 .98.05 1.42.03.23.07.23.12 0 .1-.5.35-1.22.7-1.57.26-.27.67-.39 1.2-.36 1.41.07 2.55.22 3.42.45Z" fill="#C6DBEC"/><path d="m4.08 7.64-.14.54-.04.43c.03.45-.02.75-.15.9l-.02-1.39c0-.13-.03-.14-.1-.03a.43.43 0 0 0-.04.2c-.05.2-.08.42-.07.64.01.17-.03.28-.14.39a.2.2 0 0 0-.07.14.82.82 0 0 1-.22.52 2.42 2.42 0 0 1 .29-2c.11-.17.35-.28.7-.34Z" fill="#BDEAEE"/><path d="m12.15 8.17 1.52 1.06-.13 1.07a3.2 3.2 0 0 0-.16.8c-.01.14-.06.22-.16.24-.05.01-.07-.01-.07-.07l.04-.7c.06-.33.07-.67.05-1-.02-.27-.1-.49-.24-.65a1.52 1.52 0 0 0-.59-.42l-1.25-.57c.31-.02.64.06.99.24Z" fill="#C6DBEC"/><path d="m14.4 11.29.07-1.54c0-.02-.01-.04-.03-.04h-.05a.06.06 0 0 0-.05.05l-.03.44c-.13.07-.18-.11-.16-.57l-.03-1.01-.05-.01c-.03-.01-.04 0-.04.03v.12c0 .04-.02.07-.06.1a.12.12 0 0 1-.06 0 .07.07 0 0 1-.04-.02.09.09 0 0 1-.02-.05c-.02-.12.01-.35-.05-.52-.02-.05-.03-.05-.04 0-.01.03-.02.06-.05.08a1.29 1.29 0 0 1-.01-.41c.3-.05.56 0 .77.13.18.1.31.3.4.6.27.9.12 1.77-.47 2.62Z" fill="#BDEAEE"/><path d="m4.36 8.82-.4.28-.06-.49.04-.43c.03-.11.05-.18.07-.2a.24.24 0 0 1 .24-.02.2.2 0 0 1 .12.19l-.01.67ZM3.74 9.52c-.02.5.04 1.03.19 1.6l-.2-.03a1.62 1.62 0 0 1-.16-.62c.02-.72.02-1.45.02-2.18 0-.1.02-.16.04-.2.07-.11.1-.1.1.03l.01 1.4Z" fill="#177A96"/><path d="m14.15 9.63-.34 1.94c-.21-.15-.4-.15-.54-.02.17-.38.26-.8.27-1.25l.13-1.07.04-.88a.17.17 0 0 0 .04-.08c.02-.05.03-.05.05 0 .06.17.03.4.05.52 0 .02 0 .03.02.05l.04.02h.06c.04-.03.06-.06.06-.1v-.12c0-.03.01-.04.04-.03h.04l.04 1.02Z" fill="#264A5E"/><path d="M3.6 8.3c0 .72-.01 1.45-.03 2.17 0 .15.05.35.17.62-.4-.13-.6-.75-.65-1.11.13-.14.2-.31.22-.52 0-.06.03-.1.07-.14.11-.11.15-.22.14-.4 0-.21.02-.42.07-.63Z" fill="#80F1FA"/><path d="M5.34 8.57c-.35.42-.5.96-.42 1.62.06.43.08.67.08.72 0 .24.05.43.14.56.17.27.29.43.35.49.24.19.58.36 1.04.51 2.04.67 4 .62 5.85-.16.39-.31.6-.58.64-.8.05-.31.1-.62.17-.93l-.04.7c0 .05.02.07.07.06.1-.02.15-.1.16-.23.02-.28.07-.55.16-.8 0 .44-.1.86-.27 1.24-.17.32-.34.55-.52.7-.62.54-1.37.87-2.24.97L8.4 13.2a.16.16 0 0 1-.12-.06.18.18 0 0 0-.1-.06c-.56-.12-1.12-.21-1.69-.27a2.95 2.95 0 0 1-1.87-1.61l-.09-.2h.12c.06-.02.08-.05.08-.1L4.7 10c-.04-.8.18-1.28.64-1.43Z" fill="#A0B0BB"/><path d="m3.9 8.61.06.49c-.06.73 0 1.45.14 2.15-.15-.02-.2-.06-.17-.12a5.25 5.25 0 0 1-.18-1.61c.13-.16.18-.46.15-.91Z" fill="#52BDDD"/><path d="m4.36 8.82.17 2.17.09.2-.52.06c-.15-.7-.2-1.42-.14-2.15l.4-.28Z" fill="#133A57"/><path d="M14.15 9.63c-.02.46.03.64.16.57l-.25 1.18c-.03.13-.11.2-.25.2l.34-1.95Z" fill="#52BDDD"/><path d="M14.4 11.29c-.07.08-.18.11-.34.09l.25-1.18.03-.44c0-.02.02-.04.05-.05h.05c.02 0 .03.02.03.04l-.07 1.54Z" fill="#177A96"/><path d="M10.5 13.22c-.45.1-.92.13-1.4.1a36.2 36.2 0 0 1-1.35-.1 3.42 3.42 0 0 1-1.26-.4 14 14 0 0 1 1.69.27c.04 0 .08.03.1.05.03.04.07.06.12.06l2.1.02Z" fill="#6A5F5A"/><path d="M11.65 12.4a6 6 0 0 0-2.17-.04l-.33.03-.34-.04-1.36-.21c-.14-.02-.41 0-.83.06a1.42 1.42 0 0 1-1-.62c-.02-.38 0-.75.03-1.1.03-.2.03-.44.02-.71-.02-.35.07-.65.28-.92A.05.05 0 0 1 6 8.83c.03.01.05.03.05.07.01.05.04.06.09.04.13-.05.2-.11.2-.19.36-.2.7-.27 1.02-.19l-.32.03c-.06 0-.06.03-.02.07.14.13.3.22.46.25l3.34.68c.35.07.86.26 1.15.3.16.02.28-.07.36-.27.1-.27.09-.47-.05-.6-.3-.3-.55-.5-.99-.52-.18-.01-.6-.06-1.22-.14-.8-.11-1.58-.02-2.32.26a1.51 1.51 0 0 0-.54-.34c-.03 0-.03-.02-.03-.04l.02-.04c.01-.03.03-.04.06-.04.11.03.21.03.3 0l.23-.09c.14-.04.56-.06 1.28-.05.69 0 1.32.06 1.88.19.63.14 1.1.37 1.4.69.25.25.35.59.3 1.02-.04.4-.13.7-.25.9a.27.27 0 0 0-.04.15l-.01.68c-.01.32-.25.57-.7.75Z" fill="#9F8A83"/><path d="M7.36 8.56c.15.07.28.09.39.06a4.68 4.68 0 0 1 2.32-.26c.63.08 1.04.13 1.22.14.44.02.7.23.99.52.14.13.15.33.05.6-.08.2-.2.29-.36.27-.29-.04-.8-.23-1.15-.3L7.48 8.9a.9.9 0 0 1-.46-.25c-.04-.04-.04-.07.03-.07l.31-.03Z" fill="#C0A8A0"/><path d="M6.34 8.75c0 .08-.07.14-.2.2-.05.01-.08 0-.08-.05-.01-.04-.03-.06-.06-.07a.05.05 0 0 0-.05.02c-.2.27-.3.57-.28.92.01.27 0 .5-.01.7-.04.36-.06.73-.04 1.11a8.04 8.04 0 0 1-.16-2.36.88.88 0 0 1 .49-.63c.28-.15.46-.24.55-.26.03-.01.05 0 .07 0a.05.05 0 0 1 .02.05.05.05 0 0 1-.03.04c-.23.14-.3.25-.22.33Z" fill="#4A4C52"/><path d="m11.65 12.4-1.37.2a7.34 7.34 0 0 1-2.67-.15c-.33-.1-.65-.18-.99-.25.42-.06.7-.08.83-.06a688.2 688.2 0 0 0 1.7.25c.06 0 .17 0 .33-.03a6 6 0 0 1 2.17.04Z" fill="#6A5F5A"/><path d="M7.64 10.38c.02.09 0 .16-.02.22-.02.03-.08.06-.17.1a.47.47 0 0 0-.2.15.18.18 0 0 1-.13.06c-.54.05-.84-.23-.89-.84.05-.06.07-.1.06-.15a.06.06 0 0 0-.03-.04.06.06 0 0 0-.05 0 .4.4 0 0 0-.18.26v.02h-.08l-.04-.04v-.03c.12-.43.4-.61.82-.55.46.07.77.35.91.84ZM12.14 10.91c-.07.37-.27.62-.6.78l-.05-.01-.04-.04a.8.8 0 0 0 .53-.78c.1-.45-.07-.74-.5-.88h-.05a.1.1 0 0 0-.03 0l-.1.06a.07.07 0 0 0 .02.13l.25.1c.06.02.08.06.05.12-.06.15-.05.3.03.45.02.05.02.1-.02.14-.08.1-.2.17-.36.23-.26.1-.53-.18-.6-.43 0-.05-.04-.07-.1-.04a.19.19 0 0 1-.15.01c.07-.44.32-.72.75-.83.7-.18 1.03.15.97 1Z" fill="#090909"/><path d="m11.98 10.86-.25.3a.7.7 0 0 1-.28.24 1 1 0 0 1-.78-.03.42.42 0 0 1-.28-.38.42.42 0 0 1 .03-.24c.05.02.1.02.16 0 .05-.04.08-.02.1.03.06.25.33.52.6.43a.84.84 0 0 0 .35-.23.12.12 0 0 0 .02-.14.51.51 0 0 1-.03-.45c.03-.06 0-.1-.05-.12l-.25-.1a.07.07 0 0 1-.05-.06.07.07 0 0 1 .04-.07l.09-.05a.1.1 0 0 1 .03-.01h.04c.44.14.6.43.51.88ZM6.23 10.07c.05.61.35.9.89.84.05 0 .1-.02.12-.06a.48.48 0 0 1 .21-.16c.1-.03.15-.06.17-.1a.34.34 0 0 0 .02-.2c.05.18.04.36-.03.53a.63.63 0 0 1-.68.32c-.42-.06-.7-.3-.84-.73a.5.5 0 0 1 .14-.44Z" fill="#264A5E"/><path d="M5.98 10.18c-.1.5.08.88.57 1.12.05.03.05.06-.01.07-.05.01-.1 0-.17-.03a1.05 1.05 0 0 1-.51-.64c-.13-.4-.1-.58.12-.52Z" fill="#4A4C52"/><path d="M6.1 10.5c.13.44.41.68.83.74.3.04.53-.07.68-.32.9-.22 1.82-.2 2.78.07.02.18.11.3.28.38a1 1 0 0 0 .78.03.7.7 0 0 0 .28-.24l.25-.3a.8.8 0 0 1-.53.77v.01l.04.04h.05c.33-.15.53-.4.6-.77.08.34 0 .67-.22.98a.17.17 0 0 1-.13.08c-.32.03-.53.03-.64.01-1.3-.23-2.44-.43-3.7-.33-.42.03-.89.02-1.41-.02a.14.14 0 0 1-.12-.07 1.11 1.11 0 0 1-.06-.86c.09.3.26.5.51.64.06.03.12.04.17.03.06-.01.06-.04 0-.07-.48-.24-.67-.61-.56-1.12.07-.02.1.1.11.33Z" fill="#C9BBB9"/><path d="M8.95 11.9h.65c.13 0 .15.04.04.11-.18.13-.42.19-.71.16-.3-.03-.53-.12-.68-.28-.1-.1-.08-.13.06-.1.28.06.5.1.64.11ZM11.43 8.79c.24.05.42.19.56.4.15.23.12.25-.08.08a1.3 1.3 0 0 0-.52-.3 1.29 1.29 0 0 0-.6.01c-.26.07-.28.03-.04-.1a.91.91 0 0 1 .68-.1Z" fill="#240F0B"/><path d="M6.6 10.18a.12.12 0 0 0 0-.24.12.12 0 0 0-.12.12c0 .07.05.12.12.12ZM10.92 10.26c.06-.03.1 0 .12.06 0 .02.01.05 0 .07 0 .06-.03.1-.08.1-.04.01-.1 0-.16-.01-.06-.02-.08-.06-.04-.11.02-.03.07-.07.16-.1Z" fill="#A0B0BB"/></svg>