<!-- by TradingView --><svg width="18" height="18" viewBox="0 0 18 18" xmlns="http://www.w3.org/2000/svg"><path fill="#181B1E" d="M0 0h18v18H0z"/><path d="M4.63 9c0-1.24.51-2.37 1.35-3.16a.62.62 0 1 0-.4-.48 4.99 4.99 0 0 0 4.73 8.47c.2-.06.27-.3.16-.46a.33.33 0 0 0-.37-.14A4.38 4.38 0 0 1 4.63 9Z" fill="url(#a)"/><path d="M13.04 11.95a.63.63 0 1 1-.46-.43 4.38 4.38 0 0 0-3.89-6.88c-.17 0-.33-.14-.36-.3-.03-.18.1-.31.27-.32L9 4a5 5 0 0 1 4.04 7.95Z" fill="url(#b)"/><path d="M9 6.6h.1c.15 0 .28-.04.32-.19.04-.17-.06-.4-.24-.4L9 6a2.99 2.99 0 0 0-2.29 4.9c.06.08.15.1.24.1.1-.01.2-.08.23-.17l.9-2.04.66 1.46c.05.1.15.16.27.16.1 0 .2-.06.26-.16l.65-1.46.89 2.02c.04.1.15.17.26.18.1 0 .18-.04.24-.1a2.96 2.96 0 0 0-.42-4.23c-.13-.1-.33-.06-.42.08-.08.14-.04.32.09.42a2.37 2.37 0 0 1 .55 2.95l-.95-2.2a.25.25 0 0 0-.23-.15c-.1 0-.19.05-.23.15L9 9.44 8.3 7.9a.25.25 0 0 0-.22-.15c-.1 0-.2.05-.24.16l-.95 2.19A2.4 2.4 0 0 1 9 6.6Z" fill="url(#c)"/><defs><linearGradient id="a" x1="5.97" y1="5.01" x2="12.24" y2="12.93" gradientUnits="userSpaceOnUse"><stop stop-color="#8937EE"/><stop offset="1" stop-color="#FA6494"/></linearGradient><linearGradient id="b" x1="5.97" y1="5.01" x2="12.24" y2="12.93" gradientUnits="userSpaceOnUse"><stop stop-color="#8937EE"/><stop offset="1" stop-color="#FA6494"/></linearGradient><linearGradient id="c" x1="11.93" y1="8.51" x2="6.07" y2="8.51" gradientUnits="userSpaceOnUse"><stop stop-color="#06FDFA"/><stop offset="1" stop-color="#7214E6"/></linearGradient></defs></svg>