<!-- by TradingView --><svg width="18" height="18" viewBox="0 0 18 18" xmlns="http://www.w3.org/2000/svg"><path fill="url(#a)" d="M0 0h18v18H0z"/><g opacity=".7" fill="#A0B3A7"><path d="M4.2 11.55c.28.49.6.87.96 1.16a5 5 0 0 0 5.59.61h.03v.01a4.97 4.97 0 0 1-4.88.02c-.78-.42-1.39-1-1.82-1.74a4.43 4.43 0 0 1 2.07-6.23l-.01.02C4.2 6.5 3.39 8.1 3.68 10.16c.06.44.23.9.51 1.4Z"/><path d="M5.25 8.07c.45-.25 1.6-.3 2.2-.43.18-.04.63-.06.98.18.43.3.46.25.94.07.48-.19.73-.25 1.3-.07.57.17.62-.18.3-.48-.33-.3-.4 0-1.13-.17-.75-.17-.08-.49-.18-.76-.07-.22.09-.3.18-.31.77-.07 2.35-.18 2.43 0 .09.21.77 1.07.88 1.24.1.18.19.45.48 1.08.3.63.56 1.37.59 1.73.02.29-.22.84-.34 1.08-.2.04-.64.15-.84.33-.25.21-.4 1.97-.74 2.32-.34.34-.44-.1-.84-.55-.4-.44-.18-1.46-.17-2.3.02-.85-.14-.4-.45-.46-.3-.06-1.18.83-1.47 1.06-.3.23-1.05 1.03-1.92 1.37-.87.35-.43.15-1.22 0-.8-.14-1.37-1.39-1.58-1.77a5.64 5.64 0 0 1-.19-2.37c.1-.7.34-.53.79-.79Z"/><path d="M7.19 6.85c-.5-.14-.5-.42-.55-.69a25.7 25.7 0 0 1 1.99 0c.7.05.45.12.55.24.1.13.2.5.3.73.11.22-.07.17-.3.52-.23.35-.4-.1-.55-.2a9 9 0 0 0-1.44-.6ZM7.75 3.5A5.84 5.84 0 0 0 5.22 4h2.35c.78 0 .83.2 1.34.43.5.23.59 1 .84 1.07.25.07 1.23.07 2.04.2.81.15.26-.05.14-.2a16.53 16.53 0 0 0-1.38-1.3 9.02 9.02 0 0 0-2.8-.68ZM14.35 6.3h-1.4c0 .04.03.17.12.35.09.18.35.34.47.4.4-.11 1.25-.4 1.41-.62.2-.27-.26-.14-.6-.14ZM9.67 11.62c-.31.14-.64.73-.77.9.04.24.22.71.59.59.45-.15.01-.19.18-.6.13-.32.42-.87.55-1.11l-.55.22Z"/></g><defs><linearGradient id="a" x1="3.35" y1="3.12" x2="21.9" y2="24.43" gradientUnits="userSpaceOnUse"><stop stop-color="#1A1E21"/><stop offset="1" stop-color="#06060A"/></linearGradient></defs></svg>