<!-- by TradingView --><svg width="18" height="18" viewBox="0 0 18 18" xmlns="http://www.w3.org/2000/svg"><path fill="#01A0E0" d="M0 0h18v18H0z"/><path d="m12.76 8.32.01-.06.02-.02h.02a.02.02 0 0 0 .02 0 .02.02 0 0 0 0-.01c.03-.39.08-.92.05-1.38a2.2 2.2 0 0 0-.1-.52.06.06 0 0 0-.06-.02c-.03.02-.06 0-.08-.03a.73.73 0 0 1-.04-.1c-.05-.2-.1-.53-.16-.76-.1-.3-.2-.69-.48-.87l-.45-.32c-.2-.13-.45-.27-.72-.4a1.85 1.85 0 0 0-.47-.2l-.01.02v.02a.1.1 0 0 1 .05.08l.01.03c.02.02.03.05 0 .08-.24-.1-.5-.17-.76-.21a.26.26 0 0 0-.13-.1 5.34 5.34 0 0 0-1.45-.12.2.2 0 0 0-.08.03c-.06.04-.13.08-.2.1-.44.15-.96.34-1.34.62-.12.08-.22.21-.34.3-.26.21-.53.46-.72.72-.06.1-.2.3-.15.4.07.11.04.17 0 .3l-.13.39a2.6 2.6 0 0 0-.17.51c-.06.27-.1.52-.14.76-.03.22-.04.44-.04.66.01.23.02.37.09.55.04.11.12.1.2.13.07.44.17.83.25 1.32.03.16.04.3.03.42a8.85 8.85 0 0 0 0 .46h-.02l-.02-.01c-.06-.38-.06-.75-.22-1.1-.04-.1 0-.28-.04-.35-.07-.11-.12-.2-.16-.33a4.64 4.64 0 0 1-.18-1.77c.01-.1.05-.26.12-.5a2.83 2.83 0 0 0 .1-.5v-.01c-.02 0-.02 0-.03.02a.66.66 0 0 1-.08.11.02.02 0 0 1-.04 0 .92.92 0 0 1 .01-.26c.15-.92.75-1.54 1.41-2.15.05-.05.04-.07-.03-.07h-.05c-.1.01-.1-.02-.04-.08a4.12 4.12 0 0 1 4.95-.33c.23.11.41.15.63.2.08.01.14.09.2.17.09.16.23.25.37.35.4.27.65.72.74 1.18.01.05 0 .1-.04.1a.03.03 0 0 0-.03.04c.25.76.32 1.58.32 2.4 0 .15-.02.3-.06.43-.05.13-.1.27-.13.4a54.52 54.52 0 0 1-.29 1.3 2.05 2.05 0 0 1 0-.7c.04-.25.09-.48.1-.73 0-.2 0-.4-.02-.59Z" fill="#FCF4ED"/><path d="m9.6 3.65-.13-.01c-.14-.01-.27-.04-.4-.03a45.9 45.9 0 0 1-.63.01l-.48.12c-.25.04-.47.1-.65.2-.63.32-1.26.79-1.66 1.37-.16.23-.25.51-.31.78-.1.4-.26.81-.3 1.2a9.6 9.6 0 0 0-.02 1.61c-.09-.04-.17-.02-.21-.13-.07-.18-.08-.32-.09-.55 0-.22 0-.44.04-.66.04-.24.08-.5.14-.76.04-.19.09-.33.17-.51.05-.12.1-.25.13-.39.04-.13.07-.19 0-.3-.05-.1.09-.3.15-.4.19-.26.46-.5.72-.72.12-.09.22-.22.34-.3.38-.28.9-.47 1.34-.61l.2-.11a.2.2 0 0 1 .08-.03 5.34 5.34 0 0 1 1.44.13c.05 0 .1.04.14.09Z" fill="#EBCEC1"/><path d="M8.44 3.62c0 .04.01.05.03.05.07-.02.12-.02.15-.02h.68a5.74 5.74 0 0 1 1.28.35.03.03 0 0 1-.01.02 3.52 3.52 0 0 0-.28.26c-.03.05-.01.07.04.04a.9.9 0 0 1 .73.03.02.02 0 0 1 0 .02l-.2.14c-.04.03-.04.05.02.05.74.02 1.14.63 1.37 1.26.15.4.24.8.29 1.2.04.38.09.84.13 1.38.02.21.03.44.03.68 0 .26-.07.52-.12.79-.03.2.06.49.1.69.02.14 0 .28-.06.4-.08.08-.15.2-.21.35-.1.21-.17.42-.25.63-.04 0-.06-.04-.06-.09.04-.3.06-.54.06-.73 0-.1-.02-.43-.07-.95-.01-.17.05-.23.14-.37a.91.91 0 0 0 .14-.59c-.03-.27-.06-.51-.06-.77l-.03-1a7.2 7.2 0 0 0-.14-1.2 2.4 2.4 0 0 0-.53-.8 4 4 0 0 0-1.07-.81l-.27-.12a3.45 3.45 0 0 0-3.17.18c-.31.22-.56.46-.76.74-.14.2-.28.45-.42.75l-.16.38-.1.29c-.04.18-.1.3-.12.48 0 .06-.03.17-.06.31a5.1 5.1 0 0 0-.05.8c0 .12-.06.25-.07.38-.01.22.03.42.11.6.08.17.25.47.22.6-.12.5-.2.81-.18 1.28 0 .03 0 .06-.02.1h-.02c-.04 0-.06 0-.06.03a3.64 3.64 0 0 0-.07-.21.38.38 0 0 1-.02-.16c.03-.46 0-.88-.08-1.38-.06-.32-.13-.73-.16-1.1A7.83 7.83 0 0 1 5.2 6.9c.08-.35.19-.73.32-1.16l.19-.35a4.3 4.3 0 0 1 1.66-1.44c.2-.1.42-.16.64-.18.04 0 .04-.01 0-.02h-.05l.48-.13Z" fill="#FDB095"/><path d="M12.76 8.32c-.03-.45-.07-.8-.09-1.01-.02-.21-.07-.5-.15-.84a4.8 4.8 0 0 0-.37-1.1 2.05 2.05 0 0 0-.22-.35 1.31 1.31 0 0 0-.87-.52.01.01 0 0 1 0-.02l.18-.11a.02.02 0 0 0 0-.05 2.44 2.44 0 0 0-.38-.11c-.12-.03-.24-.02-.34-.02-.02 0-.03 0-.01-.02l.15-.15a.04.04 0 0 0 .01-.04.04.04 0 0 0-.02-.03l-.27-.1c.02-.02.01-.05 0-.07-.02 0-.02-.02-.02-.03a.1.1 0 0 0-.05-.08v-.03h.03c.13.02.28.1.45.18l.72.4c.17.12.3.24.45.33.29.18.38.57.48.87.07.23.11.55.16.75l.04.1c.02.05.05.06.08.04a.06.06 0 0 1 .08.04c.04.15.07.31.08.5.03.46-.02 1-.04 1.38l-.01.01a.02.02 0 0 1-.02 0h-.02c-.01 0-.02 0-.02.02v.06Z" fill="#EBCEC1"/><path d="M12.16 11.94c-.18.26-.4.34-.7.26a.89.89 0 0 1-.36-.23c.01-.08 0-.16-.01-.25-.02-.1-.07-.17-.15-.2l-.23-.24c-.28-.23-.7-.23-1.07-.15l-.36.12-.18.03c.16-.17.35-.24.57-.32.17-.06.16-.19.13-.35.07.02.12.06.18.1.05.06.1.09.14.1.12.06.24.1.37.08.05.03.1.04.15.05h.01a.01.01 0 0 0 .01-.01v-.01a.09.09 0 0 0-.04-.04c-.23-.08-.34-.2-.62-.42a.94.94 0 0 0-.44-.19l-.24.06a.04.04 0 0 1-.03 0 .04.04 0 0 1-.02-.02l-.12-.7c-.02-.2 0-.4-.01-.61 0-.1-.05-.14-.13-.14-.15.01-.21.19-.22.32-.03.4 0 .78.07 1.18.02.13.06.34.25.3a21.73 21.73 0 0 1 .35-.23c.05-.01.1 0 .15.05.02.27-.15.34-.39.42l-.26.15c-.19.13-.31.19-.53.15a.8.8 0 0 1-.25-.08 3.2 3.2 0 0 0-.53-.24c-.12-.04-.18-.17-.04-.25h.03c.08.01.25.1.35.08.01 0 .02 0 .03-.02a.36.36 0 0 0 .05-.1c.03-.11.07-.23.08-.33a4.82 4.82 0 0 0-.01-1.01c-.01-.01-.02-.02-.03-.01a.1.1 0 0 0-.02.02l-.01.03a13.86 13.86 0 0 1-.2 1.1.13.13 0 0 1-.12.06c-.07-.07-.19-.03-.25 0a.17.17 0 0 1-.08-.03.11.11 0 0 0-.11 0c-.1.05-.2.08-.28.15-.2.18-.32.34-.38.6a6.76 6.76 0 0 1-.06.3h.03l.08-.15a.39.39 0 0 1 .09-.11.6.6 0 0 0 .1-.12c.17-.11.3-.24.39-.4h.05c-.02.28.23.33.45.42.07.02.14.06.22.12a170.68 170.68 0 0 0-.72-.03.75.75 0 0 0-.46.37c-.08.14-.1.34-.17.48a.46.46 0 0 0-.03.16l-.03.16c-.04.15-.13.14-.25.08a1.6 1.6 0 0 1-.62-.53 4.13 4.13 0 0 0-.27-.38l-.04-.02-.01-.09c0-.02.02-.03.06-.02 0 0 .02 0 .02-.02a.19.19 0 0 0 .02-.1c-.02-.46.06-.78.18-1.27.03-.13-.14-.43-.22-.6a1.25 1.25 0 0 1-.1-.6c0-.13.06-.26.06-.39a5.1 5.1 0 0 1 .11-1.1c.03-.18.08-.3.13-.48l.1-.3c.05-.13.09-.25.15-.37.14-.3.28-.55.42-.75.2-.28.45-.52.76-.74a4 4 0 0 1 .52-.26c.3-.13.63-.2 1.01-.22l.54.01a3.45 3.45 0 0 1 1.1.3l.27.1a4 4 0 0 1 1.07.82c.25.26.43.53.53.8.02.08.05.19.07.34.04.25.06.53.07.87l.03 1c0 .25.03.5.06.76a.91.91 0 0 1-.14.59c-.09.14-.15.2-.14.37.05.52.08.84.07.95 0 .19-.02.43-.05.73-.01.05 0 .08.05.1Z" fill="#FECBB0"/><path d="M13.4 8.13a8.4 8.4 0 0 1-.05 1.19c0 .17-.12.38-.16.54-.08.35-.04.88-.41 1.08-.04.02-.06.01-.07-.02-.02-.07.03-.24.04-.29.03-.16.01-.36.05-.5l.14-.45c.04-.12.07-.2.07-.27.02-.23.06-.47.14-.72.04-.12.06-.28.06-.48 0-.06.03-.1.09-.12l.02-.01c.05-.02.08 0 .08.05Z" fill="#FDB095"/><path d="m7.8 8.54-.37.11c-.02.01-.02.02 0 .02a.1.1 0 0 0 .05 0l.03.01c.11.07.2.15.24.23.05.07.04.07-.03.02-.05-.05-.12-.13-.19-.16a.41.41 0 0 0-.28-.02c-.04.01-.04.02 0 .02.18.03.37.16.52.27.03.02.06.02.1.03l-.02.05-.21.05-.34.08c-.28.08-.58.05-.75-.21-.01-.02-.03-.02-.04-.02l-.05.02c-.02.01-.03.03-.01.05l.13.2c-.1.01-.14-.12-.18-.2l-.02-.02h-.02c-.02.01-.03.02-.02.04l.14.2v.02a.01.01 0 0 1 0 .01.02.02 0 0 1-.01 0 .29.29 0 0 1-.16-.2.04.04 0 0 0-.01-.03.04.04 0 0 0-.04-.01c-.1.02-.14.09-.24.18h-.04v-.02a.59.59 0 0 1 .05-.05c.04-.04.04-.06-.03-.06s-.21.01-.27-.06l.01-.02h.02c.15.08.38.01.53-.05.31-.15.44-.23.62-.27.04-.01.04-.02 0-.03h-.05l-.75.1c.03-.27.16-.45.37-.56.16-.08.35-.1.57-.08l.68.08c.04 0 .07.03.1.06.05.07.05.15-.03.22Z" fill="#070405"/><path d="M6.26 8.78a.51.51 0 0 1-.09.01c-.03 0-.05-.01-.04-.05.1-.36.48-.5.82-.5.14 0 .37.01.68.05.07 0 .13.04.16.1a.05.05 0 0 1 0 .05l-.01.02a.58.58 0 0 1-.19.07c-.3.05-.53.08-.75.13l-.58.12Z" fill="#FECBB0"/><path d="m7.86 9.07-.09-.03c-.15-.11-.34-.24-.52-.27-.04 0-.04-.01 0-.02.1-.03.19-.02.28.02.07.03.14.11.2.16s.07.05.02-.02a.77.77 0 0 0-.24-.23h-.03a.1.1 0 0 1-.05 0c-.02-.01-.02-.02 0-.03l.37-.1c.06 0 .12-.03.19-.1a.05.05 0 0 1 .1.02c0 .07-.1.2-.13.24-.07.1 0 .15.05.24a.03.03 0 0 1-.02.04.23.23 0 0 0-.13.08ZM9.52 8.5c.08.12.27.14.4.16.45.07.9.1 1.34.13.04.1.12.2.23.3-.06.01-.1.03-.17 0-.24-.07-.46-.17-.62-.24a2.6 2.6 0 0 0-.58-.13c-.18-.02-.33.05-.45.22h.02c.15-.14.3-.18.5-.13.03 0 .03.01 0 .02-.14.04-.27.11-.4.21a.34.34 0 0 1-.14.06s-.02 0-.02.02c0 .04.02.07.07.08-.09.03-.18.06-.28.07-.04.01-.08 0-.11-.02a.03.03 0 0 1-.02-.03c.01-.15.21-.24.34-.28.01 0 .02 0 .02-.02.01-.06 0-.11-.05-.14a2.08 2.08 0 0 1-.18-.12c-.12-.1.01-.16.1-.17ZM5.76 9.08c.04-.05.13-.1.27-.17.05-.03.07-.06.08-.1a20.44 20.44 0 0 0 .8-.09c.04 0 .04.02 0 .03-.18.04-.3.12-.62.27-.15.06-.38.13-.53.06Z" fill="#FDB095"/><path d="M11.49 9.09a.42.42 0 0 0 .16-.09l.02.01v.01a.9.9 0 0 1-.26.15.02.02 0 0 0 0 .02 1.01 1.01 0 0 1 .3.29.01.01 0 0 1-.02 0h-.03a1.11 1.11 0 0 0-.44-.34h-.01l-.01.01a.77.77 0 0 1-.16.21h-.02v-.02l.13-.19c.02-.01.01-.03 0-.03l-.02-.01c-.02-.01-.04 0-.05.01a.74.74 0 0 1-.12.2l-.02.02h-.03v-.02a.6.6 0 0 0 .14-.2V9.1l-.01-.02a.1.1 0 0 0-.05-.02.03.03 0 0 0-.03.01.69.69 0 0 1-.78.23L10 9.25c-.1-.03-.2-.02-.3-.05-.06-.01-.08-.04-.08-.08l.02-.02c.06-.01.11-.03.14-.06.13-.1.26-.17.4-.2.03-.02.03-.03 0-.03a.48.48 0 0 0-.5.13h-.02c.12-.17.27-.24.45-.22.26.04.46.08.58.13.16.07.38.17.62.25.06.02.1 0 .17-.01Z" fill="#070405"/><path d="M7.34 8.94a.6.6 0 0 1-.07.2c-.04.08-.25.08-.33.06-.01 0-.02 0-.03-.02a.33.33 0 0 1-.09-.2c0-.04.02-.06.06-.07h.04c.04-.01.06 0 .06.05 0 .09.01.13.02.14.08.02.14 0 .18-.06a.12.12 0 0 0 0-.14c-.02-.03-.02-.04.02-.03l.1.02a.04.04 0 0 1 .04.05Z" fill="#FCF4ED"/><path d="M9.56 10.27a4.13 4.13 0 0 1 .35.2l.58.42c-.13.03-.25-.02-.37-.07a.62.62 0 0 1-.14-.1.61.61 0 0 0-.18-.11.38.38 0 0 0-.25-.22l-.05-.01c-.06 0-.08.02-.05.05a20.2 20.2 0 0 0-.34.22c-.19.05-.23-.16-.25-.29-.08-.4-.1-.79-.07-1.18 0-.13.07-.31.22-.32.08 0 .12.05.13.14.01.21-.01.4.01.6a9.24 9.24 0 0 0 .15.73h.02l.24-.06Z" fill="#FDB095"/><path d="M10.57 9.04a.2.2 0 0 0 .1 0c-.01.23-.2.24-.38.2-.03 0-.05-.02-.06-.05a.69.69 0 0 1-.07-.21v-.02l.02-.01.11-.02a.02.02 0 0 1 .02.01l.03.19a.02.02 0 0 0 .02.01c.09.01.16-.02.21-.1Z" fill="#FEE6D6"/><path d="M7.66 9.07a.65.65 0 0 0-.18.07.18.18 0 0 1-.08.02c-.02 0-.02 0-.02-.02l.04-.2h.01l.23.12v.01Z" fill="#FCF4ED"/><path d="M4.93 9.96c.06.16.12.32.15.48l.12.6c0 .02 0 .03-.02.03-.01 0-.02 0-.04-.03a.7.7 0 0 1-.13-.3 3.49 3.49 0 0 0-.15-.47c-.09-.23-.24-.43-.26-.69 0-.22 0-.42.04-.6.02-.05.03-.05.05 0 .03.11.06.22.07.32 0 .05.04.13.09.24.04.08.06.14.06.17 0 .09-.01.18.02.25Z" fill="#FECBB0"/><path d="M6.67 8.95a.02.02 0 0 1 .03 0v.01a.43.43 0 0 1 .05.11v.04c0 .01 0 .02-.02.02-.02.02-.04 0-.06-.01a.36.36 0 0 1-.07-.1.02.02 0 0 1 0-.03l.07-.04Z" fill="#FEE6D6"/><path d="M9.92 9.06a8.73 8.73 0 0 0 .14-.08V9l.03.15c.03.07 0 .1-.08.06a.5.5 0 0 1-.1-.07h-.16v-.01c.06-.02.12-.02.17-.06Z" fill="#FCF4ED"/><path d="M7.85 9.12c.05.16 0 .25-.1.38v.03c0 .06.02.12 0 .18a.64.64 0 0 1-.44.36.03.03 0 0 1-.04-.03v-.02a.56.56 0 0 0 .06-.19.03.03 0 0 0-.02-.02 4.98 4.98 0 0 0-.4-.05c-.06 0-.1-.05-.12-.12h.4l.02-.03V9.6H7.1c.04-.04.05-.08.04-.12v-.03c.02-.04.05-.07.08-.08.17-.05.31-.12.42-.2l.2-.05ZM9.6 10.48c.08.03.13.09.14.16.01.1 0 .2-.11.25-.22.07-.34.1-.5.24-.1.1-.18.15-.22.17-.2.1-.42.12-.66.04-.11-.04-.24-.16-.33-.24-.1-.09-.22-.13-.33-.17-.1-.03-.15-.09-.16-.17-.02-.19.09-.3.33-.31.04 0 .08-.02.11-.06a13.86 13.86 0 0 0 .22-1.13l.02-.02h.03v.03c.04.3.05.67 0 .98 0 .11-.04.23-.07.34-.01.03-.03.07-.06.1l-.02.02c-.1.02-.27-.07-.35-.09h-.03c-.14.1-.08.22.04.26.18.06.35.14.53.24a.8.8 0 0 0 .25.08c.22.04.34-.02.53-.15.12-.08.2-.13.26-.15.24-.08.41-.15.39-.42ZM11.3 9.54l-.1.09a460.1 460.1 0 0 1-.29.16h-.53c-.05 0-.1-.04-.14-.1a.06.06 0 0 0-.04-.01l-.06-.02c-.01 0-.02 0-.01-.01v-.02h.43-.24l-.01.01v.03c.3.03.56 0 .8-.17.02-.01.02-.02 0-.02h-.04l-.13.05a.84.84 0 0 1 .34-.13.03.03 0 0 1 .02.03v.1Z" fill="#FDB095"/><path d="M7.1 9.6h.11c0 .02 0 .03-.02.03l-.02.01h-.38a1.28 1.28 0 0 1-.46-.13.02.02 0 0 0-.01.01v.01l.02.04.28.14a.02.02 0 0 1 0 .03H6.6a.73.73 0 0 1-.27-.13c-.03-.02-.09-.03-.18-.02h-.01v-.01l-.01-.01a.01.01 0 0 1 0-.01l.12-.02a.02.02 0 0 0 .02-.02l-.02-.05c0-.02 0-.03.02-.01.02.01.05.04.09.05a4 4 0 0 0 .75.09ZM10.56 9.62c.14 0 .26-.03.38-.1l.13-.05h.04c.02.01.02.02 0 .03-.24.17-.5.2-.8.17v-.03h.01l.24-.02Z" fill="#8F4B35"/><path d="m10.87 10.18.26-.08c.13-.04.23-.05.37-.06a.05.05 0 0 1 .04.02c.13.27.16.66-.03.9-.1.12-.22.03-.32-.04-.12-.09-.22-.19-.32-.28-.13-.12-.33-.25-.46-.35-.07-.06-.06-.09.03-.09.15 0 .3 0 .43-.02Z" fill="#FFD6C0"/><path d="M10.5 10.9a19.01 19.01 0 0 1-.76-.54 4.13 4.13 0 0 0-.18-.09c.16.02.3.09.44.2.28.21.4.33.62.41l.04.04v.01l-.02.01a.35.35 0 0 1-.15-.05ZM9.8 10.6c.03.17.04.3-.13.36-.22.08-.4.15-.57.32a.77.77 0 0 1-.6.16.86.86 0 0 1-.5-.21c-.07-.06-.14-.1-.21-.12-.22-.09-.47-.14-.45-.41.03-.1.08-.19.17-.25.06-.03.18-.07.25 0-.24.01-.35.12-.33.31.01.08.06.14.16.17.11.04.22.08.33.17.1.08.22.2.33.24.24.08.46.07.66-.04l.21-.17c.17-.14.29-.17.5-.24.12-.04.13-.15.12-.25-.01-.07-.06-.13-.13-.16a.18.18 0 0 0-.16-.05c-.03-.03-.02-.05.05-.05h.05c.12.04.2.12.25.23Z" fill="#070405"/><path d="M7.51 10.45a.46.46 0 0 0-.17.25.13.13 0 0 0-.05-.01v-.01h-.03c-.15.1-.27.24-.35.4a.6.6 0 0 1-.11.13.39.39 0 0 0-.1.11 2.7 2.7 0 0 1-.07.14c0 .01-.01.02-.03.01a.02.02 0 0 1 0-.02l.06-.28c.06-.26.18-.42.38-.6.07-.07.18-.1.28-.15a.1.1 0 0 1 .11 0c.02.02.04.02.08.03Z" fill="#FDB095"/><path d="M8.32 10.74c.04-.04.09-.05.14-.02a.7.7 0 0 1 .21.22.04.04 0 0 1-.02.07.52.52 0 0 1-.45-.05c-.04-.02-.05-.06-.01-.1l.13-.12ZM12.62 10.96c-.07.4-.16.82-.29 1.24-.11.39-.28.67-.55.98-.4.48-.87.9-1.4 1.24-.66.45-1.38.62-2.16.37A3.84 3.84 0 0 1 7 14.07a6.9 6.9 0 0 1-.92-.89 2.63 2.63 0 0 1-.58-1.25c-.03-.16-.07-.29-.08-.41l.04.02c.1.13.2.26.27.38.16.24.37.39.62.53.11.06.2.07.25-.08l.03-.16c0-.07.02-.12.03-.16.08-.14.09-.34.17-.48.1-.18.25-.3.46-.37a170.68 170.68 0 0 1 .71.03c.19.13.29.18.5.2.22.03.42-.01.6-.15l.18-.03.36-.12c.36-.08.8-.08 1.07.15.06.05.14.13.23.24l.06.17c.04.1.04.17.05.26l.01.03c.02.03.03.02.04-.01.13.12.25.2.37.23.28.08.51 0 .69-.26l.25-.63c.06-.15.13-.27.21-.35Z" fill="#FEE6D6"/><path d="m10.01 12.79.21-.2a.66.66 0 0 0 .17-.24.78.78 0 0 0 .16-.48.82.82 0 0 0-.6-.28c.03-.09.1-.13.23-.12.33.02.5.19.51.5 0 .12-.01.3-.06.44-.04.14-.07.28-.12.39-.08.18-.35.68-.57.7a.04.04 0 0 1-.03-.01.04.04 0 0 1-.01-.03c0-.1.12-.2.14-.3a.58.58 0 0 0-.03-.37Z" fill="#FECBB0"/><path d="M11.1 11.97c0 .03-.02.04-.04.01l-.01-.03c0-.1 0-.17-.05-.26a1.66 1.66 0 0 1-.06-.17c.08.03.13.1.15.2.01.09.02.17.01.25ZM9.94 11.6c.27 0 .47.1.6.27-.23-.19-.5-.25-.8-.2-.11 0-.3.04-.58.1-.22.04-.45.05-.7.03a1.71 1.71 0 0 0-.97 0 9.6 9.6 0 0 1-.27.07l.12-.08c.18-.08.3-.12.37-.12.18 0 .34-.02.5 0 .2.01.56.07.87.02l.4-.09c.13-.03.29-.04.46 0ZM6.56 11.83c0 .09.03.17.04.2 0 .06 0 .07-.04.02a.37.37 0 0 1-.07-.22c0-.08.02-.15.07-.21.03-.05.04-.04.04.01 0 .04-.04.12-.04.2Z" fill="#070405"/><path d="M10.55 11.87c0 .16-.05.32-.16.48-.24.3-.52.5-.85.57-.28.08-.58.1-.92.07l-.6-.23c-.1-.04-.23-.12-.25-.22a.05.05 0 0 1 .03-.06h.02c.11 0 .23.02.34.08.05.03.1.05.15.05.12.02.25.06.39.06.3 0 .49 0 .72-.06l.24-.06c.18-.05.3-.15.38-.3a.36.36 0 0 1 .1-.1 1.47 1.47 0 0 0 .23-.23.01.01 0 0 0 0-.01.8.8 0 0 0-.44-.01l-.7.14c-.24.03-.48.03-.72.02-.25 0-.54-.07-.81-.11.02-.07.07-.11.17-.11l.6-.04c.24.02.47 0 .69-.03.28-.06.47-.1.57-.1.3-.05.58.01.82.2Z" fill="#F9937F"/><path d="m8.46 11.8-.59.04c-.1 0-.15.04-.17.11l-.38.05c-.05 0-.05.03-.02.06.17.17.37.3.6.37.09.03.25.07.46.1.32.07.62.07.91 0 .3-.08.56-.17.77-.27a.59.59 0 0 1-.38.3l-.24.05c-.23.06-.42.05-.72.06-.14 0-.27-.04-.4-.06a.52.52 0 0 1-.14-.05.72.72 0 0 0-.34-.08.05.05 0 0 0-.04.02.05.05 0 0 0 0 .04c.01.1.13.18.24.22l.6.23a1.4 1.4 0 0 1-1.11-.48.69.69 0 0 0-.17-.16.71.71 0 0 1-.13-.3c-.01-.08 0-.14.01-.18a9.97 9.97 0 0 0 .54-.14c.23-.03.47 0 .7.07Z" fill="#DC6B5E"/><path d="m7.34 11.79-.12.08c-.02.04-.02.1 0 .18a1.46 1.46 0 0 0 .88.95.6.6 0 0 0-.14.14c-.06.09-.04.16.05.23.05.03.12.1.2.19h.03c.05-.03.1-.06.12-.09a.06.06 0 0 1 .06-.02l.16.02c.12 0 .25-.06.38-.05.12.02.23.01.36 0 .11-.02.2-.02.35-.03a.03.03 0 0 1 .03.02l.05.28a.09.09 0 0 0 .06.07c.1.03.19 0 .26-.07.12-.1.22-.22.36-.29a.03.03 0 0 1 .03 0l.01.02v.01a.97.97 0 0 1-.38.73c-.27.22-.55.41-.9.47-.24.05-.4.13-.65.03l-.4-.17c-.2-.08-.36-.2-.5-.36-.1-.11-.2-.29-.31-.53-.17-.36-.29-.7-.37-1.01-.02-.08-.03-.2-.03-.35 0-.15.05-.3.13-.42a.05.05 0 0 1 .03-.02l.25-.01Z" fill="#FFD6C0"/><path d="M10.04 12.26c-.2.1-.46.2-.77.27-.3.07-.6.07-.9 0a4.84 4.84 0 0 1-.48-.1c-.22-.07-.42-.2-.6-.37-.02-.03-.02-.05.03-.06l.38-.05c.27.04.56.1.8.11.25.01.5 0 .73-.02.21-.03.45-.1.7-.14a.8.8 0 0 1 .44.01v.02a1.5 1.5 0 0 1-.1.13.93.93 0 0 1-.13.09.36.36 0 0 0-.1.1Z" fill="#070405"/><path d="m9.27 12.17.05-.05c.08-.08.16-.08.24 0a.02.02 0 0 0 .02 0l.01-.01.01-.06.01-.01.01-.01.16-.02.02.02.03.05h.03l.01-.02c0-.07.04-.1.12-.1l.03.01c0 .1.03.23-.06.27l-.46.18-.34.06c-.48.07-.99-.03-1.45-.21-.08-.04-.11-.1-.08-.22 0-.01 0-.02.02-.02.07 0 .1.02.12.08 0 .01 0 .02.02.03h.02v-.01l.02-.06.01-.01h.02c.08 0 .13.04.16.11l.02.03h.04l.01-.07.02-.02c.06 0 .12.01.17.03l.05.07h.03l.03-.05c0-.02.02-.02.03-.02h.27c.03 0 .07.01.08.05.02.06.04.06.08.01.03-.04.04-.06.08-.06.08-.02.16-.02.25-.02h.02l.02.03.02.02h.03Z" fill="#FEE6D6"/><path d="M8.62 12.99c.34.03.64 0 .92-.07.33-.08.61-.27.85-.57a.66.66 0 0 1-.17.24l-.2.2c-.55.36-1.32.37-1.92.2a1.46 1.46 0 0 1-.76-.64c.06.04.11.09.17.16.25.33.7.48 1.1.48Z" fill="#070405"/></svg>