<!-- by TradingView --><svg width="18" height="18" viewBox="0 0 18 18" xmlns="http://www.w3.org/2000/svg"><path fill="#F653A2" d="M0 0h18v18H0z"/><path fill-rule="evenodd" d="M15 9 9 3 3 9l6 6 6-6ZM4.7 10.23l1.81 1.81c.26-.31 1.22-1.4 2.39-1.45-.21.23-.73.97-.73 1.91 0 .64.29 1.3.54 1.73l.29.3.32-.32c.24-.42.51-1.05.51-1.71a3.4 3.4 0 0 0-.73-1.91c1.17.06 2.13 1.14 2.39 1.45l1.43-1.43-.09.06c.22-.24.67-.97.67-1.67 0-.48-.22-1.06-.42-1.45l-1.6-1.6c-.27.24-1.17.99-2.31 1.05.2-.24.66-.96.66-1.67 0-.53-.2-1.06-.43-1.46l-.4-.4-.34.34a3.5 3.5 0 0 0-.5 1.52c0 .7.46 1.43.67 1.67a3.98 3.98 0 0 1-2.3-1.05L5.45 7.02c1.61.24 2.98 1.97 2.98 1.97s-1.77 1.68-3.1 1.68c.2-.24.67-.97.67-1.68 0-.64-.39-1.57-.62-1.91l-.7.7a2.6 2.6 0 0 0-.36 1.21c0 .45.18.9.37 1.24ZM12.5 7a3.85 3.85 0 0 0-.83 2c0 .83.45 1.43.66 1.67-1.36-.08-2.77-1.68-2.77-1.68S11.14 7.07 12.5 7Z" fill="#0D106F"/></svg>