<!-- by TradingView --><svg width="18" height="18" viewBox="0 0 18 18" xmlns="http://www.w3.org/2000/svg"><path fill="#F0F3FA" d="M0 0h18v18H0z"/><path d="M12.49 4.08a8.1 8.1 0 0 1 1.53 1.7l.75 2.04c-.08.26-.1.65-.06 1.17.01.16-.02.48-.1.97a5.67 5.67 0 0 1-3.97 4.6c-.86.28-1.7.35-2.55.21a6.16 6.16 0 0 1-2.6-1.1c-.1-.1-.18-.16-.24-.2a1.38 1.38 0 0 1-.31-.18 2.03 2.03 0 0 1-.32-.45c-.05-.1-.14-.13-.3-.1a5.94 5.94 0 0 1-1.26-4.55c.18-1.28.72-2.4 1.6-3.35A5.78 5.78 0 0 1 9.1 3a6.3 6.3 0 0 1 3.4 1.08Z" fill="#EEC373"/><path d="M14.57 8.93c0 1.58-.55 2.92-1.66 4.04a5.45 5.45 0 0 1-4 1.67c-1.58 0-2.91-.55-4.02-1.67a5.53 5.53 0 0 1-1.66-4.04c0-1.58.55-2.93 1.66-4.04A5.45 5.45 0 0 1 8.9 3.2c1.57 0 2.9.56 4.01 1.68a5.53 5.53 0 0 1 1.66 4.04Z" fill="#020107"/><path d="m9.55 4.75-.02-.01c0-.09-.06-.1-.18-.02a.2.2 0 0 1-.14.04l-1.13-.1a.16.16 0 0 1-.15-.12l-.18-.58c-.04-.12 0-.2.13-.22.23-.06.42-.07.55-.05.03 0 .04.02.04.05 0 .02 0 .04-.03.04l-.32.1c-.03.02-.04.03-.04.06s.02.05.04.06c.19.03.32.12.38.27.03.06.01.07-.05.04-.12-.07-.2-.1-.23-.1-.18.03-.2.1-.04.18.3.18.67.26 1.11.25.07 0 .1-.03.11-.1l.06-.67c.01-.1.06-.16.14-.2a.23.23 0 0 1 .24.02c.28.19.4.33.35.42-.1.22-.19.21-.24-.03l-.02-.14c-.02-.1-.06-.1-.12-.03a.25.25 0 0 0-.04.15c0 .08.03.13.1.17.13.08.2.16.23.24.03.06 0 .09-.06.08-.1 0-.22-.06-.34-.17-.05-.05-.1-.05-.13.02-.06.09-.04.17.04.25.03.03.03.06 0 .08a.2.2 0 0 1-.06.02Z" fill="#EEC373"/><path d="M9.2 6.1c-.65.06-.94.23-.87.53l-.02.04-.07-.13c-.03-.04-.06-.05-.1-.02-.25.16-.4.39-.5.67-.01.06-.05.09-.1.09-.04.04-.07.05-.1.04.11-.34.33-.7.66-1.08.05-.08.2-.17.46-.26a.2.2 0 0 0 .12-.12c.03-.1.01-.22-.06-.35a.81.81 0 0 0 0-.52.46.46 0 0 1 .28 0c0 .17-.03.2-.05.09-.04.27-.01.5.08.68.02.06.07.1.13.12.19.05.3 0 .33-.17.05-.25.18-.52.36-.79.1-.1.36-.1.8.03.09.02.14 0 .16-.08l.16-.45a.15.15 0 0 0-.01-.13l-.09-.14c-.05-.1-.02-.13.08-.12.17.03.33.1.5.22.15.12.13.18-.07.18h-.07c-.06.01-.1.03-.13.08l-.3.53c-.05.1-.13.12-.23.06-.38-.2-.62-.18-.71.08a.2.2 0 0 0 .03.18c.06.1.06.19-.02.28a.28.28 0 0 0-.07.16c-.02.33-.04.54-.06.63 0 .05-.03.08-.05.1a.1.1 0 0 1-.06.01c-.05 0-.08-.03-.09-.07-.07-.37-.18-.49-.32-.36Z" fill="#F5EFC3"/><path d="M8.62 4.99c.06.14.06.3 0 .52-.12 0-.2-.05-.23-.16-.06-.24-.13-.24-.23-.01-.07.19-.18.26-.32.23-.07-.01-.11.01-.13.08-.04.12-.13.2-.26.23a.16.16 0 0 0-.12.1c-.07.16-.24.2-.52.12a.69.69 0 0 1-.08-.48c.45-.3.92-.46 1.4-.51.12-.01.12-.03.02-.07a.9.9 0 0 0-.82.06.13.13 0 0 1-.15 0A.65.65 0 0 0 6.81 5a.17.17 0 0 1-.16-.1l-.25-.43c-.04-.07-.03-.13.03-.18.14-.12.3-.19.47-.22.07-.01.12 0 .16.06.13.16.21.28.26.36.11.2.06.28-.17.22-.13-.04-.2-.16-.2-.36a.2.2 0 0 0-.03-.09c-.01-.03-.04-.05-.07-.04-.16.01-.18.06-.06.14l.1.07c.07.04.07.08.01.13a.16.16 0 0 0-.04.05c-.03.06-.02.1.02.13l.29.22c.05.04.1.05.17.02.41-.2.84-.2 1.28.02Z" fill="#D6A02D"/><path d="M5.75 4.69h-.01a.12.12 0 0 0-.03.18l.34.45c.04.06.11.07.17.03v-.01a.12.12 0 0 0 .03-.17l-.33-.46a.12.12 0 0 0-.17-.02Z" fill="#EEC373"/><path d="M9.55 4.75c0 .1.07.17.2.17-.19.27-.3.54-.36.8l-.54-.64c.02.1.04.08.05-.09.36 0 .57-.1.63-.25l.02.01Z" fill="#B35D06"/><path d="M12.08 5.2a.5.5 0 0 1-.51.12c-.08-.02-.09-.06-.02-.11.23-.19.47-.32.72-.4.09-.03.13 0 .12.1l-.06.72c-.01.1-.06.14-.16.1a.24.24 0 0 1-.16-.18.14.14 0 0 1 .06-.16c.1-.07.13-.13.12-.17-.02-.06-.06-.07-.1-.03Z" fill="#EEC373"/><path d="M5.04 7.09c-.07-.03-.13-.02-.15.03-.3-.31-.27-.58.11-.82.03-.02.08 0 .16.04l.06.02c.02.01 0 .04-.04.07-.2.12-.3.26-.3.44 0 .17.04.18.12.03a4.77 4.77 0 0 1 1.88-1.75c.04-.02.08 0 .1.03l.04.07v.01a2.9 2.9 0 0 1-.38.2c-.13.06-.24.12-.32.2-.48.44-.9.92-1.28 1.43Z" fill="#8C764C"/><path d="M8.62 5.5c.07.14.1.25.06.36a.2.2 0 0 1-.12.12c-.26.1-.41.18-.46.26-.4.18-.64.47-.75.87a.37.37 0 0 1-.27.28 13.7 13.7 0 0 0-1.16.41c-.02.03-.01.07.01.1l-.2.14c-.05.04-.06.08-.02.14l.32.56c.03.06.09.1.16.1l1.26.12.03.01.01.05c0 .02-.02.03-.04.05l-.74.37c-.09.04-.08.07.02.07s.16-.03.18-.1c.02-.06.07-.09.14-.08.2.04.36.1.48.16.09.04.09.07 0 .06a.96.96 0 0 1-.25-.07c-.14-.05-.23 0-.28.13-.06.2-.15.27-.27.25a.21.21 0 0 0-.19.04l-.42.33c-.08 0-.15-.05-.2-.13-.02-.05-.05-.05-.08-.01-.02.02-.02.04-.01.08-.1-.16-.1-.34.01-.55a.2.2 0 0 0 .03-.1c0-.14-.08-.22-.22-.23a.06.06 0 0 1-.06-.05c0-.03 0-.05.02-.07.09-.08.14-.16.14-.24 0-.05-.03-.13-.1-.23-.2-.29-.3-.6-.32-.93a.41.41 0 0 1-.07-.17c-.01-.07.02-.11.08-.12a.7.7 0 0 0 .47-.3V7.1l-.05-.04C5.7 7 5.67 7 5.65 7.08a.3.3 0 0 1-.24.19c-.04 0-.06-.01-.06-.06v-.08l.03-.03.34-.2c.07-.04.13-.03.19.02l.24.25h.04l.06-.06c.02-.02.02-.04 0-.06l-.27-.34c-.06-.07-.05-.13.03-.17l.34-.2c.03-.02.05 0 .06.03 0 .09.06.14.15.14.2.01.24-.05.13-.18l-.1-.04c-.06-.03-.07-.06-.02-.11s.13-.08.24-.08c.28.08.45.04.52-.12a.16.16 0 0 1 .12-.1c.13-.03.22-.11.26-.23.02-.07.06-.1.13-.08.14.03.25-.04.32-.23.1-.23.17-.23.23.01.03.1.1.16.23.16Z" fill="#F5E363"/><path d="m8.85 5.08.54.63c-.03.17-.14.22-.33.17a.21.21 0 0 1-.13-.12 1.22 1.22 0 0 1-.08-.68Z" fill="#020107"/><path d="M12.16 6.53c-.14.03-.3.02-.46-.02-.08-.01-.1.02-.08.1l.04.13c.02.05 0 .1-.04.13h-.08c-.07-.02-.1 0-.08.09 0 .02.03.04.06.07l.41.3c.1.06.08.1-.02.1a.56.56 0 0 1-.56-.38c-.17-.42-.37-.64-.6-.67l-.73-1.08a.1.1 0 0 1 0-.1.1.1 0 0 1 .08-.05l.3.02c.07.01.08.04.06.1-.01.03-.04.05-.09.05-.02 0-.04.02-.05.04 0 .03 0 .05.03.06.06.05.14.03.26-.04.05-.03.1-.03.16 0 .3.18.65.42 1.05.72.17.13.29.27.34.43Z" fill="#C57818"/><path d="M13.23 7.87c-.05 0-.09 0-.12.02-.35.13-.34.21.03.26.04.66.05 1.1.05 1.32 0 .19-.07.37-.21.54a.19.19 0 0 0-.04.16c.05.29-.05.51-.31.68a2.2 2.2 0 0 1-.47-1.35c.14-.14.33-.18.56-.13.04 0 .05 0 .05-.04v-.11c0-.03-.01-.05-.05-.06-.2-.04-.38-.05-.57-.01-.02 0-.04 0-.05-.03l-.05-.08c-.03-.06-.02-.1.05-.1h.8c.04 0 .06-.01.07-.05 0-.04 0-.07-.04-.08-.19-.09-.46-.1-.82-.06-.02 0-.03 0-.04-.03l-.04-.07c-.02-.03-.01-.05.03-.05h.67c.14 0 .17-.06.1-.18a.67.67 0 0 1-.08-.26c-.02-.11-.09-.16-.2-.14l-.63.14c-.04.01-.06 0-.07-.04l-.03-.06c0-.02 0-.03.02-.04l.83-.26a.07.07 0 0 0 .05-.06.1.1 0 0 0 0-.06c-.02-.04-.06-.07-.14-.07l-.38.04c-.06 0-.1 0-.12-.03-.05-.06-.04-.1.03-.12l.2-.06c.06-.02.09-.07.07-.14a.16.16 0 0 0-.04-.07c.02-.03.03-.06.02-.1-.02-.07-.06-.08-.12-.05a.17.17 0 0 1-.2 0c-.06-.05-.06-.1 0-.15a.6.6 0 0 1 .25-.14c.3.2.47.49.51.85 0 .04.03.05.06.06h.07c.02 0 .03 0 .03-.03a3.6 3.6 0 0 0-.13-.42 1.46 1.46 0 0 0-.21-.37c-.17-.2-.28-.35-.32-.44-.1-.2-.2-.33-.32-.41a9.66 9.66 0 0 0-1.14-.74c-.05-.02-.05-.05 0-.08l.04-.03h.02a4.36 4.36 0 0 1 2.33 2.73Z" fill="#C57818"/><path d="M5.53 5.67c.06-.05.13-.09.2-.1.15-.03.17 0 .07.11l-.37.37c-.06.05-.1.05-.15 0l-.42-.44c-.07-.07-.08-.14-.03-.2a.1.1 0 0 1 .04-.03l.07.01.41.3c.07.04.13.04.18-.02Z" fill="#EEC373"/><path d="M6.72 5.62c-.03.16 0 .32.09.48-.11 0-.19.03-.24.08-.05.05-.04.08.02.1l.1.05c.11.13.07.2-.13.18-.1 0-.14-.05-.16-.14 0-.04-.02-.05-.05-.03l-.34.2c-.08.04-.09.1-.03.17l.27.34c.02.02.02.04 0 .06l-.06.06h-.04l-.24-.25c-.06-.05-.12-.06-.2-.02l-.33.2a.04.04 0 0 0-.02.03l-.01.08c0 .05.02.06.06.06a.3.3 0 0 0 .23-.2c.03-.06.07-.06.12-.01l.04.04c.02.02.02.05 0 .07a.7.7 0 0 1-.46.3c-.06.02-.1.06-.08.13 0 .05.03.11.07.17-.07 0-.1.12-.1.4-.08-.12-.2-.1-.32.04a1 1 0 0 0-.02-.28.2.2 0 0 0-.16.05c-.05.03-.07.08-.06.13.06.44.03.7-.09.79-.07.05-.1.03-.1-.06.02-.6.16-1.18.41-1.72.03-.05.08-.06.15-.03v.1c0 .05.03.07.07.08.05.01.08 0 .1-.05a4.9 4.9 0 0 1 1.51-1.6Z" fill="#C57818"/><path d="M9.79 6.98c-.07.04-.14.04-.2 0-.04-.03-.06-.06-.05-.09v-.05c0-.04.03-.05.07-.04.16.06.28.02.36-.13a.28.28 0 0 0 .03-.18 2.34 2.34 0 0 1-.04-.75c.02-.12.05-.12.09 0 .08.23.13.6.14 1.1 0 .1-.06.16-.2.18-.01 0-.03 0-.06-.03a.12.12 0 0 0-.14-.01Z" fill="#B0B2C0"/><path d="M10.9 5.85a.3.3 0 0 1 .04-.08.1.1 0 0 1 .05-.01c.04 0 .08.02.1.04.06.05.05.09-.03.11a.7.7 0 0 0-.23.1c-.06.05-.11.04-.14-.03a.43.43 0 0 0-.12-.13v-.04c.01-.01.03-.02.05 0l.08.06c.02.02.04.03.07.03h.05c.04 0 .07-.02.08-.05Z" fill="#B35D06"/><path d="m11.35 6.31-.19-.2c.1-.02.17 0 .23.06.03.02.04.05.04.07 0 .04-.03.06-.08.07Z" fill="#D6A02D"/><path d="M9.2 6.1c.08.6.35 1.14.83 1.62-.2.07-.43.02-.68-.12-.31-.18-.57-.45-.8-.82-.03-.07-.1-.12-.22-.15-.07-.3.22-.47.87-.52Z" fill="#B0B2C0"/><path d="m11.16 6.1.19.21c.03.02.05.05.05.08 0 .05-.02.06-.06.04-.19-.1-.25-.22-.18-.33Z" fill="#860C03"/><path d="M12.79 6.48c.1.13.2.22.23.2.02-.01-.04-.14-.15-.27-.1-.13-.2-.22-.23-.2-.02.01.04.14.15.27Z" fill="#8C764C"/><path d="M8.1 6.24c-.33.38-.55.74-.66 1.08-.01.08-.19.18-.53.3-.15.04-.15.08 0 .1l.08-.02c.06-.02.11 0 .15.04l.24.24c.04.04.08.04.12 0 .12-.18.14-.3.05-.4a.12.12 0 0 1-.04-.1l.02-.2c.06 0 .1-.03.12-.09.08-.28.24-.5.48-.67.05-.03.08-.02.11.02l.07.13c-.03.1 0 .19.08.28.22.28.27.42.15.43L8 7.04c-.03-.02-.05-.01-.06.01l-.18.42c-.02.04 0 .06.02.08.19.07.38.04.58-.1.16.1.07.24-.29.43-.15.08-.14.13.03.16.03.01.09-.03.17-.11l.32-.32c.05-.04.1-.06.16-.05.46.08.87.28 1.26.6a.2.2 0 0 1 .08.18.2.2 0 0 1-.11.18l-.6.35a.22.22 0 0 1-.2.02l-.41-.15c-.32-.27-.66-.28-1-.02a.23.23 0 0 1-.16.05l-1-.07a.52.52 0 0 1-.33-.12c-.08-.08-.12-.16-.1-.25 0-.04.03-.1.1-.16.06-.05.06-.1.03-.17-.07-.13-.2-.16-.38-.1-.02-.03-.03-.07-.01-.1 0-.02.03-.04.06-.05.38-.14.75-.26 1.1-.36a.37.37 0 0 0 .27-.28c.1-.4.36-.69.75-.87Z" fill="#FAF9F7"/><path d="M12.16 6.53c-.1.23-.25.36-.46.38l-.02.02v.05c0 .04.03.06.07.06.1 0 .2.04.28.14.05.04.1.06.16.05l.15-.04.04.07c.02.07 0 .12-.07.14l-.2.06c-.07.02-.08.06-.03.12.02.03.06.04.12.03l.38-.04c.08 0 .12.03.14.07a.1.1 0 0 1 0 .06c0 .03-.02.05-.05.06l-.83.26c-.02 0-.02.02-.02.04l.03.06c0 .04.03.05.07.04l.63-.14c.11-.02.18.03.2.14 0 .1.04.18.08.26.07.12.04.18-.1.18h-.67c-.04 0-.05.02-.03.05l.04.07c0 .02.02.03.04.03.36-.05.63-.03.82.06.03.01.05.04.04.08 0 .04-.03.06-.07.06h-.8c-.07 0-.08.03-.05.1l.05.07c.01.02.03.03.05.03.18-.04.38-.03.57 0 .04.02.05.04.05.07v.1c0 .04-.01.06-.05.05-.23-.05-.42 0-.56.13-.17-.25-.3-.55-.37-.9-.06-.31-.15-.56-.27-.76-.26-.46-.52-.94-.77-1.46.23.03.43.25.6.67.1.25.29.37.56.37.1 0 .11-.03.03-.09a7.83 7.83 0 0 1-.48-.37c-.02-.08.01-.1.08-.08l.08-.01c.04-.03.06-.08.04-.13l-.04-.13c-.03-.08 0-.11.08-.1.16.04.32.05.46.02Z" fill="#F5E363"/><path d="M12.29 6.75a.6.6 0 0 0-.26.14c-.05.05-.05.1.01.14.07.05.13.05.2.01.06-.03.1-.02.12.05.01.04 0 .07-.02.1l-.15.04a.16.16 0 0 1-.15-.06.37.37 0 0 0-.3-.13c-.03 0-.05-.02-.06-.06v-.05l.02-.02c.2-.02.36-.15.46-.38l.13.22Z" fill="#860C03"/><path d="M10.03 7.72c.22.09.36.28.42.58.01.05.04.1.1.12.05.03.1.02.15 0 .12-.07.23-.1.32-.1.1 0 .16.06.21.18.08.2.1.35.1.45-.08.43-.32.77-.72 1.02a.33.33 0 0 0-.12-.21c-.05-.04-.1-.04-.15 0l-.18.17a2.7 2.7 0 0 1-.1-.04.83.83 0 0 0 .2-.3c.04-.07.08-.09.15-.05l.13.08c.04.02.08.01.1-.03l.27-.46a.08.08 0 0 0 0-.1C10.88 9 10.85 9 10.8 9c-.07.02-.1.06-.1.13 0 .09-.02.15-.05.18-.04.05-.08.06-.13.01a.85.85 0 0 0-.04-.03c-.06-.04-.1-.03-.14.02l-.46.6c-.03.04-.06.05-.1.01l-.05-.05c-.02-.03-.02-.05 0-.08l.78-.87c.15-.17.11-.22-.1-.15-.07.03-.18.1-.34.22a.33.33 0 0 1-.17.07c-.4.03-.76.18-1.07.44-.31.26-.63.43-.97.52l-.16-.08.05-.02a3 3 0 0 0 .71-.42c.19-.18.29-.43.3-.75l.41.15c.07.02.13.01.2-.02l.6-.35a.2.2 0 0 0 .11-.18.2.2 0 0 0-.08-.18c-.38-.32-.8-.52-1.26-.6a.18.18 0 0 0-.16.05l-.32.32c-.08.08-.14.12-.17.11-.17-.03-.18-.08-.03-.16.36-.19.45-.33.3-.43 0-.01.06-.04.17-.07.12 0 .07-.15-.15-.43-.08-.1-.1-.19-.08-.28l.02-.04c.11.03.19.08.23.15.22.37.48.64.79.82.24.14.47.19.68.12Z" fill="#57577F"/><path d="M13.11 6.77c.07.07.1.14.1.22 0 .06-.03.07-.07.03-.07-.07-.1-.14-.1-.23.01-.05.03-.06.07-.02Z" fill="#8C764C"/><path d="m13.6 7.52-.1.07c-.04.05-.07.04-.07-.03l.01-.33c.08-.34.2-.36.36-.06.05.09-.02.2-.2.35Z" fill="#DDD097"/><path d="M4.11 7.51c.09-.1.08-.24-.03-.42.33-.17.43-.03.3.41-.02.06-.06.08-.11.05a.37.37 0 0 0-.16-.04Z" fill="#696868"/><path d="M4.08 7.09c.1.18.12.32.03.42-.07.04-.11.06-.12.05a.24.24 0 0 1-.13-.24c0-.13.08-.2.22-.23Z" fill="#F5EFC3"/><path d="m7.53 7.28-.02.2c0 .04.01.08.04.1.1.1.07.22-.05.4-.04.04-.08.04-.12 0l-.24-.24A.15.15 0 0 0 7 7.7a.72.72 0 0 1-.08.02c-.15-.02-.15-.06 0-.1.34-.12.52-.22.54-.3.02 0 .05 0 .08-.04Z" fill="#2D2A5C"/><path d="M4.88 7.46c-.03.09-.01.17.04.19.04.01.1-.04.14-.13.02-.1 0-.18-.04-.2-.05 0-.11.05-.14.14Z" fill="#020107"/><path d="M7.35 7.62c.04-.03.07-.02.1.01.05.06.04.11-.03.15a.07.07 0 0 1-.08 0c-.07-.05-.07-.1.01-.16Z" fill="#57577F"/><path d="m13.11 7.89.03.26c-.37-.05-.38-.13-.03-.26Z" fill="#020107"/><path d="M13.23 7.87c0 .53.1 1.04.29 1.52.03.08.07.09.11.03l.25-.32c.01-.02.03-.02.04-.01l.05.03c.04.02.04.04.02.08l-.43.75c-.07.12-.1.1-.08-.03l.02-.27c.01-.09-.02-.1-.08-.04l-.22.23a.14.14 0 0 0-.04.16c.08.21.04.43-.12.64a.42.42 0 0 0-.07.18l-.1.48c-.01.1-.06.11-.12.04-.1-.11-.13-.27-.12-.5.26-.16.36-.38.3-.67a.19.19 0 0 1 .05-.16c.14-.17.2-.35.2-.54.01-.22 0-.66-.04-1.32l-.03-.26a.33.33 0 0 1 .12-.02Z" fill="#DDD097"/><path d="M4.33 12.74c.15-.03.24 0 .29.1.1.19.2.34.32.45.03.04.14.1.31.19.06.03.14.09.24.18.06.07.12.11.15.13.78.52 1.6.84 2.45.98a5.67 5.67 0 0 0 6.52-4.81c.08-.49.11-.81.1-.97a3.3 3.3 0 0 1 .06-1.17c.2.35.27.8.21 1.38a6.26 6.26 0 0 1-2.2 4.36 5.67 5.67 0 0 1-5.76 1.1 6.52 6.52 0 0 1-2.14-1.23c-.24-.2-.42-.43-.55-.7Z" fill="#860C03"/><path d="M5.24 8.16c.06.24.17.46.33.68.04.06.04.11-.01.16-.15.15-.27.26-.34.3-.03.03-.03.05 0 .08.02.04.06.05.1.06.06 0 .1.03.14.07.05.04.05.08 0 .12-.05.05-.15.06-.29.05a.2.2 0 0 1-.15-.1l-.25-.44a.14.14 0 0 1 0-.14c.13-.27.18-.53.14-.79.13-.14.24-.16.33-.05Z" fill="#F5EFC3"/><path d="m13.87 8.33-.26.15c-.04.03-.07.02-.08-.04-.02-.15.03-.25.17-.29.1-.02.16 0 .2.04.04.06.03.1-.03.14Z" fill="#DDD097"/><path d="M4.22 8.84c0 .04 0 .08.03.11v.08c-.02.02-.04.03-.07.03-.02 0-.03 0-.05-.03-.1-.1-.15-.16-.15-.21 0-.05.07-.11.18-.2h.05c.03 0 .05 0 .06.03v.08a.21.21 0 0 0-.05.1ZM13.6 8.74l.03-.05c.08-.05.13-.03.16.07.04.1 0 .2-.12.29-.07.05-.11.03-.13-.05 0-.06.01-.12.05-.2a.17.17 0 0 0 .02-.06Z" fill="#8C764C"/><path d="m10.07 9.9-.32.24c-.06.05-.06.1.01.14.03.02.05.03.08.03s.05.02.06.05c0 .03 0 .05-.03.07l-.61.35c-.03.02-.04.04-.02.07l.05.09c.02.03.04.03.07.01.32-.26.66-.44 1.02-.56.24-.08.25-.04.06.11-.22.17-.47.29-.75.36-.05.02-.08.05-.08.11 0 .18-.14.3-.4.37 0 .14-.1.21-.3.2-.09 0-.14.04-.15.1a.2.2 0 0 1-.1.14c-.22.13-.33.37-.33.72-.22 0-.46.06-.71.2l-.88-.98c-.2-.7-.69-1.14-1.44-1.3l.04-.18c.08-.08.13-.1.17-.07l.29.26c.27.1.52.25.74.45.3.57.69 1.06 1.15 1.46.02.02.05.02.08 0a.07.07 0 0 0 .05-.07v-.26c.09-.36.1-.69.05-.98.03-.17.1-.28.21-.33.12.07.22.04.3-.1.12-.2.27-.57.45-1.11.32-.26.68-.41 1.08-.44.06 0 .12-.03.17-.07.16-.12.27-.2.34-.22.21-.07.25-.02.1.15l-.78.87c-.03.03-.02.05 0 .08l.05.05c.04.04.07.03.1 0l.46-.61c.04-.05.08-.06.14-.02l.04.03c.04.05.09.04.13 0 .03-.04.04-.1.05-.19 0-.07.03-.11.1-.13.04 0 .07.01.1.05.02.03.02.06 0 .09l-.27.46c-.02.04-.06.05-.1.03l-.13-.08c-.07-.04-.12-.02-.14.05a.83.83 0 0 1-.2.3Z" fill="#FAF9F7"/><path d="M4.72 9.55h.05v.03l-.36.4c-.04.04-.08.05-.13.01a1.07 1.07 0 0 1-.46-.8c0-.08.03-.1.1-.07.1.05.16.1.18.15.09.26.15.26.2 0 .01-.02.07-.05.2-.09.07-.02.1.01.1.08 0 .15.03.24.06.28.02.02.04.02.06.01Z" fill="#F5E363"/><path d="M7.92 9.24c-.1.1-.14.2-.11.22.02.03.12-.02.21-.11.1-.1.15-.2.12-.23s-.13.03-.22.12Z" fill="#FAF9F7"/><path d="M10.69 11c.01.02 0 .08-.04.17-.01.04-.03.04-.06.02a.07.07 0 0 1-.03-.03.2.2 0 0 0-.13-.16c-.07-.02-.13-.01-.18.04l-.57.62-.05-.03c-.03-.01-.03-.03-.02-.06a2 2 0 0 1 .35-.42l.71-.55c.37-.3.67-.47.9-.55.06-.02.1-.07.11-.13a.8.8 0 0 1 .23-.4h.03l.04.04c.02.02.02.04.01.06-.25.41-.63.72-1.13.92-.1.04-.16.1-.2.2-.03.09-.02.17.03.26Z" fill="#696868"/><path d="M6.36 9.7c0 .07-.04.12-.1.13-.02 0-.04-.01-.05-.04-.02-.02-.01-.05.01-.07l.14-.03Z" fill="#DDD097"/><path d="M10.6 9.97c-.16.15-.34.24-.54.3-.07.01-.1-.01-.08-.09a.58.58 0 0 1 .18-.25l.18-.16c.05-.05.1-.05.15-.01.06.05.1.12.12.21Z" fill="#FAF9F7"/><path d="M4.61 10.71a.62.62 0 0 0-.07-.41c.05-.15.14-.3.28-.44.05-.05.08-.04.09.02.04.33-.05.6-.3.83Z" fill="#DDD097"/><path d="m5.29 10 .05.24-.04.18c-.02-.04-.02.02-.02.18h-.04c-.18-.13-.23-.32-.15-.58.03-.07.07-.09.14-.05l.06.03Z" fill="#C57818"/><path d="m7.7 9.93.17.08c.25.14.33.37.21.69-.11.05-.18.16-.2.33-.4-.2-.79-.4-1.16-.63-.03-.02-.04-.04-.05-.07l.03-.08c.19.06.34.05.46-.03.19-.12.37-.21.55-.29Z" fill="#F5E363"/><path d="M5.5 10.17c-.03-.03-.08 0-.16.07L5.3 10c.13 0 .2.05.22.17Z" fill="#8C764C"/><path d="M4.37 10.37c-.04.11-.1.18-.2.2a.63.63 0 0 1-.27-.4c-.02-.07.01-.1.08-.08.16.02.29.12.39.28Z" fill="#F5EFC3"/><path d="M6.12 10.23c.09.07.18.05.26-.06.05-.04.1-.06.16-.04.05.02.1.06.16.12a.13.13 0 0 0-.03.08c0 .03.02.05.05.07.37.23.75.44 1.15.63.06.3.04.62-.05.98-.19-.03-.3-.12-.36-.27l-.14-.35a1.23 1.23 0 0 0-.78-.5c-.22-.21-.47-.37-.74-.46a.41.41 0 0 0 .03-.26c-.01-.04 0-.06.01-.08.03-.04.06-.04.08 0 .05.1.12.14.2.14Z" fill="#F1CF1A"/><path d="M13.32 10.88h-.03c-.1-.1-.06-.27.15-.52l.05-.05c.2-.25.37-.32.48-.23v.03l-.65.77Z" fill="#DDD097"/><path d="m12.04 10.38-.15-.15c-.06-.07-.05-.1.05-.1.13 0 .2.07.2.2 0 .03-.01.05-.04.06a.06.06 0 0 1-.06-.01Z" fill="#696868"/><path d="M4.61 10.71c-.2.05-.34 0-.45-.14.1-.02.18-.09.21-.2.04.03.08.04.12.05.04 0 .07-.02.07-.06a.1.1 0 0 0-.02-.06c.08.14.1.28.07.41Z" fill="#B35D06"/><path d="M9.4 10.4c.02-.05.05-.07.1-.07.05.02.06.04 0 .07-.07.05-.1.05-.1 0Z" fill="#B0B2C0"/><path d="M11.7 10.36c.05-.03.07-.01.05.05 0 .02 0 .03-.02.04-.02.01-.03 0-.05-.02-.02-.03-.01-.05.02-.07ZM11.24 10.55c.03-.04.06-.04.1 0 .03.03.03.07-.02.11-.03.02-.05.02-.08.01-.04-.03-.05-.07 0-.12Z" fill="#696868"/><path d="m5.28 10.6.42.3c.06.04.05.07-.01.1l-.35.1c-.09.03-.13 0-.12-.1l.02-.4a.4.4 0 0 1 .04 0Z" fill="#F5EFC3"/><path d="M11.51 10.72c.07-.05.12-.07.14-.07.1 0 .11.04.02.1-.05.04-.1.05-.15.02-.03-.01-.03-.03 0-.05Z" fill="#696868"/><path d="M5.1 11.17c0 .08-.05.22-.14.42 0 .02-.02.03-.04.03s-.03-.01-.04-.04a1.16 1.16 0 0 1 .05-.85c.01-.02.03-.03.05-.03.02 0 .03.01.04.03.06.21.08.36.08.44Z" fill="#F5EFC3"/><path d="M7.82 12.01v.26c0 .04-.01.06-.05.08a.07.07 0 0 1-.08-.01c-.46-.4-.84-.89-1.15-1.46.35.08.6.25.79.5l.13.36c.05.15.17.24.36.27Z" fill="#B35D06"/><path d="M11.02 11.02c.05-.04.1-.09.12-.13.04-.06.05-.06.04.01-.02.12-.07.21-.16.26-.08.05-.1.03-.07-.06l.07-.08Z" fill="#696868"/><path d="M13.44 11.3c.23-.18.38-.37.34-.42-.04-.05-.26.06-.48.24-.23.18-.39.37-.35.43.04.05.26-.06.5-.25Z" fill="#DDD097"/><path d="m4.45 11.06.11.08c.05.03.08.06.1.1a.7.7 0 0 1 .03.17c0 .07-.02.1-.1.07a1.38 1.38 0 0 1-.27-.15 4.73 4.73 0 0 0-.11-.07.23.23 0 0 1-.1-.1.7.7 0 0 1-.03-.17c0-.07.02-.1.1-.07l.27.14Z" fill="#F5EFC3"/><path d="M5.66 11.83c0-.1-.06-.17-.16-.2a.12.12 0 0 1-.1-.1.3.3 0 0 0-.12-.18c.2-.11.38-.11.51-.02.06.04.07.1.06.16a.96.96 0 0 1-.19.34Z" fill="#C57818"/><path d="M6.3 11.41a.37.37 0 0 1-.14-.06c-.07-.08-.06-.1.05-.08.1.02.17.08.21.16.06.1.05.11-.03.06a.26.26 0 0 1-.04-.04.11.11 0 0 0-.06-.04Z" fill="#57577F"/><path d="M12.23 11.69c-.08.23-.1.44-.02.47.07.02.2-.14.28-.37.09-.23.1-.44.03-.47-.07-.03-.2.14-.29.37Z" fill="#DDD097"/><path d="m5.66 11.83-.1.49c-.02.06-.05.07-.1.03a.21.21 0 0 1-.04-.04.12.12 0 0 0-.11-.05c-.4.03-.66-.1-.78-.4-.03-.07 0-.1.07-.1.3.05.54.2.72.45.03.03.05.03.08 0l.02-.06a.05.05 0 0 0 0-.06.87.87 0 0 1-.14-.74c.06.05.1.1.12.18 0 .06.04.1.1.1.1.03.15.1.16.2Z" fill="#EEC373"/><path d="M9.2 11.34c.02.12.07.19.16.2.06 0 .08.03.05.08a.37.37 0 0 1-.16.14c-.28.14-.48.25-.61.35-.26.18-.24.23.06.14l.5-.16c.06-.02.12 0 .17.04.03.03.07.04.12.03.05 0 .1-.03.13-.07.12-.13.31-.33.59-.59a.08.08 0 0 1 .07-.02l.35.03c.05 0 .05.02.02.05-.18.15-.32.24-.43.27a.9.9 0 0 0-.54.45.18.18 0 0 1-.14.09l-1.2.13c-.01-.35.1-.59.32-.72a.2.2 0 0 0 .1-.13c.01-.07.06-.1.14-.1.21 0 .31-.07.3-.21Z" fill="#B0B2C0"/><path d="M6.08 12.32a.78.78 0 0 0-.23-.37.6.6 0 0 1 .35-.28c.06-.02.1 0 .14.06.15.24.26.46.33.66.09.23.05.26-.12.07-.09-.1-.25-.15-.47-.14Z" fill="#B35D06"/><path d="M12.34 12.41c0 .04-.02.06-.05.08-.06.03-.07.02-.04-.03.25-.39.58-.63 1-.73.09-.03.1 0 .05.08a1.2 1.2 0 0 1-.91.55c-.03 0-.05.02-.05.05Z" fill="#DDD097"/><path d="M7.62 12.7c-.32-.02-.5-.07-.57-.13-.3-.3-.4-.58-.31-.85l.88.98Z" fill="#57577F"/><path d="M6.09 12.32c0 .1.01.19.06.24.04.05.08.06.14.04a.44.44 0 0 1 .11-.02c.07 0 .13.03.16.1l.29.5c.02.02.02.05 0 .08l-.07.09a.18.18 0 0 1-.13-.1l-.36-.49a.14.14 0 0 0-.14-.06.41.41 0 0 1-.21-.01.16.16 0 0 1-.11-.13c-.04-.2-.03-.4.02-.6.1.07.17.19.24.36Z" fill="#F5EFC3"/><path d="M11.73 12.36c-.08.2-.08.38 0 .4.06.03.18-.1.25-.3.08-.2.08-.38.01-.41-.07-.03-.19.11-.26.3ZM11.17 13.28c-.02.04 0 .06.04.06.36-.01.6.02.69.1.12.1.1.15-.08.15h-.63c-.06 0-.1-.04-.1-.1a.83.83 0 0 1 .18-.81c.06-.07.12-.1.17-.11.1-.01.12.02.08.1l-.35.6Z" fill="#DDD097"/><path d="M12.33 12.93c.26-.12.44-.28.41-.34-.03-.07-.27-.02-.53.1-.26.13-.44.28-.41.35.03.07.27.02.53-.1Z" fill="#EEC373"/><path d="M5.15 12.56c0-.03.02-.03.04-.03l.2.08c.48.2.71.33.68.4v.02c-.03.07-.3.02-.78-.18l-.2-.07c-.01-.01-.02-.03-.01-.05l.07-.17Z" fill="#DDD097"/><path d="M9.1 13.1c-.26.03-.37 0-.35-.11.04-.17.11-.26.23-.28.08-.02.13.02.12.1 0 .07.02.11.07.13.05.02.1.01.15-.02.34-.18.68-.3 1.04-.32.09-.01.1.01.04.07-.12.12-.25.15-.38.1a.3.3 0 0 0-.14-.01c-.08.01-.12.04-.13.1-.02.05.01.09.08.1l.03.03s0 .02-.03.03a.16.16 0 0 1-.17-.02.17.17 0 0 0-.16-.03l-.4.13Z" fill="#F5EFC3"/><path d="M7.1 13.27c.1.17.25.26.3.22.06-.04.02-.2-.1-.37-.11-.16-.25-.26-.3-.21-.07.04-.02.2.1.36Z" fill="#F5E363"/><path d="M10.5 13.18c-.14.2-.2.4-.16.43.05.03.2-.1.34-.3.14-.2.21-.39.16-.42-.05-.04-.2.1-.34.3Z" fill="#DDD097"/><path d="M8.74 12.99c-.01.1.1.14.35.11l.15.38c.03.07.08.1.15.07l.33-.1a.1.1 0 0 1 .1.01c.04.03.05.06.04.08l-.04.03c-.78.2-1.2.07-1.27-.36l.08-.2.11-.02Z" fill="#B35D06"/><path d="M9.48 13.27c.03 0 .06-.03.06-.06a.06.06 0 0 0-.06-.07.06.06 0 0 0-.07.07c0 .03.03.06.07.06Z" fill="#D6A02D"/><path d="M6.65 13.26c.03.05.08.08.13.09l-.02.07c-.02.06 0 .1.06.12.46.14.85.28 1.16.41.29.13.28.14-.01.04-.36-.12-.63-.13-.8-.01-.07.04-.17.03-.33-.01-.13-.04-.13-.07 0-.1l.18-.02c.07 0 .08-.03.05-.09-.03-.03-.1-.07-.23-.11a.38.38 0 0 0-.21 0 1 1 0 0 1-.71-.06.08.08 0 0 1-.05-.07c0-.04.01-.06.04-.08a.7.7 0 0 1 .65-.08c.06.03.1 0 .1-.1Z" fill="#EEC373"/><path d="M8.52 13.62c-.03.07-.17.07-.43 0-.09-.03-.12-.1-.08-.19.03-.09.09-.12.18-.08.24.1.35.2.33.27Z" fill="#B0B2C0"/><path d="M10.87 13.81c.02.03.08.07.2.1v.02l-.03.06c-.01.02-.03.02-.05.02-.15-.05-.29-.07-.41-.06a.08.08 0 0 1-.08-.05.08.08 0 0 1 0-.09.49.49 0 0 1 .38-.24c.05 0 .08.02.06.08 0 .02-.02.04-.05.06-.04.03-.04.06-.02.1Z" fill="#DDD097"/><path d="M8.38 14.11c-.47.01-.48-.06-.03-.21.08-.03.3-.05.62-.06.1 0 .1.02.02.07-.26.13-.46.2-.6.2ZM9.1 13.99c.06-.11.13-.16.22-.15.1.02.17.06.22.1.07.1.06.14-.06.14h-.32c-.07 0-.08-.03-.06-.09Z" fill="#EEC373"/><path d="m9.84 13.94.24-.1c.02 0 .04 0 .05.02 0 .02 0 .04-.02.05-.1.07-.19.11-.24.11-.1 0-.11-.03-.03-.08ZM8.11 14.32a.21.21 0 0 0 .04-.05c.03-.06.06-.08.12-.05l.07.07c.02.06 0 .1-.06.12a.2.2 0 0 1-.14.01c-.06-.02-.07-.05-.03-.1ZM9.68 14.27a.3.3 0 0 0 .03.04c.04.03.03.04-.03.05-.06 0-.1-.01-.1-.06-.01-.02 0-.04.03-.08.01-.02.03-.02.04 0l.03.05Z" fill="#8C764C"/></svg>