<!-- by TradingView --><svg width="18" height="18" viewBox="0 0 18 18" xmlns="http://www.w3.org/2000/svg"><path fill="url(#a)" d="M0 0h18v18H0z"/><path d="M10.87 6.8a16 16 0 0 1 .97 1.67v-.01A50.58 50.58 0 0 0 13.14 5h-1.57l-.04.01a.07.07 0 0 0-.02.03l-.64 1.64a.13.13 0 0 0 0 .12Zm2.48 3.52c-.07.35-.36 1.28-.81.68a3.25 3.25 0 0 1-.32-.51l-.48-1.03c-.24-.51-.49-1.04-.75-1.54-.69-1.3-1.75-2.63-3.15-2.86-2.03-.32-3.48 1.82-3.79 3.83-.22 1.46.24 2.88 1.39 3.63.5.33 1.16.47 1.74.48 1.46.03 2.66-1 3.51-2.3a.02.02 0 0 0 0-.02l-.9-1.65L9.76 9a.03.03 0 0 0-.03 0v.02c-.36.74-.73 1.4-1.11 1.96-.43.62-.98 1.17-1.68 1.21-1.01.07-1.25-1.23-1.26-2.09 0-1 .17-1.93.54-2.8.15-.34.32-.61.54-.83.42-.43 1.02-.42 1.5-.12a4 4 0 0 1 1.03.97c.48.62.9 1.3 1.28 2.01a19.31 19.31 0 0 1 1.12 2.46c.18.4.4.7.8.82.2.06.4.04.59-.06.64-.33.94-1.18.9-1.93v-.03l-.02-.02-.57-.28a.03.03 0 0 0-.03 0h-.01l-.01.02Z" fill="#fff"/><defs><linearGradient id="a" x1="3.35" y1="3.12" x2="21.9" y2="24.43" gradientUnits="userSpaceOnUse"><stop stop-color="#1A1E21"/><stop offset="1" stop-color="#06060A"/></linearGradient></defs></svg>