<!-- by TradingView --><svg width="18" height="18" viewBox="0 0 18 18" xmlns="http://www.w3.org/2000/svg"><path fill="url(#a)" d="M0 0h18v18H0z"/><path fill-rule="evenodd" d="M5.86 4.05c.09.12.22.24.4.36h.04c.1-.05.23-.15.24-.26a.1.1 0 0 0-.02-.07l-.03-.02h-.03l-.18-.03A1.38 1.38 0 0 0 5.86 4v.01a.03.03 0 0 0 0 .03Zm5.7.4.3-.37v-.03l-.02-.01a.83.83 0 0 0-.54.12c-.05.03-.05.06-.01.1l.18.2c.03.03.06.03.08 0Zm-4.83.8a4.87 4.87 0 0 0-.1-.25 32.83 32.83 0 0 1-.21-.37l.1-.06c.15-.09.3-.17.3-.36 0-.02.01-.02.02-.01.2.08.35.17.48.28l.02.03v.04a3.62 3.62 0 0 1-.54.65l-.02.03c0 .03-.02.05-.03.05-.01 0-.02-.01-.02-.03Zm4.46-.18.2-.37a.03.03 0 0 0 0-.03l-.37-.4a.07.07 0 0 0-.03-.02h-.04c-.14.06-.26.14-.38.25l-.02.03.01.04a1.57 1.57 0 0 0 .61.51h.02Zm-.12.26-.18.43v.01l-.02.01a.03.03 0 0 1-.02 0 3.97 3.97 0 0 1-.9-.68.04.04 0 0 1 .02-.03l.35-.38a.06.06 0 0 1 .04-.02l.05.01.17.2c.1.11.2.2.34.3a9.76 9.76 0 0 1 .15.12v.03Zm-1.39.32a.03.03 0 0 0 .04 0v-.02l.08-.24.01-.02.02-.02a.05.05 0 0 1 .04 0 15.21 15.21 0 0 1 .97.67l.01.04c0 .06.02.11.06.15l.04.02c.08 0 .15-.01.23-.04.23-.08.43-.17.6-.26l.03-.02c.62-.33 1.42-.75 2.1-.37.14.08.09.4.04.53-.16.41-.37.81-.62 1.2-.38.55-.83 1-1.48 1.13-.04.01-.07.04-.07.08l-.14.94c-.03.22-.08.43-.15.63a9.18 9.18 0 0 1-1.72 3.07c-.29.34-.65.63-1.05.78-.5.2-1.04.12-1.35-.37a1.8 1.8 0 0 1-.2-1.2c.01-.05.02-.18.01-.38 0-.34-.07-.62-.25-.9l-.15-.24c-.15-.23-.3-.46-.44-.75-.15-.3-.28-.66-.42-1.03-.16-.45-.33-.91-.54-1.33a2.8 2.8 0 0 0-1.13-1.2.63.63 0 0 1-.2-.14c-.06-.1-.07-.2-.01-.3.17-.4.68-.52 1.04-.44.46.1.78.38 1.14.7.08.08.24.16.35.09.21-.14.2-.57.2-.8a.09.09 0 0 1 .02-.06l.43-.4c.06-.05.1-.11.14-.18a177.86 177.86 0 0 0 .18-.33c.18.07.3.2.4.38l.04.1c.1.22.17.38.42.38h.1c.42 0 .75 0 1.09.1l.1.05Zm.96 1.97c-.04.05-.08.1-.15.1h-.03a.46.46 0 0 1-.02-.34c0-.01 0-.02.02-.03.04-.02.08-.02.14-.01.01 0 .02 0 .02.02 0 .03.02.05.04.05l.02-.01.05-.24-.01-.03-.09-.04a.02.02 0 0 0-.02 0l-.18.19-.02.02a.07.07 0 0 1-.06 0l-.03-.03-.1-.16c-.04-.04-.05-.04-.04.02l.02.1c.02.07.04.13.03.23l-.01.04a.47.47 0 0 0-.07.1c-.02.03 0 .04.03.02a.3.3 0 0 1 .09-.02l.03.01.06.12c.03.1-.03.15-.09.19a.28.28 0 0 0-.09.1.29.29 0 0 0-.03.1c0 .07.01.08.06.02.05-.05.11-.1.18-.14a.06.06 0 0 1 .07.01l.02.02.04.12.02.01h.04l.01-.01a.03.03 0 0 0 0-.03l-.06-.19v-.04l.1-.12.02-.01a.04.04 0 0 1 .04 0v.02l.05.04h.01v-.28c-.04 0-.07.04-.1.08ZM7.92 9.68c-.27.01-.5-.36-.5-.81-.02-.46.2-.84.46-.85.27 0 .5.36.5.82.02.46-.2.84-.46.84ZM9.5 9c0 .28.13.5.3.5.19.01.34-.2.34-.48.01-.27-.13-.5-.3-.5-.18-.01-.33.2-.34.48Zm-.75 4.24a.34.34 0 0 1 .1-.06h.04l.1.04h.04c.1-.05.31-.16.3-.3l-.03-.03c-.15-.04-.27-.05-.4.06-.1.1-.19.16-.28.2h-.04l-.03-.01a.95.95 0 0 1-.13-.16c-.1-.13-.17-.21-.28-.3a.1.1 0 0 0-.03-.01h-.04l-.03.01-.01.03c-.02.1.02.2.1.26.1.1.2.22.25.36a.03.03 0 0 1 0 .03c-.1.09-.17.2-.24.32v.03c.03.05.07.07.11.07l.04-.01c.22-.27.38-.44.46-.53Z" fill="#fff"/><defs><linearGradient id="a" x1="3.35" y1="3.12" x2="21.9" y2="24.43" gradientUnits="userSpaceOnUse"><stop stop-color="#1A1E21"/><stop offset="1" stop-color="#06060A"/></linearGradient></defs></svg>