<!-- by TradingView --><svg width="18" height="18" viewBox="0 0 18 18" xmlns="http://www.w3.org/2000/svg"><path fill="#F0F3FA" d="M0 0h18v18H0z"/><path fill-rule="evenodd" d="M9 4a4.98 4.98 0 0 1 4.62 6.91 4.98 4.98 0 0 1-8.16 1.63A4.98 4.98 0 0 1 7.1 4.38C7.69 4.13 8.34 4 9 4Zm0 .88c-.7 0-1.37.2-1.94.5 1.54.3 2.5-.02 3.15-.32A3.96 3.96 0 0 0 9 4.88ZM5.58 6.73c.25-.37.56-.71.93-.99 2.23.57 3.42-.02 4.2-.4l.1-.04c.47.23.9.56 1.25.96-1.4-.3-2.1-.1-2.9.15a7.9 7.9 0 0 1-3.58.32Zm3.71.13c.85-.25 1.56-.46 3.21 0 .16.26.3.54.4.84-1.75-.92-2.65-.43-3.67.12-.97.52-2.06 1.1-4.26.32.08-.33.2-.66.35-.96a8.45 8.45 0 0 0 3.97-.32Zm.16 1.37c.97-.52 1.83-.98 3.61.1.04.2.06.41.06.62a2.83 2.83 0 0 0-2.97-.22c-.86.4-1.8.84-2.72 1.06-.88.22-1.75.23-2.5-.18a4.06 4.06 0 0 1-.03-1c2.34.8 3.5.18 4.55-.38Zm2.88.84c.3.11.54.28.76.44a4.1 4.1 0 0 1-.24.95 3.58 3.58 0 0 0-1.16-.39 2.76 2.76 0 0 0-1.78.32c-.71.4-1.71.82-2.72.91-.6.06-1.22 0-1.76-.26a4.15 4.15 0 0 1-.37-.85c.77.3 1.63.27 2.48.06.97-.23 1.93-.68 2.8-1.09a2.37 2.37 0 0 1 2-.1ZM5.9 11.69c.32.38.71.7 1.16.94a4.98 4.98 0 0 1 4.35-.42l.13.04c.47-.37.85-.84 1.13-1.36a3.1 3.1 0 0 0-1.04-.35 2.3 2.3 0 0 0-1.48.26 7.6 7.6 0 0 1-2.9.97c-.46.04-.91.02-1.35-.08Zm1.7 1.18a4.4 4.4 0 0 1 3.42-.28 4.08 4.08 0 0 1-3.42.28Z" fill="#FF5B04"/></svg>