<!-- by TradingView --><svg xmlns="http://www.w3.org/2000/svg" width="18" height="18"><path fill="#FFC517" d="M0 0h18v18H0z"/><path fill-rule="evenodd" d="M6.7 4c-.95 0-1.73.79-1.73 1.76v6.15c0 1.15.84 2.09 1.88 2.09h.02v.46c0 .48.46.72.72.38l.67-.84h2.56c1.48 0 2.68-1.34 2.68-3 0-.89-.34-1.69-.9-2.24A2.74 2.74 0 0010.83 4H6.7zm1.37 3c-.73 0-1.32.62-1.32 1.38v1.24c0 .76.6 1.38 1.32 1.38h1.86c.73 0 1.32-.62 1.32-1.38V8.38c0-.76-.6-1.38-1.32-1.38H8.07zm-.1 2.5a.5.5 0 100-1 .5.5 0 000 1zm2.5-.5a.5.5 0 11-1 0 .5.5 0 011 0z" fill="#FFFDF7"/></svg>