<!-- by TradingView --><svg width="18" height="18" viewBox="0 0 18 18" xmlns="http://www.w3.org/2000/svg"><path fill="url(#a)" d="M0 0h18v18H0z"/><path d="M10 14V9.4h1.98c.3 0 .51-.27.6-.55l.42.01a.04.04 0 0 0 .03 0 .03.03 0 0 0 .01-.03l.02-1.65c.03-.08.02-.14-.04-.18a116.6 116.6 0 0 0-3.5.13.4.4 0 0 1-.38.32c-.17.02-.35.02-.52 0-.02 0-.03 0-.03-.02l-.12-.37a3.3 3.3 0 0 0-.33-.04c-.45 0-.91-.02-1.38-.05a9 9 0 0 0-.7-.02c-.5 0-.75-.01-1.1.08a.08.08 0 0 0-.05.03 4.37 4.37 0 0 1 .04.74c0 .46-.02.74.02 1.07v.02H5l.44.14c.12.15.42.38.64.38H8V14s-3.17-1.52-3.59-1.76a.79.79 0 0 1-.41-.75V7.08c0-.18.04-.3.07-.37a.66.66 0 0 1 .26-.31l1.23-.69a848 848 0 0 0 3-1.65A.59.59 0 0 1 8.8 4h.44c.05 0 .1.02.14.04l4.07 2.23c.18.1.3.18.35.25.05.07.1.15.14.25.02.06.05.16.05.27v4.42c0 .18-.03.32-.08.42a.87.87 0 0 1-.36.37C12.51 12.85 10 14 10 14Z" fill="#FF0935"/><path d="M9.52 7.24v.37a6.98 6.98 0 0 1-1.03 0 .14.14 0 0 1-.04-.04V7.5l.02-.27a.05.05 0 0 0-.01-.04.06.06 0 0 0-.04-.02l-.34-.01c-.42-.01-1.32-.03-2.7-.03a2.88 2.88 0 0 0-.45.04.03.03 0 0 0 0 .02l.06.3c0 .05.02.1.06.16.1.15.15.25.17.32l.23.66c-.03.18 0 .34.06.5L5 9 4.98 9v-.02c-.05-.33-.04-.61-.03-1.06a4.37 4.37 0 0 0-.04-.74.08.08 0 0 1 .04-.03c.36-.1.6-.09 1.11-.1a9 9 0 0 1 .7.03 19.08 19.08 0 0 0 1.68.07c.02 0 .02 0 .03.02l.12.37c0 .01.01.02.03.02.17.02.35.02.52 0a.4.4 0 0 0 .38-.32Z" fill="#BA0021"/><path d="m13.05 7.29-.24.57a1 1 0 0 1-.22.28v-.66c0-.02-.01-.03-.03-.03a78.67 78.67 0 0 1-2.99-.03v.4c0 .05-.02.08-.08.08a10 10 0 0 1-.93.03c-.08 0-.12-.05-.13-.12 0-.1 0-.18.02-.24 0 .02.01.03.03.04a6.98 6.98 0 0 0 1.03 0 .05.05 0 0 0 .02-.04l-.01-.33.57-.08c.2-.02.38-.03.58-.03a152.82 152.82 0 0 0 2.35-.02c.06.04.07.1.03.18ZM8.45 7.5c0-.02-.01-.04-.04-.06h-.07a13.67 13.67 0 0 1-2.93.01v.01a12.81 12.81 0 0 1 .03 1.18l-.22-.66a1.59 1.59 0 0 0-.17-.32.36.36 0 0 1-.06-.17 1.37 1.37 0 0 0-.06-.3.03.03 0 0 1 .01-.02h.01c.15-.03.29-.04.44-.03a134.11 134.11 0 0 1 3.07.06.05.05 0 0 1 0 .04l-.01.27Z" fill="#8F0019"/><path d="M13.05 7.29v1.65a.03.03 0 0 1-.02.03.04.04 0 0 1-.03 0h-.43l.02-.83a1 1 0 0 0 .22-.28c.06-.14.15-.33.24-.57Z" fill="#BA0021"/><path d="M13.02 9.17h.02v.04a.89.89 0 0 1-.72.33c-.6 0-1.23.02-1.9.06-.04 0-.05-.01-.04-.04l.01-.02h.02c.09-.02.19-.03.29-.03l1.64-.02c.28 0 .5-.11.68-.32ZM5.16 9.34c.23.12.5.17.81.16a20.36 20.36 0 0 1 1.71.04v.01c0 .02-.02.03-.03.03a.4.4 0 0 1-.05.02h-.03a21.4 21.4 0 0 0-1.8-.05.93.93 0 0 1-.69-.24c-.05-.05-.04-.06.02-.03 0 0 .02 0 .03.03l.03.03Z" fill="#F598BF"/><defs><linearGradient id="a" x1="3.35" y1="3.12" x2="21.9" y2="24.43" gradientUnits="userSpaceOnUse"><stop stop-color="#1A1E21"/><stop offset="1" stop-color="#06060A"/></linearGradient></defs></svg>