<!-- by TradingView --><svg width="18" height="18" viewBox="0 0 18 18" xmlns="http://www.w3.org/2000/svg"><path fill="#F0F3FA" d="M0 0h18v18H0z"/><path d="m4.86 12.35.39-.24v-3.8l-.4-.28v4.32Z" fill="#3D00A2"/><path d="m13.16 12.37-.41-.26v-3.8l.4-.3v4.36Z" fill="#CC512A"/><path d="M8.8 8.68 4.8 6.57l-.45.27 3.97 2.09v.62l.46-.33v-.54Z" fill="url(#ali1tqjqj)"/><path d="m9.2 8.68 3.99-2.11.45.27-3.97 2.09v.62l-.46-.33v-.54Z" fill="url(#bli1tqjqj)"/><path d="m8.34 9.54-.37.21-3.11-1.64v4.24l-.86-.4V7.08l.37-.26 3.97 2.08v.63Z" fill="url(#cli1tqjqj)"/><path d="m9.66 9.54.37.21 3.13-1.66v4.29l.84-.44V7.1l-.37-.26-3.97 2.08v.63Z" fill="url(#dli1tqjqj)"/><path d="m7.98 9.74.36-.2v-.63l-2.89-1.5-.18.26 2.71 1.51v.56Z" fill="url(#eli1tqjqj)"/><path d="m10.02 9.74-.36-.2v-.63l2.89-1.5.18.26-2.71 1.51v.56Z" fill="url(#fli1tqjqj)"/><path d="m5.7 10.18.81-.57 2.18 1.19v.61l-.78.47-.88-.47v.6l1.66.9v.57L7.9 14l-2.2-1.16v-2.65Z" fill="url(#gli1tqjqj)"/><path d="m6.13 9.88 2.17 1.14v.63l.39-.24v-.61L6.5 9.61l-.38.27Zm.9 1.54V12l1.66.9v.57l-.39.26v-.58l-1.65-.92v-1.08l.38.26Z" fill="url(#hli1tqjqj)"/><path d="m8.3 13.74-.39.25v-.6l-1.39-.74.18-.38 1.6.88v.59Zm0-2.1-.39.24H7.9v-.6l-1.38-.77.32-.26 1.46.76v.64Z" fill="url(#ili1tqjqj)"/><path d="M9.2 10.76v.58l.81.53 2.17-1.15V9.68l-.39-.26-2.58 1.34Z" fill="url(#jli1tqjqj)"/><path d="M9.6 11.6v-.57l2.58-1.35-.39-.26-2.58 1.34v.58l.4.26Z" fill="url(#kli1tqjqj)"/><path d="m12.18 10.13-2.17 1.12v.62l2.17-1.15v-.59Z" fill="url(#lli1tqjqj)"/><path d="M9.2 12.88v.58l.81.53 2.17-1.15v-1.03l-.39-.27-2.58 1.34Z" fill="url(#mli1tqjqj)"/><path d="M9.6 13.72v-.57l2.58-1.34-.39-.27-2.58 1.34v.58l.4.26Z" fill="url(#nli1tqjqj)"/><path d="m12.18 12.26-2.17 1.11V14l2.17-1.15v-.58Z" fill="url(#oli1tqjqj)"/><path d="M4.94 5.16v.89L9.06 8.2l4-2.16v-.8l-.46-.29-3.54 1.9-.5-.28 2.68-1.42v-.88l-.5-.3-3.5 1.9-.5-.3 2.7-1.45V3.3l-.5-.3-4 2.16Z" fill="url(#pli1tqjqj)"/><path d="m10.03 6.34.24.38 2.77-1.48-.44-.28-2.57 1.38Z" fill="url(#qli1tqjqj)"/><path d="M13.06 5.64 9.04 7.78 4.94 5.6v.43l4.12 2.17 4-2.17v-.4Z" fill="url(#rli1tqjqj)"/><path d="M9.45 3.7 6.36 5.37l.4.2 2.69-1.44V3.7Zm1.8 1L8.16 6.37l.4.2 2.67-1.41V4.7Z" fill="#0073D6"/><path d="M9.44 3.3 6.92 4.62l-.23-.4 2.25-1.23.5.31Zm-1.2 2.04.28.36 2.69-1.44-.46-.27-2.52 1.35Z" fill="url(#sli1tqjqj)"/><defs><linearGradient id="ali1tqjqj" x1="4.8" y1="6.76" x2="8.56" y2="9.2" gradientUnits="userSpaceOnUse"><stop stop-color="#6F00C3"/><stop offset="1" stop-color="#BD00F5"/></linearGradient><linearGradient id="bli1tqjqj" x1="13.2" y1="6.76" x2="9.44" y2="9.2" gradientUnits="userSpaceOnUse"><stop stop-color="#C94D28"/><stop offset="1" stop-color="#DE6B3A"/></linearGradient><linearGradient id="cli1tqjqj" x1="4" y1="8.31" x2="7.91" y2="8.17" gradientUnits="userSpaceOnUse"><stop stop-color="#9202CF"/><stop offset=".55" stop-color="#D64EAE"/><stop offset="1" stop-color="#F691B4"/></linearGradient><linearGradient id="dli1tqjqj" x1="14" y1="8.31" x2="10.09" y2="8.17" gradientUnits="userSpaceOnUse"><stop stop-color="#FE7115"/><stop offset=".55" stop-color="#FE9A37"/><stop offset="1" stop-color="#FFC377"/></linearGradient><linearGradient id="eli1tqjqj" x1="5.47" y1="7.74" x2="8.58" y2="9.25" gradientUnits="userSpaceOnUse"><stop stop-color="#BD31BB"/><stop offset="1" stop-color="#F85683"/></linearGradient><linearGradient id="fli1tqjqj" x1="12.53" y1="7.74" x2="9.42" y2="9.25" gradientUnits="userSpaceOnUse"><stop stop-color="#FF8B2B"/><stop offset="1" stop-color="#FFA429"/></linearGradient><linearGradient id="gli1tqjqj" x1="5.71" y1="11.59" x2="7.91" y2="11.81" gradientUnits="userSpaceOnUse"><stop stop-color="#BF27AF"/><stop offset=".36" stop-color="#CF34A2"/><stop offset="1" stop-color="#F790B3"/></linearGradient><linearGradient id="hli1tqjqj" x1="6.94" y1="12.42" x2="8.6" y2="11.03" gradientUnits="userSpaceOnUse"><stop stop-color="#5A00B5"/><stop offset="1" stop-color="#A000E3"/></linearGradient><linearGradient id="ili1tqjqj" x1="6.71" y1="12.25" x2="8.17" y2="12.31" gradientUnits="userSpaceOnUse"><stop stop-color="#D036A3"/><stop offset="1" stop-color="#FB5980"/></linearGradient><linearGradient id="jli1tqjqj" x1="12.12" y1="10.07" x2="9.78" y2="11.45" gradientUnits="userSpaceOnUse"><stop stop-color="#FE881E"/><stop offset="1" stop-color="#FFA529"/></linearGradient><linearGradient id="kli1tqjqj" x1="11.85" y1="9.57" x2="9.41" y2="11.47" gradientUnits="userSpaceOnUse"><stop stop-color="#D2592F"/><stop offset="1" stop-color="#DF6B3B"/></linearGradient><linearGradient id="lli1tqjqj" x1="12.06" y1="10.52" x2="10.03" y2="11.52" gradientUnits="userSpaceOnUse"><stop stop-color="#FE8A22"/><stop offset="1" stop-color="#FFC479"/></linearGradient><linearGradient id="mli1tqjqj" x1="12.12" y1="12.19" x2="9.78" y2="13.58" gradientUnits="userSpaceOnUse"><stop stop-color="#FE881E"/><stop offset="1" stop-color="#FFA529"/></linearGradient><linearGradient id="nli1tqjqj" x1="11.85" y1="11.69" x2="9.41" y2="13.59" gradientUnits="userSpaceOnUse"><stop stop-color="#D2592F"/><stop offset="1" stop-color="#DF6B3B"/></linearGradient><linearGradient id="oli1tqjqj" x1="12.06" y1="12.64" x2="10.03" y2="13.65" gradientUnits="userSpaceOnUse"><stop stop-color="#FE8A22"/><stop offset="1" stop-color="#FFC479"/></linearGradient><linearGradient id="pli1tqjqj" x1="5.34" y1="5.43" x2="13.06" y2="5.6" gradientUnits="userSpaceOnUse"><stop stop-color="#6EE3FA"/><stop offset=".66" stop-color="#2EC2EB"/><stop offset="1" stop-color="#5DC9EB"/></linearGradient><linearGradient id="qli1tqjqj" x1="10.29" y1="6.42" x2="12.91" y2="5.34" gradientUnits="userSpaceOnUse"><stop stop-color="#32C4EB"/><stop offset="1" stop-color="#00AADF"/></linearGradient><linearGradient id="rli1tqjqj" x1="4.94" y1="6.91" x2="13.06" y2="6.91" gradientUnits="userSpaceOnUse"><stop stop-color="#00A9DF"/><stop offset="1" stop-color="#0062D4"/></linearGradient><linearGradient id="sli1tqjqj" x1="10.06" y1="3.38" x2="7.36" y2="5.01" gradientUnits="userSpaceOnUse"><stop stop-color="#04ADE0"/><stop offset="1" stop-color="#61DCF6"/></linearGradient></defs></svg>