<!-- by TradingView --><svg width="18" height="18" viewBox="0 0 18 18" xmlns="http://www.w3.org/2000/svg"><path fill="url(#axpwgydlv)" d="M0 0h18v18H0z"/><path d="M6.23 5.96c.2.28.5.58.9.76a3.74 3.74 0 0 0-1.7 3.16c0 2.05 1.6 3.7 3.57 3.7a3.64 3.64 0 0 0 3.57-3.7c0-1.37-.71-2.56-1.78-3.2.32-.19.62-.48.78-.85a5 5 0 0 1 1.76 1.77.89.89 0 0 0-.76.87c0 .49.4.88.9.88a.9.9 0 0 0 .46-.13 4.9 4.9 0 0 1-.09 2.08.9.9 0 0 0-1.45.69c0 .43.32.79.74.86a5 5 0 0 1-1.64 1.5.89.89 0 0 0-.88-.76c-.5 0-.9.4-.9.88 0 .17.05.33.13.46a5.1 5.1 0 0 1-2-.06.89.89 0 0 0-.8-1.28.9.9 0 0 0-.84.57 5 5 0 0 1-1.38-1.38.88.88 0 0 0-.46-1.64.9.9 0 0 0-.23.03 4.89 4.89 0 0 1-.06-1.94.9.9 0 0 0 1.36-.75.89.89 0 0 0-.77-.87c.39-.66.93-1.23 1.57-1.65Z" fill="#FFFFFD"/><path d="M5.79 10.06c0-.88.35-2 .71-2.47-.36 1.06-.18 1.76.18 1.76s.9-.7.9-1.4c0-.71-.37-1.24-.37-1.77 0-.43.24-.89.36-1.06-.06.3.07 1.02.36 1.59C8.29 7.4 9 8.1 9 9.35c0 .7-.18.89-.9 1.6-.56.56-.89.87-.89 1.76a3.83 3.83 0 0 1-1.42-2.65ZM9.36 4.94c0-.7.35-1.06.71-1.23-.18.35-.36.6-.36.88 0 .35.54 1.06.72 1.23.26.26.06.53 0 .7-.54-.17-1.07-.87-1.07-1.58Z" fill="#F60"/><path d="M9.36 9.35c0-1.59-1.2-2.64-1.4-3.88C7.8 4.48 8.55 3.53 9 3c-.2.53-.42 1-.27 1.76.39 1.95 3.48 2.48 3.48 5.3 0 2.12-2.03 3.18-3.28 3.18-.47 0-1.17-.24-1.36-.36v-.35c0-1.06 1.79-1.59 1.79-3.18Z" fill="#F4129A"/><defs><linearGradient id="axpwgydlv" x1="3.35" y1="3.12" x2="21.9" y2="24.43" gradientUnits="userSpaceOnUse"><stop stop-color="#1A1E21"/><stop offset="1" stop-color="#06060A"/></linearGradient></defs></svg>