<!-- by TradingView --><svg width="18" height="18" viewBox="0 0 18 18" xmlns="http://www.w3.org/2000/svg"><path fill="#070B48" d="M0 0h18v18H0z"/><path fill-rule="evenodd" d="M9 14.3A5.3 5.3 0 1 0 9 3.7a5.3 5.3 0 0 0 0 10.6Zm0 .7A6 6 0 1 0 9 3a6 6 0 0 0 0 12Z" fill="url(#asjqak4z2)"/><path d="M8.74 6 8 6.73V8l1.3-1.27h1.1l-.73.72H9.3L8.74 8h2.6l-.75 1.27H8.74L8 10h3.33L13 7.45h-2.04L12.44 6h-3.7Z" fill="#fff"/><path d="m6.28 6.56.6.6v.5l-.45-.45-.93 2.63 1.85 2 .27-.72H8l-.52 1.39-2.39-2.59 1.19-3.36Zm1.76 4.56-.55 1.46 3.58-.6.3-.86h-.38l-.18.55-2.77.46.38-1.01h-.38Z" fill="url(#bsjqak4z2)"/><defs><linearGradient id="asjqak4z2" x1="3.18" y1="9.35" x2="14.82" y2="9.35" gradientUnits="userSpaceOnUse"><stop stop-color="#0387FA"/><stop offset="1" stop-color="#01FEFF"/></linearGradient><linearGradient id="bsjqak4z2" x1="6" y1="7.41" x2="11.12" y2="11.82" gradientUnits="userSpaceOnUse"><stop stop-color="#11F6FC"/><stop offset="1" stop-color="#017EF2"/></linearGradient></defs></svg>