<!-- by TradingView --><svg width="18" height="18" viewBox="0 0 18 18" xmlns="http://www.w3.org/2000/svg"><path fill="url(#a)" d="M0 0h18v18H0z"/><path d="M9.01 4.29c0-.06.01-.06.03 0v.1a1737.98 1737.98 0 0 1 .03 1.46 3.02 3.02 0 0 1 2.08.87h.02l1.28-1.28v-.03a.33.33 0 0 0-.07-.09l-.18-.15-.35-.27a5.11 5.11 0 0 0-2.64-.89 4.11 4.11 0 0 0-1.64.2c-.18.06-.36.1-.52.18l-.44.22c-.17.08-.35.18-.53.32l-.3.24-.22.18a4.69 4.69 0 0 0-.86 1.06 4.33 4.33 0 0 0-.68 2.53h1.95c.02 0 .02 0 .02-.02V8.6a2.9 2.9 0 0 1 .75-1.71L5.46 5.6c-.04-.04-.04-.09 0-.13l.02-.04c.04-.05.07-.05.11-.01l1.28 1.28a.02.02 0 0 0 .03 0l.25-.22c.3-.22.56-.38.87-.48.33-.1.63-.18.96-.16.02 0 .04-.01.04-.04V4.3Z" fill="url(#b)"/><path d="M11.73 7.63c.18.4.27.85.28 1.28 0 .02.01.03.03.03H14a.02.02 0 0 0 0-.02 4.82 4.82 0 0 0-1.34-3.32.03.03 0 0 0-.01 0 .03.03 0 0 0-.02 0l-1.27 1.27a.08.08 0 0 0 0 .1c.15.22.28.43.38.66Z" fill="url(#c)"/><path d="M9.02 8.76h.01a.02.02 0 0 0 .02-.02 76.16 76.16 0 0 0 0-2.82V5.9a.03.03 0 0 1 .03-.02 3.1 3.1 0 0 1 2 .9.05.05 0 0 1 0 .04L9.02 8.86c-.01.02-.02.01-.03 0a191.48 191.48 0 0 1-2.05-2.08v-.03l.19-.17c.19-.14.34-.25.45-.3.43-.26.9-.38 1.4-.38.01 0 .02 0 .02.03V8.76Z" fill="url(#d)"/><path d="M6.76 6.97a2.6 2.6 0 0 0-.66 1.45l-.02.14a263.66 263.66 0 0 1 .01.37.03.03 0 0 0 .01 0h2.68L6.82 6.97c-.02-.02-.04-.02-.06 0Z" fill="url(#e)"/><path d="M11.89 8.94H9.3a.01.01 0 0 1 0-.02l1.94-1.94h.04l.16.23c.33.5.5 1.06.5 1.68 0 .03-.02.05-.05.05Z" fill="url(#f)"/><path d="m6.05 9.04.02.02.01.03c0 .14 0 .24.03.32.02.07.04.14.04.2l.01.03c.03.04.03.08.03.12a7.98 7.98 0 0 0 .15.42 6.55 6.55 0 0 0 .56.77h.03l.1-.1a137.3 137.3 0 0 0 1.84-1.83.1.1 0 0 0-.05-.04.04.04 0 0 0-.02 0 210.53 210.53 0 0 1-2.74.04v.02Z" fill="url(#g)"/><path d="M9.36 9a528.68 528.68 0 0 0 2.55 0c.02 0 .03.02.03.05-.04.7-.3 1.38-.77 1.9h-.05L9.18 9V9h.1l.08.01Z" fill="url(#h)"/><path d="M12 9.14a3.02 3.02 0 0 1-.8 1.88l.02.03 1.38 1.38a.02.02 0 0 0 .03 0c.1-.1.2-.23.28-.34l.06-.07c.4-.5.68-1.07.84-1.7.11-.42.18-.85.19-1.29 0-.02 0-.03-.03-.03H12l-.01.02v.12Z" fill="url(#i)"/><path d="M4 9.04a4.8 4.8 0 0 0 1.2 3.2c.07.1.13.15.18.17.02.03.03.04.04.03a20797.02 20797.02 0 0 1 1.4-1.38h.01v-.01a2.9 2.9 0 0 1-.84-2.01c0-.02 0-.03-.03-.03H4.01L4 9.05Z" fill="url(#j)"/><path d="M8.39 11.78a2.88 2.88 0 0 1-.99-.43l-.19-.13-.03-.01c-.06 0-.1-.03-.1-.07a.03.03 0 0 1 0-.04L9 9.2c0-.02.01-.02.01 0v2.68a.02.02 0 0 1-.02.02.5.5 0 0 0-.2-.05l-.2-.02-.2-.05Z" fill="url(#k)"/><path d="M9.1 11.87c.7-.04 1.32-.28 1.87-.71v-.04L9.1 9.25c-.02-.02-.04-.02-.04.02v2.57c0 .02.02.04.04.03Z" fill="url(#l)"/><path d="M12.32 12.71c-.31.3-.65.54-1.03.74a5.04 5.04 0 0 1-2.23.52c.02-.04.02-.07.01-.1v-.04A1085.18 1085.18 0 0 1 9.08 12a2.86 2.86 0 0 0 1.62-.53l.2-.15.1-.1c.03-.02.05-.02.06 0l1.38 1.38a.02.02 0 0 1 .01 0 .02.02 0 0 1 0 .03.02.02 0 0 1-.01 0 .8.8 0 0 0-.12.1Z" fill="url(#m)"/><path d="M6.96 11.23 5.6 12.61c0-.01 0-.02-.02-.02v.03c.07.1.16.2.29.3a5.04 5.04 0 0 0 3.16 1.06L9 12.03c0-.04-.01-.06-.04-.06a3.5 3.5 0 0 1-.66-.07 3.46 3.46 0 0 1-1.34-.68Z" fill="url(#n)"/><defs><linearGradient id="a" x1="3.35" y1="3.12" x2="21.9" y2="24.43" gradientUnits="userSpaceOnUse"><stop stop-color="#1A1E21"/><stop offset="1" stop-color="#06060A"/></linearGradient><linearGradient id="b" x1="5.58" y1="12.63" x2="11.13" y2="4.86" gradientUnits="userSpaceOnUse"><stop offset=".04" stop-color="#40490D"/><stop offset=".43" stop-color="#9EB420"/><stop offset=".65" stop-color="#D8E87D"/><stop offset="1" stop-color="#E8F1B1"/></linearGradient><linearGradient id="c" x1="5.58" y1="12.63" x2="11.13" y2="4.86" gradientUnits="userSpaceOnUse"><stop offset=".65" stop-color="#D8E87D"/><stop offset="1" stop-color="#E8F1B1"/></linearGradient><linearGradient id="d" x1="5.58" y1="12.63" x2="11.13" y2="4.86" gradientUnits="userSpaceOnUse"><stop offset=".43" stop-color="#9EB420"/><stop offset=".65" stop-color="#D8E87D"/><stop offset="1" stop-color="#E8F1B1"/></linearGradient><linearGradient id="e" x1="5.58" y1="12.63" x2="11.13" y2="4.86" gradientUnits="userSpaceOnUse"><stop offset=".04" stop-color="#40490D"/><stop offset=".43" stop-color="#9EB420"/><stop offset=".65" stop-color="#D8E87D"/></linearGradient><linearGradient id="f" x1="5.58" y1="12.63" x2="11.13" y2="4.86" gradientUnits="userSpaceOnUse"><stop offset=".43" stop-color="#9EB420"/><stop offset=".65" stop-color="#D8E87D"/><stop offset="1" stop-color="#E8F1B1"/></linearGradient><linearGradient id="g" x1="5.58" y1="12.63" x2="11.13" y2="4.86" gradientUnits="userSpaceOnUse"><stop offset=".04" stop-color="#40490D"/><stop offset=".43" stop-color="#9EB420"/><stop offset=".65" stop-color="#D8E87D"/></linearGradient><linearGradient id="h" x1="5.58" y1="12.63" x2="11.13" y2="4.86" gradientUnits="userSpaceOnUse"><stop offset=".43" stop-color="#9EB420"/><stop offset=".65" stop-color="#D8E87D"/><stop offset="1" stop-color="#E8F1B1"/></linearGradient><linearGradient id="i" x1="5.58" y1="12.63" x2="11.13" y2="4.86" gradientUnits="userSpaceOnUse"><stop offset=".43" stop-color="#9EB420"/><stop offset=".65" stop-color="#D8E87D"/><stop offset="1" stop-color="#E8F1B1"/></linearGradient><linearGradient id="j" x1="5.58" y1="12.63" x2="11.13" y2="4.86" gradientUnits="userSpaceOnUse"><stop offset=".04" stop-color="#40490D"/><stop offset=".43" stop-color="#9EB420"/></linearGradient><linearGradient id="k" x1="5.58" y1="12.63" x2="11.13" y2="4.86" gradientUnits="userSpaceOnUse"><stop offset=".04" stop-color="#40490D"/><stop offset=".43" stop-color="#9EB420"/><stop offset=".65" stop-color="#D8E87D"/></linearGradient><linearGradient id="l" x1="5.58" y1="12.63" x2="11.13" y2="4.86" gradientUnits="userSpaceOnUse"><stop offset=".04" stop-color="#40490D"/><stop offset=".43" stop-color="#9EB420"/><stop offset=".65" stop-color="#D8E87D"/></linearGradient><linearGradient id="m" x1="5.58" y1="12.63" x2="11.13" y2="4.86" gradientUnits="userSpaceOnUse"><stop offset=".04" stop-color="#40490D"/><stop offset=".43" stop-color="#9EB420"/><stop offset="1" stop-color="#E8F1B1"/></linearGradient><linearGradient id="n" x1="5.58" y1="12.63" x2="11.13" y2="4.86" gradientUnits="userSpaceOnUse"><stop offset=".04" stop-color="#40490D"/><stop offset=".43" stop-color="#9EB420"/></linearGradient></defs></svg>