<!-- by TradingView --><svg width="18" height="18" viewBox="0 0 18 18" xmlns="http://www.w3.org/2000/svg"><path fill="#0A418D" d="M0 0h18v18H0z"/><path d="M3 9.5C3 8.12 4.1 7 5.48 7h9.04c.27 0 .48.22.48.48v4.04c0 .26-.21.48-.48.48H5.48A2.49 2.49 0 0 1 3 9.5Z" fill="#C12121"/><path d="M15 10v1.55c0 .25-.21.45-.48.45h-8.5c.78-.21 1.79-.81 1.93-2H15Z" fill="#333435"/><path fill-rule="evenodd" d="M5.55 11.7c1.24 0 2.25-.98 2.25-2.2 0-1.22-1-2.2-2.25-2.2-1.24 0-2.25.98-2.25 2.2 0 1.22 1 2.2 2.25 2.2Zm0-.3c1.08 0 1.95-.85 1.95-1.9 0-1.04-.87-1.89-1.95-1.89s-1.95.85-1.95 1.9c0 1.04.87 1.88 1.95 1.88Z" fill="#fff"/><path d="M10.18 9.47H8l.16-.17a.31.31 0 0 1 .25-.12h1.26l-.12-.77a.13.13 0 0 0-.13-.12H9.3a.13.13 0 0 0-.11.07l-.23.36a.31.31 0 0 1-.27.16h-.29l.5-.74A.31.31 0 0 1 9.15 8h.52c.15 0 .28.11.3.27l.21 1.2ZM10.31 8.23a.3.3 0 0 1 .3-.23h.25l-.15.59h.74l.1-.36a.3.3 0 0 1 .3-.23h.24l-.38 1.47h-.49l.14-.59h-.97a.21.21 0 0 1-.2-.26l.12-.4ZM14 8h-1.45c-.2 0-.4.12-.46.3h1.36l-.02.17-.78.32-.21.68h.48l.16-.5.76-.3L14 8Z" fill="#fff"/><path d="M6.95 5.23v.42l-.46-.13-.31-.1a.45.45 0 0 0-.14-.01 1.1 1.1 0 0 1-.47-.03h-.09l-.29.01.48-.28h.01l.15-.06A1.62 1.62 0 0 1 5.94 5l.11.03c.1.07.22.12.34.14h.02l.04-.01h.03l.47.07Z" fill="#A27953"/><path d="M7.73 5.74a1.34 1.34 0 0 1-.26-.02.5.5 0 0 1-.13 0 .96.96 0 0 0-.13-.03.88.88 0 0 1-.25-.04l-.01-.42.33.13c.06.03.12.07.16.15.03.06.07.1.14.11.03.01.08.05.15.12Z" fill="#C9A074"/><path d="M6.18 5.42h-.12l-.01.01v.01a1.1 1.1 0 0 0 .47.12v-.02l-.03-.02.47.13c.08.03.16.04.25.04l.13.03h.15c.08.02.16.02.24.02.07.04.13.09.18.14l.08.09H8V6h-.01l-.01.01a.02.02 0 0 1-.02 0l-.13-.1c-.05-.05-.1-.06-.17-.03h-.02l-.1-.02-.03-.01c-.02-.02-.04-.02-.07-.01l-.01.01v.02c.06.05.13.12.14.18v.01l-.01.01a.02.02 0 0 1-.02 0 .2.2 0 0 0-.08-.04.03.03 0 0 0-.02.01h-.01v.02l.01.06a.01.01 0 0 1 0 .01v.01c-.03 0-.05.03-.07.06l-.01.01h-.02l-.03-.02-.01-.02-.06-.03a.03.03 0 0 0-.02 0H7.2v.02c0 .04.04.08-.03.1H7.1c-.05.04-.06.08-.04.12-.12-.07-.15-.12-.08-.13a.16.16 0 0 0 .02-.08v-.01l-.02-.01-.01-.01h-.02a.4.4 0 0 1-.14 0c-.17-.04-.4-.04-.56-.07-.17-.04-.37-.08-.48-.17a.9.9 0 0 0-.14-.1l.22.07h.01v-.01a2.02 2.02 0 0 1-.2-.14.47.47 0 0 0-.2-.1 39.05 39.05 0 0 1-.32-.05 1.76 1.76 0 0 1-.43.07v-.01l.04-.06c.05-.03.14-.06.27-.08a.4.4 0 0 0 .18-.1l.3-.01h.08l.14.03c.11.02.2.01.33 0h.14Z" fill="#895F42"/><path d="M6.97 6.25v-.09h-.02a.12.12 0 0 0-.06.03 1.17 1.17 0 0 0-.29-.06c-.28-.01-.47-.07-.79-.15a.86.86 0 0 0-.2-.03c-.08 0-.14-.04-.16-.1l-.01-.02H5.4l-.01.01-.33.5v.02l.01.01h.01l.19-.13h.03v.02l-.03.14h.01c.01 0 .03 0 .07-.03.1-.05.22-.05.33 0l.18.1c.12.03.25.05.38.05h.03l.02.05h-.01a.06.06 0 0 0-.02-.03h-.02l-.21-.02c-.16-.02-.3-.06-.44-.1a.4.4 0 0 0-.2 0c-.06.02-.13.08-.19.1a.26.26 0 0 1-.07.02c-.05 0-.1 0-.14.02-.1.08-.07.22.02.3h.02a.6.6 0 0 1 .13.07c.07.05.14.12.21.16a.5.5 0 0 0 .26.04c.14-.04.26-.07.35-.08.03 0 .05.01.06.04v.02a.52.52 0 0 1-.22.18c-.28.14-.47-.04-.72-.13l.23.11v.01h-.01c-.12-.06-.2-.1-.26-.1-.18-.04-.27-.05-.37-.11l-.02-.02v-.02l.09-.25c.02-.11.02-.3.05-.4.08-.2.11-.28.14-.46V5.9H4.9l-.21.07h-.02a.91.91 0 0 0-.08.2c-.07.18-.22.36-.37.5a.9.9 0 0 0-.08.09c-.06.07-.1.11-.08.2v.01h-.11c-.12-.02-.2.05-.3.1.06-.08.12-.16.22-.17l.02-.01v-.02c0-.07.02-.14.04-.2.02-.08.02-.12 0-.2-.01-.05 0-.09.01-.14a.1.1 0 0 0 0-.04c0-.05 0-.2.06-.24.13-.12.26-.1.45-.18v-.02l-.02-.01-.01-.02V5.8l.01-.01.1-.06.01-.02c.03-.08.1-.12.19-.14l-.04.06v.01h.08a1.76 1.76 0 0 0 .38-.08l.3.06c.06.02.13.05.2.1a2.02 2.02 0 0 0 .19.15h-.01l-.22-.07a.9.9 0 0 1 .14.1c.1.1.31.13.48.17.16.03.39.03.56.07a.4.4 0 0 0 .14 0 .04.04 0 0 1 .03 0l.01.02v.01l-.01.08Z" fill="#724B35"/><path d="M6.9 6.2a.15.15 0 0 1-.1.02 3.62 3.62 0 0 0-.2-.03.1.1 0 0 0-.08.03v.02c.03.11.1.23.23.26.18.05.38 0 .4.23-.02-.09-.09-.14-.18-.16a3.7 3.7 0 0 1-.33-.08l-.17-.1a.29.29 0 0 0-.06.2c0 .05.03.1.08.14l.03.06v.01l-.02-.02h-.01v.01l.01.03-.08-.09-.12-.25h-.02a.92.92 0 0 1-.5-.07h-.01v.01a1.1 1.1 0 0 0 .5.1h.02l.05.1-.05-.05a.08.08 0 0 0-.02-.04l-.03-.01c-.13 0-.26-.02-.38-.06-.07-.02-.12-.06-.18-.09a.35.35 0 0 0-.33 0 3.1 3.1 0 0 1-.08.03l.03-.14v-.02a.02.02 0 0 0-.03 0l-.19.13a.02.02 0 0 1-.02 0v-.02l.33-.51.01-.01a.04.04 0 0 1 .04 0v.02c.03.06.09.1.17.1.07 0 .13 0 .2.03.32.08.51.14.79.15.06 0 .16.02.3.06Z" fill="#895F42"/><path d="m6.03 6.52.04.01v.01h-.05v.01l.23.04v-.01c0-.03-.02-.04-.06-.04.04 0 .06 0 .09.03h.01l.05.04.08.12.08.1-.01-.04h.01a.2.2 0 0 1 .02.01v-.01a5.45 5.45 0 0 1 .07.1c.06.09.14.12.23.16a2.46 2.46 0 0 0 .34.22c.08.09.18.14.3.16 0 .1-.05.18-.14.24a.4.4 0 0 1-.23.07v.01l.03.07v.26a.8.8 0 0 1-.07.31c-.02.05 0 .07.03.1l.06.07-.18.04-.01-.01-.02-.07a.06.06 0 0 0-.02-.03 2.27 2.27 0 0 0-.1-.07h-.04v.01c-.02.05.06.12.11.18l.02.02.04.07.03.04v.05a.48.48 0 0 1-.26.2L6.49 9h-.01v.01l.02.02a.54.54 0 0 0-.13.22.35.35 0 0 1-.03.08.7.7 0 0 0-.11.27 5.25 5.25 0 0 1-.07.33l.02-.43-.05.13c-.01.03-.03.04-.04.04a.01.01 0 0 1-.01 0c-.02-.12.02-.35-.19-.34-.06.01-.1.03-.14.06a.3.3 0 0 1-.13.07v-.02l.09-.08.14-.1v-.01l.06-.12v-.02l-.02-.02a17.32 17.32 0 0 0-.57-.2.89.89 0 0 1-.35-.18l-.02-.01h-.07c.01-.01 0-.03-.01-.05a.31.31 0 0 1-.1-.19v-.02a.46.46 0 0 0-.12-.15.88.88 0 0 0-.2-.08.73.73 0 0 1-.2-.2L4.22 8h-.02A.56.56 0 0 1 4 7.9a.44.44 0 0 0-.16-.14.1.1 0 0 1-.02-.02l-.14-.16c-.1-.08-.08-.18-.08-.28v-.08c0-.07.03-.14.07-.2.1-.05.17-.07.28-.06a1.3 1.3 0 0 0 .12 0c-.02-.09.02-.13.08-.2a.9.9 0 0 1 .08-.09c.15-.14.3-.32.37-.5a.91.91 0 0 1 .08-.2h.02l.21-.08a.03.03 0 0 1 .03 0v.03c-.02.18-.05.25-.13.47-.03.1-.03.28-.05.39a1.56 1.56 0 0 1-.09.27l.02.02c.1.06.2.07.37.1a1.14 1.14 0 0 1 .26.11h.01v-.01l-.23-.1v-.01c.25.09.44.27.72.13.1-.04.16-.1.21-.18V7.1c0-.03-.02-.04-.05-.04a1.51 1.51 0 0 0-.37.09.5.5 0 0 1-.24-.05c-.07-.04-.14-.1-.2-.16a.6.6 0 0 0-.14-.07H5c-.09-.08-.13-.22-.02-.3.03-.02.09-.02.14-.02l.07-.02c.06-.02.13-.08.2-.1a.4.4 0 0 1 .19 0c.14.04.28.08.44.1Z" fill="#4A2A20"/><path d="M6.97 6.25c-.07.01-.04.06.08.13.14.1.19.25.15.43a.14.14 0 0 0-.04.03h-.02l.02-.1c-.03-.24-.23-.2-.4-.24-.15-.03-.21-.15-.25-.26v-.02a.1.1 0 0 1 .09-.03l.2.03c.03 0 .06 0 .1-.03a.12.12 0 0 1 .05-.04.02.02 0 0 1 .02 0v.1Z" fill="#A27953"/><path d="m7.16 6.73-.03.1.01.01h.01a.14.14 0 0 1 .05-.03c-.02.04-.07.09-.14.13l-.3-.23a.1.1 0 0 0-.04-.02l-.25-.12-.04-.1.04-.09.17.11a3.7 3.7 0 0 0 .33.08c.1.02.16.07.19.16Z" fill="#724B35"/><path d="m6.47 6.38-.04.08v.01l.03.1.26.12c.04.12.12.23.24.31l.13.12-.1-.07a1.02 1.02 0 0 0 .2.23v.01h-.01l-.02-.01a2.45 2.45 0 0 1-.34-.23c-.1-.04-.17-.07-.22-.16a5.47 5.47 0 0 0-.19-.3c0-.07.01-.14.06-.2Z" fill="#A27953"/><path d="M6.72 6.7a.1.1 0 0 1 .05.01c.01.06.04.11.09.15.14.14.24.21.36.36l-.13-.1A.78.78 0 0 0 6.96 7a.66.66 0 0 1-.24-.3Z" fill="#C9A074"/><path d="m6.77 6.71.29.23c.04.04.1.08.19.12l.16.13c.05.05.07.11.07.2l-.02.04a.56.56 0 0 1-.3-.15l.02.01h.01v-.01a1.02 1.02 0 0 1-.2-.23l.1.07.12.1h.01C7.1 7.07 7 7 6.86 6.86a.29.29 0 0 1-.1-.15Z" fill="#D6887D"/><path d="M6.13 9.64c.02.06.03.12.02.18a14.43 14.43 0 0 0-.07.7.65.65 0 0 0 .02.42.51.51 0 0 1-.1-.15l.08-.38c.02-.13.03-.28-.1-.37.03 0 .05-.02.05-.04v-.02l-.1-.05.09.02h.01a.43.43 0 0 0-.1-.48h-.01l-.38.04c-.03 0-.1 0-.17-.02a.48.48 0 0 1-.1-.18.05.05 0 0 0-.02-.03.13.13 0 0 1-.04-.06.25.25 0 0 0-.05-.07c-.05-.06-.09-.1-.1-.13a.94.94 0 0 1-.14-.31h.03l.02.01c.1.09.22.15.35.19a3.23 3.23 0 0 1 .59.23l-.05.12h-.01l-.14.1-.09.1a.3.3 0 0 0 .13-.06.23.23 0 0 1 .14-.06c.21-.01.17.22.18.33v.01h.01a.01.01 0 0 0 .01 0c.01 0 .03-.01.04-.04Z" fill="#5E5953"/><path d="M4.88 8.71h.04a.94.94 0 0 0 .24.44l.05.07c0 .03.02.05.04.06l.02.03c.01.04.05.14.1.18.06.06.1.1.12.15.07.11.14.27.21.47.04.1.1.2.13.3l.08.2.09.18c.02.05.05.1.1.15l.15.3v.02l-.02.08a2.76 2.76 0 0 1-.78.1c-.16-.03-.31-.05-.46-.1a1.96 1.96 0 0 1-1.02-.66 1.6 1.6 0 0 1-.34-1.18.01.01 0 0 1 .01 0h.02l.16-.05.37-.14c.1-.04.2-.12.27-.18.1-.08.24-.1.31-.22l.1-.2Z" fill="#191A1F"/><path d="m6.7 8.99.12.35.02.18.06.18v.02l.03.06v.02a4.58 4.58 0 0 1-.04.96c0 .07-.01.13-.05.2l-.04.02a1.28 1.28 0 0 1-.04-.35v-.02a3.25 3.25 0 0 0-.03-.63l.09.03h.01l.01-.02c0-.02.01-.04 0-.07v-.01h-.01c-.03-.02-.06-.01-.1 0a.89.89 0 0 0-.18-.43v-.02a.01.01 0 0 1 .02 0c.06.07.13.14.22.19a.04.04 0 0 0 .03 0l.01-.01v-.02s0-.02-.02-.02a.06.06 0 0 1-.03-.03l-.1-.21v-.02a.32.32 0 0 1-.04-.08.07.07 0 0 0-.02-.03.3.3 0 0 1-.07-.08.24.24 0 0 0-.05-.1.06.06 0 0 1-.02-.03V9l.23-.02Z" fill="#B7B2AD"/><path d="m6.5 9.04.05.11.04.27h-.01a.32.32 0 0 0-.1-.1v.08l-.06-.06-.02-.01h-.03V9.48c.02.3.05.6.1.88.02.1.05.18.09.27l.04.1c.03.12.04.23.2.26l.04-.03c.03.02.06.02.1.03a2 2 0 0 1-.71.36l.02-.08v-.02l-.15-.3a.65.65 0 0 1-.02-.42l.02-.16.05-.54c.01-.06 0-.12-.02-.18l.04-.13h.01l-.02.43h.01l.06-.33a.7.7 0 0 1 .11-.27l.03-.08a.53.53 0 0 1 .13-.22Z" fill="#78101C"/><path d="M6.55 9.48 6.5 9.4l-.02-.07v-.01a.01.01 0 0 1 .02 0 .32.32 0 0 1 .09.1l-.03-.27a.3.3 0 0 0 .07.08l.02.03a.32.32 0 0 0 .05.1l.09.2c0 .02.02.03.03.04.02 0 .03.01.03.02v.02h-.02a.03.03 0 0 1-.03 0 .63.63 0 0 1-.22-.19.01.01 0 0 0-.01 0v.03Z" fill="#5E5953"/><path d="M7.55 9.95c-.07.4-.28.75-.62 1.03a.27.27 0 0 1-.09-.03.33.33 0 0 0 .05-.19v-.02c.02-.1.04-.19.04-.28a4.58 4.58 0 0 0-.03-.76.87.87 0 0 1-.06-.18l-.02-.18c.1.07.18.17.22.29l.03.03c.04.04.08.06.11.06a1.72 1.72 0 0 1 .31.12v.01h.01c.04.03.06.06.05.1Z" fill="#31363F"/><path d="m5.94 9.93-.12-.04H5.8v.02c.05.07.12.1.19.13.12.09.1.24.09.37l-.08.38a11.6 11.6 0 0 0-.17-.38c-.03-.1-.09-.2-.13-.3-.07-.2-.14-.36-.2-.47a.64.64 0 0 0-.13-.15c.08.02.14.03.17.02a37.56 37.56 0 0 1 .4-.03.43.43 0 0 1 .09.47.01.01 0 0 1-.01 0l-.08-.02Z" fill="#86827C"/><path d="m5.94 9.93.09.05V10c0 .02-.02.03-.04.04-.07-.04-.14-.06-.19-.13a.01.01 0 0 1 0-.01h.01l.13.03Z" fill="#31363F"/><path d="M6.73 9.98v-.07c.04-.01.07-.02.1 0h.01v.01c.01.03 0 .05 0 .07V10h-.02c-.03.01-.06 0-.1-.02Z" fill="#2D2E2F"/><path d="M6.38 5.6c.07.03.11.05.14.08l.16.13.1.14v.02a.56.56 0 0 1-.35.03 2.27 2.27 0 0 1-.67-.24l-.3-.18v-.03l.02-.02c.24-.09.43-.02.73.05a1.13 1.13 0 0 1 .31.12v-.01h.01l-.15-.08Z" fill="#582716"/><path d="M5.54 6.16h-.01c.07-.12.32-.07.42-.04l.12.03a2.44 2.44 0 0 1 .39.08v.02c0 .06-.03.1-.1.1-.06.01-.12.07-.17.08-.13.04-.24.03-.36-.06a3.32 3.32 0 0 0-.28-.2h-.01Z" fill="#A27953"/><path d="M5.85 6.55v-.01l.26.04c.08.02.13.06.15.14h-.02c-.02-.06-.06-.1-.12-.11-.12-.02-.2-.02-.28-.05h.01Z" fill="#582716"/><path d="M6.18 6.64h.01l.01.01v.02c-.03.14-.14.2-.28.25a.03.03 0 0 1-.02 0l-.01-.02c-.02-.11-.05-.22-.15-.3v-.02l.44.06ZM5.82 6.78l-.07.1h-.06l-.06-.04-.01-.01v-.01l.01-.12c.08 0 .14.02.19.08Z" fill="#191A1F"/><path d="M5.63 6.7a.29.29 0 0 0-.01.12v.02l.07.04h.13c.02.01.01.02 0 .01l-.01.01v.01h-.02a.46.46 0 0 1-.3-.07v-.1l.01-.01a.3.3 0 0 1 .13-.03Z" fill="#5E5953"/><path d="M5.5 6.84c.08.05.17.08.29.07h.01c0-.02.01-.02.02-.02s.02 0 0 0l-.03-.01h-.04l.07-.1.03.16v.02l-.07.03h-.03c-.16 0-.26-.04-.4-.08V6.9l.15-.06Z" fill="#724B35"/><path d="M6.16 7.16v-.02h-.01c-.07.02-.1.05-.1.1v.01h.01l.02.01h.01v.02l-.03.01a.03.03 0 0 1-.03 0h-.01v-.02a.22.22 0 0 1 .18-.17v.01h.01V7.17l-.09.06a.03.03 0 0 1-.03 0l-.01-.01V7.2l.08-.04Z" fill="#582716"/><path d="m6.86 7.68-.29-.02-.31-.1v-.01l.28-.02.32.13v.01Z" fill="#191A1F"/><path d="m5.32 7.6-.04.15a4.1 4.1 0 0 0-.16.38.03.03 0 0 1-.02 0l-.07-.03A.04.04 0 0 1 5 8.08v-.03c.05-.18.1-.36.3-.47a.02.02 0 0 1 .01 0v.01Z" fill="#724B35"/><path d="m6.68 8 .13.01.1-.07c.01.02.02.02.03.01v-.2h-.01c0 .08-.04.15-.1.2.07-.07.1-.15.1-.25.01-.02.03-.02.05.01l.05.23v.08a.02.02 0 0 1-.03 0 6.54 6.54 0 0 0-.17 0L6.69 8Z" fill="#A27953"/><path d="m6.8 8.01.04-.06a.28.28 0 0 0 .1-.2v.2c-.01.01-.02 0-.02-.01H6.9L6.8 8Z" fill="#895F42"/><path d="M5.2 10c.02.02.03.03.05.03l.02.01.01.02v.02l-.01.02-.08.05a.04.04 0 0 1-.04 0l-.15-.1-.01-.01v-.02l.02-.01.17-.01h.03Z" fill="#5E5953"/><path d="M5.58 6.14h-.01v-.02h.01l.23.01h.02l.45.11.01.05v.01l-.01-.05h-.01l-.01-.01-.23-.04v.01l.23.05.02.01-.01.07h-.01l-.16.06a.02.02 0 0 1-.02 0c-.12-.12-.2-.2-.36-.24l-.14-.02Z" fill="#C9A074"/></svg>