<!-- by TradingView --><svg width="18" height="18" viewBox="0 0 18 18" xmlns="http://www.w3.org/2000/svg"><path fill="#F0F3FA" d="M0 0h18v18H0z"/><path fill-rule="evenodd" d="M4.35 11.81c-.02-.11-.21-.08-.29-.04a.02.02 0 0 1-.02 0 .02.02 0 0 1 0-.03l.03-.05s.01-.02.03-.02l.03-.02c.09-.04.13-.13.2-.2l.08-.08c.1-.1.18-.17.25-.3l.34-.62c.1-.17.1-.27.12-.47v-.13l.06-.25a.89.89 0 0 1 .14-.24c.16-.22.3-.45.37-.73.07-.3.12-.59.12-.8 0-.16.02-.31.05-.47 0-.09.02-.18.04-.28.01-.13.05-.23.17-.46.07-.13.11-.37.22-.55.04-.06.06-.06.07.01.02.13-.02.34-.02.54 0 .08.01.17.04.25l.08.17c.05.09.1.16.11.26v.27c0 .05 0 .1.04.13.1.12.24.35.36.57.04.1.13.18.25.28.23.2.36.35.59.58v.01c.07.08.22.2.37.3l.34.28c.24.22.39.41.57.6.08.09.27.2.5.35.1.06.25.11.41.16a6.81 6.81 0 0 1 .49.17l.75-.03c.02 0 .03.01.03.03v.11a.78.78 0 0 0 .1.36c.06.14.2.33.33.33l.19.02.04.02c.05.05.08.08.11.08h1.43c.3 0 .6.05.95.18.13.05.32-.01.52 0 .03 0 .05-.01.06-.04v-.02c0-.05-.01-.07-.06-.08a6.2 6.2 0 0 1-.79-.2 4.77 4.77 0 0 0-.85-.11h-.91c-.05 0-.14-.02-.28-.06-.11-.03-.2-.03-.31-.04h-.07a.08.08 0 0 1-.07-.04.86.86 0 0 1-.16-.54v-.03l.02-.02a.05.05 0 0 1 .06 0l.12.07c.01.01.03.02.05.01a.23.23 0 0 0 .07-.05.13.13 0 0 1 .05-.03c.2-.06.32-.1.36-.13.2-.12.4-.23.6-.32.1-.05.17-.18.22-.3l.02-.02a.69.69 0 0 1 .14-.19c.1-.1.3-.28.43-.45a.32.32 0 0 0 .06-.2c0-.18.04-.4.12-.68.01-.05.07-.11.18-.2a1.42 1.42 0 0 0 .43-.87l.11-.17.09-.18c.04-.13.1-.25.16-.38a.43.43 0 0 0 .06-.2c0-.32.02-.56.05-.72a.59.59 0 0 0-.02-.28l-.06-.33c-.04-.3-.5-.32-.71-.29a.76.76 0 0 0-.36.18l-.23.17c-.24.17-.56.4-.78.62-.08.09-.19.18-.31.28-.13.1-.26.23-.4.38-.09.09-.22.18-.31.22l-.98.37a2.2 2.2 0 0 1-1.2.11 6.55 6.55 0 0 1-.84-.24.78.78 0 0 1-.36-.27l-.39-.48a2.8 2.8 0 0 0-.69-.47l-.48-.2a.79.79 0 0 0-.45-.05.12.12 0 0 0-.1.1c-.03.18-.1.3-.2.47-.19.28-.31.56-.37.84-.03.1-.04.29-.04.53 0 .43-.08.87-.23 1.32a.6.6 0 0 1-.16.2.68.68 0 0 0-.14.2c-.1.2-.16.45-.18.73 0 .1-.02.17-.04.2-.14.19-.27.4-.37.66-.07.16-.15.24-.25.35l-.05.06c-.04.03-.11.09-.23.16a.69.69 0 0 0-.2.2.06.06 0 0 1-.04.03h-.05c-.07 0-.15.01-.21.03-.6.23-.74.53-1.37.53a.1.1 0 0 0-.09.05l-.01.04c0 .02.05.13.08.13.7.03.79-.26 1.42-.51l.1-.04c.04-.01.2 0 .34.01.03 0 .05.02.06.04a.2.2 0 0 0 .05.05l.03-.01c.04-.09.1-.13.2-.1.02 0 .04 0 .05-.02.02-.02.02-.04.02-.07Zm7.98-4.05a.06.06 0 0 1-.03-.02.11.11 0 0 1-.01-.07c0-.02 0-.03.02-.05.11-.1.05-.22-.05-.32a.82.82 0 0 0-.4-.22h-.05c-.42.19-.86.35-1.3.47-.19.05-.34.07-.47.07-.18 0-.34-.01-.47-.04a7.61 7.61 0 0 1-1.2-.33c-.06-.1-.16-.2-.24-.27a3.34 3.34 0 0 1-.24-.28c-.2-.25-.4-.43-.63-.54-.27-.13-.5-.3-.76-.38a.03.03 0 0 0-.03.02.03.03 0 0 0 0 .02c.05.19.09.33.06.52-.03.24.01.45.14.64.06.08.09.15.09.2v.1c0 .13 0 .3.06.37.12.13.22.27.3.41.04.1.1.18.15.24a17.32 17.32 0 0 0 .54.52c.17.18.36.33.55.47.1.06.16.13.23.2.06.06.12.13.2.18.14.1.26.23.4.38l.1.11.2.16c.2.14.34.22.43.25l.47.17a.7.7 0 0 0 .22.04h.87c.1 0 .17-.03.22 0h.05l.22-.09c.15-.06.29-.1.43-.22.08-.06.13-.11.23-.15l.02-.01c.12-.05.2-.18.24-.29l.04-.06c.04-.08.1-.14.15-.19.13-.1.31-.18.46-.36V9.4l.04-.77s0-.02.02-.03l.22-.24c.06-.08.1-.18.14-.27l.12-.21a.8.8 0 0 0 .13-.26c.02-.08.08-.17.13-.25.06-.1.14-.2.17-.31l.09-.33c.03-.11.05-.22.05-.34.01-.14 0-.26.03-.41V5.7l-.04-.24c-.03-.13-.07-.16-.2-.2-.19-.08-.32-.11-.48 0-.23.16-.47.4-.82.67l-.16.15a.82.82 0 0 1-.15.14l-.24.2c-.09.1-.19.18-.29.26-.04.03-.15.07-.24.17-.02.02-.01.03 0 .05a2 2 0 0 0 .18.1c.2.11.32.26.34.5 0 .14-.1.21-.2.26h-.05Z" fill="#010101"/><path fill-rule="evenodd" d="m14.2 6.2.06.13a.1.1 0 0 1 .01.06l-.07.56a.06.06 0 0 1-.06.05c-.17 0-.33-.04-.47-.1a.64.64 0 0 0-.24-.08h-.06c-.18 0-.27 0-.45-.05-.02 0-.03-.02-.03-.04V6.5c.01-.08.03-.14.05-.18.09-.12.33-.15.46-.16.09 0 .18-.02.28-.06a1.55 1.55 0 0 1 .68-.05.05.05 0 0 1 .02.03v.07c-.01.02-.02.04-.05.03l-.1-.01c-.04 0-.05 0-.04.04Zm-.65.47a.01.01 0 0 1 0 .01h-.01l-.14.02a.7.7 0 0 1-.13 0 .48.48 0 0 1-.11-.02.22.22 0 0 1-.08-.04.09.09 0 0 1-.04-.06v-.1l.01-.06a.23.23 0 0 1 .07-.06.48.48 0 0 1 .1-.05.7.7 0 0 1 .14-.02l.13-.02a.01.01 0 0 1 .02 0v.01l.04.4Zm.55-.08c-.04.17-.18.17-.3.14h-.03c-.02.01-.02.03 0 .05a.8.8 0 0 0 .27.07.06.06 0 0 0 .06-.05 1.07 1.07 0 0 0 .01-.2h-.01Z" fill="#010101"/><path d="M12.77 7.04h-.02a.09.09 0 0 0-.06.1l.05.18c.01.04.06.07.1.05h.02a.09.09 0 0 0 .06-.1l-.05-.17a.08.08 0 0 0-.1-.06ZM11.3 7.57a.05.05 0 0 0-.01.08l.1.1v.03a.04.04 0 0 1 0 .03l-.06.03c-.03.02-.06.02-.08 0a.73.73 0 0 1-.17-.23.14.14 0 0 1 .06-.18 1 1 0 0 1 .37-.08c.04 0 .05.01.05.06v.02c-.01.04-.03.07-.07.08l-.18.06ZM10.77 8.14c.02-.07.07-.1.15-.1h.07l.59.01c.11 0 .22 0 .33-.03.23-.06.4-.1.5-.1.1 0 .19-.02.29-.07.03-.02.13-.05.3-.09.1-.02.16-.07.24-.12a.04.04 0 0 1 .05 0c.14.1.26.16.22.32 0 .02-.02.04-.03.05-.2.16-.41.25-.6.36a1.3 1.3 0 0 1-.39.16c-.38.08-.7.11-.98.1a.48.48 0 0 1-.24-.05c-.1-.06-.2-.1-.32-.14a.46.46 0 0 1-.14-.11.04.04 0 0 0-.05-.01l-.06.02h-.03c-.03-.02-.04-.05-.02-.1.01-.03.04-.05.09-.07.02 0 .03-.01.03-.03Z" fill="#010101"/><path fill-rule="evenodd" d="M9.6 8.03a.5.5 0 0 0-.03.16.1.1 0 0 1-.03.06.09.09 0 0 1-.05.03l-.44.01c-.1 0-.25 0-.44.02a2.1 2.1 0 0 1-.45 0c-.07 0-.14-.08-.2-.14a.95.95 0 0 0-.2-.18c-.1-.08-.02-.28.02-.38a.05.05 0 0 0 0-.05.3.3 0 0 1-.06-.09.04.04 0 0 1 .03-.05l.1-.02H8.7c.1 0 .19.07.27.12l.1.06a235.99 235.99 0 0 0 .61.32c.03.05.02.08-.04.1h-.02l-.01.03Zm-1.23-.38c-.09.12-.06.37 0 .5 0 .03 0 .04-.02.05-.08.02-.16-.02-.22-.09a1.04 1.04 0 0 0-.25-.2.05.05 0 0 1-.02-.07c.03-.1.08-.18.14-.26a.06.06 0 0 1 .05-.02h.33c.02 0 .03 0 .02.03l-.03.06Zm.86.23-.03.26a.01.01 0 0 0 .01.02h.11l.08-.03a.17.17 0 0 0 .05-.04.1.1 0 0 0 .03-.05c0-.05-.02-.09-.06-.12a.34.34 0 0 0-.17-.06.01.01 0 0 0-.02.01Z" fill="#010101"/><path d="M10.4 7.92V7.9h.03c.04.01.06.04.07.07a.2.2 0 0 1 0 .12l-.04.14a.2.2 0 0 1-.07.1c-.03.02-.06.03-.1.02l-.02-.02v-.02l.12-.39ZM6.63 9.63c.1-.13.15-.22.15-.27.02-.23.03-.46.02-.7 0-.14-.06-.27-.08-.4 0-.01 0-.03.02-.03l.02-.01h.02v.01c.07.16.1.29.1.38l-.01.68c0 .13-.05.25-.13.36 0 .01 0 .02-.02.02-.05.04-.08.04-.1-.01l.01-.03ZM8.7 9.28c.2.25.5.44.78.58l.53.26c.2.11.37.18.52.21.35.06.65.1.92.08.05 0 .08.03.08.08v.04a.06.06 0 0 1-.06.04 3.13 3.13 0 0 1-1.54-.32c-.24-.13-.51-.23-.74-.37-.13-.1-.43-.28-.54-.46a.14.14 0 0 1-.02-.12v-.02c.03-.04.05-.04.08 0ZM5.65 11.68c.1-.07.17-.14.24-.23.05-.06.1-.17.17-.33a.91.91 0 0 1 .3-.3c.15-.09.3-.14.45-.16.03 0 .04.01.05.04v.02c0 .04-.01.06-.04.07-.1.03-.2.06-.27.1-.2.07-.26.15-.36.33a2.5 2.5 0 0 1-.36.53c-.09.09-.2.1-.37.04-.02-.01-.03-.03-.02-.05.03-.06.08-.07.16-.05l.05-.01ZM10.2 11.4c.02.1.13.18.32.26.02 0 .03.02.03.04s-.01.03-.03.03l-.04.01h-.03a.7.7 0 0 1-.43-.6c0-.01.01-.02.03-.02h.01l.02.02c.04.07.08.16.11.27Z" fill="#010101"/></svg>