<!-- by TradingView --><svg width="18" height="18" viewBox="0 0 18 18" xmlns="http://www.w3.org/2000/svg"><path fill="url(#a)" d="M0 0h18v18H0z"/><path d="M5.23 5H4.1c-.15 0-.02.2.07.3l.83.91v4.82l3.94 2.93c.06.05.16.05.23 0l.5-.44a.13.13 0 0 0 0-.21L6.5 10.85V6.21L5.23 5Zm4.6 0H7.15c-.12 0-.18.13-.09.2l1.27 1v4.77l1.23 1c.08.07.1.02.1-.08v-5.7l.88-.68.96.69v5.69c0 .1.03.15.12.08l1.38-1V6.2l.96-1c.09-.07.03-.2-.1-.2H9.84Z" fill="#FCFCFE"/><defs><linearGradient id="a" x1="9" y1="0" x2="9" y2="18" gradientUnits="userSpaceOnUse"><stop stop-color="#A98438"/><stop offset="1" stop-color="#D4BB7A"/></linearGradient></defs></svg>