<!-- by TradingView --><svg width="18" height="18" viewBox="0 0 18 18" xmlns="http://www.w3.org/2000/svg"><path fill="#00BBFA" d="M0 0h18v18H0z"/><path d="M6.91 14c-.8-1.1-1.51-2.35-2.06-3.63A10.66 10.66 0 0 1 4 6.05c0-.6.14-1.36.52-1.8A.75.75 0 0 1 5 4.02c.64-.1 1.37.85 1.69 1.4a9.52 9.52 0 0 1 1.3 5.43c-.03.87-.16 1.84-.34 2.78-.2.1-.5.27-.74.38ZM10.25 7.82c0 .84.12 1.8.3 2.56.18.7.46 1.36.87 1.92-.4.58-.88 1.17-1.35 1.7l-.9-.35-.14-1.55c-.07-1.12-.03-2.24.12-3.38.1-.7.22-1.43.51-2.06.18-.38.43-.6.75-.65.16-.03.45 0 .87.1.8.17 1.64.48 2.24 1.1.12.13.23.35.33.65a5.42 5.42 0 0 1 .05 2.32c-.17.84-.67 1.98-1.44 2.28-.5.19-.98-.35-1.23-.8l-.33-.78a9.33 9.33 0 0 1-.51-2.1l-.14-.96Z" fill="#fff"/></svg>