<!-- by TradingView --><svg width="18" height="18" viewBox="0 0 18 18" xmlns="http://www.w3.org/2000/svg"><path fill="#F14F29" d="M0 0h18v18H0z"/><path fill-rule="evenodd" d="m5.64 5 3.28 1.62c.04.02.1.02.14 0l3.84-1.65a.18.18 0 0 0 0-.33L9.06 3.02a.17.17 0 0 0-.14 0L6.14 4.33h2.74c.06 0 .18.02.18.17 0 .13-.12.17-.18.17H5.62c-.13 0-.3.12-.3.26v2.32l-.32.3V9h1V7.55l-.36-.3V5Zm.86 6.88V6l2.25 1.1c.15.07.33.07.48 0L11.5 6v5.88l-2.43 3.08a.1.1 0 0 1-.16 0L6.5 11.88Zm.5-1.33V8.42c0-.23.23-.42.51-.42s.49.19.49.42v1.96c0 .44.47.62 1 .62s1-.18 1-.62V8.44c0-.25.18-.44.47-.44.3 0 .53.2.53.44v2.1c0 .81-.79 1.46-1.75 1.46h-.5C7.8 12 7 11.35 7 10.55Z" fill="#fff"/></svg>