<!-- by TradingView --><svg width="18" height="18" viewBox="0 0 18 18" xmlns="http://www.w3.org/2000/svg"><path fill="url(#a1yspuowd)" d="M0 0h18v18H0z"/><path fill-rule="evenodd" d="M15 9A6 6 0 1 1 3 9a6 6 0 0 1 12 0Zm-1 0A5 5 0 1 1 4 9a5 5 0 0 1 10 0Zm-4-1V5.22c0-.06-.07-.1-.13-.1a.1.1 0 0 0-.1.04L6.56 9.8c-.05.07 0 .2.08.2H8v2.8c0 .05.05.08.1.08.02 0 .04-.01.05-.03l3.3-4.65c.05-.07 0-.2-.08-.2H10Z" fill="#6AD402"/><defs><linearGradient id="a1yspuowd" x1="3.35" y1="3.12" x2="21.9" y2="24.43" gradientUnits="userSpaceOnUse"><stop stop-color="#1A1E21"/><stop offset="1" stop-color="#06060A"/></linearGradient></defs></svg>