<!-- by TradingView --><svg width="18" height="18" viewBox="0 0 18 18" xmlns="http://www.w3.org/2000/svg"><path fill="#F0F3FA" d="M0 0h18v18H0z"/><path d="M10.58 6h-1.3a.6.6 0 1 0 .45 1h.6c.77 0 1.31.47 1.7 1.1.13.22.5.37.74.37h.36c.07 0 .11-.08.08-.15C12.71 7.16 11.82 6 10.58 6ZM8 6.6a.6.6 0 1 1-1.2 0 .6.6 0 0 1 1.2 0Zm-.62 3.2a.6.6 0 1 0 0-1.2.6.6 0 0 0 0 1.2Zm1.92 0a.6.6 0 0 0 .24-.06h4.2a.63.63 0 0 1 0 1.26h-4a.6.6 0 1 0-.42 1h4.07a1.6 1.6 0 1 0 0-3.21H9.74a.6.6 0 0 0-1.04.4c0 .34.27.6.6.6Zm-1.88 2.18a.6.6 0 1 0 0-1.2.6.6 0 0 0 0 1.2ZM5.6 12a.6.6 0 1 0 0-1.2.6.6 0 0 0 0 1.2Zm-1.4-.6a.6.6 0 1 1-1.2 0 .6.6 0 0 1 1.2 0Zm1.4-1.62a.6.6 0 1 0 0-1.2.6.6 0 0 0 0 1.2Z" fill="url(#aewlmpma4)"/><defs><linearGradient id="aewlmpma4" x1="15" y1="10.24" x2="3" y2="10.24" gradientUnits="userSpaceOnUse"><stop stop-color="#5B6C75"/><stop offset=".47" stop-color="#566C75"/><stop offset="1" stop-color="#D4DCE1"/></linearGradient></defs></svg>