<!-- by TradingView --><svg width="18" height="18" viewBox="0 0 18 18" xmlns="http://www.w3.org/2000/svg"><path fill="url(#a)" d="M0 0h18v18H0z"/><path d="M7.5 6.19v5.62l2.14 2.05c.32.3.86.09.86-.34V4.48c0-.43-.54-.64-.86-.34L7.5 6.2Zm-.5 4.5V7.3L5.57 6.1c-.2-.19-.57-.06-.57.2v5.42c0 .26.36.39.57.2L7 10.7Zm4 0V7.3l1.43-1.22c.2-.19.57-.06.57.2v5.42c0 .26-.36.39-.57.2L11 10.7Z" fill="#fff"/><defs><linearGradient id="a" x1="9" y1="0" x2="9" y2="18" gradientUnits="userSpaceOnUse"><stop stop-color="#0FF"/><stop offset="1" stop-color="#33AEFE"/></linearGradient></defs></svg>