<!-- by TradingView --><svg width="18" height="18" viewBox="0 0 18 18" xmlns="http://www.w3.org/2000/svg"><path fill="#FF132A" d="M0 0h18v18H0z"/><path fill-rule="evenodd" d="M14.63 9c0 3.1-2.52 5.63-5.63 5.63.95-.04 1.53-.33 1.86-.79.35-.47.39-1.09.39-1.65 0-.2-.04-.38-.1-.56H12v-.38h-1.03a6.84 6.84 0 0 0-1.36-1.47L9 9.31V8.25h3.19c.31 0 .65-.08.9-.36.26-.27.41-.7.41-1.33 0-.64-.2-1.07-.48-1.33-.27-.26-.6-.36-.83-.36H5.18A5.63 5.63 0 0 1 14.63 9ZM4.8 5.25a5.63 5.63 0 0 0 3.42 9.32 2.36 2.36 0 0 1-.8-.3c-.4-.23-.68-.62-.68-1.14V12h.38v1.13c0 .37.18.64.5.83.26.16.62.26 1 .28V9.5c-.16-.1-.3-.21-.44-.31l-.04-.03a7.12 7.12 0 0 1-.78-.59 2.12 2.12 0 0 1-.5-.96 3.58 3.58 0 0 1-.12-.86 1.84 1.84 0 0 1 .83-1.5H4.8ZM15 9A6 6 0 1 1 3 9a6 6 0 0 1 12 0ZM7.5 5.82c.21-.25.57-.48 1.13-.55v3.77l-.23-.16a7.5 7.5 0 0 1-.77-.58c-.19-.19-.32-.48-.4-.78-.08-.3-.1-.6-.1-.77 0-.24.09-.62.36-.93Zm3.06 7.8c-.24.34-.69.6-1.56.63v-2.63h1.74c.09.2.13.38.13.57 0 .56-.04 1.07-.31 1.43ZM9 11.25h1.53A6.47 6.47 0 0 0 9 9.78v1.47Zm1.5-5.43c-.26-.3-.72-.57-1.5-.57v2.63h3.19c.25 0 .47-.07.63-.25.17-.17.3-.5.3-1.07 0-.56-.17-.88-.36-1.06a.87.87 0 0 0-.57-.25h-1.77a1.85 1.85 0 0 1 .83 1.5v.75h-.38v-.75c0-.24-.09-.62-.36-.93Z" fill="#fff"/></svg>