<!-- by TradingView --><svg width="18" height="18" viewBox="0 0 18 18" xmlns="http://www.w3.org/2000/svg"><path fill="#F0F3FA" d="M0 0h18v18H0z"/><path fill-rule="evenodd" d="M11.75 11.15a13 13 0 0 1 .78 2.29c.08-.02.12-.05.1-.07a12.94 12.94 0 0 0-1-2.82l.18-.16c.7-.63 1.09-1.4 1.17-2.3.09-.91-.13-1.72-.65-2.43-.52-.7-1.2-1.2-2.03-1.47a4.37 4.37 0 0 0-3.08.19c-.68.33-1.21.79-1.61 1.37a3.5 3.5 0 0 0-.56 2.61 3.87 3.87 0 0 0 2.3 2.8c.02 0 .03.02.03.04l-.24 2.56c0 .02 0 .03.02.04.03.02.06.02.1.03l.13-1.35.12-1.23c0-.02 0-.02.02-.02.7.23 1.41.3 2.13.19a4.1 4.1 0 0 0 1.82-.74h.01v.02l.12.97c.08.69.12 1.39.12 2.1.08-.03.12-.04.13-.06a22.4 22.4 0 0 0-.18-2.54c-.02-.16 0-.17.07-.02Zm.31-5.52c.02 0 .05 0 .08-.03a3.84 3.84 0 0 0-1.47-1.13 4.14 4.14 0 0 0-4.15.49c-.54.41-.95.96-1.19 1.58a3.37 3.37 0 0 0 .38 3.12c.25.37.57.7.94.96.46.32.98.54 1.53.65.01-.06.05-.1.11-.13a5.43 5.43 0 0 0 2.77-2.11 6.52 6.52 0 0 0 .97-3.39.05.05 0 0 1 .03 0Z" fill="#010101"/><path d="M8.18 11.27c.01-.06.05-.1.11-.13a5.43 5.43 0 0 0 2.77-2.11 6.52 6.52 0 0 0 .97-3.39.05.05 0 0 1 .03 0c.02 0 .05-.01.08-.04a3.5 3.5 0 0 1 .65 2.94c-.21.86-.75 1.6-1.5 2.12a4.04 4.04 0 0 1-3.1.61Z" fill="#CCC"/><path d="M6.45 7c.1 0 .18-.08.18-.18 0-.1-.08-.17-.18-.17-.1 0-.2.07-.2.17s.1.17.2.17ZM9.67 7.57c.1 0 .19-.08.19-.17 0-.1-.09-.18-.2-.18-.1 0-.18.08-.18.18 0 .1.08.17.19.17Z" fill="#010101"/><path fill-rule="evenodd" d="M7.24 7.65c-.07.22-.1.43-.08.64.03.23.17.45.45.4.35-.05.6-.52.7-.83l.03-.02h.02l.69.12a.05.05 0 0 0 .03 0l.01-.02v-.01l.01-.03c0-.04 0-.06-.05-.07l-2.3-.4c-.02-.01-.04 0-.06.02l-.01.02c0 .04.01.07.04.07l.5.09.01.01v.01Zm.13.01-.01.02c-.05.17-.08.34-.08.5 0 .19.1.48.38.37.26-.1.46-.48.54-.72a.02.02 0 0 0 0-.02h-.02l-.8-.15h-.01Z" fill="#010101"/><path d="M7.73 7.84c-.04-.01-.07 0-.08.04l-.08.27c-.01.03 0 .06.04.07.04 0 .07-.01.08-.04l.08-.27c.01-.03 0-.06-.04-.07Z" fill="#010101"/><path d="m11.73 13.77-.22.07c-.16-.39-.36-.7-.6-.96-.77-.8-1.85-.87-2.92-.57-.2.05-.39.1-.6.17l.12-1.23c0-.02 0-.02.02-.02.7.23 1.41.3 2.13.19a4.1 4.1 0 0 0 1.82-.74h.01v.02l.12.97c.08.69.12 1.39.12 2.1ZM12.53 13.44l-.67.27c-.01-.9-.07-1.74-.18-2.54-.02-.16 0-.17.07-.02.33.73.59 1.49.78 2.29Z" fill="#666"/><path d="M11.5 13.84c-.23.07-.5.13-.79.16H8.08a4.04 4.04 0 0 1-.82-.17l.13-1.35.6-.17c1.07-.3 2.15-.23 2.91.57.25.25.45.57.6.96Z" fill="#999"/></svg>