<!-- by TradingView --><svg width="18" height="18" viewBox="0 0 18 18" xmlns="http://www.w3.org/2000/svg"><path fill="#F0F3FA" d="M0 0h18v18H0z"/><path fill="#171220" d="M4 4h10v10H4z"/><path d="m9.36 4.47-.02.5c0 .03.02.04.05.05h.04c.03 0 .05-.02.05-.06v-.34c.08 0 .13.02.18.1.02.04.07.06.12.05.04 0 .07.02.08.06.01.03.04.06.07.08a4.17 4.17 0 0 0 .6.25.06.06 0 0 1 .01.05v.02c-.02.02-.04.02-.07.02a.81.81 0 0 0-.61-.13c-.16.02-.17.07-.02.14a.2.2 0 0 1 .08.06c.04.05.03.06-.03.04a1.2 1.2 0 0 0-.79-.06c-.02 0-.01.04.03.1a2.9 2.9 0 0 0-1 .1c-.14.05-.16.02-.04-.07a.81.81 0 0 1 .59-.17c.05 0 .08-.03.07-.08-.01-.12 0-.2.07-.26.09.04.15.02.2-.05.03-.04.02-.08-.02-.1a.3.3 0 0 0-.24-.02c0-.11-.04-.17-.13-.16-.03 0-.05.02-.05.06 0-.05 0-.1-.04-.13 0-.04.02-.06.05-.06.25-.05.5-.05.77.01Z" fill="#3F6299"/><path d="M9.48 4.49a.2.2 0 0 1 0 .13v.34c0 .04-.02.06-.05.06h-.04c-.03 0-.05-.02-.05-.05l.02-.5c.05 0 .1 0 .12.02Z" fill="#4788AF"/><path d="M8.54 4.52c.03.03.05.08.04.13-.01.06-.05.1-.12.1a.88.88 0 0 1-.28 0c-.07 0-.1-.05-.09-.16.04-.11.18-.13.45-.07Z" fill="#C1C8CA"/><path d="M12.27 6.37a.57.57 0 0 0 .02.4c-.06-.04-.12-.03-.17.02-.03.04-.02.06.02.09.22.13.27.22.13.26-.08-.1-.2-.14-.36-.1-.38 0-.3.71-.3.97-.01.17.1.24.3.2l.09.04-.07-.02c-.2.02-.37.2-.51.54-.05.1-.22.3-.53.57a.13.13 0 0 0-.05.11c.01.08-.02.1-.1.09a.22.22 0 0 0-.17.03c-.18.12-.52.38-.74.27.12-.04.18-.1.16-.2.23-.08.42-.2.58-.37.63-.63.82-1.4.55-2.3a2.35 2.35 0 0 0-1.7-1.45l-.28-.04c0-.05.02-.07.06-.08.12-.01.23 0 .35.04a2.42 2.42 0 0 1 1.84 2.3c.02.13.04.14.07.01a.95.95 0 0 0 0-.53 2.67 2.67 0 0 0-.33-.83c-.15-.24-.4-.45-.6-.67a.12.12 0 0 1-.03-.1.7.7 0 0 0-.03-.37c.03 0 .05 0 .06-.02a.06.06 0 0 0 .01-.05.06.06 0 0 0-.04-.04c-.17-.06-.74-.25-.84-.42-.05-.08-.1-.1-.17-.1a.2.2 0 0 0-.01-.13 3 3 0 0 1 .88.34c.16.12.35.22.45.4.04.07.1.12.18.15a4.22 4.22 0 0 1 .66 1.17c.06.18.2.26.4.22.05-.01.07-.04.07-.09V5.57c0-.03.02-.05.05-.05h.06a.04.04 0 0 1 .04.05v.8Z" fill="#2A4575"/><path d="M8.1 4.59c-.02.1 0 .16.08.17h.28c.07-.01.1-.05.12-.11 0-.04.02-.06.05-.06.09 0 .13.05.13.16 0 .07.02.12.06.17-.06.05-.08.14-.07.26 0 .05-.02.08-.07.08a.81.81 0 0 0-.6.17c-.1.1-.1.12.05.07a2.84 2.84 0 0 1 1.07-.1c-.04 0-.06.03-.06.08a2.25 2.25 0 0 0-1.61.56 1.8 1.8 0 0 0-.59.8.33.33 0 0 0-.08.18.48.48 0 0 0 0-.15c0-.04-.02-.05-.04 0l-.33.54.01-.3h.02l.57-1.25.42-.35a.2.2 0 0 0 .07-.12.35.35 0 0 1 .2-.28.1.1 0 0 0 .06-.1c0-.06-.05-.07-.14-.06a.12.12 0 0 0-.09.07c-.13.33-.37.6-.7.82l-.05.03c-.05.04-.07.03-.04-.03a.5.5 0 0 1 .27-.28.2.2 0 0 0 .1-.07l.4-.62c.03-.11.2-.2.5-.28Z" fill="#263962"/><path d="M8.82 4.92a.23.23 0 0 1-.06-.17.3.3 0 0 1 .24.02c.04.02.05.06.02.1-.05.07-.11.1-.2.05Z" fill="#95F0EA"/><path d="m7.58 4.87-.4.62a.2.2 0 0 1-.09.07.5.5 0 0 0-.27.28c-.03.06-.01.07.04.03l.04-.03c.06.03.12.04.19.02l-.57 1.26a.56.56 0 0 1 .05-.37.12.12 0 0 0 0-.1c-.03-.05-.02-.1.03-.11a.11.11 0 0 0 .08-.13.43.43 0 0 0-.1-.24c-.03-.03-.03-.07 0-.1.11-.12.13-.22.06-.3a2 2 0 0 1 .94-.9Z" fill="#9E578E"/><path d="M7.09 5.86a.23.23 0 0 1-.19-.02c.34-.22.58-.5.71-.82a.12.12 0 0 1 .1-.07c.08-.01.12 0 .13.05a.1.1 0 0 1-.06.1.35.35 0 0 0-.2.29.2.2 0 0 1-.07.12l-.42.35Zm3.37-.61a.7.7 0 0 1 .04.36c-.01.05 0 .08.03.11.2.22.45.43.6.67.15.24.26.52.34.83.04.18.04.36 0 .53-.04.13-.07.12-.08 0-.09-1.2-.7-1.97-1.84-2.31a.83.83 0 0 0-.35-.04c-.04-.01-.06-.02-.07 0-.04-.06-.05-.1-.03-.1.27-.07.53-.05.79.06.06.02.07 0 .03-.04a.2.2 0 0 0-.08-.06c-.15-.07-.14-.12.02-.14.2-.04.4 0 .6.13Z" fill="#7DA7D1"/><path d="M6.2 5.47c-.15-.01-.21.04-.2.16h-.04c-.03-.01-.05 0-.05.04l.04 1.01c0 .03.01.04.03.03h.04c.02 0 .04 0 .03-.03v-.74c0-.05.03-.07.08-.07.04 0 .06.03.06.07-.02.26 0 .51.1.75l-.05.38c-.06.01-.13-.01-.2-.07a.27.27 0 0 0-.12.06.1.1 0 0 1-.1.02.1.1 0 0 0-.1 0 .08.08 0 0 0-.05.07v.87a.09.09 0 0 0 .07.08c.04.02.1.02.17 0-.02.06 0 .1.03.13a.86.86 0 0 0-.24-.02.28.28 0 0 1-.31-.27l-.01-.7c0-.27.12-.44.37-.52a.08.08 0 0 0 .06-.08c-.04-.4-.04-.8.01-1.2 0-.03 0-.05-.04-.05l-.05-.02a.05.05 0 0 1-.03-.02.05.05 0 0 1-.01-.03v-.05a.06.06 0 0 1 .07-.05c.06 0 .1.03.13.09.02.05.05.08.1.1l.2.06Z" fill="#263962"/><path d="M6.2 5.47c.12.1.13.18.02.26-.1.08-.17.04-.22-.1-.01-.12.05-.17.2-.16Z" fill="#95F0EA"/><path d="m9.14 5.48.29.04c-.25.01-.26.12-.05.33.05.04.13.1.24.14.12.05.2.13.24.22-1.22-.44-2.04-.1-2.46 1.01-.1.27-.1.56-.03.9.2.73.69 1.15 1.45 1.25.36.04.72-.04 1.06-.24.28-.19.5-.42.65-.7a1.6 1.6 0 0 0 .01-1.49c.2.15.39.16.58.04.27.9.08 1.66-.55 2.3l-1.56.27A2.17 2.17 0 0 1 7.7 9a2.1 2.1 0 0 1-.51-.96c.03-.66.15-1.33.34-2 .45-.4.98-.58 1.6-.56Z" fill="#DAC3B4"/><path d="M9.43 5.52c.84.23 1.4.72 1.69 1.46-.2.12-.38.11-.58-.04a2 2 0 0 0-.68-.73.46.46 0 0 0-.24-.22.9.9 0 0 1-.24-.14c-.21-.21-.2-.32.05-.33Z" fill="#FDF1E1"/><path d="M6.52 7.12H6.5c-.17.32-.23.66-.19 1l-.07-1.05.04-.38.36-.93c.07.1.05.2-.05.3-.04.04-.04.08 0 .11.05.08.08.15.09.24 0 .06-.02.1-.08.13-.05.02-.06.06-.03.11a.12.12 0 0 1 0 .1.56.56 0 0 0-.05.37Z" fill="#EC95DC"/><path d="M7.53 6.04c-.2.67-.3 1.34-.34 2l-.25-1.2c.12-.32.32-.59.59-.8Z" fill="#997C75"/><path d="m9.86 7.38-.35.22c-.1.02-.25-.04-.46-.17a.11.11 0 0 1-.06-.1l-.02-.26v-.01c.09-.06.12-.15.1-.27a.47.47 0 0 0 .11-.22c0-.02.03-.05.05-.06a.11.11 0 0 1 .08-.02c.06.01.1 0 .15-.05a.16.16 0 0 1 .2-.03c.28.15.5.38.65.68.02.05 0 .08-.04.1-.17.04-.3.1-.41.19Z" fill="#C1C8CA"/><path d="M12.3 6.77c.1.09.2.18.22.33.03.4.02.73-.02 1.02a.29.29 0 0 1-.22.24.1.1 0 0 1-.12-.04 6.36 6.36 0 0 1-.16-.07l.21-.16a.13.13 0 0 0 .05-.11l.01-.84c.14-.04.09-.13-.13-.26-.04-.03-.05-.05-.02-.09.05-.05.1-.06.17-.02Z" fill="#4788AF"/><path d="M9.07 6.79c.02.12-.01.21-.1.27a.5.5 0 0 0-.48.14c-.2.18-.29.38-.26.59l-.02-.2c0-.04-.03-.05-.07-.05l-.04.01a.1.1 0 0 0-.03.07c-.02.32.04.62.19.9a.11.11 0 0 1-.12.16c-.05-.01-.09 0-.1.05a.1.1 0 0 0 .05.1c.18.14.35.23.51.3.14.05.32.05.56 0 .18-.06.35-.12.52-.21.13-.07.2-.18.24-.35a.1.1 0 0 0-.03-.1.3.3 0 0 1-.1-.12.47.47 0 0 1 .11-.18c.01.1.08.13.2.1.12-.03.15 0 .1.12a.23.23 0 0 0-.01.16c0 .04 0 .09-.02.12a.35.35 0 0 1-.2.15.1.1 0 0 0-.07.1l-.02.2c-.34.21-.7.3-1.06.25a1.59 1.59 0 0 1-1.45-1.25c.1-.18.15-.37.15-.59 0-.06.02-.1.08-.12.05-.02.1-.05.13-.1.04-.05.07-.04.08.02 0 .03 0 .05-.02.06a.11.11 0 0 0-.06.12c0 .05.02.1.05.15a.1.1 0 0 0 .19-.02c.2-.52.57-.8 1.1-.85Z" fill="#017D78"/><path d="m6.94 6.83.25 1.21c.12.43.3.75.5.96.32.29.75.48 1.32.55l.95.11c-.41.2-.78.25-1.11.14a2.98 2.98 0 0 1-1.02-.52 33.8 33.8 0 0 0-.43-.4 1.72 1.72 0 0 1-.54-1.86.33.33 0 0 1 .08-.19Z" fill="#6F4B48"/><path d="m6.05 7 .01 1.03a.1.1 0 0 1-.01.06c-.05.07-.1.07-.14.02h-.17a.09.09 0 0 1-.07-.1v-.86c0-.03.02-.06.05-.08a.1.1 0 0 1 .1 0 .1.1 0 0 0 .1-.01.27.27 0 0 1 .13-.06Z" fill="#95F0EA"/><path d="m6.24 7.07.07 1.06a.72.72 0 0 0-.03.04.88.88 0 0 1-.34.06c-.04-.03-.05-.07-.03-.12.04.05.1.05.14-.02a.1.1 0 0 0 .01-.06L6.05 7c.06.06.13.08.2.07Z" fill="#00CEB8"/><path d="M11.91 7.04v1.18c-.2.03-.31-.04-.3-.2 0-.27-.08-.98.3-.98Z" fill="#00BEC0"/><path d="M12.27 7.14v.84c0 .04-.02.08-.06.1l-.21.17-.09-.03V7.04c.16-.04.28 0 .36.1Z" fill="#95F0EA"/><path d="M8.97 7.06a.81.81 0 0 0-.47.38c-.12.2-.1.41.07.62.15.17.35.24.6.22.05 0 .09-.02.12-.05.22-.22.33-.4.35-.5.03-.16-.02-.2-.13-.13l.35-.22.08.1c.04.26.04.46-.03.62.01-.1 0-.16-.05-.19-.04-.02-.08-.02-.1.02-.08.12-.14.26-.25.35-.36.26-.72.25-1.08-.06a1.2 1.2 0 0 1-.2-.43c-.03-.21.06-.4.26-.59.15-.13.31-.18.48-.14Z" fill="#253EB6"/><path d="m6.5 7.11-.01.3c-.03.32-.04.65-.04.98 0 .04-.02.05-.08.04l-.04-.11c0-.04-.01-.1-.05-.15a.71.71 0 0 1 .03-.04c-.04-.35.02-.69.2-1.02Z" fill="#9E578E"/><path d="M10.53 8.43c-.15.28-.37.51-.65.7l.02-.22a.1.1 0 0 1 .07-.09.35.35 0 0 0 .2-.15.15.15 0 0 0 .02-.12c-.02-.05-.01-.1.01-.16.05-.11.02-.15-.1-.12-.12.03-.19 0-.2-.1V8.1c.08-.16.08-.36.04-.61.07.08.15.11.23.09a.12.12 0 0 0 .09-.08.35.35 0 0 1 .04-.1c.04-.06.07-.06.08.01l.15 1.02Z" fill="#054559"/><path d="M8.23 7.79c.04.15.1.3.2.43l-.11.08c-.09.06-.09.12 0 .18.27.21.56.3.84.24.35-.07.56-.2.64-.37a.3.3 0 0 0 .09.12.1.1 0 0 1 .03.1.46.46 0 0 1-.24.35c-.17.09-.34.15-.52.2a.97.97 0 0 1-.56.01 2.6 2.6 0 0 1-.51-.3.1.1 0 0 1-.04-.1c0-.04.04-.06.1-.05a.11.11 0 0 0 .1-.17 1.58 1.58 0 0 1-.18-.89.1.1 0 0 1 .03-.07l.04-.01c.04 0 .06.01.07.05l.02.2Z" fill="#00BEC0"/><path d="M9.91 8.1a.13.13 0 0 0 0 .07.47.47 0 0 0-.11.18c-.08.18-.29.3-.64.37-.28.05-.57-.03-.85-.24-.08-.06-.08-.12 0-.18l.13-.08c.35.3.7.32 1.07.06.11-.09.17-.23.24-.35.03-.04.07-.04.1-.02.05.03.07.1.06.19Z" fill="#01E2EB"/><path d="m13.22 12.38-.22.2-.82-.4c-.26-.93-.64-1.8-1.13-2.6l.01-.11c.04-.04.07-.1.08-.15.24-.13.4-.36.52-.7.02-.04.03-.04.05 0a14.67 14.67 0 0 1 1.5 3.76ZM6.4 8.78c.17.42.46.76.85 1.01a.1.1 0 0 0 .1.01l.03-.03a.09.09 0 0 1 .07-.04c.1-.01.17.03.23.12a.5.5 0 0 1-.12.27l.01-.04a.05.05 0 0 0-.06-.04c-.03 0-.05.02-.06.06-.3-.08-.55.03-.75.33a2.6 2.6 0 0 0-.15 2.66c-.1-.02-.17-.02-.2 0-.87-.3-1.28-.81-1.22-1.76.06-1 .48-1.85 1.26-2.55Z" fill="#004942"/><path d="M10.57 9.27c-.16.17-.35.29-.58.37a.4.4 0 0 1-.03.02l-.95-.1 1.56-.29Z" fill="#997C75"/><path d="M12.18 12.18a.94.94 0 0 1-.25.4 1.4 1.4 0 0 0-.28.36c-.15.34-.13.7.05 1.06h-.96c-.06-.08-.06-.15 0-.2a.1.1 0 0 0 .04-.08c.01-.07.03-.15.06-.22s.02-.12-.02-.16c-.04-.04-.1-.05-.2-.01l-.65-.1.57-.07.3-.06c.35-.2.46-.49.35-.88a.4.4 0 0 0 .18-.25.05.05 0 0 0-.03-.05h-.05c.05-.16.08-.32.07-.5 0-.05.02-.08.06-.11a.25.25 0 0 0 .06-.07.04.04 0 0 0-.02-.06h-.08a.1.1 0 0 0 .02-.03c.01-.04 0-.06-.04-.06-.45-.04-.54.02-.25.19.17.24.17.49 0 .73.01.05-.02.06-.1.04a.56.56 0 0 0 .07-.29.12.12 0 0 0-.05-.1c-.07-.05-.94.45-.17-.5.03-.03.02-.06-.02-.08a.14.14 0 0 0-.08-.02h-.02c-.17-.23-.22-.42-.13-.59v-.02l.05.03c.12.22.23.36.35.44.06.04.11.03.16-.01.03-.04.02-.06-.02-.07a.49.49 0 0 1-.27-.2l.06-.16c.04.06.07.1.11.13.03.03.05.02.06-.02 0-.04-.01-.07-.04-.09a2.9 2.9 0 0 1-.4-.32c-.07-.05-.11-.07-.15-.06a.18.18 0 0 1-.03-.07c0-.04 0-.07.04-.1l.52-.36c.5.8.87 1.66 1.13 2.6ZM7.45 10.1l-.77.67a.15.15 0 0 0-.05.11c0 .08-.03.15-.09.2a.18.18 0 0 0-.05.12l-.03.43c.02.3.17.51.46.63l.2.68c-.05.3-.03.6.06.9V14h-.74l.1-.9a2.6 2.6 0 0 1 .16-2.67c.2-.3.45-.41.75-.33Z" fill="#005C55"/><path d="M8.06 10.02c.05.08.06.16.03.24-.06.02-.12.01-.18-.04a.24.24 0 0 1-.09-.12c0-.05 0-.08.06-.1.05-.02.1-.01.18.02Z" fill="#017D78"/><path d="M7.56 10.12c-.16.18-.35.33-.57.43-.03.01-.05.03-.04.07 0 .01.01.03.03.03l-.08.06c-.12.06-.18.16-.19.3 0 .11-.04.19-.09.24a.12.12 0 0 0-.03.1c0 .15-.04.24-.13.28l.03-.43c0-.04.02-.08.05-.11a.29.29 0 0 0 .09-.2.16.16 0 0 1 .05-.12l.77-.67c.01-.04.03-.06.06-.06h.02a.05.05 0 0 1 .04.02v.06Z" fill="#EC95DC"/><path d="M9.92 10.53h.13a.1.1 0 0 1 .08.09l.2 1.16a.92.92 0 0 0-.69.13c-.05.03-.07.02-.06-.05a.64.64 0 0 0 0-.26c-.01-.04-.04-.06-.08-.06h-.05c.03-.04.04-.1.02-.15a.06.06 0 0 0-.06-.05.07.07 0 0 0-.06.04c-.02.04-.01.1.02.16a.65.65 0 0 1-.36-.16c.19-.04.37-.17.37-.38a.55.55 0 0 0-.11-.36c.05 0 .1 0 .14-.02.29-.12.27-.16.51-.1Z" fill="#2A4575"/><path d="M11.03 11.66c.04.02.05.06.05.1 0 .1-.02.2-.07.3l-.07.04c-.05.02-.05.06-.02.1.06.08.15.08.27.02.11.4 0 .69-.36.88.06-.11.04-.2-.08-.25v-.06c0-.02 0-.04-.02-.05a.12.12 0 0 0-.04-.04.59.59 0 0 1-.28-.58c0-.06 0-.1-.05-.11l-.04-.23-.2-1.16a.1.1 0 0 0-.06-.09.31.31 0 0 0-.14 0c.11-.05.21-.06.3-.02a.1.1 0 0 1 .07.08c.03.17.13.29.28.35.03.01.05.03.06.06.02.02.01.04 0 .06l-.03.01h-.03l-.04-.02c-.06-.03-.08-.01-.06.06.42 1.47 0 .14.56.55Z" fill="#017D78"/><path d="M10.88 10.64c.06.1.15.16.27.2.04 0 .05.03.02.07-.05.04-.1.05-.16 0a1.22 1.22 0 0 1-.35-.43l.22.16Z" fill="#95F0EA"/><path d="M9.27 10.64c.08.1.12.22.11.36 0 .2-.18.34-.37.38-.18 0-.33-.13-.45-.37.07-.41.31-.53.71-.37Z" fill="#00BEC0"/><path d="M6.98 10.65c.19.02.35.1.47.21l.02.06c-.01.04-.03.05-.07.03l-.5-.24.08-.06Z" fill="#7DA7D1"/><path d="M7.62 11.62a.5.5 0 0 1-.03.34c-.1.19-.1.25-.1.43 0 .04.01.09.04.13-.26.09-.4.23-.4.42l-.2-.68c.06-.01.1-.03.12-.05a.05.05 0 0 0 0-.04v-.02l-.02-.01c-.3-.1-.4-.3-.31-.6.02-.06.05-.07.09-.03.02.02.03.05.03.09 0 .09.02.1.08.04l.02-.03c.05-.05.1-.04.13.02l.09.2a.1.1 0 0 0 .1.07c.1 0 .15-.05.15-.15 0-.1 0-.19-.02-.28a.25.25 0 0 1 .01-.12l.22-.6c0-.01.02-.02.03-.01h.04c.01 0 .02.01.01.03l-.08.85Z" fill="#017D78"/><path d="M11.38 11.19a.7.7 0 0 1-.27.09c-.29-.17-.2-.23.25-.2.04.01.05.03.04.07a.1.1 0 0 1-.02.04Z" fill="#FDF1E1"/><path d="M11.29 11.92c-.06.07-.12.1-.18.1.17-.25.17-.5 0-.74a.7.7 0 0 0 .27-.1h.08a.04.04 0 0 1 .02.06.25.25 0 0 1-.06.07.12.12 0 0 0-.06.1c0 .19-.02.35-.07.51Z" fill="#7DA7D1"/><path d="M9.45 11.55h-.08c-.03-.08-.04-.13-.02-.17a.06.06 0 0 1 .06-.04.06.06 0 0 1 .06.04.2.2 0 0 1-.02.17Z" fill="#4788AF"/><path d="m9.17 12.75-.06.2L9.3 14h-.62c.14-.48.19-.93.14-1.35.02-.24-.01-.46-.09-.68a.71.71 0 0 1 0-.35.91.91 0 0 1 .35-.04c.18.05.24.16.18.33-.1.3-.13.59-.1.85Z" fill="#00CEB8"/><path d="M10.36 12c.04.02.06.06.05.12-.02.26.07.45.28.58a.12.12 0 0 1 .06.1v.05c-.16.05-.26.02-.3-.09-.02-.04-.05-.05-.09-.05a.87.87 0 0 0-.39.15.34.34 0 0 0-.3-.11c-.05-.09-.02-.15.11-.2.04-.02.04-.04.02-.07-.3-.26-.32-.4-.08-.42.13.03.24.03.33.02a.06.06 0 0 0 .05-.05v-.02c-.01-.05-.05-.07-.1-.07l.36.07Z" fill="#4788AF"/><path d="M8.2 12.07c-.26.03-.4.01-.4-.07a1 1 0 0 1 .5 0 .03.03 0 0 1 0 .03l-.01.02c-.05.03-.08.03-.09.02Zm.14.25c-.05.09-.1.13-.15.13a.05.05 0 0 1-.03-.01.05.05 0 0 1-.02-.04c0-.04.03-.07.08-.11l.16-.17.03-.01c.04 0 .05 0 .06.03l-.01.03a.61.61 0 0 1-.12.15Z" fill="#7DA7D1"/><path d="m12.18 12.18.82.4c0 .2-.06.35-.17.46-.3.33-.53.65-.67.96h-.46a1.2 1.2 0 0 1-.05-1.06c.04-.1.13-.21.28-.36a.94.94 0 0 0 .25-.4Z" fill="#054559"/><path d="M14 12.27v1.68c0 .03-.02.05-.06.05h-1.78a4 4 0 0 1 .67-.96c.1-.11.16-.26.17-.46l.22-.2.78-.1Z" fill="#1B2B54"/><path d="m7.61 12.47.05.02c-.01.06-.06.12-.15.17l-.25.2c-.03.03-.04.07-.02.11.01.05 0 .1-.03.12a.1.1 0 0 0-.04.1c0 .04.02.08.04.14.11.2.1.37-.03.51-.1-.3-.11-.6-.05-.9 0-.2.14-.33.4-.42-.03-.01 0-.03.08-.05Z" fill="#EC95DC"/><path d="M8.17 12.55c.08-.01.15.04.22.16.05.07.1.1.16.08-.03.11-.13.14-.31.1a.19.19 0 0 1-.1-.07c-.1-.12-.2-.13-.32-.05a.49.49 0 0 1-.3-.1c.08-.06.13-.12.14-.18.17 0 .34.01.51.06Z" fill="#4788AF"/><path d="M8.82 12.64c.04.42 0 .87-.14 1.35h-.44c-.12-.05-.12-.1 0-.15a.3.3 0 0 0 .11-.07c.14-.15.26-.29.36-.43.08-.11.05-.16-.09-.12-.1.02-.18.12-.3.13-.4.04-.76.03-1.11-.02a.78.78 0 0 1-.04-.13c-.01-.04 0-.08.04-.1.03-.04.04-.08.02-.13-.01-.04 0-.08.03-.1l.25-.2c.09.06.19.1.3.1a.61.61 0 0 0-.3.16.08.08 0 0 0 .03.14c.3.08.63.1.97.05a.27.27 0 0 0 .23-.24c.02-.13-.05-.16-.19-.09-.05.02-.1 0-.16-.08.27.05.41.03.43-.07Z" fill="#263962"/><path d="M8.55 12.8c.14-.08.2-.05.19.08a.28.28 0 0 1-.23.24 2.23 2.23 0 0 1-1-.07.08.08 0 0 1 0-.12.61.61 0 0 1 .3-.16c.12-.08.23-.07.33.05.02.03.06.05.1.06.18.05.28.02.31-.09Zm2.2.05c.12.06.14.14.08.25l-.29.06-.54-.01c-.11-.01-.17-.06-.19-.15 0-.04.02-.07.06-.08a.4.4 0 0 0 .1-.06.87.87 0 0 1 .4-.15c.03 0 .06.01.07.05.05.11.15.14.31.1Z" fill="#B9AFBB"/><path d="M6.35 13.08c.03-.01.1 0 .2.01l-.11.9-2.38.01a.06.06 0 0 1-.06-.05v-.97l2.35.1Z" fill="#302E5E"/><path d="M8.24 14H7.17a.3.3 0 0 0 .01-.16c.13-.14.14-.3.03-.51.35.05.72.06 1.11.02.12-.01.2-.11.3-.13.14-.04.17 0 .09.12-.1.14-.22.29-.36.43a.3.3 0 0 1-.1.07c-.13.05-.13.1 0 .15Z" fill="#634879"/><path d="M10.74 14H9.8c0-.19.03-.36.1-.53a.11.11 0 0 1 .1-.07l.62-.07c.1-.04.17-.03.21 0 .04.05.05.1.02.17a.7.7 0 0 0-.05.23.11.11 0 0 1-.05.08c-.06.04-.06.1 0 .19Z" fill="#6E7890"/><path d="M12.13 5.4a.15.15 0 1 0 0-.3.15.15 0 0 0 0 .3Z" fill="#95F0EA"/><path d="M10.9 5.61a.09.09 0 0 1 .09.02c.05.05.04.1-.03.15a.08.08 0 0 1-.1-.02c-.06-.07-.04-.12.05-.15Z" fill="#C1C8CA"/><path d="M9.5 10.33a.3.3 0 0 0-.03.1c-.01.06-.04.08-.09.04l-.03-.02a.12.12 0 0 0-.09-.02c-.18.03-.36.01-.54-.04-.04-.01-.06-.04-.05-.08l.01-.05a.1.1 0 0 1 .09-.05 3.24 3.24 0 0 1 .95.03v.06h-.01a.3.3 0 0 1-.13 0h-.04a.07.07 0 0 0-.03.03Z" fill="#017D78"/><path d="M7.87 11.66c.05.07.13.08.19.04.05-.05.05-.13 0-.2-.05-.05-.13-.07-.18-.03-.06.05-.06.13-.01.2Z" fill="#00BEC0"/><path d="M8.7 12.38c.02.09 0 .16-.05.21a.11.11 0 0 1-.12.02c-.06-.02-.07-.05-.03-.1l.12-.15c.03-.03.06-.03.07.02Z" fill="#017D78"/><path d="M10 11.68c-.03-.06-.03-.12 0-.17l.02-.02a.06.06 0 0 1 .09.01c.04.05.06.1.04.16a.08.08 0 0 1-.14.02Z" fill="#7DA7D1"/><path d="M9.21 11.04a.21.21 0 0 1-.05.07.23.23 0 0 1-.08.05.29.29 0 0 1-.34-.15.22.22 0 0 1 0-.18.21.21 0 0 1 .05-.07.23.23 0 0 1 .08-.05.29.29 0 0 1 .34.15.2.2 0 0 1 0 .18Z" fill="#054559"/><path d="M8.28 13.5a.72.72 0 0 1-.38.05c-.26-.06-.26-.12 0-.18a1.21 1.21 0 0 1 .42.02.05.05 0 0 1 .02.04l-.01.02a.12.12 0 0 1-.05.04Z" fill="#B9AFBB"/><path d="M8.98 11.06a.13.13 0 1 0 0-.26.13.13 0 0 0 0 .26Z" fill="#95F0EA"/></svg>