<!-- by TradingView --><svg width="18" height="18" viewBox="0 0 18 18" xmlns="http://www.w3.org/2000/svg"><path fill="#F0F3FA" d="M0 0h18v18H0z"/><path d="m13.94 10.04.04.14c.03.25.03.49 0 .73-.12-.35-.35-.61-.56-.9-.13-.2-.2-.38-.24-.6l-.16-.81c-.12-.65-.49-1.13-.74-1.72-.18-.4-.26-.84-.38-1.26a4.19 4.19 0 0 0-.49-1.08.07.07 0 0 0-.06-.01l-.03.01c-.4.34-.77.73-1.13 1.14-.2.22-.41.3-.7.3-.66 0-1.35.02-2.07.05a.35.35 0 0 1-.26-.1c-.42-.4-.9-.9-1.48-1h-.06A.1.1 0 0 0 5.6 5l-.05.15c-.35.76-.62 1.56-.83 2.4l-.3 1.33c-.08.38-.25.71-.4 1.06V8.69c.22-1.14.47-2.08.73-2.82.15-.43.31-.8.46-1.1a.94.94 0 0 1 .24-.31.27.27 0 0 1 .25-.05c.6.13 1.09.55 1.57.99.08.07.18.11.29.12.47.04 1.02.05 1.65.02.3-.01.54-.04.77-.28.38-.4.75-.83 1.19-1.14a.7.7 0 0 1 .28-.12l.06.01c.48.35.74 1.08.88 1.65a11.5 11.5 0 0 0 .37 1.17c.05-.06.1-.1.16-.14.18-.14.34.07.36.26 0 .02 0 .04.02.06l.1.16c.02.02.03.04.03.07 0 .1.02.21.05.3a.26.26 0 0 1-.02.23l-.1.15a.08.08 0 0 0 0 .06c.08.32.15.65.2 1 .05.26.12.57.26.8.05.09.1.17.13.26Z" fill="#010101"/><path d="M14 10.91v2.06l-.03.02-.02.01H4.02v-.01L4 12.97V9.93c.16-.35.33-.68.4-1.06l.31-1.33c.2-.84.48-1.64.83-2.4l.05-.15a.1.1 0 0 1 .03-.06.08.08 0 0 1 .06 0c.58.1 1.06.6 1.48 1 .08.07.16.1.26.1.72-.03 1.41-.04 2.08-.04.28 0 .49-.1.69-.31a11.81 11.81 0 0 1 1.16-1.15.07.07 0 0 1 .06.01l.03.02c.2.33.35.68.46 1.06.12.42.2.86.38 1.26.25.59.62 1.07.74 1.72l.16.8c.04.23.1.42.24.6.2.3.47.56.58.91Z" fill="#BED8FB"/><path d="M10.84 7.9c.13-.01.24-.11.23-.24a.23.23 0 0 0-.24-.23c-.13 0-.23.11-.23.24 0 .12.1.23.24.22ZM5.1 8.03c-.07-.13-.22-.2-.07-.38.17-.2.4 0 .54.13.07.07.1.18.04.27-.06.11-.1.24-.13.37 0 .03 0 .05.02.07l.1.12c.03.02.04.05.04.09 0 .04 0 .07-.03.1-.1.14-.37.39-.54.22-.06-.05-.12-.13-.1-.22a.1.1 0 0 1 .02-.05l.13-.15c.02-.02.01-.03 0-.04-.13-.07-.32-.24-.13-.4l.1-.08c.03-.01.03-.03.02-.05ZM9.17 8.16c-.05-.16-.04-.27.1-.37.16-.1.33-.17.48 0 .08.09.04.24.05.36l.02.01h.01c.03 0 .04 0 .04-.03 0-.1-.01-.21.06-.28.1-.1.19-.12.3-.06.13.1.17.23.1.4-.13.33-.34.46-.64.4-.04 0-.09-.04-.12-.04a.1.1 0 0 0-.07.03c-.12.13-.45.26-.6.07-.06-.08-.16-.15-.18-.26a.32.32 0 0 1 .1-.32c.05-.05.1-.06.16-.03.03 0 .06.03.07.05a.3.3 0 0 0 .1.1c.03.02.04.01.02-.03ZM7.93 8.35c.14 0 .24-.1.24-.23 0-.12-.1-.22-.23-.23-.13 0-.24.1-.24.23 0 .12.1.22.23.23Z" fill="#010101"/></svg>