<!-- by TradingView --><svg width="18" height="18" viewBox="0 0 18 18" xmlns="http://www.w3.org/2000/svg"><path fill="#01114C" d="M0 0h18v18H0z"/><circle cx="9" cy="9" r="3.18" fill="url(#aso0gfzv1)"/><path fill-rule="evenodd" d="M9.08 15a5.93 5.93 0 1 0-.01-11.85 5.93 5.93 0 0 0 0 11.85Zm0-.17a5.76 5.76 0 1 0-.01-11.52 5.76 5.76 0 0 0 0 11.52Z" fill="#114ED2"/><path d="M14.57 10.25a5.64 5.64 0 0 1-3.24 3.97l.11.26a6 6 0 0 0 3.4-4.17l-.27-.06Z" fill="#7954F7"/><path d="m4.06 6.5-.42-.2a6.02 6.02 0 0 0-.02 5.36l.38-.18a5.61 5.61 0 0 1 .06-4.98Z" fill="#4351BF"/><path d="M11.99 3.8c-.8-.47-1.7-.74-2.62-.8l-.03.43c1.81.09 3.4 1.03 4.36 2.43l.29-.19a6 6 0 0 0-2-1.88Z" fill="#09A6F6"/><path fill-rule="evenodd" d="M9 13a4 4 0 1 0 0-8 4 4 0 0 0 0 8Zm0-.43a3.57 3.57 0 1 0 0-7.14 3.57 3.57 0 0 0 0 7.14Z" fill="url(#bso0gfzv1)"/><path fill-rule="evenodd" d="M9 12.53a3.5 3.5 0 0 0 3.53-3.46A3.5 3.5 0 0 0 9 5.62a3.5 3.5 0 0 0-3.53 3.45A3.5 3.5 0 0 0 9 12.53Zm0-.37a3.12 3.12 0 0 0 3.15-3.09C12.15 7.37 10.75 6 9 6a3.12 3.12 0 0 0-3.15 3.08c0 1.7 1.41 3.09 3.15 3.09Z" fill="url(#cso0gfzv1)"/><path fill-rule="evenodd" d="M9 14A5 5 0 1 0 9 4a5 5 0 0 0 0 10Zm0-.35a4.65 4.65 0 1 0 0-9.3 4.65 4.65 0 0 0 0 9.3Z" fill="#208CFC"/><path fill-rule="evenodd" d="M9 13.5a4.5 4.5 0 1 0-.01-9 4.5 4.5 0 0 0 0 9Zm0-.16a4.35 4.35 0 1 0-.01-8.69 4.35 4.35 0 0 0 0 8.7Z" fill="#185DCE"/><path fill-rule="evenodd" d="M9 11.62a2.54 2.54 0 1 0-.01-5.09 2.54 2.54 0 0 0 0 5.1Zm0-1.12a1.45 1.45 0 1 0 0-2.9 1.45 1.45 0 0 0 0 2.9Z" fill="url(#dso0gfzv1)"/><path d="m4.53 8.05-.67-.14a5.27 5.27 0 0 0 1.09 4.43l.47-.39a4.65 4.65 0 0 1-.89-3.9Z" fill="#D9D9D9"/><path d="M8.99 3.87c-1.23 0-2.41.41-3.37 1.15l.35.42a4.94 4.94 0 0 1 6.05-.03l.35-.42a5.53 5.53 0 0 0-3.38-1.12Z" fill="url(#eso0gfzv1)"/><path d="M8.58 12.87A3.86 3.86 0 0 1 5.22 9.4l-.53.04a4.4 4.4 0 0 0 3.83 3.96l.06-.52Z" fill="#46A5FB"/><path d="M10.46 13.52a4.67 4.67 0 0 0 2.59-6.9l.45-.27A5.2 5.2 0 0 1 10.62 14l-.16-.49Z" fill="#75CEFE"/><path d="M13.25 10.46c-.28.8-.77 1.5-1.42 2.03l.48.58a5.25 5.25 0 0 0 1.64-2.37l-.7-.24Z" fill="#FCB5FD"/><path fill="#262675" fill-opacity=".7" d="M7 8h4v2H7z"/><defs><linearGradient id="aso0gfzv1" x1="10.87" y1="6.15" x2="7.2" y2="11.63" gradientUnits="userSpaceOnUse"><stop stop-color="#3F52B8"/><stop offset=".73" stop-color="#FB8FCE"/><stop offset="1" stop-color="#407ADE"/></linearGradient><linearGradient id="bso0gfzv1" x1="11.81" y1="6.03" x2="5.83" y2="11.98" gradientUnits="userSpaceOnUse"><stop offset=".07" stop-color="#2688EE"/><stop offset=".25" stop-color="#9AFEFF"/><stop offset=".41" stop-color="#AC66F7"/><stop offset=".62" stop-color="#F4FFFB"/><stop offset=".87" stop-color="#80FEFE"/></linearGradient><linearGradient id="cso0gfzv1" x1="12.63" y1="8.97" x2="5.28" y2="8.97" gradientUnits="userSpaceOnUse"><stop stop-color="#D9D9D9"/><stop offset=".16" stop-color="#3D80F9"/><stop offset=".26" stop-color="#88E4FF"/><stop offset=".5" stop-color="#556AD5"/><stop offset=".64" stop-color="#FFF3FF"/><stop offset=".8" stop-color="#FEE0FB"/></linearGradient><linearGradient id="dso0gfzv1" x1="11.32" y1="9.08" x2="6.45" y2="9.08" gradientUnits="userSpaceOnUse"><stop stop-color="#7791FF"/><stop offset=".16" stop-color="#7498F9"/><stop offset=".34" stop-color="#8189F6"/><stop offset=".53" stop-color="#FDF7FB"/><stop offset=".7" stop-color="#F0AEF1"/><stop offset="1" stop-color="#EFB1F0"/></linearGradient><linearGradient id="eso0gfzv1" x1="12.54" y1="4.89" x2="5.62" y2="5.14" gradientUnits="userSpaceOnUse"><stop stop-color="#22E2FD"/><stop offset="1" stop-color="#5B96E5"/></linearGradient></defs></svg>