<!-- by TradingView --><svg width="18" height="18" viewBox="0 0 18 18" xmlns="http://www.w3.org/2000/svg"><path fill="url(#apfqwpoir)" d="M0 0h18v18H0z"/><path d="M9 10.31V9.27c0-.09.1-.13.15-.07l.58.56v1.06l.27.3V9.75L9 8.73V6.9l2 2.18 2-2.18v1.83l-1 1.03v1.35l.32-.3V9.77l.53-.56c.05-.06.15-.02.15.07v1.04l-1.05 1.06c-.05.06-.15.02-.15-.07V9.76l1.05-1.1V7.3l-.38.4v.72L11 10.02l-1.47-1.6v-.69l-.38-.43v1.36l1.06 1.1v1.54c0 .09-.1.13-.15.07L9 10.31Z" fill="url(#bpfqwpoir)"/><path d="M12.93 5.98c-.6-.39-1.58-.88-2.93-.92V6H8.47v1H7v1.47H6v1.05h1V11h1.47v1H10v.98c.6-.02 1.77-.26 3-1.05A4.95 4.95 0 0 1 4 9a4.99 4.99 0 0 1 8.93-3.02Z" fill="url(#cpfqwpoir)"/><defs><linearGradient id="apfqwpoir" x1="3.35" y1="3.12" x2="21.9" y2="24.43" gradientUnits="userSpaceOnUse"><stop stop-color="#1A1E21"/><stop offset="1" stop-color="#06060A"/></linearGradient><linearGradient id="bpfqwpoir" x1="11" y1="6.9" x2="11" y2="11.4" gradientUnits="userSpaceOnUse"><stop stop-color="#10CBF2"/><stop offset="1" stop-color="#90F3A6"/></linearGradient><linearGradient id="cpfqwpoir" x1="8.5" y1="4" x2="8.5" y2="14" gradientUnits="userSpaceOnUse"><stop stop-color="#38B1DF"/><stop offset="1" stop-color="#1CDBAD"/></linearGradient></defs></svg>