<!-- by TradingView --><svg width="18" height="18" viewBox="0 0 18 18" xmlns="http://www.w3.org/2000/svg"><path fill="#F0F3FA" d="M0 0h18v18H0z"/><path d="M12.9 9.6a.25.25 0 0 1-.12-.09.1.1 0 0 1-.02-.06c.01-.14.05-.2.04-.37a4.55 4.55 0 0 0-.73-2.48 3.31 3.31 0 0 1-.22-.4 1.69 1.69 0 0 0-.18-.33c-.2-.21-.38-.42-.56-.64a.41.41 0 0 0-.23-.13 2.87 2.87 0 0 0-1.69.14c-.01.04-.28.2-.35.22-.1.02-.38-.36-.51-.62.12-.14.4-.14.57-.16l.61-.07.47.1h.12c.34-.11.57-.31.68-.62l.46-.55a1 1 0 0 0 .33-.48.1.1 0 0 1 .03-.04.1.1 0 0 1 .11 0 5.1 5.1 0 0 1 .3 2.99c0 .04 0 .08.02.12l.48.92A5.66 5.66 0 0 1 13 9.48c0 .1-.04.13-.1.11ZM6.93 3.93c.41.46.86.88 1.36 1.24l-.05.25c-.08.1-.13.22-.17.34a.2.2 0 0 1-.07.1c-.18.14-.3.27-.36.4-.05-.3-.1-.63-.18-.95a2.96 2.96 0 0 0-.73-1.4c-.09-.1-.2-.12-.33-.08-.4.82-.45 1.7-.16 2.61l.27.52.07.23c-.02.1.04.15.16.17-.12.12-.22.15-.3.1-.04-.12-.18-.58-.37-.69.15-.27-.04-.45-.1-.76l-.09-.44c-.02-.34-.02-.55.02-.66.07-.22.12-.43.13-.63a1 1 0 0 1 .2-.42.15.15 0 0 0 .03-.12c-.02-.08.02-.15.11-.2h.02l.54.4Z" fill="#424A34"/><path d="m7.64 6.27-.9 1.1c-.12-.03-.18-.09-.16-.18.02-.17 0-.23-.07-.23l-.27-.52c.58-.03.92-2.13.16-2.61.13-.04.24-.02.32.07.37.4.62.86.74 1.41l.18.96Z" fill="#EB7C80"/><path d="M6.4 3.83c.26.16.45.47.58.91.06.2.08.33.05.39a.13.13 0 0 0 0 .12l.09.15c.03.06.02.1-.04.11-.09.03-.1.1-.01.2a.1.1 0 0 1 0 .12.37.37 0 0 0-.1.3c0 .05-.02.08-.07.08-.08 0-.11.05-.1.16v.06a.07.07 0 0 1-.05.03c-.16.03-.33.03-.5-.02a3.45 3.45 0 0 1 .15-2.61ZM8.06 4.87c.16.07.24.17.23.3-.5-.36-.95-.78-1.36-1.24.42.27.8.58 1.13.94Z" fill="#FFDBB9"/><path d="m8.33 4.84.7.1c.03 0 .06-.01.07-.04l.03-.04c.01-.02.03-.03.05-.02.02 0 .04.02.05.04.02.04.01.07-.02.1a.9.9 0 0 1-.3.2c-.04.01-.05.04-.05.07v.1c.01.04.02.05.05 0a.1.1 0 0 0 .02-.03c0-.02 0-.02.01-.01.05.02.09.03.13.02-.03.07-.1.12-.22.15a.92.92 0 0 0-.43.36c-.04-.15-.1-.3-.18-.42l.05-.25c0-.13-.07-.23-.23-.3.06-.04.15-.05.27-.03Z" fill="#42302B"/><path d="M12.07 6.6a.27.27 0 0 0 .03.25l.02.02v.01c-.5-.77-.8-1.6-1.83-1.63l-1.1-.01c.54-.22 1.1-.27 1.7-.14.08.01.16.06.22.13l.56.64c.04.05.1.16.18.33l.22.4Z" fill="#70A65F"/><path d="M12.07 6.6c.48.73.72 1.56.73 2.48 0 .04.01.08.04.1.04.07.02.14-.05.22a.1.1 0 0 0 0 .12c.01.03.06.05.12.07l-.04.1a.27.27 0 0 0-.11.14c-.01.04 0 .08.02.11.06.07.06.13-.02.19-.32.53-.61 1.2-.93 1.63a3.73 3.73 0 0 1-2.35 1.52c-1.87.37-3-.51-3.21-2.56l.02-.04c.02-.02.03 0 .03.03.04.24.04.4.13.6.28.59.5.98.68 1.16.6.64 1.4.74 2.2.69-.93 0-1.8-.15-2.37-1.01a4.3 4.3 0 0 1-.48-1c.42.75.88 1.41 1.64 1.67.32.1.67.14 1.06.1a2.78 2.78 0 0 0 2.32-1.69c.3-.4.51-.75.65-1.05.08-.17.1-.37.08-.6v-.05l.02-.1c0-.07-.03-.16-.12-.27 0-.15-.04-.32-.11-.51.14-.5.06-1-.26-1.5-.35-1.02-1.01-1.91-2.16-1.52-.61.2-1 .62-1.43 1.1l.3-.45v-.04h-.04l-.31.37H8.1l-.03-.02c-.02-.01-.02-.03 0-.04.16-.38.59-.66.78-1.07.05-.01.24-.23.34-.24h1.1c1.03.03 1.34.87 1.83 1.64l-.02-.03a.27.27 0 0 1-.03-.25Z" fill="#BDCA6B"/><path d="M8.42 5.84c-.21.17-.3.3-.28.38-.46.37-.82.8-1.06 1.27a.2.2 0 0 1-.08.06.2.2 0 0 0-.07.09l-.39.84c.01.08-.02.16-.08.24-.12.15-.19.32-.22.51-.03.25-.06.43-.1.52-.12.44-.17.9-.12 1.36-.1.22-.13.49-.1.78 0 .04.01.08.05.1.08.07.11.18.08.33-.3.25-.62-.33-1.03-1.35L5 9.77c0-.23.03-.44.1-.63.14-.43.37-.8.5-1.17a23.17 23.17 0 0 1 .24-.73c0-.04.01-.07.05-.09a.12.12 0 0 0 .06-.1c.01-.1.05-.2.12-.28.04-.02.08-.01.1.04l.02.48c0 .1.08.15.24.17.1.05.2.02.31-.1l.9-1.1c.07-.13.18-.26.36-.4a.2.2 0 0 0 .07-.1c.04-.12.1-.23.17-.34.08.13.14.27.18.42Z" fill="#1D262D"/><path d="M11.76 7.15c-.29-.5-.54-.85-.74-1.07-.53-.54-1.45-.45-2 .04-.9.79-1.53 1.8-1.9 3-.15.5-.14 1.15.34 1.46l.12.6c.7 1.12 1.58 1.44 2.67.96.2-.08.4-.22.65-.42l.6-.49a2.78 2.78 0 0 1-2.32 1.69c-.4.04-.74 0-1.06-.1-.76-.26-1.22-.92-1.64-1.67A3.66 3.66 0 0 1 6.6 9.2c.31-.78.83-1.6 1.56-2.48.42-.47.82-.89 1.43-1.1 1.15-.38 1.81.5 2.16 1.53Z" fill="#E3DE77"/><path d="M8.85 5.48c-.14.3-1.28 1.78-.42.76h.03c.02.01.02.03.01.04-.65.96-1.41 1.82-1.86 2.92a3.66 3.66 0 0 0-.13 1.95c.11.35.27.68.48 1 .57.86 1.44 1.01 2.38 1 0 .01 0 .01 0 0-.81.06-1.6-.04-2.2-.68-.18-.18-.41-.57-.7-1.16-.08-.2-.08-.36-.12-.6 0-.04-.01-.05-.03-.03l-.02.04c.2 2.05 1.34 2.93 3.21 2.56.96-.2 1.74-.7 2.35-1.52.32-.43.61-1.1.93-1.63a4.52 4.52 0 0 1-3.68 3.64c-.52.08-.98.05-1.4-.1-.8-.3-1.31-.9-1.52-1.8a3.55 3.55 0 0 1 0-2.1l.08-.54c.03-.2.1-.36.22-.5.07-.1.1-.17.08-.25.11-.06.2-.15.26-.26V8.2l-.04.02c-.02.01-.02 0-.01-.02.37-.95 1.08-1.66 1.4-1.98-.04-.09.06-.21.27-.38.12-.17.26-.3.43-.36Z" fill="#70A65F"/><path d="M11.76 7.15c.12.44.19.9.19 1.36l-.34-.59a1.72 1.72 0 0 0-1.36-.63c-.32 0-.62.07-.9.2a4.19 4.19 0 0 0-1.32 1.06c0 .02.01.03.02.03h.02l.48-.25c.03-.01.04-.04.04-.1 0-.09.06-.17.18-.24.04-.03.08-.02.1.01.09.08.1.16.07.24a.12.12 0 0 0 .02.13c.07.09.12.14.17.15l.07-.01a.14.14 0 0 0 .06-.05.19.19 0 0 0 .03-.08v-.1a.72.72 0 0 0-.27-.36.09.09 0 0 1-.03-.05v-.04c0-.04.03-.05.07-.04.17.04.33.18.49.42.04.17-.09.35-.4.54a.95.95 0 0 0-.88-.18.83.83 0 0 0-.5.44c-.24.48-.35 1-.31 1.57-.48-.31-.5-.96-.34-1.46.37-1.2 1-2.21 1.9-3 .55-.49 1.47-.58 2-.04.2.22.45.57.74 1.07Z" fill="#FFF191"/><path d="M7.33 7.33 7 7.82c-.12.1-.2.23-.26.38-.01.03 0 .03.01.02l.03-.02c.02 0 .02 0 .01.02a.64.64 0 0 1-.26.26l.39-.84A.2.2 0 0 1 7 7.55a.2.2 0 0 0 .08-.06c.24-.47.6-.9 1.06-1.27l-.81 1.11Z" fill="#746D57"/><path d="m6.58 7.2-.07-.24c-.02-.05.01-.09.1-.13a.12.12 0 0 0 .06-.1c.01-.08.07-.14.19-.18.04-.02.06 0 .05.04a.38.38 0 0 1-.1.16.08.08 0 0 0 0 .11c.05.06.06.1.04.15-.06.16-.16.22-.27.18Z" fill="#FFDBB9"/><path d="m7 7.82.33-.49c.27-.17.49-.4.67-.68 0-.02.02-.02.03 0v.02L6.69 8.8h-.04l-.01-.04v-.05l.37-.9Z" fill="#BDCA6B"/><path d="M6.43 7.46c-.16-.02-.24-.08-.25-.17V6.8a.05.05 0 0 1 .03-.02l.04.01.02.04.16.62Z" fill="#378097"/><path d="m12.02 8.65-.07-.14c0-.46-.07-.92-.2-1.36.33.5.41 1 .27 1.5Z" fill="#E3DE77"/><path d="M11.61 7.92c-.1.03-.25 0-.43-.08l.09-.01c.04-.03.04-.05 0-.07l-.58-.25c-.03-.01-.04 0-.04.03.01.12.04.22.1.3.03.05.04.09.02.13l-.05.14c-.03.07-.06.07-.1.02a.67.67 0 0 1-.16-.6c0-.05 0-.08-.04-.1h-.05c-.03 0-.05.02-.08.06a.97.97 0 0 0-.1.58c-.11-.05-.18-.12-.18-.2a3.87 3.87 0 0 0-.05-.38c0-.04-.04-.06-.08-.05-.18.03-.33.08-.45.15-.08.04-.08.08 0 .1.19.06.23.23.12.52-.16-.24-.32-.38-.5-.42-.03-.01-.05 0-.06.04v.04c0 .02.01.04.03.05.13.1.22.22.26.37v.09c0 .03 0 .05-.02.08a.14.14 0 0 1-.06.05.12.12 0 0 1-.07 0c-.05 0-.1-.05-.17-.14a.12.12 0 0 1-.02-.13c.04-.08.02-.16-.06-.24-.03-.03-.07-.04-.11-.01-.12.07-.18.15-.18.25 0 .05-.01.08-.04.1l-.48.24h-.02l-.02-.03c.42-.48.86-.83 1.33-1.06.27-.13.57-.2.9-.2.53 0 .98.2 1.35.63Z" fill="#42302B"/><path d="M10.2 8.07c.12.45.3.8.52 1.06.1.28.23.45.42.52.17.1.35.05.55-.15.05.04.07.1.05.15a.2.2 0 0 1-.08.1c-.1.07-.15.15-.15.25 0 .03.01.06.03.08.02.03.04.04.06.05.03.01.06.02.08 0 .03 0 .05-.01.07-.04.1-.11.2-.18.27-.2l.04.06a.1.1 0 0 1 .01.12l-.32.52a4.12 4.12 0 0 1-3.21.88c-.1-.02-.24-.08-.43-.2a.2.2 0 0 0 .21-.1.11.11 0 0 1 .1-.05c.14 0 .25-.04.32-.13.08-.1.06-.17-.05-.21l-.56-.24a.08.08 0 0 0-.08-.04c-.24-.28-.46-.48-.42-.83v-.02l.02-.01h.02v.02a1.52 1.52 0 0 0 .1.3c.26.46.61.63 1.04.52.33-.1.54-.31.65-.65.1-.37 0-.73-.3-1.08.3-.2.43-.37.39-.54.1-.29.07-.46-.11-.52-.09-.02-.09-.06-.01-.1.12-.07.27-.12.45-.15.04-.01.07 0 .08.05l.05.37c0 .09.07.16.18.21Z" fill="#FEFAE5"/><path d="M11.18 7.84c-.35.21-.5.58-.43 1.08.01.07 0 .14-.03.21-.22-.26-.4-.61-.53-1.06a.97.97 0 0 1 .1-.58c.03-.04.05-.06.08-.06h.05c.03.02.05.05.04.1-.05.23 0 .44.16.6.04.05.07.05.1-.02l.05-.14a.13.13 0 0 0-.02-.12.57.57 0 0 1-.1-.31c0-.03.01-.04.04-.03l.57.25c.05.02.05.04.01.07h-.1Z" fill="#E3DE77"/><path d="M11.18 7.84c.18.08.33.11.43.08l.34.6.07.13c.07.2.1.36.11.5-.04.2-.1.33-.16.42l-.2-.35-.05-.66c0-.02 0-.02-.03-.02-.01 0-.02 0-.02.03l-.02.3c-.29 0-.57.06-.83.19l-.07-.14c-.06-.5.08-.87.43-1.08ZM9.16 8.75c.3.35.4.7.3 1.08a.89.89 0 0 1-.65.65c-.43.11-.78-.06-1.04-.52a1.51 1.51 0 0 1-.1-.32h-.03l-.01.03c-.04.35.18.55.42.83-.26.1 0 .24 0 .62v.1l-.12.01c-.14-.14-.25-.16-.35-.05l-.12-.6c-.04-.57.07-1.09.32-1.57a.83.83 0 0 1 .5-.44c.3-.1.6-.03.88.18Z" fill="#1D262D"/><path d="M11.76 9.22c0 .07 0 .09-.01.03-.07.11-.15.2-.22.26a.43.43 0 0 1-.19.07.63.63 0 0 0-.2.07c-.19-.07-.33-.24-.42-.52a.36.36 0 0 0 .03-.2l.07.13c.1.2.24.3.4.32.13.02.23-.03.3-.15.07-.1.11-.22.13-.36l.02-.3c0-.02 0-.03.02-.03s.03 0 .03.02l.04.66Z" fill="#AFE5D4"/><path d="M11.65 8.87a.83.83 0 0 1-.13.36c-.07.12-.17.17-.3.15-.16-.01-.3-.12-.4-.32.26-.13.54-.2.83-.2Z" fill="#027974"/><path d="m11.5 11.23-.6.5c-.24.2-.46.33-.65.41-1.09.48-1.98.16-2.67-.96.1-.1.21-.1.35.05-.13.04-.16.1-.1.19.17.23.41.38.7.45.24.06.4.08.5.09.14 0 .3 0 .5-.03.44-.04.83-.17 1.16-.4l.61-.4c.2-.12.36-.3.45-.54l.32-.52a.1.1 0 0 0 0-.12l-.05-.06-.05-.32c.06-.09.12-.23.16-.41.09.1.13.2.12.28a2.01 2.01 0 0 0-.02.13c.03.24 0 .44-.08.61-.14.3-.35.65-.65 1.05Z" fill="#746D57"/><path d="m11.97 9.57.05.32c-.08.02-.17.09-.27.2a.14.14 0 0 1-.07.05h-.08a.14.14 0 0 1-.06-.06.15.15 0 0 1-.03-.08c0-.1.05-.18.15-.25a.2.2 0 0 0 .08-.1c.02-.06 0-.1-.05-.15.07-.07.09-.15.06-.25 0 .06 0 .04.01-.03l.21.35Z" fill="#EB7C80"/><path d="M11.75 9.25c.03.1 0 .18-.06.25-.2.2-.38.25-.55.15a.63.63 0 0 1 .2-.07.43.43 0 0 0 .19-.07c.07-.06.15-.15.22-.26Z" fill="#746D57"/><path d="M12.88 9.69c.07-.02.09.05.06.2a4.81 4.81 0 0 1-3.88 4.05 3 3 0 0 1-1.5-.09 3.9 3.9 0 0 1-1.38-.78c.1-.04.19 0 .28.15l.04.02h.08c.04 0 .05-.02.02-.06a2.68 2.68 0 0 1-.54-.86c.02-.15 0-.26-.1-.33a.14.14 0 0 1-.05-.1c-.02-.3.01-.56.1-.78l.15.75c.2.9.72 1.51 1.53 1.81.4.15.88.18 1.4.1 1.37-.25 2.44-1.02 3.2-2.3.3-.53.33-1.18.47-1.64.02-.06.05-.1.12-.14Z" fill="#213A37"/><path d="M8.05 10.5c.03 0 .06.01.08.04a.27.27 0 0 0-.03.25.2.2 0 0 1 0 .13l-.04.2-.45-.23c-.07-.03-.07-.06 0-.08a.62.62 0 0 1 .27 0c.02 0 .04-.01.04-.04v-.04l-.3-.06a.1.1 0 0 1-.04-.03.11.11 0 0 1-.03-.05c-.02-.1-.02-.17.02-.22.04-.03.07-.03.1 0 .1.15.24.19.38.13Z" fill="#746D57"/><path d="M8.11 11.27a.2.2 0 0 0-.06-.06v-.09l.05-.2a.2.2 0 0 0 0-.13.27.27 0 0 1 .03-.25l.56.24c.11.04.13.11.05.21-.07.08-.18.13-.32.13a.11.11 0 0 0-.1.06.2.2 0 0 1-.2.1Z" fill="#EB7C80"/><path d="M11.75 10.6c-.1.23-.24.4-.45.53l-.6.4c-.34.23-.73.36-1.17.4l-.5.03c-.1 0-.26-.03-.5-.09-.29-.07-.53-.22-.7-.45-.06-.08-.03-.15.1-.19l.12-.02a.2.2 0 0 1 .06.06c.19.12.33.18.43.2 1.1.19 2.16-.1 3.21-.88Z" fill="#9A9A9A"/><path d="M6.05 12.32c.13.32.31.61.55.86.03.04.02.06-.02.06H6.5c-.03 0-.04 0-.05-.02-.08-.14-.17-.2-.27-.15l-.68-.78a.34.34 0 0 1-.06-.11l-.42-1.2.34-.13c.03-.01.05 0 .06.02v.06c-.01.02-.02.03-.04.03-.04 0-.07.01-.08.05-.04.07-.03.13.01.17l.05.02.05-.01c.06-.04.1-.03.14.03a.2.2 0 0 1 .02.13c0 .1.05.15.18.16.04 0 .06.02.06.06l-.02.03h-.02a.58.58 0 0 0-.2 0l-.03.03a.05.05 0 0 0 0 .06l.02.02c.22.09.3.25.25.5 0 .04.01.07.06.07a.4.4 0 0 1 .18.04Z" fill="#378097"/><path d="M11.7 5.6c.04-.22.03-.47-.05-.76a5.12 5.12 0 0 1-.1-.5 3.55 3.55 0 0 0-.1-.49l.16-.53c.04-.15.08-.15.13 0 .28.8.35 1.64.23 2.54-.01.04-.03.05-.07.03-.12-.09-.18-.18-.2-.28Z" fill="#FFDBB9"/><path d="M11.45 3.85c.05.17.09.33.1.5l.1.49c.07.29.1.54.06.77-.23-.12-.35-.26-.36-.42-.03-.33 0-.77.1-1.34Z" fill="#EB7C80"/><path d="M7.22 5.92c.05-.02.1-.01.15 0a.2.2 0 0 1 .1.12c.07.23.01.4-.19.49a.16.16 0 0 0-.08.1c-.02.03-.04.05-.08.06h-.03l-.02-.03a.07.07 0 0 1-.02-.05c.01-.06.03-.12.06-.16a.13.13 0 0 0 .02-.12.13.13 0 0 1 .02-.12c.03-.05.03-.09 0-.13-.07-.07-.04-.12.07-.16Z" fill="#FFDBB9"/><path d="M10.55 10.14c.26.08.43-.04.51-.36h.02l.03.02c.01.01.02.03.01.05-.11.33-.32.46-.61.4a.1.1 0 0 1-.08-.07c-.07-.16-.14-.26-.2-.3-.2-.11-.2-.19.02-.23h.25c.1-.01.12.03.05.11a.32.32 0 0 0-.08.29c0 .05.03.08.08.09Z" fill="#EB7C80"/><path d="M9.79 10.35c.03.03.06.05.1.06.04 0 .08 0 .12-.03l.33-.2c.02-.01.03 0 .04.02v.06l-.02.01c-.23.2-.47.23-.72.1a.07.07 0 0 1-.03-.04v-.05l.02-.04c.03-.03.05-.03.07 0l.09.1Z" fill="#746D57"/><path d="M11.19 8.42c.05.11.15.16.22.12.08-.04.1-.15.05-.26-.05-.1-.15-.16-.23-.12-.07.04-.09.16-.04.26Z" fill="#FEFAE5"/><path d="M11.25 8.79c.07-.01.11-.05.1-.08 0-.04-.05-.06-.11-.05-.06 0-.1.04-.1.08 0 .03.05.05.11.05Z" fill="#9A9A9A"/><path d="M8.79 9.23c.14.05.28 0 .31-.1.03-.1-.05-.23-.2-.28-.13-.05-.27 0-.3.1-.04.1.05.23.19.28Z" fill="#FEFAE5"/><path d="M9.34 9.59c-.09-.04-.14-.03-.15.03-.11.44-.38.6-.79.51-.12-.03-.24-.15-.38-.38l.74-.3h.04l.04.14c.02.03.05.06.1.07.04.02.1.02.15 0 .04-.01.06-.04.06-.08v-.26c0-.25.05-.27.16-.07.03.06.04.17.03.34Z" fill="#027974"/><path d="M8.8 9.46h-.04l-.03-.07c-.02-.04 0-.06.03-.08a.1.1 0 0 1 .04 0h.02l.01.01a.05.05 0 0 1 .02.04c0 .03-.02.06-.05.1Z" fill="#9A9A9A"/><path d="M9.34 9.59c.05.17.04.3-.04.41-.4.5-.81.55-1.25.15a.45.45 0 0 1-.12-.17c-.08-.21-.05-.29.09-.23.14.23.26.35.38.38.41.1.68-.07.79-.51.01-.06.06-.07.15-.03Z" fill="#AFE5D4"/></svg>