<!-- by TradingView --><svg width="18" height="18" viewBox="0 0 18 18" xmlns="http://www.w3.org/2000/svg"><path fill="#1B3568" d="M0 0h18v18H0z"/><path d="M9.6 4.4a.66.66 0 0 0-1.22.02l-.95 2.24c-.12.3-.39.5-.7.51l-2.1.15c-.64.04-.86.91-.33 1.29l1.21.87c.2.14.45.2.69.17L8.83 9h.02c.1 0 .15.08.15.17 0 .05-.03.1-.08.13l-2.25 1.64c-.24.13-.41.36-.49.64l-.41 1.51c-.13.48.22.9.63.91.1 0 .22-.02.32-.08l2.25-1.26 2.23 1.26c.1.05.2.08.31.08a.7.7 0 0 0 .66-.81l-.38-2.7 1.99-1.9c.44-.42.18-1.2-.41-1.22l-2.02-.12a.82.82 0 0 1-.7-.5L9.6 4.4Z" fill="#FDC738"/></svg>