<!-- by TradingView --><svg width="18" height="18" viewBox="0 0 18 18" xmlns="http://www.w3.org/2000/svg"><path fill="#F0F3FA" d="M0 0h18v18H0z"/><path d="M5 4h1v4.17c.04.2.65.68 1.29.92v1.18C6.57 10.09 5 9.37 5 7.9V4Zm4.22 5.04C9.44 8.9 10 8.52 10 8V4.55c0-.3.17-.55.52-.55.36 0 .48.25.48.55v3.5a2.6 2.6 0 0 1-1.81 2.07V9.06l.03-.02Z" fill="#6A6FAF"/><path d="M9.57 7.33v.93c-.5.15-1.07.7-1.07 1.04v2.42c0 .67.92 1.28 1.7 1.28.8 0 1.8-.61 1.8-1.28v-.08c0-.3.06-.64.43-.64.36 0 .57.33.57.64v.21c0 .72-.58 2.15-2.85 2.15s-2.7-1.43-2.65-2.15V9.06c0-.49.59-1.73 2.07-1.73Zm1.76 0v.59c0 .1-.01.37-.11.59l.1.05c.24.12.68.35.68.63v.48h1c.04-.6-.24-1.92-1.67-2.34Z" fill="#12AFE4"/></svg>