<!-- by TradingView --><svg width="18" height="18" viewBox="0 0 18 18" xmlns="http://www.w3.org/2000/svg"><path fill="url(#a)" d="M0 0h18v18H0z"/><path d="M8.5 3.5c.06 0 .12.04.12.1v1c0 .04.03.07.07.06a4.15 4.15 0 0 1 1.35-.08c.17.02.34.04.51.09a.1.1 0 0 1 .09.1v1.6c0 .08-.08.13-.15.1-.14-.04-.29-.09-.45-.1A2.65 2.65 0 0 0 6.96 8.6c0 .02.02.05.05.05h.48c.02 0 .05-.02.05-.04.14-.83.78-1.48 1.6-1.66.07-.02.14.03.14.1v.38a.1.1 0 0 1-.08.1 1.46 1.46 0 0 0 0 2.83.1.1 0 0 1 .08.1v1.57c0 .06-.05.12-.11.1a3.23 3.23 0 0 1-2.82-3.18 3.23 3.23 0 0 1 3.63-3.2c.03 0 .06-.01.06-.04v-.48c0-.03-.02-.05-.05-.05l-.42-.03a3.81 3.81 0 0 0-3.82 3.8 3.81 3.81 0 0 0 4.1 3.78 3.78 3.78 0 0 0 1.45-7.17c-.03-.02-.06-.06-.06-.1v-.5c0-.04.04-.06.07-.05a4.39 4.39 0 0 1-.63 8.29c-.02 0-.04.03-.04.05v1.06c0 .05-.04.1-.09.1a6.64 6.64 0 0 1-.96.08A5.58 5.58 0 0 1 4 8.96 5.57 5.57 0 0 1 8.5 3.5ZM5.12 9.24h-.47c-.03 0-.05.04-.05.07A4.99 4.99 0 0 0 10 13.9c.03 0 .05-.03.05-.06v-.47c0-.04-.03-.06-.06-.06l-.4.02a4.4 4.4 0 0 1-4.4-4.03c0-.03-.03-.06-.06-.06Zm2.38 0h-.48c-.03 0-.06.04-.05.07.13.95.78 1.75 1.65 2.09.03 0 .08-.02.08-.06v-.48c0-.05-.02-.08-.07-.1a2.03 2.03 0 0 1-1.08-1.47c0-.02-.03-.05-.05-.05ZM9.9 7.05c0-.07.07-.12.14-.1.93.2 1.63 1.01 1.63 2 0 .98-.7 1.8-1.63 2-.06.01-.14-.03-.14-.1v-.39c0-.05.03-.1.09-.1.5-.14.9-.54 1.04-1.05.01-.03-.02-.07-.05-.07h-.5a.06.06 0 0 0-.06.04.89.89 0 0 1-.82.55.88.88 0 0 1-.86-1.06.89.89 0 0 1 .68-.7.9.9 0 0 1 1 .54c.01.02.04.03.06.03h.5c.03 0 .06-.03.05-.06-.13-.51-.53-.91-1.04-1.05a.1.1 0 0 1-.09-.1v-.38Zm-.3 1.61a.29.29 0 1 0 0 .57.29.29 0 1 0 0-.57ZM8.03 4.31c0-.05-.04-.07-.07-.06A4.97 4.97 0 0 0 4.6 8.6c0 .03.02.06.05.06h.48c.03 0 .06-.02.06-.05A4.38 4.38 0 0 1 8 4.86a.06.06 0 0 0 .03-.06v-.5Z" fill="#fff"/><defs><linearGradient id="a" x1="3.35" y1="3.12" x2="21.9" y2="24.43" gradientUnits="userSpaceOnUse"><stop stop-color="#1A1E21"/><stop offset="1" stop-color="#06060A"/></linearGradient></defs></svg>