<!-- by TradingView --><svg width="18" height="18" viewBox="0 0 18 18" xmlns="http://www.w3.org/2000/svg"><path fill="#F0F3FA" d="M0 0h18v18H0z"/><path d="M10.87 7.52c-1 0-1.37.58-1.43.86l-.3-1.9 3.56-.63C13.46 6.06 15 6.9 15 9.06c0 2.7-2.6 3.94-4.13 3.94a4.2 4.2 0 0 1-1.87-.41l.08-.1c.19.03.6.1.8.1 2.07 0 2.7-1.86 2.7-2.73 0-.87-.47-2.34-1.7-2.34Z" fill="url(#a)"/><path d="M9.71 7.93c.35-.44.97-.93 1.96-.93 1.7 0 2.88 1.73 2.79 4 .32-.54.53-1.18.53-1.94 0-2.16-1.53-3-2.29-3.2l-2.93.5-.33 2.02c.02-.12.1-.3.27-.45Z" fill="url(#b)"/><path d="m7 7.26 2.44 1.12c.09-.68.76-2.05 2.73-2.05 1.96 0 2.7 1.67 2.83 2.5A4.1 4.1 0 0 0 10.87 5C8.64 5 7.37 6.5 7 7.26Z" fill="url(#c)"/><path d="M15 8.77c-.21-1.03-1-2.68-2.81-2.68A3.26 3.26 0 0 0 9.06 8.2l.38.17c.09-.68.76-2.05 2.73-2.05 1.96 0 2.7 1.67 2.83 2.5v-.06Z" fill="url(#d)"/><path d="M7.13 10.48c1 0 1.37-.58 1.43-.86l.3 1.9-3.56.63A3.17 3.17 0 0 1 3 8.94C3.01 6.24 5.61 5 7.14 5c.92 0 1.63.27 1.87.41l-.08.1c-.19-.03-.6-.1-.8-.1-2.07 0-2.7 1.86-2.7 2.73 0 .87.47 2.34 1.7 2.34Z" fill="url(#e)"/><path d="M8.29 10.07c-.35.44-.99.93-1.98.93-1.7 0-2.86-1.73-2.77-4a3.62 3.62 0 0 0-.53 1.94c0 2.16 1.53 3 2.29 3.2l2.93-.5.33-2.02a.97.97 0 0 1-.27.45Z" fill="url(#f)"/><path d="M8.56 9.62c-.1.54-.78 1.62-2.6 1.62-1.6 0-2.54-1.25-2.95-2.2a3.16 3.16 0 0 0 2.29 3.1l3.09-.53.17-2Z" fill="url(#g)"/><path d="M11 10.74 8.56 9.62c-.09.68-.76 2.05-2.73 2.05-1.96 0-2.7-1.67-2.83-2.5A4.1 4.1 0 0 0 7.13 13c2.23 0 3.5-1.5 3.87-2.26Z" fill="url(#h)"/><path d="M3 9.23c.21 1.03 1 2.68 2.81 2.68A3.26 3.26 0 0 0 8.94 9.8l-.38-.17c-.09.68-.76 2.05-2.73 2.05-1.96 0-2.7-1.67-2.83-2.5v.06Z" fill="url(#i)"/><defs><linearGradient id="a" x1="13.22" y1="5.97" x2="9.43" y2="12.83" gradientUnits="userSpaceOnUse"><stop stop-color="#148D02"/><stop offset="1" stop-color="#10FF00"/></linearGradient><linearGradient id="b" x1="10.68" y1="6.96" x2="14.19" y2="10.99" gradientUnits="userSpaceOnUse"><stop stop-color="#0D7B00"/><stop offset="1" stop-color="#19B902"/></linearGradient><linearGradient id="c" x1="7.11" y1="7.35" x2="14.72" y2="7.35" gradientUnits="userSpaceOnUse"><stop stop-color="#064822"/><stop offset="1" stop-color="#3DE009"/></linearGradient><linearGradient id="d" x1="14.8" y1="8.01" x2="9.05" y2="8.01" gradientUnits="userSpaceOnUse"><stop stop-color="#3CDD0A"/><stop offset="1" stop-color="#2F8F12"/></linearGradient><linearGradient id="e" x1="4.78" y1="12.03" x2="8.57" y2="5.17" gradientUnits="userSpaceOnUse"><stop stop-color="#148D02"/><stop offset="1" stop-color="#10FF00"/></linearGradient><linearGradient id="f" x1="7.32" y1="11.04" x2="3.81" y2="7.01" gradientUnits="userSpaceOnUse"><stop stop-color="#0D7B00"/><stop offset="1" stop-color="#19B902"/></linearGradient><linearGradient id="g" x1="8.41" y1="10.26" x2="2.95" y2="8.94" gradientUnits="userSpaceOnUse"><stop stop-color="#086600"/><stop offset="1" stop-color="#149601"/></linearGradient><linearGradient id="h" x1="10.89" y1="10.65" x2="3.28" y2="10.65" gradientUnits="userSpaceOnUse"><stop stop-color="#064822"/><stop offset="1" stop-color="#3DE009"/></linearGradient><linearGradient id="i" x1="3.2" y1="9.99" x2="8.95" y2="9.99" gradientUnits="userSpaceOnUse"><stop stop-color="#3CDD0A"/><stop offset="1" stop-color="#2F8F12"/></linearGradient></defs></svg>