<!-- by TradingView --><svg width="18" height="18" viewBox="0 0 18 18" xmlns="http://www.w3.org/2000/svg"><path fill="url(#a)" d="M0 0h18v18H0z"/><path d="M5 4.5c0-.28.2-.5.46-.5h7.08c.25 0 .46.22.46.5v1c0 .28-.2.5-.46.5H5.46C5.21 6 5 5.78 5 5.5v-1ZM4 10c0-.28.2-.5.46-.5h7.08c.25 0 .46.22.46.5v1c0 .28-.2.5-.46.5H4.46c-.25 0-.46-.22-.46-.5v-1ZM6 12.5c0-.28.18-.5.4-.5h6.2c.22 0 .4.22.4.5v1c0 .28-.18.5-.4.5H6.4c-.22 0-.4-.22-.4-.5v-1ZM12 6.5h-1v2h1v-2Zm.67 2h.87c.25 0 .46-.22.46-.5V7c0-.28-.2-.5-.46-.5h-.87v2Zm-3.34-2h1v2h-1v-2Zm-.66 0h-1v2h1v-2Zm-2.21 0H7v2h-.54C6.21 8.5 6 8.28 6 8V7c0-.28.2-.5.46-.5Z" fill="#fff"/><defs><linearGradient id="a" x1="18" y1="9" x2="0" y2="9" gradientUnits="userSpaceOnUse"><stop stop-color="#6D37F0"/><stop offset="1" stop-color="#F752DB"/></linearGradient></defs></svg>