<!-- by TradingView --><svg width="18" height="18" viewBox="0 0 18 18" xmlns="http://www.w3.org/2000/svg"><path fill="url(#atbrdzocr)" d="M0 0h18v18H0z"/><path d="M4 11.27V6.41c0-.25.13-.5.33-.62l4.34-2.7c.2-.12.46-.12.66 0l4.34 2.7c.2.13.33.37.33.62v4.86c0 .24-.12.47-.3.6L9.35 14.9a.63.63 0 0 1-.72 0l-4.33-3.01a.74.74 0 0 1-.31-.61Z" fill="url(#btbrdzocr)"/><path fill-rule="evenodd" d="M5 6.2a.71.71 0 0 0-.33.62v4.07c0 .24.11.46.3.59l3.66 2.55c.23.15.51.15.74 0l3.66-2.55c.19-.13.3-.35.3-.6V6.83A.71.71 0 0 0 13 6.2L9.34 3.93a.63.63 0 0 0-.68 0L5 6.21Zm-1 .21v4.86c0 .24.12.47.3.6l4.34 3.02c.22.15.5.15.72 0l4.33-3.01c.2-.14.31-.37.31-.61V6.41c0-.25-.13-.5-.33-.62l-4.34-2.7a.62.62 0 0 0-.66 0L4.33 5.8A.73.73 0 0 0 4 6.4Z" fill="url(#ctbrdzocr)"/><path fill-rule="evenodd" d="M6.96 7.17c.06-.1.17-.17.3-.17h.97c.24 0 .4.23.3.43L7.66 9l.23.36 1.25-2.19c.06-.1.17-.16.3-.16h1.35l1.16 1.85c.05.1.05.2 0 .3l-1.07 1.7a.33.33 0 0 1-.28.15h-.84c-.24 0-.4-.23-.3-.43L10.34 9l-.24-.38-1.38 2.22a.33.33 0 0 1-.29.15H7.36a.28.28 0 0 1-.24-.13L6.04 9.15a.28.28 0 0 1 0-.29l.92-1.7Zm3.45.96.45.72c.06.09.06.2.01.29l-.74 1.36h.35l.94-1.5-.78-1.25-.23.38Zm-.24-.63h-.6L8.16 10l-.32.5h.46l1.88-3Zm-2.81 2.75-.78-1.26.81-1.49h.48l-.74 1.36a.28.28 0 0 0 0 .29l.46.72-.23.38Z" fill="url(#dtbrdzocr)"/><defs><linearGradient id="atbrdzocr" x1="3.35" y1="3.12" x2="21.9" y2="24.43" gradientUnits="userSpaceOnUse"><stop stop-color="#1A1E21"/><stop offset="1" stop-color="#06060A"/></linearGradient><linearGradient id="btbrdzocr" x1="11.33" y1="4.62" x2="6.8" y2="13.72" gradientUnits="userSpaceOnUse"><stop stop-color="#073455"/><stop offset="1" stop-color="#1189B3"/></linearGradient><linearGradient id="ctbrdzocr" x1="9" y1="3" x2="9" y2="15" gradientUnits="userSpaceOnUse"><stop stop-color="#4DADED"/><stop offset="1" stop-color="#AAF3F7"/></linearGradient><linearGradient id="dtbrdzocr" x1="10.24" y1="7" x2="7.7" y2="10.96" gradientUnits="userSpaceOnUse"><stop stop-color="#52B1ED"/><stop offset="1" stop-color="#ABF4F8"/></linearGradient></defs></svg>