<!-- by TradingView --><svg width="18" height="18" viewBox="0 0 18 19" xmlns="http://www.w3.org/2000/svg"><path transform="translate(0 .03)" fill="url(#a)" d="M0 0h18v18H0z"/><path d="M7.21 9.03v.1c.13.66.47 1.25 1.03 1.75.52.46 1.12.77 1.81.93.22.05.39.12.5.2.2.17.35.38.41.63.07.25.05.5-.06.74a1.09 1.09 0 0 1-1.47.54 1.05 1.05 0 0 1-.44-.4c-.06-.1-.13-.31-.22-.63-.11-.44-.3-.86-.56-1.25a3.25 3.25 0 0 0-2.1-1.48 2.23 2.23 0 0 1-.61-.18c-.33-.22-.5-.54-.5-.95 0-.42.17-.73.5-.95.09-.05.3-.12.61-.19a3.25 3.25 0 0 0 2.1-1.47c.26-.4.45-.82.56-1.26.08-.31.15-.52.21-.62a1.05 1.05 0 0 1 1-.51 1.08 1.08 0 0 1 .92.65c.1.24.13.49.06.74s-.2.45-.42.62c-.1.09-.27.15-.49.2-.69.17-1.3.48-1.8.94A3.07 3.07 0 0 0 7.2 9.03Z" fill="#fff"/><path d="M12 10.03a1 1 0 1 0 0-2 1 1 0 0 0 0 2Z" fill="url(#b)"/><defs><linearGradient id="a" x1="3.35" y1="3.12" x2="21.9" y2="24.43" gradientUnits="userSpaceOnUse"><stop stop-color="#1A1E21"/><stop offset="1" stop-color="#06060A"/></linearGradient><linearGradient id="b" x1="13" y1="8.62" x2="11" y2="9.03" gradientUnits="userSpaceOnUse"><stop stop-color="#B33FEC"/><stop offset="1" stop-color="#7F37F4"/></linearGradient></defs></svg>