<!-- by TradingView --><svg width="18" height="18" viewBox="0 0 18 18" xmlns="http://www.w3.org/2000/svg"><path fill="url(#a)" d="M0 0h18v18H0z"/><path fill-rule="evenodd" d="M9 4c-1.71.67-5 2.57-5 5.28C4 12.57 5.25 14 9 14s5-1.14 5-4.58c0-2.7-3.24-4.8-5-5.42ZM6.33 8C5.6 8 5 8.51 5 9.14v1.72c0 .63.6 1.14 1.33 1.14h.34C7.4 12 8 11.49 8 10.86V9.14C8 8.51 7.4 8 6.67 8h-.34Z"/><defs><linearGradient id="a" x1="0" y1="8.52" x2="18" y2="8.36" gradientUnits="userSpaceOnUse"><stop stop-color="#FDD214"/><stop offset="1" stop-color="#FEC513"/></linearGradient></defs></svg>