<!-- by TradingView --><svg width="18" height="18" viewBox="0 0 18 18" xmlns="http://www.w3.org/2000/svg"><path fill="#062E4E" d="M0 0h18v18H0z"/><path fill-rule="evenodd" d="M9.85 4.52a1 1 0 0 1-.54.43v.76c1 .1 1.88.62 2.44 1.39l.76-.44a1 1 0 0 1 .06-.53 4.6 4.6 0 0 0-2.72-1.61ZM8 4.1V4a1 1 0 1 1 2 .1c1.12.22 2.11.82 2.83 1.65a1 1 0 0 1 1.67.75 1 1 0 0 1-.7.95 4.96 4.96 0 0 1 0 3.1 1 1 0 1 1-.97 1.7A5.05 5.05 0 0 1 10 13.9v.1a1 1 0 1 1-2-.1 5.05 5.05 0 0 1-2.83-1.65 1 1 0 1 1-.96-1.7 4.96 4.96 0 0 1 0-3.1 1 1 0 1 1 .96-1.7A5.05 5.05 0 0 1 8 4.1Zm.15.42a4.6 4.6 0 0 0-2.72 1.6 1 1 0 0 1 .06.54l.76.44A3.38 3.38 0 0 1 8.7 5.7v-.76a1 1 0 0 1-.54-.43ZM4.66 7.49a4.52 4.52 0 0 0 0 3.02 1 1 0 0 1 .56.29l.73-.42a3.24 3.24 0 0 1 0-2.76L5.2 7.2a1 1 0 0 1-.55.29Zm.77 4.38a4.6 4.6 0 0 0 2.72 1.61 1 1 0 0 1 .54-.43v-.76a3.37 3.37 0 0 1-2.44-1.39l-.76.44a1 1 0 0 1-.06.53Zm4.42 1.61a4.6 4.6 0 0 0 2.72-1.6 1 1 0 0 1-.06-.54l-.76-.44A3.38 3.38 0 0 1 9.3 12.3v.76a1 1 0 0 1 .54.43Zm3.49-2.97a4.52 4.52 0 0 0 0-3.02 1 1 0 0 1-.55-.29l-.74.42a3.24 3.24 0 0 1 0 2.76l.73.42a1 1 0 0 1 .56-.29ZM11.75 9l-.48.94L9.61 9l1.64-.93.5.93ZM8.69 6.16v2.32l-1.63-.93.47-.83c.16-.3.5-.51 1.16-.56ZM8.4 9l-1.62-.92-.52.92.48.94L8.39 9Zm2.6 1.48-1.68-.96v1.88h1.22l.47-.92Zm-3.99 0 .47.92H8.7V9.52L7 10.48Zm3.96-2.94-1.65.94V6.16c.56.02.98.15 1.23.61l.42.77Z" fill="#F0F3FA"/></svg>