<!-- by TradingView --><svg width="18" height="18" viewBox="0 0 18 18" xmlns="http://www.w3.org/2000/svg"><path fill="#B9B9FF" d="M0 0h18v18H0z"/><path d="M4.36 5H3l1.65 3.97L3 13h1.36L6 8.97 4.36 5ZM13.64 5H15l-1.65 3.97L15 13h-1.36L12 8.97 13.64 5ZM11.42 7.42h-1.1c0-.35-.52-.7-1.22-.7s-1.33.15-1.33.92c0 .78.73.66 2.32 1.01 1.26.29 1.41 1.15 1.41 1.67 0 .74-.32 1.68-2.4 1.68-2.2 0-2.65-1.48-2.6-2h1.2c0 .63.65 1.3 1.4 1.3.76 0 1.37-.35 1.37-.98s-.52-.78-2.22-1.06C6.88 9.05 6.65 8.1 6.7 7.64 6.65 7.1 7.04 6 9.02 6c1.98 0 2.43.93 2.4 1.42Z"/></svg>