<!-- by TradingView --><svg width="18" height="18" viewBox="0 0 18 18" xmlns="http://www.w3.org/2000/svg"><path fill="url(#aev1jpgxk)" d="M0 0h18v18H0z"/><path d="M3.29 12 3 13c1.05 0 1.34-.06 1.72-.31.39-.25.7-.9.8-1.2L6.74 7C6.8 6.7 7 6 7.24 6c.23 0 .38.58.45.79l1.09 3.87c.25.78.62 2.34 2.01 2.34 1.4 0 1.86-1.82 2.13-3h1.51l.33-1h-1.3l-.29.16c.17-.57.69-2.44.84-2.81.15-.38.56-.4.75-.35L15 5h-1.05c-.89 0-1.41 1.21-1.59 1.79l-1.14 4.28c-.06.24-.24.93-.46.93-.2 0-.33-.5-.41-.72l-.81-2.95C9.28 7.26 8.78 5 7.24 5 5.87 5 5.15 7.54 4.86 9H3.29l-.26 1h1.35l.23-.11c-.42 1.8-.58 1.8-.74 1.95-.13.14-.44.16-.58.16Z" fill="#fff"/><defs><linearGradient id="aev1jpgxk" x1="3.35" y1="3.12" x2="21.9" y2="24.43" gradientUnits="userSpaceOnUse"><stop stop-color="#1A1E21"/><stop offset="1" stop-color="#06060A"/></linearGradient></defs></svg>