<!-- by TradingView --><svg width="18" height="18" viewBox="0 0 18 18" xmlns="http://www.w3.org/2000/svg"><path fill="#181B1E" d="M0 0h18v18H0z"/><path fill-rule="evenodd" d="M5.77 4 4 5.77 7.24 9 4 12.25 5.75 14v-.01l.02.01L9 10.77 12.23 14 14 12.23 10.77 9 14 5.77l-.01-.01.01-.01L12.25 4 9.01 7.24 5.77 4Zm2.78 6.31h-.01l.45-.46 3.24 3.25.87-.87L9.85 9l.45-.45h.01l2.8-2.78-.86-.86-3.24 3.25L5.77 4.9l-.87.87L8.15 9 4.9 12.25l.86.86 2.79-2.8Z" fill="url(#a)"/><defs><linearGradient id="a" x1="4.23" y1="5.22" x2="12.54" y2="13.58" gradientUnits="userSpaceOnUse"><stop stop-color="#A526B0"/><stop offset=".36" stop-color="#2A7DE3"/><stop offset=".61" stop-color="#38C96D"/><stop offset="1" stop-color="#DEEC11"/></linearGradient></defs></svg>