<!-- by TradingView --><svg width="18" height="18" viewBox="0 0 18 18" xmlns="http://www.w3.org/2000/svg"><path fill="#041912" d="M0 0h18v18H0z"/><path d="M7.06 4.64c.27-.14.93-.33 1.36 0 .43.33.44.83.38 1.04a2.32 2.32 0 0 0-.86-.71l-.88-.33Zm1.71 1.7a.48.48 0 0 1-.07.16H6v.88h.52c.12 0 .21.1.21.2v3.2c0 .12-.09.22-.21.22H6v1h3.97c.68.03 2.03-.28 2.03-1.75 0-.75-.68-1.18-1.02-1.3.21-.15.64-.59.64-1.16 0-.72-.74-1.29-1.96-1.29H9.1c-.14-.18-.06-.47.03-.6.08-.1.3-.13.63-.17l.53-.07c.5-.09 1.02-.3 1.22-.39-.15-.17-.63-.5-1.33-.5-1.11 0-1.3 1.07-1.38 1.46l-.02.1ZM8.2 7.35h1.03c.44 0 .8.3.8.65v.07c0 .36-.36.65-.8.65H8.2V7.36Zm0 2.06h1.24c.53 0 .95.33.95.74v.08c0 .4-.42.73-.95.73H8.2V9.42ZM7.59 12h.7v1h-.7v-1Zm2.12 0H9v1h.7v-1Z" fill="url(#a)"/><path fill-rule="evenodd" d="M9 14.55a5.55 5.55 0 1 0 0-11.1 5.55 5.55 0 0 0 0 11.1Zm0-.26A5.3 5.3 0 1 0 9 3.71a5.3 5.3 0 0 0 0 10.58Z" fill="url(#b)"/><path fill-rule="evenodd" d="M9 3a6 6 0 1 1 0 12A6 6 0 0 1 9 3Zm0 .28a5.72 5.72 0 1 1 0 11.44A5.72 5.72 0 0 1 9 3.28Z" fill="url(#c)"/><defs><linearGradient id="a" x1="9.07" y1="4.46" x2="9.07" y2="13.22" gradientUnits="userSpaceOnUse"><stop stop-color="#0EFFAD"/><stop offset="1" stop-color="#1FA573"/></linearGradient><linearGradient id="b" x1="9" y1="3.45" x2="9" y2="14.55" gradientUnits="userSpaceOnUse"><stop stop-color="#1E4D3D"/><stop offset="1" stop-color="#20FAAE"/></linearGradient><linearGradient id="c" x1="9" y1="15" x2="9" y2="3" gradientUnits="userSpaceOnUse"><stop stop-color="#1E4D3D"/><stop offset="1" stop-color="#20FAAE"/></linearGradient></defs></svg>