<!-- by TradingView --><svg width="18" height="18" viewBox="0 0 18 18" xmlns="http://www.w3.org/2000/svg"><path fill="#F0F3FA" d="M0 0h18v18H0z"/><path d="M11.08 13.62c5.49-3.38-15.87-12.26 2.7-7.37 0-.1 0-.04-.02-.12-.2-.41-1.1-.7-1.47-.98l-.62-.34c-.25-.11-1.25-.74-1.7-.97l-.16-.1c-.1-.07-.22-.1-.33-.15-.46-.25-.99.09-1.52.3l-.33.16-2.55 1.37c-.3.19-.91.58-1 .93-.05.15-.07.3-.07.45-.02.95 0 1.9 0 2.84 0 .46.05 1.66.2 2.04.03.07.06.08.1.14.05.1.01.08.09.15.19.22.42.42.68.55l2.79 1.61.34.17c.12.05.6.2.78.2.42 0 .52-.05.83-.15l.93-.53.33-.2Z" fill="#E49D09"/><path d="m11.51 13.38-.43.24.05-.04v-.06c-.16.03-.97.39-1.15.54l-.05.04-.1.06-.14.09c-.19.08-.72.1-.92.02l-.31-.1c-.17-.05-.36-.1-.5-.17-.1-.06-.2-.1-.31-.15l-.33-.16-.59-.36c-.1-.05-.19-.1-.28-.17-.16-.1-.31-.2-.48-.27a.2.2 0 0 1-.07-.05c-.03-.03-.06-.07-.22-.14a.26.26 0 0 1-.09-.05 1 1 0 0 0-.2-.13l-.08-.03c-.12-.07-.4-.25-.49-.36-.36-.43-.57-1-.58-1.56v-.32a24.7 24.7 0 0 1 .01-1.69c.02-.57.04-1.13 0-1.7 0-.32.07-.44.18-.6.04-.06.09-.12.13-.2l.07-.09a.37.37 0 0 0 .07-.09c.06-.1.1-.12.15-.13.03 0 .07-.02.12-.08L5 5.64l.03-.03.2-.15.08-.03a2.31 2.31 0 0 1 .3-.14l.28-.15.28-.2.21-.1a21.22 21.22 0 0 0 .24-.14l.17-.1c.13-.05.25-.1.36-.17l.27-.14.47-.23c.14-.04.2-.08.29-.12l.18-.09a.62.62 0 0 1 .13-.04c.08-.01.16-.03.2-.1.07-.08.1-.09.23-.1.4-.01.43 0 .66.15a9.52 9.52 0 0 0 .24.16c.1.08.14.1.24.16l.05.03.6.35.18.08.16.08c.31.16.66.33.93.5l.62.36.12.07c.15.1.3.18.44.32l.19.13.1.06c.08.05.24.16.33.18v-.07l-.02-.05.06.13.04.09c.13.25.14.63.14.91v3.94c-.01.2-.05.26-.1.35l-.07.12c-.31.62-1.25 1.1-1.86 1.42l-.05.03c-.16.08-.2.12-.25.15a.92.92 0 0 1-.16.12Z" fill="#FECD01"/><path d="M9 13.88c.06.09 0 .05.1.08.1.02.3 0 .38-.01l.38-.13c.11-.05.13-.09.22-.13.16-.06.26-.17.42-.23l.82-.39c.1-.04.09-.02.17-.09l.07-.04c.5-.3.97-.6 1.45-.91.12-.07.2-.14.28-.2.06-.05.07-.06.12-.13.13-.18.15-.36.16-.59 0-.13.02-.18.07-.29l.01-.03c.07-.2.14-.51.07-.73v-.02c-.16-.47-.15-.55-.15-1.07 0-.65-.07-1.22-.07-1.89 0-.14.02-.35-.04-.46l-.1-.13-.8-.68c-.03-.03-.02-.04-.06-.06v-.01c-.12-.08-.06-.08-.2-.16l-.14-.12c-.14-.12-.35-.2-.47-.27-.08-.05-.09-.06-.19-.08l.01-.01v-.02c-.22-.04-.14-.08-.56-.14h-.06l-.03-.02-.47-.26c-.37-.2-.73-.43-1.14-.55-.28-.08-.5.02-.76.09l-.38.13c-.06.02-.1 0-.16.03-.09.03-.09.06-.14.12-.06.07.05-.01-.05.03l-.05.02-.07.02c-.18.05-.15.03-.3.11l-.02.01-.22.15c-.18.05-.48.16-.6.3l-.05.03-.1.04c-.3.15-.06-.03-.36.2-.06.05-.07.01-.2.1l-.1.06-.37.22c-.19.1-.33.3-.48.41l-.01.01-.22.24a.41.41 0 0 0-.1.2c-.03.14-.06.1-.06.28-.02.79.01 1.59 0 2.38 0 .13-.03.17-.04.3-.01.47 0 1.12.16 1.55l.07.19c.18.4.53.7.92.9.03 0 .05.03.1.06l1.08.63.05.02c.1.06.15.1.25.19.05.05.16.08.23.12l.33.18.3.14.07.03c.17.08.32.2.52.2-.04-.08-.04-.07-.2-.13a.74.74 0 0 1-.1-.04c-3.32-5.57 4.05-5.03.8.25Z" fill="#FBEC02"/><path d="M5.1 11.74c.13.06.11.12.25.18l.05.02c.07.03.12.08.22.1-.03-.07-.1-.08-.16-.13.25-3 4.88-8.12 7.8-4.26.01-.19-.02-.52 0-.65a1 1 0 0 0-.12-.46 1.62 1.62 0 0 0-.66-.54c-.13-.07-.25-.16-.38-.22l-1.95-1.1c-.12-.08-.26-.12-.4-.2-.65-.43-1.2-.22-1.81.15L5.56 5.9c-.35.21-.38.22-.7.51-.27.26-.25.5-.25.97 0 .56.04 3.03.1 3.52.03.27.18.74.38.83Z" fill="#A04500"/><path d="m6.2 12.4-.45-.28-.3-.21c-.2-.15-.23-.25-.28-.35l-.09-.16c-.17-.26-.21-.6-.22-.92l-.02-.4c-.05-.96-.14-2.78.11-3.3l.57-.58c.19-.14.4-.26.61-.38.24-.13.48-.27.66-.42.11-.09.3-.18.46-.26l.2-.1.39-.2.06-.03a.48.48 0 0 1 .13-.07l.45-.14c.22-.08.52-.15.78-.08l.63.25.12.06c.02 0 .04.02.06.04l.26.12c.08.03.1.04.33.2l.56.3a1 1 0 0 1 .2.13c.06.04.1.08.36.19l.41.23h.02l.33.19.1.07.05.05.03.01c.06.04.2.12.22.34h.02v-.01l.15.26.04.08.02.03c.1.24.1.47 0 .7l.03.12c.09.76.13.6.15.6.02 0 .02.16.01 1.52v.33c.02.38.03.79-.12 1.06-.1.18-.2.28-.37.4h-.02c-.11.08-.37.24-.45.24l-.12.04c-.23-1.37-.73-2.18-1.27-2.58a65.47 65.47 0 0 1-2.08 1.1c.02.72.43 1.62 1.5 2.55-.03.06-.03.06-.08.1l-.02.01a1 1 0 0 1-.12.07.47.47 0 0 0-.2.14l-.25.18a.75.75 0 0 0-.17.07c-.06.03-.12.07-.22.1-.15.03-.33.04-.5.03-.16 0-.34-.1-.5-.18l-.26-.1-1.48-.86-.37-.25-.06-.06Z" fill="#DD8601"/><path d="M10 13.46c.12-.04.24-.11.32-.17.45-.3 1.45-.87 1.92-1.13l.03-.02.05-.03.04-.04.03-.05-.12.04c.04-.13.16-.23.3-.36.29-.26.67-.6.67-1.39l-.01-.43-.01-.35v-.05h-.04c-.03-.97-.75-2.36-1.2-3.05.02-.05.04-.1.04-.17l-.13.02-.2-.25-.17-.11c-.05-.06-.13-.1-.2-.13a3.2 3.2 0 0 1-.06-.03l-.09-.05v-.02l-.87-.5c-.14-.1-.8-.27-.99-.27-.13 0-.22 0-.34-.05-.04-.03-.02-.02-.01-.02l-.04-.02c-.14 0-.3 0-.4.02h-.04a.25.25 0 0 0-.07.02l-.05.04-.19.08-.24.1-.28.14-.15.07-.21.1-.08.06a.32.32 0 0 1-.1.06l-.3.13-.1.07-.13.09c-.07.04-.47.28-.51.32l-.12.09a.9.9 0 0 0-.25.2l-.1.1-.03.03-.01.01-.04.05-.24.4-.07.14-.06.14-.05.1-.02.04v.01l-.03.03c-.03.04-.03.1-.04.15v.1a11.67 11.67 0 0 0 .04 3.02l.02.03c.01.02.04.05.05.1l.14.46.19.25c.13.17.27.3.43.43l.11.1c.09.04.09.05.1.06 0 .02.01.03.05.07.1.1.26.19.42.27l.24.13 1.3.74.05.02.03.02c.14.09.79.09 1 .08.17 0 .24-.03.34-.08l.08-.03c.06-.03.13-.04.2-.06.08-.02.15-.03.21-.06l.15-.07a.86.86 0 0 1 .25-.1c-.03.07-.03.07-.08.1l-.02.02c-.04.05-.1.08-.15.11-.06.04-.11.08-.15.13Zm3.18-3.97.01.01.03.03h-.04v-.04Zm0-.02v.02c-.01-.01-.02-.02 0-.02Z" fill="#FED201"/><path d="m8.53 10.32-.17-.08c-1.2-.14-1.07 0-.8.29.19.2.45.49.36.8l-.11.03-.13.04c-.16.03-.44.03-.6-.03a.49.49 0 0 1-.05-.04c-.05-.03-.1-.06-.15-.05l-.26-.14c0-.03 0-.03-.01-.02l.01.02v.02c-.09.18-.31-.02-.48-.18-.08-.07-.15-.13-.18-.13h-.01c-.03-.01-.05-.02-.07-.1v-.13c0-.08 0-.17-.08-.22-.05.1-.03.25-.01.36l.01.08v.03l.04.04.05.03.05.06c.1.06.14.1.21.17l.08.08c.05.03.22.23.24.27.03.1.09.18.13.23l.04.07c.03.05.06.1.12.12.03-.04.03-.1.03-.15a.78.78 0 0 1 .23-.12h.03c.15.06.23.02.28 0 .07-.04.1-.05.2.2.03.12.07.22.1.22.11-.05.11-.05.13-.04.08.06.15.09.2.11.11.04.19.07.27.29l.03.07c.03.06.06.13.06.22-.16 0-.6-.04-.76-.19-.1 0-.51-.25-.64-.33l-.03-.02-.1-.06a.26.26 0 0 0-.03-.04c.04.3 1.01.72 1.3.8.22.07.54.07.83.06h.18c.33 0 .47-.03.61-.07l.3-.06c.21-.02.43-.13.63-.23l.21-.1.06-.02c.1-.04.1-.04.13-.09l.04-.05c.06-.08.09-.1.1-.13l.02-.02.04-.08.05-.09.32-.5a.52.52 0 0 1 .05-.06l.05-.08.03-.06a1.75 1.75 0 0 1 .35-.3c.06-.04.1-.06.1-.08 0-.07-.01-.07-.03-.07l-.03-.01v.08l-.1.03c-.03 0-.05.01-.1.06-.29.24-.42.4-.62.71-.1.14-.12.2-.14.24l-.05.1-.05-.01-.04-.01v.02c.01.02.03.06.03.13-.26.11-.94-1.92-.9-1.88-.03-.13-.16-.19-.3-.13l-.24.17c-.43.29-.83.07-1.06-.05Z" fill="#AB4C00"/><path d="M10.55 9.99c.06-.04.04.07.05-.05.01.06-.02.16-.04.22l-.02.13-.12.34c-.06.11-.1.3-.11.3l-.06.18c-.06.13-.08.05-.13.2-.03.1-.1.44-.08.55.1.02.24.02.33-.01.08-.03.04 0 .1-.05l-.22-.07c.3-.63.15-1.6 1.05-1.16.2.1.2-.25.22-.28-.09-.05-.14-.12-.2-.2-.1-.06-.24-.22-.33-.3a1.54 1.54 0 0 1-.3-.33c.07.03.3.22.35.28l.15.03c0-.1 0-.11-.04-.19-.05-.1-.04-.05-.1-.13-.08-.14-.02-.15-.2-.22v-.2c-.33.03-.27.44-.5.27-.04-.03-.05-.1-.15-.19-.14-.13 0-.2-.28-.22l.01.2c0 .1.02.11.02.19 0 .13-.06.07-.16.24-.22.4-1.13.43-1.57.43l-.32.03c-.08.03 0-.02-.06.04.15.05 1.09.03 1.28-.02.21-.05.5-.2.67-.33.11-.09.09-.09.18-.17.14.03.18.11.33.18.36.16.28.17.25.31Z" fill="#B35400"/><path d="M7.82 7.51c-.03.3.17.76.18.78.01.16 0 .06-.03.1-.15-.08-.32-.6-.35-.82-.06.02-.05.01-.12 0 0 .16.19.47.18.65l.02.04c.03.06.08.18.03.25-.08-.03-.07-.02-.1-.1-.03.06.1.22.1.37-.27.02-.42-.25-1.44-.24-.13 0-.36.03-.45.11l.02.01.16.05c.32.03.33-.07.56.01.16.06.5.08.62.13.06.03-.03.01.07.05.1-.04.06-.08.18-.05.05 0 .12.05.2.06.22.06.15-.05.37-.07h.03c.15-.18.46-.25.55-.28l-.05-.1c-.15-.17-.08-.46-.1-.56 0-.14.03-.09.03-.22-.27-.05-.22.05-.2.3l.1.56c-.21-.14-.2-.74-.45-1.05-.12 0-.05-.01-.1.02Z" fill="#AB4C00"/><path d="M11.97 9.77c-.04.03-.04.05-.1.07l-.1-.13c-.29-.49-.61-.56-.6-1.01.17 0 .08.03.2.1l.3.18.05.02c.25.03.3-.12.3.4 0 .12-.06.26-.05.37Zm0 0c.08-.06.05-.2.13-.25.01.16 0 .22.05.35l.02.04v.02l.06.15.02.03.01.02.02.01c.25.01.13 0 .26-.08l.07-.05v-.02c.07-.13.07-.16.07-.31l-.01-.42c-.17-.1-.1-.03-.24-.2-.14-.17-.2-.17-.36-.05l-.1-.23h-.27c-.22-.02-.49-.3-.6-.19 0 .01-.09.39.03.52l.45.52.01.01.06.08c.04.09.03.12.09.2.1.11.03.07.1.15.05-.03.08-.05.1-.12a.6.6 0 0 0 .03-.18Z" fill="#FFCE05"/><path d="M9.43 6.93 9.1 7c.05.17.06.18.14.2.47.11.23-.02.77.34.92.62.61.36 1.06.43.05.21-.03.26.05.44h.32c-.08-.12-.15-.1-.2-.18h.01l.05-.02.09.02c.2.07.26.13.53.15.1.2.13.14.33.23.12.05.26.08.39.14h.1c-.02-.1-.05-.06-.1-.14-.03-.09 0-.16-.03-.26-.1-.01-.17-.04-.26-.04-.37-.02-.09.1-.57-.06-.07-.03-.15-.03-.2-.08l-.04-.03c.03-.1.02-.07.11-.12.09-.05.1-.06.19-.07v.02s-.06-.03.1-.08c.12-.04.36.02.46-.02 0-.15-.11-.08-.25-.08-.2.02-.4.1-.55.16-.03.08.03.01-.06.08-.23.17-.32.02-.44-.1-.15-.15-.1-.02-.3-.1l-.02-.1-.01-.07-.02-.04c-.15.06-.04.04-.11.16-.16 0-.11-.14-.15-.3-.16-.1-.12 0-.26.05l-.1-.07c.06-.1.13-.1.21-.17l.18-.18c0-.07.02-.04-.02-.1-.08.05 0 0-.07.07-.02.02-.02.04-.05.06a.4.4 0 0 1-.12.1c-.25.13-.4.11-.6-.08-.1-.09-.04-.2-.04-.33-.12.02-.06.05-.18.1Z" fill="#B35400"/><path d="M10.59 8.53c.12.24.1.12.17.24l.04.1c.15-.06.33-.29.22-.47-.04-.05-.05-.04-.11-.07l-.14-.07h-.01c-.13-.07-.18-.07-.32-.18l-.56-.37c-.15-.06-.12-.05-.24-.13-.16-.11-.28-.17-.35-.01l-.01.04-.01.03c-.05.12-.05.33.01.4.08.1.27.09.53.2.1.05.17.1.25.13l.25.12c.23.11.1.06.28.04Z" fill="#FFD40B"/><path d="M8.6 8.55a.7.7 0 0 0-.05-.1c.14.03.43.04.54-.04a.6.6 0 0 1 .38-.05l.35.1c.12.01.16.01.2.03.05.01.1.05.24.13.06.04.08.06.1.06l.11-.03.29.33.18-.1v.2c.09.02.13.08.17.14.14.17.34.53.34.73-.14 0-.14 0-.16-.03-.17-.2-.98-.27-.97-.26.86.37-.3.36-1.2.47-.16.02-.29 0-.43-.01-.5-.06-.96-.13-.89.36-.71-.7-.99.16-1.71.16.02-.1.1-.13.19-.17.23-.1.42-.28.62-.42l.05-.03c.5-.27.95-.4 1.77-.46.15 0 .25-.03.35-.1.34-.3.65-1.36-.7-.79l-.16.08-.16.08c.12-.14.35-.22.48-.26l.07-.02Z" fill="#E99902"/><path d="M6.15 7.8h.02l.02.01.17.04c.12.03.4.15.56.2.92.33.4.56.3-.25 1.06.38-.2.06.75.59.03-.04.05.06.03-.1 0-.02-.2-.48-.17-.78-.12.1.04.4.02.56-.06-.1-.12-.3-.15-.45l-.05-.27c-.03-.16-.32-.34-.48-.53-.09-.08-.08-.1-.2-.12.05.3.35.46.33.64 0 .12-.03 0-.03.3-.23-.03-.13-.12-.29-.16.02.13.1.1.1.46-.18 0-.34.02-.5-.03a2.35 2.35 0 0 0-.43-.1Z" fill="#EE9601"/><path d="M9.43 6.93c.37-.16-.04.05.2.27.97.73.78-.62 1.16.65.2.07.12-.07.27.09.12.12.25.26.48.09.08-.07.01-.03.05-.1l-.22.05c-.15-.23-.19-.12-.23-.22-.04-.14.3-.34.32-.51-.06.02-.27.22-.32.27l-.11.16c-.18.23-.21 0-.15-.15.06-.14.24-.46.25-.58-.14.07-.16.12-.25.13h-.08c-.1-.05-.14-.23-.18-.33-.1-.04-.02 0-.1-.07v.2c-.15 0 0-.04-.16-.07 0 .31-.28.52-.6.27-.02-.17-.06-.21-.03-.3.05-.16.05-.38-.13-.44.06.46-.04.32-.17.6Z" fill="#DD8201"/><path d="m7.05 10.3-.07.06s.05 0 .16-.05c.26-.1.3.1.31.17l.01.03c.04.04.09.06.14.08.04 0 .07.02.1.05l.02.03c.05.06.06.07.24.07l-.04.37c.08 0 .1-.02.13-.03.02 0 .04-.02.11-.02 0 .17-.1.23-.24.27.01-.03-.08.02-.11.03l-.13.04c-.16.03-.44.03-.6-.03l-.06-.04c-.05-.03-.09-.05-.14-.05-.09-.09-.09-.1 0 0l-.26-.14-.19-.04c0-.27.32-.58-.04-.45.05-.06.1-.08.16-.1l.02-.02c.17-.06.3-.19.48-.24Z" fill="#BE6500"/><path d="M11.14 10.09c.26.23.44.34.19 0l.3.27h.04l.02-.01.02-.01c-.05.04-.03.02 0 0 .02-.01.04-.03 0 0v-.01l.03-.04.07-.1c.05-.08.1-.17.19-.2v.28l.01.02c.05.2.43.15.44.14l.14-.14c.07-.07.14-.15.22-.2 0-.08-.02-.16-.04-.25-.03-.12-.06-.24-.05-.4v-.16c0-.14-.01-.27.04-.34.02-.03.05-.07.09-.09.02.08.03 1.16 0 1.28a.78.78 0 0 1-.1.2l-.04.05a.38.38 0 0 0-.04.04l-.03.06a.29.29 0 0 1-.04.05l-.07.07c-.04.02-.07.05-.1.09l-.11.13-.05.05-.04-.01s.02 0-.01-.02a1.82 1.82 0 0 0-.07-.04c-.05-.04-.07-.05-.12-.12a1.22 1.22 0 0 1-.04-.06c-.04-.08-.08-.14-.2-.16.01.06.04.08.07.11l.09.1a.47.47 0 0 1-.2-.17c-.04-.04-.06-.08-.13-.1v.01l-.09.1v-.07V10.54l-.02.03-.02.03-.01.01-.03.02.01-.1-.01.1c0 .03-.12.23-.22.4l-.13.24c-.1.2-.26.45-.52.46l-.24.04.25-.03-.01.02-.05.02-.06.02-.34.04c0-.05.03-.1.06-.17.05-.11.13-.28.18-.54l.04-.14.03-.12c.02-.09.04-.1.05-.11.02-.01.03-.02.04-.1l.19-.79c.18-.02.26.07.35.15l.07.07Zm-.8 1.66a.1.1 0 0 1 .03-.04l.02-.17c0 .14-.01.15-.02.17-.01 0-.02.01-.02.04Zm.09-.44v-.01Z" fill="#E08A01"/></svg>