<!-- by TradingView --><svg width="18" height="18" viewBox="0 0 18 18" xmlns="http://www.w3.org/2000/svg"><path fill="#16205B" d="M0 0h18v18H0z"/><path d="M5.29 5.63v.02c.61.58 1.38.96 2.22 1.01.41.03.82-.04 1.19-.21l.44-.23.86-.5c.24-.12.48-.23.7-.3a3 3 0 0 1 1.7-.08 5.05 5.05 0 0 0-7.1.28Zm8.04.85a8.24 8.24 0 0 0-.4-.58 3.18 3.18 0 0 0-1.6-.27c-.78.1-1.47.54-2.13 1.02-1.31.95-3.1.27-4.14-.72a.02.02 0 0 0-.04 0l-.19.27a4.47 4.47 0 0 0 2.36 1.3c.74.12 1.45 0 2.07-.45.25-.18.5-.34.72-.47.41-.25.86-.46 1.34-.53.37-.06.75-.03 1.14.08.31.09.6.2.87.35Zm.51 1.12a4.27 4.27 0 0 0-1.02-.54c-.42-.16-.9-.24-1.35-.18-.43.06-.83.2-1.2.42-.18.1-.36.23-.55.35-.2.14-.4.27-.62.4-.18.1-.32.17-.44.21-.71.26-1.5.19-2.2-.06A4.6 4.6 0 0 1 4.47 6.8v-.03l.16-.26h.01a4.33 4.33 0 0 0 3.13 1.46c.54 0 1.03-.17 1.48-.48.5-.35.97-.66 1.5-.87a2.62 2.62 0 0 1 1.77-.08 4.74 4.74 0 0 1 1.14.54l.19.5v.01Zm-1.16.24c.46.14.92.36 1.3.65.02.01.02.01.02-.01a1.28 1.28 0 0 0-.45-.62c-.07-.06-.19-.13-.36-.23-.7-.38-1.54-.5-2.28-.22-.43.17-.87.46-1.24.7l-.27.18a3.33 3.33 0 0 1-3.25.2 4.82 4.82 0 0 1-1.8-1.36h-.03l-.1.25.01.05.06.07a4.8 4.8 0 0 0 1.93 1.43 3.8 3.8 0 0 0 1.65.28c.73-.03 1.3-.38 1.9-.75.27-.17.55-.34.86-.5a2.77 2.77 0 0 1 2.05-.12ZM4 8.25l.1-.44A5.01 5.01 0 0 0 7.2 9.65c.61.1 1.2 0 1.74-.25.3-.13.59-.3.87-.48.5-.32 1.02-.63 1.61-.73.8-.14 1.6.06 2.22.58.17.13.25.3.28.49h-.02c-.43-.27-.86-.49-1.36-.6a2.7 2.7 0 0 0-1.58.1c-.4.15-.76.38-1.15.63l-.37.23c-.3.18-.61.33-.91.42-.36.12-.77.15-1.15.11A5.17 5.17 0 0 1 4 8.26Zm.17 1.05c.1.11.21.23.36.36 1.12.99 2.72 1.7 4.21 1.18a3.41 3.41 0 0 0 .8-.4l.83-.52a3.29 3.29 0 0 1 1.67-.48c.54.01 1.07.18 1.53.47l.25.14h.05c.09-.13-.21-.42-.27-.47-.24-.2-.5-.34-.78-.42a2.85 2.85 0 0 0-1.68.01c-.53.17-1.02.47-1.49.77-.29.19-.6.38-.84.48-.36.15-.73.22-1.12.22-.7-.01-1.37-.23-2-.56a5.8 5.8 0 0 1-1.6-1.23c0 .13-.01.33.08.45Zm-.02.46c.73.79 1.7 1.4 2.75 1.62a3.88 3.88 0 0 0 1.58-.02c.14-.03.25-.07.34-.1.29-.13.54-.26.77-.4.39-.25.66-.42.81-.5a3.44 3.44 0 0 1 1.92-.5c.33.03.72.16 1 .32.12.07.54.34.39.53-.03.03-.07.04-.12.02a3.36 3.36 0 0 0-1.32-.43c-.4-.04-.8.02-1.19.16-.48.18-.88.41-1.35.69l-.3.17c-.28.16-.56.29-.84.38-.4.14-.8.2-1.21.16a3.82 3.82 0 0 1-.7-.13 5.7 5.7 0 0 1-2.4-1.47c-.1-.11-.14-.35-.15-.5h.02ZM9.05 12c-1.44.6-3.06.1-4.22-.83a.9.9 0 0 0-.18-.12.06.06 0 0 0-.06 0 .06.06 0 0 0-.03.05l.01.06c.06.2.2.35.39.49.2.16.46.33.79.52.65.4 1.36.5 2.12.45a4.25 4.25 0 0 0 2-.65c.53-.33 1.01-.61 1.57-.8a2.3 2.3 0 0 1 1.9.12c.08.04.12.02.13-.06v-.02a.17.17 0 0 0-.1-.18c-.36-.18-.7-.3-1.01-.34-.45-.05-.9.02-1.35.22-.37.16-.72.38-1.04.58l-.43.26c-.19.1-.35.2-.5.25ZM6.7 13.38a3.08 3.08 0 0 1-1.3-.95v-.02c.03-.02.05-.02.09 0 .07.02.15.07.24.12l.14.07a3.98 3.98 0 0 0 2.85.3 5 5 0 0 0 1.2-.49l.22-.13.88-.47c.22-.1.4-.17.55-.21a2.09 2.09 0 0 1 1.61.11.05.05 0 0 1 0 .06c-.06.11-.16.12-.29.1a3.32 3.32 0 0 0-1.54.16c-.5.18-.97.48-1.4.74l-.34.2a3.69 3.69 0 0 1-2.91.41Zm2.06.37a.26.26 0 0 0-.16.12.06.06 0 0 0 0 .07c.1.08.24.06.36.05H9c.45-.05.84-.2 1.23-.44a8.6 8.6 0 0 1 1.75-.83c.08-.03.25-.06.39-.08.18-.03.35-.05.46-.21v-.02a.04.04 0 0 0 0-.04h-.02a.48.48 0 0 0-.1-.05c-.48-.12-1 0-1.43.2-.36.15-.69.34-1 .52l-.35.2c-.37.2-.76.38-1.16.5Z" fill="#fff"/></svg>