<!-- by TradingView --><svg width="18" height="18" viewBox="0 0 18 18" xmlns="http://www.w3.org/2000/svg"><path fill="#F0F3FA" d="M0 0h18v18H0z"/><path d="M10.75 6.27a2.66 2.66 0 0 0-1.5-.67c-.1-.03-.18 0-.28 0-.08.03-.09.02 0-.01l.17-.05.04-.02c.44-.49.8-.99 1-1.6.02-.06-.02-.12-.07-.12-.41-.03-.78.09-1.1.35a.6.6 0 0 0-.14.19c-.02 0-.03-.02-.02-.04A3.44 3.44 0 0 1 10.37 3l.03.01.01.02v.02c0 .17-.03.32-.07.48-.13.46-.32.9-.57 1.32-.15.25-.33.47-.52.66-.03.02-.01.07.03.08.58.05 1.07.27 1.47.68Z" fill="#040405"/><path d="M10.75 6.27c.03.01.05.03.05.06l.2.28.05.03c.25.07.5.27.7.43.43.34.75.76.97 1.24.05.1.02.14-.08.15-.15 0-.3 0-.44-.03-.35-.06-.61-.15-.77-.48l-.19-.32a.48.48 0 0 1-.07-.24c0-.36-.05-.41-.05-.02 0 .08-.02.16-.07.25-.12.23-.17.46-.19.72 0 .03-.02.04-.04.01-.18-.17-.36-.2-.56-.1-.33.18-.4.78.01.89.25.07.14-.12.5.1.32.21.6.45.87.72l.14.19c.06.08.13.12.21.13-.02 0-.04 0-.06.04l-.02.01v.04a.2.2 0 0 1 .04.2.84.84 0 0 1-.31.45l-.06-.01h.02v-.03a.28.28 0 0 0-.2-.03.62.62 0 0 1-.46-.07 16.46 16.46 0 0 1-.53-.3c-.06-.02-.08-.06-.07-.13a.1.1 0 0 0 0-.04l-.01-.03c-.02-.04-.03-.04-.03 0a6.4 6.4 0 0 0 .2 2.02.5.5 0 0 1-.06.35.07.07 0 0 1-.05.03c-.29.09-.56.1-.8.07a8.84 8.84 0 0 0-2.37-.1 2.1 2.1 0 0 1-.79-.13.7.7 0 0 1-.07-.61c.06-.21.19-.56.37-1.06a3.02 3.02 0 0 0 .17-.76.05.05 0 0 1 .08-.02.1.1 0 0 0 .1 0c.13-.09.17-.2.06-.33-.12-.16-.22-.3-.28-.43a3.58 3.58 0 0 0-.22-.37 1.47 1.47 0 0 1-.17-.36 2.59 2.59 0 0 1-.14-.65 17.06 17.06 0 0 1 0-.92c.25-.24.58-.3.81.02l.15.2c.23.31.38.58.46.8a14.98 14.98 0 0 0 .3.74v-.01a4.3 4.3 0 0 0-.2-.68v-.02l.16-.15a.54.54 0 0 0 .1-.51c-.07-.2-.24-.34-.44-.32h-.03a.03.03 0 0 1 0-.04l.22-.57c.1-.25.25-.5.46-.73a.08.08 0 0 0 .02-.06 3.54 3.54 0 0 1 .67-1.63c.32-.26.69-.38 1.1-.35h.03l.03.04a.1.1 0 0 1 0 .07 4.36 4.36 0 0 1-1.03 1.63l-.17.05c-.09.03-.08.04 0 .02.1-.02.19-.04.29-.01l.22.04c.07 0 .14.02.22.04.39.11.74.31 1.05.59Z" fill="#FFCD48"/><path d="M8.85 4.3c0 .02 0 .03.02.04a3.54 3.54 0 0 0-.55 1.5c-.21.24-.37.48-.46.73-.07.2-.14.39-.23.57 0 .02.01.05.03.04.21-.02.38.12.45.32.06.17.02.35-.1.51l-.15.15-.01.02v.03a4.3 4.3 0 0 1 .2.66h-.02c-.1-.24-.2-.49-.28-.73-.08-.23-.23-.5-.46-.81l-.15-.2c-.23-.32-.56-.26-.82-.02a17.06 17.06 0 0 0 0 .92c.02.19.06.4.15.65.04.13.1.25.17.36.08.11.15.24.22.37.06.13.16.27.28.43.1.13.07.24-.06.33a.1.1 0 0 1-.1 0c-.04-.02-.08 0-.09.05-.02.25-.08.5-.16.73l-.37 1.06a.7.7 0 0 0 .07.61c.04.12.1.22.2.28.03.02.04.04.04.07 0 .03 0 .04-.03.02l-.03-.03c-.38-.33-.4-.76-.22-1.23a7.94 7.94 0 0 0 .47-1.82 4.2 4.2 0 0 1-.56-1.63c-.05-.37-.03-.75-.06-1.12 0-.03 0-.05.03-.07.21-.24.44-.3.68-.2.18.08.27.28.4.43.03.03.05.03.07 0 .05-.1.13-.14.18-.23a5 5 0 0 0 .22-.5c.1-.28.25-.52.45-.75a.14.14 0 0 0 .03-.07c.07-.53.26-1.02.55-1.47Z" fill="#B98646"/><path d="m10.8 6.33.16.17c.04.05.1.1.16.12.9.47 1.61 1.3 1.88 2.34 0 .03-.01.05-.04.05h-.02a.35.35 0 0 0-.17-.05h-.02c-.33-.11-.64-.27-.9-.49-.19-.14-.34-.3-.47-.49 0-.02.01-.03.05-.03.16.33.42.42.77.48.14.02.3.03.44.03.1 0 .13-.06.08-.15-.22-.48-.54-.9-.97-1.24-.2-.16-.45-.36-.7-.43A.08.08 0 0 1 11 6.6l-.2-.28Z" fill="#040405"/><path d="M11.43 7.95c-.04 0-.05.01-.05.03l-.24-.35a.04.04 0 0 0-.07 0c-.07.2-.12.4-.14.6-.01.08-.06.16 0 .24 0 .02.02.03.04.03h.85c.2.19-.81.04-.87.04l-.03.01-.01.03a.8.8 0 0 1-.21.46c-.02.03 0 .07.03.07.06 0 .11.02.16.06.59.47 1.48.3 1.86-.22 0 .01 0 .02.02.01l-.06.14-.58 1.1c-.02.04-.07.06-.14.08a.31.31 0 0 1-.21-.13c-.1-.12-.14-.19-.14-.2a5.7 5.7 0 0 0-.87-.7c-.21-.15-.34-.03-.53.06-.22.09-.43.15-.64.18-.01 0-.03-.04-.01-.04.25-.05.48-.12.7-.22.07-.03.07-.07-.02-.09-.4-.11-.34-.7 0-.88.19-.1.37-.08.55.1.02.02.04.01.04-.02.02-.26.07-.5.2-.72a.52.52 0 0 0 .06-.25 3.7 3.7 0 0 1 .03-.29c.02.1.02.2.02.3 0 .08.03.16.07.25l.19.32Z" fill="#B98646"/><path d="M11.84 8.47c.27.22.58.38.91.48l-.05.07-.55 1.05c-.05.1-.1.14-.17.14-.15 0-.64-.68-1.09-1.04a.29.29 0 0 0-.17-.06h-.01a.04.04 0 0 1-.01-.07.8.8 0 0 0 .2-.46l.02-.03h.03c.06 0 .94.03.87-.05 0 .02.01.01.02-.03Z" fill="#FFCD48"/><path d="m11.58 11-.66.02-.03.01-.02.03V11.37l-.02.02-.4.32c-.03.01-.03.03-.03.06.05.2.1.4.13.61.06.35-.05.62-.34.8-.03.02-.02.06 0 .07.23.13.43.3.58.53.1.13-.05.24-.17.22-.4-.09-.8-.25-1.21-.49-.07-.04-.1-.1-.15-.16a.08.08 0 0 0-.06-.03c-.5-.07-1.02-.17-1.51-.09a.1.1 0 0 0-.06.03.76.76 0 0 1-.27.17c-.36.1-.72.19-1.1.24-.08.01-.22 0-.25-.1-.02-.08 0-.14.05-.2.16-.15.34-.27.54-.36.02 0 .02-.02.02-.03l-.01-.02.03.03c.03.02.04.01.03-.02a.09.09 0 0 0-.04-.07.47.47 0 0 1-.2-.28c.26.08.52.15.79.13a8.84 8.84 0 0 1 2.37.1c.24.04.51.02.8-.07.02 0 .04-.01.05-.03a.5.5 0 0 0 .05-.35 6.39 6.39 0 0 1-.2-2.02c.01-.04.02-.04.04 0l.01.03c.09.24.43.28.63.4.13.07.26.17.43.14.07-.02.13 0 .2.03V11h-.02Z" fill="#DF9843"/><path d="M8.23 7.16a.3.3 0 0 1-.07-.1.33.33 0 0 1 0-.25.34.34 0 0 1 .06-.1c.06-.07.14-.1.22-.11.08 0 .16.02.22.08a.3.3 0 0 1 .06.1.33.33 0 0 1 0 .25.34.34 0 0 1-.06.11.31.31 0 0 1-.22.1.29.29 0 0 1-.21-.08ZM10.37 7.35c-.11.05-.16.22-.04.28a.13.13 0 0 0 .16-.02.14.14 0 0 0 .03-.06c.02-.08-.01-.15-.1-.2.02-.04.04-.04.08-.03.43.21.07.91-.29.58-.18-.17-.1-.45.1-.56.01-.02.04-.01.06 0Z" fill="#040405"/><path d="M10.37 7.35h.05c.09.05.12.12.1.2l-.03.06a.13.13 0 0 1-.05.03.13.13 0 0 1-.11 0c-.12-.07-.07-.24.04-.3Z" fill="#fff"/><path d="M9.49 8.4c-.08-.17-.15-.27-.23-.3A1.31 1.31 0 0 0 9 8.02c-.1-.02-.22.02-.33.12l.03-.48c0-.02 0-.02.02 0 .12.15.32.1.5.08.02 0 .04.01.06.04.08.13.2.2.35.22.03 0 .04.02.02.04l-.16.36Z" fill="#6A1E1F"/><path d="M9.31 9.54c-.14.16-.35.22-.55.22-.25 0-.4-.27-.44-.5-.01-.07 0-.08.06-.02.06.07.14.12.23.14.2.07.43.1.68.12.02 0 .03.03.02.04Z" fill="#DF9843"/><path d="M7.47 7.4a.08.08 0 0 1 .03-.1.36.36 0 0 1 .29-.03c.1.03.17.1.22.19a.4.4 0 0 1-.15.54.07.07 0 0 1-.1-.03l-.3-.56ZM10.15 8.4c-.15.2-.15.46 0 .6.16.15.41.11.57-.07.15-.2.15-.46 0-.6-.16-.15-.41-.11-.57.07Z" fill="#F64D36"/><path d="M6.43 13.16c.08-.04.14-.03.2.04l.15.2c.06.07.04.12-.04.14-.19.04-.43.13-.63.04a.06.06 0 0 1-.04-.05c0-.06 0-.11.05-.14.1-.08.2-.17.31-.23ZM10.56 13.91a1.71 1.71 0 0 1-.46-.14c-.03-.02-.03-.07 0-.09l.24-.17a.11.11 0 0 1 .13 0c.1.06.16.16.2.3.02.03-.08.1-.1.1Z" fill="#FFCD48"/><path d="M8.55 6.94c.07 0 .13-.06.13-.14a.13.13 0 0 0-.13-.13.13.13 0 0 0-.13.13c0 .08.06.14.13.14Z" fill="#fff"/><path d="M9.28 8.41c.03.02.05.05.05.08v.09a.67.67 0 0 1-.36.35h-.05c-.24-.08-.2-.42-.2-.63 0-.02.02-.04.04-.04.21 0 .39.05.52.15Z" fill="#F06B6D"/></svg>