<!-- by TradingView --><svg xmlns="http://www.w3.org/2000/svg" width="18" height="18"><path fill="#F0F3FA" d="M0 0h18v18H0z"/><path d="M8.19 3.72c.5-.3 1.12-.3 1.62 0l3.38 1.94c.5.29.81.82.81 1.4v3.88c0 .58-.31 1.11-.81 1.4L9.8 14.28c-.5.3-1.12.3-1.62 0L4.8 12.34c-.5-.29-.81-.82-.81-1.4V7.06c0-.58.31-1.11.81-1.4l3.4-1.94z"/><path d="M12.24 5.88l-1.4 1.61H7.88c-.31 0-.56.33-.56.64v2.6h2.76l-1.41 1.75-.02.02h-1.7c-.8 0-1.44-.65-1.44-1.44V7.32c0-.8.65-1.44 1.44-1.44h5.28z" fill="#F0F3FA"/><path d="M12.24 5.88l-1.4 1.61H8.2c-.48 0-.77.33-.77.64v2.6h-.09c-1.2.01-1.69-.68-1.83-1.23V7.32c0-.8.65-1.44 1.44-1.44h5.28zm-4.26 8.28L14 7.26v3.68c0 .58-.31 1.11-.81 1.4L9.8 14.28c-.5.3-1.12.3-1.62 0l-.21-.12z" fill="#00B5E2"/><path d="M14 6.94l-6.2 7.13.27.15L14 7.54v-.6z" fill="#F0F3FA"/></svg>