<!-- by TradingView --><svg width="18" height="18" viewBox="0 0 18 18" xmlns="http://www.w3.org/2000/svg"><path fill="#F0F3FA" d="M0 0h18v18H0z"/><path d="M9.56 15h-.92a6.25 6.25 0 0 1-2.48-.72 5.9 5.9 0 0 1-3.15-4.76c-.05-.85.16-1.8.78-2.4.39-.4 1.01-.5 1.45-.13.22.18.32.44.3.75-.02.24-.12.44-.18.66L5 9.65c-.04.15-.1.43.02.55.09.08.2.1.32.04.29-.15.43-.46.51-.75l.71-2.39c0-.02.03-.03.05-.03h.68c.03 0 .04 0 .04.03a451 451 0 0 1-.77 2.58.9.9 0 0 0-.03.39c.03.2.23.24.4.16.28-.15.42-.5.51-.8a1320.33 1320.33 0 0 0 .71-2.36h.73c.02 0 .03 0 .02.03l-.02.06c-.01.04 0 .05.04.03.72-.39 1.56-.1 1.65.75.07.62-.26 1.17-.73 1.57-.19.16-.55.4-.58.66 0 .02 0 .04.02.06.01.02.03.03.06.03.1.02.22.01.34-.02.47-.12.86-.4 1.17-.8a.42.42 0 0 0 .08-.23c.05-.58.3-1.11.74-1.6.42-.47 1.1-.81 1.7-.46.4.24.5.7.33 1.13 0 .02-.03.03-.06.03h-.75c-.03 0-.04 0-.02-.03.1-.15.2-.29.17-.47a.06.06 0 0 0-.04-.04c-.17-.08-.35-.05-.51.08a2.1 2.1 0 0 0-.84 1.47c-.03.22 0 .42.07.59.21.5.88.4 1.3.18.57-.32.96-.8 1.17-1.46.21-.72-.01-1.6-.4-2.24a5.47 5.47 0 0 0-9.19-.32.07.07 0 0 1-.06.03h-.77a.03.03 0 0 1-.03-.01.03.03 0 0 1 0-.03 6.14 6.14 0 0 1 4.82-3.04 6.2 6.2 0 0 1 5.83 2.94c.45.73.7 1.62.58 2.45-.1.78-.47 1.43-1.1 1.97a2.3 2.3 0 0 1-1.7.6c-.5-.06-.86-.29-1.07-.68-.02-.02-.03-.03-.05 0a2.5 2.5 0 0 1-1.64.68c-.89 0-1.13-.93-.6-1.51.37-.41 1.04-.76 1.04-1.38 0-.3-.22-.44-.5-.3-.53.25-.9.84-1.06 1.37l-1.04 3.48c0 .02-.02.03-.04.03h-.7a.03.03 0 0 1-.01-.01.03.03 0 0 1 0-.03L6.97 11a.02.02 0 0 0 0-.03h-.02c-.4.06-.7-.04-.92-.3-.02-.02-.04-.02-.06 0-.2.18-.44.29-.69.31-.82.07-1.2-.66-1.03-1.36.11-.46.29-1.06.52-1.82.05-.14.06-.28-.13-.32-.18-.04-.38.16-.47.3-.77 1.06-.44 2.66.16 3.73a5.3 5.3 0 0 0 2.9 2.46 5.5 5.5 0 0 0 6.91-3l.7.01c.03 0 .04.02.03.04A6.21 6.21 0 0 1 9.56 15Z"/></svg>