<!-- by TradingView --><svg width="18" height="18" viewBox="0 0 18 18" xmlns="http://www.w3.org/2000/svg"><path fill="#F0F3FA" d="M0 0h18v18H0z"/><path d="M5 10.42V7.61c0-.46 0-1.11.61-1.11.09 0 .17.03.25.08l.95.63c.18.11.27.36.27.54v2.97c0 .74.53 1.27 1.15 1.28.21 0 .53-.05.73-.17l2.44-1.72c.36-.22.6-.65.6-1.11 0-.46-.24-.89-.6-1.11l-4.04-2.6a.6.6 0 0 1-.28-.5c0-.29.2-.53.46-.58.46-.17.62-.24 1.1-.2.5.05.96.21 1.38.47l2.3 1.42A3.65 3.65 0 0 1 14 9.32a3.58 3.58 0 0 1-1.66 2.77l-2.31 1.43c-.5.31-1.09.48-1.67.48C6.58 14 5 12.43 5 10.42Z" fill="#A643FF"/></svg>