<!-- by TradingView --><svg width="18" height="18" viewBox="0 0 18 18" xmlns="http://www.w3.org/2000/svg"><path fill="url(#aqlzefpnl)" d="M0 0h18v18H0z"/><path d="M13.95 8.27a5.25 5.25 0 0 0-1.6-3.1 4.82 4.82 0 0 0-1.3-.86l.19-.31-1.07.29.36.91.23-.39a3.91 3.91 0 0 1 1.52 1.28 4.07 4.07 0 0 1 .76 2.04 4.38 4.38 0 0 1-.84 3.06c-.34.48-.78.89-1.31 1.2l-.55-1.95.14-.06.14-.07.12-.07.1-.05.01-.02a1.68 1.68 0 0 0 .4-.36 1.72 1.72 0 0 0 .23-.48 1.56 1.56 0 0 0-.05-1.08 1.4 1.4 0 0 0-.91-.9c-.14-.06-.3-.09-.47-.1.1-.08.19-.17.25-.26a.91.91 0 0 0 .15-.27c.03-.1.04-.2.03-.3a1 1 0 0 0-.06-.31 1.4 1.4 0 0 0-.16-.3 1.06 1.06 0 0 0-.22-.23L10 5.56H10l-.01-.01-.02-.01-.01-.01-.02-.01-.01-.01a1.5 1.5 0 0 0-.34-.15 1.42 1.42 0 0 0-.25-.03h-.18l-.08.02H9l-.1.02-.17-.63-.53.14.15.62H8.3l-.02.01-.02.01h-.02l-.02.01-.35.1-.32-1.48-.06.02-.06.02-.06.02-.06.03-.1.04H7.2l-.12.06a5.26 5.26 0 0 0-2.79 6.54 5.04 5.04 0 0 0 1 1.73l-.43.68 1.58-.43L6.27 11l-.4.65a4.06 4.06 0 0 1-1.12-2.8 4.4 4.4 0 0 1 2.4-4.01l.17.92-1.17.32.07.71.58-.15.48 3.5-.7.19.12 1.15 1.56-.43.21 1.22.77-.21-.25-1.2.44-.12.05-.02h.05l.05-.02.04-.02.82 3.31a2.94 2.94 0 0 0 .41-.16l.1-.04a5 5 0 0 0 2-1.64 5.34 5.34 0 0 0 1-3.89Zm-5.7-.92-.23-1.03.3-.08.04-.01a2 2 0 0 1 .46-.06c.04 0 .08 0 .1.02.04 0 .07.02.1.04l.07.07c.03.03.05.06.06.1a.8.8 0 0 1 .08.38c0 .04-.02.07-.03.1a.4.4 0 0 1-.06.1.6.6 0 0 1-.09.08 1.32 1.32 0 0 1-.26.14l-.18.06-.37.09ZM10 8.97l-.03.15a.43.43 0 0 1-.07.13.64.64 0 0 1-.1.11l-.17.1a2.02 2.02 0 0 1-.46.18l-.42.11-.33-1.54.38-.1a2.45 2.45 0 0 1 .43-.08h.18l.15.04a.5.5 0 0 1 .23.18.88.88 0 0 1 .09.15 1.55 1.55 0 0 1 .12.46v.1Z" fill="#F0F3FA"/><defs><linearGradient id="aqlzefpnl" x1="9" y1="0" x2="9" y2="18" gradientUnits="userSpaceOnUse"><stop stop-color="#5AC8CC"/><stop offset="1" stop-color="#07A5DF"/></linearGradient></defs></svg>