<!-- by TradingView --><svg width="18" height="18" viewBox="0 0 18 18" xmlns="http://www.w3.org/2000/svg"><path fill="url(#a)" d="M0 0h18v18H0z"/><path d="M8.95 5.54a.6.6 0 0 1-.07.23v.01a.61.61 0 0 1-.16.18l-.18.08h-.07a.51.51 0 0 1-.4-.11A2 2 0 0 1 8 5.85a.44.44 0 0 0-.04-.07.53.53 0 0 1 .26-.74.53.53 0 0 1 .74.5Z" fill="#F34335"/><path d="m8.95 5.54 4.12.78-.04.23-4.15-.78a.6.6 0 0 0 .07-.23Z" fill="#CFD8DD"/><path d="M13.72 7.53a1.02 1.02 0 0 1-.22-.1l-.1-.06a.99.99 0 0 1-.16-.17l-.08-.12a1.1 1.1 0 0 1-.1-.22l-.03-.3.04-.24a.97.97 0 0 1 1.05-.69.98.98 0 1 1-.4 1.9Z" fill="#FFC107"/><path d="m8.88 5.78 2.32 1.85a.02.02 0 0 0 .02 0l1.84-.77.1.22-1.72.72v.01l.71.57h.01l1.08-1.18a1 1 0 0 0 .16.17l-1.05 1.15v.02l.34.26a.55.55 0 0 0-.18.17l-.32-.25h-.01L9.63 11.5c-.02.02-.01.02.01 0l2.8-2.1c.04.08.08.15.13.21l-3.23 2.42a.79.79 0 0 0-.22-.32L12 8.57v-.01l-.8-.64h-.03l-2.5 1.04v.02l.08 2.57a.78.78 0 0 0-.23 0l-.1-2.48-1.06.44a.57.57 0 0 0-.09-.22L8.4 8.8l-.09-2.64H8.3l-1.16 3a.65.65 0 0 0-.22-.1l1.13-2.93L4 10.65v.02l2.3-.97.07.16.03.06-2.35.98a.54.54 0 0 0-.27-.36l4.2-4.68.1.08c.1.1.24.13.39.12l.07-.01.1 2.66 2.3-.96c.02 0 .02 0 .01-.01L8.72 5.96c.06-.05.12-.1.16-.18ZM13.72 7.53l-.5 1.27a.71.71 0 0 0-.22-.07l.5-1.3c.07.05.14.08.22.1Z" fill="#CFD8DD"/><path d="M13 8.73a.84.84 0 0 1 .23.07c.07.05.12.1.15.14.13.18.14.36.05.55a.51.51 0 0 1-.32.27.53.53 0 0 1-.54-.14.66.66 0 0 1-.12-.2.54.54 0 0 1 .06-.45c.05-.07.11-.12.18-.17l.06-.02a.56.56 0 0 1 .25-.05Z" fill="#8BC349"/><path d="M6.92 9.07c.08.02.15.05.22.1l.12.12a.52.52 0 0 1 0 .6.77.77 0 0 1-.05.07.64.64 0 0 1-.2.13.54.54 0 0 1-.61-.18 2.55 2.55 0 0 0-.03-.06.58.58 0 0 1-.07-.16c-.03-.24.06-.43.25-.55.11-.07.23-.09.37-.07Z" fill="#9C27AF"/><path d="m7.21 9.96 1.09 1.67a.83.83 0 0 0-.2.15l-1.09-1.7a.64.64 0 0 0 .2-.12Z" fill="#CFD8DD"/><path d="M3.78 10.53c.14.08.23.2.27.36l.01.12a.53.53 0 0 1-.37.5.53.53 0 0 1-.6-.21.52.52 0 0 1 .15-.74.54.54 0 0 1 .45-.06l.09.03Z" fill="#F34335"/><path d="m4.06 11 3.88 1.08a.95.95 0 0 0-.03.24l-3.9-1.08a.59.59 0 0 0 .05-.23Z" fill="#CFD8DD"/><path d="M8.74 11.55c.15.02.27.08.38.17a.73.73 0 0 1-.85 1.18.73.73 0 0 1-.36-.58l.03-.24a.8.8 0 0 1 .17-.3c.06-.06.12-.11.19-.15a.78.78 0 0 1 .44-.08Z" fill="#2196F4"/><defs><linearGradient id="a" x1="3.35" y1="3.12" x2="21.9" y2="24.43" gradientUnits="userSpaceOnUse"><stop stop-color="#1A1E21"/><stop offset="1" stop-color="#06060A"/></linearGradient></defs></svg>