<!-- by TradingView --><svg width="18" height="18" viewBox="0 0 18 18" xmlns="http://www.w3.org/2000/svg"><path fill="#F0F3FA" d="M0 0h18v18H0z"/><path d="M9.56 3.03c.02.03.06.03.09.05l.04.04.14.1.15.1a79.46 79.46 0 0 0 1.14.82.04.04 0 0 0 .03-.02c.05-.09.1-.18.18-.26.02-.02.06-.07.1-.15.04-.05.07-.1.12-.14a6 6 0 0 1 .83.47l.87 2.06c-.4-.26-.8-.47-1.24-.64-.23-.1-.5-.19-.81-.3a6.37 6.37 0 0 0-2.85-.32c-1.23.12-2.4.45-3.5 1l-.46-.68a6 6 0 0 1 5.17-2.13Z" fill="#D35051"/><path d="M11.55 3.57a.76.76 0 0 0-.12.14c-.04.08-.08.13-.1.15a1.5 1.5 0 0 0-.2.28.04.04 0 0 1-.03 0h-.01a23.68 23.68 0 0 0-1.44-1.06c-.03-.02-.07-.02-.09-.05a6 6 0 0 1 1.99.54ZM14.91 10.02l-.57-1.34-.46-1.1-.63-1.48-.87-2.06.13.1a6 6 0 0 1 2.4 5.88Z" fill="#8F2627"/><path d="m13.25 6.1.63 1.48c-.2-.22-.36-.4-.49-.5a7.92 7.92 0 0 0-2.13-1.18c-.46-.16-.9-.26-1.3-.3a8.6 8.6 0 0 0-2.83.13c-.67.15-1.26.41-1.86.75l-.42-.64c1.1-.55 2.27-.88 3.5-1a6.36 6.36 0 0 1 2.85.32c.32.11.59.2.8.3.44.17.86.38 1.25.64Z" fill="#D6595B"/><path d="m4.4 5.16.45.68.42.64.49.73c0 .01 0 .02.02.03l-.01.01h-.02a4.25 4.25 0 0 1-.22-.2.25.25 0 0 0-.16-.07c-.07 0-.1.03-.1.1v.02h-.02a4.77 4.77 0 0 1-.3-.38 14.78 14.78 0 0 1-.84-1.02h-.02l-.01-.02h-.02v.02c-.02.03-.02.07-.05.1-.08.09-.15.2-.21.31-.04.07-.08.11-.13.13a6 6 0 0 1 .72-1.08Z" fill="#8F2627"/><path d="m13.88 7.58.46 1.1a11.71 11.71 0 0 0-1.36-1.37c-.02-.12-.05-.31-.2-.32-.02 0-.02 0-.02.02l.01.18c0 .07.03.13.08.2l.07.1.07.1a1.12 1.12 0 0 0-.38-.03l-.02.01a8.8 8.8 0 0 0-.18.22c-.1.11-.22.2-.38.26a.55.55 0 0 0-.17.14l-.52-.32a.18.18 0 0 1 .12-.1c.13-.03.23-.07.3-.1.2-.05.33-.09.48-.19-.11.12-.24.22-.4.3a.26.26 0 0 0-.1.13v.03c.03.01.07.02.12 0 .2-.08.38-.17.53-.27a.25.25 0 0 0 .06-.06l.06-.08a8.73 8.73 0 0 0 .25-.44c0-.02 0-.04-.03-.04l-.07.03-.27.27a6.26 6.26 0 0 0-6.63-.14l-.49-.73c.6-.34 1.2-.6 1.86-.75a8.6 8.6 0 0 1 2.82-.14 6.26 6.26 0 0 1 2.46.82 5.21 5.21 0 0 1 1.47 1.17ZM5.25 7.1l-.07.42c-.01.23.03.45.1.66-.2.14-.39.28-.55.43a8.89 8.89 0 0 0-1.5 2.06 6 6 0 0 1 .44-4.43c.05-.02.1-.06.13-.13.06-.12.13-.22.21-.32.03-.02.03-.06.04-.1h.04l.02.01.34.4a14.78 14.78 0 0 0 .65.8l.15.2Z" fill="#D96465"/><path d="m12.39 7.35-.15.13c-.15.1-.28.14-.48.2a4.3 4.3 0 0 0-1.13-.53A6.17 6.17 0 0 0 7.77 7c-.51.1-1.04.28-1.58.57-.14-.1-.23-.15-.27-.17a.48.48 0 0 1-.15-.16l-.01-.03c.31-.21.62-.38.91-.49a6.26 6.26 0 0 1 5.71.63Z" fill="#DE7475"/><path d="M11.76 7.67c-.07.03-.17.07-.3.1a.18.18 0 0 0-.12.1 5.68 5.68 0 0 0-1.6-.48 5.03 5.03 0 0 0-1.36 0c-.38.05-.8.15-1.24.3a.96.96 0 0 0-.27.14 5.55 5.55 0 0 1-.68-.26A5.48 5.48 0 0 1 7.77 7a6.17 6.17 0 0 1 2.86.15c.39.1.77.28 1.13.52Z" fill="#E28485"/><path d="m14.34 8.68.57 1.34a6 6 0 0 1-.5 1.57 7.03 7.03 0 0 1-.24-.65c-.11-.26-.2-.51-.34-.76a6.12 6.12 0 0 0-1.19-1.5A1.78 1.78 0 0 0 13 7.6a4.86 4.86 0 0 1-.14-.22.33.33 0 0 1-.08-.2 8.23 8.23 0 0 0 0-.19c.16 0 .2.2.2.32l.02.03c.49.4.94.85 1.35 1.34Z" fill="#DE7475"/><path d="M5.77 7.24c.04.06.1.12.15.16l.27.17c.22.1.44.18.68.26l-.9.57c-.25-.19-.39-.37-.59-.66a1.9 1.9 0 0 0-.2-.22l.07-.42h.02v-.02c0-.07.03-.1.1-.1.06 0 .1.03.16.08a4.24 4.24 0 0 0 .24.2v-.02Z" fill="#D35051"/><path d="m12.24 7.48.15-.13c.08-.1.18-.18.27-.27l.07-.03c.03 0 .04.02.02.04a8.9 8.9 0 0 1-.3.52.25.25 0 0 1-.06.06c-.15.1-.33.2-.53.27-.05.02-.09.01-.12 0V7.9c.02-.05.06-.1.1-.13.16-.08.29-.18.4-.3Z" fill="#CB3E3E"/><path d="m11.34 7.87.52.32.78.49c.48.44.87.94 1.19 1.5.14.25.23.5.34.76l.12.32.12.33a6 6 0 0 1-1.1 1.6l-.42-.05c-.33-.04-.6-.2-.8-.47a.66.66 0 0 0 .16-.17 1.6 1.6 0 0 0-.03-1.28.37.37 0 0 0-.1-.13c-.08-.06-.13-.1-.16-.1a1.5 1.5 0 0 0-.44-.08h-.4a32.43 32.43 0 0 1-2.66.08l-1.28-.05c-.24-.01-.46 0-.67.06a.88.88 0 0 0-.27.17l-.35-.27c-.23-.23-.41-.5-.54-.8l-.33-.9.55-.54.4-.26.9-.57c.07-.05.15-.1.27-.14.44-.15.86-.25 1.24-.3a5.03 5.03 0 0 1 2.96.48Z" fill="#E4ECEF"/><path d="M12.99 7.6c-.01.24-.05.46-.13.67-.04.12-.11.26-.22.4l-.78-.48a.55.55 0 0 1 .17-.14.87.87 0 0 0 .38-.26 8.8 8.8 0 0 1 .2-.23c.12 0 .24 0 .38.04ZM5.98 8.4l-.4.26-.04-.01c-.11-.14-.2-.3-.25-.47a1.58 1.58 0 0 1-.1-.66l.2.22c.2.3.33.47.59.66Z" fill="#CB3E3E"/><path d="M5.29 8.18c.06.17.14.33.25.47h.03l-.55.56a4.69 4.69 0 0 0-.8 1.22l-.21.45c-.12.27-.22.58-.32.92a6 6 0 0 1-.45-1.13c.46-.8.88-1.47 1.5-2.06.15-.15.34-.3.55-.43Z" fill="#E28485"/><path d="M6.24 11.17a1.3 1.3 0 0 0-.2.88c0 .26 0 .48.13.7v-.02c0-.02.01-.02.03 0 .07.07.14.15.22.2.12.1.25.15.4.18.14.03.23.05.29.05l.89.1a1 1 0 0 1 .28.08l.05.09c-.24.14-.46.23-.66.29-.24.05-.52.08-.83.07l-1.06-.01a.66.66 0 0 0-.39-.33.8.8 0 0 0-.44-.03 6 6 0 0 1-1.26-1.62 7.24 7.24 0 0 1 1.33-2.6l.33.9a2.27 2.27 0 0 0 .89 1.07Z" fill="#D2DAD9"/><path d="M12.1 12.67a.42.42 0 0 1-.2.12 3.1 3.1 0 0 1-.62-.56.82.82 0 0 0 .3-.43.78.78 0 0 0 .05-.34c0-.04-.03-.06-.06-.05a.86.86 0 0 0-.23.05 447.33 447.33 0 0 1-1.33.49 8.77 8.77 0 0 0-.07-.96h-.12l1.3-.07.4-.01h.16l.28.07.15.1c.05.04.09.09.11.14l.07.16c.12.38.1.75-.04 1.12a.66.66 0 0 1-.15.17Z" fill="#D35051"/><path d="M9.82 10.99h.12l.02.01c.03.32.05.63.05.95-.1.06-.06.13.01.19.1.06.18.11.28.15.34.17.67.14.98-.06.18.21.4.4.62.56l-.27.11c-.3.07-.59.1-.86.13l-.65.05c.01-.03.01-.06 0-.07 0-.02 0-.02-.01 0v.03c0-.09-.01-.17-.04-.25a.67.67 0 0 0-.29-.41h-.02c-.1-.02-.12-.02-.09.02l-.02.01a.01.01 0 0 0 0 .01c.1.12.16.24.2.37l.02.28.01.03c-.02 0-.04.02-.04.04l-.02.01a.1.1 0 0 1-.06-.02v-.01h.07v-.01l-1.34.02a.1.1 0 0 1-.07-.04l.29-.02-.22-.11a.03.03 0 0 1-.01-.03v-.12c.04-.12.1-.24.16-.34v-.04h.01v-.02h-.08a.09.09 0 0 0-.05.03.73.73 0 0 1-.1.1.33.33 0 0 0-.1.12c-.07.13-.1.19-.1.33v.03c-.02.03-.02.06 0 .07a47.2 47.2 0 0 1-1.1-.1 28.79 28.79 0 0 1-.44-.1 3.9 3.9 0 0 0-.15-.06.57.57 0 0 1-.19-.11 1 1 0 0 1-.15-.16c-.08-.13-.13-.3-.14-.51a1.3 1.3 0 0 1 .19-.88c.12-.1.21-.16.27-.17.21-.05.43-.07.67-.06l1.28.05c.33.02.78.01 1.36 0Z" fill="#CB3E3E"/><path d="M11.28 12.23a.95.95 0 0 1-.99.06l-.27-.15c-.07-.06-.1-.13 0-.2l.24-.1 1.08-.38a.86.86 0 0 1 .23-.05c.03 0 .06.01.06.05.02.08 0 .2-.05.34a.82.82 0 0 1-.3.43Z" fill="#281E20"/><path d="M8.1 12.04a.8.8 0 0 1-.24.17.88.88 0 0 1-.84-.01.8.8 0 0 1-.38-.66c0-.04.01-.06.05-.06h.09A66.93 66.93 0 0 1 8.1 12a.03.03 0 0 1 0 .05ZM10.1 12.04a.03.03 0 0 1 0-.05 66.83 66.83 0 0 1 1.42-.52c.04.01.05.03.05.07a.8.8 0 0 1-.38.66.88.88 0 0 1-.84 0 .8.8 0 0 1-.25-.16Z" fill="#D2DAD9"/><path d="M6.05 12.05c.01.2.06.38.14.5a1 1 0 0 0 .15.17c.06.05.12.09.2.11l.14.06a28.78 28.78 0 0 0 .73.14l.8.06.07.25a1 1 0 0 0-.28-.08 54.36 54.36 0 0 1-1.18-.15 1.04 1.04 0 0 1-.4-.18c-.08-.05-.15-.13-.22-.2-.02-.02-.02-.02-.02 0v.01c0 .02 0 .02-.02 0-.13-.21-.13-.43-.11-.7ZM9.76 12.38c.13.1.23.24.3.41.04.08.05.16.04.25-.02.15-.07.28-.15.4-.05.01-.1 0-.14-.01.1-.1.14-.23.15-.37a.78.78 0 0 0-.29-.66c-.03-.04 0-.04.09-.02Z" fill="#BBC3C3"/><path d="M10.07 12.8a.97.97 0 0 0-.32-.42h.06c.14.12.22.25.26.41ZM8.62 12.4a.15.15 0 0 0-.05.03.64.64 0 0 0-.21.36.45.45 0 0 0-.02.27.27.27 0 0 1 .02.07v-.03c0-.02-.01-.02-.02 0 0 .06 0 .12.02.17.04.1.09.17.14.23.1.1.21.19.34.25.07.04.14.05.24.05a1.27 1.27 0 0 0 .73-.2.76.76 0 0 0 .14-.15c.08-.13.13-.26.15-.41V13c.01-.02.02-.02.02 0 .01.01.01.04 0 .07a.9.9 0 0 1-.42.7.93.93 0 0 1-.72.13.96.96 0 0 1-.65-.48l-.05-.09-.07-.25c-.01-.01-.01-.04 0-.07l.01-.03c0-.14.03-.2.1-.33a.33.33 0 0 1 .1-.12.73.73 0 0 0 .1-.1.09.09 0 0 1 .05-.03h.05Z" fill="#373E3B"/><path d="M9.67 12.4c.2.18.3.4.3.66-.02.14-.07.27-.16.37-.05.05-.08.06-.07.03.1-.09.15-.2.16-.32l-.02-.04-.01-.03.06-.03.01-.02a.1.1 0 0 0-.03-.05l-.02-.03-.04-.15a1.25 1.25 0 0 0-.2-.38c0-.01.01-.02.02-.01Z" fill="#281E20"/><path d="m8.65 12.43-.01.04c-.07.1-.12.22-.15.34a.33.33 0 0 0-.01.12l.01.03.22.1v.01l-.29.02v-.13a.77.77 0 0 1 .23-.53Z" fill="#8F2627"/><path d="M12.1 12.67c.2.27.46.43.79.47.13.02.27.04.41.04l-.22.22c-.3.01-.53.14-.66.39l-1.17-.1c-.2-.02-.37-.04-.52-.08a.82.82 0 0 1-.23-.1c-.08-.05-.15-.14-.04-.22.04-.04.1-.06.18-.08l.53-.13c.12-.02.27-.09.46-.18l.27-.1a.42.42 0 0 0 .2-.13Z" fill="#D2DAD9"/><path d="M8.36 12.79v.29l.02.02h.02v-.02l.02-.12v.13a.1.1 0 0 0 .07.04.3.3 0 0 1 .04.08v.04c-.02.02-.02.04-.01.06.07.13.19.24.33.3.32.15.62.1.89-.15 0 .03.02.02.07-.03.04.02.09.02.14.02a.76.76 0 0 1-.14.16l-.23.11c-.15.07-.33.08-.5.08a.52.52 0 0 1-.24-.05 1.17 1.17 0 0 1-.34-.25.76.76 0 0 1-.14-.23.3.3 0 0 1-.02-.16c0-.03.01-.03.02 0v.02l-.02-.07a.45.45 0 0 1 .02-.27Z" fill="#DE7475"/><path d="m9.87 13.07-.02-.28.04.15.02.03a.1.1 0 0 1 .03.05l-.01.02-.06.03Z" fill="#8F2627"/><path d="M11.63 12.9c-.19.1-.34.16-.46.18l-.53.13a.53.53 0 0 0-.18.08c-.1.08-.04.17.05.22.06.04.14.07.22.1.15.04.33.06.52.08l1.17.1a.4.4 0 0 0-.03.16 6 6 0 0 1-6.62.1.35.35 0 0 0 .03-.16l-.02-.11 1.06.01c.31 0 .59-.02.83-.07.2-.06.42-.15.66-.29.14.26.36.42.65.48.25.06.5.01.72-.13a.9.9 0 0 0 .42-.7l.65-.05c.27-.02.56-.06.86-.13Z" fill="#BBC3C3"/><path d="m9.88 13.1.02.04a.49.49 0 0 1-.16.32c-.27.25-.57.3-.89.16a.72.72 0 0 1-.33-.31v-.1a.3.3 0 0 0-.03-.08l1.34-.02h-.07v.02a.1.1 0 0 0 .06.02l.02-.01c0-.02.02-.04.04-.04Z" fill="#BBC3C3"/><path d="M13.08 13.4c-.22.2-.45.38-.69.55 0-.05 0-.1.03-.16.13-.25.35-.38.66-.39Z" fill="#D6595B"/><path d="M5.4 13.45c.02.1.06.2.13.25.06.06.15.12.27.19 0 .06 0 .11-.03.17-.3-.19-.57-.4-.82-.64a.8.8 0 0 1 .44.03Z" fill="#CB3E3E"/><path d="m5.78 13.78.02.11a1.8 1.8 0 0 1-.27-.19.46.46 0 0 1-.14-.25c.18.05.3.17.4.33Z" fill="#D35051"/></svg>