<!-- by TradingView --><svg width="18" height="18" viewBox="0 0 18 18" xmlns="http://www.w3.org/2000/svg"><path fill="#F0F3FA" d="M0 0h18v18H0z"/><path fill-rule="evenodd" d="M8.44 3v.86h1.12V3c1.2.76 3.75 2.42 4.44 3.02 0 .44-.17 1.47-.26 1.93a5.23 5.23 0 0 1-2.24 5.46A5.15 5.15 0 0 1 9.56 15v-.88H8.44V15a5.15 5.15 0 0 1-1.94-1.6 5.23 5.23 0 0 1-2.24-5.45A15.7 15.7 0 0 1 4 6.02c.69-.6 3.24-2.26 4.44-3.02ZM6.13 6h5.74l.12.14-.74.39V8.1l-1.13.86.05.05 1.08.77v1.71l.75.38-.1.13H9.75v-1.65l-.7-.57-.8.6V12h-2.1L6 11.9l.75-.44V6.53l-.7-.4.08-.13Zm2.12 2.67V7h1.5v.43l-1.5 1.24Z" fill="url(#a)"/><defs><linearGradient id="a" x1="9" y1="3" x2="9" y2="15" gradientUnits="userSpaceOnUse"><stop stop-color="#9E43FC"/><stop offset="1" stop-color="#6E1AEA"/></linearGradient></defs></svg>