<!-- by TradingView --><svg width="18" height="18" viewBox="0 0 18 18" xmlns="http://www.w3.org/2000/svg"><path fill="#F0F3FA" d="M0 0h18v18H0z"/><path d="M3.35 7.24v3.52h.36v1.06h.7v.36h.35v.7h.36v.36h.35v.35h.7v.7h1.06v.36h3.53v-.36h1.06v-.7h.36v-.35h.7v-.36h.35v-.7h.36v-.36h.7v-1.06h.36V7.24h-.36V6.18h-.7v-.36h-.36v-.7h-.7v-.36h-.35v-.7h-.36V3.7h-1.06v-.36H7.23v.36H6.18v.7h-.36v.35h-.7v.36h-.36v.7h-.35v.36h-.7v1.06h-.36Z" fill="url(#a)"/><path d="M4.41 11.47v-.7h.36v.35h.35v.35h-.7Zm1.41 0h-.35v-.7h1.06v-.36H9v-.35h.35V9.7h.36v-.36h.35V9h.7v-.35h.36v-.36h.35v-.35h-.7v-.7h.35v.35h1.06v.35h-.36v.7h-.35V9h-.35v.35h-.7v.36h-.36v.35H9.7v.35h-.36v.35H6.53v.36h-.7v.35Z" fill="#432300"/><path d="M6.88 3h4.24v.35h1.06v.36h.35v.7h.35v.35h.7v.71h.36v.35h.7v1.06H15v4.24h-.35v1.06h-.7v.35h-.36v.7h-.35v.36h-.71v.35h-.35v.7h-1.06V15H6.88v-.35H5.82v-.7h-.7v-.36h-.36v-.35h-.35v-.71h-.35v-.35h-.7v-1.06H3V6.88h.35V5.82h.7v-.35h.36v-.7h.35V4.4h.71v-.35h.35v-.7h1.06V3Zm.36.35v.36H6.18v.7h-.36v.35h-.7v.36h-.36v.7h-.35v.36h-.7v1.06h-.36v3.52h.36v1.06h.7v.36h.35v.7h.36v.36h.35v.35h.7v.7h1.07v.36h3.52v-.36h1.06v-.7h.36v-.35h.7v-.36h.36v-.7h.35v-.36h.7v-1.06h.36V7.24h-.36V6.18h-.7v-.36h-.35v-.7h-.71v-.36h-.35v-.7h-.36V3.7h-1.06v-.36H7.24Z" fill="#1C2513"/><path d="M13.59 9.35v1.41h-.35v.71h-.36v.35h-.35v.36h-.35v.35h-.36v.35h-.35v.36h-1.06v.35H7.24v-.35h-.71v-.36h-.35v-.35h-.36v-.35h-.35v-.36h-.18v-.35h.53v.35h.36v.36h.35v.35h.35v.35h.7v.36h2.48v-.36h1.06v-.35h.35v-.35h.35v-.36h.36v-.35h.35v-.35h.35v-.7h.36V9.34h.35ZM7.24 4.41h3.17v.35h.7v.36h.71v.35h.36v.35h.35v.36h.35v.35h.36v1.06h-.36v-.7h-.35v-.36h-.35v-.35h-.36v-.36h-.35v-.35h-.7v-.35h-.71v-.36H7.59v.36h-.7v.35h-.36v.35h-.35v.36h-.36v.35h-.35v.35h-.35v.7h-.35v2.83H4.4V7.24h.36v-.71h.35v-.35h.35v-.36h.35v-.35h.36v-.35h.35v-.36h.7v-.35Z" fill="#FAD872"/><path fill="#432300" d="M4.76 10.41h.35v.35h-.35zm4.95 0h.35v.35h-.35zm.35.35h.35v.35h-.35zm.35.36h.35v.35h-.35zm1.06-1.41h.35v.35h-.35zM13.24 9h.35v.35h-.35zm0-1.41h.35v.35h-.35zm-1.06-.35h1.06v.35h-1.06zm1.41.7h.35V9h-.35zm-1.77 1.41h1.41v.35h-1.41zm-.35 1.41h.35v.71h-.35zm-.35-.7h.35v.71h-.35zm-5.3-3.18h.35v.35h-.35zm4.94 0h.35v.35h-.35zm-4.58-.35h.71v.35h-.71zm.7-.35h.71v.35h-.71zm3.18.35h.71v.35h-.71zM9 6.18h1.06v.35H9zm-1.41-.36H9v.35H7.59zM4.76 9h.35v.71h-.35zm.36-1.06h.35V9h-.35zm.35-.7h.35v.71h-.35zm-.35 2.47h.35v.71h-.35z"/><path d="M5.47 11.47h-.35v-.35h-.36v-.36h.36v-.35h.35v1.06Zm0-1.41h.35v.35h-.35zm6.35-2.12h.35v.35h-.35z" fill="#5BB27D"/><path d="M11.82 8.3v.35h.36V9h.35v.35h.7V9h.36V7.94h-.36V7.6h-1.05v.7h-.36Zm-6.35 2.11v.35h1.06v-.35h-.35v-.35h-.36v.35h-.35Z" fill="#B3EB79"/><path fill="#405F59" d="M9.71 10.06h.35v.35h-.35zm.35.35h.35v.35h-.35zm.7-1.06h.35v.35h-.35zm.36-.35h.35v.35h-.35zm.35-.35h.35V9h-.35zm-1.06 2.11h.35v.35h-.35zm.35.36h.35v.35h-.35z"/><path d="M10.06 10.41v-.7h.35v.35h.35v.35h.36v.35h.35v.71h-.35v-.35h-.36v-.36h-.35v-.35h-.35Z" fill="#5BB27D"/><path d="M10.41 9.35v.71h.36v.35h.35v-.7h-.35v-.36h-.36Z" fill="#B3EB79"/><path d="M11.12 9.35v.7h.35v-.34h.35v-.36h.7V9h-.34v-.35h-.36V9h-.35v.35h-.35Z" fill="#5BB27D"/><path d="M12.53 7.94h.35v.71h-.35z"/><path fill="#F2932E" d="M12.18 8.29h.35v.35h-.35z"/><path d="M7.59 6.18v.35h-.36v.35h.36v.36h1.06v-.36H9v-.35h-.7v-.35h-.71Zm1.76 1.06H9v.35h.35v.35h.36v-.7h.35v-.36H9.7v-.35h-.36v.7Zm.71.35v.35h.35v.35h.7v-.35h-.35v-.7h-.35v.35h-.35ZM9.35 9H9v-.7h1.06V9H9.7v.35h-.36V9Zm-.7 1.06H6.88V9.7h.7V9h-.35v-.7h.36v-.36h-.36V7.6H8.3v.7h.36V9H8.3v.35h.36v.71ZM5.82 7.24v.7h1.06v-.7h-.35v-.36h-.35v.36h-.36Zm.71 2.82h-.35v-.7h.35v.7ZM5.47 9.7h-.35V9h.35v.35h.35v.7h-.35v-.34Zm.35-1.05h-.35v-.36h1.41V9H5.82v-.35Z" fill="#784331"/><path fill="#C7945D" d="M7.59 10.06H9v.35H7.59zm1.06-.35h.71v.35h-.71z"/><path fill="#F5E0A6" d="M9.35 9.35h.35v.35h-.35z"/><path fill="#C7945D" d="M9 9.35h.35v.35H9zM9.71 9h.35v.35h-.35zm.35-.35h.35V9h-.35zm.35-.36h.35v.35h-.35zM6.88 6.53h.35v.35h-.35zm.36 1.41h.35v.35h-.35zm1.05-.35H9v.71h-.71zm-1.41 0h.35v1.06h-.35zm-.35-.71h1.06v.35H6.53z"/><path fill="#F5E0A6" d="M10.41 8.65h.35V9h-.35zm0-1.77h.35v.35h-.35zm-.7-.35h.35v.35h-.35z"/><path d="M6.88 7.59v-.35h1.77v-.36H9v.7H6.88Z" fill="#502210"/><path fill="#F5E0A6" d="M9 7.59h.35v.35H9zm0-.71h.35v.35H9zm-.71-.7H9v.35h-.71zm2.47 2.11h.35v.35h-.35zm.36-.35h.35v.35h-.35z"/><path fill="#502210" d="M9 6.53h.35v.35H9zM8.29 9h.35v.35h-.35zM9 9h.35v.35H9zm1.06-.71h.35v.35h-.35zm-3.18.36h.35V9h-.35zM5.82 9h1.76v.35H5.82zm1.06.35h.71v.35h-.71zm1.77-1.06H9V9.7h-.35zm-3.18.36h.35v.71h-.35zm.35.7h.35v.71h-.35zm.71 0h.35v.71h-.35zM5.47 7.94h1.41v.35H5.47zm4.24-.7h.35v.71h-.35zm.35-.36h.35v.71h-.35z"/><path fill="#502210" d="M9 7.94h1.41v.35H9z"/><defs><linearGradient id="a" x1="4.76" y1="4.94" x2="13.59" y2="11.47" gradientUnits="userSpaceOnUse"><stop stop-color="#F1A815"/><stop offset="1" stop-color="#F4BE16"/></linearGradient></defs></svg>