<!-- by TradingView --><svg width="18" height="18" viewBox="0 0 18 18" xmlns="http://www.w3.org/2000/svg"><path fill="#54FE29" d="M0 0h18v18H0z"/><path d="M11.23 13.48A5.01 5.01 0 0 1 4.8 6.27l.02-.03c.09-.14.23-.36.4-.4.3-.07.56.15.51.46-.02.1-.1.21-.16.3l-.04.06a4.17 4.17 0 0 0 5.32 6.08 4.17 4.17 0 0 0-1.71-7.91c-.12 0-.25-.01-.34-.05-.28-.15-.29-.5-.06-.7.13-.1.4-.08.57-.07h.02a5.01 5.01 0 0 1 1.89 9.47Zm.33-1.91a3.63 3.63 0 0 1-6.18-2.44c0-.22.02-.4.23-.5.29-.14.58.08.59.39A2.8 2.8 0 1 0 9.02 6.2c-.32 0-.53-.3-.4-.59.1-.2.29-.23.51-.23a3.63 3.63 0 0 1 2.43 6.18Zm-2.41-.33a2.25 2.25 0 0 0 0-4.48c-.17-.01-.3 0-.37.06a.41.41 0 0 0 .02.7c.08.05.2.06.31.07a1.42 1.42 0 0 1 0 2.83c-.1 0-.23.01-.31.06a.41.41 0 0 0-.02.7c.08.05.2.07.37.06Z"/></svg>