<!-- by TradingView --><svg width="18" height="18" viewBox="0 0 18 18" xmlns="http://www.w3.org/2000/svg"><path fill="#F0F3FA" d="M0 0h18v18H0z"/><path d="M14.98 10.6A6.25 6.25 0 0 1 9.14 15C6.03 15 3.46 12.56 3 9.38l.44.26c.1.06.87.37 1.25.52l.51.11.73.15c.09.03.3.08.44.05.14-.04.38-.18.48-.25l.34.44c.1.13.47.43 1.11.6.64.19 1.23.22 1.44.22l1.58-.45 1.57.07.56-.07.9-.26.63-.17Z" fill="#74B2A5"/><path d="M8.88 14.98a5.2 5.2 0 0 1-.81-.1 14.07 14.07 0 0 1-.7-2.42c-.06-.34-.16-1.35-.2-1.8l-.35-.45c-.13.12-.47.33-.77.26-.37-.08-.8-.71-.85-1.45a.88.88 0 0 1 .6-.92 4.84 4.84 0 0 1-.06-2.69c.32-.93 1.07-2.25 2.96-2.35 1.9-.09 2.45 1.06 2.76 1.74.26.54.37 1.14.4 1.37l.27 1.68.14 1.42c0 .24-.16.86-.69 1.48-.52.61-1.47.76-1.88.76a11.57 11.57 0 0 1-.82 3.47Z" fill="#EBE6BD"/><path d="M3.14 10.07a6.86 6.86 0 0 1-.03-.12c.3.17.77.4 1.26.61.57.24 1.17.46 1.65.53v.1c-.5-.08-1.12-.3-1.68-.54-.46-.2-.9-.41-1.2-.58Zm.44 1.25a6.7 6.7 0 0 1-.07-.15l.09.05a13.3 13.3 0 0 0 2.07.9l-.03.08a13.36 13.36 0 0 1-2.06-.88Zm2.84 3.01a5.03 5.03 0 0 1-.1-.05l-.04-1.05h.1l.04 1.1Zm3.75.58-.1.01-.02-.72h.1l.02.7Zm1.1-.31-.1.04a6.73 6.73 0 0 1 .19-.74.8.8 0 0 1 .05-.11.24.24 0 0 1 .06-.07 10.83 10.83 0 0 1 .8-.19l.92-.14-.13.12a31.54 31.54 0 0 0-1.46.25.34.34 0 0 0-.08.04l-.04.04a6.39 6.39 0 0 0-.21.76Zm3.07-2.61-.09.13c-.35.12-.82.22-1.3.3-.61.11-1.24.19-1.63.22l-.01-.1c.39-.03 1.01-.1 1.63-.21.52-.1 1.04-.2 1.4-.34Zm.43-.84-.05.13c-.45.17-1.06.28-1.66.34-.69.08-1.37.1-1.79.1v-.1c.42 0 1.1-.02 1.78-.1a6.77 6.77 0 0 0 1.72-.37Zm-7.6-.44-.89.38-.03-.09.88-.38.03.09Zm.06.7-1.1.48-.03-.09 1.1-.48.03.09Zm.1.86-1.11.74-.05-.08 1.11-.74.05.08Zm.16.78-.87.7-.05-.08.86-.7.06.08Zm.23.9-.7.5-.06-.08.71-.5.05.09Zm1.97.9-.56-.46.05-.08.57.46-.06.08Zm.45-.75-.78-.58.06-.08.77.58-.05.08Zm.42-.75-1-.71.05-.08 1 .71-.05.08Zm.08-1.25-.97-.37.03-.1.97.38-.03.1Z" fill="#508A81"/><path d="M8.39 11.68a.6.6 0 0 0-.25.06c.02.12.07.37.1.45l.25.54-.3 2.18c.13.04.45.06.6.07l.03-2.25.12-.45.05-.56a4.16 4.16 0 0 0-.6-.04Z" fill="#42786B"/><path d="M10.56 9.73a.65.65 0 0 0-.14.14l-.08-.05a.74.74 0 0 1 .17-.17c.07-.06.16-.1.26-.09.17.02.26.06.3.09l-.05.08a.74.74 0 0 0-.26-.07c-.07-.01-.14.02-.2.07Z" fill="#081915"/><path fill-rule="evenodd" d="M3 9.35c.53.33 1.58.84 2.69.97a1.46 1.46 0 0 1-.31-.43 2.25 2.25 0 0 1-.24-.97c0-.27.11-.47.24-.6a.92.92 0 0 1 .36-.23 9.87 9.87 0 0 1-.21-1.76c0-.4.15-1.23.66-1.96.4-.57 1-1.08 1.91-1.28l.01-.02.02.01c.25-.05.53-.08.83-.08 1.13 0 1.86.58 2.31 1.3.45.72.63 1.57.65 2.15l.88-.18c.07.17.21.64.21 1.1 0 .47-.19 1.15-.74 1.35l.06.34a2.6 2.6 0 0 1-.54 1.55c-.11.14-.25.28-.4.4l.98.04c.4 0 .79 0 .96-.04.33-.07 1.18-.32 1.67-.46l-.04.11c-.5.15-1.3.38-1.61.44-.19.04-.58.05-.98.04-.39 0-.79-.02-1.06-.03v1c0 .63.2 1.58.31 2.01a6.27 6.27 0 0 0 .32-.05l.52-.1-.22.14a69.35 69.35 0 0 1-.6.11v.22l-.1.04v-.3a10.1 10.1 0 0 1-.32-2.08v-.97c-.17.1-.35.19-.56.26a5.83 5.83 0 0 1 .12.55V12a.2.2 0 0 1-.04.04 3.13 3.13 0 0 1-.45.4 7.8 7.8 0 0 1 .48.5.1.1 0 0 1 0 .04v.05l-.03.06a12.81 12.81 0 0 1-1.1 1.89h-.13a7.69 7.69 0 0 0 1.06-1.73 4.78 4.78 0 0 0 .11-.26v-.02a7.99 7.99 0 0 0-.49-.5l-.04-.04.05-.04a9.16 9.16 0 0 0 .48-.42l.01-.01v-.07l-.04-.17-.08-.3c-.25.06-.53.1-.84.11a9.1 9.1 0 0 1-.8 3.47l-.17-.01v-2.2H8.5l-.27 2.14a5.7 5.7 0 0 1-.2-.03c-.3-.6-.78-2.03-.93-4.25a1.82 1.82 0 0 1-.3-.36 1.16 1.16 0 0 1-.34.18 43.57 43.57 0 0 0-.32 1.4l.06.05.13.07h.02l.17.1a.2.2 0 0 1 .05.07c.02.03.02.06.01.1a.34.34 0 0 1-.1.16l-.14.1v.02a1.87 1.87 0 0 0-.15.13c-.04.04-.05.07-.05.1l.01.03.03.06.09.2.29.55.59 1.04a6 6 0 0 1-.14-.05 53.34 53.34 0 0 1-.92-1.7 1.02 1.02 0 0 1-.04-.12c0-.07.03-.13.07-.18l.14-.13.01-.01h.01l.01-.01.12-.1a.25.25 0 0 0 .08-.12v-.03a.1.1 0 0 0-.03-.03.65.65 0 0 0-.14-.08H6.3v-.01L6.15 12c-.05-.02-.1-.07-.1-.14l.01-.09a3.7 3.7 0 0 1 .11-.52l.18-.75a.86.86 0 0 1-.2.02c.02.02.03.05.03.08v.14l-.05.24a5.1 5.1 0 0 1-1.21 2.26 8.25 8.25 0 0 1-.07-.06A4.53 4.53 0 0 0 6.1 10.6a.17.17 0 0 0-.06-.1.73.73 0 0 1-.2-.07 7.22 7.22 0 0 1-2.82-.96A7 7 0 0 1 3 9.35Zm3.26-4.93c-.5.72-.64 1.53-.64 1.9 0 .62.15 1.45.22 1.8l.01.04-.04.01a.81.81 0 0 0-.36.21.74.74 0 0 0-.22.54c0 .31.09.65.23.93.1.22.25.4.42.5h.04c.04 0 .1.02.15.06a.8.8 0 0 0 .4-.04c.15-.05.26-.13.33-.19l.04-.04.03.05c.06.11.16.26.32.4h.01v.01c.43.4 1.22.84 2.45.84.68 0 1.19-.17 1.57-.43h.01c.2-.14.36-.3.5-.47.38-.49.5-1.08.5-1.48l-.05-.3-.31.02a1.07 1.07 0 0 1-.62-.24l-.42.5-.07-.06.42-.5A2.71 2.71 0 0 1 10.8 8c-.11-.17-.2-.3-.3-.32-.07-.01-.11.13-.17.35-.15.5-.4 1.38-1.5 1.38-1.26 0-1.75-1.18-1.84-1.78.14-.09.57-.29 1.1-.4l3.75-.76c-.02-.57-.2-1.41-.63-2.11A2.52 2.52 0 0 0 8.96 3.1c-.13 0-.26 0-.39.02-.14.23-.16.42-.08.56.07.14.26.24.6.24.51 0 .79-.2.86-.3l.07.06c-.09.12-.4.34-.94.34-.34 0-.57-.1-.67-.3-.1-.16-.07-.37.05-.6l-.3.06-.08.2A1 1 0 0 0 8 3.7c0 .1.07.25.24.38.18.13.46.24.87.24.65 0 .92-.28.97-.4l.08.04c-.07.17-.38.46-1.05.46-.43 0-.73-.11-.92-.26-.2-.14-.29-.32-.29-.46 0-.1.04-.23.08-.34l.06-.15c-.24.06-.45.13-.64.23-.02.1-.06.3-.06.47 0 .2.29.83 1.46.83.56 0 .97-.23 1.1-.34l.05.08c-.14.12-.56.36-1.15.36-1.2 0-1.55-.64-1.55-.93 0-.14.02-.3.04-.42-.45.25-.79.58-1.04.94Zm3.38 7.11a9 9 0 0 1-.79 3.41v-2.18c.07-.13.11-.32.14-.51a5 5 0 0 0 .06-.51v-.05h-.04a3.7 3.7 0 0 0-.71-.06.36.36 0 0 0-.1.02.14.14 0 0 0-.06.06.18.18 0 0 0-.02.09l.01.11c.02.08.04.18.08.28.06.2.15.42.22.57l-.28 2.15c-.28-.53-.78-1.93-.94-4.17.46.39 1.25.8 2.43.8Zm-.86 1.17H8.5a6.68 6.68 0 0 1-.28-.8.53.53 0 0 1-.01-.1v-.04l.03-.02.07-.01h.21c.15 0 .32.02.44.05a4.98 4.98 0 0 1-.18.92Z" fill="#081915"/></svg>