<!-- by TradingView --><svg width="18" height="18" viewBox="0 0 18 18" xmlns="http://www.w3.org/2000/svg"><path fill="#E4C84C" d="M0 0h18v18H0z"/><path d="m12.55 9.38-.27-.06h-.03c.01-.04.01-.08 0-.14a3.63 3.63 0 0 0-.33-.87c-.04-.07-.02-.13.05-.17.08-.04.14-.03.18.04a3.12 3.12 0 0 1 .3.67c.3-.03.62-.1.67-.43l.02-.25-.03-.8v-.53l.03-.62.07-.58c.02-.2.02-.4-.02-.6a.96.96 0 0 0-.59-.7.76.76 0 0 0-.4-.06c-.4.05-.73.4-.93.74a6.54 6.54 0 0 0-.68 2.07c.24.06.47.15.68.27l.09.07c.05.1-.03.2-.13.2a.28.28 0 0 1-.12-.05c-.1-.05-.17-.1-.24-.12a4.1 4.1 0 0 0-.96-.22 7.67 7.67 0 0 0-2.5.13c-.2.05-.39.13-.57.24-.08.04-.14.03-.18-.04-.06-.08-.04-.14.04-.19a2.34 2.34 0 0 1 .73-.3l-.07-.39a6.43 6.43 0 0 0-.67-1.73c-.2-.33-.54-.66-.96-.68-.46-.02-.82.34-.91.75-.05.2-.06.42-.03.63l.08.7c0 .13 0 .26.02.39l.01.43-.02.57c0 .17-.03.45 0 .68.06.33.38.38.66.42h.02l.09-.25c.04-.12.1-.26.2-.41.04-.08.1-.1.17-.06h.01c.07.05.1.1.05.18-.12.23-.21.47-.29.72-.03.1-.05.2-.05.3l-.3.06.05-.26-.02-.01c-.2-.05-.41-.09-.6-.21-.19-.13-.25-.32-.27-.55a3.6 3.6 0 0 1 0-.5c.02-.43.01-.76.01-1.28a13.61 13.61 0 0 0-.11-1.14c-.01-.64.27-1.21.95-1.4.25-.08.53-.02.75.09.43.2.74.64.94 1.07a6.86 6.86 0 0 1 .58 1.82h.01a7.3 7.3 0 0 1 2.55 0L10.3 7c.11-.62.28-1.23.55-1.79.17-.35.4-.7.72-.95.19-.14.4-.23.66-.25h.23c.52.13.85.43.98.93.08.29.07.59.02.9a7.37 7.37 0 0 0-.07 1.57c0 .25.03.6.02.9l-.03.2a.6.6 0 0 1-.3.43c-.16.1-.33.13-.55.18l-.02.01.04.25Z" fill="#3E3015"/><path d="M7.36 6.7a2.25 2.25 0 0 1-.5-.16V6.5c0-.1-.02-.2-.04-.29-.05-.2-.13-.45-.23-.75s-.34-.67-.67-.76a.6.6 0 0 0-.54.15.73.73 0 0 0-.2.41c-.04.2-.04.4-.02.64.01.16.08.34.1.49.01.15.02.3 0 .43 0 .13-.05.27-.07.41-.1.01-.2 0-.29-.05l-.01-.43c-.02-.13-.01-.26-.02-.4l-.08-.7c-.02-.2-.02-.41.03-.62.09-.4.45-.77.9-.75.43.02.76.35.97.68a6.43 6.43 0 0 1 .66 1.73ZM13.14 6.22c-.1.02-.2.01-.3-.02l.06-.28a5.38 5.38 0 0 0-.02-.68c-.05-.22-.17-.42-.4-.51-.4-.16-.7.14-.89.44a8.34 8.34 0 0 0-.35.99l-.44-.06c.11-.38.27-.74.47-1.08.2-.34.52-.69.94-.74.14-.01.27 0 .39.06.32.13.52.38.59.7.04.2.04.4.02.6l-.07.58Z" fill="#F0E05E"/><path d="M6.85 6.5c.02.17-.03.49-.2.58a.7.7 0 0 1-.34.08l-.13.01a.17.17 0 0 0-.1.1l-.16.34c-.07.12-.24.27-.4.27-.32.02-.35-.42-.33-.65.02-.14.06-.28.07-.4.02-.15.01-.3 0-.44-.02-.15-.09-.33-.1-.49-.02-.23-.02-.45.01-.64.03-.16.1-.3.21-.4a.6.6 0 0 1 .54-.16c.33.09.57.46.67.76.1.3.18.55.23.75.02.09.03.18.03.29ZM12.83 6.2a1.97 1.97 0 0 0-.04.57c0 .14.05.3.06.43v.36c-.02.12-.1.3-.23.32-.24.04-.45-.17-.54-.37l-.12-.25c-.03-.06-.08-.1-.15-.1-.19.01-.44-.03-.53-.21a1.08 1.08 0 0 1-.03-.8 8.38 8.38 0 0 1 .34-.98c.19-.3.49-.6.9-.44.22.09.34.29.4.51l.01.29v.39l-.07.28ZM9 8.87h.25c.32.04.63.13.88.32.02.02.03.05.03.1 0 .07-.06.13-.15.12a.22.22 0 0 1-.1-.04A1.64 1.64 0 0 0 9 9.13c-.32 0-.64.07-.9.24a.22.22 0 0 1-.11.04c-.09 0-.15-.05-.15-.13 0-.04.01-.07.04-.09A1.73 1.73 0 0 1 9 8.87Z" fill="#3E3015"/><path d="m6.44 9.26-.68 1.35-.09.18a.58.58 0 0 1-.1-.04c-.02-.01-.03-.02-.03-.04l.08-.13.54-1.11.1-.2h.18Z" fill="#686868"/><path d="m6.72 9.27-.12.22c-.01.03 0 .05.03.05.3.05.37.36.24.6a.81.81 0 0 1-.38.37c-.12.06-.23.1-.34.1-.1.02-.23.02-.39 0l.68-1.35h.28Z" fill="#1A1A1A"/><path d="M12.04 9.28c-.06.02-.11.08-.15.17l-.08.18-.4.78-.28.54-.12-.03v-.02l.28-.59.42-.84.09-.18a.02.02 0 0 0 0-.02.02.02 0 0 0-.01 0h-.01.26Z" fill="#686868"/><path d="m6.25 9.27-.1.2a3.16 3.16 0 0 0-.9.1l-.19.04c.11-.1.24-.17.39-.22l.29-.06.51-.06ZM11.78 9.26a.02.02 0 0 1 .02.01v.02l-.09.18a18.87 18.87 0 0 1-.44.14c-.2.13-.16.43-.03.61l.05.09-.29.59h-.05a2.89 2.89 0 0 1-.3-.15l-.25-.2c-.13-.14-.21-.3-.26-.48 0-.05-.03-.08-.08-.1a3.14 3.14 0 0 0-2.11.03l-.02.03c-.08.36-.28.57-.59.77l-.36.14a1.9 1.9 0 0 1-1.22-.1l-.09-.05.09-.18c.16.02.3.02.4 0 .1 0 .2-.04.33-.1.17-.08.3-.2.38-.37.13-.24.06-.55-.24-.6-.03 0-.04-.02-.03-.05l.12-.22.21.01c.14 0 .32.03.54.09.1.03.19.06.24.1a.6.6 0 0 1 .18.2l.06.2h.01l.4-.11a3.62 3.62 0 0 1 1.77.1l.03-.15a.52.52 0 0 1 .3-.3c.16-.06.37-.1.62-.12.23-.02.46-.03.7-.03Z"/><path d="m12.04 9.28.2.03.04.01h-.04c-.01 0-.02 0-.02.02l-.05.1a.02.02 0 0 0 .01.02h.01l.4.04a6.26 6.26 0 0 1 .44.15c.16.16.2.33.12.5a4.2 4.2 0 0 1-.38.3c-.1.04-.21.1-.31.12-.17.05-.34.06-.5.05-.2-.01-.38-.08-.55-.2a104.73 104.73 0 0 1 .48-.97c.04-.09.09-.15.15-.17Z" fill="#1A1A1A"/><path d="m12.28 9.32.27.06.12.03c.14.05.27.13.37.24a6.43 6.43 0 0 0-.44-.15 3.8 3.8 0 0 0-.43-.05v-.01l.05-.1.02-.02h.04Z"/><path d="m10.16 9.7-.03.17h-.01a4.18 4.18 0 0 0-.58-.15c-.4-.1-.8-.1-1.17.04l-.4.12-.02-.01-.06-.2c.28-.16.57-.25.87-.28a2.2 2.2 0 0 1 1.4.31Z" fill="#3E3015"/><path d="m11.71 9.47-.42.84a.79.79 0 0 0-.05-.09c-.13-.18-.16-.48.03-.61a18.67 18.67 0 0 0 .44-.14Z" fill="#1A1A1A"/><path d="M11.97 9.46H12.14a.03.03 0 0 1 .01.02v.02l-.28.6-.02.02h-.17a.03.03 0 0 1-.02-.02v-.01l.29-.61v-.02h.02Z" fill="#3C3C3C"/><path d="m6.16 9.47-.54 1.11a2.3 2.3 0 0 1-.45-.21.75.75 0 0 1-.18-.17c-.02-.02-.04-.03-.06-.02a.42.42 0 0 1-.05-.25.51.51 0 0 1 .18-.32c.06 0 .12-.02.18-.05l.18-.05c.25-.04.5-.06.74-.04Z" fill="#1A1A1A"/><path d="m6.42 9.5.13.02a.03.03 0 0 1 .02.02.03.03 0 0 1 0 .02l-.26.55a.03.03 0 0 1-.02.02h-.16l-.01-.02a.03.03 0 0 1 0-.02l.27-.58V9.5h.03Z" fill="#3C3C3C"/><path d="M9.53 9.74a3.61 3.61 0 0 0-1.16.02 1.94 1.94 0 0 1 1.17-.03Z" fill="#9A7724"/><path d="M10.65 10.75c.07.25.18.47.32.66.07.1.16.2.27.28l.09.36c.04.15.03.3-.03.44-.05.1-.1.2-.18.31a1.5 1.5 0 0 1-1.1-.4c-.11-.1-.27-.2-.46-.32-.2-.11-.3-.26-.43-.43-.05-.07-.1-.12-.18-.08-.03 0-.06.04-.1.1l-.14.18a.73.73 0 0 1-.18.18c-.19.1-.37.22-.53.36-.14.11-.24.19-.29.21-.24.15-.52.21-.81.2a.86.86 0 0 0-.1-.13 1.08 1.08 0 0 1-.12-.26c-.09-.23.03-.5.09-.72.2-.17.36-.38.47-.63.04-.1.08-.18.1-.26.3-.2.51-.41.6-.77V10l.04-.02a3.14 3.14 0 0 1 2.09 0c.04 0 .06.04.07.09.05.18.13.34.26.47.07.07.15.14.25.21Z" fill="#9A7724"/><path d="M8.85 9.83h.4c.3.03.62.17.66.5a.55.55 0 0 1-.17.47c-.17.16-.4.23-.64.27a.4.4 0 0 1-.15 0 1.4 1.4 0 0 1-.6-.28.5.5 0 0 1-.19-.5c.03-.13.1-.24.22-.3.15-.1.3-.15.47-.16Z" fill="#3E3015"/><path d="M13.15 10.16c-.05.1-.1.2-.18.28a37.49 37.49 0 0 0-.4.66c-.03-.05-.04-.09-.03-.13l.18-.32c0-.02 0-.02-.02-.01l-.2.11-.27.11-.33.1c-.25.04-.52.05-.77 0l.28-.55c.17.13.35.2.55.21.16.01.33 0 .5-.05.1-.03.21-.08.3-.13a4.25 4.25 0 0 0 .38-.29ZM5.62 10.58l-.08.13H5.5l-.2-.1.17.31c0 .05-.01.1-.04.14a24.18 24.18 0 0 0-.5-.88c.02 0 .04 0 .06.02.06.07.12.13.18.17.14.08.29.15.45.21Z"/><path d="m5.5 10.72-.03.2-.17-.3v-.01l.2.1ZM12.54 10.97l-.04-.22.2-.11h.02l-.18.33Z" fill="#fff"/><path d="M5.55 10.71c0 .02 0 .03.02.04l.1.04.1.05-.11.7h.01c.1-.02.21-.02.34 0 .1.02.23.03.38.01a.4.4 0 0 0 .25-.12c.15-.14.26-.3.34-.49l.36-.14c-.02.08-.06.16-.1.26-.11.25-.27.46-.47.63-.14.1-.3.14-.5.14s-.32-.01-.4-.03h-.11c-.33.14-.33.55-.17.81.24.42.7.68 1.17.76l.39.03c.24.02.48.06.71.14a3.62 3.62 0 0 0 2.08.06 6.93 6.93 0 0 1 .87-.2c.61 0 1.23-.23 1.57-.73.14-.2.19-.46.08-.68-.06-.1-.18-.22-.3-.2-.18.04-.35.05-.5.04a.8.8 0 0 1-.42-.14c-.1-.09-.2-.18-.27-.28-.14-.19-.25-.4-.32-.66l.3.15H11v.02c.06.14.15.28.27.42.1.12.2.2.36.21.18.02.31 0 .5-.02l.2.01h.01l-.1-.68.26-.1.04.2c-.01.05 0 .1.04.14l.04.62v.03c.26.34.21.76-.03 1.1a2 2 0 0 1-1.27.78 2.8 2.8 0 0 1-.46.05c-.12 0-.21.01-.29.03-.25.05-.59.17-.84.22a4.34 4.34 0 0 1-1.83-.1c-.26-.07-.46-.14-.7-.15a2.22 2.22 0 0 1-1.74-.77c-.12-.15-.2-.31-.24-.5a.82.82 0 0 1 .16-.67v-.02c.01-.1 0-.22.02-.34a14.3 14.3 0 0 0 .07-.46l.03-.2h.05Z" fill="#3E3015"/><path d="M6.98 10.94c-.08.2-.19.35-.34.5a.4.4 0 0 1-.25.11 1.4 1.4 0 0 1-.38 0 .86.86 0 0 0-.34 0l-.01-.02.1-.7a1.9 1.9 0 0 0 1.22.1ZM12.23 10.86l.11.67c0 .01 0 .02-.01.01a.56.56 0 0 0-.2-.01c-.19.02-.32.04-.5.02-.16-.01-.26-.09-.36-.21-.12-.14-.2-.28-.26-.42l.12.03a1.93 1.93 0 0 0 1.1-.09Z" fill="#D9AE24"/><path d="M7.8 11.3c.1 0 .18-.07.18-.16 0-.1-.08-.18-.18-.18-.1 0-.17.08-.17.18 0 .1.07.17.17.17ZM10.2 11.3c.1 0 .18-.07.18-.16 0-.1-.08-.18-.18-.18-.1 0-.18.08-.18.18 0 .1.08.17.18.17ZM8.33 11.65c.1 0 .18-.08.18-.17 0-.1-.08-.17-.18-.17-.1 0-.18.07-.18.17s.08.17.18.17ZM9.67 11.65c.1 0 .18-.08.18-.17 0-.1-.08-.17-.18-.17-.1 0-.18.07-.18.17s.08.17.18.17ZM7.34 11.72c.1.03.2-.03.22-.12a.17.17 0 0 0-.13-.2.18.18 0 0 0-.22.12c-.02.09.04.18.13.2ZM10.67 11.72c.1-.03.14-.13.11-.22a.18.18 0 0 0-.22-.1.17.17 0 0 0-.11.22c.03.09.13.13.22.1ZM11.12 12.8c.25-.01.45-.1.61-.28l.19-.2c.1-.07.26.08.18.19-.26.35-.59.57-1.05.56-.23 0-.44-.04-.65-.12h-.02c-.19.14-.38.24-.59.3-.44.11-.9.12-1.35.03-.3-.05-.57-.16-.8-.33H7.6c-.3.12-.6.15-.89.1-.34-.05-.6-.25-.81-.53-.05-.06-.05-.12.02-.18s.14-.05.2.02c.2.25.4.43.77.44A1.49 1.49 0 0 0 8 12.4c.16-.14.34-.26.53-.36.04-.02.1-.08.18-.18l.14-.19.1-.1c.08-.03.13.02.18.09.12.17.23.32.43.43.2.11.35.22.45.31.33.3.7.43 1.1.41Z" fill="#3E3015"/><path d="M6.77 11.69c-.06.22-.18.49-.1.72.06.14.1.23.13.26l.1.13c-.36 0-.57-.19-.78-.44-.05-.07-.12-.08-.18-.02-.08.06-.08.12-.03.18.2.28.47.48.81.53.3.05.6.01.89-.1h.02c.24.17.51.28.81.33l-.58.26a2.98 2.98 0 0 0-.71-.14 6.87 6.87 0 0 1-.39-.03 1.7 1.7 0 0 1-1.17-.76c-.16-.26-.16-.67.17-.81a.18.18 0 0 1 .11 0 2 2 0 0 0 .4.03c.2 0 .36-.05.5-.14Z" fill="#D9AE24"/><path d="M11.24 11.69a.8.8 0 0 0 .41.14c.16 0 .33 0 .5-.04.13-.02.25.1.3.2.12.22.07.48-.07.68-.34.5-.96.73-1.57.73l-.22.03c-.17.04-.4.09-.65.17a3.62 3.62 0 0 1-2.08-.06l.58-.26c.46.1.91.08 1.35-.04.2-.05.4-.15.59-.28h.02c.2.07.42.11.65.11.46 0 .79-.2 1.05-.56.08-.1-.08-.26-.18-.18-.07.05-.13.13-.19.2a.89.89 0 0 1-.61.27c.07-.1.13-.2.18-.31a.64.64 0 0 0 .03-.44l-.1-.36Z" fill="#BC9420"/><path d="M7.97 12.11c.1 0 .18-.06.19-.15 0-.1-.07-.18-.17-.19-.1 0-.18.07-.19.16 0 .1.07.18.17.18ZM10.05 12.11c.1-.02.16-.1.15-.2a.18.18 0 0 0-.2-.13c-.1.01-.17.1-.15.2.01.08.1.15.2.13Z" fill="#3E3015"/><path d="m9 11.94.02.01c.05.08.12.16.2.23.03.03.1.08.23.15a2.71 2.71 0 0 1 .42.32 2.37 2.37 0 0 1-1.74 0 .01.01 0 0 1 0-.02l.42-.3.24-.15a1.4 1.4 0 0 0 .21-.24Z" fill="#FE8C7E"/><path d="M7.39 12.29c.1 0 .17-.08.17-.18 0-.09-.08-.17-.17-.17-.1 0-.18.08-.18.17 0 .1.08.18.18.18ZM10.61 12.29c.1 0 .18-.08.18-.18 0-.09-.08-.17-.18-.17-.1 0-.17.08-.17.17 0 .1.08.18.17.18Z" fill="#3E3015"/></svg>