<!-- by TradingView --><svg width="18" height="18" viewBox="0 0 18 18" xmlns="http://www.w3.org/2000/svg"><path fill="#028A08" d="M0 0h18v18H0z"/><path d="M5.8 10v4L4.7 13.1l-.7-.67-.2-.24V9.99h-.53l1.61-2.4L6.31 10h-.5Z" fill="url(#ar3srrpxh)"/><path d="m4.88 7.35 1.67 2.85h-.6v3.87c-1.03-.46-2.3-2.03-2.3-2.03V10.2H3l1.88-2.85Zm-1.36 2.5h.47v2.55l1.64 1.5V9.86h.43l-1.2-2.01-1.34 2Z" fill="url(#br3srrpxh)"/><path d="M13.4 9.3v.91h-.98V9.3h-.53l1.2-2.66 1.12 2.66h-.8Z" fill="url(#cr3srrpxh)"/><path d="m13.22 6.27 1.23 3.17h-1.07v.96h-.93v-.96h-.66l1.43-3.17Zm-.91 2.88h.4v.97h.4v-.97h.85l-.75-2.38-.9 2.38Z" fill="url(#dr3srrpxh)"/><path d="m8.94 3 1.23 3.17H9.1v.96h-.93v-.96H7.5L8.94 3Zm-.91 2.89h.4v.96h.4v-.96h.85L8.93 3.5l-.9 2.39Z" fill="#6ABD3A"/><path d="M13.7 6.28v7.05h-2V6.28h-.54l1.61-2.4 1.72 2.4h-.78Z" fill="url(#er3srrpxh)"/><path d="M12.78 3.63 15 6.43h-1.17v6.87l-2.27.17V6.43h-.66l1.88-2.8Zm-1.36 2.46h.4v7.1h1.69v-7.1h.74l-1.48-1.96-1.35 1.96Z" fill="url(#fr3srrpxh)"/><path d="M7.5 13.65v1.07c-.67-.13-2-.91-2-.91v-.16l-.34-.15 1.41-2.24 1.44 2.4h-.5Z" fill="url(#gr3srrpxh)"/><path d="m14.37 12.87-.68.6-1.03.6-.5.17 1.62-2.4.6 1.03Z" fill="url(#hr3srrpxh)"/><path d="m13.79 11.6.71 1.18-1.94 1.45-.65.15 1.88-2.79Zm-1.36 2.5h.4l1.4-1.12-.46-.88-1.34 2Z" fill="url(#ir3srrpxh)"/><path d="M5.88 14.04c1.03.6 2.22.96 3.48.96h.05c1.8 0 3.43-.7 4.68-1.85a21.65 21.65 0 0 0-1.74 0l-.07.01-.12-.01-.26-.02a.16.16 0 0 1-.09-.05l-.14-.24-.04-.33.06-.2v-.1l.08.03.09-.02a6.32 6.32 0 0 1 .55-.44l.05-.03.06-.1.1-.27.28-.47-.05-.47.1-.32.19-.45c0-.07 0-.22.02-.25l.05-.2.04-.2a.8.8 0 0 0 .04-.2c0-.16-.02-.49-.08-.6a4.88 4.88 0 0 0-.35-.53l-.04-.32.04-.44-.15-.18a4.28 4.28 0 0 1-.04-.25l-.15-.29-.21-.2-.1-.32a2.8 2.8 0 0 0-.3-.7 2.18 2.18 0 0 0-.48-.44l-1.17-.64a2 2 0 0 0-.77-.19c-.3 0-.8.04-1.03.05l-.66.18-.32.07-.45.33-.28.26a3.19 3.19 0 0 0-.6.37 3.71 3.71 0 0 1-.13.28l-.15.35-.04.19-.04.37-.08.35v.46l-.03.25c0 .11-.01.4.03.66l.17.8.1.22.13.21.15.3.2.39.31.32.27.43c.07.12.14.37.16.48l.13.61.03.2-.1.25c.02.06.03.22 0 .34v.07c-.03.1-.04.16-.07.21l-.16.34-.09.17-.16.28-.09.05-.11.14-.21.08c-.1.04-.21.08-.23.1l-.26.16ZM3.73 15a9.97 9.97 0 0 1-.07-.06V15h.07Z" fill="#028A08"/><path d="M8.62 3.8a39.34 39.34 0 0 0-1.18.3l-.13.1a12.14 12.14 0 0 0-.37.32l-.04.03a10.93 10.93 0 0 1-.1.08v.01l-.12.05a4.59 4.59 0 0 1-.53.4.43.43 0 0 0-.04.06.14.14 0 0 0-.02.05 1.91 1.91 0 0 1-.12.34c-.04.08-.09.18-.1.23v.35l-.01.03-.07.14a.6.6 0 0 0-.03.18v.42a1.28 1.28 0 0 1-.03.28l-.02.13.03.36.05.3.01.12.16.74a4.9 4.9 0 0 0 .22.36.3.3 0 0 0 .04.1c.04.06.13.21.17.34l.05.09.08.1c.07.07.13.13.17.15l.07.07a2.05 2.05 0 0 1 .38.63 13.64 13.64 0 0 1 .27 1.25c-.03.05-.08.18-.1.27l-.02.09v.12c0 .09 0 .19-.04.27-.03.1-.11.28-.15.36a.55.55 0 0 1-.02.14l-.03.04-.01.02-.02.03a2.81 2.81 0 0 0-.17.3l-.04.02a1.06 1.06 0 0 0-.08.01l-.02.02a.82.82 0 0 0-.04.06c.07 0 .15-.02.2-.03.03 0 .05.02.05.05 0 .02-.01.05-.04.05a11.52 11.52 0 0 0-.48.1 5.24 5.24 0 0 0-.5.23L5.83 14l.22-.12a5.34 5.34 0 0 1 .5-.2 2.79 2.79 0 0 1 .14-.18l.06-.02h.04a8.27 8.27 0 0 1 .2-.35l.01-.01.01-.04v-.07l.01-.02.16-.37a.84.84 0 0 0 .03-.27v-.09l.01-.1.1-.28a13.62 13.62 0 0 0-.26-1.2 9.6 9.6 0 0 0-.16-.32 3.13 3.13 0 0 0-.26-.32 1.53 1.53 0 0 1-.27-.27.43.43 0 0 1-.06-.12 1.4 1.4 0 0 0-.16-.32l-.04-.1V9.2a.23.23 0 0 0-.04-.08 4.98 4.98 0 0 1-.18-.28 12.98 12.98 0 0 1-.23-1.17c-.02-.15-.04-.3-.03-.39l.02-.14V7.1c.02-.05.02-.11.02-.22v-.42a.7.7 0 0 1 .05-.21l.06-.15v-.38a12.5 12.5 0 0 1 .19-.4L6 5.17l.03-.08a.52.52 0 0 1 .23-.21l.17-.12a4.49 4.49 0 0 0 .2-.16 4.7 4.7 0 0 0 .14-.08 10.93 10.93 0 0 0 .1-.08l.17-.14A12.25 12.25 0 0 1 7.4 4c.02 0 .04 0 .07-.02a2.95 2.95 0 0 1 .43-.12 39.37 39.37 0 0 1 .71-.17l.8-.03c.18 0 .3.02.4.05.1.02.2.06.31.1l.08.04a5.57 5.57 0 0 1 .83.41l.3.17.33.22.15.16a2.96 2.96 0 0 1 .45.82l.09.33a1.71 1.71 0 0 1 .2.18l.05.07a1.83 1.83 0 0 1 .07.16l.08.15.01.03v.22l.12.13.01.03v.33l-.01.12v.11c.03.03.03.07.03.1v.03l-.01.03v.04c0 .02.01.03.04.06.08.05.13.13.18.2a2.44 2.44 0 0 1 .16.42l.03.2.02.17v.09l.02.04c0 .03 0 .06-.02.1a.5.5 0 0 1-.04.1.2.2 0 0 0 0 .07.57.57 0 0 1-.05.22v.03l-.01.01-.01.03v.02l-.03.07a.87.87 0 0 0-.03.12.1.1 0 0 1 0 .04v.04l-.03.1-.07.17-.1.18a.69.69 0 0 0-.05.22 5.02 5.02 0 0 0 .03.59l-.13.21a.34.34 0 0 1-.05.08l-.03.04-.03.03a.29.29 0 0 0-.08.15l-.04.2-.04.07a.12.12 0 0 1-.06.05.9.9 0 0 0-.1.05.28.28 0 0 0-.1.07 1.87 1.87 0 0 1-.15.13l-.02.02c-.05.04-.1.07-.12.1a.53.53 0 0 1-.17.12c-.04.02-.06 0-.07-.03h-.02a.61.61 0 0 1 .01.09v.05c-.03.05-.06.1-.04.15a1.62 1.62 0 0 1 .04.33l.01.02a1.36 1.36 0 0 0 .1.15.82.82 0 0 0 .11 0h.1c.03 0 .08 0 .12.02l.1.04.33-.06h.01l1.5.05-.1.1-1.4-.05-.33.06h-.02a1.4 1.4 0 0 0-.22-.06h-.14a.93.93 0 0 1-.1 0l-.02-.02-.02-.02a1.1 1.1 0 0 1-.06-.1 1.47 1.47 0 0 1-.06-.1v-.04a2 2 0 0 0-.04-.3c-.03-.08.02-.17.04-.2v-.06l-.01-.04c-.14.04-.42.08-.61.1a.78.78 0 0 1-.33-.04.71.71 0 0 0-.19-.03.48.48 0 0 1-.22-.06l-.08-.04a15.26 15.26 0 0 1-.27-.18l-.13-.12-.21-.15a.67.67 0 0 0-.2-.09 4.46 4.46 0 0 1-.49-.25l-.5-.34a2.91 2.91 0 0 1-.3-.3.48.48 0 0 1-.08-.1l-.09-.24a20.58 20.58 0 0 0-.16-.47 13.13 13.13 0 0 1-.07-.35V9.4c0-.03.02-.05.04-.05.03 0 .05.02.05.05v.23a13 13 0 0 0 .14.55l.02.05.05.13.02.06a4.34 4.34 0 0 0 .14.3l.1.11a2.84 2.84 0 0 0 .7.52 4.33 4.33 0 0 0 .45.24c.07.01.15.05.22.1.08.04.15.1.22.16l.14.1a14.89 14.89 0 0 0 .25.18l.08.04c.06.03.11.05.18.05a.8.8 0 0 1 .21.04h.04c.08.03.16.05.26.04l.64-.11c.05-.02.1-.02.13 0a.1.1 0 0 1 .03.02.42.42 0 0 0 .1-.09l.14-.11.02-.01a1.72 1.72 0 0 0 .12-.12.37.37 0 0 1 .13-.1l.12-.05.02-.02.02-.05.04-.17a.39.39 0 0 1 .1-.2c0-.02.02-.03.03-.04l.03-.03a.24.24 0 0 0 .03-.06l.14-.22c-.02-.13-.04-.4-.04-.55 0-.08.03-.17.06-.25a2.14 2.14 0 0 0 .19-.46v-.04a.95.95 0 0 1 .03-.14l.03-.07V9.4l.01-.03v-.02l.01-.02v-.01l.02-.05a.47.47 0 0 0 .02-.13c0-.05 0-.09.02-.12l.01-.02V9a.38.38 0 0 0 .04-.1v-.01l-.02-.03v-.02a.7.7 0 0 1 0-.08l-.02-.17a2.35 2.35 0 0 0-.07-.34l-.04-.09a2.2 2.2 0 0 0-.07-.15.55.55 0 0 0-.15-.17.21.21 0 0 1-.08-.1.19.19 0 0 1 0-.1v-.08c-.04-.05-.04-.1-.03-.15l.01-.05.01-.09v-.3l-.12-.13a.05.05 0 0 1-.01-.04v-.22a.86.86 0 0 1-.12-.23 1.52 1.52 0 0 0-.03-.09.23.23 0 0 0-.04-.05 1.6 1.6 0 0 0-.2-.17.05.05 0 0 1-.02-.02l-.09-.35a42.22 42.22 0 0 0-.17-.4 4.33 4.33 0 0 0-.39-.53 4.67 4.67 0 0 0-.95-.55 5.5 5.5 0 0 0-.5-.24l-.08-.03c-.11-.05-.2-.08-.29-.1-.1-.04-.2-.05-.37-.05-.27 0-.64.02-.8.03Zm-.76 6.42Z" fill="#070006"/><path d="M8.62 12.8c0 .03 0 .06-.03.07l-.3.1a6.34 6.34 0 0 0-.15.23 1.9 1.9 0 0 1-.06.16 1.6 1.6 0 0 0-.05.11l-.03.05a.85.85 0 0 1-.05.1l-.04.03a3.1 3.1 0 0 1-.17.02c-.02 0-.04-.02-.05-.04 0-.03.02-.05.05-.06a2.73 2.73 0 0 0 .15-.03.76.76 0 0 0 .05-.1l.06-.12a.61.61 0 0 0 .05-.15 1.84 1.84 0 0 1 .03-.07 2.86 2.86 0 0 1 .18-.22l.3-.1c.03-.02.05 0 .06.02Zm-.74.76ZM12.02 10.81a2.26 2.26 0 0 1-.2.05l-.2.08-.04.01a1.78 1.78 0 0 1-.09.04.1.1 0 0 1-.04-.01.17.17 0 0 1-.04-.03.65.65 0 0 0-.08 0 3.74 3.74 0 0 1-.35.1h-.08a.69.69 0 0 1-.1-.05.29.29 0 0 0-.08-.01 1.33 1.33 0 0 0-.25 0h-.04v.03c0 .02-.02.03-.03.03l-.02.02a.4.4 0 0 1-.05.02c-.02 0-.05 0-.06-.03 0-.03 0-.06.03-.07l.04-.01v-.02l.01-.05a.07.07 0 0 1 .06-.02h.06a3.77 3.77 0 0 1 .26 0c.04 0 .08 0 .1.02l.1.04h.03a2.16 2.16 0 0 0 .15-.04 4.22 4.22 0 0 0 .27-.06h.07v.01a.19.19 0 0 1 .01 0l.02.02h.03l.04-.02a4.69 4.69 0 0 1 .25-.09 2.14 2.14 0 0 0 .18-.05l.03-.01h.02l.02.01.05.04.1.08c.02.02.03.05.01.07a.04.04 0 0 1-.06.01 2.64 2.64 0 0 0-.13-.1Zm-.05-.08Zm-.54.12Zm-.48.1Zm-.52 0Zm-.03.04ZM10.62 9.58c.02.02.01.05 0 .07l-.18.11a.26.26 0 0 1-.1.03h-.01v.1l.02.04c0 .02.02.05.05.08.01.02.05.04.09.06a.7.7 0 0 0 .1.04c.03 0 .05.04.04.06 0 .03-.03.04-.06.04a.8.8 0 0 1-.12-.05.32.32 0 0 1-.12-.09 1.22 1.22 0 0 1-.06-.09.21.21 0 0 1-.03-.07.51.51 0 0 1 0-.14l.03-.06.04-.01h.03l.06-.02.16-.11a.04.04 0 0 1 .06 0Zm-.29.21ZM11.28 8.4c.03 0 .05.02.05.04l.01.04.05.13c.04.1.08.17.11.2l.03.04.02.02a2.22 2.22 0 0 0 .06.05l.15.13c.06.06.17.13.22.15l.03.04v.18l-.08.25a.05.05 0 0 1-.06.03.05.05 0 0 1-.03-.07l.08-.23v-.12l-.23-.16a1.5 1.5 0 0 0-.2-.17l-.02-.02-.02-.03-.01-.01c-.03-.04-.09-.12-.14-.24a1.8 1.8 0 0 1-.06-.2c0-.03.02-.05.04-.05ZM10.68 10.1c.03.04.19.05.2.05l.13-.04c.06-.01.05-.12.06-.16.01-.04-.04-.1-.09-.12-.04-.03-.15 0-.2.02a.29.29 0 0 0-.14.12c-.01.04.01.08.04.13ZM11.48 9.88c0 .06.1.11.11.11l.11.01c.04 0 .08-.1.1-.12.02-.03 0-.1-.01-.14-.02-.04-.1-.05-.15-.05a.24.24 0 0 0-.13.07c-.03.03-.03.07-.03.12ZM10 7.97c.03 0 .05.03.05.05a3.11 3.11 0 0 1-.03.22c-.01.04-.05.06-.07.08l-.07.04h-.02a.26.26 0 0 1-.07.03 1.11 1.11 0 0 1-.23.01h-.02l-.05.02a9.7 9.7 0 0 1-.43.1.61.61 0 0 1-.17-.08 2.1 2.1 0 0 1-.15-.1.05.05 0 0 1 0-.07.04.04 0 0 1 .06-.02 2 2 0 0 0 .27.17c.04.01.08 0 .13-.02l.04-.01.03-.01.06-.02.05-.01.07-.02h.02a4.28 4.28 0 0 1 .1-.03 2.28 2.28 0 0 0 .25-.02l.03-.01a.65.65 0 0 0 .05-.03l.03-.03.02-.09v-.1c0-.03.03-.05.06-.05ZM12.33 7.64c.02 0 .05.02.05.05a2.31 2.31 0 0 1-.02.29.07.07 0 0 1-.05.03.2.2 0 0 1-.05.01h-.12a3.4 3.4 0 0 1-.16-.04h-.06a1.28 1.28 0 0 0-.17.03 14.8 14.8 0 0 1-.27.04s-.04-.02-.04-.05v-.04l.02-.01v-.06a.2.2 0 0 1-.01-.02v-.03c0-.02.02-.04.05-.04.02 0 .03.02.04.04l.02.05v.05l.1-.01.07-.02a7.17 7.17 0 0 1 .23-.03H12a2.9 2.9 0 0 0 .27.04V7.69c0-.03.02-.05.05-.05Zm-.04.28Zm-.76-.08ZM11.06 5.63l-.1.03c-.08 0-.27.07-.36.1l-.43.08a1.44 1.44 0 0 1-.35-.01l-.03-.01a3.07 3.07 0 0 0-.14-.04 1.5 1.5 0 0 0-.3.08 2 2 0 0 1-.32.09 1.6 1.6 0 0 0-.33.1 14.65 14.65 0 0 0-.5.18c-.02 0-.04 0-.04-.02s0-.03.02-.04l.15-.04.35-.14.03-.01.31-.1c.1 0 .25-.06.32-.08a3.5 3.5 0 0 1 .3-.08c.05 0 .1.02.14.03l.03.01a1.9 1.9 0 0 0 .06.02c.04 0 .19.02.3 0a11.56 11.56 0 0 0 1.04-.22 10.92 10.92 0 0 1 .33.14l.03.02h.02l-.01.03v-.03c.02 0 .03.03.02.04 0 .02-.02.02-.04.02l.01-.03v.03h-.02l-.03-.02a29.18 29.18 0 0 0-.33-.14.13.13 0 0 0-.1 0h-.03ZM11.31 6.04l.14.07c.01 0 .02.03.01.04 0 .02-.02.02-.04.01l-.11-.06a15.63 15.63 0 0 1-.6.1l-.2.03a1.2 1.2 0 0 1-.13.05.58.58 0 0 1-.15.03 1.76 1.76 0 0 1-.38-.08h-.01l-.02-.01H9.6l-.17.06-.17.07c-.12.06-.37.18-.44.23-.07.05-.38.2-.52.27a161.4 161.4 0 0 1-.5.1V6.9c.03-.01.1-.04.18-.05l.3-.06c.15-.07.44-.22.51-.27l.44-.23a2.52 2.52 0 0 1 .37-.13h.16a.71.71 0 0 1 .09 0h.04c0 .01.01.02.03.02a1.71 1.71 0 0 0 .3.06l.14-.03.13-.05a18.12 18.12 0 0 1 .56-.07l.25-.06h.01ZM9.51 6.93l-.07.02a77.98 77.98 0 0 1-.4.1L9 7.06a12.62 12.62 0 0 1-.17.1l-.13.04-.03.01-.07.03-.03.02a3.74 3.74 0 0 0-.2.16.03.03 0 0 1-.04 0v-.04a13.45 13.45 0 0 1 .24-.19h.01a.56.56 0 0 0 .04-.02l.03-.01.03-.01a3.31 3.31 0 0 1 .18-.08 2.82 2.82 0 0 0 .19-.1v-.01a72.64 72.64 0 0 0 .69-.13l.02.05c0 .02-.01.03-.03.03a.03.03 0 0 1-.03-.02v-.01h-.02a.2.2 0 0 0-.07 0l-.1.04Zm-.91.32Zm.47-.22ZM11.63 6.42l.52.24c.02 0 .02.03.02.04-.01.02-.03.02-.04.02l-.5-.23a3.6 3.6 0 0 1-.34.09.24.24 0 0 0-.05.06l-.03.03a.17.17 0 0 1-.03.01.31.31 0 0 1-.06.02l-.06.06a.03.03 0 0 1-.04 0 .03.03 0 0 1 0-.05l.08-.07.06-.01.02-.01a.3.3 0 0 1 .07-.08l.02-.01a3.55 3.55 0 0 0 .34-.1h.02ZM9.82 7.22c0-.02.02-.03.03-.03a.5.5 0 0 1 .08.03l.09.06.06.1.04.08c0 .01 0 .03-.02.04-.01 0-.03 0-.03-.02a.67.67 0 0 0-.04-.08.32.32 0 0 0-.05-.08.28.28 0 0 0-.07-.04.44.44 0 0 0-.07-.03.03.03 0 0 1-.02-.03ZM11.2 6.97c.01 0 .03.01.03.03a24.08 24.08 0 0 0 .04.38v.04a.03.03 0 0 1-.05 0v-.03a1.25 1.25 0 0 1-.02-.14L11.17 7c0-.02.01-.03.03-.04ZM8.19 11.07h.04c.04.08.12.25.15.35l.04.23v.24l-.07.2c0 .02-.02.03-.04.03a.03.03 0 0 1-.01-.04l.06-.2a.65.65 0 0 0 0-.23c0-.08-.02-.16-.03-.22-.03-.09-.11-.25-.15-.32l.01-.04ZM10.93 13.85c0 .02 0 .04-.02.04a1.44 1.44 0 0 0-.39.14l-.03.06-.01.08v.03h-.02a2.89 2.89 0 0 1-.4.07c-.01 0-.03 0-.04-.02-.03-.04-.04-.1-.05-.14l-.01-.02H9.9v-.01h-.04l-.08-.06a2.54 2.54 0 0 1-.13-.08h-.03a.46.46 0 0 0-.07.02l-.09.04-.02.02c-.02 0-.03 0-.04-.02 0-.02 0-.03.02-.04a1.67 1.67 0 0 0 .11-.05.5.5 0 0 1 .11-.03h.03l.12.08.02.01.07.05h.05l.04.01.04.04v.03a.5.5 0 0 0 .05.11h.04a2.76 2.76 0 0 0 .32-.06l.01-.07c.01-.04.03-.08.06-.1l.18-.08c.08-.03.16-.06.23-.07.02 0 .03 0 .03.02Zm-.87.36ZM10.7 12.87l.04.01a4.26 4.26 0 0 0 .1.17v.01l.01.02.04.05c.03.03.08.07.2.1l.02.03c0 .02-.02.03-.03.02a.42.42 0 0 1-.23-.11.28.28 0 0 1-.05-.06v-.02h-.01v-.03a4.21 4.21 0 0 1-.1-.15l.01-.04Z" fill="#070006"/><path d="M4.97 13.4 6.58 11l1.67 2.8h-.61v.98a6.86 6.86 0 0 1-.72-.24h.45v-1.03h.4l-1.2-2-1.35 2h.4v.37a7.17 7.17 0 0 1-.65-.48Z" fill="url(#jr3srrpxh)"/><defs><linearGradient id="ar3srrpxh" x1="4.78" y1="7.6" x2="4.78" y2="17.04" gradientUnits="userSpaceOnUse"><stop stop-color="#AFCA9A"/><stop offset="1" stop-color="#60C90A"/></linearGradient><linearGradient id="br3srrpxh" x1="4.78" y1="7.6" x2="4.78" y2="17.04" gradientUnits="userSpaceOnUse"><stop stop-color="#6ABD3A"/><stop offset="1" stop-color="#438907"/></linearGradient><linearGradient id="cr3srrpxh" x1="12.68" y1="6.9" x2="12.68" y2="16.35" gradientUnits="userSpaceOnUse"><stop stop-color="#AFCA9A"/><stop offset="1" stop-color="#60C90A"/></linearGradient><linearGradient id="dr3srrpxh" x1="12.68" y1="6.9" x2="12.68" y2="16.35" gradientUnits="userSpaceOnUse"><stop stop-color="#6ABD3A"/><stop offset="1" stop-color="#438907"/></linearGradient><linearGradient id="er3srrpxh" x1="12.68" y1="3.88" x2="12.68" y2="13.33" gradientUnits="userSpaceOnUse"><stop stop-color="#AFCA9A"/><stop offset="1" stop-color="#60C90A"/></linearGradient><linearGradient id="fr3srrpxh" x1="12.68" y1="3.88" x2="12.68" y2="13.33" gradientUnits="userSpaceOnUse"><stop stop-color="#6ABD3A"/><stop offset="1" stop-color="#438907"/></linearGradient><linearGradient id="gr3srrpxh" x1="6.48" y1="11.26" x2="6.48" y2="20.7" gradientUnits="userSpaceOnUse"><stop stop-color="#AFCA9A"/><stop offset="1" stop-color="#60C90A"/></linearGradient><linearGradient id="hr3srrpxh" x1="13.69" y1="11.84" x2="13.69" y2="21.29" gradientUnits="userSpaceOnUse"><stop stop-color="#AFCA9A"/><stop offset="1" stop-color="#60C90A"/></linearGradient><linearGradient id="ir3srrpxh" x1="13.69" y1="11.84" x2="13.69" y2="21.29" gradientUnits="userSpaceOnUse"><stop stop-color="#6ABD3A"/><stop offset="1" stop-color="#438907"/></linearGradient><linearGradient id="jr3srrpxh" x1="6.48" y1="11.26" x2="6.48" y2="20.7" gradientUnits="userSpaceOnUse"><stop stop-color="#6ABD3A"/><stop offset="1" stop-color="#438907"/></linearGradient></defs></svg>