<!-- by TradingView --><svg width="18" height="18" viewBox="0 0 18 18" xmlns="http://www.w3.org/2000/svg"><path fill="#F0F3FA" d="M0 0h18v18H0z"/><path fill-rule="evenodd" d="M9 14.65a5.65 5.65 0 1 0 0-11.3 5.65 5.65 0 0 0 0 11.3ZM9 15A6 6 0 1 0 9 3a6 6 0 0 0 0 12Z" fill="#45651C"/><path fill-rule="evenodd" d="M9 14.3A5.3 5.3 0 1 0 9 3.7a5.3 5.3 0 0 0 0 10.6Zm-.35-8.12c0 .56.23 1.3.35 1.58.12-.29.35-1.02.35-1.58 0-.57-.23-1.42-.35-1.77-.12.35-.35 1.2-.35 1.77Zm.7 1.4c.3-.58 1.2-1.76 2.47-1.76L9.35 7.6Zm.36.36c.58-.12 1.97-.1 2.82.88a23.9 23.9 0 0 0-2.82-.88Zm-.18.18c.59.23 1.83.99 2.12 2.12L9.53 8.12Zm-1.06 0c-.65.17-1.98.84-2.12 2.12.53-.65 1.7-1.98 2.12-2.12Zm-.18-.18c-.64-.12-2.11-.1-2.82.88.59-.35 1.98-1.02 2.82-.88ZM6.18 5.82c.53 0 1.76.36 2.47 1.77-.6-.59-1.9-1.77-2.47-1.77ZM9 8.3C7.87 7.02 6.7 6.71 5.47 7.06a4.12 4.12 0 0 1 3.45 1.33c-.93 1.12-1.01 2.56-.18 3.55-.38.39-.82.66-1.15.77a.44.44 0 0 0-.53.17c.14 0 .41.24.53.36.28 0 .23-.24.17-.36.51-.15.92-.39 1.24-.67.32.28.73.52 1.24.67-.06.12-.11.36.17.36.12-.12.39-.36.53-.36a.44.44 0 0 0-.53-.17 3.02 3.02 0 0 1-1.15-.77c.83-1 .75-2.43-.18-3.55a4.12 4.12 0 0 1 3.45-1.33c-1.24-.35-2.4-.04-3.53 1.23Zm-.53 1.6c.04-.54.23-1 .53-1.4a2.58 2.58 0 0 1 0 3.13 2.58 2.58 0 0 1-.53-1.74Z" fill="#45651C"/></svg>