<!-- by TradingView --><svg width="18" height="18" viewBox="0 0 18 18" xmlns="http://www.w3.org/2000/svg"><path fill="url(#a)" d="M0 0h18v18H0z"/><path d="M9.48 4c0 .04.03.06.08.05l.68.9c-.2-.24-.4-.4-.62-.45-.15-.03-.24.03-.25.19l-.03.37c-.01.15.05.24.18.29l.8.29a.03.03 0 0 0 .04-.03l-.1-.56c.13.16.22.34.28.54 0 .03.03.05.05.07.13.08.24.07.32-.03.17-.2.25-.5.24-.87 0-.09.01-.17.04-.26.1.02.15.05.16.08.03.18.01.33-.04.44l.06.88-.57.38a.12.12 0 0 0-.05.07c-.08.32-.05.62.07.9l-.43.05a.08.08 0 0 0-.07.05l-.13.33-.23-.06-.07-.05c.18.02.2-.08.06-.3l.2-.14c.03-.02.04-.04.02-.07l-.05-.1c.15-.07.24-.21.27-.4 0-.04.02-.06.05-.08.1-.05.17-.07.24-.16.04-.06.1-.13.2-.2.06-.06.06-.09-.03-.09a.48.48 0 0 0-.43.21c-.02.03-.05.03-.07.01-.05-.03-.08-.1-.1-.23a.11.11 0 0 0-.1-.1h-.18c-.03 0-.05-.03-.05-.06-.01-.13-.08-.2-.2-.2.05-.12-.04-.2-.27-.25l-.44-.1c-.03 0-.05-.03-.04-.06l.05-.65a.08.08 0 0 0-.03-.07.08.08 0 0 0-.06-.02l-.31.04.05-.4c0-.03 0-.05-.04-.06a.62.62 0 0 0-.22-.04c.02 0 .04-.02.05-.05h1.02Z" fill="#AF949C"/><path d="M8.41 4.05c.09 0 .16.02.22.04.03.01.05.03.04.06l-.05.4c-.03.02-.04.03-.05.02-.32.15-.6.38-.83.7l-.25.5a.5.5 0 0 1 .05-.22c.02-.03 0-.04-.02-.04-.4 0-.74.8-.8 1.09-.13.55-.2 1-.23 1.37-.01.19-.13.33-.36.43l-.3-.13.21-.01c.04 0 .05-.02.05-.05l.04-1.24c.13-.5.23-1.18.57-1.56.1-.11.16-.22.2-.33.06-.19.1-.32.14-.4.07-.21.1-.2.12.01l-.02.17c0 .08.02.12.09.13l.04-.01.02-.03.29-.76c.27-.09.55-.14.83-.14Z" fill="#BD9199"/><path d="M10.57 4.25c.03.31.18.7.58.5.01.38-.07.67-.24.88-.08.1-.19.11-.32.03a.12.12 0 0 1-.05-.07 1.6 1.6 0 0 0-.28-.54l-.02-.1-.68-.9c.36 0 .7.07 1.01.2Z" fill="#986C70"/><path d="m7.58 4.2-.29.75-.02.03a.06.06 0 0 1-.04 0c-.07 0-.1-.04-.09-.12l.02-.17c-.01-.22-.05-.22-.12-.02l-.14.4a.94.94 0 0 1-.2.34c-.34.38-.44 1.07-.57 1.56-.04-.4-.04-.73 0-1 .02-.2.1-.6.24-1.23.35-.23.75-.42 1.2-.55Z" fill="#AB8081"/><path d="M11.2 4.5a.75.75 0 0 0-.05.26c-.4.2-.55-.2-.58-.51l.62.25Z" fill="#744E4A"/><path d="m10.24 4.96.02.09.1.56a.03.03 0 0 1-.03.03l-.8-.3c-.14-.04-.2-.13-.19-.28l.03-.37c.01-.16.1-.22.25-.19.22.06.43.2.62.46Z" fill="#D9DAE2"/><path d="M9.45 5.4a.27.27 0 0 0-.07.15c-.2-.09-.33-.04-.4.13-.03.08-.02.2-.13.24a.12.12 0 0 0-.04.2c.14.12.23.21.27.28.03.04.07.07.12.07.1.02.16 0 .19-.02.07-.1.03-.27.03-.39a.11.11 0 0 0-.04-.08l-.1-.07c.14.03.28-.06.43-.26l-.01.06c0 .04 0 .07.02.1.05.07.1.15.1.25.01.03.03.05.06.06.07.02.12.04.15.08-.22-.08-.47-.07-.53.17l-.04.16c-.14.3-.27.3-.38-.02-.02-.05-.1-.12-.2-.2l-.2-.2a.1.1 0 0 1 .04-.18l.13-.07a.1.1 0 0 0 .05-.08.85.85 0 0 1 .09-.27c0-.03 0-.05-.02-.07a.09.09 0 0 0-.07-.03.09.09 0 0 1-.07-.13.58.58 0 0 0 .03-.65.08.08 0 0 0-.07-.04l-.22-.02.05-.02.3-.04a.08.08 0 0 1 .07.02.08.08 0 0 1 .03.07l-.05.65c0 .03 0 .05.04.06l.44.1Z" fill="#58545B"/><path d="m8.57 4.57.22.02c.04 0 .06.01.07.04.12.22.11.44-.03.65a.09.09 0 0 0 .07.13c.03 0 .06.01.07.03.02.02.03.04.02.07a.85.85 0 0 0-.09.27.1.1 0 0 1-.05.08l-.13.07a.1.1 0 0 0-.03.17l.18.2c.17.33.29.66.36 1 0 .04.02.06.04.08l.19.13c.02.02.02.04 0 .07v.02c-.02.02-.04.03-.07.02-.42-.13-.94-.27-1.25-.6A.14.14 0 0 0 8.1 7l-.76-.29a.44.44 0 0 1-.03-.33v.08c.02.03.03.03.04 0 .03-.07.07-.13.14-.16a1.74 1.74 0 0 0 .43-.27.1.1 0 0 0-.03-.12c-.11-.08-.24-.15-.22-.26 0-.04.02-.05.05-.05h.25C8 5.6 8 5.58 8 5.54c-.02-.1-.08-.15-.2-.15-.03 0-.05-.01-.06-.04v-.08c.23-.32.5-.55.83-.7Z" fill="#241210"/><path d="m11.35 4.58.57.35c-.13.25-.29.57-.5.68-.03.01-.05 0-.04-.03a1.08 1.08 0 0 1 .27-.56.04.04 0 0 0 0-.03l-.02-.02-.03-.02c-.02-.02-.03-.01-.05 0-.12.14-.2.16-.24.07a.88.88 0 0 0 .04-.44Z" fill="#744E4A"/><path d="M6.37 4.74a19.5 19.5 0 0 0-.25 1.23c-.03.27-.03.6.01 1L6.1 8.2c0 .03-.01.04-.05.05h-.2l-.41-.15L5.05 8a.08.08 0 0 0-.1.04v.04c.03.27-.01.53-.13.78a.1.1 0 0 1-.14.05l-.5-.26.28.04c.01 0 .02 0 .02-.02v-.02c0-.02-.01-.03-.03-.04-.07-.01-.1-.05-.1-.1l.01-.04c.06-.06.06-.12 0-.18a.13.13 0 0 1-.03-.05c0-.04 0-.07.03-.09l.03-.01h.03l.11.04c.03.01.05 0 .05-.02s0-.03-.02-.04a5.56 5.56 0 0 0-.2-.19V7.9a.2.2 0 0 1 .07-.12.09.09 0 0 1 .08-.02l.04.02.1-.01c.34-.2.94-.58.98-.93.08-.55.15-1.12.21-1.7l.53-.4Z" fill="#976562"/><path d="M12.27 5.22c.06.37.02.68-.1.94-.03.07-.05.06-.05 0l-.04-.24c-.04-.14-.08-.14-.12 0-.06.2-.14.39-.25.56-.17.25-.2.4-.19.66 0 .09.04.11.12.07l.48-.23c.04.13.01.2-.1.23l-.32.1a.21.21 0 0 0-.12.13c-.03.09 0 .15.1.19.07.02.15.01.25-.03l.6-.25c.32-.14.6-.33.86-.58 0 .1-.03.18-.07.26a.07.07 0 0 1-.07.04l-.08.01a462.54 462.54 0 0 0-.67.44c.04.1.05.2.05.3v.01a.02.02 0 0 0 .03 0l.6-.35c.1-.07.17-.13.22-.2a.06.06 0 0 1 .06-.03c.02 0 .03 0 .03.02 0 .04 0 .09-.02.13a.16.16 0 0 1-.07.08l-.77.4a.12.12 0 0 0-.06.07c-.05.17-.03.28.06.33-.22.13-.47.22-.74.29-.2.04-.4.12-.59.16a.45.45 0 0 1-.3-.17c-.02-.03-.01-.06.02-.08.19-.12.44-.38.39-.63-.03-.15-.07-.27-.05-.42.04-.37.05-.73.03-1.1l.16-.57c0-.03 0-.04-.04-.02a.45.45 0 0 0-.14.16l-.06-.88c.04.1.12.07.24-.07.02-.01.04-.02.05 0l.03.02a.04.04 0 0 1 .01.06c-.14.17-.23.35-.26.55 0 .03 0 .04.04.03.21-.1.37-.43.5-.68l.35.29Z" fill="#805C5E"/><path d="M9.86 5a.08.08 0 0 1 .03.11c-.03.06-.07.08-.13.05-.11-.06-.11-.12.02-.17l.08.02Z" fill="#58545B"/><path d="m5.84 5.13-.2 1.7c-.05.35-.65.74-1 .93a.11.11 0 0 1-.1 0h-.03a.08.08 0 0 0-.08 0 .2.2 0 0 0-.07.13.09.09 0 0 0 .03.08 5.56 5.56 0 0 1 .2.19c-.01.02-.03.03-.05.02l-.12-.04h-.03l-.03.01c-.03.02-.04.05-.03.09l.03.05c.06.06.06.12 0 .18a.06.06 0 0 0-.01.04c0 .05.03.09.1.1.02 0 .03.02.03.04v.02c0 .02-.01.02-.02.02l-.29-.04c-.1-.05-.14-.12-.1-.2a.57.57 0 0 0 .02-.37c.1-.57.3-1.11.6-1.63l.55.5a.16.16 0 0 0 .25-.08c.1-.5.26-1.09.2-1.63a.4.4 0 0 1 .15-.1Z" fill="#744E4A"/><path d="M5.7 5.24c.05.54-.1 1.12-.2 1.63a.16.16 0 0 1-.27.08l-.54-.5c.26-.46.6-.86 1-1.2Z" fill="#4F2826"/><path d="m12.27 5.22.25.22c-.12.32-.15.66-.11 1.01l-.04-.1c-.09-.12-.14-.1-.16.04l-.1.6-.47.22c-.08.04-.12.02-.12-.07a.97.97 0 0 1 .19-.66c.1-.17.2-.36.25-.56.04-.14.08-.14.12 0l.04.23c0 .07.02.08.05.01.12-.26.16-.57.1-.94ZM7.74 5.27v.08c.01.03.03.05.07.04.1 0 .17.05.2.15 0 .04-.01.06-.05.06H7.7c-.03 0-.05.01-.05.05-.02.11.1.18.22.26a.1.1 0 0 1 0 .15c-.16.12-.3.2-.4.24-.07.03-.11.1-.14.16-.01.03-.02.03-.04 0v-.08c.13-.19.2-.39.2-.61l.24-.5Z" fill="#59352F"/><path d="M7.5 5.77c0 .22-.07.42-.2.6a.44.44 0 0 0 .03.34v.05c-.2.37-.3.75-.31 1.14 0 .08.03.12.1.13l.49.04c.07 0 .11-.03.11-.1l.03-.34c.12.42.03.77-.27 1.03l-.31.17c-.05 0-.07 0-.05.01-.21-.02-.4.17-.66.17-.05 0-.06-.02-.05-.07a.69.69 0 0 1 .1-.2.06.06 0 0 0-.02-.09l-.36-.13a.06.06 0 0 1-.03-.02c-.05-.07-.04-.1.03-.1.23-.1.35-.24.36-.43.03-.37.1-.82.23-1.37.06-.29.4-1.1.8-1.1.03 0 .04.02.02.05a.5.5 0 0 0-.05.22Z" fill="#E3BAC1"/><path d="M11.9 5.41c.02.38-.08.71-.3 1-.1.12-.13.1-.08-.05.05-.18.1-.32.17-.44.1-.17.07-.37.14-.52.04-.12.07-.11.07.01Z" fill="#744E4A"/><path d="M12.52 5.44c.39.37.7.8.93 1.3-.03.06-.05.07-.06.03-.26.25-.55.44-.87.58l-.11-.9c-.04-.35 0-.69.1-1.01Z" fill="#241210"/><path d="M9.38 5.55c-.11.05-.16.12-.14.22l-.06-.09c-.01-.03-.04-.04-.07-.03a.1.1 0 0 0-.07.04.15.15 0 0 0-.02.08c-.01.09-.03.14-.05.16-.17.1-.15.16.05.17.06 0 .13 0 .23-.02.03 0 .05-.03.05-.06 0-.05-.03-.1-.06-.16.02 0 .03.02.05.05l.09.07.04.08c0 .12.04.3-.03.39-.03.03-.09.04-.19.02a.15.15 0 0 1-.11-.07 1.52 1.52 0 0 0-.28-.28.12.12 0 0 1 .04-.2c.11-.04.1-.16.13-.24.07-.17.2-.22.4-.13Z" fill="#90909B"/><path d="M9.24 5.77v.09c.03.05.05.1.06.16 0 .03-.02.05-.05.06a.95.95 0 0 1-.23.02c-.2-.01-.22-.07-.05-.17.02-.02.04-.07.05-.16 0-.04 0-.06.02-.08a.1.1 0 0 1 .07-.04c.03-.01.06 0 .07.03l.06.1Z" fill="#A7B0BF"/><path d="M9.72 5.66c.12 0 .19.07.2.2 0 .03.02.05.05.05l.17.02a.11.11 0 0 1 .1.09c.03.13.06.2.1.23.03.02.06.02.08 0a.48.48 0 0 1 .43-.22c.09 0 .1.03.03.09-.1.07-.16.14-.2.2-.07.1-.14.11-.24.16a.09.09 0 0 0-.05.07c-.03.2-.13.34-.27.42-.08-.15-.18-.24-.3-.27-.08-.02-.09-.05 0-.08l.27-.1a.06.06 0 0 0 .03-.08l-.09-.24a.27.27 0 0 0-.15-.08.07.07 0 0 1-.05-.06.59.59 0 0 0-.11-.26.12.12 0 0 1-.02-.09 22.32 22.32 0 0 0 .02-.05Z" fill="#D9DAE2"/><path d="M11.4 6.33a.6.6 0 0 0-.15.37.91.91 0 0 1-.43.56c-.12-.29-.15-.6-.07-.9 0-.04.02-.07.05-.08l.57-.38a.45.45 0 0 1 .14-.16c.03-.02.05-.01.04.02l-.16.57Z" fill="#986C70"/><path d="m10.03 6.2.1.24a.06.06 0 0 1-.04.08l-.28.1c-.08.03-.07.06 0 .08.13.03.23.12.3.27l.06.1c.02.02.01.04-.02.06l-.2.13a.79.79 0 0 0-.4-.06.1.1 0 0 0-.06.17c.1.09.24.16.4.2l.07.05c.06.05.09.1.09.14 0 .04-.02.05-.06.04l-.63-.17-.49-.06a1.16 1.16 0 0 1-.58-.19.2.2 0 0 1-.07-.07l-.13-.23A.1.1 0 0 0 8 7.03l-.5-.06a.84.84 0 0 1-.18-.21V6.7L8.1 7c.02 0 .04.01.05.03.31.32.83.46 1.25.59.03 0 .05 0 .06-.02l.02-.02c.01-.03.01-.05-.01-.07l-.19-.13a.11.11 0 0 1-.04-.07 3.8 3.8 0 0 0-.36-1c.12.08.19.15.2.2.12.32.25.32.39.02l.04-.16c.06-.24.31-.25.53-.17Z" fill="#312828"/><path d="m12.4 6.45.12.9-.59.25c-.1.04-.18.05-.25.03-.1-.04-.13-.1-.1-.19.02-.05.06-.1.12-.12.05-.02.15-.06.32-.1.11-.04.14-.11.1-.24l.09-.59c.02-.15.07-.16.16-.04l.04.1Z" fill="#4E4348"/><path d="m11.3 8.73-.42.08a.94.94 0 0 1-.14-.5c0-.35 0-.62-.02-.81 0-.04 0-.06.04-.08l.2-.12a.25.25 0 0 0 .08-.07l.28-.36a.23.23 0 0 0 .03-.06l.01-.05a.1.1 0 0 0 0-.05.06.06 0 0 0-.03-.03l-.08.02a.6.6 0 0 1 .14-.37c.02.37 0 .73-.03 1.1-.02.15.02.27.05.42.05.25-.2.5-.4.63-.02.02-.03.05 0 .08.06.08.16.14.29.17Z" fill="#AB8081"/><path d="m10.88 8.8-.7-.1-.03-.03a.06.06 0 0 1-.01-.04v-.32a.09.09 0 0 1 .05-.08c.19-.07.35-.16.48-.26.06-.04.05-.05-.01-.05l-.6.06a.5.5 0 0 0 .13-.3l.13-.33a.08.08 0 0 1 .07-.05l.43-.04c.21-.12.35-.3.43-.56l.08-.02.03.03a.1.1 0 0 1 0 .05v.05l-.04.06-.28.36a.25.25 0 0 1-.08.07l-.2.12a.07.07 0 0 0-.04.08c.02.2.03.46.02.81 0 .16.04.33.14.5Z" fill="#C29FA2"/><path d="M13.79 7.57c.02.11-.04.17-.16.16-.3.23-.64.41-1 .55-.1-.05-.11-.16-.06-.33a.12.12 0 0 1 .06-.07l.77-.4a.16.16 0 0 0 .07-.08.3.3 0 0 0 .02-.13c0-.02-.01-.02-.03-.02-.02 0-.04 0-.06.02a.79.79 0 0 1-.22.2 25.95 25.95 0 0 1-.63.35c0-.1-.01-.2-.05-.3l.01-.03.66-.4a.15.15 0 0 1 .08-.02c.03 0 .06-.02.07-.04a.62.62 0 0 0 .07-.26c.01.04.03.03.06-.03l.34.83Z" fill="#59352F"/><path d="M7.33 6.76c.06.09.12.15.19.2l.18.14c.03.01.04.04.04.07v.46l-.02.33c0 .08-.04.11-.11.1l-.48-.03c-.08 0-.12-.05-.11-.13.01-.4.12-.77.31-1.14Z" fill="#F7DBE0"/><path d="M9.82 7.06c.13.05.25.05.26 0 .02-.04-.07-.12-.2-.17-.12-.04-.24-.04-.26 0-.01.05.08.12.2.17Z" fill="#A7B0BF"/><path d="m9.96 7.62.23.06a.5.5 0 0 1-.14.3c-.17.02-.28.11-.32.29-.04.16-.05.33-.02.5.02.1-.03.24-.15.44-.02.03-.04.14-.06.34a.2.2 0 0 1-.03.08c-.18.26.27.47.5.6.03.02.04.04.05.06 0 .03-.01.05-.04.05a.1.1 0 0 0-.05.02.04.04 0 0 0-.02.03.04.04 0 0 0 .02.03l.25.18a.06.06 0 0 0 .07 0l.02-.06c-.01-.03 0-.06.04-.06l.14-.02c.03.03.01.06-.05.09-.03.02-.03.04 0 .07.01.02.05.03.09.03.04 0 .05.01.02.04-.04.07-.04.17 0 .29l.03.36a.82.82 0 0 0-.44-.51 1.54 1.54 0 0 1-.35-.4c-.07-.1-.13-.12-.24-.16-.04-.02-.06 0-.08.03a.38.38 0 0 0-.03.13l-.05-.47c-.04-.17-.03-.36.04-.55v-.03a.05.05 0 0 0-.02-.03l-.04-.03a.07.07 0 0 0-.11.05l-.1.8-.12.07a.42.42 0 0 1-.12-.3c-.02-.63-.12-.77-.3-.42 0-.1.02-.2.07-.32.12-.07.12-.23 0-.46a.14.14 0 0 1 0-.1c.05-.15.11-.3.2-.43a.18.18 0 0 0 .03-.09l.02-.2c0-.03-.01-.06-.04-.07a2.3 2.3 0 0 0-.35-.1A1.33 1.33 0 0 1 8 7.52a.05.05 0 0 0-.05 0 .05.05 0 0 0-.02.03l-.08.9-.36.22c.3-.26.39-.6.27-1.03v-.46a.09.09 0 0 0-.05-.07l-.18-.13.5.06a.1.1 0 0 1 .07.05l.13.23a.2.2 0 0 0 .07.07c.17.12.36.18.58.2.22 0 .39.03.5.05l.62.17c.04.01.06 0 .06-.04s-.03-.09-.09-.14Z" fill="#805C5E"/><path d="M9.95 7.26c.14.23.12.33-.06.31-.16-.04-.3-.11-.4-.2a.1.1 0 0 1 .06-.17c.13-.02.26 0 .4.06Z" fill="#D9DAE2"/><path d="m8.65 9.2-.45.34a.85.85 0 0 0-.26-.87.1.1 0 0 0-.1-.02c-.35.15-.6.36-.72.63-.04-.02-.07-.06-.08-.12 0-.03 0-.06.02-.09.1-.1.22-.17.35-.2l.08-.05.35-.38.08-.9a.05.05 0 0 1 .02-.04.05.05 0 0 1 .05 0c.15.12.31.21.52.26.12.02.23.05.35.1.03 0 .04.03.04.06l-.02.2c0 .03 0 .06-.03.09-.09.13-.15.28-.2.43v.1c.12.23.12.39 0 .46Z" fill="#4F2826"/><path d="M13.91 8.13a1.2 1.2 0 0 0-.46.24c-.18.16-.35.26-.5.32-.02.01-.03.03-.03.06v.03a.06.06 0 0 0 .06.05h.07v.01c.02.01.01.02 0 .02-.03.02-.02.03.02.02l.08-.02c.03 0 .05 0 .07.04.08.19.2.35-.02.51-.17.13-.35.24-.53.35-.03.01-.04.03-.03.06.13.34.35.56.67.67a.43.43 0 0 1-.18.07c-.04 0-.05.02-.03.05l.03.03.01.01.13-.02c-.1.03-.16.08-.17.15a.04.04 0 0 0 .02.03.04.04 0 0 0 .03.01l.56-.13-.07.19c-.05-.07-.1-.1-.16-.06-.1.06-.21.11-.33.16-.16-.34-.45-.6-.87-.8l-.57-.2a.07.07 0 0 1-.04-.05.1.1 0 0 1 0-.07c0-.02.03-.04.08-.05.1-.02.23-.07.38-.13.3-.12.6-.17.89-.33v-.03L13 9.3a13.93 13.93 0 0 1-.66.23c-.13.04-.28.03-.42.13a.13.13 0 0 1-.09.03l-.18-.02c-.04 0-.06-.02-.04-.06l.37-.98c.59-.22 1.08-.45 1.5-.68.12-.07.17-.14.16-.22.12 0 .18-.05.16-.16l.12.56Z" fill="#744E4A"/><path d="M13.63 7.73c.01.08-.04.15-.17.22-.4.23-.9.46-1.49.68-.2.03-.38.08-.57.15-.15.06-.29.1-.4.11-.2.02-.35.05-.42.1a.83.83 0 0 1-.55.14c-.04 0-.05 0-.05.04 0 .02 0 .03.02.05a.43.43 0 0 0-.09.2.35.35 0 0 0-.18-.16c-.05-.01-.06 0-.04.04.08.14.08.27 0 .39a.09.09 0 0 0 0 .08.1.1 0 0 0 .06.06c.1.01.2 0 .26-.06.03-.03.03-.05.02-.08a.44.44 0 0 1-.04-.16c.19.22.24.37.58.37a.07.07 0 0 0 .06-.12l-.18-.23.4.28c.33.2.31.28-.07.25l-.38.04c-.04 0-.04.03-.03.05.03.06.07.11.13.16.02.07 0 .11-.05.13l-.14.02c-.04 0-.05.03-.04.06 0 .02 0 .04-.02.06a.06.06 0 0 1-.07 0l-.25-.18-.01-.01a.04.04 0 0 1 0-.04v-.01a.1.1 0 0 1 .06-.02c.03 0 .04-.02.04-.05 0-.02-.02-.04-.04-.05-.24-.14-.69-.35-.51-.6a.2.2 0 0 0 .03-.1c.02-.19.04-.3.06-.33.12-.2.17-.34.15-.43-.03-.18-.02-.35.02-.51.04-.18.15-.27.32-.3l.6-.05c.07 0 .08.01.03.05-.14.1-.3.19-.49.26a.09.09 0 0 0-.05.08v.32l.01.04c.01.02.03.02.04.02l.69.12.42-.08c.2-.04.4-.12.59-.16.27-.07.52-.16.74-.29.36-.14.7-.32 1-.55Z" fill="#E3BAC1"/><path d="M5.43 8.11c.11.14.21.23.3.3.17.11.15.17-.06.17l-.19-.03c-.02 0-.03 0-.04.03v.03l.04.04.4.16c.08.02.1.08.1.16l-.02.04c-.01.06-.04.08-.1.06l-.69-.25a.02.02 0 0 0-.02 0 .02.02 0 0 0-.01.02l-.01.03.01.03c.06.03.11.07.15.12.02.03.02.05-.02.07a.14.14 0 0 1-.04.02.09.09 0 0 0-.08.05l-.05.1-.22-.05H4.8c-.14.04-.25.1-.35.17-.27.04-.4.18-.38.4L4 9.8V8.7c0-.05.01-.08.04-.1.03 0 .08.01.13.04l.51.26a.1.1 0 0 0 .14-.05c.12-.25.16-.51.13-.78A.07.07 0 0 1 4.98 8 .08.08 0 0 1 5.05 8l.38.11Z" fill="#AB8081"/><path d="m13.91 8.13.05.47.04.97-.29 1.12-.56.13a.04.04 0 0 1-.03 0 .04.04 0 0 1-.02-.04c0-.07.06-.12.17-.15l.38-.19v-.03c0-.01-.02-.02-.03-.01l-.3.1a1.08 1.08 0 0 1-.68-.68c0-.03 0-.05.03-.06.19-.11.36-.22.53-.35.23-.16.1-.32.02-.51-.02-.03-.04-.04-.07-.04l-.08.02c-.04.01-.05 0-.01-.02v-.02h-.01l-.07-.01c-.01 0-.03 0-.03-.02a.06.06 0 0 1-.03-.03v-.03c0-.03 0-.05.03-.06.15-.06.32-.16.5-.32.14-.11.3-.2.46-.24Z" fill="#59352F"/><path d="m5.43 8.11.4.16.3.13c-.07 0-.08.03-.03.1l.03.02.36.13a.06.06 0 0 1 .02.08.69.69 0 0 0-.1.21c-.01.05 0 .07.05.07.27 0 .45-.19.66-.17l-1.03.33-.06.04c-.05.03-.05.05 0 .07l.08.03c.07.02.07.04 0 .05l-.06.01c-.05.01-.05.03-.02.07l.03.03-.66-.18c-.03 0-.05 0-.06.04l-.08.2c-.01.04 0 .07.02.1.3.29.61.3.92.05.06.03.1.07.14.12.01.03 0 .05-.03.05-.23.07-.46.1-.7.12-.19 0-.33-.04-.42-.14-.14-.14-.17-.33-.1-.57l.06-.1a.09.09 0 0 1 .08-.05l.04-.02c.04-.02.04-.04.02-.07a.42.42 0 0 0-.15-.12c-.01 0-.02-.02-.01-.03v-.03a.02.02 0 0 1 .02-.02.02.02 0 0 1 .02 0l.7.25c.05.02.08 0 .1-.05v-.05c.02-.08-.01-.14-.1-.16l-.4-.16-.03-.04v-.03c0-.03.02-.03.05-.03l.18.03c.21 0 .23-.06.06-.18a1.54 1.54 0 0 1-.3-.29Z" fill="#C29FA2"/><path d="M8.95 8.46 9 8.32c.05-.07.16-.11.24-.06l.02.04v.04a30.4 30.4 0 0 1-.12.38c-.06.07-.16.11-.24.06a.07.07 0 0 1-.03-.04V8.7l.08-.24Z" fill="#E3BAC1"/><path d="m7.84 8.44-.35.38a.16.16 0 0 1-.08.04.69.69 0 0 0-.35.21.1.1 0 0 0-.02.09c.01.06.04.1.08.12.38.17.73.26 1.08.26l.45-.34a.91.91 0 0 0-.07.32c-.02.07-.1.13-.2.18L8 9.88a.08.08 0 0 0-.05.07c0 .06-.03.09-.08.1a.1.1 0 0 1-.08-.03.96.96 0 0 0-1.08-.18.24.24 0 0 1-.17 0 .32.32 0 0 1-.14-.11v-.04a.08.08 0 0 1 .08-.03.1.1 0 0 0 .06-.01.02.02 0 0 0 0-.02.02.02 0 0 0 0-.01.51.51 0 0 1-.36-.11.24.24 0 0 1-.12-.04l-.03-.03C6 9.4 6 9.38 6.05 9.37h.06c.07-.02.07-.04 0-.06l-.08-.03c-.05-.02-.05-.04 0-.07l.06-.04c.29.1.54.23.84.22.12 0 .14-.04.05-.13a.27.27 0 0 1-.07-.12c0-.03 0-.06.03-.08l.23-.23.3-.17.37-.22Z" fill="#4E4348"/><path d="m11.97 8.63-.37.98c-.01.04 0 .06.04.06l.18.02c.04 0 .07-.01.1-.03.13-.1.28-.09.41-.13a13.9 13.9 0 0 0 .66-.23l.03.02v.03c-.3.16-.6.2-.9.33-.14.06-.26.1-.37.13-.05 0-.08.03-.08.05a.1.1 0 0 0 0 .07.07.07 0 0 0 .04.04l.57.21-.8.08a.76.76 0 0 1-.3.07c-.16-.06-.49-.16-.56.05l-.01.03-.03.01c-.02 0-.04 0-.04-.02a.15.15 0 0 0-.04-.07.6.6 0 0 1-.13-.16c-.01-.02 0-.04.03-.05l.38-.04c.38.03.4-.06.07-.25a4.8 4.8 0 0 1-.4-.28c-.16-.06-.3-.17-.45-.33a.08.08 0 0 1-.02-.05c0-.03.01-.05.05-.04.19.02.37-.03.55-.14.07-.05.21-.08.42-.1.11 0 .25-.05.4-.11.19-.07.38-.12.57-.15Z" fill="#986C70"/><path d="M8.2 9.54c-.35 0-.7-.09-1.08-.26.13-.27.37-.48.72-.63a.1.1 0 0 1 .1.02c.25.24.34.53.26.87Z" fill="#150909"/><path d="m7.17 8.83-.23.23a.08.08 0 0 0-.03.08c.02.05.04.1.07.12.09.09.07.13-.05.13-.3 0-.55-.11-.84-.22l1.03-.33.05-.01Z" fill="#747882"/><path d="M5.1 9.26c-.08.24-.05.43.09.57.1.1.23.15.42.14.24-.02.47-.05.7-.12.04 0 .04-.02.03-.05a.29.29 0 0 0-.14-.12.27.27 0 0 1-.02-.17c.1.08.22.12.35.1a.02.02 0 0 1 .02.03.1.1 0 0 1-.07.02c-.03 0-.06 0-.08.03v.04c.03.05.09.1.14.11.06.02.12.02.17 0 .4-.16.77-.1 1.08.18a.1.1 0 0 0 .08.03c.05-.01.08-.04.08-.1 0-.03.02-.06.05-.07l.38-.18c-.02.14-.12.22-.33.23A.06.06 0 0 0 8 10l.01.1c.01.03 0 .05-.03.06a.4.4 0 0 0-.24.2c-.02.04 0 .06.03.08l.4.14.02.01v.03a.04.04 0 0 1-.02.03.18.18 0 0 1-.07.01l-.34-.11a.07.07 0 0 0-.08.02.31.31 0 0 1-.08.07.03.03 0 0 1-.05-.03c.03-.07.02-.13-.03-.17a.57.57 0 0 0-.3-.2.21.21 0 0 1-.09-.04.89.89 0 0 0-.53-.25c-.25-.02-.59.17-.78.25a.06.06 0 0 1-.06 0 .06.06 0 0 1-.02-.06.1.1 0 0 0 0-.04c-.02-.03-.03-.04-.06-.02a.7.7 0 0 1-.2.1l-.4.05a.07.07 0 0 1-.07-.04 3.24 3.24 0 0 0-.57-.8c.1-.07.21-.13.35-.17h.1l.2.05ZM9.91 9.41l.08.12c0 .05.01.1.04.16.01.03 0 .05-.02.08-.07.05-.15.07-.26.06a.1.1 0 0 1-.07-.1l.01-.04c.08-.12.08-.25 0-.39-.02-.04 0-.05.04-.04.07.02.13.07.18.15Z" fill="#90909B"/><path d="M10 9.22c.14.16.3.27.45.33l.18.23a.07.07 0 0 1 0 .08.07.07 0 0 1-.06.04c-.33 0-.39-.15-.58-.37L9.9 9.4a.43.43 0 0 1 .09-.19ZM6.06 9.47l.12.04c-.02.05-.01.11.02.17-.31.26-.62.24-.92-.05a.08.08 0 0 1-.02-.1l.08-.2c0-.04.03-.05.06-.04l.66.18Z" fill="#D9DAE2"/><path d="m9 10.24.9 1.37.03.02a.07.07 0 0 0 .08-.02l.2-.26c.05-.08.1-.07.12.03.02.07 0 .2-.04.38 0 .03-.02.04-.05.04l-.37-.03a.12.12 0 0 0-.1.05l-.5.67a.11.11 0 0 1-.15.03L8.37 12a.38.38 0 0 0-.2-.07c-.03 0-.05-.02-.05-.05v-.07c0-.03-.03-.07-.07-.1a2.42 2.42 0 0 0-.59-.35v-.04h.04c.27 0 .54 0 .8-.03.04 0 .04-.01.02-.03l-.02-.02c.08.03.13.03.14 0a.16.16 0 0 0-.07-.2.16.16 0 0 0-.07-.02l-.3-.01.32-.02c.04 0 .05-.03.03-.06-.02-.05-.08-.08-.18-.08.07 0 .1-.03.1-.06-.02-.08-.07-.12-.17-.14h.07a.04.04 0 0 0 .03-.04.04.04 0 0 0-.03-.04l-.4-.14c-.04-.02-.05-.04-.03-.08a.4.4 0 0 1 .24-.2c.03 0 .04-.03.03-.06a.27.27 0 0 1-.01-.1.06.06 0 0 1 .05-.06c.2-.01.31-.09.33-.23.1-.05.18-.11.2-.18.18-.35.28-.2.3.42 0 .12.04.22.12.3Z" fill="#C29FA2"/><path d="m5.47 10.17-.55.22a.1.1 0 0 1-.12-.04l-.46-.8a.07.07 0 0 0-.13 0l-.11.31c-.04-.03-.05-.06-.04-.08-.01-.22.11-.36.38-.4.21.22.4.48.57.8.01.03.03.04.07.04l.4-.05Z" fill="#4B5666"/><path d="M9.35 9.96c0 .13-.02.2-.09.24-.04.03-.09.02-.14-.02l.1-.8a.07.07 0 0 1 .07-.07l.04.01.04.03.02.03v.03c-.07.2-.08.38-.04.55Z" fill="#A7B0BF"/><path d="M5.47 10.17a.7.7 0 0 0 .21-.1c.03-.02.04-.01.05.02a.1.1 0 0 1 0 .04.06.06 0 0 0 .03.05.06.06 0 0 0 .06 0c.2-.07.53-.26.78-.24.2.02.38.1.53.25l.08.05c.15.04.25.1.3.19-.43.07-.5-.51-.92-.24-.2-.06-.38-.04-.53.05-.1.06-.1.1.03.1.1 0 .21 0 .35.02.09 0 .13.04.14.11l-.48.08a.08.08 0 0 0-.06.04l-.05.15c0 .03 0 .06.03.08.5.3 1 .64 1.47 1.02.13.1.35.19.66.25.07 0 .13.02.16.05a.76.76 0 0 0-.25.26c.01-.1.06-.17.13-.22.03-.03.03-.04 0-.04-.37 0-.68-.1-.95-.28-.13-.1-.3-.2-.48-.28-.41-.2-.77-.51-1.06-.96a.1.1 0 0 0-.06-.04.1.1 0 0 0-.07 0c-.52.21-.78.27-1.1.53-.2-.4-.32-.81-.37-1.25l.1-.3a.07.07 0 0 1 .1-.05l.04.03.46.8a.1.1 0 0 0 .12.05l.55-.22Z" fill="#2A2C37"/><path d="m9.4 10.43.07.2a.09.09 0 0 0 .06.06l.3.08c.06.02.08.04.06.06-.08.1-.06.14.07.1a.7.7 0 0 0 .14-.1c.2.09.35.26.44.51l.04.07a.04.04 0 0 1-.01.08.29.29 0 0 0-.12.06c-.03.02-.02.04.02.04s.07 0 .1.02c.02.02.04.04.04.08 0 .07-.03.14-.07.2a.12.12 0 0 0-.03.1c.01.14-.01.24-.07.32-.06 0-.1.01-.13.04a.74.74 0 0 1-.24-.33.1.1 0 0 0-.17-.03l-.71.86c-.01.02-.03.02-.04 0l-.4-.33a.07.07 0 0 0-.07 0 .07.07 0 0 0-.04.06v.22c0 .03-.02.05-.05.04l-.4-.02c-.24-.06-.29-.16-.19-.37a.09.09 0 0 1 .06-.05c.06-.11.15-.2.25-.26l.06-.14.75.52a.11.11 0 0 0 .16-.03l.48-.67a.12.12 0 0 1 .11-.05l.37.03c.03 0 .05-.01.05-.04.05-.18.06-.31.04-.38-.03-.1-.07-.1-.13-.03l-.19.26a.07.07 0 0 1-.1 0L9 10.24l.12-.06c.05.04.1.05.14.02.07-.03.1-.11.09-.24l.05.47Z" fill="#B57A74"/><path d="m8.6 10.2-.04-.04c-.04-.02-.04-.05-.01-.08.05-.06.13-.02.24.12l.02.08-.03.34c0 .02-.01.04-.04.03a.79.79 0 0 1-.35-.12c-.04-.02-.04-.05 0-.07.1-.07.18-.14.22-.23v-.03Z" fill="#976562"/><path d="M7.52 10.43c.05.04.06.1.03.17a.03.03 0 0 0 .03.03h.02a.3.3 0 0 0 .08-.07.07.07 0 0 1 .08-.02l.34.11c.1.02.15.06.16.14 0 .03-.02.06-.1.06-.18-.12-.35-.13-.51-.05a.55.55 0 0 1-.37-.05 1.89 1.89 0 0 0-.69-.56c.43-.27.49.3.93.24Z" fill="#A7B0BF"/><path d="M6.6 10.19c.27.13.5.32.68.56-.02 0-.05 0-.07.03a1.92 1.92 0 0 0-.05-.03c-.07-.01-.09.01-.04.07.06.08.14.13.24.17.16.06.38 0 .57.12.07.05.13.08.17.09l.2.04.02.02c.02.02.02.03-.01.03a6.99 6.99 0 0 1-.86.04v.01c.02 0 .02.01.01.02.22.1.41.21.59.35.04.03.06.07.06.1l.01.07c0 .03.02.04.05.05.08 0 .14.03.2.07l-.06.14c-.03-.03-.09-.05-.16-.05-.23-.17-.4-.4-.64-.55a11.12 11.12 0 0 0-1.18-.64v-.02l.01-.04a.02.02 0 0 1 .03-.01l.73.32c.01 0 .03 0 .03-.02l.01-.03c.01-.02 0-.04-.02-.05a1.05 1.05 0 0 1-.54-.58c0-.07-.05-.1-.14-.11a4.14 4.14 0 0 0-.35-.02c-.13 0-.14-.04-.03-.1.15-.1.33-.1.53-.05Z" fill="#747882"/><path d="M12.28 10.18c.42.2.7.46.87.8l.04.08c-.15.1-.33.07-.54-.07-.37-.26-.7-.45-.98-.59-.19-.05-.25-.1-.2-.14l.8-.08ZM11.18 10.33l.4.13a.18.18 0 0 1 .12.1l.04.11c.02.04.01.05-.03.03a.36.36 0 0 0-.42.02.13.13 0 0 1-.09.03h-.04c-.05 0-.06 0-.04.05.03.04.07.06.13.07.03 0 .05 0 .07-.03a.22.22 0 0 1 .16-.1.1.1 0 0 1 .07.02l.4.3c.03.02.03.03 0 .04l-.24.06c.05.13.06.23.04.3-.01.03-.03.05-.07.05-.1 0-.2-.02-.28-.05-.25.02-.47.02-.68 0-.07-.01-.1-.05-.1-.13a.1.1 0 0 1 .1-.07l.67.05c.04 0 .05 0 0-.03-.11-.07-.24-.08-.37-.2a.07.07 0 0 0-.08-.01c-.22.08-.36.05-.42-.1-.05-.11-.05-.2 0-.28.02-.03 0-.05-.03-.04-.04 0-.08 0-.1-.03-.02-.03-.02-.05.01-.07.06-.03.08-.06.05-.09.06-.02.07-.06.05-.13l.04.07c0 .02.02.03.04.02l.03-.01.01-.03c.07-.21.4-.1.56-.05Z" fill="#D9DAE2"/><path d="M11.47 10.26c-.05.05.01.1.2.14l1.4 1.1a.06.06 0 0 0 .08.01l.02-.02c.13-.2.14-.35.02-.43a9.7 9.7 0 0 0-.04-.08l.33-.16c.05-.03.1-.01.16.06l-.56 1.01-.36-.4a.64.64 0 0 0-.16-.14.15.15 0 0 0-.16.02.15.15 0 0 0-.05.15c.05.2.01.4-.1.6.11-.32.11-.53 0-.65l-.54-.3.24-.07c.03 0 .03-.02 0-.04l-.4-.3a.1.1 0 0 0-.07-.01.22.22 0 0 0-.16.09.07.07 0 0 1-.07.03c-.06 0-.1-.03-.13-.07-.02-.04-.01-.06.04-.06h.04c.03.01.06 0 .09-.02.14-.1.28-.1.42-.02.04.02.05.01.03-.03l-.04-.1a.19.19 0 0 0-.11-.1l-.41-.14c.08 0 .18-.02.3-.07Z" fill="#58545B"/><path d="M10.1 10.83a.7.7 0 0 1-.14.1c-.13.04-.15 0-.07-.1.02-.02 0-.04-.06-.06a3.94 3.94 0 0 0-.34-.1.09.09 0 0 1-.02-.04l-.07-.2c0-.06.02-.1.03-.13.02-.04.04-.05.08-.03.1.04.17.05.24.17.09.14.2.28.35.39Z" fill="#4F2826"/><path d="M13.19 11.06c.12.08.11.23-.02.43a.07.07 0 0 1-.1.02l-1.4-1.1c.29.13.61.32.98.58.21.14.39.16.54.07Z" fill="#A7B0BF"/><path d="m13.27 10.63-.13.02h-.01l-.03-.04c-.02-.03 0-.05.03-.05.07-.01.13-.03.18-.07l.31-.1c.01 0 .02 0 .03.02v.03l-.38.19Z" fill="#976562"/><path d="M8.06 12.4a.09.09 0 0 0-.06.05l-.62.27a.1.1 0 0 0-.05.12c0 .02.02.03.03.04.08.07.12.16.12.27l-.06.03h-.3v.03c-.01.02 0 .03.02.03.13 0 .2.03.23.12.01.04.03.06.07.07l.52.22c.08.02.15 0 .19-.07h.04c.02 0 .03 0 .03.03-.03.14.03.2.17.2h.14c.19-.02.2-.09.03-.19a.27.27 0 0 1-.06-.09c-.02-.03-.01-.04.02-.05l.09-.01c.12.17.14.33.04.48-.06-.04-.13-.05-.2 0a4.7 4.7 0 0 1-3.98-2.84c.32-.26.58-.32 1.1-.53a.1.1 0 0 1 .07 0 .1.1 0 0 1 .06.04c.3.45.65.77 1.06.96.19.09.35.18.48.28.27.19.58.28.94.28.04 0 .04.01.01.04a.32.32 0 0 0-.13.22Z" fill="#150909"/><path d="m9.16 10.73.55.78a.2.2 0 0 1-.02.24l-.3.3a.07.07 0 0 0-.02.04l-.05.26a.13.13 0 0 1-.17.09.13.13 0 0 1-.06-.04l-.6-.8a.15.15 0 0 1 .02-.2c.18-.17.31-.37.41-.58a.1.1 0 0 1 .07-.06l.16-.04h.01Z" fill="#F7DBE0"/><path d="M7.21 10.78c.16.18.37.14.58.14.08.02.15.05.21.09l.3.01a.16.16 0 0 1 .14.14v.07c-.01.04-.06.04-.14.01a2.75 2.75 0 0 1-.2-.04.67.67 0 0 1-.17-.1c-.19-.11-.4-.05-.57-.11a.55.55 0 0 1-.24-.17c-.05-.06-.03-.08.04-.07l.05.03Z" fill="#D9DAE2"/><path d="M8.17 10.85c.1 0 .16.03.18.08.02.03 0 .05-.03.06L8 11a.64.64 0 0 0-.21-.09.14.14 0 0 0 .04-.06c0-.02-.01-.03-.04-.04a.6.6 0 0 0-.14-.02c.16-.08.33-.07.52.05Z" fill="#747882"/><path d="M7.28 10.75c.13.06.25.08.37.05.05 0 .1 0 .14.02.03 0 .04.02.04.04s-.02.04-.04.06c-.2 0-.42.04-.58-.14.02-.02.05-.03.07-.03Z" fill="#312828"/><path d="M11.4 11.46a.68.68 0 0 1-.53.15.05.05 0 0 0-.04.02.05.05 0 0 0 0 .05c.3.38.7.53 1.2.44a.13.13 0 0 0 .1-.07c.08-.18.12-.38.11-.58.12.12.12.33.01.65l-.16.4a.16.16 0 0 1-.2.1l-1.25-.45c-.04-.01-.06 0-.08.03-.04.08-.08.12-.12.1.06-.07.08-.17.07-.32 0-.03 0-.06.03-.08a.36.36 0 0 0 .07-.21.09.09 0 0 0-.05-.08.17.17 0 0 0-.1-.02c-.03 0-.04-.02 0-.04a.29.29 0 0 1 .1-.06.04.04 0 0 0 .03-.06v-.02a.22.22 0 0 1-.05-.07l-.02-.36c.06.14.2.17.42.09.03-.02.06-.01.08.01.13.12.26.13.38.2.04.02.03.03-.01.03l-.66-.05a.1.1 0 0 0-.1.07c-.01.08.02.12.09.13.2.02.43.02.68 0Z" fill="#626670"/><path d="M12.24 11.47c.01.2-.03.4-.11.58a.13.13 0 0 1-.1.07c-.5.09-.9-.06-1.2-.44a.05.05 0 0 1 .04-.07c.22.02.39-.03.53-.15.08.03.18.05.28.05.04 0 .06-.02.07-.05.02-.07 0-.17-.04-.3l.53.31Z" fill="#A7B0BF"/><path d="M13.08 11.9c-.34.44-.73.83-1.17 1.16-.05 0-.07-.07-.07-.2l-.01-.04a.06.06 0 0 0-.04-.02h-.04c-.02 0-.04.03-.06.06-.04.1-.1.2-.19.3a.1.1 0 0 1-.07.03c-.13.01-.18.08-.17.19.01.03 0 .05-.04.06-.06.01-.1 0-.13-.01-.2-.17-.77-.61-1-.24-.06.23-.2.3-.42.2a.08.08 0 0 1-.04-.08v-.42c0-.04.02-.06.06-.04l.16.06h.08l.31-.13a.16.16 0 0 0 .08-.07l.16-.18v-.05c-.02-.02-.03-.02-.05-.02l-.26.1a.32.32 0 0 1-.12.02c-.07 0-.12-.03-.13-.08 0-.02 0-.03.02-.03.14-.02.26-.06.37-.12.02-.03.07-.04.13-.04.04 0 .08-.03.12-.11.02-.03.04-.04.08-.03l1.24.45a.16.16 0 0 0 .2-.1l.17-.4c.11-.2.14-.4.1-.6a.15.15 0 0 1 .2-.17c.06.03.11.08.17.15l.36.4Z" fill="#241210"/><path d="M6.72 11.98c.13.07.3.18.5.33.03.03.02.05-.02.06-.2.04-.4.04-.59 0-.16-.03-.24-.14-.25-.33 0-.03.02-.06.05-.07.14-.03.24-.03.3 0Z" fill="#59352F"/><path d="M10.3 12.35a1 1 0 0 1-.36.12c-.02 0-.02.01-.02.03.02.05.06.07.13.08.04 0 .08 0 .12-.02l.26-.1c.02 0 .03 0 .04.02l.01.03v.02a.72.72 0 0 0-.16.18.16.16 0 0 1-.08.07l-.3.13a.11.11 0 0 1-.09 0l-.16-.06c-.04-.02-.06 0-.06.04v.42c0 .04.01.06.05.07.2.1.35.04.41-.19.11.11.14.2.07.26-.08-.02-.19.01-.32.1a.1.1 0 0 0-.05.08l-.04.3-.13.03c-.07-.02-.1-.01-.12.02l-.85-.03c.1-.15.08-.3-.04-.48a.46.46 0 0 0-.2-.03c.1-.04.13-.1.12-.2-.02-.11-.04-.11-.07 0-.02.07-.09.11-.2.13a.04.04 0 0 0-.02.07c.02.01.05.02.08.01l-.12.07a.08.08 0 0 1-.09 0l-.7-.34.07-.03.12-.02-.01.03c0 .03 0 .05.03.06l.4.1c.04 0 .06 0 .08-.03.08-.14.18-.21.32-.23.04 0 .05-.02.02-.05-.11-.1-.25-.14-.43-.12l.17-.07.41.02c.03 0 .05 0 .05-.04v-.22a.07.07 0 0 1 .07-.07l.04.01.4.34h.04l.71-.87a.1.1 0 0 1 .1-.03.1.1 0 0 1 .07.06c.04.12.12.23.24.33Z" fill="#805C5E"/><path d="M8 12.45c-.1.2-.05.31.18.37l-.17.07-.41.24-.12.02c0-.11-.04-.2-.12-.27a.1.1 0 0 1-.02-.13.1.1 0 0 1 .04-.03l.62-.27Z" fill="#4F2826"/><path d="m7.62 12.71.05-.07c.03-.03.05-.03.07 0a.2.2 0 0 1 .03.13c0 .03-.03.05-.07.08a.35.35 0 0 1-.17.03.05.05 0 0 1-.05-.04v-.02c.01-.02.05-.05.12-.09l.02-.02ZM11.91 13.06c-.43.33-.89.57-1.37.71 0-.1-.12-.2-.38-.32.07-.06.04-.15-.07-.26.23-.37.8.07 1 .24.03.02.07.02.13 0 .04 0 .05-.02.04-.05-.01-.11.04-.18.17-.19a.1.1 0 0 0 .07-.04l.2-.29c.01-.03.03-.05.05-.06h.04l.04.02.01.04c0 .13.02.2.07.2Z" fill="#90909B"/><path d="m7.6 13.13.4-.24c.19-.02.33.02.44.12.03.03.02.05-.02.05a.42.42 0 0 0-.32.23c-.02.02-.04.03-.07.03l-.41-.1c-.03-.01-.04-.03-.03-.06v-.03Z" fill="#A7B0BF"/><path d="M11.07 13c.02.02.05.03.11.04a.06.06 0 0 1 .05.07c0 .06-.04.1-.1.1-.04 0-.1-.01-.15-.05-.06-.03-.1-.07-.11-.1-.03-.06-.01-.1.04-.14a.06.06 0 0 1 .08.01l.08.08Z" fill="#90909B"/><path d="m8.41 13.44-.1.01-.07-.01a.04.04 0 0 1-.01-.04.04.04 0 0 1 .03-.03c.11-.02.18-.06.2-.13.03-.11.05-.11.07 0 .01.1-.02.16-.12.2Z" fill="#E3BAC1"/><path d="m7.42 13.18.7.35h.08l.12-.08a.22.22 0 0 1 .1-.01c.08 0 .14 0 .19.03l-.1.01c-.02 0-.03.02-.02.05l.07.09c.17.1.16.17-.03.2h-.14c-.14 0-.2-.07-.17-.21 0-.02-.01-.04-.03-.04h-.04c-.05.08-.1.1-.19.07-.04 0-.21-.08-.52-.2a.11.11 0 0 1-.07-.08c-.03-.09-.1-.13-.23-.12-.02 0-.03 0-.03-.03v-.02c0-.01 0-.02.02-.02h.29Z" fill="#58545B"/><path d="M10.16 13.45c.26.12.38.22.38.32l-.8.16.05-.3a.1.1 0 0 1 .05-.08c.13-.09.24-.12.32-.1Z" fill="#241210"/><defs><linearGradient id="a" x1="3.35" y1="3.12" x2="21.9" y2="24.43" gradientUnits="userSpaceOnUse"><stop stop-color="#1A1E21"/><stop offset="1" stop-color="#06060A"/></linearGradient></defs></svg>