<!-- by TradingView --><svg width="18" height="18" viewBox="0 0 18 18" xmlns="http://www.w3.org/2000/svg"><path fill="#181B1E" d="M0 0h18v18H0z"/><path fill-rule="evenodd" d="M15 9A6 6 0 1 1 3 9a6 6 0 0 1 12 0Zm-.35 0a5.65 5.65 0 0 1-10.93 2H8.1c.52 0 1.02-.26 1.4-.74l1.8-2.28c.29-.37.68-.58 1.08-.58h2.04c.15.5.23 1.04.23 1.6Zm-.37-2h-4.5c-.52 0-1.02.26-1.4.74l-1.8 2.28c-.29.37-.68.58-1.08.58H3.58A5.65 5.65 0 0 1 14.28 7Zm-7.45 3.6h-.25l2.06-2.62c.3-.37.68-.58 1.08-.58h.25l-2.06 2.62c-.29.37-.68.58-1.08.58Zm1.33 0H7.9l2.06-2.62c.3-.38.68-.58 1.08-.58h.25l-2.06 2.62c-.29.37-.68.58-1.08.58Z" fill="#EAC99E"/></svg>