<!-- by TradingView --><svg width="18" height="18" viewBox="0 0 18 18" xmlns="http://www.w3.org/2000/svg"><path fill="url(#a)" d="M0 0h18v18H0z"/><path fill-rule="evenodd" d="M9.18 4.01A.88.88 0 0 0 9 4l-.18.01a107.04 107.04 0 0 0-4.75 1.21.1.1 0 0 0-.06.07 25.6 25.6 0 0 0 .55 4.25c.16.74.34 1.32.54 1.74.79 1.62 2.31 2.84 3.87 3.72h.05c1.56-.88 3.08-2.1 3.87-3.71.2-.42.39-1 .55-1.75a25.55 25.55 0 0 0 .55-4.24.1.1 0 0 0-.06-.07 106.44 106.44 0 0 0-4.75-1.21ZM7.46 12l3.13-2.98a.03.03 0 0 0 0-.03v-.01H9.06l-.02-.01-.01-.01a.03.03 0 0 1 0-.03l1.77-1.87V7H8.78l-.02.01-1.6 2.5a.03.03 0 0 0 .01.03h1.35a.03.03 0 0 1 .03.02.03.03 0 0 1 0 .02L7.4 11.96v.02l.01.02h.04Z" fill="#191919"/><defs><linearGradient id="a" x1="0" y1="18" x2="11.04" y2="0" gradientUnits="userSpaceOnUse"><stop stop-color="#10FFDF"/><stop offset="1" stop-color="#00FE0A"/></linearGradient></defs></svg>