<!-- by TradingView --><svg width="18" height="18" viewBox="0 0 18 18" xmlns="http://www.w3.org/2000/svg"><path fill="#212937" d="M0 0h18v18H0z"/><path d="M7.17 5.27c.04-.08.1-.15.17-.2A.43.43 0 0 1 7.58 5h1.91c.16 0 .3.09.38.23l4.07 7.07c.08.14.08.32 0 .46a.46.46 0 0 1-.16.18.43.43 0 0 1-.23.06h-2a.44.44 0 0 1-.31-.14 5.13 5.13 0 0 0-2.7-1.43c-1.13-.19-2.46.07-3.78 1.43a.43.43 0 0 1-.57.05.46.46 0 0 1-.17-.25.48.48 0 0 1 .02-.32l3.13-7.07Zm1.2.73 3.44 6h.96L9.24 6h-.87Zm1.8 5L7.62 6.47l-2.03 4.6a4.65 4.65 0 0 1 3.1-.55c.53.09 1.03.26 1.48.48Z" fill="#fff"/></svg>