<!-- by TradingView --><svg width="18" height="18" viewBox="0 0 18 18" xmlns="http://www.w3.org/2000/svg"><path fill="#F0F3FA" d="M0 0h18v18H0z"/><path d="M4.84 4a.84.84 0 0 0-.84.84v8.32c0 .46.38.84.84.84h8.32c.46 0 .84-.38.84-.84V11h-2.13a3.5 3.5 0 1 1 0-4H14V4.84a.84.84 0 0 0-.84-.84H4.84Z"/><path d="M9.06 11c.6 0 1.13-.25 1.51-.64l-.37-.38a1.4 1.4 0 0 1-2.27-.38h1.5v-.4H7.81a1.41 1.41 0 0 1 0-.4h1.62v-.4h-1.5a1.4 1.4 0 0 1 2.3-.35l.37-.38A2.08 2.08 0 0 0 9.06 7c-.92 0-1.7.59-1.97 1.4h-.46v.4h.38a1.97 1.97 0 0 0 0 .4h-.38v.4h.46c.27.81 1.05 1.4 1.97 1.4ZM14 8.5h-2v1h2v-1Z" fill="#E40127"/></svg>