<!-- by TradingView --><svg xmlns="http://www.w3.org/2000/svg" width="18" height="18"><path fill="#0E92DF" d="M0 0h18v18H0z"/><path d="M9 4c.27 0 .5.2.55.45 1.1.11 2.12.54 2.98 1.25a.55.55 0 01.84.11.58.58 0 01-.05.69c.7.86 1.12 1.91 1.23 3.02.13.02.24.1.32.2a.57.57 0 01-.43.92.55.55 0 01-.43-.2.57.57 0 01-.12-.48l-1.53-.75a.56.56 0 01-.41.2.55.55 0 01-.42-.18L9.55 10a.57.57 0 01-.09.39c-.08.11-.2.2-.32.23v1.73c.12.03.23.1.31.2a.59.59 0 01-.05.77.57.57 0 01-.8 0 .59.59 0 01-.17-.41c0-.28.18-.5.43-.56v-1.73a.55.55 0 01-.32-.23.57.57 0 01-.1-.4l-1.92-.75a.56.56 0 01-.44.24.55.55 0 01-.45-.22l-1.52.7a.58.58 0 01-.12.47.56.56 0 01-.99-.36c0-.13.04-.26.13-.36.08-.1.2-.17.32-.2.1-1.11.53-2.15 1.23-3.02a.58.58 0 01.19-.9.55.55 0 01.6.1 5.48 5.48 0 012.98-1.24c.03-.13.1-.25.2-.33.1-.08.22-.13.35-.13zm1.75 2.88l1.6-.65a.59.59 0 01.03-.3c-.81-.68-1.8-1.1-2.85-1.2 0 .02-.03.12-.11.2l1.33 1.95zm-3.47-.01l1.3-1.93a.6.6 0 01-.11-.21c-1.05.1-2.04.52-2.85 1.2.02.06.04.17.03.27l1.63.67zm1.85.29c.15.03.27.11.35.23l1.01-.4-1.3-1.9-.05.02v2.05zm-.57.23c.07-.1.18-.19.3-.22V5.1a.64.64 0 01-.05-.01L7.54 6.98l1.01.4zm-3.46-.7c-.06 0-.12-.01-.2-.04a5.35 5.35 0 00-1.18 2.89c.05.01.17.05.28.18l1.52-.7a.58.58 0 01.19-.53.55.55 0 01.55-.1l.87-1.29-1.58-.64a.56.56 0 01-.45.23zm6.64 1.62a.55.55 0 01.56.1.56.56 0 01.18.55l1.53.75c.1-.12.22-.17.27-.18a5.35 5.35 0 00-1.19-2.88.55.55 0 01-.62-.17l-1.56.63.83 1.2zm-5.25.23l.03.05 1.93-.78v-.17L7.4 7.21l-.9 1.33zm4.95.03a.53.53 0 01.07-.1l-.86-1.25-1.07.43v.16l1.86.76zm-2.9 1.18a.52.52 0 01.32-.22V8.28a.57.57 0 01-.3-.22l-1.94.78V9l1.92.76zm.6-.22c.05.01.2.05.32.22l1.93-.77c-.02-.06-.02-.14-.02-.14l-1.9-.78c-.07.12-.2.2-.33.23v1.24z" fill="#fff"/></svg>