<!-- by TradingView --><svg width="18" height="18" viewBox="0 0 18 18" xmlns="http://www.w3.org/2000/svg"><path fill="url(#a)" d="M0 0h18v18H0z"/><path d="M9 14c2.58 0 4.7-1.93 5-4.41h-.6A4.43 4.43 0 0 1 9 13.4 4.43 4.43 0 0 1 4.6 9.6H4A5.02 5.02 0 0 0 9 14ZM9 4c2.58 0 4.7 1.93 5 4.41h-.6A4.43 4.43 0 0 0 9 4.6 4.43 4.43 0 0 0 4.6 8.4H4A5.02 5.02 0 0 1 9 4Zm-2.5 7h.8L9 7.06 10.7 11h.8L9.73 7H8.27L6.5 11ZM9 9l.83 2H8.17L9 9Z" fill="#fff"/><defs><linearGradient id="a" x1="3.35" y1="3.12" x2="21.9" y2="24.43" gradientUnits="userSpaceOnUse"><stop stop-color="#1A1E21"/><stop offset="1" stop-color="#06060A"/></linearGradient></defs></svg>