<!-- by TradingView --><svg width="18" height="18" viewBox="0 0 18 18" xmlns="http://www.w3.org/2000/svg"><path fill="#F0F3FA" d="M0 0h18v18H0z"/><path d="M4.01 9a5.12 5.12 0 0 1 0-.54H10V9H4.01Zm.47 1.85c-.1-.23-.2-.47-.27-.72v-.12h3.71v.19h4.22V10H14v.12c-.07.25-.16.49-.27.72H4.48Zm1.1 1.51c-.11-.1-.21-.2-.31-.32V12h5.94v.36H5.57Zm1.44.97a5.1 5.1 0 0 1-.63-.34H9.2v.34H7.02Zm4-9.33c.16.06.3.13.45.2v.14h-2.7V4h2.26Zm-4.28.2.44-.2h1.25v.34H6.74V4.2Zm-1.9 1.7.27-.36h7.24V6h-7.5v-.1Zm-.67 1.52c.07-.3.18-.6.31-.87H11v.87H4.17Z" fill="#2B2A29"/></svg>