<!-- by TradingView --><svg width="18" height="18" viewBox="0 0 18 18" xmlns="http://www.w3.org/2000/svg"><path fill="#D7FF5E" d="M0 0h18v18H0z"/><path fill-rule="evenodd" d="M9 15A6 6 0 1 0 9 3a6 6 0 0 0 0 12Zm0-1A5 5 0 1 0 9 4a5 5 0 0 0 0 10Z" fill="url(#a)"/><path d="M7 6v3.01c.03.46.48 1.47 2 1.39V7.2C8.94 6.81 8.46 6 7 6Zm0 3.38v1.07c0 .88.66 1.55 1.63 1.55H12c0-.8-.71-1.5-1.6-1.5H8.34c-.39 0-1.18-.2-1.34-1.12Z" fill="#25143B"/><defs><linearGradient id="a" x1="6.07" y1="3.7" x2="11.61" y2="13.89" gradientUnits="userSpaceOnUse"><stop stop-color="#DBE960"/><stop offset=".2" stop-color="#ECA064"/><stop offset=".54" stop-color="#BF7675"/><stop offset="1" stop-color="#543480"/></linearGradient></defs></svg>