<!-- by TradingView --><svg width="18" height="18" viewBox="0 0 18 18" xmlns="http://www.w3.org/2000/svg"><path fill="#F0F3FA" d="M0 0h18v18H0z"/><path d="M9.53 4.9c0-.21-.14-.68-.68-.9.05.09.1.27-.08.27-.09 0-.13-.01-.18-.03a1.36 1.36 0 0 0-.5-.06c.15.12.43.38.3.45l-.68.36c.33 0 1.06.07 1.37.36l.37-.36c-.1 0-.33-.06-.45-.36.1-.03.35-.02.53.27Z" fill="url(#a)"/><path d="m9.9 4.72-.22.18-.07-.36c.24 0 .3.12.3.18Z" fill="url(#b)"/><path d="m9.38 5.44.68-.54c.1.09.3.36.3.72v.36c-.05-.2-.31-.6-.98-.54Z" fill="url(#c)"/><path d="M8.77 5.44c-.33 0-.98.1-.98.54 0 .43.1.78.15.9-.03-.42.1-1.3.83-1.44Z" fill="url(#d)"/><path d="M8.32 6.34c.06-.43.48-.6.68-.63-.48.29-.5 1.26-.45 1.71-.1-.18-.3-.65-.23-1.08Z" fill="url(#e)"/><path d="M9.3 5.8a.77.77 0 0 0-.45.72c0 .43.3.78.45.9-.1-.27-.24-.97 0-1.62Z" fill="url(#f)"/><path d="M9.6 6.97c-.24-.14-.2-.6-.15-.81 0 .43.51.78.76.9a.82.82 0 0 1-.6-.09Z" fill="url(#g)"/><path d="M7.24 6.7v.9l1.5 2.86-.1.24-1.4-2.38v.9l1.18 1.94L7.64 13h2.72l-.82-1.85 1.22-1.93v-.9l-1.43 2.4-.14-.28 1.57-2.84v-.9L8.96 10 7.25 6.7Zm1.62 4.43.1-.22.14.27-.1.2-.14-.25Zm-.62 1.52.42-1.07.19.38h.3l.16-.35.42 1.04H8.24Z" fill="url(#h)"/><path d="M4.38 13H4l2.94-5.94v.72L4.38 13Z" fill="url(#i)"/><path d="M5.67 11.96H5.2L6.94 8.5v.9l-1.27 2.56Z" fill="url(#j)"/><path d="M11.06 7.6v-.9L14 13h-.45l-2.5-5.4Z" fill="url(#k)"/><path d="M11.06 8.32v.9l1.27 2.74h.46l-1.73-3.64Z" fill="url(#l)"/><defs><linearGradient id="a" x1="7.86" y1="4.99" x2="14.75" y2="11.55" gradientUnits="userSpaceOnUse"><stop stop-color="#032D55"/><stop offset=".13" stop-color="#AAD9F8"/></linearGradient><linearGradient id="b" x1="7.86" y1="4.99" x2="14.75" y2="11.55" gradientUnits="userSpaceOnUse"><stop stop-color="#032D55"/><stop offset=".13" stop-color="#AAD9F8"/></linearGradient><linearGradient id="c" x1="7.86" y1="4.99" x2="14.75" y2="11.55" gradientUnits="userSpaceOnUse"><stop offset=".13" stop-color="#AAD9F8"/><stop offset=".34" stop-color="#002C56"/></linearGradient><linearGradient id="d" x1="7.86" y1="4.99" x2="14.75" y2="11.55" gradientUnits="userSpaceOnUse"><stop stop-color="#032D55"/><stop offset=".13" stop-color="#AAD9F8"/></linearGradient><linearGradient id="e" x1="7.86" y1="4.99" x2="14.75" y2="11.55" gradientUnits="userSpaceOnUse"><stop offset=".13" stop-color="#AAD9F8"/><stop offset=".34" stop-color="#002C56"/></linearGradient><linearGradient id="f" x1="7.86" y1="4.99" x2="14.75" y2="11.55" gradientUnits="userSpaceOnUse"><stop offset=".13" stop-color="#AAD9F8"/><stop offset=".34" stop-color="#002C56"/></linearGradient><linearGradient id="g" x1="7.86" y1="4.99" x2="14.75" y2="11.55" gradientUnits="userSpaceOnUse"><stop offset=".13" stop-color="#AAD9F8"/><stop offset=".34" stop-color="#002C56"/></linearGradient><linearGradient id="h" x1="7.86" y1="4.99" x2="14.75" y2="11.55" gradientUnits="userSpaceOnUse"><stop stop-color="#032D55"/><stop offset=".13" stop-color="#AAD9F8"/><stop offset=".34" stop-color="#002C56"/><stop offset=".52" stop-color="#87D4FB"/><stop offset=".72" stop-color="#012D56"/><stop offset=".86" stop-color="#A5DEFE"/></linearGradient><linearGradient id="i" x1="7.86" y1="4.99" x2="14.75" y2="11.55" gradientUnits="userSpaceOnUse"><stop offset=".13" stop-color="#AAD9F8"/><stop offset=".34" stop-color="#002C56"/></linearGradient><linearGradient id="j" x1="7.86" y1="4.99" x2="14.75" y2="11.55" gradientUnits="userSpaceOnUse"><stop offset=".13" stop-color="#AAD9F8"/><stop offset=".34" stop-color="#002C56"/></linearGradient><linearGradient id="k" x1="7.86" y1="4.99" x2="14.75" y2="11.55" gradientUnits="userSpaceOnUse"><stop offset=".34" stop-color="#002C56"/><stop offset=".52" stop-color="#87D4FB"/><stop offset=".72" stop-color="#012D56"/><stop offset=".86" stop-color="#A5DEFE"/><stop offset=".99" stop-color="#24435B"/></linearGradient><linearGradient id="l" x1="7.86" y1="4.99" x2="14.75" y2="11.55" gradientUnits="userSpaceOnUse"><stop offset=".34" stop-color="#002C56"/><stop offset=".52" stop-color="#87D4FB"/><stop offset=".72" stop-color="#012D56"/><stop offset=".86" stop-color="#A5DEFE"/></linearGradient></defs></svg>