<!-- by TradingView --><svg width="18" height="18" viewBox="0 0 18 18" xmlns="http://www.w3.org/2000/svg"><path fill="#F0F3FA" d="M0 0h18v18H0z"/><circle cx="9" cy="9" r="5.65" fill="url(#a)"/><path d="M11.97 5.8c.27.47.18.48-.3.05a.15.15 0 0 1-.04-.08c-.06-.26-.23-.37-.5-.33-.09.01-.11.06-.07.14a.5.5 0 0 0 .07.33l.16.47v.26c.02.12.01.22-.04.28-.02.03-.04.03-.07.01l-.15-.11-.2-.2a.12.12 0 0 0 0-.1l-.06-.05a1.08 1.08 0 0 1-.1-.04.18.18 0 0 1-.07-.07c-.06-.12-.12-.15-.26-.13-.14 0-.3-.02-.47-.08a.55.55 0 0 0-.21.18c-.07.04-.07.1 0 .18.02.02.08.05.17.07.05 0 .06.03.03.06a.2.2 0 0 1-.12.06 7.39 7.39 0 0 1-.45 0l-.01.02-.01.04.01.02c.2-.02.35.05.43.21v.17c0 .03-.02.05-.05.05h-.45c-.03 0-.04-.02-.04-.05l.03-.24c.01-.07-.01-.08-.06-.03L9 7.03c-.03.03-.05.03-.07 0l-.14-.25a.78.78 0 0 1-.06-.3.1.1 0 0 0-.04-.08l-.35-.26c-.04-.03-.08-.03-.14 0-.13-.02-.24.01-.31.09-.12.12-.22.17-.3.15-.1-.03-.11-.06-.02-.11.24-.14.46-.32.66-.55.02-.03.02-.04-.02-.06l-.56-.14a.18.18 0 0 1-.1-.06.72.72 0 0 0-.45-.21 1 1 0 0 1-.44-.18V5a.06.06 0 0 1 .01-.05.06.06 0 0 1 .06-.01l.45.14c.13.04.26.04.4 0 .45-.11.84-.15 1.16-.11.68.08 1.2-.1 1.85.14.46.16.7 0 1.02.38.1.12.22.22.36.3Z" fill="#E9D9CC"/><path d="M7.1 5.25c-.28-.02-.45.25-.5.8-.06.2-.1.42-.08.68l-.03.04-.02.47-.01.02-.03.01a.03.03 0 0 1-.04-.02.2.2 0 0 0-.07-.12V7.1c-.04-.24-.04-.48 0-.72l.25-1.02c.05-.1.08-.2.1-.3a1 1 0 0 0 .43.18Z" fill="#BC987F"/><path d="M7.1 5.25c.2.02.35.1.46.21.02.03.05.05.09.06l.56.14c.04.02.04.03.02.06-.2.23-.42.4-.66.55-.1.05-.09.08.01.1.1.03.2-.02.3-.14-.02.06-.03.11-.01.15.01.04.05.05.11.06.19 0 .3-.05.35-.16.04.06.02.11-.06.17a.08.08 0 0 0 .02.13c.08.03.13.1.16.2a.69.69 0 0 0-.48-.23c-.04 0-.07.01-.1.03a5.3 5.3 0 0 1-.35.2c-.17.1-.2.21-.09.36L7.3 7.1l-.03-.05c-.03-.04-.06-.04-.08 0l-.04.04a.16.16 0 0 0-.08-.01.1.1 0 0 0-.07.05l-.36.75V7.8l.25-.52a.08.08 0 0 0 0-.06l-.1-.24a.08.08 0 0 1 .05-.11l.3-.1a.06.06 0 0 0 .04-.07l-.02-.02c-.01-.04-.04-.05-.08-.04a.52.52 0 0 1-.4-.01c.19.04.33.02.45-.05a.1.1 0 0 0 .04-.09c.01-.13 0-.2.07-.34.11-.25.09-.38-.08-.38a.5.5 0 0 0 .1-.27c0-.03-.02-.06-.05-.07-.23-.08-.34.03-.42.24l-.18.4c.04-.56.2-.83.5-.81Z" fill="#896D5C"/><path d="M6.57 5.37 6.33 6.4l-.01-.4c0-.04-.02-.05-.06-.04l-.82.1a.5.5 0 0 0-.2.16.1.1 0 0 0-.02.1.1.1 0 0 0 .09.07c.26.02.45.02.59 0 .24-.04.27.02.08.17-.13.11-.43.12-.6.24a.9.9 0 0 0-.19.27.1.1 0 0 0 .01.12l.06.04h.13c.03.02.05.04.05.07.04.2-.02.32-.18.38l-.33-.32c0-.28-.08-.55-.21-.8a1 1 0 0 1 .08-.18.4.4 0 0 1 .14-.14c.18-.1.3-.26.5-.35.14-.05.28-.12.41-.2.21-.14.47-.22.72-.3Z" fill="#A56E4E"/><path d="M7.16 5.76c-.2.24-.5.53-.47.86.12.05.25.06.4.01.03-.01.06 0 .08.04v.02a.06.06 0 0 1-.03.08l-.3.09a.08.08 0 0 0-.05.11l.1.24a.08.08 0 0 1 0 .06l-.25.52a.19.19 0 0 1-.06-.11l-.06-.95c-.01-.26.02-.48.09-.68l.18-.39c.08-.2.19-.32.42-.24.03.01.05.04.05.07a.5.5 0 0 1-.1.27Z" fill="#4A2D20"/><path d="m11.97 5.8.55.38c-.33.16-.55.4-.67.73a.21.21 0 0 1-.1-.1.37.37 0 0 0-.04-.15.8.8 0 0 0-.02-.48c-.1-.54-.3-.74-.63-.6-.04-.08-.02-.13.08-.14.26-.04.43.07.49.33 0 .03.02.06.05.08.47.43.56.42.3-.06Z" fill="#D69D78"/><path d="M6.69 6.62c-.03-.33.26-.62.47-.86.17 0 .2.13.08.38-.07.14-.06.21-.07.34a.1.1 0 0 1-.04.09c-.12.07-.26.09-.44.05Z" fill="#AA9E97"/><path d="M11.7 6.18a.8.8 0 0 1 0 .48c-.13.03-.27-.06-.41-.28l-.16-.47.02-.12a.04.04 0 0 1 .08-.02c.15.17.19.34.46.4Z" fill="#332116"/><path d="M6.33 6.39c-.05.24-.05.48-.01.72l-.29 1.56c0 .03 0 .06.02.09a.1.1 0 0 0 .07.05c.04 0 .07 0 .09-.04l.2-.26c.06-.08.1-.07.09.03-.02.73-.12 1.58.7 1.9l.25.09a.12.12 0 0 1 .07.15l-.05.2c0 .02-.03.03-.05.01l-.56-.36c-.18-.1-.3-.06-.39.1a.1.1 0 0 0 0 .1l.29.65c.06.14.04.15-.05.03l-.3-.39c-.11-.24-.21-.46-.27-.73-.08-.43-.19-.85-.31-1.27a.74.74 0 0 1-.2-.17l-.45-.56a.6.6 0 0 1 .08-.62c.16-.06.22-.18.18-.38a.08.08 0 0 0-.05-.06c-.03-.01-.05-.01-.07 0a.12.12 0 0 1-.12-.05.1.1 0 0 1-.01-.12.9.9 0 0 1 .2-.27c.16-.12.46-.13.6-.24.18-.15.15-.21-.1-.17a2.63 2.63 0 0 1-.63-.02.1.1 0 0 1-.05-.1l.02-.05a.5.5 0 0 1 .21-.16l.82-.1c.04-.01.05 0 .06.04v.4Z" fill="#4A2D20"/><path d="M8.79 6.78c0 .43-.22.7-.67.8a.08.08 0 0 0-.06.07v.07a.07.07 0 0 0 .06.06h.39a.1.1 0 0 0 .08-.04l.32-.44-.05.12a.08.08 0 0 0 .02.09c.02.02.06.04.11.04a.4.4 0 0 0-.23.17.1.1 0 0 0 0 .1l.08.2c.02.03.01.06-.03.08l-.21.1a.13.13 0 0 0-.08.12v.1c0 .07.03.1.1.06l.19-.1a.3.3 0 0 1-.12.18 3.35 3.35 0 0 0-.26 1.34.1.1 0 0 1-.03.04.15.15 0 0 1-.03.02.06.06 0 0 1-.04 0 .05.05 0 0 1-.03-.02c-.17-.35-.21-.64-.13-.86a75.26 75.26 0 0 1 .37-1.12.09.09 0 0 0-.09-.08H7.7a.1.1 0 0 1-.08-.04 1.55 1.55 0 0 1-.3-.74l.12.04c.2.12.43.2.7.23.03.01.06 0 .08-.02.23-.17.3-.36.24-.58-.03-.1-.08-.16-.16-.19a.08.08 0 0 1-.02-.13c.08-.06.1-.11.06-.17-.03-.08-.08-.13-.13-.14.06-.03.1-.03.14 0l.35.26a.1.1 0 0 1 .04.09c0 .1.02.2.06.29Z" fill="#AA9E97"/><path d="M8.2 6.14c.05.01.1.06.13.14-.05.1-.16.16-.35.16-.06 0-.1-.02-.11-.06-.02-.04-.01-.09.02-.15.07-.08.18-.1.3-.09Z" fill="#4A2D20"/><path d="M10.83 6.62c-.08-.14-.21-.12-.4.04a5 5 0 0 1-.22.2.14.14 0 0 0-.05.08V7.24c-.1.11-.12.25-.07.42 0 .04 0 .05-.04.03l-.1-.03a.23.23 0 0 0-.2-.12c.1-.07.06-.15-.13-.24.04 0 .07-.02.1-.03.03-.02.05-.04.04-.08L9.7 7c-.08-.16-.22-.23-.43-.21-.01 0-.02-.01-.01-.02v-.04a.04.04 0 0 1 .05-.03l.42.01a.2.2 0 0 0 .12-.06c.03-.03.02-.05-.03-.06-.09-.02-.15-.05-.17-.07-.07-.08-.07-.14 0-.18.05.1.2.14.44.13.04 0 .05-.02.03-.06a.69.69 0 0 0-.26-.25c.18.06.33.09.47.08.14-.02.2 0 .26.13l.07.07.1.04c.03.02.05.03.06.06v.09Z" fill="#AA9E97"/><path d="M12.88 6.44c-.13.14-.41.1-.58.1a.07.07 0 0 0-.08.04.23.23 0 0 0-.01.17.1.1 0 0 0 .06.07l.24.09.14.39a.05.05 0 0 1-.07.06l-.53-.27-.2-.18c.12-.33.34-.57.67-.73l.36.26Z" fill="#CD8D67"/><path d="M11.7 6.66c.03.02.04.07.05.14-.1.34-.06.56.1.66.05.09.07.22.07.38 0 .15.03.27.07.37.1.2.18.48.4.46.03 0 .05-.02.05-.05a.95.95 0 0 0-.2-.83.11.11 0 0 1-.04-.1c.03-.26-.06-.43-.25-.5.11-.02.14-.05.1-.1l.53.27a.05.05 0 0 0 .07-.06l-.14-.4c.18.2.37.36.6.48-.21.32-.33.69-.34 1.09-.23.4-.48.43-.74.1l-.25-.51-.03-.42c0-.04-.02-.06-.06-.05-.06.02-.1.09-.12.21a.65.65 0 0 0-.11-.5c-.06-.07-.09-.06-.09.03v.29c-.08-.18-.08-.4 0-.67.05-.13.02-.24-.09-.31v-.26c.15.22.29.31.43.28Z" fill="#A56E4E"/><path d="m13.15 7.31-.04.07a1.97 1.97 0 0 1-.6-.47l-.24-.1a.1.1 0 0 1-.06-.06.23.23 0 0 1 .01-.17.07.07 0 0 1 .08-.05c.17.02.45.05.58-.1.4.07.31.6.27.88Z" fill="#8E4E2E"/><path d="m10.83 6.62.2.2c.07.15.12.3.13.44l-.05.02c-.08 0-.14-.03-.16-.1a.08.08 0 0 0-.06-.06.08.08 0 0 0-.07.02c-.3.24-.51.23-.66-.03a.43.43 0 0 1 0-.17c0-.03.02-.06.05-.08l.23-.2c.18-.16.3-.18.39-.04ZM4.93 7.35a.67.67 0 0 1-.23-.48.54.54 0 0 1 .02-.32c.13.25.2.52.2.8Z" fill="#332116"/><path d="M8.45 6.77c.06.22-.01.4-.24.58a.11.11 0 0 1-.09.02c-.26-.03-.5-.11-.69-.23-.1-.15-.08-.27.1-.36l.34-.2a.17.17 0 0 1 .1-.03c.18.01.34.08.48.22Z" fill="#241C1C"/><path d="M11.38 7.62c-.01.61-.02 1-.04 1.17-.03.26-.11.55-.25.9a.56.56 0 0 1-.06.02.14.14 0 0 1-.04-.08v-.09c.1-.22.12-.4.08-.54-.03-.13-.07-.13-.12-.01l-.12.3.16-.88c0-.04.03-.06.07-.06h.15c.05 0 .07-.03.07-.07v-.91a.09.09 0 0 0-.06-.09l-.06-.02a1.23 1.23 0 0 0-.13-.44l.15.11c.03.02.05.02.07 0 .05-.07.06-.17.03-.3.11.08.14.19.1.32-.09.27-.09.49 0 .67Z" fill="#AA9E97"/><path d="M6.64 7.8v.96a.07.07 0 0 0 .08.06l.55-.07c.03 0 .06 0 .08.04.18.31.53.8.24 1.12-.06.33-.05.65.01.99.01.02.03.03.05.03h.28A.1.1 0 0 0 8 10.9c.38-.5.76-.87.69-1.56-.04-.33-.04-.59 0-.78a.3.3 0 0 0 .12-.18c.03 0 .07 0 .1-.05.16 0 .35.07.58.2.27.13.59.17.96.1l.02.09a.68.68 0 0 1-.12.48l-.04-.28a.23.23 0 0 0-.23-.2H8.82a.1.1 0 0 0-.1.14c.08.32.14.67.08 1-.12.55-.45.95-1 1.2a.08.08 0 0 0-.04.08c0 .07.06.14.18.19a.22.22 0 0 0 .26-.06c.35-.42 1.01-.38 1.53-.42l.09.03.35.29-.49-.25a.08.08 0 0 0-.06 0l-.35.1c-.06.01-.06.04-.02.07l.13.12c.06.05.13.07.2.07.2-.01.36.07.5.26.02.03.02.06 0 .1l-.38.65c-.02.03-.01.06.02.08.2.13.28.25.27.35-.08.06-.15.09-.2.07.08-.02.12-.06.15-.1l-.01-.06c-.25-.21-.44-.32-.46-.68 0-.03 0-.06.02-.1a.73.73 0 0 1 .41-.3.07.07 0 0 0 .05-.05.07.07 0 0 0-.04-.08l-.06-.03a.31.31 0 0 0-.21-.04l-.25.04c-.04 0-.06-.01-.06-.06v-.07a.13.13 0 0 0-.15-.13l-.35.04a.09.09 0 0 0-.07.05l-.13.21c-.02.05-.01.08.04.1l.18.05c.03 0 .05.02.07.05.25.47.2.87-.15 1.2-.04.04-.08.05-.1.05l.08-.18c.02-.03.01-.05-.03-.06a1.56 1.56 0 0 1-1.1-.89c-.2-.44-.45-.78-.74-1.04-.13-.11-.18-.08-.16.09l.08.83-.06-.06-.33-.55.3.4c.1.11.1.1.05-.04l-.3-.66a.1.1 0 0 1 .01-.1c.1-.15.21-.2.39-.09l.56.36c.02.02.04.01.05-.02l.05-.2a.12.12 0 0 0-.07-.14 7.8 7.8 0 0 1-.26-.1c-.8-.31-.7-1.16-.69-1.89 0-.1-.03-.1-.09-.03l-.2.26a.09.09 0 0 1-.09.04.1.1 0 0 1-.07-.05.13.13 0 0 1-.02-.1 529.35 529.35 0 0 0 .3-1.53c.03.33.02.6-.03.8-.08.3-.12.52-.13.64 0 .03 0 .05.04.06h.03c.02 0 .04-.02.06-.05.25-.5.24-1.28.2-1.81l.02-.04.06.95c0 .04.02.07.06.11Z" fill="#5F5047"/><path d="M6.5 6.77c.04.53.05 1.32-.2 1.8-.02.04-.04.05-.06.06H6.2c-.03-.01-.04-.03-.03-.06 0-.12.05-.34.13-.65.05-.2.06-.46.02-.8a.2.2 0 0 1 .07.13.03.03 0 0 0 .04.02h.03l.01-.03.02-.47Z" fill="#896D5C"/><path d="m9.71 7 .05.2c0 .03 0 .05-.04.07a.29.29 0 0 1-.1.03h-.7l-.33.44a.1.1 0 0 1-.08.04h-.4a.07.07 0 0 1-.06-.06v-.07a.08.08 0 0 1 .07-.06c.45-.11.67-.38.67-.81l.14.24c.02.04.04.04.07.01l.14-.14c.05-.05.07-.04.06.03l-.03.24c0 .03.01.05.04.05h.45c.03 0 .05-.02.05-.05v-.17Z" fill="#D7C6BA"/><path d="M11.75 6.8c.02.05.05.09.1.11l.2.18c.04.05.01.08-.1.1l-.1.27c-.16-.1-.2-.32-.1-.66Z" fill="#5F5047"/><path d="M7.3 7.1c.04.27.14.51.31.74a.1.1 0 0 0 .08.04h.76a.09.09 0 0 1 .08.12l-.36 1.08c-.08.22-.04.5.13.86a.05.05 0 0 0 .03.02.05.05 0 0 0 .04 0l.03-.02a.1.1 0 0 0 .04-.09c0-.45.09-.88.25-1.3-.04.2-.04.46 0 .8.07.68-.3 1.05-.69 1.55a.09.09 0 0 1-.07.03h-.28c-.02 0-.04 0-.05-.03a2.53 2.53 0 0 1 0-.99.5.5 0 0 0 .21.17c.04 0 .06 0 .06-.04.06-.76.34-1.3.52-2a.06.06 0 0 0 0-.06.06.06 0 0 0-.05-.02h-.4c-.04 0-.06.02-.06.06 0 .3-.06.53-.2.7-.1.13-.15.1-.15-.05 0-.2-.01-.36-.03-.5-.05-.36-.23-.73-.35-1.08l.04-.05c.02-.03.05-.03.08 0l.03.06Z" fill="#968981"/><path d="M7.15 7.09c.12.35.3.72.35 1.08.02.14.03.3.03.5 0 .16.05.18.15.05.14-.17.2-.4.2-.7 0-.04.02-.06.06-.06h.4a.06.06 0 0 1 .04.02.06.06 0 0 1 .01.05c-.18.72-.46 1.25-.52 2 0 .04-.02.06-.06.05a.5.5 0 0 1-.22-.17c.29-.32-.06-.8-.24-1.12a.07.07 0 0 0-.08-.04l-.55.07a.07.07 0 0 1-.07-.06v-.88L7 7.13a.1.1 0 0 1 .07-.05h.08Z" fill="#82756B"/><path d="M11.11 7.28v.03a.91.91 0 0 1-.36.16c-.29.05-.48-.02-.58-.23-.02-.06-.02-.1 0-.13.14.26.36.27.65.03a.08.08 0 0 1 .13.03c.02.08.08.11.16.11Z" fill="#714E3B"/><path d="m11.85 7.46.1-.27c.2.07.28.24.25.5 0 .04 0 .07.03.1.2.22.27.5.21.83 0 .03-.02.05-.06.05-.2.02-.3-.26-.39-.46a.96.96 0 0 1-.07-.37c0-.16-.02-.3-.07-.38Z" fill="#D69D78"/><path d="M10.17 7.24c.1.2.3.28.58.23l-.14.05a.07.07 0 0 0-.05.07v.08a.19.19 0 0 0 .22.18c.04 0 .07-.03.1-.05l.33-.33a.1.1 0 0 0-.06-.16h-.04v-.03l.05-.02.06.02c.04.02.06.05.06.09v.9c0 .05-.02.08-.07.08h-.15c-.04 0-.07.02-.07.06l-.16.87-.06.32c-.04.22-.05.44-.05.65 0 .1.05.26.13.49.1.25.16.72.17 1.4v.2h-.04c-.03-.01-.05 0-.07.02a.82.82 0 0 1-.73.36c.19-.05.35-.12.49-.21.1-.07.1-.12-.03-.14-.17-.02-.34-.1-.51-.22-.03-.02-.04-.04-.03-.08l.26-.67.03-.03c.27-.05.34-.21.23-.47a6.8 6.8 0 0 1-.21-1.14c-.03-.26 0-.53.1-.81a.27.27 0 0 0-.04-.23l-.02-.08a.3.3 0 0 0-.16-.2c.08-.3-.14-.56-.33-.78l.09.03c.03.02.05 0 .04-.03-.05-.17-.02-.3.08-.42Z" fill="#D7C6BA"/><path d="M11.57 7.8c-.06.6-.13.98.09 1.47l-.22.51-.16.17a.11.11 0 0 1-.09.03c-.06 0-.1-.04-.13-.11 0-.03 0-.1.03-.18.14-.35.22-.64.25-.9.02-.17.03-.56.04-1.17v-.29c0-.09.02-.1.08-.03.1.13.14.3.11.5Z" fill="#332116"/><path d="M9.62 7.3c.19.1.23.17.13.24-.27-.15-.52-.14-.76 0-.05 0-.1 0-.11-.03a.08.08 0 0 1-.02-.1l.05-.1.7-.01Z" fill="#714E3B"/><path d="m11.11 7.3.04.01a.1.1 0 0 1 .06.16l-.33.33a.18.18 0 0 1-.29-.03.19.19 0 0 1-.03-.1v-.08a.07.07 0 0 1 .05-.07l.14-.05a.91.91 0 0 0 .36-.16ZM9.75 7.54c.1 0 .16.04.2.12.2.22.42.47.34.79l-.35-.22-.47-.4a.1.1 0 0 0-.13 0l-.53.55-.2.1c-.06.03-.1.01-.1-.06v-.1c0-.06.03-.1.09-.13l.21-.09c.04-.02.05-.05.03-.08l-.08-.2a.1.1 0 0 1 0-.1.4.4 0 0 1 .23-.17c.24-.15.5-.16.76-.01Z" fill="#E9D9CC"/><path d="M11.78 8.06a.91.91 0 0 0 .03.47c.05.14.07.24.07.3 0 .18-.02.38-.22.44-.22-.49-.15-.86-.09-1.47.02-.12.06-.2.12-.2.04-.02.06 0 .06.04l.03.42Z" fill="#CD8D67"/><path d="M9.94 8.23c-.33-.03-.76-.19-1.02.1-.04.04-.08.06-.11.05l.53-.55a.1.1 0 0 1 .13 0l.47.4Z" fill="#BCBCBC"/><path d="m9.94 8.23.35.22a.3.3 0 0 1 .16.19c-.37.06-.7.02-.96-.12a1.55 1.55 0 0 0-.57-.2c.26-.28.69-.12 1.02-.1Z" fill="#BC987F"/><path d="M10.35 9.2c-.26.63-.17 1.2.27 1.7.11.26.04.42-.23.47h-.03a.06.06 0 0 1-.06-.04.34.34 0 0 0-.13-.16l-.35-.29a.13.13 0 0 0-.1-.03c-.5.04-1.17 0-1.52.42a.22.22 0 0 1-.26.06c-.12-.05-.18-.12-.18-.2 0-.03.01-.06.05-.07.54-.25.87-.65.99-1.2.06-.33 0-.68-.09-1a.1.1 0 0 1 .1-.14h1.27a.23.23 0 0 1 .23.2l.04.28Z" fill="#241C1C"/><path d="M10.62 10.9a1.55 1.55 0 0 1-.27-1.7c.1-.14.14-.3.12-.48.04.08.06.15.03.23-.09.28-.12.55-.1.81.04.38.11.76.22 1.14Z" fill="#747575"/><path d="M11.1 9.69c-.04.09-.05.15-.04.18.02.07.07.1.13.11.04 0 .07 0 .1-.03l.15-.17v.82l-.04.08a.05.05 0 0 1-.1 0l-.13-.46a.07.07 0 0 0-.03-.04.07.07 0 0 0-.06-.01l-.22.06c-.04.02-.06 0-.06-.04l-.03-.59.06-.32.12-.3c.05-.1.1-.1.12.02.04.14.01.32-.08.54a.17.17 0 0 0 0 .1l.04.07.06-.02Z" fill="#714E3B"/><path d="m6.4 11.02.34.55-.47.05a.1.1 0 0 0-.07.04.1.1 0 0 0-.02.08l.36 1.74a4.85 4.85 0 0 1-.54-1.7c0-.03 0-.06.02-.09.08-.13.14-.28.18-.43.01-.06 0-.1-.04-.1a.66.66 0 0 0-.13-.04c.17 0 .26-.07.27-.19 0-.17-.22-.37-.31-.52a.7.7 0 0 1-.08-.33c0-.35-.04-.7-.08-1.06.12.42.23.84.31 1.27.06.27.16.49.27.73Z" fill="#545455"/><path d="m10.77 9.6.03.59c0 .04.02.06.06.04l.22-.06a.07.07 0 0 1 .08.02l.01.03.14.45a.05.05 0 0 0 .1.01l.03-.08-.2.97c-.01.04-.03.06-.06.09-.1.09-.15.23-.14.4a4.81 4.81 0 0 0-.19-1.33 1.66 1.66 0 0 1-.13-.48c0-.21.01-.43.05-.65Z" fill="#BC987F"/><path d="M8.66 12.88c-.03.1-.05.18-.13.27-.1.1-.17.17-.21.23L6.84 11.8c.02-.04 0-.1-.04-.17l-.08-.83c-.02-.17.03-.2.16-.09.29.26.53.6.74 1.04.22.47.58.77 1.1.89.04.01.05.03.03.06l-.09.18ZM10.17 11.17c.06.03.1.09.13.16.01.03.03.04.06.04h.03c0 .02-.02.03-.03.03-.23.08-.27.45-.34.58-.1.2-.05.42.02.56.02.03.02.08.02.12 0 .04-.02.08-.05.12l-.18.3a.77.77 0 0 1 .16-.36c.01-.1-.08-.22-.27-.35-.03-.02-.04-.05-.02-.08l.38-.65a.08.08 0 0 0 0-.1c-.14-.19-.3-.27-.5-.26a.28.28 0 0 1-.2-.07l-.13-.12c-.05-.03-.04-.06.02-.08l.35-.1h.06l.49.26Z" fill="#77685F"/><path d="m6.03 11.12.13.03c.04.02.05.05.04.1-.04.16-.1.3-.18.44a.13.13 0 0 0-.02.1c.07.59.25 1.16.54 1.7l.28.65a.1.1 0 0 1 0 .08c-.01.03-.04.04-.07.03a5.03 5.03 0 0 1-2.17-1.61c-.09-.1-.1-.17-.04-.23l.46-.17 1.03-1.12Z" fill="#15171E"/><path d="M9.8 12.79c-.38.09-.7.15-.97.18-.07.01-.1-.04-.06-.14.35-.33.4-.73.15-1.2a.12.12 0 0 0-.07-.05l-.18-.05c-.05-.02-.06-.05-.04-.1l.13-.21a.09.09 0 0 1 .07-.05l.35-.04a.13.13 0 0 1 .15.13v.07c0 .05.02.06.06.06l.25-.04c.07-.01.14 0 .2.04l.07.03a.07.07 0 0 1-.01.14.73.73 0 0 0-.41.3.16.16 0 0 0-.02.1c.02.35.21.46.46.67.01.02.02.03 0 .05-.02.05-.06.09-.13.1Z" fill="#241C1C"/><path d="m10.36 11.4-.26.67c0 .04 0 .06.03.08.17.12.34.2.5.22.14.02.15.07.04.14-.14.09-.3.16-.49.21-.1.17-.17.32-.18.46l-.07-.03-.1-.08.18-.29a.28.28 0 0 0 .05-.12c0-.04 0-.09-.02-.12-.07-.14-.13-.37-.02-.56.07-.13.11-.5.34-.58Z" fill="#AA9E97"/><path d="m6.84 11.8 1.48 1.58-.16.16a11.1 11.1 0 0 0-1.34-1.46.08.08 0 0 0-.08.02l-.02.04c-.05.34-.05.66.04 1 .13.53.2.91.22 1.15 0 .05.03.08.08.1l.3.08h.04l.03-.02.35-.47c.02.13.09.21.2.24.15.04.26.08.35.12l.2.08c.16.04.32.05.38.27a3.66 3.66 0 0 1-1.94-.31.1.1 0 0 1-.02-.04l-.72-2.45a.1.1 0 0 1 .1-.12l.51.03Z" fill="#7E8592"/><path d="m8.16 13.54-.38.44-.35.47-.03.02h-.03l-.31-.08c-.05-.02-.08-.05-.08-.1a7.43 7.43 0 0 0-.22-1.14 2.49 2.49 0 0 1-.02-1.05.08.08 0 0 1 .12 0c.48.44.91.92 1.3 1.44Z" fill="#A9AFB9"/><path d="m12.53 12.58.62.19c.07.03.09.07.06.1-.13.16-.26.29-.4.39-.39.4-.82.69-1.3.88-.1.04-.2.14-.3.05l-.03-.02h-.06a.02.02 0 0 1-.02-.01l-.09-.84v-.98l.01-.2a.2.2 0 0 1 .02-.07l1.49.51Z" fill="#272B39"/><path d="M11.02 12.34v.98L11 14.38c-.1.03-.16.02-.18-.04-.1-.31-.24-.56-.4-.75l-.43-.41c.01-.14.08-.3.18-.46.32 0 .57-.12.73-.36a.06.06 0 0 1 .07-.03l.04.01Z" fill="#E7E8ED"/><path d="M9.99 12.72a.77.77 0 0 0-.16.35l.1.08.06.09c.12.16.08.2-.1.11l-.18-.08c-.32-.02-.6.06-.84.25a.1.1 0 0 0-.02.14c.28.3.4.65.35 1.04-.13.05-.23.05-.3 0-.05-.23-.2-.24-.38-.28l-.2-.08c-.08-.04-.2-.08-.34-.12-.11-.03-.18-.1-.2-.24l.38-.44.16-.16c.04-.06.11-.13.21-.23.08-.09.1-.16.13-.27.03 0 .07-.01.11-.05-.03.1 0 .15.06.14a8.44 8.44 0 0 0 1.16-.25Z" fill="#34405D"/><path d="M9.71 13.27v.03c-.3-.02-.28.25-.5.34a.1.1 0 0 0-.07.07.11.11 0 0 0 0 .08c.08.14.12.29.13.44 0 .1.04.16.1.2a.09.09 0 0 0 .1.02.1.1 0 0 0 .05-.08c0-.2.04-.36.12-.5l-.14.68c-.06-.03-.11-.03-.15 0a.08.08 0 0 0-.04.08c.01.05.05.08.1.09l-.21-.02c.04-.39-.07-.73-.35-1.04a.1.1 0 0 1 .02-.14c.24-.19.52-.27.84-.25Z" fill="#4E6692"/><path d="m9.7 13.3-.06.57c-.08.14-.12.3-.12.5a.1.1 0 0 1-.1.08l-.05-.01c-.06-.05-.1-.12-.1-.2-.01-.16-.05-.3-.12-.45a.11.11 0 0 1 .02-.12.11.11 0 0 1 .04-.03c.22-.09.2-.36.5-.34Z" fill="#7294C5"/><path d="M11 14.38a.76.76 0 0 1-.27.06.1.1 0 0 1-.08-.04 1.5 1.5 0 0 1-.23-.81c.17.19.3.44.41.75.02.06.08.07.18.04Z" fill="#8C959C"/><path d="M9.5 14.55c.05.06.06.11.01.16-.02.02-.06.03-.1.01-.05-.01-.09-.04-.1-.1a.08.08 0 0 1 .04-.08c.04-.02.09-.02.15.01Z" fill="#7294C5"/><path d="M11.07 6.3v.01h-.01c-.02.02-.04.02-.06.02a.23.23 0 0 1-.08-.03.78.78 0 0 1-.18-.17l-.02-.03a.66.66 0 0 1-.11-.21c-.02-.07-.01-.12.02-.14h.02l.42.54Z" fill="#CD8D67"/><path d="M6.23 7.1c.05.3-.07.4-.31.58-.11.07-.18.05-.22-.08l-.06-.19c-.04-.13.01-.22.14-.25l.37-.11c.05-.02.07 0 .08.05Z" fill="#15171E"/><path d="M12.81 7.84a.04.04 0 0 1-.06 0 .95.95 0 0 1-.18-.18c-.04-.06-.05-.1-.03-.12l.01-.02.04-.01c.03 0 .05 0 .08.02s.07.03.1.06l.11.07.01.01a.04.04 0 0 1 .02.03.04.04 0 0 1-.01.03l-.09.1Z" fill="#D7C6BA"/><path d="M10.1 14.42c.06.02.19 0 .27.07l.02.05c0 .04-.03.06-.07.07l-.58.08c-.03 0-.05-.01-.05-.05 0-.14.01-.25.07-.35a.08.08 0 0 1 .08-.04c.08 0 .13.05.17.11.02.03.05.05.08.06Z" fill="#E9D9CC"/><path fill-rule="evenodd" d="M9 15A6 6 0 1 0 9 3a6 6 0 0 0 0 12Zm0-.35a5.65 5.65 0 1 0 0-11.3 5.65 5.65 0 0 0 0 11.3Z" fill="url(#b)"/><defs><linearGradient id="a" x1="9" y1="3.35" x2="9" y2="14.65" gradientUnits="userSpaceOnUse"><stop stop-color="#656D73"/><stop offset="1" stop-color="#ACB2B7"/></linearGradient><linearGradient id="b" x1="3.37" y1="6.69" x2="14.77" y2="11.37" gradientUnits="userSpaceOnUse"><stop stop-color="#E0E0E0"/><stop offset="1" stop-color="#656566"/></linearGradient></defs></svg>