<!-- by TradingView --><svg width="18" height="18" viewBox="0 0 18 18" xmlns="http://www.w3.org/2000/svg"><path fill="#5F6B34" d="M0 0h18v18H0z"/><path d="M9.7 3.04a.68.68 0 0 0-.23.14c-.02.01-.02.03-.01.05v.01c.02.02.04.02.05.01l.16-.08c.02 0 .04 0 .04.02l.09.25a.04.04 0 0 1-.04.05l-.13-.02c-.03 0-.04 0-.03.03.05.2.09.56.07.62-.23 1.02.19.2-.5.3l-.1-.22c-.07-.19-.24-.22-.34-.36a.82.82 0 0 1-.15-.37c.02.04.04.05.07.05a.04.04 0 0 0 .04-.05v-.46c.34-.02.68 0 1.01.03Z" fill="#B09B7C"/><path d="m8.7 3-.01.47a.04.04 0 0 1-.04.05c-.03 0-.05-.01-.07-.05l-.05-.13a.04.04 0 0 0-.07 0 .5.5 0 0 1-.14.14.06.06 0 0 0 0 .1c.07.07.1.15.06.26 0 .02-.02.03-.03.04a.42.42 0 0 1-.22.03.05.05 0 0 1-.05-.06l.02-.52.06-.14.04-.04a.36.36 0 0 0 .12-.11c.12-.02.25-.03.37-.03Z" fill="#D9C881"/><path d="M8.32 3.04a.36.36 0 0 1-.12.1.08.08 0 0 0-.04.05l-.05.13-.03.53a.05.05 0 0 0 .05.06c.06.01.14 0 .22-.03.01 0 .03-.02.03-.04.04-.1.01-.2-.06-.26a.06.06 0 0 1 0-.1.5.5 0 0 0 .14-.15.04.04 0 0 1 .07 0l.05.14c.02.14.07.26.15.37.1.14.27.17.35.36 0 .02.02.03.04.03l.21-.03a.04.04 0 0 0 .04-.03l.03-.1c.02-.03.04-.05.09-.04h.05c.02.01.03.03.03.05l-.07.37c0 .02-.01.03-.03.03h-.12l-.18.04a.06.06 0 0 0-.05.03c-.12.26-.67-.63-1.2-.41l-.4-.5a.66.66 0 0 0-.33-.24c-.06-.02-.07 0-.03.04l.1.12a.02.02 0 0 1-.02.04H7.2l-.03-.01-.16-.25c.42-.15.86-.25 1.3-.3Z" fill="#B88C26"/><path d="M9.7 3.04c.22.03.43.06.64.11-.23.23.06 2.58 1.15 2.18a.03.03 0 0 1 .04.03l-.1.63c0 .17-.03.33-.12.45a.92.92 0 0 1-.24.2l-.26.2a.42.42 0 0 0-.18-.25.05.05 0 0 1-.02-.06.2.2 0 0 1 .05-.08V6.4l-.22-.14c-.16-.11-.29-.27-.45-.39-.17-.2-.36-.39-.58-.54a.1.1 0 0 1-.03-.04.78.78 0 0 0-.24-.33L9.1 4.7c0-.06 0-.1.02-.15l.05-.03c.64-.12.48-.5.34-1.27h-.04l-.01-.02v-.05c.07-.06.15-.1.24-.14Z" fill="#9C8A5F"/><path d="m10.34 3.15.32.08c-.07.22-.08.4-.04.53a2.15 2.15 0 0 1 .11.71.04.04 0 0 0 .04.02h.02c.07-.05.17-.1.3-.15.72-.3.35-.41.54-.73.3.14.59.31.86.5-.1.2-.6.4.09.32a.06.06 0 0 1 .07.05v.03a.6.6 0 0 0-.01.29c-.13.02-.1.15-.24.1-.56 1.04-1.1 1.2-1.15 1.23-.19.08-.34.17-.55.06-.03-.01-.05 0-.07.02l-.09.03c-.01 0-.03 0-.03-.03-.22-.68.28-.84-.26-1.14-.04-.02-.08.02-.12.12l-.3-.54c-.1-.18-.14-.39-.15-.6 0-.07.01-.07.04-.01a5 5 0 0 0 .26.57c.06.12.27-1.36.36-1.46Z" fill="#81755A"/><path d="M11.63 3.6c-.14.24 0 .51-.54.74a3.08 3.08 0 0 0-.32.15.04.04 0 0 1-.04-.02v-.02c0-.23-.04-.46-.11-.7-.04-.12-.03-.3.04-.52.33.1.66.23.97.38Z" fill="#948223"/><path d="m7.02 3.34.16.25c0 .01.02.02.03.01h.03a.02.02 0 0 0 .01-.04l-.1-.12c-.03-.05-.02-.06.04-.04.13.04.24.12.33.24l.4.5-.18.17c.07-.08.08-.14.05-.18a.92.92 0 0 0-.11-.1c-.03-.02-.04 0-.03.02l.02.08c0 .02 0 .04-.02.06a.39.39 0 0 0-.14.18.04.04 0 0 1-.05.03.35.35 0 0 0-.3 0c-.03 0-.04 0-.04-.03V4c0-.02 0-.04-.02-.05L7 3.91a.08.08 0 0 1 0-.14.19.19 0 0 0 .08-.07v-.06a1.1 1.1 0 0 1-.03-.2c0-.02-.01-.03-.03-.05a.28.28 0 0 0-.04-.04l.03-.01Z" fill="#836E1B"/><path d="m6.99 3.35.04.04c.02.02.03.03.03.05.13 1.82.23.15.68.62.04.04.07.17 0 .25-.03 0-.04.02-.04.05l.01.03.02.02c.03.02.03.03 0 .04-.15.02-.04.26-.1.27-.39.06-.45.8-.42 1.16l.06.34-.22.2a.47.47 0 0 1-.25.12.81.81 0 0 1-.4-.01c-.05-.06-.11-.75.01-.58.3-.13.47-.3-.06-.42-.02 0-.03 0-.03-.03 0-.9.51.14-.09-.95a6.53 6.53 0 0 1-.3-.7c.17-.1.93-.46 1.06-.5Z" fill="#2F2C1C"/><path d="M6.65 3.48c-.02.24-.01.47.03.68.03.15 0 .21-.04.33 0 .02-.02.03-.04.03s-.03 0-.04-.02a.05.05 0 0 1-.01-.03.4.4 0 0 0-.03-.2c-.05-.13-.03-.22-.03-.4 0-.02 0-.04-.02-.05a.4.4 0 0 1-.06-.23l.24-.11Z" fill="#836E1B"/><path d="m9.1 4.7.04.26c-.32-.17-.6-.14-.84.07-.06.06-.1.14-.16.21-.2.19-.21.46-.42.56a.07.07 0 0 0-.03.04.59.59 0 0 1-.42.38l-.06-.34c.1-.04.2-.06.29-.07a.04.04 0 0 0 .02-.06c-.18-.22 0-.18.26-.24.02 0 .02-.01.01-.02-.42-.41-.09-.28-.04-.87 0-.12.1-.18 0-.31l.16-.17.19-.08a.07.07 0 0 1 .05 0l.76.27c.02 0 .02.02.02.04-.03.07-.12.19.02.16l.1-.03c.02 0 .03 0 .04.03v.17Z" fill="#DEAC2D"/><path d="M6.3 5.9c-.06.38-.25.4-.41.4-.06-.28-.3-.03-.42.23-.1.2-.39-1.18-1.11-.6-.09.07-.13-.07-.15-.12-.01-.05 0-.08.04-.1.07-.06.54-.5.21-.4l-.12.07a.33.33 0 0 1-.17.06l.23-.29c.36-.07 1.5 1.22 1.08-.7a.06.06 0 0 0-.03-.04l-.06-.04c-.03-.02-.03-.04 0-.05l.1-.06c.02-.02.04 0 .04.02.02.18.1.33.24.45a.05.05 0 0 1 .02.04v.09c0 .02 0 .03.02.04.2.1.2.3.1.49-.01.02 0 .02.01.02l.32-.05c.04 0 .05 0 .04.05a.99.99 0 0 0 .01.48ZM7.74 4.3c.1.14.21.17.2.29-.04.6-.35.35-.15.9v.02l-.33.08a.04.04 0 0 0-.02.06l.08.1a.04.04 0 0 1-.02.06c-.1 0-.2.03-.29.07l-.08-1.06a.07.07 0 0 1 .04-.06h.03c.05 0 .1-.02.15-.05v-.02c-.05-.06-.07-.1-.05-.14.02-.03.05-.05.1-.06l.32-.04c.04 0 .04-.02.01-.04l-.02-.02-.01-.03c0-.03.01-.05.04-.05Z" fill="#948223"/><path d="m13.11 4.63.13.12c.05.22.11.44.18.65.04.13.11.28.22.45.18.3.22.7.29 1.13 0 .04-.01.05-.05.03l-.17-.06a.1.1 0 0 1-.07-.09l-.03-.31-.17-.54a8.21 8.21 0 0 1-.22-.38c-.04-.07-.03-.12.02-.15.02-.01.03-.03.02-.04-.04-.11-.12-.17-.14-.29a1.86 1.86 0 0 1 0-.52Z" fill="#2F2C1C"/><path d="M12.64 4.8c.08.03.14.08.18.15 0 .02 0 .03-.02.04l-.1.05a.05.05 0 0 0-.02.05c.01.27.04.98-.42 1.35-.03.04-.08.06-.12.05a.08.08 0 0 1-.07-.1l.05-.24a.03.03 0 0 0-.02-.03l-.08-.07-.01-.02V6c.23-.61.04-.88.06-.88l.16-.08c.02-.01.02-.03.02-.04v-.25c.13.05.26.07.39.05Z" fill="#C4AC2A"/><path d="M12 6v.03l.02.02.08.07.01.01v.02l-.04.25a.08.08 0 0 0 .07.09c.04 0 .09-.01.12-.05l-.1.08a.05.05 0 0 1-.04 0 .28.28 0 0 1-.16-.12c0-.03-.03-.03-.05-.01-.2.13-.35.25-.47.36-.12.1-.1.15.06.14l.27-.01.1.25c0 .02 0 .04-.03.04-.24.06-.41.06-.62.23a.06.06 0 0 0-.02.05l.02.43a1 1 0 0 1-.08-.25.8.8 0 0 0-.08-.24.58.58 0 0 1-.08-.21c-.02-.12-.1-.24-.17-.34l.26-.2c.12-.07.2-.14.24-.2a.74.74 0 0 0 .12-.45.6.6 0 0 0 .22-.3c.24-.87.86-1 .36.31Z" fill="#798535"/><path d="M9.14 4.96c.1.09.18.2.24.33l.03.04c.22.15.41.33.58.54-.05 0-.1.04-.12.1l-.07-.1C8.14 7.3 6.31 8.63 6.36 10.07c0 .06 0 .09-.05.08a.28.28 0 0 1-.17-.17l-.07-.17c-.14-.23-.31-.56-.47-.64a.65.65 0 0 1-.27-.25.5.5 0 0 1-.04-.18.48.48 0 0 0-.07-.2 1.21 1.21 0 0 0-.17-.4c-.04-.06-.03-.1-.01-.17V7.9l-.06-.03c.03-.38.15-.73.36-1.03a.73.73 0 0 1 .32-.2c.1-.03.35-.07.74-.12.1.03.24.04.4 0 .1-.01.2-.05.25-.11l.22-.2c.2-.06.34-.19.41-.38l.04-.04c.2-.1.23-.37.42-.56.06-.07.1-.15.16-.2.24-.22.52-.25.84-.08Z" fill="#F7C284"/><path d="M9.12 5.14c.09.24.22.44.4.61.02.01.02.03.01.05a.18.18 0 0 1-.06.07.04.04 0 0 1-.04.01c-.3-.13-.65-.2-1.03-.22a.05.05 0 0 1-.05-.03l-.11-.28c.1-.2.23-.32.4-.37.2-.04.35.01.48.16Z" fill="#3C2422"/><path d="m9.8 5.88-.05.29a.08.08 0 0 0 .02.06c.12.15.24.29.37.41.13.14.23.28.32.42.2.34.36.63.46.85a25.28 25.28 0 0 1 .17 1.12v.1a5.7 5.7 0 0 0-.17-.63.28.28 0 0 0-.11-.16c-.06-.03-.13-.04-.2 0a.06.06 0 0 0-.05.03c-.14.33-.18.66.15.88l.29.2c.01.02.02.03.01.05 0 .03-.02.03-.04.03-.2-.06-.35-.14-.48-.25-.1-.09-.2-.27-.3-.4h-.03c-.18-.01-.36-.05-.53-.12a.04.04 0 0 1-.02-.04l.02-.22c0-.02 0-.03-.02-.04a.36.36 0 0 0-.17-.02l.1-.04a.1.1 0 0 1 .11.03l.02.04.05.2.02.04c.15.08.31.13.48.15.02 0 .03 0 .05-.02.12-.07.14-.16.06-.26l.09-.32-.01-.05a.76.76 0 0 0-.54-.29 3.43 3.43 0 0 0-.74-.03v-.01l-.16-.34.01-.03c.23-.06.45-.16.65-.3.02-.01.02-.02 0-.04-.1-.13-.22-.25-.35-.37-.52-.46-1.34-.23-1.86.08-.23.13-.28.3-.37.52a.53.53 0 0 1-.39.34.06.06 0 0 1-.06-.03 2.16 2.16 0 0 0-.58-.61.57.57 0 0 0-.42-.13.34.34 0 0 0-.17.08c-.06.04-.1.09-.15.14.06-.21.2-.38.43-.34l.17.03c.08 0 .14.01.18.03l.42.06a.05.05 0 0 1 .04.07c-.2.32.2.46.43.5a.03.03 0 0 0 .03-.01.03.03 0 0 0 0-.03l-.04-.19v-.04c.06-.09.1-.18.12-.26a.2.2 0 0 1 .08-.12l.18-.14c.17-.11.27-.3.46-.4l.26-.1a.07.07 0 0 0 .06-.07l-.01-.03a.64.64 0 0 1-.04-.47l.19-.33.11.28c.01.02.03.03.05.03a3.12 3.12 0 0 1 1.05.22h.02a.18.18 0 0 0 .06-.08v-.05a1.5 1.5 0 0 1-.4-.6l.18.24c.06.08.12.15.2.22l.3.27Z" fill="#8E5743"/><path d="M5.18 6.7a.04.04 0 0 1 .02.03.04.04 0 0 1-.01.04.4.4 0 0 1-.25.08l-.42-.06c-.13-.01-.54.2-.7.24l-.02.03v.01c0 .02.01.04.03.05.44.21.93.3 1.13.76-.2.24-.51.58.21.83.02 0 .03 0 .03-.02l.02-.15c.04.06.06.12.07.19a.5.5 0 0 0 .04.18c.07.1.16.19.27.25.25.13.45.54.54.8.02.09.08.14.17.18l.02.08a.13.13 0 0 1-.05.04.19.19 0 0 1-.07.02c-1.35.04.4.18-2.15-.88a.5.5 0 0 0-.18-.04c-.04 0-.1 0-.18-.02L3 9.2c0-.24 0-.49.02-.74.18-.15.24-.34.19-.54C3.2 7.89 3 7.24 4.46 5.3c.22-.07.29 1.12.72 1.4Z" fill="#7D6431"/><path d="M3.02 8.46a6 6 0 0 1 1.15-3.02c.07-.01.12-.03.17-.06.05-.02.08-.01.1.02v.04l-.25.28a.06.06 0 0 0-.01.05c0 .13.04.21.18.25l.16.07c.52.25-1.03 1.69-1.25 1.73a.08.08 0 0 0-.06.07v.03c.05.2 0 .39-.19.54Z" fill="#574E15"/><path d="M6.3 5.9c0 .06.03.12.07.2.11.03.19.09.23.17.03.07 0 .08-.05.06-.26-.1-.2-.15-.42.1l-.03.02-.18.04a.08.08 0 0 1-.1-.08 2.3 2.3 0 0 1 .28-.97.03.03 0 0 1 .04.02l.15.43Z" fill="#B88C26"/><path d="M8.05 5.68a.64.64 0 0 0 .04.47.07.07 0 0 1-.02.09l-.03.01-.26.1c-.19.1-.29.29-.46.4l-.18.14a.2.2 0 0 0-.08.12.73.73 0 0 1-.11.26l-.01.04.04.2a.03.03 0 0 1 0 .02.03.03 0 0 1-.03 0c-.22-.03-.63-.17-.43-.5a.05.05 0 0 0-.04-.06l-.42-.06c.14-.02.25-.04.34-.07.16-.05.28.04.43.04.02 0 .04 0 .05-.02.05-.06.13-.1.2-.16.1-.12.2-.21.28-.26.1-.07.15-.18.23-.28.06-.08.16-.11.23-.17.1-.08.14-.2.23-.31Z" fill="#B16646"/><path d="M5.89 6.3c-.04.01-.06.05-.07.11a.08.08 0 0 0 .1.08l.18-.04c.01 0 .02 0 .03-.02.04-.05.1-.1.15-.12.01 0 .03-.02.03-.04v-.05c.01-.02.03-.03.05-.01a.1.1 0 0 1 .03.04h-.02c-.02 0-.03 0-.03.03-.01.1.01.19.06.25-.4.05-.64.1-.74.12-.1.02-.21.09-.32.2h-.4a.4.4 0 0 0 .25-.08.04.04 0 0 0 .01-.03.04.04 0 0 0-.02-.03c-.23-.15-.01-.4.12-.56.02-.02.02-.03 0-.04a.58.58 0 0 0-.24-.1c.09-.1.18-.14.28-.14a.1.1 0 0 1 .1.07.1.1 0 0 1 0 .04l-.01.27c0 .19.05.2.13.03.03-.05.09-.12.19-.2.01-.02.02-.01.04 0 .05.07.08.14.1.22Z" fill="#797C54"/><path d="M9.99 5.87c.16.12.29.28.45.39a4 4 0 0 1 .23.17l-.01.02a.2.2 0 0 0-.05.08.05.05 0 0 0 .02.06c1.4.93.74 3.4.9 4.32l.08.04c.45.08.88.04.1.19a.08.08 0 0 0-.06.03.08.08 0 0 0-.01.06l.07.32c.03.16.03.31 0 .46l-.07-.17c-.07-.25-.14-.45-.07-.66l-.01-.03-.15-.13a.14.14 0 0 1-.04-.05c-.07-.17-.15-.31-.31-.41a.05.05 0 0 1-.03-.04c-.02-.24.08-.4.11-.62l.02-.05a7.67 7.67 0 0 0-.63-3.06.74.74 0 0 1-.08-.27.06.06 0 0 0-.02-.04l-.56-.5c.03-.07.07-.1.12-.1Z" fill="#FCD59E"/><path d="m9.87 5.98.56.5.02.04c.02.12.05.21.08.27.05.08.06.18.11.26.07.1.12.2.18.32.1.17.12.37.2.58.03.09.05.2.05.33a29.66 29.66 0 0 0 .02.75 25.5 25.5 0 0 0-.17-1.12c-.1-.22-.26-.5-.46-.85-.09-.14-.2-.28-.33-.42a6.42 6.42 0 0 1-.38-.44v-.03l.05-.3.07.1Z" fill="#D7895E"/><path d="m9.13 7.88-.15-.15a4.17 4.17 0 0 1-.2-.43 1.1 1.1 0 0 0-.15-.3c-.27-.28-.78-.09-1.01.14-.3.28-.6 1.22-1.04 1.07-.21-.07-.3-.54-.34-.72a.06.06 0 0 0-.03-.05 1 1 0 0 1-.24-.22c-.16-.2-.42-.22-.58-.01a.62.62 0 0 0-.09.47.18.18 0 0 0-.08-.03.9.9 0 0 1 .06-.46l.15-.14a.34.34 0 0 1 .17-.08c.15-.02.3.03.42.13.26.2.45.4.58.61a.06.06 0 0 0 .06.03c.2-.06.3-.15.39-.34.09-.22.14-.39.37-.52.52-.31 1.34-.54 1.86-.08.13.12.25.24.36.37v.04c-.21.14-.43.24-.66.3-.01 0-.02.01-.01.03l.16.34Z" fill="#643B2E"/><path d="M8.98 7.73c-.42.36.3 1.84.18 1.84 1.21.71.61.83-.28 2.22a.95.95 0 0 1-.25.23c-.03.02.95.48.97.48.11 0 .22-.01.31-.06.37-.16.85-.23.96.26.02.1-.06.32.09.42.2.13.33.23.37.3.19.27.33.58.44.9a6 6 0 0 1-2.39.67c-.5-.52-.56-.7-1.24-.05-.61-.1-1.2-.27-1.75-.54.02-.2.07-.36.15-.44.14-.17.24-.28.27-.35.09-.18.18-.47.26-.87.02-.08.01-.27-.02-.6 0-.02.01-.02.03-.02.14.02.48.04.58-.1a.07.07 0 0 0 0-.09c-.36-.36-.7-.72-.82-1.24a.39.39 0 0 0-.1-.2.96.96 0 0 0-.17-.13l-.03-.02a.29.29 0 0 0-.1-.1.44.44 0 0 1-.08-.18c0-.11-.02-.18-.04-.21a4.07 4.07 0 0 1-.38-.57 17.1 17.1 0 0 1-.2-.51 2.6 2.6 0 0 0-.18-.38 2.39 2.39 0 0 1-.26-.71c-.03-.2 0-.35.1-.47.15-.21.4-.2.57.01a1 1 0 0 0 .24.22c.02.01.03.03.03.05.03.18.13.65.34.72.45.15.75-.79 1.04-1.07.23-.23.74-.42 1-.13.05.05.1.14.16.3l.2.42Z" fill="#4B312B"/><path d="M4.94 6.85h.4c-.2.3-.33.65-.36 1.03h-.02l-.16-.14-.05-.01c-.3.06-.6.18-.9.2a.02.02 0 0 1-.03-.02v-.02c0-.02 0-.03.02-.03.22-.08.43-.2.61-.34a.04.04 0 0 0 .02-.04.08.08 0 0 0-.03-.04.06.06 0 0 0-.05-.02c-.08.02-.13.01-.16-.01a1.49 1.49 0 0 0-.4-.3.04.04 0 0 1-.03-.04v-.01l.02-.03c.2-.06.44-.06.65-.22a.07.07 0 0 1 .05-.02l.42.06Z" fill="#878747"/><path d="m8.98 7.73.15.15-.24.01-.18-.02c-.02 0-.03 0-.04.02l-.08.13a.04.04 0 0 1-.07 0c-.2-.3-.51-.56-.73-.8-.01-.01 0-.03.01-.03.54-.2.82.23 1.18.54Z" fill="#2E1F22"/><path d="M5.3 7.68c.05.25.14.5.26.71.09.15.14.28.18.38l.2.51-.34-.25a.08.08 0 0 1-.02-.05l-.09-.36a.12.12 0 0 0-.02-.05 1.1 1.1 0 0 1-.19-.36 1.22 1.22 0 0 1-.04-.28c0-.1 0-.19-.02-.28.02 0 .05 0 .08.03Z" fill="#774F40"/><path d="M4.96 7.88h.02c.03 0 .05.02.05.03v.05c0 .06-.01.11.02.17.09.13.14.26.17.4l-.02.16c0 .01-.01.02-.03.02a.6.6 0 0 1-.5-.3.12.12 0 0 0-.09-.05 11.75 11.75 0 0 0-.87-.01.05.05 0 0 1-.02-.03c0-.01 0-.03.02-.04.3-.2.5-.34.93-.33.01 0 .02 0 .03-.02l.08-.13a.05.05 0 0 1 .08-.02l.13.1Z" fill="#3B3E26"/><path d="M10.33 8.58A.8.8 0 0 0 9.69 8a.03.03 0 0 0-.02.01v.06h.03c.02.01.03.03.02.05 0 .02-.03.03-.07.03a.06.06 0 0 0-.04.03c-.02.05 0 .1.05.15.06.06.1.13.15.17.1.1.2.18.26.27a.15.15 0 0 0 .17.05c.02 0 .03-.02.05-.03.05-.05.06-.12.04-.21.08.1.06.19-.06.26a.08.08 0 0 1-.05.02 1.46 1.46 0 0 1-.48-.15.05.05 0 0 1-.02-.03l-.05-.2a.1.1 0 0 0-.1-.09.1.1 0 0 0-.04.01l-.09.04-.02-.01-.12-.12a.35.35 0 0 0-.07-.13.04.04 0 0 0-.04-.01c-.24.08-.47.2-.67.33-.04.03-.05.02-.04-.03.06-.3.26-.49.58-.55a.56.56 0 0 0-.31.23.06.06 0 0 0 0 .05c0 .03.02.04.04.04l.06-.01.17-.13a.35.35 0 0 1 .2-.06c.12 0 .21 0 .27.04l.04-.01.01-.02v-.04c-.13-.11-.33-.09-.48-.09a.15.15 0 0 1 .07-.03c.17-.02.42 0 .74.03.24.03.42.13.54.3v.04l-.08.32Z" fill="#B48168"/><path d="M9.13 7.89a.15.15 0 0 0-.07.03c-.32.06-.52.25-.58.55-.01.05 0 .06.04.03.2-.14.43-.25.67-.33l.04.01c.03.03.05.08.07.13l.01.17v.03l-.03.02h-.02c-.02 0-.04 0-.04-.03l-.04-.16a.07.07 0 0 0-.03-.04.07.07 0 0 0-.05-.01h-.07C9 8.3 9 8.33 9 8.37l.05.1c.01.02 0 .04-.01.05-.03.02-.08-.02-.16-.1-.04-.05-.06-.05-.08.01l-.02.07c-.02.06 0 .1.05.13l.15.09c.02 0 .02.02.03.03l.06.11c0 .02.02.03.04.02.2-.07.48-.19.3-.44h.03c.06 0 .12.01.17.03.02.01.03.02.02.04l-.02.22a.04.04 0 0 0 .02.04c.17.07.35.1.53.12-.17 0-.35 0-.53-.02-.09 0-.11.03-.17.09-.16.17-.28.31-.36.44a.06.06 0 0 1-.05.03c-.28.02-.43.03-.63-.05h-.06l-.03.02c-.03 0-.04 0-.04-.02v-.2c-.09-.33-.44-.22-.66-.15a.5.5 0 0 1 .28-.33.69.69 0 0 0 .38-.2.9.9 0 0 0 .34-.48.06.06 0 0 1 .03-.03l.23-.09h.24Z" fill="#774F40"/><path d="M9.06 7.92c.15 0 .35-.02.47.09l.02.02-.01.02v.02c-.02.01-.03.02-.05 0a.66.66 0 0 0-.27-.03.35.35 0 0 0-.2.06l-.17.13a.07.07 0 0 1-.06.01c-.02 0-.04-.01-.05-.04a.06.06 0 0 1 0-.05.56.56 0 0 1 .32-.23ZM10.33 8.58c.02.1.01.16-.04.2a.15.15 0 0 1-.17.03.15.15 0 0 1-.05-.04 2.16 2.16 0 0 0-.26-.27c-.06-.04-.09-.11-.15-.17-.04-.04-.07-.1-.05-.15a.06.06 0 0 1 .04-.03c.04 0 .06-.01.07-.03 0-.02 0-.04-.02-.05h-.02c-.01 0-.02-.01-.02-.03v-.02A.03.03 0 0 1 9.67 8a.03.03 0 0 1 .03 0 .8.8 0 0 1 .63.58Z" fill="#E8AF85"/><path d="m9.3 8.3.12.13c.17.25-.11.37-.31.44-.02 0-.03 0-.04-.02L9 8.74A.06.06 0 0 0 9 8.7l-.16-.09c-.05-.03-.07-.07-.05-.13l.02-.07c.02-.06.04-.06.08-.02.08.1.13.13.16.1.02 0 .02-.02.01-.04L9 8.36c-.01-.04 0-.06.03-.06l.07-.01.05.01.03.04.04.16c0 .03.02.04.04.03h.02l.03-.02v-.03l-.01-.17Z" fill="#5B3E36"/><path d="M11.08 9.13c-.02.26-.03.52-.02.8 0 .21-.07.37-.12.57-.03.1-.04.24-.03.44.05 1.1-.04 1.43.93 2.16a.1.1 0 0 1 .04.07l.06 1.06-.17.1c-.1-.33-.25-.64-.44-.92a1.5 1.5 0 0 0-.37-.3c-.15-.1-.07-.31-.1-.41-.1-.49-.58-.42-.95-.26l.14-.22c.46-.31-3.34.49.86-1.93a.53.53 0 0 0-.17-.49c-.8-.77-1.63-.35-.55-.91.1.12.2.3.3.4.13.1.29.18.48.24.02 0 .04 0 .04-.03L11 9.45a9.73 9.73 0 0 0-.29-.2c-.33-.22-.29-.55-.15-.88l.04-.04c.08-.03.15-.02.2.01.06.04.1.09.12.16.06.2.12.41.16.63Z" fill="#774F40"/><path d="M8.29 8.48a.69.69 0 0 1-.38.21h-.1c-.01 0-.02-.02-.01-.04.03-.12.09-.22.18-.3a.06.06 0 0 1 .05-.02c.1.01.19.06.26.15Z" fill="#2E1F22"/><path d="M14.62 9.73c.01.05-.01.1-.07.13l-.26-.01a.06.06 0 0 1-.06-.05c-.15-.66-.59-.42-.74-.88-.01-.02 0-.03.02-.03.2 0 .53-.05.92-.1a.05.05 0 0 1 .06.07.6.6 0 0 1-.12.21.05.05 0 0 0 0 .06l.02.01c0 .02.02.02.04.01l.38-.18h.05c.02.01.06.04.1.1.03.01.04.04.04.06l-.01.05c0 .02-.02.02-.03.02l-.22-.09-.02.01-.25.43a.05.05 0 0 0 0 .05c.04.06.1.1.15.13Z" fill="#2F2C1C"/><path d="M13.47 9.23c0 .1 0 .17.02.24.02.1 0 .12-.08.04-.02-.01-.05 0-.09.01-.02.02-.03.04-.02.06.05.12.02.2-.08.22-.07.03-.13 0-.17-.07a1 1 0 0 0-.25-.3.35.35 0 0 1-.24-.12.02.02 0 0 1 0-.03c.14-.05.23-.1.35-.22a1.1 1.1 0 0 1 .37-.24.05.05 0 0 1 .04.03l.15.38Z" fill="#2C391E"/><path d="M10.16 8.88h.03c-.1.12-.2.2-.35.26-.01 0 .57.34.9.66.14.13.2.3.17.49-.08.53-.15.92-.2 1.17 0 .02-.02.03-.04.02-.02 0-.03 0-.03.02-.01.02-.02.02-.02.01l-.07-.08a.13.13 0 0 0-.06-.04c-.66-.28-1.74 1-1.53 1.04l.34.07c-.17 0-.33.02-.46.06l-.02.01c-.58-.31-.12-.5.06-.78 1.33-2.06.68-.52.17-.71-.02-.01-.03-.02-.02-.04.06-.48.32-.6.67-.85.02-.02.02-.03.01-.05a1.48 1.48 0 0 0-.55-.57c-.03-.07-.09-.08-.17-.03-.23.07-.5.11-.82.14-.22.02-.29.15-.36.36-.08.24-.2.46-.36.66l-.05.03-.03-.01a.04.04 0 0 1-.02-.05c.04-.24.04-.46 0-.67a.58.58 0 0 1 0-.3c.05-.13.1-.23.17-.3.1-.13.36-.24.53-.33a.03.03 0 0 0 .01-.02v-.03L8.03 9l-.4.02c.22-.07.57-.18.65.14l.01.2c0 .03.01.04.04.03l.03-.02h.06c.2.08.35.07.63.05.02 0 .04-.01.05-.03.08-.13.2-.27.36-.44.06-.06.08-.1.17-.09.18.02.36.03.53.02Z" fill="#5B3E36"/><path d="M12.54 9.6c-.03.02-.04.06-.04.1 0 .03 0 .04-.03.04h-.2c-.01 0-.02 0 0 .02.03.07.02.1-.04.11-.12-.11-.21.01-.33-.06-.1-.06-.28-.26-.44-.19l-.08.02c-.03-.01-.05-.03-.06-.07l-.03-.46v-.12a.04.04 0 0 1 .04-.03h.17c.02 0 .04 0 .05.02.07.13.12.2.14.22.22.2.5.34.85.4Z" fill="#494C39"/><path d="m11.1 9.02.04.58c.01.07.07.16.02.25a.14.14 0 0 0-.02.05c-.03.21-.13.38-.1.62 0 .02 0 .03.02.04.1.06.18.14.25.26v.36c.01.16.1.28.19.41.07.12.08.27.03.45-.04 0-.07 0-.1.02v.3a.16.16 0 0 1-.02-.09c-.53-.33-.48-.78-.5-1.33 0-.2 0-.34.03-.44.05-.2.12-.36.12-.58 0-.27 0-.53.02-.79l.01-.1h.02Z" fill="#9C6E55"/><path d="M13.56 9.23c.18.48.28 1 .8.68a.08.08 0 0 1 .1.02l.16.2a.03.03 0 0 1-.01.05c-.3.15-.29.3-.53.32-.02 0-.03 0-.04-.02a2 2 0 0 0-.5-.35c-.02-.01-.03 0-.04.01l-.11.37a.32.32 0 0 0-.08.1.35.35 0 0 0-.02.11c0 .08-.06.12-.15.12-.05 0-.07-.03-.07-.08l.02-.11c0-.03 0-.03-.02-.02-.1.07-.1.17-.16.26l-.03-.37v-.03c.15-.33.3-.4.45-.67a.06.06 0 0 1 .05-.03c.05 0 .09.02.12.07l.02.02h.03a.06.06 0 0 0 .05-.07l-.13-.58-.01-.06c0-.02.02-.03.04-.02l.06.08Z" fill="#9C8A5F"/><path d="m5.37 9.97-.22-.19-.2.09c-.45-.13-.73-.29-1.17-.47-.26-.1-.53.01-.77.02V9.2a103.88 103.88 0 0 1 .87.16 4.14 4.14 0 0 1 1.4.42c.18.02.28.08.47.09.09 0 .18.03.28.1l.01.01v.03c-.02.03-.05.04-.1.03-.2-.03-.4-.06-.57-.07Z" fill="#B48168"/><path d="m5.37 9.97-.1.27a.07.07 0 0 0-.04.03.67.67 0 0 1-.21.05c-.41.01-.8.03-1.19.06-.02 0-.03.02-.03.05l.01.03c.02.04.05.06.1.05l.12.01c.02.01.02.03.02.05 0 .02 0 .04.02.06a5.16 5.16 0 0 0 .15.02l-.12.01c-.03 0-.03.01 0 .03l.03.03a.73.73 0 0 0-.4-.08c-.01 0-.03 0-.05-.02-.14-.09-.33-.1-.5-.13-.08-.35-.14-.71-.17-1.07.24 0 .5-.12.77-.02.07.03.32.12.77.26.19.07.37.04.56.1l.04.02.22.19Z" fill="#494C39"/><path d="m9.16 9.57-.2.63a.06.06 0 0 1-.1.02c-.27-.32-.3.12-.51.3a3.54 3.54 0 0 1-.41.3v.03c0 .01.01.02.03.02.26 0 .81 0 .97.17.03.04.07.07.12.1a.06.06 0 0 1 .02.08c-.1.12-.22.22-.36.3h-.03l-.02-.01v-.06a3.1 3.1 0 0 0 .2-.3.04.04 0 0 0-.01-.03h-.02c-1.08-.2-1.3.31-.24.06.06-.02.07 0 .04.05-.25.33-.86.12-1.16-.03a1.4 1.4 0 0 1-.62-.72.02.02 0 0 1 .01-.02h.01c.23-.05.32.07.4.27 0 .02.02.04.04.05a.1.1 0 0 0 .06.01l.48-.06c.02 0 .03-.01.04-.03.05-.2.11-.39.17-.56.06-.2.21-.28.43-.35.18-.05.34-.14.5-.25.08-.05.13-.04.16.03Z" fill="#3C2422"/><path d="m12.77 9.9.34.12.02.01c.11.13-.1.34-.23.44a.06.06 0 0 0-.02.05l.03.37c-.06.09-.13.17-.2.24-.02.02-.02.04 0 .06-.03.03-.06.04-.08.04-.02-.05-1.63.77-1.26-1.45v-.05a.43.43 0 0 1-.05-.16c.01.04.03.06.06.07l.08-.02c.16-.07.34.13.44.19.3.17.52.18.87.08ZM5.72 10.3l-.27.04c-.09.01-.14-.02-.22-.07l.03-.03a.6.6 0 0 1 .1-.17.06.06 0 0 1 .04-.02c.14 0 .2.07.18.2 0 .02 0 .04.03.04.03.02.07.02.11.02ZM6.44 10.24l-.13.37a.04.04 0 0 1-.04.02l-.23-.01c-.02 0-.05 0-.07-.02-.02 0-.04-.03-.05-.07a.78.78 0 0 0-.17-.24l.46-.01c.02 0 .04 0 .06-.02.03 0 .04-.02.06-.04l-.02-.08c.04 0 .06-.02.05-.08.01.07.04.13.08.18Z" fill="#B79F64"/><path d="M6.44 10.24c.04.03.08.06.1.1-.03 0-.05 0-.06.02-.04.05-.02.11-.08.17a.09.09 0 0 0-.02.05c0 .06-.03.12-.06.17-.05-.14-.22-.09-.35-.07a7.04 7.04 0 0 1-.87-.09c-.22-.04-.32 0-.29.13l-.6-.07a5.16 5.16 0 0 1-.14-.02c-.02-.02-.03-.04-.02-.06 0-.02 0-.04-.02-.05a.24.24 0 0 0-.13 0c-.04 0-.07-.02-.09-.06v-.03c-.01-.03 0-.04.02-.04.38-.04.78-.06 1.19-.07.06 0 .13-.02.21-.05.08.05.13.08.22.07a4.4 4.4 0 0 0 .3-.05c.07.08.13.16.17.24.01.04.03.06.05.07l.07.02c.08 0 .15.02.23.01h.02l.02-.02.13-.37Z" fill="#D9C881"/><path d="m6.54 10.34.03.02c.27.4.1 1.03.03 1.5-.24.74-.25.14-.52 2.08l-.01.01h-.02c-.02 0-.03 0-.03-.03l-.07-.56c0-.03-.02-.04-.06-.04-.02 0-.03.02-.03.04l.02.77a6.84 6.84 0 0 1-.16-.1c-.02-.2-.04-.4-.04-.6-.02-.45.14-.74.26-1.13l.02-.22c.1-.04.12-.09.1-.14.22-.4.37-.74.26-1.2.03-.04.05-.1.06-.16l.02-.05c.06-.06.04-.12.08-.17a.07.07 0 0 1 .06-.02Z" fill="#E8AF85"/><path d="M6.39 14.4a5.02 5.02 0 0 1-.2-.1l-.02-.65c0-.11.02-.23.06-.32l.25-.68c.1-.27.11-.52.12-.8.07-.46.24-1.09-.03-1.5l.17.14c.05.05.08.12.1.2a2.64 2.64 0 0 0 .83 1.27.07.07 0 0 1-.03.08.88.88 0 0 1-.56.08c-.02 0-.03 0-.03.03.03.32.04.51.02.59-.08.4-.17.7-.26.87-.03.07-.13.18-.27.35-.08.08-.13.23-.15.44Z" fill="#774F40"/><path d="M14.17 11.3a.57.57 0 0 0-.03.03l-.02.02v.02c0 .02.02.03.03.03.07 0 .12.01.15.06-.2-.08-.38.08-.45.09-.43.04-.76-.27-1-.33a.14.14 0 0 1-.08.04c-.03 0-.05-.02-.07-.07v-.06c.08-.07.15-.15.21-.24.07-.1.21-.42.16-.13 0 .05.02.08.07.08.15 0 .2-.36.43-.4.02-.01.03 0 .03.01l-.01.06c-.08.1-.06.13.06.1a.82.82 0 0 1 .21-.03c.06 0 .1.02.12.07.04.08-.11-.04-.11.47l.01.04.04.01c.1 0 .2.05.25.14Z" fill="#643B2E"/><path d="M4.13 10.72c.07.03.12.04.17.04.46-.08.63-.2.8-.16a6.98 6.98 0 0 0 .87.08c.13-.02.3-.07.35.07.11.45-.04.79-.27 1.2-.07-.03-.14-.02-.2.04h-.04c-.49-.43-.32-.16-1.28-.21a.78.78 0 0 1-.2-.07c-.17-.07-.32-.05-.48-.15a.1.1 0 0 0-.05-.02c-.09.01-.17 0-.25-.04l-.16-.36c.32.15.32-.08-.03-.08a6.02 6.02 0 0 1-.17-.57c.16.03.35.04.5.13l.04.02c.14-.01.27.01.4.08Z" fill="#CDD0C9"/><path d="M14.69 10.9c-.07.23-.16.44-.26.65l-.13-.1c-.03-.04-.08-.06-.15-.05-.01 0-.03-.01-.03-.03v-.02s0-.02.02-.02l.03-.02c.38-.48-.46-.43.4-.4h.12Z" fill="#B48168"/><path d="M11.64 11.84a.4.4 0 0 1-.1.2c.04-.18.03-.33-.04-.45-.09-.13-.18-.25-.2-.41a1.84 1.84 0 0 1 0-.36l.07.15c0 .02.02.04.04.05l.15.13v.03c-.06.2.01.41.08.66Z" fill="#E8AF85"/><path d="m14.3 11.46.13.1-.2.4h-.05v-.05c-.25-.2-.75-.2-1.07-.18-.36.02-.69.07-.97-.04-.14-.06-.28-.1-.43-.14l-.07-.32a.08.08 0 0 1 .03-.08l.03-.01.21-.03h.03l.02-.03c.07.03.15.03.25.03-.02.02-.03.03-.02.04a.1.1 0 0 0 .08.05l.36.03c.02 0 .05 0 .07-.04.02.05.04.07.07.07.03 0 .06-.02.08-.04a.17.17 0 0 0 .05-.09c.06-.24.8.24 1 .22.06 0 .2.03.4.1Z" fill="#A6ACA5"/><path d="M3.4 11.14a2.82 2.82 0 0 1-.04-.08c.16-.11.31-.07.45.12a.07.07 0 0 0 .08.03.07.07 0 0 0 .05-.07v-.03c0-.09.04-.1.08-.03l.06.1c0 .02.02.04.05.04h.06c.01.02.02.03.01.04l-.35.04a.1.1 0 0 1-.05-.01.71.71 0 0 0-.2-.03c-.06 0-.13-.05-.2-.12Z" fill="#988A84"/><path d="m5.07 11.72.2.04c.02 0 .02.01.01.02l-.01.03-.02.01-.66.07c-.31-.1-.57-.22-.91-.12a5.68 5.68 0 0 1-.13-.27c.08.04.16.05.25.04a.1.1 0 0 1 .05.02c.16.1.31.08.47.15l.2.07c.1 0 .28-.02.55-.06Z" fill="#5C5C58"/><path d="M14.22 11.95a6 6 0 0 1-.46.7 7.76 7.76 0 0 1-.62-.19 1.2 1.2 0 0 0-.26-.06c-.1-.01-.32-.07-.43-.01h-.04c-.02-.01-.03-.03-.03-.05 0-.03 0-.04-.03-.04-.3-.05-.46-.08-.5-.1a5.92 5.92 0 0 0-.11-.06l-.04-.13c.04-.15.04-.3.01-.46.15.04.3.08.43.14.28.11.61.06.97.04.32-.02.82-.02 1.06.18v.02l.01.02h.04Z" fill="#B4B9B2"/><path d="M10.28 12.07a.68.68 0 0 0-.8-.12.36.36 0 0 0-.17.15.07.07 0 0 0 .02.08l.16.14.03.04c.02.03.03.05.06.06.22.04.3-.1.47-.2l-.13.22c-.1.05-.2.07-.32.06-.02 0-.04 0-.05-.02l-.01-.01a.05.05 0 0 0-.06-.02l-.18.05-.34-.07a.07.07 0 0 1-.05-.02c-.06-.08-.07-.16-.02-.24a.03.03 0 0 0-.02-.05h-.02l-.23.08c-.02 0-.03 0-.04-.02v-.02c-.02-.03 0-.06.02-.07l.16-.06.54-.05a.1.1 0 0 0 .05-.02l.17-.14a.08.08 0 0 1 .05-.02h.15l.02-.02c.06-.07.1-.17.22-.13a8.94 8.94 0 0 0 .59.2c.02 0 .03.02.04.04v.03l-.04.02-.22.03c-.02 0-.03.01-.02.03 0 .04 0 .06-.03.07Z" fill="#988A84"/><path d="M6.05 11.94c.03.05 0 .1-.09.14-.13.03-.24.01-.32-.06a.03.03 0 0 0-.04 0c-.14.09-.27.1-.4.04a.93.93 0 0 0-.22-.08 4.7 4.7 0 0 1-.4-.09l.67-.07.02-.01.01-.03v-.02l-.21-.04.42.03c.02 0 .03.01.02.03l-.03.02a.73.73 0 0 0-.3.08c-.03.02-.03.03-.01.04.05.05.1.08.13.08.08 0 .16-.03.24-.08a.09.09 0 0 1 .06-.02c.08 0 .15.04.21.1l.04-.01c.06-.06.13-.07.2-.05Z" fill="#A6ACA5"/><path d="m4.59 11.9.39.08c.06.02.14.04.22.08.13.06.26.05.4-.04a.03.03 0 0 1 .04 0c.08.07.3.07.42.04-.02.26-.32.28-.29 1.35.01.2-.07.41-.05.61a9.4 9.4 0 0 1-2.04-2.25c.34-.1.6.02.9.12Z" fill="#CDD0C9"/><path d="m11.7 12.01.04.13h-.03a.02.02 0 0 0 0 .03l.09.3c.1.08.22.13.34.16a.5.5 0 0 0 .28.23l.02.02v.02h-.09a.1.1 0 0 1-.06-.02c-.1-.1-.16-.14-.19-.14-.14 0-.17.04-.07.15.02.02.04.09.05.19l.02.04c.05.1.07.18.06.21-.06.17-.03.3-.02.46 0 .1.06.19 0 .32l-.2.12-.06-1.06a.1.1 0 0 0-.04-.07 1.6 1.6 0 0 1-.52-.69c.04 0 .08-.02.12-.05l-.02-.22c0-.04 0-.07.02-.08.02-.02.05-.03.1-.02a.4.4 0 0 0 .1-.2l.06.17Z" fill="#F7C284"/><path d="M6.6 11.85c0 .28-.02.53-.12.8l-.25.68a.93.93 0 0 0-.06.32l.01.65-.3-.17-.02-.77c0-.02.01-.03.03-.04.04 0 .05.01.06.04l.07.56c0 .02.01.03.03.03h.02c.03-.5 0-.92.22-1.42.53-1.29.08.04.31-.68Z" fill="#9C6E55"/><path d="m10.28 12.07-.23.15c-.16.1-.25.24-.47.2-.03 0-.05-.03-.06-.06a.12.12 0 0 0-.03-.04l-.16-.14a.07.07 0 0 1-.02-.08c.04-.07.1-.12.17-.15.3-.14.56-.1.8.12Z" fill="#B4B9B2"/><path d="m11.74 12.14.11.06c.33.18.67.16 1.03.2.07 0 .16.03.26.06l.62.19c-.05.07-.1.14-.17.21-.08-.15-.25-.24-.5-.27-.02 0-.05-.02-.09-.06-.4-.1-.73-.02-1.02-.05h-.18l-.1-.31v-.02h.04Z" fill="#727572"/><path d="m13 12.53-.31.18a.08.08 0 0 1-.05 0l-.5-.08a1.1 1.1 0 0 1-.34-.15h.18c.07 0 .1-.02.11-.07 0-.02.02-.03.04-.03.06 0 .11.01.16.05.02.02.04.02.06.02l.2-.05h.05l.16.1c.08.03.16 0 .24.03Z" fill="#A6ACA5"/><path d="M13 12.53c.04.04.07.06.09.06.25.03.42.12.5.27a5.2 5.2 0 0 1-.08.1c-.5-.12-.34.16-.41.42l-.05.05c-.36.12-.4.12-.44.37-.15.1-.3.21-.47.31.06-.13 0-.21 0-.32-.01-.16-.04-.29.02-.46.01-.03 0-.1-.06-.2a.15.15 0 0 1-.02-.05c-.01-.1-.03-.17-.05-.19-.1-.1-.07-.16.07-.15.03 0 .1.05.2.14a.1.1 0 0 0 .05.03l.08-.01v-.02l-.01-.02a.5.5 0 0 1-.28-.22l.5.07h.05l.31-.18Z" fill="#B4B9B2"/><path d="M9.38 14.99a6 6 0 0 1-1.24-.05.84.84 0 0 0-.1-.47c-.13-.23-.2-.31-.24-.53-.05-.21-.11-.45-.2-.72a1.83 1.83 0 0 1 0-.53c0-.02.01-.03.03-.04a11.49 11.49 0 0 1 .3-.03c.02.01.04.03.05.07.01.02 0 .03-.02.04h-.01l-.03.02c-.08.12-.08.22 0 .32.11.13.29.13.45.15.26.03.39.2.6.46.42.52.12.12.82-.1l.8-.23c.14-.04.26 0 .36.13l.02.05c0 .04.01.06.04.08.02.02.02.03 0 .04-.1.07-.22.1-.35.07-.02 0-.04 0-.04.03v.01l.33.27c.03.03.03.04 0 .03h-.05c-.05.01-.12.1-.18.15a.09.09 0 0 1-.12-.01c-.06-.07-.11-.09-.2-.05a1.7 1.7 0 0 1-.6.12.05.05 0 0 1-.02-.06l.14-.38c.04-.09.01-.11-.07-.07-.22.1-.4.17-.42.45l-.05.78Z" fill="#2E1F22"/><path d="M13.5 12.96c-.12.15-.26.29-.4.42l-.11-.04c-.02 0-.02-.02-.01-.04l.05-.03c.04 0 .06 0 .06-.02a.08.08 0 0 0-.03-.07.08.08 0 0 0-.07-.01.48.48 0 0 1-.26-.03c-.05-.03.45-.27.5-.26l.28.08ZM13.05 13.43l-.07.06-.37.3c-.01-.01-.02-.02-.01-.04l-.01-.04a.06.06 0 0 0-.05-.01c-.03 0-.05.03-.08.04-.03.02-.04 0-.04-.02 0-.04-.01-.27-.1-.16-.05.04-.1.04-.15-.01l-.01-.03c-.12-.37 1 .34.06-.42a.02.02 0 0 1-.01-.02.02.02 0 0 1 .01-.02c.1-.02.18 0 .25.04a.9.9 0 0 0 .13.1c.05.02.1.04.17.05.02 0 .03.02.02.04l-.01.03c-.07.02-.07.04 0 .06.07.04.16.05.27.05Z" fill="#988A84"/><path d="m9.52 7.68.05.03c.02 0 .04 0 .04-.02 0-.04 0-.06-.03-.08a.07.07 0 0 0-.06-.01.17.17 0 0 0-.05.02.63.63 0 0 1-.04.03c-.07.03-.09 0-.06-.06a.16.16 0 0 1 .13-.08c.2-.03.36-.05.48-.05.3 0 .46.14.68.24a.56.56 0 0 1 .25.32.04.04 0 0 1-.03.03l-.07-.01c-.2-.15-.38-.27-.53-.35a1.43 1.43 0 0 1-.16-.12c-.1-.06-.19-.08-.3-.03-.13.06-.21.28-.37.26-.1-.02-.1-.05-.01-.1l.08-.02Z" fill="#5B3E36"/><path d="M9.52 7.68c-.03 0-.05-.03-.05-.06a.17.17 0 0 1 .05-.02h.06c.02.03.03.05.03.09 0 .02-.02.03-.04.02-.01 0-.03 0-.05-.03Z" fill="#988A84"/><path d="M9.47 8.35a.03.03 0 0 1-.04 0l-.02-.03a.5.5 0 0 1-.08-.12c-.01-.04-.02-.07 0-.08.02-.02.05-.01.08.01a.5.5 0 0 1 .1.1l.03.03a.03.03 0 0 1 0 .03l-.07.06Z" fill="#4B312B"/></svg>