<!-- by TradingView --><svg width="18" height="18" viewBox="0 0 18 18" xmlns="http://www.w3.org/2000/svg"><path fill="#FEDE63" d="M0 0h18v18H0z"/><circle cx="9" cy="9" r="6" fill="url(#a)"/><circle cx="9" cy="9" r="4.82" fill="url(#b)"/><path fill-rule="evenodd" d="M9 14A5 5 0 1 0 9 4a5 5 0 0 0 0 10Zm0-.18a4.82 4.82 0 1 0 0-9.64 4.82 4.82 0 0 0 0 9.64Z" fill="url(#c)"/><path d="M11.86 6.37a.42.42 0 0 1-.2-.29.05.05 0 0 0-.03-.04 3.5 3.5 0 0 1-.16-.06c-.22-.09-.4-.27-.63-.32-.2-.05-.4-.1-.6-.12-.02 0-.03-.01-.02-.03v-.07c.13-.14.3-.19.49-.15.16.03.37.07.62.14.04.02.07.04.09.07.04.08.1.14.16.2.03.03.06.08.09.17l.19.5ZM7.87 5.72c-.3-.17-.54-.06-.93.06a.76.76 0 0 0-.24.16c-.17.15-.3.23-.48.36a1.2 1.2 0 0 0-.25.4c.05-.31.13-.57.24-.78l.07-.08c.07-.07.13-.2.2-.23l.37-.17c.12-.05.21-.07.29-.07.14.02.24-.04.39.04.14.08.27.17.4.27.02 0 .02.02 0 .02l-.06.02Z" fill="#F3D78A"/><path d="M10.21 5.44c.01.02.01.04 0 .07 0 .02 0 .03.03.03l.6.12c.23.05.4.23.63.32a3.5 3.5 0 0 0 .19.08v.02c.03.13.1.23.2.29.1.2.18.4.25.61l.1.26a1.6 1.6 0 0 1 .08.26h.04l-.02-.07c-.03-.08-.01-.1.05-.03.04.04.1.1.15.13.15.07.21.19.35.29.1.07.18.26.24.39.03.06.05.16.06.3.01.12.05.28.1.44.06.16.09.27.09.34a.56.56 0 0 1-.07.34h-.09c-.02 0-.03-.03-.03-.07.03-.37-.04-.71-.19-1.01a1.3 1.3 0 0 0-.39-.5c-.26-.19-.5-.41-.7-.67-.11-.16-.2-.4-.34-.57a6.56 6.56 0 0 0-.68-.74.05.05 0 0 0-.05-.01c-.03 0-.05.03-.07.07a.83.83 0 0 0-.26-.18.02.02 0 0 0-.01 0v.03l.2.16.15.2.16.27c.05.08.09.17.11.27l.12.45c0 .19-.04.37-.11.55 0 .02-.02.03-.04.04l-.17.1h-.03l-.34-.04a.11.11 0 0 0-.09.03l-.08.07c-.02.02-.02.03.01.04h.25l.14.1c.15.07.28.16.4.25.07.06.17.1.23.15.14.12.27.27.4.47a3.9 3.9 0 0 1-.23-.16 17 17 0 0 0-1.01-.56c-.25-.12-.6-.24-1.02-.35l.2.01a.03.03 0 0 0 .02-.02v-.03a.03.03 0 0 0 0-.02.03.03 0 0 0-.02-.01 8.36 8.36 0 0 0-.53-.03c-.1 0-.14.02-.1.06H8.9l.01-.03a.04.04 0 0 0-.04-.05l-.55.07-.02.01v.03l.01.02c.2 0 .39-.01.58-.06l-.22.07-1 .2c-.13.03-.26.07-.38.14l-.3.19a1.96 1.96 0 0 0-.9 1.48h-.01l-.01-.02a2.01 2.01 0 0 0 .05-.41c-.02.18-.06.36-.12.54-.02.09-.02.15.02.18-.08.27-.04.47.13.58-.17-.03-.27-.15-.29-.33a.1.1 0 0 1 .01-.06c.04-.08.03-.18.04-.25l.05-.36a1 1 0 0 1 .13-.53c.2-.32.48-.6.83-.83.28-.2.45-.32.75-.37.05-.01.06-.03.02-.07l-.03-.03a.13.13 0 0 0-.14-.04c-.3.1-.58 0-.65-.33-.03-.17-.04-.3-.03-.39.04-.22.07-.45.09-.67l.2-.34c.05-.1.14-.15.22-.22.07-.07.06-.09-.03-.04a.9.9 0 0 0-.34.32c-.15.09-.27.18-.34.26-.26.32-.48.87-.7 1.15-.15.2-.4.4-.55.54-.14.14-.25.35-.32.64a2.42 2.42 0 0 0-.08.87.03.03 0 0 1-.03.02l-.3-.12c-.04-.2-.04-.34 0-.44.06-.1.1-.18.1-.3 0-.3.05-.58.1-.86a.27.27 0 0 1 .1-.16 8.97 8.97 0 0 0 .62-.5c.03-.02.04-.01.03.01a.1.1 0 0 1-.01.04c-.02.03-.01.04.02.02l.03-.02.05-.15.06-.15c.08-.17.15-.35.2-.54.1-.2.19-.34.25-.39.17-.13.31-.21.48-.36.1-.08.18-.14.24-.16.4-.12.62-.23.93-.06l-.02.02a.02.02 0 0 0 .02.02l.45-.05c.08 0 .16 0 .26.04a.98.98 0 0 0 .5.02 2.47 2.47 0 0 1 .96-.04.02.02 0 0 0 0-.02.27.27 0 0 0-.08-.05c-.07-.01-.07-.04-.02-.07l.27-.15Z" fill="#E6B678"/><path d="M13.28 9.63c-.14.13-.3.23-.46.3-.06 0-.09-.06-.07-.17v-.02l-.08-.4-.02-.03a1.29 1.29 0 0 0-.09-.05.21.21 0 0 1-.12-.17c0-.06-.06-.15-.15-.26a.23.23 0 0 1-.06-.12 12.6 12.6 0 0 0-.05-.18h-.06c-.02.01-.03 0-.04-.01-.06-.1-.12-.17-.14-.27-.03-.1-.04-.17-.12-.25a.5.5 0 0 1-.1-.13c-.1-.42-.3-.79-.58-1.11l-.4-.63c.02-.04.04-.06.07-.07l.05.01c.26.25.5.5.68.74.14.17.23.4.35.57.2.26.43.48.69.67.15.1.28.27.4.5.14.3.2.64.18 1 0 .05.01.07.03.08h.1ZM10.41 6.58a.7.7 0 0 0-.27-.16 3.8 3.8 0 0 0-.63-.12l.32.02h.01l.01-.02-.35-.01-.01-.01v-.02l.01-.01.21-.02.48.03a.02.02 0 0 0 .01 0v-.01l.01-.01v-.02c0-.02 0-.03-.03-.03l-.37-.02c.13-.07.24-.1.34-.08.05 0 .09.04.13.1.01.02.03.03.05.02l.03-.03a.06.06 0 0 1 .09 0l.25.22c.1.1.16.2.24.33 0 .02 0 .03-.02.04a.37.37 0 0 0-.1.1h-.05l-.36-.3Z" fill="#BB9564"/><path d="M8.88 6.22c-.15-.02-.31 0-.48.04h-.15c0-.04-.04-.05-.09-.05a1 1 0 0 1-.29-.03c-.02 0-.03-.01 0-.02.1-.05.19-.04.28.03.02.01.03.02.05.01l.38-.05a.55.55 0 0 1 .35.05.01.01 0 0 1-.01.02h-.04ZM9.56 6.16l.02.04h.03c.05 0 .08.01.1.03l-.21.02-.01.01v.02l.36.02v.02h-.02l-.32-.02-.2-.04h.14c.06 0 .06-.02 0-.04a.7.7 0 0 0-.38 0l-.03-.01c.02-.03.04-.05.07-.06.15-.04.3-.04.45 0Z" fill="#96724B"/><path d="m9.81 6.17.37.02c.02 0 .03 0 .03.03v.02a.02.02 0 0 1 0 .02.02.02 0 0 1-.02 0l-.48-.03c-.02-.02-.05-.03-.1-.03h-.03l-.02-.04h.25Z" fill="#806350"/><path d="m8.88 6.22.16-.01h.03l.24.05.2.04c.24.02.45.06.63.12.1.02.19.08.27.16a.4.4 0 0 1 .02.17c0 .02-.01.04-.03.04-.21.05-.43.06-.66.05l-.35-.02a1.3 1.3 0 0 1-.17-.05.47.47 0 0 0-.18-.03l-.3.03c-.28.05-.6.12-.92.2-.1.03-.26.02-.45-.02-.08-.09-.1-.18-.02-.26.12 0 .23.01.35.03.15.02.27.02.36.01a5.3 5.3 0 0 1 .64-.07l.14-.15a.06.06 0 0 0 0-.07l-.01-.02-.12-.09a.1.1 0 0 0-.06-.01L8.3 6.3v-.02c.04 0 .07 0 .11-.03.17-.04.33-.06.48-.04Z" fill="#EBCCA2"/><path d="M8.4 6.26a.26.26 0 0 1-.11.03v.02h.36a.1.1 0 0 1 .06.02l.12.09a.06.06 0 0 1 .02.07l-.01.02-.14.15a5.3 5.3 0 0 0-.64.07c-.1.01-.21 0-.36-.01a3.16 3.16 0 0 0-.35-.03l.16-.23a.1.1 0 0 1 .04-.04l.05-.02.06-.01.43-.08h.02c.04 0 .07-.01.1-.04l.04-.01h.15Z" fill="#F8E5A9"/><path d="m7 6.38-.18.33a.73.73 0 0 0-.08.19l-.06.19c-.09.12-.15.26-.2.4a1.3 1.3 0 0 1-.1.23c-.05.08-.08.16-.1.23-.06.17-.16.27-.25.4-.03.06-.07.18-.1.36-.02.04-.07.09-.16.16a.06.06 0 0 0-.02.04l-.02.3c0 .07-.04.17-.09.3l-.08.3-.06.1a.05.05 0 0 0 0 .04V10c0 .02 0 .03-.02.04a.37.37 0 0 1-.23 0 1.75 1.75 0 0 0-.17-.05.44.44 0 0 1-.16-.07 4.16 4.16 0 0 1-.25-.18l.3.12A.03.03 0 0 0 5 9.83c-.03-.3 0-.57.07-.86.07-.29.18-.5.32-.64.15-.13.4-.35.55-.54.22-.28.44-.83.7-1.15.07-.08.19-.17.34-.26Z" fill="#BB9564"/><path d="M8.03 6.4a.97.97 0 0 1-.6.24c-.01 0-.02 0 0-.01a.97.97 0 0 1 .6-.23Z" fill="#DCB67F"/><path d="M6.94 6.66c-.02.22-.05.45-.09.67-.01.1 0 .22.03.39.07.34.35.42.65.33.05-.02.1 0 .14.04l.03.03c.04.04.03.06-.02.07-.3.05-.47.18-.75.37-.35.24-.63.51-.83.83a1 1 0 0 0-.13.53l-.02-.25-.02-.04-.02-.01c-.02-.02-.03-.02-.03 0-.04.2-.1.38-.17.56-.05.13-.06.3-.03.51 0 .04-.02.12-.07.24-.03-.2-.02-.38.02-.57.02-.06.03-.1.02-.13 0-.13-.02-.21.04-.33l.09-.19c.03-.06.03-.1 0-.14.17-.28.35-.55.55-.82a.5.5 0 0 0 .1-.2c0-.08.03-.15.05-.23 0-.04.04-.1.1-.2a.92.92 0 0 0 .11-.43c0-.16.02-.26.03-.32.05-.25.07-.49.22-.71Z" fill="#BB9564"/><path d="m9.4 6.82.34.02.02.03a.02.02 0 0 1-.03.03.84.84 0 0 0-.44 0c-.07.02-.14 0-.22-.06-.03-.01-.03-.03 0-.04l.02-.02c.03-.01.05 0 .06.02.03.05.11.05.24.02ZM12.82 9.92a.39.39 0 0 1-.25 0 .05.05 0 0 1-.04-.04c-.02-.1-.04-.18-.08-.26a10.25 10.25 0 0 0-.5-.73 1.52 1.52 0 0 1-.4-.7.92.92 0 0 0-.16-.27.47.47 0 0 1-.08-.27c0-.1-.01-.2-.03-.29l-.14-.6c.28.32.47.7.58 1.1 0 .03.04.08.1.14.08.08.1.16.12.25.02.1.09.17.14.27 0 .02.02.02.04.02h.04a.03.03 0 0 1 .03 0l.01.02.03.15c0 .04.02.08.06.12.1.1.14.2.15.26.01.08.05.14.12.17l.09.05.02.03.08.4v.02c-.02.11 0 .17.07.16Z" fill="#96724B"/><path d="M9.79 7.87c-.03 0-.05 0-.08-.02a.06.06 0 0 0-.04-.01c-.13 0-.22-.03-.26-.1-.15-.24-.14-.44.04-.61a.31.31 0 0 1 .25-.08c.16 0 .3.02.39.05.02 0 .03.01.04.03.21.43.07.6-.34.74Z" fill="#BB9564"/><path d="m6.68 7.09-.01.2-.03.2c-.02.26-.02.45-.14.65a.88.88 0 0 0-.1.26c-.05.21-.17.42-.36.63l-.15.28a.1.1 0 0 1-.04.04.18.18 0 0 0-.07.07l-.22.4.08-.31a1.46 1.46 0 0 0 .12-.63l.01-.01c.1-.07.14-.12.15-.16.04-.18.08-.3.12-.35.08-.14.18-.24.23-.4l.1-.24c.05-.07.08-.15.1-.22.06-.15.12-.29.21-.41Z" fill="#96724B"/><path d="M9.42 7.36c-.05.18.02.3.18.4a.02.02 0 0 1 0 .03c-.09 0-.15-.03-.19-.11-.08-.17-.07-.32.02-.46a.3.3 0 0 1 .19-.13l.02.01v.02c-.12.07-.2.15-.22.24Z" fill="#EBCCA2"/><path d="M9.94 7.38c-.12-.01-.14-.08-.07-.19h.04v-.03l-.05-.02v-.02c0-.02.02-.02.04-.01.11.04.22.09.26.2.04.14 0 .26-.1.38a.24.24 0 0 1-.17.1c-.04 0-.04-.01 0-.03.2-.11.25-.28.15-.5a.03.03 0 0 0-.05.02c0 .03-.02.07-.05.1Z" fill="#F8E5A9"/><path d="M8.38 7.1c.17.11.23.23.2.36-.03 0-.05-.02-.05-.05.02-.06 0-.11-.05-.15a.21.21 0 0 0-.1-.1h-.05a.08.08 0 0 0-.04.05v.01h.04c.02 0 .02 0 0 .01l-.06.05c-.08-.05-.18-.02-.29.06-.13.08-.13.2.02.38l.03.02h.02a.01.01 0 0 1 0 .02l-.04.03c-.2-.15-.23-.33-.1-.54.1-.07.23-.1.35-.1.05 0 .1-.02.12-.05Z" fill="#806350"/><path d="m8.48 7.26-.01.04a.3.3 0 0 0-.08.1h-.1a.04.04 0 0 1-.03-.04v-.08l.07-.05c.02-.01.02-.02 0-.02h-.04c0-.02.02-.03.04-.04h.04c.05.02.08.05.1.09Z" fill="#F8E5A9"/><path d="M9.87 7.2c-.07.1-.05.17.07.18h.02c.01 0 .02.02.01.03l-.07.16c0 .02-.02.03-.04.04-.11.05-.2.03-.27-.04a.22.22 0 0 1 .03-.32.4.4 0 0 1 .25-.06Z" fill="#2E1E14"/><path d="M7.9 7.19c.02 0 .03.02.01.06-.13.21-.1.4.1.54.03 0 .06 0 .08.02v.02c0 .01-.02.02-.03.01-.19-.03-.3-.16-.32-.37-.02-.07 0-.14.06-.2a.26.26 0 0 1 .1-.08Z" fill="#F8E5A9"/><path d="M8.27 7.28a.14.14 0 0 0-.01.08c0 .02.02.03.04.04h.09c0 .07-.01.15-.06.24l-.17.04c-.14-.03-.2-.14-.18-.34.11-.08.2-.1.29-.06Z" fill="#2E1E14"/><path d="M8.47 7.3c.01.1.03.14.06.11 0 .03.02.05.05.05.05.2-.02.33-.2.4a.68.68 0 0 1-.26.04.4.4 0 0 1-.36-.2.32.32 0 0 1-.04-.1c-.05-.27-.04-.31.02-.13.02.21.13.34.33.37h.02V7.8a.24.24 0 0 0-.08-.02l.04-.02a.01.01 0 0 0 0-.01v-.01l-.02-.01L8 7.72c-.15-.18-.15-.3-.02-.38-.02.2.04.3.18.34a.17.17 0 0 0 0 .08c0 .02.02.03.05.03h.13c.12.02.2-.03.2-.17a.02.02 0 0 0-.05-.02l-.01.03c-.11.05-.16.05-.15.01.05-.1.07-.17.06-.23a.3.3 0 0 1 .08-.11ZM7.46 11.9c-.08-.06-.17-.06-.25 0-.06 0-.13 0-.2-.03a.02.02 0 0 0-.03 0v.02h-.02l-.62-.13a.19.19 0 0 0 .07-.03c.01-.02 0-.03-.03-.04a.7.7 0 0 1-.15-.07.81.81 0 0 0-.14-.08.87.87 0 0 1-.22-.11 1 1 0 0 0-.13-.1.13.13 0 0 1-.04-.04.6.6 0 0 1-.1-.36c.08.09.12.18.14.27a.07.07 0 0 0 .04.05l.48.21c.02.01.03.02.03.05 0 .02.01.03.03.04.42.05.77.1 1.06.16h.24l.04-.04c.03-.05.07-.08.11-.08.24-.02.5-.05.76-.1.34-.08.65.01.99.02.09 0 .23.03.43.06.41.09.82.06 1.2-.08.18.03.3.03.39 0 .2-.1.42-.17.64-.21.02 0 .04-.01.05-.03.2-.27.26-.58.18-.92l-.11-.51c-.03-.12-.09-.2-.17-.21l-.26-.42-.08-.1c-.14-.2-.27-.35-.4-.47l-.24-.15c-.12-.1-.25-.18-.4-.25.1 0 .18.02.26.1.01.01.03.02.05.01.1 0 .2 0 .3.03.01 0 .02 0 .02-.02a.98.98 0 0 0-.14-.4c-.05-.07-.08-.07-.09.03-.01.11-.09.16-.23.15h-.55c-.03 0-.04-.02-.02-.04l.08-.07a.11.11 0 0 1 .09-.03l.34.05h.03l.17-.1a.09.09 0 0 0 .04-.05c.07-.18.1-.36.1-.55l.1.5c.01.06.04.1.07.15.05.07.1.12.12.2l.07.24c.02.1.06.17.11.22l.18.2c.1.1.18.26.29.39.11.13.2.3.28.45a4.6 4.6 0 0 0 .12.5l.03.23c0 .08 0 .15.02.22.03.17 0 .33-.07.48-.05.12-.18.18-.26.26a.46.46 0 0 1-.2.12c-.1.03-.15.12-.28.15-.15.02-.3.06-.45.1l-.2.04c-.12.01-.2.04-.29.04-.16 0-.35.02-.58.08a.41.41 0 0 1-.17 0 2.79 2.79 0 0 0-1.36-.04 9.33 9.33 0 0 1-.92.09l-.35-.06Z" fill="#BB9564"/><path d="M8.34 7.78c.07-.04.11-.1.14-.15l.01-.03a.02.02 0 0 1 .04.02c0 .14-.07.2-.2.16Z" fill="#F8E5A9"/><path d="M8.48 7.63a.32.32 0 0 1-.14.15.48.48 0 0 1-.13.01c-.03 0-.05-.01-.06-.03l.01-.08.17-.04c-.01.04.04.04.15 0Z" fill="#806350"/><path d="M7.14 8.3c-.17-.04-.22-.01-.16.08l-.27.15-.1.1a.09.09 0 0 1-.04.02h-.02c-.02 0-.03-.02-.03-.04l.08-.33c0-.04.04-.1.1-.2a.22.22 0 0 0 .04-.1v-.1c.02-.09.03-.1.05 0 .06.22.23.32.51.3l.03.01v.02l-.01.03a.41.41 0 0 1-.18.05ZM10.75 8.22l-.14-.1h.31c.14.01.22-.04.23-.15.01-.1.04-.1.1-.02.06.11.1.24.13.4 0 .01 0 .02-.03.01a.77.77 0 0 0-.29-.03l-.05-.01a.32.32 0 0 0-.26-.1Z" fill="#96724B"/><path d="M8.91 7.98H8.9c-.2.04-.39.06-.58.05-.01 0-.02-.01-.01-.02v-.03h.01l.56-.08a.04.04 0 0 1 .04.05l-.01.03ZM9.52 8.02l-.44-.04c-.03-.04 0-.06.1-.06a8.36 8.36 0 0 1 .57.05v.04a.03.03 0 0 1-.04.02h-.2Z" fill="#BB9564"/><path d="M8.91 7.98h.17l.44.04a6.24 6.24 0 0 1 2.27 1.07l.08.1c.08.2.15.42.21.69.07.26.05.5-.06.73-.24.52-.65.67-1.2.74-.03 0-.04 0-.06.02l-.06.06c-.02.02-.03.02-.05.01a.69.69 0 0 0-.3-.08c-.02 0-.03 0-.05.02l-.01.01a.04.04 0 0 1-.06 0l-.15-.1a.07.07 0 0 0-.05 0c-.08.01-.17.08-.27.05l-.11-.04-.29-.03c-.09-.01-.17-.07-.24-.1h-.05c-.07.02-.12.07-.2.08-.15.02-.3.06-.44.1h-.06l-.09-.03a.08.08 0 0 0-.07 0l-.15.09a.08.08 0 0 1-.05 0 .53.53 0 0 0-.32.05l-.03.07H7.6c-.05-.1-.12-.15-.22-.1l-.33-.16a.11.11 0 0 1-.05-.03.41.41 0 0 0-.25-.16.07.07 0 0 1-.04-.03.5.5 0 0 0-.12-.13.07.07 0 0 1-.03-.04.15.15 0 0 0-.08-.11.05.05 0 0 1-.02-.05l.01-.08c0-.02 0-.03-.02-.03l-.09-.01a.05.05 0 0 1-.04-.03.1.1 0 0 0-.05-.06c-.03 0-.04 0-.03.03.04.14.12.24.25.32.02.01.03.02.03.04 0 .07.03.12.09.14.02.01.02.02.02.04v.02c0 .01-.01.02-.02.01a.65.65 0 0 0-.27 0l-.2-.19c-.41-.31-.04-1.52.09-1.4.13-.36.42-.75.77-.95l.3-.19c.12-.07.25-.11.38-.14a68.43 68.43 0 0 1 1.23-.26Z" fill="#F1CB9C"/><path d="M8.26 8.37a28.22 28.22 0 0 1-.55.07V8.4l.01-.01c.55-.23 1.11-.3 1.7-.21.42.06.72.11.9.16.3.1.6.26.9.5.03.04.03.07-.03.08l-.1.02c-.06.01-.1 0-.15-.03a1.5 1.5 0 0 1-.15-.14.3.3 0 0 0-.16-.1.85.85 0 0 1-.27-.1c-.15-.1-.3-.1-.51-.12h-.27a2.6 2.6 0 0 1-1.08-.07.5.5 0 0 0-.24-.01Z" fill="#F8E5A9"/><path d="m7.14 8.3-.16.08c-.06-.1-.01-.12.16-.09Z" fill="#806350"/><path d="m10.14 10.49.01-.24a.48.48 0 0 0 0-.23.3.3 0 0 0-.2-.16c-.05-.02-.12 0-.2.05a.35.35 0 0 0-.11.16 61.31 61.31 0 0 0-.3.77c-.09.07-.19.1-.28.1a.7.7 0 0 1-.39-.1.92.92 0 0 1-.13-.3c-.02-.2-.21-.85-.52-.6-.13.1-.17.24-.11.41v.05l-.04.08c-.38-.23-.54-.57-.47-1.02a.83.83 0 0 1 .39-.6c.16-.1.33-.17.52-.22.45-.11.88-.13 1.28-.06.38.08.66.22.84.43.24.28.29.64.14 1.06a.72.72 0 0 1-.43.42Z" fill="#503E31"/><path d="M9.78 9.2a.1.1 0 0 1-.07.03c-.13 0-.27-.02-.41-.07l-.47-.14c-.11-.03-.12-.07 0-.11.13-.06.27-.13.4-.22a.1.1 0 0 1 .06-.01c.12 0 .28.04.47.11.02 0 .03.02.03.04l.05.24-.01.07a.52.52 0 0 1-.05.06Z" fill="#806350"/><path d="M12.13 9.6c.07.19.1.33.11.42v.63c0 .06-.03.1-.06.14-.19.19-.38.37-.59.54a.88.88 0 0 1-.44.16c-.38.14-.79.17-1.2.08-.2-.03-.34-.06-.43-.06-.34 0-.65-.1-1-.02a4.9 4.9 0 0 1-.75.1c-.04 0-.08.03-.11.08a.07.07 0 0 1-.04.03.58.58 0 0 1-.24 0l.28-.17c0-.04.02-.06.03-.07.1-.04.21-.06.32-.04l.05-.01.15-.09a.08.08 0 0 1 .07 0l.09.04h.06c.15-.05.3-.09.44-.1.08-.02.13-.07.2-.09h.05c.07.03.15.09.24.1a80.63 80.63 0 0 0 .4.07c.1.03.2-.04.27-.05h.05l.15.1.03.01.03-.01.01-.01a.07.07 0 0 1 .05-.02c.1 0 .2.03.3.08h.05l.06-.07a.08.08 0 0 1 .05-.02c.56-.07.97-.22 1.21-.74.1-.23.13-.47.06-.73-.06-.27-.13-.5-.2-.69l.25.42Z" fill="#DCB67F"/><path d="M11.15 11.49c.2-.03.35-.08.44-.16.2-.17.4-.35.58-.54a.22.22 0 0 0 .07-.14v-.63c0-.1-.04-.23-.11-.41.08.02.14.09.17.21l.11.51c.07.34.01.65-.18.92a.07.07 0 0 1-.05.03c-.22.04-.44.1-.64.2-.08.04-.21.04-.4 0Z" fill="#96724B"/><path d="M5.78 9.57c.03.03.03.08 0 .14l-.1.19c-.05.12-.03.2-.03.33 0 .02 0 .07-.02.13-.04.19-.05.38-.02.57-.01.12.02.24.09.36 0 .02.02.03.04.04a1 1 0 0 1 .13.1c.03.03.1.07.22.11l.14.08.15.07c.03.01.04.02.03.04a.19.19 0 0 1-.07.03 2.23 2.23 0 0 0-.23-.1.7.7 0 0 1-.17-.1.8.8 0 0 0-.16-.1.36.36 0 0 1-.16-.17.67.67 0 0 1-.1-.23v-.64c0-.06.02-.11.05-.17a.2.2 0 0 0 .01-.06c0-.22.07-.43.2-.62Z" fill="#DCB67F"/><path d="m5.97 9.92-.05.36c0 .07 0 .17-.04.25a.1.1 0 0 0 0 .06c.01.18.1.3.28.33l.18.19c.07.03.13.05.2.05.04 0 .14.07.29.18.05.05.09.06.17.09l.12.08c.07.06.17.08.28.06h.01a.03.03 0 0 0 0-.04.17.17 0 0 1-.03-.1c.06.05.13.09.22.1h.06l-.28.18c-.29-.06-.64-.11-1.06-.16-.02 0-.03-.02-.03-.04a.05.05 0 0 0-.03-.05l-.48-.2a.07.07 0 0 1-.04-.06.68.68 0 0 0-.13-.27c.05-.12.07-.2.07-.24-.03-.21-.02-.38.03-.5.08-.19.13-.37.17-.56 0-.03.01-.03.03-.01l.02.01.02.04.02.25Z" fill="#96724B"/><path d="m10.14 10.49-.8.35a6.58 6.58 0 0 1 .41-.93c.08-.05.15-.07.2-.05.1.03.16.08.2.16.01.05.02.13 0 .23v.24ZM8.67 10.84c-.3-.1-.56-.21-.8-.36l.03-.08v-.05c-.05-.17-.01-.3.12-.41.3-.25.5.4.52.6 0 .05.05.15.13.3Z" fill="#2E1E14"/><path d="M7.38 11.42c0 .04.01.08.04.11a.03.03 0 0 1 0 .03.03.03 0 0 1-.02.01c-.11.02-.2 0-.28-.06a.82.82 0 0 0-.12-.08c-.08-.03-.12-.04-.17-.09a.95.95 0 0 0-.3-.18.73.73 0 0 1-.19-.05c.1-.02.19-.02.27 0h.02v-.03c0-.02 0-.03-.02-.04-.06-.02-.09-.07-.1-.14a.05.05 0 0 0-.02-.04.53.53 0 0 1-.25-.32c0-.03 0-.04.03-.03a.1.1 0 0 1 .05.06c0 .02.02.03.04.03l.09.01c.02 0 .02.01.02.03v.08c-.01.02 0 .04.01.05.05.02.07.06.08.1 0 .03.01.04.03.05a.5.5 0 0 1 .12.13c.01.02.02.03.04.03.1.02.2.08.25.16.02.01.03.03.05.03l.33.15ZM11.25 11.85a.4.4 0 0 1-.23.33 4.14 4.14 0 0 0-.38.2c-.05 0-.1 0-.14.02-.05.01-.07.04-.05.08a.82.82 0 0 1-.33.1l-.08.01a.22.22 0 0 1-.1.04c-.2 0-.37.03-.58.03-.17 0-.36.01-.58.06a.4.4 0 0 1-.22-.03c-.06-.02-.1-.02-.14 0l-.03.01h-.02c-.08-.08-.18-.03-.28-.05a3.12 3.12 0 0 1-.49-.15.4.4 0 0 1 .35-.15h.45c.02 0 .04.02.05.03.04.03.1.04.16.04.14-.02.24-.06.38-.06h.17c.06 0 .09-.02.1-.06a.07.07 0 0 1 .05-.05.08.08 0 0 1 .07.02c.08.07.16.1.25.07l.19-.05a3.5 3.5 0 0 0 1.2-.31c.05-.03.09-.07.1-.13h.13ZM6.86 11.93l.32.41a1.9 1.9 0 0 1-.53-.4c-.05-.06-.04-.08.04-.07.05 0 .11.03.17.06Z" fill="#DCB67F"/><path d="M11.13 11.85c-.02.06-.06.1-.1.13a3.5 3.5 0 0 1-1.21.31l-.2.05c-.08.02-.16 0-.24-.07a.08.08 0 0 0-.07-.02.07.07 0 0 0-.05.05c-.01.04-.04.06-.1.06h-.17c-.14 0-.24.04-.38.06a.2.2 0 0 1-.16-.04.08.08 0 0 0-.05-.02l-.45-.01a1.37 1.37 0 0 0-.27-.08 1.37 1.37 0 0 1-.76-.33l.4.03c.1 0 .2 0 .29.02.1.02.2.03.3.02.18 0 .38-.01.6-.05a3.9 3.9 0 0 1 1.1-.03l.49.04c.09 0 .19 0 .29-.03l.3-.05c.2 0 .35-.02.44-.04Z" fill="#96724B"/><path d="M6.92 11.94c.21.19.47.3.76.33.05 0 .14.03.27.08a.4.4 0 0 0-.35.15c-.16-.02-.3-.08-.42-.16l-.32-.4h.06Z" fill="#BB9564"/><defs><linearGradient id="a" x1="5.2" y1="4.32" x2="13.04" y2="13.35" gradientUnits="userSpaceOnUse"><stop stop-color="#F1B84F"/><stop offset=".47" stop-color="#FDEDBD"/><stop offset="1" stop-color="#E89228"/></linearGradient><linearGradient id="b" x1="6.42" y1="4.9" x2="11.8" y2="13.02" gradientUnits="userSpaceOnUse"><stop stop-color="#EBAB49"/><stop offset="1" stop-color="#FAD990"/></linearGradient><linearGradient id="c" x1="6.19" y1="5.06" x2="11.4" y2="13.17" gradientUnits="userSpaceOnUse"><stop stop-color="#BE6D2B"/><stop offset="1" stop-color="#F2E8D3"/></linearGradient></defs></svg>