<!-- by TradingView --><svg width="18" height="18" viewBox="0 0 18 18" xmlns="http://www.w3.org/2000/svg"><path fill="#00B387" d="M0 0h18v18H0z"/><circle cx="9" cy="9" r="6" fill="#004D20"/><path d="M10.55 3.2c-1.36 1-3.01.92-4.6.63a6 6 0 0 1 4.6-.63Z" fill="#022716"/><path d="M11.16 3.4c-.09.23-.22.42-.4.56-.34.26-.8.1-1.05.49-.46.1-1.33.15-1.6.57.01.07.04.14.08.2v.13c-.18-.14-.37-.14-.58.01-.16-.03-.26 0-.31.09l-.03.12a.2.2 0 0 1-.03.07c-.03.02-.04.02-.05-.01l-.01-.03c-.03-.08-.07-.1-.15-.1a.33.33 0 0 1-.1.16c-.02.02-.04.02-.07 0a.37.37 0 0 1-.1-.15.06.06 0 0 0-.06-.04c-.03 0-.06.01-.1.04a.1.1 0 0 0-.02.04v.1c.35 1.33.4 1.13.07 2.2-.34.03-.64.14-.92.32l-.13-.13a.05.05 0 0 0-.08.03v.47c-.09 0-.13-.07-.14-.19a9.3 9.3 0 0 0-.2-1.57.12.12 0 0 1 .1-.1c.64-.06 1.16-.23 1-.74-.08-.13-.15-.25-.18-.36-.11-.36-.18-.61-.21-.76-.04-.16-.08-.16-.12 0a11 11 0 0 1-.16.57c-.03.11-.06.11-.06 0l-.02-.59c-.01-.18-.05-.2-.11-.02l-.06.1c-.04.07-.06.06-.07-.01l-.02-.17c.05-.14.06-.29.05-.44.2-.16.42-.3.64-.43 1.58.3 3.23.38 4.59-.63l.61.2Z" fill="#01371E"/><path d="M12.3 3.98c-.07.25-.05.5.03.75l-.01.02-.03.03h-.01l-.24-.61c-.02-.05-.05-.05-.09-.02-.02.02-.03.05-.02.1 0 .01 0 .03-.02.04a.06.06 0 0 1-.04 0 .06.06 0 0 1-.05-.03l-.04-.1a.04.04 0 0 0-.05-.01h-.02l-.24.33c-.02.02-.04.03-.06.02a.26.26 0 0 1-.14-.15c-.02-.04-.05-.05-.08 0l-.04.05a.19.19 0 0 0-.02.2c.1.24.17.57.22.98l.19 1.33c.02.16 0 .36-.04.62-.14-.26-.3-.48-.48-.66.02 0 .05-.03.1-.08l-.1-.88c.05-.37.04-.74-.04-1.12 0-.06.02-.18.08-.35 0-.03 0-.05-.02-.06a.2.2 0 0 1-.08-.17c0-.03.02-.05.05-.04.36.05.6-.13.68-.53.2.1.4.22.6.34Z" fill="#007424"/><path d="m12.3 3.98.4.3c-.24.18-.34.4-.3.64.04.16 0 .18-.1.05l-.4-.5c-.02-.03-.05-.03-.08 0h-.02a.07.07 0 0 0-.02.07l.07.55c-.1.27 0 .5.09.76a.18.18 0 0 1-.03.16.86.86 0 0 0-.17.52c-.03.53-.03.93-.02 1.2.04.71.45 1.1.83 1.55.1.12.14.1.11-.05a14.3 14.3 0 0 0-.44-1.8c-.03-.1-.05-.29-.05-.58 0-.01 0-.02.02 0l.03.01v.01l.17.74c0 .02.01.03.03.04l.03.01c.02 0 .03 0 .03-.02l-.04-.66.17.46c.07.16.11.32.13.47.06.37.1.75.12 1.12v.13c-.04.47-.1.94-.16 1.4-.05.33-.03.64-.03.97 0 .24-.03.47-.08.7l-.16.8.3-.34c0 .19-.1.3-.29.36a.46.46 0 0 1-.41-.23c.16-.29.37-.63.42-.93.07-.3.07-.62.03-.94l-.21-1.38a1.95 1.95 0 0 0-.19-.52l-.1-.12c-.2-.28-.44-.51-.73-.7l-.12-.27.48.33c-.1-.26-.13-.52-.11-.76.05-.26.06-.46.04-.62-.1-.62-.16-1.07-.19-1.33a3.68 3.68 0 0 0-.22-.98.19.19 0 0 1 .02-.2l.04-.06c.03-.04.06-.03.08.01.03.08.08.12.14.15.02 0 .04 0 .06-.02l.24-.32a.04.04 0 0 1 .07 0l.04.1c0 .02.02.03.05.04l.04-.01a.04.04 0 0 0 .02-.05c-.01-.04 0-.07.02-.1.04-.02.07-.02.09.03l.24.6h.01l.03-.02v-.02c-.07-.25-.09-.5-.03-.75Z" fill="#00932E"/><path d="M5.32 4.26c.01.15 0 .3-.05.44a.51.51 0 0 0-.04.34c-.11.3-.16.58-.16.87-.11.44-.08.83.02 1.27.13.56.06 1.1.11 1.61.05.42.06.81.06 1.17-.02 1.34.23 2.48 1.56 3.07.03.01.05 0 .08-.01a1.6 1.6 0 0 1 1.22-.3v.56l.01-.32a.1.1 0 0 0-.08-.1 1.17 1.17 0 0 0-.67-.01.4.4 0 0 0-.14.08c-.3.2-.63.2-.95-.01a1.66 1.66 0 0 1-.84-1.1c-.24-.83-.38-1.62-.43-2.37-.01-.17-.08-.29-.2-.36a2.4 2.4 0 0 1 .01-.74c.1-.38.15-.68.14-.9-.02-.55-.12-1.07-.01-1.62l.27-1.5.09-.07Z" fill="#009F6D"/><path d="M12.79 4.35v.08c0 .02 0 .05.03.07.16.16.16.35.27.54.14.26.26.53.34.8l.1.35-.02.17c0 .02 0 .03-.03.01-.1-.07-.2-.16-.28-.27l-.09-.07c-.03 0-.06.02-.08.06a.1.1 0 0 0-.02.08c.17.59.33 1.1.34 1.61 0 .24 0 .53.08.87l.04.59c0 .21-.03.22-.1.02l-.08-.1c-.03-.03-.04-.02-.05.02l-.02.28c0 .02-.01.04-.03.05a.07.07 0 0 1-.03.02c-.03 0-.05-.01-.06-.04l-.06-.34c-.02-.33 0-.67-.08-.98-.09-.33-.1-.58-.2-.93a6.64 6.64 0 0 1-.13-.87 4.24 4.24 0 0 0-.4-1.29c-.02-.04-.06-.05-.1-.05-.04 0-.05.01-.05.05 0 .03.02.11.07.24l.08.24.14.53c.07.22.09.5.07.85-.1-.26-.17-.51-.22-.75-.04-.17-.08-.17-.11 0-.02.07-.01.2.02.36 0 .02 0 .02-.02.02h-.03c-.02 0-.02-.01-.02-.03.01-.16-.04-.29-.01-.47.06-.36-.1-.65-.2-.98l-.07-.55c0-.02 0-.05.02-.06l.02-.02c.03-.02.06-.02.08.01l.4.5c.1.13.13.11.1-.05-.04-.24.06-.46.3-.64l.09.07Z" fill="#00AB36"/><path d="m5.23 4.33-.27 1.5c-.1.55 0 1.07.01 1.62 0 .22-.04.52-.14.9a2.4 2.4 0 0 0 0 .74c.13.5.22 1.03.26 1.56-.03-.4-.13-.77-.27-1.1-.25-.6-.14-1.37-.03-2 .07-.43-.03-.89.02-1.32.05-.52.16-.93-.04-1.48.15-.15.3-.29.46-.42Z" fill="#00CDAA"/><path d="m14.36 6.3-.54-.22a.13.13 0 0 1-.06-.05c-.09-.14-.15-.14-.2-.02-.03-.09-.07-.14-.13-.16-.08-.28-.2-.55-.34-.8-.11-.2-.1-.39-.27-.55a.12.12 0 0 1-.04-.07l.01-.08.08.06a5.98 5.98 0 0 1 1.49 1.89Z" fill="#FBFB51"/><path d="M11.02 6.87c.18.18.34.4.48.66-.02.24.01.5.1.76a28 28 0 0 0-.47-.47c-.1-.1-.21-.35-.24-.5a5.8 5.8 0 0 1-.1-.67l-.18-.71-.43-1.42a.04.04 0 0 1 .02-.04h.07a.08.08 0 0 1 .07.05c.1.24.19.4.22.66.04.28.09.53.16.75l.3.93Z" fill="#00AB36"/><path d="m11.02 5.9.1.89a16.95 16.95 0 0 1-.4-2.26.03.03 0 0 1 .04 0l.04.05a.1.1 0 0 1 .03.05l.19 1.28Z" fill="#00932E"/><path d="m5.51 8.54-.03.6c.07.32.13.54.19.65l.5 1.18c.22.33.4.7.53 1.1.03.09.13.19.3.29.17.09.4.12.66.09l.3.02.17.15c-.46-.01-.9.03-1.31.14a.1.1 0 0 1-.13-.07c-.16-.56-.45-.94-1.07-.98a.06.06 0 0 1-.05-.05c-.14-.42-.21-.77-.22-1.04L5.3 8.1c-.01-.5-.12-.9-.2-1.32 0-.03 0-.06.02-.08.19-.3.33-.5.21-.87l-.1-.8a.51.51 0 0 1 .04-.33l.02.17c0 .07.03.08.07.02l.06-.1c.06-.18.1-.17.1.01l.03.58c0 .12.03.12.06 0a11 11 0 0 0 .16-.56c.04-.16.08-.16.12 0 .03.15.1.4.21.76.03.1.1.23.19.36.11.16.18.35.2.57a.08.08 0 0 1-.09.08.4.4 0 0 1-.12-.05c-.04-.02-.05-.01-.03.02v.02h-.01l-.95.1a.12.12 0 0 0-.1.15c.1.52.17 1.02.2 1.52 0 .12.04.18.12.2Z" fill="#00723F"/><path d="M5.1 10.65c.04.49.05.87 0 1.15a25.7 25.7 0 0 0-.22 1.56l-.33-.33c.05-.67.16-1.36.16-1.99 0-.77-.2-1.52-.15-2.17.04-.6.06-1.22.07-1.86 0-.63.16-1.22.1-1.85l-.02-.03-.02-.01c-.03 0-.05 0-.06.04-.07.3-.19.57-.36.83.15-.3.22-.6.2-.91.09-.12.2-.23.3-.33.2.55.09.96.04 1.48-.05.43.05.89-.02 1.33-.1.62-.22 1.39.03 1.98.14.34.24.71.27 1.11Z" fill="#00E9C6"/><path d="M8.27 5.02c.41.18.68.5.82.95 0 .02 0 .03-.02.03l-.09.02c-.01 0-.02 0-.02-.02-.1-.46-.34-.72-.77-.78a.35.35 0 0 1-.07-.2h.15Z" fill="#007424"/><path d="M13.04 9.15c-.06.04-.12 0-.18-.12-.02-.37-.06-.75-.12-1.12-.02-.15-.06-.3-.13-.47l-.17-.46v-.04c.02-.35 0-.63-.06-.85a13.91 13.91 0 0 1-.23-.77.93.93 0 0 1-.07-.24c0-.04.01-.05.04-.05.05 0 .09.01.1.05.24.5.38.93.41 1.29.05.44.1.74.14.87.1.35.1.6.2.93.08.3.05.65.07.98Z" fill="#00DF5E"/><path d="m5.23 5.04.1.8a.39.39 0 0 1-.09.21c-.02.03-.04.03-.07 0a.48.48 0 0 1-.1-.14c0-.29.05-.58.16-.87Z" fill="#00B387"/><path d="M4.46 5.08c.03.3-.04.6-.19.91a.69.69 0 0 1-.4-.11c.18-.29.38-.55.6-.8Z" fill="#00CDAA"/><path d="M4.55 13.03a5.9 5.9 0 0 1-.34-.41c.08-.1.15-.16.15-.3 0-.6-.02-1.22-.1-1.84-.07-.65-.1-1.3-.13-1.82 0-.05-.01-.05-.03 0-.09.25-.11.49-.18.98 0 .04-.02.04-.05.02a.24.24 0 0 1-.05-.07l-.03-.17v-.17c0-.3.06-.6.2-.86.07-.15.1-.27.1-.35 0-.22-.1-.52-.05-.73.06-.26.12-.45.07-.68a.08.08 0 0 0-.06-.06l-.48-.12.3-.57c.14.08.27.12.4.11.17-.26.29-.54.36-.83 0-.03.03-.05.06-.04l.02.01.01.03c.07.63-.09 1.22-.1 1.85 0 .64-.02 1.26-.06 1.86-.04.65.16 1.4.15 2.17 0 .63-.1 1.32-.16 1.99Z" fill="#00FBF3"/><path d="M8.18 5.35c.27.03.47.14.58.33.03.04.04.08.03.13a.07.07 0 0 1-.08.05h-.16c-.03 0-.03 0-.01.03.13.1.14.18.05.22L8 6.25l.26-.15c.03-.02.04-.04.02-.07l-.23-.38a.04.04 0 0 0-.05-.02l-.03.01c-.02.01-.03.03-.02.06.05.1.11.2.2.27.01.02.01.04-.01.05-.1.08-.2.08-.26.02-.02-.03-.04-.02-.05 0a.65.65 0 0 1-.23.35c-.03.02-.04.01-.06-.01a2.67 2.67 0 0 1-.28-.81l.03-.12c.14.02.25-.01.31-.09.21-.15.4-.15.57 0Z" fill="#00723F"/><path d="m7.03 5.5.15.1v.03c.02.03.03.03.06 0a.2.2 0 0 0 .03-.06c.05.28.14.55.28.8.02.03.03.04.06.02.11-.09.2-.2.23-.34.01-.03.03-.04.05-.01.07.06.15.06.26-.02.02-.01.02-.03 0-.05a.92.92 0 0 1-.19-.27c0-.03 0-.05.02-.06h.03a.04.04 0 0 1 .05 0l.23.4c.02.02.01.04-.02.06l-.26.15-.31.22-.39.18c-.23-.17-.41-.12-.54.14-.1.18-.15.3-.17.36-.01.03 0 .06.02.08.15.17.34.27.54.3.03 0 .06 0 .08-.02.2-.11.3-.22.33-.32 0 .18-.09.31-.25.4-.24.14-.48-.04-.66-.2l-.17-.43.08-1.37a.1.1 0 0 1 .03-.08c.04-.03.07-.04.1-.04s.05.01.06.04c.03.07.06.12.1.15.03.02.05.02.07 0a.33.33 0 0 0 .1-.16Z" fill="#4A684D"/><path d="M13.53 6.2c.03.13.08.24.15.32.17.4.26.82.27 1.27 0 .2.06.34.1.52.02.04.02.17.02.39 0 .14.02.28.06.42l.07.3-.38 1.2c-.01.06-.04.06-.08.02-.1-.1-.18-.18-.17-.37.04-.55-.01-1.1-.14-1.62-.09-.34-.07-.63-.08-.87-.01-.51-.17-1.02-.34-1.61 0-.03 0-.06.02-.08.02-.04.05-.06.08-.06.02 0 .05.03.1.07.07.1.17.2.27.27.02.02.03.01.03 0l.02-.18Z" fill="#00DF5E"/><path d="m8.13 12.62.01.04v.04l-.02.02a1.6 1.6 0 0 0-1.22.3.07.07 0 0 1-.08 0c-1.33-.58-1.58-1.72-1.56-3.06 0-.36-.01-.75-.06-1.17-.05-.51.02-1.05-.11-1.61-.1-.44-.13-.83-.02-1.27l.1.15c.03.02.05.02.07 0a.39.39 0 0 0 .1-.23c.11.38-.03.56-.22.86a.12.12 0 0 0-.01.09c.07.42.18.82.19 1.32l.05 2.52c0 .27.08.62.22 1.04 0 .03.02.05.05.05.62.04.9.42 1.07.98a.1.1 0 0 0 .13.07c.41-.1.85-.15 1.3-.14Z" fill="#008450"/><path d="m13.56 6.01.12.2v.31a.72.72 0 0 1-.15-.33l-.1-.34c.06.02.1.07.13.16Z" fill="#8EB637"/><path d="m10.61 5.94.18.7-.61-.12c-.01 0-.02 0-.02.02 0 .01 0 .02.02.02a.5.5 0 0 1 .36.11.85.85 0 0 0-.3-.1.05.05 0 0 0-.06.05v.03c.03.06.04.12.04.18a.1.1 0 0 1-.12.08l-.3-.1c.13-.05.3.02.33-.18 0-.03 0-.05-.04-.06a2 2 0 0 0-1.3-.21l-1.05.42c-.16.06-.2.02-.12-.14l.04-.06c.02-.03.02-.04-.02-.01l-.09.05.15-.15.31-.22.58-.14a14 14 0 0 1 1.32.13c.12.02.24-.01.38-.1.03-.01.05 0 .08.01l.02.03c.1.09.14.07.12-.06-.01-.1.02-.16.1-.18Z" fill="#022716"/><path d="m14.36 6.3.06.13-.18.1c-.03.02-.05.01-.07-.01-.12-.15-.26-.39-.49-.3l-.12-.2c.05-.13.11-.13.2 0 .01.03.03.05.06.06l.54.22Z" fill="#EC532C"/><path d="M14.42 6.43a6 6 0 0 1 .55 1.93.42.42 0 0 1-.24-.08.06.06 0 0 0-.08 0l-.02.02v.03c-.02.02-.01.04 0 .05l.35.17a6 6 0 0 1 0 .9.47.47 0 0 1-.33-.16c-.03-.05-.06-.08-.11-.1-.12 0-.2.05-.23.16-.01.03-.02.04-.04 0l-.14-.23a1.45 1.45 0 0 1-.06-.42l-.01-.4c-.05-.17-.1-.32-.11-.51-.01-.45-.1-.87-.27-1.27v-.3c.23-.09.37.15.5.3.01.02.03.03.06.01l.18-.1Z" fill="#FBFB51"/><path d="M9.8 6.81a2.66 2.66 0 0 0-1.36-.15c-.15.03-.16 0-.03-.08l.37-.22a2 2 0 0 1 1.31.2c.03.02.04.04.04.07-.03.2-.2.13-.32.18Z" fill="#876044"/><path d="m7.31 6.65.06.32c.19.02.3.11.35.27l.08.5c-.18.04-.15.2.08.5.03.03.05.06.09.08-.3-.14-.44-.36-.41-.66.01-.22.02-.38.01-.47-.02.1-.13.2-.33.32a.13.13 0 0 1-.08.02.88.88 0 0 1-.54-.3.08.08 0 0 1-.02-.08c.02-.06.07-.18.17-.36.13-.26.3-.31.54-.14Z" fill="#895C58"/><path d="m3.8 9.25-.03-.01c-.08-.39-.33-.58-.76-.57.01-.25.04-.5.09-.75.22.06.4.03.55-.1.12-.1.19-.24.2-.44l.1-.64c0-.03-.01-.06-.04-.07a1.11 1.11 0 0 0-.38-.14l.04-.08.48.12c.03.01.05.03.06.06.05.23 0 .42-.07.68-.04.21.05.51.05.73 0 .08-.03.2-.1.35-.14.27-.2.56-.2.86Z" fill="#00B387"/><path d="M7.7 6.47c.16.11.02.24.1.3v.05l-.43.14-.06-.31.39-.18Z" fill="#332D21"/><path d="M10.79 6.65c.02.22.05.44.1.67.03.15.13.4.24.5l.48.47-.48-.33c-.08-.2-.16-.28-.25-.26-.07-.36-.18-.7-.34-1.03a.5.5 0 0 0-.36-.11c-.02 0-.02 0-.02-.02s0-.02.02-.02l.6.13Z" fill="#1F3D30"/><path d="M3.1 7.92c.04-.2.08-.41.14-.61.35-.12.52-.4.26-.7 0-.03.02-.05.03-.08.14.03.26.07.38.14.03.01.04.04.03.07l-.08.64a.64.64 0 0 1-.2.45c-.15.12-.34.15-.56.09Z" fill="#018377"/><path d="M3.5 6.6c.26.31.1.6-.26.7.07-.23.16-.47.26-.7Z" fill="#295568"/><path d="M6.66 7.4c-.09-.08-.09-.03 0 .13.03.04.04.08.05.12l.02.15-.2.64c-.2.23-.45.37-.75.43-.03 0-.04.02-.04.05 0 .07.03.14.07.22a.26.26 0 0 1-.17-.11c-.03-.16 0-.28.1-.37a.1.1 0 0 0 .02-.08l-.03-.4c.28-.2.58-.3.92-.33a.8.8 0 0 0-.17-.58v-.31l.18.43ZM7.94 7.53c0 .1-.05.18-.14.21l-.08-.5.22.29Z" fill="#5E414D"/><path d="m7.57 7.19-.01.47c-.03.3.1.52.4.66.25.03.43-.07.53-.29a.1.1 0 0 1 .07-.05l.45-.1v-.03c-.3 0-.57.04-.83.16.17-.1.34-.16.51-.17a2.76 2.76 0 0 0 1.07-.24.25.25 0 0 0 .02.01l-.7.3c-.02.01-.02.02 0 .02h.1c.03.01.05.03.06.06.05.13 0 .26-.15.36-.3.21-.63.26-1.01.14a1 1 0 0 0-.57.06.6.6 0 0 0 .12.19c.16.16.23.34.23.55 0 .03-.02.05-.05.05-.26 0-.54-.05-.86-.15l.63.04c-.05-.31-.43-.4-.7-.42a.56.56 0 0 0-.27.02c-.03.01-.05.02-.06.01a.1.1 0 0 1-.06-.03.08.08 0 0 1-.01-.08l-.01-.05c-.02-.03-.04-.02-.05 0a.72.72 0 0 0 0 .56c0 .03.02.04.05 0l.03-.04c.03-.04.06-.04.1-.02l.16.13v.03a.09.09 0 0 0-.04.07v.02l-.41.34a.11.11 0 0 1-.13.02 2.03 2.03 0 0 1-.37-.65.65.65 0 0 1-.07-.22c0-.03.01-.05.04-.05.3-.06.56-.2.76-.43.18-.19.24-.4.2-.64-.02-.04-.03-.1-.03-.15a.34.34 0 0 0-.05-.12c-.09-.16-.09-.2 0-.14.18.16.42.34.66.2.16-.09.25-.22.25-.4Z" fill="#825060"/><path d="M10.88 7.7c.09-.02.17.07.25.26l.12.27.01.14c-.03-.02-.05 0-.08.06.12.81.17 1.63-.22 2.37l-.2.17c.25-.4.45-.81.38-1.28-.02-.5-.01-1.1-.14-1.58l-.12-.41Z" fill="#332D21"/><path d="m6.54 8.44.2-.64a.67.67 0 0 1-.2.64Z" fill="#7F82B2"/><path d="M7.97 8.32a.32.32 0 0 1-.09-.08l.3-.23c.26-.12.54-.17.83-.16v.02c.01 0 0 0 0 0l-.45.1a.1.1 0 0 0-.07.06c-.1.22-.28.32-.52.3Z" fill="#5E414D"/><path d="m5.73 8.17.03.41a.1.1 0 0 1-.03.08c-.09.09-.12.21-.1.37v.02c-.1-.08-.14-.06-.15.09l.03-.6v-.47a.05.05 0 0 1 .1-.03l.12.13Z" fill="#00866E"/><path d="m8.89 11.93-.15.15c-.24.13-.5.22-.76.27.25-.1.47-.2.67-.33.05-.03.04-.04-.01-.02-.28.1-.5.02-.65-.21-.14-.2-.26-.3-.08-.54l.28-.36.32-.25.04-.04c.04-.06.03-.1-.03-.14-.14-.07-.3-.14-.42-.25-.31-.27-.49-.42-.95-.53.08-.04.13-.09.15-.15.01-.03 0-.06-.01-.08A.65.65 0 0 0 7 9.27c-.02 0-.04-.03-.03-.06v-.08c0-.03.02-.05.06-.06.1-.01.16-.03.19-.05.1-.07.1-.11-.03-.14l-.32-.07c.27.02.65.1.7.42-.28-.18-.49-.2-.63-.04.32.1.6.15.86.15.03 0 .05-.02.05-.05 0-.2-.07-.4-.23-.55l.3.31c.18.57.44 1.1.78 1.58.01.02.04.03.06.03.35-.07.62-.23.8-.47.24-.34.41-.79.53-1.35.02-.08 0-.2-.06-.37-.06-.15-.17-.2-.35-.17l-.14-.03c.13-.03.27-.05.4-.05.62 0 .41.57.35.94-.07.38.06.7-.01 1.04a1.3 1.3 0 0 1-.45.77c-.36.3-.86.64-.95.96Z" fill="#876044"/><path d="m11.98 8.93-.72-.56-.01-.14c.29.19.53.42.73.7Z" fill="#005B20"/><path d="M9.69 8.3c-.3.15-.9.53-1.24.43a3.88 3.88 0 0 0-.71-.13.04.04 0 0 0-.02.06l.2.4-.3-.32a.6.6 0 0 1-.11-.2l.57-.05c.51.24.9.02 1.47-.22l.14.03Z" fill="#895C58"/><path d="m7.93 9.05-.21-.39a.04.04 0 0 1 .04-.06c.23.02.46.06.7.13.34.1.92-.28 1.23-.43.18-.04.3.02.35.17.06.17.08.3.06.37-.12.56-.3 1.01-.53 1.34-.18.25-.45.41-.8.48-.02 0-.05 0-.06-.03a6.24 6.24 0 0 1-.78-1.58Z" fill="#9A6453"/><path d="m14.97 8.36.01.19-.34-.17c-.02-.01-.03-.03-.02-.05l.01-.03a.06.06 0 0 1 .04-.03.06.06 0 0 1 .06 0c.08.06.16.1.24.1Z" fill="#EC532C"/><path d="M4.21 12.62a11.1 11.1 0 0 1-.06-.09c.06-.19.1-.36.1-.53 0-.37 0-.79-.04-1.24-.01-.16-.06-.3-.1-.45.01-.09.01-.15-.01-.18-.04-.07-.12-.11-.25-.13a.94.94 0 0 1-.03-.41c.02.03.03.06.05.07.03.02.05.02.05-.02.07-.49.1-.73.18-.98.02-.05.03-.05.03 0 .02.52.06 1.17.13 1.82.08.62.1 1.23.1 1.85 0 .13-.07.2-.15.29Z" fill="#00CDAA"/><path d="M3.77 9.24c-.25-.04-.5-.02-.76.05a6 6 0 0 1 0-.62c.43 0 .68.18.76.57Z" fill="#0C726F"/><path d="m6.88 8.8.32.08c.12.03.13.07.03.14a.63.63 0 0 1-.2.05c-.03.01-.04.03-.05.06v.08c0 .03 0 .05.03.06.12.04.21.1.28.18.02.02.02.05.01.08-.02.06-.07.11-.15.15-.1-.02-.18.01-.27.1l-.3.33a.5.5 0 0 0-.12.25 4.6 4.6 0 0 0-.05.29c0 .04.01.07.03.07h.14a.08.08 0 0 1 .06.03.08.08 0 0 1 .02.06c0 .18.04.32.14.43.08.07.2.1.39.1.39-.02.72-.17 1-.45l-.28.36c-.18.23-.06.34.08.54.15.23.37.3.65.21.05-.02.06-.01 0 .02-.19.13-.4.24-.66.33l-.32.1c-.27.03-.49 0-.66-.1-.05-.2-.05-.4-.02-.58v-.08a.41.41 0 0 0-.15-.18.1.1 0 0 1-.04-.08.5.5 0 0 0-.1-.28c-.05-.09-.05-.2-.06-.3a.1.1 0 0 0-.1-.08.1.1 0 0 0-.04 0c-.06.03-.1.02-.14-.01a.07.07 0 0 1-.02-.08l.14-.52c.2-.23.4-.4.36-.74a.05.05 0 0 0-.03-.04.05.05 0 0 0-.06 0l-.02.03c0-.03.01-.05.04-.07v-.03l-.17-.13c-.03-.02-.06-.02-.09.02l-.03.05c-.03.03-.04.02-.06-.01a.72.72 0 0 1 0-.55c.02-.03.04-.04.06-.01v.05c0 .03 0 .05.02.08a.1.1 0 0 0 .06.03h.06c.09-.04.18-.05.27-.03Z" fill="#895C58"/><path d="M14.2 9.42c.08.27.1.5.09.71-.03.22-.1.57-.21 1.05l-.16.42c-.05.13-.09.27-.12.44 0 .13-.03.2-.07.18a3.17 3.17 0 0 1-.75 1.06.1.1 0 0 1-.05 0 .09.09 0 0 1-.06-.08l-.04-.06a.1.1 0 0 0-.08-.04l-.38.02a.13.13 0 0 0 .07-.07c.19-.05.29-.17.3-.36-.04-.15-.04-.3-.02-.45.04-.74.1-1.5.17-2.26.01-.15 0-.42-.03-.82v-.13c.06.12.12.16.18.12l.06.34c0 .03.03.04.06.04l.03-.02a.07.07 0 0 0 .03-.05l.02-.28c0-.04.02-.05.05-.02l.08.1c.07.2.1.2.1-.02 0-.2-.02-.39-.04-.59.13.53.18 1.07.14 1.62 0 .19.06.26.17.37.04.04.07.04.08-.01l.38-1.21Z" fill="#01C859"/><path d="m11.71 9.44-.18.53c-.04.1-.06.1-.06 0V8.88c.15.13.23.32.24.55Z" fill="#022716"/><path d="M7.24 12.92c-.23.27-.32.5-.26.7v.15l-.32-.34c-.02-.02-.04-.02-.05.02a.7.7 0 0 1-.11.21.1.1 0 0 1-.08.04c-.16.02-.32.08-.47.16-.02-.08-.12-.1-.31-.04-.03 0-.05 0-.07-.03l-.06-.16a.06.06 0 0 0-.08-.03.35.35 0 0 0-.17.1l-.38-.34c.06-.53.13-1.05.22-1.56a4.5 4.5 0 0 0 0-1.15 9.93 9.93 0 0 0-.27-1.56c.11.07.18.2.19.36.05.75.2 1.54.43 2.38.15.53.37.8.84 1.09.32.2.64.2.95 0Z" fill="#00B387"/><path d="m5.62 9.05.24.6c.02.07.07.13.13.16a.1.1 0 0 1 .05.06c0 .04.03.07.07.1.03.02.05.02.08 0 .21-.13.4-.31.53-.54V9.4l.02-.02a.05.05 0 0 1 .06-.01.05.05 0 0 1 .03.04c.05.34-.15.51-.36.74l-.23.33a.12.12 0 0 0-.02.08c0 .13 0 .27-.05.4l-.5-1.18a3.37 3.37 0 0 1-.19-.65c.01-.15.06-.17.14-.1Z" fill="#44D2EF"/><path d="M5.8 9.14a2.03 2.03 0 0 0 .38.65.11.11 0 0 0 .13-.02l.4-.34c-.13.23-.3.41-.52.55a.06.06 0 0 1-.08 0 .17.17 0 0 1-.07-.1.1.1 0 0 0-.05-.07.26.26 0 0 1-.13-.16l-.24-.6.02-.02c.04.05.1.09.17.1Z" fill="#7F82B2"/><path d="m7.58 9.23-.63-.04c.14-.15.35-.14.63.04Z" fill="#704A1F"/><path d="m14.54 9.2-.13.06c-.02.02-.03.04-.03.07.07.28.05.6-.05.99-.03.12-.06.41-.1.87l-.15.54-.04.07-.24.24c.03-.17.07-.31.12-.44.1-.2.14-.35.16-.42.11-.48.18-.83.2-1.05.03-.2 0-.44-.08-.71l-.07-.3.14.24c.02.03.03.02.04 0 .03-.12.1-.17.23-.16Z" fill="#AF9F82"/><path d="m12.72 12.24-.29.8.16-.8c.05-.24.07-.47.08-.71 0-.33-.02-.64.03-.96.07-.47.12-.94.16-1.41.03.4.04.67.03.82-.07.76-.13 1.52-.17 2.26Z" fill="#00AB36"/><path d="m3.77 9.24.02.01v.17a1.1 1.1 0 0 0-.39.1.15.15 0 0 0-.05.23c.1.15.27.23.5.25.13.02.21.06.25.13-.3.26-.63.41-.77.82-.19-.54-.3-1.1-.32-1.66.25-.07.5-.09.76-.05Z" fill="#805674"/><path d="M14.54 9.2c.05 0 .08.04.1.09 0 .2.03.39.11.58a.41.41 0 0 0-.2 0 .07.07 0 0 0-.05.06l-.26 1.26c.03-.46.06-.75.1-.87.09-.38.1-.71.04-1 0-.02 0-.04.03-.06l.13-.06Z" fill="#F17F90"/><path d="M14.65 9.29c.08.1.2.15.33.16-.01.23-.04.46-.09.68l-.14-.26a1.14 1.14 0 0 1-.1-.58ZM3.8 9.42l.02.17c-.02.16 0 .3.03.41-.23-.02-.4-.1-.5-.25a.15.15 0 0 1 .05-.22c.11-.06.24-.1.4-.1Z" fill="#BF547F"/><path d="M7.15 9.68c.46.1.64.26.95.53.13.1.28.18.42.25.06.03.07.08.03.14.02-.06 0-.1-.08-.1a4.4 4.4 0 0 1-.5-.06.43.43 0 0 0-.26.05.8.8 0 0 1-.83-.09.1.1 0 0 0-.08-.01c-.1.02-.19.1-.24.22-.01.03 0 .05.03.06.1.04.23.06.39.06a14.04 14.04 0 0 0 1.53-.1l-.32.26c-.28.28-.61.43-1 .45-.18 0-.3-.03-.39-.1-.1-.1-.15-.25-.14-.43a.08.08 0 0 0-.08-.09h-.14c-.02 0-.03-.03-.03-.07l.05-.29a.5.5 0 0 1 .12-.25l.3-.33c.09-.09.18-.12.27-.1Z" fill="#7D2F3A"/><path d="m10.77 10.97-.12.05c.27-.41.43-.85.49-1.33.07.47-.13.88-.37 1.28Z" fill="#1F3D30"/><path d="m14.75 9.87.14.26a6.01 6.01 0 0 1-1.18 2.59l.02-.5c.04.01.06-.05.07-.18l.24-.24a.16.16 0 0 0 .04-.07l.16-.54.26-1.26c0-.03.02-.05.05-.06a.4.4 0 0 1 .2 0Z" fill="#FB63D9"/><path d="m4.1 10.3-.03.1c-.27.36-.32.86-.43 1.29a5.97 5.97 0 0 1-.31-.74c.14-.4.47-.56.77-.82.02.03.02.1 0 .18Z" fill="#295568"/><path d="m6.47 10.16-.14.52a.07.07 0 0 0 .02.08c.03.03.08.04.14.01a.1.1 0 0 1 .1 0 .1.1 0 0 1 .04.08c0 .1 0 .21.07.3.06.1.09.2.09.28a.1.1 0 0 0 .04.08c.07.05.12.1.15.18v.08c-.03.18-.03.37.02.59-.17-.1-.27-.2-.3-.3-.14-.4-.31-.76-.53-1.09.04-.13.06-.27.05-.4 0-.03 0-.05.02-.08l.23-.33Z" fill="#56B5D4"/><path d="M4.15 12.53a6.63 6.63 0 0 1-.08-.1c.04-.55.05-1.09.05-1.62l-.05-.41.03-.1c.05.16.1.3.11.46.04.45.05.87.04 1.24 0 .17-.04.34-.1.53Z" fill="#00B387"/><path d="m4.07 10.4.05.41c0 .53-.01 1.07-.05 1.62a6 6 0 0 1-.43-.74c.1-.43.16-.93.43-1.3Z" fill="#018377"/><path d="m8.55 10.6-.04.04a14.04 14.04 0 0 1-1.53.1c-.16-.01-.3-.03-.4-.07-.02-.01-.03-.03-.02-.06.05-.13.13-.2.24-.22a.1.1 0 0 1 .08.01.8.8 0 0 0 .83.09c.1-.05.18-.06.25-.05l.51.06c.07 0 .1.04.08.1Z" fill="#261014"/><path d="m10.77 10.97-.57.6c-.05.05-.1.07-.16.06-.03-.01-.03-.02 0-.03.06-.02.09-.05.08-.1l.53-.48.12-.05Z" fill="#332D21"/><path d="m10.93 11.23-.2.33-.18.38-.16.3c0-.23.05-.45.13-.67l.41-.34Z" fill="#1F3D30"/><path d="m8.74 12.08.15-.15c.29-.22.57-.4.85-.54.1-.04.1-.03.02.04-.3.25-.64.46-1.02.65Z" fill="#704A1F"/><path d="M10.52 11.57c-.08.22-.13.44-.13.66v.55l-.12-.67a.07.07 0 0 0-.04-.06.07.07 0 0 0-.06 0l-.05.02c-.34.04-.69.12-1.03.24-.04.01-.07.02-.09 0a.08.08 0 0 1-.04-.03c-.01-.03 0-.06.02-.08.3-.24.62-.43.97-.6l-.24.2c-.03.02-.02.03 0 .03.29-.02.56-.1.81-.26Z" fill="#332D21"/><path d="m10.47 12.77-.08-.54.16-.3.26-.14a.08.08 0 0 1 .06 0 .08.08 0 0 1 .05.04c.04.1-.02.25-.04.33a.84.84 0 0 1-.41.6Z" fill="#007424"/><path d="M10.4 12.78c-.17.19-.35.36-.55.54-.17.15-.24.3-.15.5.01.03 0 .06-.04.07h-.04c-.03.01-.05 0-.05-.03l-.02-.18c.4-.57.66-.93.57-1.61l.05-.02a.07.07 0 0 1 .1.06l.13.67Z" fill="#4A684D"/><path d="m10.39 12.23.08.54c0 .04.01.08.06.13-.02.02.01.04.1.06.05 0 .05.02 0 .04l-.76.33c-.02.01-.02.02 0 .04a.03.03 0 0 0 .03 0l.34-.12.02.01.01.02v.02l-.46.24v.06h.03c.21-.15.44-.24.69-.25a.07.07 0 0 1 .06.11c-.1.12-.23.26-.41.42-.1.1-.19.04-.26-.05-.02-.02-.03-.02-.05-.01l-.09.03v.02l.07.12c.02.03.01.04-.02.05-.13.03-.23.01-.3-.05a.08.08 0 0 1-.03-.08.3.3 0 0 0 .01-.1c0-.05-.02-.06-.05-.03l-.06.06-.05-.26a.68.68 0 0 0-.13-.37l.32.34v.13l.03.18c0 .03.02.04.05.04l.04-.01c.04-.01.05-.04.04-.07-.1-.2-.02-.35.15-.5.2-.18.38-.35.55-.54l-.01-.55Z" fill="#1F3D30"/><path d="M12.72 12.24c-.02.15-.02.3.02.45l-.3.34.28-.79Z" fill="#008450"/><path d="m13.73 12.22-.02.5a6 6 0 0 1-1.11 1.08l-.29-.58a.28.28 0 0 0 .06-.1l.38-.02a.1.1 0 0 1 .08.04c.02.02.03.05.03.07a.09.09 0 0 0 .07.07.1.1 0 0 0 .1-.03c.3-.3.53-.64.7-1.03Z" fill="#BF547F"/><path d="m8.4 6.58.38-.22c-1.02.41-1.04.45-1.04.47l-.37.13c.19.03.3.12.35.28l.22.29c0 .1-.05.18-.14.21-.18.04-.15.2.08.5l.3-.23c.17-.1.34-.17.51-.17a2.76 2.76 0 0 0 1.07-.24.24.24 0 0 0 .02.01l-.7.3c-.02.01-.02.02 0 .02h.1c.03.01.05.03.06.06.05.13 0 .26-.15.36-.3.21-.63.26-1.01.14.45.21.82.06 1.29-.14l.18-.08c.13-.03.27-.05.4-.05.54 0 .45.44.38.8l-.03.14c-.03.19-.02.36 0 .53 0 .17.02.33-.01.5a1.3 1.3 0 0 1-.45.78l-.21.18c-.33.25-.67.52-.74.78.29-.22.57-.4.85-.54.1-.04.1-.03.02.04a5.15 5.15 0 0 1-1.78.92l-.32.1.3.02c.1-.01.18.02.22.1.15.25.23.5.24.76.01.12.04.24.09.37.04.09.03.18.03.27 0 .07 0 .15.02.23l.03.11.09.02.16-.07c.04-.02.06-.05.04-.09l-.02-.03a.05.05 0 0 0-.07-.03l-.1.05c-.04.01-.05 0-.05-.03l.01-.08c0-.03.02-.05.06-.04l.36.03c-.07-.49.14-.84.47-.5v.14l.03-.03c.39-.56.64-.91.55-1.58-.34.04-.69.12-1.03.24-.04.01-.07.02-.09 0a.08.08 0 0 1-.04-.03c-.01-.03 0-.06.02-.08.3-.24.62-.43.97-.6l.17-.1.53-.48c.27-.41.43-.85.49-1.33v-.2c-.02-.46-.03-.96-.14-1.38a29.18 29.18 0 0 0-.46-1.44.85.85 0 0 0-.3-.1.05.05 0 0 0-.05.03.05.05 0 0 0-.01.05c.03.06.04.12.04.18a.1.1 0 0 1-.04.07.1.1 0 0 1-.08.01l-.3-.1a2.66 2.66 0 0 0-1.36-.15c-.15.03-.16 0-.03-.08Z" fill="#5E414D"/><path d="M8.6 14.31a.6.6 0 0 0-.48.16c.05-.37 0-.7-.17-1-.01-.02-.01-.04.01-.06l.16-.13v-.56l.01-.02c.01-.01.02-.02.01-.04a.1.1 0 0 0-.01-.04l-.18-.15c.11-.01.19.02.23.1.15.25.23.5.24.76.01.12.04.24.09.37.07.17 0 .33.05.5l.03.11Z" fill="#00B387"/><path d="m11.76 12.92-.16.15c.1.1.23.16.4.18l-.47.05c-.03 0-.05.03-.05.06v.02c0 .04 0 .05.04.05a3.4 3.4 0 0 1 .58-.02c-.2.01-.35.06-.44.15l-.6.16a.05.05 0 0 0-.03.05v.02c.05.1.05.16 0 .18-.18.08-.4.1-.65.06l-.02.01-.03.04c-.01.02 0 .03.02.03l.6.06a.04.04 0 0 1 .04.02.04.04 0 0 1 0 .04l-.04.04a.13.13 0 0 1-.12.06l-.7-.06h-.04l-.14.12c-.02.02-.04.02-.06-.01a.5.5 0 0 0-.14-.15c-.13-.1-.35-.08-.48-.09-.04 0-.04-.02-.02-.05l.09-.1.06-.15.06-.06c.03-.03.05-.02.05.02a.3.3 0 0 1 0 .11.08.08 0 0 0 .02.08c.07.06.17.08.3.05.03 0 .04-.02.02-.05l-.07-.12v-.02l.09-.03h.05c.07.1.15.15.26.06a2.96 2.96 0 0 0 .42-.46.07.07 0 0 0-.07-.07 1.3 1.3 0 0 0-.7.25.01.01 0 0 1-.01 0l-.01-.03v-.03l.46-.24v-.04h-.03l-.34.12a.03.03 0 0 1-.03 0c-.02-.03-.02-.04 0-.05l.76-.33c.05-.02.05-.03 0-.04-.09-.02-.13-.04-.1-.06l.48-.05c.21-.04.32.02.46.15.02.03.04.03.07.02l.22-.1Z" fill="#332D21"/><path d="m8.12 13.28-.16.13c-.02.02-.02.04 0 .07.16.3.21.62.16.99l-.04-.03a.09.09 0 0 1-.04-.07 4.47 4.47 0 0 1-.02-.48c.01-.2-.12-.36-.23-.47a.05.05 0 0 1-.01-.05.05.05 0 0 1 .04-.03c.24-.02.4-.3.17-.47a.13.13 0 0 0-.08-.02h-.54c.23-.07.46-.06.68 0a.1.1 0 0 1 .08.11l-.01.32Z" fill="#00E9C6"/><path d="M12.44 13.05a.13.13 0 0 1-.07.07.28.28 0 0 1-.06.1c-.02.12-.07.2-.15.25l-.01.01-.01.01v.01h.03l-.01.03-.5.03c.1-.09.24-.14.44-.15h-.01c-.2-.01-.39 0-.57.02-.03 0-.05-.01-.05-.05v-.02c.01-.03.03-.05.06-.06l.47-.05c.04 0 .06 0 .07-.02.04-.02.04-.04 0-.04-.03 0-.05.02-.07.06a.67.67 0 0 1-.4-.18c.12 0 .22-.05.3-.14l.03-.06c.04 0 .07-.02.1-.05.1.15.23.23.41.23Z" fill="#4A684D"/><path d="M7.38 12.85h.53c.03 0 .06 0 .08.02.22.16.07.45-.17.47a.05.05 0 0 0-.04.03.05.05 0 0 0 0 .05c.12.11.25.27.24.47 0 .1 0 .25.02.48 0 .03.02.05.04.07l.04.03-.45.38a6.05 6.05 0 0 1-.7-.2l-.02-.16.25-.25a.07.07 0 0 0 .01-.08l-.23-.55c-.06-.2.03-.42.26-.69a.4.4 0 0 1 .14-.07Z" fill="#00FBF3"/><path d="M12.6 13.8c-.27.2-.55.38-.85.53a.32.32 0 0 0-.1-.06l-.3-.14a.08.08 0 0 0-.07 0c-.12.08-.16.17-.12.28-.15-.04-.22.12-.31.2-.02-.05-.04-.07-.08-.06a6.7 6.7 0 0 1-.66.2l-.01.04.02.1c-.61.12-1.24.14-1.86.06.21-.22.53-.34.94-.35.1 0 .15.07.22.1.11.03.2 0 .26-.09a.08.08 0 0 0 0-.08c-.02-.08-.06-.11-.1-.1.01-.05 0-.08-.02-.08-.3-.01-.6.01-.89.07v-.09l.17-.07c.04-.02.06-.05.04-.09l-.02-.03a.05.05 0 0 0-.07-.03l-.1.05c-.04.01-.05 0-.05-.03l.01-.08c0-.03.02-.05.06-.04l.36.03c.05 0 .09-.02.11-.06a.07.07 0 0 1 .07-.04c.03 0 .06.02.09.05l-.09.1c-.02.03-.02.05.02.05.13.02.35 0 .48.1a.5.5 0 0 1 .14.14c.02.03.04.03.06.01l.14-.11.05-.01.69.06c.05 0 .1-.01.12-.06l.04-.04a.04.04 0 0 0 0-.04.04.04 0 0 0-.03-.02l-.61-.06c-.03 0-.03-.01-.02-.03l.03-.04h.02c.25.03.47.01.66-.07.04-.02.04-.08 0-.18a.05.05 0 0 1 .03-.07l.59-.16.5-.03c.01 0 .02 0 0-.02l-.02-.01v-.02h.02c.08-.05.13-.14.15-.26l.29.58Z" fill="#704A1F"/><path d="m9.35 13.58.05.26-.06.15c-.03-.03-.06-.05-.1-.05a.07.07 0 0 0-.06.04.13.13 0 0 1-.11.06c-.03-.2-.03-.36.02-.5.05-.17.1-.17.14.01l-.01.3c0 .04 0 .05.03.02.17-.15.05-.38-.09-.52v-.01l.01-.02h.02l.16.26Z" fill="#018377"/><path d="M6.98 13.77c.12.2.12.35-.03.48a.1.1 0 0 0-.03.07c0 .06 0 .12.03.17l.02.16a6 6 0 0 1-.99-.46c.09-.02.08-.13-.03-.33.15-.08.3-.14.47-.15a.1.1 0 0 0 .08-.05.7.7 0 0 0 .1-.21c.02-.04.04-.04.06-.02l.32.34Z" fill="#00866E"/><path d="M5.95 13.86c.1.2.12.31.03.33-.25-.15-.49-.32-.72-.5a.35.35 0 0 1 .17-.1.06.06 0 0 1 .08.04l.06.16c.02.03.04.04.07.03.19-.05.29-.04.3.04ZM6.95 14.49a.36.36 0 0 1-.03-.17.1.1 0 0 1 .03-.07c.15-.13.15-.29.03-.48a.37.37 0 0 0 0-.16l.23.55a.07.07 0 0 1-.01.08l-.25.25Z" fill="#00E9C6"/><path d="M11.66 14.27c-.13-.03-.46-.04-.45.16l-.05-.02c-.04-.1 0-.2.12-.28a.08.08 0 0 1 .08 0l.3.14Z" fill="#876044"/><path d="m11.66 14.27.1.06-.29.14c0-.04-.01-.06-.04-.07-.03 0-.05 0-.07.02-.04.03-.1.04-.15.01 0-.2.32-.2.45-.16Z" fill="#8EB637"/><path d="m8.6 14.31.08.02v.1a2.15 2.15 0 0 0-.35.13v.02c0 .04.01.05.04.04.22-.05.6-.08 1.12-.09.05 0 .08-.03.1-.1.03-.01.07.02.1.1l-.01.08c-.06.1-.15.12-.26.08-.07-.02-.12-.1-.22-.1-.41.02-.73.14-.94.36a6.1 6.1 0 0 1-.59-.1l.45-.38a.6.6 0 0 1 .47-.16Z" fill="#1F3D30"/><path d="M9.58 14.43c-.01.07-.04.1-.1.1-.51 0-.89.04-1.1.1-.04 0-.05-.01-.05-.05v-.02a2.17 2.17 0 0 1 .34-.13c.3-.07.59-.1.89-.08.02 0 .03.03.02.08ZM10.85 14.61c-.04.03-.06.07-.05.11-.22.07-.45.13-.68.17l-.02-.1a.05.05 0 0 1 .04-.06l.63-.18c.04-.01.06 0 .08.06Z" fill="#B98A28"/><path d="M5.92 7.51c.05.02.08.1.08.25 0 .07-.03.12-.1.14l-.08-.01-.07-.03a.14.14 0 0 1-.02-.17c.07-.13.14-.19.19-.18Z" fill="#018377"/><path d="M10.1 4.75c.03.07.1.12.12.19.1.35.22.57.09.83-.02.02-.04.03-.06 0-.23-.19-.35-.83-.42-1.14a.05.05 0 0 1 .06-.05c.1.03.17.08.2.17Z" fill="#00AB36"/><path d="m9.39 5.1.02-.25c.01-.07.03-.08.07-.02a4 4 0 0 1 .42 1.05c.03.13 0 .15-.1.06l-.28-.26a.17.17 0 0 0-.11-.05.2.2 0 0 0-.08 0 .14.14 0 0 1-.06.02l-.06-.02a.2.2 0 0 1-.06-.04.23.23 0 0 1-.05-.07 1.2 1.2 0 0 1-.13-.54l.01-.05h.03c.03 0 .05 0 .06.03.06.13.15.2.27.2.03 0 .05-.02.05-.05Z" fill="#00932E"/><path d="M9.68 6.94c-.5-.18-1.65-.15-1.43.67 0 .04 0 .05-.04.04a.16.16 0 0 1-.07-.06c-.36-.68.64-.84 1.11-.8a5.32 5.32 0 0 0-.75-.03c.42-.08.82-.02 1.18.18Z" fill="#332D21"/><path d="M9.68 6.94c.15.07.22.16.22.29a.1.1 0 0 1-.03.07l-.33.27-.83.22-.45-.09a.1.1 0 0 1-.07-.04l-.05-.07.07.06c.03 0 .04 0 .04-.04-.22-.82.93-.85 1.43-.67Z" fill="#261014"/><path d="M9.54 7.57a1.7 1.7 0 0 1-.83.22l.83-.22Z" fill="#332D21"/><path d="M7.72 8.91c.1.09.1.11-.04.07-.38-.12-.64-.36-.65-.74 0-.08.02-.08.06-.02.15.24.36.47.63.69Z" fill="#704A1F"/><path d="M8.43 7.48c-.05-.03-.06-.07-.04-.12a.36.36 0 0 1 .24-.18.07.07 0 0 1 .09.05l.1.25c.03.05.01.08-.04.08a.63.63 0 0 1-.35-.08Z" fill="#295568"/></svg>