<!-- by TradingView --><svg xmlns="http://www.w3.org/2000/svg" width="18" height="18"><path fill="url(#ayqc3gjah)" d="M0 0h18v18H0z"/><path fill-rule="evenodd" d="M9 12.9a3.9 3.9 0 100-7.8 3.9 3.9 0 000 7.8zm0 .6a4.5 4.5 0 100-9 4.5 4.5 0 000 9z" fill="#D39F6A"/><path fill="#D39F6A" d="M8.7 3h.6v.9h-.6zm0 11.1h.6v.9h-.6zm4.57-2.3l.3-.51.78.45-.3.52zM3.65 6.26l.3-.52.78.45-.3.52zm.78 5.03l.3.52-.78.45-.3-.52zm9.62-5.55l.3.52-.78.45-.3-.52zM7.8 6h.6v.6H9V6h.6v.6h.3a1.2 1.2 0 01.66 2.2 1.35 1.35 0 01-.51 2.6H9.6v.6H9v-.6h-.6v.6h-.6v-.6h-.9v-.6h.15c.25 0 .45-.2.45-.45v-2.7c0-.25-.2-.45-.45-.45H6.9v-.6h.9V6zm.6 1.2v1.5h.75c.41 0 .9-.24.9-.75 0-.5-.49-.75-.9-.75H8.4zm0 2.1v1.5h1.05c.41 0 .9-.3.9-.75 0-.5-.49-.75-.9-.75H8.4z"/><defs><linearGradient id="ayqc3gjah" x1="9" y1="0" x2="9" y2="18" gradientUnits="userSpaceOnUse"><stop stop-color="#940933"/><stop offset="1" stop-color="#20001D"/></linearGradient></defs></svg>