<!-- by TradingView --><svg width="18" height="18" viewBox="0 0 18 18" xmlns="http://www.w3.org/2000/svg"><path fill="#F0F3FA" d="M0 0h18v18H0z"/><path d="M11.34 4.03a427.25 427.25 0 0 1-5.8.64c-.73.1-1.54.6-1.54 1.45v5.44c0 .58.54 1.05 1.01 1.3l.28.1H11.73c-.1-.01-.68.04-2.97-.21l-1.84-.2a6.5 6.5 0 0 1-1.22-.21 1.14 1.14 0 0 1-.7-.9V6.07c.1-.23.3-.49.5-.62.15-.1.03-.16 1.63-.48l1.09-.22a654.1 654.1 0 0 1 3.62-.73c.13-.03-.2-.02-.5.01Zm.43.26-3.65.74c-1.43.3-2.1.44-2.03.44l.6-.05c.59-.07 2.98-.37 4.63-.55.95-.1 1.02-.1 1.26.03.15.08.23.16.34.34.08.13.05.3.08.39v6.77c-.09.45-.3.85-.6.91H6.13c-.01 0 .29.06.67.1a265.15 265.15 0 0 1 3.91.42c1.9.22 2.07.22 2.41.03.36-.2.89-.78.89-1.31V5.63c0-.6-.56-1.15-.95-1.34-.32-.15-.52-.15-1.28 0ZM7.16 6.45c-.04.03-.05.44-.04 1.78v1.72l.07-.36a143.26 143.26 0 0 0 .42-2.17c0-.01.43.23.95.54A288.7 288.7 0 0 0 10.29 9c0 .01-.54.35-1.2.75l-1.21.72-.02-.92-.02-.93-.08.28-.2.74-.28 1.15c-.09.37-.16.71-.15.75.02.04.06.07.11.07.08 0 1.04-.57 2.66-1.58l.9-.56c.32-.2.58-.38.6-.42 0-.04-.01-.1-.05-.13-.04-.04-.6-.4-1.24-.8A448.04 448.04 0 0 1 7.83 6.7c-.46-.28-.6-.34-.67-.25Z" fill="#E1282F"/></svg>