<!-- by TradingView --><svg width="18" height="18" viewBox="0 0 18 18" xmlns="http://www.w3.org/2000/svg"><path fill="url(#a)" d="M0 0h18v18H0z"/><path d="m10.14 3.62-.84.07c-.11 0-.25.04-.42.1-.45.07-.93.12-1.37.3-.32.08-.63.18-.94.3-.2.08-.34.16-.45.24-.11.09-.14.18-.07.27-.12.19-.28.35-.49.5-.16.1-.39.2-.55.35-.37.32-.68.69-.93 1.1l-.23.23a5.5 5.5 0 0 1 6.3-3.46Z" fill="#97663A"/><path d="M11.33 4.02c-.21.2-.35.38-.4.53-.08.26-.15.44-.19.52-.13.26-.34.3-.59.34a.56.56 0 0 0-.35.25c-.11.2-.49 1.06-.84.87.15-.34.24-.67.46-1 .1-.13.22-.21.34-.32.32-.06.74-.17.76-.54.02-.32.04-.53.07-.61L10.58 4c-.02-.03-.06-.04-.1-.04a5.76 5.76 0 0 0-.62.87c-.02.04-.08.1-.17.2a.28.28 0 0 0-.05.07l-.01.02c-.02 0-.04 0-.05-.02v-.09c.02-.1 0-.1-.07-.04-.15.14-.16.28-.26.45a1.3 1.3 0 0 0-.09.25c-.06.24-.16.47-.3.68l-.02.25h-.02a.37.37 0 0 1-.03-.04c-.04-.08-.08-.08-.12 0a1.97 1.97 0 0 0-.19.5.04.04 0 0 1-.05 0c-.16-.07-.26-.19-.29-.34 0-.06-.05-.1-.12-.15A.06.06 0 0 1 8 6.52l-.03-.27c-.07.1-.13.22-.17.35-.12 0-.22-.09-.29-.28-.1-.25-.17-.5-.23-.72-.04-.17-.09-.27-.15-.3a.61.61 0 0 1-.3-.52.05.05 0 0 0-.08-.03c-.11.1-.21.14-.37.15h-.32c-.07-.1-.04-.18.07-.27.1-.08.26-.16.45-.24.3-.12.62-.22.94-.3l-.5.2c-.23.07-.46.19-.64.28-.01 0-.02.01-.02.03v.04h.01l.01.01.46.03c.02 0 .03 0 .04.02.06.1.14.18.25.26a.08.08 0 0 0 .12-.03c.13-.35.25-.75.72-.67.42.06.57.06.86-.16.05-.05.08-.03.07.04l-.08.7c-.01.1-.06.23-.13.37-.04.08-.05.08-.04-.02l.04-.38s0-.02-.02-.02h-.01a.02.02 0 0 0-.03 0l-.17.42c-.07.17-.01.23.03.36a.12.12 0 0 1-.04.13c-.2.18-.23.41-.09.7v.05a.86.86 0 0 0-.01.24c0 .04.03.05.06.05a.06.06 0 0 0 .06-.03 3 3 0 0 0 .24-.54c.02-.07.1-.2.24-.38.15-.2.21-.35.19-.59 0-.03-.02-.03-.03 0l-.33.49h-.05c-.03 0-.04-.03-.02-.06a9 9 0 0 0 .33-.7c.02-.07.13-.2.33-.43a.98.98 0 0 0 .16-.28v-.05H9.5c-.01-.02-.03-.02-.04 0l-.3.23h-.02v-.26a.12.12 0 0 1 .12-.12c.2-.02.39.03.54.16a.13.13 0 0 0 .12.02.12.12 0 0 0 .08-.09c.01-.04-.01-.08-.07-.11-.05-.03-.07-.05-.08-.11 0-.02 0-.03-.02-.05-.27-.19-.64-.1-.95-.05.17-.06.3-.1.42-.1l.84-.07c.41.09.81.22 1.2.4Z" fill="#674833"/><path d="M7.51 4.08c.44-.17.92-.22 1.37-.3.3-.05.68-.13.95.06.02.01.02.03.02.05 0 .06.03.08.08.1.06.04.08.08.07.12a.12.12 0 0 1-.08.09.13.13 0 0 1-.12-.02.71.71 0 0 0-.54-.16.12.12 0 0 0-.12.12v.25c0 .02.01.02.02.01l.3-.24h.04l.01.01c.02.02.02.03.01.05-.05.11-.09.2-.16.28-.2.23-.3.36-.33.42a9 9 0 0 1-.33.71c-.02.03-.01.05.02.06h.05l.33-.5c.01-.02.02-.02.03.01.02.24-.04.4-.2.6-.13.17-.21.3-.23.37a3 3 0 0 1-.27.56l-.03.01c-.03 0-.05-.01-.06-.05l.02-.24-.01-.05c-.14-.29-.11-.52.1-.7a.12.12 0 0 0 .03-.13c-.04-.13-.1-.19-.03-.36a6.37 6.37 0 0 1 .2-.43h.01l.02.03-.04.38c-.01.1 0 .1.04.02.07-.14.12-.27.13-.38l.08-.7c0-.06-.02-.08-.07-.03-.3.22-.44.22-.86.16-.47-.08-.6.32-.72.67a.08.08 0 0 1-.12.03.95.95 0 0 1-.25-.26.04.04 0 0 0-.04-.02l-.46-.03-.02-.01V4.6c0-.02 0-.03.02-.03.18-.1.4-.2.63-.29l.51-.2Z" fill="#56331F"/><path d="M9.76 5.2a.24.24 0 0 0-.07-.17c.1-.1.15-.16.17-.2a5.76 5.76 0 0 1 .62-.87c.04 0 .08.01.1.04v.06c-.02.08-.04.29-.06.61-.02.37-.44.48-.76.54Z" fill="#79665F"/><path d="M11.65 4.18c-.17.2-.15.34-.13.62.02.2-.02.36-.13.49-.12.14-.44.26-.52.38a8.2 8.2 0 0 1-.5.67c-.06.06-.13.2-.16.28a1.1 1.1 0 0 1-.35.57c-.08.05-.1.04-.07-.05.04-.1.09-.24.1-.35a5.6 5.6 0 0 1 .34-1.15l-.01-.02c-.06-.05-.11-.06-.16-.02-.2.15-.37.37-.52.65l-.1.18c-.2.13-.37.3-.5.5 0 .02-.01.02-.02 0l-.18-.34c-.02-.04-.04-.03-.05 0l-.12.47a1.63 1.63 0 0 1-.32.6.03.03 0 0 1-.04-.01c-.1-.32-.18-.52-.47-.69a.1.1 0 0 1-.04-.04l-.33-.66a40.25 40.25 0 0 0-.23-.84.1.1 0 0 0-.07-.02c-.02 0-.03.01-.04.03l-.04.2c0 .3-.01.55-.03.76-.02.24.01.47.06.67 0 .03 0 .04-.03.01L6.7 6.8c-.12-.39-.22-.78-.31-1.19-.04-.16-.13-.26-.27-.3a.06.06 0 0 1-.04-.04c-.01-.02-.04-.03-.08-.02a.3.3 0 0 0-.12.06 16.63 16.63 0 0 1-.37.27c-.2.06-.33.1-.47.24-.14.14-.27.24-.39.4-.16.24-.35.45-.57.65.25-.42.56-.79.93-1.11.16-.15.39-.25.55-.36.2-.14.37-.3.49-.5h.32c.16 0 .26-.04.37-.14a.05.05 0 0 1 .07.03c.02.22.12.39.31.51.06.04.11.14.15.31.06.22.13.47.23.72.07.2.17.28.3.28l.13.26c0 .02.02.03.04.04.02 0 .04 0 .05-.02a.05.05 0 0 0 .01-.06 1.56 1.56 0 0 1-.07-.57l.03.27c0 .02.01.04.03.05.07.04.11.1.12.15.03.15.13.27.29.35a.04.04 0 0 0 .06-.03c.04-.16.1-.32.18-.48.04-.08.08-.08.12 0l.03.04h.02l.02-.25c.02.07.05.13.1.18.35.2.73-.67.84-.87.05-.1.21-.22.35-.25.25-.04.46-.08.59-.34l.2-.52c.04-.15.18-.33.4-.53l.31.16Z" fill="#79665F"/><path d="m11.65 4.18.16.1c.01.14.05.28.1.41.08.2.27.31.4.47.08.1.32.17.48.22a.07.07 0 0 1 .05.05.07.07 0 0 1-.03.07l-.08.06a.04.04 0 0 0-.02.04.04.04 0 0 0 .02.03l.12.08h.05c.05-.02.1-.02.13.02.02.02.01.04-.02.04h-.03a.05.05 0 0 0-.04.05l.01.05.05.02c.08 0 .15.04.2.1l.15.14c.1.07.2.2.32.27l.28.2c.4.81.58 1.71.55 2.62-.21-.48-.4-.86-.57-1.15a1.51 1.51 0 0 0-.79-.61c-.02-.01-.03 0-.04.02a1 1 0 0 0-.03.38c.02.19.28.42.35.58.12.24.12.48.14.79.02.28.13.42.27.62.18.25-.02.86.37.93-.07.22-.16.43-.26.64-.42.06-.65.34-.77.7-.01.03-.03.04-.06.02l-.45-.25-.86-.4a1.36 1.36 0 0 0-.5-.33c-.1-.03-.1-.05 0-.07.02 0 .06-.03.1-.07a.05.05 0 0 1 .06-.01l.91.38.03-.01a.35.35 0 0 0 0-.02c.01 0 .01 0 0 0v-.01c-.24-.16-.49-.29-.75-.39-.03 0-.03-.02 0-.03.07-.05.16-.05.27-.02.28.1.63.24.99.26.02 0 .03 0 .04-.03.13-.27.16-.55.09-.83l-.17-.7a.91.91 0 0 0-.2-.44.05.05 0 0 0-.05-.02.05.05 0 0 0-.04.03 14 14 0 0 1-.33.5c-.13.2-.15.37-.2.57-.03.18-.11.28-.29.3-.19.02-.37.06-.53.12a.49.49 0 0 1-.27.02.73.73 0 0 1-.33-.17c.08-.14.05-.29-.08-.43a6.58 6.58 0 0 0-.42-.41.06.06 0 0 0-.06.02v.04c0 .2.07.4.21.59a3.05 3.05 0 0 1-.75-.31V10c0-.02.02-.02.03-.02l.25.05c.02 0 .03 0 .03-.03.04-.26-.1-.4-.37-.44-.16-.02-.44.02-.83.1l-.32.13c.21-.16.44-.25.69-.26a.13.13 0 0 0 .13-.15L9.1 9.1a.07.07 0 0 0-.02-.05l-.32-.28a.05.05 0 0 0-.06-.01l-.11.03a.04.04 0 0 0-.03.03.04.04 0 0 0 0 .03l.26.53-.26.07h-.04l-.12-.1a.11.11 0 0 0-.17.06l-.01.06.01.08c.03.11.01.2-.06.3-.04.04-.08.06-.13.05-.01 0-.02 0-.03-.02l-.05-.19c-.01-.02-.02-.03-.04 0a.31.31 0 0 0-.06.2c0 .02 0 .03-.03.02-.11-.07-.16-.18-.13-.34.05-.11.03-.19-.04-.23a.06.06 0 0 0-.05 0 .28.28 0 0 1-.23 0l.1-.34.44-.5c.04-.05.07-.1.08-.15a.22.22 0 0 0 .01-.13V8.2c-.04-.1-.1-.13-.2-.07-.08.07-.19.16-.3.29l-.24-.3.18.1a.07.07 0 0 0 .1-.06l.08-.64c.01.2.12.32.33.34l.3.03c.12.24.29.38.5.52.16.1.27.2.42.13.07-.04.13-.1.19-.22.08-.16.15-.34.2-.52-.04.2-.09.4-.16.6-.14.37-.1.96.44.92a2.82 2.82 0 0 0 .45-.06h.02l.39.35c0 .01.02.02.04.01.33-.07.63-.16.9-.28.29-.11.38-.27.2-.53a.05.05 0 0 0-.06-.02l-.7.1c-.02 0-.03 0-.04-.02a.06.06 0 0 1-.02-.05c0-.02.02-.03.03-.04.34-.17.6-.33.7-.7v-.01c.02-.01.03-.03.03-.06 0-.01.01-.02.03-.02.08 0 .13.01.15.02.26.1.51.17.76.2.07 0 .08-.02.04-.08l-.06-.08a.23.23 0 0 0-.17-.08c-.15 0-.29-.03-.42-.06-.14-.04-.28-.16-.47-.15L11 7.53l-.15-.03c-.35-.08-.6-.12-.72-.11-.27.01-.41.2-.56.41.06-.26.1-.52.18-.77.13-.38.21-.77.27-1.15 0-.07-.01-.08-.06-.03l-.42.4c.15-.28.33-.5.52-.65.05-.04.1-.03.16.02l.01.02v.02A5.6 5.6 0 0 0 9.9 6.8c-.02.11-.07.24-.1.35-.04.09-.02.1.06.05.17-.14.27-.33.35-.57.03-.08.1-.22.15-.28.18-.22.35-.44.51-.67.08-.12.4-.24.52-.38.1-.13.15-.3.13-.5-.02-.27-.04-.42.13-.61Z" fill="#8E8A91"/><path d="M11.81 4.27a5.5 5.5 0 0 1 2.14 2.32c-.1-.06-.2-.13-.28-.2-.11-.07-.21-.19-.32-.26l-.15-.15a.33.33 0 0 0-.2-.1h-.05a.06.06 0 0 1-.01-.06c0-.02.01-.04.04-.04H13c.03-.01.04-.03.02-.05-.04-.04-.08-.04-.13-.02h-.05l-.12-.08-.01-.01a.04.04 0 0 1 0-.04l.01-.02.08-.06a.07.07 0 0 0 .03-.07.07.07 0 0 0-.05-.05c-.16-.05-.4-.12-.48-.22-.13-.16-.32-.27-.4-.47-.05-.13-.09-.27-.1-.42Z" fill="#696868"/><path d="M7.79 4.86c0 .02.03.07.08.13l.02.05.04 1.11a.03.03 0 0 1-.04.03l-.04-.04a.06.06 0 0 1-.02-.04.82.82 0 0 0-.07-.25.84.84 0 0 1-.08-.24c-.03-.22-.1-.45-.23-.69-.1-.16.1-.37.22-.48a.05.05 0 0 1 .09.02l.03.4Z" fill="#887672"/><path d="M9.69 5.03c.05.04.07.1.07.18-.12.1-.25.19-.34.32-.22.33-.31.66-.46 1a.35.35 0 0 1-.1-.18c.14-.21.24-.44.3-.68l.09-.25c.1-.17.11-.3.26-.45.06-.07.09-.06.07.04v.09c.01.02.03.02.05.02V5.1a.28.28 0 0 1 .06-.07Z" fill="#858080"/><path d="M6.7 6.8c-.17-.18-.27-.3-.3-.38-.07-.2-.17-.35-.3-.47-.05-.05-.07-.04-.06.03.05.28.14.6.35.8l.67.65c.09.1.14.24.14.46a.69.69 0 0 0-.68-.54c-.27 0-.5-.02-.74.07a1.66 1.66 0 0 0-.37.21.03.03 0 0 0 0 .03l.01.01c.12.06.14.24.17.35 0 .08 0 .14-.02.19a.11.11 0 0 1-.14.05c-.2-.07-.42-.15-.64-.06a.12.12 0 0 0-.07.13c.05.21.14.38.28.61.18.29.1.54-.03.81a.04.04 0 0 0 0 .04.04.04 0 0 0 .03.02l.26.04a.05.05 0 0 0 .05-.02l.46-.5c.13-.14.32-.24.58-.3.02 0 .04 0 .05.02v.04c0 .02 0 .04-.03.06-.21.18-.72.7-.6.95-.33.1-.64 0-.92-.26-.4-.38.11-.9-.48-1.22a.04.04 0 0 0-.06.02c-.15.35-.19.73-.12 1.12.04.22.13.6.06.75a.6.6 0 0 0-.06.15c0 .02 0 .03.02.03l.7.11c.13.02.14.06.03.12l-.5.27v.03l.02.01h.01c.31-.17.66-.23 1.05-.17.05 0 .15 0 .3-.04a46.93 46.93 0 0 1-.91.4c-.16.09-.33.13-.5.15a1.3 1.3 0 0 1-.21-.34c-.1-.21-.18-.43-.27-.67-.06-.14-.1-.39-.12-.74-.04-.48-.07-.94.04-1.42.05-.17.1-.42.17-.74.06-.28.27-.54.42-.74.1-.1.08-.12-.04-.04a1.47 1.47 0 0 0-.5.65.04.04 0 0 1-.05 0l-.1-.16.1-.3.23-.21c.22-.2.4-.4.57-.64.12-.17.25-.27.39-.4.14-.15.26-.19.47-.25.03 0 .06-.03.1-.06.02 0 .1-.08.27-.21A.3.3 0 0 1 6 5.24c.04-.01.07 0 .08.02 0 .02.02.03.04.03.14.05.23.15.27.31.09.4.2.8.31 1.2Z" fill="#A38B7E"/><path d="M7.37 6.26c0 .2-.01.39-.03.58 0 .09.05.22.1.3l.2.38-.1.64a.07.07 0 0 1-.09.06l-.18-.1-.05-.17c0-.02 0-.04-.02-.06 0-.22-.05-.37-.14-.46l-.67-.65c-.21-.2-.3-.52-.35-.8-.01-.07 0-.08.06-.03.13.12.23.28.3.47.03.07.13.2.3.37l.3.28c.02.03.02.02.02-.01-.05-.2-.08-.43-.06-.67.02-.21.03-.46.03-.76l.04-.2c0-.02.02-.03.04-.03a.1.1 0 0 1 .07.02l.03.05.2.8Z" fill="#A69995"/><path d="m11.48 5.49-.01.15c-.03.2-.07.28-.26.34a1.3 1.3 0 0 0-.47.27.05.05 0 0 1-.07 0h-.01c-.02-.02-.02-.03 0-.04.1-.1.21-.2.35-.3.15-.13.26-.27.37-.45.05-.09.09-.08.1.03Z" fill="#887672"/><path d="M9.57 7.8c-.05.18-.12.36-.2.52-.06.11-.12.18-.19.22-.15.07-.26-.02-.42-.13a1.25 1.25 0 0 1-.5-.52c.25.04.36-.05.5-.23.09-.11.17-.18.28-.27.1-.07.2-.2.22-.3.05-.22.11-.45.18-.66l.1-.18.42-.4c.05-.05.07-.04.06.03-.06.38-.14.77-.27 1.15-.08.25-.12.51-.18.77Z" fill="#9EA0AE"/><path d="M13.18 6.51h-.02l-.02.01c-.15.26-.35.43-.62.52-.07.03-.09 0-.04-.05.2-.27.46-.5.65-.72l.02-.01h.01l.33.24c.1.07.09.1-.04.09-.07 0-.16-.03-.27-.08ZM7.37 6.26l.33.66.04.04c.3.17.36.37.47.69a.03.03 0 0 0 .06 0c.15-.19.25-.38.3-.59l.12-.46c.01-.04.03-.05.05 0l.18.33c0 .02.02.02.03 0 .12-.2.29-.37.49-.5-.07.21-.13.44-.18.66a.6.6 0 0 1-.22.3c-.11.09-.2.16-.28.27-.14.18-.25.27-.5.23l-.3-.03c-.21-.02-.32-.13-.33-.34a3.46 3.46 0 0 0-.2-.38.61.61 0 0 1-.09-.3l.03-.58Z" fill="#858080"/><path d="M7.96 6.25c0 .23.02.42.07.57v.06l-.06.02a.06.06 0 0 1-.04-.04l-.14-.26c.04-.13.1-.25.17-.35Z" fill="#858080"/><path d="M4.41 11.57c.15.23.33.44.55.63l-.25-.14H4.7c-.01 0-.01 0 0 0l.21.2v.02h-.05a8.53 8.53 0 0 1-.56-.42 5.49 5.49 0 0 1-.55-4.49l.1.15a.04.04 0 0 0 .07 0c.1-.27.27-.48.48-.64.12-.08.13-.07.04.04-.15.2-.36.46-.42.74-.07.32-.12.57-.17.74-.11.48-.08.94-.04 1.42.02.35.06.6.12.74l.27.67c.05.12.12.23.21.34Z" fill="#775B4C"/><path d="m5.02 7.37.11.19a.05.05 0 0 1-.03.08c-.3.07-.54.22-.7.47a.04.04 0 0 1-.05.02c-.2-.04-.16-.26-.13-.45 0-.02.01-.03.03-.04.24-.16.48-.26.71-.3a.06.06 0 0 1 .06.03Z" fill="#92796B"/><path d="m10.85 7.5-.88.05a.16.16 0 0 0-.1.06l-.18.19a.05.05 0 0 0-.01.05l.06.26a.26.26 0 0 0-.07.13l.01.05c.4.42.88.56 1.42.4.31-.08.53-.29.65-.6-.1.36-.35.52-.69.69a.05.05 0 0 0-.03.04c0 .02 0 .04.02.05l.04.02.7-.1c.02 0 .04 0 .05.02.19.26.1.42-.19.53a5.5 5.5 0 0 1-.94.27l-.39-.34a.06.06 0 0 0-.05-.01c-.13.03-.27.05-.42.06-.54.04-.58-.55-.44-.92.07-.2.12-.4.16-.6.15-.2.3-.4.56-.41.13 0 .37.03.72.11Z" fill="#79665F"/><path d="m7.2 8.16-.35.15-.48.14a.95.95 0 0 1-.75-.52.78.78 0 0 1-.06-.28.05.05 0 0 1 .03-.05.63.63 0 0 1 .19-.09l.3-.05h.3c.53.06.81.1.81.7Z" fill="#080508"/><path d="M14.5 9.22a5.51 5.51 0 0 1-.3 1.56c-.4-.07-.2-.68-.37-.93-.14-.2-.25-.34-.27-.62-.02-.31-.02-.55-.14-.8-.07-.15-.33-.38-.35-.57a1 1 0 0 1 .03-.38c.01-.03.02-.03.04-.02.36.13.62.34.79.61.17.29.36.67.57 1.15Z" fill="#9EA0AE"/><path d="m10.85 7.5.15.03c-.11.02-.2.05-.32.05l-.3-.01c-.1 0-.18.02-.27.07a.86.86 0 0 0-.37.47l-.06-.26V7.8l.18-.2a.16.16 0 0 1 .11-.05l.88-.05Z" fill="#56331F"/><path d="m6.13 8.09.03.07c.04.07.03.09-.05.06-.15-.04-.24-.16-.26-.36a.1.1 0 0 1 .08-.1l.29-.1a.04.04 0 0 1 .05.06l-.13.32v.05Z" fill="#674753"/><path d="M9.99 8.19c.18-.31.31-.45.65-.48a.04.04 0 0 1 .04.06 1.4 1.4 0 0 0-.15.7v.02h-.02l-.46-.07A.1.1 0 0 1 10 8.4c-.04-.07-.04-.13 0-.2Z" fill="#56331F"/><path d="M11.76 8.07v-.18c0-.02 0-.04-.02-.05l-.1-.08c.2-.01.34.1.48.15.13.03.27.05.42.06a.23.23 0 0 1 .17.08l.06.08c.04.06.03.08-.04.07-.25-.02-.5-.08-.76-.19a.72.72 0 0 0-.15-.02c-.02 0-.03 0-.03.02 0 .03-.01.05-.03.06Z" fill="#79665F"/><path d="m11.37 8.03-.11.08-.02.02a.03.03 0 0 0 .02.04h.05a.2.2 0 0 1-.1.02c-.01 0-.03-.01-.03-.04a.44.44 0 0 0-.15-.31c-.01-.02-.02-.03 0-.05l.02-.01h.02a6.58 6.58 0 0 0 .19.12l.03.09.03.03.05.01Z" fill="#674753"/><path d="M7.22 7.95c.05.44-.02.67-.36.9a.09.09 0 0 1-.06.02 2.45 2.45 0 0 0-.47 0l-.39.09c-.28.03-.4-.14-.56-.33-.08-.1-.14-.2-.1-.32.02-.01.03-.02.05 0 .47.25.9.4 1.44.33.02 0 .03-.01.04-.03a.4.4 0 0 0 .04-.3l.34-.15a.64.64 0 0 0 .01-.27l.02.06Z" fill="#775B4C"/><path d="m7.27 8.12.23.3-.26.28a.08.08 0 0 0-.02.08c.04.1.06.22.06.35l.02.06c.02.02.04.02.07.02.02 0 .03-.01.04-.03L7.48 9l-.1.35a.65.65 0 0 1-.16-.06c-.1-.05-.1-.03-.05.05.09.11.22.17.42.19.01 0 .02 0 .02.02l.02.13c0 .04.01.04.03 0l.04-.11c-.03.16.02.27.13.34.02.01.03 0 .03-.02 0-.08.02-.15.06-.2.02-.03.03-.02.04 0l.05.19.03.02c.05 0 .1-.01.13-.06a.3.3 0 0 0 .06-.29 1.62 1.62 0 0 0 .8-.14v-.03l.01-.02c0-.03 0-.04-.04-.03l-.18.05-.26-.53a.04.04 0 0 1 .01-.05h.02l.11-.04.06.01.32.28.02.05.04.28a.13.13 0 0 1-.13.15c-.25 0-.48.1-.69.26l-.17.18c-.1.13-.14.33-.13.6-.06-.06-.19 0-.38.2.1-.26.15-.51.14-.74l-.24-.38h-.01l-.92-.33a.07.07 0 0 0-.1.07c0 .11.05.21.14.3v.04c-.12.12-.31.11-.47.18l-.4.19c-.13-.25.38-.77.6-.95l.02-.06v-.04c-.01-.02-.03-.02-.05-.02-.26.06-.45.16-.58.3a54.3 54.3 0 0 1-.5.52L5 9.8a.04.04 0 0 1-.03-.02.04.04 0 0 1 0-.04c.12-.27.2-.52.03-.8-.14-.24-.23-.4-.28-.62a.12.12 0 0 1 .07-.13c.22-.1.43-.01.64.06a.11.11 0 0 0 .14-.05c.02-.05.03-.11.02-.2.07.14.16.25.26.34.06.05.14.08.23.09h.29l.48-.13c.03.1.01.2-.04.3 0 .02-.02.03-.04.03-.53.08-.97-.08-1.44-.34l-.04.01c-.05.13 0 .22.09.32.15.2.28.36.56.33.06 0 .19-.04.39-.1h.53c.34-.24.4-.47.36-.9l.05.16Z" fill="#92796B"/><path d="M11.37 8.03c.06.01.09.04.07.08l-.05.04-.08.02h-.03a.03.03 0 0 1-.04-.02v-.02l.02-.02.11-.08Z" fill="#9EA0AE"/><path d="m7.48 9-.07.18c0 .02-.02.03-.04.03-.03 0-.05 0-.07-.02l-.02-.06c0-.13-.02-.25-.06-.35a.08.08 0 0 1 .02-.08l.26-.28c.12-.13.23-.22.32-.29.1-.06.15-.04.18.07l.01.02v.13a.44.44 0 0 1-.1.14l-.43.5Z" fill="#79665F"/><path d="m9.88 8.6.62.28c.08.03.08.05-.01.06l-.4.01c-.01 0-.03 0-.04-.02l-.2-.18a.05.05 0 0 1-.02-.06v-.05c0-.04.01-.06.05-.04Z" fill="#858080"/><path d="m5.78 10.1.4-.19c.16-.07.34-.06.47-.18V9.7a.43.43 0 0 1-.14-.3.07.07 0 0 1 .1-.07l.91.32.02.01.24.38-.89.34a5.13 5.13 0 0 1-1.12.22v.01l.01.03.02.02c.58 0 .93-.1 1.66-.23.02 0 .02 0 .03.02l.01.13v.02l-.03.02-1.35.3c-.06.01-.16.05-.3.11a1.1 1.1 0 0 1-.3.04 1.58 1.58 0 0 0-1.06.17l-.02-.01v-.03l.5-.27c.11-.06.1-.1-.02-.12l-.7-.1c-.02-.01-.03-.02-.03-.04l.06-.15c.07-.15-.02-.53-.06-.75a1.94 1.94 0 0 1 .13-1.13.04.04 0 0 1 .05 0c.59.32.08.83.48 1.21.28.27.59.35.93.26Z" fill="#A69995"/><path d="M11.8 11.49c-.32-.14-.66-.24-.95-.42-.17-.1-.28-.16-.35-.17-.3-.04-.61-.1-.94-.21-.16-.05-.3-.08-.44-.09-.09 0-.1.02-.03.07.1.06.2.1.32.13l1.04.19c.05 0 .16.06.33.15.2.11.34.17.6.28a1 1 0 0 1 .32.2.02.02 0 0 1 0 .02.02.02 0 0 1-.02 0l-.61-.22c-.4-.2-.85-.32-1.35-.35-.02 0-.03 0-.04.02v.02c0 .02 0 .04.03.04l.85.18.01.01-.01.04c-.34.13-.77.08-.97-.24a.1.1 0 0 0-.05-.04c-.17-.09-.35-.12-.5-.2a7.4 7.4 0 0 0-.34-.18c-.06-.02-.07-.07-.08-.12-.01-.02 0-.03.02-.03.05 0 .13.03.25.09h.03s.02 0 .02-.02l.02-.02c.02-.03.01-.05-.02-.06a1.92 1.92 0 0 0-.27-.09c-.11-.03-.22-.1-.33-.25a.11.11 0 0 0-.05-.03.34.34 0 0 0-.14-.02c-.03 0-.04 0-.05-.03 0-.05 0-.1.05-.17l.17-.18a2.99 2.99 0 0 1 1.14-.23c.29.04.42.18.38.44 0 .03-.01.04-.03.03l-.25-.05c-.01 0-.02 0-.03.02v.02l.02.01c.23.13.47.23.73.3l.35.2c.1.08.2.14.33.16.08.02.17.01.27-.02.16-.06.34-.1.53-.12.18-.02.26-.12.3-.3.04-.2.06-.38.19-.57a14.12 14.12 0 0 0 .37-.53.05.05 0 0 1 .04.02c.12.14.17.25.21.44l.17.7c.07.28.04.56-.1.83 0 .02-.01.03-.03.03-.36-.02-.71-.16-1-.26-.1-.03-.2-.03-.27.02-.02.01-.02.02 0 .03a4.23 4.23 0 0 1 .77.4l-.02.02h-.02l-.91-.37a.05.05 0 0 0-.06 0c-.04.05-.08.08-.1.08-.1.02-.1.04 0 .07.18.07.34.18.5.33Z" fill="#9EA0AE"/><path d="m8.23 9.55-.01-.08a.12.12 0 0 1 .11-.13c.03 0 .05 0 .07.02l.12.08.02.01h.02l.26-.07.18-.05c.03-.01.05 0 .04.03v.02a.06.06 0 0 1-.04.05c-.25.1-.5.14-.77.12Z" fill="#56331F"/><path d="m10.63 10.52-.35-.2a1 1 0 0 1-.22-.58.06.06 0 0 1 .04-.06.06.06 0 0 1 .06.01c.14.13.27.26.39.4.13.14.16.29.08.43Z" fill="#79665F"/><path d="M8.15 9.97c-.04.07-.06.12-.05.17 0 .02.02.03.05.03.05 0 .1 0 .14.02.02 0 .04.02.05.03.1.14.22.22.33.25l.27.09c.03.01.04.03.02.06l-.02.02-.02.02h-.03a.68.68 0 0 0-.25-.1c-.02 0-.03.02-.02.04.01.05.02.1.08.12l.34.18c.15.08.33.11.5.2a.1.1 0 0 1 .05.04c.2.32.63.37.97.24.01 0 .02-.02.01-.04l-.01-.01-.85-.18c-.02 0-.03-.02-.03-.04v-.02l.04-.02c.5.03.95.15 1.35.35-.2.44-.48.7-.86.79-.34.07-.87.02-1.26-.03a.6.6 0 0 0-.2.02c-.5.16-.7-.4-.72-.78a.04.04 0 0 1 .03-.04c.14-.02.27-.03.4-.02.22.02.47.13.72.18h.08c.02 0 .02-.02 0-.03l-.32-.22c-.1-.05-.2-.13-.32-.24l-.6-.48c-.01-.27.03-.47.13-.6Z" fill="#8E8A91"/><path d="M7.63 10.78 7 11.2c-.08.01-.16-.02-.24-.1h-.02l-.16.24a.02.02 0 0 0 0 .01.02.02 0 0 0 .01.01l.53.1c.22.01.45-.08.7-.15a.07.07 0 0 1 .1.07c-.02.2-.06.7-.37.67-.21-.02-.53.03-.75 0-.5-.08-.77-.39-.82-.92 0-.02 0-.04.02-.05a1.84 1.84 0 0 1 .63-.16.02.02 0 0 0 0-.02v-.02l-.02-.01c-.27.01-.53.06-.79.14.14-.06.24-.1.3-.11a177.63 177.63 0 0 0 1.38-.32v-.02l-.01-.13c0-.02-.01-.02-.03-.02-.73.14-1.08.23-1.66.23l-.02-.02v-.03a.02.02 0 0 1 0-.02.03.03 0 0 1 .01 0 5.14 5.14 0 0 0 2-.55c0 .23-.05.48-.16.75Z" fill="#97898A"/><path d="m8.02 10.57.6.48c.11.1.22.19.32.24l.33.22c.01.01.01.02-.01.03h-.08a21.5 21.5 0 0 0-1.1-.45c-.28-.09-.6.08-.87.18-.1.03-.17.01-.21-.06l.64-.43c.2-.2.32-.27.38-.21Z" fill="#674753"/><path d="m11.8 11.49.86.4h-.19c-.07-.01-.07 0-.02.05l.48.32a.02.02 0 0 1 0 .03c-.24.05-.37 0-.58-.14a9.64 9.64 0 0 0-.93-.49v.02l-.01.03v.02l.01.01.4.21v.03a.46.46 0 0 1-.17.1c-.26.06-.5.14-.75.24-.3.14-.53.17-.83.15-.38-.04-.71-.08-1.08-.01l-.75.15c-.29.06-.62.25-.89.31-.2.05-.42.05-.67.01l-.83-.15a6.4 6.4 0 0 1-.89-.58c-.22-.19-.4-.4-.55-.63.17-.02.34-.06.5-.14a35.7 35.7 0 0 1 .91-.4c.26-.09.52-.14.8-.15l.01.01v.02a.02.02 0 0 1 0 .02h-.01c-.22.02-.43.07-.62.16-.02.01-.02.03-.02.05.05.53.32.84.82.91.22.04.54 0 .75.01.31.04.35-.46.37-.67a.07.07 0 0 0-.06-.07h-.03c-.26.07-.5.16-.71.14a3.5 3.5 0 0 1-.54-.1v-.01l.16-.24h.02c.08.08.16.11.24.1.04.07.11.09.21.06.26-.1.6-.27.88-.18a17.55 17.55 0 0 1 1.1.45c-.25-.05-.51-.16-.73-.18-.13 0-.26 0-.4.02a.04.04 0 0 0-.03.04c.03.37.21.94.71.78a.59.59 0 0 1 .21-.02c.39.05.92.1 1.26.03.38-.08.66-.35.86-.8l.61.24a.02.02 0 0 0 .03-.01.02.02 0 0 0 0-.02 1 1 0 0 0-.34-.2c-.25-.11-.39-.17-.6-.28-.16-.1-.27-.14-.32-.15-.24-.04-.59-.1-1.04-.2a.8.8 0 0 1-.32-.12c-.06-.05-.06-.07.03-.07.13 0 .28.04.44.09.33.1.64.17.94.2.07.02.18.07.35.18.29.18.63.28.95.42Z" fill="#887672"/><path d="M13.94 11.42c-.22.45-.5.87-.84 1.25-.4-.07-.71-.08-.91-.04-.4.08-.72.41-1.04.64-.3.21-.5.11-.8.01l-1.03-.35a1.38 1.38 0 0 0-.37-.1c-.32 0-.43.08-.72.2-.69.3-1.54.05-2.23-.1a.2.2 0 0 1-.08-.06c-.01-.01 0-.02.01-.01l.32.07-.4-.15.83.15c.25.04.47.04.67-.01.27-.06.6-.25.89-.31l.75-.15c.37-.07.7-.03 1.08 0 .3.03.53 0 .83-.14.24-.1.5-.18.75-.23.04-.01.1-.04.17-.1v-.04l-.4-.21-.01-.01v-.05a.03.03 0 0 1 .02-.03h.03c.3.15.6.32.89.5.2.13.34.19.58.14a.02.02 0 0 0 .01-.02v-.01l-.49-.32c-.05-.04-.05-.06.02-.06l.2.01.44.25c.03.02.05 0 .06-.02.12-.36.35-.64.77-.7Z" fill="#775B4C"/><path d="M4.96 12.2c.28.22.57.4.89.58l.4.15-.32-.07c-.02 0-.02 0 0 .01a.2.2 0 0 0 .07.06c.17.36.37.7.6 1.02a5.5 5.5 0 0 1-2.3-2.1 8.5 8.5 0 0 0 .6.43c.02 0 .02-.02.01-.02a1.45 1.45 0 0 0-.21-.2h.01l.25.14Z" fill="#56331F"/><path d="M13.1 12.67a5.5 5.5 0 0 1-6.5 1.28 6.44 6.44 0 0 1-.6-1.02c.69.15 1.54.4 2.23.1.29-.12.4-.2.72-.2.08.01.2.04.37.1l1.03.35c.3.1.5.2.8 0 .32-.24.63-.57 1.04-.65.2-.04.5-.03.91.04Z" fill="#674833"/><defs><linearGradient id="a" x1="3.35" y1="3.12" x2="21.9" y2="24.43" gradientUnits="userSpaceOnUse"><stop stop-color="#1A1E21"/><stop offset="1" stop-color="#06060A"/></linearGradient></defs></svg>