<!-- by TradingView --><svg width="18" height="18" viewBox="0 0 18 18" xmlns="http://www.w3.org/2000/svg"><path fill="url(#a)" d="M0 0h18v18H0z"/><path d="M9.33 6.5c0 1.1-.46 1.83-1.08 2.27a3.1 3.1 0 0 1-1.75.56H4v1.34C4 12.5 5.5 14 7.33 14h1v-2.83c0-1.1.47-1.83 1.09-2.28a3.1 3.1 0 0 1 1.75-.56H14v-1C14 5.5 12.5 4 10.67 4H9.33v2.5Z" fill="#34A853"/><path d="M8.33 4v2.5c0 .77-.3 1.2-.66 1.46a2.1 2.1 0 0 1-1.17.37H4v-1C4 5.5 5.5 4 7.33 4h1Z" fill="#FC0"/><path d="M14 9.33h-2.83c-.31 0-.79.1-1.17.38-.36.25-.67.69-.67 1.46V14h1.34C12.5 14 14 12.5 14 10.67V9.33Z" fill="#EA4336"/><defs><linearGradient id="a" x1="3.35" y1="3.12" x2="21.9" y2="24.43" gradientUnits="userSpaceOnUse"><stop stop-color="#1A1E21"/><stop offset="1" stop-color="#06060A"/></linearGradient></defs></svg>