<!-- by TradingView --><svg width="18" height="18" viewBox="0 0 18 18" xmlns="http://www.w3.org/2000/svg"><path fill="#181B1E" d="M0 0h18v18H0z"/><path d="M4.94 9 4 9.67V8.33l.94.67ZM6 4.5 7 4v1l-1-.5ZM4 5.87 5 5v1.13L4 7V5.87ZM5 7.24 7 6v1.76L5 9V7.24ZM12 4.5 11 4v1l1-.5ZM9 3l-1 .5L9 4l1-.5L9 3ZM14 5.87 13 5v1.13L14 7V5.87Z" fill="#EEE93B"/><path d="M13 7.24 11 6v1.76L13 9V7.24Z" fill="#D3CF38"/><path d="m9 5 1 1-1 1-1-1 1-1ZM6 13.5l1 .5v-1l-1 .5ZM12.98 9 14 8.4v1.2L12.98 9ZM4 12.13 5 13v-1.13L4 11v1.13ZM5 10.76 7 12v-1.76L5 9v1.76ZM12 13.5l-1 .5v-1l1 .5ZM9 15l-1-.5 1-.5 1 .5-1 .5ZM14 12.13 13 13v-1.13l1-.87v1.13Z" fill="#EEE93B"/><path d="M13 10.76 11 12v-1.76L13 9v1.76ZM9 13l1-1-1-1-1 1 1 1Z" fill="#EEE93B"/><path d="M9 10.2V7L7 8.02v2.08l1 .5 1-.4ZM9 7.8V11l2-1.02V7.9l-1-.5-1 .4Z" fill="#B9B859"/><path d="M9 9.2V8.16L7 9.25l1 .5 1-.55ZM9 9.16v1.04l2-1.1-1-.5-1 .56Z" fill="#EEE93B"/></svg>