<!-- by TradingView --><svg width="18" height="18" viewBox="0 0 18 18" xmlns="http://www.w3.org/2000/svg"><path fill="url(#a)" d="M0 0h18v18H0z"/><path d="M12.32 5.27c-.3-.03-.6 0-.87.07a.06.06 0 0 0-.04.05.41.41 0 0 0 0 .18 1.49 1.49 0 0 0-.39-.35 4.4 4.4 0 0 0-1.38-.47 2.58 2.58 0 0 0-2.91.38c.05-.2.13-.4.25-.57.05-.07.08-.07.1.01l.01.1a.03.03 0 0 0 .03.02.03.03 0 0 0 .03-.01l.4-.47a5 5 0 0 1 4.77 1.06Z" fill="#B0976B"/><path d="m7.56 4.21-.4.47a.04.04 0 0 1-.04 0 .03.03 0 0 1-.03-.02l-.02-.09c-.01-.08-.04-.08-.09-.01-.12.18-.2.37-.25.57-.02.09-.04.14-.08.17a.04.04 0 0 1-.05 0 .05.05 0 0 1-.02-.04c0-.1 0-.16-.04-.2-.1-.12-.14-.1-.14.05v.37a.08.08 0 0 1-.02.06c-.14.14-.1.4-.04.58 0 .03.02.07.01.1 0 .04 0 .06-.03.05a.18.18 0 0 1-.11-.1l.04-.53c0-.03 0-.04-.03-.03-.3.14-.6.23-1.03.39a.57.57 0 0 0-.3.23l-.13.12a4.93 4.93 0 0 1 2.8-2.14Z" fill="#C8B6B1"/><path d="M9.64 4.75a22.7 22.7 0 0 0-.9-.08c-.35-.03-.66.04-.93.21a.18.18 0 0 0-.08.03l-.45.13-.06-.01c-.05-.03-.1-.03-.13-.01-.03.01-.05.05-.08.1a.88.88 0 0 1-.33.36.06.06 0 0 1-.06 0 .06.06 0 0 1-.03-.04l-.07-.36c0-.02-.01-.03-.03-.03h-.02c-.01 0-.02.01-.02.03l.05.86c0 .09-.02.09-.07 0a.73.73 0 0 1-.04-.11.04.04 0 0 0-.02-.02h-.02c-.02 0-.03 0-.03.02l.02.3c-.06-.2-.1-.45.04-.59a.08.08 0 0 0 .03-.06V5.1c0-.15.04-.17.13-.05.03.04.05.1.04.2a.05.05 0 0 0 .02.04.04.04 0 0 0 .05 0c.04-.03.06-.08.08-.17a2.58 2.58 0 0 1 2.91-.38Z" fill="#847049"/><path d="M11.6 4.96h.01c.01.04 0 .06-.05.08-.04.01-.11 0-.21-.03a9.3 9.3 0 0 1-1.06-.42l.01-.02h.02c.23 0 .48.14.64.19.37.1.59.17.65.2Z" fill="#CFAD6E"/><path d="M10.72 5.19c-.34.19-.51.27-.68.55-.02.02-.04.03-.06.02a.8.8 0 0 1-.23-.19 2.58 2.58 0 0 0-1.71-.22 26.73 26.73 0 0 0-.4.06l.01-.02c.01-.03.03-.04.05-.05l.56-.18c.1-.03.1-.07 0-.1-.4-.13-.72 0-.97.38-.14.2-.29.45-.46.77-.1.19-.22.31-.36.37a.27.27 0 0 1-.03-.1c0-.03.02-.05.06-.07.15-.07.22-.2.21-.37 0-.03 0-.05.02-.07.1-.16.2-.26.24-.44 0-.02 0-.05-.02-.07a.1.1 0 0 1-.02-.06c0-.03.02-.05.04-.06l.76-.43a6.42 6.42 0 0 1 1.42-.09c.24.01.5.06.8.14l.77.23Z" fill="#162109"/><path d="m7.73 4.9-.76.44a.07.07 0 0 0-.04.06c0 .02 0 .04.02.06.02.02.02.05.02.07-.04.18-.15.28-.24.44a.12.12 0 0 0-.02.07c.01.18-.06.3-.21.37-.04.02-.07.04-.06.07l.03.1-.06.44-.03.06-.12.18.04-.13c.06-.07.08-.14.05-.23a.77.77 0 0 1 0-.37c0-.02 0-.04-.02-.06l-.05-.1c-.02-.03-.01-.04.02-.05.03 0 .05-.02.06-.04v-.06l-.02-.1-.02-.29c0-.02.01-.03.03-.03h.02a.04.04 0 0 1 .02.03l.04.12c.05.08.07.08.07-.01l-.05-.86c0-.02 0-.02.02-.02h.02c.02 0 .03 0 .03.02l.07.36a.06.06 0 0 0 .03.04.06.06 0 0 0 .06 0c.14-.09.25-.2.32-.35.04-.06.06-.1.09-.11.04-.02.08-.02.13.01.02.01.04.02.06.01l.45-.13Z" fill="#67542E"/><path d="M9.75 5.57c-.06.09-.15.12-.26.1-.7-.09-1.35.02-1.94.33-.13.07-.29.1-.41.16a.05.05 0 0 0-.02.08l.61.62a.01.01 0 0 1 0 .02L7.4 7c-.04.01-.03.02 0 .02.83.03 1.52.13 2.23-.26.26-.1.47-.1.64-.05.46.16.79.25 1.25.07l.03-.06v.09c0 .02-.01.04-.04.05-.47.15-.86.1-1.3-.01a.96.96 0 0 0-.48 0c-.29.08-.62.2-1 .37-.38-.03-.93-.12-1.25-.04a3.06 3.06 0 0 0-.68.28v.03l.08.3-.24.07c-.03.01-.05 0-.06-.03l-.06-.18a.04.04 0 0 0-.03-.02l-.03-.01c-.02 0-.03 0-.04.02l-.03.08v-.14a.05.05 0 0 0-.04-.05l-.08-.03a.05.05 0 0 1-.03-.02v-.04l.02-.18.12-.18a.15.15 0 0 0 .03-.06l.06-.44a.79.79 0 0 0 .36-.37c.17-.32.32-.58.46-.77.25-.38.58-.5.97-.38.1.03.1.07 0 .1l-.56.18a.07.07 0 0 0-.05.05v.04l.39-.08a2.58 2.58 0 0 1 1.7.22Z" fill="#3F5B3B"/><path d="m11.5 5.62.25.13c.02.16-.07.24-.26.24-.07.04-.07.02-.01-.05.02-.02.01-.03 0-.04a.08.08 0 0 0-.05-.01.17.17 0 0 0-.07.02.12.12 0 0 1-.12.01.88.88 0 0 0-.1-.04c-.09 0-.16 0-.2.04a.07.07 0 0 0-.03.06c0 .13.02.25.09.35.01.02.03.03.06.03l.55.04c0 .04 0 .08.03.12 0 .03 0 .04-.03.04-.17-.02-.23.02-.2.1-.3.03-.59 0-.86-.08-.1-.03-.1-.06 0-.08l.1-.03c.05-.01.05-.03 0-.04l-.55-.15a.1.1 0 0 0-.07 0l-.16.1c-.03 0-.02.02 0 .04l.44.2c.38.21.79.24 1.2.16-.45.18-.78.09-1.24-.07-.17-.06-.38-.04-.64.05l.12-.1c.05-.06.05-.07-.02-.06-.44.08-.78.12-1.28.08a60.93 60.93 0 0 1-.77-.05v.02c0 .02 0 .03.02.03.67.32 1.23.31 1.93.08-.7.4-1.4.29-2.22.26-.04 0-.05 0 0-.02l.32-.12a.01.01 0 0 0 0-.02l-.61-.62a.05.05 0 0 1 .02-.08L7.55 6a3.13 3.13 0 0 1 1.94-.32c.11.01.2-.02.26-.1a.8.8 0 0 0 .23.18c.02 0 .04 0 .06-.02.17-.28.34-.36.68-.55.22.09.41.23.57.41.02.02.04.03.07.03h.14Z" fill="#2C3F20"/><path d="m12.32 5.27.06.04-.95.27-.02-.01a.41.41 0 0 1 0-.18c0-.03.02-.05.04-.05.27-.07.56-.1.87-.07Z" fill="#F4D1A4"/><path d="m13.14 6.2-.01.09a.05.05 0 0 1-.05.03h-1.32c-.02 0-.03 0-.03-.03 0-.06 0-.13.03-.2l.06.08c.11.04.14 0 .08-.1a.43.43 0 0 1-.06-.21c0-.05-.03-.09-.09-.11l-.25-.13-.07-.04.95-.27c.29.27.54.56.76.88Z" fill="#FDF7DB"/><path d="m6.2 6.17-.1-.1c-.02-.03-.04-.03-.05 0v.05a1.38 1.38 0 0 0 .2.33.03.03 0 0 1-.02.04c-.37.13-.75.05-1.3 0a.29.29 0 0 1-.2-.1l.03-.04c.04-.04.1-.07.12-.12.07-.1.17-.18.3-.23.44-.16.74-.25 1.04-.39.02 0 .03 0 .03.03l-.04.53Z" fill="#F5DABC"/><path d="M11.76 6.1c-.09-.1-.16-.1-.22-.02-.04 0-.05-.03-.05-.09.2 0 .28-.08.26-.24.06.02.08.06.09.1 0 .09.02.16.06.23.06.1.03.13-.08.1l-.06-.08Z" fill="#9E8F89"/><path d="m9.36 6 .01.06c0 .06-.01.1-.03.14a.25.25 0 0 1-.23.15 15.75 15.75 0 0 1-.81-.03.08.08 0 0 1-.03-.05l-.02-.24c.02-.03.01-.06-.02-.1l.03.03c.03.02.04.02.04-.02v-.05c0-.03.01-.04.04-.06a.09.09 0 0 1 .06 0c.05.01.09.09.14.12h.06l.17-.04c.03.01.07 0 .1-.03.03-.08.07-.11.13-.09.08.03.2.1.36.22Z" fill="#0D0F0E"/><path d="M8.87 5.88c-.03.03-.07.04-.1.03-.04-.07-.02-.1.05-.1.02 0 .04.01.05.04v.03Z" fill="#696868"/><path d="M9.98 6.17a.9.9 0 0 1-.56.1c-.02 0-.03-.02-.03-.04a.25.25 0 0 0-.02-.17v-.05c-.01-.04-.02-.07-.04-.09-.05-.03-.04-.05.02-.04.25.03.47.13.63.29ZM8.23 5.93c.03.04.04.07.02.1l-.02.19c0 .02-.01.04-.04.04l-.5-.02c-.13 0-.14-.04-.04-.1.16-.12.35-.2.58-.21Z" fill="#C8B6B1"/><path d="M11.06 5.97h.1c.03.01.03.03.02.05a.25.25 0 0 1-.1.08c-.03.02-.05 0-.06-.02-.02-.04 0-.08.04-.1Z" fill="#696868"/><path d="m10.37 6.28-.2-.03c-.03 0-.04-.02-.02-.04a.14.14 0 0 1 .07-.06 5.22 5.22 0 0 1 .62-.18l.01.01v.03c0 .08.02.16.06.25.02.05 0 .08-.04.09a.67.67 0 0 1-.5-.07Z" fill="#C8B6B1"/><path d="M9.05 6.14c.08 0 .14-.05.14-.09 0-.04-.08-.06-.15-.05-.08 0-.14.04-.14.08s.07.07.15.06Z" fill="#9E8F89"/><path d="M11.76 6.1a.49.49 0 0 0-.03.2c0 .01 0 .02.03.02h1.32c.02 0 .04-.01.05-.03a.15.15 0 0 0 0-.1l.12.17-1.3.1a.08.08 0 0 0-.06.04c-.06.08-.11.08-.17.01l-.03-.1v-.07a.34.34 0 0 0-.01-.2c-.02-.02-.06-.04-.14-.06.06-.09.13-.08.22.02Z" fill="#F4D1A4"/><path d="M6.2 6.17c.03.05.07.09.12.1.02.01.04 0 .03-.05.02.02.02.05.01.06-.01.02-.03.03-.06.04-.03 0-.04.02-.02.05l.05.1c.02.02.02.04.02.06a.77.77 0 0 0 0 .37c.03.1 0 .16-.05.23a.45.45 0 0 0 0-.18c0-.02-.01-.02-.03-.02h-.46c-.08 0-.12.03-.12.1 0 .24.03.47.12.68.01.02.03.03.06.01L6 7.61l-.05.25-.14.14a.07.07 0 0 1-.12-.04l-.1-.61c-.01-.07-.03-.07-.04 0l-.2.76-.05.05a.35.35 0 0 1-.12.04c-.03 0-.05-.01-.06-.04a2.5 2.5 0 0 1-.3-1.07.1.1 0 0 1 .07-.1l.47-.15c.2.04.4.04.63 0l.06-.03v-.05a.16.16 0 0 0-.12-.09c-.45-.03-.8 0-1.29-.14l.08-.13c.05.05.11.09.2.1.55.04.93.12 1.3 0a.03.03 0 0 0 .02-.06c-.1-.13-.17-.23-.2-.32v-.05c.01-.03.03-.03.05 0l.1.1Z" fill="#C49C80"/><path d="m9.98 6.17.01.06c0 .02-.02.04-.04.05a1.82 1.82 0 0 1-.6.11.06.06 0 0 1-.03-.04v-.03l.02-.12a.35.35 0 0 0 .03-.14c.03.05.03.1.02.17 0 .02 0 .04.03.04a.9.9 0 0 0 .56-.1Z" fill="#696868"/><path d="M11.37 6.27c.08.03.16.03.17 0 .02-.04-.04-.1-.12-.13-.08-.04-.16-.03-.17 0-.02.04.04.1.12.13Z" fill="#937580"/><path d="M11.72 6.51c-.03.12-.04.2 0 .25l.24.27a.06.06 0 0 1 .02.05.06.06 0 0 1-.03.04c-.07.03-.1.08-.1.14l-1.13.01-2-.05c.39-.17.72-.3 1-.37a.96.96 0 0 1 .48 0c.45.1.84.16 1.31 0 .03 0 .04-.02.04-.04v-.1c-.01-.02-.06-.04-.13-.04-.04-.09.02-.13.2-.11.02 0 .03-.01.02-.04a.34.34 0 0 1-.03-.12.38.38 0 0 0 .07-.26c.02.07.03.14 0 .2v.08l.04.1Z" fill="#4D6E49"/><path d="m13.52 6.86-.47-.06a.23.23 0 0 0-.26.25l.03.67c-.03-.36-.11-.55-.24-.55-.12-.2-.29-.29-.51-.25l-.28-.22a.05.05 0 0 0-.07.03v.03c-.04-.05-.03-.13 0-.25.06.07.11.07.17-.01a.08.08 0 0 1 .06-.04l1.3-.1c.1.16.19.33.27.5Z" fill="#A48052"/><path d="m5.37 6.84-.8.14c-.02-.09-.06-.1-.11-.06.06-.14.12-.26.2-.39.49.14.83.11 1.28.14a.16.16 0 0 1 .13.1l-.01.04a.08.08 0 0 1-.06.04c-.22.03-.43.03-.63 0Z" fill="#7B605C"/><path d="M9.63 6.76C8.93 7 8.37 7 7.7 6.68a.03.03 0 0 1-.02-.03v-.02l.02-.01.75.06c.5.04.84 0 1.28-.08.07-.01.07 0 .02.05l-.12.11Z" fill="#162109"/><path d="M12.07 6.92c.13.17.3.21.38.45.01.02 0 .05-.02.06-.03.02-.08.03-.14.01l-.4-.03c-.04 0-.04-.02-.02-.04l.08-.02h.07c.03-.03.02-.05 0-.06a.47.47 0 0 0-.17-.03c0-.06.03-.1.1-.14a.06.06 0 0 0 .03-.04.06.06 0 0 0-.02-.05l-.25-.27v-.03a.05.05 0 0 1 .06-.04l.02.01.28.22Z" fill="#C8B6B1"/><path d="m13.52 6.86.04.1c-.1.22-.15.64.23.62.05.17.1.34.13.52a2.4 2.4 0 0 1-.98 0 .06.06 0 0 1-.05-.04l-.07-.34-.03-.67a.23.23 0 0 1 .26-.25l.47.06Z" fill="#B0976B"/><path d="m5.37 6.84-.47.14a.1.1 0 0 0-.07.1c.02.39.12.75.3 1.08.01.03.03.04.06.04.04 0 .08-.02.12-.04a.08.08 0 0 0 .04-.05l.2-.76c.02-.07.04-.07.05 0l.1.61a.07.07 0 0 0 .12.04l.14-.14c-.08.14-.18.26-.32.36l-.56.17-.2-.32a.08.08 0 0 1-.02-.04l-.02-.06c-.02-.03-.04-.03-.06 0a1.07 1.07 0 0 1-.4.36.06.06 0 0 1-.06-.04l-.16-.53c.03-.13.07-.27.12-.4.02.22.07.42.16.6a.06.06 0 0 0 .11 0c.15-.35.16-.67.02-.98l.8-.14Z" fill="#A17E6C"/><path d="m12.58 7.17-.1.96c0 .02-.01.04-.04.04-.32.09-.62.1-.92.27a.32.32 0 0 1-.17-.22l.1-.01a.8.8 0 0 0 .28-.22.06.06 0 0 0-.03-.1l-.39-.07h.19c0 .02 0 .04.02.05h.01l.62.04.03-.01.02-.03v-.1a.06.06 0 0 0-.03-.05.07.07 0 0 0-.06 0 .52.52 0 0 1-.43.1c.06 0 .12-.02.16-.04.03-.01.03-.03 0-.04l-.03-.01c-.04-.02-.04-.04 0-.05l.41-.13c.04 0 .07-.01.1-.03.03-.02.03-.04 0-.06l-.03-.02c.06.02.1.01.14-.01.02-.01.03-.04.02-.06-.08-.24-.25-.28-.38-.45.22-.04.39.04.5.25Z" fill="#C49C80"/><path d="M13.23 7.37c0-.12-.02-.25-.07-.38a.12.12 0 0 0-.12-.08c-.31.02-.12.49-.04.62l.06.03c.09-.02.15-.08.17-.19.06.18.02.35-.1.5a.07.07 0 0 1-.12-.02 1.74 1.74 0 0 1-.18-.78c0-.11.07-.18.2-.2l.02-.01c.13 0 .2.05.2.17.02.13.01.25-.02.34Z" fill="#D3B195"/><path d="M4.57 6.98c.14.3.13.63-.02.97a.06.06 0 0 1-.11 0 1.8 1.8 0 0 1-.16-.59l.1-.26c0 .2 0 .37.04.5.03.1.07.1.11 0 .1-.2.06-.4-.1-.6 0-.03.01-.06.03-.08.05-.05.09-.03.1.06Z" fill="#C49C80"/><path d="M5.31 7.69a.05.05 0 0 1-.02.03.05.05 0 0 1-.05 0 .68.68 0 0 1-.35-.54c-.02-.15.04-.22.19-.22h.22c.16 0 .22.08.17.23l-.16.5ZM6.3 7.13l-.04.13-.05.11c-.05.1-.15.13-.2.24a.56.56 0 0 1-.14.11c-.03.02-.05.01-.06-.01-.09-.21-.13-.44-.12-.67 0-.08.04-.11.12-.11h.46c.02 0 .03 0 .03.02v.18ZM13.23 7.37c-.02.11-.08.17-.17.19-.02 0-.04 0-.06-.03-.08-.13-.27-.6.04-.62a.12.12 0 0 1 .12.08c.05.13.07.26.07.38Z" fill="#F4D1A4"/><path d="M13.56 6.95c.1.2.17.42.23.63-.38.02-.33-.4-.23-.63Z" fill="#CFAD6E"/><path d="m4.38 7.1.04-.1c.17.2.2.4.11.6-.04.1-.08.1-.11 0-.03-.13-.05-.3-.04-.5Z" fill="#D3B195"/><path d="m12.82 7.72.07.34c0 .03.02.04.05.05.32.06.64.06.98-.01A5 5 0 0 1 14 9.17a.76.76 0 0 0-.55-.26 44.62 44.62 0 0 0-1.47 0 .04.04 0 0 0 0 .04l.13.15-.4-.34c-.03-.05-.08-.07-.16-.07.02-.05.02-.1.02-.12l-.05-.13c.3-.18.6-.18.92-.27.03 0 .04-.02.04-.04l.1-.96c.13 0 .21.19.24.55Z" fill="#8C746D"/><path d="m8.73 7.22 1.99.05a5.6 5.6 0 0 1-1 .08c-.66 0-1.31-.03-1.96-.08-.14-.01-.8.04-.9.24-.03.07-.02.14.05.21.01.02.04.03.06.04 1.17.18 2.04.27 2.6.28a44.73 44.73 0 0 0 1.73-.03v.02c0 .01 0 .02-.02.02h-.16c-.04.01-.04.02 0 .03l.33.13h-.1l-.26.02a.06.06 0 0 0-.05.04l-.2.53h-.1l-.02-.02v-.01h-.02V8.87c0 .03-.01.03-.04.02h-.02l-.02-.01a.04.04 0 0 1 0-.06l.14-.23c.05-.09.04-.22.1-.27.07-.06.06-.1-.03-.1-.7-.03-1.46.03-2.14-.04-.6-.05-1.26-.1-1.81-.38l-.08-.3v-.03l.02-.03c.22-.1.44-.2.66-.25.32-.08.87.01 1.25.04Z" fill="#593927"/><path d="M11.85 7.26c.06 0 .12 0 .16.03.03.01.04.03.01.05-.01.01-.04.02-.07.01-.03 0-.06 0-.08.02-.02.02-.02.04.01.04l.4.03.04.02c.03.02.03.04 0 .06a.18.18 0 0 1-.1.03c-.2-.04-.34-.06-.4-.05-.73.03-1.48-.03-2.16-.02-.6 0-1.04 0-1.32-.03a9.27 9.27 0 0 0-1.19-.04.18.18 0 0 0-.18.13l-.01.05c-.03.07 0 .12.07.12l1.22.14c.72.06 1.4.07 2.08.02.4-.03.74-.05.98-.05l.39.08a.06.06 0 0 1 .03.1.8.8 0 0 1-.28.2l-.33-.12c-.04-.01-.04-.02 0-.02l.16-.01c.01 0 .02 0 .02-.02v-.02c-.9.03-1.48.04-1.72.03a21.72 21.72 0 0 1-2.67-.32c-.07-.07-.08-.14-.05-.2.1-.2.76-.26.9-.25.65.05 1.3.08 1.96.08.34 0 .67-.02 1-.08l1.13-.01Z" fill="#845045"/><path d="m6.26 7.26-.03.18.01.04.03.02.08.03c.03 0 .04.02.04.05v.14l-.03.18c-.18.15-.38.25-.62.3l-.1.02c.14-.1.24-.22.32-.36l.05-.25c.05-.1.15-.14.2-.24l.05-.11Z" fill="#826245"/><path d="m12.22 7.55-.4.13c-.05.01-.05.03 0 .05l.02.01c.03.01.03.03 0 .04a.37.37 0 0 1-.16.04h-.19a.8.8 0 0 0-.37-.11c-.54-.02-1.19.04-1.65.04-.77.02-1.44-.07-2.17-.15-.03 0-.04 0-.03.03v.04a.05.05 0 0 0 .04.04l.94.14-1.22-.14c-.08 0-.1-.05-.07-.12l.02-.05a.18.18 0 0 1 .17-.13c.32-.01.72 0 1.19.04.28.03.72.04 1.32.03.68-.01 1.43.05 2.17.02.05 0 .18.01.4.05Z" fill="#6F2D26"/><path d="M6.88 7.8c.55.26 1.2.32 1.8.37.7.07 1.46.01 2.15.04.09 0 .1.04.04.1-.07.05-.06.18-.11.27a12.4 12.4 0 0 0-.15.27.04.04 0 0 0 .03.03h.02c.03.01.04 0 .04-.02v-.07a.02.02 0 0 1 0-.02h.01l.01.01.02.01.1.01.03.1.04.04c.04.02.05.06.03.11l-.06.15c-.04.05-.06.08-.09.08l-.67.09h-.35a.06.06 0 0 1-.06-.03l-.11-.18a1.14 1.14 0 0 0-.77-.44c-.97-.1-1.8-.24-2.5-.44a.3.3 0 0 0-.1 0l-.18.02c-.02 0-.03-.01-.03-.03v-.04h.02c.18-.05.3-.16.32-.33l.03-.18.03-.08c.01-.02.02-.03.04-.02h.03l.03.03.06.18c.01.03.03.04.06.04l.24-.08Z" fill="#162109"/><path d="M11.49 7.82h-.18c-.24 0-.57.02-.98.05-.67.05-1.36.04-2.08-.02l-.94-.14a.05.05 0 0 1-.04-.04v-.04c0-.03 0-.04.03-.03.73.08 1.4.17 2.17.15.46 0 1.11-.06 1.65-.04a.8.8 0 0 1 .37.1Z" fill="#440408"/><path d="M11.5 7.82h.18c.16.03.3 0 .43-.1a.06.06 0 0 1 .1.05v.1a.06.06 0 0 1-.06.04l-.62-.04c-.03-.01-.04-.03-.03-.05Z" fill="#F4D1A4"/><path d="m4.16 7.76.16.53a.06.06 0 0 0 .08.04c.16-.09.28-.2.38-.36.02-.03.04-.03.06 0l.02.06.01.04.21.32c-.3.29-.66.5-1.08.61 0-.42.05-.83.16-1.24Z" fill="#7B605C"/><path d="M6.36 7.9c-.03.17-.14.28-.32.33h-.02v.04c0 .02 0 .03.02.03l.18-.02c.09.07.2.13.32.16.79.22 1.57.36 2.33.43a1.07 1.07 0 0 1 .68.37.03.03 0 0 0 .04-.01v-.07l.12.18c.01.02.03.03.06.03h.35l-.42.1c-.02 0-.02.02 0 .03v.03h.03l.96-.1c.03 0 .05-.01.06-.04a.16.16 0 0 0 .04-.1c.03-.01.05-.04.09-.09l-.02.24c0 .02-.02.04-.04.04l-1.37.2c0-.02 0-.03.03-.05.02 0 .02-.02.02-.04s-.02-.02-.04-.02a9.23 9.23 0 0 1-1.1-.1c-.37-.06-.86-.2-1.3-.28l.07-.09c.02-.02.01-.04-.02-.05-.36-.11-.68-.18-1.03-.39-.02-.01-.04 0-.05.01L6 8.7v.03l.25.25-.45-.2c.1-.08.1-.15 0-.22a.04.04 0 0 1 0-.05c.07-.11.1-.2.08-.25 0-.02-.03-.03-.07-.05a.45.45 0 0 0-.08 0c.24-.06.44-.16.62-.31Z" fill="#724E36"/><path d="m5.74 8.2.08.01c.04.02.07.03.07.05.02.05-.01.14-.09.25a.04.04 0 0 0 .01.05c.1.07.1.14 0 .23-.33-.1-.7-.17-.94.01-.05.05-.04.07.03.08a2.42 2.42 0 0 1 1.48.6v.02c-.02.02-.03.02-.05 0-.38-.3-.76-.45-1.13-.46a7.5 7.5 0 0 0-1.2.13V9c.42-.12.78-.32 1.08-.61l.56-.17.1-.02Z" fill="#9A1D26"/><path d="M11.35 8.22c.03.1.08.17.17.22l.05.13c-.06-.03-.1-.04-.15 0a1.78 1.78 0 0 0-.22.2.05.05 0 0 0 .02.06l.2.15V9l-.02.02v.02l-.02.02h-.02L11.15 9a.03.03 0 0 1-.03-.03.04.04 0 0 1 .02-.03c.06-.03.1-.01.14.04a.19.19 0 0 0-.1-.15c-.03-.02-.05-.01-.06.01-.05.09-.06.16-.03.23.05.08.1.14.15.17.02.01.07 0 .15-.01.02.04.02.08 0 .12v-.04a.42.42 0 0 0-.37.12c-.02.02-.02.04 0 .06.02.02.05.02.1.02-.24.08-.49.14-.74.17l-.71.11c-.65.13-1.26.11-1.9.1-.03 0-.06.01-.08.03-.02.02-.03.05-.02.1.05.06.1.12.18.16.02.02.04.02.06 0l.25-.12h.05a38 38 0 0 1-.13.12v.01h.08v.02l-.68.01v.02c.48 0 1.07.07 1.4.47l-.3-.11a.04.04 0 0 0-.03 0 .05.05 0 0 0-.03.03c0 .02 0 .04.02.07l-.96-.31a.03.03 0 0 0-.02 0 .03.03 0 0 0-.01.03c.07.29-.06.4-.39.34a.5.5 0 0 1-.29-.23.72.72 0 0 0-.1-.25.12.12 0 0 0-.06-.04l-.27-.1.12.03c.03 0 .04-.02.03-.05l-.02-.05.25.12c.03.02.05.02.08 0l.15-.08c.03-.01.03-.03 0-.05-.12-.12-.12-.23 0-.35.13-.1.28-.14.46-.08.5.1.98.13 1.4.09.28-.03.45-.04.54-.03l1.37-.2c.02-.01.04-.03.04-.05l.02-.24.06-.15c.02-.05.01-.09-.03-.1a.1.1 0 0 1-.04-.06l-.03-.09.2-.53c0-.02.02-.03.05-.04l.26-.01Z" fill="#B0976B"/><path d="M10.95 8.94c-.01-.21.04-.44.15-.68 0-.01 0-.02.02-.02l.02.01v.03c-.03.22-.07.44-.13.66-.03.11-.05.1-.06 0Z" fill="#724E36"/><path d="m11.1 8.72.16-.43c.02-.06.03-.06.03 0l.01.28a.07.07 0 0 1-.03.06l-.14.11c-.04.03-.05.02-.04-.02Z" fill="#847049"/><path d="m9.6 9.16-.01.07a.03.03 0 0 1-.05 0 1.07 1.07 0 0 0-.67-.36c-.76-.07-1.54-.2-2.33-.43a.79.79 0 0 1-.32-.16.3.3 0 0 1 .12 0c.69.2 1.52.35 2.49.44.29.03.54.18.77.44Z" fill="#B0976B"/><path d="M11.57 8.57c0 .03 0 .07-.02.12v.16l-.03.06a.36.36 0 0 0-.1.19c-.04.03-.05.07-.03.13-.08.02-.13.02-.15.01a.43.43 0 0 1-.15-.17c-.03-.07-.02-.14.03-.23.01-.02.03-.03.06-.01.06.03.1.08.1.15-.03-.05-.08-.07-.14-.04a.03.03 0 0 0-.01.05l.02.01.2.06h.03l.01-.02v-.02s.02 0 .03-.02v-.02l-.2-.15a.05.05 0 0 1-.03-.04.05.05 0 0 1 .02-.04c.05-.06.12-.12.21-.18.05-.04.1-.03.15 0Z" fill="#CFAD6E"/><path d="m5.81 8.79.45.19.06.05.04.35c0 .03.02.05.04.06.06.04.11.09.15.14.02.02.02.03 0 .05l-.03.02h-.05a2.62 2.62 0 0 0-1.19-.33c-.39 0-.92.05-1.26-.14.58-.1.98-.15 1.18-.14.37.01.75.17 1.13.47l.04-.01.01-.02v-.01c-.46-.4-.9-.54-1.48-.59-.07 0-.08-.03-.03-.08.24-.18.61-.11.94-.01Z" fill="#77040C"/><path d="m7.07 9.2-.55-.14-.2-.03-.06-.05-.25-.25V8.7l.02-.03c.01-.02.03-.02.05 0 .35.2.67.27 1.03.38.03.01.04.03.02.05l-.06.1Z" fill="#593927"/><path d="M11.7 8.76c.13.2.25.42.36.64.08.17.33.19.37.34.1.37.2.82.28 1.33.03.16.08.36.15.59l.04.47c-.1.13-.21.25-.33.37a5.5 5.5 0 0 0-.14-2.44c-.04-.15-.07-.14-.07.01l-.02.48c0 .14-.02.14-.05 0a9.08 9.08 0 0 0-.11-.43c-.1-.38-.32-.63-.62-1-.03-.04-.08-.05-.13-.02a.37.37 0 0 1 .1-.2.09.09 0 0 0 .02-.05v-.16c.08 0 .13.02.15.07Z" fill="#9A1D26"/><path d="M7.24 8.85a.44.44 0 0 1-.05.05c-.03.02-.05.01-.06-.01-.02-.04-.01-.07.02-.12.04-.04.08-.05.11-.04.03.01.04.03.02.06l-.04.06Z" fill="#B0976B"/><path d="m12.11 9.1.04.04c.34.46.6.89.68 1.42l.03 1.1a4.39 4.39 0 0 1-.15-.59c-.09-.51-.18-.96-.28-1.33-.04-.15-.29-.17-.37-.34-.1-.22-.23-.43-.36-.64l.41.34Z" fill="#B23236"/><path d="M7.52 8.86a.57.57 0 0 0-.1.14c0 .04-.02.06-.03.05h-.03A.04.04 0 0 1 7.33 9c0-.03 0-.08.03-.13a.1.1 0 0 1 .07-.06.2.2 0 0 1 .08 0c.03 0 .03.01.01.04Z" fill="#B0976B"/><path d="M14 9.17c0 .15-.02.3-.04.46l-1.2-.11a.64.64 0 0 0-.35-.14h-.02l-.24-.24-.04-.04-.12-.15a.04.04 0 0 1 .03-.07l1.43.03c.21 0 .4.1.55.26Z" fill="#9E8F89"/><path d="M8.55 9.06h-.11c-.11.1-.1.15.05.16l.08.05c.02.03.02.04-.02.03l-.39-.04a.1.1 0 0 1-.06-.04.18.18 0 0 0-.1-.07c-.04 0-.05-.02-.05-.04.02-.16.1-.23.23-.22.05 0 .06.03.03.07l-.1.14a.05.05 0 0 0 0 .08c.07.04.12.04.16-.01a.06.06 0 0 0 .02-.07l-.02-.07a.05.05 0 0 1 .04-.06h.4a.08.08 0 0 1 .07.13.18.18 0 0 1-.15.07c-.03 0-.04-.02-.04-.05V9.1c0-.03-.02-.04-.04-.04Z" fill="#A17E6C"/><path d="M6.52 9.06c.1.18.24.29.4.33.25.05.45.14.59.24-.18-.06-.33-.03-.45.08-.13.12-.13.23 0 .35.02.02.02.04 0 .05l-.16.08a.08.08 0 0 1-.08 0l-.25-.12c-.74-.4-1.7-.7-2.54-.52a5.1 5.1 0 0 1 0-.38c.33.2.86.15 1.25.15.37 0 .77.1 1.2.32h.04l.03-.01c.02-.02.02-.03 0-.05a.63.63 0 0 0-.15-.14.09.09 0 0 1-.04-.06l-.04-.35.2.03Z" fill="#660D11"/><path d="m6.52 9.06.55.13c.43.08.92.22 1.29.27a9.23 9.23 0 0 0 1.14.13c0 .02 0 .03-.02.04-.03.02-.04.03-.03.06-.09-.01-.26 0-.53.03-.43.04-.9.01-1.41-.09-.14-.1-.34-.19-.59-.24-.16-.04-.3-.15-.4-.33Z" fill="#340203"/><path d="M11.56 9.12c.2.46.34 1.01.4 1.65.05.46 0 .87-.17 1.23-.17.4-.34.78-.03 1.17a5 5 0 0 1-1.4.64c-.3-.2-.61-.34-.87-.58-.59-.57-1.12-1.2-1.6-1.86l.6.65c.03.03.05.04.09.02h.02a.03.03 0 0 0 .02-.02.03.03 0 0 0 0-.03l-.72-1.07c.5.48 1.06.9 1.67 1.24.14.08.25.17.33.27a33.1 33.1 0 0 1 .95 1.12h.02l.01-.02.26-.35c.02-.03.02-.05 0-.08a.28.28 0 0 0-.12-.06c-.04 0-.05-.03-.01-.05.19-.13.3-.23.32-.28.2-.5.32-1 .36-1.52a.46.46 0 0 0 .03-.2.65.65 0 0 0 .07-.4c-.11-.43-.19-.82-.4-1.24a.12.12 0 0 0 0-.12c-.02-.06-.01-.1.04-.13s.1-.02.13.02Z" fill="#440408"/><path d="M12.57 12.5c-.24.25-.52.47-.8.67-.32-.4-.15-.77.02-1.17.17-.36.22-.77.18-1.23a5.52 5.52 0 0 0-.4-1.65c.29.37.5.62.6 1l.12.44c.03.13.05.13.05 0l.02-.49c0-.15.03-.16.07 0 .23.76.28 1.57.14 2.43Z" fill="#660D11"/><path d="M12.39 9.39c.19.24.33.52.43.82.01.02.02.02.04 0l.01-.01v-.02l-.06-.3c0-.01 0-.02.02-.02h.06c.23.53.37 1.08.43 1.65l-.2.32a3.92 3.92 0 0 0-.29-1.27 3.3 3.3 0 0 0-.68-1.42l.24.25Z" fill="#AF743E"/><path d="M10.8 9.28c0 .04-.02.08-.05.11a.09.09 0 0 1-.06.04l-.96.1h-.02l-.02-.03c-.01-.01 0-.02.01-.03l.42-.1.67-.09Z" fill="#C49C80"/><path d="m12.76 9.52.42.49.03.02.55.12c.03 0 .04.02.04.05l-.11.54-.21.48a1.16 1.16 0 0 0-.17-.45 1.04 1.04 0 0 1-.14-.28c-.04-.18-.1-.35-.17-.5-.11-.24-.4-.42-.6-.6.13 0 .25.04.36.13Z" fill="#D3B195"/><path d="M11.39 9.35c.21.42.28.81.4 1.24l-.25-.34a.1.1 0 0 1-.03-.06c0-.06-.01-.1-.05-.14l-.02-.02v-.39a.07.07 0 0 0-.04-.06.2.2 0 0 0-.2 0l-.17.06-1.34.27c-.2.04-.45.07-.74.09-.25.01-.5.03-.74.06h-.05c-.2-.05-.31.16-.5-.04 0-.05 0-.08.03-.1.02-.02.04-.03.08-.03.64.01 1.25.03 1.9-.1l.7-.1c.26-.04.5-.1.75-.18.12-.03.2-.1.27-.2v.04Z" fill="#593927"/><path d="M12.4 9.38c.2.2.49.37.6.6.08.16.13.33.17.5.02.07.06.16.14.29.09.13.14.28.17.45l-.16.3a5.62 5.62 0 0 0-.45-1.67h-.04c-.02 0-.02.02-.02.03l.07.3v.02l-.02.01c-.02.02-.03.02-.04 0-.1-.3-.24-.58-.43-.82h.01Z" fill="#B0976B"/><path d="m6.57 10.07.02.05c.01.03 0 .05-.03.05a.28.28 0 0 1-.12-.04l-.3-.12c-.03-.04-.1-.07-.19-.09h-.07c-.15.07-.28.06-.4-.03-.12-.1-.23-.12-.35-.08-.05.01-.05.03 0 .04l.7.27c.03 0 .04.02.06.04l.06.04.19.11a.08.08 0 0 1 .03.06l.02.15c0 .02 0 .03.02.04l.04.02c.05 0 .08.02.1.04.01.02 0 .03-.02.04h-.04a.05.05 0 0 0-.04.03.05.05 0 0 0 0 .06c.12.11.26.2.42.23l.28.2c.06.03.08.06.09.09 0 .02 0 .03-.03.02l-.63-.32c-.73-.34-1.49-.64-2.27-.92a5.1 5.1 0 0 1-.08-.5c.84-.17 1.8.11 2.54.52Z" fill="#CFAD6E"/><path d="M13.96 9.63c-.05.38-.14.75-.27 1.1l.1-.53c.01-.03 0-.05-.03-.05l-.55-.12-.03-.02-.42-.5 1.2.12Z" fill="#B0A4A0"/><path d="M11.79 10.59c.02.13 0 .27-.07.4l-.1.19a.42.42 0 0 0 .04-.22.09.09 0 0 0-.03-.06.15.15 0 0 1-.06-.13c0-.02 0-.03-.03-.03h-.4c-.03 0-.05.01-.05.04 0 .04-.02.06-.05.06-.11 0-.13-.05-.03-.12.08-.05.2-.08.37-.08a.1.1 0 0 0 .09-.1.1.1 0 0 0-.03-.06c-.07-.08-.3-.08-.38-.07a.05.05 0 0 0-.04.06l.01.03c.04.03.04.07 0 .1a.32.32 0 0 0-.09.07.04.04 0 0 1-.03.02h-.28a.11.11 0 0 0-.1.15l.07.25a.17.17 0 0 0 .22.1c.08-.02.15 0 .2.08.01.02.03.03.06.02.04 0 .08-.03.1-.08a.06.06 0 0 1 .04-.03.06.06 0 0 1 .05.01l.02.02h.01a.04.04 0 0 1 0 .04v.02c-.15.17-.33.32-.59.26-.1-.02-.22-.02-.38-.02-.27.02-.57-.23-.79-.42-.2-.16-.42-.26-.66-.38-.33-.4-.92-.47-1.4-.47 0 0-.01 0 0 0v-.02l.68-.01v-.01c-.01-.02-.04-.02-.06-.01h-.01l-.01-.01v-.02l.01-.02.12-.08.74-.06c.29-.02.53-.05.75-.09l1.33-.27.18-.07a.2.2 0 0 1 .2 0c.02.02.03.04.03.07V10a.06.06 0 0 0 .02.05c.04.03.06.08.05.13 0 .03.01.05.03.07l.25.34Z" fill="#A48052"/><path d="M6.14 10c0 .1.1.17.25.2.06.02.1.05.11.1.01.03 0 .04-.03.04h-.11l-.31-.2c-.04-.03-.08-.04-.1-.03-.04.01-.04.03-.03.05l.03.04a.12.12 0 0 1-.06-.04.14.14 0 0 0-.06-.04l-.7-.27c-.05-.01-.05-.03 0-.04.12-.04.23-.02.35.08.12.09.25.1.4.04a.12.12 0 0 1 .07 0c.1 0 .16.04.2.08Z" fill="#B0976B"/><path d="m10.7 10.44-.38.06-.67.07c-.01 0-.02 0-.03-.02v-.03h.01a.45.45 0 0 0 .13-.1v-.01l-.03-.03c-.03-.02-.05-.03-.08 0a.55.55 0 0 1-.29.09c-.05 0-.1-.02-.14-.07-.03-.02-.02-.04 0-.05.23-.1.49-.05.68-.1a.02.02 0 0 0 0-.02.14.14 0 0 0-.06-.05c-.06-.02-.07-.04-.03-.06.18-.1.3-.15.35-.16.07 0 .12.03.17.12 0 .02 0 .03-.02.03h-.22a.03.03 0 0 0-.03.03v.03a.03.03 0 0 0 .03.03c.32-.02.76-.04 1.06-.21.06-.03.11-.03.16.02.07.08.09.16.06.25 0 .02-.02.03-.05.04l-.62.14Z" fill="#CFAD6E"/><path d="m6.14 10 .3.13.27.1.06.05c.05.08.08.16.1.25a.36.36 0 0 0-.2-.04c-.05 0-.06.03-.03.06l.4.43c.02.02.02.03 0 .04-.04.03-.09.02-.14-.03-.02-.02-.03-.02-.05 0l-.02.01v.03s0 .02.02.02c.05.03.08.08.1.13l-.28-.2c-.05-.04-.03-.1.05-.16a.07.07 0 0 0 .02-.09.73.73 0 0 0-.43-.33.03.03 0 0 1-.02-.04.03.03 0 0 1 .04-.03l.03.01h.11c.03 0 .04-.01.03-.04a.14.14 0 0 0-.1-.1c-.17-.03-.25-.1-.26-.2Z" fill="#826245"/><path d="m6.38 10.97-.08.07c0-.04-.03-.06-.08-.05l-.43-.14a.12.12 0 0 1-.06-.04c-.09-.11-.2-.13-.32-.06-.26.16-.53.38-.8.65a5.07 5.07 0 0 1-.18-.37 2.55 2.55 0 0 0 .74-.39.04.04 0 0 0-.03-.05c-.24-.06-.56.15-.78.26-.1-.26-.19-.53-.25-.8.78.27 1.54.58 2.27.92Z" fill="#440408"/><path d="M6.36 10.34h-.03a.03.03 0 0 0-.04.02.03.03 0 0 0 .02.04c.2.07.35.18.43.33a.07.07 0 0 1-.02.1c-.08.05-.1.1-.05.15a.87.87 0 0 1-.41-.23.05.05 0 0 1-.01-.06.05.05 0 0 1 .04-.03h.04c.02 0 .03-.02.01-.04 0-.02-.04-.03-.09-.04-.01 0-.03 0-.04-.02a.07.07 0 0 1-.02-.04l-.02-.15a.08.08 0 0 0-.03-.06l-.19-.11-.03-.04c-.01-.02 0-.04.02-.05.03-.01.07 0 .1.03l.32.2Z" fill="#A48052"/><path d="m8.54 10.7.55.25c.1.05.2.12.29.2l.47.44c.02.02.02.04-.01.05H9.8a.1.1 0 0 0-.05 0c-.15-.15-.35-.4-.56-.45a.03.03 0 0 0-.03 0 .03.03 0 0 0 0 .04c.07.23.23.41.43.72.08.11.17.2.28.29l.05.07c.1.16.23.3.37.43.1.08.2.2.31.38.03.04.07.06.12.06.03 0 .04-.02.04-.04-.01-.1 0-.15.01-.18l.01-.03c0-.01 0-.02-.02-.03a.4.4 0 0 0-.12-.07.04.04 0 0 1-.03-.04v-.03c0-.02 0-.02.03-.02.12.02.22.08.31.18.02.02.04.02.06 0 .05-.05.1-.08.15-.1.23-.26.24-.51.33-.8l.1-.35c.02-.16.05-.32.1-.48a4.85 4.85 0 0 1-.36 1.52c-.02.05-.13.15-.32.28-.04.02-.03.04 0 .05l.12.06c.03.03.03.05 0 .08l-.25.35-.02.02h-.01a.04.04 0 0 1-.04-.02c-.23-.3-.54-.66-.91-1.1a1.2 1.2 0 0 0-.33-.27 8.46 8.46 0 0 1-1.67-1.24l-.25-.2a.06.06 0 0 0-.07-.01.22.22 0 0 0-.08.06c-.02.02-.02.05 0 .07l.4.53c.47.67 1 1.29 1.59 1.86.26.24.58.37.87.58l-.2.05a4.84 4.84 0 0 1-.92-.67l-.43-.37c-.37-.27-.56-.58-.8-.9a.78.78 0 0 0-.15-.14c-.18-.13-.25-.14-.2 0 .07.07.1.14.11.21l-.38-.62-.23-.61c.33.06.46-.05.39-.34a.03.03 0 0 1 .03-.03l.96.3Z" fill="#660D11"/><path d="M11.62 11.18c-.15.19-.35.33-.6.44-.5.13-.95.05-1.34-.25a9.03 9.03 0 0 0-.59-.42l-.55-.25-.02-.07a.05.05 0 0 1 .03-.03h.03l.3.11c.24.12.46.22.66.38.22.19.52.44.8.42.15 0 .27 0 .37.02.26.06.44-.09.59-.26v-.02a.04.04 0 0 0 0-.03v-.01l-.03-.02a.06.06 0 0 0-.07 0l-.02.02c-.03.05-.06.08-.1.08-.03 0-.05 0-.07-.02-.04-.08-.11-.1-.2-.07a.17.17 0 0 1-.2-.11l-.09-.25a.11.11 0 0 1 .02-.1.11.11 0 0 1 .09-.05h.28a.04.04 0 0 0 .03-.02.32.32 0 0 1 .08-.07c.05-.03.05-.07.01-.1l-.01-.03a.05.05 0 0 1 .04-.06c.09 0 .3-.01.38.07a.1.1 0 0 1-.02.14.1.1 0 0 1-.05.02.64.64 0 0 0-.36.08c-.1.07-.08.11.03.12.03 0 .04-.02.05-.06 0-.03.02-.04.04-.04h.4c.03 0 .04 0 .04.03 0 .06.02.1.06.13.02.01.03.03.03.06 0 .07 0 .14-.04.22Z" fill="#C49C80"/><path d="M10.7 10.44h.08c.03 0 .04.02.03.05 0 .05.01.09.06.11v.05a.56.56 0 0 0-.35 0l-.07-.01c-.09-.03-.13-.08-.13-.14l.38-.06Z" fill="#6F2D26"/><path d="M6.87 10.53c.06.1.16.18.3.23l.22.61.18 1.3v.04l-.02.02H7.5l-.01-.03c-.06-.32-.16-.6-.32-.81l-.33-.57a.47.47 0 0 0-.2-.04c-.01-.07-.12-.1-.33-.08-.04-.05-.04-.1 0-.16l.08-.07.63.32c.02 0 .03 0 .03-.02 0-.03-.03-.06-.09-.09a.25.25 0 0 0-.1-.13l-.02-.02V11l.02-.02h.05c.05.06.1.07.14.04.02-.01.02-.02 0-.04l-.4-.43c-.03-.04-.02-.05.02-.06.08 0 .15 0 .21.04Z" fill="#340203"/><path d="M4.43 11.03a5.1 5.1 0 0 1-.07-.18c.22-.1.54-.32.78-.26a.04.04 0 0 1 .01.07c-.2.16-.44.28-.72.37Z" fill="#9A1D26"/><path d="m13.12 11.83-.22.3-.04-.47-.03-1.1c.17.4.26.82.3 1.27Z" fill="#9F5433"/><path d="M6.22 11c.03 0 .04.03.03.07 0 .03-.01.05-.04.06l-.2.12a.67.67 0 0 0-.25-.2.1.1 0 0 0-.1.01l-.8.73a4.92 4.92 0 0 1-.25-.4c.27-.26.54-.48.8-.64.13-.07.23-.05.32.06.02.02.03.04.06.04l.43.14Z" fill="#B0976B"/><path d="m7.9 10.92.72 1.07a.03.03 0 0 1 0 .03.03.03 0 0 1-.02.02h-.02a.07.07 0 0 1-.09-.02l-.6-.65-.4-.53c-.01-.02 0-.05 0-.07a.22.22 0 0 1 .1-.06h.06l.25.2Z" fill="#340203"/><path d="M6.3 11.04c-.04.06-.04.11 0 .16-.06-.02-.1.01-.1.1-.04.58 0 1.16-.15 1.73-.1-.07-.21-.15-.3-.24.07-.23.09-.46.05-.68l-.09-.52.3-.34.2-.12a.08.08 0 0 0 .04-.06c.01-.04 0-.06-.03-.08.05-.01.08 0 .08.05Z" fill="#660D11"/><path d="M10.26 10.98v.05l-.03.04a.2.2 0 0 1-.05.02.26.26 0 0 1-.06.02H9.98c-.03-.02-.05-.04-.06-.07v-.01l.34-.05Z" fill="#724E36"/><path d="M11.72 11c0 .06 0 .13-.04.2l-.1.47c-.01.08-.04.2-.09.35-.09.29-.1.54-.33.8v-.15a.53.53 0 0 0 .2-.27c.03-.09.02-.22.05-.33a17.2 17.2 0 0 0 .15-.64.03.03 0 0 0-.04 0l-.37.22-.07.06v-.04c.01-.02 0-.04-.02-.05h-.03c.24-.1.44-.25.59-.44l.1-.18Z" fill="#845045"/><path d="m6.01 11.25-.3.34-.4.44a.08.08 0 0 0-.01.07c.02.13 0 .2-.05.2a4.88 4.88 0 0 1-.4-.5l.81-.74a.1.1 0 0 1 .1-.02c.1.05.18.12.25.21Z" fill="#CFAD6E"/><path d="M11.03 11.62h.03c.03.01.03.03.03.05l-.01.04-.45.14a.12.12 0 0 0-.06.05c-.11.14-.14.29-.09.45.01.02 0 .03-.02.04h-.06a.05.05 0 0 1-.02-.02l-.13-.23c.03 0 .06-.02.07-.03a.06.06 0 0 0-.03-.1c-.1-.02-.15-.08-.12-.2 0-.03 0-.05-.04-.06l-.33-.1.04-.01c.03-.01.03-.03 0-.05l-.46-.44.3.22c.4.3.84.38 1.35.25Z" fill="#593927"/><path d="M6.3 11.2c.2-.02.32 0 .34.08.04.29.15.57.18.83l.04.6-.03-.03a.06.06 0 0 0-.07.07c.03.17.04.33.03.48 0 .1-.04.16-.1.2l-.14-.07c.1-.28.11-.5.06-.68-.1-.34-.17-.67-.22-1l-.08-.32-.03-.02-.02.01a.03.03 0 0 0-.02.03v.22l-.05-.3c.01-.09.05-.12.11-.1Z" fill="#9D3D4D"/><path d="m9.75 11.64-.06-.02c-.03 0-.04 0-.03.03.01.06.05.1.13.11l-.08-.01c-.05 0-.07.03-.06.09l.01.03.2.37c-.1-.08-.2-.18-.27-.3-.2-.3-.36-.48-.44-.71a.03.03 0 0 1 .04-.04c.2.04.41.3.56.45Z" fill="#845045"/><path d="M6.83 11.32c-.02.07-.02.12 0 .16.25.64.46 1.29.62 1.95.02.08 0 .18-.02.32-.2-.07-.38-.14-.57-.23.15-.23.15-.5 0-.8 0-.2-.02-.4-.04-.61-.03-.26-.14-.54-.18-.83.08 0 .14.01.2.04ZM6.2 11.3l.04.3c.1.57.04.9-.12 1.48a3.5 3.5 0 0 1-.08-.05c.17-.57.12-1.15.15-1.72Z" fill="#76323C"/><path d="m6.83 11.32.33.57.1.26.1.27c.08.31.17.63.27.94.06.2.04.34-.06.43l-.14-.04a.74.74 0 0 0 .02-.32c-.16-.66-.37-1.31-.62-1.95-.02-.04-.02-.1 0-.16ZM6.55 13.36a5.1 5.1 0 0 1-.43-.28c.16-.57.23-.91.12-1.48v-.24h.02l.02-.02c.01 0 .03 0 .03.02.02.12.07.22.08.32.05.33.12.66.22 1 .05.18.03.4-.06.68Z" fill="#937580"/><path d="m7.4 11.37.37.62c.03.02.05.05.06.1a.7.7 0 0 0-.07.37c.04.49.18.98.4 1.47a5 5 0 0 1-.59-.14c.1-.09.12-.23.06-.43l-.28-.94a2.53 2.53 0 0 0-.1-.27 4.02 4.02 0 0 1-.1-.26 1.92 1.92 0 0 1 .34.83l.01.01h.05l.02-.02v-.03l-.18-1.3Z" fill="#593927"/><path d="M11.16 12.67a.24.24 0 0 1-.15-.11.24.24 0 0 1-.02-.16 1.2 1.2 0 0 0-.04-.42l-.02-.02a.06.06 0 0 1-.03-.05c0-.03 0-.04.03-.05.13-.02.2-.1.22-.21l.37-.22a.03.03 0 0 1 .04 0l.01.02v.02l-.16.6c-.03.11-.02.24-.06.33-.04.12-.1.2-.19.27Z" fill="#9E8F89"/><path d="M10.16 13.86c-.43.1-.87.15-1.3.14-.16-.37-.28-.74-.39-1.1-.03-.1-.15-.24-.36-.44l.94.78h.01a.02.02 0 0 0 .01-.01v-.05c-.4-.31-.63-.52-.72-.64-.24-.34-.39-.55-.7-.77-.04-.13.03-.12.21.01l.14.14c.25.32.44.63.81.9.1.07.23.19.43.37.28.26.58.48.92.67Z" fill="#340203"/><path d="m5.71 11.6.09.51c-.1-.05-.12.03-.1.22 0 .03 0 .05-.02.07l-.16.19a5 5 0 0 1-.27-.29c.05 0 .07-.07.05-.2 0-.03 0-.05.02-.07l.4-.44Z" fill="#76323C"/><path d="M9.75 11.64a.1.1 0 0 1 .05 0l.33.11c.03.01.04.03.04.06-.03.12.01.18.12.2a.06.06 0 0 1 .05.07l-.02.03a.17.17 0 0 1-.07.03L9.98 12l-.2-.23c-.07-.01-.1-.05-.12-.11 0-.03 0-.04.03-.03l.06.02Z" fill="#8C746D"/><path d="M11.15 11.65c-.02.12-.1.19-.22.21-.02 0-.04.02-.03.05 0 .02 0 .04.03.05a.06.06 0 0 1 .03.04c.03.15.04.29.03.4-.01.06 0 .12.03.16.03.05.08.09.14.1v.16a.43.43 0 0 0-.15.1c-.02.02-.04.02-.06 0a.56.56 0 0 0-.31-.18c-.02 0-.03 0-.03.02v.03a.04.04 0 0 0 .03.04.4.4 0 0 1 .12.07l.02.03v.03c-.03.03-.03.08-.02.18 0 .02-.01.04-.04.04a.13.13 0 0 1-.12-.07c-.11-.16-.22-.29-.31-.37a2.06 2.06 0 0 1-.37-.43c.11.1.21.2.3.32.03.04.07.06.11.06.04 0 .05-.02.03-.05l-.07-.14a.08.08 0 0 1 0-.06c.02-.04 0-.08-.03-.1a.08.08 0 0 1-.05-.06l-.01-.13a.1.1 0 0 0-.05-.07.3.3 0 0 0-.1-.04l-.06-.05.26.15.13.23a.05.05 0 0 0 .06.03l.02-.01c.02 0 .03-.02.02-.04a.47.47 0 0 1 .09-.45.12.12 0 0 1 .06-.05l.45-.14.07-.06Z" fill="#826245"/><path d="M9.71 11.75c.09.12.2.22.33.29a.3.3 0 0 1 .11.04.1.1 0 0 1 .05.07v.13c.01.03.03.05.06.07.04.01.05.05.03.1a.07.07 0 0 0 0 .05l.07.14c.02.03 0 .05-.03.05-.04 0-.08-.02-.1-.06a2.23 2.23 0 0 0-.3-.32l-.06-.07-.21-.37-.01-.03c-.01-.06.01-.1.06-.09Z" fill="#B0A4A0"/><path d="m9.79 11.76.2.23.05.05a.93.93 0 0 1-.33-.29l.08.01Z" fill="#A17E6C"/><path d="m8.11 12.46.15.24-.02.02a.02.02 0 0 1-.02 0c-.17-.19-.3-.4-.39-.63-.01-.05-.03-.08-.06-.1a.35.35 0 0 0-.11-.22c.3.22.45.43.69.77a4.56 4.56 0 0 0 .72.65v.04a.02.02 0 0 1-.02.02l-.94-.8Z" fill="#440408"/><path d="M7.83 12.1a1.93 1.93 0 0 0 .4.62l.03-.02-.15-.24c.21.2.33.35.36.44.1.36.23.73.38 1.1-.23 0-.46-.03-.68-.07-.23-.5-.37-.98-.41-1.47a.7.7 0 0 1 .07-.37Z" fill="#724E36"/><path d="M5.8 12.11c.04.22.02.45-.06.68a4.73 4.73 0 0 1-.22-.2l.17-.2a.08.08 0 0 0 .02-.06c-.03-.2 0-.27.09-.22Z" fill="#937580"/><path d="M6.86 12.71c.15.31.15.58 0 .8a5.51 5.51 0 0 1-.17-.07c.06-.05.1-.11.1-.21a2.66 2.66 0 0 0-.03-.51.06.06 0 0 1 .04-.04h.03l.03.03Z" fill="#8C746D"/><defs><linearGradient id="a" x1="3.35" y1="3.12" x2="21.9" y2="24.43" gradientUnits="userSpaceOnUse"><stop stop-color="#1A1E21"/><stop offset="1" stop-color="#06060A"/></linearGradient></defs></svg>