<!-- by TradingView --><svg width="18" height="18" viewBox="0 0 18 18" xmlns="http://www.w3.org/2000/svg"><path fill="#303030" d="M0 0h18v18H0z"/><path d="M10.17 13.09a.36.36 0 0 0-.2 0l-.43.16c-.2.07-.4.07-.61 0l-.42-.15a.44.44 0 0 0-.17-.02h-.02l-.02.02v.05c.15.13.37.23.55.33.08.05.14.1.18.17.1.16 0 .33-.24.35a5.2 5.2 0 0 1-2.8-1.05c-.17-.14-.3-.33-.26-.52 0-.05.02-.1.04-.15.13-.43.33-.9.6-1.4l.46-.83c.08-.13.14-.28.18-.44a.95.95 0 0 0 .01-.45 1.8 1.8 0 0 0-.25-.6l-.6-.94a8.13 8.13 0 0 1-1.16-3.95.95.95 0 0 1 .08-.6c.08-.13.3-.05.4 0a7 7 0 0 1 .88.55 6.98 6.98 0 0 1 2.71 3.74h.27c.04 0 .05-.01.06-.04a5.65 5.65 0 0 1 .92-1.85c.09.16.18.27.28.41a8.32 8.32 0 0 0 1.67 1.77v.03l-.41.62c-.28.4-.53.88-.4 1.32.05.22.17.45.3.65.36.58.65 1.2.88 1.85.05.15.14.33.1.47a.7.7 0 0 1-.27.36 5.3 5.3 0 0 1-2.4 1.03c-.17.02-.53.06-.63-.09-.12-.15.02-.33.2-.42l.44-.25a.19.19 0 0 0 .1-.11v-.01l-.02-.01Z" fill="#E73746"/><path d="M10.51 5.48c0-.02 0-.04.03-.04h3l.03.01.02.03a8.1 8.1 0 0 1 .4 2.36c.02.17 0 .33-.04.5-.04.12-.14.2-.29.15a.9.9 0 0 1-.21-.1c-.35-.2-.69-.43-1-.67-.16-.12-.3-.25-.44-.38a7.33 7.33 0 0 1-1.5-1.86Z" fill="#fff"/></svg>