<!-- by TradingView --><svg width="18" height="18" viewBox="0 0 18 18" xmlns="http://www.w3.org/2000/svg"><path fill="#F0F3FA" d="M0 0h18v18H0z"/><path d="M6.29 13.53c0-.14.27-.41.41-.53l1.25.18c.2.11.53.42.2.7-.41.35-1.86-.18-1.86-.35ZM10.85 13.7c-.33 0-.42-.35-.42-.52l1.04-.53c.28.05.83.24.83.53 0 .35-1.04.52-1.45.52ZM5.66 7c.07.3.25.95.42 1.23.16.29.2.71.2.89.35.17 1.5.53 3.32.53 1.83 0 2.7-.47 2.9-.7 0-.13.05-.4.21-.54.21-.18.21-.53.21-1.59 0-.84-.83-1.64-1.24-1.94-.7-.3-2.2-.88-2.7-.88-.62 0-.41.18-.62.18-.2 0-.41-.18-.62-.18-.2 0-.83 0-1.45.18-.63.17-.63.53-.63.88 0 .28-.13.59-.2.7a.32.32 0 0 0-.42 0c-.2.18.42.53.42.71 0 .18-.21.7 0 .7.16 0 .2-.11.2-.17Z" fill="#3A3A3A"/><path d="m5.58 7 .17-.01.17.61c.07.24.15.47.23.6.1.15.15.34.18.5.02.15.04.28.04.38.37.17 1.49.5 3.23.5.9 0 1.57-.12 2.03-.26.44-.14.7-.3.8-.4a1 1 0 0 1 .04-.25c.03-.1.09-.23.19-.3.08-.08.13-.19.15-.43.03-.24.03-.59.03-1.12 0-.4-.2-.8-.45-1.14-.26-.33-.56-.6-.76-.74a24.86 24.86 0 0 0-2.14-.78c-.22-.06-.4-.09-.5-.09-.31 0-.39.04-.42.07l-.02.02-.03.04a.23.23 0 0 1-.16.05c-.12 0-.24-.05-.34-.1a.75.75 0 0 0-.28-.08c-.2 0-.82 0-1.43.17-.29.09-.42.2-.5.34-.06.14-.06.3-.06.48 0 .3-.15.61-.22.74l-.05.08-.08-.07a.26.26 0 0 0-.13-.05c-.05 0-.1 0-.17.05l-.02.03.02.06c.02.05.07.1.14.17l.07.07a3.28 3.28 0 0 1 .2.22.2.2 0 0 1 .03.11 1.06 1.06 0 0 1-.04.25l-.04.18a.58.58 0 0 0 0 .18v.03c.05 0 .08-.02.1-.04A.11.11 0 0 0 5.58 7Zm6.1-2.12c.41.3 1.24 1.1 1.24 1.94 0 1.06 0 1.41-.2 1.6-.17.13-.21.4-.21.52-.21.24-1.08.7-2.9.7a8.39 8.39 0 0 1-3.32-.52 2 2 0 0 0-.21-.89A5.36 5.36 0 0 1 5.66 7c0 .03 0 .08-.05.12a.21.21 0 0 1-.15.06c-.15 0-.09-.26-.04-.48l.04-.23c0-.07-.1-.17-.21-.28-.16-.15-.33-.32-.2-.43a.3.3 0 0 1 .34-.04l.07.04.03-.06c.08-.15.17-.4.17-.64 0-.35 0-.7.63-.88C6.9 4 7.53 4 7.74 4c.1 0 .2.04.3.09.11.04.22.09.32.09.08 0 .1-.03.12-.06.05-.05.1-.12.5-.12.5 0 2 .59 2.7.88Zm-5.31 8.64.03.04.16.09a3.1 3.1 0 0 0 1.13.28c.18 0 .32-.03.4-.1a.3.3 0 0 0 .12-.17c0-.06 0-.11-.03-.16a.73.73 0 0 0-.27-.26l-1.18-.17a2.47 2.47 0 0 0-.32.36.23.23 0 0 0-.04.1ZM6.7 13c-.14.12-.41.39-.41.53 0 .17 1.45.7 1.86.35.33-.28 0-.59-.2-.7L6.7 13Zm3.9.48c.05.1.13.15.25.15.2 0 .55-.04.85-.12.15-.05.29-.1.38-.16.1-.06.14-.12.14-.17 0-.1-.1-.2-.27-.3a2.1 2.1 0 0 0-.47-.16l-.96.5c0 .07.02.17.07.26Zm-.17-.3 1.04-.53c.28.05.83.24.83.53 0 .35-1.04.52-1.45.52-.33 0-.42-.35-.42-.52Z"/><path d="M13.13 11.76h-.62v.36c0 .06.04.17.2.17.17 0 .21-.11.21-.17 0 .06.04.14.2 0 .18-.14.08-.3 0-.36Z" fill="#3A3A3A"/><path d="M13.13 11.76v-1.23h-.62v1.23h.62Z" fill="#0345FB"/><path d="M5.25 10.18c.17-.85.76-1.18 1.04-1.24.55.24 1.95.53 3.1.53 1.17 0 2.56-.3 3.12-.53.14.12.45.42.62.7.2.36.2 1.6-.83 2.83-1.04 1.23-3.73 1.23-5.4.88-1.65-.35-1.86-2.12-1.65-3.17Z" fill="#0345FB"/><path fill-rule="evenodd" d="M6.28 9.02c-.26.06-.8.38-.95 1.17-.1.52-.1 1.21.13 1.82.23.6.68 1.1 1.47 1.27.82.18 1.9.27 2.9.16 1-.11 1.9-.42 2.4-1.01.51-.61.77-1.22.87-1.71.05-.25.06-.47.05-.65a.94.94 0 0 0-.1-.4 3.18 3.18 0 0 0-.56-.64 10.4 10.4 0 0 1-3.1.51 10.4 10.4 0 0 1-3.11-.52Zm0-.08c-.27.06-.86.39-1.03 1.24-.2 1.05 0 2.82 1.66 3.17 1.66.35 4.35.35 5.39-.88 1.04-1.24 1.04-2.47.83-2.82a3.32 3.32 0 0 0-.62-.7c-.56.23-1.95.52-3.11.52s-2.56-.3-3.11-.53Z"/><path d="M7.12 12.12H6.08c0 .11.04.35.2.35.17 0 .21-.12.21-.18 0 .06.05.18.21.18.17 0 .2-.12.2-.18 0 .06.05.18.22.18.16 0 .07-.24 0-.35Z" fill="#4E4E50"/><path fill-rule="evenodd" d="M6.96 12.41c.03.03.08.06.16.06.16 0 .07-.24 0-.35H6.08v.07c.02.12.07.28.2.28.08 0 .13-.03.16-.06a.18.18 0 0 0 .05-.12c0 .04.02.08.05.12.03.03.08.06.16.06s.13-.03.16-.06a.18.18 0 0 0 .05-.12c0 .04.01.08.05.12Zm-.13-.12h.16c0 .02 0 .05.03.07.01.02.04.04.1.04v-.05a.6.6 0 0 0-.06-.16h-.9l.04.12c.03.07.06.09.09.09.05 0 .08-.02.1-.04a.11.11 0 0 0 .02-.07H6.58c0 .02 0 .05.02.07.02.02.05.04.1.04.06 0 .08-.02.1-.04a.11.11 0 0 0 .03-.07Z"/><path d="M6.7 5.41c-.33.14-.69.41-.83.53-.2.53.2 1.41.42 1.77l.83 1.4c2.32.15 4.7-.4 5.6-.7l.62-1.06-.42-.53V5.6c0-.14-.27-.18-.41-.18 0-.06-.04-.21-.21-.35-.2-.18-.83 0-1.04 0-.2 0-.62-.18-1.03-.18-.42 0-.83.18-1.04.18-.17 0-.2-.12-.2-.18 0 .36-1.87.36-2.29.53Z" fill="#6F7789"/><path fill-rule="evenodd" d="M8.92 4.98c-.18.15-.77.22-1.3.28-.4.04-.76.09-.92.15-.33.14-.69.41-.83.53-.2.53.2 1.41.42 1.77l.83 1.4c2.32.15 4.7-.4 5.6-.7l.62-1.06-.42-.53V5.6c0-.14-.27-.18-.41-.18 0-.06-.04-.21-.21-.35-.15-.13-.51-.07-.78-.03l-.26.03c-.08 0-.2-.03-.35-.07-.2-.05-.44-.1-.68-.1-.25 0-.49.05-.7.1a1.7 1.7 0 0 1-.34.07c-.08 0-.14-.03-.17-.07a.18.18 0 0 1-.04-.1c0 .03-.02.06-.06.1Zm.05.06-.02.01a.9.9 0 0 1-.24.1c-.19.06-.44.1-.7.13l-.39.05a24.8 24.8 0 0 0-.68.1c-.1 0-.16.03-.2.04-.31.14-.65.39-.8.5-.08.25-.04.58.06.9.1.33.26.63.36.8l.8 1.38c2.27.13 4.59-.4 5.5-.7l.58-1-.4-.5V5.58c0-.02-.02-.05-.1-.08a.86.86 0 0 0-.23-.03h-.09v-.07c0-.04-.03-.17-.18-.3-.03-.03-.09-.05-.17-.06l-.28.01-.26.04h-.03l-.24.03-.2-.03a6.65 6.65 0 0 1-.26-.06 2.47 2.47 0 0 0-.57-.09c-.2 0-.4.04-.58.09l-.09.02a6.73 6.73 0 0 1-.37.07.3.3 0 0 1-.22-.09Z" fill="#020202"/><path d="M9.19 8.76c-.62 0-1.87-.17-2.28-.88-.33-.56-.14-.7 0-.7.83 0 .83.88 1.86.88 1.04 0 1.66-.53 2.08-.53h1.45c.41 0 .41 0 1.04-.18.62-.17.41 0 .62.18.16.14-.2.3-.42.35.07.06.21.21.21.35 0 .18-1.45 0-1.86 0-.42 0-2.08.53-2.7.53Z" fill="#4E5051"/><path fill-rule="evenodd" d="m13.39 7.85.13-.04c.1-.02.23-.07.32-.13.05-.03.07-.05.08-.07V7.6l-.02-.02a.45.45 0 0 1-.11-.15l-.02-.02-.01-.03a.08.08 0 0 0-.02-.02s0-.01-.07 0c-.06 0-.15.02-.3.06h-.02l-.6.16c-.13.02-.24.02-.44.02h-1.46a.97.97 0 0 0-.32.08l-.23.09-.22.09c-.34.13-.77.27-1.3.27a1.38 1.38 0 0 1-1.08-.47l-.03-.03c-.22-.21-.4-.38-.76-.38a.1.1 0 0 0-.05.01c-.02.01-.04.03-.05.07-.02.08 0 .24.17.52.2.33.59.54 1.02.67.43.13.89.17 1.19.17.14 0 .36-.03.6-.08l.8-.18.17-.04.6-.14c.22-.05.4-.09.53-.09a8.01 8.01 0 0 1 .57.04 28.93 28.93 0 0 0 1.05.04.72.72 0 0 0 .16-.02c0-.05-.03-.1-.07-.16a.7.7 0 0 0-.11-.13l-.1-.08Zm.24 0c.2-.07.47-.2.33-.32a.4.4 0 0 1-.1-.15c-.06-.1-.08-.15-.52-.03-.38.11-.53.15-.68.17h-1.81c-.16 0-.35.09-.59.19-.37.15-.85.35-1.49.35-.54 0-.8-.25-1.04-.48-.22-.2-.43-.4-.82-.4-.14 0-.33.14 0 .7.41.7 1.66.88 2.28.88.34 0 1-.16 1.59-.3.48-.12.92-.23 1.1-.23l.57.04c.57.04 1.3.09 1.3-.04 0-.1-.08-.22-.15-.3a.7.7 0 0 0-.06-.05l.09-.02Z" fill="#020202"/><path d="M8.57 5.59c-.5 0-1.73.47-2.28.7 0 .36.62.36 1.66.36.82 0 1.45-.12 1.65-.18.07-.06.17-.21 0-.35-.2-.18-.41-.53-1.03-.53ZM11.26 5.59c.83-.18 1.25.17 1.45.17.17 0 .35.12.42.18s.12.21-.2.35c-.15.06-.2.15-.42.18h-1.66c-.42 0-1.04 0-1.04-.35 0-.36.62-.36 1.45-.53Z" fill="#fff"/><path fill-rule="evenodd" d="M6.37 6.34c.01.04.04.07.08.1.06.04.15.07.3.1.27.04.67.04 1.2.04.8 0 1.4-.11 1.6-.17a.2.2 0 0 0 .06-.1c0-.04 0-.09-.06-.14l-.14-.13c-.17-.18-.38-.38-.84-.38-.73 0-1.57.41-2.2.68Zm3.23.13c-.2.06-.83.18-1.65.18-1.04 0-1.66 0-1.66-.36.62-.35 1.78-.7 2.28-.7.5 0 .74.23.92.41l.11.12c.17.14.07.3 0 .35Zm1.68-.81c-.34.07-.7.1-1.03.2a.82.82 0 0 0-.27.1.18.18 0 0 0-.09.16c0 .07.03.11.08.15.05.04.13.07.22.09.2.04.45.04.66.04h1.65a.5.5 0 0 0 .2-.06l.05-.04a3.15 3.15 0 0 1 .13-.07c.16-.07.2-.13.22-.16a.07.07 0 0 0-.03-.08.8.8 0 0 0-.15-.1 2.74 2.74 0 0 0-1.64-.23Zm1.23.81c.14-.02.22-.06.29-.11l.12-.07c.33-.14.28-.29.2-.35-.38-.33-1.4-.45-1.86-.35-.83.17-1.45.17-1.45.53 0 .35.62.35 1.04.35h1.66Z" fill="#020202"/><path d="M6.9 6.65c-.16 0-.2-.36-.2-.53l.42-.18v.35h.2c-.16-.14-.07-.29 0-.35l1.04-.35c.07.06.2.21.2.35 0 .14-.13.53-.2.7H6.91Z" fill="#020202"/><path d="M11.26 5.59c-.07 0-.2.07-.2.35 0 .28.06.41.2.53h1.25c.14-.12.37-.42.2-.7-.2-.12-.78-.32-1.45-.18Zm.21.17h.2c-.06.06-.16.25 0 .53h-.2c-.07-.11-.17-.38 0-.53Z"/><path d="m8.55 4.39.03-.07c.28.08.6.46.44.74l-.07-.03c.13-.24-.16-.58-.4-.64ZM5.94 6.32a.2.2 0 0 1-.07 0l-.04.01c0 .01 0 .02.02.03.04.04.14.08.23.08.07 0 .1-.03.13-.06a.15.15 0 0 0 .04-.09h.08a.2.2 0 0 1-.05.13c-.04.05-.1.09-.2.09a.48.48 0 0 1-.29-.1.16.16 0 0 1-.04-.05.06.06 0 0 1 0-.05c0-.02.03-.03.05-.04l.07-.01h.03l.07-.03c.43-.21.78-.52 1.22-.71.2-.09.38-.14.55-.14.31 0 .73 0 1.1.06.31.06.6.17.75.39.12-.3.42-.4.76-.43.24-.02.5-.02.7-.02.21 0 .68 0 1.1.02.13 0 .73 0 .73.18-.14-.12-.56-.1-.74-.11a21.64 21.64 0 0 0-1.78 0c-.31.03-.71.13-.71.47l-.09.01c-.1-.24-.38-.37-.74-.44a6.26 6.26 0 0 0-1.08-.06c-.15 0-.32.05-.5.13-.45.2-.8.5-1.23.7a.61.61 0 0 1-.07.04Zm-.32.15c0-.28-.13-.32-.16-.32v-.07c.1 0 .25.1.25.39h-.09Zm4.21.03-.42.18c-.2.06-.54.15-.86.22-.32.07-.64.13-.81.13-.17 0-.46-.06-.73-.13a11.8 11.8 0 0 1-.74-.22l.03-.07c.17.06.45.15.73.22.28.08.55.13.7.13.17 0 .47-.05.8-.13l.85-.22.41-.17.04.06Zm.75.14c-.2-.01-.42.01-.55.04h-.01a2.79 2.79 0 0 0-.64.09.48.48 0 0 0-.16.08c-.03.02-.04.05-.02.09 0 .04.04.09.09.13.1.1.24.2.34.25l-.05.06c-.1-.06-.25-.16-.35-.26a.44.44 0 0 1-.11-.16.14.14 0 0 1 .04-.16.56.56 0 0 1 .18-.1l.24-.05c.16-.03.33-.04.43-.04.15-.03.37-.05.57-.04.21.02.42.08.51.24.05.07.06.14.04.2a.23.23 0 0 1-.12.13.85.85 0 0 1-.37.07v-.07c.1 0 .24-.02.33-.06.04-.03.07-.06.08-.1.01-.03 0-.08-.03-.14-.07-.13-.24-.18-.44-.2Zm-2.9 1.47a2.3 2.3 0 0 1-.6-.56l.07-.04c.1.14.3.36.59.54.28.18.63.33 1.03.33a5.55 5.55 0 0 0 1.67-.32c.17-.05.33-.1.48-.13.2-.05.39-.08.55-.08h2.07v.07h-2.07c-.15 0-.33.03-.53.08a13.39 13.39 0 0 0-.65.18c-.47.13-.99.27-1.52.27-.42 0-.8-.15-1.08-.34ZM6.2 9.65a.14.14 0 0 1 .1-.04v.07s-.02 0-.03.02a.29.29 0 0 0-.06.1c-.04.1-.08.27-.08.55v1.77h.95v-1.6h.09v1.67H6.04v-1.84c0-.28.03-.46.08-.57.02-.06.05-.1.07-.13Zm3.85 2.26-.04.06-.41-.17.03-.07.42.18Zm.6.06c-.34.04-.75.12-1.03.18l-.02-.07a15.5 15.5 0 0 1 1.5-.22h.14l.05.03.02.05c0 .09 0 .19-.05.28-.06.1-.17.2-.38.28a.98.98 0 0 0-.32.2c-.06.06-.07.1-.07.12h-.09c0-.04.03-.1.1-.17.06-.06.17-.14.34-.21.2-.09.3-.17.34-.25a.45.45 0 0 0 .05-.25h-.02a3.68 3.68 0 0 0-.56.03Zm-.6.35-.2.17-.06-.05.21-.17.06.05Zm.23.33v.17h-.09v-.17h.09Z"/><path d="M10.23 7c0 .14-.28.06-.42 0-.16-.14-.07-.18 0-.18.14 0 .42.04.42.18ZM10.85 6.82c-.21 0-.58.04-.42.18.17.14.35-.06.42-.18Z"/></svg>