<!-- by TradingView --><svg width="18" height="18" viewBox="0 0 18 18" xmlns="http://www.w3.org/2000/svg"><path fill="#19233E" d="M0 0h18v18H0z"/><path d="M8.86 13c1.59-.64 2.7-1.94 2.7-3.75A4.67 4.67 0 0 0 8.87 5a4.67 4.67 0 0 0-2.7 4.25c0 1.81 1.12 3.11 2.7 3.75Z" fill="#0F9301"/><path d="M9.03 12.97a3.79 3.79 0 0 0 .31-4.51 5.1 5.1 0 0 0-4.58-2.44c-1.01 1.3-1 3.37-.04 4.95a4.33 4.33 0 0 0 4.31 2Z" fill="#0F9301"/><path d="M8.97 12.97a3.79 3.79 0 0 1-.31-4.51 5.1 5.1 0 0 1 4.58-2.44c1.01 1.3 1 3.37.04 4.95a4.33 4.33 0 0 1-4.31 2Z" fill="#0F9301"/><path d="M8.86 13c1.9 0 3.17 0 4.42-2.03.55-.9.79-1.97.7-2.96-.82-.05-1.7.08-2.5.4a4.76 4.76 0 0 0-.82-1.86c-.71.35-1.3.86-1.8 1.45a5.43 5.43 0 0 0-1.85-1.54c-.4.58-.67 1.28-.78 2A5.5 5.5 0 0 0 4.02 8a4.9 4.9 0 0 0 .7 2.97C5.35 11.99 6.7 13 8.86 13Z" fill="#15C000"/><path d="M8.86 8c-.14.16-.27.3-.39.46-.28.4-.44.76-.55 1.16a4.43 4.43 0 0 0-1.2-.9c-.15-.1-.32-.18-.49-.26-.04.26-.07.53-.07.79 0 2.18 1.08 2.75 2.7 3.75 1.9-1 2.7-1.93 2.7-3.75 0-.29-.02-.57-.07-.85-.23.09-.46.2-.68.31-.4.23-.71.63-1 .91a4.96 4.96 0 0 0-.55-1.16c-.12-.17-.25-.3-.4-.46Z" fill="#23FF0A"/></svg>