<!-- by TradingView --><svg width="18" height="18" viewBox="0 0 18 18" xmlns="http://www.w3.org/2000/svg"><path fill="url(#a)" d="M0 0h18v18H0z"/><path d="M10.87 3.31c-.14.27-.25.52-.32.77-.02.04.02.06.09.05l.01.1a.57.57 0 0 0-.27.4.3.3 0 0 1-.05.13c-.1.13-.13.3-.1.47-.15.1-.29.22-.4.39l-.8.26-.28-.04c-.05 0-.08-.04-.07-.1a.67.67 0 0 1 .16-.32.26.26 0 0 0 .07-.12.54.54 0 0 0-.04-.34c-.02-.28-.1-.42-.23-.41.15-.08.18-.23.1-.44a.1.1 0 0 0-.1-.08l-.83-.06-.88-.16-.03-.1-.04-.22c0-.05.01-.08.06-.1 1.29-.5 2.6-.52 3.95-.08Z" fill="#C13C14"/><path d="M11.02 3.36c-.1.34-.16.55-.2.64-.02.07-.08.11-.18.13-.07 0-.1 0-.1-.05.08-.25.19-.5.33-.77 0 .04.06.05.15.05Z" fill="#878554"/><path d="M11.87 3.72c-.09.1-.15.2-.2.32a.12.12 0 0 1-.1.08c-.1 0-.19 0-.28-.02a.95.95 0 0 0-.64.12l-.01-.09c.1-.02.16-.06.18-.13.04-.09.1-.3.2-.64l.85.36Z" fill="#3A8510"/><path d="m6.9 3.7.03.1-.88-.01c.14-.15.3-.22.49-.2.05 0 .09.02.13.05a.3.3 0 0 0 .23.07Z" fill="#104371"/><path d="M12.72 4.3c-.07.11-.14.17-.22.19-.05.01-.12-.02-.22-.1-.15-.11-.37-.13-.51.01a.4.4 0 0 1-.15.1c-.05 0-.1 0-.13-.03-.24-.2-.48-.23-.75-.07a.22.22 0 0 0-.09.11c-.1.27-.12.54-.07.82a.6.6 0 0 1-.35-.1.63.63 0 0 1 .1-.47.3.3 0 0 0 .05-.13c.02-.17.11-.3.27-.4.2-.1.41-.17.64-.13.1.02.19.03.28.02.05-.01.09-.04.1-.08.05-.12.11-.22.2-.32l.85.59Z" fill="#10BCDF"/><path d="m6.93 3.8.88.17c.19.12.38.19.6.21.02 0 .04.02.05.05l.02.04a.1.1 0 0 1-.06.09.1.1 0 0 1-.1-.01c-.37-.23-.66-.2-.88.06-.03.04-.07.04-.11.01-.15-.1-.28-.12-.39-.02a.3.3 0 0 1-.12.1.12.12 0 0 1-.13-.02c-.05-.05-.1-.07-.14-.06a.27.27 0 0 0-.15.03c-.13.1-.25.15-.35.14a.99.99 0 0 0-.37.03l-.86.21-.01-.05c-.01-.05 0-.09.04-.11l1.2-.88.88.02Z" fill="#FCF9BB"/><path d="M8.65 4.55c-.08.09-.09.24-.04.45a.1.1 0 0 1-.08.12l-1.4.24a.38.38 0 0 0-.14.05c-.14.08-.31.13-.5.14-.28.02-.47.04-.58.07-.27.08-.55.15-.82.2l-.14-.01c-.36-.13-.45.38-.9.1l.46-.16a.12.12 0 0 0 .08-.09l.04-.07c.04-.03.08-.03.12 0 .14.1.28.13.43.08.31-.1.59-.16.83-.17a.9.9 0 0 0 .5-.14c.07-.04.06-.07-.02-.08l-.18-.03c-.05 0-.08-.03-.08-.09-.01-.22.07-.38.23-.49.15-.1.41-.04.48-.27.11-.1.24-.09.39.02.04.03.08.03.11-.01.22-.26.51-.28.88-.06a.1.1 0 0 0 .1 0 .1.1 0 0 0 .06-.08l-.02-.04a.07.07 0 0 0-.06-.05c-.2-.02-.4-.1-.59-.21l.84.06a.1.1 0 0 1 .1.08c.08.21.04.36-.1.44Z" fill="#7D6034"/><path d="M12.72 4.3c.51.4.94.87 1.3 1.43-.12.13-.23.15-.33.06a.13.13 0 0 1-.06-.12c.02-.17-.02-.24-.11-.21.07-.1.06-.15-.02-.19l-.52-.19c.07-.16.09-.26.04-.3-.07-.13-.18-.14-.35-.03-.1.06-.2.23-.35.51l-.28-.05c.07-.13.12-.27.15-.42-.14-.14-.35-.1-.62.11a.6.6 0 0 0-.28-.08c-.03-.12-.12-.18-.25-.18a.19.19 0 0 0-.17.14.98.98 0 0 0-.01.53l-.28.02c-.05-.28-.02-.55.07-.82a.22.22 0 0 1 .1-.1c.26-.17.5-.15.74.06.04.03.08.04.13.02a.4.4 0 0 0 .15-.09c.14-.14.36-.12.5 0 .1.07.18.1.23.09.08-.02.15-.08.22-.18Z" fill="#C13C14"/><path d="M6.94 4.4c-.07.23-.33.17-.48.27a.53.53 0 0 0-.23.5c0 .05.03.08.08.08l.18.03c.08 0 .1.04.02.08a.9.9 0 0 1-.5.14c-.24 0-.52.06-.83.17-.15.05-.29.02-.43-.08-.04-.03-.08-.03-.12 0a.13.13 0 0 0-.04.07.12.12 0 0 1-.08.09l-.45.17c-.2.05-.3.05-.28-.02.13-.14.24-.28.34-.43.09-.13.2-.24.32-.34l.38-.3.86-.21a.99.99 0 0 1 .37-.03c.1 0 .22-.04.35-.14a.27.27 0 0 1 .15-.03c.04 0 .1.01.14.06a.12.12 0 0 0 .13.02.3.3 0 0 0 .12-.1Z" fill="#CABF42"/><path d="M7.04 4.5c.06-.03.11-.02.17.03a.07.07 0 0 1 0 .1c-.05.08-.11.1-.18.06a.11.11 0 0 1-.05-.1.1.1 0 0 1 .06-.1Z" fill="#D58F19"/><path d="M8.64 4.55c.14 0 .21.13.23.4-.06.3-.13.52-.21.69-.07.16-.16.19-.27.08-.08-.08-.09-.15-.03-.2.14-.1.12-.14-.03-.1l-1.42.33c-.07.01-.1.06-.08.13l.03.12c0 .05.04.07.1.06l1.38-.23a.3.3 0 0 1 .05 0c.05.03.05.05.01.08l-.73.6a6.3 6.3 0 0 1-1.96.55c-.06 0-.07.05-.03.14-.02.08-.02.14 0 .17-.03.13 0 .26.1.37.1.12.08.16-.07.13-.1-.02-.18-.12-.26-.3a.4.4 0 0 0-.15-.27c.01-.16-.06-.25-.2-.26a4.08 4.08 0 0 1-1.58-.47.23.23 0 0 1 .03-.19c.11-.16.2-.32.23-.48-.01.07.08.07.28.02.44.27.53-.24.89-.11.04.02.1.02.14.01.27-.05.55-.12.82-.2.1-.03.3-.05.58-.07.19-.01.36-.06.5-.14a.38.38 0 0 1 .13-.05l1.41-.24a.1.1 0 0 0 .08-.08.1.1 0 0 0 0-.04c-.05-.2-.04-.36.04-.45Z" fill="#FCF9BB"/><path d="m11.3 4.82-.04-.02c-.15-.03-.25 0-.3.07-.04.04-.04.09-.01.13.04.06.09.1.16.13-.04.12-.12.18-.25.18a.98.98 0 0 1 0-.53.18.18 0 0 1 .18-.14c.13 0 .22.06.25.18ZM13.02 4.78c-.33.13-.48.34-.45.61a.33.33 0 0 1-.2.02c-.03 0-.06-.02-.06-.05-.01-.02 0-.06.01-.1.14-.28.25-.45.35-.51.17-.1.28-.1.35.03ZM12.2 4.8c-.41.1-.54.3-.39.56-.15-.05-.23-.2-.24-.45.27-.23.48-.26.62-.12ZM5.14 5.4l.07.05a.05.05 0 0 1 0 .07l-.01.02a.23.23 0 0 1-.24-.03.25.25 0 0 1-.02-.4c.2-.15.37-.21.53-.17.05.01.1 0 .13-.01l.27-.14c.18-.09.23-.05.15.13 0 .01-.07.03-.18.05-.27.05-.5.15-.7.3-.06.05-.06.1 0 .13Z" fill="#05040C"/><path d="M11.57 4.9c.01.26.1.41.24.46.1-.04.18-.08.23-.15l.28.05c-.02.04-.02.08-.01.1 0 .03.03.04.07.05.07.01.13 0 .19-.02.11 0 .2-.03.24-.1a1 1 0 0 1 .17-.2l.52.18c.08.04.09.1.02.19l-.18.28c-.05.08-.11.12-.2.1-.06 0-.09-.03-.08-.1 0-.06.04-.13.1-.22a.05.05 0 0 0 0-.05l-.01-.04a.03.03 0 0 0-.02-.02.03.03 0 0 0-.03 0l-.32.24c-.26.12-.43.07-.52-.15a.1.1 0 0 0-.08-.07.1.1 0 0 0-.1.04.3.3 0 0 0-.05.18l-.11.06c-.23-.02-.4-.1-.5-.22l.04-.14c.01-.06-.01-.09-.07-.1-.09-.02-.14.02-.16.12-.08.1-.2.14-.34.15-.34.01-.7.05-1.06.1.11-.16.25-.3.4-.39.12.07.24.1.35.1l.28-.02c.13 0 .21-.06.25-.18.12-.04.17-.15.15-.32h.03c.1.01.2.04.28.1Z" fill="#D58F19"/><path d="M12.98 5.08a1 1 0 0 0-.17.2c-.05.08-.13.12-.24.11-.03-.27.12-.48.45-.61.05.04.03.14-.04.3ZM11.26 4.8c.02.18-.03.29-.15.33a.32.32 0 0 1-.16-.13c-.03-.04-.03-.09 0-.13.06-.08.16-.1.3-.06Z" fill="#178CB5"/><path d="M6.62 5.1c.11-.04.2-.12.18-.18-.02-.07-.13-.1-.25-.07-.12.04-.2.12-.18.18.02.07.13.1.25.06Z" fill="#FCF9BB"/><path d="M7.86 5.1c.13-.07.23-.15.2-.2 0-.03-.14-.02-.27.04-.14.06-.23.15-.22.19.02.04.15.02.29-.04Z" fill="#CABF42"/><path d="M9.04 5.88a.54.54 0 0 0-.2.13c-.04.05-.03.09.01.12l.08.06-.01.03a.48.48 0 0 0-.38-.04c-.05.02-.08.05-.08.1v.26a.3.3 0 0 1-.02.11c-.1.26-.1.51.04.74v.05l.16.48-.85.55-.04-.15c.04-.28-.02-.42-.16-.42a.2.2 0 0 1 .04-.18c.12.03.22.01.29-.05.22-.2.34-.48.35-.82.08-.1.1-.16.06-.2a.24.24 0 0 0-.2-.06.26.26 0 0 0-.17.11l-.54.76a.18.18 0 0 0-.03.15c.03.14-.02.26-.16.36a.11.11 0 0 0-.04.14c.03.08.1.12.2.13-.1.14-.1.22-.03.26L6.8 9.69a.12.12 0 0 1-.1.06h-.05c-.05 0-.07.03-.06.07 0 .18.03.36.08.54.02.05.04.08.07.1.05.01.1 0 .14-.05v.22c0 .1.02.16.07.19.06.03.13.05.23.04-.04.02-.02.08.06.2.03.03.04.08.02.12l-.08.38c-.23-.22-.67-.4-.86-.09-.03.05-.02.08.04.1.15.05.26.12.32.21.03.06.02.08-.04.05l-.46-.22h-.02c-.28.19-.49.28-.63.27l-.03.02c.33-.33.85-.76 1.32-.7a.06.06 0 0 0 .05-.02.06.06 0 0 0 .01-.05c-.07-.25-.2-.4-.24-.67-.03-.22-.13-.28-.29-.2.03-.15 0-.27-.08-.34.03-.17 0-.29-.12-.35h.05l.03-.02.02-.03a.2.2 0 0 0 0-.08c.05.04.1.07.16.07a.07.07 0 0 0 .05-.03.07.07 0 0 0 .02-.05.55.55 0 0 1 .17-.45.26.26 0 0 0 .1-.1l.01-.05c0-.04-.02-.05-.05-.03l.28-.4a.19.19 0 0 0 .03-.14.45.45 0 0 1 .1-.36c.03-.04.03-.08-.02-.1L7 7.71a2.43 2.43 0 0 0-.84-.6c.1-.06.21-.09.32-.08.05 0 .1.03.14.07l.45.45a.1.1 0 0 0 .07.03h.15a.03.03 0 0 0 .02-.05c-.17-.17-.34-.3-.49-.41-.1-.08-.09-.13.04-.15a2.01 2.01 0 0 0 .88-.39v-.02a.05.05 0 0 0-.03-.05l-.04-.02.73-.6c.04-.02.04-.04 0-.06a.3.3 0 0 0-.06-.01c.03-.02.04-.06.05-.1.1.1.2.07.27-.09.08-.17.15-.4.21-.68.05.1.06.22.04.34a.26.26 0 0 1-.07.12c-.08.1-.13.2-.16.33 0 .05.02.08.07.1l.29.03Z" fill="#878554"/><path d="M5.82 5.33c.15-.06.26-.15.24-.2-.02-.04-.16-.03-.31.03-.16.06-.26.15-.24.2.01.05.16.04.31-.03Z" fill="#6F2117"/><path d="M11.42 5.49c0-.07-.07-.11-.2-.12.03-.1.08-.14.17-.12.06.01.08.04.07.1l-.04.14Z" fill="#7D6034"/><path d="M11.42 5.49c.1.12.27.2.5.22l.65.34.58.5c.04.02.06.06.08.1l.4.85a.3.3 0 0 1 .02.14c0 .2.05.4.18.58a.1.1 0 0 1 0 .12.36.36 0 0 1-.31.2.65.65 0 0 0-.27-.4.03.03 0 0 1 0-.03.03.03 0 0 1 .01-.02l.26-.06c.05-.01.07-.04.07-.1 0-.04-.04-.08-.11-.12l-.36-.67c.03 0 .04-.02.05-.05l-.01-.05c-.69-1.2-2.11-1.5-3.37-1.11l-.86.26-.08-.06c-.04-.03-.05-.07 0-.12.05-.05.11-.1.19-.13l.79-.26c.37-.05.72-.09 1.06-.1.14 0 .26-.06.34-.15.12 0 .19.05.2.12Z" fill="#178CB5"/><path d="M13.52 5.46c.1-.03.13.04.11.2 0 .06.02.1.06.13.1.09.2.07.32-.06.04 0 .06.03.06.08a.32.32 0 0 1-.19.18.2.2 0 0 1-.14 0 .5.5 0 0 0-.4-.03c-.15.03-.26-.02-.32-.18-.02-.04-.05-.05-.1-.03l-.2.09a.19.19 0 0 1-.15 0l-.54-.19a.3.3 0 0 1 .05-.18.1.1 0 0 1 .1-.04.1.1 0 0 1 .08.07c.09.22.26.27.53.15a56.1 56.1 0 0 0 .34-.24.03.03 0 0 1 .02.02l.02.04a.05.05 0 0 1 0 .05.48.48 0 0 0-.11.23c0 .06.02.09.08.1.09 0 .15-.03.2-.1l.18-.3Z" fill="#05040C"/><path d="M8.4 5.72c-.02.05-.03.09-.06.1l-1.38.24c-.06.01-.1 0-.1-.06l-.03-.12c-.02-.07.01-.12.08-.13l1.42-.33c.15-.04.17 0 .03.1-.06.05-.05.12.03.2Z" fill="#696868"/><path d="m12.03 5.65.54.2c.05.01.1.01.15-.01l.2-.1c.05-.01.08 0 .1.04.06.16.17.22.33.18a.5.5 0 0 1 .4.03c.04.02.09.02.13 0 .1-.03.16-.1.2-.18.12.17.2.34.25.5-.23.14-.5.2-.78.17l-.33-.08c-.18-.2-.4-.32-.65-.35l-.65-.34.11-.06Z" fill="#10BCDF"/><path d="M6.68 6.08a.07.07 0 0 1-.06.1l-.46.1a2.81 2.81 0 0 1-.36.06h-.12c-.03 0-.04-.01-.04-.02l-.06-.22c0-.01 0-.02.03-.04a1.73 1.73 0 0 1 .45-.17l.47-.11a.08.08 0 0 1 .09.05l.06.25Z" fill="#696868"/><path d="m13.12 7.14-.32-.21c-.1-.19-.24-.37-.43-.55L12 6.4l-.7-.04a1.79 1.79 0 0 0-.95.05c-.4 0-.77.1-1.12.27a.07.07 0 0 0-.07-.01l-.24-.45V6.2l.87-.26c1.26-.38 2.68-.1 3.37 1.1v.06c0 .03-.01.04-.04.05Z" fill="#05040C"/><path d="M12.57 6.05c.25.03.47.15.65.35l.72 1.1.83-.12-.67.29a.22.22 0 0 0-.1.1c-.1.15-.09.3.03.43.08.08.11.14.11.18-.01.08-.04.12-.09.12l-.26.07c-.56.43-.8.98-.7 1.63.15-.05.23 0 .25.18-.1 0-.17 0-.23.03a.12.12 0 0 0-.06.1.12.12 0 0 0 .05.11c.12.1.22.1.3.04.06.03.12.03.17.02.05-.02.07-.05.07-.1-.02-.38.07-.7.26-1 .69.25.37 1.11-.13 1.36a.13.13 0 0 0-.06.06c-.02.04 0 .07.03.1.04.04.05.08.03.13-.03.06-.1.1-.23.11a.23.23 0 0 1-.2-.1l-.2-.3a.08.08 0 0 0-.08-.03h-.03a.13.13 0 0 0-.05.06v.07c.05.23.2.38.48.44.05.02.07.05.07.1 0 .04-.03.07-.06.08a.77.77 0 0 0-.27-.01.71.71 0 0 1-.65-.29l-.27-.49c.01.04.03.02.06-.06.1.05.21.07.32.07.05 0 .08-.02.08-.07.02-.4-.02-.78.12-1.16.12-.33.24-.6.34-.8a.11.11 0 0 0-.01-.13c-.08-.1-.22-.13-.41-.08.1-.08.18-.13.25-.14.18.1.34.11.49.04.14 0 .25-.07.31-.2a.1.1 0 0 0 0-.12.87.87 0 0 1-.18-.58c0-.05 0-.1-.02-.14l-.4-.85a.32.32 0 0 0-.08-.1l-.58-.5Z" fill="#05040C"/><path d="M4.9 6.29c-.23-.02-.51.04-.83.17-.09.04-.1.01-.05-.07.08-.12.21-.17.38-.14h.14l.7-.17c.07-.01.11.02.11.09v.16c0 .07-.03.1-.1.12l-1.19.28c-.04 0-.06-.01-.06-.06v-.05L4 6.59l.75-.13.08-.05.08-.08a.02.02 0 0 0 0-.03l-.01-.01Z" fill="#6F2117"/><path d="m8.92 6.22.24.45c0 .38-.15.72-.42 1.02-.04.04-.04.07 0 .1l.05.02-.15.1-.15-.47c.38-.12.5-.38.35-.77-.04-.11-.1-.15-.18-.12a.17.17 0 0 0-.11.17c0 .22-.01.45-.07.67a.81.81 0 0 1-.04-.74.3.3 0 0 0 .02-.1v-.27c0-.05.03-.08.08-.1a.48.48 0 0 1 .38.04Z" fill="#D58F19"/><path d="M11.3 6.36c.06.1.16.17.29.24.04.02.05.05.01.09l-.17.2c-.13.2-.1.46-.44.47-.42.02-.83.05-1.18-.16a.32.32 0 0 1-.16-.29.31.31 0 0 1 .19-.27l.51-.23c.3-.1.63-.12.95-.05Z" fill="#3A8510"/><path d="m12 6.4-.7 1.07-1.44-.07c-.35-.15-.56-.4-.63-.72a2.7 2.7 0 0 1 1.12-.27l-.51.23a.31.31 0 0 0-.03.56c.35.2.76.18 1.18.16.34-.01.3-.27.44-.46l.17-.21c.04-.04.03-.07-.01-.09a.73.73 0 0 1-.3-.24l.71.04Z" fill="#878554"/><path d="m12.37 6.38-.05.5c-.11-.1-.22-.11-.33-.06a.18.18 0 0 0-.1.11l-.12.4a.1.1 0 0 0 0 .07c.04.06.09.09.15.08.05-.01.09-.04.12-.08l.29-.42c.08.05.09.17 0 .35-.18.24-.29.43-.31.56-.06.39-.18.41-.37.09-.03-.04 0-.2.07-.48 0-.04 0-.05-.04-.02l-.42.3c-.04.04-.04.07 0 .1.36.37.67.72.95 1.06.06.08.12.12.17.12.08 0 .15-.04.21-.15-.08.13-.1.24-.04.32-.11-.02-.18.02-.18.14a.54.54 0 0 1-.18.39c-.57-.17-1.01 0-1.35.52-.14.21-.4.23-.77.07-.2-.08-.4-.22-.56-.4a.13.13 0 0 1-.04-.1.12.12 0 0 1 .05-.08c.1-.08.17-.11.25-.1.36.35.73.36 1.12.01.04-.03.04-.07.01-.1a.83.83 0 0 0-.52-.33c0-.06.03-.13.08-.21.11-.1.14-.22.08-.34a.25.25 0 0 0-.09-.1.27.27 0 0 0-.13-.05.31.31 0 0 0-.26.12l-.3.41h-.24c.11-.16.22-.44.3-.83.09-.36.34-.58.75-.68.13-.03.3.04.41.08a.17.17 0 0 0 .14-.02.72.72 0 0 0 .18-.16L12 6.4l.37-.02Z" fill="#D58F19"/><path d="m12.8 6.93.14 1.02a.8.8 0 0 0 .09.55.57.57 0 0 0-.25.14l-.18.06c-.1.06-.2.08-.26.06-.05-.02-.07-.05-.06-.1.05-.28.11-.56.19-.83.07-.27.03-.43-.13-.5.08-.18.07-.3-.02-.35v-.1l.05-.5c.2.18.34.36.43.55Z" fill="#C13C14"/><path d="M13.55 6.48c.13.32.6.17.92.09l.19.42c.02.05 0 .08-.04.1l-.68.42-.72-1.1.33.07Z" fill="#7D6034"/><path d="m7.67 6.5.04.02a.06.06 0 0 1 .04.05.05.05 0 0 1-.03.05c-.25.18-.54.3-.86.36-.13.02-.14.07-.04.15a4.23 4.23 0 0 1 .5.44.03.03 0 0 1-.03.02h-.15a.1.1 0 0 1-.07-.03l-.45-.45a.2.2 0 0 0-.14-.07c-.1 0-.21.02-.32.08l-.48.08c-.04-.09-.03-.14.03-.14a6.3 6.3 0 0 0 1.96-.56Z" fill="#6F2117"/><path d="m8.49 7.44-.01-.05c.06-.22.08-.45.07-.67a.16.16 0 0 1 .1-.17c.09-.03.15 0 .19.12.14.4.03.65-.35.77Z" fill="#FCF9BB"/><path d="m5.3 7.3-1.81-.53c-.04-.02-.06-.04-.06-.08s.03-.08.08-.12c.47.25 1 .41 1.6.47.13.01.2.1.19.26Z" fill="#6F2117"/><path d="M8.27 6.85c-.2.14-.4.34-.56.6-.07.11-.1.2-.08.27a.2.2 0 0 0-.04.18c-.1.06-.16.17-.2.34-.1-.01-.17-.05-.2-.13a.12.12 0 0 1 .04-.14c.14-.1.2-.22.16-.36-.01-.05 0-.1.03-.15l.54-.76a.26.26 0 0 1 .18-.1.25.25 0 0 1 .2.06c.03.03 0 .1-.07.2Z" fill="#178CB5"/><path d="M9.23 6.68c.07.33.28.57.63.72-.01.06-.05.09-.12.08-.32 0-.64.12-.95.33a.22.22 0 0 1-.05-.02c-.03-.03-.04-.06 0-.1.27-.3.41-.64.42-1.02.02-.01.05-.01.07 0Z" fill="#6F2117"/><path d="M5.3 7.3a.4.4 0 0 1 .15.27l-.14-.02-1.84-.7.02-.08 1.81.53Z" fill="#178CB5"/><path d="M12.32 6.88v.1l-.28.42a.16.16 0 0 1-.12.08c-.06 0-.11-.02-.14-.08a.1.1 0 0 1 0-.07l.12-.4a.18.18 0 0 1 .09-.1c.1-.06.22-.04.33.05Z" fill="#FCF9BB"/><path d="m3.47 6.84 1.84.7c0 .26-.05.52-.16.8l-1.93-.6a.13.13 0 0 1-.07-.05.13.13 0 0 1-.01-.1l.2-.64a.11.11 0 0 1 .06-.07l.07-.04Z" fill="#6F2117"/><path d="M8.27 6.85c0 .34-.13.61-.35.82-.07.06-.17.08-.29.05-.02-.07 0-.16.08-.26.16-.27.35-.47.56-.6Z" fill="#05040C"/><path d="m12.8 6.93.32.21.36.67a.95.95 0 0 1-.54.14l-.14-1.02Z" fill="#878554"/><path d="M6.17 7.12c.3.13.58.33.83.6-.47.03-.9-.09-1.32-.35-.02-.03-.02-.09 0-.17l.49-.08Z" fill="#C13C14"/><path d="M12.6 8.7c.05-.01.05.06 0 .2-.07.12-.14.17-.22.16-.05 0-.11-.04-.18-.12-.27-.34-.58-.69-.95-1.06-.03-.03-.03-.06 0-.1l.43-.3c.03-.03.05-.02.04.02-.07.28-.1.44-.07.48.19.32.31.3.37-.08.02-.14.13-.33.32-.57.16.07.2.23.13.5-.08.27-.14.55-.2.83 0 .05.02.08.07.1.07.02.16 0 .26-.06Z" fill="#05040C"/><path d="m7 7.72.1.07c.05.03.05.07.02.1a.45.45 0 0 0-.1.37c.01.05 0 .1-.03.14l-.28.4-1.56-.46c.1-.28.16-.54.16-.8l.14.03c.08.18.17.28.26.3.15.03.17-.01.08-.13-.1-.12-.14-.24-.1-.37.4.26.84.38 1.3.35Z" fill="#3A8510"/><path d="M11.3 7.47a.73.73 0 0 1-.18.16.17.17 0 0 1-.14.02c-.11-.04-.28-.1-.41-.08-.41.1-.66.32-.74.68-.1.4-.2.67-.3.83-.06.08-.1.13-.15.13a.2.2 0 0 1-.23-.16v-.1c.17-.47.43-.9.78-1.31.03-.04.03-.07-.02-.1a.57.57 0 0 0-.17-.06c.07 0 .1-.02.12-.08l1.44.07Z" fill="#C13C14"/><path d="M14.77 7.38c.15.5.22.93.19 1.3a.47.47 0 0 1-.42.07.17.17 0 0 0-.14 0l-.17.08a.1.1 0 0 1-.13-.02c-.03-.04-.03-.09 0-.15 0-.04.04-.06.1-.08.05-.02.07-.05.04-.1a.28.28 0 0 0-.1-.1c0-.04-.03-.1-.1-.18-.13-.13-.14-.28-.05-.44a.22.22 0 0 1 .1-.1l.68-.28ZM9.74 7.48c.07.01.13.03.17.06.05.03.05.06.02.1-.35.4-.6.84-.77 1.3a.2.2 0 0 0 .03.2.2.2 0 0 0 .19.07c.05 0 .1-.05.14-.13h.23c.02.12.1.16.26.1l.45-.14a.44.44 0 0 0-.08.21l-.61.41c-.08 0-.16.03-.25.1a.12.12 0 0 0-.04.15l.03.04c.16.18.35.32.56.4l-.3.2c-.02.03-.05.03-.08 0-.27-.25-.3-.4-.75-.42-.24 0-.5-.11-.8-.31-.09-.07-.13-.15-.1-.26a.43.43 0 0 1 .22 0c.09.07.2.07.32 0a.32.32 0 0 0 .13-.43c-.12-.23-.26-.26-.43-.08a.65.65 0 0 1-.22.1.49.49 0 0 0-.05-.33.13.13 0 0 0-.2-.02c-.1.11-.2.23-.27.35-.15.24-.14.6-.26.89l-.05-.37c.04-.1.06-.2.06-.32 0-.13.02-.23.06-.3.1-.23.25-.42.44-.58l.85-.55.15-.1c.3-.22.63-.33.95-.34Z" fill="#F1CA15"/><path d="M13.48 7.81c.07.04.11.08.11.13s-.02.08-.07.09l-.26.06a.03.03 0 0 0 0 .05c.15.12.23.25.26.4-.15.07-.31.06-.5-.04a.8.8 0 0 1-.08-.55c.18 0 .36-.04.54-.14Z" fill="#CABF42"/><path d="M5.8 8.7c-.02.14.05.21.21.24.14.02.26 0 .38-.07l.26.1a.55.55 0 0 0-.17.46.07.07 0 0 1-.02.05.07.07 0 0 1-.05.03.26.26 0 0 1-.16-.07c-.26-.27-.5-.2-.8-.3a.28.28 0 0 1-.12-.07c-.14-.16-.3-.17-.45-.02a.11.11 0 0 1-.06.03l-.07-.01c-.2-.08-.47-.28-.62.03a.13.13 0 0 1-.1.07c-.4.04-.64.23-.77.56a.12.12 0 0 1-.1.08l-.04.02h-.05C3.02 9.8 3 9.78 3 9.73V8.1a.17.17 0 0 1 .15-.18h.08l2.57.79Z" fill="#982E15"/><path d="m7.75 8.32.04.15c-.19.16-.34.35-.44.58a.72.72 0 0 0-.06.3c0 .12-.02.23-.06.32a.94.94 0 0 1-.28.46c-.05.05-.07.14-.07.28-.05.05-.1.06-.14.04-.03-.01-.05-.04-.07-.1a2.36 2.36 0 0 1-.08-.53c0-.04.01-.07.06-.07h.04a.12.12 0 0 0 .11-.06l.56-1.19c.1-.08.23-.14.39-.18Z" fill="#178CB5"/><path d="M8.97 8.82a.07.07 0 0 1-.1.04h-.01a.46.46 0 0 1-.11-.06.36.36 0 0 1-.09-.08.24.24 0 0 1-.04-.1v-.08l.02-.04c.02-.05.07-.1.14-.11a.42.42 0 0 1 .24 0l.02.01a.07.07 0 0 1 .04.1l-.11.32Z" fill="#FCF9BB"/><path d="M14.96 8.67c.04.07.03.12-.01.15a.68.68 0 0 0-.26.11c-.11-.08-.26-.07-.45.01-.14.15-.08.34.18.58.04.04.08.05.13.04a.92.92 0 0 0 .4-.14c.02 0 .04.02.04.05a.1.1 0 0 1-.06.1.96.96 0 0 1-.37.11.07.07 0 0 0-.06.04c-.03.06-.01.1.05.14-.04.03-.06.08-.05.14.04.34-.02.78-.28 1.03-.11.11-.2.21-.25.3-.1.15-.12.25-.06.31l.03.06.02.35c-.05.01-.08.04-.09.09 0 .05.02.08.06.09l.05.01a.06.06 0 0 1 .03.1l-.65.8a.23.23 0 0 0-.1.04c-.02.02-.04.02-.06 0a.08.08 0 0 1-.01-.11c.16-.23.25-.48.26-.73 0-.04-.02-.07-.06-.08a.17.17 0 0 0-.07 0c-.06 0-.09-.02-.09-.08a.2.2 0 0 1 .1-.16c.11-.09.16-.2.14-.36a.09.09 0 0 0 .06-.08c0-.05-.02-.08-.07-.1-.27-.06-.43-.21-.48-.44v-.07l.05-.05.03-.01c.04 0 .07 0 .09.04l.19.29a.23.23 0 0 0 .2.1c.12-.01.2-.05.23-.11.02-.05.01-.09-.03-.12-.03-.04-.05-.07-.03-.1.01-.03.03-.05.06-.07.5-.25.82-1.1.13-1.36a.61.61 0 0 0 .07-.25c0-.05-.02-.09-.07-.1-.15-.04-.23.08-.32.18-.05.05-.07.04-.07-.03l.02-.27c.2-.2.3-.38.26-.54l.26-.07c.05 0 .08-.04.1-.12l.1.1c.02.05 0 .08-.05.1-.06.02-.1.04-.1.08-.03.06-.03.11 0 .15a.1.1 0 0 0 .13.02l.17-.08a.17.17 0 0 1 .14 0c.14.04.28.02.42-.08Z" fill="#6F2117"/><path d="m10.46 9.04-.45.14c-.16.06-.24.02-.26-.1l.31-.41a.31.31 0 0 1 .26-.12c.05 0 .1.02.13.04.04.03.07.06.09.1.06.13.03.25-.08.35Z" fill="#FCF9BB"/><path d="M13.8 8.57c.02.16-.07.34-.27.54l-.43 1.1c-.1-.66.13-1.21.7-1.64Z" fill="#878554"/><path d="M12.78 8.64c.2-.05.33-.02.4.08.04.04.05.08.02.13-.1.2-.22.47-.34.8-.14.38-.1.75-.12 1.16 0 .05-.03.08-.08.07a.89.89 0 0 1-.32-.07c-.05-.02-.1-.07-.14-.15l-.01-.9c.1-.1.17-.23.18-.39 0-.12.07-.16.18-.14.11.06.22.03.33-.1a.19.19 0 0 0 0-.25.2.2 0 0 0-.07-.05c-.04-.02-.11 0-.22.08.06-.15.06-.22.01-.2l.18-.07Z" fill="#10BCDF"/><path d="M6.39 8.87a.56.56 0 0 1-.38.07c-.16-.03-.23-.1-.21-.23l.59.16Z" fill="#6F2117"/><path d="M8.06 9.14c-.03.15-.04.3-.02.42-.03.1.01.2.1.26.3.2.56.3.8.31.45.01.48.17.75.42.03.03.06.03.09 0l.29-.2c.37.16.63.14.77-.07.34-.52.78-.69 1.35-.52v.9c0 .13-.02.2-.07.25-.04.04-.08.04-.12 0-.14-.11-.3-.1-.48 0a3.13 3.13 0 0 0-1.45.24c-.12.03-.2-.02-.23-.15-.02-.06 0-.13.07-.2-.06-.16-.21-.17-.44-.04-.04.02-.04.04 0 .05l.05.02c.03.1.01.17-.07.19-.04.03-.04.07-.01.1 0 .04 0 .08-.02.12l-.67.06c.09-.34.12-.64.1-.89-.33-.27-.67-.3-1.02-.08a1.48 1.48 0 0 0 .11 1.35c.01.12.08.2.2.23a.5.5 0 0 0-.04-.01.08.08 0 0 0-.08.04.08.08 0 0 0 .02.1c.16.18.4.45.23.64a.18.18 0 0 1-.12.07c-.04 0-.09-.01-.13-.04l-.34-.27c-.05-.09-.1-.13-.14-.14l-.12-.27c.02-.07 0-.13-.05-.19.02-.1-.05-.2-.2-.28l.1-.38c0-.04 0-.09-.03-.13-.08-.1-.1-.17-.06-.2l.1-.81c.12-.3.11-.65.26-.9.07-.11.16-.23.26-.34a.13.13 0 0 1 .21.02c.05.08.07.19.05.32Z" fill="#FCF9BB"/><path d="M12.55 9.23c-.05-.08-.04-.2.04-.32.1-.07.18-.1.22-.08a.2.2 0 0 1 .12.14.19.19 0 0 1-.05.17c-.1.12-.22.15-.33.09Z" fill="#D9D9D9"/><path d="M14.95 8.82v.25c-.26.06-.35.01-.26-.14a.68.68 0 0 1 .26-.1Z" fill="#F1CA15"/><path d="M14.7 8.93c-.1.15-.01.2.25.14.03.01.05.04.05.09 0 .06-.02.1-.07.08a.86.86 0 0 0-.24.07c-.06.02-.1.03-.14.02a.17.17 0 0 1-.1-.1.12.12 0 0 1 0-.12l.06-.09c.04-.05.02-.08-.04-.1a.54.54 0 0 0-.23.02c.19-.08.34-.09.45-.01Z" fill="#D58F19"/><path d="M6.25 9.44a.2.2 0 0 1 0 .08l-.02.03-.03.02h-.05l-.68.06a.11.11 0 0 0-.1.09l-.04.11a.06.06 0 0 0 .03.07l.03.01h.88c.08.08.11.2.08.36-.07.22-.17.4-.3.56a.18.18 0 0 1-.11.07l-.42.05a.19.19 0 0 0-.07.02.17.17 0 0 0-.05.05.15.15 0 0 0-.03.06v.07c.04.08-.05.15-.24.2a.26.26 0 0 1-.26-.07c-.08-.09-.17-.1-.26-.03-.1.07-.16.1-.2.1-.09.02-.16.01-.21-.04a.21.21 0 0 1-.07-.12c-.01-.1-.07-.16-.16-.16a2.5 2.5 0 0 1-.62-.06l-.11-.4c.04-.02.06-.05.05-.09 0-.04-.04-.06-.1-.06-.08-.18-.1-.38-.07-.6h.05a.12.12 0 0 0 .09-.09c.13-.33.38-.52.76-.56.05 0 .09-.03.1-.07.16-.31.44-.11.63-.03.02.01.05.01.07 0 .02 0 .04 0 .06-.02.16-.15.3-.14.45.02l.12.08c.3.1.54.02.8.29Z" fill="#FCF9BB"/><path d="M14.24 8.94c.1-.02.18-.03.23-.02.06.02.08.05.04.1l-.06.09a.12.12 0 0 0 0 .12c.02.05.05.08.1.1.04 0 .08 0 .14-.02a.86.86 0 0 1 .24-.07l.01.18a.92.92 0 0 1-.4.14c-.04.01-.08 0-.12-.04-.26-.24-.32-.43-.18-.58Z" fill="#F1CA15"/><path d="m8.28 9.05.18.07c.07.04.07.05-.01.06h-.06a.09.09 0 0 0-.08.07.8.8 0 0 0-.05.3.43.43 0 0 0-.22 0c-.02-.12-.01-.26.02-.4.1-.04.18-.07.22-.1Z" fill="#878554"/><path d="m13.53 9.11-.02.27c0 .07.02.08.07.03.1-.1.17-.22.32-.18.05.01.08.05.07.1a.6.6 0 0 1-.07.25c-.2.3-.28.62-.26 1 0 .05-.02.08-.07.1a.24.24 0 0 1-.17-.02.39.39 0 0 0-.06-.28c-.02-.17-.1-.23-.24-.18l.43-1.09ZM10.13 9.55c.1-.06.16-.15.27-.19.1-.03.11 0 .06.07l-.21.3c-.04.05-.08.06-.14.03l-.05-.03c-.05-.03-.04-.07 0-.12a.37.37 0 0 1 .07-.06Z" fill="#7D6034"/><path d="M3.4 9.97h.1a.08.08 0 0 0 .08-.05l.02-.07c-.01.05 0 .08.04.1a.1.1 0 0 0 .07 0 .1.1 0 0 0 .05-.03c.06-.08.12-.1.19-.04a.06.06 0 0 0 .04 0l.53-.08c.01 0 .02 0 .03-.02a.17.17 0 0 0 .02-.04v-.02l-.01-.02h-.01l-.01-.01h-.26l-.03-.01-.02-.03a.1.1 0 0 1 0-.04c.02-.03.03-.04.06-.05a.5.5 0 0 1 .36.02c.05.02.1.02.14 0 .09-.04.2-.05.3-.02.05.02.07.05.06.1l-.07.2a.1.1 0 0 1-.09.07l-1.31.12a.57.57 0 0 1-.27-.08Z" fill="#05040C"/><path d="m3.6 9.85-.02.07a.08.08 0 0 1-.09.06h-.08a.48.48 0 0 1 .1-.38.1.1 0 0 1 .12-.04c.13.04.25.04.38.02.04 0 .06.01.05.06 0 .02-.03.03-.06.04h-.06c-.15-.05-.26.01-.34.17Z" fill="#6F2117"/><path d="M6.15 9.57c.11.06.15.18.12.35l-.88-.01a.06.06 0 0 1-.06-.05v-.03l.04-.11a.11.11 0 0 1 .1-.09l.68-.06Z" fill="#7D6034"/><path d="m13.96 12.05-.02-.35a.08.08 0 0 0-.03-.06c-.06-.06-.04-.16.06-.3.05-.1.14-.2.25-.3.26-.26.32-.7.28-1.04 0-.06.01-.1.05-.14l.33-.04a.09.09 0 0 1 .07.02.09.09 0 0 1 .03.08c-.09.46-.21.9-.38 1.31a.5.5 0 0 1-.33.31c-.06.02-.07.05-.02.1.05.03.08.08.1.13.01.05 0 .09-.02.13a.4.4 0 0 1-.37.15Z" fill="#178CB5"/><path d="M4.54 10.8c.02-.23-.13-.34-.47-.34l-.03-.13c.08-.12.2-.16.38-.13.3.05.58.03.83-.05.05-.02.1-.02.14 0 .22.06.41.08.57.07.07 0 .09.02.05.08a.33.33 0 0 1-.16.1.1.1 0 0 0-.02.17l.12.08c.06.04.05.06-.01.06h-.37c-.07 0-.1-.03-.07-.1l.06-.2a.1.1 0 0 0-.06-.1c-.08-.04-.14-.05-.17-.04-.07.03-.07.08 0 .13l.07.04a.06.06 0 0 1 .03.05.06.06 0 0 1-.03.05l-.12.05c-.06.03-.06.06-.02.1l.06.04c.06.03.06.06 0 .09-.15.05-.26.01-.35-.12-.03-.04-.06-.04-.1-.02a.52.52 0 0 1-.33.12Z" fill="#7D6034"/><path d="m5.5 11.9-1.7.02-.45-.95c.17.04.38.06.62.06.1 0 .15.05.16.16.01.05.03.09.07.12.05.05.12.06.22.05.03 0 .1-.04.19-.11.1-.07.18-.06.26.03a.26.26 0 0 0 .26.07c.2-.05.28-.12.25-.2 0-.03-.01-.05 0-.07 0-.02 0-.04.02-.06a.19.19 0 0 1 .12-.07l.42-.05c.04-.01.08-.03.1-.07.14-.15.24-.34.31-.56.16-.09.26-.03.3.2.03.26.16.4.23.66a.06.06 0 0 1-.06.07c-.47-.06-.99.37-1.32.7Z" fill="#C13C14"/><path d="m4.04 10.33.03.13c-.07.07-.1.17-.08.3a.3.3 0 0 1-.17.05.1.1 0 0 1-.08-.09v-.42a.02.02 0 0 1 .02-.02h.01c.15.1.24.11.27.05Z" fill="#696868"/><path d="M7.83 10.33c.1.22.16.42.15.58a.23.23 0 0 0 .26.24c.04 0 .08-.02.12-.05.23-.2.4-.42.5-.69.01.25-.02.55-.11.89.05.03.04.13-.02.3a2.65 2.65 0 0 0-.93-.23c-.12-.3-.11-.65.03-1.04ZM13.34 10.38c.06.1.08.2.06.28-.08.07-.18.05-.3-.04a.12.12 0 0 1 .01-.2.46.46 0 0 1 .23-.04Z" fill="#178CB5"/><path d="M3.23 10.56c-.04-.01-.07-.03-.08-.06a.04.04 0 0 1 0-.05l.03-.03c.07 0 .1.02.11.06 0 .04-.01.07-.06.08Z" fill="#696868"/><path d="M4.07 10.46c.34 0 .5.11.47.34L4 10.77c-.01-.14.01-.24.08-.3Z" fill="#878554"/><path d="M12.34 10.8c-.03.1-.05.11-.06.07l-.2.84c-.08-.16-.17-.22-.3-.19-.17.04-.3.06-.42.06-.18-.01-.2-.06-.03-.15l.35-.2a.1.1 0 0 0 .05-.08.1.1 0 0 0-.05-.08c-.1-.05-.16-.1-.16-.15.18-.12.34-.12.48 0 .04.03.08.03.12 0 .05-.05.08-.13.08-.26.04.08.09.13.14.15ZM9.91 10.8c-.06.07-.09.14-.07.2.04.13.11.18.23.15l.81.33a.16.16 0 0 1 .09.2.16.16 0 0 1-.05.07l-.31.22a.26.26 0 0 0-.09.1c-.04.1-.15.16-.34.18h-.11l.01-.63c.13-.08.08-.14-.15-.16l-.09-.13a.14.14 0 0 0-.1-.06l-.32-.03a.18.18 0 0 0 .02-.12c.11.02.2.02.23-.01.05-.05.04-.07-.05-.09a.45.45 0 0 0-.17 0c.08-.02.1-.08.07-.2.13.02.26.01.4-.02Z" fill="#E2E86E"/><path d="M11.52 10.92c0 .05.06.1.16.15a.1.1 0 0 1 0 .16l-.35.2c-.16.1-.15.14.03.15.11 0 .25-.02.42-.06.13-.03.22.03.3.19a.65.65 0 0 0-.21.07.12.12 0 0 0-.07.11c0 .1-.03.2-.1.28-.29.35-.64.55-1.06.6-.1 0-.17 0-.22-.03l-.24-.49c.19-.02.3-.07.34-.17a.26.26 0 0 1 .09-.1l.3-.23a.16.16 0 0 0-.03-.27l-.81-.33c.43-.19.92-.27 1.45-.23Z" fill="#C3EEB8"/><path d="m12.28 10.87.27.5a.73.73 0 0 0-.09.46c0 .04 0 .08-.03.12l-.33.47a.1.1 0 0 0-.02.08.09.09 0 0 0 .06.06l.38.12a.09.09 0 0 1 .05.06.09.09 0 0 1-.02.08l-.6.6a.08.08 0 0 0 0 .1c.06.06.15.08.28.06-.18.12-.34.12-.47 0-.04-.03-.05-.06 0-.1.13-.12.24-.25.32-.4a.13.13 0 0 0 0-.13c-.08-.17-.24-.23-.46-.19v-.04h-.04l-1.69.47c-.03-.03-.05-.08-.05-.14l.8-.28c.42-.05.77-.25 1.06-.6.07-.09.1-.18.1-.28 0-.05.02-.08.07-.1a.65.65 0 0 1 .2-.08l.21-.84Z" fill="#D58F19"/><path d="M9.45 11.02h.17c.09.02.1.04.05.09-.04.03-.12.03-.23 0-.03-.02-.03-.06.01-.1Z" fill="#7D6034"/><path d="m9.42 11.24.32.03c.04 0 .08.03.1.06l.1.13c-.47.23-.77.41-1.21.14.06-.17.07-.27.02-.3l.67-.06Z" fill="#F1CA15"/><path d="M7.18 11.56c.14.08.2.18.2.28a.95.95 0 0 0-.43.33c-.14.2-.25.32-.34.37-.18.11-.38.19-.59.24a.74.74 0 0 0-.24-.34c-.18-.2-.35-.15-.53.03-.14.13-.47.45-.65.22l.5-.25c.05-.03.06-.06.05-.1l-.04-.11c.31-.12.39-.2.23-.23.12-.02.19-.06.2-.12.13 0 .34-.08.61-.27h.03l.46.22c.06.03.07.01.04-.05-.06-.1-.17-.16-.32-.21-.06-.02-.07-.05-.04-.1.2-.31.63-.13.86.09Z" fill="#104371"/><path d="M8.73 11.6c.44.27.74.1 1.2-.14.23.02.28.08.15.16-.35.28-.72.4-1.1.37-.32-.2-.67-.3-1.04-.31a.9.9 0 0 1-.14-.3c.3.01.62.09.93.22Z" fill="#05040C"/><path d="M13.2 11.65c-.03.17-.03.33.01.47.02.05.02.08.01.1a.17.17 0 0 1-.05.09.21.21 0 0 0-.08.11l-.17.71c-.2.22-.44.37-.69.45-.13.02-.22 0-.27-.05a.08.08 0 0 1 0-.12l.6-.59a.09.09 0 0 0-.04-.14l-.38-.12a.09.09 0 0 1-.06-.06.1.1 0 0 1 .01-.09l.34-.46a.17.17 0 0 0 .03-.12.73.73 0 0 1 .09-.46c.16.2.37.3.65.28Z" fill="#C13C14"/><path d="m10.08 11.62-.01.63c-.47.23-.97.35-1.5.37-.05 0-.09.03-.12.1 0 .05-.01.09-.03.13a.12.12 0 0 0 .02.12c.29.4.68.63 1.17.7l.94.14c.05 0 .09 0 .12-.05l.7-.78a.41.41 0 0 1 .25-.22c.22-.04.38.02.47.19.02.04.02.08 0 .13-.1.15-.2.28-.33.4-.05.04-.04.07 0 .1.13.12.3.12.47 0 .25-.08.48-.23.69-.45l.04.35a5.56 5.56 0 0 1-3.01 1.43.7.7 0 0 1 .1-.52c.02-.03.01-.04-.03-.04l-.66.05c.06-.32-.1-.53-.47-.63-.3-.09-.5-.13-.59-.13l-.6-.51-.02-.7.34.28c.04.03.09.04.13.04.05 0 .1-.03.12-.07.17-.19-.07-.46-.23-.65a.08.08 0 0 1 .02-.12l.04-.01a.5.5 0 0 1 .04 0c.33.17.6.2.84.09.38.03.75-.09 1.1-.37Z" fill="#F1CA15"/><path d="M13.47 11.66a.34.34 0 0 1-.15.36.2.2 0 0 0-.09.16c0 .06.03.08.1.07l.06.01c.04.01.06.04.06.08 0 .25-.1.5-.26.73a.08.08 0 0 0 .01.12h.05a.23.23 0 0 1 .11-.05 1.3 1.3 0 0 1-.4.34l-.04-.35.17-.7a.21.21 0 0 1 .08-.12.17.17 0 0 0 .05-.08v-.1c-.05-.15-.05-.31-.02-.48.1-.01.19-.01.27.01Z" fill="#696868"/><path d="M8.98 11.99c-.24.11-.51.08-.84-.08-.12-.03-.19-.1-.2-.23.37 0 .72.1 1.04.3Z" fill="#178CB5"/><path d="m5.5 11.9.03-.02c0 .06-.07.1-.19.12-.35.09-.68.19-1.01.3-.3.12-.48-.01-.54-.38l1.7-.02Z" fill="#982E15"/><path d="M7.37 11.84c.05.06.07.12.05.19-.04.19-.15.3-.32.35a.14.14 0 0 0-.1.08c-.09.21-.16.32-.38.45-.3.16-.56.35-.76.55a.16.16 0 0 1-.11.04h-.08c-.05 0-.1.03-.11.08-.06.1-.15.15-.28.13l-.76-.68c-.04-.04-.03-.06.02-.06.1-.01.2.01.33.08l.5.43c.04.04.1.05.15.03.06-.04.07-.08.02-.13l-.07-.06c-.05-.05-.05-.1.01-.14l.54-.4c.21-.05.4-.13.6-.24.08-.05.2-.17.34-.37a.95.95 0 0 1 .41-.33Z" fill="#05040C"/><path d="M5.77 12.27c.17.07.32.1.34.04.02-.04-.1-.14-.26-.22-.17-.07-.32-.1-.34-.05-.02.05.1.15.26.23Z" fill="#FCF9BB"/><path d="M7.54 12.3a7.56 7.56 0 0 1-1.64 1.4l-.27.1h-.28a.17.17 0 0 1-.07-.09c.13.02.22-.02.28-.13a.12.12 0 0 1 .11-.08h.08c.04 0 .08-.01.11-.04.2-.2.45-.39.76-.55.22-.13.3-.24.38-.45a.14.14 0 0 1 .1-.08c.17-.05.28-.16.32-.35l.12.27Z" fill="#6F2117"/><path d="m5.1 12.23.05.1c.01.05 0 .08-.04.1l-.5.26c-.14 0-.26 0-.36-.03-.14-.05-.14-.1-.01-.16.27-.12.56-.21.87-.27Z" fill="#878554"/><path d="m10.18 12.25.24.5c-.6.14-1.2.13-1.79-.04-.04-.02-.07-.05-.07-.1a3.54 3.54 0 0 0 1.5-.36h.12Z" fill="#178CB5"/><path d="m7.68 12.44.01.69c-.1 0-.17.08-.18.22-.01.06 0 .16.04.33l-.25-.02c.05 0 .1-.02.12-.05.01-.02.01-.04 0-.07-.03-.05-.06-.06-.09-.04.21-.2.13-.23-.23-.07a.23.23 0 0 0-.1.1c-.04.06-.1.11-.2.15a.04.04 0 0 0-.03.05.04.04 0 0 0 .04.04c.09 0 .15.02.18.03.05.02.06.05.02.1l-.12.1c-.04.05-.08.05-.12 0a.27.27 0 0 0-.07-.1.13.13 0 0 0-.13-.01c-.34.12-.63.13-.9.02-.05-.03-.07-.07-.04-.11l.27-.1.2.12a.14.14 0 0 0 .14 0c.38-.17.72-.43 1.02-.78.02-.02.02-.03.01-.04l-.03-.02c-.02-.02-.06-.02-.1 0-.06.02-.27.21-.65.56-.17.16-.3.15-.37-.01.53-.36 1-.77 1.42-1.23.04 0 .09.05.14.14Z" fill="#CABF42"/><path d="m6.02 12.78-.54.4c-.06.04-.06.09 0 .14l.06.06c.05.05.04.1-.02.13-.06.02-.1.01-.16-.03l-.49-.43.91-.61c.12.1.2.2.24.34Z" fill="#10BCDF"/><path d="M8.56 12.62c0 .04.03.07.07.09.59.17 1.18.18 1.8.03.04.03.11.04.2.03l-.8.28c-.26.07-.6.06-1.03-.03l-.35-.3c.03-.07.07-.1.11-.1Z" fill="#05040C"/><path d="M11.62 12.76c-.1.04-.2.11-.25.22-.35.06-.62.2-.8.4l-.7-.05a.07.07 0 0 1-.04-.03.06.06 0 0 1-.01-.06.08.08 0 0 1 .07-.05l1.7-.48.02.01.01.04Z" fill="#6F2117"/><path d="M8.8 13.02c.59.63 1.18.75 1.77.36.18-.2.45-.34.8-.4l-.7.78a.13.13 0 0 1-.12.05 48.8 48.8 0 0 1-.94-.13c-.5-.08-.88-.31-1.17-.7a.12.12 0 0 1-.02-.13.38.38 0 0 0 .03-.13l.35.3Z" fill="#D58F19"/><path d="M5.9 13.7a.4.4 0 0 1 .22-.17c.08.16.2.17.37 0 .38-.34.59-.53.64-.55.05-.02.09-.02.11 0 .02 0 .03.02.03.02v.04c-.3.35-.65.6-1.03.78a.14.14 0 0 1-.14 0l-.2-.12Z" fill="#7D6034"/><path d="M9.84 13.05c0 .06.02.1.05.14a.08.08 0 0 0-.07.05.06.06 0 0 0 0 .06.07.07 0 0 0 .06.03l.7.05c-.6.39-1.19.27-1.78-.36.42.09.77.1 1.04.03Z" fill="#C13C14"/><path d="m7.7 13.13.6.5.36.48a.15.15 0 0 0 .13.06c.1 0 .18-.02.26-.06a.12.12 0 0 1 .1 0 .12.12 0 0 1 .07.08c.01.07.06.14.14.21l.66-.05c.04 0 .05.01.03.04a.7.7 0 0 0-.1.52c-.7.13-1.37.12-2.03-.04a.47.47 0 0 1-.15-.09l-.17-.93-.05-.17a1.23 1.23 0 0 1-.04-.33c.01-.14.07-.22.18-.22Z" fill="#FCF9BB"/><path d="M7.33 13.5c-.1 0-.17.01-.2.07-.03.05-.01.08.05.1h.37l.05.18-.07.93-1.06-.34c.03-.1.1-.15.2-.17.03-.01.04-.02.05-.04a.1.1 0 0 0 .02-.04c0-.05-.02-.07-.06-.08a1.49 1.49 0 0 0-.7.06l-.63-.37h.28c-.03.04-.01.08.05.1.26.12.55.1.89-.02.05-.01.09 0 .13.02.03.02.05.05.07.1.04.05.08.05.12 0l.12-.1c.04-.05.03-.08-.02-.1a.58.58 0 0 0-.18-.03l-.03-.01a.04.04 0 0 1 .01-.08c.1-.04.17-.09.2-.15a.23.23 0 0 1 .1-.1c.37-.16.45-.14.24.07Z" fill="#7D6034"/><path d="M7.33 13.5c.03-.02.06-.01.09.04.01.03.01.05 0 .07-.03.03-.07.05-.12.05h-.12c-.06 0-.08-.04-.05-.1.03-.05.1-.07.2-.06Z" fill="#E2E86E"/><path d="M9.36 14.4a.46.46 0 0 1-.14-.21.11.11 0 0 0-.07-.08.12.12 0 0 0-.1 0 .75.75 0 0 1-.26.06.15.15 0 0 1-.13-.06l-.36-.47c.1 0 .29.04.59.13.37.1.53.31.47.63ZM7.77 14.78a.64.64 0 0 1-.24 0l.07-.93.17.93ZM6.47 14.44 6 14.17c.23-.07.45-.1.69-.06.04.01.06.03.06.08a.1.1 0 0 1-.02.04.07.07 0 0 1-.05.04c-.1.02-.17.08-.2.17Z" fill="#CABF42"/><defs><linearGradient id="a" x1="3.35" y1="3.12" x2="21.9" y2="24.43" gradientUnits="userSpaceOnUse"><stop stop-color="#1A1E21"/><stop offset="1" stop-color="#06060A"/></linearGradient></defs></svg>