<!-- by TradingView --><svg width="18" height="18" viewBox="0 0 18 18" xmlns="http://www.w3.org/2000/svg"><path fill="#F0F3FA" d="M0 0h18v18H0z"/><path d="M5.76 6.63a5.29 5.29 0 0 1 3.37-1.37c.03 0 .05-.01.07-.04.23-.35.5-.72.8-1.1.34-.42.72-.79 1.15-1.1.02-.02.04-.02.06 0 .85.6 1.17 1.43.98 2.5 0 .02-.02.03-.05.01-.63-.45-1.47-.4-2.22-.25-.09.02-.09.03 0 .04a4.76 4.76 0 0 1 3.76 3.04 3.8 3.8 0 0 1-.18 3.42c-.8 1.43-2.25 1.97-3.8 2.18-.37.05-.74.05-1.14 0A5.37 5.37 0 0 1 4.82 12c-1.96-2.46.02-6.62 1.47-8.8a.1.1 0 0 1 .07-.05c1.12-.07 1.57.7 1.65 1.7v.02l-.02.02c-.91.28-1.85.82-2.26 1.72-.03.07-.02.07.03.03Z" fill="#7CC6DC"/><path fill-rule="evenodd" d="M11.9 9.61c.48.13.9.56.93 1.15l-1.01.05.59.13-.6-.13h-.1v.3c0-.07-.01-.17-.05-.3l-.83.05a.76.76 0 0 0 .56.69.83.83 0 0 0 1.02-.61 1.5 1.5 0 0 1-.68.97c-.35.22-.74.25-1.05.23a1.05 1.05 0 0 1-.98-1.08l.01-.47 1.08.03.03-.47a.44.44 0 0 0-.13.06.56.56 0 0 0-.17.16.43.43 0 0 0-.06.14 1.17 1.17 0 0 1 1.45-.9Zm-1.08.54h.02a.95.95 0 0 1 .75.5l-.8-.03.03-.47Zm-.36.36Z" fill="#436C78"/><path d="M13.04 8.4v.02c-.33.26-.64.56-1.1.5a.08.08 0 0 1-.05-.03.09.09 0 0 1-.02-.06c0-.98-.4-1.75-1.2-2.3-.28-.2-.59-.35-.85-.57-.02-.02-.03-.04-.02-.06.02-.03.04-.05.07-.04a4.57 4.57 0 0 1 3.17 2.53Z" fill="#73B7CC"/><path d="M11.5 8.86c.54.32 1.02.23 1.42-.25.1-.11.2-.12.3-.04.05.03.06.1.04.2 0 .03-.01.05-.03.07-.54.74-1.19.86-1.95.35a.17.17 0 0 1-.05-.06c-.05-.1-.06-.16-.02-.21.07-.1.17-.13.28-.06ZM7.16 8.93c.56.5 1.24.44 1.84.05.08-.05.16-.04.23.02l.03.03c.05.09.04.17-.04.24-.7.62-1.73.67-2.33-.15a.15.15 0 0 1 .02-.2c.08-.08.17-.07.25 0Z" fill="#122124"/><path d="M11.83 10.81c-.01-.24-.34-.34-.4-.08-.06.3-.3.44-.68.41-.03 0-.05-.02-.05-.05l.01-.47c.58-.09.96-.4 1.15-.96.01-.03.04-.04.07-.04a1.72 1.72 0 0 0 1.2-.48h.03l.02.01.01.03c.08.7 0 1.47-.25 2.09a2.92 2.92 0 0 1-2.44 1.8c-.71.07-1.53-.02-2.06-.52-.3-.27-.39-.68-.28-1.07.1-.36.37-.6.8-.7a.03.03 0 0 1 .02 0 .03.03 0 0 1 .01.02c.02.4.3.58.61.74.11.05.23.07.36.06l1-.03c.4 0 .87-.3.87-.76Z" fill="#73B7CC"/><path d="m10.71 10.62-.01.47c0 .03.02.05.05.05.39.03.61-.1.68-.41.06-.26.39-.16.4.08a.82.82 0 0 1-.37.54.98.98 0 0 1-.92.05.1.1 0 0 0-.07 0c-.52.22-.97.12-1.34-.29-.08-.08-.09-.17-.03-.27a.17.17 0 0 1 .04-.04c.12-.1.23-.08.33.04.23.28.52.36.85.26.05-.01.07-.04.07-.1l-.01-.4c0-.36-.38-.38-.44-.64-.06-.24.11-.35.32-.36h.63c.19.02.32.2.26.37-.1.28-.44.27-.44.65Z" fill="#122124"/></svg>