<!-- by TradingView --><svg width="18" height="18" viewBox="0 0 18 18" xmlns="http://www.w3.org/2000/svg"><path fill="#FE6000" d="M0 0h18v18H0z"/><path d="m9.44 8.4 1.97 1.1 1.1-1.29-.1-.23-.16-.11-1.34-.7L9.44 8.4ZM5.92 9.64l1.99 1.1 1.48-1.22L6.93 8.2l-1.19.98.04.34.14.12Z" fill="#FFAA7F"/><path d="M10.73 5.3 10 3 5.11 7.1a.47.47 0 0 0-.1.41c.05.2.42 1.34.6 1.9 0 .05.1.19.38.29l-.02-.03c-.06-.07-.18-.21-.03-.36.15-.14 3.26-2.74 4.8-4.02Zm-3.65 7.4.74 2.3 5.07-4.34a.47.47 0 0 0 .1-.41c-.02-.06-.04-.22-.07-.43-.07-.5-.19-1.28-.31-1.67-.01-.05-.1-.19-.39-.3l.02.04c.06.06.18.2.03.35-.15.15-3.65 3.19-5.19 4.47Z" fill="#fff"/></svg>