<!-- by TradingView --><svg width="18" height="18" viewBox="0 0 18 18" xmlns="http://www.w3.org/2000/svg"><path fill="#F0F3FA" d="M0 0h18v18H0z"/><path d="M9 14A5 5 0 1 0 9 4a5 5 0 0 0 0 10ZM7.44 8.06l.62-.62h.47v.62h.16v-.94h.62v.94h.16v-.62h.47l.62.31v.78l-1.25-.31-.94.31v.16l.94-.31 1.25.3v1.41l-.47.47h-.62v-.62H9.3v.94H8.7v-.94h-.16v.62h-.62l-.47-.47v-.62l1.1.31 1.09-.31V9.3l-1.1.31-1.1-.3V8.05Z" fill="#58585A"/><path d="M10.15 11.22A2.5 2.5 0 0 1 6.5 8.9a1.4 1.4 0 0 0-2.47.61 5 5 0 0 0 7.4 3.86h-.09a1.4 1.4 0 0 1-1.19-2.15Z" fill="url(#a)"/><path fill-rule="evenodd" d="M10 11.36a2.55 2.55 0 0 1-3.56-2.44 1.34 1.34 0 0 0-2.35.6 4.94 4.94 0 0 0 7.1 3.9A1.47 1.47 0 0 1 10 11.37Zm.05-.1A2.5 2.5 0 0 1 6.5 8.9a1.4 1.4 0 0 0-2.47.62 5 5 0 0 0 7.28 3.93l.03-.02.09-.05a1.43 1.43 0 0 1-.14 0 1.4 1.4 0 0 1-1.14-2.15l-.1.05Z" fill="#58585A"/><path d="M9.82 11.36a2.5 2.5 0 0 0 .39-4.55h.04a1.56 1.56 0 0 0 1.5-1.98 5 5 0 0 1-.9 8.82 1.56 1.56 0 0 1-1.03-2.29Z" fill="url(#b)"/><path fill-rule="evenodd" d="M9.87 11.41a1.5 1.5 0 0 0 .97 2.17 4.94 4.94 0 0 0 1.01-8.61 1.63 1.63 0 0 1-1.43 1.9 2.56 2.56 0 0 1-.55 4.54Zm.45-4.54a2.5 2.5 0 0 1-.5 4.5 1.56 1.56 0 0 0 1.02 2.29 5 5 0 0 0 .91-8.83 1.5 1.5 0 0 1 .06.42 1.56 1.56 0 0 1-1.6 1.56 2.31 2.31 0 0 1 .1.06Z" fill="#58585A"/><path d="M6.5 8.9a2.5 2.5 0 0 1 3.71-2.09h.04a1.56 1.56 0 0 0 1.5-1.98 5 5 0 0 0-7.73 4.69A1.4 1.4 0 0 1 6.5 8.9Z" fill="url(#c)"/><path d="M6.45 8.75a2.56 2.56 0 0 1 3.8-2 1.5 1.5 0 0 0 1.45-1.88 4.94 4.94 0 0 0-7.63 4.31 1.47 1.47 0 0 1 2.38-.43Zm.06.06v.09a1.4 1.4 0 0 0-2.48.61A5.04 5.04 0 0 1 4 9a5 5 0 0 1 7.75-4.17 1.56 1.56 0 0 1-1.54 1.98 2.5 2.5 0 0 0-3.7 2Z" fill="#58585A"/><defs><linearGradient id="a" x1="4.94" y1="8.84" x2="11.03" y2="13.53" gradientUnits="userSpaceOnUse"><stop stop-color="#3BB54A"/><stop offset="1" stop-color="#DEEFDA"/></linearGradient><linearGradient id="b" x1="11.81" y1="4.83" x2="11.81" y2="13.65" gradientUnits="userSpaceOnUse"><stop stop-color="#CCCCE7"/><stop offset="1" stop-color="#2D419A"/></linearGradient><linearGradient id="c" x1="10.56" y1="4.63" x2="4.31" y2="8.84" gradientUnits="userSpaceOnUse"><stop stop-color="#F05030"/><stop offset="1" stop-color="#FEF0E8"/></linearGradient></defs></svg>