<!-- by TradingView --><svg width="18" height="18" viewBox="0 0 18 18" xmlns="http://www.w3.org/2000/svg"><path fill="#181B1E" d="M0 0h18v18H0z"/><path d="m4.9 10.66-.01-.02a9.2 9.2 0 0 0-.34.21.45.45 0 0 1-.16.08l-.17.02a.12.12 0 0 1-.1-.04.04.04 0 0 0-.07 0l-.07.08-.02.01h-.9v-.8a.3.3 0 0 0-.03-.12A.5.5 0 0 1 3 10v-.02l.03-.06c.1-.11.2-.22.25-.36v-.02a.86.86 0 0 0-.1-.14l-.1-.03c-.01 0-.02-.01 0-.02a.27.27 0 0 0 .06-.08v-.02a.1.1 0 0 0-.02-.03V9.2c.03-.04.15-.12.13-.2-.01-.02 0-.05.01-.07.07-.07.13-.16.22-.22l.16-.14c.02-.03.03-.05.01-.07v-.01h-.02l-.12.01c-.05.02-.08.01-.14 0l-.02.01a.5.5 0 0 1-.28.15l-.02-.01-.01-.03L3 8.27V6.9c0-.13.15-.21.13-.33-.01-.04-.04-.08-.04-.13A1.83 1.83 0 0 0 3 6.06V5H4.95c.03.02.05.07.05.13a7.29 7.29 0 0 1 .02.24c.04.01.08 0 .12-.04.11-.1.27-.22.41-.27h.16c.1.01.21.08.31.06a.3.3 0 0 0 .14-.08.17.17 0 0 1 .14-.03h.68c.02 0 .02.02.02.03l-.62 1.37H4.43v1.06h1.69l-.65 1.09H4.43v1.03h1.66l-.6 1.37c0 .02-.02.03-.05.03h-.39c-.03.01-.06 0-.1-.05h-.03l-.13-.02h-.02c-.02-.02-.02-.05 0-.06l.08-.12a.27.27 0 0 0 .05-.08ZM12.43 10.47h1.55c.03 0 .04.02.02.05l-.18.38c-.04.11-.13.04-.22.1-.02 0-.03.02-.03.03v.05l.04.04c.02.01.03.03.02.06l-.1.23c-.03.06-.04.3-.1.3h-1v.95c-.01.05-.07.09-.1.12l-.02.03c0 .01 0 .03.02.04.03.04.1.07.1.13V14l-1.4-.54c-.02 0-.03-.03-.03-.04v-.58c0-.1.02-.2.04-.29.02-.1.08-.12.12-.2.03-.06 0-.14.03-.22.1-.36.37-.71.58-.97a.14.14 0 0 0 .04-.08l-.01-.01h-.03c-.17.26-.55.53-.77.73V8h1.08v.24c0 .06-.02.12-.07.18-.01.03 0 .04.02.04h.03c.02 0 .02 0 .03-.02a.61.61 0 0 1 .1-.09c.2-.08.33-.24.51-.32h.03l.15.04h.09c0 .03-.01.04-.02.05v.04c0 .03.03.03.05.01.07-.05.14-.1.22-.11L13.6 8l.14.02.13.01H15l-.58 1.38h-2v1.06ZM7.68 10.26h-.01a4.7 4.7 0 0 1-.41.47v.07l-.09.05-.14.16c0 .01 0 .01 0 0a4.07 4.07 0 0 1 0-.65.6.6 0 0 0-.01-.11l.01-.07.14-.19v-.03h-.01c-.06-.02-.1-.02-.12-.09A4.17 4.17 0 0 1 7 9.46a64.51 64.51 0 0 1 .01-1.09c.02-.1.06-.18.13-.25.08-.08.17-.11.28-.11h1.32c.13 0 .26.01.4-.01l.04.02.13.06v.03c-.06.09-.1.14-.1.16l-.5.74-.12.16a.1.1 0 0 1-.07.04h-.33v.57c0 .12-.07.22-.07.32 0 .05.02.07 0 .12-.07.13-.14.25-.23.36a.41.41 0 0 0-.07.1c-.03.07-.05.12-.1.19-.03.04-.08.04-.12.08l-.01.01-.08.23-.06.11c-.07.1-.1.2-.15.35-.01.06-.07.06-.1.08-.01 0-.02 0-.02.02a.63.63 0 0 0-.04.14l-.03.1c-.01.02-.02.02-.02-.01 0-.16.03-.31.08-.46a.32.32 0 0 0 0-.18 1.5 1.5 0 0 1-.04-.16l.17-.3c.03-.03.06-.04.1-.04v-.02c-.01-.04-.02-.07 0-.1a19.9 19.9 0 0 1 .28-.46ZM8.26 10.52a.12.12 0 0 1-.02-.03v-.02l.18-.32a.05.05 0 0 1 .05-.03h.32c.02-.01.03-.03.03-.05a.9.9 0 0 0 0-.08V9.9c.05-.07.1-.08.18-.11.02-.01.02-.02 0-.04-.06-.02-.16-.04-.18-.11a.71.71 0 0 0-.04-.11V9.5c.04-.09.02-.15.07-.24l.26-.46c.13-.21.23-.39.46-.47H9.74a.02.02 0 0 1 .02 0c.04.03.24.03.24.09v.6c0 .1-.01.2-.04.3l-.06.16c-.04.1-.14.11-.19.2a.7.7 0 0 0-.03.08v.01h.08a.74.74 0 0 1 .19-.05.02.02 0 0 1 .02.01c.04.12.03.21.03.38v.68c0 .22-.09.42-.28.5a.52.52 0 0 1-.2.03H8.9c-.11 0-.25-.04-.36-.01a.22.22 0 0 1-.08 0c-.06 0-.13-.07-.18-.1-.03-.01-.04-.03-.03-.06.03-.08 0-.13.02-.2l.1-.34c.02-.11.01-.11-.04 0a3.58 3.58 0 0 1-.11.23v.07l-.02.02c-.09.04-.13.18-.16.27-.02.04-.03.06-.08.07-.03 0-.06.02-.11.04a5.3 5.3 0 0 1-.3.33l.1-.21.12-.18a.73.73 0 0 0 .1-.17l.12-.24c.04-.08.1-.2.16-.28a.07.07 0 0 1 .04-.03h.06v-.02Z" fill="#fff"/></svg>