<!-- by TradingView --><svg width="18" height="18" viewBox="0 0 18 18" xmlns="http://www.w3.org/2000/svg"><path fill="#00150D" d="M0 0h18v18H0z"/><path d="M5.33 6c.49 0 .7.28.95.79 1.37 2.71 2.14 4.25 2.32 4.63.07.13.06.25 0 .38-.07.1-.1.15-.12.15-.21.1-.37.04-.48-.18L5.56 6.93a.24.24 0 0 0-.23-.14c-.11 0-.19.05-.24.14l-2.44 4.84c-.1.22-.27.28-.48.18a.75.75 0 0 1-.11-.16.37.37 0 0 1-.01-.38L4.37 6.8c.25-.5.47-.8.96-.79Zm3.69.91v-.02l.01-.02a.11.11 0 0 0-.02-.04.09.09 0 0 0-.03-.02h-.03c-.22.01-.48-.13-.45-.43.03-.4.47-.39.79-.37h.06c.33 0 .36.25.37.6l-.01 5c0 .17-.07.3-.21.36a.33.33 0 0 1-.1.03c-.24-.06-.38-.21-.38-.46V6.9Zm4 1.53h-.06c-.93-.94-1.72-1.7-2.35-2.32-.17-.16-.33-.16-.49.01l-.02.02c-.14.2-.13.38.03.54A318.38 318.38 0 0 0 12.44 9v.03l-2.31 2.27c-.16.17-.17.35-.03.55l.02.02c.16.17.32.17.49.01A244.5 244.5 0 0 0 13 9.55h.02l.02.02c.93.93 1.72 1.7 2.35 2.31.17.16.33.16.49-.01l.02-.02c.14-.2.13-.38-.03-.54A314.7 314.7 0 0 0 13.56 9v-.03a301.3 301.3 0 0 0 2.31-2.27c.16-.17.17-.35.03-.55l-.02-.02c-.16-.17-.32-.17-.49-.01a244.62 244.62 0 0 0-2.37 2.32Z" fill="#00C972"/></svg>