<!-- by TradingView --><svg width="18" height="18" viewBox="0 0 18 18" xmlns="http://www.w3.org/2000/svg"><path fill="#F0F3FA" d="M0 0h18v18H0z"/><path d="M9.21 3c-.07.41-.01.76.04 1.17.02.16-.03.36-.16.61-.35-.1-.68-.24-1-.44-.28-.18-.86-.87-1.22-.36a.1.1 0 0 0-.02.08.8.8 0 0 0 .66.7c.04.23.04.44-.02.64 0 .04-.02.06-.05.08l-.4.23a.12.12 0 0 0-.06.07l-.1.38-.09.17a1.4 1.4 0 0 0-.77-.98l.6.13a.13.13 0 0 0 .14-.05l.02-.05.1-.46c0-.03-.01-.06-.04-.09-.1-.08-.31-.27-.48-.27-.1 0-.19.01-.25.03a.1.1 0 0 0-.06.06l-.14.43a1 1 0 0 1 .08-.5.08.08 0 0 1 .07-.05c.25-.04.49 0 .71.1.1.05.13.02.1-.08l-.17-.53a.07.07 0 0 1 .02-.08c.3-.24.61-.28.94-.1a16.08 16.08 0 0 0 1.37.63.1.1 0 0 0 .08-.1c.01-.56-.22-1.01-.7-1.34.26-.03.53-.04.8-.03Z" fill="#323C5C"/><path d="m9.26 3 .01.24v.1c.09.59.29 1.08-.12 1.65l-.06-.2c.13-.26.18-.46.16-.62-.05-.4-.11-.76-.04-1.17h.05Z" fill="#696868"/><path d="M11.96 3.78c-.2-.04-.39-.06-.59-.13a7.91 7.91 0 0 0-2.1-.4L9.26 3a6 6 0 0 1 2.7.77Z" fill="#D05256"/><path d="M8.4 3.03c.49.33.72.78.71 1.35a.1.1 0 0 1-.12.08c-.3-.12-.74-.33-1.33-.63-.33-.17-.64-.13-.94.11a.07.07 0 0 0-.02.08l.17.53c.03.1 0 .13-.1.09a1.2 1.2 0 0 0-.7-.1.08.08 0 0 0-.08.04 1 1 0 0 0-.08.5l.1.27c.43.22.68.54.78.98l-.02.2-.03.63c-.05.32-.04.64.02.97a1.44 1.44 0 0 0-.51-.8c-.22-.04-.32-.14-.3-.3.1.16.25.23.45.21a.1.1 0 0 0 .08-.05c.1-.17.12-.34.04-.48l-.03-.14c0-.1-.04-.15-.1-.16-.2-.04-.37.02-.5.2a.11.11 0 0 0-.02.08l.04.26-.02-.01a.07.07 0 0 1-.05-.06c-.01-.16 0-.27.04-.34.37-.55.08-1.18-.18-1.7a.19.19 0 0 1 .05-.24l.55-.45a.08.08 0 0 0 .03-.08.77.77 0 0 0-.18-.35c.3-.16.6-.3.91-.4a12.6 12.6 0 0 0 1.9.88.07.07 0 0 0 .06-.08c-.1-.48-.39-.83-.86-1.06l.25-.03Z" fill="#1C2544"/><path d="M8.15 3.06c.48.23.77.58.87 1.06a.07.07 0 0 1-.1.08 12.6 12.6 0 0 1-1.86-.88c.36-.12.72-.2 1.1-.26Z" fill="#101833"/><path d="m11.96 3.78.4.25-1.98-.42-.93-.13a.35.35 0 0 0-.18-.15v-.09c.72.04 1.42.18 2.1.41.2.07.39.1.59.13Z" fill="#D78F8C"/><path d="M9.45 3.48c.12.44.52.7.92.89l-.26.3-.13.1a.9.9 0 0 0-.64.23l-.2.02v-.03c.42-.57.22-1.06.13-1.66.08.03.14.08.18.15Z" fill="#94938E"/><path d="M10.38 3.61h-.45c-.04.01-.04.02-.02.05.22.28.52.43.89.46a.6.6 0 0 0-.43.25c-.4-.2-.8-.45-.92-.89l.93.13Z" fill="#B3B3AD"/><path d="m10.38 3.61 1.98.42c.27.18.53.39.77.62-.3-.2-.52-.32-.64-.36-.7-.23-1.4-.38-2.1-.45-.13-.02-.14.01-.03.09a2.05 2.05 0 0 0 .44.2 1.21 1.21 0 0 1-.9-.47c-.01-.03 0-.04.03-.04h.45Z" fill="#E9D7CE"/><path d="M6.15 3.72c.1.1.15.22.18.35a.08.08 0 0 1-.03.08l-.55.45a.19.19 0 0 0-.05.23c.26.53.55 1.16.18 1.71-.04.07-.05.18-.04.34 0 .03.02.05.05.06l.02.01c0 .04.01.06.04.08-.02.16.08.26.3.3a.84.84 0 0 1-.3-.12.16.16 0 0 1-.06-.07c-.2-.42-.47-.76-.83-1.03.14.07.28.1.41.1.03 0 .05-.02.07-.04a.8.8 0 0 0 .14-.49.12.12 0 0 0-.04-.08l-.24-.24a.15.15 0 0 0-.1-.04.63.63 0 0 0-.38.11c.28-.25.48-.53.33-.9-.01-.04-.03-.04-.06-.02l-.83.69a6 6 0 0 1 1.79-1.48Z" fill="#101833"/><path d="m9.1 4.78.05.2-.01.04-.74-.04c-.24-.2-.5-.34-.62-.64-.11-.29-.31-.45-.6-.48-.03 0-.07 0-.1.03-.15.12-.18.3-.09.54.01.03.03.05.06.06l.46.27a.8.8 0 0 1-.66-.7c0-.03 0-.06.02-.08.36-.51.94.18 1.23.36.3.2.64.34 1 .44Z" fill="#455071"/><path d="m7.78 4.34-.04-.01a.64.64 0 0 0-.16-.13.58.58 0 0 0-.12-.15c-.1-.1-.21-.09-.32.01a.2.2 0 0 0-.03.26.2.2 0 0 0 .07.07.5.5 0 0 0 .26.05c.09.2.13.41.13.64 0 .22-.05.42-.16.6l-.53.48.1-.38c0-.03.02-.05.05-.07l.4-.23a.11.11 0 0 0 .06-.08c.06-.2.06-.41.02-.64l-.46-.27a.12.12 0 0 1-.06-.06c-.1-.24-.06-.42.1-.54a.14.14 0 0 1 .1-.03c.28.03.48.2.59.48Z" fill="#767E8B"/><path d="M13.13 4.65c.23.21.44.44.63.7-.34-.04-.66-.12-.97-.24-.64-.27-1.27-.58-1.88-.95h-.07l-.02-.02a2.06 2.06 0 0 1-.46-.21c-.11-.08-.1-.1.03-.1.7.08 1.4.23 2.1.46.12.04.33.16.64.36Z" fill="#F5F7F1"/><path d="m7.58 4.2-.14.24a.5.5 0 0 1-.26-.05.2.2 0 0 1-.09-.25.2.2 0 0 1 .05-.08c.1-.1.21-.1.32 0 .05.03.09.08.12.14Z" fill="#B3B3AD"/><path d="m10.8 4.12.02.02.02.02c-.14-.03-.22.03-.25.17-.05.33-.13.55-.22.67a.13.13 0 0 0-.03.09c0 .15 0 .23-.02.25-.17.17-.24.14-.23-.08 0-.13.07-.26.2-.39a.06.06 0 0 0 .03-.04l-.01-.04c-.04-.05-.1-.04-.18.03a.25.25 0 0 0 .03-.1.19.19 0 0 0-.05-.06l.26-.3a.6.6 0 0 1 .43-.24Z" fill="#8E5C26"/><path d="m10.84 4.16.19.38c.08.26.1.52.07.76.01.07 0 .1-.02.12.03.02.03.06.02.13l.2.79a.33.33 0 0 1-.04.08.07.07 0 0 1-.06.03.15.15 0 0 1-.07-.03c-.13-.17-.29-.3-.47-.4-.15-.07-.26-.16-.4-.24l.32.02c.03 0 .06 0 .07-.04.12-.34.3-.5.27-.93a.08.08 0 0 0-.04-.06.07.07 0 0 0-.07 0l-.27.16c-.08.04-.1.1-.07.18.08.26-.16.42-.23.63a1.7 1.7 0 0 1-.43-.44c-.01-.03 0-.05.02-.07a.7.7 0 0 0 .3-.4c.08-.08.14-.09.18-.04v.04l-.01.04c-.14.13-.2.26-.21.39-.01.22.06.25.23.08.01-.02.02-.1.02-.25 0-.04 0-.06.03-.09.09-.12.16-.34.22-.67.03-.14.1-.2.25-.17Z" fill="#49270C"/><path d="M10.91 4.16c.17.28.38.48.61.6.45.24 1.17.6 2.15 1.06.11.05.26.07.44.04l.2.34c-.23.02-.42-.02-.56-.1-.68-.37-1.37-.74-2.06-1.08-.2-.1-.38-.23-.56-.34-.02-.08-.05-.12-.1-.14l-.2-.38h.08Z" fill="#B3B3AD"/><path d="m13.76 5.34.35.52a.78.78 0 0 1-.44-.04c-.98-.46-1.7-.82-2.15-1.05a1.6 1.6 0 0 1-.6-.6c.6.36 1.22.67 1.87.94.3.12.63.2.97.23Z" fill="#DFE2DB"/><path d="m7.58 4.2.16.13c-.07.18-.08.32-.03.41l.16.35c.01.03 0 .05-.02.07-.1.07-.12.13-.07.18a1 1 0 0 1-.22.26l-.15.08c.11-.18.16-.38.16-.6 0-.23-.04-.44-.13-.64l.14-.24Z" fill="#D9B068"/><path d="M7.78 4.34c.12.3.38.45.62.64-.13.15-.33.27-.62.36-.05-.05-.03-.11.07-.18.03-.02.03-.04.02-.07a9.27 9.27 0 0 1-.16-.35c-.05-.1-.04-.23.03-.41h.04Z" fill="#6F461D"/><path d="M4.92 5.43c-.1.28-.05.5.14.68.36.27.63.61.83 1.03.01.03.03.05.06.07.09.06.19.1.3.11.25.2.42.47.51.81l.22 1.13c-.04.03-.05.1-.05.22v-.05c0-.05 0-.05-.03 0l-.02.07c-.02.03-.05.03-.08 0a.17.17 0 0 1-.04-.06c.02-.02 0-.05-.06-.09a5.06 5.06 0 0 0-.26-.67c-.1-.23-.2-.45-.27-.67A5.94 5.94 0 0 0 4.2 5.4l.16-.2.83-.69c.03-.02.05-.02.06.02.15.37-.05.65-.33.9Z" fill="#070C1E"/><path d="M11.13 4.68c.21.2.4.34.54.41.58.28 1.23.64 1.95 1.08.23.15.49.21.78.21l.1.24a3.22 3.22 0 0 0-1.7-.22l-.01-.12a3.24 3.24 0 0 0-1.7-.98c.04-.24.02-.5-.06-.76.05.02.08.06.1.14Z" fill="#94938E"/><path d="m6.02 5.35-.11-.27.14-.43a.1.1 0 0 1 .06-.06c.06-.02.15-.03.25-.03.17 0 .38.2.48.27.03.03.04.06.03.1l-.09.45a.13.13 0 0 1-.1.1h-.05l-.61-.13Z" fill="#566073"/><path d="M6.19 5.25c-.1-.04-.15-.12-.13-.23l.06-.28.02-.04a.07.07 0 0 1 .04-.02l.24-.03h.04a.1.1 0 0 1 .04.04l.17.3a.1.1 0 0 1 0 .09c-.08.2-.24.26-.48.17Z" fill="#9A9FA2"/><path d="m10.11 4.66.05.06-.56.4a.04.04 0 0 0 0 .05l.18.22c.03.04.02.06-.03.07l-1.2.3.1-.27a.03.03 0 0 0 0-.03.03.03 0 0 0-.03-.01h-.04a.1.1 0 0 0-.09.05l-.23.45-.34.57c-.02.02-.04.03-.07.02l-.15-.06-.07-.05a.8.8 0 0 0 .33-.02c.04-.01.06-.04.06-.08v-.8c0-.03 0-.03-.03-.03l-.43.1a1 1 0 0 0 .22-.26c.29-.09.5-.21.62-.36l.74.04.2-.02c.23 0 .58.03.64-.23l.13-.1Z" fill="#DFA749"/><path d="M9.98 4.77c-.06.26-.4.23-.64.23a.9.9 0 0 1 .64-.23Z" fill="#B3B3AD"/><path d="M10.16 4.72c0 .03-.01.07-.03.1a.7.7 0 0 1-.3.41c-.03.02-.03.04-.01.07.1.17.25.32.42.44l.01.04.41.25c.18.09.34.22.47.4l-.73.35-.17.02c-.3.07-.36.33-.44.57a.16.16 0 0 1-.15.11l-.65.03c-.03 0-.05.02-.05.05l-.03.69c0 .06.03.1.11.1l.1.04c-.17.08-.33.16-.49.26-.16.1-.25.11-.44.08a.27.27 0 0 1-.22-.21c-.07-.26.12-.41.11-.68l.08.5a.06.06 0 0 0 .07.04l.39-.12c.02-.01.04-.03.04-.06.01-.31-.07-.55-.26-.72-.03-.03-.03-.06-.01-.09a.65.65 0 0 0 .06-.64.08.08 0 0 0-.09-.05l-.03.01a.27.27 0 0 1-.24 0 .1.1 0 0 0-.08 0l-.21.13a.49.49 0 0 0-.1-.36l.15.06c.03.01.05 0 .07-.02l.34-.57-.12.4c0 .03 0 .06.02.09.1.12.2.13.32.01.05-.04.1-.14.13-.27v.23c0 .03.02.06.06.07l.17.06c-.27.03-.33.28-.18.75a.09.09 0 0 0 .14.04l.27-.21c.22.07.41-.02.56-.27h.26c.06 0 .08-.02.07-.08l-.09-.76a.09.09 0 0 0-.03-.06.1.1 0 0 0-.07-.02l-.55.06a.63.63 0 0 0-.58.15l-.08-.37 1.2-.3c.04-.02.05-.04.02-.08l-.19-.22a.04.04 0 0 1 0-.06l.57-.4Z" fill="#AB8145"/><path d="m10.25 5.78-.01-.04c.07-.21.31-.37.23-.63-.03-.08 0-.14.07-.18l.27-.16a.07.07 0 0 1 .07 0 .08.08 0 0 1 .04.06c.02.42-.15.6-.27.93-.01.03-.04.05-.07.04l-.33-.02Z" fill="#1A0303"/><path d="M12.79 6.28h-.51c-.22-.4-.62-.69-1.2-.86.03-.02.03-.05.02-.12.66.15 1.22.48 1.69.98Z" fill="#B3B3AD"/><path d="M5.06 6.11c-.2-.18-.24-.4-.14-.68a.63.63 0 0 1 .39-.11c.03 0 .07.02.1.04l.23.24.04.08a.8.8 0 0 1-.14.49.08.08 0 0 1-.07.03.93.93 0 0 1-.41-.09Z" fill="#373E49"/><path d="M5.62 5.8c-.02.1-.09.17-.2.23-.07.04-.15.04-.26 0-.18-.08-.24-.24-.16-.5.04-.12.12-.17.23-.14.09.01.18.07.28.16.1.08.13.16.11.25Z" fill="#666D79"/><path d="M4.2 5.4c.9.75 1.58 1.53 1.97 2.61.07.22.16.44.27.67.1.22.19.44.26.67C5.8 9.18 4.9 9.3 4 9.3c-.4 0-.74-.06-1-.16A6 6 0 0 1 4.2 5.4Z" fill="#01050E"/><path d="M12.28 6.29c-.33.02-.63-.03-.92-.14a2.05 2.05 0 0 0-.26-.6c.01-.07 0-.1-.02-.13.58.17.98.46 1.2.87Z" fill="#E9D7CE"/><path d="m8.56 5.77.08.37a.16.16 0 0 1-.03.04c-.04.13-.08.23-.13.27-.12.12-.23.11-.32-.01a.1.1 0 0 1-.02-.1l.12-.4.23-.44a.1.1 0 0 1 .09-.05h.04a.03.03 0 0 1 .03.01.03.03 0 0 1 0 .03l-.1.28Z" fill="#8E5C26"/><path d="m7.63 6.43-.3.09-.03.67a.1.1 0 0 0 .04.08c.05.03.09.03.12-.02.07-.1.14-.17.22-.24l.08-.02c.03 0 .04 0 .03.03-.04.21-.14.42-.28.6-.12.02-.2.07-.25.14l-.08.01.01-.01.17-.2c.02-.02.03-.04.01-.07a.48.48 0 0 0-.14-.15.1.1 0 0 1-.04-.1V6.7a.04.04 0 0 0-.02-.03c-.15-.14-.33-.01-.38-.05-.02-.02-.03-.05-.02-.1l.02-.2.1-.16.52-.48.15-.08.43-.1c.02 0 .03 0 .03.02v.81c0 .04-.02.07-.06.08a.8.8 0 0 1-.33.02Z" fill="#EECD7E"/><path d="M5.27 5.93c.13.03.25-.04.27-.15.03-.11-.06-.22-.19-.25-.13-.02-.25.04-.27.16-.02.1.06.22.2.24Z" fill="#9A9FA2"/><path d="m11.36 6.15.18.37c.05.35.15.69.3 1.02-.03.1-.02.23.03.37-.04-.01-.05-.02-.05-.04-.23-.43-.39-.9-.47-1.4l-.05-.13-.2-.8c.12.2.2.4.26.6Z" fill="#CD874D"/><path d="M9.63 6.85c.2-.1.09-.22-.33-.33.12.02.18 0 .19-.06a.1.1 0 0 0-.1-.12c-.13 0-.2.04-.24.12-.01.03 0 .05.03.06l.04.02a.81.81 0 0 0-.48.3.09.09 0 0 0-.02.1c.05.11.16.17.35.18l-.27.21a.09.09 0 0 1-.14-.04c-.15-.47-.1-.72.18-.75.17-.18.36-.29.38-.55l.55-.06a.1.1 0 0 1 .07.02c.02.01.03.04.03.06l.1.76c0 .06-.02.09-.08.08h-.26Z" fill="#8E5C26"/><path d="M9.22 5.99c-.02.26-.22.37-.38.55l-.17-.06a.07.07 0 0 1-.05-.07l-.01-.23a.16.16 0 0 0 .03-.04c.17-.15.36-.2.58-.15Z" fill="#B4AA7F"/><path d="M10.4 6.07c-.03 0-.03-.02-.03-.04 0-.03.02-.04.05-.04.1.02.2.1.3.2a.09.09 0 0 1 .02.1.09.09 0 0 1-.07.05c-.1.02-.2-.02-.27-.11a.1.1 0 0 1-.03-.09l.02-.07Z" fill="#D9B068"/><path d="m12.28 6.29.5-.01c.02.04.02.08.01.12v.1l-1.25.02-.18-.37c.29.11.6.16.92.14Z" fill="#D78F8C"/><path d="M4.45 6.77a.07.07 0 0 1-.02.1l-.02.01c-.1.06-.2.1-.3.08a.29.29 0 0 1-.24-.12.29.29 0 0 1-.01-.27c.03-.09.1-.18.2-.24h.02a.07.07 0 0 1 .1.01l.27.43Z" fill="#1A1F23"/><path d="m14.5 6.62.14.32c-.03 0-.05-.02-.05-.04a2.2 2.2 0 0 0-1.35-.32l-.26-.03-.2-.04.01-.1c.6-.13 1.14.01 1.72.21Z" fill="#8A6663"/><path d="m9.3 6.52-.08.02-.04-.02c-.03 0-.04-.03-.03-.06.03-.08.11-.12.24-.12a.1.1 0 0 1 .1.12c0 .06-.07.08-.19.06Z" fill="#B4AA7F"/><path d="M11.82 7.87c.12.65.16 1.23-.14 1.8a5.1 5.1 0 0 0-.8 1.15l-.17.1-.01-.04.22-.26c.43-.76 1.02-1.44.83-2.38-.03-.15-.07-.15-.12 0-.16.45-.3.93-.42 1.44-.05.22-.2.43-.46.64.03-.53.13-1.04.3-1.54.16-.27.26-.52.3-.76a.6.6 0 0 0-.1-.4c-.07 0-.14 0-.2.02a.23.23 0 0 0 .1-.1c.08-.02.12-.06.13-.1a.08.08 0 0 0-.01-.1c-.26-.27-.43-.5-.87-.56l.73-.36c.02.02.05.03.07.03.03 0 .05 0 .06-.03a.34.34 0 0 0 .04-.08c0 .05.04.08.05.13.08.5.24.97.47 1.4Z" fill="#8E5C26"/><path d="M6.49 6.57a.25.25 0 0 0-.25-.07.16.16 0 0 0-.12.13c-.05.24.04.39.26.44.04.01.08 0 .1-.05a.58.58 0 0 0 .04-.31c.08.14.06.3-.04.48a.1.1 0 0 1-.08.05c-.2.02-.36-.05-.45-.21a.1.1 0 0 1-.04-.08l-.04-.26c0-.03 0-.06.02-.08.13-.18.3-.24.5-.2.06.01.1.07.1.16Z" fill="#666D79"/><path d="m7.63 6.43.07.05c.08.1.11.23.1.36l-.12.09c-.06.04-.11.05-.16.04-.03 0-.06-.04-.08-.1l-.11-.35.3-.09Z" fill="#21191A"/><path d="m6.49 6.57.03.14c.01.13 0 .24-.04.3-.02.05-.06.07-.1.06-.22-.05-.31-.2-.26-.44a.16.16 0 0 1 .12-.13c.1-.02.17 0 .25.07Z" fill="#CECEC8"/><path d="m12.79 6.5.19.05c-.08.1-.1.2-.08.27.1.3.3.6.6.88l.87.33-2.52-.49a3.66 3.66 0 0 1-.31-1.02l1.25-.01Z" fill="#D05256"/><path d="m7.33 6.52.11.34c.02.07.05.1.08.11.05.01.1 0 .16-.04.03.02.03.05 0 .08-.08.07-.15.15-.22.24-.03.05-.07.05-.12.02a.1.1 0 0 1-.04-.08l.03-.67Z" fill="#AB8145"/><path d="M9.3 6.52c.42.11.53.22.33.33-.15.25-.34.34-.56.27-.19 0-.3-.07-.35-.19a.09.09 0 0 1 .02-.08.81.81 0 0 1 .48-.31l.08-.02Z" fill="#21191A"/><path d="m12.98 6.55.26.03c-.02.04 0 .07.06.1l.96.9c.14.12.34.22.6.32l-1.35-.2c-.3-.29-.5-.58-.61-.88-.03-.08 0-.17.08-.27Z" fill="#A2292C"/><path d="M14.59 6.9a4.55 4.55 0 0 0-1.29-.22c-.06-.03-.08-.06-.06-.1.51-.03.96.08 1.35.32Z" fill="#7D3737"/><path d="M14.59 6.9c0 .02.02.04.05.04.1.3.2.62.26.94l-.04.02c-.26-.1-.46-.2-.6-.33l-.96-.9c.44.02.87.1 1.29.23Z" fill="#751416"/><path d="M8.08 7.84c-.02-.06-.07-.1-.16-.11a.42.42 0 0 0-.41-.1c.14-.2.24-.4.28-.6 0-.04 0-.05-.03-.04l-.08.02c.03-.03.03-.06 0-.08l.12-.1.2-.11a.1.1 0 0 1 .09 0c.08.03.16.03.24-.01a.08.08 0 0 1 .1.01l.02.03c.1.22.07.43-.06.64-.02.03-.02.06.01.09.19.17.27.4.26.72 0 .03-.02.05-.04.06l-.39.12a.06.06 0 0 1-.07-.05l-.08-.5Z" fill="#D9B068"/><path d="m10.23 6.8.1.06c.02.01.04.04.04.07l.04.33a.06.06 0 0 0 .07.05c.2-.04.42-.03.64.01.03 0 .05.03.06.06.02.05 0 .1-.02.17-.16.01-.3.06-.44.13l-.66-.13a.08.08 0 0 0-.08.03l-.28.34a.15.15 0 0 1-.08.06c-.23.07-.43.2-.6.37-.08 0-.12-.04-.11-.1l.03-.7c0-.02.02-.04.05-.04l.65-.03a.16.16 0 0 0 .15-.1c.08-.25.13-.5.44-.58Z" fill="#B3B198"/><path d="M10.4 6.78c.44.05.61.29.87.57.02.02.02.05.01.08-.01.05-.05.09-.12.12.03-.07.04-.12.02-.17a.08.08 0 0 0-.06-.06 1.7 1.7 0 0 0-.66-.01.06.06 0 0 1-.04-.03v-.02l-.05-.33a.09.09 0 0 0-.04-.07l-.1-.06.17-.02Z" fill="#918566"/><path d="m6.74 7.16.05.82c.01.16.08.33.13.44a.08.08 0 0 0 .06.05h.04l.03-.03a.61.61 0 0 0 .03-.5c-.03-.1 0-.16.11-.18l-.01.01c-.04.38.01.74.15 1.07l.21.2a.82.82 0 0 1-.19.68l.13.24-.26.81a2 2 0 0 0 .07-1.1 1 1 0 0 0 .09-.27l-.1.28c0 .34-.1.65-.29.9a6.31 6.31 0 0 1 0-1.32l-.23-1.13a2.85 2.85 0 0 1-.02-.97Z" fill="#DDCA9B"/><path d="M5.46 7.5a.15.15 0 0 1 .11.19l-.05.21a.27.27 0 0 1-.14.17.33.33 0 0 1-.23.03l-.08-.02a.34.34 0 0 1-.2-.13.28.28 0 0 1-.04-.1v-.12l.06-.21a.15.15 0 0 1 .17-.11l.4.1Z" fill="#1A1F23"/><path d="M5.37 7.53c.1.09.13.2.1.35 0 .03-.01.05-.05.06a.89.89 0 0 1-.38.02l-.02-.01A1.1 1.1 0 0 0 5 7.92v-.01a.89.89 0 0 1-.03-.39c0-.03.03-.05.06-.06.14-.04.26-.02.35.07Z" fill="#373E49"/><path d="m10.72 7.68-.6-.04a.16.16 0 0 0-.15.09c-.16.3-.39.54-.69.73a.24.24 0 0 0-.16-.07l-.1-.04c.17-.18.37-.3.6-.37.03-.01.06-.03.08-.06l.28-.34a.08.08 0 0 1 .08-.03l.66.13Z" fill="#94938E"/><path d="M11.16 7.55a.23.23 0 0 1-.1.09c-.03.76-.39 1.12-.88 1.62h-.02l-.64-.5c-.02-.02-.05-.02-.07 0-.28.27-.6.45-1 .55l-.4.05a.09.09 0 0 0-.05.02.09.09 0 0 0-.02.06v.26c0 .04-.02.05-.06.04L7.6 9.6a.08.08 0 0 0-.1.07c0 .09.04.19.12.29l-.27-.25a.82.82 0 0 0 .2-.67c.17.08.33.2.53.18.22-.02.43-.07.63-.17l.29-.1c.13-.05.21-.16.24-.31.02-.03.04-.1.04-.2.3-.18.53-.43.69-.72a.17.17 0 0 1 .16-.1l.59.05c.14-.07.28-.12.44-.13Z" fill="#7D755E"/><path d="M11.05 8.78c-.06-.36 0-.75.2-1.16a.6.6 0 0 1 .1.4c-.04.24-.14.5-.3.76Z" fill="#6F461D"/><path d="m11.85 7.54 2.52.5c.22.06.42.17.6.33a5.97 5.97 0 0 1 0 .99c0-.34.07-.73-.12-1.03a.12.12 0 0 0-.08-.06l-2.72-.55c-.04 0-.07 0-.1.04-.03.05-.04.14-.02.25a.26.26 0 0 1-.06-.1.56.56 0 0 1-.02-.37Z" fill="#CB9B93"/><path d="M11.24 7.62c-.19.4-.25.8-.2 1.16-.16.5-.26 1-.29 1.54l-.1.37a.95.95 0 0 1-.71-.33.17.17 0 0 1-.02-.19c.18-.37.38-.7.6-.98.16-.19.13-.22-.08-.12l-.26.2c.5-.5.85-.87.88-1.63a.59.59 0 0 1 .18-.02Z" fill="#6B5C41"/><path d="M7.5 7.62c.16-.04.3 0 .42.1a1.3 1.3 0 0 1-.66.04c.05-.07.13-.12.25-.14Z" fill="#474848"/><path d="M14.97 9.36c0 .13-.05.2-.13.2-.37.03-.87 0-1.5-.07a3.3 3.3 0 0 1-.97-.24.12.12 0 0 1-.07-.08l-.37-1.16c-.02-.11-.01-.2.03-.25a.08.08 0 0 1 .09-.04l2.72.55c.03.01.06.03.08.06.19.3.12.7.12 1.03Z" fill="#CECEC8"/><path d="m14.86 7.9.04-.02.07.49a1.64 1.64 0 0 0-.6-.34l-.86-.33 1.35.2Z" fill="#A35C58"/><path d="M7.92 7.73c.09 0 .14.05.16.1.01.28-.18.43-.1.69.02.11.1.19.22.2.18.04.27.04.43-.07.16-.1.32-.18.49-.26.07 0 .12.03.16.07 0 .1-.02.16-.04.19-.7.39-1.34.45-1.9.2a2.2 2.2 0 0 1-.16-1.08h.08c.22.04.44.03.66-.04Z" fill="#01050E"/><path d="m11.87 7.9.2.62.2 1-.14.27-.1.41c0 .03-.02.05-.05.05l-.23.03a.13.13 0 0 0-.07.04.42.42 0 0 1-.27.12.07.07 0 0 1-.07-.06v-.04l.34-.66c.3-.58.26-1.16.14-1.8 0 0 .01.02.05.03Z" fill="#AB8145"/><path d="m11.93 8.01.37 1.16c.01.04.04.06.07.08.25.11.57.2.98.24.62.08 1.12.1 1.49.07.08 0 .12-.07.13-.2a4.88 4.88 0 0 1-.01.34 6.5 6.5 0 0 1-2.7-.34.09.09 0 0 1-.01-.04l-.18-.8-.2-.61c.01.04.03.07.06.1Z" fill="#B79991"/><path d="m10.92 10.62-.28.07.11-.37c.26-.21.4-.42.46-.64.12-.51.26-1 .42-1.44.05-.15.1-.15.12 0 .19.94-.4 1.62-.83 2.38Z" fill="#683810"/><path d="M14.96 9.7c0 .07-.02.14-.03.2-.9-.05-1.78-.18-2.65-.39l-.21-.99.18.8a.09.09 0 0 0 .05.07c.87.28 1.75.39 2.66.3Z" fill="#AC7169"/><path d="M9.24 8.65c-.03.15-.1.26-.24.3l-.29.1c-.2.1-.4.16-.63.18-.2.01-.36-.1-.54-.18l-.2-.2c.56.25 1.2.19 1.9-.2Z" fill="#49422F"/><path d="m10.16 9.27-.14.12c-.46.29-.95.44-1.5.47a.09.09 0 0 0-.07.04l-.07.14a.05.05 0 0 0 0 .05.05.05 0 0 0 .04.02c.17-.03.25 0 .25.11l.01.45c0 .04.02.07.04.1.04.04.08.04.12 0l.15.45c-.1-.01-.2 0-.3.04l-.24-.01c.2-.06.3-.15.3-.3 0-.03-.02-.04-.05-.02-.52.36-1.19.35-1.77.18l.24.02h.87c.04 0 .06-.02.06-.05.07-.3.08-.92-.16-1.14-.05-.04-.04-.07.02-.09.36-.08.53-.27.49-.54.4-.1.72-.28 1-.55.02-.02.05-.02.07 0l.64.5Z" fill="#6C4F32"/><path d="m10.64 10.69.28-.07-.22.26c-.16.15-.29.3-.37.48L9 11.22l-.15-.44v-.45c0-.02.01-.03.03-.03.23.07.4.05.5-.04.28-.24.49-.44.63-.6.1-.11.11-.2.02-.27l.14-.12h.02l.26-.2c.2-.1.24-.07.09.12-.23.28-.43.6-.61.99a.17.17 0 0 0 .02.18c.18.2.41.31.7.33Z" fill="#49422F"/><path d="M6.7 9.35c.05.04.08.07.06.1a5.05 5.05 0 0 0-1.26.09.07.07 0 0 0-.02.06l.01.03.76 1 .27.39h-.1c-.22-.03-.44.02-.64 0-.82-.09-1.6-.18-2.4.06a6.05 6.05 0 0 1-.13-.38c.14 0 .27-.02.37-.1.03-.01.03-.04.01-.06l-.58-.73A6 6 0 0 1 3 9.13c.27.1.6.16 1.01.16.9 0 1.79-.1 2.69.06Z" fill="#1A1F23"/><path d="m7 10.58-.03.12c0 .03 0 .06.04.07.05.03.13.03.21 0l.26-.81-.14.76c0 .03-.02.05-.06.06-.13.04-.22.07-.26.1-.07.03-.07.04 0 .04.17 0 .3-.02.43-.06a.09.09 0 0 0 .05-.07l.12-.73h.01v.43c0 .16-.04.29-.15.37-.12.1-.27.12-.46.08.52.28 1.06-.04 1.03-.65v-.01c0 .21.04.44.06.65a.14.14 0 0 1-.13.15l-.8.05-.25-.02-.06-.1.06-1.53c0-.11.01-.19.05-.22A6.3 6.3 0 0 0 7 10.58Z" fill="#918566"/><path d="M8.45 9.3c.04.28-.13.47-.5.55-.05.02-.06.05-.01.1.24.2.23.84.16 1.13 0 .03-.02.04-.06.04l-.87.01.8-.05a.14.14 0 0 0 .14-.1v-.05c-.02-.21-.05-.44-.05-.65l-.01.01c.03.61-.51.93-1.03.65.24.05.45.01.63-.11a.08.08 0 0 0 .04-.08l-.07-.78a.5.5 0 0 1-.12-.3.08.08 0 0 1 .1-.06l.32.13c.04.01.06 0 .06-.04v-.26c0-.02 0-.04.02-.06a.09.09 0 0 1 .05-.02l.4-.05Z" fill="#786A51"/><path d="M8.84 10.78c-.04.03-.08.03-.12-.02a.17.17 0 0 1-.04-.1c-.01-.14-.02-.29-.01-.44 0-.1-.08-.14-.25-.11H8.4a.05.05 0 0 1-.03-.05v-.02l.08-.14a.09.09 0 0 1 .08-.04 3.08 3.08 0 0 0 1.49-.47c.1.07.09.16-.02.27a8.3 8.3 0 0 1-.63.6c-.1.1-.27.1-.5.04-.02 0-.03 0-.03.03v.45Z" fill="#352917"/><path d="m6.93 9.48-.06 1.53-.62-.38-.76-1a.07.07 0 0 1 0-.06.07.07 0 0 1 .05-.05c.4-.07.8-.1 1.22-.08l.04.07c.03.02.06.02.08-.01a.25.25 0 0 0 .02-.07c.02-.05.03-.05.04 0v.05Z" fill="#54595A"/><path d="m14.93 9.9-.03.22-.87-.18-1.69-.32c-.03 0-.04 0-.03.03a.69.69 0 0 1-.03.38.03.03 0 0 0 .01.03h.01l2.43.37a.23.23 0 0 1 .11-.06l-.06.26c-.2-.11-.38-.18-.56-.21a9.1 9.1 0 0 0-1.39-.11c-.38-.07-.61-.24-.7-.52l.15-.28c.87.2 1.75.34 2.65.4Z" fill="#9C4643"/><path d="M14.03 9.94c.1.3.43.4.7.5l-2.43-.38a.03.03 0 0 1-.02-.01.03.03 0 0 1 0-.03.69.69 0 0 0 .03-.37c0-.03 0-.04.03-.03l1.7.32Z" fill="#A2292C"/><path d="M7.29 9.68a2 2 0 0 1-.07 1.09c-.08.03-.16.03-.21 0-.04-.01-.05-.04-.04-.07l.02-.12c.2-.26.29-.56.3-.9Z" fill="#B4AA7F"/><path d="m11.68 9.68-.34.66v.07a.07.07 0 0 0 .07.03c.1 0 .2-.05.27-.12a.13.13 0 0 1 .07-.04l.23-.03c.03 0 .05-.02.06-.05l.09-.41c.09.28.32.45.7.52-.35.01-.58.11-.7.3-.32.41-.74.48-1.24.21.21-.42.48-.8.79-1.14Z" fill="#786A51"/><path d="m7.62 9.97.07.78c0 .03-.01.06-.04.08a.77.77 0 0 1-.63.1c.19.05.34.03.46-.07.1-.08.16-.2.15-.37a4.87 4.87 0 0 1-.01-.43l-.12.73a.09.09 0 0 1-.05.07c-.13.04-.27.07-.42.06-.08 0-.08-.01-.01-.05l.26-.09a.08.08 0 0 0 .06-.06l.14-.76-.13-.24.27.25Z" fill="#AB8145"/><path d="M3.25 10.7c-.09-.3-.15-.59-.2-.9l.58.74c.02.02.02.05-.01.07-.1.07-.23.1-.37.1Z" fill="#474848"/><path d="m14.9 10.12-.06.25a.23.23 0 0 0-.11.06c-.27-.09-.6-.2-.7-.5l.87.19Z" fill="#751416"/><path d="m14.78 10.63-.02.05a6.14 6.14 0 0 0-1.68-.16l-.74.14-.2-.05c.11-.19.34-.29.7-.3.48 0 .94.04 1.38.1.18.04.37.1.56.22Z" fill="#986F68"/><path d="m14.76 10.68-.2.59c-.78 0-1.5-.35-2.22-.61.38-.08.63-.13.74-.14.44-.03 1 .02 1.68.16Z" fill="#94938E"/><path d="m6.87 11.01.06.1c.58.17 1.25.18 1.77-.18.03-.02.05-.01.05.02 0 .15-.1.24-.3.3-.5.05-1 .03-1.5-.05l-.43-.18-.27-.39.62.38Z" fill="#49422F"/><path d="M12.34 10.66c.72.26 1.44.6 2.22.6-.09.21-.18.41-.29.6-.54-.1-1.16-.36-1.64-.37l-.87-.02c-.21 0-1.42-.01-1.05-.55l.18-.1c.5.27.92.2 1.24-.21l.2.05Z" fill="#606460"/><path d="M14.66 10.92a.04.04 0 0 1-.05.03l-.25-.03a5.74 5.74 0 0 1-.63-.11c-.16-.04-.25-.08-.25-.1v-.02c0-.02.03-.03.07-.04h.2a4.38 4.38 0 0 1 .64.04l.25.04a.04.04 0 0 1 .04.04l-.02.15Z" fill="#B3B198"/><path d="m10.7 10.88.01.04c-.37.54.84.55 1.05.55.4 0 .68 0 .87.02.48.01 1.1.26 1.64.38-.07.12-.14.25-.22.36.04-.12.04-.19-.02-.2a1.23 1.23 0 0 0-.68-.03c-.38.1-.56.07-1 .07-.04 0-.06.02-.06.05l.01.11-.12-.16c.32-.1.67-.14 1.05-.14a.08.08 0 0 0 .08-.08c0-.06-.03-.1-.1-.1a.24.24 0 0 0 .05-.02l.02-.03v-.04a.06.06 0 0 0-.06-.04l-1.5.01-1.14-.14a.73.73 0 0 1-.25-.13c.08-.17.2-.33.37-.48Z" fill="#4C3E3B"/><path d="m6.42 11.02.4.22c.08.2.2.36.18.6a.86.86 0 0 0-.22.55l-.43-.08c0-.14-.05-.25-.13-.32a.18.18 0 0 1-.05-.08.2.2 0 0 0-.08-.1.98.98 0 0 0-.62-.2h-.8c-.03 0-.05.01-.05.05-.03.1-.03.21-.02.33-.02.03-.02.05-.01.08s.03.04.07.04c-.07.1-.1.22-.09.34-.04.03-.05.06-.04.1.01.02.03.03.06.03l-.04.03c-.03.01-.03.03-.02.06l.03.05c.02.06.02.07-.03.02a1.27 1.27 0 0 0-.43-.28c-.3-.43-.55-.9-.73-1.38.8-.24 1.6-.15 2.41-.06.2.02.42-.03.64 0Z" fill="#1A0303"/><path d="m6.52 11.02.43.18a3.4 3.4 0 0 0 1.74.06c.1-.04.2-.05.3-.04l1.34.14c.07.05.15.1.25.13-.68-.05-1.35.04-2.03.05a.47.47 0 0 0-.24.09l-.21-.09a.9.9 0 0 0-.8.08.9.9 0 0 0-.48-.38l-.4-.22h.1Z" fill="#352917"/><path d="M6.82 11.24a.9.9 0 0 1 .47.38l-.14.1-.15.12c.02-.24-.1-.4-.18-.6ZM10.58 11.5l1.14.13.03.3c0 .07 0 .12.04.17l-.05.33a1.2 1.2 0 0 1-.77-.05c-.21-.04-.43-.05-.64-.03-.15.02-.35.12-.52.08-.1-.02-.14-.07-.13-.14.04-.1.1-.2.22-.28l.2-.05.38.14h.05l.32-.08a.05.05 0 0 0 .04-.07l-.02-.02c-.2-.2-.31-.34-.64-.35-.25-.01-.47.03-.68.13-.1.06-.2.15-.3.29a.93.93 0 0 0-.1.28c-.06.12-.12.19-.2.2-.03 0-.06-.01-.08-.04a1.8 1.8 0 0 1-.16-.37.86.86 0 0 0-.4-.44c.1-.06.18-.1.24-.1.68 0 1.35-.09 2.03-.04Z" fill="#3A0909"/><path d="m8.1 11.54-.56.05-.02.02v.02H8c.04 0 .08.02.11.05a3 3 0 0 1 .34.37c.1.11.13.24.11.4a.73.73 0 0 1-.3.52c-.42.3-.73.17-1.15.01a.09.09 0 0 1-.06-.07c-.1-.37-.05-.69.14-.95.07-.1.19-.2.28-.29.04-.04.03-.05-.03-.03l-.3.08.15-.1a.9.9 0 0 1 .8-.08Z" fill="#1C2544"/><path d="M8.31 11.63c.2.12.34.27.4.44.05.16.1.28.16.37.02.03.05.04.08.04.08-.01.14-.08.2-.2-.02.06-.01.1.01.13l-.01.23c0 .16.06.28.18.38.08.13.19.2.3.2.22.03.54.2.73.05a.14.14 0 0 1 .09-.03h.44a.08.08 0 0 1 .05-.02c.1-.03.1-.1.05-.24a.38.38 0 0 0 0-.25.09.09 0 0 0-.06-.06.41.41 0 0 0-.16 0l.11-.01c.04 0 .06-.02.07-.06a.4.4 0 0 0 .02-.22c.25.1.5.12.77.05.02.02.03.04.03.07l.01.17a.29.29 0 0 0-.01.31.45.45 0 0 0 0 .18l-.03-.03h-.01v.18c0 .04.02.06.05.06l1.35-.02c-.16.15-.32.29-.5.42-1.05-.26-1.9-.23-2.88-.22-.58 0-1.14-.05-1.68-.16a.5.5 0 0 0-.51.03c-.53-.13-.79-.48-.78-1.03a.86.86 0 0 1 .22-.55l.15-.12.3-.08c.05-.02.06 0 .02.03-.1.1-.21.2-.28.3-.19.25-.23.57-.14.94 0 .04.03.06.06.07.42.16.73.3 1.15 0a.73.73 0 0 0 .3-.54.54.54 0 0 0-.1-.4 3 3 0 0 0-.35-.36.16.16 0 0 0-.11-.05h-.48v-.02l.02-.02.56-.05.21.09Z" fill="#474848"/><path d="m10.1 11.96.34-.07c.04 0 .05-.02.05-.06a.05.05 0 0 0-.03-.04.33.33 0 0 0-.16-.06l-.75-.02c.2-.1.43-.14.68-.13.33.01.43.14.64.35l.02.02v.03l-.02.02-.02.02-.32.09h-.05l-.39-.15Z" fill="#7D3737"/><path d="M6.35 12.31c.04.3 0 .53-.14.7a2.5 2.5 0 0 0-.8-.05c.33-.07.45-.33.35-.77h.1c.04-.02.04-.05 0-.07-.07-.06-.13-.06-.15 0a1 1 0 0 0-.48-.06c-.04 0-.06.03-.06.07l.03.84a1.22 1.22 0 0 0-.65.05 5.98 5.98 0 0 1-.45-.56c.16.06.3.16.43.28.05.05.05.04.03-.02l-.03-.05c-.01-.03 0-.05.02-.06l.04-.03c.07 0 .11-.01.13-.04a.04.04 0 0 0 0-.06c-.04-.03-.09-.04-.15-.03 0-.12.02-.23.1-.34a.24.24 0 0 0 .07-.03c.03-.03.03-.05 0-.08-.03-.02-.08-.03-.14-.01-.01-.12 0-.23.02-.33 0-.04.02-.05.06-.05h.8c.23-.02.44.09.6.2a.2.2 0 0 1 .09.1c0 .03.03.06.05.08.08.07.13.18.13.32Z" fill="#1A2E58"/><path d="M13.2 11.76a2.36 2.36 0 0 0-.82.02c-.19.04-.34.02-.52.02-.08 0-.11.04-.1.14l-.04-.3 1.5-.02a.06.06 0 0 1 .06.04.07.07 0 0 1-.02.07l-.06.03Z" fill="#A2292C"/><path d="m9.55 11.71.75.02c.05 0 .1.02.16.06.02 0 .03.02.03.04 0 .04-.01.06-.05.06l-.35.07-.2.05c-.25.06-.47.06-.64-.01.1-.14.2-.23.3-.29Z" fill="#CECEC8"/><path d="M5.08 11.88c.04 0 .08-.02.08-.04s-.04-.03-.08-.03c-.05 0-.09.02-.08.04 0 .02.03.04.08.03Z" fill="#566073"/><path d="M14.05 12.23c-.16.27-.35.52-.56.75-.06 0-.1 0-.14-.03h-.45l-.55-.03a.07.07 0 0 1-.07-.06.36.36 0 0 1 0-.21l.94-.06c.07-.09.06-.15.02-.25-.03-.06-.08-.1-.16-.09a3.4 3.4 0 0 1-.78-.02.26.26 0 0 1-.01-.1c0-.04.02-.06.06-.06.44 0 .62.04 1-.07.2-.06.42-.05.68.03.06.01.06.08.02.2Z" fill="#3A0909"/><path d="M9.25 12c.17.07.39.07.65 0a.6.6 0 0 0-.22.29l-.07.1a.75.75 0 0 0-.45.01c-.02-.02-.03-.06-.02-.12a.93.93 0 0 1 .11-.28Z" fill="#B72A28"/><path d="m5.7 12.13.06.06c.1.44-.02.7-.35.77a.38.38 0 0 0-.2.01l-.04-.84c0-.04.02-.07.06-.07a1 1 0 0 1 .48.07Z" fill="#070C1E"/><path d="M5.76 12.19a.18.18 0 0 1-.05-.06c.02-.07.08-.07.16-.01.03.02.03.05 0 .07h-.11Z" fill="#767E8B"/><path d="m12.18 12.07.12.16c.24.04.5.05.78.02.08 0 .13.03.16.09.04.1.05.16-.02.25.02-.05.02-.1 0-.13-.02-.02-.05-.03-.1-.02a5.8 5.8 0 0 1-1.14 0 .31.31 0 0 0-.21.06.11.11 0 0 0-.03-.07l.05-.33.39-.03Z" fill="#B72A28"/><path d="M4.98 12.28c.05-.01.09-.04.08-.07 0-.03-.05-.05-.1-.03-.06.01-.1.05-.1.08.01.02.06.04.12.02Z" fill="#9A9FA2"/><path d="M9.68 12.29c0 .07.03.12.13.14.17.04.37-.06.52-.08.21-.02.43-.01.64.03l-.6.08c-.03 0-.05.03-.05.07v.05c0 .03.01.05.04.06l.17.03a.21.21 0 0 0-.07.2.07.07 0 0 0 .07.06l.46.05c.06.13.04.21-.05.24.06-.08.06-.15.01-.2-.02-.02-.05-.02-.08 0a.41.41 0 0 0-.16.13c-.02.03-.01.06.03.08.04.02.09.02.15.01h-.44a.14.14 0 0 0-.09.03c-.19.14-.51-.02-.73-.05.03-.02.05-.04.06-.07 0-.04 0-.08-.05-.1l.25-.1c.05-.02.05-.04 0-.06-.12-.04-.15-.16-.27-.2a.53.53 0 0 0-.19-.03l.11-.01a.07.07 0 0 0 .06-.07l.01-.19.07-.1Z" fill="#8A6663"/><path d="M6.78 12.39c0 .55.25.9.78 1.03.18.04.35.03.5-.03.55.1 1.11.16 1.69.16.99 0 1.83-.04 2.89.22l-.2.15c-.45-.1-.84-.16-1.18-.17H7.97c-.49-.03-.97-.04-1.46-.02-.3.01-.58.1-.85.26-.28-.2-.55-.41-.8-.65.22-.04.51-.06.88-.06.16 0 .32-.09.47-.27.14-.17.18-.4.14-.7l.43.08Z" fill="#21191A"/><path d="M9.61 12.39v.2a.07.07 0 0 1-.07.06l-.1.01a.6.6 0 0 1-.3-.02l.02-.24c.16-.05.3-.05.45-.01Z" fill="#E9D7CE"/><path d="M10.97 12.38a.4.4 0 0 1-.02.22.08.08 0 0 1-.07.06h-.1a.56.56 0 0 1-.25 0l-.17-.02c-.03-.01-.04-.03-.04-.06v-.05c0-.04.02-.06.05-.07l.6-.08Z" fill="#B79991"/><path d="M7.8 12.58a.09.09 0 1 0 0-.17.09.09 0 0 0 0 .17Z" fill="#566073"/><path d="m13.22 12.6-.93.05-.5.02-.02-.17a.31.31 0 0 1 .21-.07c.42.04.8.04 1.14 0 .05 0 .08.01.1.03.02.03.02.08 0 .13Z" fill="#E9D7CE"/><path d="M4.59 12.58c-.03 0-.05-.01-.06-.04 0-.03 0-.06.04-.09.06-.01.11 0 .14.03a.04.04 0 0 1 .01.06c-.02.03-.06.04-.13.04Z" fill="#566073"/><path d="M5.96 12.46c.04-.02.08-.02.13 0a.06.06 0 0 1 .04.03.06.06 0 0 1-.01.05c-.03.05-.08.05-.16.02a.05.05 0 0 1-.03-.05.06.06 0 0 1 .03-.05ZM5.05 12.75c.05-.04.06-.11.03-.15-.03-.04-.1-.04-.15 0-.05.04-.06.1-.03.15.03.04.1.04.15 0Z" fill="#767E8B"/><path d="M9.43 12.66c.07 0 .14.01.2.03.1.04.14.16.26.2.05.02.05.04 0 .06l-.25.1c-.13-.07-.23-.08-.31-.03a.47.47 0 0 1-.18-.38.6.6 0 0 0 .28.02ZM10.77 12.66h.16c.03.02.05.04.06.07.03.07.03.16 0 .25l-.46-.05a.07.07 0 0 1-.07-.06.21.21 0 0 1 .07-.2h.24ZM11.78 12.67l.5-.02a.36.36 0 0 0 0 .21c0 .04.03.05.07.06l.55.03-1.13.03a.29.29 0 0 1 .01-.31Z" fill="#A2292C"/><path d="M13.35 12.95c0 .05-.02.1-.05.13-.02.03-.06.04-.12.04-.46.03-.96.12-1.42.04a.45.45 0 0 1 0-.18l1.14-.03h.45Z" fill="#CECEC8"/><path d="m13.49 12.98-.36.37-1.35.02c-.03 0-.05-.02-.05-.06v-.17c0-.01 0-.01 0 0l.03.02c.46.08.96 0 1.42-.04.06 0 .1-.01.12-.04a.21.21 0 0 0 .05-.13c.03.03.08.04.14.03Z" fill="#A2292C"/><path d="M5.2 12.97a.38.38 0 0 1 .2 0c.28-.04.55-.02.81.04-.15.18-.3.27-.47.27-.37 0-.66.02-.88.06-.11-.1-.21-.2-.31-.32.18-.07.4-.09.65-.05Z" fill="#9A9FA2"/><path d="M6.74 12.97H6.5a.07.07 0 0 0-.06.07v.21c0 .04.03.07.06.07h.25c.04 0 .07-.03.07-.07v-.2a.07.07 0 0 0-.07-.08Z" fill="#B72A28"/><path d="m10.94 13.22-.05.02c-.06.01-.11 0-.15-.01-.04-.02-.05-.05-.03-.08.04-.06.1-.1.16-.14.03-.01.06 0 .09.02.04.05.04.11-.02.2Z" fill="#B3B3AD"/><path d="m11.44 13.06-.12-.04a.08.08 0 0 0-.1.06l-.01.02c-.01.05.01.1.06.1l.12.04c.04.01.08-.01.1-.06v-.02a.08.08 0 0 0-.05-.1ZM8.88 13.32c.08 0 .15-.06.15-.13s-.07-.13-.15-.13c-.08 0-.15.06-.15.13s.07.13.15.13Z" fill="#B72A28"/><path d="M8.07 13.4a.93.93 0 0 1-.51.02.5.5 0 0 1 .5-.03Z" fill="#566073"/><path d="M12.43 13.92a6 6 0 0 1-1.85.87c-.91-.26-1.78-.6-2.6-1.05l3.28.01c.34 0 .73.06 1.17.17Z" fill="#230403"/><path d="M7.97 13.74c.83.45 1.7.8 2.61 1.05a6 6 0 0 1-4.92-.8c.27-.16.55-.25.85-.26.49-.02.97-.01 1.46.01Z" fill="#0B0102"/></svg>