<!-- by TradingView --><svg width="18" height="18" viewBox="0 0 18 18" xmlns="http://www.w3.org/2000/svg"><path fill="#F0F3FA" d="M0 0h18v18H0z"/><path fill-rule="evenodd" d="M14.62 9A5.62 5.62 0 1 1 3.38 9a5.62 5.62 0 0 1 11.24 0ZM15 9A6 6 0 1 1 3 9a6 6 0 0 1 12 0Zm-1.57 0a4.43 4.43 0 1 1-8.86 0 4.43 4.43 0 0 1 8.86 0Zm.86 0A5.3 5.3 0 1 1 3.71 9a5.3 5.3 0 0 1 10.58 0ZM7 7a1 1 0 0 0-1 1v2a1 1 0 1 0 2 0v-.85h-.72L8 8.34V8a1 1 0 0 0-1-1Zm3 1a1 1 0 1 1 2 0v.34l-.72.81H12V10a1 1 0 1 1-2 0V8Z"/></svg>