<!-- by TradingView --><svg width="18" height="18" viewBox="0 0 18 18" xmlns="http://www.w3.org/2000/svg"><path fill="#F4B940" d="M0 0h18v18H0z"/><path d="M11.19 4.28c-.1.29-.2.53-.53.46a1.14 1.14 0 0 1-.59-.39 5.06 5.06 0 0 0-.47-.47c-.37-.33-.74-.33-1.23-.3-.3.03-.56.07-.78.12a.47.47 0 0 0-.16.07h-.01v.02c0 .01 0 .02.02.02.28-.08.55-.13.8-.08a24 24 0 0 0 .65.11v-.01a1.98 1.98 0 0 0-.37-.1c-.09-.02-.09-.03 0-.04.46-.05.82.04 1.14.36a63.32 63.32 0 0 1 .62.67l-.01.01h-.01c-.42.14-1.05-.02-1.4-.2l-.8-.4a1.3 1.3 0 0 0-.98-.08.27.27 0 0 0-.19.16c0 .02 0 .03.02.02.63-.38 1.14 0 1.68.28.2.1.43.18.64.27.03.02.03.03 0 .04-.16.05-.32.1-.49.13a.76.76 0 0 1-.65-.16c-.35-.28-.56-.44-1.02-.22-.17.07-.36.08-.5.18a.63.63 0 0 1-.21-.07c-.06-.03-.06-.05 0-.07a.32.32 0 0 0 .17-.1l.25-.24c.04-.05.03-.06-.03-.05h-.06c-.09.01-.1-.01-.04-.07.14-.13.32-.22.46-.34.91-.76 2.5-1.18 3.53-.37.3.23.47.51.55.84Z" fill="#3A2F26"/><path d="M8.27 3.43c.18-.05.32-.1.31-.12 0-.02-.15 0-.33.05-.17.04-.3.1-.3.12 0 .02.15 0 .32-.05Zm1.73.33a3.05 3.05 0 0 0-1.03-.35l.01-.01c.42 0 .77.1 1.05.31v.04H10Zm.95.58a2.27 2.27 0 0 0-.61-.77v-.04h.03c.3.2.51.46.61.8v.02h-.03Z" fill="#2A282F"/><path d="M11.19 4.28c0 .08.02.15.06.22.05.1.08.15.08.18.02.07.01.14-.01.2v.04c0 .02 0 .03.02.03.17.1.27.24.31.4v.01l.02.02.09.04.02.02a.07.07 0 0 1 .01.06l-.01.03-.05.06v.09l-.04-.01c-.16-.17-.49-.18-.7-.17-.03 0-.03.02-.02.04.04.07.04.15 0 .22-.06.14-.21.18-.36.14-.12-.02-.19-.14-.2-.26 0-.03-.02-.04-.05-.03l-.08.02c-.03 0-.04.02-.03.05.04.08.04.15.02.22-.02 0-.03-.01-.04-.07 0-.18-.1-.26-.3-.27h-.5c-.02 0-.03.01-.02.03.04.2-.04.31-.24.34-.2.04-.33-.05-.38-.26-.06.01-.08 0-.07-.03.37-.1.75-.14 1.13-.13a1.12 1.12 0 0 1 .29.04l.01-.02a.87.87 0 0 0-.22-.4c-.12-.12-.33-.35-.53-.3a.8.8 0 0 0-.17.08c-.12.07-.27.08-.4.12a.84.84 0 0 1-.21.02c-.18 0-.37 0-.58.02l-.13.01a.04.04 0 0 0-.04.03c-.12.32-.3.62-.58.8a.04.04 0 0 0-.02.05.6.6 0 0 1-.16.4 2.14 2.14 0 0 1-.55.44c-.04-.06-.04-.15 0-.27a.03.03 0 0 0 0-.03.03.03 0 0 0-.04 0 .46.46 0 0 1-.2.03c-.08-.01-.08-.03-.01-.06.04-.01.08-.05.12-.12.02 0 .04.01.07.04h.03A4.36 4.36 0 0 0 7 6a1.58 1.58 0 0 0-.3.16v-.02c.15-.15.31-.24.52-.34a1.13 1.13 0 0 0 .52-.66h-.01c-.02-.01-.04 0-.05.01l-.23.28c-.19.2-.5.37-.77.43-.04 0-.08.04-.11.06a.04.04 0 0 1-.04.01h-.06c-.03.04-.05.05-.08.04-.01 0-.02-.01-.02-.03l.01-.18.1.07h.05c.16-.06.34-.1.49-.2a3.1 3.1 0 0 0 .49-.43l-.02-.02h-.02a2.19 2.19 0 0 1-.94.37.02.02 0 0 1 0-.01v-.01c0-.03 0-.04.02-.04a.87.87 0 0 0 .39-.11c.36-.23.65-.4 1.1-.4.14.01.14-.02.03-.08a3.64 3.64 0 0 1-.37-.24.49.49 0 0 0-.36-.09.87.87 0 0 0-.28.11c-.1.04-.19.08-.28.1l-.21-.02c.14-.1.33-.1.5-.18.46-.22.67-.06 1.02.22.19.16.4.2.65.16.17-.03.33-.08.48-.13.04 0 .04-.02 0-.04-.2-.1-.43-.16-.63-.27-.54-.29-1.05-.66-1.68-.28-.02 0-.03 0-.02-.02.03-.08.1-.13.19-.16.34-.1.66-.07.98.09l.8.4c.35.17.98.33 1.4.2a.03.03 0 0 0 .02-.04l-.01-.01-.61-.64c-.32-.32-.68-.41-1.14-.36-.09 0-.09.02 0 .03a1.98 1.98 0 0 1 .37.11v.01l-.64-.1c-.26-.06-.53 0-.81.06h-.02v-.03a.41.41 0 0 1 .17-.07c.22-.05.48-.09.78-.11.5-.04.86-.04 1.23.29.16.13.32.3.47.47.15.17.36.35.59.4.33.06.43-.18.53-.47Z" fill="#120F0A"/><path d="M6.38 5.75a.4.4 0 0 1 .1-.22.02.02 0 0 0 0-.02h-.01l-.01-.01c-.25-.07-.43-.2-.57-.39-.04-.06-.02-.08.05-.06.15.05.3.08.47.04.02 0 .02-.01 0-.02a.36.36 0 0 1-.18-.12c-.06-.08-.04-.1.06-.1.15.03.32 0 .49-.07l.28-.11c.14-.07.23-.1.28-.11.13-.02.25.01.36.1l.37.23c.11.06.1.1-.03.09-.45-.02-.74.16-1.1.39-.1.06-.23.1-.39.11-.02 0-.03.01-.03.04a.02.02 0 0 0 0 .02.03.03 0 0 0 .03.01 2.19 2.19 0 0 0 .94-.38l.01.01v.04a3.1 3.1 0 0 1-.48.4c-.15.1-.33.14-.5.2H6.5l-.1-.07Z" fill="#3A2F26"/><path d="M10.4 5.54a.23.23 0 0 1-.04-.13.23.23 0 0 1 .08-.03 2.77 2.77 0 0 1 1.01-.04V5.3h-.02a3.36 3.36 0 0 0-.94.02l-.04-.04c0-.02 0-.02.02-.03h.02l.41-.08a.91.91 0 0 1 .51.04v-.03a.04.04 0 0 0-.03-.03 1.18 1.18 0 0 0-.52-.02l-.44.07c-.27-.02-.35-.14-.26-.36.24-.06.48-.02.73 0 .11 0 .26.06.44.16.14.09.24.2.27.35.01.06.06.08.11.1.03.02.04.04.02.07l-.01.01c-.02.03-.05.04-.09.03a1.33 1.33 0 0 0-.4-.1c-.25-.03-.57.05-.84.08Z" fill="#F1CCB3"/><path d="M8.72 5.64c-.17.03-.36.1-.53.08a.7.7 0 0 0-.31.04h-.04a.03.03 0 0 1-.02-.03.03.03 0 0 1 .01-.02c.1-.1.2-.18.34-.22.55-.18 1.27-.35 1.8-.12H10l.01-.03a1.73 1.73 0 0 0-.87-.11c-.28.03-.56.1-.86.17-.13.04-.5.2-.5.34a.06.06 0 0 0 .02.05.07.07 0 0 0 .06.02c.11-.02.34-.08.44-.03.23.15.49.24.77.28.24.03.54.05.92.07a.3.3 0 0 0 .23-.07c.07-.06.1-.05.08.05-.02.08-.16.14-.24.16v.03h.01c.1-.01.4-.13.29-.26v-.02c.18 0 .35.03.52.06.26.05.52 0 .76-.1.05-.03.08-.02.1.04v.06c0 .06-.04.1-.1.1l-.8.14v.01l-.01.02h.01c.05 0 .09 0 .12.02a6.03 6.03 0 0 1 .43.21v-.03l-.01-.01-.31-.17c-.04-.02-.04-.03 0-.04l.28-.06h.02l.02.02a1.4 1.4 0 0 1 .14.7.03.03 0 0 1-.03.01h-.01c-.16-.12-.33-.26-.53-.26-.3 0-.59.03-.87.08a3.53 3.53 0 0 1-1.4 0 .33.33 0 0 0-.29.09c-.12.12-.1.31.04.41.09.07.22.11.38.14.23.03.46.04.69.01.12 0 .24-.02.35-.03.17 0 .35-.03.52-.05.13-.02.29 0 .47.03a1.24 1.24 0 0 0 .48.02v.02c-.08.13-.18.25-.3.36a.84.84 0 0 1-.46.24h-.3a2.48 2.48 0 0 1-.69.02.04.04 0 0 0-.02.03 15.52 15.52 0 0 0-.83.01c-.27 0-.5-.04-.77-.1-.63-.16-1-.55-1.14-1.17a.1.1 0 0 1 .01-.06.1.1 0 0 1 .04-.04c.19-.1.33-.25.44-.44.06-.11.07-.3.16-.39.05-.04.1-.08.13-.14.13-.26.28-.5.45-.71.2-.02.4-.02.58-.02.07 0 .14 0 .21-.02.13-.04.28-.05.4-.12a.8.8 0 0 1 .17-.07c.2-.06.41.17.53.3a.87.87 0 0 1 .22.4.02.02 0 0 1-.02 0 1.12 1.12 0 0 0-.28-.03c-.38 0-.76.04-1.13.13Z" fill="#F1CCB3"/><path d="M6.83 5.15h-.01v-.01l.01-.03a1.44 1.44 0 0 1 .3-.16h.02a2.35 2.35 0 0 1 .33-.1h.04v.01l-.7.29Z" fill="#120F0A"/><path d="M10.16 4.84c-.1.22 0 .34.26.36 0 .02.02.03.07.04l-.02.01c-.02 0-.02.01-.02.03l.04.04-.12.03a.08.08 0 0 0-.04.02c-.03.03-.02.05.03.04 0 .05 0 .1.03.13l-.14.05a.03.03 0 0 1-.03 0 .03.03 0 0 1-.01-.02c-.02-.28-.23-.5-.43-.65-.05-.04-.04-.06.02-.06.1 0 .23 0 .36-.02Zm-2.12.23a3.9 3.9 0 0 0-.45.71.58.58 0 0 1-.13.14c-.1.09-.1.28-.16.39-.1.2-.25.34-.44.44a.1.1 0 0 0-.04.04.1.1 0 0 0 0 .06c.12.62.5 1 1.13 1.17.27.06.5.1.77.1a15.52 15.52 0 0 1 .88.01 2.54 2.54 0 0 0 .67-.03.02.02 0 0 0 0-.01l-.02-.02h.31c-.13.06-.28.14-.43.14-.3-.01-.6 0-.9.04H9l-.64-.06-.44-.09c-.15-.03-.32-.1-.52-.2-.45-.22-.68-.67-.76-1.14.17-.1.33-.24.48-.4a.57.57 0 0 0 .16-.4c0-.02 0-.03.02-.04.29-.19.46-.49.58-.8.01-.03.02-.04.04-.04l.13-.01Z" fill="#BB937C"/><path d="M8.33 5.34a.35.35 0 0 1-.15.02c-.02 0-.02-.01-.02-.02 0-.02 0-.03.02-.03.13-.02.24-.04.33-.07a1.8 1.8 0 0 1 1.2-.1v.02l-.01.01c-.5-.13-.9 0-1.37.17Zm2.16-.1c-.05 0-.08-.02-.07-.04l.45-.07a1.18 1.18 0 0 1 .53.03v.02l.01.02v.01a.91.91 0 0 0-.5-.04l-.42.07ZM6.43 6.35c0-.11.03-.25.06-.4 0-.01 0-.02-.02-.02h.06c.01 0 .03 0 .04-.02.03-.02.07-.05.11-.06.27-.06.58-.22.77-.43l.23-.28a.05.05 0 0 1 .05-.02.01.01 0 0 1 .01.02c-.09.25-.26.53-.52.65-.2.1-.37.19-.52.34v.01l.01.01c.1-.06.2-.12.29-.15a4.36 4.36 0 0 1-.5.4c-.03-.04-.05-.05-.07-.05Z" fill="#3A2F26"/><path d="M8.72 5.64c-.01.03.01.04.07.03l-.38.1c-.02 0-.02 0 0 .02.27.17.63.23.96.25l.56.05c.2 0 .3-.07.3-.26 0 .06.02.08.04.07 0 .03.01.05.04.05l.43.05c.19.04.33.05.43.04.12-.01.64-.1.56-.3a.38.38 0 0 0-.04-.07h.04v-.01c.1.1.05.15 0 .26l.01.04c.06.07.06.14 0 .2-.05.08-.2.09-.3.1a.02.02 0 0 0 0 .01h-.01v.02c.14.3.2.6.1.9a.66.66 0 0 1-.1.23 5.1 5.1 0 0 1-.33.42l.02.02.15.06 1.54.54c.24.09.22.6.22.8a1 1 0 0 0 .03.25 9.3 9.3 0 0 1 .17.95c0 .05.02.06.07.03l.27-.15c.16-.1.37-.06.36.17 0 .03-.03.05-.03.08l.01.04c.21.16-.01.37-.15.47l-.01.01v.02c.28.18-.21.5-.33.6a.1.1 0 0 0-.02.13l.14.23c.1.16.08.31.07.5 0 .04 0 .1.02.15.06.22.03.44-.1.64v.04a.14.14 0 0 1-.07.04 8.76 8.76 0 0 0 .09-.33.5.5 0 0 0 .02-.2c0-.09-.02-.16-.04-.24-.02-.07-.06-.1-.13-.08-.02 0-.03 0-.03-.02 0-.09-.07-.36-.2-.38a.03.03 0 0 0-.02.01.02.02 0 0 0 0 .03c.03.07.05.14.06.23a.02.02 0 0 1-.01.02h-.02l-.01-.02a.73.73 0 0 1-.05-.2c-.02-.1-.16-.26-.26-.15l-.24.22a61.9 61.9 0 0 1 .04.55c.02.25-.02.5-.2.69l-.09-.03a.55.55 0 0 0 .22-.5c0-.11-.02-.22-.05-.33v-.23c0-.08-.03-.09-.07-.01a.8.8 0 0 0-.09.22.62.62 0 0 1-.19.37c-.04.04-.07.08-.07.12-.01.06.03.12.13.16l.07.07v.02h-.05c-.14-.1-.3-.22-.14-.39v-.02l-.01-.01h-.04c-.26-.02-.42-.15-.49-.38a.02.02 0 0 0-.02-.01c-.02 0-.02 0-.02.02.03.12.09.25.16.38.05.11.12.2.21.25.1.1.22.19.36.23a.09.09 0 0 0-.04.05.65.65 0 0 1-.35-.2c-.07-.08-.18-.12-.21-.22l-.15-.34c-.04-.1 0-.27-.13-.36a4.28 4.28 0 0 0 .1.87c.04.2.1.4.27.52h.31l-.1.14v-.05c0-.01 0-.02-.02-.02-.04 0-.06 0-.08.02a.04.04 0 0 0-.01.03l.08.41a.16.16 0 0 1-.06.02l-.1-.44a.07.07 0 0 0-.03-.05c-.2-.12-.26-.3-.3-.51-.06-.25-.11-.64-.17-1.17-.02-.16.05-.28-.08-.42a.04.04 0 0 0-.04-.01h-.01l-.02.02c-.2.5-.39.98-.56 1.46-.1.26-.16.53-.2.8a.92.92 0 0 0 .01.26c.02.08.03.17.03.26 0 .07.02.16.05.26a.17.17 0 0 1-.1.02 25.03 25.03 0 0 0-.16-1.52 30.75 30.75 0 0 1 .06-4.1l.05-.28.06-.27a2.28 2.28 0 0 1 .08-.39h-.01a.02.02 0 0 0-.02 0l-.46.78c-.03.06-.09.11-.12.17 0 .01-.02.02-.03 0a.18.18 0 0 1-.08-.1 1.77 1.77 0 0 0-.22-.46c-.02-.04-.04-.04-.06 0l-.07.21a.06.06 0 0 0 .02.06c.3.35.34.82.38 1.27l.07.56c.08.52.13 1.02.14 1.5v.13l.08 1.76.02.34v.03l-.03.02-.35.34a.02.02 0 0 0 0 .02.02.02 0 0 0 0 .01l.04.01a.19.19 0 0 1-.07 0h-.04c-.02-.04-.05-.04-.08-.01a.08.08 0 0 1-.05.02l-.47.03-.45-.41c-.12-.12-.17-.24-.16-.37.03-.5.05-1.01.04-1.52v-.57c.02-.35.03-.76.03-1.25a5.03 5.03 0 0 1 .35-1.9l-.2-.29-.02-.01a.04.04 0 0 0-.04 0v.01a15.04 15.04 0 0 0-.32.49.05.05 0 0 1-.08 0 6.88 6.88 0 0 1-.81-.93v.01l.27 1c.13.47.24.93.34 1.4.15.68.25 1.36.3 2.05a19 19 0 0 1 0 1.51l-.05.74-.1-.01c-.07 0-.14-.04-.22-.02l.02-.16.01-.03.03-.03h.04l.03.01.06.05a.05.05 0 0 0 .07-.01v-.02c.02-.16.03-.33.03-.5 0-.17-.01-.3-.05-.4a7.27 7.27 0 0 0-.54-1.25l-.28-.52c-.18-.34-.36-.68-.56-1-.04-.07-.07-.07-.07.02 0 .22-.01.4-.16.58a.9.9 0 0 0-.13.22c-.05.12.03.2.06.32.04.17.05.33.03.47l-.02.37c0 .2-.01.37-.03.55 0 .04-.03.08-.05.1l-.28.27c-.09.08-.21.15-.27.25 0 .02-.02.03-.04.03H5.8c-.04-.01-.04-.03 0-.05l.01-.01c.02-.02.02-.03 0-.03-.06 0-.1.02-.13.06l-.06-.03.26-.14a.3.3 0 0 0 .13-.1v-.04a3.8 3.8 0 0 0-.29-.37 2.88 2.88 0 0 1-.32-.5 1.17 1.17 0 0 1-.07-.28c-.03-.24-.06-.5.01-.72.04-.1.02-.12-.07-.04-.2.18-.35.38-.45.6-.02.04-.03.04-.05 0 0-.03 0-.06.03-.1v-.02c0-.02-.01-.02-.03-.01a.53.53 0 0 0-.22.24c-.06.13-.1.25-.12.35 0 .03-.03.07-.06.1a.04.04 0 0 1-.04.01l-.02-.01v-.04c0-.02 0-.03.02-.05a.2.2 0 0 0 .06-.13c0-.1.09-.2.14-.28v-.02a.02.02 0 0 0-.03 0 5.8 5.8 0 0 0-.21.26.12.12 0 0 1-.08.04c-.05.01-.06 0-.03-.04l.23-.25c.1-.1.23-.13.34-.22v-.03l-.01-.01c-.15-.04-.28.02-.4.08a.02.02 0 0 1-.02 0 .02.02 0 0 1-.01-.03.02.02 0 0 1 .01 0c.16-.08.32-.12.47-.12.23 0 .3-.34.5-.42 0 0 .02-.02.01-.04a.36.36 0 0 0-.1-.15 12.61 12.61 0 0 0-.24-1.12c-.02-.17.16-.46.27-.56a.07.07 0 0 0 .02-.08 29.93 29.93 0 0 0-.46-1.26.08.08 0 0 0-.05-.01c-.14.02-.15.1-.19.23a3.9 3.9 0 0 0-.15.74c-.02.25 0 .52-.04.79-.04.2-.03.41.03.63 0 .04.02.08 0 .12-.04.13-.1.25-.15.38a.1.1 0 0 0-.05-.04c.05-.12.17-.35.13-.48-.04-.15-.05-.3-.04-.42.02-.25.03-.5.03-.77 0-.33.1-.65.18-.97.03-.1.1-.23.2-.27l1.49-.53c.13-.04.2-.14.31-.19a2.37 2.37 0 0 0 .46-.26.04.04 0 0 0 0-.02 1.62 1.62 0 0 1-.33-.67.73.73 0 0 0-.05-.15c.03 0 .05-.02.07-.04.08.47.3.92.76 1.14.2.1.37.17.52.2l.44.09a41.12 41.12 0 0 0 .89.06c.3-.04.6-.05.9-.04.14 0 .29-.08.42-.15.16-.02.31-.1.46-.24a2.38 2.38 0 0 0 .3-.36v-.02h-.01c-.16.02-.32.02-.47-.02a1.3 1.3 0 0 0-.47-.03 7.43 7.43 0 0 1-.87.08c-.23.03-.46.02-.7-.01a.86.86 0 0 1-.37-.14.27.27 0 0 1-.04-.41c.08-.08.17-.1.3-.1l.5.06c.25.03.54 0 .9-.05.27-.05.56-.08.86-.08.2 0 .37.14.53.26h.03a.03.03 0 0 0 .02-.03c0-.24-.04-.47-.15-.68l-.02-.02h-.02l-.28.06c-.04 0-.04.02 0 .04l.3.17h.02v.04a.01.01 0 0 1-.02.01 6.03 6.03 0 0 0-.4-.22.18.18 0 0 0-.13-.01l-.01-.01v-.02h.01l.8-.15c.06 0 .1-.04.1-.1v-.06c-.02-.06-.05-.07-.1-.05-.24.11-.5.16-.76.11a4.28 4.28 0 0 0-.53-.05c.12.14-.18.26-.28.28l-.01-.01v-.02c.08-.03.22-.1.24-.17.02-.1-.01-.11-.08-.05a.3.3 0 0 1-.23.07 13.6 13.6 0 0 1-.92-.07 1.9 1.9 0 0 1-.77-.28c-.1-.05-.33 0-.44.03a.07.07 0 0 1-.06-.02.06.06 0 0 1-.02-.05c0-.14.37-.3.5-.34.3-.08.58-.14.86-.17a1.73 1.73 0 0 1 .87.11v.03h-.02c-.54-.23-1.26-.06-1.81.12a.78.78 0 0 0-.35.23.03.03 0 0 0 0 .02l.02.01h.04a.7.7 0 0 1 .31-.03c.17.02.36-.05.53-.08Z" fill="#2A282F"/><path d="M10.36 5.41c-.05 0-.06-.01-.03-.04l.04-.02.12-.03a3.36 3.36 0 0 1 .96-.02v.04a.01.01 0 0 1-.01 0 2.77 2.77 0 0 0-1 .04.23.23 0 0 0-.08.03Z" fill="#2A282F"/><path d="m11.7 5.67.03.07c.08.2-.44.29-.56.3-.1.01-.24 0-.43-.04a3.35 3.35 0 0 0-.43-.05c-.03 0-.04-.02-.04-.05a.33.33 0 0 0-.02-.22c0-.03 0-.04.03-.05l.08-.02c.03 0 .05 0 .05.03.01.12.08.24.2.26.15.04.3 0 .37-.14a.23.23 0 0 0-.01-.22c-.01-.02 0-.03.02-.04.21-.01.54 0 .7.17Zm-1.47.16c0 .19-.1.27-.3.26l-.56-.05a2.12 2.12 0 0 1-.96-.25c-.02-.01-.02-.02 0-.02l.38-.1c.05.21.18.3.38.26.2-.03.28-.15.24-.34l.01-.02c.17-.02.34-.02.52 0 .18 0 .3.08.3.26Z" fill="#D9D7D1"/><path d="m10.8 5.67.01-.06a.03.03 0 0 1 .02-.02.03.03 0 0 1 .03 0c.02.02.03.05 0 .07l-.02.02a.1.1 0 0 0-.04.02c-.02 0-.02 0 0 0v-.03Zm-1.55.01c.03 0 .04-.03.03-.05 0-.02-.04-.03-.06-.02-.03 0-.04.03-.03.05 0 .02.03.03.06.02Zm1.34.07c.04 0 .07-.03.07-.07a.07.07 0 0 0-.07-.07.07.07 0 0 0-.07.07c0 .04.03.07.07.07ZM9 5.63h-.04a.05.05 0 0 0-.04.07c0 .03.04.05.06.04h.04c.03 0 .04-.03.04-.06v-.01A.05.05 0 0 0 9 5.63Zm.12.11v.05c.02 0 .04 0 .05-.02v-.05c-.02 0-.04 0-.05.02Z" fill="#D9D7D1"/><path d="M9.87 6.4a.03.03 0 0 0 0-.04h-.01l-.02-.01a4.1 4.1 0 0 1-1.22-.14c-.22-.05-.42-.11-.5-.32v-.02h.04c.01 0 .02 0 .02.02.04.1.11.15.2.19a4.28 4.28 0 0 0 1.51.24l.03.03a.07.07 0 0 1-.02.08c-.08.07-.28.09-.39.11a.4.4 0 0 0-.22.14.02.02 0 0 1-.02 0h-.01v-.02c.13-.18.33-.18.53-.22.04 0 .07-.02.08-.04Z" fill="#3A2F26"/><path d="M10.13 7.32c-.3.05-.59.07-.87.08-.25 0-.49-.03-.7-.1-.31-.1-.22-.48.1-.44.28.03.56.08.85.07.15 0 .3-.02.44-.05a6.4 6.4 0 0 1 1-.1c.22 0 .35.16.52.26l.02.04c.01.1-.02.26-.15.28a1.1 1.1 0 0 1-.48-.02 1.8 1.8 0 0 0-.73-.02Z" fill="#BB937C"/><path d="M8.83 7.1c.1.02.2.02.3 0 .42-.04.87-.08 1.35-.1a1 1 0 0 1 .26.02 22.47 22.47 0 0 0 .63.16c0 .02 0 .02-.02.02a3.87 3.87 0 0 1-.4-.07c-.14-.03-.26.04-.4.03H9.8c-.13.01-.27-.03-.4-.02-.19.03-.41.07-.58-.01l-.02-.02V7.1h.01a.02.02 0 0 1 .02 0Z" fill="#120F0A"/><path d="m7.24 7.93.02.03.06.36v.03a.17.17 0 0 1-.06.03.08.08 0 0 0-.04.02c-.1.1-.16.21-.27.3-.17.14-.35.26-.54.34a.13.13 0 0 1-.12 0 5.75 5.75 0 0 0-.33-.2v-.05c.04-.15.11-.3.2-.43.1-.14.18-.35.36-.42l.37-.16c.08-.04.14-.03.19.04l.03.02c.05.02.1.05.13.1Zm4.61.81c-.07.08-.16.15-.25.22a.1.1 0 0 1-.09.01c-.2-.08-.43-.17-.6-.3a7.98 7.98 0 0 0-.24-.19.2.2 0 0 0-.11-.04.04.04 0 0 1-.03-.01.04.04 0 0 1 0-.04l.02-.17.03-.06a.13.13 0 0 1 .06-.03.84.84 0 0 0 .38-.22c.02-.02.04-.02.06 0a3.43 3.43 0 0 1 .78.82l-.01.01Z" fill="#3B415C"/><path d="M8.69 8.45a3.31 3.31 0 0 1-1.27-.3L7.34 8c-.02-.04 0-.05.03-.03l.27.11c.36.12.73.19 1.11.2.07.01.07.03.02.07a.34.34 0 0 0-.08.1Z" fill="#8B8B8B"/><path d="M12.69 8.5v.01a.6.6 0 0 1 0 .23 8.34 8.34 0 0 0-.36 1.85l-.19.08c-.12.08-.25.14-.37.19-.02 0-.04 0-.05-.02-.03-.06-.06-.11-.02-.18a.66.66 0 0 0 .08-.19c.04-.13.1-.25.15-.38l.1-.25a3 3 0 0 0 .09-.25.28.28 0 0 0-.12-.35 3.22 3.22 0 0 0-.33-.22L11.7 9c.08-.06.15-.14.21-.22a.08.08 0 0 0 0-.1l-.5-.6a.02.02 0 0 1 0-.03h.08l.81.27c.14.05.26.13.4.18Zm-6.8.36c0 .02.02.04.04.05l.33.2v.01c-.14.1-.29.2-.44.27-.17.09 0 .24.07.32l.47.65c.02.03.02.05.02.07a.1.1 0 0 1-.04.05H6.3l-.38-.13a.74.74 0 0 0-.35-.05.02.02 0 0 1-.01-.02v-.01c.04-.06.09-.13.05-.2a.34.34 0 0 0-.15-.14.08.08 0 0 0-.05 0h-.05c-.02 0-.03 0-.03-.02a27.42 27.42 0 0 0-.47-1.24c0-.01 0-.02.02-.03.11-.07.25-.1.38-.16l.42-.16c.17-.05.33-.14.51-.17a.03.03 0 0 1 .03.01.02.02 0 0 1 0 .03c-.12.17-.22.35-.32.55a.18.18 0 0 0-.01.12Z" fill="#3B415C"/><path d="m8.69 8.45-.42.65a.03.03 0 0 1-.03 0 .03.03 0 0 1-.02 0 5.6 5.6 0 0 1-.8-.95c.43.19.85.29 1.27.3Zm.73-.01c.26.03.52-.03.77-.17a.59.59 0 0 0 .21-.07c.05-.03.06-.03.03.02a13.3 13.3 0 0 0-.6.94h-.02v-.02a2.7 2.7 0 0 0-.4-.7Z" fill="#D9D7D1"/><path d="M8.6 9.93c-.03-.24.03-.5.1-.74.04-.1.05-.18-.05-.24a.07.07 0 0 0-.1.02l-.23.34-.02.01a.04.04 0 0 1-.05 0 5.91 5.91 0 0 0-.36-.36c-.09-.08-.17-.19-.27-.25-.05-.03-.07-.02-.06.04l.1.51-.27-1v-.02a.01.01 0 0 1 .02.01 6.88 6.88 0 0 0 .83.94l.04-.01a15.07 15.07 0 0 1 .34-.5.04.04 0 0 1 .03.01l.21.29c.02.01.02.03.01.05-.12.29-.2.59-.27.9Z" fill="#BB937C"/><path d="M10.19 8.27c-.25.14-.5.2-.77.17l-.11-.12V8.3c.3-.02.6-.06.88-.03Z" fill="#8B8B8B"/><path d="M10.2 13.35c0 .28 0 .58-.07.85 0 .01-.01.02-.03.01l-.02-.02a292.47 292.47 0 0 1-.08-1.9 11.8 11.8 0 0 0-.14-1.5l-.07-.55c-.04-.45-.09-.92-.38-1.27a.06.06 0 0 1-.02-.06l.07-.2c.02-.05.04-.05.06-.01.1.14.17.3.22.47.01.04.04.07.08.1h.03c.03-.07.09-.12.12-.18a849.13 849.13 0 0 1 .48-.78h.01l.01.02-.1.37c0 .1-.03.19-.05.27l-.05.28a30.8 30.8 0 0 0-.07 4.1Z" fill="#D9D7D1"/><path d="m8.18 13.6-.3-.74-.15-.25c-.3-.58-.62-1.13-.93-1.67a.28.28 0 0 1-.04-.19c.03-.22-.1-.26-.28-.34a7.13 7.13 0 0 0-.67-.92c0-.01 0-.02.02-.03A2.24 2.24 0 0 0 7.3 8.4h.02l.01.02.13.47.1.33c.04.24.1.5.18.77.08.27.1.56.17.83a4.62 4.62 0 0 1 .16 1c.03.11.05.19.06.29l.07.86a2.5 2.5 0 0 1-.03.63Zm3.15-2.98c-.18.06-.22.22-.2.38 0 .2.02.37.03.54 0 .14-.1.3-.15.43-.21.48-.4.96-.58 1.45a.46.46 0 0 0-.02.16c0 .02-.01.02-.02 0a.24.24 0 0 1-.07-.14 95.8 95.8 0 0 1-.07-1.38c-.02-.42.02-.87.02-1.32 0-.2.03-.4.04-.6a9.1 9.1 0 0 1 .2-1.63l.03-.02a.07.07 0 0 1 .06.01c.1.08.21.15.3.24.07.06.15.1.25.14l.6.27c.12.05.22.12.3.2a.1.1 0 0 1 .04.12 13.46 13.46 0 0 1-.51 1.19h-.04c-.06-.03-.14-.06-.2-.04Zm1.57-.32a.49.49 0 0 0 .05-.1l.02-.03c.06-.04.08-.12.06-.22h.03c.03.16.05.34.06.55a.1.1 0 0 1-.03.09c-.08.06-.16.1-.25.15h-.05l-.28-.15a.04.04 0 0 1-.03-.03c0-.19 0-.36.03-.52a8.45 8.45 0 0 1 .22-1.12c.02-.12.07-.24.04-.36v-.01a.03.03 0 0 1 .02-.02h.02c.04.03.07.06.08.1.09.25.1.48.06.68v.15c0 .3-.04.56-.07.84 0 .03 0 .03.02 0Zm-7.29 3.89c-.2-.03-.12-.05-.48-.26-.4-.24-.78-.52-1.12-.84-.01-.02-.02-.03 0-.05.04-.08.1-.15.16-.2a.36.36 0 0 0 .09-.13.02.02 0 0 0 0-.02.02.02 0 0 0-.03 0 .06.06 0 0 0-.03.03l-.02.02-.14.14H4v-.02l.06-.24a.33.33 0 0 1 .1-.15c.08-.06.07-.08-.02-.04a.12.12 0 0 0-.06.05l-.03.01-.02-.02a.51.51 0 0 0 .01-.2c-.01-.1.01-.2.04-.31.03-.13.1-.26.14-.4.06-.12.1-.24.15-.37.02-.04 0-.08 0-.12a1.46 1.46 0 0 1-.03-.63c.05-.27.02-.54.04-.8.02-.22.08-.46.15-.73.04-.13.05-.21.2-.23h.04c.02.02.03.03.03.05a53.99 53.99 0 0 1 .43 1.22c.01.03 0 .05-.02.08-.11.1-.3.4-.27.55l.08.54c.01.1.03.18.07.27a2.48 2.48 0 0 1 .1.32c.05.05.08.1.1.15 0 .02-.01.03-.03.04-.2.08-.26.42-.5.42a1.15 1.15 0 0 0-.47.12.02.02 0 0 0 0 .02l.01.01h.02c.12-.06.25-.12.4-.08h.01v.02a.02.02 0 0 1 0 .02c-.11.09-.24.12-.34.22l-.23.25c-.03.04-.02.05.03.04.03 0 .06-.02.08-.04a5.82 5.82 0 0 1 .23-.26l.01.01v.01c-.05.08-.13.19-.14.28a.2.2 0 0 1-.06.13.09.09 0 0 0-.03.05v.04l.03.01h.04a.22.22 0 0 0 .06-.1c.02-.11.06-.23.12-.36a.57.57 0 0 1 .22-.24h.04v.03c-.04.04-.05.07-.04.1.02.04.03.04.05 0 .1-.22.25-.42.45-.6.09-.08.11-.07.07.04a1.6 1.6 0 0 0 0 .72c0 .1.02.2.06.28.02.08.07.16.13.26.06.08.12.16.2.24a3.82 3.82 0 0 1 .28.4.3.3 0 0 1-.13.11l-.26.14Z" fill="#3B415C"/><path d="M8.6 9.93a6 6 0 0 0-.09.95c0 .49-.01.9-.03 1.25v.57l-.02.13c0 .03-.02.04-.05.04h-.04c-.03-.01-.04-.02-.04-.04A14.44 14.44 0 0 0 8 10.67c-.1-.48-.21-.94-.34-1.4l-.1-.52c-.01-.06.01-.07.06-.04.1.06.18.17.27.25a5.92 5.92 0 0 1 .4.37.04.04 0 0 0 .03-.02l.24-.34a.07.07 0 0 1 .1-.02c.1.06.08.13.05.24-.08.23-.14.5-.11.74Z" fill="#D9D7D1"/><path d="M5.04 10.78c0-.06-.02-.11-.03-.17-.03-.14.05-.25.12-.37.06-.11.17-.15.27-.23a.06.06 0 0 1 .08 0c.07.08.07.16-.01.25a.05.05 0 0 1-.04.01c-.06 0-.14-.01-.19.02-.11.08-.13.37-.16.5-.02.05-.03.05-.04 0Z" fill="#F1CCB3"/><path d="M5.3 10.88a.32.32 0 0 0-.14.25v.01h-.02a.39.39 0 0 1-.03-.23 20.07 20.07 0 0 1 .12-.54c.03-.03.06-.05.1-.04h.03a.08.08 0 0 1 .04.05v.03c-.02.2 0 .34.02.44.02.04 0 .06-.05.04l-.03-.02-.05.01Zm8.04-.01c-.09.02-.17.05-.25.09-.15.06-.26.05-.35-.04.13-.12.28-.23.43-.3.1-.06.2-.1.26-.15.1-.06.2-.1.27-.13a.1.1 0 0 1 .1 0l.05.07c.03.07.02.13-.05.17l-.46.3Zm-6.94-.02a.17.17 0 0 1-.08-.08v-.1c0-.02 0-.02-.01-.01-.03.02-.05.05-.05.1l-.04.04-.03-.01c-.13-.23-.47-.26-.7-.2l-.02-.11c0-.03 0-.05.03-.06a.44.44 0 0 1 .33-.04l.37.12c.06.02.1.06.15.12l.03.03c.04.01.07.05.08.1.02.06 0 .1-.06.1Zm.12-.15a.67.67 0 0 0-.14-.13l-.01-.01a.03.03 0 0 1 0-.03v-.01c.11-.08.27 0 .32.1v.03l-.02.14v.02l-.03.01-.07.01h-.02a.03.03 0 0 1-.01-.03c0-.03 0-.07-.02-.1Z" fill="#F1CCB3"/><path d="M6.26 10.76c0 .01 0 .02.02.02h.04c.02.03.04.06.08.07-.06.05-.13.04-.22-.01-.16-.09-.33-.22-.5-.1-.02.01-.02.02 0 .03h.06l.01.01h.01a.03.03 0 0 1 0 .03v.09c0 .03.02.04.04.01a.1.1 0 0 0 .01-.1.04.04 0 0 1 .01-.05l.02-.01h.02c.1.02.18.05.25.1.1.08.2.1.32.07a.97.97 0 0 1 .22-.04c.02 0 .02.01.02.02v.13c0 .01 0 .02-.02.02a.85.85 0 0 1-.27-.07h-.02l.01.04.01.01c.07.03.13.05.2.06l.04.01.02.04a.64.64 0 0 1-.09.42c-.07.12-.2.26-.21.4-.02.17-.1.3-.26.37-.02 0-.02.01 0 .02 0 .01.02.02.04.01a.03.03 0 0 1 .02.01.03.03 0 0 1 0 .03.71.71 0 0 1-.13.33c-.11.16-.33.13-.51.1-.1-.02-.1-.08-.1-.15a1.17 1.17 0 0 1-.01-.48c0 .16.1.32.21.44.03.03.06.05.09.05.02 0 .04 0 .06-.02a.08.08 0 0 0 .03-.05.65.65 0 0 0-.04-.33h.01l.01-.01a.03.03 0 0 0-.01-.04.47.47 0 0 1-.2-.16.71.71 0 0 0-.13-.33.68.68 0 0 1-.1-.18.73.73 0 0 1-.01-.33c.02-.09.04-.18.08-.28.05.09.08.2.09.32 0 .04.01.08.03.1.04.06.06.05.04-.02a3.69 3.69 0 0 1-.06-.46c0-.06-.06-.16-.04-.2v-.02h.02c.05.04.1.06.15.07.02 0 .02 0 0-.02l-.13-.13c.23-.07.57-.04.7.19h.03c.02 0 .03-.01.04-.03Z" fill="#BB937C"/><path d="M12.6 10.96a2.55 2.55 0 0 1-.11-.05.3.3 0 0 0-.27.02c-.14.09-.28.19-.41.18-.01-.02-.03-.02-.04-.02h-.01v.08l-.01.02a.1.1 0 0 1-.08.01h-.01v-.01l-.01-.01v-.01l.07-.09a.06.06 0 0 0 .01-.04c0-.03 0-.06.02-.09l.03-.03c.13-.06.25-.12.38-.2.2-.12.4-.07.57.07.03.01.03.03.01.05a.48.48 0 0 1-.14.12Zm-1.21-.01c.08-.06.16-.06.24.02l.02.04c0 .15-.22.22-.31.08a.57.57 0 0 0-.11-.13.06.06 0 0 1-.02-.04c-.03-.33.37-.3.45-.05.03.08 0 .1-.06.04l-.04-.03a.05.05 0 0 0-.05-.01.22.22 0 0 0-.13.07c-.02.02-.02.03 0 .01Zm1.66.51c-.05-.06-.07-.15-.05-.26l.35-.22c.15-.1.28-.22.44-.29.08-.02.12 0 .13.08.01.15-.22.3-.34.38l-.53.31Z" fill="#F1CCB3"/><path d="M13.34 10.87c-.13.12-.28.21-.44.29a.05.05 0 0 0-.02.03l-.02.06c-.05.1-.04.19.03.26l.01.04c0 .02-.01.04-.04.04.02-.04-.02-.07-.1-.08-.05 0-.05-.03-.02-.06a.08.08 0 0 0 .03-.09c0-.02-.02-.03-.04-.03l-.16.02a.05.05 0 0 1-.04-.01c-.08-.06-.16-.06-.25-.1l.03-.01v-.02a.15.15 0 0 1-.08-.08c0-.02 0-.03.02-.03h.15l.05.02.04.01.04-.01.2-.2c.1.09.21.1.36.04.08-.04.16-.07.25-.09Z" fill="#BB937C"/><path d="M12.6 10.96c-.02.02-.05.02-.1 0-.02-.01-.03 0-.02.02 0 .01.01.02.03.02h.02v.06h-.04a.46.46 0 0 0-.37 0 2.82 2.82 0 0 0-.27.13h-.01v-.02l-.01-.01c0-.02 0-.04-.02-.05.13 0 .27-.1.41-.18a.3.3 0 0 1 .27-.02l.11.05Z" fill="#BB937C"/><path d="M5.4 10.96c-.05.1-.07.2-.09.28a.73.73 0 0 0 .01.33c.01.04.04.1.1.18.07.1.11.21.13.33a4.5 4.5 0 0 1-.2-.28.87.87 0 0 1-.13-.28c-.03-.15-.03-.31.01-.47a.16.16 0 0 1 .07-.1c.02-.01.05-.01.1.01Zm6.26.33c.05.03.13.06.16.12.04.09-.01.21-.03.3-.04.17-.2.25-.37.24a.53.53 0 0 1-.2-.4c0-.18 0-.35-.02-.51 0-.05 0-.06.03-.01a.9.9 0 0 1 .1.21v.02l.04.01c.04 0 .1 0 .14-.02.06 0 .1.02.15.04Z" fill="#F1CCB3"/><path d="M7.93 14.93c-.8-.1-1.55-.34-2.26-.7.02-.05.07-.07.12-.07.03 0 .03.01.01.03l-.02.01c-.03.02-.03.04 0 .05h.05c.02 0 .03-.01.04-.03.06-.1.18-.17.27-.25l.28-.26a.17.17 0 0 0 .05-.11c.02-.18.03-.36.03-.55 0-.12 0-.24.02-.37.02-.14 0-.3-.03-.47-.03-.11-.11-.2-.06-.32a.9.9 0 0 1 .13-.22c.15-.18.16-.36.16-.58 0-.09.03-.1.07-.02a17.37 17.37 0 0 1 .84 1.52c.22.4.4.82.54 1.25.04.1.05.23.05.4a6.3 6.3 0 0 1-.05.53.05.05 0 0 1-.05 0l-.06-.05a.08.08 0 0 0-.1.02l-.01.03-.02.16Z" fill="#3B415C"/><path d="M12.28 11.24c.09.04.17.04.25.1h.2c.02 0 .04 0 .04.02.01.03 0 .07-.03.1-.03.02-.03.04.02.05.08.01.12.04.1.08-.02.01-.04.02-.04.04-.01.01 0 .02.01.02a4.7 4.7 0 0 0 .67-.38.68.68 0 0 1 .18-.08.07.07 0 0 1 .05 0l.02.02v.03a.2.2 0 0 1-.04.16.96.96 0 0 1-.27.21c-.23.06-.45.16-.64.31-.03.03-.08.04-.15.04-.01 0-.03 0-.04-.02a.93.93 0 0 1-.15-.42c-.03-.16-.05-.16-.05 0a1 1 0 0 0 .1.43.06.06 0 0 1 0 .04c-.02.08-.04.15-.12.2-.15.08-.62.24-.71.01-.07-.15.05-.27.17-.33a.38.38 0 0 1 .2-.05l.22.02c.02 0 .02 0 0-.01a.53.53 0 0 0-.17-.08c-.02-.01-.04-.03-.04-.05l.02-.03a.4.4 0 0 0 .13-.25c.01-.1-.06-.19-.1-.28.05-.01.1.02.17.1Z" fill="#F1CCB3"/><path d="M12.1 11.14c.05.1.12.18.11.28a.4.4 0 0 1-.13.25.05.05 0 0 0-.02.03c0 .02.02.04.04.05-.06 0-.1 0-.12.04v.03h.07a.38.38 0 0 0-.2.04c-.12.07-.24.19-.17.34.1.23.56.07.71-.02.08-.04.1-.1.13-.19a.06.06 0 0 0 0-.04.89.89 0 0 1-.11-.43c0-.16.02-.16.05 0 .02.13.06.3.15.42l.04.02c.07 0 .12-.01.15-.04.2-.15.4-.25.64-.3a13.1 13.1 0 0 1-.63.48c-.21.2-.57.5-.89.47a.41.41 0 0 1-.34-.24 6.08 6.08 0 0 1-.16-.38c.17.01.33-.07.37-.24.02-.09.07-.21.03-.3-.03-.06-.1-.1-.16-.12.18-.01.3-.08.45-.15Z" fill="#BB937C"/><path d="M12.9 11.22h.03c.02 0 .02.02.02.03 0 .08 0 .15.02.21.01.01 0 .02-.01.03h-.02a.2.2 0 0 1-.06-.23l.02-.04Z" fill="#BB937C"/><path d="m11.89 14.4-.2.09c-.39.15-.8.27-1.22.36a.98.98 0 0 1-.05-.26c0-.09-.01-.18-.03-.26a.93.93 0 0 1 0-.25c.03-.28.1-.55.19-.81a30.5 30.5 0 0 1 .6-1.48.04.04 0 0 1 .03.01c.13.14.06.26.08.42.06.53.11.92.17 1.17.04.21.1.39.3.51l.03.05.1.44Zm1.58-1.96-.16-.2c-.08-.09-.18-.1-.28-.17-.03-.02-.03-.04 0-.07l.16-.14c.04-.03.07-.03.1 0 .17.15.25.34.24.56 0 .05-.02.06-.06.02Z" fill="#3B415C"/><path d="M5.74 12.3c.04.1.05.21.04.32 0 .02-.02.04-.03.05a.08.08 0 0 1-.06.02.13.13 0 0 1-.09-.05c-.1-.12-.21-.28-.21-.44l.01-.16a.02.02 0 0 1 .01-.02h.02c.09.12.19.2.3.27Z" fill="#F1CCB3"/><path d="M13.46 13.46a5.16 5.16 0 0 1-1.07.67 1.35 1.35 0 0 0-.3-.1.12.12 0 0 1-.02-.1c0-.03.02-.05.06-.07.12-.08.23-.16.33-.27a.86.86 0 0 0 .2-.69 61.9 61.9 0 0 0-.04-.55l.24-.22c.1-.1.24.06.26.16 0 .06.02.12.05.2h.03a.02.02 0 0 0 .01-.01.54.54 0 0 0-.06-.23v-.04h.02c.13.02.2.3.2.38 0 .01.01.02.03.02.07-.02.11.01.13.08l.04.24a.5.5 0 0 1-.02.2 8.76 8.76 0 0 1-.09.33Zm-7.1-1.27c.02-.02.03-.02.04 0 .02.14.04.28.04.42 0 .33-.01.66-.04 1-.02.14-.18.13-.26.06l-.3-.27v-.05c.04-.07.1-.12.14-.18.17-.26.33-.56.33-.86 0-.05.01-.09.05-.12Z" fill="#3B415C"/><path d="M12.3 12.61c-.32.2-.7.08-.85-.25-.03-.07-.02-.07.02-.02s.08.1.13.13c.25.2.49.22.71.06h.02v.04a.12.12 0 0 1-.04.04Z" fill="#BB937C"/><path d="m5.85 13.2-.12.07a.04.04 0 0 1-.04 0v-.01l-.01-.02-.02-.13a.4.4 0 0 0-.1-.18.02.02 0 0 1 0-.01v-.01h.01c.18 0 .37 0 .49-.16a.73.73 0 0 0 .13-.41h.01l.02-.01.02.01-.02.17c-.07.26-.2.5-.37.7Zm6.69-.47a.95.95 0 0 1-.3.63c-.09-.04-.13-.1-.12-.16 0-.04.03-.08.07-.12.1-.08.16-.2.2-.37a.8.8 0 0 1 .08-.22c.04-.08.06-.07.06.01l.01.23Z" fill="#D9D7D1"/><path d="m12.24 13.57.07.02.02.01v.04l-.01.01-.24.19h-.31c-.17-.12-.23-.33-.26-.52a4.29 4.29 0 0 1-.13-.86c0-.02 0-.02.02-.01.12.1.09.27.13.36l.15.34c.03.1.14.14.21.22.1.1.21.17.35.2Z" fill="#3B415C"/><path d="M12.08 13.03v.04a.05.05 0 0 1-.02.03.2.2 0 0 0-.06.15c0 .03-.03.04-.08.04a.7.7 0 0 1-.21-.25 1.77 1.77 0 0 1-.16-.38l.01-.02h.03c.07.24.23.37.49.39Z" fill="#D9D7D1"/><path d="M11.74 12.72c.17.07.39.08.54-.03.05-.02.06-.01.05.03a.85.85 0 0 1-.09.22l-.03.02a.47.47 0 0 1-.52-.19c-.04-.06-.02-.07.05-.05Z" fill="#BB937C"/><path d="m12.37 13.56-.1-.04a.83.83 0 0 1-.35-.23c.05 0 .08-.01.08-.04a.2.2 0 0 1 .06-.15.04.04 0 0 0 .02-.03v-.04h.04a.02.02 0 0 1 .01.01.02.02 0 0 1 0 .02c-.16.17 0 .3.14.38l.03.01h.02v-.02l-.07-.07a.95.95 0 0 0 .29-.63c.03.1.04.22.05.32 0 .22-.06.4-.22.51Zm-6.94-.59c-.01-.07 0-.07.05-.02.06.07.13.14.1.25v.01a.02.02 0 0 1-.03 0 .6.6 0 0 1-.12-.24Z" fill="#8B8B8B"/><path d="M5.85 13.2c-.03.1-.08.14-.16.14-.05 0-.07-.03-.06-.08l.03-.15.02.13v.02h.01l.02.01h.02l.12-.06Z" fill="#3B415C"/><path d="m10.37 14.87-.61.09h-.04v-.01a.02.02 0 0 1 0-.03l.35-.34a.08.08 0 0 0 .03-.05l-.02-.34.02.02.03-.01c.07-.27.07-.57.08-.85l.07.52a65.47 65.47 0 0 0 .09 1ZM8.3 12.6c0 .16.19.14.19.14-.01.13 0 1.73.11 1.85l.45.4c-.27.02-.53 0-.8-.03.02-.91.02-1.45.05-2.36Z" fill="#8B8B8B"/></svg>