<!-- by TradingView --><svg width="18" height="18" viewBox="0 0 18 18" xmlns="http://www.w3.org/2000/svg"><path fill="#F0F3FA" d="M0 0h18v18H0z"/><path d="M14.08 12.2A6 6 0 0 0 5.8 3.92L7 5.12v.42A4 4 0 0 1 12.46 11h.4l1.22 1.2Zm-1.32 1.47a6 6 0 0 1-8.44-8.44l1.3 1.3h.23a4 4 0 0 0 5.62 5.62v.23l1.3 1.3Z" fill="#C7212D"/><path d="M9 12.53a3.53 3.53 0 1 0 0-7.06 3.53 3.53 0 0 0 0 7.06Zm-1.04-5.1c0 .03 0 .06.02.08.08.14.2.25.38.22l.29-.04c.12-.01.17.03.25.13.09.12.24.31.38.38.14.06.28-.04.3-.18.03-.21.15-.35.39-.3a.07.07 0 0 1 .05.05v.02l-.03.1-.1.26c-.02.1-.15.15-.26.2-.13.06-.23.11-.36.19-.1.06-.26-.02-.37-.1a14.9 14.9 0 0 0-.53-.36c-.1-.06-.22-.13-.34-.1-.43.07-.83.34-.93.79a.86.86 0 0 0 .84 1.06h.08c.2.02.4.03.49.24l.04.18.1.6c.04.23.07.38.22.53.2.18.43.35.72.52.07.04.06.06-.01.07l-.37.02a3.03 3.03 0 0 1-2.81-1.5 2.97 2.97 0 0 1 .41-3.53 3.07 3.07 0 0 1 3.46-.7c.06.02.06.05.01.08l-.08.06c-.05.03-.1.03-.15-.01l-.04-.04c-.07-.06-.1-.1-.21-.1-.28 0-.62.26-.8.45a.22.22 0 0 0-.06.1v.02c.06.12.18.11.28.1h.06c.04 0 .06.02.07.04.03.1-.09.23-.18.27-.06.03-.14 0-.22-.05l-.04-.02c-.1-.05-.17-.03-.26.03l-.03.01c-.09.06-.19.12-.3.14l-.3.06c-.03.01-.05.02-.06.04Zm2.64 2.29a.26.26 0 0 0-.2-.32 3.87 3.87 0 0 0-.14-.03c-.16-.03-.14-.19-.09-.3.04-.08.1-.1.2-.07a1.94 1.94 0 0 0 .47.1 2.89 2.89 0 0 0 .67.06c.1 0 .17.05.2.14l.03.06c.05.14.1.26.23.3a.04.04 0 0 1 .03.03v.01a2.98 2.98 0 0 1-2.15 2.19v-.44c.02-.38.14-.72.37-1.02.13-.17.2-.26.2-.28.08-.13.14-.27.18-.43Z" fill="#C7212D"/></svg>