<!-- by TradingView --><svg width="18" height="18" xmlns="http://www.w3.org/2000/svg"><path fill="#13204B" d="M0 0h18v18H0z"/><path d="M6.272 5.05l-2.09 1.24 2.724 1.6 1.342-1.988-1.307-.787a.744.744 0 00-.67-.064z" fill="url(#paint0_linear)"/><path d="M8.723 6.147l-.478-.243-.47.681 3.816 1.058 2.301-1.349a842.357 842.357 0 00-2.08-1.206.63.63 0 00-.643 0c-.531.315-1.645.968-1.854 1.059-.209.09-.481.037-.592 0z" fill="url(#paint1_linear)"/><path d="M6.914 7.89l.868-1.306 3.815 1.058c-.511.308-1.637.978-2.066 1.184a1.124 1.124 0 01-.989 0L6.914 7.89z" fill="url(#paint2_linear)"/><path d="M4 7.673V6.536l2.41 1.395.365 2.544L4 7.673z" fill="url(#paint3_linear)"/><path d="M4 8.975V7.672l2.785 2.78.588 3.646-.49-.287a.812.812 0 01-.383-.66c.01-.527.026-1.666 0-2.013-.026-.346-.347-.602-.49-.686a96.922 96.922 0 00-1.516-.856c-.414-.225-.501-.508-.494-.621z" fill="url(#paint4_linear)"/><path d="M8.897 15l-1.527-.906-.588-3.65 2.115 2.241V15z" fill="url(#paint5_linear)"/><path d="M8.253 8.967L6.41 7.93l.355 2.502 2.131 2.256c.007-.642.026-2.096.01-2.695a1.173 1.173 0 00-.653-1.026z" fill="url(#paint6_linear)"/><path d="M9.122 10.081V15a76.1 76.1 0 001.962-1.164c.308-.2.395-.577.417-.74V11.27c0-.603.64-.943.923-1.044L10.729 8.44l-1.01.57c-.499.265-.606.824-.597 1.071z" fill="url(#paint7_linear)"/><path d="M14 6.551l-3.275 1.891 1.697 1.785c.265-.14.875-.473 1.193-.674.318-.201.39-.569.385-.727V6.55z" fill="url(#paint8_linear)"/><defs><linearGradient id="paint0_linear" x1="6.137" y1="5.454" x2="5.491" y2="5.929" gradientUnits="userSpaceOnUse"><stop stop-color="#7177AE"/><stop offset="1" stop-color="#88AAD1"/></linearGradient><linearGradient id="paint1_linear" x1="13.892" y1="6.321" x2="8.09" y2="6.187" gradientUnits="userSpaceOnUse"><stop offset=".206" stop-color="#6F71A9"/><stop offset="1" stop-color="#8AB6DD"/></linearGradient><linearGradient id="paint2_linear" x1="7.576" y1="7.188" x2="10.582" y2="7.6" gradientUnits="userSpaceOnUse"><stop stop-color="#8DACD5"/><stop offset="1" stop-color="#7477AC"/></linearGradient><linearGradient id="paint3_linear" x1="4.532" y1="7.398" x2="6.212" y2="9.348" gradientUnits="userSpaceOnUse"><stop stop-color="#53479D"/><stop offset="1" stop-color="#89ACD2"/></linearGradient><linearGradient id="paint4_linear" x1="7.364" y1="10.464" x2="4.418" y2="12.476" gradientUnits="userSpaceOnUse"><stop stop-color="#8EABD0"/><stop offset=".399" stop-color="#4D4984"/></linearGradient><linearGradient id="paint5_linear" x1="9.084" y1="12.695" x2="7.104" y2="12.695" gradientUnits="userSpaceOnUse"><stop stop-color="#84B8DF"/><stop offset=".67" stop-color="#6575A9"/></linearGradient><linearGradient id="paint6_linear" x1="6.985" y1="8.253" x2="8.907" y2="12.503" gradientUnits="userSpaceOnUse"><stop offset=".06" stop-color="#4E4388"/><stop offset=".668" stop-color="#8DB8D8"/></linearGradient><linearGradient id="paint7_linear" x1="12.383" y1="11.851" x2="9.122" y2="11.98" gradientUnits="userSpaceOnUse"><stop offset=".077" stop-color="#7CC6E6"/><stop offset="1" stop-color="#ABD7E7"/></linearGradient><linearGradient id="paint8_linear" x1="14" y1="7.854" x2="11.638" y2="9.243" gradientUnits="userSpaceOnUse"><stop offset=".068" stop-color="#83CAE3"/><stop offset="1" stop-color="#B9E0EF"/></linearGradient></defs></svg>