<!-- by TradingView --><svg width="18" height="18" viewBox="0 0 18 18" xmlns="http://www.w3.org/2000/svg"><path fill="url(#aumbxpb30)" d="M0 0h18v18H0z"/><path d="M6.16 12.8a7.57 7.57 0 0 1-1.12-2.15c-.22.74.46 1.99 1 2.58.44.48.9 1.37 1.07 1.76a5 5 0 0 0-.95-2.19Z" fill="#521F04"/><path d="M9.62 11.44 6.06 6.43h1.1l3.56 4.44-1.1.57Z" fill="#CB4D27"/><path d="M6.47 10.3c.82-.54 1.31-.02 1.37 0-.76-.26-1.1.69-1.03 1.14.07.45 1.43 1.5 1.79 1.53.29.02.32-.2.3-.3.16-.22.5-.69.67-.9.16-.2.11-.3.07-.33l1.08-.51c.08.63-.33 1.3-.86 1.88-.42.47-.86.75-1.03.82l-1.33-.1a11.29 11.29 0 0 1-1.2-1.5c-.03-.19-.64-1.2.17-1.73Z" fill="url(#bumbxpb30)"/><path d="M5.93 9.97c1.68-.44 1.84.29 1.86.31-.95-.58-1.55.19-1.74.65l-1-.27c.26-.41.7-.63.88-.69Z" fill="#FFFDFF"/><path d="M5.18 11.81c-.24-.38-.18-.94-.12-1.17l.97.32c-.14.79.94 2.05 1.5 2.58l1.28.08c1.67-1.1 2-2.23 1.96-2.66l-3.6-4.51.93-.22 2.86 2.8-.2.2c1.16 1.07 1.1 2.42.33 3.86A4.4 4.4 0 0 1 8.5 15H7.03c-.15-1.25-1.56-2.72-1.84-3.19Z" fill="url(#cumbxpb30)"/><path d="M8.72 14.32c2.06-.76 2.76-2.25 2.85-2.9 0 1.46-1.23 2.65-1.85 3.06.27-.34.75-.97.53-.75-.23.22-1.12.48-1.53.59ZM9.64 9.42c.06-.15.37-.42 1.17-.39-.3.01-.8.38-1.04.57l-.13-.18Z" fill="#521F04"/><path d="M12.79 5.75c-.3-.63-1.53-2.08-2.12-2.72l-.88.62c.46.65 1.4 1.93 1.36 1.93-.04 0-.1.98-.26 1.19-.13.17-.5.2-.67.19-.08.08-.16.29.1.43.27.14 1-.1 1.32-.24l1.15-1.4Z" fill="url(#dumbxpb30)"/><path d="M7.19 6.41H6c.8-.63.13-.49 1.37-2.05a3.96 3.96 0 0 1 3.3-1.35l-.53.79c-.35 0-1.23.13-1.97.72-.74.58-.97 1.5-.98 1.9Z" fill="#FFF5D6"/><path d="m8.07 6.2-.91.23A2.8 2.8 0 0 1 10.1 3.8c.4.1 1.13 1.04 1.45 1.5-.13.03-.4.25-.43.88a.8.8 0 0 1-.18.5.32.32 0 0 1-.16.15c-.18.13-.4.18-.53.2 1.24.84 2.36-1.62 2.55-1.32.16.25.2 1.27.2 1.75-.35.25-1.24.74-2.02.72-.78-.02-1.06-1.1-1.1-1.65.12.14.47.4.86.32l.04-.02a.85.85 0 0 0 .16-.14c.16-.28.1-.83.04-1.13-.18-.37-.76-1.11-1.64-1.07-.87.04-1.2 1.14-1.27 1.7Z" fill="url(#eumbxpb30)"/><defs><linearGradient id="aumbxpb30" x1="14.67" y1="1.99" x2="2.76" y2="15.76" gradientUnits="userSpaceOnUse"><stop stop-color="#FCE49E"/><stop offset="1" stop-color="#F5B947"/></linearGradient><linearGradient id="bumbxpb30" x1="6.38" y1="10.81" x2="9.24" y2="13.79" gradientUnits="userSpaceOnUse"><stop stop-color="#943018"/><stop offset=".34" stop-color="#EBDE03"/><stop offset=".61" stop-color="#FFEA52"/><stop offset=".88" stop-color="#FFF7C2"/></linearGradient><linearGradient id="cumbxpb30" x1="8.33" y1="6.23" x2="8.33" y2="15" gradientUnits="userSpaceOnUse"><stop offset=".44" stop-color="#FFE909"/><stop offset=".58" stop-color="#C34326"/><stop offset=".93" stop-color="#C15D1F"/></linearGradient><linearGradient id="dumbxpb30" x1="9.91" y1="4.11" x2="11.7" y2="6.65" gradientUnits="userSpaceOnUse"><stop offset=".88" stop-color="#FDEA07"/><stop offset="1" stop-color="#C46515"/></linearGradient><linearGradient id="eumbxpb30" x1="8.05" y1="5.03" x2="10.08" y2="8.19" gradientUnits="userSpaceOnUse"><stop offset=".65" stop-color="#D15D2E"/><stop offset="1" stop-color="#693B24"/></linearGradient></defs></svg>