<!-- by TradingView --><svg width="18" height="18" viewBox="0 0 18 18" xmlns="http://www.w3.org/2000/svg"><path fill="url(#aziqrvdpa)" d="M0 0h18v18H0z"/><path d="M12.8 4.36a6.03 6.03 0 0 1 2.2 4.7l-.05.69A5.96 5.96 0 0 1 9.22 15a6.09 6.09 0 0 1-5.72-3.58 6.01 6.01 0 0 1 9.3-7.06Zm-9.07 4.7a5.35 5.35 0 0 0 5.32 5.21 5.34 5.34 0 0 0 5.22-5.2 5.34 5.34 0 0 0-5.24-5.35 5.34 5.34 0 0 0-5.3 5.34ZM9.69 6.2c.1.05.18.12.25.2.56.53 1.11 1.07 1.66 1.62h.01a1.69 1.69 0 0 1 .39.48h-.93l-.14-.15-.94-.92-.36-.35c-.28-.27-.49-.47-.86-.32-.08.03-.19.11-.3.23A501.21 501.21 0 0 1 6.9 8.49l-.12.01h-.76A.02.02 0 0 1 6 8.49a.02.02 0 0 1 0-.03l.19-.23c.55-.56 1.11-1.11 1.68-1.66.2-.21.37-.34.47-.4.42-.23.94-.22 1.35.02ZM6.88 9.5h-.86a.02.02 0 0 0-.02 0 .02.02 0 0 0 0 .03c.1.18.27.34.43.5l.02.01 1.36 1.34c.25.24.44.4.57.47.38.2.79.2 1.23.01.13-.07.23-.14.3-.2A967.54 967.54 0 0 0 11.8 9.8a1.21 1.21 0 0 0 .2-.28.02.02 0 0 0-.02-.02h-.86a.1.1 0 0 0-.07.03l-1.23 1.2a11 11 0 0 0-.07.08c-.15.16-.34.37-.5.44-.25.1-.5.04-.7-.15a64.6 64.6 0 0 1-.53-.53L6.95 9.53a.1.1 0 0 0-.07-.03Z" fill="#fff"/><defs><linearGradient id="aziqrvdpa" x1="0" y1="3.11" x2="13.66" y2="18" gradientUnits="userSpaceOnUse"><stop stop-color="#4A5DCD"/><stop offset=".11" stop-color="#4A53C4"/><stop offset=".47" stop-color="#3D065D"/><stop offset="1" stop-color="#C772AD"/></linearGradient></defs></svg>