<!-- by TradingView --><svg width="18" height="18" viewBox="0 0 18 18" xmlns="http://www.w3.org/2000/svg"><path fill="#03203B" d="M0 0h18v18H0z"/><path d="M8.03 5.45v.04H5.37c-.02 0-.03 0-.03.03-.01.98.62 1.81 1.5 2 .15.04.38.05.7.04h.7c.57.03 1.03.31 1.36.84a5.01 5.01 0 0 1 .3.6H7.25a2.37 2.37 0 0 1-.53-.04v.02c.4.23.62.36.68.41.4.35.58.8.56 1.36-.35-.61-.76-1.19-1.22-1.72l-.08-.1c-.48-.75-1-1.37-1.6-2.03A5.12 5.12 0 0 0 4.03 6L4 4.07a.07.07 0 0 1 .02-.05l.02-.01.02-.01h1.8c.4 0 .69.07.84.11.39.1.7.32.96.66.12.16.25.39.37.68Z" fill="url(#a)"/><path d="M7.87 5.3c.01.02 0 .04-.03.04H6.61l-.03-.02a4.44 4.44 0 0 1-.69-1.2c.64-.03 1.18.08 1.63.61.1.13.22.32.35.57Z" fill="url(#b)"/><path d="M14 8.66a8.13 8.13 0 0 0-.06.43l-.04-.63a3.1 3.1 0 0 0-.92-2.11 2.64 2.64 0 0 0-1.76-.76c-.49-.02-1.19-.02-2.1-.02-.22 0-.62-.01-.93.01-.02 0-.02.01-.02.03.07.51.32.86.75 1.05.15.07.31.1.5.1h1.52c.32 0 .6.04.86.16.58.3.9.8.96 1.5a4.8 4.8 0 0 1-.04.66h-.95l-.64-.02a.86.86 0 0 1-.4-.1h1.9s.02-.01.01-.03V8.5a1.6 1.6 0 0 0-1.08-1.54 2.19 2.19 0 0 0-.62-.06H9.45c-.77 0-1.33-.57-1.4-1.4v-.02h.02l.02-.01h.08l2.65-.01c.39 0 .67.02.86.06a2.96 2.96 0 0 1 2.26 2.45c.04.2.05.43.06.69Z" fill="#0F9E84"/><path d="M13.9 8.46v1.79a.04.04 0 0 1-.02.04h-1.32l-.04-.02c-.3-.36-.55-.76-.75-1.19h.95c.02 0 .03-.01.03-.03.01-.28.02-.49 0-.62-.05-.72-.37-1.22-.95-1.5a1.9 1.9 0 0 0-.86-.17H9.4c-.18 0-.34-.03-.49-.1-.43-.19-.68-.54-.75-1.05 0-.02 0-.03.02-.03.31-.02.71 0 .93 0h2.1c.66.03 1.28.3 1.76.77.56.54.86 1.24.92 2.1Z" fill="url(#c)"/><path d="M7.97 10.72c.1.87.53 1.46 1.27 1.77.19.08.46.11.68.09.4.44.69.9 1.03 1.38l-.01.03H9.67c-.11 0-.3 0-.42-.04a3.24 3.24 0 0 1-2.4-2.09c-.14-.38-.22-.8-.22-1.24V8.94c0-.02-.02-.04-.03-.04a3.34 3.34 0 0 1-2.58-2.95c.37.24.72.54 1.06.92A15.6 15.6 0 0 1 6.67 8.9l.08.1c.46.53.87 1.1 1.22 1.72Z" fill="#10BC89"/><path d="M14 8.66v1.73c0 .02-.01.04-.04.04h-2.62v.19L10 9.3v-.32c0-.02 0-.03.02-.03h.7c.13.07.27.1.4.11l.65.02a5.25 5.25 0 0 0 .8 1.2h1.32a.04.04 0 0 0 0-.03v-1.8l.05.64.02.01.04-.44Z" fill="#0D857E"/><path d="M11.33 10.62a327.75 327.75 0 0 1-.02 3.36.09.09 0 0 1-.05.02h-.4l.08-.01c.01 0 .02-.01 0-.03-.33-.48-.8-.93-1.2-1.37.05 0 .26-.02.26-.05V9.3l1.33 1.32Z" fill="url(#d)"/><defs><linearGradient id="a" x1="9.26" y1="7.19" x2="7.11" y2="9.4" gradientUnits="userSpaceOnUse"><stop stop-color="#0F9E84"/><stop offset="1" stop-color="#10BC89"/></linearGradient><linearGradient id="b" x1="7.73" y1="5.69" x2="6.94" y2="6.05" gradientUnits="userSpaceOnUse"><stop stop-color="#096771"/><stop offset="1" stop-color="#0FA284"/></linearGradient><linearGradient id="c" x1="11.91" y1="7.49" x2="11.55" y2="9.01" gradientUnits="userSpaceOnUse"><stop stop-color="#0A6872"/><stop offset="1" stop-color="#0D857E"/></linearGradient><linearGradient id="d" x1="11.41" y1="10.6" x2="10.27" y2="12.71" gradientUnits="userSpaceOnUse"><stop stop-color="#0D857E"/><stop offset="1" stop-color="#10BC89"/></linearGradient></defs></svg>