<!-- by TradingView --><svg width="18" height="18" viewBox="0 0 18 18" xmlns="http://www.w3.org/2000/svg"><path fill="#F0F3FA" d="M0 0h18v18H0z"/><path d="M9.39 3c1.37.08 2.57.56 3.58 1.44a6.15 6.15 0 0 1 .37 8.77A5.9 5.9 0 0 1 9.41 15h-.78a5.96 5.96 0 0 1-5.52-4.81 6.13 6.13 0 0 1 1.39-5.2A5.9 5.9 0 0 1 8.6 3h.79Z" fill="#6ACAE1"/><path d="m13.55 6.09-.4-.03c-.03 0-.05.01-.06.03a.15.15 0 0 1-.08.04l-.06-.01a.5.5 0 0 0-.14-.08c-.03-.01-.08-.01-.14 0a.4.4 0 0 1-.23 0l-.2-.13a.36.36 0 0 0-.31-.06.1.1 0 0 1-.07 0c-.1-.04-.2-.06-.28-.07a1.1 1.1 0 0 1-.29-.1l-.36-.14a.08.08 0 0 0-.1.01.38.38 0 0 1-.19.1l-.53.09c-.06-.2-.11-.34-.17-.45a1.05 1.05 0 0 0-.25-.32 2.62 2.62 0 0 0-.35-.24.88.88 0 0 0-.37-.15.7.7 0 0 0-.53.19c-.08.07-.17.2-.26.4-.2.4-.38.73-.53.97-.08.11-.23.29-.44.52-.05-.05-.1-.05-.15-.02a.21.21 0 0 1-.09.03c-.03 0-.1-.03-.2-.09a.98.98 0 0 0-.16-.07l-.36-.12-.36-.1a3.17 3.17 0 0 1-.46-.12.58.58 0 0 1-.18-.11A1 1 0 0 0 5.19 6a.08.08 0 0 0-.06-.02.45.45 0 0 0-.14.06.07.07 0 0 1-.06 0 .64.64 0 0 0-.4-.02 38.03 38.03 0 0 0 .22-.35A5.35 5.35 0 0 1 7.98 3.7c.3-.06.64-.08 1.05-.07.41.02.76.04 1.06.09a4.97 4.97 0 0 1 3.46 2.36Z" fill="#789DEF"/><path d="M10.11 5.74c.1.39.24.76.4 1.12l.21.34c.01.02.03.03.05.03.69.03 1.33.1 1.92.21a9.31 9.31 0 0 0 1.18.19c.04.03.08.07.1.12.18.46.12.84-.16 1.15l-.25.2a51.5 51.5 0 0 1-.88.48c-.4.19-.8.27-1.22.26-.07 0-.1.03-.06.1l.54.94c.05.08.11.27.2.56l.02.31c0 .04 0 .08-.03.1a.15.15 0 0 1-.1.07c-.7.1-1.4.16-2.11.19a16.38 16.38 0 0 0-.59.05c-.75 0-1.26-.02-1.55-.05a2.03 2.03 0 0 1-.43-.07 5.4 5.4 0 0 0-1.15-.32.06.06 0 0 1-.05-.04c-.02-.05-.01-.11.03-.18a10 10 0 0 1 .23-.39c.06-.1.11-.23.16-.42l.14-.52.04-.17c0-.02 0-.04-.02-.06a.72.72 0 0 1-.19-.46c0-.05-.02-.07-.06-.08a2.34 2.34 0 0 1-1.09-.38 4.04 4.04 0 0 1-.55-.34 2.5 2.5 0 0 0-.35-.25 4.13 4.13 0 0 1-.38-.28c-.12-.1-.25-.19-.38-.26a1.3 1.3 0 0 1-.1-.67c0-.12.07-.19.18-.2l.22-.05a58.58 58.58 0 0 1 1.26-.1 11.18 11.18 0 0 1 1.6.13c.02 0 .04 0 .05-.02l.27-.32c.21-.23.36-.4.44-.52.15-.24.33-.56.53-.98.09-.18.18-.32.26-.4a.7.7 0 0 1 .53-.18c.1 0 .22.06.37.15l.35.24c.1.09.19.2.25.32.06.1.11.25.17.45Z" fill="#010201"/><path d="m7.97 5.78.4-.73c.14-.28.37-.4.67-.35a.8.8 0 0 1 .27.13l.1.06c.12.07.2.12.24.17.13.13.23.29.28.47.12.37.24.75.38 1.12a2.83 2.83 0 0 0 .27.52v.04l-.03.02a9.5 9.5 0 0 1-1.68-.04A29.72 29.72 0 0 0 7.05 7v-.03l.5-.57a4 4 0 0 0 .42-.63Z" fill="red"/><path d="m13.55 6.09.25.38c.09.13.14.24.17.33l.14.34a.1.1 0 0 1 0 .06c-.01.11 0 .22.06.32l.11.21a4.54 4.54 0 0 1 .13 1.22l-.04.01c-.02 0-.02.02 0 .03h.02l-.58-.1c.28-.3.34-.68.16-1.14a.26.26 0 0 0-.1-.12 13.67 13.67 0 0 0-3.1-.4.06.06 0 0 1-.05-.03 3.1 3.1 0 0 1-.2-.34c-.17-.36-.3-.73-.4-1.12l.52-.1a.38.38 0 0 0 .2-.09.08.08 0 0 1 .1-.01c.14.06.26.1.35.15.12.05.22.08.29.09.09 0 .18.03.28.07a.1.1 0 0 0 .07 0 .36.36 0 0 1 .32.06c.1.08.17.12.19.12a.4.4 0 0 0 .23.01c.06-.01.1-.01.14 0 .05.02.1.04.14.08l.06.01c.03 0 .05-.02.08-.04a.07.07 0 0 1 .06-.03l.4.03Z" fill="#D0DBF2"/><path d="m7.21 6.66-.27.32A.06.06 0 0 1 6.9 7l-.18-.02A11.18 11.18 0 0 0 4.7 6.9l-.66.07a6 6 0 0 0 .04-.13 1.2 1.2 0 0 1 .27-.53c.04-.1.1-.2.19-.28a.64.64 0 0 1 .4.02h.06l.14-.06c.02 0 .04 0 .06.02a1 1 0 0 1 .06.05c.07.06.13.1.18.11.19.07.34.1.46.13.14.02.27.06.36.1l.36.1.16.08c.1.06.17.09.2.09l.1-.03c.04-.03.1-.03.14.02Z" fill="#B6C7F0"/><path d="m13.3 9.16.08-.5c.03-.26-.1-.45-.38-.57-.3-.12-.52-.2-.69-.25-.25-.07-.5-.1-.76-.1a37.64 37.64 0 0 1-2.97-.04h-.12a7.64 7.64 0 0 1-1.63-.1 12.8 12.8 0 0 0-1-.15c-.2-.01-.4-.02-.64-.01-.61.02-1.06.02-1.35.02-.1 0-.15-.04-.13-.11v-.1c0-.08.03-.13.12-.15.58-.1 1.2-.14 1.83-.13.27 0 .6.04.97.1.36.06.68.1.98.1.27.01.62.04 1.05.09.63.07 1 .1 1.1.1l1.05-.03c.29 0 .68.03 1.18.1l1.36.23.4.02a.1.1 0 0 1 .06.02c.08.07.13.2.15.38.01.15 0 .29-.02.42-.01.1-.07.2-.17.29l-.1.1c-.17.17-.3.26-.36.28l-.01-.01Z" fill="#30D71F"/><path d="m6.22 9 .2-.01c.03 0 .05.01.06.04l.04.23c0 .03 0 .05-.05.05a2.3 2.3 0 0 1-1.11-.41c-.14-.08-.33-.2-.59-.39l-.36-.25c-.08-.05-.2-.14-.35-.27l-.25-.2c-.05-.03-.08-.1-.08-.2 0-.03.02-.04.04-.04.26 0 .73 0 1.4-.02.38 0 .7 0 .99.05.3.04.7.1 1.17.2.02 0 .03.01.03.04l-.3 1.02c0 .02-.02.03-.04.03l-.79.02c-.03 0-.04.02-.04.04v.04c0 .01.01.02.03.02Z" fill="#FFFCBB"/><path d="m8.18 8.85-1 .03c-.02 0-.03-.01-.02-.04l.29-1c0-.02.02-.03.04-.03h2.65c.03 0 .06.01.07.04l.48.95c.01.02 0 .03-.02.03l-.22-.02a24.72 24.72 0 0 0-.48 0c-.5.02-.88.01-1.12-.04-.08-.02-.15-.02-.19 0-.04.03-.07.08-.09.16 0 .02-.02.03-.04.03-.13.02-.22 0-.3-.08a.07.07 0 0 0-.05-.03Z" fill="#FFC85A"/><path d="M11.07 8.84h-.22c-.02 0-.04 0-.05-.02l-.48-.95c0-.02 0-.03.02-.03l1.07-.01a3.63 3.63 0 0 1 1.06.16l.54.2c.1.04.18.1.23.18.08.1.06.37-.04.79l-.04.04c-.58.38-1.18.56-1.81.55a.09.09 0 0 1-.09-.05l-.36-.72c0-.02 0-.03.02-.03h.16c.03 0 .04 0 .04-.03v-.03c0-.03-.02-.05-.05-.05Z" fill="#FFFCBB"/><path d="M3.73 7.89c.13.07.26.16.38.26.2.15.32.25.38.28.11.06.23.15.35.25a4.04 4.04 0 0 0 .66.4 2.34 2.34 0 0 0 .98.32c.04.01.06.03.06.08.01.18.07.33.2.46V10l-.03.17a2.43 2.43 0 0 0-.58-.15c-.39-.04-.74-.1-1.05-.21a3.3 3.3 0 0 0-.66-.16A3.17 3.17 0 0 1 4 9.57c-.13-.04-.26-.1-.38-.2-.04-.48 0-.97.1-1.48Z" fill="#3C5221"/><path d="M10.11 8.92c-.04.04-.04.1.02.19.02.02.03.02.04 0a.18.18 0 0 0 .03-.18.4.4 0 0 1 .15-.03c.02 0 .04.01.03.04 0 .1 0 .22-.02.37a.58.58 0 0 1-.13.35.65.65 0 0 1-.48.23c-.14 0-.33-.03-.56-.11-.08-.03-.15-.1-.22-.2a5.2 5.2 0 0 0-.23-.33.62.62 0 0 1-.07-.17l-.02-.06c-.02-.05 0-.1.03-.13a.12.12 0 0 1 .12-.04c.16.04.34.07.53.07a9.08 9.08 0 0 0 .74-.01l.04.01Z" fill="#736966"/><path d="m13.81 8.9.58.1c.03.02.05.05.05.1-.03.93-.27 1.8-.74 2.61l-1.57-.27a2.96 2.96 0 0 0-.19-.56 74.7 74.7 0 0 1-.54-.95c-.03-.06-.01-.1.06-.09.42.01.83-.07 1.21-.26l.61-.3c.1-.05.19-.11.28-.18l.25-.2Z" fill="#3C5221"/><path d="M10.2 8.93c.02.07.01.12-.03.18 0 .02-.02.02-.04 0-.06-.09-.06-.15-.02-.19l.1.01Z" fill="#FFFCBB"/><path d="M6.65 9.22c.08.04.13.03.15-.03.02-.05 0-.09-.04-.1-.02-.02-.05-.02-.09 0a.13.13 0 0 1 .05-.03c.05-.02.05-.03 0-.03a.24.24 0 0 0-.1.03c-.02.02-.03.01-.04 0-.02-.02-.02-.04-.01-.06L6.59 9l1.53-.04c.02 0 .04 0 .05.02.04.05.06.12.04.2-.05.3-.18.55-.39.71-.16.13-.48.14-.95.04a.11.11 0 0 1-.05-.04.68.68 0 0 1-.17-.66Z" fill="#736966"/><path d="m8.51 10.1-.49.15-.03-.01v-.04c.14-.23.25-.5.32-.84a.78.78 0 0 0 0-.27c0-.02 0-.03.03-.03h.17c.03 0 .05 0 .06.03l.02.06c.03.09.06.14.09.17l.23.33c.05.1.12.17.2.2.26.1.47.14.63.14a.73.73 0 0 0 .7-.58 2.38 2.38 0 0 0 .04-.45c0-.02.02-.04.04-.03l.2.02c.03 0 .05.01.06.04l.2.31.17.32c.13.28.31.62.55 1.03.12.21.2.38.25.51.07.2.1.38.12.58 0 .06-.03.09-.08.1l-.9.09a85.53 85.53 0 0 0-2.08.12c-.36 0-.7 0-1.03-.02a3.17 3.17 0 0 1-.85-.17 5.33 5.33 0 0 0-.88-.25v-.05l.14-.25a1.87 1.87 0 0 0 .3-.75c.02-.04.03-.04.05 0 .07.13.16.22.26.27a1.24 1.24 0 0 0 .41.08c.17.01.31 0 .42-.04.02-.01.03 0 .02.02 0 .12 0 .26.04.4.03.1.1.19.2.23.2.07.37.06.52-.03.17-.1.31-.23.41-.37l.21-.26a.06.06 0 0 0 .02-.04c0-.05-.04-.07-.1-.06-.25.03-.52.09-.83.16a.58.58 0 0 1-.32 0c-.1-.03-.1-.07-.01-.13.15-.08.3-.2.41-.34.02-.02.03-.02.04 0 .08.13.2.21.32.24a1.76 1.76 0 0 0 .45.03c.32-.02.6-.13.81-.33.16-.15.13-.2-.08-.16-.4.08-.8.06-1.24-.05a.29.29 0 0 1-.14-.08.05.05 0 0 0-.05 0Z" fill="#FFC85A"/><path d="M6.65 9.22c-.03-.07-.02-.11.02-.13.04-.02.07-.02.09 0 .04.01.06.05.04.1-.02.06-.07.07-.15.03Z" fill="#FFFCBB"/><path d="M9.72 9.48a.08.08 0 0 0-.07-.01l-.36.07c-.03 0-.05-.01-.06-.04v-.02c0-.02 0-.04.02-.04l.57-.1c.03-.01.04 0 .04.02l.01.1v.01c-.03.07-.07.07-.15.01Z" fill="#010201"/><path d="m6.71 10.17-.14.52c-.05.19-.1.33-.16.42a10 10 0 0 0-.23.39c-.04.07-.05.13-.03.18.01.03.03.04.05.04.4.07.79.17 1.16.32.06.03.2.05.43.07a19.53 19.53 0 0 0 1.84.03l.29-.03.43.4c.06.06.05.1-.03.1-.13 0-.26-.02-.38-.04-.47-.07-.89-.12-1.24-.14-.02 0-.04.01-.05.04v.03c0 .03 0 .04.03.05.25.13.44.2.56.19h.12c.2-.02.34 0 .44.01.07.02.17.04.3.05.16.02.28.03.36.06l.66.13c.07.02.1.06.1.12v.03c0 .06-.02.1-.09.09-.4-.02-.82-.03-1.25-.03-.1 0-.25-.01-.45-.04a3.6 3.6 0 0 0-.43-.04l-.96-.03c-.06 0-.15 0-.29.02-.05 0-.05.02 0 .04.23.13.49.2.76.2l.65.02c.02 0 .03.01.03.04 0 .06.05.1.14.1h.8c.13 0 .38-.01.77-.05.36-.03.74-.02 1.11.04-.8.53-1.67.82-2.61.87-.42.02-.85 0-1.29-.06a4.58 4.58 0 0 1-1.23-.35 5.37 5.37 0 0 1-3.26-4.59c.12.1.25.16.39.2a3.17 3.17 0 0 0 .58.11c.15.03.31.07.5.13.3.1.65.17 1.04.2.14.02.33.07.58.16Z" fill="#678824"/><path d="m7.6 9.6-.37.07c-.03.01-.05 0-.05-.03V9.6c-.01-.02 0-.03.02-.03l.58-.11c.02 0 .04 0 .04.03v.11c-.02.06-.07.07-.14.01a.09.09 0 0 0-.08-.02Z" fill="#010201"/><path d="M7.77 10.29c.02.02.03.03.06.03s.03.02 0 .04c-.23.14-.48.2-.76.17a.43.43 0 0 1-.28-.12.06.06 0 0 1-.02-.06l.07-.3c0-.02.02-.03.04-.02l.42.05a.8.8 0 0 0 .75-.27c.03-.03.04-.03.03.02a.63.63 0 0 1-.12.22.72.72 0 0 1-.17.18c-.03.01-.03.04-.02.06Z" fill="#FFC85A"/><path d="M9.93 10.35c-.26.23-.63.32-1.12.26a.3.3 0 0 1-.23-.14l-.12-.17c-.05-.09-.03-.12.06-.08.46.16.93.2 1.4.1.02 0 .03 0 0 .03ZM8.36 10.32a.96.96 0 0 1-1 .5.81.81 0 0 1-.39-.12c-.1-.07-.08-.1.04-.08.22.04.45 0 .68-.1.03 0 .09-.03.16-.07.2-.1.37-.16.48-.17l.03.01v.03Z" fill="#30D71F"/><path d="M8.88 11.12a.43.43 0 0 0-.18 0c-.03.02-.05 0-.05-.02l-.02-.1c0-.04 0-.05.03-.06l.44-.08-.2.25c0 .01-.01.02-.02.01ZM8.5 10.98l-.07.01a.04.04 0 0 0-.03.04v.1c0 .01.03.03.05.02h.07c.02 0 .04-.03.03-.05v-.09a.04.04 0 0 0-.05-.03Z" fill="#fff"/><path d="M7.96 11.12c.03.04.07.05.1.03.02-.02.02-.06 0-.1-.03-.04-.07-.05-.1-.04-.02.02-.03.07 0 .1Z" fill="#FFC85A"/><path d="M8.28 11.15a.17.17 0 0 1-.08 0c-.03 0-.04-.01-.04-.04.01-.05.04-.08.09-.08.03 0 .04 0 .05.03v.04c.01.02 0 .04-.02.05ZM9.57 11.21l.02.02v.03l-.1.1c-.01.02-.02.02-.04 0l-.11-.12c-.02 0-.02-.02 0-.04l.13-.13c.02-.02.03-.02.04 0l.02.08c0 .02.02.04.04.06ZM8.79 11.24l-.1.08c-.01.03-.03.02-.04 0-.02-.04-.01-.06.02-.08a.28.28 0 0 1 .1-.03c.03 0 .04 0 .02.03Z" fill="#FFFCBB"/><path d="M7.98 11.28c0-.02 0-.03.02-.04h.04c.03.02.03.05.02.1-.02.02-.03.03-.05 0a.08.08 0 0 1-.03-.06Z" fill="#FFC85A"/><path d="M8.29 11.25h-.1c-.02 0-.03 0-.03.02l-.02.16c0 .01.01.02.03.02l.1.01c.02 0 .03 0 .03-.02l.01-.16c0-.01 0-.03-.02-.03ZM8.4 11.25l.02-.01h.03c.08 0 .11.03.11.1v.04c0 .06-.04.09-.12.09h-.03l-.01-.02v-.2Z" fill="#fff"/><path d="M13.7 11.71a5.2 5.2 0 0 1-1.69 1.79 5.03 5.03 0 0 0-1.12-.04 11.57 11.57 0 0 1-1.56.05c-.09 0-.14-.04-.14-.1 0-.03-.01-.04-.03-.04l-.65-.02c-.27 0-.53-.07-.77-.2-.04-.02-.04-.03.01-.04.14-.02.23-.03.29-.02l.96.03c.1 0 .24.01.43.04.2.03.35.04.45.04.43 0 .84 0 1.25.03.07 0 .1-.03.1-.1v-.02c0-.06-.04-.1-.1-.12l-.67-.13c-.08-.03-.2-.04-.36-.06a2.4 2.4 0 0 1-.3-.05c-.1-.02-.24-.03-.44-.02h-.13c-.11.01-.3-.05-.55-.18-.03 0-.04-.03-.03-.05v-.03c.01-.03.03-.04.05-.04.35.02.77.07 1.24.14.12.02.25.03.38.03.08 0 .1-.03.03-.09l-.43-.4c.71-.03 1.41-.1 2.11-.2.04 0 .07-.02.1-.05a.15.15 0 0 0 .03-.1l-.03-.32 1.57.27Z" fill="#577522"/></svg>