<!-- by TradingView --><svg width="18" height="18" viewBox="0 0 18 18" xmlns="http://www.w3.org/2000/svg"><path fill="#181B1E" d="M0 0h18v18H0z"/><path d="M4 10v.68C4 11.96 5.11 13 6.48 13H9.5V9.68C9.5 8.75 8.84 8 7.85 8H6l.5 1h.45c.9 0 1.64.68 1.64 1.51v.02C8.59 11.34 7.88 12 7 12c-.88 0-1.59-.66-1.59-1.47V10H4Z" fill="url(#a)"/><path d="M10 5H4v1h4.2L5.59 8.17 6.5 9 10 6V5Z" fill="url(#b)"/><path d="M10.5 5h-1v2.82L8 13h6l-1.5-5.18V5h-1v2.82l.99 4.18H9.51l.99-4.18V5Z" fill="#fff"/><path d="M11.88 11.67H10l.34-1.23c.04.06.16.19.31.19.2 0 .33-.3.54-.3.16 0 .3.07.34.1l.35 1.24Z" fill="url(#c)"/><defs><linearGradient id="a" x1="8.87" y1="9.34" x2="4.9" y2="10.65" gradientUnits="userSpaceOnUse"><stop stop-color="#6C105F"/><stop offset=".47" stop-color="#911B38"/><stop offset="1" stop-color="#FDF205"/></linearGradient><linearGradient id="b" x1="4" y1="5" x2="4" y2="9" gradientUnits="userSpaceOnUse"><stop stop-color="#0190C5"/><stop offset=".77" stop-color="#7F154C"/></linearGradient><linearGradient id="c" x1="10.93" y1="10.33" x2="11.88" y2="11.51" gradientUnits="userSpaceOnUse"><stop stop-color="#0091D7"/><stop offset=".3" stop-color="#4F317A"/><stop offset=".56" stop-color="#7E5F54"/><stop offset="1" stop-color="#F3BE1C"/></linearGradient></defs></svg>