<!-- by TradingView --><svg width="18" height="18" viewBox="0 0 18 18" xmlns="http://www.w3.org/2000/svg"><path fill="#F0F3FA" d="M0 0h18v18H0z"/><path d="M12.94 6.24c0-.68-.64-1.24-1.43-1.24-.79 0-1.43.55-1.44 1.23 0 .69.64 1.24 1.44 1.24.79 0 1.43-.55 1.43-1.23Zm-2.04 2.6c.12-.02.25-.03.38-.03 1.5 0 2.72 1.05 2.72 2.35 0 1.29-1.22 2.34-2.72 2.34-.49 0-.95-.12-1.35-.31-1.09-.54-2.48-.1-2.91.92-.21.52-.79.89-1.46.89C4.7 15 4 14.4 4 13.66c0-.74.7-1.34 1.55-1.34.16 0 .3.02.44.06 1.21.3 2.45-.4 2.6-1.49.13-1.09-.9-2.03-2.17-1.96h-.14C5.02 8.93 4 8.05 4 6.97 4 5.88 5.02 5 6.28 5c1.26 0 2.28.88 2.28 1.97v.06C8.52 8.13 9.64 9 10.9 8.83Z" fill="url(#a)"/><defs><linearGradient id="a" x1="4" y1="10" x2="14" y2="10" gradientUnits="userSpaceOnUse"><stop stop-color="#4E55FF"/><stop offset=".51" stop-color="#FF3773"/><stop offset=".98" stop-color="#FF5C00"/></linearGradient></defs></svg>