<!-- by TradingView --><svg xmlns="http://www.w3.org/2000/svg" width="18" height="18" viewBox="0 0 18 18" fill="none"><path fill="#F0F3FA" d="M0 0h18v18H0z"/><path d="M6.32 9.8a2.36 2.36 0 0 0 2.31-2.4C8.63 6.07 7.6 5 6.32 5A2.36 2.36 0 0 0 4 7.4c0 1.33 1.04 2.4 2.32 2.4z" fill="#FF0F53"/><path d="M6.33 9.81a2.36 2.36 0 0 0 2.32-2.4c0-1.32-1.04-2.4-2.32-2.4a2.36 2.36 0 0 0-2.32 2.4c0 1.33 1.04 2.4 2.32 2.4z" fill="#FF1053"/><path d="M6.35 9.83a2.36 2.36 0 0 0 2.31-2.4c0-1.33-1.04-2.4-2.31-2.4a2.36 2.36 0 0 0-2.32 2.4c0 1.33 1.04 2.4 2.32 2.4z" fill="#FF1152"/><path d="M6.39 9.9A2.36 2.36 0 0 0 8.7 7.5c0-1.32-1.03-2.4-2.31-2.4a2.36 2.36 0 0 0-2.32 2.4c0 1.33 1.04 2.4 2.32 2.4z" fill="#FF1451"/><path d="M6.53 10.13a2.36 2.36 0 0 0 2.32-2.4c0-1.33-1.04-2.4-2.32-2.4a2.36 2.36 0 0 0-2.31 2.4c0 1.33 1.03 2.4 2.31 2.4z" fill="#FF1F4C"/><path d="M6.65 10.31a2.36 2.36 0 0 0 2.31-2.4c0-1.33-1.03-2.4-2.31-2.4a2.36 2.36 0 0 0-2.32 2.4c0 1.33 1.04 2.4 2.32 2.4z" fill="#FF2849"/><path d="M6.7 10.37A2.36 2.36 0 0 0 9 7.97c0-1.33-1.03-2.4-2.3-2.4a2.36 2.36 0 0 0-2.32 2.4c0 1.32 1.03 2.4 2.31 2.4z" fill="#FF2B48"/><path d="M6.7 10.4A2.36 2.36 0 0 0 9.03 8c0-1.33-1.03-2.4-2.31-2.4A2.36 2.36 0 0 0 4.39 8c0 1.33 1.04 2.4 2.32 2.4z" fill="#FF2C47"/><path d="M6.7 10.41a2.36 2.36 0 0 0 2.32-2.4c0-1.32-1.03-2.4-2.31-2.4a2.36 2.36 0 0 0-2.32 2.4c0 1.33 1.04 2.4 2.32 2.4z" fill="#FF2D47"/><path d="M6.72 10.44a2.36 2.36 0 0 0 2.32-2.4c0-1.32-1.04-2.4-2.32-2.4a2.36 2.36 0 0 0-2.31 2.4c0 1.33 1.03 2.4 2.31 2.4z" fill="#FF2E46"/><path d="M6.74 10.46a2.36 2.36 0 0 0 2.31-2.4c0-1.33-1.04-2.4-2.31-2.4a2.36 2.36 0 0 0-2.32 2.4c0 1.33 1.04 2.4 2.32 2.4z" fill="#FF2F46"/><path d="M6.75 10.47a2.36 2.36 0 0 0 2.32-2.4c0-1.32-1.04-2.4-2.32-2.4a2.36 2.36 0 0 0-2.32 2.4c0 1.33 1.04 2.4 2.32 2.4z" fill="#FF3046"/><path d="M6.78 10.52a2.36 2.36 0 0 0 2.31-2.4c0-1.33-1.03-2.4-2.31-2.4a2.36 2.36 0 0 0-2.32 2.4c0 1.33 1.04 2.4 2.32 2.4z" fill="#FF3245"/><path d="M6.8 10.54a2.36 2.36 0 0 0 2.3-2.4c0-1.33-1.03-2.4-2.3-2.4a2.36 2.36 0 0 0-2.32 2.4c0 1.32 1.03 2.4 2.31 2.4z" fill="#F34"/><path d="M6.95 10.79a2.36 2.36 0 0 0 2.32-2.4c0-1.33-1.04-2.4-2.32-2.4a2.36 2.36 0 0 0-2.31 2.4c0 1.33 1.03 2.4 2.31 2.4z" fill="#FF3F3F"/><path d="M6.97 10.8a2.36 2.36 0 0 0 2.31-2.4C9.28 7.09 8.25 6 6.97 6a2.36 2.36 0 0 0-2.32 2.4c0 1.33 1.04 2.4 2.32 2.4z" fill="#FF403F"/><path d="M6.98 10.83a2.36 2.36 0 0 0 2.32-2.4c0-1.32-1.04-2.4-2.32-2.4a2.36 2.36 0 0 0-2.31 2.4c0 1.33 1.03 2.4 2.31 2.4z" fill="#FF413F"/><path d="M7 10.85a2.36 2.36 0 0 0 2.31-2.4c0-1.33-1.04-2.4-2.31-2.4a2.36 2.36 0 0 0-2.32 2.4c0 1.33 1.04 2.4 2.32 2.4z" fill="#FF423E"/><path d="M7 10.88a2.36 2.36 0 0 0 2.31-2.4c0-1.33-1.04-2.4-2.31-2.4a2.36 2.36 0 0 0-2.32 2.4c0 1.33 1.04 2.4 2.32 2.4z" fill="#FF433E"/><path d="M7.01 10.9a2.36 2.36 0 0 0 2.32-2.4c0-1.33-1.04-2.4-2.32-2.4a2.36 2.36 0 0 0-2.32 2.4c0 1.32 1.04 2.4 2.32 2.4z" fill="#FF443D"/><path d="M7.02 10.9a2.36 2.36 0 0 0 2.32-2.39c0-1.33-1.04-2.4-2.32-2.4a2.36 2.36 0 0 0-2.31 2.4c0 1.32 1.04 2.4 2.31 2.4z" fill="#FF453D"/><path d="M7.04 10.94a2.36 2.36 0 0 0 2.31-2.4c0-1.33-1.03-2.4-2.31-2.4a2.36 2.36 0 0 0-2.32 2.4c0 1.33 1.04 2.4 2.32 2.4z" fill="#FF463D"/><path d="M7.07 10.97a2.36 2.36 0 0 0 2.31-2.4c0-1.33-1.03-2.4-2.31-2.4a2.36 2.36 0 0 0-2.32 2.4c0 1.33 1.04 2.4 2.32 2.4z" fill="#FF483C"/><path d="M7.1 11.01a2.36 2.36 0 0 0 2.31-2.4c0-1.32-1.03-2.4-2.31-2.4a2.36 2.36 0 0 0-2.32 2.4c0 1.33 1.04 2.4 2.32 2.4z" fill="#FF4A3B"/><path d="M7.11 11.04a2.36 2.36 0 0 0 2.32-2.4c0-1.32-1.04-2.4-2.32-2.4a2.36 2.36 0 0 0-2.31 2.4c0 1.33 1.03 2.4 2.31 2.4z" fill="#FF4B3A"/><path d="M7.15 11.12a2.36 2.36 0 0 0 2.32-2.4c0-1.33-1.04-2.4-2.32-2.4a2.36 2.36 0 0 0-2.31 2.4c0 1.33 1.04 2.4 2.31 2.4z" fill="#FF4F39"/><path d="M7.17 11.15a2.36 2.36 0 0 0 2.31-2.4c0-1.33-1.03-2.4-2.31-2.4a2.36 2.36 0 0 0-2.32 2.4c0 1.33 1.04 2.4 2.32 2.4z" fill="#FF5038"/><path d="M7.24 11.24a2.36 2.36 0 0 0 2.32-2.4c0-1.33-1.04-2.4-2.32-2.4a2.36 2.36 0 0 0-2.31 2.4c0 1.33 1.03 2.4 2.31 2.4z" fill="#FF5536"/><path d="M7.26 11.27a2.36 2.36 0 0 0 2.31-2.4c0-1.33-1.04-2.4-2.31-2.4a2.36 2.36 0 0 0-2.32 2.4c0 1.33 1.04 2.4 2.32 2.4z" fill="#FF5636"/><path d="M7.27 11.28a2.36 2.36 0 0 0 2.32-2.4c0-1.32-1.04-2.4-2.32-2.4a2.36 2.36 0 0 0-2.31 2.4c0 1.33 1.03 2.4 2.31 2.4z" fill="#FF5736"/><path d="M7.29 11.31a2.36 2.36 0 0 0 2.31-2.4c0-1.32-1.04-2.4-2.31-2.4a2.36 2.36 0 0 0-2.32 2.4c0 1.33 1.04 2.4 2.32 2.4z" fill="#FF5835"/><path d="M7.3 11.33a2.36 2.36 0 0 0 2.32-2.4c0-1.33-1.04-2.4-2.32-2.4a2.36 2.36 0 0 0-2.32 2.4c0 1.33 1.04 2.4 2.32 2.4z" fill="#FF5935"/><path d="M7.3 11.34a2.36 2.36 0 0 0 2.32-2.4c0-1.32-1.04-2.4-2.32-2.4a2.36 2.36 0 0 0-2.32 2.4c0 1.33 1.04 2.4 2.32 2.4z" fill="#FF5A34"/><path d="M7.36 11.43a2.36 2.36 0 0 0 2.31-2.4c0-1.32-1.03-2.4-2.31-2.4a2.36 2.36 0 0 0-2.32 2.4c0 1.33 1.04 2.4 2.32 2.4z" fill="#FF5E33"/><path d="M7.37 11.45a2.36 2.36 0 0 0 2.32-2.4c0-1.33-1.04-2.4-2.32-2.4a2.36 2.36 0 0 0-2.31 2.4c0 1.33 1.03 2.4 2.31 2.4z" fill="#FF5F32"/><path d="M7.39 11.48a2.36 2.36 0 0 0 2.31-2.4c0-1.33-1.03-2.4-2.31-2.4a2.36 2.36 0 0 0-2.32 2.4c0 1.33 1.04 2.4 2.32 2.4z" fill="#FF6032"/><path d="M7.4 11.5a2.36 2.36 0 0 0 2.32-2.4c0-1.33-1.04-2.4-2.32-2.4A2.36 2.36 0 0 0 5.1 9.1c0 1.32 1.03 2.4 2.31 2.4z" fill="#FF6131"/><path d="M7.46 11.6a2.36 2.36 0 0 0 2.31-2.4c0-1.33-1.03-2.4-2.31-2.4a2.36 2.36 0 0 0-2.32 2.4c0 1.33 1.04 2.4 2.32 2.4z" fill="#FF662F"/><path d="M7.47 11.61a2.36 2.36 0 0 0 2.32-2.4c0-1.32-1.04-2.4-2.32-2.4a2.36 2.36 0 0 0-2.31 2.4c0 1.33 1.03 2.4 2.31 2.4z" fill="#FF672F"/><path d="M7.49 11.64a2.36 2.36 0 0 0 2.31-2.4c0-1.32-1.03-2.4-2.31-2.4a2.36 2.36 0 0 0-2.32 2.4c0 1.33 1.04 2.4 2.32 2.4z" fill="#FF682F"/><path d="M7.5 11.66a2.36 2.36 0 0 0 2.32-2.4c0-1.33-1.04-2.4-2.32-2.4a2.36 2.36 0 0 0-2.31 2.4c0 1.33 1.03 2.4 2.31 2.4z" fill="#FF692E"/><path d="M7.52 11.67a2.36 2.36 0 0 0 2.31-2.4c0-1.32-1.03-2.4-2.31-2.4a2.36 2.36 0 0 0-2.32 2.4c0 1.33 1.04 2.4 2.32 2.4z" fill="#FF6A2E"/><path d="M7.53 11.7a2.36 2.36 0 0 0 2.32-2.4c0-1.32-1.04-2.4-2.32-2.4a2.36 2.36 0 0 0-2.31 2.4c0 1.33 1.03 2.4 2.31 2.4z" fill="#FF6B2D"/><path d="M7.55 11.72a2.36 2.36 0 0 0 2.31-2.4c0-1.33-1.04-2.4-2.31-2.4a2.36 2.36 0 0 0-2.32 2.4c0 1.32 1.04 2.4 2.32 2.4z" fill="#FF6C2D"/><path d="M7.56 11.75a2.36 2.36 0 0 0 2.32-2.4c0-1.33-1.04-2.4-2.32-2.4a2.36 2.36 0 0 0-2.32 2.4c0 1.33 1.04 2.4 2.32 2.4z" fill="#FF6D2D"/><path d="M7.57 11.77a2.36 2.36 0 0 0 2.32-2.4c0-1.33-1.04-2.4-2.32-2.4a2.36 2.36 0 0 0-2.31 2.4c0 1.32 1.04 2.4 2.31 2.4z" fill="#FF6E2C"/><path d="M7.59 11.78a2.36 2.36 0 0 0 2.31-2.4c0-1.33-1.03-2.4-2.31-2.4a2.36 2.36 0 0 0-2.32 2.4c0 1.33 1.04 2.4 2.32 2.4z" fill="#FF6F2C"/><path d="M7.6 11.81a2.36 2.36 0 0 0 2.32-2.4c0-1.33-1.04-2.4-2.32-2.4a2.36 2.36 0 0 0-2.31 2.4c0 1.33 1.03 2.4 2.31 2.4z" fill="#FF702B"/><path d="M7.6 11.82a2.36 2.36 0 0 0 2.32-2.4c0-1.32-1.04-2.4-2.32-2.4a2.36 2.36 0 0 0-2.31 2.4c0 1.33 1.03 2.4 2.31 2.4z" fill="#FF712B"/><path d="M7.63 11.87a2.36 2.36 0 0 0 2.32-2.4c0-1.33-1.04-2.4-2.32-2.4a2.36 2.36 0 0 0-2.31 2.4c0 1.33 1.03 2.4 2.31 2.4z" fill="#FF732A"/><path d="M7.65 11.88a2.36 2.36 0 0 0 2.31-2.4c0-1.32-1.03-2.4-2.31-2.4a2.36 2.36 0 0 0-2.32 2.4c0 1.33 1.04 2.4 2.32 2.4z" fill="#FF742A"/><path d="M7.66 11.91a2.36 2.36 0 0 0 2.32-2.4c0-1.32-1.04-2.4-2.32-2.4a2.36 2.36 0 0 0-2.31 2.4c0 1.33 1.03 2.4 2.31 2.4z" fill="#FF7529"/><path d="M7.68 11.93a2.36 2.36 0 0 0 2.31-2.4c0-1.33-1.04-2.4-2.31-2.4a2.36 2.36 0 0 0-2.32 2.4c0 1.33 1.04 2.4 2.32 2.4z" fill="#FF7629"/><path d="M7.69 11.94a2.36 2.36 0 0 0 2.32-2.4c0-1.32-1.04-2.4-2.32-2.4a2.36 2.36 0 0 0-2.32 2.4c0 1.33 1.04 2.4 2.32 2.4z" fill="#FF7728"/><path d="M7.73 12.02a2.36 2.36 0 0 0 2.32-2.4c0-1.33-1.04-2.4-2.32-2.4a2.36 2.36 0 0 0-2.31 2.4c0 1.33 1.03 2.4 2.31 2.4z" fill="#FF7A27"/><path d="M7.76 12.05a2.36 2.36 0 0 0 2.32-2.4c0-1.33-1.04-2.4-2.32-2.4a2.36 2.36 0 0 0-2.31 2.4c0 1.33 1.03 2.4 2.31 2.4z" fill="#FF7C26"/><path d="M7.76 12.08a2.36 2.36 0 0 0 2.32-2.4c0-1.33-1.04-2.4-2.32-2.4a2.36 2.36 0 0 0-2.31 2.4c0 1.33 1.03 2.4 2.31 2.4z" fill="#FF7D26"/><path d="M7.78 12.1a2.36 2.36 0 0 0 2.31-2.4c0-1.33-1.03-2.4-2.31-2.4a2.36 2.36 0 0 0-2.32 2.4c0 1.32 1.04 2.4 2.32 2.4z" fill="#FF7E26"/><path d="M7.88 12.24a2.36 2.36 0 0 0 2.31-2.4c0-1.32-1.03-2.4-2.31-2.4a2.36 2.36 0 0 0-2.32 2.4c0 1.33 1.04 2.4 2.32 2.4z" fill="#FF8523"/><path d="M7.95 12.36a2.36 2.36 0 0 0 2.32-2.4c0-1.32-1.04-2.4-2.32-2.4a2.36 2.36 0 0 0-2.31 2.4c0 1.33 1.03 2.4 2.31 2.4z" fill="#FF8B20"/><path d="M7.98 12.4A2.36 2.36 0 0 0 10.3 10c0-1.32-1.04-2.4-2.32-2.4A2.36 2.36 0 0 0 5.66 10c0 1.33 1.04 2.4 2.32 2.4z" fill="#FF8D1F"/><path d="M8 12.42a2.36 2.36 0 0 0 2.31-2.4c0-1.32-1.04-2.4-2.32-2.4a2.36 2.36 0 0 0-2.31 2.4c0 1.33 1.04 2.4 2.31 2.4z" fill="#FF8E1F"/><path d="M8.11 12.62a2.36 2.36 0 0 0 2.32-2.4c0-1.33-1.04-2.4-2.32-2.4a2.36 2.36 0 0 0-2.32 2.4c0 1.33 1.04 2.4 2.32 2.4z" fill="#FF971B"/><path d="M8.12 12.63a2.36 2.36 0 0 0 2.32-2.4c0-1.32-1.04-2.4-2.32-2.4a2.36 2.36 0 0 0-2.31 2.4c0 1.33 1.04 2.4 2.31 2.4z" fill="#FF981B"/><path d="M8.14 12.65a2.36 2.36 0 0 0 2.31-2.4c0-1.33-1.03-2.4-2.31-2.4a2.36 2.36 0 0 0-2.32 2.4c0 1.32 1.04 2.4 2.32 2.4z" fill="#FF991B"/><path d="M8.21 12.75a2.36 2.36 0 0 0 2.32-2.4c0-1.32-1.04-2.4-2.32-2.4a2.36 2.36 0 0 0-2.31 2.4c0 1.33 1.03 2.4 2.31 2.4z" fill="#FF9E19"/><path d="M8.23 12.8a2.36 2.36 0 0 0 2.31-2.4C10.54 9.07 9.5 8 8.23 8a2.36 2.36 0 0 0-2.32 2.4c0 1.33 1.04 2.4 2.32 2.4z" fill="#FFA018"/><path d="M8.24 12.81a2.36 2.36 0 0 0 2.32-2.4c0-1.32-1.04-2.4-2.32-2.4a2.36 2.36 0 0 0-2.32 2.4c0 1.33 1.04 2.4 2.32 2.4z" fill="#FFA117"/><path d="M8.25 12.84a2.36 2.36 0 0 0 2.32-2.4c0-1.32-1.04-2.4-2.32-2.4a2.36 2.36 0 0 0-2.31 2.4c0 1.33 1.04 2.4 2.31 2.4z" fill="#FFA217"/><path d="M8.28 12.89a2.36 2.36 0 0 0 2.32-2.4c0-1.33-1.04-2.4-2.32-2.4a2.36 2.36 0 0 0-2.31 2.4c0 1.33 1.03 2.4 2.31 2.4z" fill="#FFA416"/><path d="M8.3 12.9a2.36 2.36 0 0 0 2.31-2.4c0-1.32-1.03-2.4-2.31-2.4a2.36 2.36 0 0 0-2.32 2.4c0 1.33 1.04 2.4 2.32 2.4z" fill="#FFA516"/><path d="M8.31 12.92a2.36 2.36 0 0 0 2.32-2.4c0-1.33-1.04-2.4-2.32-2.4A2.36 2.36 0 0 0 6 10.52c0 1.33 1.03 2.4 2.31 2.4z" fill="#FFA615"/><path d="M8.33 12.95a2.36 2.36 0 0 0 2.31-2.4c0-1.33-1.03-2.4-2.31-2.4A2.36 2.36 0 0 0 6 10.55c0 1.32 1.04 2.4 2.32 2.4z" fill="#FFA715"/><path d="M8.34 12.96a2.36 2.36 0 0 0 2.32-2.4c0-1.32-1.04-2.4-2.32-2.4a2.36 2.36 0 0 0-2.31 2.4c0 1.33 1.03 2.4 2.31 2.4z" fill="#FFA814"/><path d="M8.36 12.98a2.36 2.36 0 0 0 2.31-2.4c0-1.33-1.04-2.4-2.31-2.4a2.36 2.36 0 0 0-2.32 2.4c0 1.32 1.04 2.4 2.32 2.4z" fill="#FFA914"/><path d="M8.43 13.11a2.36 2.36 0 0 0 2.31-2.4c0-1.32-1.03-2.4-2.31-2.4a2.36 2.36 0 0 0-2.32 2.4c0 1.33 1.04 2.4 2.32 2.4z" fill="#FFAF12"/><path d="M8.44 13.13a2.36 2.36 0 0 0 2.32-2.4c0-1.33-1.04-2.4-2.32-2.4a2.36 2.36 0 0 0-2.31 2.4c0 1.33 1.03 2.4 2.31 2.4z" fill="#FFB011"/><path d="M8.47 13.17a2.36 2.36 0 0 0 2.32-2.4c0-1.32-1.04-2.4-2.32-2.4a2.36 2.36 0 0 0-2.31 2.4c0 1.33 1.03 2.4 2.31 2.4z" fill="#FFB210"/><path d="M8.49 13.19a2.36 2.36 0 0 0 2.31-2.4c0-1.33-1.03-2.4-2.31-2.4a2.36 2.36 0 0 0-2.32 2.4c0 1.33 1.04 2.4 2.32 2.4z" fill="#FFB310"/><path d="M8.52 13.23a2.36 2.36 0 0 0 2.31-2.4c0-1.32-1.04-2.4-2.31-2.4a2.36 2.36 0 0 0-2.32 2.4c0 1.33 1.04 2.4 2.32 2.4z" fill="#FFB50F"/><path d="M8.52 13.25a2.36 2.36 0 0 0 2.31-2.4c0-1.33-1.04-2.4-2.31-2.4a2.36 2.36 0 0 0-2.32 2.4c0 1.33 1.04 2.4 2.32 2.4z" fill="#FFB60F"/><path d="M8.53 13.28a2.36 2.36 0 0 0 2.32-2.4c0-1.33-1.04-2.4-2.32-2.4a2.36 2.36 0 0 0-2.32 2.4c0 1.33 1.04 2.4 2.32 2.4z" fill="#FFB70E"/><path d="M8.54 13.3a2.36 2.36 0 0 0 2.32-2.4c0-1.33-1.04-2.4-2.32-2.4a2.36 2.36 0 0 0-2.31 2.4c0 1.32 1.04 2.4 2.31 2.4z" fill="#FFB80E"/><path d="M8.56 13.32a2.36 2.36 0 0 0 2.31-2.4c0-1.32-1.03-2.4-2.31-2.4a2.36 2.36 0 0 0-2.32 2.4c0 1.33 1.04 2.4 2.32 2.4z" fill="#FFB90D"/><path d="M8.57 13.34a2.36 2.36 0 0 0 2.32-2.4c0-1.33-1.04-2.4-2.32-2.4a2.36 2.36 0 0 0-2.31 2.4c0 1.33 1.03 2.4 2.31 2.4z" fill="#FFBA0D"/><path d="M8.62 13.4a2.36 2.36 0 0 0 2.31-2.4c0-1.33-1.03-2.4-2.31-2.4A2.36 2.36 0 0 0 6.3 11c0 1.33 1.04 2.4 2.32 2.4z" fill="#FFBD0C"/><path d="M8.69 13.52a2.36 2.36 0 0 0 2.31-2.4c0-1.33-1.03-2.4-2.31-2.4a2.36 2.36 0 0 0-2.32 2.4c0 1.33 1.04 2.4 2.32 2.4z" fill="#FFC309"/><path d="M8.76 13.63a2.36 2.36 0 0 0 2.32-2.4c0-1.33-1.04-2.4-2.32-2.4a2.36 2.36 0 0 0-2.31 2.4c0 1.32 1.03 2.4 2.31 2.4z" fill="#FFC807"/><path d="M8.82 13.71a2.36 2.36 0 0 0 2.31-2.4c0-1.32-1.03-2.4-2.31-2.4a2.36 2.36 0 0 0-2.32 2.4c0 1.33 1.04 2.4 2.32 2.4z" fill="#FFCC06"/><path d="M8.82 13.73a2.36 2.36 0 0 0 2.31-2.4c0-1.33-1.03-2.4-2.31-2.4a2.36 2.36 0 0 0-2.32 2.4c0 1.33 1.04 2.4 2.32 2.4z" fill="#FFCD05"/><path d="M8.83 13.76a2.36 2.36 0 0 0 2.32-2.4c0-1.33-1.04-2.4-2.32-2.4a2.36 2.36 0 0 0-2.31 2.4c0 1.33 1.03 2.4 2.31 2.4z" fill="#FFCE05"/><path d="M8.85 13.77a2.36 2.36 0 0 0 2.31-2.4c0-1.32-1.03-2.4-2.31-2.4a2.36 2.36 0 0 0-2.32 2.4c0 1.33 1.04 2.4 2.32 2.4z" fill="#FFCF04"/><path d="M8.86 13.79a2.36 2.36 0 0 0 2.32-2.4c0-1.33-1.04-2.4-2.32-2.4a2.36 2.36 0 0 0-2.31 2.4c0 1.33 1.03 2.4 2.31 2.4z" fill="#FFD004"/><path d="M8.96 13.94a2.36 2.36 0 0 0 2.32-2.4c0-1.33-1.04-2.4-2.32-2.4a2.36 2.36 0 0 0-2.31 2.4c0 1.32 1.04 2.4 2.31 2.4z" fill="#FFD701"/><path d="M8.96 13.96a2.36 2.36 0 0 0 2.32-2.4c0-1.33-1.04-2.4-2.32-2.4a2.36 2.36 0 0 0-2.31 2.4c0 1.32 1.04 2.4 2.31 2.4z" fill="#FFD801"/><path d="M8.98 13.98a2.36 2.36 0 0 0 2.31-2.4c0-1.32-1.03-2.4-2.31-2.4a2.36 2.36 0 0 0-2.32 2.4c0 1.33 1.04 2.4 2.32 2.4z" fill="#FFD900"/><path d="M9 14a2.36 2.36 0 0 0 2.3-2.4c0-1.33-1.03-2.4-2.3-2.4a2.36 2.36 0 0 0-2.32 2.4c0 1.33 1.03 2.4 2.31 2.4z" fill="#FFDA00"/><path d="M9 13.98a2.36 2.36 0 0 0 2.32-2.4c0-1.32-1.03-2.4-2.31-2.4a2.36 2.36 0 0 0-2.32 2.4c0 1.33 1.04 2.4 2.32 2.4z" fill="#FED901"/><path d="M9.02 13.97a2.36 2.36 0 0 0 2.32-2.4c0-1.33-1.04-2.4-2.32-2.4a2.36 2.36 0 0 0-2.31 2.4c0 1.32 1.03 2.4 2.31 2.4z" fill="#FED902"/><path d="M9.04 13.96a2.36 2.36 0 0 0 2.31-2.4c0-1.33-1.04-2.4-2.31-2.4a2.36 2.36 0 0 0-2.32 2.4c0 1.32 1.04 2.4 2.32 2.4z" fill="#FDD803"/><path d="M9.04 13.94a2.36 2.36 0 0 0 2.31-2.4c0-1.33-1.04-2.4-2.31-2.4a2.36 2.36 0 0 0-2.32 2.4c0 1.32 1.04 2.4 2.32 2.4z" fill="#FDD804"/><path d="M9.05 13.92a2.36 2.36 0 0 0 2.32-2.4c0-1.32-1.04-2.4-2.32-2.4a2.36 2.36 0 0 0-2.31 2.4c0 1.33 1.03 2.4 2.31 2.4z" fill="#FCD705"/><path d="M9.08 13.86a2.36 2.36 0 0 0 2.32-2.4c0-1.32-1.04-2.4-2.32-2.4a2.36 2.36 0 0 0-2.32 2.4c0 1.33 1.04 2.4 2.32 2.4z" fill="#FAD508"/><path d="M9.1 13.83a2.36 2.36 0 0 0 2.32-2.4c0-1.32-1.03-2.4-2.31-2.4a2.36 2.36 0 0 0-2.32 2.4c0 1.33 1.04 2.4 2.32 2.4z" fill="#F9D40A"/><path d="M9.1 13.82a2.36 2.36 0 0 0 2.32-2.4c0-1.33-1.03-2.4-2.31-2.4a2.36 2.36 0 0 0-2.32 2.4c0 1.33 1.04 2.4 2.32 2.4z" fill="#F9D40B"/><path d="M9.12 13.8a2.36 2.36 0 0 0 2.32-2.4c0-1.32-1.04-2.4-2.32-2.4a2.36 2.36 0 0 0-2.31 2.4c0 1.33 1.03 2.4 2.31 2.4z" fill="#F8D30C"/><path d="M9.17 13.74a2.36 2.36 0 0 0 2.31-2.4c0-1.32-1.03-2.4-2.31-2.4a2.36 2.36 0 0 0-2.32 2.4c0 1.33 1.04 2.4 2.32 2.4z" fill="#F6D110"/><path d="M9.25 13.61a2.36 2.36 0 0 0 2.32-2.4c0-1.33-1.04-2.4-2.32-2.4a2.36 2.36 0 0 0-2.31 2.4c0 1.33 1.03 2.4 2.31 2.4z" fill="#F1CC18"/><path d="M9.25 13.6a2.36 2.36 0 0 0 2.32-2.4c0-1.33-1.04-2.4-2.32-2.4a2.36 2.36 0 0 0-2.31 2.4c0 1.32 1.03 2.4 2.31 2.4z" fill="#F0CB19"/><path d="M9.27 13.58a2.36 2.36 0 0 0 2.31-2.4c0-1.33-1.03-2.4-2.31-2.4a2.36 2.36 0 0 0-2.32 2.4c0 1.33 1.04 2.4 2.32 2.4z" fill="#F0CB1A"/><path d="M9.28 13.55a2.36 2.36 0 0 0 2.32-2.4c0-1.33-1.04-2.4-2.32-2.4a2.36 2.36 0 0 0-2.31 2.4c0 1.33 1.03 2.4 2.31 2.4z" fill="#EFCA1B"/><path d="M9.3 13.53a2.36 2.36 0 0 0 2.31-2.4c0-1.32-1.03-2.4-2.31-2.4a2.36 2.36 0 0 0-2.32 2.4c0 1.33 1.04 2.4 2.32 2.4z" fill="#EFCA1C"/><path d="M9.3 13.52a2.36 2.36 0 0 0 2.31-2.4c0-1.33-1.03-2.4-2.31-2.4a2.36 2.36 0 0 0-2.32 2.4c0 1.33 1.04 2.4 2.32 2.4z" fill="#EEC91D"/><path d="M9.31 13.5a2.36 2.36 0 0 0 2.32-2.4c0-1.32-1.04-2.4-2.32-2.4A2.36 2.36 0 0 0 7 11.1c0 1.33 1.03 2.4 2.31 2.4z" fill="#EDC81E"/><path d="M9.38 13.38a2.36 2.36 0 0 0 2.32-2.4c0-1.32-1.04-2.4-2.32-2.4a2.36 2.36 0 0 0-2.31 2.4c0 1.33 1.03 2.4 2.31 2.4z" fill="#E9C425"/><path d="M9.4 13.37a2.36 2.36 0 0 0 2.31-2.4c0-1.33-1.03-2.4-2.31-2.4a2.36 2.36 0 0 0-2.32 2.4c0 1.33 1.04 2.4 2.32 2.4z" fill="#E9C426"/><path d="M9.41 13.36a2.36 2.36 0 0 0 2.32-2.4c0-1.33-1.04-2.4-2.32-2.4a2.36 2.36 0 0 0-2.31 2.4c0 1.32 1.03 2.4 2.31 2.4z" fill="#E8C327"/><path d="M9.41 13.34a2.36 2.36 0 0 0 2.32-2.4c0-1.33-1.04-2.4-2.32-2.4a2.36 2.36 0 0 0-2.31 2.4c0 1.33 1.03 2.4 2.31 2.4z" fill="#E7C328"/><path d="M9.43 13.32a2.36 2.36 0 0 0 2.31-2.4c0-1.32-1.03-2.4-2.31-2.4a2.36 2.36 0 0 0-2.32 2.4c0 1.33 1.04 2.4 2.32 2.4z" fill="#E7C229"/><path d="M9.46 13.3a2.36 2.36 0 0 0 2.31-2.4c0-1.33-1.04-2.4-2.31-2.4a2.36 2.36 0 0 0-2.32 2.4c0 1.32 1.04 2.4 2.32 2.4z" fill="#E6C12B"/><path d="M9.46 13.28a2.36 2.36 0 0 0 2.31-2.4c0-1.33-1.04-2.4-2.31-2.4a2.36 2.36 0 0 0-2.32 2.4c0 1.33 1.04 2.4 2.32 2.4z" fill="#E5C02C"/><path d="M9.48 13.25a2.36 2.36 0 0 0 2.32-2.4c0-1.33-1.04-2.4-2.32-2.4a2.36 2.36 0 0 0-2.31 2.4c0 1.33 1.04 2.4 2.31 2.4z" fill="#E4BF2E"/><path d="M9.48 13.22a2.36 2.36 0 0 0 2.32-2.4c0-1.33-1.04-2.4-2.32-2.4a2.36 2.36 0 0 0-2.31 2.4c0 1.33 1.04 2.4 2.31 2.4z" fill="#E3BF2F"/><path d="M9.5 13.2a2.36 2.36 0 0 0 2.31-2.4c0-1.32-1.03-2.4-2.31-2.4a2.36 2.36 0 0 0-2.32 2.4c0 1.33 1.04 2.4 2.32 2.4z" fill="#E3BE30"/><path d="M9.51 13.19a2.36 2.36 0 0 0 2.32-2.4c0-1.33-1.04-2.4-2.32-2.4a2.36 2.36 0 0 0-2.31 2.4c0 1.33 1.03 2.4 2.31 2.4z" fill="#E2BD31"/><path d="M9.54 13.14a2.36 2.36 0 0 0 2.32-2.4c0-1.32-1.04-2.4-2.32-2.4a2.36 2.36 0 0 0-2.31 2.4c0 1.33 1.03 2.4 2.31 2.4z" fill="#E0BC34"/><path d="M9.56 13.13a2.36 2.36 0 0 0 2.31-2.4c0-1.33-1.03-2.4-2.31-2.4a2.36 2.36 0 0 0-2.32 2.4c0 1.33 1.04 2.4 2.32 2.4z" fill="#E0BB35"/><path d="M9.59 13.08a2.36 2.36 0 0 0 2.31-2.4c0-1.32-1.04-2.4-2.31-2.4a2.36 2.36 0 0 0-2.32 2.4c0 1.33 1.04 2.4 2.32 2.4z" fill="#DEB938"/><path d="M9.6 13.05a2.36 2.36 0 0 0 2.32-2.4c0-1.32-1.04-2.4-2.32-2.4a2.36 2.36 0 0 0-2.31 2.4c0 1.33 1.03 2.4 2.31 2.4z" fill="#DDB939"/><path d="M9.6 13.04a2.36 2.36 0 0 0 2.32-2.4c0-1.33-1.04-2.4-2.32-2.4a2.36 2.36 0 0 0-2.31 2.4c0 1.33 1.03 2.4 2.31 2.4z" fill="#DDB83A"/><path d="M9.62 13.02a2.36 2.36 0 0 0 2.31-2.4c0-1.32-1.04-2.4-2.31-2.4a2.36 2.36 0 0 0-2.32 2.4c0 1.33 1.04 2.4 2.32 2.4z" fill="#DCB83B"/><path d="M9.63 13a2.36 2.36 0 0 0 2.31-2.39c0-1.33-1.03-2.4-2.31-2.4a2.36 2.36 0 0 0-2.32 2.4c0 1.33 1.04 2.4 2.32 2.4z" fill="#DCB73C"/><path d="M9.64 13a2.36 2.36 0 0 0 2.32-2.4c0-1.33-1.04-2.4-2.32-2.4a2.36 2.36 0 0 0-2.31 2.4c0 1.32 1.04 2.4 2.31 2.4z" fill="#DBB63D"/><path d="M9.64 12.98a2.36 2.36 0 0 0 2.32-2.4c0-1.33-1.04-2.4-2.32-2.4a2.36 2.36 0 0 0-2.31 2.4c0 1.32 1.04 2.4 2.31 2.4z" fill="#DBB63E"/><path d="M9.66 12.96a2.36 2.36 0 0 0 2.31-2.4c0-1.32-1.03-2.4-2.31-2.4a2.36 2.36 0 0 0-2.32 2.4c0 1.33 1.04 2.4 2.32 2.4z" fill="#DAB53F"/><path d="M9.67 12.95a2.36 2.36 0 0 0 2.32-2.4c0-1.33-1.04-2.4-2.32-2.4a2.36 2.36 0 0 0-2.31 2.4c0 1.32 1.03 2.4 2.31 2.4z" fill="#D9B540"/><path d="M9.7 12.89a2.36 2.36 0 0 0 2.32-2.4c0-1.33-1.04-2.4-2.32-2.4a2.36 2.36 0 0 0-2.31 2.4c0 1.33 1.03 2.4 2.31 2.4z" fill="#D8B343"/><path d="M9.72 12.87a2.36 2.36 0 0 0 2.31-2.4c0-1.32-1.03-2.4-2.31-2.4a2.36 2.36 0 0 0-2.32 2.4c0 1.33 1.04 2.4 2.32 2.4z" fill="#D7B244"/><path d="M9.73 12.84a2.36 2.36 0 0 0 2.32-2.4c0-1.32-1.04-2.4-2.32-2.4a2.36 2.36 0 0 0-2.31 2.4c0 1.33 1.03 2.4 2.31 2.4z" fill="#D6B146"/><path d="M9.75 12.83a2.36 2.36 0 0 0 2.31-2.4c0-1.33-1.04-2.4-2.31-2.4a2.36 2.36 0 0 0-2.32 2.4c0 1.33 1.04 2.4 2.32 2.4z" fill="#D5B147"/><path d="M9.76 12.8a2.36 2.36 0 0 0 2.32-2.4c0-1.33-1.04-2.4-2.32-2.4a2.36 2.36 0 0 0-2.32 2.4c0 1.33 1.04 2.4 2.32 2.4z" fill="#D4AF49"/><path d="M9.77 12.79a2.36 2.36 0 0 0 2.32-2.4c0-1.33-1.04-2.4-2.32-2.4a2.36 2.36 0 0 0-2.31 2.4c0 1.32 1.04 2.4 2.31 2.4z" fill="#D3AF4A"/><path d="M9.79 12.77a2.36 2.36 0 0 0 2.31-2.4c0-1.33-1.03-2.4-2.31-2.4a2.36 2.36 0 0 0-2.32 2.4c0 1.33 1.04 2.4 2.32 2.4z" fill="#D3AE4B"/><path d="M9.85 12.66a2.36 2.36 0 0 0 2.31-2.4c0-1.32-1.03-2.4-2.31-2.4a2.36 2.36 0 0 0-2.32 2.4c0 1.33 1.04 2.4 2.32 2.4z" fill="#CFAB51"/><path d="M9.88 12.63a2.36 2.36 0 0 0 2.31-2.4c0-1.32-1.04-2.4-2.31-2.4a2.36 2.36 0 0 0-2.32 2.4c0 1.33 1.04 2.4 2.32 2.4z" fill="#CEAA53"/><path d="M9.92 12.56a2.36 2.36 0 0 0 2.31-2.4c0-1.33-1.03-2.4-2.31-2.4a2.36 2.36 0 0 0-2.32 2.4c0 1.32 1.04 2.4 2.32 2.4z" fill="#CCA757"/><path d="M9.92 12.54a2.36 2.36 0 0 0 2.31-2.4c0-1.32-1.03-2.4-2.31-2.4a2.36 2.36 0 0 0-2.32 2.4c0 1.33 1.04 2.4 2.32 2.4z" fill="#CBA758"/><path d="M9.98 12.47a2.36 2.36 0 0 0 2.31-2.4c0-1.33-1.03-2.4-2.31-2.4a2.36 2.36 0 0 0-2.32 2.4c0 1.33 1.04 2.4 2.32 2.4z" fill="#C8A45D"/><path d="M10 12.45a2.36 2.36 0 0 0 2.3-2.4c0-1.32-1.03-2.4-2.3-2.4a2.36 2.36 0 0 0-2.32 2.4c0 1.33 1.03 2.4 2.31 2.4z" fill="#C8A35E"/><path d="M10 12.44a2.36 2.36 0 0 0 2.3-2.4c0-1.33-1.03-2.4-2.3-2.4a2.36 2.36 0 0 0-2.32 2.4c0 1.33 1.03 2.4 2.31 2.4z" fill="#C7A25F"/><path d="M10 12.42a2.36 2.36 0 0 0 2.32-2.4c0-1.32-1.04-2.4-2.31-2.4a2.36 2.36 0 0 0-2.32 2.4c0 1.33 1.04 2.4 2.32 2.4z" fill="#C7A260"/><path d="M10.03 12.38a2.36 2.36 0 0 0 2.32-2.4c0-1.33-1.04-2.4-2.32-2.4a2.36 2.36 0 0 0-2.31 2.4c0 1.33 1.04 2.4 2.31 2.4z" fill="#C5A162"/><path d="M10.1 12.29a2.36 2.36 0 0 0 2.3-2.4c0-1.33-1.03-2.4-2.3-2.4a2.36 2.36 0 0 0-2.32 2.4c0 1.33 1.03 2.4 2.31 2.4z" fill="#C29D68"/><path d="M10.22 12.06a2.36 2.36 0 0 0 2.32-2.4c0-1.32-1.04-2.4-2.32-2.4a2.36 2.36 0 0 0-2.31 2.4c0 1.33 1.03 2.4 2.31 2.4z" fill="#BA9675"/><path d="M10.3 11.97a2.36 2.36 0 0 0 2.31-2.4c0-1.32-1.04-2.4-2.31-2.4a2.36 2.36 0 0 0-2.32 2.4c0 1.33 1.04 2.4 2.32 2.4z" fill="#B7927B"/><path d="M10.31 11.94a2.36 2.36 0 0 0 2.32-2.4c0-1.32-1.04-2.4-2.32-2.4a2.36 2.36 0 0 0-2.32 2.4c0 1.33 1.04 2.4 2.32 2.4z" fill="#B5917D"/><path d="M10.37 11.85a2.36 2.36 0 0 0 2.31-2.4c0-1.32-1.03-2.4-2.31-2.4a2.36 2.36 0 0 0-2.32 2.4c0 1.33 1.04 2.4 2.32 2.4z" fill="#B38E82"/><path d="M10.38 11.84a2.36 2.36 0 0 0 2.32-2.4c0-1.33-1.04-2.4-2.32-2.4a2.36 2.36 0 0 0-2.31 2.4c0 1.33 1.03 2.4 2.31 2.4z" fill="#B28D83"/><path d="M10.41 11.78a2.36 2.36 0 0 0 2.32-2.4c0-1.33-1.04-2.4-2.32-2.4a2.36 2.36 0 0 0-2.31 2.4c0 1.33 1.03 2.4 2.31 2.4z" fill="#B08B87"/><path d="M10.43 11.77a2.36 2.36 0 0 0 2.31-2.4c0-1.33-1.04-2.4-2.31-2.4a2.36 2.36 0 0 0-2.32 2.4c0 1.32 1.04 2.4 2.32 2.4z" fill="#AF8B88"/><path d="M10.44 11.73a2.36 2.36 0 0 0 2.32-2.4c0-1.32-1.04-2.4-2.32-2.4a2.36 2.36 0 0 0-2.32 2.4c0 1.33 1.04 2.4 2.32 2.4z" fill="#AE8A89"/><path d="M10.45 11.72a2.36 2.36 0 0 0 2.32-2.4c0-1.33-1.04-2.4-2.32-2.4a2.36 2.36 0 0 0-2.31 2.4c0 1.32 1.04 2.4 2.31 2.4z" fill="#AE898A"/><path d="M10.45 11.7a2.36 2.36 0 0 0 2.32-2.4c0-1.32-1.04-2.4-2.32-2.4a2.36 2.36 0 0 0-2.31 2.4c0 1.33 1.04 2.4 2.31 2.4z" fill="#AD898B"/><path d="M10.47 11.69a2.36 2.36 0 0 0 2.31-2.4c0-1.33-1.03-2.4-2.31-2.4a2.36 2.36 0 0 0-2.32 2.4c0 1.33 1.04 2.4 2.32 2.4z" fill="#AD888C"/><path d="M10.51 11.63a2.36 2.36 0 0 0 2.32-2.4c0-1.33-1.04-2.4-2.32-2.4a2.36 2.36 0 0 0-2.31 2.4c0 1.33 1.03 2.4 2.31 2.4z" fill="#AA8690"/><path d="M10.53 11.61a2.36 2.36 0 0 0 2.31-2.4c0-1.32-1.03-2.4-2.31-2.4a2.36 2.36 0 0 0-2.32 2.4c0 1.33 1.04 2.4 2.32 2.4z" fill="#AA8591"/><path d="M10.53 11.6a2.36 2.36 0 0 0 2.31-2.4c0-1.33-1.03-2.4-2.31-2.4A2.36 2.36 0 0 0 8.2 9.2c0 1.33 1.04 2.4 2.32 2.4z" fill="#A98592"/><path d="M10.54 11.57a2.36 2.36 0 0 0 2.32-2.4c0-1.33-1.04-2.4-2.32-2.4a2.36 2.36 0 0 0-2.31 2.4c0 1.33 1.03 2.4 2.31 2.4z" fill="#A98493"/><path d="M10.57 11.54a2.36 2.36 0 0 0 2.32-2.4c0-1.33-1.04-2.4-2.32-2.4a2.36 2.36 0 0 0-2.32 2.4c0 1.33 1.04 2.4 2.32 2.4z" fill="#A78395"/><path d="M10.57 11.52a2.36 2.36 0 0 0 2.32-2.4c0-1.32-1.04-2.4-2.32-2.4a2.36 2.36 0 0 0-2.32 2.4c0 1.33 1.04 2.4 2.32 2.4z" fill="#A78296"/><path d="M10.58 11.51a2.36 2.36 0 0 0 2.32-2.4c0-1.33-1.04-2.4-2.32-2.4a2.36 2.36 0 0 0-2.31 2.4c0 1.33 1.04 2.4 2.31 2.4z" fill="#A68297"/><path d="M10.6 11.5a2.36 2.36 0 0 0 2.31-2.4c0-1.33-1.03-2.4-2.31-2.4a2.36 2.36 0 0 0-2.32 2.4c0 1.32 1.04 2.4 2.32 2.4z" fill="#A68198"/><path d="M10.6 11.48a2.36 2.36 0 0 0 2.31-2.4c0-1.33-1.03-2.4-2.31-2.4a2.36 2.36 0 0 0-2.32 2.4c0 1.33 1.04 2.4 2.32 2.4z" fill="#A58199"/><path d="M10.61 11.46a2.36 2.36 0 0 0 2.32-2.4c0-1.32-1.04-2.4-2.32-2.4a2.36 2.36 0 0 0-2.31 2.4c0 1.33 1.03 2.4 2.31 2.4z" fill="#A4809A"/><path d="M10.64 11.4A2.36 2.36 0 0 0 12.96 9c0-1.32-1.04-2.4-2.32-2.4A2.36 2.36 0 0 0 8.33 9c0 1.33 1.03 2.4 2.31 2.4z" fill="#A37E9D"/><path d="M10.67 11.38A2.36 2.36 0 0 0 13 8.97c0-1.33-1.04-2.4-2.32-2.4a2.36 2.36 0 0 0-2.31 2.4c0 1.32 1.03 2.4 2.31 2.4z" fill="#A17D9F"/><path d="M10.69 11.36A2.36 2.36 0 0 0 13 8.96c0-1.33-1.04-2.4-2.31-2.4a2.36 2.36 0 0 0-2.32 2.4c0 1.33 1.04 2.4 2.32 2.4z" fill="#A17DA0"/><path d="M10.69 11.34A2.36 2.36 0 0 0 13 8.94c0-1.32-1.04-2.4-2.31-2.4a2.36 2.36 0 0 0-2.32 2.4c0 1.33 1.04 2.4 2.32 2.4z" fill="#A07CA1"/><path d="M10.7 11.33a2.36 2.36 0 0 0 2.32-2.4c0-1.33-1.04-2.4-2.32-2.4a2.36 2.36 0 0 0-2.32 2.4c0 1.33 1.04 2.4 2.32 2.4z" fill="#A07BA2"/><path d="M10.71 11.31a2.36 2.36 0 0 0 2.32-2.4c0-1.32-1.04-2.4-2.32-2.4a2.36 2.36 0 0 0-2.31 2.4c0 1.33 1.04 2.4 2.31 2.4z" fill="#9F7BA3"/><path d="M10.71 11.3a2.36 2.36 0 0 0 2.32-2.4c0-1.33-1.04-2.4-2.32-2.4A2.36 2.36 0 0 0 8.4 8.9c0 1.33 1.04 2.4 2.31 2.4z" fill="#9F7AA4"/><path d="M10.73 11.28a2.36 2.36 0 0 0 2.31-2.4c0-1.32-1.03-2.4-2.31-2.4a2.36 2.36 0 0 0-2.32 2.4c0 1.33 1.04 2.4 2.32 2.4z" fill="#9E7AA5"/><path d="M10.76 11.22a2.36 2.36 0 0 0 2.31-2.4c0-1.32-1.03-2.4-2.31-2.4a2.36 2.36 0 0 0-2.32 2.4c0 1.33 1.04 2.4 2.32 2.4z" fill="#9C78A8"/><path d="M10.85 11.1a2.36 2.36 0 0 0 2.31-2.4c0-1.32-1.04-2.4-2.31-2.4a2.36 2.36 0 0 0-2.32 2.4c0 1.33 1.04 2.4 2.32 2.4z" fill="#9773B0"/><path d="M10.86 11.09a2.36 2.36 0 0 0 2.32-2.4c0-1.33-1.04-2.4-2.32-2.4a2.36 2.36 0 0 0-2.32 2.4c0 1.33 1.04 2.4 2.32 2.4z" fill="#9773B1"/><path d="M10.87 11.06a2.36 2.36 0 0 0 2.32-2.4c0-1.33-1.04-2.4-2.32-2.4a2.36 2.36 0 0 0-2.31 2.4c0 1.33 1.04 2.4 2.31 2.4z" fill="#9672B2"/><path d="M10.87 11.04a2.36 2.36 0 0 0 2.32-2.4c0-1.32-1.04-2.4-2.32-2.4a2.36 2.36 0 0 0-2.31 2.4c0 1.33 1.04 2.4 2.31 2.4z" fill="#9671B3"/><path d="M10.89 11.03a2.36 2.36 0 0 0 2.31-2.4c0-1.33-1.03-2.4-2.31-2.4a2.36 2.36 0 0 0-2.32 2.4c0 1.33 1.04 2.4 2.32 2.4z" fill="#9571B4"/><path d="M10.9 11.01a2.36 2.36 0 0 0 2.32-2.4c0-1.32-1.04-2.4-2.32-2.4a2.36 2.36 0 0 0-2.31 2.4c0 1.33 1.03 2.4 2.31 2.4z" fill="#9570B5"/><path d="M10.92 10.98a2.36 2.36 0 0 0 2.31-2.4c0-1.32-1.03-2.4-2.31-2.4a2.36 2.36 0 0 0-2.32 2.4c0 1.33 1.04 2.4 2.32 2.4z" fill="#936FB7"/><path d="M10.93 10.97a2.36 2.36 0 0 0 2.32-2.4c0-1.33-1.04-2.4-2.32-2.4a2.36 2.36 0 0 0-2.31 2.4c0 1.33 1.03 2.4 2.31 2.4z" fill="#936EB8"/><path d="M10.95 10.95a2.36 2.36 0 0 0 2.31-2.4c0-1.32-1.03-2.4-2.31-2.4a2.36 2.36 0 0 0-2.32 2.4c0 1.33 1.04 2.4 2.32 2.4z" fill="#926EB9"/><path d="M10.95 10.94a2.36 2.36 0 0 0 2.31-2.4c0-1.33-1.03-2.4-2.31-2.4a2.36 2.36 0 0 0-2.32 2.4c0 1.33 1.04 2.4 2.32 2.4z" fill="#926DBA"/><path d="M10.96 10.92a2.36 2.36 0 0 0 2.32-2.4c0-1.32-1.04-2.4-2.32-2.4a2.36 2.36 0 0 0-2.31 2.4c0 1.33 1.03 2.4 2.31 2.4z" fill="#916DBB"/><path d="M10.98 10.9a2.36 2.36 0 0 0 2.31-2.4c0-1.33-1.04-2.4-2.31-2.4a2.36 2.36 0 0 0-2.32 2.4c0 1.32 1.04 2.4 2.32 2.4z" fill="#906CBC"/><path d="M10.99 10.88a2.36 2.36 0 0 0 2.32-2.4c0-1.33-1.04-2.4-2.32-2.4a2.36 2.36 0 0 0-2.32 2.4c0 1.33 1.04 2.4 2.32 2.4z" fill="#906CBD"/><path d="M10.99 10.86a2.36 2.36 0 0 0 2.32-2.4c0-1.32-1.04-2.4-2.32-2.4a2.36 2.36 0 0 0-2.32 2.4c0 1.33 1.04 2.4 2.32 2.4z" fill="#8F6BBE"/><path d="M11 10.85a2.36 2.36 0 0 0 2.32-2.4c0-1.33-1.04-2.4-2.32-2.4a2.36 2.36 0 0 0-2.31 2.4c0 1.33 1.04 2.4 2.31 2.4z" fill="#8F6ABF"/><path d="M11.06 10.77a2.36 2.36 0 0 0 2.32-2.4c0-1.32-1.04-2.4-2.32-2.4a2.36 2.36 0 0 0-2.31 2.4c0 1.33 1.03 2.4 2.31 2.4z" fill="#8C67C4"/><path d="M11.06 10.76a2.36 2.36 0 0 0 2.32-2.4c0-1.33-1.04-2.4-2.32-2.4a2.36 2.36 0 0 0-2.31 2.4c0 1.33 1.03 2.4 2.31 2.4z" fill="#8B67C5"/><path d="M11.08 10.73a2.36 2.36 0 0 0 2.31-2.4c0-1.33-1.03-2.4-2.31-2.4a2.36 2.36 0 0 0-2.32 2.4c0 1.33 1.04 2.4 2.32 2.4z" fill="#8B66C6"/><path d="M11.1 10.71a2.36 2.36 0 0 0 2.3-2.4c0-1.32-1.03-2.4-2.3-2.4a2.36 2.36 0 0 0-2.32 2.4c0 1.33 1.03 2.4 2.31 2.4z" fill="#8A66C7"/><path d="M11.1 10.7a2.36 2.36 0 0 0 2.32-2.4c0-1.33-1.04-2.4-2.31-2.4a2.36 2.36 0 0 0-2.32 2.4c0 1.33 1.04 2.4 2.32 2.4z" fill="#8965C8"/><path d="M11.1 10.69a2.36 2.36 0 0 0 2.32-2.4c0-1.33-1.04-2.4-2.31-2.4a2.36 2.36 0 0 0-2.32 2.4c0 1.32 1.04 2.4 2.32 2.4z" fill="#8965C9"/><path d="M11.12 10.67a2.36 2.36 0 0 0 2.32-2.4c0-1.33-1.04-2.4-2.32-2.4a2.36 2.36 0 0 0-2.32 2.4c0 1.33 1.04 2.4 2.32 2.4z" fill="#8864CA"/><path d="M11.13 10.65a2.36 2.36 0 0 0 2.32-2.4c0-1.32-1.04-2.4-2.32-2.4a2.36 2.36 0 0 0-2.31 2.4c0 1.33 1.04 2.4 2.31 2.4z" fill="#8863CB"/><path d="M11.15 10.64a2.36 2.36 0 0 0 2.31-2.4c0-1.33-1.03-2.4-2.31-2.4a2.36 2.36 0 0 0-2.32 2.4c0 1.33 1.04 2.4 2.32 2.4z" fill="#8763CC"/><path d="M11.15 10.62a2.36 2.36 0 0 0 2.31-2.4c0-1.32-1.03-2.4-2.31-2.4a2.36 2.36 0 0 0-2.32 2.4c0 1.33 1.04 2.4 2.32 2.4z" fill="#8662CD"/><path d="M11.16 10.61a2.36 2.36 0 0 0 2.32-2.4c0-1.33-1.04-2.4-2.32-2.4a2.36 2.36 0 0 0-2.31 2.4c0 1.33 1.03 2.4 2.31 2.4z" fill="#8662CE"/><path d="M11.18 10.6a2.36 2.36 0 0 0 2.31-2.4c0-1.33-1.03-2.4-2.31-2.4a2.36 2.36 0 0 0-2.32 2.4c0 1.32 1.04 2.4 2.32 2.4z" fill="#8561CF"/><path d="M11.18 10.56a2.36 2.36 0 0 0 2.31-2.4c0-1.32-1.03-2.4-2.31-2.4a2.36 2.36 0 0 0-2.32 2.4c0 1.33 1.04 2.4 2.32 2.4z" fill="#8560D0"/><path d="M11.2 10.55a2.36 2.36 0 0 0 2.3-2.4c0-1.33-1.03-2.4-2.3-2.4a2.36 2.36 0 0 0-2.32 2.4c0 1.33 1.03 2.4 2.31 2.4z" fill="#8460D1"/><path d="M11.2 10.54a2.36 2.36 0 0 0 2.32-2.4c0-1.33-1.03-2.4-2.31-2.4a2.36 2.36 0 0 0-2.32 2.4c0 1.32 1.04 2.4 2.32 2.4z" fill="#835FD2"/><path d="M11.22 10.52a2.36 2.36 0 0 0 2.32-2.4c0-1.33-1.04-2.4-2.32-2.4a2.36 2.36 0 0 0-2.31 2.4c0 1.33 1.03 2.4 2.31 2.4z" fill="#835FD3"/><path d="M11.22 10.5a2.36 2.36 0 0 0 2.32-2.4c0-1.32-1.04-2.4-2.32-2.4a2.36 2.36 0 0 0-2.31 2.4c0 1.33 1.03 2.4 2.31 2.4z" fill="#825ED4"/><path d="M11.24 10.49a2.36 2.36 0 0 0 2.31-2.4c0-1.33-1.04-2.4-2.31-2.4a2.36 2.36 0 0 0-2.32 2.4c0 1.33 1.04 2.4 2.32 2.4z" fill="#825ED5"/><path d="M11.25 10.47a2.36 2.36 0 0 0 2.32-2.4c0-1.32-1.04-2.4-2.32-2.4a2.36 2.36 0 0 0-2.32 2.4c0 1.33 1.04 2.4 2.32 2.4z" fill="#815DD6"/><path d="M11.26 10.46a2.36 2.36 0 0 0 2.32-2.4c0-1.33-1.04-2.4-2.32-2.4a2.36 2.36 0 0 0-2.31 2.4c0 1.33 1.04 2.4 2.31 2.4z" fill="#815CD7"/><path d="M11.26 10.44a2.36 2.36 0 0 0 2.32-2.4c0-1.32-1.04-2.4-2.32-2.4a2.36 2.36 0 0 0-2.31 2.4c0 1.33 1.04 2.4 2.31 2.4z" fill="#805CD8"/><path d="M11.28 10.43a2.36 2.36 0 0 0 2.31-2.4c0-1.33-1.03-2.4-2.31-2.4a2.36 2.36 0 0 0-2.32 2.4c0 1.33 1.04 2.4 2.32 2.4z" fill="#7F5BD9"/><path d="M11.3 10.4A2.36 2.36 0 0 0 13.6 8c0-1.33-1.03-2.4-2.3-2.4A2.36 2.36 0 0 0 8.97 8c0 1.33 1.04 2.4 2.31 2.4z" fill="#7F5BDA"/><path d="M11.3 10.38a2.36 2.36 0 0 0 2.3-2.4c0-1.32-1.03-2.4-2.3-2.4a2.36 2.36 0 0 0-2.32 2.4c0 1.33 1.04 2.4 2.31 2.4z" fill="#7E5ADB"/><path d="M11.3 10.37a2.36 2.36 0 0 0 2.32-2.4c0-1.33-1.03-2.4-2.31-2.4a2.36 2.36 0 0 0-2.32 2.4c0 1.32 1.04 2.4 2.32 2.4z" fill="#7E59DC"/><path d="M11.32 10.36a2.36 2.36 0 0 0 2.32-2.4c0-1.33-1.04-2.4-2.32-2.4a2.36 2.36 0 0 0-2.31 2.4c0 1.32 1.03 2.4 2.31 2.4z" fill="#7D59DD"/><path d="M11.34 10.34a2.36 2.36 0 0 0 2.31-2.4c0-1.33-1.03-2.4-2.31-2.4a2.36 2.36 0 0 0-2.32 2.4c0 1.33 1.04 2.4 2.32 2.4z" fill="#7C58DE"/><path d="M11.34 10.32a2.36 2.36 0 0 0 2.31-2.4c0-1.32-1.03-2.4-2.31-2.4a2.36 2.36 0 0 0-2.32 2.4c0 1.33 1.04 2.4 2.32 2.4z" fill="#7C58DF"/><path d="M11.35 10.31a2.36 2.36 0 0 0 2.32-2.4c0-1.33-1.04-2.4-2.32-2.4a2.36 2.36 0 0 0-2.31 2.4c0 1.33 1.03 2.4 2.31 2.4z" fill="#7B57E0"/><path d="M11.37 10.3a2.36 2.36 0 0 0 2.31-2.4c0-1.33-1.04-2.4-2.31-2.4a2.36 2.36 0 0 0-2.32 2.4c0 1.32 1.04 2.4 2.32 2.4z" fill="#7B57E1"/><path d="M11.38 10.28a2.36 2.36 0 0 0 2.32-2.4c0-1.32-1.04-2.4-2.32-2.4a2.36 2.36 0 0 0-2.31 2.4c0 1.33 1.03 2.4 2.31 2.4z" fill="#7A56E2"/><path d="M11.38 10.26a2.36 2.36 0 0 0 2.32-2.4c0-1.32-1.04-2.4-2.32-2.4a2.36 2.36 0 0 0-2.31 2.4c0 1.33 1.03 2.4 2.31 2.4z" fill="#7955E3"/><path d="M11.4 10.23a2.36 2.36 0 0 0 2.31-2.4c0-1.32-1.04-2.4-2.31-2.4a2.36 2.36 0 0 0-2.32 2.4c0 1.33 1.04 2.4 2.32 2.4z" fill="#7955E4"/><path d="M11.41 10.22a2.36 2.36 0 0 0 2.32-2.4c0-1.33-1.04-2.4-2.32-2.4a2.36 2.36 0 0 0-2.32 2.4c0 1.33 1.04 2.4 2.32 2.4z" fill="#7854E5"/><path d="M11.41 10.2a2.36 2.36 0 0 0 2.32-2.4c0-1.32-1.04-2.4-2.32-2.4a2.36 2.36 0 0 0-2.32 2.4c0 1.33 1.04 2.4 2.32 2.4z" fill="#7854E6"/><path d="M11.42 10.19a2.36 2.36 0 0 0 2.32-2.4c0-1.33-1.04-2.4-2.32-2.4a2.36 2.36 0 0 0-2.31 2.4c0 1.33 1.04 2.4 2.31 2.4z" fill="#7753E7"/><path d="M11.44 10.18a2.36 2.36 0 0 0 2.31-2.4c0-1.33-1.03-2.4-2.31-2.4a2.36 2.36 0 0 0-2.32 2.4c0 1.32 1.04 2.4 2.32 2.4z" fill="#7752E8"/><path d="M11.45 10.16a2.36 2.36 0 0 0 2.32-2.4c0-1.33-1.04-2.4-2.32-2.4a2.36 2.36 0 0 0-2.31 2.4c0 1.32 1.03 2.4 2.31 2.4z" fill="#7652E9"/><path d="M11.45 10.14a2.36 2.36 0 0 0 2.32-2.4c0-1.32-1.04-2.4-2.32-2.4a2.36 2.36 0 0 0-2.31 2.4c0 1.33 1.03 2.4 2.31 2.4z" fill="#7551EA"/><path d="M11.47 10.13a2.36 2.36 0 0 0 2.31-2.4c0-1.33-1.03-2.4-2.31-2.4a2.36 2.36 0 0 0-2.32 2.4c0 1.33 1.04 2.4 2.32 2.4z" fill="#7551EB"/><path d="M11.48 10.11a2.36 2.36 0 0 0 2.32-2.4c0-1.32-1.04-2.4-2.32-2.4a2.36 2.36 0 0 0-2.31 2.4c0 1.33 1.03 2.4 2.31 2.4z" fill="#7450EC"/><path d="M11.5 10.1a2.36 2.36 0 0 0 2.31-2.4c0-1.32-1.03-2.4-2.31-2.4a2.36 2.36 0 0 0-2.32 2.4c0 1.33 1.04 2.4 2.32 2.4z" fill="#7450ED"/><path d="M11.5 10.07a2.36 2.36 0 0 0 2.31-2.4c0-1.33-1.03-2.4-2.31-2.4a2.36 2.36 0 0 0-2.32 2.4c0 1.33 1.04 2.4 2.32 2.4z" fill="#734FEE"/><path d="M11.51 10.05a2.36 2.36 0 0 0 2.32-2.4c0-1.32-1.04-2.4-2.32-2.4a2.36 2.36 0 0 0-2.31 2.4c0 1.33 1.03 2.4 2.31 2.4z" fill="#724EEF"/><path d="M11.53 10.04a2.36 2.36 0 0 0 2.31-2.4c0-1.33-1.04-2.4-2.31-2.4a2.36 2.36 0 0 0-2.32 2.4c0 1.33 1.04 2.4 2.32 2.4z" fill="#724EF0"/><path d="M11.53 10.02a2.36 2.36 0 0 0 2.31-2.4c0-1.32-1.04-2.4-2.31-2.4a2.36 2.36 0 0 0-2.32 2.4c0 1.33 1.04 2.4 2.32 2.4z" fill="#714DF1"/><path d="M11.54 10.01a2.36 2.36 0 0 0 2.32-2.4c0-1.33-1.04-2.4-2.32-2.4a2.36 2.36 0 0 0-2.32 2.4c0 1.33 1.04 2.4 2.32 2.4z" fill="#714DF2"/><path d="M11.55 10a2.36 2.36 0 0 0 2.32-2.4c0-1.33-1.04-2.4-2.32-2.4a2.36 2.36 0 0 0-2.31 2.4c0 1.32 1.04 2.4 2.31 2.4z" fill="#704CF3"/><path d="M11.57 9.98a2.36 2.36 0 0 0 2.31-2.4c0-1.33-1.03-2.4-2.31-2.4a2.36 2.36 0 0 0-2.32 2.4c0 1.33 1.04 2.4 2.32 2.4z" fill="#6F4BF4"/><path d="M11.57 9.96a2.36 2.36 0 0 0 2.31-2.4c0-1.32-1.03-2.4-2.31-2.4a2.36 2.36 0 0 0-2.32 2.4c0 1.33 1.04 2.4 2.32 2.4z" fill="#6F4BF5"/><path d="M11.58 9.95a2.36 2.36 0 0 0 2.32-2.4c0-1.33-1.04-2.4-2.32-2.4a2.36 2.36 0 0 0-2.31 2.4c0 1.32 1.03 2.4 2.31 2.4z" fill="#6E4AF6"/><path d="M11.6 9.93a2.36 2.36 0 0 0 2.31-2.4c0-1.32-1.03-2.4-2.31-2.4a2.36 2.36 0 0 0-2.32 2.4c0 1.33 1.04 2.4 2.32 2.4z" fill="#6E4AF7"/><path d="M11.61 9.9a2.36 2.36 0 0 0 2.32-2.4c0-1.32-1.04-2.4-2.32-2.4A2.36 2.36 0 0 0 9.3 7.5c0 1.33 1.03 2.4 2.31 2.4z" fill="#6D49F8"/><path d="M11.61 9.89a2.36 2.36 0 0 0 2.32-2.4c0-1.32-1.04-2.4-2.32-2.4A2.36 2.36 0 0 0 9.3 7.5c0 1.33 1.03 2.4 2.31 2.4z" fill="#6D49F9"/><path d="M11.63 9.87a2.36 2.36 0 0 0 2.31-2.4c0-1.32-1.03-2.4-2.31-2.4a2.36 2.36 0 0 0-2.32 2.4c0 1.33 1.04 2.4 2.32 2.4z" fill="#6C48FA"/><path d="M11.64 9.86a2.36 2.36 0 0 0 2.32-2.4c0-1.33-1.04-2.4-2.32-2.4a2.36 2.36 0 0 0-2.31 2.4c0 1.32 1.03 2.4 2.31 2.4z" fill="#6B47FB"/><path d="M11.64 9.84a2.36 2.36 0 0 0 2.32-2.4c0-1.32-1.04-2.4-2.32-2.4a2.36 2.36 0 0 0-2.31 2.4c0 1.33 1.03 2.4 2.31 2.4z" fill="#6B47FC"/><path d="M11.66 9.83a2.36 2.36 0 0 0 2.31-2.4c0-1.33-1.04-2.4-2.31-2.4a2.36 2.36 0 0 0-2.32 2.4c0 1.32 1.04 2.4 2.32 2.4z" fill="#6A46FD"/><path d="M11.67 9.81a2.36 2.36 0 0 0 2.32-2.4c0-1.32-1.04-2.4-2.32-2.4a2.36 2.36 0 0 0-2.32 2.4c0 1.33 1.04 2.4 2.32 2.4z" fill="#6A46FE"/><path d="M11.68 9.8A2.36 2.36 0 0 0 14 7.4C14 6.07 12.96 5 11.68 5a2.36 2.36 0 0 0-2.31 2.4c0 1.33 1.04 2.4 2.31 2.4z" fill="#6945FF"/></svg>