<!-- by TradingView --><svg width="18" height="18" viewBox="0 0 18 18" xmlns="http://www.w3.org/2000/svg"><path fill="url(#a)" d="M0 0h18v18H0z"/><path d="M6.17 7.79a1.38 1.38 0 0 0-.04-.19c-.13-.4-.42-.67-.64-.58-.23.08-.3.48-.18.9.13.4.42.66.64.58l.06-.03L8 9.45v3.58l-3.38-1.51V7.37c0-.19-.1-.34-.3-.34-.2 0-.32.14-.32.34v4.59L8.63 14V8.94L6.17 7.8ZM10 11.31c.25.13.33.5.17.88-.17.4-.56.67-.86.58-.3-.08-.4-.49-.23-.9.07-.16.18-.3.3-.4v-2.7L14 6.74v5.08l-4.13 1.86c-.23.1-.5-.07-.5-.31 0-.13.08-.25.2-.3l3.8-1.75V7.7L10 9.3v2.02ZM13.69 6 9 4 4.31 6 9 8l2.04-.87.18.01c.43 0 .78-.19.78-.43 0-.23-.35-.42-.78-.42-.43 0-.78.19-.78.42v.02L9 7.34 5.85 6 9 4.66l3.92 1.67.77-.33Z" fill="#FCFFFA"/><defs><linearGradient id="a" x1="14.3" y1="2.89" x2="2.73" y2="14.63" gradientUnits="userSpaceOnUse"><stop stop-color="#FFC900"/><stop offset="1" stop-color="#FE6C00"/></linearGradient></defs></svg>