<!-- by TradingView --><svg width="18" height="18" viewBox="0 0 18 18" xmlns="http://www.w3.org/2000/svg"><path fill="#0245F5" d="M0 0h18v18H0z"/><path d="M7.04 5.44c-1 0-1.62.87-1.8 1.32L4 6.2C4.28 5.48 5.27 4 7.04 4c1.07 0 1.8.5 2.38.88h.02c.59.4 1.01.68 1.63.68.27 0 .62-.18.99-.53.35-.33.64-.74.79-1l1.15.75c-.2.36-.58.9-1.05 1.34-.46.43-1.12.88-1.88.88-1.02 0-1.73-.48-2.3-.86l-.05-.03c-.58-.39-1.02-.67-1.68-.67ZM7.04 9c-1 0-1.62.8-1.8 1.26L4 9.7c.28-.72 1.27-2.2 3.04-2.2 1.07 0 1.8.5 2.38.88h.02c.59.4 1.01.62 1.63.62.27 0 .62-.12.99-.47.35-.33.64-.74.79-1l1.15.75c-.2.36-.58.9-1.05 1.34-.46.43-1.12.88-1.88.88-1.02 0-1.73-.48-2.3-.86l-.05-.03A2.79 2.79 0 0 0 7.04 9ZM7.04 12.44c-1 0-1.62.87-1.8 1.32L4 13.2c.28-.72 1.27-2.2 3.04-2.2 1.07 0 1.8.5 2.38.88h.02c.59.4 1.01.68 1.63.68.27 0 .62-.18.99-.53.35-.33.64-.74.79-1l1.15.75c-.2.36-.58.9-1.05 1.34-.46.43-1.12.88-1.88.88-1.02 0-1.73-.48-2.3-.86l-.05-.03c-.58-.39-1.02-.67-1.68-.67Z" fill="#fff"/></svg>