<!-- by TradingView --><svg width="18" height="18" viewBox="0 0 18 18" xmlns="http://www.w3.org/2000/svg"><path fill="#290E3D" d="M0 0h18v18H0z"/><path d="m8.43 4.72-.06-1.07.87.6-.81.47Z" fill="#374CE8"/><path d="m8.78 6.88-1.03-.86 1.01.11.02.75Z" fill="#B96FD7"/><path d="m8.78 6.88-.02-.74.54.85-.52-.1Z" fill="#CE7EDD"/><path d="m10.09 6.25-1.33-.11.54.85.79-.74Z" fill="#AF69DC"/><path d="m9.6 5.27-.84.87 1.33.11-.49-.98Z" fill="url(#anad3v23x)"/><path d="m8.46 5.52-.7.5 1 .11-.3-.6Z" fill="#8354C3"/><path d="m8.38 3.64-.63 2.38.72-.5-.1-1.88Z" fill="url(#bnad3v23x)"/><path d="m9.23 4.26-.86-.6.86-.66v1.26Z" fill="#365AF7"/><path d="m8.64 3.13-.25.53.84-.65-.6.12Z" fill="#2D4EF2"/><path d="m10.22 4-1-1v1.28l1-.28Z" fill="#3865FF"/><path d="m8.43 4.72.02.81.31.61.84-.87-.37-1.02-.8.47Z" fill="url(#cnad3v23x)"/><path d="m10.23 4-1.01.25.38 1.03.63-1.29Z" fill="url(#dnad3v23x)"/><path d="M10.21 3.99 9.6 5.28l.49.97L10.2 4Z" fill="url(#enad3v23x)"/><path d="M7.25 9.67 5 8.93l1.72 2.09.53-1.35Z" fill="#F6609A"/><path d="M5 11.49V8.93l.53 1.8-.53.76Z" fill="url(#fnad3v23x)"/><path d="M5.53 10.74 5 8.93 6.72 11l-1.19-.26Z" fill="url(#gnad3v23x)"/><path d="m6 12.44-1-.95.53-.77.47 1.72Z" fill="url(#hnad3v23x)"/><path d="m6.75 11-1.24-.27.5 1.7.74-1.43Z" fill="#FD627F"/><path d="m7.2 11.49-1.2.95.72-1.45.47.5Z" fill="url(#inad3v23x)"/><path d="M7.24 9.66 6.72 11l.48.51.58-.25-.54-1.6Z" fill="url(#jnad3v23x)"/><path d="m7.22 13-.03-1.5.59-.24L7.22 13Z" fill="#E14B55"/><path d="m9 15-1.79-2 1.05-.28L9 15Z" fill="#FFD574"/><path d="m8.27 12.74-.5-1.49-.56 1.74 1.06-.25Z" fill="url(#knad3v23x)"/><path d="m8.99 13.25-.73-.52L9 15l.75-2.25-.76.5Z" fill="#F4B356"/><path d="M10.67 13.02 9 15l.75-2.25.92.27Z" fill="url(#lnad3v23x)"/><path d="m8.97 11-.71 1.73.73.53.77-.5L8.97 11Z" fill="url(#mnad3v23x)"/><path d="m8.97 11.02-.7 1.71-1.03-3.07 1.73 1.36Z" fill="url(#nnad3v23x)"/><path d="M10.7 9.67H7.23l1.74 1.37 1.71-1.37Z" fill="url(#onad3v23x)"/><path d="M6.95 8 5 8.93l2.24.74h3.5L13 8.93 11.01 8H6.95Z" fill="url(#pnad3v23x)"/><ellipse cx="9.05" cy="8.72" rx="1.27" ry=".25" fill="url(#qnad3v23x)"/><path d="m10.67 11.5-.46-.27.47-1.56.56 1.32-.57.5Z" fill="url(#rnad3v23x)"/><path d="m10.69 9.66-.93 3.1-.78-1.74 1.7-1.36Z" fill="url(#snad3v23x)"/><path d="m10.67 13.03-.92-.28.47-1.53.45.26v1.55Z" fill="url(#tnad3v23x)"/><path d="m11.99 12.5-1.32-1.02.57-.5.75 1.52Z" fill="url(#unad3v23x)"/><path d="m13 8.93-2.32.74.55 1.34L13 8.93Z" fill="url(#vnad3v23x)"/><path d="m12.48 10.72-1.25.29L13 8.92l-.52 1.8Z" fill="url(#wnad3v23x)"/><path d="m13 11.47-.54-.74.54-1.8v2.54Z" fill="url(#xnad3v23x)"/><path d="m12.46 10.71-1.23.3.76 1.5.47-1.8Z" fill="url(#ynad3v23x)"/><path d="m13 11.46-.54-.74-.48 1.77L13 11.46Z" fill="url(#znad3v23x)"/><defs><linearGradient id="anad3v23x" x1="9.42" y1="5.27" x2="9.42" y2="6.25" gradientUnits="userSpaceOnUse"><stop stop-color="#7187FE"/><stop offset="1" stop-color="#8862E1"/></linearGradient><linearGradient id="bnad3v23x" x1="7.39" y1="3.81" x2="8.13" y2="6" gradientUnits="userSpaceOnUse"><stop stop-color="#435DF9"/><stop offset="1" stop-color="#4C42D3"/></linearGradient><linearGradient id="cnad3v23x" x1="9.41" y1="4.72" x2="8.51" y2="5.29" gradientUnits="userSpaceOnUse"><stop stop-color="#2E42DE"/><stop offset="1" stop-color="#6C42C4"/></linearGradient><linearGradient id="dnad3v23x" x1="10.04" y1="4.14" x2="9.44" y2="4.85" gradientUnits="userSpaceOnUse"><stop stop-color="#3E78FD"/><stop offset="1" stop-color="#4A70F7"/></linearGradient><linearGradient id="enad3v23x" x1="9.65" y1="5.19" x2="10.13" y2="5.13" gradientUnits="userSpaceOnUse"><stop stop-color="#8359E3"/><stop offset="1" stop-color="#7562F3"/></linearGradient><linearGradient id="fnad3v23x" x1="4.93" y1="9.39" x2="5.41" y2="11.2" gradientUnits="userSpaceOnUse"><stop offset=".43" stop-color="#D13462"/><stop offset="1" stop-color="#FF7073"/></linearGradient><linearGradient id="gnad3v23x" x1="5.19" y1="9.24" x2="6.19" y2="10.86" gradientUnits="userSpaceOnUse"><stop stop-color="#AD214A"/><stop offset="1" stop-color="#F67B72"/></linearGradient><linearGradient id="hnad3v23x" x1="5.21" y1="10.91" x2="5.52" y2="12.46" gradientUnits="userSpaceOnUse"><stop stop-color="#FA7B62"/><stop offset="1" stop-color="#FFCC6D"/></linearGradient><linearGradient id="inad3v23x" x1="6.95" y1="11.15" x2="6.23" y2="12.15" gradientUnits="userSpaceOnUse"><stop stop-color="#FF6088"/><stop offset="1" stop-color="#FEC46C"/></linearGradient><linearGradient id="jnad3v23x" x1="7.24" y1="9.76" x2="7.24" y2="11.51" gradientUnits="userSpaceOnUse"><stop stop-color="#830E36"/><stop offset="1" stop-color="#EC4679"/></linearGradient><linearGradient id="knad3v23x" x1="7.74" y1="11.26" x2="7.74" y2="12.99" gradientUnits="userSpaceOnUse"><stop stop-color="#F15979"/><stop offset="1" stop-color="#ED9748"/></linearGradient><linearGradient id="lnad3v23x" x1="10.53" y1="13.1" x2="9.03" y2="14.82" gradientUnits="userSpaceOnUse"><stop stop-color="#FF5C8C"/><stop offset="1" stop-color="#F1984C"/></linearGradient><linearGradient id="mnad3v23x" x1="9" y1="11" x2="9" y2="13.26" gradientUnits="userSpaceOnUse"><stop offset=".27" stop-color="#DB4B82"/><stop offset="1" stop-color="#EF8F58"/></linearGradient><linearGradient id="nnad3v23x" x1="7.5" y1="10.75" x2="8.62" y2="10.61" gradientUnits="userSpaceOnUse"><stop stop-color="#E67C8E"/><stop offset="1" stop-color="#D55674"/></linearGradient><linearGradient id="onad3v23x" x1="9.21" y1="9.7" x2="8.95" y2="11" gradientUnits="userSpaceOnUse"><stop stop-color="#591560"/><stop offset="1" stop-color="#C55070"/></linearGradient><linearGradient id="pnad3v23x" x1="6.83" y1="9.5" x2="8.62" y2="6.92" gradientUnits="userSpaceOnUse"><stop stop-color="#C84083"/><stop offset=".43" stop-color="#A53B98"/><stop offset=".53" stop-color="#BB55B6"/><stop offset="1" stop-color="#744FD7"/></linearGradient><linearGradient id="qnad3v23x" x1="8.3" y1="9.02" x2="8.94" y2="7.93" gradientUnits="userSpaceOnUse"><stop stop-color="#220633"/><stop offset=".46" stop-color="#3E0E55"/><stop offset="1" stop-color="#370E65"/></linearGradient><linearGradient id="rnad3v23x" x1="10.73" y1="9.76" x2="10.73" y2="11.51" gradientUnits="userSpaceOnUse"><stop stop-color="#C058BB"/><stop offset="1" stop-color="#B63781"/></linearGradient><linearGradient id="snad3v23x" x1="10.37" y1="9.97" x2="9.84" y2="12.75" gradientUnits="userSpaceOnUse"><stop stop-color="#8C3078"/><stop offset="1" stop-color="#E17269"/></linearGradient><linearGradient id="tnad3v23x" x1="10.23" y1="11.24" x2="10.23" y2="13.02" gradientUnits="userSpaceOnUse"><stop stop-color="#EE919B"/><stop offset="1" stop-color="#FBBF84"/></linearGradient><linearGradient id="unad3v23x" x1="11" y1="11.06" x2="11.35" y2="12.5" gradientUnits="userSpaceOnUse"><stop stop-color="#DB62B6"/><stop offset="1" stop-color="#C03F89"/></linearGradient><linearGradient id="vnad3v23x" x1="11.04" y1="10.61" x2="11.23" y2="9.36" gradientUnits="userSpaceOnUse"><stop stop-color="#9E408C"/><stop offset="1" stop-color="#230E79"/></linearGradient><linearGradient id="wnad3v23x" x1="12.08" y1="8.98" x2="12.08" y2="11" gradientUnits="userSpaceOnUse"><stop offset=".64" stop-color="#260E76"/><stop offset="1" stop-color="#9E408C"/></linearGradient><linearGradient id="xnad3v23x" x1="12.73" y1="8.98" x2="12.73" y2="11.47" gradientUnits="userSpaceOnUse"><stop stop-color="#230D75"/><stop offset="1" stop-color="#A04F93"/></linearGradient><linearGradient id="ynad3v23x" x1="11.93" y1="10.72" x2="11.85" y2="12.5" gradientUnits="userSpaceOnUse"><stop stop-color="#57156D"/><stop offset="1" stop-color="#DB7391"/></linearGradient><linearGradient id="znad3v23x" x1="12.86" y1="11.05" x2="12.48" y2="12.49" gradientUnits="userSpaceOnUse"><stop stop-color="#914089"/><stop offset=".96" stop-color="#D78E83"/></linearGradient></defs></svg>