<!-- by TradingView --><svg width="18" height="18" viewBox="0 0 18 18" xmlns="http://www.w3.org/2000/svg"><path fill="#F0F3FA" d="M0 0h18v18H0z"/><path d="m11.06 6.68-.1-2.06.47-.03.13 2.44 1.28 1.22-.32.37-1.1-1.04L9.15 14l-.45-.17 2.26-6.36-5.57.92-.08-.5L10.64 7 7 4.65l.25-.43 3.8 2.46Z" fill="url(#a)"/><path fill-rule="evenodd" d="m6.75 4 4.54.16L13 8.51 8.76 15 5 8.1 6.75 4Zm.09 1.02.49 2.03-1.61.6 1.12-2.63Zm-1.22 3.2 2.7 4.96-.9-5.63-1.8.67Zm2.29-.68 4.42 1.1-3.41 5.23L7.9 7.54Zm4.42.58L8.16 7.1l2.86-2.28 1.3 3.31Zm-1.89-3.48-3.23-.12.55 2.26 2.68-2.14Z" fill="url(#b)"/><defs><linearGradient id="a" x1="10.25" y1="4.64" x2="8.95" y2="14.22" gradientUnits="userSpaceOnUse"><stop stop-color="#403481"/><stop offset=".31" stop-color="#594AA4"/><stop offset="1" stop-color="#413582"/></linearGradient><linearGradient id="b" x1="5.68" y1="4.46" x2="11.26" y2="11.89" gradientUnits="userSpaceOnUse"><stop stop-color="#BCC7FD"/><stop offset=".3" stop-color="#D3DCFF"/><stop offset=".58" stop-color="#A8A7FC"/><stop offset=".83" stop-color="#917CE3"/></linearGradient></defs></svg>