<!-- by TradingView --><svg width="18" height="18" viewBox="0 0 18 18" xmlns="http://www.w3.org/2000/svg"><path fill="url(#a)" d="M0 0h18v18H0z"/><path d="M6.03 13a.98.98 0 0 1-.76-.35l2.37-2.87 5.25 2.55c-.1.47-.63.64-.88.67H6.03Z" fill="url(#b)"/><path d="M7.64 5v4.77L5 9.4V5.97c0-.53.42-.97.95-.97h1.7Z" fill="url(#c)"/><path d="M7.64 9.78C5.54 8.88 5 7.72 5 7.26v4.54c0 .56.19.82.28.88a3.16 3.16 0 0 0 2.35-2.9Z" fill="url(#d)"/><path d="M8.54 7.82V5h1.6l-1.6 2.82Z" fill="url(#e)"/><path d="M8.54 5.01v2.8l.62-1.1a5.3 5.3 0 0 0-.62-1.7Z" fill="url(#f)"/><path d="M11.95 5.02h-.9L9.23 8.34 13 6.08c0-.59-.47-1.06-1.05-1.06Z" fill="url(#g)"/><path d="M11.06 5.02h-.01L9.23 8.34l1.56-.93c.46-1.1.4-1.98.27-2.4Z" fill="url(#h)"/><path d="m13 7.07-3.35 2h3.34v-2Z" fill="url(#i)"/><path d="M13 7.1v-.03l-3.35 2h2a3.8 3.8 0 0 0 1.34-1.98Z" fill="url(#j)"/><path d="M12.98 9.94H9.97l3 1.48V9.94Z" fill="url(#k)"/><path d="M12.98 9.96c-.23.3-.66.7-.98.98l-2.03-1h3v.02Z" fill="url(#l)"/><defs><linearGradient id="a" x1="3.35" y1="3.12" x2="21.9" y2="24.43" gradientUnits="userSpaceOnUse"><stop stop-color="#1A1E21"/><stop offset="1" stop-color="#06060A"/></linearGradient><linearGradient id="b" x1="5.66" y1="13.19" x2="10.35" y2="10.49" gradientUnits="userSpaceOnUse"><stop stop-color="#24E27F"/><stop offset="1" stop-color="#2B7F57"/></linearGradient><linearGradient id="c" x1="7.91" y1="5.09" x2="6.26" y2="9.75" gradientUnits="userSpaceOnUse"><stop stop-color="#29DA7E"/><stop offset=".18" stop-color="#21E07D"/><stop offset=".76" stop-color="#27895A"/></linearGradient><linearGradient id="d" x1="6.75" y1="7.99" x2="7.92" y2="12.2" gradientUnits="userSpaceOnUse"><stop stop-color="#25D87C"/><stop offset=".76" stop-color="#287F56"/></linearGradient><linearGradient id="e" x1="9.33" y1="5" x2="9.34" y2="7.82" gradientUnits="userSpaceOnUse"><stop stop-color="#317D59"/><stop offset=".55" stop-color="#5BE2A2"/></linearGradient><linearGradient id="f" x1="8.85" y1="5.01" x2="8.85" y2="7.82" gradientUnits="userSpaceOnUse"><stop stop-color="#26E080"/><stop offset=".65" stop-color="#278A5B"/></linearGradient><linearGradient id="g" x1="11.12" y1="5.02" x2="11.12" y2="7.07" gradientUnits="userSpaceOnUse"><stop stop-color="#327C59"/><stop offset="1" stop-color="#22D87B"/></linearGradient><linearGradient id="h" x1="10.5" y1="5.37" x2="10.49" y2="7.31" gradientUnits="userSpaceOnUse"><stop stop-color="#24E07F"/><stop offset="1" stop-color="#278859"/></linearGradient><linearGradient id="i" x1="11.98" y1="7.23" x2="11.3" y2="8.81" gradientUnits="userSpaceOnUse"><stop stop-color="#37815D"/><stop offset="1" stop-color="#21E781"/></linearGradient><linearGradient id="j" x1="11.11" y1="7.55" x2="11.38" y2="8.95" gradientUnits="userSpaceOnUse"><stop stop-color="#27D77D"/><stop offset="1" stop-color="#278B5A"/></linearGradient><linearGradient id="k" x1="11.47" y1="9.94" x2="11.47" y2="11.42" gradientUnits="userSpaceOnUse"><stop stop-color="#397F5D"/><stop offset="1" stop-color="#28CE78"/></linearGradient><linearGradient id="l" x1="11.38" y1="9.97" x2="11.38" y2="10.73" gradientUnits="userSpaceOnUse"><stop stop-color="#21E17E"/><stop offset="1" stop-color="#27965F"/></linearGradient></defs></svg>