<!-- by TradingView --><svg width="18" height="18" viewBox="0 0 18 18" xmlns="http://www.w3.org/2000/svg"><path fill="#0060FE" d="M0 0h18v18H0z"/><path d="M15 9A6 6 0 1 1 3 9a6 6 0 0 1 12 0Z" fill="#3A4FBE"/><path d="M14.65 9a5.65 5.65 0 1 1-11.3 0 5.65 5.65 0 0 1 11.3 0Z" fill="#fff"/><path d="M14.3 9A5.3 5.3 0 1 1 3.7 9a5.3 5.3 0 0 1 10.6 0Z" fill="#BFD4FF"/><path d="m6.8 10.8-.02-.01h-.02c-.08.1-.2.19-.34.26-.29.15-.6.25-.95.3-.28.04-.6.07-.74-.2a.55.55 0 0 1-.04-.3c.01-.13.03-.23.05-.3.15-.37.25-.58.3-.9.03-.13.04-.3.04-.5-.01-.52 0-.9 0-1.12.03-.25.08-.51.18-.78.08-.22.19-.4.3-.5.15-.14.31-.26.5-.39a1.48 1.48 0 0 1 1.75.09c.03.02.06.02.1 0 .35-.15.7-.22 1.06-.2.23.02.48.05.7.14l.37.15c.05.02.08.02.14 0 .42-.18.95-.2 1.36.01a12.27 12.27 0 0 1 .4.22l.04-.01c.14-.07.3-.04.46 0 .26.08.39.24.55.46l.08.2c.03.1.04.28.04.38 0 .04.02.08.04.12.06.09.16.3.13.42-.02.09-.13.17-.18.22-.1.1-.12.25-.13.4 0 .09.07.16.06.27 0 .03-.03.07-.07.13-.08.1-.1.22-.12.39-.04.32-.03.64.04.96.06.31.05.65-.13.91-.14.2-.4.26-.65.26-.36-.01-.72-.23-.95-.5l-.03-.02h-.04c-.28.1-.6.23-.9.29a4.04 4.04 0 0 1-3.17-.7l-.2-.15Z" fill="#070303"/><path d="M10.78 7.5v.01c.36-.11.66-.17.89-.18.3-.02.59.03.87.14.1.04.22.1.27.2v.02h-.02a4.49 4.49 0 0 0-.53-.12 2.27 2.27 0 0 0-1.43.2v.03l.35-.11c.26-.07.44-.1.56-.1.27.02.55.06.82.14.23.07.49.17.6.4.01.03 0 .04-.03.02A4.21 4.21 0 0 0 10.98 8a.27.27 0 0 0-.1.05c-.02 0-.02.02-.02.03-.02.09.05.22.09.3.18.37.64.5 1.02.47.34-.02.64-.11.88.15.04.05.1.1.1.16.04.14-.2.18-.32.2-.23.04-.44.06-.66.06a21.73 21.73 0 0 1-1.8-.09l-.9-.15c-.3-.05-.67-.16-1.1-.31a1.54 1.54 0 0 0-.34-.07l-.03.02c-.22.2-.17.5.08.66.18.13.4.22.62.35a8.98 8.98 0 0 0 1.18.56c.17.06.41.17.58.22.26.08.54.13.85.16.34.03.65-.05.92-.25.05-.04.1-.1.15-.2.07-.14.04-.31.01-.46-.02-.1-.09-.18-.17-.25a.05.05 0 0 1-.02-.05.05.05 0 0 1 .04-.04l.15-.02c.1 0 .13.1.19.2.14.23.15.46.1.7-.1.41-.72.54-1.07.59a2.2 2.2 0 0 1-.58-.02 6.83 6.83 0 0 1-1.66-.46l-.64-.27c-.31-.14-.6-.31-.84-.5-.4-.31-.44-.83-.05-1.16.06-.05.06-.07-.02-.05-.03 0-.06.03-.1.08a.86.86 0 0 0-.11.89.8.8 0 0 0 .16.21c.3.3.74.5 1.12.67a8.73 8.73 0 0 0 2.29.69c.1 0 .24 0 .35.02l.01.01v.02c-.05.1-.16.13-.32.2l-.24.08a4.04 4.04 0 0 1-3.39-.32c-.22-.13-.4-.24-.53-.34-.05-.03-.07-.06-.05-.12.13-.35.28-.77.34-1.18A33.88 33.88 0 0 0 7.4 7.9a.69.69 0 0 0 .25-.45c0-.07 0-.07-.03 0-.03.05-.12.24-.2.3a.03.03 0 0 1-.04-.03v-.47h-.02a.02.02 0 0 0-.01 0c-.02.26-.03.5-.06.74-.1.87-.18 1.41-.22 1.63-.04.22-.13.52-.26.9a.83.83 0 0 1-.46.5l-.5.19c-.2.06-.37.07-.63.1a.49.49 0 0 1-.28-.05c-.22-.1-.2-.4-.15-.63 0-.05.04-.14.1-.25.16-.34.25-.72.26-1.09 0-.41-.02-.9.04-1.36.07-.53.19-.95.6-1.29.26-.21.54-.35.85-.42.27-.05.6-.03.86.11a1.84 1.84 0 0 1 .34.23h.02a2.46 2.46 0 0 1 2.58.3h.03v-.02a6.07 6.07 0 0 0-.25-.22V6.6l.02-.01c.44-.17.91-.18 1.33.05l.35.2c.16.1.3.2.39.34l.03.06c0 .04-.03.05-.07.04a2.62 2.62 0 0 0-1.48.21Z" fill="#FEC903"/><path d="M12.93 7.6a.52.52 0 0 0-.27-.22c-.13-.05-.2-.05-.26-.16a2.1 2.1 0 0 0-.33-.39c-.03-.03-.02-.04.02-.05.24 0 .59.11.72.34.1.19.16.4.16.63h-.01c0-.05-.01-.12-.03-.16Z" fill="#FEC903"/><path d="M9.86 7.88c-.04.36-.3.6-.64.65a.73.73 0 0 1-.65-.2c-.14-.12-.16-.25-.15-.43.33-.07.65-.1.96-.1.15 0 .31.03.48.08Z" fill="#2579FB"/><path d="M8.42 7.9c-.01.18.01.31.15.43.2.18.41.25.65.2.35-.06.6-.29.64-.65l.38.12a.1.1 0 0 1 .05.14c-.1.21-.29.32-.52.4l-.27.06c-.43.07-.84 0-1.21-.2-.16-.1-.31-.18-.4-.35A.04.04 0 0 1 7.92 8h.02l.49-.1Z" fill="#fff"/><path d="M12.7 8.14c-.02.38-.47.54-.8.53a.57.57 0 0 1-.42-.21c-.1-.12-.09-.25-.08-.41.42-.05.89-.04 1.3.1Z" fill="#2579FB"/><path d="M11.4 8.05c0 .16-.01.3.08.4.12.14.26.21.43.22.32 0 .77-.15.8-.53l.41.14a.05.05 0 0 1 .04.07c-.03.08-.18.18-.26.22-.2.11-.47.18-.78.2-.46.02-1.02-.07-1.18-.58a.06.06 0 0 1 0-.05.06.06 0 0 1 .05-.03l.4-.06Z" fill="#fff"/><path d="M12.21 8.27c.08 0 .15-.03.15-.07 0-.05-.05-.1-.13-.1s-.15.03-.15.07c0 .05.06.1.13.1Z" fill="#fff"/><path d="M12.87 8.82a.01.01 0 0 1-.01.01h-.04l-.02-.01-.01-.02v-.04l.01-.01h.03l.02-.01h.01a.01.01 0 0 1 .01 0v.08Z" fill="#FF9FC0"/><path d="M10.21 10.4c.25.03.44.03.6 0 .1-.02.2-.08.3-.18.15-.17.12-.47.1-.68l.01-.02a.03.03 0 0 1 .02 0c.22 0 .4-.03.53.03.23.1.4.34.37.6-.05.4-.6.46-.93.48a3.11 3.11 0 0 1-1.17-.2A6.57 6.57 0 0 1 8.6 9.8c-.15-.07-.34-.19-.58-.34-.18-.12-.35-.33-.2-.54l.03-.01a.27.27 0 0 1 .16 0c.18.07.38.14.61.2a4.8 4.8 0 0 1 .55.5c.15.18.26.38.42.54.15.14.45.24.62.26Z" fill="#FB1C3E"/><path d="M9.11 9.22a9.6 9.6 0 0 0 1.93.29l.02.03c.04.21.05.55-.17.68a.71.71 0 0 1-.32.06c-.35.01-.7-.06-.95-.33a2.4 2.4 0 0 1-.19-.24c-.1-.15-.23-.3-.38-.45-.04-.03-.03-.05.02-.05l.04.01Z" fill="#FF9FC0"/><path d="M11.86 10.95c.22-.06.54-.2.61-.4.09-.25.1-.49.04-.71-.03-.12-.11-.21-.15-.31a.05.05 0 0 1 .04-.07 1.14 1.14 0 0 1 .4-.03.06.06 0 0 1 .03.04v.02c-.04.32-.08.62-.05.93l.05.34c.04.18.03.37 0 .57a.62.62 0 0 1-.45.45c-.37.11-.73-.03-1.03-.28a.59.59 0 0 1-.12-.13c-.02-.04-.02-.07.02-.1.08-.04.14-.1.19-.17a.12.12 0 0 1 .06-.05l.36-.1Z" fill="#FEC903"/></svg>