<!-- by TradingView --><svg width="18" height="18" viewBox="0 0 18 18" xmlns="http://www.w3.org/2000/svg"><path fill="url(#apcuvj4fw)" d="M0 0h18v18H0z"/><circle cx="8.28" cy="4.72" r=".72" fill="url(#bpcuvj4fw)"/><circle cx="10.5" cy="7.5" r="1.5" fill="url(#cpcuvj4fw)"/><path d="M9.16 10.42c-.1-.07-.27-.3-.3-.42-.17-.58-.74-1-1.4-1C6.64 9 6 9.6 6 10.35c0 .56.34 1.03.85 1.23a.9.9 0 0 1 .48.69c0 .94.83 1.73 1.84 1.73 1.01 0 1.83-.76 1.83-1.7 0-.82-.62-1.5-1.44-1.67a1.23 1.23 0 0 1-.4-.2Z" fill="url(#dpcuvj4fw)"/><defs><linearGradient id="apcuvj4fw" x1="3.35" y1="3.12" x2="21.9" y2="24.43" gradientUnits="userSpaceOnUse"><stop stop-color="#1A1E21"/><stop offset="1" stop-color="#06060A"/></linearGradient><linearGradient id="bpcuvj4fw" x1="7.56" y1="4" x2="8.76" y2="5.19" gradientUnits="userSpaceOnUse"><stop offset=".31" stop-color="#A4C6F3"/><stop offset="1" stop-color="#BDFD68"/></linearGradient><linearGradient id="cpcuvj4fw" x1="11.53" y1="6.47" x2="9.35" y2="8.56" gradientUnits="userSpaceOnUse"><stop offset=".15" stop-color="#A4C6F3"/><stop offset="1" stop-color="#BDFD68"/></linearGradient><linearGradient id="dpcuvj4fw" x1="6.35" y1="9.44" x2="9.91" y2="13.75" gradientUnits="userSpaceOnUse"><stop stop-color="#BDFD68"/><stop offset="1" stop-color="#A4C6F3"/></linearGradient></defs></svg>