<!-- by TradingView --><svg width="18" height="18" viewBox="0 0 18 18" xmlns="http://www.w3.org/2000/svg"><path fill="#F0F3FA" d="M0 0h18v18H0z"/><path fill-rule="evenodd" d="M15 9A6 6 0 1 1 3 9a6 6 0 0 1 12 0Zm-1.5 0a4.5 4.5 0 1 1-9 0 4.5 4.5 0 0 1 9 0Zm-8.03-.17c.06-1.11.86-3.33 3.55-3.33 1.83 0 2.87 1.3 3.16 1.96h-1.3c-.12-.18-.45-.55-.83-.55-.47 0-.89.55-1.03.93l-.03.07c-.16.4-.44 1.15-.44 2.47 0 1.4 1.17 2.38 2.21 1.04-.44-.07-1.32-.38-1.32-1.04-.03-.17.15-.5 1.15-.5 1.26 0 1.5.4 1.5.74 0 .34-.55 1.88-2.65 1.88C7.34 12.5 7 10.7 7 9.65c0-.83.55-2 .83-2.5.02-.04.03-.12-.12-.06-.2.07-1.47.98-1.47 2.44a2.5 2.5 0 0 0-.76-.7Z"/></svg>