<!-- by TradingView --><svg width="18" height="18" viewBox="0 0 18 18" xmlns="http://www.w3.org/2000/svg"><path fill="#EF8B33" d="M0 0h18v18H0z"/><path fill-rule="evenodd" d="M8.33 13.06v.02l-.53 1.6a.03.03 0 0 0 0 .03h.01l.01.01 1.1.28.49-1.68c0-.02.01-.03.02-.03h.04c1.63.35 3.77.09 4.07-1.67.16-.98-.33-1.72-1.1-2.22-.03-.02-.03-.04.01-.05a.3.3 0 0 1 .14-.02h.1c.79-.2 1.23-.68 1.3-1.47.13-1.38-1.1-2.03-2.22-2.42-.03-.01-.04-.03-.04-.06l.45-1.53c.02-.08 0-.13-.1-.15l-.92-.23a.07.07 0 0 0-.05.01l-.02.02-.01.02a16.79 16.79 0 0 1-.44 1.58h-.03l-.95-.21h-.02v-.01a.03.03 0 0 1-.01-.03l.39-1.52c0-.04 0-.06-.05-.07L8.93 3c-.04 0-.06 0-.07.04l-.42 1.52c-.01.03-.03.04-.07.04L6.3 4.08c-.03-.01-.06 0-.07.03l-.26.96c0 .03 0 .05.03.06.48.1.83.22 1.03.35.18.12.24.28.18.48l-1.48 4.66c-.27.37-.77.23-1.17.11a10.04 10.04 0 0 0-.13-.02.06.06 0 0 0-.03.03l-.4 1.02c-.02.04 0 .06.03.06l2.03.6.02.02v.02L5.57 14a.1.1 0 0 0 0 .05l1.18.39c.03 0 .05 0 .06-.04l.44-1.55c0-.02.01-.03.03-.04h.05l.96.2.02.01.01.02.01.02Zm3.93-6.14a6.65 6.65 0 0 0-2.44-.36c-1.43.07-2.19.97-1.82 2.09.2.37.61.56 1 .74.47.22.9.42.85.9-.04.44-.64.55-1.03.53a3.13 3.13 0 0 1-1.53-.42c-.03-.02-.05 0-.06.02l-.4.92v.03a6.21 6.21 0 0 0 2.16.46c1.32.06 2.65-.53 2.53-1.94-.05-.66-.59-.9-1.13-1.15-.25-.12-.5-.23-.7-.4-.31-.23-.16-.7.25-.77a3.06 3.06 0 0 1 1.91.31.05.05 0 0 0 .04 0l.01-.02.4-.84a.07.07 0 0 0 0-.06.07.07 0 0 0-.04-.04Z" fill="#fff"/></svg>