<!-- by TradingView --><svg width="18" height="18" viewBox="0 0 18 18" xmlns="http://www.w3.org/2000/svg"><path fill="url(#af2cki0lj)" d="M0 0h18v18H0z"/><path fill-rule="evenodd" d="M9 14c.94 0 1.82-.26 2.57-.71.39-.17.74-.3 1.1-.3.48 0 .75.38.96.67.13.18.24.34.37.34V9a5 5 0 1 0-5 5Zm.17-3a2.17 2.17 0 1 0 0-4.33 2.17 2.17 0 0 0 0 4.33Z" fill="url(#bf2cki0lj)"/><path d="M14 9a5 5 0 0 0-8.25-3.8A5 5 0 0 1 13 9.67v3.4c.28.11.47.37.62.59.14.19.25.34.38.34V9Z" fill="url(#cf2cki0lj)"/><path d="M14 9a5 5 0 0 0-8.7-3.37 5 5 0 0 1 8.36 3.7v4.39c.12.16.22.28.34.28V9Z" fill="url(#df2cki0lj)"/><path d="M9.04 14H9A5 5 0 0 1 5.4 5.55c.45-.14.94-.22 1.44-.22 1.9 0 3.38.81 4.07 2.2a2.16 2.16 0 1 0 .42 1.56l.01.4c0 1.79-.87 3.57-2.29 4.5Z" fill="url(#ef2cki0lj)"/><path d="M11.33 8.67C11.25 9.78 10.31 11 9.17 11 8.1 11 7.19 10 7 9c0 1 .6 3.67 2.33 3.67s2.17-2.34 2-4Z" fill="url(#ff2cki0lj)"/><path d="M9 14c.21-.1.14-.2.33-.33h-.1c-2.75 0-4.56-2.33-4.56-5.18 0-.56.08-1.1.24-1.6a4.2 4.2 0 0 0-.72.74A5 5 0 0 0 9 14c.05 0-.05 0 0 0Z" fill="url(#gf2cki0lj)"/><path d="M4 8.62a4.98 4.98 0 0 1 1.36-3.06c.57-.27 1.3-.4 1.96-.4 1.68 0 2.46.9 2.68 1.17a4.1 4.1 0 0 0-2.68-.83C5.44 5.5 4.59 7.2 4 8.62Z" fill="url(#hf2cki0lj)"/><defs><linearGradient id="af2cki0lj" x1="9" y1="0" x2="9" y2="18" gradientUnits="userSpaceOnUse"><stop stop-color="#423DA5"/><stop offset="1" stop-color="#111762"/></linearGradient><linearGradient id="bf2cki0lj" x1="7.5" y1="4.67" x2="11.17" y2="13.67" gradientUnits="userSpaceOnUse"><stop stop-color="#33D893"/><stop offset="1" stop-color="#24BD7D"/></linearGradient><linearGradient id="cf2cki0lj" x1="9" y1="4.33" x2="12" y2="13.17" gradientUnits="userSpaceOnUse"><stop stop-color="#4BE1A2"/><stop offset="1" stop-color="#4BE1A2" stop-opacity="0"/></linearGradient><linearGradient id="df2cki0lj" x1="6.5" y1="4.67" x2="13.67" y2="12.83" gradientUnits="userSpaceOnUse"><stop stop-color="#7CEFBE" stop-opacity=".15"/><stop offset=".51" stop-color="#90F9D4"/><stop offset="1" stop-color="#7CEFBE" stop-opacity="0"/></linearGradient><linearGradient id="ef2cki0lj" x1="7.67" y1="5.33" x2="7.67" y2="14" gradientUnits="userSpaceOnUse"><stop stop-color="#047444"/><stop offset=".42" stop-color="#0A955A"/><stop offset="1" stop-color="#10A969"/></linearGradient><linearGradient id="ff2cki0lj" x1="7" y1="9.63" x2="11.54" y2="9.89" gradientUnits="userSpaceOnUse"><stop stop-color="#098D53"/><stop offset="1" stop-color="#015C34"/></linearGradient><linearGradient id="gf2cki0lj" x1="4.33" y1="8.33" x2="8.67" y2="13.67" gradientUnits="userSpaceOnUse"><stop stop-color="#118B59"/><stop offset=".14" stop-color="#25B67B" stop-opacity=".97"/><stop offset="1" stop-color="#12A869" stop-opacity=".75"/></linearGradient><linearGradient id="hf2cki0lj" x1="9.17" y1="6" x2="4.5" y2="6.5" gradientUnits="userSpaceOnUse"><stop stop-color="#17BF79"/><stop offset="1" stop-color="#15BB6F"/></linearGradient></defs></svg>