<!-- by TradingView --><svg width="18" height="18" viewBox="0 0 18 18" xmlns="http://www.w3.org/2000/svg"><path fill="#F0F3FA" d="M0 0h18v18H0z"/><path fill-rule="evenodd" d="M7.15 9.29c.02.47.1.89.27 1.25.12.29.32.58.6.9a11.62 11.62 0 0 0 .95.9c.03.01.05.01.07 0 .35-.3.69-.63 1.01-1a2.87 2.87 0 0 0 .73-1.44c.05-.28.08-.6.07-.95 0-.27-.03-.6-.07-.96 0-.02-.02-.04-.05-.05a11.48 11.48 0 0 0-3.48 0 .05.05 0 0 0-.03.05c-.06.52-.09.96-.07 1.3Zm.11-.38c-.04.91.18 1.65.65 2.21.33.4.68.75 1.06 1.08h.05c.4-.34.77-.72 1.11-1.13.23-.29.4-.63.5-1.02a3.73 3.73 0 0 0 .1-1.17H7.27v.03Z" fill="#D50A30"/><path fill-rule="evenodd" d="M9.21 3h-.37a6.23 6.23 0 0 0-4.07 1.74A6.27 6.27 0 0 0 3 8.8v.4c.1 1.76.78 3.2 2.05 4.31A5.92 5.92 0 0 0 8.84 15h.38a5.96 5.96 0 0 0 5.74-5.42l.04-.35v-.37a5.93 5.93 0 0 0-2.33-4.6A5.92 5.92 0 0 0 9.2 3Zm5 8.16A5.6 5.6 0 0 0 13 5.01 5.59 5.59 0 0 0 9 3.35a5.6 5.6 0 0 0-5.22 3.49 5.6 5.6 0 0 0 1.23 6.15 5.59 5.59 0 0 0 6.15 1.23 5.59 5.59 0 0 0 3.06-3.06Z" fill="#D50A30"/><path d="M4.09 10.24a5.14 5.14 0 0 1 .72-4.09c.28-.4.6-.75.98-1.07h.04l.04.05c.02.01.02.03 0 .04a5.04 5.04 0 0 0-1.82 3.78 4.87 4.87 0 0 0 1.72 3.8c.02.02.02.03 0 .05l-.04.04h-.05a5.1 5.1 0 0 1-1.6-2.6ZM13.5 6.67a5.06 5.06 0 0 1-1.24 6.17l-.04-.03a.03.03 0 0 1 0-.05 4.89 4.89 0 0 0 1.73-3.84 4.92 4.92 0 0 0-1.82-3.77v-.02l.04-.04h.05c.55.46.98.99 1.28 1.58Z" fill="#D50A30"/><path d="M9.08 5.25h.08l.03.01.02.03v.02l-.01.02-.02.01h-.1l-.03.01v.11c0 .02 0 .03.02.04.12.08.14.17.06.27a.15.15 0 0 1-.14.06.18.18 0 0 1-.12-.06.16.16 0 0 1-.05-.13c.01-.06.04-.1.1-.13a.05.05 0 0 0 .04-.05v-.08c0-.03-.02-.04-.04-.04H8.8v-.05c0-.03 0-.04.04-.04h.09c.02 0 .03 0 .03-.03v-.09c0-.02 0-.03.02-.03h.04l.02.01v.1c0 .03.02.04.04.04ZM8.08 5.97c-.13.09-.13.26 0 .52a2.2 2.2 0 0 0 .34.49V7l-.02.01A.1.1 0 0 1 8.35 7a2.56 2.56 0 0 1-.59-.56.74.74 0 0 1-.16-.37c0-.13.05-.24.18-.32a.5.5 0 0 1 .39-.07c.13.02.24.1.35.2.06.07.05.1-.04.07a1.06 1.06 0 0 0-.2-.03.32.32 0 0 0-.2.05ZM10.01 6.2c0-.06 0-.12-.03-.17a.2.2 0 0 0-.15-.1.73.73 0 0 0-.34.03c-.02 0-.03 0-.04-.02-.02-.01-.01-.02 0-.04.12-.11.24-.19.37-.22a.47.47 0 0 1 .4.07c.13.08.18.19.17.32 0 .1-.05.23-.15.37a2.69 2.69 0 0 1-.63.58L9.58 7v-.04c.26-.28.4-.54.43-.77ZM8.97 6.97a2.08 2.08 0 0 1-.12-.57c-.02-.27.01-.43.11-.5a.08.08 0 0 1 .07 0c.02 0 .04.02.05.04.07.12.1.3.07.52a2.1 2.1 0 0 1-.14.53h-.02l-.02-.02ZM7.53 6.33c-.12.05-.14.15-.05.3A1.89 1.89 0 0 0 7.8 7c.08.09.07.1-.04.06a2.23 2.23 0 0 1-.49-.29.48.48 0 0 1-.16-.19.26.26 0 0 1 0-.19c.02-.06.06-.1.12-.15a.5.5 0 0 1 .24-.06c.02 0 .03 0 .04.02.03.03.04.07.05.1 0 .02 0 .03-.02.04ZM10.53 6.62c.08-.13.06-.22-.07-.3-.01 0-.02-.02-.01-.03l.05-.1.02-.01c.12 0 .22.02.3.08.1.06.12.16.09.28-.03.1-.12.2-.27.3-.11.08-.23.15-.37.2-.13.06-.15.04-.04-.06.12-.12.22-.24.3-.36Z" fill="#B29144"/><path d="M8.5 6.95a2.58 2.58 0 0 1-.35-.52c0-.03 0-.04.02-.05l.52-.13c.03 0 .04 0 .04.03.01.22.05.44.13.66 0 .02 0 .02-.02.02l-.3.01c-.01 0-.03 0-.04-.02ZM9.85 6.43c-.1.2-.22.37-.35.52a.06.06 0 0 1-.05.02h-.28c-.02 0-.03-.02-.02-.04.07-.21.1-.42.12-.65 0-.02.01-.03.04-.03l.51.13c.01 0 .02 0 .03.02v.03ZM8.19 6.99a2.77 2.77 0 0 1-.26.01c-.1-.15-.16-.27-.16-.35 0-.04.01-.05.04-.02a3.33 3.33 0 0 0 .38.36ZM10.2 6.78l-.13.22h-.22l-.02-.01v-.02l.38-.35h.02v.02l-.02.13v.01ZM10 7.17v.12c0 .03-.01.04-.03.03-.65-.06-1.29-.06-1.94 0-.02 0-.03 0-.03-.03v-.12c0-.02.01-.03.03-.03.64-.05 1.28-.05 1.94 0 .02 0 .03.01.03.03Z" fill="#B29144"/><path fill-rule="evenodd" d="M9.04 12.88c.48-.4.94-.83 1.36-1.32.74-.88 1-2.12.74-3.73 0-.05-.02-.1-.04-.15a4.32 4.32 0 0 0-.53-.14 10.6 10.6 0 0 0-3.2 0l-.45.1a.05.05 0 0 0-.03.05 6.69 6.69 0 0 0-.08 1.99c.09.78.4 1.45.92 2.03A10.81 10.81 0 0 0 9 12.89l.04-.01Zm-2-3.24c.07.66.28 1.2.61 1.61.39.48.81.9 1.28 1.3.04.03.1.03.14 0 .48-.42.89-.82 1.2-1.22.37-.44.6-.99.68-1.64.07-.5.05-1.1-.05-1.8a.07.07 0 0 0-.06-.07 12.16 12.16 0 0 0-3.7 0 .05.05 0 0 0-.04.04c-.1.68-.12 1.27-.06 1.78Z" fill="#B29144"/><path d="M9 8.34V8.1L9 8.08h.07c.01 0 .02 0 .02.02v.5c0 .03-.01.04-.04.04-.04 0-.07-.02-.08-.06a1 1 0 0 0-.08-.2c-.02-.03-.02-.03-.02 0l.01.22c0 .02 0 .03-.03.04h-.03c-.03 0-.05 0-.05-.04v-.49c0-.01 0-.03.02-.03h.08l.03.05.07.21c.01.03.02.03.02 0ZM9.26 8.56v.05c0 .02-.02.03-.04.03h-.05l-.02-.01v-.02l.1-.5c0-.02.02-.03.04-.03h.05c.02 0 .03 0 .03.03l.12.5s0 .02-.02.02a.1.1 0 0 1-.04.01c-.02 0-.04 0-.05-.03v-.05l-.01-.02-.03-.01H9.3c-.02 0-.03 0-.04.03ZM8.56 8.65c-.05 0-.1-.03-.13-.09a.37.37 0 0 1-.05-.2c0-.08.01-.15.05-.2.03-.06.08-.09.13-.09s.09.03.13.09c.03.05.05.12.05.2 0 .08-.02.15-.05.2-.04.06-.08.09-.13.09ZM8.2 8.4c0 .06-.02.13-.04.19-.02.08-.05.08-.07 0a.62.62 0 0 1-.03-.23c0-.06 0-.06-.02 0A.7.7 0 0 0 8 8.6L8 8.63a.24.24 0 0 1-.08.01c-.01 0-.02 0-.02-.02l.03-.46.02-.03.03-.01h.07c.02 0 .03.01.04.03a17.04 17.04 0 0 0 .03.14l.02-.02.02-.13c0-.02.02-.04.04-.04h.07c.03 0 .04 0 .04.03l.04.49c0 .01 0 .02-.02.02h-.07l-.01-.02-.01-.23H8.2ZM9.67 8.22a.18.18 0 0 0-.05.08.23.23 0 0 0-.02.1c0 .04.02.07.04.09.02.02.05.04.08.04.04 0 .06.03.07.06v.05h-.04a.27.27 0 0 1-.2-.09.27.27 0 0 1-.06-.18c0-.07.02-.13.06-.18a.26.26 0 0 1 .2-.1l.03.02c.01.01.02.02.01.04 0 .04-.03.06-.08.06l-.04.01ZM7.73 8.35c.06.05.1.1.1.12.03.06.02.1-.04.15-.04.03-.09.04-.13 0-.02 0-.02-.02-.01-.03a.1.1 0 0 1 .07-.04c.02 0 .04 0 .03-.03a.06.06 0 0 0-.02-.05c-.09-.05-.11-.12-.08-.22a.08.08 0 0 1 .08-.05c.06 0 .1.02.09.05 0 .02-.01.03-.03.03-.02 0-.04 0-.05.02a.03.03 0 0 0-.02.02v.03Z" fill="#fff"/><path d="M8.49 8.36c0 .1.03.18.07.18.03 0 .07-.08.07-.18 0-.1-.04-.17-.07-.17-.04 0-.07.08-.07.17Z" fill="#D50A30"/><path d="M10.34 8.39a.1.1 0 0 1 .04.02c.02.01.02.02 0 .03-.07.03-.09.08-.07.16 0 .02-.01.04-.03.04h-.02c-.03.01-.04 0-.04-.02v-.38c0-.02.01-.03.03-.03h.14c.02 0 .03.01.03.03 0 .04-.03.06-.07.05-.01 0-.03 0-.04.02a.06.06 0 0 0 0 .05c0 .02.01.03.03.03ZM7.47 8.55c-.03 0-.05.03-.06.07v.02h-.05c-.02 0-.02-.01-.02-.03l.07-.29c.05-.15.1-.15.14 0l.06.29c0 .01 0 .02-.02.03h-.03a.1.1 0 0 1-.04-.06c0-.03-.02-.04-.05-.03ZM9.85 8.57c.04.06.08.08.13.08s.1-.03.13-.08a.33.33 0 0 0 .05-.19.32.32 0 0 0-.05-.19c-.04-.05-.08-.07-.13-.07s-.1.02-.13.08a.33.33 0 0 0-.05.19c0 .07.01.13.05.18Zm.13-.02c-.04 0-.07-.08-.07-.17 0-.1.03-.17.07-.17.04 0 .07.08.07.17 0 .1-.03.17-.07.17Z" fill="#fff"/><path d="M10.43 8.33c.04-.08.1-.12.19-.12h.02c.02.02.02.04 0 .06l-.08.03a.07.07 0 0 0-.05.05.22.22 0 0 0 .01.16c0 .02.03.03.05.04l.08.02.02.03c0 .01 0 .02-.02.03-.05.02-.1.01-.14-.02a.28.28 0 0 1-.1-.13.18.18 0 0 1 .02-.15Z" fill="#fff"/><path d="M8.15 11.22a2.98 2.98 0 0 1-.43-.58 1.36 1.36 0 0 1-.22-.67v-.94c0-.02.02-.03.04-.03h.6c.01 0 .02 0 .02.03v2.18c0 .02 0 .02-.01 0ZM8.99 12.07l-.36-.34-.01-.02v-2.7c0-.01 0-.02.02-.02h.72c.02 0 .02 0 .02.02v2.72l-.37.34H9ZM9.86 9h.6c.03 0 .03 0 .03.02v.93c0 .2-.06.43-.2.68-.11.2-.26.4-.44.59h-.01v-2.2c0-.02 0-.03.02-.03Z" fill="#D50A30"/><path opacity=".5" d="M8.88 4.3c-1.03 0-1.92.5-2.23.74l-.3-.4c.36-.28 1.36-.85 2.53-.85 1.35 0 2.33.5 2.66.67l.05.03-.22.44-.06-.02a5.27 5.27 0 0 0-2.43-.62ZM8.88 13.75c-1.03 0-1.92-.5-2.23-.75l-.3.4c.36.28 1.36.85 2.53.85a5.76 5.76 0 0 0 2.71-.7l-.22-.44-.06.02c-.32.17-1.2.62-2.43.62Z" fill="#363635"/></svg>