<!-- by TradingView --><svg width="18" height="18" viewBox="0 0 18 18" xmlns="http://www.w3.org/2000/svg"><path fill="#1F2025" d="M0 0h18v18H0z"/><path d="M12.5 10.9a2.9 2.9 0 0 1-.8-.46c-.2-.16-.1-.6-.05-.82.02-.1.04-.3.05-.56l.02-.17.16-1.07c.03-.24.1-.5.2-.76v-.03l-1.14-.92a.07.07 0 0 0-.08 0c-.31.23-.7.51-1.2.84-.04.03-.1.04-.17.01a2.24 2.24 0 0 1-.24-.09l-.28-.11a2.67 2.67 0 0 0-.25-.08 1.21 1.21 0 0 1-.24-.08 7.54 7.54 0 0 0-.8-.33c-.03-.01-.05 0-.05.03-.01.06-.03.1-.06.11a.96.96 0 0 0-.24.2.77.77 0 0 1-.21.23.57.57 0 0 0-.2.2c-.06.03-.1.06-.12.1l-.1.1c-.05.02-.09.06-.11.12l-.06.08a.01.01 0 0 0 0 .02h.03l.03.03.17.36c0 .06.02.1.05.15l.03.11c.1.08.13.15.13.22-.03.05-.03.11 0 .18.11.39.2.68.28.88l.19.58.15.48c.08.24.06.36-.14.51-.24.2-.43.33-.56.4l-.11-.19.33-.24.28-.24a.04.04 0 0 0 0-.05l-.9-2.86c-.03-.08-.12-.16-.28-.25a.13.13 0 0 1-.04-.07l.03-.06A1289.99 1289.99 0 0 1 7.64 6a.1.1 0 0 1 .05 0l.86.33 1 .4a.04.04 0 0 0 .03 0l1.28-.91c.04-.02.08-.02.1 0A47.52 47.52 0 0 0 12.4 7a.05.05 0 0 1 0 .03c-.13.16-.22.27-.25.5-.12.81-.23 1.66-.34 2.56-.01.1 0 .15.09.2.19.15.4.26.6.35.07.05.16.09.25.12.1.04.15 0 .22-.06.42-.4.68-.9.79-1.48.04-.23.05-.51.05-.86 0-.45-.12-.86-.35-1.21a8.51 8.51 0 0 0-1.64-1.83c-.2-.18-.4-.3-.58-.38a4.62 4.62 0 0 0-.98-.3c-.02 0-.02 0-.02.02l.08.33c.04.24.13.44.01.7l-.16.13c-.32.09-1.35.27-1.57-.06A17.2 17.2 0 0 1 8 4.8c-.02-.05-.07-.07-.13-.05a6.97 6.97 0 0 0-1.93 1.06c-.35.36-.66.76-.91 1.2-.07.13-.13.26-.18.4-.2.4-.33.8-.39 1.18-.08.58.01 1.16.28 1.72l.27.48c-.01.03 0 .08.04.14-.16.06-.28.05-.36-.03-.08-.07-.14-.2-.18-.4a3.31 3.31 0 0 1-.38-1.58c0-.43.1-.84.27-1.23.13-.29.22-.56.38-.83.06-.1.1-.34.12-.5.04-.53.07-1.1.21-1.61.11-.39.17-.62.58-.66.37-.04.73 0 1.07.11.22.08.44.23.65.31.29.12.49 0 .65-.27.24-.4.36-.67.68-.98.29-.27.83-.44 1.02.05l.14.41c.05.15.1.42.2.59 0 .01.02.02.04 0 .21-.1.4-.26.57-.33.28-.1.58-.16.9-.2.31-.03.55.07.7.37.15.34.27.7.33 1.09.02.1.02.3.01.56 0 .02 0 .04.02.06.24.33.68.8.9 1.17.37.61.5 1.3.4 2.07-.03.17-.08.34-.17.5l-.23.5c-.23.48-.57.68-1.07.8Z" fill="#0F0F10"/><path d="m9.31 3.14.05.16c.03.06.04.11.05.16.05.44.13.87.24 1.3.01.06.02.17.02.35 0 .15-.13.3-.2.4a.38.38 0 0 1-.1.07c-.06.04-.08.07-.08.11-.09.02-.17.02-.27.02-.13 0-.21-.05-.25-.14l.18-2.27.36-.16Z" fill="#5D5D5D"/><path d="M9.29 5.7c0-.05.02-.08.08-.11a.38.38 0 0 0 .1-.09c.07-.09.2-.24.2-.4 0-.17 0-.28-.02-.34-.1-.43-.19-.86-.24-1.3 0-.05-.02-.1-.05-.16l-.05-.16c.16-.02.25.03.3.13.15.44.32 1.06.5 1.84.06.26.14.48-.19.53-.18.04-.39.05-.63.05Z" fill="#8B8A88"/><path d="m8.95 3.3-.18 2.27-.62-.99a.05.05 0 0 1 0-.05c.19-.45.46-.86.8-1.23Z" fill="#B0B0AD"/><path d="M11.94 5.12c.02-.18-.01-.38-.1-.59a.09.09 0 0 0-.04-.04.08.08 0 0 0-.06 0l-.54.18a3.54 3.54 0 0 0-.8-.25.02.02 0 0 1 0-.02v-.01c.45-.34.97-.5 1.56-.49l.04.02c.09.08.15.17.2.3.18.44.28.9.3 1.37.01.04 0 .05-.03.02l-.53-.5ZM6.5 5.12l-.39-.1a.98.98 0 0 0-.32-.01.04.04 0 0 0-.04.03c-.06.22-.06.43-.02.64l-.52.61a9.43 9.43 0 0 1-.04-.59c0-.41.06-.82.2-1.2.05-.12.1-.2.24-.21a2.45 2.45 0 0 1 1.73.38c.02.02.02.04 0 .05-.3.1-.57.24-.83.4Z" fill="#FEC295"/><path d="M11.94 5.12a2.03 2.03 0 0 0-.48-.33l-.26-.12.54-.18h.06c.02 0 .03.02.04.04.09.21.12.4.1.59Z" fill="#FD7F47"/><path d="M12.5 10.64c.2-.38.37-.8.5-1.23.1.09.19.12.28.1.18-.05.26-.26.16-.43a.88.88 0 0 0-.23-.24v-.51c.06 0 .12 0 .19-.02.29-.07.21-.45 0-.54-.14-.05-.22-.1-.25-.12-.1-.33-.2-.56-.27-.7a4.9 4.9 0 0 0-.97-1.16c-.11-.1-.27-.2-.47-.3a7.8 7.8 0 0 1-.7-.44c-.1-.06-.24-.08-.42-.06l-.08-.33c0-.02 0-.03.02-.02.33.06.65.16.98.3.18.08.38.2.58.38a8.51 8.51 0 0 1 1.64 1.83c.23.35.34.76.35 1.21 0 .35-.01.63-.05.86-.1.59-.37 1.08-.79 1.48-.07.07-.12.1-.22.06-.1-.03-.18-.07-.24-.12Z" fill="#B0B0AD"/><path d="M10.17 5.82c-.2.28-.49.43-.7.59-.09.06-.19.1-.29.07-.2-.06-.41-.1-.63-.15L7.7 6a.1.1 0 0 0-.1.02 1290.05 1290.05 0 0 0-1.42 1.44l.04.07c.04.27.1.53.19.77a11.3 11.3 0 0 0 .38.98c.06.12.08.28.12.37l.1.24c.13.32.3.63.16.86-.04.08-.06.14-.05.18l-.33.24c-.07-.35-.23-.66-.6-.76.07-.1.18-.2.33-.3.26-.17.22-.63-.15-.66-.07 0-.2.05-.37.18l-.31.21-.17-.4.5-.36c.17-.11.29-.24.22-.46-.05-.18-.26-.27-.45-.2s-.35.2-.51.3l-.12-.3V8.4l.02-.02c.2-.12.36-.34.25-.58-.09-.2-.24-.3-.46-.27a.07.07 0 0 1-.06-.01c-.03-.03-.04-.06-.05-.11.05-.14.1-.27.18-.4.25-.44.56-.84.91-1.2a6.97 6.97 0 0 1 1.93-1.06c.06-.02.1 0 .14.05.16.29.36.61.59.96.22.33 1.25.15 1.57.06ZM13.15 7.65c-.13-.05-.3-.14-.42-.1a.28.28 0 0 0-.16.41c.03.04.08.08.16.11.17.08.33.17.48.26v.51c-.14-.1-.25-.19-.34-.24-.35-.2-.64.25-.33.46.22.14.38.26.46.35a8 8 0 0 1-.5 1.23c-.2-.09-.41-.2-.6-.34-.08-.06-.1-.1-.09-.21.11-.9.22-1.75.34-2.56.03-.23.12-.34.24-.5a.04.04 0 0 0 0-.06c-.5-.4-.98-.77-1.43-1.15-.02-.02-.06-.02-.1 0 0-.05-.03-.1-.1-.12-.11-.05-.14-.06-.28-.03a.54.54 0 0 1-.15.01c.12-.25.03-.45 0-.7.17-.01.31.01.4.07.25.17.49.31.71.43.2.1.36.2.47.3.4.36.72.74.97 1.17.08.14.17.37.27.7Z" fill="#8B8A88"/><path d="m6.5 5.12-.77.56c-.04-.2-.04-.42.02-.64 0-.02.02-.03.04-.03.1-.01.22 0 .32.02l.4.1Z" fill="#FD7F47"/><path d="m10.86 5.82-1.28.9a.04.04 0 0 1-.03.01l-1-.4c.22.04.43.1.63.15.1.02.2 0 .29-.07.21-.16.5-.31.7-.59l.16-.14.15-.01c.14-.03.17-.02.29.03.06.03.09.07.09.12Z" fill="#B0B0AD"/><path d="m11.88 7.82-.53.02c.2-.42.05-.9-.43-.93-.08-.01-.08-.03-.02-.07.1-.05.17-.1.23-.18.1-.1.1-.2.01-.3v-.02c-.1-.1-.22-.11-.34-.02a2.9 2.9 0 0 1-.73.42c-.08.03-.13.06-.15.1-.13.2.04.41.26.37l.2-.07c.06-.02.07 0 .04.05a.55.55 0 0 0-.08.48c.12.36.45.51.8.36l.03.12-.01.05c-.09.13-.08.26.04.37.13.14.3.25.52.32l-.02.17c-.4-.19-.77-.4-1.12-.65-.15-.1-.28-.11-.45-.14l.02-.09a.08.08 0 0 0-.05-.08l-.03-.01-.6.05c-.1.01-.15.07-.14.17-.03.05-.1.08-.2.1-.09.02-.17.12-.23.22-.36.59-.85 1.04-1.46 1.34l-.19-.58c.12 0 .21-.04.3-.12.06-.06.04-.1-.05-.09-.06 0-.24-.04-.26-.13-.02-.05 0-.08.04-.1.03.02.05.03.06.02.03 0 .03 0 .02-.03l-.03-.05a.3.3 0 0 1 .07-.1c.01 0 .02-.02 0-.04l-.06-.12a.1.1 0 0 1 .04-.05c.07-.02.14.02.2.12l.03.01a.32.32 0 0 1 .13-.01l.01-.01.01-.02a.03.03 0 0 0-.01-.04c-.24-.1-.37-.29-.39-.53 0-.04.02-.05.06-.03.02.07.05.14.1.2.12.24.33.35.62.33a.5.5 0 0 0 .31-.14c.02 0 .04-.01.05-.03.06.03.1.03.14-.02.1-.1.26-.28.24-.43h-.02v.01l-.01.04c0 .03-.02.03-.03 0a.13.13 0 0 1-.02-.08c.04-.1.06-.2 0-.3a.95.95 0 0 1-.05-.13c-.01-.06-.07-.1-.1-.17V7.3l.07-.22-.02.22c0 .02 0 .03.02.04l.1.1c-.03.01-.03.05.02.1l.05.02.2.02h.01l.01-.02a.03.03 0 0 0 0-.04l-.07-.04c.06 0 .09-.03.08-.07a1.71 1.71 0 0 0-.13-.24c.05.02.09.05.12.09a.03.03 0 0 0 .03 0 .03.03 0 0 0 .01-.01l.1-.38.24.1c.07.02.13.01.18-.02a36.93 36.93 0 0 0 1.23-.86l.04.02 1.14.92v.03c-.1.26-.17.52-.2.76Z" fill="#FEC295"/><path d="m8.97 6.76-.1.34a.05.05 0 0 0 .01.05l.03.01h.02l.06.01c.07.13.12.2.13.24 0 .04-.02.06-.08.08a.45.45 0 0 1-.21-.05l-.11-.1a.05.05 0 0 1-.02-.04l.02-.22v-.25c0-.04-.03-.06-.1-.05a.06.06 0 0 0-.04.04c-.03.12-.1.2-.2.23v.02l.01.02a.2.2 0 0 1 .17.12c.01.02 0 .03-.02.02l-.17-.07a.12.12 0 0 0-.08 0h-.06c-.03.02-.03.03 0 .04.21.1.36.22.44.34.06.1.1.23.13.41 0 .03 0 .06.02.09.01.03.02.02.03 0v-.05c0-.01 0-.02.01-.01h.02c.02.15-.14.32-.24.44-.05.04-.08.04-.14.01a.6.6 0 0 0 .17-.5c-.01-.07-.08-.12-.1-.2-.14-.38-.57-.52-.9-.27-.08.06-.14.2-.2.3-.04.05-.05.15-.05.3-.04 0-.06 0-.06.04.02.24.15.42.39.53a.03.03 0 0 1 .01.02.03.03 0 0 1 0 .02v.02h-.02c-.05 0-.09 0-.13.02h-.03c-.06-.1-.13-.15-.2-.13.01-.1-.03-.18-.12-.24h-.02v.04c.1.1.1.19.04.27a.05.05 0 0 0 0 .05v.02c.03 0 .04 0 .04-.02s0-.05.02-.07l.07.12v.04a.3.3 0 0 0-.08.1v-.04c-.01-.03-.03-.03-.04-.01-.03.03-.04.07 0 .11-.05.02-.07.05-.05.1.02.1.2.13.26.13.1 0 .1.03.04.1a.43.43 0 0 1-.29.11c-.07-.2-.17-.5-.28-.88a.26.26 0 0 1 0-.18c.05-.13.09-.26.1-.4l.03-.08a15.25 15.25 0 0 1 0-.27.47.47 0 0 0 .17-.29.1.1 0 0 1 .03-.04c.07-.07-.01-.18-.05-.25v-.03c.01-.02.02-.02.04-.02l.03.04c.02.08.07.12.15.13a.03.03 0 0 0 .02 0 .03.03 0 0 0 .01-.03c0-.14.06-.25.17-.32l.01-.02.02-.23c0-.02 0-.04-.03-.04a.26.26 0 0 1-.1-.07c.03-.02.05-.05.06-.1 0-.04.02-.05.05-.04.27.1.54.2.8.33.07.04.15.06.24.08l.25.08Z" fill="#CE8754"/><path d="m11.35 7.84-.21.19c-.35.15-.68 0-.8-.36a.55.55 0 0 1 .08-.48c.03-.05.02-.07-.03-.05l-.21.07c-.22.04-.4-.17-.26-.37.02-.04.07-.07.15-.1.24-.1.49-.23.73-.42.12-.1.23-.08.33.02l.01.02c.09.1.09.2 0 .3a.84.84 0 0 1-.24.18c-.06.04-.06.06.02.07.48.04.63.5.43.93Z" fill="#531704"/><path d="M7.57 6.41c.02.03.06.05.1.07.02 0 .03.02.03.04l-.02.23v.01l-.01.01c-.1.07-.16.18-.17.32a.03.03 0 0 1 0 .02.03.03 0 0 1-.03.01c-.08 0-.13-.05-.15-.13 0-.02-.02-.03-.03-.04-.02 0-.03 0-.03.02V7a.66.66 0 0 1-.14-.16.77.77 0 0 0 .2-.22.96.96 0 0 1 .25-.2Z" fill="#FEC295"/><path d="M7.5 6.55a.01.01 0 0 1 .02 0 .1.1 0 0 1 .03.04l.02.04a.13.13 0 0 1-.03.1l-.02.01a.13.13 0 0 1-.08.05.1.1 0 0 1-.08-.02v-.02l.15-.2Z" fill="#CB0E0F"/><path d="M7.71 6.75a.5.5 0 0 1 .09-.15l.02-.02.03.01c.15.09.05.28-.04.36a.1.1 0 0 1-.1.03.1.1 0 0 1-.06-.08c0-.04 0-.07.04-.1a.13.13 0 0 0 .02-.05Z" fill="#5D5D5D"/><path d="M8.1 7h-.15c-.03 0-.04 0-.03-.03l.07-.26s0-.02.02-.03l.02-.01h.02c.04-.02.05 0 .04.03-.04.15-.04.24 0 .28.02.02.02.03 0 .03Z" fill="#FBEDA2"/><path d="M8.23 6.72c-.06.14-.02.22.14.25-.16.04-.24-.05-.22-.2 0-.03.03-.05.08-.05Z" fill="#B0B0AD"/><path d="m8.72 7.08-.07.22v.05c.03.07.09.1.1.17l.06.12c.05.1.03.2 0 .31a1.06 1.06 0 0 0-.14-.41 1.08 1.08 0 0 0-.44-.34c-.03-.01-.03-.02 0-.03l.06-.02h.08l.17.08c.03 0 .03 0 .02-.02a.2.2 0 0 0-.17-.12c-.01 0-.02 0-.02-.02v-.01h.01c.1-.04.17-.12.2-.24a.06.06 0 0 1 .05-.04c.06 0 .1.01.1.05v.25ZM8.97 6.76l.28.11-.1.38a.03.03 0 0 1-.01.02h-.02l-.01-.01a.3.3 0 0 0-.12-.09h-.06a.05.05 0 0 1-.05-.02l-.01-.02V7.1l.1-.34Z" fill="#FFFFFD"/><path d="M7.12 6.84c.04.07.09.12.13.16.04.07.12.18.05.25a.1.1 0 0 0-.03.04.47.47 0 0 1-.18.28c0-.28-.05-.46-.17-.53.04-.07.1-.14.2-.2Z" fill="#FFDFC7"/><path d="M6.92 7.04c.12.07.17.25.17.53a15.47 15.47 0 0 0 0 .28.41.41 0 0 0-.02.08c-.01.14-.05.27-.1.4 0-.07-.04-.14-.13-.22.02-.01.03-.04.03-.07a.1.1 0 0 1 .04-.08.13.13 0 0 0 .03-.04.57.57 0 0 0-.03-.55.42.42 0 0 1-.05-.12c-.01-.05-.03-.09-.06-.11.02-.04.06-.07.12-.1Z" fill="#531704"/><path d="M6.8 7.14c.03.02.05.06.06.11.01.05.03.08.05.12.1.17.11.36.03.55l-.03.04a.1.1 0 0 0-.04.08c0 .03 0 .06-.03.07l-.03-.1h.01c.01 0 .02 0 .02-.02.05-.16.1-.43.01-.57-.02-.04-.03-.03-.04 0-.04.14-.06.28-.05.43L6.6 7.5a.05.05 0 0 0-.03-.02h-.02a.01.01 0 0 1-.01-.02.01.01 0 0 1 0-.01l.06-.08.08.19h.01a.01.01 0 0 0 .01 0 .4.4 0 0 0 .01-.3l.1-.11Z" fill="#CE8754"/><path d="M6.7 7.25a.4.4 0 0 1-.01.3h-.02l-.08-.19c.02-.06.06-.1.11-.11Z" fill="#FEC295"/><path d="M7.3 7.78h-.02a.06.06 0 0 1-.03-.04v-.07a.6.6 0 0 1 .07-.18l.02-.03a.5.5 0 0 1 .12-.14c.05-.04.08-.04.1-.03h.01v.01l-.28.48Z" fill="#FFFFFD"/><path d="M8.5 8.43a.14.14 0 0 1-.05.03l-.01-.06c0-.02-.02-.03-.03-.02-.07.04-.18.11-.24.13-.23.05-.42-.02-.58-.21v-.05c.01-.02.02-.03.03-.01.22.29.48.32.77.1.04-.03.04-.05-.02-.06-.02 0-.03-.02-.03-.04a.43.43 0 0 0 .1-.2.05.05 0 0 1 .02-.05h.05c.02 0 .03-.01.03-.03v-.03c.01-.05.02-.08 0-.13a6.8 6.8 0 0 0-.12-.17.45.45 0 0 0-.29-.19.43.43 0 0 0-.26.02 1.1 1.1 0 0 0-.23.14c-.12.1-.15.38-.1.52.04.1.03.16-.02.15a.62.62 0 0 1-.1-.2c0-.16 0-.26.04-.3.07-.11.13-.25.21-.3.33-.26.76-.12.9.26.02.08.09.13.1.2a.6.6 0 0 1-.17.5Z" fill="#35215E"/><path d="M6.81 8a.32.32 0 0 1-.05-.15c0-.15 0-.29.05-.43 0-.03.02-.04.04 0 .08.14.04.4 0 .57l-.03.02h-.01Z" fill="#FFFFFD"/><path d="M4.85 7.41c0 .05.02.08.05.1a.07.07 0 0 0 .06.02c.22-.02.37.07.46.27.1.24-.05.46-.25.58l-.02.02v.03l.12.3c-.15.13-.47.34-.46.57 0 .13.05.22.11.27.18.15.38.1.59-.13l.17.4c-.1.09-.22.17-.27.28-.08.15-.06.3.06.46-.15.12-.3.18-.46.21-.15-.25-.24-.4-.27-.48a2.94 2.94 0 0 1-.28-1.72c.06-.39.2-.78.4-1.18Z" fill="#5D5D5D"/><path d="M8.42 7.63c-.02 0-.04.03-.06.1a.22.22 0 0 1-.08-.06.09.09 0 0 0-.04-.04.65.65 0 0 0-.2-.05c-.35-.04-.47.52-.23.71.08.07.16.1.26.09a.4.4 0 0 0 .27-.14c0 .02.01.04.03.04.06.01.06.03.02.06-.3.22-.55.19-.77-.1-.01-.02-.02-.01-.03 0v.05c.16.2.35.27.58.22.06-.02.17-.09.24-.13.01 0 .02 0 .03.02l.01.06a.5.5 0 0 1-.31.14c-.3.02-.5-.09-.62-.33.05 0 .06-.04.02-.15-.05-.14-.02-.42.1-.52l.23-.14a.43.43 0 0 1 .26-.02c.12.02.22.09.29.2Z" fill="#4D37C1"/><path d="M6.21 7.53c.16.09.25.17.28.25l.9 2.86v.05l-.28.24c0-.04 0-.1.05-.18.14-.23-.03-.54-.16-.86l-.1-.24c-.04-.1-.06-.25-.12-.37a3.78 3.78 0 0 1-.56-1.75Z" fill="#B0B0AD"/><path d="M13.15 7.65c.03.03.11.07.24.12.22.1.3.47 0 .54a.73.73 0 0 1-.18.02 5.87 5.87 0 0 0-.48-.26c-.08-.03-.13-.07-.16-.1a.28.28 0 0 1 .16-.42c.12-.04.29.05.42.1Z" fill="#D1CBCB"/><path d="M8.36 7.74c0 .04.02.07.05.11a.1.1 0 0 1 .02.05c.02.08.05.1.11.03v.03c0 .02-.01.03-.03.02L8.46 8a.05.05 0 0 0-.03.04.43.43 0 0 1-.1.2.4.4 0 0 1-.26.15.34.34 0 0 1-.26-.09c-.24-.2-.12-.75.23-.71.08 0 .15.03.2.05.02 0 .03.02.04.04l.08.07Z" fill="#8EF2F9"/><path d="m8.42 7.63.11.17c.03.05.02.08.01.13-.06.06-.1.05-.1-.03a.1.1 0 0 0-.03-.05.25.25 0 0 1-.05-.11c.02-.08.04-.12.06-.1Z" fill="#FFFFFD"/><path d="m11.88 7.83-.16 1.06a1.35 1.35 0 0 1-.52-.32c-.12-.11-.13-.24-.04-.37v-.05a.39.39 0 0 0-.02-.12l.2-.2h.54Z" fill="#FFDFC7"/><path d="M10.13 8.27c-.1.15-.27.42-.5.3a1.04 1.04 0 0 1-.3-.25c-.01-.11.03-.17.14-.18a10.32 10.32 0 0 1 .63-.04.08.08 0 0 1 .04.05v.03l-.01.1Z" fill="#D66E60"/><path d="M10.13 8.27c.17.03.3.04.45.15.35.24.72.46 1.12.64-.01.27-.03.46-.05.56-.04.22-.15.66.05.82a2.9 2.9 0 0 0 .83.5.02.02 0 0 1 0 .02h-.22c-.13.01-.19-.07-.3-.11-.42-.18-.68-.01-1.14.09-1.17.25-2.35.46-3.53.62-.06.01-.11.01-.17-.01-.1-.05-.19-.11-.28-.18a5 5 0 0 0 .56-.4c.2-.16.22-.28.14-.52l-.15-.48c.61-.3 1.1-.75 1.46-1.34.06-.1.14-.2.23-.21.1-.02.17-.06.2-.1.09.1.19.19.3.25.23.12.4-.15.5-.3Z" fill="#FFFFFD"/><path d="M7.38 8.58a.1.1 0 0 0-.04.05.14.14 0 0 0-.02.07c0 .02-.01.03-.03.02l-.01-.02a.05.05 0 0 1 0-.05c.07-.08.05-.17-.04-.27v-.03h.02c.1.05.13.13.12.23Z" fill="#531704"/><path d="M5.5 9.44c-.2.23-.4.28-.58.13-.06-.05-.1-.14-.1-.27-.02-.23.3-.44.45-.57.16-.12.32-.24.51-.31s.4.02.45.2c.07.22-.05.35-.23.46a6.4 6.4 0 0 0-.5.36Z" fill="#B0B0AD"/><path d="M13.21 8.84c.1.08.18.16.23.24.1.17.02.38-.16.43-.1.02-.19-.01-.28-.1-.08-.09-.24-.2-.46-.35-.31-.2-.02-.66.33-.46.09.05.2.13.34.24Z" fill="#D1CBCB"/><path d="M9.9 9.16c-.17.2-.57.27-.76.06-.09-.1-.06-.2.06-.24h.05c.14.08.21.15.38.06.07-.04.11-.14.15-.2a.1.1 0 0 1 .06-.04l.06.01.15.1a.1.1 0 0 0 .13-.01l.02-.04.07-.11a.1.1 0 0 1 .05-.05.1.1 0 0 1 .07 0c.1.04.13.13.08.22-.1.21-.27.28-.52.22-.02 0-.04 0-.05.02ZM7.33 8.89l.03.05c.01.02 0 .03-.02.03l-.06-.02c-.03-.05-.02-.08 0-.11.02-.02.04-.02.05 0v.05Z" fill="#531704"/><path d="M6.18 10.41a.84.84 0 0 0-.4.04l-.3.13c-.13-.15-.15-.31-.07-.46.05-.11.17-.2.27-.28l.31-.21c.18-.13.3-.18.37-.18.37.03.4.49.15.67-.15.1-.26.2-.33.3Z" fill="#B0B0AD"/><path d="M4.51 10.5c.04.2.1.33.18.4.08.08.2.1.36.04l.48-.25c.2-.1.36-.16.45-.17.18 0 .34.06.49.19.13.12.17.32.23.54a.04.04 0 0 1-.04.04l-.33-.03c-.02 0-.04 0-.05-.02l-.15-.15c-.05-.37-.56-.22-.77-.11-.21.11-.47.22-.76.32a.4.4 0 0 0-.18.13 2 2 0 0 0-.17.24.91.91 0 0 1-.24-.21.06.06 0 0 1 0-.05c.04-.33.3-.69.5-.91Z" fill="#F41B1F"/><path d="M6.13 11.09c-.2-.1-.4-.06-.6.1-.18.16-.4.33-.67.5-.1.07-.2.1-.28.1a.56.56 0 0 1-.33-.12c.05-.09.1-.17.17-.24a.4.4 0 0 1 .18-.13c.3-.1.55-.2.76-.32.2-.11.72-.26.77.11Z" fill="#CB0E0F"/><path d="M11.77 11.18a.3.3 0 0 0-.24-.04c-.17.04-.34.07-.52.13-.2.07-.35.12-.43.13-.35.07-.55.15-.94.17h-.02l-.02.03v.02l.01.02a7.9 7.9 0 0 1 1.66-.09l-.24.33a4.11 4.11 0 0 0-1.14-.03.07.07 0 0 0-.02.03.53.53 0 0 1-.28.33c-.15.08-.34.21-.5.23a28.39 28.39 0 0 1-1.02.06v.02a.03.03 0 0 0 0 .03.03.03 0 0 0 .02 0c.5.02 1.26.06 1.88-.02.29-.03.65-.04 1-.17l.05.26v.04l-.03.02a9.45 9.45 0 0 1-3.1.22l-.03-.03c0-.05 0-.11.03-.19a.63.63 0 0 0-.12-.55L9 11.9l.01-.01v-.03c.01-.02 0-.03-.01-.03l-1.35.14-.2-.2a.02.02 0 0 1 0-.02l.01-.01a52.25 52.25 0 0 0 4-.76.7.7 0 0 1 .5.06c.03.01.03.03 0 .04l-.19.1Z" fill="#F41B1F"/><path d="m11.77 11.18-.5.37a7.9 7.9 0 0 0-1.66.1c-.01 0-.02-.01-.01-.03v-.02a.04.04 0 0 1 .04-.03c.39-.02.59-.1.94-.17.08-.01.23-.06.43-.13.17-.06.35-.1.52-.13a.3.3 0 0 1 .24.04Z" fill="#FE4A4D"/><path d="M5.93 11.57a.02.02 0 0 1-.02 0l-.34-.2-.02-.02a.04.04 0 0 1 .02-.06c.19-.1.38-.2.57-.02a.06.06 0 0 1 .01.04.06.06 0 0 1-.01.05l-.21.2Z" fill="#5D5D5D"/><path d="M12.88 11.74c.03.2-.02.37-.15.53a2.76 2.76 0 0 1-1.17.77l-.24-.49c.22-.06.43-.18.6-.35.1-.08.14-.16.15-.22.03-.17-.07-.4-.26-.35-.02 0-.04 0-.04-.02v-.03a2 2 0 0 1 .44-.2c.1-.02.2-.02.28 0a.7.7 0 0 1 .4.36Z" fill="#FEC295"/><path d="m4.86 11.84.42-.32a.07.07 0 0 1 .08 0l.42.25.02.01a.03.03 0 0 1-.01.04l-.02.01c-.24.05-.33.2-.46.39-.07.1-.15.11-.22.02a5.9 5.9 0 0 1-.25-.37c0-.01 0-.02.02-.03Z" fill="#CB0E0F"/><path d="M11.76 11.58v.03c.01.02.03.03.05.02.2-.05.3.18.26.35 0 .06-.06.14-.14.22a1.4 1.4 0 0 1-.61.35c-.22-.4.1-.78.44-.97Z" fill="#E39553"/><path d="M7.11 11.91c-.21 0-.32.08-.33.25-.01.13.02.23.1.31.17.16.38.3.64.43l-.23.45a3 3 0 0 1-.97-.55 1.8 1.8 0 0 1-.32-.4.26.26 0 0 1 0-.28c0-.02 0-.03-.04-.04a.65.65 0 0 1 .3-.35.56.56 0 0 1 .42-.02c.15.04.29.1.43.2Z" fill="#FEC295"/><path d="M12.88 11.74c.27.45.42 1.14-.02 1.52-.45.4-1 .32-1.3-.22l.17-.07.17-.07c.31-.18.6-.35.83-.63a.66.66 0 0 0 .15-.53Z" fill="#FFFFFD"/><path d="M11.03 11.88a.92.92 0 0 0-.07.48c-.34.13-.7.14-1 .17-.61.08-1.37.04-1.87.03a.03.03 0 0 1-.02-.02v-.04l.02-.01 1-.05c.16-.02.35-.15.5-.23a.53.53 0 0 0 .28-.33.07.07 0 0 1 .06-.04c.37-.04.73-.03 1.1.04Z" fill="#CB0E0F"/><path d="m7.77 12.13-.12-.16L9 11.83c.02 0 .02 0 .02.03l-.01.03H9l-1.23.24Z" fill="#FE4A4D"/><path d="M7.52 12.9a2.34 2.34 0 0 1-.64-.43.38.38 0 0 1-.1-.31c0-.17.12-.25.33-.25.1.06.2.15.32.27.2.21.24.45.09.72Z" fill="#E39553"/><path d="M5.96 12.08c.03 0 .05.02.03.04a.26.26 0 0 0 .01.28c.11.18.22.31.32.4a3 3 0 0 0 .97.55c-.14.28-.46.51-.77.47-.42-.06-.8-.38-.8-.83 0-.33.07-.63.24-.91Z" fill="#FFFFFD"/><path d="m8.56 13.92.23-.78.66-.04c.45-.03.85-.08 1.23-.15.12-.03.3-.1.43-.12a.03.03 0 0 1 .04.02l.26.47v.03l-.41.24a.12.12 0 0 1-.15-.01.69.69 0 0 0-.38-.2 3.7 3.7 0 0 1-.38-.08 1.41 1.41 0 0 0-.34-.02c-.06 0-.1.02-.11.04-.07.06 0 .18.05.28v.05a.72.72 0 0 1-.14.19h-.04a.49.49 0 0 0-.26-.08c-.13 0-.2.05-.2.17 0 .02-.01.03-.03.03-.15.01-.3 0-.46-.04Z" fill="#8B8A88"/><path d="m8.79 13.14-.23.78c-.13 0-.27-.02-.42-.06a125.8 125.8 0 0 1-.7-.22.05.05 0 0 1 .01-.04l.27-.47a.1.1 0 0 1 .08-.04l.99.05Z" fill="#5D5D5D"/><path d="m10.6 13.73-.08-.09-.03-.01c-.1-.02-.18-.02-.29-.07a.54.54 0 0 0-.41-.03.17.17 0 0 1-.06-.12c0-.02 0-.03.03-.03.15 0 .29 0 .4.06.22.07.4.06.6.17l.01.02a.04.04 0 0 1 0 .04h-.02l-.14.06Z" fill="#FBEDA2"/><path d="M10.6 13.73c-.32.12-.65.2-.98.23-.05 0-.05 0-.02-.04l.17-.19c.06-.07.04-.12.02-.2a.54.54 0 0 1 .41.03c.11.05.18.05.29.07l.03.01.09.1Z" fill="#E39553"/><path d="M9.3 13.99c.1 0 .19-.02.2-.05 0-.03-.09-.06-.19-.07-.1 0-.18.01-.19.04 0 .04.08.07.18.08Z" fill="#FEC295"/></svg>