<!-- by TradingView --><svg width="18" height="18" viewBox="0 0 18 18" xmlns="http://www.w3.org/2000/svg"><path fill="#F0F3FA" d="M0 0h18v18H0z"/><path d="M13 6.36 8.9 9.04l4.03 2.7A4.83 4.83 0 0 1 8.86 14 4.93 4.93 0 0 1 4 9c0-2.76 2.18-5 4.86-5 1.75 0 3.28.94 4.14 2.36Z" fill="url(#a)"/><path d="M12.01 7 8.9 9.04l3.07 2.05a3.68 3.68 0 0 1-3.1 1.71c-2.04 0-3.7-1.7-3.7-3.8 0-2.1 1.66-3.8 3.7-3.8 1.34 0 2.5.72 3.15 1.8Z" fill="#FFF200"/><ellipse cx="9.93" cy="7.06" rx=".55" ry=".57" fill="#751770"/><defs><linearGradient id="a" x1="8.5" y1="4" x2="8.5" y2="14" gradientUnits="userSpaceOnUse"><stop stop-color="#B0099B"/><stop offset="1" stop-color="#2A0062"/></linearGradient></defs></svg>