<!-- by TradingView --><svg width="18" height="18" viewBox="0 0 18 18" xmlns="http://www.w3.org/2000/svg"><path fill="#FD3C01" d="M0 0h18v18H0z"/><path d="m3.45 13.58.06-.2h-.2c-.22 0-.36-.22-.3-.44l.5-1.54 2.2-1.33-1.43-1.31.96-3.2L7.95 4h6.27c.26 0 .43.29.32.54l-.02.05h.13c.24 0 .4.26.33.5l-.46 1.52-2.07 1.19.83.78v.2l.28.22c.12.1.17.27.12.43l-.93 3-2.7 1.57H3.74c-.2 0-.35-.21-.29-.42Z"/><path d="M9.53 12.85h-6l.27-.97 2.38-1.34H8.8l.18-.77H6.23l-1.44-1.3.8-2.65 2.47-1.44h5.97l-.3 1.02-2.44 1.3H8.8l-.18.76h2.68l1.45 1.3-.78 2.65-2.43 1.44Z" fill="#fff"/></svg>