<!-- by TradingView --><svg width="18" height="18" viewBox="0 0 18 18" xmlns="http://www.w3.org/2000/svg"><path fill="url(#a)" d="M0 0h18v18H0z"/><path d="m9.4 4.02.47.44a4.6 4.6 0 0 0-2.2.13c-.16-.01-.3 0-.42.01-.05.01-.09 0-.12-.02-.01-.02-.02-.03 0-.04l.18-.25a5.05 5.05 0 0 1 2.08-.27Z" fill="#C8A857"/><path d="M13.36 6.56h-.42a4.68 4.68 0 0 0-3.07-2.1l-.48-.44a5.04 5.04 0 0 1 3.97 2.54Z" fill="#F1E66E"/><path d="m7.31 4.29-.19.25v.04c.04.02.08.03.13.02.13-.02.26-.02.42-.01-.5.19-.87.35-1.08.48-.16.1-.31.2-.45.33-.14.12-.12.22.06.3l.01.1h-.09l-.22.15a.03.03 0 0 1-.04-.02c-.01-.16.02-.31.1-.46v-.05l-.07-.17a.05.05 0 0 0-.08-.02l-.26.2a.41.41 0 0 0 .08-.13c.5-.44 1.06-.78 1.68-1.01Z" fill="#AE8F35"/><path d="m9.87 4.46.44.13c1.12.34 2 1 2.63 1.97v.02l-.16.04A4.47 4.47 0 0 0 7.5 4.93a6.97 6.97 0 0 0-1.3.77c-.18-.08-.2-.18-.06-.3s.29-.24.45-.33a4.6 4.6 0 0 1 3.28-.61Z" fill="#8F631A"/><path d="m9.73 4.7.53.4-.08.25a.04.04 0 0 0 .03.05l.33.12a.1.1 0 0 0 .05.01l.1-.01c.01 0 .03 0 .03.02 0 .06.04.09.08.1.02 0 .03-.02.03-.03-.03-.1.02-.2.13-.29.2.08.38.18.55.32-.12 0-.22.07-.31.2v.04c.07.07.13.1.19.12.06 0 .08 0 .06-.04.02 0 .02.03 0 .08a.04.04 0 0 0 .04.05l.02-.01.02-.01c0 .04 0 .06.03.07h.03c.03-.02.05-.02.07 0 .01 0 .02.02.01.03v.1l.04.02a.2.2 0 0 0 .1-.04c-.02.1.01.13.08.13-.02.03-.03.05-.02.07 0 .01.01.02.03.02a.2.2 0 0 0 .05 0c0 .03 0 .05.02.06a2.71 2.71 0 0 1 .31.24l.12.26-.02.02v.03l.06.16c.03.1.1.2.21.26h.01v.02a.03.03 0 0 1 0 .02l-.04.04a.05.05 0 0 0-.01.04c0 .03.02.04.05.04a.05.05 0 0 0 .04-.03.32.32 0 0 1 .08-.1.04.04 0 0 1 .04-.01l.11.04c.02 0 .03 0 .03-.02s-.02-.05-.07-.08a.07.07 0 0 1-.04-.08l.03-.11c.1-.01.18-.04.21-.08.32.7.45 1.43.37 2.2l-.26-.17-.04-.1.03.01c.03.02.04.02.04-.02v-.23c0-.02 0-.03-.02-.02-.02.01-.04.03-.04.07a.36.36 0 0 0-.13-.2l.15-.01c.02 0 .03-.01.04-.03v-.05c-.01-.02-.03-.02-.04 0a.11.11 0 0 1-.08.01c-.1 0-.17.01-.23.07L11.36 7.3c-.36-.32-.9-.89-1.65-1.68a2.98 2.98 0 0 1-.27-.35c.03 0 .05-.02.05-.05.03-.11.08-.2.14-.24l.01-.03v-.02a.03.03 0 0 0-.04-.01c-.11.01-.2 0-.27-.03a.03.03 0 0 0-.04.01v.02l.01.04c.08.08.1.18.09.3l-.16-.04a.25.25 0 0 0-.15-.09C9 5.11 9 5.1 9.08 5.1c.02 0 .04 0 .06-.02.07-.02.07-.04 0-.06a.51.51 0 0 1-.07-.03c-.03-.01-.03-.02 0-.03a.4.4 0 0 0 .14-.04v-.03a.42.42 0 0 0-.29.01l-.02.04.03.32h-.1l-.03-.01V5c0-.04-.03-.06-.07-.06h-.22c-.05 0-.07.02-.06.07l.04.23c-.06 0-.1.02-.13.06.01-.2-.01-.3-.09-.32a.53.53 0 0 0-.56-.02.38.38 0 0 0-.2.22c-.01.1 0 .2.05.3.04.06.1.08.16.04l.05.12v.04l-.13.05a.03.03 0 0 0-.02.03.03.03 0 0 0 0 .03c.1.07.18.16.25.26.1.13.09.25-.04.35-.14.1-.27.22-.4.33a13.6 13.6 0 0 0-.49-.66.46.46 0 0 1-.06-.15c0-.02 0-.03.02-.03l.12-.02c.07-.03.08-.06 0-.09-.04-.02-.07-.06-.07-.13a.08.08 0 0 0-.1-.07.41.41 0 0 0-.21.11c-.04.03-.04.06-.01.1L6.8 6v.02l-.06.08h-.01c-.07-.1-.18-.25-.3-.21-.08.01-.11.07-.1.15a.34.34 0 0 0-.13-.23.2.2 0 0 1 0-.1 6.97 6.97 0 0 1 1.3-.77c.12-.07.27-.11.43-.14l.64-.12c.31-.06.7-.05 1.15.01Z" fill="#A8853A"/><path d="m12.78 6.62.31.57c-.03.04-.1.07-.21.08l-.15.09a.1.1 0 0 1-.05.02c-.1 0-.14-.04-.15-.14a.19.19 0 0 0 .07-.03c.08-.01.14-.04.17-.1a.04.04 0 0 0 0-.03.32.32 0 0 0-.11-.15.05.05 0 0 0-.05 0l-.2.1-.13-.26-.01-.02-.3-.22c-.02-.01-.02-.03-.02-.05a.37.37 0 0 1 .3-.13v-.02a.64.64 0 0 0-.17-.18c-.04-.03-.08-.02-.1.01l-.01.01v.01a.03.03 0 0 0 0 .02c.04.02.05.04.05.06 0 .01-.01.03-.04.05l-.09.07c-.07 0-.1-.04-.09-.13.02-.06.06-.12.13-.16.01 0 .02-.02.01-.04-.03-.12-.19-.26-.3-.13l-.11.15-.02.01a.04.04 0 0 1-.06-.04c.02-.05.02-.07 0-.08l-.05-.03c-.06-.04-.05-.05.01-.05a.6.6 0 0 1 .08 0c.02 0 .03 0 .03-.02v-.03a.63.63 0 0 0-.05-.03c-.02-.02-.02-.03.01-.03a.1.1 0 0 1 .07.02.04.04 0 0 0 .05 0l.01-.01a.03.03 0 0 0 0-.05l-.1-.1a1.92 1.92 0 0 0-.55-.3c-.09-.06-.16-.03-.23-.1a.04.04 0 0 0-.04-.01.07.07 0 0 0-.05.04v.03h.01a.05.05 0 0 1 .02.04c0 .07-.04.1-.12.12-.04 0-.07-.01-.07-.06v-.12c0-.02.01-.03.03-.04l.04-.03c.02-.01.02-.02 0-.04-.08-.09-.18-.1-.29-.05l-.53-.42c1.26.18 2.32.89 3.05 1.93Z" fill="#C8A857"/><path d="M8.27 4.98a.37.37 0 0 0-.2.04c-.08.05-.1.12-.06.2.07.18.19.2.35.08a.17.17 0 0 1 .13-.06H8.83l.64.66a.05.05 0 0 1 .01.06.26.26 0 0 0 .02.26.39.39 0 0 1-.26-.08c0-.02 0-.04-.02-.05.05-.02.07-.04.06-.09a.05.05 0 0 0-.03-.03c-.07-.05-.14-.03-.18.05-.2.05-.42.13-.68.23a.29.29 0 0 0-.12.09c-.12.04-.24.1-.36.2-.08.14-.17.2-.25.16a.12.12 0 0 0-.06.08l-.03.04h-.05l-.08-.09.39-.33c.13-.1.14-.22.04-.35a1.27 1.27 0 0 0-.25-.27.03.03 0 0 1 0-.03l.02-.02.12-.05c.02 0 .02-.02.01-.04l-.05-.12.25-.12C8 5.39 8 5.38 8 5.36a.66.66 0 0 0-.1-.22c-.03-.04-.07-.05-.11-.03a.04.04 0 0 0-.03.04.1.1 0 0 1-.01.05h-.01l-.21-.02c.03-.1.1-.17.2-.22.18-.1.37-.1.55.02Z" fill="#C18E30"/><path d="M9.23 5.22c-.1.04-.2.05-.3.03l-.03-.32c0-.02 0-.03.02-.04.1-.03.19-.04.28-.01.02 0 .02.02 0 .03a.4.4 0 0 1-.13.04c-.03 0-.03.02 0 .03l.07.03c.07.02.07.04 0 .06a.24.24 0 0 1-.05.02c-.1.01-.1.02 0 .04.05.01.1.04.14.09ZM9.44 5.28l-.05-.02a.36.36 0 0 0-.09-.3l-.01-.04V4.9a.03.03 0 0 1 .04 0c.07.02.16.03.27.02l.04.01v.05c-.07.05-.12.13-.15.24 0 .03-.02.04-.05.06Z" fill="#755119"/><path d="M8.8 5.24h-.31l-.04-.23c0-.05.01-.07.06-.07h.22c.04 0 .06.02.06.06v.24ZM8.27 4.98c.08.01.1.12.09.32-.16.13-.28.1-.35-.08-.04-.08-.02-.15.05-.2a.37.37 0 0 1 .21-.04Z" fill="#8F631A"/><path d="M10.08 5.15c.05.04.07.08.06.11v.03l-.01.02c-.09.08-.18.08-.27 0-.05-.05-.04-.08.03-.08h.06c.05 0 .05-.01.02-.04-.06-.04-.1-.09-.09-.13a.05.05 0 0 1 .02-.04c.08-.05.15-.05.22 0 .01.02.02.03 0 .05l-.04.04c-.02.02-.02.03 0 .04Z" fill="#755119"/><path d="M10.96 5.32c-.11.09-.16.18-.13.29 0 .01 0 .02-.03.02-.04 0-.07-.03-.08-.09 0-.02-.02-.03-.04-.02l-.09.01a.1.1 0 0 1-.05 0l-.33-.13a.04.04 0 0 1-.02-.05l.07-.24c.11-.05.21-.04.3.05v.04l-.05.03a.04.04 0 0 0-.03.04v.12c0 .05.03.07.07.06.08-.02.12-.06.12-.12a.05.05 0 0 0-.02-.03v-.01l-.01-.03a.07.07 0 0 1 .05-.04h.04c.07.08.14.05.23.1Z" fill="#785E29"/><path d="M7.72 5.52c-.06.04-.12.02-.16-.05a.4.4 0 0 1-.04-.29l.2.03h.01a.1.1 0 0 0 .02-.06c0-.02.01-.03.03-.04.04-.02.08-.01.1.03.05.05.08.12.1.22v.04l-.26.12Z" fill="#8F631A"/><path d="M6.19 5.8c-.17.1-.31.21-.44.36s-.23.31-.3.48l-.24.2A9.2 9.2 0 0 0 5.1 6c0-.03.01-.07.04-.11.16-.2.3-.35.4-.46l.26-.19a.05.05 0 0 1 .08.02l.07.17v.05a.88.88 0 0 0-.1.47.03.03 0 0 0 .04.01l.22-.15h.07Z" fill="#C18E30"/><path d="M8.93 5.25c.1.02.2.01.3-.03l.16.04.05.01c.11.17.2.28.27.35a39.7 39.7 0 0 0 3.17 3.1c.03.03.08.03.16.02.06.04.1.1.13.2-.06.03-.14.04-.25.03v.04l.2.05c.03 0 .04.03.04.05l.04.11c-.25-.13-.5-.3-.74-.5-.64-.56-1.2-1.06-1.68-1.52a.48.48 0 0 0-.27-.12l-.39-.5a.42.42 0 0 1-.2-.26.1.1 0 0 0 .01-.07c0-.02-.01-.03-.03-.03h-.4a.26.26 0 0 1-.02-.26.05.05 0 0 0 0-.06l-.65-.66h.1Z" fill="#AE8F35"/><path d="M5.63 5.3a.41.41 0 0 1-.08.12c-.1.11-.24.26-.4.46-.03.04-.04.08-.03.11a9.2 9.2 0 0 1 .11 1.3c.03.1.1.22.2.37.44.65.91 1.29 1.4 1.92l-.03.26c-.12 0-.2-.05-.26-.14a2.8 2.8 0 0 1-1.11-1.62L5.16 8c-.04-.15.15-.15.24-.16.08 0 .08-.03.01-.07l-.15-.08a.06.06 0 0 0-.05-.01.07.07 0 0 0-.04.03 1.48 1.48 0 0 0 .05 1.54.03.03 0 0 1-.02.03.23.23 0 0 0-.12.1.04.04 0 0 0 0 .06h.02l.1.1v.03c-.01.08-.03.17-.02.23l.03.35c0 .27.14.61.27.82.27.43.6.86.98 1.28.06.06.12.14.19.25.05.1.12.19.18.28a4.56 4.56 0 0 1-1.91-2.38 4.7 4.7 0 0 1-.15-.79c-.03-.39-.06-.73-.06-1.02a.71.71 0 0 0-.2-.5.03.03 0 0 0-.02.01v.02c-.11.4-.12.87-.1 1.28 0 .1.03.21.06.31a4.58 4.58 0 0 0 2.65 3.51l.47.2-.1.35A5 5 0 0 1 4.17 7.7c.1-.03.18-.07.27-.12.09-.04.16-.1.21-.18.28-.42.32-.87.3-1.36.2-.28.42-.53.68-.75Z" fill="#AA7622"/><path d="M7.21 5.49a.5.5 0 0 0 .09.17.03.03 0 0 1-.01.05c-.05.02-.09.02-.12 0-.05-.05-.04-.12-.13-.14a80.91 80.91 0 0 1-.11-.05c.09-.1.19-.16.31-.15.02 0 .03 0 .02.03 0 .02-.01.03-.03.04a.04.04 0 0 0-.02.05ZM10.93 5.7a.03.03 0 0 1-.04-.06l.15-.18a.08.08 0 0 1 .1-.02c.04.02.08.05.11.09a.08.08 0 0 1-.01.11.08.08 0 0 1-.04.02l-.27.04Z" fill="#755119"/><path d="m7.44 6.73.08.09-.14.28c-.04.04-.03.1 0 .16l.05.02c.04 0 .09 0 .12-.03 0 .06-.04.08-.12.06a.34.34 0 0 1-.11-.05v.01c.01-.35-.1-.65-.35-.9-.15-.14-.3-.18-.45-.12a.41.41 0 0 1-.19-.2c0-.1.03-.15.1-.16.13-.04.24.11.3.21h.02l.06-.08V6l-.18-.21c-.03-.04-.03-.07 0-.1.07-.06.14-.1.23-.1a.08.08 0 0 1 .09.06c0 .07.03.11.08.13.07.03.06.06 0 .09a.79.79 0 0 1-.13.02c-.02 0-.03.01-.02.03l.06.15.5.66Z" fill="#8D6D2E"/><path d="m11.5 5.64.11.1a.03.03 0 0 1 .01.01.03.03 0 0 1 0 .03h-.02a.04.04 0 0 1-.05.01.1.1 0 0 0-.07-.02c-.03 0-.03 0 0 .03l.03.03.01.03c0 .02-.01.02-.03.02a.6.6 0 0 0-.08 0c-.06 0-.07.01-.01.05l.05.03c.02.03 0 .05-.06.04-.06-.01-.12-.05-.19-.12v-.04c.1-.13.2-.2.3-.2Z" fill="#785E29"/><path d="M6.19 5.8h.02c.07.06.11.14.12.24.05.1.12.17.2.2.04 0 .06 0 .1.03.3.27.54.6.69 1a.56.56 0 0 0 0 .2c0 .03-.02.05-.04.05l-.04-.01c-.19-.43-.46-.8-.8-1.12a.46.46 0 0 1-.1-.17c-.02-.06-.05-.1-.1-.09a.23.23 0 0 0-.18.12.07.07 0 0 0 0 .08c.07.1.16.16.26.17.38.4.69.86.93 1.36l.26.53c.07.16.15.26.3.32a.04.04 0 0 1 0 .07c-.18.08-.34.2-.47.36l-.24.17-.12.09a14.96 14.96 0 0 0-1.13-1.75h.01l.62.8c.2.25.32.49.49.76.02.04.04.03.05 0L7 9.15a2.2 2.2 0 0 0-.3-.56l-.85-1.13a.57.57 0 0 1-.12-.37c.13.02.19-.02.2-.12 0-.04-.02-.05-.05-.01-.06.07-.13.06-.2-.04l-.23-.3c.07-.16.17-.32.3-.47.13-.15.27-.27.44-.36Z" fill="#E1B554"/><path d="M11.8 6.25a.2.2 0 0 1-.1.04c-.01 0-.03 0-.03-.03v-.12c-.03-.02-.05-.02-.08 0h-.03c-.03-.01-.04-.03-.03-.07l.1-.15c.12-.13.28.01.31.13l-.01.04c-.07.04-.11.1-.13.16Z" fill="#785E29"/><path d="M9.22 6.09c-.07 0-.12-.02-.15-.07.04-.08.1-.1.18-.05a.05.05 0 0 1 .03.03c0 .05-.01.07-.06.09Z" fill="#755119"/><path d="M9.22 6.09c.02.01.02.03.02.05-.15-.03-.14.1-.27.11a6 6 0 0 0-.7.09.29.29 0 0 1 .12-.09c.26-.1.48-.18.68-.23.03.05.08.07.15.07Z" fill="#696868"/><path d="M4.96 6.05c.01.49-.03.94-.3 1.36a.56.56 0 0 1-.22.19c-.09.04-.18.08-.27.1.16-.58.42-1.14.79-1.65ZM6.34 6.22c-.01.04-.02.07-.05.11a.04.04 0 0 0 0 .04c.04.05.05.1.03.13-.1-.01-.19-.07-.26-.17a.07.07 0 0 1 0-.08c.04-.07.1-.11.19-.12.04 0 .07.03.09.1Z" fill="#8F631A"/><path d="M9.24 6.14c.08.06.17.09.26.08h.4c.02 0 .03.01.03.03a.1.1 0 0 1 0 .07l-.09.16a.39.39 0 0 0-.17.2.02.02 0 0 0 .03.02l.26-.14c.02.05.02.12-.01.21l-.1.37a.03.03 0 0 1-.04.02s-.02 0-.03-.02h-.04a.16.16 0 0 1-.08.06c0-.06-.07-.08-.2-.07.03-.02.03-.05.01-.09l-.05-.11c.05.02.1.01.16-.02a.02.02 0 0 0 0-.03l-.22-.13c-.02-.01-.02-.02 0-.04a2.03 2.03 0 0 1 .18-.1c.01-.05 0-.06-.04-.05l-.43.13c-.15.02-.2.07-.16.15h-.15a.13.13 0 0 0 .04-.08.02.02 0 0 0-.03-.03.21.21 0 0 0-.18.15l.01.03.01.01-.04.12c-.03-.07-.07-.1-.12-.07.05-.04.08-.08.09-.12a.04.04 0 0 0-.06-.05.38.38 0 0 0-.18.13.05.05 0 0 1-.04.02c-.12 0-.25 0-.35.08 0-.02-.01-.04-.03-.05L7.83 7a.27.27 0 0 1-.1.04c-.03 0-.04 0-.02-.02a.5.5 0 0 1 .25-.15.68.68 0 0 0 .3-.12.24.24 0 0 0 .1-.13.06.06 0 0 0-.06-.07h-.39c.12-.1.24-.16.36-.2a6 6 0 0 1 .7-.09c.13 0 .12-.14.27-.11Z" fill="#4D4D4B"/><path d="M11.95 6.48a.2.2 0 0 1-.05 0c-.02 0-.03-.02-.03-.03-.01-.02 0-.04.02-.07l.1-.07.03-.05c0-.02-.01-.04-.04-.06a.03.03 0 0 1-.01-.02v-.02c.03-.03.07-.04.1-.01.08.05.14.1.18.18v.02a.37.37 0 0 0-.3.13Z" fill="#755119"/><path d="M7.32 7.27a2.4 2.4 0 0 0-.69-1c-.04-.03-.06-.02-.1-.02.14-.06.3-.02.44.12.24.25.36.55.35.9Z" fill="#AE8F35"/><path d="M7.32 7.46c.05-.02.1-.03.15-.02.02 0 .03 0 0 .02l-.12.07a.03.03 0 0 0-.02.03c.01.06.03.12.06.16v.04l-.01.02h-.01a.03.03 0 0 0 .02.05h.21l-.05.21c-.07.04-.1.08-.09.1.12.14.27.24.46.28v.02a.45.45 0 0 0-.16-.04c-.03 0-.04 0-.02.03l.13.16.03.01.16.02v.11l-.4.24-.32.17c.13-.17.29-.28.47-.36a.04.04 0 0 0 0-.07c-.15-.06-.23-.16-.3-.32l-.26-.53c-.24-.5-.55-.96-.93-1.36.02-.03 0-.08-.03-.13a.04.04 0 0 1 0-.04.32.32 0 0 0 .05-.1c.03.07.06.13.1.16.34.32.61.69.8 1.12.01.01.02.02.04.01.02 0 .03-.02.04-.06Z" fill="#C8A857"/><path d="M9.92 6.32c.03.11.1.2.2.26.04.33.1.67.12.98.02.34.06.65.01.97a.92.92 0 0 1-.21-.22H9.98a.03.03 0 0 0-.02.02.03.03 0 0 0 .01.03l.24.28h-.03l-.02-.01c-.14-.1-.27-.2-.38-.32.01-.03 0-.06-.05-.11.04-.03.05-.06.03-.1a.46.46 0 0 0 .03-.2.04.04 0 0 1 .05-.05l.1.01c.01 0 .02 0 .03-.03a.34.34 0 0 0-.03-.18V7.6a.18.18 0 0 1 .06-.1.06.06 0 0 0 .02-.03c.03-.15.1-.33-.01-.4a.06.06 0 0 1-.04-.05l-.02-.25c.03-.09.03-.16 0-.21l-.1-.08.07-.16ZM5.9 6.52l-.02-.04c-.01-.02 0-.03.01-.04h.06c.02 0 .03.02.04.03.04.07.11.11.2.11a.02.02 0 0 1 .02.02v.03l-.12.03a.03.03 0 0 0-.02.03v.1c0 .03-.02.04-.05.03h-.01a.05.05 0 0 1-.04-.05c-.01-.09-.07-.13-.17-.13l-.02-.01v-.04l.1-.03c.03-.01.03-.02.02-.04Z" fill="#8F631A"/><path d="m9.84 6.48.12.08-.26.14a.02.02 0 0 1-.03-.03c.03-.08.09-.14.17-.19Z" fill="#380A0A"/><path d="M7.91 6.55h.4a.06.06 0 0 1 .04.06.24.24 0 0 1-.09.13.5.5 0 0 0-.3.04h-.04l-.01-.01v-.04a.76.76 0 0 0 .04-.06c.03-.06.02-.07-.04-.04a1.25 1.25 0 0 0-.2.17h-.03l-.01-.02.01-.04v-.03h-.02c.08.02.17-.03.25-.16Z" fill="#A99C89"/><path d="M13.36 6.56c.18.31.32.65.43 1l-.4-.02a5.5 5.5 0 0 0-.45-.96v-.02h.42Z" fill="#EED157"/><path d="M9.42 6.93a.87.87 0 0 0-.35-.24l.43-.13c.04-.01.05 0 .04.04l-.04.03-.15.08v.04l.23.12a.02.02 0 0 1 0 .04c-.05.03-.1.04-.16.02Z" fill="#380A0A"/><path d="M12.94 6.58c.18.3.34.63.46.96.08.27.14.54.18.8.1.5.07 1-.05 1.5a.18.18 0 0 1-.09-.06l.02-.4c.08-.76-.05-1.5-.37-2.19l-.31-.57.16-.04Z" fill="#755119"/><path d="M10.5 7.08c-.03.39-.04.72-.02 1 0 .12.04.28.09.48l-.32-.03c.05-.32.01-.63-.01-.97l-.12-.98.39.5Z" fill="#AA7622"/><path d="M8.26 6.74a.68.68 0 0 1-.3.12.5.5 0 0 0-.25.15c-.02.02-.01.03.02.02.03 0 .06-.02.1-.04h.05c.02 0 .03.02.03.04l-.05.05v.03h.03l.27-.03c.04 0 .04.01.02.04l-.27.26a.08.08 0 0 1-.05.02c-.2.02-.28.13-.25.33a.04.04 0 0 1-.02.04.23.23 0 0 1-.21 0l.01-.01v-.04a.38.38 0 0 1-.06-.16.03.03 0 0 1 .02-.03l.13-.07c.02-.01.01-.02 0-.02-.06-.01-.11 0-.16.02a.56.56 0 0 1 0-.2c.04.03.08.04.11.05.08.02.12 0 .12-.06a.34.34 0 0 0 0-.18c-.01-.02-.02-.02-.04-.02a.33.33 0 0 0-.13.05l.14-.28h.05l.03-.04a.12.12 0 0 1 .06-.08h.02v.04l-.01.04v.02h.06l.18-.17c.06-.03.07-.02.04.04l-.04.06v.04h.05a.5.5 0 0 1 .3-.03Z" fill="#696868"/><path d="m5.45 6.64.22.3c-.04-.02-.08-.02-.1 0v.03c.06.06.1.1.16.13 0 .13.04.25.12.37l.86 1.13a2.2 2.2 0 0 1 .3.6c0 .04-.02.05-.04.01-.17-.27-.29-.5-.5-.76a35 35 0 0 1-.6-.8h-.02c-.02 0-.02.01-.01.03.42.54.8 1.12 1.14 1.72l-.04.06-.1.12c-.5-.63-.97-1.27-1.42-1.92-.1-.15-.16-.28-.19-.38a1.11 1.11 0 0 1-.02-.43l.24-.21Z" fill="#AE8F35"/><path d="M9.07 6.7c.15.05.26.13.35.23l.05.11c.02.04.02.07 0 .1h-.1a.03.03 0 0 1-.02-.04c0-.05-.01-.1-.04-.13-.1-.12-.23-.17-.4-.13-.04-.08 0-.13.16-.15ZM8.76 6.83a.2.2 0 0 1-.15.09.03.03 0 0 1-.02-.04.21.21 0 0 1 .18-.15.02.02 0 0 1 .03.03l-.04.07Z" fill="#A99C89"/><path d="m9.95 6.77.02.25c0 .03.01.04.04.06.11.06.04.24.01.39 0 .01 0 .03-.02.04a.18.18 0 0 0-.06.09v.05c.03.06.04.12.03.18 0 .02-.02.03-.03.03h-.1a.04.04 0 0 0-.05.03c0 .09 0 .16-.03.22-.32.1-.64.1-.94-.02.02-.03.02-.06 0-.09.02-.06.02-.1-.01-.1.04-.01.06-.05.04-.1a.07.07 0 0 0-.03-.04.45.45 0 0 1-.15-.13c.07-.03.05-.06-.08-.1v-.02c.02 0 .04-.01.05-.03a.04.04 0 0 0-.02-.07l-.2-.03a.05.05 0 0 1-.04-.07c.04-.06.09-.11.16-.17.02-.02.04-.01.06 0l.09.09v.01c-.1.02-.14.03-.17.06-.01.01 0 .02.02.03h.36l-.04.07a.16.16 0 0 0-.12 0 .04.04 0 0 0 0 .08c.05.03.11.04.17.05-.04.1 0 .12.1.06.02 0 .03-.02.04-.03.02-.09 0-.16-.03-.21.02-.02.04-.03.03-.06l-.01-.01-.02-.01h-.25c-.01 0-.02 0-.02-.02v-.03h.01l.25-.04c.03 0 .03 0 0-.02a.68.68 0 0 0-.31-.04c-.06 0-.07-.02-.03-.06.16-.18.35-.2.59-.07v.06a.04.04 0 0 1-.05.02l-.24-.1-.04.01-.01.02a.01.01 0 0 0 0 .01l.4.2c.02.02.02.03 0 .04l-.07.04c-.02.01-.02.02 0 .03.05.02.1.02.14-.01a.03.03 0 0 1 .03 0h.01v.02l.04.02a.62.62 0 0 0 .32-.1l-.03-.02h-.03a.5.5 0 0 1-.27.04c-.03 0-.03 0 0-.02a.45.45 0 0 1 .2-.05c.03 0 .06-.03.08-.06h.04l.03.02a.03.03 0 0 0 .04-.02l.1-.37Z" fill="#696868"/><path d="M8.45 6.97 8 7.42c-.02.02-.02.03 0 .03l.03.01h.04c.2-.12.33-.29.5-.42l.05-.12a.2.2 0 0 0 .15-.09c.06.02.11.02.15 0 .17-.03.3.02.4.14l-.05.02c-.24-.13-.43-.1-.59.07-.04.04-.03.06.03.06.1-.01.21 0 .31.04.03.01.03.02 0 .02l-.25.03v.04l.01.02h.27v.02c.02.03 0 .04-.02.06l-.12-.01-.36-.01c-.03 0-.03-.02-.02-.03.03-.03.08-.04.16-.06v-.01l-.08-.08c-.02-.02-.04-.03-.06 0a.64.64 0 0 0-.16.16.05.05 0 0 0 .03.08l.2.02a.04.04 0 0 1 .03.07.06.06 0 0 1-.05.03 1.82 1.82 0 0 0-.2-.04c-.07-.01-.13-.05-.2-.01h-.02v.02c0 .02 0 .02.02.02h.03v.04a.36.36 0 0 1-.14.07h-.05l-.15-.1a.13.13 0 0 0-.17.05.13.13 0 0 0-.02.06v.17c0 .02 0 .03-.02.04a.1.1 0 0 1-.07 0H7.4a.03.03 0 0 1-.03-.03V7.8l.02-.01c.07.03.14.02.2-.01a.04.04 0 0 0 .03-.04c-.03-.2.06-.31.25-.33.02 0 .04 0 .05-.02l.27-.26c.02-.03.02-.04-.02-.04l-.27.03h-.03v-.03l.05-.05c.1-.08.23-.07.35-.08.01 0 .03 0 .04-.02.04-.06.1-.1.18-.13a.04.04 0 0 1 .06.05c0 .04-.04.08-.09.12Z"/><path d="M5.67 6.93c.08.1.15.11.21.04.03-.04.05-.03.04.01 0 .1-.06.14-.19.12a.52.52 0 0 1-.16-.13v-.03c.02-.02.06-.02.1 0Z" fill="#755119"/><path d="M12.6 7.2c-.03-.02 0-.05.07-.08.01 0 .02-.02.01-.04 0-.02-.01-.03-.04-.04a.06.06 0 0 0-.06.02.18.18 0 0 1-.1.05c-.03 0-.03.01-.02.03l.07.1c0 .1.06.14.15.14a.1.1 0 0 0 .05-.02l.15-.1-.03.12a.07.07 0 0 0 .04.08c.05.03.08.06.07.08 0 .02 0 .03-.03.02l-.1-.04h-.05a.32.32 0 0 0-.08.11.05.05 0 0 1-.04.03c-.03 0-.05-.01-.05-.04a.05.05 0 0 1 .01-.04l.04-.04a.03.03 0 0 0 0-.03.48.48 0 0 1-.22-.27 1.3 1.3 0 0 0-.06-.17v-.01c0-.02.01-.02.02-.03l.21-.1a.05.05 0 0 1 .05 0c.05.03.09.08.12.15v.04c-.04.05-.1.08-.18.09Z" fill="#553C14"/><path d="M8.57 7.04c-.18.13-.31.3-.5.41a.07.07 0 0 1-.05.01h-.03c-.02-.01-.02-.02 0-.04l.46-.45c.05-.03.09 0 .12.07Z" fill="#A99C89"/><path d="m9.26 6.99.05-.02c.03.03.04.08.04.13 0 .02 0 .03.02.04l.1-.01c.12-.01.19.01.19.07a.45.45 0 0 0-.2.05c-.03.01-.03.02 0 .02.1.01.18 0 .27-.04h.03l.03.01a.01.01 0 0 1 0 .01.01.01 0 0 1 0 .01c-.1.06-.2.09-.32.1l-.03-.03-.01-.01a.03.03 0 0 0-.04-.01.14.14 0 0 1-.13.01c-.03 0-.03-.02 0-.03l.06-.04c.03-.01.02-.02 0-.04l-.4-.2V7l.01-.02h.04l.24.09c.01 0 .03 0 .04-.02.02-.02.02-.04 0-.06Z" fill="#553C14"/><path d="M12.6 7.2a.19.19 0 0 1-.07.04.31.31 0 0 1-.07-.1c-.01-.01 0-.02.01-.03.04 0 .08-.02.1-.05a.06.06 0 0 1 .07-.02c.03 0 .04.02.04.04l-.01.04c-.07.03-.1.06-.07.09Z" fill="#A8853A"/><path d="M7.55 7.25a.19.19 0 0 1-.13.03c-.01 0-.02 0-.03-.02-.04-.07-.05-.12 0-.16a.33.33 0 0 1 .12-.05c.02 0 .03 0 .03.02.02.06.02.11 0 .18Z" fill="#785E29"/><path d="m13.2 9.22.26.17-.02.39c-.1.42-.23.83-.44 1.21-.12.2-.28.4-.42.58l-.04-.3.05-.03v-.01a.02.02 0 0 0 0-.03l-.33-.08a.77.77 0 0 0-.08-.1c-.13-.15-.24-.33-.36-.49-.2-.26-.4-.46-.6-.68-.2-.2-.23-.46-.35-.7l-.3-.6-.1-.47c-.01-.28 0-.61.04-1 .1.02.2.06.27.12.48.46 1.04.96 1.68 1.51.24.21.49.38.74.51Z" fill="#C18E30"/><path d="M9.02 7.35c.04.05.05.12.03.2 0 .02-.02.04-.03.04-.11.06-.15.04-.1-.06.02-.02.04-.04.04-.06 0-.02-.01-.03-.03-.04l-.07-.03.04-.06h.12Z" fill="#A99C89"/><path d="m8.86 7.4.07.03c.02.01.03.02.03.04s-.02.04-.05.06a.54.54 0 0 1-.17-.05.04.04 0 0 1 0-.08.16.16 0 0 1 .12 0ZM9.44 7.39a.01.01 0 0 1 .02-.01c.04 0 .07.02.1.04l.03.04c0 .01 0 .02-.02.02h-.13a.01.01 0 0 1-.02-.02l.02-.07Z"/><path d="M8.59 7.5v.03c-.09.02-.19 0-.26.05a.32.32 0 0 0-.18.26v.02l.03.02a.03.03 0 0 0 .02-.02c.1-.2.26-.28.47-.23.04.05.08.1.15.13l.03.03c.02.06 0 .1-.04.12a.3.3 0 0 1-.28-.12.05.05 0 0 0-.04-.02.1.1 0 0 0-.08.04c-.06.19-.02.34.12.46a.06.06 0 0 1 .01.07.88.88 0 0 1-.07.13c-.04.05-.03.1.02.13l.07.14c.02.03 0 .04-.02.03-.13-.02-.19-.12-.25-.24a.07.07 0 0 0-.05-.04h-.01c-.03 0-.04 0-.03.03a.5.5 0 0 0 .25.3c.16.07.27.14.33.2l-.02.04a1.42 1.42 0 0 1-.66-.47.22.22 0 0 1-.05-.09.04.04 0 0 0-.02-.03l-.11-.03v-.02c.05 0 .1 0 .13-.02a.04.04 0 0 0-.02-.08 1.04 1.04 0 0 1-.48-.28l.05-.2a.1.1 0 0 0 .07 0l.02-.05v-.17a.13.13 0 0 1 .13-.12l.06.01.15.1h.05c.05-.01.1-.04.14-.07V7.5h-.03c-.01 0-.02-.01-.02-.03v-.01l.01-.01c.08-.04.14 0 .2 0l.2.05Z" fill="#A99C89"/><path d="M8.67 7.63c-.21-.05-.37.03-.47.23a.03.03 0 0 1-.02.02c-.01 0-.02 0-.03-.02v-.02a.32.32 0 0 1 .18-.26c.07-.04.18-.03.26-.05.13.04.15.07.08.1Z"/><path d="M9.66 7.91a.8.8 0 0 1-.54-.07.05.05 0 0 1-.03-.04c0-.01 0-.02.03-.02.06-.03.09-.11.08-.23l.01-.02h.02v.01c.07.2.21.15.37.12a.07.07 0 0 1 .1.09l-.04.16Z" fill="#A99C89"/><path d="M13.79 7.56c.26.89.28 1.78.05 2.68a.49.49 0 0 0-.23-.06c-.05 0-.1.02-.14.08l.06-.42c.12-.5.14-1 .05-1.5-.04-.26-.1-.53-.18-.8l.39.02Z" fill="#B6AE53"/><path d="M9.89 7.57h-.01a.06.06 0 0 0-.08.03l-.03.07c-.01.03 0 .07.04.08h.01c.04.02.07 0 .08-.03l.03-.07a.06.06 0 0 0-.04-.08Z" fill="#F0D5B3"/><path d="M7.86 7.66a.05.05 0 0 0-.04.06l.02.15c0 .03.03.04.06.04s.05-.03.05-.06l-.03-.15a.05.05 0 0 0-.06-.04Z" fill="#785E29"/><path d="M5.17 8c-.1.07-.11.17-.06.28a.04.04 0 0 0 .03.02l.18.05c.02 0 .03 0 .03-.02l.07-.25c.13.29.23.48.3.56a29.45 29.45 0 0 1 .82 1.06c.05.09.14.14.26.14l.02.17c0 .02 0 .04.02.05l.25.35c-.15-.01-.2-.15-.27-.25-.05-.06-.11-.07-.2-.05 0 .26.05.51.12.76l.14.48c.12.48.18 1.03.5 1.4.06.07.2.22.45.46a5.1 5.1 0 0 1-.93-.41l-.06-.02a3.6 3.6 0 0 1-.18-.28c-.07-.1-.13-.2-.2-.25-.37-.42-.7-.85-.97-1.28-.13-.21-.27-.55-.27-.82l-.03-.35c-.01-.06 0-.15.02-.23v-.04a.27.27 0 0 0-.1-.08.05.05 0 0 1-.03-.05v-.02a.23.23 0 0 1 .13-.1.03.03 0 0 0 .02-.04A1.48 1.48 0 0 1 5.2 7.7a.07.07 0 0 1 .05-.01h.02l.15.1c.07.03.07.06-.01.06-.1.01-.28 0-.24.16Z" fill="#8F631A"/><path d="m12.94 7.95-.24-.14-.02-.02v-.02a.03.03 0 0 1 .03-.03l.23-.05a.08.08 0 0 1 .1.04l.03.15a.08.08 0 0 1-.13.07Z" fill="#553C14"/><path d="M9.12 7.78c-.02 0-.03 0-.03.02s.01.03.03.04c.15.09.33.1.54.07h.02c.02.01.02.03.01.04-.14.18-.34.03-.5 0a.56.56 0 0 1-.23-.12c-.02-.02-.02-.03 0-.05l.1-.07c.01-.02.03-.02.05 0 0 .02.01.04 0 .07Z" fill="#380A0A"/><path d="M8.8 7.9c.04 0 .04.04.02.1a.44.44 0 0 1-.23-.08.03.03 0 0 0-.04 0 .03.03 0 0 0-.02.03l.03.04v.04a.12.12 0 0 1-.1.02c-.02-.01-.03-.02-.03-.04a.4.4 0 0 0-.02-.2.1.1 0 0 1 .08-.04.05.05 0 0 1 .04.02.3.3 0 0 0 .28.12Z"/><path d="M8.5 8.05c-.01.03 0 .06.01.08a.04.04 0 0 0 .04.01h.02l.03.01c.1.3.67.24.89.18a.85.85 0 0 1 .29-.02 2.15 2.15 0 0 0 .4.33h.03l.02.01v.02l-.27.21a.05.05 0 0 0-.02.04v.1l-.32.13a.16.16 0 0 1-.1.02.64.64 0 0 0-.19-.19.03.03 0 0 0-.05.03c0 .07.05.11.06.17v.08l-.2-.05c.03-.05.01-.09-.05-.1-.06-.01-.1-.03-.1-.05-.08-.1-.14-.2-.2-.3a.15.15 0 0 0-.06-.07c-.05-.03-.08-.01-.1.04a.35.35 0 0 0-.14-.13c-.05-.03-.06-.08-.02-.13a.88.88 0 0 0 .07-.13.06.06 0 0 0-.01-.07c-.14-.12-.18-.27-.12-.46a.4.4 0 0 1 .02.2c0 .02 0 .03.02.04a.1.1 0 0 0 .05 0Z" fill="#4D4D4B"/><path d="M7.73 7.92c.08.12.15.19.2.2l.15.01.02.02v.02c0 .02-.01.03-.03.03-.1.05-.32-.12-.4-.2a.06.06 0 0 1-.01-.04c0-.02.01-.04.03-.05h.04Z" fill="#553C14"/><path d="M8.82 8c.02.03.02.06 0 .09-.03 0-.04.01-.05.03a.05.05 0 0 0 0 .04.05.05 0 0 0 .02.03c.32.1.63.1.94 0 .05.06.06.1.05.12-.11 0-.18 0-.3.02-.21.06-.79.12-.88-.18 0-.01-.01-.02-.03-.01h-.02a.04.04 0 0 1-.04 0c-.02-.03-.02-.06 0-.1l.05-.01v-.04l-.03-.04a.04.04 0 0 1 .02-.03.03.03 0 0 1 .04 0c.07.05.15.08.23.08Z" fill="#A99C89"/><path d="m5.42 8.08-.07.25c0 .02-.01.02-.03.02l-.18-.05a.04.04 0 0 1-.03-.02c-.05-.11-.03-.2.06-.28l.25.08ZM9.85 8.08a.01.01 0 0 1 0-.01.01.01 0 0 1 .02 0h.04a.1.1 0 0 1 .04.01l.02.03.01.03c0 .03 0 .06-.02.07a.11.11 0 0 1-.07.04h-.01a.01.01 0 0 1-.01-.01l-.02-.16Z" fill="#755119"/><path d="M7.55 8.04c.15.14.31.24.48.28a.04.04 0 0 1 .02.08.17.17 0 0 1-.13.02.78.78 0 0 1-.46-.28c-.01-.02.02-.06.1-.1ZM12.86 8.28l.03.04a.03.03 0 0 1 0 .03.03.03 0 0 1-.01.01h-.04l-.02-.03a.2.2 0 0 0-.03-.13.05.05 0 0 1 0-.05.05.05 0 0 1 .03-.03l.24-.05a.07.07 0 0 1 .08.05l.04.19a.01.01 0 0 1 0 .01h-.03c-.02 0-.04-.02-.05-.05l-.01-.06c0-.02-.02-.03-.04-.02a.36.36 0 0 1-.15.01c-.08 0-.09.02-.04.08Z" fill="#553C14"/><path d="M8.82 8.09c.3.11.62.12.94.02.02.03 0 .06-.03.09a1.46 1.46 0 0 1-.95-.03.05.05 0 0 1-.02-.03v-.02c.02-.02.03-.03.06-.03Z"/><path d="M4.93 10.4a2.14 2.14 0 0 1-.16-.46 4.31 4.31 0 0 0-.28-.77c-.03-.03-.04-.02-.04.02l.01.52c-.03-.1-.05-.2-.06-.31a4.26 4.26 0 0 1 .12-1.3.03.03 0 0 1 .02 0c.12.14.18.3.18.5 0 .28.03.62.06 1.01.03.26.08.53.15.79Z" fill="#C18E30"/><path d="m10.25 8.53.32.03.3.6c.12.23.16.5.34.69.22.22.42.42.6.68.13.16.24.34.37.49l.08.1c-.01.1.02.21.12.31 0 .02.02.02.03.03l.04-.01a.04.04 0 0 0 .01-.04c-.01-.08.02-.13.08-.14l.04.3.02.07a4.64 4.64 0 0 1-1.07 1l-.37.22c-.05-.07-.16-.1-.3-.09.06-.04.1-.08.06-.16a1.8 1.8 0 0 1-.06-.16.04.04 0 0 0-.03-.04h-.13c-.06.04-.07.03-.03-.03.16-.23.38-.38.67-.35.04 0 .05.03.04.06a.2.2 0 0 1-.13.05l-.03.01c-.01.02 0 .03.01.04l.14.05c.02 0 .03.02.03.04v.05c.02.09.04.1.08.02.02-.04.07-.07.16-.07h.01v-.02c0-.04-.08-.06-.13-.1a.28.28 0 0 1 .24-.02c.06 0 .12-.04.17-.1.17-.16.23-.34.18-.54-.1-.42-.3-.84-.63-1.27a.41.41 0 0 0-.16-.13c-.26-.12-.4-.35-.56-.6a.02.02 0 0 0-.03 0l-.06.14-.1-.15a.2.2 0 0 1 .1-.13.07.07 0 0 0 .04-.05.07.07 0 0 0-.01-.05l-.1-.18-.02-.01h-.08c-.02 0-.03 0-.05-.03a.5.5 0 0 0-.21-.14h-.05a.59.59 0 0 1-.11.07c-.06.02-.08 0-.05-.05 0-.02.03-.03.07-.05.1-.03.14-.1.12-.2h.01v-.02h-.02l-.24-.3a.03.03 0 0 1 0-.02.03.03 0 0 1 0-.02h.07c.06.1.13.16.21.22Z" fill="#A8853A"/><path d="M9.73 8.45a.7.7 0 0 0-.29.1.63.63 0 0 1-.2.08c-.19.03-.35-.05-.5-.15l-.04-.02.01-.05a.03.03 0 0 1 .03 0c.27.08.54.08.81-.02a.24.24 0 0 1 .2.01c.01.01.02.02 0 .03l-.02.02Z" fill="#A99C89"/><path d="m7.92 8.44.1.03c.02 0 .03.01.04.03 0 .04.02.07.04.09l-.04.03-.16-.02-.03-.01-.13-.16c-.02-.02-.01-.03.02-.03.05 0 .1.02.16.04Z" fill="#AA0515"/><path d="M9.73 8.45h.04c.02 0 .02.01.01.03l-.01.02a.08.08 0 0 1-.04.02c-.16.02-.2.02-.31.11-.2.17-.53.04-.71-.09a.03.03 0 0 1 0-.05l.02-.01c.16.1.32.18.52.15.04 0 .1-.04.2-.09a.7.7 0 0 1 .28-.1Z"/><path d="M13.2 8.57a.7.7 0 0 0-.3-.01l-.03-.03c-.02-.02-.02-.03 0-.03l.3-.04c.02 0 .03.01.03.03v.08ZM8.5 8.6c.05.03.1.08.13.13.06.15.18.26.35.33 0 .02.05.04.11.05.06.01.08.05.05.1a1.2 1.2 0 0 0-.13-.03c-.08-.02-.1 0-.03.06.1.1.19.22.25.37l.01.02h.02s.02 0 .02-.02l.06-.35v-.08c-.01-.06-.06-.1-.06-.17a.03.03 0 0 1 .05-.03c.07.05.14.1.19.19-.05 0-.1.02-.12.07a.02.02 0 0 0 .03.03h.1c.08.01.08.03 0 .07l-.08.02c-.03 0-.07.05-.1.11v.05c.02.07 0 .12-.04.16a.1.1 0 0 1-.15-.05.93.93 0 0 0-.23-.32.08.08 0 0 1-.02-.04.44.44 0 0 0-.13-.24 1.13 1.13 0 0 0-.33-.21.5.5 0 0 1-.25-.3c0-.03 0-.04.03-.03a.07.07 0 0 1 .06.04c.06.12.12.22.25.24.03 0 .04 0 .02-.03L8.5 8.6Z" fill="#553C14"/><path d="M7.91 8.67c-.01.02-.03.02-.06.01a.23.23 0 0 1-.07-.05l-.02-.01a.23.23 0 0 1-.05-.08v-.06h.01l.2.19Z" fill="#755119"/><path d="M8.1 8.59c.18.22.4.38.66.47.02.01.01.03-.02.05-.2-.06-.4-.17-.58-.32-.04-.05-.08-.06-.1-.06v-.1l.04-.04ZM13.04 8.74c-.08.02-.13.01-.16-.02.06-.06.13-.08.24-.07.03 0 .05 0 .07-.02l.04.01v.05c0 .02-.02.03-.04.03l-.15.02Z" fill="#380A0A"/><path d="M8.98 9.06a.58.58 0 0 1-.35-.33c.02-.05.05-.07.1-.04.02 0 .04.03.06.06.06.1.12.2.2.3Z" fill="#A99C89"/><path d="M10.22 8.68c.02.1-.02.16-.12.2-.04 0-.06.02-.07.04-.03.06-.01.07.05.05a.6.6 0 0 0 .11-.06h.05a.5.5 0 0 1 .2.13l.06.03h.08l.02.01.1.18a.07.07 0 0 1 0 .05.07.07 0 0 1-.03.05.2.2 0 0 0-.1.13.22.22 0 0 1-.08-.15.6.6 0 0 0-.44-.25c-.02 0-.04 0-.06.04a.08.08 0 0 1-.05-.05v-.16c0-.01 0-.03.02-.04l.26-.2Z" fill="#8D6D2E"/><path d="M8.06 8.73c.02 0 .06.01.1.06a.13.13 0 0 0-.05.06c-.01.02 0 .04.01.07a10.87 10.87 0 0 0 .51.63.03.03 0 0 0 .05 0l.16-.24.01-.04a.27.27 0 0 0-.1-.16c.02-.02.03-.04.01-.05l.02-.03c.07.06.11.14.13.24l.02.04c.1.1.18.2.23.32a.1.1 0 0 0 .15.05c.05-.04.06-.09.03-.16v-.05c.04-.06.08-.1.11-.11l.08-.02c.08-.04.08-.06 0-.07h-.1a.02.02 0 0 1-.03-.03.13.13 0 0 1 .12-.07c.03 0 .06 0 .1-.02.11.01.22-.01.32-.07l.05.05.5.21c0 .05.03.1.08.15l.1.15c0 .04 0 .06-.02.07-.02 0-.03.02-.02.03 0 .03.01.05.04.06.2.06.34.13.46.22.12.15.14.24.06.25-.22-.19-.44-.21-.67-.07l-.03.04a4.76 4.76 0 0 1-.85-.01l-.36.01a3 3 0 0 0-.35.1c-.05-.15-.03-.3-.13-.43-.32-.35-.53-.6-.64-.74l-.1-.21V8.9a.07.07 0 0 0 .01-.05c0-.02-.01-.02-.03-.01a.65.65 0 0 1-.38.12l.4-.24Z" fill="#AA0515"/><path d="M8.16 8.79c.18.15.37.26.58.32.06.05.1.1.11.16v.04l-.17.23a.03.03 0 0 1-.05 0 10.87 10.87 0 0 1-.51-.63c-.01-.02-.02-.04-.01-.06 0-.02.02-.05.05-.06Z" fill="#CE0514"/><path d="M8.93 10.34a.35.35 0 0 1-.23.02h-.03c-.02.02-.02.03 0 .04l.14.13c-.26.05-.5.16-.73.34a.21.21 0 0 1-.06-.12l.01-.04.27-.15c.02 0 .02-.02 0-.03-.02-.02-.11.01-.26.1-.05.03-.12.04-.2.01-.07-.01-.12-.05-.16-.12-.17-.24-.31-.49-.42-.74a1.22 1.22 0 0 1-.02-.39c.3-.01.57.08.8.28.06.05.18.2.37.44.03.03.07.04.1.06l.02.04c.02.04.03.07.05.08.06.03.08.01.04-.05-.13-.23-.3-.43-.51-.6a1.6 1.6 0 0 0-1-.33l.23-.17.32-.17c.13 0 .26-.04.38-.12.02-.01.03-.01.03.01v.05c-.02.02-.02.03-.01.05l.1.2c.1.15.32.4.64.75.1.12.08.28.13.43Z" fill="#EF0618"/><path d="M13.16 9.11c0-.02-.01-.04-.03-.05A8.38 8.38 0 0 0 12.9 9l.01-.02c.11.01.2 0 .25-.04 0-.04.02-.06.04-.07.01 0 .02 0 .02.02v.23c0 .04-.01.05-.04.02l-.03-.02Z" fill="#553C14"/><path d="M9.94 9.02v.06a.53.53 0 0 1-.33.07l.33-.13Z"/><path d="m10.49 9.34-.5-.21c.02-.03.04-.05.06-.04.2.03.34.11.44.25Z" fill="#B6AE53"/><path d="M4.93 10.4c.35 1 1 1.8 1.91 2.38l.06.02c.12.14.2.28.21.43A4.58 4.58 0 0 1 4.46 9.7l-.01-.52c0-.04.01-.05.04-.02l.02.03c.13.3.22.54.26.74.05.18.1.34.16.46Z" fill="#EED157"/><path d="m9.14 9.21.2.05-.06.35-.02.02h-.02l-.01-.02a1.03 1.03 0 0 0-.25-.37c-.06-.06-.05-.08.03-.06l.13.03Z" fill="#A99C89"/><path d="M7.1 9.31c.37.01.73.09 1.01.32.2.18.38.38.51.61.04.06.02.08-.04.05-.02 0-.03-.04-.05-.08a.07.07 0 0 0-.02-.04c-.03-.02-.07-.03-.1-.06-.19-.25-.31-.4-.36-.44-.24-.2-.5-.3-.81-.28l-.3.07.04-.06.12-.09Z" fill="#380A0A"/><path d="M7.24 9.4c-.01.2 0 .33.02.38.1.25.25.5.42.74.04.07.1.11.15.12.09.03.16.02.21-.01.15-.09.24-.12.26-.1.02.01.02.02 0 .03l-.27.15c-.01.01-.02.03-.01.04a.2.2 0 0 0 .06.12c-.11.13-.2.25-.23.42 0 .05.03.13.1.23-.18 0-.3-.22-.39-.36l.01-.04.02-.02c.03-.01.02-.03 0-.04a1.3 1.3 0 0 1-.36-.35.11.11 0 0 1 .02-.15c0-.01 0-.03-.03-.06a.31.31 0 0 0-.13-.09l-.25-.35a.1.1 0 0 1-.02-.05l-.02-.17.04-.26.1-.12.3-.07Z" fill="#CE0514"/><path d="M11.93 12.04c0-.12-.05-.22-.16-.28a.07.07 0 0 0-.08 0 .66.66 0 0 0-.12.1c-.06.08-.04.1.04.06a.36.36 0 0 1 .08-.03l.06.01v.04l-.06.03c-.02.02-.02.03 0 .04.05.02.09-.02.14-.02.02 0 .03 0 0 .02a.2.2 0 0 0-.07.13.28.28 0 0 0-.24.02.1.1 0 0 1-.04-.1c.01-.06 0-.07-.05-.03a.56.56 0 0 0-.05.06c.01-.03 0-.05-.04-.06-.29-.03-.51.13-.67.35-.04.06-.03.07.03.04.03-.02.07-.02.13 0 .02 0 .03 0 .03.03l.06.16c.03.08 0 .12-.07.16a.21.21 0 0 1-.15.02.02.02 0 0 1-.01-.02.02.02 0 0 1 0-.02l.1-.04c.06-.02.06-.03 0-.04l-.1-.02c-.08 0-.08-.02-.02-.05l.1-.04v-.01a.01.01 0 0 0 0-.01l-.03-.01h-.02l-.2.04c-.02 0-.02.01-.02.02l.07.2a.08.08 0 0 1-.02.08.26.26 0 0 1-.25.07.18.18 0 0 1-.02-.15c.01-.04 0-.07-.05-.08h-.08c-.04-.01-.06 0-.07.04a.3.3 0 0 0 0 .12c0 .01 0 .03.02.04l.1.08-.21.06a.66.66 0 0 1-.1-.34.03.03 0 0 0-.01-.03h-.04l-.48.28a.04.04 0 0 0-.02.03v.32a.06.06 0 0 1-.05.06c-.1.02-.2.03-.3.01.14-.38.26-.67.59-.8.36-.13.67-.25.94-.44.16-.1.33-.23.5-.28l.35-.12c.29-.1.34-.32.38-.6l.11.3.02.02.03.01.09.02c.02 0 .02 0 .01-.02l-.39-.89-.02-.01a.02.02 0 0 0-.02.01v.04a2.6 2.6 0 0 0-.45-.6 1.34 1.34 0 0 0-.46-.22c-.03 0-.04-.03-.04-.06 0-.01 0-.02.02-.03.02 0 .03-.03.02-.07l.06-.13a.02.02 0 0 1 .01-.02h.01l.01.01c.16.25.3.48.56.6.06.03.11.07.16.13.32.43.54.85.63 1.27.05.2-.01.38-.18.54Z" fill="#8D6D2E"/><path d="M13.1 9.55c.02-.04.05-.05.1-.04.02.01.02.02 0 .04-.01.02-.04.03-.08.03a.02.02 0 0 1-.02-.03Z"/><path d="m13.12 9.78-.24-.03c-.01 0-.03 0-.03.02l.02.03.24.03c.02 0 .03-.01.03-.02 0-.02 0-.03-.02-.03Z" fill="#380A0A"/><path d="m13.44 9.78.09.06-.06.42a2.2 2.2 0 0 0-.21.69.1.1 0 0 0-.04 0c-.01 0-.03 0-.03.02l-.39.7h-.03s-.01 0 0 0l.01-.07c.04-.1.02-.11-.07-.06l-.12.1-.01-.07c.14-.19.3-.37.42-.58.2-.38.34-.8.44-1.21Z" fill="#AA7622"/><path d="M13.03 10.07c-.06-.08-.15-.09-.25-.04a.01.01 0 0 1-.01 0V10a.04.04 0 0 1 .01-.03.23.23 0 0 1 .2-.02c.27.1 0 .5-.24.23a.02.02 0 0 1 0-.02v-.01l.02-.02h.02c.07.07.21.1.26-.01l-.01-.05Z" fill="#755119"/><path d="m11.58 10.62.17.53c-.04.27-.1.49-.38.6l-.35.1c-.17.06-.34.18-.5.3-.27.18-.58.3-.94.44-.33.12-.45.41-.6.8l-.33-.02c.32-.18.45-.43.38-.75 0-.02 0-.03.02-.04.23-.1.4-.2.4-.5a.04.04 0 0 1 .01-.02h.03c.13 0 .25-.04.34-.1l.64-.27c.28.01.7-.01.95-.14.21-.1.3-.46.03-.54a.58.58 0 0 0-.02-.44.3.3 0 0 0-.18-.18l-.06-.12c.08-.01.06-.1-.06-.25.17.17.33.37.45.6Z" fill="#785E29"/><path d="M7.09 10.41c.05.02.1.05.13.1.03.02.04.04.03.05a.11.11 0 0 0-.02.15c.09.13.21.25.36.35.02.01.03.03 0 .04l-.02.02v.04c.07.14.2.36.37.36.05.02.1 0 .15-.03.16.1.33.15.49.12.56-.11.81-.13 1.22-.4.14-.1.3-.14.42-.19.02 0 .02-.02 0-.03a2.35 2.35 0 0 0-1.38-.3c.01-.09 0-.14-.03-.16l-.14-.13c-.02 0-.02-.02 0-.03v-.01h.03c.08.02.15.01.23-.02l.35-.1c.1-.01.22-.02.36 0 .26.01.53.01.82-.02.02 0 .03 0 .03.02a.33.33 0 0 1-.13.05l-.36.03a1.9 1.9 0 0 0-.88.03l-.22.07c-.03 0-.04.02-.02.05.1.13.18.16.35.17.19.02.39.05.6.1l.64.25c.02.03 0 .06-.02.08-.06-.02-.1-.02-.12-.01-.24.09-.46.2-.67.31-.19.1-.42.21-.57.23l-.53.08c-.18.03-.33-.05-.5-.06-.1 0-.24 0-.32-.07a.86.86 0 0 1-.25-.4.28.28 0 0 0-.11-.16.61.61 0 0 0-.2-.08l-.14-.02a.04.04 0 0 1-.03-.03l-.05-.2a.03.03 0 0 1 .01-.04H7c.02-.02.02-.03 0-.04a.1.1 0 0 1-.08-.08.07.07 0 0 0-.03-.04.74.74 0 0 1-.26-.35c.09-.02.15-.01.2.05.08.1.12.24.27.25Z"/><path d="m11.19 10.27.06.12c.06.22.08.43.07.64h-.08a.05.05 0 0 1-.03-.02.05.05 0 0 0-.04-.02h-.7l-.65-.24a.73.73 0 0 0-.43-.32 5.64 5.64 0 0 1-.27-.08c.27-.1.6-.07.88-.03.18.11.3.1.36-.03.05 0 .09-.02.13-.05 0-.02.02-.03.03-.04.23-.14.45-.12.67.07Z" fill="#A99C89"/><path d="M6.62 10.11c.06.16.15.27.26.35l.03.04a.1.1 0 0 0 .07.08c.03.01.03.02 0 .03v.01l-.02.02v.02l.05.2c0 .02.01.03.03.03l.14.02c.02.21.08.41.18.6l.25.41c.12.2.22.32.3.39.24.2.53.22.87.07.08-.04.23-.15.44-.35.17 0 .34-.01.5-.06a.16.16 0 0 1 .11-.01c-.1.06-.2.1-.34.1a.04.04 0 0 0-.04.01v.02c0 .3-.17.39-.4.5-.02 0-.02.01-.02.03.07.32-.06.57-.38.75l-.82-.16a9.48 9.48 0 0 1-.45-.46c-.32-.37-.38-.92-.5-1.4l-.14-.48c-.07-.25-.11-.5-.12-.76Z" fill="#755119"/><path d="M13.84 10.24c-.09.37-.23.72-.4 1.06l-.18-.35c.02-.23.1-.46.21-.7.05-.05.1-.07.14-.07.07 0 .15.02.23.06Z" fill="#EED157"/><path d="M10.36 10.3c-.06.12-.18.13-.36.02l.36-.03Z" fill="#A8853A"/><path d="M12.71 10.48c.05-.03.04-.05 0-.06-.04-.01-.06-.03-.06-.06 0-.02 0-.03.03-.03.12.02.22.06.3.12v.03a.03.03 0 0 1-.02.03l-.17.03c-.06 0-.07.03-.01.05.05.03.08.06.1.1 0 .02 0 .03-.02.03a.56.56 0 0 1-.25-.09c-.1-.06-.1-.1.03-.13.04 0 .06-.02.07-.02Z" fill="#8F631A"/><path d="m9.12 10.35.27.08c.2.06.34.16.44.32-.21-.06-.41-.1-.6-.1-.17-.02-.25-.05-.35-.18-.02-.03-.01-.04.02-.05l.22-.07Z" fill="#F0D5B3"/><path d="M8.43 10.45c.05 0 .09-.01.09-.03 0-.02-.04-.03-.09-.03-.05 0-.08.02-.08.03 0 .02.03.03.08.03Z" fill="#AA0515"/><path d="m11.45 11.01-.13.02c.01-.21-.01-.42-.07-.64.09.03.15.1.18.18.06.16.07.3.02.44Z" fill="#C8A857"/><path d="M8.84 10.68c-.46-.02-.76.16-.9.57-.03.1.02.18.15.24a.13.13 0 0 1-.15.03c-.06-.1-.1-.18-.09-.22.02-.18.12-.3.23-.43.23-.17.47-.29.73-.34.04.02.04.07.03.15Z" fill="#553C14"/><path d="m11.75 11.15-.17-.53v-.04a.02.02 0 0 1 .02-.01h.01l.01.01.4.89c0 .01 0 .02-.02.02l-.09-.02-.03-.01-.02-.03-.11-.28Z" fill="#A8853A"/><path d="M8.84 10.68h.38c.36.03.7.13 1 .3.02.02.02.03 0 .04-.12.05-.28.09-.42.18-.41.28-.66.3-1.22.4a.65.65 0 0 1-.5-.11c-.12-.06-.17-.14-.14-.24.14-.4.44-.6.9-.57Z" fill="#F0D5B3"/><path d="M12.37 10.94a.03.03 0 0 1-.01-.04l.05-.1a.15.15 0 0 1 .07-.07.1.1 0 0 1 .1 0l.12.06a.1.1 0 0 1 .06.07l-.01.1-.05.1a.03.03 0 0 1-.04.02l-.29-.14Z" fill="#8F631A"/><path d="M7.18 10.91c.08.02.15.05.2.08.05.03.09.08.11.16.06.16.13.3.25.4.08.07.22.06.33.07l-.05.17a1.97 1.97 0 0 1-.41-.22.43.43 0 0 0-.25-.06c-.1-.19-.16-.39-.18-.6Z" fill="#8D6D2E"/><path d="m13.26 10.95.18.35a4.82 4.82 0 0 1-2.22 2.18c.07-.3.17-.58.31-.84l.28-.2c.2-.16.47-.42.79-.8l.11-.1c.09-.05.11-.04.07.06l-.02.06.01.02h.02l.01-.01.39-.7.03-.02a.1.1 0 0 1 .04 0Z" fill="#8F631A"/><path d="M11.24 11.04a2.36 2.36 0 0 1-.68.07.03.03 0 0 0 0 .02c0 .11-.04.32.05.4a.04.04 0 0 1 0 .06l-.14.1-.64.27a.16.16 0 0 0-.11 0h-.03v-.02l.03-.02.77-.32c.05-.02.06-.05.03-.1a.55.55 0 0 1-.07-.43c.03-.02.04-.05.03-.08h.7l.03.02c0 .02.02.02.03.03Z" fill="#C8A857"/><path d="M11.45 11.01c.28.08.18.44-.03.54-.24.13-.67.15-.95.14l.14-.1a.04.04 0 0 0 0-.06c-.09-.08-.05-.29-.05-.4a.03.03 0 0 1 0-.02.03.03 0 0 1 .02-.01c.22.01.44-.01.66-.06h.08l.13-.03Z" fill="#755119"/><path d="M10.45 11.07a.56.56 0 0 0 .07.44c.03.04.02.07-.03.09l-.77.32-.02.02-.01.02h.03c-.16.06-.33.08-.5.07-.05 0-.08 0-.08.02l-.83-.12a.97.97 0 0 0-.29-.14l.05-.17c.16.01.31.09.49.06l.53-.08c.15-.02.38-.12.57-.23.2-.12.43-.22.67-.31h.12Z" fill="#EF0618"/><path d="m12.26 11.12.32.08h.01v.01a.02.02 0 0 1 0 .03l-.05.03c-.06.01-.09.06-.08.14l-.01.04a.04.04 0 0 1-.04 0 .06.06 0 0 1-.03-.02c-.1-.1-.13-.2-.12-.31Z" fill="#785E29"/><path d="M8.02 11.8c.11.03.2.07.29.13.26.13.54.17.83.12 0-.02.03-.02.08-.02-.21.2-.36.31-.44.35-.34.15-.63.13-.87-.07-.08-.07-.18-.2-.3-.39l-.25-.41c.1 0 .18.02.25.06.14.1.28.18.41.22Z" fill="#553C14"/><path d="M11.52 12.16c.05.04.13.06.14.1a.02.02 0 0 1-.01.02h-.01c-.09 0-.14.03-.16.07-.04.08-.06.07-.08-.02v-.05a.04.04 0 0 0-.03-.04l-.14-.05c-.02 0-.02-.02-.01-.04l.03-.01a.2.2 0 0 0 .13-.05.58.58 0 0 1 .05-.06c.04-.04.06-.03.05.03 0 .04.01.08.04.1ZM11.1 12.33l-.05-.03c-.02-.01-.02-.02 0-.03.03-.03.06-.04.09-.04l.04.03.12.2v.04c-.06.07-.14.1-.24.08a.08.08 0 0 1-.06-.1.22.22 0 0 1 .09-.11v-.04Z" fill="#755119"/><path d="M10.85 12.77c.15 0 .26.02.31.09l-.18.27a.29.29 0 0 1-.1.1c-.42.21-.85.33-1.3.36a.37.37 0 0 1-.16-.15.04.04 0 0 1 .01-.05h.02l.53-.13v-.02a.14.14 0 0 0-.07-.05c-.02 0-.03-.02-.03-.04 0-.05.04-.08.1-.1l.21-.06a.23.23 0 0 1 .11-.05c.1.02.18 0 .25-.07a.08.08 0 0 0 .02-.08l-.07-.2c0-.01 0-.02.02-.02l.2-.05h.02l.03.02v.01l-.1.05c-.06.03-.06.04.01.05l.12.02c.05 0 .05.02 0 .04l-.1.04a.02.02 0 0 0-.01.02.02.02 0 0 0 0 .02c.06.01.11 0 .16-.02Z" fill="#C18E30"/><path d="M11.53 12.64c-.14.26-.24.54-.31.84-.46.23-.94.38-1.45.46a1.16 1.16 0 0 0-.28-.3.2.2 0 0 1 .08-.05c.46-.03.9-.15 1.31-.36a.29.29 0 0 0 .1-.1l.18-.27.37-.22Z" fill="#AA7622"/><path d="M9.99 13.05c-.07.02-.1.05-.1.1 0 .02 0 .03.02.04.04.01.06.03.07.05v.02l-.53.12a.04.04 0 0 0-.03.02.04.04 0 0 0 0 .04c.03.05.08.1.15.15a.2.2 0 0 0-.08.04 5.93 5.93 0 0 1-1.91-.21l-.47-.2a.77.77 0 0 0-.21-.42c.3.17.61.3.93.4l.82.17.34.01c.1.02.2.01.3 0a.06.06 0 0 0 .05-.07V13l.02-.03.48-.28a.04.04 0 0 1 .05.03c.01.14.04.25.1.34ZM10.3 12.94a.23.23 0 0 0-.11.05l-.1-.08a.06.06 0 0 1-.01-.04.3.3 0 0 1 0-.12c0-.04.03-.05.07-.05l.08.01c.04.01.06.04.05.08-.02.05 0 .1.02.15Z" fill="#AE8F35"/><path d="M7.58 13.42c.64.18 1.24.24 1.91.21.1.08.2.18.28.3-.78.13-1.54.07-2.29-.16l.1-.35Z" fill="#755119"/><defs><linearGradient id="a" x1="3.35" y1="3.12" x2="21.9" y2="24.43" gradientUnits="userSpaceOnUse"><stop stop-color="#1A1E21"/><stop offset="1" stop-color="#06060A"/></linearGradient></defs></svg>