<!-- by TradingView --><svg width="18" height="18" viewBox="0 0 18 18" xmlns="http://www.w3.org/2000/svg"><path fill="#FF014A" d="M0 0h18v18H0z"/><path d="M5.37 10.46H5.3c-.2.09-.4-.1-.51-.25h-.01l-.02-.01a.03.03 0 0 0-.02 0c-.11.12-.25.18-.4.2a.1.1 0 0 0-.06.02c-.27.23-.51.06-.44-.28a5.6 5.6 0 0 0 .05-.39 39.13 39.13 0 0 1-.9-.44V9.3l.02-.01.96-.43a.1.1 0 0 0 .06-.08c.02-.27.02-.4.22-.57a.1.1 0 0 0 .03-.04c.08-.26.3-.4.65-.43.06 0 .07-.03.04-.08L3.8 5.65c-.03-.06-.02-.08.04-.06l2.42.94a.04.04 0 0 0 .04 0 .04.04 0 0 0 .02-.04l.11-.64.01-.02h.02a.04.04 0 0 1 .04 0l.54.45.02.01a.03.03 0 0 0 .03-.03l.18-1.99a.03.03 0 0 1 .01-.02.03.03 0 0 1 .03 0c.05.04.1.1.13.15A35.25 35.25 0 0 0 8.5 5.92l.19-.7c.02-.07.04-.07.08-.01l.43.8a.06.06 0 0 0 .05.03.05.05 0 0 0 .05-.02l1.56-1.99c.04-.05.06-.04.07.02l.14 1.33a4.16 4.16 0 0 0 .07.43l-.01.07c0 .03.01.03.04.02l.59-.43a.05.05 0 0 1 .06 0l.02.03.21.72a.04.04 0 0 0 .04.02h.02l2.31-1.6c.05-.03.06-.02.04.04l-.84 2.15v.01a.03.03 0 0 0 0 .02h.01l.97.32a.04.04 0 0 1 .03.03v.02l-.01.01-.18.21c-.06.07-.04.1.04.07.27-.06.45.12.43.4a10.69 10.69 0 0 1-.08.92c.04.06.09.1.16.16a.06.06 0 0 1-.01.1l-.35.19-.01.01a.05.05 0 0 0 0 .05l.01.01c.1.08.15.19.15.32-.01.33-.19.53-.53.58a.03.03 0 0 0-.02.02v.03l.72 1.37v.02h-.02l-1.22-.35h-.02a.03.03 0 0 0-.02.04l.84 1.99c.02.05 0 .07-.05.03l-2.07-1.3a.04.04 0 0 0-.04 0l-.01.02-.01.02-.2 1.11c0 .05-.02.05-.04 0l-.52-.98a.03.03 0 0 0-.03-.02h-.01l-.01.02-.2.55a.04.04 0 0 1-.06.02l-.01-.01a21.36 21.36 0 0 0-.3-.6h-.04l-.01.03-.35.84v.01l-.03.01h-.01l-.02-.02-.3-.58-.02-.02a.05.05 0 0 0-.06.02l-1.54 2.44c-.03.05-.05.04-.06-.02l-.51-2.45a.05.05 0 0 0-.03-.04h-.05l-.79.58a.03.03 0 0 1-.04 0v-.01L7.06 13l.16-.91a.05.05 0 0 0-.02-.05.04.04 0 0 0-.04 0l-2.02.64a.03.03 0 0 1-.04-.02v-.02l.58-1.25a.03.03 0 0 0-.01-.03h-.01l-1.04-.13h-.01a.03.03 0 0 1-.01-.04v-.02l.76-.69c.02-.01.02-.02 0-.03Z" fill="#010000"/><path d="m6.46 6.77.1-.57.01-.02h.01a.03.03 0 0 1 .03 0l.6.5a.03.03 0 0 0 .04 0v-.02l.17-1.86c0-.03.01-.04.03-.01l1.1 1.61a.02.02 0 0 0 .01 0h.01l.18-.67c.02-.05.04-.05.06 0l.37.67a.03.03 0 0 0 .03.02h.01l.01-.01 1.46-1.85.02-.01a.03.03 0 0 1 .02 0l.01.02.21 1.66c0 .03.02.03.04.01l.67-.46a.03.03 0 0 1 .04.01v.01l.23.72a.05.05 0 0 0 .03.04.05.05 0 0 0 .04-.01l1.94-1.34c.06-.04.08-.03.05.04l-.65 1.7a.02.02 0 0 0 0 .02.02.02 0 0 0 .02.01l.9.3h.02v.01a.02.02 0 0 1 0 .02l-.3.37h-.01c-.49-.25-.77.3-1.01.66h-.02v.01a.03.03 0 0 1-.03-.01 2.97 2.97 0 0 1-.18-.41c-.14-.37-.57-.42-.75-.07a1.29 1.29 0 0 0-.07.18.02.02 0 0 1-.03 0c-.3-.43-.88-.49-1.37-.39-.2.04-.25.26-.38.42-.04.05-.12.12-.14.2-.08.28-.12.54-.13.78 0 .15-.03.15-.07 0A18.1 18.1 0 0 1 9.5 8c-.08-.37-.51-.46-.75-.2-.1.1-.21.22-.36.35a.47.47 0 0 0-.1.13l-.66 1.27-.02.02h-.03a.65.65 0 0 0-.52-.06h-.01a.02.02 0 0 1 0-.03l.02-.03.01-.01h.01c.25-.03.42-.15.5-.37.05-.1.05-.2 0-.3-.05-.07-.12-.1-.2-.13-.08-.04-.08-.06.01-.08.3-.06.5-.18.47-.52-.01-.24-.23-.3-.45-.3-.36.02-.66.04-.9.08-.23.03-.41.14-.47.37-.02.08-.04.08-.08 0a.66.66 0 0 0-.56-.44 1 1 0 0 1-.15-.02.07.07 0 0 1-.04-.03l-1-1.7v-.01c.01-.02.03-.03.05-.02.84.34 1.56.62 2.15.84.02 0 .04 0 .04-.03Z" fill="#F7AD1A"/><path d="M14.57 7.63h-.03a.28.28 0 0 0-.31.24l-.15 1.07c-.02.16.08.3.23.33h.03c.15.02.29-.09.31-.24l.15-1.07a.29.29 0 0 0-.23-.33ZM10.11 9.38l.16-1.21c.04-.29.2-.43.48-.44.6 0 1.1.1 1.15.83.02.24-.02.47-.1.7-.2.55-.6.75-1.14.82-.2.03-.42.04-.58-.03-.23-.1-.1-.33-.03-.48a.59.59 0 0 0 .06-.2ZM12.89 8.5a.06.06 0 0 0 .07 0c.2-.2.32-.48.55-.68.13-.11.26-.12.4-.02l.02.05c.03.13 0 .26-.07.36l-.67.86c-.14.17-.15.44-.19.67-.03.17-.13.27-.3.3h-.02c-.18.01-.26-.08-.23-.26l.05-.47c0-.06 0-.13-.03-.18-.16-.32-.3-.61-.4-.87-.07-.21-.03-.37.15-.47.4-.26.47.57.67.72ZM9.2 9.77a.13.13 0 0 0-.06-.08.13.13 0 0 0-.08-.02l-.51.03a.2.2 0 0 0-.15.08c-.11.15-.2.38-.45.4-.22.01-.27-.23-.19-.4l.78-1.48c.14-.26.2-.42.42-.5.1-.05.2-.04.3 0 .17.1.2.5.25.7.1.38.23.75.28 1.17.04.22-.05.36-.25.42-.24.06-.3-.14-.35-.32ZM4.8 9.67c-.05.16-.05.44-.26.55-.2.1-.37.01-.36-.22 0-.1 0-.18.02-.25.07-.4.12-.78.14-1.12.01-.13.05-.34.09-.47.11-.4.86-.33 1.15-.25.08.02.16.09.22.2.17.26.18.65-.05.9a1.95 1.95 0 0 1-.28.24.1.1 0 0 0 0 .1c.09.13.17.23.25.31.12.13.14.33.05.45-.3.38-.76-.29-.9-.46l-.01-.01h-.03a.04.04 0 0 0-.03.03ZM6.8 8.6v.02c-.01.1.03.14.12.13.18-.02.33-.02.45 0 .12.03.16.1.13.23-.09.33-.41.34-.68.36-.08.01-.13.05-.13.13l-.01.04c-.01.1.03.13.11.12.27-.04.46-.05.58-.03.16.02.26.2.17.37a.36.36 0 0 1-.3.2l-.7.05c-.42.04-.53-.12-.46-.55.04-.28.09-.61.13-1 .02-.2-.15-.48.1-.67.07-.05.2-.09.39-.1.27-.02.53-.04.77-.04.13 0 .27.02.29.17.06.45-.55.43-.82.44-.09 0-.14.05-.14.14Z" fill="#FF014A"/><path d="M10.83 8.3a.03.03 0 0 1 .02-.02h.07c.06.02.12.04.17.08.06.04.1.08.14.14a.63.63 0 0 1 .08.4l-.01.1a.62.62 0 0 1-.07.2.56.56 0 0 1-.13.17.48.48 0 0 1-.17.1.43.43 0 0 1-.19 0h-.06a.02.02 0 0 1-.01-.02.03.03 0 0 1 0-.01l.16-1.14ZM4.93 8.53c0-.07.05-.1.12-.1l.23.04a.03.03 0 0 1 .03.01c.18.25-.13.43-.35.47-.05 0-.08-.02-.07-.07l.04-.35Z" fill="#010000"/><path d="m13.78 9.45-.12.02h-.02l-.02.02c.02.1.05.18.1.26v.06c-.07.17-.13.32-.02.5.06.12.18.09.33.09.02 0 .03 0 .04.02l.42.8c-.05.03-.08.05-.13.03a9.92 9.92 0 0 0-1.08-.28l.02.06.73 1.76-1.8-1.1a5.81 5.81 0 0 0-.2.96h-.02l-.47-.96v-.01a.02.02 0 0 0-.03 0v.01l-.26.64c0 .02-.01.02-.02 0l-.32-.63c0-.05-.03-.07-.06-.08-.02 0-.03 0-.03.03 0 .08-.03.15-.07.22l-.1.2-.14.42.03.09c-.03.1-.07.1-.12.01l-.29-.5a.08.08 0 0 0-.02-.04h-.05c-.23.33-.42.67-.6 1.03l-.83 1.35c-.02.03-.03.02-.03 0l-.5-2.36v-.02a.03.03 0 0 0-.02 0h-.02l-.6.47c-.04.04-.06.03-.05-.03l.07-.74a.01.01 0 0 0 0-.02h-.01l-1.96.63h-.02v-.01a.02.02 0 0 1-.01-.03l.5-1.08c0-.02 0-.03-.03-.04l-.86-.1c-.05-.01-.06-.03-.02-.07l.64-.58a.05.05 0 0 0 .01-.06l-.02-.07c0-.02 0-.02.02-.02h.02c.06.13.16.2.3.19.32 0 .6-.02.85-.05.1-.02.2-.06.31-.14a.1.1 0 0 1 .16.03c.09.16.22.17.4.04.06-.04.07-.07.14-.07.25 0 .38-.13.51-.32a.08.08 0 0 1 .05-.03.54.54 0 0 1 .32 0c.02 0 .03.02.04.03.05.1.07.27.17.35.12.08.24.03.37-.05.1-.08.25-.13.33 0l.03.03c.2.08.4.06.64.03.3-.03.47-.13.72-.23.46-.18.75-.46.88-.98.01-.04.03-.05.05 0 .08.13.13.23.16.31.05.11-.02.36-.06.53-.05.2.08.38.3.34.1-.03.15-.13.26-.14.28-.03.43-.21.47-.53.04-.26.03-.37.2-.57l.46-.59c.03-.04.04-.03.04.02-.04.3-.13.7-.06.95Z" fill="#F7AD1A"/><path d="M8.67 9.15c.04-.12.14-.3.23-.39a.05.05 0 0 1 .04 0 .04.04 0 0 1 .03.02c.05.1.08.21.09.34l-.01.05A.08.08 0 0 1 9 9.2c-.1.03-.19.04-.28.03a.06.06 0 0 1-.04-.03.06.06 0 0 1 0-.05Z" fill="#010000"/><path d="M10.87 8.77v-.01c.03 0 .04 0 .06.02a.2.2 0 0 1 .04.07.58.58 0 0 1 .02.21v.03a.58.58 0 0 1-.06.2.2.2 0 0 1-.05.06.08.08 0 0 1-.05.02h-.01l.05-.6ZM5.6 9.3l.21-.2c.06-.05.07-.03.05.04a1.2 1.2 0 0 0-.05.39H5.8a.02.02 0 0 1-.03 0l-.17-.2V9.3ZM3.96 9.1c.02-.02.03-.01.03.01l-.05.39a.02.02 0 0 1-.01.01.02.02 0 0 1-.02 0l-.38-.18c-.03-.02-.03-.03 0-.05l.43-.19Z" fill="#F7AD1A"/><path d="M14.05 9.58c-.12.18-.1.4.05.5.14.1.36.05.48-.13s.1-.41-.05-.51c-.15-.1-.36-.04-.48.14ZM14.49 11.23c.03.04.05.07.04.1 0 .03-.01.03-.03.03l-1.2-.33-.02-.06a9.92 9.92 0 0 1 1.08.28c.05.02.08 0 .13-.02ZM10.9 11.7a9.47 9.47 0 0 0-.3.72c-.01.08-.04.1-.08.07a202.17 202.17 0 0 1 .23-.62.48.48 0 0 0 .07-.22c0-.02 0-.03.03-.03s.05.03.06.08ZM14.03 12.79c.03.01.05.05.04.1 0 .03 0 .03-.02.02-.56-.32-1.11-.66-1.65-1.01-.1-.06-.15-.13-.17-.21l1.8 1.1Z" fill="#FF014A"/></svg>