<!-- by TradingView --><svg width="18" height="18" viewBox="0 0 18 18" xmlns="http://www.w3.org/2000/svg"><path fill="url(#a)" d="M0 0h18v18H0z"/><path d="M11.85 12.31a2.5 2.5 0 0 1-1.71 1.62 5.75 5.75 0 0 1-3.24-.5c-.81-.4-1.47-.94-2-1.65a4.58 4.58 0 0 1-.86-3.38c.08-.64.28-1.24.62-1.8a5.15 5.15 0 0 1 2-1.9c.85-.46 1.79-.7 2.8-.7a2.4 2.4 0 0 1 2.36 1.68 4.66 4.66 0 0 0-4.63.3c-.39.26-.72.58-.99.95a3.6 3.6 0 0 0-.64 2.58c.06.45.21.87.44 1.27A4.35 4.35 0 0 0 9.5 12.8a4.6 4.6 0 0 0 2.36-.5Zm0 0c.84-2.2.85-4.4.01-6.58-.01-.03 0-.04.03-.02a4 4 0 0 1 1.58 1.43 3.46 3.46 0 0 1 .02 3.69 4 4 0 0 1-1.64 1.48Zm-2.34-.98-.05-.5s0-.02.02-.02a13 13 0 0 0 .27-.04c.38-.06.67-.2.87-.4.21-.22.3-.5.24-.84a.78.78 0 0 0-.37-.55c-.17-.11-.39-.2-.66-.24L8.82 8.6c-.28-.04-.44-.13-.47-.26a.32.32 0 0 1 .08-.3.58.58 0 0 1 .29-.16c.27-.08.55-.08.81 0 .23.07.36.22.4.45.01.02.02.03.04.03h.74c.03 0 .04-.01.04-.04-.03-.51-.32-.86-.86-1.03a1.66 1.66 0 0 0-.38-.08c-.03 0-.05-.02-.05-.04l.05-.5c0-.01 0-.02-.03-.02h-.65c-.02 0-.02 0-.02.02l.05.5c0 .02 0 .03-.03.03-.4.03-.72.15-.97.35a.92.92 0 0 0-.19 1.26c.1.11.22.2.37.26.23.09.4.14.53.15l1.04.15c.25.04.38.13.4.27a.35.35 0 0 1-.1.35.78.78 0 0 1-.4.16c-.28.06-.54.05-.77-.01-.3-.09-.45-.25-.48-.5 0-.02-.01-.03-.04-.03h-.75c-.02 0-.03.01-.03.03a1 1 0 0 0 .42.84c.24.17.56.28.97.32.02 0 .03.01.03.03l-.05.5c0 .02.01.02.03.02h.64c.02 0 .03 0 .03-.02Z" fill="#D8FAE7"/><defs><linearGradient id="a" x1="14.4" y1="1.59" x2="5.43" y2="17.06" gradientUnits="userSpaceOnUse"><stop stop-color="#00EA59"/><stop offset="1" stop-color="#007C15"/></linearGradient></defs></svg>