<!-- by TradingView --><svg width="18" height="18" viewBox="0 0 18 18" xmlns="http://www.w3.org/2000/svg"><path fill="#024728" d="M0 0h18v18H0z"/><path d="M14.13 12.11a.47.47 0 0 0-.22-.67.54.54 0 0 0-.68.23 5 5 0 1 1 .75-2.2l-.15-.26c-.1-.18-.35-.26-.57-.18-.22.07-.32.28-.22.45l.7 1.31c.06.1.15.16.27.2.12.02.25.01.36-.04l1.42-.7c.2-.1.27-.3.15-.47-.13-.16-.4-.21-.6-.11l-.4.2a6 6 0 1 0-.8 2.25Z" fill="#FF8E3A"/><path d="M10.02 7.53a.1.1 0 0 0-.03.04l-.03.02a.32.32 0 0 0-.12.07c-.01.01-.04 0-.04-.01-.04-.37.22-.28.35-.52h.02c.08.15.07.3-.04.42-.05.06-.16.1-.17.19-.03.1-.03.22-.05.32-.03.12-.04.24-.04.36 0 .23-.3.61-.45.8a.36.36 0 0 0-.07.29c.01.06.05.1.12.09.33-.02.48-.24.62-.5.08-.14.45-.28.62-.32.02 0 .03-.02.02-.04l-.04-.04c-.07-.08.01-.27 0-.36 0-.02.02-.03.03-.02.17.07.24.2.22.37 0 .02-.02.02-.04.02-.03 0-.04-.01-.04-.04l-.01-.05c-.01-.02-.02-.01-.01 0v.1c.01.02.02.02.03.02.25.04.47-.01.66-.16.06-.05.08-.04.06.03-.05.14-.25.25-.39.29l-.28.04c-.32.05-.57.2-.74.47-.08.13-.15.26-.27.35-.15.11-.33.22-.5.28-.1.58.01 1.17.42 1.64h2.78c-.15.21-.48.57-.74.7H6.19c-.22-.16-.42-.5-.57-.7h2.7c.4-.6.48-1.18.3-1.83-.04-.17-.1-.3-.26-.4-.16-.1-.34-.2-.53-.26a.28.28 0 0 1-.12-.08 1.76 1.76 0 0 0-.6-.42v-.01h.01v-.01a3.42 3.42 0 0 1 .93.4c.17.1.3.18.44.23a1.2 1.2 0 0 1 .1.03c.12-.09.14-.29.13-.4 0-.09-.09-.17-.13-.25a.37.37 0 0 1-.02-.12c-.01-.22-.16-.59-.43-.62-.17-.02-.31-.1-.46-.03-.02 0-.03 0-.04-.02-.02-.05 0-.09.06-.09.15 0 .3-.01.43.03.31.1.56.35.65.64.02.1 0 .27.04.38.06.11.17.2.33.26h.03c.17-.04.18-.17.26-.29.1-.14.18-.3.24-.46a.88.88 0 0 0 .03-.2c.02-.17.11-.48.3-.58l.03-.04c0-.02 0-.03-.02-.01ZM7.94 13.41a5.86 5.86 0 0 1-1.55-.66h5.44c-.52.28-1.01.54-1.58.67-.5.11-1.09.08-1.62.07-.27 0-.5-.03-.7-.08Z" fill="#FF8E3A"/><path d="M6.1 9.54c.15.35 1.06.32 1.5.27.24-.28.82-.88 1.23-1.02.5-.17 1.23.18 1.63.49.4.31 1 .83 1.13.7.14-.12 1.1-.93 1.3-1.01.19-.09.1-.84 0-1.15-.1-.32-.93-.87-1.3-1.2-.37-.34-.3-.7-.6-.8-.32-.08-.44-.42-.62-.54-.17-.13-.87-.03-1.11 0-.24.02-.46-.25-.8-.28-.34-.02-.43.4-.86.91-.44.52-1.5.52-1.5.9 0 .37-.5.33-.8.56-.3.22-.36 1.31-.25 1.6.12.29.88.13 1.06.57Z" fill="#FF8E3A" fill-opacity=".5"/></svg>