<!-- by TradingView --><svg width="18" height="18" viewBox="0 0 18 18" xmlns="http://www.w3.org/2000/svg"><path fill="url(#a)" d="M0 0h18v18H0z"/><path fill-rule="evenodd" d="M14.54 11.3a5.94 5.94 0 0 0 0-4.6A5.95 5.95 0 0 0 9 3a5.94 5.94 0 0 0-4.24 1.76 5.95 5.95 0 0 0-1.3 6.54A5.95 5.95 0 0 0 9 15a5.94 5.94 0 0 0 4.24-1.76c.57-.56 1-1.2 1.3-1.94Zm-.94-.39a4.95 4.95 0 0 0-1.08-5.45 4.95 4.95 0 0 0-5.45-1.08A4.95 4.95 0 0 0 3.98 9a4.95 4.95 0 0 0 3.09 4.62 4.95 4.95 0 0 0 5.45-1.08c.47-.47.83-1.01 1.08-1.63Z" fill="#FFA02B"/><path fill-rule="evenodd" d="M9 12a3 3 0 1 0 0-6 3 3 0 0 0 0 6Zm0-1.53a1.47 1.47 0 1 0 0-2.94 1.47 1.47 0 0 0 0 2.94Z" fill="url(#b)"/><path d="M11.6 10.48a3 3 0 0 1-5.24-.05l1.19-1.19a1.48 1.48 0 0 0 2.84.25l1.22 1Z" fill="url(#c)"/><circle cx="9" cy="6.77" fill="#FEB951" r=".77"/><defs><linearGradient id="a" x1="3.35" y1="3.12" x2="21.9" y2="24.43" gradientUnits="userSpaceOnUse"><stop stop-color="#1A1E21"/><stop offset="1" stop-color="#06060A"/></linearGradient><linearGradient id="b" x1="7.79" y1="7.01" x2="9.87" y2="7.01" gradientUnits="userSpaceOnUse"><stop offset=".37" stop-color="#6E4010"/><stop offset=".71" stop-color="#D48323"/></linearGradient><linearGradient id="c" x1="6.73" y1="10.29" x2="10.35" y2="10.29" gradientUnits="userSpaceOnUse"><stop offset=".16" stop-color="#6E4010"/><stop offset="1" stop-color="#D48323"/></linearGradient></defs></svg>