<!-- by TradingView --><svg width="18" height="18" viewBox="0 0 18 18" xmlns="http://www.w3.org/2000/svg"><path fill="url(#a3y1cmi3o)" d="M0 0h18v18H0z"/><path d="M10.05 12H5l3.91-7L13 12h-1.42L8.9 7.5 6.97 11h2.6l.48 1Z" fill="url(#b3y1cmi3o)"/><path fill-rule="evenodd" d="M9 15A6 6 0 1 0 9 3a6 6 0 0 0 0 12Zm0-.5a5.5 5.5 0 1 0 0-11 5.5 5.5 0 0 0 0 11Z" fill="url(#c3y1cmi3o)"/><defs><linearGradient id="a3y1cmi3o" x1="3.35" y1="3.12" x2="21.9" y2="24.43" gradientUnits="userSpaceOnUse"><stop stop-color="#1A1E21"/><stop offset="1" stop-color="#06060A"/></linearGradient><linearGradient id="b3y1cmi3o" x1="11.32" y1="7.6" x2="5.54" y2="11.96" gradientUnits="userSpaceOnUse"><stop offset=".03" stop-color="#FF9F8F"/><stop offset=".18" stop-color="#FFAB87"/><stop offset=".41" stop-color="#EEE96E"/><stop offset=".54" stop-color="#9DF4A0"/><stop offset=".69" stop-color="#55FECD"/><stop offset=".88" stop-color="#6AB4E7"/><stop offset="1" stop-color="#8D6CF8"/></linearGradient><linearGradient id="c3y1cmi3o" x1="9" y1="3" x2="9" y2="15" gradientUnits="userSpaceOnUse"><stop stop-color="#FC9E92"/><stop offset=".12" stop-color="#F3B988"/><stop offset=".2" stop-color="#E4E577"/><stop offset=".3" stop-color="#BAF18E"/><stop offset=".4" stop-color="#6EFABC"/><stop offset=".49" stop-color="#55F3D2"/><stop offset=".59" stop-color="#59E3D9"/><stop offset=".71" stop-color="#5DD1E0"/><stop offset=".81" stop-color="#799AEE"/><stop offset=".9" stop-color="#8087F2"/><stop offset="1" stop-color="#9067FA"/></linearGradient></defs></svg>