<!-- by TradingView --><svg width="18" height="18" viewBox="0 0 18 18" xmlns="http://www.w3.org/2000/svg"><path fill="url(#a)" d="M0 0h18v18H0z"/><path fill-rule="evenodd" d="M9.7 8.17c-.02-.04-.03-.04-.02 0l.08 1.45c0 .08-.03.12-.11.12-.21.01-.43.02-.66.01-.03 0-.07-.02-.1-.08a5.4 5.4 0 0 1-.35-.6h-.01l-.02.03.04.25c0 .02 0 .02-.02.02H7.8c-.08 0-.12-.04-.14-.11a16.7 16.7 0 0 1-.06-2.19h.13c.24-.01.41 0 .51.01.07.02.14.1.2.23l.29.56c.04.09.07.09.07-.01l-.01-.72c0-.03 0-.05.03-.07a.1.1 0 0 1 .06-.04c.07 0 .22-.03.44-.07.13-.02.2.01.25.1.03.05.04.14.05.28v.05h.02c.1-.4.3-.74.59-1l.84-.7a.08.08 0 0 0 .03-.06c0-.1-.05-.26-.13-.49A2.83 2.83 0 0 1 10.9 5c-.01-.05 0-.05.04-.03l.16.1c.01.02.02.02.02 0l-.06-.25V4.8h.03l.26.15c.06.04.08.08.07.15a14.56 14.56 0 0 1-.14.74l-.05.4c0 .15.04.26.12.34.1.1.18.15.28.17.11.02.21 0 .31-.08.16-.12.23-.24.22-.37a33.9 33.9 0 0 1-.08-1.4 78.05 78.05 0 0 0 .39-.44c.01 0 .02.01.02.03l-.04.38c0 .02 0 .03.02.01l.27-.24c.03-.04.04-.03.03.02l-.14.57v.03c.02.01.03.02.05.01l.43-.18h.01v.01c-.08.26-.2.5-.36.72v.03l.54 1c.12.24.2.42.22.55.04.19.07.35.07.49 0 .15 0 .31-.04.47-.06.24-.17.43-.32.6-.02.01-.02.03 0 .04.03.02.05.05.06.08v.09l.01.02v.55c0 .07-.03.1-.1.1a6.4 6.4 0 0 0-.53 0c-.03 0-.07.02-.12.07v.03c.05.06.09.1.12.1l.37.06c.16.03.27.12.32.28a2 2 0 0 1 .06.72l-.07.57c-.03.1-.1.15-.2.16l-.91.06c-.1 0-.15-.01-.19-.04-.04-.04-.06-.1-.06-.19a26.6 26.6 0 0 0-.01-.68c.19.02.37.03.56.03.04 0 .08-.03.13-.07v-.03c-.04-.03-.07-.04-.1-.04l-.34.01c-.14 0-.22-.03-.26-.1a.69.69 0 0 1-.04-.29v-.05a21.65 21.65 0 0 1 0-1.15l-.23-.06h-.01v.01a.7.7 0 0 1 .06.27l.06 1.38c.01.2 0 .38-.02.53-.02.18-.08.35-.17.5-.02.02-.01.06.01.11l.07.2c.01.03 0 .04-.02.05l-.37.07c-.04.01-.07 0-.1-.02l-.02-.04c-.1-.11-.18-.17-.23-.16-.26.03-.5.03-.72 0a.31.31 0 0 1-.25-.2 1.37 1.37 0 0 1-.09-.4 16.18 16.18 0 0 1-.03-1.66c0-.2.04-.38.1-.55.04-.1.1-.17.2-.2a.8.8 0 0 1 .28-.04c.04 0 .04-.02 0-.04a2.6 2.6 0 0 1-.45-.36c-.1-.1-.2-.27-.31-.5Zm1.5 2.94c-.16-.11-.32-.1-.46.01l-.02.03-.06.15a1.26 1.26 0 0 1-.02-.25v-1.2c0-.06.03-.1.06-.14a.2.2 0 0 1 .13-.05c.04 0 .1 0 .14.03.04.02.08.05.1.1.02.03.03.1.04.17l.1 1.15Zm.13-2.8-.06-.02a.34.34 0 0 0-.13-.03.28.28 0 0 0-.13.05c-.05.03-.08.07-.08.11 0 .05 0 .09.04.13.1.12.22.2.37.23l.35.08h.35l.2-.06c.06-.04.08-.1.07-.17a.28.28 0 0 0-.1-.2.25.25 0 0 0-.22-.03.8.8 0 0 1-.34 0 2.35 2.35 0 0 1-.32-.1Z" fill="#fff"/><path d="M11.88 4.2a.49.49 0 0 1-.23.17c-.02.01-.03 0-.03-.01 0-.13.03-.24.1-.32.05-.05.1-.05.15 0 .05.05.05.1.01.16ZM11.53 5.05l.07-.44c0-.03.01-.05.03-.06l.3-.18.02.01.02.39c0 .03 0 .05-.03.07l-.05.03a.92.92 0 0 1-.34.2c-.02 0-.03 0-.02-.02ZM11.99 4.95l.04.53c0 .06-.03.11-.09.15-.12.07-.2.12-.26.14a.68.68 0 0 1-.27.05V5.8l.08-.55.02-.02.23-.1.23-.18h.01Z" fill="#fff"/><path fill-rule="evenodd" d="M10.07 5.34a32.16 32.16 0 0 0 .13.84c.08-.03.17-.1.28-.17a58.09 58.09 0 0 1 .54-.41c.01-.01.02-.03 0-.05a2.3 2.3 0 0 0-.35-.45 1.28 1.28 0 0 0-.47-.33c-.03 0-.05 0-.06.03-.07.17-.1.35-.07.54Zm.73.22v-.04a1.7 1.7 0 0 0-.21-.2.73.73 0 0 0-.25-.16c-.05-.01-.08 0-.09.05l-.01.14c0 .19.03.37.08.53 0 .02.02.02.03 0l.45-.32ZM12.9 5.85l.03.04c.18.24.35.52.5.85.02.03.04.03.06 0 .27-.37.44-.8.5-1.28.01-.04 0-.06-.03-.07a.18.18 0 0 0-.1 0h-.12c-.13.02-.22.03-.26.05-.2.09-.4.2-.58.32-.03.02-.03.05 0 .09Zm.65.4c.1-.24.15-.43.14-.57 0-.03-.02-.05-.05-.04-.18.03-.35.1-.52.18v.03l.3.48c.01.03.03.04.06.03.03-.01.05-.04.06-.08l.01-.03Z" fill="#fff"/><path d="m12.04 5.72.03.43c0 .12-.04.21-.12.28a.4.4 0 0 1-.26.08.43.43 0 0 1-.26-.1c-.08-.05-.1-.12-.1-.21l.03-.17c0-.01.01-.02.03-.02.2-.01.4-.09.55-.22l.08-.07h.02Z" fill="#fff"/><path d="M10.74 7.34c-.02.02-.02.04.01.06l.3.31c.04.04.04.1 0 .15-.05.06-.1.06-.15.02a1.8 1.8 0 0 1-.3-.4h-.05c-.08.11-.17.2-.27.28-.06.05-.1.04-.14-.02l-.01-.02c-.04-.05-.03-.1.03-.15l.34-.24.02-.03c0-.02 0-.03-.02-.04l-.2-.2c-.05-.06-.05-.12 0-.18l.02-.02c.07-.06.13-.06.2.02.05.08.1.16.12.25 0 .02.02.03.04.01l.32-.32c.05-.05.1-.08.18-.08.08 0 .13.03.17.1.02.03.01.06-.02.09l-.18.11-.14.09-.27.21ZM12.55 7.6l-.02-.01-.02.01a.81.81 0 0 1-.15.21.08.08 0 0 1-.1.02h-.01c-.06-.05-.07-.1-.03-.14l.16-.22c.02-.02.02-.04 0-.06l-.04-.02a.65.65 0 0 1-.14-.14.16.16 0 0 1 0-.18.07.07 0 0 1 .07-.04c.05.01.1.04.14.1a1.12 1.12 0 0 1 .12.17l.02.01h.02a.36.36 0 0 1 .3-.38c.02-.02.04-.02.07 0 .02 0 .03.02.03.05a.28.28 0 0 1-.07.22 1.12 1.12 0 0 1-.22.2c-.02.01-.02.03 0 .04l.16.16c.05.06.05.1 0 .15l-.02.01c-.06.05-.11.04-.16-.02l-.1-.14Z" fill="#EF14EE"/><path fill-rule="evenodd" d="M6.66 10h.05l.22-.02h.02a.8.8 0 0 0 .3-.05c.1-.05.14-.14.15-.28l.07-1.28c0-.25-.01-.53-.06-.86-.02-.16-.12-.26-.3-.28a3.95 3.95 0 0 0-.87-.05c-.27.02-.42.16-.46.42-.1.64-.11 1.3-.03 2 .02.2.16.32.43.35a10.42 10.42 0 0 0 .48.04Zm.02-2.09c0-.04 0-.07-.03-.1l-.06-.08c-.02-.04-.04-.03-.05.01a6 6 0 0 0 0 1.72c.01.04.03.04.05 0v-.05l.1-1.5Z" fill="#fff"/><path d="m11.8 7.92.09-.06.03.01c.03.03.05.07.05.12l-.01.03a.48.48 0 0 1-.21.1h-.03c-.07-.07-.12-.13-.13-.2 0-.1.02-.12.1-.06l.04.05c.02.02.04.02.07 0Z" fill="#EF14EE"/><path d="M11.26 8.48c0 .03.03.05.05.05.02 0 .03-.03.03-.06s-.02-.05-.04-.04c-.03 0-.04.02-.04.05ZM11.63 8.54c.02 0 .03.02.02.04l-.02.07c0 .03-.01.04-.03.06a.07.07 0 0 1-.06 0 .07.07 0 0 1-.05-.03.08.08 0 0 1 0-.06v-.08c.01-.02.02-.02.04-.02l.1.02ZM11.97 8.57v-.01l.02-.01c.06-.03.1-.03.1 0 .01.02-.01.04-.07.07H12l-.02-.05ZM11.75 8.56l.1.01v.03a.25.25 0 0 1-.09.14.04.04 0 0 1-.03 0 .04.04 0 0 1-.03-.02c0-.04 0-.08.02-.14l.03-.02Z" fill="#fff"/><path fill-rule="evenodd" d="m4.83 10.35.02-.01.33-.05a.6.6 0 0 0 .23-.06.35.35 0 0 0 .15-.21c.07-.28.1-.54.09-.78a1 1 0 0 0-.08-.38.44.44 0 0 0-.28-.23l-.3-.06A19.57 19.57 0 0 0 4 8.6c0 .93 0 1.82.03 2.68 0 .09.04.13.1.13l.65.01c.04 0 .08 0 .1-.03l.02-.03v-.15l-.07-.85ZM4.8 9.2v.64c.05 0 .1-.02.13-.06a.21.21 0 0 0 .04-.14V9.4c0-.06-.01-.1-.05-.14a.15.15 0 0 0-.12-.06Z" fill="#fff"/><path d="M7.63 11c.03-.03.05-.08.05-.15l.03-1.11c0-.03 0-.06.03-.08a.12.12 0 0 1 .08-.04c.13-.02.32-.03.59-.04a.2.2 0 0 1 .15.05.2.2 0 0 1 .06.15 128.43 128.43 0 0 1 .03 3 .33.33 0 0 1-.13.02h-.04l-.53.01c-.11 0-.17-.05-.17-.17v-.6c0-.08-.05-.12-.12-.13-.07-.01-.1.01-.1.08l.04.7a.1.1 0 0 1-.03.08.11.11 0 0 1-.08.04l-.5-.01c-.07 0-.12-.03-.15-.09a.4.4 0 0 1-.03-.17l-.02-2.33c0-.03.02-.05.05-.05l.51-.05c.13 0 .2.05.2.18l-.01.63c0 .03.02.06.06.1l.03-.01ZM9.8 11.27c.02.6.05 1.13.1 1.59a.1.1 0 0 1-.03.08.1.1 0 0 1-.08.03L9.1 13a.15.15 0 0 1-.14-.08 12.48 12.48 0 0 1-.08-.67 145.98 145.98 0 0 1-.06-2.08l.74-.04c.12 0 .18.05.19.15l.05 1ZM5.99 12.21c.03-.03.05-.09.06-.17a1.57 1.57 0 0 0-.02-.3c0-.02 0-.05.03-.07a.1.1 0 0 1 .08-.04c.1 0 .2 0 .32.02.12 0 .19.08.2.2l.02.66c0 .12-.06.2-.2.26-.29.1-.57.14-.84.1-.18-.04-.3-.16-.32-.36-.07-.4-.1-.72-.12-.95-.02-.34-.01-.64.04-.9a.43.43 0 0 1 .28-.34c.1-.04.26-.08.5-.13a.4.4 0 0 1 .44.2c.16.26.22.6.18 1.01 0 .02 0 .02-.02.02h-.55A.1.1 0 0 1 6 11.4a.1.1 0 0 1-.03-.08l-.02-.26c0-.09-.03-.1-.07 0l-.01.03v.05c0 .3 0 .61.02.94 0 .05.03.1.08.14h.03Z" fill="#fff"/><path d="m11.21 11.11.02.27c0 .05-.01.06-.04.02a.94.94 0 0 0-.24-.17c-.03-.02-.06-.02-.1 0a.21.21 0 0 0-.13.2l-.01.02h-.01l-.03-.01a.23.23 0 0 1 0-.14l.05-.15.02-.03c.14-.12.3-.12.47 0Z" fill="#EF14EE"/><defs><linearGradient id="a" x1="3.35" y1="3.12" x2="21.9" y2="24.43" gradientUnits="userSpaceOnUse"><stop stop-color="#1A1E21"/><stop offset="1" stop-color="#06060A"/></linearGradient></defs></svg>