<!-- by TradingView --><svg width="18" height="18" viewBox="0 0 18 18" xmlns="http://www.w3.org/2000/svg"><path fill="#ACF601" d="M0 0h18v18H0z"/><path d="M14 5a1 1 0 0 1-1.97.26A4.65 4.65 0 0 1 14 4.9 1 1 0 0 1 14 5Zm-.05-.32a1 1 0 0 0-1.95.36c.56-.23 1.2-.38 1.95-.36Zm-2.25.49v-.55c-.94 0-1.7.74-1.7 1.65v.18a5.74 5.74 0 0 1 1.7-1.28Zm0 .25a5.07 5.07 0 0 0-1.7 1.4v4.63c.94 0 1.7-.74 1.7-1.65V5.42ZM9.52 7.08A1.7 1.7 0 0 0 8 6.18v3.25c.49-.72.9-1.37 1.2-1.85l.32-.5ZM8 9.86C8.59 9 9.08 8.22 9.42 7.67c.08-.11.15-.22.2-.32.05.15.08.31.08.48V13c-.94 0-1.7-.74-1.7-1.66V9.86Zm-.3.01V7.72c-.94 0-1.7.75-1.7 1.68v2.31c.38-.22.74-.52 1.03-.9l.67-.94ZM6 11.97c.45-.24.9-.59 1.24-1.05l.46-.63v.73c0 .92-.76 1.67-1.7 1.67v-.72Zm-.46-.02c.1-.23.16-.5.16-.78V10c-.94 0-1.7.82-1.7 1.83v.52c.41-.03.98-.15 1.54-.4ZM4 12.57c.37-.03.86-.12 1.36-.3-.3.44-.8.73-1.36.73v-.43Z"/></svg>