<!-- by TradingView --><svg width="18" height="18" viewBox="0 0 18 18" xmlns="http://www.w3.org/2000/svg"><path fill="#F0F3FA" d="M0 0h18v18H0z"/><path d="M6.5 7.5v-3L4 6l2.5 1.5Z" fill="#348AA7"/><path d="M9 6 6.5 7.5v3L9 12V6Z" fill="#55CF98"/><path d="m4 6 2.5 1.5v3L4 12V6Z" fill="#1A6882"/><path d="M6.5 4.5 9 6 6.5 7.5v-3Z" fill="#76E8B5"/><path d="m4 12 2.5-1.5L9 12v3l-5-3Z" fill="#12556B"/><path d="M11.5 4.5 9 6 6.5 4.5 9 3l2.5 1.5Z" fill="#BCE784"/><path d="m9 6 2.5 1.5v3L9 12V6Z" fill="#48B081"/><path d="m14 6-2.5 1.5v3L14 12V6Z" fill="#1A6882"/><path d="M11.5 4.5 9 6l2.5 1.5v-3Z" fill="#57C795"/><path d="m14 12-2.5-1.5L9 12v3l5-3Z" fill="#0D3E4F"/><path d="M11.5 7.5v-3L14 6l-2.5 1.5Z" fill="#348AA7"/></svg>