<!-- by TradingView --><svg width="18" height="18" viewBox="0 0 18 18" xmlns="http://www.w3.org/2000/svg"><path fill="#F0F3FA" d="M0 0h18v18H0z"/><path d="M13 10.76C13 13.1 11.2 15 9 15s-4-1.9-4-4.24c0-2.34 1.8-4 4-4s4 1.66 4 4Z" fill="url(#a51ayvoyu)"/><path d="m5.7 8.44 3.35 1.93 3.24-1.94A3.96 3.96 0 0 0 9 6.77c-1.37 0-2.58.63-3.3 1.67Z" fill="url(#b51ayvoyu)"/><path d="M6.2 7.62 9 3v6.32l-2.8-1.7Z" fill="url(#c51ayvoyu)"/><path d="M11.85 7.62 9 3v6.32l2.85-1.7Z" fill="url(#d51ayvoyu)"/><defs><linearGradient id="a51ayvoyu" x1="9" y1="9.68" x2="9" y2="15" gradientUnits="userSpaceOnUse"><stop stop-color="#498CEA"/><stop offset="1" stop-color="#55F3FE"/></linearGradient><linearGradient id="b51ayvoyu" x1="9" y1="8.04" x2="9" y2="10.01" gradientUnits="userSpaceOnUse"><stop stop-color="#53C1F2"/><stop offset="1" stop-color="#56AAF1"/></linearGradient><linearGradient id="c51ayvoyu" x1="8.59" y1="5.09" x2="7.5" y2="9.29" gradientUnits="userSpaceOnUse"><stop stop-color="#FFE234"/><stop offset="1" stop-color="#3CCBB7"/></linearGradient><linearGradient id="d51ayvoyu" x1="9.66" y1="4.44" x2="10.53" y2="9.16" gradientUnits="userSpaceOnUse"><stop stop-color="#FD7E75"/><stop offset="1" stop-color="#4B8FE7"/></linearGradient></defs></svg>