<!-- by TradingView --><svg width="18" height="18" viewBox="0 0 18 18" xmlns="http://www.w3.org/2000/svg"><path fill="#F0F3FA" d="M0 0h18v18H0z"/><path d="M12.69 11.76c-.15 0-.27.1-.32.24a3.48 3.48 0 0 1-3.27 2.35 3.53 3.53 0 0 1-3.47-3.58c0-.68.22-1.48.59-2.32.36-.84.85-1.68 1.35-2.43a25.74 25.74 0 0 1 1.47-1.99.06.06 0 0 1 .1 0 31.24 31.24 0 0 1 2.24 3.34c.06.1.17.17.28.17.24 0 .4-.26.28-.48a29.19 29.19 0 0 0-2.79-4.04.06.06 0 0 0-.1 0l-.37.44C7.64 4.73 5 8.16 5 10.77A4.17 4.17 0 0 0 9.1 15c1.8 0 3.33-1.19 3.88-2.84a.3.3 0 0 0-.3-.4Z" fill="url(#abfuptbxb)"/><circle cx="9" cy="11" r="2" fill="url(#bbfuptbxb)"/><circle cx="12" cy="10" r="1" fill="url(#cbfuptbxb)"/><circle cx="13" cy="8" r="1" fill="url(#dbfuptbxb)"/><circle cx="13.5" cy="11.5" r=".5" fill="#721CCF"/><defs><linearGradient id="abfuptbxb" x1="9" y1="3" x2="9" y2="15" gradientUnits="userSpaceOnUse"><stop stop-color="#D831BD"/><stop offset="1" stop-color="#2011CB"/></linearGradient><linearGradient id="bbfuptbxb" x1="9" y1="9" x2="9" y2="13" gradientUnits="userSpaceOnUse"><stop stop-color="#7F21C0"/><stop offset="1" stop-color="#4114C7"/></linearGradient><linearGradient id="cbfuptbxb" x1="11.5" y1="9.17" x2="12.5" y2="10.67" gradientUnits="userSpaceOnUse"><stop stop-color="#B42BC0"/><stop offset="1" stop-color="#8F25C4"/></linearGradient><linearGradient id="dbfuptbxb" x1="12.4" y1="7.6" x2="13.6" y2="8.8" gradientUnits="userSpaceOnUse"><stop stop-color="#BD26BF"/><stop offset="1" stop-color="#A129BC"/></linearGradient></defs></svg>