<!-- by TradingView --><svg width="18" height="18" viewBox="0 0 18 18" xmlns="http://www.w3.org/2000/svg"><path fill="#F0F3FA" d="M0 0h18v18H0z"/><path d="M11.67 8.45c0 1.35-.97 2.45-2.17 2.45-.58 0-1.11-.26-1.5-.68v2.43l-1-.7v-5.6h1v.33c.39-.42.92-.68 1.5-.68 1.2 0 2.17 1.1 2.17 2.45ZM8 8.45c0 .77.52 1.4 1.17 1.4.64 0 1.16-.63 1.16-1.4 0-.77-.52-1.4-1.16-1.4-.65 0-1.17.63-1.17 1.4Z" fill="url(#ae3lzowfn)"/><path d="M12 8.62c0 1.36-.97 2.46-2.17 2.46-.58 0-1.1-.26-1.5-.69V13l-1-.7V6.52h1v.34c.4-.43.92-.69 1.5-.69 1.2 0 2.17 1.1 2.17 2.45Zm-3.67 0c0 .78.53 1.4 1.17 1.4.64 0 1.17-.62 1.17-1.4 0-.77-.53-1.4-1.17-1.4-.64 0-1.17.63-1.17 1.4Z" fill="url(#be3lzowfn)"/><path fill-rule="evenodd" d="M9 14.5a5.5 5.5 0 1 0 0-11 5.5 5.5 0 0 0 0 11Zm0 .5A6 6 0 1 0 9 3a6 6 0 0 0 0 12Z" fill="url(#ce3lzowfn)"/><path fill-rule="evenodd" d="M9 13.5a4.5 4.5 0 1 0 0-9 4.5 4.5 0 0 0 0 9Zm0 .5A5 5 0 1 0 9 4a5 5 0 0 0 0 10Z" fill="url(#de3lzowfn)"/><defs><linearGradient id="ae3lzowfn" x1="9.33" y1="6" x2="9.33" y2="12.65" gradientUnits="userSpaceOnUse"><stop stop-color="#5F2614"/><stop offset="1" stop-color="#995606"/></linearGradient><linearGradient id="be3lzowfn" x1="9.67" y1="6.35" x2="9.67" y2="13" gradientUnits="userSpaceOnUse"><stop stop-color="#B37008"/><stop offset="1" stop-color="#E8B524"/></linearGradient><linearGradient id="ce3lzowfn" x1="12.5" y1="4" x2="6.5" y2="14.5" gradientUnits="userSpaceOnUse"><stop stop-color="#FCC526"/><stop offset="1" stop-color="#864402"/></linearGradient><linearGradient id="de3lzowfn" x1="11.5" y1="5" x2="6" y2="13" gradientUnits="userSpaceOnUse"><stop stop-color="#834001"/><stop offset="1" stop-color="#FAC326"/></linearGradient></defs></svg>