<!-- by TradingView --><svg width="18" height="18" viewBox="0 0 18 18" xmlns="http://www.w3.org/2000/svg"><path fill="#F0F3FA" d="M0 0h18v18H0z"/><path fill-rule="evenodd" d="M9.6 7.15c.34-.25.8-.45 1.29-.48.53-.03 1.14.14 1.76.8h.98A3.37 3.37 0 0 0 10.85 6c-.71.05-1.33.36-1.77.7a3.1 3.1 0 0 0-2.24-.65c-.83.1-1.62.64-2.19 1.42h.87c.42-.45.9-.7 1.4-.76.61-.07 1.27.12 1.9.64a9.58 9.58 0 0 1 1.12 1.13 21.85 21.85 0 0 0 .7.74c.7.77 1.6 1 2.38.93a2.62 2.62 0 0 0 1.82-.92l.16-.21-.18-.2c-.3-.33-.87-.72-1.6-.84-.68-.1-1.47.01-2.3.57l-.46-.5-.25-.27-.6-.63Zm1.81 1.88c.5.4 1.04.5 1.55.45.46-.04.86-.22 1.12-.42a2.24 2.24 0 0 0-.97-.42 2.4 2.4 0 0 0-1.7.4Zm-2.6-1.12-.04.04L7.7 9l.26.24 1.12 1.13 1.16-1.13.48.47-1.16 1.13c.28.24.72.46 1.24.5.58.04 1.26-.11 2-.9h.88l-.17.23c-.91 1.06-1.9 1.4-2.76 1.33a2.84 2.84 0 0 1-1.87-.89L7.47 9.7a7.03 7.03 0 0 0-.48-.45A2.45 2.45 0 0 0 3.97 9c.44.33 1.47.61 2.45.28l.55.45a3.25 3.25 0 0 1-3.77-.53L3 8.97l.23-.21a3.1 3.1 0 0 1 3.96-.21l1.14-1.11.49.47ZM4.7 10.57c.46.66 1.1 1.14 1.85 1.33.69.18 1.44.12 2.19-.23l-.47-.53c-.55.22-1.07.24-1.55.12a2.48 2.48 0 0 1-1.15-.7h-.87Z" fill="url(#alivocurc)"/><defs><linearGradient id="alivocurc" x1="7.66" y1="5.34" x2="12.42" y2="11.9" gradientUnits="userSpaceOnUse"><stop stop-color="#22A7F0"/><stop offset="1" stop-color="#9B59B6"/></linearGradient></defs></svg>