<!-- by TradingView --><svg width="18" height="18" viewBox="0 0 18 18" xmlns="http://www.w3.org/2000/svg"><path fill="url(#amuks4rjx)" d="M0 0h18v18H0z"/><path d="M11 6.08a.6.6 0 0 0-.1-.34.75.75 0 0 0-.35-.23l-.98-.41c-.07-.03-.13-.07-.2-.09A.3.3 0 0 0 9 5.3v2.58C9 8.25 8.67 8 8 8a3 3 0 1 0 3 3V6.08ZM13 4.76c-.04.24-.74.31-1.57.17-.83-.15-1.47-.46-1.43-.7.04-.23.74-.3 1.57-.16.83.15 1.47.46 1.43.7Z" fill="#fff"/><defs><linearGradient id="amuks4rjx" x1="3.7" y1="3.05" x2="14.3" y2="14.95" gradientUnits="userSpaceOnUse"><stop stop-color="#CC99F6"/><stop offset=".5" stop-color="#9B78EC"/><stop offset="1" stop-color="#A9B4F6"/></linearGradient></defs></svg>