<!-- by TradingView --><svg width="18" height="18" viewBox="0 0 18 18" xmlns="http://www.w3.org/2000/svg"><path fill="url(#a)" d="M0 0h18v18H0z"/><path d="M6.92 4.53v.05c-.22.1-.44.23-.64.37-.08-.02-.19.04-.32.17-.04.03-.07.04-.11 0h-.01c-.06-.04-.06-.09-.01-.13l.21-.22a.02.02 0 0 0 0-.02c-.02-.1-.03-.14-.02-.15.08-.05.07-.08-.02-.09-.03 0-.05.03-.07.1v.05c.02.07.01.12-.02.15a8.43 8.43 0 0 1-.26.25c0 .03.03.05.07.06.03.02.04.04 0 .06a.44.44 0 0 1-.28.09.05.05 0 0 0-.05.03.54.54 0 0 0-.03.17c0 .02 0 .03.02.04.04.02.06.06.05.12-.11.06-.19.08-.23.05.04-.14.08-.29.1-.43.02-.33.05-.61.08-.86.03-.19.11-.41.34-.39.03 0 .12.04.27.1.32.13.63.27.93.43ZM12.53 4.3l-.2.3c-.01.01-.02.03-.04.03-.06.05-.1.1-.1.18l-.03.03-.3.23a.04.04 0 0 1-.05 0l-.08-.03s-.01 0 0 0V5h.02c.05-.02.09-.06.1-.1a.05.05 0 0 0-.05-.07c-.07.02-.11.06-.12.13 0 .01 0 .02-.02.01a.43.43 0 0 1-.13-.07l-.33-.24-.22-.12c.28-.1.59-.24.93-.38.08-.04.18-.07.28-.1.09-.02.16-.02.21.02.07.04.12.11.13.2Z" fill="#ECEFA2"/><path d="M10.03 4.25c-.17.05-.34.07-.51.05-.11 0-.17-.06-.3-.06a57.1 57.1 0 0 1-.86 0 .4.4 0 0 1-.32.05h-.12c-.07.07-.06.1.03.07.05 0 .1 0 .19.04a2 2 0 0 0-.14 0 .45.45 0 0 0-.14.02.85.85 0 0 1-.27.05c-.01-.02-.04-.03-.07-.02-.08 0-.1.06-.19.06-.01 0-.03 0-.04.02l-.04.04a.67.67 0 0 0-.16.04c-.04-.03-.1-.05-.17-.03v-.05c.16-.04.32-.12.46-.15a7.88 7.88 0 0 0 .72-.18 3.66 3.66 0 0 1 1.54-.03c.13 0 .27.03.4.08Z" fill="#7CF0CC"/><path d="M10.2 4.3h-.05c-.02.01-.02.02 0 .03.05.05.1.02.18.05.12.07.25.11.38.13.05 0 .05.02.02.05l-.01.02-.03.02a.3.3 0 0 0-.22.14l-.17.31c0 .02-.02.03-.04.02a.13.13 0 0 1-.08-.04 52.7 52.7 0 0 1-.5-.17 1.33 1.33 0 0 0-.38-.07c-.22 0-.43 0-.63.04l-1.03.24c-.08.02-.26.08-.52.2-.18.09-.36.1-.45.33a.18.18 0 0 0 0 .12l.02.1c0 .03 0 .04.02.05.13.06.23.17.3.32a2.7 2.7 0 0 0-.78 1.09c-.04.08-.07.2-.11.3-.2 0-.4-.01-.6-.06l-.04.01a.89.89 0 0 0-.24.34.02.02 0 0 1-.02 0l-.08-.03a.02.02 0 0 0-.03 0V8a.16.16 0 0 0-.01-.06h-.04c-.04.03-.08.02-.11-.02a.04.04 0 0 0-.05-.02c-.03 0-.05.03-.05.07a.04.04 0 0 1-.02.04.13.13 0 0 0-.04.04h-.03l-.02-.02V8a.22.22 0 0 0-.02-.2.04.04 0 0 0-.04-.01.04.04 0 0 0-.03.02l-.02.04-.01.02h-.03c-.1.01-.16.06-.17.17 0 .01 0 .02.03.02h.1c.08.02.08.04 0 .08a.43.43 0 0 1-.07.03.05.05 0 0 0-.04.02v.06l.04.03c.05 0 .08.02.09.06l-.13-.05-.04.01a.34.34 0 0 1-.2.1.04.04 0 0 0-.03.03.28.28 0 0 1-.07.11l.04-.36.01.04c.02.02.03.01.04 0l.09-.24c.03-.23.1-.44.22-.64.01-.04.02-.03.03 0 0 .06.04.1.1.1.01 0 .02 0 .03.02v.04c-.01.06 0 .1.03.12h.05a.23.23 0 0 0 .08-.15v-.04c-.06-.13.11-.14.08-.28a.04.04 0 0 1 .02-.04 2.52 2.52 0 0 1 .57-1.15c.01-.02.03-.02.05-.01l.01.02v.01c0 .02 0 .03.02.03l.1.02c.02 0 .03 0 .02-.03a.08.08 0 0 0-.05-.05.08.08 0 0 1-.04-.05.08.08 0 0 1 .01-.07 3.78 3.78 0 0 1 1.5-1.13c.09-.04.22-.06.32-.1l.04-.04a.35.35 0 0 1 .12-.1c.1 0 .19 0 .27-.04L8 4.4a2 2 0 0 1 .14 0c.15-.06.3-.08.48-.08h.65c.12 0 .24.05.38.06.05 0 .12-.03.17.04l.04.02.25.02c.01 0 .02 0 .01-.02v-.02a.06.06 0 0 0-.06-.04l-.12-.01c-.08-.02-.08-.04 0-.06l.11-.02h.15Z" fill="#58CA72"/><path d="m10.98 4.55.22.12-.24-.02c-.01 0-.02 0-.03-.02a.22.22 0 0 0-.16-.05l-.02.01v.02l.01.01c.08.02.14.05.18.09H11l.6.38c.3.2.53.42.7.67.22.35.47.8.73 1.36.06.18.1.37.1.55l.02.04.1.07c.03.02.04.05.03.08 0 .02-.01.02-.03.02a.4.4 0 0 1-.21-.1.05.05 0 0 1-.02-.05v-.25a2.85 2.85 0 0 0-.48-1 .95.95 0 0 0-.11-.34 2.59 2.59 0 0 0-.74-.86 23.13 23.13 0 0 0-.61-.41 1.1 1.1 0 0 0-.37-.17l-.02-.01v-.01a.03.03 0 0 0-.03-.03.03.03 0 0 0-.03.01c-.07.07-.12.12-.15.2a4 4 0 0 0-.08.25l.01.02.42.2c.02.01.05.04.08.09v.04h-.02c-.01.02-.02.02-.04.01a.9.9 0 0 0-.28-.16c-.07-.03-.17-.1-.23-.1a.04.04 0 0 1-.03-.03c-.01-.03-.04-.05-.08-.06a.45.45 0 0 1-.2-.1 11.18 11.18 0 0 1-.29-.09c-.06-.02-.14.01-.19-.07a.04.04 0 0 0-.03-.02h-.84c.2-.04.41-.06.63-.05.12 0 .25.02.38.07a52.56 52.56 0 0 0 .5.17c.02.03.05.04.08.04.02 0 .03 0 .04-.02l.17-.3a.3.3 0 0 1 .22-.15c.01 0 .02 0 .03-.02a.1.1 0 0 1 .01-.02c.03-.03.03-.05-.02-.05a1.09 1.09 0 0 1-.38-.13c-.07-.03-.13 0-.19-.05v-.02l.06-.02.78.26Z" fill="#ECD96E"/><path d="M12.71 5.86c-.1.02-.2-.02-.3-.12a58.05 58.05 0 0 0-.88-.83c.04.03.08.06.13.07.01.01.02 0 .02-.01 0-.07.05-.11.12-.13a.05.05 0 0 1 .06.04v.03c-.02.04-.06.08-.12.1l-.02.02v.01l.1.03h.03l.3-.23a.06.06 0 0 0 .03-.04.26.26 0 0 1 .11-.17c.02 0 .03-.02.04-.03l.2-.3.1.55c.04.31.07.65.08 1Z" fill="#CBA133"/><path d="M7.6 4.47a.35.35 0 0 0-.13.1l-.04.02c-.1.05-.23.07-.33.11a3.78 3.78 0 0 0-1.5 1.13.08.08 0 0 0 .04.12c.03 0 .04.03.05.05.01.02 0 .03-.02.03L5.57 6c-.01 0-.02 0-.02-.03v-.01l-.01-.02c-.02-.01-.04 0-.05.01a2.52 2.52 0 0 0-.57 1.15.04.04 0 0 0-.02.04c.03.14-.14.15-.08.28v.04a.23.23 0 0 1-.08.15.04.04 0 0 1-.05 0c-.03-.02-.04-.06-.03-.12a.46.46 0 0 0 .03-.2 4.28 4.28 0 0 1 1.56-2.2l.22-.15c.17-.14.41-.24.62-.34l.16-.04.04-.04c.01-.02.03-.02.04-.02.09 0 .11-.05.19-.06.03 0 .06 0 .07.02Z" fill="#ECEFA2"/><path d="M6.28 4.95a1.4 1.4 0 0 0-.3.2c-.17.18-.35.34-.55.48 0-.06 0-.1-.05-.12a.04.04 0 0 1-.02-.04c0-.06.01-.11.03-.17a.05.05 0 0 1 .05-.03c.1 0 .2-.03.28-.09.04-.02.03-.04 0-.06-.04-.01-.06-.03-.07-.06a8.41 8.41 0 0 0 .26-.25c.03-.03.04-.08.02-.15V4.6c.02-.07.04-.1.07-.1.09.01.1.04.02.09l.03.15a.02.02 0 0 1 0 .02l-.22.22c-.05.04-.05.09 0 .13h.02c.04.04.07.03.1 0 .14-.13.25-.19.33-.17Z" fill="#ECD96E"/><path d="M7.1 4.61c-.22.1-.46.2-.63.34l-.22.14-.21.15A4.28 4.28 0 0 0 4.69 7.3l-.05-.08c.1-.38.38-.89.56-1.18l.1-.21c0-.02 0-.03-.02-.03l-.14-.04.06-.08c.04.03.12 0 .23-.05.2-.14.38-.3.55-.48.05-.05.15-.12.3-.2.2-.14.42-.27.64-.37.07-.01.13 0 .17.03Z" fill="#59AA55"/><path d="M11.68 4.74c.05.06.11.09.14.06.03-.02 0-.09-.04-.15-.06-.06-.12-.09-.15-.07-.02.03 0 .1.05.16Z" fill="#CBA133"/><path d="m11.06 4.86.21.21a.05.05 0 0 1 .02.03.04.04 0 0 1-.02.04l-.13.13-.01.01a.02.02 0 0 0 .01.03l.03.01h.02l.17-.17a.05.05 0 0 1 .06 0l.1.04c.03.01.04.03.02.05-.1.1-.2.2-.22.37a.85.85 0 0 0 .09.49l-.01.01h-.01l-.35-.02c-.02 0-.03 0-.04.02a.42.42 0 0 0-.04.33c-.07-.05-.07-.13-.15-.18-.04-.07-.06-.1-.09-.11a.94.94 0 0 1-.21-.15.45.45 0 0 0-.16-.09.36.36 0 0 1-.11-.07.46.46 0 0 0-.2-.09.06.06 0 0 1-.03-.02l-.04-.03a1.98 1.98 0 0 1-.17-.05c-.15-.06-.28-.05-.43-.1a.98.98 0 0 0-.25-.02c-.32 0-.55-.02-.73.04-.1.03-.18.03-.28.05a.43.43 0 0 0-.19.08.68.68 0 0 1-.21.1c-.12.02-.12 0-.03-.07l.24-.13c.06-.02.06-.05 0-.06l-.06.02a5.9 5.9 0 0 1-.35.1c-.13 0-.27-.02-.38.05a2.59 2.59 0 0 0-.17.12l-.02-.01c-.05-.04-.08-.07-.1-.07-.1 0-.1.02-.02.08.09.07.17.15.24.25v.03c0 .03-.02.05-.05.08a.68.68 0 0 0-.3-.32.04.04 0 0 1-.02-.04.57.57 0 0 0-.03-.11.18.18 0 0 1 .01-.12c.09-.23.27-.24.45-.33.27-.12.44-.18.52-.2l1.03-.24.84.01.03.02c.05.08.13.05.2.07a11.19 11.19 0 0 0 .29.08c.05.05.11.09.19.11.04.01.07.03.08.06l.03.03c.06 0 .16.07.23.1.1.03.2.09.28.16h.04l.02-.01v-.04c-.03-.05-.06-.08-.08-.08a4.48 4.48 0 0 1-.43-.23v-.02l.08-.24c.03-.07.08-.12.15-.19a.03.03 0 0 1 .04 0l.01.02c.01.02.02.02.03.02.13.04.25.09.36.16Z" fill="#59AA55"/><path d="M11.06 4.86a23.14 23.14 0 0 1 .62.42l.15.14c.23.2.43.43.59.72a.71.71 0 0 1-.3-.14.07.07 0 0 0-.03-.02.52.52 0 0 0-.46.2v.04a10.48 10.48 0 0 1 .32.38c.04.07.02.08-.04.04a.81.81 0 0 1-.12-.12c-.06-.07-.09-.06-.08.04v.1l-.01.05-.39.24-.35-.5A.42.42 0 0 1 11 6.1c.01-.02.02-.02.04-.02l.35.03a.02.02 0 0 0 .01-.01v-.02a.85.85 0 0 1-.08-.48c.02-.16.12-.27.22-.37.02-.02.01-.04-.01-.05l-.11-.05a.05.05 0 0 0-.06.01l-.17.17a.02.02 0 0 1-.02 0h-.03V5.3a.02.02 0 0 1-.01-.03l.14-.14a.05.05 0 0 0 .01-.04.04.04 0 0 0 0-.03l-.22-.2Z" fill="#417E39"/><path d="m11.76 5.12.66.62c.1.1.2.14.3.12v-.07c.01-.01.02-.02.03 0 .11.11.15.27.2.37a105.15 105.15 0 0 1 .48.98l.07.2.06.21c.05.15.09.3.1.46l-.19-.44c-.05-.1-.26-.43-.45-.45-.26-.55-.5-1.01-.74-1.36-.16-.25-.4-.47-.7-.67-.02-.06.04-.05.18.03Z" fill="#235329"/><path d="M7.08 5.56c.06-.01.1-.06.1-.1-.02-.05-.08-.07-.14-.05-.07.02-.11.06-.1.1.01.05.07.07.14.05Z" fill="#FEFEDB"/><path d="M10.85 5.79a.07.07 0 0 1-.06-.09v-.04c0-.03.02-.06.03-.08a.23.23 0 0 1 .05-.07.19.19 0 0 1 .07-.04H11c.05 0 .1.03.13.08.02.05.04.1.03.16v.05a.07.07 0 0 1-.1.06l-.22-.03Z" fill="#CFFADC"/><path d="m10.8 6.26.07.09v.08a.01.01 0 0 1-.02 0 2.83 2.83 0 0 0-.26-.25 1.83 1.83 0 0 0-.45-.3.15.15 0 0 0-.03-.02 1.3 1.3 0 0 0-.38-.11c-.04 0-.07-.03-.1-.06a.05.05 0 0 0-.03-.02c-.1.01-.2-.04-.32-.05a8.63 8.63 0 0 0-.9.03.25.25 0 0 1-.27-.02l.28-.06c.18-.06.41-.04.73-.04.1 0 .18.01.25.03.15.04.28.03.43.09l.17.05c.01 0 .02 0 .04.03l.03.02c.08.02.15.05.2.1l.1.06c.06.02.12.04.17.09.06.06.13.1.21.15.03 0 .05.04.09.1Z" fill="#FACB31"/><path d="M8.11 5.62a.25.25 0 0 0 .27.03.16.16 0 0 1 .08-.02c.04.03.1.04.21.03l-.34.03-.01.02v.01l-.02.02c-.24.04-.45.11-.64.23-.16.1-.26.16-.32.18.01.02 0 .05-.06.09a.18.18 0 0 0-.11.04 2.6 2.6 0 0 0-.89 1.34c-.08.34-.09.65-.03.94a3.89 3.89 0 0 0 .17.66c.11.24.26.46.43.67.1.11.24.22.36.32.35.26.73.43 1.15.52l-.52-.04c-.12-.01-.2-.05-.26-.1a.33.33 0 0 0-.13-.09l-.03-.03a.04.04 0 0 0-.03-.03.85.85 0 0 1-.43-.27c-.16-.18-.25-.3-.4-.38l-.03.01c-.05.07-.1.1-.18.06a.05.05 0 0 0-.05 0l-.25.2a.16.16 0 0 0-.05.1c-.01.09-.04.2-.12.24-.1.04-.16.03-.22-.02-.08-.08-.1-.18-.02-.3v.05c.02.02.04.02.06.02l-.03.01c-.02 0-.03.01-.02.03 0 .01 0 .02.02.03l.04-.01a.1.1 0 0 1 .09-.02h.02l.02-.02a.29.29 0 0 0 .05-.1l.03-.02c.1-.05.23-.14.4-.27a.42.42 0 0 1 .19-.08.01.01 0 0 0 0-.01.06.06 0 0 0-.03-.03.09.09 0 0 1-.05-.04 3 3 0 0 1-.38-1.35H5.7l-.04.01a.09.09 0 0 0-.02.06h-.01l-.01-.1.4-.03c.01 0 .02 0 .02-.02l.08-.62.11-.3.1-.2a7.98 7.98 0 0 1 .4-.6c.05-.07.15-.16.28-.28a.18.18 0 0 0 .06-.08v-.03c-.09-.1-.16-.18-.25-.25-.08-.06-.07-.09.03-.08l.08.07a.04.04 0 0 0 .05 0l.14-.1c.12-.08.26-.06.39-.06.06 0 .12-.02.18-.04a5.9 5.9 0 0 0 .22-.08c.07.01.07.04 0 .06l-.23.13c-.1.07-.09.1.03.07a.67.67 0 0 0 .21-.1.43.43 0 0 1 .2-.08Z" fill="#CBA133"/><path d="M10.8 6.26c.1.05.1.13.16.18l.35.5c.11.23.2.45.25.68.01.1.06.22.07.3a2.2 2.2 0 0 1-.19 1.25.07.07 0 0 1 0-.07v-.01h-.02l-.13.24c-.08.15-.18.31-.3.48-.05.05-.06.13-.11.17-.14.12-.28.25-.44.37-.17.13-.44.27-.82.44-.36.09-.76.1-1.2.06-.22-.03-.41-.08-.58-.16l.52.04c.29.04.54.05.77.03.85-.08 1.51-.5 1.97-1.24.07-.1.16-.3.27-.57.05-.12.05-.22.08-.33a2.2 2.2 0 0 0-.02-.93 2.9 2.9 0 0 0-.33-.78 2.3 2.3 0 0 0-1.69-1.18c-.01 0-.02 0-.03-.02-.01-.02-.04-.03-.08-.04h-.63c-.1 0-.17-.01-.21-.04.28-.02.56-.02.82 0 .11 0 .22.05.32.04.01 0 .03 0 .04.02.02.03.05.05.09.06.1 0 .23.05.38.11l.03.03h.01c.16.08.3.17.44.29a2.83 2.83 0 0 1 .28.26v-.09l-.06-.1Z" fill="#A9731F"/><path d="m8.67 5.66.63.01c.04 0 .07.02.08.04l.04.02c.15.02.3.06.45.12l-.22.2a.9.9 0 0 0-.22.2c-.05.09-.09.2-.1.3l-.02.03-.83.6c-.03.03-.05.02-.04-.03a.5.5 0 0 0-.1-.42.1.1 0 0 0-.1-.04l-.44.13c-.06.02-.11 0-.14-.06l-.32-.6.32-.2c.19-.1.4-.18.64-.22 0 0 .02 0 .02-.02v-.03l.35-.03Z" fill="#F1F475"/><path d="M7.34 5.77a.36.36 0 0 1 .22-.06c.07 0 .07.03.01.06-.16.1-.29.19-.4.21-.09.02-.1 0-.06-.08.05-.06.11-.1.2-.11 0 0 .02 0 .03-.02Z" fill="#ECEFA2"/><path d="M4.64 7.22H4.4c.16-.47.4-.9.69-1.3.04-.05.04-.1.06-.16l.14.04c.02 0 .02.01.02.03l-.1.21c-.18.3-.46.8-.56 1.18Z" fill="#7CF0CC"/><path d="M12.42 6.14c.06.1.1.22.11.34-.12.02-.23.06-.34.12-.08.04-.12.1-.18.18 0 .01-.02.02-.03 0l-.15-.15h-.03l-.14.14a.06.06 0 0 0-.01.04c.02.28-.05.53-.08.8a3.76 3.76 0 0 0-.26-.66l.39-.24.02-.04-.01-.11c0-.1.02-.1.08-.04a.8.8 0 0 0 .12.12c.06.04.08.03.04-.04l-.03-.04a10.5 10.5 0 0 0-.29-.38.52.52 0 0 1 .46-.2c.01 0 .03 0 .04.02.08.06.18.11.29.14Z" fill="#235329"/><path d="M9.87 5.85c.52.2.93.55 1.23 1.06l-.54.38a1.79 1.79 0 0 0-.25-.32c-.27-.27-.64-.14-.7.24-.03.16-.04.3-.02.4.03.23.12.45.27.67.1.15.24.25.42.3.05 0 .1 0 .18-.02h.06c.02 0 .02.01 0 .03l-.1.1-.87.01c.12-.16.15-.3-.05-.4a.04.04 0 0 0-.05 0 .39.39 0 0 0-.13.22c0 .02-.01.03-.03.03-.17.03-.23-.02-.33-.1a.11.11 0 0 0-.14 0c-.1.07-.18.17-.33.1a.06.06 0 0 1-.03-.04.26.26 0 0 0-.08-.12c-.1-.07-.19 0-.2.1-.01.08 0 .15.05.21-.17.06-.35.1-.52.13-.28.04-.44-.05-.67-.2a.59.59 0 0 0-.26-.06c-.01 0-.02 0-.03.02a.53.53 0 0 1-.24.29.04.04 0 0 1-.06-.03.58.58 0 0 0-.2-.3c-.06-.28-.05-.59.03-.93.16.08.34.12.52.11l.04-.01a.88.88 0 0 1 .25-.18c-.1.34-.1.74.1 1.02.23.32.57.14.74-.13.23-.4.3-.81.1-1.24a.5.5 0 0 0-.42-.29c.02-.07-.02-.17-.13-.29a.16.16 0 0 0-.04-.04.06.06 0 0 1-.03-.03l-.13-.3c.05-.04.07-.07.06-.09l.32.61c.03.06.08.08.14.06l.43-.13a.1.1 0 0 1 .11.04c.1.12.13.27.1.42 0 .05 0 .06.04.03l.83-.6.02-.03a.83.83 0 0 1 .1-.3.9.9 0 0 1 .21-.2c.09-.06.16-.13.23-.2Z" fill="#F6EB56"/><path d="m7.28 6.24.13.3c0 .02.01.03.03.03l.04.04c.11.12.15.22.13.3-.32.11-.43.32-.52.63-.1.04-.18.1-.25.18a.05.05 0 0 1-.04.01c-.18 0-.36-.03-.52-.11a2.6 2.6 0 0 1 .89-1.34.18.18 0 0 1 .1-.04Z" fill="#F1F475"/><path d="M12.53 6.48c.24.33.4.67.48 1v.25c0 .02 0 .04.02.05.06.05.13.09.2.1.03 0 .04 0 .04-.02.01-.03 0-.06-.03-.08a.66.66 0 0 1-.1-.07.06.06 0 0 1-.02-.04c0-.18-.04-.37-.1-.55.19.02.4.34.45.45l.2.44c.03.07.05.14.06.23.13.14.27.27.42.39.05.04.07.08.05.13v.05c.03.03.06.05.1.03.14.01.16.13.26.19.13.08.23.19.32.3.12.16.15.34.1.55a.4.4 0 0 1-.16.24c-.3.2-.62.4-.95.56.13-.32.27-.59.07-.93l.22-.09a.06.06 0 0 0-.02-.1h-.05a.13.13 0 0 0-.05.06c-.07.1-.17.13-.3.1l-.08-.06-.21-.11c0-.06 0-.1.02-.14l.09-.23.03-.03a.2.2 0 0 1 .14-.02l.04-.01.02-.03a.04.04 0 0 1 .06 0l.12.05c.02.01.03 0 .02-.02a.19.19 0 0 0-.12-.11.26.26 0 0 0-.15-.1c-.06-.03-.1 0-.1.06l-.06.03h-.05a.3.3 0 0 0-.12-.05c-.03 0-.03 0 0 .01l.06.04.01.02v.02h-.07l-.77-.35-.02-.02a.11.11 0 0 0-.06-.06.04.04 0 0 1-.03-.03c-.01-.14.01-.22.08-.24l.18.03.53.14c.01 0 .02 0 .02-.02 0-.04-.02-.06-.09-.05-.01-.09-.07-.15-.17-.19a10.84 10.84 0 0 0-.46-.17l.02-.02h.01l.56.17c.02.01.04 0 .05-.02v-.03a.08.08 0 0 0-.03-.09c-.15-.1-.3-.16-.43-.3-.1-.08-.2-.26-.33-.34-.07-.05-.15-.01-.2.03-.26.18-.32.46-.33.75a3.8 3.8 0 0 1-.28 1.23c-.1.25-.13.43-.08.69-.01-.03-.03-.03-.04-.01a.03.03 0 0 0-.01.02.03.03 0 0 0 .01.03l.5.4a.61.61 0 0 1-.07.22c-.06.1-.13.2-.2.28-.03 0-.05 0-.07.02l-.01.01v.04l.05.19c-.2.18-.43.34-.68.48l-.3-.39a.07.07 0 0 1-.02-.05.07.07 0 0 1 .03-.05l.22-.16-.02-.02h-.02l-.32.2a.05.05 0 0 0 0 .07l.25.27a.05.05 0 0 1-.01.08c-.2.1-.42.16-.67.19-.02 0-.03 0-.03-.03v-.4c0-.02 0-.04.02-.04.04-.02.1-.06.16-.12.13-.12.25-.18.44-.28a.02.02 0 0 0 0-.02v-.01l-.01-.01h-.02l-.55.31c-.05.04-.1.03-.11 0v-.05l.27-.23v-.02h-.02l-.31.12c-.03.02-.05 0-.06-.03a.83.83 0 0 0-.15-.27.51.51 0 0 0 .17-.06c.02-.01.03-.02.03-.04v-.05c0-.02 0-.03.02-.04.19-.1.38-.25.62-.31.1-.03.16-.1.16-.19l.01-.04.23-.32a3.17 3.17 0 0 0 .5-.9c.1-.33.13-.67.08-1.01-.01-.1-.06-.2-.06-.31.03-.28.1-.53.08-.8l.01-.05.14-.14h.03l.15.15c.01.02.02.01.03 0 .06-.08.1-.14.18-.18.1-.06.22-.1.34-.12Z" fill="#18271A"/><path d="M10.56 7.29c.1.21.15.43.16.67.01.26-.08.46-.26.6a.34.34 0 0 1-.18.02.7.7 0 0 1-.42-.3 1.62 1.62 0 0 1-.27-.67c-.02-.1-.01-.24.02-.4.06-.38.43-.51.7-.24.1.1.18.2.25.32Z" fill="#A9731F"/><path d="M8.36 10.73a2.8 2.8 0 0 1-1.15-.52l2.28-.66c.08-.02.16-.06.24-.1.08-.05.27-.14.37-.23.15-.13.23-.31.31-.53l.12-.1v-.03h-.07c.18-.14.27-.34.26-.6a1.76 1.76 0 0 0-.16-.67l.54-.38c.15.26.26.52.33.78.06.24.09.64.02.93-.03.11-.03.21-.08.33-.11.27-.2.46-.27.57a2.49 2.49 0 0 1-1.97 1.24c-.23.02-.48 0-.77-.03Z" fill="#F8A51F"/><path d="M7.61 6.9c.2.02.35.12.43.29.2.43.12.85-.11 1.24-.17.27-.51.45-.74.13-.2-.28-.2-.68-.1-1.02.09-.3.2-.52.52-.64Z" fill="#B28525"/><path d="M10.27 7.92c.02.08.2.23.18.4-.03.17-.2.22-.34.13a.9.9 0 0 1-.34-.48c-.02-.06 0-.17.03-.22a23.81 23.81 0 0 0 .33-.56.04.04 0 0 1 .07 0l.2.3a.12.12 0 0 1 .01.12l-.14.27v.04Z" fill="#FEFEDB"/><path d="m4.64 7.22.05.08c0 .07 0 .13-.03.2v-.04a.04.04 0 0 0-.03-.02c-.06 0-.1-.04-.1-.1 0-.03-.02-.04-.03 0-.12.2-.2.4-.22.64 0 .04-.04.12-.1.24 0 .01-.01.02-.03 0a4.24 4.24 0 0 1 .23-1h.26Z" fill="#CFFADC"/><path d="M7.52 8.08a.06.06 0 0 0 0-.07.83.83 0 0 1-.14-.28c-.05-.17 0-.3.13-.41a.06.06 0 0 1 .08 0l.43.6c.03.05.03.09.02.13-.07.2-.17.37-.31.5-.12.12-.24.12-.36 0a.06.06 0 0 1-.02-.04c-.02-.24.08-.27.17-.43Z" fill="#FEFEDB"/><path d="m13.23 8.44-.67-.18-.03.01v.05l.06.02c-.07.02-.1.1-.08.24 0 .02.01.03.03.03.03.01.05.03.06.06l.02.02.77.34.04.01h.03V9l-.08-.04c-.02 0-.02-.01 0-.01a.3.3 0 0 1 .13.04h.05l.05-.02c-.01.05 0 .08.04.1.12.03.2.01.21-.07.07.03.1.06.13.12 0 .02 0 .03-.02.02l-.12-.06-.06.01-.02.03a.04.04 0 0 1-.04 0 .2.2 0 0 0-.14.03.06.06 0 0 0-.03.03l-.1.23a.28.28 0 0 0-.01.14c.02.08.06.15.12.23a.07.07 0 0 1 .02.05c0 .04.02.07.06.07.02 0 .02 0 .02-.02l-.01-.22.08.06c.04.05.1.06.2.03.2.34.06.6-.07.93l-.62.29a.54.54 0 0 0-.3.27c-.2.31-.43.6-.74.87a12.71 12.71 0 0 1-.41 1.5c-.1.3-.27.55-.5.76-.12.1-.23.1-.34 0l-.2-.18c-.05-.07-.1-.13-.17-.18-.03-.02-.03-.04 0-.03h.01s.01 0 0 0c0-.06-.02-.1-.03-.1l-.32-.23.15.09c.03.01.04 0 .02-.02-.1-.14-.2-.26-.34-.39-.02-.01-.02-.03 0-.04.07-.03.11-.06.14-.1a.97.97 0 0 0 .48-.22c-.08-.3-.14-.5-.37-.69a4.46 4.46 0 0 0 2.71-2.93l.06-.1a.04.04 0 0 0 0-.04.04.04 0 0 0-.02-.02l-.35-.16a.06.06 0 0 0-.07.02l-.01.03v.07l.05.02.25.06c.04.02.05.04 0 .07a.46.46 0 0 0-.08.16 4.22 4.22 0 0 1-.9 1.65c-.07.07-.18.14-.25.24l-.06-.19v-.04l.02-.01c0 .02 0 .04.02.05l.04-.01v-.06c.08-.08.15-.17.21-.28a.61.61 0 0 0 .06-.22c.04.04.07.08.11.1h.04l.01-.01v-.04l-.28-.21c-.09-.08-.25-.15-.33-.28a1.1 1.1 0 0 1 .08-.69c.16-.4.25-.8.28-1.23.01-.29.07-.57.32-.75.06-.04.14-.08.21-.03.13.08.24.26.33.35.12.13.28.2.43.3a.08.08 0 0 1 .03.08v.03c-.01.02-.03.03-.05.02l-.56-.17h-.01l-.02.02.46.17c.1.04.16.1.17.19Z" fill="#0B130F"/><path d="M5.26 7.62v.15l-.01.02H5.2l-.04-.16-.02-.02h-.04c-.03 0-.04.03-.03.05.02.07.02.14 0 .22 0 .03-.02.03-.03 0L5 7.69a.04.04 0 0 0-.06-.02l-.09.07-.05-.01c-.01-.01-.02-.03 0-.04.14-.24.45-.33.7-.27l.04.03c.01.02 0 .03-.01.03a.2.2 0 0 0-.08.01.1.1 0 0 0-.04.04c-.03.05-.07.07-.11.06-.03 0-.04.01-.04.03Z" fill="#CFFADC"/><path d="m6.12 7.57-.08.62-.02.02-.4.04c-.04.24-.03.43.03.59a.12.12 0 0 0 .13.07c.11-.02.23-.02.37 0a3 3 0 0 0 .28.71l.05.04.03.02a.01.01 0 0 1 0 .01.01.01 0 0 1 0 .01.42.42 0 0 0-.2.08 3.03 3.03 0 0 1-.42.3.3.3 0 0 1-.05.1H5.8a.1.1 0 0 0-.09.03.03.03 0 0 1-.04 0 .04.04 0 0 1-.02-.02c0-.02 0-.03.02-.03l.03-.01c.09-.02.13-.06.12-.12 0-.2-.13-.36-.17-.5a8.68 8.68 0 0 0-.18-.51c-.16-.03-.33-.01-.45.11 0 .04.03.06.1.05-.01.27.24.32.46.31.01 0 .02 0 0 .02l-.15.28c.02-.03 0-.05-.03-.05-.05 0-.08.01-.1.06-.05.22.13.52.28.69l.06.04c.05.02.08.01.09-.02.18-.02.32.02.4.14.16.16.35.28.58.37.03.12.01.22-.07.3v.03c.1.19.26.32.47.41a6.33 6.33 0 0 0 .4.18v.01a1.62 1.62 0 0 1-.52-.16 1.7 1.7 0 0 1-.27-.2c-.11-.1-.23-.18-.36-.24-.1-.01-.15 0-.16.06a.04.04 0 0 1-.02.03.04.04 0 0 1-.04 0 3.98 3.98 0 0 1-1.4-2.28c-.02-.09-.03-.2-.03-.35l-.01-.34c0-.05 0-.13.02-.24.06-.05.13-.03.15-.13 0-.05.02-.06.05-.06.13.03.2.01.2-.04l-.01-.14a.02.02 0 0 1 0-.02.02.02 0 0 1 .03 0l.08.03a.02.02 0 0 0 .02 0 .89.89 0 0 1 .24-.34.05.05 0 0 1 .04-.01c.2.05.4.07.6.05Z" fill="#468C48"/><path d="M4.74 8a.59.59 0 0 0-.02.23c-.02.1-.02.19-.02.24v.34a3.79 3.79 0 0 0 1.47 2.63.04.04 0 0 0 .04-.03c0-.05.06-.07.15-.06l.1.09c.08.05.06.14-.05.29a.07.07 0 0 1-.1.01c-.51-.37-.92-.83-1.24-1.36a4.64 4.64 0 0 1-.5-2.04c-.01-.04-.04-.06-.09-.06l-.03-.03c-.02-.02-.02-.04 0-.06a.05.05 0 0 1 .03-.02l.07-.03c.08-.04.08-.06 0-.07h-.1c-.02 0-.03-.02-.03-.03.01-.1.07-.16.17-.16h.03l.01-.03.02-.04a.04.04 0 0 1 .03-.02.04.04 0 0 1 .04.01c.03.06.04.12.02.2Z" fill="#ECEFA2"/><path d="M5.12 8c0 .05-.07.07-.2.04-.03 0-.05.01-.05.06 0-.04-.03-.05-.08-.05 0-.02.02-.03.04-.04a.04.04 0 0 0 .02-.04c0-.04.02-.06.05-.07.02 0 .04 0 .05.02.03.04.07.05.11.02h.04l.02.06Z" fill="#ECD96E"/><path d="M14.36 8.76c0 .03-.02.06-.05.08-.05.02-.08 0-.1-.03v-.05c0-.05-.01-.1-.06-.13-.15-.12-.3-.25-.42-.39l.01-.03a.05.05 0 0 1 .05 0c.21.15.4.33.57.55Z" fill="#F1F475"/><path d="M6.15 8.91a1.11 1.11 0 0 0-.37 0 .12.12 0 0 1-.13-.07 1.23 1.23 0 0 1-.03-.6.77.77 0 0 0 0 .1h.02c0-.02 0-.04.02-.06a.05.05 0 0 1 .04-.02h.33l.02.01v.02c.01.2.04.41.1.62ZM4.57 8.34c0 .17.03.35.05.52.06.53.21 1.03.45 1.52l-.46.18a.04.04 0 0 0-.02.03c-.01.06 0 .11.01.17-.14.02-.22.1-.24.27l-.02.02h-.03v-.01a.31.31 0 0 1 .01-.21v-.04c-.15-.15-.46-.3-.62-.57-.1-.16-.17-.23-.35-.25l-.04-.02a.28.28 0 0 0-.1-.07l-.04.01-.17.22c0-.16 0-.27.03-.32.07-.16.17-.28.28-.38.3-.2.56-.45.76-.77l.03-.1a.28.28 0 0 0 .07-.11c0-.02.02-.03.03-.03a.34.34 0 0 0 .2-.1.04.04 0 0 1 .04 0l.13.04Z" fill="#56994D"/><path d="M9.55 8.7c-.19.2-.4.22-.62.07a.05.05 0 0 0-.04 0 .4.4 0 0 0-.12.04c-.2.11-.4.07-.54-.1a.29.29 0 0 1-.05-.22c.01-.1.1-.17.2-.1.04.03.06.07.08.12l.03.03c.15.08.23-.02.33-.1a.11.11 0 0 1 .14 0c.1.1.16.14.33.1.02 0 .03 0 .03-.02.02-.1.07-.17.13-.22a.04.04 0 0 1 .05 0c.2.1.17.24.05.4Z" fill="#A9731F"/><path d="M8.23 8.7c.15.18.35.22.54.11a.4.4 0 0 1 .12-.04h.04c.22.15.43.12.62-.07h.86c-.08.2-.16.4-.3.52-.11.1-.3.18-.38.23-.08.04-.16.08-.24.1l-2.27.66c-.13-.1-.26-.2-.37-.32-.17-.2-.32-.43-.43-.67a3.9 3.9 0 0 1-.17-.66c.1.08.17.18.2.3a.04.04 0 0 0 .03.02.04.04 0 0 0 .03 0c.11-.06.2-.16.24-.29l.03-.02c.13.01.21.03.26.06.23.15.4.24.67.2.17-.03.35-.07.52-.13Z" fill="#FACB31"/><path d="M4.07 8.64c-.2.32-.45.58-.76.77.22-.29.47-.54.76-.77Z" fill="#7CF0CC"/><path d="M13.86 9c-.02.08-.09.1-.2.06-.05-.01-.06-.04-.05-.09.01-.06.05-.09.11-.07.06.02.1.05.14.1Z" fill="#F8A51F"/><path d="M5.82 10.03c-.06-.06-.17-.04-.18.05-.07.12-.06.22.02.3.06.05.13.06.22.02.08-.05.1-.15.12-.23a.16.16 0 0 1 .05-.1l.25-.2a.05.05 0 0 1 .05-.01c.07.03.13.01.18-.06h.04c.14.07.23.2.4.37.12.14.26.23.42.27.02 0 .03.02.03.03l.03.03c.06.02.1.05.13.08l-.35-.15H7.2a.06.06 0 0 0-.03.03l-.33.53c0-.02 0-.03-.02-.04h-.04c-.05.02-.08.02-.1 0a2.26 2.26 0 0 0-.53-.3c-.09-.12-.23-.16-.41-.14a.5.5 0 0 1-.17-.12 1.21 1.21 0 0 1-.2-.44c-.02-.05 0-.1.07-.16l.16-.28-.01-.02c-.22.01-.47-.04-.45-.31.02 0 .03 0 .04-.02a.03.03 0 0 0-.02-.06c-.06 0-.1 0-.13.03.12-.13.29-.14.45-.11a8.69 8.69 0 0 1 .17.5c.05.15.18.31.18.5Z" fill="#397341"/><path d="M13.04 9.35c0-.03-.04-.05-.08-.05.04-.03.03-.05 0-.07h-.01l-.25-.05a.06.06 0 0 1-.05-.07v-.06a.06.06 0 0 1 .05-.02h.03l.36.16a.04.04 0 0 1 .02.02v.04l-.07.1Z" fill="#9F3007"/><path d="M11.44 9.17c-.1.23-.23.48-.39.67a4.11 4.11 0 0 0-.24.36c0 .1-.06.16-.16.19-.24.06-.43.2-.62.3a.04.04 0 0 0-.02.05v.05c0 .02-.01.03-.03.04a.51.51 0 0 1-.17.06c-.06 0-.13-.03-.2-.1a3.98 3.98 0 0 0 1.27-.8c.05-.05.06-.13.1-.18.13-.17.23-.33.3-.48a3.77 3.77 0 0 1 .14-.24h.02v.01a.07.07 0 0 0 0 .07Z" fill="#F8A51F"/><path d="M7.92 9.43c0-.09.02-.14-.05-.2a.03.03 0 0 1-.01-.04.03.03 0 0 1 .03-.02l.3-.03c.06 0 .06.01.02.04-.09.07-.17.16-.24.26-.03.05-.05.04-.05-.01ZM4.05 9.27c.02-.04.05-.06.1-.06a.03.03 0 0 1 .03.02c.05.11.08.22.08.33 0 .12.04.24.05.34.01.15.07.25.15.43v.04a.45.45 0 0 0 .04.26v.06h-.01v.01a.02.02 0 0 1-.03 0 .65.65 0 0 1-.1-.24c0-.05-.05-.1-.06-.13a4.77 4.77 0 0 1-.21-.96c-.02-.03-.04-.03-.05.01l-.03.13c0 .02-.01.03-.03.03-.05.02-.1 0-.13-.03a.08.08 0 0 1 0-.12.4.4 0 0 1 .17-.1c.02 0 .03 0 .03-.02Z" fill="#FEFEDB"/><path d="M12.96 9.3c.04 0 .07.02.08.05a4.46 4.46 0 0 1-2.71 2.93 4.3 4.3 0 0 1-.82.15h-.13c-.02 0-.02-.02-.02-.03l.02-.01a3.19 3.19 0 0 1 .5-.1l.01-.02c.02-.04.03-.06.05-.07h.03c.01.03.03.04.05.04a4.16 4.16 0 0 0 1.7-.89c.07-.1.18-.17.24-.24.43-.48.73-1.03.9-1.65a.46.46 0 0 1 .1-.16Z" fill="#F6EB56"/><path d="M13.18 9.45c.04 0 .08-.02.08-.04s-.03-.04-.07-.05c-.04 0-.07.02-.07.04 0 .03.03.05.06.05Z" fill="#5F260A"/><path d="M12.38 9.76a.06.06 0 0 1-.04-.02.1.1 0 0 1-.02-.04v-.04a.2.2 0 0 1 0-.06V9.6a.2.2 0 0 1 .03-.05l.03-.04a.1.1 0 0 1 .03-.02h.04l-.07.28Z" fill="#A9731F"/><path d="m13.45 9.55.21.12.01.21-.01.02c-.05 0-.07-.02-.07-.07a.07.07 0 0 0-.02-.05.55.55 0 0 1-.12-.23Z" fill="#F8A51F"/><path d="M13.94 9.75c-.1.03-.16.02-.2-.03.13.03.23 0 .3-.1a.13.13 0 0 1 .05-.05l.05-.01.03.01a.06.06 0 0 1 .01.07l-.02.03-.22.08Z" fill="#CBA133"/><path d="M13.51 9.93a.1.1 0 0 1-.09 0 .18.18 0 0 1-.07-.08.18.18 0 0 1-.03-.11.1.1 0 0 1 .05-.08l.14.27Z" fill="#5F260A"/><path d="M5.43 9.8c-.06.05-.09.1-.07.15.04.18.11.32.2.44a.5.5 0 0 0 .17.12c-.01.03-.04.04-.09.02a.18.18 0 0 1-.06-.04c-.15-.17-.33-.47-.27-.7.01-.04.04-.06.09-.05.03 0 .05.02.03.05Z" fill="#B28525"/><path d="M4.6 10.76c.13.16.2.33.35.47.01.02.02.01.03 0v-.06l.01-.02c.05-.02.1-.02.13 0 .33.19.62.46.9.72.08.07.15.1.22.08.22-.05.42-.06.59-.02l.37.2c.1.1.2.16.34.19l.26.06c.12.04.24.06.36.08l.58.04c.02 0 .03 0 .03-.02v-.04c0-.03 0-.04-.03-.04l-.3-.02-.27-.05a.04.04 0 0 1-.03-.05l.03-.26.09-.31a.03.03 0 0 0-.02-.04l-.02-.01H8.2l-.1.27a.32.32 0 0 0-.02.1l-.55-.06h-.1c-.01 0-.02.01-.02.03l-.01.07c0 .02-.01.03-.03.03h-.05l-.55-.29a.03.03 0 0 1-.02-.03c0-.05-.02-.08-.07-.1l-.08-.06a.07.07 0 0 1-.02-.04c-.02-.08-.07-.13-.14-.14l-.1-.1c.14.07.26.15.37.24.12.11.22.18.27.21a1.62 1.62 0 0 0 .52.16v-.02a6.3 6.3 0 0 1-.4-.17.93.93 0 0 1-.47-.41v-.04c.08-.07.1-.17.07-.29.07.02.11.01.12-.03l.33-.53c0-.02.02-.02.03-.03h.04l.35.15c.06.06.14.1.26.11.17.08.36.13.58.16.44.05.84.03 1.2-.06.06.07.13.1.2.1.06.09.11.18.14.27 0 .04.03.05.06.03l.3-.12h.03v.02l-.26.23c-.02.01-.02.03-.01.04.02.04.06.05.11.01a146.2 146.2 0 0 1 .57-.31l.01.01a.02.02 0 0 1 0 .02c-.19.11-.31.17-.44.3a.66.66 0 0 1-.16.1.04.04 0 0 0-.02.04v.41c0 .02 0 .03.03.03a2.06 2.06 0 0 0 .69-.2.05.05 0 0 0 0-.05v-.02l-.27-.27a.05.05 0 0 1-.01-.03v-.02l.02-.02.32-.2h.02l.02.01v.01l-.23.16a.07.07 0 0 0 0 .1l.3.4c-.33.19-.68.32-1.02.4-.02 0-.04 0-.05-.03 0-.02-.02-.02-.03-.01-.02 0-.03.03-.05.07a.04.04 0 0 1-.03.03 3.19 3.19 0 0 0-.5.1c0 .01 0 .02.02.02h.13l-.68.03c-.02 0-.03.01-.03.03l-.03.47-.02.03h-.02l-.03-.01c-.06-.17-.2-.12-.32-.07a.9.9 0 0 0-.41.37.04.04 0 0 1-.04.02h-.1l.08-.03v-.02a.44.44 0 0 0-.27-.07.8.8 0 0 1-.34-.05 5.7 5.7 0 0 1-.93-.48c-.09-.05-.15-.12-.24-.19a.07.07 0 0 0-.04 0 .36.36 0 0 1-.16-.05 7.7 7.7 0 0 1-.71-.76c-.13-.18-.18-.23-.36-.31a27 27 0 0 0-.47-.17c-.07-.02-.12-.07-.17-.1l-.6-.3c-.14-.08-.28-.11-.4-.26A1 1 0 0 1 3 10.1l.17-.22h.04c.04 0 .08.03.1.06l.04.02c.18.02.26.09.35.25.16.27.47.42.61.57.01.01.02.02.01.04a.31.31 0 0 0-.02.2l.01.02h.03l.02-.02c.02-.16.1-.25.24-.27Z" fill="#223E2F"/><path d="M5.82 10.03c.01.06-.03.1-.12.12l-.05-.01c-.02-.02-.02-.03-.01-.06 0-.1.12-.11.18-.05Z" fill="#F8A51F"/><path d="M13.45 10.25a.79.79 0 0 1-.05.07c-.01.03-.03.04-.04.04l-.04-.02a.05.05 0 0 1 0-.05c.04-.2.2-.18.34-.28.02-.02.02-.02.01.01-.04.1-.18.16-.22.23Z" fill="#A9731F"/><path d="M3.37 10.38c.05-.02.07-.07.06-.1-.02-.03-.07-.04-.11-.02-.04.02-.07.07-.05.1.01.03.06.04.1.02Z" fill="#CBA133"/><path d="M5.07 10.38a4.61 4.61 0 0 0 1.29 1.38c.02 0 .03-.02.05-.03.11-.15.13-.24.04-.3.07.03.12.07.14.15 0 .02 0 .03.02.04l.08.06.01.06a.3.3 0 0 0-.12-.1h-.03a.04.04 0 0 0-.03.01c-.03.08-.01.14.07.18l.1.02c.05 0 .1.03.14.08a1.27 1.27 0 0 0-.59.02c-.07.02-.14-.01-.22-.08-.28-.26-.57-.53-.9-.72a.16.16 0 0 0-.13 0c-.01 0-.02.01 0 .02v.06c-.02.01-.03.02-.04 0-.15-.14-.22-.31-.35-.47a.38.38 0 0 1-.01-.17c0-.01 0-.02.02-.03l.46-.18Z" fill="#397341"/><path d="M6.83 11c0 .03-.05.04-.12.02a1.66 1.66 0 0 1-.57-.37c.2.08.37.18.52.3.03.02.06.02.11 0h.04l.02.04Z" fill="#56994D"/><path d="M6.7 11.74v.06c0 .02-.02.02-.03.03h-.08c-.08-.04-.1-.1-.07-.17l.03-.03h.03a.3.3 0 0 1 .12.1Z" fill="#FEFEDB"/><path d="M7.33 12.1c-.1-.02-.15 0-.13.04l-.37-.2c-.05-.06-.1-.08-.14-.09-.05 0-.09 0-.1-.02h.08l.02-.03.01-.06v-.06c.04.02.07.05.06.1 0 .01 0 .03.02.03l.55.3Z" fill="#CBA133"/><path d="m8.17 12.02-.03.26a.04.04 0 0 0 .03.05l.27.05c.03.01.05.02.06.04.02.01.01.02-.01.02l-.33.02a2.1 2.1 0 0 1-.36-.08 3.66 3.66 0 0 0-.26-.06.67.67 0 0 1-.34-.18c-.02-.05.02-.06.13-.03h.05c.02 0 .03-.02.03-.04V12c0-.02.02-.03.03-.03h.1l.15.1s.02.01.02.03l-.01.07a.05.05 0 0 0 .03.07l.18.06a.06.06 0 0 0 .08-.03l.1-.23c0-.06.02-.1.03-.1.03-.02.05 0 .05.08Z" fill="#ECEFA2"/><path d="m8.09 12.04-.1.23-.04.03h-.04l-.18-.06a.05.05 0 0 1-.03-.02.05.05 0 0 1 0-.04v-.08l-.01-.04-.15-.1.55.08Z" fill="#A9731F"/><path d="M8.48 12.15a.62.62 0 0 1-.26.07c-.02 0-.02 0 0-.01a.1.1 0 0 1 .05 0c.02 0 .02-.01.03-.02v-.03c.01-.02 0-.03-.01-.03h-.01l-.01-.01.03-.05c.03-.02.02-.03 0-.02h-.02l-.01-.01v-.02h.01a7.32 7.32 0 0 0 .27.12H8.5l-.02.01Z" fill="#397341"/><path d="M10.06 12.13c.06 0 .1-.04.1-.07-.01-.03-.06-.05-.11-.04-.06 0-.1.04-.1.07.01.03.06.05.11.04Z" fill="#59AA55"/><path d="M10.33 12.28c.23.18.3.38.37.69a1.66 1.66 0 0 0-.61.32c-.03.01-.03.03-.01.04.14.13.25.25.34.39.02.03.01.03-.02.02l-.15-.1-.23-.22c-.05-.05-.1-.07-.16-.06-.42.09-.88.12-1.38.1a.13.13 0 0 0-.11.05l-.3.37c-.1.14-.23.25-.34.4-.15.18-.29.26-.52.2a.34.34 0 0 1 .09-.31v-.03c0-.01 0-.02.02-.02h.03v-.02l-.01-.01-.86-.22-.55-1.47c.06.03.12.04.16.04l.04.01c.09.07.15.14.24.2.3.18.6.34.93.47a.8.8 0 0 0 .34.05.44.44 0 0 1 .27.08v.01l-.07.02a1.24 1.24 0 0 1 .11 0l.02-.01a.9.9 0 0 1 .4-.37c.14-.05.27-.1.33.07 0 .01.01.02.03.02l.02-.01.02-.03.03-.47c0-.02.02-.03.03-.03l.68-.02c.28-.03.55-.07.82-.15Z" fill="#0F2D29"/><path d="m8.16 12.46.33-.02c.02 0 .03 0 .01-.02a.15.15 0 0 0-.06-.04l.3.02c.02 0 .03.01.03.04v.04c0 .01-.01.02-.03.02l-.58-.04Z" fill="#A9731F"/><path d="M10.7 12.97c-.1.1-.27.18-.48.22.16-.1.32-.17.48-.22Z" fill="#5F260A"/><path d="m6.4 13.27.15.1c-.06 0-.13 0-.2-.03l-.02-.02-.01-.02v-.07c0-.01 0-.02-.02-.03-.03-.03-.05-.06-.06-.1l.01-.02.02-.01h.01a.04.04 0 0 1 .03 0 .04.04 0 0 1 .02.02l.04.13c0 .02.02.04.03.05Z" fill="#56994D"/><path d="M7.21 14.48c-.17-.05-.38-.1-.45-.24a.3.3 0 0 0-.07-.1.06.06 0 0 1-.02-.05c0-.08-.03-.14-.08-.18a.43.43 0 0 0-.11-.04l.86.22h.01v.02h-.02l-.01.01-.02.02v.02a.34.34 0 0 0-.09.32Z" fill="#235329"/><path d="M6.75 14.12c.01.04.05.06.08.05.02-.01.03-.05.01-.1-.01-.03-.05-.05-.08-.04-.02.01-.03.06-.01.1Z" fill="#696868"/><defs><linearGradient id="a" x1="3.35" y1="3.12" x2="21.9" y2="24.43" gradientUnits="userSpaceOnUse"><stop stop-color="#1A1E21"/><stop offset="1" stop-color="#06060A"/></linearGradient></defs></svg>