<!-- by TradingView --><svg width="18" height="18" viewBox="0 0 18 18" xmlns="http://www.w3.org/2000/svg"><path fill="url(#a)" d="M0 0h18v18H0z"/><path d="M12.31 6.13 9.61 8l1.93 5h1.96l-1.8-4.66-.01-.04c-.18-.95.3-1.79.62-2.17Z" fill="url(#b)"/><path d="M8.09 4 6.53 8.08a9.3 9.3 0 0 1-2.03 2.97L8.34 8.4l.71-1.86.42 1.08L11 6.56 10 4H8.1Z" fill="url(#c)"/><path d="m8.1 9.04-2.63 1.81L4.64 13h1.94l.4-1h3.14c.22 0 .4-.2.4-.42a.4.4 0 0 0-.4-.4H7.3l.1-.36h1.78c.23 0 .41-.19.41-.42a.4.4 0 0 0-.4-.4H7.71l.38-.96Z" fill="url(#d)"/><defs><linearGradient id="a" x1="3.35" y1="3.12" x2="21.9" y2="24.43" gradientUnits="userSpaceOnUse"><stop stop-color="#1A1E21"/><stop offset="1" stop-color="#06060A"/></linearGradient><linearGradient id="b" x1="8.62" y1="8.57" x2="13.53" y2="11.02" gradientUnits="userSpaceOnUse"><stop stop-color="#F86663"/><stop offset=".28" stop-color="#F7BD59"/><stop offset=".46" stop-color="#9CBF72"/><stop offset="1" stop-color="#22ECC6"/></linearGradient><linearGradient id="c" x1="3.99" y1="10.78" x2="11.45" y2="9.13" gradientUnits="userSpaceOnUse"><stop stop-color="#658ADE"/><stop offset=".52" stop-color="#F95867"/><stop offset="1" stop-color="#F6A450"/></linearGradient><linearGradient id="d" x1="7.93" y1="9.04" x2="6.1" y2="12.67" gradientUnits="userSpaceOnUse"><stop stop-color="#F05B61"/><stop offset="1" stop-color="#658ADE"/></linearGradient></defs></svg>