<!-- by TradingView --><svg width="18" height="18" viewBox="0 0 18 18" xmlns="http://www.w3.org/2000/svg"><path fill="#181B1E" d="M0 0h18v18H0z"/><path d="M4.6 4H6v7.74c0 .14.11.26.25.26h1c.14 0 .25-.12.25-.26v-1.47c0-.1.11-.14.17-.07l1.25 1.22a.1.1 0 0 0 .08.04c.06 0 .1-.06.13-.1l1.1-1.04c.06-.07.14-.17.22-.12a.1.1 0 0 1 .05.09v3.4a.3.3 0 0 1-.3.31H4.6a.61.61 0 0 1-.6-.63V4.63c0-.35.27-.63.6-.63Z" fill="#fff"/><path d="M12 6h-1.05L9.33 7.74c-.1.1-.18.26-.33.26-.14 0-.23-.15-.33-.26L7 6V4.31c0-.17.15-.31.33-.31h6.07c.33 0 .6.26.6.58v8.84c0 .32-.27.58-.6.58H12V6Z" fill="#1481DE"/></svg>