<!-- by TradingView --><svg width="18" height="18" viewBox="0 0 18 18" xmlns="http://www.w3.org/2000/svg"><path fill="#F0F3FA" d="M0 0h18v18H0z"/><path d="m8.75 4.07-.5.07c-1.34 0-2.3 1.02-2.52 1.23-.22.2-.2.51-.45.7a6.8 6.8 0 0 0-.99 1.07c-.33.43-.56 1.24-.88 2.17a9.83 9.83 0 0 0-.3 2.6c.3.18 1.06.52 1.56.52s.88-.18 1.01-.27c.4.57 1.64 1.72 3.3 1.72 1.68 0 2.6-.98 2.87-1.46h.65c.26 0 1.1-.32 1.64-.52.43-.15.7-.67.78-.9-.1-.26-.38-.95-.7-1.68-.42-.91-.8-1.5-1.18-2.05-.3-.46-.66-.77-.8-.88v-.22l-.66-1c-.18-.22-.71-.7-1.33-.88a6.1 6.1 0 0 0-1.5-.22Z" fill="url(#anqyuyqm0)"/><ellipse cx="6.51" cy="10.12" rx=".34" ry=".35" fill="#FFFF24"/><ellipse cx="10.82" cy="10.12" rx=".34" ry=".35" fill="#FFFF24"/><path fill-rule="evenodd" d="M6.95 10.2A.63.63 0 0 0 7 9.93a.62.62 0 0 0-.62-.63.62.62 0 0 0-.61.63.62.62 0 0 0 .72.61.37.37 0 0 1-.28-.36c0-.21.16-.38.37-.38.2 0 .37.17.37.38Zm3.49 0a.63.63 0 0 1-.06-.26c0-.35.28-.63.62-.63.34 0 .62.28.62.63a.62.62 0 0 1-.73.61.37.37 0 0 0 .29-.36c0-.21-.17-.38-.37-.38-.2 0-.37.17-.37.38Zm-.67 1.34c0 .34-.35.62-.8.67v.24a1.1 1.1 0 0 1 .65.45.1.1 0 0 1-.04.15.12.12 0 0 1-.15-.04.89.89 0 0 0-.23-.23.63.63 0 0 0-.35-.13.75.75 0 0 0-.37.13c-.12.07-.22.16-.28.22a.12.12 0 0 1-.16.01.1.1 0 0 1 0-.15c.06-.07.18-.18.32-.26.11-.07.25-.13.39-.15v-.24c-.47-.03-.83-.32-.83-.67 0-.37.42-.66.93-.66.5 0 .92.3.92.66Zm-.98.15a.86.86 0 0 1-.65-.27c.09.05.34.13.65.13.3 0 .61-.13.73-.2-.1.12-.38.34-.73.34Z" fill="#C35B00"/><path d="M3.7 11.65c-.06-.94.12-3.17 1.24-4.58l.31-.9A2.79 2.79 0 0 0 4.2 7.31c-.2.38-.47.85-.88 2.42L3.1 11v.91c.27.19.92.56 1.4.56.47 0 1.02-.23 1.23-.35l-.2-.65c-.1.2-.62.54-1.85.17Zm8.74-4.7c.28.33.86 1.11 1 1.61.13.5.47 2.01.63 2.7-.23.1-.8.3-1.2.3-.48.01-.69-.12-.69-.42l-.29 1.28c.16.02.54.06.86 0 .33-.06 1.12-.4 1.48-.57l.7-.83c-.16-.45-.51-1.46-.7-1.83-.2-.38-.77-1.33-1.04-1.76l-.82-1 .07.52Z" fill="#EE9E17"/><path fill-rule="evenodd" d="M8.84 13.8a3.7 3.7 0 0 0 2.9-1.32l.54-2.46L12.4 8a4.18 4.18 0 0 0-.25-1.62l.01-.02c-.1-.25-.21-.5-.37-.74-.5-.78-1.4-1.41-2.95-1.41-.97 0-1.7.22-2.23.55-.54.34-.9.78-1.14 1.24-.48.88-.51 1.8-.52 2V8l.02.3a21.77 21.77 0 0 0 .24 1.7l.62 2.17a3.75 3.75 0 0 0 3 1.62Zm3.5-7.52C11.9 5.12 10.91 4 8.83 4c-2.05 0-3.07.97-3.57 1.96v-.01a6.05 6.05 0 0 0-1.88 3.07 9.5 9.5 0 0 0-.38 2.9v.05l.04.03c.13.09.36.23.63.34.27.12.59.21.88.21.52 0 .93-.15 1.12-.25A3.93 3.93 0 0 0 8.84 14c1.67 0 2.75-.96 3.08-1.44l.01-.04c.4.04.96 0 1.51-.19.61-.2 1.21-.6 1.54-1.32l.02-.04-.01-.04c-.2-.55-.56-1.45-1.03-2.35a8.87 8.87 0 0 0-1.63-2.3Zm.12.4c.12.48.15.95.13 1.32l-.12 2.05-.5 2.28c.37.03.9 0 1.42-.18.56-.2 1.1-.56 1.4-1.2-.18-.54-.54-1.4-1-2.27a9.71 9.71 0 0 0-1.33-2Zm-7.9 5.67c.51 0 .91-.16 1.05-.24l-.58-2.06c-.1-.59-.28-1.82-.27-2.05v-.02c.01-.17.04-.86.33-1.62a6.17 6.17 0 0 0-1.52 2.72 9.38 9.38 0 0 0-.38 2.78c.13.09.33.2.56.3.26.1.55.2.8.2Z" fill="url(#bnqyuyqm0)"/><defs><linearGradient id="anqyuyqm0" x1="9.01" y1="4.07" x2="9.01" y2="13.88" gradientUnits="userSpaceOnUse"><stop stop-color="#F7B218"/><stop offset=".48" stop-color="#FCD119"/><stop offset="1" stop-color="#FAC219"/></linearGradient><linearGradient id="bnqyuyqm0" x1="3.73" y1="10.75" x2="14.58" y2="8.91" gradientUnits="userSpaceOnUse"><stop stop-color="#51150F"/><stop offset="1" stop-color="#6A1D04"/></linearGradient></defs></svg>