<!-- by TradingView --><svg width="18" height="18" viewBox="0 0 18 18" xmlns="http://www.w3.org/2000/svg"><path fill="url(#a)" d="M0 0h18v18H0z"/><path d="m11.09 4-.98-.02.12-.04c.02 0 .03-.01.03-.02v-.04a.41.41 0 0 0-.13-.11 4.2 4.2 0 0 1-.05-.06.32.32 0 0 0-.1-.12.57.57 0 0 1-.17-.16.06.06 0 0 0-.04-.03l-.27-.06a.06.06 0 0 1-.03-.02c-.06-.08-.16-.11-.3-.11a.99.99 0 0 0-.45.02.26.26 0 0 0-.1.04.64.64 0 0 1-.2.1.65.65 0 0 0-.17.06 1 1 0 0 1-.19.15.28.28 0 0 0-.07.06l-.06.09-.02.02-.09.03a.12.12 0 0 0-.07.08.1.1 0 0 0 .01.09l.08.02h-.38c.05 0 .08-.02.1-.07 0-.04.01-.06.03-.07l.14-.12a7.8 7.8 0 0 0 .55-.49l.09-.03a.6.6 0 0 0 .14-.05l.04-.03a.33.33 0 0 1 .12-.06c.23-.05.45-.06.64-.03.08.01.16.06.24.14l.03.02.2.04a.1.1 0 0 1 .04.03l.16.13c.04.02.08.06.12.1.1.11.2.22.34.34l.09.11.03.02.53.04Z" fill="#535458"/><path d="M9.17 3.2a.88.88 0 0 0-.49.35.42.42 0 0 0-.09.24c0 .07 0 .16.03.27 0 .05.03.1.07.12l.1.1c.03.02.06.05.1.06a536.62 536.62 0 0 0 .22.12l.14-.02.3-.1a.7.7 0 0 1 .25-.01l-.27.04c-.05 0-.09.04-.1.1-.01.03-.03.04-.06.04-.3.05-.54.05-.72 0a.04.04 0 0 1-.03-.03c-.02-.06-.07-.1-.15-.12a7.2 7.2 0 0 0-.27-.06l-.03-.1c0-.02-.02-.03-.04-.03h-.1c-.04 0-.06-.03-.06-.06V4s0-.02-.02-.03a.27.27 0 0 0-.11-.01.27.27 0 0 1-.08-.02.1.1 0 0 1 0-.1.12.12 0 0 1 .06-.07l.08-.03c.02 0 .02-.01.03-.02l.06-.1a.28.28 0 0 1 .07-.05 1 1 0 0 0 .19-.15.66.66 0 0 1 .17-.06.64.64 0 0 0 .2-.1.26.26 0 0 1 .1-.04 1 1 0 0 1 .45-.02Z" fill="#DEDEDE"/><path d="m10.1 3.98-.03.01V4l-.02.12c0 .02-.02.03-.04.04l-.12.02a.04.04 0 0 0-.03.03l-.06.12a.7.7 0 0 0-.25 0 3.99 3.99 0 0 1-.44.13l-.04-.01a613.38 613.38 0 0 1-.28-.17 1.04 1.04 0 0 0-.1-.1.19.19 0 0 1-.08-.12c-.02-.11-.02-.2-.02-.27 0-.1.04-.18.09-.24.15-.2.32-.3.49-.34.14 0 .24.03.3.1 0 .02.02.03.03.03l.27.06c.02 0 .03.01.04.03.05.07.1.12.17.16.03.02.07.06.1.11a4.39 4.39 0 0 0 .05.07l.13.1v.05s-.01.02-.03.02l-.12.04Z" fill="#fff"/><path d="m9.8 4.33.06-.12c0-.02.02-.02.03-.03l.12-.02c.02 0 .03-.02.04-.04l.02-.12a.05.05 0 0 1 .04-.02l.98.01.01.46v.67a.2.2 0 0 1-.12 0l-.06.01a.06.06 0 0 0-.03.05v.3c0 .02 0 .03-.03.03l-.1.01h-.05l-.02.04v.12a.09.09 0 0 1-.07.02 33.96 33.96 0 0 0-1.1 0c-.07 0-.1-.04-.08-.13 0-.04-.01-.06-.05-.06h-.12c-.02 0-.03 0-.03-.03v-.12l-.04-.03a2.56 2.56 0 0 0-.58 0c-.02 0-.03 0-.03.02v.13c0 .02 0 .03-.03.03h-.14c-.02 0-.03.01-.03.03v.14c0 .02-.01.02-.03.02h-.98c-.02 0-.04 0-.04-.03v-.11c0-.02-.02-.03-.04-.03h-.12c-.03 0-.04-.02-.04-.04v-.32c0-.02-.01-.03-.03-.03a.28.28 0 0 0-.14-.01.04.04 0 0 0-.04-.03l.02-1.09c0-.02.01-.03.03-.03l.47-.01h.39l.1.01c.02.01.03.02.03.04v.09c0 .03.02.05.06.05h.1c.02.01.04.02.04.04l.03.1a7.17 7.17 0 0 1 .27.07c.08 0 .13.05.15.1 0 .02.01.03.03.03.18.06.42.06.72.01.03 0 .05-.01.05-.04.02-.06.06-.1.11-.1l.27-.04Z"/><path d="M7.53 5.13H7.4c-.03 0-.05-.02-.05-.05v-.69c0-.02.01-.03.04-.03h.34c.02 0 .04 0 .04.04v.13c0 .01 0 .02.02.02h.5a.1.1 0 0 1 .07.03c.02.01.03.03.03.06v.46c0 .02-.01.03-.04.03h-.14l-.02.04v.12c0 .02-.01.03-.04.03H7.6c-.02 0-.03-.01-.03-.03v-.13c0-.02-.01-.03-.03-.03ZM9.93 4.54a1.1 1.1 0 0 0-.2 0 56.07 56.07 0 0 1 .52-.02.15.15 0 0 0 .02-.08c0-.05.02-.07.07-.07h.27c.02 0 .04 0 .05.02.02.01.02.03.02.05v.66c0 .01 0 .02-.02.02l-.13.02c-.02 0-.04.02-.04.05v.08c0 .03-.03.05-.06.05H9.9c-.02 0-.04-.01-.05-.03a.06.06 0 0 1-.02-.06.1.1 0 0 0-.01-.08.05.05 0 0 0-.04-.02h-.1c-.03 0-.04-.02-.04-.04v-.46c0-.04.02-.06.06-.06l.23-.02c.02 0 .02 0 0 0Z" fill="#fff"/><path d="M7.94 4.74H7.8c-.02 0-.03.01-.03.03v.33c0 .02.01.03.03.03h.14c.02 0 .03-.01.03-.03v-.33c0-.02-.01-.03-.03-.03ZM10.22 4.74h-.1c-.02 0-.05.02-.05.05v.29c0 .02.02.05.05.05h.1c.02 0 .05-.02.05-.05v-.29c0-.03-.02-.05-.05-.05Z"/><path d="M6.93 5.1c.02 0 .03.01.04.03a11.48 11.48 0 0 1-.1.57.15.15 0 0 1-.05.01c-.04 0-.07.03-.07.1l-.05.82c0 .03-.02.04-.06.04-.03 0-.06 0-.08.02l-.03.06a3.8 3.8 0 0 0 0 .7.3.3 0 0 1-.09.14c-.03.04-.06.06-.08.06-.04 0-.06.03-.06.06v.76c0 .04-.02.07-.03.1l-.04.02a.4.4 0 0 0-.12.04.03.03 0 0 0-.02.03c.01.2-.05.31-.2.33 0-.13.02-.27.07-.4l.09-.01c.02-.02.02-.04.03-.07l.03-.83c0-.03.01-.04.04-.04h.11c.03-.01.05-.03.05-.06v-.86c0-.03.01-.04.04-.04h.1c.02-.01.02-.02.02-.03l.04-.39.03-.47c0-.04.02-.06.06-.07.05-.01.08-.05.1-.11l.07-.47.16-.04ZM11.1 5.12l.01.03v.34l.01.18c0 .01.01.02.03.02l.1.01c.04 0 .05.02.05.05l.02.48.02.2c0 .01.01.03.04.03.07.02.11.05.11.08a9.43 9.43 0 0 1 .07 1.04c0 .03.02.04.04.05a.2.2 0 0 1 .08.05l.01.02.06.85c0 .01 0 .02.02.03.04.02.09.03.15.03l.06.54.03.03c.03 0 .06.02.09.04l.02.03.02.13.04.14.02.03.3.24.07.1c0 .02.02.03.03.04l.14.1a51.65 51.65 0 0 0 1 .91 2.2 2.2 0 0 0 .26.27c0 .05-.04.1-.1.13-.16.21-.28.4-.35.58a.58.58 0 0 1-.13.23c-.05.04-.07.09-.06.15 0 .07 0 .11-.03.14l-.14.13c-.1.08-.24.1-.4.08a.3.3 0 0 0-.1 0h-.07a9.9 9.9 0 0 0-.51-.02.7.7 0 0 0-.19 0 9.45 9.45 0 0 1-.35.08l-.12.17a.67.67 0 0 0-.1.16.66.66 0 0 1-.08.18l-.31.28c-.14.14-.24.22-.29.24a.82.82 0 0 1-.27.08h-.33a.22.22 0 0 0-.16.08l-.1.09a51.33 51.33 0 0 0-.76 0c-.25 0-.41-.01-.5-.04a7.59 7.59 0 0 0-.72-.2.8.8 0 0 0-.35-.1l-.58-.03-.4-.01c-.29 0-.5-.01-.62-.03a.55.55 0 0 1-.39-.22.06.06 0 0 1 0-.04V12.2l-.02-.03c-.07-.06-.14-.1-.2-.09h-.71c-.08-.02-.13-.05-.16-.09a.53.53 0 0 0-.11-.12l-.1-.07a.63.63 0 0 1-.19-.31c.11-.17.25-.33.42-.48 0-.11.03-.2.11-.28a.31.31 0 0 0 .08-.1l.03-.1a.59.59 0 0 1 .05-.15l.34-.31a.53.53 0 0 1 .14-.12.2.2 0 0 0 .06-.05l.15-.14c.1-.07.2-.15.26-.24a.5.5 0 0 0 .07-.2l.03-.06.01-.02.1-.09a.62.62 0 0 1-.2.5c-.06.06-.1.1-.11.13a.32.32 0 0 0-.05.18.65.65 0 0 0-.19.04.05.05 0 0 0-.03.03.28.28 0 0 1-.15.14.08.08 0 0 0-.03.03.72.72 0 0 0-.06.09.25.25 0 0 1-.07.07.28.28 0 0 0-.09.08.82.82 0 0 0-.06.23c0 .02 0 .03-.02.04l-.04.02c-.08.03-.12.09-.12.18 0 .02.01.03.04.03.23-.01.45 0 .67.02.06 0 .11.04.15.08.03.04.07.08.12.1l.03.02.05.1c0 .02.02.03.03.04l.06.03c.03.01.06.02.07.04.02.01.04.04.04.08.01.04.04.06.08.07.03 0 .05.02.07.03l.02.03.07.27c0 .03.03.05.07.05l.07.02.02.03c0 .04.01.08.03.1 0 .02.02.02.03.03l.89.04c.05 0 .08.03.11.08s.06.08.1.09c.07.01.11.05.12.12l.02.02.07.05c.05.01.08.03.1.05l.04.1.02.02a.3.3 0 0 0 .06.02c.05.02.09.05.1.09l-.07.1-.03.02-.05-.01a3.28 3.28 0 0 0-.4-.4.7.7 0 0 0-.38-.16l-.62-.05c-.06 0-.1-.02-.12-.05a.28.28 0 0 0-.17-.14c-.02 0-.03-.01-.03-.03l-.03-.1a.03.03 0 0 0-.03-.03.39.39 0 0 1-.08-.04c-.02 0-.04-.03-.05-.07a1.14 1.14 0 0 0-.48-.57.6.6 0 0 0-.24-.08 2.58 2.58 0 0 0-.64-.02.25.25 0 0 0-.1.03.19.19 0 0 0-.05.06l-.02.04-.03.03a.3.3 0 0 0-.18.28c0 .05.01.1.05.12.02.02.06.03.13.05.04.01.06.04.06.1 0 .03.02.06.06.07.17.02.35.03.53.02.14-.01.27 0 .36.01l.1.05c.03.04.07.07.12.1.04.02.06.06.06.1l.02.92c0 .1.05.16.15.17.01 0 .02 0 .03.02l.03.09c0 .04.02.06.06.07.16.01.33 0 .54-.02.01 0 .02-.01.02-.03v-.1c0-.02.01-.03.03-.03.43-.02.83-.02 1.19 0 .02 0 .04.01.05.04l.01.08c0 .03.02.04.05.05h.18c.06 0 .1 0 .11-.03.03-.02.05-.06.05-.12 0-.01 0-.02-.02-.02H8.1c-.04.01-.06 0-.07-.04l-.04-.29v-.04a.05.05 0 0 1 .05-.02c.04 0 .08 0 .12.03l.05.28c0 .03.03.05.06.05.07 0 .11.03.12.1a7.67 7.67 0 0 1 .05.28l.12.03c.03 0 .05.02.05.05v.1l.04.02c.32.03.65.03.99 0 .02 0 .03 0 .03-.02v-.1c0-.04.03-.06.07-.06.05 0 .09 0 .11-.03l.02-.03v-.1c0-.02.02-.03.04-.03h.06c.05 0 .08-.02.1-.06l.06-.33a.37.37 0 0 0 .16-.23.8.8 0 0 1 .03-.1l.03-.03c.08-.04.12-.09.14-.13l.03-.05.03-.02a.3.3 0 0 0 .1-.04.16.16 0 0 0 .05-.07.5.5 0 0 1 .05-.1.37.37 0 0 0 .16-.14c0-.02.01-.03.03-.03a4.8 4.8 0 0 1 .76 0c.02.01.04.04.05.1a.76.76 0 0 1-.39.03.51.51 0 0 0-.31.05.05.05 0 0 0-.03.03c0 .03-.02.05-.04.07a4.1 4.1 0 0 0-.43.41.44.44 0 0 0-.1.16.8.8 0 0 1-.15.28.33.33 0 0 0-.03.08.34.34 0 0 1-.06.12l-.06.07c-.04.03-.05.07-.03.1.03.04.1.06.17.05a.4.4 0 0 0 .2-.05l.01-.03c.02-.09.07-.13.16-.14.02 0 .03 0 .03-.02l.03-.1c0-.03.03-.05.07-.06.07 0 .1-.04.12-.1.02-.05.06-.08.12-.1a.17.17 0 0 0 .08-.04c.02-.02.02-.05.03-.09a6.12 6.12 0 0 0 .04-.25l.1-.05c.02 0 .03-.02.03-.03.03-.06.07-.1.1-.1l.06-.02c.14-.02.23-.05.26-.09a.7.7 0 0 1 .11-.12l.23-.01c.04 0 .06-.02.07-.05.02-.08.07-.11.17-.1l.2-.07.03-.03c.03-.06.07-.1.12-.1.08-.02.17-.02.26-.02.04 0 .06-.02.06-.05 0-.07.02-.12.06-.14l.11-.05c.02 0 .03-.01.03-.03 0-.04.02-.07.03-.1l.04-.01c.08-.01.14-.05.17-.12a.1.1 0 0 1 .09-.05h.03c.14-.02.24-.05.28-.1.02-.03.02-.05-.01-.07l-.37-.3a.08.08 0 0 1-.03-.03c-.03-.07-.08-.1-.16-.11-.02 0-.03-.01-.04-.03l-.02-.11a.04.04 0 0 0-.02-.03.2.2 0 0 0-.12-.02l-.04-.02a.06.06 0 0 1-.02-.05c0-.02 0-.05-.02-.08a.04.04 0 0 0-.03-.03.4.4 0 0 0-.13-.02l-.03-.01v-.03l-.01-.1a.04.04 0 0 0-.02-.03.17.17 0 0 0-.1-.01c-.04 0-.06-.02-.06-.06 0-.1-.05-.14-.14-.14-.02 0-.04 0-.05-.02a.17.17 0 0 1-.04-.13c-.04-.04-.13-.06-.27-.04l.12-.02c.02 0 .03-.02.03-.03V9.7a8.2 8.2 0 0 1-.22-.23c-.03-.03-.05-.1-.07-.21l-.01-.02-.15-.12c-.01 0-.02-.01-.02-.03l-.05-.41a.1.1 0 0 0 0-.04.75.75 0 0 1-.16-.43 4.6 4.6 0 0 1-.02-.55l-.13-.1-.01-.03-.09-.45c0-.01 0-.02-.02-.02h-.08l.07-.04.02-.06V6.6a.12.12 0 0 0-.05-.1l-.04-.01a.14.14 0 0 1-.06-.04.1.1 0 0 1-.02-.05l-.01-.05-.02-.61c0-.02 0-.03-.02-.03a.33.33 0 0 0-.12-.01.17.17 0 0 1-.06-.11c0-.04-.02-.06-.03-.07a.16.16 0 0 0-.1 0l.1-.02c.02 0 .03-.01.03-.03v-.3c0-.02 0-.04.03-.05a.07.07 0 0 1 .06 0 .2.2 0 0 0 .12-.01Z" fill="#535458"/><path d="M6.97 5.13c.05-.01.1 0 .14 0 .02.01.03.02.03.04v.32c0 .02.01.04.04.04h.12c.02 0 .03 0 .04.03v.11c0 .02.02.03.04.03h.98c.02 0 .03 0 .03-.02v-.14c0-.02 0-.03.03-.03h.14c.02 0 .03 0 .03-.03v-.13c0-.02.01-.03.03-.03.21-.02.4-.01.58.01.02 0 .03.02.03.03l.01.12c0 .02.01.03.03.03h.12c.04 0 .06.02.05.06-.01.09.01.13.09.13a7.06 7.06 0 0 1-.14.01c-.08 0-.14-.02-.16-.05-.03-.07-.07-.1-.12-.1l-.27-.03a.27.27 0 0 0-.2.07l-.05.07c-.03.04-.1.06-.2.06s-.15.01-.18.04c-.02.03-.02.06 0 .1 0 .02 0 .03-.02.03h-.17l-.44.01c-.01 0-.02 0-.02.02v.71c0 .02.01.03.04.03h.13c.02 0 .03.01.03.03l.02.17c0 .08.05.15.13.2l.04.05.07.1.12.02.17.02c.05.01.07.04.08.08l.02.3H8.1a10.64 10.64 0 0 0-.76.04l-.01.07c-.01.07-.06.1-.14.08-.02 0-.03-.01-.03-.03l-.02-.28c0-.04-.02-.06-.07-.06h-.54a3.8 3.8 0 0 1 .03-.77.17.17 0 0 1 .08-.02c.04 0 .06-.01.06-.04l.05-.82c0-.07.03-.1.07-.1l.06-.02.02-.03a11.48 11.48 0 0 0 .07-.53ZM10.76 5.52h.1c.01.02.03.04.03.08 0 .05.03.08.06.1l-.25.01c-.02 0-.02 0-.02-.02v-.01l.01-.12.02-.03h.05Z" fill="#DEDEDE"/><path d="M9.97 5.71h.65l.06-.03v.01c0 .02 0 .02.02.02h.37l.02.04.02.6a.75.75 0 0 1-.12.15.2.2 0 0 0-.06.13c0 .12-.06.21-.16.26a.44.44 0 0 0-.1.1.72.72 0 0 1-.08.08l-.16.14a.15.15 0 0 1-.08.04l-.23.05a.06.06 0 0 0-.03.02l-.02.04-.03.03c-.16.06-.32.1-.5.08-.04 0-.08.02-.1.06-.02.05-.08.09-.17.1l-.43.02h-.43l-.02-.31c0-.04-.03-.07-.08-.08a57.12 57.12 0 0 1-.29-.05.43.43 0 0 1-.07-.1.13.13 0 0 0-.04-.04.29.29 0 0 1-.13-.2h.16c.02 0 .03.01.03.03v.11c0 .03.02.04.05.05h.13c.02 0 .03 0 .03-.03v-.54h.21v.54c0 .02.02.04.04.04h.15c.01 0 .02 0 .02.02v.14c0 .01.01.02.03.02h.58c.01 0 .02 0 .02-.02v-.51c0-.03.02-.04.04-.04h.1c.04 0 .05.01.06.04l.02.3c0 .02.01.04.05.04h.1c.02 0 .04-.02.04-.04V6.9c0-.02.02-.03.04-.03H10c.04 0 .06-.02.06-.05v-.3c0-.02.01-.03.03-.03l.12-.01c.01 0 .02 0 .02-.02.04-.18.04-.35.03-.51 0-.03-.02-.04-.05-.04H9.9c-.03 0-.05.01-.05.05v.1c0 .02 0 .03-.02.03h-.36c-.02 0-.03-.01-.03-.03v-.11c-.01-.02-.03-.04-.05-.04H8l.18-.01c.01 0 .02-.01.01-.03-.01-.04 0-.07.01-.1.03-.03.08-.04.17-.04.1 0 .18-.02.2-.06l.06-.07a.27.27 0 0 1 .2-.07 9 9 0 0 1 .27.02c.05 0 .09.04.12.1.02.04.08.06.16.06h.58Z" fill="#fff"/><path d="m8.02 5.9 1.37.01c.03 0 .04.02.04.04v.11c.01.02.02.03.04.03h.36c.01 0 .02-.01.02-.03v-.1c0-.04.02-.05.05-.05h.32c.03 0 .04.01.05.04.01.16 0 .33-.03.5 0 .02 0 .03-.02.03h-.12c-.02 0-.03.02-.03.04v.3c0 .03-.02.05-.06.05h-.33c-.02 0-.03.01-.03.03l-.01.12c0 .02-.02.04-.05.04h-.1c-.02 0-.04-.02-.04-.04l-.02-.3c0-.03-.02-.04-.06-.04h-.1c-.02 0-.04.01-.04.04v.5c0 .03 0 .03-.02.03h-.58c-.02 0-.03 0-.03-.02v-.14c0-.02 0-.02-.02-.02h-.15c-.02 0-.04-.02-.04-.04V6.5l-.01-.02H8.2l-.01.01v.54c0 .02-.02.03-.04.03h-.13c-.03 0-.05-.02-.05-.05v-.1c0-.03 0-.04-.03-.04h-.16l-.02-.17c0-.02-.01-.03-.03-.03H7.6c-.03 0-.04 0-.04-.03v-.7c0-.02.01-.03.02-.03h.44Z"/><path d="M11.1 6.36c.02.01.02.03.02.05l.02.05.06.04.04.02c.03.02.05.05.05.09a5.2 5.2 0 0 1-.02.41.16.16 0 0 1-.07.04l-.05.02a.05.05 0 0 0-.02.03.19.19 0 0 1-.18.14l-.13.01a.4.4 0 0 0-.19.12.13.13 0 0 1-.07.04 7.3 7.3 0 0 0-.44.07c-.04 0-.07.04-.1.1l-.03.02c-.24.03-.48.04-.72.03.09-.02.15-.06.17-.11.02-.04.06-.06.1-.06.18.01.34-.02.5-.08l.03-.03.02-.04.03-.02.23-.05c.03 0 .06-.02.08-.04l.16-.14a.7.7 0 0 0 .07-.08.44.44 0 0 1 .11-.1c.1-.05.15-.14.16-.26A.2.2 0 0 1 11 6.5l.1-.14Z" fill="#DEDEDE"/><path d="M11.2 7.06h.08c.01 0 .02 0 .02.02l.09.45v.02l.14.1.01.03v.53c.02.18.07.32.16.43l.01.04.05.41c0 .02 0 .03.02.03l.14.12c.01 0 .02 0 .02.02.02.1.04.18.07.21a8.03 8.03 0 0 0 .22.26l-.03.03-.12.02c-.23-.02-.46-.01-.7.02-.04 0-.06.02-.06.06a.1.1 0 0 1-.02.05l-.03.02c-.26.03-.5.03-.72 0a.05.05 0 0 1-.04-.02l-.07-.1-.01-.01a.47.47 0 0 1-.18-.17.07.07 0 0 0-.03-.02.3.3 0 0 1-.15-.13c-.01-.02-.04-.05-.09-.06a.45.45 0 0 0-.1-.03.35.35 0 0 1-.16-.05 1.83 1.83 0 0 1-.1-.08.22.22 0 0 0-.11-.05 2.25 2.25 0 0 0-.25-.03l-.03-.04-.04-1.06c0-.03-.01-.04-.04-.04A.11.11 0 0 1 9.06 8a.21.21 0 0 1-.03-.08c-.02-.05-.06-.08-.13-.08l-.04-.01c-.08-.05-.09-.1-.02-.18l.43-.01c.24.01.48 0 .72-.03l.03-.03c.02-.05.06-.09.1-.1l.44-.06.07-.04a.4.4 0 0 1 .19-.12l.13-.01c.09 0 .15-.05.17-.14l.03-.03.05-.02ZM8.41 7.64h.14c.07.08.07.2.03.34L8.55 8l-.07.02c-.04.01-.05.04-.06.07a5.76 5.76 0 0 0-.01.92l-.02.11c0 .05-.03.07-.08.07l-.37.03c-.06.01-.1.03-.13.06a.64.64 0 0 1-.09.08.23.23 0 0 0-.07.1 8.42 8.42 0 0 1-.18.3.31.31 0 0 0-.08.1.29.29 0 0 1-.1.1.68.68 0 0 1-.36.18 19.44 19.44 0 0 1-1.04-.03v-.1c0-.02-.02-.04-.04-.04l-.36-.03c0-.07.02-.13.05-.18a.76.76 0 0 1 .1-.13l.06-.05c.1-.11.15-.26.15-.45L5.9 9c.15-.02.21-.13.2-.33 0 0 0-.02.02-.03a.4.4 0 0 1 .12-.04l.04-.02a.18.18 0 0 0 .03-.1V7.7c0-.03.02-.05.06-.06.02 0 .05-.02.08-.06a.3.3 0 0 0 .09-.14h.54c.05 0 .07.03.07.07l.02.28c0 .02.01.03.03.03.08.02.13 0 .14-.08a11.36 11.36 0 0 0 .04-.1 10.64 10.64 0 0 1 1.04 0Z" fill="#24356E"/><path d="M8.84 7.65c-.06.07-.06.13.02.18h.04c.07 0 .12.04.13.1l.03.07c.02.03.05.04.09.04.03 0 .04.01.04.04l.04 1.06a.44.44 0 0 0-.05-.1.58.58 0 0 1-.07-.14.6.6 0 0 0-.04-.1 33.09 33.09 0 0 1 0-.46c0-.07-.03-.1-.1-.12-.04-.01-.08 0-.12.02a.33.33 0 0 0-.07.08.83.83 0 0 1-.03.04.1.1 0 0 1-.03.02l-.1.05c-.02 0-.03.02-.03.03a.9.9 0 0 1-.03.2c-.03.1-.07.16-.11.18a.04.04 0 0 0-.02.03l-.02.15V8.8c-.01-.31 0-.55.01-.7 0-.03.03-.06.06-.07l.07-.02.03-.03c.04-.15.04-.26-.03-.33h.3Z" fill="#DEDEDE"/><path d="M9.23 9.14c0 .01 0 .03.04.04l.1.04c.06 0 .1 0 .12.02a.7.7 0 0 1 .18.13l.04.02c.07.01.13.04.18.08l.04.02c.05 0 .1.03.14.07l.03.02c.06.02.1.04.11.06.04.03.06.07.05.11 0 .1.02.2.08.3.02.02.06.05.14.06.05 0 .09.02.11.04.05.03.07.05.07.08l.06.29c0 .05.04.14.1.27.06.13.1.26.12.4l.07.13c.09.12.12.28.09.47 0 .03-.02.06-.04.08a.35.35 0 0 1-.07.06l-.03.01a.08.08 0 0 0-.03.03l-.19.33a.51.51 0 0 0-.05.1.16.16 0 0 1-.06.06.3.3 0 0 1-.09.04.06.06 0 0 0-.03.02l-.03.05c-.02.04-.06.1-.14.13a.06.06 0 0 0-.03.03.8.8 0 0 0-.03.1.37.37 0 0 1-.16.23c-.12.02-.2.04-.22.08a.6.6 0 0 1-.12.1 16.42 16.42 0 0 1-.99 0c-.07.01-.12 0-.14-.03a7.8 7.8 0 0 0-.36-.29.25.25 0 0 0-.14-.05c-.1 0-.17-.05-.18-.12 0-.04-.03-.07-.09-.09a.3.3 0 0 1-.05-.02.06.06 0 0 1-.03-.03.35.35 0 0 0-.05-.09.23.23 0 0 0-.09-.05.21.21 0 0 1-.07-.05l-.01-.02a.14.14 0 0 0-.12-.12c-.05-.01-.08-.04-.1-.1-.04-.04-.07-.07-.12-.07a.61.61 0 0 0-.2-.04L7 12.05a.22.22 0 0 0-.1-.06c-.18-.06-.3-.11-.39-.18a8.86 8.86 0 0 1-.37-.31.1.1 0 0 1-.03-.07.62.62 0 0 0-.04-.2.43.43 0 0 0-.08-.1.35.35 0 0 1-.08-.16.62.62 0 0 0-.12-.22.47.47 0 0 1-.1-.28c-.01-.09.02-.13.1-.13a9.74 9.74 0 0 0 .58-.04l.28-.03c.14-.02.29-.06.45-.13a.44.44 0 0 0 .2-.17.29.29 0 0 0 .1-.1.32.32 0 0 1 .07-.1 8.41 8.41 0 0 0 .18-.31.23.23 0 0 1 .07-.09.64.64 0 0 0 .09-.08c.03-.03.07-.05.13-.06a13 13 0 0 1 .37-.03c.05 0 .08-.02.08-.07l.02-.1.02-.16c0-.01 0-.02.02-.03.04-.02.08-.08.1-.17a.9.9 0 0 0 .04-.2c0-.02.01-.03.03-.04l.1-.05a.1.1 0 0 0 .03-.02l.03-.04a.33.33 0 0 1 .07-.08c.04-.03.08-.03.13-.02.06.01.09.05.08.12a33.09 33.09 0 0 0 0 .46.6.6 0 0 1 .06.13l.06.1.05.11Z" fill="#fff"/><path d="M12.08 9.78c.14-.02.23 0 .27.04a4.41 4.41 0 0 1-.8.17.4.4 0 0 0-.07.07.37.37 0 0 1-.05.06.97.97 0 0 0-.07.05.08.08 0 0 0-.03.06c0 .03 0 .05.03.06l.25.26c.04.04.09.12.14.23.04.08.07.14.1.17.03.05.06.14.09.27l.03.12c.02.07.05.15.1.23.07.14.1.3.08.46 0 .02 0 .04.02.05.01.02.03.03.05.03h.08c-.1 0-.15.03-.17.1-.01.04-.03.06-.07.06l-.23.01c-.05-.02-.08-.04-.09-.06-.01-.06-.03-.09-.06-.1a4.8 4.8 0 0 0-.75 0 .06.06 0 0 0-.03.03.37.37 0 0 1-.16.15l.2-.33c0-.01 0-.02.02-.03a2.73 2.73 0 0 0 .1-.07.15.15 0 0 0 .04-.08.64.64 0 0 0-.09-.47.4.4 0 0 1-.07-.13 1.36 1.36 0 0 0-.12-.4c-.06-.13-.1-.22-.1-.27l-.06-.3c0-.02-.03-.04-.07-.07a.3.3 0 0 0-.11-.04c-.08-.01-.12-.04-.14-.07a.48.48 0 0 1-.08-.29.14.14 0 0 0-.05-.11.34.34 0 0 0-.1-.06.09.09 0 0 1-.04-.02.26.26 0 0 0-.14-.07l-.04-.02a.35.35 0 0 0-.19-.08c-.01 0-.02 0-.03-.02a.7.7 0 0 0-.19-.13.31.31 0 0 0-.1-.02.28.28 0 0 1-.11-.04l.24.03c.05 0 .09.02.12.05l.09.08c.04.02.09.04.17.05l.1.03c.04.01.07.04.08.06.03.05.08.1.15.13l.03.02c.05.08.1.13.18.17l.01.01.07.1.04.02c.22.03.46.03.72 0l.03-.02a.1.1 0 0 0 .02-.05c0-.04.02-.06.06-.06.24-.03.48-.04.7-.02Z" fill="#DEDEDE"/><path d="M12.35 9.82c0 .05.01.1.04.13l.05.02c.09 0 .13.04.14.14 0 .04.02.06.07.06l.09.01.02.03v.1l.01.03.03.01c.04 0 .08 0 .13.02.02 0 .03.01.03.03.02.03.02.06.02.08 0 .02 0 .03.02.05l.04.02a.2.2 0 0 1 .12.02l.02.03.02.11c0 .02.02.03.04.03.08 0 .13.04.16.11 0 .02.01.03.03.04l.37.29c.03.02.03.04 0 .07-.03.05-.13.08-.27.1h-.03a.1.1 0 0 0-.09.05c-.03.07-.1.1-.17.12-.02 0-.03 0-.04.02a.27.27 0 0 0-.03.1s-.01.02-.03.02l-.1.05c-.05.02-.07.07-.07.14 0 .03-.02.05-.06.05l-.26.01c-.05.01-.09.05-.12.11l-.03.03a.56.56 0 0 1-.2.06h-.08c-.02 0-.04-.01-.05-.03a.06.06 0 0 1-.02-.05.81.81 0 0 0-.09-.46 1.14 1.14 0 0 1-.12-.35.83.83 0 0 0-.1-.27l-.09-.17c-.05-.1-.1-.19-.14-.23a2.41 2.41 0 0 0-.25-.26.08.08 0 0 1-.03-.06c0-.02 0-.04.03-.06a.96.96 0 0 1 .07-.05l.05-.06a.4.4 0 0 1 .07-.07 4.41 4.41 0 0 0 .8-.17Z" fill="#fff"/><path d="m5.5 9.95.35.03c.02 0 .03.02.04.04v.1a19.37 19.37 0 0 0 1.03.03.68.68 0 0 0 .37-.18.44.44 0 0 1-.2.17c-.15.07-.3.1-.45.13a22.54 22.54 0 0 0-.55.06h-.3c-.08 0-.11.05-.1.14 0 .1.03.2.1.28.05.07.09.14.11.22a.35.35 0 0 0 .09.16l.08.1.04.2c0 .03 0 .05.03.07l.37.31c.08.07.21.12.39.18.04 0 .07.03.1.06l.03.02c.07 0 .14.01.2.04l-.88-.04-.03-.02a.23.23 0 0 1-.03-.1c0-.02 0-.03-.02-.04a.18.18 0 0 0-.07-.02c-.04 0-.07-.02-.08-.05l-.06-.27a.05.05 0 0 0-.02-.03.17.17 0 0 0-.07-.03c-.04 0-.07-.03-.08-.07a.14.14 0 0 0-.04-.08.23.23 0 0 0-.07-.04.21.21 0 0 1-.06-.03.07.07 0 0 1-.03-.03.33.33 0 0 0-.05-.11.08.08 0 0 0-.03-.02.29.29 0 0 1-.12-.1.21.21 0 0 0-.15-.08 3.87 3.87 0 0 0-.67-.02c-.03 0-.04 0-.04-.03 0-.1.04-.15.12-.18l.04-.02.02-.04.06-.23a.28.28 0 0 1 .09-.08.25.25 0 0 0 .07-.07.72.72 0 0 1 .06-.09l.03-.03a.28.28 0 0 0 .15-.14c0-.02.02-.03.03-.03a.65.65 0 0 1 .2-.04Z" fill="#DEDEDE"/><path d="M8.18 12.1h.08c.04 0 .06 0 .08.02a.1.1 0 0 1 .04.09c0 .03.02.05.05.06l.22.03c.05.01.1.05.16.11.02.03.07.04.15.03.02 0 .06-.03.11-.08a.1.1 0 0 1 .04-.02l.14-.04.04-.02c.01-.01.03-.02.06-.01.02 0 .03 0 .04-.02l.1-.1a3.03 3.03 0 0 1 .24-.06c.05-.02.1-.04.14-.08a.78.78 0 0 1 .06-.05c.08-.06.13-.11.14-.16.04-.28.06-.54.03-.76a4.34 4.34 0 0 1-.05-.46c-.03-.06-.06-.1-.08-.1a1.08 1.08 0 0 1-.12-.08.7.7 0 0 0-.17-.08 1.46 1.46 0 0 1-.35-.15.43.43 0 0 0-.14-.05.52.52 0 0 1-.14-.05.32.32 0 0 0-.21-.03 3 3 0 0 0-.43.16l-.28.13a1.2 1.2 0 0 0-.35.23.06.06 0 0 0-.02.04l-.03.17c0 .36.02.71.04 1.07 0 .04.03.06.08.06.03 0 .06 0 .1.02.01 0 .02.01.02.03 0 .08.04.13.13.14l-.28-.01c-.02 0-.04-.01-.05-.03a.33.33 0 0 0-.15-.2A5.06 5.06 0 0 1 7.6 11c0-.07.02-.15.05-.23l.09-.23c.03-.1.1-.16.24-.18l.04-.01v-.01c.12-.09.21-.14.29-.17l.21-.08a.6.6 0 0 1 .14-.06l.09-.02a.58.58 0 0 1 .1-.03c.1-.01.2 0 .32.04a33.48 33.48 0 0 1 .39.17c.05.01.11.04.17.09l.16.08c.15.07.22.15.2.25l.02.04.02.03c.04.06.07.12.07.17 0 .07.02.13.03.18v.18l-.02.3a6.67 6.67 0 0 0-.15.47c-.02.03-.07.07-.16.1l-.04.03a.53.53 0 0 0-.13.07.51.51 0 0 1-.28.1 20.42 20.42 0 0 1-.3.14.42.42 0 0 1-.17.05l-.25-.01a.34.34 0 0 1-.12-.07 1.58 1.58 0 0 0-.08-.06.2.2 0 0 0-.09-.04l-.18-.01c-.04 0-.07-.03-.08-.07a.2.2 0 0 0-.04-.1c-.02-.01-.01-.02 0-.02h.04Z" fill="#9B9B9B"/><path d="m8.18 12.1-.08-.01c-.1 0-.14-.06-.13-.14 0-.02 0-.03-.02-.03a.22.22 0 0 0-.1-.02c-.05 0-.07-.02-.08-.06-.02-.36-.04-.71-.04-1.07l.03-.17.02-.04c.1-.1.22-.18.35-.23l.28-.13c.2-.1.35-.14.43-.16.06-.02.13 0 .21.03.05.03.1.04.14.05.07.01.11.03.14.05.1.06.23.11.35.15l.17.08.12.07c.02.01.05.05.08.11.02.03.03.07.03.13l.02.33c.03.22.01.48-.03.76-.01.05-.06.1-.14.16a.83.83 0 0 0-.06.05.25.25 0 0 1-.13.07 3.02 3.02 0 0 0-.25.06l-.1.11a.04.04 0 0 1-.04.02H9.3a.22.22 0 0 1-.04.03l-.14.04a.1.1 0 0 0-.04.02c-.05.05-.09.07-.11.08-.08 0-.13 0-.15-.03-.06-.06-.1-.1-.16-.1a2.44 2.44 0 0 1-.22-.04c-.03-.01-.05-.03-.05-.06 0-.04-.01-.07-.04-.1h-.08l-.08-.01Z" fill="#24356E"/><path d="M9.54 11.9a.17.17 0 0 0-.13.13c0 .03-.02.05-.06.05l-.27.02c-.05 0-.07.02-.08.07v.05c0 .02 0 .03-.02.04a.12.12 0 0 1-.13 0 .05.05 0 0 1-.03-.03l-.01-.08c0-.03-.03-.05-.06-.05l-.3-.02c-.02 0-.04-.02-.05-.05l-.02-.1c0-.02-.01-.03-.03-.03h-.13c-.02 0-.03-.02-.04-.04v-.12c0-.02-.01-.02-.03-.03a.33.33 0 0 0-.1 0c-.04 0-.06-.02-.06-.05-.02-.27-.01-.55.01-.83 0-.03.02-.06.04-.08a.3.3 0 0 1 .08-.04l.03-.03.05-.09.03-.03c.01 0 .03 0 .05-.02l.1-.05a.89.89 0 0 0 .04-.07.09.09 0 0 1 .07-.05l.28-.05c.03 0 .04-.01.04-.04 0-.04.02-.07.05-.09.02-.02.05-.02.1 0 .03.02.05.05.06.08 0 .02.02.04.05.05l.29.05c.04 0 .06.03.07.06.01.05.04.09.1.1.08.01.13.06.15.14l.01.01.12.07c.02.01.04.03.04.06v.78a.1.1 0 0 1-.06.08l-.1.05a.05.05 0 0 0-.02.04.18.18 0 0 1-.13.13Z" fill="#fff"/><path d="M9.18 11.51c.03.02.05.06.06.11 0 .05-.03.07-.1.07h-.5c-.03 0-.04 0-.04-.02v-.13c0-.02-.02-.02-.03-.02h-.1c-.02 0-.03-.01-.05-.03a.06.06 0 0 1-.02-.04V11l.01-.04c.02-.04.07-.07.14-.08.02 0 .02 0 .02-.02 0-.05.03-.09.06-.11l.04-.01h.5l.05.01c.02.03.03.06.02.1l.01.04c.01.02.03.02.04.02h.09l.03.03c.02.04.03.09.02.14 0 .01-.01.02-.03.02a.43.43 0 0 1-.14.01c-.02 0-.03 0-.03-.03v-.11c0-.04-.02-.05-.05-.05H8.7c-.07 0-.1.03-.1.1v.44c0 .03 0 .04.04.04h.53Z" fill="#24356E"/><path d="M7.97 12.75c.01.07.07.12.18.12v.04a.24.24 0 0 0-.12-.03c-.02 0-.03 0-.04.02a.06.06 0 0 0-.01.04l.04.29c0 .03.03.05.07.05h.06c.02 0 .03 0 .02.01 0 .06-.02.1-.05.12-.02.02-.05.03-.11.03h-.18c-.03 0-.05-.02-.05-.05l-.01-.08c0-.03-.03-.04-.05-.04-.36-.02-.76-.02-1.19 0-.02 0-.03.01-.03.03v.1c0 .02 0 .02-.02.03-.2.03-.38.03-.54.02-.04 0-.06-.03-.06-.07a.22.22 0 0 0-.03-.1.04.04 0 0 0-.03-.01c-.1-.01-.14-.07-.15-.17l-.02-.92a.11.11 0 0 0-.06-.1.57.57 0 0 1-.13-.1.17.17 0 0 0-.09-.05c-.1-.02-.22-.02-.36-.01-.18 0-.36 0-.53-.02-.04-.01-.06-.04-.06-.08 0-.05-.02-.08-.06-.09a.42.42 0 0 1-.13-.05c-.04-.03-.05-.07-.05-.12a.3.3 0 0 1 .18-.28l.03-.03.02-.04a.18.18 0 0 1 .05-.06.25.25 0 0 1 .1-.03c.17-.02.38-.01.64.02.1.02.18.04.24.08.23.15.4.34.48.57.01.04.03.06.05.07l.08.04c.02 0 .03.01.03.02l.03.11c0 .02.01.03.03.03.07.02.13.07.17.14.02.03.06.05.12.05l.62.05c.14.01.27.07.39.16.15.13.28.26.4.4l.04.01c.01 0 .03 0 .03-.02l.06-.1Z" fill="#9B9B9B"/><path d="M9.24 11.62c0-.05-.03-.09-.06-.1.03 0 .05-.03.05-.06v-.12l.04-.02h.14l.02.04v.13l-.05.02H9.3l-.04.02c-.02.02-.03.05-.02.1Z" fill="#1C3D71"/><path d="m13.17 12.12.03.07c.01.06-.01.09-.09.1a4.2 4.2 0 0 1-.27.04l-.08.1-.04.01h-.01c-.24.04-.41.05-.5.02a.05.05 0 0 1-.04-.02c-.04-.06-.03-.11.04-.15.06-.03.18-.05.35-.07a3.24 3.24 0 0 0 .15-.08.66.66 0 0 1 .26-.07c.05-.01.1-.04.14-.1l.03-.03a.23.23 0 0 0 .1-.12.1.1 0 0 1 .07-.07c.05-.02.08 0 .09.07l-.01.22c-.01.04-.04.06-.08.07l-.09-.02c-.06-.05-.07-.04-.05.03ZM11.83 12.28a.7.7 0 0 0-.1.12c-.04.04-.13.07-.27.1h-.06c-.03.01-.07.05-.1.1 0 .02-.01.03-.03.04l-.1.05a6.66 6.66 0 0 1-.07.33.17.17 0 0 1-.08.05c-.06.02-.1.05-.12.1a.13.13 0 0 1-.12.1c-.04 0-.06.03-.07.07l-.03.09c0 .01-.01.02-.03.02-.09.01-.14.05-.16.14 0 .01 0 .02-.02.03a.4.4 0 0 1-.19.05c-.08 0-.14-.01-.17-.06-.02-.02 0-.06.03-.1l.06-.06a.34.34 0 0 0 .06-.12.34.34 0 0 1 .03-.08.8.8 0 0 0 .15-.28c.01-.04.04-.09.1-.16.07-.08.21-.22.43-.41a.17.17 0 0 0 .04-.07l.03-.03c.1-.05.2-.07.31-.05.16.02.3.01.4-.03 0 .02.03.04.08.06Z" fill="#9B9B9B"/><path d="m10.12 13.06-.07.33c0 .04-.03.07-.08.06H9.9c-.02 0-.03 0-.03.03l-.01.1c0 .01 0 .02-.02.03a.17.17 0 0 1-.1.03c-.05 0-.07.02-.07.06v.1l-.04.03c-.34.02-.67.02-1-.01-.01 0-.02-.01-.02-.03v-.1c-.01-.02-.03-.04-.06-.04a.27.27 0 0 1-.12-.03 7.6 7.6 0 0 0-.05-.27c0-.08-.05-.11-.12-.11-.03 0-.05-.02-.06-.05l-.05-.28v-.04c.06 0 .1.02.14.05l.36.3a16.52 16.52 0 0 0 1.14.03.6.6 0 0 0 .1-.11c.03-.04.1-.06.23-.08Z" fill="#DEDEDE"/><defs><linearGradient id="a" x1="9" y1="0" x2="9" y2="18" gradientUnits="userSpaceOnUse"><stop stop-color="#10294C"/><stop offset=".32" stop-color="#02A3DE"/><stop offset=".51" stop-color="#BDE4EB"/><stop offset=".67" stop-color="#02A3DE"/><stop offset="1" stop-color="#10294C"/></linearGradient></defs></svg>