<!-- by TradingView --><svg width="18" height="18" viewBox="0 0 18 18" xmlns="http://www.w3.org/2000/svg"><path fill="url(#a)" d="M0 0h18v18H0z"/><path d="M13.2 6.19h-2.95L14 9.86a4.94 4.94 0 0 1-1.2 2.45l-2.5-2.45c.17-.25.27-.54.27-.86A1.61 1.61 0 0 0 8.1 7.7L5.6 5.25a5.14 5.14 0 0 1 7.6.94Zm-8.05-.5 2.5 2.45c-.17.25-.27.54-.27.86 0 .86.71 1.56 1.6 1.56.32 0 .62-.1.87-.26l2.5 2.45a5.14 5.14 0 0 1-7.6-.94h3.27L4 7.88c.2-.83.6-1.57 1.15-2.19Z" fill="url(#b)"/><defs><linearGradient id="a" x1="3.35" y1="3.12" x2="21.9" y2="24.43" gradientUnits="userSpaceOnUse"><stop stop-color="#1A1E21"/><stop offset="1" stop-color="#06060A"/></linearGradient><linearGradient id="b" x1="5.28" y1="5.25" x2="11.18" y2="13.18" gradientUnits="userSpaceOnUse"><stop stop-color="#07E6F5"/><stop offset="1" stop-color="#3442DC"/></linearGradient></defs></svg>