<!-- by TradingView --><svg width="18" height="18" viewBox="0 0 18 18" xmlns="http://www.w3.org/2000/svg"><path fill="#F0F3FA" d="M0 0h18v18H0z"/><path d="m11.26 4.6.06-.08h.03l.03.1.04.08c.05.07.08.15.1.21 0 .06.03.1.06.16l.07.23c0 .03.04.1.1.2.02.05.05.1.06.16l.06.16.06.15.04.12.18.32.09.2c.03.1.06.17.1.22.02.05.07.13.14.1.06-.03.08-.08.07-.15a.89.89 0 0 0-.14-.35.45.45 0 0 1-.03-.09.3.3 0 0 0-.04-.07 1.1 1.1 0 0 1-.13-.27.58.58 0 0 0-.05-.12.42.42 0 0 1-.06-.13.59.59 0 0 0-.07-.17.92.92 0 0 1-.1-.28l-.06-.15L11.8 5a.45.45 0 0 0-.06-.15c-.05-.1-.1-.2-.13-.33a.98.98 0 0 0-.06-.16.54.54 0 0 1-.05-.17c0-.08-.02-.1-.07-.13l-.02-.02c-.11-.09-.15-.02-.2.08l-.05.1c-.04.08-.08.15-.1.23a8.76 8.76 0 0 0-.35.63c-.03.03-.06.07-.08.12a.56.56 0 0 1-.08.15l-.07.12a4.5 4.5 0 0 0-.29.46 14.9 14.9 0 0 0-.19.34 21.56 21.56 0 0 0-1.41.02 3.93 3.93 0 0 0-.67.16.4.4 0 0 0-.2.12c-.04.04-.06.07-.02.13l.08.09h.02c.12-.04.19-.08.22-.1.17-.08.39-.11.55-.12a169.2 169.2 0 0 0 1.22-.02l.11.01c.11.01.18.02.25 0l.02-.01a.6.6 0 0 1 .1-.24l.1-.16a2.92 2.92 0 0 1 .26-.44l.06-.09a.3.3 0 0 0 .06-.1.55.55 0 0 1 .1-.2.48.48 0 0 0 .08-.12.79.79 0 0 1 .08-.14l.05-.1a.85.85 0 0 1 .06-.1c.05-.08.1-.17.13-.26ZM5.78 4.84a33.55 33.55 0 0 1 1.28 1.54 5.4 5.4 0 0 1 .27.37c.06.02.1.01.16-.02l.01-.02c.03-.13-.05-.24-.13-.33A47.36 47.36 0 0 0 5.8 4.51c-.12.04-.18.07-.2.1l-.15.2c-.07.12-.13.23-.17.33l-.07.14-.05.11a1 1 0 0 1-.07.13c-.04.05-.08.11-.09.17a1.2 1.2 0 0 1-.08.22l-.05.15a.8.8 0 0 1-.06.16c-.05.09-.08.18-.1.27l-.08.19-.05.16c-.02.06-.03.12-.06.17-.04.1-.19.45-.07.54.07.04.15 0 .2-.06.03-.04.04-.14.05-.23l.01-.07c.01-.07.05-.17.11-.3a.6.6 0 0 0 .04-.1l.03-.12.05-.12A.56.56 0 0 0 5 6.4c.01-.05.05-.14.12-.26L5.16 6l.05-.15a37.36 37.36 0 0 0 .17-.35c.05-.07.1-.2.18-.36.04-.1.1-.15.14-.22a3.25 3.25 0 0 0 .08-.08ZM12.8 11.17a.43.43 0 0 1 .13-.09.96.96 0 0 0 .36-.26c.08-.07.16-.16.24-.27a1 1 0 0 0 .16-.3c.06-.18.1-.29.1-.33v-.2c-.01-.12-.05-.26-.08-.37l-.04-.16a.72.72 0 0 0-.06-.2 14.44 14.44 0 0 0-.53-.94 4.77 4.77 0 0 1-.2-.32l.01-.03.1-.1.02-.01h.03l.23.3a14.92 14.92 0 0 1 .45.78c.05.08.09.15.12.24a3 3 0 0 0 .05.14 6.06 6.06 0 0 1 .1.57c.02.2 0 .4-.03.61-.02.1-.06.2-.11.3l-.23.34c-.07.09-.18.19-.33.3a.8.8 0 0 1-.12.07.92.92 0 0 0-.14.09l-.16.1c-.02 0-.04.02-.06.04-.02 0-.04.02-.05.03h-.05a.06.06 0 0 1-.03-.03.25.25 0 0 1 0-.22l.01-.02h.02c.03-.02.06-.02.09-.06ZM5.24 11.8a1.77 1.77 0 0 1-.58-.62c-.12-.2-.22-.41-.3-.62a.8.8 0 0 1-.07-.24l-.05-.58c-.01-.07 0-.15.01-.25.03-.12.04-.27.04-.43 0-.05.02-.1.03-.14a67.9 67.9 0 0 1 .19-.47c.06-.1.1-.19.07-.3 0-.02 0-.02-.02-.03-.11-.02-.2.02-.23.13a4 4 0 0 1-.14.31 2.8 2.8 0 0 0-.19.88v.75c0 .05.03.12.06.21l.06.18.05.18c.11.24.23.45.35.65.14.22.31.4.52.56.07.06.14.08.22.06.05 0 .07-.03.07-.07a.17.17 0 0 0-.09-.16Z" fill="#010101"/><path fill-rule="evenodd" d="M8.8 10.86v-.25l.01-.01a5.9 5.9 0 0 1 .24-.03 6.39 6.39 0 0 1 1.35-.07l.08.41c0 .05.03.08.08.07h.02c.06 0 .08-.02.08-.08l-.02-.58v-.02h-.02a.2.2 0 0 1-.1-.04c-.04-.03-.06-.04-.1-.04h-.02l-.02-.02a65.9 65.9 0 0 1-.02-1.21c0-.09-.01-.23-.04-.34a6.4 6.4 0 0 1-.1-.52l-.04-.01c-.2 0-.4 0-.56.02l-.2.02c-.13 0-.25.01-.35.03l-.03.02v.02c-.02.1-.02.2-.02.3v1.22c0 .08-.01.16-.05.23-.05.1-.05.2-.06.29v.02h-.02a26.51 26.51 0 0 1-.27.02.06.06 0 0 0-.04.05.46.46 0 0 0-.02.1 5.32 5.32 0 0 0 .09.58l.01.02h.03a.05.05 0 0 0 .04 0c.05-.05.07-.12.07-.2Zm.39-.72c0 .03-.02.06-.03.07a.2.2 0 0 0-.03.03c-.02.03-.01.04.02.05a3.57 3.57 0 0 0 .72-.05h.3v-.01a155.78 155.78 0 0 0-.07-1.34 4.56 4.56 0 0 1-.05-.5.03.03 0 0 0-.03-.02c-.13.03-.25.04-.37.05a31.42 31.42 0 0 1-.43.04 46.42 46.42 0 0 1 .04 1.2l-.07.48ZM12.31 9.25a.18.18 0 0 0-.04.05c-.02.03-.04.06-.07.07-.16.05-.28.02-.44-.01h-.01a.1.1 0 0 1-.04-.03 7.36 7.36 0 0 1-.15-.3c-.09-.18-.02-.34.05-.5l.03-.05c0-.02.02-.04.04-.05l.13-.06a.35.35 0 0 1 .27-.05c.08.02.2.13.26.2.08.1.1.32.07.44l-.04.2c0 .06-.02.07-.06.09Zm-.11-.26c-.01.04-.05.07-.1.1a.87.87 0 0 0-.03.03c-.05.04-.15 0-.2-.03a.2.2 0 0 1-.08-.12.49.49 0 0 1 .05-.34c.05-.02.1-.03.18-.02.06 0 .1.04.13.08l.03.04c.05.06.03.19.02.26ZM6.76 9.34a.56.56 0 0 0 .14.3l.02.02a.46.46 0 0 0 .58.02c.04-.03.06-.04.08-.1l.07-.27a.7.7 0 0 0-.14-.5.21.21 0 0 0-.12-.08.72.72 0 0 0-.3 0h-.01c-.05 0-.14.02-.17.05a.6.6 0 0 0-.15.56Zm.6-.3A.53.53 0 0 1 7.3 9c-.02-.04-.06-.05-.1-.05-.11.02-.18.08-.2.2-.01.13.01.27.1.35.05.03.14.07.18.03l.14-.2c.04-.05.04-.1.02-.18a.32.32 0 0 0-.08-.1Z" fill="#010101"/><path d="m6.02 12.34-.13-.08-.15-.1-.16-.1a.12.12 0 0 0-.1-.03s-.02 0-.02.02l-.01.03c0 .04.01.07.05.1l.09.09.34.22.1.07c.08.06.15.1.26.06h.01l.01-.01a.16.16 0 0 0 0-.1.03.03 0 0 0-.02-.03.96.96 0 0 0-.04-.01l-.11-.05a1.22 1.22 0 0 0-.12-.08ZM11.65 12.26l.2-.12.1-.08h.02c.05-.05.14-.04.2 0a.04.04 0 0 1 0 .05.82.82 0 0 1-.22.18l-.14.1-.14.09-.15.1a.94.94 0 0 1-.14.08 1.86 1.86 0 0 0-.17.08 3 3 0 0 0-.28.13l-.23.1a1.4 1.4 0 0 0-.14.04l-.18.07h-.01c-.19.04-.33.07-.49.14a.44.44 0 0 1-.15.04c-.1 0-.21.01-.36.04-.3.07-.57.08-.81.03a3.53 3.53 0 0 0-.6-.08.5.5 0 0 1-.17-.04 1.22 1.22 0 0 0-.16-.06c-.04 0-.07-.02-.1-.03-.08-.02-.15-.04-.23-.04a.87.87 0 0 1-.25-.07 1 1 0 0 0-.3-.07h-.03c-.05 0-.09-.03-.1-.08-.01-.06 0-.09.06-.09h.2a17.54 17.54 0 0 0 .44.12l.16.05a1.16 1.16 0 0 1 .43.1c.07.03.15.03.25.04a4.66 4.66 0 0 1 .35.03 2.97 2.97 0 0 0 .78-.01l.37-.03c.04 0 .11-.03.22-.07a.67.67 0 0 1 .17-.04l.18-.04c.17-.08.3-.13.43-.15a.79.79 0 0 0 .18-.08l.1-.04.15-.06c.06-.04.12-.08.18-.1a2.33 2.33 0 0 0 .25-.15l.13-.08ZM13.53 12.35c.07.02.13-.02.18-.13a1.64 1.64 0 0 1-.16-.03.7.7 0 0 0-.16-.03c-.1 0-.24-.03-.41-.07a1.34 1.34 0 0 0-.54-.02c-.04 0-.07.04-.07.09 0 .05.02.08.06.07.25-.03.49-.01.71.06l.2.04.2.02ZM6.07 14c-.07 0-.12-.02-.17-.09 0-.17.02-.32.07-.45a.86.86 0 0 0 .05-.2c0-.06.02-.13.04-.18a.78.78 0 0 0 .1-.28l.01-.02a.15.15 0 0 1 .12-.03l.02.01c.02.13-.02.2-.06.3a1.08 1.08 0 0 0-.1.34v.06l-.04.26-.04.28Z" fill="#010101"/></svg>