<!-- by TradingView --><svg width="18" height="18" viewBox="0 0 18 18" xmlns="http://www.w3.org/2000/svg"><path fill="#F0F3FA" d="M0 0h18v18H0z"/><path d="M7 3h4v1h2v.5h.5V5h.5v2h1v4h-1v2h-.5v.5H13v.5h-2v1H7v-1H5v-.5h-.5V13H4v-2H3V7h1V5h.5v-.5H5V4h2V3Zm.5 1v.5h-2V5H5v.5h-.5v2H4v3h.5v2H5v.5h.5v.5h2v.5h3v-.5h2V13h.5v-.5h.5v-2h.5v-3h-.5v-2H13V5h-.5v-.5h-2V4h-3Z" fill="#352B1C"/><path d="M7.5 4h3v.5h-3V4ZM5.5 4.5h2V5h-2v-.5ZM5.5 13h2v.5h-2V13ZM7.5 13.5h3v.5h-3v-.5ZM10.5 13h2v.5h-2V13ZM10.5 4.5h2V5h-2v-.5ZM12 5h1v1h-1zM5 5h1v1H5zM5 12h1v1H5zM12 12h1v1h-1zM4.5 5.5H5v2h-.5v-2ZM4.5 10.41H5v2.09h-.5v-2.09ZM13 10h.5v2.5H13V10ZM4 7.5h.5v3H4v-3ZM13.5 7.5h.5v3h-.5v-3ZM13 5.5h.5V8H13V5.5Z" fill="#F0BA15"/><path d="M4.5 10.41V7.5H5V6h1V5h1.5v-.5h3V5H12v1h1v2h.5v2H13v2h-1v1h-1.5v.5h-3V13H6v-1H5v-1.59h-.5Z" fill="#FFDD52"/><path d="M7.5 6H6.37v1.88H6v3h.38v.37H7V12h4v-.75h.63v-.38H12v-3h-.38V6H10.5v.75h-3V6Z" fill="#312A1D"/><path d="M8 7H7v1h-.5v2.5H7v.5h4v-.5h.5V8H11V7h-1v.5H8V7Z" fill="#B6A28D"/><path d="M6.5 10H7v.5h-.5V10ZM11 10h.5v.5H11V10ZM7 11h4v.5H7V11Z" fill="#574B41"/><path d="M8 7H7v1h.5v-.5H8V7ZM10 7h1v1h-.5v-.5H10V7Z" fill="#6B5C53"/><path d="M10 8.5h.5V9H10v-.5ZM7.5 8.5H8V9h-.5v-.5ZM8.65 9.59v-.35h-.18v.17H8v1.06h.3v.18h.35v.17L9 11l.35-.18v-.17h.36v-.18H10V9.41h-.47v-.17h-.18v.35h.36v.7h-.36V10h-.7v.3h-.36v-.71h.36Z" fill="#312A1D"/></svg>