<!-- by TradingView --><svg width="18" height="18" viewBox="0 0 18 18" xmlns="http://www.w3.org/2000/svg"><path fill="url(#a)" d="M0 0h18v18H0z"/><path fill-rule="evenodd" d="M12.14 5.1a.1.1 0 0 0 .09.02l1.38-.36a.02.02 0 0 1 .02 0v.02l-.4 1.48a.14.14 0 0 0 .02.1 5 5 0 1 1-1.1-1.25ZM13 9a4 4 0 1 1-8 0 4 4 0 0 1 8 0Zm-.57.03v-.07l-.03-.01c-.52-.02-1.12-.18-1.26-.75L11 7.58c-.02-.13-.06-.21-.1-.24-.17-.14-.28.06-.3.21l-.07.59c-.03.25-.2.63-.53.46a.41.41 0 0 1-.22-.26 4.83 4.83 0 0 1-.15-.97L9.57 6.1c-.01-.13-.11-.31-.27-.18-.04.04-.06.1-.07.21l-.11 1.22a.38.38 0 0 1-.08.19.05.05 0 0 1-.08 0 .88.88 0 0 1-.11-.32l-.1-.57c-.03-.22-.3-.18-.3.03-.04.5-.1.96-.17 1.4-.02.14-.2.96-.49.64-.19-.2-.27-.57-.34-.87l-.01-.05c-.04-.14-.18-.4-.36-.22-.04.04-.07.12-.1.24l-.1.51c-.04.17-.1.44-.25.52-.09.04-.23.07-.45.09a6.7 6.7 0 0 1-.6.03L5.55 9l.01.04c.01 0 .02.02.04.01.18 0 .37 0 .57.02.22.01.36.04.45.09.15.08.21.35.25.5l.1.53c.03.12.06.2.1.24.19.18.33-.08.36-.23v-.05c.08-.3.16-.67.35-.87.3-.32.47.5.49.64.07.44.13.9.17 1.4.01.21.28.25.31.03l.1-.57a.88.88 0 0 1 .1-.31.05.05 0 0 1 .09 0c.04.04.06.1.07.18l.11 1.22c.01.1.04.18.07.2.17.14.26-.04.27-.17l.08-1.27c.01-.33.06-.69.14-.97.03-.11.1-.2.22-.26.33-.17.5.21.53.46 0 .09.03.28.07.59.02.15.13.35.3.21.05-.03.08-.11.1-.25l.13-.62c.14-.56.74-.72 1.26-.74l.03-.02Z" fill="#fff"/><defs><linearGradient id="a" x1="0" y1="9" x2="18" y2="9" gradientUnits="userSpaceOnUse"><stop stop-color="#000602"/><stop offset="1" stop-color="#0AC159"/></linearGradient></defs></svg>