<!-- by TradingView --><svg width="18" height="18" viewBox="0 0 18 18" xmlns="http://www.w3.org/2000/svg"><path fill="url(#ab22qkgqe)" d="M0 0h18v18H0z"/><path fill-rule="evenodd" d="M9 13.06a4.06 4.06 0 1 0 0-8.12 4.06 4.06 0 0 0 0 8.12ZM9 14A5 5 0 1 0 9 4a5 5 0 0 0 0 10Z" fill="url(#bb22qkgqe)" fill-opacity=".5"/><path fill-rule="evenodd" d="M9 13.38a4.38 4.38 0 1 0 0-8.76 4.38 4.38 0 0 0 0 8.75Zm0 .3a4.69 4.69 0 1 0 0-9.37 4.69 4.69 0 0 0 0 9.38Z" fill="#F6DCFF"/><defs><linearGradient id="ab22qkgqe" x1="3.35" y1="3.12" x2="21.9" y2="24.43" gradientUnits="userSpaceOnUse"><stop stop-color="#1A1E21"/><stop offset="1" stop-color="#06060A"/></linearGradient><linearGradient id="bb22qkgqe" x1="6.5" y1="5.25" x2="12.44" y2="12.44" gradientUnits="userSpaceOnUse"><stop stop-color="#8A12FF"/><stop offset=".47" stop-color="#1600D3"/><stop offset="1" stop-color="#00B7B7"/></linearGradient></defs></svg>