<!-- by TradingView --><svg width="18" height="18" viewBox="0 0 18 18" xmlns="http://www.w3.org/2000/svg"><path fill="#F0F3FA" d="M0 0h18v18H0z"/><circle cx="9" cy="9" r="6" fill="url(#a)"/><ellipse cx="9" cy="8.98" rx="5.65" ry="5.63" fill="url(#b)"/><ellipse cx="9" cy="9" rx="5.49" ry="5.5" fill="url(#c)"/><circle cx="9" cy="9" r="4" fill="url(#d)"/><path d="m9.05 3.7.13.4h.42l-.34.24.13.4-.34-.25-.33.24.13-.4-.34-.23h.42l.12-.4Z" fill="#FEE370"/><path d="m9.05 13.24.13.39h.42l-.34.24.13.4-.34-.25-.33.24.13-.39-.34-.24h.42l.12-.4Z" fill="#D88D21"/><path d="m3.7 9.04.4-.13V8.5l.24.33.4-.13-.25.34.25.33-.4-.13-.24.34v-.41l-.4-.13Z" fill="#FCF2BD"/><path d="m13.26 9.04.4-.13V8.5l.24.33.4-.13-.25.34.24.33-.39-.13-.24.34v-.41l-.4-.13Z" fill="#E69A28"/><path d="m3.89 10.42.34-.23-.1-.4.32.27.35-.23-.15.39.32.26-.41-.03-.15.39-.1-.4-.42-.02Z" fill="#FEDA6C"/><path d="m13.12 7.95.35-.22-.1-.4.31.26.35-.23-.15.39.32.26-.41-.02-.15.38-.1-.4-.42-.02Z" fill="#E8A227"/><path d="m4.42 11.7.28-.3-.2-.36.37.17.28-.3-.05.4.38.17-.4.09-.05.4-.2-.35-.4.09Z" fill="#F2AE23"/><path d="m12.7 6.94.28-.3-.21-.36.38.16.28-.3-.05.4.38.17-.4.1-.05.4-.2-.36-.41.09Z" fill="#FDCB34"/><path d="m5.27 12.81.19-.37-.3-.29.42.07.18-.37.07.4.4.07-.36.19.06.4-.29-.29-.37.19Z" fill="#DA8B22"/><path d="m12.03 6.07.19-.37-.3-.29.42.06.18-.36.07.4.4.07-.36.19.06.4-.29-.29-.37.19Z" fill="#FEEEC0"/><path d="m6.38 13.66.09-.4-.36-.21.4-.05.1-.4.16.38.42-.05-.31.28.17.38-.36-.2-.31.27Z" fill="#FFC237"/><path d="m11.16 5.4.09-.4-.36-.2.4-.05.1-.4.16.37.41-.04-.3.28.17.37-.36-.2-.31.27Z" fill="#FED568"/><path d="m7.67 14.2-.02-.42-.4-.1.38-.16-.02-.4.26.31.39-.15-.23.35.26.32-.4-.1-.22.34Z" fill="#EEB62D"/><path d="m10.14 4.98-.02-.4-.4-.12.39-.14-.02-.42.26.32.38-.14-.22.34.26.32-.4-.1-.23.34Z" fill="#FFD24B"/><path d="m3.89 7.66.41-.02.1-.4.16.38.4-.02-.31.26.15.39-.35-.23-.32.26.1-.4-.34-.22Z" fill="#FDCE45"/><path d="m13.12 10.13.41-.03.11-.4.15.39.41-.02-.32.26.15.38-.35-.22-.32.26.1-.4-.34-.22Z" fill="#F8C934"/><path d="m4.42 6.37.4.09.21-.36.05.41.4.09-.38.16.05.41-.28-.3-.38.17.2-.36-.27-.3Z" fill="#FAD54B"/><path d="m12.7 11.14.4.08.21-.35.05.4.4.1-.38.16.05.41-.28-.3-.38.16.2-.36-.27-.3Z" fill="#E9992D"/><path d="m5.27 5.27.37.18.3-.29-.07.41.37.19-.41.06-.07.4-.18-.36-.41.07.29-.3-.19-.36Z" fill="#FDE676"/><path d="m12.03 12 .37.2.3-.3-.07.41.37.19-.41.06-.07.41-.18-.37-.41.07.29-.3-.19-.36Z" fill="#DF8C22"/><path d="m6.38 4.42.3.27.37-.2-.17.38.3.27-.4-.04-.17.38-.1-.4-.4-.05.36-.2-.09-.41Z" fill="#FDED85"/><path d="m11.16 12.67.3.28.37-.2-.17.37.3.28-.4-.05-.18.38-.08-.4-.41-.05.36-.2-.1-.4Z" fill="#E09C2B"/><path d="m10.14 13.1.23.34.4-.1-.26.31.22.35-.38-.15-.26.32.02-.4-.39-.16.4-.1.02-.42Z" fill="#D9D9D9"/><path d="m7.67 3.89.23.34.4-.1-.27.32.23.34-.39-.15-.26.33.02-.42-.38-.15.4-.1.02-.41Z" fill="#FFEC8D"/><path d="m10.14 13.1.23.34.4-.1-.26.31.22.35-.38-.15-.26.32.02-.4-.39-.16.4-.1.02-.42Z" fill="#DA9724"/><ellipse cx="9" cy="9" rx="3.72" ry="3.73" fill="url(#e)"/><path d="m6.85 5.96 1 .05c.06 0 .11.03.15.08.1.12.24.26.4.42.06.06.1.13.12.2L8.3 7.98c-.02.12-.05.2-.09.24l.26-1.49a.02.02 0 0 0 0-.02.02.02 0 0 0-.02 0l-1.53-.03c-.04 0-.08.01-.11.03 0-.03-.03-.05-.07-.07l1.62.02.02-.01v-.02a.02.02 0 0 0 0-.01h-.02l-.77-.03c-.14 0-.27 0-.4-.03l-.39-.05c-.06 0-.14-.03-.2-.06l-.1-.13a.03.03 0 0 0-.03-.01.14.14 0 0 0-.08.03c.15-.14.3-.27.47-.38Z" fill="#C39542"/><path d="m6.58 6.45.1.16v.03a16.3 16.3 0 0 0-.04.64c.01 0 .02 0 .02-.02l.07-.62c.04.02.06.04.07.07l-.14 1.06-.04.42c-.02.1-.04.1-.08.01l-.2-.41.1.17c.01.02.02.02.01 0l-.05-.39a.04.04 0 0 1 .01-.04.23.23 0 0 0 .09-.2c0-.01 0-.02-.02-.02l-.03-.01a.03.03 0 0 1-.03-.02v-.04l.02-.01a.1.1 0 0 0 .04 0l.02-.02-.04-.27c0-.01 0-.02.02-.02.04-.01.06-.04.04-.1H6.5l-.01.01h-.02V6.8c.02-.1.03-.2.02-.31 0-.02-.01-.03-.04-.05l-.01-.03.03-.06v-.02h-.04a.42.42 0 0 1-.1.09l.05-.07a.14.14 0 0 1 .08-.03l.03.01.1.13Z" fill="#C4792C"/><path d="M6.33 7.79a9.37 9.37 0 0 1-.13-.25c-.04-.09-.02-.25 0-.34a8.05 8.05 0 0 0 .04-.61c.01-.07.03-.13.06-.16l.02-.02a.42.42 0 0 0 .11-.08l.02-.01h.01v.02a.14.14 0 0 0-.02.06l.01.03c.03.02.04.03.04.05.01.1 0 .21-.02.31v.04h.02l.01-.01h.02c.02.06 0 .09-.04.1-.02 0-.02 0-.02.02l.04.27-.02.02h-.04l-.02.01v.04l.01.01h.02l.03.02c.01 0 .02 0 .02.02 0 .09-.03.16-.09.2a.04.04 0 0 0-.01.04l.05.39c0 .02 0 .02-.01 0l-.1-.17Z" fill="#9C5F23"/><path d="m6.73 6.64-.07.62c0 .02 0 .02-.02.02v-.01l-.01-.02a16.32 16.32 0 0 1 .04-.64l-.09-.16c.07.03.15.06.21.06l.4.05a55.28 55.28 0 0 1 1.18.07v.02H6.73Z" fill="#EDAE4A"/><path d="M8.2 8.22c-.29.03-.57.03-.86.01l-.67.01-.01-.01v-.46L6.8 6.7a.22.22 0 0 1 .11-.03 64.66 64.66 0 0 0 1.55.04v.01l-.26 1.5Z" fill="#FEE445"/><path d="M11.52 7.64a.3.3 0 0 0 0 .14l-.06-.14c0-.02-.02-.02-.04-.02a239.78 239.78 0 0 1-1.24.57c-.18.1-.37.18-.58.24l-.08.04a.11.11 0 0 0-.04.05.1.1 0 0 0-.04-.01l-.15-.03c.18-.06.35-.12.52-.2a363.02 363.02 0 0 1 1.54-.7l.1-.04h.02c.03.03.04.06.05.1Z" fill="#EDAE4A"/><path d="m11.51 7.78.24.95c.01.1.01.19 0 .28-.02.15-.13.21-.26.29h-.04a.07.07 0 0 1-.03-.03.06.06 0 0 0-.02-.03l-.2-.1-.18-.02-.12-.41c-.02-.04.02-.05.11-.05.05.04.1.09.14.16.01.02.03.02.05.01h.01V8.8l-.04-.31c0-.02 0-.02-.02-.03l-.18-.02c-.07.03-.12.03-.13.01l-.03-.12c0-.02-.02-.03-.04-.02l-.05.03c-.02 0-.03.02-.02.04l.05.13c0 .03-.04.07-.09.11a1.39 1.39 0 0 0-.48-.44l.19-.1c.34-.15.7-.3 1.05-.47.02 0 .03 0 .04.02l.05.14Z" fill="#FEBD53"/><path d="m11.52 7.64.52 1.9.16.65v.01h-.01l-.04-.02-.01-.02c-.15-.5-.3-.93-.4-1.43l-.23-.95.01-.14Z" fill="#AE6A26"/><path d="M10.66 8.63a.78.78 0 0 0-.1.64c.05.18.1.3.24.43-.2.1-.36.22-.49.36l-.02.1v.32l-.02-.03-.03-.55a2.4 2.4 0 0 0-.64-1.47c.2-.06.4-.14.58-.24.2.1.36.26.48.44Z" fill="#FEDE5E"/><path d="M10.84 8.46a.16.16 0 0 1-.09.06l-.05-.13c0-.02 0-.03.02-.04l.05-.03c.02 0 .03 0 .04.02l.03.12Z" fill="#6F451A"/><path d="M9.6 8.43c.4.39.58.93.64 1.47l.03.55c-.05-.26-.15-.56-.21-.77a6.35 6.35 0 0 0-.33-.9.04.04 0 0 0-.03.04l.02.17-.1-.3a.02.02 0 0 0-.01 0 .02.02 0 0 0-.02 0v.04l-.07-.26.08-.04Z" fill="#FFF770"/><path d="m10.97 8.45.04.1c.02.04 0 .07 0 .11-.1 0-.13.01-.1.05-.1 0-.14.01-.11.04-.07 0-.1.02-.11.08v.01a.03.03 0 0 0 .03.02l.01.02c0 .1.02.17.05.23 0 .01.01.02.03.02.06.03.1.03.1 0l.07.02c.02 0 .03 0 .04-.03l.17.01h-.06c-.02.02-.02.02 0 .03.1.05.15.13.17.23v.02l-.01.01-.43.26c-.03.01-.03.02.01.03h.02a.1.1 0 0 1-.09-.01.74.74 0 0 1-.24-.43.78.78 0 0 1 .1-.64c.05-.04.08-.08.1-.11l.08-.06c.01.02.06.02.13 0Z" fill="#9F783E"/><path d="M11.01 8.66c0-.04.02-.07 0-.11a.77.77 0 0 0-.04-.1l.18.02c.01 0 .02.01.02.03l.05.3a.02.02 0 0 1-.02.03c-.02.01-.04 0-.05-.01a.6.6 0 0 0-.14-.16Z" fill="#6F451A"/><path d="m9.52 8.47.07.26-.02.03h-.02l-.02-.01a2.89 2.89 0 0 0-.03-.14l.02.13-.04-.22a.11.11 0 0 1 .04-.05Z" fill="#FFCD5A"/><path d="m9.3 8.48.14.03.07.41.32 1.37c.06.26.2.49.43.69l.2.67v.08l.02.01-.83-.06-.1-.95c0-.01 0-.02-.02-.02a.47.47 0 0 0-.18-.05c-.05 0-.07-.03-.07-.09v-.03l.03-.01h.02c.02 0 .04 0 .04.03.01.04.03.06.06.07a1.45 1.45 0 0 0 .17.03.02.02 0 0 0 .01-.02.7.7 0 0 0-.03-.15.5.5 0 0 0-.1-.13.4.4 0 0 1-.08-.16c.04.05.08.1.13.12h.02v-.01l.01-.01c0-.06-.03-.1-.05-.16.03-.03.03-.06 0-.08a4.84 4.84 0 0 0-.22-.33.78.78 0 0 1-.12-.2 5.77 5.77 0 0 1-.17-.7c0-.08.02-.13.04-.16.05-.05.08-.1.08-.16l.17-.03Z" fill="#DC8933"/><path d="m9.48 8.52.04.22-.02-.13c0-.05 0-.05 0 0l.03.14.07.25c.11.34.2.69.27 1.04l.05.18-.02-.14v-.01h.04l.07.11.25.8c-.23-.2-.37-.43-.43-.7l-.32-1.36a2.76 2.76 0 0 1-.07-.41.1.1 0 0 1 .04.01Z" fill="#FDAB40"/><path d="M9.12 8.51c0 .05-.03.1-.08.16-.02.03-.03.08-.04.15a5.77 5.77 0 0 0 .17.7c.02.07.06.14.12.21l.21.33c.01.02.02.05.01.08l-.07.03c-.25-.01-.5 0-.76.05a7.3 7.3 0 0 0-.24-.03h-.1c-.05.02-.13.04-.15-.02v-.06l.02-.02c.05-.02.07-.05.05-.1a.66.66 0 0 0-.1-.17.02.02 0 0 0-.02 0v.01l-.02.04v-.2c-.01-.05 0-.07.05-.06l.15.03c.04.01.06.03.05.07l-.1.35v.01h.01l.29.02h.01v-.01c0-.2-.02-.35-.05-.45-.09-.28-.16-.53-.1-.76.02-.09.06-.15.11-.19a.44.44 0 0 0 .14-.1l.44-.07Z" fill="#B8732C"/><path d="M8.67 8.58a.44.44 0 0 1-.13.1c-.05.04-.1.1-.11.2-.06.22.01.47.1.75a1.7 1.7 0 0 1 .04.46l-.28-.01a.01.01 0 0 1-.01-.01l.09-.36c0-.04 0-.06-.05-.07l-.15-.03c-.04 0-.06.01-.06.05l.01.2.05.22-.01.02h-.1c-.03 0-.04 0-.03.04l.03.1.01.01h.16c.1.35.05.64-.13.86l-.12-.35-.19-.58c-.04-.2-.11-.41-.2-.62l-.22-.64v-.09l.01-.02.12-.04 1.17-.19Z" fill="#9C5F23"/><path d="m10.9 8.7.12.42c0 .02-.02.03-.04.03a.26.26 0 0 1-.07-.03l-.11-.37c-.03-.03 0-.04.1-.04Z" fill="#6F451A"/><path d="M12.04 9.54c.1.3.15.54.2.73 0 .05-.01.1-.06.14a38.03 38.03 0 0 1-1.53 1.26l-.1.05-.01-.03c.01.02.02.02.04 0l.28-.24a24.85 24.85 0 0 0 .44-.38c0-.03-.01-.04-.03-.03l.08-.07v-.02l-.26-.51v-.03c.07-.02.11-.05.15-.08l.08.16c-.02.02-.03.04-.02.06 0 .01.01.02.02.01.03 0 .05-.03.07-.07v-.02l-.01-.02h-.04v-.02c.03 0 .04-.03.03-.06a.74.74 0 0 1-.01-.1l-.02-.01h-.05.04l.03-.02c.08-.08.14-.2.17-.32a.04.04 0 0 0-.01-.03.03.03 0 0 0-.04-.01h-.01a.28.28 0 0 0 .06-.18c0-.11-.03-.24-.07-.37a.04.04 0 0 0-.02-.02c-.04-.03-.08-.02-.12-.06a9.78 9.78 0 0 1-.13-.12l.2.11.03.03.04.03h.03c.13-.08.24-.14.26-.29a.86.86 0 0 0 0-.28c.09.5.24.93.39 1.43v.02l.04.02h.01l-.15-.66Z" fill="#C4792C"/><path d="m10.8 8.75.11.37c0 .04-.04.04-.1.02a.05.05 0 0 1-.03-.03.6.6 0 0 1-.05-.22l-.01-.03a.02.02 0 0 1-.03 0 .03.03 0 0 1 0-.03c0-.06.04-.09.1-.08Z" fill="#FEDE5E"/><path d="m10.27 10.45.01.03.08.3.02.26c0 .02 0 .02 0 0h-.01l-.01-.01h-.01l-.53-1.68-.1-.36-.02-.17c0-.02 0-.03.02-.04h.01a.02.02 0 0 1 .02 0l.08.22c.1.23.17.45.23.68.06.21.16.5.21.77Z" fill="#FFE7A2"/><path d="M7.6 9.56c-.01.03-.03.04-.07.04a.01.01 0 0 0-.01.01V9.74l-.2.1a.06.06 0 0 0-.03.05.06.06 0 0 0 .01.04l.05.08c.03.03.04.03.06 0 .05-.12.1-.17.14-.15.01 0 .02 0 .02.02l.04.13v.03c-.15.1-.26.19-.19.39a.3.3 0 0 0-.2-.08l-.03-.7c0-.04-.03-.06-.08-.06h-.07c-.05 0-.08.04-.07.09v.14h.01c.04.06.07.07.09.04l-.01-.03c-.03-.03-.05-.06-.05-.1 0-.01.01-.02.02 0l.02.04h.02l.05.01v.03l.02.2v.03c-.02.03-.03.06-.01.09.02.05.01.06-.04.03-.04-.02-.05-.07-.04-.13 0-.06 0-.1-.03-.15H7a.02.02 0 0 0-.01.01l.06.49c0 .04.06.1.15.21l.02.03c0 .02 0 .02-.02.02-.06.01-.14 0-.18-.06a9.64 9.64 0 0 1-.32-1h.04c.01.02.03.03.05.02a573.63 573.63 0 0 0 .71-.2v-.02c0-.01 0-.02-.02-.02l-.21.06c.05-.03.1-.04.13-.05.06-.02.06-.03 0-.03h-.03c-.03 0-.04 0-.02-.03.06-.08.02-.26 0-.33a.04.04 0 0 0-.02-.02H7.3l-.16.04.23-.07.22.64Z" fill="#E99237"/><path d="M7.27 9.41a36.59 36.59 0 0 0-.57.17l-.2-.2c-.03-.06-.07-.08-.13-.08v-.04a.05.05 0 0 1 .02-.06l.75-.21.16-.05a.04.04 0 0 1 .05.03c.02.07.06.25 0 .33-.02.03-.01.04.02.03h.03c.06 0 .06.01 0 .03a.65.65 0 0 0-.13.05Z" fill="#BE6A28"/><path d="m9.83 9.53.12.4c-.01.05-.04.09-.08.1A8.7 8.7 0 0 0 9.6 9c.06.18.14.36.23.53Z" fill="#FEBD53"/><path d="m11.2 9.13.12.12c.04.04.08.03.12.06l.02.02c.04.13.06.26.07.37 0 .07-.02.13-.06.18-.02.08-.1.27-.18.3a.44.44 0 0 0-.07.04c-.03.02-.03.03 0 .03h.07l.05.01.02.02.01.1c.01.02 0 .04-.02.05l-.01.02-.02.04-.08-.16c-.13-.04-.2.02-.3.07a.03.03 0 0 1-.04-.02l-.05-.33a.03.03 0 0 1 0-.03.03.03 0 0 1 .03 0c.03 0 .04 0 .05.03l-.01.03h-.01l-.02.03a.04.04 0 0 0 .03.05.63.63 0 0 0 .27 0v-.02a.03.03 0 0 0 .01-.02l-.12-.38a.06.06 0 0 0-.07-.04H10.88c-.04 0-.04 0 0-.02l.42-.26v-.03a.31.31 0 0 0-.16-.23c-.02 0-.02-.01 0-.02h.06Z" fill="#6F451A"/><path d="m6.5 9.37-.03-.02h-.02c.04.09.1.16.13.22a.8.8 0 0 1 .06.16c.05.2.1.34.13.54.01.09.04.19.07.3.02.05 0 .06-.05.03a.46.46 0 0 1-.1-.12l-.31-1.13V9.3c.05 0 .09.02.12.07Z" fill="#DC8933"/><path d="m9.82 9.35.53 1.68.02.08.17.58v.03l-.06.02-.02-.01v-.08l-.2-.67-.25-.8-.06-.25-.12-.4-.04-.17v-.04l.03.03Z" fill="#9C5F23"/><path d="m6.5 9.37.2.2.05.16a9.65 9.65 0 0 0 .27.84c.04.07.12.07.18.06.01 0 .02 0 .02-.02 0 0 0-.02-.02-.03h.02v-.24a.3.3 0 0 1 .2.08c.04.11.1.13.22.13.06 0 .11.03.16.07.03.03.04.02.04-.02 0-.07 0-.11-.03-.18a.3.3 0 0 1-.02-.24l.2.58-.86.3a.1.1 0 0 1-.1-.04l-.2-.27a.63.63 0 0 1-.15-.27l.11.12c.05.03.07.02.05-.04-.03-.1-.06-.2-.07-.3-.02-.19-.08-.32-.13-.53a.8.8 0 0 0-.06-.16c-.03-.06-.1-.13-.13-.21 0-.02 0-.02.02-.01l.03.02Z" fill="#FDAB40"/><path d="M7.8 10.18a.3.3 0 0 0 .01.24c.03.07.03.1.03.18 0 .04-.01.05-.04.02a.24.24 0 0 0-.16-.06c-.12 0-.18-.03-.22-.14-.07-.2.04-.28.18-.39l.01-.01V10l-.04-.13a.03.03 0 0 0-.02-.02c-.05-.02-.1.03-.14.14-.02.04-.03.04-.06 0l-.05-.07a.06.06 0 0 1 0-.07l.02-.02.2-.1v-.11a.01.01 0 0 1 .01-.02c.04 0 .06-.01.06-.04.09.2.16.42.2.62Z" fill="#C4792C"/><path d="M7.22 10.34a3.55 3.55 0 0 1 0 .24H7.2c-.09-.1-.14-.17-.15-.21a4.24 4.24 0 0 1-.05-.5h.02a.2.2 0 0 1 .03.15c-.01.06 0 .1.04.13.05.03.06.02.04-.03-.02-.03-.01-.06 0-.1l.01-.02-.01-.2-.01-.03c-.02-.02-.03-.02-.05 0l-.02-.01a.13.13 0 0 0-.02-.04c0-.02-.02-.01-.02 0 0 .04.02.07.05.1v.03c0 .03-.04.02-.08-.03l-.01-.15c0-.05.02-.08.07-.08l.07-.01c.05 0 .07.02.08.07l.03.7Z" fill="#FEE445"/><path d="M10.9 9.7h.16l.02.04.12.38v.02a.03.03 0 0 1-.03.02.63.63 0 0 1-.25 0 .04.04 0 0 1-.04-.03v-.02l.03-.02c.02-.01.02-.02.02-.04s-.02-.03-.05-.04h-.01a.03.03 0 0 0-.02.02v.02l.05.33v.02a.03.03 0 0 0 .04 0c.1-.05.17-.1.3-.07a.29.29 0 0 1-.14.08c-.01 0-.02.01-.01.03l.26.51v.02l-.08.07-.29.23c-.34-.34-.5-.77-.67-1.21.13-.14.3-.26.5-.36a.1.1 0 0 0 .08 0Z" fill="#E99237"/><path d="M8.68 10.22c.02.02.03.03.03.05l-.01.02c-.02 0-.04 0-.06-.04h-.25a.03.03 0 0 0-.03.04l.06.07c.1.11.05.25.22.34.08.03.17.05.24.05.1 0 .1 0 0 .03-.07.02-.16 0-.27-.06a.65.65 0 0 1-.21-.18c-.06-.08-.1-.19-.17-.29h-.15a.02.02 0 0 1-.02-.01l-.03-.1c0-.03 0-.05.03-.04h.1c.01 0 .02 0 .01-.02l-.05-.21.01-.04a.02.02 0 0 1 .02-.02.02.02 0 0 1 .02.01l.1.16c.01.06 0 .1-.06.1a.03.03 0 0 0-.02.03v.06c.02.06.1.04.14.03a.21.21 0 0 1 .11-.01l.24.03Z" fill="#FFCD5A"/><path d="M11.3 10.25h-.07c-.04 0-.04-.01-.01-.03a.43.43 0 0 1 .07-.03c.09-.04.16-.23.18-.3l.01-.01a.03.03 0 0 1 .05.04.65.65 0 0 1-.17.32l-.03.02h-.04Z" fill="#FFD972"/><path d="M10.31 10.06c.17.44.33.87.67 1.2l-.35.28a.04.04 0 0 1-.06-.02l-.1-.41-.05-.14c-.06-.27-.13-.53-.13-.81l.02-.1Z" fill="#FDAB40"/><path d="M9.5 10.14c.03.05.05.1.06.16v.01a.02.02 0 0 1-.02.01h-.01a.38.38 0 0 1-.13-.12l.04-.03.07-.03Z" fill="#EDAE4A"/><path d="m9.44 10.17-.04.03a.4.4 0 0 0 .09.16l.09.13a.7.7 0 0 1 .03.16.02.02 0 0 1 0 .01h-.02l-.16-.03c-.03 0-.05-.03-.06-.07 0-.03-.02-.04-.04-.03H9.3l-.02.01c-.01.01-.02.02-.01.03 0 .06.02.1.07.1.07 0 .13.01.18.04.01 0 .02 0 .02.02l.1.95-.76-.08c.08-.32.15-.65.2-.98 0-.02 0-.03-.03-.04a1.85 1.85 0 0 0-.5 0l-.02.01c.02.04.05.07.1.1-.17-.08-.12-.22-.22-.33l.11.08h.03l.15-.07v-.02a.02.02 0 0 0 0-.03c-.03 0-.05-.03-.07-.07.02.03.04.04.06.04.01 0 .02 0 .01-.02a.13.13 0 0 0-.03-.05c.25-.05.5-.06.76-.05Z" fill="#C4792C"/><path d="M8.64 10.25c.02.04.04.06.07.07a.02.02 0 0 1 0 .03c.01 0 0 0 0 0v.02l-.15.07h-.03l-.11-.08-.06-.07a.03.03 0 0 1 0-.03.03.03 0 0 1 .03-.01h.25Z" fill="#AE6A26"/><path d="M8.64 10.7a.38.38 0 0 1-.1-.1l.01-.03c.18-.02.35-.01.5.01.03 0 .04.02.04.04-.05.33-.12.66-.2.98l-.59-.06a.1.1 0 0 1-.08-.07l-.12-.36c.18-.22.23-.51.13-.86.06.1.1.21.17.29.07.08.14.15.21.19.11.05.2.07.28.05.09-.02.08-.03 0-.03a.59.59 0 0 1-.25-.05Z" fill="#AE6A26"/><path d="m11.32 10.49.02-.03.03-.01a.04.04 0 0 1 .02.01v.02c-.02.05-.04.08-.07.08l-.02-.01c0-.02 0-.04.02-.06Z" fill="#FFCD5A"/><path d="m10.42 10.97.04.14a.12.12 0 0 0-.1 0l-.01-.07.01-.01.01.02h.01l-.02-.26.06.18Z" fill="#FFF770"/><path d="m10.46 11.11.1.4.02.02a.04.04 0 0 0 .04.02l.01-.01.35-.27.29-.23c.02-.01.03 0 .03.03v.02l-.01.02a24.85 24.85 0 0 1-.75.58l-.17-.58a.12.12 0 0 1 .1 0Z" fill="#FEDE5E"/><path d="M10.5 12.43c-.5.22-1 .32-1.53.3.02-.02.02-.04 0-.05a.02.02 0 0 1 0-.03l.94-.69c.03-.02.06-.02.1 0l.5.47Z" fill="#FEBD53"/><path d="M7.25 6.12a.01.01 0 0 0 .01.01.02.02 0 0 0 .02 0 .15.15 0 0 1 .1-.04h.02v.02c.02.03 0 .04-.05.04l-.03.01c-.02.02-.02.04 0 .08v.02l-.03.03c0 .01 0 .02-.02.02H7.2a.04.04 0 0 1-.02-.04.04.04 0 0 1 .01-.03l.06-.04a.03.03 0 0 0 0-.02.03.03 0 0 0 0-.02.1.1 0 0 0-.08 0A.34.34 0 0 1 7 6.2c-.01 0-.02 0-.03-.02v-.02L7 6.13a.9.9 0 0 1 .24-.05l.02.01v.03Z" fill="#9C5F23"/><path d="m7.8 6.43-.16-.12c.04-.04.1-.02.18.05a.05.05 0 0 1 0 .08h-.01ZM6.36 7.08c.01.05.04.08.05.08.02 0 .03-.05.01-.1-.01-.05-.04-.1-.06-.09-.01 0-.02.05 0 .1Z" fill="#EDAE4A"/><path d="M7.64 6.87h.02a.02.02 0 0 1 .03 0v.02l-.01.05a.03.03 0 0 1-.02.02.03.03 0 0 1-.03-.01c-.02-.01-.02-.04-.02-.07h.03Z" fill="#C39542"/><path d="M7.9 7.02c-.05.02-.07.07-.08.17a.14.14 0 0 1-.05-.06.03.03 0 0 0-.03-.02.14.14 0 0 1-.05-.02l-.03.01-.04.19-.02.01h-.03a.04.04 0 0 1-.02-.04v-.14a.02.02 0 0 0-.01-.03h-.01a.16.16 0 0 0-.1.1.03.03 0 0 0 0 .04c.07.1.1.2.1.31l.03.02.04.01v.03l-.03.04v.02l-.03.12-.02.03h-.03v-.02c-.01-.06 0-.12.02-.18a.03.03 0 0 0 0-.03l-.03-.02c-.05-.06-.1-.08-.16-.04a.22.22 0 0 1-.06-.05.1.1 0 0 1-.04-.06c-.03-.22.1-.43.33-.41h.16c.07 0 .13 0 .19.02Z" fill="#FDAB40"/><path d="m7.53 7.92-.02.06c0 .02 0 .03-.02.03h-.03c-.02 0-.02-.02-.01-.03a.2.2 0 0 0 .02-.11c0-.02.01-.02.02-.02.24-.03.36-.17.35-.4h.01a.1.1 0 0 1 .03.06c.02.2-.08.33-.3.37a.05.05 0 0 0-.05.04Z" fill="#9C5F23"/><path d="M7.48 7.56a.17.17 0 0 1-.16-.04c.06-.04.11-.02.16.04Z" fill="#AE6A26"/><path d="M7.28 7.68c.02.1.06.13.13.14.06.01.07.03.01.06-.04.02-.1.02-.2 0-.04-.02-.06-.04-.05-.07l.04-.15h.01l.02-.01s.02 0 .03.02v.01Z" fill="#DDA245"/><path d="M9.3 10c.02.04.05.05.07.04.02-.01.02-.05 0-.08-.02-.02-.05-.04-.07-.03-.02.02-.02.05 0 .08Z" fill="#EDAE4A"/><path d="m9.94 9.4.07.17-.05-.19a.79.79 0 0 0-.07-.17c-.01 0 .01.08.05.18Z" fill="#FFF770"/><path d="M11.2 9.67c.03-.01.06 0 .1.03.02.03.05.08.06.13v.01a.3.3 0 0 1 .01.08l-.01.07c0 .02-.02.03-.03.05a.08.08 0 0 1-.04.02h-.01l-.09-.39Z" fill="#DC8933"/><path d="M7.63 10.46c-.03-.05-.02-.1.06-.16a.01.01 0 0 1 .01.01l.02.15v.02c-.04.02-.07 0-.09-.02Z" fill="#E99237"/><defs><linearGradient id="a" x1="5.34" y1="3.95" x2="12.45" y2="13.97" gradientUnits="userSpaceOnUse"><stop stop-color="#FCF9A6"/><stop offset=".12" stop-color="#FCCF42"/><stop offset=".21" stop-color="#FEEEBA"/><stop offset=".52" stop-color="#D29225"/><stop offset=".72" stop-color="#FDC436"/><stop offset="1" stop-color="#DFA22D"/></linearGradient><linearGradient id="b" x1="5.95" y1="4.28" x2="12.83" y2="13.08" gradientUnits="userSpaceOnUse"><stop stop-color="#916F0E"/><stop offset="1" stop-color="#9E7621"/></linearGradient><linearGradient id="c" x1="5.66" y1="4.49" x2="12.36" y2="13.3" gradientUnits="userSpaceOnUse"><stop stop-color="#FFDA54"/><stop offset=".18" stop-color="#DA8B22"/><stop offset=".61" stop-color="#FEC52D"/><stop offset="1" stop-color="#FFF6C8"/></linearGradient><linearGradient id="d" x1="6.27" y1="5.96" x2="11.85" y2="11.86" gradientUnits="userSpaceOnUse"><stop stop-color="#FDF4AF"/><stop offset="1" stop-color="#593B00"/></linearGradient><linearGradient id="e" x1="9" y1="5.27" x2="9" y2="12.73" gradientUnits="userSpaceOnUse"><stop stop-color="#DDAF40"/><stop offset=".43" stop-color="#FAC551"/><stop offset="1" stop-color="#FFF873"/></linearGradient></defs></svg>