<!-- by TradingView --><svg width="18" height="18" viewBox="0 0 18 18" xmlns="http://www.w3.org/2000/svg"><path fill="#181B1E" d="M0 0h18v18H0z"/><path d="M13.12 6.16c.09.24.15.48.19.71.03.17 0 .23-.1.17l-.13-.28a3.9 3.9 0 0 0-.39-.63 1.2 1.2 0 0 0-.33-.31c-.17-.1-.33-.25-.48-.43-.16-.2-.38-.31-.58-.46-.14-.1-.29-.19-.46-.25a5.1 5.1 0 0 0-1.01-.28l.18-.01c.1-.03.1-.07 0-.1-.44-.15-.9-.24-1.4-.27a4.77 4.77 0 0 1 4.5 2.14Z" fill="#EAB87C"/><path d="M8.61 4.02c.5.03.96.12 1.4.27.1.03.1.07 0 .1h-.18c-.04.01-.07 0-.1-.03a.09.09 0 0 0-.08-.04l-1.44.07c-.7.11-1.35.38-1.92.8-.09.07-.14.17-.24.23-.28.18-.69.49-.82.8-.07.18-.14.33-.3.46-.18.16-.36.34-.5.54a.56.56 0 0 1-.15.17A5 5 0 0 1 8.6 4.02Z" fill="#F8E3B6"/><path d="M9.83 4.4a.6.6 0 0 1-.38.1h-.03v.01c-.04 0-.05 0-.01.02.03 0 .06.02.09.05-.22-.03-.3 0-.27.08a4.16 4.16 0 0 0-.36-.03c-.05 0-.09-.03-.11-.08a.1.1 0 0 0-.06-.05.8.8 0 0 0-.27-.02c-.03 0-.06-.01-.08-.03a.24.24 0 0 0-.14-.06l1.44-.07c.03 0 .06.01.08.04.03.03.06.04.1.04Z" fill="#D67F3F"/><path d="M8.2 4.4c.06 0 .1.01.15.05.02.02.05.03.09.03.09-.01.17 0 .26.02a.1.1 0 0 1 .06.05c.02.05.06.08.1.08.13 0 .25.01.37.03l.54.09.3.26c-.03 0-.05.01-.06.03-.13-.13-.2-.18-.23-.14a.65.65 0 0 0-.58-.12c-.16-.1-.31-.13-.45-.1-.22.07-.46.13-.7.18-.12.02-.26.02-.39 0a.66.66 0 0 0-.3-.01c-.27.08-.36.37-.63.44-.54.14-.98.35-1.34.82a.51.51 0 0 0-.1.22c-.1.24-.21.4-.3.46-.31.21-.55.52-.73.93-.02.06-.02.1 0 .15.01.03.03.03.05 0 .13-.2.32-.28.55-.26l.17.07.11.1c0 .05-.02.1-.07.13-.02.02-.05.02-.08 0-.09-.07-.18-.15-.3-.13-.16.25-.63.35-.32.6l-.15-.06c-.03-.01-.04-.04-.04-.07a.34.34 0 0 0-.06-.2l.16-.66c.06-.04.11-.1.16-.17.13-.2.31-.38.5-.54.15-.13.22-.28.3-.46.12-.31.53-.62.81-.8.1-.06.15-.16.24-.23.57-.42 1.21-.69 1.92-.8Z" fill="#D05726"/><path d="M9.84 4.4c.34.06.67.15 1 .28.17.06.32.15.46.25.2.15.42.27.58.46.15.18.31.33.48.43.12.07.23.18.33.3.15.2.28.41.4.64a.73.73 0 0 1-.23-.28.16.16 0 0 0-.04-.06.78.78 0 0 1-.17-.19.58.58 0 0 0-.15-.15c-.15-.1-.23-.1-.25.03l-.7-.52a.1.1 0 0 0-.1-.01l-.04.01.02-.02c0-.03 0-.04-.02-.04h-.04c.08-.02.1-.05.07-.1-.26-.56-1.01-.06-1.43-.4.01-.01.03-.02.07-.02.2.06.38.06.58.01a.1.1 0 0 0 .07-.08l.02-.06c0-.05-.01-.09-.06-.1l-.83-.2H9.5a.33.33 0 0 0-.09-.05c-.04-.01-.03-.02 0-.02h.01l.03-.01a.6.6 0 0 0 .39-.1Z" fill="#CB441D"/><path d="M9.5 4.58h.36c.02.11 0 .17-.1.17l-.53-.1c-.04-.07.05-.1.27-.07Z" fill="#EAB87C"/><path d="m9.86 4.58.83.2c.05.01.07.05.06.1l-.02.06a.1.1 0 0 1-.07.08c-.2.05-.39.05-.58 0l-.31-.27c.08 0 .11-.06.1-.17Z" fill="#FE9529"/><path d="M9.2 4.78a.65.65 0 0 1 .58.12c-.15.03-.3.06-.44.07-.1.01-.25.04-.42.1-.19.06-.38.07-.58.03l-.1-.03c-.04-.01-.05-.04-.04-.07 0-.04.04-.06.09-.07.29-.07.6-.12.9-.15Z" fill="#FEF89B"/><path d="M8.06 4.86c-.4.06-.36.11-.22.12.16.1.33.14.5.12.2.04.4.03.58-.03.17-.06.31-.09.42-.1.15-.01.3-.04.44-.07.02-.04.1 0 .23.14.42.33 1.17-.17 1.43.38.03.06 0 .1-.07.1a.92.92 0 0 0-.29.4.8.8 0 0 1-.25-.2 22.24 22.24 0 0 0-.73-.28.45.45 0 0 0-.2-.02.1.1 0 0 1-.08-.02.29.29 0 0 0-.22-.05c-.02 0-.05 0-.08-.02a.78.78 0 0 0-.5-.04c-.15.04-.29.05-.42.05l-.54.02c-.22.01-.55.1-.97.24-.22.07-.4.2-.62.24a.45.45 0 0 0-.15.06.14.14 0 0 0-.06.07.62.62 0 0 1-.28.34c-.14-.02-.26.03-.37.17-.27.1-.16.42-.35.61-.13.14-.25.33-.19.53.01.02 0 .04-.01.05l-.03.01-.17-.07c-.01-.18.02-.33.1-.45.06-.11.15-.23.27-.35a.17.17 0 0 0 .05-.08l.11-.34v-.06c-.02-.02-.04-.03-.06-.02l-.04.02a.51.51 0 0 1 .1-.22c.36-.47.8-.68 1.34-.82.27-.07.36-.36.64-.44a.66.66 0 0 1 .3 0c.12.03.26.03.39.01Z" fill="#FCB035"/><path d="m11.08 5.92-.03.08c-.02.03-.04.04-.07.01a1.69 1.69 0 0 0-.52-.33 5.73 5.73 0 0 0-.64-.2c-.4-.1-.83-.06-1.25-.07-.17 0-.27.11-.45.1-.1 0-.22.01-.33.04l-.32.09-.3.12c-.4.22-.8.4-1.19.55.12-.06.2-.17.28-.34a.14.14 0 0 1 .06-.07c.04-.03.1-.05.15-.06.22-.04.4-.17.62-.24a4.07 4.07 0 0 1 1.51-.26c.13 0 .27-.01.42-.05a.78.78 0 0 1 .5.04l.08.02c.09-.01.16 0 .22.05a.1.1 0 0 0 .08.02c.06 0 .13 0 .2.02a22.24 22.24 0 0 1 .73.27c.08.1.16.17.25.2Z" fill="#FD7926"/><path d="M9.74 5.85c-.3-.05-.6-.07-.9-.06a3.9 3.9 0 0 0-1.74.46.07.07 0 0 1-.08 0c-.15-.1-.3-.08-.44.07.05-.14.18-.26.4-.35a5.1 5.1 0 0 1 2.19-.46c.2 0 .4.04.6.1a4.5 4.5 0 0 0 .65.13v.03c0 .02-.02.03-.04.03l-.64.05Z" fill="#FD6A25"/><path d="m12.25 6.11.12.28c.1.22.3.38.46.55.04.35-.01.62.04.35.04.08.06.16.05.25l.02.09.14.23c-.05-.03.04.09.04.03l.11 1.06c-.12-.05-.23-.13-.36-.05-.04.02-.06.02-.08-.02-.14-.35-.1-.56-.27-.9.01-.07-.12-.33-.15-.44-.09-.26-.1-.5-.2-.75-.04-.12-.1-.2-.17-.24a.45.45 0 0 0-.3-.05c-.14-.22-.27-.31-.4-.25-.21.06 0 .46-.25.3-.12-.1-.19-.06-.19.09 0 .07-.08-.09-.17-.17.07-.14.08-.25.04-.35l-.07-.17c-.02-.04 0-.05.03-.02.12.08.22.18.3.29 0 .02.03.03.06.03s.05-.01.08-.03c.03-.02 0-.1 0-.13.04-.23.12-.45.33-.51a.1.1 0 0 1 .08.01l.71.52Z" fill="#FCB035"/><path d="M11.4 5.62h.04c.03.01.05.02.06.05.09.16.23.3.42.33.13.01.21.1.24.26a.04.04 0 0 1-.02.04.04.04 0 0 1-.04 0 2 2 0 0 1-.7-.5.25.25 0 0 1-.06-.13.12.12 0 0 1 .06-.05Z" fill="#FEF89B"/><path d="M9.74 5.85c-.18.08-.25.21-.21.38.08.36.27.37.6.37.2 0 .4-.04.56-.13.54.4.54 0 .71.37l.33.03-.03.03c-.03.02-.05.01-.08 0-.03-.04-.1.01-.06.05.24.25.44.54.6.86h-.1c-.14-.1-.32-.13-.55-.05a.76.76 0 0 0-.4.28.14.14 0 0 1-.07.06l-.9.33-.06-.1a.53.53 0 0 0 .35-.18c.08-.08.1-.2.05-.34-.1-.37-.32-.51-.67-.44-.2.04-.34.07-.4.1-.09-.02-.17.02-.24.12a.5.5 0 0 1-.19.17.4.4 0 0 1-.26 0 .1.1 0 0 1-.06-.04.1.1 0 0 1-.01-.07l.03-.14c0-.04-.01-.07-.06-.08a.5.5 0 0 1-.38-.3 1.48 1.48 0 0 0-.06-.11c-.03-.07-.17-.08-.24-.13a.09.09 0 0 0-.1-.02c-.21.1-.24.16-.09.2l-.37.14c.16-.53.13-.6-.67-.71l-.13-.18c.14-.15.3-.18.44-.08.03.02.05.02.08 0a3.9 3.9 0 0 1 1.75-.45c.29 0 .59.01.9.06Z" fill="#FECA37"/><path d="m13.08 6.76.14.28.18.56a4.84 4.84 0 0 1-.32 2.93l-.04.03c-.03 0-.04 0-.04-.04l.07-.5c0-.03.01-.05.03-.07.08-.11.1-.22.08-.32.15-.15.2-.33.13-.54a1.5 1.5 0 0 0 0-.33l.01-.32a.86.86 0 0 0-.04-.34 2.05 2.05 0 0 0-.45-1.16c-.16-.17-.36-.33-.46-.55a2.72 2.72 0 0 1-.12-.28c.02-.13.1-.14.25-.03l.15.15c.05.08.1.14.17.19l.04.06c.06.11.13.2.22.28Z" fill="#A11515"/><path d="M13.12 6.16c.4.57.66 1.21.78 1.92l-.03.24c-.12-.3-.27-.53-.47-.72l-.18-.56c.09.06.12 0 .09-.17-.04-.23-.1-.47-.2-.7Z" fill="#D67F3F"/><path d="m11.7 6.5.71 1.2a.07.07 0 0 0-.04.07 3.8 3.8 0 0 0-.58-.9V6.8c-.09-.22-.25-.4-.48-.56.12-.06.25.03.4.25Z" fill="#CB441D"/><path d="M11.3 6.25c.24.15.4.34.5.56-.05.02-.07.04-.07.06a3.3 3.3 0 0 0-.33-.03c-.08-.01-.13-.04-.19-.1a.1.1 0 0 0-.15.05c-.04.12-.1.24-.18.34-.05.07-.05.14 0 .18-.1.04-.16.01-.2-.06a.1.1 0 0 1 0-.06c.04-.14-.01-.21-.15-.22a.06.06 0 0 1-.05-.04l-.02-.03v-.04l.02-.01h.19c.04 0 .07-.01.1-.03a.2.2 0 0 0 .09-.18c0-.15.07-.18.19-.1l.1.05a.04.04 0 0 0 .03-.02l.01-.02v-.02c-.05-.15-.01-.25.12-.28Z" fill="#FEF89B"/><path d="M4.86 7.6a.58.58 0 0 0-.55.27c-.02.03-.04.03-.05 0-.02-.04-.02-.09 0-.15.18-.4.42-.72.72-.93.1-.06.2-.22.31-.46l.04-.02c.02 0 .04 0 .05.02.02.01.02.04.01.06l-.11.34c-.01.03-.02.06-.05.08-.12.12-.21.24-.27.35a.82.82 0 0 0-.1.45Z" fill="#FEE242"/><path d="M7.38 7.2c-.1.1-.17.21-.2.35-.05.06-.15.09-.31.08a.08.08 0 0 0-.08.04.42.42 0 0 1-.09.1.15.15 0 0 1-.1.04c-.18 0-.37.03-.55.1a.17.17 0 0 1-.08 0 .16.16 0 0 1-.13-.17c0-.04.08-.11.23-.2.01-.16.12-.29.33-.38.14 0 .24-.05.33-.12.15-.15.07-.38-.02-.54.22-.1.95-.12 1.18-.1.04 0 .05.01.05.05-.01.14-.06.24-.14.3-.24.15-.38.3-.42.46Z" fill="#FEF89B"/><path d="M5.6 6.48c-.09.15-.08.3.01.43a.13.13 0 0 1-.03.18c-.24.16-.4.39-.44.69l-.1-.1h.02c.02-.02.02-.04.01-.06-.06-.2.06-.4.2-.53.18-.19.07-.5.34-.61Z" fill="#FD7926"/><path d="M11.7 6.5c.12-.01.21 0 .3.05.07.04.13.12.17.24l.29.78c.03.11.05.2.03.27l-.08-.14-.7-1.2Z" fill="#FD6A25"/><path d="m11.8 6.81-.01.06a3.8 3.8 0 0 1 .63 1c0 .04-.02.06-.05.06h-.1c-.15-.08-.2-.12-.11-.12a3.18 3.18 0 0 0-.6-.88.04.04 0 0 1 0-.03c.02-.02.04-.02.06 0 .03.01.05.02.08 0l.03-.03c0-.02.02-.04.06-.06Z" fill="#FD7926"/><path d="M12.86 7.22v.07c.03.1.02.16-.01.2-.03.04-.05.04-.07 0-.1-.18-.19-.34-.25-.5-.09-.2-.05-.23.11-.08.04.04.12.15.22.31Z" fill="#FEF89B"/><path d="M9.4 7.47c-.13.22-.13.42 0 .59.15.2.44.23.68.26l.06.11c-.24.1-.45.22-.64.4a.13.13 0 0 0-.04.11c0 .03 0 .05-.04.05-.18 0-.36.02-.55.06a.2.2 0 0 1-.1 0l-.31-.07a.71.71 0 0 1-.15-.18c-.09-.06-.2-.09-.36-.06a.15.15 0 0 0-.14-.08H7.6c-.03 0-.06 0-.09-.02a1.41 1.41 0 0 0-.69-.2c-.03 0-.05-.01-.06-.04 0-.03-.03-.04-.06-.02a42.54 42.54 0 0 1-.77-.24.76.76 0 0 0-.35-.02c-.01 0-.04 0-.07-.02.07-.41.24-.73.52-.94a.59.59 0 0 1 .37 0c.1.35.2.68.69.6.01-.04.05-.06.1-.06.03.08.06.15.11.21.16.19.5.15.72.12.16-.02.27-.1.33-.26.1-.37-.25-.7-.6-.7-.15-.04-.12-.1.09-.2a.09.09 0 0 1 .1.02c.07.05.2.06.24.13l.06.1c.08.18.2.28.38.31.05.01.07.04.06.08l-.03.14v.07a.1.1 0 0 0 .06.05.4.4 0 0 0 .27-.01.5.5 0 0 0 .18-.17c.08-.1.16-.14.25-.12Z" fill="#FEE242"/><path d="M12.83 6.94c.27.33.42.72.45 1.16l-.05.85-.11-1.06c-.03.03-.04.02-.04-.03l-.14-.23a.15.15 0 0 1-.02-.09.55.55 0 0 0-.05-.25l-.01-.07-.03-.28Z" fill="#FD7926"/><path d="M6.03 7.16a1.4 1.4 0 0 0-.52.94c-.13-.03-.27-.13-.26-.29 0-.22.09-.4.23-.52l.23-.19c.02-.02.05-.02.07 0 .08.04.16.06.25.06Z" fill="#FD6A25"/><path d="M7.75 7.07c.35 0 .7.33.6.7v-.11c-.02-.04-.03-.04-.06 0l-.12.17a.1.1 0 0 1-.06.04l-.57.04H7.3a.68.68 0 0 1-.1-.21c0-.05 0-.1-.02-.15.04-.14.1-.25.2-.34l.37-.14Z" fill="#F25825"/><path d="M10.08 8.32c-.24-.03-.53-.06-.68-.26-.13-.17-.13-.37 0-.6l.4-.1c.36-.06.58.08.68.45.04.15.03.26-.05.34-.09.1-.2.16-.35.17Z" fill="#A11515"/><path d="M6.07 7.54c-.15.09-.22.16-.23.2-.01.11.1.2.21.16.18-.06.37-.09.56-.09.03 0 .07-.01.1-.04a.42.42 0 0 0 .08-.1.08.08 0 0 1 .08-.04c.16.01.26-.02.31-.08.01.05.02.1.01.15-.05 0-.09.02-.1.06a.81.81 0 0 1-.52.14c-.15-.01-.3.01-.47.07-.1.03-.39.02-.36-.15.04-.24.15-.34.33-.28Z" fill="#FCB035"/><path d="M13.87 8.32c.04.4.01.84-.09 1.34a4.56 4.56 0 0 1-1.06 2.16c.08-.28.2-.53.37-.76.07-.08.08-.15.04-.24a.26.26 0 0 1-.03-.09l-.02-.2a4.84 4.84 0 0 0 .32-2.93c.2.19.35.43.47.72Z" fill="#E5A45E"/><path d="M8.35 7.77a.39.39 0 0 1-.33.26c-.22.03-.56.07-.72-.12a.15.15 0 0 1 0-.06c0-.04.02-.04.04-.02.06.06.13.09.2.08a56.82 56.82 0 0 1 .6-.06.1.1 0 0 0 .03-.02l.12-.18c.03-.03.04-.03.06 0v.12Z" fill="#A11515"/><path d="m12.41 7.7.08.14.12.25c.03.08.05.17.06.26 0 .18.05.35.12.53.02.04.04.04.08.02.05-.03.1-.04.15-.03h.03l.18.08.05-.85c.04.1.05.22.04.34v.65c-.03-.03-.06-.05-.1-.03a.48.48 0 0 0-.5 0 .17.17 0 0 0-.06.05v.24c-.08.6-.33.8-.55 1.35-.14.36-.35.65-.6.86-.19.16-.4.29-.63.4-.2.1-.4.22-.6.36-.23.16-.5.23-.77.2-.21-.03-.14.2-.06.3.07.12.18.16.3.14.47-.08.8-.18.98-.3.23-.07.42-.17.6-.3.47-.36 1.03-.69 1.27-1.28.11-.29.1-.59.2-.87.06-.22.19-.4.38-.58.02.1 0 .2-.08.32a.16.16 0 0 0-.03.07l-.07.5c0 .03.01.04.04.04l.04-.03.02.2.03.09c.04.1.03.16-.04.24-.17.23-.3.48-.37.76a.86.86 0 0 1-.37.37c-.23.04-.38.1-.45.17-.1.1-.12.16-.06.2l-.01.03c-.05 0-.08.01-.08.05-.06-.13-.1.02-.2-.02-.03 0-.04-.01-.04-.04s0-.05-.03-.06a.08.08 0 0 0-.08 0c-.15.1-.31.2-.47.27l-.28.09a.79.79 0 0 0-.26.13.64.64 0 0 1-.28.09c-.39.05-.68 0-.88-.16l.03-.01c.13-.03.04-.14.04-.3a.11.11 0 0 0-.06-.12.28.28 0 0 1-.07-.06l.02-.03.4.02c.35-.04.66-.18.95-.41.1-.03.2-.08.28-.15.52-.22.9-.58 1.16-1.1.23-.5.4-1.41.66-1.82a.55.55 0 0 0-.03-.4c-.12-.26-.28-.58-.26-.45l-.08-.19h.1c.03 0 .05 0 .05-.04a.15.15 0 0 0-.05-.11c0-.03.02-.05.04-.07Z" fill="#DC321C"/><path d="M13.08 7.86c0 .05.01.06.04.03 0 .12-.04.25-.08.4a.42.42 0 0 0 .07.38c.04.06-.07.12-.11.07a.64.64 0 0 1-.1-.66l.07-.2c0-.03.02-.05.04-.05l.07.03Z" fill="#FEF89B"/><path d="M12.64 8.96c-.44.63-.22.95-.33 1.15-.12.22-.23.44-.33.67-.25.52-.64.88-1.16 1.1.25-1.16-.64-.87-.28.15-.29.23-.6.37-.95.41-.1-.3-.23-.25-.36-.38.08-1.11.05-1.04.13-2.09a.49.49 0 0 0 .04-.22c0-.24.05-.45.08-.68.02-.1.08-.17.16-.23.4-.29.84-.5 1.36-.63.03 0 .04 0 .04.04.09.82 1.88.86 1.31-.14-.02-.19.17.15.19.24 0 .06.03.14.07.22.06.13.07.26.03.39Z" fill="#FECA37"/><path d="M4.12 8.05c.04.06.06.12.06.2 0 .03.01.06.04.07l.15.05a.9.9 0 0 1 .18.27l.07.61a4.67 4.67 0 0 1-.25-.1c-.05-.02-.1 0-.14.06l-.06-.29-.01-.44a.07.07 0 0 0-.04-.07.15.15 0 0 1-.05-.04c0-.11.01-.21.05-.32Z" fill="#EBC891"/><path d="M13.9 8.08a4.8 4.8 0 0 1-.66 3.6c.24-.81.15-.09-1.06.83-.1.08-.2.13-.3.16-.04.01-.06 0-.05-.04v-.04l.01-.03.5-.37c.18-.09.3-.21.38-.37.55-.61.9-1.33 1.06-2.16.1-.5.13-.94.1-1.34l.02-.24Z" fill="#790C0F"/><path d="M7.95 8.74a.48.48 0 0 1-.42.01 3.11 3.11 0 0 0-.57-.2 7.49 7.49 0 0 1-1.38-.43.76.76 0 0 1 .35.02c.48.17 1.15.25 1.58.5l.09.02h.21c.06 0 .1.03.14.08Z" fill="#FEF89B"/><path d="M4.07 8.37c0 .02.15.03.16.13v.71l.13.67A4.8 4.8 0 0 0 7.24 13c.73.27 1.48.38 2.25.34l.48-.07a3.95 3.95 0 0 0 1.62-.56c.02.03.02.08 0 .14.02.17-.54.6.73-.1-.41.36-.72.6-.93.7a5.17 5.17 0 0 1-3.46.4 4.68 4.68 0 0 1-3.39-2.84c-.2-.4-.35-.85-.43-1.36.05-.07.05-.15.02-.25-.03-.1-.05-.17-.05-.22l-.02-.41c0-.06-.01-.1-.05-.11l.06-.3Z" fill="#8F0E10"/><path d="M4.77 8.65c.03.1.08.15.16.17.04 0 .38.03.42.08.02.02.05.03.1.03 0 .08.02.15.05.2.01.11.05.18.1.2.11.04.18.01.2-.09.01-.15.04-.22.1-.21l.76.23.42.11c.04 0 .06.02.07.06 0 .22.07.3.22.22.02-.07.05-.1.09-.1.3.08.7.37.83-.65-.02-.04.06-.09.1-.11.26.44.15.82.17 1.4l-.01.12c0 .05-.03.06-.07.03-.91-.09-2.11 0-3.05.17l.3.95a4.44 4.44 0 0 1-1-1.78l-.1-.43-.08-.6.02-.08c0-.02.02-.03.04-.01.05.04.1.07.16.09Z" fill="#790C0F"/><path d="M6.84 8.69c.13.18.32.3.26.7a1.47 1.47 0 0 1-.44-.13l-.76-.23v-.04c0-.04.01-.06.04-.07l.3-.1c.07-.02.12-.06.13-.13.01-.04.03-.06.07-.07.16-.05.3-.02.4.07Z" fill="#FCB035"/><path d="M7.37 9.65c-.15.07-.22 0-.22-.22a.72.72 0 0 0-.27-.8l.47.14c.03.01.04.03.03.06-.06.24-.07.52 0 .82Z" fill="#FCB035"/><path d="M4 8.67c.05 0 .07.05.06.1 0 .15 0 .28.02.42 0 .05.02.12.05.22.03.1.03.18-.02.25a3.1 3.1 0 0 1-.1-1ZM6.88 8.64c.26.21.35.48.27.79 0-.04-.03-.06-.07-.06a.22.22 0 0 0 0-.14c.05-.28-.11-.36-.24-.54.06-.01.08-.03.04-.05Z" fill="#D05726"/><path d="M12.64 8.96c-.14.21-.21.5-.22.85 0 .05 0 .08-.02.11-.03.07-.07.09-.11.06l-.5.36c-.02-.14-.03-.2-.05-.2l.27-.23a.08.08 0 0 0 .03-.06.08.08 0 0 0-.02-.06 1.16 1.16 0 0 1-.2-.26.16.16 0 0 1 0-.16.15.15 0 0 1 .07-.05.14.14 0 0 1 .07-.02h.22a.24.24 0 0 0 .18-.14c.17-.36.27-.43.28-.2Z" fill="#FEF89B"/><path d="M8.29 8.9c.14.23.07.46.12.7 0 .03 0 .06-.02.08-.07.11-.1.21-.24.26-.27.1-.46.02-.58-.23.12-.42-.1-.26.21-.71.03-.1.09-.15.2-.16a.5.5 0 0 1 .31.06Z" fill="#F25825"/><path d="m13.23 9.06-.04.28c0 .03-.01.06-.03.08-.16.16-.23.31-.59.85.04-.3-.51.85-.26.85-.05.19-.14.28-.29.29a.07.07 0 0 0-.06.04c-.1.2-.25.35-.44.43a.2.2 0 0 0-.06.04c-.23.32-.36.42-.44.49l-.29.25a3.1 3.1 0 0 1-.97.3.29.29 0 0 1-.31-.14.5.5 0 0 1-.07-.15c-.04-.12 0-.17.13-.16.28.04.54-.03.77-.2.2-.13.4-.25.6-.35.23-.11.44-.24.62-.4.26-.21.47-.5.61-.86.09-.22.19-.41.3-.59.07-.13.12-.27.15-.42a21.34 21.34 0 0 0 .1-.58.17.17 0 0 1 .06-.06c.16-.1.33-.1.5 0Z" fill="#FECA37"/><path d="M8.95 10c.02.17.02.35.02.54 0 .07-.04.1-.12.09a.25.25 0 0 0-.03-.11.1.1 0 0 0-.08-.05c-.15-.02-.21-.11-.18-.29l-.03-.89a.2.2 0 0 0-.02-.08.3.3 0 0 1-.04-.17c.04 0 .07.02.1.05l.03.03h.04c.2 0 .3.1.27.33-.01.12 0 .3.04.54Z" fill="#FCB035"/><path d="M13.23 9.06c.03-.02.05 0 .08.03.07.21.02.39-.13.54-.2.17-.32.36-.38.58-.1.28-.09.58-.2.87-.24.59-.8.92-1.28 1.28-.17.13-.36.23-.59.3l.3-.25c.02-.03.02-.04-.02-.04h-.04l.5-.45a.2.2 0 0 1 .05-.04c.2-.08.34-.22.43-.43a.07.07 0 0 1 .07-.04c.14 0 .24-.1.29-.29l.26-.85c.1-.24.23-.44.39-.6.02-.07.04-.1.06-.1l.14-.15a.12.12 0 0 0 .03-.08l.04-.28Z" fill="#FE9529"/><path d="m4.62 9.25.1.42a.29.29 0 0 0-.13.18c0 .03-.02.05-.05.06-.06.02-.12.01-.18-.03l-.13-.67c.05-.06.1-.08.14-.06l.25.1Z" fill="#F8E3B6"/><path d="M8.56 10.18c-.03.18.03.27.18.29a.1.1 0 0 1 .08.05c.01.02.03.06.03.1-.06 0-.1 0-.13.02-.03.03-.03.05 0 .07.05.03.1.07.14.13.06.08.13.08.18.01.06-.06.08-.05.08.03l-.03.57-.05-.12a.08.08 0 0 0-.08-.06c-.05 0-.09.01-.13.03-.13.09-.2.05-.18-.12.03-.34-.24-.24-.33-.46-.03-.05-.09-.29-.2-.24-.11.05-.36.1-.48.02-.02-.01-.1 0-.1-.02-.48-.1-.56-.4-.78-.11a.11.11 0 0 1-.06.04c-.2.05-.4-.03-.6 0-.43.1-.28.07-.67.1a2.63 2.63 0 0 1-.03-.9c.08-.14.19 0 .28.02.3.05.51.25.77.3.08 0 .15 0 .23-.04.3-.14.57.06.86.14.07.02.13.05.2.1.24.15.53.04.74.2.04.04.06.03.07-.02l.01-.13Z" fill="#A11515"/><path d="m11.45 9.69.2.5c.02.03.02.07 0 .1-.07.22-.28.38-.51.3-.2-.08-.4-.08-.57-.21-.03-.03-.05-.02-.06.01v.1a.18.18 0 0 1-.09-.13c-.05-.42.12-.66.52-.73.23-.05.4-.03.51.06Z" fill="#F25825"/><path d="M4.73 9.67c.1.37.25.72.43 1.04-.1.12-.1.23-.02.33l.08.12.21.35c.07.12.15.23.24.33l.34.37a35.49 35.49 0 0 0 1.23.8 4.8 4.8 0 0 1-2.88-3.13c.06.04.12.05.18.03a.09.09 0 0 0 .05-.06.29.29 0 0 1 .14-.18Z" fill="#EBC891"/><path d="M11.45 9.69c.15.09.24.24.3.45 0 0 .02.06.03.2a.66.66 0 0 1-.29.37c-.15.1-.3.1-.46-.02a.15.15 0 0 0-.08-.03.71.71 0 0 1-.44-.17.19.19 0 0 1 0-.1c.01-.03.03-.04.06-.01.18.13.37.13.57.2.23.09.44-.07.52-.3a.13.13 0 0 0 0-.09l-.2-.5Z" fill="#A11515"/><path d="M9.01 9.8a.04.04 0 0 0 0 .04c0 .03.03.05.05.05.07.01.13.04.2.07 0 .01.03.02.05 0l.02-.01c.03 0 .03 0 .03.02L9.28 11l.01.16-.06.9c0 .13 0 .25-.04.36l-.02.03c-.04.14 0 .27.11.4l.01.04c0 .02 0 .03-.03.04h-.03a.73.73 0 0 0-.25 0 .8.8 0 0 1 .01-.53.93.93 0 0 0 .06-.24c0-.09.01-.17.03-.26l.01-.45.03-.57c0-.08-.02-.1-.08-.03-.05.07-.12.07-.18-.01a.64.64 0 0 0-.14-.13c-.02-.02-.03-.04 0-.07.03-.02.07-.02.13-.01.08 0 .12-.02.12-.1 0-.18 0-.36-.02-.54-.01-.19 0-.25.06-.19Z" fill="#790C0F"/><path d="m9.1 11.45-.02.45c-.74-.23-1.98-.32-2.21.3a.39.39 0 0 0-.21.03l-.62-.42-.31-.35-.3-.95c.09-.14.2-.24.35-.32.06-.03.08 0 .07.05-.02.17.27.19.31.14.06-.07.12-.07.2-.03.1.07.22.1.34.06.03 0 .05-.02.06-.04.08-.1.02-.28.21-.28.3 0 .5.13.63.37.05.1.22.07.3.07.08 0 .15-.02.23-.05.1-.04.21-.05.34-.01.02 0 .03 0 .03.02.01.02.08.1.06.12l-.2.02c-.1.02-.03.18.05.2.18.02.26.14.24.35-.01.17.05.2.18.12a.21.21 0 0 1 .13-.03c.04 0 .06.02.08.06l.05.12Z" fill="#BD2B1A"/><path d="m12.57 10.27-.26.85c-.04.03-.08.03-.1.02-.03-.02-.04-.04-.04-.07a2.14 2.14 0 0 1 .35-.9h.04v.02c.01.02.02.05.01.08Z" fill="#FEF89B"/><path d="m11.75 12.64-.01.27c0 .03 0 .05-.02.07a.07.07 0 0 1-.08.03.06.06 0 0 1-.05-.06v-.1c.02-.05.02-.1 0-.13 0-.04-.01-.06-.03-.08.01 0 .02-.01.02-.03a.34.34 0 0 0 .01-.13c0-.03.01-.06.03-.08.17-.2.37-.37.6-.5a.22.22 0 0 0 .09-.1c.09-.18.2-.35.36-.49a.4.4 0 0 0 .11-.21l.07-.39c.04-.18.08-.19.13 0l.06.2a.11.11 0 0 1-.02.1c-.22.22-.26.52-.43.77-.18.25-.48.37-.74.5-.1.07-.14.18-.1.36Z" fill="#FE9529"/><path d="M5.16 10.7c.15.28.34.53.57.76l.31.35c.43.4.92.73 1.49.95.3.12.59.18.89.17l.2.02.35.06.04.02.03.04c.08.29.31.22.53.24.1 0 .1 0 0 0l-.08.04A5.48 5.48 0 0 1 7.24 13a35.47 35.47 0 0 1-1.23-.8l-.34-.37c-.09-.1-.17-.21-.24-.33a7.6 7.6 0 0 0-.3-.47c-.07-.1-.06-.21.03-.33Z" fill="#F8E3B6"/><path d="M10.82 11.88a.72.72 0 0 1-.28.15.61.61 0 0 0-.23-.3.13.13 0 0 1-.05-.07v-.06c0-.04-.02-.07-.06-.08a.78.78 0 0 0-.26-.03c-.08 0-.12-.04-.11-.12l.02-.2c0-.05.03-.1.07-.12a.18.18 0 0 1 .12-.05l.35.03c.03 0 .05-.02.06-.05v-.1c0-.04.01-.06.05-.08.1-.02.16.01.22.1.04.07.1.08.17.04.05-.03.1-.03.15-.02.03 0 .06.03.08.06.1.15.24.17.42.06.02-.01.04 0 .07.03a.07.07 0 0 1 0 .1c-.13.15-.29.26-.48.32a.08.08 0 0 0-.04.03.08.08 0 0 0-.02.05c0 .05-.02.09-.05.12a.17.17 0 0 1-.07.05c-.07.02-.11.07-.13.14Z" fill="#FEF89B"/><path d="M8.13 11.08c.23.02.45.4.73.34.05-.01.09 0 .11.05.07.15.1.3.1.43l-.02.26c0 .08-.03.16-.06.24a.8.8 0 0 0-.01.53l-.36.02-.2-.02a3.93 3.93 0 0 0-.55-.13c-.21 0-.9-.37-1.09-.51-.45-.13-.01-.27-.21-.38a.8.8 0 0 1-.33-.34 4.82 4.82 0 0 1-.22-.49.11.11 0 0 1 .07-.15.73.73 0 0 1 .47-.02c.2.06.42.13.63.17.13.03.38.21.49.33.02.02.04.02.07.01.06-.03.21-.36.38-.34Z" fill="#CB441D"/><path d="M13.24 11.69a4.6 4.6 0 0 1-.62.74l-.3.32-.54.4a.28.28 0 0 1-.08.04l-1.66.56c.07-.05.03-.15-.1-.14l-.15-.14a6.76 6.76 0 0 0 1.76-.5c.03-.01.05-.05.04-.11v.1a.06.06 0 0 0 .05.05c.04 0 .06 0 .08-.03a.11.11 0 0 0 .02-.07v-.27c.01-.04.04-.05.09-.05v.04c0 .04 0 .05.04.04a.95.95 0 0 0 .31-.16c.47-.35.85-.8 1.16-1.34a.12.12 0 0 1 .07-.05.1.1 0 0 0 .06-.07c.02-.04.03-.04.03 0 0 .06-.07.26-.1.3a.75.75 0 0 0-.16.34Z" fill="#A11515"/><path d="m6.04 11.8.62.43.33.19c.1.07.2.11.3.14.12.03.22.08.31.15.09.05.18.08.27.09l.12.01.43.12c-.3 0-.6-.05-.9-.17a4.52 4.52 0 0 1-1.48-.95Z" fill="#D67F3F"/><path d="m9.59 12.44-.4-.02a.93.93 0 0 0 .04-.36c.06 0 .12.02.16.05.03.02.05.03.08.02a.2.2 0 0 0 .11-.1.13.13 0 0 1 .08-.06l.27-.08a.07.07 0 0 1 .08.02.08.08 0 0 1 .01.08c-.04.08-.1.12-.2.13a.16.16 0 0 0-.09.03.4.4 0 0 0-.14.3Z" fill="#FEF89B"/><path d="m12.35 12.2-.5.36c-.07-.04-.05-.1.05-.2.07-.07.22-.13.45-.17Z" fill="#EAB87C"/><path d="m9.17 12.45.07.06c.05.02.07.06.06.11 0 .07.02.14.05.23.01.03 0 .04-.02.04s-.03-.01-.05-.03c-.12-.14-.15-.27-.11-.41Z" fill="#FE9529"/><path d="M11.58 12.61c0 .02 0 .03-.02.03-.03-.02-.05-.01-.08.01a4.05 4.05 0 0 1-1.61.55v.03c0 .04.02.06.05.06h.05l-.48.06.08-.04c.1 0 .1 0 0 0-.22-.02-.45.05-.53-.24a.09.09 0 0 0-.03-.04.09.09 0 0 0-.04-.02l-.35-.06.36-.02h.25c.2.17.5.22.88.17a.64.64 0 0 0 .28-.09c.08-.06.17-.1.26-.13l.28-.09c.16-.07.32-.16.47-.26a.08.08 0 0 1 .08 0c.02 0 .04.02.03.05 0 .03.01.04.04.04h.03Z" fill="#D05726"/><path d="M7.46 13.28c.07.05.1.1.08.14-.02.06-.08.08-.2.06a5.45 5.45 0 0 1-1.4-.84l.02-.03.03-.01H6c.46.28.94.51 1.45.68Z" fill="#FD7926"/><path d="M11.56 12.64c.02.02.03.04.03.08a3.95 3.95 0 0 1-1.67.57c-.04 0-.05-.02-.05-.06v-.04a4.05 4.05 0 0 0 1.6-.54c.04-.02.06-.03.09 0Z" fill="#EAB87C"/><path d="M7.46 13.28c.23.06.43.15.66.17.57.06 1.07.16 1.67.02l.28-.02c.04 0 .06.02.06.06 0 .04-.02.07-.05.08-.04.03-.04.05.01.05h.03c.01.01.02.02 0 .03a.31.31 0 0 1-.08.08c-.4.01-.82.02-1.24 0-.5 0-.98-.1-1.45-.27.1.02.17 0 .2-.06 0-.05-.02-.1-.09-.14Z" fill="#BD2B1A"/><path d="m11.05 5.18-.63-.02a.1.1 0 0 0-.1.1c0 .06.04.11.1.11l.63.02a.1.1 0 0 0 .1-.1.1.1 0 0 0-.1-.11Z" fill="#FEF89B"/><path d="M8.74 6.16c.16 0 .28.08.36.24.16.28.1.5-.17.65a.12.12 0 0 1-.08.01l-.54-.1a.25.25 0 0 1-.13-.07.26.26 0 0 1-.07-.14c-.06-.3.08-.5.41-.57l.22-.02Z" fill="#F25825"/><path d="M10.28 7.58c.07.1.17.24.12.36-.06.16-.2.22-.39.19l-.45-.08a.18.18 0 0 1-.14-.13c-.1-.28.06-.49.32-.5.2 0 .4-.02.54.16Z" fill="#FD6A25"/><path d="M11.08 5.92c.08-.18.17-.31.29-.4l.04.01c.02 0 .03.01.02.04l-.02.02c-.01 0-.02.01-.01.03a.12.12 0 0 0-.06.05c-.14.14-.2.3-.18.47 0 .03 0 .06-.03.08-.17.12-.34-.22-.44-.3-.04-.02-.05 0-.03.03l.07.17c.04.1.03.21-.04.35-.17.09-.36.14-.56.13-.33 0-.52 0-.6-.37-.04-.17.03-.3.21-.38l.64-.05c.19-.01-.57-.18-.6-.2a2.64 2.64 0 0 0-.61-.09 5.1 5.1 0 0 0-2.2.46c-.21.09-.34.2-.4.35l.14.18c.09.16.17.39.02.54a.46.46 0 0 1-.33.12.59.59 0 0 0-.37 0 .47.47 0 0 1-.25-.06c-.02-.02-.05-.02-.07 0l-.23.2a.67.67 0 0 0-.23.51c0 .16.13.26.26.3.03.01.06.02.07 0 .4.18.86.33 1.38.44.15.03.38.12.57.2.13.06.27.06.42-.01.15-.03.27 0 .36.06-.03.03-.04.06-.02.1a.5.5 0 0 0-.32-.06c-.1.01-.16.06-.19.16-.03.12.04.57.15.58.02 0 .03 0 .04.02l.03.03c.04.05.04.1.01.15-.05.08-.1.12-.15.1-.08-.03-.12-.09-.1-.18.07-.47-.07-.38-.2 0a1.9 1.9 0 0 1-.04-.08c-.02-.04-.04-.06-.06-.06-.04-.01-.07.02-.09.09-.06-.3-.05-.58.01-.82.01-.03 0-.05-.03-.06l-.47-.13c.04.02.02.04-.04.05-.1-.1-.24-.12-.4-.07a.09.09 0 0 0-.06.07c-.02.07-.07.1-.13.13l-.3.1c-.04.01-.06.03-.05.07v.04c-.06 0-.09.06-.1.21-.17-.97-.17-.24-.3-.1-.11-.2-.05-.15-.24-.25-.05-.61 0-.58-.13-.67-.76-.3-.23.15-.36.43a.5.5 0 0 1-.16-.09c-.02-.02-.03-.01-.04.01l-.02.07a.9.9 0 0 0-.18-.27c-.2-.16-.23-.3-.08-.43.06-.06.2-.14.4-.16.12-.02.21.06.3.13.03.02.06.02.09 0a.15.15 0 0 0 .06-.13c.05-.3.2-.53.44-.7l.04-.03a.13.13 0 0 0 0-.14.36.36 0 0 1-.01-.43c.11-.14.24-.2.37-.17.4-.15.8-.33 1.18-.55.28-.15.65-.26.96-.25.18.01.28-.1.45-.1.42.01.86-.02 1.25.07.2.05.41.12.64.2.18.07.35.18.52.33.03.03.05.02.07-.01l.03-.08Z" fill="#DC321C"/><path d="M5.26 8.89c0 .07-.04.1-.1.1H5.1c-.08-.04-.1-.15-.18-.17-.08-.02-.13-.08-.16-.17.08-.2-.03-.32-.14-.46-.03-.04 0-.11.05-.12l.26-.02c.06 0 .16.1.2.03v-.03c.03-.03.06-.04.09-.02.02.02.03.05.03.07-.02.32-.02.58 0 .79Z" fill="#FD6A25"/><path d="M5.8 9.24c-.02.1-.09.13-.2.1-.05-.03-.09-.1-.1-.2.09-.31.05-.6-.11-.86-.05-.08-.03-.11.06-.1a1.93 1.93 0 0 1 .4.13c.06.04.1.1.11.18a.1.1 0 0 1-.04.1c-.19.14-.16.38-.11.65Z" fill="#FCB035"/><path d="M12.05 7.81c.09.12.16.24.22.36.07.16.08.29.02.38-.24.4-.57.18-.9.16-.1 0-.22-.09-.24-.2-.05-.07-.07-.02-.06.15l-.05-.41c0-.03-.01-.04-.04-.04-.52.13-.97.34-1.36.63-.08.06-.14.12-.16.23-.03.23-.08.44-.08.68 0 .08-.01.15-.04.22 0-.02 0-.03-.03-.02-.26-.97-.16-.4-.38.04a2.23 2.23 0 0 1-.04-.54c.02-.23-.07-.33-.27-.32l-.04-.01a.1.1 0 0 1-.03-.03.13.13 0 0 0-.1-.05l-.01-.06.31.08a.2.2 0 0 0 .1 0c.19-.05.37-.07.55-.07.03 0 .05-.02.04-.05 0-.04.01-.08.04-.1.19-.19.4-.32.64-.4l.9-.34a.14.14 0 0 0 .07-.06c.1-.14.23-.23.4-.28.23-.08.41-.06.54.05Z" fill="#F25825"/><path d="M12.05 7.81h.1c-.07 0-.03.04.12.11l.08.19c.17.3.12.58-.15.83a.11.11 0 0 1-.08.03c-.43 0-.77-.1-1.03-.31-.01-.17 0-.22.05-.15.03.11.14.19.24.2.34.02.67.23.91-.16.06-.1.05-.22-.02-.38a2.81 2.81 0 0 0-.22-.36Z" fill="#A11515"/><path d="m9.33 9.95-.02.02h-.06a.55.55 0 0 0-.19-.08.07.07 0 0 1-.05-.05V9.8l.02-.38c0-.02 0-.04.02-.06a.1.1 0 0 1 .05-.03c.07-.02.1-.07.07-.14 0-.02 0-.03.03-.04.04 0 .07-.03.11-.05.03-.02.05-.01.05.02.01.1 0 .2-.03.32a.95.95 0 0 0 0 .5Z" fill="#FD7926"/><path d="M9.2 4.78c-.15.02-1.22.2-.86.32-.85.08-.52.18-1.58.47-.16.04-.75.08-.64.36.01.04 0 .06-.02.08-.02.01-.47.17-.53.17-.06 0-.09-.07-.05-.11a.57.57 0 0 1 .18-.16c.2-.12.37-.3.6-.36l.48-.15c.25-.08.4-.33.63-.45.2-.1.44-.06.65-.09l.7-.17c.13-.04.28 0 .44.1Z" fill="#FEE242"/></svg>