<!-- by TradingView --><svg width="18" height="18" viewBox="0 0 18 18" xmlns="http://www.w3.org/2000/svg"><path fill="url(#a)" d="M0 0h18v18H0z"/><path fill-rule="evenodd" d="M10.5 12a3.5 3.5 0 1 0-2.59-5.86 3 3 0 1 0 .77 5.35c.53.32 1.15.51 1.82.51Zm-1.07-1.24A2.5 2.5 0 1 0 8.05 9H7.04a3.53 3.53 0 0 1 .28-1.97A2 2 0 1 0 9 9h1c0 .66-.21 1.27-.57 1.76Z" fill="#EFEEEC"/><defs><linearGradient id="a" x1="18" y1="9" x2="0" y2="9" gradientUnits="userSpaceOnUse"><stop stop-color="#40A7F9"/><stop offset="1" stop-color="#8D40FE"/></linearGradient></defs></svg>