<!-- by TradingView --><svg width="18" height="18" viewBox="0 0 18 18" xmlns="http://www.w3.org/2000/svg"><path fill="#D29D33" d="M0 0h18v18H0z"/><path d="M8.48 3h1.04a6.02 6.02 0 0 1 5.34 4.7l.14.58v1.3a6.07 6.07 0 0 1-5.4 5.4l-1.14-.01A6.01 6.01 0 0 1 3 9.49L3 8.34c.13-.9.4-1.68.8-2.36A5.97 5.97 0 0 1 8.48 3Z" fill="#86662C"/><path d="M14.75 9A5.73 5.73 0 0 1 9 14.72 5.76 5.76 0 0 1 3.24 9a5.73 5.73 0 0 1 7.96-5.3 5.76 5.76 0 0 1 3.55 5.3Z" fill="#EDBC56"/><path d="M12.6 13.2c0-.12 0-.32.04-.6a.28.28 0 0 0-.12-.27l-.06-.1c.08-.03.13-.08.14-.14-.1-.11-.11-.2-.03-.24.38-.24.17-.63.21-.97.03-.22.03-.5 0-.81-.01-.04 0-.06.03-.08l.08-.04c.06-.04.06-.06-.02-.06h-.05c-.04 0-.05-.02-.05-.06l.1-.47c.01-.06 0-.1-.05-.12a.08.08 0 0 1-.06-.06.53.53 0 0 1 .02-.33.1.1 0 0 0 0-.09l-.29-.63a.32.32 0 0 1-.02-.2 1.6 1.6 0 0 0 0-.72 2.38 2.38 0 0 1-.03-.86c0-.03 0-.07-.02-.1-.17-.3-.14-.7-.23-.97a2.6 2.6 0 0 0-.26-.55c-.04-.02-.07 0-.09.05l.01-.11a.12.12 0 0 0-.06-.11.13.13 0 0 0-.12 0l-.28.1-.06.02a.1.1 0 0 0 0 .07c-.34.2-.55.49-.66.86a.3.3 0 0 1-.2.12l-.35.3a.08.08 0 0 1-.09.01 1.23 1.23 0 0 0-.56-.06c-.32.03-.67-.03-.93-.09-.16-.03-.3.04-.43.04a.08.08 0 0 1-.06-.04l-.23-.4a.15.15 0 0 0-.06-.05l-.11-.07a.11.11 0 0 1-.06-.08.31.31 0 0 0-.1-.2c-.12-.31-.23-.52-.35-.64-.22-.2-.59-.35-.7.06a.75.75 0 0 0-.13.25c-.12.48-.22 1.04-.3 1.68 0 .09.02.14.03.22 0 .04 0 .07-.03.1-.08.1-.12.24-.1.4a.11.11 0 0 1-.03.1c-.2.21-.42.37-.69.47a.08.08 0 0 0-.05.07l-.06.33c-.02.14-.08.17-.16.26a.11.11 0 0 0-.03.1c.02.14.06.26.12.37-.06.06-.04.16.06.27a.63.63 0 0 0-.33.25c-.02.05 0 .08.06.12.01.03.04.06.08.08-.01.06.01.11.07.17-.05.03-.06.06-.05.08a.12.12 0 0 0 .16.04c.04-.01.05-.04.04-.08.02.02.03.04.02.06 0 .04-.03.05-.07.04a.15.15 0 0 0-.07 0c-.04 0-.06.02-.04.06l.47 1.02a.1.1 0 0 1 0 .1c-.05.06-.02.12.07.17l.03.03v.04c-.01.11.01.23.08.35a.2.2 0 0 1 .02.09c0 .12.02.23.06.34.02.03.02.06 0 .09-.08.18.02.32.1.52.02.03.02.06-.02.08a.14.14 0 0 0-.04.04c-.02.04-.02.07 0 .1l.34.48v.04l-.02.03a.04.04 0 0 1-.04 0l-.14-.09c-.03-.01-.05 0-.08.02l-.06.06a5.55 5.55 0 0 1-2.3-4.59A5.52 5.52 0 0 1 6.5 4.03a5.72 5.72 0 0 1 2.5-.6 6 6 0 0 1 2.72.7c.4.2.72.51 1.14.87.56.47 1 1.1 1.3 1.9.42 1.04.57 2 .35 3.1a5.57 5.57 0 0 1-1.9 3.2Z" fill="#D29D33"/><path d="M7.49 5.08a.2.2 0 0 0-.05 0c-.03-.01-.05 0-.05.03l-.01.06-.3-.65c-.2-.28-.41-.25-.6.09a.15.15 0 0 0-.04-.1c.11-.41.48-.27.7-.06.12.12.23.33.35.63Z" fill="#645045"/><path d="M7.09 4.52c-.03.07-.16.12-.4.14-.04 0-.05.02-.04.06v.03a.06.06 0 0 0 .08.04.46.46 0 0 1 .22 0 .5.5 0 0 0-.26.04c-.03.02-.04.04-.02.07l.03.05c0 .03 0 .04-.03.04L6.64 5c-.03 0-.05 0-.05-.03-.02-.05-.07-.07-.15-.06l.04-.3c.19-.34.4-.37.6-.1Z" fill="#D4C0A8"/><path d="m6.48 4.6-.04.3c-.04.28-.13.52-.15.79-.02.28-.04.47-.07.58-.05.17.03.3.08.5 0 .03 0 .05-.03.07a.47.47 0 0 0-.12.14c-.03.06-.02.07.04.04l.24-.12c.22-.12.3-.32.27-.57a1.9 1.9 0 0 1 .03-.65.2.2 0 0 1 .05-.09c.08-.08.1-.18.1-.29-.01-.03 0-.05.04-.05l.1.01.04.04c.25.24.38.56.4.96 0 .03-.02.06-.06.08-.15.08-.29.18-.43.33-.36.38-.6.52-1.18.9a.1.1 0 0 0-.03.02l-.07.12a.08.08 0 0 1-.06.04.48.48 0 0 0-.3.12c-.04.03-.04.05 0 .08.06.04.06.1-.01.16-.03.03-.03.05 0 .08a.6.6 0 0 0 .27.14c-.08.08-.2.08-.33 0-.15-.08-.19-.04-.12.11.02.05.08.1.17.14.03.02.04.04.03.08-.06.12-.17.18-.33.2a.96.96 0 0 1-.12-.38c0-.03 0-.06.03-.09.08-.09.14-.12.16-.26l.06-.33c0-.04.02-.06.05-.07.27-.1.5-.26.7-.47a.11.11 0 0 0 .02-.1c-.02-.16.02-.3.1-.4a.12.12 0 0 0 .03-.1c0-.08-.04-.13-.03-.22.08-.64.18-1.2.3-1.68a.75.75 0 0 1 .13-.25c.03.03.04.07.04.1Z" fill="#040304"/><path d="M7.38 5.17c.05.14.1.28.17.42.06.15.1.33.08.52a.07.07 0 0 0 .03.06.07.07 0 0 0 .06.01l.74-.14h.09c.2.08.33.13.53.1a.5.5 0 0 1 .2.02l.34.01c.11 0 .12.04.02.09l-.15.09a.06.06 0 0 0 0 .1l.7.5c.04.04.11.07.23.1.04 0 .07.03.08.07a.03.03 0 0 1-.05.04l-.09-.03c-.02 0-.03 0-.04.02v.04l.03.04c.12.07.19.16.21.27 0 .03.02.06.04.08l.08.05a.21.21 0 0 0 .18-.03h.08c.04 0 .06.02.06.05l.01.03c0 .04.03.06.06.06.08 0 .13.05.14.12 0 .03.02.06.05.08.05.02.1.09.17.2a.1.1 0 0 0 .06.04l.21.06a.1.1 0 0 1 .07.06c.01.02.03.04.06.05.03.02.06.02.1 0a.36.36 0 0 1 .2-.06c.03 0 .05.01.05.05 0 .06-.03.12-.08.17-.06-.02-.1 0-.15.03a.09.09 0 0 0-.03.09v.18l-.51-.4a.88.88 0 0 1-.3.07l.04-.07c.02-.04 0-.06-.03-.07h-.06a.07.07 0 0 0-.05.04c-.02.04-.01.08.03.11-.33 0-.64.14-.93.42.39-.36.34-.7-.14-1 .04-.19.03-.37-.02-.56L10 7.3c-.06-.26-.23-.33-.5-.23-.22-.1-.43.05-.64.45a.77.77 0 0 0-.16.61c0 .04.02.05.06.05.17.02.28.08.33.2-.03.12-.11.17-.24.15-.03 0-.04 0-.03.03v.03l.02.02c.06 0 .1 0 .15-.03a.1.1 0 0 1 .09 0c.12.05.21.18.28.37.11.18.04.22-.23.1-.22-.08-.54-.03-.78-.01-.03 0-.06 0-.09-.02-.16-.1-.29-.13-.39-.1l-.48-.05.02-.06a.07.07 0 0 0-.05-.07l-.18-.09c.3-.14.43-.37.37-.68.04.05.08.08.12.08.04 0 .06-.01.08-.05.14-.29.17-.59.1-.9a.42.42 0 0 0-.1-.18c-.1-.1-.17-.1-.24-.05-.26-.08-.42 0-.48.24a.83.83 0 0 1-.2.26c-.04.02-.04.06-.02.1l.03.05a.06.06 0 0 1 0 .07c-.13.13-.16.22-.11.3-.08.1-.14.2-.18.3-.1-.02-.17-.01-.21.02a.12.12 0 0 1-.1.03.13.13 0 0 1-.1-.06.51.51 0 0 0-.4-.22c-.03 0-.06 0-.08.03-.1.08-.12.19-.07.33a.6.6 0 0 1-.28-.14c-.02-.03-.02-.05 0-.08.08-.06.08-.12.02-.16-.04-.03-.04-.05 0-.08.07-.07.17-.11.3-.12.03 0 .05-.01.06-.04l.07-.12a.1.1 0 0 1 .03-.03c.57-.37.82-.51 1.18-.9.14-.14.28-.24.43-.32a.08.08 0 0 0 .05-.08c0-.4-.14-.72-.39-.96.1-.2.06-.37-.1-.5a.46.46 0 0 0-.23 0 .06.06 0 0 1-.08-.05v-.03c-.01-.04 0-.06.04-.06.24-.02.37-.07.4-.14l.3.65ZM11.84 4.78l-.05.1-.08.1a.08.08 0 0 1-.08.02.2.2 0 0 0-.22.05c-.12.13-.18.2-.19.23-.04.08-.09.27-.16.57a.45.45 0 0 0-.16.29c0 .04-.03.06-.07.06h-.08c-.04 0-.07.01-.08.05-.08.23-.04.39.13.47l.03.1c.01.06.02.1 0 .13-.01.04-.03.04-.06 0-.14-.2-.32-.37-.53-.5l-.02-.06a.06.06 0 0 1 .01-.04.06.06 0 0 1 .05-.02c.1 0 .16-.04.17-.13a.1.1 0 0 1 .06-.08c.17-.09.26-.24.26-.45l.58-.88v-.02c-.02 0-.02-.01-.03-.02l.01-.07.06-.03c.1-.02.19-.06.28-.1a.13.13 0 0 1 .17.06l.01.06v.11Z" fill="#E2A956"/><path d="M12.57 11.85c-.02-.1 0-.19.06-.28v-.11a.03.03 0 0 0-.06 0c-.13.18-.23.36-.32.55-.06.12-.22.27-.5.44a.17.17 0 0 1-.1.02c-.27-.02-.51.05-.74.23a.14.14 0 0 0-.05.08c-.04.14-.12.22-.24.25a.12.12 0 0 0-.08.06c-.07.12-.18.1-.25.17a.49.49 0 0 0-.08.14c-.03.07-.12.18-.25.34-.04.04-.05.03-.05-.02.02-.16.12-.27.14-.41l.05-.25c0-.03.02-.06.04-.08l1.02-.89h.02c.09-.02.14-.06.16-.14 0-.03.03-.05.06-.07.24-.15.3-.31.22-.5.03 0 .06-.02.1-.04.35-.1.21-.36.23-.62-.02-.04.04-.09.19-.15.12-.05.16-.16.14-.32l.12-.1c.06-.09.04-.11-.05-.09a.38.38 0 0 1-.22 0c-.09-.02-.09-.06-.01-.1.1-.05.22-.08.36-.09.04 0 .06-.02.07-.05v-.08c-.02-.03-.05-.04-.08-.03a.45.45 0 0 1-.22.04h-.02v-.03c0-.01 0-.03.02-.03.15-.04.26-.12.3-.23a.13.13 0 0 0 .02-.08L12.5 9c-.01-.04 0-.05.04-.05.03 0 .06 0 .1-.02.07-.01.07-.03 0-.03l-.23.04a.07.07 0 0 1-.08-.09c.02-.05.07-.08.16-.08a.06.06 0 0 0 .06-.05V8.7c-.08-.14-.14-.19-.21-.13-.11 0-.13-.06-.05-.18.02-.03.02-.06 0-.08a2.57 2.57 0 0 0-.28-.28c-.12-.1-.13-.23-.1-.36.01-.03 0-.06-.02-.09-.04-.03-.05-.08-.03-.12.03-.01.03-.05 0-.1a.08.08 0 0 1 .02-.09.2.2 0 0 0 .04-.19c.06-.02.1-.06.12-.14 0-.04.03-.06.06-.07.07-.02.1-.08.08-.16a5.5 5.5 0 0 1-.07-.68c-.02-.34-.12-.65-.19-.98l-.13-.16.05-.1c.02-.05.05-.07.1-.05l.01.02c.1.18.19.35.24.53.1.27.06.68.23.97.02.03.03.07.02.1-.04.29-.03.57.03.86.05.27.05.48 0 .72-.01.07 0 .14.02.2l.29.63a.1.1 0 0 1 0 .09.54.54 0 0 0-.02.33c.01.03.03.05.06.06.05.02.06.06.05.12l-.1.47c0 .04.01.06.05.06h.05c.08 0 .08.02.02.06l-.08.04a.08.08 0 0 0-.04.08c.04.32.04.59.01.8-.04.35.17.74-.21.98Z" fill="#040304"/><path d="m11.32 4.75.02.02c.02 0 .02.01.01.02l-.58.88-.04.02c-.02 0-.04 0-.05-.03l-.01-.05c.1-.37.32-.66.65-.86Z" fill="#645045"/><path d="M6.95 4.8c.17.13.2.3.11.5l-.04-.04-.06-.22A.07.07 0 0 0 6.91 5l-.04-.01c-.04-.01-.06 0-.05.05.04.14.01.23-.1.28a.1.1 0 0 0-.05.08c-.03.24-.11.45-.24.62a.09.09 0 0 0 0 .08.08.08 0 0 0 .05.05c.03.01.05.04.05.09a.2.2 0 0 1-.03.09.93.93 0 0 0-.07.58l-.24.12c-.06.03-.07.02-.04-.04.03-.05.07-.1.12-.14a.07.07 0 0 0 .03-.07c-.05-.2-.13-.33-.08-.5.03-.1.05-.3.07-.58.02-.27.11-.51.15-.78.08-.01.13 0 .15.06 0 .03.02.04.05.03h.03c.02-.01.03-.02.03-.05a.11.11 0 0 0-.03-.05c-.02-.03-.01-.05.02-.07a.5.5 0 0 1 .26-.03Z" fill="#F6F1E4"/><path d="m11.8 4.88.12.16c-.07 0-.11.03-.11.08a.47.47 0 0 0-.42.23l-.33.5c.07-.3.12-.5.16-.57.01-.02.07-.1.2-.23a.2.2 0 0 1 .21-.05.08.08 0 0 0 .08-.03l.08-.09Z" fill="#8C603D"/><path d="M7.02 5.26h-.1c-.03-.01-.05 0-.05.04.02.11-.01.21-.1.3a.2.2 0 0 0-.04.08c-.05.2-.06.42-.03.65.02.25-.05.45-.27.57a.93.93 0 0 1 .07-.58.2.2 0 0 0 .03-.1c0-.04-.02-.07-.05-.08a.08.08 0 0 1-.06-.09l.01-.04c.13-.17.2-.38.24-.62a.1.1 0 0 1 .06-.08c.1-.05.13-.14.1-.28-.02-.05 0-.06.04-.05l.04.01c.03 0 .05.03.05.05l.06.22Z" fill="#645045"/><path d="M11.92 5.04c.07.33.17.64.19.98.02.32.04.54.07.68.02.08 0 .14-.08.16a.08.08 0 0 0-.06.07c-.02.08-.06.12-.12.14a.45.45 0 0 0-.24.01c-.02 0-.03 0-.04-.02V7c.13-.14.2-.27.2-.4 0-.24.01-.47.03-.7a.06.06 0 0 0-.04-.07.08.08 0 0 0-.03-.01l-.04-.02a.14.14 0 0 1-.04-.04l-.15-.24a.1.1 0 0 1-.01-.09c.03-.09.12-.2.25-.31 0-.05.04-.08.11-.08Z" fill="#C7A587"/><path d="M7.49 5.08c.06.05.1.12.1.2 0 .04.03.07.06.1l.11.06c.03.01.05.03.06.05l.23.4a.08.08 0 0 0 .06.04c.13 0 .27-.07.43-.04.26.06.61.12.93.09.2-.03.38 0 .56.06.03.01.06 0 .09-.01l.36-.3-.09.5a.07.07 0 0 1-.03.05.07.07 0 0 1-.06 0 2.22 2.22 0 0 0-1.02-.12.5.5 0 0 0-.2-.02c-.2.03-.33-.02-.53-.1a.16.16 0 0 0-.09 0l-.74.14a.07.07 0 0 1-.08-.04v-.03c0-.2-.03-.37-.1-.52a7.94 7.94 0 0 1-.16-.42v-.06c.01-.03.03-.04.06-.04a.2.2 0 0 1 .05.01ZM11.8 5.12a.86.86 0 0 0-.24.31.1.1 0 0 0 0 .09l.16.24.04.04.04.02h.03c.03.02.04.04.04.07l-.03.7c0 .14-.07.27-.2.4l-.15.03c-.04 0-.06.02-.05.06l.03.14c0 .04-.01.06-.05.06h-.2a1.33 1.33 0 0 1-.39-.47l-.03-.09.26-.87.33-.5c.1-.16.25-.23.42-.23Z" fill="#040304"/><path d="m10.67 5.61.01.05c.01.03.03.03.05.03l.04-.02c0 .21-.09.36-.26.45a.1.1 0 0 0-.06.08c0 .09-.07.13-.17.13a.06.06 0 0 0-.05.02.06.06 0 0 0-.01.04c0 .03 0 .05.02.06.21.13.39.3.53.5.03.04.05.04.06 0 .02-.03.01-.07 0-.14.1.2.23.36.39.48l.36.03a.35.35 0 0 1-.2.04c-.04 0-.06 0-.06.04a.8.8 0 0 0 0 .04c0 .03 0 .06.04.08.07.05.15.08.24.07a.1.1 0 0 1 .09.04l.03.06c.01.04.03.04.06.02a.13.13 0 0 0 .04-.04v-.09c-.02-.08 0-.12.04-.13-.02.04 0 .09.03.12s.03.06.02.09c-.03.13-.02.27.1.36.06.04.15.14.28.28.02.02.02.05 0 .08-.08.12-.06.19.05.18a.75.75 0 0 1-.2.22c-.03.02-.06.02-.1 0a.06.06 0 0 1-.01-.05V8.7c.01-.01.04-.03.09-.04.03-.01.04-.03.03-.06a.2.2 0 0 0-.05-.08c.05-.05.08-.1.08-.17 0-.04-.02-.05-.06-.05a.36.36 0 0 0-.2.06.09.09 0 0 1-.1 0 .12.12 0 0 1-.05-.05.1.1 0 0 0-.07-.06l-.2-.06a.1.1 0 0 1-.07-.05.58.58 0 0 0-.17-.2.1.1 0 0 1-.05-.07c-.01-.07-.06-.12-.14-.12-.03 0-.05-.02-.06-.06v-.03c-.01-.03-.03-.05-.07-.06l-.08.01a.21.21 0 0 1-.18.03.18.18 0 0 1-.08-.05.17.17 0 0 1-.04-.08.43.43 0 0 0-.2-.27c-.02 0-.03-.02-.04-.04v-.04l.04-.02.1.03a.03.03 0 0 0 .04-.04c-.01-.04-.04-.07-.08-.07-.12-.03-.2-.06-.23-.1a10.3 10.3 0 0 0-.73-.52.06.06 0 0 1 .03-.08l.15-.09c.1-.05.09-.08-.02-.09l-.34-.01a2.22 2.22 0 0 1 1.05.13.07.07 0 0 0 .06-.06l.09-.5a.3.3 0 0 0 .19-.12Z" fill="#8C603D"/><path d="m11.06 5.85-.26.87c-.17-.08-.21-.24-.13-.47.01-.04.04-.05.08-.05h.08c.04 0 .06-.02.07-.06a.45.45 0 0 1 .16-.3Z" fill="#645045"/><path d="m8.62 6.84-.3.79c-.01.05 0 .06.05.02a.24.24 0 0 0 .09-.13c0-.04.03-.06.06-.06l.23-.02a.42.42 0 0 1-.2.22.12.12 0 0 0-.06.07.37.37 0 0 1-.07.14c-.03.03-.05.03-.08 0l-.1-.12a.15.15 0 0 1-.03-.1l.04-.4c.04-.2.05-.37.04-.5 0-.05.01-.07.03-.09.03 0 .04 0 .05.02.02.04.02.08 0 .12-.01.03 0 .05.01.07l.04.01c.02 0 .04 0 .05-.03a.3.3 0 0 1 .17-.14c.04-.02.06 0 .05.05 0 .03-.02.05-.07.08Z" fill="#040304"/><path d="M7.55 7.98c-.04-.14-.14-.24-.3-.3-.18-.06-.36.01-.52.22-.05-.08-.02-.17.1-.3a.06.06 0 0 0 .01-.07l-.03-.06c-.02-.03-.02-.07.01-.1.1-.09.18-.17.21-.25.36-.05.52-.13.48-.24.07-.06.14-.04.23.05.05.05.08.11.1.19.08.3.05.6-.1.9a.08.08 0 0 1-.07.04c-.04 0-.08-.03-.12-.08Z" fill="#F6F1E4"/><path d="M7.5 6.88c.05.11-.1.2-.47.24.06-.24.22-.32.48-.24Z" fill="#040304"/><path d="m8.62 6.84.03.07a.05.05 0 0 0 .02.03.06.06 0 0 0 .05 0 .1.1 0 0 0 .05-.05c.02-.03.04-.04.06-.02l.03.03c.02.03.01.06-.03.08h-.04c-.02 0-.02.02-.01.04.02.05.07.07.13.07.05 0 .06.01.03.05l-.2.3-.22.02a.07.07 0 0 0-.06.06.24.24 0 0 1-.1.13c-.04.04-.05.03-.03-.02l.3-.79Z" fill="#645045"/><path d="M8.67 7.07v-.03c0-.03.02-.03.04-.03l.03.01.01.03c0 .07-.03.15-.09.26-.02.04-.04.04-.06 0-.03-.07-.02-.12.04-.18a.1.1 0 0 0 .03-.06Z" fill="#040304"/><path d="M11.64 7v.06c0 .02.02.02.04.02.05.11.02.2-.1.24l-.36-.03.2-.01c.04 0 .05-.02.05-.06l-.03-.14c0-.04.01-.06.05-.06l.15-.02Z" fill="#645045"/><path d="M9.5 7.08c-.15.17.02.25.5.23l-.05.04c.01.1 0 .2-.04.29-.01.03-.04.04-.07.03a.43.43 0 0 1-.17-.1c-.03-.03-.06-.03-.09 0-.12.08-.24.15-.32.29l-.15.25c-.04.06-.1.08-.17.06l-.13-.03c-.1-.03-.13-.1-.08-.2.1-.18.14-.32.13-.41.21-.4.42-.54.64-.45Z" fill="#F6F1E4"/><path d="M11.92 7.07a.2.2 0 0 1-.04.2.08.08 0 0 0-.01.08c.02.05.02.09-.01.1-.05.01-.06.05-.04.13v.09l-.04.04c-.03.02-.05.02-.06-.02a.16.16 0 0 0-.03-.06.1.1 0 0 0-.09-.04.36.36 0 0 1-.24-.07c-.03-.02-.05-.05-.05-.08a.8.8 0 0 1 0-.04c.01-.03.03-.05.07-.04.07 0 .14 0 .2-.04.12-.05.15-.13.1-.24a.44.44 0 0 1 .24-.01Z" fill="#E2A956"/><path d="M9.97 7.9c-.47-.1-.76.07-.88.5-.05-.13-.16-.2-.33-.2-.04 0-.06-.02-.06-.06a.77.77 0 0 1 .16-.61c0 .09-.04.23-.13.42-.05.1-.02.16.08.19l.13.03c.07.02.13 0 .17-.06l.15-.25c.08-.14.2-.2.32-.3.03-.02.06-.02.09 0 .05.06.1.09.17.11.03.01.06 0 .07-.03.04-.1.05-.19.04-.3.05.2.06.38.02.57Z" fill="#D4C0A8"/><path d="m12.09 7.68.12-.1c.04-.04.06-.03.07.01.02.07 0 .14-.07.21v.01h-.04l-.08-.1v-.03Z" fill="#8C603D"/><path d="M10.78 7.98c-.07.08-.1.15-.1.21.01.04.03.05.07.03.09-.05.17-.11.24-.2.07.15.05.27-.05.35a.36.36 0 0 1-.18.05c-.1.01-.17.03-.2.06-.02.03-.05.03-.08.01a.1.1 0 0 1-.03-.03.07.07 0 0 1 0-.08c.04-.07.06-.12.06-.15a.26.26 0 0 0-.05-.13.6.6 0 0 1-.1-.39c.01-.04.03-.05.07-.04.04.02.07.04.08.07.06.16.15.24.27.24Z" fill="#645045"/><path d="M7.55 7.98c.06.31-.06.54-.37.68-.18.08-.32.07-.44-.05a.49.49 0 0 1-.1-.2.73.73 0 0 0-.09-.21c.04-.1.1-.2.18-.3.16-.2.34-.28.53-.21.15.05.25.15.3.3Z" fill="#040304"/><path d="M6.92 8.51c0 .04-.01.07-.06.08a.5.5 0 0 1-.14-.18.24.24 0 0 1 0-.2c.1-.26.5-.53.7-.2a.04.04 0 0 1-.05.07c-.24-.04-.57.13-.45.43Z" fill="#F6F1E4"/><path d="M9.97 7.9c.48.31.53.65.14 1.01a.97.97 0 0 1-.75.05c-.07-.2-.16-.32-.28-.37a.1.1 0 0 0-.1 0 .23.23 0 0 1-.14.03l-.02-.02v-.03c0-.02 0-.03.03-.03.13.02.21-.03.24-.15.12-.42.41-.58.88-.48ZM11 8.03a.98.98 0 0 1-.25.2c-.04.01-.06 0-.06-.04 0-.06.02-.13.1-.21a.66.66 0 0 1 .24-.1.04.04 0 0 1 .03.02l.01.01v.02c0 .04-.03.07-.08.1Z" fill="#040304"/><path d="m6.55 8.2.1.2c.03.1.06.17.1.21.1.12.25.13.43.05l.18.09c.03.01.05.04.05.07 0 .02 0 .04-.02.06a.9.9 0 0 0-.54.33.1.1 0 0 0-.01.09c.05.16.16.26.32.31l.02.01v.03h-.02a.54.54 0 0 1-.18-.02c-.1-.05-.12-.03-.07.07.03.05.1.12.2.22l-.58.23c-.12-.1-.2-.19-.23-.25-.04-.07-.1-.24-.16-.49-.02-.04 0-.07.04-.1l.12-.05a.07.07 0 0 0 .01-.11.49.49 0 0 0-.27-.1c-.24-.2-.53-.04-.44.24-.02.13.02.2.13.23h.06l.11-.04c.04 0 .07 0 .08.04l.1.28a.58.58 0 0 0-.43.12v.02l.03.02h.04l.36-.13c.13.32.33.51.62.59h.54c.2-.02.4.02.6.09l-.16.15a.72.72 0 0 0-.63.06c-.1.06-.1.09.02.08h.38c.03.1.01.15-.05.15a.17.17 0 0 0-.14.2l.03.18c0 .04-.01.07-.05.08-.12.04-.16.14-.1.3v.03c0 .03-.02.04-.05.05-.05-.11-.12-.16-.2-.16-.03 0-.05.01-.04.05.02.15.09.3.2.43l.27.26c.07.14.2.26.38.36.06.04.1.1.09.21 0 .04.01.07.04.1l.05.06c.02.03.03.07 0 .1l-.1.18a.13.13 0 0 0 0 .13l.1.21c0 .03.03.04.06.02l.36-.25.11-.08c.02-.01.04 0 .06.01v.04a1.3 1.3 0 0 1-.43.5l.02.03c.01.01.03.02.04 0l.23-.2a.04.04 0 0 1 .05 0l.03.03-.02.02-.3.32v.02h.04a1 1 0 0 0 .28-.26c.02-.03.05-.03.06 0l.02.08-.26.42a.12.12 0 0 1-.14.06l-1-.28a.17.17 0 0 1-.1-.07.79.79 0 0 1-.1-.57l-.01-.3c.13.03.26.15.41.36.05.08.16.12.33.14.03 0 .05-.01.05-.05l-.03-.39a.1.1 0 0 0-.05-.08 1.32 1.32 0 0 1-.5-.61.17.17 0 0 0-.06-.08.32.32 0 0 1-.13-.15c-.08-.17-.2-.33-.38-.48-.02-.02-.04-.01-.04.01l-.01.03.01.04.42.48a.03.03 0 0 1 0 .03.03.03 0 0 1-.03.02l-.16-.01c-.05 0-.07.02-.05.06l.07.04c.02.02.02.03-.01.04-.04 0-.1-.01-.18-.06-.08-.03-.1-.02-.05.05.06.11.17.16.32.16l.02.04c.01.02 0 .03-.02.02l-.3-.04-.1-.15a.14.14 0 0 1-.04-.1c0-.19.04-.32-.09-.51a3 3 0 0 0-.34-.43l-.2-.24.17-.07c.03-.02.04-.04.02-.07l-.16-.36-.29-.3a.09.09 0 0 1 .02-.13l.62-.34c.01-.01.02-.02.01-.03H6.1l-.69.34c-.03.02-.05.01-.07-.01-.02-.02-.03-.07-.03-.13 0-.03.02-.06.04-.09.05-.04.06-.09.03-.13a.33.33 0 0 1-.04-.21c0-.03 0-.06-.04-.08a.16.16 0 0 0-.1-.01h-.04c-.02-.02-.03-.05 0-.09l.09-.03c.03-.02.03-.04 0-.06a.23.23 0 0 0-.13-.02l-.03-.2a.13.13 0 0 0 .06-.1.1.1 0 0 0-.02-.08.38.38 0 0 0-.06-.07c-.1-.11-.12-.2-.06-.27.16-.02.27-.08.33-.2.01-.04 0-.06-.03-.08-.1-.04-.15-.09-.17-.14-.07-.15-.03-.19.12-.1.14.07.25.07.33 0-.05-.15-.03-.26.07-.34a.11.11 0 0 1 .08-.03c.18.01.31.09.4.22a.14.14 0 0 0 .1.06.13.13 0 0 0 .1-.03c.04-.03.1-.04.21-.02ZM9.69 8.35c.01 0 .02 0 .03.02.02.03.01.06-.02.07a.25.25 0 0 1-.15.03.1.1 0 0 0-.1.1.1.1 0 0 0 0 .05l.1.21c.01.03 0 .05-.03.05-.18-.02-.26-.12-.27-.29 0-.37.18-.54.54-.5.21.02.33.14.36.37 0 .04 0 .04-.03.01a1.73 1.73 0 0 1-.09-.1c-.1-.15-.23-.17-.36-.07-.03.02-.02.04.02.05Z" fill="#F6F1E4"/><path d="m11.1 8.48-.06.01c-.04-.03-.05-.07-.03-.1a.07.07 0 0 1 .05-.05h.06c.04 0 .05.03.03.07l-.04.07Z" fill="#645045"/><path d="M11.91 8.81c.09.02.15.04.2.08.02.02.03.05.01.08L11.74 10l-1.31 1.32a.08.08 0 0 1-.07.02l-.48-.05c-.04 0-.06-.03-.06-.07v-.53c0-.03.01-.06.05-.07l.23-.1c.05.02.08.05.09.08.02.05 0 .06-.04.05l-.12-.04c-.03-.01-.05 0-.05.03v.25a.1.1 0 0 0 .07.09.1.1 0 0 0 .04 0c.5-.1.85-.44 1.24-.77a.1.1 0 0 0 .04-.08c0-.2-.06-.48.03-.65a.77.77 0 0 1 .5-.41c.1-.03.1-.06.02-.11l-.43-.25a.12.12 0 0 1-.05-.07.8.8 0 0 1-.03-.22l.5.4Z" fill="#D4C0A8"/><path d="M11.4 8.42c0 .08.02.16.04.22 0 .03.03.06.05.07l.43.25c.09.05.08.08-.02.1a.77.77 0 0 0-.5.42c-.1.17-.03.45-.03.65a.1.1 0 0 1-.04.08c-.4.33-.75.67-1.24.77a.1.1 0 0 1-.1-.05.1.1 0 0 1 0-.04v-.25c0-.03 0-.04.04-.03l.12.04c.05.01.06 0 .04-.05-.01-.03-.04-.06-.1-.08a.08.08 0 0 0-.04-.03l-.03-.03c-.05-.02-.08-.04-.08-.08l.68-.52c.03-.02.06-.02.09.01l.03.09a.03.03 0 0 0 .02.02.03.03 0 0 0 .04 0 .5.5 0 0 0 .14-.34.1.1 0 0 0-.04-.09c-.33-.2-.62-.2-.86.03-.1.1-.09.13.05.1a.68.68 0 0 1 .18-.03c.05 0 .06.02.03.06a.76.76 0 0 1-.3.26h-.02l-1.04-.3c-.05 0-.06 0-.04.05h.03l.89.23c.11.03.12.07.03.14l-.15.1a.25.25 0 0 1-.27.03l-.45-.2-.16-.06a.12.12 0 0 1-.06-.05.33.33 0 0 0-.26-.17c-.03 0-.05-.03-.06-.06a.48.48 0 0 0-.13-.31c-.03-.23-.27-.31-.44-.44.1-.03.23 0 .4.1l.08.02c.24-.02.56-.07.78.02.27.1.34.07.23-.1.29.07.54.06.75-.06.3-.28.6-.42.93-.42h.07c.07 0 .17-.03.3-.07Z" fill="#F6F1E4"/><path d="M12.1 8.51a.2.2 0 0 1 .05.08c0 .03 0 .05-.03.06-.05.01-.08.03-.08.04-.01.01-.02.03-.01.04 0 .02 0 .03.02.04.03.03.06.03.09.01a.75.75 0 0 0 .2-.22c.07-.06.13-.01.2.13v.03a.06.06 0 0 1-.02.05h-.03c-.09 0-.14.03-.16.08a.07.07 0 0 0 .04.09h.04l.23-.04c.07 0 .07.02 0 .03a.34.34 0 0 1-.1.02c-.04 0-.05.01-.04.05l.07.38-.01.08c-.05.11-.16.19-.3.23-.03 0-.04.02-.04.03v.02l.03.01c.08.01.15 0 .22-.04.03-.01.06 0 .07.03.01.03.02.05 0 .08 0 .03-.02.05-.06.05a.83.83 0 0 0-.36.1c-.08.03-.08.07 0 .1.08.02.15.02.23 0 .09-.03.1 0 .05.07a.74.74 0 0 1-.12.1.7.7 0 0 1-.37.06c-.05 0-.06 0-.04.05.05.07.12.11.2.12.03 0 .05.02.06.05v.05c-.14.06-.2.1-.18.15l-.65-.11c.13-.13.27-.21.42-.26.03 0 .04-.02.02-.04a.2.2 0 0 0-.06-.04c-.07-.04-.07-.06 0-.06.12 0 .22.02.32.05a.07.07 0 0 0 .08-.04l.02-.04v-.03a.05.05 0 0 0-.04-.05.7.7 0 0 1-.32-.1l.38-1.03a.07.07 0 0 0-.02-.08.36.36 0 0 0-.19-.08.45.45 0 0 0 0-.18c0-.04.01-.06.04-.09.04-.04.1-.05.15-.03Z" fill="#A68466"/><path d="M7.87 8.93c.17.13.4.21.44.44.03.22-.06.4-.26.55-.04.03-.2.07-.47.12a.14.14 0 0 0-.06.03.33.33 0 0 0-.07.08c-.02.04-.04.04-.05 0l-.02-.08a.1.1 0 0 0-.06-.06l-.2-.09a1.2 1.2 0 0 1-.2-.22c-.06-.1-.04-.12.06-.07l.18.03.02-.01v-.03h-.02a.46.46 0 0 1-.32-.32.1.1 0 0 1 .01-.1.9.9 0 0 1 .54-.32l.48.05Z" fill="#040304"/><path d="M6.04 9.04c-.18.07-.32.15-.44.25-.09-.28.2-.43.44-.25Z" fill="#938B81"/><path d="M6.04 9.04c.1.01.2.05.27.1a.07.07 0 0 1-.01.12l-.12.06c-.04.02-.06.05-.04.1.06.24.12.4.16.48.03.06.1.15.23.25.29.13.58.15.87.05a.13.13 0 0 1 .1 0c.66.27 1.18.38 1.84.17.12-.04.12-.08 0-.12-.1-.04-.23-.12-.36-.23l.45.2c.1.05.18.04.27-.02l.15-.1c.1-.08.08-.12-.03-.15l-.9-.22H8.9c-.02-.05-.01-.07.04-.05l1.04.29a.05.05 0 0 0 .05 0 .76.76 0 0 0 .27-.26c.03-.04.02-.06-.03-.06-.07 0-.13 0-.18.02-.14.04-.15 0-.05-.09.24-.22.53-.23.86-.03a.1.1 0 0 1 .04.09.5.5 0 0 1-.14.33.04.04 0 0 1-.04.01h-.02v-.02a.17.17 0 0 0-.03-.09c-.03-.03-.06-.03-.1 0l-.67.51c-.73.32-1.34.44-2.1.13-.2-.07-.4-.1-.6-.1-.31.02-.5.02-.54 0-.29-.07-.5-.26-.62-.58V9.8l-.1-.28c-.01-.03-.04-.05-.08-.04l-.1.03h-.07c-.11-.01-.15-.09-.13-.22.12-.1.26-.18.44-.25Z" fill="#040304"/><path d="M7.09 9.18a.02.02 0 0 1-.02-.01c0-.04.03-.07.08-.09a.52.52 0 0 1 .19-.04h.03a.62.62 0 0 1 .19.03l.06.04.02.04a.02.02 0 0 1-.02.02l-.53.01Z" fill="#F6F1E4"/><path d="m5.07 9.13.06.07c.02.03.03.05.02.08 0 .04-.03.07-.06.1-.1.07-.2.1-.29.12-.06-.04-.08-.07-.06-.12.06-.1.17-.19.33-.25Z" fill="#040304"/><path d="M6.3 9.43a.02.02 0 0 1 0-.03c.06-.06.12-.05.18 0 .04.04.03.05-.01.06-.05 0-.1 0-.16-.03Z" fill="#7B685C"/><path d="M8.98 10.02c.13.11.25.19.36.23.12.04.12.08 0 .12-.66.2-1.18.1-1.85-.17a.13.13 0 0 0-.1 0c-.28.1-.57.08-.86-.05l.59-.23.2.09a.1.1 0 0 1 .06.06l.02.08c.01.04.03.04.05 0a.33.33 0 0 1 .07-.08.14.14 0 0 1 .06-.03c.27-.05.43-.1.47-.12.2-.14.29-.33.26-.55.08.08.12.18.13.3 0 .04.03.07.06.07.12.02.2.08.26.17.01.02.03.04.06.05l.16.06Z" fill="#C7A587"/><path d="m5.09 9.37.03.2c-.11-.02-.2-.02-.24 0a.15.15 0 0 1-.08-.07.66.66 0 0 0 .29-.13Z" fill="#7B685C"/><path d="M5.12 9.58c.04 0 .08 0 .13.02.03.02.03.04 0 .06a.32.32 0 0 1-.1.03c-.02.06-.05.09-.1.08l-.1-.02c-.06-.06-.08-.11-.07-.17.05-.03.13-.03.24 0Z" fill="#645045"/><path d="M5.15 9.7c-.02.03-.01.06.01.08h.03l.11.01c.03.02.04.05.04.08-.01.08 0 .15.04.22.03.03.02.08-.03.12a.15.15 0 0 0-.04.1c0 .05 0 .1.03.12.02.02.04.03.07.01l.7-.35.02.01-.01.03-.62.34a.09.09 0 0 0-.04.1l.02.04.3.3-.1.1c-.02.02-.02.05 0 .08.05.06.05.1 0 .15-.04.02-.05.05-.03.08.02.04.05.07.1.08l.19.24c.06.12.1.25.12.37 0 .03.01.06.04.08l.04.05a.04.04 0 0 1 0 .04l-.02.01H6.1a.17.17 0 0 1-.12-.1.13.13 0 0 0-.07-.06l-.09-.02a.04.04 0 0 0-.03.03.04.04 0 0 0 .01.04c.07.05.08.12.03.21a.09.09 0 0 0 0 .1c.1.17.17.3.24.38.2.25.28.48.44.77 0 .02.06.1.16.23.06.1.1.19.09.28l-1.05-.6.06-.05c.03-.03.05-.03.08-.02a4.38 4.38 0 0 0 .18.09l.02-.03v-.04l-.35-.48c-.01-.03-.01-.06.01-.1l.04-.04c.04-.02.04-.05.03-.08-.09-.2-.19-.34-.1-.52a.11.11 0 0 0 0-.1.85.85 0 0 1-.07-.33.2.2 0 0 0-.02-.1.55.55 0 0 1-.07-.34l-.01-.04a.08.08 0 0 0-.03-.03c-.1-.05-.12-.1-.08-.18a.1.1 0 0 0 0-.1l-.46-1.01c-.02-.04 0-.06.04-.07l.07.01c.04.01.07 0 .07-.04 0-.02 0-.04-.02-.06l-.05-.02c.05 0 .08-.02.1-.08Z" fill="#040304"/><path d="M7.97 9.74c.02 0 .03.01.02.03-.03.05-.07.07-.13.06-.03 0-.04-.02 0-.04a.19.19 0 0 1 .11-.05Z" fill="#645045"/><path d="m4.95 9.75.1.02.05.02c.01.04 0 .07-.04.08a.12.12 0 0 1-.16-.04c-.01-.02 0-.05.05-.08Z" fill="#F6F1E4"/><path d="M6.56 9.97c.07-.01.11-.05.1-.07 0-.02-.06-.03-.12-.01-.06.02-.1.05-.1.07 0 .02.06.03.12.01Z" fill="#938B81"/><path d="M11.74 10c.12.06.22.1.32.1a.05.05 0 0 1 .05.05v.03l-.03.04a.07.07 0 0 1-.08.04c-.1-.03-.2-.04-.31-.05-.08 0-.08.02 0 .06l.05.04c.02.02.01.03-.02.04-.15.05-.3.13-.42.26.12.13.26.21.42.24a.07.07 0 0 1 .05.08l-.01.03a.19.19 0 0 1-.14.05h-.27c-.04 0-.06.01-.06.05 0 .22-.38.27-.52.4-.21.2-.4.37-.6.5a.2.2 0 0 1-.24-.02.83.83 0 0 1-.22-.33.09.09 0 0 0-.12-.05.34.34 0 0 0-.08.07.09.09 0 0 1-.1.02l-.21-.06a.1.1 0 0 1-.07-.06l-.09-.26a.32.32 0 0 0-.18-.16.08.08 0 0 0-.09.02.5.5 0 0 1-.35.14c-.04 0-.06.02-.07.05a.83.83 0 0 0 .01.36c.02.05 0 .08-.06.09-.05 0-.09.02-.1.04-.01.04 0 .06.04.05.13 0 .2.02.2.07 0 .04-.01.06-.05.05l-.3-.08a.1.1 0 0 1-.07-.06L8 11.76a.12.12 0 0 0-.08-.07c-.17-.04-.3-.1-.38-.16a.1.1 0 0 0-.09-.02c-.1.03-.17.04-.22 0-.04-.01-.06 0-.06.04v.24c0 .03-.01.04-.04.03l-.03-.03c.03 0 .05-.02.06-.05v-.03c-.07-.16-.03-.26.1-.3.03-.01.04-.04.04-.08l-.03-.18a.17.17 0 0 1 .08-.17.17.17 0 0 1 .06-.03c.06 0 .07-.06.05-.16.3.08.6.14.9.17.22.02.34.14.55.07.12-.04.28-.06.48-.08.04 0 .05-.02.04-.06a.16.16 0 0 0-.06-.06.13.13 0 0 0-.12-.01c-.2.07-.32.1-.36.1-.35 0-.75-.08-1.2-.26l.16-.15c.76.3 1.37.19 2.1-.13 0 .04.03.06.08.08h-.07a.05.05 0 0 0-.04.05.05.05 0 0 0 .04.05c.05 0 .09-.01.1-.07.02 0 .04.02.05.03l-.23.1a.08.08 0 0 0-.05.07v.53c0 .04.02.07.06.07l.48.05a.08.08 0 0 0 .07-.02l1.3-1.32Z" fill="#C7A587"/><path d="M12.28 10.25c.02.16-.02.27-.14.32l-.01-.05a.06.06 0 0 0-.05-.05.28.28 0 0 1-.2-.12c-.03-.04-.02-.06.03-.05a.7.7 0 0 0 .37-.05Z" fill="#645045"/><path d="M12.56 10.31v-.01l.02-.01a.02.02 0 0 1 .02 0c.04.06.04.11.01.16s-.05.04-.05-.02v-.12ZM12.49 11.22c-.05 0-.08-.02-.08-.07 0-.21.05-.4.16-.55.03-.04.04-.03.03.01l-.11.61Z" fill="#8C603D"/><path d="m11.3 10.6.65.12c-.02.26.13.52-.24.62-.05-.09-.12-.13-.19-.12-.04 0-.1.04-.15.11-.14.2-.33.35-.56.44a.06.06 0 0 0-.04.06l.01.03.03.02.19.05c.03.01.06 0 .08-.02l.54-.53c.09.19.02.35-.22.5a.12.12 0 0 0-.06.07c-.02.08-.07.12-.16.13l-.02.01-1.02.89a.13.13 0 0 0-.04.08l-.05.25c-.02.14-.12.25-.14.41 0 .05.01.06.05.02.13-.16.22-.27.25-.34.02-.06.05-.1.08-.14.07-.08.18-.05.25-.17a.12.12 0 0 1 .08-.06c.12-.03.2-.1.24-.25 0-.03.03-.06.05-.08.23-.18.47-.25.75-.23.03 0 .07 0 .1-.02.27-.17.43-.32.49-.44a4.22 4.22 0 0 1 .35-.57.03.03 0 0 1 .02.03l.02.08a.02.02 0 0 1 0 .02.37.37 0 0 0-.07.28c-.08.05-.07.13.03.24-.15-.07-.27-.06-.36.03l-.15.17c-.3.22-.62.42-.94.6a.85.85 0 0 0-.25.23l-.24.26c-.14.16-.18.3-.1.4a.55.55 0 0 1-.4.4c-.03.02-.05 0-.05-.03 0-.1-.05-.17-.14-.24-.03-.02-.06-.02-.08.01a.65.65 0 0 1-.2.16c-.13.05-.16.02-.07-.1.06-.06.11-.17.17-.32.02-.04 0-.06-.04-.05a.27.27 0 0 0-.12.05.27.27 0 0 0-.1.13.38.38 0 0 1-.07.11.15.15 0 0 0-.04.1c-.01.13-.06.27-.14.41a.18.18 0 0 1-.31.01l-.25-.38c.02-.12.08-.09.2.1 0 .02 0 .02.02.03h.03c.03 0 .04-.02.03-.05a.68.68 0 0 0-.16-.24c-.02-.01-.02-.02-.02-.04v-.05c.02-.04.05-.04.09-.02h.03c.03 0 .03-.02.02-.04l-.06-.11c.04-.07.06-.13.05-.17 0-.02 0-.04.02-.05H9c.02 0 .03.01.04.03v.04c.03.05.05.04.05-.03a8 8 0 0 0-.01-1.02c0-.04 0-.07.03-.1a.37.37 0 0 0 .08-.17c.01-.05-.01-.06-.06-.05-.06.02-.11.01-.15-.02a.08.08 0 0 0-.1 0 .85.85 0 0 0-.2.25.09.09 0 0 1-.08.04c-.06 0-.1.01-.15.04a.06.06 0 0 1-.07 0 .09.09 0 0 1-.03-.03c-.02-.03-.01-.06.02-.09l.03-.03c.03-.02.02-.04-.01-.04-.04-.01-.07.01-.1.08a.13.13 0 0 1-.16.08l-.27-.08-.07.01-.03.02a.05.05 0 0 1-.04 0c-.01 0-.02 0-.02-.02l-.01-.02c-.02-.07-.08-.11-.19-.11a.1.1 0 0 1-.07-.04l-.05-.04a.07.07 0 0 0-.08-.02.4.4 0 0 1-.25.03.93.93 0 0 1-.2-.43c0-.04 0-.05.05-.05.07 0 .14.05.2.16 0 .01 0 .02.02.03.03.01.04 0 .04-.03v-.24c0-.04.02-.05.06-.03.05.03.13.02.22 0a.1.1 0 0 1 .1.01c.08.06.2.12.37.16a.12.12 0 0 1 .08.07l.03.08a.1.1 0 0 0 .07.06l.3.08c.04.01.06 0 .05-.05 0-.05-.07-.07-.2-.07-.04 0-.05-.01-.04-.05.01-.02.05-.04.1-.04.06 0 .08-.04.06-.1a.83.83 0 0 1 0-.35c0-.03.02-.05.06-.05a.5.5 0 0 0 .35-.14.08.08 0 0 1 .09-.02c.08.03.14.08.18.16l.06.4c0 .03.02.06.05.07a.9.9 0 0 1 .46.45l.02.01h.02l.05-.05a.03.03 0 0 0 .01-.02.03.03 0 0 0 0-.02l-.32-.36a.04.04 0 0 1 .03-.07h.06c.03 0 .05.01.06.03.08.19.18.35.31.5-.1.02-.15.05-.14.08a.13.13 0 0 0 .06.11l.06.02c.02 0 .05 0 .06-.02l.54-.32c.05-.03.05-.05 0-.06l-.07-.02c.08-.11.18-.2.3-.27.15-.09.25-.17.32-.23.2-.2.42-.36.64-.5.06 0 .1 0 .14-.04a.07.07 0 0 0-.04-.1.75.75 0 0 1-.42-.25Z" fill="#645045"/><path d="M7.68 10.66c.45.18.85.27 1.2.27.04 0 .16-.04.36-.11a.13.13 0 0 1 .12.01l.06.06c.01.04 0 .06-.04.06-.2.02-.36.04-.48.08-.2.07-.33-.05-.54-.07-.3-.03-.6-.09-.91-.17l-.38.01c-.11 0-.12-.02-.02-.08.19-.12.4-.14.63-.06Z" fill="#040304"/><path d="M6.47 10.83c.07-.05.12-.1.1-.12-.01-.03-.08-.01-.15.03-.08.05-.12.1-.1.12 0 .03.08.01.15-.03Z" fill="#D4C0A8"/><path d="M5.75 11.4a.15.15 0 0 1-.1-.08c-.02-.03-.01-.06.02-.08.06-.04.06-.1.01-.15-.02-.03-.02-.06 0-.09l.1-.1.15.36c.02.03 0 .05-.02.07l-.16.07Z" fill="#938B81"/><path d="M11.62 11c-.22.14-.44.3-.64.5-.07.06-.17.14-.32.23-.12.07-.22.16-.3.27l-.19.13c-.05.04-.15.06-.32.07-.13-.14-.23-.3-.31-.49a.05.05 0 0 0-.06-.03h-.06a.04.04 0 0 0-.04.03.04.04 0 0 0 .01.04l.32.36a.03.03 0 0 1 0 .04l-.06.04a.03.03 0 0 1-.05 0 .9.9 0 0 0-.45-.45.08.08 0 0 1-.05-.07l-.06-.4.09.26a.1.1 0 0 0 .07.06l.22.06c.04.01.07 0 .1-.02a.34.34 0 0 1 .07-.07.08.08 0 0 1 .12.05c.04.12.12.23.22.33a.2.2 0 0 0 .25.02c.18-.13.38-.3.59-.5.14-.13.52-.18.52-.4 0-.04.02-.06.06-.06h.27Z" fill="#A68466"/><path d="M12.41 11.15c0 .05.03.07.08.07-.04.14-.08.21-.13.23-.2.09-.22.05-.09-.11l.14-.19Z" fill="#645045"/><path d="M11.71 11.34a.15.15 0 0 1-.1.04l-.53.53a.08.08 0 0 1-.08.02l-.19-.05a.06.06 0 0 1-.04-.05v-.04l.04-.02c.23-.1.42-.24.56-.44.06-.07.1-.11.15-.11.07 0 .14.03.2.12Z" fill="#A68466"/><path d="M6.51 12.83c.03.18.16.32.37.42v.31a.8.8 0 0 0-.06.26c0 .03 0 .06.02.1.02.03.02.08 0 .12a.07.07 0 0 1-.05.03c-.04 0-.05 0-.03-.02 0-.1-.03-.19-.1-.28l-.15-.23c-.16-.3-.24-.52-.44-.77a2.7 2.7 0 0 1-.24-.38.09.09 0 0 1 0-.1c.05-.09.04-.16-.03-.21a.04.04 0 0 1 0-.04.04.04 0 0 1 .02-.03c.02 0 .05 0 .09.02.03.01.05.03.07.07.02.05.06.08.12.1a.03.03 0 0 0 .04-.02v-.04l-.04-.05a.15.15 0 0 1-.04-.08 1.03 1.03 0 0 0-.12-.37 3 3 0 0 1 .34.43c.13.19.1.32.1.52-.01.03 0 .06.02.09l.11.15Z" fill="#E2A956"/><path d="M6.88 13.25c-.21-.1-.34-.24-.37-.42l.3.04c.03 0 .03 0 .02-.02l-.01-.03H6.8c-.15 0-.26-.06-.32-.17-.04-.07-.03-.08.05-.05.08.05.14.07.18.06.03 0 .03-.02 0-.04a.3.3 0 0 1-.06-.04c-.02-.04 0-.06.05-.06l.16.01a.03.03 0 0 0 .03-.05L6.48 12a.04.04 0 0 1-.01-.04v-.03c.01-.02.03-.03.05-.01.18.15.3.3.38.48.03.07.07.12.13.15.03.02.05.04.07.08.11.27.28.47.49.6a.1.1 0 0 1 .05.1l.03.38c0 .04-.02.05-.05.05-.17-.02-.28-.06-.33-.14-.15-.21-.28-.33-.41-.37Z" fill="#938B81"/><path d="m10.36 12 .06.02c.06 0 .06.03.01.06l-.54.32a.12.12 0 0 1-.12 0 .13.13 0 0 1-.06-.1c0-.04.04-.07.14-.1.17-.01.27-.03.32-.07l.19-.13ZM12.6 12.1c-.01.05-.06.1-.14.13a.4.4 0 0 0-.2.2l-.15.12a.08.08 0 0 0-.04.03c-.01.03 0 .05.03.05.08.01.11.05.1.12 0 .04.02.06.05.08l.07.04.04.01a.07.07 0 0 0 .06-.1 1.1 1.1 0 0 1-.04-.32c0-.1.05-.14.14-.13.09.07.13.15.12.26l-.05.6-.97.67-.44-.02.51-.5.3-.46c.02-.03 0-.03-.02-.02-.16.05-.37.12-.64.23a.87.87 0 0 0-.48.4l-.3.29c-.07-.1-.03-.24.11-.4l.24-.26c.07-.1.16-.17.25-.23.32-.18.63-.38.94-.6l.15-.17c.09-.09.21-.1.36-.03Z" fill="#040304"/><path d="M8.9 13.62a.15.15 0 0 1-.03-.08l-.02-.02h-.03c-.02 0-.03 0-.03.03l.02.07c0 .02 0 .05-.03.06a.49.49 0 0 0-.2.26c-.02-.08-.05-.06-.1.06v-.07c-.02-.04-.05-.04-.07 0a1 1 0 0 1-.28.25H8.1l-.01-.02.3-.32.01-.02-.02-.02a.04.04 0 0 0-.04-.02v.01l-.24.2c-.01.02-.03.01-.04 0l-.02-.02v-.01c.2-.14.34-.31.43-.5v-.04c-.02-.02-.04-.02-.06 0l-.1.07c-.02-.09-.04-.12-.07-.1a.89.89 0 0 1-.21.11c-.04.01-.06 0-.06-.04 0-.08.06-.13.16-.17l.01-.03v-.05c-.01-.03-.03-.04-.05-.03l-.13.06c-.05.02-.07.01-.07-.03 0-.05.03-.09.08-.12a.34.34 0 0 0 .1-.12.05.05 0 0 0 0-.07L8 12.88a.12.12 0 0 1-.03-.18.12.12 0 0 1 .06-.04c.26-.08.5-.06.73.06.03.01.05 0 .05-.03.01-.07 0-.12-.02-.15a.12.12 0 0 0-.04-.04.1.1 0 0 0-.05 0c-.2 0-.33-.02-.4-.05-.1-.04-.16-.05-.21-.03-.1.03-.16.06-.2.09a.11.11 0 0 1-.1 0l-.48-.14-.27-.26a.4.4 0 0 0 .25-.03.07.07 0 0 1 .08.02l.05.04a.1.1 0 0 0 .07.04c.1 0 .17.04.19.11a.06.06 0 0 0 .03.04.05.05 0 0 0 .04 0l.03-.02a.09.09 0 0 1 .07 0l.27.07a.13.13 0 0 0 .16-.08c.03-.07.06-.1.1-.08.03 0 .04.02 0 .04l-.02.03c-.03.03-.04.06-.02.09l.03.03.03.01h.04c.04-.04.1-.05.15-.05a.09.09 0 0 0 .08-.04c.06-.11.13-.2.2-.25a.08.08 0 0 1 .1 0c.04.03.09.04.15.02.05-.01.07 0 .06.05 0 .05-.03.1-.08.18a.13.13 0 0 0-.03.09 8 8 0 0 1 0 1.02c0 .07 0 .08-.03.03l-.01-.04A.04.04 0 0 0 9 13.4h-.03a.04.04 0 0 0-.02.05c0 .04-.01.1-.05.17Z" fill="#7B685C"/><path d="m12.46 12.22.06.1c-.1 0-.14.04-.14.14 0 .12.01.23.04.33a.07.07 0 0 1-.1.08l-.07-.04a.07.07 0 0 1-.04-.08c0-.07-.03-.11-.11-.12-.04 0-.04-.02-.03-.05l.04-.04c0 .07.06.09.17.05.04-.01.05-.04.05-.07 0-.04-.02-.07-.07-.1a.4.4 0 0 1 .2-.2Z" fill="#645045"/><path d="m8.3 13.5-.36.24c-.03.02-.05.01-.07-.02l-.1-.21a.13.13 0 0 1 .01-.13l.1-.18c.03-.03.02-.07 0-.1l-.05-.06a.14.14 0 0 1-.04-.1c0-.1-.03-.17-.1-.2a.81.81 0 0 1-.37-.37l.48.15.1-.01.2-.1c.05 0 .12 0 .2.04.08.03.21.04.41.04a.1.1 0 0 1 .05.01l.04.04c.03.03.03.08.02.16 0 .02-.02.03-.05.02a.99.99 0 0 0-.73-.06.12.12 0 0 0-.03.22l.05.02a.05.05 0 0 1 .02.07.35.35 0 0 1-.11.12c-.05.03-.08.07-.08.12 0 .04.02.05.07.03l.13-.06c.02 0 .04 0 .04.03l.01.05-.01.03c-.1.04-.15.1-.16.17 0 .04.02.05.06.04l.2-.1c.04-.03.06 0 .07.1Z" fill="#C7A587"/><path d="m11.7 13.34-.85.15c.1-.18.26-.32.48-.4l.64-.23c.03-.01.04 0 .02.02l-.3.46Z" fill="#645045"/><path d="m11.7 13.34-.52.5c-.2.1-.4.23-.56.42-.27.08-.56.16-.88.23a.45.45 0 0 1-.27 0 .12.12 0 0 0-.1 0c-.23.09-.46.09-.69 0a.68.68 0 0 0-.07-.26c-.02-.04-.01-.06.01-.09l.1-.1.25.38a.18.18 0 0 0 .31-.01c.08-.14.13-.28.14-.42 0-.03.02-.06.04-.09a.38.38 0 0 0 .07-.11c.02-.05.06-.1.1-.13a.27.27 0 0 1 .12-.05c.04 0 .06.01.04.05-.06.15-.11.26-.17.33-.09.1-.07.14.07.09a.65.65 0 0 0 .2-.16c.02-.03.05-.03.08 0 .09.06.13.13.14.23 0 .03.02.05.06.03.2-.06.33-.2.38-.4l.3-.29.84-.15Z" fill="#E2A956"/><path d="m8.9 13.62.06.11c.01.02 0 .04-.02.04h-.03c-.04-.02-.07-.02-.09.02v.05c0 .02 0 .03.02.04.08.09.13.17.16.24 0 .03 0 .05-.03.05h-.03a.04.04 0 0 1-.03-.03c-.1-.19-.17-.22-.2-.1l-.09.1c-.02.03-.03.05-.01.09.04.08.07.16.07.25-.05 0-.08 0-.09-.03a.12.12 0 0 0-.03-.05l-.03-.01c-.02 0-.02.02-.03.04-.04.09-.1.1-.16.06-.03-.02-.04-.05-.02-.08l.26-.47c.03-.11.1-.2.2-.26.03-.01.03-.04.03-.06l-.02-.07c0-.02 0-.03.03-.03h.03l.02.02c0 .03.01.06.03.08Z" fill="#D4C0A8"/><path d="m8.53 13.55.12.04a.04.04 0 0 1 .02.05.13.13 0 0 1-.03.04.04.04 0 0 1-.05 0c-.06-.03-.09-.05-.1-.07-.01-.06 0-.08.04-.06Z" fill="#C7A587"/><path d="m11.18 13.84.44.02c-.28.2-.61.34-1 .4.16-.19.35-.33.56-.42Z" fill="#86662C"/><path d="M8.59 14.45c0 .03-.03.05-.05.04-.03-.01-.04-.03-.04-.06 0-.02.01-.04.03-.04l.03.01.03.05Z" fill="#7B685C"/></svg>