<!-- by TradingView --><svg width="18" height="18" viewBox="0 0 18 18" xmlns="http://www.w3.org/2000/svg"><path fill="#000616" d="M0 0h18v18H0z"/><path d="M8.73 8.2v2.19l-.01.01h-.06V9.56l-.02-.02a.08.08 0 0 0-.07-.01c-.35.08-.84.37-.84.74v2.85c0 .28.06.51.24.68.12.1.2.18.37.19.23 0 .4-.02.64-.1.14-.04.28-.1.47-.17.34-.14.8-.32 1.58-.57.37-.1.96-.44.97-.82v-2.08c-.01-.61-.02-1.2.23-1.77.06-.12.13-.2.2-.28l.05-.05c.02-.03.03-.06.01-.08-.01-.02-.03-.03-.05-.02l-.83.42c-.22.12-.45.21-.67.28-.27.07-.39.14-.48.19-.11.05-.2.1-.4.12a.08.08 0 0 0-.06.02.07.07 0 0 0-.02.05v1.01l.01.02.02.02h.04l.52-.27c.15-.04.22.11.23.23v1.83c0 .12-.1.2-.22.24l-1.63.6a.06.06 0 0 1-.05 0l-.02-.02V11.66a.04.04 0 0 1 .04 0c.2.09.5-.06.68-.16.24-.13.3-.29.3-.53V7.83c-.05-.4-.7-.63-1.1-.73-.03 0-.05-.03-.05-.06V5.82c0-.02.01-.03.03-.04l1.76-.6c.03-.02.09 0 .09.02v2.07c0 .08-.08.14-.17.16l-.44.23a.05.05 0 0 0-.03.02v1.09l.02.02a.07.07 0 0 0 .06.01l.36-.1c.4-.16 1.58-.69 1.57-1.17V5.14c-.02-.7-.04-1.35.39-1.97.03-.05.04-.1.03-.12-.03-.06-.07-.07-.12-.02-.38.33-.82.53-1.23.69-.3.11-.56.23-.82.34-.57.24-1.12.47-1.88.7-.17.05-.29.19-.44.35l-.08.1c-.1.1-.13.23-.12.37v3.16c0 .37.52.54.84.54l.05-.02a.07.07 0 0 0 .03-.06l.02-1h.02a.03.03 0 0 1 .03 0ZM6.6 9.76V7.6l.03-.02a.07.07 0 0 1 .06 0l.89.26c.03 0 .04 0 .04-.03V6.78a.13.13 0 0 0-.03-.08.15.15 0 0 0-.07-.05 4.98 4.98 0 0 1-.55-.16 11.05 11.05 0 0 1-1.94-.93L5 5.57v.02c-.01.06 0 .11.02.16.2.38.28.75.31 1.11v2.86c0 .5.3.9.82 1.09.44.15.91.29 1.41.41.04.01.05 0 .05-.03v-1.01c0-.07-.03-.1-.1-.13l-.89-.26-.02-.02v-.02Z" fill="#fff"/></svg>