<!-- by TradingView --><svg width="18" height="18" viewBox="0 0 18 18" xmlns="http://www.w3.org/2000/svg"><path fill="#31F721" d="M0 0h18v18H0z"/><path d="M10.17 5.61c-.03-.02-.03-.06-.02-.1l.08-.18v-.02h-.03l-.16.06H10V5.1c0-.05-.02-.06-.06-.02-.16.2-.34.33-.55.42-.05.02-.09.02-.12 0a.26.26 0 0 1-.07-.07 1.18 1.18 0 0 0-.02-.02c-.02-.02-.03-.03-.04-.02l-.22.13v.01c.15.1.28.21.4.35.02.02.04.02.05.02l.79-.29.56-.08c.29-.04.57-.03.84.01.2.04.4.11.56.24.13.09.2.21.25.38a2.38 2.38 0 0 1 .05.55c0 .02 0 .03.02.03.25.01.47.1.66.24.1.08.19.21.26.38.01.02.03.03.06.03.2-.05.38-.12.54-.23a.7.7 0 0 0 .16-.13l.12-.15a.52.52 0 0 0 .1-.2c.05-.29-.05-.49-.29-.61a.69.69 0 0 0-.33-.08c-.02 0-.02 0-.03-.02v-.03a.22.22 0 0 1 .09-.05c.12-.05.25-.07.39-.08.15-.01.28 0 .38.05.14.07.24.18.3.33a1.42 1.42 0 0 1-.32 1.65c-.24.2-.48.36-.72.47-.11.05-.1.1 0 .13h.1l.42.12c.18.06.28.13.3.2v.04a.25.25 0 0 1-.07.11l-.09.07a1.83 1.83 0 0 0-.47.47c-.12.16-.26.27-.41.34-.02.01-.02.02 0 .03l.01.02.02.03a.9.9 0 0 1-.16.67c-.01.03-.01.04.02.06.16.06.2.19.13.37a.54.54 0 0 1-.17.21c-.1.08-.2.12-.3.12l-.02.01c-.07.17-.2.24-.37.2-.02 0-.02 0-.03.02-.04.3-.15.6-.32.84a.78.78 0 0 1-.2.2c-.24.15-.51.26-.82.3-.23.04-.45.06-.68.07L8.9 13c-.44.01-.86-.03-1.26-.13a5.46 5.46 0 0 1-.66-.24 84.86 84.86 0 0 0-1.23-.48 2.1 2.1 0 0 1-.27-.09.52.52 0 0 1-.2-.15 1.25 1.25 0 0 1-.23-.55 2.87 2.87 0 0 1 0-1l-.01-.02a2.52 2.52 0 0 1-.52-.3L3.8 9.5c-.04-.02-.1-.08-.21-.18a.55.55 0 0 1-.16-.2c-.04-.1 0-.2.12-.27l.56-.37c.1-.08.24-.14.39-.2.02 0 .02 0 0-.02a2.63 2.63 0 0 1-.9-.44c-.1-.08-.2-.18-.3-.3a1.27 1.27 0 0 1-.29-.6.74.74 0 0 1 .02-.34 1.25 1.25 0 0 1 .72-.77c.16-.06.37-.1.63-.1a3.22 3.22 0 0 1 .84.12v.04l-.04.02c-.25.05-.48.13-.7.24a.98.98 0 0 0-.41.39c-.05.09-.05.18.02.27.1.14.26.25.48.33a4.13 4.13 0 0 0 1.74.23l.17-.82c.1-.46.28-.79.56-.98a1.65 1.65 0 0 1 1.77-.09c.06.03.1.03.15 0l.19-.16c.05-.06.07-.05.08.03 0 .01 0 .04.03.08.02.05.05.07.1.05a.93.93 0 0 0 .35-.21A6.9 6.9 0 0 0 9.97 5c.04 0 .06 0 .08.04.02.07.03.14.02.2v.03h.07c.08-.02.13-.03.16-.01.03.01.04.03.02.06-.06.1-.1.19-.13.28 0 .01-.01.02-.02.01Z" fill="#040302"/><path d="M10.17 5.61v.01l-.79.29c-.01 0-.03 0-.04-.02a1.96 1.96 0 0 0-.4-.36l.21-.13.04.02.02.02.07.07c.03.02.07.01.12 0 .21-.1.4-.23.55-.42.04-.04.05-.03.05.02v.23l.01.02h.03l.16-.06.03.01v.02l-.08.18c-.01.04 0 .08.02.1Z" fill="#fff"/><path d="m8.51 5.44.21.25c.08.1.13.19.17.28.14.3.2.62.2.96a5.77 5.77 0 0 0-.69-.14 1.2 1.2 0 0 0-.61.1l-.39.17c-.2.09-.2.1.02.04l.37-.1c.26-.08.5-.1.7-.08l.66.12.1.27c.03.08.04.16.02.26a2.31 2.31 0 0 0-1.45.14c-.19.09-.38.15-.58.2a.52.52 0 0 1-.15 0v.02a.3.3 0 0 1 .16.1l.43.46a2.14 2.14 0 0 0 2.35.69l.04.2a.93.93 0 0 1-.39.16c-.14.02-.3.03-.49.03a92.37 92.37 0 0 1-1.24-.01h.01c.38.06.8.09 1.3.1.25 0 .47-.04.68-.11a.64.64 0 0 0 .15-.09l.1.2v.02l.01.14-.08.09a.17.17 0 0 0-.05.14c0 .1.04.21.1.33.04.1.11.18.2.24v.02a1.07 1.07 0 0 1-.6.41l-.24.08a.53.53 0 0 0-.31.65c.02.08.06.15.13.2.09.07.18.1.28.12l.06.1c.04.06.05.11.04.17a.72.72 0 0 1-.28.4l-.12.09c-.44.01-.78.02-1.01 0-.29-.02-.62-.1-1-.22a16.85 16.85 0 0 1-1.18-.44l-.35-.13a1.5 1.5 0 0 1-.29-.17.72.72 0 0 1-.2-.24c-.07-.14-.12-.3-.15-.5a6.07 6.07 0 0 1-.04-.59c0-.07 0-.12.02-.16 0-.02.02-.03.03-.02.35.05.68-.01.98-.18.04-.03.04-.03 0-.02l-.04.02a1.48 1.48 0 0 1-1.01.07c-.08-.02-.2-.09-.36-.2a25.41 25.41 0 0 1-1.12-.84.62.62 0 0 1-.12-.17v-.03a.33.33 0 0 1 .08-.1 2.89 2.89 0 0 1 1.08-.5l.21-.03a2.95 2.95 0 0 1 1.27.3h.01l.02-.01-.01-.02-.26-.15c-.02-.01-.02-.03 0-.04.15-.16.27-.33.34-.53a4.28 4.28 0 0 0 .16-.62c.04-.28.1-.54.18-.78.1-.3.23-.54.4-.74.1-.13.25-.24.44-.31a1.7 1.7 0 0 1 1.1-.07Z" fill="#D16713"/><path d="M9.1 6.93c0-.34-.07-.66-.2-.96a5.29 5.29 0 0 0-.38-.53c.55.21.95.6 1.19 1.17l.14.4c0 .02 0 .03-.02.03-.24 0-.49-.03-.74-.1Z" fill="#fff"/><path d="M10.88 6.9a3.6 3.6 0 0 0-.16-.74c0-.07 0-.13-.03-.18a3.24 3.24 0 0 1-.14-.3l.02-.01c.4-.06.76-.06 1.09.02.14.03.27.09.4.18.13.08.21.24.26.46l.05.39-.01.02-.8.11c-.24.04-.46.05-.68.05Z" fill="#D16713"/><path d="M10.72 6.16c.08.24.13.48.16.74-.32 0-.63.04-.93.11L9.92 7a6.63 6.63 0 0 0-.1-.33 2.09 2.09 0 0 0-.4-.69l.02-.01a7.9 7.9 0 0 1 1.03-.3c.02 0 .03 0 .04.02l.2.47Z" fill="#fff"/><path d="M5.32 7.38a4.88 4.88 0 0 0 .98.05c-.02.12-.07.28-.13.48-.07.22-.19.4-.36.56a.05.05 0 0 1-.06 0 3 3 0 0 0-.95-.2c-.03-.01-.15-.05-.34-.14a3.31 3.31 0 0 1-.93-.54 1.47 1.47 0 0 1-.32-.4.89.89 0 0 1 .05-.93c.08-.14.2-.25.35-.33.15-.08.3-.12.46-.14.28-.02.57-.01.86.03.09.02.09.04 0 .06l-.24.08c-.2.07-.38.18-.56.34a.5.5 0 0 0-.18.34c-.01.1.04.2.15.3.08.08.18.14.3.19.3.13.6.21.92.25ZM13.73 8.3l-.09-.18v-.04a.2.2 0 0 0 .02-.18.45.45 0 0 0-.18-.22v-.01l-.06-.17v-.03l.26-.09c.2-.06.37-.17.53-.3.2-.19.29-.4.24-.64a.62.62 0 0 0-.34-.42 3.8 3.8 0 0 0-.16-.06c-.02-.01-.02-.02 0-.03.15-.04.3-.04.47-.01.1.01.19.07.27.18.07.09.12.19.14.3.1.46.02.87-.25 1.24a2.13 2.13 0 0 1-.85.67Z" fill="#FFF7E3"/><path d="M11.34 7.85a2.9 2.9 0 0 0-.31-.86c.3 0 .52 0 .66-.04.13-.04.29-.07.47-.1a1.02 1.02 0 0 1 1.04.38c.08.13.13.26.17.4 0 .01 0 .02-.02.02a3.75 3.75 0 0 1-.59.05 43.7 43.7 0 0 1-1.04.07l-.38.08Z" fill="#D16713"/><path d="M11.03 7c.14.25.25.54.3.85a1.7 1.7 0 0 0-.41.23l-.17.12a.94.94 0 0 1-.19.06h-.03a.04.04 0 0 1-.02-.04l-.01-.18a7.24 7.24 0 0 1-.35-.53 1.9 1.9 0 0 1-.2-.4c0-.01 0-.02.02-.03.34-.07.7-.1 1.06-.09Z" fill="#fff"/><path d="M9.27 7.57a.52.52 0 0 0-.01-.26 10 10 0 0 0-.1-.27c.23.06.46.1.7.1h.02c.1.27.25.52.43.73.05.05.04.07-.03.04-.3-.15-.64-.26-1-.34ZM8.45 8.97V9h-.02a2.41 2.41 0 0 1-.63-.5 9.45 9.45 0 0 0-.51-.55l.01-.01c.18-.01.33-.04.45-.08l.4-.14c.44-.14.94-.13 1.5.03a5.12 5.12 0 0 1 .78.3l.02.16c0 .12-.01.25-.03.37a.6.6 0 0 1-.13.3.91.91 0 0 1-.28.21H10v-.01c.03-.24.03-.45-.03-.61a.62.62 0 0 0-.41-.4.95.95 0 0 0-.54-.03.8.8 0 0 0-.45.3.64.64 0 0 0-.12.3 1.1 1.1 0 0 0 0 .33Z" fill="#fff"/><path d="m11.5 8.25-.1-.31c.24-.06.46-.1.67-.1a46.43 46.43 0 0 0 .91-.07h-.01c-.28.02-.28.02 0 0a5.44 5.44 0 0 1 .38-.02.3.3 0 0 1 .12.03c.1.04.13.13.11.26h-.02a.71.71 0 0 0-.37-.13 2.18 2.18 0 0 0-.54.01c-.4.07-.78.18-1.16.33Z" fill="#D16713"/><path d="m11.4 7.94.1.31c-.11.05-.22.08-.33.1-.11.03-.27.02-.49 0-.04 0-.04-.02 0-.04l.1-.05a1 1 0 0 0 .16-.08c.13-.1.29-.18.45-.24Z" fill="#fff"/><path d="m13.66 8.35-.14.06v.01l.16.06c-.02.14-.05.23-.07.29-.1.19-.23.33-.4.45h-.01V9.12a.99.99 0 0 0 0-.26 1.2 1.2 0 0 0-.16-.43.63.63 0 0 0-.17-.16.3.3 0 0 0-.21-.06c-.11.01-.2.04-.28.1-.16.12-.29.3-.39.5-.09.2-.15.4-.18.64l-.02.01c-.17.01-.38 0-.63-.05-.32-.04-.6-.18-.83-.42-.02-.01-.02-.03 0-.04a.58.58 0 0 0 .14-.26c.02-.07.03-.17.03-.3 0-.02.01-.03.03-.02.3.1.63.1.96 0l.64-.22.37-.09c.28-.06.54-.08.79-.04.07.01.15.04.23.1a.3.3 0 0 1 .14.23ZM8.97 8.56c.1.03.2 0 .22-.08.02-.07-.06-.16-.16-.18-.1-.03-.2 0-.23.08-.01.07.06.15.17.18Z" fill="#fff"/><path d="M13.66 8.35c.02.05.03.1.02.13l-.16-.06V8.4l.14-.06Z" fill="#D16713"/><path d="M12.46 8.63c.03.05.08.07.11.05.03-.02.02-.08-.02-.13-.03-.05-.09-.07-.11-.05-.03.02-.02.08.02.13Z" fill="#fff"/><path d="M12.7 9.92c.03-.03.02-.06 0-.07a.15.15 0 0 1-.06-.05l.33-.06a.66.66 0 0 0 .26-.13c.12-.08.24-.19.37-.3.07-.07.08-.14.03-.21a.06.06 0 0 1 0-.06c0-.02.01-.03.03-.04l.47-.15c.1-.03.2-.04.3-.04.03 0 .03 0 0-.02a.24.24 0 0 0-.08-.02.81.81 0 0 0-.34.02l-.34.12-.01-.01v-.03c.04-.06.06-.13.09-.2a.3.3 0 0 0 0-.08v-.06c.01-.02.02-.03.04-.03.22.03.44.1.67.21l.13.09v.02l-.16.12-.14.11-.16.17-.3.35a.56.56 0 0 1-.27.16c-.1.02-.23.07-.41.13-.1.03-.26.05-.44.06Z" fill="#D16713"/><path d="m3.78 9.02.03.14v.02h-.03a.3.3 0 0 1-.1-.12v-.04c.01-.06.06-.11.13-.16a.67.67 0 0 1 .2-.1c.32-.08.62-.06.93.07.1.04.21.14.35.29l.1.09c.1.1.2.15.32.19.14.03.26.01.37-.05a.46.46 0 0 0 .1-.08.75.75 0 0 1 .04-.05c.04-.04.04-.03.02.01a.46.46 0 0 1-.26.23.48.48 0 0 1-.34-.01c-.1-.04-.18-.08-.25-.13a7.2 7.2 0 0 1-.35-.28.8.8 0 0 0-.4-.17 1.63 1.63 0 0 0-.69.05.56.56 0 0 0-.16.07.03.03 0 0 0 0 .03Z" fill="#1C0201"/><path d="M8.99 8.98c.04.01.08-.01.1-.06 0-.04-.03-.08-.07-.09-.05 0-.1.02-.1.06 0 .04.02.08.07.1ZM12.77 9c-.02.07 0 .14.07.17.06.02.12-.01.15-.08.02-.07 0-.14-.07-.16-.06-.03-.12 0-.15.07ZM10.07 9.39l-.05-.22.23-.14h.04l.04.06-.03.05c-.06.1-.14.17-.23.25Z" fill="#fff"/><path d="M12.36 9.1v.05c.01 0 .03-.02.03-.05v-.06c-.01 0-.03.02-.03.05Z" fill="#FDDAB8"/><path d="M11.95 9.62v-.07h.02l.06-.01c.3.01.58-.03.87-.1.2-.07.4-.18.57-.34.04-.04.08-.04.1.02l.02.01v.06c-.22.29-.5.46-.85.52l-.55.07c-.05 0-.1-.02-.16-.08a.87.87 0 0 0-.08-.08Z" fill="#D16713"/><path d="m11.94 9.56.01.07c-.02.04 0 .08.03.12.03.04.07.06.12.08h.15c.13-.02.26-.03.4-.03l.04.04c.03.02.04.05.02.08-.28 0-.48 0-.59-.02-.34-.05-.68-.1-1.03-.13a3.86 3.86 0 0 0-.52 0c-.12 0-.24.02-.37.05v-.17l-.1-.2c.1-.07.2-.17.27-.28 0-.01 0-.02.02 0 .21.17.45.29.72.34.24.05.5.07.78.03l.05.02Z" fill="#fff"/><path d="m10.66 10.54.15-.03.85.02h.02v-.04a2.13 2.13 0 0 0-.53-.41.83.83 0 0 0-.55-.1.4.4 0 0 0-.28.17c-.02.03-.02.07 0 .13.01.05.05.13.11.23.02.02.01.04 0 .05-.02 0-.05 0-.09-.05a.89.89 0 0 1-.19-.42c-.02-.1.02-.16.11-.2a4.72 4.72 0 0 1 1.12-.01c.45.07.8.1 1.02.12.23.02.46 0 .7-.04l.21-.07c.09-.03.15-.06.19-.06h.02c.05.05.07.11.06.18 0 .01 0 .02-.02.02h-.02a.36.36 0 0 0-.1-.06.14.14 0 0 0-.1.02.94.94 0 0 0-.15.08c-.18.16-.4.28-.64.34-.04.02-.05.04-.04.08l.03.02.03.02c.12.04.25.05.4.02a2.62 2.62 0 0 1 .43-.02v.03l-.07.12v.03l.03.01h.01c.02 0 .03 0 .04-.02.03-.04.08-.04.13.02.06.06.07.14.02.24a.46.46 0 0 1-.43.27c-.12 0-.25-.01-.38-.04a6.52 6.52 0 0 1-.48-.12 1.53 1.53 0 0 0-.98.05 6 6 0 0 0-.32.14 4.17 4.17 0 0 1-1.02.37c.18 0 .37-.03.57-.1.13-.04.31-.12.55-.24.44-.2.87-.25 1.32-.12a10.53 10.53 0 0 0 .68.17c-.06.08-.1.12-.16.12-.04.01-.12 0-.23-.03-.1-.02-.22-.05-.36-.1-.24-.06-.54-.02-.9.13-.47.2-.88.35-1.21.44a1.8 1.8 0 0 1-.64.06.25.25 0 0 1-.21-.14.45.45 0 0 1-.03-.33c.03-.11.1-.2.2-.25.06-.04.16-.08.28-.12.2-.05.37-.16.52-.31a4.25 4.25 0 0 0 .17-.18h.12c.04-.02.06-.04.04-.1Z" fill="#FDDAB8"/><path d="m10.81 10.5-.15.04a.33.33 0 0 1-.16.03s-.02 0-.02-.02 0-.03.03-.04a1 1 0 0 1 .3 0Z" fill="#D16713"/><path d="m9.33 12.86.12-.1c.14-.1.23-.23.28-.4.01-.05 0-.1-.04-.16a.67.67 0 0 1-.06-.1c.17 0 .32-.03.44-.06.2-.05.41-.12.66-.22.29-.1.57-.22.85-.33.24-.1.47-.12.7-.09a4.68 4.68 0 0 1 .4.14l-.11.4c-.14.4-.42.65-.82.75-.17.05-.3.08-.4.09-.24.03-.46.04-.66.05l-1.36.03Z" fill="#fff"/></svg>