<!-- by TradingView --><svg width="18" height="18" viewBox="0 0 18 18" xmlns="http://www.w3.org/2000/svg"><path fill="#F0F3FA" d="M0 0h18v18H0z"/><path d="M5.24 5.65 8 4.25c.38-.2.8-.27 1.2-.24.52.04 1.89 2.36 1.89 2.36-.12-.2-.33-.37-.55-.37H4.96c-.3 0-.6.35-.7.48.22-.4.55-.61.98-.83Z" fill="url(#agbzrgcsy)"/><path d="m11.09 6.5.65.94c.23.37.65.56 1.08.56.6 0 1.16-.45 1.18-.99 0-.1 0-.19-.04-.29-.17-.52-.55-.78-1.13-1.07l-2.76-1.4A2.29 2.29 0 0 0 9.21 4c.51.04 1.88 2.49 1.88 2.5Z" fill="url(#bgbzrgcsy)"/><path d="M4 7.53c0-.37.1-.73.26-1.05.1-.13.4-.48.7-.48h2.75c-.22 0-.42.16-.54.34l-1.4 2.2a.85.85 0 0 0-.1.2L4.4 10.78c-.17.31-.16.59-.16.59A2.26 2.26 0 0 1 4 10.32v-2.8Z" fill="url(#cgbzrgcsy)"/><path d="m4.41 10.77 1.25-2.02a.85.85 0 0 0 .1.75l1.4 2.02s.7 1.2 1.23 1.99c.21.32.42.43.58.49-.33-.01-.67-.1-.97-.25l-2.76-1.4a2.27 2.27 0 0 1-1-1s0-.27.17-.58Z" fill="url(#dgbzrgcsy)"/><path d="M8.4 13.5c-.53-.77-1.12-1.78-1.12-1.78.12.18.26.28.47.28h5.8c-.2.21-.41.33-.72.49l-2.76 1.26c-.34.18-.72.26-1.1.25a1.19 1.19 0 0 1-.58-.5Z" fill="url(#egbzrgcsy)"/><path d="M13.54 12c.2-.23.46-.65.46-.94 0-.59-.41-1.18-1.18-1.18-.58 0-.9.3-1.13.67l-.6 1.09c-.12.19-.33.36-.55.36h3Z" fill="url(#fgbzrgcsy)"/><defs><linearGradient id="agbzrgcsy" x1="10.66" y1="5.91" x2="4.64" y2="5.91" gradientUnits="userSpaceOnUse"><stop stop-color="#A53523"/><stop offset="1" stop-color="#DD9D1A"/></linearGradient><linearGradient id="bgbzrgcsy" x1="9.86" y1="4.01" x2="13.55" y2="7.51" gradientUnits="userSpaceOnUse"><stop stop-color="#DB991A"/><stop offset=".27" stop-color="#D48D1C"/><stop offset="1" stop-color="#9C2425"/></linearGradient><linearGradient id="cgbzrgcsy" x1="5.85" y1="6.2" x2="5.85" y2="11.36" gradientUnits="userSpaceOnUse"><stop stop-color="#A12E24"/><stop offset="1" stop-color="#E4AB19"/></linearGradient><linearGradient id="dgbzrgcsy" x1="4.25" y1="11.36" x2="8.22" y2="13.77" gradientUnits="userSpaceOnUse"><stop stop-color="#971C26"/><stop offset="1" stop-color="#DEA01A"/></linearGradient><linearGradient id="egbzrgcsy" x1="13.37" y1="12.08" x2="6.88" y2="12.08" gradientUnits="userSpaceOnUse"><stop stop-color="#E3A919"/><stop offset="1" stop-color="#9B2225"/></linearGradient><linearGradient id="fgbzrgcsy" x1="12.25" y1="9.95" x2="12.25" y2="11.8" gradientUnits="userSpaceOnUse"><stop stop-color="#E1A419"/><stop offset="1" stop-color="#971C26"/></linearGradient></defs></svg>