<!-- by TradingView --><svg width="18" height="18" viewBox="0 0 18 18" xmlns="http://www.w3.org/2000/svg"><path fill="#243D7D" d="M0 0h18v18H0z"/><path d="M11.55 6.67c.5.56.83 1.21.97 1.98a6.94 6.94 0 0 0 .38 1.3c.27 1.02 0 1.7-.79 2.05.02-.33-.02-.56-.13-.71-.23-.3-.57-.48-1.03-.52a1.62 1.62 0 0 1-.13-.1c-.02-.02-.05-.02-.07-.02a.08.08 0 0 0-.07.04v.1a.1.1 0 0 1 0 .06.09.09 0 0 1-.04.04c-.43.19-.79.28-1.08.28-.66-.02-1.32-.07-1.97-.16-.1-.01-.13-.06-.1-.15l.02-.06c.01-.06 0-.08-.06-.06l-.17.08c-.17-.09-.4-.05-.67.11-.43.25-.64.6-.61 1.07-.92-.36-1.2-1.04-.85-2.04a.54.54 0 0 0 .15-.25l.04.01c.11-.78.24-1.38.38-1.8.15-.47.44-.88.88-1.23.43-.39.96-.6 1.58-.66a7.9 7.9 0 0 1 2.4.14c.32.07.64.24.97.5Z" fill="#23C2EA"/><path d="M10.92 10.62c.07.12.1.22.06.32-.01.03-.03.03-.05 0a.15.15 0 0 1-.05-.06.1.1 0 0 0-.08-.07.1.1 0 0 0-.1.04l-.53.77a.52.52 0 0 1-.34.2c-.52.11-1.7.2-2.06-.3L7.35 11c-.03-.04-.05-.04-.08-.01a.54.54 0 0 0-.08.08c-.09.13-.12.11-.1-.04 0-.1.07-.21.19-.35l.17-.08c.05-.02.07 0 .05.05l-.02.06c-.02.1 0 .14.1.16.65.08 1.3.14 1.96.15.3 0 .65-.08 1.07-.28.02 0 .03-.02.04-.03a.1.1 0 0 0 .01-.06.1.1 0 0 0 0-.04l-.02-.03.01-.03a.08.08 0 0 1 .08-.04c.02 0 .04 0 .06.02l.13.1Z" fill="#1C1D1D"/><path d="M7.28 10.67a.76.76 0 0 0-.2.35c-.01.15.02.17.1.04a.54.54 0 0 1 .09-.08c.03-.03.05-.03.08 0l.42.55c.37.5 1.54.4 2.06.3.15-.04.26-.1.34-.2a463.4 463.4 0 0 1 .58-.81.1.1 0 0 1 .1.02.1.1 0 0 1 .03.04l.05.07c.02.02.04.02.05-.01.03-.1.01-.2-.06-.32.46.04.8.21 1.02.51.11.15.15.38.14.7l-1.45.88-.05-.36a.14.14 0 0 0-.13-.12l-.06.01a2.5 2.5 0 0 1-1.66.19l-.67-.15c-.32-.04-.51.1-.57.46-.6-.2-1.1-.5-1.49-.9-.03-.46.18-.81.6-1.06.29-.16.5-.2.68-.11Z" fill="#FEFEFE"/><path d="M10.63 12.71c-.48.21-.97.3-1.5.29-.55-.02-1.1-.11-1.64-.26.06-.35.25-.5.57-.46l.67.15a2.5 2.5 0 0 0 1.66-.19.13.13 0 0 1 .17.05l.02.06.05.36Z" fill="#A5DFF2"/><path d="M9.25 11.75c-.43.03-.96.07-1.26-.22a.15.15 0 0 1-.03-.18.15.15 0 0 1 .05-.05c.13-.1.26-.15.4-.15a8.8 8.8 0 0 1 1.68.13.12.12 0 0 1 .04.1c0 .02 0 .04-.02.06-.2.28-.45.27-.86.3Z" fill="#F2483A"/><path d="M7.18 10.43c-.22 0-.44-.15-.6-.42A2.1 2.1 0 0 1 6.34 9c0-.38.09-.75.24-1.02.15-.28.36-.43.59-.43.22 0 .43.14.59.41.16.27.25.64.25 1.02 0 .39-.08.76-.24 1.03-.15.27-.36.43-.58.43Z" fill="#1C1D1D"/><path d="M6.7 8.35c0 .41.19.74.42.74.23 0 .42-.33.42-.74 0-.4-.19-.73-.42-.73-.23 0-.42.33-.42.73ZM7.2 9.65c.14-.02.21-.04.23-.06.2-.22.28-.18.23.13-.12.64-1.04.66-1.04-.05l.03-.09a.16.16 0 0 1 .06-.06.14.14 0 0 1 .15 0c.1.08.2.15.34.13Z" fill="#FEFEFE"/><path d="M10.83 10.43c-.22 0-.44-.16-.6-.43A2.1 2.1 0 0 1 10 8.98c0-.39.1-.75.25-1.02.16-.27.37-.43.59-.42.22 0 .43.15.59.42.15.28.24.64.24 1.03 0 .38-.1.75-.25 1.02-.16.27-.37.42-.6.42Z" fill="#1C1D1D"/><path d="M10.37 8.35c0 .4.18.74.42.74.23 0 .42-.33.42-.74 0-.4-.2-.74-.43-.74-.23 0-.42.34-.41.74ZM10.87 9.64c.13-.02.2-.04.23-.06.2-.22.28-.18.22.12-.1.64-1.02.69-1.03-.03l.02-.09a.16.16 0 0 1 .06-.06.14.14 0 0 1 .16 0c.1.08.2.15.34.12Z" fill="#FEFEFE"/><path d="M11.35 6.48c.02.05-.05.07.01.17.44.36.73.78.88 1.25.14.43.26 1.04.38 1.82.02.1.12.17.2.24.12.02.2-.03.35.02 1.02.32 1.83.03 2.44-.87a.11.11 0 0 0-.03-.15 2.04 2.04 0 0 0-.83-.38c-.22-.05-.23-.13-.03-.25a6.16 6.16 0 0 0 1.27-1.05.21.21 0 0 0-.04-.2.2.2 0 0 0-.08-.05 2.47 2.47 0 0 1-.48-.27c-.25-.18-.76-.17-1-.2-.04-.02-.06-.04-.04-.08.02-.08.1-.16.14-.24a7.3 7.3 0 0 0 .48-2.14.17.17 0 0 0-.12-.1h-.08c-.48.15-1.42.3-1.87.58-.31.2-.82.5-.97.88a.2.2 0 0 1-.06.08c-.09.07-.52.94-.52.94Z" fill="#443026"/><path d="M12.27 5.2c.3-.31.63-.52.96-.6a30.56 30.56 0 0 0 1.48-.46.05.05 0 0 1 .03.03v.04l-.5 1.33a3.32 3.32 0 0 1-1.98 1.85.15.15 0 0 1-.09.01.15.15 0 0 1-.08-.05l-.64-.78c.06-.26.17-.5.3-.74l.52-.63Z" fill="#FE9B3B"/><path d="m12.7 9.3.01.02c.55.2 1.09.26 1.6.2.42-.04.64-.23 1.09-.51l.01-.02v-.03a.05.05 0 0 0-.02-.04l-.95-.37a.15.15 0 0 0-.12 0c-.52.24-1.08.3-1.68.19-.03-.01-.06 0-.06.05-.01.19.03.36.12.52Z" fill="#F8773F"/><path d="M12.71 9.32v-.01l-.09.4h.04c.44.2.9.29 1.39.27.62-.02.95-.35 1.43-.8v-.1c.01-.02 0-.02-.02 0-.51.36-.94.67-1.57.61-.42-.04-.81-.16-1.18-.37Z" fill="#993D26"/><path d="M14.63 4.87c-.29.7-.57 1.4-1.11 1.88-.34.3-.77.55-1.3.75-.02 0-.03.02-.03.04.03.06.06.13.1.18l.01.02h.03A2.72 2.72 0 0 0 14.44 6c.17-.42.31-.95.42-1.59.01-.04 0-.06-.04-.07l-.03-.02a.02.02 0 0 0-.02.02c-.04.22-.09.4-.14.52Z" fill="#A36826"/><path d="M15.6 7.25a.31.31 0 0 0 .13-.17 2.6 2.6 0 0 0-1.45-.42.13.13 0 0 0-.1.05c-.47.6-1.07.96-1.8 1.1-.05.01-.07.04-.05.08l.1.34c0 .04.03.06.07.06 1.17.06 2.2-.29 3.1-1.04Z" fill="#FC8D3F"/><path d="M15.73 7.08a.31.31 0 0 1-.13.17c.04.02.05.04.05.08a5.26 5.26 0 0 1-1.22.75c-.38.16-.93.26-1.26.31-.2.04-.44-.02-.61 0-.04 0-.06.02-.06.06 0 .07.01.13.05.2.02.04.05.05.09.04.04-.01.25-.02.64-.02.28 0 .48-.02.62-.06a5.83 5.83 0 0 0 1.98-1.34v-.06c-.03-.06-.08-.1-.15-.13Z" fill="#9C5529"/><path d="M6.65 6.48c-.02.05.05.07-.01.17a2.7 2.7 0 0 0-.88 1.25c-.14.43-.26 1.04-.38 1.82-.02.1-.12.17-.2.24-.12.02-.2-.03-.35.02C3.81 10.3 3 10 2.4 9.1a.11.11 0 0 1 .03-.15c.24-.2.52-.32.83-.38.22-.05.23-.13.03-.25a6.17 6.17 0 0 1-1.27-1.05.21.21 0 0 1 .04-.2.2.2 0 0 1 .08-.05c.15-.07.32-.16.48-.27.25-.18.76-.17 1-.2.04-.02.06-.04.04-.08-.02-.08-.1-.16-.14-.24a7.3 7.3 0 0 1-.48-2.14.17.17 0 0 1 .12-.1h.08c.48.15 1.42.3 1.87.58.31.2.82.5.97.88a.2.2 0 0 0 .06.08c.09.07.52.94.52.94Z" fill="#443026"/><path d="M5.73 5.2c-.3-.31-.63-.52-.96-.6a30.56 30.56 0 0 1-1.48-.46l-.02.01a.05.05 0 0 0-.01.03v.03l.5 1.33c.44 1 1.08 1.47 1.98 1.85.03.02.06.02.09.01.03 0 .06-.02.08-.05l.64-.78c-.06-.26-.17-.5-.3-.74l-.52-.63Z" fill="#FE9B3B"/><path d="m5.3 9.3-.01.02c-.55.2-1.09.26-1.6.2-.42-.04-.65-.23-1.09-.51l-.01-.02a.05.05 0 0 1 0-.05l.02-.02.95-.37a.15.15 0 0 1 .12 0c.52.24 1.08.3 1.68.19.03-.01.06 0 .06.05a.86.86 0 0 1-.12.52Z" fill="#F8773F"/><path d="M5.29 9.32v-.01l.08.4h-.03c-.44.2-.9.29-1.39.27-.62-.02-.95-.35-1.43-.8v-.1c-.01-.02 0-.02.02 0 .51.36.94.67 1.57.61.42-.04.81-.16 1.18-.37Z" fill="#993D26"/><path d="M3.37 4.87c.29.7.57 1.4 1.11 1.88.34.3.77.55 1.3.75.02 0 .03.02.03.04a.64.64 0 0 1-.1.18l-.01.02h-.03A2.72 2.72 0 0 1 3.56 6c-.17-.42-.31-.95-.42-1.59-.01-.04 0-.06.04-.07l.02-.02a.02.02 0 0 1 .02 0 .02.02 0 0 1 0 .02c.05.22.1.4.15.52Z" fill="#A36826"/><path d="M2.4 7.25a.31.31 0 0 1-.13-.17 2.6 2.6 0 0 1 1.45-.42c.04 0 .07.02.1.05.47.6 1.07.96 1.8 1.1.05.01.07.04.05.08l-.1.34c0 .04-.03.06-.07.06a4.32 4.32 0 0 1-3.1-1.04Z" fill="#FC8D3F"/><path d="M2.27 7.08c.02.06.06.12.13.17-.04.02-.05.04-.05.08a5.26 5.26 0 0 0 1.22.75c.38.16.93.26 1.26.31.2.04.44-.02.61 0 .04 0 .06.02.06.06a.4.4 0 0 1-.05.2c-.02.04-.05.05-.09.04a6.13 6.13 0 0 0-.64-.02c-.28 0-.48-.02-.62-.06a5.83 5.83 0 0 1-1.98-1.34.1.1 0 0 1 0-.06c.02-.06.08-.1.15-.13Z" fill="#9C5529"/></svg>