<!-- by TradingView --><svg width="18" height="18" viewBox="0 0 18 18" xmlns="http://www.w3.org/2000/svg"><path fill="#F0F3FA" d="M0 0h18v18H0z"/><circle cx="9" cy="9" r="6" fill="#DD7189"/><path fill-rule="evenodd" d="M9 14A5 5 0 1 0 9 4a5 5 0 0 0 0 10Zm0-.36a4.64 4.64 0 1 0 0-9.28 4.64 4.64 0 0 0 0 9.28Z" fill="#AA4359"/><path d="M9.37 3.37c-1.2-.08-2.4.22-3.42.87l.35.54c.9-.58 1.96-.85 3.03-.78l.04-.63Zm1.38.26a5.65 5.65 0 0 1 2.85 2.09l-.52.37a5 5 0 0 0-2.53-1.85l.2-.6Zm3.56 3.44c.41 1.14.45 2.37.1 3.53l-.6-.18c.3-1.03.26-2.12-.1-3.13l.6-.22ZM3.39 8.35c.14-1.2.66-2.33 1.49-3.2l.46.43a5.01 5.01 0 0 0-1.32 2.84l-.63-.07Zm.12 1.96a5.65 5.65 0 0 0 1.85 3l.4-.48a5 5 0 0 1-1.63-2.67l-.62.15Zm6.47 4.25c-1.2.21-2.42.03-3.5-.5l.29-.58a5 5 0 0 0 3.1.45l.1.63Zm1.25-.37a5.65 5.65 0 0 0 2.64-2.34l-.55-.32a5.01 5.01 0 0 1-2.34 2.07l.25.59Z" fill="#F6C1B1" fill-opacity=".6"/><path d="M10.73 5.78c-.2-.04-.42-.11-.65-.22a.94.94 0 0 0-.32-.1c-.13 0-.25-.02-.37-.04-.15-.03-.3-.06-.47-.05l-.37.01c-.2 0-.35.05-.56.12l-.19.05h-.06a.08.08 0 0 1-.04-.04c-.14-.37-.46-.59-.89-.48a.46.46 0 0 0-.24.16c-.2.22-.36.41-.22.73.1.14.23.2.4.19h.04l.03.03a.06.06 0 0 1 0 .06c-.37.44-.43.85-.44 1.39a.1.1 0 0 1-.03.07c-.26.24-.37.54-.35.9.06.73 1.13 1.28 1.78 1.48-.38.22-.56.52-.52.9 0 .08.07.15.12.21a1.42 1.42 0 0 1 .06.06v.03l-.02.14c0 .02.01.03.04.04h.08c.03.01.05.03.05.06a.94.94 0 0 0 .42.65l.02.04v.6a.08.08 0 0 0 .04.07c.04.03.1.03.18.02a.1.1 0 0 1 .07.02l.08.07a.07.07 0 0 0 .02.03.08.08 0 0 0 .06 0h.03c.2-.16.31-.35.36-.56l-.26.38a.1.1 0 0 1-.03.03.11.11 0 0 1-.08.01l-.04-.01-.11-.07a.12.12 0 0 0-.09-.02l-.05.01c-.04.01-.06 0-.06-.04v-.48c0-.04.02-.05.06-.04l.65.15.1.1a.1.1 0 0 1 .04.08c0 .15.03.29.1.42l.02.04a.1.1 0 0 0 .1.02.1.1 0 0 0 .04-.02c.06-.05.13-.05.2 0a.11.11 0 0 0 .13 0 4.57 4.57 0 0 0 .3-.62c.04-.1.1-.19.17-.26l.09-.08c.13-.1.26-.22.3-.43a.55.55 0 0 1 .09-.2c0-.02.02-.04.03-.05.14-.2.24-.33.16-.6a.84.84 0 0 0-.47-.54.38.38 0 0 1 .15-.08l.45-.15c.12-.04.22-.09.31-.15.42-.29.7-.53.7-1.08-.01-.09-.05-.24-.14-.47a1.17 1.17 0 0 1-.07-.4c0-.3-.05-.62-.13-.94-.03-.1-.09-.2-.15-.3v-.01l-.03-.04-.02-.05c.02-.04.07-.04.15 0 .06.02.1.04.14.04.51.02.4-.52.27-.78a.51.51 0 0 0-.36-.3.98.98 0 0 0-.58.04c-.05.02-.12.1-.22.25Z" fill="#52121B"/><path d="M10.66 5.97c0 .02.02.03.03.03h.04c.01 0 .02 0 .03-.02l.21-.28c.23-.19.6-.15.73.12.09.17.15.47 0 .57-.15.1-.34 0-.48-.07L10.94 6c-.02-.02-.03-.02-.04 0-.02.06 0 .13.03.22l.27.52a2.15 2.15 0 0 1 .23 1.18l-.02.02a.05.05 0 0 1-.05 0 .37.37 0 0 0-.16-.07c-.04 0-.04 0-.01.03.07.08.23.17.3.27.37.56.14 1.2-.42 1.53-.3.17-.66.28-1.07.32l-.71.03a2 2 0 0 1-.31.1c-.26.05-.37-.16-.6-.16h-.17c0-.06-.02-.1-.05-.11l-.75-.3c-.15-.06-.24-.14-.37-.25-.41-.32-.59-.7-.48-1.21.03-.2.13-.27.22-.42a.06.06 0 0 0-.02-.09h-.03l-.05-.02h-.13c-.03 0-.04 0-.04-.03A2 2 0 0 1 7.31 6a.08.08 0 0 0 .03-.06l.04-.3c0-.01 0-.02-.02-.02h-.03c-.02-.01-.03 0-.03.02-.01.08-.04.13-.07.15-.18.13-.62.33-.72.01 0-.3.14-.52.44-.65.03-.01.11 0 .22.02.2.06.4.4.46.58 0 .03.03.04.05.03.87-.31 1.72-.32 2.58-.04.13.05.27.15.4.22Z" fill="#FFB8C9"/><path d="M8.21 10c-.44-.1-.86-.27-1.24-.5-.74-.48-1.08-1.26-.29-1.9h.05l.03.01.02.03a.06.06 0 0 1 0 .06c-.1.15-.19.22-.22.42-.1.51.07.89.48 1.21.13.1.22.19.37.25l.75.3c.03 0 .05.05.05.11Z" fill="#FFE0E7"/><path d="M8.02 10.08c.14.01.21.04.21.07l-.1.18-.03.03a.08.08 0 0 1-.04 0 .6.6 0 0 0-.56.33l-.02.01h-.05v-.08c.1-.32.3-.5.6-.54Z" fill="#E0667E"/><path d="M8.23 10.15c.09-.02.13 0 .13.04-.02-.02-.04-.03-.06-.02-.04 0-.06.03-.06.07v.25c0 .03.01.05.04.06l.24.16h.08l.1-.03-.11.13a.07.07 0 0 0-.06-.06c-.03 0-.05.03-.05.1a.28.28 0 0 0-.17-.17c-.25-.14-.45.01-.58.47 0-.04-.01-.06-.03-.08-.01-.02-.03-.02-.06 0 .09-.2.23-.38.42-.52a.06.06 0 0 0 .02-.05v-.04c0-.04-.02-.05-.05-.03-.33.15-.37.3-.56.52a.43.43 0 0 1-.05-.33v.05l.01.02.02.02h.03l.02-.02a.6.6 0 0 1 .56-.32l.04-.01.02-.03.11-.18Z" fill="#723742"/><path d="m10.1 10.17-.02.02v.02a.9.9 0 0 1 .57.74v.02a.05.05 0 0 1-.04 0h-.03l-.03-.01a.7.7 0 0 0-.51-.46.08.08 0 0 1-.06-.05l-.1-.24a.51.51 0 0 1 .21-.04Z" fill="#E0667E"/><path d="m8.36 10.19.36.36c.02.02.02.05 0 .07l-.03.06-.1.03c-.02.01-.05.01-.07 0l-.24-.16a.07.07 0 0 1-.04-.06v-.25c0-.04.02-.06.06-.07.02 0 .04 0 .06.02Z" fill="#F57B94"/><path d="m9.45 10.28-.3.35a.07.07 0 0 1-.07.02c-.04 0-.06-.04-.06-.1a.68.68 0 0 0 .17-.25l.04-.05a.15.15 0 0 1 .1-.05c.03 0 .05 0 .07.02.04.02.06.04.05.06Z" fill="#FFE0E7"/><path d="M9.81 10.24a.64.64 0 0 1 .07.41.03.03 0 0 1-.02.02h-.02l-.02-.02-.01-.02a.4.4 0 0 0-.04-.08c-.01-.03-.04-.04-.07-.03l-.34.07h-.02l-.01-.01a.03.03 0 0 1 0-.04l.16-.2c.07-.1.18-.13.32-.1Z" fill="#F57B94"/><path d="M7.64 11.08c-.04.13-.1.09-.17-.13.19-.22.23-.37.56-.52.03-.02.05 0 .05.03v.04c0 .03 0 .04-.02.05-.2.14-.33.32-.42.53Z" fill="#FFB8C9"/><path d="M8.31 10.68c-.16.17-.25.35-.29.53-.1.03-.2 0-.3-.06.14-.46.34-.61.59-.47Z" fill="#FFB8C9"/><path d="m8.96 10.69.15.04c.02 0 .04.03.04.05v.2c0 .03-.02.04-.04.05a.4.4 0 0 1-.3-.02.08.08 0 0 0-.1.03v.03l-.12.83-.01.02-.02.02a.06.06 0 0 1-.05 0l-.22-.15a.08.08 0 0 1-.04-.05.08.08 0 0 1 .01-.06c.11-.14.18-.22.2-.42.02-.16.07-.3.13-.45l.1-.13c.11-.03.2-.03.27 0Z" fill="#F57B94"/><path d="M8.48 10.85c-.16.06-.24.16-.24.3 0 .03-.01.05-.04.06a.35.35 0 0 1-.18 0c.04-.18.13-.36.29-.53.09.04.15.1.17.17Z" fill="#E0667E"/><path d="M8.86 12.34v.08l-.25.38a.11.11 0 0 1-.11.04l-.04-.01-.11-.07a.12.12 0 0 0-.09-.02l-.05.01c-.04.01-.06 0-.06-.04v-.48c0-.04.02-.05.06-.04l.65.15Z" fill="#FEA7BA"/><path d="M7.69 7.32c-.05.14-.16.19-.31.16a.1.1 0 0 1-.07-.05c-.05-.07-.06-.15-.02-.22a.08.08 0 0 1 .07-.05c.24-.03.46 0 .67.08.03.02.03.03 0 .04-.06.02-.12.01-.2-.02a.11.11 0 0 0-.12.02.1.1 0 0 0-.02.04ZM10.21 7.62c-.06.14-.17.18-.32.14a.1.1 0 0 1-.06-.05c-.05-.09-.05-.16 0-.23a.09.09 0 0 1 .07-.04c.24 0 .46.04.66.14.03.01.03.03 0 .04-.06 0-.12 0-.2-.04a.11.11 0 0 0-.08-.01.11.11 0 0 0-.04.02.1.1 0 0 0-.03.03ZM8.76 7.66l-.01.01a.02.02 0 0 0 0 .03h.02c.07.02.14.02.22 0 .25-.03.54.23.6.39.08.17.17.3.28.37.14.1.23.32.12.46-.16.22-.42.33-.77.34-.53 0-1.25-.1-1.61-.48-.16-.17-.04-.4.12-.51l.24-.17c.3-.28.5-.43.56-.46.15-.06.36-.13.5-.02.03.02.02.03 0 .02a.46.46 0 0 0-.27.02Z" fill="#52121B"/><path d="M10.72 8.44c-.21.07-.53.17-.63-.12 0-.03 0-.05.04-.06.23-.08.44-.07.61.04l.03.03a.08.08 0 0 1 0 .08.08.08 0 0 1-.05.03Z" fill="#FEA7BA"/><path d="m8.94 10.39.02.02c.03.02.03.05.01.08a.22.22 0 0 1-.05.07c-.03.02-.05.02-.08 0l-.32-.31v-.03l.03-.03h.04l.1.1.06.02a3.2 3.2 0 0 1 .34-.02v.01h-.01l-.12.03-.02.01-.01.02v.03Z" fill="#FFE0E7"/><path d="M9.55 10.98c.06.01.1.05.08.1A.68.68 0 0 1 9.2 11c-.03-.02-.03-.04 0-.06l.08-.05c.03-.02.04-.04.01-.06 0-.01-.03-.02-.07-.02-.01 0-.02 0-.03-.02v-.03c0-.01 0-.02.02-.03l.44-.16c.03-.01.06 0 .06.04v.03c.01.03 0 .05-.03.06a.6.6 0 0 0-.22.14.07.07 0 0 0-.02.07c.01.06.04.08.1.07Z" fill="#F57B94"/><path d="M10.36 11.35a1 1 0 0 0-.14-.36 1.97 1.97 0 0 1-.21-.33c-.03-.09-.01-.1.07-.06a1 1 0 0 1 .44.6c.01.04 0 .07-.02.1l-.07.06c-.04.03-.06.03-.07-.01Z" fill="#FFB8C9"/><path d="M9.63 11.08c.01-.05-.02-.09-.08-.1.03-.18.17-.25.43-.22l.04.02.02.02c.11.17.18.33.21.48l-.01.06a.1.1 0 0 1-.06.04.75.75 0 0 1-.4-.04c-.03-.01-.04-.04-.04-.07l.02-.09c0-.02 0-.05-.02-.07-.03-.1-.07-.1-.11-.03Z" fill="#FEA7BA"/><path d="m9.58 11.35-.71-.04c-.06 0-.1-.03-.11-.07l-.01-.03c-.03-.06 0-.1.06-.1.12-.02.43-.06.57.01a.3.3 0 0 0 .2.03.08.08 0 0 1 .06.02l.02.03v.09c0 .05-.03.07-.08.06Z" fill="#F57B94"/><path d="M9.43 12.12a.84.84 0 0 1-.78.03.15.15 0 0 0-.07-.01H8.4c-.45-.08-.67-.31-.66-.71l.02-.05a.07.07 0 0 1 .06-.02h.5l.02.01.02.02a.05.05 0 0 1 0 .05l-.2.28-.01.04.01.03c.13.13.24.21.43.17l.2-.04a.1.1 0 0 0 .06-.03.09.09 0 0 0 .02-.08l-.08-.31c-.02-.11.02-.16.14-.14l1.26.15c.02 0 .04.01.04.03.1.4-.44.62-.77.66a.03.03 0 0 1-.02 0 .02.02 0 0 1 0-.03l.01-.02c.02-.04.01-.05-.03-.03Z" fill="#FFB8C9"/><path d="M9.34 12.8a.7.7 0 0 0-.13.08.03.03 0 0 1-.03 0l-.01-.01-.1-.47v-.03l.02-.02.68-.13h.03a.03.03 0 0 1 .01.04l-.2.53c-.03.1-.09.1-.16.03a.2.2 0 0 0-.05-.02h-.06ZM8.91 7.8c.27.03.47.15.6.37l.14.22c.07.09.18.18.2.29.11.54-.8.5-1.12.45-.33-.04-1.22-.22-.96-.7.05-.1.17-.17.27-.24l.2-.18c.18-.18.4-.24.67-.21Z" fill="#FEA7BA"/><path d="M8.42 8.22c.06.02.06.11.01.27-.05.16-.13.22-.24.17-.1-.04-.1-.14 0-.28.1-.13.18-.19.23-.16ZM9.17 8.36c.1.12.14.22.13.3a.1.1 0 0 1-.04.08.12.12 0 0 1-.09.03h-.04c-.08-.01-.12-.06-.13-.13a.5.5 0 0 1 .04-.27c.03-.08.08-.08.13-.01Z" fill="#52121B"/></svg>