<!-- by TradingView --><svg width="18" height="18" viewBox="0 0 18 18" xmlns="http://www.w3.org/2000/svg"><path fill="#35CAD1" d="M0 0h18v18H0z"/><path d="M11.04 14h-.05a5.04 5.04 0 0 1-.01-.78c.03-.18.06-.3.1-.38.13-.25.25-.54.37-.87.04-.1.3-.26.54-.45.33-.25.38-.93.36-1.32 0-.04 0-.06.02-.06.09.33.04.6-.02.92 0 .02 0 .04.03.03.04 0 .07-.01.1-.03v-.04c0-.08.02-.14.07-.19.06-.05.09-.1.13-.15.05-.02.1-.03.17-.01l.04-.01a.18.18 0 0 0 .03-.22v-.1c.08-.09.12-.16.26-.15a.07.07 0 0 0 .07-.02.07.07 0 0 0 .01-.06.24.24 0 0 0-.04-.1.95.95 0 0 1 .15-.34l.12-.03c.03 0 .06-.01.07-.04v-.06a1.4 1.4 0 0 0-.07-.13l.1-.28.05-.01c.04.02.07.02.1 0a.04.04 0 0 0 .01-.04.54.54 0 0 0-.07-.24.06.06 0 0 1 0-.04l.06-.24c.02-.02.06-.03.13-.04.12-.05.1-.13-.07-.23-.02-.01-.03-.04-.04-.07l.01-.23c0-.02 0-.03.02-.04l.07-.05a.1.1 0 0 0 .04-.08.1.1 0 0 0-.04-.07c-.1-.07-.11-.16-.06-.27.05-.1.13-.12.09-.27a.47.47 0 0 0-.17-.11c-.04-.1-.03-.18.04-.25a.16.16 0 0 0 .06-.07v-.04c-.05-.12-.13-.12-.26-.16a.04.04 0 0 1-.03-.03l-.02-.12c0-.02.02-.04.04-.06.26-.13 0-.3-.17-.24-.05-.04-.05-.08.01-.14.07-.16-.01-.26-.24-.31-.03 0-.04-.02-.04-.04a.23.23 0 0 0 .07-.1c-.02-.16-.12-.22-.3-.2a.1.1 0 0 1-.04 0l-.02-.01V5.3s0-.02.02-.03c.03-.01.04-.03.03-.06a.19.19 0 0 0-.1-.13.8.8 0 0 0-.15-.02.38.38 0 0 1-.2-.08.04.04 0 0 1 0-.04c.03-.13-.06-.22-.19-.16a10.21 10.21 0 0 0-.14.05l-.18-.14a.09.09 0 0 1-.03-.04.18.18 0 0 0-.06-.08.05.05 0 0 0-.04 0l-.12.05h-.06l-.23-.12-.02-.01v-.02c0-.05-.03-.07-.06-.08h-.05c-.1.05-.17.07-.21.06-.27-.07-.46-.15-.74-.15a1.5 1.5 0 0 1-.28-.05.05.05 0 0 1-.04-.03.37.37 0 0 0-.11-.14.1.1 0 0 0-.12 0 .1.1 0 0 0-.03.03l-.04.1-.04.02h-.21c-.03 0-.04 0-.04-.03 0-.1-.06-.16-.16-.11s-.1.17-.22.17a.5.5 0 0 1-.16-.01c.1-.2-.28-.23-.3.06a.4.4 0 0 1-.17 0 .05.05 0 0 1-.03-.03c-.07-.16-.26-.02-.3.08L8 4.4c-.08.03-.19.08-.26.02a.08.08 0 0 0-.13.04l-.03.1s0 .02-.02.02l-.25.16a.02.02 0 0 1-.04-.01c0-.05-.02-.07-.06-.08a.08.08 0 0 0-.09.03c-.04.08-.05.15-.12.2a2.2 2.2 0 0 1-.2.13h-.03c0-.02-.01-.02-.02-.03H6.7c-.16.04-.15.14-.15.27v.02l-.02.02-.12.1a.05.05 0 0 1-.05 0l-.07-.02a.14.14 0 0 0-.17.1.49.49 0 0 0-.01.16v.03l-.12.16-.04.01H5.9c-.13-.03-.2.06-.17.18 0 .03.02.07.06.13v.05a.38.38 0 0 1-.14.17c-.04-.03-.08-.05-.11-.05l-.03.01-.02.03c0 .07 0 .14.02.21l-.12.3-.01.02H5.3a.08.08 0 0 0-.08.02.08.08 0 0 0-.01.08c.08.18.04.33-.1.46-.08.06-.07.14.02.22.04.07.05.15.05.22l-.04.15c0 .02 0 .03.02.04.06.08.1.17.1.27a.3.3 0 0 0 0 .21.51.51 0 0 1-.05.14.1.1 0 0 0-.01.08c0 .04.01.07.04.1.1.06.18.06.2.2 0 .05 0 .08-.02.13-.05.08-.1.19 0 .25.05.04.11.06.18.07l.04.02c.04.05.07.1.09.17v.05c-.07.16 0 .33.17.38.07.02.19 0 .28 0 .02 0 .02 0 0 .02-.04.05-.1.07-.19.06-.1-.02-.15.02-.18.11l-.25 1.04c-.06.32-.09.54-.07.66.07.4.1.69.11.85.02.37-.04.73-.08 1.1V14h-.08l.08-.88v-.43a4.3 4.3 0 0 1 .27-2.5l-.01-.03c-.1-.09-.2-.25-.15-.37a.16.16 0 0 0 0-.12.15.15 0 0 0-.08-.09c-.11-.04-.23-.1-.26-.2-.02-.08.04-.17.07-.24A.12.12 0 0 0 5.3 9c-.14-.08-.25-.2-.14-.37a.09.09 0 0 0 .02-.05v-.35a.03.03 0 0 0-.01-.03l-.1-.1a.05.05 0 0 1-.01-.03l.03-.2c.03-.11-.06-.2-.09-.3-.02-.1.07-.19.12-.24a.4.4 0 0 0 .05-.13l-.01-.13c-.03-.12-.03-.26.14-.26.01 0 .03 0 .03-.02.1-.18.06-.28.1-.45a.1.1 0 0 1 .08-.09h.04l.06.01a.08.08 0 0 0 .08-.03.08.08 0 0 0 .01-.09c-.1-.2-.05-.4.2-.39a.12.12 0 0 0 .13-.1c.02-.17.02-.32.22-.35h.05c.07.04.13.02.17-.04l.01-.05c0-.14.11-.3.26-.3l.04.02h.06c.06-.02.16-.1.18-.17.05-.12.15-.24.29-.12h.04c.09-.03.15-.08.2-.14a.64.64 0 0 1 .07-.13c.05-.04.1-.03.17 0a.13.13 0 0 0 .13.01.3.3 0 0 0 .1-.1c.1-.13.27-.17.4-.03a.04.04 0 0 0 .03.01.05.05 0 0 0 .03-.02c.05-.07.08-.13.16-.17.12-.06.21-.03.28.1a.08.08 0 0 0 .13.02c.05-.04.1-.12.18-.15.1-.02.17 0 .22.08a.12.12 0 0 0 .1.06.12.12 0 0 0 .1-.06.27.27 0 0 1 .12-.1h.05c.09.02.15.07.2.15l.03.03a.3.3 0 0 0 .14.04c.26 0 .52.06.79.15.08.03.16.02.23-.02a.14.14 0 0 1 .18.04.4.4 0 0 0 .26.15h.04c.11-.07.2-.04.26.08.02.04.08.09.18.13h.04c.13-.08.23-.06.3.05l.04.1c.02.06.07.1.15.1.16 0 .26.08.3.23 0 .02.01.03.03.03.15.04.3.18.25.34 0 .01 0 .03.02.04.19.06.26.18.22.35 0 .03 0 .05.04.06.12.02.19.08.2.18.02.08-.04.14-.1.18a.06.06 0 0 0-.02.09l.03.02c.15.06.38.17.2.36a.2.2 0 0 0-.05.09c-.01.04 0 .08.04.1.12.05.17.14.15.25l-.08.15c-.1.22.13.25.08.41-.01.05-.07.07-.1.1-.02.01-.03.02-.03.04v.17a.05.05 0 0 0 .02.04c.08.07.18.2.12.3l-.1.06c-.08.02-.12.08-.13.17 0 .04 0 .08.03.13.04.11.11.3-.1.3l-.04.01a.08.08 0 0 0-.03.04.3.3 0 0 0 0 .29c.01.01.02.03.01.05-.01.1-.07.14-.17.14a.06.06 0 0 0-.04.02.37.37 0 0 0-.1.3v.15c-.04.06-.1.09-.2.08h-.04a.22.22 0 0 0-.07.1v.04c.03.13-.02.37-.2.32h-.05c-.11.09-.18.18-.2.28-.01.12-.08.17-.2.14-.03 0-.05 0-.06.03-.1.21-.18.32-.37.47l-.38.3a.23.23 0 0 0-.06.09 5.7 5.7 0 0 1-.33.81c-.08.16-.1.35-.1.55l-.01.59Z" fill="#010202"/><path d="M13.18 8.78c0 .04.03.06.06.07h-.02a.03.03 0 0 0 0 .03v.02h.01c.11.07.22.11.32.15.03.02.04.05.04.08l-.1.28-.14-.1-.2-.11H13.08c-.02 0-.03 0-.03-.02v-.03c.02-.05.04-.1.04-.17.03-.21.07-.4.14-.6.03-.07.05-.17.06-.3 0-.04-.01-.1-.05-.17a1.03 1.03 0 0 1-.07-.26 1.2 1.2 0 0 0-.32-.62c-.03-.05-.05-.04-.05.02a4.14 4.14 0 0 0 .02.29h-.04a.38.38 0 0 1-.03-.12c0-.08-.02-.08-.05 0l-.02.08-.26.53a.03.03 0 0 1-.03.02.03.03 0 0 1-.03-.01l-.03-.04c-.02-.02-.03-.01-.03.02 0 .02.01.05.03.07.14.12.06.23-.04.35h-.03l-.09-.07a.07.07 0 0 0-.05-.02c-.09 0-.14-.06-.19-.12l-.06-.06c-.01-.02-.02-.01-.01 0V8.1h-.04c-.1-.22-.25-.4-.43-.55a.53.53 0 0 0-.2-.12.91.91 0 0 0-.1-.36 1.27 1.27 0 0 0-.14-.21.05.05 0 0 1 0-.06c0-.01.01-.02.03-.01.03.01.05.05.08.08l.08.1.07.04c.1.08.16.12.28.16.07.02.12.04.15.07.1.1.2.16.3.2.05.01.06 0 .03-.05a1.86 1.86 0 0 0-.05-.08c-.08-.1-.06-.12.05-.05a.8.8 0 0 1 .12.1h.03c.02 0 .02-.01.01-.03A.67.67 0 0 1 12.1 7c0-.02 0-.03.03-.03l.07-.01.02-.01a.03.03 0 0 0 0-.02c0-.03-.01-.03-.03-.03a.1.1 0 0 1 0-.04c0-.02 0-.03.02-.04a.21.21 0 0 1 .1-.04.03.03 0 0 0 .03-.01.02.02 0 0 0 0-.03.06.06 0 0 1-.03-.04l.02-.05a.44.44 0 0 0 .08-.13l.02-.03.05-.01c.02 0 .06 0 .1-.03a.9.9 0 0 1 .4.28c.02.04.04.03.04 0l.01-.04c0-.04 0-.08-.02-.12a.95.95 0 0 1-.05-.08c-.03-.06-.06-.12-.1-.15a.17.17 0 0 0-.1-.04h-.1c-.22-.03-.37-.12-.45-.25.03-.08 0-.1-.04-.14l-.04-.05c-.02-.02-.01-.02.01-.02l.14.01c.03 0 .03 0 0-.02a1.4 1.4 0 0 0-.13-.06.49.49 0 0 1-.11-.08.4.4 0 0 0-.21-.1c-.81.1-1.12.17-1.22.2l-.04-.03a1.6 1.6 0 0 1 0 .1c.02.14.02.3.15.41l.02.01.03.11c-.06.02-.11 0-.16-.03h-.05c-.02.02-.04.05-.04.08a.03.03 0 0 1-.02.03.03.03 0 0 1-.03-.01 1.02 1.02 0 0 1-.17-.2c-.03-.04-.05-.03-.05.02v.15a.1.1 0 0 1-.08.09c-.13 0-.23.03-.3.05-.1.04-.2.04-.3.03h-.4c-.16-.02-.28-.01-.36.01-.2.06-.35.08-.42.08a.72.72 0 0 1-.22-.06c-.02-.01-.02-.02-.01-.04a.37.37 0 0 0 .03-.18l.01-.04.1-.1c.02-.02.02-.03 0-.04h-.02a.02.02 0 0 0-.03 0 .55.55 0 0 1-.17.15.07.07 0 0 1-.1-.03v-.03l.06-.4a.03.03 0 0 0 0-.02.03.03 0 0 0-.04-.01h-.04v-.04c-.1.03-.7-.38-.9-.56h-.04a.18.18 0 0 1-.1.07c-.02 0-.03 0-.03.02v.02l.02.02h.01c.02 0 .03.01.01.02H6.9l-.12.02c-.01 0-.02.01 0 .02l.12.2.04.04c.08.02.1.05.08.09a.4.4 0 0 1-.22-.02.36.36 0 0 0-.14-.03c-.04 0-.04 0-.01.02l.1.07c.02 0 .02.02 0 .03l-.06.01a.04.04 0 0 0-.03.03c-.04.07-.14.12-.23.17l-.07.04c-.05.03-.04.04 0 .04a.2.2 0 0 0 .06 0 .02.02 0 0 1 .02 0 .02.02 0 0 1 .01.01v.02a.02.02 0 0 1 0 .02l-.14.08-.04.12a.4.4 0 0 1-.05.11 1.7 1.7 0 0 0-.08.13.99.99 0 0 1-.13.19c-.2.21-.44.37-.7.47a.06.06 0 0 0-.03.03l-.15.31c-.09-.09-.1-.16-.02-.22.14-.13.18-.28.1-.46a.08.08 0 0 1 .05-.1h.11l.01-.01.12-.31.13-.05.03-.03a.13.13 0 0 0-.02-.12c.07-.05.11-.1.14-.17v-.05a.93.93 0 0 1-.06-.13c-.03-.12.04-.2.17-.18h.06L6 5.82l.11-.16v-.03c0-.07 0-.12.02-.16a.14.14 0 0 1 .12-.1h.05l.07.02h.05l.12-.1.02-.02v-.03c0-.13 0-.22.15-.26h.05l.02.02.02.01h.02L7 4.88c.04-.03.06-.08.09-.13a.67.67 0 0 1 .03-.07.07.07 0 0 1 .09-.03c.04 0 .06.03.06.08a.02.02 0 0 0 .02.01.02.02 0 0 0 .02 0l.25-.16.02-.02.03-.1a.08.08 0 0 1 .06-.06.08.08 0 0 1 .07.02c.07.05.16.02.24-.01L8 4.4c.02 0 .03-.02.04-.03.04-.1.23-.24.3-.08l.03.03a.4.4 0 0 0 .17 0c.12 0 .22-.02.3-.06.05.01.1.02.16.01.07 0 .1-.04.14-.08.02-.04.04-.07.08-.1.1-.04.16.02.16.12 0 .02.01.03.04.03h.2c.02 0 .04 0 .05-.02l.04-.1a.1.1 0 0 1 .11-.05.1.1 0 0 1 .04.02c.04.03.08.08.11.14 0 .02.02.03.04.03l.28.05c.21 0 .38.05.56.1l.18.05c.04 0 .11 0 .2-.05h.06c.03 0 .05.02.06.07v.02l.02.01.23.12h.06l.12-.05a.05.05 0 0 1 .04 0c.03.02.05.05.06.08 0 .02.02.03.03.04l.18.14h.04l.1-.05c.13-.06.22.03.18.16 0 .01 0 .03.02.04.05.04.12.07.19.08a.8.8 0 0 1 .15.02c.05.03.09.07.1.13 0 .03 0 .05-.03.06-.02.01-.03.02-.02.03v.02l.02.02a.1.1 0 0 0 .03 0 .63.63 0 0 0-.23.1.02.02 0 0 0 0 .01v.01l.12.15c0 .01.02.02.04.01a.69.69 0 0 0 .22-.11h.03c.05.03.1.04.13.02a.23.23 0 0 1-.07.1c-.15.06-.18.1-.1.1-.1.04-.13.13-.09.26a.07.07 0 0 0 .09.04c.01 0 .02 0 .03-.02a.5.5 0 0 1 .27-.14.04.04 0 0 1 .04.05c-.01.05 0 .08.04.06-.06.06-.06.1 0 .14a.58.58 0 0 1-.21.13c-.05.02-.08.05-.07.1v.02c0 .06.03.08.1.05l.23-.1h.04l.07.04a.13.13 0 0 0-.04.06c-.04 0-.06.01-.08.03a.51.51 0 0 1-.22.15l-.02.03.02.18c0 .02.01.03.03.02.11 0 .22-.02.32-.06.1-.04.17-.02.2.07-.07.07-.08.15-.04.25-.17-.01-.34.01-.5.08-.06.03-.07.07 0 .11l.02.02a.16.16 0 0 0 .14.02c.13-.04.34-.1.45-.06l.04-.01.02-.05c.03.1 0 .15-.05.2a.43.43 0 0 0-.04.07c-.05.1-.03.2.06.27a.1.1 0 0 1 .03.11.1.1 0 0 1-.03.04l-.07.05a.05.05 0 0 0-.02.04v.23l-.38-.02c-.03 0-.05.01-.05.04l-.02.13c0 .03 0 .05.04.05.16-.01.33.02.51.1-.07 0-.11.02-.13.04l-.37-.03c-.08 0-.09.02-.02.07v.06c0 .02 0 .03-.03.03h-.04a.09.09 0 0 0-.1.05v.04Z" fill="#E0AF62"/><path d="M7.37 5.24c0 .04-.04.03-.1-.03l-.1-.14c0-.01 0-.02.01 0 .08.04.14.1.2.17Z" fill="#4E4638"/><path d="m7.37 5.24.17.13a.1.1 0 0 1 .03.03c.03.07.07.12.12.14.03.02.05.07.06.12.01.04.02.04.04.01v-.05l.06-.04.03.03c.01.02.02.01.02 0v-.03c.05.09.07.18.05.27v.03c.01.01.02.02.04.01a.03.03 0 0 1 .04.02v.01l-.06.4a.07.07 0 0 0 .03.06.07.07 0 0 0 .07 0 .55.55 0 0 0 .17-.15.02.02 0 0 1 .03 0h.02c.02.01.02.02 0 .04l-.1.1a.06.06 0 0 0-.01.04c0 .07 0 .13-.03.18-.01.02 0 .03.01.04.1.04.18.06.22.06.07 0 .21-.02.42-.08.08-.02.2-.03.36-.02h.24c.16 0 .3.04.46-.02.07-.02.17-.04.3-.05a.1.1 0 0 0 .08-.1v-.14c0-.05.02-.06.05-.01a1.02 1.02 0 0 0 .18.2.03.03 0 0 0 .03-.01v-.02c.01-.03.03-.06.05-.07h.05c.05.03.1.04.16.02.01.05.04.13.1.23 0 .03.02.04.04.05.01 0 .02 0 .02-.02l.01-.08c0-.02.01-.03.03 0 .05.05.12.02.15.15.01.02.02.04.05.05l.58.29v-.04c0-.02 0-.03.02-.03h.17a.37.37 0 0 1 .23-.06l.02-.01V6.9c.02 0 .03 0 .03.03a.03.03 0 0 1 0 .02.03.03 0 0 1-.02 0l-.07.02c-.02 0-.03 0-.03.03-.01.13 0 .24.05.33.01.01 0 .02-.01.03h-.02l-.01-.01a.8.8 0 0 0-.12-.1c-.11-.07-.13-.05-.05.05l.05.08c.03.05.02.06-.03.05a.7.7 0 0 1-.3-.2.33.33 0 0 0-.15-.07c-.14-.04-.2-.1-.35-.2-.07-.06-.1-.15-.16-.18l-.04.01.01.06.14.2c.06.12.1.24.1.37l-.18-.22a.05.05 0 0 0-.03-.02h-.12a.54.54 0 0 0-.24-.3h-.04c-.09.04-.16.02-.22-.05l-.02-.02h-.02c-.02 0-.03 0-.03.02l-.03.07h-.04c-.03-.04-.06-.05-.1-.03a.1.1 0 0 1-.04.02l-.17.02a.04.04 0 0 1-.03-.01l-.04-.04c-.02-.01-.04 0-.04.02l-.03.05h-.03l-.12-.1c-.03-.01-.04 0-.04.02v.07c0 .02-.01.03-.03.03-.08 0-.09-.06-.19-.02-.05.02-.07.01-.05-.04.01-.02 0-.05-.05-.09-.02-.01-.02 0-.02.02v.1c0 .01 0 .02-.02.02l-.03-.01-.05-.08h-.03v.03c.02.08.01.13-.03.16-.02.01-.03 0-.03-.02 0-.04 0-.07-.03-.09H9c-.02.02-.08.15-.16.13-.02 0-.02-.02-.02-.04l.04-.07c.04-.04.04-.05-.02-.03a.99.99 0 0 0-.15.08c-.07.04-.09.03-.06-.05a5.6 5.6 0 0 1 0-.05.72.72 0 0 0-.13.11c-.03.04-.06.05-.1.05a.02.02 0 0 1-.02-.02V7c0-.02 0-.02-.02-.01l-.2.12c-.05.03-.06.02-.03-.03l.04-.07V7l-.03-.01h-.02l-.2.13-.02-.01-.01-.02.02-.02c.03-.02.04-.04.04-.05.02-.07 0-.09-.06-.03a.91.91 0 0 1-.15.1l-.44.48a.06.06 0 0 1-.04.02.39.39 0 0 0-.22.08.04.04 0 0 1-.04 0 .1.1 0 0 1-.04-.02.08.08 0 0 0-.04-.03.87.87 0 0 1-.31-.12c-.12-.1-.35-.38-.3-.56a.03.03 0 0 0-.02-.03h-.02c-.15.02-.25.1-.4.22-.12.1-.18.25-.27.36-.05.06-.1.07-.15.11a.1.1 0 0 0-.02.04.34.34 0 0 1-.24.24.43.43 0 0 0-.05-.22l.15-.3c0-.02.02-.03.03-.04.26-.1.5-.26.7-.47.09-.1.13-.2.2-.32a.4.4 0 0 0 .06-.11l.04-.12.05.03c.01 0 .02.01 0 .03-.01.04 0 .06.04.08a.3.3 0 0 1 .1.06v.04c-.01.1-.01.2.02.31l-.02.03-.05-.04a.02.02 0 0 0-.03.01v.01l.02.22v.04l-.01.04c0 .02.02.02.03.03l.2.07c.03.03.08.04.12.04.04 0 .09.01.13.03h.05a.3.3 0 0 1 .19-.02.1.1 0 0 0 .1-.05.24.24 0 0 1 .13-.1.57.57 0 0 0 .29-.23l.18-.28c.06-.08.04-.2-.04-.27a88.34 88.34 0 0 1-.16-.15c-.15-.01-.26-.06-.33-.14a1.33 1.33 0 0 0-.3-.28c.02-.04 0-.07-.08-.1a.06.06 0 0 1-.04-.02l-.13-.2.01-.03a.94.94 0 0 1 .14-.02c.02 0 .01-.02 0-.02H6.9l-.02-.02v-.02c0-.01.01-.02.03-.02L7 5.3a.04.04 0 0 1 .04-.01l.18.03c.05.01.1.03.12.07.05.07.1.13.17.19.02.01.03 0 .03-.01v-.03c-.09-.1-.19-.2-.31-.3.02 0 .03 0 .04-.03.05.06.08.07.1.03Z" fill="#C38830"/><path d="M13.18 5.54c-.03.02-.08.01-.13-.03h-.03a.69.69 0 0 1-.22.12h-.04l-.12-.16a.02.02 0 0 1 0-.03.63.63 0 0 1 .24-.1c.18-.02.28.04.3.2Z" fill="#FCEA7E"/><path d="M7.07 5.5v-.02c-.02-.01-.02-.02 0-.03h.01l.14.02c.1 0 .17.08.22.15v.03c.02.07 0 .1-.07.08l-.03-.03-.03-.03h-.03c-.08 0-.15-.01-.2-.07a.08.08 0 0 0-.03-.02 1.21 1.21 0 0 0-.09-.03c-.08-.02-.08-.04 0-.06.02 0 .05 0 .09.02l.02-.01Z" fill="#010202"/><path d="M11.21 5.04c.02-.02.03-.01.03 0v.03c0 .01 0 .02.02.03l.12.03h.04c.04-.01.07 0 .08.02a11.49 11.49 0 0 0 .11.14l.2.1v-.01l-.15-.1c-.02 0-.01-.01 0-.01h.01l.14.08a.1.1 0 0 1 .04.04l.09.15-.01.02a.15.15 0 0 1-.11-.05.07.07 0 0 0-.04-.02h-.07c.06 0 .1.04.1.1l-.1.01c-.02 0-.04 0-.05-.02-.03-.04-.07-.05-.13-.03a.96.96 0 0 0-.5.36l-.21.27c-.02.01-.03.02-.04 0h-.02l-.03.01v.1l-.02-.02c-.3-.26-.15-.56-.27-.9-.06-.17-.03-.39-.06-.58l.01-.01h.02c.19 1 .29.77.8.26Z" fill="#A46B25"/><path d="M11.82 5.6a.4.4 0 0 1 .21.09l.11.08.13.06c.03.02.03.03 0 .02l-.14-.01c-.02 0-.03 0-.01.02.04.07.13.08.08.19a.07.07 0 0 1-.05 0 .05.05 0 0 1-.03 0c-.12-.16-.34-.31-.54-.24-.03 0-.03.02 0 .02.25.04.43.18.54.4.04.1.04.18.05.32.01.07 0 .13-.03.17-.1.14-.3.12-.5.12h-.05a.3.3 0 0 0-.13-.05c-.03 0-.03 0-.01.02.16.16.38.13.58.06.06-.02.09-.07.14-.11.12-.1.18-.22.17-.39 0-.02.01-.02.03-.02.1.02.16.05.2.1-.04.03-.08.03-.1.03h-.05a.06.06 0 0 0-.02.04.44.44 0 0 1-.08.13l-.02.05c0 .01 0 .03.02.04v.01a.02.02 0 0 1-.01.03.21.21 0 0 0-.11.04c-.02.01-.03.02-.03.04a.1.1 0 0 0 0 .04v.02l-.01.01c-.08 0-.16.01-.23.05a.08.08 0 0 1-.04.01h-.13c-.02 0-.02.01-.02.03v.04l-.58-.3a.08.08 0 0 1-.05-.04c-.03-.13-.1-.1-.15-.16-.02-.02-.02-.01-.03 0v.09l-.03.02c-.02 0-.04-.02-.05-.05l-.1-.23-.02-.1v-.1c0-.01.02-.02.03 0h.06l.21-.28c.08-.1.15-.18.22-.22.09-.06.18-.1.28-.14.06-.02.1-.01.13.03.01.02.03.02.04.02h.12Z" fill="#010202"/><path d="M13.1 5.64c0 .02.02.04.05.04l-.14.06c-.08 0-.05-.04.1-.1Z" fill="#C38830"/><path d="M13.15 5.68c.23.05.3.15.24.31-.04.02-.05 0-.04-.06a.04.04 0 0 0 0-.04.04.04 0 0 0-.04-.01.5.5 0 0 0-.27.15.07.07 0 0 1-.1 0L12.92 6c-.04-.13-.01-.22.09-.26l.14-.06Z" fill="#FCEA7E"/><path d="M7.02 5.8c.09.06.19.15.3.3.07.07.18.12.33.13l.04.02.12.13c.08.07.1.2.04.27l-.18.28a.57.57 0 0 1-.29.22.24.24 0 0 0-.13.11.1.1 0 0 1-.1.05.3.3 0 0 0-.19.01h-.05a.57.57 0 0 0-.13-.02.26.26 0 0 1-.13-.04.64.64 0 0 0-.19-.07.04.04 0 0 1-.03-.03v-.04c.01-.01.02-.02.01-.04l-.02-.22a.02.02 0 0 1 .01-.02.02.02 0 0 1 .02 0l.05.04c.04.12.12.2.25.22.1.02.22.03.32-.02v-.01c0-.01 0-.02-.02-.01-.23.05-.41-.02-.53-.2a.64.64 0 0 1-.01-.32L6.5 6.5a.31.31 0 0 0-.1-.06c-.05-.02-.05-.04-.03-.08l-.01-.03c-.03 0-.05-.02-.05-.03l.13-.08a.02.02 0 0 0 .01-.02v-.02a.02.02 0 0 0 0-.02.02.02 0 0 0-.03 0 .2.2 0 0 1-.05.01c-.05 0-.06-.01-.01-.04.09-.05.25-.12.3-.21 0-.02.02-.03.03-.03a.2.2 0 0 0 .06-.01c.02-.01.02-.02 0-.03l-.1-.07c-.03-.01-.03-.02 0-.02.06 0 .1 0 .15.03a.4.4 0 0 0 .22.02Z" fill="#010202"/><path d="M12.2 6.05c.08.13.23.22.44.25h.1c.04 0 .07.01.1.04.07.04.11.17.16.23.02.04.03.08.02.12v.03c-.01.04-.03.05-.05.01a.9.9 0 0 0-.4-.28c-.04-.05-.1-.08-.2-.1-.02 0-.03 0-.03.02.01.17-.05.28-.17.39-.05.04-.08.1-.14.11-.2.07-.42.1-.58-.06-.02-.01-.02-.02 0-.02.05 0 .1.02.14.04l.05.01c.2 0 .4.02.5-.12.03-.04.04-.1.03-.17-.01-.14 0-.23-.05-.32a.68.68 0 0 0-.54-.4c-.03 0-.03-.01 0-.02.2-.07.42.08.54.23a.04.04 0 0 0 .03.02l.05-.01Z" fill="#A46B25"/><path d="m13.55 6.37-.07-.04h-.04l-.24.1c-.06.03-.09 0-.1-.05v-.01c0-.06.03-.1.08-.11a.58.58 0 0 0 .2-.13c.16-.07.43.11.17.24Z" fill="#FCEA7E"/><path d="M7.14 6.23a.01.01 0 0 1 .02 0l.02.02a.46.46 0 0 1 .06.08v.05h-.05a.46.46 0 0 1-.08-.06l-.02-.03a.01.01 0 0 1 0-.02l.05-.04Z" fill="#ECE7D5"/><path d="M5.64 6.36c.03.04.03.08.02.12l-.03.03-.13.05a.63.63 0 0 1-.02-.2c0-.02 0-.03.02-.04l.03-.01c.03 0 .07.02.11.05Z" fill="#DCC194"/><path d="m11.74 6.74-.43-.13.07-.02c.02 0 .02-.02.01-.03l-.01-.02-.01-.01V6.5c.03-.05.07-.06.1-.05.18.05.35.03.5-.07a.07.07 0 0 1 .11.04c.02.07.02.14-.03.2a.45.45 0 0 1-.12.12c-.08.03-.15.03-.19-.01Z" fill="#16292D"/><path d="m13.51 6.43.02.12c0 .01.01.03.03.03.13.04.21.04.26.16v.04a.16.16 0 0 1-.06.07c-.03-.09-.1-.1-.2-.07-.1.04-.2.06-.32.06-.02 0-.03 0-.03-.02l-.02-.18c0-.01 0-.03.02-.03a.51.51 0 0 0 .22-.15c.02-.02.04-.03.08-.03Z" fill="#FCEA7E"/><path d="M7.31 6.77c-.14.08-.24.12-.29.12-.08-.01-.14.01-.15.06-.17.03-.27-.04-.28-.23a.1.1 0 0 1 .05-.08.1.1 0 0 1 .1 0c.07.04.1.07.2.06.14 0 .27.02.37.07Z" fill="#16292D"/><path d="M7.31 6.77c-.05.19-.26.19-.44.18.01-.05.06-.07.15-.06.05 0 .15-.04.3-.12Z" fill="#C5A77D"/><path d="M10.87 7.17a.52.52 0 0 0 .26.23v.02l-.36.27a.05.05 0 0 0-.02.05l.05.3a2.21 2.21 0 0 0-.91-.28c-.51-.04-1.03 0-1.55.12-.33.07-.63.25-.88.52a.55.55 0 0 0-.18-.28c-.09-.07-.14-.13-.1-.23.05-.13.14-.27.27-.4l.28-.4c.05-.02.1-.06.15-.1.06-.06.08-.04.06.03l-.04.05-.02.02v.02h.03c.05-.01.12-.06.2-.11l.02-.01h.03V7l-.04.08c-.03.05-.02.06.03.03l.2-.12c.01-.01.02 0 .02.01v.04a.02.02 0 0 0 .02.02c.04 0 .07-.01.1-.05a.72.72 0 0 1 .13-.1c.03-.02.03-.02.02 0l-.02.04c-.03.08 0 .1.06.05l.15-.08c.06-.02.06-.01.02.03a.17.17 0 0 0-.04.07c0 .02 0 .03.02.04.08.02.14-.1.16-.13h.04c.02.02.03.05.03.1 0 .02 0 .02.03 0 .04-.02.05-.07.02-.15v-.02l.02-.01h.02l.05.08h.06V6.9l-.01-.1c0-.02 0-.02.02 0 .04.03.06.06.05.08-.02.05 0 .06.05.04.1-.04.1.02.19.02.02 0 .03 0 .03-.03v-.07c0-.03.01-.03.04-.01l.12.1.03-.01.03-.05c0-.03.02-.03.04-.02l.04.04a.04.04 0 0 0 .03 0l.17-.01a.1.1 0 0 0 .05-.02c.03-.02.06-.01.1.03h.03l.03-.07c0-.01 0-.02.03-.02h.02l.02.02c.06.07.13.09.22.05h.04c.11.06.2.16.24.3Z" fill="#FEFBE7"/><path d="m6.5 6.88.02-.03c.12.19.3.26.53.2.01 0 .02 0 .02.02v.01c-.1.05-.22.04-.32.02a.3.3 0 0 1-.25-.22Z" fill="#4E4638"/><path d="M13.1 8.98c0 .07-.02.12-.04.17l-.15.26a10.19 10.19 0 0 1-.08.23l-.04.12a.2.2 0 0 0-.02.1l-.04.09-.12.34-.1.36a.03.03 0 0 0 .01.04h.02c.02.01.04 0 .04-.02s.02-.03.05-.03h.03c.02.01.02.02.02.04-.04.06-.07.1-.13.15-.05.05-.07.11-.06.2v.01l-.02.02a.15.15 0 0 1-.09.03c-.02 0-.03 0-.03-.03.06-.31.1-.59.02-.92.02-.11-.03-.21-.02-.3 0-.12 0-.32-.07-.41a.54.54 0 0 1-.04-.07 3.37 3.37 0 0 0 0-.19l-.01-.05c-.02-.02-.04-.02-.07 0a.02.02 0 0 1-.02-.01l-.01-.01v-.01c0-.09.01-.12-.03-.2a.75.75 0 0 1-.09-.3c0-.1-.05-.15-.12-.18a.6.6 0 0 1-.18-.2c-.1-.22-.21-.42-.37-.6.01-.03.03-.05.06-.07.18.15.32.33.43.54 0 .01.02.02.03.01h.01v-.11c0-.02 0-.03.01-.01.08.06.13.19.25.18.02 0 .04 0 .05.02l.1.07h.02c.1-.12.18-.23.04-.35a.17.17 0 0 1-.03-.07c0-.03 0-.04.03-.02l.03.04a.03.03 0 0 0 .05 0l.27-.54.02-.09c.03-.07.05-.07.05.01l.03.11c.01.02.02.02.04 0v-.02l-.02-.26c0-.06.02-.07.06-.03.11.12.2.27.28.47.03.1.04.29.1.42.04.07.05.13.05.17-.01.13-.03.23-.06.3a3 3 0 0 0-.14.6Z" fill="#FEFBE7"/><path d="M13.72 7.1c.08.03.13.07.17.1 0 .03 0 .05-.02.06a.04.04 0 0 1-.04 0c-.11-.03-.32.03-.45.07a.16.16 0 0 1-.14-.02l-.02-.02c-.07-.04-.06-.08 0-.11.16-.07.33-.1.5-.08Z" fill="#FCEA7E"/><path d="M11.2 7.42c.07.02.13.06.2.12a.13.13 0 0 0-.06.07l-.03-.02a6.52 6.52 0 0 1 .42.78c0 .02.04.05.1.1.02.02.03.03.03.05 0 .05.03.08.05.11.02.02.03.01.03 0a.26.26 0 0 0-.05-.22c.07.03.11.09.12.17.01.14.04.24.09.31.04.08.04.11.03.2a.02.02 0 0 0 0 .02.02.02 0 0 0 .03 0c.03-.01.05-.01.07 0l.01.06a3.2 3.2 0 0 1 0 .19l.04.07c.08.09.08.29.07.4 0 .1.04.2.02.31-.02 0-.02.02-.02.06-.05.02-.08 0-.1-.02a1.56 1.56 0 0 0 0-.08c-.04-.1-.07-.1-.09 0l-.02.13c-.01.1-.1.17-.14.23-.07.1-.06.2-.05.31 0 .02 0 .03.02.04.03.01.04.05.03.09l-.27.6c-.03.05-.1.05-.13.07-.1.07-.24.2-.36.2-.27 0-.52.04-.75.12-.1.04-.2.04-.33.06-.07 0-.12.03-.15.07l-.32.06c-.07-.19-.02-.32.15-.39a.72.72 0 0 0 .16-.08l.14-.12a.97.97 0 0 1 .32-.19.68.68 0 0 0 .18-.12c.1-.09.24-.17.21-.27l.01-.04a.22.22 0 0 0 .04-.14c.23-.24.4-.5.5-.81.15-.41.03-.79-.1-1.22-.1-.27-.26-.5-.5-.66l-.05-.3a.05.05 0 0 1 .02-.05l.36-.27V7.4a.52.52 0 0 1-.26-.23l.12.01c.01 0 .02 0 .03.02l.19.22Z" fill="#ECE7D5"/><path d="M6.5 8.49c.08.04.12.1.15.18l-.01.04c-.18.29-.27.6-.25.93l-.05.42-.01.02H6.3s-.02 0-.02-.02a.63.63 0 0 0-.1-.34.35.35 0 0 0-.16-.11.53.53 0 0 1-.29-.32.06.06 0 0 0-.02-.03l-.02-.03c-.01-.03-.02-.03-.01.01v.14c0 .02 0 .03-.03.02h-.02l-.04-.04a1.02 1.02 0 0 1-.1-.24.06.06 0 0 0-.03-.03.07.07 0 0 0-.04-.02c0-.14-.09-.14-.19-.2a.1.1 0 0 1-.04-.1c.02 0 .04 0 .06.02.02.03.04.04.07.05a.03.03 0 0 0 .04-.01.03.03 0 0 0 0-.03c-.02-.08-.03-.2-.1-.25a.3.3 0 0 1-.02-.2c.08-.18.18-.34.3-.46a1.94 1.94 0 0 0 .34-.47c.01-.02.02-.02.03 0v.03a.75.75 0 0 0-.03.23l.05.15c.04.08.05.15.04.23l.02.05a.01.01 0 0 0 .01 0 .02.02 0 0 0 .02 0l.08-.27h.03v.02c0 .14.01.25.1.35l.1.1c.06.05.12.09.16.18Z" fill="#FEFBE7"/><path d="M7.45 7.49a1.3 1.3 0 0 0-.27.4c-.04.1.01.16.1.23.08.07.14.16.18.28-.32.35-.36.73-.42 1.27-.02.21.03.45.16.71.03.08.03.16.02.24a.06.06 0 0 0 .02.05c.09.1.1.21.22.3.14.12.26.25.36.4l.04.02.21.1c.16.07.34.12.54.15.04 0 .1.04.15.1.01.02.03.02.04.02l.1.01.03.03c.02.06.02.11 0 .16a.44.44 0 0 1-.11.13.45.45 0 0 1-.24-.06l-.6-.2c-.06-.02-.1 0-.17-.04a7.42 7.42 0 0 0-.3-.12 1.3 1.3 0 0 1-.58-.44c-.12-.16-.19-.35-.3-.59-.08-.17-.21-.24-.2-.46l.01-.55c0-.05 0-.06-.03-.02l-.02.03c-.02-.33.07-.64.25-.93v-.04a.3.3 0 0 0-.14-.18.18.18 0 0 1 .07-.05.03.03 0 0 1 .03.01v.01l.04.08h.03l.16-.27.18-.3c.04-.03.1-.1.18-.22.04-.05.12-.14.26-.26Z" fill="#ECE7D5"/><path d="m7.45 7.49.28-.4-.44.48c-.24.03-.55.04-.7-.07-.1-.1-.34-.38-.3-.56a.03.03 0 0 0 0-.02.03.03 0 0 0-.03 0c-.14 0-.23.08-.36.18l-.04.03a.83.83 0 0 0-.18.23l-.1.13a.3.3 0 0 1-.08.07l-.06.04a.1.1 0 0 0-.02.04.34.34 0 0 1-.24.24l-.04.15c0 .02 0 .03.02.04.06.08.1.17.1.27.07-.17.17-.33.29-.45a1.94 1.94 0 0 0 .34-.47c.01-.02.02-.02.03 0v.03a.75.75 0 0 0-.03.23l.05.15c.04.08.05.15.04.23l.02.05h.01a.02.02 0 0 0 .02 0l.08-.27h.03v.02c0 .14.01.25.1.35l.1.1.05.04c.04.04.08.07.11.14a.18.18 0 0 1 .07-.05.03.03 0 0 1 .04.02c0 .03 0 .06.03.08h.02l.17-.27.18-.3c.04-.03.1-.1.18-.22.04-.05.12-.14.26-.26Z" fill="#E0AF62"/><path d="M11.34 7.6c.16.2.28.4.37.61a.6.6 0 0 0 .18.2c.05.06.07.14.05.21 0 .02-.01.03-.03.01a.2.2 0 0 1-.05-.11.06.06 0 0 0-.02-.04.54.54 0 0 1-.12-.11 6.52 6.52 0 0 0-.41-.78l.03.02Z" fill="#DCC194"/><path d="M10.8 8.04c.24.17.4.39.5.66.13.43.25.8.1 1.22-.1.3-.27.57-.5.8a2.5 2.5 0 0 1-1.57.83.05.05 0 0 0-.04.05v.5a.03.03 0 0 0 .03.02l.37-.04.32-.06a.54.54 0 0 1-.23.11 2.56 2.56 0 0 1-1.15 0c-.07-.04-.08-.06-.05-.1.07.04.15.06.24.06l.36.04h.02v-.01a.03.03 0 0 0 .01-.02v-.52a.02.02 0 0 0-.01-.02 2.51 2.51 0 0 1-2-1.18 1.3 1.3 0 0 1-.16-.7c.06-.55.1-.93.42-1.28.25-.27.55-.45.88-.52a5.03 5.03 0 0 1 1.55-.12c.32.03.62.12.9.28Z" fill="#010202"/><path d="m10.33 7.94-.4.38a.6.6 0 0 1-.29.15c-.31.06-.64.06-.98 0-.3-.06-.6-.13-.9-.23.41-.2.83-.33 1.24-.4a4.63 4.63 0 0 1 1.33.1Z" fill="#4E4638"/><path d="M8.78 9.9c.07-.24 0-.43-.2-.59-.26-.22-.63-.2-.86-.32v-.03L8 8.7a.03.03 0 0 0 0-.03.03.03 0 0 0-.02-.02l-.43-.07a.02.02 0 0 1-.02-.01v-.01c.07-.13.15-.24.24-.3.3.09.6.16.89.21.34.07.67.07.98 0a.6.6 0 0 0 .29-.14l.4-.38c.15.03.37.12.43.28v.04c-.1.15-.08.25-.1.4-.01.07-.1.16-.18.2-.38.18-.75.35-.86.78-.15.59.35.79.86.76.02 0 .03 0 .03.02.03.07.03.12 0 .15-.08.07-.15.16-.24.2-.52.27-1.02.25-1.63.24-.22 0-.5-.04-.68-.17-.3-.23-.34-.5-.45-.89-.02-.09 0-.1.08-.05l.29.16c.32.13.88-.09.9-.17Z" fill="#16292D"/><path d="M13.76 8.22c0 .03.02.06.04.07.16.1.19.18.07.23a1.15 1.15 0 0 0-.51-.1c-.03 0-.05-.02-.04-.05l.02-.13c0-.03.02-.04.05-.04l.37.02Z" fill="#FCEA7E"/><path d="M5.2 8.77c-.01-.02 0-.05.01-.08.03-.04.05-.09.06-.14.07.05.08.17.1.25a.03.03 0 0 1 0 .03.03.03 0 0 1-.04.01.13.13 0 0 1-.07-.05c-.02-.02-.04-.02-.06-.02Z" fill="#C5A77D"/><path d="m13.67 8.8.07-.24-.37-.03c-.08 0-.09.02-.02.07v.06c0 .02 0 .03-.03.03h-.04a.09.09 0 0 0-.1.05v.04c0 .04.03.06.06.07h-.02v.05h.01c.11.07.22.11.32.15.03.02.04.05.04.08l.05-.01c.04.02.07.02.1 0a.04.04 0 0 0 .02-.04.54.54 0 0 0-.08-.24.06.06 0 0 1 0-.04Z" fill="#FCEA7E"/><path d="m6.39 9.64.02-.03c.02-.04.04-.03.03.02l-.02.55c0 .22.13.3.2.46.12.24.2.43.31.59.15.2.34.34.58.44l.3.12c.07.03.11.02.17.04l.6.2c-.03.04-.02.07.05.1l.1.02c.34.07.7.06 1.05-.02a.54.54 0 0 0 .23-.1c.03-.05.08-.07.15-.08.14-.02.22-.02.33-.06.23-.08.48-.12.75-.12.12 0 .26-.13.36-.2.04-.02.1-.02.13-.07.1-.19.18-.39.27-.6.01-.04 0-.08-.03-.1a.04.04 0 0 1-.02-.03c-.01-.11-.02-.2.05-.3.04-.07.13-.15.14-.24l.02-.12c.02-.1.05-.1.08-.01l.02.08c0 .03.04.04.09.02.02.4-.03 1.07-.36 1.32-.24.19-.5.35-.54.45a6.9 6.9 0 0 1-.37.87c-.04.08-.07.2-.1.38-.02.1-.01.37.01.78H9.62v-.2c.08-.1.12-.18.22-.25.2-.15.27-.25.26-.51 0-.02-.01-.02-.02-.01l-.53.3a.24.24 0 0 0-.07-.06l-.44-.16c-.1-.04-.2-.05-.3-.07a.18.18 0 0 1-.06-.05.04.04 0 0 1 0-.05l.01-.02h.03c.12.01.23.04.32.08.13.06.26.06.38.01a2.59 2.59 0 0 0 .6-.32c-.25 0-.47.01-.65.04-.3.05-.51 0-.9-.02a.45.45 0 0 1-.22-.05c-.33-.21-.58-.4-.98-.54-.05-.02-.06 0-.04.04l.04.1c.02.04.05.07.09.1l.16.07.02.03c.02.06.02.11 0 .15-.1.13-.16.23-.2.31v.1l-.02.01c-.07 0-.1.02-.1.09l-.1.02a.03.03 0 0 1-.03-.03v-.02l.11-.21v-.02h-.03l-.33.53c-.11.19-.17.38-.19.6l-.04.01h-.44a.13.13 0 0 0-.06-.01 2.5 2.5 0 0 1-.2-.55c-.05-.25-.12-.5-.12-.75 0-.21-.03-.37-.07-.64-.02-.16-.02-.3 0-.42l.03-.43c0-.2.11-.37.21-.51l.07-.14a.03.03 0 0 0 0-.04l-.05-.06a.04.04 0 0 1 0-.03v-.02H6a.2.2 0 0 0 .07-.06v-.03a.13.13 0 0 0-.09-.02c-.02 0-.02-.01-.02-.03l.03-.04c.09.01.15 0 .2-.06.01-.01 0-.02-.01-.02-.1 0-.2.02-.28 0-.18-.05-.24-.22-.18-.38V9.7a.5.5 0 0 0-.08-.17.06.06 0 0 0-.04-.02.46.46 0 0 1-.19-.07c-.1-.06-.04-.17 0-.25.03-.05.03-.08.02-.13.01 0 .03 0 .04.02.02 0 .03.02.03.03.02.09.06.17.1.24l.04.04h.02c.02.01.03 0 .03-.02v-.14c0-.04 0-.04.01 0l.02.02.02.03c.06.15.15.26.29.32.07.03.13.07.15.11.07.1.11.22.11.34l.02.02h.02l.01-.02.05-.42Z" fill="#DCC194"/><path d="M13.06 9.15v.03c0 .02 0 .03.03.02a.06.06 0 0 1 .05 0l.21.11.14.1.06.13c.01.02.02.05 0 .06 0 .03-.03.04-.06.04a.65.65 0 0 0-.44-.2h-.04a.44.44 0 0 0-.18.2 10.19 10.19 0 0 0 .08-.23l.15-.26Z" fill="#FCEA7E"/><path d="m13.37 9.67.12-.03a.65.65 0 0 0-.44-.2h-.04a.44.44 0 0 0-.18.2l-.04.12a.2.2 0 0 0-.02.1l.45.14a.95.95 0 0 1 .15-.33Z" fill="#E0AF62"/><path d="M13.22 10c.02.03.04.07.04.1a.07.07 0 0 1-.04.09h-.04c-.14-.01-.18.06-.25.15-.02.03-.02.06 0 .1.03.08.02.15-.04.22a.03.03 0 0 1-.04 0c-.07-.01-.12 0-.17.02 0-.02 0-.03-.02-.03h-.03c-.03 0-.05 0-.05.02s-.02.03-.04.02h-.02l-.01-.02v-.02l.1-.36c.1.01.14-.13.15-.2a.04.04 0 0 1 .02-.04.05.05 0 0 1 .05 0 1.88 1.88 0 0 0 .2.1l.02-.02v-.03l-.32-.15.04-.1.45.15Z" fill="#FCEA7E"/><path d="m12.6 10.3.13-.35.32.15v.03l-.02.01h-.02a1.86 1.86 0 0 1-.2-.09.05.05 0 0 0-.04.02l-.01.02c-.01.07-.05.21-.15.2ZM6 10.22l-.04.04c0 .02 0 .03.02.03.04 0 .07 0 .09.02v.03a.2.2 0 0 1-.07.05.04.04 0 0 0-.02.06l.05.06a.03.03 0 0 1 0 .04c-.03.03-.04.1-.07.14a.93.93 0 0 0-.21.5c0 .1-.01.24-.04.44l.01.42c.04.27.07.43.07.64 0 .26.07.5.13.75.05.2.11.38.2.55l-.06.01H5.58l-.06-.03c.04-.36.1-.72.08-1.09 0-.16-.04-.45-.1-.85-.03-.12 0-.34.06-.66.04-.22.13-.57.25-1.04.03-.1.09-.13.18-.1Z" fill="#C38830"/><path d="m6.52 11.34-.01.01h-.03a1.31 1.31 0 0 1-.14-.5.47.47 0 0 0-.11-.25.06.06 0 0 1-.01-.05l.04-.25c0-.02.01-.03.03-.01.04.03.06.08.05.12a1 1 0 0 0 .03.36c.06.23.1.42.15.57Z" fill="#ECE7D5"/><path d="M8.82 12.09c.06-.06.1-.1.1-.13a.22.22 0 0 0 0-.16.06.06 0 0 0-.02-.03.21.21 0 0 0-.1 0l-.04-.02c-.06-.07-.1-.1-.15-.1-.2-.04-.38-.1-.54-.16a3.38 3.38 0 0 0-.25-.13c-.1-.14-.22-.27-.36-.39-.12-.09-.13-.2-.22-.3a.06.06 0 0 1-.02-.05.49.49 0 0 0-.02-.24 2.5 2.5 0 0 0 2.01 1.19v.53a.03.03 0 0 1-.01.02h-.02l-.36-.03ZM10.9 10.73c0 .05 0 .1-.04.14v.04c.02.1-.11.18-.22.27a.68.68 0 0 1-.18.12.97.97 0 0 0-.32.19l-.14.12a.72.72 0 0 1-.16.08c-.17.07-.22.2-.15.39l-.37.04a.03.03 0 0 1-.03-.03v-.49a.05.05 0 0 1 .04-.05 2.5 2.5 0 0 0 1.57-.82Z" fill="#CAC2AD"/><path d="M10.02 11.03a26.78 26.78 0 0 0 .27-.11v.01h.01v.02c-.15.08-.25.2-.4.27-.5.27-1 .28-1.52.05l-.01-.02v-.01h.01c.5.02.8.02.88.01.3-.05.55-.13.76-.22Z" fill="#16292D"/><path d="M8.74 13.04c-.08.04-.05.06.08.05h.01v.02l-.08.04a.06.06 0 0 0-.03.03c-.06.16-.03.3.1.44a.04.04 0 0 1 .02.04.04.04 0 0 1-.03.02c-.15.04-.3.06-.46.04a.04.04 0 0 1-.03-.03.52.52 0 0 1-.02-.21c0-.17.09-.26.27-.3l.03-.01c.02 0 .03-.01.03-.02l.02-.02v-.02c0-.02-.01-.02-.03-.01a.2.2 0 0 1-.23 0 .27.27 0 0 0-.25-.08 1.69 1.69 0 0 0-.92.1c0-.07.03-.1.1-.09.01 0 .02 0 .01-.02v-.09l.2-.31c.03-.04.03-.09.01-.15a.05.05 0 0 0-.02-.03l-.16-.08a.18.18 0 0 1-.1-.09l-.03-.1c-.02-.04-.01-.06.04-.04.4.13.65.33.98.54.05.03.12.05.22.05.39.03.6.07.9.02a4.51 4.51 0 0 1 .66-.04 2.59 2.59 0 0 1-.6.33.48.48 0 0 1-.4-.02.96.96 0 0 0-.31-.08.05.05 0 0 0-.05.02.05.05 0 0 0 0 .05l.07.05Z" fill="#C5A77D"/><path d="M7.22 13.12a1.68 1.68 0 0 1 .92-.1c.1-.02.18 0 .25.07h-.15c-.02 0-.02.01-.01.03.05.1.08.23.07.36-.01.07 0 .15.02.2 0 .03.01.03.03.04a1.16 1.16 0 0 0 .48-.05.04.04 0 0 0 0-.03v-.02c-.14-.13-.17-.28-.1-.44 0-.01 0-.02.02-.03l.09-.03v-.01l-.01-.01h-.01c-.13 0-.16-.02-.08-.06.1.02.2.03.3.07l.44.16c.02 0 .04.03.07.06.11.14.08.3.08.46l-.01.21h-.08v-.47c0-.16-.08-.17-.21-.23-.17-.06-.33-.1-.48-.1-.05 0-.08.03-.09.09-.01.1.02.18.1.25l.03.04c.03.12-.02.18-.15.2-.15.03-.3.03-.46 0l-.02-.01-.01-.03c-.01-.18-.01-.42-.1-.57-.14-.25-.85.02-1.07.07-.12.02-.24.33-.32.5a.63.63 0 0 0-.02.26h-.07l-.02-.01c.02-.22.08-.41.19-.6a248.08 248.08 0 0 1 .34-.54l.02.01v.02l-.1.21a.03.03 0 0 0 0 .04h.03l.09-.01Z" fill="#010202"/><path d="M9.63 13.8c0-.17.03-.33-.08-.47l.53-.3c.01-.01.02 0 .02.01.01.26-.06.36-.27.5-.09.08-.13.16-.2.25Z" fill="#C5A77D"/><path d="M8.39 13.1a.2.2 0 0 0 .23 0h.03v.03l-.02.02s-.01.02-.03.02l-.03.01c-.18.04-.27.13-.27.3a.71.71 0 0 0-.07-.36c-.01-.02 0-.03.01-.03h.15Z" fill="#C38830"/></svg>