<!-- by TradingView --><svg width="18" height="18" viewBox="0 0 18 18" xmlns="http://www.w3.org/2000/svg"><path fill="url(#a5xiyt3m1)" d="M0 0h18v18H0z"/><path d="M15 9A6 6 0 1 1 3 9a6 6 0 0 1 12 0Z" fill="#F9F5D3"/><path d="M12.49 4.35c-.08.05-.2.04-.33-.03-.05-.03-.08-.01-.1.04-.02.03 0 .06.02.09.07.09.24.24.51.45.06.04.05.07-.01.1a.27.27 0 0 1-.13 0c-.18-.14-.3-.2-.36-.14a.77.77 0 0 0-.35-.19c-.06-.01-.1.01-.13.06-.03.1.02.18.15.28h-.1a.16.16 0 0 0 .02.28c.1.05.14.14.11.3a.38.38 0 0 1-.2-.1c-.04-.03-.08-.03-.1.03a.1.1 0 0 0 0 .06v.03l.03.03c.07.07.06.08-.03.05a1.96 1.96 0 0 0-.33-.1c-.05 0-.1.02-.12.07l-.49.99c-.04-.13-.15-.26-.33-.39.18-.28.28-.59.3-.93 0-.1.05-.13.14-.08l.15.08c.04.02.06 0 .05-.04a.1.1 0 0 0-.02-.05.2.2 0 0 0-.1-.05.44.44 0 0 1-.34-.28.09.09 0 0 1 .05-.11h.04c.08 0 .16.03.23.07.05.03.07.02.07-.04 0-.02.01-.04.04-.05h.01a.04.04 0 0 0 0-.04v-.02c-.16-.18-.32-.24-.5-.18a.17.17 0 0 1-.15-.03.85.85 0 0 0-.56-.16l-.16-.02c-.02-.05-.03-.1 0-.13.05 0 .1-.01.14-.03.04-.02.06-.06.07-.11.01-.1-.02-.17-.08-.2.08-.06.23-.06.43.01h.06l.05-.01.12-.09a.04.04 0 0 0-.01-.07l-.74-.15a2.66 2.66 0 0 0-.74-.08c-.95.06-1.82.34-2.64.84-.2.13-.5.41-.88.86-.04.04-.03.08.02.1.09.04.19 0 .3-.13.02.05.02.1 0 .12-.18.02-.31.13-.4.32-.19.1-.37.27-.54.5-.02.02-.03.1-.04.2a.37.37 0 0 0-.17.24l-.15.22c-.03.04-.06.04-.1.02l-.04-.02c-.02-.01-.03-.03-.02-.05l.3-.7a.25.25 0 0 1 .1-.1.13.13 0 0 0 .04-.07c.04-.07.02-.1-.06-.06a.65.65 0 0 1-.35.07c1.4-2 3.3-2.86 5.7-2.6.94.11 1.82.48 2.65 1.12Z" fill="#AE8F57"/><path d="M9.6 3.86a.89.89 0 0 0-.37 0c-.06 0-.1.05-.1.11l.01.08a.14.14 0 0 0 .1.1l.22.05c-.02.03-.02.08 0 .13l-.91.04a3.2 3.2 0 0 0-.9.16c-.44.15-.86.34-1.26.59-.07.04-.1.1-.12.18 0 .07.03.1.1.07.1-.04.17-.1.23-.17.04-.04.08-.04.11.02.03.05.07.1.11.13.08.07.06.1-.03.1-.03 0-.05.01-.06.05-.01.08.02.11.1.11.1 0 .16.04.21.11.08.13.16.27.22.42.03.06.01.1-.03.12l-.41.25a1.67 1.67 0 0 0-.3-.52.15.15 0 0 0-.25 0c-.1.18-.25.33-.43.45-.11.07-.13.05-.07-.06A1.45 1.45 0 0 1 6.12 6V6l-.01-.01-.28-.1a.1.1 0 0 0-.1.02.23.23 0 0 0-.1.18c0 .05-.02.1-.06.13a.94.94 0 0 1-.45.21c-.03-.03-.01-.07.05-.1l.75-.98a.15.15 0 0 0 .03-.1V5.2l.28-.15c.3-.25.26-.36-.13-.34-.1.01-.18.1-.24.28-.13-.05-.23 0-.3.15-.1.12-.2.17-.29.13-.05-.02-.06-.06-.02-.1.38-.45.67-.73.88-.86.81-.5 1.7-.78 2.64-.84.21-.01.46.01.74.08a20.41 20.41 0 0 0 .76.16.04.04 0 0 1 0 .04v.02l-.13.09a.12.12 0 0 1-.05.02h-.06c-.2-.08-.35-.08-.43-.02Z" fill="#D5B370"/><path d="M8.56 4.2c.16-.02.29-.11.28-.21-.01-.1-.16-.16-.32-.14-.17.02-.3.11-.29.2.01.1.16.17.33.15Z" fill="#E7D39F"/><path d="M9.6 3.86c.06.03.09.1.08.2 0 .05-.03.1-.07.1a.38.38 0 0 1-.15.04l-.21-.05a.14.14 0 0 1-.11-.1.2.2 0 0 1-.01-.08c0-.06.04-.1.1-.12a.89.89 0 0 1 .37.01Z" fill="#FFFCC1"/><path d="m7.74 3.97-.25.08a.14.14 0 0 0-.1.18l.02.06c.02.08.1.12.18.1l.26-.08c.07-.02.12-.1.1-.18l-.02-.06a.14.14 0 0 0-.19-.1Z" fill="#E7D39F"/><path d="m10.44 4.04-.31-.08a.12.12 0 0 0-.14.09l-.02.07c-.01.06.03.13.09.14l.31.07c.07.02.13-.02.14-.08l.02-.07a.12.12 0 0 0-.09-.14Z" fill="#FFFCC1"/><path d="M11.27 4.65a.07.07 0 0 1-.1.03l-.1-.05a.82.82 0 0 1-.2-.15.24.24 0 0 1-.05-.08v-.06l.03-.05c0-.02.02-.03.05-.04h.09c.03 0 .07 0 .11.02l.13.05.1.05a.07.07 0 0 1 .03.1l-.1.18Z" fill="#F9F5D3"/><path d="M6.92 4.65c.16-.07.26-.19.22-.28-.03-.09-.19-.11-.34-.05-.16.06-.26.19-.22.27.03.1.19.12.34.06ZM9.47 4.33l.16.02c0 .08-.05.14-.15.2-.08.03-.08.07-.01.1.06.04.13.06.21.07.11.02.14.07.08.17a.17.17 0 0 1-.13.08c-.06 0-.08.04-.03.09.2.22.25.47.16.74-.42.13-.68.13-.79-.01.3-.2.14-.54-.12-.64a1.13 1.13 0 0 0-1.05.15c-.09.06-.11.14-.06.24l.19.38a.69.69 0 0 1-.4.22.07.07 0 0 0-.04.1l.02.03a.16.16 0 0 0 .17.08c.18-.05.33 0 .45.11.04.04.09.06.15.06.39-.02.72-.15 1.12 0-.7 0-1.4.12-2.1.37l-.97.57-.51.48a.08.08 0 0 0 .01.12l.44.21c-.07.06-.2.06-.41 0-.05-.01-.09 0-.1.05-.04.1-.09.12-.15.09 0-.06-.01-.1-.03-.11a.07.07 0 0 0-.06-.02.07.07 0 0 0-.05.04c-.14.36-.26.44-.38.25.18-.56.5-1.04.95-1.45l.78-.6.4-.26c.05-.02.07-.06.04-.12-.06-.15-.14-.29-.22-.42a.24.24 0 0 0-.22-.1c-.07 0-.1-.04-.08-.12 0-.04.02-.05.05-.05.1 0 .1-.03.03-.1a.49.49 0 0 1-.1-.13c-.04-.06-.08-.06-.12-.02a.62.62 0 0 1-.23.17c-.07.03-.1 0-.1-.07a.24.24 0 0 1 .12-.18c.4-.25.82-.44 1.26-.6.25-.08.55-.13.9-.15l.92-.04Z" fill="#E7D39F"/><path d="M9.63 4.35c.2 0 .4.04.56.16.05.04.1.05.15.03.18-.06.34 0 .5.18a.04.04 0 0 1-.01.06c-.03.01-.04.03-.04.05 0 .06-.02.07-.07.04a.62.62 0 0 0-.23-.08.09.09 0 0 0-.08.03.09.09 0 0 0-.01.09c.06.15.17.24.34.28a.2.2 0 0 1 .1.05.1.1 0 0 1 .02.05c.01.05 0 .06-.05.04l-.15-.08c-.1-.05-.14-.02-.14.08-.02.34-.12.65-.3.93l-.46-.46a.73.73 0 0 0-.16-.74c-.05-.05-.03-.08.03-.09.06 0 .1-.04.13-.08.06-.1.03-.15-.08-.17a.57.57 0 0 1-.2-.06c-.08-.04-.08-.08 0-.12.1-.05.16-.11.15-.19Z" fill="#D5B370"/><path d="m12.49 4.35.75.74.8 2.06c0 .03 0 .05-.04.05h-.05v-.01c.02-.25-.05-.34-.22-.27l-.25-.37c.07-.07.09-.16.03-.25a.33.33 0 0 0-.06-.1c-.03-.02-.08-.03-.14-.03l-.24-.38c0-.17-.1-.28-.31-.34a.91.91 0 0 0-.35-.29.29.29 0 0 0 .04-.16h.13c.06-.03.07-.06.01-.1a4.23 4.23 0 0 1-.51-.45c-.03-.03-.04-.06-.02-.09.02-.05.05-.07.1-.04.14.07.25.08.33.03Z" fill="#8D6F47"/><path d="M5.95 5.2c-.08-.06-.11-.13-.1-.21.07-.18.15-.27.25-.28.39-.02.43.09.14.34a2 2 0 0 1-.3.15Z" fill="#E7D39F"/><path d="M12.45 5c0 .05-.01.1-.04.16-.12.03-.16.1-.13.19.05.15.18.27.37.34-.05.21 0 .42.16.61.06.07.07.12.03.14-.03.01-.1 0-.21-.02l-.49-.31c-.04-.03-.07-.02-.08.03-.07.34-.25.7-.54 1.07l-.7.18a.14.14 0 0 0-.05-.03c-.05 0-.07-.04-.06-.09a.1.1 0 0 0 0-.04c0-.02 0-.04.02-.05.4-.39.65-.8.76-1.24.02-.07.06-.08.12-.04l.22.18c.03.03.06.02.09 0a.06.06 0 0 0 0-.08 2 2 0 0 1-.13-.41c.03-.16 0-.25-.1-.3a.16.16 0 0 1-.04-.29h.11a.5.5 0 0 0 .13.09c.04.02.09.02.13 0 .1-.05.13-.12.07-.23.06-.05.18 0 .36.14Z" fill="#75582E"/><path d="M5.86 4.99c-.03.08 0 .15.09.2v.06c0 .04-.01.07-.03.1l-.75.98c-.02-.08-.05-.13-.1-.14l.07-.14c.03-.05.02-.09-.03-.12-.06-.04-.14-.03-.23.04-.14.12-.22.23-.24.35 0-.04-.02-.05-.05-.03 0-.12.02-.19.04-.22.17-.22.35-.38.55-.49.1.25.28.2.53-.15.04-.05.03-.1-.02-.12a.3.3 0 0 0-.12-.05c.02-.03.02-.07 0-.12.06-.15.16-.2.29-.15Z" fill="#8D6F47"/><path d="M8.97 5.79c-.4.12-.75.17-1.04.13l-.2-.38c-.04-.1-.02-.18.07-.24.36-.22.7-.28 1.05-.15.26.1.42.44.12.64Z" fill="#FFFCC1"/><path d="M13.24 5.1c.87.86 1.36 1.89 1.46 3.07l-.03.64c.04.67.04 1.17 0 1.5a4.6 4.6 0 0 1-.3.86c-.1-.16-.1-.28-.01-.35a.15.15 0 0 0 .05-.14.82.82 0 0 1 0-.27.05.05 0 0 0 0-.04.06.06 0 0 0-.05-.03h-.04c-.02 0-.03.01-.04.04-.04.2-.1.4-.2.57-.05.08-.08.07-.09-.02-.01-.1-.05-.16-.12-.18a.73.73 0 0 0 .06-.42c0-.06.01-.1.04-.14.1-.11.15-.23.15-.37 0-.14-.08-.2-.25-.2-.01-.04 0-.08.05-.12h.1c.06 0 .09-.04.1-.1l.04-.4c.1-.03.12-.11.08-.23-.03-.11-.09-.14-.17-.09.12-.12.1-.3-.04-.55.1-.1.1-.2 0-.26-.02-.3-.1-.47-.23-.5a.68.68 0 0 0 .1-.17c.01-.05.01-.09-.01-.12-.03-.03-.07-.04-.14-.03 0-.05 0-.1-.02-.13.17-.07.24.02.21.27H14c.04 0 .05 0 .04-.04l-.8-2.06Z" fill="#644A25"/><path d="M13.06 5.79c-.29.06-.3.23-.03.48.05.06.1.08.15.07.07-.01.11-.07.13-.17.06 0 .1 0 .14.02l.06.1c.06.1.04.19-.03.26-.1.02-.14.04-.15.05a.41.41 0 0 0 .2.51c.05.03.12 0 .22-.06.07-.01.11 0 .14.03.02.03.02.07 0 .12a.68.68 0 0 1-.1.17c-.16 0-.2.14-.1.39a.27.27 0 0 0-.18-.02c-.05.01-.07.05-.07.1v.39a.1.1 0 0 1-.05.08.06.06 0 0 1-.1-.04.84.84 0 0 0-.1-.22c-.05-.06-.07-.06-.08.02l-.02.22c0 .05-.02.09-.05.12l-.42.57a1 1 0 0 0-.39.5 4.56 4.56 0 0 1-2.39 1.55c-.38.1-.78.13-1.19.11-.23 0-.34-.12-.32-.35a.12.12 0 0 0-.1-.13h-.06l-.93.24c-.07.02-.09.05-.04.11.07.11.16.19.27.23l.12.09.36.4c.12.27.27.33.46.2a.2.2 0 0 1 .14-.05c.38.03.73-.05 1.05-.24l.29-.14c.13-.05.21-.12.25-.21h.02a4.64 4.64 0 0 0 1.59-1.04c-.03.35-.2.58-.49.68a.1.1 0 0 0-.07.08c0 .04-.02.05-.06.05-.05 0-.1 0-.14.03-.36.23-.48.61-.8.87-.14.1-.3.16-.46.2-.5.07-.98.12-1.47.13a.95.95 0 0 1-.36-.06c-.13-.05-.26-.1-.38-.17a4.6 4.6 0 0 1-1.04-.75c-.18-.19-.42-.27-.56-.5a.69.69 0 0 0-.26-.25.9.9 0 0 0-.4-.12.54.54 0 0 0-.1-.14l-.1-.6c0-.1-.04-.1-.09-.03a.44.44 0 0 0-.05.2.14.14 0 0 1-.13.12c-.09.02-.13-.01-.12-.08l.04-.1c.21-.3.29-.7.23-1.15-.02-.06.03-.1.15-.1.12.2.24.12.38-.24a.07.07 0 0 1 .05-.04.07.07 0 0 1 .06.02 87.14 87.14 0 0 1 .38 1.5c.12.5 1.49.62 1.8.6.1.02.17.01.2-.03a.98.98 0 0 1 .53-.05c.04 0 .06-.04.08-.13-.03.04.02.07.14.08l.58-.09c.06 0 .09-.04.08-.1l-.18-.78c-.02-.09 0-.1.08-.05l.1.09c.06.04.11.04.16.01a.6.6 0 0 1 .36-.09c.03 0 .06 0 .1-.03a.15.15 0 0 0 .05-.07l.02-.07c.04-.14.08-.14.12 0l.16.7a.09.09 0 0 0 .04.05.08.08 0 0 0 .07 0l.46-.2c.06-.03.08-.08.07-.14L10.65 8c.02.02.04.02.08 0l.32 1.28a.23.23 0 0 0 .33.14c.37-.22.7-.5.97-.85a.36.36 0 0 0 .06-.3l-.14-.69.12-.16c.03-.05.04-.1.02-.16-.01-.05 0-.1.03-.13.05-.04.1-.04.15 0l.07.04c.1.06.15.04.12-.08a.26.26 0 0 0-.09-.16c-.05-.05-.05-.1 0-.14.09-.06.07-.19-.07-.37.11.02.19.03.22.02.04-.02.03-.07-.03-.14a.67.67 0 0 1-.16-.6c.12-.08.15-.16.1-.25.22.06.32.17.31.34Z" fill="#4F371A"/><path d="M11.8 5.59a2 2 0 0 0 .13.41c.01.03 0 .05-.01.07-.03.03-.06.04-.09.01l-.22-.18c-.06-.04-.1-.03-.12.04-.11.44-.37.85-.76 1.24a.06.06 0 0 0-.02.05.1.1 0 0 1 0 .04c-.02.05 0 .08.06.1.02 0 .04 0 .05.02-.12.06-.17.12-.16.2l.07.4c-.04.03-.07.03-.08.01l-.1-.43c-.01-.06-.05-.08-.1-.07l-.5.1a.17.17 0 0 0-.13.11l-.26.77a.05.05 0 0 1-.09.02l-.28-.3c0-.1-.03-.16-.09-.2a.2.2 0 0 1 .03-.36c.5-.19.93-.5 1.3-.93l.12-.06.5-1c.02-.04.06-.06.1-.05.12.02.23.05.34.09.1.03.1.02.03-.05a.14.14 0 0 1-.03-.03.08.08 0 0 1 0-.03.1.1 0 0 1 0-.06c.02-.06.06-.06.1-.03.07.06.14.09.2.1Z" fill="#8D6F47"/><path d="m4.42 6.52.06.13c-.11.14-.2.28-.25.42-.17.2-.17.33.01.37-.24.2-.3.4-.18.59a.77.77 0 0 0-.1-.01.15.15 0 0 0-.07.26c.02.02.07.04.14.05a.8.8 0 0 0-.14.51c-.14.01-.14.14 0 .4 0 .18.04.35.13.51-.06.04-.1.1-.13.2-.02.05 0 .1.05.12.03.02.07.01.12 0-.05.13-.02.3.09.52l-.06.51c0 .11-.03.12-.07.01l-.3-.79c-.03-.07-.05-.07-.08 0a.58.58 0 0 0 .1.6c.05.06.06.12.06.19-.02.1.02.19.1.25a.11.11 0 0 1 .05.12c0 .06.01.1.07.13.06.04.1.1.1.17v.07c0 .06.02.1.07.14.21.17.32.38.31.64a5.82 5.82 0 0 1-.36-6.8c.12.01.23-.01.35-.07.08-.03.1-.01.06.06a.13.13 0 0 1-.05.06.25.25 0 0 0-.09.11l-.3.7c0 .02 0 .04.02.05l.04.02c.04.02.07.02.1-.02l.15-.22Z" fill="#75582E"/><path d="m9.76 5.8.46.46c.18.13.3.26.33.39l-.12.06c-.28.01-.55.08-.81.2-.12.03-.2-.1-.22-.38-.4-.16-.73-.03-1.12-.01a.18.18 0 0 1-.15-.06.44.44 0 0 0-.45-.11.16.16 0 0 1-.17-.08l-.02-.03a.07.07 0 0 1 .05-.1c.14-.02.27-.1.39-.22.3.04.64 0 1.04-.13.11.14.37.14.79.01Z" fill="#F6E9C4"/><path d="m6.82 6.51-.78.61-.18-.3a.11.11 0 0 0-.13-.05l-.1.02c0-.05 0-.1-.02-.12-.02-.06-.06-.06-.1-.02a.82.82 0 0 1-.23.15c-.14.07-.24.03-.3-.12l.14-.25c.17-.03.32-.1.45-.2a.17.17 0 0 0 .06-.14c0-.07.03-.13.1-.18a.1.1 0 0 1 .1-.02l.28.1h.01v.02c-.17.13-.28.26-.35.37-.06.11-.04.13.07.06.18-.12.32-.27.43-.44a.15.15 0 0 1 .26-.01c.13.17.23.34.29.52Z" fill="#A1855B"/><path d="m5.07 6.19-.14.2a.12.12 0 0 1-.13.06c-.06 0-.11-.05-.16-.13.02-.12.1-.23.24-.35.09-.07.17-.08.23-.04.05.03.06.07.03.12l-.07.14Z" fill="#D5B370"/><path d="M12.62 6.42c.14.18.16.3.07.37-.05.05-.06.1 0 .14.05.04.08.1.1.16.02.12-.03.14-.13.08l-.07-.05c-.06-.03-.1-.03-.15.01-.04.04-.05.08-.03.13.02.06 0 .11-.03.16l-.11.16a.93.93 0 0 0-.15-.34.14.14 0 0 0-.13-.07l-.47.04c.29-.37.47-.73.54-1.07.01-.05.04-.06.08-.03l.48.3Z" fill="#644A25"/><path d="M5.07 6.19c.05.01.08.06.1.14-.06.03-.08.07-.05.1l-.14.25a.72.72 0 0 0-.15.28.25.25 0 0 1-.1.15c-.07.04-.1.1-.09.17.01.07 0 .14-.05.2-.1.15-.14.3-.13.46 0 .06-.01.11-.04.16-.08.13-.12.23-.12.3 0 .37.02.73.05 1.08 0 .03 0 .05-.02.07a.16.16 0 0 0-.02.04.11.11 0 0 0 .01.11c.16.2.22.42.18.67a.1.1 0 0 0 .13.1l.35-.21c.04-.02.07-.02.1.02a.1.1 0 0 1 0 .07.37.37 0 0 0-.05.19c0 .05.03.1.09.11l.14.03.04.02-.06.16c-.03.08 0 .13.09.14.04 0 .07.04.09.08.02.07 0 .1-.08.1l-.14.01c-.05 0-.09-.03-.1-.08a.92.92 0 0 0-.22-.44c-.02-.05-.05-.08-.08-.09a.13.13 0 0 0-.16.06c-.02.06-.01.12.03.17l.13.05c.05.02.08.05.08.1.02.47.25.73.7.81a.2.2 0 0 1 .14.1c.07.1.16.19.27.25.1.06.12.03.06-.06-.17-.27-.41-.46-.72-.59a.18.18 0 0 0-.08-.01c-.03 0-.05-.02-.06-.04-.02-.07 0-.1.07-.07.07.02.13.01.18-.04.04-.04.07-.03.1.02l.05.1.1.11c.38.34.72.68 1.01 1.02.04.05.05.1.03.15-.02.1-.06.1-.1.02a2.13 2.13 0 0 0-.46-.56l-.03.03a.05.05 0 0 0 0 .07c.09.1.14.22.17.35.04.25.3.48.55.46.02 0 .04 0 .06.02l.01.06c0 .07.04.1.12.08.1-.02.17.01.21.1a.1.1 0 0 0 .11.07c.15-.02.28.03.39.15.03.03.03.06 0 .1-.03.01-.05.02-.07 0-.06 0-.1 0-.13.03-.08.08-.07.15 0 .2.1.05.23.08.4.08.06 0 .1-.04.08-.1a.12.12 0 0 0-.07-.1l-.1-.04a.14.14 0 0 1-.02-.04c-.02-.02-.01-.03.01-.04.48-.14.69-.1.6.15-.12.04-.14.14-.05.3.05.1.19.12.4.03.07-.03.1-.1.07-.2-.01-.07 0-.12.03-.15a.12.12 0 0 1 .1-.04c.16.02.3 0 .42-.08a.68.68 0 0 1 .28-.08h.46a.2.2 0 0 0 .14-.06c.08-.08.17-.1.28-.1.06.02.11 0 .16-.03l.43-.3a.15.15 0 0 1 .14-.01c.08.02.14 0 .2-.09l.03-.04.68-.52c.04 0 .07.02.1.06-.02.08 0 .14.06.2.04.04.09.05.14.03.15-.06.25-.18.29-.36.09.07.17.07.25-.01a.21.21 0 0 0 .05-.14v-.14a.89.89 0 0 1 .26-.3c.2.07.26-.04.2-.33a.58.58 0 0 1 .17-.37h.11c.06-.02.09-.06.08-.12a.3.3 0 0 0-.1-.17c.36.25.38.24.03-.03.07.02.1.08.12.18.01.1.04.1.08.02.1-.18.17-.37.21-.57 0-.03.02-.04.04-.04h.04a.05.05 0 0 1 .04.03.06.06 0 0 1 .01.04.82.82 0 0 0 0 .27c0 .05-.01.1-.05.14-.09.07-.08.2 0 .35-.19.54-.48 1.03-.85 1.45-.2.1-.36.22-.51.38-.17.2-.33.33-.46.42l-.45.3c-.14.1-.3.2-.48.26-.36.13-.7.32-1 .57-.7.2-1.48.25-2.33.16l-2.15-.7-.12-.07a.21.21 0 0 0 .03-.03c.02-.03.01-.06-.01-.08a.73.73 0 0 0-.47-.22c-.4-.26-.75-.59-1.06-.98 0-.26-.1-.47-.31-.64a.17.17 0 0 1-.07-.14v-.07a.2.2 0 0 0-.1-.17c-.06-.03-.08-.07-.07-.13a.11.11 0 0 0-.04-.12.25.25 0 0 1-.12-.25c.01-.07 0-.13-.05-.19a.58.58 0 0 1-.1-.6c.03-.07.05-.07.08 0l.3.79c.04.1.06.1.07-.01l.06-.5c.06.03.12.03.18-.01a.14.14 0 0 0 .05-.14c-.03-.32-.14-.45-.32-.39-.05.02-.09.03-.12 0-.05-.02-.07-.06-.05-.12.02-.1.07-.15.12-.19.17.02.22-.14.16-.45 0-.06-.04-.1-.1-.1-.05 0-.12 0-.18.04-.14-.26-.14-.39 0-.4.07.05.14.06.2.05.06-.01.09-.05.09-.11v-.36a.13.13 0 0 0-.06-.1c-.03-.03-.07-.03-.1 0-.06 0-.1-.02-.13-.04a.15.15 0 0 1 .07-.26l.1.01c.1.04.15.03.18-.02.17-.27.17-.46 0-.57-.18-.04-.18-.16-.01-.37.17.27.31.2.42-.18v-.1c0-.15-.07-.2-.17-.14a.38.38 0 0 1-.06-.13c.03-.1.09-.18.17-.23.03-.02.05 0 .05.03.05.08.1.12.16.13.06.01.1 0 .13-.06l.14-.2Z" fill="#4F371A"/><path d="M9.4 6.53c.03.28.1.41.22.38-.08.1-.16.16-.23.16-.44.02-.63.15-.57.38-.12-.03-.2-.02-.23.06l-.03-.15c-.01-.05-.04-.07-.1-.08A2.04 2.04 0 0 1 7.3 6.9c.7-.25 1.4-.37 2.1-.36Z" fill="#AE8F57"/><path d="M5.63 6.79c-.17.3-.32.62-.46.94-.07.17-.03.3-.09.46-.03.1-.07.1-.11 0l-.1-.23a.04.04 0 0 0-.03-.03l-.03.01-.01.02a.7.7 0 0 0 .14.7c.06.46-.02.84-.23 1.16a.24.24 0 0 0-.04.09c-.01.07.03.1.12.08a.14.14 0 0 0 .12-.12c0-.08.03-.14.06-.2.05-.08.08-.07.1.02l.08.6a.09.09 0 0 0-.06.06.1.1 0 0 0-.01-.07c-.03-.04-.06-.04-.1-.02l-.35.2a.1.1 0 0 1-.13-.04.1.1 0 0 1 0-.05.8.8 0 0 0-.18-.67.11.11 0 0 1-.02-.1l.03-.05a.08.08 0 0 0 .02-.07c-.03-.35-.05-.71-.05-1.08 0-.07.04-.17.12-.3.03-.05.04-.1.04-.16 0-.16.04-.31.13-.45a.32.32 0 0 0 .05-.21c0-.08.02-.13.09-.17a.25.25 0 0 0 .1-.15c.03-.1.08-.2.15-.28.05.15.15.19.3.12a.82.82 0 0 0 .22-.15c.05-.04.09-.04.11.02l.02.12Z" fill="#8D6F47"/><path d="M4.48 6.65c.1-.06.16-.01.18.15l-.01.09c-.11.39-.25.45-.42.18.05-.14.13-.28.25-.42Z" fill="#D5B370"/><path d="M10.43 6.71c-.37.43-.8.74-1.3.93A.2.2 0 0 0 9.1 8c.06.03.1.1.09.2a.82.82 0 0 1-.37-.76c-.07-.23.13-.36.57-.38.07 0 .15-.06.23-.16.26-.12.53-.19.8-.2Z" fill="#A1855B"/><path d="m5.63 6.79.1-.02c.05-.02.1 0 .13.05l.18.3c-.45.41-.77.9-.95 1.45-.12 0-.17.03-.15.1a.7.7 0 0 1-.14-.7.04.04 0 0 1 .04-.04l.02.01.02.02.09.23c.04.1.08.1.11 0 .06-.16.02-.3.1-.46.13-.32.29-.64.45-.94Z" fill="#75582E"/><path d="M7.3 6.9c.33.24.71.37 1.16.38.05 0 .08.03.1.08l.03.15c-.17.14-.29.3-.36.48a.24.24 0 0 0-.02.16l.5 2.12c-.12-.01-.17-.04-.15-.08l-.51-2.53c-.03-.12-.08-.13-.16-.03l-.37.48a.43.43 0 0 0-.07.41c.08.24.11.48.1.7l-.27-.7a.44.44 0 0 1-.03-.16v-.32a.12.12 0 0 0-.07-.11l-.45-.2a.28.28 0 0 1-.12-.1.42.42 0 0 0-.28-.17l.97-.57Z" fill="#A1855B"/><path d="m12.27 7.58.14.7a.35.35 0 0 1-.06.29c-.27.35-.6.63-.97.85a.23.23 0 0 1-.34-.14L10.74 8a55.4 55.4 0 0 1-.08-.41c-.01-.08.04-.14.16-.2l.7-.18.47-.04c.05 0 .1.02.13.07.07.1.12.21.15.34Z" fill="#E7D39F"/><path d="M13.8 7.37c.13.03.2.2.23.5-.23.11-.35.07-.35-.11-.09-.25-.05-.38.12-.4Z" fill="#F9F5D3"/><path d="M4.24 7.44c.17.1.17.3 0 .57-.03.05-.09.06-.18.02-.13-.2-.06-.4.18-.59Z" fill="#D5B370"/><path d="M6.33 7.46c.12.02.22.08.28.17.03.04.07.07.12.1l.45.2c.05.02.07.06.07.11v.32c0 .06.01.11.03.16l.27.7.34 1.12s.01.02.03.02a.2.2 0 0 0 .04 0c-.03.05-.1.06-.2.04.02-.04 0-.1-.03-.17l-.43-.6a.11.11 0 0 0-.13-.06l-.34.1a15.1 15.1 0 0 1-.21-1.1c-.03-.22-.15-.31-.35-.3l-.44-.21a.08.08 0 0 1-.01-.12l.51-.48Z" fill="#75582E"/><path d="M8.57 10.2c-.02.08-.04.12-.08.12a.98.98 0 0 0-.53.05.2.2 0 0 1-.04 0 .04.04 0 0 1-.03-.03l-.34-1.12c.01-.22-.02-.46-.1-.7a.43.43 0 0 1 .08-.41l.36-.48c.08-.1.13-.1.16.03l.52 2.53Z" fill="#F6E9C4"/><path d="M13.68 7.76c0 .18.12.22.35.1.1.07.1.16 0 .27a.25.25 0 0 0-.15 0 .1.1 0 0 0-.08.12c0 .32.1.47.27.43.08-.05.14-.02.17.09.04.12.01.2-.08.24-.06-.08-.13-.1-.2-.08a.13.13 0 0 0-.1.1.7.7 0 0 0 .06.47c-.05.04-.07.08-.05.11a.9.9 0 0 0-.1.47c.01.05 0 .1-.03.14a.98.98 0 0 0-.15.42c-.01.06.01.1.07.13.05.02.1.02.17.01.06.05.1.1.1.17.02.06 0 .1-.07.12a.28.28 0 0 1-.1 0 .6.6 0 0 0-.16-.17c-.06-.04-.1-.03-.13.03l-.16.3c-.03.06-.02.11.03.16.07.06.14.08.24.05.06.3 0 .4-.2.34a.25.25 0 0 0-.16-.21c-.05-.03-.1-.01-.11.04a.6.6 0 0 1-.17.22.13.13 0 0 0-.03.15c.03.07.1.1.21.09v.14c0 .06-.02.1-.05.14-.08.08-.16.08-.25 0a.35.35 0 0 0-.08-.08.1.1 0 0 0-.14 0l-.28.22c-.02-.04-.05-.05-.1-.06a.67.67 0 0 0 .16-.2c.03-.08 0-.12-.08-.1h-.05a.26.26 0 0 0-.16.13l-.22.3c-.05.08-.07.07-.06-.02 0-.1.05-.17.11-.24.04-.05.05-.1.04-.16a.1.1 0 0 0-.04-.05c-.05-.04-.08-.03-.11.03-.1.22-.25.42-.44.6-.02.03-.04.02-.06 0l-.03-.04-.01-.03.01-.03c.14-.11.26-.25.34-.4.04-.08.03-.1-.05-.04-.17.12-.3.23-.5.33-.28.15-.57.28-.87.4-.32.12-.52.05-.82.12-.09.03-.1.05 0 .09.08.03.16.04.24.03a.06.06 0 0 1 .07.03v.07c0 .02 0 .04-.02.04-.16.02-.32 0-.49-.03-.02 0-.04-.02-.04-.05v-.01c.04-.06.02-.1-.05-.12a3.8 3.8 0 0 0-.99-.1.26.26 0 0 1-.23-.1.18.18 0 0 0-.13-.08c-.15-.02-.3-.06-.42-.13a.15.15 0 0 0-.17.02.64.64 0 0 0-.14.14c-.03.05-.06.05-.09 0-.02-.03-.02-.07 0-.11a.1.1 0 0 1 .02-.04.1.1 0 0 1 .05-.02c.03-.01.06-.03.07-.06a.08.08 0 0 0-.05-.1.92.92 0 0 1-.24-.14A5.8 5.8 0 0 1 5.3 10.7l-.04-.02v-.24a.9.9 0 0 1 .4.12c.11.06.2.14.26.26.14.22.38.3.56.49a4.03 4.03 0 0 0 1.42.92c.12.04.24.06.36.06.49-.01.98-.06 1.47-.14.17-.03.32-.1.45-.2.33-.25.45-.63.81-.86a.22.22 0 0 1 .14-.03c.04 0 .06-.01.06-.05a.1.1 0 0 1 .07-.08c.3-.1.46-.33.49-.68.2-.19.38-.4.53-.66l.34-.6.42-.58a.24.24 0 0 0 .05-.12l.02-.22c0-.08.03-.08.08-.02.04.07.08.14.1.22a.06.06 0 0 0 .04.04.06.06 0 0 0 .06 0 .1.1 0 0 0 .04-.08v-.39c0-.05.03-.09.08-.1.05-.02.11 0 .17.02Z" fill="#3D2A12"/><path d="M11.45 7.86c0-.03 0-.05.04-.06l.05-.01c.04-.01.06 0 .07.04l.13.63c.01.04 0 .07-.05.07h-.09a.06.06 0 0 1-.02-.04l-.13-.63Z" fill="#4F371A"/><path d="M14.7 8.17c.14.3.13.5-.03.64l.03-.64ZM6.27 8.27c.2-.01.32.08.35.3.05.36.12.72.2 1.1a.15.15 0 0 1-.05.01c-.02 0-.04 0-.06-.02a.09.09 0 0 1-.03-.05.12.12 0 0 0-.07-.08.1.1 0 0 0-.13.02c-.1.1-.15.2-.17.32-.01.06.01.1.07.12.4.12.79.22 1.17.31.09.02.15 0 .18-.07.04.07.05.13.04.17-.32.02-1.69-.1-1.8-.6L5.6 8.4c.06.04.1.02.15-.08.01-.04.05-.06.1-.05.2.06.34.06.41 0Z" fill="#D5B370"/><path d="M4.03 8.33c.02-.04.06-.04.1-.01.03.02.04.06.04.1v.36c0 .06-.02.1-.08.1-.06.02-.13 0-.2-.04a.8.8 0 0 1 .14-.51Z" fill="#AE8F57"/><path d="m14.16 9-.05.4c0 .06-.04.1-.1.1h-.1a.7.7 0 0 1-.05-.46c0-.06.04-.1.1-.1.07-.03.14 0 .2.07Z" fill="#F6E9C4"/><path d="M3.89 9.24a.32.32 0 0 1 .18-.04c.06 0 .1.04.1.1.06.31 0 .47-.16.45a1.23 1.23 0 0 1-.12-.5ZM4.15 10.6c-.11-.22-.14-.4-.1-.54.19-.06.3.07.33.4.01.05 0 .1-.05.13-.06.04-.12.04-.18 0Z" fill="#AE8F57"/><path d="M5.15 10.3c.06.05.1.1.12.14v.24c-.06 0-.1 0-.15-.03a.12.12 0 0 1-.09-.11c0-.06.02-.13.06-.2a.09.09 0 0 1 .06-.04ZM4.88 10.67a.3.3 0 0 1 0 .06l-.01.06a.09.09 0 0 1-.06.03h-.14c-.05-.06-.05-.12-.03-.18a.13.13 0 0 1 .16-.06c.03.01.06.04.08.1Z" fill="#A1855B"/><path d="M4.88 10.67c.12.14.2.28.22.44.01.05.05.08.1.08h.14c.08 0 .1-.04.08-.1a.11.11 0 0 0-.1-.09c-.08-.01-.1-.06-.08-.14l.06-.16c.38.65.87 1.2 1.47 1.66.08.06.16.1.24.14a.08.08 0 0 1 .06.07l-.01.03a.09.09 0 0 1-.07.06.1.1 0 0 0-.07.06c-.02.04-.02.08 0 .11.03.05.05.05.09 0 .04-.05.08-.1.14-.14.05-.04.1-.04.17-.02.13.07.27.11.42.13.05 0 .1.03.13.08.06.07.13.1.23.1.35 0 .68.03 1 .1.06.02.08.06.04.12v.01c0 .03.02.04.04.05.17.04.33.05.49.03.02 0 .03-.02.02-.04v-.04a.06.06 0 0 0-.04-.06h-.03c-.08 0-.16 0-.24-.03-.1-.04-.1-.06 0-.09.3-.07.5 0 .82-.13.3-.11.6-.24.88-.39.2-.1.32-.21.49-.33.07-.06.09-.04.05.04-.08.15-.2.29-.34.4a.04.04 0 0 0 0 .06l.03.04c.02.02.04.03.06 0 .19-.18.33-.38.44-.6.02-.06.06-.07.11-.03a.1.1 0 0 1 .04.05c.01.06 0 .11-.04.16a.41.41 0 0 0-.11.24c-.01.09 0 .1.06.02l.22-.3c.03-.06.09-.1.16-.12l.05-.02c.08 0 .1.03.07.1a.68.68 0 0 1-.14.2l-.69.53a.13.13 0 0 0-.03.04c-.05.08-.11.11-.2.09a.15.15 0 0 0-.14.02l-.42.29a.22.22 0 0 1-.16.04.32.32 0 0 0-.28.09.2.2 0 0 1-.14.05l-.46.01c-.1.01-.2.04-.28.08a.68.68 0 0 1-.42.08c-.04 0-.08 0-.1.04-.04.03-.04.08-.03.14a1.09 1.09 0 0 0-.41-.12c.08-.24-.13-.3-.6-.15-.03 0-.04.02-.03.04l.04.04-.2-.07c.03.02.05.01.07 0 .04-.04.04-.07 0-.1a.44.44 0 0 0-.38-.15.1.1 0 0 1-.1-.06c-.05-.1-.13-.13-.22-.11-.08.02-.12-.01-.12-.08l-.01-.06a.06.06 0 0 0-.06-.02c-.25.02-.51-.21-.55-.46a.72.72 0 0 0-.18-.35.05.05 0 0 1 0-.07l.04-.03c.19.15.34.34.46.56.04.08.08.07.1-.02.02-.05 0-.1-.03-.15-.3-.34-.63-.68-1.01-1.02a.45.45 0 0 1-.1-.12l-.05-.1c-.03-.04-.06-.05-.1 0-.05.04-.11.05-.19.03-.06-.02-.08 0-.06.07.01.02.03.04.06.04l.07.01c.31.13.55.32.72.59.07.1.05.12-.05.06a.7.7 0 0 1-.27-.26.2.2 0 0 0-.13-.09c-.46-.08-.7-.34-.71-.8 0-.06-.03-.1-.08-.11l-.13-.05c.05.01.1.01.14 0 .02 0 .04 0 .06-.02a.09.09 0 0 0 .02-.06.3.3 0 0 0 0-.06Z" fill="#645137"/><path d="M4.4 10.88h-.03a.14.14 0 0 0-.07.2l.13.27c.03.07.12.1.2.07l.02-.02c.07-.03.1-.12.07-.2l-.13-.26a.14.14 0 0 0-.2-.06ZM10.14 11.29c-.04.09-.12.16-.25.21l-.29.14c-.32.2-.67.27-1.05.24a.2.2 0 0 0-.14.04c-.19.14-.34.08-.46-.2.14.1.26.1.36.03a.3.3 0 0 1 .16-.06l.48-.05c.41-.04.79-.23 1.19-.35Z" fill="#AE8F57"/><path d="M13.38 11.78a.89.89 0 0 0-.26.29c-.11.01-.18-.02-.21-.09a.13.13 0 0 1 .03-.15.6.6 0 0 0 .16-.22c.03-.05.07-.07.12-.04.1.04.15.11.16.2Z" fill="#E7D39F"/><path d="M4.82 11.99c.1.14.23.21.3.17.07-.05.05-.2-.04-.34s-.22-.21-.3-.17c-.06.05-.05.2.04.34ZM5.4 12.69c.13.12.28.16.35.09.07-.07.02-.23-.1-.35-.12-.12-.28-.16-.35-.09-.07.07-.02.23.1.35Z" fill="#AE8F57"/><path d="M13.51 12.62c-.74.97-1.7 1.6-2.9 1.93.3-.25.64-.44 1-.57.18-.07.34-.15.48-.25.14-.11.3-.22.45-.31.13-.1.29-.23.46-.42.15-.16.32-.29.51-.38Z" fill="#75582E"/><path d="m11.95 12.85-.25.16a.13.13 0 0 0-.04.18l.03.04c.04.06.12.08.18.04l.25-.16a.13.13 0 0 0 .04-.18l-.02-.04a.13.13 0 0 0-.19-.04ZM6.1 13.23c.14.09.3.1.34.04.05-.07-.03-.2-.18-.3-.14-.08-.29-.1-.33-.03-.05.07.03.2.17.29ZM11.23 13.66c.16-.06.27-.18.23-.27-.03-.1-.2-.12-.35-.06-.16.07-.27.19-.23.28.03.1.2.11.35.05ZM7.17 13.49l-.3-.17a.1.1 0 0 0-.13.04l-.06.1a.1.1 0 0 0 .04.14l.3.17c.05.02.1 0 .13-.04l.06-.11a.1.1 0 0 0-.04-.13Z" fill="#AE8F57"/><path d="M5.56 13.61c.18.02.33.09.47.22.02.02.03.05 0 .08 0 .01 0 .02-.02.03a1.07 1.07 0 0 1-.45-.33Z" fill="#8D6F47"/><path d="M10.4 13.95c.16-.04.27-.14.25-.22-.02-.08-.16-.1-.32-.07-.16.04-.27.14-.25.22.02.08.17.1.32.07ZM7.69 13.66l.19.07.1.04c.03.02.06.05.06.1.01.06-.02.1-.09.1a.71.71 0 0 1-.39-.09c-.07-.04-.08-.1 0-.19.02-.03.07-.04.13-.03Z" fill="#D5B370"/><path d="M8.47 13.8c.13 0 .26.05.41.12.03.11 0 .18-.07.21-.21.09-.35.08-.4-.03-.09-.16-.07-.26.06-.3ZM9.63 13.8l-.3.04a.12.12 0 0 0-.11.14v.04c.01.07.08.12.15.11l.3-.04c.07-.01.12-.07.1-.14v-.04a.12.12 0 0 0-.14-.1Z" fill="#AE8F57"/><path d="m6.13 14.01 2.14.7a4.45 4.45 0 0 1-2.14-.7Z" fill="#8D6F47"/><defs><linearGradient id="a5xiyt3m1" x1="3.35" y1="3.12" x2="21.9" y2="24.43" gradientUnits="userSpaceOnUse"><stop stop-color="#1A1E21"/><stop offset="1" stop-color="#06060A"/></linearGradient></defs></svg>