<!-- by TradingView --><svg width="18" height="18" viewBox="0 0 18 18" xmlns="http://www.w3.org/2000/svg"><path fill="#181B1E" d="M0 0h18v18H0z"/><path d="m15 9-3 5H6L3 9l3-5h6l3 5Z" fill="#645D4A"/><path d="m14.68 9-2.84 4.69H6.16L3.32 9l2.84-4.69h5.68L14.68 9Z" fill="#B5AB8F"/><path d="m13.74 9-2.37 3.75H6.63L4.26 9l2.37-3.75h4.74L13.74 9Z" fill="#F0F2F1"/><path fill-rule="evenodd" d="m13.73 9-2.36 3.75H6.63L4.27 9l2.36-3.75h4.74L13.73 9Zm-2.05-4.38L14.37 9l-2.69 4.38H6.32L3.63 9l2.69-4.38h5.36Z" fill="#45442F"/><path fill-rule="evenodd" d="m9 11.4-2.33-1.2V7.8L9 6.6l2.33 1.2v2.4L9 11.4Zm3-.9L9 12l-3-1.5v-3L9 6l3 1.5v3Z" fill="#45442F"/><path fill-rule="evenodd" d="M9 7.75c.87 0 1.58-.7 1.58-1.55 0-.86-.7-1.56-1.58-1.56-.87 0-1.58.7-1.58 1.56 0 .85.7 1.55 1.58 1.55Zm0-.62c.52 0 .95-.42.95-.94A.94.94 0 0 0 9 5.25a.94.94 0 0 0-.95.94c0 .52.43.94.95.94ZM9 13.38c.87 0 1.58-.7 1.58-1.57 0-.86-.7-1.56-1.58-1.56-.87 0-1.58.7-1.58 1.56 0 .87.7 1.57 1.58 1.57Zm0-.63c.52 0 .95-.42.95-.94a.94.94 0 0 0-.95-.93.94.94 0 0 0-.95.93c0 .52.43.94.95.94Z" fill="#45442F"/><path fill-rule="evenodd" d="M9 10.56c.87 0 1.58-.7 1.58-1.56 0-.86-.7-1.56-1.58-1.56-.87 0-1.58.7-1.58 1.56 0 .86.7 1.56 1.58 1.56Zm0-.62c.52 0 .95-.42.95-.94A.94.94 0 0 0 9 8.06a.94.94 0 0 0-.95.94c0 .52.43.94.95.94Z" fill="#45442F"/><path fill-rule="evenodd" d="M8.14 8.45a1.75 1.75 0 0 1-2.38.63 1.7 1.7 0 0 1-.63-2.35 1.75 1.75 0 0 1 2.37-.62 1.7 1.7 0 0 1 .64 2.34Zm-.55-.31c-.3.52-.98.7-1.51.4-.53-.3-.71-.97-.4-1.5.3-.52.98-.7 1.5-.4.53.3.71.98.4 1.5Z" fill="#45442F"/><path fill-rule="evenodd" d="M5.13 11.27c.48.82 1.54 1.1 2.37.62a1.7 1.7 0 0 0 .64-2.34 1.75 1.75 0 0 0-2.38-.63 1.7 1.7 0 0 0-.63 2.35Zm.54-.32c.31.53.99.7 1.51.4.53-.3.71-.97.4-1.5-.3-.51-.97-.7-1.5-.4-.53.31-.71.98-.4 1.5ZM12.87 8.45a1.75 1.75 0 0 1-2.37.63 1.7 1.7 0 0 1-.64-2.35 1.75 1.75 0 0 1 2.38-.62 1.7 1.7 0 0 1 .63 2.34Zm-.54-.31c-.31.52-.99.7-1.51.4-.53-.3-.71-.97-.4-1.5.3-.52.97-.7 1.5-.4.53.3.71.98.4 1.5Z" fill="#45442F"/><path fill-rule="evenodd" d="M9.86 11.27c.48.82 1.55 1.1 2.38.62a1.7 1.7 0 0 0 .63-2.34 1.75 1.75 0 0 0-2.37-.63 1.7 1.7 0 0 0-.64 2.35Zm.55-.32c.3.53.98.7 1.51.4.53-.3.71-.97.4-1.5-.3-.51-.98-.7-1.5-.4-.53.31-.71.98-.4 1.5Z" fill="#45442F"/><path fill="#45442F" d="M9.32 9v2.81h-.63v-2.8z"/><path d="m8.96 9.31 2.57-1.66-.28-.53-2.57 1.66.28.53Z" fill="#45442F"/><path d="M9.04 9.31 6.47 7.65l.28-.53 2.57 1.66-.28.53ZM4.26 8.69h1.58v.62H4.26V8.7ZM12.16 8.69h1.58v.63h-1.58zM6.37 12.87l.88-1.47.47.26-.88 1.47zM11.63 12.87l-.88-1.47-.47.26.88 1.47zM10.28 6.34l.88-1.47.47.26-.88 1.47zM7.72 6.34l-.88-1.47-.47.26.88 1.47z" fill="#45442F"/></svg>