<!-- by TradingView --><svg width="18" height="18" viewBox="0 0 18 18" xmlns="http://www.w3.org/2000/svg"><path fill="url(#a)" d="M0 0h18v18H0z"/><path fill-rule="evenodd" d="m8.92 4 .17.4c.24.37.35.68.34.94l-.4.51c-.08.1-.09.17-.05.28a5.7 5.7 0 0 0 2.08 2.7c.08.05.1.1.08.13a4.81 4.81 0 0 0-2.16 2.1.08.08 0 0 0 .01.09l.17.23a.04.04 0 0 0 .03.02h.19a3.45 3.45 0 0 0 2.82-2.05l-.01-.02h-.01l-.3-.15a.1.1 0 0 1-.06-.09.1.1 0 0 1 .05-.1l.43-.24c.12-.06.12-.1.14-.22V8.5c.06-.47.03-.91-.09-1.3l-.05-.17a.05.05 0 0 0-.05-.04.6.6 0 0 0-.23.04l-.42.09-.13-.03.05-.16.1-.14.1-.17.2-.31a.06.06 0 0 0 0-.07 1.09 1.09 0 0 0-.22-.3l-.47-.48v-.03h.02l.47.36.31.31c.04.12.18.1.4-.03.03 0 .07 0 .1-.03l.04-.02.58-.21c.07-.03.13-.05.15-.04.06.01.08.05.07.1l-.35.4-.45.52a.05.05 0 0 0 0 .06c.22.44.37.9.43 1.38l.04.29c0 .02.02.04.04.05l.28.05 1.1.23.46.1a.1.1 0 0 1 .06.04.1.1 0 0 1 0 .12.1.1 0 0 1-.06.03l-.54.12-1.37.26a.12.12 0 0 0-.06.03 4.03 4.03 0 0 1-.88 1.71c0 .02 0 .03.02.05l.8.89.07.14a.05.05 0 0 1-.01.05.05.05 0 0 1-.05 0l-.4-.11-1.01-.39a.2.2 0 0 0-.19.02 4.28 4.28 0 0 1-1.68.67c-.15.05-.2.16-.23.3l-.26.66c-.04.17-.09.3-.14.38-.1.13-.16.12-.22-.03l-.41-1.25a.13.13 0 0 0-.1-.08 4.58 4.58 0 0 1-1.62-.69.1.1 0 0 0-.05 0l-.56.21-.87.32-.08-.02c-.03-.03-.04-.06-.02-.1l.11-.14.78-.87v-.04a4.32 4.32 0 0 1-.87-1.68.09.09 0 0 0-.04-.02l-1.42-.27-.57-.12c-.05-.05-.06-.1-.03-.15a.26.26 0 0 1 .08-.05l.19-.04.42-.1 1.26-.25c.03 0 .04-.02.04-.04a4.14 4.14 0 0 1 .46-1.67l-.01-.03-.5-.56-.3-.34a.13.13 0 0 1-.02-.1c0-.02.03-.03.05-.03.06 0 .12.01.18.04l.56.21.42.16a.08.08 0 0 0 .09-.02l.21-.23.18-.17.35-.28h.02l.02.02v.03l-.28.26-.24.3a.42.42 0 0 0-.11.18v.06l.24.36.18.3a.07.07 0 0 1-.04.1h-.1l-.58-.12h-.04a2.96 2.96 0 0 0-.11 1.7c0 .04.02.05.04.06l.54.34a.67.67 0 0 1-.36.22.05.05 0 0 0-.03.02.04.04 0 0 0 0 .04 3.41 3.41 0 0 0 2.8 2.04l.02-.02c.15-.12.18-.27.08-.45a5.08 5.08 0 0 0-2.1-2 .05.05 0 0 1 .02-.03 5.67 5.67 0 0 0 2.18-2.9.17.17 0 0 0-.04-.08l-.41-.55a.26.26 0 0 1-.03-.27l.4-.88c.04-.09.1-.16.17-.21Zm-.03 3.27A2.84 2.84 0 0 0 10 8.73a.04.04 0 0 1-.01.06 2.21 2.21 0 0 0-1.08 1.1h-.02v-.01a2.21 2.21 0 0 0-1.1-1.1.04.04 0 0 1 .01-.06 2.84 2.84 0 0 0 1.1-1.44Zm.02.7c0-.02-.01-.03-.02-.03s-.02 0-.03.02a1.43 1.43 0 0 1-.53.68.03.03 0 0 0 0 .04 1.27 1.27 0 0 1 .55.53h.01a1.27 1.27 0 0 1 .56-.54.03.03 0 0 0-.01-.04c-.25-.17-.42-.4-.53-.67Z" fill="#fff"/><defs><linearGradient id="a" x1="3.35" y1="3.12" x2="21.9" y2="24.43" gradientUnits="userSpaceOnUse"><stop stop-color="#1A1E21"/><stop offset="1" stop-color="#06060A"/></linearGradient></defs></svg>