<!-- by TradingView --><svg width="18" height="18" viewBox="0 0 18 18" xmlns="http://www.w3.org/2000/svg"><path fill="#F0F3FA" d="M0 0h18v18H0z"/><path d="M11.67 10.8c1.1 0 2-.8 2-1.8s-.9-1.8-2-1.8-2 .8-2 1.8c0 .1 0 .19.02.27l-.36-.02C9.3 9.1 9.16 9 9 9a.33.33 0 0 0-.31.2l-.35-.04V9c0-1.66 1.49-3 3.33-3S15 7.34 15 9s-1.5 3-3.33 3a3.5 3.5 0 0 1-2.5-1l1.13-.68c.36.3.84.48 1.37.48Z" fill="#27AAE1"/><ellipse cx="9.33" cy="9.9" rx=".33" ry=".3" fill="#27AAE1"/><ellipse cx="4.67" cy="11.4" rx=".33" ry=".3" fill="#27AAE1"/><ellipse cx="4.33" cy="6.9" rx=".33" ry=".3" fill="#1E2439"/><ellipse cx="5.67" cy="7.2" rx=".33" ry=".3" fill="#1E2439"/><ellipse cx="8.67" cy="7.2" rx=".33" ry=".3" fill="#1E2439"/><path fill-rule="evenodd" d="M8 10.65c.1 0 .17-.07.17-.15 0-.08-.08-.15-.17-.15-.1 0-.17.07-.17.15 0 .08.08.15.17.15Zm0 .15c.18 0 .33-.13.33-.3 0-.17-.15-.3-.33-.3-.18 0-.33.13-.33.3 0 .17.15.3.33.3Z" fill="#27AAE1"/><path d="M7.33 7.35c.1 0 .17-.07.17-.15 0-.08-.07-.15-.17-.15-.09 0-.16.07-.16.15 0 .08.07.15.16.15Zm0 .15c.19 0 .34-.13.34-.3 0-.17-.15-.3-.34-.3-.18 0-.33.13-.33.3 0 .17.15.3.33.3Z" fill="#1E2439"/><path fill-rule="evenodd" d="M6.67 6.45c.09 0 .16-.07.16-.15 0-.08-.07-.15-.16-.15-.1 0-.17.07-.17.15 0 .08.07.15.17.15Zm0 .15c.18 0 .33-.13.33-.3 0-.17-.15-.3-.33-.3-.19 0-.34.13-.34.3 0 .17.15.3.34.3Z" fill="#1E2439"/><path d="M3.33 8.85c.1 0 .17-.07.17-.15 0-.08-.07-.15-.17-.15-.09 0-.16.07-.16.15 0 .08.07.15.16.15Zm0 .15c.19 0 .34-.13.34-.3 0-.17-.15-.3-.34-.3-.18 0-.33.13-.33.3 0 .17.15.3.33.3Z" fill="#1E2439"/><path d="M7.67 11.85c.09 0 .16-.07.16-.15 0-.08-.07-.15-.16-.15-.1 0-.17.07-.17.15 0 .08.07.15.17.15Zm0 .15c.18 0 .33-.13.33-.3 0-.17-.15-.3-.33-.3-.19 0-.34.13-.34.3 0 .17.15.3.34.3Z" fill="#27AAE1"/><path fill-rule="evenodd" d="M4.33 10.05c.1 0 .17-.07.17-.15 0-.08-.07-.15-.17-.15-.09 0-.16.07-.16.15 0 .08.07.15.16.15Zm0 .15c.19 0 .34-.13.34-.3 0-.17-.15-.3-.34-.3-.18 0-.33.13-.33.3 0 .17.15.3.33.3Z" fill="#27AAE1"/><path d="M4.25 8.53A3.8 3.8 0 0 0 4.1 9.6l-.17-.15c-.1-.1-.17-.2-.17-.3h-.17c0 .15.1.3.21.4.11.12.24.2.33.26l.13.08v-.14c0-.6.11-1.03.16-1.18l-.16-.04Zm4.33.46a5.08 5.08 0 0 1-.3 1.07.82.82 0 0 1-.17.24l.11.1h-.05l.06.14.8-.27-.06-.14-.74.26a.99.99 0 0 0 .2-.27l.15-.38c.08-.27.14-.55.17-.73L8.58 9Zm.84.01c0 .3-.07.76-.26 1.22-.2.45-.52.88-1.03 1.11l.07.14c.56-.25.9-.72 1.11-1.2.2-.47.27-.96.27-1.27h-.16Zm-4.85 1.02-.15.03c0 .15 0 .4.03.66.03.25.07.52.14.71v.03l.03.01c.48.31 1.07.45 1.6.5.53.05 1.01.02 1.3-.04l-.04-.14c-.27.05-.73.08-1.25.03a3.69 3.69 0 0 1-1.29-.34 4.8 4.8 0 0 0 .58-.07.51.51 0 0 0 .2-.1l-.11-.1a.36.36 0 0 1-.14.05l-.26.05-.48.02a7.17 7.17 0 0 1-.14-1.01c.28.33.85.76 1.7.86.14.11.46.33.85.45l.05-.14a2.4 2.4 0 0 1-.67-.33c.71-.13 1.2-.34 1.36-.44l-.1-.12c-.15.09-.66.32-1.45.43a2.36 2.36 0 0 1-1.76-1Zm3.51.62a5.3 5.3 0 0 1-.22.72.45.45 0 0 1-.09.14l.12.1c.05-.04.09-.1.12-.18.04-.07.07-.16.1-.25l.14-.5-.17-.03Z" fill="#27AAE1"/><path fill-rule="evenodd" d="M4.67 8.25c.09 0 .16-.07.16-.15 0-.08-.07-.15-.16-.15-.1 0-.17.07-.17.15 0 .08.07.15.17.15Zm0 .15c.18 0 .33-.13.33-.3 0-.17-.15-.3-.33-.3-.19 0-.34.13-.34.3 0 .17.15.3.34.3Z" fill="#1E2439"/><path d="M4.35 6.94a3.03 3.03 0 0 1 1.82-.72v.15c-.38 0-1.05.16-1.67.65l.21.78c.18-.15.48-.39.78-.58L5 7.07l.05-.15.61.2c.12-.02.3-.05.51-.06.22 0 .47 0 .68.07l-.05.14a1.96 1.96 0 0 0-.62-.06c-.2 0-.38.04-.49.06-.39.24-.7.53-.87.68l-.3-.05-.17-.76c-.37.33-.68.77-.92 1.41l-.16-.05c.27-.72.64-1.2 1.07-1.56Zm2.5-.71c.95.12 1.65.66 1.88.92l-.13.1a3.09 3.09 0 0 0-1.78-.88l.03-.14Zm.05.18.42.54-.14.09-.42-.55.14-.08Zm-.8.45.33-.45.14.08-.33.45-.14-.08Zm1.43.42.03-.14.6-.02v.15h-.4c.16.13.39.33.64.63l-.13.1c-.4-.48-.65-.68-.74-.72Zm-3 1.04-.92.39-.08-.14.93-.39.08.14Zm-1.11 1.7a4.5 4.5 0 0 1-.17-1.17h.17c0 .27.04.7.16 1.13.12.43.33.84.64 1.06l-.1.12a2.1 2.1 0 0 1-.7-1.14Z" fill="#1E2439"/></svg>