<!-- by TradingView --><svg width="18" height="18" viewBox="0 0 18 18" xmlns="http://www.w3.org/2000/svg"><path fill="url(#aw4y03pa1)" d="M0 0h18v18H0z"/><path d="M9.2 8.56 7.97 7.34s-.17-.7.32-1.16c.46-.44 1.06-.12 1.56.37.46.44.98 1.2.43 1.74-.3.3-1.08.27-1.08.27Z" fill="#fff"/><path d="m5.26 6.35 3.91 3.88.23-.23V9c.56.05 1.13-.11 1.54-.52.76-.76.73-2.02-.07-2.8-.8-.8-2.07-.83-2.83-.08-.35.35-.53.8-.55 1.26L6.1 5.5l2.25-2.22a.96.96 0 0 1 1.35 0l4.17 4.12-4.84 4.79-4.84-4.8 1.06-1.04Z" fill="#fff"/><path d="M4.01 10c0 .23.1.45.26.61l4.4 4.36v-2.32L4 8.03 4.01 10Z" fill="url(#bw4y03pa1)"/><path d="M9.33 12.68V15l4.22-4.17c.27-.27.42-.63.42-1L14 8.06l-4.67 4.62Z" fill="url(#cw4y03pa1)"/><defs><linearGradient id="aw4y03pa1" x1="3.35" y1="3.12" x2="21.9" y2="24.43" gradientUnits="userSpaceOnUse"><stop stop-color="#1A1E21"/><stop offset="1" stop-color="#06060A"/></linearGradient><linearGradient id="bw4y03pa1" x1="4.22" y1="14.47" x2="9.38" y2="14.51" gradientUnits="userSpaceOnUse"><stop stop-color="#22DF59"/><stop offset=".69" stop-color="#2CBECB"/><stop offset="1" stop-color="#3FB5E5"/></linearGradient><linearGradient id="cw4y03pa1" x1="14.58" y1="12.75" x2="9.25" y2="12.75" gradientUnits="userSpaceOnUse"><stop stop-color="#F7282A"/><stop offset=".71" stop-color="#FECC3D"/><stop offset=".84" stop-color="#E5CF54"/><stop offset="1" stop-color="#95C29A"/></linearGradient></defs></svg>