<!-- by TradingView --><svg width="18" height="18" viewBox="0 0 18 18" xmlns="http://www.w3.org/2000/svg"><path fill="#F0F3FA" d="M0 0h18v18H0z"/><path d="M8.99 8.21 7.9 6.66a.02.02 0 0 1 0-.02L9 3.01a.01.01 0 0 1 .02 0l1.09 3.63v.01L9 8.22h-.01Z" fill="#C1282D"/><path d="M8.85 8.5H7.48l-1.5-1.82v-.01h1.78l1.1 1.82h-.01v.01ZM10.52 8.5H9.15a.01.01 0 0 1 0-.02l1.08-1.81h1.78v.01L10.52 8.5Z" fill="#272361"/><path d="M7.08 8.5h-1.1L4 6.68v-.01h1.6L7.1 8.48v.02ZM12.02 8.5h-1.11v-.01l1.48-1.82H14c.01 0 .01 0 0 0v.01L12.04 8.5Z" fill="#C1282D"/><path d="M9.88 9h.56l.01.01-.78 1.17v.01l.81 1.3v.01H9.9l-.57-.92h-.01l-.57.92h-.57v-.01l.81-1.29L8.21 9V9h.58l.54.8v.01h.01l.54-.8V9ZM5.35 11.5h-.52V9.44H4L4 9.42v-.42L4.01 9h2.08v.44h-.72v2.05a.01.01 0 0 1-.01 0v.01ZM6.94 10h.67a.01.01 0 0 1 .02.01V10.43H6.93a.01.01 0 0 0-.01.01v.61h.88v.01h.01v.43l-.01.01H6.4V9A.01.01 0 0 1 6.41 9h1.4l.01.01v.43h-.88a.01.01 0 0 0-.01 0 .01.01 0 0 0 0 .02V10ZM11.4 9h-.48l-.01.01V11.5h.5V9ZM12.95 9a902.01 902.01 0 0 1 1.05.02v.42h-.78l-.01.02v2.02c0 .01 0 .02-.02.02a17.3 17.3 0 0 1-.5-.02V9.45h-.78l-.01-.01v-.42L11.9 9h1.04Z" fill="#010101"/><path opacity=".5" fill="#010101" d="M6 12h6v1H6z"/></svg>