<!-- by TradingView --><svg width="18" height="18" viewBox="0 0 18 18" xmlns="http://www.w3.org/2000/svg"><path fill="#100029" d="M0 0h18v18H0z"/><path d="M12.2 5.13A4.92 4.92 0 0 0 9.16 4h-.33A4.98 4.98 0 0 0 4 8.84v.33A5.02 5.02 0 0 0 8.78 14h.45A4.93 4.93 0 0 0 14 9.22v-.45a4.9 4.9 0 0 0-1.8-3.64ZM4.53 8.7l.02-.2a4.48 4.48 0 1 1 7.83 3.42c-.11.14-.16.15-.14.04l-.01-.16a9.61 9.61 0 0 0-1.48-4.57 11.44 11.44 0 0 0-1.78-2.12A10.43 10.43 0 0 0 5.72 12a.03.03 0 0 1-.04-.01 4.4 4.4 0 0 1-1.14-3.3Zm2.66 4.26v-.41A8.83 8.83 0 0 1 9 7.33h.02a8.66 8.66 0 0 1 1.67 3.97c.06.44.1 1 .11 1.73 0 .06-.03.09-.08.11a4.5 4.5 0 0 1-3.43 0c-.08-.03-.11-.09-.1-.18Zm1.36-.06a1 1 0 1 0 .88-1.8 1 1 0 0 0-.88 1.8Z" fill="#fff"/></svg>