<!-- by TradingView --><svg width="18" height="18" xmlns="http://www.w3.org/2000/svg"><path fill="url(#paint0_linear)" d="M0 0h18v18H0z"/><path fill-rule="evenodd" d="M9 3.375l5 2.812v5.626l-5 2.812-5-2.812V6.187l5-2.812zm4.53 2.9l-4.374-2.46v4.921l4.375-2.46zm.157.264L9.313 9l4.374 2.461V6.539zm-.156 5.186L9.156 9.264v4.922l4.375-2.461zm-4.688 2.46l-4.374-2.46 4.374-2.461v4.922zm0-5.449L4.47 6.276l4.374-2.462v4.922zM4.313 6.54L8.687 9l-4.374 2.461V6.539z" fill="#000"/><path d="M9 5.97l2.635 4.448L9 11.901l-2.635-1.483L9 5.971zm0 .61l-2.208 3.727L9 11.549l2.208-1.242L9 6.58z" fill="#000"/><defs><linearGradient id="paint0_linear" x1="0" y1="9" x2="18" y2="9" gradientUnits="userSpaceOnUse"><stop stop-color="#06EFA0"/><stop offset="1" stop-color="#01FAFC"/></linearGradient></defs></svg>