<!-- by TradingView --><svg width="18" height="18" viewBox="0 0 18 18" xmlns="http://www.w3.org/2000/svg"><path fill="url(#a)" d="M0 0h18v18H0z"/><path d="M6.04 3.3A.5.5 0 0 1 6.5 3h5a.5.5 0 0 1 .37.84l-2.2 2.41 2.2 2.41a.5.5 0 0 1 0 .68l-2.2 2.41 2.2 2.41a.5.5 0 0 1-.37.84h-5a.5.5 0 0 1-.37-.84l2.2-2.41-2.2-2.41a.5.5 0 0 1 0-.68l2.2-2.41-2.2-2.41a.5.5 0 0 1-.09-.54ZM9 5.5 10.37 4H7.63L9 5.5ZM9 7 7.18 9 9 11l1.82-2L9 7Zm0 5.5L7.63 14h2.74L9 12.5Z" fill="#fff"/><defs><linearGradient id="a" x1="3.35" y1="3.12" x2="21.9" y2="24.43" gradientUnits="userSpaceOnUse"><stop stop-color="#1A1E21"/><stop offset="1" stop-color="#06060A"/></linearGradient></defs></svg>