<!-- by TradingView --><svg width="18" height="18" viewBox="0 0 18 18" xmlns="http://www.w3.org/2000/svg"><path fill="#314198" d="M0 0h18v18H0z"/><path d="m14.93 8.1-.27-.26a.38.38 0 0 0-.06-.2c.13-.33.05-.6-.24-.82a5.63 5.63 0 0 0-1.61-2.24 5.85 5.85 0 0 0-6.32-.79c-.48.21-.9.5-1.23.85-.04-.01-.07 0-.11.04a5.7 5.7 0 0 0-1.7 5.8 5.82 5.82 0 0 0 2.23 3.2c0 .1.04.2.13.34a6.07 6.07 0 0 1-2.7-5.76 5.93 5.93 0 0 1 7.77-4.97 6 6 0 0 1 4.1 4.82Z" fill="#EA050C"/><path d="M14.36 6.82c.3.22.37.49.24.82l-.1.13c-.02.01-.02.02 0 .03l.17.04.26.27.03.21c0 .18-.07.33-.19.45l-.28.3v.03l.28.09c.08.05.14.15.2.3l-.03.3a.82.82 0 0 1-.26.25l-.1.08a.05.05 0 0 0-.03.04c0 .05.03.08.07.12 0 .17-.06.35-.15.52l-.2-.44c-.01-.02-.03-.02-.04-.01l-.3.19c-.02.02-.02.03.02.03a.2.2 0 0 1 .09.02c.02 0 .03.02.03.03l.23.65c-.1.3-.25.58-.44.83h-.52c-.03 0-.05-.02-.04-.05v-.13l-.05-.6c0-.05-.03-.22-.1-.51 0-.03-.01-.04-.04-.04l-.08.01c-.03 0-.04.02-.03.04a6.13 6.13 0 0 1 .13 1.27H11.6c-.07 0-.07-.01 0-.04.08-.03.13-.1.15-.17a.38.38 0 0 1 .04-.1c.02-.02.01-.03-.01-.04h-.03c-.03 0-.04-.02-.03-.05l.03-.12c0-.02.02-.03.04-.03h.11c.02 0 .03 0 .03-.02v-.07c0-.02 0-.03.02-.03l.2-.1c.02 0 .03-.01.03-.03v-.06c0-.02 0-.03.02-.04l.39-.22.01-.04c-.02-.1-.08-.15-.2-.13l-.03-.01.01-.03.04-.03v-.01h-.05a.52.52 0 0 1-.14.1c-.03 0-.03 0-.02-.02.07-.11.16-.17.3-.18l.04-.03.4-.4c.01-.01.02-.03 0-.05l-.03-.06c-.01-.02-.03-.03-.04-.02l-.4.1c-.06 0-.07-.01-.04-.06l.18-.27v-.04c0-.01 0-.02.03-.03.08-.04.09-.1.03-.2l-.15-.24c-.01-.03-.04-.04-.07-.03l-.07.02c-.02 0-.02.01-.01.03l.22.37v.05a.52.52 0 0 1-.24.15h-.04l-.08-.05a.04.04 0 0 1-.02-.04c0-.06-.01-.1-.04-.11a.83.83 0 0 0-.54-.15.05.05 0 0 0-.04.04v.06c.04.03.05.07.04.12 0 .02 0 .03-.02.04-.02.02-.03.05-.03.08 0 .02 0 .03.02.04.03.02.06.03.08.06.04.03.05.07 0 .12l-.14.14a.05.05 0 0 0-.02.05l.04.07c.02.02.02.03-.01.04-.16.04-.25 0-.26-.12 0-.06-.04-.1-.1-.1l-.14-.01c-.05 0-.07-.03-.07-.08v-.86c0-.02 0-.03.02-.04a.05.05 0 0 1 .04 0l.18.05c.02 0 .04 0 .05-.02.03-.03.03-.07 0-.1a.05.05 0 0 1 0-.06c.01-.05 0-.08-.04-.11a.11.11 0 0 0-.1-.02.11.11 0 0 0-.07.06v.03c.01.03 0 .04-.01.04l-.04.02c-.02 0-.03 0-.03-.03V8.6c0-.02 0-.03.03-.03.15 0 .3.02.44.04.1.02.11 0 .02-.05a1.8 1.8 0 0 1-.3-.25.15.15 0 0 0-.1-.04A3.88 3.88 0 0 0 7.76 9.8l-.17.78c0 .01 0 .02.02.02.16-.03.3-.03.4 0 .08.03.21.12.39.27l-.01.06c0 .02-.02.02-.04.02l-.09-.03c-.02 0-.03 0-.03.02v.04l.03.05c.03.02.03.05 0 .08a.11.11 0 0 0-.01.05c-.02.17-.02.3 0 .4l.08.18.02.05v.28c0 .02-.01.03-.03.03h-.9c-.09 0-.19.04-.29.1a1.7 1.7 0 0 1-.1.06c-.05.03-.04.04 0 .04l.2.02c.02 0 .03 0 .04-.02v-.02c0-.02.01-.03.03-.03h1.01c.02 0 .03.01.04.03a6.11 6.11 0 0 0 .23 1.56h-.86c-.02 0-.03-.01-.04-.03a.21.21 0 0 0-.06-.1c-.01-.02-.03-.02-.04-.01l-.2.11a3.66 3.66 0 0 0 .53.85c-.15 0-.3-.03-.44-.09l-.38-.6c-.01-.03-.03-.04-.06-.03l-.68.2-.4.04-.21-.15c-.1-.13-.14-.25-.13-.34l.1-.26c0-.01 0-.02-.03-.02h-.27a.59.59 0 0 1-.37-.28.5.5 0 0 1-.08-.27c0-.1.03-.19.08-.26.01-.03 0-.04-.02-.05-.33-.05-.5-.23-.53-.53a.66.66 0 0 1 .1-.45c.07-.12.2-.2.38-.23.01 0 .02-.01 0-.02a.62.62 0 0 1-.19-.3.49.49 0 0 1 .02-.3c.03-.1.1-.18.18-.25.09-.07.2-.11.32-.13.04 0 .04-.02.02-.04a3.9 3.9 0 0 1-.13-5.65A3.75 3.75 0 0 1 7.02 3.6a3.9 3.9 0 0 1 4.85 4.12c0 .07.01.08.05.02l.72-1.11c.07-.1.16-.18.26-.22a.56.56 0 0 1 .58.12.6.6 0 0 1 .17.3c0 .01.01.02.03 0a.64.64 0 0 1 .68-.02Z" fill="#080506"/><path d="M6.89 5.19V3.87c.73-.22 1.47-.21 2.22.02a431.26 431.26 0 0 0 .02 2.6v.05c0 .07 0 .13.02.18.07.16.18.3.32.4.14.12.29.13.44.03.11-.08.2-.2.29-.38.04-.09.06-.24.06-.45a160.19 160.19 0 0 1 0-1.79h.03a3.69 3.69 0 0 1 1.38 2.91c0 .07-.01.08-.04 0l-.1-.27a.46.46 0 0 0-.35-.3.48.48 0 0 0-.44.12.41.41 0 0 0-.15.39c.03.2.11.41.25.62l-.01.02A4.21 4.21 0 0 0 7.7 9.39l-.01-.01c-.03-.18-.1-.3-.22-.39a.45.45 0 0 0-.36-.06.5.5 0 0 0-.31.2.48.48 0 0 0-.08.4 1.94 1.94 0 0 0 .3.76v.02H7a3.2 3.2 0 0 1-1.56-1.04 2.68 2.68 0 0 1-.62-1.76c0-.03-.01-.04-.04-.05h-.02c-.03 0-.04.01-.04.04-.03.99.31 1.8 1.04 2.43.23.2.48.37.75.48.05.03.05.03-.01.03l-.7-.07a.2.2 0 0 1-.1-.03 3.53 3.53 0 0 1-1.29-1.9 3.74 3.74 0 0 1 1.27-3.96h.04l.02.04v1.82c0 .19.02.33.06.42a.9.9 0 0 0 .2.3c.1.11.2.16.31.16.12-.01.23-.07.34-.19.09-.1.16-.21.2-.33.03-.1.04-.25.04-.46V5.19Z" fill="#FCE637"/><path d="M6.9 3.86 6.88 5.2a15.61 15.61 0 0 0-.05-1.26c0-.04.02-.06.05-.07Z" fill="#696868"/><path d="M11.98 4.95h.18l.02.01v.02l-.16.11v.02l.06.18-.01.02h-.02l-.15-.11h-.02l-.15.1h-.02V5.3l.05-.18V5.1L11.6 5v-.02l.01-.02h.2l.06-.18c0-.01 0-.02.02-.02l.01.02.06.17.02.01ZM12.93 5.4c.02 0 .04.02.06.09 0 .02.01.03.03.03h.12v.01l-.1.1a.04.04 0 0 0 0 .04c0 .02.01.04.03.05l.01.03v.02c0 .01-.02.02-.03.01a1.64 1.64 0 0 1-.12-.06h-.02l-.11.06-.03-.01v-.02l.01-.03a.15.15 0 0 0 .04-.05l-.01-.04-.1-.1v-.02h.12c.02 0 .03 0 .04-.02.01-.07.03-.1.06-.1ZM12.33 6.35H12.53v.03l-.16.1v.03l.06.17-.01.02h-.03l-.14-.11h-.03l-.14.11h-.02c-.01 0-.02-.01-.01-.02l.06-.17v-.03l-.16-.1v-.02l.01-.02.19.01.02-.02.05-.17c0-.01 0-.02.02-.02l.02.02.05.17c0 .02 0 .02.02.02Z" fill="#fff"/><path d="M12.89 6.56a.45.45 0 0 1 .5.06c.07.06.11.13.13.22.01.1-.01.19-.07.28l-.7 1.1a.65.65 0 0 1-.22.18 7.58 7.58 0 0 1-.92.43l.3-.76c.08-.17.16-.34.26-.5l.47-.71c.1-.16.18-.26.25-.3Z" fill="#FCE637"/><path d="m12.02 9.2.27-.46c.04-.07.13-.14.27-.21l.06-.03a.79.79 0 0 0 .28-.28l.62-.97c.1-.15.19-.25.26-.3.13-.1.28-.11.43-.05a.5.5 0 0 1 .3.3c.06.17.02.33-.13.49l-.99 1.07a.86.86 0 0 1-.37.2 8.7 8.7 0 0 1-1.04.3v-.02l.02-.02.02-.02ZM11.58 8.47a6.46 6.46 0 0 1-.51-.43 1.15 1.15 0 0 1-.33-.58c-.05-.16-.02-.29.08-.38.09-.07.19-.1.3-.08.1.01.2.07.26.16.07.1.13.28.17.52.04.27.08.52.1.75 0 .02 0 .04-.02.05a.04.04 0 0 1-.05 0Z" fill="#FCE637"/><path d="m3.63 7.68-.01-.01c-.02-.02-.02-.03 0-.04a.18.18 0 0 0 .1-.07c0-.01.02-.02.04 0l.1.08c.02.01.02.02 0 .04-.03.01-.03.04-.02.08 0 .02 0 .03-.03.03a.32.32 0 0 0-.14 0c-.03 0-.04 0-.03-.02l.02-.04c0-.02 0-.04-.03-.05Z" fill="#fff"/><path d="M14.6 7.64c.04.06.06.13.06.2l-.16-.04c-.02 0-.02-.02 0-.03l.1-.13Z" fill="#314198"/><path d="M12.71 9.93a23.19 23.19 0 0 0 .52-.82c.02-.05.07-.1.14-.16l.1-.08.8-.88c.05-.05.13-.07.24-.04.16.03.27.12.3.28a.4.4 0 0 1-.1.4l-.84.9a.66.66 0 0 1-.26.16 6.92 6.92 0 0 1-.9.24Z" fill="#FCE637"/><path d="m13.86 12.1-.1.14-.42.01c-.02 0-.03.01-.03.03l-.04.59a.56.56 0 0 1-.19.2l.07-.8c0-.02 0-.03-.02-.03h-1.72c-.02 0-.03.01-.03.03 0 .02 0 .03.02.04l.07.06c.02.01.03.03.03.05l.02.26c0 .03 0 .04-.03.05h-.04c-.02 0-.04-.03-.05-.06a2.68 2.68 0 0 1-.1-.23.05.05 0 0 0-.02-.03l-.25-.07c-.03 0-.04 0-.04.03v.68c0 .02 0 .04.02.05.04.04.03.08 0 .14a.07.07 0 0 0-.03.04v.25c0 .02.01.03.03.03h.19c.02 0 .04 0 .05.02l.1.2c0 .03.02.05.05.05h.75a.88.88 0 0 1-.24.15h-.57c-.02 0-.03.02-.02.04.05.1.14.14.27.13-.03.05-.08.07-.15.08a1.04 1.04 0 0 1-.28-.19c-.11-.12-.17-.1-.17.07v.31l-.14.06v-.45c0-.04-.02-.05-.05-.05H8.86c-.02 0-.03 0-.02.03.08.26.2.5.37.76a.39.39 0 0 1-.17 0c-.16-.25-.28-.5-.36-.77 0-.02-.02-.02-.04-.02H7.81v.03c.16.27.37.5.61.72-.18 0-.35-.02-.5-.08-.22-.26-.4-.53-.54-.8l.01-.05.2-.11h.04c.03.03.05.07.06.1 0 .03.02.04.04.04h.86c.02 0 .02 0 .02-.03-.15-.5-.24-1-.26-1.53 0-.02 0-.03-.03-.03H7.31c-.02 0-.03 0-.03.03v.02c0 .02-.02.02-.03.02l-.21-.02c-.05 0-.05-.01 0-.04l.1-.06c.1-.06.2-.1.3-.1h.89c.02 0 .03 0 .03-.03v-.28a.1.1 0 0 0-.02-.05.87.87 0 0 1-.09-.19v-.4l.03-.04c.02-.03.02-.06 0-.08a.22.22 0 0 1-.04-.05v-.04c0-.02.01-.03.03-.02l.09.03c.02 0 .03 0 .04-.02v-.06a1.4 1.4 0 0 0-.38-.27.86.86 0 0 0-.4 0c-.02 0-.03 0-.02-.02l.17-.78a3.88 3.88 0 0 1 3.3-1.53c.04 0 .07.02.1.04.11.1.21.19.3.25.1.06.1.07-.02.05a3.13 3.13 0 0 0-.43-.04c-.02 0-.03 0-.03.03v.48c0 .03 0 .03.03.03l.04-.02c.02 0 .02-.01.02-.04l-.01-.03a.11.11 0 0 1 .07-.06c.04 0 .07 0 .1.02.04.03.05.06.04.11v.05c.03.04.03.08 0 .11a.05.05 0 0 1-.05.02l-.18-.06-.04.01a.05.05 0 0 0-.02.04v.86c0 .05.02.07.07.08l.14.01c.06 0 .1.04.1.1 0 .12.1.16.26.12.03 0 .03-.02.01-.04a.14.14 0 0 1-.04-.07c0-.02 0-.03.02-.05l.14-.14c.04-.04.04-.09 0-.12a.27.27 0 0 0-.08-.06c-.02 0-.03-.02-.03-.04 0-.03.02-.06.04-.07a.06.06 0 0 0 .02-.05c0-.05 0-.1-.03-.12a.05.05 0 0 1-.02-.06c.01-.02.03-.04.05-.04.2-.01.38.03.54.15.02 0 .04.05.03.11 0 .02.01.03.03.04l.08.05h.04c.1-.03.18-.08.23-.15.01-.01.02-.03 0-.05l-.21-.37c-.01-.02 0-.03.01-.03l.07-.02c.03 0 .06 0 .07.03l.15.24c.06.1.05.16-.04.2-.02 0-.03.02-.02.03v.01a.1.1 0 0 1 0 .03l-.18.27c-.03.05-.02.07.04.05l.4-.1.04.03.04.06-.01.05-.4.4a.07.07 0 0 1-.05.03.36.36 0 0 0-.29.18c-.01.02 0 .03.02.02.03-.01.08-.04.14-.1h.05v.01l-.04.03c-.01 0-.02.02 0 .03h.03c.1 0 .17.04.19.14 0 .02 0 .03-.02.04l-.38.22a.05.05 0 0 0-.03.04v.06c0 .02 0 .03-.02.04l-.2.09a.03.03 0 0 0-.02.03v.07c0 .02-.01.02-.03.02h-.1c-.03 0-.04.01-.05.03l-.03.12c-.01.03 0 .05.03.05h.03c.02 0 .03.02.01.04a.38.38 0 0 0-.04.1.26.26 0 0 1-.16.17c-.07.03-.06.04 0 .04h1.54c.02 0 .02 0 .02-.02a6.14 6.14 0 0 0-.12-1.29h.08c.02-.01.04 0 .05.03a7.32 7.32 0 0 1 .15 1.11l-.01.13c0 .03 0 .04.04.04l.52.01Z" fill="#fff"/><path d="M14.96 8.32c.05.39.05.78 0 1.17-.05-.15-.11-.25-.2-.3l.01-.42a.61.61 0 0 0 .19-.45Z" fill="#EA050C"/><path d="M3.65 8.8v-.03a.39.39 0 0 0-.08-.07c-.07-.03-.07-.05 0-.05h.11c.02 0 .03-.01.03-.03v-.07c0-.01 0-.02.02-.03h.03l.02.03c0 .03.02.06.04.08l.04.02h.09c.04 0 .04.01 0 .04l-.07.06a.04.04 0 0 0-.02.04l.02.09c.01.03 0 .04-.03.02l-.08-.04a.04.04 0 0 0-.05 0 .25.25 0 0 1-.07.05c-.04.01-.06 0-.04-.05l.04-.05Z" fill="#fff"/><path d="M10.25 9.2c0-.03-.01-.05-.04-.05h-.4c-.03 0-.04 0-.06-.02a.06.06 0 0 1 0-.05c0-.07-.01-.11-.06-.14-.03 0-.03-.02-.01-.03.17-.17.28-.25.34-.27.3-.07.57-.1.79-.09.03 0 .04.02.04.05v.42c0 .03-.01.04-.04.02-.02-.02-.06-.02-.1 0-.01.02-.03.01-.04 0a.24.24 0 0 0-.1-.04c-.02-.01-.03-.02-.03-.05v-.03c0-.02-.01-.04-.03-.05-.08-.05-.15-.07-.2-.06-.14.04-.15.1-.02.16l.15.05.02.02-.01.03a.97.97 0 0 1-.1.06c-.03 0-.05.02-.05.03 0 .02 0 .05.02.07v.03h-.04c-.02-.02-.03-.04-.03-.07Z" fill="#080506"/><path d="M14.77 8.77v.42l-.27-.09c-.02 0-.02-.02-.01-.03l.28-.3Z" fill="#314198"/><path d="m11.96 8.84.1-.05c.03-.02.05-.01.04.02-.01.05-.03.08-.06.1h-.05a.06.06 0 0 1-.04-.04l.01-.03Z" fill="#fff"/><path d="M9.46 9.12a.32.32 0 0 1 .1-.1h.05l.06.07c.02.01.01.02 0 .02l-.2.03c-.01 0-.02 0 0-.02Z" fill="#080506"/><path d="m7.6 9.97-.01.1-.14.56c-.01.02-.02.03-.04.03s-.04 0-.05-.02c-.12-.2-.24-.43-.36-.68-.1-.22-.16-.4-.16-.52s.03-.21.11-.29a.36.36 0 0 1 .3-.1c.13.01.23.1.29.26.09.24.11.46.07.66Z" fill="#FCE637"/><path d="M12.98 9.1c.1-.01.11.02.03.1-.05.05-.1.05-.14 0v-.04a.3.3 0 0 1 .11-.06Z" fill="#fff"/><path d="M14.63 9.29c.11.05.18.14.2.26a.3.3 0 0 1-.14.3l-.92.64a.57.57 0 0 1-.26.1c-.26.03-.52.05-.77.05-.03 0-.04 0-.02-.03a27.57 27.57 0 0 1 .68-.66.33.33 0 0 1 .12-.08c.22-.06.4-.17.54-.35.08-.09.16-.16.25-.2.12-.07.22-.08.32-.03Z" fill="#FCE637"/><path d="M10.83 10.06h-.22l-.03-.01-.13-.13a.06.06 0 0 1-.02-.06.6.6 0 0 1 .17-.35h.01l.21-.06c.02 0 .03 0 .03.02v.58l-.02.01Z" fill="#080506"/><path d="M4.5 9.7c0 .02-.04.06-.14.12-.02.02-.02.03-.01.05l.03.14c0 .03-.02.04-.05.02l-.09-.08c-.01-.01-.03-.02-.05 0l-.15.1c-.03 0-.04 0-.03-.02l.08-.18v-.02l-.18-.1c-.02-.02-.02-.03 0-.04h.2c.02 0 .03-.01.04-.04l.03-.1c0-.04.02-.04.04-.02s.04.06.06.13c0 .02.02.03.04.03.11 0 .17 0 .18.02Z" fill="#fff"/><path d="m5.95 14.17.41-.04a5.04 5.04 0 0 0 1.57.52c.14.06.3.09.49.08.2.05.4.06.62.03a4.45 4.45 0 0 0 1.8-.29l.14-.05c.16-.03.32-.1.46-.2.07 0 .12-.02.15-.07a.7.7 0 0 0 .32-.17.88.88 0 0 0 .24-.14c.36-.2.67-.47.93-.78a.56.56 0 0 0 .19-.2c.2-.18.37-.38.5-.62l.09-.14c.19-.25.33-.53.44-.83.09-.17.14-.32.16-.47.1-.17.15-.35.16-.52a.5.5 0 0 0 .06-.24c.1-.06.18-.14.26-.26a5.95 5.95 0 0 1-1.58 3.33 5.9 5.9 0 0 1-4.93 1.86 6.11 6.11 0 0 1-2.48-.8Z" fill="#EA050C"/><path d="M14.68 10.04a.5.5 0 0 1-.06.24c-.04-.04-.07-.07-.07-.12 0-.02 0-.03.02-.04l.1-.08Z" fill="#314198"/><path d="M14.46 10.8c-.02.15-.07.3-.16.47l-.23-.65a.06.06 0 0 0-.03-.03.2.2 0 0 0-.1-.02c-.03 0-.03-.01 0-.03l.29-.19h.03l.2.45Z" fill="#fff"/><path d="M5.26 11.28a.43.43 0 0 1-.27-.13.36.36 0 0 1-.1-.23c0-.1.02-.18.07-.25a.45.45 0 0 1 .2-.19c.08-.03.2-.03.4-.01l.85.08c.19.02.37.06.55.12a57.86 57.86 0 0 0 .8.26c-.3.16-.6.3-.92.42-.1.05-.2.06-.28.06l-1.3-.13Z" fill="#FCE637"/><path d="M4.09 10.98a.42.42 0 0 0-.08-.06c-.07-.04-.06-.06 0-.06h.12c.02 0 .03-.01.03-.03v-.07c0-.01 0-.02.02-.03h.03l.02.03a.3.3 0 0 0 .04.09l.04.02h.09c.04 0 .05.01.01.04l-.08.06a.04.04 0 0 0-.02.04l.02.1c0 .02 0 .03-.03.01l-.08-.04a.04.04 0 0 0-.05 0 .27.27 0 0 1-.08.05c-.04.01-.06 0-.04-.05l.04-.06v-.04Z" fill="#fff"/><path d="M7.83 11.56c-.42.3-.74.52-.96.65-.1.06-.23.1-.4.1l-1.33.1c-.17 0-.3-.03-.4-.13-.1-.1-.14-.22-.13-.4 0-.15.07-.28.21-.36.08-.05.2-.07.36-.09h.4l.9.1c.15 0 .28 0 .37-.05a.64.64 0 0 1 .17-.05h.26c.22.02.4.05.55.1.02.01.02.02 0 .03Z" fill="#FCE637"/><path d="m8.65 12.1-.12-.02c-.02 0-.03-.01-.03-.03V12c0-.03.01-.03.04-.02l.14.1c.01.01 0 .02-.03.02ZM9.25 12.86c0-.06-.01-.1-.03-.12a6.32 6.32 0 0 1-.25-.45l.03-.02c.06 0 .1.04.1.1v.05a5.85 5.85 0 0 0 .33.39l.03.04a1 1 0 0 1 .13.11c.03.04.06.1.08.2.02.1.06.18.13.21l.13.07c.12.07.2.1.25.12.08.03.16.03.22 0a.14.14 0 0 1 .18.05c.07.09.16.15.27.19v.02H8.8c-.02 0-.03 0-.04-.02a5.41 5.41 0 0 1-.25-1.53c0-.02.01-.03.03-.03h.26c.03 0 .04 0 .05.03.02.1.07.18.14.25.03.03.04.07.04.12 0 .02 0 .03.03.04.08.04.13.1.14.18 0 .02.01.02.03.02h.01v-.02ZM13.08 13.06c-.26.31-.57.57-.93.78l-.75-.01c-.03 0-.05-.02-.06-.05a.57.57 0 0 0-.1-.2.06.06 0 0 0-.04-.02H11c-.02 0-.03-.01-.03-.03v-.25l.02-.04c.04-.06.05-.1 0-.14a.06.06 0 0 1-.01-.05v-.68c0-.03.01-.04.04-.03l.25.07.03.03.09.23c.01.03.03.05.05.06h.04c.03 0 .04-.02.03-.05l-.02-.26a.07.07 0 0 0-.03-.05 1.69 1.69 0 0 1-.07-.06c-.02-.01-.02-.03-.02-.04 0-.02 0-.03.03-.03h1.72c.02 0 .02 0 .02.02l-.07.8ZM13.77 12.24c-.13.24-.3.44-.5.62l.04-.58c0-.02 0-.03.03-.03h.43ZM10.8 12.37l-.02-.02c0-.01 0-.02.01-.01h.03c.02.01.03.03.03.05v.68c0 .02 0 .04-.02.05a.34.34 0 0 0-.08.19c0 .02-.02.03-.03.04-.22.08-.37.01-.46-.2a.63.63 0 0 1-.01-.25l-.01-.27.01-.05a.67.67 0 0 1 .22-.17.34.34 0 0 1 .26.01h.06c.02-.02.02-.04 0-.05Z" fill="#080506"/><path d="M6.86 12.4a45.24 45.24 0 0 1 .98.14c-.24.2-.5.37-.76.53a.67.67 0 0 1-.29.1l-1.23.1a.41.41 0 0 1-.39-.18.37.37 0 0 1-.03-.41c.05-.1.12-.16.2-.16a75.91 75.91 0 0 0 1.52-.12ZM5.82 13.87c-.08-.17-.06-.3.06-.4.1-.1.34-.14.72-.15h.07a1.13 1.13 0 0 0 .69-.28h.03l.6-.07c.04 0 .05.01.03.04-.23.26-.41.45-.55.58a.6.6 0 0 1-.22.11l-.94.3c-.11.02-.2.03-.29.02a.25.25 0 0 1-.2-.15Z" fill="#FCE637"/><path d="M9.04 14.77c-.21.02-.42.01-.62-.04a3.42 3.42 0 0 1-.61-.74l.02-.02h.82c.01 0 .03.01.03.03.08.27.2.52.36.77ZM10.85 14.47c-.54.2-1.08.3-1.64.3a2.9 2.9 0 0 1-.38-.76c0-.02 0-.04.03-.04h1.93c.04 0 .06.02.06.06v.44ZM11.44 14.22c-.14.1-.3.17-.46.2v-.31c0-.17.07-.2.19-.07.05.06.14.12.27.18ZM11.9 13.98a.7.7 0 0 1-.31.17c-.13.01-.22-.03-.27-.14 0-.01 0-.02.02-.02h.57Z" fill="#080506"/></svg>