<!-- by TradingView --><svg width="18" height="18" viewBox="0 0 18 18" xmlns="http://www.w3.org/2000/svg"><path fill="#F0F3FA" d="M0 0h18v18H0z"/><path d="M9.1 4.03c-.31.07-.61.2-.93.27-.28.07-.45.1-.52.13a4.68 4.68 0 0 0-.66.28l-.4-.24c.56-.24 1.16-.4 1.79-.45.24-.03.48-.02.73 0Z" fill="#534888"/><path d="m9.1 4.03.49.07a.54.54 0 0 1-.28-.03h-.1c-.03.01-.04.03-.05.05 0 .02 0 .03.02.03.15.05.3.08.45.1.1.01.16.03.21.05.18.07.36.07.52.14a4.23 4.23 0 0 0 .47.2.1.1 0 0 1 .02.1l-.28.61c-.01.02-.02.03-.04.03h-.04l-.52-.17a3.64 3.64 0 0 0-2.45.14l-.2.07c-.08-.23-.16-.4-.24-.54-.04-.05-.08-.07-.14-.06a.79.79 0 0 0-.25-.08c-.08 0-.14 0-.2.02-.08-.14-.05-.24.1-.29l.4.24h.04a4.68 4.68 0 0 1 1.14-.4c.32-.08.62-.21.94-.28Z" fill="#7B65AB"/><path d="M9.59 4.1c.43.07.84.2 1.23.36.08.04.11.12.1.24l-.03.1-.33.67-.03.03c-.2-.07-.41-.14-.62-.23-.1-.04-.38-.08-.83-.12a2.9 2.9 0 0 0-1.36.2 3.56 3.56 0 0 1-.35.12v-.04l.15-.08a3.64 3.64 0 0 1 2.45-.14 5.99 5.99 0 0 1 .56.17c.02 0 .03-.01.04-.03l.28-.6a.1.1 0 0 0 0-.08.1.1 0 0 0-.05-.05c-.16-.06-.3-.11-.44-.18-.16-.07-.34-.07-.52-.14a1.06 1.06 0 0 0-.21-.05c-.15-.02-.3-.05-.45-.1-.02 0-.02-.01-.02-.03.01-.02.03-.04.05-.04l.06-.01h.04c.1.03.2.04.28.03Z" fill="#A897BD"/><path d="M12.86 6.35a4.69 4.69 0 0 1 .8 3.58.87.87 0 0 0-.01.34c-.23-.1-.48-.17-.75-.18h-.05l-.2.1-.34-.17c.05-.02.08-.05.09-.09.04-.1.06-.16.07-.24.02-.31.03-.63.02-.97A3.68 3.68 0 0 0 11.9 7a.71.71 0 0 0 .23-.12c.45.64.7 1.35.72 2.14a3.04 3.04 0 0 1-.15 1.08.04.04 0 0 0 .03.02h.02l.02-.02c.06-.16.1-.32.13-.5.03-.3.06-.48.05-.7-.02-.5-.14-.99-.34-1.45l-.37-.69.48-.35a.05.05 0 0 0 .01-.07 5 5 0 0 0-1.83-1.55.25.25 0 0 0 .02-.1l.03.05c0 .02.02.03.03.04.16.06.31.14.45.24.54.36 1.02.8 1.44 1.33Z" fill="#7059A4"/><path d="M6.94 4.82c.14.1.22.26.26.49.01.05 0 .09-.02.1a.06.06 0 0 1-.08 0 .7.7 0 0 1-.19-.38.1.1 0 0 0-.05-.07.1.1 0 0 0-.09 0c-.23.13-.47.3-.71.54-.3.29-.55.6-.72.95a.11.11 0 0 1-.1.07l-.47-.02c-.02 0-.05 0-.09.03h-.05c.13-.06.17-.15.22-.27a5.1 5.1 0 0 1 1.63-1.5.66.66 0 0 1 .21-.02c.07 0 .15.03.25.08Z" fill="#26165A"/><path d="m12.23 6.76-.06.07a4.69 4.69 0 0 0-1.52-1.31c-.03-.03-.05-.05-.09-.05l.33-.68a5 5 0 0 1 1.84 1.59c0 .01 0 .03-.02.03l-.48.35Z" fill="#321E7A"/><path d="M7.31 5.42c-.1.05-.13.12-.06.22-.06-.04-.09-.07-.1-.1a.06.06 0 0 0-.03-.06.06.06 0 0 0-.06.01c-.13.11-.27.22-.42.32-.08.06-.15.14-.23.22l-.16.17c-.1.13-.24.31-.41.56-.04.05-.04.1 0 .13l-.1-.05-.38-.27-.68-.04.09-.03a18.24 18.24 0 0 1 .53 0 .11.11 0 0 0 .04-.05 3.47 3.47 0 0 1 1.48-1.5.1.1 0 0 1 .07.04l.02.04a.7.7 0 0 0 .2.39.06.06 0 0 0 .07 0c.03-.02.03-.06.02-.11-.04-.23-.12-.4-.26-.5.06 0 .1.02.14.07.08.13.16.31.23.54Z" fill="#534888"/><path d="M10.53 5.5c-.13.2-.12.31.02.33a.14.14 0 0 1-.06.01c-.02 0-.02.01-.03.03l.01.03.03.03a3.33 3.33 0 0 1 1.62 1.76c.24.7.39 1.58.15 2.3h-.05l-.03.03a3.1 3.1 0 0 1-1.12 1.2.84.84 0 0 0 .24-.2h-.01v-.03c.02-.02.02-.02 0 0-.7.36-1.44.45-2.2.27a3.4 3.4 0 0 1-1.66-1 5.7 5.7 0 0 1-.53-.7 1.97 1.97 0 0 0-.04-.23c-.02-.08-.01-.1.02-.04l.19.4a3.19 3.19 0 0 0 1.62 1.35c.08.04.16.05.25.06.08.01.16.08.25.08.08 0 .15.04.22.05.27.01.5 0 .7-.02.13-.02.24-.07.37-.1a2.48 2.48 0 0 0 1.68-2.92A3.09 3.09 0 0 0 9.08 5.7a.33.33 0 0 0 .03-.1c0-.03 0-.04-.02-.04-.24-.02-.48 0-.71.04.04-.01.06-.03.06-.04a.04.04 0 0 0-.02-.04H8.4c-.26.06-.5.13-.73.21a.77.77 0 0 0-.26.19l-.16-.29c-.07-.1-.05-.17.06-.22l.2-.07-.14.08v.04h.01l.34-.12a2.9 2.9 0 0 1 1.36-.2c.45.04.72.08.83.12.2.09.41.16.62.23Z" fill="#8570B1"/><path d="M10.56 5.47c.04 0 .06.02.09.05a4.7 4.7 0 0 1 1.52 1.3l-.05.06a.71.71 0 0 1-.23.12c-.34-.5-.8-.9-1.34-1.17-.14-.02-.14-.13-.02-.33l.03-.03ZM7.25 5.64l.16.29c.02.03.04.03.07.02l.13-.08.06.03v.03c-.13.11-.25.18-.37.3l-.4.41c-.39.44-.62.95-.7 1.54a3.02 3.02 0 0 0 .65 2.42c.23.3.55.59.94.85.13.09.28.15.44.2l.86.2c.07.02.08.05.04.1l-.08.01c-.3-.02-.58-.1-.85-.23-.04-.01-.07-.01-.08.01-.06.12-.12.27-.12.44 0 .15-.03.27-.06.35-.1.22-.27.5-.5.84-.17-.1-.33-.17-.47-.23a3.53 3.53 0 0 1-.66-.44c.08-.33.08-.66 0-1 0-.01 0-.02.02 0l.23.15c.35.31.74.57 1.15.76.05.02.08 0 .1-.05l.1-.3c.01-.05 0-.08-.05-.1a4.54 4.54 0 0 1-.77-.46c-.11-.08-.24-.21-.35-.3a.95.95 0 0 1-.19-.18c-.1-.12-.2-.22-.27-.35a.12.12 0 0 0-.04-.04.25.25 0 0 1-.1-.12c0-.01 0-.02.02-.03l.36-.25.02-.03c.02-.07 0-.1-.06-.12a3.23 3.23 0 0 1-.27-2.96v-.04l-.02-.01-.27-.16c-.03-.02-.04-.06-.03-.11l-.01-.05-.04-.06c-.04-.04-.04-.08 0-.13a12.02 12.02 0 0 1 .57-.73c.08-.08.15-.16.23-.22a5.76 5.76 0 0 0 .44-.33.06.06 0 0 1 .08.05c0 .04.03.07.09.11Z" fill="#211A46"/><path d="M8.38 5.61a3.22 3.22 0 0 0-.9.34c-.03.01-.05 0-.07-.02.1-.1.18-.16.26-.19a6.32 6.32 0 0 1 .77-.2.04.04 0 0 1 0 .03c0 .01-.02.03-.06.04Z" fill="#B19BD4"/><path d="M9.08 5.71c-.35.04-.63.1-.84.19-.58.24-1 .63-1.28 1.18-.16.31-.24.65-.26 1.02-.02.4.04.8.2 1.19-.04-.05-.05-.04-.03.04l.04.23-.16-.36c.11.32.28.63.5.92.03.06.02.07-.05.05l-.04-.05a3.3 3.3 0 0 1-.64-2.29H6.5a3.95 3.95 0 0 0 .03 1.05 5 5 0 0 1-.07-.9c0-.06-.02-.06-.05-.01v.08l-.02-.02h-.02l-.02.04c-.02-.03-.04 0-.06.06l-.03.1V8.2c0-.03-.01-.03-.02 0l-.05.28v-.03c.02-.1.02-.19.02-.28.07-.59.3-1.1.69-1.54l.4-.4c.12-.13.24-.2.37-.3V5.9a.13.13 0 0 0-.06-.03c.25-.12.5-.2.77-.26.23-.05.47-.06.7-.04.03 0 .03.01.03.03 0 .04-.01.08-.03.11Z" fill="#7059A4"/><path d="M10.55 5.83a3.48 3.48 0 0 1 1.87 2.39c.05.17.07.34.07.5.01.34 0 .66-.02.97-.01.08-.03.13-.07.24-.01.04-.05.07-.1.1l-.03-.04c.24-.72.1-1.6-.15-2.3a3.33 3.33 0 0 0-1.65-1.79v-.03c0-.02 0-.03.02-.03l.06-.01Z" fill="#B19BD4"/><path d="M8.79 10.85c.57.05 1.15 0 1.68-.24a.58.58 0 0 0 .17-.12c.07 0 .11-.02.13-.05a.78.78 0 0 0 .33-.4c.1-.25.3-.7.14-.89a.38.38 0 0 1-.04-.18.1.1 0 0 0 0-.04l-.14-.34v-.04l.06-.17v-.05a1.04 1.04 0 0 1-.1-.33.59.59 0 0 0-.05-.17 64.93 64.93 0 0 1-.08-.23c.02-.14.1-.3.13-.44v-.01a.03.03 0 0 0-.03-.03c-.15.02-.29.06-.41.13.03-.05.03-.1-.01-.15-.27-.29-.6-.46-.99-.52-.02-.02-.06-.04-.13-.05a2.22 2.22 0 0 0-.52-.14c-.62-.09-1.17.24-1.54.76-.22.3-.43.58-.43.88v.42c0 .14.02.28.05.4.04.17.1.34.15.5a2.72 2.72 0 0 1-.22-1.5 2.26 2.26 0 0 1 1.55-1.8c.34-.11.7-.14 1.06-.1a2.84 2.84 0 0 1 2.4 2.12c.1.45.1.9-.03 1.33a2.25 2.25 0 0 1-1.42 1.48c-.54.18-1.14.17-1.71-.03Z" fill="#8D7AB6"/><path d="M9.45 6.53c.07.08.12.14.13.2.01.06 0 .08-.06.03a.51.51 0 0 0-.24-.1A2.56 2.56 0 0 0 8 6.78a.64.64 0 0 0-.16.08c-.04.04-.04.05.01.05l.33.02c.04.02.05.05 0 .08-.55.4-.83.94-.82 1.64 0 .06.02.07.06.02.07-.09.16-.27.27-.35.03-.02.04-.02.03.02-.06.25-.05.5.05.76.12.34.35.73.65.92.06.04.08.03.04-.04l-.08-.13-.01-.04c0-.02.01-.02.03-.01l.35.23c.58.37 1.21.53 1.9.47l-.18.12c-.53.25-1.1.29-1.68.24a2.86 2.86 0 0 1-1.63-1.5c-.06-.16-.1-.33-.15-.5a1.59 1.59 0 0 1-.05-.4v-.42c0-.3.21-.59.43-.88.37-.52.92-.85 1.54-.76.18.03.35.07.52.14Z" fill="#7B65AB"/><path d="m13.87 10.55-.22-.28a.87.87 0 0 1 .01-.34l.06-.33c.11-1.21-.18-2.3-.86-3.25.06-.04.11-.05.17-.04l.04.03c.41.6.69 1.22.82 1.87.15.73.15 1.52-.02 2.34Z" fill="#B19BD4"/><path d="m5.36 6.57.38.27c.05.1.09.2.05.31-.1.37-.18.67-.22.9a3.8 3.8 0 0 0 .36 2.22c.03.06.06.16.09.32 0 .02 0 .03-.02.04l-.24.1a.4.4 0 0 1-.2-.14 4.35 4.35 0 0 1-.39-3.8c.03-.08.1-.16.19-.22Z" fill="#8D7AB6"/><path d="M10.58 7.25a4 4 0 0 0-.23-.22c-.11-.1-.23-.14-.34-.23a.6.6 0 0 0-.15-.07c-.1-.04-.2-.09-.28-.15.4.06.72.23.99.52.04.05.04.1 0 .15Z" fill="#B19BD4"/><path d="m5.36 6.57-.68-.04h-.05c-.13.04-.21.1-.25.2-.08.15-.13.32-.17.48l-.05.14a5.77 5.77 0 0 0-.09 2.22c.13.6.35 1.18.68 1.74.04.07.09.1.13.09l.45-.34.16-.2.27-.13a.4.4 0 0 1-.2-.14 4.35 4.35 0 0 1-.39-3.8c.03-.08.1-.16.19-.22Z" fill="#7059A4"/><path d="m5.83 6.9.05.05V7c0 .05.01.09.04.11l.27.16h-.05c-.02 0-.03.02-.03.03-.07.26-.17.5-.2.76-.04.27-.05.53-.03.79.02.18.06.35.11.5.05.14.08.3.13.4.1.25.22.47.35.7-.3.15-.62.3-.98.42l.27-.14.24-.1c.02 0 .02-.02.02-.04a1.81 1.81 0 0 0-.09-.32 3.8 3.8 0 0 1-.36-2.21c.04-.24.11-.54.22-.91.04-.11 0-.21-.05-.3l.1.04Z" fill="#7059A4"/><path d="M6.2 7.27v.05a3.23 3.23 0 0 0 .28 2.96c.06.07.05.12 0 .16a6.69 6.69 0 0 1-.36-.68c-.05-.1-.08-.27-.13-.4a3.52 3.52 0 0 1-.09-1.3c.04-.26.14-.5.2-.76l.04-.03h.05Z" fill="#A897BD"/><path d="m7.16 10.12.04.05c.07.02.08 0 .04-.05a3.66 3.66 0 0 1-.5-.92.45.45 0 0 0 .01 0l.16.36c.2.3.37.53.53.7a3.4 3.4 0 0 0 1.65 1 3.05 3.05 0 0 0 2.21-.27v.02c-.01 0-.01 0 0 0l.01.02a.84.84 0 0 1-.24.18v.01h.01A3.1 3.1 0 0 0 12.22 10h.05l.04.03.34.16c0 .03.02.05.04.05.04.01.05.04.03.08-.16.42-.37.78-.62 1.09-.07.08-.2.21-.41.4-.04-.05-.1-.07-.18-.05-.03 0-.05 0-.07-.03l-.17-.2c-.03-.06-.08-.07-.13-.03a2.9 2.9 0 0 1-2.1.47l.09-.01c.04-.05.03-.08-.04-.1l-.86-.2c-.16-.05-.3-.11-.44-.2-.4-.26-.7-.54-.94-.85a3.02 3.02 0 0 1-.65-2.42 1.34 1.34 0 0 1 0 .31l.04-.28c0-.03.01-.03.02 0v.01c-.04.6.1 1.17.42 1.7l.2.36h.02v-.02a8.51 8.51 0 0 0-.3-.8 3.03 3.03 0 0 1-.2-1.5c.04-.04.06-.04.06.02a5 5 0 0 0 .07.9 3.95 3.95 0 0 1-.02-1.05h.01c-.06.85.15 1.61.64 2.29Z" fill="#3B3969"/><path d="M6.4 8.05c-.04.52.03.99.2 1.42a8.51 8.51 0 0 1 .28.8l-.2-.36a8 8 0 0 1-.37-1.18.85.85 0 0 1 0-.31c.03-.06.05-.18.04-.35l.02-.03c0-.02.01-.02.02 0h.01Z" fill="#372E6B"/><path d="M6.35 8.07c0 .17 0 .29-.04.35l-.02-.3c.02-.06.04-.08.06-.05Z" fill="#3B3969"/><path d="M10.7 8.45a.52.52 0 0 0 .01-.31c-.02-.12 0-.13.08-.03.06.08.1.15.12.2l-.01.04-.18.13c-.03.02-.04 0-.03-.03Z" fill="#7059A4"/><path d="M11.24 9.15c.16.2-.04.64-.14.88a.78.78 0 0 1-.33.4 3.9 3.9 0 0 1-1.6-1.02.66.66 0 0 1-.12-.16 1.48 1.48 0 0 0-.1-.18.1.1 0 0 1-.01-.05l.01-.04H9a8.6 8.6 0 0 1 .34.24.02.02 0 0 0 .03-.01.03.03 0 0 0 0-.03.68.68 0 0 1-.04-.82c.14-.2.35-.29.64-.25a.04.04 0 0 1 .03.03.04.04 0 0 1 0 .03l-.18.22c-.04.05-.03.1.02.13l.7.55a.04.04 0 0 1 .01.03v.15l.01.01.25.36c.01.02.03.02.05.01l.38-.22a.11.11 0 0 0 .05-.13l-.04-.13Z" fill="#7B65AB"/><path d="m6.29 8.13.02.29a.85.85 0 0 0 0 .31c.07.33.2.73.37 1.18a2.86 2.86 0 0 1-.42-1.69l.03-.1Z" fill="#534888"/><path d="M11.05 9.27c.02-.04 0-.1.01-.13.02-.09.04-.09.08 0l.05.12v.04a.21.21 0 0 1-.15.08c-.02 0-.03-.01-.02-.03l.03-.08Z" fill="#7059A4"/><path d="m13.65 10.27.22.28c0 .11-.05.16-.15.15-.07 0-.11.02-.13.07-.05.13-.07.26-.13.4a4.38 4.38 0 0 1-1.2 1.58l-.11-.5-.46-.45c.2-.19.34-.32.4-.4.26-.3.47-.67.63-1.1.02-.03 0-.06-.03-.07-.02 0-.03-.02-.04-.05l.2-.08.05-.01c.27.01.52.07.75.18Z" fill="#321E7A"/><path d="M6.56 11.85a13.17 13.17 0 0 1-.68-.71l-.17-.22c-.02-.03-.04-.05-.07-.05-.02 0-.04 0-.07.03a.63.63 0 0 1-.24.16l.16-.2c.36-.12.69-.26.98-.42.06-.04.07-.1 0-.16.07.01.09.05.07.12l-.02.03-.36.25c-.01 0-.02.02-.01.03.02.06.05.1.1.12l.03.04c.08.13.18.23.27.35.06.07.12.13.2.19l.34.29c.24.18.5.33.77.46.05.02.06.05.05.1l-.1.3c-.02.05-.05.07-.1.05-.41-.2-.8-.45-1.15-.76Z" fill="#534888"/><path d="m6.56 11.85-.23-.16-.02.01c.08.34.08.67 0 1a5.06 5.06 0 0 1-1.21-1.32l.02-.01.5-.32h.13a7.17 7.17 0 0 0 0-.03c-.04-.03-.05-.06-.04-.1l.17.22.16.21.52.5Z" fill="#372E6B"/><path d="M11.27 11.52a3.25 3.25 0 0 1-3.13.28v-.02c0-.02.01-.03.03-.03l.03-.02c.27.13.55.2.85.23a2.9 2.9 0 0 0 2.1-.47c.04-.04.09-.03.12.03Z" fill="#A897BD"/><path d="m11.69 11.8.46.46a4.1 4.1 0 0 1-2.5.78c-.56 0-1.1-.11-1.63-.32a.08.08 0 0 0-.1.04c-.13.29-.29.57-.47.83-.07-.09-.08-.16-.01-.22.23-.34.4-.62.5-.84.03-.08.05-.2.06-.35 0-.17.06-.32.12-.44 0-.02.04-.02.08 0h-.03c-.02.01-.02.02-.02.04v.02c0 .01 0 .02.02.03a3.25 3.25 0 0 0 3.1-.3l.17.19c.02.02.04.03.07.03.08-.02.14 0 .18.05Z" fill="#8570B1"/><path d="m12.26 12.75-.06.26c-.02.14-.35.32-.48.4a4.9 4.9 0 0 1-4.27.18 5.26 5.26 0 0 0 .5-.87c.03-.01.05-.01.07 0 .53.2 1.07.32 1.64.32a4.1 4.1 0 0 0 2.49-.78l.11.49Z" fill="#372E6B"/></svg>