<!-- by TradingView --><svg width="18" height="18" viewBox="0 0 18 18" xmlns="http://www.w3.org/2000/svg"><path fill="#3E21A0" d="M0 0h18v18H0z"/><circle cx="9" cy="9" r="5.65" fill="#6C4BF3"/><path fill-rule="evenodd" d="M9 15A6 6 0 1 0 9 3a6 6 0 0 0 0 12Zm0-.66A5.34 5.34 0 1 0 9 3.66a5.34 5.34 0 0 0 0 10.68Z" fill="url(#a)"/><path d="M5.12 8c.16-.67.87-2 2.42-2h5.34c-.15.67-.86 2-2.46 2H7.69l-.32-1.13a.19.19 0 0 0-.18-.14.19.19 0 0 0-.18.14L6.66 8H5.12ZM7.1 9.55l.82.58a.2.2 0 0 0 .25-.02.2.2 0 0 0 .04-.2L7.9 8.9c.19-.14.64-.42.95-.42h2.95c-.21.6-.94 1.77-2.19 1.77H8.15c.38.25 1.22.95 1.46 1.52.25.58.1 1.58 0 2-.8-.62-2.49-2-2.74-2.48a2.86 2.86 0 0 1-.24-1.43l.47-.3Z" fill="url(#b)"/><defs><linearGradient id="a" x1="9" y1="3" x2="9" y2="15" gradientUnits="userSpaceOnUse"><stop stop-color="#BA78FF"/><stop offset="1" stop-color="#704899" stop-opacity="0"/></linearGradient><linearGradient id="b" x1="12.98" y1="6.87" x2="7.01" y2="10.15" gradientUnits="userSpaceOnUse"><stop stop-color="#fff"/><stop offset="1" stop-color="#DDD8FF"/></linearGradient></defs></svg>