<!-- by TradingView --><svg width="18" height="18" viewBox="0 0 18 19" xmlns="http://www.w3.org/2000/svg"><path transform="translate(0 .06)" fill="url(#a)" d="M0 0h18v18H0z"/><path d="M9 5.06h2v1.17a3 3 0 1 1-1.8 3.92 3.22 3.22 0 0 1-2.99 1.9c-1.77 0-3.21-1.34-3.21-3 0-1.65 1.44-3 3.21-3 .82 0 1.56.29 2.12.75L6.6 8.26a1 1 0 1 0 .22 1.36L9 7.6V5.06Zm3 5a1 1 0 1 0 0-2 1 1 0 0 0 0 2Z" fill="#FFFEFF"/><defs><linearGradient id="a" x1="9" y1="0" x2="9" y2="18" gradientUnits="userSpaceOnUse"><stop stop-color="#05A17C"/><stop offset="1" stop-color="#00654A"/></linearGradient></defs></svg>