<!-- by TradingView --><svg width="18" height="18" viewBox="0 0 18 18" xmlns="http://www.w3.org/2000/svg"><path fill="#F0F3FA" d="M0 0h18v18H0z"/><path fill-rule="evenodd" d="M14 9A5 5 0 1 1 4 9a5 5 0 0 1 10 0Zm-.13 0a4.87 4.87 0 1 1-9.74 0 4.87 4.87 0 0 1 9.74 0Zm-.8 0a4.06 4.06 0 1 1-8.13 0 4.06 4.06 0 0 1 8.12 0Zm-.12 0a3.95 3.95 0 1 1-7.9 0 3.95 3.95 0 0 1 7.9 0Z"/><path d="M6.9 4.63c-.06-.04-.07-.08-.03-.11a7.44 7.44 0 0 1-.12-.11.66.66 0 0 0-.44-.19.66.66 0 0 0-.45.15c-.29.23-.33.54-.15.94.05.01.07.04.08.1.02 0 .06.03.1.06a.8.8 0 0 0 .2.1c.2.04.36.02.51-.07.32-.18.42-.47.3-.87Z" fill="url(#a)"/><path d="M7.14 6.53c-.7.55-1.1 1.29-1.18 2.22-.03.33 0 .66.08.99.01.05 0 .09-.05.11l-.16.07a33.13 33.13 0 0 1-1.5.61c-.18.1-.36.18-.56.25-.2.06-.28.19-.27.38.01.17.1.28.24.32.08.02.19 0 .33-.05l.53-.22.11-.03.49-.23c.42-.19.73-.34 1.21-.54l.44-.17 2.17-.94c.07-.01.05 0-.04.07L6.6 10.86c-.03.02-.03.04 0 .06l.34.37.22.2.02.01c.2.16.4.28.63.37l.42.17a3.1 3.1 0 0 0 3.85-2.69l-.01-.76-.08-.4c-.03-.08-.02-.13.04-.15.25-.09.52-.23.72-.3.53-.2 1-.4 1.5-.65.15-.07.23-.17.25-.3a.32.32 0 0 0-.1-.27c-.1-.12-.25-.14-.44-.07-1.2.47-2.34 1-3.56 1.51l.96-.82a.09.09 0 0 0 .03-.07c0-.03 0-.05-.02-.07l-.24-.25c-.16-.16-.34-.3-.54-.41a2.99 2.99 0 0 0-3.45.2Z" fill="url(#b)"/><path d="m13.73 10.42-.1-.05c-.36-.04-.58.1-.66.4-.06.24.03.44.25.6.03 0 .06.01.1.04a.5.5 0 0 0 .49-.06c.12-.09.2-.22.22-.38.03-.23-.07-.41-.3-.55Z" fill="#FFB64A"/><defs><linearGradient id="a" x1="5.54" y1="5.3" x2="11.16" y2="11.75" gradientUnits="userSpaceOnUse"><stop stop-color="#0E59E8"/><stop offset=".37" stop-color="#2965D6"/></linearGradient><linearGradient id="b" x1="5.54" y1="5.3" x2="11.16" y2="11.75" gradientUnits="userSpaceOnUse"><stop stop-color="#0E59E8"/><stop offset=".37" stop-color="#2965D6"/><stop offset="1" stop-color="#FFB64A"/></linearGradient></defs></svg>