<!-- by TradingView --><svg width="18" height="18" viewBox="0 0 18 18" xmlns="http://www.w3.org/2000/svg"><path fill="url(#a)" d="M0 0h18v18H0z"/><path d="M11.58 14a5.6 5.6 0 0 1-5.16 0h-.74a5.97 5.97 0 0 0 6.64 0h-.74ZM5.05 5a5.6 5.6 0 0 1 7.9 0h.52a5.98 5.98 0 0 0-8.94 0h.52ZM3 9ZM6.6 6H3v.38h.6c.32 0 .4.25.4.37v4.5c0 .3-.27.38-.4.38H3V12h5.2l.8-1.5h-.2c-.48.6-1.13 1-1.4 1.13h-2a.37.37 0 0 1-.4-.38v-4.5c0-.3.27-.38.4-.38h1.2V6Z" fill="#7CE352"/><path fill="#7CE352" fill-opacity=".6" d="M11 6h4v2h-4z"/><defs><linearGradient id="a" x1="3.35" y1="3.12" x2="21.9" y2="24.43" gradientUnits="userSpaceOnUse"><stop stop-color="#1A1E21"/><stop offset="1" stop-color="#06060A"/></linearGradient></defs></svg>