<!-- by TradingView --><svg width="18" height="18" viewBox="0 0 18 18" xmlns="http://www.w3.org/2000/svg"><path fill="#F0F3FA" d="M0 0h18v18H0z"/><circle cx="9" cy="9" r="6" fill="#18254F"/><path d="M3 9c0-.18 0-.35.02-.52.19.63.73 2.17 1.43 3.3.56.9 1.2 1.86 1.62 2.46a6.02 6.02 0 0 1-1.04-.74C4.45 12.57 3.5 10.8 3 9Z" fill="#B52131"/><path d="M3.01 8.63c.01-.21.04-.42.07-.62l.01.03c.49 1.38 1.78 4.33 3.06 5.13.9.55 1.36 1.21 1.56 1.69a5.96 5.96 0 0 1-1.74-.68 13.66 13.66 0 0 1-2.96-5.55Z" fill="#FFFFFD"/><path d="M3.16 7.64c.2.35.64 1.2 1.5 2.99 1.35 2.8 4 4 5.3 4.3a6.04 6.04 0 0 1-2.87-.24l-.03-.02a12.42 12.42 0 0 1-4-6.49c.02-.18.05-.36.1-.54Z" fill="#B52131"/><path d="m3.19 7.51.08-.07c.68 1.98 3.13 6.2 7.4 7.3l.05.01A6 6 0 0 1 9.1 15c-1.51-.63-4.7-2.91-5.97-7.26l.06-.23Z" fill="#FFFFFD"/><path d="M3.26 7.26c.33 1.73 3.94 6.61 8.7 6.87l.13.01c-.54.33-1.13.57-1.76.71a10.76 10.76 0 0 1-7.15-7.32l.08-.27Z" fill="#B52131"/><path d="M3.32 7.07a8.56 8.56 0 0 0 8.53 6.26c.5 0 1-.05 1.44-.13-.47.47-1 .86-1.6 1.16A9.77 9.77 0 0 1 3.22 7.4l.1-.33Z" fill="#FFFFFD"/><path d="M3.34 7c.5 1.94 2.63 5.4 7.8 5.4 1.4 0 2.47-.34 3.25-.76a6.02 6.02 0 0 1-1.43 1.87c-.39.06-.85.1-1.36.1-1.6 0-6.7-1.02-8.32-6.44L3.34 7Z" fill="#B52131"/><path d="M3.4 6.84c.64 1.85 2.64 4.96 6.47 4.96 2.73 0 4.28-.97 5.07-1.93a5.96 5.96 0 0 1-.88 2.36c-.68.35-1.7.67-3.11.67-3.74 0-6.89-3.05-7.62-5.87l.07-.19Z" fill="#FFFFFD"/><path d="M14.86 10.28A6.03 6.03 0 0 0 15 8.63a5.83 5.83 0 0 1-5.26 2.89c-3.7 0-5.68-3.04-6.3-4.76l-.05.13c.8 2.2 3.09 5.3 6.98 5.3 2.5 0 3.9-1.06 4.5-1.9Z" fill="#B52131"/><path d="m10.4 11.63-.07.16a.43.43 0 0 0-.04.16v.33l-.03.62-.05.65-.03.2c-.02.08-.07.12-.14.14l-.3.05c-.02 0-.05 0-.1-.03h-.03l-.1.07a.7.7 0 0 1-.29-.06.04.04 0 0 0-.03 0c-.04.02-.08.05-.12.04-.1 0-.25 0-.33-.08l-.03-.01c-.2.01-.34-.06-.43-.23-.03-.06-.03-.13-.03-.2l-.03-.54-.02-.55-.01-.49-.12-.53.02-.13c.02-.1-.01-.21-.01-.3 0-.04-.02-.05-.06-.04a1.03 1.03 0 0 0-.33.18.02.02 0 0 0 .01.03c.07.03.11.09.12.18-.1.17-.23.23-.39.18a.66.66 0 0 1-.15-.09.04.04 0 0 0-.03 0c-.04 0-.06.03-.08.07a.65.65 0 0 0-.1.03c-.15.07-.25-.04-.33-.16l-.17-.23c-.03-.15-.02-.27.03-.36v-.03l-.02-.02c-.03-.2.02-.32.15-.38a.02.02 0 0 0 0-.01.02.02 0 0 0 0-.02c-.18-.23-.3-.46-.36-.77a4.95 4.95 0 0 1-.1-.77l-.02-.02c-.19-.05-.37-.18-.5-.24-.1-.05-.25-.12-.43-.23-.35-.18-1.03-.7-.8-1.18a.9.9 0 0 1 .31-.3c.17-.09.35-.16.55-.22a6.17 6.17 0 0 1 .94-.2c.05-.28.1-.5.16-.66.07-.2.22-.3.35-.44l.19-.17c.35-.28.62-.48.8-.6.2-.12.35-.23.56-.26.17-.03.42-.01.63.02.46.07.82.12 1.06.17.19.03.35.07.53.15l.33.15c.04.01.08.04.11.09l.1.11c.22.22.37.38.44.48.2.3.37.59.49.9.06.16.1.32.12.48.02.22.01.51.02.68l.03.88c0 .14.02.27.05.4.01.11-.02.2-.1.26-.08.05-.12.05-.14.16l-.23 1.08c-.02.08-.04.18 0 .26.02.03.04.1.04.15l-.01.21c0 .1-.08.22-.15.3-.1.09-.2.18-.34.26a.57.57 0 0 1-.15.03c-.15.03-.25-.03-.3-.16-.03-.1.02-.16.08-.23a.05.05 0 0 0 .02-.04v-.02l-.02-.02c-.15-.1-.29-.05-.44 0a.05.05 0 0 0-.03.05c0 .22-.04.44-.12.66Z" fill="#060000"/><path d="M10.76 5.11C11 7 8.62 6.36 7.7 6.39l-1.25.04c.06-.16.09-.31.08-.46l.12-.26c.04-.09.1-.16.16-.23a15.32 15.32 0 0 1 1.32-1c.04-.02.05-.02.02.03a.74.74 0 0 0-.1.3v.02h.02v-.01a.73.73 0 0 1 .18-.37c.11-.12.33-.1.5-.08a39 39 0 0 1 1.38.2c.2.03.35.08.47.14.12.06.16.27.16.4Z" fill="#C91C23"/><path d="M7.8 6.23a.1.1 0 0 1 .08-.05c.02 0 .03-.03.04-.06a.35.35 0 0 1 .14-.02c.06.02.12.03.2.03l.13-.04c.95-.35 2.14.96 2.14-.93a.09.09 0 0 1 .03-.07.08.08 0 0 1 .07-.02l.13.04c.05.67.07 1.17.07 1.48 0 .1-.02.22-.07.4v.04l.02.01c.07-.17.1-.34.09-.5l-.07-1.37c0-.1-.03-.22-.08-.38l.01-.02c.07.04.11.08.13.13.04.18.04.38.07.54.03.12 0 .28.02.44.02.35.04.53 0 .73v.16l-.04.2a.3.3 0 0 0 0 .05c0 .07 0 .07.02 0 .05-.18.07-.36.08-.56a10.24 10.24 0 0 0-.1-1.62c.06.06.1.12.1.2l.05.66a8.25 8.25 0 0 1 0 1.2 1.19 1.19 0 0 0-.06.3.02.02 0 0 1-.02.01c-.01 0-.02 0-.03-.02a.37.37 0 0 0-.06-.05.75.75 0 0 1-.07-.04 2.28 2.28 0 0 0-.58-.31c-.29-.1-.57-.18-.85-.22l-.96-.13c-.2-.03-.41-.03-.61-.04a.02.02 0 0 1-.02 0 .02.02 0 0 1 0-.02.29.29 0 0 0 0-.15ZM11.5 5.53v.97c.01.13 0 .25-.03.35-.02.07-.1.2-.19.2-.01 0-.02 0-.03-.02l-.12-.17a31.06 31.06 0 0 0-.05-1.84 9.73 9.73 0 0 1 .42.5Z" fill="#EA1B21"/><path d="m11.96 6.28.1.28a14.15 14.15 0 0 1 0 1.03c.02.23 0 .48.02.7l.02.42c0 .04-.01.07-.05.08-.01 0-.02 0-.02-.02-.03-.06-.05-.1-.1-.16a.5.5 0 0 1-.14-.17c-.03-.14-.1-.27-.2-.4.03 0 .04 0 .03-.03 0 0 0-.02-.02-.03a1.4 1.4 0 0 1-.19-.27 1.08 1.08 0 0 0-.2-.28l-.2-.2v-.02l.03-.06c0-.11.04-.2.09-.3l.12.18c0 .02.02.02.03.02.1 0 .17-.13.19-.2.03-.1.04-.22.04-.35v-.97a3.84 3.84 0 0 1 .42.75c.02.02.03.02.03 0Z" fill="#5D1217"/><path d="M11.6 8.05c.09.12.16.25.2.39-.1-.1-.17-.2-.24-.29-.07-.1-.15-.16-.2-.24-.08-.11-.2-.21-.3-.32-.1-.12-.21-.22-.33-.32l-.14-.07-.27-.2a3.77 3.77 0 0 0-.9-.28c-.4-.05-.77-.12-1.17-.12-.3 0-.5 0-.6-.02a4.14 4.14 0 0 0-.93.04c-.5.06-.88.12-1.12.17a3.7 3.7 0 0 0-.73.28.52.52 0 0 1-.08.06l-.05.07c-.03.03-.06.05-.08.04 0-.06 0-.1.03-.14.1-.14.22-.24.38-.3a43.59 43.59 0 0 0 .3-.12c.6-.21 1.3-.2 1.95-.23.33 0 .68 0 1.06.05.36.03.75.08 1.15.15a3.09 3.09 0 0 1 1.32.56c.18.14.37.26.48.43a6.49 6.49 0 0 0 .27.4Z" fill="#C91C23"/><path d="M12.05 6.56c.03.17.04.3.04.37l.02.97.01.46c.01.1.05.21.06.34 0 .11-.06.15-.14.18a.03.03 0 0 1-.03 0 .13.13 0 0 1-.02-.05c-.02-.06-.05-.1-.1-.12a.14.14 0 0 1-.06-.03c-.01 0-.02-.02-.01-.03 0-.03-.01-.06-.03-.08l-.2-.2-.09-.04c.03-.05.03-.08-.01-.13a1.75 1.75 0 0 0-.15-.14.12.12 0 0 0-.06-.02l-.11-.08h-.1a.33.33 0 0 0-.14-.1 14.48 14.48 0 0 1-.57-.18l-.27-.07c-.36-.08-.73-.15-1.1-.2l-.45-.04h.01a.62.62 0 0 1 .38-.04 59.88 59.88 0 0 0 .83.15 5.97 5.97 0 0 1 1.5.42v-.03l-.42-.4c-.08-.09-.25-.21-.52-.4-.12-.07-.25-.1-.39-.17a1.5 1.5 0 0 0-.32-.08c-.43-.08-.77-.14-1.16-.14-.15 0-.29 0-.4-.02-.78-.07-1.41 0-2.23.12a.92.92 0 0 1-.22 0c.24-.04.61-.1 1.12-.16.38-.05.69-.06.93-.04l.6.02c.4 0 .77.07 1.17.12a3.77 3.77 0 0 1 .9.28l.27.2.14.07c.12.1.22.2.33.32.1.1.22.21.3.32.05.08.13.14.2.24.07.1.14.2.23.29a.5.5 0 0 0 .13.17c.06.05.08.1.1.16l.03.02c.04-.01.05-.04.05-.08l-.02-.41c-.01-.23 0-.48-.02-.71-.01-.1-.02-.2-.01-.3v-.73Z" fill="#240D0E"/><path d="M8.55 7.37H8.1c-.14 0-.29 0-.43.04-.15 0-.3.04-.44.1-.16 0-.3.04-.44.1a.49.49 0 0 0-.32.16l-.01.03V8a2.1 2.1 0 0 0-.05.55v.02h-.02c-.07-.02-.15-.02-.22-.06l-.75-.4a2.18 2.18 0 0 1-.72-.6c.02 0 .02-.01.03-.02v-.03a1.3 1.3 0 0 0-.07-.22c.02 0 .05 0 .08-.05a.4.4 0 0 1 .05-.06c.25-.16.51-.27.8-.34h.23a9.08 9.08 0 0 1 2.63-.11c.39 0 .73.06 1.16.14.15.02.26.05.32.08.14.06.27.1.4.18.26.18.43.3.5.38a8.73 8.73 0 0 0 .43.44.02.02 0 0 1-.03.01 5.97 5.97 0 0 0-1.88-.5l-.42-.08a.62.62 0 0 0-.38.04Z" fill="#5D1217"/><path d="M8.1 7.37v1.9c0 .04.02.06.04.08l.35.2c-.13-.06-.25-.11-.36-.19a6.38 6.38 0 0 0-1.24-.69.06.06 0 0 0-.05.06c-.02.1-.02.22-.01.34 0 .14.06.25.09.36.04.23.23.37.44.44a3 3 0 0 0 1.11.13c-.1.03-.2.04-.32.03a.04.04 0 0 0-.05.04v.61a.05.05 0 0 0 .03.05l.1.07v.03c0 .02 0 .04-.02.07v.17c.03.05.03.09.02.1-.03.1-.03.2 0 .32.04.15.08.25.09.4a42.42 42.42 0 0 1-.03-.09c0-.1-.06-.22-.08-.33l-.03-.13c0-.07.02-.11.03-.17v-.03c-.01-.11-.05-.16 0-.3v-.03c-.03-.04-.06-.06-.1-.06a.7.7 0 0 0-.46.2l-.01-.01a.16.16 0 0 0 .03-.11 38.13 38.13 0 0 1-.02-.86.08.08 0 0 0-.05-.03 1.05 1.05 0 0 1-.36-.1.02.02 0 0 0-.02.02 205.92 205.92 0 0 0 .02 1.36l-.16.1c-.06.05-.12.05-.17 0a.54.54 0 0 1-.13-.19 10.03 10.03 0 0 0 0-.76v-.01l.13-.05a.02.02 0 0 0 0-.03l-.15-.21v-.03l.02.01h.01V7.6c.13-.06.28-.1.44-.1v1.23c0 .03 0 .05.03.06l.39.22a.02.02 0 0 0 .01 0 .02.02 0 0 0 0-.01V7.4c.15-.03.3-.05.44-.04Z" fill="#fff"/><path d="m8.55 7.37-.01 2.19c-.02 0-.04 0-.05-.02l-.35-.2a.08.08 0 0 1-.04-.06V7.37h.45Z" fill="#B01C2E"/><path d="M8.98 7.41v2.33l-.02.01-.41-.17-.01-.02v-2.2l.44.05Z" fill="#fff"/><path d="M7.67 7.41v1.6a.02.02 0 0 1-.02.01l-.4-.22a.06.06 0 0 1-.02-.06V7.5c.14-.05.29-.08.44-.09Z" fill="#B01C2E"/><path d="M11.8 8.57c-.18.22-.1.03-.33.12-.5.2-.97.56-2.04 1.06H9l-.02-.01V7.4c1.56.2 2.41.75 2.81 1.16Z" fill="#17294C"/><path d="M6.79 7.6V10.06l-.02-.01a1.87 1.87 0 0 1-.23-.38c-.02-.06 0-.1-.02-.14a6.06 6.06 0 0 1-.13-.94h.01l.01-.03c0-.18 0-.37.04-.55l.01-.2.01-.03a.49.49 0 0 1 .32-.16Z" fill="#B01C2E"/><path d="M11.99 8.83h-.01v.01c-.16.76-.11.17-.19.94a.34.34 0 0 0-.17-.03l-.3.01c0-.02 0-.03.02-.04-.01.01 0 .02.01.02h.02a1.6 1.6 0 0 0 .28-.92c0-.02.01-.02.03-.03.04-.02.2.1.21-.08.05.02.08.06.1.12Z" fill="#17294C"/><path d="m9.43 9.75-.03.28a.02.02 0 0 1-.02.02h-.02l-.01-.01-.02-.02c-.02-.02-.04-.02-.05 0l.01.02c0 .13-.13.3 0 .47.02.06.06.12.1.17.02.05.03.11.03.2a176.6 176.6 0 0 0-.01 2.96c-.06.01-.1-.02-.13-.09a.26.26 0 0 1 0-.18V11.5c.02 0 .03-.01.03-.03l-.01-.03c-.02-.01-.05-.02-.08 0a.06.06 0 0 0-.04.06l.04.81v.25c0 .17-.04.35-.04.53l-.03.63-.05.15c-.05.02-.09.02-.12-.01v-2.94c.03-.13.07-.25.13-.36a.42.42 0 0 0 .07-.16c.03-.4.06-.21-.02-.43 0-.02-.01-.02-.02 0-.05.05-.1.1-.12.14-.02.02-.02.03 0 .03.05-.02 0 .02-.02.03a.87.87 0 0 1 0-.38v-.03h.43Z" fill="#B01C2E"/><path d="M11.33 9.76h.29v1.26c-.04.06-.13.13-.25.21a.44.44 0 0 1-.19.09V9.89a.02.02 0 0 0 0-.02h-.02l-.4.09a.05.05 0 0 0-.03.05v.75l-.31.1c-.03.02-.04.04-.03.07.02.04.02.07.02.11 0 .26-.06.5-.18.72a.3.3 0 0 0-.04.14 338.4 338.4 0 0 0-.01-.03c0-.1.08-.17.1-.26l.03-.12a242.15 242.15 0 0 0 0-1.46V10c.37-.02.7-.1 1.02-.24Z" fill="#fff"/><path d="m11.8 9.78-.05.19c-.04.1-.04.14-.01.13 0 .1-.02.2-.04.32 0 .01 0 .02.02.03-.02 0-.03 0-.03.02a.01.01 0 0 0 0 .01c.03.02.05.05.05.1.01.13-.02.26-.08.36-.02.03-.01.05 0 .06l-.04.02V9.75c.05 0 .1 0 .17.03Z" fill="#B01C2E"/><path d="M9 9.78a.87.87 0 0 0 0 .38.78.78 0 0 1-.16.33c-.05.06-.06.09-.04.16.04.11.1.2.17.27l.01-.01v2.94l-.1-.01a.06.06 0 0 1-.06-.06c0-.24 0-.47-.02-.7a16.55 16.55 0 0 1-.03-1.59c0-.01 0-.02-.02-.02a.15.15 0 0 0-.07.03v.03c.02.08.04.12.04.18 0 .68.03 1.32 0 1.95-.01.13-.09.14-.18.08V9.98c.15-.04.29-.09.41-.15.02 0 .03-.02.04-.05H9ZM9.45 9.81l.4.17v1.4c0 .02.02.04.05.05h.01v.03h-.04a.03.03 0 0 0-.02.03l.01 2.3v.02l-.1.02c-.04 0-.06-.01-.06-.06-.02-.72 0-1.45.04-2.17 0-.07.04-.12.1-.14a.03.03 0 0 0 .02-.02.03.03 0 0 0 0-.03.16.16 0 0 0-.2-.02 3.7 3.7 0 0 1-.1 2.4c-.02.06-.07.09-.14.07l-.01-.02a176.45 176.45 0 0 1 .01-2.97.37.37 0 0 0-.04-.19 8.01 8.01 0 0 1-.1-.17l.01-.02c.08.13.16.24.16.4 0 .05.02.05.05 0 .06-.08.1-.18.14-.28v-.03c-.08-.13-.15-.2-.2-.37a2.12 2.12 0 0 1-.02-.35c0-.03.01-.04.03-.05Z" fill="#fff"/><path d="m7.64 10.94-.2.14c-.03.02-.04.05-.02.09a.06.06 0 0 0 .05.03h.17c.02 0 .02 0 .02.02 0 .04-.02.07-.06.09-.06.02-.11.02-.16-.02a.56.56 0 0 0-.2-.1l-.02-.04a206.53 206.53 0 0 1 .02-1.3h.01c.1.05.23.08.35.1a.08.08 0 0 1 .07.07v.8c0 .05 0 .09-.03.12ZM11.17 11.3a.2.2 0 0 1-.14-.06.07.07 0 0 1 0-.09c.02-.04.07-.06.07-.12.04-.23-.18-.33-.37-.3V10a.05.05 0 0 1 .04-.05l.38-.1a.02.02 0 0 1 .03.03v1.4ZM8.55 9.98a1347.16 1347.16 0 0 0-.02 3.73c-.05-.01-.1-.06-.16-.15v-.45a24.16 24.16 0 0 1-.05-1.21c-.01-.16-.05-.26-.09-.4a.49.49 0 0 1 0-.33c.01-.01 0-.05-.01-.1-.02-.05-.01-.07-.01-.14v-.03a.19.19 0 0 0 .02-.07.04.04 0 0 0 0-.03.27.27 0 0 0-.1-.07.05.05 0 0 1-.03-.05v-.6a.04.04 0 0 1 .03-.05h.02c.12.01.23 0 .32-.03 0-.02.03-.03.08-.02ZM9.9 9.98a.4.4 0 0 0 .2.06h.2a234.85 234.85 0 0 1-.02 1.57c-.02.09-.1.16-.1.26 0 .24 0 .48-.02.71l-.06.93c0 .09-.03.16-.05.24v.01l-.02.01a.31.31 0 0 1-.17.01V11.5a.03.03 0 0 1 .03-.03h.01l.02-.01-.01-.01H9.9c-.03-.02-.04-.04-.04-.07v-1.4l.04.01ZM6.78 10.37l.01.05v.71c-.03 0-.04-.02-.04-.02.02-.02.02-.04 0-.06-.1-.11-.1-.22 0-.33a.03.03 0 0 0 0-.04c-.05-.09-.08-.25.03-.3Z" fill="#B01C2E"/></svg>