<!-- by TradingView --><svg width="18" height="18" viewBox="0 0 18 18" xmlns="http://www.w3.org/2000/svg"><path fill="#F0F3FA" d="M0 0h18v18H0z"/><path d="M11 8a1 1 0 1 1-2 0 1 1 0 0 1 2 0Z" fill="#F24139"/><path fill-rule="evenodd" d="M14 9.23c0 2.11-1.19 3.93-2.9 4.76 1.36-1.4 1.34-2.88 1.34-3.25v-.04c-.15.19-.4.3-.57.3-.84 0-1.65-.9-2.5-1.82l-.44-.48a4.89 4.89 0 0 1-1.24-2.92c0-.2.1-.3.18-.4a.88.88 0 0 0 .05-.06c.05-.06.08-.1.08-.17C8 5 7.82 5 7.63 5c-.7 0-1.68.45-2.47.88A4.9 4.9 0 0 1 9 4c2.76 0 5 2.34 5 5.23Zm-9.45 2.39A5.13 5.13 0 0 0 6.93 14h.17c1.3 0 2.53-1.48 2.53-2.84C9.63 9.79 8.4 9 7.1 9H4a5.57 5.57 0 0 0 .3 2.02V11H9c-.4.33-1.44 1-2.37 1-.68 0-1.5-.2-2.08-.38ZM9 6.57c0-.46.6-.57.9-.57C11.95 6 12 7.84 12 8.12a.9.9 0 0 1-.01.13l.7.18c.35.09.42.49.13.67l-1.45.9-.2-1.03c-.41-.11-.96-.5-1.26-.74C9.55 7.94 9 7.13 9 6.57Z" fill="#F24139"/></svg>