<!-- by TradingView --><svg width="18" height="18" viewBox="0 0 18 18" xmlns="http://www.w3.org/2000/svg"><path fill="#000D39" d="M0 0h18v18H0z"/><path d="M9.31 4H8.7a.16.16 0 0 0-.16.16v.62c0 .09.07.16.15.16h.63c.08 0 .15-.07.15-.15v-.63a.16.16 0 0 0-.15-.15Z" fill="#18B9F9"/><path d="m5.7 5.24-.46.44a.18.18 0 0 0 0 .26l.45.45c.07.07.18.07.25 0l.45-.45a.18.18 0 0 0 0-.25l-.44-.45a.18.18 0 0 0-.25 0Z" fill="#0BA1FA"/><path d="m12.08 5.22-.48.49a.15.15 0 0 0 0 .2l.48.5c.06.05.15.05.21 0l.49-.49a.15.15 0 0 0 0-.21l-.49-.49a.15.15 0 0 0-.2 0Z" fill="#25D0F5"/><path d="M8.47 5.35h-.58a.14.14 0 0 0-.14.13v.57c0 .08.06.14.13.14h.58c.08 0 .14-.06.14-.13v-.57a.14.14 0 0 0-.13-.14Z" fill="#18B9F9"/><path d="m11.13 6.01-.4-.38a.15.15 0 0 0-.22 0l-.38.4a.15.15 0 0 0 0 .22l.4.38c.06.06.16.06.21 0l.39-.4a.15.15 0 0 0 0-.22Z" fill="#1FC4F7"/><path d="m9.78 6.79-.32-.32a.14.14 0 0 0-.2 0l-.32.32a.14.14 0 0 0 0 .2l.32.32c.05.06.15.06.2 0L9.78 7a.14.14 0 0 0 0-.2Z" fill="#18B9F9"/><path d="m6.03 6.87-.4.4a.14.14 0 0 0 0 .2l.4.4c.05.06.14.06.2 0l.4-.4a.14.14 0 0 0 0-.2l-.4-.4a.14.14 0 0 0-.2 0Z" fill="#0BA1FA"/><path d="M8.05 6.81h-.49a.12.12 0 0 0-.12.12v.5c0 .06.05.12.12.12h.49c.07 0 .12-.06.12-.12v-.5a.12.12 0 0 0-.12-.12Z" fill="#18B9F9"/><path d="M10.87 7.44h-.51a.1.1 0 0 0-.1.1v.52c0 .06.04.1.1.1h.52a.1.1 0 0 0 .1-.1v-.52a.1.1 0 0 0-.1-.1Z" fill="#1FC4F7"/><path d="M12.6 7.75h-.64c-.08 0-.15.06-.15.14v.58c0 .08.08.14.16.14h.63c.09 0 .15-.06.15-.14v-.59c0-.07-.07-.13-.15-.13Z" fill="#25D0F5"/><path d="M7.32 8.54 7 8.21a.13.13 0 0 0-.19 0l-.33.33a.13.13 0 0 0 0 .19l.33.33c.06.05.14.05.19 0l.33-.33a.13.13 0 0 0 0-.19ZM4.78 8.53h-.62A.16.16 0 0 0 4 8.7v.62c0 .09.07.16.16.16h.62c.09 0 .16-.07.16-.16v-.62a.16.16 0 0 0-.16-.16Z" fill="#0BA1FA"/><path d="M13.85 8.53h-.64a.15.15 0 0 0-.15.15v.64c0 .08.07.15.15.15h.64c.08 0 .15-.07.15-.15v-.64a.15.15 0 0 0-.15-.15Z" fill="#25D0F5"/><path d="m11 8.95-.3.3a.15.15 0 0 0 0 .22l.3.3c.06.07.16.07.22 0l.3-.3a.15.15 0 0 0 0-.22l-.3-.3a.15.15 0 0 0-.22 0Z" fill="#1FC4F7"/><path d="M6.06 9.4h-.59a.13.13 0 0 0-.13.13v.6c0 .06.06.12.13.12h.6c.06 0 .12-.05.12-.12v-.6a.13.13 0 0 0-.13-.12ZM7.5 9.86h-.47a.14.14 0 0 0-.14.13v.46c0 .08.06.14.14.14h.46c.08 0 .14-.06.14-.13v-.47a.14.14 0 0 0-.13-.13Z" fill="#0BA1FA"/><path d="m12.37 10.5-.4-.39a.15.15 0 0 0-.21 0l-.4.4a.15.15 0 0 0 .01.22l.4.4c.06.05.16.05.21-.01l.4-.4a.15.15 0 0 0 0-.21Z" fill="#25D0F5"/><path d="M10.46 10.25h-.42a.1.1 0 0 0-.1.1v.42c0 .06.04.1.1.1h.42a.1.1 0 0 0 .1-.1v-.42a.1.1 0 0 0-.1-.1Z" fill="#1FC4F7"/><path d="m9.08 11.02-.35-.35a.12.12 0 0 0-.17 0l-.35.35a.12.12 0 0 0 0 .17l.35.35c.05.04.12.04.17 0l.35-.35a.12.12 0 0 0 0-.17Z" fill="#18B9F9"/><path d="m7.27 11.36-.4.4a.15.15 0 0 0 0 .21l.4.4c.06.06.15.06.21 0l.4-.4a.15.15 0 0 0 0-.21l-.4-.4a.15.15 0 0 0-.2 0ZM6.39 12.05l-.45-.44a.18.18 0 0 0-.26 0l-.44.45a.18.18 0 0 0 0 .26l.45.43c.07.07.19.07.26 0l.44-.44a.18.18 0 0 0 0-.26Z" fill="#0BA1FA"/><path d="m12.07 11.6-.46.46a.17.17 0 0 0 0 .24l.46.46c.06.06.17.07.24 0l.46-.46a.17.17 0 0 0 0-.24l-.46-.46a.17.17 0 0 0-.24 0Z" fill="#25D0F5"/><path d="m10.17 11.8-.58.01a.14.14 0 0 0-.14.14v.58c0 .08.07.14.15.14h.58c.07 0 .14-.07.14-.14v-.58a.14.14 0 0 0-.15-.14Z" fill="#1FC4F7"/><path d="M9.32 13.06h-.64a.15.15 0 0 0-.15.15v.64c0 .08.07.15.15.15h.64c.08 0 .15-.07.15-.15v-.64a.15.15 0 0 0-.15-.15Z" fill="#18B9F9"/></svg>