<!-- by TradingView --><svg width="18" height="18" viewBox="0 0 18 18" xmlns="http://www.w3.org/2000/svg"><path fill="#C0B494" d="M0 0h18v18H0z"/><path d="M9.8 4.1c-.28.13-.5.3-.71.52.06-.25.04-.36-.07-.35 0-.05-.06-.04-.17.04-.18.13-.31.27-.4.4.04-.24 0-.34-.1-.33l.14-.02c.04 0 .04-.02 0-.04a.15.15 0 0 0-.12.01.6.6 0 0 0-.26.26.48.48 0 0 1-.17.15c-.04.02-.06.02-.06-.02-.01-.08-.06-.12-.15-.1a.12.12 0 0 0-.07.04c-.12.15-.26.25-.43.32a.52.52 0 0 1-.28-.07.16.16 0 0 0-.09-.02c-.1 0-.18.04-.23.12-.06.1-.1.24-.14.45l-.2-.1c-.03-.01-.04 0-.03.02 0 .02.02.03.04.03.05 0 .06.02.02.05l-.25.17-.01.03v.03c0 .02 0 .02.02.01a.45.45 0 0 1 .21-.07h.03l.01.02a.04.04 0 0 1 0 .05l-.17.12a.06.06 0 0 0-.02.04c0 .02 0 .03.02.03.03.02.04.04.03.07-.03.06-.07.1-.11.11-.07.03-.1.07-.1.14l-.03.43c0 .03-.02.04-.05.03a.25.25 0 0 1-.1-.07.08.08 0 0 0-.11 0 .07.07 0 0 0-.02.02 1 1 0 0 0 .1.8l-.01.01a3.79 3.79 0 0 1-.04.02l-.02-.01c-.11-.16-.33-.04-.37.09-.03.07 0 .14.1.2s.1.12-.02.17a.7.7 0 0 0-.38.39c-.02.04 0 .06.03.08.05.03.14.02.26-.03.05-.02.07 0 .06.05-.04.21-.2.31 0 .53.03.03.05.03.08.02a.2.2 0 0 0 .12-.2.07.07 0 0 1 .03-.07.08.08 0 0 1 .05-.02h.04a.06.06 0 0 1 .05.02.06.06 0 0 1 .01.04c0 .17.03.4.27.39v-.05c0-.02 0-.03-.02-.03a.2.2 0 0 1-.12-.04c.06.03.1.01.12-.04.05-.13.07-.27.06-.44 0-.07-.03-.12-.09-.14.02-.06.02-.1 0-.13a.12.12 0 0 0 0-.12.1.1 0 0 1-.02-.08c.03-.1.12-.14.21-.1a1 1 0 0 1 .26.1c.03.01.05.03.07.06a.2.2 0 0 1 .03.08v.08a.11.11 0 0 1-.05.05c-.02 0-.05 0-.1-.04-.02-.01-.04 0-.05.03-.02.14.12.16.2.25.02.02.03.04.01.07v.03c-.03.02-.05.04-.09.03H6.4a.04.04 0 0 0-.01.04v.02l.11.07c.03.01.05.04.05.07v1.04c0 .03-.01.05-.04.07a.42.42 0 0 0-.12.12.07.07 0 0 0 0 .07c0 .02.01.02.03.02l.03.03c-.1.17-.22.33-.1.51-.05.23-.03.49.07.78.05.16.03.26-.07.3.03-.09 0-.17-.07-.23a4.93 4.93 0 0 1-1.37-1.6 3.92 3.92 0 0 1 .1-3.7A4.66 4.66 0 0 1 9.07 4c.25 0 .5.03.73.1Z" fill="#719179"/><path d="m10.1 4.06-.13.06a1.1 1.1 0 0 0-.77.55c.01.2-.12.28-.4.26.14-.1.24-.2.29-.31.2-.22.43-.39.7-.51l.31-.05Z" fill="#160504"/><path d="M11.2 4.57a4.32 4.32 0 0 1 2.02 2.25c.4 1 .37 1.98-.08 2.96-.4.86-.98 1.52-1.76 1.97 0-.1-.03-.2-.05-.28-.05-.19-.2-.3-.31-.44a.12.12 0 0 1-.03-.1 1.9 1.9 0 0 0-.04-.71c.28 0 .57-.06.84-.17.7-.39 1.02-.91.94-1.58-.1-.76-.65-1.29-1.42-1.46a.74.74 0 0 1-.3-.12.09.09 0 0 1-.03-.05l-.05-.33c0-.04-.02-.05-.06-.04-.06.03-.1.08-.09.16l-.07-.26c.22-.11.16-.24-.16-.39-.01-.09-.06-.2-.13-.35.17.09.33.06.49-.08.01-.02.01-.03-.01-.04h-.03c-.04-.02-.07-.05-.07-.1-.01-.1-.06-.17-.14-.23-.03-.02-.05 0-.07.03l-.02.03-.07-.01-.25-.25-.01-.03c-.01-.07-.03-.12-.06-.14.05-.04.09-.1.12-.2.08-.06.11-.1.09-.13.12-.05.08-.07-.1-.07-.15 0-.27.05-.42.05.08-.1.14-.2.17-.3l-.01-.03c-.01-.01-.03-.02-.06-.01l.13-.06a.4.4 0 0 1 .1.07c.02.03.05.04.08.05l.93.39Z" fill="#719179"/><path d="M9.97 4.12h.06v.05c-.02.1-.08.2-.16.29-.13.14-.29.25-.46.32-.12-.01-.2-.05-.2-.1.15-.3.4-.49.76-.56Z" fill="#B98464"/><path d="M9.02 4.27c-.28.16-.44.36-.5.61 0 .06.03.09.12.08-.07.1-.14.16-.21.18-.08.01-.16.03-.23.06a.18.18 0 0 0-.08.05.61.61 0 0 1-.4.22c.13-.26.17-.5.1-.74a.08.08 0 0 0-.01-.04.09.09 0 0 0-.09-.02.09.09 0 0 0-.04.02c-.32.31-.4.66-.23 1.04-.03.09-.11.15-.23.18-.01 0-.02 0-.03-.02l-.01-.02a.96.96 0 0 0 0-.66.05.05 0 0 0-.03-.01h-.02a.2.2 0 0 0-.09.08.77.77 0 0 0-.22.67c-.03.12.01.21.11.28.04.02.04.05.01.07l-.14.14c-.02.02-.04.02-.06-.01l-.01-.03c.03-.22 0-.44-.08-.65a.07.07 0 0 0-.03-.03.07.07 0 0 0-.1.01l-.07.1a.71.71 0 0 0-.01.67l.14.16a.07.07 0 0 1 0 .08c-.08.13-.16.19-.24.17a.56.56 0 0 0-.07-.58c-.02-.1-.08-.16-.2-.18-.02 0-.03 0-.03.03v.03h-.07c0-.07.04-.11.1-.14.05 0 .09-.05.12-.1.01-.04 0-.06-.03-.08-.01 0-.02-.01-.02-.03l.02-.04.16-.12.01-.02v-.03l-.01-.01-.03-.01a.45.45 0 0 0-.21.07c-.02.01-.02 0-.02-.01v-.03l.01-.03.25-.17c.04-.03.03-.04-.02-.05-.02 0-.03 0-.04-.03 0-.02 0-.03.03-.02l.2.1c.03.04.07.05.12.03.1-.04.11-.19.1-.27 0-.03.02-.05.05-.05a.9.9 0 0 0 .47-.19c.17-.07.31-.17.43-.32a.12.12 0 0 1 .07-.04c.09-.02.14.02.15.1 0 .04.02.04.06.02a.48.48 0 0 0 .17-.15.6.6 0 0 1 .26-.26.15.15 0 0 1 .12 0c.04 0 .04.02 0 .03l-.13.02a.96.96 0 0 0-.4.83c0 .03.02.05.05.03.26-.09.41-.27.44-.54.09-.12.22-.26.4-.4.1-.07.16-.08.17-.03Z" fill="#160504"/><path d="M9.09 4.62a.73.73 0 0 1-.3.3.4.4 0 0 0-.15.04c-.09 0-.13-.02-.12-.08.06-.25.22-.45.5-.6.1-.02.13.1.07.34ZM8.36 4.38c.1-.01.13.1.1.32a.62.62 0 0 1-.45.54c-.03.02-.05 0-.05-.03a.96.96 0 0 1 .4-.83Z" fill="#B98464"/><path d="M10.39 4.48a.87.87 0 0 0-.37.03.76.76 0 0 0-.34.34l-.03.02-.04.02H9.6a.03.03 0 0 0-.01.03v.01l.15.14c.02.03.05.03.08.02h.11c.01.06.03.1.06.15.02.02.04.02.05-.01.07-.15.03-.27-.11-.34l.25-.08c.03.02.05.07.06.14v.03l.26.25c.02.02.04.02.07 0 .01 0 .02 0 .02-.02.01-.04.04-.05.07-.03.08.06.13.13.14.23 0 .05.02.08.07.1h.03c.02.01.02.02 0 .04-.15.14-.31.17-.48.08-.05-.05-.15-.06-.32-.03H10c-.15-.08-.26.02-.38.02h-.27a.1.1 0 0 0-.08.01c-.12.1-.25.12-.38.06-.27.11-.45.16-.54.12-.2-.1-.44-.1-.69 0a.08.08 0 0 1-.03-.02v-.03l.23-.19c.03-.02.06-.02.08 0 .06.05.1.07.14.06.25.06.5-.02.77-.23-.1-.08-.3-.1-.6-.09.26-.15.51-.26.74-.33.08-.02.18-.03.31-.03.08 0 .11-.06.1-.17.18-.07.34-.18.47-.32.15 0 .27-.04.41-.05.2 0 .23.02.1.07Z" fill="#160504"/><path d="M10.02 4.5c.1.1.19.14.28.12a.39.39 0 0 1-.12.19l-.25.08a.23.23 0 0 0-.13-.04h-.03l-.02.03c0 .03 0 .05.03.06.09.02.14.07.15.14l-.1.01c-.04.01-.06 0-.09-.02l-.14-.14h-.01a.03.03 0 0 1 0-.04h.02l.04-.02.03-.02c.08-.15.19-.26.34-.34Z" fill="#9B6357"/><path d="m7.71 5.47-.26.26c-.16-.38-.09-.73.23-1.04a.09.09 0 0 1 .09-.02l.04.02.02.04c.06.24.02.48-.12.74Z" fill="#B98464"/><path d="M9.2 4.67c.02.06.09.1.2.1.01.12-.02.18-.1.18-.13 0-.23 0-.3.03-.24.07-.49.18-.75.33.04.07.12.11.25.13-.23.04-.37.1-.42.2-.04 0-.08-.02-.14-.07-.02-.02-.05-.02-.08 0l-.23.19v.03l.03.03v.04l.35.06-.49.1c-.01.02-.04 0-.08-.04-.02-.02-.04-.02-.07 0l-.25.25c-.02.02-.02.03 0 .04h.04c-.02 0-.03.02-.03.03-.02.03 0 .04.03.04l.28-.02a.6.6 0 0 1 .03.01l.02.02a.03.03 0 0 1 0 .04l-.03.01c-.17 0-.3.05-.4.16-.01 0-.04 0-.09-.05-.03-.02-.05-.02-.08 0a.22.22 0 0 0-.06.08.16.16 0 0 1-.06.06c-.12.07-.13.13 0 .17.04.03.1.03.2 0a.27.27 0 0 1 .1-.01h.36a.16.16 0 0 1-.1.12.52.52 0 0 0-.18.08c-.12-.03-.25 0-.4.12v-.06c-.04 0-.08 0-.11-.02a.11.11 0 0 1-.05-.07l-.01-.03c-.02-.04-.04-.04-.06 0a.64.64 0 0 1-.16.23v.04h.04c0 .03-.02.04-.03.04l-.23.27a.1.1 0 0 1-.07.03c-.1.01-.2.05-.28.11-.05-.08-.12-.09-.2-.03a.04.04 0 0 0-.02.03v.02l.01.01c.02.02.06.02.1.02-.02.13 0 .22.06.28l.24.23c.02.03.02.07 0 .13-.02 0-.03.02-.04.04-.05.19-.07.38-.05.58a.2.2 0 0 0 .12.04c.02 0 .03.01.03.03v.04h-.01c-.24.02-.28-.2-.27-.38a.05.05 0 0 0-.01-.04.06.06 0 0 0-.05-.02h-.04a.08.08 0 0 0-.05.02.08.08 0 0 0-.03.06.2.2 0 0 1-.12.2c-.03.02-.05.02-.08 0-.2-.23-.04-.33 0-.54.01-.05 0-.07-.06-.05-.12.05-.21.06-.26.03-.04-.02-.05-.04-.03-.08a.7.7 0 0 1 .38-.4c.11-.04.12-.1.02-.16-.1-.06-.13-.13-.1-.2.04-.13.26-.25.38-.1l.01.02h.02a3.79 3.79 0 0 0 .03-.04 1 1 0 0 1-.1-.79l.02-.03a.08.08 0 0 1 .08-.02l.03.03.1.07c.03.01.05 0 .05-.03l.02-.43h.07L6 6.67l.01.09.16.25c.01.03.04.04.07.03.04-.02.08-.06.1-.13.08.02.16-.04.25-.17a.06.06 0 0 0-.01-.08l-.14-.16c.1-.01.18-.04.26-.08l.03-.02.01.03c.02.03.04.03.06 0l.14-.13c.03-.02.03-.05 0-.07-.11-.07-.15-.16-.12-.28.1.16.2.16.28 0 .03-.05.05-.08.08-.08l.01.02.03.02c.12-.03.2-.09.23-.18l.27-.26a.61.61 0 0 0 .4-.22.18.18 0 0 1 .08-.05c.07-.03.15-.05.23-.06.07-.02.14-.08.21-.18a.4.4 0 0 1 .16-.03c.28.02.41-.06.4-.26Z" fill="#5F453E"/><path d="M9.93 4.89c.14.07.18.19.11.34-.01.03-.03.03-.05 0a.42.42 0 0 1-.06-.15c-.01-.07-.06-.12-.15-.14-.03-.01-.04-.03-.03-.06l.02-.02.03-.01c.05 0 .1.01.13.04Z" fill="#76665B"/><path d="M7.23 4.98a.9.9 0 0 1-.47.19c-.03 0-.05.02-.05.05.01.08 0 .23-.1.27-.05.02-.09 0-.12-.03.03-.2.08-.35.14-.45a.28.28 0 0 1 .23-.12c.04 0 .07 0 .1.02.08.05.17.07.27.07Z" fill="#34322A"/><path d="M10.42 4.95a.12.12 0 0 1-.05-.03c-.01-.02 0-.02.01-.03.1 0 .17.04.24.11.03.03.02.05-.02.05-.02 0-.07-.02-.14-.08a.13.13 0 0 0-.04-.02Z" fill="#C5BB9E"/><path d="M9.05 5.1v-.02a.02.02 0 0 1 .01-.01c.1 0 .16.02.2.07a.04.04 0 0 1 .01.05l-.01.02h-.02c-.05.01-.1-.03-.2-.1Z" fill="#645E50"/><path d="M7.04 5.28c-.02.14 0 .26.04.37v.08a.35.35 0 0 0 .02.22c-.08.16-.17.16-.28 0a.78.78 0 0 1 .22-.67ZM8.85 5.4c-.26.21-.52.29-.77.23.05-.08.19-.15.42-.2l.35-.03Z" fill="#B98464"/><path d="M10.42 5.63c.07.15.12.26.13.35a.47.47 0 0 0-.24.01c-.03.02-.04.04-.04.07v.1l.01.03.03.02.4.16.07.26c0 .11.02.21.06.29v.02a.04.04 0 0 1-.03.03h-.02c-.11-.01-.17-.07-.15-.18v-.1c.03-.23-.03-.35-.2-.33-.12-.02-.2-.07-.24-.13l-.02-.01c-.01 0-.02 0-.02.02v.02c.01.06 0 .12-.03.17a.08.08 0 0 0 0 .08l.05.1c-.02.06 0 .1.02.12.04.03.06.02.05-.02.03.05.04.08.01.09.04.04.12.1.23.15-.05.1.07.17.35.22.06.01.1 0 .12-.05l.06.05c.05.01.06.05.02.13-.18.03-.36.04-.56.04a.73.73 0 0 1-.33-.08c-.09-.05-.2-.08-.34-.11a.04.04 0 0 1-.03-.03.04.04 0 0 1 0-.03.04.04 0 0 1 .03-.02l.07-.01c.06-.02.07-.04.02-.06a.14.14 0 0 0-.07-.01c.03-.01.05-.04.05-.1.13-.01.18-.1.16-.25a.05.05 0 0 0-.02-.04.06.06 0 0 0-.05 0l-.59.12a.07.07 0 0 0-.06.05l-.01.05c.06.16.16.2.28.12l.1.05c-.12.04-.2.09-.21.13a.35.35 0 0 1-.23-.02c-.02 0-.03 0-.03.02v.04l.02.01a5.37 5.37 0 0 1 .6.22c0 .03 0 .06-.04.08a.12.12 0 0 0-.04.09.12.12 0 0 0 .04.08.9.9 0 0 0 .5.25.02.02 0 0 0 0-.02v-.02a.15.15 0 0 0-.07-.04.12.12 0 0 1-.05-.03l-.02-.04s0-.02.02-.03c.03-.03.05-.03.08-.01.35.26.53.57.53.94 0 .21.02.36.05.43a.85.85 0 0 1-.24.5h-.06l-.01-.02-.01-.02V9.5l.02-.02c.14-.1.17-.2.1-.3a.2.2 0 0 1-.04-.07l-.07-.3c0-.05-.03-.05-.06 0a.44.44 0 0 0-.05.25c-.04.03-.06.06-.06.1a.54.54 0 0 0-.24.13l-.22.01c-.1.01-.12-.02-.04-.1a.57.57 0 0 0 .1-.14.07.07 0 0 0 0-.08c-.02-.02-.02-.04 0-.06.01 0 .02 0 .02-.02 0 0 0-.02-.02-.03a.02.02 0 0 0-.02 0h-.01a.2.2 0 0 1-.05.07.1.1 0 0 1-.09.02c-.09-.02-.14 0-.15.08a.05.05 0 0 1-.03.04.06.06 0 0 1-.05 0 3.62 3.62 0 0 1-1.4-1.76c-.02-.02-.03-.03-.06-.02a.1.1 0 0 0-.03.02c-.02-.05-.01-.1.02-.13a.07.07 0 0 0 .02-.06c-.02-.1 0-.15.04-.19.03-.02.03-.04-.01-.04l-.2-.04c-.05-.01-.05-.02 0-.04l.14-.05.15-.12a.07.07 0 0 0 .02-.06v-.4c0-.03.01-.06.04-.07l.6-.44c.13.06.26.05.38-.06a.1.1 0 0 1 .08-.02l.27.01c.12 0 .23-.1.39-.03.02.01.05.02.09.01.17-.03.27-.02.32.03Z" fill="#F0BE96"/><path d="m8.9 5.69-.61.44a.08.08 0 0 0-.04.07v.4c0 .02 0 .04-.02.06l-.15.12-.11-.19a.08.08 0 0 1 0-.08.21.21 0 0 1 .09-.08l.03-.02v-.04l-.02-.33.11-.12a.57.57 0 0 0 .17-.1c.1.03.27-.02.54-.13Z" fill="#76665B"/><path d="M6.45 5.83c.1.15.15.33.16.53 0 .03.03.06.09.06a.76.76 0 0 1-.26.08.71.71 0 0 1 .01-.67Z" fill="#9B6357"/><path d="M9.26 6.37h-.03l-.02-.03-.02-.09c-.01-.04 0-.08.05-.13a.4.4 0 0 1 .17-.09l.32-.08.1-.02.1.01a.2.2 0 0 1 .07.04.1.1 0 0 1 .04.05l.02.09a.04.04 0 0 1-.02.05l-.78.2ZM7.52 6.02c.14.1.32.11.55.02l.03.33-.01.04-.03.02a.21.21 0 0 0-.09.08.08.08 0 0 0 0 .08l.11.19-.15.05c-.04.02-.04.03 0 .04l.2.04c.05 0 .05.02.02.04-.05.04-.06.1-.04.19a.08.08 0 0 1-.02.06c-.03.04-.04.08-.02.13a.6.6 0 0 0-.2.07c-.02.02-.03.04-.02.07.03.05.06.09.1.12l.02.03a.08.08 0 0 1-.01.09.09.09 0 0 1-.04.02.3.3 0 0 1-.17 0 .09.09 0 0 1-.06-.05c-.12-.3-.12-.56-.54-.67a.51.51 0 0 1 .17-.08c.06-.02.1-.06.1-.12.03 0 .05 0 .06-.02a.04.04 0 0 0-.01-.05h-.02a.78.78 0 0 0-.69.08c-.12-.04-.11-.1 0-.17a.16.16 0 0 0 .07-.06.22.22 0 0 1 .06-.08c.03-.02.05-.02.08 0 .04.04.08.06.1.05.28.05.51-.01.7-.2a.21.21 0 0 0 .1-.07c.01-.02 0-.05-.03-.06a.85.85 0 0 0-.68.04h-.03c-.03 0-.03-.02-.01-.04l.25-.25c.03-.02.05-.02.07 0 .04.05.07.06.08.04ZM10.55 5.98c.32.15.38.28.16.39l-.4-.16a.06.06 0 0 1-.03-.02.06.06 0 0 1-.01-.03v-.1c0-.03.01-.05.04-.07a.47.47 0 0 1 .24-.01Z" fill="#160504"/><path d="M7.76 6.36c-.11-.05-.22-.07-.32-.04l-.28.02c-.04 0-.05-.01-.03-.04l.03-.03c.22-.1.45-.12.68-.04.04.01.04.04.02.06a.22.22 0 0 1-.1.07Z" fill="#F0BE96"/><path d="M6.27 6.33c.13.17.15.37.07.58-.02.07-.06.11-.1.13-.03 0-.06 0-.07-.03L6 6.76A.13.13 0 0 1 6 6.67l.04-.46.21.37c.02.03.03.03.04 0a.5.5 0 0 0-.02-.25ZM10.45 6.36c-.15.11-.22.2-.22.25-.03-.02-.05-.02-.05 0l-.05-.1a.08.08 0 0 1 0-.08c.03-.05.04-.1.02-.17v-.02l.03-.02h.02c.03.07.12.12.25.14Z" fill="#9B6357"/><path d="M9.92 6.44c-.25-.08-.41.03-.56.2-.01.02-.02.02-.03 0v-.02c.15-.22.36-.3.62-.24v.04c0 .02 0 .02-.03.02Z" fill="#5F453E"/><path d="M10.65 6.7a.69.69 0 0 0-.42-.09c0-.06.07-.14.22-.25.16-.02.22.1.2.34Z" fill="#E5AC89"/><path d="M11.8 10.05c-.01-.05-.03-.09-.06-.11a.5.5 0 0 0 .18-.13c.4-.27.62-.62.65-1.06.04-.65-.26-1.16-.9-1.52-.1-.06-.3-.13-.62-.22a.1.1 0 0 0-.09.02c-.12.09-.33-.04-.47-.08a.7.7 0 0 1-.23-.15c.05 0 .1 0 .15.03.11.06.19.05.23-.04-.02.1.04.17.15.18a.04.04 0 0 0 .04-.01.04.04 0 0 0 0-.04.8.8 0 0 1-.05-.3c0-.07.03-.12.1-.15.03 0 .05 0 .05.04l.05.33c0 .02.01.04.03.05.06.05.16.09.3.12.77.17 1.33.7 1.42 1.46.08.67-.23 1.2-.94 1.58ZM9.88 6.9a.22.22 0 0 1-.02-.16.04.04 0 0 0 0-.04.04.04 0 0 0-.05-.01l-.46.12-.04.01.01-.05c.01-.02.03-.04.06-.05l.6-.13a.06.06 0 0 1 .04.01.05.05 0 0 1 .02.04c.02.15-.03.24-.16.25Z" fill="#160504"/><path d="M10.23 6.61c.16-.01.3.02.42.09a.25.25 0 0 0-.01.1c-.04.08-.12.1-.23.03.1-.12.05-.16-.16-.12 0 .04 0 .05-.05.02-.03-.01-.04-.06-.02-.12 0-.02.02-.02.05 0Z" fill="#34322A"/><path d="M9.88 6.9c0 .05-.02.08-.05.09h-.14l-.1-.05c-.14-.04-.22-.08-.24-.13l.46-.12a.04.04 0 0 1 .04 0 .04.04 0 0 1 .01.05c-.01.05 0 .1.02.15Z" fill="#FCF0D5"/><path d="M10.41 6.83a.28.28 0 0 0-.15-.03c.03 0 .02-.04 0-.09.2-.04.26 0 .15.12Z" fill="#C6C1A4"/><path d="M5.72 6.74a.01.01 0 0 1 0-.01.01.01 0 0 1 0-.01h.01a.1.1 0 0 1 .06-.01l.06.01.05.05c.02.01.03.03.04.06l.1.17c.02.04.02.1.02.14 0 .04-.03.07-.06.09h-.01a.01.01 0 0 1-.02 0l-.25-.5Z" fill="#A89C8B"/><path d="M7.43 6.81h-.37l-.09.01c-.1.03-.16.03-.2 0a.78.78 0 0 1 .7-.08.04.04 0 0 1 .01.04v.01c0 .02-.03.02-.05.02Z" fill="#F0BE96"/><path d="M9.35 6.81c.02.05.1.1.24.13-.12.08-.22.04-.28-.12h.04Z" fill="#76665B"/><path d="m6.76 7.13-.05.02a.14.14 0 0 1-.09.02.4.4 0 0 0-.22.04h-.03c-.02 0-.02-.01 0-.03a.64.64 0 0 0 .15-.23c.02-.04.04-.04.06 0l.01.03c0 .03.02.05.05.07.03.02.07.03.1.02.02 0 .02 0 .01.03v.03Z" fill="#160504"/><path d="m11.92 9.8.39-.51.1-.39c.1-.44-.02-.84-.38-1.22h-.02a.05.05 0 0 0-.04 0l-.01.02c-.03.05-.08.06-.16.02a.66.66 0 0 1-.22-.16.07.07 0 0 1-.02-.04c0-.01 0-.03.02-.04.02-.03.04-.05.06-.05.08 0 .09-.02 0-.06a1.8 1.8 0 0 0-.4-.14.4.4 0 0 1-.13-.12.13.13 0 0 0-.1-.04c-.04 0-.05.02-.05.05-.02.04-.06.06-.12.05-.28-.05-.4-.12-.35-.22.14.04.35.17.47.08a.1.1 0 0 1 .09-.02c.31.09.52.16.62.22.64.36.94.87.9 1.52-.03.44-.25.8-.65 1.06Z" fill="#FCF0D5"/><path d="M7.15 7.01c.42.1.42.37.54.67.01.03.03.05.06.06a.3.3 0 0 0 .17 0l.04-.03a.08.08 0 0 0 .01-.09.08.08 0 0 0-.02-.03.36.36 0 0 1-.1-.12c-.01-.03 0-.05.02-.07a.6.6 0 0 1 .2-.07l.03-.02c.03-.01.04 0 .05.02A3.62 3.62 0 0 0 9.6 9.1a.06.06 0 0 0 .04-.02l.01-.03c.01-.07.06-.1.15-.08a.1.1 0 0 0 .09-.02.2.2 0 0 0 .05-.06.02.02 0 0 1 .02-.01h.01l.02.03-.01.02c-.03.02-.03.04-.02.06.02.03.03.06.01.08a.57.57 0 0 1-.1.14c-.08.08-.07.1.04.1l.22-.01c-.25.32-1.02.03-1.29-.14A1.41 1.41 0 0 1 8.66 9a.12.12 0 0 1-.03-.07c-.01-.15-.06-.24-.15-.29a2.09 2.09 0 0 1-.63-.47.15.15 0 0 0-.08-.05c-.1-.02-.16 0-.2.08h-.02c-.22.02-.32-.04-.3-.18.1-.02.2-.06.27-.12.02-.02.02-.05.01-.07a.65.65 0 0 1-.07-.3c0-.03 0-.06-.02-.09-.15-.22-.35-.3-.6-.25-.06 0-.08-.02-.08-.06.14-.12.27-.15.4-.12Z" fill="#E5AC89"/><path d="M9.69 6.99H9.9c.05.03.04.05-.02.07l-.07.01a.04.04 0 0 0-.03.02.04.04 0 0 0 0 .03c0 .02.02.03.03.03.14.03.25.06.34.1.1.06.2.09.33.09.2 0 .38-.01.56-.04.03-.05.07-.04.12.03a.6.6 0 0 1-.2.15.87.87 0 0 1-.41.02c-.03 0-.03 0-.02.03l.3.4c.25.37.3.78.17 1.21a.96.96 0 0 1-.18.38l-.11-.08a.85.85 0 0 0 .13-.37c.07-.24.08-.44.04-.62-.17-.71-.64-1.16-1.4-1.33.02-.04.09-.09.2-.13Z" fill="#160504"/><path d="M9.47 7.12c.77.17 1.24.62 1.4 1.33.05.18.04.38-.03.62a1.33 1.33 0 0 1-.05-.43c0-.37-.18-.68-.53-.94-.03-.02-.05-.02-.08 0l-.02.04c0 .01 0 .03.02.04.01.02.03.03.05.03.03.01.06.02.07.04v.02c.01 0 0 0 0 0a.02.02 0 0 1-.01.02.9.9 0 0 1-.5-.25.12.12 0 0 1-.03-.08.12.12 0 0 1 .04-.09c.03-.02.05-.05.04-.08l-.06-.04a5.37 5.37 0 0 0-.56-.2v-.03c0-.02.01-.02.03-.02.08.03.15.04.22.02Z" fill="#FCF0D5"/><path d="M6.76 7.13c0 .04.02.06.08.06a2.12 2.12 0 0 1-.12.18s0 .02.02.03c.02.02.05.02.07 0 .18-.14.34-.1.49.08v.03c-.01 0-.02 0-.02.02-.08 0-.13.03-.16.07-.02.02-.02.04.01.04l.2.03.03.08a.13.13 0 0 1 0 .14.14.14 0 0 1-.13.05c-.17-.01-.25-.08-.26-.2h-.04a.02.02 0 0 0-.01 0c.03.2.15.28.33.28-.02.14.08.2.3.18-.36.12-.65.04-.86-.24a.17.17 0 0 1-.04-.09c0-.12-.09-.18-.24-.18-.1 0-.16-.05-.17-.13 0-.04.01-.06.04-.08a.36.36 0 0 1 .26-.03c.03 0 .04 0 .04-.03v-.05c0-.02-.01-.04-.04-.04a.28.28 0 0 1-.17-.07s.02-.01.03-.05a.4.4 0 0 1 .22-.04c.04 0 .07 0 .1-.02l.04-.02Z" fill="#BC7A6E"/><path d="m11.24 7.23-.08.1c-.05-.07-.1-.08-.12-.03.04-.08.03-.12-.02-.13.07 0 .1-.02.09-.06a.4.4 0 0 0 .13.12Z" fill="#9B6357"/><path d="M7.25 8.02c-.18 0-.3-.09-.33-.27a.01.01 0 0 1 0-.02h.04c.02.13.1.2.26.22a.15.15 0 0 0 .13-.06.13.13 0 0 0 .01-.14l-.03-.08c.04-.03.05-.07.02-.12-.01-.01-.03-.02-.07-.02 0-.01 0-.02.02-.02v-.03c-.15-.19-.3-.22-.49-.08-.02.02-.05.02-.07 0l-.02-.03a2.13 2.13 0 0 0 .11-.18c.26-.06.46.03.6.25.03.03.03.06.03.1 0 .1.03.2.07.29.01.02 0 .05-.01.07a.57.57 0 0 1-.27.12Z" fill="#5F453E"/><path d="M12.4 8.9c-.21.07-.36.07-.45 0a.1.1 0 0 0-.08-.03c-.04 0-.06.02-.06.05a.47.47 0 0 0-.06.23c0 .03 0 .07-.03.1a.17.17 0 0 1-.08.06c-.29.08-.5.03-.64-.17a1.4 1.4 0 0 0-.17-1.21l.12-.45a.6.6 0 0 0 .2-.15l.09-.1c.14.03.28.08.4.14.09.04.08.06 0 .06-.02 0-.04.02-.06.05-.01.01-.02.03-.01.04l.01.04c.05.07.13.12.22.16.08.04.13.03.16-.02l.01-.02a.04.04 0 0 1 .04 0h.02c.36.38.48.78.37 1.22Z" fill="#F0BE96"/><path d="M6.37 7.26c.04.04.1.07.17.07.03 0 .04.02.04.04v.05c0 .02-.01.03-.04.03a.36.36 0 0 0-.26.03.07.07 0 0 0-.04.08c0 .08.07.12.17.13.15 0 .23.06.24.18 0 .03.02.06.04.09.21.28.5.36.86.24h.06c.03.01.04.02 0 .04-.09.07-.2.1-.35.12-.04 0-.06.03-.06.07v.07c0 .04-.01.06-.03.09a.55.55 0 0 1-.46.23.1.1 0 0 0-.07.03.09.09 0 0 0-.02.06v.9c0 .04.02.06.07.05l.09-.03c.04 0 .06-.03.06-.07v-.03a.1.1 0 0 1 .05-.09l.22-.12a.17.17 0 0 1 .09-.02c.15 0 .28.07.37.2l-.01.01h-.03c-.1-.13-.22-.18-.37-.16a.36.36 0 0 0-.32.3c0 .03-.03.05-.06.06a.8.8 0 0 0-.36.22v.06c-.02 0-.03 0-.04-.02a.07.07 0 0 1 0-.07.42.42 0 0 1 .13-.12.08.08 0 0 0 .04-.07V8.87c0-.03-.02-.06-.05-.07a.28.28 0 0 1-.1-.07.04.04 0 0 1-.01-.04v-.01l.02-.01h.04c.03 0 .06 0 .08-.03l.01-.03a.06.06 0 0 0 0-.07c-.1-.1-.23-.1-.2-.25 0-.04.02-.04.05-.03.04.03.07.04.09.04a.11.11 0 0 0 .04-.05.13.13 0 0 0 .01-.08.2.2 0 0 0-.03-.08.23.23 0 0 0-.07-.06 1 1 0 0 0-.26-.1c-.1-.04-.18 0-.2.1a.1.1 0 0 0 0 .08c.03.04.03.08.01.12A6.35 6.35 0 0 0 5.74 8c-.06-.06-.08-.15-.06-.28a.3.3 0 0 0 .11-.05c.08-.06.17-.1.28-.1a.1.1 0 0 0 .07-.04l.23-.27Z" fill="#160504"/><path d="m10.95 7.48-.12.45-.3-.4c-.01-.02 0-.03.02-.03.14.03.27.02.4-.02Z" fill="#BC7A6E"/><path d="M7.28 7.53c.04 0 .06 0 .07.02.03.05.02.1-.02.12l-.2-.03c-.03 0-.03-.02-.01-.04.03-.04.08-.07.16-.07Z" fill="#34322A"/><path d="M5.8 7.67a.3.3 0 0 1-.12.05c-.04 0-.08 0-.1-.02l-.01-.01a.04.04 0 0 1 0-.04l.01-.01c.1-.06.16-.05.21.03Z" fill="#719179"/><path d="M6.1 7.75c.13-.02.26 0 .38.07.07.04.07.07-.02.08a.6.6 0 0 1-.37-.08c-.03-.01-.05-.01-.08.01l-.04.04c-.03.03-.07.04-.1 0-.03-.02-.04-.06-.04-.11 0-.04.03-.06.06-.06.04 0 .08 0 .12.04a.1.1 0 0 0 .08.01ZM5.5 8.07c.03.03.03.06 0 .08a.34.34 0 0 1-.24.12.07.07 0 0 1-.06-.04.07.07 0 0 1 0-.06.47.47 0 0 1 .09-.12c.07-.07.14-.06.22.02Z" fill="#9B6357"/><path d="M10.12 9.3c.06-.06.14-.1.24-.14l-.11.22c-.11.15-.08.18.08.08.16-.09.2-.22.09-.4-.01-.08 0-.16.05-.25.03-.04.05-.04.06.01l.07.3.04.08c.07.09.04.18-.1.29l-.02.02a.05.05 0 0 0 0 .04l.02.02h.06a.3.3 0 0 1-.08.1c-.73.6-1.5.62-2.29.07h-.01l-.02.01c-.02.01-.02.02 0 .04.8.73 1.98.6 2.62-.27.08-.1.14-.23.18-.38.14.2.35.25.64.17a.17.17 0 0 0 .08-.06.16.16 0 0 0 .03-.1c0-.07.02-.14.06-.23.07.03.1.1.08.2 0 .03 0 .05.02.07a.1.1 0 0 0 .06.04l.34.06-.4.52a.5.5 0 0 1-.17.13 1.4 1.4 0 0 1-1.27.03h-.03l-.02.03v.01l.39.2.02.28a.66.66 0 0 1-.34-.13.19.19 0 0 0-.09-.03c-.1-.02-.19 0-.24.03-.38.23-.86.28-1.44.14a5 5 0 0 0-1.11-.64c-.03 0-.05 0-.05.02-.01.03.03.06.13.09-.05 0-.07.02-.09.07a.07.07 0 0 1-.05-.03c-.01-.02-.03-.02-.06-.01a.06.06 0 0 0-.03.04.1.1 0 0 1-.05.07c-.17.11-.34.1-.49-.03-.07-.07-.13-.08-.17-.04-.05.04-.08.07-.08.1l-.22.08-.03-.03v-.06a.8.8 0 0 1 .36-.22c.03 0 .05-.03.06-.05a.36.36 0 0 1 .32-.3c.15-.03.27.02.36.15h.04c.01 0 .02 0 0-.02a.46.46 0 0 0-.36-.2l-.09.03-.22.12a.1.1 0 0 0-.05.1v.02c0 .04-.02.06-.06.07l-.1.03c-.04.01-.06 0-.06-.05v-.9a.08.08 0 0 1 .02-.06.09.09 0 0 1 .07-.03c.18 0 .34-.07.46-.23a.13.13 0 0 0 .03-.09v-.07c0-.04.02-.06.06-.07a.76.76 0 0 0 .36-.12c.03-.02.02-.03-.01-.03h-.04c.04-.08.1-.1.2-.09.03 0 .06.02.08.05.18.2.4.35.63.47.09.05.14.14.15.29 0 .02.01.05.03.07.09.1.15.15.17.16.27.17 1.04.46 1.3.14ZM5.98 8.36c.06.02.08.07.09.14 0 .17 0 .31-.06.44-.02.05-.06.07-.12.04-.02-.2 0-.4.05-.58 0-.02.02-.03.04-.04Z" fill="#BC7A6E"/><path d="m12.4 8.9-.1.39-.33-.06a.1.1 0 0 1-.06-.04.09.09 0 0 1-.02-.06c.02-.11 0-.18-.08-.2 0-.04.02-.06.06-.06a.1.1 0 0 1 .08.02c.09.08.24.08.45.01Z" fill="#E5AC89"/><path d="M10.42 9.07c.1.17.07.3-.09.4-.16.09-.2.06-.08-.1l.1-.2c.01-.04.03-.07.07-.1Z" fill="#9B6357"/><path d="m10.7 9.44.12.08c-.64.86-1.81 1-2.63.27v-.04l.03-.01h.01c.8.55 1.56.53 2.29-.08a.3.3 0 0 0 .08-.08.5.5 0 0 0 .1-.14Z" fill="#160504"/><path d="M7.43 9.85a.2.2 0 0 1-.07.15.22.22 0 0 1-.3 0 .2.2 0 0 1 0-.3.22.22 0 0 1 .3 0c.04.05.07.1.07.15Z" fill="#34322A"/><path d="m7.26 9.76.06.07c.01.03 0 .05-.02.07-.07.04-.12.05-.16.03-.04-.03-.05-.08-.03-.15.01-.04.03-.05.07-.05l.08.03Z" fill="#B98464"/><path d="m8.72 10.5.68.49c.33.2.69.36 1.07.46a2.12 2.12 0 0 0 .55.01.06.06 0 0 1 .03.04v.05l-.02.01-.01.01c-.46.02-.88-.09-1.28-.31-.52-.3-1.02-.63-1.5-1-.1-.08-.29-.18-.55-.3-.1-.02-.14-.05-.13-.08 0-.02.02-.03.05-.02a5 5 0 0 1 1.11.64Z" fill="#5F453E"/><path d="M11.74 9.94c.03.02.05.06.05.1a2.06 2.06 0 0 1-.98.16l-.39-.19V10l.02-.02h.03c.43.18.85.17 1.27-.04Z" fill="#160504"/><path d="M7.69 9.97c.26.11.45.21.55.29.48.37.98.7 1.5 1a2.35 2.35 0 0 0 1.3.3v-.04a.05.05 0 0 0 0-.05.06.06 0 0 0-.05-.01h-.52c-.38-.11-.74-.26-1.07-.47v-.07a5.29 5.29 0 0 0 1.43.23c.1-.03.13 0 .07.09-.01.02 0 .05.02.1.02.03.04.03.06 0 .01-.02.02-.03.04-.03.03-.02.05-.01.07.01.14.21.12.43-.07.65-.24.08-.5.07-.75-.03-.35-.14-.66-.3-.94-.5l-1.09-.76c-.08-.02-.14-.09-.2-.19.25-.04.18-.14-.22-.32a.27.27 0 0 1-.22-.13c.02-.05.04-.07.09-.07Z" fill="#FCF0D5"/><path d="M7.6 10.04c.05.07.12.12.22.13.04.16.12.26.22.32.06.1.12.17.2.2 0 .07.02.14.08.2.23.19.43.37.58.53.17.18.39.28.62.46.15.12.32.22.53.3.06.06.13.1.2.12-.01.06-.05.06-.12.03a8.25 8.25 0 0 1-2.03-1.54l-.48-.57c-.03-.03-.05-.03-.08-.02l-.21.08-.17.02a.28.28 0 0 1-.25-.11c-.1-.05-.16-.1-.16-.15.04-.04.1-.03.17.04.15.13.32.14.5.03a.1.1 0 0 0 .04-.07c0-.02.02-.03.03-.04.03-.01.05 0 .06.01l.05.03Z" fill="#645E50"/><path d="M6.75 10.04c0 .05.06.1.16.15l-.26.46a.4.4 0 0 0-.05.29l-.04.07a.52.52 0 0 0-.08.15c-.01.04-.03.04-.05 0-.1-.2.04-.48.16-.66v-.03h-.03l-.13.18h-.07a.1.1 0 0 1-.02-.06l.01-.05.32-.4c0-.03.03-.06.08-.1Z" fill="#A89C8B"/><path d="m6.67 10.13-.32.4a.07.07 0 0 0-.01.06c0 .02 0 .04.02.06h.07c-.07 0-.09.03-.07.08-.13-.18 0-.34.09-.5l.22-.1Z" fill="#5F453E"/><path d="M7.16 10.3c-.11 0-.17.03-.18.11 0 .06.04.1.02.16-.02.03 0 .06.02.09l.04.04c.03.02.05.02.07 0 .07-.08.16-.08.25 0-.16.17-.08.25.26.24-.13 0-.17.04-.14.1l-.27.01c-.03 0-.05.02-.06.05a1.1 1.1 0 0 0 .01.47h-.09c-.03-.02-.05-.02-.07.01a.1.1 0 0 0-.01.07.1.1 0 0 1-.03.09.17.17 0 0 1-.14.04c-.02 0-.02 0-.03.02v.03c.01.02.02.03.04.03H7c.05 0 .06.02.03.05a.15.15 0 0 0-.03.14.15.15 0 0 0-.1-.02c-.03 0-.04.03-.04.06v.59c0 .02 0 .05.02.06a.1.1 0 0 0 .07.03l.39.02h.73c.13.03.26.03.39-.01l.09.02c.04 0 .05.03.03.06-.01.03-.04.04-.08.05l-.45.03c-.33.01-.7-.03-1.06.02-.06 0-.1.03-.1.07-.02 0-.05.01-.07.05l-.11-1.81-.01-.03-.03-.01H6.6l-.03.01-.01.03v.78c0 .03-.01.05-.04.07-.04.03-.06.06-.06.1v.64c0 .08.04.14.06.22 0 .03 0 .05-.03.06-.04.02-.06.05-.07.09l-.04.08-.04.27c0 .04 0 .07-.03.1-.02.02-.06.03-.1.02l-.05-.02c.05-.04.07-.07.08-.1.05-.59.09-1.18.11-1.77.1-.04.12-.14.07-.3-.1-.3-.12-.55-.06-.78-.02-.05 0-.08.07-.08l.13-.17a.02.02 0 0 1 .01-.01h.01c.02.01.02.02.01.03-.12.18-.26.46-.16.67.02.03.03.03.05 0a.52.52 0 0 1 .08-.16l.4.08.04-.01.12-.09v-.02a1.61 1.61 0 0 0-.52-.03.4.4 0 0 1 .05-.29l.26-.46c.06.08.14.12.25.11Z" fill="#76665B"/><path d="m8.1 10.79-.05.03c-.03.01-.04.04-.02.06.35.66.83 1.2 1.43 1.64-.06 0-.14-.02-.21-.08-.06-.04-.1-.04-.14 0a3.37 3.37 0 0 1-.93-1.03c-.02-.03-.04-.03-.07-.01-.02.01-.03.04-.03.07l-.24-.43c-.1-.28-.23-.52-.4-.72-.02-.02-.04-.02-.08 0-.02-.01-.03-.02-.03-.04l.2-.08c.04-.01.06 0 .09.02l.48.57ZM8.04 10.5c-.1-.07-.18-.17-.22-.33.4.18.47.29.22.32Z" fill="#C5BB9E"/><path d="M10.95 10.21c.06.24.07.48.04.73 0 .03 0 .06.03.1.11.14.26.24.31.43l.05.28-.1.07a.11.11 0 0 0-.05.08.38.38 0 0 1-.14.23l-.14.14a.95.95 0 0 1-.82-.15c0-.02.03-.03.09-.02.28.06.66.26.8-.13.19-.22.21-.44.07-.65-.02-.02-.04-.03-.07-.01a.08.08 0 0 0-.04.03c-.01.03-.04.03-.06 0-.02-.05-.03-.08-.02-.1.06-.1.04-.12-.07-.1-.02.02-.07.02-.14.02a5.3 5.3 0 0 1-1.29-.26l.03-.03h.05a4.73 4.73 0 0 0 1.32.2.05.05 0 0 0 .01-.03l.02-.55-.02-.29c.04.02.09.03.14.02Z" fill="#645E50"/><path d="M7.33 10.28c0 .02.01.03.03.04.1.13.15.25.16.36-.07 0-.12 0-.14.02-.1-.08-.18-.08-.25 0-.02.02-.04.02-.07 0l-.04-.04a.08.08 0 0 1-.02-.09c.02-.07-.02-.1-.02-.16.01-.08.07-.12.18-.1l.17-.03Z" fill="#FCF0D5"/><path d="M7.84 11.04c.02.1-.07.1-.3 0 .02.02 0 .03-.04 0-.03-.06.01-.1.14-.1a.55.55 0 0 1-.12-.26.73.73 0 0 0-.16-.36c.04-.02.06-.02.08 0 .17.2.3.44.4.72Z" fill="#34322A"/><path d="m10.83 10.49-.02.55a.05.05 0 0 1-.01.03h-.02l-.02.01a4.73 4.73 0 0 1-1.33-.2.06.06 0 0 0-.03.02V11l-.68-.49c.58.14 1.06.09 1.44-.14.05-.04.14-.05.24-.03.04 0 .06.01.1.03.1.07.2.12.33.13Z" fill="#E5AC89"/><path d="M7.52 10.68c0 .08.04.16.12.26-.34 0-.42-.07-.26-.24.02-.02.07-.03.14-.02Z" fill="#C5BB9E"/><path d="M11.02 11.97c-.14.4-.52.2-.8.13-.06-.01-.09 0-.1.02-.04.02-.07.04-.07.07-.2-.1-.38-.2-.53-.3-.23-.19-.45-.3-.62-.47a7.4 7.4 0 0 0-.58-.54.23.23 0 0 1-.08-.2l1.1.76c.27.2.58.36.93.5.26.1.5.1.75.03Z" fill="#A89C8B"/><path d="M8.1 10.79c.06.11.15.2.27.27-.04.06-.04.11 0 .14.25.3.54.56.85.75.4.38.9.63 1.46.76-.02.01-.02.03 0 .07-.16.09-.51.07-.68.02-.2-.07-.38-.16-.54-.28a4.78 4.78 0 0 1-1.43-1.64c-.02-.02-.01-.05.02-.06l.05-.03Z" fill="#FCF0D5"/><path d="m8.08 11.47.2.35c.25.52.67.9 1.27 1.15l-.18.06c-.1-.1-.22-.12-.36-.07a.36.36 0 0 1-.23-.07.06.06 0 0 1 0-.04c0-.02.01-.04.04-.04a.2.2 0 0 0 .03 0h.02l.01-.03a.04.04 0 0 0 0-.04 1.76 1.76 0 0 0-.33-.3c-.17-.1-.22-.28-.36-.43a.15.15 0 0 1-.04-.07.1.1 0 0 0-.02-.05.1.1 0 0 0-.08-.04h-.22c-.04 0-.06.01-.05.05 0 .04.03.08.07.1-.07.03-.1.08-.08.17.06.3-.07.47-.38.5l-.27-.09a.18.18 0 0 1-.11-.1.17.17 0 0 1 0-.15c.05-.09.05-.18-.02-.28a.15.15 0 0 1 .03-.14c.03-.03.02-.05-.03-.05h-.14c-.02 0-.03-.01-.03-.03v-.03c0-.02 0-.02.02-.02.05 0 .1-.01.14-.04a.1.1 0 0 0 .03-.09l.01-.07c.02-.03.04-.03.07-.02.04.02.07.02.1 0 .12.05.24.06.35.03.04 0 .05-.02.06-.05.01-.15 0-.32-.05-.5.22.1.31.1.29 0l.24.43Z" fill="#5F453E"/><path d="M7.5 11.04c.05.03.06.02.05 0 .05.18.06.35.05.5 0 .03-.02.05-.06.05a.73.73 0 0 1-.36-.02 1.1 1.1 0 0 1 0-.47c0-.03.02-.05.05-.05h.27Z" fill="#F0BE96"/><path d="m10.25 12.3.59.16c-.06.1-.13.15-.23.12a4.84 4.84 0 0 1-2.25-1.38c-.03-.03-.03-.08 0-.14.54.5 1.13.92 1.77 1.27.07.03.11.03.12-.03ZM7.73 11.28c0-.07.02-.08.06-.02l.25.43a.06.06 0 0 1-.02.08h-.16a.08.08 0 0 1-.08-.04 1.2 1.2 0 0 1-.05-.45Z" fill="#A89C8B"/><path d="m9.1 12.44.7.4c-.02.08-.07.1-.16.07a3.8 3.8 0 0 1-1.36-1.09l-.2-.35c0-.03.01-.06.03-.07.03-.02.05-.02.07.01.25.4.54.76.93 1.03Z" fill="#FCF0D5"/><path d="M7.5 11.78c-.02-.05 0-.07.05-.07a.1.1 0 0 1 .07.02.1.1 0 0 1 .03.07V12c0 .04-.02.06-.06.06a.14.14 0 0 1-.11-.05c-.06-.08-.06-.13 0-.17a.06.06 0 0 0 .02-.07Z" fill="#C5BB9E"/><path d="M9.8 12.83a1.2 1.2 0 0 0 .58.13.02.02 0 0 1 0 .02v.03l-.01.01-.52.02-.3-.07a2.33 2.33 0 0 1-1.27-1.15c.4.5.86.86 1.36 1.09.1.04.14.01.15-.08ZM8.78 12.9c-.08-.03-.12-.08-.12-.16 0-.03 0-.05-.04-.06-.04-.03-.1-.03-.17 0a.7.7 0 0 1-.27-.3c0-.08-.05-.13-.13-.14a.08.08 0 0 1-.07-.05.25.25 0 0 1-.03-.1c0-.03-.01-.05-.04-.06L7.85 12c-.05-.03-.07-.07-.07-.1 0-.05.01-.06.05-.06h.22a.1.1 0 0 1 .08.04.1.1 0 0 1 .02.05c0 .03.02.05.04.07.14.15.19.33.36.43a1.76 1.76 0 0 1 .34.32v.02l-.02.02-.02.01h-.03c-.03 0-.05.02-.05.04v.04Z" fill="#A89C8B"/><path d="M10.84 12.46a.2.2 0 0 0 .11-.19l.14-.14c.05.17.02.3-.07.4a.79.79 0 0 1-.34.18 3.17 3.17 0 0 1-1.46-.76c.51.32.97.53 1.39.63.1.03.17-.01.23-.12Z" fill="#5F453E"/><path d="M7 12.05c.06.1.06.2.02.28a.17.17 0 0 0 .03.21l.07.04.27.09c0 .05-.02.1-.06.12l-.39-.02a.1.1 0 0 1-.07-.03.1.1 0 0 1-.02-.06v-.59c0-.03.01-.05.05-.06.03 0 .06 0 .1.02Z" fill="#A89C8B"/><path d="M10.13 12.12c.27.18.54.23.82.15a.2.2 0 0 1-.11.19l-.59-.16a.69.69 0 0 1-.2-.11c0-.03.03-.05.08-.07Z" fill="#FCF0D5"/><path d="m7.5 12.21-.13.03c-.04 0-.06.03-.06.06-.01.04 0 .06.04.07.1.01.19.04.3.07-.14.09-.3.1-.5.05-.04-.01-.05-.04-.04-.07.02-.05.03-.1.01-.15 0-.03.01-.06.05-.06a.86.86 0 0 1 .32 0Z" fill="#9B6357"/><path d="M7.64 12.44c-.1-.03-.2-.06-.29-.07-.03-.01-.05-.03-.04-.07 0-.03.02-.05.06-.06l.12-.03h.1c.04-.01.06 0 .07.03.02.05.02.12-.02.2Z" fill="#F0BE96"/><path d="M11.62 12.28c.07-.04.12-.05.14-.04.03.01.04.04.03.07-.02.06-.06.1-.13.12-.04.01-.08 0-.12-.03a.2.2 0 0 1-.06-.13c0-.06.02-.07.06-.03l.02.03c.02.01.04.02.06 0Z" fill="#76665B"/><path d="M8.18 12.39a.7.7 0 0 0 .27.28l.02.02c.01.01.02.03.01.04 0 .02-.02.04-.03.05a.65.65 0 0 1-.39 0v-.44c0-.03.02-.04.05-.02.03 0 .05.03.07.07Z" fill="#FCF0D5"/><path d="M9.46 12.52c.16.12.34.21.54.28.17.05.52.07.67-.02.04-.02.06 0 .06.04 0 .03 0 .06-.03.08-.17.14-.27.24-.53.24h-.31l.03-.06c0-.02-.02-.03-.04-.04l.52-.02h.01v-.04c.01 0 .01 0 0 0v-.02h-.01c-.2 0-.4-.04-.58-.13l-.68-.39c.03-.04.08-.04.14 0 .07.06.15.09.21.08Z" fill="#5F453E"/><path d="M8.78 12.9c.07.04.15.06.23.06l.08.02a.03.03 0 0 1 .01.04l-.01.02h-.02l-.41.02-1.83-.02.06-.01c0-.04.03-.07.09-.07.36-.05.73 0 1.06-.02l.45-.03c.04 0 .07-.02.08-.05.02-.03 0-.05-.03-.06l-.1-.02a.12.12 0 0 0 .04-.05l-.01-.04-.02-.02c.07-.02.13-.02.17 0 .03.02.05.04.04.07 0 .08.04.13.12.15Z" fill="#C5BB9E"/><path d="m9.55 12.97.3.07c.02 0 .04.02.04.04s0 .04-.03.06c-.08-.01-.1.04-.08.16-.03.04-.06.05-.09.04a.47.47 0 0 0-.27.02c-.03.01-.05.04-.05.07v.15a.1.1 0 0 1-.02.07.2.2 0 0 0-.06.11c0 .03.01.06.04.07.1.04.19.03.27-.02.1.02.2.03.3.02a.2.2 0 0 1 .09.01c.08.03.15.03.2-.01h.4c.08.05.2.07.35.06l.77.03a.43.43 0 0 1 .18 0v.03l-.02.02h-.02a183.93 183.93 0 0 1-6.08 0v-.05l.02-.02h.03l.72-.07c.06 0 .1.02.15.07.23.02.45.01.66-.02.03 0 .05-.02.07-.04l.09-.01h.2c.18-.01.34 0 .48.04a.2.2 0 0 0 .09 0 1.92 1.92 0 0 1 .9.02c.02 0 .04-.02.03-.06l-.02-.14c.12-.15.15-.34.07-.57-.03-.02 0-.05.1-.09l.19-.06Z" fill="#160504"/><path d="M6.89 13.03h-.06c.08.22.33.29.75.22l.02.32a.1.1 0 0 1-.03.08c-.07.06-.1.12-.06.18l-.1.01a.16.16 0 0 1-.02-.07l.01-.09c.07-.11.1-.23.08-.34 0-.04-.03-.04-.06-.02-.1.06-.2.1-.31.1a.32.32 0 0 0-.22.1.3.3 0 0 0-.09.21c0 .02-.03.05-.1.09-.02.01-.02.03-.02.05l.01.03c-.04-.05-.1-.07-.15-.07.05 0 .08-.02.1-.04l-.01-.09c-.02-.06 0-.11.06-.15a.06.06 0 0 0 .03-.06v-.02l-.03-.02-.3-.14.03-.08.32.18a.05.05 0 0 0 .05 0l.02-.02V13.08c.02-.04.05-.06.08-.05Z" fill="#5F453E"/><path d="m8.66 13.06-.01.05c0 .16-.2.21-.59.15-.07.03-.1.03-.1-.02l-.01-.06-.05-.03c-.25-.05-.36-.02-.32.1-.42.07-.67 0-.75-.21l1.83.02Z" fill="#160504"/><path d="M7.95 13.24a.07.07 0 0 0-.03.03c-.02.02-.01.03.01.03h.04c.02 0 .02 0 .02.03 0 .05-.01.08-.02.09-.06.04-.05.07.03.09.02 0 .03.01.04.03.02.03.02.05-.02.06a.97.97 0 0 0-.3.23H7.5c-.03-.06-.01-.12.06-.18a.1.1 0 0 0 .03-.08l-.02-.32c-.04-.12.07-.15.32-.1.02 0 .04.02.05.03v.06Z" fill="#BC7A6E"/><path d="M7.95 13.24c0 .05.04.05.11.02l-.01.14c0 .03 0 .05.03.07.05.04.11.07.19.08 0 .17.16.2.49.13l.33.07-.01.13a1.92 1.92 0 0 0-.8-.01.2.2 0 0 1-.1 0 1.5 1.5 0 0 0-.46-.04c.09-.1.19-.17.3-.23.04-.01.04-.03.02-.06A.06.06 0 0 0 8 13.5c-.08-.02-.1-.05-.03-.1 0 0 .02-.03.02-.08 0-.02 0-.03-.02-.03h-.04c-.02 0-.03-.01-.01-.03l.03-.03ZM9.78 13.3a.24.24 0 0 0 0 .16c0 .03.03.04.06.05.37.03.7.13 1.03.29.03.01.05.04.07.09a.73.73 0 0 1-.36-.06c-.03-.13-.16-.17-.39-.11a.06.06 0 0 0-.04.04v.05l.05.02a.25.25 0 0 1-.21.01.2.2 0 0 0-.1 0c-.1 0-.2 0-.29-.03 0-.07.06-.13.16-.17.03-.01.04-.03.03-.06 0-.03-.02-.04-.04-.05a.08.08 0 0 1-.06-.05.23.23 0 0 1 0-.14c.03.01.06 0 .1-.04Z" fill="#5F453E"/><path d="M9.69 13.34a.23.23 0 0 0 0 .14c0 .03.02.05.06.05.02.01.03.02.04.05.01.03 0 .05-.03.06-.1.04-.16.1-.16.17a.28.28 0 0 1-.27.02c-.03-.01-.04-.04-.04-.07a.2.2 0 0 1 .06-.1.1.1 0 0 0 .02-.08v-.15c0-.03.02-.06.05-.07.1-.03.18-.04.27-.02Z" fill="#9B6357"/><path d="m9.2 13.7.01.13c0 .04 0 .06-.04.06a.2.2 0 0 1-.09-.01l.01-.13c.03.03.07 0 .1-.06Z" fill="#A89C8B"/><path d="M10.58 13.83h-.38l-.04-.02a.06.06 0 0 1-.01-.05l.01-.03.03-.01c.23-.06.36-.02.4.11Z" fill="#B98464"/><path d="M5 13.87c.16-.1.34-.12.5-.07l.03.01a.03.03 0 0 1 0 .04l-.01.01a.64.64 0 0 1-.53.01Z" fill="#C6C1A4"/></svg>