<!-- by TradingView --><svg width="18" height="18" viewBox="0 0 18 18" xmlns="http://www.w3.org/2000/svg"><path fill="#FC520E" d="M0 0h18v18H0z"/><path d="M11.42 5.87c-.11-.02-.18-.09-.19-.2l-.02-.02h-.02l-.02.01.06.5c.09.75.15 1.46.18 2.14a4.84 4.84 0 0 0 .13.94l.1.57a15.22 15.22 0 0 0 .42 1.58c.3.86.46 1.33.62 2.07l.02.04c.03.05.04.11.02.2 0 .01-.04.05-.13.1a31.22 31.22 0 0 1-1.24-4.97c-.05-.34-.12-.9-.2-1.7a6.38 6.38 0 0 0-.23-1h-.01a54.97 54.97 0 0 1 .26 2.17 24.43 24.43 0 0 1 .23 1.7h-.03l-.28-1.5-.18-.81c-.1-.58-.23-1.13-.37-1.68a4.38 4.38 0 0 0-.44-1.15h-.01c-.02 0-.03 0-.02.02.2.44.34.87.42 1.29l.33 1.5c.05.2.04.36-.02.48a.92.92 0 0 0-.34-.26l-.09-.42c0-.02-.01-.03-.03-.03h-.05l.04-.07c.03-.03.03-.06.02-.07a1.7 1.7 0 0 0-.11-.3.61.61 0 0 1-.04-.15c0-.04-.02-.06-.06-.06.04-.01.05-.05.02-.11-.1-.32-.21-.63-.33-.94-.1-.26-.12-.48-.26-.71-.18-.3-.36-.53-.55-.72a.44.44 0 0 0-.12-.08c-.04-.02-.05-.01-.01.03a5.04 5.04 0 0 1 .76 1.06c.1.32.16.6.2.84v.49l.02.5-.03.42a.2.2 0 0 0-.03.06c0 .02 0 .03.02.04l.01.05c-.06.06-.08.1-.05.14-.12.2-.15.42-.23.75-.02.08-.05.16-.1.25-.02.04-.03.04-.03 0 0-.09.01-.16.03-.22.13-.52.24-.86.27-1.31a6.06 6.06 0 0 0-.09-1.5h-.01c0 .25.04.52.04.75a9.35 9.35 0 0 1-.14 1.3c-.08.28-.13.5-.22.74l-.46 1.21a2.9 2.9 0 0 1-.41.59c-.02 0-.02-.01-.01-.03.12-.27.22-.51.25-.77.02-.15.05-.29.1-.44v-.04l-.1-.05c.07 0 .1-.08.11-.23a.02.02 0 0 0-.03-.02.48.48 0 0 0-.18.11c0-.03-.01-.04-.05-.05l.22-.1a.13.13 0 0 0 .07-.11 4.19 4.19 0 0 0 0-.6c-.01.01-.02.03-.04.03l.02-.06c.01-.02.02-.02.04-.02h.06c.02 0 .03 0 .04-.02l.19-.67c0-.02 0-.03-.02-.03h-.05l-.03.01-.12.44c-.01.02-.02.03-.04.03l-.07.01a.04.04 0 0 0-.03.03c-.07.24-.1.28-.07.12l.08-.46c.05.02.08 0 .09-.06a2.44 2.44 0 0 0 .18-.25c.06-.08.14-.17.25-.25.06-.04.06-.06-.02-.03a.7.7 0 0 1-.28 0c-.01 0-.02 0-.02-.02l.06-.66v-.01l-.02-.01-.01.01-.08.34c-.02.1-.03.1-.05 0a7.13 7.13 0 0 0-.25-1.33.42.42 0 0 0-.09-.18c-.03-.03-.04-.03-.03.02l.02.15a.02.02 0 0 1-.02.03h-.03v-.01a2.78 2.78 0 0 0-.6-.86.54.54 0 0 0-.14-.1c-.04-.01-.03-.03 0-.03a.59.59 0 0 1 .5.12v-.04a1.17 1.17 0 0 0-.43-.19.01.01 0 0 1 0-.02c.24-.17.45-.11.73-.05.08.02.08.01 0-.03a1.09 1.09 0 0 0-.34-.1c-.07 0-.07-.02 0-.04a2.3 2.3 0 0 1 .73-.13v-.02l-.59-.1a.97.97 0 0 1 .3-.13c.32-.05.61-.03.88.07.33.12.63.26.89.44.12.09.24.2.35.34.35.44.57.94.66 1.5Z" fill="#1E2432"/><path d="m8.34 3.65.59.1v.02c-.26 0-.5.05-.74.13-.06.02-.06.04 0 .04.13.02.24.05.35.1.08.04.08.05 0 .03-.28-.06-.5-.12-.73.05a.01.01 0 0 0 0 .03c.16.03.3.1.43.18v.03h-.01a.59.59 0 0 0-.48-.11c-.04 0-.05.02 0 .03l.12.1a2.78 2.78 0 0 1 .62.86h.01a.02.02 0 0 0 .03-.02l-.02-.15c-.01-.05 0-.05.03-.02.03.03.06.1.09.18a7.13 7.13 0 0 1 .25 1.33c.02.1.03.1.05 0a2.96 2.96 0 0 1 .1-.35l.01.02-.06.66c0 .01 0 .02.02.02.11.02.2.02.28 0 .08-.03.08-.01.02.03-.11.08-.2.17-.25.25l-.16.2a.09.09 0 0 0-.02.05c-.01.06-.04.08-.1.06-.02-.02-.05 0-.09.05l-.03.03a.66.66 0 0 1-.49-.08v-.03h.02c.1.03.22.05.33.04.07 0 .07-.02 0-.04-.06-.02-.11-.09-.15-.2a.07.07 0 0 1 0-.06.07.07 0 0 1 .05-.03c.02 0 .03-.02.02-.05l.07.08c-.03-.01-.06 0-.06.02v.03a.2.2 0 0 1 .02.08c0 .02 0 .03.02.05.1.07.18.07.27-.03.07-.03.1-.11.08-.25 0-.01 0-.02-.02-.03A.88.88 0 0 0 8.36 7c-.1-.02-.2.02-.31.1a.3.3 0 0 0-.13.09H7.9v-.02A.3.3 0 0 1 8 7.02c.1-.08.21-.14.34-.17.01 0 .02-.01.02-.03a.2.2 0 0 0-.03-.11c-.06-.1-.08-.09-.08.02l.06.07v.03h-.07l-.05-.08-.05-.1a.04.04 0 0 0-.03-.02c-.05 0-.1.02-.16.05l-.03.05c-.04-.04-.1-.03-.18.02H7.6a1.2 1.2 0 0 0 0 .5c0 .04 0 .04-.03.03a1.2 1.2 0 0 1-.48-.5.01.01 0 0 0-.01 0l-.01.01v.01l.13.28v.02l.05.28c.01.06-.01.11-.08.13a.34.34 0 0 1-.31-.02c-.09-.05-.08-.19-.11-.26a.37.37 0 0 0-.07-.1c-.05-.05-.07-.04-.05.02.01.08.04.15.04.25.03.47.23.87.58 1.18l.57.6c.04.02.08.02.13 0a5.54 5.54 0 0 0 .58-.28c.04 0 .05.02.05.05l.1.14.1.05v.04c-.05.15-.08.3-.1.44-.03.26-.13.5-.25.77v.03h.03c.2-.25.32-.44.39-.59l.46-1.2c.09-.26.14-.47.22-.75l.06-.3c.05-.38.08-.71.08-1 0-.23-.04-.5-.05-.74h.03c.09.49.12.98.08 1.49-.03.45-.14.79-.27 1.3-.02.07-.02.14-.03.23 0 .04 0 .04.03 0 .05-.09.08-.17.1-.25.08-.33.12-.55.23-.75.12 0 .2-.04.23-.14l.03-.03c.1-.05.18-.19.24-.25h.05c.02 0 .03 0 .03.03l.09.42c-.31-.07-.55.03-.7.3-.15.3-.1.54.17.73.11.07.24.11.37.12.05.19.12.37.2.54l.24.53a5.38 5.38 0 0 0 .65 1.06l.02-.01.01-.02a6.42 6.42 0 0 1-.8-1.98.79.79 0 0 1 0-.23l.06-.04a44.22 44.22 0 0 0 .81 2.38l.14.22a.1.1 0 0 0 .05.03h.02a.03.03 0 0 0 .01-.03 15.3 15.3 0 0 1-.23-1c-.04-.2-.16-.42-.22-.63l-.29-1.1a.32.32 0 0 0-.11-.17c.02-.19 0-.33-.06-.44.06-.12.07-.28.02-.48l-.33-1.5a6.56 6.56 0 0 0-.4-1.31h.01c.06.1.1.2.17.3.07.14.16.42.27.85.14.55.26 1.1.37 1.68.04.22.13.54.18.82a504.23 504.23 0 0 0 .28 1.5h.02a.02.02 0 0 0 .02-.02c-.08-.72-.14-1.13-.24-1.69a54.96 54.96 0 0 0-.26-2.17h.03c.12.43.19.77.21 1a25 25 0 0 0 .8 4.55c.2.75.41 1.46.64 2.12l-.26.18-.18-.67v-.01h-.02a.02.02 0 0 0-.02 0v.01a3.25 3.25 0 0 1-.02.8v.03l-.06.04H12v-.04c0-.7-.08-1.39-.22-2.07-.03-.14-.06-.4-.22-.48a.01.01 0 0 0-.01 0v.01a8.9 8.9 0 0 1 .29 2.7l-.2.1c-.24.12-.58.25-1.02.38l.07-.57v-.02l-.01-.01-.02-.01c-.02 0-.04 0-.05.02l-.36.64-.02-.01c.02-.06.03-.12.06-.17l.4-.73a7.13 7.13 0 0 0 .67-1.55c.05-.18-.05-.28-.07-.45-.02-.22-.03-.43-.11-.6-.16-.3-.33-.65-.48-.74a9.29 9.29 0 0 1-.33-.22c-.28-.34-.58-.52-.92-.53l-.27.06c-.17.03-.22.07-.3.2l-.28.39a.57.57 0 0 0-.1.24c-.05.3-.08.49-.08.57 0 .15.04.43.1.86.02.14.03.27.02.4l-.11 1.53c-.03.29-.03.58-.03.88a5.7 5.7 0 0 1-1.59-.39l.02-.25c0-.02 0-.03-.02-.04-.41-.4-.57-.9-.47-1.46l.2.13c.07.12.18.25.32.39.28.26.59.34.94.23a.82.82 0 0 0 .54-.52 1.18 1.18 0 0 0 .03-.76 5.68 5.68 0 0 1-.15-.76.1.1 0 0 0-.14-.03c-.29.24-.14.75.03 1h-.05c-.18-.24-.26-.51-.24-.81v-.03l-.03-.02a.6.6 0 0 0-.36.07 2.19 2.19 0 0 0-.62.44.1.1 0 0 0-.03.03.96.96 0 0 1-.28.29l.3-.4a.05.05 0 0 0 0-.04l-.03-.4c.02-.15-.01-.16-.07-.02-.16.34-.29.73-.39 1.15-.02.11 0 .2-.02.29a8.18 8.18 0 0 0-.07 1.23.77.77 0 0 1-.25-.14 7.83 7.83 0 0 1 .1-1.77c.05.03.1.03.13.02a.03.03 0 0 0 .02-.03l.32-1.73c.02-.1.04-.1.08 0l.1.29a.03.03 0 0 0 .01.01h.02a.03.03 0 0 0 .03 0 .03.03 0 0 0 0-.03c-.08-.23-.16-.5-.24-.8a1.63 1.63 0 0 1-.04-.43c.01-.58-.04-1-.11-1.74-.02-.18-.12-.36-.13-.54-.03-.45.02-.91.06-1.36L6.32 6h.02l.01.02c-.04.28 0 .55.1.8a.05.05 0 0 0 .1 0 .4.4 0 0 0 0-.28c0-.02 0-.03.02-.05a.27.27 0 0 1 .1-.07v.08l.04.02s.02 0 .03-.02l.23.12a.04.04 0 0 0 .04 0 .04.04 0 0 0 .02-.04V6.4h.01c.06.22.14.48.26.54.04.02.06 0 .06-.05v-.03c-.16-.3-.23-.64-.22-1h.04a2.49 2.49 0 0 0 .23.96.01.01 0 0 0 .01 0 2 2 0 0 0 .18-.51c0-.02 0-.03.02-.04.03 0 .03 0 .02.02a.1.1 0 0 0-.02.07c0 .02.01.02.03 0a.21.21 0 0 0 .06-.13l.05-.6c.01-.12.03-.12.05 0 .01.05.02.17 0 .25V6c.03.1.06.1.07 0l-.01-.17.01-.02h.02l.01.01.1.3s0 .02-.02.02l-.07-.04.03.47c0 .01.01.02.03.02.04 0 .08-.02.12-.04a.24.24 0 0 1 .1-.04.03.03 0 0 0 .04-.02v-.04l.01-.05a.7.7 0 0 0 .04-.46v-.01h.04c.05.08.09.19.16.28.04.06.08.13.1.22.04.1.08.1.11 0 .07-.18-.17-.83-.26-1.07a2.6 2.6 0 0 0-.64-.95c-.08-.08-.16-.1-.23-.06a1.79 1.79 0 0 0-.37.24h-.03c-.02 0-.02 0 0-.02l.26-.27V4.3a.3.3 0 0 0-.18.06h-.01l-.04-.02v-.02c.16-.08.36-.13.48-.27a.87.87 0 0 0 .14-.24l.52-.15Z" fill="#030413"/><path d="M7.82 3.8a.87.87 0 0 1-.14.24c-.12.14-.32.2-.48.27v.02l.04.02h.01a.3.3 0 0 1 .17-.06c.02 0 .02 0 0 .01l-.26.27v.02h.04a.02.02 0 0 0 .02 0c.11-.1.23-.18.35-.24.07-.03.15-.02.23.06.28.26.5.58.64.95.09.24.33.9.26 1.07-.03.1-.07.1-.1 0a.77.77 0 0 0-.11-.22l-.16-.27-.02-.02H8.3v.02a.7.7 0 0 1-.05.46l-.01.05v.04a.03.03 0 0 1-.03.02.24.24 0 0 0-.11.04l-.18-.45.07.04c.02 0 .02-.01.02-.03l-.1-.29h-.04V6c0 .1-.03.1-.07.01l.01-.12c.02-.08.01-.2 0-.25-.02-.12-.04-.12-.05 0l-.05.6c0 .05-.03.1-.06.13-.02.02-.02.02-.03 0 0-.03 0-.05.02-.07.01-.02 0-.03-.02-.02l-.02.04a2 2 0 0 1-.19.51.01.01 0 0 1-.01 0 2.49 2.49 0 0 1-.23-.96h-.03a2.04 2.04 0 0 0 .22 1.03c0 .06-.02.07-.06.05-.12-.06-.2-.32-.26-.54h-.01v.2a.04.04 0 0 1-.02.02.04.04 0 0 1-.04 0l-.23-.1-.03-.15c0-.07-.02-.07-.04 0v.06a.27.27 0 0 0-.1.07.04.04 0 0 0-.01.05.4.4 0 0 1 0 .28.05.05 0 0 1-.1 0 1.45 1.45 0 0 1-.1-.8l-.02-.02h-.02l-.01.02c-.04.45-.1.9-.06 1.36.01.18.11.36.13.54.07.73.12 1.16.1 1.74 0 .17.02.31.05.44a7.54 7.54 0 0 0 .24.82.03.03 0 0 1-.03 0h-.02a.03.03 0 0 1-.02-.01l-.1-.29c-.03-.1-.05-.1-.07 0l-.33 1.73a.03.03 0 0 1-.01.03c-.04.01-.08 0-.13-.02v-.03c.04.01.06 0 .06-.03a10.44 10.44 0 0 1 .38-1.8c.04-.11-.02-.29-.06-.4a1.36 1.36 0 0 1-.05-.22.09.09 0 0 0-.02-.04.05.05 0 0 0-.04-.02h-.02l-.01.02a20.42 20.42 0 0 1-.4 1.26 14 14 0 0 0-.43 1.34c-.23.14-.42.3-.6.5a.4.4 0 0 1-.1.08.07.07 0 0 1-.06 0 .07.07 0 0 1-.04-.04.56.56 0 0 1-.02-.26c.06-.3.1-.47.22-.71.2-.4.46-.93.77-1.6.13-.26.33-.47.6-.61a.11.11 0 0 0 .06-.12l-.09-.54a.04.04 0 0 0-.05-.03c-.2.13-.29.32-.42.51-.04.07-.07.07-.08-.02 0-.01-.02-.02-.05-.02a13.68 13.68 0 0 0-1.28 1.05c-.1.1-.16.25-.17.43 0 .01 0 .02-.02.02h-.02a.03.03 0 0 1-.02 0 .03.03 0 0 1 0-.03 3.05 3.05 0 0 1 .95-2l.6-.6c.1-.08.26-.2.47-.33l.01-.03.03-.58c0-.01 0-.03-.02-.04-.16-.24-.23-.5-.21-.78l-.01-.03H5.9a3.39 3.39 0 0 0-.13.96h-.02c-.06-.31-.07-.63-.01-.95a4.74 4.74 0 0 1 1-2.22 2.8 2.8 0 0 1 1.08-.66Z" fill="#1E2432"/><path d="M10.14 6.8h-.03l-.02.01c-.04 0-.06.02-.07.04l-.15.3a5.91 5.91 0 0 1-.01-.5 3.74 3.74 0 0 0-.2-1.33.7.7 0 0 0-.13-.25 5.04 5.04 0 0 0-.65-.82c-.03-.03-.02-.04.02-.02.04.01.09.05.12.08.2.19.37.43.55.72.14.23.15.45.26.71.12.31.23.62.33.94.03.06.02.1-.02.11ZM6.69 6.3h-.04c-.01 0-.02 0-.02-.02l.08-.7a.04.04 0 0 1 .02-.02l.05-.03a.01.01 0 0 1 .02 0v.01a1.62 1.62 0 0 0-.05.75.02.02 0 0 1-.03.02H6.7ZM11.42 5.87c.05.35.1.7.13 1.06.02.27.12.65.3 1.14.1.29.15.83.31 1.22l.18.4c-.01.1.02.2.09.35.46.92.92 1.76 1.39 2.54l-.15.18-.18-.38c-.38-.62-.63-1.06-.78-1.32-.04-.08-.1-.2-.16-.38a.89.89 0 0 0-.11-.2c-.15-.2-.3-.33-.25-.62v-.04L11.59 8v-.01h-.02c.05.78.17 1.55.36 2.3.12.48.32 1 .5 1.54.12.32.28.9.48 1.72a.7.7 0 0 1-.2.15c.03-.09.02-.15 0-.2a.1.1 0 0 1-.03-.04c-.16-.74-.32-1.21-.62-2.07a10.52 10.52 0 0 1-.43-1.58l-.1-.57-.07-.47a4.84 4.84 0 0 1-.05-.47 29.46 29.46 0 0 0-.24-2.64c0-.01 0-.02.02-.01h.02l.02.01v.02c.01.1.08.17.2.2Z" fill="#030413"/><path d="m7.92 6.1.17.45a.34.34 0 0 1-.11.04c-.02 0-.03 0-.03-.02l-.03-.47ZM8.5 6.36l.04.09-.01.03h-.06c-.02.01-.03 0-.04-.02l-.03-.22c0-.02 0-.03.01-.01.04.04.06.08.09.13ZM7.86 6.58c0 .03 0 .05-.02.06l-.05.02a.02.02 0 0 1-.03-.01v-.02l.02-.3c0-.02.01-.02.02-.02l.01.02.05.25ZM6.74 6.51a.06.06 0 0 1-.03.02c-.02 0-.03 0-.03-.03l-.01-.07v-.06c.02-.07.03-.07.04 0l.03.14ZM8.62 6.63l.16.24c.01.02 0 .03-.02.02a.54.54 0 0 0-.18-.09h-.04l-.08.04c-.02.01-.03 0-.03-.02l.02-.24c0-.03.02-.04.05-.05.06 0 .1.02.1.06 0 .02 0 .03.02.04ZM6.9 6.8a.01.01 0 0 1-.01.01h-.21c-.02 0-.03 0-.03-.03l.02-.16c0-.02 0-.03.03-.03h.04a.05.05 0 0 1 .05.02l.1.19Z" fill="#DA7B80"/><path d="M8.2 6.75c0 .04-.05.07-.15.09-.03 0-.04-.01-.04-.04s0-.07-.05-.12c.06-.03.1-.05.16-.05l.03.03.05.09Z" fill="#FED1CB"/><path d="M8 7.02c-.01-.04-.05-.05-.1-.05h-.03v-.04a.29.29 0 0 0 .08-.06c.01-.01.02-.03 0-.04-.02-.04-.03-.07-.02-.1l.03-.05c.04.05.06.09.05.12 0 .03 0 .04.04.04.1-.02.15-.05.15-.1l.05.08.02.02h.02l.02-.01c.02-.01.02-.02.01-.03l-.06-.07c0-.1.02-.11.08-.02a.2.2 0 0 1 .03.1c0 .03 0 .04-.02.04a.97.97 0 0 0-.34.17Z" fill="#DA7B80"/><path d="M7.93 6.73c0 .03 0 .06.03.1v.04a.29.29 0 0 1-.08.06c-.01 0-.02.01-.01.02v.02h.02c.06 0 .1.01.12.05a.3.3 0 0 0-.12.15v.02h.03a.3.3 0 0 1 .13-.09l.02.04v.04l.03.02.03.01h.03l.22-.1c.02 0 .03 0 .05.02 0 .03 0 .05-.02.05a.07.07 0 0 0-.05.03.07.07 0 0 0 0 .06c.04.11.09.18.16.2.06.02.06.04-.01.04-.11.01-.22 0-.33-.05h-.01l-.01.01v.03c.15.09.31.11.49.08l.03-.03c.04-.05.07-.07.1-.05l-.08.46-.07.34c0-.02-.01-.02-.01 0a.2.2 0 0 1-.02.06l-.11.3v.03h.05l.09-.18a.02.02 0 0 1 .02 0h.02v.03c-.02.15-.1.25-.2.37v.01h.02c-.18.1-.36.18-.54.25-.05.03-.1.03-.13 0a1.98 1.98 0 0 0-.57-.59 1.65 1.65 0 0 1-.58-1.18c0-.1-.03-.17-.04-.25-.02-.06 0-.07.05-.02l.07.1c.03.07.02.2.1.26.1.06.21.07.32.02.07-.02.1-.07.08-.13l-.04-.28-.01-.02-.14-.28.02-.02h.01c.1.2.27.36.48.5.02.01.03 0 .03-.02a1.2 1.2 0 0 1 0-.5c.01.09.03.16.06.22 0 .03.02.04.04.03.02 0 .03 0 .03-.02l.02-.24c.07-.05.14-.06.18-.02Z" fill="#FED1CB"/><path d="m7.75 6.75-.02.24c0 .01-.01.02-.03.02-.02 0-.03 0-.04-.03a1.05 1.05 0 0 1-.06-.23h.15Z" fill="#1E2432"/><path d="M10.14 6.8c.04 0 .06.01.06.05.01.08.03.13.04.15.04.1.08.2.1.3-.03-.02-.05-.05-.05-.1 0-.01 0-.02-.02-.03l-.15-.13a.03.03 0 0 0-.05.02v.02l.04.1v.03l-.03.01a.02.02 0 0 1-.01 0V7.2l-.04-.02-.03.02v.04c.07.05.1.11.08.18l-.01.02h-.02a.34.34 0 0 0-.2.13l.02-.42.15-.3c.01-.02.03-.03.07-.04l-.06.11.01.03h.02l.09-.08a.04.04 0 0 0 0-.04c0-.02-.01-.03-.04-.03h.03Z" fill="#696868"/><path d="M6.9 7.09c.05 0 .07.02.08.04 0 .02 0 .03-.02.04h-.01c-.02.01-.03.02-.02.04.03.1.07.18.13.23.04.03.03.05-.02.04-.12 0-.18-.08-.22-.2A1.2 1.2 0 0 0 6.68 7c0-.01 0-.03.02-.03a.29.29 0 0 1 .19 0v.01L6.9 7l-.01.08.01.02Z" fill="#D9D9D9"/><path d="M8.36 7c-.03.04-.02.07.02.1l-.22.1a.07.07 0 0 1-.06 0 .06.06 0 0 1-.03-.02v-.04l-.02-.04c.1-.08.2-.12.31-.1Z" fill="#DA7B80"/><path d="M8.75 7.36c.02-.05-.04-.06-.17-.03-.01 0-.02 0-.03-.02l-.05-.1-.07-.08a.14.14 0 0 0-.05-.02c-.04-.04-.05-.07-.02-.1.16-.02.3 0 .45.07l.02.03c.01.14-.01.22-.08.25Z" fill="#1E2432"/><path d="m8.5 7.21.05.1c0 .02.02.02.03.02.13-.03.2-.02.17.03-.09.1-.18.1-.27.02a.05.05 0 0 1-.02-.04.2.2 0 0 0-.02-.08v-.03c0-.02.03-.03.06-.02ZM7.03 7.29l-.01-.01v-.01L7 7.26v-.01c.01-.02.02-.02.04-.02h.02l.01.02c.02.05.05.07.11.08a.04.04 0 0 1 .03.02c.01.04 0 .07-.07.08a.04.04 0 0 1-.04-.02l-.06-.1c0-.02 0-.02-.02-.02Z" fill="#D9D9D9"/><path d="M10.04 7.34a.02.02 0 0 1 0 .03v.01a.25.25 0 0 1-.05.04.18.18 0 0 1-.04.02H9.9v-.01c-.02-.01-.02-.03-.01-.06 0-.03.02-.06.05-.09a.02.02 0 0 1 .03 0l.08.06Z" fill="#DA7B80"/><path d="m10.33 7.37-.04.07c-.06.06-.15.2-.24.25a.05.05 0 0 0-.03.03c-.03.1-.1.14-.23.14-.03-.03-.01-.08.05-.14a.21.21 0 0 1 .13-.02s.02 0 .02-.02v-.04c.05-.05.1-.1.17-.13a.56.56 0 0 0 .13-.2h.03c.01.01.02.03.01.06Z" fill="#FED1CB"/><path d="M8.78 8.12c-.03.13-.08.25-.16.35 0 .02-.01.02-.02 0a.19.19 0 0 1 0-.11.2.2 0 0 0 .02-.07l.08-.33c-.02.16 0 .12.07-.12l.03-.03h.07l.04-.04.12-.44.03-.02h.05c.02.01.03.02.02.04l-.2.67c0 .02-.01.03-.03.02h-.06c-.02 0-.03 0-.04.02l-.02.06Z" fill="#030413"/><path d="M14.8 10.46c0 .1-.02.2-.07.33a7.46 7.46 0 0 0-1.3-1.2l-.02.02v.01l-.02.05c0 .07-.03.07-.07.02-.13-.2-.22-.38-.39-.53-.12-.11-.32-.26-.45-.4a6.8 6.8 0 0 1-.53-.73c-.1-.16-.15-.3-.23-.48-.03-.06-.01-.07.04-.04.45.2.86.43 1.26.68.37.23.62.52.98.9a3.44 3.44 0 0 1 .8 1.37Z" fill="#1E2432"/><path d="m7.1 7.91.17.16v.02c0 .01 0 .02-.02.02h-.02a.92.92 0 0 1-.15-.14c-.04-.05-.05-.1-.03-.13a.98.98 0 0 1 .22-.26h.03l-.2.27v.06Z" fill="#696868"/><path d="M10.46 7.9c.11.04.22.12.34.25.06.1.08.25.06.44a.78.78 0 0 1-.18.3l-.07.04c-.09.06-.2.1-.31.11a.76.76 0 0 1-.37-.12.76.76 0 0 1-.18-.74c.16-.26.4-.36.71-.29Z" fill="#FED1CB"/><path d="M10.37 8.12c-.03 0-.03.02 0 .03.03.02.05 0 .06-.03 0-.02.02-.03.04-.03.01 0 .02 0 .03.02.01 0 .02.02.01.04v.08c.1.08.18.17.04.27a.03.03 0 0 0 0 .04l.02.04.02.04c-.02.16-.16.16-.28.17a.05.05 0 0 0-.04.03l-.01.02c0 .02-.01.03-.03.03l-.06-.01c-.02-.01-.02-.02 0-.04l.02-.02v-.05h-.03c-.02 0-.03 0-.03.02l-.01.03c0 .02-.02.03-.03.03l-.03-.01a.03.03 0 0 1-.01-.04l.01-.06c0-.03 0-.04-.02-.05l-.08-.02-.02-.01v-.03l.01-.02.1-.03.02-.04.12-.28c0-.03 0-.04-.03-.05h-.03a.03.03 0 0 1-.03-.04l.01-.03h.15c.02 0 .03-.01.03-.03v-.01c.01-.02.03-.03.05-.03.03 0 .05 0 .06.03l-.01.03h-.02ZM8.53 8.9a.07.07 0 0 1-.04.02h-.02v-.01c.1-.12.18-.22.2-.37v-.03h-.02a.02.02 0 0 0-.01 0 .02.02 0 0 0-.01 0l-.1.18H8.5l-.01-.02.11-.31a.19.19 0 0 0 0 .1c0 .03.01.03.02.01.08-.1.13-.22.16-.35.02 0 .03-.02.03-.03l.02-.01v.01a4.2 4.2 0 0 1-.04.66.13.13 0 0 1-.04.04l-.22.11Z" fill="#DA7B80"/><path d="m13.69 9.19-1.35-1.07h-.03v.04l1.35 1.07h.03v-.04Z" fill="#FC520E"/><path d="M9.75 8.18a.76.76 0 0 0 .18.74c-.27-.19-.32-.44-.18-.74Z" fill="#696868"/><path d="M10.29 8.4h-.01a.02.02 0 0 1-.01-.02v-.01a.1.1 0 0 1 .04-.07l.03-.01h.04a.08.08 0 0 1 .07.04l.01.03a.1.1 0 0 1 0 .04v.02h-.02l-.15-.02Z" fill="#FED1CB"/><path d="M7.6 8.56c.09.03.16.04.17.02l-.14-.09c-.09-.03-.16-.04-.17-.02 0 .01.06.06.14.09Z" fill="#DA7B80"/><path d="M10.29 8.66c.06.02.11 0 .13-.04.01-.04-.03-.1-.09-.1-.06-.03-.12 0-.13.04-.01.04.03.09.09.1Z" fill="#FED1CB"/><path d="m7.82 9.17-.57-.59c.23.16.42.35.57.6Z" fill="#696868"/><path d="M10.86 8.59c.05.04.1.1.11.17l.3 1.1c.05.21.17.43.2.63a15.28 15.28 0 0 0 .23 1.03.03.03 0 0 1-.02 0 .1.1 0 0 1-.05-.03 1.32 1.32 0 0 1-.14-.22l-.04-.15a44.26 44.26 0 0 1-.77-2.23.78.78 0 0 0 .18-.3Z" fill="#1E2432"/><path d="m8.68 9.09-.1-.14c.05-.06.12-.1.18-.11a.02.02 0 0 1 .03.02c0 .15-.04.23-.11.23Z" fill="#DA7B80"/><path d="M9.66 9c-.03 0-.06 0-.07.03-.12.27-.23.48-.33.63-.05.07-.05.11-.02.13-.02.02-.04.02-.06.02-.02-.01-.02-.02-.01-.04l.4-.82c.02-.03.04-.04.07-.02.02.01.02.04.02.08Z" fill="#696868"/><path d="M10.61 8.93v.23a6.42 6.42 0 0 0 .8 2h-.04a5.39 5.39 0 0 1-.63-1.05l-.24-.53a4.41 4.41 0 0 1-.2-.54.69.69 0 0 0 .31-.1Z" fill="#1E2432"/><path d="M9.66 9c.04.24.13.44.27.58.05.06.04.07-.03.05-.26-.09-.43.04-.66.16-.03-.02-.03-.06.02-.13.1-.15.21-.36.33-.63.01-.03.04-.04.07-.02Z" fill="#DA7B80"/><path d="m14.2 12-.38.58c-.46-.78-.93-1.62-1.4-2.54-.06-.14-.1-.26-.08-.35.21.01.39.05.53.13.3.14.45.37.6.69.25.48.5.98.73 1.49Z" fill="#1E2432"/><path d="m6.07 12.34-.04.01-.02.03a5.91 5.91 0 0 0-.4 1.54l-.38-.29a.28.28 0 0 0 .05-.08c.07.05.11.04.13-.01.08-.3.2-.73.32-1.27.12-.48.53-1.38.7-2.1a.03.03 0 0 0-.02-.04h-.04a.04.04 0 0 0-.02.03c-.14.43-.3.88-.5 1.34-.15.37-.24.8-.36 1.13l-.03.03c-.01 0-.02 0-.03-.02v-.02l.04-.17a14 14 0 0 1 .64-1.91 20.41 20.41 0 0 0 .2-.7l.02-.01c.02 0 .03 0 .04.02l.02.04c.02.1.03.17.05.21.04.12.1.3.06.4l-.03.1c-.12.36-.24.93-.35 1.7 0 .04-.02.05-.05.04Z" fill="#030413"/><path d="m7.66 9.86.01-.01h.02v.03c-.17.69-.35 1.3-.54 1.82a.47.47 0 0 1-.25.27.02.02 0 0 1-.02 0 .02.02 0 0 1-.01-.03l.07-.75a47 47 0 0 0 .19-.4c.08-.17.21-.32.3-.46.09-.13.17-.33.23-.47Z" fill="#FC520E"/><path d="M10.36 10.36c.08.08.15.18.21.29l.02.02.03.03c.14.22.24.4.31.54.11.2.13.5.16.69.03.23.03.47-.02.7l-.14.4c-.02-.25.04-.52.01-.75-.06-.52-.05-.78-.22-1.13-.07-.15-.26-.28-.34-.39-.16-.2-.25-.48-.44-.64a4.17 4.17 0 0 0-.5-.3c.34.02.64.2.92.54Z" fill="#DA7B80"/><path d="M9.44 9.83c.27.14.43.24.5.3.2.15.29.42.44.63.08.1.27.24.34.4.17.34.16.6.22 1.12.03.23-.03.5-.01.75-.07.13-.15.35-.3.4a.26.26 0 0 0-.19-.02.07.07 0 0 1-.05 0 .07.07 0 0 1-.03-.05 3.2 3.2 0 0 1-.06-.61c0-.18.01-.3.04-.37a24.69 24.69 0 0 0 .27-.72.35.35 0 0 0-.27-.02 1.8 1.8 0 0 0-.26.92c-.01.4-.05.75-.1 1.06a18.37 18.37 0 0 1-.35 1.32 4.9 4.9 0 0 1-1.24.02c0-.3 0-.6.03-.88l.1-1.52c.02-.14.01-.27 0-.41-.07-.43-.1-.71-.1-.86 0-.08.02-.28.07-.57a.57.57 0 0 1 .1-.24l.27-.38c.1-.14.14-.18.31-.21l.27-.06Z" fill="#FED1CB"/><path d="M8.07 9.88h.01l.02 1c-.12.18-.2.34-.24.5a.17.17 0 0 1-.1.1l-.39.18c-.05.02-.06.01-.04-.03l.44-.92a4.56 4.56 0 0 0 .3-.83Z" fill="#FC520E"/><path d="M5.28 13.55c.04-.31.05-.63.15-.93v.02c0 .02.02.03.03.02l.03-.03c.12-.32.2-.76.36-1.13a15.48 15.48 0 0 0 .52-1.37h.02a.03.03 0 0 1 .04.02v.02c-.17.72-.58 1.62-.7 2.1l-.32 1.27c-.02.05-.06.06-.13 0ZM10.24 14.83v.03l-.38.07c.1-.26.25-.5.43-.71.1-.12.21-.37.35-.53l.17-.23c.2-.26.28-.54.26-.82.04-.24.05-.48.02-.71-.03-.19-.05-.5-.16-.7a10.4 10.4 0 0 0-.36-.58 1.3 1.3 0 0 0-.21-.29l.33.22c.15.09.32.44.48.74.08.17.09.38.11.6.02.17.12.27.07.45a7.14 7.14 0 0 1-.66 1.55l-.41.73c-.03.05-.04.1-.06.17l.02.01ZM9.6 10.91l-.01.03c-.01.02-.03.02-.04.02h-.36a.02.02 0 0 1-.02-.02v-.02a.3.3 0 0 1 .15-.01.05.05 0 0 0 .04-.02c.04-.05.09-.1.14-.13.08-.05.06-.1-.03-.13a.03.03 0 0 0-.03 0l-.01.01v.01c-.01.03 0 .05 0 .07 0 .02-.01.03-.03.03a.01.01 0 0 1-.01-.01l-.01-.06c0-.02-.02-.03-.04-.04-.03 0-.06 0-.09.02-.02 0-.02.02 0 .03l.03.07c.02.04.01.05-.03.04-.06-.02-.07-.04-.04-.06-.07-.08-.13-.08-.18.01-.03 0-.04-.03-.03-.1a.06.06 0 0 1 .06-.04h.5c.04 0 .06.01.08.06a.04.04 0 0 1-.01.04c-.03.03-.04.06-.01.1v.03a.1.1 0 0 1-.02.07Z" fill="#1E2432"/><path d="M9.5 10.76c-.03 0-.05-.02-.07-.04a.09.09 0 0 1 0-.07.03.03 0 0 1 .04-.02c.1.03.1.08.03.13Z" fill="#D9D9D9"/><path d="m9.43 10.72.07.04a.54.54 0 0 0-.14.13.05.05 0 0 1-.04.02.3.3 0 0 0-.15 0v.05h.38c.01 0 .03 0 .04-.02l.01-.03.03.04v.04l.02.01.06.02v.04a.22.22 0 0 0-.04.09c0 .01-.01.02-.03.02-.07 0-.12-.02-.15-.07 0-.02-.02-.02-.04 0a.09.09 0 0 1-.07.02c-.07-.01-.17.09-.2.14a.05.05 0 0 1-.04.02c-.05 0-.07.02-.07.06h.01a.52.52 0 0 1 .15-.04c.03 0 .03 0 .02.03-.04.07-.1.1-.18.1-.04-.01-.06 0-.07.03-.01.02 0 .03.01.04l.23.06H9.2v.03l-.08.04h-.04l-.07-.08H9l-.01.01v.02c.04.06.05.12.01.16a.04.04 0 0 0 0 .05.2.2 0 0 0 .12.1l.03.03-.01.02a.09.09 0 0 1-.05.01c-.02 0-.03 0-.04-.02-.07-.07-.13-.19-.16-.36l.01-.14c.05.02.05-.02.01-.11a.05.05 0 0 1 .05-.07h.12v-.02l-.02-.01-.2-.02a.06.06 0 0 1-.03-.02.13.13 0 0 0 0-.13.04.04 0 0 1 0-.04l.02-.01.28-.1c.02 0 .02 0 .02-.02-.01-.02 0-.05.01-.08.01-.01 0-.02-.01-.03-.06-.01-.1 0-.09.03l-.03-.05c.06.01.13 0 .18-.01-.03.02-.02.04.04.06.04 0 .05 0 .03-.04l-.04-.07.01-.03a.16.16 0 0 1 .1-.02l.03.04v.06a.01.01 0 0 0 .02 0c.02.01.03 0 .03-.02Z" fill="#696868"/><path d="M8.83 11.18a.69.69 0 0 1-.15.01c-.07 0-.08-.02-.01-.07l.08.02a.02.02 0 0 0 .03-.01v-.04c0-.03-.01-.04-.04-.05h-.11a.03.03 0 0 1-.03-.05c.01-.02.03-.03.06-.03.1 0 .21-.02.33-.06.06-.02.08-.05.07-.1 0-.03.03-.04.09-.03.02 0 .02.02.01.03-.02.03-.02.06-.01.08 0 .01 0 .02-.02.03l-.28.09a.04.04 0 0 0-.02.03v.02c.02.05.02.09 0 .13ZM8.89 11.57c.03.17.09.3.16.36.01.02.02.02.04.02h.05v-.03a.04.04 0 0 0-.02-.02.2.2 0 0 1-.12-.11v-.05c.04-.04.03-.1-.02-.16v-.02l.02-.01h.02l.07.07h.04l.08-.03.06.04a.02.02 0 0 0 .02-.04l-.05-.03L9 11.5c-.02 0-.02-.02-.01-.04 0-.03.03-.04.07-.04.08 0 .14-.02.18-.1.01-.01 0-.03-.02-.02a.52.52 0 0 0-.15.05h-.01v-.01c0-.04.02-.06.07-.06l.03-.02c.04-.05.14-.15.21-.14.03 0 .05-.01.07-.03h.04c.03.06.08.08.15.08.02 0 .03 0 .03-.02a.22.22 0 0 1 .04-.09v-.04L9.65 11a.03.03 0 0 1-.03-.03v-.02c.2 0 .33.1.41.28l.01.05a.5.5 0 0 0 0 .12c0 .1-.1.18-.18.21-.04.02-.07.01-.1-.02a.05.05 0 0 0-.03-.02l-.14-.01c-.06-.03-.15.02-.19.04-.01 0-.02.02 0 .04v.01a.03.03 0 0 0 .02.01.02.02 0 0 0 .02 0 .3.3 0 0 1 .12-.06l.04.01c.04.03.08.05.15.06l.02.01.01.02c0 .05.02.1.04.14v.04c-.04.02-.06.05-.06.07 0 .03 0 .03.02.02l.05-.03a.38.38 0 0 1 .13-.15.05.05 0 0 1 .06 0l.02.02c.03.1.04.19 0 .25v.05c.02.28-.32.27-.52.23-.03 0-.05 0-.06.02-.02.02-.01.03 0 .02h.09l.02.02v.02c.01.03 0 .05-.01.06a.08.08 0 0 1-.05.02h-.03c-.04 0-.03.01 0 .02.08.01.11.07.1.16h-.02v.01h-.57l-.01-.02.02-.28a.05.05 0 0 0-.01-.04.05.05 0 0 0-.04 0l-.3.04h-.01a.03.03 0 0 1-.02-.03v-.21c0-.03.01-.05.04-.05l.2-.04c.02 0 .03 0 .04.03v.03c0 .02 0 .04-.03.04h-.13c-.03 0-.04 0-.01.02.08.05.22.05.2-.08a.04.04 0 0 0-.02-.04h-.02a.04.04 0 0 1-.03-.04c-.02-.14 0-.29.03-.45Z" fill="#030413"/><path d="M9.16 11.1c-.05.05-.11.05-.2.01-.05-.01-.05-.04-.01-.06a.17.17 0 0 1 .12-.03 3.2 3.2 0 0 0 .23.02l.01.02c.01.03 0 .05-.02.05-.03 0-.06-.03-.1-.03 0 0-.02 0-.03.02Z" fill="#030413"/><path d="M9.84 11.18c.05.03.1.03.1 0 .01-.01-.02-.04-.06-.07-.05-.02-.1-.02-.1 0-.01.01.02.05.06.07Z" fill="#D9D9D9"/><path d="M9.67 11.25v.04l-.08.15-.03.03h-.04a.51.51 0 0 0-.27.02c-.02 0-.02 0-.01-.02a.42.42 0 0 0 .03-.21.09.09 0 0 1 .11-.1l.29.09Z" fill="#FED1CB"/><path d="M8.9 11.43a.38.38 0 0 1-.04-.23l.2.02h.01v.03c.01 0 0 0 0 0h-.11a.04.04 0 0 0-.04.02.05.05 0 0 0 0 .04c.03.1.03.14-.02.12Z" fill="#1E2432"/><path d="M9.67 11.3v-.05c.03-.04.07-.06.1-.06.02 0 .04.01.05.03v.02c-.02.05-.01.06.04.04h.11a.02.02 0 0 1 .01.02v.02c-.01.01-.02.02-.04.01-.08-.02-.17.05-.22.03-.03-.01-.04-.03-.05-.07Z" fill="#DA7B80"/><path d="M9.89 11.47c.05 0 .08-.03.08-.05 0-.02-.04-.03-.1-.03-.04.01-.08.03-.07.06 0 .02.04.03.09.02Z" fill="#D9D9D9"/><path d="M9.75 11.53c-.02.01-.04 0-.07-.04l-.02-.04.03-.03h.04l.02.02c.02.05.02.08 0 .09Z" fill="#FED1CB"/><path d="m6.33 12.82.16-.35c.11-.07.2-.17.28-.29a.1.1 0 0 1 .03-.03 2.19 2.19 0 0 1 .62-.44.6.6 0 0 1 .36-.07l.02.02.01.03c-.02.3.06.57.24.8l.02.01h.02s.01 0 0 0c-.16-.25-.3-.76-.02-1a.1.1 0 0 1 .14.03l.04.1c.03.26.07.48.11.65.04.16.06.29.05.38-.02.17-.05.3-.08.39a.82.82 0 0 1-.54.52.87.87 0 0 1-.94-.23 2.24 2.24 0 0 1-.33-.39.6.6 0 0 0-.2-.13Z" fill="#1E2432"/><path d="M9.24 11.56c.02 0 .04.02.05.03v.02a.02.02 0 0 1-.01.01h-.01c-.02 0-.04 0-.06-.03v-.02h.03Z" fill="#D9D9D9"/><path d="m12.03 14.18-.2.12c.04-.15.05-.27.05-.37l-.06-.78a8.91 8.91 0 0 0-.27-1.56c.16.07.2.34.22.48a10.2 10.2 0 0 1 .22 2.1h.04Z" fill="#1E2432"/><path d="M10.63 13.43a.74.74 0 0 1-.54.1c-.03 0-.04-.03-.03-.06.06-.21.07-.44.05-.66l.02-.29c-.01-.17.07-.33.15-.58.03-.08.07-.12.14-.17 0 0 0-.02-.02-.02-.03-.01-.05-.05-.06-.1.1-.03.2-.03.27.01.01.01.02.02.01.04l-.28.68c-.03.06-.04.19-.04.37a3.2 3.2 0 0 0 .07.63.07.07 0 0 0 .07.03.26.26 0 0 1 .2.02Z" fill="#DA7B80"/><path d="M9.89 11.66c.03 0 .06.01.07.04a.03.03 0 0 1-.01.04h-.02a1.29 1.29 0 0 0-.1 0l-.02-.01a.03.03 0 0 1 0-.03c.01-.03.04-.04.08-.04ZM10.34 11.64c.01.06.03.1.06.1.02.01.03.02.02.03-.07.05-.1.09-.14.17-.08.25-.16.4-.15.58 0 .1-.03.18-.02.29.03.22 0 .45-.05.66-.01.03 0 .05.03.06.19.04.37 0 .54-.1.15-.05.23-.27.3-.4l.14-.4c.02.3-.07.57-.26.83l-.17.23c-.14.16-.25.4-.35.53a2.6 2.6 0 0 0-.43.71.45.45 0 0 1-.23.01 6.6 6.6 0 0 0 .45-2.38 1.8 1.8 0 0 1 .26-.92Z" fill="#030413"/><path d="M9.1 11.79c.02.04.06.06.07.05.02-.01.01-.05-.02-.09-.02-.04-.06-.06-.07-.05-.02.01 0 .05.02.09Z" fill="#DA7B80"/><path d="M9.63 12.03c.01.02 0 .04-.01.05h-.4c-.07 0-.07 0-.02-.03.02-.01.04-.04.05-.1a.42.42 0 0 0-.02-.23.01.01 0 0 1 0-.01h.02c.03.01.08.03.12.02.24 0 .33.09.26.3Z" fill="#FED1CB"/><path d="M9.9 12.24c-.02-.02-.05-.02-.08 0 0-.11-.06-.17-.2-.16.02-.01.02-.03.01-.05.13-.03.22.04.27.2Z" fill="#696868"/><path d="M9.71 12.24v.01c-.08.02-.15 0-.21-.07v-.01l.17.01c.02 0 .03.01.03.03l.01.03Z" fill="#D9D9D9"/><path d="m12.33 13.98-.23.16-.01-.03v-.04a3.26 3.26 0 0 0 .02-.77h.03l.19.68Z" fill="#FC520E"/><path fill-rule="evenodd" d="M9 14.82A5.82 5.82 0 1 0 9 3.18a5.82 5.82 0 0 0 0 11.64ZM9 15A6 6 0 1 0 9 3a6 6 0 0 0 0 12Z" fill="#030413"/></svg>