<!-- by TradingView --><svg width="18" height="18" viewBox="0 0 18 18" xmlns="http://www.w3.org/2000/svg"><path fill="#F0F3FA" d="M0 0h18v18H0z"/><circle cx="9" cy="9" r="6" fill="#4F1A16"/><circle cx="9" cy="9" r="5.47" fill="#CAAD8B"/><circle cx="9" cy="9.02" r="4.95" fill="#E1EDE9"/><path d="M13.67 9.02a4.67 4.67 0 1 1-9.34 0 4.67 4.67 0 0 1 9.34 0Z" fill="#F5C37B"/><path d="M13.2 7.9a4.59 4.59 0 0 0-1.07-1.8 2.32 2.32 0 0 0-.78-.46l-.02-.03c-.19-.2-.4-.34-.66-.42a134.1 134.1 0 0 1-1.33-.4 1.67 1.67 0 0 0-.4-.06l-.27-.04a.68.68 0 0 0-.27 0 .5.5 0 0 1 .25-.05h.24c.23-.02.4-.02.52-.01a4.45 4.45 0 0 1 3.62 2.6c.1.22.16.45.18.67Z" fill="#F1A246"/><path d="M11.33 5.6c-.07.05-.11.07-.14.07-.4-.02-.79.06-1.13.25-.17.09-.39.2-.5.36-.09.13-.13.12-.12-.04 0-.12 0-.25-.04-.37l-.03-.03-.02.01v.04a.91.91 0 0 0-.7-.43 4.08 4.08 0 0 0-1.07.04.83.83 0 0 0-.26.09.98.98 0 0 1-.26.1c-.1.01-.22.07-.37.16s-.3.16-.46.23c-.19.07-.28-.05-.26-.22.08-.2.15-.31.2-.35.36-.31.77-.52 1.22-.64.04 0 .07-.04.1-.05a8.32 8.32 0 0 1 1.18-.13l.26.04c.16 0 .3.02.4.05l.96.3.38.11c.25.08.47.22.66.42Z" fill="#6C8F30"/><path d="M9.35 5.89c.03.15.03.3 0 .45a.1.1 0 0 0 0 .06c.04.07.05.12.03.17l-.2.39c-.3-.07-.6-.05-.9.06a2.12 2.12 0 0 0-.8 3.46c.43.46.97.67 1.62.63l-.18.16c-.15.14-.36.22-.49.3-.13.07-.26.08-.43.12-.11.03-.22.04-.33.04h-.45c-.14 0-.29-.02-.45-.04a3.07 3.07 0 0 1-1.6-.9c-.02-.02-.04-.01-.03.03.01.15.07.32.16.5a1.3 1.3 0 0 1-.29-.4c-.08-.21-.16-.43-.22-.65a4.35 4.35 0 0 1 .2-3.05 5.11 5.11 0 0 1 .94-1.36h.04c-.02.17.07.3.26.22.16-.07.31-.14.46-.23.15-.1.27-.15.37-.17.1-.02.19-.05.26-.1a.83.83 0 0 1 .26-.08c.38-.06.73-.07 1.06-.04.3.03.54.17.7.43Z" fill="#F1A246"/><path d="m13.21 7.9.13.6.01.5a.34.34 0 0 1-.15.13.1.1 0 0 0-.04.05l-.11.2a.3.3 0 0 0-.02.1c0 .03-.02.04-.04.04h-.13c-.02 0-.04 0-.06.02a.8.8 0 0 0-.19.13l.07-.55c0-.11.07-.22.06-.35v-.49a.9.9 0 0 0-.03-.3 2.4 2.4 0 0 1-.05-.3c0-.03-.01-.04-.02-.05-.03 0-.04 0-.05.02a.23.23 0 0 1-.08.09v-.07a.31.31 0 0 0 0-.25l.04-.01a.1.1 0 0 0 .02-.05 6.66 6.66 0 0 0-.4-.88c-.21-.38-.47-.66-.91-.76a.33.33 0 0 0 .09-.08c.35.14.6.3.78.46.46.45.82 1.05 1.08 1.8Z" fill="#8C2318"/><path d="M11.26 5.72c.44.1.7.38.9.76a6.66 6.66 0 0 1 .4.88.1.1 0 0 1-.01.05h-.04a.31.31 0 0 0-.08-.02h-.08a4.78 4.78 0 0 1-.55.2l-.02.02c-.05-.02-.09-.02-.1.01a.42.42 0 0 0-.17.06l-.22.05a.1.1 0 0 0-.05.03.28.28 0 0 0-.08.13l-.05-.01c.02-.04.03-.07.02-.1 0-.02-.02-.02-.05-.02l-1.15.25c-.15-.03-.25-.01-.29.07-.02-.03-.05-.04-.1-.04l-.27.02-.05-.02c-.02-.01-.03-.03-.01-.05a.12.12 0 0 0 .01-.1 6.46 6.46 0 0 1-.04-.47c0-.1.02-.21.05-.32.05-.16.09-.27.12-.32.15-.37.4-.63.76-.8.37-.17.75-.26 1.15-.26Z" fill="#B33A24"/><path d="M9.19 6.96c-.06.38-.07.78-.04 1.18-.06.03-.07.09-.04.17.01.04.06.12.13.23l.01.06c0 .09.03.14.07.17-.03.14.02.25.15.31v.01h-.05c-.02.01-.03.03-.02.05.08.23.1.44.08.64-.12.13-.12.27.02.42.01.15-.01.3-.08.44-.08.17-.19.33-.32.47-.65.04-1.2-.17-1.63-.63a2.12 2.12 0 0 1 .8-3.46c.3-.1.61-.13.92-.06Z" fill="#F3B14E"/><path d="M12.51 7.42a.31.31 0 0 1-.02.29l-.04.02a.65.65 0 0 0-.3.2.08.08 0 0 0-.02.06c.04.28-.03.54-.19.79a.51.51 0 0 1-.29.18 1.8 1.8 0 0 1-.36.04L11.26 9v-.02h.02c.02-.02.03-.03.03-.05 0-.05.03-.1.06-.13a.13.13 0 0 0 .03-.06c.03-.18.08-.35.15-.5.09-.18.13-.36.17-.51.01-.04.04-.08.06-.11l.02-.03.04-.02c.17-.04.34-.1.51-.16a.14.14 0 0 1 .08-.01c.03 0 .06.02.08.03Z" fill="#010101"/><path d="m11.78 7.6-.06.12c-.04.15-.08.33-.17.5a2.1 2.1 0 0 0-.15.51c0 .03-.02.05-.03.06a.22.22 0 0 0-.06.13c0 .02 0 .03-.03.04l-.02.01-.05-.02.47-1.33c.01-.03.05-.03.1-.01Z" fill="#E3EDE8"/><path d="m11.68 7.62-.47 1.33c-.07.02-.1 0-.1-.06l.4-1.2a.42.42 0 0 1 .17-.07Z" fill="#010101"/><path d="M12.61 9.67c0 .06-.02.1-.06.16a.06.06 0 0 1-.06.02c-.14-.01-.27.04-.38.16a.09.09 0 0 0-.02.06c0 .06-.02.1-.05.12-.02.02-.02.04 0 .05l.03.01c.02 0 .03 0 .04-.02a.07.07 0 0 1 .04-.03c.03 0 .03 0 .01.02a.04.04 0 0 0-.02.03c0 .02.01.03.04.03s.06 0 .08-.02a.2.2 0 0 1 .08.04c.02.01.03.03.02.05-.14.32-.3.63-.5.92-.34.52-.79.91-1.33 1.2-.45.23-.89.4-1.31.49-.14.03-.3.04-.46.05-.24 0-.63.02-.92-.06-.3-.07-.57-.12-.85-.25-.16-.06-.3-.12-.41-.18-.2-.08-.35-.17-.43-.25-.1-.1-.31-.36-.62-.76a.53.53 0 0 1-.1-.25.05.05 0 0 1 .02-.06h.06c.2.15.42.28.65.38a4.4 4.4 0 0 0 1.32.24c.18 0 .35-.02.5-.04.44-.07.84-.27 1.2-.61.19-.2.32-.42.38-.7a.06.06 0 0 1 .09-.03s.02 0 .02.02c.04.07.1.11.17.13.08.04.16.07.23.14l.16.14.04.02c.07 0 .11.04.13.15a.5.5 0 0 0-.11.18l-.02.02a.05.05 0 0 1-.06 0l-.08-.1-.01-.01a.03.03 0 0 0-.03 0v.01a.67.67 0 0 0 0 .55l-.02.01v.04c.14.17.33.22.57.15v-.03l-.01-.02h-.15l.05-.02c.04.02.07.02.1.01.02 0 .04-.02.06-.05a.5.5 0 0 1 .13-.14.1.1 0 0 0 .04-.05c.04-.13.04-.23 0-.32l-.02-.01a.04.04 0 0 0-.04-.01l-.01.01-.08.08c-.02.01-.03.01-.03-.01a.88.88 0 0 0-.12-.29l-.04-.02v-.14l.22.02c.06 0 .11 0 .14-.04a.3.3 0 0 0 .07-.15.1.1 0 0 0 .1 0c.02.05.08.07.15.05.14-.03.23-.1.25-.2.04-.04.1-.05.16-.04.02.03.05.04.09.02.14-.02.2-.08.31-.17.03-.01.04-.04.03-.06a.17.17 0 0 0-.14-.13h-.06l-.25.1c-.07.04-.09.08-.06.11v.05c-.23.03-.18.05-.47.05-.04 0-.08.03-.1.07a.07.07 0 0 1-.06.03h-.09a.08.08 0 0 0-.06-.03.06.06 0 0 0-.06.04c-.01.02-.03.03-.06.02a.06.06 0 0 0-.04.02.12.12 0 0 0-.03.03c-.02-.02-.06-.02-.12 0l-.16-.14a.08.08 0 0 0-.06-.01c-.06 0-.12-.02-.18-.07a.05.05 0 0 1-.02-.05c.01-.04 0-.08-.06-.11a.32.32 0 0 0-.12-.05.05.05 0 0 1-.04-.03l-.04-.2a.1.1 0 0 0-.02-.05l-.16-.17.04-.15c0-.02.02-.03.04-.02.1.06.2.08.33.08h.5a2.89 2.89 0 0 0 1.28-.3.57.57 0 0 0 .29-.23v-.02a.05.05 0 0 0 0-.05h-.03a.1.1 0 0 0-.1.01c-.11.1-.2.2-.36.23a1 1 0 0 0-.23.07 5.54 5.54 0 0 1-1.34.18c-.19 0-.26-.12-.42-.16a.05.05 0 0 1-.04-.04c-.01-.09 0-.15.02-.2.53.15.83-.04.92-.55.01-.04.01-.14 0-.28l.02-.03.03-.02.07-.01c.04 0 .06 0 .06.04l.05.24c.02.1.07.14.15.15.05.16.13.21.26.16 0 .06.02.08.09.06l.05.02v.02l.03.02c.12 0 .24-.02.36-.05a.51.51 0 0 0 .3-.18c.22-.2.3-.43.25-.73a.12.12 0 0 1 .04-.11l.27-.2a.23.23 0 0 0 .08-.09c0-.02.02-.03.05-.02l.02.04c.02.15.03.26.05.31a.9.9 0 0 1 .03.3v.49c0 .13-.05.24-.06.35l-.07.55Z" fill="#B33A24"/><path d="m11.5 7.68-.38 1.21c-.13.05-.21 0-.26-.16l.03-.04.27-.8a.28.28 0 0 1 .07-.13.1.1 0 0 1 .06-.03l.22-.05Z" fill="#E3EDE8"/><path d="m12.5 7.67.01.07-.26.2a.12.12 0 0 0-.05.11c.05.3-.03.54-.26.73.17-.25.23-.5.19-.79v-.03l.02-.03c.08-.1.18-.16.3-.2l.04-.02.02-.04Z" fill="#4A1D18"/><path d="m11.17 7.91-.15.43-.13.35-.03.04c-.08 0-.13-.06-.15-.15l-.05-.24c0-.03-.02-.05-.06-.04l-.07.01a.05.05 0 0 0-.04.05v.28c-.1.51-.4.7-.93.55l-.1-.1L9.94 8l1.15-.25c.03 0 .19-.05.2-.02 0 .02-.1.13-.11.17Z" fill="#010101"/><path d="m9.93 8.01-.46 1.07c-.13-.06-.18-.17-.15-.31l.32-.69c.04-.08.14-.1.3-.07Z" fill="#E3EDE8"/><path d="m9.64 8.08-.32.69c-.04-.03-.07-.08-.07-.17l-.01-.06a1.7 1.7 0 0 1-.13-.23c-.04-.08-.02-.14.04-.17l.12-.08c.09 0 .18 0 .26-.02.05 0 .1.01.11.04Z" fill="#010101"/><path d="M13.35 9.54c0-.03-.01-.04-.03-.05l-.04.01a.16.16 0 0 1-.1.02.1.1 0 0 0-.1.08c-.05.23-.18.34-.41.32-.02 0-.03 0-.04.02-.05.17-.17.28-.37.32a.16.16 0 0 1-.08.02c-.03 0-.04-.01-.04-.03 0-.02.01-.03.02-.03.02-.02.02-.03 0-.02a.07.07 0 0 0-.05.03.04.04 0 0 1-.04.02h-.03c-.02-.02-.02-.04 0-.06.03-.02.05-.06.05-.12 0-.02 0-.04.02-.06.11-.12.24-.17.38-.16.03 0 .05 0 .06-.02.04-.05.06-.1.06-.16a.8.8 0 0 1 .19-.13.15.15 0 0 1 .06-.02h.13c.02 0 .04-.01.04-.04 0-.04 0-.07.02-.1 0 .02.03.02.09 0 0 .03.02.04.06.04a.1.1 0 0 0 .06-.02c.1-.08.14-.17.11-.26.04.01.05-.02.03-.1a.06.06 0 0 0-.05-.04l-.01-.5.01.37.03.06c.17.18.17.35 0 .52a.08.08 0 0 0-.03.05v.04Z" fill="#838383"/><path d="M13.35 9c.03 0 .04.02.05.04.02.08.01.11-.03.1-.09-.03-.17.05-.23.24-.06.02-.09.02-.1 0l.12-.2a.1.1 0 0 1 .04-.05.34.34 0 0 0 .15-.13Z" fill="#C4AC8E"/><path d="M9.47 9.1c0 .02.04.05.1.1-.04.04-.04.1-.03.2 0 .01.02.03.04.03.16.04.23.16.42.16a5.54 5.54 0 0 0 1.34-.18 1 1 0 0 1 .23-.07c.16-.03.25-.14.37-.23a.1.1 0 0 1 .1-.02.05.05 0 0 1 .02.03.05.05 0 0 1 0 .05.57.57 0 0 1-.3.22l-.43.16a2.89 2.89 0 0 1-.84.14l-.5.01a.64.64 0 0 1-.33-.08c-.02 0-.04 0-.04.02l-.04.15c-.1.02-.14.02-.1 0 .03-.2 0-.42-.08-.65 0-.02 0-.04.02-.05h.05Z" fill="#8C2318"/><path d="M13.37 9.14c.03.1-.01.18-.11.26a.1.1 0 0 1-.06.02c-.04 0-.06-.01-.06-.04.06-.19.14-.27.23-.24Z" fill="#4A1D18"/><path d="M13.35 9.54a4.35 4.35 0 0 1-3.51 3.91 4.06 4.06 0 0 1-3.65-1.05l-.41-.4a3.5 3.5 0 0 1-.48-.69c-.1-.17-.15-.34-.16-.5 0-.03 0-.04.04-.01a3.07 3.07 0 0 0 2.04.93h.45c.1 0 .22-.01.33-.04.17-.04.3-.05.43-.12.13-.08.34-.16.5-.3l.17-.16c.13-.14.24-.3.32-.47.07-.15.1-.3.08-.44.06 0 .11.02.15.07v.04c-.02 0-.03.01-.03.03a.03.03 0 0 0 .01.02c.1.07.06.17.2.2v.03a.3.3 0 0 1-.16-.13.06.06 0 0 0-.06-.03.06.06 0 0 0-.05.05c-.06.27-.2.5-.39.69-.35.34-.75.54-1.2.6-.14.03-.3.04-.49.05a4.4 4.4 0 0 1-1.32-.24 4.1 4.1 0 0 1-.68-.39l-.03.01a.05.05 0 0 0-.03.06c.01.08.04.16.1.25.32.4.52.65.63.76.08.08.22.17.43.25l.4.18c.3.13.57.18.86.25.29.07.68.06.92.06.17 0 .32-.02.46-.05.42-.1.86-.26 1.31-.5.54-.28.99-.67 1.33-1.2.2-.28.36-.59.5-.9 0-.03 0-.05-.02-.06a.2.2 0 0 0-.08-.04c.2-.04.32-.15.37-.32 0-.02.02-.03.04-.02.23.02.36-.09.4-.32a.1.1 0 0 1 .1-.08c.04 0 .07 0 .1-.02l.05-.01c.02 0 .02.02.03.05Z" fill="#8C2318"/><path d="M12.98 9.66a.03.03 0 0 1 0 .04l-.1.07a.54.54 0 0 1-.13.07c-.03.01-.06.02-.07 0v-.01l-.01-.03.02-.04a.66.66 0 0 1 .1-.1l.1-.07a.03.03 0 0 1 .02 0 .03.03 0 0 1 .02 0l.05.07Z" fill="#8C2318"/><path d="M9.48 9.78c-.04.03 0 .03.1 0l.16.18a.1.1 0 0 1 .02.05l.04.2v.02l.04.01.12.05c.05.03.07.07.06.11 0 .02 0 .04.02.05.06.05.12.07.18.07l.06.01.16.13c.04.08.07.15.07.22v.14c0 .01 0 .02-.02.02s-.03 0-.04-.03a4.77 4.77 0 0 0-.06-.26.2.2 0 0 0-.08-.12.3.3 0 0 0-.15-.05l-.04-.02h-.03l-.02.02-.01-.05h-.03v.03c0 .02-.02.03-.05.02a.37.37 0 0 0-.15-.01c-.14-.04-.1-.14-.2-.21v-.02l.01-.03c.02-.01.02-.02.01-.04-.04-.05-.09-.08-.15-.07-.14-.15-.14-.29-.02-.42Z" fill="#838383"/><path d="M9.55 10.07c.04.07.1.12.13.1.03-.01.02-.08-.02-.16-.04-.07-.1-.12-.12-.1-.03.01-.02.09.01.16Z" fill="#4A1D18"/><path d="M12.43 9.93a.02.02 0 0 1 .02.01l.01.01.01.05-.01.06-.03.04a.17.17 0 0 1-.05.04h-.02a.17.17 0 0 1-.12.02.14.14 0 0 1-.04-.03.12.12 0 0 1-.04-.04v-.01a.02.02 0 0 1 0-.03l.27-.12Z" fill="#8C2318"/><path d="M11.7 10.54c0-.04.02-.07.08-.08a.25.25 0 0 0 .17-.14c.02-.02.01-.04-.01-.05-.06-.04-.1-.04-.14-.02l-.27.14c-.03-.03 0-.07.06-.1.08-.05.16-.08.24-.1a.17.17 0 0 1 .14.01.17.17 0 0 1 .07.11c0 .02 0 .04-.03.06-.1.08-.17.15-.31.17Z" fill="#838383"/><path d="M11.7 10.54c-.04.02-.07.01-.09-.02l.03-.03-.01-.04c-.03-.02-.06-.02-.1-.01v-.05c.1-.04.19-.1.27-.14.04-.02.08-.02.14.02.02.01.03.03.01.05a.25.25 0 0 1-.17.14c-.06 0-.09.04-.08.08ZM9.93 10.52H9.9l-.05-.04a.5.5 0 0 1-.1-.1c-.02-.03-.03-.06-.02-.07l.01-.01.03-.01.04.01a.61.61 0 0 1 .12.07l.06.05a.02.02 0 0 1 0 .02l-.06.08Z" fill="#8C2318"/><path d="M11.24 10.45h.14l.14-.01c.05-.01.08 0 .1.01.02.01.03.02.02.04l-.03.03c-.07-.01-.12 0-.16.04-.1-.06-.18-.07-.23-.05-.15.07-.2.06-.16-.02a.56.56 0 0 1 .18-.04Z" fill="#838383"/><path d="M11.06 10.5c-.05.07 0 .08.16 0 .05-.01.12 0 .23.06-.02.1-.1.17-.25.2-.07.02-.13 0-.16-.05-.01-.07-.06-.09-.14-.07l-.02.02c0 .03 0 .04.02.04l.05.01a.3.3 0 0 1-.07.15c-.03.03-.08.05-.14.04l-.23-.02a.59.59 0 0 0-.07-.22h.12c0 .08.02.09.09.02a.09.09 0 0 1 .06-.03c.05 0 .09-.02.1-.05l.1-.01.04-.03c.03-.04.07-.06.11-.07Z" fill="#8C2318"/><path d="M10.07 10.58c.01.05.04.1.07.13l.04.01c.02 0 .02-.01.03-.03a.03.03 0 0 0 0-.02.3.3 0 0 1-.05-.09c.05 0 .1.02.15.05a.2.2 0 0 1 .08.12l.06.26c0 .03.02.04.04.03l.03-.02.04.02-.05.04c-.03.02-.05.02-.06.01a.17.17 0 0 1-.05-.05c-.02-.1-.06-.16-.13-.15-.01 0-.03 0-.04-.02l-.16-.14c-.07-.07-.15-.1-.23-.14v-.02l.14.01c.03.01.05 0 .05-.02v-.02c0-.02.01-.02.03 0l.01.04ZM10.81 10.6c-.01.03-.05.05-.1.05a.08.08 0 0 0-.06.03c-.07.07-.1.06-.1-.01l.04-.03.02-.02h.02c.03 0 .05 0 .06-.02a.06.06 0 0 1 .06-.04c.02 0 .04.01.06.04Z" fill="#838383"/><path d="M10.56 11.04c.06.1.1.19.12.29 0 .02.01.02.03 0l.08-.07a.04.04 0 0 1 .04-.01.04.04 0 0 1 .03.02c.04.09.04.2 0 .32a.1.1 0 0 1-.04.05.5.5 0 0 0-.13.14c-.02.03-.04.05-.06.05-.03.01-.06 0-.1-.01l.02-.28-.01-.06c-.04-.04-.05-.08-.05-.12.03-.11 0-.14-.1-.08-.04.02-.06.06-.07.13a.07.07 0 0 1-.04.05c-.06.03-.08.07-.07.14-.04.02-.05.05-.05.11 0 .03 0 .03-.03.02a.16.16 0 0 1-.05-.04.67.67 0 0 1 .01-.56h.03l.09.1a.05.05 0 0 0 .08 0 .5.5 0 0 1 .1-.19c.02.03.04.04.06.05h.06l.05-.05Z" fill="#EB6839"/><path d="m10.53 11.82-.05.02c-.1.02-.2 0-.25-.05a.05.05 0 0 1-.02-.05v-.14c-.01-.07.01-.11.07-.14a.07.07 0 0 0 .03-.05c.02-.07.04-.11.08-.13.1-.06.13-.03.1.08 0 .04.01.08.05.13 0 .01.02.03.01.05l-.02.28Z" fill="#F1A246"/><path d="M10.2 11.6c.02.04.02.09 0 .14 0 .02 0 .04.03.05.06.06.14.07.25.05h.15l.01.02v.03c-.24.07-.43.02-.57-.15v-.04h.01l.05.03c.02.01.03 0 .03-.02 0-.05.01-.1.05-.11Z" fill="#8C2318"/></svg>