<!-- by TradingView --><svg width="18" height="18" viewBox="0 0 18 18" xmlns="http://www.w3.org/2000/svg"><path fill="#F0F3FA" d="M0 0h18v18H0z"/><path d="M9.04 5.06a3.9 3.9 0 0 0-1.7-.54c-.16-.01-.33 0-.5.04a.57.57 0 0 1-.27 0c.3-.24.69-.4 1.06-.47.36-.07.73-.1 1.1-.09.87.05 1.7.26 2.48.63.31.15.57.33.8.54.04.05.1.14.16.26.03.08.03.15 0 .24-.05.18-.29.3-.46.35-.22.06-.44.07-.66.01a3.6 3.6 0 0 1-.98-.39l-.8-.47a.88.88 0 0 0-.23-.1Z" fill="#FF7300"/><path d="M9.03 5.06c-.59.15-1.15.2-1.68.14-.14-.02-.3-.07-.5-.14a1.05 1.05 0 0 1-.45-.33.04.04 0 0 1 .02-.04l.15-.13c.1.02.19.02.27 0 .17-.04.34-.05.5-.04a3.9 3.9 0 0 1 1.7.54Z" fill="#FF3D00"/><path d="M8.03 7.25a3.3 3.3 0 0 0-.69-.18l-.7-.09h-.37l-.47.06c-.66.12-1.16.45-1.52.97l-.23.3c-.06-.2-.07-.42-.01-.64.04-.16.07-.29.11-.37.59-1.26 2.1-1.93 3.44-1.76.25.03.5.08.76.15.26.07.57.18.93.31l1.37.55.61.2c.32.1.6.14.85.13.22 0 .48-.08.61-.27.14-.2.13-.43.12-.68v-.01a.02.02 0 0 1 .02-.01c.3.24.52.54.63.9.12.38.15.77.08 1.16-.06.3-.24.5-.54.6-.07.02-.18.03-.32.04-.18 0-.38-.02-.6-.07a8.27 8.27 0 0 1-.97-.27L9.4 7.64a21.38 21.38 0 0 0-1.26-.38l-.11-.01Z" fill="#FF7300"/><path d="M8.03 7.25a3.33 3.33 0 0 0-1.37.63c-.53.4-1.09.83-1.74.98a.88.88 0 0 1-.3.01.57.57 0 0 1-.42-.24.86.86 0 0 1-.15-.32l.23-.3c.36-.52.86-.85 1.52-.97a7.88 7.88 0 0 1 .85-.06c.4.05.63.08.69.1.22.02.45.08.69.17Z" fill="#FF3D00"/><path d="M13.95 9.72h-.04c-.02 0-.03 0-.03.02a2.32 2.32 0 0 1-1.79 1.24s-.13 0-.37.03h-.33l-.3-.02c-.37-.03-.75-.1-1.15-.23a5 5 0 0 1 .53-.15 3.16 3.16 0 0 0 .94-.56c.27-.2.54-.39.82-.56.33-.2.73-.39 1.11-.37.33.02.54.28.61.6Z" fill="#E30613"/><path d="M9.93 10.76a5.18 5.18 0 0 0 1.79.25l.37-.03a2.32 2.32 0 0 0 1.79-1.24l.02-.02h.05c.04.12.05.22.05.28-.02.37-.13.7-.32.99-.34.52-.8.91-1.39 1.17-.7.31-1.42.4-2.17.26a6.92 6.92 0 0 1-1-.27c-.35-.13-.86-.32-1.53-.6a7.08 7.08 0 0 0-1.09-.36 2.8 2.8 0 0 0-.56-.07c-.44 0-.78.19-.8.68a3.6 3.6 0 0 0 0 .3c-.6-.46-.8-1.16-.74-1.9.03-.34.17-.65.52-.76.17-.05.38-.07.63-.04.21.03.43.07.65.13.24.07.48.14.73.23l1.81.65a17.03 17.03 0 0 0 1.2.35Z" fill="#FF3D00"/><path d="M8.93 12.94c.57.31 1.15.5 1.74.53.22.02.49 0 .8-.08-.11.1-.22.18-.33.24-.3.15-.62.26-.97.31-.3.05-.58.07-.84.06a6.5 6.5 0 0 1-2.3-.52 3.67 3.67 0 0 1-.9-.53c-.29-.23-.52-.62-.09-.87.28-.16.59-.2.94-.1.19.04.36.1.53.17.21.1.44.22.67.36.26.15.5.3.75.43Z" fill="#FF3D00"/><path d="M11.47 13.39c-.31.07-.58.1-.8.08a4.14 4.14 0 0 1-1.74-.53c.37-.1.73-.14 1.09-.16.38-.02.76.02 1.12.16a1.09 1.09 0 0 1 .45.33.04.04 0 0 1 0 .03h-.01l-.11.09Z" fill="#E30613"/></svg>