<!-- by TradingView --><svg width="18" height="18" viewBox="0 0 18 18" xmlns="http://www.w3.org/2000/svg"><path fill="url(#asybgexiv)" d="M0 0h18v18H0z"/><path d="m6.28 3.87 1.29-.72c.38-.21.85-.2 1.22.04l3.96 2.56c.32.21.34.66.03.9L10 8.78v.46l2.75 1.96c.32.22.32.67 0 .9l-3.92 2.68c-.38.27-.9.28-1.3.03l-1.27-.8a.54.54 0 0 1-.26-.46V4.34c0-.2.1-.37.28-.47Z" fill="url(#bsybgexiv)"/><defs><linearGradient id="asybgexiv" x1="3.35" y1="3.12" x2="21.9" y2="24.43" gradientUnits="userSpaceOnUse"><stop stop-color="#1A1E21"/><stop offset="1" stop-color="#06060A"/></linearGradient><linearGradient id="bsybgexiv" x1="6" y1="9" x2="13" y2="9" gradientUnits="userSpaceOnUse"><stop stop-color="#217ED7"/><stop offset="1" stop-color="#37E2FF"/></linearGradient></defs></svg>