<!-- by TradingView --><svg width="18" height="18" viewBox="0 0 18 18" xmlns="http://www.w3.org/2000/svg"><path fill="#1F1F2D" d="M0 0h18v18H0z"/><path d="M9 6.08A2.08 2.08 0 0 0 11.08 4H6.92A2.08 2.08 0 0 0 9 6.08Zm-5 5V6.92a2.08 2.08 0 0 1 0 4.16ZM9 11c1.15 0 2-.85 2-2s-.85-2-2-2-2 .85-2 2 .85 2 2 2Zm2.92-2A2.08 2.08 0 0 0 14 11.08V6.92A2.08 2.08 0 0 0 11.92 9ZM14 4v2.08A2.08 2.08 0 0 1 11.92 4H14ZM4 6.08A2.08 2.08 0 0 0 6.08 4H4v2.08Zm3.53 6.45A2.08 2.08 0 0 1 11.08 14H6.92c0-.55.22-1.08.6-1.47ZM11.92 14H14v-2.08A2.08 2.08 0 0 0 11.92 14ZM4 14v-2.08A2.08 2.08 0 0 1 6.08 14H4Z" fill="#F26057"/></svg>