<!-- by TradingView --><svg width="18" height="18" viewBox="0 0 18 18" xmlns="http://www.w3.org/2000/svg"><path fill="url(#a)" d="M0 0h18v18H0z"/><path d="M9.63 4 9 6.67v1l.63-1.34V4Z" fill="#D09F74"/><path d="M9 7.67v-1L5.53 7.83l.63.84 2.84-1Z" fill="#513D2A"/><path d="M9 6.67 9.63 4 3.95 6 3 9.33l4.1 3.34.64-2.67-2.21-2.17L9 6.67Z" fill="url(#b)"/><path d="M9.95 7.67v-1l2.52 2-.63.66-1.9-1.66Z" fill="#62574C"/><path d="M8.37 14v-1.33l5.68-2V12l-5.68 2Z" fill="url(#c)"/><path d="m9.95 6.67.95-2.34L15 8l-.95 2.67-5.68 2L9 10l3.16-1.33-2.21-2Z" fill="url(#d)"/><path d="M14.05 12v-1.33L15 8v1.33L14.05 12Z" fill="#CFA986"/><path d="M7.74 12v-2l-.63 2.67v1L7.74 12Z" fill="#D39F77"/><path d="M7.1 12.67 3 9.33v1l4.1 3.34v-1Z" fill="url(#e)"/><defs><linearGradient id="a" x1="3.35" y1="3.12" x2="21.9" y2="24.43" gradientUnits="userSpaceOnUse"><stop stop-color="#1A1E21"/><stop offset="1" stop-color="#06060A"/></linearGradient><linearGradient id="b" x1="3.63" y1="7" x2="8.1" y2="8.36" gradientUnits="userSpaceOnUse"><stop stop-color="#F0A967"/><stop offset="1" stop-color="#E8D0B0"/></linearGradient><linearGradient id="c" x1="14.05" y1="11.17" x2="8.45" y2="13.29" gradientUnits="userSpaceOnUse"><stop stop-color="#55402D"/><stop offset=".62" stop-color="#615749"/><stop offset="1" stop-color="#584635"/></linearGradient><linearGradient id="d" x1="9" y1="10.5" x2="14.11" y2="8.84" gradientUnits="userSpaceOnUse"><stop stop-color="#F09E57"/><stop offset="1" stop-color="#E5D5C2"/></linearGradient><linearGradient id="e" x1="3" y1="9.67" x2="7.11" y2="12.78" gradientUnits="userSpaceOnUse"><stop stop-color="#665A4B"/><stop offset="1" stop-color="#543A27"/></linearGradient></defs></svg>