<!-- by TradingView --><svg width="18" height="18" viewBox="0 0 18 18" xmlns="http://www.w3.org/2000/svg"><path fill="url(#a)" d="M0 0h18v18H0z"/><path d="M13.53 7c0 .04-.02.07-.03.09-.01.02-.02.02-.03 0-.07-.07-.14-.07-.23 0-.13.1-.16.22-.22.39 0 .02-.02.02-.03.01-.28-.16-.51.12-.56.37 0 .03-.02.04-.04.02-.05-.04-.09-.05-.12-.04-.02.02-.03.04-.04.09a2.45 2.45 0 0 0-.02.32h-.01c-.03-.36.05-.9-.36-1.1-.07-.03-.16-.02-.26.03-.28.15-.4.47-.43.76 0 .07 0 .18.02.33l.05.33a.54.54 0 0 0-.2-.13l-.04.01c-.2.15-.11.49.02.63.08.08.07.1-.03.05a.96.96 0 0 1-.1-.15c-.02-.02-.04-.03-.06-.02-.14.07 0 .34.07.41v.03l-.12-.1a.07.07 0 0 0-.12.05v.11c.05.07.03.09-.04.04-.1-.07-.23-.13-.4-.18l-.23-.58c-.01-.08-.06-.17-.05-.24l.01-.1.03-.19.67-1.15.11.03c.02 0 .03 0 .04-.02l.15-.47c.05-.13.28-.2.2-.38a.5.5 0 0 0-.14-.16l-.07-.11a.08.08 0 0 0-.14-.01.47.47 0 0 1-.19.16.08.08 0 0 0-.03.13l.09.09a.03.03 0 0 1 0 .04l-.34.38a.06.06 0 0 0 0 .09l.13.12-.48.8a1.36 1.36 0 0 1-.05-.4 8.93 8.93 0 0 0-.29-1.08.19.19 0 0 0-.06-.08c0-.02 0-.04.02-.05.07.04.15.05.23.03a.08.08 0 0 0 .07-.08.15.15 0 0 0-.03-.07c-.01-.02-.01-.02.01-.02h.11a.07.07 0 0 0 .05-.1.67.67 0 0 0-.3-.3c-.02-.01-.02-.02 0-.03l.16-.03a.06.06 0 0 0 .04-.1c-.09-.13-.37-.19-.51-.2-.19.02-.17-.02.06-.11.14-.06.14-.1-.01-.13-.3-.05-.62-.02-.94.12-.03 0-.03 0-.01-.02.06-.08.1-.15.11-.23a.03.03 0 0 0-.03-.03.7.7 0 0 0-.39.18c-.14.14-.26.28-.36.43-.02.03-.03.03-.04 0l-.02-.11a.06.06 0 0 0-.05-.05.06.06 0 0 0-.07.02 1.42 1.42 0 0 0-.12 1.33.01.01 0 0 1-.02 0 .4.4 0 0 0-.25 0 .06.06 0 0 0-.02.1c.17.13.4.16.61.23l.23.3c-.16.07-.21.17-.17.33.05.15.15.45.35.35a.05.05 0 0 1 .06.04v.15l-.08.09a.04.04 0 0 1-.05 0c-.1-.14-.2-.26-.3-.37a1.37 1.37 0 0 0-.17-.14c-.12-.08-.28 0-.4.03l-.1-.1a.08.08 0 0 0-.1 0c-.1.07-.18.15-.27.23-.08.08-.17.1-.26.14a.1.1 0 0 0-.03.14c.06.08.1.15.09.21-.01.12.03.15.14.07a.36.36 0 0 1 .24-.07.06.06 0 0 0 .06-.06l.01-.07a.05.05 0 0 1 .04-.04c.09-.03.27-.07.27-.2 0-.09.06-.13.18-.12.06 0 .11.03.17.08.14.13.26.27.37.42l-.24.28-.27-.1c-.2-.07-.35.04-.34.25v.31c0 .02 0 .04-.02.05a.17.17 0 0 1-.1.03.03.03 0 0 1-.04-.02.03.03 0 0 1 0-.03c.03-.03.03-.06 0-.1.01-.15 0-.37-.16-.4a.6.6 0 0 0-.62.27v-.01c.05-.08.1-.26-.03-.3-.04-.01-.08 0-.12.03-.06.04-.08.03-.05-.04a.46.46 0 0 0-.04-.41c-.06-.1-.14-.14-.25-.1-.05-.01-.09 0-.12.05-.05.06-.11.1-.18.1a.74.74 0 0 0-.54-.51c-.3-.09-.54-.16-.72-.23l-.04-.08a.05.05 0 0 1 0-.04 5 5 0 0 1 9.29-.45l-.02.04Z" fill="#2BA9D4"/><path d="m9.4 5.26-.2.45c-.05.1-.06.2-.02.3-.08 0-.13-.02-.13-.08 0-.02-.01-.02-.03-.01-.11.09-.4.3-.54.2h-.05c-.1.13-.23.27-.41.3-.02 0-.03.01-.03.03.01.1 0 .2-.03.32l-.1.23c-.2-.07-.44-.1-.61-.23a.06.06 0 0 1 .02-.1.4.4 0 0 1 .25 0 .01.01 0 0 0 .02 0 .01.01 0 0 0 0-.01c-.18-.41-.13-.95.12-1.32a.06.06 0 0 1 .1 0l.02.03.02.1c0 .04.02.04.04.01.1-.15.22-.3.36-.43a.7.7 0 0 1 .4-.18.03.03 0 0 1 .02.03.52.52 0 0 1-.11.23c-.02.02-.02.03.01.02.32-.14.64-.17.94-.12.15.03.15.07.01.13-.23.1-.25.13-.06.1Z" fill="#5D3E24"/><path d="M9.4 5.26c.15.02.43.08.52.22a.06.06 0 0 1-.04.1l-.15.02c-.03 0-.03.02 0 .03.1.05.2.15.29.3a.07.07 0 0 1-.05.1h-.11c-.02 0-.02 0-.01.02l.03.07a.08.08 0 0 1-.07.08.36.36 0 0 1-.23-.03c-.05-.02-.1-.07-.13-.16A.02.02 0 0 0 9.42 6a.4.4 0 0 1-.24.02.43.43 0 0 1 .01-.31l.22-.45Z" fill="#321E16"/><path d="M9.18 6.02A.4.4 0 0 0 9.42 6a.02.02 0 0 1 .03.01c.03.1.08.14.13.16l-.02.05-.45.03c-.03 0-.03 0-.02-.03a.18.18 0 0 1 .06-.04v-.03h-.01a.38.38 0 0 0-.18.1c-.11.12-.29.05-.43.08l-.03.01a.05.05 0 0 0-.02.04l.03.01v.03c-.19.09-.37.2-.55.35a.93.93 0 0 0 .03-.32c0-.02 0-.03.03-.03.18-.03.31-.17.41-.3h.05c.14.1.43-.11.54-.2h.03c0 .07.05.1.13.1Z" fill="#E9C29D"/><path d="M10.63 7.09a.37.37 0 0 0-.2-.11l-.12-.12a.06.06 0 0 1 0-.1l.34-.37a.03.03 0 0 0 0-.04l-.09-.1a.08.08 0 0 1-.02-.07.08.08 0 0 1 .05-.05.47.47 0 0 0 .2-.16.08.08 0 0 1 .13.01l.07.11a.5.5 0 0 1 .13.16c.09.18-.14.25-.19.38a5.02 5.02 0 0 0-.19.5.22.22 0 0 1-.11-.04ZM9.56 6.22c.03.02.05.05.06.09.09.25.16.51.23.8a2.04 2.04 0 0 0-.65-.04c-.02 0-.03 0-.04-.02 0-.03 0-.05.03-.06.12.02.19-.04.2-.17a.46.46 0 0 0-.2-.44c-.08-.06-.15-.06-.22-.02a.07.07 0 0 0-.03.04l-.02.1c0 .01-.01.02-.03 0-.07-.08-.16-.1-.25-.08a.38.38 0 0 0-.13-.03l-.03-.01c0-.01 0-.03.02-.04a.07.07 0 0 1 .03-.01c.14-.03.32.04.43-.08.06-.05.12-.09.18-.1h.01v.03a.18.18 0 0 0-.06.04c-.01.02-.01.03.02.03l.45-.03Z" fill="#C04027"/><path d="M9.2 6.99c-.05-.1-.11-.14-.2-.15-.02 0-.03.01-.04.03l-.02.11c0 .02-.02.03-.03.04l-.06.02-.3.02a.1.1 0 0 1-.1-.08c-.05-.22-.03-.45.19-.56.1-.02.18 0 .25.08.02.02.03.01.03 0l.02-.1.03-.04c.07-.04.14-.04.21.02.16.11.23.26.21.44-.01.13-.08.19-.2.17Z" fill="#FCFCFC"/><path d="M8.64 6.42c-.22.1-.24.34-.2.56a.1.1 0 0 0 .11.08l.3-.02h.05l.01.02v.02l-.01.02h-.02c-.25.05-.48.14-.68.27a.06.06 0 0 1-.05 0c-.04 0-.06-.03-.06-.06L7.86 7l.1-.24a2.93 2.93 0 0 1 .56-.36l-.01-.02.13.03Z" fill="#F25B26"/><path d="M9.12 6.82c.03.04.08.06.1.04.02-.02.02-.06-.01-.1-.04-.04-.08-.06-.1-.04-.03.02-.02.06.01.1ZM8.74 6.9c.03.04.07.07.1.06.03-.02.03-.07 0-.12-.02-.05-.06-.07-.09-.06-.03.02-.03.07 0 .12Z" fill="#321E16"/><path d="M9.2 6.99c-.04 0-.05.03-.04.06l.04.02c.2-.03.43-.01.65.03.04.1.06.2.06.28 0 .16.02.3.05.4l-.04.33-.02.13a.05.05 0 0 1-.02.03.05.05 0 0 1-.04 0 2.2 2.2 0 0 0-1.26-.16l-.25.02v-.11a.05.05 0 0 0-.06-.04c-.2.1-.3-.2-.35-.35-.04-.16.01-.26.17-.32 0 .03.02.05.06.06h.05a1.93 1.93 0 0 1 .7-.27v-.02l.01-.02v-.02h-.06l.06-.02.03-.04.02-.1c0-.03.02-.04.04-.04.09 0 .15.06.2.15Z" fill="#E9C29D"/><path d="m10.63 7.09-.67 1.15c-.03-.02-.05-.06-.04-.13l.04-.32.48-.81c.08.02.15.06.19.1Z" fill="#028D4A"/><path d="M12.7 12.33c-.04-.2-.17-.3-.36-.32l.24-.21a.1.1 0 0 0 .03-.08.09.09 0 0 0-.04-.07c-.03-.02-.04-.04-.05-.06.09-.26.03-.48-.18-.64v-.02l.01-.01c.23.18.45-.1.27-.28-.05-.04-.1-.05-.14-.05-.03 0-.03 0-.02-.03l.05-.08a.06.06 0 0 0-.03-.09h-.03c-.05 0-.09.02-.11.06a.03.03 0 0 1-.03.02.03.03 0 0 1-.02 0c-.21-.22-.39.09-.18.23a.03.03 0 0 1 0 .04.2.2 0 0 1-.15.09c-.14 0-.23.04-.3.15-.02.02-.02.01-.02-.01 0-.06.04-.12.02-.2-.06-.3-.45-.31-.6-.08-.01.02-.02.02-.02 0 .01-.2.06-.38-.1-.53-.2-.2-.5-.07-.64.13-.07.11-.1.24-.1.4 0 .02 0 .02-.01 0-.03-.03-.04-.07-.07-.09-.11-.1-.22-.08-.3.04-.05.06-.06.15-.05.28 0 .02-.01.03-.03.02a.36.36 0 0 0-.23 0c.06-.18.03-.33 0-.5 0-.02.01-.03.03-.04l.25-.1c.07.01.14 0 .22-.04.08-.04.1-.1.07-.19l.36-.26c.02-.01.02-.02.01-.04l-.24-.42c.16.05.29.11.39.18.07.05.09.03.05-.04-.02-.03-.02-.07-.01-.11a.07.07 0 0 1 .05-.06.07.07 0 0 1 .07.02l.11.09.01-.01V9.4c-.07-.07-.21-.34-.07-.4.02-.02.04-.01.05 0l.11.16c.1.05.1.03.03-.05-.13-.14-.21-.48-.02-.63a.05.05 0 0 1 .04 0c.07.01.13.06.2.12l.15.28.04.03a.3.3 0 0 1 .14.15.02.02 0 0 0 .02.01c.03 0 .03-.02 0-.05-.11-.16-.2-.3-.23-.43a2.8 2.8 0 0 1-.1-.37c-.07-.42.04-1.08.6-1.06.41.19.33.73.35 1.09h.02l.01-.01.01-.31c.01-.05.02-.07.04-.09.03-.01.07 0 .12.04.02.02.04.01.04-.02.05-.25.28-.53.56-.37.01.01.02 0 .03-.01.06-.17.1-.29.22-.39.09-.07.16-.07.23 0 0 .02.02.02.03 0a.3.3 0 0 0 .03-.09c.05 0 .09.04.13.14.26.7.38 1.44.33 2.2a4.87 4.87 0 0 1-1.28 3Z" fill="#CADB2B"/><path d="M11.84 7.16c-.56-.02-.67.64-.6 1.06l.1.37c.04.13.12.27.24.43.02.03.02.05 0 .05a.02.02 0 0 1-.03 0 .3.3 0 0 0-.14-.16.1.1 0 0 1-.04-.03l-.15-.28a7.53 7.53 0 0 0-.05-.33 1.35 1.35 0 0 1-.02-.33c.03-.3.15-.61.43-.76.1-.05.2-.06.26-.02Z" fill="#696868"/><path d="M8.63 7.57c.23.02.45 0 .65-.08.02-.01.03-.05.02-.12.02-.05.06-.08.13-.09.02 0 .03 0 .03.02 0 .32-.16.8-.58.57a.51.51 0 0 1-.25-.3Z" fill="#560A1B"/><path d="M9.3 7.37c.01.07 0 .11-.02.12-.2.07-.42.1-.65.08a.2.2 0 0 1-.05-.13c0-.02 0-.03.02-.02.23.07.46.05.7-.05Z" fill="#FCFCFC"/><path d="M4.3 7.53c.18.07.42.14.72.23.27.07.45.24.54.52v.4c0 .03 0 .06.04.1.02 0 .02 0 .02-.02-.01-.28 0-.49.24-.64.11-.04.2 0 .25.1.08.14.1.27.04.41-.03.07-.01.08.05.04.04-.03.08-.04.12-.03.13.04.08.22.02.3h.01a.6.6 0 0 1 .62-.26c.16.03.17.25.16.4a.1.1 0 0 1-.02.06.04.04 0 0 1-.04.01.66.66 0 0 0-.12-.04h-.03c-.01.02-.02.03 0 .04l.04.04c-.02.08-.02.13 0 .13l-.58.1a.02.02 0 0 0-.01.04c.19.14.38.3.56.46.2.17.4.26.62.26.21 0 .38.02.5.04l-.03.04c-.18.21-.15.44-.1.7.01 0 0 .01 0 0a.24.24 0 0 0-.04-.04c-.06-.04-.14-.03-.23.02h-.01a.62.62 0 0 0-.15-.5c-.17-.18-.5-.19-.71-.06-.2.12-.3.3-.26.54 0 .05-.01.05-.04.02-.17-.13-.3-.02-.36.14v.02a.03.03 0 0 1-.04 0h-.02c-.15-.19-.41-.22-.57-.02-.09.11-.1.25-.04.4.02.02 0 .05-.05.1a.7.7 0 0 0-.44.34l-.06-.06a5 5 0 0 1-.66-4.34h.06Z" fill="#CADB2B"/><path d="m7.33 7.78.09.25c0 .13-.18.17-.27.2a.05.05 0 0 0-.04.04v.07a.06.06 0 0 1-.07.06.36.36 0 0 0-.24.07c-.1.08-.15.05-.14-.07 0-.06-.03-.13-.1-.21a.1.1 0 0 1 .04-.14c.09-.05.18-.06.26-.14.09-.08.17-.16.27-.23a.08.08 0 0 1 .1 0l.1.1Z" fill="#C04027"/><path d="m8.33 8.17.33-.03c.43 0 .86.1 1.27.3a.7.7 0 0 0 0 .09c-.02.07.03.16.04.24a.2.2 0 0 0-.05-.1c-.02-.01-.02 0-.03.01-.04.29-.18.52-.4.69a.05.05 0 0 0-.02.04c0 .05.02.08.04.08-.06.03-.1.07-.1.12 0 .02 0 .03.02.04l.14.18-.29-.24c-.1-.1-.31-.04-.44-.03l-.18-.04c-.1-.05-.18-.1-.26-.17-.04-.03-.06-.08-.11-.11a1.79 1.79 0 0 1-.1-.06 2.14 2.14 0 0 0-.48-.3c-.09-.05-.15-.05-.19.02l-.23-.06c-.01-.21.14-.32.34-.25l.27.1.22.14a.02.02 0 0 0 .03 0V8.8a.5.5 0 0 1 .04-.3v-.05c0-.03-.02-.04-.05-.05-.11-.15-.23-.29-.37-.42a.28.28 0 0 0-.17-.08c-.12-.01-.18.03-.18.12l-.09-.25c.12-.03.28-.11.4-.03l.18.14a8.01 8.01 0 0 1 .31.38.04.04 0 0 0 .03-.01l.08-.09Z" fill="#028D4A"/><path d="M9.92 8.1c0 .08 0 .12.04.14l-.03.2a3.2 3.2 0 0 0-1.27-.3c-.1 0-.2 0-.33.03v-.04l.25-.02.21-.03a2.2 2.2 0 0 1 1.07.2.05.05 0 0 0 .03-.02l.01-.02.02-.13ZM5.86 8.12c-.24.15-.25.36-.24.64 0 .02 0 .02-.02.01-.03-.03-.05-.06-.05-.09l.01-.4c.07 0 .13-.05.18-.11.03-.05.07-.06.12-.05Z" fill="#7CBE41"/><path d="M8.94 8.26c.1 0 .22.12.28.19.05.05.14.07.2.12a.1.1 0 0 1 0 .15c-.13.13-.27.16-.42.1-.16-.07-.26-.17-.28-.3-.04-.18.04-.27.22-.26Z" fill="#EB8B21"/><path d="M13.1 8.3c-.13.02-.2.13-.3.2-.02 0-.02 0-.01-.02a.34.34 0 0 1 .3-.2h.01v.02Z" fill="#7CBE41"/><path d="M8.92 8.47h.07c.03.01.03.02 0 .04s-.05.06-.04.1a.02.02 0 0 1 0 .02H8.9l-.02-.01-.04-.2a.08.08 0 0 1 .04-.08l.04-.01h.05c.02.02.02.03 0 .04a.16.16 0 0 0-.08.06c-.01.02 0 .04.02.04Z" fill="#5D3E24"/><path d="M8.14 8.41c.03.01.05.02.05.05v.06a.5.5 0 0 0-.04.29.02.02 0 0 1-.03.02l-.22-.14.24-.28ZM9.97 8.77l.24.58.24.42v.04l-.37.26c-.17-.21-.36-.4-.57-.58-.02 0-.04-.03-.04-.08 0-.02 0-.03.02-.04.22-.17.36-.4.4-.69 0-.02.01-.02.03 0a.2.2 0 0 1 .05.1Z" fill="#8C2C25"/><path d="M8.6 8.91h-.34c-.02.01-.04 0-.06-.01l-.02-.02c-.01-.02 0-.03.02-.04.31-.02.53-.02.66.02.18.06.35.18.51.36v.01l-.02.01h-.02c-.13-.13-.23-.2-.3-.21-.15-.03-.3-.1-.43-.12Z" fill="#CADB2B"/><path d="M7.52 8.9c0 .07 0 .1.02.12 0 .28.03.56.1.83.02.04 0 .07-.03.1l-.65-.76-.04-.04c-.02 0-.01-.02 0-.03h.03c.02 0 .06 0 .12.03a.04.04 0 0 0 .04-.01.1.1 0 0 0 .02-.06c.03.04.03.07 0 .1a.03.03 0 0 0 0 .03.03.03 0 0 0 .03.02c.05 0 .08-.01.11-.03a.05.05 0 0 0 .02-.05v-.31l.23.06Z" fill="#464646"/><path d="m8.66 9.52-.06.44a.1.1 0 0 0 0 .04c.04.12.04.24-.01.36 0 .01-.02.02-.03.01l-.1-.02-.04-.01c-.02-.01-.02-.03-.02-.04 0-.02.01-.03.03-.04.07-.04.1-.1.06-.17l.01-.04.01-.02L8.5 10a3.4 3.4 0 0 0-.1-.12c-.03-.03-.06-.04-.09-.02-.01 0-.02.02-.01.04v.02c.02.03 0 .04-.01.03-.05 0-.1-.03-.14-.04-.05 0-.11.02-.17.06-.02.02-.03.05 0 .07.03.04.06.08.11.1l.05.01a.8.8 0 0 1 .2-.01c.04 0 .04 0 0 .01l-.3.08a3.25 3.25 0 0 0-.49-.04.98.98 0 0 1-.62-.26 8.88 8.88 0 0 0-.57-.48.02.02 0 0 1 .02-.02l.58-.1c.15.3.37.51.65.63.04-.03.05-.06.04-.1a3.04 3.04 0 0 1-.11-.82.44.44 0 0 0 .17-.15c.17.07.33.17.48.3l.1.06c.05.03.07.08.1.1l.27.18Z" fill="#C04027"/><path d="M5.27 9.7c-.07-.18-.11-.32.05-.47.06-.05.17-.05.24-.01a.6.6 0 0 1 .3.38l-.01.01h-.01a.67.67 0 0 0-.25-.35c-.17-.1-.33-.01-.33.19 0 .13.05.24.14.33v.01h-.02c-.06-.02-.1-.02-.14 0-.02.02-.02.02-.02 0s.01-.04.04-.05c.01-.01.02-.02.01-.04Z" fill="#7CBE41"/><path d="M7.61 9.95c-.28-.12-.5-.32-.65-.63-.02 0-.02-.05 0-.13l.65.76Z" fill="#E9C29D"/><path d="M12.26 9.78c.1-.01.22-.11.34-.02.02.01.02.03.02.05.01.15-.05.25-.2.3-.02.01-.02 0 0-.01.08-.1.12-.2.12-.27a.04.04 0 0 0-.04-.05c-.19 0-.3.1-.42.22-.04.04-.05.03-.03-.02.03-.05.1-.11.1-.17a.77.77 0 0 0 .05-.34c-.04-.23-.25-.24-.41-.14a.79.79 0 0 0-.34.4c-.04.09.01.17.02.25V10a.02.02 0 0 1-.02 0h-.02l-.01-.02-.02-.12c0-.05-.02-.07-.05-.07a.21.21 0 0 0-.1.04h-.02c.02-.06.08-.07.14-.07.03 0 .06-.01.07-.06.1-.22.24-.37.44-.43.17-.05.3 0 .35.16.03.07.03.18 0 .33 0 .02.01.03.03.03Z" fill="#7CBE41"/><path d="M9.51 9.5c.21.16.4.36.57.57.03.1.01.15-.07.19a.45.45 0 0 1-.22.05c-.1-.03-.13-.1-.1-.2.06-.02.08-.05.06-.08a.88.88 0 0 0-.18-.2l-.14-.18a.06.06 0 0 1-.02-.04c0-.05.04-.09.1-.12Z" fill="#00A556"/><path d="M8.84 9.56c-.07.15-.1.32-.1.48 0 .02 0 .04.02.04l.17.08a.04.04 0 0 1 .02.02.04.04 0 0 1-.01.04c-.04.03-.05.08-.04.12a.03.03 0 0 1 0 .04h-.03l-.15-.03c-.03 0-.05.01-.05.05v.01c0 .03.01.04.04.04.07 0 .12.02.15.05l-.12.02h-.02l-.01-.01-.13-.11a.07.07 0 0 0-.05-.02c-.04 0-.06 0-.07-.03l.1.02.03-.01A.49.49 0 0 0 8.6 10a.1.1 0 0 1 0-.04l.06-.44.18.04Z" fill="#7CBE41"/><path d="M9.57 9.83c.08.06.13.13.18.2.02.03 0 .06-.06.08a1.2 1.2 0 0 0-.34 0c-.07 0-.1.04-.1.11l.03.32c-.03-.04-.08-.04-.15 0l-.27-.04c-.03-.03-.08-.05-.15-.05-.03 0-.04-.01-.04-.04v-.01c0-.04.02-.05.05-.05l.15.04h.01a.03.03 0 0 0 .02-.03v-.02c-.01-.04 0-.09.04-.12a.04.04 0 0 0 .01-.04.04.04 0 0 0-.02-.02l-.17-.08a.04.04 0 0 1-.03-.04c0-.16.04-.33.11-.48.13 0 .35-.06.44.03l.3.24Z" fill="#C04027"/><path d="M6.14 9.61c-.05.02-.08.06-.1.11l.01.05.03.08a.01.01 0 0 1-.01.02.31.31 0 0 1-.08-.1v-.04c.13-.26.28-.15.41.02v.01h-.04c-.04-.06-.14-.18-.22-.15ZM5.06 9.88a.1.1 0 0 0-.08.14l.04.09v.01H5l-.04.01-.02-.01-.03-.15A.12.12 0 0 1 5 9.84l.05-.01c.1 0 .2-.02.25.08.01.02 0 .03-.02.02a.4.4 0 0 0-.2-.05ZM8.42 10.34l-.03.06c-.01.02-.02.03-.04.02a.17.17 0 0 1-.08-.02v-.07c.02-.02.02-.03-.01-.04l-.24-.03.03-.04.3-.08c.03 0 .03 0 0-.01a.8.8 0 0 0-.21.01h-.05a.43.43 0 0 1-.12-.1c-.02-.03-.01-.06.01-.08.06-.04.12-.06.17-.06.05 0 .09.04.14.04.02 0 .03 0 .02-.03L8.3 9.9l.01-.04c.03-.02.06-.01.08.02a3.41 3.41 0 0 1 .12.16v.02c-.02.01-.02.03-.02.04.04.07.01.13-.06.17a.05.05 0 0 0-.03.04c0 .01 0 .03.02.04ZM12.73 10.06c.03.01.05.02.06 0l-.04-.04c-.03-.02-.06-.02-.06-.01 0 0 .01.03.04.05Z" fill="#7CBE41"/><path d="M6.06 10.35c-.02.02-.01.04.02.06.24.1-.03.4-.25.3-.03-.01-.06-.02-.08 0-.17.1-.46.15-.52-.1-.01-.08.07-.15.13-.18a.04.04 0 0 0 .02-.04c-.01-.12.04-.17.16-.15l.05.01c.02 0 .03 0 .03-.02.02-.32.42-.2.47.03 0 .04 0 .07-.03.1ZM12.52 11.6a.33.33 0 0 0-.14-.07c-.02 0-.03 0-.05.02l-.52.47a.04.04 0 0 1-.07-.03l-.12-.7a.05.05 0 0 0-.03-.03.42.42 0 0 0-.24-.06c-.07 0-.1.03-.1.09l-.32.4c-.39-.04-.62.1-.7.46l-.19.24-.1-.09v-.03c.04-.08.12-.1.16-.16.08-.14.1-.26.03-.38-.12-.24-.35-.26-.6-.28a.38.38 0 0 1 0-.18.4.4 0 0 0 0-.21.06.06 0 0 0-.07-.04c-.38 0-.77-.04-1.2 0a.08.08 0 0 0-.07.07c0 .07.01.13.05.19s.04.12 0 .15c-.25-.03-.5 0-.71.09a.1.1 0 0 0-.05.13c.1.16.13.33.12.5l-.35-.44-.05-.13c-.01-.04-.05-.07-.1-.07-.1 0-.2.03-.29.08l-.3-.36c-.02-.05-.06-.07-.12-.05-.28.07-.6.18-.94.3-.06-.15-.05-.29.04-.4.16-.2.42-.17.57.02a.03.03 0 0 0 .05 0l.01-.02c.05-.16.2-.27.36-.14.03.03.04.03.04-.02a.51.51 0 0 1 .26-.54c.2-.13.54-.12.71.07a.62.62 0 0 1 .15.49c.1-.05.18-.06.24-.02l.04.04c0 .01.01 0 0 0-.05-.27-.08-.49.1-.7l.24.03c.03 0 .03.02.02.04l-.02.03v.02l.01.02.07.02c.03 0 .04 0 .05-.02l.03-.06h.04c0 .03.03.04.07.04.02 0 .04 0 .05.02l.13.1a.04.04 0 0 0 .03.02l.12-.02.27.03c.1.07.09.17.1.27 0 .02.02.03.03.03l.09-.01.06.07c.03.04.06.06.1.05a.36.36 0 0 1 .23 0c.02 0 .03 0 .03-.02-.01-.13 0-.22.04-.28.1-.12.2-.13.31-.04.03.02.04.06.07.1l.02-.01c-.01-.16.02-.29.1-.4.13-.2.43-.33.64-.13.15.15.1.33.1.53-.01.02 0 .02 0 0 .16-.23.55-.21.61.08.02.08-.02.14-.02.2 0 .02 0 .03.02 0 .07-.1.16-.13.3-.14a.2.2 0 0 0 .16-.1v-.02a.03.03 0 0 0-.01-.01c-.2-.14-.03-.45.18-.24a.03.03 0 0 0 .02.01.03.03 0 0 0 .03-.02c.02-.04.06-.06.11-.06h.03a.06.06 0 0 1 .03.09l-.05.08c-.01.02 0 .03.02.03.05 0 .1 0 .13.05.19.18-.03.46-.26.28h-.01v.03c.2.16.27.38.18.64Z" fill="#00A556"/><path d="M9.69 10.1c-.03.12 0 .18.1.2l-.25.1c-.02 0-.02.02-.02.04.02.17.05.32-.01.5-.04 0-.07 0-.1-.05a1.7 1.7 0 0 0-.06-.07l-.07-.28-.03-.32c0-.07.03-.11.1-.12h.34Z" fill="#464646"/><path d="m9.28 10.54.07.28a.21.21 0 0 1-.09.01c-.01 0-.02 0-.03-.03-.01-.1 0-.2-.1-.27.07-.03.12-.03.15 0Z" fill="#CADB2B"/><path d="M10.33 10.78v-.03h.03c.2.22.32.47.38.75 0 0 0 .02-.02.02-.03 0-.04 0-.04-.02-.07-.26-.18-.5-.35-.72Z" fill="#028D4A"/><path d="m9.53 11.27-.52.01c-.01 0-.02.01-.02.03v1.49c0 .03-.01.04-.04.04h-.2c-.03 0-.05-.02-.05-.06v-1.45c0-.03-.02-.05-.05-.05h-.4a.26.26 0 0 1-.06-.19.08.08 0 0 1 .08-.08c.42-.03.81 0 1.2 0a.06.06 0 0 1 .05.05.4.4 0 0 1 .01.21ZM6.5 11.23v.19c0 .02 0 .03-.02.04l-.66.2-.02.02v.02l.04.22c0 .03.02.04.05.03l.5-.16c.06-.02.1 0 .1.05l.03.09c.02.05 0 .1-.06.12l-.5.2-.01.03.27.84c-.1-.03-.2-.1-.31-.19l-.2-.18-.3-1.17c.04-.05.06-.08.04-.1.34-.12.66-.23.94-.3.06-.02.1 0 .12.05ZM12.52 11.6l.05.05a.09.09 0 0 1 .03.11.1.1 0 0 1-.02.04l-.24.2c-.15.13-.3.26-.43.4a.36.36 0 0 0-.1.14l-.04.16-.13.5c-.04.06-.12.12-.25.19-.07-.05-.1-.1-.09-.12a5.88 5.88 0 0 0 .2-.95 92.7 92.7 0 0 1-.17-.78 1.43 1.43 0 0 0-.08-.25c0-.06.03-.1.1-.1.1 0 .17.02.24.07.02 0 .02.02.03.03l.12.7a.04.04 0 0 0 .03.04.04.04 0 0 0 .04-.01l.52-.47a.05.05 0 0 1 .05-.02c.05 0 .1.03.14.06Z" fill="#F25B26"/><path d="M6.81 11.6a11.84 11.84 0 0 0-.36 1.4l.02.01h.03l.15-.02a.08.08 0 0 0 .06-.08v-.15a.03.03 0 0 1 .03-.02l.43-.08a.07.07 0 0 1 .07.03l.01.02.04.23c.01.05.04.07.09.06l.12-.04c.05-.02.07-.05.06-.1l-.31-1.15.35.44c.06.16.06.3.02.4a.11.11 0 0 0 0 .1c.07.1.1.21.13.33a.08.08 0 0 0 .06.06h.04l.09-.03c.05-.01.07-.05.06-.1l-.04-.22a.04.04 0 0 1 .02-.04c.08-.05.14-.03.2.05l.13.2c.04.05.08.05.13.02l.09-.07c.03-.03.04-.06 0-.1l-.18-.24v-.04c.3-.34.26-.69-.1-1.04.03-.03.03-.09 0-.15h.4c.03 0 .05.02.05.05v1.45c0 .04.02.06.06.06h.19c.03 0 .04-.01.04-.04v-1.5l.02-.02.52-.01a.38.38 0 0 0 0 .18l-.24.02-.03.01-.02.03-.04 1.5c0 .02.01.04.04.04.28.02.74.13.86-.3a.46.46 0 0 0-.06-.36l.2-.24c-.09.38.05.92.53.92.25 0 .4-.1.49-.35.16-.44.06-.78-.33-1.02l.32-.41.08.25.18.78-.01.19c-.05.25-.11.5-.2.76-1.56.05-3.13-.03-4.7.12l-.23-.13a.4.4 0 0 1-.15-.14l-.27-.84c0-.02 0-.03.02-.03l.49-.2c.06-.03.08-.07.06-.12l-.02-.09c-.02-.05-.05-.07-.1-.05l-.51.16c-.03 0-.04 0-.05-.03l-.04-.22v-.02l.02-.01.66-.21.02-.04v-.2l.31.37Z" fill="#085C33"/><path d="M8.24 11.43c.37.35.4.7.1 1.04v.04l.2.25c.03.03.02.06-.01.1l-.09.06c-.05.03-.09.03-.13-.02a3.53 3.53 0 0 1-.14-.2c-.05-.08-.11-.1-.2-.05a.04.04 0 0 0-.01.04l.04.22c0 .05-.01.09-.06.1l-.1.03a.08.08 0 0 1-.08-.03l-.01-.03a.88.88 0 0 0-.13-.32.11.11 0 0 1 0-.1c.04-.11.04-.25-.02-.4a.87.87 0 0 0-.12-.51.1.1 0 0 1 .05-.13c.22-.1.46-.12.71-.09ZM9.53 11.45c.25.02.48.04.6.28.06.12.05.24-.03.38-.04.06-.12.08-.16.16v.03l.1.09c.07.12.1.24.06.36-.12.43-.58.32-.86.3-.03 0-.04-.02-.04-.05l.04-1.49s0-.02.02-.03l.03-.01.24-.02ZM7.25 11.71l.3 1.15c.02.05 0 .08-.05.1l-.12.04c-.05.01-.08 0-.09-.05l-.04-.24a.07.07 0 0 0-.03-.04.07.07 0 0 0-.05-.01l-.43.08h-.02V12.92a.08.08 0 0 1-.07.08L6.5 13a.05.05 0 0 1-.06-.06c.1-.47.23-.93.37-1.36a.62.62 0 0 1 .3-.08c.04 0 .08.03.1.07l.04.13Z" fill="#F25B26"/><path d="m5.4 11.58.31 1.17a3.6 3.6 0 0 1-.75-.83.7.7 0 0 1 .44-.34Z" fill="#00A556"/><path d="M7.8 11.67a.03.03 0 0 1 .03-.03h.02c.1-.01.2.01.28.07.07.06.13.15.14.24v.03c.02.1-.01.2-.07.27a.38.38 0 0 1-.25.14h-.02a.03.03 0 0 1-.02 0v-.02l-.1-.7ZM9.49 11.7a.03.03 0 0 1 .02-.03h.03c.1 0 .2.02.26.07.07.05.1.1.1.17v.01c0 .03 0 .06-.02.1a.26.26 0 0 1-.09.07.42.42 0 0 1-.12.05.55.55 0 0 1-.14.01H9.5a.03.03 0 0 1-.02-.02v-.44Z" fill="#085C33"/><path d="M10.93 11.7c.39.24.5.58.33 1.02-.1.24-.24.35-.5.35-.47 0-.6-.54-.53-.92.08-.35.31-.5.7-.45Z" fill="#F25B26"/><path d="M6.87 12.44a.04.04 0 0 1-.04-.01.04.04 0 0 1 0-.04c.05-.18.1-.32.11-.41.03-.1.05-.1.09 0a4.5 4.5 0 0 1 .1.4l-.01.01-.25.05ZM10.54 12.1a.12.12 0 0 1 .11-.13h.04c.1 0 .19.03.26.1.07.06.11.15.12.25v.1c0 .1-.03.2-.1.27a.35.35 0 0 1-.24.12h-.03a.12.12 0 0 1-.13-.11l-.03-.6Z" fill="#085C33"/><path d="M12.34 12c.2.03.32.13.37.33v.02a5.11 5.11 0 0 1-.99.82.84.84 0 0 0-.08.03 26.7 26.7 0 0 0 .18-.66c.02-.06.05-.1.09-.14l.43-.4Z" fill="#00A556"/><path d="m9.45 12.42.01-.01h.05l.14.01.12.04c.04.02.06.04.08.07.02.03.03.05.03.08v.02c0 .05-.04.1-.1.15a.54.54 0 0 1-.26.06h-.05a.01.01 0 0 1-.01 0l-.01-.42Z" fill="#085C33"/><path d="M11.3 13.27c0 .03.02.07.09.12a4.94 4.94 0 0 1-4.78 0c1.56-.15 3.13-.07 4.7-.12Z" fill="#028D4A"/><defs><linearGradient id="a" x1="3.35" y1="3.12" x2="21.9" y2="24.43" gradientUnits="userSpaceOnUse"><stop stop-color="#1A1E21"/><stop offset="1" stop-color="#06060A"/></linearGradient></defs></svg>