<!-- by TradingView --><svg width="18" height="18" viewBox="0 0 18 18" xmlns="http://www.w3.org/2000/svg"><path fill="url(#a1vz040wn)" d="M0 0h18v18H0z"/><path d="M15 9a6 6 0 1 1-.1-1.13h-1.93a4.13 4.13 0 1 0 .09 1.88H9a.75.75 0 0 1 0-1.5H14.95c.03.25.05.5.05.75ZM9 5.25c1.68 0 3.1 1.1 3.58 2.63H10.5a1.87 1.87 0 1 0 0 2.25h2.08A3.75 3.75 0 1 1 9 5.25Z" fill="url(#b1vz040wn)"/><defs><linearGradient id="a1vz040wn" x1="3.35" y1="3.12" x2="21.9" y2="24.43" gradientUnits="userSpaceOnUse"><stop stop-color="#1A1E21"/><stop offset="1" stop-color="#06060A"/></linearGradient><linearGradient id="b1vz040wn" x1="5.44" y1="4.5" x2="13.5" y2="12.56" gradientUnits="userSpaceOnUse"><stop stop-color="#CC9428"/><stop offset=".27" stop-color="#EED575"/><stop offset=".47" stop-color="#D19A2D"/><stop offset=".65" stop-color="#F7E8CC"/><stop offset=".76" stop-color="#D59F34"/><stop offset="1" stop-color="#F0E082"/></linearGradient></defs></svg>