<!-- by TradingView --><svg width="18" height="18" viewBox="0 0 18 18" xmlns="http://www.w3.org/2000/svg"><path fill="#181B1E" d="M0 0h18v18H0z"/><path fill-rule="evenodd" d="M14.92 8.7c.1.19.1.41 0 .6l-1.32 2.16c.48.08.8.42.8.65 0 .22-.14.45-.2.54a1.12 1.12 0 0 0-.7-.24c-.26 0-.53.2-.71.38l-.56.92a.62.62 0 0 1-.54.29H6.31a.62.62 0 0 1-.54-.3L3.08 9.3a.57.57 0 0 1 0-.6l1.28-2.08c-.46-.1-.74-.42-.74-.64 0-.23.13-.46.2-.54.08.08.35.24.7.24.19 0 .4-.12.56-.25l.7-1.14c.1-.18.3-.29.53-.29h5.38c.22 0 .43.11.54.3l2.69 4.4Zm-1 0a.6.6 0 0 1 0 .6l-2.2 3.77a.6.6 0 0 1-.53.3h-4.4a.6.6 0 0 1-.53-.3l-2.2-3.76a.6.6 0 0 1 0-.62l2.2-3.76a.6.6 0 0 1 .52-.3h4.41a.6.6 0 0 1 .53.3l2.2 3.76Z" fill="url(#anhlhrtn1)"/><path d="M7.4 8.91A1 1 0 0 1 6 8a1 1 0 0 1 2-.05L7.75 8a.75.75 0 1 0-.43.68l.09.23Z" fill="url(#bnhlhrtn1)"/><path d="m7.6 9.65 2.2-.48.2.32-2.24.48c-.14.03-.3.03-.45.03C6.03 10 5 9.1 5 8s1.03-2 2.3-2c1.16 0 2.11.73 2.29 1.68l-.38.07c-.14-.8-.94-1.42-1.9-1.42-1.06 0-1.93.75-1.93 1.67 0 .92.87 1.67 1.93 1.67l.29-.02Z" fill="url(#cnhlhrtn1)"/><path d="m10.4 8.35-2.2.48-.2-.32 2.25-.47c.14-.03.29-.04.44-.04 1.28 0 2.31.9 2.31 2s-1.03 2-2.3 2c-1.16 0-2.11-.73-2.29-1.68l.38-.07c.14.8.94 1.42 1.9 1.42 1.06 0 1.93-.75 1.93-1.67 0-.92-.87-1.67-1.93-1.67l-.29.02Z" fill="url(#dnhlhrtn1)"/><path d="M10.55 9.1A1.01 1.01 0 0 1 12 10a1 1 0 0 1-1 1 1 1 0 0 1-1-.81l.25-.05c.06.35.37.61.74.61.42 0 .76-.34.76-.75a.75.75 0 0 0-1.11-.66l-.1-.24Z" fill="url(#enhlhrtn1)"/><defs><linearGradient id="anhlhrtn1" x1="3.55" y1="5.89" x2="14.25" y2="12.73" gradientUnits="userSpaceOnUse"><stop stop-color="#F55456"/><stop offset="1" stop-color="#6D24EA"/></linearGradient><linearGradient id="bnhlhrtn1" x1="7.5" y1="7.18" x2="6.26" y2="8.66" gradientUnits="userSpaceOnUse"><stop stop-color="#D04E4F"/><stop offset="1" stop-color="#E56266"/></linearGradient><linearGradient id="cnhlhrtn1" x1="8.32" y1="6.23" x2="6.46" y2="10.3" gradientUnits="userSpaceOnUse"><stop stop-color="#6ABC8B"/><stop offset="1" stop-color="#7DD2A1"/></linearGradient><linearGradient id="dnhlhrtn1" x1="8.41" y1="10.92" x2="12.83" y2="9.35" gradientUnits="userSpaceOnUse"><stop stop-color="#7540ED"/><stop offset="1" stop-color="#531FCC"/></linearGradient><linearGradient id="enhlhrtn1" x1="10.99" y1="11" x2="10.99" y2="9.25" gradientUnits="userSpaceOnUse"><stop stop-color="#D14F2B"/><stop offset="1" stop-color="#F67555"/></linearGradient></defs></svg>