<!-- by TradingView --><svg width="18" height="18" viewBox="0 0 18 18" xmlns="http://www.w3.org/2000/svg"><path fill="#F0F3FA" d="M0 0h18v18H0z"/><path d="M9.18 5.25c.01-.18.18-.31.3-.44A.47.47 0 0 0 9.18 4a.47.47 0 0 0-.38.75c.11.14.25.3.23.49v.1c-.02.12-.13.22-.26.27-.12.06-.26.07-.36-.01l-.15-.12c-.15-.12-.18-.35-.18-.54a.63.63 0 1 0-.52.61c.21-.03.46-.06.63.07l.03.03c.15.12.18.34.18.54 0 .04-.03.07-.07.08-.18.05-.35.11-.51.19-.2.09-.41.06-.62.04h-.06c-.21 0-.46-.01-.6-.17l-.07-.08c-.12-.13-.11-.33-.11-.5a.47.47 0 1 0-.47.46c.16 0 .34.01.45.13l.07.08c.15.17.13.42.1.65v.07l-.52.07c-.25.04-.48-.15-.69-.29a.62.62 0 1 0 .28.52v-.01l.83-.12c.07-.01.14.04.18.1.02.06.03.12 0 .17a2.8 2.8 0 0 0-.3.73.09.09 0 0 1-.09.06.63.63 0 0 0-.46.2c-.13.15-.29.28-.48.27-.18-.02-.31-.18-.44-.32a.47.47 0 1 0-.06.7c.15-.1.3-.24.49-.23l.1.01c.13.01.23.13.28.25.05.12.06.26-.02.37l-.12.14c-.12.15-.34.18-.54.18a.63.63 0 1 0 .62.52c-.04-.21-.07-.46.07-.63l.02-.03c.12-.15.35-.18.54-.18.04 0 .08.03.09.07.04.18.1.35.18.51.1.19.07.41.05.62a.63.63 0 0 0 0 .12c.02.2.02.42-.12.57l-.03.03c-.12.12-.31.12-.48.12a.47.47 0 1 0 .47.46c0-.16 0-.35.12-.47l.14-.15c.08-.07.2-.08.3-.04.1.04.2.12.2.23l.02.2c.02.23-.15.43-.3.6a.63.63 0 1 0 .86-.07c-.18-.14-.38-.3-.4-.54l-.02-.24c0-.09.06-.16.14-.2a.22.22 0 0 1 .2 0c.22.13.46.22.71.29.04 0 .07.04.07.08 0 .19.08.35.2.46.14.13.28.3.26.48-.02.18-.18.31-.31.44a.47.47 0 0 0 .32.81.47.47 0 0 0 .37-.75c-.1-.14-.24-.3-.22-.49v-.1c.02-.12.13-.22.25-.27.12-.06.27-.07.37.01l.15.12c.15.12.17.35.17.54a.63.63 0 1 0 .53-.61c-.22.03-.46.06-.63-.07l-.03-.03c-.16-.12-.18-.34-.18-.54 0-.04.03-.07.06-.08.18-.05.36-.11.52-.19.19-.09.41-.06.62-.04a.67.67 0 0 0 .12 0c.2-.02.42-.03.57.12l.03.03c.12.12.12.3.12.47a.47.47 0 1 0 .47-.46c-.17 0-.36 0-.48-.12l-.03-.03c-.14-.15-.14-.37-.12-.57v-.06l.01-.02.52-.07c.25-.04.48.15.68.29.1.07.23.1.36.1a.63.63 0 1 0-.63-.62l-.01.01-.82.12c-.08.01-.15-.04-.18-.1a.18.18 0 0 1 0-.17c.13-.23.23-.47.3-.73a.09.09 0 0 1 .08-.06c.21 0 .4-.1.51-.26.1-.15.25-.3.43-.3.17 0 .31.15.43.27a.47.47 0 1 0 0-.68c-.12.12-.26.26-.43.26h-.11c-.12 0-.21-.09-.26-.2-.05-.1-.06-.22 0-.31l.14-.17c.13-.15.35-.18.55-.18a.63.63 0 1 0-.62-.52c.03.21.06.46-.07.63l-.02.03c-.13.15-.35.18-.55.18a.09.09 0 0 1-.08-.07 2.8 2.8 0 0 0-.19-.51c-.09-.19-.06-.41-.04-.62a.61.61 0 0 0 0-.12c-.02-.2-.02-.42.12-.57l.03-.03c.12-.12.3-.12.48-.12a.47.47 0 1 0-.47-.46c0 .16 0 .35-.12.47l-.03.03c-.15.15-.37.14-.57.12h-.07v-.01l-.08-.51c-.04-.25.15-.48.29-.7a.63.63 0 1 0-.52.27l.01.02.12.82c.01.08-.04.15-.1.18a.18.18 0 0 1-.18 0 2.8 2.8 0 0 0-.73-.3.09.09 0 0 1-.06-.08.62.62 0 0 0-.2-.46c-.14-.13-.28-.3-.26-.48Zm-.99 1.39c.19-.07.38.03.56.12a.63.63 0 0 0 .53 0c.17-.09.37-.19.55-.12l.26.1c.14.07.18.23.18.38 0 .35.28.63.62.63.16 0 .32.04.39.18l.1.25c.07.19-.03.38-.12.56a.62.62 0 0 0 0 .52c.09.18.19.37.12.56l-.1.25c-.07.14-.23.18-.39.18a.63.63 0 0 0-.62.63c0 .15-.04.31-.18.38l-.26.1c-.18.07-.38-.03-.55-.12a.63.63 0 0 0-.53 0c-.18.09-.37.19-.56.12a2.47 2.47 0 0 1-.25-.1c-.14-.07-.18-.23-.18-.38a.63.63 0 0 0-.63-.63c-.15 0-.32-.04-.38-.18a2.48 2.48 0 0 1-.1-.25c-.07-.19.03-.38.11-.56a.62.62 0 0 0 0-.52c-.08-.18-.18-.37-.11-.56.02-.09.06-.17.1-.25.06-.14.23-.18.38-.18.35 0 .63-.28.63-.63 0-.15.04-.31.18-.38l.25-.1Z" fill="url(#azllscl1q)"/><defs><linearGradient id="azllscl1q" x1="6.19" y1="5.41" x2="12.59" y2="10.88" gradientUnits="userSpaceOnUse"><stop stop-color="#CCF404"/><stop offset="1" stop-color="#46BE10"/></linearGradient></defs></svg>