<!-- by TradingView --><svg width="18" height="18" viewBox="0 0 18 18" xmlns="http://www.w3.org/2000/svg"><path fill="url(#a)" d="M0 0h18v18H0z"/><path fill-rule="evenodd" d="M9.48 12.25c.04.03.03.04-.02.04H6.76l-.01.02V13l.02.01h7.87c.1 0 .18-.01.22-.03.1-.04.15-.12.14-.24a.22.22 0 0 0-.03-.1l-1.39-2.3a.07.07 0 0 0-.04-.02.07.07 0 0 0-.05 0l-.9.5c-.46.25-.97.21-1.36-.11-.32-.27-.44-.63-.36-1.08l.3-1.75c.02-.07.04-.07.07-.02l1.3 2.15c.01.02.03.02.04 0l.58-.3c.02-.02.02-.03 0-.05L9.2 3.1a.17.17 0 0 0-.08-.08c-.15-.06-.28 0-.38.18a679.06 679.06 0 0 1-1.35 2.26 30.66 30.66 0 0 1 1 .57c.6.36.7 1.15.24 1.67a2.1 2.1 0 0 1-.8.41l-1.5.53c-.04.01-.05 0-.03-.02l1.31-2.18c.02-.02.01-.04-.01-.05l-.55-.3h-.04a.06.06 0 0 0-.03.02l-3.95 6.52a.23.23 0 0 0 0 .24c.03.04.06.07.1.09.03.02.08.04.12.04h2.73c.03 0 .04-.02.04-.05v-.81c0-.29.02-.5.07-.62.2-.56.87-.82 1.46-.67.18.04.43.2.77.46l1.16.94Zm2.17.05.02-.01h2.21c.03 0 .04 0 .02-.03l-.59-.99a.05.05 0 0 0-.03-.02h-.04c-.2.12-.36.2-.47.25-.6.27-1.27.22-1.83-.13-.6-.38-.93-1.1-.8-1.76a8609.98 8609.98 0 0 1 .65-3.77l-.01-.02a.05.05 0 0 0-.06 0l-.48.26a.06.06 0 0 1-.04.01.06.06 0 0 1-.04-.03L9.03 4.2l-.01-.02a.04.04 0 0 0-.05.02l-.58.95a.07.07 0 0 0 .03.1c.45.2.78.47 1 .83.2.35.27.73.21 1.15-.06.44-.27.8-.62 1.09-.16.14-.53.31-1.1.51A646.66 646.66 0 0 0 4.7 10V10l.02.01.5.27a.06.06 0 0 1 .02.04.06.06 0 0 1 0 .05L4.1 12.24c-.01.03 0 .05.03.05h1.08c.03 0 .04 0 .04-.03V11.85c0-.6.46-1.16 1-1.48a1.9 1.9 0 0 1 1.62-.16c.2.06.45.22.74.45l.3.22c.44.34 1.35 1.02 2.65 2.06h.04l.01-.01v-.6l.02-.02Z" fill="#fff"/><defs><linearGradient id="a" x1="-1.36" y1="0" x2="18" y2="16.15" gradientUnits="userSpaceOnUse"><stop offset=".08" stop-color="#5356BC"/><stop offset=".53" stop-color="#0B0B41"/><stop offset="1" stop-color="#5154BD"/></linearGradient></defs></svg>