<!-- by TradingView --><svg width="18" height="18" viewBox="0 0 18 18" xmlns="http://www.w3.org/2000/svg"><path fill="#F0F3FA" d="M0 0h18v18H0z"/><path d="M8.62 3.01c.17.18.42.28.74.3.23.02.4.04.5.08.37.1.74.23 1.11.37l.6.95c-.3.4 0 .8.44.85.33.4.62.56 1.2.94.13.08.3.26.5.53.1.15.25.22.43.17-.14.3-.26.43-.44.65-.24.28-.32.55-.32.9-.34.18-.6.43-.8.75-.62.03-.76.48-1 1.01-.24-.42-.02-.7.07-1.07.07-.29.4-.54.74-.89.13-.13.17-.29.11-.48.34-.1.65-.23.94-.4.16-.15.28-.54-.03-.6a.32.32 0 0 0-.2-.02c-.16.03-.28.05-.36.04-.16-.27-.38-.5-.67-.68l-.3-.21-.33-.27c-.3-.25-.49-.74-.65-1.1a2.1 2.1 0 0 0-.38-.55l.01-.33a.12.12 0 0 0-.06-.11.12.12 0 0 0-.13.01c-.22.17-.45.3-.7.4l-.22-.03.6-.3c.03-.02.03-.04 0-.06a.58.58 0 0 0-.24-.15c-.7-.2-1.8-.26-2.29.39L7.31 4c-.07-.06-.15-.06-.25 0a1.2 1.2 0 0 0 .42-.61.04.04 0 0 0-.03-.04l-.12.01c-.02 0-.04 0-.06-.02a.18.18 0 0 0-.08-.06c.46-.15.94-.24 1.43-.27Z" fill="#F1F7AC"/><path d="m11.85 3.72-.65.03-.23.01a12.3 12.3 0 0 0-1.11-.37c-.1-.04-.27-.06-.5-.08a1.15 1.15 0 0 1-.74-.3 6 6 0 0 1 3.23.71Z" fill="#DCF5CE"/><path d="M7.19 3.28c.03.01.06.03.08.06.02.02.04.03.06.02a.27.27 0 0 1 .12 0 .04.04 0 0 1 .03.04c-.07.23-.21.43-.41.6 0 .02-.03.05-.07.08a1.4 1.4 0 0 0-.26.33c-.25.56-.52 1.2-.9 1.58-.23.24-.42.5-.55.76a.06.06 0 0 1-.05.04l-.18.02a.22.22 0 0 0-.08.03c-.43.14-.28.56.02.73l.3.17c.14.6.49.96.92 1.4.57.57.78 1.38.94 2.16.11.53.17.96.36 1.37.2.43.33.73.66.99v.41a.2.2 0 0 0 .13.2c.29.09.46 0 .5-.3.66.29 1.33.24 2-.14.06.1.13.2.21.28-.45.62-1.12.56-1.8.64a2.8 2.8 0 0 1-.76.01c-.25-.04-.5-.12-.73-.23l-.13-.08-.42-1.1c-.3-.8-.51-1.63-.76-2.45a3.33 3.33 0 0 0-1.14-1.7 1.43 1.43 0 0 0-.57-.3 2.38 2.38 0 0 1-.48-1.75c.06-.44.28-.87.64-1.3l.91-1.1c.1-.26.14-.55.1-.87a6 6 0 0 1 1.3-.6Z" fill="#FEFEC1"/><path d="M9.64 4.24c-.52.01-1.02.04-1.5.07-.18.02-.39-.06-.65-.21.5-.65 1.6-.58 2.29-.39.1.03.18.08.25.15.02.02.02.04-.01.05l-.6.3v.01l.22.02Z" fill="#ECE773"/><path d="M11.85 3.72a6 6 0 0 1 2.1 1.9c-.4-.05-.81-.11-1.21-.18-.18-.04-.43-.2-.62 0l-.11.12c-.44-.06-.73-.45-.44-.85l.46-.4a.08.08 0 0 0 .03-.08l-.04-.27a.06.06 0 0 0-.05-.05l-.77-.16.65-.03Z" fill="#D0ECE2"/><path d="m11.2 3.75.77.16c.03 0 .04.02.05.05l.04.27c0 .03 0 .05-.03.07l-.46.41-.6-.95.23-.01Z" fill="#FEFFE1"/><path d="m10.52 4.28-.06.44-.03.27-.05.32c-.21-.01-.39-.1-.51-.26-.34-.43-.66-.7-1.2-.66-.04 0-.04.01 0 .02l.05.02h.08a.7.7 0 0 0-.36.06c-.18.12-.16.39-.11.56a3.17 3.17 0 0 1 .08.5.12.12 0 0 1-.1.08c-.11.01-.22.05-.33.1-.13.04-.2.09-.23.16-.08.2-.18.34-.3.44l-.05-.08-.08-.45c.1-.23.2-.46.34-.69.07-.13.1-.34.1-.62a.07.07 0 0 0-.04-.06l-.51-.37c-.04-.02-.03-.04 0-.06h.1l.18.1c.26.15.47.23.64.21.49-.03 1-.06 1.51-.07.25-.09.48-.22.7-.39a.12.12 0 0 1 .18.03l.02.07-.02.33Z" fill="#605547"/><path d="M5.88 3.88c.04.32 0 .6-.1.87-.27-.09-.5-.1-.77-.24a6 6 0 0 1 .87-.63Z" fill="#D0ECE2"/><path d="M7.3 4h-.08c-.04.02-.05.04-.01.06l.51.37.03.06c.02.28-.02.5-.1.62-.12.23-.24.46-.33.7l-.04-.1L7 4.08c.04-.03.06-.06.07-.09.1-.05.17-.05.24 0Z" fill="#746D64"/><path d="m7 4.08.28 1.63c-.4.34-.7.75-.9 1.22-.02.03 0 .05.02.06.24.1.49.13.74.11a.1.1 0 0 0 .09-.08l.08-.67c0-.02.02-.04.04-.06a.18.18 0 0 0 .05-.04l.04.08-.04.65c0 .1-.04.18-.1.24-.06.05-.14.07-.24.06a1.73 1.73 0 0 1-.48-.12 4.05 4.05 0 0 0-1.25-.33l-.27-.02.18-.02c.02 0 .04-.02.05-.04.13-.27.32-.52.55-.76.38-.38.65-1.02.9-1.58.03-.07.12-.18.26-.33ZM10.52 4.28c.19.2.31.39.38.55.16.36.35.85.65 1.1l.33.27.3.2c.29.2.5.42.67.7l-.44.05a6.27 6.27 0 0 1-1.73-2.1 2.53 2.53 0 0 0-.22-.33l.06-.44Z" fill="#FEFA92"/><path d="m10.38 5.3-.05.64-.63-.43c.04-.22-.05-.35-.27-.38-.23-.04-.3.14-.28.32.01.17.29.15.41.15a.66.66 0 0 1-.37-.01.09.09 0 0 1-.06-.06.58.58 0 0 1 .04-.4c.04-.1.17-.13.23-.18a.07.07 0 0 0 .02-.06c-.04-.34-.38-.53-.7-.46l-.05-.02c-.04 0-.04-.01 0-.02.54-.05.86.23 1.2.66.12.16.3.25.51.26Z" fill="#746D64"/><path d="M9.56 5.6c.08 0 .13-.04.14-.1l.63.44c0 .25.05.5.15.76a.43.43 0 0 0-.17.12l-.52.27h-.04a3.58 3.58 0 0 1-.44-.66c-.1-.2-.26-.36-.38-.56-.06-.12-.14-.17-.26-.14a.1.1 0 0 0-.06.05l-.12.2.04-.26c0-.03.02-.05.05-.05a.58.58 0 0 1 .35.02c.03 0 .05.02.06.05l.14.23a.1.1 0 0 0 .06.05c.19.03.31-.03.37-.2a.09.09 0 0 0-.06-.1l-.38-.12c-.02 0-.04-.02-.04-.05-.01-.35.1-.7-.05-1.06a.5.5 0 0 0-.23-.05l-.08-.01c.32-.07.66.12.7.46 0 .02 0 .05-.02.06-.06.05-.2.08-.23.18a.58.58 0 0 0-.04.4.09.09 0 0 0 .06.06c.13.04.25.04.37.01Z" fill="#A09687"/><path d="M8.8 4.44c.1 0 .18.02.23.05 0 .42-.14.76-.42 1.02a.06.06 0 0 1-.1-.02c-.1-.32-.12-.65-.07-1a.7.7 0 0 1 .36-.05Z" fill="#E6E4EF"/><path d="M8.44 4.5a2.25 2.25 0 0 0 .1 1.01.06.06 0 0 0 .07 0c.28-.26.42-.6.42-1.02.15.36.04.7.05 1.06 0 .03.02.05.04.05l.38.11a.09.09 0 0 1 .06.12c-.06.16-.18.22-.37.2a.1.1 0 0 1-.06-.06l-.14-.23a.12.12 0 0 0-.06-.05.58.58 0 0 0-.35-.02.06.06 0 0 0-.05.05l-.04.26c-.18.12-.36.3-.56.08a.08.08 0 0 1-.02-.08l.07-.25c.11-.05.22-.09.33-.1a.12.12 0 0 0 .1-.09V5.5a3.17 3.17 0 0 0-.08-.45c-.05-.17-.07-.44.1-.56Z" fill="#CDC7CD"/><path d="M5.01 4.51c.27.14.5.15.77.24-.31.37-.62.73-.91 1.1-.36.43-.58.86-.64 1.3-.1.66.11 1.21.48 1.75-.6 0-1.15-.15-1.68-.46A6 6 0 0 1 5 4.5Z" fill="#FEFFF0"/><path d="M12.4 7.15c-.4.07-.79.07-1.17.02-.07-.6-.63-.97-.76-1.56-.04-.2-.06-.4-.04-.62l.03-.27c.1.14.18.25.22.33.42.82 1 1.52 1.73 2.1Z" fill="#FDE45B"/><path d="m11.23 7.17-.6-.27a.72.72 0 0 1-.15-.2c-.1-.26-.15-.51-.15-.76l.05-.63.05-.32c-.02.21 0 .42.04.62.13.6.69.96.76 1.56Z" fill="#FDD435"/><path d="M9.7 5.5c-.01.06-.06.1-.14.1-.12 0-.4.02-.41-.15-.01-.18.05-.36.28-.32.22.03.31.16.27.38Z" fill="#4A433A"/><path d="M13.96 5.62c.29.42.52.88.69 1.36l-.5.22c-.2.05-.33-.02-.45-.17a2.2 2.2 0 0 0-.49-.53c-.58-.38-.87-.53-1.2-.94l.11-.12c.2-.2.44-.04.62 0 .4.07.8.13 1.22.18Z" fill="#FEFFE1"/><path d="m7.28 5.71.04.1.08.44a.18.18 0 0 1-.05.04.08.08 0 0 0-.04.06l-.08.67a.1.1 0 0 1-.09.08c-.25.02-.5-.01-.74-.1-.03-.02-.04-.04-.02-.07.2-.47.5-.88.9-1.22Z" fill="#FDD435"/><path d="m10.31 6.82-.17.33-.21.23c-.3.35-.31.82-.3 1.3.01.41.05.77.1 1.06.09.4.01.73-.21 1-.14.17-.22.28-.24.32-.1.21-.2.5-.02.67.04.03.03.04-.01.01a.2.2 0 0 1-.1-.14c-.04-.32.03-.62.22-.9l.24-.38c.08-.2.1-.44.05-.7l-.3-1.68c-.06-.33-.27-.52-.62-.58a1.51 1.51 0 0 1-.4-.3.1.1 0 0 1-.02-.07l.01-.71.16-.3.12-.2a.1.1 0 0 1 .06-.05c.12-.03.2.02.26.14.12.2.29.37.38.57a3.58 3.58 0 0 0 .44.65h.04l.52-.27Z" fill="#746D64"/><path d="m7.98 5.73-.07.25c0 .03 0 .05.02.08.2.22.38.04.56-.08l-.16.3c-.12.3-.12.61 0 .93.41.3.7.61.57 1.1a.1.1 0 0 1-.14.07 3.9 3.9 0 0 1-.31-.39c-.15-.22-.33-.22-.54-.27-.25-.06-.23-.26-.26-.51-.01-.1-.1-.14-.19-.1l-.04.08-.01-.21.03-.65c.13-.1.23-.24.3-.44.03-.07.11-.12.24-.16Z" fill="#9E9E9E"/><path d="M8.33 6.28v.71c0 .03 0 .05.02.07.1.12.24.22.39.3.41.27.46.62.36 1.1-.06.28-.1.52-.1.7a1.75 1.75 0 0 1-.38.97v-.01l-.01-.02h-.02l-.02.01h-.04c-.45-.49-.33-1.36-.22-2a.07.07 0 0 0-.04-.08h-.03c-1.25-.08-.48.26-1.78-.25a.97.97 0 0 1-.76-.29.08.08 0 0 0-.07-.02c-.24 0-.64.06-.74-.17-.01-.04 0-.1.04-.22l.05-.24a.22.22 0 0 1 .08-.03l.27.02.23.25c.09.09.18.15.28.2.54.21 1.06.19 1.58-.09l.04-.08c1.37.41-.4.65.83.81.02 0 .03.01.03.03-.04.77-.11 1.22.07 1.77a.08.08 0 0 0 .15.02c.2-.35.27-.82.47-1.27.3-.7-.12-1-.68-1.26a1.21 1.21 0 0 1 0-.93Z" fill="#998374"/><path d="M10.48 6.7c.03.07.08.14.15.2.06.22.13.38.22.47.15.15.48.1.62.33.1.16.16.32.21.49a.06.06 0 0 1-.03.07L11 8.7c-.38.34-.57.76-.57 1.23 0 .53.1 1.12.28 1.76l.14.53c-.12 0-.22 0-.33-.05a13.4 13.4 0 0 1-1.21-.5.15.15 0 0 1-.09-.14c.01-.15.05-.28.1-.4.09-.17.28-.32.37-.46.07-.1.11-.24.12-.42a5.73 5.73 0 0 0-.17-1.58c0-.19-.28-.9.68-1.85.04-.05.1-.09.17-.12Z" fill="#4A433A"/><path d="M7.4 6.98c.02.05.03.12.02.21-.52.28-1.04.3-1.58.08a.87.87 0 0 1-.28-.19 3.84 3.84 0 0 1-.23-.25c.4.04.82.15 1.25.33.14.06.3.1.48.12.1.01.18 0 .24-.06s.1-.14.1-.24Z" fill="#D5C3B0"/><path d="M4.98 6.84c0 .08-.03.16-.06.24-.03.11-.04.18-.03.22.1.23.5.17.74.17.03 0 .05 0 .07.02.2.2.45.3.76.3.37.04.52.14.79.3.24.15.5.18.76.18a.1.1 0 0 1 .1.07 69.94 69.94 0 0 1 .15 2.6c.05.35-.03.66-.25.93-.2-.39-.29-.8-.39-1.22-.07-.31-.08-.68-.15-1.02 0-.36-.08-.66-.26-.88-.1-.1-.27-.22-.53-.34-.3-.21-.64-.39-1-.53l-.38-.14c-.1-.05-.2-.1-.3-.17-.3-.17-.45-.59-.02-.73ZM11.23 7.17l.05.03c.11.07.32.17.61.31.38.17.62.19 1.03.06.18-.05.36-.1.55-.12.03 0 .04 0 .04.03 0 .06-.03.12-.07.18-.29.18-.6.32-.94.41l-.65.24-.86.39.66-.44a.06.06 0 0 0 .03-.07 1.87 1.87 0 0 0-.21-.5c-.14-.21-.47-.17-.62-.32-.09-.1-.16-.25-.22-.47l.6.27Z" fill="#605547"/><path d="M14.69 7.09c-.18.09-.31.17-.39.26-.17.2-.35.64-.4.88a1 1 0 0 0 .01.52l.12.24a.1.1 0 0 1 0 .08 1 1 0 0 0 0 .45c-.3.2-.64.3-1 .3.37-.03.67-.16.9-.4a.11.11 0 0 0 .02-.14c-.15-.2-.34-.38-.57-.52 0-.36.08-.63.32-.91.18-.22.3-.35.44-.65l.51-.22.04.1Z" fill="#DCF5CE"/><path d="M8.33 7.2c.56.26.97.57.68 1.27-.2.45-.27.92-.47 1.27a.08.08 0 0 1-.15-.02c-.18-.55-.11-1-.07-1.77 0-.02 0-.03-.03-.03h-.8a.04.04 0 0 1-.04-.05l.13-.4c.05-.16.07-.3-.12-.36.09-.04.18 0 .2.1.02.25 0 .45.25.51.21.05.39.05.54.27a3.9 3.9 0 0 0 .3.39.1.1 0 0 0 .12-.03.1.1 0 0 0 .03-.04c.13-.49-.16-.8-.57-1.1Z" fill="#A09687"/><path d="m13.4 7.08-.07.03a.06.06 0 0 0-.04.06l.03.1c.01.02 0 .03-.03.03-.04 0-.15.04-.34.09-.27.07-.48.04-.77-.05-.3-.1-.6-.14-.9-.14a.12.12 0 0 0-.05-.03c.38.05.78.05 1.18-.02l.44-.06c.08 0 .2 0 .36-.04.06-.01.13 0 .2.03Z" fill="#BBB49E"/><path d="M13.4 7.08c.32.05.2.44.04.58a.35.35 0 0 0 .07-.18c0-.02 0-.04-.04-.03-.19.03-.37.07-.55.12-.4.13-.65.11-1.03-.06-.3-.14-.5-.24-.61-.31.3 0 .6.05.9.14.29.09.5.12.77.05l.34-.09c.03 0 .04-.01.03-.04a.25.25 0 0 1-.03-.1c0-.02.02-.04.04-.05l.08-.03Z" fill="#998374"/><path d="m14.99 9.4-1.08-.65a1 1 0 0 1-.01-.52c.05-.24.23-.67.4-.88.08-.09.2-.17.39-.26a6 6 0 0 1 .3 2.31Z" fill="#9CD8DB"/><path d="M8.74 7.36c.35.06.56.25.62.58l.3 1.69c.05.25.03.48-.05.69 0 .03-.09.15-.24.38-.19.28-.26.58-.21.9 0 .06.04.11.1.14.03.03.04.02 0-.01-.17-.17-.08-.46.02-.67l.24-.32c.23-.27.3-.6.22-1-.06-.3-.1-.65-.11-1.07.13.52.18 1.05.17 1.58 0 .18-.05.32-.12.42-.1.14-.28.3-.36.45-.06.13-.1.26-.11.4a.15.15 0 0 0 .09.15c.37.18.77.35 1.21.5.1.04.21.06.33.05l.02.15c-.5.05-1-.08-1.49-.38-.12-.08-.28-.06-.42 0-.25.14-.52.21-.8.22l-.03-.09.5-.18c.02-.01.03-.03.03-.05a3.8 3.8 0 0 0-.23-1.11c-.1-.27-.17-.49-.2-.66l-.1-.77a28.52 28.52 0 0 0 0-1.17.07.07 0 0 0-.05-.02l-.7-.1a.76.76 0 0 1 .18-.66v-.16l.04.15a.1.1 0 0 1-.02.07c-.08.14-.14.3-.17.47 0 .03 0 .04.04.04l.8.05a.07.07 0 0 1 .06.05v.03c-.1.65-.22 1.52.23 2.01h.04l.02-.02.02.01v.02h.02c.22-.33.34-.56.36-.96.01-.19.05-.42.1-.7.1-.48.06-.83-.35-1.1Z" fill="#817C74"/><path d="m7.38 8.05.69.1a.07.07 0 0 1 .06.08l-.01 1.12.1.77c.03.17.1.4.2.66.13.34.2.71.23 1.1 0 .03 0 .05-.03.06l-.5.18-.1-.25c.2-.27.3-.58.24-.93l-.2-1.2a3.41 3.41 0 0 1 .05-1.4.1.1 0 0 0-.05-.06.1.1 0 0 0-.05-.01c-.26 0-.52-.03-.76-.18-.27-.16-.42-.26-.79-.3.31-.16.61-.07.92.26Z" fill="#746D64"/><path d="m5.3 7.74.37.14c.14.64.49.87.9 1.25.32.29.55 1.03.65 1.49l.34 1.34c.1.35.25.64.58.82l.03.06V13h.01l.02-.48v.12l-.02 1.03c-.33-.26-.46-.56-.66-1-.2-.4-.25-.83-.36-1.36a4.17 4.17 0 0 0-.94-2.17c-.43-.43-.78-.79-.92-1.4Z" fill="#FEFA92"/><path d="M6.68 8.41c.1.5.35.9.79 1.22.07.34.08.7.15 1.02.1.42.2.83.4 1.22l.1.25.03.1.05.3-.02.47v-.15a.07.07 0 0 0-.04-.06c-.33-.18-.48-.47-.58-.82l-.34-1.34c-.1-.46-.33-1.2-.65-1.49-.41-.38-.76-.61-.9-1.25.37.14.7.32 1 .53Z" fill="#FDE45B"/><path d="M12.5 8.07c.06.19.02.35-.11.48-.35.35-.67.6-.74.89-.09.37-.3.65-.07 1.07l.24.33c.1.13.16.24.2.34.06.2.1.4.09.6 0 .08-.04.15-.1.2a.68.68 0 0 0-.17.32l-.19.72c-.04.17-.18.3-.41.4l-.24-.7-.14-.35a.38.38 0 0 0-.02-.15l-.14-.53c.07-.53.09-1.17.23-1.61.08-.23.16-.45.26-.67.15-.34.45-.72.66-1.1l.65-.24Z" fill="#FEFA92"/><path d="M11.85 8.31c-.2.38-.5.76-.66 1.1-.1.22-.18.44-.26.67-.14.44-.16 1.08-.23 1.6a6.37 6.37 0 0 1-.28-1.75c0-.47.2-.89.57-1.23l.86-.39Z" fill="#FDE45B"/><path d="M6.68 8.41c.26.12.43.24.53.34.18.22.27.52.26.88-.44-.32-.7-.73-.8-1.22Z" fill="#FDD435"/><path d="M3.03 8.44c.53.3 1.09.46 1.68.46.22.07.42.17.57.3l-.22.3c-.08.12-.14.24-.18.38 0 .03 0 .05.03.07l.35.26c.04.02.04.05.01.08-.48.52-1.04.96-1.67 1.32a6.07 6.07 0 0 1-.32-.81l1.45-.02a.07.07 0 0 0 .06-.04.78.78 0 0 1 .23-.3c.01-.01.02-.03 0-.05l-.22-.44a.13.13 0 0 1 0-.1c.07-.33.09-.55-.3-.67A6.9 6.9 0 0 0 3 8.97c0-.18.01-.36.03-.53Z" fill="#BFE1E9"/><path d="m13.02 9.82-.3-.08-.14-.24c.2-.32.46-.57.8-.74.23.14.42.32.57.52a.11.11 0 0 1-.01.15c-.24.23-.54.36-.92.39Z" fill="#FEFFE1"/><path d="M14.99 9.4a6 6 0 0 1-.4 1.77c-.4.06-1.13.24-1.38.6-.26.37-.02.92.2 1.3-.14.15-.29.3-.44.43a2.23 2.23 0 0 0-.11-.72c-.1-.24-.2-.45-.21-.71-.02-.25-.02-.36-.13-.56l-.28-.54v-.03c-.04-.68-.07-1.26.86-.98.4-.02.7-.17.92-.44a1 1 0 0 1 .02-.45.1.1 0 0 0 0-.08l-.13-.24L15 9.4Z" fill="#BFE1E9"/><path d="M3.28 10.8a6.02 6.02 0 0 1-.17-.67c.39.2.68.1.88-.27a.08.08 0 0 0-.03-.11c-.29-.16-.6-.23-.94-.22A6.16 6.16 0 0 1 3 8.97a6.9 6.9 0 0 1 1.5.21c.39.12.37.34.3.68v.09l.23.44-.01.05a.78.78 0 0 0-.23.3.07.07 0 0 1-.06.04l-1.45.02Z" fill="#95CCE7"/><path d="M7.6 14.45a1.76 1.76 0 0 1-1.23-1.29 2.92 2.92 0 0 0-.47-1.1c-.08-.1-.13-.16-.15-.21-.16-.36 0-.6-.04-.96l-.13-.74c-.06-.3-.3-.46-.52-.64l.22-.3c.56.44.94 1 1.14 1.7.25.81.46 1.65.76 2.44l.42 1.1Z" fill="#FEFFE1"/><path d="m12.58 9.5.13.24-.36-.1c-.03 0-.05 0-.07.03-.34.32-.4.7-.2 1.14.04.1.1.14.17.13v.03c.03.21.12.39.27.54.1.2.11.3.13.56.01.26.1.47.21.7.06.14.1.38.1.73a6.02 6.02 0 0 1-4.74 1.45 5.26 5.26 0 0 0-.54-.41h.05c.24.1.48.18.73.22.2.03.44.03.76 0 .68-.09 1.35-.03 1.8-.65.2.05.45-.11.35-.33a2.88 2.88 0 0 1-.13-.36c.23-.1.37-.23.41-.4l.2-.72c.03-.14.09-.24.17-.32a.28.28 0 0 0 .09-.2c0-.2-.03-.4-.1-.6-.03-.1-.1-.21-.2-.34l-.23-.33c.24-.53.38-.98 1-1.01Z" fill="#DCF5CE"/><path d="M3.1 10.13a6 6 0 0 1-.08-.6c.34-.01.65.06.94.22a.08.08 0 0 1 .03.1c-.2.39-.5.48-.88.28Z" fill="#70BAE3"/><path d="M5.06 9.5c.21.19.46.34.52.65l.13.74c.05.36-.12.6.04.96.02.05.07.12.15.22.2.24.35.6.47 1.1.16.63.57 1.06 1.23 1.28l.13.08h-.05a5.26 5.26 0 0 1 .53.41 6 6 0 0 1-4.61-3.33c.63-.36 1.19-.8 1.67-1.32.03-.03.03-.06 0-.08l-.36-.26a.06.06 0 0 1-.03-.07c.04-.14.1-.26.18-.37Z" fill="#E1EEF2"/><path d="m12.71 9.74.4.22c-.94-.28-.91.3-.86.98-.07.01-.13-.03-.17-.13-.2-.43-.14-.82.2-1.14a.07.07 0 0 1 .07-.02l.36.09Z" fill="#D0ECE2"/><path d="M14.6 11.17a6 6 0 0 1-1.19 1.9c-.22-.38-.46-.93-.2-1.3.25-.36.98-.54 1.38-.6Z" fill="#95CCE7"/><path d="m10.86 12.37.14.35-.27.97a3.84 3.84 0 0 1-.33-.58c-.04-.09-.13-.17-.28-.25-.2-.14-.58-.14-.78.04l-.46.9-.29-.75c-.05-.15-.18-.29-.38-.42l-.01-.12-.05-.3c.28 0 .55-.08.8-.21.14-.07.3-.09.42-.01.5.3 1 .43 1.5.38Z" fill="#A09687"/><path d="m8.88 13.8-.07.17c-.05.3-.21.39-.5.3a.2.2 0 0 1-.14-.2l.01-.41.03-1.03c.2.13.33.27.38.42.08.24.18.49.3.75Z" fill="#D3D0BC"/><path d="M11.24 13.42c.02.08.06.2.13.36.1.22-.15.38-.35.33a1 1 0 0 1-.2-.28l-.09-.14.27-.97.24.7Z" fill="#BBB49E"/><path d="m10.12 12.86.2.33c.05.07.04.13-.02.2-.25.21-.75.3-1.1.24-.03 0-.04-.02-.04-.04.01-.24.07-.47.18-.69.2-.18.57-.18.78-.04Z" fill="#FDE45B"/><path d="m10.73 13.7.09.13c-.68.38-1.35.43-2 .14l.06-.17.46-.9c-.1.22-.17.45-.18.69 0 .02.01.04.04.04.35.07.85-.03 1.1-.25.06-.06.07-.12.03-.2l-.21-.32c.15.08.24.16.28.25.1.2.2.4.33.58Z" fill="#FEFA92"/></svg>