<!-- by TradingView --><svg width="18" height="18" viewBox="0 0 18 18" xmlns="http://www.w3.org/2000/svg"><path fill="#F0F3FA" d="M0 0h18v18H0z"/><path fill-rule="evenodd" d="M12.36 9.75c.4-.58.64-1.28.64-2.03C13 5.67 11.2 4 9 4S5 5.67 5 7.72c0 .75.24 1.45.64 2.03C6.26 10.85 9 15.5 9 15.5s2.67-4.63 3.36-5.75ZM9 11.41A3.37 3.37 0 0 0 12.33 8c0-1.88-1.49-3.4-3.33-3.4a3.37 3.37 0 0 0-3.33 3.4c0 1.88 1.49 3.4 3.33 3.4ZM9 11a3 3 0 1 0 0-6 3 3 0 0 0 0 6Zm0-.18a2.83 2.83 0 1 0 0-5.65 2.83 2.83 0 0 0 0 5.65ZM8 9.5V6h1.36c.55 0 1.1.5 1.1 1.02v.07c0 .52-.55 1.01-1.1 1.01h-.01l1.15 1.4h-.63L8.69 8.1h-.12v1.4H8Zm1.4-2.98h-.83v1.05h.82c.28 0 .5-.23.5-.52a.51.51 0 0 0-.5-.53Z" fill="#471A6D"/></svg>