<!-- by TradingView --><svg width="18" height="18" viewBox="0 0 18 18" xmlns="http://www.w3.org/2000/svg"><path fill="#F0F3FA" d="M0 0h18v18H0z"/><circle cx="9" cy="9" r="6" fill="#EED4C7"/><path d="M7.08 12.29c-.71.01-1.32-.16-1.73-.74a.21.21 0 0 0-.12-.08c-1.24-.38-1.5-1.78-.96-2.7.03-.04.04-.1.04-.15-.06-.6.2-1.06.77-1.39a11.36 11.36 0 0 1 2.96-1.16.13.13 0 0 0 .04-.07c.05-.3.32-1.15.84-.98.38.13.5.33.8.51a.22.22 0 0 0 .17.02 2.2 2.2 0 0 1 1.61.17c.21.1.37.27.56.4.04.03.09.05.14.05.5 0 1.04-.07 1.5.12.06.03.11.08.14.14.03.06.03.13 0 .19-.1.28-.3.53-.57.75a.17.17 0 0 0-.06.1c0 .05 0 .09.03.12.46.63.93 1.55.7 2.3-.14.4.03.85-.16 1.23-.33.64-.93 1.01-1.8 1.11a.22.22 0 0 0-.13.06c-.63.56-1.47.6-2.31.46a.37.37 0 0 0-.24.04c-.76.4-1.63.23-2.09-.44a.15.15 0 0 0-.13-.06Z" fill="#0D0B0E"/><path d="m9.5 5.66-1.08.3c-.07.02-.1 0-.08-.07.06-.22.15-.4.27-.58a.21.21 0 0 1 .12-.08c.05-.01.1-.01.15.01a2.26 2.26 0 0 1 .63.4l-.01.01ZM11.79 6.23c.08.38 0 .67-.26.85-.6.41-1.32.3-1.92-.06-.5-.3-1.1-.42-1.79-.34-.32.04-.96.16-1.92.37a28.1 28.1 0 0 1 4.2-1.33c.65-.14 1.2.03 1.69.5Z" fill="#fff"/><path d="M12.85 7.46c.3.83.47 1.36.52 1.6.13.62-.23 1.12-1.07 1.48.06-.32.1-.59.12-.78.06-.67-.1-1.27-.51-1.82h-.03c-.01 0-.02 0-.01.02.16.3.27.6.32.92-.04.4-.11.74-.2 1.05-.17.58-.64.9-1.42.93a.55.55 0 0 1-.19-.09c-.04-.03-.05-.06-.03-.1a3 3 0 0 0 .16-2.29.22.22 0 0 1 0-.13V8.2c0-.02 0-.02-.02-.02s-.03.01-.03.02v.03c.1.54.08 1.07-.03 1.58-.16.13-.29.26-.4.41-.17.21-.3.35-.39.41-.4.28-.9.4-1.5.38a.84.84 0 0 1-.57-.47c-.3-.68.72-2.02 1.21-2.53v-.03h-.04c-.53.45-.94.98-1.25 1.57-.21.13-.32.35-.5.45-.38.2-.72-.01-1.05.05-.43-.78.16-1.5.82-1.95v-.03c0-.01-.01-.02-.03-.01-.38.18-.68.44-.91.77-.15.02-.3.06-.44.14a.27.27 0 0 1-.14.04.73.73 0 0 0-.42.09c-.37-.5-.38-.94-.01-1.35.28-.31.65-.54 1.1-.69.95-.2 1.6-.33 1.91-.37.69-.08 1.28.03 1.79.34.6.36 1.32.47 1.92.06.25-.18.34-.47.26-.85.46.34.81.75 1.06 1.23Z" fill="#A5ABBA"/><path d="M13.37 6.9a.95.95 0 0 1-.42-.11l-.33-.15c-.48-.26-.22-.34.79-.24.03 0 .05 0 .08.02a.2.2 0 0 1 .06.05c.02.02.03.05.03.07v.08a.5.5 0 0 1-.2.27Z" fill="#fff"/><path d="M13.37 6.9a.6.6 0 0 1-.24.32c-.04.03-.08.03-.12 0a1.93 1.93 0 0 1-.39-.58l.33.15c.12.06.26.1.42.1ZM12.3 10.54c.84-.36 1.2-.85 1.07-1.48-.05-.24-.22-.77-.52-1.6.34.42.6.87.8 1.35.14.38.16.72.04 1-.2.51-.66.75-1.39.73ZM5.82 8.82l-.26.7c-.02.03-.05.05-.1.03-.27-.1-.48-.25-.64-.46.1-.07.24-.1.42-.1.05.01.1 0 .14-.03.14-.08.29-.12.44-.14ZM12.2 8.88c.12.44.1.95-.07 1.52-.1.3-.15.32-.47.47a1.2 1.2 0 0 1-1.09 0c.78-.05 1.25-.36 1.42-.94.09-.31.15-.66.2-1.05Z" fill="#7E848F"/><path d="M12.25 11.28c-.35 0-.52.26-.84.32-.37.07-.74.08-1.1.04-.16-.02-.35-.17-.52-.07-.74.42-1.96.3-2.54-.3a.14.14 0 0 0-.12-.05.9.9 0 0 1-.51-.06c-.44-.2-.78-.33-.93-.7-.02-.04-.05-.07-.1-.08-.47-.06-.84-.3-1.1-.71-.08-.12-.04-.2-.13-.31a.18.18 0 0 1-.05-.14c0-.08.04-.15.1-.21.04-.05.09-.05.12.01.22.36.55.6.98.75.05.02.1.06.12.1.26.62.91.78 1.59.67.05 0 .1.01.12.06.5.88 1.98 1.08 2.76.37a.14.14 0 0 1 .14-.03c.11.04.22.08.32.14.43.24 1.14.02 1.52-.24a.3.3 0 0 1 .2-.05c.44.04.85-.1 1.23-.42.1-.09.15-.07.15.06v.07c0 .12-.04.21-.14.29-.4.33-.82.5-1.27.5Z" fill="#17213C"/><path d="M5.25 11.04c0 .03.02.06.04.1.12.16.09.2-.1.1a1.64 1.64 0 0 1-.95-1.73c0-.07.02-.08.05 0 .17.47.48.79.95.95l.05.04a.1.1 0 0 1 .02.05c.03.13.01.27-.05.4a.15.15 0 0 0 0 .09Z" fill="#A5ABBA"/><path d="m7.49 9.54-.2.71a.12.12 0 0 1-.1.1c-.49.13-.9.03-1.25-.31.33-.06.67.15 1.04-.05.19-.1.3-.32.5-.45ZM10.43 9.8a1.4 1.4 0 0 1-.47 1.04c-.54.47-1.15.52-1.82.16.6.03 1.1-.1 1.5-.38.1-.06.22-.2.39-.4.11-.16.24-.3.4-.42Z" fill="#7E848F"/><path d="m9.5 12.37-.76.26a.28.28 0 0 1-.15 0l-.94-.18a1.5 1.5 0 0 1-.36-.38c-.03-.04-.07-.05-.13-.05-.67.12-1.43-.1-1.66-.72a.84.84 0 0 0-.11-.22.13.13 0 0 1-.02-.13l.16-.42a.02.02 0 0 1 .03 0c.3.5.76.77 1.37.8.04 0 .08.03.09.07l.12.54.02.01h.04c.03 0 .04-.02.04-.04l-.04-.38c0-.09.03-.1.1-.04.62.53 1.55.6 2.3.31.05-.02.08 0 .09.05a.57.57 0 0 1-.18.52ZM11.7 12.12c-.73.25-1.38.31-1.94.2-.03-.01-.05-.04-.05-.08l.23-.5c.02-.04.05-.06.1-.04.7.22 1.32.16 1.84-.15.08-.05.11-.04.08.05l-.09.28c-.03.1 0 .12.08.04.1-.1.18-.23.2-.37 0-.08.05-.11.13-.11.47-.01.87-.15 1.2-.42.12-.1.14-.1.06.05-.31.53-.93.97-1.64.93-.1 0-.16.03-.2.12Z" fill="#A5ABBA"/><path d="M11.7 12.13a2.1 2.1 0 0 1-2.1.4.18.18 0 0 0-.14 0c-.52.24-1.41.42-1.81-.08l.94.19.15-.01.77-.26c.07 0 .14-.04.2-.13 0 .04.02.07.05.08.56.11 1.21.05 1.94-.2Z" fill="#7E848F"/></svg>