<!-- by TradingView --><svg width="18" height="18" viewBox="0 0 18 18" xmlns="http://www.w3.org/2000/svg"><path fill="#666E70" d="M0 0h18v18H0z"/><path d="M10.78 3.94a42.15 42.15 0 0 1 1.1.87c.13.06.26.1.36.19l.15.11.12.14c.06.09.19.2.22.33.03.1.02.22 0 .33a.97.97 0 0 1-.42.58.04.04 0 0 0 0 .03l.01.02c.34.29.5.68.43 1.12-.05.24-.16.45-.32.63a4.64 4.64 0 0 1-.18.19v.03a1.69 1.69 0 0 1 .24.92l-.01.32c0 .05 0 .13.04.23a25.4 25.4 0 0 0 .47 1.3c.03.12 0 .23-.09.33a.56.56 0 0 1-.37.2.24.24 0 0 0-.1.04l-.1.06a.6.6 0 0 1-.33.1c-.04 0-.06.02-.05.06l.06.35c0 .1.04.16.09.26.03.07.02.14.03.2a.08.08 0 0 1-.03.08.08.08 0 0 1-.07.01l-.16-.04a.03.03 0 0 0-.03.01v.02l.01.2c.02.08.02.14.01.21-.03.21-.06.43-.16.58a.04.04 0 0 1-.04.01c-.05 0-.08-.02-.1-.05a4.4 4.4 0 0 0-.07-.2c-.01-.03-.02-.03-.03 0-.07.14-.1.32-.17.45-.06.12-.13.23-.2.33l-.12.1a.07.07 0 0 1-.1 0c-.04-.03-.06-.09-.06-.15 0-.16 0-.3-.02-.43 0-.04-.02-.04-.04-.01-.1.16-.18.33-.21.5l-.05.08c-.07.07-.16.02-.21-.04a.6.6 0 0 1-.12-.21c-.1-.3-.11-.61-.03-.91v-.08c0-.03-.03-.04-.06-.01l-.13.12c-.1.1-.22.14-.33.17a.05.05 0 0 1-.05-.02.6.6 0 0 1-.09-.2v-.03l.07-.15c.05-.1.09-.19.1-.26a2.27 2.27 0 0 0 .04-.74c-.12.05-.32.11-.44.06a.06.06 0 0 1-.04-.03.06.06 0 0 1 .01-.05l.36-.6c.12-.22.22-.46.23-.7v-.04a.36.36 0 0 0-.11-.08c-.15-.08-.19-.11-.33-.11a2.1 2.1 0 0 1-.99-.2v.02c-.02.12-.1.17-.22.17h-.01a.02.02 0 0 0-.01.02l.14.37c.06.14.1.35.13.62 0 .07-.02.3-.12.34-.1.03-.17-.09-.24-.16h-.03c-.15.11-.06.43 0 .58.03.05.04.1.05.16.02.18.01.37-.02.55-.05.13-.11.16-.21.12a.05.05 0 0 0-.05 0 .05.05 0 0 0-.03.04c0 .3-.07.56-.2.8a.12.12 0 0 1-.07.07h-.04a.07.07 0 0 1-.04-.03l-.06-.1-.01-.02H7.3v.01a.66.66 0 0 0-.05.2v.5c0 .06-.01.1-.04.12a.1.1 0 0 1-.12 0 1.55 1.55 0 0 1-.38-.45H6.7a.02.02 0 0 0-.02 0c-.06.1-.12.2-.17.32a.49.49 0 0 1-.1.14 20.24 20.24 0 0 0-.16.14.08.08 0 0 1-.08-.02 108.62 108.62 0 0 1-.25-.92c-.03-.04-.06-.04-.1 0l-.14.26c0 .01-.01.02-.03.02h-.1a.03.03 0 0 1-.03-.03 2.39 2.39 0 0 1 0-.94l-.01-.01a.03.03 0 0 0-.03 0 .71.71 0 0 0-.13.07.34.34 0 0 1-.26.07c-.22-.02-.03-.32.02-.42.06-.12.08-.27.14-.4a.66.66 0 0 0 .17-.29.66.66 0 0 0 0-.25 1.04 1.04 0 0 1 0-.31l.07-.37c.02-.13.06-.22.12-.36.02-.04 0-.06-.03-.07-.08-.03-.19-.13-.13-.22.09-.13.23-.26.32-.43a.02.02 0 0 0 0-.02l-.01-.01h-.01l-.16-.02c-.03 0-.07-.04-.12-.1-.08-.08.1-.25.16-.3l.15-.15c.14-.15.25-.3.34-.46a.57.57 0 0 0 .06-.22.05.05 0 0 0-.02-.04.05.05 0 0 0-.05 0A.24.24 0 0 1 5.88 9c-.04-.03-.06-.06-.06-.08-.02-.07.05-.16.1-.22a2.62 2.62 0 0 0 .34-.62.07.07 0 0 0-.03-.04c-.1-.1-.22-.27-.2-.42l.06-.34c.04-.15 0-.3-.02-.48l-.02-.27v-1.3c0-.13 0-.25.02-.36a1.95 1.95 0 0 1 1.64-1.79c.16-.04.29-.04.46-.07h.18c.23 0 .4.02.54.05.27.06.5.13.68.2a6.21 6.21 0 0 1 1.2.69Z" fill="#020101"/><path d="M9.44 4.5c-.4.02-.8.08-1.17.18l-.06-.16-.02-.01h-.01v.02l.03.16-.3.06c-.17.03-.52.1-.65-.06a.66.66 0 0 1-.15-.49c.02-.26.15-.49.39-.68a7.94 7.94 0 0 1 .65.84v-.02c-.17-.32-.38-.6-.6-.88a.7.7 0 0 1 .21-.12l.44-.15a.46.46 0 0 1 .18-.02c.05 0 .1.02.15.07.15.1.28.24.4.38.1.1.17.2.23.32.09.17.16.36.28.56ZM10.21 4.59l-.18-.04a1.5 1.5 0 0 0-.46-.03c-.12-.1-.17-.24-.24-.38l-.11-.23a2.37 2.37 0 0 0-.67-.72.02.02 0 0 1 .01-.02h.03c.4.06.76.16 1.07.28.18.08.33.16.43.24.07.05.13.13.2.24l.17.32c.06.12.12.2.2.28.03.03.03.04-.01.04l-.44.02Z" fill="#745BA2"/><path d="M7.5 3.52a.93.93 0 0 0-.39.68c-.01.19.04.35.15.49.13.15.48.1.65.06l.3-.06c.06.17.14.32.23.47v.02a8.07 8.07 0 0 0-1.09.68 1.9 1.9 0 0 0-.23-.66l-.29-.49c-.12-.2-.19-.44-.22-.67-.01-.07-.02-.07-.02 0v.08c.01.1.06.26.13.47.04.09.14.29.33.61.12.2.2.43.24.67 0 .04 0 .07-.04.1a12.56 12.56 0 0 0-.66.52 21.67 21.67 0 0 0-.26-1.18 2.1 2.1 0 0 1-.08-.4 1 1 0 0 1 .06-.4l.09-.25a.88.88 0 0 1 .12-.23l.18-.25a1.59 1.59 0 0 1 .59-.4h.02a.7.7 0 0 1 .19.14Z" fill="#4C3172"/><path d="M11.38 4.64c-.17-.06-.32-.05-.57-.07a.1.1 0 0 1-.05-.03 1 1 0 0 1-.26-.33 3.56 3.56 0 0 0-.22-.41 4.54 4.54 0 0 1 .42.26l.7.54c.07.05.06.06-.02.04Z" fill="#745BA2"/><path d="M8.27 4.68c.38-.1.77-.16 1.17-.18l.18.2a.02.02 0 0 1 0 .01.02.02 0 0 1 0 .02 5.47 5.47 0 0 0-1.09.39.05.05 0 0 1-.03-.02 1.9 1.9 0 0 1-.23-.42ZM10.21 4.59l-.47.09a.05.05 0 0 1-.03 0 .47.47 0 0 1-.14-.16c.18-.01.33 0 .46.03l.18.04Z" fill="#4C3172"/><path d="m12.52 5.98-.12-.27a.32.32 0 0 0-.07-.37l-.01.02v.02c.05.08.06.16.04.24a.37.37 0 0 0-.1-.1c-.2-.14-.41-.23-.65-.26a.58.58 0 0 0-.28-.44h-.02l-.01.01a.02.02 0 0 0 0 .02l.13.12a.4.4 0 0 1 .09.25 1.62 1.62 0 0 0-.35-.09 4.35 4.35 0 0 0-.86 0 .66.66 0 0 0-.34-.3v.04c0 .01 0 .02.02.02.11.06.2.14.26.25a3 3 0 0 0-.28.04l-.22.02a.92.92 0 0 0-.22.04c-.17.05-.36.13-.59.24a1.22 1.22 0 0 0-.3-.2h-.01v.02l.25.2a4.74 4.74 0 0 0-1.43.83.43.43 0 0 1-.04-.22l-.01-.04a.02.02 0 0 0-.03.01c-.02.09 0 .18.03.27l-.67.55a.03.03 0 0 1-.03 0 .03.03 0 0 1-.02-.02c0-.03 0-.08.03-.12a.76.76 0 0 0 .1-.25l.18-.18.19-.18A6.73 6.73 0 0 1 9.9 4.8a3.4 3.4 0 0 1 1.98.16 1.37 1.37 0 0 1 .66.58c.07.12.06.27-.02.44Z" fill="#745BA2"/><path d="M11.52 5.22a.57.57 0 0 1-.12.45.06.06 0 0 1-.05.02 3.18 3.18 0 0 0-.99-.07V5.6a.76.76 0 0 0-.05-.46c.31-.03.6-.03.86 0 .1 0 .22.03.35.08ZM6.29 6.89c-.03.04-.05.03-.05-.02l-.02-.57V5.2c0-.1.02-.1.04 0l.28 1.3c0 .04 0 .08-.03.12l-.22.27Z" fill="#4C3172"/><path d="M10.25 5.14c.09.16.1.31.03.46a.06.06 0 0 1-.05.03 4.88 4.88 0 0 0-1.09.23.96.96 0 0 0-.2-.38c.23-.1.42-.19.59-.24a.92.92 0 0 1 .22-.04l.22-.02a3 3 0 0 1 .28-.04ZM12.36 5.62a.5.5 0 0 1-.2.3.13.13 0 0 1-.09.02.27.27 0 0 1-.09-.03 2.75 2.75 0 0 0-.48-.17l-.01-.03.08-.18a.9.9 0 0 0 .04-.27c.24.03.45.12.65.25l.1.11ZM7.45 6.33a4.74 4.74 0 0 1 1.43-.83c.1.12.15.24.19.35 0 .03 0 .06-.04.07-.44.17-.84.39-1.2.63a.15.15 0 0 1-.11.02.45.45 0 0 1-.27-.24Z" fill="#4C3172"/><path d="M12.52 5.98a.75.75 0 0 1-.25.34.31.31 0 0 1-.18.08.06.06 0 0 1-.06-.05l-.05-.25c0-.03 0-.04.04-.04.12 0 .22-.07.3-.2l.08-.15.12.27Z" fill="#4C3172"/><path d="m11.8 6.18-.2-.05a3.8 3.8 0 0 0-1.63-.04 5.23 5.23 0 0 0-1.43.52c-.17.1-.34.21-.5.34a.82.82 0 0 0-.08-.26v-.03c.52-.35 1.06-.6 1.63-.76.7-.18 1.48-.21 2.16.06.01 0 .02 0 .02.02l.04.2Z" fill="#B9741F"/><path d="M11.6 6.13c-.05.07-.05.14 0 .2a1.26 1.26 0 0 0-1.12 1.24v.01h-.01l-.1-.02c-.02 0-.02 0-.03-.02-.07-.4-.3-.69-.7-.84-.2-.08-.4-.09-.61-.04-.25.05-.45.17-.6.35-.3.32-.37.69-.23 1.1l.2.31v.02a.84.84 0 0 0-.31.06.02.02 0 0 1-.02-.01v-.01a.21.21 0 0 0 0-.11 3.53 3.53 0 0 0-.1-.22c-.15-.31-.08-.6.04-.9a.82.82 0 0 0 .04-.3c.15-.13.32-.24.49-.34a5.23 5.23 0 0 1 1.43-.52l.46-.05a3.8 3.8 0 0 1 1.17.09Z" fill="#D1A13C"/><path d="M6.81 6.5a.76.76 0 0 1-.1.26.19.19 0 0 0-.03.12.03.03 0 0 0 .02.02.03.03 0 0 0 .03 0l.67-.55a.47.47 0 0 0 .3.28.01.01 0 0 1 0 .02 6.14 6.14 0 0 0-.8.68h-.05a1.3 1.3 0 0 1-.14-.08.35.35 0 0 1-.19-.25l-.01-.02-.02-.02a.02.02 0 0 0-.01 0h-.01v.01c0 .14.07.25.2.34a1.23 1.23 0 0 0 .16.09.02.02 0 0 1 0 .03 3.7 3.7 0 0 0-.45.51.05.05 0 0 1-.04-.01c-.08-.09-.15-.19-.14-.32.02-.24.07-.42.15-.54.06-.1.22-.29.46-.56Z" fill="#4C3172"/><path d="m12.5 7.05-1.8.33a.02.02 0 0 1-.03-.03c.1-.43.46-.8.92-.84a.9.9 0 0 1 .93.53.02.02 0 0 1 0 .01h-.01Z" fill="#924F35"/><path d="M7.6 8.2c-.05-.25-.05-.5 0-.72l.1-.36c.02-.1 0-.17-.05-.23l.15-.12a.03.03 0 0 1 .05.01c.05.15.05.3 0 .46l-.09.28a.9.9 0 0 0 .03.6c.03.09.08.18.13.27 0 .02 0 .02-.02.02a.65.65 0 0 1-.3-.2Z" fill="#FEFC91"/><path d="M9.22 7.56a198.43 198.43 0 0 1-.94.13.93.93 0 0 1 .8-.9.94.94 0 0 1 1.07.6v.01l-.02.01-.91.15Z" fill="#924F35"/><path d="M7.65 6.9c.05.05.07.13.04.22l-.09.36c-.05.23-.05.47 0 .73a.6.6 0 0 1-.09-.1c-.02-.03-.05-.03-.09 0 0-.06-.04-.09-.1-.08-.05 0-.08.03-.1.07v.03c.12.2.2.4.2.62l-.02.42c0 .16.04.33.14.5.1.16.17.33.25.5a.78.78 0 0 1-.12-.1.08.08 0 0 0-.04-.03c-.02 0-.04 0-.05.02-.07 0-.1.03-.08.11a8.85 8.85 0 0 1 .4.85c.03.09.05.22.07.4-.06-.11-.12-.21-.2-.31-.02-.04-.05-.04-.08-.01-.06-.02-.1-.02-.14 0a.07.07 0 0 0-.03.05v.04c.07.14.11.28.13.42-.03-.01-.05 0-.06.02l-.06-.05a.03.03 0 0 0-.03 0c-.06.01-.08.06-.05.12.04.1.1.18.13.28.1.28.16.5.19.63.02.1.02.22-.02.33-.08-.1-.15-.2-.2-.31-.02-.04-.04-.05-.07-.06a.06.06 0 0 0-.06.05v.03l.04.1c-.04.03-.05.11-.03.22.02.17 0 .37-.09.6a.36.36 0 0 0-.08-.13h-.03v.03c-.04-.01-.06-.02-.08-.01a.04.04 0 0 0-.02.02c-.03.09-.04.18-.08.27l-.08.24c-.02.15-.05.3-.1.47-.05-.08-.1-.15-.13-.24a4.3 4.3 0 0 1-.1-.34c-.01-.02-.03-.02-.06-.01 0-.06-.05-.08-.13-.07a.07.07 0 0 0-.05.08c.02.12.02.23.01.34 0 .19-.09.32-.23.4-.06-.3-.15-.57-.28-.83-.02-.03-.04-.04-.07-.02l.01-.06a.06.06 0 0 0-.06-.02h-.03l-.01.04a.66.66 0 0 1-.14.24c-.02-.16-.02-.34.01-.52a.8.8 0 0 1 .22-.42c.02-.03.02-.06 0-.09H5.8c-.03-.03-.07-.02-.1.01-.13.17-.28.3-.46.41a.28.28 0 0 1-.14.05c-.02 0-.02-.01-.02-.03 0-.03.02-.06.04-.09.24-.45.44-.79.56-1.16a.59.59 0 0 0 .02-.23l-.02-.02h-.01a.03.03 0 0 0-.03.03l-.03.15c-.03.07-.04.07-.05 0l.01-.18c.02-.21.07-.43.15-.65a.6.6 0 0 1 .23-.31l.21-.16a.1.1 0 0 0 .03-.05.08.08 0 0 0 0-.05c-.03-.04-.07-.05-.1-.03-.17.12-.3.23-.47.25a.03.03 0 0 1-.02-.05c.15-.17.26-.34.33-.51l.03-.03c.16-.1.27-.15.37-.27a.06.06 0 0 0-.01-.09H6.3a.12.12 0 0 0-.09.03c-.14.13-.3.2-.5.22-.09.01-.1-.02-.03-.07.09-.09.22-.16.3-.26.2-.2.3-.44.36-.7 0-.04.02-.1.06-.16l.02-.02c.1-.06.2-.14.3-.24a.14.14 0 0 0 .04-.1.04.04 0 0 0-.02-.04.04.04 0 0 0-.05 0c-.16.12-.33.21-.53.28A.34.34 0 0 1 6 8.9a.01.01 0 0 1 0-.01c.11-.14.22-.28.32-.44.07-.1.11-.23.15-.35a5.4 5.4 0 0 1 1.19-1.2Z" fill="#D7C84A"/><path d="m12.6 7.32-.56.09-.33.01a.33.33 0 0 1-.02-.12c0-.01 0-.02.02-.02l.82-.15.02.01.04.18Z" fill="#C2B2A3"/><path d="M12.6 7.32c.03.38-.1.7-.37.94h-.2c-.09.02-.15.02-.2.02a1 1 0 0 1-.7-.36c.18.03.32 0 .43-.12.1-.11.15-.24.15-.38l.33-.01.55-.09Z" fill="#FFFFF6"/><path d="M11.14 7.92a1 1 0 0 0 .9.35h.2a.9.9 0 0 1-.92.22c-.04-.02-.06-.03-.08-.08-.06-.2-.1-.36-.19-.49a.82.82 0 0 0-.38-.3.04.04 0 0 1-.03-.02l.01-.11c0-.02.01-.02.03-.03l.08-.01c.01 0 .02 0 .02.02.03.21.15.36.36.45ZM10.2 7.7c-.3.05-.6.08-.9.09l-.04-.14v-.01l.88-.16a.03.03 0 0 1 .04.03l.01.19Z" fill="#C2B2A3"/><path d="M11.56 9.27v.05c-.1.07-.18.07-.26 0-.17-.13-.29-.3-.37-.5a2.27 2.27 0 0 0-.35-.8c-.04-.06-.12-.11-.25-.15l.02-.17c0-.01.01-.02.03-.02.15.04.27.08.35.13.15.1.26.22.3.4l.16.5c.08.23.2.41.37.56Z" fill="#F9E772"/><path d="M10.2 7.7c0 .27-.11.49-.32.66a2.1 2.1 0 0 1-.31.08h-.28a.58.58 0 0 1-.2-.06 1.63 1.63 0 0 1-.19-.1c.26-.08.4-.25.4-.49.3-.01.6-.04.9-.09Z" fill="#FFFFF6"/><path d="m8.9 8.28.19.1c.06.03.12.05.2.05.12.01.22.01.28 0 .05 0 .15-.02.3-.07a.92.92 0 0 1-.86.24.91.91 0 0 1-.73-.76.04.04 0 0 1 .03-.05h.03l.01.02c0 .15.06.28.2.37.12.08.23.12.35.1Z" fill="#C2B2A3"/><path d="M11.56 9.27h.06l.01-.02V9.2a1.61 1.61 0 0 1-.3-.52c.17.04.34.03.5 0a.9.9 0 0 0 .08.18c.08.13.1.19.12.31.02.18.02.34.01.48 0 .2 0 .37.08.55.05.14.17.4.36.8.04.1.08.2.1.31.02.05.01.1 0 .17-.03.07-.1.11-.2.13a1.3 1.3 0 0 1-.34-.19 465.1 465.1 0 0 0-.57-.49A4.87 4.87 0 0 0 9.75 9.9a9.27 9.27 0 0 1-1-.48 2.57 2.57 0 0 1-.28-.3c-.02-.03-.01-.04.01-.03l.24.03c.03.01.05 0 .06-.04v-.01c0-.04-.01-.06-.05-.07a.81.81 0 0 0-.6.03.16.16 0 0 0-.08.07.03.03 0 0 0 .02.05h.13c.05.2.15.36.29.49.17.15.4.29.66.4.22.1.44.2.66.27a3.14 3.14 0 0 1 1.16.62 8.72 8.72 0 0 1 .67.6 14.15 14.15 0 0 0 .41.3.53.53 0 0 1-.36-.05l-.24-.13c-.24-.12-.5-.3-.69-.4-.26-.16-.55-.39-.82-.53a58 58 0 0 1-1.13-.6c-.17-.06-.3-.1-.46-.23a3.73 3.73 0 0 1-.48-.46.69.69 0 0 1-.05-.49c.02-.1.08-.18.19-.24a.98.98 0 0 1 .48-.14.3.3 0 0 1 .13.04l.18.09c.38.12.72.09 1.01-.1.28-.16.45-.4.52-.72.13.04.21.1.25.16a2.27 2.27 0 0 1 .35.8c.08.2.2.36.37.5.08.06.17.06.25 0 .02-.02.02-.04 0-.06Z" fill="#D1A13C"/><path d="M7.42 8.11c.01.07.04.14.09.2l.1.17c.05.18.06.37.03.57-.02.12 0 .26.06.4l.34.72.16.27c.03.07.02.09-.05.05a.98.98 0 0 1-.36-.32 4.61 4.61 0 0 0-.25-.5.99.99 0 0 1-.14-.5l.01-.42c.01-.22-.07-.42-.18-.62V8.1c.01-.04.04-.07.08-.07.07 0 .1.02.11.08Z" fill="#FEFC91"/><path d="m7.86 8.55.03.01v.04c-.02.02-.04.02-.06.02l-.02-.06c0-.01 0-.02.02-.02l.03.01Z" fill="#D1A13C"/><path d="M12.38 11.61c.1-.02.17-.06.2-.13a.35.35 0 0 0 0-.17c-.02-.1-.06-.2-.1-.31l-.36-.8a1.22 1.22 0 0 1-.08-.55c.01-.14 0-.3-.01-.48a.67.67 0 0 0-.12-.3.9.9 0 0 1-.08-.2l.26-.09.03.01c.07.11.1.23.13.37.05.24.07.5.05.78 0 .15.05.3.13.49l.1.3c.03.14.09.26.16.37l.08.2c.04.13.1.3.01.42-.05.06-.1.1-.17.13-.07.02-.15 0-.23-.04ZM12.05 11.83a14.15 14.15 0 0 1-1.08-.9 3.14 3.14 0 0 0-1.16-.62 8.82 8.82 0 0 1-.66-.26 2.57 2.57 0 0 1-.66-.41.95.95 0 0 1-.29-.5.15.15 0 0 1 .1-.03c.01 0 .02 0 .03.02.06.12.14.23.24.34a8.8 8.8 0 0 0 .84.48c.32.12.68.23.96.39a4.68 4.68 0 0 1 1.08.79l.5.43a3.11 3.11 0 0 0 .32.21.45.45 0 0 1-.22.06Z" fill="#F9E772"/><path d="M7.01 9.24c-.02 0-.03.03-.03.06a.7.7 0 0 0 .31.66c.02.12-.04.15-.2.08a.58.58 0 0 1-.19-.22.87.87 0 0 1-.07-.53c.01-.1.07-.14.17-.1.03 0 .03.02.01.05Z" fill="#FEFC91"/><path d="M7.01 9.24c.02 0 .03 0 .04.02l.01.03c.01.23.1.42.28.56l.01.03c.01.03-.01.06-.06.08a.7.7 0 0 1-.31-.66c0-.03.01-.05.03-.06Z" fill="#020101"/><path d="M8.14 9.94c.11.09.24.19.39.25a5.28 5.28 0 0 1 .58.3v.02c-.24 0-.47-.06-.7-.17a.43.43 0 0 1-.18-.15c-.05-.1-.1-.17-.12-.23-.02-.06-.01-.06.03-.02Z" fill="#B9741F"/><path d="M7.58 10.06c.04.15.13.25.24.37.05.05.1.1.12.15l.11.26c.1.28.17.56.2.87a.3.3 0 0 1-.02.12v.01h-.01l-.25-.42a1.5 1.5 0 0 0-.08-.4 8.86 8.86 0 0 0-.4-.85c0-.08.02-.11.09-.11ZM6.92 10.51c-.12.25-.25.49-.42.71-.05 0-.07-.02-.06-.08l.04-.08c.1-.17.2-.35.28-.53.02-.05.06-.07.11-.07s.06.02.05.05Z" fill="#FEFC91"/><path d="M6.5 11.22c.17-.22.3-.46.42-.71h.02a.04.04 0 0 1 .03.02.04.04 0 0 1 0 .04 1.8 1.8 0 0 1-.4.68.04.04 0 0 1-.03 0h-.01l-.03-.03Z" fill="#020101"/><path d="m11.53 11.89.06.69c-.05-.06-.13-.21-.2-.22a.03.03 0 0 0-.04.02v.02l.04.11a.16.16 0 0 0-.02.18c.05.1.09.21.12.32.03.15.04.26 0 .36a.53.53 0 0 0-.08-.1c-.06-.06-.1-.06-.1 0-.08-.04-.12-.01-.14.07a3.6 3.6 0 0 1-.23.9 3.87 3.87 0 0 0-.14-.6l-.05.01a.06.06 0 0 0-.06 0 .08.08 0 0 0-.04.03l-.15.21a.85.85 0 0 0-.1.18c-.02.06-.05.12-.1.18-.03-.11-.05-.2-.05-.28-.02-.23-.01-.5.01-.8a.7.7 0 0 1 .05-.2c.04-.1.06-.19.07-.28a.22.22 0 0 1-.04-.11l-.02-.02c-.06-.02-.1 0-.13.05l-.25.43a.6.6 0 0 1-.3.27 3.17 3.17 0 0 0 .19-1.13l.01-.02c.26-.2.41-.46.46-.81l-.01-.04a.06.06 0 0 0-.04-.03s-.02 0-.03.03l-.02-.06a.04.04 0 0 0-.02-.02c-.04-.02-.07-.01-.09.03a5.2 5.2 0 0 1-.22.46l-.15.18-.14.2a.28.28 0 0 1-.14.05c-.02 0-.02-.01-.02-.02 0-.04 0-.07.02-.1a46.04 46.04 0 0 0 .4-.67c.03-.08.08-.26.15-.38H10c.26.16.43.28.68.42.18.1.39.26.6.36l.24.13Z" fill="#D7C84A"/><path d="M7.69 11.1c.01.14.1.28.15.4.07.14.07.25.05.4-.01.04-.02.04-.03.01l-.21-.3a1.28 1.28 0 0 0-.12-.42.07.07 0 0 1 .02-.08c.04-.03.08-.03.14-.01ZM10.22 11.31l-.12.31c-.11.22-.28.37-.52.48l.14-.2.15-.18c.08-.14.15-.3.22-.46.02-.04.05-.05.09-.03l.02.02.02.06ZM7.6 11.63a7.84 7.84 0 0 1 .29.73l.05.28.02.47c0 .07-.02.08-.07.03a.66.66 0 0 1-.14-.2.65.65 0 0 0 .02-.33c-.03-.14-.1-.35-.19-.63-.03-.1-.09-.19-.13-.28-.03-.06 0-.1.05-.13h.03l.06.06ZM11.59 12.58l-.06-.69.2.1.03.01v.02l.03.27a1 1 0 0 0 .2.52v.02a1.87 1.87 0 0 1-.4-.25Z" fill="#FEFC91"/><path d="M10.76 11.97c.01.2.04.33.1.4a4.24 4.24 0 0 1 .17.32l-.02.02h-.03l-.02-.01a2.29 2.29 0 0 1-.18-.24.68.68 0 0 1-.1-.47l.01-.03.03-.02c.03 0 .04 0 .04.03ZM6.07 12.55c.1-.14.17-.29.22-.45 0-.02.02-.04.03-.04h.04l.01.02c.03.13-.11.35-.18.45l-.08.08c-.08.03-.1.01-.04-.06ZM7.09 12.9v.01h.01c.11-.2.19-.42.19-.65a6.14 6.14 0 0 1 .01-.2h.03c.05.32 0 .62-.15.9-.02.04-.06.06-.11.06-.03 0-.06-.03-.08-.07a1.3 1.3 0 0 1-.14-.48.02.02 0 0 1 .01 0h.02a.03.03 0 0 1 .03.02c.03.16.1.3.18.42Z" fill="#020101"/><path d="M11.4 12.51c.04.12.11.22.22.28l.02.03c.1.19.13.39.1.6 0 .13-.03.24-.06.33 0 .02 0 .02-.01 0l-.17-.38a.66.66 0 0 0-.01-.36 2.1 2.1 0 0 0-.12-.32.16.16 0 0 1 .03-.18ZM10.38 12.7c-.06.01-.11.07-.15.15-.08.15-.13.28-.23.39-.11.11-.22.24-.35.27-.01 0-.02 0-.02-.02l.01-.18a.6.6 0 0 0 .3-.27l.25-.43c.03-.05.07-.07.13-.05 0 0 .02 0 .02.02 0 .05.02.08.04.11ZM7.46 12.74l.2.32v.04l-.02.39-.05.26c-.03.11-.07.2-.1.26-.02.03-.03.03-.04 0l-.1-.44c.07-.23.1-.43.08-.6-.02-.11-.01-.19.03-.23ZM11.3 13.26l.05.13c.02.05.02.1.01.13a2.04 2.04 0 0 1-.37.91c-.03.04-.05.04-.05-.01v-.18a4.38 4.38 0 0 0 .23-.9c.02-.08.06-.1.13-.08ZM7.22 13.47l.05.27c0 .05 0 .1-.02.14a4.46 4.46 0 0 0-.12.88.94.94 0 0 1-.26-.3c.05-.16.08-.32.1-.47l.08-.24.08-.27s0-.02.02-.02l.07.01ZM10.75 13.65v.18l-.01.03c-.13.2-.23.4-.3.6-.01.03-.02.03-.04 0a.68.68 0 0 1-.09-.2l.1-.19c.04-.1.07-.15.1-.18l.14-.2a.08.08 0 0 1 .04-.05l.06.01ZM5.83 13.77c.04.16-.02.3-.17.44h-.03a.66.66 0 0 1-.03-.24c.06-.07.1-.15.14-.24a.06.06 0 0 1 .04-.04.06.06 0 0 1 .06.02v.06ZM6.58 13.87c0 .13.02.26.05.4 0 .03 0 .07-.02.1a2.07 2.07 0 0 1-.37.54v-.01l-.06-.28c.15-.08.22-.21.23-.4.01-.1 0-.22-.01-.34l.01-.05a.07.07 0 0 1 .04-.03c.08-.01.13 0 .13.07Z" fill="#FEFC91"/></svg>