<!-- by TradingView --><svg width="18" height="18" viewBox="0 0 18 18" xmlns="http://www.w3.org/2000/svg"><path fill="#F0F3FA" d="M0 0h18v18H0z"/><path d="M9.33 5.3c0 .02.01.03.03.03h.28c.02 0 .03 0 .03-.02V4.03c0-.02 0-.03.02-.03h1.15a.03.03 0 0 1 .02.02l-.11 2.66v.01c.7.27 1.23.7 1.58 1.27.04.05.09.1.16.15.53.33.92.8 1.16 1.42.04.1.05.21.1.31.11.26.18.43.2.51l.04.45c.05.63-.11 1.2-.47 1.69-.06.08-.07.18-.11.27-.16.34-.4.6-.74.8l-.35.16a3.63 3.63 0 0 1-1.9.13 1.22 1.22 0 0 1-.64-.36.05.05 0 0 0-.06-.01c-.5.3-1.3.37-1.54-.3a.03.03 0 0 0-.04-.02v.01c-.14.13-.27.27-.44.37-.32.2-.66.32-1.02.38-.46.08-.93.1-1.4.06-.4-.04-.76-.06-.97-.46l-.17-.32a2.84 2.84 0 0 1-.14-.8c0-.25.01-.52.04-.82l.1-1.02c.02-.55.07-1.42.59-1.72.1-.06.22-.1.36-.12.16-.03.29-.04.4-.04.05 0 .1-.01.12-.05a2.85 2.85 0 0 1 1.41-.84v-.01L6.81 4 6.83 4h1.15C8 4 8 4.01 8 4.03v1.3H8.33l.01-.01V4.03c0-.02.01-.03.03-.03h.95c.01 0 .02 0 .02.03V5.3Z" fill="#000001"/><path d="M8.7 4.3a92.7 92.7 0 0 1-.02 1.24.22.22 0 0 1-.07.03V4.31c0-.01 0-.02.03-.03l.07.01ZM7.25 4.3a153.4 153.4 0 0 0 .06 1.74c-.01.05 0 .07.04.06l.04.68-.1.03-.14-2.5c0-.01.01-.02.03-.02h.07Z" fill="#FEFFFE"/><path d="M8.13 5.58c.14.13.23.3.26.49-.36 0-.71.04-1.08-.03a153.49 153.49 0 0 1-.06-1.75h.39c.02 0 .03.02.03.04v1.23c0 .02 0 .02.02.02h.44Z" fill="#FBDF49"/><path d="m9.3 5.59.02.4-.03.03-.9.05a.83.83 0 0 0-.27-.49h.49a.22.22 0 0 0 .07-.04l.02-.07V4.3h.33a.02.02 0 0 1 .02.02v1.23l.01.02.02.01.22.02Z" fill="#FBDA01"/><path d="M10.15 4.3v1.24c0 .02-.01.03-.03.04h-.07V4.32c0-.02 0-.03.03-.03h.07Z" fill="#FEFFFE"/><path d="m10.43 6.22-.97-.12a.06.06 0 0 1-.04-.02.07.07 0 0 1-.01-.05V5.6l.64-.01h.07c.02 0 .03-.02.03-.04V4.3h.34c.02 0 .03.02.02.04a42.78 42.78 0 0 0-.07 1.9h-.01Z" fill="#FBDA01"/><path d="M9.41 5.59v.44l.01.05.04.02.97.12a.1.1 0 0 0 0 .07.7.7 0 0 1-.27-.04c-.3-.03-.65-.1-.95-.05a3.07 3.07 0 0 1-.48.04.03.03 0 0 0-.01.02v.42c0 .03.01.04.04.04h1.35l.31.06v.15l-.35-.06a7.43 7.43 0 0 0-1.69.02l-1 .07H7.3V6.8l.1-.03 1.22-.12c.02 0 .02 0 .02-.03l-.02-.45c0-.02-.01-.03-.03-.02-.44.02-.85 0-1.23-.06-.04 0-.05-.01-.04-.06.37.07.72.03 1.08.03l.9-.05c.02 0 .03-.02.03-.03l-.02-.4h.11Z" fill="#6F461A"/><path d="m7.4 6.78-.05-.68a6.06 6.06 0 0 0 1.26.08l.02.45c0 .02 0 .03-.02.03l-1.22.12Z" fill="#FBDF49"/><path d="m10.16 6.25-.05.47H8.76c-.03 0-.04-.01-.04-.04v-.42a.03.03 0 0 1 0-.02.03.03 0 0 1 .03-.01c.16 0 .31 0 .46-.03.3-.04.64.02.95.05Z" fill="#FBDA01"/><path d="M10.43 6.3v.48l-.32-.06.05-.47a.7.7 0 0 0 .27.04Z" fill="#C08502"/><path d="M5.2 8.27a2.1 2.1 0 0 0-.15.3c-.05.13-.1.13-.13 0-.14-.47-.47-.67-.89-.85-.04-.02-.04-.04 0-.04.07-.02.16-.07.22-.1.39-.17.62-.46.7-.88 0-.04.02-.05.04 0 .08.22.19.41.32.59.14.18.43.3.67.4.03 0 .03.01 0 .02-.3.12-.61.29-.77.56Z" fill="#F8EE03"/><path d="M10.07 6.87c-.01.12 0 .24.03.35 0 .02 0 .03-.03.02-.24-.04-.45-.03-.72-.06-.2-.02-.48-.03-.85-.01a.73.73 0 0 1-.12-.28 7.43 7.43 0 0 1 1.69-.02Z" fill="#FBDA01"/><path d="M8.38 6.89c.02.1.06.2.12.28h-.06v.02c.04.02.07.02.11.02v.03c0 .02-.02.03-.04.03H8c-.02 0-.04 0-.04.03l-.02.49-.5.04-.04-.87.99-.07Z" fill="#FBDF49"/><path d="m7.39 6.96.03.87a16.34 16.34 0 0 1 .02.54l.03.14c0-.02 0-.02-.02 0-.04 0-.05 0-.05-.02l-.1-1.54h.09Z" fill="#FEFFFE"/><path d="M11.64 7.6a25.51 25.51 0 0 1-.8-.22.49.49 0 0 1-.13-.03l.02-.3c0-.03 0-.03.03-.03.32.13.61.32.88.58ZM8.55 7.2h.59l.03.02.02.03a.01.01 0 0 1 0 .01h-.01L9 7.3h-.02L9 7.3h.28l.03.42c0 .02 0 .03-.03.03l-1.34.04.02-.5.04-.02h.52c.02 0 .03-.01.04-.03V7.2Z" fill="#FBDA01"/><path d="M9.4 7.26v.48c0 .03.01.05.04.05a7.4 7.4 0 0 1 .9.14l.03.04a10.83 10.83 0 0 0-.63-.08 1.41 1.41 0 0 0-.39 0c-.2.03-.4.04-.6.03-.01 0-.02 0-.02.02l-.02.2c-.02-.09-.04-.06-.07.09l-.03-.35c0-.02-.01-.03-.03-.02l-1.15.04c-.02-.02-.02-.05 0-.07l.5-.04 1.34-.04c.02 0 .03-.01.03-.03l-.03-.42c-.03-.03.01-.04.13-.04Z" fill="#6F461A"/><path d="m10.41 7.35-.03.57c0 .01 0 .02-.02.02h-.01a7.4 7.4 0 0 0-.9-.15c-.04 0-.05-.02-.05-.05v-.48c.33 0 .67.03 1.01.1Z" fill="#FBDA01"/><path d="M11.64 7.6c.25.22.45.5.6.83v.01a.02.02 0 0 1 0 .02h-.02l-.2-.06c-.22-.4-.54-.69-.97-.85l-.33-.13v-.07l.12.03a25.55 25.55 0 0 0 .8.22Z" fill="#C08502"/><path d="m10.72 7.42.33.13c.43.16.75.45.97.85-.33-.04-.6-.04-.8 0l-.53.1c-.02 0-.03 0-.03-.02l.06-1.06Z" fill="#FBDA01"/><path d="M8.64 8.23a1 1 0 0 0-.51.19c-.23 0-.44.03-.66.09a.42.42 0 0 1-.03-.14l-.01-.47 1.15-.04c.02 0 .03 0 .03.02l.03.35Z" fill="#FBDF49"/><path d="m10.16 7.95-.05.44H9.05l-.32-.15a.04.04 0 0 1-.02-.04v-.06l.02-.2c0-.02.01-.03.03-.02.2 0 .4 0 .6-.03.12-.02.25-.02.38 0l.42.06Z" fill="#FBDA01"/><path d="m10.37 7.97-.01.45-.25-.03.05-.44c.05.03.12.04.2.02Z" fill="#C08502"/><path d="M7.06 8.29c-.31.07-.6.2-.85.4l-.2-.01H6a.01.01 0 0 1 0-.02c.3-.27.64-.45 1.03-.54.01 0 .02 0 .03.02v.15Z" fill="#FEFFFE"/><path d="m7.06 8.29.05.62c0 .02-.01.02-.03.01a3.7 3.7 0 0 0-.87-.23c.26-.2.54-.33.85-.4Z" fill="#FBDA01"/><path d="M8.91 8.54c-.09.19-.2.35-.33.5-.07.09-.17.12-.3.12-.16-.42-.03-.66.4-.72.06 0 .13.03.23.1Z" fill="#FEFFFE"/><path d="M10.1 8.52a.56.56 0 0 0-.04.19c-.2.15-.38.32-.51.53h-.02c-.06-.3-.2-.55-.42-.74-.01-.01-.02-.03-.01-.06l1 .08ZM13.23 9.24a.47.47 0 0 1-.3.08 3.42 3.42 0 0 0-.22-.39c-.1-.16-.08-.25-.11-.4 0-.03 0-.03.01-.02.24.21.45.45.62.73Z" fill="#FBDA01"/><path d="M12.75 10.77c-.2.43-.5.7-.9.78.09-.21-.15-.3-.3-.34-.27-.07-.54-.15-.8-.24-.4-.14-.72-.36-.94-.67.1-.43.24-.8.4-1.08.15-.23.39-.44.72-.6.25-.08.54-.12.87-.11.32 0 .7.05.62.49a1.4 1.4 0 0 1-.13.4c0 .02-.02.02-.03.02l-.3-.1c-.4-.12-.95-.13-1.32.12-.21.14-.13.32.04.44.08.06.2.12.37.19l.39.12c.47.15.91.34 1.31.58Z" fill="#F8EE03"/><path d="m10.3 8.58-.24.13c0-.06 0-.13.03-.2l.2.07Z" fill="#C08502"/><path d="M7.53 8.55h.52c-.1.26-.1.52.03.79l-.38.02-.25-.23-.01-.04-.05-.5c0-.03 0-.04.03-.04h.1Z" fill="#FBDF49"/><path d="M8.27 9.16c.14 0 .24-.03.3-.12.14-.15.25-.31.34-.5.1.1.12.24.06.45a.4.4 0 0 1-.35.31c-.13.03-.25-.02-.35-.14Z" fill="#F8EE03"/><path d="M10.93 8.61c-.33.17-.57.38-.71.61-.17.29-.3.65-.4 1.08a.96.96 0 0 1-.12-.7c.05-.22.15-.4.3-.54.26-.23.57-.38.93-.45ZM7.02 9.19l.37.42c.02.01.01.02 0 .02-.1-.02-.16-.08-.23-.1a4.64 4.64 0 0 0-1.86-.08c-.05 0-.1.04-.12.08-.28.51-.47 1.12-.61 1.69-.03.08-.02.2-.04.28-.03.12-.05.12-.05-.01v-1.16c.01-.27.04-.55.09-.83a.5.5 0 0 1 .21-.35c.08-.05.17-.09.3-.12.4-.08.83-.1 1.31-.03.25.04.45.1.63.19Z" fill="#FEFFFE"/><path d="M7.9 10.96c-.3.6-.79 1.02-1.45 1.24-.25.08-.5.14-.75.18l-1.42.23c-.01-.24 0-.48.01-.72.04-.47.1-.99.18-1.56l.01 1.16c0 .13.02.13.05 0 .02-.07.01-.19.04-.27.15-.57.33-1.18.61-1.69a.16.16 0 0 1 .12-.08c.63-.1 1.25-.07 1.86.08.07.02.14.08.22.1.02 0 .03 0 .01-.02l-.37-.42c.35.13.59.36.71.69.11.3.17.67.17 1.08Z" fill="#F8EE03"/><path d="M13.04 10.85c.14-.45.13-.89-.05-1.3a.67.67 0 0 1-.07-.23c.12 0 .22-.02.31-.08.23.4.34.8.33 1.2-.02.44-.13.84-.34 1.19-.04.06-.05.06-.04-.02.03-.26-.01-.51-.14-.76Z" fill="#EAB202"/><path d="m8.13 9.51-.15.18c-.02.02-.03.02-.04 0a.6.6 0 0 1-.13-.18h.32Z" fill="#F8EE03"/><path d="m13.04 10.85-.25-.25c.05-.2.06-.41.04-.63.07-.11.13-.25.16-.43.18.42.2.86.05 1.31Z" fill="#6F461A"/><path d="M9.13 11.05c-.26.34-.6.6-1 .76v-.34l.25-.94c.1-.33.23-.64.41-.93.1-.03.18-.04.27-.03.02 0 .02.01.03.03l.04 1.45Z" fill="#F8EE03"/><path d="M8.8 9.6c-.19.29-.32.6-.42.93l-.24.94c-.01-.47-.01-.93 0-1.37.01-.4.32-.5.65-.5Z" fill="#FEFFFE"/><path d="m5.2 12.05.2-2.3c0-.02.02-.03.04-.03.23-.03.45-.02.65 0 .96.15.9 1.1.68 1.8a.6.6 0 0 1-.43.44c-.34.1-.72.13-1.12.1l-.02-.01Z" fill="#000001"/><path d="M12.83 9.97c.02.22 0 .43-.04.63l-.46-.24a.06.06 0 0 1-.04-.05v-.1c.01-.02.02-.03.04-.03a.6.6 0 0 0 .5-.2ZM11.5 10.1c-.04-.03-.04-.04.01-.05a3.15 3.15 0 0 1 .57.02.1.1 0 0 1 .05.1v.08c0 .04-.03.06-.08.04l-.54-.2ZM6.59 11.2l-.05-.02a.04.04 0 0 1-.02-.04c.02-.2 0-.42-.04-.62a.18.18 0 0 1 .11-.01c.02 0 .03.01.03.03.02.22.01.44-.03.66Z" fill="#FBDA01"/><path d="M6.48 10.52c.04.2.06.41.04.62 0 .02 0 .03.03.04l.04.02c-.02.2-.05.44-.29.49-.08-.16-.17-.27-.22-.48a1.5 1.5 0 0 1-.02-.3c0-.11-.02-.24-.04-.36l.46-.03Z" fill="#FCF0A1"/><path d="M6.01 10.55c.03.12.05.25.05.37 0 .13 0 .22.02.29.05.2.14.31.22.48-.1.05-.17.03-.21-.05A1.27 1.27 0 0 1 6 10.54Z" fill="#FEFFFE"/><path d="M10.2 11.22v.01l-.52-.14a.05.05 0 0 1-.04-.04v-.46h.01c.15.23.33.44.55.63Z" fill="#FBDA01"/><path d="M11.84 11.55c.4-.09.71-.35.91-.78.11.2.16.34.17.42.03.63-.4 1.14-.94 1.37-.62.27-1.46.33-2.1.08-.16-.06-.36-.19-.45-.35v-.04l.23-.5c0-.01.02-.02.03-.01.53.2 1.04.36 1.55.25a.9.9 0 0 0 .6-.44ZM7.9 10.96c-.08.9-.56 1.59-1.45 1.77-.57.12-1.14.16-1.71.12-.19-.01-.42-.02-.46-.24l1.42-.23c.25-.04.5-.1.75-.18a2.37 2.37 0 0 0 1.45-1.24Z" fill="#EAB202"/><path d="M13.37 11.99a.16.16 0 0 1 .01-.13c.16-.26.28-.53.37-.83.02-.1.03-.1.03 0-.02.4-.12.79-.31 1.14-.02.03-.03.03-.04 0l-.06-.18Z" fill="#686363"/><path d="M9.13 11.05v1.33a.08.08 0 0 1-.05.08c-.28.1-.55.13-.82.11l-.04-.01a.06.06 0 0 1-.02-.04l-.07-.7c.4-.17.74-.43 1-.77Z" fill="#EAB202"/><path d="M10.04 11.26c-.02.15-.02.3 0 .43a.64.64 0 0 1-.37-.2.07.07 0 0 1-.02-.05v-.28c0-.02.01-.03.03-.02l.36.12Z" fill="#FBDA01"/><path d="M10.25 11.31v.43l-.07-.01v-.42h.07Z" fill="#6F461A"/><path d="M10.26 11.74v-.43h.04c.26.2.55.37.86.48.05.02.05.03 0 .04a2.3 2.3 0 0 1-.84-.05.13.13 0 0 1-.06-.04Z" fill="#FBDA01"/><path d="M5.34 13.16c1 0 2.25-.23 2.6-1.34v-.02h.02v.02c0 .35.03.66.11.95a.1.1 0 0 1 0 .09c-.37.55-1 .8-1.64.86a5.45 5.45 0 0 1-1.7-.1.24.24 0 0 1-.07-.07l-.23-.4c-.03-.06-.01-.08.05-.06.18.04.47.07.86.07ZM10.4 13.07c.96.13 2.3-.17 2.66-1.24.01-.03.03-.04.04 0 .18.4.25.74-.05 1.1-.52.65-1.44.82-2.22.75-.57-.04-.98-.25-1.15-.82a.01.01 0 0 1 .01-.02c.22.12.46.2.7.23ZM8.36 12.87a1.86 1.86 0 0 0 1.01-.26.05.05 0 0 1 .05.02v.02l.2.6a.03.03 0 0 1-.01.04c-.29.17-.7.28-.98.06a1.23 1.23 0 0 1-.28-.47Z" fill="#686363"/></svg>