<!-- by TradingView --><svg width="18" height="18" viewBox="0 0 18 18" xmlns="http://www.w3.org/2000/svg"><path fill="url(#anhmjhh0d)" d="M0 0h18v18H0z"/><path fill-rule="evenodd" d="M9 15A6 6 0 1 0 9 3a6 6 0 0 0 0 12Zm-.2-.19a5.61 5.61 0 1 0 0-11.23 5.61 5.61 0 0 0 0 11.23Z" fill="url(#bnhmjhh0d)"/><path d="M5 6.53V12h1V8.46L8 12V9.96L5.99 6.53H5ZM13 6.53V12h-1V8.34L9.6 11h-.69L8 9.45V7.54l1.24 2 2.58-3.01H13Z" fill="#fff"/><defs><linearGradient id="anhmjhh0d" x1="3.35" y1="3.12" x2="21.9" y2="24.43" gradientUnits="userSpaceOnUse"><stop stop-color="#1A1E21"/><stop offset="1" stop-color="#06060A"/></linearGradient><linearGradient id="bnhmjhh0d" x1="12.81" y1="4.39" x2="5.1" y2="13.52" gradientUnits="userSpaceOnUse"><stop stop-color="#47BB9B"/><stop offset=".17" stop-color="#4C9FCC"/><stop offset=".35" stop-color="#4E96E0"/><stop offset=".58" stop-color="#D93CC7"/><stop offset=".74" stop-color="#F13E73"/><stop offset=".87" stop-color="#E86445"/><stop offset="1" stop-color="#DFAF58"/></linearGradient></defs></svg>