<!-- by TradingView --><svg width="18" height="18" viewBox="0 0 18 18" xmlns="http://www.w3.org/2000/svg"><path fill="url(#a)" d="M0 0h18v18H0z"/><path d="M14.93 9.96c-.13-.15-.34-.18-.47-.28a.43.43 0 0 0-.14-.09c-.12-.03-.23-.04-.31-.13-.1-.1-.2-.1-.35-.08a.06.06 0 0 1-.04-.01.79.79 0 0 1-.1-.13c-.1-.14-.24-.14-.38-.18-.02 0-.03-.01-.03-.03-.02-.13-.22-.14-.37-.17a.76.76 0 0 1-.22-.07c-.1-.06-.24-.14-.34-.25-.06-.07-.1-.1-.14-.11a.64.64 0 0 1-.4-.25c-.08-.1-.19-.2-.29-.22a.95.95 0 0 1-.53-.33c-.05-.06-.07-.12-.07-.18V7.4a.18.18 0 0 0-.15-.07c-.07 0-.12.09-.15.15l-.03.02h-.02a.03.03 0 0 1-.03-.03.43.43 0 0 0-.08-.22.88.88 0 0 0-.27-.22c.03-.02.04-.06.03-.12a8.1 8.1 0 0 1-.04-.24.32.32 0 0 0-.12-.05.06.06 0 0 1-.04-.03.13.13 0 0 1-.02-.07c.02-.04.06-.05.13-.04a.5.5 0 0 1 .09.03h.02a.5.5 0 0 0-.05-.17c-.15-.2-.36-.36-.63-.5a.35.35 0 0 0-.2-.04l-.32-.01c-.2-.02-.41.13-.57.25a.34.34 0 0 0-.07.1.37.37 0 0 1-.08.11.89.89 0 0 0-.2.29l.06.18c.04.1-.03.22-.06.3-.04.08-.1.17-.18.24a.75.75 0 0 1-.29.08.9.9 0 0 0-.54.17.87.87 0 0 1-.2.08c-.12.05-.32.16-.38.3l-.03.03-.44.21v.06l-.01.02c-.06.03-.14.1-.23.2-.08.07-.19.08-.23.18a.54.54 0 0 1-.1.18l-.34.32-.15.13-.09.09a.2.2 0 0 0-.05.1l-.02.05c-.1.11-.2.21-.33.3-.13.08-.22.17-.26.3a.74.74 0 0 1-.17.3c-.08.09-.1.21-.17.32l-.1.25c0 .02-.02.03-.03.04a.13.13 0 0 0-.03.05.56.56 0 0 1-.12.24 6 6 0 1 1 11.47-1.3Z" fill="#D3C2AF"/><path d="M9.83 6.52v-.04l.03-.02a1 1 0 0 0 .1 0v-.03a.57.57 0 0 0-.18-.13.04.04 0 0 0-.06.03c-.04.16.02.27.17.32a.05.05 0 0 1 .03.04c0 .02-.01.05-.04.07-.02 0-.02.02 0 .02.03.01.04.03.04.06 0 .01 0 .02-.02.03-.14.04-.16-.07-.2-.17l-.08-.13a.04.04 0 0 0-.04-.02.3.3 0 0 1-.16-.03.4.4 0 0 1 .11-.1.04.04 0 0 0 .02-.04.04.04 0 0 0-.02-.03l-.38-.22a.04.04 0 0 0-.06.04c.01.07.04.14.07.2v.01c-.04 0-.06-.01-.07-.03a.66.66 0 0 0-.16-.15c-.07-.04-.08-.03-.03.04l.16.22v.02a.14.14 0 0 1-.13-.05l-.36-.3a.04.04 0 0 0-.04 0 .32.32 0 0 0-.15.09.12.12 0 0 0 0 .14c.07.1.07.15-.02.14l-.1-.07a.04.04 0 0 0-.07.01l-.04.1c-.02.04-.05.06-.08.06a.22.22 0 0 1-.12-.06c.04-.1.11-.2.2-.29a.37.37 0 0 0 .08-.1c.03-.06.05-.1.07-.11.16-.12.36-.27.57-.25h.32c.08 0 .15.01.2.04.27.15.48.31.63.5a.5.5 0 0 1 .05.17c0 .02 0 .02-.02.01a.5.5 0 0 0-.1-.03c-.06-.01-.1 0-.12.04Z" fill="#D6EB88"/><path d="M8.93 6.43a.85.85 0 0 0-.23-.1c-.05 0-.08.02-.1.06a.07.07 0 0 1-.1.01.07.07 0 0 1-.03-.02l-.05-.1h-.03l.07.19-.01.03c-.02.02-.05.02-.09 0 .09.01.09-.04.02-.14a.12.12 0 0 1 0-.14.32.32 0 0 1 .15-.1.04.04 0 0 1 .04.01l.36.3Z" fill="#B4C462"/><path d="M9.42 6.52c0 .04.01.07.06.1.07.05.15.08.23.08.03.1.05.2.19.17.02 0 .02-.02.02-.03 0-.03-.01-.05-.04-.06-.02 0-.02-.01 0-.02.03-.02.04-.05.04-.07a.05.05 0 0 0-.03-.04c-.15-.05-.2-.16-.17-.32a.04.04 0 0 1 .06-.03c.06.03.12.07.18.13v.03a1 1 0 0 1-.1 0c-.01 0-.02 0-.03.02v.04c0 .03 0 .05.02.07.01.02.02.03.04.03l.12.05.02.04.02.2c0 .06 0 .1-.03.12-.04.03-.04.06-.01.08.08.07.12.14.14.21 0 .03-.01.04-.04.03h-.02a.06.06 0 0 1-.04-.04.3.3 0 0 0-.05-.1.08.08 0 0 1-.02-.04.14.14 0 0 0-.08-.11.04.04 0 0 0-.06.05c.02.07.05.12.08.16.04.05.03.08-.03.11-.11.06-.18.04-.21-.05-.02-.07-.04-.12-.1-.16l-.2-.09c-.16-.03-.23.05-.32.14-.06.07-.1.06-.1-.03l-.05-.09c-.19-.17-.4-.18-.65 0-.02 0-.02.02-.01.04v.02c.02.02.03.02.05.01l.2-.1h.03c.12.02.22.06.3.1.05.03.04.04-.02.04l-.38.02a.3.3 0 0 0-.16.07.04.04 0 0 1-.07 0c-.05-.1-.1-.14-.2-.11l-.23.07a.61.61 0 0 0 .18-.25c.03-.07.1-.2.06-.3l-.06-.17c.05.04.08.06.12.06.03 0 .06-.02.08-.06a6.23 6.23 0 0 0 .07-.12.04.04 0 0 1 .03 0l.11.08c.04.01.07.02.09 0a.03.03 0 0 0 0-.03l-.06-.19h.03l.05.1a.07.07 0 0 0 .1.03l.02-.02c.03-.04.06-.07.11-.05.08.02.16.05.23.1.04.03.08.05.12.04.02 0 .02 0 .01-.02l-.16-.22c-.05-.07-.04-.08.03-.04.04.02.1.08.16.15.01.02.03.03.06.03.02 0 .02 0 .01-.02a.46.46 0 0 1-.07-.2.04.04 0 0 1 .06-.03l.38.22a.04.04 0 0 1 .02.03.04.04 0 0 1-.02.03.39.39 0 0 0-.1.11Z" fill="#5A6A25"/><path d="M9.42 6.52c.04.03.1.03.16.03.02 0 .03 0 .04.02l.09.13a.44.44 0 0 1-.23-.08c-.05-.03-.07-.06-.06-.1Z" fill="#738F53"/><path d="M9.2 6.66a.2.2 0 0 1 .04.07.06.06 0 0 1-.07.07l-.22-.1a.05.05 0 0 1 0-.08c.09-.07.17-.05.26.04Z" fill="#B4C462"/><path d="M10.02 7.03c.1.06.2.13.27.22.04.05.07.12.08.22a.03.03 0 0 0 .03.03h.02l.03-.02c.03-.06.08-.15.15-.15.06 0 .1.03.14.07.01.02.02.03.01.05 0 .06.02.12.07.18.15.18.32.29.53.33.1.02.2.12.28.22.1.13.23.21.41.25.03 0 .08.04.14.1.1.12.24.2.34.26.05.03.13.05.22.07.15.03.35.04.37.17 0 .02.01.03.03.03.14.04.29.04.37.18a.8.8 0 0 0 .1.13.06.06 0 0 0 .05.01c.14-.01.25-.01.35.08.08.09.19.1.31.13l.14.09c.13.1.34.13.46.28l-.02.14c-.03.01-.07 0-.1-.02-.02-.01-.03 0-.03.01v.06l-.03.01h-.02c-.05-.02-.08-.04-.09-.07 0-.01 0-.03.02-.04l.05-.03.01-.02v-.04h-.03l-.23-.06c-.02 0-.02 0-.01.02l.02.02a.03.03 0 0 1 0 .02v.01l-.01.01h-.05c-.09-.03-.14-.08-.15-.15a.06.06 0 0 0-.02-.04.64.64 0 0 0-.17-.1c-.05-.01-.06 0-.02.04l.15.21v.04h-.1c-.07-.05-.07-.12-.12-.17a.41.41 0 0 0-.1-.06l-.04-.02a.04.04 0 0 1-.02-.04v-.06l-.01-.02-.02-.02a3.33 3.33 0 0 1-.2-.08l-.02.02a.01.01 0 0 0 0 .01c.1.07.17.14.22.22 0 .03 0 .04-.03.06-.09-.02-.18-.14-.25-.2-.06-.06-.15-.07-.2-.14l-.01-.02v-.02a.03.03 0 0 0-.01-.03l-.53-.23h-.02l-.04.02v.01l.27.1c.09.03.15.06.2.1.06.07.1.14.09.21a.04.04 0 0 0 .02.04c.09.03.14.03.2.11a7.43 7.43 0 0 1 .23.3c.15.06.29.15.4.26.04.03.03.05-.01.06l-.02.01v.03l.35.16h.02c.06-.06.08-.1.16-.11a3.2 3.2 0 0 1 .22-.02l-.12.4-.07-.02-.03.01-.02.08c0 .02 0 .02-.02.01a.22.22 0 0 1-.11-.16.06.06 0 0 0-.03-.04c-.08-.06-.14-.1-.16-.1-.1-.05-.12-.03-.04.05.03.03.08.05.14.07.03.01.06.04.07.07.02.03.02.06.01.1 0 .05 0 .1.05.13l.04.01h.09c-.09.3-.21.56-.37.82a3.18 3.18 0 0 0-.1-.18.7.7 0 0 0-.14-.16.57.57 0 0 1-.19-.27c.04-.04.03-.07-.02-.1a.46.46 0 0 1-.12-.12l-.23-.29a.13.13 0 0 1-.03-.07.03.03 0 0 1 .02-.03c.04-.01.08-.03.1-.06.08-.21-.08-.4-.27-.49v.01l.18.26c.04.13 0 .15-.08.05l-.1-.12c-.08-.1-.24-.13-.3-.23-.04-.08-.02-.1.06-.08l.1.05c.04.02.05 0 .03-.03a.18.18 0 0 0-.16-.09l-.49-.37a.1.1 0 0 1-.03-.05c0-.02.01-.03.03-.03a.2.2 0 0 1 .06-.02c.03 0 .03 0 0-.01a.14.14 0 0 0-.05-.02c-.02 0-.03 0-.04-.02-.06-.05-.08-.11-.15-.16-.15-.1-.3-.17-.31-.31 0-.02-.01-.03-.02-.03l-.16-.16a.13.13 0 0 0-.04-.03l-.3-.15c-.06-.03-.08-.06-.07-.08.02-.06 0-.11-.07-.14a4.25 4.25 0 0 1-.5-.23v.02l-.01.02c0 .03.01.06.04.08.02.03.02.06 0 .07-.03 0-.06 0-.09-.05l-.11-.15a.04.04 0 0 1 0-.04.04.04 0 0 1 .03-.02c.04 0 .08 0 .13-.02a.03.03 0 0 0 .02-.03V8l-.02-.01a1.12 1.12 0 0 0-.4-.14.24.24 0 0 1-.19-.15.08.08 0 0 0-.03-.03 4.89 4.89 0 0 1-.54-.14c-.07-.02-.19-.12-.24-.12h-.42a.33.33 0 0 1-.23-.07.06.06 0 0 0-.04-.01c-.13 0-.25 0-.36.03-.11.04-.15.06-.28.04a.8.8 0 0 0-.24-.01c-.22.08-.45.14-.7.2a.15.15 0 0 0-.06.04.23.23 0 0 1-.06.05 1.62 1.62 0 0 1-.44.15l-.01.02-.03.08-.03.03c-.05.03-.14.05-.2.1-.07.05-.13.09-.2.12a.87.87 0 0 0-.18.13l-.48.39a.8.8 0 0 0-.32.3c-.06.09-.13.16-.2.24l-.13.14-.1.16c-.06.1-.18.18-.27.27l-.2.22-.1.18a.63.63 0 0 1-.2.22 1.3 1.3 0 0 0-.23.25c.06-.1.1-.23.17-.31a.74.74 0 0 0 .17-.3c.04-.14.13-.23.26-.32.12-.08.23-.18.33-.29a.09.09 0 0 0 .02-.04.2.2 0 0 1 .05-.11l.1-.1c.03-.04.1-.08.14-.12l.33-.32a.54.54 0 0 0 .1-.18c.05-.1.16-.11.24-.19l.23-.2h.01v-.07l.44-.21.03-.03c.06-.14.26-.25.39-.3a.87.87 0 0 0 .19-.08.9.9 0 0 1 .54-.17c.06 0 .16-.02.29-.08L8 7.2c.1-.03.15.02.2.1a.04.04 0 0 0 .07.01.3.3 0 0 1 .16-.07l.38-.02c.06 0 .07-.01.01-.04a.96.96 0 0 0-.29-.1H8.5l-.19.1c-.02.01-.03 0-.04-.01l-.01-.02v-.05c.26-.17.47-.16.66.01l.05.09c0 .09.04.1.1.03.09-.09.16-.17.32-.14.03 0 .1.04.2.1.06.03.08.08.1.15.03.09.1.1.21.05.06-.03.07-.06.03-.1a.47.47 0 0 1-.08-.17.04.04 0 0 1 .06-.05c.05.02.07.06.08.1 0 .02 0 .03.02.05a.3.3 0 0 1 .05.1.06.06 0 0 0 .04.04h.02c.03 0 .04 0 .04-.03a.35.35 0 0 0-.14-.2c-.03-.03-.03-.06.01-.09Z" fill="#D6EB88"/><path d="M9.16 7.16a.01.01 0 0 1 0-.01h.04a1.4 1.4 0 0 1 .21.08c.02 0 .02.01.02.02 0 .02-.03.02-.08.02l-.17-.03h-.03a.01.01 0 0 1 0-.02v-.06Z" fill="#5A6A25"/><path d="m10.8 8.27.02.05c0 .02 0 .03-.02.03h-.11a1.14 1.14 0 0 0-.23-.36.97.97 0 0 1-.21-.18.28.28 0 0 0-.16-.07l-.47-.1c-.05-.1-.14-.13-.24-.1.02.03.02.05 0 .07a.04.04 0 0 1-.04 0 1.23 1.23 0 0 0-.4-.07l-.13-.1c-.02-.02-.05-.04-.1-.03-.05 0-.07.04-.1.09a.08.08 0 0 1-.09.03l-.39-.05c-.02 0-.03 0-.04.02-.05.06-.1.1-.16.12-.04 0-.05 0-.06-.04a.03.03 0 0 0 0-.02.03.03 0 0 0-.03 0l-.36.05c-.06-.02-.11-.01-.15.03-.01.02-.02.03-.01.05 0 .02.02.04.05.05l.04.03c.05.02.05.04 0 .05-.05.01-.1 0-.14-.03a1 1 0 0 0-.55.12.04.04 0 0 0 0 .05.1.1 0 0 0 .08.03 2.65 2.65 0 0 0 .36-.04.03.03 0 0 1 .02.03V8a.23.23 0 0 1-.1.1c-.1.04-.18.09-.23.14a19.06 19.06 0 0 1-.4.38c-.17.1-.27.15-.3.18l-.17.17a.24.24 0 0 0-.06.08c-.05.1-.13.15-.26.26-.17.14-.26.33-.43.46-.06.06-.13.13-.19.22-.11.15-.24.3-.38.46-.25.48-.44.9-.57 1.24a3 3 0 0 1-.19.44.36.36 0 0 1-.08-.1 6.37 6.37 0 0 1-.32-.65c.21-.04.4-.16.56-.36.1-.12.15-.24.13-.36a.05.05 0 0 1 .02-.04.42.42 0 0 1 .07-.07.9.9 0 0 0 .36-.4c0-.02 0-.02-.02-.02a.6.6 0 0 0-.2.07.38.38 0 0 0-.16.09.02.02 0 0 1-.03 0v-.02c-.01-.09.02-.16.08-.2l.04-.02.1.02c.03 0 .04 0 .01-.03h-.03c-.02 0-.02-.02-.02-.03v-.02c0 .05.05.06.12.01.08-.05.14-.14.23-.19a.58.58 0 0 0 .15-.1 1.59 1.59 0 0 1 .21-.18.02.02 0 0 0-.01-.02l-.05-.01h-.03c-.18.1-.35.23-.52.38-.04 0-.06-.02-.04-.07.09-.1.2-.17.27-.27a6.06 6.06 0 0 1 .22-.3c.08-.08.15-.15.2-.23l.17-.14a.46.46 0 0 1 .18-.09c.23-.06.45-.16.66-.3.01-.02.03-.02.04-.02l.08.01v-.02c-.18 0-.3-.04-.4.04-.09.07-.22.19-.33.23-.06.02-.08.01-.07-.02l.48-.4c.05-.04.1-.08.18-.12.07-.03.13-.07.2-.12.06-.05.15-.07.2-.1l.03-.03.03-.08a.04.04 0 0 1 .03-.03c.12-.02.26-.07.42-.14a.23.23 0 0 0 .06-.05.15.15 0 0 1 .07-.05c.24-.05.47-.11.7-.2a.8.8 0 0 1 .23.02c.13.02.17 0 .28-.04.1-.03.23-.02.36-.03l.04.01c.06.05.14.07.23.07h.42c.05 0 .17.1.25.12a4.88 4.88 0 0 0 .53.14c.02 0 .03.02.03.03.04.09.1.13.19.15a1.12 1.12 0 0 1 .41.15.03.03 0 0 1 0 .03h-.01a.37.37 0 0 1-.13.03.04.04 0 0 0-.04.02.04.04 0 0 0 0 .04l.13.15Z" fill="#302B06"/><path d="M8.81 7.45c-.05-.05-.1-.05-.15 0a.02.02 0 0 0 0 .03l.26.11a.03.03 0 0 0 .04-.02l-.01-.03c.13 0 .26.03.39.08h.04c.02-.03.02-.05 0-.09.1.15.19.18.24.11l.47.1c-.04.01-.03.04.04.1l.34.25c.02.01.03 0 .03-.01 0-.02 0-.05-.04-.09.09.09.16.2.23.36-.33.13-.6.32-.83.56-.43.48-.88.95-1.3 1.44-.13.14-.26.24-.38.3-.3.19-.57.38-.78.6a.35.35 0 0 0-.14.1l-.07.03h-.01c.06-.07.1-.16.12-.26l.01-.02.34-.43c.09-.1.14-.2.14-.27.02-.24-.24-.27-.42-.3a.47.47 0 0 1-.17-.07l-.28-.16c.25.04.53.08.76 0 .17-.07.28-.13.34-.17.1-.07.14-.24.18-.34.05-.11.03-.18-.03-.29-.09-.17-.16-.25-.34-.31-.15-.06-.26-.1-.32-.14-.23-.14-.31-.4-.05-.57a.7.7 0 0 1 .58-.07c.08.02.13 0 .16-.09l.02-.06c.03-.08 0-.12-.08-.14a2 2 0 0 0-.2 0 .46.46 0 0 0-.2.04c-.13.05-.26.1-.4.12l-.05-.01a.12.12 0 0 1-.02-.05c.04.03.09.04.13.03.06-.01.06-.03.01-.05l-.04-.03a.7.7 0 0 0 .24-.06.02.02 0 0 0-.02-.03l-.12-.04.37-.05a.03.03 0 0 1 .02 0 .03.03 0 0 1 .01.02c0 .03.02.05.05.04a.37.37 0 0 0 .17-.12.04.04 0 0 1 .04-.02l.4.05c.02 0 .05 0 .07-.03.04-.05.06-.08.12-.1.04 0 .07.02.09.05Z" fill="#965F29"/><path d="m8.81 7.45.14.09v.03a.03.03 0 0 1-.03.02l-.26-.1a.02.02 0 0 1 0-.04c.05-.05.1-.05.15 0ZM9.62 7.64c-.05.07-.13.04-.24-.1.1-.03.19 0 .24.1Z" fill="#B4C462"/><path d="m7.48 7.6.11.05a.02.02 0 0 1 .02.02.02.02 0 0 1-.01.02.7.7 0 0 1-.23.05c-.03 0-.05-.03-.05-.05-.01-.02 0-.03.01-.05.04-.04.09-.05.15-.03Z" fill="#C58E52"/><path d="M6.92 9.87c-.35-.24-.57-.4-1.01-.39a.1.1 0 0 0-.07.03c-.12.12-.27.23-.45.32a.06.06 0 0 0-.03.03.67.67 0 0 1-.1.16c-.12.13-.27.26-.25.4a6.84 6.84 0 0 0 .04.33.05.05 0 0 1-.03.02h-.4a.05.05 0 0 1-.03-.03.05.05 0 0 1 0-.05c.07-.09.1-.17.07-.24.14-.15.27-.3.38-.46.07-.1.13-.16.2-.22.16-.13.25-.32.42-.46.13-.1.21-.16.26-.26a.24.24 0 0 1 .06-.08c.06-.05.12-.1.17-.17.03-.03.13-.09.3-.18.04-.03.1-.06.13-.1l.13-.13.14-.15c.05-.05.13-.1.22-.15a.23.23 0 0 0 .11-.1.03.03 0 0 0 0-.03.03.03 0 0 0-.04-.01l-.34.04a.1.1 0 0 1-.08-.03.04.04 0 0 1 .01-.06 1 1 0 0 1 .54-.1c0 .01 0 .03.02.04l.04.01c.15-.02.28-.07.4-.12a.46.46 0 0 1 .2-.05 2 2 0 0 1 .2.01c.09.02.12.06.1.14l-.03.06c-.03.08-.08.11-.16.1a.7.7 0 0 0-.58.06c-.26.17-.18.43.05.57.06.04.17.08.32.14.18.06.25.14.34.31.06.11.08.18.03.3-.04.1-.07.26-.18.33-.06.04-.17.1-.34.16a1.6 1.6 0 0 1-.76.01Z" fill="#AC7B3F"/><path d="M6.48 8.2h-.06l-.2.11a.1.1 0 0 1-.08.01H6.1c-.02-.01-.02-.02 0-.04.2-.16.35-.25.6-.18h.17v.03a1.5 1.5 0 0 1-.53.22.02.02 0 0 1-.01-.02V8.3l.15-.06c.02-.01.02-.02 0-.03Z" fill="#B4C462"/><path d="M11.43 8.5a.24.24 0 0 1-.15.01.03.03 0 0 0-.03.02v.03c0 .03 0 .04.02.05.05.05.1.11.13.17.03.06.11.1.15.15v.02c-.09 0-.14-.07-.2-.1a3.23 3.23 0 0 1-.13-.08.34.34 0 0 0-.08-.12.04.04 0 0 1-.01-.05c.01-.07-.01-.12-.08-.16a.08.08 0 0 1-.03-.03.62.62 0 0 0-.13-.16.12.12 0 0 1-.04-.08v-.02a.04.04 0 0 1 .05-.02c.15.09.3.16.46.23.07.03.1.08.07.14Z" fill="#4D561D"/><path d="M11.43 8.5c-.01.02.01.05.06.08h-.01a.03.03 0 0 0-.03.01v.04c.1.14.21.28.25.46.02.07.06.13.06.2 0 .03 0 .05.03.06l.2.21.01.02c0 .07.04.14.11.2l-.53.02c-.02 0-.02 0 0 .02l.33.14c.05.02.05.04 0 .04-.26.04-.56-.02-.82.12a.05.05 0 0 0-.03.04v.03l.04.02c.43-.02.82.11 1.16.39.1.08.25.2.36.33.1.12.13.36.22.46a13.52 13.52 0 0 1 .49.63c-.4.1-.65-.07-.87-.4.13.08.24.14.34.18.1.04.12.02.07-.08-.15-.24-.32-.48-.49-.72-.14-.19-.26-.33-.37-.42-.35-.29-.8-.34-1.2-.13-.22.12-.47.25-.4.56.04.12.13.26.3.41-.24-.14-.31-.26-.42-.46-.06-.12-.14-.2-.25-.23a4.34 4.34 0 0 1-.86-.3.93.93 0 0 0-.62-.08c.43-.5.87-.96 1.3-1.44.23-.24.5-.43.83-.56h.11c.02 0 .03-.01.02-.03l-.01-.05c.02.04.05.06.08.05.02-.01.02-.04 0-.07.05.05.1.1.13.16 0 .02.02.03.03.03.07.04.1.1.08.16l.01.05c.04.03.06.07.08.12l.03.03.1.05c.06.03.11.1.2.1v-.02c-.04-.06-.12-.1-.15-.15a.76.76 0 0 0-.13-.17c-.01 0-.02-.02-.02-.05v-.03l.01-.01h.02c.06 0 .11 0 .15-.02Z" fill="#A77248"/><path d="M5.17 9a.8.8 0 0 1 .32-.3c-.01.03.01.04.07.02.1-.04.24-.16.33-.23.1-.08.22-.05.4-.04v.02h-.12c-.2.15-.43.25-.66.31a.46.46 0 0 0-.18.1L5.17 9Z" fill="#B4C462"/><path d="m11.5 8.58.3.15c.02 0 .03.01.04.03l.16.16.02.03c0 .14.16.2.3.3.08.06.1.12.16.17l.04.02.06.02c.02 0 .02.01 0 .01a.2.2 0 0 0-.07.02c-.02 0-.03.01-.02.03 0 .02 0 .04.02.05-.02.06-.02.1 0 .14.03.07.02.1-.06.06-.09-.04-.16-.13-.2-.27 0-.02-.02-.02-.03-.02h-.02l-.03.01a.22.22 0 0 1-.13.12c-.01 0-.02.01 0 .02l.14.18-.07-.04c-.07-.05-.1-.12-.1-.19l-.02-.02-.2-.2a.08.08 0 0 1-.03-.06c0-.08-.04-.14-.06-.2-.04-.19-.15-.33-.25-.47a.03.03 0 0 1 .03-.05h.01Z" fill="#4D561D"/><path d="M7.64 9.74c-.01.02-.03.02-.04.01a3.45 3.45 0 0 1-.39-.24c-.23-.17-.45.07-.66-.05a2.21 2.21 0 0 0-.58-.23.03.03 0 0 1 0-.05c.09-.12.2-.19.35-.22a.05.05 0 0 0 .04-.03l.03-.07c.1-.25.64-.25.85-.22.08 0 .25.06.52.16.02.01.03.02.03.04.02.12.08.36.06.48a.9.9 0 0 1-.21.42ZM11.85 9.64c.04-.01.03-.02 0-.02-.22 0-.43.04-.62.11l-.26.14a.9.9 0 0 1-.52.11.36.36 0 0 1-.3-.21c-.17-.33-.04-.8.32-.97a8.17 8.17 0 0 1 .48-.18c.12.03.22.11.28.24l.03.03c.12.06.2.1.23.15.18.2.33.41.48.63.02.03 0 .04-.03.04h-.27c-.04 0-.04 0 0-.01a.96.96 0 0 0 .18-.06Z" fill="#C58E52"/><path d="M4.99 9.39v-.05c0-.02.01-.05.04-.08a1.01 1.01 0 0 1 .19-.16l.17-.11a.84.84 0 0 1 .22-.11c.07-.02.12-.01.13.01L5 9.4ZM11.96 9.25a.65.65 0 0 1-.11-.17c-.05-.12-.01-.15.1-.07.06.04.1.13.1.25l.01.05.05.08c.04.05.02.06-.03.03-.05-.02-.09-.13-.12-.17Z" fill="#B4C462"/><path d="m12.51 9.57.49.37c-.05.07-.1.07-.18.02a.05.05 0 0 0-.04 0 .04.04 0 0 0-.03.02c-.02.09-.01.15.03.2l.02.04c0 .05.01.1.04.15l.07.12c.04.08.08.14.13.18a.05.05 0 0 0 .08 0v-.02c.02-.04 0-.07-.02-.11a2.68 2.68 0 0 1-.15-.31.04.04 0 0 1 .05-.03c.12.03.2.21.23.31.01.02.02.02.03.02.08-.01.15.01.2.06a.02.02 0 0 1 0 .03l-.01.01c-.06.01-.11 0-.16-.04a.03.03 0 0 0-.05.01v.01c-.01.07 0 .14.03.2.05.1.11.11.1.25 0 .07.03.17.1.29a.03.03 0 0 0 .03.01c.03 0 .04-.02.03-.04a63.18 63.18 0 0 1-.1-.54h.02l.23.28c.03.04.07.08.12.11.05.04.06.07.02.1-.04.02-.09.01-.14 0a.05.05 0 0 0-.05 0l-.01.03v.03l.08.19c.05.16.01.3.15.45.04.05.07.04.08-.02l.01-.04a.2.2 0 0 0-.03-.15.44.44 0 0 1-.06-.29c0-.02 0-.02.02 0a.7.7 0 0 0 .07.1l.06.11c.03.06.08.12.14.16a.1.1 0 0 1 .03.03v.04c0 .02 0 .03-.02.03-.03 0-.05 0-.08-.02a.03.03 0 0 0-.03.01v.01c-.01.09 0 .17.02.25a.42.42 0 0 1-.14.22c-.04 0-.07-.01-.09-.05a.76.76 0 0 0-.08-.17c-.11-.17-.2-.34-.25-.5a.38.38 0 0 0-.06-.1.34.34 0 0 1-.06-.1 1.2 1.2 0 0 0-.32-.49.24.24 0 0 1-.08-.14.09.09 0 0 0-.02-.04l-.22-.23c-.07-.05-.1-.13-.15-.23-.05-.1-.12-.17-.2-.27a.06.06 0 0 1 0-.05l-.01-.05-.2-.18-.15-.18.01-.02c.06-.03.1-.06.13-.12l.03-.01h.02c.01 0 .02 0 .03.02.04.14.11.23.2.27.08.03.1.01.06-.06-.02-.03-.02-.08 0-.14Z" fill="#302B06"/><path d="M6.92 9.87c.1.05.2.1.28.16.05.03.1.05.17.06.18.04.44.07.42.3 0 .08-.05.17-.14.28l-.34.43c.04-.12.1-.2.02-.33a1.14 1.14 0 0 0-.3-.3c-.2-.11-.37-.23-.58-.2a1.7 1.7 0 0 0-.4.14c-.27.13-.34.4-.43.67v.04c.19.3.45.45.8.45.29.01.41-.07.64-.2.11-.05.17-.15.24-.25a.54.54 0 0 1-.12.26c-.4.32-.97.39-1.42.1-.15-.08-.3-.16-.43-.11-.26.1-.53.19-.8.26-.12.03-.27.1-.33.19a2.2 2.2 0 0 1-.28.34l-.02-.03a3 3 0 0 0 .2-.44c.12-.34.31-.76.56-1.24.02.07 0 .15-.07.24a.05.05 0 0 0 .01.07H5.02a.05.05 0 0 0 .03-.01.05.05 0 0 0 .01-.04 6.84 6.84 0 0 1-.05-.3c-.02-.13.13-.26.26-.39a.67.67 0 0 0 .09-.16l.03-.03c.18-.1.33-.2.45-.32a.1.1 0 0 1 .07-.03c.44 0 .66.15 1.01.4Z" fill="#845017"/><path d="M12.76 9.5a.03.03 0 0 0 0 .04l.3.3h.04a.03.03 0 0 0 0-.04l-.3-.3a.03.03 0 0 0-.04 0Z" fill="#5A6A25"/><path d="m4.41 9.99.1-.1a3.06 3.06 0 0 1 .55-.4l.05.02a.02.02 0 0 1 0 .02c-.1.08-.16.13-.2.18a.58.58 0 0 1-.15.1c-.09.05-.15.14-.23.2-.07.04-.11.03-.12-.02Z" fill="#B4C462"/><path d="M13.88 9.75c-.04 0-.07.02-.08.06a.02.02 0 0 1-.03.02l-.02-.01c.03-.01.04-.03.03-.05a.63.63 0 0 0-.21-.22V9.5h.01a3.34 3.34 0 0 0 .22.1v.08c0 .02.01.03.03.04l.05.02Z" fill="#5A6A25"/><path d="m14.9 10.1-.08.36h-.05a.53.53 0 0 1-.12-.18 13.64 13.64 0 0 0-.21-.13c-.04-.02-.07-.05-.07-.08a.08.08 0 0 0-.08-.07l-.03.01c-.05.03-.1.02-.16-.03h.08c.02 0 .02-.02.01-.04l-.15-.2c-.04-.05-.03-.06.02-.04.05.01.1.04.17.1l.02.03c.01.07.06.12.15.15h.05a.03.03 0 0 0 .01-.03v-.01l-.02-.02V9.9l.24.05.02.01.01.02V10l-.01.02-.05.03a.04.04 0 0 0-.02.04c0 .03.04.05.1.07h.03l.01-.03v-.04c0-.02.01-.02.03 0 .03.02.07.02.1 0Z" fill="#738F53"/><path d="m12.11 9.77.07.04.2.18v.05c0 .02 0 .04.02.05.07.1.14.17.2.27.04.1.07.18.14.23l.22.23.02.04c0 .06.04.1.08.14.13.11.24.28.32.5l.06.09.06.1c.05.16.14.33.25.5.03.03.06.1.08.17.02.04.05.06.09.05l-.04.08-.27-.33a.04.04 0 0 0-.03-.02h-.64l-.05-.01a2 2 0 0 1-.48-.54c.02 0 .04.02.05.04.22.32.46.49.87.39V12c-.17-.23-.33-.43-.5-.6-.08-.1-.12-.35-.21-.47-.1-.13-.26-.25-.36-.33-.34-.28-.73-.4-1.16-.4-.02.01-.03 0-.04-.01v-.03c0-.02.01-.03.03-.04.26-.14.56-.08.82-.12.05 0 .05-.02 0-.04l-.33-.14c-.02-.01-.02-.02 0-.02l.53-.03Z" fill="#C58E52"/><path d="M4.47 9.8c-.02.06 0 .08.04.08l-.1.1v.03c0 .01 0 .02.02.03h.03c.03.02.02.03-.01.03l-.1-.02-.04.01c-.06.05-.1.12-.09.21a.02.02 0 0 0 .02.02h.02c.05-.04.1-.07.16-.09a1.73 1.73 0 0 0-.39.37l.01.02.02.02c.07-.04.09-.1.17-.14.1-.06.17-.14.23-.23l-.01-.04h-.03a.6.6 0 0 1 .2-.07c.02 0 .02 0 .02.02a.9.9 0 0 1-.36.4.42.42 0 0 0-.07.07.06.06 0 0 0-.02.04c.02.12-.03.24-.13.36a.95.95 0 0 1-.56.36l-.04-.12c.06-.07.1-.16.12-.24l.03-.05a.13.13 0 0 0 .03-.04l.1-.25c.09-.12.17-.2.24-.25a.63.63 0 0 0 .19-.22l.1-.18.2-.22Z" fill="#4D561D"/><path d="M12.46 9.95c.03.06.08.1.1.09.02-.01.01-.07-.02-.13-.03-.07-.08-.1-.1-.1-.02.01-.01.07.02.14Z" fill="#5A6A25"/><path d="M6.21 9.96a.08.08 0 0 1 .05-.03c.1-.01.23-.03.3.05a.09.09 0 0 1 .01.12.09.09 0 0 1-.04.03c-.19.06-.36.15-.53.27a.18.18 0 0 1-.1.03h-.05a.05.05 0 0 1-.04-.08l.4-.4Z" fill="#AC7B3F"/><path d="M13.45 10.77h-.01c-.02 0-.02.01-.02.03.06.24.1.42.11.52 0 .02 0 .03-.03.04a.03.03 0 0 1-.04-.01.6.6 0 0 1-.09-.3c.01-.13-.05-.14-.1-.23a.36.36 0 0 1-.03-.2v-.02a.03.03 0 0 1 .03-.01h.02c.05.04.1.05.16.04l.02-.01v-.02h-.01a.22.22 0 0 0-.2-.07c-.01 0-.02 0-.03-.02-.04-.1-.11-.28-.23-.31a.04.04 0 0 0-.05.03v.02l.16.29c.02.04.03.07.02.1a.05.05 0 0 1-.04.04.05.05 0 0 1-.05 0 .51.51 0 0 1-.13-.19 1.28 1.28 0 0 0-.07-.12.29.29 0 0 1-.04-.15c0-.02 0-.03-.02-.05-.04-.04-.05-.1-.03-.19a.04.04 0 0 1 .07-.02c.07.05.13.05.18-.02.07 0 .12.04.16.1.02.03.01.04-.02.02a.62.62 0 0 0-.1-.05c-.1-.03-.11 0-.07.08.06.1.22.13.3.23l.1.12c.09.1.12.08.08-.05a3.16 3.16 0 0 0-.18-.27c.19.09.35.28.26.48-.01.04-.05.06-.09.07h-.01l-.01.03c0 .02.01.05.03.07Z" fill="#738F53"/><path d="M4.42 10.2h.03c.01.01.02.02 0 .04a.69.69 0 0 1-.22.23c-.08.05-.1.1-.17.14l-.02-.02a.03.03 0 0 1 0-.03c.12-.15.24-.26.38-.36Z" fill="#AC7B3F"/><path d="M7.31 11.1v.02c-.08.1-.14.2-.25.26-.23.12-.35.2-.64.2a.9.9 0 0 1-.8-.46.05.05 0 0 1 0-.04c.1-.27.16-.54.42-.67.13-.06.26-.1.4-.13.22-.04.4.08.6.19.06.03.16.13.29.3.09.12.02.21-.02.33Z" fill="#010101"/><path d="M10.7 11.42c.26.18.55.27.87.29.06 0 .1 0 .13-.02l.22-.09c.01 0 .02 0 .03-.02a.42.42 0 0 1 .21-.14h.05c.07.04.14.09.2.15-.12-.04-.22-.05-.28-.02-.27.1-.42.2-.64.18-.16-.01-.36-.06-.55-.07-.43-.02-.72-.1-1.07-.29-.16-.08-.33-.3-.5-.32L8.82 11c-.07 0-.2 0-.37.02-.37.04-.74.07-1.05.23.21-.22.47-.41.78-.6.12-.06.25-.16.38-.3a.93.93 0 0 1 .62.07c.25.13.54.23.86.3.1.03.2.12.25.24.1.2.18.32.41.46Z" fill="#C58E52"/><path d="M12.46 11.63a.19.19 0 0 0-.05-.04.77.77 0 0 0-.2-.15h-.05a.42.42 0 0 0-.2.14l-.04.02-.22.1a.25.25 0 0 1-.13 0 1.69 1.69 0 0 1-.87-.28.93.93 0 0 1-.28-.4c-.08-.32.17-.45.4-.57.4-.21.84-.16 1.19.13.1.09.23.23.37.42.17.24.34.48.49.72.05.1.03.12-.07.08l-.34-.17Z" fill="#5B402E"/><path d="M11.96 11.27h.06a.02.02 0 0 1 .01.02c-.05.1-.25.15-.38.15l-.24.03c-.06 0-.2-.04-.29-.04-.12 0-.26-.04-.34-.15a.47.47 0 0 0-.15-.14.14.14 0 0 1-.02-.22c.1-.1.18-.22.24-.34a.3.3 0 0 1 .14-.15l.2-.08c.18-.01.37.04.58.16.06.03.11.08.14.15.1.16.19.38.25.5.05.08.03.1-.05.05l-.17-.1c-.03-.01-.04 0-.05.02-.02.03-.01.07 0 .1.02.03.04.05.07.04Z" fill="#010101"/><path d="M14.7 10.87c0 .03-.02.06-.05.1a.07.07 0 0 0-.02.03l-.01.08h-.1l-.03-.02c-.04-.04-.06-.08-.05-.13v-.1a.13.13 0 0 0-.08-.07.36.36 0 0 1-.14-.07c-.08-.08-.07-.1.04-.05a1.28 1.28 0 0 1 .18.12v.02c.02.07.05.13.12.17.01 0 .02 0 .02-.02l.02-.08c0-.01.01-.02.03-.01l.07.03Z" fill="#738F53"/><path d="M11.32 10.7c.03 0 .06-.01.06-.03 0-.02-.02-.04-.05-.04-.04 0-.07 0-.07.02s.02.04.06.04Z" fill="#D3C2AF"/><path d="M14.13 10.9v.01c-.01.01-.04 0-.06-.01a.25.25 0 0 1-.06-.08v-.02a.3.3 0 0 1-.03-.1.1.1 0 0 1 0-.03l.02-.02.13.26Z" fill="#738F53"/><path d="M11.62 10.89h.01V11.02c-.01.02-.02.03-.04.03s-.03 0-.05-.03a.26.26 0 0 1-.02-.1.01.01 0 0 1 0-.01l.1-.01Z" fill="#D3C2AF"/><path d="M12.4 11.59c.14.2.3.39.5.54l.04.01h.64c.01 0 .03 0 .03.02l.27.33-.17.24c-.07-.25-.22-.34-.47-.33-.12 0-.23 0-.34-.03-.02 0-.03 0-.03.02 0 .17.1.64-.27.59a.31.31 0 0 1-.1-.04c-.2-.12-.33-.18-.37-.2l-.54-.12a.66.66 0 0 0-.31.01.43.43 0 0 1-.4-.14c-.15-.16-.25-.4-.47-.49a.04.04 0 0 0-.04 0 .04.04 0 0 0-.01.05c.08.23.2.35.4.5a.05.05 0 0 1 0 .07l-.41.15a.07.07 0 0 0-.05.06.07.07 0 0 0 .03.07l.06.03c.04.02.04.04-.01.06l-.08.02a.14.14 0 0 0-.06-.1.72.72 0 0 0-.2-.12l-.08-.06a4.38 4.38 0 0 0-.59-.59.07.07 0 0 1 .06-.08.4.4 0 0 0 .14-.07v-.03l-.05-.03a6.97 6.97 0 0 1-.68-.09c-.18-.02-.38.05-.58.1-.28.08-.48.2-.67.4a.1.1 0 0 1-.11.03 1.9 1.9 0 0 0-.37-.1c-.09-.02-.19.07-.28.05l-.17-.06c-.02 0-.02-.02-.01-.03.14-.34.4-.6.6-.89l.15-.09c.31-.16.68-.19 1.05-.23.18-.02.3-.03.37-.02l.55.07c.17.02.34.24.5.32.35.19.64.27 1.07.3.19 0 .4.05.55.06.22.02.37-.07.64-.18.06-.03.16-.02.28.02Z" fill="#E2B371"/><path d="M14.33 11.25a.4.4 0 0 0-.08-.14c-.05-.06-.05-.07.02-.04.05.02.09.05.12.1l.01.03-.01.03-.03.02c0 .02-.02.01-.03 0Z" fill="#738F53"/><path d="M14.24 11.48a.4.4 0 0 1 .07.02c.02 0 .03.02.02.04v.02l-.02.01h-.03a.59.59 0 0 1-.32-.3v-.01h.01l.01-.01a.04.04 0 0 1 .05.01c.05.09.1.2.2.22Z" fill="#B4C462"/><path d="M13.82 11.28c.03.1.1.2.19.27.07.06.11.11.14.16l.1.18-.19.3a.67.67 0 0 1-.02-.26.03.03 0 0 1 .02-.01h.01l.08.02c.02 0 .03-.01.03-.03l-.01-.04a.1.1 0 0 0-.03-.03.38.38 0 0 1-.14-.16.81.81 0 0 0-.06-.12.7.7 0 0 1-.07-.1c-.01-.01-.02 0-.02.01-.01.12.01.21.06.29.03.05.04.1.03.15v.04c-.02.06-.05.07-.09.02-.14-.14-.1-.3-.15-.45a2.44 2.44 0 0 0-.08-.22v-.02a.05.05 0 0 1 .06-.02c.05.02.1.03.14.02Z" fill="#738F53"/><path d="m7.18 11.38-.41.5a.05.05 0 0 1-.04.02c-.27.02-.41.07-.61.2l-.21.12a2.89 2.89 0 0 0-.65.4l.35-.23h.01v.02a2.89 2.89 0 0 0-.48.41l.01.03c.01.01.03.02.05 0l.19-.09h.02v.01l.02.02-.22.1a.03.03 0 0 0-.01.05l.01.01.2.11-.01.01-.33.04a.03.03 0 0 0-.03.02.03.03 0 0 0 .01.03.74.74 0 0 0 .3.15l.01.01v.03h-.02l-.02.01a.47.47 0 0 0-.34.1 7.2 7.2 0 0 1-.87-.96 3.1 3.1 0 0 1-.2-.34c.12-.1.21-.22.3-.34.05-.1.2-.16.33-.2.26-.06.53-.15.8-.25.12-.05.27.03.42.12.45.28 1.02.21 1.42-.11Z" fill="#AC7B3F"/><path d="M7.26 11.34c-.21.3-.47.55-.61.89l.01.03.17.06c.1.02.19-.07.28-.05.11.02.23.05.37.1a.1.1 0 0 0 .1-.02c.2-.2.4-.33.68-.4.2-.06.4-.13.59-.1a6.97 6.97 0 0 0 .67.09l.05.02c.01.01.02.02 0 .03a.4.4 0 0 1-.14.07.07.07 0 0 0-.06.08 4.38 4.38 0 0 1 .6.58 16.51 16.51 0 0 0-.61-.48.34.34 0 0 1-.1-.04.4.4 0 0 0-.15-.05l-.23-.04c-.2-.02-.41 0-.64.05-.03 0-.05.05-.08.06-.15.06-.28.13-.41.2-.11.06-.22.12-.33.16a.94.94 0 0 0-.4.3.03.03 0 0 0 .01.04h.02a.3.3 0 0 1 .1.04V13a4.24 4.24 0 0 0-.15.89l-.1.06c-.17-.08-.16-.22-.25-.34-.13-.2-.44-.3-.66-.35-.05-.01-.05 0-.02.03.05.04.09.1.12.18 0 .02 0 .03.02.04.06.04.07.09.02.14-.08.07-.16.15-.22.24 0 .02-.02.02-.04.02l-.28.03-.61-.49c.1-.07.22-.1.34-.09a.03.03 0 0 0 .03-.01v-.02a.02.02 0 0 0 0-.01.74.74 0 0 1-.3-.16.03.03 0 0 1 0-.03.03.03 0 0 1 .02-.02l.33-.04-.19-.12a.03.03 0 0 1-.02-.02.03.03 0 0 1 .02-.03l.22-.1v-.01l-.01-.02-.01-.01h-.02l-.2.1-.04-.01v-.05a2.89 2.89 0 0 1 .48-.4H5.6l-.35.21h-.01c.2-.17.43-.3.66-.39l.2-.11c.21-.14.35-.19.62-.2l.04-.03.42-.5.07-.04Z" fill="#D1A461"/><path d="M13.71 12.73c-.31.39-.67.74-1.08 1.05l.06-.09-.01-.03a.39.39 0 0 0-.16-.03c-.3-.02-.55-.01-.75 0-.04.01-.06.03-.06.07.02.13.05.2.12.25l.03.04c0 .02.02.03.04.04l.06-.02c.07-.03.22.02.3.02-.23.17-.48.3-.74.42l-.35-.02c-.03 0-.04-.02-.04-.05l-.03-.19a.02.02 0 0 1 .02-.02l.56.02h.01a.02.02 0 0 0 0-.02v-.02c0-.02 0-.03-.02-.03l-.3-.01v-.01a.81.81 0 0 1-.02-.03v-.01h.02c.07-.01.14-.03.2-.02a1.78 1.78 0 0 0 .27.04l.02-.02-.01-.02a1 1 0 0 0-.6-.04.97.97 0 0 0-.19.1h-.03l-.55-.11a.08.08 0 0 1-.06-.08c0-.28 0-.49-.04-.72a.07.07 0 0 0-.02-.04c-.04-.04-.1-.07-.06-.14l.08-.02c.05-.02.05-.04 0-.06l-.05-.03a.07.07 0 0 1-.02-.1l.04-.03.4-.15a.05.05 0 0 0 .03-.04v-.02l-.02-.02c-.2-.14-.32-.26-.4-.49a.04.04 0 0 1 .05-.05c.22.1.32.33.46.5.1.1.25.16.4.13.1-.02.2-.04.32-.01l.54.13c.04 0 .16.07.37.2l.1.03c.38.05.27-.42.27-.6 0-.01.01-.02.03-.01.1.03.22.04.34.03.25 0 .4.08.47.33Z" fill="#EED7B1"/><path d="m9.96 12.73.08.06c.04.07.05.12.01.16 0 .01-.02.02-.03 0a1.3 1.3 0 0 0-.5-.23c-.03 0-.06 0-.07.04.02-.05.06-.07.11-.05a9.88 9.88 0 0 0 .38.08v-.03l-.02-.01a1.38 1.38 0 0 0-.43-.12c-.52-.02-.76-.03-1.12-.14a.99.99 0 0 0-.64 0 .28.28 0 0 0-.1.04l.12-.1c.13-.08.26-.15.4-.21.04-.01.06-.05.1-.06a1.77 1.77 0 0 1 1.01.04c.04.02.07.04.1.04l.09.05.51.44Z" fill="#4C4431"/><path d="M9.4 12.54c0 .02-.02.03-.03.04a.16.16 0 0 1-.06.03h-.08c-.03 0-.06 0-.09-.02l-.08-.03a.34.34 0 0 1-.14-.08c-.04-.04-.05-.08-.04-.11l.52.17Z" fill="#D3C2AF"/><path d="M10.4 12.37v.02c.01.04 0 .08-.02.11a.15.15 0 0 1-.1.06h-.07c-.04 0-.08 0-.1-.03a.14.14 0 0 1-.06-.1.01.01 0 0 1 0-.02l.34-.04Z" fill="#D1A461"/><path d="m7.75 12.43-.12.1c-.15.1-.24.19-.29.26a1.4 1.4 0 0 0-.17 1.12c.04.16.05.26.02.4a.04.04 0 0 0 .03.04h.02l.1-.05c.03-.02.06-.01.07.02l.01.03c.02.03.01.06-.02.07l-.13.07v.02l.02.01.15.01c.03 0 .03.01.02.03a.75.75 0 0 1-.17.18l-.4-.13a.6.6 0 0 0 .07-.3l-.01-.02-.13.02H6.8l-.01-.01a.02.02 0 0 1 0-.03c.06-.1.14-.15.25-.17.02 0 .02-.01.02-.03v-.01a.03.03 0 0 0-.02-.02c-.1-.02-.15-.05-.14-.1L7 13.9l.02-.04c.01-.28.06-.57.14-.85 0-.02 0-.03-.02-.04a.3.3 0 0 0-.1-.04.03.03 0 0 1-.02-.02.03.03 0 0 1 0-.03c.14-.14.21-.21.4-.29l.33-.15Z" fill="#6E593D"/><path d="M9.45 12.76c.16.05.62.26.65.45.01.1 0 .21-.04.36-.05.23-.38.3-.56.24-.12-.03-.24-.15-.36-.2l-.03.01v.02c-.01.02 0 .04.04.06l.19.18a.4.4 0 0 0 .14.07 1 1 0 0 1 .23.1c.02.02.07.03.13.02a.05.05 0 0 1 .05.07.56.56 0 0 1-.2.2c-.23.16-.5.32-.7.52-.02.02-.01.03 0 .03l.24.1c-.44.03-.87 0-1.28-.09l.05-.2-.01-.02a2.31 2.31 0 0 0-.19-.2 1.02 1.02 0 0 1-.33-.57.05.05 0 0 1 .03-.03h.02c.21.03.4-.02.56-.15v-.04h-.02c-.29.15-.55.05-.8-.14a.05.05 0 0 1-.02-.05l.02-.34c.02-.29.23-.52.47-.67.22-.07.4-.07.64 0 .36.11.6.12 1.12.14a1.38 1.38 0 0 1 .45.13v.03c0 .02 0 .02-.02.02a9.89 9.89 0 0 1-.36-.1c-.05-.02-.09 0-.11.05Z" fill="#010101"/><path d="M7.73 12.5c-.24.14-.45.37-.47.66a9.54 9.54 0 0 0 0 .39c.25.19.51.29.8.13h.02v.05a.73.73 0 0 1-.56.15H7.5a.04.04 0 0 0-.03.03v.03c.06.22.15.37.33.54.07.07.14.13.19.2v.03l-.04.2-.66-.17a.75.75 0 0 0 .17-.18c.01-.02 0-.03-.02-.03H7.3l-.02-.02v-.02l.13-.07c.03-.01.04-.04.02-.07l-.01-.03c-.01-.03-.04-.04-.06-.02l-.11.05a.04.04 0 0 1-.04 0 .04.04 0 0 1-.01-.04.75.75 0 0 0-.02-.4c-.1-.4-.04-.77.17-1.12.05-.07.14-.16.3-.26a.28.28 0 0 1 .09-.04Z" fill="#302B06"/><path d="M10.04 12.8c.08.03.15.07.2.11a2 2 0 0 1 .05.53c0 .3-.18.56-.12.87.04.2.13.37.28.5l-.53.11-.25-.28a.04.04 0 0 1 0-.06h.03l.25-.01c.02 0 .02-.02.02-.04a.02.02 0 0 0-.02-.02l-.27-.05-.02-.03c0-.04.01-.07.03-.1a.56.56 0 0 0 .2-.19.05.05 0 0 0-.05-.07l-.13-.01a1 1 0 0 0-.23-.11.4.4 0 0 1-.14-.07 1.37 1.37 0 0 0-.2-.18c-.03-.02-.04-.04-.04-.06v-.02h.04c.12.04.24.16.36.2.18.04.5-.02.56-.25a.96.96 0 0 0 .04-.36c-.03-.19-.49-.4-.65-.45.01-.04.04-.05.06-.04.19.04.35.12.5.24h.04c.04-.05.03-.1 0-.17Z" fill="#545657"/><path d="M10.3 13c-.03.08.02.1.06.15l.02.04c.05.23.04.44.04.72a.08.08 0 0 0 .06.08l.55.11h.03l.18-.1a1 1 0 0 1 .62.05v.01l-.02.02h-.01a1.8 1.8 0 0 1-.25-.04c-.07-.01-.14 0-.21.02a.02.02 0 0 0-.02 0v.02l.02.02.3.02c.02 0 .03 0 .03.03v.03a.02.02 0 0 1-.02.01l-.55-.02a.02.02 0 0 0-.02 0 .02.02 0 0 0 0 .02l.02.2c0 .02.01.04.04.04l.35.02c-.33.16-.7.28-1.07.36a.92.92 0 0 1-.28-.5c-.06-.31.11-.57.12-.87a2 2 0 0 0-.05-.53c.04.03.06.06.06.1Z" fill="#D3C2AF"/><path d="M6.9 13.95c0 .04.05.07.15.09.01 0 .02 0 .02.02v.01c0 .02 0 .02-.02.03a.38.38 0 0 0-.25.17.02.02 0 0 0 0 .03.02.02 0 0 0 .02 0l.13-.01.01.02c0 .1-.02.2-.08.3a5.6 5.6 0 0 1-1.29-.67l.28-.03c.02 0 .03 0 .04-.02.06-.09.14-.17.22-.24.05-.05.04-.1-.02-.14a.07.07 0 0 1-.02-.04.41.41 0 0 0-.12-.18c-.03-.03-.03-.04.02-.03.22.05.53.16.66.35.1.12.08.26.26.34Z" fill="#A77248"/><path d="m12.63 13.78-.36.25c-.09 0-.24-.05-.31-.02l-.06.02a.06.06 0 0 1-.04-.04.08.08 0 0 0-.03-.04c-.07-.04-.1-.12-.12-.25 0-.04.02-.06.06-.06.2-.02.45-.03.75-.01.06 0 .1.01.16.03v.03l-.05.1Z" fill="#F2EFE3"/><path d="M9.7 14.34a.17.17 0 0 0-.04.09c0 .01 0 .02.02.03l.27.05.01.01v.01c.01.02 0 .03-.01.04H9.7a.04.04 0 0 0-.04.05l.01.02.25.28-.7.07-.23-.1c-.01 0-.02-.01 0-.03.2-.2.47-.36.7-.52Z" fill="#191E04"/><defs><linearGradient id="a" x1="3.35" y1="3.12" x2="21.9" y2="24.43" gradientUnits="userSpaceOnUse"><stop stop-color="#1A1E21"/><stop offset="1" stop-color="#06060A"/></linearGradient></defs></svg>