<!-- by TradingView --><svg width="18" height="18" viewBox="0 0 18 18" xmlns="http://www.w3.org/2000/svg"><path fill="url(#a)" d="M0 0h18v18H0z"/><path d="M9 11.81v1.59l-2.01-1.1-1.96-2.77L9 11.8Z" fill="#1A79D7"/><path d="m9 13.37-2.07-1.14 1.99 2.71L9 15v-1.63Z" fill="#4D25DE"/><path d="M5 9.44c0 .04.03.08.04.1L9 11.87V9.44L6.02 7.79l-.94 1.48c-.03.04-.08.11-.08.17Z" fill="#09BA74"/><path d="M7.1 6.05 6.02 7.79 9 9.46V7.14l-1.9-1.1Z" fill="#FEB92E"/><path d="M9 7.17 7.1 6.05l.96-1.53.94.54v2.11Z" fill="#F86E30"/><path d="m9 5.08-.96-.55.86-1.44A.49.49 0 0 1 9 3v2.08Z" fill="#E91128"/><path d="M9 11.81v1.59l2.01-1.1 1.96-2.77L9 11.8Z" fill="#53AEF5"/><path d="m9 13.37 2.07-1.14-1.99 2.71L9 15v-1.63Z" fill="#827EF6"/><path d="M13 9.44c0 .04-.03.08-.04.1L9 11.87V9.44l2.98-1.65.94 1.48c.03.04.08.11.08.17Z" fill="#75CA39"/><path d="m10.9 6.05 1.08 1.73L9 9.46V7.14l1.9-1.1Z" fill="#FEC866"/><path d="m9 7.17 1.9-1.12-.96-1.53-.94.54v2.11Z" fill="#F98E30"/><path d="m9 5.08.95-.55A87.7 87.7 0 0 0 9.1 3.1.49.49 0 0 0 9 3v2.08Z" fill="#FB2D6E"/><defs><linearGradient id="a" x1="3.35" y1="3.12" x2="21.9" y2="24.43" gradientUnits="userSpaceOnUse"><stop stop-color="#1A1E21"/><stop offset="1" stop-color="#06060A"/></linearGradient></defs></svg>