<!-- by TradingView --><svg width="18" height="18" viewBox="0 0 18 18" xmlns="http://www.w3.org/2000/svg"><path fill="#2BA6E1" d="M0 0h18v18H0z"/><path d="M9.93 3.2c-.7.02-1.22.1-1.54.21-.69.26-1.18.85-1.6 1.42-.03.04-.02.08.01.13.17.2.55.54 1.12 1.04.88.76 1.16 1.7 1.43 2.87.01.05.05.07.1.06a5.72 5.72 0 0 1 1.5-.13c1.26.21 1.37 1.24.91 2.16a4.06 4.06 0 0 0-.33-1.8 5.09 5.09 0 0 0-.82-.1c-.73.03-1.43.08-2.17-.06-.9-.16-1.96-.43-2.22.74-.04-.16-.1-.26-.16-.3A.22.22 0 0 0 6 9.4a.2.2 0 0 0-.08.04.17.17 0 0 0-.06.06l-1.37 3.06c-.24-.17-.39-.34-.44-.52-.1-.34-.02-.88.1-1.32.16-.53.25-.93.3-1.18.05-.4.15-.8.3-1.17.55-1.38.97-2.36 1.27-2.96a4.65 4.65 0 0 1 2.5-2.27 1.63 1.63 0 0 1 1.42.06Z" fill="#343639"/><path d="M9.93 3.2a7 7 0 0 1 2.35 1.72c.33.39.59.88.77 1.49.15.52.27 1.22.36 2.08.1.97.28 1.9.54 2.78.08.26.06.7-.06 1.29a.2.2 0 0 1-.08.12c-.4.3-.64.47-.72.51a97.5 97.5 0 0 1-3.65 1.75.9.9 0 0 1-.77-.06l-.35-.18a22 22 0 0 1-3.84-2.14L5.85 9.5a.17.17 0 0 1 .06-.06.2.2 0 0 1 .08-.04.22.22 0 0 1 .17.04c.07.04.12.14.16.3 0 .06.02.12.04.18.02.07.04.09.06.06.03.87.19 1.65.5 2.36.32.74.8 1.18 1.42 1.31.88.19 1.7-.02 2.5-.62.26-.2.5-.58.6-.85l.42-1.22c.46-.92.35-1.95-.9-2.16-.25-.04-.75 0-1.51.13-.05.01-.09-.01-.1-.06C9.08 7.7 8.8 6.77 7.91 6c-.56-.5-.94-.84-1.11-1.04-.03-.05-.04-.09 0-.13.4-.57.9-1.16 1.59-1.42.32-.12.83-.19 1.54-.21Z" fill="#1C1D1F"/><path d="M11.86 10.96c-.14.4-.29.81-.42 1.22-.1.27-.34.65-.6.85-.8.6-1.62.8-2.5.62-.62-.13-1.1-.57-1.42-1.3.26.1.52.18.77.2.47.73 1.09.96 1.85.68.08-.02.1-.07.16-.12a.5.5 0 0 1 .13-.09c.4-.19.6-.52.59-1h.04v.34c0 .03.01.05.03.06 0 .02.03.04.05.04a.13.13 0 0 0 .12-.01c.72-.54.95-1.45.87-2.27-.05-.47-.32-.73-.8-.78-.56-.06-1.08.02-1.64-.01-.1-.01-.4-.07-.88-.19-.5-.11-1-.08-1.5.1a.46.46 0 0 0-.28.25.9.9 0 0 0-.07.37.44.44 0 0 1-.04-.18c.26-1.17 1.32-.9 2.22-.74.74.14 1.44.09 2.16.06a5.09 5.09 0 0 1 .83.1l.04.06c.23.57.32 1.15.3 1.74Z" fill="#656566"/><path d="M10.46 12.02c.72-.32.8-1.13.85-1.87 0-.06-.01-.1-.06-.14-.27-.2-.28-.34-.74-.34-.95 0-1.5-.03-1.68-.06-.62-.12-1.25-.2-1.88-.21-.06 0-.1.02-.13.06l-.4.52c-.02.03-.04 0-.06-.06a.9.9 0 0 1 .07-.37c.05-.11.14-.2.28-.25.5-.18 1-.21 1.5-.1.48.12.77.18.88.19.56.03 1.08-.05 1.63.01.5.05.76.31.8.78.09.82-.14 1.73-.86 2.27a.13.13 0 0 1-.13.01.12.12 0 0 1-.04-.04.1.1 0 0 1-.02-.06l-.01-.34Z" fill="#A9A8AB"/><path d="M10.46 12.02h-.05c-.22-.94-1.23-.48-2.02-.35-.58.1-.82.18-.7.88a2.4 2.4 0 0 1-.77-.2 6.3 6.3 0 0 1-.5-2.37l.4-.52a.15.15 0 0 1 .13-.06c.63.02 1.26.09 1.88.2.17.04.73.06 1.68.07.46 0 .47.13.74.34.05.04.07.08.06.14-.04.74-.13 1.55-.85 1.87Z" fill="#F9F9F9"/><path d="m8.39 11.34 1.39.01c.33.07.54.3.63.67.02.48-.17.81-.58 1a.5.5 0 0 0-.13.09c-.06.05-.08.1-.16.12-.76.28-1.38.05-1.85-.68-.12-.7.11-1.1.7-1.21Z" fill="#1C1D1F"/></svg>