<!-- by TradingView --><svg width="18" height="18" viewBox="0 0 18 18" xmlns="http://www.w3.org/2000/svg"><path fill="#F0F3FA" d="M0 0h18v18H0z"/><path d="M8.86 3h.3c.48.08.8.34.99.77l.15.32c.27.39.65.57 1.15.54.24-.01.45-.15.69-.2.5-.12 1.04.13 1.3.58.22.38.22.78.04 1.18-.26.57-.04 1.24.5 1.55.16.1.35.15.5.26.29.2.46.49.52.85v.3c-.09.48-.33.8-.75.99-.2.08-.3.14-.34.16-.42.27-.6.76-.53 1.26l.13.37c.42 1-.65 2.03-1.62 1.57l-.27-.1a1.22 1.22 0 0 0-1.43.7l-.12.28c-.2.35-.52.56-.95.62h-.25c-.4-.06-.7-.24-.9-.56-.12-.17-.15-.37-.27-.54-.29-.4-.68-.58-1.19-.53-.17.02-.31.1-.47.16a1.23 1.23 0 0 1-1.6-1.5l.1-.27c.28-.65-.08-1.4-.74-1.62A1.24 1.24 0 0 1 3 9.06v-.14a1.24 1.24 0 0 1 .86-1.1c.61-.24.95-.94.7-1.57a7.22 7.22 0 0 1-.09-.24c-.13-.38-.08-.74.16-1.09.26-.39.76-.61 1.23-.5.11.02.23.06.35.1.6.27 1.3.02 1.58-.57.07-.14.1-.28.2-.4.2-.3.5-.5.87-.55Z" fill="url(#abvjiuxfu)"/><path d="M9.33 9v1.33h2.29c.29 0 .43.35.36.65-.07.31-.2.56-.36.73-.22.23-.46.3-.77.29a518.07 518.07 0 0 0-3.8-.02c-.5-.13-.84-.44-1.01-.95-.1-.29.02-.7.34-.7h2.29V9H6.5c-.32 0-.5-.43-.28-.69.85-1.03 1.6-1.77 2.42-2.77a.08.08 0 0 0 .02-.04v-.24c0-.26.5-.37.62-.13.06.1.03.25.04.38 0 .01 0 .02.02.03.83 1.02 1.59 1.76 2.43 2.79.21.25.01.67-.3.67H9.34Z" fill="#282829"/><defs><linearGradient id="abvjiuxfu" x1="3" y1="9" x2="15" y2="9" gradientUnits="userSpaceOnUse"><stop stop-color="#8489E9"/><stop offset="1" stop-color="#C3D7FA"/></linearGradient></defs></svg>