<!-- by TradingView --><svg width="18" height="18" viewBox="0 0 18 18" xmlns="http://www.w3.org/2000/svg"><path fill="#F3B327" d="M0 0h18v18H0z"/><path d="M7.06 6.35 9 3l1.94 3.35L9 5.12 7.06 6.35ZM15 9l-3.18-1.76 2.12 2.47L15 9ZM4.06 9.7l2.12-2.46L3 9l1.06.7ZM7.24 12l.52-4.06L9 10.41l1.24-2.47.52 4.06-1.05.53.35.53L9 15l-1.06-1.94.35-.53L7.24 12Z" fill="#fff"/><path d="m5.47 10.41-1.41-.7 2.12-2.47-.7 3.17ZM9 5.12 7.06 6.35 9 7.76l1.94-1.4L9 5.11ZM13.94 9.7l-2.12-2.46.7 3.17 1.42-.7ZM9 10.41 7.76 7.94 9 9l1.24-1.06L9 10.41Z" fill="#E6E6E6"/></svg>