<!-- by TradingView --><svg width="18" height="18" viewBox="0 0 18 18" xmlns="http://www.w3.org/2000/svg"><path fill="#B4AA9F" d="M0 0h18v18H0z"/><circle cx="9" cy="9" r="5" fill="#2F263A"/><path d="m7.68 8.7.07.73v.03l-.03.03a.1.1 0 0 1-.03.02l-.05.01h-.78l-.04.01a.1.1 0 0 0-.04.02.09.09 0 0 0-.02.03v.04l.15 1.17c0 .02 0 .05-.02.07a.11.11 0 0 1-.08.03l-1.23.1c-.03.01-.06 0-.08-.01a.09.09 0 0 1-.04-.06L5 7.33c0-.02 0-.05.02-.06a.11.11 0 0 1 .08-.04L7.7 7c.02 0 .05 0 .07.02.02.01.04.03.04.05l.19.88v.03l-.02.03a.1.1 0 0 1-.03.03.12.12 0 0 1-.05.01l-1.25.11a.11.11 0 0 0-.07.03.08.08 0 0 0-.02.07l.04.36c0 .02.02.04.04.06.02.01.05.02.08.01l.84-.07a.13.13 0 0 1 .08.02.1.1 0 0 1 .03.03l.01.03Z" fill="#B4AA9F"/><path d="M11.84 7.02c1.13 0 1.22.9 1.13 1.38-.12.71-.39 1.17-1.14 1.37a8.82 8.82 0 0 1-.85.2.21.21 0 0 0-.07.08.68.68 0 0 0-.05.4L11 11c-.03.02-1.6 0-1.64 0l-.09-.18c.22.03.5-.03.17-.18 1.05.23.48-2.2 1.43-2.08.2.03.52-.06.52-.4 0-.38-1.4-.4-1.51-.38a.39.39 0 0 1-.3-.06c-.02-.03-.02-.05 0-.08a.32.32 0 0 0 .04-.2c0-.03-.01-.03-.05-.02l-.07.07-.06.37c0 .03-.02.04-.06.03h-.04c-.04-.01-.3-.08-.3-.11v-.7A.07.07 0 0 1 9 7.07C9 7.03 9 7 9.04 7c1.36-.03 2.45.01 2.8.01Z" fill="#CB8656"/><path d="m9.9 10.36-.02.04c-.02.12-.08.17-.18.15-.05-.09-.11-.12-.18-.12-.04 0-.05.02-.02.05l.06.08.02.06c0 .02-.02.03-.04.03h-.08c-.08-.03-.13-.1-.17-.22a7.16 7.16 0 0 1-.16-2.19c.06 0 .12 0 .18-.03.22-.11.39-.27.5-.47a.13.13 0 0 1 .06-.07c.31-.14 1.36 2.54.03 2.7Z" fill="#8B5B43"/></svg>