<!-- by TradingView --><svg width="18" height="18" viewBox="0 0 18 18" xmlns="http://www.w3.org/2000/svg"><path fill="url(#a)" d="M0 0h18v18H0z"/><path d="m10.14 3.11.03.05c0 .12-.15.16-.48.12.04.02.02.02-.05 0-.24-.08-.47-.1-.72-.06a.66.66 0 0 1-.28-.05c-.05 0-.09 0-.11-.03a.07.07 0 0 1-.02-.06v-.05a5.4 5.4 0 0 1 1.63.08Z" fill="#0B1832"/><path d="m8.46 3.04-.02 11.92H8.3l-.02-4.64v-.11l.02-7.16c.03-.02.08-.02.15-.01Z" fill="#A7A5AE"/><path d="m8.52 3.03-.01.05c0 .02 0 .04.02.06.02.02.06.03.11.03H8.6c-.02.01-.03.03-.01.05.02.03.02.06 0 .1a.05.05 0 0 0 0 .05c0 .02.02.02.03.03.02.01.04 0 .07 0a25.26 25.26 0 0 1 .21-.08.04.04 0 0 1 .02.03v.03c-.07 0-.1.02-.12.04-.02.02-.01.03.01.03l.43.02.41.07a1.63 1.63 0 0 0-.93.76c0 .03 0 .05.03.05h.03c-.03.1-.1.18-.19.25a.07.07 0 0 0-.03.06v2.29c.02.66.01 1.33 0 2 0 .11.01.34.04.66l-.02.65a.07.07 0 0 0 .04.06h.03c.44-.06.82-.16 1.32-.13.02 0 .04.01.03.04a.2.2 0 0 1-.02.06l-.4.2c-.1.05-.2.08-.3.1-.25.01-.49.05-.73.1v1.55c0 .03 0 .05.03.06.33.18.74.1 1.1.01l.07.01c.14.12.14.23.36.2.04 0 .06 0 .06.04v.4a.03.03 0 0 1-.03.03h-.02l-.01-.02c-.01-.02-.02-.02-.04-.02-.33.09-.67.28-.7.65 0 .02-.01.03-.03.02a2.08 2.08 0 0 1-.7-.4l-.03.01a.06.06 0 0 0-.03.06v.31c0 .05.02.1.06.13l.19.15a.43.43 0 0 1-.2-.1.05.05 0 0 0-.05-.01.05.05 0 0 0-.03.04v1.07c0 .03.01.04.03.04h.94c0 .03.01.05.03.05a6.52 6.52 0 0 1-1.1-.01l.02-11.92.06-.01Z" fill="#563C36"/><path d="M8.23 3.05c.02.06.02.11 0 .16 0 .03-.02.04-.05.05l-.32.12a.67.67 0 0 0-.19.07.63.63 0 0 1-.18.07c-.11.01-.19.01-.29.1l-.48.41-.03.01c-.02.01-.04 0-.04-.02V3.5a6.17 6.17 0 0 1 1.58-.45Z" fill="#0B1832"/><path d="M8.3 3.05v7.16c-.04 0-.06 0-.09.02 0-.23-.02-.46-.04-.69 0-.05 0-.1.02-.15a.5.5 0 0 0 .04-.15c-.02-.22-.09-.23-.2-.05-.1.14-.17.29-.23.46-.07.2-.18.34-.25.5l-.01.01h-.01a.02.02 0 0 1-.02 0c-.03-.1-.03-.17.02-.27.15-.29.32-.58.5-.86a.25.25 0 0 0 .1-.07c.07-.08.1-.19.06-.33l.02-.74-.01-.03a.05.05 0 0 0-.03-.02l-.12-.01a.08.08 0 0 1-.06-.05.27.27 0 0 0-.18-.14c.11 0 .16-.04.12-.13.07.01.13.04.2.08.02.01.03 0 .04-.02a.3.3 0 0 0 0-.15.34.34 0 0 0 0-.13l.04-.3v-2l-.06-.58c0-.03-.02-.03-.04 0-.15.26-.4.26-.67.27a.1.1 0 0 0-.06.03c-.23.2-.43.43-.6.69.04-.16.1-.28.17-.37.07-.07.05-.1-.04-.07l-.25.06c-.02 0-.04.02-.04.05l-.03.38-.04-1.92c.03-.03.06-.04.1-.03v.52c0 .02.02.03.04.02h.03l-.03.08c-.02.04 0 .05.03.04l.07-.02.06.03c.02.04.05.04.1 0 .06-.05.1-.09.13-.1.12-.1.15-.07.09.07-.08.17-.28.27-.47.37a.05.05 0 0 0-.03.05v.02c.01.02.03.03.05.02.14-.03.27-.1.38-.2.02-.03.04-.03.07-.01l.05.03a.05.05 0 0 0 .07-.02l.04-.16a9.65 9.65 0 0 1 .11-.43l.09-.05a.2.2 0 0 0 .06-.05.79.79 0 0 1 .27-.22v-.01a.03.03 0 0 0 0-.02l-.05-.01.05-.07.32-.12c.03 0 .04-.02.05-.05a.26.26 0 0 0 0-.16h.08Z" fill="#5A4840"/><path d="M10.34 3.16v7.27l-.03 4.43a.35.35 0 0 1-.13.01V7.58l-.01-4.42-.03-.05.2.05Z" fill="#A7A5AE"/><path d="M10.18 7.58a.26.26 0 0 1-.02-.14c0-.03 0-.04-.02-.05h-.06c.05-.05.05-.1 0-.16a.08.08 0 0 0-.08-.02h-.28c-.13-.02-.13-.04 0-.07a.84.84 0 0 1 .29 0l.04-.03c.02-.02.03-.05.02-.1l.02-2.07a.09.09 0 0 0-.06-.08.62.62 0 0 0-.32-.02l-1.1.2c-.03 0-.05.01-.05.04l-.01.94V4.66a.07.07 0 0 1 .03-.06c.1-.07.16-.15.2-.25.13-.15.27-.3.44-.42.03-.03.07-.03.1-.06l.04.03c.02.02.02.04 0 .05a1.02 1.02 0 0 0-.4.51.05.05 0 0 0 .04.05c.18.04.3-.02.37-.18.02-.05 0-.06-.04-.03l-.1.05a.02.02 0 0 1-.02-.03c.24-.27.53-.4.88-.42.02 0 .04-.01.05-.03a.22.22 0 0 0 0-.2l-.01-.08c-.01-.06-.04-.08-.1-.07-.12.03-.26.04-.39.02l-.41-.07.65-.1c.01 0 .02 0 0-.01l-.01-.04h-.02c-.06 0-.11-.01-.16-.04.33.04.49 0 .48-.12l.01 4.42Z" fill="#5E4F4E"/><path d="M10.42 3.17c-.03.07-.04.13-.02.18.01.03.05.06.12.08.3.1.53.32.76.55-.05-.02-.1-.01-.12 0-.02.02-.02.04 0 .05l.44.2.1.13c.02.02.04.03.05.06l.29.47c.02.07.02.17 0 .3-.05-.2-.2-.3-.46-.34a.07.07 0 0 1-.06-.03 1.23 1.23 0 0 0-.58-.5 1.53 1.53 0 0 1-.51-.19.03.03 0 0 0-.03.02v.01l-.06.43V3.16a.2.2 0 0 1 .08.01Z" fill="#5A4840"/><path d="M8.64 3.17c.13.04.23.06.28.05.25-.04.48-.02.72.07l-.73.09v-.03a.04.04 0 0 0-.02-.03.04.04 0 0 0-.03 0l-.18.08c-.03 0-.05.01-.07 0a.06.06 0 0 1-.03-.02.05.05 0 0 1 0-.07.08.08 0 0 0 0-.1c-.02-.01-.01-.03.01-.04h.05Z" fill="#845E4F"/><path d="M12.04 3.84V4.9l-.29-.47a.22.22 0 0 0-.04-.06.35.35 0 0 1-.1-.14.23.23 0 0 0 .05-.08c0-.02 0-.04-.02-.05l-.36-.11c-.23-.23-.47-.45-.76-.55-.07-.02-.1-.05-.12-.08-.02-.05-.01-.1.02-.18.6.14 1.13.36 1.62.67Z" fill="#0B1832"/><path d="m7.86 3.38-.05.07c-.26.08-.3.3-.58.33a.11.11 0 0 0-.06.02c-.14.11-.3.19-.45.23l.48-.42c.1-.08.18-.08.3-.09.03 0 .09-.02.17-.07a.67.67 0 0 1 .2-.07Z" fill="#564C57"/><path d="M7.8 3.45h.05a.03.03 0 0 1 .02.03.03.03 0 0 1-.02.02.79.79 0 0 0-.26.21.2.2 0 0 1-.06.05l-.09.05a9.65 9.65 0 0 0-.15.59.05.05 0 0 1-.07.02l-.05-.03c-.03-.02-.05-.02-.07 0-.11.1-.24.18-.38.21-.02.01-.04 0-.04-.02v-.02c0-.03 0-.04.02-.05.19-.1.4-.2.47-.37.06-.14.03-.16-.1-.07l-.13.1c-.04.04-.07.04-.1 0a.07.07 0 0 0-.05-.03.2.2 0 0 0-.07.02c-.04 0-.05 0-.03-.04l.03-.09c.16-.04.31-.12.45-.23a.11.11 0 0 1 .06-.02c.27-.03.32-.25.58-.33Z" fill="#996D5D"/><path d="M10.14 3.68c0 .05 0 .09-.03.1-.02.02-.05.02-.1 0a.97.97 0 0 0-.68.1c-.04.02-.08.02-.11.05-.16.13-.31.27-.45.42h-.03c-.03 0-.04-.02-.03-.05l.02-.03c.24-.34.46-.58.91-.73.13.02.27.01.4-.02.05 0 .08.01.09.07v.09Z" fill="#2C1B12"/><path d="m6.55 3.53.04 1.92v4.76l-.08.78H6.5V11l-.02-.01-.07-.5v-.23l.01-4.14V5.05l.01-1.46a.18.18 0 0 1 .12-.06Z" fill="#A7A5AE"/><path d="M6.43 3.6v1.45l-.06-.43c0-.02-.01-.02-.02 0-.1.18-.22.3-.37.34.08-.24.2-.44.35-.6a.1.1 0 0 0 .03-.06l.01-.5c0-.03 0-.04.02-.06.02-.04.02-.08 0-.13l.04-.02Z" fill="#5E5A68"/><path d="M6.38 3.61c.03.05.03.1 0 .13a.1.1 0 0 0 0 .05l-.02.5a.1.1 0 0 1-.03.07c-.15.16-.27.36-.35.6-.07.12-.11.27-.14.45a.92.92 0 0 1-.05.23c-.08.2-.04.35-.07.49-.03.16.05.32.02.51a.06.06 0 0 1-.06.05c-.14 0-.18.01-.1.03l-.82.38a.06.06 0 0 0-.03.05l-.02.32V5.64l.02-.83c.45-.5 1-.9 1.65-1.2Z" fill="#0B1832"/><path d="M10.86 3.77c.06.02.1.06.15.1a.01.01 0 0 1-.01.03l-.55-.08a.07.07 0 0 1-.05-.03.08.08 0 0 1-.01-.05v-.07c.01-.02.02-.03.04-.02l.43.12Z" fill="#2C1B12"/><path d="M9.33 3.87a.97.97 0 0 1 .69-.08h.09c.02-.02.03-.06.03-.11.03.07.03.13 0 .19a.06.06 0 0 1-.05.03 1.2 1.2 0 0 0-.89.43.02.02 0 0 0 .03.02l.1-.05c.05-.03.06-.02.04.03-.06.16-.19.22-.37.18a.05.05 0 0 1-.03-.07c.07-.2.2-.36.39-.49.02-.01.02-.03 0-.05l-.03-.03Z" fill="#3C3639"/><path d="M12.04 3.84c.1.04.16.08.2.11v.94l-.02 1.4v7.76a.48.48 0 0 1-.18.1V5.18a.86.86 0 0 0 0-.3V3.85Z" fill="#A19DA2"/><path d="M13.92 5.58v.75L12.23 4.9v-.94c.7.44 1.25.98 1.7 1.63Z" fill="#0B1832"/><path d="m11.28 3.98.36.11c.02.01.03.03.02.05l-.06.08-.43-.19c-.03-.01-.03-.03 0-.05.02-.01.06-.02.11 0Z" fill="#996D5D"/><path d="m10.94 4.33-.36-.05a.13.13 0 0 0-.11.04.14.14 0 0 0-.04.1c0 .02.02.02.08.01-.12.06-.1.14.05.25a.17.17 0 0 1-.12 0c-.03-.02-.05-.01-.05.03v.14a.05.05 0 0 0 .06.05c.07 0 .12-.02.15-.04.18-.13.34-.17.48-.12.13.04.13.07 0 .08-.1 0-.23.02-.4.06-.07.02-.07.04 0 .07l.13.01.03.01.01.03.02.32-.36-.33a.04.04 0 0 0-.07.03V7.1l-.01.33a.14.14 0 0 0 .1.13.3.3 0 0 1 .21.24c0 .03.01.04.03.06l.09.09c.02.02.01.02-.02.02-.1-.03-.23-.15-.31-.23a.06.06 0 0 0-.1 0v1.41l-.02 1.28-.01.16c0 .02-.01.02-.02.02h-.02v-.02c0-.05 0-.1-.02-.16V4.6l.05-.43a.03.03 0 0 1 .02-.02.03.03 0 0 1 .03 0c.15.09.32.15.5.19Z" fill="#362D37"/><path d="M9.94 4.41c.12-.05.2-.13.17-.18-.02-.04-.13-.04-.24 0-.11.05-.19.13-.17.18.02.05.13.05.24 0ZM10.94 4.33c.26.1.46.27.58.49l.06.03c.26.04.41.15.46.33v1.19l-.08.78c-.01.13-.05.27-.1.43a4 4 0 0 0-.13.43.2.2 0 0 0-.05.07.14.14 0 0 1-.05.04.03.03 0 0 1-.05-.03c-.02-.4-.15-.81-.18-1.17-.01-.26.07-.76-.04-1.09 0-.02 0-.03.02-.05h.03c.02 0 .03.01.05.03.04.04.07.06.09.06.02 0 .04 0 .04-.04v-.15a.09.09 0 0 0-.04-.07l-.4-.33a.05.05 0 0 0-.09.04c0 .08 0 .16-.02.25l-.17-.25-.02-.32a.04.04 0 0 0-.04-.04l-.12-.01c-.08-.03-.08-.05 0-.07.16-.04.29-.06.38-.06.14-.01.14-.04.01-.08-.14-.05-.3-.01-.48.12a.34.34 0 0 1-.15.04.05.05 0 0 1-.05-.03l-.01-.02V4.7c0-.04.02-.05.05-.04.04.02.08.02.12 0a.82.82 0 0 1 .52-.05.04.04 0 0 0 .03-.02v-.05l-.02-.01a1.6 1.6 0 0 0-.66-.11.14.14 0 0 1 .09-.15h.06l.36.05Z" fill="#2C1B12"/><path d="M8.2 5v-.07c-.59-.13-1.08.07-1.5.59l.08-.12c.17-.26.37-.49.6-.7a.1.1 0 0 1 .06-.02c.27 0 .52 0 .67-.27.02-.03.03-.03.04 0L8.2 5Z" fill="#996D5D"/><path d="M10.56 4.68c-.16-.1-.17-.19-.05-.25a1.6 1.6 0 0 1 .6.12v.04a.04.04 0 0 1-.05.03.82.82 0 0 0-.5.06Z" fill="#5E4F4E"/><path d="M6.42 5.05v1.07l-.05-.67h-.02l-.1.42c0 .03-.02.04-.05.04h-.03c-.04-.02-.05-.04-.05-.07v-.2c0-.01-.01-.02-.03-.02h-.04c-.02 0-.03 0-.03.03 0 .23-.03.45-.1.63-.03.1 0 .13.09.06l.08-.03c.02 0 .03 0 .03.02l-.05.85-.01.01-.22-.03c-.02 0-.03-.01-.03-.03l-.02-.3c0-.06-.08-.1-.2-.11-.09-.02-.05-.03.1-.03a.06.06 0 0 0 .05-.05c.03-.19-.05-.35-.02-.51.03-.14-.01-.29.07-.5a.92.92 0 0 0 .05-.22c.03-.18.07-.33.14-.45.15-.04.27-.16.37-.34 0-.02.02-.02.02 0l.05.43Z" fill="#4B3629"/><path d="m4.73 4.8-.02.84c0-.1-.01-.16-.04-.19a.06.06 0 0 0-.1.04l-.02.45-.02-.92a.75.75 0 0 1 .2-.21Z" fill="#A19DA2"/><path d="M10.07 7.02c-.34-.17-.65-.13-1.03-.04-.13.03-.29.02-.49-.03v-.93l.01-.94c0-.03.02-.04.04-.05.39-.05.76-.12 1.11-.2.1-.01.21 0 .32.03a.09.09 0 0 1 .06.08l-.02 2.08Z" fill="#DEA297"/><path d="M8.2 4.93c-.57 0-1 .1-1.24.61a.07.07 0 0 0 0 .07.07.07 0 0 0 .05.03c.44.07.82.18 1 .64a.1.1 0 0 1-.02.1.09.09 0 0 1-.04.02c-.53.14-1 .31-1.21.85-.05.13-.02.16.1.09.42-.25.85-.45 1.37-.36l-.03.3-.16-.22a.06.06 0 0 0-.07-.02l-.92.23-.02.04v.02a22.15 22.15 0 0 1 .8-.02c.15 0 .27.04.36.1a.3.3 0 0 1 0 .16c0 .03-.02.03-.05.02a.45.45 0 0 0-.19-.08c-.2-.06-.4-.05-.63.03-.24.08-.35.25-.35.5a.66.66 0 0 0-.27.09l.03-2.61c.4-.52.9-.72 1.48-.6Z" fill="#B17865"/><path d="m12.23 4.89 1.69 1.44.01.2-.02.4c-.28-.21-.56-.35-.83-.43-.31-.09-.59 0-.86-.21l.01-1.4Z" fill="#2A222E"/><path d="M8.2 4.93v2.06c-.5-.1-.94.1-1.36.35-.12.07-.15.04-.1-.09.2-.54.68-.71 1.21-.85a.09.09 0 0 0 .07-.09.1.1 0 0 0 0-.03c-.2-.46-.57-.57-1.01-.64a.07.07 0 0 1-.06-.07v-.03c.26-.52.68-.6 1.24-.61Z" fill="#CD9486"/><path d="m6.78 5.4-.07.12-.03 2.6v1.04l-.02.71-.01.01h-.02v-.01l-.04-1.75V5.45l.03-.38c0-.03.02-.04.04-.05l.25-.06c.1-.02.1 0 .04.07a.95.95 0 0 0-.17.37Z" fill="#21202B"/><path d="m10.87 5.32.17.25.19.52c-.18.04-.32-.14-.4-.25-.12-.15-.18-.13-.18.07 0 .12 0 .31-.02.58-.01.18.09.38.1.57.01.02 0 .03-.02.03l-.28.01.01-2.08V5a.04.04 0 0 1 .05-.02l.02.01.36.33Z" fill="#CD9486"/><path d="m4.53 5.02.02.92v2l-.02-.14c0-.03-.02-.04-.04-.03-.92.41-.63 1.09.03 1.58v.48c-.01.02-.02.03-.05.03l-1.45-.31a5.98 5.98 0 0 1 1.51-4.53Z" fill="#0A1127"/><path d="m11.68 8.08-.04.17v.37a.09.09 0 0 1-.03.07l-.07.05h-.01a.02.02 0 0 1-.01 0l-.2-2-.1-.65-.18-.52a.75.75 0 0 0 .02-.25.05.05 0 0 1 .08-.04l.41.33c.03.02.04.04.04.07v.15c0 .03-.01.04-.04.04-.02 0-.05-.02-.1-.06-.01-.02-.02-.03-.04-.03h-.03c-.02.02-.02.03-.02.05.12.33.03.83.04 1.1.03.35.16.76.18 1.16a.03.03 0 0 0 .02.02.03.03 0 0 0 .03 0l.05-.03Z" fill="#563C36"/><path d="M4.71 5.64v4.8l-.02.63-.03 1.26c0 .01 0 .02-.02.02h-.02c-.02 0-.02 0-.02-.02l-.03-1.1v-.5l-.03-1.6V5.94l.03-.45a.06.06 0 0 1 .1-.04c.03.03.05.1.04.19Z" fill="#C7C1C0"/><path d="M6.42 6.12v4.14c-.03-.04-.07-.05-.1-.05l.02-.75c-.03-.5-.05-1-.05-1.5 0-.24-.03-.41-.11-.61a.1.1 0 0 0-.1-.06c-.1.01-.2.05-.3.1v-.56l.03.3c0 .02.01.03.03.03l.22.03.06-.86c0-.02 0-.03-.03-.02a.32.32 0 0 0-.08.03c-.1.07-.12.05-.08-.06.06-.18.1-.4.09-.63 0-.03 0-.04.03-.04h.04c.02 0 .03.02.03.03v.2c0 .03.01.05.05.07h.03c.03 0 .04-.01.05-.04l.1-.42h.02l.05.67Z" fill="#2C1B12"/><path d="m14.08 5.94.02 6.15c-.02.1-.08.2-.17.27V6.53l-.01-.2v-.75c.13.12.18.24.16.36Z" fill="#A19DA2"/><path d="m11.23 6.09.09.65c0 .46.02.9.07 1.36.06.67-.06 1.4-.07 1.97 0 .02-.01.04-.04.05-.2.04-.33.05-.52.17l-.34.2-.01-.06.02-1.28c.23-.2.33-.45.28-.78a.07.07 0 0 0-.04-.06l-.24-.13V7.75a.06.06 0 0 1 .1-.01c.08.08.21.2.31.23.03 0 .04 0 .02-.02l-.09-.09a.11.11 0 0 1-.03-.06.3.3 0 0 0-.22-.24.14.14 0 0 1-.1-.13l.01-.33h.28c.02 0 .03-.02.03-.04-.02-.19-.12-.39-.1-.57l.01-.58c0-.2.06-.22.18-.07.08.1.22.29.4.25Z" fill="#C1826E"/><path d="M14.17 5.99a.94.94 0 0 0-.05.58l-.01 3.1.01.04.04.03c.27.1.5.28.7.53a6.1 6.1 0 0 1-.68 1.75c-.03.05-.05.07-.08.07l-.02-6.15c.06 0 .1.03.1.05Z" fill="#5E4F4E"/><path d="M14.17 5.99c.67.99.9 2.35.81 3.51-.28.1-.54-.08-.73-.26a.14.14 0 0 1-.05-.11l.1-1c.05-.56-.1-1.03-.18-1.56a.94.94 0 0 1 .05-.58Z" fill="#21202B"/><path d="m13.9 6.93-.02 2.22c-.98.03-.55-.45-.48-.97.1-.77-.54-1.19-1.17-1.45 0-.03 0-.05-.02-.07l.01-.37c.27.21.55.12.86.2.27.09.55.23.83.44Z" fill="#413942"/><path d="M12.04 6.37v7.78c-.4.25-.84.45-1.35.6.08-.16.19-.3.32-.42-.03.08.03.1.18.05.08-.03.18-.13.3-.31a.06.06 0 0 1 .05-.03l.37.03h.02a.06.06 0 0 0 .04-.06c0-.47-.1-.92-.34-1.34-.07-.14-.17-.21-.28-.23l-.03-.33c-.03-.42-.02-.71.02-.87l.2-.73a.8.8 0 0 0 .02-.3c0-.15.02-.25.08-.3.08 0 .13-.03.13-.1.01-.1.02-.25.08-.36.22-.42.13-.99.06-1.48a.05.05 0 0 0-.03-.04.05.05 0 0 0-.05 0l-.1.08c.04-.15.08-.3.13-.43.05-.16.09-.3.1-.43l.08-.78Z" fill="#343D4F"/><path d="M13.93 12.36c.02 0 .02.02 0 .07l-.03-.28v-.03l-.03-.01a1.3 1.3 0 0 1-1.1-.94c-.16-.5-.1-.92.2-1.28.2-.27.6-.52.9-.74l.04-2.22.02-.4v5.83Z" fill="#564C57"/><path d="m14.98 9.5-.12.77c-.2-.25-.43-.43-.7-.53a.08.08 0 0 1-.05-.08l.01-3.09c.08.53.23 1 .17 1.57a44.7 44.7 0 0 0-.08 1.05c0 .02.02.04.04.05.2.18.45.36.73.26Z" fill="#3C3639"/><path d="m12.21 6.66.02.07v.19c0 .02.02.04.04.06.47.35 1.14.7 1 1.22-.1.33-.52.38-.76.15-.11-.1-.18-.37-.25-.55-.03-.07-.04-.07-.04 0V9 6.66Z" fill="#564C57"/><path d="M13.88 9.15c-.3.22-.7.47-.92.74-.29.36-.35.79-.18 1.28.17.53.54.85 1.09.94a.04.04 0 0 1 .03.04l.02.28-.53.65a11.48 11.48 0 0 1-1.13-1.86l-.03 1.36V7.8c0-.07 0-.07.03 0 .07.18.14.45.25.55.24.23.66.18.75-.15.15-.51-.52-.87-.99-1.22a.08.08 0 0 1-.03-.06l-.01-.19c.63.26 1.28.68 1.17 1.45-.07.52-.5 1 .48.97Z" fill="#48424F"/><path d="M11.64 8.25c.02.07.02.15.02.22 0 .14.14.19.16.33.02.1-.02.13-.1.07l-.02-.05a.06.06 0 0 0-.05-.04h-.01c-.03 0-.04.01-.04.03-.07.37-.09.69-.06.96 0 .1.04.14.1.14-.06.05-.09.15-.08.3a.8.8 0 0 1-.02.3l-.2.73c-.04.16-.05.45-.02.87a156.74 156.74 0 0 1-.1-.79c-.03 0-.04 0-.04.02-.12.58-.26.95-.73 1.32.26-.3.61-.73.57-1.05a9.18 9.18 0 0 1-.08-.75.06.06 0 0 0-.03-.05.42.42 0 0 0-.23-.06.07.07 0 0 0-.05.03l-.15.25c-.02.04-.03.03-.03 0l-.03-.54.34-.2c.19-.12.31-.13.52-.17.03-.01.04-.03.04-.05.01-.57.13-1.3.07-1.97-.05-.45-.07-.9-.07-1.36l.2 2a.02.02 0 0 0 .02 0l.07-.05a.08.08 0 0 0 .03-.07v-.37Z" fill="#996D5D"/><path d="M10.07 7.02c.01.04 0 .07-.02.1-.03-.01-.05-.01-.07 0-.2-.16-.43-.18-.7-.07-.23.1-.32.27-.27.5-.17.12-.22.25-.18.41a1.5 1.5 0 0 1-.2 1.25.04.04 0 0 0 .05.04l.48-.12c.03 0 .04-.02.04-.05L9.1 7.9c.04 0 .07-.01.08-.06a.28.28 0 0 1 .21-.08c.21.02.42 0 .63 0a.07.07 0 0 1 .06.05v.48l-.42.01a.06.06 0 0 0-.06.04l-.14.24a.1.1 0 0 0 .05.15c.17.09.36.14.57.17v.28l-.03.1c0 .02-.02.03-.05.03-.02 0-.04-.03-.06-.06a.88.88 0 0 0-.4-.42.03.03 0 0 0-.02.03v.02a.07.07 0 0 0 .03.08c.1.06.19.14.24.23 0 .06-.07.12-.24.17a1.2 1.2 0 0 0-.39.3.05.05 0 0 1-.05 0 .57.57 0 0 0-.37 0c-.09.03-.14.01-.15-.04a7.56 7.56 0 0 1-.04-.68c.01-.66.02-1.33 0-2 .2.06.36.07.49.04.38-.09.7-.13 1.03.04Z" fill="#CE8A82"/><path d="M9.98 7.11c-.34-.02-.65.04-.93.18a.08.08 0 0 0-.04.09l.08.43L9 7.55c-.05-.23.04-.4.28-.5.26-.1.49-.09.69.06Z" fill="#B17865"/><path d="M8.18 7.29v.13a.59.59 0 0 0-.36-.11 22.15 22.15 0 0 0-.8.02v-.02l.01-.04.92-.23c.03-.01.06 0 .07.02l.16.23Z" fill="#744A3D"/><path d="M9.98 7.11h.07c-.01.02-.03.03-.04.02a.84.84 0 0 0-.3 0c-.12.04-.12.06.01.08H10a.09.09 0 0 1 .07.02c.06.06.06.1 0 .16-.27.05-.55.13-.81.26a.29.29 0 0 0-.1.06c-.07.08-.06.12.02.13-.01.05-.04.07-.08.06l-.01-.1L9 7.39a.08.08 0 0 1 .04-.1c.28-.13.6-.2.93-.17Z" fill="#9A5F50"/><path d="M6.34 9.46c0-.1-.03-.18-.08-.26-.07-.1-.07-.15-.07-.26-.01-.14.1-.28.08-.4a1.85 1.85 0 0 1-.02-.33c0-.02-.01-.04-.03-.05l-.06-.03h-.03l-.02.01v.02a37.35 37.35 0 0 0-.13.5c-.03.02-.06.02-.1 0a.08.08 0 0 1-.03-.08l.03-.53.01-.03a.1.1 0 0 1 .03-.03.16.16 0 0 1 .08-.02c.03 0 .04 0 .03-.04-.06-.18-.12-.22-.18-.1l-.07-.43c.1-.06.2-.1.3-.1a.1.1 0 0 1 .1.05c.08.2.11.37.11.6 0 .51.02 1.01.05 1.51ZM10.18 7.58v2.55c-.06.1-.08.02-.07-.24l-.04-.39v-.32l.01-.28V7.84a.07.07 0 0 0-.01-.05.07.07 0 0 0-.05-.02H9.4a.28.28 0 0 0-.22.07c-.08 0-.09-.05-.02-.13a.29.29 0 0 1 .1-.06 3.23 3.23 0 0 1 .88-.26c.02 0 .02.02.02.05 0 .06 0 .1.02.14Z" fill="#4B3629"/><path d="M7.93 7.51c.04.1 0 .14-.12.13-.05-.02-.08-.02-.1 0 0 0-.01.03 0 .07v.12c0 .02-.02.03-.04.04a.5.5 0 0 1-.41-.07H7.2l-.25.24c0-.25.11-.42.35-.5.22-.08.43-.09.63-.03Z" fill="#2C1B12"/><path d="m4.55 7.94-.01 1.19a.54.54 0 0 0-.02.22c-.66-.49-.95-1.17-.03-1.58.02 0 .03 0 .04.03l.02.14Z" fill="#0A0F1F"/><path d="m9 7.55.09.26v.09l.1 1.18c0 .03 0 .04-.03.05l-.48.12a.04.04 0 0 1-.04-.06c.24-.37.3-.78.19-1.23-.04-.16.01-.3.18-.4Z" fill="#DEA297"/><path d="M7.8 7.64c.1.02.15.07.19.14a.08.08 0 0 0 .06.05l.12.01.03.02.01.03-.02.74a4.5 4.5 0 0 0-1.17-.22c-.14-.01-.16.03-.05.11.16.12.3.3.42.55.01.02.03.03.06.03l.68-.14a.25.25 0 0 1-.1.07c-.4.29-.9.38-1.2-.11a2 2 0 0 1-.15-.3v-.5c.1-.04.18-.07.27-.08l.25-.23c.02-.02.04-.02.06 0 .11.07.25.1.4.06.03 0 .04-.02.05-.04V7.7c-.01-.04 0-.06 0-.07.02-.02.05-.02.1 0ZM6.34 9.46l-.03.75a.43.43 0 0 1-.14-.23 1 1 0 0 0-.09-.24c-.21-.36-.35-.7-.39-1.02-.03-.24.02-.54.16-.9.06-.1.12-.07.18.11.01.03 0 .04-.03.04L5.92 8a.1.1 0 0 0-.03.03l-.01.03-.03.53a.08.08 0 0 0 .03.07c.04.03.07.03.1 0a37.74 37.74 0 0 1 .15-.52h.03l.06.03c.02 0 .03.03.03.05l.02.32c.02.13-.1.27-.08.41 0 .11 0 .16.07.26.05.08.08.16.08.26Z" fill="#C1826E"/><path d="M11.64 9.91c-.06 0-.1-.04-.1-.14-.03-.27 0-.6.06-.96 0-.02.01-.03.04-.03h.01c.03 0 .04.02.05.04 0 .03.01.05.02.05.08.06.12.03.1-.07-.02-.14-.17-.2-.16-.33 0-.07 0-.15-.02-.22l.04-.17a.2.2 0 0 1 .05-.07l.1-.08a.05.05 0 0 1 .05 0 .05.05 0 0 1 .03.04c.07.5.16 1.06-.06 1.48-.06.11-.07.25-.08.36 0 .07-.05.1-.13.1Z" fill="#CD9486"/><path d="m6.68 9.16.02.93v1.79c-.05.25-.03.49.04.7a.1.1 0 0 0-.07 0c-.02 0-.04.01-.04.04v1.89l-.07-.04.03-4.26V8.12l.03 1.75h.01l.02.01.03-.72Z" fill="#48424F"/><path d="m10.43 8.18.24.13c.03.02.04.04.04.06a.81.81 0 0 1-.28.78v-.97ZM10.08 8.9a1.8 1.8 0 0 1-.6-.2.1.1 0 0 1-.02-.12l.14-.24a.06.06 0 0 1 .06-.04h.42v.6Z" fill="#DEA297"/><path d="M8.2 8.63c.02.14 0 .25-.07.33l-.68.14c-.03 0-.05 0-.06-.03a1.52 1.52 0 0 0-.42-.55c-.1-.08-.1-.12.05-.11.39.02.78.1 1.17.22Z" fill="#CE8A82"/><path d="M8.01 8.76c.04.07.02.11-.05.14l-.4.15c-.07.03-.12 0-.14-.07l-.1-.42a.04.04 0 0 1 .04-.05l.5.03c.01 0 .03 0 .04.02l.11.2Z" fill="#DEA297"/><path d="M8.04 9.03c-.19.28-.36.57-.51.86-.05.1-.05.17-.02.27h.03c.08-.17.2-.3.26-.5.06-.18.14-.33.22-.47.12-.18.2-.17.2.05a.5.5 0 0 1-.03.15.35.35 0 0 0-.02.15c.02.23.04.46.04.69-.02.08-.08.11-.17.1a.09.09 0 0 0-.1.05v.02c-.02.03-.01.05.02.06l.14.02c.06 0 .1.04.11.1v.56l-.02.34c0 .03-.01.04-.04.05-.04.03-.08.01-.1-.04-.2-.36-.27-.57-.7-.66-.03 0-.04-.02-.04-.04l-.03-.46c0-.03-.02-.04-.04-.03-.2.05-.38-.02-.54-.21l-.02-.93v-.53c.04.1.1.2.15.29.3.49.8.4 1.2.11Z" fill="#B17865"/><path d="M10.07 9.18v.32c-.12-.1-.22-.2-.28-.3a.58.58 0 0 0-.24-.24.07.07 0 0 1-.04-.08v-.02a.03.03 0 0 1 .05-.03c.18.1.3.25.38.42l.06.06c.03 0 .04 0 .05-.03l.02-.1Z" fill="#744A3D"/><path d="m4.54 9.13.02 1.6-1.29.08a5.84 5.84 0 0 1-.25-1.26l1.45.3c.03.01.04 0 .04-.02l.01-.48c0-.08 0-.16.02-.22Z" fill="#191E33"/><path d="m10.07 9.5.04.39-.02.18a.08.08 0 0 1-.08.07h-.67a.08.08 0 0 1-.07-.12c.04-.07.04-.14 0-.2a.08.08 0 0 1-.02-.05l.02-.05.37-.3a.03.03 0 0 0-.02-.05h-.07c.17-.06.25-.12.24-.18.06.1.16.21.28.31Z" fill="#C1826E"/><path d="M9.55 9.36h.07a.03.03 0 0 1 .02.06l-.37.3a.08.08 0 0 0-.02.05l.01.05c.05.06.05.13 0 .2a.08.08 0 0 0 .08.12H10a.08.08 0 0 0 .08-.07l.02-.18c-.01.26.01.34.07.24v4.74l-.08.02a.53.53 0 0 1-.02-.24l.01-.52a.05.05 0 0 0-.05-.06h-.02c-.25.1-.5.13-.79.1-.02 0-.04.02-.03.04l.04.22-.15-.27v-.02l.01-.02h.01a.02.02 0 0 0 0-.02l-.3-.22-.18-.15a.15.15 0 0 1-.06-.13v-.31a.06.06 0 0 1 .1-.05c.22.19.44.31.66.38.02.01.03 0 .03-.02.03-.37.37-.56.7-.65.02 0 .03 0 .04.02l.01.01h.03a.03.03 0 0 0 .02-.02v-.4c0-.03-.02-.05-.06-.04-.22.03-.22-.08-.36-.2a.07.07 0 0 0-.07 0c-.36.09-.77.16-1.1-.02a.06.06 0 0 1-.04-.06l.01-1.55c.02.06.02.1.02.14l.02 1.36c0 .02.01.04.04.04.81.03 1.47-.01 1.46-1.04v-.86c0-.03-.02-.04-.05-.05l-.06.01a.2.2 0 0 0 .02-.06c0-.03 0-.04-.03-.04-.5-.03-.88.07-1.32.14a.07.07 0 0 1-.05-.02.07.07 0 0 1-.02-.05l.02-.64c.01.05.06.07.15.04a.57.57 0 0 1 .37 0c.02.02.04.01.05 0 .12-.13.25-.23.4-.3Z" fill="#744A3D"/><path d="M13.82 10.14v1.57c0 .02-.02.03-.04.02-.64-.25-1.06-.67-.8-1.37.13-.37.5-.38.82-.24l.02.02Z" fill="#5E5A68"/><path d="M6.4 11.2v.5l-.02.4c0 .01 0 .02-.03.02h-.02c-.03 0-.04-.01-.05-.04l-.03-.13a.05.05 0 0 0-.05-.04c-.1 0-.16.04-.2.13a9.38 9.38 0 0 1-1.26-1.22l-.04-.38.01-.6.02.36c0 .03.02.05.04.07.48.3.76.8 1.23 1.1.18.11.31.06.4-.16Z" fill="#191E33"/><path d="m8.21 11.14-.06.8c0 .02 0 .04-.02.05a.08.08 0 0 1-.06.02L7.86 12c-.05 0-.06-.03-.05-.07.03-.15.04-.3.06-.48.03-.16-.27-.27-.39-.34a.06.06 0 0 0-.07 0l-.38.44c-.02.02-.02.03 0 .05h.04c.02.02.03.03.02.06-.06.24 0 .47.17.7.29.35.52.62.7.8.09.1.14.22.15.36l-.72-.38a.85.85 0 0 1-.22-.18c.01-.47-.22-.87-.39-1.29 0-.03-.02-.03-.04 0-.04.03-.05.1-.05.2l.01-1.78c.16.2.34.26.54.2.02 0 .03.01.04.04l.03.46c0 .02.01.03.03.04.44.1.52.3.7.66.03.05.07.07.11.04a.06.06 0 0 0 .04-.05l.02-.34Z" fill="#845E4F"/><path d="m6.59 10.2-.03 4.27a.24.24 0 0 1-.14-.06L6.4 11.7l-.01-.5v-.7l.08.49.02.01v-.01l.09-.78Z" fill="#A19DA2"/><path d="M8.63 10.4c.25 0 .54-.05.89-.15.04-.01.07 0 .11.03.02.01.02.03.01.07a.05.05 0 0 1-.03.03l-.9.16c-.02 0-.04 0-.06-.03l-.04-.04a.04.04 0 0 1-.01-.04l.01-.02h.02Z" fill="#B17865"/><path d="m10.08 11.2-.52.43h-.01a.04.04 0 0 1-.05-.01.17.17 0 0 1-.02-.03c0-.02 0-.05.02-.08.09-.18.07-.34-.07-.46a.06.06 0 0 1-.01-.06c.03-.11.1-.16.23-.15l.01-.01v-.02c0-.02 0-.03-.02-.03-.36.07-.72.08-1.08.05 0-.03 0-.08-.02-.14.24-.05.48-.09.72-.1a.79.79 0 0 0 .31-.1 5.7 5.7 0 0 1 .46-.2c.03 0 .04.01.04.04v.86Z" fill="#CD9486"/><path d="m8.31 14.96-.08-.02v-1.2c0-.07-.03-.12-.07-.14l-.05-.08a.54.54 0 0 0-.15-.36c-.18-.18-.41-.45-.7-.8-.18-.23-.23-.46-.17-.7.01-.03 0-.04-.02-.05l-.03-.01c-.03-.02-.03-.03-.01-.05l.38-.43a.06.06 0 0 1 .07-.01c.12.07.42.18.4.34l-.07.48c-.01.04 0 .06.05.07l.21.01c.02 0 .04 0 .06-.02a.08.08 0 0 0 .02-.05l.06-.8v-.56c.06 0 .09-.09.08-.26l.02 4.64Z" fill="#744A3D"/><path d="m6 12.04-.29.52c-.01.02-.03.03-.05.01a1.43 1.43 0 0 0-.4-.18c-.54-.16-.22.9-.13 1.14l-.05.02-.38-.38-.01-2.1.01-.63.04.38c0 .03 0 .05.02.07.38.42.8.8 1.24 1.15Z" fill="#2B314E"/><path d="M10.34 10.43c.01.05.02.1.01.16v.01h.05v-.17c.02.02.02.04.02.06l.03.53c0 .04.01.05.03.01l.15-.25a.07.07 0 0 1 .05-.03c.06 0 .14.01.23.06.02.01.03.03.03.05.01.22.04.47.08.75.04.32-.3.75-.57 1.05a104.86 104.86 0 0 1-.01 2.06.07.07 0 0 0 .1 0l.71-1.01a.6.6 0 0 0 .06-.26c0-.07.03-.15.07-.26a.7.7 0 0 0 .03-.3l.1.53a.1.1 0 0 1-.02.06l-.48.85c-.13.12-.24.26-.32.42l-.38.1.03-4.42Z" fill="#744A3D"/><path d="m4.56 10.73.01.5-.03 1.73a.11.11 0 0 1-.09-.05 6.08 6.08 0 0 1-1.18-2.1l1.3-.08Z" fill="#362D37"/><path d="M10.08 11.2c0 1.02-.65 1.06-1.46 1.03-.03 0-.04-.02-.04-.04l-.02-1.36c.36.03.72.02 1.08-.04.02 0 .03 0 .03.02v.02l-.02.01c-.13-.01-.2.04-.23.15l.01.06c.14.12.16.28.07.46-.02.03-.02.06-.02.08l.02.03a.04.04 0 0 0 .03.02.04.04 0 0 0 .03-.01l.52-.44Z" fill="#B17865"/><path d="m4.69 11.07.01 2.1c-.1-.07-.16-.14-.16-.21l.03-1.74.03 1.1c0 .02 0 .03.02.03h.02c.01 0 .02 0 .02-.02l.03-1.26Z" fill="#A19DA2"/><path d="m13.4 13.08-.36.34c-.17-.09-.35-.16-.53-.21-.06-.02-.12-.02-.15 0-.06.04-.08.1-.06.19.03.15.08.31.17.49a.76.76 0 0 1-.24.16v-1.47l.03-1.36c0-.03 0-.03.02 0 .33.65.66 1.27 1.11 1.86Z" fill="#343542"/><path d="m11.32 12.11.03.33.06.45c.01.1 0 .2-.03.3-.04.1-.06.2-.07.26a.6.6 0 0 1-.06.26 64.57 64.57 0 0 0-.73 1.04.07.07 0 0 1-.06 0 .07.07 0 0 1-.02-.03 104.86 104.86 0 0 0 .01-2.06c.47-.37.6-.74.73-1.32 0-.02.01-.02.03-.02l.02.03.09.76Z" fill="#B17865"/><path d="M7.33 11.99c0-.1-.01-.19-.06-.25-.04-.04-.03-.07.01-.1l.11-.06c.05-.02.1-.01.12.04l.18.31v.11c0 .01 0 .03.02.04.08.06.15.14.21.22a.06.06 0 0 0 .06.02.3.3 0 0 0 .2-.14c.06-.09.09-.08.08.03l-.02.75c0 .03-.01.04-.04.02-.45-.27-.8-.6-1.07-.99-.05-.08-.04-.1.04-.05l.12.07c.02.02.04 0 .04-.02Z" fill="#42281C"/><path d="m7.17 12.96-.43-.37a1.51 1.51 0 0 1-.05-.71c0-.1.01-.18.05-.22.02-.02.03-.02.04.01.17.42.4.82.39 1.3Z" fill="#B17865"/><path d="m6.4 11.7.02 2.71H6.4l-.03-1.85-.03-.02c-.02 0-.02 0-.03.02a.58.58 0 0 1-.34.37c-.03-.06-.07-.1-.13-.09-.08.02-.16.07-.25.17l-.47.52c-.09-.24-.41-1.3.13-1.14.14.04.28.1.4.18.02.02.04.01.05 0l.3-.53c.03-.09.1-.13.18-.13a.05.05 0 0 1 .06.04l.03.13c0 .03.02.04.05.04h.02c.02 0 .03-.01.03-.03l.03-.4Z" fill="#343E5A"/><path d="m11 14.33.5-.85a.1.1 0 0 0 0-.06l-.09-.53-.06-.45c.11.02.2.1.28.23a2.63 2.63 0 0 1 .34 1.36.06.06 0 0 1-.06.04l-.37-.03c-.02 0-.04.01-.05.03-.12.18-.22.28-.3.3-.15.05-.21.04-.18-.04Z" fill="#21202B"/><path d="M9.85 12.8a.13.13 0 0 1-.05.14c-.4.25-.8.32-1.2.2a.12.12 0 0 1-.08-.12v-.5c0-.03.02-.04.04-.04a4 4 0 0 0 1.02-.11c.02 0 .04 0 .06.02.1.12.17.25.21.4Z" fill="#42281C"/><path d="M6.4 14.41a5.5 5.5 0 0 1-1.1-.69c.1-.05.2-.11.28-.19.04-.04.1-.13.15-.26a.87.87 0 0 1 .25-.34c.18-.07.3-.2.34-.37 0-.02.01-.02.03-.02l.03.01.03 1.86Z" fill="#343542"/><path d="m6.74 12.59.43.37c.06.07.13.13.22.18-.19.18-.4.32-.62.42-.12.06-.11.1 0 .14.33.1.68.06 1.07-.12l.04.01.02.02v.04c-.34.3-.61.65-.84 1.03l-.43-.17v-1.9c0-.02.02-.03.04-.04a.1.1 0 0 1 .07.02Z" fill="#2A222E"/><path d="M8.56 13.01v-.38c0-.06.03-.08.08-.07l.77.24a.06.06 0 0 1 .01.1c-.24.15-.5.22-.8.19-.04 0-.06-.03-.06-.08Z" fill="#2C1B12"/><path d="M5.98 12.93c-.11.1-.2.2-.25.34a.84.84 0 0 1-.15.26c-.08.08-.17.14-.28.2l-.22-.18.05-.02.47-.52c.09-.1.17-.15.25-.17.06 0 .1.03.13.1Z" fill="#4A5162"/><path d="m7.4 13.14.7.38.06.08c-.48.2-.71.7-.88 1.15l-.22-.07c.23-.38.5-.73.83-1.03.02-.01.02-.02 0-.04v-.02h-.05c-.39.17-.74.2-1.06.1-.12-.03-.13-.07-.01-.13.22-.1.43-.24.62-.42ZM13.04 13.42l-.57.47a2.06 2.06 0 0 1-.17-.5c-.02-.08 0-.13.06-.17.03-.03.09-.03.15-.01.18.05.36.12.53.21Z" fill="#21202B"/><path d="m8.82 13.88.29.21a.02.02 0 0 1 0 .02v.01l-.02.02v.02l.15.27c.05.14.12.27.23.4l.04.1-.94-.01c-.02 0-.03-.01-.03-.04v-1.07a.05.05 0 0 1 .05-.04h.03c.06.06.13.1.2.11Z" fill="#0A0F1F"/><path d="m10.08 14.65-.63-.05c-.03 0-.04.02-.03.04l.05.18c-.1-.12-.18-.25-.23-.4l-.04-.2c0-.03 0-.04.03-.04a1.73 1.73 0 0 0 .81-.1.05.05 0 0 1 .05.05l-.01.52Z" fill="#9A5F50"/><path d="M10.08 14.65c-.01.08 0 .16.03.24l-.57.08c-.02 0-.03-.02-.03-.05l-.04-.1-.05-.18c-.01-.02 0-.04.03-.04l.63.05Z" fill="#C1826E"/><defs><linearGradient id="a" x1="3.35" y1="3.12" x2="21.9" y2="24.43" gradientUnits="userSpaceOnUse"><stop stop-color="#1A1E21"/><stop offset="1" stop-color="#06060A"/></linearGradient></defs></svg>