<!-- by TradingView --><svg width="18" height="18" viewBox="0 0 18 18" fill="none" xmlns="http://www.w3.org/2000/svg"><path fill="#181B1E" d="M0 0h18v18H0z"/><circle cx="9" cy="9" r="4.5" stroke="#EAD296"/><path d="M8 8.78c0-.34.46-1.32.69-1.78.03 0 .06 0 .06.06 0 .04-.02.1-.06.2-.15.45.3.6.6.76.3.16.71.63.71 1.08 0 .46-.27.88-.34 1.02l-.5.88H9c.09-.15.26-.59.25-.73 0-.18-.15-.31-.43-.52-.3-.22-.82-.54-.82-.97Z" fill="#EAD296"/><path d="M8.81 6C6.55 6 6 7.48 6 8.22c0 1.04.6 1.25 1.01 1.25.19 0 .28-.03.33-.03.1 0 .16-.1.16-.18a.1.1 0 0 0-.07-.1c-.37.17-1.13.1-1.13-.62 0-.7.86-1.54 2.33-1.54 1.87 0 3.07 1.78 3.07 2.54 0 .77-.58 1.46-1.2 1.46s-1.3-1-2.7-1c-1.12 0-1.43 1.17-1.5 1.68h.11c.06-.19.27-.68.63-.68.44 0 1.28 1 2.2 1C11.48 12 12 10.21 12 9.27S11.63 6 8.81 6Z" fill="#EAD296"/></svg>