<!-- by TradingView --><svg width="18" height="18" viewBox="0 0 18 18" xmlns="http://www.w3.org/2000/svg"><path fill="#013A4B" d="M0 0h18v18H0z"/><path fill-rule="evenodd" d="M6.99 4.3a.72.72 0 0 0-.6.32L3.91 8.33a.75.75 0 0 0-.03.78l.9 1.6a2.44 2.44 0 0 1 .32-.9l1.92-3.52c.18-.32.52-.53.89-.53h2.53a.59.59 0 0 1 .43.2l.98-1.24a.88.88 0 0 0-.69-.43H6.99Zm-1.92 6.93 1.19 2.1c.13.23.37.38.63.38h4.47c.27 0 .51-.16.64-.4l2.13-4.12a.74.74 0 0 0-.64-1.07h-1l.07.2c.04.27-.03.55-.11.74l-.59 1.05-.9 1.37a1 1 0 0 1-.84.46H7.89c-.36 0-.69-.19-.87-.5L5.97 9.66a1.43 1.43 0 0 1-.14-.57l-.48.87a2.4 2.4 0 0 0-.23.55c-.06.24-.09.49-.05.72Zm1.16-2.87 1.05-1.92a.72.72 0 0 1 .63-.38h2.53a.3.3 0 0 1 .19.08c.06.04.1.1.11.13l.1.2 1.36-1.72-.04-.08a1.17 1.17 0 0 0-1-.67H6.99a1 1 0 0 0-.84.45L3.67 8.17c-.21.32-.23.75-.04 1.09l2.38 4.22c.18.32.52.52.88.52h4.47c.38 0 .72-.21.9-.55l2.12-4.12c.36-.68-.13-1.5-.9-1.5H9.94c-.37 0-.7.2-.88.51l-.66 1.18c-.17.3.04.66.37.66h2.7l-.74 1.14a.72.72 0 0 1-.6.33H7.89a.72.72 0 0 1-.62-.36L6.22 9.51c-.08-.14-.2-.6 0-1.15Zm5.42 1.52H8.76a.15.15 0 0 1-.12-.22L9.3 8.5a.72.72 0 0 1 .63-.37h1.95c.15 0 .24.03.3.08.04.04.08.1.1.18.02.17-.03.4-.1.55l-.53.95Z" fill="url(#aia2dpl2d)"/><defs><linearGradient id="aia2dpl2d" x1="4.51" y1="7.97" x2="13.09" y2="11.55" gradientUnits="userSpaceOnUse"><stop stop-color="#5CCB38"/><stop offset=".35" stop-color="#EEFDFE"/><stop offset=".48" stop-color="#77D264"/><stop offset=".79" stop-color="#E9F6FA"/><stop offset="1" stop-color="#DCFDF0"/></linearGradient></defs></svg>