<!-- by TradingView --><svg width="18" height="18" viewBox="0 0 18 18" xmlns="http://www.w3.org/2000/svg"><path fill="#D7F9C0" d="M0 0h18v18H0z"/><path d="M9 5.4c.25 0 .39.15.47.38.07.2.15.45.3.63.13.16.34.24.55.25.34.01.62-.17.8-.45.07-.13.13-.27.16-.4l.08-.35c.04-.16.1-.32.2-.46a1.08 1.08 0 0 1 1.68-.15 1.08 1.08 0 0 1-.23 1.6c-.15.1-.3.16-.47.2l-.34.07a1.3 1.3 0 0 0-.4.17.87.87 0 0 0-.45.8c0 .2.09.41.25.55.18.15.43.22.63.3.22.08.38.2.38.46s-.16.39-.38.47c-.2.08-.45.15-.63.3a.75.75 0 0 0-.25.55c-.02.34.16.62.44.8.14.08.27.13.4.17l.35.07c.16.04.32.1.47.2a1.08 1.08 0 0 1 .15 1.68 1.08 1.08 0 0 1-1.6-.23c-.1-.15-.16-.3-.2-.46l-.08-.35a1.3 1.3 0 0 0-.17-.4.87.87 0 0 0-.8-.45c-.2.01-.4.1-.54.25-.15.18-.23.44-.3.63-.08.23-.21.39-.47.39-.25 0-.39-.16-.47-.39-.07-.2-.15-.45-.3-.63a.75.75 0 0 0-.55-.25.87.87 0 0 0-.8.45 1.3 1.3 0 0 0-.16.4l-.08.35c-.03.16-.1.32-.2.46a1.08 1.08 0 0 1-1.68.15 1.08 1.08 0 0 1 .23-1.6c.15-.1.3-.16.47-.2l.34-.07c.14-.03.27-.1.4-.17a.87.87 0 0 0 .45-.8.75.75 0 0 0-.25-.55c-.18-.15-.43-.22-.63-.3-.22-.08-.38-.21-.38-.46 0-.26.16-.39.38-.47.2-.08.45-.15.63-.3a.75.75 0 0 0 .25-.55.87.87 0 0 0-.44-.8 1.3 1.3 0 0 0-.4-.17l-.35-.07c-.16-.04-.32-.1-.47-.2a1.08 1.08 0 0 1-.15-1.68 1.08 1.08 0 0 1 1.6.23c.1.15.16.3.2.46l.08.35c.03.14.09.27.17.4.17.28.45.46.8.45.2-.01.4-.1.54-.25.15-.18.23-.44.3-.63.08-.23.21-.39.47-.39Z" fill="#182610"/></svg>