<!-- by TradingView --><svg width="18" height="18" viewBox="0 0 18 18" xmlns="http://www.w3.org/2000/svg"><path fill="url(#aq2m11jgy)" d="M0 0h18v18H0z"/><path d="m4.36 5.73 4.1-1.71A.17.17 0 0 1 8.59 4c.04.01.07.04.1.07v1.37h-.03l-4.27.41c-.02 0-.04 0-.05-.02-.03-.05-.02-.08.03-.1ZM9.53 4.01l4.12 1.73c.04.02.05.05.02.1a.05.05 0 0 1-.05.02l-4.28-.4-.02-.01V4.07c.06-.07.12-.09.2-.06Z" fill="#fff"/><path d="M6.13 9.72 4.08 6.85c-.13-.19-.11-.33.15-.34l4.19-.41h.01l.01.01a.03.03 0 0 1 0 .03L6.23 9.77l-.01.01a.03.03 0 0 1-.04 0 .74.74 0 0 1-.05-.06ZM13.84 6.52c.03 0 .05.01.08.03l.05.07a.16.16 0 0 1-.02.16l-2.16 3h-.03L9.53 6.14c-.01-.03 0-.04.03-.04l4.28.42Z" fill="#A2A3A5"/><path d="M4 11.08V7.86l.01-.04.04-.02h.05l.03.03 1.53 2.35v.05l-.03.04-1.52.86a.07.07 0 0 1-.1-.02.06.06 0 0 1-.01-.03ZM12.32 10.2l1.53-2.37.03-.02.04-.02a.06.06 0 0 1 .05 0c.01 0 .02 0 .02.02v.02L14 11.1v.03l-.03.02a.06.06 0 0 1-.05 0l-1.58-.89-.02-.01a.05.05 0 0 1-.01-.04v-.02Z" fill="#fff"/><path d="M9.42 13.6c-.23.39-.49.6-.79.1a2729.6 2729.6 0 0 1-1.88-3.2l.01-.02.03-.01H11.23a.04.04 0 0 1 .01.05l-1.82 3.09Z" fill="#A2A3A5"/><path d="m6.14 10.85 1.63 2.76a.1.1 0 0 1 0 .1.1.1 0 0 1-.04.03.11.11 0 0 1-.05.02l-.11.01-.07-.01-3.1-1.9a.1.1 0 0 1-.04-.04.1.1 0 0 1 0-.1.1.1 0 0 1 .04-.03L6 10.8a.11.11 0 0 1 .08 0 .1.1 0 0 1 .07.04ZM10.3 13.51c.53-.9 1.06-1.81 1.6-2.7 0-.02.02-.02.02-.02h.03a156.2 156.2 0 0 1 1.72.97v.05l-.02.03-3.11 1.91c-.21.13-.34-.06-.24-.24Z" fill="#fff"/><defs><linearGradient id="aq2m11jgy" x1="3.35" y1="3.12" x2="21.9" y2="24.43" gradientUnits="userSpaceOnUse"><stop stop-color="#1A1E21"/><stop offset="1" stop-color="#06060A"/></linearGradient></defs></svg>