<!-- by TradingView --><svg width="18" height="18" viewBox="0 0 18 18" xmlns="http://www.w3.org/2000/svg"><path fill="#181B1E" d="M0 0h18v18H0z"/><path d="M5.4 11.56c-.07-.12-.12-.25-.2-.36a10.68 10.68 0 0 1-.28-.39l-.01.02v.01l.3.58.01.01v.02a.02.02 0 0 1-.03 0h-.01a2.08 2.08 0 0 1-.32-.5c-.01-.02-.02-.03-.03-.01l-.06.07c-.1-.2 0 .03-.04.1l-.06.07a5.41 5.41 0 0 1-.44-1.4c0-.02.01-.02.02 0l.1.22c0 .02.02.02.03.03.02 0 .03 0 .03.03 0 .02.02.03.03.05l.12.12c.04.1.09.16.17.22.37.27.72.63.67 1.1Z" fill="#FC9345"/><path d="M10.17 4.28a4.88 4.88 0 0 0-4.9 1.6c-.54.65-.9 1.42-1.03 2.25.04.08.1.14.15.17.02.01.03 0 .03-.01.1-.19.29-.63.06.1l.23.44a.24.24 0 0 0 .09-.07c0-.21.1-.35.31-.4l.04-.04.05-.27c.12-.51.33-.98.64-1.4l.08-.13a3.9 3.9 0 0 1 4.38-1.28l.63.29.13.07.54.41c.23.21.44.45.62.7l.04-.06-.18-.43a.14.14 0 0 1 .01-.12l-.03-.09c0-.01.02-.02.03 0l.23.25.08-.05a1.08 1.08 0 0 1-.3-.46l.01-.01.02.01c.13.32.4.52.66.7l.1.09c.1.06.1.05.04-.04a.66.66 0 0 0-.1-.1c-.24-.18-.41-.34-.52-.47-.07-.1-.14-.23-.2-.42a4.27 4.27 0 0 1 .54.41c.04.05.07.04.1-.01l-.51-.53-.49-.38c-.48-.33-1-.57-1.58-.72Z" fill="url(#a)"/><path d="m12.6 7.4-.38-.69.04-.06c.27.09.52.21.75.37l.03.04.13.42c.03.08.07.16.12.23l.07.16.07.14a.84.84 0 0 1 .1.36v.05c-.13.2-.18.28-.23.47-.03.12.01.27.05.41 0 .04.02.07.03.1l-.08.14c-.06.1-.1.2-.12.38v.14c0 .18 0 .35-.1.47l-.33.38a.98.98 0 0 0-.2.44V11.78a.08.08 0 0 1-.08.06 1.4 1.4 0 0 0-1.1.64.99.99 0 0 1-.1.13c-.01.04-.05.06-.09.05a.73.73 0 0 0-.35.02c-.63.13-1 .57-1.4 1.03l-.06.07a.17.17 0 0 1-.13.06h-.43c-.07 0-.12 0-.15-.04a6.63 6.63 0 0 0-.68-.72c-.3-.27-.65-.4-1.07-.42-.02 0-.04 0-.05.02a.04.04 0 0 1-.04 0l-.08-.05a1.43 1.43 0 0 0-1.14-.78c-.05 0-.08-.02-.1-.04a.17.17 0 0 1-.04-.13c.06-.49-.16-.74-.44-1.06l-.08-.09a.52.52 0 0 1-.1-.31c0-.18-.01-.36-.05-.54 0-.04-.03-.07-.06-.11-.05-.07-.11-.15-.08-.24.06-.17.08-.34.06-.5a.24.24 0 0 0 .09-.07c.02.06.02.12.02.18 0 .04.29.11.3.33 0 .28.06.55.15.8l.13.35a3.4 3.4 0 0 0 .92 1.34c.12.12.27.25.46.4a4.7 4.7 0 0 0 .95.5l.03.03c.21.1.43.15.66.15.08 0 .13.02.16.1a11.33 11.33 0 0 1 .4.83.06.06 0 0 0 .07 0l.02-.02.41-.93.13-.02c.16.01.31 0 .44-.03a3.6 3.6 0 0 0 2.85-3.36l.02-.24c0-.02 0-.03.02-.04.1-.05.16-.09.18-.12.19-.26.1-.56-.22-.65a.05.05 0 0 1-.04-.04 4.29 4.29 0 0 0-.27-.93Z" fill="url(#b)"/><path d="m11.92 5.04.34.3-.02.04-.49-.38a4.87 4.87 0 0 0-6.49.88c-.47.58-.8 1.23-.98 1.95-.02-.02-.03-.03-.05-.02v-.05a4.92 4.92 0 0 1 7.69-2.72Z" fill="#BD5C2E"/><path d="m10.3 5.24.63.29-.04.04a3.91 3.91 0 0 0-1.19-.44l-.42-.04-.03.01v.02l.01.03.05.02h-.64a.14.14 0 0 1 .06-.03c.01 0 .02-.01.02-.03l-.02-.02H8.7c-1.12.1-2.03.59-2.73 1.46 0-.02-.02-.03-.05-.03a3.9 3.9 0 0 1 4.38-1.28Z" fill="#DF784C"/><path d="M8.67 5.17a3.75 3.75 0 0 0-3.43 3.2h-.02l-.02-.04A3.83 3.83 0 0 1 8.73 5.1l.02.02c0 .02 0 .02-.02.03a.14.14 0 0 0-.06.03ZM10.9 5.57c.97.56 1.6 1.4 1.86 2.5a1.62 1.62 0 0 1 .02.25l-.01.01h-.02a.02.02 0 0 1-.02 0v-.01l-.01-.14a3.73 3.73 0 0 0-3.16-3 .67.67 0 0 0-.21 0 .1.1 0 0 0-.04-.01l-.05-.02c-.01 0-.02-.02-.01-.03V5.1h.03c.14 0 .28 0 .42.03.42.08.81.23 1.2.44Z" fill="#FCBA86"/><path d="M8.67 5.17h.64a.1.1 0 0 1 .04 0l.03.02c.02 0 .02 0 0 0h-.01c-.02 0-.02 0 0 0a3.91 3.91 0 0 1 2.23 1.05l-1.04.52a2.39 2.39 0 0 0-.12-.15.47.47 0 0 0-.35-.17c-.08 0-.18.04-.27.05 0-.05.02-.1.04-.15h.02c0 .04.02.07.05.1.02.01.03 0 .02-.02 0-.07-.08-.16-.06-.2a41.8 41.8 0 0 1 .23-.84h-.03l-.02.02-.23.74a.02.02 0 0 1-.03.01l-.75-.24h-.09l-.75.24a.03.03 0 0 1-.04-.03 4.04 4.04 0 0 0-.3-.76c.24-.08.48-.13.72-.15.02 0 .03-.02.03-.03v-.02h.04Z" fill="#24A083"/><path d="M8.62 5.16v.02c0 .01 0 .02-.02.03a3.96 3.96 0 0 0-2.18 1.03l-.07.05a3.47 3.47 0 0 0-.94 1.62l-.1.42c0 .03 0 .05.03.06.37.17.29.58-.04.73a.04.04 0 0 0-.02.04 3.64 3.64 0 0 0 .38 1.43c.36.72.9 1.27 1.63 1.65l.12.09c-.05 0-.09-.01-.13-.04A3.82 3.82 0 0 1 5.24 9.3c-.01-.05-.02-.05-.03 0a.38.38 0 0 0-.01.16 3.82 3.82 0 0 0 3.34 3.29 3.83 3.83 0 0 0 4.3-3.57l-.02-.03c-.02-.01-.03 0-.03.01a3.86 3.86 0 0 1-1.49 2.76v-.06c.4-.3.71-.68.97-1.14l.05-.1.1-.22c.04-.05.05-.09.04-.1.16-.39.25-.77.26-1.14 0-.02 0-.03-.02-.04a.47.47 0 0 1-.25-.29c-.04-.2.03-.34.2-.43a.05.05 0 0 0 .03-.04 1 1 0 0 0-.05-.34 3.61 3.61 0 0 0-1.11-1.86 3.91 3.91 0 0 0-2.15-.96h.01c.02 0 .02 0 0 0l-.03-.03a.67.67 0 0 1 .2 0 3.73 3.73 0 0 1 3.2 3.17h.02a.03.03 0 0 0 .02-.03 3.87 3.87 0 0 0-1.9-2.74l.04-.04.13.07.54.41c.23.21.44.45.62.7l.37.68c.13.3.22.6.27.93 0 .02.02.04.04.04.32.09.4.39.22.65a.53.53 0 0 1-.18.12.04.04 0 0 0-.02.04l-.02.24-.1.41a3.99 3.99 0 0 1-3.2 2.98l-.12.02H8.7c-.2 0-.42-.04-.65-.1a15 15 0 0 1-.58-.18 4.7 4.7 0 0 1-.69-.38 5.25 5.25 0 0 1-.7-.64 3.4 3.4 0 0 1-.68-1.1 9 9 0 0 1-.13-.35 2.69 2.69 0 0 1-.15-.8c-.01-.1-.11-.2-.3-.33 0-.06 0-.12-.02-.18 0-.21.1-.35.31-.4l.04-.04.05-.27c.12-.51.33-.98.64-1.4l.08-.13c.03 0 .04.01.05.03a3.75 3.75 0 0 0-.77 1.78c0 .02 0 .03.02.03h.03a3.75 3.75 0 0 1 3.37-3.2Z" fill="#973819"/><path d="m5.7 6.14-.67.54a.17.17 0 0 0-.06.13v.12c0 .06.02.06.05.02.05-.05.14-.19.28-.4a.9.9 0 0 1 .45-.32L5.94 6c.01-.01.02-.01.02.01.01.03 0 .06-.02.1l-.13.13c-.05.2-.16.33-.33.4a.07.07 0 0 0-.03.01l-.02.02c-.01.03 0 .04.02.03.17 0 .28-.08.34-.23.03 0 .04.01.04.04l-.04.08a.8.8 0 0 1-.45.22c-.03 0-.11.06-.25.16-.07.05-.11.11-.14.19l-.11.4c-.02.07-.07.11-.08.18 0 .02-.02.03-.03.04a.19.19 0 0 0-.07.11c-.1.15-.16.32-.18.5H4.4l-.12-.09-.01.02c.14.18.24.33.29.46.02.06.03.15.03.27l-.02-.08a.02.02 0 0 0-.03 0l-.01.05c0 .03-.02.03-.03 0l-.22-.51a1.45 1.45 0 0 1-.06-.31.12.12 0 0 0 .02-.07c.04.08.1.14.15.17.02.01.03 0 .03-.01.04-.18.1-.35.2-.51a3 3 0 0 0 .19-.34c.07-.2.09-.42.04-.65-.07-.39.24-.48.33-.68a.7.7 0 0 1 .16-.18c.16-.15.34-.32.44-.34l.04-.03.22-.27c.03-.03.04-.03.03.01a.2.2 0 0 1-.03.09.14.14 0 0 0-.03.05c-.04.23-.14.53-.32.7Z" fill="#DF784C"/><path d="M12.26 5.33a4.85 4.85 0 0 1 .71 6.55 4.88 4.88 0 0 1-5.94 1.62 4.88 4.88 0 0 1-2.8-5.7c.02 0 .03 0 .05.03l-.04.3-.02.07-.05.31c-.03.24-.03.44 0 .63-.03.22 0 .4.1.54-.06.04-.08.1-.05.17.09.46.24.9.45 1.33l.38.62.1.1.02.02a3.39 3.39 0 0 0 .53.62 4.79 4.79 0 0 0 2.82 1.26c.06 0 .06-.01 0-.04l-.43-.23a2 2 0 0 0-.59-.21l.01-.01.4.06a46.71 46.71 0 0 0 .45.18v-.02l-.13-.12-.33-.34c-.2-.19-.44-.3-.72-.33-.07-.05-.17-.07-.3-.04l-.01.02v.02l-.05-.06h.04a.08.08 0 0 1 .05-.02c.42.01.78.15 1.07.42.23.2.46.45.68.72.03.03.08.05.15.04a8.36 8.36 0 0 1 .5-.02.17.17 0 0 0 .06-.04c.42-.49.8-.97 1.46-1.1.02 0 .03.02.02.04a.06.06 0 0 0-.03.02c-.29.04-.52.15-.71.35-.16.12-.3.26-.43.42-.05.06-.04.07.02.03l.1-.06c.15-.04.29-.1.41-.18a.08.08 0 0 1 .05-.02c.37.02.66-.1.87-.35l.1-.1c0-.04-.02-.06-.1-.03v-.04h.01a.27.27 0 0 1 .16 0c.02 0 .03.02.02.04l-.09.17c-.13.14-.28.23-.45.3-.03 0-.02.02.01.04h.01v.02c-.25.12-.5.19-.78.2a.5.5 0 0 0-.22.06l-.32.18c-.05.03-.04.04.01.04a4.92 4.92 0 0 0 3.21-1.7c.02-.03.02-.04-.01-.02l-.18.1a.07.07 0 0 0-.03.04.34.34 0 0 1-.13.19l-.4.33c-.1.1-.24.13-.41.12h-.15l-.01-.01v-.03l.03-.01c.24 0 .55-.08.67-.31.1-.04.2-.1.3-.18.05-.06.04-.08-.04-.06a2.6 2.6 0 0 1-.28.03c-.26.01-.56.2-.76.36-.02 0-.03-.02-.02-.05a.99.99 0 0 0 .1-.13l.1-.13c.25-.3.58-.48 1-.5a.08.08 0 0 0 .06-.07c.03-.15 0-.31.02-.43.04-.19.1-.34.19-.44l.33-.38c.13-.16.1-.39.1-.61.01-.25.11-.33.2-.51l.06-.14.03-.29h.02c0 .01 0 .02.02.02l.03-.02.2-.49.01-.01a.02.02 0 0 1 .02 0l.01.04c-.03.18-.1.35-.18.51a.1.1 0 0 0 0 .05l-.01.05c-.02.05 0 .06.04.04.05-.03.1-.07.14-.12h.01v.02c-.08.07-.13.14-.18.21a.87.87 0 0 0-.35.63l-.02.38-.01.05-.05.1v.02l.02.01h.02l.07-.16c.18-.13.3-.3.37-.5l.04-.03c.01 0 .02 0 .03-.02.1-.18.13-.37.1-.6.04-.2.04-.42-.01-.64a.7.7 0 0 1-.01-.28c-.03 0-.05 0-.07-.02.04-.04.04-.1.03-.17-.16-.8-.5-1.5-1.01-2.14l-.51-.53c0-.02 0-.03.02-.05Z" fill="#973819"/><path d="m7.89 5.36.23.84a.1.1 0 0 1 0 .05.78.78 0 0 1-.2.34.16.16 0 0 0-.04.04c-.23-.2-.46-.21-.7-.02l-.76-.38V6.2c.45-.4.93-.67 1.47-.84Z" fill="#2AAB8F"/><path d="M9.82 6.49a.15.15 0 0 1-.06.04c-.02 0-.04 0-.03-.02l.08-.27a.03.03 0 0 0-.02-.03l-.68-.22a.3.3 0 0 0-.18 0l-.68.2c-.03.02-.04.04-.03.07l.38 1.25-.01.03h-.04c-.08-.16-.06-.25-.27-.29l-.04-.08c.06 0 .1.02.14.03.04.02.05 0 .04-.03l-.24-.79c-.01-.04-.03-.04-.05 0l-.16.25h-.03l-.01-.03V6.6c.09-.1.15-.21.19-.34a.1.1 0 0 0 0-.05l-.22-.84a4.04 4.04 0 0 1 .3.78.03.03 0 0 0 .02 0l.75-.23h.09l.75.24a.02.02 0 0 0 .03-.01l.23-.74.02-.01.03-.01a.01.01 0 0 1 .02.01l-.25.83c-.02.04.05.13.06.2 0 .02 0 .03-.02.01a.14.14 0 0 1-.05-.08c0-.02-.01-.02-.02 0a.33.33 0 0 0-.04.14Z" fill="#E9FFFE"/><path d="m12.12 5.5.13.1.2.22h-.04v.02l-.01.01a.04.04 0 0 0 .01.03c.2.16.45.33.57.54.03.05.02.07-.03.03a.16.16 0 0 1-.04-.05l-.02-.02c-.04-.02-.06-.02-.06.02-.24-.18-.41-.34-.52-.47-.07-.1-.14-.23-.2-.42Z" fill="#DF784C"/><path d="M12.75 5.9c.52.64.85 1.36 1.01 2.15.01.08 0 .13-.03.17l-.12.1a.01.01 0 0 1-.02.01v-.01a.9.9 0 0 0-.12-.38c-.14-.23-.24-.4-.3-.6a.9.9 0 0 1-.04-.22c.01-.4.02-.6-.23-.9a2.24 2.24 0 0 0-.25-.24l-.04-.02h-.02l-.14-.14-.2-.21a4.27 4.27 0 0 1 .4.31c.04.05.07.04.1-.01Z" fill="#FEA25C"/><path d="M12.83 6.4c0-.04.02-.04.06-.02l.02.02c.01.03.03.05.04.05.05.04.06.02.03-.03-.12-.21-.38-.38-.57-.54l-.01-.01v-.03l.01-.02h.04l.14.14a.02.02 0 0 0 .02 0 2.24 2.24 0 0 1 .29.26c.25.3.24.5.23.9 0 .04 0 .1.04.21.05.21.16.38.3.6a.9.9 0 0 1 .12.4.01.01 0 0 0 .01 0l.13-.1c.02.01.04.02.07.01-.11.07-.18.13-.2.2-.22.2-.3.41-.24.65 0 .07.03.13.08.18 0 .04-.03.08-.06.14-.04-.16-.12-.37-.08-.52.05-.19.1-.27.22-.47a.07.07 0 0 0 .01-.05c0-.07-.02-.13-.03-.18-.02-.1-.1-.21-.14-.32a.7.7 0 0 0-.07-.16 1.37 1.37 0 0 1-.12-.23l-.13-.42a.07.07 0 0 0-.03-.04 3.36 3.36 0 0 0-.75-.37l-.18-.43.01-.03h.02v.03c.06.22.18.46.43.49.05 0 .05-.02.03-.05-.08-.09-.16-.13-.24-.24a3.37 3.37 0 0 0-.24-.32l-.03-.09c0-.01.02-.02.03 0l.23.25.33.3c.05.05.06.11.09.17 0 .02.04.05.1.09.06.03.11.08.16.14a.03.03 0 0 0 .03 0 .03.03 0 0 0 .03-.02v-.12a.2.2 0 0 0-.09-.17l-.57-.44a1.08 1.08 0 0 1-.3-.46l.01-.01.02.01c.14.36.48.57.77.79.08.06.1.05.03-.04a.67.67 0 0 0-.1-.1Z" fill="#BD5C2E"/><path d="M9.73 6.5c-.02.02-.02.04-.01.06-.32.28-.47.6-.65.99l-.04.02h-.6c-.02 0-.03 0-.04-.03l-.1-.29c.2.04.18.13.25.28l.01.01h.04c.01 0 .02-.02.01-.03l-.38-1.25c-.01-.03 0-.05.03-.06l.68-.21a.3.3 0 0 1 .18 0l.68.22a.03.03 0 0 1 .02.03l-.08.27Z" fill="#2AAB8F"/><path d="M5.94 6.1a.66.66 0 0 1-.1.4c0-.02-.02-.03-.05-.03.08-.13.08-.2.02-.23l.13-.14Z" fill="#FCBA86"/><path d="m12.32 6.26.08-.05.57.44c.06.04.09.1.09.17v.12a.03.03 0 0 1-.06.02.67.67 0 0 0-.15-.14c-.07-.04-.1-.07-.11-.09-.03-.06-.04-.12-.1-.17l-.32-.3Z" fill="#EEA36E"/><path d="m6.42 6.23.77.38a.18.18 0 0 1-.06.06l-.78-.38.07-.06ZM11.6 6.24l.03.05-1.03.52-.04-.05 1.04-.52Z" fill="#B8F9D8"/><path d="m6.35 6.29.78.38c-.2.3-.33.63-.4 1a10 10 0 0 0-.08.74l-.38-.14a.06.06 0 0 1-.03-.04l-.5-1.14c.15-.27.35-.54.61-.8Z" fill="#2FB89A"/><path d="m12.26 7.09-.4.97-.14.13c.07-.17.1-.34.13-.52 0-.02 0-.03.02-.05a.33.33 0 0 0 .04-.07c.01-.03 0-.03-.02-.01a.58.58 0 0 0-.2.28.07.07 0 0 1-.07.05c-.2 0-.3-.12-.4-.28-.03-.04-.06-.04-.09-.01a.7.7 0 0 0-.2.22c-.03.13-.05.12-.06 0a2.9 2.9 0 0 0-.27-.99l1.03-.52h.01l.03.02c.24.24.44.5.6.78ZM8.24 7.17a1.85 1.85 0 0 0-.3-.5l.03-.04.16-.26c.02-.03.04-.03.05.01l.24.79c.01.04 0 .05-.04.03a.42.42 0 0 0-.14-.03Z" fill="#2AAB8F"/><path d="m4.1 8 .09-.34c0 .08.01.1.04.1v.05a4.88 4.88 0 0 0 2.8 5.69 4.85 4.85 0 0 0 5.94-1.62 4.9 4.9 0 0 0 .6-4.7.19.19 0 0 0 .03-.13l.16.4a4.98 4.98 0 0 1-1.92 5.65A5 5 0 0 1 4.1 8Z" fill="#FC9345"/><path d="M12.26 7.09c.15.3.28.61.37.93-.11 0-.2.02-.3.08h-.03v-.05l.22-.07a.07.07 0 0 0 .05-.07l-.01-.03c-.12-.17-.21-.36-.26-.56-.02-.07-.04-.07-.07 0a12.46 12.46 0 0 1-.37.83c-.02 0-.03 0-.03-.03a.2.2 0 0 1 .02-.06l.41-.97ZM6.65 8.41v.08l-.38-.16c-.02 0-.03 0-.04.02l-.4 1.33-.23.74c-.04-.05-.06-.09-.05-.1l.63-1.98a.04.04 0 0 0-.02-.05l-.73-.3v-.02h.03l.67.25c.04.01.05 0 .03-.04l-.39-.87c-.02-.05-.04-.05-.05 0-.04.21-.13.4-.27.58l-.04.02c.08-.26.2-.54.34-.82l.49 1.14c0 .02.02.03.03.04l.38.14Z" fill="#B8F9D8"/><path d="m5.46 7.97-.01-.08c.14-.17.23-.37.27-.58.01-.05.03-.05.05 0l.4.87c.01.04 0 .05-.04.04l-.67-.25ZM12.3 8.05c-.14.13 0 .07-.12.25h-.02l-.14-.11c-.02-.02-.04-.02-.05 0l-.02.02a.05.05 0 0 1-.04.03.4.4 0 0 0-.17.03l-.81.32-.03.17c0-.29-.02-.54.17-.75a.07.07 0 0 1 .1 0l.2.14a.4.4 0 0 0 .35.04l.13-.13a.2.2 0 0 0-.02.06c0 .02 0 .03.03.03 0 0 .02 0 .02-.02.16-.35.28-.62.35-.81.03-.07.05-.07.07 0a1.77 1.77 0 0 0 .27.59.07.07 0 0 1-.02.06l-.03.01-.22.07Z" fill="#2FB89A"/><path d="m5.45 7.89.01.08h-.03V8l.73.3a.04.04 0 0 1 .02.05l-.63 1.99a3.64 3.64 0 0 1-.27-1.17c0-.02 0-.03.02-.04.33-.15.4-.56.04-.73-.02-.01-.03-.03-.03-.06l.1-.42c.03 0 .04-.01.04-.02ZM12.63 8.02a1 1 0 0 1 .05.34.05.05 0 0 1-.03.04c-.17.09-.24.23-.2.43l-.1.1v-.06c-.05.12-.08.26-.24.31l-.26-.82c.08.04.13.08.17.12a.1.1 0 0 0 .15 0 .4.4 0 0 0 .1-.32c0-.02-.01-.02-.03-.02 0-.03-.02-.04-.04-.04a.3.3 0 0 0 .1-.05v.05h.03c.1-.06.19-.08.3-.08Z" fill="#3AC6A7"/><path d="M4.22 8.2c.02.16.04.26.06.3l.22.52c.01.03.02.03.03 0l.01-.05a.02.02 0 0 1 .02-.01.02.02 0 0 1 .01.01l.02.08.01.15c.02.09.04.09.05 0l.03-.2c.04-.2-.15-.47-.28-.6.04-.02.06-.02.08 0l.23.43c.02.16 0 .33-.06.5-.05.15.12.25.14.35.04.18.06.36.06.54 0 .1.03.24.1.31.31.37.58.62.51 1.15 0 .05 0 .1.04.13.02.02.05.04.1.04.52.05.89.34 1.14.78l.08.05.05.06c.03 0 .06.02.09.04-.07.04-.13.03-.18-.04-.2-.2-.45-.35-.73-.43a1.34 1.34 0 0 0-.29-.01v.04c0 .02 0 .03.02.03.08 0 .14.03.2.08l.2.08.28.08c.03 0 .03.01 0 .02a.63.63 0 0 1-.2.01.68.68 0 0 1-.23-.06c-.03-.01-.04 0-.01.02.04.05.1.08.17.1.16.08.33.1.51.06a.07.07 0 0 1 .08.03c.26.49.71.44 1.14.58l-.41-.06s-.01 0 0 0v.01c.2.04.4.11.58.2-.32.04-.6-.03-.88-.2-.02 0-.01 0 0-.01l.03-.02c.01-.01.01-.02-.01-.03a.81.81 0 0 1-.37-.23l-.14-.18a.04.04 0 0 0-.04-.02c-.17.04-.34.04-.5 0a1.5 1.5 0 0 1-.32-.24 1.18 1.18 0 0 0-.17-.14c-.13-.09-.16-.22-.28-.3l-.16-.1a.25.25 0 0 1-.08-.13h.02l.04.01c.13.09.27.17.4.23.08.04.15.02.23.04.15.06.27.1.38.1a.4.4 0 0 1 .17.08l.17.12.01-.01v-.02a3.05 3.05 0 0 0-.3-.3c-.3-.25-.7-.3-1.1-.3l-.03.02-.02.02-.09-.1.23.01c.05 0 .06 0 .02-.04a4.33 4.33 0 0 1-.37-.37c-.08-.09-.13-.2-.2-.3a1.2 1.2 0 0 1-.12-.64h.04c-.02.2.03.37.12.54.12.32.36.56.6.77.04.04.05.03.04-.02a.28.28 0 0 1 0-.2c.04-.48-.3-.84-.68-1.1a.47.47 0 0 1-.17-.23.83.83 0 0 0-.12-.12.08.08 0 0 1-.03-.05c0-.02 0-.03-.03-.03a.04.04 0 0 1-.03-.03l-.1-.22c0-.02-.01-.02-.02 0 0 .02-.01.04 0 .07-.04-.08-.02-.13.03-.17.12.24.26.44.44.59l.08.1h.01l-.03-.3a.74.74 0 0 0-.2-.63 1.14 1.14 0 0 0-.34-.35l-.02-.04c0-.02 0-.02.02 0l.11.08h.07a.04.04 0 0 0 0-.05c-.1-.2-.16-.33-.16-.37.01-.11-.01-.18-.07-.2l.05-.31Z" fill="#BD5C2E"/><path d="M13.8 8.24c-.02.1-.01.2.01.28h-.03V8.5a.02.02 0 0 0-.03-.01l-.01.01-.2.49-.03.02c-.01 0-.02 0-.02-.02h-.02l-.03.29a.26.26 0 0 1-.08-.18.5.5 0 0 0 .07-.25l.02-.05.16-.36c.01-.06.08-.12.19-.19Z" fill="#DF784C"/><path d="m11.74 8.27-.01.08-.76.28c-.03 0-.04 0-.04-.04l.81-.32Z" fill="#B8F9D8"/><path d="M4.4 8.4c.13.13.32.4.28.6a2.2 2.2 0 0 0-.03.2c-.01.09-.03.09-.05 0a.73.73 0 0 1-.01-.15c0-.12 0-.21-.03-.27a1.74 1.74 0 0 0-.3-.46l.01-.02h.01l.12.1Z" fill="#FCBA86"/><path d="M11.73 8.35c.01.03.03.04.05.03l-.12.14c-.06.08-.1.2-.13.36 0 .04-.04.09-.1.13a.06.06 0 0 1-.04.02.34.34 0 0 1-.22-.13.09.09 0 0 0-.05-.03c-.14-.04-.22-.07-.22-.11l.03-.17c0 .04.01.05.04.04l.76-.28Z" fill="#3AC6A7"/><path d="m11.85 8.36.26.82-.07.05-.25-.85c.02-.04.05-.04.06-.02Z" fill="#B8F9D8"/><path d="m11.79 8.38.25.85c-.31.17-.32.35-.34.68 0 .04-.04.1-.1.18-.13.16-.39.22-.6.26-.02 0-.02-.01-.02-.03a1.89 1.89 0 0 0 .08-.77l.02-.01.12-.02c.21-.03.35-.21.39-.42.02-.13 0-.29.04-.44.02-.04.03-.09.03-.14l.13-.14Z" fill="#4FD4B6"/><path d="m13.6 8.43-.15.36-.02.05a.5.5 0 0 1-.07.25c-.06-.24.02-.46.25-.66Z" fill="#EEA36E"/><path d="M4.57 9.44c.01.07.03.14.06.2l.05.22.02.2c0 .02.02.03.04.02h.02l.03.28c0 .02 0 .02-.01 0l-.08-.1-.25-.7a1.1 1.1 0 0 0-.28-.42c-.03-.19-.03-.4 0-.63.06.02.08.09.07.2 0 .04.05.17.16.37v.04l-.02.02-.05-.01-.1-.09c-.02-.01-.03 0-.03.01l.02.04c.17.12.28.23.35.35Z" fill="#FEA25C"/><path d="M13.78 8.52h.03c.05.22.05.44 0 .65-.13.14-.22.29-.27.45-.08.27-.17.5-.26.7l-.07.15h-.04v-.03l.05-.1.01-.05.02-.38c-.01.07-.01.12.01.14l.02.01a.04.04 0 0 0 .04-.02v-.02c0-.27.1-.51.28-.74a1.58 1.58 0 0 1 .18-.23.49.49 0 0 1-.15.12c-.05.02-.06.01-.04-.04v-.05l.01-.05c.09-.16.15-.33.18-.5Z" fill="#FC9345"/><path d="M12.45 8.83c.04.13.12.23.25.29l.02.04c0 .37-.1.75-.26 1.14l-.34-.97h-.01c.08-.05.13-.1.15-.12.06-.06.09-.15.1-.28l.09-.1Z" fill="#4FD4B6"/><path d="M4.7 10.27a1.65 1.65 0 0 1-.44-.59.77.77 0 0 1-.1-.54c.14.14.24.28.3.42l.24.7Z" fill="#D1682E"/><path d="m7.4 12.33.08.04a3.83 3.83 0 0 0 1.4.33c.39 0 .75-.01 1.12-.14l.2-.06a2.89 2.89 0 0 0 1.1-.58 3.86 3.86 0 0 0 1.49-2.75c0-.03.01-.03.03-.02l.02.02a3.83 3.83 0 0 1-7.64.12c.02-.04.03-.04.04.01a3.82 3.82 0 0 0 2.04 3c.04.02.08.03.13.03Z" fill="#FC9345"/><path d="M13.82 9.17c.03.22 0 .41-.1.59l-.03.02a.05.05 0 0 0-.04.04c-.07.2-.2.36-.37.5.1-.2.18-.43.26-.7.05-.16.14-.31.28-.45Z" fill="#D1682E"/><path d="M13.6 9.28a1.1 1.1 0 0 0-.27.74v.02a.04.04 0 0 1-.05.02l-.02-.01c-.02-.02-.02-.07-.01-.14a.87.87 0 0 1 .35-.63Z" fill="#FEEEAF"/><path d="m12.1 9.34.02-.01c.07.38.17.73.3 1.07l-.1.22-.79-.05c.07-.11.13-.21.17-.35.1-.31.23-.61.4-.88Z" fill="#63E1C4"/><path d="M12.46 10.3c0 .01 0 .05-.03.1-.14-.34-.24-.7-.3-1.07l.33.97Z" fill="#B8F9D8"/><path d="M12.9 9.4a3.6 3.6 0 0 1-2.86 3.36 1.7 1.7 0 0 1-.43.04 3.99 3.99 0 0 0 3.2-2.98l.1-.41Z" fill="#D1682E"/><path d="M4.57 9.44c.17.19.23.4.19.63l-.02.01c-.02 0-.03 0-.04-.02l-.02-.2a.88.88 0 0 0-.05-.21 1.2 1.2 0 0 1-.06-.21Z" fill="#FEEEAF"/><path d="M6.64 8.75a3 3 0 0 0 0-.26l-.37-.16c-.02 0-.03 0-.04.02l-.4 1.33-.23.74c0 .05.02.1.06.17.12 0 .18.02.2.05.23-.05.47-.07.72-.06a5.32 5.32 0 0 0-.06-.24A2.16 2.16 0 0 1 6.59 9c.03-.1.05-.18.05-.25Z" fill="#4FD4B6"/><path d="m11.53 10.57.8.05-.06.1-.73-.07c-.02 0-.03 0-.03-.02v-.03l.02-.03Z" fill="#B8F9D8"/><path d="M5.85 10.64c.25.04.5.04.75-.02.11.27.28.51.49.74l.02.04c-.02.28.04.55.18.84a3.63 3.63 0 0 1-1.63-1.65c.12 0 .18.02.2.05ZM11.5 10.6v.03l.04.02.73.07a3.65 3.65 0 0 1-.98 1.14v-.01l-.14-.23v-.01a.02.02 0 0 1 .01-.02h.01c.22 0 .36-.18.4-.39a.58.58 0 0 1 .13-.33c.01-.03 0-.03-.02-.03-.05.01-.1.03-.13.07-.09.04-.13.12-.12.22-.02.07-.07.12-.14.14l-.22.02-.42-.15a.06.06 0 0 1-.04-.04v-.03l.01-.03c.04-.06.11-.1.2-.11.26-.05.5-.05.68-.33Z" fill="#63E1C4"/><path d="M5.4 11.56a.28.28 0 0 0 0 .2c.02.05.01.06-.03.02-.24-.2-.48-.45-.6-.77l.06-.07c0-.02.02-.01.03 0a2.08 2.08 0 0 0 .34.51.02.02 0 0 0 .01 0l.01-.02-.31-.59v-.01l.01-.02.28.4c.08.1.13.23.2.35Z" fill="#D1682E"/><path d="m5.05 11.8-.38-.62.06-.07c.07.1.12.21.2.3.12.14.24.26.37.37.04.03.03.05-.02.04l-.23-.02Z" fill="#D1682E"/><path d="M9.38 12.1c-.09.2-.21.37-.36.51 0 .03-.03.04-.07.04-.33 0-.65-.05-.98-.14l.01-.03.03-.02a3 3 0 0 1 .13-.04c.02-.01.02-.02 0-.02-.35-.08-.6-.29-.77-.62a1.8 1.8 0 0 0-.12-.21c-.01-.02-.02-.03-.01-.05v-.01h.02c.18.14.37.26.56.36.48.25 1 .33 1.56.24Z" fill="#FDFDEF"/><path d="m7.97 12.51-.47-.16c-.15-.2-.24-.44-.27-.7a.1.1 0 0 1 0-.05l.02-.03c.05.06.08.13.12.2.16.34.42.55.77.63.02 0 .02.01 0 .02a3.18 3.18 0 0 0-.16.06v.03Z" fill="#AC9087"/><path d="m5.17 11.92-.03-.01.02-.02.03-.01c.4-.02.8.04 1.1.28a3.05 3.05 0 0 1 .3.33h-.01c-.02 0-.07-.04-.17-.11a.4.4 0 0 0-.17-.07l-.39-.1c-.07-.03-.14-.01-.21-.05a2.65 2.65 0 0 1-.4-.23.06.06 0 0 0-.05 0h-.02ZM6.17 12.82c.21.17.44.18.7.21.1.11.22.19.36.23.02 0 .02.02 0 .03 0 .01 0 .02-.02.02-.01 0-.02 0 0 .02.27.16.56.23.88.2l.44.23c.05.03.05.04-.01.04h-.2a4.79 4.79 0 0 1-3.07-1.75l.16.1c.12.08.15.21.28.3l.17.14c.1.09.2.17.31.23ZM11.23 12.97l.3-.1c.18.01.32-.03.43-.12.12-.1.25-.22.4-.33.06-.06.1-.12.12-.19 0-.02.01-.03.03-.04l.18-.1c.03-.02.03-.02.01.01l-.15.2a4.92 4.92 0 0 1-3.06 1.5c-.05.01-.06 0-.01-.03l.32-.18a.5.5 0 0 1 .22-.06 1.86 1.86 0 0 0 .78-.21v-.01c-.04-.02-.05-.03-.02-.04.17-.07.32-.16.45-.3Z" fill="#FC9345"/><path d="m12.08 12.5-.76.2c-.01 0-.02 0-.02-.02v-.02c.2-.16.5-.35.76-.36.1 0 .2-.02.28-.03.08-.02.09 0 .03.06a.84.84 0 0 1-.3.18ZM6.78 12.74l-.22.02c-.13.01-.24-.03-.37-.05a.43.43 0 0 1-.17-.1c-.03-.04-.02-.04.01-.03.07.04.15.06.22.06h.2c.04-.02.04-.02 0-.03a19.32 19.32 0 0 1-.47-.16.42.42 0 0 0-.2-.08l-.03-.03v-.02l.01-.02H6.05c.28.09.52.23.73.44Z" fill="#FC9345"/><path d="M7.97 12.51c.33.1.65.14.98.14.04 0 .06-.01.07-.04.01.02.03.03.05.03h.27c.11 0 .25-.01.4-.07l.26-.01c-.37.13-.73.14-1.12.14a3.24 3.24 0 0 1-1.4-.33l.02-.02.47.16Z" fill="#973819"/><path d="M9.34 12.63h-.27l.28-.15c.01-.01.02 0 .02.01l-.03.14Z" fill="#FDFDEF"/><path d="M12.08 12.5c-.12.24-.43.31-.67.32l-.02.01-.01.02a.01.01 0 0 0 0 .02h.16l-.3.1.08-.17-.01-.04a.27.27 0 0 0-.17 0l-.01.03s0 .01 0 0c.08-.02.1 0 .1.04-.02-.04-.05-.05-.1-.03a24.72 24.72 0 0 1-.92.43c-.02.01-.02.02 0 .03l.01.02h.01l.9-.35a.98.98 0 0 1-.87.35c-.01 0-.03 0-.05.02a1.4 1.4 0 0 1-.41.18c.1-.14.22-.25.37-.31a30.9 30.9 0 0 0 .94-.43c.06-.02.06-.03 0-.04-.08 0-.16 0-.26.02 0-.02 0-.03-.02-.04a.73.73 0 0 1 .35-.02c.04 0 .08 0 .1-.05 0 .03 0 .05.03.05v.03l.77-.18Z" fill="#D1682E"/><path d="M8.7 12.82h-.05c-.02 0-.02.01-.02.03l.34.74a.03.03 0 0 0 .04.01l.41-.79.06.01-.41.93a.06.06 0 0 1-.09.02 11.33 11.33 0 0 0-.4-.84c-.04-.07-.08-.08-.16-.09-.23 0-.45-.05-.66-.15l-.03-.03a.07.07 0 0 0-.04-.03.41.41 0 0 1-.22-.1l.58.18c.23.07.45.1.65.1Z" fill="#BD5C2E"/><path d="M7.18 12.74c.06.05.13.09.2.11.1.03.16.05.22.09.1.05.2.1.3.13l.33.34a.87.87 0 0 1-.15-.05 1 1 0 0 0-.14-.06c-.34-.1-.66-.18-.97-.37l-.02-.02v-.03c.01-.05.05-.05.1 0h.02l.02-.02c.01 0 .02-.01 0-.02a.3.3 0 0 0-.13-.06.29.29 0 0 0-.09-.04v-.02c0-.01 0-.02.02-.02.12-.03.22-.01.3.04ZM9.8 13.48l-.1.06c-.07.04-.07.03-.02-.03.13-.16.27-.3.43-.42a3 3 0 0 1 .7-.31v-.04l.04-.02c.1-.02.18-.03.26-.02.06 0 .06.02 0 .04a13.1 13.1 0 0 0-.94.43.86.86 0 0 0-.37.31Z" fill="#FC9345"/><path d="M6.78 12.74c.05.07.1.08.18.04.05 0 .1.03.13.06.02 0 .01.01 0 .02l-.02.01h-.01c-.06-.04-.1-.04-.11 0v.04s0 .02.02.02c.3.19.63.27.97.37a1 1 0 0 1 .14.06l.15.05.13.12v.03h-.02l-.42-.2c-.43-.13-.88-.08-1.14-.57a.07.07 0 0 0-.08-.03.84.84 0 0 1-.51-.05c.13.02.24.06.37.05.07 0 .15 0 .22-.02Z" fill="#D1682E"/><path d="M7.18 12.74c.28.03.52.14.72.33a1.6 1.6 0 0 1-.3-.13.98.98 0 0 0-.21-.09.55.55 0 0 1-.2-.11ZM10.82 12.74v.04l-.03.02c-.22.06-.45.16-.68.3.19-.2.42-.32.7-.36Z" fill="#FED08F"/><path d="M6.86 13.03c-.25-.03-.48-.04-.69-.2.17.04.34.04.5 0 .02 0 .04 0 .05.02l.14.18Z" fill="#D1682E"/><path d="M8.7 12.82h.72l-.4.77a.03.03 0 0 1-.03.02.03.03 0 0 1-.02-.02l-.34-.74c0-.02 0-.03.02-.03h.05Z" fill="#FEA25C"/><path d="M9.32 5.24a.16.16 0 0 1 .05-.02c.08 0 .08.02 0 .05a.33.33 0 0 0-.07.06.08.08 0 0 0-.03.04.34.34 0 0 1-.14.2c-.18.14-.35-.05-.4-.22a.07.07 0 0 0-.03-.04l-.12-.06v-.03h.21c.02 0 .03 0 .03.02-.04.18.03.28.19.3h.05c.12-.06.17-.16.14-.3a.02.02 0 0 1 .02-.03h.01c.01 0 .02 0 .03.02.02.01.04.02.06 0Z" fill="#E9FFFE"/><path d="M5.46 8.81c-.18.35-.5.21-.52-.12.12-.3.59-.26.52.12Z" fill="#973819"/><path d="M13.2 11.11c-.12.1-.24.22-.35.37a.1.1 0 0 1-.07.04c-.02 0-.03-.01-.02-.03l.36-.67v-.02h-.02l-.28.4c-.04.05-.1.17-.19.35a.74.74 0 0 1 .15-.62c.15-.2.34-.37.57-.53a.18.18 0 0 0 .06-.09l.03-.04c.07-.06.1-.13.15-.2a.47.47 0 0 0 .14-.23c0-.02 0-.02.02-.02h.02v.01a5.02 5.02 0 0 1-.5 1.43c-.1.17-.15.3-.29.48-.06.1-.14.1-.23.08-.04 0-.04-.02 0-.04a.48.48 0 0 0 .15-.14c.01-.01.03-.02.04-.01h.03v-.03c0-.02 0-.03.02-.04.05-.04.1-.08.11-.11.15-.27.26-.44.3-.73l-.01-.02h-.02l-.18.41Z" fill="#FC9345"/><path d="M13.2 11.11c-.13.26-.31.48-.56.65l-.02-.01.01-.2c.08-.18.15-.3.19-.35a3.5 3.5 0 0 0 .3-.4v.01l-.36.68c0 .02 0 .03.02.03a.1.1 0 0 0 .07-.04c.11-.15.23-.27.34-.37Z" fill="#D1682E"/><path d="m12.85 11.9-.36.07c-.35.08-.63.1-.89.4a.66.66 0 0 1-.12.08h-.02c-.02 0-.03 0-.01-.02.23-.25.41-.4.73-.5.2-.05.42-.06.67-.03Z" fill="#FC9345"/><path d="M7.63 6.62c.25.3.38.65.39 1.04l-.27.1a.02.02 0 0 1-.02 0 .02.02 0 0 1-.01-.02c0-.12-.07-.72-.27-.7-.07.02-.12.05-.14.11-.08.2-.13.44-.16.73-.1.15-.17.31-.21.49l-.15.22c-.02.03-.03.03-.03 0 0-.51.1-1.7.63-1.96a.28.28 0 0 1 .24-.01Z" fill="#EEA36E"/><path d="M8.02 7.66c0-.4-.14-.74-.39-1.04.2.08.35.24.45.46a3.2 3.2 0 0 1 .18.5.04.04 0 0 1-.03.03l-.21.05Z" fill="#A26044"/><path d="M8.71 9.97a1 1 0 0 0-.23.3c-.18-.22-.54-.26-.75-.05a.36.36 0 0 0-.13-.2c.32-.14.43-.4.32-.75-.13-.4-.65-.4-.82-.02a.6.6 0 0 0 .1.66.9.9 0 0 0-.58.34c-.13-.74.03-1.36.48-1.85.43-.47 1-.68 1.64-.69.06 0 .07.02.02.06-.63.57-.53 1.55-.05 2.2Z" fill="#EEA36E"/><path d="M7.15 7.88c.03.22-.04.39-.21.49.04-.18.11-.34.21-.5Z" fill="#A26044"/><path d="M11.09 9.05c-.1-.1-.23-.12-.36-.06h-.01v-.02a.5.5 0 0 1 .29-.06c.02 0 .04.01.05.03.09.09.19.14.3.15a.03.03 0 0 1 .03.02v.02l-.02.01c-.1.02-.2 0-.28-.09Z" fill="#4FD4B6"/><path d="M7.2 9.91c.1.1.23.13.4.11.06.04.1.11.13.2-.07.08-.07.17-.01.27.03.1.07.2.14.29a.03.03 0 0 1-.02.04.79.79 0 0 1-.4-.15.54.54 0 0 1-.03-.22c0-.03-.03-.06-.06-.06h-.03a.04.04 0 0 0-.03.04c-.02.25.07.44.27.58l.03.04.02.12c.03.23.15.4.35.5l-.05.02a2.05 2.05 0 0 1-1.3-1.44.9.9 0 0 1 .6-.34ZM8.71 9.97c.2.24.43.45.75.52l.04.03c.07.1.1.23.1.37 0 .1-.13.2-.16.28-.01.01 0 .02.01 0l.12-.06h.01v.02c-.04.1-.1.18-.16.22l-.19.11c-.02.02-.01.03.01.03h.02v.03l-.01.01c-.3.16-.6.26-.93.25l.17-.19c.31-.15.49-.42.5-.77.01-.14.02-.23.04-.29a.04.04 0 0 0-.02-.04c-.05-.02-.08-.01-.1.02l-.06.19c-.2.1-.37.14-.51.1l-.02-.02a.04.04 0 0 1 0-.05.6.6 0 0 0 .13-.25.28.28 0 0 0 .03-.21 1 1 0 0 1 .23-.3Z" fill="#FDFDEF"/><path d="M10.56 10.94a1 1 0 0 0-.42.38l-.02-.02c.09-.18.21-.32.36-.43.19-.13.47-.13.66-.25l.3-.23c.05-.05.06-.04.03.02-.12.27-.3.38-.58.44-.16.03-.27.06-.33.09Z" fill="#4FD4B6"/><path d="M8.45 10.48a.6.6 0 0 1-.13.25.04.04 0 0 0-.01.04.04.04 0 0 0 .03.02c.14.05.31.02.5-.1-.25.36-.5.37-.72.03l-.01-.01a.03.03 0 0 0-.03 0l-.01.01a.35.35 0 0 1-.15.17c-.2.12-.36.04-.47-.22.14.1.27.15.39.15a.03.03 0 0 0 .03-.03l-.01-.01a.78.78 0 0 1-.14-.29c.25.17.5.16.73 0ZM8.49 11.6l-.17.18-.4-.1.04-.01c.23.06.33-.02.53-.08Z" fill="#AC9087"/><path d="M9.1 9.52c0 .23.17.43.37.43.21 0 .38-.19.38-.43s-.16-.43-.37-.43c-.2 0-.38.19-.38.43Z" fill="#E9FFFE"/><path d="m8.2 11.59.21-.2a.04.04 0 0 0 .02-.03.04.04 0 0 0-.02-.03l-.33-.17c0-.05 0-.1.05-.19a.02.02 0 0 1 .03 0c.13.12.27.15.45.1h.02a.02.02 0 0 1 0 .03c-.06.23-.13.47-.43.49ZM8 11.18a.58.58 0 0 0-.32-.01.1.1 0 0 1 0-.07c0-.02.01-.03.03-.03.1.01.2-.01.3-.06 0-.01.02 0 .01.01l-.02.16Z" fill="#A26044"/><path d="M8 11.18c-.02.07-.01.12 0 .15.02.02.03.02.03 0l.05-.17.33.17a.04.04 0 0 1 .01.05v.01l-.22.2c-.27.09-.48-.18-.52-.43.09-.02.2-.02.32.02Z" fill="#FCBA86"/><defs><linearGradient id="a" x1="8.6" y1="4.15" x2="8.6" y2="8.83" gradientUnits="userSpaceOnUse"><stop stop-color="#FFFFE6"/><stop offset="1" stop-color="#FFBF75"/></linearGradient><linearGradient id="b" x1="8.6" y1="4.15" x2="8.6" y2="8.83" gradientUnits="userSpaceOnUse"><stop stop-color="#FFFFE6"/><stop offset="1" stop-color="#FFBF75"/></linearGradient></defs></svg>