<!-- by TradingView --><svg width="18" height="18" viewBox="0 0 18 18" xmlns="http://www.w3.org/2000/svg"><path fill="#181B1E" d="M0 0h18v18H0z"/><path fill-rule="evenodd" d="M4.31 5C3.6 5 3 5.5 3 6.11v5.78C3 12.5 3.59 13 4.31 13h9.38c.72 0 1.31-.5 1.31-1.11V6.11C15 5.5 14.41 5 13.69 5H4.3Zm.75.67c-.73 0-1.31.49-1.31 1.1v4.46c0 .61.58 1.1 1.3 1.1h7.9c.72 0 1.3-.49 1.3-1.1V6.77c0-.61-.58-1.1-1.3-1.1h-7.9ZM7 11a1 1 0 1 1-2 0 1 1 0 0 1 2 0Zm5 1a1 1 0 1 0 0-2 1 1 0 0 0 0 2Zm-3.06-.33v-1.34h.17v1.34h-.17Zm-.48-1.34.07 1.34h.18l-.07-1.34h-.18Zm1.06 1.34.07-1.34h-.17l-.07 1.34h.17Zm-1.54-1.34.07 1.34h.18l-.07-1.34h-.18ZM10 11.67l.07-1.34H9.9l-.08 1.34H10Zm-2.5-1.34.15 1.34h.17l-.14-1.34H7.5Zm2.9 1.34.15-1.34h-.17l-.15 1.34h.18Zm-3.35-1.34.15 1.34h.17l-.14-1.34h-.18Zm3.8 1.34.15-1.34h-.17l-.15 1.34h.18ZM5 6.84l.32.25c.28.2.66.2.95 0l.48-.34a.07.07 0 0 1 .07 0l.73.44c.27.16.62.16.88-.02l.58-.37a.1.1 0 0 1 .1 0l.65.35c.28.15.62.14.88-.04l.46-.3a.1.1 0 0 1 .1-.01l.72.42c.24.14.53.15.78.04l.3-.15V6.3l-.61.32a.1.1 0 0 1-.09 0l-.72-.42a.85.85 0 0 0-.9.03l-.46.3a.1.1 0 0 1-.1.01l-.66-.36a.85.85 0 0 0-.87.04l-.57.37a.07.07 0 0 1-.08 0l-.72-.44a.83.83 0 0 0-.9.03l-.49.34a.07.07 0 0 1-.08 0L5 6v.84Zm.32 1.58L5 8.17v-.84l.75.51c.03.02.06.02.08 0l.48-.34c.27-.18.63-.2.9-.02l.73.44h.08l.57-.38c.26-.17.6-.19.87-.04l.66.37a.1.1 0 0 0 .1 0l.46-.32c.27-.18.62-.2.9-.03l.72.42a.1.1 0 0 0 .09 0l.61-.32v.83l-.3.14a.85.85 0 0 1-.78-.04l-.72-.42a.1.1 0 0 0-.1 0l-.46.32c-.26.17-.6.19-.88.04l-.66-.36a.1.1 0 0 0-.1 0l-.57.38a.83.83 0 0 1-.88.01l-.73-.44a.07.07 0 0 0-.07 0l-.48.34c-.29.2-.67.2-.95 0ZM5 9.5l.32.25c.28.2.66.2.95 0l.48-.34a.07.07 0 0 1 .07 0l.73.45c.27.16.62.16.88-.02l.58-.38a.1.1 0 0 1 .1 0l.65.36c.28.15.62.14.88-.04l.46-.31a.1.1 0 0 1 .1 0l.72.42c.24.13.53.15.78.03l.3-.14v-.82l-.61.32a.1.1 0 0 1-.09 0l-.72-.42a.85.85 0 0 0-.9.02l-.46.31a.1.1 0 0 1-.1 0l-.66-.35a.85.85 0 0 0-.87.03l-.57.38a.07.07 0 0 1-.08 0l-.72-.44a.83.83 0 0 0-.9.03l-.49.34a.07.07 0 0 1-.08 0L5 8.67v.83Z" fill="#FDEE06"/></svg>