<!-- by TradingView --><svg width="18" height="18" viewBox="0 0 18 18" xmlns="http://www.w3.org/2000/svg"><path fill="#30157E" d="M0 0h18v18H0z"/><path d="m11.63 11.26-.15-.16A3.26 3.26 0 0 0 7.82 6a3.24 3.24 0 0 0-1.62 4.68 3.24 3.24 0 0 0 4.87.84l.14.14.9.9.4-.4-.88-.89Zm-.75-.35A2.67 2.67 0 0 1 6.52 8a2.68 2.68 0 1 1 4.36 2.92Z" fill="url(#aesg4h0sr)"/><path style="mix-blend-mode:multiply" d="m12.54 12.13-.4.4-.91-.9.42-.39.89.89Z" fill="url(#besg4h0sr)"/><path d="M11.7 4.78a5.03 5.03 0 0 0-6.24.68A5.03 5.03 0 0 0 5 12l.46-.35a4.4 4.4 0 0 1-.86-2.48 4.45 4.45 0 0 1 6.75-3.94 1.09 1.09 0 0 0 1.43 1.43 3.95 3.95 0 0 0-.22-.32l.45-.35c.07.1.15.2.21.31a1.09 1.09 0 0 0-1.52-1.52Zm1 1.25a.52.52 0 1 1-.73-.74.52.52 0 0 1 .73.74Z" fill="#01FDFE"/><path d="M12.55 6.34a4.46 4.46 0 0 1 .86 3.08 4.47 4.47 0 0 1-6.75 3.34 1.09 1.09 0 1 0-.35.45A5 5 0 0 0 13 6l-.46.35ZM6.03 12.7a.52.52 0 1 1-.73-.73.52.52 0 0 1 .73.73Z" fill="#01FDFE"/><path d="M7.53 7.64c0-.07.02-.14.06-.2.04-.06.1-.11.17-.15a.5.5 0 0 1 .45 0l.31.16.45.23 1.86.97c.07.03.13.08.17.15a.38.38 0 0 1 0 .4.43.43 0 0 1-.17.15l-1.86.96-.45.24-.3.16a.49.49 0 0 1-.16.05h-.08a.5.5 0 0 1-.32-.12.4.4 0 0 1-.1-.13.37.37 0 0 1-.03-.15V7.64Z" fill="url(#cesg4h0sr)"/><defs><linearGradient id="aesg4h0sr" x1="14.17" y1="14.26" x2="5.87" y2="5.91" gradientUnits="userSpaceOnUse"><stop stop-color="#8E40A3"/><stop offset=".65" stop-color="#30BEE0"/><stop offset="1" stop-color="#01FDFE"/></linearGradient><linearGradient id="besg4h0sr" x1="12.2" y1="12.17" x2="11.46" y2="11.5" gradientUnits="userSpaceOnUse"><stop stop-color="#2284C6"/><stop offset="1" stop-color="#2284C6" stop-opacity="0"/></linearGradient><linearGradient id="cesg4h0sr" x1="3102.72" y1="21457" x2="2616.83" y2="21467.2"><stop offset="1" stop-color="#01FDFE"/></linearGradient></defs></svg>