<!-- by TradingView --><svg width="18" height="18" viewBox="0 0 18 18" xmlns="http://www.w3.org/2000/svg"><path fill="#F0F3FA" d="M0 0h18v18H0z"/><circle cx="9" cy="9" r="3.6" fill="url(#a4ac2xg22)"/><path fill-rule="evenodd" d="M7.96 6.16h2.08l.62-.2c.28.18.89.63 1.1.96l-.25.77.3 1.19.65.26c0 .37-.11 1.24-.55 1.8l-.4-.5-1.4 1.19-.28.83c-.14.05-.5.14-.83.14-.33 0-.7-.1-.83-.14l-.26-.79-1.4-1.33-.42.6a6.63 6.63 0 0 1-.55-1.8l.65-.4.3-1.06-.26-.76a3.8 3.8 0 0 1 1.1-.97l.63.21ZM6.61 7.72l-.3 1.09.71.7.92-.24.37-1.23-.53-.67-1.17.35Zm1.29-.41.25-1.01h1.7l.38 1.14-.54.6H8.48L7.9 7.3Zm1.85.87.46 1.15.82.27.65-.65-.3-1.22-1.02-.23-.6.68Zm1.22 1.55-.8-.26-1.03.78-1.24-.83-.92.25-.39.55L8 11.57 9 10.94l.98.61 1.45-1.22-.46-.6Z" fill="url(#b4ac2xg22)"/><path d="m4.76 11.86.44.47.6-.23-.33.52.44.47-.64-.15-.33.52-.07-.61-.65-.15.6-.23-.06-.61Z" fill="url(#c4ac2xg22)"/><path d="m13.2 11.92-.44.47-.6-.23.33.52-.45.47.65-.15.33.52.07-.61.65-.15-.6-.23.06-.61Z" fill="url(#d4ac2xg22)"/><path d="m9 13 .24.76H10l-.62.47.24.76-.62-.46-.61.47.23-.76-.62-.47h.76L9 13Z" fill="url(#e4ac2xg22)"/><path d="m10.85 13 .47.43.59-.25-.3.52.48.43-.66-.11-.3.52-.1-.59-.66-.1.59-.26-.11-.59Z" fill="url(#f4ac2xg22)"/><path d="m7.15 13-.47.43-.59-.25.3.52-.48.43.66-.11.3.52.1-.59.66-.1-.59-.26.11-.59Z" fill="url(#g4ac2xg22)"/><path d="m9 3 .24.76H10l-.62.48.24.76L9 4.53 8.38 5l.24-.76L8 3.76h.76L9 3Z" fill="url(#h4ac2xg22)"/><path d="M3.86 8.32c-.23 0-.38-.23-.43-.35-.43.18-.14 1.05 0 1.23.11.14-.24.64-.43.87.19-.11.63-.28.86 0 .23.28.66.23.85.18V8.5c0-.35-.57-.18-.85-.18Z" fill="url(#i4ac2xg22)"/><path d="M14.14 8.15c.23 0 .38-.23.43-.35.43.17.14 1.05 0 1.22-.11.14.24.64.43.88-.2-.12-.63-.28-.86 0-.23.28-.66.23-.85.17V8.32c0-.35.57-.17.85-.17Z" fill="url(#j4ac2xg22)"/><path d="M9 9.64c-2.85 0-4.39-.65-4.8-.97v1.77c.41.32 1.95.96 4.8.96 2.85 0 4.39-.64 4.8-.96V8.67c-.55.32-1.23.97-4.8.97Z" fill="url(#k4ac2xg22)"/><path d="M5.4 8c0-1.2.87-2.25 2.11-2.71L7.31 5C5.94 5.53 5 6.67 5 8h.4ZM13 8h-.4c0-1.2-.87-2.25-2.11-2.71l.2-.29C12.06 5.53 13 6.67 13 8Z" fill="url(#l4ac2xg22)" fill-opacity=".5"/><path opacity=".6" d="M5.5 10.5V10a12.4 12.4 0 0 0 7 0v.5s-1.1.5-3.5.5-3.5-.5-3.5-.5Z" fill="#73460B"/><defs><linearGradient id="a4ac2xg22" x1="9" y1="5.4" x2="9" y2="12.6" gradientUnits="userSpaceOnUse"><stop stop-color="#F4CD29"/><stop offset=".53" stop-color="#FBF143"/><stop offset="1" stop-color="#D69C1D"/></linearGradient><linearGradient id="b4ac2xg22" x1="6.92" y1="6.24" x2="9.08" y2="12.57" gradientUnits="userSpaceOnUse"><stop stop-color="#DCA313"/><stop offset=".21" stop-color="#E9BF1D"/><stop offset=".37" stop-color="#F6E038"/><stop offset=".65" stop-color="#AF7511"/><stop offset=".88" stop-color="#914E0A"/><stop offset="1" stop-color="#B46E0E"/></linearGradient><linearGradient id="c4ac2xg22" x1="5.57" y1="12.23" x2="4.81" y2="13.08" gradientUnits="userSpaceOnUse"><stop stop-color="#FBE356"/><stop offset="1" stop-color="#F1C444"/></linearGradient><linearGradient id="d4ac2xg22" x1="12.6" y1="12.23" x2="13.35" y2="13.23" gradientUnits="userSpaceOnUse"><stop stop-color="#FBDF49"/><stop offset="1" stop-color="#E4AE23"/></linearGradient><linearGradient id="e4ac2xg22" x1="9" y1="13" x2="9" y2="15" gradientUnits="userSpaceOnUse"><stop stop-color="#FAE560"/><stop offset="1" stop-color="#E4AD22"/></linearGradient><linearGradient id="f4ac2xg22" x1="11.06" y1="13.15" x2="11.64" y2="14.28" gradientUnits="userSpaceOnUse"><stop stop-color="#FBE152"/><stop offset="1" stop-color="#E4AD23"/></linearGradient><linearGradient id="g4ac2xg22" x1="7.11" y1="13.15" x2="6.53" y2="14.28" gradientUnits="userSpaceOnUse"><stop stop-color="#FBE150"/><stop offset="1" stop-color="#E9B735"/></linearGradient><linearGradient id="h4ac2xg22" x1="9" y1="3" x2="9" y2="5" gradientUnits="userSpaceOnUse"><stop stop-color="#FDF16B"/><stop offset="1" stop-color="#F0C32B"/></linearGradient><linearGradient id="i4ac2xg22" x1="3.43" y1="8.85" x2="4.57" y2="8.85" gradientUnits="userSpaceOnUse"><stop stop-color="#E8C64A"/><stop offset="1" stop-color="#B3771E"/></linearGradient><linearGradient id="j4ac2xg22" x1="14.57" y1="8.67" x2="13.43" y2="8.67" gradientUnits="userSpaceOnUse"><stop stop-color="#E8C64A"/><stop offset="1" stop-color="#B3771E"/></linearGradient><linearGradient id="k4ac2xg22" x1="4.2" y1="9.64" x2="13.94" y2="9.75" gradientUnits="userSpaceOnUse"><stop stop-color="#C38519"/><stop offset=".27" stop-color="#ECC849"/><stop offset=".51" stop-color="#FAED86"/><stop offset=".83" stop-color="#E1BA3E"/><stop offset="1" stop-color="#C38317"/></linearGradient><linearGradient id="l4ac2xg22" x1="9" y1="5" x2="9" y2="8" gradientUnits="userSpaceOnUse"><stop stop-color="#FAED85"/><stop offset="1" stop-color="#D3A12C"/></linearGradient></defs></svg>