<!-- by TradingView --><svg xmlns="http://www.w3.org/2000/svg" width="18" height="18"><path fill="#343A4A" d="M0 0h18v18H0z"/><path fill-rule="evenodd" d="M6.22 4.5c-.5 0-.94.35-1.08.86l-1.6 5.58c-.21.78.34 1.56 1.1 1.56h8.72c.75 0 1.3-.75 1.1-1.52L13.07 5.4c-.13-.53-.58-.9-1.1-.9H6.22zm4.46 2.84L6.3 12h6.1c.8 0 1.02-.58.8-1.34L11.96 5.8c-.08-.4-.16-.7-.54-.78a1.2 1.2 0 00-.19.52l-.06.5c-.04.46-.08.82-.34 1.12l-.02.03-.13.15zm.01-1.85v-.01l-5.77 6.14a1.25 1.25 0 01-.1-1l1.46-4.86c.1-.45.28-.76.78-.76h4.07l-.44.49z" fill="#C5CCD4"/></svg>