<!-- by TradingView --><svg width="18" height="18" viewBox="0 0 18 18" xmlns="http://www.w3.org/2000/svg"><path fill="#181B1E" d="M0 0h18v18H0z"/><path fill-rule="evenodd" d="M8.88 14a5.43 5.43 0 0 0 .32 0 5 5 0 0 0 4.79-5.3h-2.03a7.79 7.79 0 0 0-.34-2.05 5.93 5.93 0 0 0 .94-.38c.27.34.49.73.65 1.15l.46-.2a5 5 0 0 0-9.67 2h2.04c.02.74.13 1.44.32 2.06a5.91 5.91 0 0 0-.96.4 4.47 4.47 0 0 1-.64-1.2l-.47.2A5 5 0 0 0 8.88 14Zm-3.1-8.13c.45-.45.98-.81 1.58-1.04a4.04 4.04 0 0 0-.8 1.34 5.47 5.47 0 0 1-.77-.3Zm1.53-.1c-.09.17-.18.35-.25.53.51.12 1.08.2 1.68.21V4.54c-.52.1-1.02.53-1.43 1.23Zm-1.79.54c.26.13.55.25.86.34-.2.62-.31 1.3-.34 2.04H4.52c.06-.91.4-1.74.92-2.42l.08.04Zm1.36.48c-.18.57-.3 1.21-.32 1.9h2.18V7.03c-.66-.02-1.29-.1-1.86-.24Zm-.32 2.43c.02.7.12 1.35.3 1.92a9 9 0 0 1 1.88-.24V9.22H6.56Zm-.8 2.86c.23-.11.49-.22.77-.3a5.41 5.41 0 0 0 .83 1.4 4.5 4.5 0 0 1-1.62-1.1h.02Zm1.55.14c.4.7.9 1.13 1.43 1.24v-2.04a8.5 8.5 0 0 0-1.7.22c.08.2.17.4.27.58Zm3.83.26c-.15.26-.31.5-.5.7a4.5 4.5 0 0 0 1.62-1.1h-.02a5.4 5.4 0 0 0-.77-.3c-.1.25-.21.48-.33.7Zm-.45-.26c.1-.18.2-.37.28-.58a8.5 8.5 0 0 0-1.71-.22v2.04c.52-.1 1.02-.53 1.43-1.24Zm1.79-.6a5.91 5.91 0 0 0-.84-.34c.19-.62.3-1.32.32-2.06h1.53a4.44 4.44 0 0 1-.9 2.46 4.9 4.9 0 0 0-.11-.06Zm-1.34-.48c.18-.57.28-1.22.3-1.92H9.26v1.68a9 9 0 0 1 1.88.24Zm.3-2.45a7.26 7.26 0 0 0-.32-1.9c-.57.14-1.2.22-1.86.24v1.66h2.18ZM9.26 6.51c.6-.01 1.17-.09 1.68-.2a4.78 4.78 0 0 0-.25-.54c-.4-.7-.9-1.12-1.43-1.23v1.97Zm1.88-1c.11.21.21.43.3.66.29-.09.54-.2.77-.3a4.5 4.5 0 0 0-1.57-1.04c.19.2.35.43.5.69Z" fill="#fff"/></svg>