<!-- by TradingView --><svg width="18" height="18" viewBox="0 0 18 18" xmlns="http://www.w3.org/2000/svg"><path fill="#F0F3FA" d="M0 0h18v18H0z"/><path d="m7.7 15-1.6-1.15 3.75-4.44a.57.57 0 0 0-.12-.83L6.61 6.32l1.24-1.47 3.13 2.25a2.34 2.34 0 0 1 .46 3.46L7.7 15Z" fill="url(#acrbu31cb)"/><path d="m7.2 11.86-1.17-.82v-.01a2.34 2.34 0 0 1-.47-3.46L9.42 3 11 4.15 7.15 8.72a.57.57 0 0 0 .11.84l1.16.82-1.22 1.48Z" fill="url(#bcrbu31cb)"/><defs><linearGradient id="acrbu31cb" x1="10.01" y1="15" x2="9.19" y2="4.38" gradientUnits="userSpaceOnUse"><stop stop-color="#68FBE9"/><stop offset=".54" stop-color="#3AA1FF"/><stop offset=".98" stop-color="#001290"/></linearGradient><linearGradient id="bcrbu31cb" x1="8.4" y1="1.88" x2="6.7" y2="10.32" gradientUnits="userSpaceOnUse"><stop stop-color="#FFA72B"/><stop offset=".38" stop-color="#F8E048"/><stop offset=".98" stop-color="#A9A9FF"/></linearGradient></defs></svg>