<!-- by TradingView --><svg xmlns="http://www.w3.org/2000/svg" width="18" height="18"><path fill="#F0F3FA" d="M0 0h18v18H0z"/><circle cx="9" cy="9" r="6" fill="#1D1D3F"/><path fill-rule="evenodd" d="M9 14.25a5.25 5.25 0 100-10.5 5.25 5.25 0 000 10.5zm0-.38a4.87 4.87 0 100-9.75 4.87 4.87 0 000 9.75z" fill="url(#agjosnkj2)"/><path d="M10.26 4.78a4.21 4.21 0 00-4.67 1.43c-4.74 6.06 6.01 6.71 6.9 5.23.43-.74.34-5.96-2.23-6.66z" fill="url(#bgjosnkj2)"/><path d="M11 7H7v4h4V9.75H9v-1.5h2V7z" fill="#fff"/><defs><linearGradient id="agjosnkj2" x1="13.12" y1="12.08" x2="5.6" y2="4.85" gradientUnits="userSpaceOnUse"><stop stop-color="#9F42E9"/><stop offset=".82" stop-color="#9F42E9" stop-opacity="0"/></linearGradient><linearGradient id="bgjosnkj2" x1="5.13" y1="7.08" x2="11.81" y2="9.37" gradientUnits="userSpaceOnUse"><stop stop-color="#717286"/><stop offset="1" stop-color="#717286" stop-opacity="0"/></linearGradient></defs></svg>