<!-- by TradingView --><svg width="18" height="18" viewBox="0 0 18 18" xmlns="http://www.w3.org/2000/svg"><path fill="url(#a)" d="M0 0h18v18H0z"/><path d="M8.99 5a.52.52 0 0 0-.03.23h-.1c-.01 0-.02.01-.02.03v5.33c0 .02 0 .02.02.03h.09v.23a2.18 2.18 0 0 1-.66-.14l.08-.2.21.06h.02a.03.03 0 0 0 .02 0V5.28a.02.02 0 0 0 0-.02.02.02 0 0 0-.03 0l-.41.16-.2-.14c.3-.19.64-.28 1-.29Z" fill="#B1835D"/><path d="m10.07 5.3-.07.23a1.95 1.95 0 0 0-.6-.26.02.02 0 0 0 0 .02v5.26a.03.03 0 0 0 .01.03h.01c.3-.09.57-.23.8-.44l.1.2a2 2 0 0 1-1.37.5v-.22h.2l.02-.03V5.25l-.02-.02h-.2c0-.07 0-.15.04-.23.39 0 .75.1 1.08.3Z" fill="#B8D86D"/><path d="m7.97 5.3.2.13a1.7 1.7 0 0 0-.68.67.02.02 0 0 0 .01.01h.01l.58.01c.07 0 .1.04.1.1v.01c0 .07-.03.1-.1.1H7.4c-.01 0-.02 0-.03.02a2.37 2.37 0 0 0-.1.9h.83c.06 0 .09.02.1.08v.03c0 .07-.04.1-.1.1h-.83l-.02.02v.89h.02l.82.01c.07 0 .1.04.1.1v.01c0 .07-.03.1-.1.1h-.82l-.01.01v.01c-.03.29 0 .57.08.85.01.03.04.05.07.05h.68c.07 0 .1.04.1.1 0 .08-.03.11-.1.11h-.58a.02.02 0 0 0-.02.02.02.02 0 0 0 0 .02c.2.35.5.6.88.74l-.08.21a1.96 1.96 0 0 1-1.26-1.78l-.02-.01h-.27v.02c0 .8.46 1.53 1.17 1.92a.68.68 0 0 0-.1.2 2.48 2.48 0 0 1-1.3-2.33l.03-.02a72.61 72.61 0 0 0 .5-.03l-.04-.01V6.83c0-.23.1-.49.24-.75.17-.33.42-.6.73-.79Z" fill="#9AA953"/><path d="m10.22 11.04-.1-.18c.7-.4 1.15-1.12 1.16-1.93 0-.01 0-.02-.02-.02h-.28v.02a1.94 1.94 0 0 1-.66 1.42l-.1-.2a1.77 1.77 0 0 0 .3-.42h-.6c-.07 0-.1-.04-.1-.11-.01-.08.03-.11.1-.11h.7c.02 0 .03-.01.04-.03a2.17 2.17 0 0 0 .09-.87l-.02-.01h-.8c-.08 0-.12-.03-.12-.1v-.02c0-.07.04-.1.11-.1H10.75l.01-.03v-.86a.03.03 0 0 0 0-.02.03.03 0 0 0-.03 0h-.8c-.08 0-.12-.03-.12-.11s.04-.12.12-.12H10.75v-.01a2.19 2.19 0 0 0-.1-.89h-.73c-.08 0-.11-.04-.1-.11 0-.08.03-.11.1-.11h.6a.02.02 0 0 0 0-.01V6.1a1.8 1.8 0 0 0-.52-.57l.07-.22c.47.31.75.73.86 1.25a4 4 0 0 1 .07.8l-.02 1.3c.02 0 0 0 0 0a.04.04 0 0 0 .04.03h.41c.04 0 .06.02.06.05a2.47 2.47 0 0 1-1.27 2.3Z" fill="#E98D5F"/><path d="m10.11 10.86.11.18a2.43 2.43 0 0 1-.83.3v.64l.01.03h.52c.27 0 .45.1.53.32.06.16.04.42.03.58 0 .03 0 .05-.02.06a.09.09 0 0 1-.07.03H8.95v-.22h1.29a.03.03 0 0 0 .02-.03c0-.23.04-.52-.3-.52H9L8.95 12h.18c.02 0 .03-.01.03-.03v-.62h-.19l.02-.22c.4 0 .77-.1 1.12-.28Z" fill="#D6D95E"/><path d="M7.9 10.86c.35.19.7.28 1.09.28l-.02.21h-.1l-.01.03v.6l.01.03h.08l.04.22h-.94c-.33 0-.3.3-.3.52v.02h1.21l-.01.23H7.62a.09.09 0 0 1-.09-.08v-.33c-.01-.24.06-.4.25-.52.06-.04.19-.06.37-.06h.45c.02 0 .03 0 .03-.03v-.64l-.03-.01a2.55 2.55 0 0 1-.79-.27.68.68 0 0 1 .1-.2ZM9.06 3l-.13.02-.02.02v.14c-.3.02-.63.04-.91.1-1.27.22-2.34.8-3.24 1.74a.2.2 0 0 0-.15-.1A6 6 0 0 1 9.06 3Z" fill="#AA8C5D"/><path d="m13.26 4.77-.14.12a5.86 5.86 0 0 0-4.2-1.71.32.32 0 0 1 0-.14l.01-.02.13-.02a6.01 6.01 0 0 1 4.2 1.77Z" fill="#DFCB5E"/><path d="m13.31 13.17-.2-.04.2-.22a5.8 5.8 0 0 0-.2-8.02l.15-.12a6 6 0 0 1 .05 8.4Z" fill="#D94F71"/><path d="M4.76 5.02a5.74 5.74 0 0 0-1.49 4.95 5.69 5.69 0 0 0 2.17 3.63 5.84 5.84 0 0 0 3.63 1.22l-.14.01c-.01 0-.02 0-.02.02l.01.15h-.18A6 6 0 0 1 4.6 4.9a.2.2 0 0 1 .15.1Z" fill="#9AA953"/><path d="M13.31 13.17A5.94 5.94 0 0 1 8.92 15a.34.34 0 0 1-.01-.15c0-.01 0-.02.02-.02h.14a5.95 5.95 0 0 0 4.04-1.7l.2.04Z" fill="#DFCB5E"/><defs><linearGradient id="a" x1="3.35" y1="3.12" x2="21.9" y2="24.43" gradientUnits="userSpaceOnUse"><stop stop-color="#1A1E21"/><stop offset="1" stop-color="#06060A"/></linearGradient></defs></svg>