<!-- by TradingView --><svg width="18" height="18" viewBox="0 0 18 18" xmlns="http://www.w3.org/2000/svg"><path fill="url(#a)" d="M0 0h18v18H0z"/><path d="M10.3 7.63a4.17 4.17 0 0 1-3.07 2.8c-.21.04-.47.1-.77.14a1.73 1.73 0 1 0 1.97 2c.05-.4.14-.8.27-1.2a4.17 4.17 0 0 1 3.07-2.8c.21-.04.47-.1.77-.14a1.73 1.73 0 1 0-1.97-2c-.05.4-.14.8-.27 1.2Zm-1.84-.9a1.73 1.73 0 1 1-3.46 0 1.73 1.73 0 0 1 3.46 0Z" fill="#fff"/><defs><linearGradient id="a" x1="3.35" y1="3.12" x2="21.9" y2="24.43" gradientUnits="userSpaceOnUse"><stop stop-color="#1A1E21"/><stop offset="1" stop-color="#06060A"/></linearGradient></defs></svg>