<!-- by TradingView --><svg width="18" height="18" viewBox="0 0 18 18" xmlns="http://www.w3.org/2000/svg"><path fill="#F0F3FA" d="M0 0h18v18H0z"/><path d="M8.95 3a.32.32 0 0 0-.25.25.44.44 0 0 0 0 .16c.02.06.04.1.09.15.07.08.13.1.23.1a.3.3 0 0 0 .09-.02.34.34 0 0 0 .17-.46.32.32 0 0 0-.23-.17h-.1ZM8.7 3.88l-.14.08-.14.09-.14.09-.11.07-.2.12a10.6 10.6 0 0 0-.83.54 41.8 41.8 0 0 1 .74.44l.1-.06.17-.1.16-.1.19-.1c.1-.07.13-.1.27-.18l.05-.03V3.8l-.12.07ZM9.2 4.27v.47l.07.05a12.66 12.66 0 0 0 .71.42l.2.13.14.09v1.36l.06.04a18.78 18.78 0 0 0 1.01.6l.06.04V8.6l.32-.18.35-.22.1-.06V7.01l-.07-.04-.16-.1-.28-.16-.21-.13a5.36 5.36 0 0 1-.32-.2l-.1-.05V4.95L11 4.91a5.32 5.32 0 0 1-.27-.17l-.14-.08c-.06-.04-.14-.09-.18-.1l-.15-.1a9.3 9.3 0 0 0-.6-.37l-.13-.08a192.89 192.89 0 0 1-.33-.2v.46Z"/><path d="M6.7 5.1a26.22 26.22 0 0 1-1.14.69 157.74 157.74 0 0 0-.7.43l.1.06.27.17.38.22c.01 0 .2-.1.3-.17l.14-.08a53.3 53.3 0 0 0 .7-.42l.42.26.28.16.15.1.28.15.1-.04.25-.16.11-.07.14-.08a7.7 7.7 0 0 0 .27-.17L9.01 6s.19.1.27.16a16.3 16.3 0 0 0 .68.4v-.92l-.08-.04-.43-.27-.19-.1-.17-.1-.08-.06-.08.05a22.88 22.88 0 0 1-.79.47l-.26.16a6.73 6.73 0 0 1-.42-.25l-.4-.24a6.67 6.67 0 0 1-.31-.2l-.04.03ZM11.45 5.64v.46l.06.04.76.47.09.04.04.02.22-.12a94.14 94.14 0 0 1 .54-.33 16.65 16.65 0 0 0-1.13-.7 60.4 60.4 0 0 0-.58-.34v.46ZM4.23 5.85a.32.32 0 0 0-.14.08.32.32 0 0 0-.09.22c0 .06 0 .1.03.16.04.08.13.15.21.18h.15c.1-.04.2-.13.22-.23.05-.18-.05-.37-.22-.41a.4.4 0 0 0-.16 0ZM13.6 5.85a.34.34 0 0 0-.16.1c-.1.14-.1.33.02.45.07.06.14.1.22.1.06 0 .1-.01.15-.04a.33.33 0 0 0-.06-.6.46.46 0 0 0-.16-.01Z"/><path d="M6.68 6.48a7.19 7.19 0 0 1-.2.12l-.12.07a6.13 6.13 0 0 0-.47.29l-.1.05v1.36l-.01.01-.33.2-.18.11a17.67 17.67 0 0 1-.5.3l-.1.07v2.29a3.87 3.87 0 0 0 .32-.19l.14-.08.2-.13.1-.05V9.52l.07-.04a34.56 34.56 0 0 0 .47-.28l.1-.07.12-.06.1-.07.18-.1.1-.06V7.46l.09-.04a3.75 3.75 0 0 0 .38-.24 1295.33 1295.33 0 0 0 .47-.28l-.12-.07-.16-.1a28.3 28.3 0 0 0-.48-.3l-.07.05Z"/><path d="M4.67 7.58v1.04l.02-.02.12-.07.58-.34.04-.03V7l-.08-.05a5.5 5.5 0 0 1-.13-.07l-.07-.05c-.02 0-.06-.04-.1-.06l-.12-.07-.17-.1a1.53 1.53 0 0 0-.09-.06v1.03ZM13.27 6.6l-.6.35-.08.05v1.37l-.03.02-.5.3-.37.22-.22.13-.03.02v1.36l-.05.04a6.35 6.35 0 0 1-.65.4l-.19.11c-.05.03-.05.03-.03.04l.23.14.14.09.15.09.18.1.06.04a20.02 20.02 0 0 0 .28-.18l.21-.13.25-.15.16-.1.03-.01V9.52l.06-.03.5-.3.49-.3.1-.05V7.7l-.01-1.15-.08.04ZM7.31 7.84v.6H8v-.02l.03-.4.01-.1h1.92V8l.04.43v.02h.69V7.24H7.31v.6ZM7.96 9v.34h2.09v-.68H7.95V9ZM6.43 9.36l-.18.11-.14.09-.14.08-.1.07-.07.04v1.15l.1.05a6.15 6.15 0 0 1 .29.17l.17.1.1.08.15.08.31.19v1.38l.1.05.12.07.1.06a23.39 23.39 0 0 1 .73.44l.28.18.09.05.18.11c.06.04.13.08.14.1l.1.04c.02.03.05.04.06.04v-.92l-.1-.07a14.5 14.5 0 0 0-.16-.1l-.32-.2-.12-.07a4.37 4.37 0 0 0-.33-.2l-.1-.05V11.1l-.05-.03c-.03-.02-.1-.07-.18-.1l-.42-.26a8.63 8.63 0 0 1-.4-.25l-.07-.04V9.28l-.14.08Z"/><path d="m13.29 9.31-.57.35-.08.05-.05.04v1.15l.04.02.08.05.12.07.22.13.2.13.1.05V9.28l-.06.03ZM7.31 10.16v.61h3.38V9.56H10V9.63l-.02.13-.01.18-.01.12v.03H8.04v-.12L8 9.71 8 9.56H7.3v.6ZM5.59 11.24l-.63.38c-.1.06-.12.07-.1.07l.07.05a153.9 153.9 0 0 0 1.63.98v-.92l-.08-.05-.86-.52-.03.01ZM10.11 11.24l-.27.16a19.53 19.53 0 0 0-.84.5l-.26-.15a11.66 11.66 0 0 0-.66-.41l-.02-.01V12.26l.1.06a6.67 6.67 0 0 0 .36.22l.13.08.3.18.05.04.03-.02a7.32 7.32 0 0 0 .3-.18 16.8 16.8 0 0 0 .8-.49l.15.09c.08.05.15.1.17.1l.26.16.5.3.06.04.09-.06a22.5 22.5 0 0 1 .77-.46 34.36 34.36 0 0 0 1.04-.63l-.06-.04-.2-.12c-.32-.2-.35-.22-.44-.26l-.07-.04-.1.05a6.76 6.76 0 0 0-.38.23l-.23.14-.12.08-.1.05-.2.12c-.01 0-.19-.1-.34-.2l-.17-.1-.05-.03-.56-.33-.02-.01-.02.01ZM4.26 11.51a.32.32 0 0 0-.23.19.31.31 0 0 0-.03.16c0 .09.04.15.1.21.04.05.1.08.15.1.04 0 .12 0 .16-.02.1-.03.17-.12.2-.22a.39.39 0 0 0 0-.19.32.32 0 0 0-.35-.23ZM13.64 11.51a.33.33 0 0 0-.27.33c0 .15.1.28.24.32.06.01.13 0 .19-.01.1-.05.17-.14.2-.25a.32.32 0 0 0-.35-.4Z"/><path d="m10.12 12.6-.85.51-.08.06v.92l.07-.03.12-.08.14-.08a14.64 14.64 0 0 0 .26-.16l.13-.08a11.46 11.46 0 0 1 .62-.38l.17-.1a13.05 13.05 0 0 1 .2-.13l-.07-.04-.12-.07-.1-.07-.12-.07-.12-.07a4.2 4.2 0 0 0-.12-.07l-.08-.05a.54.54 0 0 0-.04-.02ZM8.93 14.35c-.1.02-.2.1-.23.21a.47.47 0 0 0 0 .18c.01.1.08.18.16.23.1.04.18.04.28 0a.33.33 0 0 0 .16-.23.4.4 0 0 0 0-.18.31.31 0 0 0-.36-.21Z"/></svg>