<!-- by TradingView --><svg width="18" height="18" viewBox="0 0 18 18" xmlns="http://www.w3.org/2000/svg"><path fill="url(#a)" d="M0 0h18v18H0z"/><path d="M9.85 3.06c-.18.04-.34.12-.47.22a5.78 5.78 0 0 0-4.1 1.35l-.15-.24a6.01 6.01 0 0 1 4.72-1.33Z" fill="#970C4F"/><path d="M9.85 3.06A5.73 5.73 0 0 1 14 5.61l-.11.35-.43-.58a5.56 5.56 0 0 0-4.08-2.1c.13-.1.29-.18.47-.22Z" fill="#43083F"/><path d="M9.38 3.28c1.67.12 3.03.82 4.08 2.1a.2.2 0 0 1 0 .06c0 .03 0 .04-.03.05h-.04l-.09-.1a5.25 5.25 0 0 0-3.37-1.88 5.52 5.52 0 0 0-6.26 3.82l-.08-.15c.33-.99.9-1.84 1.7-2.55a5.78 5.78 0 0 1 4.1-1.35Z" fill="#F2F2F4"/><path d="m9.93 3.51-.77.32-.72.06c-.07 0-.07.02-.01.04.05.02.13.02.21.01l-.44.03a.11.11 0 0 0-.1.07c-.1.22-.44.26-.64.32a.23.23 0 0 1-.13 0 1.07 1.07 0 0 0-.39-.04 10.8 10.8 0 0 1 .87-.33v-.03c0-.03 0-.04-.03-.03-.72.14-1.37.46-1.94.96a.73.73 0 0 1-.24.4c-.03.02-.05.03-.08.03s-.06 0-.08-.02c-.04-.03-.04-.06 0-.1l.27-.28.01-.03-.02-.05c-.01-.02-.03-.02-.04 0l-.5.5-.03-.01c-.14-.03-.22-.06-.25-.12a5.52 5.52 0 0 1 5.05-1.7Z" fill="#762E5F"/><path d="M9.93 3.51c1.32.18 2.45.8 3.37 1.89l-.24.03c-.06-.14-.15-.17-.27-.1v-.05a.13.13 0 0 0-.05-.1c-.18-.12-.25-.39-.5-.3a4.89 4.89 0 0 0-1.99-.96c-.04-.01-.05 0-.05.04v.05l.01.02c.3.05.57.14.82.28-.15.13-.31.17-.47.1-.33-.15-.55-.17-.67-.08l-.43-.07c-.03 0-.05 0-.06.03a.1.1 0 0 0-.02.04c0 .04.01.07.05.09.18.11.39.19.62.23l-.03.02-.02.03v.03l.03.03a.84.84 0 0 0-.45-.04l-.2.05c-.04.01-.04.03-.02.06l.05.04c-.04.05-.09.03-.14-.05a.14.14 0 0 0-.1-.07.56.56 0 0 0-.37.06c.04-.1 0-.16-.13-.15-1 .07-1.86.43-2.6 1.1l-.21.03v-.14a.1.1 0 0 0-.08-.13.1.1 0 0 0-.06.01c-.22.12-.4.05-.55-.2l.49-.5c.01-.01.03-.01.04.01l.02.05v.03l-.29.28c-.03.04-.03.07.01.1l.08.02c.03 0 .05-.01.08-.04a.73.73 0 0 0 .24-.4l1.1-.56c.14-.01.26 0 .39.04h.13c.2-.06.54-.1.65-.32a.11.11 0 0 1 .1-.07l.43-.03c.16 0 .33 0 .49.02.04.01.07 0 .09-.01.02-.03 0-.07-.06-.12l.77-.32Z" fill="#591351"/><path d="M9.16 3.83c.06.05.08.09.06.12-.02.01-.05.02-.1.01a2.35 2.35 0 0 0-.48-.02.46.46 0 0 1-.21-.01c-.06-.02-.06-.04 0-.04l.73-.06Z" fill="#604A7E"/><path d="M12.23 4.87v.06c-.01.05-.04.06-.08.04l-1.12-.66a2.57 2.57 0 0 0-.82-.28L10.2 4v-.05c0-.04.01-.05.05-.04.73.16 1.4.48 1.98.95Z" fill="#DB8FC6"/><path d="m11.03 4.31 1.12.66c.04.02.07 0 .08-.04v-.06c.26-.08.33.19.5.3.04.03.06.07.07.1l-.01.07c-.07.14-.17.24-.3.28a.17.17 0 0 1-.12 0c-.07-.04-.15-.03-.24.02-.05-.01-.09-.04-.1-.08a.29.29 0 0 0 .1-.13c0-.05-.01-.08-.06-.1-.27-.06-.36-.36-.61-.43-.3-.08-.34 0-.13.22.09.1.22.17.4.2l.08.05c.02.03.02.07 0 .1l-.14.06a3.72 3.72 0 0 0-1.64-.77.43.43 0 0 1-.02-.03v-.06l.04-.02a.36.36 0 0 1 .11-.02c.04 0 .07.01.1.04.17.12.35.15.53.09.1-.04.1-.07 0-.11l-.9-.32c.12-.1.34-.07.67.08.16.07.32.03.47-.1Z" fill="#43083F"/><path d="m9.9 4.33.9.32c.1.04.1.07 0 .1a.53.53 0 0 1-.53-.08.18.18 0 0 0-.1-.04c-.04 0-.08 0-.12.02a1.65 1.65 0 0 1-.62-.23.08.08 0 0 1-.05-.1l.02-.03a.06.06 0 0 1 .06-.03l.44.07ZM7.68 4.57l-.02.07a.1.1 0 0 1-.08.08l-.76.22a.16.16 0 0 0-.11.12l-.02.06a.07.07 0 0 1-.11.03.07.07 0 0 1-.02-.04c-.02-.1.01-.17.1-.22.3-.15.81-.34 1.5-.56.17-.05.31-.05.44.01a.04.04 0 0 1 .03.04.05.05 0 0 1-.03.04c-.2.13-.44.2-.7.2a.12.12 0 0 1-.1-.03l-.02-.04a.06.06 0 0 0-.1.02Z" fill="#C020A4"/><path d="m5.13 4.39.15.24A5.78 5.78 0 0 0 3.6 7.18c0 .06-.02.1-.06.1l-.15-.38a5.9 5.9 0 0 1 1.75-2.51Z" fill="#591351"/><path d="M8.8 4.81a4.18 4.18 0 0 0-3.77 2.77c-.04.02-.07.03-.09.02-.04-.01-.06-.04-.06-.08a4 4 0 0 1 1.19-1.76 4.22 4.22 0 0 1 2.6-1.1c.13 0 .17.04.13.15ZM10.03 4.76c.6.12 1.15.38 1.64.77l.68.65-.03.19a4.24 4.24 0 0 0-2.6-1.5c-.12-.04-.17-.1-.14-.15a.83.83 0 0 1 .45.04Z" fill="#B5B0C7"/><path d="M9.4 4.87h.32c1.1.16 1.83.69 2.6 1.5a4.23 4.23 0 0 1 .18 4.89c-.02.04 0 .1.08.18l.02.04v.04l-.02.02h-.03a.67.67 0 0 0-.18-.06c-.05-.01-.09 0-.11.05a.1.1 0 0 0 0 .08 4.36 4.36 0 0 1-2.95 1.51c-.34.04-.54.13-.6.27a.17.17 0 0 1-.03.06.2.2 0 0 1-.07.04l-.2-.08a.1.1 0 0 1-.07-.1c0-.06.02-.1.07-.1.1 0 .2-.02.3-.09.1-.01.15-.08.17-.2.02-.13.07-.3 0-.45-.02-.06-.03-.1 0-.13.02-.02.07-.04.14-.05.44-.13.35-.54.34-.87a.12.12 0 0 0-.08-.11h-.05c-.13 0-.21 0-.24-.04-.12-.17-.09-.23.11-.19.38.09.73-.03 1.06-.33.4-.37.63-.66.69-.86l.06-.25c.05-.25.13-.43.14-.65.03-.46-.1-.87-.39-1.22a.87.87 0 0 0-.25-.32 1.1 1.1 0 0 0-.36-.26c-.4-.3-.78-.2-1.18-.29.03-.09.14-.13.31-.12.12 0 .18-.05.18-.17v-.9a.07.07 0 0 0-.08-.07l-.04.01-.44.32v-.24l.2-.07c0-.14.05-.26.13-.38.03-.04.02-.07-.03-.09a1.2 1.2 0 0 0-.43-.06c-.26 0-.38.1-.35.33 0 .05.03.09.06.12l.09.09c.03.03.05.08.03.13a2.4 2.4 0 0 0-.04.82c0 .04.03.07.08.08l.21.03c-.01.03 0 .1.02.2l-1.09-.01a.28.28 0 0 1 .05-.08.11.11 0 0 1 .07-.03 7 7 0 0 0 .36-.05c.04-.01.07-.04.07-.09v-.82l-.01-.15c0-.05-.03-.06-.08-.03l-.54.4c-.05.26-.06.54-.01.85l-.44.04-.06 1.47a.94.94 0 0 1-.43.01c-.04 0-.07-.04-.07-.08 0-.11.03-.21.07-.31.07-.07.1-.17.07-.3.04-.03.06-.03.06 0 .08-.38.07-.72-.04-1.04.03.01.05 0 .06-.05.15.03.3.04.44.02a.1.1 0 0 0 .1-.07.62.62 0 0 0 0-.4c.03-.1.01-.16-.07-.16.14-.22.18-.38.12-.5-.03-.04-.06-.04-.1-.02l-.27.18a.1.1 0 0 0-.05.09v.13s0 .02-.02.02a.12.12 0 0 1-.04.02H6.9l-.02-.02c-.06-.1-.13-.1-.23-.05-.18.1-.4.27-.64.5-.11.1-.2.25-.28.46-.07.22-.17.39-.29.51-.12.14-.09.18.09.13l.1-.1a.07.07 0 0 1 .07-.02l.05.02c.01 0 .02 0 .01.02a.85.85 0 0 1-.53.45.11.11 0 0 0-.08.1c0 .09.05.16.16.22.07.04.07.08 0 .13-.11.08-.22.24-.32.46-.02.05-.02.08.02.12.05.05.12.08.2.08.03 0 .06-.02.08-.04.03-.02.05-.05.06-.1 0-.01 0-.02.02-.03l.03-.01c.05 0 .07.01.09.06.02.1.02.2 0 .3-.03.06 0 .1.1.14a.23.23 0 0 0 0 .21c.03.08.1.08.22.01.1.01.15.07.15.18 0 .05-.04.08-.09.08l-.08.01c-.05.02-.06.06-.05.1.26.92.78 1.59 1.56 2.02.04.02.07 0 .08-.04a.8.8 0 0 0 0-.33c0-.06-.04-.08-.09-.07-.3.04-.45-.06-.44-.32.01-.55 0-.95-.06-1.22L6.6 8.65c-.01-.06.02-.09.08-.09h.27a.08.08 0 0 1 .08.08l.06 2.43.36.05a.16.16 0 0 1 .14.17v.69c0 .04.02.07.05.1.13.1.24.17.35.2.03.02.06 0 .07-.03l.13-.38a.63.63 0 0 0 .03-.32.31.31 0 0 0-.13-.22l-.25-.06c-.03 0-.05-.02-.05-.06l.01-.05a.07.07 0 0 1 .05-.03c.29-.05.58-.05.89.01 0 .18-.08.29-.2.31-.04.01-.07.04-.07.08v.87l.01.15c.04.13 0 .17-.1.13-.4-.22-.73-.1-1.11-.26-.04-.01-.06 0-.06.04v.07c0 .03.01.06.04.07.29.14.6.2.96.18a1.3 1.3 0 0 0-.61.07 4.08 4.08 0 0 1-1.88-1.34.17.17 0 0 0-.08-.05c-.07-.02-.1-.06-.1-.12a.29.29 0 0 0-.05-.13 3.75 3.75 0 0 1-.58-1.53c-.03-.22.02-.25.15-.06.02.03.1.03.25-.01.04-.01.06-.05.06-.1-.02-.21-.14-.34-.35-.38-.09-.02-.1 0-.03.07l.24.25v.03l-.02.03h-.05a.34.34 0 0 0-.17-.1.14.14 0 0 1-.13-.14c0-.3.01-.62.04-.97.02-.25.18-.44.14-.72A4.18 4.18 0 0 1 8.8 4.81a.56.56 0 0 1 .37-.06c.05.01.08.03.1.07.05.08.1.1.14.05Z" fill="#0D0828"/><path d="M9.58 4.72c-.03.06.02.1.14.15H9.4l-.05-.04c-.02-.03-.02-.05.02-.06l.2-.05Z" fill="#696868"/><path d="M12.03 5.56c-.06.07-.14.04-.21-.08.01-.04 0-.08-.01-.1-.02-.03-.04-.04-.08-.05a.77.77 0 0 1-.4-.2c-.21-.23-.17-.3.13-.23.26.07.34.37.61.44.05.01.06.04.05.09a.29.29 0 0 1-.09.13Z" fill="#C020A4"/><path d="M9 5.66c-.03-.08-.08-.1-.15-.09a.13.13 0 0 0-.1.1c0 .02.02.04.06.06l-.01.24-.05.76-.21-.03c-.05-.01-.07-.04-.08-.08a2.4 2.4 0 0 1 .04-.82c.02-.05 0-.1-.03-.13l-.09-.09a.21.21 0 0 1-.06-.12c-.03-.22.09-.33.35-.33.18 0 .32.02.43.06.05.02.06.05.03.1a.65.65 0 0 0-.13.37ZM11.82 6.15h-.04c-.03 0-.05.03-.05.06.03.3.12.38.26.27.08.08.04.15-.1.23a.09.09 0 0 0-.04.07.09.09 0 0 0 .02.08c.06.05.12.08.2.09.04 0 .07-.01.09-.06a.18.18 0 0 1 .07-.09c.05-.02.08-.01.1.03l.16.28a.7.7 0 0 0-.22.22c-.19-.3-.3-.3-.33 0a3.1 3.1 0 0 0-1.97-1.6c-.18-.04-.26-.03-.26.05.02 0 .01.03-.02.06-.03-.09.01-.14.12-.16.04-.01.05-.03.03-.06l-.16-.33c-.02-.05 0-.08.05-.1.2-.04.33-.01.4.09.03.04.07.05.12.04.25-.06.58-.05.8.18.07.07.18.15.33.24a.12.12 0 0 1 .06.08.13.13 0 0 1-.02.1c-.07.09-.1.15-.1.2.01.05.03.09.06.1a1 1 0 0 1 .26.2.04.04 0 0 0 .07-.02c0-.23.03-.31.11-.25Z" fill="#294250"/><path d="M4.88 5.21c.03.06.11.1.25.12h-.12a.07.07 0 0 0-.06.06.07.07 0 0 0 .02.07l.54.46a.12.12 0 0 0 .1.03.46.46 0 0 0 .25-.16l.2-.03a4 4 0 0 0-1.18 1.76l-.09.35c-.02-.14-.06-.2-.12-.18.07-.19.04-.29-.07-.3.06-.06.1-.17.1-.33 0 .09.03.13.06.14.06.02.1.02.13-.01.03-.04.03-.08 0-.12-.05-.04-.1-.05-.17-.02.07-.08.1-.17.07-.27-.01-.04-.02-.07-.01-.08.01-.04.04-.06.07-.06.06 0 .07-.03.04-.08-.07-.1-.04-.23.09-.37a.12.12 0 0 1 .05-.04h.06l.26.06c.24.05.26 0 .07-.15l-.32-.27c-.04-.02-.06-.02-.08.02-.19.45-.48.75-.87.9a.14.14 0 0 0-.09.1.86.86 0 0 0-.01.44.33.33 0 0 0-.1.13c-.02.06 0 .08.06.06l.13-.06c-.04.11-.16.16-.35.15a.07.07 0 0 0-.07.04v.66a.07.07 0 0 0 .06.07h.15c.13 0 .2.07.2.2 0 .25-.08.42-.27.53-.04.02-.07 0-.09-.04a.94.94 0 0 1-.01-.42.14.14 0 0 0-.04-.13l-.06-.05a.04.04 0 0 0-.07.03c0 .12-.04.25-.09.38l.17-1.47c.25-.8.66-1.5 1.21-2.12Z" fill="#622B6A"/><path d="m13.06 5.43-.47.4a.18.18 0 0 1-.11.04c-.2 0-.32-.07-.35-.23.09-.05.17-.06.24-.03.04.02.09.02.13 0 .12-.03.22-.13.29-.27.12-.08.21-.05.27.1Z" fill="#9E4DD4"/><path d="M5.13 5.33h.04c.15.25.33.32.55.2a.1.1 0 0 1 .14.07.1.1 0 0 1 0 .05.4.4 0 0 0 0 .14.46.46 0 0 1-.25.16.12.12 0 0 1-.1-.03l-.54-.46A.07.07 0 0 1 5 5.34l.12-.01Z" fill="#C020A4"/><path d="M13.89 5.96c.75 1.23 1 2.57.74 4 0-.23-.05-.33-.16-.3l.03-.44a10.9 10.9 0 0 0-.21-1.76c-.05-.24-.15-.34-.19-.54a1.54 1.54 0 0 0-.14-.4 10.9 10.9 0 0 0-.57-1.03h.04c.02 0 .03-.02.03-.05a.2.2 0 0 0 0-.06l.43.58Z" fill="#4A21BB"/><path d="m7.9 5.52-.11.1c-.05.05-.09.04-.1-.03-.03-.1.02-.16.14-.18.06-.01.09.02.07.1Z" fill="#696868"/><path d="M9.44 5.42a.06.06 0 0 1 .05-.02c.03 0 .05.01.06.04a.1.1 0 0 1 0 .1c-.04.05-.07.06-.11.04a.08.08 0 0 1-.04-.07c0-.03.01-.06.04-.09Z" fill="#5262AA"/><path d="m13.3 5.4.09.1c.2.32.4.67.57 1.01.08.16.13.3.14.41.04.2.14.3.19.54.1.44.16.87.2 1.28-.08 0-.19.07-.33.23-.03.03-.06.03-.1 0a.5.5 0 0 1-.2-.45c0-.02 0-.03-.03-.03h-.03c-.02 0-.03 0-.03.02v1.01c0 .05.03.06.07.05l.1-.05c.05-.02.06-.05.03-.09a.29.29 0 0 1-.05-.09c0-.03.02-.06.06-.09a.5.5 0 0 1 .52-.03l-.03.45-.2.84c-.2.78-.54 1.47-1.03 2.06a.21.21 0 0 1-.1.07.19.19 0 0 0-.14.16.2.2 0 0 1-.06.12 6.04 6.04 0 0 1-2.34 1.41c-.16.07-.32.1-.5.09a.14.14 0 0 0-.1.04.13.13 0 0 1-.08.04c-.47.05-1.01.06-1.61.03-.15 0-.27-.03-.38-.08a5.3 5.3 0 0 1-2.91-1.57.08.08 0 0 1-.02-.09l.02-.03c.03-.05.01-.08-.04-.09a.39.39 0 0 1-.2-.1 3.6 3.6 0 0 1-.91-1.69c.15.04.26.15.32.32.02.05.05.08.1.1l.4.1.06.05c.1.17.24.3.4.4a.53.53 0 0 1-.2.14c-.05.02-.07.07-.04.13l.02.04a.07.07 0 0 0 .05.04.07.07 0 0 0 .06-.02l.43-.43a.18.18 0 0 1 .2-.04c.03 0 .05.02.06.04l.24.26c-.09.08-.1.19-.01.33l-.03.05a.77.77 0 0 1-.51-.18c-.04-.03-.04-.05 0-.07l.06-.03c.11-.13.09-.16-.07-.1-.04 0-.07.07-.1.17a.2.2 0 0 1-.05.1l-.12.13c-.04.03-.05.08-.02.12.22.4.52.5.82.79.18.16.3.26.4.3.66.33 1.03.5 1.13.5.43.06.55-.03.37-.26.15.06.24.07.26.01l.01.07c0 .06-.01.13-.04.19-.02.04 0 .08.03.1.03.02.07.03.1.02a.1.1 0 0 0 .1-.08.24.24 0 0 1 .05-.07c.02-.03.07-.05.14-.06.18-.02.26-.14.22-.35a.09.09 0 0 0-.06-.07l-.05-.02v-.11a.2.2 0 0 0 .08-.04.16.16 0 0 0 .04-.06c.05-.14.25-.23.59-.27 0 .03.01.05.03.07-.1.11-.11.2-.04.26a.23.23 0 0 0 .37-.14c.01-.05-.02-.08-.1-.1a4.31 4.31 0 0 0 2.75-1.5.15.15 0 0 1 .12 0l.05.04.46.46h.03l.04-.04c.02-.01.02-.03 0-.05a3.8 3.8 0 0 0-.56-.54c-.03-.03-.07-.04-.1-.03a.22.22 0 0 0-.1.06.1.1 0 0 1 0-.08c.02-.04.06-.06.11-.05l.18.06h.03l.02-.02v-.04a.09.09 0 0 0-.02-.04c-.07-.08-.1-.14-.07-.18-.02.04-.01.07 0 .08a.13.13 0 0 0 .18-.07c.39-.77.61-1.57.66-2.38l.02-.18c0-.04.03-.06.07-.04l.2.05a.07.07 0 0 0 .06 0 .07.07 0 0 0 .03-.05c.04-.24.02-.45-.07-.64-.06-.14-.15-.18-.25-.13a.12.12 0 0 1-.15-.04.12.12 0 0 1-.02-.05.8.8 0 0 0-.08-.27c-.05-.09-.03-.17.05-.23.14-.1.2-.2.17-.29-.01-.03-.03-.04-.04-.05-.03 0-.04 0-.04.03v.11a.1.1 0 0 1-.19.04.51.51 0 0 0-.23-.23l-.53-.74-.68-.65.15-.05c.07.12.15.15.21.08.01.04.05.07.1.08.03.16.14.24.35.23.04 0 .08-.01.11-.04l.47-.4.24-.03Z" fill="#22196B"/><path d="M7.28 6.05a3.2 3.2 0 0 0-1.52 2.19c-.01.05.03.07.12.05h.05c.04 0 .06.02.05.06l-.01.11c-.37-.08-.5.2-.4.84-.08-.04-.12-.08-.1-.14.03-.1.03-.2 0-.3 0-.04-.03-.07-.08-.06l-.03.01a.06.06 0 0 0-.02.03c-.01.05-.03.08-.06.1a.13.13 0 0 1-.08.04.26.26 0 0 1-.2-.08.1.1 0 0 1-.02-.12c.1-.22.2-.38.33-.46.06-.05.06-.1-.01-.13-.1-.06-.16-.13-.16-.22a.11.11 0 0 1 .08-.1.85.85 0 0 0 .53-.45V7.4l-.06-.02c-.03 0-.05 0-.08.03-.04.05-.08.08-.1.09-.17.05-.2 0-.08-.13.12-.12.22-.3.3-.5.06-.22.16-.37.27-.47.24-.23.46-.4.64-.5.1-.06.17-.04.23.05l.02.02h.03c.02 0 .03 0 .04-.02l.02-.02V5.8a.1.1 0 0 1 .05-.1l.27-.17c.04-.02.07-.02.1.03.06.1.02.27-.12.49Z" fill="#294250"/><path d="m9 5.66-.2.07-.05-.05a.13.13 0 0 1 .1-.1c.07-.03.12 0 .15.08Z" fill="#696868"/><path d="m14 5.61.65 1.3.34 1.4.01 1.02a5.8 5.8 0 0 1-.3 1.54 5.89 5.89 0 0 1-4.61 4.02 5.68 5.68 0 0 1-3.48-.42 5.48 5.48 0 0 1-1.9-1.31 6.62 6.62 0 0 1-1.23-1.84l-.31-.92-.15-.78L3 8.57l.38-1.67.15.37a5.81 5.81 0 0 0 2.68 6.7 5.7 5.7 0 0 0 8.42-4 5.52 5.52 0 0 0-.74-4.01l.1-.35Z" fill="#0D0828"/><path d="M8.87 6.9c-.09-.02-.12-.01-.1.02-.03-.1-.03-.16-.02-.19l.05-.76.44-.32a.07.07 0 0 1 .12.06v.9c0 .12-.06.17-.18.17-.17 0-.28.03-.31.12Z" fill="#DB8FC6"/><path d="M11.94 7.32c.04.05.05.1.04.13 0 .02-.04.03-.1.06a2.91 2.91 0 0 0-1.91-1.58.4.4 0 0 1-.12-.05l-.14-.1c0-.08.08-.1.26-.05.9.26 1.55.8 1.97 1.6Z" fill="#91E7BF"/><path d="m4.72 7.05-.02.01c0 .16-.04.27-.1.32a.55.55 0 0 0-.27.21c-.02.04-.02.08.02.11.1.08.2.08.32-.01.06-.02.1.04.12.18l-.12.68c0 .02-.01.02-.03.02h-.05l-.04-.47c.05-.06.07-.1.06-.14 0-.03-.04-.05-.1-.06-.15-.01-.2.05-.13.17-.16.33.02.6.01.9 0 .26-.02.55-.04.87 0 .04.02.06.06.06h.08c.05 0 .07-.02.07-.07v-.34c0-.02.01-.03.03-.03h.05s.02 0 .02.02c.03.4.13.79.31 1.14a.09.09 0 0 1-.03.11c-.1.07-.23.09-.4.06-.04 0-.07-.03-.08-.08 0-.06-.04-.1-.11-.13-.24-.09-.45-.2-.62-.33L3.5 8.8c.05-.13.08-.26.09-.38a.04.04 0 0 1 .03-.04.04.04 0 0 1 .04 0l.06.06a.14.14 0 0 1 .04.13.94.94 0 0 0 .01.42c.02.05.05.06.1.04.18-.1.27-.28.26-.52 0-.14-.07-.2-.2-.2h-.15a.07.07 0 0 1-.07-.08V7.6a.07.07 0 0 1 .05-.06h.03c.19 0 .3-.05.35-.16a.13.13 0 0 0 .05-.05c.01-.02 0-.04-.02-.06a.15.15 0 0 0-.12-.02.86.86 0 0 1 .01-.44.14.14 0 0 1 .1-.1c.38-.15.67-.45.86-.9.02-.04.04-.04.08-.02l.32.27c.2.15.17.2-.07.15l-.26-.06h-.06a.12.12 0 0 0-.05.04c-.13.14-.16.27-.09.37.03.05.02.07-.04.08-.03 0-.06.02-.07.06v.08c.04.1.01.19-.06.27Z" fill="#330F4C"/><path d="M11.87 7.51c-.02-.01-.02.05 0 .19l.28.87c.07.55.01.96-.18 1.23l-.2-.04a.25.25 0 0 0-.14-.09c.07-.29.18-.62.07-.9-.1-.26-.2-.52-.28-.8a1.8 1.8 0 0 0-.35-.69 3.62 3.62 0 0 0-.6-.52c-.25-.18-.49-.21-.71-.08-.1-.18-.13-.45-.07-.84.03-.03.04-.05.02-.06l.14.1a.4.4 0 0 0 .12.05c.87.24 1.5.77 1.9 1.58Z" fill="#19D4AC"/><path d="M13.07 6.07c.09.08.2.11.23.07.04-.04 0-.14-.1-.22-.09-.08-.2-.11-.23-.07-.04.04 0 .14.1.22Z" fill="#703CB2"/><path d="M8.23 5.85v.82c0 .05-.03.08-.07.09l-.36.05a.11.11 0 0 0-.07.03.28.28 0 0 0-.05.08.08.08 0 0 0-.09 0c-.05-.3-.04-.59 0-.85.23.11.45.04.64-.22Z" fill="#DB8FC6"/><path d="M11.82 6.15c.03.12.08.23.17.33-.14.11-.23.02-.26-.27 0-.03.02-.05.05-.06h.04Z" fill="#138784"/><path d="M7.34 6.21c.04.14.05.27 0 .4a.1.1 0 0 1-.09.07c-.14.02-.29 0-.44-.02l.53-.45Z" fill="#9A8FB0"/><path d="m12.88 6.92.27.75c.12.38.14.8.2 1.22a6.07 6.07 0 0 1-.66 2.38.13.13 0 0 1-.17.07c-.02-.01-.03-.04-.01-.08a4.2 4.2 0 0 0-.2-4.9l.04-.18.53.74Z" fill="#5262AA"/><path d="m12.72 6.18.14.06a.1.1 0 0 1 .04.07c.01.04 0 .07-.05.1a.12.12 0 0 1-.1 0c-.1-.05-.13-.11-.1-.2l.03-.02h.04Z" fill="#703CB2"/><path d="M11.63 9.67a.4.4 0 0 1-.22-.06.11.11 0 0 1-.05-.1c.03-.35.17-.6 0-.94a.17.17 0 0 1-.02-.13.4.4 0 0 0 .01-.15 2.12 2.12 0 0 0-1.59-1.61c.22-.13.46-.1.72.08.24.18.44.35.59.52.15.17.27.4.35.69l.28.8c.11.28 0 .61-.07.9Z" fill="#0E6F73"/><path d="m13.53 6.82.17-.18c.04-.04.08-.04.12 0 .04.04.06.1.06.18 0 .05.03.09.06.12.06.06.1.14.09.24 0 .04-.03.06-.07.05a.62.62 0 0 1-.44-.2.15.15 0 0 1 0-.2Z" fill="#0D0828"/><path d="M6.75 6.71c.11.32.12.66.04 1.03-.05-.26-.06-.5-.03-.71 0-.05-.01-.07-.06-.07-.02 0-.04.02-.06.04-.32.4-.54.88-.67 1.46l.01-.1c0-.05-.01-.07-.05-.07h-.05c.09-.61.38-1.14.87-1.58Z" fill="#138784"/><path d="M7.6 6.92a.08.08 0 0 1 .08 0h1.1c-.03-.03 0-.04.09-.02.4.1.79 0 1.18.29.04.04.05.08.06.12 0 .06-.02.07-.07.04-.18-.13-.36-.2-.53-.2-.77-.05-1.53-.06-2.3-.02-.04 0-.07-.02-.07-.08v-.09l.45-.04Z" fill="#D2D2DD"/><path d="M13.35 8.89c-.06-.42-.08-.84-.2-1.22-.08-.26-.17-.5-.27-.75.11.06.19.14.23.24a.1.1 0 0 0 .11.05.1.1 0 0 0 .08-.1V7c0-.03.01-.04.04-.03.01 0 .03.02.04.05.02.09-.03.18-.17.29-.08.06-.1.14-.05.23a.8.8 0 0 1 .08.27.12.12 0 0 0 .11.1h.06c.1-.06.19-.02.25.12a1.07 1.07 0 0 1 .06.67.07.07 0 0 1-.05.03h-.03l-.2-.06c-.04-.02-.07 0-.07.04l-.02.18Z" fill="#4A21BB"/><path d="M6.8 7.74c0-.02-.03-.02-.07.02-.15-.05-.26-.02-.32.1-.2.41-.3.84-.25 1.29.02.19.09.36.2.5.18.22.28.38.3.5a5 5 0 0 1 .1.68c0 .23-.06.25-.2.07a3.3 3.3 0 0 1-.6-2.36c0-.02 0-.03-.02-.03h-.06c-.04 0-.06.02-.07.06-.07.3-.07.63-.01.95-.11.07-.19.07-.22-.01a.23.23 0 0 1 0-.21c-.1-.64.02-.92.39-.84.13-.58.35-1.06.67-1.46.02-.02.04-.04.06-.04.05 0 .07.02.06.07-.03.22-.02.45.03.71Z" fill="#19D4AC"/><path d="M7.15 6.96a.26.26 0 0 0-.01.1c0 .05.03.07.08.07.76-.04 1.52-.03 2.3.01.16.01.34.08.52.2.05.04.07.03.07-.03a.27.27 0 0 0-.06-.12c.14.06.26.15.36.26-.15.2-.38.27-.71.18a.94.94 0 0 0-.74-.08l-.69-.03a.7.7 0 0 0-.39-.1.16.16 0 0 0-.1.06.17.17 0 0 0-.04.1v1.05c0 .05-.03.08-.08.08h-.5a.56.56 0 0 1-.07-.28l.06-1.47Z" fill="#D758C8"/><path d="m4.7 7.06.02-.01c.07-.03.12-.02.16.02.04.04.04.08 0 .12-.02.03-.06.03-.12.01-.03 0-.06-.05-.06-.14Z" fill="#9A8FB0"/><path d="M12.49 7.1c.06.01.1.04.12.08.03.04.02.07-.03.1a.45.45 0 0 1-.31.05.7.7 0 0 1 .22-.22Z" fill="#138784"/><path d="m3.6 7.18.07.15L3.5 8.8l.23 1.45c-.04.2 0 .41.14.63.15.65.45 1.2.9 1.68.06.06.13.1.2.11.06.01.08.04.05.1l-.01.02c-.02.04-.01.07.01.1a5.3 5.3 0 0 0 2.91 1.56c.1.05.23.07.38.08.6.03 1.14.02 1.61-.03.03 0 .06-.02.08-.04a.14.14 0 0 1 .1-.04c.18 0 .34-.02.5-.09.02.06.06.1.14.11a5.7 5.7 0 0 1-6.68-2.65 5.81 5.81 0 0 1-.53-4.52c.04 0 .06-.03.06-.1ZM4.14 7.38l-.13.06c-.06.02-.08 0-.06-.06a.33.33 0 0 1 .1-.13c.04-.01.09 0 .12.02.02.02.03.04.02.06l-.05.05Z" fill="#703CB2"/><path d="M13.63 7.76c-.13.01-.23 0-.3-.06a.14.14 0 0 1-.05-.12v-.2a.07.07 0 0 1 .05-.07h.04c.21.09.33.2.35.32a.1.1 0 0 1-.02.09.1.1 0 0 1-.07.04Z" fill="#4A21BB"/><path d="M4.6 7.38c.11.02.14.12.07.3-.11.1-.22.1-.32.02-.04-.03-.04-.07-.02-.1a.55.55 0 0 1 .27-.22ZM8.27 7.52l-.37.07c-.04.01-.06.04-.05.09.08.46.13.95.12 1.46 0 .2-.11.37-.1.52.02.26.01.52-.03.79 0 .02 0 .03.02.04l.03.01a.24.24 0 0 1-.05.08.32.32 0 0 1-.07.11c-.04.04-.08.04-.11 0a.28.28 0 0 1-.06-.1l.01-.07a.42.42 0 0 1 .06-.08.18.18 0 0 0 .05-.12V9.08a.12.12 0 0 0-.06-.1.78.78 0 0 0-.54-.14l.03-.13h.51c.05 0 .08-.03.08-.08V7.6c0-.04.01-.08.04-.11a.16.16 0 0 1 .1-.06.7.7 0 0 1 .4.1Z" fill="#692585"/><path d="m10.66 7.77.12.37a2.5 2.5 0 0 1-.62 1.88c.18-.35.24-.76.2-1.21.01-.49-.2-.88-.66-1.18.33.09.56.03.7-.18.11.08.2.18.26.32Z" fill="#9E4DD4"/><path d="M12.57 7.5c.05-.02.1-.02.14.02a.08.08 0 0 1 .03.06.08.08 0 0 1-.05.06c-.04.03-.09 0-.14-.05a.06.06 0 0 1 .02-.08Z" fill="#0E6F73"/><path d="M4.88 7.52c0 .04.02.07.06.08.02 0 .05 0 .09-.02.04.28-.12.47-.14.72-.03.35-.04.68-.03.97a.14.14 0 0 0 .12.13c.05.01.1.05.17.1.01.02.03.02.05 0l.03-.02v-.03l-.25-.25c-.07-.07-.06-.09.03-.07.21.04.33.17.35.38 0 .05-.02.09-.06.1-.14.04-.23.04-.25 0-.13-.18-.18-.15-.15.07.07.52.26 1.03.58 1.53.02.04.04.08.04.13 0 .06.04.1.1.12.04.01.07.03.09.05.53.65 1.15 1.1 1.88 1.34l1.11.27c-.09.07-.19.1-.3.09A4.3 4.3 0 0 1 5.98 12l-.24-.26a.18.18 0 0 0-.26 0l-.43.43a.07.07 0 0 1-.06.02l-.03-.02-.02-.02-.02-.04c-.03-.06-.01-.1.05-.13a.53.53 0 0 0 .19-.14l.32-.3c.04-.03.04-.06 0-.1-.04-.04-.1-.12-.16-.23-.1-.17-.2-.2-.33-.09-.04.03-.08.03-.12 0l-.11-.11c.09.04.14.05.15.03a.12.12 0 0 0 .04-.05l.01-.07a.14.14 0 0 0-.09-.1.25.25 0 0 0-.1-.01c-.03 0-.05.02-.06.05v.07a.97.97 0 0 1-.74-.23c-.04-.03-.07-.02-.1.02v.15a.93.93 0 0 1-.13-.63c.17.13.38.24.62.33.07.02.1.07.11.13.01.05.04.08.08.08.17.03.3 0 .4-.06a.09.09 0 0 0 .03-.1 3.1 3.1 0 0 1-.31-1.15c0-.02-.01-.02-.02-.02h-.05c-.02 0-.03 0-.03.03v.34c0 .05-.02.07-.07.07h-.08c-.04 0-.06-.02-.06-.06l.04-.87c0-.3-.17-.57-.01-.9a.3.3 0 0 0 .17.03l.04.46.01.01h.04c.02 0 .03 0 .03-.02l.12-.68.1-.35Z" fill="#692585"/><path d="m8.27 7.52.69.03c.36.03.63.13.79.29.25.25.42.59.52 1.03.04.56-.11.99-.44 1.28-.56.5-1.28.32-1.94.35h-.03a.05.05 0 0 1-.02-.05c.04-.27.05-.53.03-.79-.01-.15.1-.33.1-.52 0-.5-.04-1-.12-1.46-.01-.05 0-.08.05-.09l.37-.07Z" fill="#0D0828"/><path d="M9.7 7.63c.45.3.67.7.65 1.18a.1.1 0 0 1-.08.06c-.1-.44-.27-.78-.52-1.03-.16-.16-.43-.26-.8-.3a.94.94 0 0 1 .75.1Z" fill="#692585"/><path d="M12.5 8.13c.1.11.16.1.16-.02h.27c.03-.01.06 0 .06.05 0 .02 0 .05-.04.08a.1.1 0 0 1-.09.02 1.59 1.59 0 0 0-.68.04l-.02.03a.07.07 0 0 0 0 .06c.05.11.05.17-.01.18l-.29-.87a14.9 14.9 0 0 1 .95.09l.02.04a.05.05 0 0 1-.06.06h-.48a.1.1 0 0 0-.1.07.11.11 0 0 0 .03.12c.08.08.18.1.28.05Z" fill="#0E6F73"/><path d="M6.73 7.76c.02.12 0 .22-.07.29-.34.66-.3 1.3.12 1.88.06.27.07.67.06 1.22-.01.26.14.36.44.32.05-.01.08.01.1.07a.8.8 0 0 1 0 .33c-.02.05-.05.06-.1.04A3.17 3.17 0 0 1 5.74 9.9c-.01-.05 0-.09.05-.1a.23.23 0 0 1 .08-.02c.05 0 .08-.03.09-.08 0-.1-.05-.17-.15-.18a2.33 2.33 0 0 1 0-.95c.02-.04.04-.06.08-.06h.06c.02 0 .03 0 .03.03-.1.88.1 1.67.6 2.36.13.18.2.16.2-.07a5 5 0 0 0-.1-.69c-.03-.1-.13-.27-.3-.48a.93.93 0 0 1-.21-.51c-.04-.45.04-.88.25-1.3.06-.1.17-.14.32-.1Z" fill="#138784"/><path d="M9.02 12.3c-.18-.02-.27-.07-.27-.15 0-.3 0-.64-.02-1.01-.3-.06-.6-.06-.9 0a.07.07 0 0 0-.04.02.08.08 0 0 0-.01.05c0 .04.02.05.05.06l.25.06c.06.04.11.12.13.22.02.1.01.2-.03.32l-.13.38c-.01.04-.04.05-.07.03-.1-.03-.22-.1-.35-.2a.12.12 0 0 1-.05-.1v-.7a.16.16 0 0 0-.14-.15l-.36-.06.08-.02a.19.19 0 0 0 .1-.08 30.6 30.6 0 0 1 1.69-.06c1.44-.02 2.16-1.52 1.83-2.77l-.12-.37c.29.35.42.76.39 1.22-.01.22-.1.4-.14.65l-.06.25c-.06.2-.3.49-.69.86-.33.3-.68.42-1.06.33-.2-.04-.23.02-.1.2.02.03.1.04.23.02a.12.12 0 0 1 .12.07l.01.05c0 .33.1.74-.34.87Z" fill="#4A21BB"/><path d="M4.55 8.1a.3.3 0 0 1-.17-.03c-.06-.12-.02-.18.13-.17.06 0 .1.03.1.06 0 .04-.01.08-.06.14Z" fill="#9E4DD4"/><path d="M6.66 8.05c-.04.1-.06.2-.07.3 0 .05.03.08.07.1.13.02.27.02.43-.02 0 .1.02.2.06.28l-.03.13-.03 2.12c0 .02.01.05.03.06l.04.03-.08.02-.06-2.43a.08.08 0 0 0-.08-.08h-.27c-.06 0-.09.03-.08.1l.2 1.27a1.72 1.72 0 0 1-.13-1.88Z" fill="#294250"/><path d="m7.26 10.97.67-.34c.98.03 1.69.15 2.23-.6a2.5 2.5 0 0 0 .62-1.9c.33 1.26-.4 2.76-1.83 2.78-.57 0-1.13.02-1.69.06Z" fill="#702DE6"/><path d="m12.93 8.57-.25.1a.06.06 0 0 1-.08-.01v-.03c0-.02 0-.05.02-.09.2-.14.31-.13.3.03Z" fill="#138784"/><path d="M14.49 8.74c.04.17.05.33 0 .48a.5.5 0 0 0-.5.03c-.05.03-.07.06-.07.1l.05.08c.03.04.02.07-.03.1l-.1.04c-.04.01-.07 0-.07-.05V8.51c0-.02.01-.02.03-.02h.03c.03 0 .04 0 .04.03a.5.5 0 0 0 .2.46c.03.02.06.02.1-.01.13-.16.24-.24.32-.23Z" fill="#0D0828"/><path d="M12.62 8.54a.18.18 0 0 0-.02.1.06.06 0 0 0 .05.04h.03l.25-.11c-.04.05-.02.1.08.18a.12.12 0 0 1-.07.2h-.36l-.02-.01v-.05l.02-.01c.12 0 .19-.03.18-.12a.07.07 0 0 0-.06-.06h-.2c-.03 0-.05-.01-.06-.03a.07.07 0 0 1 0-.05l.01-.03c.06-.03.11-.04.17-.05Z" fill="#0E6F73"/><path d="M9.69 8.83c-.07.08-.14.13-.22.14-.4.05-.82.03-1.28-.06.44-.14.94-.17 1.5-.08Z" fill="#D2D2DD"/><path d="M8.19 8.9c.46.1.89.12 1.28.07.08-.01.15-.06.22-.14v.44c0 .05-.02.08-.08.08H8.33c-.06 0-.08-.02-.09-.07l-.05-.37ZM7.84 10.58c.03.04.06.06.1.05l-.68.34a.19.19 0 0 1-.1.08l-.04-.03a.09.09 0 0 1-.03-.06l.03-2.12c.2-.02.39.02.54.13.04.03.06.06.06.1v1.25c0 .04-.01.09-.05.12a.42.42 0 0 0-.06.08v.06c0 .04.02.08.05.1.03.05.07.05.11.01a.32.32 0 0 0 .07-.11Z" fill="#9E4DD4"/><path d="M12.81 9.56c.04.05.1.08.18.12.06.02.06.05 0 .08-.14.07-.25.08-.33.05a.23.23 0 0 1-.14-.2.24.24 0 0 1 .12-.23.71.71 0 0 0 .15-.17.2.2 0 0 1 .06-.06.18.18 0 0 1 .08-.03c.03 0 .05 0 .08.02.02 0 .04.03.05.05.02.02-.06.1-.23.2a.11.11 0 0 0-.02.17Z" fill="#0E6F73"/><path d="M3.85 9.2c.1.01.16.03.2.05.12.09.1.13-.07.14-.12 0-.19-.03-.2-.1-.01-.06.01-.1.07-.09Z" fill="#9E4DD4"/><path d="M4.1 9.78c.07-.03.1-.11.06-.17-.04-.06-.12-.08-.18-.04-.07.04-.1.12-.06.18.04.06.12.07.18.03Z" fill="#703CB2"/><path d="M14.63 9.96a5.64 5.64 0 0 1-3.9 4.48c-.07-.02-.11-.05-.13-.1.89-.3 1.67-.77 2.34-1.42a.2.2 0 0 0 .06-.12.19.19 0 0 1 .14-.16.21.21 0 0 0 .1-.07c.48-.6.83-1.28 1.03-2.06l.2-.84c.1-.04.16.06.16.3Z" fill="#2C9DC4"/><path d="m5.34 9.83.03-.1c.02-.05.05-.06.1-.03l.02.02c.02.03.02.05.01.08-.1.22-.24.3-.45.23-.03 0-.04-.02-.03-.05l.01-.05a.06.06 0 0 1 .06-.05h.18c.04 0 .06-.02.07-.05ZM11.97 9.8l-.4.34-.34-.1c-.15-.25-.04-.3.35-.18.05.02.1.02.12.01.03-.02.06-.05.07-.1l.2.03Z" fill="#0E6F73"/><path d="M10.89 11.7c.47-.39.82-.84 1.02-1.38l.23-.48a.07.07 0 0 1 .07-.04c.07 0 .1.03.07.1-.18.6-.49 1.13-.93 1.6-.2.21-.35.28-.46.2Z" fill="#1CA79D"/><path d="M13.6 10.4c-.04-.2 0-.37.1-.51a.11.11 0 0 1 .12-.05c.13.01.22 0 .3-.02.13-.06.17-.02.12.12l-.12.28a.22.22 0 0 1-.09.1l-.32.22a.1.1 0 0 1-.05.02h-.04a.06.06 0 0 1-.03-.03v-.14Z" fill="#0D0828"/><path d="M12.67 10.19c-.1.07-.1.12 0 .14l.06.01a.07.07 0 0 1 .05.07.07.07 0 0 1-.03.07c-.03.01-.3.2-.45.22-.07.02-.08 0 0-.04.06-.04.08-.11.04-.2a.13.13 0 0 1 0-.12c.09-.17.22-.3.4-.39.04-.02.08-.02.1 0 .06.03.06.07 0 .1l-.17.14Z" fill="#0E6F73"/><path d="m11.57 10.14.35.18c-.21.54-.55 1-1.03 1.38.03-.07.03-.11 0-.14-.03-.03-.06-.02-.08.02l-.05.09a.09.09 0 0 1-.06.04c-.4.09-.7.25-.9.5-.09.1-.12.08-.12-.04v-.63c0-.1.04-.16.13-.19a2.4 2.4 0 0 0 1.42-1.32l.34.1Z" fill="#1B86AA"/><path d="M4.5 10.31c.04-.05.09-.06.14-.02.05.04.08.1.09.15 0 .08-.03.1-.1.09-.15-.04-.2-.11-.12-.22Z" fill="#970C4F"/><path d="m5.56 10.35-.19.09c-.15.07-.18.04-.08-.1.05-.07.14-.1.29-.12a.07.07 0 0 1 .06.03.07.07 0 0 1 0 .07c-.01.03-.04.04-.08.03ZM5.46 10.63a.1.1 0 0 1 .1 0c.1.06.1.1 0 .1-.01.01-.04 0-.1-.02-.05-.03-.05-.05 0-.08Z" fill="#138784"/><path d="M5.79 10.66c.03-.03.06-.04.1-.03.08.03.09.06 0 .1 0 .01-.03.01-.07 0a.04.04 0 0 1-.04-.02.05.05 0 0 1 0-.05Z" fill="#0E6F73"/><path d="m4.7 10.94.05.08.11.1c.04.04.08.04.12.01.12-.1.23-.08.33.1.07.1.12.18.17.22.03.04.03.07 0 .1l-.33.3c-.16-.1-.3-.23-.4-.4a.12.12 0 0 0-.07-.05l-.39-.1a.14.14 0 0 1-.1-.1c-.06-.17-.17-.28-.32-.32-.02-.07-.02-.12 0-.15.02-.04.05-.05.1-.02.2.17.44.25.72.23Z" fill="#330F4C"/><path d="m4.75 11.02-.06-.08.01-.07c.01-.03.03-.05.06-.05h.1a.14.14 0 0 1 .1.11c0 .03 0 .05-.02.07 0 .02-.02.04-.04.05-.01.02-.06 0-.15-.03Z" fill="#703CB2"/><path d="M12.22 11.04c.16-.03.2 0 .16.1l-.02.02h-.15a.07.07 0 0 1-.05-.04v-.04a.1.1 0 0 1 .06-.04Z" fill="#1B86AA"/><path d="M9.02 12.3c-.07 0-.12.02-.15.04-.02.03-.01.07.01.13.07.14.02.32 0 .45-.02.12-.08.19-.18.2l-1.11-.27c.14-.06.35-.09.6-.07h.12l.04-.02.01-.04v-.04c.11.04.15 0 .11-.13a.54.54 0 0 1-.02-.15c.01-.29.02-.58.01-.87 0-.04.03-.07.07-.08.12-.02.2-.13.2-.31.02.37.02.7.02 1 0 .1.1.14.27.15Z" fill="#172545"/><path d="M12.77 11.38c-.05.08-.05.18.01.22.07.05.16.02.22-.06.05-.08.05-.18-.01-.22-.06-.04-.16-.02-.22.06Z" fill="#692585"/><path d="m9.57 13.21-.23-.02a.11.11 0 0 1-.03-.07 4.36 4.36 0 0 0 2.94-1.51.22.22 0 0 1 .1-.06c.04 0 .08 0 .11.03.2.16.4.34.56.54.02.02.02.04 0 .05l-.04.04h-.03l-.46-.46a.15.15 0 0 0-.11-.05.15.15 0 0 0-.11.06c-.7.8-1.6 1.29-2.7 1.45Z" fill="#5262AA"/><path d="M6.35 11.84c.04-.04.13-.04.26 0a.06.06 0 0 1 .04.05.06.06 0 0 1-.03.06.36.36 0 0 1-.22.03.08.08 0 0 1-.07-.05.08.08 0 0 1 .02-.09Z" fill="#138784"/><path d="m5.93 12.39-.01.13c0 .06.02.08.08.08h.16c.03 0 .05.02.05.06v.04c0 .04.02.08.06.1l.38.22c.05.04.1.02.13-.03l.03-.06a.06.06 0 0 0-.02-.08l-.83-.51c-.08-.14-.08-.25 0-.33a4.3 4.3 0 0 0 2.45 1.2c-.05 0-.07.04-.07.1 0 .05.03.08.07.1l.2.08-.15-.01a.3.3 0 0 1-.12-.04.83.83 0 0 0-.48-.1c-.05.01-.1 0-.13-.03a1.3 1.3 0 0 0-.77-.21c-.05 0-.06.01-.02.05.18.15.36.25.54.29l.4.1c.14.06.27.1.41.14a.65.65 0 0 0-.18.26l-.01-.07c.02-.07 0-.1-.06-.12a4.52 4.52 0 0 1-1.6-.63c-.03-.01-.05 0-.06.02l-.03.05a.05.05 0 0 0 0 .05.06.06 0 0 0 .02.03l1.47.6c.18.22.06.3-.37.25-.1 0-.47-.17-1.13-.5-.1-.04-.22-.14-.4-.3-.3-.3-.6-.38-.82-.79-.03-.04-.02-.09.02-.12l.12-.13a.2.2 0 0 0 .06-.1c.02-.1.05-.16.1-.18.15-.05.17-.02.06.11l-.06.03c-.04.02-.04.04 0 .07.16.12.33.18.5.18Z" fill="#330F4C"/><path d="M6.9 12.13c.06-.02.1-.04.14-.04.04 0 .06.02.08.05l.01.05c0 .04-.02.06-.06.06-.08 0-.14 0-.18-.03a.05.05 0 0 1 0-.07l.01-.02ZM10.78 12.22c.05-.04.07-.09.05-.11-.01-.03-.07-.02-.12.01-.05.04-.07.09-.06.11.02.03.08.02.13-.01Z" fill="#0E6F73"/><path d="M5.93 12.39c0-.02.02-.04.03-.05l.83.51a.06.06 0 0 1 .02.08l-.03.06c-.03.05-.08.07-.13.03l-.38-.22a.11.11 0 0 1-.06-.1v-.04c0-.04-.02-.06-.05-.06H6c-.06 0-.08-.02-.08-.08v-.13Z" fill="#692585"/><path d="M5.4 12.63c.05.07.13.1.17.06.05-.03.03-.11-.03-.18-.05-.07-.13-.1-.18-.06-.04.03-.02.11.04.18Z" fill="#762E5F"/><path d="M8.36 12.68v.04l-.01.04-.04.02a.21.21 0 0 1-.11 0c-.35.02-.67-.04-.96-.18a.07.07 0 0 1-.04-.07v-.07c0-.04.02-.05.06-.04.38.17.71.04 1.1.26Z" fill="#294250"/><path d="M10.42 12.43h.01v-.01h.02c.09.1.09.19.02.26-.04.03-.07.03-.1-.01s-.01-.12.05-.24ZM10 12.57a.06.06 0 0 1 .03-.03.06.06 0 0 1 .04 0l.1.1v.02c.01.07-.03.1-.11.11-.04 0-.06 0-.08-.03-.02-.05-.02-.1.02-.17Z" fill="#0E6F73"/><path d="m11.65 12.63-.4.2a.11.11 0 0 0-.06.14l.01.01c.03.06.1.08.15.06l.4-.2c.06-.02.08-.08.05-.14v-.01a.11.11 0 0 0-.15-.06Z" fill="#703CB2"/><path d="M12.36 12.74a5.99 5.99 0 0 1-2.4 1.12v-.04c0-.03 0-.05.03-.05.85-.2 1.6-.57 2.29-1.13h.03l.05.05c.02.02.02.04 0 .05Z" fill="#4A21BB"/><path d="M9.28 12.74c.07-.04.09-.02.07.05-.03.1-.13.14-.29.15l-.02-.01a.04.04 0 0 1-.01-.05l.01-.02.24-.12Z" fill="#1B86AA"/><path d="M6.05 12.98a.1.1 0 0 1-.03.13.1.1 0 0 1-.05.02c-.09 0-.15-.03-.2-.07-.04-.04-.04-.07 0-.1.12-.1.22-.1.28.02Z" fill="#692585"/><path d="M8.6 13.49v.11l-.31.08a3.89 3.89 0 0 1-.4-.13 3.13 3.13 0 0 0-.41-.11 1.27 1.27 0 0 1-.54-.3c-.04-.03-.03-.04.02-.04.31 0 .57.07.77.21.04.03.08.04.13.04.17-.02.34.01.48.1a.3.3 0 0 0 .12.03h.15ZM8.1 13.87c-.02.06-.11.05-.26 0l-1.47-.6a.06.06 0 0 1-.03-.03.05.05 0 0 1 0-.05l.04-.05c.01-.03.03-.03.06-.02.45.3.98.5 1.6.63.06.01.08.05.06.12Z" fill="#4A21BB"/><path d="M9.57 13.21c.08.02.11.05.1.1a.23.23 0 0 1-.14.17.23.23 0 0 1-.23-.03c-.07-.06-.06-.15.04-.26l.23.02ZM8.6 13.6l.05.02a.1.1 0 0 1 .06.07c.04.2-.04.33-.22.35-.07.01-.12.03-.14.06a.24.24 0 0 0-.05.07.1.1 0 0 1-.1.08c-.03 0-.07 0-.1-.02-.04-.02-.05-.06-.03-.1a.51.51 0 0 0 .04-.2c.05-.1.1-.18.18-.25l.31-.08ZM9.85 14.1l.06.03a.07.07 0 0 1 .03.07.07.07 0 0 1-.05.05.12.12 0 0 1-.1 0 .1.1 0 0 1-.06-.1c0-.09-.05-.13-.15-.12-.23.02-.44.02-.62-.01-.03 0-.04-.02-.04-.04v-.15c0-.03.02-.05.05-.05h.2c.06 0 .1-.03.1-.08v-.06c.02-.04.06-.06.11-.05l.41.12c.05.01.07.04.07.1 0 .14-.01.23-.03.25-.03.02-.02.04.02.05Z" fill="#0D0828"/><defs><linearGradient id="a" x1="9" y1="0" x2="9" y2="18" gradientUnits="userSpaceOnUse"><stop stop-color="#F2F2F4"/><stop offset="1" stop-color="#D2D2DD"/></linearGradient></defs></svg>