<!-- by TradingView --><svg width="18" height="18" viewBox="0 0 18 18" xmlns="http://www.w3.org/2000/svg"><path fill="#F0F3FA" d="M0 0h18v18H0z"/><path d="M9.33 3.22c-.04.04-.02.1.07.16l.01.03v.02c0 .04 0 .04.02 0l.01-.04.05.06v.04l-.17.25a.14.14 0 0 0-.05.05l-.18.24-.55.61.01.01.33-.3c-.24.27-.38.52-.43.76a.35.35 0 0 0-.01.2l-.03.26c-.1.53-.14.92-.13 1.14 0 .1.03.32.1.67.04.1.03.18-.03.28a.85.85 0 0 1-.12.13l-.6.5c-.03.03-.06.05-.06.08-.01.02 0 .05.02.08.03.05.07.1.12.14a5.59 5.59 0 0 1-.15-.13h-.03v.02a.2.2 0 0 1 .03.18.4.4 0 0 0-.14-.12h-.04l-.15.13h-.01l-.01-.01h-.03a.66.66 0 0 1-.24.23c-.02.01-.03 0-.04-.01l-.12-.29a2.1 2.1 0 0 1-.12-.36.29.29 0 0 0-.07-.11c-.01-.02-.02-.02-.03 0 0 .06 0 .12.04.2l.04.08c.02.1.05.18.08.25 0 .03 0 .05-.03.07-.02.02-.02.03 0 .05l.03.05c.01.02.03.02.03 0l.02-.06c.04.06.07.11.09.17v.04L6.83 9c-.06.04-.1.08-.1.11-.02.02-.02.03 0 .05a4.32 4.32 0 0 1 .24.31h-.02a9.21 9.21 0 0 1-.18-.19.75.75 0 0 1-.14-.21l-.35-.81-.11-.66-.03-.28h-.02v.02-.3a.51.51 0 0 0 0-.2c0-.04 0-.04-.02 0v.03l.02-.32.03-.09a.1.1 0 0 0 0-.05.2.2 0 0 1 .04-.15v-.02h-.01l-.02.03v-.02l.03-.17a2.36 2.36 0 0 1 .6-1.13c.13-.13.25-.21.34-.26a22 22 0 0 1 .55-.27c.1-.05.23-.15.4-.31l.1-.1a1.84 1.84 0 0 0 .27-.3l.2-.26a.8.8 0 0 0 .08-.3c0-.03 0-.04.02-.06.07-.09.18-.1.3-.05.06.02.15.09.27.2Z" fill="#FCD147"/><path d="M9.02 3.2a.05.05 0 0 1-.01-.06c0-.02.01-.03.03-.05h.03c.02.02.03.03.02.05 0 .03 0 .05.03.06.11.06.2.14.24.24.02.05.01.06-.03.02l-.3-.26Z" fill="#55472B"/><path d="M9.33 3.22c.06.06.1.12.11.17l-.01.04c-.02.04-.02.04-.02 0v-.02L9.4 3.4c-.1-.07-.11-.12-.07-.17Z" fill="#A2998E"/><path d="M9.33 3.74v.05c-.07.38-.19.67-.37.88a22.44 22.44 0 0 1-.5.57v.01h.02l.43-.46-.47.51a.35.35 0 0 1 .01-.2c.1-.15.24-.32.42-.51a1.27 1.27 0 0 0 .4-.8.14.14 0 0 1 .06-.05Z" fill="#BCC1C5"/><path d="m8.91 4.79-.43.47h-.01l-.02-.02v-.03l.51-.54c.18-.2.3-.5.37-.88-.02.39-.16.72-.42 1Z" fill="#DCDCDC"/><path d="M9.98 9.73a.62.62 0 0 0-.23.24H9.2c.1 0 .18-.02.26-.05l.08-.01c.02 0 .03-.01.03-.02v-.04a.77.77 0 0 0-.2-.2.55.55 0 0 1-.17-.18c-.06-.1-.15-.2-.26-.33a.8.8 0 0 1-.17-.31c-.02-.03-.03-.04-.05 0l-.08.12h-.03v-.03a.65.65 0 0 0 .05-.22l-.01-.04a.82.82 0 0 0-.2-.19v-.04c.02-.04.03-.1.02-.15a.05.05 0 0 0-.03-.04l-.1-.05c-.03-.02-.05-.01-.06.01a.71.71 0 0 0-.12.47l-.01.02H8.1c-.02-.18 0-.36.06-.52l.04-.04c.16-.13.17-.24.02-.34.06-.05.1-.1.12-.13.06-.1.07-.19.02-.28l.3-.32c.02-.02.03-.02.05 0l.16.25c.02.04.07.1.14.16a5.35 5.35 0 0 0 .44.5l.26.28a12.04 12.04 0 0 0 .7.75h.02v-.04a151.05 151.05 0 0 0-1.25-1.4 2 2 0 0 1-.4-.5l-.04-.04c-.02 0-.02-.03 0-.04l.97-.99a2.4 2.4 0 0 0 .75-.52c.02-.02.04-.02.06 0l.16.08c.04.02.05.01.02-.03a.24.24 0 0 0-.2-.1l-.21.01 1.46-1.5c.03-.02.05-.02.08 0l.15.14c.03.04.09.07.17.1l.17.1a3.07 3.07 0 0 0 .46.33l.05.05a49.54 49.54 0 0 0 .99.7l.06.07c.02.02.05.03.1.03v.02l-.97.97a196.23 196.23 0 0 0-2.3 2.32 2.13 2.13 0 0 0-.5.68.75.75 0 0 1-.24.29Z" fill="#BCC1C5"/><path d="m9.1 4.03-.22.32-.33.3h-.01v-.01l.55-.61Z" fill="#A2998E"/><path d="m9.72 6 .58-.57h.2c.09 0 .15.03.21.1.03.03.02.04-.02.02l-.16-.09-.06.01-.07.06c-.3.25-.52.4-.68.46Z" fill="#A8ABB0"/><path d="M6.2 6.07a5.3 5.3 0 0 0-.01.16h.01v.02a.2.2 0 0 0-.04.15.1.1 0 0 1 0 .05l-.03.1V6.5h-.02l-.02.22c-.08.18-.13.38-.16.57-.11.83-.08 1.65.09 2.48l-.11.09a1.56 1.56 0 0 1-.15-.5 8.32 8.32 0 0 1 .13-2.42 5 5 0 0 0-.16.85c-.02.2-.03.5-.04.9-.02.45.03.85.13 1.2v.05l-.23.21a5.17 5.17 0 0 1-.09-1.68c.07-.63.2-1.23.37-1.78.06-.21.17-.42.33-.63Z" fill="#BCC1C5"/><path d="m6.13 6.54-.01.32v-.04c0-.03.01-.03.02.01v.2c-.05.2-.05.41 0 .62 0 .02 0 .02.02 0a.18.18 0 0 0 .02-.06l.11.66c.04.34.15.66.33.97.03.04.01.08-.04.1l-.02.03s0 .02.02.02l.12.07c.02 0 .02.02.02.03 0 .01 0 .03-.02.03-.04.02-.09.01-.15-.02h-.01v.02c.03.04.08.05.15.03a.22.22 0 0 1 .08-.02c.02 0 .03 0 .03-.02l-.01-.09v-.01l.02-.01h.02l.29.6c.08.16.05.18-.1.06l-.51-.44c-.03-.02-.04-.02-.04 0 0 .05.02.09.07.12.12.1.23.2.32.32a.43.43 0 0 1-.17 0c-.02 0-.03 0-.03-.03-.03-.19-.15-.26-.36-.22a3.56 3.56 0 0 0-.4.11v-.04l.12-.08c.1-.1.12-.24.08-.44a5.68 5.68 0 0 1-.05-1.98 4.24 4.24 0 0 0 .04-.63 1.98 1.98 0 0 1 .03-.23h.01v.04Z" fill="#A2998E"/><path d="M6.09 6.73a8.27 8.27 0 0 1-.04.63c-.1.58-.08 1.24.05 1.98.04.2.01.35-.08.44a7.34 7.34 0 0 1-.09-2.48c.03-.2.08-.39.16-.57Z" fill="#A8ABB0"/><path d="M5.9 9.87v.03h.04c.17-.06.29-.1.36-.1.2-.05.33.02.36.21 0 .02.01.03.03.04l.17-.01.12.1c-.15.01-.3-.02-.45-.08a.08.08 0 0 0-.1.02c-.02.02-.02.03 0 .05.2.16.39.28.54.36l.05-.01c.02-.02.02-.03 0-.04l-.12-.12v-.01l.01-.02h.03c.13.04.3.14.49.3l.2.16.08.07c.04.09.08.16.12.2.05.07.03.1-.05.06a.38.38 0 0 1-.17-.12l-.15-.18a.98.98 0 0 0-.5-.26c-.02 0-.03 0-.03.03v.02c0 .02.01.03.03.04.14.05.25.14.32.27 0 .02.02.03.03.04.03.02.05.04.06.07 0 .01 0 .02-.02.03a.28.28 0 0 0-.1.03c-.03.01-.03.02 0 .04l.04.03c.2.13.29.25.29.34 0 .04.02.06.07.06a1.64 1.64 0 0 1 .28.01l.01.01-.01.04-.19.07h-.05l-.18-.17a.04.04 0 0 0-.05-.01h-.02c-.02.01-.02.02 0 .04l.13.17.16.15c.96.7 2.05 1.16 3.26 1.39.45.09.92.09 1.4 0 .54-.1.91-.38 1.12-.85h.03a.71.71 0 0 1-.23.62 2.66 2.66 0 0 1-.7.41c-.13.06-.26.1-.4.12-.88.1-1.74 0-2.58-.34a14 14 0 0 1-2.16-1.08h-.05l-.43.44-.95.95-.36-.16h-.03v.02c0 .03.02.06.06.07.06.02.11.05.16.1.02.03.02.04 0 .06l-.18.17a.04.04 0 0 1-.04 0 .04.04 0 0 1-.03-.01l-.04-.1h-.04a.25.25 0 0 1-.22-.07 2.44 2.44 0 0 0-.3-.21.84.84 0 0 1-.13-.12.7.7 0 0 0-.12-.1.81.81 0 0 1-.2-.15l-.28-.25c-.12-.07-.2-.13-.24-.18a1.6 1.6 0 0 0-.3-.25l-.01-.02c-.01-.02 0-.03.02-.02.07.02.13.03.17.02.03 0 .04 0 .05.02.03.04.1.09.2.14h.03v-.03s0-.02-.02-.02a.7.7 0 0 1-.09-.08.56.56 0 0 0-.1-.1.17.17 0 0 0-.08-.03c-.1 0-.2-.01-.29-.04.07-.1.13-.15.15-.18l1.8-1.8.23-.22a.04.04 0 0 0 .01-.05c-.1-.35-.15-.75-.13-1.2 0-.4.02-.7.04-.9a5 5 0 0 1 .17-.85 8.32 8.32 0 0 0-.14 2.41c.02.17.07.33.14.5Z" fill="#A8ABB0"/><path d="M6.18 7.59c0 .02-.01.05-.03.07h-.02a1.65 1.65 0 0 1 0-.63v.3-.02h.02l.03.28Z" fill="#55472B"/><path d="M9.47 9.92a4.33 4.33 0 0 1-1-.35c-.1-.05-.24-.17-.4-.37a.12.12 0 0 0-.04-.03L8 9.16a.22.22 0 0 1-.09-.06 9.56 9.56 0 0 1-.35-.44.2.2 0 0 0-.03-.18v-.01l.03-.01h.02a5.59 5.59 0 0 0 .13.13.42.42 0 0 0-.07-.3l.6-.5c.14.1.13.21-.03.34a.08.08 0 0 0-.03.04c-.07.16-.09.33-.07.52h.05v-.02a.71.71 0 0 1 .13-.47c.01-.02.03-.03.06-.02l.1.06c.02 0 .03.02.03.04 0 .06 0 .11-.03.15 0 .02 0 .03.02.04.06.04.12.1.19.19l.01.04c0 .07-.02.14-.06.22l.01.03h.03l.08-.13c.02-.03.04-.03.05 0 .04.14.1.25.17.32.11.12.2.23.26.33.04.06.1.12.18.17.06.05.13.12.2.21v.04l-.04.02-.08.01Z" fill="#DCDCDC"/><path d="M6.78 8.6c-.04.02-.04.07-.01.16 0 .03 0 .05-.02.06 0 .02-.02.02-.03 0l-.04-.05.01-.05c.03-.02.03-.05.03-.07a3.19 3.19 0 0 1-.12-.33c-.03-.08-.05-.14-.04-.2 0-.02.02-.02.03 0l.07.1c.03.14.07.26.12.37Z" fill="#55472B"/><path d="m6.3 8.25.34.8c.04.1.09.17.14.22a9.21 9.21 0 0 0 .2.2v-.02c-.07-.1-.16-.2-.25-.3-.01-.02 0-.03.02-.04l.03-.01.04.01.37.51c.01.02.02.01.02 0v-.05c.02.03.02.06.01.07v.04l.39.48c.1.14.25.29.42.45l.49.48c-.02-.03-.05-.02-.09.03v.04c.74.54 1.69.96 2.85 1.24.53.13 1 .16 1.43.09a7.12 7.12 0 0 0 1-.26c.04-.04.07-.05.1-.03a.13.13 0 0 1-.07.07.7.7 0 0 1-.23.1l-.25.06c-.33.08-.58.13-.75.15-.28.03-.54.03-.8 0a8.72 8.72 0 0 1-3.54-1.41.4.4 0 0 1-.15-.08l-.31-.27-.08-.07-.65-.6-.12-.11c-.1-.12-.2-.22-.32-.32-.05-.03-.07-.07-.07-.12 0-.02.01-.02.04 0l.5.44c.16.12.19.1.1-.06l-.28-.6h-.04v.11c.01.02 0 .03-.02.02-.02 0-.05 0-.09.02-.06.02-.11.01-.15-.03v-.01l.02-.01c.06.03.1.04.15.02.01 0 .02-.01.02-.03 0-.01 0-.02-.02-.03l-.13-.07v-.04c.06-.03.08-.06.05-.1-.18-.32-.3-.64-.33-.98Z" fill="#55472B"/><path d="M7.64 8.3c.06.1.08.19.07.29a.86.86 0 0 1-.12-.14c-.03-.03-.03-.06-.02-.08 0-.03.03-.05.07-.07Z" fill="#E6E6E5"/><path d="M7.95 8.46c.02 0 .04.02.06.08l.04.2v.23c0 .06-.01.1-.03.1l-.07-.61Z" fill="#A2998E"/><path d="M7.56 8.66c.12.15.23.3.36.44l.08.06.03.01c.02 0 .03.02.04.03.16.2.3.33.4.37a4.33 4.33 0 0 0 1 .35.86.86 0 0 1-.26.04l-.61-.18c-.14-.05-.3-.08-.44-.08-.02 0-.02 0-.01.02.28.32.58.61.92.88l-.55.49a16.6 16.6 0 0 0-.49-.48 5.05 5.05 0 0 1-.81-.97c.01-.01 0-.04-.01-.07l-.36-.58v-.06a.48.48 0 0 0-.08-.17c-.03-.08-.03-.14 0-.17l.13.29c0 .02.02.02.04.01.11-.07.2-.14.25-.23h.02l.01.01h.01l.15-.13a.04.04 0 0 1 .04 0c.06.03.1.07.14.12Z" fill="#A2998E"/><path d="m6.84 8.99.37.58v.05c0 .01-.01.02-.02 0l-.37-.5c-.01-.02-.03-.03-.04-.02h-.03c0-.03.03-.07.1-.11ZM8.6 9.78c-.02.1.04.22.18.35 0 .01 0 .01 0 0a3.4 3.4 0 0 1-.32-.22l.36.31.05.02c.08.02.16.12.24.31-.01.03-.02.04-.04.05a7.16 7.16 0 0 1-.9-.9c.14 0 .29.03.43.08Z" fill="#A8ABB0"/><path d="M9.98 9.73c.42.3.86.53 1.33.71l1.16.44c.16.06.39.19.7.4.07.05.18.1.34.18.14.07.27.15.38.25.03.06-.03.07-.17.01-.08-.02-.09.01-.03.1l-.4.24v.02a.81.81 0 0 1 .37-.08c.02 0 .03 0 .02.03a.22.22 0 0 1-.06.08l-.22.07h-.05c-.06 0-.12 0-.18.03a.9.9 0 0 1-.28.05c-.02 0-.03.01-.03.03v.02l.02.01c.14 0 .3-.02.45-.08h.05c.04.02.07.02.1 0a.08.08 0 0 1 .05-.03c.13 0 .24-.05.33-.13a.11.11 0 0 0-.02.06l-.03.06c-.03-.03-.06-.02-.1.03a7.1 7.1 0 0 1-1 .26c-.42.07-.9.04-1.43-.09a7.79 7.79 0 0 1-2.84-1.24c-.02-.01-.02-.03 0-.04.03-.05.06-.06.08-.03l.55-.49c.02 0 .03-.02.04-.05l.64-.58c.08-.13.15-.2.23-.24Z" fill="#FCD147"/><path d="m8.6 9.78.6.18.55.01-.64.58c-.08-.19-.16-.29-.24-.3a.1.1 0 0 1-.05-.03l-.36-.31v-.02c-.02-.02-.02-.02 0 0a3.42 3.42 0 0 0 .32.25v-.01c-.14-.13-.2-.25-.18-.35Z" fill="#DCDCDC"/><path d="M6.27 9.93c.03.03.07.05.09.03.02 0 0-.05-.03-.08s-.07-.05-.08-.04c-.02.01 0 .05.02.09ZM6.98 10.14l.65.61a4.03 4.03 0 0 1-.2-.16 1.75 1.75 0 0 0-.49-.3h-.03l-.01.02.13.13v.04h-.05c-.16-.07-.35-.19-.55-.35-.02-.02-.02-.03 0-.05.03-.03.06-.04.1-.02.15.06.3.1.45.08Z" fill="#A2998E"/><path d="M10.18 10.32c.05.04.1.05.12.03.02-.02 0-.07-.06-.1-.05-.05-.1-.06-.12-.04-.02.02 0 .07.06.1Z" fill="#55472B"/><path d="m5.62 10.32.28-.03c.03 0 .04 0 .06.03l.13.18-.01.01h-.05a.65.65 0 0 0-.3-.14c-.09 0-.14-.01-.15-.03-.02-.02 0-.02.04-.02Z" fill="#BCC1C5"/><path d="M7.56 10.33v.02l.34.37h.02v-.02l-.34-.37h-.02ZM7.71 10.82l.31.26c.05.05.1.08.15.09.08.02.15.05.21.1l.44.28c.98.54 1.94.88 2.9 1.03.24.03.5.03.79 0a8.28 8.28 0 0 0 1-.21c-.2.47-.58.75-1.13.85-.47.09-.94.09-1.39 0a8.03 8.03 0 0 1-3.42-1.54l-.14-.17.01-.03.02-.01h.05l.18.17c.01.02.03.02.05.01l.19-.07c.01-.01.02-.02.01-.04l-.03-.02h-.26c-.05 0-.07-.02-.07-.06 0-.1-.1-.2-.3-.34a7.2 7.2 0 0 1-.04-.03c-.02-.02-.02-.03 0-.04a.28.28 0 0 1 .11-.04c.02 0 .03 0 .02-.02a.17.17 0 0 0-.06-.07.1.1 0 0 1-.03-.04.57.57 0 0 0-.32-.27c-.02-.01-.03-.02-.03-.04v-.02c0-.02.01-.03.03-.03.2.04.36.12.5.26l.15.18c.04.05.1.1.17.12.08.03.1.01.05-.06a1.28 1.28 0 0 1-.12-.2Z" fill="#A2998E"/><path d="M9.19 11.44c.2.12.38.21.4.19.01-.03-.14-.15-.34-.28-.2-.12-.38-.21-.4-.19-.02.03.13.15.34.28Z" fill="#55472B"/><path d="M13.9 11.7c.02 0 .04.02.05.03v.06a.7.7 0 0 0-.08.26v-.02c0-.02-.02-.03-.04-.02l-.21.1a.22.22 0 0 0 .06-.08c.01-.02 0-.03-.02-.03a.81.81 0 0 0-.37.08h-.01v-.02l.4-.23.05.01.04-.01v-.02l-.01-.03c-.03 0-.04-.03-.04-.06.14.05.2.05.17-.01Z" fill="#A2998E"/><path d="M13.54 12.36a.7.7 0 0 0 .2-.09c-.07.27-.15.48-.25.66-.12.21-.27.4-.45.54-.32.26-.73.42-1.22.5-.44.06-.9.04-1.38-.06-1.1-.23-2.24-.68-3.45-1.37l.43-.43c.01-.02.03-.02.05 0 .68.4 1.4.77 2.16 1.07.85.33 1.7.44 2.58.34a1.21 1.21 0 0 0 .5-.16c.29-.15.5-.27.6-.37a.71.71 0 0 0 .23-.63Z" fill="#BCC1C5"/><path d="M3.63 12.15c.1.03.19.04.29.04l.07.03c.03.02.07.05.11.1a.7.7 0 0 0 .1.08l.01.02v.02c-.01.01-.02.02-.03.01a.52.52 0 0 1-.2-.14.05.05 0 0 0-.05-.02c-.04 0-.1 0-.17-.02-.02 0-.03 0-.02.02v.02h.02l.3.25c.04.05.11.1.23.18.09.06.18.14.28.25.04.05.11.1.2.15a.7.7 0 0 1 .12.1l.13.12c.14.08.24.15.3.2.07.07.14.09.22.07.02 0 .03 0 .04.02l.04.09.03.02.04-.01.18-.17c.02-.02.02-.03 0-.05a.37.37 0 0 0-.16-.11c-.04-.01-.06-.04-.06-.07v-.02h.03l.36.16-.45.45c-.02.02-.03.02-.05 0-.18-.1-.35-.22-.5-.35l-.4-.34-1.13-.9v-.04l.12-.16Z" fill="#A2998E"/><path d="m5.85 13.11-.7-.34c-.22-.1-.32-.16-.31-.18 0-.01.12.03.33.13l.7.34v.01l-.02.04Z" fill="#BCC1C5"/></svg>