<!-- by TradingView --><svg width="18" height="18" viewBox="0 0 18 18" xmlns="http://www.w3.org/2000/svg"><path fill="url(#a)" d="M0 0h18v18H0z"/><path fill-rule="evenodd" d="M12.6 8.7a.55.55 0 0 1-.2-.26.12.12 0 0 1 0-.1c.47-1 .12-1.74-.69-2.34a.05.05 0 0 0-.07.02v.03a3.86 3.86 0 0 1-.34 1.4.1.1 0 0 1-.1.02.1.1 0 0 1-.04-.03l-.13-.1c-.06-.05-.08-.11-.04-.18.2-.45.28-.9.22-1.33l-.02-.05a.12.12 0 0 0-.06-.07 7.1 7.1 0 0 0-1.71-.45 16.8 16.8 0 0 0-3.22-.12c-.32-.02-.59-.01-.81.02-.2.02-.2.06 0 .12 1.94.54 3.9 1.24 5.63 2.37.6.38 1.1.84 1.5 1.35.87 1.28.32 2.42-.85 3.13a.24.24 0 0 0-.1.13c-.38 1.1-1.5 1.6-2.54 1.69a11.79 11.79 0 0 1-3.52-.22.06.06 0 0 1 0-.04c.07-.32.08-.61.03-.87a2.7 2.7 0 0 1-.03-.25.1.1 0 0 1 .04-.1l.6-.4c.68-.4 1.28-.85 1.82-1.36.58-.43 1.1-.92 1.58-1.46.15.06.25.18.32.35L7.9 11.37 6.2 12.55v.05h.03a19.2 19.2 0 0 0 4.26-2.15c.05-.03.09-.02.12.03l.1.17c.04.08.02.14-.05.19A15.9 15.9 0 0 1 6.27 13v.03a21.93 21.93 0 0 0 3.06-.42 7.63 7.63 0 0 0 1.62-.54l.01.02v.02c-.14.43-.4.58-.83.7-1.1.34-2.24.54-3.45.6-.24.02-.24.05 0 .09 1.46.24 5.4.21 4.4-2.58a4.2 4.2 0 0 0-.54-.92c-.57-.75-1.23-1.4-1.97-1.95A21.8 21.8 0 0 0 5 5.85V5.8l.15-.47a.95.95 0 0 0 .04-.36 3.66 3.66 0 0 0-.07-.38l.01-.04a16.45 16.45 0 0 1 2.9-.53c.62-.05 1.24 0 1.87.14a2.2 2.2 0 0 1 1.54 1.11c.05.1.13.18.22.25l.27.18c1.1.72 1.34 1.72.74 2.98l-.03.04-.06-.01ZM6.57 4.66a9.64 9.64 0 0 1 2.6-.17c.53.04 1.22.2 1.62.59.08.07.07.1-.03.06a10.97 10.97 0 0 0-3.6-.46h-.6c-.04 0-.04-.01 0-.02Zm3.97 3.22-2.68-1.3-1.79-.67h-.02v.06l.01.01c1.3.67 2.5 1.49 3.6 2.46a5.44 5.44 0 0 1 1.99 3.22.03.03 0 0 0 .03 0c.71-.53 1.16-1.22.67-2.14a5.1 5.1 0 0 0-1.81-1.64Z" fill="#fff"/><path d="m10.77 8.42-.26.37a.13.13 0 0 1-.07.04c-.03 0-.05 0-.07-.02l-.18-.21c-.03-.03-.03-.07 0-.1l.27-.37c.03-.05.07-.05.11-.02l.21.17c.03.02.04.05.02.09a.2.2 0 0 1-.03.05ZM11.8 9.26l-.57.59a.07.07 0 0 0 0 .09l.19.2c.02.03.06.03.08 0l.58-.58a.07.07 0 0 0 0-.09l-.19-.2a.06.06 0 0 0-.08 0Z" fill="#fff"/><defs><linearGradient id="a" x1="9" y1="0" x2="9" y2="18" gradientUnits="userSpaceOnUse"><stop stop-color="#293FA4"/><stop offset=".47" stop-color="#3156C9"/><stop offset="1" stop-color="#253291"/></linearGradient></defs></svg>