<!-- by TradingView --><svg width="18" height="18" viewBox="0 0 18 18" xmlns="http://www.w3.org/2000/svg"><path fill="#00F" d="M0 0h18v18H0z"/><path d="M11.03 6.99c-2.1-2.1-4.54-3.08-5.82-1.8-1.28 1.29-.3 3.72 1.8 5.83 2.1 2.1 4.51 3.09 5.81 1.79 1.3-1.3.31-3.72-1.79-5.82Z" fill="#fff"/><path d="M11.9 8.6a7.9 7.9 0 0 1 .92 1.73 3 3 0 0 1 .17.97c-.5.12-.97.12-1.4.04v-.17a2.15 2.15 0 0 0-.15-.54 5.47 5.47 0 0 0-.62-1.13 9.15 9.15 0 0 0-3.04-2.75c-.2-.1-.37-.17-.53-.23a1.55 1.55 0 0 0-.58-.09c-.07-.44-.08-.91.04-1.4h.02c.32 0 .64.06.97.17.49.16 1 .42 1.51.77a10.5 10.5 0 0 1 2.7 2.63Z" fill="#F79342"/><path d="m6.15 7.77.56-.72c.18-.23.39-.46.61-.69.9-.9 1.94-1.5 2.92-1.74.97-.24 1.95-.14 2.6.5a.85.85 0 0 1 .04.05c.64.65.74 1.62.5 2.6a6.48 6.48 0 0 1-1.74 2.91c-.22.22-.46.43-.7.61l-.71.57.1-.85-.51.47a10.1 10.1 0 0 1-2.36 1.56l-.9.4.43-.97a10.54 10.54 0 0 1-1.86.87l-.1-.37s.16-.04.45-.16a10.09 10.09 0 0 0 2.39-1.38l-.57 1.26c.17-.08.35-.16.53-.27a10.7 10.7 0 0 0 2.58-2.01l.44-.47-.13 1.06a7.13 7.13 0 0 0 .65-.59c1.71-1.7 2.26-3.93 1.24-4.98a1.05 1.05 0 0 0-.03-.03c-1.05-1.03-3.28-.48-5 1.23a7.35 7.35 0 0 0-.57.66l1.05-.14a13.49 13.49 0 0 0-1.25 1.28 10.7 10.7 0 0 0-1.5 2.27l1.27-.57-.43.6c-.5.78-.8 1.4-.96 1.8-.12.28-.16.44-.16.44l-.37-.1a.98.98 0 0 1 .02-.06A4.28 4.28 0 0 1 5 12c.13-.27.3-.61.53-1l-.97.44.4-.9A10.1 10.1 0 0 1 7 7.67l-.84.1Zm-1.12 5.2.1.37-.63.16.16-.62.37.1Z" fill="#fff"/><path d="M7 7.29c.18-.23.38-.45.59-.66 1.71-1.71 3.94-2.26 4.99-1.23a.75.75 0 0 1 .03.03c1.02 1.05.47 3.27-1.24 4.98-.21.22-.43.41-.65.59l.13-1.06c-.4.44-.83.86-1.28 1.25a9.73 9.73 0 0 1-2.27 1.5l.57-1.26c-1.66 1.24-2.84 1.54-2.84 1.54s.31-1.18 1.55-2.84l-1.27.57c.32-.71.84-1.5 1.5-2.27.39-.45.81-.88 1.25-1.28l-1.05.14Z" fill="#00F"/><path d="M6.46 6.76c.01.14.06.32.14.52a7.12 7.12 0 0 0 1.7 2.43 9.86 9.86 0 0 0 1.79 1.4 5.63 5.63 0 0 0 .78.36c.15.05.28.07.38.09a3.5 3.5 0 0 0 1.74-.04c0 .18-.04.37-.11.54a1.44 1.44 0 0 1-.92.85c-.18.06-.37.09-.56.09a3.1 3.1 0 0 1-.99-.18 6.54 6.54 0 0 1-1.54-.79 10.68 10.68 0 0 1-3.37-3.7 5.4 5.4 0 0 1-.31-.75 2.96 2.96 0 0 1-.17-1.09c.01-.18.05-.36.12-.54a1.44 1.44 0 0 1 .91-.85c.15-.05.3-.07.44-.08a3.5 3.5 0 0 0-.03 1.74Z" fill="#FBB042"/></svg>