<!-- by TradingView --><svg width="18" height="18" viewBox="0 0 18 18" xmlns="http://www.w3.org/2000/svg"><path fill="url(#ajn2zl40f)" d="M0 0h18v18H0z"/><path d="M15 9.12v-.23a3.05 3.05 0 0 0-.77-1.95 2.73 2.73 0 0 0-2.65-.87c-.58.13-1.07.46-1.49.9a98.85 98.85 0 0 1-.8.88l.79.84h.02l.78-.84.35-.32c.24-.18.5-.28.78-.3.83-.1 1.6.5 1.8 1.35.04.14.05.3.04.5a1.8 1.8 0 0 1-.86 1.5 1.59 1.59 0 0 1-1.95-.27 2323.15 2323.15 0 0 1-3.48-3.67 2.73 2.73 0 0 0-2.24-.6A2.97 2.97 0 0 0 3 8.83v.37a3.04 3.04 0 0 0 1.85 2.64 2.8 2.8 0 0 0 3.01-.74l.55.47h.02V9.61L8.4 9.6H6.6v.02l.43.6v.01a1.65 1.65 0 0 1-1.6.52 1.74 1.74 0 0 1-1.3-1.71c0-.48.14-.9.44-1.24.27-.32.64-.52 1.04-.57a1.62 1.62 0 0 1 1.46.6 3680.2 3680.2 0 0 1 3.3 3.5 2.74 2.74 0 0 0 1.57.67h.36c.72 0 1.43-.37 1.92-.93.47-.53.73-1.18.77-1.95Z" fill="url(#bjn2zl40f)"/><defs><linearGradient id="ajn2zl40f" x1="3.35" y1="3.12" x2="21.9" y2="24.43" gradientUnits="userSpaceOnUse"><stop stop-color="#1A1E21"/><stop offset="1" stop-color="#06060A"/></linearGradient><linearGradient id="bjn2zl40f" x1="3.41" y1="8.74" x2="14.04" y2="8.74" gradientUnits="userSpaceOnUse"><stop stop-color="#9E02D7"/><stop offset="1" stop-color="#5A6EFA"/></linearGradient></defs></svg>