<!-- by TradingView --><svg width="18" height="18" viewBox="0 0 18 18" xmlns="http://www.w3.org/2000/svg"><path fill="#F0F3FA" d="M0 0h18v18H0z"/><path d="M11.64 3.8a3.47 3.47 0 0 0-1.46-.38c-.18.02-.37 0-.55-.05a1.74 1.74 0 0 0-.58-.06c-1.12.07-2.1.46-2.96 1.17-.09 0-.13-.02-.12-.1a7.05 7.05 0 0 1 2.77-1.33 4.2 4.2 0 0 1 1.46.03c.55.09 1.05.26 1.48.5.04.02.05.05.01.08-.05.04-.07.1-.05.14Z" fill="#8FAFD7"/><path d="M8.74 3.05c-1.09.28-2 .72-2.77 1.33-.32.27-.67.67-1.05 1.2-.13.17-.17.33-.13.48.01.05.05.07.1.06.08-.02.12-.12.12-.3l.07.47a.19.19 0 0 0-.05-.02c-.06-.01-.07 0-.04.06.14.28.38.46.7.52a.13.13 0 0 1 .1.08c.01.04.02.09.01.14l-.2.21c-.04.04-.07.04-.11.01l-.12-.08c-.06-.29-.2-.43-.41-.41-.05 0-.08.03-.08.08 0 .56 0 1.12.02 1.67 0 .06.07.1.2.13.04.02.05.05.04.1-.01.1-.19.25-.23.38a.24.24 0 0 0-.1.05c-.03.04-.03.07.03.1l.26.1c.18.35.34.72.46 1.1.09.28-.03.46 0 .7 0 .05 0 .1-.03.13-.13.2-.19.43-.16.7a.2.2 0 0 1-.03.12l-.07.11a.79.79 0 0 1-.21-.32c0-.2-.04-.42-.12-.65a.18.18 0 0 1 0-.13l.04-.1c.04-.1 0-.14-.09-.13-.22.03-.35.15-.26.4l.14.36a1.4 1.4 0 0 0-.12.44.44.44 0 0 1-.28-.03c0-.34-.08-.52-.22-.55A8.37 8.37 0 0 1 3.48 9h-.04a.6.6 0 0 0 .02-.24c.06-.29.01-.59.1-.85.1-.3.16-.6.3-.9.35-.7.76-1.4 1.23-2.07a5.46 5.46 0 0 1 3.65-1.9Z" fill="#45253A"/><path d="M11.64 3.8a5.83 5.83 0 0 1 3.1 3.43c.15.43.23.86.22 1.29l-.08.68v.02a1.5 1.5 0 0 1-.03.03c-.03.03-.05.02-.06-.02l-.07-.4c-.03-.18-.06-.18-.08 0l-.02.2c.03-.61-.05-1.2-.25-1.79a3.74 3.74 0 0 0-.58-1.23 8.2 8.2 0 0 0-1.37-1.4 5.15 5.15 0 0 0-1.75-.8c-.05-.04-.13-.07-.23-.06-.04-.12-.15-.17-.3-.16-.16.02-.27.03-.32.02-.8-.05-1.57.07-2.31.36l-1.17.72a.66.66 0 0 0-.27.21l-.5.51a.17.17 0 0 0-.06.13c0 .24-.07.47-.2.7a.13.13 0 0 1-.1.06l-.1.02-.03-.03-.07-.47c.29-.5.65-.95 1.08-1.34.85-.71 1.84-1.1 2.96-1.17.22 0 .41 0 .58.06.18.05.37.07.55.05.45-.04 1.02.2 1.46.38Z" fill="#0F1D39"/><path d="M10.44 3.75c.1.27.26.51.48.71.06.05.12.06.2.02.04-.02.05-.05.02-.09l-.47-.58c.63.15 1.22.42 1.75.8a.92.92 0 0 1-.56.45c-.05.02-.09 0-.1-.06-.03-.1-.08-.16-.17-.18a.13.13 0 0 1-.1-.1.2.2 0 0 0-.05-.1.05.05 0 0 0-.08.02v.71c0 .05.02.08.06.1.32.15.58.35.8.6.03.04.07.06.12.04l.26-.1c.03-.02.05 0 .06.02l.02.05-.01.04-.37.18a2.5 2.5 0 0 1-1.02-.4 4.34 4.34 0 0 0-.7-.37c.44-.83-.12-1.2-.5-1.8a.11.11 0 0 0-.07-.05c-.02-.01-.05-.01-.07 0l-.06.02c-.05.02-.06.05-.02.09.42.42.7.99.49 1.58-.04.1-.12.16-.2.2v-.04c-.01-.04-.03-.06-.07-.06l-.63.04c.02-.15 0-.27-.07-.35a.18.18 0 0 0-.16-.06c-.04 0-.07.03-.07.08v.13c0 .04-.02.06-.05.06-.12-.01-.2-.06-.25-.13-.02-.04-.01-.08.03-.1l.08-.06c.04-.03.04-.05 0-.08a.09.09 0 0 0-.09 0c-.24.12-.51.16-.8.13a.11.11 0 0 0-.12.06c-.1.15-.26.2-.5.14a.24.24 0 0 1 0-.12.1.1 0 0 1 .08-.08.63.63 0 0 0 .22-.08c.08-.06.1-.13.07-.21a.1.1 0 0 0-.1-.07h-.13c-.05 0-.07-.02-.07-.07l-.01-.71c.74-.3 1.5-.41 2.31-.36.06 0 .16 0 .31-.02.16-.01.27.04.31.16Z" fill="#8FAFD7"/><path d="m7.5 3.97.02.7c0 .06.02.08.07.08h.13a.1.1 0 0 1 .1.07c.04.08.01.15-.07.2a.63.63 0 0 1-.22.09.1.1 0 0 0-.09.08c0 .04 0 .08.02.12-.57.34-.66-.13-1.05-.2-.07-.08-.1-.22-.07-.42l1.17-.72Z" fill="#618DCD"/><path d="M5.97 4.39c0 .07.03.1.12.09-.43.4-.8.84-1.08 1.34 0 .18-.04.28-.12.3-.05.01-.09 0-.1-.06-.04-.15 0-.3.13-.48.38-.53.73-.93 1.05-1.2Z" fill="#192E66"/><path d="M12.42 4.6c.55.46 1 .93 1.37 1.41.25.34.44.75.58 1.23l-.05 1.24-.1-1.36a.2.2 0 0 0-.05-.12c-.26-.27-.56-.3-.89-.08-.03.03-.06.02-.09-.01-.07-.1-.17-.15-.32-.16l-.57-.47.37-.18c.01 0 .02-.02.01-.04l-.02-.05c0-.03-.03-.04-.06-.03l-.26.1c-.05.03-.09.01-.12-.03a2.17 2.17 0 0 0-.8-.6.1.1 0 0 1-.06-.1v-.7a.05.05 0 0 1 .03-.05.05.05 0 0 1 .05.01.2.2 0 0 1 .05.1.13.13 0 0 0 .1.1c.09.03.14.09.17.2.01.05.05.07.1.05a.92.92 0 0 0 .56-.46Z" fill="#A4F8E8"/><path d="M6.34 4.69c-.03.2 0 .34.07.42-.05.49-.21.97-.47 1.46a.14.14 0 0 1-.14-.06c.23-.5.32-1.03.27-1.6.07-.1.16-.17.27-.22Z" fill="#727881"/><path d="M6.07 4.9c.05.58-.04 1.11-.27 1.6a.65.65 0 0 0-.42.03.6.6 0 0 1-.27-.21l.1-.02a.13.13 0 0 0 .1-.07c.13-.22.2-.45.2-.69 0-.05.02-.1.05-.13l.51-.5Z" fill="#393041"/><path d="M5.09 4.95c-.47.67-.88 1.36-1.23 2.08-.14.28-.2.6-.3.9-.09.25-.04.55-.1.84l-.1-.64c-.04-.22-.04-.44.01-.63.09-.37.2-.72.35-1.05.4-.61.85-1.11 1.37-1.5Z" fill="#9BA2A3"/><path d="M9.45 5.5a3.14 3.14 0 0 0-1.6.21l-1.14.72c-.16.18-.42.22-.77.14.26-.49.42-.97.47-1.46.39.07.48.54 1.05.2.23.06.4.01.5-.14a.11.11 0 0 1 .1-.06c.3.03.57-.01.81-.13a.09.09 0 0 1 .09 0c.04.03.04.05 0 .08l-.08.05c-.04.03-.05.07-.03.11.04.07.13.12.25.13.03 0 .05-.02.05-.06v-.13c0-.05.03-.08.07-.08.07 0 .12.02.16.06.07.08.1.2.07.35Z" fill="#B6C1B1"/><path d="M10.14 5.55c-.14.11-.34.2-.61.29-.14.04-.19.14-.15.3-.16.04-.34.04-.52.01a.1.1 0 0 1-.07-.06.09.09 0 0 1 .02-.1l.1-.1a.06.06 0 0 0 .02-.05.06.06 0 0 0-.05-.04.2.2 0 0 0-.13.02c-.03 0-.08.04-.15.1a.14.14 0 0 1-.13.01l-.62-.22c.54-.25.98-.24 1.6-.22l.63-.04c.04 0 .06.02.06.06v.04Z" fill="#5B6DAB"/><path d="M10.57 5.51c.25.1.49.23.7.38.37.24.64.32 1.03.4l.57.46c-.27.03-.41.15-.43.36a.57.57 0 0 1-.21 0 .36.36 0 0 0 .02-.21.1.1 0 0 0-.1-.09 1.46 1.46 0 0 0-.68.05c-.17-.05-.29-.13-.34-.22a.19.19 0 0 0-.1-.09c-.12-.04-.23-.1-.32-.18a.1.1 0 0 0-.13 0c-.28.17-.48.26-.58.27-.29.04-.3-.02-.04-.16l.62-.34a.05.05 0 0 0-.01-.1l-.5-.15.5-.38Z" fill="#618DCD"/><path d="M13.34 6.38a.6.6 0 0 0-.2-.11c-.08-.01-.11-.05-.11-.12v-.62a.05.05 0 0 1 .08-.04c.38.25.52.59.4 1 0 .07-.04.12-.09.14a.45.45 0 0 1-.11.04c-.06 0-.1-.02-.1-.1 0-.02.04-.05.12-.1.05-.03.05-.05 0-.09Z" fill="#8FAFD7"/><path d="m7.85 5.71.62.22a.14.14 0 0 0 .13-.02l.15-.1a.2.2 0 0 1 .13-.01.06.06 0 0 1 .05.04.06.06 0 0 1-.02.06l-.1.1a.1.1 0 0 0 .05.15c.18.03.36.03.52-.02.23 0 .46-.08.68-.24l.51.15a.05.05 0 0 1 .01.1l-.62.34c-.26.14-.25.2.04.16.1-.01.3-.1.58-.27a.1.1 0 0 1 .13 0c.09.08.2.14.32.18.05.02.08.05.1.09.05.1.17.17.34.22l-.13.33a.06.06 0 0 1-.06.04.07.07 0 0 1-.06-.03l-.17-.3a.22.22 0 0 0-.19-.1h-.75c-.08 0-.11.03-.1.1l.02.35c-.03.08-.1.1-.2.06-.04-.45-.34-.62-.89-.5-.04.07-.1.07-.16.02-.35-.13-.49-.06-.42.21-.11.09-.16.24-.15.45 0 .08-.05.14-.16.18l-.12-.6c.04-.34.36-.31.59-.5.04-.04.04-.07 0-.1-.1-.08-.15-.17-.14-.27a.07.07 0 0 0-.04-.07.07.07 0 0 0-.08.01l-.04.05a.25.25 0 0 1-.12.07c-.31.07-.47.25-.5.52h-.02a.36.36 0 0 1-.2.05c.04-.15 0-.25-.12-.29-.18-.07-.37-.1-.55-.11l1.14-.72Z" fill="#25419D"/><path d="M7.93 7.06c0-.2-.11-.29-.32-.28.02-.27.18-.45.49-.52a.25.25 0 0 0 .12-.07l.04-.05a.07.07 0 0 1 .12.06c-.01.1.03.2.14.27.04.03.04.06 0 .1-.23.19-.55.16-.59.5Z" fill="#618DCD"/><path d="M5.8 6.5c.03.05.08.07.14.07.35.08.61.04.77-.14.18 0 .37.04.55.11.12.04.16.14.12.29H6.44c-.11.01-.18 0-.2-.03-.33-.02-.61-.1-.86-.27a.65.65 0 0 1 .42-.02Z" fill="#0F1A69"/><path d="M3.72 6.45c-.15.33-.26.68-.35 1.05-.05.2-.05.4-.01.63l.1.64a.6.6 0 0 1-.02.24c-.09 1.06-.16 1.75.32 2.54a.12.12 0 0 0 .11.06c.13 0 .22-.02.28-.05.14.03.22.21.22.55l-.03.44c-.48-.07-.77-.3-.85-.7a2.3 2.3 0 0 0-.45-.94.2.2 0 0 1-.04-.13c.03-.76.04-1.54.03-2.33a2 2 0 0 1 .16-.76l.53-1.24Z" fill="#C0F4BE"/><path d="M7.58 6.77a.64.64 0 0 0 0 .5c.01.03.04.06.09.08.2.05.28.22.23.49-.15.15-.2.38-.15.67 0 .04-.01.08-.06.1-.07.01-.15 0-.24-.06-.02-.08-.02-.12.01-.1L7.37 7h-.03c.03-.07.02-.13 0-.18h.04c.06 0 .13-.02.2-.06Z" fill="#B6C1B1"/><path d="m6.44 6.83.04 1.78c-.13-.01-.21.04-.25.16l-.36-.04c-.05 0-.09 0-.13.03-.27.18-.45.43-.83.4.04-.13.22-.28.23-.37.01-.06 0-.1-.04-.11.06-.27.08-.51.06-.74-.01-.23.02-.23.09-.01.05.16.1.37.14.64.01.04.04.07.09.08.08.01.15 0 .2-.04a.15.15 0 0 0 .07-.1l.09-.63c.01-.03.03-.05.05-.06.05 0 .07.02.07.07v.65c0 .06.04.1.11.1h.06c.06 0 .09-.03.09-.08l.01-1.76c.03.03.1.05.21.03Z" fill="#61565E"/><path d="M8.94 6.82v1.74a.5.5 0 0 0-.2.02 7.14 7.14 0 0 1 .04-1.75c.06.05.12.05.16-.01Z" fill="#618DCD"/><path d="M7.34 7.02h.03l.1 1.43a.99.99 0 0 0-.65-.16.09.09 0 0 1-.1-.05V7.95c0-.06.03-.1.08-.1l.36-.07a.12.12 0 0 0 .1-.1c0-.04-.01-.07-.04-.1a.14.14 0 0 0-.1-.05 3.82 3.82 0 0 0-.38-.01c-.05 0-.07-.02-.06-.07a.64.64 0 0 0 0-.28.07.07 0 0 1 .07-.08l.59-.07Z" fill="#0F1A69"/><path d="M10.77 7.59c-.15-.06-.3-.1-.45-.1-.06 0-.08-.03-.07-.08a.36.36 0 0 0 0-.21c-.02-.05 0-.09.05-.1l.47-.09c.06-.01.1.01.12.06l.22.56v.1l-.22.52a.17.17 0 0 1-.07.09.17.17 0 0 1-.12.02l-.34-.07c-.1-.01-.12-.06-.07-.14.03-.06.04-.14.01-.22 0-.05 0-.08.05-.1l.42-.16c.07-.03.07-.05 0-.08Z" fill="#0F1D39"/><path d="M13.33 7.25c-.07.12-.15.05-.23-.2.17-.12.25-.05.23.2Z" fill="#727881"/><path d="M8.54 8.6c-.1-.11-.2-.11-.28 0l.05-.66c0-.05-.02-.08-.07-.08a.1.1 0 0 0-.06.03c-.03.02-.06.03-.08 0-.05-.03-.07-.1-.05-.22.11-.04.17-.1.16-.18-.01-.21.04-.36.15-.45.22.48.28 1 .18 1.55Z" fill="#8FAFD7"/><path d="m12.93 7.08.01.99c0 .07-.01.13-.05.18a.14.14 0 0 1-.22 0 .13.13 0 0 1-.02-.09V7.14a.1.1 0 0 1 .06-.09.25.25 0 0 1 .22.03Z" fill="#0F1D39"/><path d="m5.8 7.07-.14.82c-.03.17-.08.18-.14.02-.08-.2-.13-.43-.15-.7l.12.08c.04.03.07.03.1 0l.21-.22Z" fill="#61565E"/><path d="M9.21 7.09a.04.04 0 0 1 .04-.04h.02a.35.35 0 0 1 .26.11.4.4 0 0 1 .1.28v.53c0 .1-.03.2-.1.28a.35.35 0 0 1-.26.11h-.03a.04.04 0 0 1-.03-.02V7.09Z" fill="#25419D"/><path d="M12.23 7.1c.08.02.15.02.2 0a6.7 6.7 0 0 0 0 1.01c.04.6.7.63.72-.04.06-.08.11-.1.16-.09-.02.38.16.56.52.54.02.03.02.06 0 .09l-.02.01h-.02a3.28 3.28 0 0 0-1.16.3.1.1 0 0 1-.05-.03l-.05-.04c-.05-.1-.1-.15-.17-.17-.05 0-.09.01-.1.06-.03.08-.02.17.03.28-.29.17-.6.28-.9.35-.1.02-.1.05-.02.1.13.07.27.16.42.27.05.04.07.1.04.2-.08.27-.2.48-.38.63l-.19.08-.3-.03c-.05 0-.06-.02-.04-.07l.07-.19c.03-.06 0-.1-.06-.1h-.05a.15.15 0 0 0-.15.1c-.08.16-.15.44-.39.47l-.41-.53a.08.08 0 0 0-.14.01c-.02.05-.01.11.03.2.11.22.23.42.35.6a.1.1 0 0 0 .12.04c.07-.04.1-.09.1-.14a.7.7 0 0 1 .42.06l-.7.53a.67.67 0 0 0-.11-.3c-.04-.04-.08-.06-.12-.03a.1.1 0 0 0-.06.1c.02.19 0 .37-.04.54l-.14.08a.14.14 0 0 1-.13 0l-.27-.11-.47-.28c.1-.48 0-.85-.3-1.12-.54-.18-.53.26-.91.43l-.2-.87c.23-.22.2-.43-.09-.63a1.1 1.1 0 0 0-.6-.19.89.89 0 0 1 .12-.56l.66-.1c.1.05.17.06.24.04.05-.01.06-.05.06-.1-.05-.28 0-.5.15-.66 0 .62.11.87.36.76.08-.11.17-.11.28 0 .07.02.13.02.2-.02a.5.5 0 0 1 .2-.02c.13.05.3.06.52.02-.03.26.17.24.6-.04l.56.02.03.1c.02.04 0 .08-.05.1-.65.27-.05 1.6.61 1 .05-.04.04-.08 0-.11-.04-.02-.08-.03-.12 0l-.26.1a.13.13 0 0 1-.13-.03c-.11-.12-.17-.2-.17-.25.02-.28.12-.32.33-.1.04.04.12.06.23.05.05 0 .06-.03.04-.08-.1-.22-.25-.31-.46-.27-.04.01-.05 0-.04-.04l.02-.04a.14.14 0 0 1 .1-.09c.23-.06.4 0 .51.2.03.06.06.06.1.03l.03-.03v-.04a.67.67 0 0 0-.4-.37c-.1-.04-.13-.09-.08-.15.23-.1.13-.26.3-.4l.05-.02h.06c.02.01.04.03.04.05.06.18.13.3.21.36.05.03.1.05.14.04a.06.06 0 0 0 .04-.03.06.06 0 0 0 0-.06c-.2-.33-.27-.72-.22-1.16 0-.07.07-.13.19-.2h.05c.14 0 .22.07.21.2v1.1c0 .08.05.13.14.13h.05c.05 0 .08-.03.08-.09l-.02-1.35Z" fill="#0F1A69"/><path d="M13.1 7.05c.08.25.16.32.23.2.04.25.03.5-.02.73-.05-.02-.1 0-.16.09-.06-.05-.13-.05-.2 0l-.02-1c.09.05.15.04.17-.02Z" fill="#C0F4BE"/><path d="M13.6 7.43a1.69 1.69 0 0 0 0-.33.06.06 0 0 1 .04-.03h.03l.09.03a.1.1 0 0 1 .06.08 2.94 2.94 0 0 1-.02 1.02l-.04.03a.2.2 0 0 1-.2-.14.73.73 0 0 1-.02-.37l.07-.29Z" fill="#25419D"/><path d="M10.06 8.54c-.43.28-.63.3-.6.04.48-.13.42-.86.37-1.27.1.04.17.02.2-.06l.03 1.3Z" fill="#5B6DAB"/><path d="M14.37 7.24c.2.58.28 1.18.25 1.78l-.3 1.48c-.06 0-.1.02-.12.05-.2.28-.44.52-.7.72l-.26-.15c.27-.32.32-.54.16-.68a1.1 1.1 0 0 1-.02-.39c.05.06.12.08.2.06.04-.01.1-.04.14-.1.13-.16.25-.33.33-.5.12-.23.3-.37.46-.5a.03.03 0 0 0 0-.03l-.02-.1a.04.04 0 0 0-.02-.03.04.04 0 0 0-.04 0 .35.35 0 0 1-.25.09.11.11 0 0 1-.1-.09c-.04-.12 0-.2.1-.26a.36.36 0 0 0 .13-.1l.06-1.25Z" fill="#5BADED"/><path d="M7.29 7.96c.04.06-.02.15-.17.26-.07.05-.13.04-.18-.03-.05-.07-.03-.13.04-.17.16-.1.26-.12.3-.06Z" fill="#618DCD"/><path d="M10.91 8.54c-.05.06-.03.11.07.15.21.08.35.2.42.37v.04l-.04.03c-.04.03-.07.03-.1-.02-.1-.2-.28-.27-.51-.2a.14.14 0 0 0-.1.08l-.02.04c-.01.04 0 .05.04.04.21-.04.37.05.46.27.02.05 0 .08-.04.08-.11.01-.19 0-.23-.06-.2-.21-.31-.17-.33.11 0 .05.06.13.17.25a.13.13 0 0 0 .13.03l.26-.1c.04-.03.08-.02.11 0 .05.03.06.07.01.1-.66.6-1.26-.72-.6-1 .04-.01.06-.05.04-.1l-.03-.1.3-.01Z" fill="#5B6DAB"/><path d="M13.92 8.55c-.14.35-.39.58-.75.7a.18.18 0 0 1-.13-.01.71.71 0 0 0-.34-.08.12.12 0 0 0-.08.04l-.04.04c-.05.05-.04.08.02.1.24.04.4.14.5.3-.19-.06-.32-.03-.4.1a.19.19 0 0 1-.1.07l-.26.1a.14.14 0 0 0-.08.1c-.04.15-.15.25-.34.3-.06.02-.08 0-.06-.06.02-.05.05-.1.09-.14a.14.14 0 0 0 .05-.07.1.1 0 0 0 0-.07c-.02-.04-.05-.05-.1-.04h-.07c.03-.08.01-.15-.04-.2a3.4 3.4 0 0 0-.42-.26c-.09-.05-.08-.08.01-.1.32-.07.62-.18.9-.35.16-.04.24-.1.25-.17l.05.04a.1.1 0 0 0 .05.02 3.28 3.28 0 0 1 1.18-.3h.02c.02-.03.02-.06 0-.09.02.02.05.03.1.03Z" fill="#40BA6F"/><path d="M10.16 14.8a.61.61 0 0 0-.26-.02c.2-.03.28-.14.22-.31.07.03.13.02.18-.02a.29.29 0 0 1 .12-.07c.24-.06.67-.1.84-.28.04-.04.03-.06-.02-.07-.03 0-.04-.01-.06-.03-.02-.05-.01-.08.04-.1l.14-.06a.26.26 0 0 0 .11-.09c.37-.51.47-.8 1.18-1.08.33-.14.61-.17.86-.5.36-.47.75-1.06.81-1.67l.3-1.48.02-.2c.02-.17.05-.17.08.01l.07.4c0 .04.03.05.06.02l.03-.03V9.2l.08-.68a5.29 5.29 0 0 1-2.07 5.02c-.73.57-1.64 1-2.73 1.27Z" fill="#192E66"/><path d="M14.19 8.59c-.11.06-.15.14-.11.26.01.05.05.08.1.09.08 0 .17-.02.25-.08a.04.04 0 0 1 .06.02l.02.1V9c-.16.14-.34.28-.46.5-.08.18-.2.35-.33.51a.28.28 0 0 1-.15.1.18.18 0 0 1-.19-.06l-.28-.4c-.1-.17-.26-.27-.5-.31-.06-.02-.07-.05-.02-.1l.04-.04a.12.12 0 0 1 .08-.04c.12 0 .23.02.34.08.04.02.09.02.13 0 .36-.11.61-.34.75-.69l.27.04Z" fill="#A4F8E8"/><path d="m6.48 8.61.3.05a.89.89 0 0 0-.1.56c-.11.08-.22.11-.32.1-.05 0-.09-.02-.1-.06a1.04 1.04 0 0 1-.03-.5c.04-.11.12-.16.25-.15Z" fill="#45253A"/><path d="M12.53 8.85c-.01.08-.1.13-.24.17-.05-.11-.06-.2-.04-.28.02-.05.06-.07.1-.06.07.02.13.07.18.17Z" fill="#8FAFD7"/><path d="M6.23 8.77c-.03.17-.02.34.03.49.01.04.05.07.1.07.1 0 .2-.03.31-.1.24 0 .44.06.6.18.3.2.32.4.09.63-.1-.3-.22-.49-.38-.57-.1-.06-.28-.04-.51.07-.27.12-.53.2-.78.22-.13-.26-.33-.38-.6-.35l-.25-.1c-.06-.03-.06-.06-.02-.1a.24.24 0 0 1 .09-.05c.38.03.56-.22.83-.4a.18.18 0 0 1 .13-.03l.36.04Z" fill="#5B6DAB"/><path d="M7.7 8.81c-.01.11.03.19.12.23a.1.1 0 0 1 .06.1.5.5 0 0 1-.12.27.22.22 0 0 1-.08.02l-.05-.02-.48-.4c-.09-.09-.08-.15.04-.19.21-.07.38-.08.51 0Z" fill="#618DCD"/><path d="M7.76 9.41a.5.5 0 0 0 .12-.28.1.1 0 0 0-.06-.1c-.1-.03-.13-.1-.12-.22.18-.09.32-.07.45.05.03.03.07.04.11.04h.38a.06.06 0 0 1 .05.04.06.06 0 0 1 0 .06c-.16.17-.29.3-.4.38-.11.09-.21.1-.29.05a.18.18 0 0 0-.13-.03l-.1.01Z" fill="#25419D"/><path d="M4.15 11.56a.57.57 0 0 1-.28.05.12.12 0 0 1-.1-.06c-.5-.8-.42-1.48-.33-2.54a5.68 5.68 0 0 1 .05.01c.1.91.31 1.76.66 2.54Z" fill="#727881"/><path d="M13.58 9.77a.07.07 0 0 1-.05.03.07.07 0 0 1-.05-.02l-.03-.02a.6.6 0 0 1-.17-.21c-.04-.08-.04-.14 0-.18l.01-.02c.04-.04.1-.05.18-.04.08.02.16.06.24.12l.03.02a.07.07 0 0 1 .01.1l-.17.22Z" fill="#40BA6F"/><path d="M5.69 9.76c.07.16.15.33.25.5.1.2.24.33.39.4.23.13.45.27.65.42.03.03.08.04.14.04.05 0 .1 0 .15-.02l-.29.3-.1.02-1.1-.69a.1.1 0 0 0-.14.09v.32c0 .04.01.08.04.11.09.08.13.15.13.21 0 .26 0 .52.04.8l-.15.17c-.15-.07-.28-.1-.38-.06 0-.03-.02-.06-.05-.1l.07-.1a.2.2 0 0 0 .03-.13c-.03-.27.03-.5.16-.7a.19.19 0 0 0 .03-.13c-.03-.24.09-.42 0-.7a6.68 6.68 0 0 0-.46-1.1c.26-.03.46.09.59.35Z" fill="#5B6856"/><path d="m7.36 10.04.2.87c-.02.05-.04.07-.06.07l-.23.12-.15.02c-.06 0-.1-.01-.14-.04-.2-.15-.42-.3-.65-.41a.94.94 0 0 1-.39-.4l-.25-.5c.25-.04.51-.11.78-.23.23-.1.4-.13.51-.07.16.08.28.27.38.57Z" fill="#290D4E"/><path d="M12.3 9.65c-.08.03-.11.1-.17.13a.07.07 0 0 1-.08 0c-.08-.06-.02-.14.2-.23.23-.1.33-.1.31 0 0 .04-.02.06-.05.06-.06.02-.13 0-.21.04Z" fill="#86F17A"/><path d="m13.1 9.64.28.41c-.02.16-.01.3.02.4-.11.26-.23.36-.37.31l-.37-.33a.12.12 0 0 0-.13-.03.8.8 0 0 0-.49.45.31.31 0 0 0-.18.1h-.06a.14.14 0 0 0-.1.08c-.15.26-.3.42-.43.48-.3.12-.52.3-.67.53l-.4.22c-.06-.25-.05-.44.04-.57.16-.21.44-.4.84-.54a.14.14 0 0 0 .09-.1.68.68 0 0 1 .3-.35c.04-.02.05-.05.03-.1-.01-.02-.03-.03-.05-.03.18-.15.3-.36.38-.63l.07-.01c.05-.01.08 0 .1.04a.1.1 0 0 1 0 .07c0 .02-.02.04-.05.07a.32.32 0 0 0-.09.14c-.02.06 0 .08.06.06.19-.05.3-.15.34-.3a.14.14 0 0 1 .08-.1l.26-.1a.19.19 0 0 0 .1-.07c.08-.13.21-.16.4-.1Z" fill="#35A53B"/><path d="M10.34 10.83c0 .07.02.13.04.18.01.05-.02.1-.09.14a.1.1 0 0 1-.12-.03 7.7 7.7 0 0 1-.35-.62c-.04-.08-.05-.14-.03-.19a.08.08 0 0 1 .14-.01l.41.53Z" fill="#2562C1"/><path d="M11.26 10.65c-.1.16-.25.3-.45.42a.7.7 0 0 0-.43-.06.37.37 0 0 1-.04-.18c.24-.03.31-.31.39-.48.03-.06.08-.1.15-.09h.05c.07 0 .1.04.06.1l-.07.2c-.02.04 0 .06.04.06l.3.03Z" fill="#25419D"/><path d="m13.03 10.76-.52.13c-.07.02-.07.05-.01.09l.18.12c.03.02.04.05.01.08l-.03.03c-.02.02-.05.02-.1.02a.86.86 0 0 1-.52-.38.8.8 0 0 1 .5-.45c.04-.01.08 0 .12.03l.37.33Z" fill="#192E66"/><path d="m8.48 10.48-.23.14a.34.34 0 0 0-.09.08.3.3 0 0 0-.05.09.23.23 0 0 0-.01.1c0 .02 0 .05.03.08.05.08.06.18.03.3l-.66-.29c.02 0 .04-.02.06-.07.38-.17.37-.61.92-.43Z" fill="#5B6DAB"/><path d="m8.77 11.6-.25-.1-.36-.24a.37.37 0 0 0-.03-.3.19.19 0 0 1-.03-.08l.01-.1a.3.3 0 0 1 .05-.08.34.34 0 0 1 .09-.08l.23-.14c.3.27.4.64.3 1.12Z" fill="#290D4E"/><path d="M13.24 11.12a.8.8 0 0 1-.86.3 1.35 1.35 0 0 1-.52-.48.32.32 0 0 1 .18-.09c.14.2.32.33.53.38.04 0 .07 0 .1-.02l.02-.03c.03-.03.02-.06-.01-.08l-.18-.12c-.07-.04-.06-.07.01-.09l.52-.13c.14.05.26-.05.37-.32.16.14.1.36-.16.68Z" fill="#25419D"/><path d="M14.32 10.5c-.06.6-.45 1.2-.81 1.67-.25.33-.53.36-.86.5-.7.28-.81.57-1.18 1.08a.26.26 0 0 1-.1.1l-.15.05c-.05.02-.06.05-.04.1.02.02.03.03.06.03.05.01.06.03.02.07-.17.17-.6.22-.84.28a.29.29 0 0 0-.12.07c-.05.04-.11.05-.18.02a.1.1 0 0 1-.06-.06c.03-.17 0-.29-.1-.37a.83.83 0 0 1-.36-.8c.14-.04.23.01.27.15.02.07.06.12.11.16.05.04.07.02.06-.03l-.08-.42c-.01-.04 0-.07.05-.07l.18-.04c.1-.02.15.02.14.13-.02.19-.17.27-.17.5 0 .41.08.5.25.25.15.12.28.08.38-.11.25-.47.5-.78.73-.95.24-.17.62-.58.97-.66.28-.05.92-.13.82-.54a.12.12 0 0 1 .04-.13.38.38 0 0 0 .14-.21c.27-.2.5-.44.7-.72.03-.03.07-.05.13-.05Z" fill="#2562C1"/><path d="M11.45 10.57c.02 0 .04 0 .05.04.02.04.01.07-.03.1a.67.67 0 0 0-.3.34.14.14 0 0 1-.09.1c-.4.15-.68.33-.84.54-.09.13-.1.32-.04.57-.14.21-.45.58-.75.37a.27.27 0 0 0-.07-.06l-.14-.7.27.12c.05.02.09.02.13 0l.14-.08.33-.31.7-.53c.2-.12.35-.26.45-.42l.2-.08Z" fill="#40BA6F"/><path d="m6.89 11.42-1.04.85a6.25 6.25 0 0 1-.04-.8c0-.07-.04-.14-.13-.22a.15.15 0 0 1-.04-.11v-.32a.1.1 0 0 1 .05-.09.1.1 0 0 1 .1 0l1.1.7Z" fill="#393041"/><path d="M5.06 11.95c-.13-.02-.22-.1-.29-.25l-.14-.36c-.1-.25.04-.37.26-.4.1 0 .13.03.1.12l-.05.1a.18.18 0 0 0 0 .14c.08.23.12.45.12.65Z" fill="#727881"/><path d="M11.86 10.94c.08.16.25.32.52.48-.25.06-.44.15-.57.28-.01.01-.02.03-.01.04l.02.03c.03.02.05.02.08 0 .17-.08.32-.13.43-.15a.3.3 0 0 1 .06 0c.08 0 .12.04.13.09 0 .03 0 .05-.03.07l-.63.24c-.18.07-.34.19-.47.35l-.47.6c-.1-.2-.08-.36.08-.5.12-.1.1-.15-.06-.13-.16.02-.25.13-.26.35 0 .04 0 .07-.02.08-.02.03-.06.03-.11.02a.04.04 0 0 1-.03-.04v-.02a.86.86 0 0 0 .08-.69c.15-.23.37-.4.67-.53.14-.06.28-.22.42-.48a.14.14 0 0 1 .11-.07l.06-.02Z" fill="#0F1A69"/><path d="m7.5 10.98.66.28.36.24c-.14.3-.07.43.2.6.12.08.19.17.2.27l-1.2-.56-.31-.04a.93.93 0 0 1-.43-.37l.29-.3.23-.12Z" fill="#86F17A"/><path d="m13.24 11.12.25.15a.37.37 0 0 1-.14.21.12.12 0 0 0-.04.12c.1.42-.54.5-.82.55-.35.08-.73.5-.97.66-.24.17-.48.48-.73.95-.1.2-.23.23-.38.11.12-.22.18-.45.17-.7 0-.1.01-.18.05-.21.06-.06.16-.05.29 0l.47-.59c.13-.16.29-.28.47-.35l.63-.24c.03-.02.04-.04.03-.07 0-.05-.05-.08-.13-.09a.3.3 0 0 0-.06 0c-.11.02-.26.07-.43.16a.07.07 0 0 1-.08 0 .08.08 0 0 1-.02-.04v-.04c.14-.13.33-.22.58-.28a.8.8 0 0 0 .86-.3Z" fill="#618DCD"/><path d="m10.11 11.6-.33.3c.04-.16.06-.34.04-.53a.1.1 0 0 1 .06-.1c.04-.03.08-.01.12.03.05.07.09.17.11.3Z" fill="#2562C1"/><path d="M6.98 11.4c.1.16.24.28.43.37a.4.4 0 0 1-.23.2c-.5.41-.86.36-1.38.54l-.1-.08.15-.16 1.04-.85a.27.27 0 0 1 .1-.02ZM8.77 11.6l.47.28.14.69a1.28 1.28 0 0 1-.45-.2c-.02-.1-.09-.19-.2-.26-.28-.18-.35-.3-.21-.61l.25.1Z" fill="#35A53B"/><path d="M5.06 11.95c.02.09.09.2.2.32a5.25 5.25 0 0 0 1.18 1.14c.69.45 1.47.76 2.36.93.38.1.8.13 1.26.07 0 .03.03.04.06.06.06.17-.01.28-.22.3-.24.06-.4.07-.5.04-.2-.05-.57-.11-1.14-.18a5.4 5.4 0 0 1-2.53-1.15c-.45-.4-.81-.84-1.08-1.34 0-.12.05-.27.12-.44.07.15.16.23.29.25Z" fill="#1F3B34"/><path d="M7.72 11.81c.06.36.13.71.22 1.04.07.27.04.65-.1 1.13a.84.84 0 0 1-.26-.15.12.12 0 0 1-.04-.1c.06-.3.01-.5-.13-.64a.13.13 0 0 1-.05-.13 2.2 2.2 0 0 0-.02-.82c-.01-.06-.04-.06-.07 0l-.02.04-.07-.2a.4.4 0 0 0 .23-.21l.3.04Z" fill="#0F1D39"/><path d="M8.93 12.37c.12.09.27.15.45.2l.07.06-.08.02a.08.08 0 0 0-.02.14c.15.11.23.26.25.45-.04.32.08.6.35.8.1.08.14.2.1.37-.45.06-.87.04-1.25-.07a.35.35 0 0 0 .03-.15l.05-.03a.14.14 0 0 0 .05-.1.88.88 0 0 0-.1-.53c-.18-.3-.28-.27-.32.08 0 .1 0 .28.04.53l-.7-.16c.13-.48.16-.86.1-1.13-.1-.33-.17-.68-.23-1.04l1.2.56Z" fill="#255960"/><path d="m7.18 11.98.07.2c-.06.3.1.76-.17.96a.1.1 0 0 0-.05.11l.05.24a.05.05 0 0 1-.01.04.05.05 0 0 1-.04.01c-.5-.06-.35-.42-.38-.76-.01-.05-.04-.08-.09-.1-.17-.04-.31.01-.42.15-.03.04-.07.05-.11.03-.14-.05-.22-.17-.23-.35.52-.17.88-.13 1.38-.53Z" fill="#1E1331"/><path d="M10.6 12.04c.07.22.05.45-.08.7a.04.04 0 0 0 .03.05c.05.01.09.01.11-.02l.02-.08c.01-.22.1-.33.26-.35.16-.02.18.03.06.13-.16.14-.18.3-.08.5-.13-.06-.23-.07-.29-.01-.04.03-.06.1-.05.22 0 .24-.05.47-.17.7-.17.23-.25.15-.25-.26 0-.23.15-.31.17-.5 0-.1-.04-.15-.14-.13l-.18.04c-.04 0-.06.03-.05.07l.08.42c.01.05 0 .07-.06.03a.28.28 0 0 1-.11-.16c-.04-.14-.13-.19-.27-.15a.64.64 0 0 0-.25-.45.08.08 0 0 1-.03-.08.08.08 0 0 1 .05-.06l.08-.02c.3.21.6-.16.75-.37l.4-.22Z" fill="#25419D"/><path d="M4.65 12.14c.27.5.63.95 1.08 1.34.3.51.9.95 1.81 1.3-.89-.12-1.56-.4-2.02-.84L4.55 13c-.1-.09-.16-.24-.2-.45l.02-.44c.1.04.2.05.28.03Z" fill="#79A9A2"/><path d="m7.85 13.98.7.16.28.05c0 .03 0 .08-.03.15a6.63 6.63 0 0 1-2.35-.93 5.25 5.25 0 0 1-1.13-1.04c.1-.04.23-.01.38.06l.1.08c.01.18.09.3.23.35.04.02.08 0 .11-.03.1-.14.25-.19.42-.14.05 0 .08.04.09.09.03.34-.13.7.38.76a.05.05 0 0 0 .04-.01.05.05 0 0 0 .01-.04l-.05-.24a.1.1 0 0 1 .05-.11c.27-.2.11-.66.17-.96l.02-.05c.03-.05.06-.05.07.01.06.28.07.55.02.82 0 .05 0 .1.05.13.14.13.19.34.13.63 0 .04 0 .08.04.11.05.05.14.1.27.15Z" fill="#346752"/><path d="m8.83 14.2-.28-.06a2.66 2.66 0 0 1-.04-.53c.04-.35.14-.37.32-.08.08.14.12.31.1.53 0 .04-.02.07-.05.1l-.05.03Z" fill="#0F1D39"/><path d="M9.9 14.78c.1-.01.19 0 .26.03-.64.15-1.26.22-1.86.18-.32-.02-.57-.1-.76-.21-.91-.35-1.52-.79-1.81-1.3a5.4 5.4 0 0 0 2.53 1.15c.57.07.95.13 1.15.18.09.03.25.02.49-.03Z" fill="#727881"/></svg>