<!-- by TradingView --><svg width="18" height="18" viewBox="0 0 18 18" xmlns="http://www.w3.org/2000/svg"><path fill="#5183FC" d="M0 0h18v18H0z"/><path d="M7.1 4.68 6.6 8.1c.53-.15 1.32-.34 2.26-.52l.34-2.46h.7l.3 2.24c.69-.1 1.42-.19 2.16-.25l-.28-2.17-1.21-.62c-.72.18-1.64.17-2.01.14L6.09 4l1.01.68ZM5.85 13l.25-1.63.2.2c.74-.53 1.5-1.03 2.21-1.48l-.2 1.46L5.86 13Zm5.1-.23-.53-3.8c.83-.46 1.54-.81 2.04-1.04l.58 4.56-2.1.28ZM14 7.07C8.09 7.46 3.87 9 2.5 9.71l1.32.45C4.92 9.6 7 8.66 8.97 8.22c-2.32.7-4.14 1.65-4.84 2.05l1.13.39c.66-.41 2.01-1.18 3.33-1.73-.06.02-1.95 1.14-2.87 1.89l.95.33c1.38-.98 4.78-3.16 7.33-4.08Z" fill="#fff"/></svg>