<!-- by TradingView --><svg width="18" height="18" viewBox="0 0 18 18" xmlns="http://www.w3.org/2000/svg"><path fill="#F0F3FA" d="M0 0h18v18H0z"/><path d="M9.03 4.09c1.26-.24 2.76 0 3.74.97 1.2 1.19 1.5 3.13 1.01 4.8-.72 2.53-3.05 4.23-5.19 5.13a.08.08 0 0 1-.07 0 9.16 9.16 0 0 1-3.54-3.53 6.76 6.76 0 0 1-.84-4.76c.55-2.28 2.47-2.98 4.4-2.6.15.02.32.02.5-.01Z" fill="#161519"/><path d="M8.18 5.57c.01.1.03.1.04 0 .1-.62.33-1.06.95-1.14 1.6-.21 3.28.2 4.08 1.92.29.62.42 1.3.4 2.01 0 .03 0 .03-.03.01a4.65 4.65 0 0 0-6.58-.4c-.02.01-.03 0-.03-.03.02-.35.13-.67.33-.95v-.02h-.02c-.18.17-.3.37-.38.6-.02.06-.05.06-.07 0l-.16-.44H6.7l-.01.02c.08.29.1.57.08.85 0 .03-.01.03-.03 0a2.36 2.36 0 0 0-2.27-.96c-.03 0-.04-.01-.04-.05.47-2.23 2.14-2.83 3.99-2.55.03 0 .03.02.02.04-.21.33-.3.7-.25 1.09Z" fill="#FDB5A3"/><path d="m9.15 11.3-.26-.27a4.46 4.46 0 0 1-1.3-3.05c.38-.28.8-.48 1.26-.62a4.73 4.73 0 0 1 2.87.09c.72.25 1.31.71 1.8 1.38.04.07.05.2.02.36-.17 1.04-.79 1.95-1.73 2.23-.86.25-1.82.13-2.66-.11Z" fill="#E11A5D"/><path d="M4.9 7.5c.02.75.13 1.4.33 1.97.35.95 1.2 1.48 2.08 1.67a14.8 14.8 0 0 0 .75.13c.01-.01.02-.03.01-.06.07.03.12.07.15.12.02.02.01.04-.02.04-1.14.13-2.27-.12-3.04-1.09a3.86 3.86 0 0 1-.74-1.52c-.07-.3-.1-.7-.06-1.17 0-.03.01-.05.04-.05l.5-.04Z" fill="#B01D46"/><path d="m8.07 11.21-.01.06a.05.05 0 0 1-.07.01 14.8 14.8 0 0 1-.68-.14 2.73 2.73 0 0 1-2.08-1.67 6.01 6.01 0 0 1-.32-1.97c.7.06 1.23.4 1.6.99.06.12.15.34.25.67.25.82.69 1.51 1.31 2.05Z" fill="#E11A5D"/><path d="M7.6 7.98c.1 1.21.43 2.25 1.29 3.05l.26.28c-1.12-.39-1.9-1.48-2.17-2.7 0-.04 0-.07.03-.1l.58-.53Z" fill="#B01D46"/><path d="M11.93 12.32a8 8 0 0 1-1.8.06 3.76 3.76 0 0 1-1.21-.36.08.08 0 0 0-.08 0c-.2.12-.47.19-.81.21-.9.07-1.75-.13-2.52-.58-.2-.3-.38-.62-.53-.97-.05-.11-.04-.12.04-.03.93 1.1 2.41 1.3 3.7 1l.09.01c.47.2 1.06.32 1.77.36a3.7 3.7 0 0 0 1.85-.34c.04-.02.04-.01.02.02l-.52.62Z" fill="#BC6854"/><path d="M11.93 12.32c-1 1-2.1 1.74-3.32 2.25a.08.08 0 0 1-.07 0 8.73 8.73 0 0 1-3.03-2.92c.77.45 1.62.65 2.52.58.34-.02.61-.1.81-.2a.08.08 0 0 1 .08 0c.43.2.83.31 1.2.35a8 8 0 0 0 1.81-.06Z" fill="#F98F80"/><path d="M12.76 9.14c.1.76-.14 1.5-.8 1.82-.11.06-.13.04-.03-.06.41-.46.55-1.06.46-1.7a1.93 1.93 0 0 0-.9-1.48c-.12-.07-.1-.09.02-.07.71.1 1.15.73 1.25 1.49Z" fill="#F43476"/></svg>