<!-- by TradingView --><svg width="18" height="18" viewBox="0 0 18 18" xmlns="http://www.w3.org/2000/svg"><path fill="#F0F3FA" d="M0 0h18v18H0z"/><path d="m11.15 3.56-.63.17a.2.2 0 0 0-.08.04.19.19 0 0 0-.06.17c0 .03.01.06.03.08.06.08.07.15.02.22-.04.07-.1.1-.17.1s-.11-.03-.13-.1A.3.3 0 0 0 9.88 4a.08.08 0 0 0-.06.01.07.07 0 0 0-.03.06c0 .03-.01.06-.04.08-.1.07-.26.05-.38.12a.24.24 0 0 0-.13.13c-.1.29-.3.38-.6.26-.16-.1-.3-.04-.4.16a.28.28 0 0 1-.12.13l-.54.29c-.17 0-.32.03-.47.08a.23.23 0 0 0-.15.15c-.06.17-.01.31-.09.48a.93.93 0 0 1-.23.31c-.18.15-.16.23.08.24.57.02 1.01-.18 1.33-.6a.45.45 0 0 1 .21-.16c.21-.07.32-.04.32.08a.1.1 0 0 1-.02.05.1.1 0 0 1-.04.04l-.56.22a.17.17 0 0 0-.1.12l-.05.17a.16.16 0 0 1-.13.12 7.2 7.2 0 0 1-1.47.2c-.33.01-.5.26-.53.56l-.17.1a.77.77 0 0 1-.3.07c.25-.48.52-.95.82-1.4.33-.5.68-.87 1.07-1.1a6.04 6.04 0 0 1 2.32-.86c.78-.12.48-.85 1.13-1.1a.22.22 0 0 1 .17 0c.25.1.4.27.43.54Z" fill="#C3AE89"/><path d="m11.15 3.56-.09.77a.16.16 0 0 0 .07.14 8.23 8.23 0 0 1 2.08 2.16c.23.37.33.87.3 1.5 0 .05 0 .1.02.13.02.05.05.08.09.11.52.45.39 1.7.28 2.48v-.43a.23.23 0 0 0-.06-.16.88.88 0 0 1-.23-.57c0-.05.02-.08.08-.06a.2.2 0 0 1 .07.03.1.1 0 0 0 .13-.02.12.12 0 0 0 .02-.09c0-.04-.03-.08-.08-.1l-.6-.19a.21.21 0 0 1-.1-.05.2.2 0 0 1-.04-.1c-.09-.39-.24-.78-.47-1.15a.29.29 0 0 1 0-.32.09.09 0 0 1 .05-.03h.06l.3.12h.05l.04-.04.04-.07c.01-.03 0-.05-.03-.07l-.34-.13c-.13-.05-.12-.1 0-.14l.15-.05c.02 0 .03-.01.03-.02a.06.06 0 0 0 0-.08.06.06 0 0 0-.04-.01.5.5 0 0 1-.45-.32.44.44 0 0 0-.13-.17c-.16-.12-.22-.23-.17-.3.05-.02.08-.04.09-.07.02-.07 0-.1-.08-.09a.65.65 0 0 1-.37-.05c-.1-.05-.1-.1 0-.16a.12.12 0 0 0 .05-.04c.05-.1.02-.14-.08-.14-.13 0-.2-.06-.2-.18 0-.07.01-.13.06-.19.05-.05.05-.1-.01-.16-.08-.06-.18-.07-.3-.03a.37.37 0 0 0-.17.17 1.77 1.77 0 0 0-.84-.26.24.24 0 0 1-.18-.1.24.24 0 0 0-.21-.09.2.2 0 0 0-.14.07c-.36.37-.68.77-.97 1.18-.34.47-.98.57-1.5.7-.05 0-.06.02-.05.06l.01.06.05.07c.02.02.05.03.08.02l.6-.04c.06 0 .1.02.1.09 0 .04-.01.07-.05.08a.23.23 0 0 0-.02-.05.08.08 0 0 0-.08-.05c-.42.02-.62.12-.6.3 0-.19-.05-.28-.15-.27-.36-.07-.65-.02-.88.15a.24.24 0 0 0 0-.15c-.02-.07-.07-.1-.14-.1-.17.01-.34.1-.52.25.02-.3.2-.55.53-.56a7.2 7.2 0 0 0 1.47-.2c.07-.01.1-.05.12-.12l.05-.17c.02-.05.05-.1.11-.12l.56-.22a.1.1 0 0 0 .04-.04.1.1 0 0 0 .02-.05c0-.12-.1-.15-.32-.08a.45.45 0 0 0-.22.16c-.3.42-.75.62-1.32.6-.24 0-.27-.08-.08-.24.09-.07.17-.18.23-.31.08-.17.03-.31.08-.48a.23.23 0 0 1 .16-.15c.15-.05.3-.08.47-.08.04.09.1.17.16.23.05.04.1.06.17.04.45-.09.93-.29.74-.85.29.12.49.03.6-.26.02-.06.06-.1.12-.13.12-.07.28-.05.38-.12a.08.08 0 0 0 .04-.08.07.07 0 0 1 .03-.06.08.08 0 0 1 .06-.01c.13.03.22.1.25.23.02.07.06.1.13.1s.13-.03.17-.1c.04-.07.04-.14-.02-.22a.19.19 0 0 1-.02-.17.19.19 0 0 1 .05-.08.2.2 0 0 1 .08-.04l.63-.17Z" fill="#7E706B"/><path d="M8.65 4.67c.19.56-.29.76-.74.85a.2.2 0 0 1-.17-.04.65.65 0 0 1-.16-.23l.54-.29c.05-.03.1-.07.12-.13.1-.2.24-.25.4-.16Z" fill="#2B211D"/><path d="m11.17 5.39-.08.28c-.02.08 0 .14.07.18.15.09.25.21.3.37.03.08.08.11.15.1h.57c-.05.08 0 .19.17.31.05.05.1.1.13.17.08.2.23.3.45.32l.03.01a.06.06 0 0 1 .01.08s-.01.02-.03.02l-.14.05c-.13.04-.14.09 0 .14l.33.13c.03.02.04.04.03.07l-.04.07c0 .02-.02.03-.04.04h-.05l-.3-.12h-.06a.09.09 0 0 0-.05.03c-.06.1-.06.21 0 .32.23.37.38.76.47 1.16 0 .03.02.06.05.09.02.02.05.04.09.05l.6.2c.05.01.08.05.08.1 0 .03 0 .06-.02.08a.1.1 0 0 1-.13.02.2.2 0 0 0-.07-.03c-.06-.02-.08 0-.08.06 0 .23.09.42.23.57.04.05.06.1.06.16v.43l-.08.88c0 .07-.04.12-.1.15-.25.13-.51.2-.79.23a.28.28 0 0 0-.17.07 1.5 1.5 0 0 0-.34.47l-.01-.5c0-.07.03-.12.1-.15l.34-.11c.09-.03.1-.09.05-.16l-.3-.4c-.05-.07-.12-.1-.2-.08-.36.1-.58.29-.65.6a.16.16 0 0 1-.14.13l-.35.07a.22.22 0 0 0-.1.05.2.2 0 0 0-.07.2l.05.1.43.45c.07.08.05.11-.06.1a1.39 1.39 0 0 1-.87-.5.2.2 0 0 1-.04-.17.2.2 0 0 1 .12-.14c.22-.08.28-.23.17-.44a.12.12 0 0 0-.06-.05.12.12 0 0 1-.08-.08c-.03-.08 0-.12.08-.13.28-.03.5-.13.67-.32.2-.2.15-.3-.13-.3-.13 0-.18-.06-.15-.2.08-.18.22-.27.42-.27.02 0 .04 0 .05-.03a.1.1 0 0 0 .01-.06.08.08 0 0 0-.05-.07 1.02 1.02 0 0 1-.38-.24 1 1 0 0 0-.25-.47c-.22-.19-.5-.23-.81-.14-.47.13-.7.47-.67 1 0 .07.03.12.08.15l.18.1c-.07 0-.1.06-.09.2-.08.5-.36.48-.6.76h-.02l-.4-.26a1.8 1.8 0 0 0-.37-.73.17.17 0 0 0-.07-.06.18.18 0 0 0-.17.03.17.17 0 0 0-.06.07 1.1 1.1 0 0 1-.56.59.16.16 0 0 1-.2-.04.15.15 0 0 1-.03-.07c-.08-.45.09-.69.5-.7.02 0 .05-.01.07-.03a.15.15 0 0 0 .06-.08.18.18 0 0 0 .06-.13c.1.02.15-.02.17-.13.04-.27 0-.48-.11-.61a.3.3 0 0 1-.08-.18.49.49 0 0 1 .1-.35.22.22 0 0 0 .02-.23l-.16-.4c-.05-.13-.1-.13-.12 0l-.11.41c-.05.05-.1.06-.16.05a.18.18 0 0 1-.13-.12l-.13-.39c-.02-.05 0-.1.04-.12.13-.1.24-.2.32-.31l.5-.53c.04-.01.05-.04.05-.08 0-.07-.04-.1-.1-.09l-.6.04c-.03 0-.06 0-.08-.02a.12.12 0 0 1-.05-.07l-.01-.06c-.01-.04 0-.06.04-.07.53-.12 1.17-.22 1.5-.7.3-.4.62-.8.98-1.17a.2.2 0 0 1 .14-.07c.08 0 .15.03.2.1.05.06.12.09.2.1.28 0 .56.09.83.25Z" fill="#614D4A"/><path d="M12.19 6.32h-.58c-.07.01-.12-.02-.15-.1a.64.64 0 0 0-.3-.37c-.07-.04-.1-.1-.07-.18l.08-.28a.37.37 0 0 1 .18-.17c.1-.04.2-.03.29.03.06.05.06.1.01.16a.26.26 0 0 0-.06.2c0 .11.07.17.2.17.1 0 .13.05.08.14a.12.12 0 0 1-.05.04c-.1.06-.1.1 0 .16.1.05.23.07.37.05.07 0 .1.02.08.1 0 .02-.04.04-.08.05Z" fill="#2B211D"/><path d="M6.34 7.31c0 .1-.03.18-.07.23a5.7 5.7 0 0 0-.75 1.22c-.25.53-.86.8-.85 1.66.04.17.05.3.02.42 0 .02-.02.04-.04.06a.13.13 0 0 1-.14.02.12.12 0 0 1-.05-.04l-.2-.31a.24.24 0 0 1-.02-.23c.05-.16.08-.33.08-.5-.02-.82.48-1.64 1.1-2.18a.22.22 0 0 0 .06-.11.72.72 0 0 0 .03-.14l.17-.1a.88.88 0 0 1 .52-.25c.08 0 .12.03.14.1.02.04.02.1 0 .15Z" fill="#191213"/><path d="m7.22 7.16-.65.66a.13.13 0 0 1-.05.03l-.06.01a.16.16 0 0 1-.1-.05c-.05-.05-.08-.14-.09-.27a.42.42 0 0 0 .07-.23c.23-.17.52-.22.88-.15ZM8.07 7.23l-.5.53c-.07-.02-.14-.12-.2-.32-.01-.2.18-.3.6-.31.04 0 .07.01.09.05l.01.05Z" fill="#ECCCBC"/><path d="M7.37 7.44c.06.2.13.3.2.32-.08.11-.19.22-.32.3-.04.04-.06.08-.04.13l.13.39c.02.06.06.1.13.12.06.01.11 0 .16-.05l-.14.55c-.1.03-.13.09-.11.17-.33-.2-.46-.57-.93-.36a.22.22 0 0 0-.12.14l-.18.53c-.09-.13-.3-.17-.66-.11a.23.23 0 0 0-.15.1.9.9 0 0 0-.14.41c-.02.22-.19.4-.5.55.04-.06.03-.13-.03-.21 0-.87.6-1.13.85-1.66.29-.58.54-.98.75-1.22.01.13.04.22.08.27a.16.16 0 0 0 .11.05h.06l.05-.04.65-.66c.1 0 .15.08.15.28Z" fill="#7E6157"/><path d="M5.51 7.41c0 .05-.01.1-.03.14a.22.22 0 0 1-.07.1c-.61.55-1.11 1.37-1.1 2.19.01.17-.02.34-.07.5a.24.24 0 0 0 .02.23l.2.3c.01.03.03.04.05.05a.13.13 0 0 0 .14-.02.12.12 0 0 0 .04-.06.89.89 0 0 0-.02-.42c.06.08.07.15.03.21.14.28.19.5.15.67-.12-.2-.27-.3-.44-.25a.24.24 0 0 1-.19-.02.23.23 0 0 1-.1-.14 3.24 3.24 0 0 1 1.09-3.4c.06 0 .17-.02.3-.08ZM7.93 10.14c.04-.43-.11-.74-.44-.94l.14-.55.1-.41c.04-.13.08-.13.13 0l.16.4c.04.08.03.16-.03.23-.07.1-.1.22-.09.35.01.07.04.13.08.18.12.13.16.34.1.61-.01.11-.07.15-.15.13Z" fill="#A3785E"/><path d="m7.38 9.37.11.31c-.25.72-.72.84-1.4.38l.06-.38.18-.53c.02-.06.06-.1.12-.14.47-.2.6.17.93.36Z" fill="#2B211D"/><path d="M7.49 9.2c.33.2.48.51.44.94 0 .04-.03.09-.07.13-.06.05-.11.06-.15.05-.03-.02-.05-.05-.05-.11-.02-.22-.08-.4-.17-.53l-.11-.31c-.02-.08.01-.14.1-.17Z" fill="#ECCCBC"/><path d="M11.02 9.48c.04.13-.01.2-.15.2-.05-.05-.1-.07-.13-.07-.09 0-.1.02-.06.09.12.17.16.37.11.6-.09.02-.14.1-.17.22a.17.17 0 0 1-.12.13l-.17.06c-.2 0-.37-.04-.53-.11l-.18-.1a.17.17 0 0 1-.09-.16c-.01-.53.21-.87.68-1 .32-.1.59-.05.81.14Z" fill="#2B211D"/><path d="M6.15 9.68c.94 1.88.6 1.62 1.73 2.2.14.26.18.52.1.78-.03.11.01.17.13.16h.2c.09 0 .1-.03.06-.1-.36-.53.4-.84.72-1.16l.01-.01c.2.15.27.35.21.6a.1.1 0 0 1-.03.05.16.16 0 0 1-.07.03 7.6 7.6 0 0 0-.58 1.36c0 .07.02.11.1.14-.52.12-1.45-.45-1.94-.76-.27-.17-.42-.41-.65-.63a.33.33 0 0 0-.18-.09c-.58-.1-.95-.41-1.11-.95.04-.17 0-.4-.15-.67.31-.14.48-.33.5-.55a.9.9 0 0 1 .14-.42.23.23 0 0 1 .15-.1c.36-.05.57-.01.66.12Z" fill="#CD9E81"/><path d="M11.27 9.95c-.04.25-.16.46-.35.65-.05.05-.04.08.04.08.08.01.16-.01.26-.07-.03.15.02.22.15.22.28 0 .32.1.13.3-.17.18-.39.28-.67.31-.08 0-.11.05-.08.13.01.04.04.06.08.08.03 0 .05.03.06.05.11.2.05.36-.17.45a.2.2 0 0 0-.12.13.2.2 0 0 0 .04.18c.23.27.52.43.87.49.11.01.13-.02.06-.1l-.43-.46a.2.2 0 0 1-.04-.2.21.21 0 0 1 .06-.1.22.22 0 0 1 .1-.04l.35-.07a.16.16 0 0 0 .14-.13c.07-.31.29-.5.65-.6.08-.02.15 0 .2.07l.3.41c.05.07.04.13-.05.16l-.34.11c-.07.03-.1.08-.1.15l.01.5c-.34.41-.76.77-1.27 1.08-.23.13-.47.22-.73.25-.69.1-1.1-.21-1.7-.25-.07-.03-.1-.07-.09-.14.03-.17.43-1.2.52-1.32a.1.1 0 0 1 .06-.04c.02 0 .05-.01.07-.03a.1.1 0 0 0 .03-.06.54.54 0 0 0-.2-.59c.24-.28.52-.26.6-.75.15.15.35.17.6.07.04-.02.06-.05.04-.1a.25.25 0 0 0-.02-.05l.17-.07c.06-.02.1-.06.12-.13.03-.12.08-.2.17-.23.28-.1.3-.3.08-.6.14-.01.19-.08.15-.2a1 1 0 0 1 .25.46Z" fill="#7E6157"/><path d="M10.87 9.68c.23.3.2.51-.08.61a.72.72 0 0 0-.1-.6c-.06-.06-.04-.09.05-.08.04 0 .08.02.13.07ZM6.1 10.06c.67.46 1.14.34 1.39-.38.1.13.15.3.17.53 0 .06.02.1.05.1.04.02.09 0 .15-.04a.15.15 0 0 1-.06.08.13.13 0 0 1-.08.03c-.4.01-.57.25-.49.7 0 .03.02.05.03.07a.15.15 0 0 0 .13.06l.07-.02c.29-.15.47-.35.56-.6a.17.17 0 0 1 .14-.1.18.18 0 0 1 .16.07c.2.24.32.48.37.73l-.94-.02a.19.19 0 0 0-.14.06c-.1.12-.08.2.06.26.18.07.25.16.2.3a1.67 1.67 0 0 0-.56-.16.17.17 0 0 0-.15.07.15.15 0 0 0 0 .16l.06.12c.04.07.03.12-.03.17a.36.36 0 0 0-.15.27c-.01.06-.04.08-.1.04-.26-.2-.42-.43-.46-.67a.1.1 0 0 0-.04-.06.1.1 0 0 0-.07-.02c-.18.02-.35.02-.51 0-.12-.03-.12-.06-.01-.1.14-.06.3-.1.47-.1.11 0 .14-.04.1-.13l-.04-.06c-.05-.1-.14-.14-.25-.13l-.75.1c-.07 0-.1-.02-.13-.08a.2.2 0 0 1 .03-.19c.04-.05.09-.07.15-.05.16.05.3.04.45-.02a.2.2 0 0 0 .11-.14c.03-.14.12-.22.27-.24.01 0 .03 0 .03-.02l.02-.03-.01-.04a.06.06 0 0 0-.04-.02c-.43-.08-.7-.3-.83-.66a.14.14 0 0 1 .01-.12c.04-.07.09-.1.16-.08.06 0 .11.04.15.09.1.15.22.24.35.27Z" fill="#A3785E"/><path d="M11.22 10.61a.43.43 0 0 1-.26.07c-.08 0-.09-.03-.03-.08.18-.19.3-.4.34-.65.13.12.25.2.38.24.03.01.05.03.05.07a.1.1 0 0 1 0 .06.06.06 0 0 1-.06.03c-.2 0-.34.09-.42.26Z" fill="#C3AE89"/><path d="M9.8 10.6c.16.07.33.1.53.12l.02.05c.02.05 0 .08-.05.1-.24.1-.44.08-.59-.07 0-.15.02-.21.1-.2Z" fill="#ECCCBC"/><path d="m8.69 11.29.4.27c-.31.32-1.08.63-.72 1.16.05.07.03.1-.05.1h-.2c-.13 0-.17-.05-.14-.16a.95.95 0 0 0-.1-.78c.04-.13-.03-.22-.2-.29-.15-.05-.17-.14-.07-.26a.18.18 0 0 1 .14-.06l.94.02Z" fill="#2B211D"/><path d="M8.74 7.78a.16.16 0 0 1-.14.02.16.16 0 0 1-.1-.1l-.11-.43c-.03-.11.01-.17.13-.16h.46c.13 0 .17.07.13.19-.06.17-.18.33-.37.48Z" fill="#ECCCBC"/><path d="M9.58 7.82a.22.22 0 0 1-.2-.05.2.2 0 0 1-.06-.18c0-.05.03-.09.05-.13a.25.25 0 0 1 .22-.11h.5c.16 0 .18.05.07.15-.2.17-.4.28-.58.32ZM10.6 8.24a.7.7 0 0 1-.14-.55.1.1 0 0 1 .03-.05.1.1 0 0 1 .1-.03.1.1 0 0 1 .04.02c.16.13.27.09.44.16.05.02.07.04.08.06 0 .08-.01.16-.06.24a.62.62 0 0 1-.22.2c-.1.06-.2.05-.27-.05ZM12.18 8.22a.97.97 0 0 1-.27.22.79.79 0 0 1-.16.11.29.29 0 0 1-.17.04c-.14-.01-.2-.1-.2-.29 0-.2.11-.28.3-.28s.35.07.5.2Z" fill="#C3AE89"/><path d="M9.54 9.21c-.14.05-.25.03-.35-.05-.07-.06-.08-.14-.05-.23.08-.22.13-.43.15-.64.01-.1.07-.16.16-.18l.06-.01c.1-.02.14.02.12.11-.07.27-.07.55 0 .84 0 .03 0 .07-.02.1a.14.14 0 0 1-.07.06Z" fill="#7E706B"/><path d="M11.9 8.44c.12-.07.21-.14.28-.22.14-.03.25.04.31.21.11.27.23.54.36.8.13.27.19.53.18.8-.02.38-.02.76 0 1.13 0 .08-.03.15-.1.2a.09.09 0 0 1-.09.01.08.08 0 0 1-.03-.02.07.07 0 0 1-.02-.04l-.1-.89a.4.4 0 0 0-.05-.15c-.33-.6-.58-1.2-.73-1.83Z" fill="#191213"/><path d="M10.16 8.9a.6.6 0 0 1 .29-.16c.12-.04.14 0 .08.1a.58.58 0 0 1-.19.18.21.21 0 0 0-.09.1c-.03.06-.07.1-.14.08a.22.22 0 0 1-.12-.06.58.58 0 0 1-.13-.2.13.13 0 0 1 .03-.13.14.14 0 0 1 .14-.04c.05.01.08.04.07.1 0 .05.02.06.06.02Z" fill="#A3785E"/><path d="M6.52 9.6v.3c0 .1-.04.12-.12.04-.25-.24-.06-.6.22-.72.05-.03.1-.02.14.02.04.04.04.08-.02.12l-.14.1a.17.17 0 0 0-.08.14Z" fill="#7E706B"/><path d="M10.07 9.82c0-.02.02-.03.03-.04a.08.08 0 0 1 .1 0l.02.04c.02.08.02.16-.01.23 0 .02-.01.03-.03.04a.07.07 0 0 1-.08 0 .07.07 0 0 1-.03-.04.35.35 0 0 1 0-.23Z" fill="#614D4A"/><path d="M9.8 12.35c-.07-.02-.07-.04 0-.05.19-.06.37-.06.54-.02.14.03.14.06 0 .1a.95.95 0 0 1-.55-.03Z" fill="#C3AE89"/><path d="M8.12 11.72a.5.5 0 0 0-.13-.01c-.07 0-.12-.04-.14-.1a.12.12 0 0 1 .02-.12.12.12 0 0 1 .1-.05h.5c.11 0 .14.05.08.13a.71.71 0 0 1-.2.22c-.05.04-.1.03-.13-.01a.21.21 0 0 0-.1-.06Z" fill="#7E6157"/></svg>