<!-- by TradingView --><svg width="18" height="18" viewBox="0 0 18 18" xmlns="http://www.w3.org/2000/svg"><path fill="#F0F3FA" d="M0 0h18v18H0z"/><circle cx="9" cy="9" r="5" fill="#2E2DC8"/><circle cx="9" cy="9" r="4.71" fill="#292929"/><circle cx="9" cy="9" r="4.41" fill="url(#a)"/><path fill-rule="evenodd" d="M9 13.12a4.12 4.12 0 1 0 0-8.24 4.12 4.12 0 0 0 0 8.24Zm0-.3a3.82 3.82 0 1 0 0-7.64 3.82 3.82 0 0 0 0 7.64Z" fill="#FEDC29" fill-opacity=".5"/><path fill-rule="evenodd" d="M9.5 8.37a.36.36 0 0 1 .12-.18.42.42 0 0 1 .1-.06.66.66 0 0 0 .07-.04c.02-.02.02-.03-.01-.04-.27-.1-.37-.28-.3-.54 0-.04.1 0 .08.04-.03.2.06.35.3.44l.07.03c.23.1.39.16.51.32.03.04.07-.04.06-.06a.6.6 0 0 0-.21-.23c-.25-.16-.4-.26-.44-.3-.08-.1-.1-.22-.05-.36.01-.04.09 0 .08.03-.02.15.05.28.2.38l.11.07c.23.14.5.3.35.57-.02.05.02.12.08.12.19.02.37.02.54.01.18-.01.64-.02.77.07.07.06.09.14.05.23a.85.85 0 0 1-.18.3l-.08.02a.1.1 0 0 1-.06 0l-.43-.09c-.03 0-.04-.02-.04-.04 0-.14-.02-.15-.14-.23l-.03-.01L11 8.8l-.33-.04h-.02v-.02c-.03-.04-.04-.04-.04 0 0 .14-.02.28-.08.42 0 .02-.03.03-.05.03h-.02a2.91 2.91 0 0 1-.74-.47h-.05c-.11.12-.17.27-.23.42l-.13.27c-.03.05-.01.06.05.04a.14.14 0 0 0 .1-.09l.03-.04.36-.2c.23-.14.45.08.54.25 0 .08-.02.14-.06.19-.08.1-.26.2-.42.18-.08-.01-.12-.05-.12-.1 0-.02-.02-.03-.04-.03a.41.41 0 0 0-.14.07h-.04c-.04-.03-.08-.03-.13 0-.1.05-.21.1-.33.12a.62.62 0 0 1-.17-.06.12.12 0 0 1-.05-.06.1.1 0 0 1 0-.07 4.32 4.32 0 0 1 .23-.52h-.02a.57.57 0 0 1-.13.16.05.05 0 0 1-.06.01l-.06-.02c-.17-.09-.4-.2-.37-.38.04-.26.3-.29.54-.32h.01c.03 0 .1 0 .04-.02-.1-.03-.2-.04-.29-.05l-.16-.02-1.39-.23a1.46 1.46 0 0 1-.9-.46A1.43 1.43 0 0 1 6 7l3.47 1.47c.01.01.03 0 .03-.01v-.1Zm.58.07c.01-.04.08-.06.11-.03.06.05.26.36.11.38-.2-.07-.27-.19-.22-.35Zm-1.51.15a.35.35 0 0 0-.18.23c-.01.03-.04.05-.07.05L7.69 9c-.57.12-1.09.06-1.48-.32l-.01-.02c0-.02.01-.04.03-.04l2.33-.07c.06 0 .06.01.01.04Zm.21 1.01c0 .02-.02.04-.04.05-.15 0-1.32-.12-1.32-.13l.2-.23c.2-.17.43-.29.7-.35.06-.01.07.02.08.05l.02.05c.12.13.27.22.44.28.03 0 .04.02.03.04l-.1.24Zm-.1.21-.08.26-.04.03-1.18.2c-.02 0-.03-.01-.03-.03-.03-.22.01-.43.13-.63l1.18.08c.03 0 .04.01.04.03l-.01.06Zm-.93.86c.1.08.28.24.4.17l.52-.36.02-.03v-.03l-.08-.22-.02-.02h-.03l-1 .16c0 .1.05.2.16.3l.03.03Zm1.03.3c-.03.03-.06.04-.1.03a2.52 2.52 0 0 1-.34-.11c-.02 0-.02-.02-.03-.03v-.02l.41-.3a.06.06 0 0 1 .08 0l.12.08c.02.01.02.03.01.05l-.15.3Zm1.14-.42H9.9a1.1 1.1 0 0 1-.9.19l-.1.15v.05c.42.02.95-.26 1.03-.36.01-.02 0-.03-.01-.03Z" fill="#FFD73D"/><defs><linearGradient id="a" x1="9" y1="4.59" x2="9" y2="13.41" gradientUnits="userSpaceOnUse"><stop stop-color="#9C83F6"/><stop offset="1" stop-color="#614BE4"/></linearGradient></defs></svg>