<!-- by TradingView --><svg width="18" height="18" viewBox="0 0 18 18" xmlns="http://www.w3.org/2000/svg"><path fill="#F0F3FA" d="M0 0h18v18H0z"/><path fill-rule="evenodd" d="M14 12.95v-2.53a.77.77 0 0 0-.06-.26 16.7 16.7 0 0 1-.37-.6l-.2-.3a.45.45 0 0 1-.09-.19l-.06-.59c-.03-.29-.09-.54-.15-.8l-.04-.2a.03.03 0 0 1 .01-.04l.13-.05c.05-.02.1-.03.13-.06a1.75 1.75 0 0 0 .54-.43c.1-.19.15-.39.15-.6v-.6a1.25 1.25 0 0 0-.76-1.14 1.4 1.4 0 0 0-1.3.05.6.6 0 0 0-.22.22l-.07.07c-.04.01-.08 0-.1-.01-.17-.12-.32-.2-.45-.26l-.37-.15a2.3 2.3 0 0 0-.38-.12c-.32-.07-.6-.12-.84-.15a3.97 3.97 0 0 0-1.72.17l-.37.07a3.72 3.72 0 0 0-.73.2c-.01 0-.02 0-.03-.02l-.03-.02-.14-.15a1.1 1.1 0 0 0-.59-.4 1.3 1.3 0 0 0-1.12.14c-.05.03-.1.08-.17.15l-.12.13-.12.13a.6.6 0 0 0-.1.18c0 .04-.02.07-.03.1-.06.1-.08.25-.09.34a12.68 12.68 0 0 1-.02.52v.11c0 .09 0 .16.03.24a2.53 2.53 0 0 0 .39.7c.1.14.21.22.36.33l.06.05c.06.04.1.05.17.06a.03.03 0 0 1 .02 0 .03.03 0 0 1 0 .03c-.05.17-.13.36-.23.57-.08.18-.14.35-.18.5l-.08.24a2.2 2.2 0 0 0-.07.24v.09c0 .05 0 .1-.06.14a.56.56 0 0 0-.1.1l-.06.06-.29.3a.44.44 0 0 0-.08.24v3.2c0 .03 0 .04.02.04h.76A4483.84 4483.84 0 0 0 14 13l.01-.04ZM9.96 4.41 9.9 4.4a.18.18 0 0 1-.05-.02 4.67 4.67 0 0 0-1.9.1l-.06.03-.4.09c-.17.01-.33.05-.47.1-.06.02-.12.07-.18.12-.05.04-.1.08-.15.1a.5.5 0 0 0-.14.15l-.16.27a.4.4 0 0 1-.09.11l-.17.17a9.6 9.6 0 0 0-.62.98l-.02.04a3.75 3.75 0 0 0-.2.5.82.82 0 0 0-.04.14c-.01.06-.02.11-.05.16l-.01.03c-.03.06-.07.12-.09.2l-.1.26-.12.4-.1.33a1.2 1.2 0 0 0-.05.22l-.03.41c0 .07-.02.13-.04.2l-.02.09.01.2c.06.28.14.52.25.72a2.71 2.71 0 0 0 .9.94l.52.4c.08.06.16.11.25.15l.33.15.25.06a1.43 1.43 0 0 1 .36.12c.1.04.2.09.3.1a2.7 2.7 0 0 0 1.04.05c.14-.02.3-.02.47-.03l.31-.02h.09c.24-.02.6-.05.85-.13l.2-.06c.16-.04.3-.08.45-.15l.24-.08c.14-.05.3-.1.42-.16s.24-.14.36-.22c.1-.07.2-.16.32-.29l.01-.01c.15-.16.3-.33.42-.51a.61.61 0 0 0 .08-.22l.07-.46c.02-.15.01-.34.01-.52v-.24c0-.06 0-.13-.02-.2l-.01-.19a4.76 4.76 0 0 0-.07-.8.93.93 0 0 0-.05-.23 3.42 3.42 0 0 1-.1-.4.92.92 0 0 0-.05-.18l-.06-.16-.11-.27-.45-.97a2.3 2.3 0 0 0-1.18-1.2 5.27 5.27 0 0 0-1.09-.36Z" fill="#010101"/><path d="M8.68 6.73a.12.12 0 0 1-.03-.05l-.01-.02c-.01 0-.02 0-.03.02a.08.08 0 0 0-.02-.1c.02 0 .04-.03.05-.07 0-.04 0-.07.02-.09a.44.44 0 0 0 .05-.2c0-.02.01-.04.04-.04l.07-.02c.01 0 .02 0 .02.02-.01.11-.05.22-.05.32a7.25 7.25 0 0 1 .02.28l.1.1c.02.03.03.02.03 0l.01-.55v-.17a.71.71 0 0 1 .02-.26c.01-.03.03-.04.05-.05.02-.02.02-.02 0-.03a.28.28 0 0 0-.1 0c.07-.07.14-.04.17.04a.4.4 0 0 0 .06.11l.01.03v.04c-.04.05-.06.04-.06-.02 0-.03-.02-.06-.05-.09-.02-.02-.03-.01-.03.02L9 6.06a.23.23 0 0 0 0 .12c.05.12 0 .3-.02.4a.5.5 0 0 0-.02.13v.16a.1.1 0 0 0 .12.05c.05-.01.06 0 .04.05a.32.32 0 0 0-.05.14c0 .08.02.15-.03.17h-.01l-.01-.01a.13.13 0 0 0-.04-.04c-.01-.01-.02-.02-.01-.04.02-.08 0-.14-.06-.18L8.9 7a.94.94 0 0 0-.1-.15c-.03-.04-.02-.12-.03-.17a12.46 12.46 0 0 0-.04-.22h-.06l-.02.02a.12.12 0 0 0-.01.06c0 .02 0 .04.02.06.02.04.03.09.02.14Z" fill="#777478"/><path d="M8.6 6.59a.12.12 0 0 0-.1-.02l.1-.02h.01v-.13c0-.01 0-.02-.01-.01l-.1.03.08-.06.02-.02c0-.03 0-.05-.03-.07h-.02l-.08.01-.18.1c-.06 0-.13.03-.19.05-.11.03-.23.11-.37.11a.6.6 0 0 0-.15.01c-.07.02-.18.02-.26.06-.06.04-.13.04-.2.01a.01.01 0 0 1-.01 0 .01.01 0 0 1 0-.02l.02-.02a.69.69 0 0 0 .16-.05c.1-.04.18-.04.29-.07a1 1 0 0 1 .18-.04c.07 0 .17-.02.25-.07l.24-.12a.56.56 0 0 0 .14-.07.56.56 0 0 1 .11-.07 2.52 2.52 0 0 1 .42-.3l.1.01c.02 0 .02.01 0 .03-.02.01-.04.02-.05.05a.71.71 0 0 0-.01.26v.17c-.02.13-.03.3-.02.54 0 .03-.01.04-.03.01l-.1-.1v-.02l-.02-.26c0-.1.04-.2.05-.32 0-.01 0-.02-.02-.02l-.07.02c-.03 0-.04.02-.04.04 0 .07-.02.13-.05.2l-.02.09c-.01.04-.03.07-.05.08ZM10.76 6.44a.72.72 0 0 1-.24-.18.6.6 0 0 0-.11-.1L10.16 6a.43.43 0 0 0-.12-.06v-.08a.1.1 0 0 1 .04-.05h.02c.1 0 .2.1.27.14.08.04.1.07.12.14l.01.02a.05.05 0 0 0 .05.02h.02c.09-.07.18-.05.3-.05h.02v.02c0 .04.01.08.04.12l.23.32c.06.07.21.03.2.15 0 .08-.02.16-.06.24h-.02c0-.08-.04-.2-.12-.21a.3.3 0 0 1-.13-.07 2.36 2.36 0 0 0-.27-.2Z" fill="#252625"/><path d="M10.04 5.86v.08l.12.06.25.16a.6.6 0 0 1 .1.1c.08.08.16.14.25.18h-.05c-.04 0-.07-.03-.12-.02l-.31.05a.33.33 0 0 0-.1.06h-.02l-.04.01a.35.35 0 0 1-.16.06c-.07.01-.08.05-.14.08a.44.44 0 0 0-.17.14.04.04 0 0 1-.03.02.03.03 0 0 1-.02-.02c-.03-.04-.04-.07-.01-.1v-.01c0-.06.03-.13.02-.2v-.13a.41.41 0 0 1 .1-.16l.02-.04v-.02a.84.84 0 0 1 .23-.2l.08-.1Z" fill="#B6B4B5"/><path d="M8.5 6.57c-.03 0-.12.02-.13.07a.03.03 0 0 0 .01.02.03.03 0 0 0 .02.01h.25a3.8 3.8 0 0 0 .09.23c.03.07 0 .12-.06.16a.57.57 0 0 0-.14.1.3.3 0 0 1-.08.06.25.25 0 0 0-.11.1l-.02.01a.4.4 0 0 1-.16.03 23.06 23.06 0 0 0-.4-.06l-.17-.05a.28.28 0 0 0-.19-.03l-.16.01-.03.02a.13.13 0 0 1-.07.04.03.03 0 0 1-.02 0 .03.03 0 0 1 0-.03.52.52 0 0 1 .13-.3c.09-.08.21-.14.35-.22a26.17 26.17 0 0 0 .47-.08c.07 0 .12-.03.2-.05l.06-.06c.05-.04.1-.08.16-.1l.1-.04h.01v.13l-.01.01-.1.02ZM10.03 7.09c-.07.02-.1 0-.11-.09v-.03c0-.07.03-.12.1-.13l.17-.03a.45.45 0 0 1 .16-.03l.28.04c.18.07.3.1.43.18l.19.12.08.08a.36.36 0 0 1 .02.13.01.01 0 0 1-.02 0 .88.88 0 0 0-.14-.01c-.13 0-.22-.07-.35-.1a3.13 3.13 0 0 1-.44-.13l-.01-.02a.04.04 0 0 1 0-.04.08.08 0 0 0 .03-.05v-.01a.04.04 0 0 0-.03-.03h-.02c-.05 0-.09.04-.12.06l-.22.09Z" fill="#010101"/><path d="M7.92 7.17H7.98a.02.02 0 0 0 0-.03.6.6 0 0 0-.06-.05.12.12 0 0 0-.08-.02h-.12c-.03 0-.04.01-.05.03v.01l.14.04-.2-.02V7.1c.05-.03.08-.05.14-.06h.31c.07.02.12 0 .19 0 .03 0 .05.02.07.03v.02c0 .02-.01.03-.02.03-.06.02-.1.06-.15.06-.07 0-.14.03-.23-.02Z" fill="#777478"/><path d="M10.67 7.5a.24.24 0 0 1-.23-.01c-.1-.06-.22-.1-.31-.18l-.2-.13c-.03-.01-.03-.02-.01-.04l.03-.01h.04a20.07 20.07 0 0 0 .53.27c.13.06.24.02.4-.01h.02v.02a.32.32 0 0 1-.16.06.51.51 0 0 0-.1.03Z" fill="#252625"/><path d="M8.93 7.44a.09.09 0 0 0-.04-.06.42.42 0 0 1-.18-.16.03.03 0 0 1 .01-.04h.02c.1.02.16.09.23.16H9a.88.88 0 0 1 .02.28l-.06.04-.01-.01.01-.07v-.02l-.02-.12Z" fill="#B6B4B5"/><path d="M8.48 7.9V8l-.01.02c-.02.01-.05.02-.07.05a.78.78 0 0 1-.06.1h-.02c-.04.01-.06.01-.1.04a1.2 1.2 0 0 1-.15.11c-.02 0-.03.03-.05.07L8 8.4h-.03c0 .01 0 0 0 0l.07-.1a.92.92 0 0 0 .16-.18c.05-.09.13-.13.2-.21l.02-.02c0-.02 0-.04.02-.05v-.02a.1.1 0 0 1 .03-.05h.02v.13Z" fill="#777478"/><path d="M9.83 8.54a.97.97 0 0 0-.4.06.42.42 0 0 1-.1.02l-.1.01-.12-.03a.26.26 0 0 1-.1-.04l-.09-.08a.44.44 0 0 0-.27-.1H8.5c-.04 0-.06.01-.07.05l.02.07a.29.29 0 0 1-.09-.14l-.07-.09v-.01l.01-.01h.02c.09.09.19.1.3.05.26-.13.42 0 .6.18l.05.02.55.04Z" fill="#B6B4B5"/><path d="M9.83 8.54h.06a.03.03 0 0 1 .03 0 .04.04 0 0 1 0 .03c0 .07-.01.16-.1.17-.07 0-.12.02-.16.03l-.15.05c-.13.03-.24.07-.35.05a.54.54 0 0 1-.2-.07l-.5-.3-.02-.07c0-.04.03-.06.07-.05a39.06 39.06 0 0 0 .27.02c.06.02.1.05.14.08l.1.08c.02.02.05.03.09.04l.12.03h.1l.1-.03a.97.97 0 0 1 .4-.06Z" fill="#252625"/><path d="M7.45 9.05v.1c.02 0 .03-.04.04-.1.02-.05.02-.1 0-.1l-.04.1Z" fill="#B6B4B5"/><path d="M10.38 9.52c.04 0 .06-.04.08-.1a2.6 2.6 0 0 1 .1-.26h.03l-.05.17-.03.06c-.02.04-.01.1-.02.15 0 .03-.03.1-.09.25a.22.22 0 0 1-.07.09c-.08.06-.15.14-.23.24a.42.42 0 0 1-.1.08l-.18.1a.07.07 0 0 1-.06 0 2.7 2.7 0 0 0-.57-.08c-.2 0-.41-.02-.63.01a809.97 809.97 0 0 1-.28.03l-.03-.04a.1.1 0 0 0 0-.01l-.16-.15c-.09-.1-.17-.3-.24-.44-.05-.13-.08-.25-.1-.4a.55.55 0 0 1-.02-.16l.02-.02h.03l.02.03c.02.1.04.23.13.2.24-.08.5-.14.75-.1.1.01.2.07.27.1.05.03.13.04.18.03.14 0 .3.02.48.07l.22.03c.13.02.29.06.48.13h.07Z" fill="#010101"/><path d="M8.04 9.49a.1.1 0 0 1 .07-.04.9.9 0 0 1 .3 0c.03.02.08.02.13.02H8.83c.08 0 .3.11.35.01l.02-.01c.06-.01.1-.02.11 0l.1.03c.21.01.41.03.6.06.07 0 .13.03.2.08l.01.02c.01.05-.01.1-.04.16-.06.13-.2.16-.32.14-.2-.03-.36-.06-.53-.07l-.49-.03c-.19-.02-.42-.01-.59-.01-.06 0-.13-.03-.16-.1a.83.83 0 0 1-.06-.24l.01-.02Z" fill="#F0F3FA"/><path d="M9.59 10.59a.03.03 0 0 0 .03-.02c.03-.05.07-.07.12-.07h.01v.02a.18.18 0 0 1-.06.08l-.01.02c0 .02-.02.03-.04.04a1.18 1.18 0 0 1-.21.03l-.01-.01v-.03a.1.1 0 0 1 .07-.05.41.41 0 0 1 .1-.01Z" fill="#252625"/></svg>