<!-- by TradingView --><svg width="18" height="18" viewBox="0 0 18 18" xmlns="http://www.w3.org/2000/svg"><path fill="#F0F3FA" d="M0 0h18v18H0z"/><path d="M15 9A6 6 0 1 1 3 9a6 6 0 0 1 12 0Z" fill="url(#a)"/><path d="m5.81 10.03.2 2c.37.18 1.3-1.09 2.05-1.63.6-.44.75-1.15.75-1.46l.75 2 .57-.36v-2.9L8.43 6.4l-2.62 3.63Z" fill="#8A93A5"/><path d="m8.68 3.45.3.74c.02.04.02.07-.01.1-.36.35-.79.67-1.3.97-.5.3-.6 1.15-.58 1.67l.01.05.04.04a.11.11 0 0 0 .1.01l.79-.3a.14.14 0 0 1 .14.02l.04.06c0 .02.01.04 0 .07-.05.32-.12.81.11 1.05.03.03.07.04.1 0a.09.09 0 0 0 .04-.07c.2-.09.34-.05.42.11a.14.14 0 0 1 .01.13c-.1.22-.12.43-.08.64a.29.29 0 0 1-.05.25c-.27.36-.55.6-.63 1.12a.24.24 0 0 1-.07.11.06.06 0 0 1-.1-.02v-.03a2.44 2.44 0 0 1 .23-.97c0-.01 0-.03-.02-.04a.08.08 0 0 0-.07-.02l-.46.12-.17.3a.11.11 0 0 0 0 .12c.1.19.17.39.19.59l-.7-.37c.03-.22.02-.45-.05-.7-.01-.05-.04-.06-.08-.04a.73.73 0 0 0-.2.2c-.03.05-.07.05-.1 0l-.02-.13c.01-.07.03-.14.07-.2.19-.35.27-.72.23-1.09-.02-.16-.08-.17-.18-.05a3.3 3.3 0 0 0-.52.93c-.05.13-.17.24-.36.33l.02-1.2.01.65c0 .02.01.04.04.04l.04.01c.03.01.04 0 .04-.03l.03-.46.03.65H6c.03 0 .05 0 .06-.03.1-.34.14-.68.1-1.01-.01-.04 0-.09.01-.13a.88.88 0 0 0 .07-.35c0-.03-.01-.05-.05-.06l-.05-.01h-.02l-.08.58-.02-.98a.15.15 0 0 0-.04-.1.16.16 0 0 0-.08-.05l-.05-.01c-.07-.02-.1 0-.1.07l-.02.42c-.16-.91-.41-1.39-.48-2.31 0-.05.01-.09.03-.12.6-.8.87-1.08 2.15-1.34l1.25.07Z" fill="#93A7BD"/><path d="M9.72 3.38c.07.1.25.13.53.1l.19.31c.07.12.05.15-.08.07l-.23-.12c-.24-.14-.32-.08-.24.18.19.58.72 1.19 1.02 1.63.03.05.01.06-.04.05-.05-.02-.1-.07-.17-.14a.1.1 0 0 0-.07-.05.1.1 0 0 0-.04 0c-.04 0-.05.03-.05.06.06.37.2.75.43 1.14.13.21.16.5.2.74l.04 1.42c0 .04 0 .09.03.13a.3.3 0 0 0 .1.1l.13.05.14-.01c.05-.02.08-.08.07-.17a.1.1 0 0 1 .06-.1l.63-.36-.45.87a.18.18 0 0 0 0 .17.2.2 0 0 0 .13.1l.42.11c.05.01.08.04.1.08.05.11.03.2-.05.25l-.02-.18c0-.05-.03-.07-.08-.08-.22-.02-.42-.1-.59-.23a.18.18 0 0 0-.12-.04c-.38.02-.74.1-1.08.25-.25 0-.35-.14-.31-.44l.32-.22c.06-.04.1-.1.11-.18a.28.28 0 0 0-.04-.2 1.5 1.5 0 0 1-.23-.59l.09.14c.03.04.06.04.08 0 .25-.43.36-.88.32-1.37a.16.16 0 0 0-.07-.12.17.17 0 0 0-.13-.03l-.46.07a.04.04 0 0 1-.04 0v-.04a3.9 3.9 0 0 0-.36-2c-.12-.24-.19-.23-.2.03l-.05.63a1.02 1.02 0 0 1-.09-.63c.12-.38.13-.77.02-1.14a.22.22 0 0 0-.1-.13.23.23 0 0 0-.16-.03c-.18.03-.26 0-.26-.07l.65-.02Z" fill="#425E73"/><path d="M9.07 3.39c0 .08.08.1.26.07.05-.01.11 0 .16.03s.09.07.1.13c.1.37.1.76-.02 1.14.01.62-.16 1.15-.5 1.59-.03.03-.06.03-.1 0-.16-.2-.28-.43-.36-.7.24-.09.37-.22.4-.38.02-.1-.03-.16-.13-.16h-.1a.14.14 0 0 0-.1.05.13.13 0 0 0-.04.1c0 .15-.12.28-.38.38L8.5 7.2a.48.48 0 0 1-.07.14l-.07.46c0 .03.01.05.04.05h.05c0 .04-.01.07-.04.09-.03.03-.07.02-.1-.01-.23-.24-.16-.73-.1-1.05a.13.13 0 0 0-.05-.13.14.14 0 0 0-.14-.02l-.79.3a.12.12 0 0 1-.1-.01.1.1 0 0 1-.04-.04.1.1 0 0 1-.01-.05c-.01-.52.08-1.38.59-1.67.5-.3.93-.62 1.29-.97a.09.09 0 0 0 .02-.1l-.3-.74.38-.06Z" fill="#859CB6"/><path d="M10.6 3.56c-.04.12.06.26.29.42l.42.3c.08.07.07.11-.03.13l-.54.08a.08.08 0 0 0-.05.03.08.08 0 0 0-.01.07c.08.33.21.64.4.93a.13.13 0 0 1-.02.17l-.23.22a.1.1 0 0 0-.02.12c.17.42.47.81.9 1.17-.3.44-.41.87-.35 1.3 0 .04.03.05.08.05.59-.13.92-.49.98-1.07 0-.04.03-.07.08-.08.09-.01.17 0 .26.03-.15.17-.28.35-.38.54-.24.45-.56.61-.86 1.02-.02.03-.05.04-.07 0l-.16-.14a.18.18 0 0 1-.05-.12l-.07-1.38c-.04-.24-.07-.53-.2-.74-.23-.39-.37-.77-.43-1.14 0-.03.01-.05.05-.06h.04a.1.1 0 0 1 .07.05c.06.07.12.12.17.14.05.01.06 0 .04-.05-.3-.44-.83-1.05-1.02-1.63-.08-.26 0-.32.24-.18l.23.12c.12.08.15.05.08-.07l-.19-.3a.7.7 0 0 1 .35.07Z" fill="#728DA6"/><path d="m11.7 4.6-.18.76c-.01.05 0 .08.05.09.43.1.75.33.98.67l-.03.05c-.01.04-.04.05-.08.04a.1.1 0 0 0-.08 0 .09.09 0 0 0-.03.02l-.02.04c-.08.3-.46.4-.75.42-.02 0-.03 0-.04.02l-.01.05a.04.04 0 0 0 .02.05h.02a2 2 0 0 1 .9.26c.05.03.06.06.04.1a.16.16 0 0 1-.04.07c-.03.02-.07.03-.13.02a4.78 4.78 0 0 0-.6-.06 3.04 3.04 0 0 1-.9-1.17.1.1 0 0 1 .01-.12l.23-.22a.14.14 0 0 0 .03-.17 2.98 2.98 0 0 1-.41-.97v-.03a.08.08 0 0 1 .06-.03l.54-.08c.1-.02.11-.06.03-.12l-.42-.31c.43-.05.44.18.64.42l.17.2Z" fill="#93A7BD"/><path d="m9.04 4.63.06.02c.03.03.05.08.05.12-.01.04-.04.06-.08.06-.18-.02-.34 0-.47.03-.03 0-.04 0-.02-.04l.11-.2a.12.12 0 0 1 .08-.05c.05-.01.11 0 .17.03l.1.03Z" fill="#425E73"/><path d="M10.48 8.08a5.57 5.57 0 0 1-.64-1.49.1.1 0 0 0-.04-.01c-.04-.01-.07 0-.08.05a4 4 0 0 0-.05.76c0 .12.06.27.17.46.1.18.15.38.15.6 0 .06-.02.08-.07.07a.2.2 0 0 1-.09-.04.54.54 0 0 0-.26-.28.24.24 0 0 1-.1-.1.23.23 0 0 1-.03-.12l.05-.99.18-1.1c.04.21.04.4 0 .54 0 .04.01.06.05.07l.25.06a.07.07 0 0 0 .06-.01l.02-.02V6.5c.03-.34-.04-.66-.2-.97-.03-.07-.05-.07-.07 0l-.1.35-.02-.49.05-.63c.01-.26.08-.27.2-.03a3.9 3.9 0 0 1 .36 2.03h.02l.02.01.46-.07a.17.17 0 0 1 .13.03.17.17 0 0 1 .07.12c.04.49-.07.94-.32 1.37-.02.04-.05.04-.08 0l-.1-.14Z" fill="#2C3F4D"/><path d="M11.7 4.6c.38.23.69.55.9.94.1.17.2.3.33.4l.38.37.46.56c.03.04.07.06.12.07.08.01.12.06.11.13 0 .05.01.09.04.12l.44.51.02.32a.29.29 0 0 1-.08.06.08.08 0 0 1-.06.01.07.07 0 0 1-.04-.03c-.26-.4-.38-.85-.79-1.17-.06-.05-.1-.03-.1.05v1.58c0 .15.08.22.23.22h.28a.1.1 0 0 1 .08.03.1.1 0 0 1 .02.09c-.1.5-.12 1.02-.05 1.55-.11.04-.2.05-.28.02-.06-.03-.1-.1-.12-.21-.1-.7-.33-1.35-.68-1.97a.15.15 0 0 0-.1-.07c-.19-.05-.34.03-.44.23l-.63.36a.1.1 0 0 0-.06.1c.01.1-.02.15-.07.17a.35.35 0 0 1-.28-.04.3.3 0 0 1-.09-.1.27.27 0 0 1-.03-.13l-.04-1.42.07 1.38c0 .05.02.09.05.12l.16.15c.02.03.05.02.07 0 .3-.42.62-.58.86-1.03.1-.19.23-.37.38-.54l.48.85.02.01h.05c.01 0 .02 0 .01-.02L13 6.67a.22.22 0 0 0-.05-.1l-.4-.45a1.55 1.55 0 0 0-.98-.67c-.04-.01-.06-.04-.05-.09l.18-.77Z" fill="#647A93"/><path d="M9.57 4.76c-.03.27 0 .48.1.63l.01.49-.02.01-.17 1.1-.16.85a.08.08 0 0 1-.04.06.1.1 0 0 1-.08 0c-.36-.15-.5-.42-.43-.81l.13-.5a.06.06 0 0 0-.02-.07l-.02-.02h-.05c-.05-.02-.07 0-.08.04 0 .24-.08.46-.23.66l-.25-1.56c.05.12.1.17.13.14l.22-.12c.08.26.2.5.37.69.03.03.06.03.08 0 .35-.44.52-.97.51-1.59Z" fill="#728DA6"/><path d="m8.61 5.66-.22.12c-.04.03-.08-.02-.13-.14.26-.1.39-.23.38-.39a.13.13 0 0 1 .04-.1.14.14 0 0 1 .1-.04h.1c.1 0 .15.06.13.16-.03.16-.16.3-.4.39ZM9.66 5.89l.02-.01.1-.35c.02-.07.04-.07.08 0a1.86 1.86 0 0 1 .19 1l-.02.02a.07.07 0 0 1-.06.01l-.25-.06c-.04-.01-.05-.03-.04-.07.03-.15.03-.33-.02-.54Z" fill="#1C1F24"/><path d="M12.76 7.43a.44.44 0 0 0-.26-.03c-.05 0-.07.04-.08.08-.06.58-.4.94-.98 1.07-.05 0-.07-.01-.08-.06-.06-.42.05-.85.35-1.29.14 0 .34.02.6.06.07 0 .11 0 .14-.02a.16.16 0 0 0 .04-.06c.02-.05 0-.08-.04-.1a2 2 0 0 0-.92-.27l-.01-.02-.01-.01v-.02l.01-.05.04-.02c.29-.03.67-.11.75-.42 0-.01 0-.03.02-.04l.03-.02a.1.1 0 0 1 .08 0c.04.01.07 0 .08-.04l.03-.05.4.45.05.1.32 1.6v.02h-.08l-.48-.86Z" fill="#8A93A5"/><path d="M14.16 6.7c.19.31.29.64.32 1l-.44-.51a.15.15 0 0 1-.04-.12c.01-.07-.03-.12-.12-.13a.18.18 0 0 1-.1-.07l-.47-.56.85.4Z" fill="#859CB6"/><path d="m8.78 7.09-.1.54c-.02.05-.05.07-.1.07h-.04c-.02 0-.03 0-.04-.02a.07.07 0 0 1-.03-.04l-.03-.3.07-.14c.15-.2.23-.42.23-.66 0-.04.03-.06.08-.05l.05.01a.07.07 0 0 1 .04.03.06.06 0 0 1 0 .05l-.13.5Z" fill="#1D2C2E"/><path d="M10.48 8.08c.03.2.1.4.23.59a.28.28 0 0 1-.07.38l-.32.22a.7.7 0 0 0-.15-.53.23.23 0 0 0-.1-.07.4.4 0 0 1-.24-.2.2.2 0 0 0 .09.05c.05 0 .07-.01.07-.06 0-.23-.05-.43-.15-.61-.1-.19-.16-.34-.17-.46a4 4 0 0 1 .05-.76c.01-.04.04-.06.08-.05a.1.1 0 0 1 .04.01l.02.04c.14.51.34 1 .62 1.45Z" fill="#647A93"/><path d="m6.04 7.8-.1.36-.04.46c0 .03-.01.04-.04.03h-.04c-.03-.01-.04-.03-.04-.05v-.65c.05-.22.03-.49-.05-.8l.01-.42c0-.07.04-.1.1-.07h.06l.08.06c.03.03.04.06.04.1l.02.98Z" fill="#AEBBCF"/><path d="m14.5 8.02.02.03h.02c0-.03.02-.05.03-.07l.02 2.03-.6.4a4.79 4.79 0 0 1 .05-1.6.1.1 0 0 0-.06-.06.1.1 0 0 0-.04-.01h-.28c-.15 0-.23-.07-.23-.22V6.94c0-.08.04-.1.1-.05.4.32.53.76.79 1.17 0 .01.02.03.04.03h.06a.29.29 0 0 0 .08-.07ZM5.93 8.16l.11-.36.08-.57c0-.01.01-.02.02-.01h.05c.04.02.06.04.05.07 0 .13-.02.24-.07.35a.24.24 0 0 0-.02.13c.05.33.02.67-.1 1 0 .03-.02.05-.05.05a4.75 4.75 0 0 1-.04-.01l-.03-.65Z" fill="#425E73"/><path d="M6.95 9.9c-.5.34-.98.56-1.46.66l-.05-.3.3-1.1c.2-.1.32-.2.37-.34.14-.36.31-.67.52-.93.1-.12.16-.1.18.05.04.37-.04.73-.23 1.08a.54.54 0 0 0-.07.21c0 .06 0 .1.02.13.03.05.07.05.1 0a.73.73 0 0 1 .2-.2c.04-.02.07-.01.08.03.07.26.08.5.04.71Z" fill="#AEBBCF"/><path d="M9.83 8.48c.05.09.13.15.24.19.04.01.08.04.1.07a.7.7 0 0 1 .15.53.51.51 0 0 1-.11.15c-.04.03-.06.02-.06-.03-.01-.11-.07-.2-.16-.27l-.35-.38-.31-.29c-.06-.05-.07-.1-.03-.17l.03-.05c.04-.07.1-.08.16-.03l.34.28Z" fill="#93A7BD"/><path d="m14 10.4.59-.39.02.37c-.32.18-.66.3-1.03.33-.04 0-.07.03-.08.07-.03.22 0 .39.1.5.22.27.35.45.4.56-.15-.09-.26-.11-.32-.09-.07.03-.08.1-.05.23.02.1.06.2.12.3-.3.44-.67.85-1.1 1.22-.06-.4-.07-1.08-.27-1.41a.14.14 0 0 0-.1-.07 4.47 4.47 0 0 1-1.4-.52c.31-.02.58-.01.81.03.16.02.27-.01.4-.07.06-.02.07-.06.02-.12l-.1-.1c-.06-.05-.11-.05-.17-.02-.3.17-.79.07-1.06.08-.2.01-.35-.08-.53-.16-.06-.03-.09 0-.07.06l.27 1.68c.04.23.12.24.23.04.1-.17.2-.4.3-.7.07.17.09.33.03.5-.07.2-.05.29-.05.47 0 .07.04.18.1.35.1.25.14.55.11.88l-.6.23-.3-1.2a3.62 3.62 0 0 0-.17-.85c-.1-.3-.16-.73-.4-1.07l-.2-.82c-.01-.04 0-.06.05-.05.11.03.22.02.32-.04.04.1.09.14.17.12.01 0 .03 0 .04-.02a.08.08 0 0 0 .02-.05v-.17c0-.06.04-.09.1-.07.1.03.21.02.35-.03.05-.01.08 0 .1.05.1.36.21.44.3.23.6-.15 1.18-.14 1.74.01.04.01.09 0 .13-.02a1 1 0 0 0 .33-.33l.11.17c.18.24.27.2.26-.09-.02-.69-.39-1.51-1.19-1.67a.07.07 0 0 0-.07.03v.03a.7.7 0 0 0 .36.74.1.1 0 0 1 .06.08v.32c0 .04.01.05.05.03.1-.06.2-.07.26-.04-.15.14-.33.24-.53.28-.03.01-.05 0-.07-.01l-.04-.05-.02-.02a.05.05 0 0 1 .01-.05l.02-.01.16-.09c.08-.05.1-.14.05-.25a.14.14 0 0 0-.1-.08l-.42-.1a.2.2 0 0 1-.08-.04.2.2 0 0 1-.07-.15c0-.03 0-.06.02-.09l.45-.87c.1-.2.25-.28.44-.23.04 0 .07.03.1.07.35.62.58 1.27.68 1.97.02.1.06.18.12.2.07.04.17.03.28-.01Z" fill="#2C3F4D"/><path d="m9.64 8.74.35.38c.03.1.03.19 0 .25-.02.04-.06.05-.1.03l-.43-.18H9.4a.08.08 0 0 0-.04.04.15.15 0 0 1-.09.06c.01 0 .01 0 0 0l.13-.04a.1.1 0 0 1 .11.01c.23.19.25.25.06.19l-.07-.1c-.03-.05-.06-.05-.1 0l-.11.13a.16.16 0 0 0-.04.12l.02.43-.41-1.2a.05.05 0 0 1 0-.06.06.06 0 0 1 .05-.02l.73-.04Z" fill="#425E73"/><path d="m13.15 10.34-.16-.4c-.06-.03-.15-.02-.26.04-.04.02-.05.01-.05-.03v-.32a.1.1 0 0 0-.06-.08.7.7 0 0 1-.37-.74.07.07 0 0 1 .03-.05.07.07 0 0 1 .05-.01c.8.16 1.16.98 1.19 1.67 0 .3-.08.33-.26.09l-.1-.17Z" fill="#1D2C2E"/><path d="M9.99 9.12c.1.07.15.16.16.27 0 .05.02.06.06.03a.5.5 0 0 0 .1-.15c-.03.3.07.44.32.44l-.07.59.01.01h.03c.01 0 .02 0 .03-.02a45.94 45.94 0 0 1 .27-.5.11.11 0 0 1 .09-.02l.04.02c.23.14.44.24.62.3.2.05.2.12.02.2-.22.08-.46.22-.71.39-.1.21-.2.13-.32-.23-.01-.05-.04-.06-.1-.05a.61.61 0 0 1-.34.03c-.06-.02-.1 0-.1.07v.17c0 .02 0 .03-.02.05a.08.08 0 0 1-.05.02c-.07.02-.13-.02-.16-.12l-.18-.49a.1.1 0 0 0-.08-.06c-.09-.02-.12-.1-.12-.24.16-.04.18-.16.08-.35.2.06.17 0-.06-.19a.1.1 0 0 0-.11-.01 22.02 22.02 0 0 1-.12.04.15.15 0 0 0 .08-.06c0-.02.02-.03.04-.04h.06l.43.18c.04.02.08 0 .1-.03.03-.06.03-.14 0-.25Z" fill="#728DA6"/><path d="m8.13 10.11-.03.28-.01.03a.06.06 0 0 1-.07.02.06.06 0 0 1-.03-.02.7.7 0 0 1-.15-.37.16.16 0 0 0-.06-.11l-.03-.03a.07.07 0 0 1-.03-.08c.06-.26.03-.45-.08-.57l.46-.12a.08.08 0 0 1 .07.02l.02.04v.04a2.44 2.44 0 0 0-.23.97l.03.02a.07.07 0 0 0 .07 0 .24.24 0 0 0 .07-.12ZM12.52 10l-.16.08a.05.05 0 0 0-.03.04.05.05 0 0 0 .02.04l.04.05c.02.01.04.02.07.01.2-.04.38-.14.53-.28l.16.4a1 1 0 0 1-.33.33.15.15 0 0 1-.13.02 3.46 3.46 0 0 0-1.73-.01c.25-.17.49-.3.7-.4.19-.07.18-.14 0-.2a2.77 2.77 0 0 1-.67-.3.12.12 0 0 0-.09.02 47.13 47.13 0 0 0-.3.52h-.03v-.02l.06-.59c.34-.15.7-.23 1.08-.25.04 0 .09.01.12.04.17.13.37.2.6.23.04 0 .07.03.07.08l.02.18Z" fill="#647A93"/><path d="m6.95 9.9.7.37c0 .15.1.26.05.39-.03.1-.1.17-.21.19a.07.07 0 0 1-.05-.02c-.01 0-.02 0-.02-.02l-.01-.02a.45.45 0 0 1 .07-.32.06.06 0 0 0-.02-.1.07.07 0 0 0-.03 0c-.14-.02-.24.01-.31.07-.35.4-.76.58-1.23.56-.06 0-.09.03-.09.08v.3c0 .04.02.06.06.08.12.06.19.17.2.33l.07.15c.01.02 0 .03-.01.04l-.04.01-.03-.01c-.13-.22-.3-.36-.5-.44-.03-.02-.09-.54-.06-.98.48-.1.96-.32 1.46-.66Z" fill="#7D8897"/><path d="M7.12 10.44c.09.39-.04.71-.39.98a.19.19 0 0 0-.06.1l-.02.07c-.01.05-.04.07-.1.07-.23-.01-.4.03-.5.13 0-.16-.07-.27-.2-.33a.09.09 0 0 1-.05-.08v-.3c0-.05.03-.08.09-.08.47.02.88-.16 1.23-.56Z" fill="#736977"/><path d="m10.89 11.5.08.72c-.1.3-.19.53-.29.7-.11.2-.19.19-.23-.04l-.27-1.68c-.02-.07.01-.09.07-.06.18.08.33.17.53.16.27-.01.75.09 1.06-.08.06-.03.11-.03.16.02l.1.1c.06.05.05.1-.02.12a.68.68 0 0 1-.39.07c-.23-.04-.5-.05-.8-.03Z" fill="#1C1F24"/><path d="m14 11.84-.25.45c-.06-.11-.1-.22-.12-.31-.04-.13-.02-.2.05-.23.06-.02.17 0 .32.09Z" fill="#6E7C89"/><path fill-rule="evenodd" d="M9 14.63A5.63 5.63 0 1 0 9 3.37a5.63 5.63 0 0 0 0 11.25ZM9 15A6 6 0 1 0 9 3a6 6 0 0 0 0 12Z" fill="#0E1014"/><defs><linearGradient id="a" x1="9" y1="3" x2="9" y2="15" gradientUnits="userSpaceOnUse"><stop stop-color="#E2D2D5"/><stop offset=".36" stop-color="#C6D6EE"/><stop offset=".59" stop-color="#406E4E"/><stop offset="1" stop-color="#798696"/></linearGradient></defs></svg>