<!-- by TradingView --><svg width="18" height="18" viewBox="0 0 18 18" xmlns="http://www.w3.org/2000/svg"><path fill="#F0F3FA" d="M0 0h18v18H0z"/><path d="M14 8.5h-1.51c-.22 0-.48.22-.48.5s.26.5.48.5H14a4.95 4.95 0 0 1-.4 1.5H11V6.45c0-.35-.27-.57-.5-.38L8.95 7.54 7.54 6.1C7.3 5.9 7 6.11 7 6.47V11H4.4c-.21-.47-.35-.97-.4-1.5h1.44c.22 0 .55-.22.55-.5s-.33-.5-.55-.5H4c.05-.53.19-1.03.4-1.5h1.1c.2 0 .49-.22.49-.5S5.7 6 5.51 6h-.53a5.03 5.03 0 0 1 8.04 0h-.52c-.2 0-.49.22-.49.5s.3.5.49.5h1.1c.21.47.35.97.4 1.5ZM4.98 12h2.67c.2 0 .35-.21.35-.46V7.89l.76.72c.12.1.28.1.4 0L10 7.9v3.65c0 .25.12.46.32.46h2.7a5.03 5.03 0 0 1-8.04 0Z" fill="url(#atjen3h4o)"/><defs><linearGradient id="atjen3h4o" x1="13.12" y1="6.5" x2="4.34" y2="10.87" gradientUnits="userSpaceOnUse"><stop stop-color="#007EBB"/><stop offset="1" stop-color="#00B88D"/></linearGradient></defs></svg>