<!-- by TradingView --><svg width="18" height="18" viewBox="0 0 18 18" xmlns="http://www.w3.org/2000/svg"><path fill="#D50100" d="M0 0h18v18H0z"/><path d="M7.78 5.25c.05-.18.14-.41.27-.56h.02a.05.05 0 0 1 .05 0l.01.02c.05.23.15.44.32.61.01.02.02.01.02 0l.08-.34c.01-.04.03-.05.05-.05l.03.01.03.03a2.03 2.03 0 0 0 .34.38l.02-.01c.13-.12.25-.25.34-.39.02-.03.05-.03.08 0v.01l.1.34v.01h.02a.02.02 0 0 0 .02 0c.1-.13.19-.26.25-.43a2.79 2.79 0 0 1 .08-.2.04.04 0 0 1 .04 0l.01.01a1.92 1.92 0 0 1 .28.57h.01c.12-.16.21-.33.3-.5 0-.02 0-.02.02-.02h.01v.02a10.4 10.4 0 0 1 .02.64c.28-.23.52-.49.7-.78l.12-.22c.1-.3.13-.6.08-.9a26.84 26.84 0 0 0-.08-.47l.01-.02c.03-.01.06-.01.1.02.58.5 1.06 1 1.39 1.66.08.17.15.3.16.48 0 .2 0 .39-.03.56-.05.26-.1.49-.18.7-.01.02 0 .03.02.02.13-.07.26-.23.35-.31.03-.02.05-.02.05 0 .02.07.02.13 0 .19a2.4 2.4 0 0 1-.53.94h.14a5.56 5.56 0 0 0 .87-.14 1.29 1.29 0 0 1-.5.79v.03l.01.01a3.8 3.8 0 0 1 .58.46l-.01.01H13.79a241.9 241.9 0 0 0-.79-.21c-.02 0-.02 0 0 .02l.34.36c.24.25.4.5.51.8.07.17.11.31.14.44v.11a.02.02 0 0 1-.02 0l-.04-.02a470.6 470.6 0 0 0-.6-.55l-.01.02v.02c.1.2.17.38.23.56.06.17.1.36.12.58a4.58 4.58 0 0 1-.02.97c-.08.05-.26-.15-.3-.2h-.02c-.02-.02-.03-.01-.03.02.04.38.04.74 0 1.07a1.22 1.22 0 0 1-.1.3v.01a.04.04 0 0 1-.04 0 17.27 17.27 0 0 0-.77-.83c-.08-.08-.1-.07-.06.03a3.85 3.85 0 0 1 .04 1.54.75.75 0 0 1-.08.2v.02h-.02l-.56-.67c-.04-.06-.07-.05-.07.02a2.4 2.4 0 0 1-.67 1.63 1.3 1.3 0 0 1-.49.33h-.01v-.02l.03-.31c.05-.3.05-.6 0-.9l-.01-.02-.04.02c-.22.24-.5.42-.84.55a.71.71 0 0 1-.22.04h-.01a.02.02 0 0 1 0-.03A14.3 14.3 0 0 0 9.91 13c0-.05 0-.05-.04-.01-.22.25-.47.4-.8.6-.08.06-.16 0-.24-.04-.24-.14-.45-.3-.65-.5-.04-.03-.08-.1-.1-.13h-.03v.04a12.45 12.45 0 0 0 .58 1.37c0 .02-.02.03-.03.04h-.05a2.18 2.18 0 0 1-1.05-.64H7.5v.02a3.98 3.98 0 0 0 .04 1.22c0 .01 0 .02-.02.02H7.5a1.85 1.85 0 0 1-.84-.83 2.4 2.4 0 0 1-.3-1.14c0-.06-.02-.06-.05-.02l-.56.69c-.03 0-.05 0-.06-.04a3.3 3.3 0 0 1 .02-1.8c0-.01 0-.02-.02-.02h-.03a8 8 0 0 0-.78.87c-.04.05-.07.05-.09 0-.14-.42-.13-.92-.07-1.34 0-.06-.02-.07-.06-.03l-.2.18c-.04.03-.07.03-.1-.01a1 1 0 0 1-.04-.35c0-.28 0-.52.03-.74.03-.23.08-.42.15-.58l.18-.41c.02-.05.01-.06-.03-.02l-.6.55h-.03C4 9.96 4 9.94 4 9.9c.03-.16.08-.33.16-.53.11-.3.28-.55.5-.78a37.27 37.27 0 0 1 .37-.37l-.83.21c-.04.01-.05 0-.04-.03a5.74 5.74 0 0 1 .57-.48h-.01a1.35 1.35 0 0 1-.49-.77v-.02l.02-.02a.05.05 0 0 1 .04 0 3.88 3.88 0 0 0 .95.15c-.2-.23-.36-.48-.47-.75a.8.8 0 0 1-.07-.3c0-.1.04-.12.11-.03a1.73 1.73 0 0 0 .31.26v-.01a3.72 3.72 0 0 1-.2-1.28c0-.07.03-.17.09-.3A5.25 5.25 0 0 1 6.55 3a.04.04 0 0 1 .03.01.04.04 0 0 1 .01.03l-.1.51c-.06.5.07.94.4 1.34.16.18.33.35.5.5.03.02.04.01.04-.01l-.03-.3a4.27 4.27 0 0 1 .04-.36l.02.01v.02c.08.18.18.35.3.5 0 .02.01.02.02 0Z"/><path d="M12.9 6.62a2.54 2.54 0 0 1-.49.6v.03h.02l.03.02a2.9 2.9 0 0 1-.17 0v.01l.01.03a.9.9 0 0 0 .24.05c.3.02.52.02.68-.02l.39-.09a.81.81 0 0 1-.15.23c-.14.16-.25.28-.33.35-.04.03-.08.04-.11.02-.14-.07-.27-.1-.4-.12-.08 0-.09.02-.02.07l.06.03c.08.05.07.07-.02.06-.12 0-.2.04-.28.12h-.02v.02l.44.12c.04 0 .1.05.18.14l.39.4c.22.23.38.5.46.8l-.24-.26a1.03 1.03 0 0 0-.2-.2 3.8 3.8 0 0 0-1-.46h-.03v.03c.1.03.17.06.23.11h-.02a.01.01 0 0 0 0 .02l.45.36c.06.04.1.1.15.19l.14.29c.05.26.1.51.17.76.03.12.04.3.02.55a2.9 2.9 0 0 0-1.35-1.83l-.02.02v.01l.09.09a69.67 69.67 0 0 1 .37.55c.04.1.03.11-.04.02a2.96 2.96 0 0 0-.45-.46H12.02v.01l.26.26c.13.13.22.26.34.4a.02.02 0 0 1 0 .03.01.01 0 0 1-.02 0c-.23-.28-.4-.38-.77-.67a.44.44 0 0 0-.19-.1c-.07 0-.08 0-.02.04l.1.08c.2.2.37.46.44.73.02.06.08.2.06.27h-.01c-.2-.38-.47-.7-.84-.95a.56.56 0 0 0-.2-.09c-.06-.01-.07 0-.02.05.06.05.12.13.18.22.17.3.23.65.18 1.04-.02.12-.09.27-.13.39-.03.1-.04.1-.04-.01.01-.15.03-.3.01-.43-.04-.39-.2-.73-.47-1.04a1.1 1.1 0 0 0-.32-.23h-.03v.03c.09.07.16.16.22.26.27.45.25.87-.06 1.27-.1.12-.21.23-.35.33a3.25 3.25 0 0 1-.53.28H9.8v-.01l.38-.27c.13-.1.27-.25.42-.44a.95.95 0 0 0 .03-1.21c-.08-.1-.12-.17-.21-.25a1.98 1.98 0 0 0-.47-.33 3.88 3.88 0 0 0-.83-.29c-.18-.04-.36.03-.56.1-.24.07-.46.17-.67.29-.12.07-.26.19-.34.26a1.5 1.5 0 0 0-.23.3c-.19.29-.19.6-.05.92.05.1.13.22.24.35a3.09 3.09 0 0 0 .75.59v.01h-.03c-.42-.17-.77-.39-1-.76a.97.97 0 0 1-.16-.47c-.02-.34.13-.65.36-.9l.03-.06a.01.01 0 0 0-.02 0c-.1.05-.23.15-.32.25-.37.41-.52.88-.45 1.41a1.2 1.2 0 0 1 0 .13h-.01c-.07-.18-.15-.37-.17-.54-.04-.43.06-.89.38-1.2.03-.03.02-.05-.03-.04a.49.49 0 0 0-.18.07c-.36.23-.64.55-.85.96-.01.02-.03.03-.07.02-.01 0-.01 0 0 0a.02.02 0 0 0 .02-.02l.11-.37c.1-.23.24-.44.43-.64a.42.42 0 0 1 .1-.07c.02 0 .02-.02.02-.03v-.02a.01.01 0 0 0-.02 0l-.2.1c-.12.1-.24.2-.36.28-.2.14-.33.3-.5.47a4.39 4.39 0 0 1 .64-.77h-.04c-.2.17-.36.35-.53.54H5.4a6.18 6.18 0 0 1 .49-.72c.01-.02 0-.03-.03-.03-.53.33-.9.76-1.14 1.3l-.18.47a1.02 1.02 0 0 1 0-.3l.18-.93c.04-.13.1-.25.18-.37a.9.9 0 0 1 .2-.2 117.1 117.1 0 0 1 .57-.44l-.01-.02a.02.02 0 0 0-.02 0c-.34.1-.66.26-.96.44a.99.99 0 0 0-.2.17l-.23.24c.05-.2.14-.4.27-.56a4.83 4.83 0 0 1 .75-.72 18.06 18.06 0 0 1 .4-.11c0-.01 0-.02-.02-.02-.01-.1-.25-.11-.32-.12H5.3v-.04a.51.51 0 0 0 .16-.1v-.01l-.01-.01c-.18 0-.34.07-.49.13h-.03a3.25 3.25 0 0 1-.55-.6l.14.01a2.33 2.33 0 0 0 1.18.04c.05-.03.05-.05-.01-.05h-.07a8.5 8.5 0 0 0-.24-.27c-.1-.1-.18-.22-.25-.35.1.04.2.1.32.18.11.08.43.25.6.23.06-.01.07-.03 0-.06l-.3-.15a5.83 5.83 0 0 1-.46-.27c-.03-.02-.06-.07-.09-.13C5.06 6.05 5 5.64 5 5.2c0-.09.01-.16.05-.24.3-.66.82-1.26 1.38-1.75.03-.03.04-.02.03.02-.05.25-.1.4-.1.6.01.27.07.5.17.71a3.03 3.03 0 0 0 1.3 1.24h.03c.01-.02 0-.04-.01-.05l-.23-.17c-.07-.05-.09-.08-.1-.15-.02-.1-.06-.3-.04-.42 0-.03.01-.03.03 0 .07.13.2.34.34.42.02.02.03.01.02-.02-.05-.14.1-.4.16-.53.03-.04.05-.04.06.01a1 1 0 0 0 .23.45l.16.16a.05.05 0 0 0 .05 0l.02-.01v-.02l.05-.4v-.01l.02-.01h.02c.07.1.15.2.24.28.07.07.12.14.2.06.12-.1.22-.2.3-.33a.02.02 0 0 1 .03 0l.07.42.01.01.02.01a.04.04 0 0 0 .04 0c.2-.18.34-.39.4-.62 0-.04.02-.05.04 0a1.95 1.95 0 0 1 .18.49l-.01.03c-.02.04 0 .05.03.02.13-.1.24-.23.31-.4.03-.06.05-.05.05.01 0 .15-.01.3-.04.43-.01.03-.04.07-.1.12a5.66 5.66 0 0 1-.25.2v.01h.05a3.3 3.3 0 0 0 1.08-.9 1.73 1.73 0 0 0 .35-1.34c-.01-.05-.09-.25-.07-.33h.02a5.66 5.66 0 0 1 1.4 1.77c.03.06.04.13.04.2 0 .44-.07.86-.21 1.26-.04.12-.1.15-.21.22-.2.13-.42.24-.63.33-.09.03-.08.06 0 .07l.1-.02c.27-.09.55-.22.82-.41Z" fill="#2F3334"/><path d="m6.68 6.09.28.2.02.02a.04.04 0 0 1-.01.04l-.02.01-1.07.27-.01.01v.04l.19.13v.02a.02.02 0 0 1-.03 0 .75.75 0 0 1-.2-.12c-.02 0-.02-.02-.03-.03a.27.27 0 0 0-.04-.11c-.18-.2-.3-.32-.39-.48-.04-.07-.02-.08.04-.04.12.08.25.15.38.2.05.02.06.01.02-.03-.16-.17-.36-.5-.34-.75a5.6 5.6 0 0 1 .68-1.76l.01.01v.01c.01.14.01.21.04.32.03.14.07.36.15.54a2.3 2.3 0 0 0 1.28 1.22v.01c0 .01-.01.02-.03.02-.27.02-.52-.02-.75-.13-.06-.02-.07-.01-.04.04.07.13.14.24.22.34.05.07.04.1-.06.06l-.28-.08c-.04-.01-.04 0 0 .02ZM11.25 6.14c.11-.1.1-.1-.03-.04a.87.87 0 0 1-.26.06l-.01-.01v-.02a2 2 0 0 0 .25-.37c.03-.06.01-.08-.05-.05-.23.1-.47.15-.72.13-.08 0-.08-.02 0-.06a3 3 0 0 0 .59-.36c.35-.28.63-.7.73-1.1.04-.19.1-.38.09-.58v-.01h.01c.03-.01.04 0 .06.02l.12.22c.25.5.42.93.5 1.4.02.12.01.25-.04.37s-.07.2-.13.28a41.16 41.16 0 0 1-.18.25c.17-.07.32-.14.45-.24h.03v.03c-.08.09-.1.18-.19.27-.08.09-.18.17-.23.26-.03.04-.02.1-.07.13a.82.82 0 0 1-.21.12.02.02 0 0 1-.01 0V6.8a19.63 19.63 0 0 0 .2-.16l-.01-.01h-.02l-1.06-.28-.02-.01-.01-.02a.04.04 0 0 1 .02-.04l.2-.15Z"/><path d="M6.12 4.02c-.23.44-.4.89-.48 1.35-.02.08-.01.17.02.27a1.8 1.8 0 0 0 .35.64v.02l-.04.01c-.16-.15-.3-.35-.4-.58-.05-.1-.07-.17-.05-.27A4.62 4.62 0 0 1 6.1 3.9l.01.12ZM12.08 6.28h-.04l-.02-.01a.03.03 0 0 1 0-.03c.12-.17.22-.27.3-.48a.74.74 0 0 0 .05-.4 4.23 4.23 0 0 0-.48-1.3v-.17c.01-.03.02-.03.03 0 .28.49.47 1.01.57 1.57.01.06.01.12-.02.19-.08.19-.14.3-.17.35l-.22.28Z" fill="#DF1937"/><path d="M5.97 6.31 6 6.3a.02.02 0 0 0 0-.03 1.8 1.8 0 0 1-.35-.63.54.54 0 0 1-.02-.27c.09-.46.25-.91.48-1.34.13.77.55 1.34 1.25 1.71l.03.03a.01.01 0 0 1 0 .01h-.01a1.96 1.96 0 0 1-.66-.18l-.02.01-.01.02v.01c.02.14.08.26.18.37.05.04.04.06-.02.04l-.35-.12h-.03a.02.02 0 0 0 0 .03c.1.13.2.18.38.33v.02l-.81.19a.85.85 0 0 0-.2.08h-.03l-.21-.23a.61.61 0 0 1-.12-.17c0-.02 0-.02.01-.01a36.55 36.55 0 0 0 .5.2c.03.01.04 0 .01-.02l-.04-.04ZM11.9 4.06c.23.42.4.85.47 1.3.03.13 0 .25-.06.4-.07.2-.17.31-.28.48l-.01.01v.02l.02.01h.04a.57.57 0 0 1-.04.05c-.06.04-.05.05.02.03a26.4 26.4 0 0 1 .47-.19v.03l-.01.01-.3.35-.02.01h-.02c-.2-.07-.4-.12-.57-.16a6.23 6.23 0 0 1-.46-.12c.08-.08.25-.18.35-.3.05-.05.04-.07-.04-.05a3.67 3.67 0 0 0-.35.12v-.03l.02-.02a.83.83 0 0 0 .19-.4h-.01l-.01-.01h-.02c-.2.09-.44.2-.63.19-.06 0-.06-.02 0-.05.47-.25.82-.6 1.04-1.07.03-.07.07-.17.1-.3l.1-.31Z" fill="#A90017"/><path d="M5.13 6.64c.07.13.15.25.25.35l.24.27h-.26c-.05-.04-.08-.1-.1-.13-.19-.22-.32-.45-.4-.7-.01-.03 0-.03.02-.01l.25.22ZM12.46 7.27l-.03-.01h-.01a.03.03 0 0 1 0-.05c.18-.17.34-.37.47-.6l.24-.2c.03-.02.04-.01.02.02a2.6 2.6 0 0 1-.51.83.43.43 0 0 1-.18 0ZM7.83 6.99c-.16.03-.35.09-.55.16a.72.72 0 0 0-.25.15H7l-.01-.01v-.02c.07-.1.16-.2.27-.3.1-.1.3-.08.44-.07.1.01.14.04.13.09ZM11 7.31a.53.53 0 0 0-.15-.1c-.2-.1-.43-.17-.69-.23-.01-.02 0-.04.06-.05.16-.04.3-.04.42-.02.04.01.1.04.15.1.1.1.18.19.21.25.02.03.02.05 0 .05Z" fill="#606669"/><path d="M10.16 6.98c.26.06.49.13.69.23.04.02.09.05.14.1 0 .03 0 .04-.02.05l-.34.07a2.62 2.62 0 0 0-.8.48.02.02 0 0 1-.01-.01l-.01-.03c.01-.22.04-.43.1-.64.03-.13.1-.26.25-.25ZM7.83 6.99c.09 0 .15.02.19.06a.5.5 0 0 1 .09.21 5.9 5.9 0 0 1 .09.65h-.03a3.02 3.02 0 0 0-.79-.48 1.48 1.48 0 0 0-.33-.07c-.01 0-.03 0-.03-.02l.01-.04a.72.72 0 0 1 .25-.15c.2-.07.39-.13.55-.16Z"/><path d="M4.38 7.26a3.25 3.25 0 0 0 .55.6h.03c.15-.06.3-.13.49-.13h.01a.01.01 0 0 1 0 .02.51.51 0 0 1-.15.1c-.01 0-.02.02-.01.03l.02.01c.07 0 .31.03.32.12-.37.07-.74.14-1.09.25a.64.64 0 0 1-.14.03c-.03 0-.03 0-.01-.02l.44-.32c.04-.02.04-.05 0-.06a1.1 1.1 0 0 1-.52-.65s0-.02.02-.02.03.01.04.04ZM12.36 8a.34.34 0 0 1 .28-.1c.1 0 .1-.02.02-.07a.63.63 0 0 1-.06-.03c-.07-.05-.06-.08.03-.07.12.01.25.05.39.12.03.02.07 0 .1-.02.09-.07.2-.19.34-.35a.81.81 0 0 0 .15-.23.11.11 0 0 1 .06-.02c.01 0 .02 0 .01.01-.07.23-.27.56-.52.64l-.01.01-.01.02a.03.03 0 0 0 .01.03l.5.36h-.01L12.36 8ZM7.46 7.89a1.8 1.8 0 0 0-1.12-.2h-.02l-.02-.02.02-.01c.34-.11.64-.02 1 .11.07.03.12.07.14.12ZM11.74 7.7c-.42-.07-.8-.01-1.17.18-.04 0-.03-.02 0-.04.32-.18.7-.28 1.07-.2.05 0 .08.02.1.05Z" fill="#606669"/><path d="M8.39 8.54c.02.02.02.03 0 .05-.3.14-.6.22-.9.24-.59.02-1.05-.24-1.16-.8a.85.85 0 0 1 0-.26v-.02l.03-.02a2 2 0 0 1 1.2.27c.32.18.6.36.83.54ZM9.62 8.54c.23-.18.5-.36.83-.54a2 2 0 0 1 1.22-.25l.02.03c0 .08 0 .17-.02.26-.1.55-.57.81-1.15.79-.3-.02-.6-.1-.9-.25-.02 0-.03-.02 0-.04Z" fill="#D50100"/><path d="M8.61 8.02a22.3 22.3 0 0 0-.01-.14.03.03 0 0 1 .03 0l.04.04c.1.16.16.33.19.53 0 .07-.03.1-.1.1l-.05.01c-.08 0-.1-.03-.1-.1a1 1 0 0 0 0-.44ZM9.4 8.02a1 1 0 0 0-.01.44c.01.07-.02.1-.1.1h-.04c-.08 0-.1-.05-.1-.12.03-.2.09-.36.19-.52a.13.13 0 0 1 .04-.04.03.03 0 0 1 .03 0l.01.01v.02l-.03.11Z"/><path d="M5.54 8.66c-.16.08-.3.18-.44.29a9.76 9.76 0 0 0-1.02.88c.03-.15.09-.28.16-.4l.24-.25a.99.99 0 0 1 .2-.17 4.37 4.37 0 0 1 .97-.44l.01.01v.01a.26.26 0 0 0-.12.07ZM13.8 9.49c.06.11.1.22.13.32.02.05 0 .06-.03.02-.4-.4-.84-.8-1.33-1.12a.57.57 0 0 0-.23-.11v-.02l.03-.01c.36.11.7.27 1 .47.07.04.13.1.2.19l.24.26Z" fill="#606669"/><path d="M9 8.7c.06 0 .12 0 .2.02.63.18 1.27.45 1.53 1.07.16.4-.03.8-.32 1.08-.22.22-.49.42-.79.6-.16.09-.42.21-.62.21s-.45-.12-.61-.22c-.3-.17-.57-.37-.8-.6-.28-.27-.47-.68-.3-1.07.24-.62.89-.9 1.52-1.07A.75.75 0 0 1 9 8.7Z" fill="#FDFFFE"/><path d="M9 9.2c.17 0 .44.06.56.13.11.05.16.14.16.27 0 .03-.01.07-.04.09a5.7 5.7 0 0 1-.6.39l-.01.02c.02.12.07.2.15.24a.77.77 0 0 0 .96-.16h.02l.01.01v.03a.94.94 0 0 1-.76.35.56.56 0 0 1-.44-.2H9a.56.56 0 0 1-.45.2.94.94 0 0 1-.76-.36v-.03a.02.02 0 0 1 .03 0h.01c.23.28.65.33.96.16.07-.04.12-.12.15-.24 0 0 0-.02-.02-.02a5.73 5.73 0 0 1-.59-.4.12.12 0 0 1-.05-.09c0-.12.06-.21.16-.26.12-.07.4-.13.56-.13Z"/><path d="M9.65 9.56c.01.03 0 .05-.04.05-.4.03-.8.04-1.2 0-.04 0-.05-.01-.05-.05l.2.02h.31c.26-.02.52.02.78-.02ZM13.29 9.57a3.68 3.68 0 0 1 .27 1.8h-.02c-.02 0-.02 0-.02-.02l-.04-.47c.02-.25.01-.43-.02-.55-.07-.25-.12-.5-.17-.76ZM4.53 10.83l-.04.51a.05.05 0 0 1-.02.04h-.03l-.01-.5c0-.44.1-.86.28-1.28l-.18.92v.31Z" fill="#606669"/></svg>