<!-- by TradingView --><svg width="18" height="18" viewBox="0 0 18 18" xmlns="http://www.w3.org/2000/svg"><path fill="#F0F3FA" d="M0 0h18v18H0z"/><path d="M14 9A5 5 0 1 1 4 9a5 5 0 0 1 10 0Z" fill="url(#a)"/><path d="M12 12.94c-.09-.75-.26-1.47-.5-2.18-.1-.32-.19-.64-.25-.98.04-.07.04-.15 0-.23-.02-.01-.02-.03 0-.04l.12-.22c.01.06 0 .1-.03.12a.06.06 0 0 0-.03.05c.04.56.16.95.37 1.57l.18.61.04.2a.04.04 0 0 0 .02.02h.04c.29-.13.5-.34.65-.63.04.04.06.08.05.13-.1.19-.25.33-.43.44a43.7 43.7 0 0 1-.29.18V12c.09.39.18.9.07.94Z" fill="#1F1712"/><path d="M9.7 5.57a4.07 4.07 0 0 1 1.73.53c.33.18.6.43.8.74.02.02.04.03.07.03h.24c.02 0 .03.01.03.03v.45c-.02.03-.06.04-.12.02a.04.04 0 0 0-.05.03V7.54a.1.1 0 0 1-.02.06l-.15.2-.33.32-.24.16a.41.41 0 0 0-.14.15c-.1.19-.15.38-.17.58a.1.1 0 0 0 0 .05c.02.04.04.05.05.04a.83.83 0 0 0-.17.25c-.02-.3.03-.6.16-.86.03-.05.02-.06-.03-.03l-.13.06-.15.07a4.13 4.13 0 0 1-3.78-.3v-.06a.03.03 0 0 1 .02-.02.03.03 0 0 1 .02 0 4.14 4.14 0 0 0 4.69-.32c.02-.02.02-.04-.02-.04l-1.1.01a.04.04 0 0 1-.03-.01.05.05 0 0 1 0-.03v-.17c0-.03-.02-.04-.05-.04l-.13.01c-.02 0-.04-.01-.04-.04V7.4c0-.02 0-.03-.02-.03h-.11a.03.03 0 0 1-.02 0 .03.03 0 0 1-.01-.03v-.16c0-.04-.02-.06-.06-.06l-.26.01c-.03 0-.04.02-.05.05l-.01.15-.01.03h-.03c-.13 0-.1.15-.12.23 0 .02-.02.03-.04.03h-.13c-.01-.01-.02 0-.02.01v.18a.05.05 0 0 1-.05.05H8.45c-.02 0-.03-.01-.03-.03v-.18a.04.04 0 0 0-.03-.04h-.01l-.13.01c-.02 0-.03 0-.03-.03V7.4c0-.02-.01-.03-.03-.04H8.1a.05.05 0 0 1-.05-.02V7.15a.03.03 0 0 0-.01-.02H7.64c-.02 0-.03-.01-.03-.03v-.2c0-.02 0-.03.02-.03h4.49l.01-.01v-.02a3.33 3.33 0 0 0-2.14-1.12 3.93 3.93 0 0 0-3.04.83c-.53.45-.9 1-1.1 1.68-.05-.02-.08-.05-.09-.08.12-.34.24-.6.36-.79a3.93 3.93 0 0 1 3.58-1.8Z" fill="#282828"/><path d="M11.08 8.59c.01.03 0 .06-.06.08-.25.1-.56.2-.93.29l-.41.06c-.2.04-.42 0-.62 0-.05 0-.05 0 0 .02.03.02.07.04.1.04l.4.06a3.02 3.02 0 0 0 1.3-.1c.2-.06.34-.12.37-.35 0-.03 0-.06-.03-.08v-.04a.11.11 0 0 0 .03-.05l.13-.06c.05-.03.06-.02.03.03-.13.27-.18.55-.16.86l-.07.1h-.04c-.06-.05-.12-.04-.19 0-.11.1-.21.2-.3.31a.13.13 0 0 0 0 .15v.06l-.16.1a.04.04 0 0 1-.03 0 .03.03 0 0 1-.02-.01c-.04-.07-.1-.1-.17-.07l-.35.1c-.08.02-.12.08-.13.17 0 .02-.02.04-.04.04l-.2.04a.04.04 0 0 1-.03-.02.15.15 0 0 0-.16-.1 2.63 2.63 0 0 0-.45.08l-.02.03-.05.08a.05.05 0 0 1-.05.03l-.16-.01-.02-.03c0-.17-.11-.19-.26-.25-.1-.03-.33-.13-.38 0a.04.04 0 0 1-.02.03.04.04 0 0 1-.03 0l-.17-.12c-.02-.01-.02-.02-.01-.04.04-.07.04-.13-.02-.18l-.31-.28a.11.11 0 0 0-.07-.03.1.1 0 0 0-.08.03l-.02.01a.05.05 0 0 1-.06 0l-.1-.08a.04.04 0 0 1 0-.06c.05-.07.05-.14-.01-.2a28.2 28.2 0 0 1-.23-.26c-.07-.08-.15-.09-.23-.02h-.04l-.1-.1c-.03-.01-.03-.03-.02-.05.05-.08.05-.15 0-.2l-.26-.29c.07-.2.11-.42.19-.6a7.86 7.86 0 0 1 .34-.78l-.02-.01a.03.03 0 0 0-.03 0c-.06.09-.14.14-.2.22-.2.3-.35.54-.41.7-.04.1-.06.24-.07.46-.04.02-.08 0-.13-.07.2-.69.58-1.23 1.11-1.68.84-.7 1.95-.97 3.04-.83a3.33 3.33 0 0 1 2.14 1.14.02.02 0 0 1-.02 0H7.63c-.02 0-.03.02-.02.04v.2c0 .02.01.03.03.03h.4a.03.03 0 0 1 .02.01v.19a.05.05 0 0 0 .01.04.05.05 0 0 0 .04 0h.08c.02 0 .02.02.02.04v.18c0 .02.02.03.04.03h.12a.04.04 0 0 1 .04.01V7.83c0 .02.02.03.04.03h1.27a.05.05 0 0 0 .05-.05v-.18c0-.01 0-.02.02-.02l.13.01c.02 0 .04 0 .04-.03.02-.08-.01-.23.12-.22l.03-.01.01-.03.01-.15c0-.03.02-.05.05-.05h.26c.04-.01.05 0 .05.05v.16a.03.03 0 0 0 .03.03h.12c.02 0 .03.01.03.03v.18c0 .03 0 .04.03.04h.13c.03 0 .04 0 .04.03V7.83a.04.04 0 0 0 .05.03h1.1c.03 0 .03 0 0 .03a4.14 4.14 0 0 1-4.71.32.03.03 0 0 0-.01.02v.02a.05.05 0 0 0 .02.06c1.12.72 2.54.76 3.76.28Z" fill="#fff"/><path d="M6.17 8.31c-.07-.06-.14-.07-.2-.01.01-.22.03-.37.07-.46.06-.16.2-.4.41-.7.06-.08.14-.13.2-.21a.03.03 0 0 1 .04-.01l.02.01v.03c-.13.24-.25.5-.35.75-.08.18-.12.4-.19.6Z" fill="#D9D9D9"/><path d="M12.02 7.33V7.13l.03-.01h.2a.04.04 0 0 1 .04.03v.18a.04.04 0 0 1-.01.03.04.04 0 0 1-.03 0h-.19a.04.04 0 0 0-.02.01l-.01.01V7.58a.04.04 0 0 1-.01.02.04.04 0 0 1-.03.02h-.2a.04.04 0 0 1-.04-.03V7.38a.04.04 0 0 0-.03-.02h-.19a.04.04 0 0 0-.03.03v.19l-.01.02-.03.01h-.2a.04.04 0 0 1-.04-.01V7.4a.04.04 0 0 1 .01-.03.04.04 0 0 1 .03 0h.19a.04.04 0 0 0 .02-.01.04.04 0 0 0 .01-.03v-.18a.04.04 0 0 1 .01-.02.04.04 0 0 1 .03-.02h.2a.04.04 0 0 1 .04.03v.19a.04.04 0 0 0 .01.02.04.04 0 0 0 .03.02h.18a.04.04 0 0 0 .04-.04ZM9.05 7.33v-.17a.04.04 0 0 1 .02-.04h.22a.04.04 0 0 1 .04.02v.18l-.02.03-.02.01h-.2a.04.04 0 0 0-.03.03V7.57a.04.04 0 0 1-.02.04h-.22a.04.04 0 0 1-.04-.02V7.4l.02-.02.02-.01h.2a.04.04 0 0 0 .03-.03v-.01ZM9.63 7.12h.17a.05.05 0 0 1 .04.03.06.06 0 0 1 .02.04l-.03.12-.01.03a.05.05 0 0 1-.04.02h-.14l-.04-.01a.06.06 0 0 1-.02-.04v-.14a.06.06 0 0 1 .03-.05h.02ZM9.54 7.36h-.18a.05.05 0 0 0-.05.06v.15c0 .02.03.05.06.05h.17c.03 0 .05-.03.05-.06v-.15a.05.05 0 0 0-.05-.05Z" fill="#fff"/><path d="M5.76 8.15c.01.03.04.06.08.08.05.06.09.09.13.07.06-.06.13-.05.2.01l.26.28c.05.06.05.13 0 .2l.01.07.1.09h.05c.08-.07.16-.06.23.02l.23.25c.06.07.06.14 0 .21v.03c0 .01 0 .02.02.03l.09.08c.02.01.04.02.06 0l.03-.01a.1.1 0 0 1 .07-.03 9.67 9.67 0 0 1 .38.3c.06.06.06.12.02.2v.03l.18.11a.04.04 0 0 0 .03 0 .04.04 0 0 0 .02-.02c.05-.13.29-.03.38 0 .15.06.26.08.26.25 0 .01 0 .02.02.03h.16c.03.01.04 0 .05-.02l.05-.08a.08.08 0 0 1 .05-.04c.13-.04.27-.06.42-.07.07 0 .13.03.16.1l.01.02h.03l.2-.04.03-.04c0-.1.05-.15.13-.17l.35-.1c.08-.02.13 0 .17.07a.03.03 0 0 0 .02.01.04.04 0 0 0 .03 0l.15-.1c.02 0 .02-.02.02-.03l-.01-.03a.13.13 0 0 1 0-.15c.09-.11.19-.21.3-.3.07-.05.13-.06.19-.01h.04l.07-.1a.83.83 0 0 1 .17-.25c.08 0 .07.06-.03.2l-.13.2v.05c.05.08.05.16.01.23a1.7 1.7 0 0 0-.26.25c-.08.08-.16.09-.25.02h-.05l-.2.12-.02.05c.03.11-.02.18-.14.21l-.36.1H9.9a.24.24 0 0 1-.09-.1c0-.02-.01-.02-.02-.03h-.02l-.19.03a.06.06 0 0 0-.04.05c-.02.12-.08.18-.18.19l-.3.05c-.1.02-.2-.02-.21-.13a.04.04 0 0 0-.04-.04l-.23-.03a.04.04 0 0 0-.05.02c-.05.1-.13.13-.24.09-.1-.04-.18-.08-.28-.1-.1-.04-.15-.11-.13-.22 0-.02 0-.04-.02-.05l-.2-.13-.04.01c-.07.1-.18.07-.25 0a6.56 6.56 0 0 0-.24-.22c-.09-.07-.1-.15-.03-.23.02-.01.02-.03 0-.04l-.1-.1h-.06c-.07.06-.13.05-.2 0l-.26-.28c-.06-.07-.06-.14 0-.21l-.01-.04-.1-.1c-.02-.02-.04-.02-.05 0-.06.06-.14.05-.22-.03l-.25-.28c-.05-.05-.05-.11 0-.2v-.04H5.8a25.86 25.86 0 0 0-.2-.22v-.05a.04.04 0 0 1 .06 0l.1.05Z" fill="#F0A609"/><path d="M5.8 8.36a6.6 6.6 0 0 0-.1 2.09l.11 1.39c-.05-.14-.08-.1-.06.15l-.03-.22-.13-1.31a7.05 7.05 0 0 1 .13-2.18l.09.08Z" fill="#1F1712"/><path d="M6.1 8.89c-.06.3-.07.6-.04.9a44.53 44.53 0 0 0 .56 3.42l-.02.02a.04.04 0 0 1-.05 0 4.3 4.3 0 0 1-.55-.44.36.36 0 0 1-.08-.12c-.01-.02-.02-.02-.04 0l-.02.04-.05-.87a50.4 50.4 0 0 1-.1-1.4 6.6 6.6 0 0 1 .1-2.08l.03.01.01.02v.02c-.05.09-.05.15 0 .2l.25.28Z" fill="#D9D9D9"/><path d="M6.25 8.75v.05c0 .08-.02.09-.07.03l-.26-.27V8.5a.03.03 0 0 1 .01-.02.03.03 0 0 1 .03 0c.02.01.04.02.06.01.02 0 .02-.02.02-.04l-.01-.03.01-.04c0-.01.02-.02.03-.01l.03.01a21.68 21.68 0 0 0 .27.3v.06c-.01.02-.03.02-.04.01l-.05-.02c-.02 0-.03 0-.03.02Z" fill="#fff"/><path d="M11.23 8.52c0 .02-.01.03-.03.05v.04c.03.02.04.05.03.08-.03.23-.17.3-.37.36a3.02 3.02 0 0 1-1.3.1 13.27 13.27 0 0 0-.5-.1C9 9.01 9 9 9.05 9c.2.01.42.05.62 0 .14-.02.27-.02.41-.05.38-.09.68-.18.93-.29.06-.02.07-.05.06-.08l.15-.07Z" fill="#D9D9D9"/><path d="M11.25 9.78c.06.34.15.66.25.98.24.7.41 1.43.5 2.18-.66.44-1.9.9-3 1.06-.47-.16-1.33-.1-2.17-.56-.01 0-.02 0-.03-.02l-.63-.4-.1-.08a.67.67 0 0 1-.21-.23l.02-.05c.02-.01.03 0 .04.01.02.06.05.1.08.12a4.3 4.3 0 0 0 .58.44.04.04 0 0 0 .04-.02v-.03l-.02-.15a44.52 44.52 0 0 1-.54-3.24c-.03-.3-.02-.6.04-.9.08.08.16.09.22.03.01-.02.03-.02.04 0l.1.1c.02.01.02.02.01.04-.05.07-.05.14.01.2.08.1.17.2.27.28.06.06.13.07.19.01a.04.04 0 0 1 .05 0l.11.1c.02.01.02.03 0 .04-.06.08-.06.16.03.23l.24.22c.07.07.18.1.25 0 0-.02.02-.02.04 0l.2.12c.02.01.03.03.02.05-.02.1.02.18.13.21l.28.1c.11.05.2.02.24-.08a.04.04 0 0 1 .05-.02l.23.03.03.01.01.03c.01.1.12.15.21.13l.3-.05c.1-.01.16-.07.18-.19a.06.06 0 0 1 .04-.05l.19-.03h.02l.02.02c.02.04.05.08.1.1.01.01.03.02.06.01l.37-.1c.11-.03.16-.1.14-.21l.01-.05.2-.12h.05c.09.07.17.06.25-.02.1-.11.18-.2.26-.25Z" fill="#fff"/><path d="M8.72 12.44c.21.09.4.08.54.06l-.17-.92.92-.55a1.07 1.07 0 0 0-1.12-.5l.2 1.05-.8.48c.08.13.22.28.43.38Z" fill="#191616"/><path d="m6.67 9.1-.02-.06c0-.01 0-.02.02-.03.02-.01.05 0 .06.02l.24.25c.06.06.05.1-.03.11-.03 0-.05.03-.05.06a.04.04 0 0 1-.03.04.04.04 0 0 1-.04-.01l-.28-.29a.05.05 0 0 1 0-.06v-.01h.11c.02 0 .02 0 .02-.02ZM11.11 9.65h.06l.01.01a.03.03 0 0 1 0 .03v.01l-.28.28c-.02.02-.03.02-.05.02a.02.02 0 0 1-.02-.01.02.02 0 0 1 0-.02l.01-.06c.01-.03 0-.04-.03-.03l-.08.02c-.02 0-.03 0-.03-.03-.01-.02 0-.04.01-.05l.27-.28a.09.09 0 0 1 .08-.02c.02 0 .03.01.02.03v.06c-.01.02 0 .04.03.04ZM7.51 9.99c0 .03.01.05.04.08a.02.02 0 0 1 0 .02h-.01l-.02.01a.07.07 0 0 1-.06-.01l-.27-.25a.08.08 0 0 1-.03-.08c0-.04.03-.04.05-.02a.1.1 0 0 0 .08.04c.03 0 .04-.01.03-.04l-.04-.08c-.01-.01 0-.02.01-.03l.05.01.26.23c.02.02.04.04.05.08a.03.03 0 0 1-.04.04l-.06-.03c-.02 0-.03 0-.04.03ZM10.3 10.23l.06.02c.01 0 .02 0 .02.02 0 .03-.01.05-.04.05l-.37.1c-.02.02-.04 0-.05-.01v-.04a.2.2 0 0 0 .06-.06c.01-.02 0-.04-.02-.04h-.07c-.02 0-.03-.02-.02-.04a.1.1 0 0 1 .07-.06l.33-.09.07.01c.01.01.02.03 0 .04l-.04.05v.05ZM8.38 10.45l.04.07a.02.02 0 0 1-.01.02l-.01.01h-.01l-.37-.13c-.04-.01-.04-.03-.02-.06a.08.08 0 0 1 .04-.03c.01-.01.02-.02.01-.04a.19.19 0 0 0-.03-.05v-.04c.02-.02.04-.03.06-.02l.37.13c.02 0 .04.03.03.06a.04.04 0 0 1 0 .02h-.02l-.02.01-.05.01-.01.01a.02.02 0 0 0 0 .03ZM9.38 10.46l.03.01c.02.01.02.03.01.05 0 .03-.03.05-.06.05a2.94 2.94 0 0 0-.37.05l-.02-.01a.04.04 0 0 1 0-.05l.02-.04-.01-.04-.04-.02c-.02-.01-.02-.02-.02-.04.01-.03.03-.05.06-.05a4 4 0 0 0 .34-.06c.07-.01.09.01.06.08l-.02.02c0 .02 0 .03.02.04Z" fill="#fff"/><path d="M9.07 11.51c.04 0 .06 0 .08.04-.28.56-.74.81-1.37.76-.41-.04-.74-.39-.91-.77a2.44 2.44 0 0 1-.21-.86c0-.02 0-.03.03-.03h.03c.02 0 .03 0 .03.02.03.5.19 1.13.65 1.4.6.35 1.36.06 1.67-.56Z" fill="#090303"/><path d="M13.68 10.72c.02.03 0 .07-.07.13l-.28.03c-.02 0-.03.01-.03.03l-.06.29-.03.04a.41.41 0 0 1-.43-.04.02.02 0 0 0-.02 0h-.01v.01l-.08.15c0-.05-.02-.09-.06-.13a.52.52 0 0 0 .04-.3c0-.06 0-.12.05-.18.07-.1.27-.1.33.02l.03.03h.04l.58-.08ZM9.15 11.55c-.02-.03-.04-.04-.08-.04.02-.06.03-.17.01-.32 0-.04.02-.1.06-.15.08-.12.26-.1.34.01a.08.08 0 0 0 .07.04l.53-.05a.05.05 0 0 1 .05.03l-.01.07a.06.06 0 0 1-.05.02H9.8a.05.05 0 0 0-.05.05l-.05.25a.1.1 0 0 1-.06.07.42.42 0 0 1-.4-.03c-.04-.02-.06 0-.08.05Z" fill="#282828"/><path fill-rule="evenodd" d="M9 13.84a4.84 4.84 0 1 0 0-9.68 4.84 4.84 0 0 0 0 9.68ZM9 14A5 5 0 1 0 9 4a5 5 0 0 0 0 10Z" fill="#292929"/><defs><linearGradient id="a" x1="4.47" y1="9.47" x2="13.38" y2="9.47" gradientUnits="userSpaceOnUse"><stop stop-color="#26E1E9"/><stop offset=".63" stop-color="#0E78AF"/><stop offset="1" stop-color="#0F9AF9"/></linearGradient></defs></svg>