<!-- by TradingView --><svg width="18" height="18" viewBox="0 0 18 18" xmlns="http://www.w3.org/2000/svg"><path fill="#0F1427" d="M0 0h18v18H0z"/><path d="M7.82 4.15c-.01.06-.05.1-.13.11a.5.5 0 0 1-.19.01c-.06-.08-.06-.15.01-.22.06-.06.13-.07.2-.02.05.02.09.06.11.12Z" fill="#5EEF0B"/><path d="M9.12 4.47a.48.48 0 0 1-.1.23c-.03 0-.04.02-.05.03l-.21-.2a.05.05 0 0 1-.02-.04l.01-.1-.02-.01H8.7a.9.9 0 0 1-.27.23l-.2-.21.32-.25c.05-.04.1-.04.15 0l.42.32Z" fill="#C8453C"/><path d="m7.98 4.57.04.17c-.03-.02-.05-.02-.06.01-.02.05-.06.08-.13.1-.02 0-.04 0-.05-.03a.6.6 0 0 0-.17-.25.07.07 0 0 1-.03-.06.4.4 0 0 0-.08-.24.5.5 0 0 0 .2 0c.07-.02.11-.06.12-.12l.16.42Z" fill="#399503"/><path d="m8.23 4.4.2.22-.31.23c-.03.02-.04.05-.03.08l.29.78a.16.16 0 0 1-.1.11.09.09 0 0 1-.07 0 .08.08 0 0 1-.05-.04 7.34 7.34 0 0 1-.2-.52.83.83 0 0 0-.14-.22.08.08 0 0 1-.02-.05v-.04c.22-.07.3-.14.22-.2l-.05-.18.26-.17Z" fill="#5EEF0B"/><path d="M9.75 5.54c-.12.1-.18.2-.18.31-.04-.04-.05-.1-.04-.2 0-.01 0-.03-.03-.04l-.35-.21-.07-.06a.05.05 0 0 1-.03-.05c0-.02.02-.03.04-.04a.78.78 0 0 0 .34-.3 5.19 5.19 0 0 1-.1-.05.64.64 0 0 1-.22-.1 1.23 1.23 0 0 0-.08-.06l-.01-.02V4.7c.05-.07.09-.14.1-.23.13.1.26.17.38.2.07 0 .1.04.08.1a.7.7 0 0 1-.2.4c-.02.02-.02.03 0 .05l.37.32Z" fill="#43B705"/><path d="M9.02 4.7v.02l.01.02.09.06c.09.06.15.1.2.1l.1.02c.02 0 .02.02.01.04a.78.78 0 0 1-.34.29.05.05 0 0 0-.03.04c0 .02 0 .04.02.05l.07.06a.97.97 0 0 1-.3-.12c-.15-.09-.1-.22.13-.4.04-.03.04-.08 0-.15l.04-.03Z" fill="#194803"/><path d="m7.28 5.05-.05-.26.34-.06c.02 0 .04 0 .05.02L7.7 5c0 .01 0 .02-.02.02l-.41.04Z" fill="#43B705"/><path d="m7.23 4.8.05.25a.55.55 0 0 1-.37.01s-.02 0-.02.02v.02a.4.4 0 0 1 .12.08l.02.05-.04.3-.33.02.04-.6c0-.05.03-.08.08-.09l.45-.07Z" fill="#C8453C"/><path d="M7.8 4.95v.04l.02.05c.08.1.12.17.14.22l.2.52c0 .02.03.03.05.04.02.01.05.01.07 0a.16.16 0 0 0 .1-.11c.03.04.12.07.27.1a.41.41 0 0 0-.07.23c-.04.06-.12.06-.24 0-.03 0-.04 0-.05.03v.06l-.04.05-.45.48c-.15.04-.25 0-.3-.11v-.06l.08-.13h.03c.01 0 .02 0 .03-.02l.4-.43a.08.08 0 0 0 .03-.1l-.3-.8v-.04l.04-.02Z" fill="#43B705"/><path d="M11.86 6.52v-.09l-.06-.11.79-.76c.08-.08.15-.08.23 0 .05.05.05.1 0 .15-.22.23-.45.46-.7.69a.47.47 0 0 1-.26.12Z" fill="#399503"/><path d="m6.99 5.53-.03.34c0 .03.01.05.04.07l.53.37h.01l.04.05-.08.13a.06.06 0 0 0 0 .06c.05.11.15.15.3.1.04.27.07.52.08.77 0 .07.05.13.14.2a4.07 4.07 0 0 1 .58.45L8.73 8c.01.1.05.18.1.25a.28.28 0 0 1-.28 0c-.02 0-.03-.02-.02-.04l.01-.06c0-.03 0-.03-.02-.01a.12.12 0 0 0-.02.03c-.05.12.01.19.19.21.03 0 .05.02.05.05.02.27.03.47.02.6 0 .08.04.15.13.21l.68.47c.05.03.08.08.1.13.03.18.05.36.04.54l-.29.03-.07-.42a.12.12 0 0 0-.05-.08l-.67-.47a.42.42 0 0 1-.13-.2.76.76 0 0 1-.06-.26 4.8 4.8 0 0 0-.08-.7l-.63-.5a.06.06 0 0 0-.07 0L7.2 8a.33.33 0 0 1-.3 0c-.03 0-.04 0-.02.04l.03.02c.12.03.18.08.18.15l.02.62c0 .06.03.11.1.15l.62.43c-.05.12-.1.2-.18.23l-.7-.47a.27.27 0 0 1-.13-.22l-.06-.84a.13.13 0 0 0-.05-.1c-.15-.1-.36-.25-.63-.46a.42.42 0 0 1-.17-.36 12.33 12.33 0 0 0-.07-.77l-.78-.57c-.08-.05-.08-.11 0-.18.07-.07.14-.07.22-.02l.74.52c.02.02.05.02.07 0l.52-.26a.05.05 0 0 0 .03-.05l.02-.3.33-.03ZM9.75 5.54l.24.97c0 .06-.02.1-.04.1a.14.14 0 0 1-.12 0 .14.14 0 0 1-.07-.1l-.15-.58a.21.21 0 0 0-.04-.08c0-.1.06-.21.18-.31Z" fill="#5EEF0B"/><path d="M8.58 6.04c0-.07.02-.15.07-.24l.56.07c.03 0 .06.02.08.04a.1.1 0 0 1 .03.09l-.02.06c-.01.06-.05.1-.13.08l-.54-.06a.07.07 0 0 1-.04-.02v-.02Z" fill="#C8453C"/><path d="m9.98 6.51.6.38c.03.01.04.02.06 0l.33-.19c.06.07.11.14.14.21l-.35.2c-.1-.04-.16-.01-.17.09 0 .03 0 .08.03.14l.07.25c.01.07.08.19.18.35-.01.03-.04.05-.1.05-.02 0-.03 0-.03-.02l-.21-.73a.1.1 0 0 1 0-.05v-.03c0-.02 0-.03-.02-.04l-.6-.3a.1.1 0 0 0-.1 0l-.87.49c-.08.04-.14.03-.2-.04-.06-.08-.05-.14.05-.2l.88-.51c.02-.01.03-.03.02-.05-.07-.19-.1-.38-.08-.58l.15.58c.01.04.03.07.07.1.04.01.08.02.11 0 .03 0 .04-.04.04-.1Z" fill="#43B705"/><path d="M5.98 6.39c.15.02.25.02.3 0a2 2 0 0 0 .44-.24h.06l.6.43c.06.05.1.11.11.19l.08.75c0 .03 0 .04-.03.03H7.5l-.07.02-.47.23h-.04l-.62-.45a.16.16 0 0 1-.07-.12l-.05-.67c0-.03-.02-.06-.06-.07a.36.36 0 0 1-.16-.09V6.4Z" fill="#0F1427"/><path d="m11.8 6.32.06.1v.1a.32.32 0 0 1-.1.01c-.02 0-.04 0-.06.02l-.59.36a.73.73 0 0 0-.14-.2c.19-.17.37-.27.53-.34l.3-.05Z" fill="#9F3028"/><path d="M10.76 7.1c.07.25.15.48.23.71.02.06-.02.1-.12.13-.1-.16-.17-.28-.18-.35a2.32 2.32 0 0 0-.07-.25.37.37 0 0 1-.03-.14c0-.1.06-.13.17-.1Z" fill="#5EEF0B"/><path d="m5.68 7.69-.15-.18.24-.14a.1.1 0 0 1 .08-.02.1.1 0 0 1 .06.05l.04.06c.04.06.02.1-.04.13l-.23.1Z" fill="#43B705"/><path d="m5.53 7.51.15.18-.26.14a.12.12 0 0 1-.13 0c-.08-.05-.08-.11-.02-.17a.66.66 0 0 1 .26-.15Z" fill="#9F3028"/><path d="M9.28 8.06a.71.71 0 0 0-.13-.26c.13-.1.23-.09.3.02.03.05.03.1 0 .15-.02.04-.08.07-.17.09Z" fill="#C8453C"/><path d="M9.15 7.8c.06.07.1.15.13.26l-.44.19a.45.45 0 0 1-.1-.25l.41-.2Z" fill="#9F3028"/><path d="M11.39 8.16c.06.06.15.07.21.03.06-.05.06-.13 0-.2-.05-.06-.15-.07-.2-.03-.07.05-.07.14-.01.2ZM11.96 9.4c0 .06-.03.13-.1.21l-.69.5c-.02.03-.03.05-.02.08.06.16.12.32.17.5.03.08.08.15.14.2.07.05.15.1.23.13l.48.31.16.12c.05.04.07.09.04.14l-.22.55h-.03a.2.2 0 0 1-.1-.05.39.39 0 0 0-.15-.06c.01-.13.05-.25.11-.38.01-.02 0-.04-.01-.05l-.88-.58a.32.32 0 0 1-.1-.16.4.4 0 0 1 .13-.13v-.03c-.06-.07-.12-.21-.17-.44a5.23 5.23 0 0 0-.04-.16c0-.02 0-.04.02-.05l.78-.6c.03-.02.03-.04.02-.06l-.23-.71c-.01-.03 0-.08.02-.15l.04-.03c.04-.03.07-.02.08.03l.32.86Z" fill="#5EEF0B"/><path d="M6.58 9.28a.27.27 0 0 1-.11-.2l.2-.1c.03-.02.06 0 .09.02l.06.11c.02.03.02.06-.02.07l-.22.1Z" fill="#43B705"/><path d="M6.47 9.08c0 .09.04.15.1.2a.8.8 0 0 1-.32.14c-.06 0-.1-.03-.12-.09-.02-.05 0-.09.04-.12.08-.05.18-.1.3-.13Z" fill="#9F3028"/><path d="M7.9 10.15h-.22l-.03-.51c.07-.04.13-.12.18-.23l.48-.2c.06-.03.12-.01.16.04l.06.09c.03.05.02.09-.04.11l-.44.2c-.07.03-.16.01-.26-.05v.03l.17.1.04.05-.01.33c0 .04-.04.05-.1.04Z" fill="#43B705"/><path d="M11.86 9.61c.07-.08.1-.15.1-.22l.58.32c.03.02.04.05.03.1l-.01.02c-.04.05-.08.06-.13.03l-.57-.25Z" fill="#399503"/><path d="M7.9 10.15c.05 0 .07.01.07.05v.41c0 .04-.02.07-.05.1l-.4.3a.32.32 0 0 0-.08-.1c0-.06.03-.11.08-.15a.1.1 0 0 1 .06-.02c.03 0 .05-.01.07-.03l.01-.06.02-.5h.22ZM9.71 10.37l.01.12c.01.13.05.21.12.25l.5.3c.1.04.12.1.1.2l-.02.02c-.02.08-.07.1-.14.06l-.75-.39a.12.12 0 0 1-.07-.1l-.04-.42.3-.04Z" fill="#292DF2"/><path d="M6.9 10.76a.57.57 0 0 0-.06.25 1.51 1.51 0 0 1-.46-.15.06.06 0 0 1-.03-.05c-.01-.1.04-.17.17-.17.07 0 .2.03.39.12Z" fill="#C8453C"/><path d="M6.84 11c.01-.1.03-.17.07-.24l.3.08c.02 0 .03.02.03.04l-.02.1c-.03.11.06.16.26.15.04 0 .07 0 .08.04l.27.7c0 .03.03.04.05.05l.77.13c.03 0 .05 0 .07-.02l.79-.6a.08.08 0 0 1 .07-.01l.55.13c.05.01.08.04.07.1l-.03.1c0 .04-.03.06-.08.05l-.44-.11-.07.01-.75.58a.18.18 0 0 1-.15.03l-.88-.15c-.02 0-.04 0-.05.02l-.7.71c-.07.07-.14.08-.22.02-.08-.07-.08-.14-.01-.2l.71-.7c.02-.02.02-.04.01-.06l-.29-.76a.13.13 0 0 0-.08-.08l-.33-.1Z" fill="#5EEF0B"/><path d="M7.44 10.91c.03.02.05.06.08.1.02.05-.01.06-.1.04-.06-.02-.1-.07-.1-.15 0-.03.02-.04.05-.03l.07.04Z" fill="#43B705"/><path d="M10.98 10.86c.02.06.06.11.11.15-.07.17-.16.26-.3.25a.15.15 0 0 1-.12-.07.12.12 0 0 1 0-.12c.02-.05.06-.1.14-.12l.17-.09Z" fill="#399503"/><path d="M12.26 11.25c-.08 0-.13-.02-.16-.07s-.02-.1.03-.16a.16.16 0 0 1 .1-.01c.07.02.1.06.1.13 0 .06-.03.1-.07.11ZM10.64 11.8c-.04.03-.06.02-.04-.03l.05-.19c.02-.05.05-.1.1-.14l.34-.25c.06-.05.13-.05.19.01l.01.02c.03.02.01.05-.03.09l-.62.48Z" fill="#5EEF0B"/><path d="M10.5 11.85a.58.58 0 0 1-.2-.05l.1-.36c0-.02.02-.03.03-.03.07-.01.12 0 .14.05v.05a.77.77 0 0 0-.06.34Z" fill="#6C7EF4"/><path d="M10.3 11.8c.07.03.14.05.2.05.02.13 0 .27-.06.42 0 .02 0 .03.02.04l.71.44c.03.02.04.04.01.07a.26.26 0 0 0-.07.19c0 .02 0 .04.03.04h.04c.03.01.05 0 .06-.03l.02-.12c.01-.05.04-.05.07 0 .04.04.09.08.14.1.04.03.04.04 0 .06l-.17.09a.1.1 0 0 1-.1 0l-1.07-.66c-.06-.03-.08-.08-.07-.14.05-.23.12-.41.23-.55Z" fill="#5EEF0B"/><path d="M11.87 12.03c.06.01.1.03.14.06-.06.05-.11.16-.17.32l-.03.12v.03h.06c.02 0 .03 0 .03-.02l.14-.21a.1.1 0 0 0 .02-.06c0-.05.01-.1.06-.14h.03l-.1.38c-.02.04 0 .08.03.1l.26.2-.17.22-.47-.28c-.06-.03-.08-.07-.07-.12.04-.2.12-.4.24-.6Z" fill="#292DF2"/><path d="M12.01 12.1a.2.2 0 0 0 .1.03.18.18 0 0 0-.05.14.1.1 0 0 1-.02.06l-.14.21-.02.02h-.07v-.03l.04-.12c.05-.16.1-.27.16-.32Z" fill="#6C7EF4"/><path d="m12.18 13.03.16-.22.59.4c.09.06.1.13.02.22-.08.08-.16.09-.25.03l-.5-.37a.05.05 0 0 1-.03-.03v-.03Z" fill="#5EEF0B"/></svg>