<!-- by TradingView --><svg width="18" height="18" viewBox="0 0 18 18" xmlns="http://www.w3.org/2000/svg"><path fill="#1C4B9B" d="M0 0h18v18H0z"/><path d="m6.86 9-2.78 3.72c-.1-.06-.09-.24-.07-.32L4.7 9h2.15Z" fill="url(#al5nqp35m)"/><path d="M8.84 10.52 6.86 9l-2.78 3.72c.07.09.22.06.3.04l4.46-2.24Z" fill="url(#bl5nqp35m)"/><path d="M6.87 9H4.7l.96-3.67a.4.4 0 0 1 .17-.2L6.87 9Z" fill="#54CCFF"/><path d="M6.14 5.13c-.12-.1-.26-.04-.31 0L6.87 9l4.65.3C9.78 7.98 6.26 5.23 6.14 5.14Z" fill="#A2AFFE"/><path d="M8.84 10.53 6.86 9l2.2.13-.22 1.4Z" fill="#3189F7"/><path d="m11.52 9.3-2.46-.18-.22 1.4 3.53 2.32c.08.05.25.16.32.16a.6.6 0 0 0 .19-.03L11.52 9.3Z" fill="url(#cl5nqp35m)"/><path d="M13.56 9.25h-2.09l1.4 3.72c.18-.04.28-.24.3-.33l.39-3.39Z" fill="url(#dl5nqp35m)"/><path d="M11.5 9.3 9.3 7.59l4.22-2.5c.04-.04.16-.11.32-.06.17.05.17.26.15.36l-.44 3.93h-2.06Z" fill="url(#el5nqp35m)"/><defs><linearGradient id="al5nqp35m" x1="5.43" y1="9" x2="5.43" y2="12.72" gradientUnits="userSpaceOnUse"><stop stop-color="#38C2FF"/><stop offset="1" stop-color="#2698EE"/></linearGradient><linearGradient id="bl5nqp35m" x1="6.46" y1="9" x2="6.46" y2="12.78" gradientUnits="userSpaceOnUse"><stop stop-color="#4196FF"/><stop offset="1" stop-color="#2588FD"/></linearGradient><linearGradient id="cl5nqp35m" x1="10.86" y1="9.12" x2="10.09" y2="11.71" gradientUnits="userSpaceOnUse"><stop stop-color="#4583FC"/><stop offset="1" stop-color="#307EFA"/></linearGradient><linearGradient id="dl5nqp35m" x1="12.54" y1="9.25" x2="12.54" y2="12.96" gradientUnits="userSpaceOnUse"><stop stop-color="#718CFD"/><stop offset="1" stop-color="#5A86FF"/></linearGradient><linearGradient id="el5nqp35m" x1="13.76" y1="5.28" x2="11.54" y2="9.18" gradientUnits="userSpaceOnUse"><stop stop-color="#A796F6"/><stop offset="1" stop-color="#999FFF"/></linearGradient></defs></svg>