<!-- by TradingView --><svg width="18" height="18" viewBox="0 0 18 18" xmlns="http://www.w3.org/2000/svg"><path fill="#F0F3FA" d="M0 0h18v18H0z"/><path d="M8.53 4.66h-3.1a1 1 0 0 0-.5.13.9.9 0 0 0-.34.36L3.16 7.86a1.36 1.36 0 0 0 .01 1.3l2.22 4.01c.14.25.35.46.6.6.26.15.56.23.86.23h5.37c.17 0 .34-.05.5-.13a.9.9 0 0 0 .34-.36l1.43-2.71a1.36 1.36 0 0 0-.01-1.3L12.26 5.5a1.57 1.57 0 0 0-.6-.6 1.73 1.73 0 0 0-.86-.23H8.53Z" fill="url(#aouef45rs)"/><path d="M8.88 4h-3.1a.99.99 0 0 0-.5.13.9.9 0 0 0-.34.36L3.51 7.2a1.36 1.36 0 0 0 .01 1.3l2.22 4.01c.14.25.35.46.6.6.26.15.56.23.86.23h5.37a1 1 0 0 0 .5-.13.9.9 0 0 0 .34-.36l1.43-2.71a1.36 1.36 0 0 0-.01-1.3L12.6 4.84a1.57 1.57 0 0 0-.6-.6 1.73 1.73 0 0 0-.86-.23H8.88Z" fill="url(#bouef45rs)"/><path d="m11.86 7.78.01-.07.01-.13-.02-.09a.85.85 0 0 0-.02-.12l-.05-.1a1.2 1.2 0 0 0-.05-.11v-.02l-.52-.87-.59.6.52.87.06.14.04.1.03.12.02.08c0 .05 0 .1-.02.14v.02c-.1.04-.22.08-.34.1l-1.14.23-.59.6.09-.01-.03.02 1.1-.21c.33-.07.58-.19.74-.35l.59-.6-.1.06.08-.08a.77.77 0 0 0 .18-.32Z" fill="#00B6FF"/><path d="M8.83 9a.67.67 0 0 1-.32-.3c-.1-.17-.1-.3 0-.39l-.59.6c-.1.1-.1.23 0 .39s.2.26.32.3l3.53 1.47.59-.6-3.53-1.46Z" fill="url(#couef45rs)"/><path d="m9.48 5.44-.59.6c-.12.02-.25.03-.37.06l.59-.6c.12-.03.24-.05.37-.06" fill="#202020"/><path d="m10.8 7.44-.02-.07-.02-.06a.69.69 0 0 0-.04-.07v-.01l-.35-.58a.84.84 0 0 0-.17-.21.8.8 0 0 0-.08-.05.79.79 0 0 0-.16-.09 1.03 1.03 0 0 0-.42-.06h-.08l-.22.03-.01.02-.8.16-1.18.23-.58.6 1.17-.23 1.04-.19c.42-.04.72.1.89.4l.01-.02-.01.01.34.58v.01c.11.19.11.33 0 .44l.09-.08a.3.3 0 0 1-.06.1l.58-.6a.3.3 0 0 0 .07-.1v-.03l.02-.08-.01-.05Z" fill="url(#douef45rs)"/><path d="m13.6 10.22-.58.6-1.25.25.59-.6 1.24-.25Z" fill="url(#eouef45rs)"/><path d="m8.8 11.17-.6.6-2.97-5.04.58-.6 2.98 5.04Z" fill="url(#fouef45rs)"/><path d="m9.78 10.98-.58.6-1 .2.59-.6 1-.2Z" fill="url(#gouef45rs)"/><path d="m10.29 7.86-1.42.3c-.4.07-.53.26-.36.55.09.15.2.25.32.3l3.53 1.46 1.24-.25-3.74-1.54 1.1-.22c.42-.08.7-.24.85-.49.14-.24.12-.52-.06-.84l-.51-.87c-.43-.72-1.15-.98-2.14-.78l-3.29.64 2.98 5.05 1-.2-2.54-4.29 2-.4c.53-.1.9.03 1.1.37l.35.58c.19.33.05.54-.41.63Zm-1.41.31 1.42-.29h.04-.04l-1.42.3c-.2.03-.34.1-.4.2.06-.1.19-.17.4-.2Zm1.55-.32h-.02.02Zm3.1 2.37L9.8 8.67l3.75 1.55Zm-1.8-3.08-.51-.87a.81.81 0 0 0-.02-.04l.02.04.51.87ZM9.11 5.5a2.37 2.37 0 0 0 0 0l-3.27.64 3.27-.64Zm.64 5.46-2.53-4.3 2.53 4.3Z" fill="url(#houef45rs)"/><path d="M6.14 7.85 8.17 4H5.78a.99.99 0 0 0-.5.13.9.9 0 0 0-.34.36L3.51 7.2a1.36 1.36 0 0 0 .01 1.3l2.16 3.91s-.65-2.45.46-4.56Z" fill="url(#iouef45rs)"/><path style="mix-blend-mode:overlay" d="M6.14 7.85 8.17 4H5.78a.99.99 0 0 0-.5.13.9.9 0 0 0-.34.36L3.51 7.2a1.36 1.36 0 0 0 .01 1.3l2.22 4.02s-.71-2.56.4-4.67Z" fill="url(#jouef45rs)"/><path opacity=".42" d="m3.52 8.5.92 1.66c-.06-.95.19-1.82.72-2.84L6.91 4H5.78a.99.99 0 0 0-.5.13.9.9 0 0 0-.34.36L3.51 7.2a1.36 1.36 0 0 0 .01 1.3Z" fill="url(#kouef45rs)"/><path d="m12.2 9.49-2.02 3.85h2.39a1 1 0 0 0 .5-.13.9.9 0 0 0 .34-.36l1.43-2.71a1.36 1.36 0 0 0-.01-1.3l-2.16-3.9s.65 2.44-.46 4.55Z" fill="url(#louef45rs)"/><path style="mix-blend-mode:overlay" d="m12.2 9.49-2.02 3.85h2.39a1 1 0 0 0 .5-.13.9.9 0 0 0 .34-.36l1.43-2.71a1.36 1.36 0 0 0-.01-1.3L12.6 4.83s.71 2.56-.4 4.67Z" fill="url(#mouef45rs)"/><path opacity=".42" d="m14.83 8.85-.92-1.67c.06.95-.18 1.82-.72 2.84l-1.75 3.32h1.13a1 1 0 0 0 .5-.13.9.9 0 0 0 .34-.36l1.43-2.71a1.36 1.36 0 0 0-.01-1.3Z" fill="url(#nouef45rs)"/><defs><linearGradient id="aouef45rs" x1="12.75" y1="11.51" x2="6.33" y2="7.37" gradientUnits="userSpaceOnUse"><stop stop-color="#003196"/><stop offset="1" stop-color="#0CC4FF"/></linearGradient><linearGradient id="bouef45rs" x1="13.1" y1="10.85" x2="6.68" y2="6.71" gradientUnits="userSpaceOnUse"><stop stop-color="#0CC4FF"/><stop offset="1" stop-color="#003196"/></linearGradient><linearGradient id="couef45rs" x1="10.58" y1="8.64" x2="9.46" y2="11.67" gradientUnits="userSpaceOnUse"><stop stop-color="#0064FF"/><stop offset=".42" stop-color="#0040CE"/><stop offset=".8" stop-color="#0025AA"/></linearGradient><linearGradient id="douef45rs" x1="6.67" y1="7.27" x2="10.8" y2="7.27" gradientUnits="userSpaceOnUse"><stop stop-color="#0064FF"/><stop offset=".42" stop-color="#0040CE"/><stop offset=".8" stop-color="#0025AA"/><stop offset="1" stop-color="#001B9C"/></linearGradient><linearGradient id="eouef45rs" x1="11.77" y1="10.65" x2="13.6" y2="10.65" gradientUnits="userSpaceOnUse"><stop stop-color="#0064FF"/><stop offset=".42" stop-color="#0040CE"/><stop offset=".8" stop-color="#0025AA"/></linearGradient><linearGradient id="fouef45rs" x1="5.23" y1="8.95" x2="8.79" y2="8.95" gradientUnits="userSpaceOnUse"><stop stop-color="#0064FF"/><stop offset=".42" stop-color="#0040CE"/><stop offset=".8" stop-color="#0025AA"/><stop offset="1" stop-color="#001B9C"/></linearGradient><linearGradient id="gouef45rs" x1="8.2" y1="11.38" x2="9.78" y2="11.38" gradientUnits="userSpaceOnUse"><stop stop-color="#0064FF"/><stop offset=".42" stop-color="#0040CE"/><stop offset=".8" stop-color="#0025AA"/></linearGradient><linearGradient id="houef45rs" x1="6.34" y1="6.14" x2="11.1" y2="9.86" gradientUnits="userSpaceOnUse"><stop stop-color="#7520FF"/><stop offset=".2" stop-color="#535BFF"/><stop offset=".4" stop-color="#368EFF"/><stop offset=".58" stop-color="#1EB6FF"/><stop offset=".75" stop-color="#0ED3FF"/><stop offset=".89" stop-color="#04E5FF"/><stop offset="1" stop-color="#00EBFF"/></linearGradient><linearGradient id="iouef45rs" x1="5.76" y1="4" x2="5.76" y2="12.41" gradientUnits="userSpaceOnUse"><stop stop-color="#A553FF" stop-opacity="0"/><stop offset="1" stop-color="#AE38FF"/></linearGradient><linearGradient id="jouef45rs" x1="5.64" y1="7.86" x2="2.44" y2="6.74" gradientUnits="userSpaceOnUse"><stop stop-color="#AF53FF" stop-opacity="0"/><stop offset=".16" stop-color="#AF4DFF" stop-opacity=".2"/><stop offset=".39" stop-color="#AF46FF" stop-opacity=".48"/><stop offset=".78" stop-color="#AE3CFF" stop-opacity=".87"/></linearGradient><linearGradient id="kouef45rs" x1="9.28" y1="8.73" x2="3.38" y2="5.6" gradientUnits="userSpaceOnUse"><stop stop-color="#8A0BFF" stop-opacity="0"/><stop offset="1" stop-color="#2A0056"/></linearGradient><linearGradient id="louef45rs" x1="12.59" y1="13.34" x2="12.59" y2="4.93" gradientUnits="userSpaceOnUse"><stop stop-color="#A553FF" stop-opacity="0"/><stop offset="1" stop-color="#AE38FF"/></linearGradient><linearGradient id="mouef45rs" x1="12.71" y1="9.48" x2="15.91" y2="10.6" gradientUnits="userSpaceOnUse"><stop stop-color="#AF53FF" stop-opacity="0"/><stop offset=".16" stop-color="#AF4DFF" stop-opacity=".2"/><stop offset=".39" stop-color="#AF46FF" stop-opacity=".48"/><stop offset=".78" stop-color="#AE3CFF" stop-opacity=".87"/></linearGradient><linearGradient id="nouef45rs" x1="9.07" y1="8.61" x2="14.96" y2="11.74" gradientUnits="userSpaceOnUse"><stop stop-color="#8A0BFF" stop-opacity="0"/><stop offset="1" stop-color="#2A0056"/></linearGradient></defs></svg>