<!-- by TradingView --><svg width="18" height="18" viewBox="0 0 18 18" xmlns="http://www.w3.org/2000/svg"><path fill="url(#a)" d="M0 0h18v18H0z"/><path d="M7.61 3.51c-.03.02-.06.06-.06.16 0 .17.1.33.27.5.08.09.16.17.25.24l.02.02.21.19.06.06V7.5l-.03.05a135.9 135.9 0 0 0-2.62 5.32c-.4.87-.33 1.28-.22 1.46.12.19.38.25.62.22H11.8c.34 0 .53-.08.64-.18.1-.08.15-.2.15-.36.01-.17-.03-.37-.1-.57-.07-.2-.16-.4-.26-.55l-2.66-5.4V4.68l.08-.07a3.73 3.73 0 0 0 .67-.75.43.43 0 0 0 .06-.18c0-.06-.03-.11-.11-.16a.68.68 0 0 0-.3-.07H7.97c-.2 0-.3.04-.35.07Zm-.22-.37c.15-.1.35-.14.57-.14h2.02c.12 0 .3.03.46.11a.6.6 0 0 1 .35.56c0 .14-.06.28-.12.4s-.15.24-.24.35c-.15.18-.32.35-.45.47v2.5l2.6 5.27c.1.17.21.4.3.62.07.24.13.5.12.75a.95.95 0 0 1-.31.7c-.21.17-.5.26-.9.26H6.16c-.3.04-.74-.02-.99-.4-.25-.4-.22-1.02.19-1.92.8-1.75 2.05-4.22 2.6-5.29v-2.5l-.12-.11v-.01a3.99 3.99 0 0 1-.3-.26c-.18-.2-.38-.47-.38-.83 0-.22.07-.41.24-.53Z" fill="#EDE5D9"/><path d="M6.6 14c-.78 0-.71-.44-.58-.67L7.57 10h2.73c.39.89.97 2 1.55 3.33.26.58-.13.67-.38.67H6.6Z" fill="#EDE5D9"/><defs><linearGradient id="a" x1="3.35" y1="3.12" x2="21.9" y2="24.43" gradientUnits="userSpaceOnUse"><stop stop-color="#1A1E21"/><stop offset="1" stop-color="#06060A"/></linearGradient></defs></svg>