<!-- by TradingView --><svg width="18" height="18" viewBox="0 0 18 18" xmlns="http://www.w3.org/2000/svg"><path fill="#F0F3FA" d="M0 0h18v18H0z"/><path d="M4.5 9.57 9 4.27l4.5 5.3c.16.2.42.38.5.6v.68c0 1.1-.65 2.15-1.73 2.15H5.73C4.65 13 3.95 11.93 4 10.85c.02-.26 0-.79 0-.79.08-.17.37-.34.5-.5Z" fill="url(#aswenqzik)"/><path d="M4.5 8.85 9 4l4.5 4.85c1.08 1.17.3 3.15-1.23 3.15H5.73c-1.53 0-2.3-1.98-1.23-3.15Z" fill="url(#bswenqzik)"/><path d="M9 5.2 5.51 9.06s2.08-.38 3.42-.39c1.37 0 3.49.4 3.49.4L9 5.2Z" fill="#A9E3EF"/><path d="M8.93 9.37c1.37 0 3.49.4 3.49.4v-.7L9 5.56l-3.49 3.5v.7s2.08-.4 3.42-.4Z" fill="url(#cswenqzik)"/><path d="M6 10.5c0-.28.22-.5.5-.5h5a.5.5 0 0 1 0 1h-5a.5.5 0 0 1-.5-.5Z" fill="#A8E2EE"/><defs><linearGradient id="aswenqzik" x1="9" y1="4.26" x2="9" y2="13" gradientUnits="userSpaceOnUse"><stop stop-color="#222629"/><stop offset="1" stop-color="#171B1F"/></linearGradient><linearGradient id="bswenqzik" x1="13.75" y1="9.54" x2="4.27" y2="10.65" gradientUnits="userSpaceOnUse"><stop stop-color="#222629"/><stop offset="1" stop-color="#4C5257"/></linearGradient><linearGradient id="cswenqzik" x1="8.96" y1="7.2" x2="8.96" y2="9.76" gradientUnits="userSpaceOnUse"><stop stop-color="#A9E3EF"/><stop offset="1" stop-color="#A9E3EF" stop-opacity=".15"/></linearGradient></defs></svg>