<!-- by TradingView --><svg width="18" height="18" viewBox="0 0 18 18" xmlns="http://www.w3.org/2000/svg"><path fill="#181B1E" d="M0 0h18v18H0z"/><path d="M10.75 4.32 9.12 4.3l-.54-.02-.54.01c-.25.02-.5.03-.76.03a4.89 4.89 0 0 1 3.47 0Z" fill="#63574D"/><path d="M9.12 4.3c-.38.12-.75.27-1.14.34-.67.11-1.33.23-1.99.37.4-.3.83-.53 1.29-.7.25.01.5 0 .76-.02a5.2 5.2 0 0 1 1.08.01Z" fill="#9E918C"/><path d="m10.75 4.32.75.35c-.27-.04-.66-.16-.91-.1-.34.1-.58.18-.87.21-.56.06-.93.07-1.48.16l-.7.14c-.7.17-1.43.33-2.15.47l.6-.54c.66-.14 1.32-.26 1.99-.37.4-.07.76-.22 1.14-.34l1.63.02Z" fill="#C0ABA1"/><path d="m11.5 4.67.51.34c-.6-.01-1.18-.07-1.77-.18a.6.6 0 0 0-.27.02c-.34.1-.67.22-.99.37l-.4.17c-1.26.1-2.5.28-3.68.77l.49-.6a77.3 77.3 0 0 0 2.85-.62c.55-.1.92-.1 1.48-.16.29-.03.53-.11.87-.2.25-.07.64.05.9.1Z" fill="#D5C2BF"/><path d="M12.01 5.01c.3.22.56.47.8.74l-3.83-.53c.32-.15.65-.28.99-.37a.6.6 0 0 1 .27-.02c.59.11 1.18.17 1.77.18Z" fill="#DCCAC7"/><path d="M12.8 5.75c.55.64.9 1.36 1.09 2.17l-1.23.02c-.55 0-1 .03-1.53.08-.4.03-.8 0-1.21-.1v-.05l-.02-.12a1.2 1.2 0 0 0-.44-.72c.1-.13.18-.28.23-.44a.08.08 0 0 0-.05-.1H9.6c-.02-.02-.05 0-.06.02l-.2.41c-.1-.02-.15-.08-.17-.19l-.06-.16c0-.04 0-.07-.02-.1a.07.07 0 0 0-.06-.02.4.4 0 0 1-.17-.03c-.12-.05-.25-.02-.36.03a.48.48 0 0 1-.23-.06c-.1-.06-.11-.04-.05.05.02.04.03.11.02.21 0 .02-.02.04-.04.06-.42-.06-.7-.08-.84-.06-.14.02-.27.13-.38.34a.01.01 0 0 0 .02.02.57.57 0 0 1 .27.04.02.02 0 0 0 .01-.01c.1-.32.51-.25.78-.23v.03c-.25.1-.36.26-.53.5-.07.08-.18.13-.34.15-.02 0-.03 0-.03.03v.02l.02.02.02.01a.5.5 0 0 0 .5-.14l.44-.46c.06.11.09.22.07.31-.04.2-.05.37-.04.5a1.8 1.8 0 0 1-1.3.82.69.69 0 0 1-.45-.06c-.53-.3-1.05-.5-1.56-.6-.18-.04-.4-.12-.69-.27l.17-.5c.32-.03.61-.18.91-.3l.62-.28.73-.3c.48-.19 1.13-.49 1.97-.9l.4-.17 3.82.53Z" fill="#E4D6D2"/><path d="M8.58 5.39a27.17 27.17 0 0 1-2.7 1.2l-.62.27c-.3.13-.59.28-.91.32.14-.37.32-.7.55-1.02 1.18-.5 2.42-.67 3.68-.77Z" fill="#E4CFC2"/><path d="m8.5 6.45-.08.02c-.02 0-.03.02-.02.04l.02.1a.32.32 0 0 0-.17.04c.01-.1 0-.17-.02-.21-.06-.1-.04-.11.05-.05.06.03.13.05.23.06Z" fill="#B8A178"/><path d="m9.12 6.57-.26.06-.44-.03-.02-.1c0-.01 0-.03.02-.03l.09-.02c.11-.05.24-.08.36-.03a.4.4 0 0 0 .17.03l.06.03c.02.02.03.05.02.1Z" fill="#63574D"/><path d="M9.46 7.03a.16.16 0 0 1-.06.03.07.07 0 0 1-.09-.08l.03-.06.21-.41c.01-.03.04-.04.06-.02h.03a.08.08 0 0 1 .05.1c-.05.16-.13.3-.23.44ZM9.12 6.57l.06.16a.4.4 0 0 1-.4.08c.03-.03.03-.07 0-.12-.01-.02 0-.04.02-.04l.06-.02.26-.06Z"/><path d="m8.42 6.6.44.03a.15.15 0 0 1-.06.02c-.02 0-.03.02-.02.04H8.5c-.07 0-.11.03-.13.08v.04c-.01.02-.02.03-.05.03-.07.01-.12.05-.16.13l-.44.46a.5.5 0 0 1-.5.14H7.2l-.01-.03v-.02c0-.02 0-.03.02-.03.16-.02.27-.07.34-.15.17-.24.28-.4.53-.5l.04-.02c.06-.02.1-.05.1-.1l.04-.07a.32.32 0 0 1 .17-.05Z" fill="#24231C"/><path d="M8.2 6.71c0 .06-.03.1-.09.1a.04.04 0 0 0-.04 0c-.27-.02-.69-.09-.77.22a.02.02 0 0 1-.02.02.02.02 0 0 1-.01 0A.57.57 0 0 0 7 7a.01.01 0 0 1 0-.02c.1-.2.23-.32.37-.34.14-.02.42 0 .84.06Z"/><path d="M8.78 6.7c.03.04.03.08 0 .11a.3.3 0 0 1-.15.03c-.02 0-.03-.01-.03-.03.01-.05-.01-.07-.06-.07-.06 0-.11.02-.14.08-.01.03-.02.02-.03 0l-.01-.05c.02-.05.06-.08.13-.08h.3Z" fill="#D5C2BF"/><path d="m9.34 6.92-.03.06a.07.07 0 0 0 .1.08l.05-.03c.24.2.39.44.44.72-.04 0-.06.06-.07.17a.47.47 0 0 0-.12-.4c-.03-.04-.05-.04-.06.01 0 .04-.02.08-.05.13l-.13-.21a.09.09 0 0 1 0-.06v-.03c0-.02-.01-.03-.03-.02l-.1.02.1-.08a.04.04 0 0 0 0-.04v-.01l-.11-.11H9.3a.26.26 0 0 0-.08.1c-.02-.18-.1-.25-.26-.22-.02 0-.04.02-.04.04v.05c.07.06.05.08-.03.06l-.25-.08c-.02 0-.04 0-.05.02a.39.39 0 0 1-.09.09l-.02.03v.01c0 .02.01.02.03.02l.24-.02c.02 0 .03 0 .05.02l.13.1c.06.07.05.1-.04.08l-.28-.05c-.02 0-.04 0-.05.02a.12.12 0 0 1-.1.05c-.02 0-.04.01-.04.04a.78.78 0 0 1-.12.36c-.02.01-.02.03 0 .05l.2.24c.04.06.03.08-.05.07h-.09a.07.07 0 0 0-.07.05l-.04.2c0 .07.01.14.05.2a5.49 5.49 0 0 0 .28.44c.01-.01.02-.02.01-.03a.75.75 0 0 1-.02-.37l.03.02c.05.02.1.05.14.09l.02.05c-.05.26-.01.46.1.6-.03.01-.07.02-.14.01 0-.05-.01-.09-.05-.1a.7.7 0 0 1-.37-.3c-.12-.21-.16-.44-.13-.7l.08-.24a.28.28 0 0 0 .01-.18.67.67 0 0 0-.08-.17c-.01-.12 0-.28.04-.49.02-.1 0-.2-.07-.31.04-.08.09-.12.16-.13.03 0 .04 0 .04-.03v-.04l.02.05c0 .02.02.03.03 0a.14.14 0 0 1 .14-.08c.05 0 .07.02.07.07 0 .02 0 .03.02.03.06 0 .1 0 .15-.03a.4.4 0 0 0 .4-.08c.02.1.07.17.16.2Z" fill="#796858"/><path d="M9.22 7.22c-.12.2-.32.26-.39.55 0 .05.01.09.06.1l.05.02c.05.02.08 0 .1-.05a.95.95 0 0 1 .3-.48l.1-.02c.02 0 .03 0 .02.02v.03l.01.06.13.21a.48.48 0 0 1-.1.15.4.4 0 0 0-.08.14c-.04.14 0 .25.09.34a.08.08 0 0 0 .1.02l.02-.02c.1-.12.17-.24.2-.37.01-.11.03-.17.07-.17l.01.12-.22.5a.05.05 0 0 0 0 .04c.1.15.17.3.19.47-.04.13-.08.2-.1.2-.22.03-.41.1-.6.22a.09.09 0 0 1-.05.02c-.06 0-.08.02-.08.06 0 .03 0 .04-.03.05l-.16.01c-.11-.13-.15-.33-.1-.6 0-.01 0-.03-.02-.04a.38.38 0 0 0-.14-.1h.48c.02 0 .03 0 .03.03-.02.11-.03.22-.02.31.01.07.03.07.06 0 .12-.27.25-.5.2-.78a.06.06 0 0 0-.06-.05c-.05.01-.12 0-.23-.05a.06.06 0 0 0-.06 0L9 8.2l-.01.03a.04.04 0 0 0 0 .03.04.04 0 0 0 .02.02l.15.06c.02 0 .04.03.03.06 0 .01-.01.03-.03.03-.03 0-.04.02-.04.05l.01.09c0 .02 0 .03-.02.02-.15 0-.5-.05-.53.11a.75.75 0 0 0 .02.37l-.01.03h-.02l-.01-.01c-.04-.05-.13-.2-.25-.43a.32.32 0 0 1-.05-.2l.04-.2a.07.07 0 0 1 .07-.06l.1.01c.07.01.08-.01.03-.07l-.2-.24v-.05c.07-.1.11-.21.13-.36 0-.03.02-.04.04-.04.04 0 .07-.01.1-.05a.06.06 0 0 1 .05-.02l.28.05c.09.01.1-.01.04-.07a1.86 1.86 0 0 0-.13-.11.07.07 0 0 0-.05-.02l-.24.02c-.02 0-.03 0-.03-.02v-.01c0-.02.01-.03.02-.03a.39.39 0 0 0 .1-.1c0-.01.02-.02.04-.01l.25.08c.08.02.1 0 .04-.06v-.05c0-.02 0-.04.03-.04.15-.03.24.04.26.22Z" fill="#63574D"/><path d="M9.34 7.36a.95.95 0 0 0-.3.48c-.02.06-.05.07-.1.05l-.05-.01c-.05-.02-.07-.06-.06-.11.07-.3.27-.35.4-.55a.26.26 0 0 1 .07-.1h.03l.1.11a.04.04 0 0 1 0 .05l-.1.08ZM9.83 7.92a.86.86 0 0 1-.2.37.08.08 0 0 1-.1.02.08.08 0 0 1-.02-.02c-.1-.09-.13-.2-.1-.34a.4.4 0 0 1 .1-.14c.04-.04.07-.1.09-.15.03-.05.05-.1.05-.13.01-.05.03-.05.06-.02.11.13.15.27.12.41Z" fill="#9E918C"/><path d="M8.18 7.77c.04.06.06.11.08.17.02.05.02.11 0 .18l-.09.23c-.04.26-.05.54-.03.82 0 .09-.01.17-.04.23a.15.15 0 0 1-.17.09 1.5 1.5 0 0 0-.41-.03 9.4 9.4 0 0 0-1.08.14c-.11.03-.2.08-.16.21.1.34.36.4.67.5a.1.1 0 0 1 .04.16c-.38.42-.65.37-1.16.27-.22-.05-.47-.04-.77-.04-.21 0-.5-.05-.78 0-.34-1-.37-2.01-.1-3.03.29.15.51.23.69.27.5.1 1.03.3 1.56.6.11.07.26.09.44.06a1.8 1.8 0 0 0 1.3-.83Z" fill="#DCCAC7"/><path d="M9.92 7.92c.02.33.1.63-.04.96a1.11 1.11 0 0 0-.18-.47.05.05 0 0 1 0-.05l.21-.5v.06Z" fill="#6E6E6E"/><path d="m13.89 7.92.05.3a2.5 2.5 0 0 0-.68 0h-.02a15.01 15.01 0 0 0-1-.05c-.08 0-.14.02-.17.06a.07.07 0 0 1-.05.03c-.25.06-.51.5-.66.67-.6.35-.99 1.05-1.34 1.4l-.1.1a.22.22 0 0 0-.14.17c-.09.04-.14.18-.2.24-.04 0-.06-.01-.07-.03l-.08-.72a.24.24 0 0 1 0-.15c0-.03.01-.03.04-.03.04 0 .09 0 .13-.03a.06.06 0 0 0 .03-.04 1 1 0 0 0-.07-.43.04.04 0 0 1 .02-.05.48.48 0 0 0 .2-.27c.02-.02.06-.08.1-.2.15-.34.06-.64.04-.97.41.1.82.13 1.21.1.54-.05.98-.09 1.53-.08.4 0 .82 0 1.23-.02Z" fill="#DCCAC7"/><path d="M8.6 8.7h-.03c.03-.17.38-.13.53-.12.02 0 .02 0 .02-.02v-.1c0-.02 0-.03.03-.04.02 0 .03-.02.03-.03 0-.03 0-.05-.03-.06L9 8.27a.04.04 0 0 1-.02-.02.04.04 0 0 1 0-.03l.01-.03a.05.05 0 0 1 .05-.04h.02c.1.06.18.07.23.06a.06.06 0 0 1 .07.05c.04.29-.09.5-.21.79-.03.06-.05.06-.06-.01 0-.1 0-.2.02-.31 0-.02 0-.03-.03-.03H8.6Z" fill="#2D3439"/><path d="M8.17 8.35c-.03.27.01.5.13.7.08.14.2.24.37.3.04.02.05.06.05.11a.11.11 0 0 0-.03.03c-.02 0-.02 0-.03.02v.02c.06.12.06.26.07.35l.24 1.5c-.31.12-.61.26-.89.44-.15.1-.3.14-.46.16-.14.03-.14.08-.02.15l.13.13a.12.12 0 0 1 .02.12l-.12.31c-.03.08-.02.1.05.04l.22-.13-.37.39a3.6 3.6 0 0 0-.6.6 5.02 5.02 0 0 1-2.65-2.9c.28-.04.57 0 .78 0 .3.01.55 0 .77.05.51.1.78.15 1.16-.27a.1.1 0 0 0-.04-.16c-.3-.1-.58-.16-.67-.5-.04-.13.05-.18.16-.2.25-.06.6-.1 1.08-.15.13 0 .27 0 .41.03a.15.15 0 0 0 .17-.09.49.49 0 0 0 .04-.23c-.02-.28-.01-.56.03-.82Z" fill="#D5C2BF"/><path d="M9.77 9.09a.48.48 0 0 1-.2.27.04.04 0 0 0-.01.05 1 1 0 0 1 .07.43c0 .02-.01.03-.03.04a.19.19 0 0 1-.14.03c-.02 0-.03 0-.04.03a.24.24 0 0 0 0 .15c0 .02-.03.02-.05 0l-.15.1a.18.18 0 0 1-.02-.16c.06-.02.08-.05.06-.11-.01-.06-.06-.07-.13-.04-.17-.1-.32-.24-.44-.4l.03-.02c.07.01.11 0 .14-.02l.16-.01c.02 0 .04-.02.03-.05 0-.04.02-.06.08-.06.02 0 .04 0 .06-.02.18-.12.37-.19.58-.21Z" fill="#24231C"/><path d="m8.97 11.38.02.14c-.17.1-.3.2-.4.34l-.7.74-.2.13c-.08.06-.1.04-.06-.04l.12-.31a.12.12 0 0 0-.02-.12.67.67 0 0 0-.13-.13c-.12-.07-.12-.12.02-.15.15-.02.31-.07.46-.16.28-.18.58-.32.89-.44Z" fill="#DCCAC7"/><path d="m8.73 8.23-.02.03h-.04l-.12-.22c-.01-.02 0-.04.02-.05.02 0 .06 0 .1.04.03.02.04.01.06 0v-.04c0-.03.02-.04.04-.03l.1.04c.02 0 .03 0 .03-.02l.01-.01a.03.03 0 0 1 .03-.01.02.02 0 0 1 .02.02l-.04.34c-.01.1-.04.11-.1.01l-.05-.1c-.01-.02-.03-.02-.04 0Z" fill="#85888A"/><path d="M13.94 8.14c.17 1.12 0 2.18-.5 3.17-.07.15-.16.29-.27.4a.71.71 0 0 1-.33-.12c-.04-.03-.07-.03-.1 0l-.06.06c-.04.04-.08.04-.11 0l-.25-.24c-.04-.05-.06-.04-.04.02.05.24.22.33.5.27.05-.01.16.03.31.12a3.84 3.84 0 0 1-1.37 1.36c-.04-.01-.01-.1.1-.24.03-.04.02-.07-.02-.08-.04-.02-.08-.02-.1.02l-.23.25c-.03.03-.06.03-.1 0-.15-.12-.31-.11-.48.02h-.03l-.02-.02a.05.05 0 0 1-.01-.06l.01-.01.44-.38c.01.07.05.1.1.08.03 0 .05-.02.05-.04.01-.02 0-.04-.03-.05.05-.02.06 0 .06.05 0 .04-.03.06-.07.06-.07 0-.11.02-.12.03-.04.04-.03.07.01.09.06.02.1.02.13 0 .05-.02.14-.1.27-.25.03 0 .04-.02.04-.03 0-.03 0-.06-.03-.09-.04-.08-.11-.13-.22-.13-1-.02-.99.22-1.2-.47-.03.02-.07.02-.1-.01a1.22 1.22 0 0 0-.52-.26.94.94 0 0 1-.1-.37c.15.04.28.05.4.04-.03.09.05.13.22.13.13 0 .15-.03.04-.1-.05-.04-.12-.05-.22-.03.11-.08.08-.13-.09-.16a.95.95 0 0 1 .4.03c.05 0 .09 0 .12-.02.1-.07.1-.2.2-.26.1-.07.2-.1.3-.1l.03-.01a.07.07 0 0 0-.01-.08.06.06 0 0 0-.04-.02.87.87 0 0 1-.42-.11.1.1 0 0 0-.11 0c-.07.05-.15.04-.24-.03a.1.1 0 0 0-.1-.01.24.24 0 0 1-.23-.01 12.88 12.88 0 0 1 1.37-1.5c.03 0 .06-.02.08-.05l.3-.34.2-.3c.2-.31.65-.26 1.02-.19.28.06.67.05 1.17-.03Z" fill="#898B8C"/><path d="M9.9 11.17a.92.92 0 0 0-.32.01c0-.09-.03-.13-.1-.13.03-.14.08-.26.15-.36a.38.38 0 0 1 .17-.14c.08.04.15.04.23 0a.1.1 0 0 1 .1.02c.09.07.17.08.24.03a.1.1 0 0 1 .11 0c.1.06.24.1.42.11a.06.06 0 0 1 .05.06v.04l-.03.01c-.1 0-.2.03-.3.1-.1.06-.1.2-.2.26a.13.13 0 0 1-.11.02.95.95 0 0 0-.4-.03ZM9.99 11.33c.1-.02.17 0 .22.02.1.08.1.11-.04.11-.17 0-.25-.04-.22-.13h.04Z" fill="#6D6D6C"/><path d="M13.17 11.72a.29.29 0 0 1-.08.1c-.15-.1-.26-.13-.32-.12-.27.06-.44-.03-.5-.27 0-.06 0-.07.05-.02l.25.24c.03.04.07.04.1 0l.06-.06c.04-.03.07-.03.1 0 .1.07.22.11.34.13Z" fill="#9E9E9E"/><path d="M9.74 12.47a4.97 4.97 0 0 1-.09-.8c.2.03.37.12.52.25.03.03.07.03.1 0 .08-.04.12-.1.12-.2 0-.04.02-.07.06-.07a.1.1 0 0 1 .05 0l.15.1v.1a.67.67 0 0 1-.24.1c-.02 0-.03.01-.03.03v.06a.8.8 0 0 1 .4.04c0 .04-.02.06-.04.07-.17.06-.32.04-.44-.05a.1.1 0 0 0-.1-.02.51.51 0 0 0-.18.12c-.03.03-.02.05.01.07l.05.02c.04 0 .05-.02.05-.05v-.05a.06.06 0 0 1 .05-.03.06.06 0 0 1 .06.02c.1.17.23.24.38.23.29-.01.57-.02.85-.01.1 0 .18.05.22.13-.06 0-.1.02-.1.04-.03.02-.02.04 0 .05.03.02.06.03.1.03-.14.14-.23.23-.28.26-.03.01-.07.01-.13-.01-.04-.02-.05-.05-.01-.09l.12-.03c.04 0 .06-.02.07-.06 0-.05-.01-.07-.06-.05l-.12.01-.44.38a.05.05 0 0 0-.01.03v.04l.03.02h.03c.17-.13.33-.14.49-.02.03.03.06.03.1 0l.21-.25c.03-.04.07-.04.11-.02.04.01.05.04.02.08-.11.14-.14.23-.1.24-.71.5-1.47.75-2.27.78-.2-.1-.46-.15-.77-.17-.04 0-.07.02-.07.07 0 .04 0 .06-.04.05a.12.12 0 0 1-.06-.02.11.11 0 0 1-.03-.05.1.1 0 0 1 0-.06.1.1 0 0 1 .02-.04c.04-.04.02-.14-.07-.32a.03.03 0 0 1 0-.03.03.03 0 0 1 .03 0l.14.02c.05 0 .06 0 .03-.05a.25.25 0 0 1 .15-.4c.03 0 .03-.02.01-.03l-.12-.13c-.04-.04-.08-.04-.1.03a1.06 1.06 0 0 1-.18.33H8.3c-.06-.02-.07-.04-.02-.08a.75.75 0 0 0 .22-.32.07.07 0 0 0-.02-.08l-.33-.4.8-.78c.74 1.33.8 1.01.79.97Z" fill="#6D6D6C"/><path d="m10.65 11.75-.15-.1c0-.1.06-.13.19-.06.04.02.05.05.04.1 0 .03-.03.05-.08.06Z" fill="#D5C3C0"/><path d="M10.65 11.84a.32.32 0 0 1 .18 0 .13.13 0 0 1 .04.23c-.01.01-.05.02-.1.01a.8.8 0 0 0-.38-.04c-.01 0-.02 0-.02-.02v-.04c.01-.02.02-.03.04-.03.1-.02.17-.06.24-.1Z" fill="#E6D9D5"/><path d="M10.74 12.15c.05 0 .09 0 .11.03a.07.07 0 0 1-.03.12.37.37 0 0 0-.2.11c-.15.01-.28-.06-.38-.23a.06.06 0 0 0-.06-.02.06.06 0 0 0-.05.03v.05c0 .03-.01.05-.05.05a.1.1 0 0 1-.05-.02c-.03-.02-.04-.04 0-.07a.5.5 0 0 1 .17-.12.1.1 0 0 1 .1.02c.12.1.27.11.44.05Z" fill="#9E9E9E"/><path d="m8.18 12.28.3.4c.02.03.03.05.02.08a.76.76 0 0 1-.22.32c-.05.04-.04.06.02.07l.07.01h.02l.02-.01c.07-.1.13-.2.16-.32.02-.07.06-.07.1-.03l.12.13c.02.01.02.02 0 .03a.25.25 0 0 0-.16.4c.03.04.02.06-.03.05l-.14-.03h-.01l-.02.01a.03.03 0 0 0 0 .03c.09.18.11.28.07.32a.1.1 0 0 0-.03.04.1.1 0 0 0 0 .06l.04.05.06.02c.03 0 .05 0 .04-.05 0-.05.03-.07.07-.07.3.02.56.07.77.17a4.7 4.7 0 0 1-2.51-.38 7.3 7.3 0 0 1 1.24-1.3Z" fill="#898B8C"/><path d="M11.4 12.67c.03.01.04.03.03.05a.07.07 0 0 1-.04.04c-.06.01-.1-.01-.1-.08a.33.33 0 0 1 .11-.01Z" fill="#9E9E9E"/><path d="M8.69 9.49c.12.15.27.28.44.39-.05.07-.03.17.07.15-.02.06-.01.1.02.16-.06.04-.07.1-.05.18a.07.07 0 0 0 .04.05.07.07 0 0 0 .06 0l.11-.07a.06.06 0 0 0 .03-.04c0-.07 0-.14-.04-.21h.06l.08.7c-.13.1-.25.13-.23.32a.05.05 0 0 0 .02.04.05.05 0 0 0 .05 0 .45.45 0 0 0 .18-.11c.06.01.07.1.05.25v.07c.01.03.04.04.07.03a.3.3 0 0 0 .17.01c.02.06-.02.09-.14.08-.02 0-.03.01-.03.03v.3c.01.09.06.15.1.2 0 .02.02.03.04.04.04 0 .08 0 .11-.02.1 0-.02.11-.02.12-.08-.01-.12 0-.12.01 0 .13.01.24.05.36-.2.8.91.65-.47.5a.22.22 0 0 0-.13.05c-.02.02-.04.02-.05 0l-.05-.04c.09-.76-.04-.93-.12-1.52l-.02-.14-.24-1.5c-.01-.09-.01-.23-.06-.35v-.02c0-.01 0-.02.02-.02Z" fill="#2D3439"/></svg>