<!-- by TradingView --><svg width="18" height="18" viewBox="0 0 18 18" xmlns="http://www.w3.org/2000/svg"><path fill="#52072E" d="M0 0h18v18H0z"/><path d="M13.55 6.92c-.13.3-.3.58-.5.83 0 .02-.02.02-.03.01a.56.56 0 0 0-.45-.01.33.33 0 0 1-.13 0c-.02 0-.03 0-.05-.02l-.24-.2c.05-.27.08-.52.08-.75 0-1.21-1.03-2.11-2.16-2.36a3.7 3.7 0 0 0-3.44.92c-.5.43-.85.82-1.18 1.4a4.01 4.01 0 0 0-.55-.6 5 5 0 0 1 8.65.78Z" fill="#8B0D3F"/><path d="m12.15 7.54-.48-.44a2.73 2.73 0 0 0-.15-.64c-.17-.44-.55-.71-.96-.93a.8.8 0 0 0-.2-.3 4 4 0 0 1-.2-.16c-.18-.17-.37-.24-.62-.33a1.1 1.1 0 0 0-.38-.07h-.4a1.8 1.8 0 0 0-1.1.46l-.3.36c-.22.14-.4.28-.56.42-.44.39-.72.89-.96 1.43l-.4-.6a6.36 6.36 0 0 1 1.94-1.96 3.7 3.7 0 0 1 2.69-.36c1.13.25 2.16 1.15 2.16 2.36 0 .23-.03.48-.08.76Z" fill="#AB104B"/><path d="M10.56 5.53c.08.14.11.25.11.33 0 .14 0 .28.02.41-.08.14-.13.3-.15.46 0 .01-.01.02-.03.02h-.01l-.02-.04a1.43 1.43 0 0 0-.05-.18c-.02-.25-.01-.5.03-.76 0-.02 0-.04-.02-.05a.6.6 0 0 0-.17-.15.07.07 0 0 0-.06 0l-.23.06a.04.04 0 0 1-.03 0 .04.04 0 0 1-.02-.04l-.01-.15c-.01-.07-.04-.09-.1-.06-.3.12-.57.2-.8.26a.1.1 0 0 0-.06.03l-.18.25a.08.08 0 0 1-.1.02.08.08 0 0 1-.03-.02l-.4-.41a.83.83 0 0 0-.37.1c-.03 0-.04 0-.05-.02l-.04-.14c0-.02-.02-.03-.03-.02-.02.01-.03.03-.02.04-.04-.01-.07-.01-.1.02l-.02.08c0 .1 0 .21-.02.32 0 .02 0 .03.03.03h.03l-.1.15a.1.1 0 0 1-.18 0l-.14-.22.11-.36.32-.37a1.8 1.8 0 0 1 1.1-.45h.4c.14 0 .27.02.38.07.24.1.43.16.61.33l.2.17c.09.07.15.18.2.3Z" fill="#3F2253"/><path d="M10.43 6.53c.03.3-.01.58-.14.84l-.03.03c-.54.32-1.29.56-1.9.35a.98.98 0 0 1-.51-.5.3.3 0 0 1-.04-.2l.16-.78c.02-.1.07-.2.16-.3a.07.07 0 0 0 0-.1c-.1-.13.02-.27.13-.36l.4.41a.08.08 0 0 0 .1.02l.02-.02.18-.25a.1.1 0 0 1 .06-.03c.23-.05.5-.14.8-.26.06-.03.09 0 .1.06v.15a.04.04 0 0 0 .04.04h.02l.23-.07.06.01c.08.05.14.1.17.15l.02.05c-.04.25-.05.5-.03.76Z" fill="#1A121A"/><path d="m7.35 5.49-.11.36-.07.6c-.02.2.03.37.01.57 0 .01 0 .03-.02.04l-.06.06a.08.08 0 0 0-.02.05c-.01.16-.03.25 0 .37.04.14.03.25.11.39.07.1.08.19.16.29.03.04.04.08.05.13v.04l.04.03c.07-.02.07-.04 0-.06l-.03-.06c-.01-.03 0-.04.02-.04h.05l.04.05a.4.4 0 0 0 .07.12l.01.02v.02l-.02.02c-.01.01-.02.03-.01.04l.14.32.06.5-.04.12c0 .02-.01.03-.03.02h-.02a.07.07 0 0 1-.04-.05 1.26 1.26 0 0 0-.24-.4.49.49 0 0 1-.1-.17c-.07-.22-.16-.41-.37-.52-.24-.13-.47-.2-.7-.2 0 0-.02 0-.03-.02-.08-.18-.12-.42-.23-.6a2.78 2.78 0 0 0-.13-.2A4.04 4.04 0 0 1 7.35 5.5Z" fill="#C51863"/><path d="M8.26 5.5c-.11.1-.23.24-.12.38a.07.07 0 0 1 0 .09c-.1.1-.15.2-.17.3l-.16.78a.3.3 0 0 0 .04.2c.14.26.3.43.51.5.61.21 1.36-.03 1.9-.35.02 0 .03-.02.03-.03.13-.26.17-.54.14-.84l.05.18c0 .02 0 .03.02.03l.01.01c.02 0 .03 0 .03-.02.02-.16.07-.32.15-.46.04.14.05.27.03.4a.06.06 0 0 0 .05.07c.35.04.64.1.9.36l.48.44.24.2.05.01h.13c.15-.06.3-.06.45.01h.04c.2-.26.36-.54.49-.84a5 5 0 0 1-.07 4.3c-.02-.02-.03-.02-.05-.02l-.19-.15a.1.1 0 0 0-.06-.03l-.07.02c-.04.03-.06.03-.1.01-.15-.06-.3-.1-.47-.1-.16 0-.28.01-.4.1-.15.09-.3.21-.44.2a2.5 2.5 0 0 1-.22-.03c-.08-.02-.2-.13-.26-.17a.1.1 0 0 0-.05-.02c-.17-.02-.32-.11-.35-.28a2.87 2.87 0 0 0-.13-.47.03.03 0 0 1 .03-.01c.07 0 .13.03.2.06h.05l.21-.1.94-.27.7-.05c.07 0 .14-.03.19-.06.16-.1.26-.32.37-.55.08-.19-.05-.3-.02-.44l.08-.32c.01-.04 0-.06-.03-.06l-.43-.1-.47-.32-.24-.25-.45-.43c-.23-.23-.6-.51-.94-.5a.06.06 0 0 0-.05.05v.03c.08.29.07.57-.05.84-.01.04-.01.1.01.17.04.12-.04.27-.11.38a.36.36 0 0 0-.04.16c0 .06-.01.12-.03.17-.04.02-.07.01-.06-.01 0-.1 0-.13-.02-.13l-.03.05-.02.01-.02.01c-.06 0-.09.04-.1.11l-.06.7-.05.27c-.04.16-.02.3.02.47a.7.7 0 0 1 0 .2c-.03.23-.02.49-.1.7a3.21 3.21 0 0 0-.08.27h-.04a.1.1 0 0 1-.04-.07l-.01-.63c0-.19.04-.34.03-.5 0-.1 0-.23.04-.36.05-.2.1-.42.18-.63.01-.05 0-.06-.04-.03a.22.22 0 0 0-.08.12 7.36 7.36 0 0 1-.38.93.1.1 0 0 1-.06 0l-.1.01c-.03.03-.03.03 0 .02h.04c.02-.01.03 0 .03.02v.11c-.01.05-.03.06-.05.01a.56.56 0 0 0-.19-.17h-.01v.02c.08.09.12.18.12.29 0 .11-.03.27-.08.48a.29.29 0 0 1-.1.14c-.06.04-.09.03-.08-.04l.04-.43a.07.07 0 0 0-.1-.07.98.98 0 0 1-.36.06c-.03 0-.05-.02-.07-.03-.01 0-.02 0-.02.02v.01l.01.02c.1.05.21.07.32.08.12 0 .15.06.12.17l-.04.03h-.1c-.02-.01-.02-.02-.02-.03v-.07c-.04-.03-.1-.04-.17-.02-.04.01-.05.03-.04.07.03.08.07.13.13.14h.05a.52.52 0 0 1 .16-.02h.03l.01.03c0 .05.02.1.05.14v.04l-.08.45a.04.04 0 0 1-.03.04l-.14-.01-.03.01c-.01.02 0 .04.01.05.03.02.08.02.14.02a.06.06 0 0 1 .04 0 .06.06 0 0 1 .03.05l.03.37v.04c.03.03.04.06.05.1l-.01.04c-.1.17-.12.36-.2.55-.01.04-.03.04-.04 0l-.1-.36v-.04l.03-.02.18-.06h.02v-.02l.02-.05v-.01h-.01l-.24.07c-.02 0-.03 0-.03-.02a2.07 2.07 0 0 1-.07-.37c-.02-.2-.07-.26-.2-.41v-.02c.1-.09.12-.19.06-.3a.1.1 0 0 1 0-.03l-.02-.36c0-.04-.02-.06-.06-.06H8.6a.04.04 0 0 0-.03.02.04.04 0 0 0-.01.04c.03.11 0 .15-.05.12a.04.04 0 0 1-.02-.05c.03-.13.04-.23.03-.32 0-.12.06-.22.04-.33a.25.25 0 0 1 .1-.26c.03-.02.02-.03 0-.03l-.1-.01a.05.05 0 0 1-.03-.03.12.12 0 0 1-.01-.07l.01-.03a.05.05 0 0 0 0-.05.32.32 0 0 1 .03-.27c0-.02 0-.03-.02-.04l-.08-.03-.02.01c-.02.13 0 .24.03.34a.16.16 0 0 0-.06.13c0 .2-.01.37-.05.48v.04l.01.01.01.04-.03.22v.02h-.01l-.07.04a.04.04 0 0 0-.01.04v.02h.03l.08.01c.02 0 .03.01.04.03 0 .06 0 .12-.02.17v.05a9.2 9.2 0 0 1 .06.28c-.01.02-.03.02-.07.01a.05.05 0 0 1-.04-.07c.02-.06 0-.1-.03-.14a.04.04 0 0 1-.02-.04L8.3 11c0-.04-.01-.06-.05-.08a.06.06 0 0 1-.03-.03.48.48 0 0 1 .02-.42v-.05a1.05 1.05 0 0 1-.06-.46c0-.05 0-.08-.03-.08a.1.1 0 0 1-.1-.1l-.05-.38a.72.72 0 0 0-.05-.19.86.86 0 0 0-.25-.36l-.14-.32.01-.04.02-.02v-.04a.4.4 0 0 1-.08-.12.09.09 0 0 0-.04-.04c-.02-.01-.04-.02-.05-.01-.02 0-.03.01-.02.04l.04.06c.06.02.06.04 0 .06-.02 0-.03 0-.04-.03a.1.1 0 0 1-.01-.04c0-.05-.02-.1-.05-.13-.08-.1-.1-.18-.16-.3-.08-.13-.07-.24-.1-.38-.04-.12-.02-.21 0-.37l.01-.05.06-.06a.06.06 0 0 0 .02-.04c.02-.2-.03-.37 0-.58l.06-.6.14.24a.1.1 0 0 0 .19 0l.1-.17.01-.23.02-.04a.6.6 0 0 0 .06-.1c.02-.02.01-.05-.02-.07 0-.01 0-.03.02-.04.01 0 .03 0 .03.02l.04.14c.01.02.02.02.05.01.12-.06.24-.1.38-.1Z" fill="#251323"/><path d="M7.74 5.47c.03.02.04.05.02.08a.6.6 0 0 1-.06.09.08.08 0 0 0-.02.04l-.02.23a.06.06 0 0 1-.03.01c-.02 0-.03-.01-.03-.03l.02-.32c0-.04.01-.07.03-.08.02-.03.05-.03.1-.02Z" fill="#AB104B"/><path d="M11.67 7.1c-.26-.26-.55-.32-.9-.36a.06.06 0 0 1-.05-.07.87.87 0 0 0-.03-.4 3.06 3.06 0 0 1-.02-.41.72.72 0 0 0-.11-.33c.41.22.8.49.96.93.07.18.12.4.15.64Z" fill="#C51863"/><path d="M4.9 6.13c.2.19.4.4.55.61l.39.6c.04.06.09.12.13.2.1.17.15.41.23.6l.04.02c.22 0 .45.06.7.19.2.11.3.3.36.52.02.05.05.1.1.16.11.13.2.26.24.4 0 .03.02.04.04.05l.02.01c.02 0 .03 0 .03-.02l.04-.11c.04.02.06.08.05.18a1.54 1.54 0 0 1 .3.85c0 .14-.08.22-.01.38.07.14.06.3 0 .45a1.1 1.1 0 0 0-.13.5c0 .1-.04.16-.09.23a.04.04 0 0 1-.04.02h-.02l-.01-.03a.63.63 0 0 1 .02-.45v-.09l.1-.19.14-.44-.02-.01h-.02a.47.47 0 0 1-.13.27 4.1 4.1 0 0 0-.16-.7.12.12 0 0 0-.06-.07h-.03l-.01.02v.01c.01.2.13.37.16.54.01.07.02.15.01.25a.1.1 0 0 1-.1.1H7.5l.02-.06c.02.02.03 0 .03-.07 0-.02-.01-.04-.03-.05l-.12-.12a.08.08 0 0 1-.02-.05l.02-.05c.05-.05.07-.1.06-.15v-.05c.06-.07.06-.2.08-.27 0-.01 0-.03.02-.04.12-.12.21-.23.27-.34a.03.03 0 0 0-.02-.04c-.02-.02-.05-.01-.1.01-.06.03-.05.14-.1.2-.06.04-.1.09-.15.15-.01.02-.02.02-.02 0l-.02-.2.07-.16c.05-.06.05-.1 0-.14a3.9 3.9 0 0 1-.67-.62 8.74 8.74 0 0 0-.56-.62c-.23-.32-.59-.13-.87 0-.13.05-.25.07-.38.1a.1.1 0 0 1-.05.01.31.31 0 0 0-.21.01L4.7 8.6l.01-.02h.13c.01 0 .02 0 .03-.02a.28.28 0 0 0 0-.22c.13 0 .25-.03.37-.07a1.61 1.61 0 0 1 .8-.08.05.05 0 0 0 .03-.04v-.02a2.48 2.48 0 0 0-.28-.67 67.22 67.22 0 0 1-.51-.78c-.11-.15-.25-.2-.34-.36a.07.07 0 0 0-.06-.03.16.16 0 0 1-.08-.03l.1-.13Z" fill="#390D35"/><path d="M4.81 6.26c.03.02.05.03.08.03l.06.03c.1.16.23.21.34.36a5.79 5.79 0 0 1 .5.78 2.48 2.48 0 0 1 .3.7.05.05 0 0 1-.04.03h-.02c-.22-.06-.55.01-.78.08-.12.04-.24.06-.37.07a.6.6 0 0 1-.28-.05c-.1-.05-.22-.1-.33-.13a.07.07 0 0 1-.04-.03l-.12-.19a5 5 0 0 1 .7-1.68Z" fill="#8B0D3F"/><path d="M12.27 7.8c-.16.13-.3.25-.4.39a.15.15 0 0 0-.04.07c0 .02 0 .03-.02.04-.3.3-.4.54-.6.98-.07.16-.33.29-.5.37-.02.01-.03 0-.03-.03l.03-.67c0-.02 0-.03-.02-.04-.1-.1-.12-.17-.08-.23.02-.05.02-.1.03-.17 0-.08.02-.13.04-.16.07-.11.15-.26.11-.38-.02-.08-.02-.13-.01-.16.12-.28.13-.56.05-.85a.06.06 0 0 1 0-.05.06.06 0 0 1 .05-.02c.34-.02.71.26.94.49l.45.43Z" fill="#C51863"/><path d="M7.36 7.23c.03.02.06.02.08 0 .02-.02.02-.05-.01-.07-.02-.03-.06-.03-.08 0-.02.01-.01.05.01.07Z" fill="#8B0D3F"/><path d="M12.51 8.06c-.3.17-.53.32-.68.46a.77.77 0 0 0-.16.35l-.1.3a.8.8 0 0 1-.38.46c-.03.02-.04.04-.04.07 0 .02.01.03.03.02a.96.96 0 0 0 .58-.35l.31-.4c.09-.1.23-.22.34-.26.22-.08.41-.19.57-.34l.43.1c.03.01.04.03.03.07l-.08.32c-.03.14.1.25.02.44-.11.23-.2.44-.37.55a.41.41 0 0 1-.2.06l-.69.05c0-.26-.03-.5-.1-.73 0-.03-.02-.03-.03 0l-.28.38a.23.23 0 0 1-.1.08l-.83.32c-.23.08-.24-.11-.32-.23v-.05l.02-.02a.08.08 0 0 0 .01-.05c0-.06 0-.12.04-.18.05-.12-.03-.23-.02-.35l.02-.59c.02 0 .03.04.02.13 0 .02.02.03.06.01-.04.06-.01.14.08.23l.02.04-.03.67c0 .03 0 .04.04.03.16-.08.42-.2.5-.37.2-.44.3-.69.59-.98a.08.08 0 0 0 .02-.04c0-.03.02-.06.03-.07.11-.14.25-.26.4-.38l.25.25Z" fill="#390D35"/><path d="M10.56 7.94c.01-.1.05-.11.11-.02.01.01.02.07.02.17s-.1.2-.16.32c-.02.03-.04.05-.07.05a.03.03 0 0 1-.03-.05c.06-.15.1-.3.13-.47Z" fill="#C51863"/><path d="M4.88 8.34c.03.08.03.15 0 .22 0 .02-.02.03-.03.02h-.13c-.01 0-.02 0 0 .02l.04.03c.16.14.31.2.45.2l.1.11c.21.07.41.17.6.28-.12.04-.24.03-.38-.04-.28-.16-.5-.25-.63-.28a.16.16 0 0 1-.08-.06.15.15 0 0 0-.05-.03 1.3 1.3 0 0 1-.25-.15c-.1-.1-.2-.1-.34-.17a.04.04 0 0 0-.03 0 .04.04 0 0 0-.02.04v.27c0 .05.05.07.06.12.07.24.18.48.3.74.08.13.2.22.29.33.09.11.2.36.29.41.11.08.22.18.32.3.05.07.14.1.22.08.18-.04.37-.04.56-.03l.28-.04a.06.06 0 0 1 .05.01c.03.03.06.05.1.06a.05.05 0 0 0 .04-.01c.1-.1.24-.15.32-.28a.09.09 0 0 1 .09-.05l.03.02c.05.03.1.05.16.06.02 0 .02.01 0 .02-.1.07-.13.15-.22.22a.07.07 0 0 1-.05.02h-.1a.02.02 0 0 0-.02 0v.02c.02.1.01.17-.03.21a14.59 14.59 0 0 0-.26.26c-.06.02-.1.04-.11.06-.13.16-.41.23-.64.3a.05.05 0 0 0-.02.03v.05c0 .02 0 .03.02.02l.21-.06h.01v.02l-.01.02c-.09.05-.2.12-.15.25l.02.01a.03.03 0 0 0 .02 0c.02-.01.03-.04.03-.07 0-.02 0-.03.02-.05.06-.05.12-.1.16-.16.11-.15.28-.2.45-.31a.1.1 0 0 0 .04-.03c.05-.1.1-.15.15-.16.14-.03.17-.08.25-.16.09-.08.23-.09.16-.27a.05.05 0 0 1 .03-.07l.2-.06a.02.02 0 0 1 .02 0 .02.02 0 0 1 0 .02c-.02.07-.06.12-.04.2.02.1.07.19.15.27l-.02.07-.05.02c-.01 0-.02.02 0 .03l.18.19h.01l.01-.01v-.02a.26.26 0 0 1-.09-.08c-.01-.02 0-.04.01-.04a.3.3 0 0 1 .12-.02c.03 0 .04.01.04.04l-.04.39c0 .03-.01.04-.04.01a.45.45 0 0 1-.1-.18.02.02 0 0 0-.02 0h-.02v.02c.02.08.07.17.16.26.03.03.04.08.02.13-.02.08-.22.2-.38.3a.44.44 0 0 0-.2.28c0 .03 0 .06.03.08v.04c0 .02-.02.04-.05.04-.13.01-.2.01-.3.06-.1.05-.25.08-.44.1a.87.87 0 0 0-.4.15 5 5 0 0 1-1.8-2.75c.1.17.2.45.45.54a1 1 0 0 0 .3.03c.1 0 .2.02.3.04.04.01.04 0 .02-.04-.14-.2-.32-.34-.47-.54-.25-.32-.5-.66-.75-1.02a5 5 0 0 1 .1-1.3l.12.19.04.03.33.13c.1.05.18.05.28.05Z" fill="#1A121A"/><path d="m12.51 8.06.47.31a1.5 1.5 0 0 1-.57.34.86.86 0 0 0-.34.26l-.31.4a.96.96 0 0 1-.58.35c-.02 0-.03 0-.03-.02 0-.03 0-.05.04-.07a.8.8 0 0 0 .37-.45c.04-.12.08-.2.1-.31.05-.17.1-.28.17-.35.15-.14.38-.3.68-.46Z" fill="#610D52"/><path d="M7.5 9.9a5.06 5.06 0 0 1-.54-.46c-.17-.17-.24-.34-.52-.41a1 1 0 0 1-.41-.2.16.16 0 0 0-.1-.03l-.72.03c-.14 0-.29-.06-.45-.2a.31.31 0 0 1 .2-.01.1.1 0 0 0 .06 0c.13-.04.25-.06.38-.11.28-.13.64-.32.87 0l.2.21.36.41c.2.25.43.44.67.62.05.04.05.08 0 .14Z" fill="#AB104B"/><path d="M7.51 9.66c-.09-.1-.2-.17-.27-.25-.15-.16-.35-.33-.5-.5l-.34-.39c-.04-.04-.03-.06.03-.05.26.05.4.2.6.42a9.15 9.15 0 0 1 .56.74l-.01.02c-.02.03-.04.03-.07 0Z" fill="#C51863"/><path d="M5.9 9.22c.12 0 .2.02.27.04.2.08.43.15.66.22.03.01.03 0 .01-.02-.1-.13-.26-.3-.44-.32-.2-.03-.38-.07-.57-.17a.67.67 0 0 0-.53-.03l-.09-.1.71-.04c.04 0 .08 0 .1.03a1 1 0 0 0 .42.2c.28.07.35.24.52.4.17.17.35.32.54.46l-.07.15A.88.88 0 0 0 7 9.66l-.66-.25a3.5 3.5 0 0 0-.53-.14c-.01 0-.02 0-.02.02l.38 1.46a1.9 1.9 0 0 0-.56.03.23.23 0 0 1-.22-.07 1.5 1.5 0 0 0-.32-.3c-.09-.06-.2-.31-.3-.42-.09-.1-.2-.2-.27-.33-.13-.26-.24-.5-.3-.74-.02-.05-.07-.07-.07-.12a11.99 11.99 0 0 1 .02-.3.04.04 0 0 1 .03 0c.14.06.24.06.34.16l.25.15c.02 0 .04.02.05.03.02.03.05.05.08.06.14.03.35.12.63.28.14.07.26.08.38.04Z" fill="#710C34"/><path d="M10.78 10.01c.14.05.27.12.4.22l-.21.1h-.05a.54.54 0 0 0-.2-.06h-.01a.03.03 0 0 0-.02.02v.02a2.88 2.88 0 0 1 .13.44c.03.17.18.26.35.28a.1.1 0 0 1 .05.02c.05.04.18.15.26.17l.22.03c.14.01.3-.11.44-.2.12-.09.24-.1.4-.1.16 0 .32.04.46.1.05.02.07.02.1 0a.12.12 0 0 1 .08-.03.1.1 0 0 1 .06.03l.19.15c-.04.06-.07.06-.1.02a5.9 5.9 0 0 0-.16-.14c-.03 0-.05.02-.08.04a.06.06 0 0 1-.04.02.99.99 0 0 1-.23-.06c-.1-.04-.25-.04-.46-.01-.2.03-.36.23-.58.25a.7.7 0 0 1-.57-.18c-.12-.11-.3 0-.4-.17a.1.1 0 0 0-.07-.04c-.02-.01-.04 0-.07 0-.07.05-.15.1-.23.18a.08.08 0 0 1-.04.02c-.02 0-.02 0-.02-.03l.05-.13v-.04c-.02-.04-.02-.08-.01-.1.03-.08.06-.08.09 0l-.02.06c-.02.03 0 .03.01.03.05-.02.1-.05.14-.1a.03.03 0 0 0 0-.02.03.03 0 0 0-.02-.02l-.24-.04a.06.06 0 0 0-.05.01.06.06 0 0 0-.02.05c.01.1.01.17-.03.26a4.85 4.85 0 0 0-.2.69l.15.28c.05.1.08.19.08.27.01.18-.02.36-.1.53 0 .04 0 .07.02.09v.03c-.04.03-.03.08 0 .13.1.08.18.16.34.17.06 0 .13.01.2.05a.1.1 0 0 1 .04.03l.19.25-.06.03a.42.42 0 0 1-.08-.1.12.12 0 0 0-.14-.05l-.6.18c-.03.01-.04 0-.02-.02.03-.04.08-.06.15-.07l.22-.07c.02 0 .02-.01 0-.03a.43.43 0 0 1-.06-.09c-.08-.14-.24-.2-.3-.37a1.25 1.25 0 0 0-.24-.36.04.04 0 0 1 0-.04.45.45 0 0 1 .16-.22c.01-.01.02-.02.01-.04a.41.41 0 0 1 .01-.31v-.05a.74.74 0 0 1-.07-.25l-.01-.02a.04.04 0 0 0-.04-.01l-.02.01-.23.3a8.2 8.2 0 0 1-.05.46c-.02.1-.05.13-.13.18a.1.1 0 0 0-.05.09l-.02.45c0 .03.01.04.03.06.1.06.11.15.21.22a3.6 3.6 0 0 0 .32.18h.05c.02 0 .03.02.04.04.01.04.05.08.11.12v.01a.02.02 0 0 1 .01.02c-.01.02-.02.02-.04.02a.32.32 0 0 0-.23.01c-.07.03-.09.01-.06-.06l.02-.03v-.04c0-.02-.03-.03-.06-.02a.03.03 0 0 0-.02.01.03.03 0 0 0 0 .03v.1c0 .02-.03.04-.07.05a8.62 8.62 0 0 1-.17 0 .25.25 0 0 1-.05-.08c0-.02-.02-.02-.03-.01l-.02.03v.02l.02.01v.02c-.03.02-.05.01-.07 0a.93.93 0 0 0-.1-.06h-.05l-.2.17a5 5 0 0 1-.41-.01c.09-.08.05-.19-.1-.31-.13-.1-.27-.18-.41-.23a.06.06 0 0 1-.04-.03c-.07-.14-.18-.18-.3-.25-.07-.03-.1-.12-.13-.25 0-.02 0-.04.02-.05.06-.04.1-.1.1-.19v-.01h-.02a.29.29 0 0 0-.13.21l-.02.05c-.05.05-.06.12-.05.2v.02h-.03a.72.72 0 0 1-.03-.19c0-.1.09-.22.16-.33.05-.06.05-.14.12-.18a.05.05 0 0 0 .03-.04c0-.07-.01-.14-.05-.2a.05.05 0 0 0-.04-.03.47.47 0 0 0-.33.08c-.16.13-.03.44-.27.46-.2.02-.4.08-.6.19l.02.02-.03.04a.05.05 0 0 1-.04 0 .75.75 0 0 0-.46.06 4.31 4.31 0 0 1-.06-.05.87.87 0 0 1 .39-.15c.2-.02.34-.05.44-.1.1-.05.17-.05.3-.06.03 0 .05-.02.06-.04l-.01-.04a.08.08 0 0 1-.03-.08c.03-.11.1-.2.2-.28.16-.1.36-.22.38-.3.02-.05.01-.1-.02-.13a.72.72 0 0 1-.17-.26l.01-.02h.04c.03.08.06.14.1.18.03.03.04.02.04-.01l.04-.39c0-.03 0-.04-.04-.04a.3.3 0 0 0-.12.02c-.02 0-.02.02 0 .04.01.03.04.06.08.08v.02h-.02l-.18-.18c-.02-.01-.01-.02 0-.03l.05-.02h.2a.1.1 0 0 0 .11-.11l-.01-.25c-.03-.17-.15-.35-.16-.54a.03.03 0 0 1 .03-.03h.01c.03.02.05.04.06.07.07.22.13.45.16.7-.04.04-.02.1.04.18l-.11.2v.08a.63.63 0 0 0-.02.45.04.04 0 0 0 .05.03l.02-.02c.05-.07.1-.13.1-.24 0-.06 0-.15.02-.25.02-.06.04-.14.1-.24a.51.51 0 0 0 0-.45c-.07-.16.01-.24 0-.38-.01-.3-.1-.57-.27-.8a.08.08 0 0 1-.02-.05c0-.1-.01-.16-.05-.18l-.06-.51c.1.07.18.2.25.36.03.07.04.13.05.19l.05.38a.1.1 0 0 0 .1.1c.03 0 .04.03.03.08 0 .17.01.33.06.46v.05a.48.48 0 0 0-.02.42c0 .02.02.03.03.03.04.02.05.04.05.08l-.03.19c0 .02 0 .03.02.04.04.03.05.08.03.14a.06.06 0 0 0 .04.07c.04.01.06 0 .07-.01v-.06a8.9 8.9 0 0 0-.06-.27.29.29 0 0 0 .02-.17c0-.02-.02-.03-.04-.03h-.1l-.01-.03v-.02l.01-.02.07-.03a.04.04 0 0 0 .01-.03l.03-.21v-.05l-.01-.01v-.04c.03-.11.04-.27.04-.48 0-.05.02-.1.06-.13l.05.07v.07l.02.02h.03l.08.02c.03 0 .04.01.01.03a.25.25 0 0 0-.1.26c.02.1-.05.2-.04.33.01.09 0 .2-.03.32a.04.04 0 0 0 .02.05c.06.03.08 0 .05-.12a.04.04 0 0 1 .04-.06h.03c.04 0 .06.02.06.06l.01.36.01.04c.06.1.03.2-.06.29v.02c.13.15.18.2.2.41 0 .09.03.21.07.37 0 .02.01.03.03.02l.24-.07a.01.01 0 0 1 .01.01l-.02.05a.03.03 0 0 1-.02.02l-.18.06a.05.05 0 0 0-.03.06l.1.36c.01.04.03.04.05 0 .07-.2.08-.38.19-.55a.07.07 0 0 0 0-.05.28.28 0 0 0-.03-.09.08.08 0 0 1-.02-.04l-.02-.37a.06.06 0 0 0-.03-.04.06.06 0 0 0-.04-.01c-.06 0-.1 0-.14-.02-.02-.01-.02-.03-.01-.05l.03-.01c.05.01.1.01.14 0a.04.04 0 0 0 .03-.03l.08-.45v-.04a.3.3 0 0 1-.05-.14.04.04 0 0 0-.04-.03c-.04 0-.1 0-.16.02a.1.1 0 0 1-.05 0c-.06 0-.1-.06-.13-.14-.01-.04 0-.06.04-.07.08-.02.13-.01.16.02l.02.04-.01.03.01.02h.11c.02 0 .03 0 .04-.02.03-.11 0-.17-.12-.17a.94.94 0 0 1-.32-.08s-.02 0-.02-.02v-.01c.01-.02.02-.02.03-.02.02.01.04.03.07.03.13 0 .25-.02.36-.06a.07.07 0 0 1 .1.07l-.04.43c0 .07.02.08.08.04.04-.03.09-.08.1-.14.05-.2.08-.37.08-.48 0-.1-.04-.2-.13-.3l.02-.01h.01c.07.05.13.1.18.17.02.05.04.04.04-.01v-.11c0-.02 0-.03-.02-.02H9.6c-.04.01-.04 0-.01-.02h.1a.1.1 0 0 0 .1-.06c.16-.33.27-.63.34-.88.02-.06.05-.1.08-.12.04-.03.05-.02.04.03-.07.2-.13.42-.18.63-.03.13-.05.25-.04.37 0 .15-.04.3-.03.49a20.92 20.92 0 0 0 .02.67l.03.03h.04l.01-.03.08-.24c.07-.21.06-.47.09-.7a.7.7 0 0 0 0-.2c-.04-.18-.06-.31-.02-.47l.05-.26a30 30 0 0 1 .07-.7c0-.08.03-.11.09-.12a.06.06 0 0 0 .04-.02l.03-.05-.02.6c-.01.11.07.22.02.34a.39.39 0 0 0-.04.18c0 .02 0 .03-.02.05l-.01.02a.04.04 0 0 0 0 .05c.08.12.1.3.32.23Z" fill="#E02451"/><path d="m10.2 8.9.03.02v.03l-.1.12c-.04.04-.05.04-.04-.02a.54.54 0 0 0-.03-.23v-.06c.02-.02.02-.02.03 0l.05.11.05.03Z" fill="#8B0D3F"/><path d="M5.9 9.22c-.18-.11-.38-.2-.6-.28.2-.06.38-.05.53.03.2.1.37.14.57.17.18.03.34.19.44.32a10.87 10.87 0 0 1-.68-.2.92.92 0 0 0-.25-.04ZM10.6 9.1c-.01.08 0 .15.02.15s.04-.07.04-.15c0-.08 0-.15-.03-.15-.02 0-.04.07-.04.15Z" fill="#C51863"/><path d="m12.12 9.96-.94.27a1.3 1.3 0 0 0-.4-.22l.83-.32a.23.23 0 0 0 .1-.08l.28-.39c.01-.02.03-.02.03 0 .07.24.1.48.1.74Z" fill="#610D52"/><path d="M4.15 10.23a5.01 5.01 0 0 1-.14-.99c.25.36.5.7.75 1.02.15.2.34.34.47.54.02.04.02.05-.03.04a1.16 1.16 0 0 0-.3-.04 1 1 0 0 1-.3-.03c-.23-.1-.34-.37-.45-.54Z" fill="#390D35"/><path d="m7.43 10.04.02.2c0 .03.01.03.02 0a.75.75 0 0 1 .14-.15c.06-.05.05-.16.12-.19.04-.02.07-.03.1-.01a.03.03 0 0 1 0 .04c-.05.11-.14.22-.26.34a.08.08 0 0 0-.02.04c-.02.08-.02.2-.08.27v.05c.01.05 0 .1-.06.15a.08.08 0 0 0-.02.05c0 .02 0 .04.02.05l.12.12.03.05c0 .07 0 .1-.03.07a.6.6 0 0 1-.15-.27c-.02-.08.02-.13.04-.2a.02.02 0 0 0 0-.02H7.4l-.2.06a.05.05 0 0 0-.03.03.05.05 0 0 0 0 .04c.07.18-.07.19-.16.27-.08.08-.1.13-.25.16-.05 0-.1.06-.15.16a.1.1 0 0 1-.04.03c-.17.1-.34.16-.45.3-.04.06-.1.12-.16.17a.07.07 0 0 0-.02.05c0 .03-.01.06-.03.07a.03.03 0 0 1-.02 0h-.01l-.01-.01c-.05-.13.06-.2.15-.25l.01-.02v-.01l-.01-.01-.2.06c-.02 0-.03 0-.03-.02l-.01-.01v-.04l.03-.02c.23-.08.51-.15.64-.3.01-.03.05-.05.11-.07l.05-.02.21-.24c.04-.04.05-.11.03-.2a.02.02 0 0 1 .02-.03h.1c.02 0 .04 0 .05-.02.1-.07.12-.15.23-.22v-.02a.38.38 0 0 1-.17-.06.09.09 0 0 0-.12.03c-.08.13-.21.18-.32.28a.05.05 0 0 1-.04 0 .25.25 0 0 1-.1-.05.06.06 0 0 0-.05-.01l-.28.04L5.8 9.3c0-.01 0-.02.02-.02.27.06.45.1.53.14l.66.25c.17.07.32.2.43.38ZM8.14 9.51c.05.06.11.08.14.06.02-.02-.01-.08-.07-.13-.05-.05-.11-.08-.13-.06-.03.02 0 .08.06.13Z" fill="#C51863"/><path d="M9.67 9.5c.04-.04.07-.09.06-.1-.02-.02-.07 0-.11.05-.05.04-.08.09-.06.1.01.02.06 0 .1-.05Z" fill="#710C34"/><path d="M8.5 9.92a.17.17 0 0 1-.04-.07.72.72 0 0 1-.03-.34h.02l.08.02c.02 0 .03.02.02.04a.32.32 0 0 0-.02.27v.05l-.02.03Z" fill="#AB104B"/><path d="M9.88 9.53a.01.01 0 0 1 0 .01 6.02 6.02 0 0 1-.29.3l-.01-.02s.01-.04.06-.1l.18-.22a.01.01 0 0 1 .02 0l.04.03Z" fill="#710C34"/><path d="M12.13 10.63c0 .03.02.06 0 .08v.01a.02.02 0 0 1-.02 0l-.55-.18a.18.18 0 0 1-.08-.06.13.13 0 0 1-.03-.1c.01-.06.1-.12.16-.14.24-.08.5-.14.78-.19.01 0 .02 0 .02.02 0 .17-.04.33-.1.48l-.04.02c-.06 0-.1 0-.12.02 0 0-.02 0-.02.02v.02Z" fill="#3F2253"/><path d="M10.43 10.18c.05.03.13 0 .15.09.03.07.02.14-.01.2a.08.08 0 0 1-.09.05c-.1 0-.13-.05-.13-.15v-.22c0-.02.01-.02.03 0l.05.03Z" fill="#251323"/><path d="M9.2 10.37v-.03h-.02c-.12.04-.21.01-.29-.07a.03.03 0 0 1 0-.03.03.03 0 0 1 .02-.02l.27-.01c.06 0 .11.02.12.08a.06.06 0 0 1-.02.05.33.33 0 0 0-.06.1c0 .02-.02.04-.03.04a.3.3 0 0 1-.23.03c-.02 0-.03-.01-.03-.03 0-.02.01-.04.04-.06.03-.03.17-.03.23-.05Z" fill="#E02451"/><path d="M9.82 10.54c-.06.01-.1.05-.1.11a.03.03 0 0 1-.03.02h-.04a.03.03 0 0 1-.02-.05 1 1 0 0 1 .14-.28c.03-.05.05-.04.06.01v.16l-.01.03Z" fill="#251323"/><path d="M11.17 10.59c0 .03.02.06.05.09.04.04.04.06-.02.05-.06-.02-.08-.06-.08-.12s.06-.13.15-.2c.01-.02.03-.02.04 0 .01.01.02.03 0 .05 0 .03-.04.06-.11.09-.02 0-.03.02-.03.04Z" fill="#610D52"/><path d="M10.64 10.52h.02v.02a.88.88 0 0 1 .05.14v.07h-.04l-.03-.04a.85.85 0 0 1-.07-.13v-.02l.07-.04Z" fill="#251323"/><path d="M9.86 10.81a.1.1 0 0 0-.07 0 .02.02 0 0 1-.02 0 .02.02 0 0 1 0-.02c0-.03.02-.06.06-.08a.03.03 0 0 1 .04.02v.07c0 .01 0 .02-.01.01Z" fill="#8B0D3F"/><path d="M13.43 11.2c.02 0 .03 0 .05.02A5 5 0 0 1 11 13.58l-.19-.25a.1.1 0 0 0-.03-.03.54.54 0 0 0-.21-.05c-.16 0-.25-.09-.33-.17-.04-.05-.05-.1-.01-.13v-.03c-.03-.02-.03-.05-.01-.1.07-.16.1-.34.1-.52a.64.64 0 0 0-.1-.27 7.74 7.74 0 0 1-.15-.33c.06-.23.13-.44.21-.64a.48.48 0 0 0 .03-.26.06.06 0 0 1 .02-.05.06.06 0 0 1 .05-.01l.24.04a.03.03 0 0 1 .02.02.03.03 0 0 1 0 .03.27.27 0 0 1-.14.09c-.02 0-.03 0-.01-.03l.02-.06c-.03-.08-.06-.08-.1 0l.02.1v.04l-.05.13c0 .02 0 .03.02.03l.04-.02c.08-.07.16-.13.24-.17a.09.09 0 0 1 .06-.01.1.1 0 0 1 .06.04c.12.18.3.06.41.17.16.15.35.2.57.18.22-.02.39-.22.58-.25.2-.03.36-.03.46 0 .12.05.2.07.23.07.02 0 .03 0 .04-.02.03-.02.05-.04.08-.04l.05.04.1.1c.04.04.07.04.1-.02Z" fill="#131013"/><path d="M6.74 10.98c0 .04 0 .04-.04 0a.4.4 0 0 1-.06-.13.04.04 0 0 1 .04-.05h.03c.02 0 .03 0 .03.02v.16Z" fill="#8B0D3F"/><path d="M9.51 11.27h.07c.01 0 .02.02.01.03l-.06.3v.35c0 .06-.01.12-.06.17l-.05.05c-.05.05-.08.04-.08-.03a3.36 3.36 0 0 1-.02-.7.73.73 0 0 1 .17-.4.06.06 0 0 1 .05-.02h.04a.03.03 0 0 0 .03-.04c0-.02-.01-.02-.02-.02-.02 0-.03-.01-.03-.03a.3.3 0 0 1 .03-.08c.08-.1.12-.1.13.03 0 .07 0 .16-.04.27a.03.03 0 0 1-.04.02c-.08-.02-.13 0-.15.08a.02.02 0 0 0 0 .02h.02Z" fill="#131013"/><path d="M9.83 11.52c-.03.01-.03.02 0 .03.05 0 .08.01.1.03v.03l-.26.25a.03.03 0 0 1-.03 0 .03.03 0 0 1-.02-.02c0-.13.01-.27.04-.42 0-.06.03-.1.07-.15a.11.11 0 0 0 .02-.05.23.23 0 0 1 .09-.14.05.05 0 0 0 .02-.05c0-.05.02-.09.05-.12.02-.01.03 0 .03.02l-.01.4.01.04c.03.02.03.05 0 .07a.71.71 0 0 1-.1.08Z" fill="#251323"/><path d="M5.35 11.06c0 .02-.02.03-.03.03l-.57.19h-.01v-.04c.26-.1.4-.12.56-.28a.04.04 0 0 1 .07.02c0 .02 0 .05-.02.08Z" fill="#3F2253"/><path d="m8.58 11.36.01-.05c0-.01 0-.03-.02-.04a.53.53 0 0 1-.08-.1c-.02-.02-.02-.03-.02-.05l.01-.03c.01-.02.03-.03.04-.01.1.06.13.13.12.22v.03l.05.08a.04.04 0 0 1-.02.05l-.02.01-.07-.01-.01-.02-.01-.02.02-.06Z" fill="#131013"/><path d="M8.06 11.58c-.02.1-.03.17-.01.17.02 0 .05-.06.08-.15.02-.1.03-.17 0-.17 0 0-.04.06-.07.15Z" fill="#390D35"/><path d="M7.98 12.24c.02-.11.03-.25.08-.33.09-.15.15-.28.18-.4.02-.06.04-.06.08-.03l.01.02c.03.03.05.06.04.1-.02.12 0 .24.07.35V12a.9.9 0 0 1-.2.24.07.07 0 0 1-.04.02c-.07 0-.16-.05-.22-.02Z" fill="#131013"/><path d="m5.4 11.48-.43.26v.02h.02l.43-.25v-.02H5.4Z" fill="#696868"/><path d="M6.25 11.84a.01.01 0 0 1 0-.01l.2-.15a.16.16 0 0 1 .05-.03h.03v.03l-.02.02-.02.02-.21.15h-.02l-.01-.03Z" fill="#3F2253"/><path d="M10.94 13.6a5 5 0 0 1-1.86.4l.2-.17a.04.04 0 0 1 .04 0l.1.06c.02.01.04.02.07 0v-.02h-.02v-.03c0-.01 0-.02.02-.03.01-.01.02 0 .03.01.02.04.03.07.05.08l.02.01h.02l.13-.01c.04-.01.06-.03.07-.05v-.1a.03.03 0 0 1 0-.03.03.03 0 0 1 .02-.01c.03 0 .05 0 .06.02v.04a.28.28 0 0 0-.02.03c-.03.07 0 .1.06.06a.32.32 0 0 1 .23-.01l.04-.01a.03.03 0 0 0 0-.02.02.02 0 0 0-.01-.02c-.06-.04-.1-.08-.1-.12a.05.05 0 0 0-.05-.03H9.98c-.1-.06-.2-.12-.3-.2-.1-.06-.11-.15-.22-.21a.06.06 0 0 1-.03-.06l.02-.45a.1.1 0 0 1 .05-.09c.08-.05.11-.08.12-.19a8.2 8.2 0 0 0 .05-.46l.24-.29.02-.01h.02a.04.04 0 0 1 .03.03c0 .07.03.15.07.25v.05c-.04.1-.05.2 0 .3 0 .03 0 .04-.02.05a.45.45 0 0 0-.17.22.04.04 0 0 0 .01.04c.11.12.19.24.24.36.06.17.22.23.3.37l.07.1v.02l-.23.07c-.07.01-.12.03-.15.07-.02.02-.01.03.02.02l.6-.18h.07l.07.06.08.09ZM7.98 12.24c.08.13.25.03.27.2a.06.06 0 0 0 .05.04h.02a.4.4 0 0 0 .26-.17.05.05 0 0 0-.02-.07h-.02c-.09 0-.13.05-.14.12v.02h-.03l-.01.01-.02-.01c-.02-.17.15-.25.22-.31a.11.11 0 0 0 .03-.07.1.1 0 0 0-.02-.08l-.07-.07c-.04-.04-.05-.08-.02-.12a.03.03 0 0 1 .04 0h.02c.04.1.06.17.13.26.1.14.14.3.12.47l.01.03v.03l-.1.03v.02a.02.02 0 0 0 .02.01c.05 0 .1 0 .12.02.02 0 .03.02.03.04l.11.38a.04.04 0 0 1 0 .03.04.04 0 0 1-.03.02h-.1c-.03.01-.04.02-.01.03l.11.06c.02 0 .02.02.02.03 0 .18.02.46-.08.58a.1.1 0 0 1-.11.03.1.1 0 0 1-.03-.03.9.9 0 0 0-.28-.25l-.33-.2c-.14-.14-.17-.3-.09-.47a.1.1 0 0 0 0-.05.68.68 0 0 0-.13-.33.06.06 0 0 1-.01-.04c0-.07.03-.13.07-.2Z" fill="#131013"/><path d="m7.38 11.97-.4-.2a.05.05 0 0 0-.05.1l.4.2c.03 0 .06 0 .07-.03v-.01a.05.05 0 0 0-.02-.06Z" fill="#3F2253"/><path d="M8.69 11.87c.02.03.05.05.06.04.02-.01.01-.05-.01-.08s-.05-.05-.07-.04c-.01.01 0 .05.02.08Z" fill="#390D35"/><path d="m5.18 12.16-.01-.02v-.01c.17-.11.23-.19.4-.12a.03.03 0 0 1 .02.03v.02h-.04c-.18-.03-.2.06-.35.1h-.02Z" fill="#E02451"/><path d="M7.85 12.11c0 .04.01.07.03.07.02 0 .03-.03.03-.06 0-.04-.01-.07-.03-.07-.02 0-.03.03-.03.06Z" fill="#251323"/><path d="M10.16 12.41a.32.32 0 0 1-.07-.24c0-.05.03-.06.07-.02.15.15.05.48-.02.66l-.02.02a.04.04 0 0 1-.04 0l-.02-.01-.1-.19a.07.07 0 0 1-.01-.05c.01-.1.08-.15.2-.14.02 0 .03-.01.01-.03ZM8.66 13.99a5.1 5.1 0 0 1-.62-.08.96.96 0 0 0-.11-.4.1.1 0 0 0-.18.01c-.03.1-.1.2-.17.27a5.01 5.01 0 0 1-1.55-.76.75.75 0 0 1 .46-.05l.04-.01.03-.04-.02-.01v-.01c.2-.1.4-.17.6-.2.24-.01.11-.32.27-.45a.47.47 0 0 1 .33-.08c.02 0 .03.01.04.03.04.06.05.13.05.2l-.01.03-.02.01c-.07.04-.07.12-.12.18-.07.11-.16.22-.16.33 0 .06.01.13.03.18l.01.01h.01c.01 0 .02-.01.01-.02-.01-.08 0-.15.05-.2a.09.09 0 0 0 .02-.05.29.29 0 0 1 .13-.21h.01a.02.02 0 0 1 .01.01c0 .09-.04.15-.1.2a.04.04 0 0 0-.02.04c.02.13.06.22.13.25.12.07.23.11.3.25 0 .02.02.03.04.03.14.05.28.12.4.23.16.12.2.23.1.3ZM9.4 12.57c-.05-.13.02-.25.1-.33.03-.03.04-.02.04.01 0 .14.02.31-.1.34-.01 0-.02 0-.03-.02Z" fill="#131013"/><path d="M6 12.66a.34.34 0 0 0-.19.07.02.02 0 0 1-.02 0v-.01l-.02-.02.01-.03a.55.55 0 0 1 .23-.1c.02 0 .04 0 .06.02l.21.21v.01a.62.62 0 0 1-.23-.13.07.07 0 0 0-.05-.02Z" fill="#E02451"/><path d="M9.35 13.13c.02.03.02.05 0 .07a.04.04 0 0 1-.04.02l-.14-.05a.05.05 0 0 1-.03-.03.05.05 0 0 1 0-.03l.15-.44c.02-.06.04-.06.05 0 .04.14.04.27 0 .42a.06.06 0 0 0 .01.04ZM7.88 12.64c0-.02.01-.02.04 0l.05.06a.11.11 0 0 1 .01.08l-.05.3c0 .01-.01.02-.02.01a.28.28 0 0 1-.12-.12v-.05a.57.57 0 0 0 .09-.28ZM9.22 13.33a.01.01 0 0 1 0 .02v.01a.7.7 0 0 1-.08.15c-.03.04-.06.06-.07.05-.02 0-.03-.04-.02-.08 0-.05.02-.11.05-.17v-.01a.01.01 0 0 1 .01-.01h.01l.1.04Z" fill="#131013"/><path d="M8.04 13.9a4.6 4.6 0 0 1-.11-.02c-.01-.09-.02-.18-.01-.26 0-.02 0-.04-.02-.05-.02-.03-.04-.04-.06-.04l-.02.01-.02.02-.08.27c-.04 0-.1-.02-.14-.04a.7.7 0 0 0 .17-.27.1.1 0 0 1 .14-.05.1.1 0 0 1 .04.04c.06.11.1.25.11.4Z" fill="#AB104B"/><path d="M9.24 13.6c-.02.06-.01.12.02.13.03 0 .07-.04.08-.11.02-.07.01-.13-.02-.13-.03-.01-.07.04-.08.1ZM7.93 13.88a4.42 4.42 0 0 1-.2-.05l.07-.27a.04.04 0 0 1 .04-.03c.02 0 .04.01.06.04l.02.05v.26ZM9.5 13.77h-.02c-.04-.02-.07-.05-.08-.08a.07.07 0 0 1 .02-.06.07.07 0 0 1 .06-.02l.17.03c.1.01.12.05.06.1l-.02.02h-.18Z" fill="#131013"/></svg>