<!-- by TradingView --><svg width="18" height="18" viewBox="0 0 18 18" xmlns="http://www.w3.org/2000/svg"><path fill="url(#a)" d="M0 0h18v18H0z"/><path d="M10.16 4.14a.56.56 0 0 1-.3.05l-.25-.02a143.46 143.46 0 0 0-1.66.02c-.04 0-.07-.02-.08-.06a4.93 4.93 0 0 1 2.29 0Z" fill="#FCFEED"/><path d="M7.87 4.13c.01.04.04.06.08.06l.31-.01a143.46 143.46 0 0 1 1.6 0c.12.02.22 0 .3-.04l.3.08a5.13 5.13 0 0 1-2.83-.02l.24-.07Z" fill="#D9CC9F"/><path d="M7.63 4.2c.22.04.44.06.66.06a50.85 50.85 0 0 0 2.17-.04l.63.23-.13.45v.02a.04.04 0 0 0 .03.03l.17.02-.18.05a2.88 2.88 0 0 0-.46-.04c-.8-.01-1.5 0-2.11.01l-.68-.01c.16-.15.2-.31.1-.48-.04-.06-.08-.07-.14-.07-.16 0-.33-.03-.5-.08l.44-.14Z" fill="#AF976E"/><path d="M7.19 4.35c.17.05.34.08.5.08.06 0 .1.01.14.07.1.17.06.33-.1.48l-.37.01a.06.06 0 0 0-.05.04l-.07.2v.06l.02.04v.04c-.04.03-.14.08-.3.14a.86.86 0 0 0-.18.12v.03l.02.03.05.04c.02 0 .03.02.04.03l.07.12a.07.07 0 0 1-.02.1c-.09.05-.1.1-.06.14a.11.11 0 0 1-.07 0 .06.06 0 0 1-.05-.06l.02-.2v-.04l.02-.02a.05.05 0 0 0-.05-.07.21.21 0 0 0-.17.14c0 .02-.01.03-.03.04-.07.06-.12.06-.17.15a.09.09 0 0 0 .08.13h.2c.1-.01.11.02.03.09l-.1.03c-.1 0-.19-.02-.27-.04a7.75 7.75 0 0 1-.63-.3l-.08-.14c.17.13.36.25.56.35.03.02.07.02.11 0h.01V6.09a.04.04 0 0 0 0-.05l-.02-.01a.35.35 0 0 1-.22-.12c.23.05.33-.08.53-.24l.6-.54c.02-.07.02-.17-.02-.29a.83.83 0 0 0-.11-.2 1.7 1.7 0 0 1-.12-.2l.26-.09Z" fill="#8F7A55"/><path d="M6.93 4.45c.03.07.07.13.12.2.06.08.1.14.11.2.04.11.04.2.01.28a2.1 2.1 0 0 1-.6.06.05.05 0 0 1-.04-.04.39.39 0 0 0-.12-.34.04.04 0 0 1-.02-.04l.02-.05.52-.27Z" fill="#6B5632"/><path d="m11.75 4.84-.59.13-.17-.02a.04.04 0 0 1-.02-.02.04.04 0 0 1 0-.03l.12-.45.66.39Z" fill="#8F7A55"/><path d="M6.4 4.72v.05a.04.04 0 0 0 0 .04c.1.1.15.2.13.34a.05.05 0 0 0 .05.05c.18 0 .37-.02.59-.07-.2.2-.4.37-.6.54-.19.16-.3.29-.52.24a1.17 1.17 0 0 1-.14-.1c-.16-.12-.42-.11-.66-.1.02-.02.03-.06.05-.07l.24-.27c.05-.06.14-.1.2-.17a.24.24 0 0 1 .1-.08c.02 0 .05-.04.11-.09.13-.1.29-.21.46-.3Z" fill="#414746"/><path d="m11.75 4.84.04.02c.02.03.02.07.01.1-.02.07-.1.08-.13.13-.07.1-.15.2-.25.27-.19.15-.48.42-.64.39-.02 0-.03-.02-.03-.04l-.04-.36a.06.06 0 0 0-.06-.05H9.13c-.56-.02-1.1-.01-1.64 0a.62.62 0 0 1-.2-.04.04.04 0 0 1-.02-.04c0-.01 0-.03.02-.04a279.94 279.94 0 0 0 3.2-.05c.18 0 .32-.07.49-.11l.18-.05.6-.13Z" fill="#FBFEDF"/><path d="M12.36 5.29c-.17.1-.32.23-.44.37a.04.04 0 0 1-.04.02c-.2-.04-.4-.04-.58.02a.04.04 0 0 0-.03.04l-.03.22-.02.04c-.03.01-.04.03-.04.04-.02 0-.04 0-.05.03l-.14.25a.27.27 0 0 0-.08.1 1.5 1.5 0 0 0-.35.35.36.36 0 0 1-.1.13l-.03-.14a.08.08 0 0 0-.03-.04.77.77 0 0 1-.15-.2c0-.01 0-.02.02-.02.03 0 .05.02.08.06l.04.02a.1.1 0 0 0 .05-.01c.02 0 .03-.02.03-.03l.16-.62c0-.02 0-.02-.02-.02-.92-.03-1.84-.02-2.77.01-.07 0-.12.01-.14.03a.06.06 0 0 0-.03.05c0 .08-.04.16-.04.26v.42c0 .05-.02.12-.04.16-.15.24-.33.48-.53.72l-.25.25c-.13.13-.23.28-.29.43-.04.1-.08.1-.12 0-.04-.1-.2-.12-.28-.16.08-.02.07-.06-.02-.15a.04.04 0 0 0-.06.01.15.15 0 0 0 0 .1l-.2-.04a.04.04 0 0 0-.05.04v.02l.04.2.08.18c.09.14.1.3.06.47l-.03-.32-.01-.04c-.12-.15-.32-.08-.32.12 0 .05.04.1.06.15a.06.06 0 0 1-.03.08L5.4 9a.07.07 0 0 0-.04.03l-.23.55a.06.06 0 0 0 .05.09l.23.03.02.01v.02c0 .08-.01.15-.06.2l-.3.2A.06.06 0 0 1 5 10.1l-.01-.03-.02-.38a.3.3 0 0 1 .02-.2l.08-.18c.06-.21.18-.45.21-.66.03-.17.04-.35.03-.54 0-.05.02-.06.06-.02l.06.12a.04.04 0 0 0 .06.02c.07-.06.14-.13.2-.22.13-.18.37-.3.6-.43a5.02 5.02 0 0 0 .76-.68 7.9 7.9 0 0 0 .5-.8.56.56 0 0 1 .34-.28l.8-.26a.92.92 0 0 0 .44-.27h1.52a.06.06 0 0 1 .06.06l.04.36c0 .02.01.03.03.04.16.03.45-.24.64-.39.1-.08.18-.17.25-.27.04-.05.11-.06.13-.12a.13.13 0 0 0-.01-.11l.57.43Z" fill="#DCD6B9"/><path d="M7.73 4.98c.23.01.46.02.68.01.6-.02 1.3-.02 2.11-.01.18 0 .33.01.46.04-.17.04-.31.1-.49.1a279.99 279.99 0 0 1-3.15.04c-.02 0-.04 0-.05.02l-.02.04c0 .02.01.03.03.04.08.02.14.04.2.04.52-.01 1.07-.02 1.63 0a.92.92 0 0 1-.44.26l-.8.26a.56.56 0 0 0-.35.28 3.88 3.88 0 0 1-.92 1.23c-.1.09-.21.17-.34.25-.22.13-.46.25-.6.43a1.2 1.2 0 0 1-.2.23.04.04 0 0 1-.05-.03.26.26 0 0 0-.06-.12c-.04-.04-.06-.03-.06.02 0 .19 0 .37-.03.54-.03.21-.15.45-.21.66l-.08.18a.3.3 0 0 0-.02.2l-.1.15a.08.08 0 0 1-.05.04h-.04c-.03 0-.04-.02-.02-.04.03-.04.04-.11.03-.2 0-.13.04-.21.13-.26a.05.05 0 0 0 .03-.04l.03-.22-.01-.04a.48.48 0 0 0-.13-.13c-.08-.03-.13 0-.15.05a.02.02 0 0 1-.01.02.02.02 0 0 1-.03 0c-.12-.1-.15-.16-.09-.33.05-.12.08-.25.09-.39 0-.01 0-.03.02-.04.13-.12.36-.23.6-.37.18-.1.33-.27.59-.32.09-.01.12-.05.15-.13l.14-.15c.08 0 .15-.03.2-.08.1-.06.2-.15.3-.26l.5-.57c.18-.2.43-.53.48-.83.03-.16-.06-.24-.22-.18-.2.1-.41.2-.61.32l-.02-.03v-.03l.17-.12c.17-.06.27-.11.3-.14.02-.01.02-.03.01-.04l-.02-.04a.07.07 0 0 1 0-.05l.07-.2a.06.06 0 0 1 .05-.05l.37-.01Z" fill="#C1BAA4"/><path d="M12.49 5.43a1.6 1.6 0 0 0 0 .57.06.06 0 0 0 .06.02l.08-.03.03.01v.06a.19.19 0 0 0-.05.08c-.02.01-.03.02-.03.04 0 .01 0 .03.02.04.06.04.07.09.02.15a3.4 3.4 0 0 0-.05.06v-.1a.03.03 0 0 0 0-.04c-.04-.02-.07-.02-.1 0-.09.09-.13.12-.17.25a.62.62 0 0 1-.07.15v.01l.01.01h.01c.05.01.1 0 .15-.01.03.1.09.16.17.16l.15.01c.02 0 .03.01.03.03a.7.7 0 0 1 .03.24.7.7 0 0 0-.43.21h-.04l-.24-.21c-.01-.04-.04-.07-.09-.1a1.42 1.42 0 0 0-.23-.12.04.04 0 0 1 0-.03v-.01c.1-.17.19-.31.19-.5 0-.1-.03-.16-.08-.18-.12-.06-.21-.02-.28.1a.54.54 0 0 0-.1.26l-.03.34a.39.39 0 0 1-.23.1l-.02-.19c0-.02 0-.03-.02-.04a1.24 1.24 0 0 1-.16-.1.35.35 0 0 1-.1-.25.27.27 0 0 1 .07-.1c0 .03.03.01.06-.04a2.22 2.22 0 0 0 .17-.28l.02-.04.03-.22c0-.02.01-.03.03-.04.17-.06.38-.06.58-.02.01 0 .03 0 .04-.02.12-.14.27-.26.44-.37.07.05.1.1.13.14Z" fill="#EDA420"/><path d="M6.35 7.21c-.09-.1-.15-.08-.2.08l-.14.15c0-.1-.1-.11-.28-.03-.08.03-.17.14-.28.19-.08.04-.12.04-.2.1a4.17 4.17 0 0 1-.8.35c0-.03 0-.06.02-.07a1.96 1.96 0 0 1 .42-.18v-.28a.04.04 0 0 1 .04-.04h.01l.17.03a.02.02 0 0 0 .02-.02l-.05-.27c0-.02 0-.03.02-.05.05-.04.1-.02.15.03a.78.78 0 0 0 .26.16.05.05 0 0 0 .04-.03c.05-.11.1-.16.22-.23.2-.11.49-.24.62-.38l.39-.37.26-.05c.02 0 .02 0 .02-.03a.07.07 0 0 0-.03-.03c-.02 0-.02-.02 0-.03l.12-.12a.04.04 0 0 0-.02-.07c-.03-.01-.07 0-.1.02a.49.49 0 0 1-.15.08c-.04-.04-.03-.09.06-.15a.07.07 0 0 0 .02-.09l-.07-.12a.08.08 0 0 0-.04-.03L6.8 5.7c.2-.12.4-.23.61-.32.16-.06.25.02.22.18-.05.3-.3.63-.47.83l-.51.57c-.1.11-.2.2-.3.26Z" fill="#A7A795"/><path d="m12.49 5.43.52.59a.16.16 0 0 0-.05.03.04.04 0 0 0-.02.04l.02.06a.18.18 0 0 0-.1-.1c-.03 0-.04 0-.04.02a.36.36 0 0 1-.08.12.04.04 0 0 1-.04.01.18.18 0 0 1-.1-.06l.05-.08a.05.05 0 0 0 .01-.06c0-.01-.02-.02-.03-.01l-.08.03a.06.06 0 0 1-.05 0 .06.06 0 0 1-.03-.05 1.6 1.6 0 0 1 .02-.54Z" fill="#ECDB95"/><path d="M6.05 5.9c.05.07.12.1.22.13a.04.04 0 0 1 .03.02.04.04 0 0 1 0 .04c-.01.01-.01.03 0 .07v.02h-.02a.13.13 0 0 1-.11 0c-.2-.1-.39-.22-.56-.35a.93.93 0 0 0-.35-.05.04.04 0 0 1-.04-.03v-.03l.03-.01c.24-.01.5-.02.66.1l.14.1Z" fill="#A1AEB7"/><path d="M5.23 5.72v.03a.04.04 0 0 0 .03.03c.12 0 .24 0 .35.05l.07.14c-.06.04-.02.1.12.18-.28.08-.5 0-.64-.24a.04.04 0 0 0-.07 0l-.33.41c.12-.22.28-.42.47-.6Z" fill="#414746"/><path d="M6.88 6.12c.06-.02.1-.05.15-.08a.12.12 0 0 1 .1-.02.04.04 0 0 1 .02.07l-.12.12c-.02.01-.02.02 0 .03l.03.03c0 .02 0 .03-.02.03l-.26.05-.56.01-.42-.2c-.14-.09-.18-.15-.12-.2a7.75 7.75 0 0 0 .64.31c.08.02.17.05.26.04l.11-.03c.08-.07.07-.1-.04-.09h-.2a.09.09 0 0 1-.07-.13c.05-.09.1-.1.17-.15a.09.09 0 0 0 .03-.04.21.21 0 0 1 .17-.14.05.05 0 0 1 .05.07l-.01.02-.01.03-.02.21c0 .02 0 .03.02.04l.03.02h.07Z" fill="#4E4337"/><path d="m10.46 6.9-.24.02c-.01 0-.03 0-.04.02l-.18.2v.03h.04l.11-.04h.05l.2.21v.03l-.08.03a.04.04 0 0 0-.02.03c-.02.13 0 .28-.07.45-.1.24-.14.5-.14.8 0 .03-.02.04-.03.06l-.96.45-.05-.01-.26-.27c-.07-.22-.15-.4-.27-.53-.1-.12-.25-.18-.45-.16h-.09l-.1-.01a.72.72 0 0 1-.04-.04l-.01-.03.02-.02h.19c.03.02.06.03.1.03.03 0 .06-.02.1-.05a2.46 2.46 0 0 1 .18-.15h.04l.22.1a.05.05 0 0 0 .04 0A.05.05 0 0 0 8.74 8l.08-.3.03-.03c.05-.05.08-.08.08-.1a.22.22 0 0 1-.05-.2c0-.03.02-.05.03-.06.07-.23.02-.41-.13-.56-.27-.21-.54-.25-.8-.1-.1.05-.16.14-.2.29-.06.16.06.43.01.56a.52.52 0 0 1-.31.33 2.2 2.2 0 0 0-.5.25c-.18.03-.25.15-.31.3a.38.38 0 0 1-.1.16l-.22.18c-.05-.01-.1-.05-.12-.13a2.52 2.52 0 0 1-.08-.26l-.02-.01H6.1c-.03 0-.04.01-.04.04l.06.48c.02.15-.06.2-.13.3 0 .02 0 .03-.02.04-.06.03-.1.01-.13-.04-.05-.14 0-.22.12-.25a.6.6 0 0 0-.06-.47.67.67 0 0 1-.08-.18 1.73 1.73 0 0 0-.04-.22.05.05 0 0 1 .03-.04h.02l.2.03c0 .02.04.04.08.05.08.04.24.07.28.16.04.1.08.1.12 0 .06-.15.16-.3.29-.43l.25-.25c.2-.24.38-.48.53-.72.02-.04.04-.1.04-.16v-.42c0-.1.03-.18.04-.26 0-.02.01-.03.03-.05a43.23 43.23 0 0 1 2.93-.03l-.16.63-.03.03a.1.1 0 0 1-.05 0l-.04-.01c-.03-.04-.05-.06-.08-.06-.02 0-.03 0-.02.03.04.07.1.13.15.19l.03.04.03.14Z" fill="#FCFEED"/><path d="m5.8 6.15.42.21c-.2.08-.35.2-.48.35-.03.03-.14.09-.34.18-.06.03-.12.01-.2.02-.01 0-.03 0-.04.02a1.7 1.7 0 0 0-.28.42l-.04.02c-.02 0-.03-.02-.03-.05v-.06c.02-.08 0-.1-.08-.06H4.7a.06.06 0 0 1-.02-.04l-.12-.46.21-.38.33-.4a.04.04 0 0 1 .07 0c.14.23.36.3.64.23Z" fill="#6E746D"/><path d="m13 6.02.28.38a.4.4 0 0 0-.06.2v-.04a.05.05 0 0 0-.1.02l-.13.62a.95.95 0 0 1-.02-.83c.04-.1.03-.15-.01-.22l-.02-.06c0-.02 0-.03.02-.04a.16.16 0 0 1 .05-.03Z" fill="#DCD6B9"/><path d="M11.18 6.04c-.03.08-.08.16-.13.24-.03.05-.05.07-.06.04l.14-.25a.05.05 0 0 1 .05-.03Z" fill="#C1B38A"/><path d="M12.96 6.15c.04.07.05.13 0 .22a.95.95 0 0 0 .03.83l-.08.61c-.12-.2-.16-.42-.13-.67a.7.7 0 0 0-.03-.24.04.04 0 0 0-.03-.03h-.15c-.08-.01-.14-.06-.17-.17.07-.01.16 0 .2-.06.04-.05.03-.12-.03-.2l.05-.07c.05-.06.04-.11-.02-.15-.02-.01-.03-.03-.02-.04 0-.02.01-.03.03-.04.03.04.06.06.1.06a.04.04 0 0 0 .03-.01.36.36 0 0 0 .08-.12c0-.01.01-.02.03-.01.04 0 .08.04.1.09Z" fill="#A2A364"/><path d="M12.07 7.14v.62c.01.08.06.17.06.26l.04.61c.03.15.01.29-.04.42a.06.06 0 0 1-.1.02c-.07-.08-.05-.12-.03-.22a.1.1 0 0 0 0-.04l-.04-.17v-.05c.02-.02.02-.03.01-.05-.1-.25-.1-.6-.12-.81 0-.03-.02-.04-.04-.02h-.02a.1.1 0 0 0-.04.08c0 .13-.04.27-.1.4-.01.01-.02.03-.01.04a.2.2 0 0 0 .07.1l-.07.2c0 .02-.02.04-.03.04l-.14.08a.05.05 0 0 0-.02.03c-.05.17.1.22.05.36l-.13.43-.07.17-.22.53a.3.3 0 0 1-.13.14c-.01.01-.03.02-.05.01-.02 0-.02-.02-.01-.03a.2.2 0 0 0 0-.13c.02-.19.07-.36.14-.52.07-.15.06-.26.12-.39.02-.04 0-.13.02-.18l-.02-.02-.02.01a54.06 54.06 0 0 1-.62 1.28.12.12 0 0 1-.08-.09.05.05 0 0 1 0-.04c.1-.1.07-.21.1-.3.04-.2.1-.37.16-.56.05-.11.06-.25.11-.35a.5.5 0 0 0 .07-.3.04.04 0 0 1 0-.04l.04-.03.01-.02v-.02a.03.03 0 0 0-.03-.01l-.3.06a.03.03 0 0 0-.02.03l.01.09-.01.04c-.1.08-.11.19-.21.28l-.42.4c-.09.02-.08-.04.02-.2l.2-.14a.05.05 0 0 0 .01-.03.05.05 0 0 0 0-.04.18.18 0 0 0-.11-.06c-.02 0-.03-.02-.03-.04l.03-.23a.13.13 0 0 0 .03-.05c.1-.1.21-.17.35-.2l.03-.03c.1-.11.12-.26.21-.4l.24-.38c.07-.12.11-.26.13-.4.07-.06.14-.09.22-.07l.07.27v.02l-.01.02-.06.07c-.04.04-.03.06.03.04.1-.02.18-.04.23-.08.02 0 .03-.02.03-.04l.08-.3a.04.04 0 0 0-.03-.04l-.12-.04.02-.22a.46.46 0 0 0 .23-.29 18.53 18.53 0 0 1 .08-.34c-.04-.07-.12-.07-.24.02.07-.12.16-.16.28-.1.05.02.08.08.08.18 0 .19-.1.33-.2.5a.04.04 0 0 0 0 .03.04.04 0 0 0 .03.02l.21.1c.05.04.08.07.09.1Z" fill="#281D27"/><path d="M11.5 6.91c-.01.02-.03.02-.05-.01l.03-.34c.01-.09.04-.18.1-.26.12-.09.2-.1.24-.02v.04l-.08.3a.46.46 0 0 1-.23.3Z" fill="#488EDC"/><path d="M12.57 6.43c.06.09.07.16.03.2-.04.07-.13.06-.2.07a.28.28 0 0 1-.15.01.02.02 0 0 1-.02-.02c.03-.05.06-.1.07-.15.04-.13.08-.16.17-.24.03-.03.06-.03.1-.01a.03.03 0 0 1 0 .04.26.26 0 0 0 0 .1Z" fill="#B6753D"/><path d="m6.78 6.35-.39.37c-.13.14-.42.27-.62.38a.42.42 0 0 0-.22.23.05.05 0 0 1-.02.03.05.05 0 0 1-.04 0 .78.78 0 0 1-.24-.16c-.05-.05-.1-.07-.15-.03a.04.04 0 0 0-.02.05l.06.26a.02.02 0 0 1-.03.03l-.17-.03a.04.04 0 0 0-.04.04v.28l-.03.01c-.13.04-.26.1-.4.17-.02.01-.02.04-.01.07-.05-.05-.07-.1-.06-.15l.16-.05a.02.02 0 0 0 .01 0 .02.02 0 0 0 0-.02.25.25 0 0 1-.07-.12v-.1c0-.08-.12-.15-.2-.16a.04.04 0 0 1-.03-.06l.02-.14.26-.55.12.46c0 .01 0 .03.02.04h.04c.08-.03.1-.02.07.06v.06c.01.03.02.04.04.05.02 0 .03 0 .04-.02.06-.13.15-.27.28-.42a.06.06 0 0 1 .04-.02c.08 0 .14 0 .2-.02.2-.1.31-.15.34-.18.13-.16.29-.27.48-.35h.56Z" fill="#91917F"/><path d="M13.8 7.58a.53.53 0 0 0-.41.13.04.04 0 0 1-.07-.02l-.19-.52.09-.57a.4.4 0 0 1 .05-.2c.23.36.4.76.53 1.18Z" fill="#A7A795"/><path d="M10.91 6.42c0 .1.05.2.11.25l.16.1c.02.01.02.02.02.04l.02.2c-.15.06-.2.15-.17.27-.02.14-.06.28-.13.4l-.33-.3a.08.08 0 0 1-.02-.03 1.43 1.43 0 0 1-.01-.58c.08-.12.2-.24.35-.35Z" fill="#B6753D"/><path d="m13.22 6.6-.09.57a5.5 5.5 0 0 0-.15 1.5c0 .02-.02.04-.03.05a.65.65 0 0 0-.16.39l.01.01a.04.04 0 0 0 .03.02h.22a.05.05 0 0 1 .05.04v.02a.2.2 0 0 0 0 .14l-.1.23c-.04.07-.03.17.03.28-.06.12-.09.25-.1.4 0 0 0 .02-.02.02h-.01c-.02 0-.03 0-.04-.02a1.47 1.47 0 0 0-.1-.3c-.03-.05-.02-.13 0-.18.05-.14.1-.28.11-.43 0-.02 0-.03-.02-.03-.03 0-.04.01-.06.03a.36.36 0 0 0-.03.04l-.01.04-.09.45c-.05.17-.1.43-.02.63.06.12.08.29.07.48-.01.3-.05.52-.28.66-.07.04-.06.06 0 .08.24.07.4.2.49.4l-.57.6a.14.14 0 0 1-.06-.07c-.1-.21-.13-.48-.17-.71-.01-.07-.05-.1-.07-.17a3.5 3.5 0 0 0-.13-.49l.34.04h.02a.03.03 0 0 0 .01-.03h-.02a.39.39 0 0 0 .05-.18c.06-.49.16-1.07.32-1.73.06-.23.1-.6.14-1.14l.13-.43.08-.61.13-.62.01-.03a.05.05 0 0 1 .06-.01l.02.02.01.04Z" fill="#FBFBC9"/><path d="m8.78 6.76-.04.12v.05l.04.06c.01.1 0 .15-.02.18-.02-.12-.09-.2-.22-.23a3.6 3.6 0 0 0-.31-.08c-.08-.01-.12-.04-.13-.1-.02-.08-.05-.1-.1-.02a.45.45 0 0 0-.08.15c-.05.17-.06.34-.03.52 0 .02 0 .03.03.03l.1.02a.07.07 0 0 1 .07.07c.01.2 0 .4-.05.6l-.19-.01c-.07-.03-.14-.01-.22.04a.02.02 0 0 0 0 .03l.07.02c-.1 0-.13.05-.11.12a1.66 1.66 0 0 1 .05.21l.02.01.08.01c.04 0 .05.03.04.07l-.6.18a.08.08 0 0 1-.1-.1l.13-.36a.04.04 0 0 0-.02-.05h-.02c-.04 0-.08.02-.1.06-.07.13-.14.25-.22.34a.63.63 0 0 0-.1.25c-.04-.02-.06-.05-.06-.08A.9.9 0 0 1 7 8.12a.03.03 0 0 0 0-.02v-.01h-.03c.14-.1.3-.18.5-.25a.52.52 0 0 0 .31-.33c.05-.13-.07-.4-.01-.56.04-.15.1-.24.2-.3.26-.14.53-.1.8.1Z" fill="#596468"/><path d="M8.4 6.81c.1.03.19.02.2-.02 0-.03-.07-.08-.17-.1-.1-.03-.18-.03-.2 0 0 .05.07.1.17.12Z" fill="#DCD6B9"/><path d="M8.91 7.32c-.01-.04-.06-.06-.13-.06a.75.75 0 0 0 0-.27.22.22 0 0 1-.04-.06v-.05l.04-.12c.15.15.2.33.13.56Z" fill="#C1BAA4"/><path d="M10.56 6.77c-.04.2-.03.4.01.58l.02.04.33.29-.24.38c-.09.14-.1.29-.2.4l-.04.02a.77.77 0 0 0-.35.2c0-.3.05-.56.14-.8.06-.17.05-.32.07-.45 0-.02 0-.03.02-.03l.08-.03v-.03l-.2-.2a.04.04 0 0 0-.05 0l-.1.04h-.01L10 7.17c-.02 0-.02-.01-.01-.02l.18-.21a.06.06 0 0 1 .04-.02l.24-.02a.36.36 0 0 0 .1-.13Z" fill="#94AE81"/><path d="M11.45 6.9c.02.03.04.03.06.01l-.02.22a.5.5 0 0 0-.22.08c-.08-.02-.15 0-.22.07-.03-.12.02-.2.17-.28.1-.01.17-.04.23-.1ZM8.78 7.26h-.07a.03.03 0 0 0 0 .06c.05.05.1.07.17.05-.02.08 0 .15.05.22a1.7 1.7 0 0 1-.44-.3.04.04 0 0 1 .03-.05l.24-.07c.02-.03.03-.09.02-.18.02.08.02.17 0 .27Z" fill="#6E746D"/><path d="m11.5 7.13.1.04c.02 0 .03.01.03.02v.03l-.07.3-.03.03a.72.72 0 0 1-.23.08c-.06.02-.07 0-.03-.04l.06-.07v-.04l-.06-.27a.5.5 0 0 1 .22-.08Z" fill="#488EDC"/><path d="M6.35 7.21a.27.27 0 0 1-.2.08c.05-.16.11-.19.2-.08Z" fill="#6B5632"/><path d="m12.07 7.14.24.21h.04a.7.7 0 0 1 .43-.2c-.03.24.01.46.13.66l-.13.43c-.1.07-.15.15-.15.22 0 .12-.02.24-.03.35 0 .07-.04.1-.1.13a.06.06 0 0 0-.03.03l-.01.02-.02-.01h-.02l-.18.03a.02.02 0 0 1-.02-.03l.11-.26a.04.04 0 0 0 0-.03c-.03-.05-.08-.07-.16-.06l-.04-.6c0-.1-.05-.2-.05-.27a5.3 5.3 0 0 1-.01-.62Z" fill="#658145"/><path d="M13.8 7.58a4.4 4.4 0 0 1 .15 2.04l-.16.05a.1.1 0 0 0-.06.07l-.04.24c0-.03-.01-.03-.05 0a.03.03 0 0 1-.04 0 .03.03 0 0 1-.01-.04c.03-.17.03-.32.02-.46-.02-.13-.1-.16-.22-.12l-.1.04a3.93 3.93 0 0 1 .2-.87.04.04 0 0 1 .03 0c.02 0 .02.02.02.03v.03c-.03.23-.06.45-.13.67 0 .02 0 .03.03.02.02 0 .03-.01.05-.03a294.72 294.72 0 0 1 .26-1.03.06.06 0 0 0-.06-.04h-.04c-.08-.04-.13-.02-.13.08a.28.28 0 0 0-.13.07 8.26 8.26 0 0 0-.15.77.35.35 0 0 1-.14.24.2.2 0 0 1 0-.14.05.05 0 0 0-.03-.06h-.24a.04.04 0 0 1-.03-.02.04.04 0 0 1-.01-.03.65.65 0 0 1 .16-.37.12.12 0 0 0 .04-.1 5.5 5.5 0 0 1 .14-1.45l.19.52a.04.04 0 0 0 .03.02.04.04 0 0 0 .04 0c.1-.1.24-.14.41-.13Z" fill="#DCD6B9"/><path d="M11.8 7.42a.06.06 0 0 1-.06.03h-.02c-.02-.01-.03-.03-.01-.05a.61.61 0 0 1 .19-.16h.06v.03a.6.6 0 0 0-.16.15Z" fill="#658145"/><path d="M4.3 7.25c0 .05-.02.1-.03.14a.04.04 0 0 0 .03.06c.08.01.2.08.2.17v.09c.01.04.03.08.07.12a.02.02 0 0 1-.01.02l-.16.05c-.05 0-.08.03-.08.08s.04.15.1.29c.03.04.03.09.02.14-.04.2-.05.4-.02.58a.5.5 0 0 1 0 .22l-.16.32c-.04.06-.18.2-.18.36v.07a.22.22 0 0 1-.04-.09c-.04-.6-.05-1-.03-1.22.03-.27.08-.55.13-.82.04-.2.09-.4.15-.58ZM8.78 7.26c.07 0 .12.02.13.06-.01 0-.03.03-.03.05-.06.02-.12 0-.18-.05a.03.03 0 0 1 .01-.05l.07-.01Z" fill="#2F3431"/><path d="M6.01 7.44c-.03.08-.06.12-.15.13-.26.05-.41.21-.59.32-.24.14-.47.25-.6.37a.06.06 0 0 0-.02.04c-.01.14-.04.27-.09.39-.06.17-.03.23.1.33a.02.02 0 0 0 .02 0A.02.02 0 0 0 4.69 9c.02-.06.07-.08.15-.05.02.01.07.05.13.13v.04l-.02.22a.05.05 0 0 1-.03.04c-.1.05-.14.13-.13.25 0 .1 0 .17-.03.2-.02.03-.01.05.02.05h.04c.02 0 .04-.02.05-.04l.1-.15.02.38a.06.06 0 0 0 .1.05l.29-.2c.06.02.09.04.1.07l-.1.12a.06.06 0 0 1-.03.02c-.12.02-.23-.03-.25.13-.02.1-.07.19-.17.18a.05.05 0 0 1-.04-.02l-.06-.1a.04.04 0 0 0-.03-.02.04.04 0 0 0-.03.02.3.3 0 0 0-.04.18c0 .02.02.03.03.04l.18.09h-.2a.05.05 0 0 0-.03.03.05.05 0 0 0 0 .06c.1.09.17.05.25.22l.01.01.02.01.2.03a.04.04 0 0 1 .03.02.04.04 0 0 1 0 .03l-.22.52a.04.04 0 0 0 .05.06.2.2 0 0 0 .09-.06c-.06.12-.14.17-.05.33l.01.03v.04a.11.11 0 0 0-.03.05v.04l.1.17c-.12-.1-.21-.24-.29-.4l-.04-.81c0-.02 0-.04-.02-.06l-.28-.3a.06.06 0 0 1 0-.06c.07-.16.14-.3.18-.45.03-.09 0-.13-.03-.2a.04.04 0 0 0-.03-.03l-.21-.03a.05.05 0 0 1-.03-.1l.45-.41a.04.04 0 0 0-.01-.06l-.12-.03a.04.04 0 0 0-.05.02.5.5 0 0 1-.18.27c-.13.1-.23.2-.32.3-.04.04-.08.05-.11.02 0-.16.14-.3.18-.36l.16-.32a.5.5 0 0 0 0-.22c-.03-.19-.02-.38.02-.58a.2.2 0 0 0-.01-.14.87.87 0 0 1-.1-.3c-.01-.04.02-.07.07-.07 0 .05.01.1.06.15a4.17 4.17 0 0 0 .8-.35c.07-.06.11-.06.19-.1.11-.05.2-.16.28-.19.19-.08.28-.07.28.03Z" fill="#596468"/><path d="M10.99 8.32a.23.23 0 0 0-.07.09.13.13 0 0 0-.06.04c0-.02-.01-.03-.03-.03-.04 0-.1.03-.16.06 0-.02 0-.04-.02-.05a.04.04 0 0 1 0-.04l.27-.4c.09-.15.12-.26.18-.4l.02-.02h.04v.02c-.06.17-.1.34-.1.52l-.01.04a.35.35 0 0 0-.06.17Z" fill="#658145"/><path d="M11.97 8.6a.17.17 0 0 1-.11-.02.05.05 0 0 1-.03-.03.34.34 0 0 0-.12-.21.2.2 0 0 1-.07-.1v-.05c.07-.13.1-.27.1-.4a.1.1 0 0 1 .05-.07l.02-.01c.02-.02.04-.01.04.02.02.2.03.56.12.81v.05Z" fill="#B6753D"/><path d="M6.12 8.07c-.05-.01-.07-.03-.08-.05v-.09a.04.04 0 0 1 .06-.01c.1.09.1.13.02.15Z" fill="#91917F"/><path d="M6.98 8.09h.03a.03.03 0 0 1 0 .02.03.03 0 0 1 0 .02.9.9 0 0 0-.32.74c0 .03.02.06.06.08l-.05.34-.43.26c-.01 0-.02 0-.02.02v.32a9 9 0 0 0-.12.76c0 .02.02.03.03.04l.22.17c.04.03.04.06.01.09-.08.1-.2.12-.33.13-.08 0-.09.02 0 .05.13.03.23-.13.38-.02l.01.01a.02.02 0 0 1 0 .03h-.02a.62.62 0 0 0-.24.11.1.1 0 0 1-.1.01l-.2-.1-.03-.04c-.02-.24.02-.49 0-.71-.01-.14-.06-.45-.06-.7v-.21l.18-.32A.07.07 0 0 0 6 9.16l.35-.43.22-.18a.38.38 0 0 0 .1-.15c.06-.16.13-.28.31-.31Z" fill="#2A211E"/><path d="m13.29 9.4-.04.3-.25-.13.1-.23a.35.35 0 0 0 .13-.23 8.3 8.3 0 0 1 .16-.78.28.28 0 0 1 .13-.07c.07 0 .1-.03.13-.07h.04a.06.06 0 0 1 .05 0 .06.06 0 0 1 0 .06l-.19.85a.43.43 0 0 1-.06.15c-.02.02-.03.03-.05.03-.02 0-.03 0-.03-.02a3.58 3.58 0 0 0 .13-.7c0-.01 0-.03-.02-.03a.04.04 0 0 0-.03 0 .04.04 0 0 0-.02.02c-.1.28-.15.56-.18.85Z" fill="#FBFEDF"/><path d="m7.98 8.22.04.07c0 .02-.01.03-.04.03l-.08-.01c-.02 0-.03 0-.03.02l-.01.08a.04.04 0 0 0 .03.04l.38.06c.13.04.24.12.32.23.06.08.08.16.06.24v.04l.46.5a.07.07 0 0 0 .07.02h.11c.02 0 .03 0 .03.02.02.05.05.06.09.03l.55-.3c-.1.15-.1.21-.02.18l-.04.07c-.2.19-.34.31-.43.37-.16.1-.3.04-.46-.06a5.07 5.07 0 0 1-.66-.46.04.04 0 0 0-.03.02.27.27 0 0 1-.08.1c-.31.3-.33.76-.18 1.15l.02.02h.04c.02 0 .04.02.06.04a.34.34 0 0 1-.21.03c.02-.09-.03-.1-.14-.07a.27.27 0 0 0-.1.07l-.29.3c-.04.04-.05.03-.05-.02 0-.13.05-.26.13-.39.06-.1.17-.19.24-.29a.13.13 0 0 0-.02-.18l-.16-.11c-.02-.02-.02-.03-.01-.05l.06-.1a.06.06 0 0 0-.02-.09l-.1-.06c-.02-.01-.02-.03-.01-.04l.16-.17c.12-.12.27-.14.45-.18a.98.98 0 0 0 .27-.12c.02 0 .02-.02.03-.04v-.04c0-.02.02-.03.03-.03h.08c.05 0 .06-.02.02-.06a1.11 1.11 0 0 1-.29-.34l-.01-.01H8.2v.03c-.03-.02-.06-.04-.08-.03a.04.04 0 0 0-.04.03v.02c0 .02.01.03.03.04-.05 0-.08 0-.1-.03A.03.03 0 0 1 8 8.75l.02-.04a.02.02 0 0 0 0-.02.02.02 0 0 0-.02-.02l-.22-.04c.01-.04 0-.06-.04-.07h-.08a.04.04 0 0 1-.03-.04 1.67 1.67 0 0 0-.04-.19c-.02-.07.01-.11.11-.12.07.02.13.02.19 0h.09Z" fill="#4E4337"/><path d="M8.07 8.22c0 .05.05.1.12.15.02.01.02.02.02.04 0 .03.02.07.06.1l-.38-.06a.04.04 0 0 1-.03-.04l.01-.08c0-.02.01-.02.03-.02l.08.01c.03 0 .04 0 .04-.03l-.04-.07h.09Z" fill="#596468"/><path d="m8.79 8.91-.2-.17a.62.62 0 0 0-.32-.23c-.04-.03-.06-.07-.06-.1 0-.02 0-.03-.02-.04-.07-.05-.11-.1-.12-.15.2-.02.35.04.45.16.11.13.2.3.27.53Z" fill="#A7A795"/><path d="M12.78 8.24c-.04.54-.08.91-.14 1.14a15.2 15.2 0 0 0-.32 1.73.39.39 0 0 1-.05.17c-.03-.02-.04-.05-.08-.06a2.05 2.05 0 0 0-.22-.05l-.96-.18a.3.3 0 0 0 .03-.27l.06-.06a.04.04 0 0 0 .02-.03l-.02-.14c0-.02 0-.03.02-.03l.43-.2c.06-.04.1-.04.13.02.02.03.03.11.05.25l.03.02c.09 0 .08-.12.1-.18.04-.07.06-.06.06.01l.03.22c0 .01 0 .02.02.03h.01c.03.01.04 0 .04-.02v-.38c.01-.19.1-.33.18-.5.06-.13.14-.27.22-.4.05-.09.06-.2.04-.34v-.02c.01-.01.02-.03.04-.03.06-.03.1-.06.1-.13l.03-.35c0-.07.05-.15.15-.22Z" fill="#A1AEB7"/><path d="M10.92 8.4a.23.23 0 0 1 .07-.08l.13-.06a.03.03 0 0 1 .03 0 .03.03 0 0 1 .01.02l.01.06v.01l.09.08v.02a.3.3 0 0 1-.34-.04Z" fill="#FCFEED"/><path d="m7.78 8.63.22.04a.03.03 0 0 1 .02.02.02.02 0 0 1 0 .02L8 8.75v.04c.03.02.06.03.11.03l.07-.01c.02-.01.02-.03.01-.05l.01-.03h.05l.01.02c.07.12.16.23.28.33.04.04.03.06-.02.06h-.08l-.03.03v.04c0 .02-.01.03-.03.04-.1.06-.2.1-.27.12-.18.04-.33.06-.45.18l-.16.17v.04l.11.06a.06.06 0 0 1 .02.09l-.06.1v.05l.17.11a.13.13 0 0 1 .02.18c-.07.1-.18.2-.24.3a.87.87 0 0 0-.13.38c0 .05.01.06.05.02l.29-.3a.27.27 0 0 1 .1-.07c.11-.04.16-.02.13.07a.43.43 0 0 0-.2.1v.03c.05.01.1 0 .14-.02.08.07.13.14.15.2-.02.05-.07.08-.15.1-.1-.02-.16-.06-.17-.14 0-.03-.01-.04-.03-.04h-.04a.04.04 0 0 0-.02.04c0 .1.07.17.18.23.06.04.12.07.18.07.12 0 .22-.1.31-.16l.15.12c.07.06.16.1.26.12l.76.13c.09.01.17.04.24.07.06.03.1.11.17.12.16.02.26-.02.31-.12.05.06.1.12.16.16v.07a.04.04 0 0 1-.04.02l-.02-.01c-.07-.07-.14-.08-.21-.02-.04.03-.07.08-.08.15l-.1.48.01.32c.01.09.02.2.01.31 0 .27-.02.55-.05.83l-.44.03c.02-.08.01-.1 0-.07a.4.4 0 0 0 .04-.23l.05-.32c.04-.29.05-.56.07-.84 0-.07.02-.15.06-.25l.08-.24c0-.01 0-.02-.02-.03l.02-.02c.01-.01 0-.02-.01-.03a.64.64 0 0 0-.26-.02l-.56-.03-.42-.02-.32.02a1.8 1.8 0 0 1-.45-.06 1.27 1.27 0 0 0-.28 0L7 11.71a1.11 1.11 0 0 1-.13-.36c-.03-.25.09-.55.1-.78.01-.28-.02-.57-.08-.9a.42.42 0 0 0-.16-.26l-.04-.13.06-.34c.03-.12.06-.2.1-.25.08-.1.15-.2.22-.34.02-.04.06-.07.1-.06a.04.04 0 0 1 .04.01.04.04 0 0 1 0 .04l-.12.36a.08.08 0 0 0 .1.1l.6-.18Z" fill="#1D171D"/><path d="M6.35 8.73 6 9.16c.07-.12.15-.16.13-.31l-.06-.48c0-.03 0-.04.04-.04h.04l.02.03.06.24c.03.08.07.12.12.13Z" fill="#ECDB95"/><path d="M11.97 8.6v.04c-.14-.02-.24.03-.32.16v.04c.05.1.17.26.15.33l-.06.45c-.01.04-.03.05-.06.03l-.3-.18.12-.43c.04-.14-.1-.19-.05-.36l.02-.03.14-.08.03-.03.07-.2c.06.04.1.11.12.21a.05.05 0 0 0 .03.03c.03.02.06.02.1.01Z" fill="#805212"/><path d="M7.58 8.44c-.02.13-.11.15-.25.24-.06.05-.09.03-.07-.05.02-.09.12-.3.26-.27.05 0 .07.03.06.08Z" fill="#AF976E"/><path d="m10.86 8.45.01.04c0 .02 0 .03-.02.03a.8.8 0 0 1-.27.05c-.02 0-.03-.01-.01-.03a.2.2 0 0 1 .1-.06.49.49 0 0 1 .16-.06c.02 0 .03.01.03.03Z" fill="#FCFEED"/><path d="M5.97 8.9c-.13.03-.17.11-.12.25.02.05.07.07.13.04l-.18.32a.71.71 0 0 0-.21.31v.05l.02.02c.06.01.06.02 0 .05l-.13.05c-.01-.03-.04-.05-.1-.06a.29.29 0 0 0 .07-.2l-.01-.03-.02-.01-.23-.03a.06.06 0 0 1-.05-.1l.23-.54.04-.03.23-.1a.06.06 0 0 0 .03-.08c-.02-.05-.06-.1-.06-.15 0-.2.2-.27.32-.12l.01.04.03.32ZM10.44 8.65l.03.01c.02 0 .03.02.02.04-.06.07-.14.07-.24 0-.03-.02-.03-.04 0-.07a.28.28 0 0 1 .1-.05c.02 0 .03 0 .04.02l.02.03.03.02Z" fill="#91917F"/><path d="M10.69 9.35c-.07 0-.1.02-.13.08-.1.3-.26.55-.5.76-.05.04-.07.03-.06-.04a.3.3 0 0 1 .04-.1.04.04 0 0 0 0-.05c-.02-.02-.04-.03-.07-.02a.54.54 0 0 1-.12.02l.04-.34c.06-.08.06-.12 0-.12l.05-.07.42-.39c.1-.1.1-.2.2-.28a.04.04 0 0 0 .02-.04l-.01-.09v-.01a.03.03 0 0 1 0-.02h.02l.3-.06a.03.03 0 0 1 .03.01v.04l-.04.03a.04.04 0 0 0-.01.03c0 .1-.01.2-.07.31-.05.1-.06.24-.11.35Z" fill="#76B583"/><path d="m11.96 8.64.04.17a.1.1 0 0 1 0 .04c-.02.1-.04.14.04.22a.06.06 0 0 0 .09-.02.78.78 0 0 0 .04-.42c.08 0 .13.01.16.06a.04.04 0 0 1 0 .03l-.11.26a.02.02 0 0 0 0 .02l.01.01h.01l.18-.03h.04c.02.15 0 .26-.04.35-.08.13-.16.27-.22.4l-.03-.14a.04.04 0 0 0-.03-.04.04.04 0 0 0-.05.02.72.72 0 0 1-.43.34l-.36-.27.07-.17.3.18c.04.02.06 0 .07-.03 0-.1.03-.24.06-.45.02-.07-.1-.24-.15-.33V8.8c.08-.13.18-.18.31-.16Z" fill="#527775"/><path d="M8.2 8.76c0 .02 0 .04-.02.05a.08.08 0 0 1-.07 0 .05.05 0 0 1-.02-.07.04.04 0 0 1 .03-.01c.02 0 .05 0 .07.03Z" fill="#8F7A55"/><path d="m8.79 8.91.26.27c.02.01.03.02.05 0l.96-.44-.03.23c0 .02 0 .03.03.04.04 0 .08.03.1.06l.01.02a.05.05 0 0 1 0 .04l-.02.01-.19.14-.55.31c-.04.03-.07.02-.09-.03a.04.04 0 0 0-.03-.03h-.11a.07.07 0 0 1-.07-.02l-.46-.49a.04.04 0 0 1 0-.04c.02-.08 0-.16-.06-.24l.2.17Z" fill="#91917F"/><path d="M9.18 9.37 9.1 9.3c-.02-.02-.01-.04.02-.05l.85-.36c.02 0 .03 0 .02.02v.04a.1.1 0 0 1-.05.06l-.67.39a.08.08 0 0 1-.1-.02Z" fill="#FCFEED"/><path d="M10.9 10.16c-.1.11-.13.27-.06.47l-.16-.08h-.04a.29.29 0 0 1-.28.03c.06-.08.07-.16.03-.24a.03.03 0 0 0-.04-.01.15.15 0 0 0-.05.03.05.05 0 0 0-.01.04c0 .04 0 .06-.03.09-.04-.03-.07-.03-.1 0a.59.59 0 0 1-.18.12l.02-.32v-.02l-.03-.01-.13-.02a.04.04 0 0 1-.03-.07.3.3 0 0 0 .04-.17l.12-.02c.03 0 .05 0 .07.02a.04.04 0 0 1 0 .05.3.3 0 0 0-.04.1c-.01.07.01.08.07.04.23-.2.4-.46.5-.76.01-.06.05-.08.12-.08l-.17.55c-.02.1 0 .2-.08.3a.05.05 0 0 0-.01.05c0 .05.03.07.08.09.02 0 .03 0 .03-.02a54.08 54.08 0 0 0 .61-1.27l.01.01-.01.19c-.06.13-.05.24-.12.39-.07.16-.12.33-.13.52Z" fill="#D3AD23"/><path d="M6.55 9.26c0 .02-.02.04-.08.06-.03 0-.05 0-.05-.03-.01-.02 0-.04.03-.05.06-.01.1 0 .1.02Z" fill="#B6753D"/><path d="M4.88 11.82c-.2-.22-.31-.53-.43-.77-.17-.35-.26-.72-.38-1.1V9.9c.04.03.08.02.12-.03.09-.1.2-.2.32-.3a.5.5 0 0 0 .18-.26.04.04 0 0 1 .05-.02l.12.03a.04.04 0 0 1 .01.06l-.45.42a.05.05 0 0 0 .03.09l.2.03.04.02c.02.08.06.12.03.21a2.54 2.54 0 0 1-.2.48l.02.03.28.3c.02.02.02.04.02.06l.04.81Z" fill="#3B3940"/><path d="m6.7 9.29.03.13c.02.17.05.33.09.49l.01.44c0 .06-.02.2-.07.4s-.06.4-.04.58c0 .07.04.14.11.2 0 .04-.01.05-.02.06a.68.68 0 0 1-.26.07.1.1 0 0 0-.06-.01.03.03 0 0 0-.03.03c.02.14.03.14.15.23v.01l-.01.02v.01l-.18 1.18c0 .02-.01.02-.03.02h-.17L6 12.99c-.01-.01-.02-.02-.01-.03-.06-.04-.07-.08-.03-.11l.21-.01c.08 0 .14-.03.18-.07.06-.07.06-.17-.02-.29a.17.17 0 0 0-.07-.08 6.2 6.2 0 0 1-.17-.09c-.04-.02-.04-.04.01-.05a1.17 1.17 0 0 1 .22-.01v-.03l-.35-.03c-.14-.01-.15-.04-.01-.08l.15-.02c.05 0 .07-.02.08-.07 0-.1-.02-.17-.08-.21-.06-.02-.1-.05-.13-.09a1.19 1.19 0 0 1-.1-.52c0-.02 0-.02.02-.02l.2.1a.1.1 0 0 0 .1-.02.62.62 0 0 1 .24-.1.02.02 0 0 0 .01-.05c-.15-.11-.25.05-.38.02-.09-.03-.08-.04 0-.05.12-.01.25-.03.33-.13.03-.03.03-.06 0-.09l-.23-.17a.09.09 0 0 1-.03-.08 9 9 0 0 1 .11-.71c.02-.1.02-.21 0-.31l.01-.02c0-.01 0-.02.02-.02l.42-.26Z" fill="#FBFBC9"/><path d="m13.03 9.85.17.28c-.08.14-.19.26-.32.36-.03.02-.03.04 0 .06l.02.02c.03.04.06.04.1 0l.15-.13a.03.03 0 0 1 .04 0l.09.21a.07.07 0 0 1-.02.08l-.34.31a.1.1 0 0 0-.03.07v.4c0 .01 0 .02.03.02h.17a.08.08 0 0 0 .08-.06 1.07 1.07 0 0 1 .42-.62.03.03 0 0 1 .02.01l.01.01v.04l-.08.13c-.01-.03-.04-.03-.06 0a.43.43 0 0 0-.14.4c-.12.25-.26.48-.42.68a.69.69 0 0 0-.48-.4c-.07-.02-.08-.04-.01-.08.23-.14.27-.36.28-.66.01-.2-.01-.36-.07-.48-.08-.2-.03-.46.02-.63a4.3 4.3 0 0 0 .1-.49l.03-.04c.02-.02.03-.03.06-.03.02 0 .02.01.02.03-.02.15-.06.3-.1.43-.03.05-.04.13-.01.18.05.12.09.21.1.3 0 .02.02.02.04.02h.01c.02 0 .02-.01.03-.03 0-.14.03-.27.09-.4Z" fill="#D9CC9F"/><path d="M13.69 9.98a.8.8 0 0 1-.1.21c0 .02-.02.03-.04.03s-.02-.01-.02-.03c0-.05-.01-.07-.04-.08-.04-.2-.13-.34-.24-.42l.04-.29.1-.04c.12-.04.2 0 .22.12a1.63 1.63 0 0 1-.02.48.03.03 0 0 0 .03.02h.02c.04-.03.05-.03.05 0Z" fill="#C1B38A"/><path d="M9.9 9.54c.05 0 .05.04-.01.12a.55.55 0 0 0-.11.18c-.07.23-.13.47-.16.72l-.08.27v.03h.02c.09.07.2.1.31.11a.32.32 0 0 0-.05.17.03.03 0 0 1-.02.02.03.03 0 0 1-.02 0 5.37 5.37 0 0 0-1.31-.42c-.1-.02-.2-.02-.29-.02a.12.12 0 0 0-.06-.04l-.01-.02v-.74c.01-.15.07-.27.13-.41a.27.27 0 0 0 .08-.1.04.04 0 0 1 .05-.02h.02c.17.16.38.3.62.46.16.1.3.16.46.06.1-.06.23-.18.43-.37Z" fill="#FCFEED"/><path d="M5.8 9.5v.22c0 .25.05.56.06.7.02.22-.02.47 0 .7 0 .02 0 .04.03.06-.02 0-.03 0-.03.02 0 .2.04.37.11.52.02.04.07.07.13.09-.01.03-.03.04-.04.04a1.2 1.2 0 0 1-.5-.05.04.04 0 0 0-.03.04l.04.23c0 .02 0 .03-.02.04l-.09.01a.03.03 0 0 0-.02.02l-.1.17a.62.62 0 0 0-.06-.32c-.03-.06-.1-.1-.2-.1-.08-.16 0-.21.06-.33a5 5 0 0 0 .32-.4.43.43 0 0 0 .08-.21.12.12 0 0 0-.08-.13l-.52-.2-.18-.08a.05.05 0 0 1-.03-.04c0-.07 0-.13.04-.18v-.01l.03-.01a.04.04 0 0 1 .03.02l.06.1a.05.05 0 0 0 .04.02c.1.01.15-.07.17-.18.02-.15.13-.11.25-.13.01 0 .02 0 .03-.02l.1-.12.13-.05c.06-.03.06-.04 0-.05l-.02-.02v-.05a.71.71 0 0 1 .2-.31Z" fill="#C1B38A"/><path d="M8.24 9.5c-.06.15-.12.27-.13.42a8.32 8.32 0 0 0-.03.76l-.02-.02c-.15-.4-.13-.85.18-1.15Z" fill="#D3AD23"/><path d="M12.2 9.74c-.09.16-.17.3-.17.49l-.01.38c0 .02-.01.03-.04.02h-.01a.04.04 0 0 1-.02-.03l-.03-.22c0-.07-.02-.08-.05 0-.03.05-.02.17-.1.17-.02 0-.03 0-.04-.02a1.31 1.31 0 0 0-.05-.25c-.02-.06-.07-.07-.13-.03l.1-.34a.72.72 0 0 0 .44-.34.04.04 0 0 1 .05-.02.04.04 0 0 1 .03.04l.03.15Z" fill="#596468"/><path d="m13 9.57.25.12c.11.08.2.21.24.42a.4.4 0 0 1-.16.12l-.13-.1-.17-.28c-.06-.11-.07-.2-.03-.28Z" fill="#805212"/><path d="M9.23 9.7c.03 0 .06-.02.06-.04s-.03-.04-.07-.04c-.03 0-.05.02-.05.04s.03.04.06.04Z" fill="#AF976E"/><path d="M13.95 9.62c0 .15-.02.3-.07.43a.61.61 0 0 0-.2.33c-.02.05-.04.08-.06.09-.04.03-.08.02-.13-.03l-.16-.2a.4.4 0 0 0 .16-.13c.03 0 .04.03.04.08 0 .02 0 .03.02.03s.03 0 .05-.03a.8.8 0 0 0 .09-.21l.04-.24a.1.1 0 0 1 .06-.07l.16-.05Z" fill="#694E4B"/><path d="m11.3 9.64.36.27-.11.34-.43.2c-.02.01-.02.02-.02.04l.02.14c0 .01 0 .02-.02.03l-.06.06c-.02.01-.06 0-.1-.05-.02-.03-.05-.04-.1-.04-.07-.2-.05-.36.06-.47a.2.2 0 0 1-.01.13c-.01.01 0 .03.01.03h.05a.3.3 0 0 0 .13-.15l.22-.53Z" fill="#AA7A24"/><path d="m9.89 9.66-.04.34a.3.3 0 0 1-.04.17.04.04 0 0 0 .03.07l.13.02H10v.03l-.02.32-.18.24c-.1-.03-.18-.03-.24.02l-.01-.01-.01-.03.08-.27c.03-.25.09-.49.16-.72a.55.55 0 0 1 .1-.18Z" fill="#D9CC9F"/><path d="M9.34 9.84c.03 0 .06-.02.06-.04 0-.03-.03-.04-.07-.04-.03 0-.06.02-.06.05 0 .02.03.04.07.03Z" fill="#A7A795"/><path d="M13.88 10.05a7.95 7.95 0 0 1-.25.86v-.04l-.02-.01h-.03c-.21.16-.35.36-.41.61a.08.08 0 0 1-.08.06h-.17c-.02 0-.03 0-.03-.03v-.39a.1.1 0 0 1 .03-.07l.34-.3a.07.07 0 0 0 .02-.09l-.09-.2a.03.03 0 0 0-.03-.02h-.01l-.15.14c-.04.04-.07.04-.1 0l-.03-.02c-.02-.02-.02-.04 0-.06.14-.1.25-.22.33-.36l.13.1c.06.1.11.16.16.21.05.05.09.06.13.03.02-.01.04-.04.05-.09a.61.61 0 0 1 .2-.33Z" fill="#C1B38A"/><path d="m10.36 10.58-.3.25c-.03.02-.02.04.01.04l.87.09c.03 0 .06 0 .07.03l.96.18-.17.08h-.05c-.12-.03-.22-.06-.34-.07a15 15 0 0 1-1.08-.16 1 1 0 0 0-.23 0c-.05 0-.06.03-.04.07l.02.02a.1.1 0 0 0 .1.06c.12-.01.22 0 .3.05l.02.03-.01.04v.02l.02.01c.08.01.15 0 .22-.03a.04.04 0 0 1 .03 0 .04.04 0 0 1 .02.03v.06c0 .02.02.03.03.03l.14.03a.2.2 0 0 1-.08.01l-.53-.05c-.1-.03-.22-.07-.34-.15-.15-.08-.1-.14-.13-.28a.58.58 0 0 1-.3-.1c.05-.05.13-.05.23-.02.21 0 .36-.1.45-.29.02-.02.01-.05.01-.07.02-.03.03-.05.03-.09v-.02l.01-.02a.15.15 0 0 1 .05-.03h.02l.02.01c.04.08.03.16-.03.24Z" fill="#694E4B"/><path d="M10.26 10.49v.07a.49.49 0 0 1-.46.3l.18-.25a.59.59 0 0 0 .18-.12c.03-.03.06-.03.1 0Z" fill="#DCD6B9"/><path d="M10.84 10.63c.05 0 .08.01.1.04.02.1.02.2 0 .29l-.87-.09c-.03 0-.04-.02 0-.04l.29-.25c.1.04.2.03.28-.03h.04l.16.08Z" fill="#A1AEB7"/><path d="m4.94 10.63.52.19a.12.12 0 0 1 .08.13c0 .08-.03.15-.08.21a5 5 0 0 1-.41.46.04.04 0 0 1-.04-.02.04.04 0 0 1-.01-.04l.22-.52a.03.03 0 0 0 0-.04H5.2l-.2-.04h-.03l-.01-.02c-.08-.17-.15-.13-.24-.22a.05.05 0 0 1 .03-.09h.19Z" fill="#3B3940"/><path d="M9.87 10.97c.03.14-.02.2.13.28.12.08.23.12.34.15l.11.12-.03.04-.04-.01a.56.56 0 0 0-.28-.16l-.66-.24A2.9 2.9 0 0 1 9.1 11c-.11-.06-.3-.14-.44-.1l-.05.01-.19-.03-.53-.03a.15.15 0 0 1-.14.02v-.03a.43.43 0 0 1 .2-.1c.08.01.15 0 .22-.03.1 0 .2 0 .29.02a5.37 5.37 0 0 1 1.31.43h.01a.03.03 0 0 0 .03-.03c0-.05.01-.1.05-.17Z" fill="#C1BAA4"/><path d="M5.95 10.8c-.02.03-.02.06 0 .07.03.01.06 0 .07-.03.02-.04.02-.07 0-.08-.03-.01-.06 0-.07.04Z" fill="#91917F"/><path d="M8.43 10.89V10.98l.03.02.37.11c.05.02.05.03 0 .03l-.28.02v.02l.14.04c.13.04.3 0 .38.01.04.01.06.03.07.05 0 .01 0 .03.02.04l.05.02.39.05c.24.02.44.09.6.2-.05.11-.15.15-.31.13-.07 0-.11-.09-.17-.12a.86.86 0 0 0-.24-.07l-.76-.13a.53.53 0 0 1-.26-.12l-.14-.12-.27-.1a.46.46 0 0 0-.15-.2l.53.03Z" fill="#414746"/><path d="M10.1 11.4c.05.1.12.16.23.2a.04.04 0 0 0 .05-.02v-.03h.04c.07.16.08.29.02.4 0-.06-.02-.1-.03-.16 0-.02-.02-.03-.05-.03a.65.65 0 0 1-.16-.16 1.2 1.2 0 0 0-.6-.21 25.86 25.86 0 0 1-.44-.07.08.08 0 0 1-.02-.04c0-.02-.03-.04-.07-.04-.07-.02-.25.02-.38-.02a5.83 5.83 0 0 1-.14-.06l.28-.02c.05 0 .05-.01 0-.03l-.37-.1a.04.04 0 0 1-.03-.05v-.07l.2.03h.04c.13-.05.33.03.44.09.11.06.22.1.33.14l.66.24Z" fill="#6E746D"/><path d="M7.85 11.07c.03.01.07 0 .08-.02.02-.03 0-.07-.03-.08-.03-.02-.07-.01-.08.01-.02.03 0 .07.03.09Z" fill="#A2A364"/><path d="M7.9 11.16c0 .05-.04.08-.08.09-.11-.06-.17-.13-.18-.23a.04.04 0 0 1 .02-.04h.04c.02 0 .03.01.03.04 0 .08.06.12.17.14Z" fill="#596468"/><path d="m13.54 11.04-.2.4a.43.43 0 0 1 .14-.4c.02-.03.04-.03.06 0Z" fill="#A2A364"/><path d="M8.32 11.16c-.1.06-.2.17-.32.16a.31.31 0 0 1-.18-.07c.04 0 .07-.04.08-.1.08-.01.13-.04.15-.08l.27.1Z" fill="#3B3940"/><path d="M11.92 11.28c.06.17.1.33.13.49.02.07.06.1.07.17.04.23.07.5.17.71l.06.07-.34.29a.4.4 0 0 0-.02-.22 14.48 14.48 0 0 1-.13-.41c-.02-.11-.03-.28-.08-.4a.02.02 0 0 0-.03-.01 78.16 78.16 0 0 1-.18 1.27c0 .02.01.03.03.04l-.17.09c.03-.52.1-1.02.22-1.51.01-.05.05-.1.09-.11.07-.04.07-.07-.01-.08l-.47-.08v-.1c.16.04.33.12.5.1.02 0 .03-.02.03-.03.01-.16.05-.25.13-.28Z" fill="#AA7A24"/><path d="M10.1 11.4c.12.03.21.08.28.15v.03l-.02.01h-.03a.37.37 0 0 1-.23-.2Z" fill="#2A211E"/><path d="M10.87 11.45c-.01.04 0 .07.04.09.05.02.1.04.17.04-.02.02-.02.04-.02.06l-.6-.12-.12-.12.53.05Z" fill="#AA7A24"/><path d="m10.95 11.44.3.06v.09h-.17a.56.56 0 0 1-.17-.05c-.04-.02-.05-.05-.04-.09a.2.2 0 0 0 .08 0Z" fill="#91917F"/><path d="m10.45 11.52.61.12.27.07c.02 0 .03.01.02.03l-.08.54-.58.05h-.14l-.2-.05.1-.34c.05-.1.04-.23-.03-.38 0-.03.02-.04.03-.04Z" fill="#FBFEDF"/><path d="m7 11.72.44.07c-.3.06-.6.03-.87-.09l-.02-.04c.1 0 .18-.03.26-.07 0 0 .02-.02.02-.05l.03.02c.02.01.02.02 0 .04l-.03.01h-.01l-.01.02v.05l.2.04Z" fill="#B6753D"/><path d="m11.26 11.59.47.08c.08.01.08.04 0 .08a.17.17 0 0 0-.08.1c-.11.5-.19 1-.22 1.52l-.4.2.09-.2.05-.46.1-.63.08-.54c0-.02 0-.03-.02-.03l-.27-.07c0-.02 0-.04.02-.05h.18Z" fill="#805212"/><path d="m6.55 11.66.02.04c.27.12.56.15.87.1.14-.02.24-.01.28 0 .24.05.38.07.45.06l.32-.02a.37.37 0 0 1-.1.1c-.04.02-.07.08-.07.18-.11.05-.18.04-.2-.03l-.01-.08a.04.04 0 0 0-.05-.02h-.2c-.02 0-.03 0-.03.02a.35.35 0 0 0 .01.16l-.05.07a.48.48 0 0 1-.17-.06.04.04 0 0 1-.02-.04c0-.07-.03-.1-.08-.1a.27.27 0 0 0-.2 0c-.02 0-.02.01-.02.02a.63.63 0 0 1-.07.19.66.66 0 0 0-.15.38c-.01.42-.03.73-.05.95l-.2-.08c.04.01.06 0 .06-.03a216.85 216.85 0 0 0 .12-1.41c.02-.02-.01-.04-.1-.05-.05 0-.08.02-.08.08l-.08.6c-.03.13-.02.37-.1.55-.01.02 0 .03.02.02.02 0 .06-.02.1-.06l.03-.01h.02c.02 0 .03 0 .03.02a.26.26 0 0 1-.11.17.08.08 0 0 0-.03.03v.04H6.7l-.03-.01a6.5 6.5 0 0 0-.44-.3l.17.01c.02 0 .03 0 .03-.02l.17-1.18h.01l.01-.03c-.12-.1-.13-.1-.15-.24l.01-.02.02-.01a.1.1 0 0 1 .06.01Z" fill="#483017"/><path d="m10.44 11.94-.09.34c-.1.34-.2.68-.33 1.02a.55.55 0 0 0-.02.27l.03.03.41.18a1.8 1.8 0 0 1-.56.13 22.58 22.58 0 0 0 .04-1.14 1.17 1.17 0 0 1 0-.32l.09-.48c.01-.07.04-.12.08-.15.07-.06.14-.05.21.02a.04.04 0 0 0 .04 0 .04.04 0 0 0 .03-.03v-.05c.02 0 .04.01.04.03l.03.15Z" fill="#4E4337"/><path d="M6.1 11.8c.06.05.08.12.08.22 0 .05-.03.07-.08.07-.08 0-.13.02-.15.02-.14.04-.13.07.01.08l.34.03.01.01v.02l-.22.01c-.05.01-.05.03 0 .05l.16.1c.03.01.06.04.07.07-.15.03-.15.13-.1.24a.03.03 0 0 1-.02.04l-.26.03h-.02a.02.02 0 0 0 .01.05h.02c-.04.04-.03.08.03.12l-.03.01-.3-.28a1.62 1.62 0 0 1-.31-.38l.1-.17v-.01h.02l.09-.02c.02 0 .03-.02.02-.04l-.04-.23a.04.04 0 0 1 .05-.04c.16.05.32.07.48.05.01 0 .03-.01.04-.04Z" fill="#ECDB95"/><path d="M8.9 11.86c0 .29.05.56.16.81a3.45 3.45 0 0 0 .18.4v.03l-.38.68c-.03.07-.02.14.03.21h-.14l-.01-.06-.03-.15a70.97 70.97 0 0 1-.33-1.84.37.37 0 0 0 .11-.1l.42.02Z" fill="#FBFBC9"/><path d="M9.47 11.89v.08c0 .07.04.11.05.16.02.13.05.13.1.01l.1-.18c.02 0 .02.02.02.03l-.08.24a.88.88 0 0 0-.06.25c-.02.28-.03.55-.07.84a9.81 9.81 0 0 0-.05.2.05.05 0 0 0-.08-.01l-.12.26a.07.07 0 0 0 0 .07c.04.05.09.06.15.03.02-.03.03 0 .01.07-.16.05-.35.07-.55.05-.05-.07-.06-.14-.03-.21a19.04 19.04 0 0 1 .38-.71v-.03a3.45 3.45 0 0 1-.18-.37c-.11-.25-.16-.52-.15-.8l.56.02Z" fill="#6B5632"/><path d="M5.34 12.31c.06.12.17.25.31.38a1.97 1.97 0 0 1-.48-.47l-.1-.17a.05.05 0 0 1 0-.04l.02-.05a.03.03 0 0 0 .01-.04l-.01-.03c.1 0 .16.04.2.1.03.07.05.18.05.32Z" fill="#AF976E"/><path d="m9.72 11.96-.1.18c-.05.12-.08.12-.1-.01-.01-.05-.06-.1-.06-.16v-.08c.1-.01.19 0 .27.02.02 0 .02.02 0 .03v.02Z" fill="#FBFEDF"/><path d="m8.38 11.94.03.3a70.97 70.97 0 0 0 .33 1.69c-.05-.02-.08-.04-.1-.07-.03-.1-.07-.22-.1-.39-.01-.08-.06-.15-.08-.23a7.1 7.1 0 0 1-.12-.55c-.03-.19-.02-.37-.02-.57 0-.1.03-.16.06-.18Z" fill="#AA7A24"/><path d="m12.01 13-.41.28a.08.08 0 0 1-.03-.03v-.04c.03-.18.06-.37.07-.56l.04-.3a81.67 81.67 0 0 0 .07-.38h.02l.01.01c.05.12.06.29.08.4a14.28 14.28 0 0 0 .13.4.4.4 0 0 1 .02.23ZM8.12 12.1l.2 1.26c.01.05 0 .08-.06.08h-.31a.04.04 0 0 1-.02-.03l-.09-1.24a.35.35 0 0 1 0-.16c0-.01 0-.02.02-.02h.2c.02 0 .04 0 .05.02l.01.08ZM7 12.06a215.74 215.74 0 0 1-.11 1.42c0 .02-.02.03-.06.02l-.11-.05a.04.04 0 0 1-.01-.04l.03-.03c.05-.04.09-.1.1-.17 0-.01 0-.02-.02-.02H6.8l-.03.01a.25.25 0 0 1-.1.06c-.03 0-.03 0-.02-.02.08-.18.07-.42.1-.56l.08-.6c0-.05.03-.07.09-.07.08.01.1.03.09.05ZM7.52 12.04c.03.04.06.3.08.76 0 .01 0 .02-.02.02l-.31.03h-.01l.06-.8a.27.27 0 0 1 .2 0Z" fill="#FBFBC9"/><path d="m7.32 12.05-.06.8.32-.03c.01 0 .02 0 .02-.02a2.8 2.8 0 0 0-.08-.76c.05 0 .08.03.08.1 0 .02 0 .03.02.04.04.03.1.05.17.06a3.2 3.2 0 0 0 0 1.22v.02h.03c.06.01.12 0 .18-.03l.26-.01c.05 0 .07-.03.06-.08l-.2-1.27c.02.07.09.08.2.03 0 .2-.01.38.02.57.03.19.08.37.12.55.02.08.07.15.08.23.03.17.07.3.1.39.02.03.05.05.1.07v.06l-.34-.03c.03-.13-.04-.22-.04-.36 0-.04-.02-.06-.05-.06l-.33.04a.07.07 0 0 0-.06.06c0 .05.02.14.06.26l-.35-.1-.03-.7v-.01a.03.03 0 0 0-.02-.02h-.01l-.29.03a.07.07 0 0 0-.06.06l-.02.51a.52.52 0 0 1-.17-.1c.02-.2.04-.52.05-.94 0-.12.05-.25.15-.38a.63.63 0 0 0 .07-.19l.01-.02h.01Z" fill="#805212"/><path d="M7 12.06c.02.1.01.2-.02.3a.52.52 0 0 1 .03-.3Z" fill="#AF976E"/><path d="M8 13.45a.33.33 0 0 1-.18.04H7.8l-.01-.03a3.2 3.2 0 0 1 0-1.22l.05-.07.09 1.24c0 .01 0 .02.02.03H8Z" fill="#AA7A24"/><path d="m11.27 12.28-.1.63a6.6 6.6 0 0 1-.5.1c-.14.03-.14.06 0 .1.1.03.22.05.38.04h.04l.01.04.02.18-.1.2-.58.21-.41-.18a.04.04 0 0 1-.03-.03c-.01-.1 0-.2.02-.27l.33-1.02.2.05c-.05 0-.08.03-.1.07a.02.02 0 0 0 0 .03h.01l.42.1a.03.03 0 0 0 .03 0 .03.03 0 0 0 .01-.03l-.01-.03a.1.1 0 0 0-.04-.04l-.18-.1.58-.05Z" fill="#FBFBC9"/><path d="m10.7 12.33.17.1a.1.1 0 0 1 .04.04v.03l.01.01v.02h-.04l-.42-.1a.02.02 0 0 1-.01-.03c.02-.04.05-.06.1-.07h.14Z" fill="#ECDB95"/><path d="M6.32 12.48c.08.12.08.22.02.3-.04.03-.1.06-.18.06H5.93l-.01-.01a.02.02 0 0 1 0-.03h.02l.26-.04a.03.03 0 0 0 .03-.01.03.03 0 0 0 0-.03c-.06-.11-.06-.21.1-.24Z" fill="#A7A795"/><path d="m11.17 12.9-.05.47-.02-.18-.01-.03a.05.05 0 0 0-.04-.01c-.16 0-.28 0-.39-.04-.13-.04-.13-.07 0-.1.18-.02.34-.06.51-.1ZM7.63 13.8l-.43-.13.02-.5a.07.07 0 0 1 .06-.07l.29-.03h.02a.03.03 0 0 1 0 .03l.04.7ZM10.26 13.28v.02l.3.05a.04.04 0 0 1 .04.05l-.02.02-.15.14a.13.13 0 0 1-.12.03.53.53 0 0 1-.17-.09.05.05 0 0 1-.02-.05l.04-.23a.03.03 0 0 1 .01-.02.19.19 0 0 1 .14-.02h.01l.01.02v.02l-.07.06Z" fill="#ECDB95"/><path d="M9.48 13.64a.4.4 0 0 1-.05.23c-.06.03-.11.02-.14-.03a.07.07 0 0 1 0-.07l.1-.26a.05.05 0 0 1 .05-.03.05.05 0 0 1 .04.03c.01.04.02.08 0 .13Z" fill="#D9CC9F"/><path d="m8.4 13.96-.42-.06a.68.68 0 0 1-.06-.26.07.07 0 0 1 .06-.06l.33-.04c.03 0 .05.02.05.06 0 .14.07.23.04.36Z" fill="#DCD6B9"/><defs><linearGradient id="a" x1="3.35" y1="3.12" x2="21.9" y2="24.43" gradientUnits="userSpaceOnUse"><stop stop-color="#1A1E21"/><stop offset="1" stop-color="#06060A"/></linearGradient></defs></svg>