<!-- by TradingView --><svg width="18" height="18" viewBox="0 0 18 18" xmlns="http://www.w3.org/2000/svg"><path fill="#040E33" d="M0 0h18v18H0z"/><path d="M12.19 4c.01.02.02.03.01.04a.11.11 0 0 1-.04.03.12.12 0 0 1-.05.01l-.97.01-5.99-.01c.02.5.02 1 .01 1.48 0 .3.06.57.2.82l-.02 1.2c-.01.32-.02.64 0 .95l-.03.21v.8c0 .2-.01.47-.04.78a212.66 212.66 0 0 1-.18 1.9c.03.59.07 1.14.03 1.76l-.02.01-.08-.01c.02-.2.03-.41.03-.62 0-.17 0-.37.02-.62.02-.34 0-.68-.04-1.02v-.45c.03 0 .05-.03.06-.08.08-.44.07-.92.1-1.37.07-.91.05-1.57.08-2.39.01-.48-.12-1.08-.15-1.5v-.01h-.03a.01.01 0 0 1-.02 0l-.05-.7v-1.2l.01-.01.02-.01h7.14Z" fill="#CE9534"/><path d="M12.98 6.16a.55.55 0 0 1-.31.38l-.01-.98.01-.04c.08-.32.1-.65.04-.98-.01-.1 0-.18.02-.27.01-.04 0-.06-.05-.06l-2 .03h-3.7c-.47 0-.9-.04-1.35-.03l-.01-.01v-.04h.01a177.69 177.69 0 0 1 5.56-.03c.01-.02.01-.03-.01-.03h-.04l.97-.02h.05l.04-.04L12.2 4h.77c.02 0 .03.01.03.03v2.13ZM5.15 4.08c.2.32.23.6.26.97l.05.2-.01.05-.04.05a.08.08 0 0 0-.03.05l-.03.98a1.7 1.7 0 0 1-.19-.82V4.08Z" fill="#C68329"/><path d="M11.14 4.1h.04c.02 0 .02.01 0 .03v.01h-.03a177.65 177.65 0 0 0-5.53.04v.02l.01.01c.46-.01.88.03 1.35.03h3.7c.64 0 1.42-.04 2-.03.05 0 .06.02.05.06a.65.65 0 0 0-.02.27c.05.33.04.66-.04.98l-.02-1.17h-.75l-.5-.03c-1.06.02-2.11.03-3.17.01l-2.8.04c-.03 0-.04.01-.04.03l.02.65a2.03 2.03 0 0 0-.26-.97l6 .01Z" fill="#AC6729"/><path d="m12.65 4.35-.08.06a.06.06 0 0 0-.03.05c0 .38.04.74.12 1.1v6.15l-.04-.1-.22-.8a.38.38 0 0 0-.01-.18l-.08-.39a.65.65 0 0 1-.1-.33l-.02-.06-.07-.11a.08.08 0 0 1-.01-.07c.03-.08 0-.15-.06-.22l-.94-.3-.02-.65c-.05-.08.06-.1.32-.09a.05.05 0 0 0 .04-.01.05.05 0 0 0 .02-.04v-.12c0-.02 0-.03-.02-.04a.06.06 0 0 0-.04-.02h-.97c-.02 0-.03.01-.03.02v.18c0 .02.01.03.04.03h.34v.4c.03.16.01.23-.05.2l-.23-.06c-.13-.02-.21-.05-.25-.1l.01-.64c0-.02 0-.03-.02-.03H10c-.01 0-.02.01-.02.03v.33a.1.1 0 0 1-.08 0 .6.6 0 0 0-.16-.15H9.7c-.03 0-.03.02-.02.04.03.04.04.09.03.14v.05a.5.5 0 0 1 .06.19l-.22.98c-.11.38-.19.68-.22.91-.02.23-.05.4-.08.5-.07.1-.09.27-.06.54l-.01.29c-.07.05-.12.06-.16.02v-.26c0-.03-.02-.04-.04-.04l-.22-.03c-.05-.06-.07-.1-.04-.12h.24l.02-.01.02-.02a.04.04 0 0 0 0-.04.6.6 0 0 0-.36-.33l-.02-.02v-.17a7.9 7.9 0 0 0-.3-1.16 1.88 1.88 0 0 0-.28-.55c-.05-.1-.1-.26-.15-.45-.02-.06-.06-.07-.12-.05l-.07-.08v-.28c.05-.01.12 0 .21.06.08.04.15.06.2.07.25.01.45.05.73.02a.91.91 0 0 0 .53-.17h.01l.02.01v.02c0 .07-.04.13-.1.18-.21.19-.38.4-.5.63a.1.1 0 0 1-.05.05.08.08 0 0 0-.04.03.07.07 0 0 0-.03.04c-.03 0-.05 0-.07.02v.06l.18.19.27.33c.01.02.03.02.05.01l.12-.07c.03-.01.04-.03 0-.06l-.08-.08.23-.48c.03-.1.08-.2.14-.3.05-.1.07-.17.06-.2-.06-.3-.06-.58.01-.85.05 0 .09 0 .12-.04.06-.1.11-.21.15-.32.04-.13 0-.47-.18-.48a.05.05 0 0 1-.05-.03l-.2-.4a1.45 1.45 0 0 1-.02-.18.4.4 0 0 0-.05-.17c-.12-.18-.31-.28-.57-.3-.22-.02-.69-.04-.84.11-.1.1-.21.2-.32.28a.07.07 0 0 0-.03.06l-.02.27-.01-.01-.04.2-.02.32c0 .02 0 .04-.03.05l-.04.02a.04.04 0 0 0-.01.05s0 .02.02.02l.02.06c-.02.26.04.5.18.72h-.2c-.02 0-.03.02-.03.04v.67a.1.1 0 0 1 0 .07c-.01.02-.03.03-.06.04a3.2 3.2 0 0 0-.64.2.53.53 0 0 1 .02-.32h.41a.06.06 0 0 0 .05-.03.06.06 0 0 0 .01-.04l-.01-.1c0-.04-.02-.05-.05-.05h-.4c-.03 0-.05-.02-.05-.06v-.14c0-.03.02-.05.06-.05h.45l.03-.01.02-.04v-.13c0-.01 0-.02-.02-.03a.06.06 0 0 0-.04-.02h-.75l-.03.01-.01.03V9.3a.34.34 0 0 0-.12.04l-.45.18a.12.12 0 0 0-.06.04.1.1 0 0 0-.01.07c.02.15 0 .3-.06.46a.03.03 0 0 0 0 .04.03.03 0 0 0 .04 0 .83.83 0 0 1 .48-.01c-.16-.02-.52-.01-.54.2-.02.25-.06.5-.1.73-.07.38-.08.76-.04 1.14l.05.45c.01.1.07.24.18.39l.41.02-.14.08c-.06.03-.05.05 0 .06l.45.1.03.02.01.03.06.4c0 .03.01.04.03.05h.06a.88.88 0 0 1-.36-.02 1.5 1.5 0 0 0-.8-.08.08.08 0 0 1-.04-.04l-.01-.02a2 2 0 0 1 .03-.7c0-.02 0-.06-.03-.1l-.03-.03c-.05-.03-.08-.07-.08-.12l-.02-5.1v-1.2l.03-.99c0-.02 0-.04.03-.05l.04-.05a.05.05 0 0 0 .01-.05l-.05-.2-.02-.65c0-.02.01-.03.04-.03l2.8-.04c1.06.02 2.11.01 3.16 0 .17-.01.35.02.51.02h.75Z" fill="#141414"/><path d="m12.67 5.52-.01.04a4.73 4.73 0 0 1-.12-1.1c0-.02.01-.04.03-.05l.08-.06.02 1.17Z" fill="#623E28"/><path d="M8.09 4.95c.06 0 .1.01.11.04a.03.03 0 0 1 0 .03v.02h-.6c-.02 0-.04-.01-.04-.04v-.3c0-.03.02-.04.04-.04H8c.03 0 .04.01.04.03v.23c0 .02.02.04.05.03ZM8.78 4.91a.2.2 0 0 1-.03.11c0 .02-.03.03-.05.02-.05 0-.08-.04-.08-.1 0-.01 0-.03-.02-.03H8.6l-.01.01v.01c-.02.1-.1.13-.2.11-.19-.03-.24-.3-.07-.36.12-.05.2-.03.26.06.02.02.03.02.05 0v-.03l.02-.03.02-.01c.07-.02.13.02.16.1l.02.02h.03a.02.02 0 0 0 .01-.01v-.01l-.02-.06c0-.02 0-.03.02-.03a.25.25 0 0 1 .1-.02c.01 0 .02.01.02.03V5c0 .02 0 .04-.03.04-.07 0-.12-.03-.14-.1a.09.09 0 0 0-.02-.04c-.02-.02-.03-.02-.03.01ZM9.6 4.67c-.03.1-.02.2.01.29.02.04 0 .07-.02.08h-.06A.07.07 0 0 1 9.5 5v-.06c0-.03-.01-.03-.02 0L9.44 5l-.04.03c-.03.01-.05 0-.07-.01h-.05a.2.2 0 0 1-.1.02c-.02 0-.03-.01-.03-.04v-.3c0-.03 0-.04.03-.04h.08l.03.01.02.03.04.1v.02a.03.03 0 0 0 .04 0l.02-.01a.09.09 0 0 0 0-.06c0-.02 0-.04.03-.05a.2.2 0 0 1 .17-.03ZM9.67 4.98c.02-.07.05-.1.1-.09 0 .02.02.04.04.05a.05.05 0 0 0 .06-.02l.01-.02v-.2c0-.02.01-.04.04-.04h.04c.01 0 .02 0 .03.02l.02.03v.2c0 .02 0 .03.02.03h.22v-.01a.43.43 0 0 0-.14-.07.08.08 0 0 1-.05-.05c-.01-.03-.01-.06.01-.1.05-.09.19-.05.27-.02h.06a.15.15 0 0 1 .1-.03c.03 0 .04.02.04.05l.01.06c.01.03.02.03.03 0 .01-.1.07-.13.16-.1h.01v.05a.23.23 0 0 0-.09.09.05.05 0 0 0 0 .05l.08.12a.04.04 0 0 1-.02.06h-.02c-.06 0-.1-.03-.11-.09 0-.01-.01-.02-.03-.02h-.02l-.01.01v.02l-.01.06c-.01.02-.03.02-.05.02-.16-.03-.26.05-.43-.06a.07.07 0 0 0-.06 0 .08.08 0 0 0-.04.03.09.09 0 0 1-.05.03c-.09.02-.16 0-.22-.06Z" fill="#E4E4E3"/><path d="M7.8 4.88c.07-.03.06-.06-.01-.06a.25.25 0 0 1-.08-.04c-.03-.02-.03-.04.01-.04l.16-.02c.04 0 .05.02.05.05v.2c0 .02-.01.03-.03.03l-.18-.04c-.02 0-.03-.02-.01-.04 0-.01.01-.02.03-.02.04 0 .06-.01.07-.02ZM10.41 4.75h.01v.01l-.01.08c0 .03-.02.03-.05.03a.56.56 0 0 1-.18-.1c-.02-.01-.02-.02 0-.02h.23Z" fill="#584650"/><path d="M8.33 4.85c0 .06.04.1.08.1s.08-.05.08-.1-.04-.1-.08-.1c-.05 0-.08.05-.08.1Z" fill="#141414"/><path d="m5.03 5.21.04.7v.01h.04c.04.43.17 1.03.16 1.51-.03.82-.01 1.48-.08 2.39-.03.45-.02.93-.1 1.37 0 .05-.03.07-.07.08V9.64c.07-.14.1-.27.1-.39.03-.3.04-.73.04-1.32 0-.52 0-1.04-.06-1.56l-.07.27V5.21Z" fill="#D7A955"/><path d="M9.21 5.67v.16a.2.2 0 0 1-.11-.1l-.29-.16a.08.08 0 0 0-.06-.01l-.29.08a.71.71 0 0 1-.23.04c-.1 0-.18-.03-.23-.1l.36-.04c.06-.01.07-.03.11-.07a.08.08 0 0 1 .06-.01l.34.03c.02 0 .04 0 .06.02l.28.16Z" fill="#88706E"/><path d="M9.1 5.74c-.08 0-.26 0-.55-.04l-.43.03c-.03 0-.04.02-.04.04 0 .08-.05.13-.14.15l-.11.02-.3.03c.01-.05.03-.1.06-.13l.12-.16c0 .06.04.08.1.04.08-.05.09-.12.2-.14.04.07.12.1.22.1.06 0 .14-.01.23-.04l.29-.08.06.01.29.17Z" fill="#454441"/><path d="M6.74 6.34a1 1 0 0 1-.33-.06v-.63h.77c.06 0 .08.02.08.07v.08c0 .02 0 .04-.02.05a.08.08 0 0 1-.05.02h-.42c-.02 0-.04 0-.05.02a.06.06 0 0 0-.02.04v.12l.02.04c.02.02.03.02.05.02h.38c.03 0 .04.01.05.04.02.06.02.1 0 .15 0 .02-.02.03-.04.03h-.42ZM7.71 5.68a.94.94 0 0 1-.12.16.26.26 0 0 0-.05.13c0 .12-.04.22-.1.29-.02.03-.03.03-.03-.01V5.7c0-.03.01-.04.04-.05.09-.02.18-.02.26.03ZM9.21 5.83v-.16a.4.4 0 0 1 .25-.02c.02 0 .03.02.03.04v.33l-.02.01h-.03a.9.9 0 0 0-.23-.2ZM10.27 6.36H10a.4.4 0 0 0-.22 0c-.07-.07-.19-.12-.2-.23l.38-.02h.01v-.44c0-.02.02-.03.03-.03h.28v.72ZM11.1 6.09a.14.14 0 0 0-.09.06.05.05 0 0 1-.05.03c-.14 0-.14-.19-.16-.3l-.35-.01s-.02 0-.03-.02v-.17c0-.02 0-.04.03-.04h.96c.04 0 .06.02.06.06v.11c0 .02 0 .03-.02.04a.07.07 0 0 1-.05.02h-.27c-.03 0-.04.01-.04.04v.18Z" fill="#FCD55C"/><path d="m11.1 6.09-.02.65c0 .05-.02.07-.07.07h-.15c-.04 0-.06-.02-.06-.05v-.88c.02.11.02.3.16.3.02 0 .04-.01.05-.03a.14.14 0 0 1 .09-.06Z" fill="#CBAC4B"/><path d="M8.79 6.03h-.12l.48.16c.01 0 .02 0 .03.02a.05.05 0 0 1 0 .06.95.95 0 0 0-.25.46l-.11.03-.28.07a.04.04 0 0 0-.03.02.04.04 0 0 0 0 .03 1 1 0 0 1 .05.59l-.02.03h-.22c-.02 0-.04.02-.04.04-.02.07 0 .1.03.12l.05.03.2.07.05.03.04.04c.02.02.01.03 0 .04a.38.38 0 0 1-.17.05c-.1.02-.2.06-.28.11-.06.02-.09.05-.08.09v.01l.21.17.03.01.29.05c.13.04.13.07 0 .1l-.4.05c-.03 0-.04 0-.05-.02a.74.74 0 0 0-.3-.38.11.11 0 0 1-.04-.04.1.1 0 0 1 0-.1.11.11 0 0 1 .05-.04l.1-.06.03-.02A.05.05 0 0 0 8 7.78c-.35-.16-.46-.5-.48-.84a5.16 5.16 0 0 0 .05-.2l.02-.26c0-.02 0-.04.03-.06l.32-.28c.15-.15.62-.13.84-.11Z" fill="#CFAEA4"/><path d="M8.79 6.03c.26.02.45.12.57.3.02.04.04.1.05.17 0 .06.02.12.03.17.07.22.12.45.13.67 0 .07.02.11.03.14.04.1.07.1.09 0a1 1 0 0 0 .01-.08.03.03 0 0 1 .02-.02h.04c.02 0 .03.02.02.04l-.07.5a.14.14 0 0 1-.12.03l-.2-.43-.02-.02a.05.05 0 0 0-.08.01.55.55 0 0 0-.07.53.07.07 0 0 1-.01.08.09.09 0 0 1-.08.02.33.33 0 0 1-.2-.14.06.06 0 0 0-.05-.02h-.05a.68.68 0 0 0-.35-.06c.06 0 .12-.02.16-.05.02-.01.03-.02 0-.04l-.03-.04a.15.15 0 0 0-.06-.03l-.19-.07c.12 0 .23-.03.34-.07.04-.01.04-.03.01-.07a.03.03 0 0 0-.02-.01h-.32a.08.08 0 0 0-.05.03.07.07 0 0 0-.02.06l.01.03c-.04-.01-.05-.05-.03-.12 0-.02.02-.03.04-.03h.19l.03-.01.02-.03a1 1 0 0 0-.05-.6.04.04 0 0 1 .01-.03h.02l.28-.08a.11.11 0 0 0-.04.05.03.03 0 0 0 0 .02l.02.01h.01l.22-.02c.12-.02.13-.05.01-.1l-.11.01a.95.95 0 0 1 .24-.46l.02-.02a.05.05 0 0 0-.01-.04l-.02-.02-.5-.16h.13Z" fill="#997F80"/><path d="M9.57 6.13c.01.11.13.16.2.22-.05.03-.07.08-.05.14 0 .02.02.04.03.05.1.08.07.28.03.36-.02.05-.04.05-.05 0a5.62 5.62 0 0 1-.2-.68c0-.07 0-.1.04-.1Z" fill="#CFAEA4"/><path d="M12.98 6.16 13 7.97c-.13 0-.2.11-.22.35-.02.42-.04.91-.03 1.48 0 .2.01.58.25.66v3.5l-.01-.32c0-.02 0-.02-.03-.01l-.01.04-.01.23c0 .03-.02.03-.04.02a.62.62 0 0 1-.17-.13c-.02-.03-.03-.1-.03-.19.01-.13 0-.26-.03-.4v-.23l-.03-.76.01-.14c.03-.03.03-.06 0-.1l.01-.26V6.54c.17-.08.28-.2.32-.38Z" fill="#CE9534"/><path d="M6.74 6.34c-.04.11-.05.26-.04.43 0 .03-.02.04-.05.04h-.18l-.04-.01v-.03l-.02-.49a1 1 0 0 0 .33.06ZM10.27 6.36l-.01.42c0 .02-.01.03-.04.03h-.17c-.03 0-.05-.01-.05-.04L10 6.36h.28Z" fill="#CBAC4B"/><path d="M5.03 9.64v-3l.06-.27c.07.52.07 1.04.07 1.56 0 .59-.01 1.03-.03 1.32 0 .12-.04.25-.1.4Z" fill="#CFAEA4"/><path d="m9.71 7.91.07-.5c0-.01 0-.02-.02-.02a1.59 1.59 0 0 0-.04 0 .04.04 0 0 0-.02.01v.01a1 1 0 0 1-.01.06c-.02.1-.05.1-.09.01a.48.48 0 0 1-.03-.14 2.72 2.72 0 0 0-.13-.67l.19.4c0 .03.02.04.05.04.19 0 .22.35.18.48-.04.1-.09.22-.15.32Z" fill="#696868"/><path d="M8.15 7.02c.13 0 .14-.04 0-.09a.6.6 0 0 0-.25 0c-.02 0-.04-.02-.03-.04 0-.02 0-.03.02-.04a.37.37 0 0 1 .4.04c.08.05.1.11.08.2a10.56 10.56 0 0 1-.41.07c-.22 0-.23-.03-.03-.1a.7.7 0 0 1 .22-.04Z" fill="#141414"/><path d="M7.53 6.94c.02.35.13.68.48.84l.02.02a.05.05 0 0 1 0 .05l-.01.02-.11.06a.11.11 0 0 0-.04.03.1.1 0 0 0 .03.15c.14.1.24.22.3.38 0 .02.02.03.04.02l.4-.05c.14-.03.14-.06.01-.1a2.3 2.3 0 0 0-.32-.06l-.2-.17-.01-.01c0-.04.02-.07.08-.09v.02l.01.02.62-.02h.02l.01-.02a.03.03 0 0 0 0-.04.1.1 0 0 0-.03-.01h.05c.03 0 .04 0 .06.02.04.07.1.12.18.14a.09.09 0 0 0 .09-.02.07.07 0 0 0 .02-.08.55.55 0 0 1 .06-.53l.02-.01a.05.05 0 0 1 .06 0l.01.02.21.43c-.07.27-.07.55 0 .84 0 .04-.02.1-.07.2-.06.1-.1.2-.14.31-.23.07-.47.1-.7.08 0-.02.02-.03.03-.04.13 0 .25-.03.35-.09.02 0 .03-.02.04-.04v-.05c-.11-.19.09-.38.2-.53.06-.05.1-.12.1-.18v-.02l-.02-.01a.03.03 0 0 0-.03 0 .91.91 0 0 1-.51.17c-.28.03-.48 0-.73-.02a.52.52 0 0 1-.2-.07c-.1-.05-.16-.07-.2-.06l-.06-.26c-.14-.22-.2-.46-.18-.72 0-.03 0-.04-.02-.06l-.02-.02v-.03l.01-.02.04-.02a.06.06 0 0 0 .03-.05l.02-.32Z" fill="#88706E"/><path d="m5.35 7.59.02 5.1c0 .05.03.1.08.12-.12.31-.17.63-.16.96 0 .03 0 .04-.02.06l-.15.15c.04-.62 0-1.17-.03-1.77l.04-.47.14-1.42c.03-.31.04-.57.04-.79v-.79l.02-.2c0-.32 0-.64.02-.95Z" fill="#C68329"/><path d="M13 7.97v2.5c-.24-.1-.25-.48-.25-.67 0-.57 0-1.06.03-1.48.02-.24.1-.36.22-.35Z" fill="#D7A955"/><path d="m6.74 8.88-.22.02c-.03 0-.04 0-.04-.02l-.07-.4V8.2H7.25l.02.04v.13c0 .01 0 .03-.02.04a.05.05 0 0 1-.03.01h-.45c-.04 0-.06.02-.06.05v.14c0 .04.02.06.06.06h.39c.03 0 .05.01.05.04l.01.1a.05.05 0 0 1-.01.05.06.06 0 0 1-.05.02h-.41ZM7.65 8.18l.05.26v.28c0 .08-.06.16-.17.23a.13.13 0 0 1-.06 0c-.03 0-.04-.01-.04-.03v-.03l-.01-.67c0-.02.01-.03.04-.03h.19ZM10.26 8.84c-.17-.05-.26-.15-.28-.3v-.33c0-.02 0-.03.02-.03h.25c.02 0 .02.01.02.03v.63ZM11.1 8.5a59 59 0 0 0-.1.25c-.03.08-.08.07-.14-.01a.1.1 0 0 1-.02-.06v-.23h-.04v.36-.38l-.01-.01h-.34c-.03 0-.04-.02-.04-.04V8.2l.02-.02h.98c.02 0 .03 0 .04.02l.02.04v.12a.05.05 0 0 1-.02.04.05.05 0 0 1-.04.01c-.26-.02-.37.01-.32.09Z" fill="#FCD55C"/><path d="M9.9 8.54c-.05 0-.07.02-.07.08l.05.09v.04a.23.23 0 0 1-.1.05h-.01a.5.5 0 0 0-.05-.18v-.05c0-.05 0-.1-.04-.14-.01-.02 0-.04.02-.04h.04c.05.03.1.08.16.15Z" fill="#4D5E6D"/><path d="M11.1 8.5v.64c-.01 0-.06-.01-.14-.05L10.74 9c.06.03.08-.04.06-.2v-.35l.02-.01h.01l.01.23c0 .02 0 .04.02.06.06.08.1.09.14 0l.1-.24ZM6.74 8.88a.53.53 0 0 0-.02.32l-.3.1-.01-.81.07.39c0 .02.01.03.04.02l.22-.02Z" fill="#CBAC4B"/><path d="M9.9 8.54a.1.1 0 0 0 .08 0c.02.15.11.25.28.3.04.06.12.1.25.11l.36.35.02.05c-.03.15-.12.44.08.47.02 0 .04 0 .06-.02.18-.18.39-.2.61-.08l-.06.1-.18.31a.07.07 0 0 1-.05.04c-.37.07-.49.34-.64.64v.04c0 .01 0 .03.02.03l.2.16.17.12a.2.2 0 0 0 .06.04h-.23l-.42-.31a.12.12 0 0 0-.05-.08h-.02a.06.06 0 0 0-.05.01l-.01.03-.1.38a.6.6 0 0 0-.28 0c.11-.06.17-.13.18-.23 0-.03 0-.05.03-.07l.02-.03.24-.49c.06-.04.06-.1.02-.2 0-.02 0-.04.02-.05.06-.05.1-.12.12-.19a.1.1 0 0 1 .03-.06l.06-.05a.06.06 0 0 0 .02-.06.93.93 0 0 0-.12-.32.5.5 0 0 0-.17.03c-.02.01-.05.01-.07 0a.44.44 0 0 1-.13-.08l.14.06h.06c.06-.04.1-.1.13-.15 0-.03 0-.04-.02-.06a.72.72 0 0 0-.24-.14h.05c.03-.02.03-.03.02-.05-.06-.08-.12-.08-.18 0a.65.65 0 0 1-.28-.23l-.05-.04c-.03-.01-.06 0-.09.02V8.8a.23.23 0 0 0 .08-.05c.02-.01.02-.03 0-.04a.2.2 0 0 1-.04-.1c0-.05.02-.07.07-.07Z" fill="#778796"/><path d="M8.23 8.96v.01c-.02.02-.06.01-.1-.01A.65.65 0 0 1 8 8.84l-.02-.01a.62.62 0 0 1-.1-.15c-.02-.04-.02-.07 0-.09l.35.37Z" fill="#67767F"/><path d="M7.77 8.8a.74.74 0 0 1-.12.35.34.34 0 0 1-.25.12c-.05 0-.07-.04-.07-.1.1-.07.16-.14.2-.22.11-.07.17-.15.17-.23l.07.08Z" fill="#1B2A34"/><path d="M8.04 9.3c-.1 0-.13.11-.07.31v.03l-.03.01h-.01l-.01-.01-.27-.49c.07-.1.1-.22.12-.35.06-.02.1 0 .12.05.05.2.1.34.15.45ZM9.79 8.8v.04a1.9 1.9 0 0 0 .08.7l.02.01h.02l.02-.01a.55.55 0 0 0 .09-.25v-.02h.02a.04.04 0 0 1 .03 0l.18.16.13.08h.06a.5.5 0 0 1 .18-.03l-.31.07c-.02 0-.03.02-.02.04.04.11.03.2-.02.26a.21.21 0 0 0 .03-.17l-.01-.03-.04-.02a.08.08 0 0 0-.07.02.83.83 0 0 1-.17.12c-.1.05-.16.14-.24.25 0 .02-.03.03-.06.02-.03 0-.04-.02-.03-.05l.03-.13a.05.05 0 0 0-.01-.05c-.04-.03-.09-.04-.15-.02l.22-.98h.02Z" fill="#67767F"/><path d="m10.2 9.09.11.05c.1.03.18.07.25.14.02.02.02.03.02.06a.27.27 0 0 1-.13.14.06.06 0 0 1-.06 0l-.14-.05-.18-.16-.01-.01h-.02l-.02.01v.02c-.01.1-.04.17-.09.25l-.02.01a.05.05 0 0 1-.04 0l-.02-.03a1.9 1.9 0 0 1-.06-.68c.03-.02.06-.03.09-.02l.05.04c.08.11.17.19.27.23ZM7.53 8.95a.53.53 0 0 1-.2.21l-.1.25v.02a.06.06 0 0 1-.06.02h-.03a.96.96 0 0 0-.43-.14c-.02 0-.03 0-.03.02l.06.43c0 .07-.01.08-.07.03a1.62 1.62 0 0 1-.38-.44.34.34 0 0 1 .13-.04l.3-.1c.22-.1.43-.17.64-.21.03-.01.05-.02.06-.04a.1.1 0 0 0 0-.07v.03c.01.02.02.03.05.04l.06-.01ZM10.5 8.95l.24.06.22.08c.11.09.28.19.5.3.21.1.41.12.59.06.07.07.09.14.06.22v.07l.08.11.01.06c0 .12.05.23.11.33l-.29.1-.29.02c-.03 0-.04 0-.03-.04v-.02l.03-.02.03-.01c.07 0 .13 0 .17-.03l.25-.04c.03 0 .03-.01.02-.03-.02-.04-.06-.06-.12-.07-.15-.09-.2-.2-.14-.34V9.7a.18.18 0 0 0-.12-.12c-.02 0-.04 0-.05.02l-.13.12c-.22-.12-.43-.1-.61.08a.07.07 0 0 1-.06.02c-.2-.03-.1-.32-.08-.47 0-.02 0-.04-.02-.05l-.36-.35Z" fill="#8EA0B5"/><path d="m11.1 9.14.95.31a.79.79 0 0 1-.6-.07c-.21-.1-.38-.2-.49-.3.08.05.12.07.15.06Z" fill="#E4E4E3"/><path d="m7.65 9.15.27.49.02.01h.02c.01-.01.02-.02.01-.04-.06-.2-.04-.3.07-.3.14.18.23.36.29.54.17.57.27.96.3 1.16l-.01.17a.39.39 0 0 1-.17 0c-.02 0-.02 0-.02-.03v-.03a26.48 26.48 0 0 0-1.1-1.62c-.02-.02-.04-.02-.07 0l-.06.02c-.02.01-.02.03 0 .05.13.23.24.38.3.44.18.16.32.3.47.55.04.08.11.18.2.29.05.07.03.12-.05.16-.23.11-.36.32-.4.63 0-.06 0-.12-.02-.17v-.19c0-.04-.02-.07-.07-.07h-.16c-.04 0-.06.02-.06.06l.01.25-.01.35a1.05 1.05 0 0 0-.1-.35.07.07 0 0 0-.04-.04 1 1 0 0 0-.33-.03h.26c.04 0 .06-.03.06-.07v-.1c0-.05-.02-.07-.07-.07h-.72a.07.07 0 0 0-.05.02.06.06 0 0 0-.02.04v.33l-.03.27-.15.14-.22.05c-.03-.01-.07 0-.1.03l-.07.03c-.02 0-.04 0-.05-.02-.23-.26-.2-.67-.2-1.04.05-.24.09-.48.1-.73.03-.21.39-.22.54-.2a.83.83 0 0 0-.47.01.04.04 0 0 1-.03 0l-.01-.02v-.02c.06-.15.08-.3.06-.46l.01-.07a.12.12 0 0 1 .06-.04l.45-.18c.1.17.23.32.38.44.06.05.08.04.07-.03l-.06-.43c0-.02 0-.02.03-.02.16 0 .3.05.43.13a.06.06 0 0 0 .1-.03l.1-.25c-.01.07 0 .11.06.11.09 0 .17-.04.25-.12Z" fill="#84949F"/><path d="m9.38 9.3-.23.48c-.09-.04-.18-.1-.27-.17l-.05-.02c-.02 0-.04.02-.04.06l-.17-.2c-.02-.01-.02-.03 0-.05l.06-.02c.23.01.46-.01.7-.08Z" fill="#997F80"/><path d="m8.62 11.18.02.02-.35.01a.57.57 0 0 0-.4.44c-.13.63.4.84.94.66a.48.48 0 0 1-.34.12c-.1 0-.2.02-.26.04-.22.1-.44.21-.65.35l-.34.13h-.12c-.02 0-.03-.02-.02-.04l.04-.04a6.4 6.4 0 0 0 .77-.35v-.02h-.26c-.02 0-.04 0-.06-.02a.54.54 0 0 0-.17-.08h-.06l-.43.26c-.34.18-.58.2-.9.26a.1.1 0 0 0-.06.03.3.3 0 0 1-.2.09.87.87 0 0 1-.17-.39l-.05-.45c-.04-.38-.03-.76.03-1.14 0 .37-.03.78.2 1.04 0 .02.03.02.05.02l.06-.03c0 .02.02.03.04.03.06-.02.08-.04.07-.06l.22-.05c-.09.1-.16.2-.2.3-.04.1-.03.1.04.03.1-.12.13-.28.32-.37 0 .13.01.25.05.36l.04.04c.08.03.17.02.28-.05l.54-.21h.05l.03.03a10.08 10.08 0 0 1-.63.3 1.2 1.2 0 0 0-.03.03c-.06.06-.04.08.04.05l.42-.2c.07-.03.15-.03.25.01.08.04.15.05.22.03.03-.01.04-.02.04-.05l.04-.67c.04-.31.17-.52.4-.63.08-.04.1-.1.04-.16a3.4 3.4 0 0 1-.2-.3 2.08 2.08 0 0 0-.46-.54c-.06-.06-.17-.2-.3-.44-.02-.02-.02-.04 0-.05l.06-.03c.03-.01.05 0 .07.01l.27.35a26.49 26.49 0 0 1 .83 1.3c0 .02 0 .03.02.04h.17Z" fill="#67767F"/><path d="M10.62 9.48c.06.1.1.2.12.32 0 .02 0 .04-.02.06l-.06.05a.1.1 0 0 0-.03.06.31.31 0 0 1-.12.19c-.02.02-.03.03-.02.05.04.1.04.16-.02.2l-.18-.42c0-.02-.02-.02-.03-.02a.05.05 0 0 0-.04.04v.02c.05.18.05.35 0 .52 0 .03-.02.03-.04.03a.24.24 0 0 1-.07-.04h-.06a.17.17 0 0 0-.05.08.35.35 0 0 1-.03-.12c0-.02.01-.04.03-.05a.47.47 0 0 0 .19-.1.06.06 0 0 0 .02-.05c0-.13-.07-.36.06-.45.05-.06.06-.15.02-.26-.01-.02 0-.03.02-.04l.31-.07Z" fill="#584650"/><path d="m12.08 10.1-.42.07-.08-.36.06-.09.13-.12a.05.05 0 0 1 .05-.02c.06.02.1.06.12.12v.06c-.05.14 0 .25.14.34Z" fill="#67767F"/><path d="m9.15 9.78.09.08c.03.03.02.05-.01.06l-.12.07h-.05l-.27-.34c0-.04.02-.05.04-.06.02 0 .03 0 .05.02.1.07.18.13.27.17Z" fill="#CFAEA4"/><path d="M10.27 9.85c-.13.09-.07.32-.06.45 0 .02 0 .04-.02.05a.47.47 0 0 1-.18.1c-.03.01-.04.03-.04.05 0 .04.02.08.04.12-.08.08-.18.1-.24.18a1.96 1.96 0 0 0-.24.32v.03l.03.01h.05l.03.02.01.02c.05.16.12.32.23.47h-.3a.1.1 0 0 1-.07-.03.1.1 0 0 1-.03-.07v-.28a.06.06 0 0 0-.03-.06.37.37 0 0 0-.2-.03c.03-.1.06-.27.08-.5.03-.23.1-.53.22-.91.06-.02.11-.01.15.02a.05.05 0 0 1 .01.05l-.03.13c0 .03 0 .04.03.05.03 0 .05 0 .06-.02.08-.11.13-.2.24-.25a.84.84 0 0 0 .17-.12l.04-.02a.08.08 0 0 1 .07.02l.01.03c.02.05 0 .1-.03.17Z" fill="#91888C"/><path d="M11.3 10.04c-.01.05-.06.08-.14.1-.02.01-.04 0-.04-.02-.02-.06-.03-.16.03-.22l.22-.19a.05.05 0 0 1 .06 0l.01.02.01.03v.02a.87.87 0 0 0-.15.26Z" fill="#4D5E6D"/><path d="m11.66 10.17-.17.06a.08.08 0 0 0-.04.03l-.03.04v.01a.02.02 0 0 0 .01.02h.02c.17-.07.33-.1.48-.1a.27.27 0 0 1-.17.04h-.03a.05.05 0 0 0-.03.03v.02c-.01.03 0 .04.03.04l.3-.01h.1c.03 0 .05 0 .05.03v.03a.12.12 0 0 1-.1.06h-.43a.06.06 0 0 0-.04.03.05.05 0 0 0 0 .05l.02.09a.05.05 0 0 1 0 .05.95.95 0 0 0-.2.52h-.18l-.1-.01a.2.2 0 0 1-.05-.04.72.72 0 0 0 .32-.48v-.03l-.02-.02a.05.05 0 0 0-.06 0l-.18.18a.07.07 0 0 1-.06.02c-.12 0-.18.07-.17.21l-.2-.16a.06.06 0 0 1-.02-.03v-.04c.15-.3.27-.57.64-.64.02 0 .04-.02.05-.04l.18-.32.08.36Z" fill="#4D5E6D"/><path d="m10.47 10.41-.24.5-.02.02c-.02.02-.03.04-.03.07-.01.1-.07.17-.18.22a.9.9 0 0 0-.02.4c0 .02 0 .04-.03.04a.16.16 0 0 1-.07.01 1.55 1.55 0 0 1-.24-.49l-.03-.01h-.05l-.03-.02a.05.05 0 0 1 0-.06l.24-.3c.06-.06.16-.09.24-.17l.04-.07.02-.02.04.01.07.04c.02 0 .03 0 .04-.03a1.04 1.04 0 0 0 0-.54l.01-.02.03-.02c.01 0 .03 0 .03.02l.18.42Z" fill="#141414"/><path d="M12.08 10.1c.06.01.1.03.12.07.02.02 0 .03-.02.03l-.25.04a1.15 1.15 0 0 0-.5.09v-.02l.02-.05.04-.03.17-.06.42-.07Z" fill="#1B2A34"/><path d="m6.63 10.74-.04-.18a.64.64 0 0 1-.08-.28c.02-.16.05-.16.1 0l.3.87a.03.03 0 0 1 0 .03l-.01.01H6.78c-.04 0-.06-.01-.06-.06a.67.67 0 0 0-.09-.39Z" fill="#4D5E6D"/><path d="m12.39 10.63-.49-.11h-.03l-.02.01a.06.06 0 0 0-.01.05c0 .02.01.03.04.05.1.06.21.1.33.13-.1-.01-.2 0-.3.03h-.01v.02a.03.03 0 0 0 .01.03l.16.08c.02 0 .02.02.02.04l-.01.02-.05.01c-.28 0-.4.15-.6.22.02-.19.08-.36.2-.52a.06.06 0 0 0 0-.05l-.03-.1a.05.05 0 0 1 0-.04.06.06 0 0 1 .05-.02l.44-.01.05-.02a.12.12 0 0 0 .04-.04v-.03c0-.02-.02-.03-.04-.03h-.12l.3-.1.07.38Z" fill="#778796"/><path d="M12.39 10.63c.02.05.02.1.01.18l-.19-.05a1.33 1.33 0 0 1-.33-.13c-.03-.02-.04-.04-.04-.05l.01-.05.02-.01h.03l.49.1Z" fill="#4D5E6D"/><path d="M6.63 10.74a2.48 2.48 0 0 0-.83-.07l-.01-.01a.03.03 0 0 1 0-.04l.02-.01.02-.01.76-.04.04.18Z" fill="#67767F"/><path d="m11.1 11.16-.17-.12c0-.14.05-.2.17-.2l.06-.03.18-.17.03-.02h.03l.02.03v.03a.72.72 0 0 1-.32.48Z" fill="#304252"/><path d="m12.21 10.76.2.05.2.8c-.35-.05-.3-.5-.8-.47l-.25.18c-.09.07-.08.1.04.09l.35-.02c.07-.01.12 0 .16.04v.05a.14.14 0 0 1-.08.03l-.3.02c-.02 0-.02 0 0 .03.07.07.16.1.28.1.03 0 .05 0 .07.02.06.06.09.1.18.15.15.06.28.14.4.24l-.02.14-.6-.35-.24-.12c-.15-.07-.23-.18-.35-.28.06-.06.07-.13.03-.21a.06.06 0 0 0-.05-.03h-.18l.19-.01c.2-.07.31-.22.6-.22h.04l.01-.03c0-.02 0-.04-.02-.04l-.16-.08h-.01v-.04l.01-.01c.1-.03.2-.04.3-.03Z" fill="#8EA0B5"/><path d="M10.51 10.89c.02.1.02.21-.02.32-.1.02-.1.1-.05.23 0 .18-.03.35-.11.5 0 .02-.02.02-.03.01v-.02a.1.1 0 0 1-.03-.06v-.64l.1-.38.02-.03.02-.01h.05c.03.02.04.05.05.08Z" fill="#010206"/><path d="M10.93 11.2h-.44c.04-.1.04-.2.02-.31l.42.31Z" fill="#4D5E6D"/><path d="M8.87 11.1c.04 0 .08-.02.09-.06 0-.03-.03-.06-.07-.07-.05 0-.09.02-.1.05 0 .04.04.07.08.07Z" fill="#696868"/><path d="m12.62 11.61.04.1v.26a1.4 1.4 0 0 0-.4-.24c-.09-.03-.12-.08-.11-.16 0-.02-.01-.04-.03-.05a.16.16 0 0 0-.09 0l.08-.04v-.05c-.04-.04-.1-.05-.16-.04.17 0 .13-.09-.13-.25.48-.02.44.42.8.47Z" fill="#84949F"/><path d="m11.95 11.39-.35.02c-.12 0-.13-.02-.04-.09l.26-.18c.26.16.3.24.13.25Z" fill="#4D5E6D"/><path d="M6.94 11.45h-.16a.05.05 0 0 0-.05.03.24.24 0 0 0-.02.13c0 .02 0 .03.02.04.01.02.03.02.05.02l.4.02c.02.07.02.13 0 .17a.06.06 0 0 1-.05.03l-.34.02c-.09.02-.19.02-.3 0-.02 0-.03-.02-.04-.04l-.04-.27v-.33a.06.06 0 0 1 .01-.04.07.07 0 0 1 .05-.02h.72c.05 0 .07.02.07.07v.1c0 .04-.02.06-.06.06h-.26ZM7.7 11.47c0 .1 0 .18-.02.26 0 .02-.02.03-.05.03-.15 0-.22-.08-.2-.24l-.02-.25c0-.04.02-.06.06-.06h.16c.05 0 .08.03.07.07v.19ZM8.64 11.2c.18.07.3.18.36.33a.04.04 0 0 1 0 .04.05.05 0 0 1-.04.02h-.24l-.14-.1c-.14-.13-.33.03-.38.15l-.1.3c-.01.02-.02.03-.04.03h-.1c-.02 0-.04-.02-.04-.04l-.03-.28a.57.57 0 0 1 .4-.44c.05-.01.17-.02.35-.01ZM9.25 11.2c.08 0 .15 0 .2.03.02.02.03.03.03.06v.28c0 .02.01.05.03.07a.1.1 0 0 0 .08.03h.36c.02-.01.03-.03.03-.05a.9.9 0 0 1 .02-.4.6.6 0 0 1 .28 0v.65c-.44.1-.8.05-1.09-.13-.03-.27 0-.44.06-.54ZM10.93 11.2h.23l.09.01h.18c.02 0 .04.02.05.04.04.08.03.15-.03.21-.23-.05-.35-.03-.37.05l-.06.31a.02.02 0 0 1-.02.02h-.02a.43.43 0 0 1-.13-.1c-.02-.02-.03-.01-.04.01l-.01.12v-.39l-.01-.02a.06.06 0 0 0-.05-.02h-.3c-.06-.13-.04-.2.05-.23h.44Z" fill="#FCD55C"/><path d="M6.94 11.45c.12-.01.23 0 .33.03.02 0 .04.02.05.04.05.1.08.22.09.35-.04.04-.1.05-.15.02-.02 0-.03-.02-.03-.04 0-.07 0-.13-.04-.16l-.41-.02c-.02 0-.04 0-.05-.02a.07.07 0 0 1-.02-.04c0-.04 0-.08.02-.13a.05.05 0 0 1 .05-.03h.16Z" fill="#67767F"/><path d="M8.72 11.6c-.03.02-.01.06.04.12h-.23a.07.07 0 0 0-.04.02l-.02.02v.03l.01.09c0 .05.04.08.1.08.04 0 .08 0 .12.02.02.01.02.03 0 .05-.1.12-.23.15-.4.06-.12-.06-.1-.32-.1-.45.05-.12.24-.28.38-.15l.14.1Z" fill="#778796"/><path d="M10.8 11.87v.47a.45.45 0 0 0-.53.03l.02-.44.01.02h.03c.08-.16.12-.33.11-.5h.3a.06.06 0 0 1 .05 0 .06.06 0 0 1 .01.05v.37Z" fill="#304252"/><path d="M11.45 11.46c.12.1.2.2.35.28l.23.12c-.31.07-.46 0-.72-.1-.04-.01-.12 0-.22.03v-.28c0-.08.13-.1.36-.05Z" fill="#4D5E6D"/><path d="m7.72 11.64-.04.67c0 .03-.01.04-.04.05a.32.32 0 0 1-.22-.03l-.01-.46.01-.35c-.01.16.06.24.21.24.03 0 .04-.01.05-.03a.66.66 0 0 0 .02-.26c.02.05.03.1.02.17Z" fill="#CBAC4B"/><path d="m12.03 11.51.09.01c.02.01.03.03.03.05-.01.08.02.13.1.16.15.06.28.14.4.24.03.04.03.07 0 .1-.11-.1-.24-.18-.39-.24-.1-.04-.12-.1-.18-.15a.08.08 0 0 0-.07-.03.33.33 0 0 1-.29-.1c-.01-.01-.01-.02.02-.02l.3-.02Z" fill="#454441"/><path d="m11.1 11.8-.03.53c0 .03-.04.05-.1.06h-.1l-.07-.05v-.47l.01-.12c0-.02.02-.03.04 0 .04.03.08.07.13.09a.02.02 0 0 0 .03 0v-.02l.07-.3.01.27ZM6.4 11.6l.05.27c0 .02.02.03.04.04.11.02.21.02.3 0-.08.06-.1.2-.04.41-.1.07-.2.08-.28.05a.07.07 0 0 1-.04-.04 1.01 1.01 0 0 1-.05-.36c.02-.04.02-.07 0-.1l.03-.27ZM7.89 11.65l.03.28c0 .02.02.04.05.04h.09c.02 0 .03-.01.03-.03l.1-.3c.01.13-.01.39.12.45.16.09.3.06.4-.06.01-.02 0-.04-.01-.05a.26.26 0 0 0-.13-.02c-.05 0-.08-.03-.09-.08V11.76a.06.06 0 0 1 .03-.03h.02l.23-.01.22.03c.02 0 .04.01.04.04v.26l-.19.26c-.54.18-1.07-.03-.94-.66Z" fill="#CBAC4B"/><path d="m12.03 11.86.6.35.03.76-.01.09c-.28-.08-.6-.25-.94-.49-.19-.13-.44-.19-.75-.18.07-.01.11-.03.11-.06l.02-.54c.1-.03.18-.04.22-.02.26.09.4.16.72.09Z" fill="#304252"/><path d="m7.4 11.87.02.46c-.1-.04-.18-.04-.25 0l-.42.19c-.08.03-.1.01-.04-.05l.03-.03a10.01 10.01 0 0 0 .62-.3l-.02-.02a.05.05 0 0 0-.05-.01l-.54.21c-.05-.21-.04-.35.04-.4l.34-.03c.02 0 .04 0 .05-.03a.29.29 0 0 0 0-.17c.04.03.06.09.05.16 0 .02 0 .03.03.04.06.03.1.02.15-.02Z" fill="#778796"/><path d="M10.27 11.87c0 .02 0 .04.02.06l-.02.44c-.04.11-.18.13-.42.07v-.16c0-.02 0-.03.02-.05a.34.34 0 0 0 .07-.28.02.02 0 0 0-.01-.01h-.38c-.02 0-.04 0-.05.02-.05.1.03.17.03.25v.12a.12.12 0 0 1-.12.06c-.07.01-.12 0-.16-.02-.04-.01-.06-.05-.07-.12v-.22l.01-.3c.3.19.65.23 1.08.14Z" fill="#CBAC4B"/><path d="M5.02 13.98c0-.5 0-1.01-.02-1.51 0-.25 0-.5.03-.75.04.34.06.68.04 1.02-.02.25-.02.45-.02.62l-.03.62Z" fill="#88706E"/><path d="M6.1 11.9c.07-.03.1-.08.1-.09-.01-.01-.07 0-.13.04s-.1.08-.09.1c.01.01.07 0 .13-.05Z" fill="#141414"/><path d="M6.37 11.87c.03.03.03.06.01.1-.19.1-.21.25-.32.37-.07.08-.08.07-.04-.03s.11-.2.2-.3l.15-.14Z" fill="#304252"/><path d="M9.94 11.97h-.06c-.02 0-.03.01-.04.03l-.04.1v.01l-.17.1a.1.1 0 0 0-.04.04.25.25 0 0 1-.07.08l.01-.12c0-.08-.08-.15-.03-.25 0-.02.03-.03.05-.03l.38.01.01.03Z" fill="#1B2A34"/><path d="M9.94 11.97c.01.1-.01.18-.07.26a.09.09 0 0 0-.02.05v.16c.12.1.3.12.54.08a.7.7 0 0 1 .28-.01l.4.08c.08.02.2.07.38.16.12.07.25.12.38.17l.04.05.34.32.02.03a.06.06 0 0 1-.01.06l-.03.02c-.07.04-.1.07-.2.03a68.29 68.29 0 0 1-.62-.22.05.05 0 0 0-.03.05l-.02.4c-.01.05 0 .08.02.1v.04H6.63c-.02 0-.03-.02-.03-.04l-.06-.41-.01-.03-.03-.01-.44-.1c-.06-.02-.07-.04-.01-.07l.14-.08.63-.03.07-.01 1.55.41.58.08c.1 0 .21-.07.33-.18.1-.09.07-.13-.06-.13l-.06-.05a.06.06 0 0 1 0-.07l.26-.54a.03.03 0 0 0 0-.03l-.01-.02h-.02a.37.37 0 0 0-.29.19.47.47 0 0 1-.38.25l.08-.29a.1.1 0 0 0 0-.06c-.02-.04 0-.07.04-.08l.26-.07a.94.94 0 0 1 .24-.04c.05 0 .09-.02.11-.06a.25.25 0 0 0 .07-.08.1.1 0 0 1 .04-.05l.16-.09h.01l.04-.11c0-.02.02-.03.04-.03h.06Z" fill="#010206"/><path d="M9.18 12.03v.22c0 .07.03.1.07.12.04.03.09.03.16.02a.94.94 0 0 0-.24.04 8.9 8.9 0 0 1-.26.07c-.04.01-.06.04-.04.08a.1.1 0 0 1 0 .06l-.08.3.01.34-.01.05-.04.08c0 .02 0 .04.02.04l.25.07-.58-.09c.01-.07.1-.1.28-.1.02 0 .03 0 .04-.02v-.02c0-.02 0-.04-.02-.05l-.04-.02c-.33-.17-.67-.27-1.12-.4.2-.14.43-.25.65-.35a.73.73 0 0 1 .26-.04c.15 0 .26-.04.34-.12l.19-.26c.04.04.1.03.16-.02Z" fill="#4D5E6D"/><path d="m7.18 12.96-.29.06h-.07l-.3-.02c-.01 0-.02 0-.02-.02v-.01l.01-.03.53-.27c.04-.02.04-.03 0-.03s-.07 0-.11.02l.43-.26a.07.07 0 0 1 .06 0c.09.03.14.05.17.08l.06.02h.25l.01.01v.04a6.38 6.38 0 0 1-.81.36c0 .02 0 .04.02.04h.06Z" fill="#304252"/><path d="M10.88 12.38h.08c.31 0 .56.06.75.2.35.23.66.4.94.48a.6.6 0 0 1-.1.26c-.24-.02-.5-.22-.68-.35l-.04-.05c-.2-.33-.58-.45-.95-.54Z" fill="#1B2A34"/><path d="m9.02 13.51-.25-.06c-.02 0-.03-.02-.02-.04l.04-.08.01-.05v-.35c.16-.01.28-.1.37-.25.04-.06.08-.1.14-.14.05-.03.1-.04.15-.05h.02l.01.02v.03l-.27.54a.06.06 0 0 0 .01.06l.06.06c.13 0 .15.04.06.13-.12.11-.23.18-.33.18Z" fill="#67767F"/><path d="m6.82 13.03-.63.03-.41-.02a.3.3 0 0 0 .19-.09.1.1 0 0 1 .05-.03c.33-.06.57-.08.9-.26a.26.26 0 0 1 .12-.02c.04 0 .04.01 0 .03l-.53.27a.03.03 0 0 0-.01.03v.01c0 .01 0 .02.02.02l.3.03Z" fill="#1B2A34"/><path d="M5.48 12.83c-.06.25-.09.5-.07.76 0 .07-.02.11-.06.16a.04.04 0 0 0 0 .04v.02h.03l.95-.03c.08.03.2.04.36.02H12.62c.03 0 .04 0 .04-.03l.01-.56c.03.13.04.26.03.4 0 .09 0 .15.03.18.05.05.1.1.17.13.02.01.03 0 .04-.02v-.23l.02-.04c.02-.01.03 0 .03.01v.33a5.84 5.84 0 0 1-1.46-.01.23.23 0 0 1-.09.02v-.02c0-.02-.02-.03-.03-.03-1.44-.02-2.89-.02-4.33 0-.23 0-.4.02-.5.06H5.1l.02-.01.15-.15a.07.07 0 0 0 .02-.05c-.01-.34.04-.66.16-.97l.03.02Z" fill="#AC6729"/><path d="m6.33 13.78-.95.03h-.02l-.02-.02a.04.04 0 0 1 0-.04c.05-.05.07-.1.07-.16-.02-.26 0-.5.07-.76.03.05.03.09.03.11a2 2 0 0 0-.02.72.08.08 0 0 0 .05.04h.03c.28-.03.54 0 .76.08Z" fill="#623E28"/><path d="m7.24 12.95 1.46.27.04.02c.02.01.03.03.02.05v.02l-.04.02c-.18 0-.27.03-.28.1l-1.55-.41.29-.06c.03-.02.05-.02.06-.01Z" fill="#0E161F"/><path d="m12.67 13.2-.01.57c0 .02-.01.03-.04.03h-.92c.25-.08.5-.11.75-.1l.04-.02a.06.06 0 0 0 .02-.04l.03-.32a.6.6 0 0 0 .1-.26l.02-.09.01.24Z" fill="#623E28"/><path d="M10.63 13.6c.11-.05.34.03.45.08.1.04.1.07-.01.07H9.75c-.03 0-.04 0-.06-.02a.46.46 0 0 1-.07-.16c0-.03 0-.04.02-.05.04-.02.14-.04.28-.06.09-.01.15 0 .2.05.13.12.27.16.43.13l.08-.04Z" fill="#4D5E6D"/><path d="M11.34 13.76c-.03-.02-.03-.05-.02-.1 0-.08.02-.14.07-.2.02-.01.03-.01.05.01.05.07.07.15.08.24l-.01.03-.02.02a.22.22 0 0 1-.15 0Z" fill="#67767F"/><path d="M7.34 13.74v-.01c0-.02.03-.04.08-.05.06-.02.14-.02.23-.02h.56a1.29 1.29 0 0 1 .22.02l.07.02.02.03H7.33Z" fill="#696868"/></svg>