<!-- by TradingView --><svg width="18" height="18" viewBox="0 0 18 18" xmlns="http://www.w3.org/2000/svg"><path fill="url(#agy5gee5l)" d="M0 0h18v18H0z"/><path d="M5.8 6.06c.04-.1.1-.19.2-.25.04-.03.06-.07.04-.11a.8.8 0 0 1 .07-.66c.1-.19.22-.37.36-.53.07-.09.2-.17.37-.25l.28-.16c.14-.12.35-.13.62-.04s.43.22.46.4l.04.16c.1.38.1.67.04.88a1.4 1.4 0 0 0-.06.4c0 .24-.08.48-.23.7-.02.03-.01.04.01.06.15.06.27.15.38.26.03.04.07.05.11.05.17 0 .33.03.48.1.04.01.05 0 .05-.04-.03-.2.06-.32.27-.34.04 0 .05-.02.03-.05-.07-.18-.01-.33.18-.44.03-.02.04-.05.02-.09a.66.66 0 0 1-.1-.35c0-.03.02-.06.04-.09.07-.07.14-.2.2-.36.1-.24.24-.4.4-.47.2-.1.41-.2.63-.28a.22.22 0 0 1 .12-.01c.36.06.67.27.93.62.07.1.12.23.15.42.03.16.07.28.12.36.02.04.03.09.02.13-.07.26-.19.48-.35.67-.04.03-.04.07-.02.11.03.04.06.06.11.06.3-.02.57.06.78.23.22.18.32.4.32.68 0 .03.02.06.04.09l.19.16c.36.3.54.57.54.77 0 .1.05.21.13.36.09.14.13.25.13.34 0 .08 0 .15.02.22.23.76-.04 1.3-.82 1.6-.18.06-.36.14-.52.23-.06.03-.05.05 0 .06.29.07.44.23.45.46.01.23-.1.41-.32.55-.28.18-.62.12-1.03-.16-.03-.03-.06-.02-.09.01a.11.11 0 0 0 0 .12l.08.17c0 .02.01.05 0 .07l-.05.42c-.01.13-.1.2-.23.2H9.18c-.2 0-.35-.1-.47-.3-.04-.07-.06-.07-.07 0-.01.11-.06.2-.14.28a1.9 1.9 0 0 1-.87.48c-.2.05-.39.05-.6.02a9.3 9.3 0 0 0-.64-.09.19.19 0 0 1-.14-.07c-.05-.07-.11-.08-.19-.03a.2.2 0 0 1-.15.02l-.9-.2c-.1-.03-.17-.09-.2-.18-.02-.1.01-.18.1-.24l.61-.48c.04-.03.05-.06.02-.1-.26-.29-.32-.54-.2-.76.02-.04.02-.08-.01-.11a.88.88 0 0 1-.25-.81c.02-.12.1-.27.22-.45s.2-.32.2-.43a2.1 2.1 0 0 0 0-.65.78.78 0 0 1 .02-.34c0-.04-.01-.05-.05-.04-.16.06-.3.12-.43.2-.14.06-.3.03-.49-.1-.61-.43-.71-.9-.3-1.42a.06.06 0 0 0 0-.07c-.29-.5-.25-.9.12-1.22a.16.16 0 0 0 .06-.1.51.51 0 0 1 .15-.35c.29-.27.6-.3.96-.08l.12.12.07.07c.04.04.06.03.08-.01Z" fill="#FEFEFD"/><path d="M7.3 4.16c.37-.05.62.06.75.34.03.07.01.08-.05.04-.01-.01-.02-.02-.01-.04l-.01-.04a1.16 1.16 0 0 0-.74-.27v-.02c.01-.02.03-.02.04-.01h.02Z" fill="#696868"/><path d="M7.53 4.43a1.25 1.25 0 0 0-.79.06.21.21 0 0 1 .16-.13.6.6 0 0 0 .23-.1l.03.01c.04.07.11.1.23.07.09-.01.14.01.14.09Z" fill="#E28C10"/><path d="M7.53 4.43c.08 0 .1.01.06.03.18.1.32.23.42.38.1.17.1.41-.02.73a2.3 2.3 0 0 0-.03.07c-.01.03-.03.05-.06.05l-.04-.01c-.01-.03-.04-.03-.07-.01-.07.04-.13.05-.18.01 0-.42-.19-.57-.54-.44-.08.02-.15.1-.2.2-.03.06-.04.06-.03 0a.35.35 0 0 0-.02-.2c-.07-.13-.2-.18-.4-.17-.04-.26.07-.45.32-.58.26-.1.53-.13.8-.06Z" fill="#FFCA0B"/><path d="M8.38 7.16c.02 0 .03.02.05.04l.05.05c.12.05.2.12.28.21.04.05.03.06-.03.04a.36.36 0 0 1-.15-.12c-.02-.03-.05-.04-.1-.03 0-.02-.03-.03-.04-.01a.4.4 0 0 0-.11-.1.15.15 0 0 1-.07-.07c-.08-.23-.25-.35-.5-.35-.05 0-.1-.03-.12-.07-.05-.1-.08-.09-.1.01 0 .14-.09.23-.23.29-.1.04-.1.07 0 .1.13.05.26.08.4.1.02 0 .03 0 .02.03l-.02.03c-.01.01-.02.02-.04.01a2.1 2.1 0 0 0-.73-.13.17.17 0 0 1-.1-.03.62.62 0 0 0-.3-.1c-.03-.01-.05-.02-.05-.05a.1.1 0 0 1 .01-.04c.03-.02.06-.02.09 0 .33.2.6.17.84-.1a.35.35 0 0 0 .09-.21c0-.03-.01-.04-.03-.04h-.04a.27.27 0 0 1 0-.13c.09-.04.08-.13 0-.28a.7.7 0 0 1 .18.22c.02.04.05.05.1.03.08-.04.13-.1.13-.19 0-.08-.03-.1-.1-.04l-.02.03c-.05.04-.06.03-.04-.03l.12-.37.04-.03h.04c.05.02.05 0 .02-.03a.22.22 0 0 0-.16-.07c-.04 0-.1.03-.21.1l-.2.09c-.05.01-.07.04-.06.08.01.03.04.06.08.1A.6.6 0 0 1 7 5.92c-.1-.21-.27-.3-.5-.26-.07.01-.11.03-.13.07-.03.05-.03.1 0 .16a.33.33 0 0 0-.24.03c.1-.06.16-.14.18-.23 0-.04.03-.06.07-.07.14-.02.29-.02.43.01.05.01.08.03.1.07a.4.4 0 0 0 .2.17c.15.06.32 0 .5-.19.05.04.11.03.18-.01.03-.02.06-.02.07.01.01.01.03.02.04.01.03 0 .05-.02.06-.05l.03-.07c.12-.32.12-.56.02-.73-.1-.15-.24-.28-.42-.38.05-.03.11-.03.17.01.35.23.47.53.35.9L8 5.73c-.01.03 0 .06.02.09s.02.07 0 .1c-.03.02-.04.02-.06 0h-.03l-.03.01c-.08.1-.08.19 0 .28a.1.1 0 0 1 .01.13.7.7 0 0 1-.18.22c-.1.08-.08.13.04.17.26.07.46.22.61.43Z" fill="#795918"/><path d="M11.12 4.87a.4.4 0 0 0-.22 0c-.16.05-.34.08-.54.09-.32.01-.5.3-.56.87a.31.31 0 0 0-.1.07c-.02.02-.04.02-.06 0v-.05c.1-.2.18-.4.23-.58.06-.22.28-.35.66-.4.18-.03.3-.06.38-.1a.16.16 0 0 1 .13 0c.06.02.08.06.08.1Z" fill="#524C3B"/><path d="m11.12 4.87-.01.02a.05.05 0 0 0-.04.05c0 .03.02.05.05.06.43.16.61.44.55.83 0 .02 0 .04.02.05h.03l.06.1c.02.06 0 .1-.07.12l-.07-.04c-.08-.25-.26-.3-.56-.19-.03.02-.06.01-.08-.02-.2-.23-.43-.26-.69-.1-.13.1-.15.22-.06.38v.04c-.02.13.06.22.23.27l.02.02v.03c0 .01-.01.02-.03.02l-.35.03a.08.08 0 0 0-.06.03v.05c-.24.1-.34.26-.3.5l.03.21c.02.24 0 .42-.05.54l-.37-.31a.1.1 0 0 1-.04-.1c0-.07 0-.13-.03-.18.13-.1.2-.22.22-.37l.15-.21c.02-.03.02-.06-.01-.09-.07-.06-.09-.13-.06-.21.02-.08.09-.12.19-.13.04 0 .05-.02.02-.05a.13.13 0 0 0-.03-.03v-.03c.02-.08.08-.16.2-.24.06-.05.08-.11.05-.19-.02-.03-.04-.03-.06 0l-.13.14c0-.03-.02-.04-.04-.04.05-.57.24-.86.56-.87.2 0 .38-.04.54-.09a.4.4 0 0 1 .22 0Z" fill="#FFCA0B"/><path d="M11.1 4.9c.03.04.1.09.19.12l.1.05c.3.2.41.47.33.82h-.03a.06.06 0 0 1-.02-.06c.06-.4-.12-.67-.55-.83-.03-.01-.05-.03-.05-.06 0-.02.01-.04.04-.05ZM6.42 5.07c.2-.01.33.04.4.17-.32-.18-.53-.12-.61.2 0-.2.07-.31.2-.37Z" fill="#795918"/><path d="M7.28 5.5h.05c.02.02.03.05.03.07 0 .03-.02.05-.04.06-.04.02-.06 0-.07-.03-.01-.04 0-.07.03-.1ZM6.46 5.37h.05c.02.02.03.05.03.08 0 .02-.02.04-.04.05-.04.02-.06 0-.07-.03-.02-.04 0-.07.03-.1Z" fill="#524C3B"/><path d="M7 5.92c-.23.03-.44.02-.64-.03-.02-.06-.02-.1 0-.16.03-.04.07-.06.14-.07.23-.04.4.05.5.26Z" fill="#FFCA0B"/><path d="M9.78 6.16c-.01-.1 0-.2.06-.29l.13-.14c.02-.03.04-.03.06 0 .03.08.01.14-.05.19-.12.08-.18.16-.2.24ZM11.64 6.06c-.22-.21-.41-.24-.58-.09-.04.03-.06.03-.08-.01-.1-.21-.27-.28-.54-.2-.15.04-.2.13-.17.27.02.05 0 .08-.02.1-.1-.16-.07-.29.06-.38.26-.16.49-.13.69.1.02.03.05.04.08.02.3-.12.48-.06.56.2Z" fill="#524C3B"/><path d="M7.44 6.21c0-.07-.03-.1-.07-.11-.04-.04-.07-.07-.08-.1 0-.04 0-.07.06-.08l.2-.1c.1-.06.17-.09.2-.09.08 0 .13.03.17.07.03.04.03.05-.02.03h-.04a.05.05 0 0 0-.04.03l-.12.37c-.02.06 0 .07.04.03l.02-.03c.07-.06.1-.04.1.04 0 .09-.05.15-.13.19-.05.02-.08 0-.1-.03a.7.7 0 0 0-.19-.22Z" fill="#FFCA0B"/><path d="m5.35 6.82-.18.05a.56.56 0 0 1-.35-.12c-.02-.03-.03-.06-.01-.09.03-.07.04-.11.01-.13a.7.7 0 0 0-.23-.06c-.01-.28.1-.47.32-.57a.42.42 0 0 1 .23-.02.8.8 0 0 0 .1.01.2.2 0 0 1 .13.04c.33.27.33.57-.02.9Z" fill="#D77780"/><path d="M6.36 5.89c.2.05.41.06.64.03a.6.6 0 0 0 .37.18c.04 0 .07.04.07.11.1.15.1.24.02.28a.17.17 0 0 1-.04-.05c0-.04-.02-.06-.05-.07H7.3c-.24.06-.48.09-.72.07-.03 0-.05 0-.06.02a.1.1 0 0 0-.02.03c-.06 0-.08 0-.06-.02l-.6-.22.06-.03c.03-.01.05-.04.05-.07 0-.12.07-.2.19-.23a.32.32 0 0 1 .23-.03Z" fill="#D6AF7F"/><path d="M11.71 6.1c.07-.02.1-.06.07-.12.03-.05.06-.05.09.02l-.01.05a.75.75 0 0 0-.17.42h-.04c-.02 0-.03-.01-.02-.03l.08-.34Z" fill="#524C3B"/><path d="M10.24 6.17c.19.27.42.32.69.16a.1.1 0 0 1 .1 0l.37.15c.05.02.08.05.1.09.02.05.01.1-.03.13 0-.1-.12-.2-.34-.27a1.47 1.47 0 0 1-.07-.02.2.2 0 0 0-.17 0l-.14.08c-.07.03-.06.05 0 .08.14.05.27.12.38.22a2.9 2.9 0 0 1-.3-.12.72.72 0 0 0-.3-.08c-.16 0-.32.01-.47.03v-.05a.08.08 0 0 1 .06-.03l.35-.03c.02 0 .03 0 .03-.02v-.03l-.02-.02c-.17-.05-.25-.14-.24-.27ZM9.78 6.19l.03.03c.03.03.02.05-.02.05-.1 0-.17.05-.2.13-.02.08 0 .15.07.21.03.03.03.06.01.09l-.15.21c0-.03.01-.08.04-.13l.04-.1a.14.14 0 0 0-.04-.09.12.12 0 0 1-.03-.06c-.02-.16.06-.28.25-.34Z" fill="#795918"/><path d="m5.83 6.25.6.22c-.26.03-.46-.05-.6-.22Z" fill="#696868"/><path d="M7.42 6.44c-.17-.02-.34 0-.5.08a.2.2 0 0 1-.11.01l-.14-.02c-.05 0-.09.01-.12.05-.02.05-.02.09.02.13.06.06.15.09.25.07.03 0 .05-.02.05-.05v-.04c0-.08.01-.08.04 0l.02.04c.01.04.04.06.09.06.13 0 .2-.05.22-.15 0-.05.03-.06.06-.01l.04.05c.02 0 .03.02.02.03-.16.1-.28.13-.38.13H6.6c-.04.01-.07 0-.1-.03l-.03-.03c-.02-.02-.05-.02-.07.01l-.01.04c-.06.03-.09.01-.1-.05 0-.03.02-.05.05-.05.12-.03.16-.1.14-.22l.02-.03a.06.06 0 0 1 .06-.02c.24.02.48 0 .72-.07h.08c.03 0 .05.03.05.07Z" fill="#795918"/><path d="M11.47 6.7c-.03.01-.04.03-.04.04-.2-.04-.28-.03-.21.04h-.09c-.11-.09-.24-.16-.38-.21-.06-.03-.07-.05 0-.08l.14-.07a.2.2 0 0 1 .17-.01l.07.02c.22.08.33.17.34.27Z" fill="#FFCA0B"/><path d="m7.42 6.44.04.05a.28.28 0 0 0 0 .14c-.03.02-.07.03-.12.03L7.3 6.6c-.03-.05-.05-.04-.06.01-.02.1-.1.15-.22.15-.05 0-.08-.02-.09-.06a.53.53 0 0 0-.02-.05c-.03-.07-.04-.07-.03.01v.04c-.01.03-.03.04-.06.05-.1.02-.19 0-.25-.07-.04-.04-.04-.08-.02-.13.03-.04.07-.06.12-.05l.14.02a.2.2 0 0 0 .1-.01c.17-.07.34-.1.51-.08Z" fill="#FEFEFD"/><path d="M4.6 6.47c.07 0 .14.02.22.06a5.35 5.35 0 0 1-.35.35h.04a.3.3 0 0 1 .25-.05c.08.02.1.05.08.1-.08-.01-.15 0-.2.04-.03.03-.03.05.03.05.05 0 .09 0 .13-.02.04-.01.07 0 .09.04a.9.9 0 0 0 .07.13c.05.05.06.05.04-.02a.7.7 0 0 0-.07-.19c.02-.03.1-.06.24-.1l.18-.04-.1.31a.13.13 0 0 0 0 .1c.04.1.04.2 0 .32-.08.07-.1.14-.04.22l.04.08v.1c.03.17.06.27.12.32.05.05.06.04.05-.02a1.75 1.75 0 0 1-.08-.46c-.06-.05-.04-.12.06-.22.08-.02.12-.08.13-.18.15-.12.33-.21.55-.29.1-.05.21-.1.37-.12 0-.02.01-.02.05 0a.1.1 0 0 0-.01.03c0 .03.02.04.04.04.12.01.22.05.31.11.03.02.06.03.1.03.24 0 .48.04.73.13l.04-.01.02-.03c0-.02 0-.03-.02-.04a2.36 2.36 0 0 1-.4-.09c-.1-.03-.1-.06 0-.1.14-.06.22-.15.24-.29 0-.1.04-.1.09-.01.02.04.07.07.13.07.24 0 .4.12.49.35.01.03.03.06.07.07a.4.4 0 0 1 .1.1c-.07-.01-.12 0-.15.02s-.03.04 0 .07c.05.02.1.03.15.01.02 0 .04-.02.04-.05l.02-.04c.04-.01.07 0 .1.03.03.05.08.09.14.12.06.02.07 0 .03-.04a.7.7 0 0 0-.28-.21.13.13 0 0 1-.05-.05.15.15 0 0 0-.05-.04l.08-.02c.17.04.33.1.48.18.03.01.05.04.07.07.04.11.07.23.08.36v.03c0 .02 0 .03.02.02l.03-.02a.1.1 0 0 1 .1 0c.18.08.27.24.27.45 0 .12.01.2.03.27a.53.53 0 0 1-.09.21c-.08.02-.15 0-.2-.05a.08.08 0 0 0-.05-.02c-.05 0-.05.01-.02.04.05.04.05.1.02.14a.2.2 0 0 0-.03.1l-.01.49c0 .01 0 .02.02.01h.04l.01-.02c0-.15 0-.33.02-.54 0-.08.05-.1.13-.07l.07.01.04.1.01.21v.21l-.03.23a.32.32 0 0 0-.09.14c0 .04 0 .07.02.1l.22.26-.12.36.14.22c0 .07 0 .13-.04.16s-.08.03-.11 0l-.08-.04c-.05-.04-.09-.03-.1.03a.14.14 0 0 1-.08.1.12.12 0 0 1-.1 0l-.26-.1a.42.42 0 0 0-.27-.18c-.03 0-.05.01-.06.06-.03-.01-.05-.04-.05-.1v-.17c0-.22.06-.37.18-.45a.14.14 0 0 0 .05-.08c.02-.06 0-.09-.03-.1-.12-.07-.18-.16-.2-.26-.02-.06 0-.07.04-.02l.07.09a.6.6 0 0 0 .05.08h.01v-.01a1.7 1.7 0 0 1-.18-.42.11.11 0 0 1 .03-.11l.01-.03c.02-.04.01-.06-.04-.07a.37.37 0 0 1-.28-.16c-.02-.03-.04-.03-.06 0-.1.19-.26.31-.49.39-.04.01-.06.04-.06.08v.15c0 .04 0 .07-.03.1a.17.17 0 0 0-.03.15c0 .03.03.03.05.01.04-.03.09-.04.13 0 .06.03.05.03-.01.02h-.04a2.59 2.59 0 0 1-.96.5h-.47l-.07-.06c0-.06-.05-.08-.18-.06l-.1-.06c0-.11-.05-.25-.16-.4v-.2a.18.18 0 0 0-.04-.12.14.14 0 0 1-.03-.1c0-.03 0-.07.03-.1.06-.08.06-.17 0-.27V8.7c0-.04-.03-.05-.06-.02-.03.03-.04.06-.04.1h-.05c0-.03 0-.05-.03-.06h-.05l-.56.26a.1.1 0 0 1-.11-.02l-.32-.29a.94.94 0 0 1 .1-.88c.02-.03 0-.07-.05-.13l-.2-.36.04-.65.24-.2Z" fill="#FFCA0B"/><path d="m6.03 6.9-.53.12c-.06.02-.07 0-.03-.04.14-.15.25-.3.32-.46 0-.02.02-.03.05-.02l.22.09c.05.01.07.04.07.09v.11c0 .06-.03.1-.1.12Z" fill="#3D719C"/><path d="M11.13 6.78h.09c.2 0 .3.13.25.37-.02.13-.1.18-.24.16a.7.7 0 0 1-.32-.15 2.3 2.3 0 0 0-.62-.37c-.16-.07-.27-.04-.33.09-.1.16-.01.3.24.43.06.1.14.16.25.16l.06.01.04.04c.02.04.04.05.08.05.06 0 .1-.04.1-.09.05.04.09.05.12.04.03.07.01.11-.04.13a.17.17 0 0 1-.16-.03.1.1 0 0 0-.1-.02c-.23.06-.42 0-.55-.17-.2-.27-.22-.48-.07-.63.08-.07.12-.13.13-.18.15-.02.31-.03.47-.03.1 0 .2.03.3.08l.3.11Z" fill="#D6AF7F"/><path d="M10.06 6.62c-.01.05-.05.1-.13.18-.15.15-.13.36.07.63.13.18.32.23.55.17a.1.1 0 0 1 .1.02c.04.03.1.04.16.03.05-.02.07-.06.04-.13l.07-.16c.06 0 .07 0 .04-.02v.23a.1.1 0 0 1-.03.08l-.22.17c-.37.1-.67-.06-.92-.49l-.03-.2c-.04-.25.06-.42.3-.51Z" fill="#795918"/><path d="M11.43 6.74c.07.1.1.22.1.36l.02.1c-.12.2-.32.25-.59.14.03.02.02.02-.04.02a.45.45 0 0 0-.14-.04.2.2 0 0 1-.11-.05 8.62 8.62 0 0 0-.4-.35c-.08-.08-.17-.08-.25 0a.08.08 0 0 0-.02.1c.05.1.13.2.25.28l-.05.01c-.25-.12-.33-.27-.24-.43.06-.13.17-.16.33-.1.23.1.43.22.62.38.09.08.2.13.32.15.14.02.22-.03.24-.16.04-.24-.04-.37-.25-.38-.07-.06 0-.07.21-.03Z" fill="#524C3B"/><path d="M9.52 6.91a.48.48 0 0 1-.22.37c.02-.12.1-.24.22-.37ZM4.84 6.93c.07-.01.1 0 .09.03a.7.7 0 0 1 .07.19c.02.07 0 .07-.04.02a.9.9 0 0 1-.07-.13c-.02-.04-.05-.05-.1-.04a.35.35 0 0 1-.12.02c-.06 0-.06-.01-.02-.05.04-.04.1-.05.2-.04Z" fill="#795918"/><path d="M9.12 7.7c0 .02-.02.04-.03.05 0-.13-.04-.25-.08-.36a.16.16 0 0 0-.07-.07c-.15-.09-.3-.14-.48-.18 0-.05.01-.07.05-.07.44.07.64.28.6.63Z" fill="#E28C10"/><path d="M12.68 7.96c.04.01.04.04.02.08L12.65 8a.1.1 0 0 1-.05-.08l-.02-.2c.05-.1.03-.19-.04-.28a.83.83 0 0 0-.72-.3.6.6 0 0 1-.2-.03c.02-.03.05-.05.1-.05.4-.03.7.1.89.38.04.07.07.18.07.33v.18Z" fill="#524C3B"/><path d="M6.08 7.1c-.22.08-.4.17-.55.29.08-.19.26-.28.55-.29Z" fill="#795918"/><path d="m11.54 7.1.08.02a.6.6 0 0 0 .2.03c.3-.02.54.09.72.3.07.1.09.18.04.28-.05.02-.09.01-.1-.04-.08-.25-.3-.4-.65-.44a3.08 3.08 0 0 1-.28-.04l-.01-.11Z" fill="#FEFC8F"/><path d="m11.55 7.2.28.05c.35.04.57.2.65.44.01.05.05.06.1.04l.02.2c0 .03.02.06.05.08l.05.03.52.45c0 .23.06.43.15.6l.05.07-.02.06c-.02.04-.01.07.02.1.06.07.06.13 0 .19-.04.03-.04.06-.02.09a1 1 0 0 1 .17.4l-.17.74-1.23.83a.14.14 0 0 1-.11.02c-.1-.02-.19 0-.24.09a.14.14 0 0 0-.03.1c.03.21-.06.36-.27.43l-.83-.12a.3.3 0 0 1-.1-.04c-.08-.04-.14-.05-.2-.02-.04 0-.07 0-.07-.02l-.7-.1c-.05.01-.06 0-.01-.03 0-.03-.01-.05-.05-.06-.12-.06-.3-.11-.55-.16.07 0 .07-.02.01-.04a.2.2 0 0 0-.05-.08c-.03-.03-.06-.03-.07 0l-.09.18c-.02.04-.05.06-.1.06a.31.31 0 0 1-.15-.05l.2-.55c.01-.03.04-.05.08-.06.07-.02.18-.02.3-.01.2.01.45-.05.72-.2.14.08.25.19.33.31.1.15.2.2.28.14l.28.22c.01.02.03.01.04 0l.02-.03c.02-.02.01-.03-.01-.04a1.56 1.56 0 0 1-.62-.6.12.12 0 0 0-.07-.05.37.37 0 0 1-.16-.11c-.03-.05-.02-.07.04-.06.18 0 .36.05.54.12.06.02.1 0 .1-.04 0 0 0-.02-.03-.04-.03-.06-.02-.1.03-.14l.02-.02a.5.5 0 0 1-.18-.15c0-.04.05-.08.16-.12a.22.22 0 0 1 .1-.01c.05 0 .07.03.07.07 0 .06-.02.1-.06.15-.03.03-.02.04.01.05h.05c.08-.16.12-.33.15-.5 0-.06 0-.1-.04-.15-.04-.05-.05-.04-.06.01 0 .07.01.14.03.2.02.03.01.06 0 .08a.18.18 0 0 1-.04.04.08.08 0 0 1-.1 0l-.24-.17a.12.12 0 0 0-.11-.01c-.1.03-.16.01-.2-.05 0-.18.03-.26.08-.22.24.1.46.09.66-.01a.2.2 0 0 1 .1-.03c.11 0 .24-.07.4-.22l.11-.1c.12 0 .23-.02.34-.07 0 .12.04.2.1.25 0 .07-.03.16-.1.26l-.14.11c-.04.03-.07.03-.1 0l.02-.09c.05-.13.04-.24-.04-.32-.01-.02-.02-.02-.04 0l-.02.02c-.02.02-.02.04.01.06.05.03.06.06.03.1a.14.14 0 0 0-.04.1c0 .1-.03.18-.09.23a.72.72 0 0 0-.33.15c-.03.03-.03.05.02.07.06.02.15 0 .26-.06.03.15-.02.27-.16.35a.18.18 0 0 1-.1.03h-.23c-.1 0-.12.02-.03.08.08.05.17.1.26.12.04 0 .07.03.07.06l.03.11a.18.18 0 0 1-.06.06l-.02-.02c-.03-.02-.04-.01-.06.01a.34.34 0 0 1-.2.17c-.03.01-.04.03-.05.05l.01.04.06.03c.13-.03.19 0 .17.07.12.15.16.3.11.48 0 .05-.05.07-.13.06v-.36c0-.05-.03-.06-.08-.04l-.09.04c-.04.02-.04.04 0 .07.04.03.06.07.05.13-.01.04 0 .07.02.1.03.03.06.05.1.06.02.07.05.11.12.11l.36.01c.06 0 .09-.03.09-.08v-.32a.09.09 0 0 0-.04-.08.94.94 0 0 1-.22-.18h-.02l-.03.02v.01c.18.14.24.3.2.5 0 .03-.03.04-.05.04h-.04c-.03-.01-.05-.03-.05-.06.02-.21-.07-.39-.27-.52l.19-.13.16-.04a.34.34 0 0 0 .18-.14c.1.04.16 0 .2-.1.09-.06.17-.14.24-.24.2-.28.34-.6.45-.94l.34-.17c.03-.01.04-.03.03-.05l-.02-.03c0-.02-.02-.03-.05-.03-.05 0-.1.02-.13.05-.02-.07-.04-.1-.05-.1a.86.86 0 0 1-.14-.28c-.04-.1-.02-.16.06-.18.02 0 .03-.02.05-.03.04-.04.05-.08.02-.1-.03-.04-.06-.04-.08 0a.12.12 0 0 1-.08.07c-.05.02-.08 0-.06-.06l.03-.1a.46.46 0 0 0 .04-.17.56.56 0 0 0-.15-.34l.2-.14c.03-.03.02-.04-.01-.05a.44.44 0 0 0-.35.02l-.09.02-.03-.02a.11.11 0 0 1-.06-.06c-.13-.27-.37-.4-.72-.4a.73.73 0 0 0-.06.46c0 .04.03.06.08.04a.88.88 0 0 0 .22-.11.23.23 0 0 1 .2-.04.2.2 0 0 1 .15.14l.16.44c.01.02.03.02.05.02.04 0 .06-.02.05-.06 1.86-.08 1.86-.07 0 .03.06.12.07.21.05.28l-.03-.06c-.28.25-.51.34-.68.27l-.4-.65c-.01-.03 0-.06.03-.08l.13-.07c.06-.04.05-.05-.02-.05-.06 0-.1.03-.15.06a.19.19 0 0 1-.1.05h-.1a.15.15 0 0 0-.09-.05l.03-.27c.08-.05.12-.12.12-.19 0-.03-.01-.04-.04-.02-.04.02-.06.06-.06.1 0 .05-.02.06-.07.04-.03-.02-.06-.05-.07-.11l.22-.17a.1.1 0 0 0 .04-.08v-.23c.26.1.46.06.58-.13Z" fill="#FFCA0B"/><path d="M10.2 7.31h.05c.14.1.3.15.49.17-.01.05-.05.08-.1.09-.05 0-.07-.01-.1-.05a.08.08 0 0 0-.03-.04.16.16 0 0 0-.06 0 .27.27 0 0 1-.25-.17Z" fill="#795918"/><path d="m4.91 7.4.02-.02c.03-.05.06-.05.07.01l.01.04c0 .01 0 .02-.02.02h-.15a.13.13 0 0 1-.1 0 .08.08 0 0 1-.05-.08c0-.04.01-.05.06-.02l.08.06c.03.02.06.01.08 0Z" fill="#524C3B"/><path d="M8.43 7.34c.02-.02.04-.01.06.01a.09.09 0 0 0-.02.04c0 .03-.02.04-.04.05a.16.16 0 0 1-.15-.01c-.03-.03-.03-.05 0-.07.03-.02.08-.03.15-.02Z" fill="#FEFC8F"/><path d="M9.79 7.33c.25.43.55.59.92.49.01.06.04.1.07.11.05.02.07 0 .07-.04s.02-.08.06-.1c.03-.02.05-.01.04.02 0 .07-.04.14-.12.19a.61.61 0 0 1-.5.02c-.05-.02-.08 0-.1.03l-.03.05c-.1 0-.19.03-.27.07l-.11.03-.08-.33c.05-.12.07-.3.05-.54Z" fill="#E28C10"/><path d="M6.52 7.4c.01-.02.02-.03.04-.03s.03.02.01.04a.72.72 0 0 0-.2.43c0 .02 0 .02-.02 0l-.03-.02c-.01-.01-.02-.03-.01-.04l.12-.33c0-.02.02-.04.04-.04l.05-.01ZM5.26 7.55l.14.02c-.1.1-.12.17-.06.22 0 .17.03.32.08.46.01.06 0 .07-.05.02-.06-.04-.1-.15-.11-.33l-.01-.09a.18.18 0 0 0-.04-.08c-.05-.08-.04-.15.05-.22ZM12.12 8.13l-.01.04a.1.1 0 0 0 0 .1c.05.07.09.15.12.25l-.01.03-.05.02c1.85-.1 1.85-.11-.01-.03a2.29 2.29 0 0 0-.23-.53.6.6 0 0 0-.27-.23c-.1-.05-.22-.1-.35-.14.35 0 .6.14.72.41 0 .03.03.05.06.06l.03.02Z" fill="#524C3B"/><path d="M11.3 7.64c.14.04.26.09.36.14.11.05.2.13.27.23.1.17.17.34.23.53 0 .04-.01.06-.05.06-.02 0-.04 0-.05-.02l-.16-.44a.2.2 0 0 0-.15-.14.23.23 0 0 0-.2.04.88.88 0 0 1-.22.11c-.04.02-.07 0-.08-.04a.73.73 0 0 1 .06-.47Z" fill="#FEFC8F"/><path d="M9.12 7.7c.42.08.57.35.42.8a.9.9 0 0 1-.03-.27c0-.21-.1-.37-.28-.45a.1.1 0 0 0-.1 0l-.02.02c-.02 0-.03 0-.03-.02v-.03a.09.09 0 0 0 .04-.05Z" fill="#795918"/><path d="M8.05 8.13a.88.88 0 0 0-.21.24H7.8c-.02 0-.02-.01-.01-.03l.16-.23A.13.13 0 0 0 7.97 8a8.85 8.85 0 0 1-.01-.14h.01c.04.1.1.18.2.22.04.02.03.03-.01.05h-.11Z" fill="#524C3B"/><path d="M12.68 7.96c.27.16.5.35.67.57.07.1.11.2.12.3 0 .1 0 .22-.02.33h-.03l-.05-.08c.08-.24.03-.44-.15-.59l-.52-.45c.02-.04.02-.07-.02-.08Z" fill="#E28C10"/><path d="m10.83 8-.03.27a.06.06 0 0 1-.03 0h-.04a.67.67 0 0 0-.44-.1l-.1-.07.04-.05c.02-.04.05-.05.1-.03a.6.6 0 0 0 .5-.02ZM12.37 8.28c.04-.1-.01-.15-.16-.17.1-.06.21-.06.35-.02.03 0 .04.02 0 .05l-.19.14Z" fill="#524C3B"/><path d="m12.12 8.13.1-.02c.14.02.2.08.15.17.1.12.15.23.15.34 0 .04-.01.1-.04.18a.75.75 0 0 0-.03.1c-.02.05 0 .07.06.05.04 0 .06-.03.08-.06.02-.05.05-.05.08-.01.03.02.02.06-.02.1a.13.13 0 0 1-.05.03c-.08.02-.1.08-.06.18-.1-.09-.1 0-.03.25.02.07.07.1.15.07l.02-.04c.01 0 .03.03.05.1a.9.9 0 0 1-.3.24.1.1 0 0 1-.1 0l-.36-.2c-.05-.04-.08-.13-.1-.25.27-.12.38-.3.34-.5.02-.08 0-.17-.04-.3h.05a.04.04 0 0 0 0-.04c-.02-.1-.06-.18-.1-.26a.1.1 0 0 1-.01-.09l.01-.04Z" fill="#E28C10"/><path d="M9.93 8.17c.1.02.22.02.36 0 .17-.02.32.01.44.1h.07c.04 0 .07.03.09.06.27.25.46.54.55.86 0 .03 0 .04-.03.04-.05 0-.08-.02-.09-.06a.76.76 0 0 0-.48-.57 8.73 8.73 0 0 0-1.02-.36V8.2l.11-.03Z" fill="#FEFC8F"/><path d="m11.5 9.06.08.25c.02.05.05.07.11.05.3-.1.47-.28.49-.57l.03.06c.04.22-.07.39-.33.5a.72.72 0 0 1-.34.07l-.07-.03a.26.26 0 0 0-.03-.2c-.1-.32-.28-.61-.55-.86l.1-.01c.04 0 .07-.02.1-.05.04-.03.1-.05.15-.06.07 0 .08.01.02.05l-.13.07c-.03.02-.04.05-.02.08l.39.65Z" fill="#524C3B"/><path d="M9.82 8.24c.35.1.69.22 1.02.36.27.11.43.3.48.57.01.04.04.06.1.06.01 0 .02-.01.02-.04.04.07.05.13.03.2a.2.2 0 0 1-.12.1 2.65 2.65 0 0 1-1.55-.31.5.5 0 0 0-.05-.23.55.55 0 0 1-.04-.18c0-.17.03-.35.1-.53Z" fill="#FFCA0B"/><path d="M6.16 8.94a.5.5 0 0 1 0-.4.16.16 0 0 0 .02-.1c-.01-.05 0-.09.05-.12.04-.03.05-.02.05.02a.73.73 0 0 1-.1.27.15.15 0 0 0 0 .1c0 .1.05.18.12.26L6.25 9c-.04 0-.07-.01-.09-.05Z" fill="#795918"/><path d="M13.22 8.5c.18.14.23.34.15.59a1.37 1.37 0 0 1-.15-.6Z" fill="#FEFC8F"/><path d="M9.45 8.71a.1.1 0 0 1 0 .09h-.07c-.08-.05-.12-.02-.13.06a3.9 3.9 0 0 0-.03.55l-.04.01c-.02 0-.03 0-.02-.01v-.48a.2.2 0 0 1 .04-.1c.03-.06.03-.1-.02-.15-.03-.03-.03-.04.02-.04.02 0 .04 0 .06.02.04.05.1.07.19.05Z" fill="#E28C10"/><path d="m4.46 8.68.32.29a.1.1 0 0 0 .1.02l.57-.26h.05c.02.01.04.03.03.06l-.64.25a.1.1 0 0 1-.1-.01l-.39-.31c0-.02.02-.04.06-.04Z" fill="#795918"/><path d="M12.18 8.8c-.02.28-.18.47-.49.56-.06.02-.1 0-.1-.05l-.1-.25c.18.07.4-.02.69-.27ZM9.49 8.9c.1.05.13.16.1.32a.71.71 0 0 1-.12.33c0-.08.02-.16.03-.23a.68.68 0 0 0 0-.2 1.6 1.6 0 0 1-.01-.22Z" fill="#E28C10"/><path d="M12.54 9.2c.03.1.07.19.14.28 0 .02-.01.03-.02.03-.08.02-.13 0-.15-.07-.07-.26-.06-.34.03-.25ZM13.42 9.16h.03c0 .1.03.17.07.25.02.03.03.06.03.1 0 .01 0 .02-.02.02-.04 0-.06.03-.05.07l.15.36c.18.39.05.72-.4 1.01-.3.2-.63.4-.97.6-.07.04-.07.08 0 .12l.18.08c.18.06.3.13.33.2.08.15.08.28-.02.4-.18.23-.43.27-.74.1a6.5 6.5 0 0 1-.48-.29l-.01.03c.2-.07.3-.22.27-.43 0-.04 0-.07.03-.1.05-.08.13-.11.24-.1.04.02.07.01.1-.01l1.24-.83c.23-.26.28-.51.17-.75a1 1 0 0 0-.17-.4c-.02-.02-.02-.05.01-.08.07-.06.07-.12 0-.19a.09.09 0 0 1-.01-.1l.02-.06Z" fill="#795918"/><path d="M9.8 9.18c.48.26 1 .36 1.55.3-.27.23-.63.34-1.08.31-.05-.04-.08.04-.08.22h-.08c-.03.02-.04.04-.01.07.08.07.17.1.29.08.04 0 .07 0 .1.02.05.03.1.07.14.12-.1.04-.16.08-.16.12a.82.82 0 0 0-.43-.15c-.07 0-.08 0-.02.04.05.03.11.05.2.06.11.02.2.07.25.15.02.03.05.05.09.06l.07.01c-.05.04-.06.08-.03.14-.26-.02-.53-.1-.82-.22.06-.25.05-.48-.02-.68.06-.07.04-.17-.05-.3l.09-.35Z" fill="#E28C10"/><path d="m7.94 9.38-.1.07c-.04.02-.05 0-.06-.02l.01-.04a.19.19 0 0 1 .13-.05c.06 0 .07.01.02.04ZM6.2 9.45h-.04c-.04.01-.06 0-.06-.04v-.04c.03-.01.05-.02.07 0l.18.11c.03.03.03.04-.01.05-.04 0-.06-.01-.08-.04a.1.1 0 0 0-.06-.04Z" fill="#524C3B"/><path d="M8.13 9.34c.13.13.22.28.28.44.01.03 0 .06-.02.09l-.07.07c-.03.02-.06.02-.08 0l-.3-.29c-.03-.02-.03-.05 0-.08.08-.05.1-.09.06-.13.06.06.1.07.1.04.02-.03.03-.08.03-.14Z" fill="#FFCA0B"/><path d="m11.47 9.4.07.02-.11.11c-.16.15-.29.23-.4.22a.2.2 0 0 0-.1.03c-.2.1-.42.1-.66.01.45.03.8-.07 1.08-.3a.2.2 0 0 0 .12-.1Z" fill="#795918"/><path d="M12.56 9.8c-.27.25-.41.56-.45.94-.07.1-.15.18-.24.24l.48-1.06c.02-.04 0-.07-.05-.08a.36.36 0 0 1-.18-.07c-.04-.03-.08-.03-.12.01a.36.36 0 0 0-.08.1 2.7 2.7 0 0 0-.04-.01c.07-.1.1-.19.1-.26l.34.2a.1.1 0 0 0 .1 0 .9.9 0 0 0 .3-.24.37.37 0 0 1 .14-.05c.03 0 .05 0 .05.03l.02.03c0 .02 0 .04-.03.05l-.34.17Z" fill="#524C3B"/><path d="m11.88 9.87.04.01c-.09.07-.13.17-.14.3a.5.5 0 0 1-.02.17.55.55 0 0 1-.3.3.11.11 0 0 0-.07.1v.13c.01.07.01.11 0 .14v.03c-.03.02-.06.02-.08 0a.23.23 0 0 0-.05-.06l-.03-.1c0-.04-.03-.06-.07-.07a.91.91 0 0 1-.26-.12c-.09-.06-.08-.08.03-.08h.24c.03 0 .07 0 .1-.03.13-.08.18-.2.15-.35 0-.05.01-.1.05-.16.06-.05.1-.13.1-.23 0-.04 0-.07.03-.1.03-.04.02-.07-.03-.1-.03-.02-.03-.04 0-.06l.01-.02c.02-.02.03-.02.04 0 .08.08.09.19.04.32-.02.05-.02.08-.01.09.02.03.05.03.09 0l.14-.11Z" fill="#E28C10"/><path d="M5.72 9.67c.1.15.16.29.15.4-.13-.09-.18-.22-.15-.4Z" fill="#524C3B"/><path d="M8.5 10.56c-.07-.05-.09-.12-.05-.21a.14.14 0 0 0 0-.1.25.25 0 0 1 .1-.3c.1-.06.14-.13.14-.19.04.01.05.04.03.1 0 .03-.02.06-.05.08-.12.08-.18.23-.18.45v.17Z" fill="#E28C10"/><path d="M12.56 9.8c-.1.35-.25.66-.45.94.04-.38.18-.7.45-.94Z" fill="#FEFC8F"/><path d="M10.63 10.3a.53.53 0 0 0-.14-.12.14.14 0 0 0-.1-.02.31.31 0 0 1-.3-.08c-.02-.03-.01-.05.02-.06h.08c.04.05.1.07.2.04.04-.02.08-.01.11.01l.23.17c.04.02.07.02.1 0a.19.19 0 0 0 .04-.04.08.08 0 0 0 .02-.08.47.47 0 0 1-.04-.2c0-.05.02-.06.06-.01.03.04.05.1.04.15-.03.17-.07.34-.15.5h-.05c-.03 0-.04-.02-.01-.05.04-.04.06-.1.06-.15 0-.04-.02-.07-.06-.07h-.1Z" fill="#795918"/><path d="M13.57 10c.11.23.06.48-.17.74l.17-.75Z" fill="#FEFC8F"/><path d="M9.62 10.05c.1.1.06.22-.12.36l.12-.36Z" fill="#E28C10"/><path d="M11.47 10.08a.2.2 0 0 0-.05.16c-.11.06-.2.08-.26.06-.05-.02-.05-.04-.02-.07.1-.07.2-.12.33-.15Z" fill="#795918"/><path d="M11.5 10.43a.42.42 0 0 0 .05-.17c0-.03.02-.05.04-.07l.07-.04c.04-.03.07-.02.06.04a.5.5 0 0 1-.26.42c-.06.04-.08.02-.06-.04 0-.02.02-.05.04-.06a.22.22 0 0 0 .07-.08Z" fill="#FEFC8F"/><path d="m6.23 10.26.47-.01c.14.06.26.05.38-.05h.03v.03a.87.87 0 0 1-.29.12c-.1.02-.3-.01-.6-.1ZM8 10.28c-.23-.05-.4-.03-.54.05-.1.07-.35.27-.73.59.16-.22.37-.4.63-.58a.77.77 0 0 1 .58-.12c.02 0 .03 0 .04.02l.02.04Z" fill="#524C3B"/><path d="m6.1 10.73-.04.03a.84.84 0 0 0-.36-.36c-.06-.03-.1-.02-.12 0a.1.1 0 0 1 0-.09c.03-.03.05-.04.09-.02.22.1.36.24.44.44Z" fill="#795918"/><path d="M10.47 10.42c.05.06.1.11.18.15l-.02.02h-.07a.15.15 0 0 1-.09-.07c-.05-.08-.14-.13-.25-.15a.52.52 0 0 1-.2-.05c-.06-.04-.05-.06.02-.05.18.01.32.06.43.15Z" fill="#524C3B"/><path d="M12.84 10.52a.2.2 0 0 0-.08-.02c-.07-.01-.08-.04-.03-.08a.42.42 0 0 0 .11-.13c.03-.06.04-.06.03.01l-.03.22Z" fill="#795918"/><path d="M8 10.28c.05.02.08.02.1.01-.03.05-.01.1.06.14v.07c.01.05.04.09.09.1.23.11.33.3.3.6a1.1 1.1 0 0 1-.3.63.1.1 0 0 0-.02.1l.01.07-.05.6.07.27c-.06 0-.08.04-.07.12 0 .04.02.05.06.05.08-.02.12.05.1.2 0 .06-.04.11-.1.14l-.38.22a.32.32 0 0 1-.16.05c-.1 0-.19.02-.27.07-.05.03-.1.03-.14 0-.03-.03-.04-.07-.03-.1 0-.07 0-.08-.05-.02-.1.13-.2.14-.29.02-.02-.02-.03-.02-.06 0-.1.07-.2.06-.3-.04-.02-.02-.07 0-.13.07.04-.04.01-.09-.08-.13l.07-.07c.03-.03.03-.04-.02-.03-.14.02-.28.06-.42.11-.1.04-.17 0-.24-.08.02-.07.07-.12.16-.16.07-.03.07-.05-.01-.05h-.03c-.04-.02-.08 0-.1.02a.2.2 0 0 0-.07.1c0 .04-.04.06-.08.06h-.16c-.2-.17-.2-.32 0-.43.06-.07.12-.11.19-.14a.1.1 0 0 1 .1 0c.05.04.09.03.12-.03a.15.15 0 0 0-.02-.17 3.44 3.44 0 0 1-.34-.5c-.04-.08-.03-.15.04-.21.09-.09.09-.17 0-.25a.85.85 0 0 1-.3-.77c.03-.13.13-.3.33-.52.02-.03.06-.03.12 0 .15.08.27.2.36.36.12.14.3.25.54.34.04.01.06.04.06.07l.01.48c0 .03 0 .06-.04.08a.11.11 0 0 1-.03.01c-.04.01-.04.03 0 .05.1.08.2.18.27.3.03.04.05.04.07 0v-.13c-.01-.03 0-.06.04-.1a.57.57 0 0 0 .16-.07c.03-.02.03-.03 0-.02H6.9l-.04-.04a.75.75 0 0 1-.14-.7c.06-.06.06-.1 0-.11.38-.32.62-.52.73-.59.13-.08.31-.1.54-.05Z" fill="#FFCA0B"/><path d="M9.79 10.51c.28.13.55.2.81.22l.03.04c0 .05-.04.06-.1.04a1.77 1.77 0 0 0-.54-.12c-.06 0-.07.01-.04.06.05.05.1.09.16.1l.07.06c.15.26.36.46.62.6.02 0 .03.02.01.04l-.02.03c-.01.01-.03.02-.04 0l-.28-.22-.42-.43c-.05-.05-.1-.07-.15-.06a.56.56 0 0 0-.11-.36ZM12.84 10.52c.03.08.03.15.01.22 0 .04-.03.04-.07.02a.11.11 0 0 1-.04-.05c-.02-.03 0-.05.03-.06.04-.03.06-.07.07-.13Z" fill="#795918"/><path d="M8.87 10.79c0 .12-.1.08-.32-.14.03.1.02.1-.01.01 0-.05.03-.07.06-.06.12.03.21.09.27.19Z" fill="#FEFC8F"/><path d="M9.64 10.63c.06.08.05.15 0 .2a.14.14 0 0 1-.14.03.2.2 0 0 0-.2.05.17.17 0 0 1-.15.03 1.8 1.8 0 0 0-.34-.03c-.14 0-.23-.1-.26-.26.22.22.32.26.32.14l.26.1.1-.01a.14.14 0 0 0 .08-.1c.01-.06.05-.07.1-.03l.08.05c.04.02.07.02.1-.01.04-.03.06-.08.05-.16Z" fill="#795918"/><path d="m6.07 10.76.04-.03c.11.18.32.29.62.3a.75.75 0 0 0 .14.7c-.01.02-.04.03-.07.02-.04 0-.06 0-.06.04 0 .03.02.05.05.07a.4.4 0 0 1 .14.1c.02.05.02.1 0 .12-.01.05-.03.05-.06 0a1.05 1.05 0 0 0-.28-.29c-.03-.02-.03-.04.01-.05a.1.1 0 0 0 .04-.01.09.09 0 0 0 .03-.08l-.01-.48c0-.03-.02-.06-.06-.07-.24-.1-.42-.2-.53-.34Z" fill="#524C3B"/><path d="M9.9 10.87c.05 0 .1.01.15.06l.42.43c-.08.06-.18.01-.28-.14-.08-.12-.2-.23-.33-.32.07-.02.09-.03.04-.03Z" fill="#FEFC8F"/><path d="m11.2 11.05.03.08c.02.1.08.12.17.07a.95.95 0 0 1 .27-.12.34.34 0 0 1-.18.14l-.16.04-.19.13h-.03c.02-.06-.04-.09-.17-.06-.02 0-.04 0-.06-.03a.05.05 0 0 1 0-.04c0-.02.01-.04.04-.05.1-.03.16-.09.2-.17.02-.02.03-.03.06-.01 0 0 .02 0 .02.02Z" fill="#E28C10"/><path d="m12.64 11.07-.23.23h-.03l-.02-.01v-.03c.06-.1.15-.16.25-.22.08-.04.1-.03.03.03Z" fill="#795918"/><path d="m7.98 11.66.1.08c.05.05.04.06-.02.04-.12-.04-.16-.12-.1-.26.05-.14.07-.28.07-.42 0-.07.01-.07.03 0 .05.14.02.3-.1.49-.02.03-.02.05.02.07Z" fill="#524C3B"/><path d="m10.15 11.43-.03.01c-.03.02-.04.02-.03-.02 0-.04.03-.07.08-.09a.1.1 0 0 1 .07 0c.04.03.08.07.1.13l.07.08c.12.1.25.16.4.16.03 0 .04.02.04.04v.04c0 .03-.02.04-.05.03a1.52 1.52 0 0 1-.48-.23.1.1 0 0 1-.05-.08.1.1 0 0 0-.02-.06c-.03-.03-.06-.04-.1-.01ZM11.11 11.4c.06-.01.07-.01.03-.01.2.13.3.3.27.52 0 .03.02.05.05.05h.04c.02.01.04 0 .05-.03.04-.2-.02-.36-.2-.5l.03-.03h.02c.07.07.14.13.22.18.03.02.04.04.04.08v.32c0 .05-.03.08-.09.08h-.36c-.07-.01-.1-.05-.12-.12.08 0 .12-.01.13-.06a.54.54 0 0 0-.1-.48Z" fill="#795918"/><path d="M9.02 11.62c-.1.01-.14.07-.14.17 0 .03-.01.05-.04.07-.04.01-.05.04-.03.07l.07.04c.05 0 .06-.02.03-.06-.02-.01-.01-.03 0-.04h.05l.44.28c.04.03.09.04.14.04.3 0 .62-.01.94-.05.07-.01.07-.03.01-.06l-.1-.05c.06-.03.12-.02.2.02a.3.3 0 0 0 .1.04l.83.12v-.03a.85.85 0 0 0-.13.47.17.17 0 0 0 .08.14c.04.02.04.05.02.09a.42.42 0 0 0-.05.35c.01.02 0 .04-.02.05-.04.03-.08.02-.1-.02a.75.75 0 0 0 0-.28l.02-.03.02-.02c.02-.02.03-.05.02-.08-.06-.24-.2-.44-.4-.6a.2.2 0 0 0-.14-.04l-.55.04c-.05 0-.08.03-.1.08v.04c-.02.05 0 .07.06.06h.25c.09.02.09.04 0 .05l-.14.01c-.26.04-.44.05-.54.02a.14.14 0 0 0-.14.05c-.03.03-.03.06.02.07l.56.2c.06.01.06.03 0 .04a.6.6 0 0 1-.37-.09.98.98 0 0 0-.2-.09c-.11-.02-.14 0-.09.1.05.07.12.12.24.16l.18.09c.07.06.13.13.19.22l-1.1.01a.14.14 0 0 1-.1-.03c-.25-.24-.34-.67-.28-1.3v-.02l-.01-.05c-.02-.02-.04-.03-.07-.03l-.05-.01c-.04-.03-.05-.06-.04-.1.06.03.1.05.15.05.05 0 .08-.02.1-.06l.09-.17c.01-.04.04-.04.07-.01a.2.2 0 0 1 .05.08Z" fill="#3D719C"/><path d="M11.1 11.94a.16.16 0 0 1-.1-.06.12.12 0 0 1-.03-.1c.01-.06 0-.1-.05-.13-.04-.02-.04-.05 0-.07l.09-.04c.05-.02.07 0 .07.04l.02.36Z" fill="#795918"/><path d="M9.02 11.62c.06.02.06.03 0 .04.14.1.34.17.59.22-.05.03-.04.05 0 .03-.01.09.03.13.13.13.27 0 .45 0 .55.02.02 0 .03-.01.03-.05 0 .01.03.02.08.02l.1.05c.05.03.05.05-.02.06-.32.04-.63.06-.94.05a.27.27 0 0 1-.14-.04l-.44-.27a.04.04 0 0 0-.04 0c-.02 0-.03.02-.01.03.03.04.02.06-.03.06a.07.07 0 0 1-.07-.04c-.02-.03 0-.06.03-.07.03-.02.04-.04.04-.07 0-.1.04-.16.14-.17Z" fill="#FEFC8F"/><path d="M9.01 11.66c.25.05.43.1.55.16.04.01.05.03.05.06a1.52 1.52 0 0 1-.6-.22Z" fill="#795918"/><path d="M12.27 11.95c.08.07.12.15.13.24 0 .07.03.08.07.02.05-.05.12-.04.2.04.06.06.05.1-.02.13l-.28.1a.21.21 0 0 1-.15 0 1.58 1.58 0 0 1-.47-.24c-.05-.04-.05-.07.02-.1.02 0 .04 0 .05-.03a.1.1 0 0 0 .03-.05l.04-.31c.02-.08.06-.1.14-.07l.67.3c.01 0 .02.02.01.03l-.01.05c-.01.02-.03.02-.05.01a1.82 1.82 0 0 0-.35-.16c-.06-.01-.07 0-.03.04Z" fill="#FFCA0B"/><path d="m6.87 11.73.04.05c-.03 0-.04 0-.03.03.01.06.05.08.1.06-.03.03-.05.06-.05.1a.4.4 0 0 0-.14-.11c-.03-.02-.05-.04-.05-.07 0-.03.02-.05.06-.04.03 0 .06 0 .07-.02Z" fill="#795918"/><path d="M6.98 11.87c-.05.02-.09 0-.1-.06 0-.03 0-.04.03-.03l.22-.01c.04 0 .04 0 .01.02a.57.57 0 0 1-.16.08Z" fill="#524C3B"/><path d="M10.32 12c0 .05 0 .07-.03.06-.1-.02-.28-.03-.55-.02-.1 0-.14-.04-.12-.13l.7.1Z" fill="#E28C10"/><path d="m8.4 12.69.02-.1c.07-.25.09-.45.06-.57 0-.02 0-.03.02-.04.02 0 .04 0 .04.02v.85c0 .04 0 .05-.04.02l-.08-.08a.1.1 0 0 1-.03-.1Z" fill="#3D719C"/><path d="M11.32 13.26H10.2a1.02 1.02 0 0 0-.2-.22.59.59 0 0 0-.17-.1c-.12-.03-.2-.08-.24-.15-.05-.1-.02-.12.09-.1.05.02.12.04.2.09.14.07.26.1.36.09.07-.01.07-.03 0-.05l-.55-.19c-.05-.01-.05-.04-.02-.07a.14.14 0 0 1 .14-.05c.1.03.28.02.54-.02l.14-.01c.09-.01.09-.03 0-.04a.82.82 0 0 0-.25-.01c-.05 0-.08-.01-.06-.06v-.04c.02-.05.05-.07.1-.08l.55-.04c.05 0 .1 0 .14.04.2.16.34.36.4.6.01.03 0 .06-.02.08l-.02.02-.01.03c.01.1 0 .2-.01.28ZM9.1 12.76l-.04-.01-.01-.03c.16-.1.28-.22.34-.37a.07.07 0 0 1 .06-.04h.05c.01.02.02.03.01.05-.05.17-.19.3-.4.4Z" fill="#80B5DF"/><path d="m6.94 12.88-.17-.26a.04.04 0 0 1 0-.04l.1-.2h.02l.37.42c.06.07.04.12-.05.15-.22.06-.41.16-.58.3-.06.04-.07.04-.03-.03a.74.74 0 0 1 .3-.23c.06-.03.07-.07.04-.11Z" fill="#524C3B"/><path d="m8.26 12.87.14.16c.09.09.09.17 0 .26-.12.14-.28.26-.48.37a.94.94 0 0 1-.28.08l-.24.06a.14.14 0 0 1-.12 0 .33.33 0 0 0-.18-.05c-.25.02-.47-.01-.66-.1.06-.07.1-.1.13-.07.1.1.2.11.3.04.03-.02.04-.02.06 0 .1.12.2.11.29-.02.04-.06.06-.05.05.02-.01.03 0 .07.03.1.04.03.09.03.14 0a.56.56 0 0 1 .27-.07c.06 0 .1-.02.16-.05l.38-.22c.06-.03.1-.08.1-.15.02-.14-.02-.2-.1-.2-.04.01-.06 0-.06-.04-.01-.08 0-.12.07-.12Z" fill="#E28C10"/><path d="M5.46 12.99c-.2.11-.2.26 0 .44.13-.01.22 0 .29.02.07.09.15.12.24.08.14-.05.28-.1.42-.11.05-.01.05 0 .02.03l-.07.08a2.4 2.4 0 0 1-1.3-.14c-.04-.01-.05-.04-.03-.07 0-.02.03-.03.06-.05.01.04.03.06.06.07.04.01.07 0 .09-.04.02-.04 0-.09-.04-.14.08-.13.16-.2.26-.17Z" fill="#795918"/><path d="M5.75 13.45a.63.63 0 0 0-.29-.02l.16-.01c.04 0 .07-.02.08-.06a.2.2 0 0 1 .07-.1.11.11 0 0 1 .1-.03h.03c.08.01.08.03 0 .06-.08.04-.13.1-.15.16Z" fill="#E28C10"/><defs><linearGradient id="agy5gee5l" x1="16.26" y1="3.53" x2="0" y2="15.74" gradientUnits="userSpaceOnUse"><stop stop-color="#18F397"/><stop offset="1" stop-color="#9443F7"/></linearGradient></defs></svg>