<!-- by TradingView --><svg width="18" height="18" fill="none" xmlns="http://www.w3.org/2000/svg"><path fill="url(#paint0_linear_1530)" d="M0 0h18v18H0z"/><path fill-rule="evenodd" clip-rule="evenodd" d="M11.998 5a1 1 0 00-.998.938v4.61h-.001C10.965 11.354 10.083 12 9 12c-.87 0-1.611-.417-1.886-1H9v-1h.996V8.6H7.464V11H6.23V9.8H7h-.77V8.6h1.23V6.2H6.23v2.119V5C5.552 5 5 5.551 5 6.23V11h.016C5.2 12.682 6.913 14 9 14c2.087 0 3.8-1.318 3.984-3H13V5h-1.002zM8.773 5H7.462v1.2H8.77v1.2H10V6.2H8.774V5z" fill="#FEFEFE"/><path fill="#5794CD" d="M7.462 7.4h1.304v1.2H7.462zM6.233 9.8h1.228V11H6.233z"/><defs><linearGradient id="paint0_linear_1530" x1="3.135" y1="3.004" x2="12.982" y2="16.134" gradientUnits="userSpaceOnUse"><stop stop-color="#070D29"/><stop offset=".486" stop-color="#051445"/><stop offset="1" stop-color="#040E31"/></linearGradient></defs></svg>