<!-- by TradingView --><svg width="18" height="18" viewBox="0 0 18 18" xmlns="http://www.w3.org/2000/svg"><path fill="#DFBF6A" d="M0 0h18v18H0z"/><path d="M12.58 5H5.42L3 9.05 9 15l6-5.95L12.58 5Zm-2.61 5.13a11.55 11.55 0 0 1-1.94 0L7.6 11H6.3l.57-1.05a3.67 3.67 0 0 1-.87-.3V9.2s.53.34 2.3.4v.02h1.4V9.6c1.77-.07 2.3-.4 2.3-.4v.46c-.22.11-.51.21-.87.3L11.7 11h-1.29l-.44-.87ZM12 8.73v.46s-.2-.24-1.47-.35l.25.45c-.28.05-.68.1-1.17.13L9 8.2l-.61 1.24a9.67 9.67 0 0 1-1.17-.14l.25-.45C6.2 8.95 6 9.19 6 9.19v-.46c.38-.2 1-.36 1.76-.44L9 6l1.24 2.29c.75.08 1.38.24 1.76.44Z" fill="#fff"/></svg>