<!-- by TradingView --><svg width="18" height="18" xmlns="http://www.w3.org/2000/svg"><path fill="#F0F3FA" d="M0 0h18v18H0z"/><path d="M13 10.163C13 12.283 11.21 14 9 14s-4-1.718-4-3.837C5 8.043 6.316 4 9 4s4 4.044 4 6.163z" fill="#0075FF"/><path d="M12.699 11.626A3.69 3.69 0 0013 10.163C13 8.043 11.684 4 9 4 7.262 4 6.097 5.697 5.492 7.468l7.207 4.158z" fill="#87FFFF"/><path d="M7.872 4.259l-.898 4.064-1.482-.855c.463-1.356 1.255-2.669 2.38-3.21z" fill="#AFF"/><path d="M5.493 7.468C5.163 8.43 5 9.418 5 10.164c0 .976.38 1.866 1.005 2.543L7.872 4.26l-.898 4.064-1.481-.855z" fill="#91DCF1"/><path d="M10 10.069V4.2c2.011.842 3 4.125 3 5.962a3.69 3.69 0 01-.301 1.463L10 10.07z" fill="#43C6FD"/><path d="M13 10.163a3.69 3.69 0 01-.301 1.463L9.97 10.052l2.766-1.81c.176.7.264 1.375.264 1.921z" fill="#44B5FD"/><path opacity=".7" d="M8.97 4c-.878.01-1.608.453-2.192 1.118C5.588 6.472 5 8.748 5 10.163 5 8.052 6.306 4.03 8.97 4zm-2.95 8.642l.954-4.32 2.985 1.723-3.94 2.597z" fill="#3E91FF"/><path d="M10 13.88v-3.811l2.699 1.557c.056-.131.106-.267.147-.405-.388 1.301-1.475 2.32-2.846 2.658z" fill="#0096FF"/></svg>