<!-- by TradingView --><svg width="18" height="18" viewBox="0 0 18 18" xmlns="http://www.w3.org/2000/svg"><path fill="#F0F3FA" d="M0 0h18v18H0z"/><circle cx="9" cy="9" r="6" fill="#2C4575"/><path d="M5.63 11.25c-.6 0-1.13 1-1.32 1.5l.38.38.93-1.88Z" fill="#EA5944"/><path fill-rule="evenodd" d="m4.4 12.73.27.27.82-1.66a.77.77 0 0 0-.25.13c-.13.1-.25.23-.37.39-.2.28-.37.63-.47.87Zm1.14-1.47c-.57.09-1.05 1.01-1.23 1.49l.38.38.93-1.88h-.08Z" fill="#171412"/><path d="M12.38 11.25c.6 0 1.12 1 1.3 1.5l-.37.38-.94-1.88Z" fill="#EA5944"/><path fill-rule="evenodd" d="m13.6 12.73-.27.27-.82-1.66c.08.03.17.07.25.13.13.1.25.23.37.39.2.28.37.63.47.87Zm-1.14-1.47c.57.09 1.05 1.01 1.23 1.49l-.38.38-.94-1.88h.1Z" fill="#171412"/><path d="m4.69 13.13.93-1.88h6.75l.94 1.88A5.75 5.75 0 0 1 9 15a5.75 5.75 0 0 1-4.31-1.88Z" fill="#EA5944"/><path d="M9 12.75c-.6 0-1-.5-1.13-.75h2.25c-.12.25-.52.75-1.12.75Z" fill="#ECE5D3"/><path d="M11.57 12.7h.67v.24h-.1v-.13h-.46v.42l.56-.18v.45c0 .04 0 .1-.04.15-.04.05-.1.1-.2.1a.23.23 0 0 1-.2-.1.27.27 0 0 1-.04-.15h.1l.04.08c.01.03.04.05.1.05.06 0 .09-.02.1-.05a.15.15 0 0 0 .03-.08v-.3l-.56.2v-.7Z" fill="#fff"/><path d="M6 4.31c-.6-.45-1-.56-1.13-.56-.18 0-.56.19-.56.75 0 .75.75 1.56 1.13 1.88l2.25-1.5c-.32 0-1.09-.12-1.69-.57Z" fill="#E59E91"/><path d="M5.77 6.14 7.7 4.86c-.32 0-1.09-.1-1.69-.56-.6-.45-1-.56-1.12-.56-.11.12-.2.3-.2.56 0 .73.7 1.5 1.1 1.84Z" fill="#D38E81"/><path d="M4.87 3.83c-.14 0-.48.15-.48.67 0 .35.17.73.4 1.06.22.3.47.56.65.72l2.02-1.34c-.39-.05-1-.2-1.5-.57a3.8 3.8 0 0 0-.73-.44c-.19-.08-.3-.1-.36-.1Zm2.69 1.04h.13l-2.25 1.5C5.06 6.08 4.3 5.26 4.3 4.5c0-.56.38-.75.57-.75.12 0 .52.11 1.12.56.53.4 1.2.53 1.56.56Z"/><path d="M4.88 3.75c.18 0 .78.38 1.68 1.88l1.13-.75c-.32 0-1.09-.12-1.69-.57-.6-.45-1-.56-1.13-.56Z" fill="#BF876D"/><path fill-rule="evenodd" d="M5.24 3.94a6.19 6.19 0 0 1 1.32 1.69l1.13-.75-.13-.01A3.12 3.12 0 0 1 6 4.31c-.3-.22-.53-.35-.72-.44-.2-.09-.34-.12-.4-.12.06 0 .19.05.36.19Zm.27.13c.28.28.64.74 1.08 1.45l.87-.58c-.39-.05-1-.2-1.5-.57a4.52 4.52 0 0 0-.45-.3Z" fill="#171412"/><path d="M11.81 4.32c.6-.45 1-.56 1.13-.56.19 0 .56.19.56.75 0 .75-.75 1.56-1.13 1.88l-2.24-1.5c.3 0 1.08-.12 1.68-.57Z" fill="#E59E91"/><path d="m12.04 6.15-1.91-1.28c.3 0 1.08-.1 1.68-.56.6-.45 1-.56 1.13-.56.1.12.19.3.19.56 0 .73-.7 1.5-1.09 1.84Z" fill="#D38E81"/><path d="M12.94 3.84c.14 0 .49.15.49.67 0 .35-.18.73-.41 1.06-.22.3-.47.56-.65.72l-2.02-1.34c.39-.05 1-.2 1.5-.57.3-.22.55-.36.73-.44.2-.08.31-.1.36-.1Zm-2.69 1.04h-.13l2.26 1.5c.37-.3 1.12-1.12 1.12-1.87 0-.56-.38-.75-.56-.75-.13 0-.53.11-1.13.56-.53.4-1.2.53-1.56.56Z"/><path d="M12.94 3.76c-.19 0-.79.38-1.69 1.88l-1.13-.75c.32 0 1.1-.12 1.7-.57.6-.45 1-.56 1.12-.56Z" fill="#BF876D"/><path fill-rule="evenodd" d="M12.57 3.95a6.19 6.19 0 0 0-1.32 1.69l-1.13-.75.13-.01a3.12 3.12 0 0 0 1.56-.56c.3-.22.54-.35.73-.44.2-.09.33-.12.4-.12-.07 0-.2.05-.37.19Zm-.26.13c-.29.28-.65.74-1.08 1.45l-.88-.58c.39-.05 1-.2 1.5-.57l.46-.3Z" fill="#171412"/><path d="M4.31 9.75C4.76 5.4 7.63 4.31 9 4.31c3.45 0 4.56 3.63 4.69 5.44.06.88-.75 2.44-4.69 2.44-3.9 0-4.75-1.69-4.69-2.44Z" fill="#DEB788"/><path d="M12.19 9.75c-.75-.38-1.5-.38-2.06-.75-.45-.3-.83-.38-1.13-.38-.37 0-.75.2-1.12.38-.24.12-1.5.56-2.07.75-.56.19-.56.75-.56.94 0 .19-.19 1.5 3.75 1.5s3.75-1.31 3.75-1.5c0-.19 0-.66-.56-.94Z" fill="#FBECC7"/><path d="M11.82 7.12c.03.12.05.24.05.37 0 .73-.5 1.32-1.13 1.32-.62 0-1.12-.6-1.12-1.32 0-.13.02-.25.05-.37h2.15Z" fill="#fff"/><path d="M10.13 7.47c0 .31.11.75.56.75.37 0 .56-.44.56-.75 0-.19-.35-.19-.56-.19-.2 0-.56 0-.56.19Z" fill="#171412"/><path d="M11.85 7.34c0-.08-.02-.15-.04-.22H9.65a1.52 1.52 0 0 0 0 .7c.3-.06.74-.14 1.08-.14.35 0 .8.08 1.1.14a1.52 1.52 0 0 0 .02-.48Z" fill="#BA905F"/><path fill-rule="evenodd" d="M11.76 7.19H9.72l-.03.3c0 .7.48 1.24 1.05 1.24.57 0 1.05-.55 1.05-1.24 0-.1 0-.2-.03-.3Zm-2.1-.08c-.02.12-.04.25-.04.38 0 .72.5 1.31 1.12 1.31.63 0 1.13-.59 1.13-1.31 0-.13-.02-.26-.05-.38H9.67Z"/><path d="M8.42 6.05c-.91-.36-1.77.06-2.2.37l-.07-.1c.45-.3 1.34-.76 2.3-.37l-.03.1ZM11.82 6.24c-.76.15-1.7.07-2.08 0l.02-.1c.37.05 1.3.14 2.04 0l.02.1Z"/><path d="M6.23 7.13c-.03.11-.04.24-.04.37 0 .72.5 1.31 1.12 1.31.62 0 1.13-.59 1.13-1.31 0-.13-.02-.26-.05-.38H6.23Z" fill="#fff"/><path d="M7.88 7.5c0 .31-.12.75-.57.75-.37 0-.56-.44-.56-.75 0-.19.36-.19.56-.19.21 0 .57 0 .57.19Z" fill="#171412"/><path d="M6.2 7.35c0-.08.02-.15.03-.22H8.4a1.52 1.52 0 0 1 .01.7c-.3-.06-.74-.14-1.09-.14-.34 0-.79.08-1.09.14a1.52 1.52 0 0 1-.02-.48Z" fill="#BA905F"/><path fill-rule="evenodd" d="M6.3 7.2c-.03.1-.04.2-.04.3 0 .7.48 1.24 1.05 1.24.57 0 1.05-.55 1.05-1.24 0-.1 0-.2-.03-.3H6.3Zm-.07-.08c-.03.12-.04.25-.04.38 0 .72.5 1.31 1.12 1.31.62 0 1.13-.59 1.13-1.31 0-.13-.02-.26-.05-.38H6.23Z"/><path d="M9.35 10.9c-.29-.29-.6-.24-.7-.18l-.04-.07c.14-.06.48-.11.8.2l-.06.05Z"/><path d="M8.44 8.81c0 .3.31.63.56.75.25-.12.56-.45.56-.75 0-.18-.31-.19-.56-.19-.25 0-.56 0-.56.2Z" fill="#DEA083"/><path fill-rule="evenodd" d="M9 9.48c-.1-.06-.22-.16-.32-.27a.66.66 0 0 1-.17-.4c0-.02.01-.03.03-.05a.26.26 0 0 1 .1-.04c.1-.02.23-.02.36-.02.13 0 .26 0 .36.02l.1.04c.02.02.03.03.03.05 0 .13-.07.27-.17.4-.1.11-.21.2-.32.27Zm0 .08c-.25-.12-.56-.45-.56-.75 0-.18.31-.19.56-.19.25 0 .56 0 .56.2 0 .3-.31.62-.56.74ZM8.7 10.11a.33.33 0 0 1-.07.02l.03.07c.08.13.22.3.34.3.12 0 .26-.17.34-.3l.04-.07c-.03 0-.06 0-.08-.02a.72.72 0 0 1-.3-.17c-.1.1-.22.15-.3.17Zm.04.07.1.13a.5.5 0 0 0 .09.09l.07.03.07-.03a.5.5 0 0 0 .1-.09l.09-.13a.9.9 0 0 1-.26-.14.73.73 0 0 1-.26.14Z"/><path d="M8.96 9.94v-.45h.08v.47c.06.06.21.13.34.13.16 0 .54-.19.72-.37l.05.06c-.2.2-.57.38-.78.38a.56.56 0 0 1-.33-.1v.44h-.08v-.43c-.06.05-.17.1-.34.1h-.56v-.08h.56c.3 0 .34-.12.34-.15Z"/><path fill-rule="evenodd" d="M13.61 9.76a7.55 7.55 0 0 0-1.08-3.37A4.04 4.04 0 0 0 9 4.4c-.67 0-1.71.26-2.64 1.07-.93.8-1.75 2.14-1.97 4.3-.06.68.72 2.35 4.61 2.35 1.96 0 3.13-.39 3.8-.87.67-.49.84-1.07.81-1.48ZM9 4.3c-1.37 0-4.24 1.09-4.69 5.44-.06.75.79 2.44 4.69 2.44 3.94 0 4.75-1.56 4.69-2.44-.13-1.81-1.24-5.44-4.69-5.44Z"/></svg>