<!-- by TradingView --><svg width="18" height="18" viewBox="0 0 18 18" xmlns="http://www.w3.org/2000/svg"><path fill="#F0F3FA" d="M0 0h18v18H0z"/><path d="M15 8.84v.28a5.92 5.92 0 0 1-2.56 4.8A5.98 5.98 0 0 1 9.24 15H8.6A6 6 0 1 1 15 8.84Z" fill="#B43C4F"/><path d="M14.8 8.85v.22l-.02.03c-.07.09-.17.1-.28.06v-.11a5.48 5.48 0 0 0-6.45-5.47c-.15-.09-.31-.15-.5-.2a5.73 5.73 0 0 1 5 1.03 5.74 5.74 0 0 1 2.25 4.44Z" fill="#F7EE9E"/><path d="m8.05 3.58-.28.06a5.5 5.5 0 0 0-1.76.75c0-.14.02-.27.07-.4.46-.27.96-.47 1.48-.6.18.04.34.1.5.2Z" fill="#F8E693"/><path d="M14.5 9.05c-.47-.39-.86-.68-1.17-.89a4.42 4.42 0 0 0-4.5-3.57.56.56 0 0 0-.13-.16l.17-.04h.05c.03.02.05.02.07.02.04 0 .08-.03.1-.08a.18.18 0 0 0 .04-.13l-.02-.03a.45.45 0 0 1-.03-.04c-.01-.01-.02-.05-.02-.11 0-.07-.01-.1-.03-.13-.07-.13-.16-.2-.28-.21-.21-.02-.35.06-.4.25a.7.7 0 0 0-.03.22l-.02.07a.42.42 0 0 0-.12-.33.38.38 0 0 0-.33-.1.36.36 0 0 0-.08-.15l.28-.06a5.4 5.4 0 0 1 4.25 1.03 5.5 5.5 0 0 1 2.2 4.44Z" fill="#D75C58"/><path d="M7.77 3.64c.04.05.07.1.08.14-.22.07-.32.2-.31.4 0 .15.07.26.18.33.12.08.25.08.38.01a.37.37 0 0 0 .2-.3l.02-.07c.06.18.2.27.38.28.05.05.1.1.12.16a4.42 4.42 0 0 0-3.9 2.73 2.1 2.1 0 0 0-.37-.43 1.2 1.2 0 0 0-.5-.25 5.56 5.56 0 0 1 3.73-3Z" fill="#DF7072"/><path d="M8.7 4.43c-.19 0-.32-.1-.38-.28v-.02c0-.1 0-.16.02-.2.06-.19.2-.27.4-.25.13 0 .22.08.3.2l.02.14c0 .06 0 .1.02.11l.03.05.02.02c0 .04 0 .09-.03.13-.03.05-.07.07-.11.08l-.07-.01a.5.5 0 0 0-.03-.01h-.02l-.17.04ZM9.75 4.33c0 .04-.02.07-.05.1a.13.13 0 0 1-.1.02h-.04a.13.13 0 0 1-.1-.05.13.13 0 0 1-.02-.1l.05-.47c0-.04.02-.07.05-.1a.13.13 0 0 1 .1-.02h.04c.04 0 .07.02.1.05.02.03.03.07.02.1l-.05.47Z" fill="#B43C4F"/><path d="m8.96 4.14.01.03.05.03c.02.01.03.03.02.06-.04.07-.08.09-.13.04-.01-.02-.03-.02-.05 0-.12.06-.23.07-.33 0a.3.3 0 0 1-.12-.18.3.3 0 0 1 .03-.21.27.27 0 0 1 .21-.15c.1-.02.18.01.25.08.07.08.1.18.06.3Z" fill="#FEFEFE"/><path d="M10.14 4.44h-.03c-.04.06-.1.08-.19.06-.05-.01-.09-.04-.1-.08-.02-.04-.02-.1 0-.16a14.24 14.24 0 0 1 .15-.46.11.11 0 0 1 .06-.02c.05-.01.1 0 .14.03l.06.08a.3.3 0 0 0 .03.05h.03c.02-.06.07-.09.13-.08.12.01.17.08.15.2l-.05.23a3.04 3.04 0 0 0-.06.22c-.01.05-.05.08-.1.09-.12 0-.2-.04-.22-.16Z" fill="#B43C4F"/><path d="M9.67 3.8h-.03a.05.05 0 0 0-.06.04l-.06.47c0 .03.02.05.05.06h.03c.03 0 .06-.02.06-.05l.06-.46a.05.05 0 0 0-.05-.06ZM10.1 4.16c0-.02 0-.02-.02 0l-.05.22c0 .04-.03.06-.07.05h-.02c-.04-.02-.06-.04-.05-.08L10 3.9c0-.01 0-.02.02-.03.02-.02.05-.02.09 0l.05.06.11.28c.02.03.03.02.03 0l.05-.22c.01-.04.04-.05.08-.04h.02c.04.01.05.04.04.08a70 70 0 0 1-.1.42c0 .05-.03.07-.06.06-.05 0-.08-.02-.1-.07a9.6 9.6 0 0 0-.12-.28ZM7.97 4.48a.28.28 0 0 1-.23-.05.3.3 0 0 1-.12-.2.3.3 0 0 1 .05-.24.28.28 0 0 1 .2-.12c.07-.01.15 0 .22.05.06.05.1.12.12.2a.3.3 0 0 1-.05.24.28.28 0 0 1-.2.12Z" fill="#FEFEFE"/><path d="M8.7 4.2a.13.13 0 0 1-.1-.03.15.15 0 0 1-.05-.11c0-.04 0-.08.03-.11a.13.13 0 0 1 .1-.05c.04 0 .07 0 .1.03s.05.07.05.11c0 .04 0 .08-.03.11a.13.13 0 0 1-.1.05Z" fill="#B43C4F"/><path d="M6.08 4a.96.96 0 0 0-.07.39 5.56 5.56 0 0 0-2.5 4.93l-.3.05a5.74 5.74 0 0 1 2.87-5.38Z" fill="#F5CF71"/><path d="M10.87 4.49c.01 0 .04-.05.08-.16a.47.47 0 0 1 .07-.16c.05-.05.12-.05.2-.02.05.03.08.08.08.13 0 .04-.02.1-.05.17 0 .03-.02.04-.02.05a.59.59 0 0 1-.08.16c-.04.06-.1.1-.14.12a.34.34 0 0 1-.26 0 .33.33 0 0 1-.21-.36c0-.04.02-.1.05-.17 0 0 0-.03.02-.05a.6.6 0 0 1 .07-.16c.04-.04.1-.05.15-.04.09.03.13.08.13.15 0 .03-.01.08-.05.16-.05.11-.06.17-.04.18ZM7.21 4.31c-.01 0-.02 0-.03.02-.03.03-.03.07 0 .1l.05.02c.02 0 .03 0 .05-.02l.03-.02c.03-.04.05-.05.08-.06.05 0 .1.02.14.06.06.05.06.12.01.19a.33.33 0 0 1-.15.13.37.37 0 0 1-.35-.01.38.38 0 0 1-.18-.27.35.35 0 0 1 .08-.3c.1-.11.2-.16.35-.14.06 0 .1.02.12.07.02.03.03.07.02.12 0 .04-.03.08-.07.1-.02.02-.07.02-.14.01ZM7.95 4.33c-.04 0-.08 0-.12-.03a.16.16 0 0 1-.06-.1c0-.04 0-.08.02-.12a.14.14 0 0 1 .1-.06c.04-.01.08 0 .11.02.03.03.06.06.06.1.01.05 0 .09-.02.12a.14.14 0 0 1-.1.07Z" fill="#B43C4F"/><path d="M10.83 4.57c.07.03.12-.01.17-.11 0-.03.03-.1.08-.2.01-.04.04-.05.08-.04h.01c.04.02.05.05.04.1a2.6 2.6 0 0 1-.1.25.29.29 0 0 1-.14.13.23.23 0 0 1-.19 0 .24.24 0 0 1-.14-.12.29.29 0 0 1 0-.2c0-.04.04-.13.1-.25 0-.04.04-.06.07-.04h.02c.04.02.05.05.04.08l-.08.2c-.04.11-.03.17.04.2ZM7.09 4.44c.01.04.04.07.07.08.08.03.14.01.2-.05.03-.04.06-.05.1-.02v.02c.04.02.04.06 0 .1-.12.12-.26.14-.4.05a.25.25 0 0 1-.1-.13.25.25 0 0 1-.02-.16c.04-.17.16-.25.33-.24.06 0 .08.03.08.07v.02c0 .04-.04.06-.08.05-.1 0-.15.02-.18.1a.14.14 0 0 0 0 .11Z" fill="#FEFEFE"/><path d="M7.86 4.18c0 .04.04.07.07.06.03 0 .05-.04.04-.07 0-.04-.03-.07-.06-.06-.03 0-.05.04-.05.07Z" fill="#DF7072"/><path d="M8.82 4.59a4.41 4.41 0 1 1 .34 8.82 4.41 4.41 0 0 1-.34-8.82Z" fill="#E99650"/><path d="M13.03 7.71a64.4 64.4 0 0 1-.95-.68 2.1 2.1 0 0 0-.37-.23 1.1 1.1 0 0 0-.42-.1c-.01 0-.02 0-.01.01l.02.18c0 .02 0 .03.02.04.17.08.28.15.35.2.12.09.17.2.17.34a.4.4 0 0 1-.17.33c-.07.05-.14.1-.22.13a.05.05 0 0 0-.03.05l.14 1.46c.02.17.02.3.02.41-.02.22-.08.41-.18.6l-.1.16c-.13.2-.31.37-.52.5a2.59 2.59 0 0 1-.68.33v.02l.04.04c.09.1.14.18.16.23.08.2.06.38-.07.55a.53.53 0 0 1-.48.21.5.5 0 0 1-.36-.18 5.91 5.91 0 0 1-.31-.39h-.03a6.64 6.64 0 0 1-.37.44c-.1.08-.2.13-.33.14a.48.48 0 0 1-.33-.1c-.22-.16-.3-.38-.2-.66a.76.76 0 0 1 .16-.22v-.02l-.01-.01a2.22 2.22 0 0 1-.65-.26 1.42 1.42 0 0 1-.73-1.15c0-.01 0-.02-.02-.02a1.53 1.53 0 0 1-1.03-.79.88.88 0 0 1-.12-.4c0-.17.06-.31.17-.42a.67.67 0 0 1 .5-.2l2.9.01h.3c.01 0 .02 0 .02-.02v-.68c0-.2 0-.34.03-.44a.99.99 0 0 1 .17-.38c.03-.03.04-.1.06-.22l.01-.1c.02-.1.06-.17.12-.23.05-.05.12-.1.22-.15l.16-.13.11-.1a.8.8 0 0 1 .23-.1V5.7l-.97-.9a4.2 4.2 0 0 1 3.58 2.91Z" fill="#F7EE9E"/><path d="M6.14 5.9c.2.24.42.47.66.67a16.15 16.15 0 0 0 1.26.99c.43.3.74.53.93.7H6.1c-.2 0-.37.06-.5.19a.58.58 0 0 0-.17.41c0 .13.04.26.12.41a1.53 1.53 0 0 0 1.03.79l.02.02c.05.51.3.9.73 1.15a2.22 2.22 0 0 0 .66.27v.02a.76.76 0 0 0-.16.22c-.1.28-.02.5.2.67.1.07.2.1.33.09.13-.01.24-.06.33-.14l.19-.2.18-.24h.03l.31.4c.1.1.21.16.36.17.2.01.36-.06.48-.21a.53.53 0 0 0 .07-.55 1.03 1.03 0 0 0-.2-.27v-.02l.02-.01c.23-.07.45-.18.66-.31.2-.14.39-.31.53-.51l.2-.01c.48.03.97-.01 1.45-.12a4.15 4.15 0 0 1-3.1 2.65 4.16 4.16 0 0 1-3.75-1.05 4.17 4.17 0 0 1-1.28-3.76 4.19 4.19 0 0 1 1.31-2.43Z" fill="#F5CF71"/><path d="M10.2 6.35a.37.37 0 0 1 .41-.35.3.3 0 0 1 .2.1c.05.06.1.14.1.22a38.53 38.53 0 0 1 .13.81l.41.22c.05.02.08.05.1.08.02.06-.01.12-.1.16a93.41 93.41 0 0 0-.36.19l.17 1.7c.02.21.02.37 0 .48-.08.36-.29.65-.64.89a2.55 2.55 0 0 1-1.06.4v.02l.42.52c.05.06.07.13.05.2a.22.22 0 0 1-.14.18.23.23 0 0 1-.2 0 193.28 193.28 0 0 1-.64-.74l-.55.68a.21.21 0 0 1-.2.08.23.23 0 0 1-.18-.13c-.05-.1-.04-.18.02-.25a23.79 23.79 0 0 1 .4-.54 3.52 3.52 0 0 1-.51-.08 1.63 1.63 0 0 1-.81-.43c-.22-.22-.33-.5-.33-.84a.13.13 0 0 0-.05-.11.28.28 0 0 0-.1-.03c-.43-.07-.75-.3-.95-.68-.06-.13-.08-.23-.05-.31a.3.3 0 0 1 .15-.19.48.48 0 0 1 .21-.03h3.1a.6.6 0 0 0 .26-.04c.06-.03.1-.09.13-.15.02-.04.03-.1.03-.2v-.8c0-.25.09-.45.28-.6v-.02a5.52 5.52 0 0 0-.03-.16c-.02-.1 0-.18.07-.23.07-.06.15-.06.25-.01l.01-.01Z" fill="#D75C58"/><path d="m10.42 5.7-.97-.9a4.2 4.2 0 0 0-3.3 1.1c.2.24.41.47.65.67a16.15 16.15 0 0 0 1.26.99c.43.3.74.53.93.7h.3c.01 0 .02 0 .02-.02v-.68c0-.2 0-.34.03-.44a.99.99 0 0 1 .17-.38c.03-.03.04-.1.06-.22l.01-.1c.02-.1.06-.17.12-.23.05-.05.12-.1.22-.15l.16-.13.11-.1a.8.8 0 0 1 .23-.1V5.7Zm2.8 3.4c.02-.47-.05-.94-.2-1.39l-.94-.68a2.1 2.1 0 0 0-.37-.23 1.1 1.1 0 0 0-.42-.1c-.01 0-.02 0-.01.01l.02.18c0 .02 0 .03.02.04.17.08.28.15.35.2.12.09.17.2.17.34a.4.4 0 0 1-.17.33c-.07.05-.14.1-.22.13a.05.05 0 0 0-.03.05l.14 1.46c.02.17.02.3.02.41-.02.22-.08.41-.18.6l-.1.16.2-.01c.5.03.98-.01 1.46-.12.16-.44.25-.9.27-1.38Z" fill="url(#a)"/><path d="M4.92 7.32a4.36 4.36 0 0 0 .24 3.84 4.38 4.38 0 0 0 5.32 2c-.01.05 0 .1.03.15l-.24.08c-.07.02-.1.06-.11.12 0 .05.01.1.04.14.04.04.1.05.19.01.02 0 .04 0 .04.02l.1.29c.03.1.1.12.2.09.07-.03.1-.06.11-.11a.48.48 0 0 0-.04-.2 7 7 0 0 0-.06-.2.4.4 0 0 0 .16-.11h.02l.14.28c.03.06.06.1.1.12.04.02.09.02.15-.01a.18.18 0 0 0 .08-.1v-.05h.02c.07.04.13.04.19 0v.16a5.44 5.44 0 0 1-4.6.28 5.5 5.5 0 0 1-2.96-7.48c.2.04.36.12.51.25.12.1.25.24.37.43Z" fill="#D75C58"/><path d="M14.5 9.05v.11a5.48 5.48 0 0 1-2.89 4.68l-.01-.16c.07-.05.1-.11.08-.2l-.07-.07a.18.18 0 0 1-.05-.07.23.23 0 0 1-.01-.08c0-.03 0-.03.02-.01.1.12.2.18.33.18.1 0 .18-.04.25-.1.07-.08.1-.17.09-.29a.44.44 0 0 0-.08-.22c-.01-.02 0-.02.01-.02.04.01.07.04.07.1l.01.02.07.07c.12.03.23.01.31-.06a.34.34 0 0 0 .11-.15c.02-.05.03-.1.02-.16a.26.26 0 0 0-.08-.14.32.32 0 0 0-.17-.08l-.03-.01a.05.05 0 0 1 0-.04l.01-.02a.2.2 0 0 0 .15-.1 51.22 51.22 0 0 0 .25.17c.09.08.17.08.23 0 .08-.08.07-.16 0-.23a32.01 32.01 0 0 0-.25-.22c.07-.08.09-.14.06-.2a.2.2 0 0 0-.15-.1.1.1 0 0 0-.09.04l-.33.41a.29.29 0 0 0-.03.1c0 .02 0 .02-.02.02l-.05.02a.34.34 0 0 0-.26.35h-.02c-.07-.03-.14-.02-.2.04-.07.06-.08.13-.02.22a3.99 3.99 0 0 1 .14.24h-.03l-.15-.2c-.08-.12-.17-.13-.27-.03-.05.05-.06.11-.02.18v.02h-.02a.34.34 0 0 0-.3 0l-.11.05c-.08.04-.13.08-.15.12 0 .01-.01.02-.02.01h-.02a.18.18 0 0 0-.1 0l-.2.07a.23.23 0 0 1-.03-.15 4.38 4.38 0 0 0 2.85-5c.3.2.7.5 1.17.89Z" fill="#DF7072"/><path d="m14.75 9.8-.34.17c.05-.27.08-.54.09-.81.11.05.2.03.28-.06l.01-.03.01-.22c.01.32 0 .63-.05.95ZM3.51 9.32a5.44 5.44 0 0 0 3.5 4.8.42.42 0 0 1-.15.27A5.76 5.76 0 0 1 3.2 9.37l.3-.05Z" fill="#F8E693"/><path d="M14.75 9.8a5.76 5.76 0 0 1-3.69 4.62 5.76 5.76 0 0 1-4.2-.03.42.42 0 0 0 .15-.27 5.49 5.49 0 0 0 7.4-4.15l.34-.17Z" fill="#F5CF71"/><path d="m5.54 12.11.02-.01h.03c.1 0 .16.05.18.14.02.05 0 .1-.04.14a3.5 3.5 0 0 1-.42.35.11.11 0 0 1-.08 0c-.06-.02-.1-.06-.12-.11a.4.4 0 0 1 0-.16v-.03h-.03c-.07.04-.14.02-.2-.04-.07-.1-.05-.18.06-.27l.12-.11v-.04a2.1 2.1 0 0 0-.13.09.36.36 0 0 1-.13.07c-.07.01-.13-.02-.17-.1-.04-.07-.02-.13.04-.19a12.62 12.62 0 0 1 .49-.3c.05 0 .1.02.13.07s.04.11.02.2c.06 0 .11 0 .16.05.05.06.06.13.04.23-.01.03 0 .04.03.02Z" fill="#B43C4F"/><path d="m5.13 11.63-.41.29a.05.05 0 0 0-.01.07l.02.04c.02.02.05.03.08.01l.4-.29a.05.05 0 0 0 .02-.07l-.03-.04a.05.05 0 0 0-.07-.01ZM13.06 12.34a.14.14 0 0 1-.04.03h-.04l-.33-.27h-.02l-.1.12c-.02.02-.04.03-.07 0-.04-.03-.04-.05-.02-.08l.15-.19.15-.18c.03-.03.05-.03.08 0h.01c.03.02.03.05 0 .08l-.09.12v.01l.34.28v.04l-.02.04ZM5.24 12.18l-.19.16c-.03.03-.06.03-.09 0l-.01-.02c-.03-.03-.03-.06 0-.09.22-.19.33-.3.36-.31.03-.03.06-.03.1 0a.1.1 0 0 1 .02.1 16.28 16.28 0 0 0-.04.35l.18-.16c.03-.03.06-.03.09 0l.01.02c.03.03.03.06 0 .08a38.16 38.16 0 0 0-.4.34h-.02c-.05-.02-.07-.07-.06-.13a189.84 189.84 0 0 1 .05-.34ZM12.53 12.7v-.01c0-.01 0-.02-.02-.03a.04.04 0 0 0-.03-.01l-.14.06c-.07.03-.13.02-.2-.03a.18.18 0 0 1-.05-.15c0-.05.03-.1.08-.14.05-.04.1-.06.15-.07.04 0 .06.02.07.05 0 .07-.02.1-.07.1-.02 0-.04 0-.05.02l-.03.05c0 .02 0 .03.02.04h.05l.03-.02.12-.06c.05-.01.1 0 .12.02.12.09.13.2.04.3a.25.25 0 0 1-.23.1c-.06 0-.08-.04-.06-.1 0-.03.02-.04.04-.04.04 0 .08 0 .1-.02.04 0 .06-.03.06-.06Z" fill="#FEFEFE"/><path d="M6.1 12.98c-.02.02-.03.05-.01.07.01.02.03.04.06.05.1.03.16.08.15.14v.01l-.01.1a.14.14 0 0 1-.06.06c-.04.03-.1.02-.17 0-.2-.06-.3-.2-.3-.41 0-.08.02-.15.07-.21.05-.07.11-.11.18-.14.2-.06.37 0 .49.17.04.06.06.11.05.15 0 .04-.02.06-.05.08a.36.36 0 0 1-.08.04H6.4c-.06.03-.12 0-.18-.09a.11.11 0 0 0-.07-.05c-.02 0-.05 0-.07.03Z" fill="#B43C4F"/><path d="M12.05 13.3a.25.25 0 0 1-.2.04.3.3 0 0 1-.17-.1 3.02 3.02 0 0 1-.17-.24c-.03-.03-.02-.07.01-.1h.02c.03-.03.06-.02.09.02l.12.18c.08.1.15.12.21.08.06-.05.06-.12 0-.22l-.14-.18c-.02-.04-.02-.07.02-.1h.01c.04-.03.07-.02.1.01l.17.25a.3.3 0 0 1 .03.2.25.25 0 0 1-.1.16ZM6.03 12.93a.15.15 0 0 0-.02.16c.02.05.06.09.13.1a3.9 3.9 0 0 0 .07.02c0 .03.01.05 0 .07 0 .02 0 .04-.02.05a.06.06 0 0 1-.05.01c-.2-.03-.3-.15-.3-.35 0-.04.02-.1.07-.15a.26.26 0 0 1 .12-.1c.19-.06.33 0 .42.18v.05c0 .02-.01.03-.03.04a.16.16 0 0 1-.07 0h-.02l-.03-.05a.16.16 0 0 0-.13-.1c-.06 0-.1.02-.14.07ZM6.61 13.68a.29.29 0 0 1-.15-.18.3.3 0 0 1 .02-.24.3.3 0 0 1 .18-.15.29.29 0 0 1 .23.01.3.3 0 0 1 .13.42.3.3 0 0 1-.17.15.29.29 0 0 1-.24-.01ZM11.26 13.59l.04.07c.01.04 0 .07-.03.09h-.02c-.04.03-.07.02-.09-.02l-.22-.44c-.02-.03 0-.05.02-.06l.03-.02c.12-.07.2-.1.26-.1s.11.02.15.07c.05.04.07.1.06.16v.04l.01.03.1.08c.03.03.04.05.01.09l-.02.02c-.02.03-.05.03-.08 0l-.1-.08h-.03l-.09.04v.03Z" fill="#FEFEFE"/><path d="M6.68 13.55a.14.14 0 0 1-.07-.1.16.16 0 0 1 0-.12.16.16 0 0 1 .1-.08.14.14 0 0 1 .12 0c.04.03.06.06.08.1 0 .04 0 .08-.02.12a.16.16 0 0 1-.1.08.15.15 0 0 1-.11 0ZM11.12 13.33l.01-.03.07-.03a.09.09 0 0 1 .06-.01c.02 0 .04.01.05.03V13.35c0 .02-.02.04-.04.05l-.07.03h-.03l-.05-.1Z" fill="#B43C4F"/><path d="M10.7 13.98h-.04c-.02 0-.04 0-.04-.03l-.14-.4h-.02l-.14.04c-.04.01-.06 0-.07-.03v-.01c-.01-.04 0-.06.03-.07a12.76 12.76 0 0 1 .46-.16c.03 0 .05 0 .06.04v.02c.02.03 0 .05-.03.06l-.14.05v.02l.13.4c0 .02 0 .04-.02.05l-.04.02Z" fill="#FEFEFE"/><path d="M6.76 13.47a.07.07 0 1 0 0-.15.07.07 0 0 0 0 .15Z" fill="#D75C58"/><path d="m7.7 13.93.05.06v.03a.15.15 0 0 1-.08.07h-.03L7.58 14h-.02c-.14.02-.24-.01-.31-.1a.3.3 0 0 1-.06-.3.32.32 0 0 1 .26-.22c.06 0 .11 0 .17.03.05.03.1.07.13.13.06.11.04.23-.04.35v.03Z" fill="#FEFEFE"/><path d="m8.93 13.65.03-.04c.02-.04.06-.05.12-.05.03 0 .07.02.13.05h.02c.05-.04.08-.06.1-.06l.3-.04c.12-.01.2.01.22.09.03.08.02.16-.05.21v.13l.02.02c.08.06.11.14.08.25a.1.1 0 0 1-.04.05 4.78 4.78 0 0 1-.43.07c-.1 0-.15-.05-.17-.15l-.03-.3c0-.03-.01-.03-.03 0a4.43 4.43 0 0 1-.15.36c-.03.06-.08.1-.15.1-.07 0-.12-.03-.15-.1a.03.03 0 0 0-.03 0H8.7a.14.14 0 0 1-.13.08.16.16 0 0 1-.13-.05 23.1 23.1 0 0 0-.17-.51c-.03-.13.01-.2.13-.23.09-.01.15.02.18.1h.03c.05-.07.12-.1.2-.07.04.01.07.04.1.09h.02ZM7.44 13.86a.14.14 0 0 1-.1-.07.16.16 0 0 1-.01-.12.16.16 0 0 1 .07-.1.14.14 0 0 1 .12-.03c.04.01.07.04.1.07.01.04.02.08 0 .13a.16.16 0 0 1-.06.1.14.14 0 0 1-.12.02Z" fill="#B43C4F"/><path d="M9.71 13.9v.05c0 .02-.01.03-.03.03L9.5 14c-.01 0-.02 0-.02.02v.04c.01.02.02.02.03.02l.25-.03c.04 0 .06.02.06.06v.03c.01.04 0 .06-.05.06l-.36.04c-.03 0-.05-.01-.05-.04a110.3 110.3 0 0 1-.06-.51c0-.03.01-.05.05-.06l.36-.04c.04 0 .06.02.06.06v.03c.01.04 0 .06-.04.06l-.25.03c-.02 0-.02 0-.02.02v.04c0 .01.01.02.03.02l.17-.02c.02 0 .03 0 .04.03l.01.04ZM8.76 13.63c.04 0 .06.03.08.1a3.52 3.52 0 0 0 .06.22h.01l.1-.26c.02-.04.05-.05.09-.03h.01c.04.02.06.05.04.09a59.61 59.61 0 0 1-.23.5c-.06.01-.09 0-.1-.07a6.82 6.82 0 0 1-.1-.24l-.08.23c-.03.06-.06.08-.11.05a62.13 62.13 0 0 1-.17-.52c-.02-.04 0-.07.04-.08h.02c.04-.02.07 0 .08.04l.07.26h.02l.08-.2c.02-.06.05-.1.09-.09Z" fill="#FEFEFE"/><path d="M7.43 13.7c0 .04.03.07.06.07s.06-.04.05-.07c0-.04-.03-.07-.06-.07s-.06.04-.05.08Z" fill="#D75C58"/><defs><linearGradient id="a" x1="10.34" y1="5.97" x2="8.62" y2="8.19" gradientUnits="userSpaceOnUse"><stop stop-color="#F7EE9E"/><stop offset="1" stop-color="#F5CF71"/></linearGradient></defs></svg>