<!-- by TradingView --><svg width="18" height="18" viewBox="0 0 18 18" xmlns="http://www.w3.org/2000/svg"><path fill="url(#a)" d="M0 0h18v18H0z"/><path d="M13 5c.8 0 1.2 1.03.67 1.67L12.1 8.5h.92c.78 0 1.3.86.78 1.5l-1.95 2.5c-.26.32-.64.5-1.03.5H4.99c-.79 0-1.2-1.04-.66-1.68L5.92 9.5h-.94c-.78 0-1.3-.86-.76-1.5l1.94-2.5c.27-.32.64-.5 1.03-.5h5.82ZM8.3 8.5l-3 3.5h5.2l2.2-2.5H9.76L12.7 6H7.49L5.3 8.5h3.02Z" fill="#fff"/><defs><linearGradient id="a" x1="2.25" y1="3.05" x2="15.59" y2="14.95" gradientUnits="userSpaceOnUse"><stop stop-color="#14A8FD"/><stop offset=".52" stop-color="#4440E2"/><stop offset="1" stop-color="#D08EF2"/></linearGradient></defs></svg>