<!-- by TradingView --><svg width="18" height="18" viewBox="0 0 18 18" xmlns="http://www.w3.org/2000/svg"><path fill="#11ADDE" d="M0 0h18v18H0z"/><path d="M10 5H5v1h5a3 3 0 1 1 0 6H5v1h5a4 4 0 0 0 0-8Z" fill="#F0F3FA"/><path d="M5 11h5a2 2 0 1 0 0-4H5v1h5a1 1 0 1 1 0 2H5v1Z" fill="#F0F3FA"/><path d="M10.07 6.37a3 3 0 0 1 1.1.32l-.2.24a2.62 2.62 0 0 0-.9-.26v-.3Zm2 1.62a2.47 2.47 0 0 0-.54-.68l.2-.24c.27.23.49.5.65.8l-.31.12Zm.22.61a2.12 2.12 0 0 1 0 .8l.31.11a2.5 2.5 0 0 0 0-1.02l-.3.11Zm-.2 1.42.3.1c-.16.34-.39.63-.67.87l-.22-.24c.25-.2.45-.45.59-.73Zm-1.15 1.1c-.27.14-.56.22-.87.25v.3a3 3 0 0 0 1.08-.3l-.21-.24ZM9.38 6.37h-.92v.3h.92v-.3Zm0 5.03h-.92v.3h.92v-.3ZM6.71 6.36h1.06v.3H6.7v-.3Zm0 5.03h1.06v.3H6.7v-.3ZM6 6.36H5v.3h1.01v-.3Zm0 5.03H5v.3h1.01v-.3Z" fill="#F0F3FA"/></svg>