<!-- by TradingView --><svg width="18" height="18" viewBox="0 0 18 18" xmlns="http://www.w3.org/2000/svg"><path fill="#008BC6" d="M0 0h18v18H0z"/><path d="M13.67 13.17a.22.22 0 0 0 .1-.06v-2.67a.09.09 0 0 1 .01-.04 2.38 2.38 0 0 0 .58-.64c.21-.32.36-.56.43-.73a5.1 5.1 0 0 0 .16-.42l.05-.46v-.03l-.03-.32c0-.08-.03-.19-.06-.33a6.8 6.8 0 0 0-.58-1.7c-.21-.43-.54-.93-.74-1.24l-.03-.04a3.84 3.84 0 0 0-.68-.78c-.3-.26-.6-.49-1-.48h-.1c-.1-.04-.22-.05-.33-.06a51.98 51.98 0 0 0-1-.16c-.14-.02-.55-.04-.57.15a.06.06 0 0 0 .02.04.07.07 0 0 0 0 .02l.16.11a.7.7 0 0 0-.32-.02c-.15.05-.3.08-.46.09l-.9.15h-.01l-.78.2a2.32 2.32 0 0 0-.63.16.09.09 0 0 0-.03.04v.02c-.04.3-.05.6-.02.92v.12l-.01.03-.03.02-.14.07a.1.1 0 0 1-.1-.01 7.4 7.4 0 0 0-1.2-.75.07.07 0 0 0-.04.03c-.68 1-.81 2.54-.8 3.67a.05.05 0 0 1-.02.03.05.05 0 0 1-.02.02l-.3.13c-.12.06-.25.23-.33.33A25.9 25.9 0 0 0 3 12.04l.1.12c1.27 1.78 4.62 1.48 7.82 1.2.95-.08 1.89-.16 2.75-.19Z" fill="#122028"/><path d="M9.81 3.37a.6.6 0 0 1 .01.23l-.06.5c-.02.12-.01.25.03.4-.02.02-.03.06-.02.12l-.01.06h-.08l.03-.88.02-.28V3.5l-.01-.01a.04.04 0 0 0-.03 0 .65.65 0 0 1-.32.07c-.02 0-.04 0-.06.02a.52.52 0 0 1-.2.04H9.1l-.01.01a.03.03 0 0 0 0 .03l.01.02a.06.06 0 0 1 0 .07l-.04.02H8.95c-.03.03-.06.03-.1 0l-.02-.01v-.02l.01-.02.02-.01h.05l.02-.02a.02.02 0 0 0 0-.03H8.9a.5.5 0 0 0-.14.02c-.03.02-.05-.02-.05-.1l.66-.14.44-.07Z" fill="#828F92"/><path d="M9.68 4.68h.08c.01 0 .02-.03.01-.06 0-.06 0-.1.02-.13l.1-.86.01-.01h.01v.01c.03.08.04.2.03.33v.02h.03a.02.02 0 0 0 .02 0v-.01l.02-.4v-.01h.02l.04.13h.01l.02.02a.04.04 0 0 0 .03 0c.14-.07.3-.06.46.04l.03.03v.04l-.05.44v.03l.02.01a.05.05 0 0 0 .05 0l.46-.28a.06.06 0 0 1 .07 0l.01.04v.03c-.1.14-.17.3-.22.5l-.03.04a.09.09 0 0 1-.05.01l-1.2.04ZM8.71 3.57c0 .1.02.13.05.1-.01.03-.04.03-.08.01a.06.06 0 0 0-.05 0l-.07.03a.03.03 0 0 1-.03 0V3.7l-.01-.02v-.04l.01-.03.03-.01.15-.03Z" fill="#4B6978"/><path d="M8.28 4.83c-.08.05-.15.07-.22.04l-.02-.02v-.03l.1-1.1H8.1a3.1 3.1 0 0 0-.08.53c-.01.13-.17.14-.09.3.05.09.05.2 0 .3-.01.04-.04.05-.09.04l-.03-.01a.05.05 0 0 1-.02-.04l.03-.4V4.4a.79.79 0 0 1 0-.35v-.01a.02.02 0 0 0-.03 0 .23.23 0 0 0-.1.17c-.02.18-.06.36-.12.53-.02-.23.02-.46.12-.68A.14.14 0 0 0 7.74 4c0-.02.02-.04.03-.05.09-.06.1-.09.04-.09l.22-.05c.01 0 .02 0 .03-.02l.01-.02v-.03l-.02-.02a.13.13 0 0 0-.06 0l.39-.12a.04.04 0 0 1 .04 0v.02l.01.02L8.4 4c-.04.17-.06.35-.06.53 0 .07-.02.17-.06.3Z" fill="#5D6D73"/><path d="m8 3.7.05.01.02.02v.03l-.01.02-.03.02-.22.05-.79.17-.01.01c-.03.02-.03.05-.02.1a.01.01 0 0 1-.02 0l-.02-.14.01-.03.04-.02.66-.16.33-.08ZM9.67 3.8l-.05.8a.1.1 0 0 1-.03.08.12.12 0 0 1-.08.03h-.35a.08.08 0 0 1-.05-.02l-.02-.02v-.25a.07.07 0 0 0-.03-.03.4.4 0 0 0-.19-.04h-.03l-.02.03c-.01.04-.05.05-.1.05H8.7L8.7 4.4c0-.02-.06-.51-.05-.52a.8.8 0 0 1 .2-.06l.22-.01a10.27 10.27 0 0 1 .55-.08c.03.01.05.04.06.08ZM7.69 4.07c-.1.22-.14.45-.12.68l-.03.22-.18.03H7.3v-.02c.1-.07.06-.29.04-.37 0-.03-.02-.05-.04-.06a.09.09 0 0 0-.06 0 .07.07 0 0 0-.04.02c-.1.14-.08.29.04.44l-.26.03a.03.03 0 0 1-.03 0V4.9l.01-.63v-.01c.02-.04.06-.06.11-.06a.08.08 0 0 0 .06-.02c.1-.1.24-.05.33-.08l.01-.01.01-.02v-.01l.02-.01h.01c.05.02.1.02.17.02Z" fill="#828F92"/><path d="M12.79 4.3c-.03 0-.04 0-.04.02v.02l.01.01-.01.03c-.14.13-.26.3-.36.48-.18.1-.34.25-.47.44l-.02.02h-.04l-.24-.06-.02-.01v-.01a.03.03 0 0 1 0-.04 4.05 4.05 0 0 1 1.15-.92l.04.01Z" fill="#C26521"/><path d="m12.79 4.3.06.1c-.07.01-.1.06-.08.12.3 1.48.5 2.64.63 3.47h-.21l-.04-.02a.07.07 0 0 1-.02-.02c-.05-.1-.09-.24-.2-.27l-.05-.06-.29-.27h-.03a.05.05 0 0 0-.04.02l.01.03-.14-.02h-.02l-.02.02v.04l.43.6.01.02v.03l-.02.02h-.03l-.76.15c-.05.01-.08.04-.1.07v.03l.02.02h.02c.24.06.53.02.85-.02.16-.02.27-.07.35-.15.03 0 .05.02.08.04l.01.02a.05.05 0 0 1 0 .04l-.02.02a.74.74 0 0 1-.18.06 14.73 14.73 0 0 1-1.97.18c-.17 0-.34.02-.5.08.04.1.1.17.17.2l.16.05c.02.29.13.51.31.69.64.61 1.64.45 2.04-.3.05.1.08.21.08.32v.6a212.86 212.86 0 0 0-.01 3.3 7.41 7.41 0 0 1-7.73.73c.06-.54.09-1.07.1-1.6 0-.13-.03-.23-.07-.29-.17-.22-.44-.08-.57.08-.26.3-.54.63-.86.88-.25-.2-.48-.43-.68-.67.01-.16.02-.32.05-.47.06-.3.08-.6.15-.9l.23-.98c.03-.13.11-.3.15-.45l.23.14-.23.25-.01.01v.02c.03.02.06.01.1-.02h.05v.02a9.15 9.15 0 0 0-.18 2.7.02.02 0 0 0 .02 0l.04-.27c0-.03.02-.05.03-.07l.37-.42.38-.22a9.4 9.4 0 0 0 2.48-.49c.19-.02.37 0 .44-.15 0-.03 0-.09-.03-.17a9.45 9.45 0 0 1-.05-1.25c.66.17 1.33-.2 1.51-.8.18-.04.44-.08.54-.22.22-.3-.1-.5-.38-.6a.14.14 0 0 1-.05-.02l-.17-.15c-.08-.1-.12-.12-.14-.06a1 1 0 0 1-.15-.26.1.1 0 0 0-.05-.05.12.12 0 0 0-.08-.01c-.22.03-.14.44-.07.57a.05.05 0 0 1 0 .05l-.03.02H8.6a2.1 2.1 0 0 0-.5.1c-.05.01-.08.06-.09.12 0 .04.01.07.03.09.03.02.06.03.1.03-.48.05-.96.07-1.43.07l-.47-.18a.08.08 0 0 1-.04-.04.22.22 0 0 1-.03-.06.43.43 0 0 0-.15-.26c-.12-.11-.1-.41-.13-.68a4.23 4.23 0 0 1-.01-.53c.02-.4.04-.74.07-1.02 0-.06.03-.11.08-.15l.42-.32.07-.04c.03-.02.03-.04.01-.06-.03-.03-.09 0-.14-.04a2.8 2.8 0 0 1-.3-.2.52.52 0 0 0 .18-.27l.73.6a11.32 11.32 0 0 1 2.64-.22c.58.02 1.18.06 1.82.1.1 0 .2.04.28.02l-.01-.01h.19a6.82 6.82 0 0 1 1.06.42v-.02l-.21-.16a.07.07 0 0 1-.03-.05l-.14-.73a.06.06 0 0 1 .01-.05l.05-.06v-.03l-.02-.01h-.02l-.23.11a1.83 1.83 0 0 1 .37-.5v-.02l-.01-.02.04-.03Z" fill="#FBA03C"/><path d="M12.85 4.4c.22.73.34 1.44.5 2.34.09.5.14.95.17 1.34-.05.01-.1-.02-.12-.1-.13-.82-.33-1.98-.63-3.46-.01-.06.01-.1.08-.12Z" fill="#FCBD64"/><path d="M6.27 4.95c-.04.12-.1.2-.17.26l-.42-.25a.03.03 0 0 0-.03 0v.01a2.3 2.3 0 0 0-.1.87v.01a.03.03 0 0 0 .03 0c.26-.14.57-.3.87-.3l-.42.33a.22.22 0 0 0-.08.15c-.03.28-.05.62-.07 1.02l.01.53c.02.27.01.57.13.68.09.08.13.15.15.26l.03.06c0 .02.02.03.04.04l.47.18-.26-.01a6.99 6.99 0 0 0-.52-.2v-.01A.17.17 0 0 1 6 8.52a.1.1 0 0 0 .05-.09.1.1 0 0 0-.02-.05 2.81 2.81 0 0 1-.33-.26.22.22 0 0 0-.08-.04 1.69 1.69 0 0 0-.92 0h-.02l-.01-.02v-.02c.04-.46.06-1.15.18-1.68a13.13 13.13 0 0 1 .58-1.92.04.04 0 0 1 .04 0l.81.51Z" fill="#C26521"/><path d="M7.36 5a.21.21 0 0 1-.11.01c-.12-.15-.13-.3-.04-.44l.04-.03h.06l.04.07c.02.08.05.3-.04.37V5h.05Z" fill="#122028"/><path d="M6.1 5.21c.09.08.19.15.3.21.04.03.1 0 .13.04.02.02.02.04-.01.06a.19.19 0 0 1-.07.04 1.91 1.91 0 0 0-.88.3l-.01-.01h-.01v-.02a2.3 2.3 0 0 1 .1-.87.03.03 0 0 1 .03 0l.42.25Z" fill="#020101"/><path d="M11.92 5.44a.41.41 0 0 1-.18 0h-.01.01v.01c-.08.02-.19-.02-.28-.02a154 154 0 0 0-1.82-.1A11.32 11.32 0 0 0 7 5.53l-.26-.33v-.02h.01a12 12 0 0 1 5.17.26Z" fill="#C26521"/><path d="M12.88 7.62h-.04a.03.03 0 0 0-.02 0l-.01.01V7.7l-.28-.3a.16.16 0 0 1 0-.02v-.02a.05.05 0 0 1 .05 0h.01l.3.27Z" fill="#552418"/><path d="m12.53 7.4.29.29c.07.1.11.19.12.23.03.12.09.22.18.29-.08.08-.2.13-.35.15-.32.04-.6.08-.85.02h-.02a.04.04 0 0 1-.02-.03v-.02c.02-.03.05-.06.1-.07a7.27 7.27 0 0 1 .8-.17.05.05 0 0 0 0-.05l-.43-.6a.04.04 0 0 1 0-.04l.02-.02h.02l.14.02Z" fill="#FCBD64"/><path d="m12.88 7.62.05.06.16.38c.01.03.03.05.06.06.06.03.1.06.14.1l.02.02v.04a.07.07 0 0 1-.02.06c-.09.07-.02.22.01.3.03.23 0 .45-.08.66-.4.74-1.4.9-2.04.29-.18-.18-.29-.4-.3-.69l-.02-.18V8.7l-.03-.01-.29-.04c.16-.06.33-.08.5-.08h.36c.66-.05 1.2-.1 1.6-.18a.74.74 0 0 0 .19-.06l.02-.02a.05.05 0 0 0-.01-.06.22.22 0 0 0-.08-.04.48.48 0 0 1-.18-.3.95.95 0 0 0-.12-.22.12.12 0 0 1-.01-.05v-.02a.03.03 0 0 1 .03 0h.04Z" fill="#020101"/><path d="M13.4 7.99c.03.07.07.1.12.1l.04.36c-.12.05-.2.11-.26.2-.03-.1-.1-.24 0-.31a.07.07 0 0 0 .02-.06l-.01-.04a.1.1 0 0 0-.02-.02.6.6 0 0 0-.14-.1.13.13 0 0 1-.06-.06l-.16-.38c.11.03.15.18.2.27l.02.02.04.01h.2Z" fill="#C26521"/><path d="m9.01 8.07.16.34c.03.04.09.08.17.12l.03.02a.05.05 0 0 1 0 .06l-.03.02a.79.79 0 0 1-.3.06c-.3 0-.6.02-.9.04a.22.22 0 0 1-.1-.03c-.02-.02-.03-.05-.03-.09.01-.06.04-.1.1-.12a2.1 2.1 0 0 1 .52-.1l.02-.02a.05.05 0 0 0 0-.05c-.06-.13-.14-.54.08-.57h.08a.1.1 0 0 1 .05.06c.04.1.09.19.15.26Z" fill="#FCBD64"/><path d="m9.15 8.13.06.21h-.03l-.01.07L9 8.07c.02-.06.07-.04.14.06Z" fill="#552418"/><path d="M5.92 8.37c-.28.02-.56.06-.83.12-.14.03-.26.09-.39.15l-.43.66c-.05.08-.12.26-.21.54-.04.16-.12.32-.15.45l-.23.99c-.07.28-.09.59-.15.9-.03.14-.04.3-.05.46a2.32 2.32 0 0 1-.38-.48l.26-1.56c.1-.53.2-.98.3-1.35.1-.31.26-.58.47-.8a.87.87 0 0 1 .3-.2 1.88 1.88 0 0 1 1.22-.1v.04h-.02a1.63 1.63 0 0 0-1.01.21v.01l.03.02c.35-.17.7-.22 1.06-.16.07.01.14.04.21.1ZM9.21 9.12l.04-.32.01-.03.03-.03c.08-.05.23-.07.16-.2-.04-.07-.18-.14-.24-.2l-.06-.21.17.15.05.03c.28.1.6.3.38.6-.1.13-.36.17-.54.2Z" fill="#C26521"/><path d="M5.92 8.37c.06.05.04.1-.03.13-.15.08-.35.15-.61.21-.1.02-.2.08-.3.16a.17.17 0 0 0-.03.06c-.12.4-.33.75-.66 1.05l-.23-.14c.09-.28.16-.46.2-.54l.44-.66c.13-.06.25-.12.39-.15.27-.06.55-.1.83-.12ZM13.56 8.45c.09.9.09 1.81.11 2.71.01.65 0 1.34 0 2.01l-.38.35v-.8a210.74 210.74 0 0 1 0-3.1.7.7 0 0 0-.07-.32c.08-.2.11-.43.08-.66a.48.48 0 0 1 .26-.19Z" fill="#FCBD64"/><path d="M10.87 8.9a.99.99 0 0 0-.16-.06c-.08-.02-.13-.08-.17-.2l.3.05.02.01v.02l.01.18Z" fill="#C26521"/><path d="M5.65 8.74c.04.07.1.1.2.06a.01.01 0 0 1 .01 0v.01a.01.01 0 0 1 0 .01l-.1.01-.63.18-.03.02v.02l-.06.12c-.06 0-.1.04-.1.08-.01-.04 0-.09.02-.15a.1.1 0 0 0 0-.05c0-.05.02-.1.05-.14.2-.15.4-.2.64-.17Z" fill="#5D6D73"/><path d="M5.76 8.83a.53.53 0 0 1 .34.1c-.15-.01-.3-.02-.44-.01l-.06.01-.01.01v.03H5.75c.06.03.13.04.2.03l-.9.17a.26.26 0 0 0 .05-.12l.01-.02.03-.02.63-.18Z" fill="#9E9E9E"/><path d="m6.7 8.97.23.01c-.01.07-.1.1-.28.08-.39.02-.77.07-1.13.2a.6.6 0 0 1-.4.04.54.54 0 0 1-.17-.05c0-.04.03-.07.09-.08l.9-.17.76-.03Z" fill="#CDD4D4"/><path d="M7.25 9.07a5.6 5.6 0 0 0-.87.14c-.1 0-.22.02-.32.05l-.29.02h-.02l-.01-.02v-.03c.16 0 .33-.04.5-.1h.26a.1.1 0 0 0 .05-.02l.1-.05c.17.01.27-.01.28-.08.11 0 .22.02.32.1Z" fill="#122028"/><path d="M7.25 9.72v.47l-.01.03a.4.4 0 0 0-.03.25c.04.15-.03.25-.03.4l-.01.03-.03.02a20.52 20.52 0 0 0-2.01.27c.08-.13.15-.22.21-.29.1-.1.21-.18.35-.24.02 0 .03-.01.03-.03 0-.01 0-.02.02-.02l.02-.01c.04 0 .09-.03.13-.07v-.02h-.01l-.62.05h-.03v-.02l.05-.64.02-.03.03-.02c.2-.04.35-.1.47-.19.09-.06.17-.1.26-.1.28-.04.52-.1.74-.16a.88.88 0 0 1 .39-.01c.01 0 .02 0 .03.02l.02.03.01.28Z" fill="#4B6978"/><path d="m7.34 9.78.36.14c.3.58.3.58.05 1.25.03.08.04.14.03.17-.07.16-.25.13-.44.15l-.08.01c-.34.1-.61.17-.84.21a26.36 26.36 0 0 1-1.56.27l-.38.22.18-.33.01-.03.02-.76v-.02l.02-.01a.04.04 0 0 1 .04 0l.39.2c.02.01.03.02.05.01a11.67 11.67 0 0 1 2.02-.31.11.11 0 0 0 .04-.07c.03-.17.04-.32.04-.44v-.13c.04-.16.05-.34.05-.53ZM5.56 14.24c-.3-.15-.58-.32-.84-.5v-.33l.34-.33v-.05H5l-.54.51-.3-.23c.32-.25.6-.58.86-.88.13-.16.4-.3.57-.08.04.06.06.16.06.3 0 .52-.03 1.05-.09 1.59Z" fill="#C26521"/><path d="M10.52 3.1c-.08.16-.22.16-.43 0 .15-.04.3-.03.43 0Z" fill="#FBA03C"/><path d="M10.09 3.1c.2.16.35.16.43 0l.24.05.01.01v.02c-.1.04-.12.1-.05.2v.02h-.01l-.01.01a1.27 1.27 0 0 1-.7-.22l-.01-.02c0-.05.03-.07.1-.08Z" fill="#C26521"/><path d="M14.9 8.04a.3.3 0 0 1 0 .05l-.01.02a.03.03 0 0 1-.04 0v-.02l-.03-.1c0-.17-.04-.32-.12-.46a.09.09 0 0 0-.03-.03.1.1 0 0 0-.04-.01l-.35-.03-.01-.01v-.02c.09-.05.16-.1.21-.17l.01-.03v-.02l-.05-.17-.22-.74a.79.79 0 0 1-.09-.3l-.08-.01-.03-.01-.01-.02-.16-.38c-.03-.05-.03-.13 0-.25-.01-.09-.11-.2-.3-.34a5.3 5.3 0 0 0-.86-1.15c-.14-.19-.39-.27-.6-.34a.96.96 0 0 0-.32-.04c-.36 0-.7-.07-1.05-.2.5-.04.97-.03 1.43.05.08.01.2.08.38.21.44.32.74.68 1.04 1.15l.44.7a6.95 6.95 0 0 1 .9 2.67Z" fill="#FBA03C"/><path d="m12.69 3.84-.6-.17-.17-.07a.28.28 0 0 0-.24.01c-.37.05-.69-.06-.96-.35.34.13.7.2 1.05.2.13 0 .23.01.32.04.21.07.46.15.6.34Z" fill="#C26521"/><path d="M12.03 3.72a.84.84 0 0 0 0 .25 1.37 1.37 0 0 1 .05.53h-.05v-.01l-.02-.1h-.02a.5.5 0 0 0 0 .28l-.17.15a3.04 3.04 0 0 1-.03-.63c0-.12.03-.18.09-.2l.02-.02V3.8h.01l.03-.01a.01.01 0 0 1 .01 0v.01l.02.16H12l.03-.25Z" fill="#4B6978"/><path d="m12.68 4.22-.68.45a.5.5 0 0 1-.01-.28.01.01 0 0 1 .01 0l.02.1h.01l.02.01h.03v-.01c.02-.2 0-.37-.05-.52a.84.84 0 0 1 0-.25l.65.19.02.01.02.02a.4.4 0 0 1 .03.18c0 .06-.03.1-.07.1Z" fill="#5D6D73"/><path d="m13.56 5-.52-.31-.22-.52a.42.42 0 0 1-.02-.23c.3.32.55.67.76 1.05Z" fill="#C26521"/><path d="m13.53 5.74-.42-.86c-.02 0-.03-.03-.01-.09.13.11.28.2.43.28.07.03.15.1.22.2a.05.05 0 0 1 0 .06l-.22.4Z" fill="#5D6D73"/><path d="M12.54 5a.27.27 0 0 0-.14.16.07.07 0 0 0 .01.07c.06.08.13.13.2.15v.17a.02.02 0 0 1 0 .03.03.03 0 0 1-.03 0l-.6-.21v-.02h-.01v-.02c.13-.17.28-.31.47-.4.01-.02.03-.02.04-.02.05.01.07.04.06.09Z" fill="#BE5034"/><path d="m12.55 5 .06.38a.44.44 0 0 1-.2-.15.07.07 0 0 1-.01-.07.27.27 0 0 1 .15-.16Z" fill="#FBA03C"/><path d="M13.84 5.33c-.02.12-.02.2 0 .25a14.17 14.17 0 0 1 .18.4h.03l.08.02-.6.04h-.02l-.01-.02a.03.03 0 0 1 0-.03l.34-.66Z" fill="#C26521"/><path d="m14.17 6.4.13.41-.4.22a.03.03 0 0 1-.04-.01.03.03 0 0 1 0-.04h.01c.13-.07.2-.11.21-.13v-.02h-.01l-.2.09a.07.07 0 0 1-.06 0l-.03-.03v-.27l.01-.04.03-.02c.05-.04.1-.09.12-.13l.02-.02.04-.01a.37.37 0 0 1 .17 0ZM14.36 7c.01.05.03.08.05.1.04.09.02.15-.04.2a4.72 4.72 0 0 0-.4.3.38.38 0 0 1-.1-.24c0-.08.04-.15.11-.21.1-.09.23-.13.38-.14ZM14.77 8.11v.07l-.02.02-.7.33a.06.06 0 0 1-.07-.01l-.01-.02c-.05-.14-.04-.24.02-.32l.02-.04v-.07a.05.05 0 0 1 .02-.04l.26-.22c.1-.07.22-.11.35-.14h.02l.02.02c.07.12.1.26.09.42ZM14.78 8.51l-.75.36c-.05-.06-.05-.14.01-.24l.03-.03.7-.33a.03.03 0 0 1 .03 0v.02c.04.08.03.15-.02.22Z" fill="#5D6D73"/><path d="m14.9 8.51-.1.33c-.18.37-.4.73-.65 1.07-.03-.04-.04-.1-.02-.19.11 0 .17-.07.17-.19.18-.25.26-.53.25-.85l.27-.14a.19.19 0 0 1 .07-.03Z" fill="#FBA03C"/><path d="M14.55 8.68c.01.32-.07.6-.25.85l-.08-.65v-.02l.02-.02a1 1 0 0 1 .31-.16Z" fill="#C26521"/><path d="M8.93 8.79a.08.08 0 0 1 .05.02l.02.02v.03l.01.07a.16.16 0 0 1-.05.12.18.18 0 0 1-.13.05.2.2 0 0 1-.13-.04.17.17 0 0 1-.05-.06.16.16 0 0 1-.01-.06v-.1s0-.02.02-.02l.02-.02h.03l.22-.01Z" fill="#C19C80"/><path d="M14.13 9.72c-.02.09-.01.15.02.2l-.35.36h-.03V9.85l.03-.02.33-.1Z" fill="#C26521"/><path d="M9.6 10.6c.22.06.39.01.58-.08a.13.13 0 0 1 .1 0c.26.11.48.12.66.03a.18.18 0 0 1 .08-.05h.01l.01.01v.02c-.03.07-.1.1-.2.12h-.02l-.01.01v.04l.05.02h.01a.01.01 0 0 1 0 .02l-.02.02a.03.03 0 0 1-.02 0c-.07-.05-.13-.07-.17-.06a.17.17 0 0 0-.07.02c-.28.18-.42.2-.71 0a.17.17 0 0 0-.19 0 .16.16 0 0 1-.07.04.02.02 0 0 1-.02-.01l-.01-.02.06-.02.01-.02v-.02l-.01-.01h-.02c-.08 0-.15-.05-.22-.13v-.02h.03l.17.08Z" fill="#552418"/><path d="M6.28 5.49a2.07 2.07 0 0 0-.64.25l-.02-.01v-.01l.02-.65v-.02l.03-.02a.05.05 0 0 1 .05 0l.57.42v.03h-.01Z" fill="#BE5034"/><path d="M12.78 8.53h.01v.01l-.01.04a.16.16 0 0 1-.05.04.6.6 0 0 1-.17.05h-.02a.5.5 0 0 1-.18-.01c-.05-.02-.08-.04-.09-.07h.01l.5-.06Z" fill="#C19C80"/><path d="M12.9 9.1c.1 0 .18-.07.18-.17s-.08-.17-.19-.17c-.1 0-.19.08-.19.17 0 .1.09.18.2.18Z" fill="#CDD4D4"/><path d="M10.24 10.62c.06 0 .18.05.22.07v.01l.01.02-.01.01a.57.57 0 0 1-.22.07.57.57 0 0 1-.23-.07v-.02a.65.65 0 0 1 .23-.1Z" fill="#BE5034"/></svg>