<!-- by TradingView --><svg width="18" height="18" xmlns="http://www.w3.org/2000/svg"><path fill="#F0F3FA" d="M0 0h18v18H0z"/><path d="M9 14a5 5 0 10-1.694-9.706c-.02.007 0 .042 0 .042l1.567.843a3.823 3.823 0 01.365 7.638l-1.856.889s-.005.018.039.032C7.858 13.87 8.466 14 9 14z" fill="url(#paint0_linear)"/><path d="M5.998 12.999l1.517-.474a3.825 3.825 0 01.069-7.078L5.949 5.04A4.992 4.992 0 004 9c0 1.635.785 3.086 1.998 3.999z" fill="url(#paint1_linear)"/><path d="M6.898 4.512C9.037 4.956 10.765 6.73 10.765 9c0 2.332-1.598 4.185-3.824 4.559l.477.176C9.57 13.176 11.06 11.325 11.06 9c0-2.308-1.624-4.13-3.75-4.706-.02-.005-.289.14-.411.218z" fill="#727072"/><defs><linearGradient id="paint0_linear" x1="5.471" y1="4.441" x2="12.529" y2="13.412" gradientUnits="userSpaceOnUse"><stop stop-color="#201F20"/><stop offset=".301" stop-color="#BAB9C2"/><stop offset=".459" stop-color="#E3E1EB"/><stop offset=".599" stop-color="#BBBAC0"/><stop offset="1" stop-color="#373737"/></linearGradient><linearGradient id="paint1_linear" x1="5.471" y1="4.441" x2="12.529" y2="13.412" gradientUnits="userSpaceOnUse"><stop stop-color="#201F20"/><stop offset=".301" stop-color="#BAB9C2"/><stop offset=".459" stop-color="#E3E1EB"/><stop offset=".599" stop-color="#BBBAC0"/><stop offset="1" stop-color="#373737"/></linearGradient></defs></svg>