<!-- by TradingView --><svg width="18" height="18" viewBox="0 0 18 18" xmlns="http://www.w3.org/2000/svg"><path fill="#E87A1F" d="M0 0h18v18H0z"/><path fill-rule="evenodd" d="m9.9 11.95.02-.01h.01l.46 1.65c0 .02.02.03.04.03.22.02.44.01.66-.01.08-.01.17-.05.29-.12l1.22-.78c.06-.04.1-.1.1-.19.02-.19 0-.37-.07-.55l-.46-1.13c-.02-.06 0-.1.06-.12l1.25-.47a.4.4 0 0 0 .23-.2c.15-.32.22-.58.22-.79 0-.4.03-.8.07-1.19a.51.51 0 0 0-.06-.3l-1.62-3.04a1.4 1.4 0 0 0-.62-.63 1.02 1.02 0 0 0-.43-.1c-.97-.01-1.92.01-2.87.1-.07 0-.17.02-.29.06a896.34 896.34 0 0 1-3 .99.65.65 0 0 0-.25.24c-.25.4-.47.78-.67 1.15a.42.42 0 0 0-.05.2c0 .55-.02 1.05-.05 1.48a11.92 11.92 0 0 0-.03 1.07l-.03.4-.03.55c0 .1.04.21.12.34l.38.63c.03.04.07.07.13.07l1.66.15c.03 0 .04.02.03.05-.12.32-.24.68-.36 1.08a1 1 0 0 0-.06.32 2.07 2.07 0 0 0 .07.42c.02.07.08.14.18.2l.25.17c.13.08.26.13.4.15l.53.06c.04 0 .07-.02.08-.07l.01-.21c.01-.17.03-.3.05-.39.08-.3.16-.54.22-.7.03-.08.05-.08.06 0 .07.4.16.8.26 1.18.07.24.22.34.46.3l1.14-.2c.08-.01.13-.06.13-.14l.01-.24c.01-.24.03-.42.05-.53l.02-.28c0-.15.02-.27.04-.36a1.23 1.23 0 0 0 .04-.3Zm.23-3.33c.21-.19.37-.3.47-.31.11-.03.36-.03.74 0 .12.01.27.06.46.14a6.91 6.91 0 0 0 .57.2c.02 0 .04 0 .06-.02l.2-.1c.07-.04.09-.1.06-.17l-.43-1.05a.48.48 0 0 0-.2-.23.8.8 0 0 0-.25-.13 90.5 90.5 0 0 0-1.48-.14.3.3 0 0 0-.2.1c-.06.06-.1.17-.12.33-.05.44-.07.91-.05 1.4 0 .02.02.03.04.02.07-.01.1-.03.13-.04Zm-3.74.18a25.95 25.95 0 0 1 1.1-.21l.62.3h.06a.52.52 0 0 0 .19-.1c.02 0 .02-.02.01-.05l-.58-1.4a.47.47 0 0 0-.23-.25l-.34-.17a.06.06 0 0 0-.06 0c-.55.26-1.09.53-1.62.8a.56.56 0 0 0-.22.2c-.07.1-.1.2-.08.28l.24 1.17c.02.09.06.1.12.04l.13-.13.45-.4a.6.6 0 0 1 .2-.08Zm2.74 1.67-.06.61c0 .07-.04.1-.11.08l-.73-.21c-.1-.03-.14-.1-.1-.2l.48-1.17a.31.31 0 0 1 .16-.16c.05-.03.14-.06.26-.09a.43.43 0 0 1 .31.03c.15.07.27.17.37.3l.7.84c.05.06.05.1-.02.14l-.52.28c-.08.05-.15.04-.22-.02l-.46-.45a.03.03 0 0 0-.04 0 .03.03 0 0 0-.02.02Z" fill="#F9F9F9"/></svg>