<!-- by TradingView --><svg width="18" height="18" viewBox="0 0 18 18" xmlns="http://www.w3.org/2000/svg"><path fill="url(#a)" d="M0 0h18v18H0z"/><path d="M4.62 7H4v4h.62V9.25H7V11h.62V7H7v1.75H4.62V7Z" fill="#F0F3FA"/><path d="M10.73 8.75H9.5v.5h1.23a1.5 1.5 0 1 1-.18-1h.55a2 2 0 1 0 .13.5h-.5Z" fill="#F0F3FA"/><path d="M13.48 8.75h-1.23v.5h1.23a1.5 1.5 0 1 1-.18-1h.55a2 2 0 1 0 .13.5h-.5Z" fill="#F0F3FA"/><defs><linearGradient id="a" x1="3.35" y1="3.12" x2="21.9" y2="24.43" gradientUnits="userSpaceOnUse"><stop stop-color="#1A1E21"/><stop offset="1" stop-color="#06060A"/></linearGradient></defs></svg>