<!-- by TradingView --><svg width="18" height="18" viewBox="0 0 18 18" xmlns="http://www.w3.org/2000/svg"><path fill="url(#aye51rlak)" d="M0 0h18v18H0z"/><path fill-rule="evenodd" d="m7.51 9.15.72.38v.01a.02.02 0 0 1 0 .03l-.98.56h-.01V12.03L9 13H9l1.74-.95h.01v-1.91a.03.03 0 0 0 0-.02l-.97-.55h-.01a.02.02 0 0 1 0-.03l.01-.01.7-.38a.03.03 0 0 1 .03 0l.94.48.01.02v1.48l.01.01 1.74.95h.03l1.74-.98a.03.03 0 0 0 0-.02L15 9.23V9.2h-.01l-1.39-.76-.01-.02v-1.5h-.02L11.84 6a.03.03 0 0 0-.03 0l-1.8.93V8.6a.02.02 0 0 1-.02.02l-.97.52a.03.03 0 0 1-.03 0l-.98-.52L8 8.58V6.94l-.01-.01L6.19 6a.03.03 0 0 0-.03 0l-1.73.92-.01.01v1.5l-.01.01-.01.01L3 9.2v.03L3 11.1l.01.02 1.75.98a.03.03 0 0 0 .03 0l1.73-.96V9.65l.01-.01.01-.01.95-.48a.03.03 0 0 1 .02 0ZM7.2 7.32l-.99-.54a.07.07 0 0 0-.06 0l-1 .54a.07.07 0 0 0-.03.06V8.4a.07.07 0 0 0 .03.06l1 .56a.07.07 0 0 0 .06 0l.99-.54a.07.07 0 0 0 .04-.06V7.38a.07.07 0 0 0-.04-.06Zm3.56 1.11V7.36a.05.05 0 0 1 .03-.04l1-.54a.06.06 0 0 1 .06 0l1 .54a.05.05 0 0 1 .03.05v1.07l-.03.02-1 .57a.06.06 0 0 1-.05 0l-1-.55a.05.05 0 0 1-.04-.05Zm-4.94 2.28V9.65a.06.06 0 0 0-.03-.06l-1-.53a.07.07 0 0 0-.05 0l-1 .53a.06.06 0 0 0-.03.06v1.03a.06.06 0 0 0 .03.05l.99.57a.07.07 0 0 0 .07 0l.99-.54.02-.02.01-.03Zm6.36 0V9.65a.05.05 0 0 1 .02-.04l1-.54a.06.06 0 0 1 .06 0l1 .54a.05.05 0 0 1 .03.05v1.03a.05.05 0 0 1-.02.05l-1 .58h-.06l-1-.55c-.01 0-.02 0-.02-.02l-.01-.02Zm-4.16.93.95.58a.04.04 0 0 0 .05 0l.95-.55a.05.05 0 0 0 .03-.04v-1.07a.05.05 0 0 0-.03-.05l-.96-.54a.04.04 0 0 0-.04 0l-.95.54a.05.05 0 0 0-.02.04v1.05a.05.05 0 0 0 .02.04Z" fill="#fff"/><defs><linearGradient id="aye51rlak" x1="3.35" y1="3.12" x2="21.9" y2="24.43" gradientUnits="userSpaceOnUse"><stop stop-color="#1A1E21"/><stop offset="1" stop-color="#06060A"/></linearGradient></defs></svg>