<!-- by TradingView --><svg width="18" height="18" viewBox="0 0 18 18" xmlns="http://www.w3.org/2000/svg"><path fill="#F0F3FA" d="M0 0h18v18H0z"/><path fill-rule="evenodd" d="M9 14a5 5 0 1 0-5-4.8c.02-.34.13-.72.36-1.12.03-.05.1-.08.16-.08h2.3c.1 0 .18.07.18.15v.3c0 .08-.08.15-.19.15H5.26c-.07 0-.13.03-.15.09a.6.6 0 0 0 0 .42c.02.06.08.09.15.09h1.55c.1 0 .19.07.19.15v.3c0 .08-.08.15-.19.15H5.45c-.14 0-.23.12-.17.22l.19.3c.03.05.1.08.16.08h1.18c.1 0 .19.07.19.15v.3c0 .08-.08.15-.19.15H4.86a.2.2 0 0 1-.13-.04c-.24-.21-.5-.57-.64-1.03A5 5 0 0 0 9 14ZM5.03 7.75h.65c.02 0 .05-.01.06-.03l.3-.69A.06.06 0 0 1 6.1 7h4.43c.03 0 .06-.03.06-.06l-.03-1.8a.06.06 0 0 0-.03-.06c-.24-.11-.86-.3-1.69-.3-1.08 0-2.92.61-3.87 2.88-.01.04.02.09.06.09ZM6.65 6.5h3.22c.04 0 .07-.03.07-.06v-.68a.06.06 0 0 0-.05-.05 4.69 4.69 0 0 0-1.2-.15c-.87 0-1.6.4-2.08.84-.04.03-.01.1.04.1ZM11 5.25v3.1c0 .08.07.15.15.15h2.07c.08 0 .15-.07.15-.16v-.18a.16.16 0 0 0-.15-.16h-1.56a.16.16 0 0 1-.16-.16V5.25a.16.16 0 0 0-.16-.16h-.19a.16.16 0 0 0-.15.16Zm-3.4 5.31a.16.16 0 0 1-.16-.15V7.59c0-.08.07-.15.15-.15h2.82c.08 0 .15.07.15.15v2.82c0 .08-.07.15-.15.15h-.94a.16.16 0 0 1-.16-.15v-.24c0-.08-.07-.17-.15-.17h-.32c-.08 0-.15.09-.15.17v.24c0 .08-.07.15-.16.15H7.6Zm-.16.94v-.31c0-.09.07-.16.15-.16h.94c.09 0 .16.07.16.16v.31c0 .09-.07.16-.16.16a.16.16 0 0 0-.16.15v1.25c0 .09-.07.16-.15.16H7.9a.16.16 0 0 1-.16-.16v-1.25a.16.16 0 0 0-.16-.15.16.16 0 0 1-.15-.16Zm1.87-.31v.31c0 .09.07.16.16.16.08 0 .15.07.15.15v1.25c0 .09.07.16.16.16h.31c.09 0 .16-.07.16-.16v-1.25c0-.08.07-.15.16-.15.08 0 .15-.07.15-.16v-.31a.16.16 0 0 0-.15-.16h-.94a.16.16 0 0 0-.16.16Zm3.9-1.69h-2.06a.16.16 0 0 0-.15.16v2.93c0 .09.07.16.15.16h.12c.03 0 .05 0 .07-.02l1.03-.62c.14-.08.09-.3-.08-.3h-.63a.16.16 0 0 1-.16-.15v-.47c0-.09.07-.16.16-.16h1.25c.08 0 .15-.07.15-.15v-.16a.16.16 0 0 0-.15-.16h-1.25a.16.16 0 0 1-.16-.15v-.24c0-.08.07-.15.16-.15h1.56c.08 0 .15-.07.15-.16v-.2a.16.16 0 0 0-.15-.16Z" fill="url(#an4qc12fp)"/><path fill-rule="evenodd" d="M9 13.06a4.06 4.06 0 1 0 0-8.12 4.06 4.06 0 0 0 0 8.12ZM9 14A5 5 0 1 0 9 4a5 5 0 0 0 0 10Z" fill="url(#bn4qc12fp)"/><defs><linearGradient id="an4qc12fp" x1="13.53" y1="7.13" x2="4.31" y2="10.09" gradientUnits="userSpaceOnUse"><stop stop-color="#007469"/><stop offset=".55" stop-color="#00A0D2"/><stop offset="1" stop-color="#643E95"/></linearGradient><linearGradient id="bn4qc12fp" x1="13.53" y1="7.13" x2="4.31" y2="10.09" gradientUnits="userSpaceOnUse"><stop stop-color="#007469"/><stop offset=".55" stop-color="#00A0D2"/><stop offset="1" stop-color="#643E95"/></linearGradient></defs></svg>