<!-- by TradingView --><svg width="18" height="18" viewBox="0 0 18 18" xmlns="http://www.w3.org/2000/svg"><path fill="#F0F3FA" d="M0 0h18v18H0z"/><circle cx="9" cy="9" r="6" fill="url(#a)"/><ellipse cx="8.99" cy="9" rx="5.64" ry="5.65" fill="url(#b)"/><path fill-rule="evenodd" d="M9 14.3A5.29 5.29 0 1 0 8.97 3.7 5.29 5.29 0 0 0 9 14.3Zm0-.71a4.58 4.58 0 1 0-.02-9.17A4.58 4.58 0 0 0 9 13.59Z" fill="url(#c)" fill-opacity=".4"/><path fill-rule="evenodd" d="M9 13.46a4.47 4.47 0 1 0 0-8.93 4.47 4.47 0 0 0 0 8.93Zm0-.26a4.2 4.2 0 1 0 0-8.4 4.2 4.2 0 0 0 0 8.4Z" fill="url(#d)" fill-opacity=".7"/><circle cx="9" cy="9" r="4" fill="url(#e)"/><circle cx="9" cy="9" r="3" fill="url(#f)"/><path d="M7 6h1.14v2.89c0 .5.4.92.86.92.46 0 .86-.41.86-.92V6H11v2.77C11 10 10.1 11 9 11s-2-1-2-2.23V6Z" fill="url(#g)"/><path d="M8 6.12h-.9v2.65c0 1.17.85 2.11 1.9 2.11 1.05 0 1.9-.94 1.9-2.11V6.12H10v2.77c0 .57-.49 1.04-1 1.04s-1-.47-1-1.04V6.12Z" fill="url(#h)"/><defs><linearGradient id="a" x1="11.5" y1="3.24" x2="5.56" y2="13.85" gradientUnits="userSpaceOnUse"><stop stop-color="#AF4C00"/><stop offset="1" stop-color="#FFEF3A"/></linearGradient><linearGradient id="b" x1="9.76" y1="3.35" x2="6.63" y2="14.02" gradientUnits="userSpaceOnUse"><stop stop-color="#6C1D00"/><stop offset="1" stop-color="#E88800"/></linearGradient><linearGradient id="c" x1="9" y1="3.77" x2="9" y2="14.23" gradientUnits="userSpaceOnUse"><stop stop-color="#EDDC93"/><stop offset="1" stop-color="#FF9300"/></linearGradient><linearGradient id="d" x1="9" y1="4.54" x2="9" y2="13.46" gradientUnits="userSpaceOnUse"><stop stop-color="#FFFD9D"/><stop offset=".99" stop-color="#FF9B00"/></linearGradient><linearGradient id="e" x1="9" y1="5" x2="9" y2="13" gradientUnits="userSpaceOnUse"><stop stop-color="#AB5004"/><stop offset="1" stop-color="#E18316"/></linearGradient><linearGradient id="f" x1="9" y1="6" x2="9" y2="12" gradientUnits="userSpaceOnUse"><stop stop-color="#E98F00"/><stop offset=".14" stop-color="#752200"/><stop offset="1" stop-color="#C05200"/></linearGradient><linearGradient id="g" x1="9" y1="6" x2="9" y2="11" gradientUnits="userSpaceOnUse"><stop stop-color="#F2E3B7"/><stop offset="1" stop-color="#FFA904"/></linearGradient><linearGradient id="h" x1="9" y1="6.12" x2="9" y2="10.88" gradientUnits="userSpaceOnUse"><stop stop-color="#521300"/><stop offset="1" stop-color="#7A2900"/></linearGradient></defs></svg>