<!-- by TradingView --><svg width="18" height="18" viewBox="0 0 18 18" xmlns="http://www.w3.org/2000/svg"><path fill="#F0F3FA" d="M0 0h18v18H0z"/><path d="M15 9A6 6 0 1 0 3 9a6 6 0 0 0 12 0Zm-.35 0a5.65 5.65 0 1 0-11.3 0 5.65 5.65 0 0 0 11.3 0Z" fill="#A9960A"/><path d="M9 3.35a5.65 5.65 0 1 1 0 11.3 5.65 5.65 0 0 1 0-11.3Z" fill="#FBE118"/><path fill-rule="evenodd" d="M14 9A5 5 0 1 0 4 9a5 5 0 0 0 10 0Zm-.33 0a4.67 4.67 0 1 0-9.34 0 4.67 4.67 0 0 0 9.34 0Z" fill="#A9960A"/><path d="M9.23 5c.4 0 .77.24.77.64V8.9c.01.06.07.1.14.1l.27-.02c.35-.06.95-.1 1.3-.18.48-.1 1.2.05 1.29.55.04.35-.36.5-.67.58-1.63.36-2.3 2.06-4.11 2.06-1.12 0-2.09-.65-2.22-1.66V8.9h.41c0 .32.47.3.47 0l.4.08c0 .3.44.35.44.04h.41c0 .45.47.31.37-.25V5.67c0-.33.26-.67.73-.67ZM6.88 9.52c-.1 0-.2-.01-.3-.05 0 1.53.18 1.9 1.7 1.9 1.63 0 2.06-1.36 3.59-1.7.33-.07.35-.21.34-.26-.07-.35-1.44.1-1.73.13-.6.1-.98-.42-.98-.86V5.77c-.05-.36-.48-.32-.5.03v3.27c-.16-.07-1.5.45-2.12.45Z" fill="#A9960A"/><path fill-rule="evenodd" d="M6.77 7.8a.12.12 0 0 0-.07-.02c-.06 0-.1.03-.1.07v1.3c0 .01 0 .03.03.05.02.02.04.02.07.02.02 0 .05 0 .07-.02l.03-.05v-1.3l-.03-.05Zm.62.05c0-.28-.3-.52-.7-.52-.38 0-.69.24-.69.52v1.3c0 .28.31.52.7.52.37 0 .7-.24.7-.52v-1.3ZM8.37 6.7c.05 0 .13.05.13.14V9c0 .07-.08.13-.13.13s-.15-.04-.15-.13V6.84c0-.08.1-.14.15-.14Zm-.75.1c0-.34.32-.63.7-.63.4 0 .68.29.68.63v2.24c0 .34-.28.63-.67.63-.38 0-.7-.28-.7-.63V6.8Z" fill="#A9960A"/></svg>