<!-- by TradingView --><svg width="18" height="18" viewBox="0 0 18 18" xmlns="http://www.w3.org/2000/svg"><path fill="#CBDBFF" d="M0 0h18v18H0z"/><path d="M11.48 3.53A4.77 4.77 0 0 0 10 5.76c-.3-.1-.62-.16-.94-.16 0 0-1.22.7-1.18.16.01-.33-1.3-1.77-1.25-2.1C7.7 3 9.07 3 9.1 3a5.78 5.78 0 0 1 2.39.53Z" fill="#B8CFFF"/><path d="M12.83 4.4c.12.75.09 1.46-.11 2.14 0 .01 0 .04.03.1.04.09.06.2.04.34-.03.3-.16.53-.31.8-.08.13-.13.23-.14.3-.07.2-.05.4-.03.62.04.37.02.74-.05 1.11-.1.48-.3.9-.61 1.27-.02.03-.03.07-.03.13l.26 3.05-.16.09-.13-1.46-.14-1.64h-.01l-.31.32c-.2.17-.38.33-.54.5-.08.08-.12.17-.18.26a.8.8 0 0 1-.58.37c-.07 0-.1.03-.17.07a1.37 1.37 0 0 1-1.4-.04.38.38 0 0 0-.12-.03.82.82 0 0 1-.57-.39c-.06-.08-.1-.16-.18-.24a9.1 9.1 0 0 0-.49-.46l-.36-.36h-.01l-.12 1.47-.14 1.63a.55.55 0 0 1-.16-.1l.26-3.04c0-.05 0-.1-.04-.13a3.14 3.14 0 0 1-.37-.57 3.28 3.28 0 0 1-.3-1.5c0-.19.01-.37.03-.55a.95.95 0 0 0-.11-.53l-.22-.4c-.11-.2-.17-.41-.18-.63 0-.1.02-.21.08-.33v-.03a4.7 4.7 0 0 1 .18-3.16c.1-.3.4-.38.64-.18l.1.07a4.8 4.8 0 0 1 1.8 2.5c.34-.13.7-.19 1.08-.17.32 0 .64.05.94.16h.02a4.77 4.77 0 0 1 1.78-2.5c.16-.12.27-.2.46-.16.13.03.21.11.27.25.14.36.24.71.3 1.06Z" fill="#010102"/><path d="m8.82 5.77-.1.22c-.16.37-.22.75-.2 1.15l.06.58a2.94 2.94 0 0 1-.04.89h-.02l-.01-.02c.02-.63-.64-.9-1.17-.76-.2.06-.39.16-.56.31-.4.34-.73.85-.7 1.38.01.42.19.83.43 1.18.23.32.5.61.8.87.03.02.05 0 .07-.04.01.08-.01.15-.01.21a1.04 1.04 0 0 0 .01.14h-.01c-.3-.27-.56-.52-.78-.75a2.78 2.78 0 0 1-.75-1.6 4.13 4.13 0 0 1 .01-.98c.02-.15 0-.33-.04-.51a1.33 1.33 0 0 0-.15-.32c-.17-.3-.29-.5-.31-.78 0-.1 0-.2.04-.26l.05-.1v-.03a4.58 4.58 0 0 1 .2-3.2c.03-.05.08-.08.15-.1.1 0 .2.1.34.2.53.4.96.89 1.29 1.48a3.83 3.83 0 0 1 .43 1.09c.3-.17.62-.25.97-.25ZM10.6 11.5c0 .03 0 .06.03.08h.03a8.72 8.72 0 0 0 .6-.58c.23-.28.42-.59.55-.93.16-.43.15-.88-.08-1.3-.32-.57-.96-1.14-1.67-.94-.22.06-.39.2-.5.4a.93.93 0 0 0-.07.23l-.01.03h-.03l-.04-.07c-.04-.34-.02-.7.03-1.06.07-.44.02-.87-.14-1.3-.03-.1-.07-.19-.12-.29a2 2 0 0 1 .96.24 4.85 4.85 0 0 1 1.83-2.66.45.45 0 0 1 .19-.1c.09 0 .15.04.2.14a4.8 4.8 0 0 1 .17 3.2c.03.08.09.14.1.24 0 .2-.04.38-.14.57l-.26.49c-.07.1-.1.25-.1.42-.01.14 0 .35.02.63a2.97 2.97 0 0 1-.87 2.3 15.32 15.32 0 0 1-.67.62l-.01-.36Z" fill="#A84E23"/><path d="M5.8 5.42a.02.02 0 0 0-.02 0 .02.02 0 0 0 0 .02 5.45 5.45 0 0 0 .32 1.03c.03.07.02.07-.03.03l-.24-.27c-.02-.02-.03-.02-.01 0l.12.21c.02.02.02.06.03.12a6.26 6.26 0 0 1 0 .5c0 .03 0 .05.02.06l.18.15c.03.02.03.05 0 .07l-.1.05c-.05.04-.1.03-.14-.02a6.6 6.6 0 0 1-.3-.38c-.07-.12.03-.31.07-.43v-.04a4.08 4.08 0 0 1-.16-1.35 5.41 5.41 0 0 1 .25-1.43l.03-.02c.04 0 .08.01.12.05.58.54 1 1.16 1.17 1.93.04.17.05.3.05.4 0 .06-.03.12-.08.18a14.75 14.75 0 0 0-.29.38 2.22 2.22 0 0 0-1-1.24ZM12.14 6.25a64.88 64.88 0 0 0-.25.25v-.03a5.51 5.51 0 0 0 .3-1.06 2.17 2.17 0 0 0-1 1.25.02.02 0 0 1-.01 0h-.01l-.3-.44c-.08-.12-.03-.35 0-.5.18-.78.62-1.44 1.2-1.97l.09-.03a.05.05 0 0 1 .05.04 4.98 4.98 0 0 1 .08 2.73l.01.12c.05.11.13.28.07.37-.08.11-.18.25-.31.4-.04.04-.08.04-.14.01l-.08-.04c-.05-.03-.05-.06 0-.1l.16-.14c.03-.03.04-.07.04-.13a5.86 5.86 0 0 1-.02-.44c0-.12.11-.19.14-.28h-.02Z" fill="#6B2E19"/><path d="M5.14 4.44a4.7 4.7 0 0 0 .12 2.13.67.67 0 0 0-.08.33c0 .22.07.42.18.63l.22.4c.08.15.12.33.1.53L5.66 9H3a5.93 5.93 0 0 1 2.14-4.56Z" fill="#F1F5FF"/><path d="m9.18 5.77.12.3c.16.42.21.85.14 1.29a4.27 4.27 0 0 0 0 1.28c.11.43.27.85.47 1.24l.42.8c.14.24.21.49.22.73l-.02.07-.04.11v.02h-.02a7.96 7.96 0 0 0-.18.27 1 1 0 0 1-.19.2c-.2.18-.43.21-.67.1v-.03l.09-.27c.14-.19.2-.4.18-.62a.41.41 0 0 0-.24-.34.83.83 0 0 0-.26-.07 1.3 1.3 0 0 0-.7.07.47.47 0 0 0-.23.47c.01.2.08.38.22.53-.01.08.01.15.08.21a.03.03 0 0 1 0 .02.03.03 0 0 1-.01.02c-.36.2-.7-.01-.89-.32a3.38 3.38 0 0 1-.22-.4v-.04a.65.65 0 0 1 .02-.25c.05-.18.1-.32.17-.43.19-.34.37-.69.54-1.04a5.1 5.1 0 0 0 .37-1.1c.05-.29.06-.58.03-.87l-.05-.58a2.37 2.37 0 0 1 .29-1.37h.36Z" fill="#FAFCFB"/><path d="M8.55 8.59a5.1 5.1 0 0 1-.37 1.1c-.17.35-.35.7-.54 1.04-.06.11-.12.25-.17.43a.65.65 0 0 0-.02.25c-.03 0-.05 0-.05.02a.9.9 0 0 0-.02.1c-.02.05-.04.06-.07.04a4.4 4.4 0 0 1-.8-.87 2.26 2.26 0 0 1-.44-1.18c-.02-.53.31-1.04.7-1.38.18-.15.37-.25.57-.3.53-.16 1.19.12 1.17.75l.01.02h.02v-.02ZM10.6 11.5c0-.05-.02-.08-.05-.09 0-.24-.08-.49-.22-.73l-.42-.8a5.94 5.94 0 0 1-.5-1.46l.04.06h.03l.01-.02.06-.23c.12-.2.3-.34.51-.4.7-.2 1.35.37 1.67.95.23.4.24.86.08 1.3-.13.33-.32.64-.56.92a8.72 8.72 0 0 1-.6.58h-.02c-.02-.02-.03-.05-.03-.08Z" fill="#DD844C"/><path d="M7.63 8.11a.73.73 0 0 1 .46.3h-.01c-.15-.1-.3-.18-.47-.21a1.22 1.22 0 0 0-.51.03V8.2c.17-.1.35-.13.53-.1ZM10.38 8.2a1.21 1.21 0 0 0-.46.21V8.4a.73.73 0 0 1 .98-.18l-.01.01a1.2 1.2 0 0 0-.5-.04Z" fill="#FAFCFB"/><path d="M14.99 8.58 14.93 8a6.1 6.1 0 0 0-1.48-3.04 3.29 3.29 0 0 0-.62-.56c.12.74.08 1.45-.11 2.13 0 .01 0 .04.03.1.04.09.06.2.04.34-.03.3-.15.52-.3.78l-.01.02c-.08.13-.13.23-.15.3-.06.2-.04.4-.02.62.04.37.02.74-.05 1.11-.1.48-.3.9-.61 1.27-.02.03-.03.07-.03.13l.26 3.05a5.96 5.96 0 0 0 3.1-5.68Z" fill="url(#a)"/><path d="M6.89 9.04a.2.2 0 0 0-.13-.12.03.03 0 0 1-.01-.04c.22-.26.5-.36.84-.3.1.03.19.08.27.15a1.08 1.08 0 0 1 .28.63.04.04 0 0 1-.03.02H8.1a.98.98 0 0 0-.25-.04c-.1 0-.22.04-.3.06-.28.05-.53-.11-.65-.36ZM11.11 9.04c-.13.25-.38.4-.65.36-.09-.02-.2-.06-.3-.06a.98.98 0 0 0-.26.04.04.04 0 0 1-.03 0 .04.04 0 0 1-.02-.04c.04-.23.13-.46.29-.6a.57.57 0 0 1 .27-.15.82.82 0 0 1 .85.3v.02a.03.03 0 0 1-.02.01.2.2 0 0 0-.13.12Z" fill="#010102"/><path d="M7.46 8.9c.05 0 .1-.02.1-.07 0-.04-.04-.08-.09-.09-.05 0-.1.03-.1.08 0 .04.04.08.09.09ZM10.55 8.9c.06 0 .1-.04.1-.09-.01-.04-.06-.07-.11-.07s-.1.05-.09.1c0 .04.05.07.1.07ZM7.5 9.18c.1.02.19-.02.28-.1h.02c-.18.38-.71.2-.63-.22a.03.03 0 0 1 .03-.03l.02.01.01.03c.03.17.12.27.28.3ZM10.5 9.18c.17-.04.26-.14.28-.32l.01-.02h.03a.03.03 0 0 1 .02.01c.08.42-.44.61-.63.24v-.01h.02c.1.08.19.11.27.1Z" fill="#FAFCFB"/><path d="M5.96 10.51A3.29 3.29 0 0 1 5.66 9H3a6.06 6.06 0 0 0 3.1 5.25l.27-3.04c0-.05 0-.1-.04-.13a3.14 3.14 0 0 1-.37-.57Z" fill="url(#b)"/><path d="M9.46 10.93c.02.1.02.19-.01.27v.07c.02.02 0 .02-.01.02-.21-.02-.36.05-.44.21a.02.02 0 0 1-.02.02.02.02 0 0 1-.02-.02c-.08-.16-.23-.23-.43-.21-.02 0-.03 0-.02-.02.01-.04 0-.09-.02-.14-.01-.03 0-.1.01-.2.22-.1.45-.12.7-.08.1.01.18.04.26.08Z" fill="#2E2E2E"/><path d="M11.6 12.89c-.04.13-.07.34-.11.63-.03.22-.1.57-.21 1.04l-.33.12a6.01 6.01 0 0 1-4.24-.15 12.9 12.9 0 0 1-.3-1.81l.12-1.47h.01l.36.36c.05.22.14.46.28.72.27.5.56.9 1 1.17.39.23.77.3 1.17.2.34-.09.67-.31.91-.58a3.69 3.69 0 0 0 .87-1.55l.3-.32h.02l.14 1.64Z" fill="#FAFCFB"/><path d="M8.49 11.92c.12.12.27.19.43.21.02 0 .02 0 .02.02v.2l-.01.01a2.2 2.2 0 0 0-.45.14c-.4.17-.7-.03-.89-.4-.1-.2-.15-.41-.14-.65.06.14.14.27.22.4.2.3.53.51.89.32a.03.03 0 0 0 .01-.03v-.01a.24.24 0 0 1-.08-.21ZM10.53 11.48c0 .23-.04.44-.14.64-.08.17-.2.3-.36.38a.54.54 0 0 1-.47.02c-.24-.09-.4-.14-.49-.16l-.01-.02v-.2l.02-.02c.16-.02.31-.1.44-.24l-.1.27.01.03c.24.11.47.08.67-.1a1 1 0 0 0 .2-.2 8.02 8.02 0 0 1 .19-.29l.04-.1Z" fill="#CCD4E9"/><path d="M11.13 11.57a4.08 4.08 0 0 1-.87 1.55c-.24.27-.57.5-.9.58-.4.1-.8.03-1.17-.2a2.89 2.89 0 0 1-1-1.17c-.15-.26-.24-.5-.29-.72l.5.46c.07.08.11.16.17.24.13.22.32.34.57.39.06 0 .1.02.13.03a1.37 1.37 0 0 0 1.4.03c.05-.03.09-.05.16-.06a.8.8 0 0 0 .58-.37c.06-.09.1-.18.18-.26.16-.17.34-.33.54-.5Z" fill="#CCD4E9"/><path d="M8.57 11.67c.1 0 .17 0 .2-.04.03-.03.04-.02.04.02s-.03.07-.08.09a.13.13 0 0 1-.07 0 .17.17 0 0 1-.1-.05l.01-.02Z" fill="#F1F5FF"/><path d="M9.4 11.69a.17.17 0 0 1-.1.05h-.06c-.05-.02-.08-.05-.08-.1 0-.03.01-.04.04 0 .02.02.1.04.2.03.02 0 .02 0 0 .02Z" fill="#FAFCFB"/><path d="m9 12.5.15.02a7.37 7.37 0 0 1 .42.17c-.19.1-.38.14-.57.14a1.32 1.32 0 0 1-.59-.15l.01-.01.42-.15.16-.02Z" fill="#CCD4E9"/><path d="M6.7 14.53h-.02a5.86 5.86 0 0 1-.41-.18l.14-1.63.02.15v.15c.07.51.16 1.01.28 1.5ZM11.6 12.89l.12 1.46-.44.2a12.16 12.16 0 0 0 .31-1.66Z" fill="#DD844C"/><defs><linearGradient id="a" x1="13.31" y1="4.41" x2="13.31" y2="14.26" gradientUnits="userSpaceOnUse"><stop stop-color="#9CBCFE"/><stop offset="1" stop-color="#588EF3"/></linearGradient><linearGradient id="b" x1="4.06" y1="9.37" x2="5.37" y2="13.94" gradientUnits="userSpaceOnUse"><stop stop-color="#0454FF"/><stop offset="1" stop-color="#266CF8"/></linearGradient></defs></svg>