<!-- by TradingView --><svg width="18" height="18" viewBox="0 0 18 18" xmlns="http://www.w3.org/2000/svg"><path fill="#F0F3FA" d="M0 0h18v18H0z"/><path d="M8.95 3a6.2 6.2 0 0 1 3.78 1.32 5.77 5.77 0 0 1 1.55 1.84 5.95 5.95 0 0 1-3.73 8.65l-1.06.17a5.97 5.97 0 0 1-2.74-.4L5.68 14l-.87-.7-.45-.48-.41-.58a6.24 6.24 0 0 1-.55-5.4l.53-1.06.49-.68c.3-.34.63-.64.97-.9l.97-.6.27-.13A6.25 6.25 0 0 1 8.95 3Z" fill="#010105"/><path d="M12.82 4.69c.3.42.78.9 1 1.5l-.34-.5c-.18-.27-.36-.5-.56-.66-.31-.33-.66-.6-1.03-.8a5.26 5.26 0 0 0-2.44-.81c-.57-.04-1.11 0-1.64.1-.55.1-1.06.31-1.56.6a5.6 5.6 0 0 0-2 1.59 5.58 5.58 0 0 1 5.03-2.49 5.96 5.96 0 0 1 3.54 1.47Z" fill="#4C45A5"/><path d="M11.9 4.23c-.01.02 0 .05.01.07.02.03.01.04-.02.05h-.05a5.08 5.08 0 0 1-.55-.25 6.34 6.34 0 0 0-3.11-.47 5.2 5.2 0 0 0-1.8.53l-.62.33c-.05.03-.06.02-.03-.03l.04-.07c.17-.08.33-.17.48-.27.5-.29 1.01-.5 1.56-.6.53-.1 1.07-.14 1.64-.1.87.06 1.68.33 2.44.8Z" fill="#F0F3FA"/><path d="M11.9 4.23c.36.2.7.47 1.02.8.2.27.35.57.41.9 0 .02 0 .03-.02 0l-1.2-1.17.06.02a6.33 6.33 0 0 0-4-1.15c.88-.1 1.73-.01 2.55.24.2.06.38.13.57.23a5.08 5.08 0 0 0 .6.25c.03 0 .04-.02.02-.05a.1.1 0 0 1-.02-.07Z" fill="#9697E9"/><path d="M8.17 3.63a6.33 6.33 0 0 1 4 1.15.27.27 0 0 1-.06-.02L12 4.7c-.02 0-.03 0-.04.02 0 .04-.03.05-.07.05-.06 0-.17-.03-.32-.08A5.97 5.97 0 0 0 9.62 4a7.28 7.28 0 0 0-1.05-.02c-.48.06-.79.12-.93.17-.62.2-1.18.5-1.7.88A5.04 5.04 0 0 0 4.5 6.76c-.1.22-.2.44-.25.68l-.03.04-.02.02a4.84 4.84 0 0 0 .63 4.27c-.2 0-.38-.03-.55-.1a5.36 5.36 0 0 1-.87-3.13l.02-.96c.16-.69.44-1.3.83-1.87a5.6 5.6 0 0 1 1.52-1.32l-.04.07c-.03.05-.02.06.03.03l.62-.33a5.2 5.2 0 0 1 1.8-.53Z" fill="#535BE5"/><path d="M11.58 4.7a5.09 5.09 0 0 1 2.35 3.42l-.02.06c0 .03-.02.03-.04.01l-.02-.01c-.2-1.1-.7-2.02-1.49-2.76A4.85 4.85 0 0 0 8.88 4.1l-.1-.01v-.01l.01-.02c.02-.03.01-.04-.02-.04l-.2-.03c.54-.01.89 0 1.05.02.7.12 1.35.35 1.96.7Z" fill="#152060"/><path d="m8.57 3.98.2.03c.03 0 .04.01.02.04l-.01.02v.01l.1.01a4.92 4.92 0 0 0-2.28 9.22c.03.04.01.05-.07.05a4.96 4.96 0 0 1-1.95-2 4.84 4.84 0 0 1-.09-4.6c.38-.71.86-1.3 1.46-1.73.5-.38 1.07-.67 1.7-.88.13-.05.44-.1.92-.17Z" fill="#141532"/><path d="M13.85 8.18a4.95 4.95 0 0 1-7.25 5.14A4.9 4.9 0 0 1 4.1 8.34a4.92 4.92 0 0 1 9.74-.17Z" fill="#F0F3FA"/><path d="M9.96 4.55c-.03.1-.1.13-.2.1a8.77 8.77 0 0 0-1.51 0c-.1.01-.17.06-.19.14a.7.7 0 0 0-.34 0l-.6.23c-.13.04-.26.12-.4.22-.12.09-.25.17-.39.24a.24.24 0 0 1-.09-.1 4.54 4.54 0 0 1 3.72-.83Z" fill="#010105"/><path d="M9.96 4.55c.67.15 1.3.44 1.84.87a.27.27 0 0 1-.13.05 6.26 6.26 0 0 1-.33-.2c.35.27.75.57.97.93l-.02-.01a.05.05 0 0 0-.02-.03 1.13 1.13 0 0 1-.3-.2c-.05-.05-.06-.04-.03.01.02.03.05.05.09.07a.09.09 0 0 1 .05.05l.02.08c-.33-.28-.68-.54-1.04-.78a1.9 1.9 0 0 0-.75-.3.08.08 0 0 0-.09.12c.2.4.41.87.61 1.4.23.6.64 1.1.62 1.77l-.12-.22-.53-1.23-.18-.37-.74-1.69a.62.62 0 0 0-.12-.23c.1.04.17.01.2-.09Z" fill="#193294"/><path d="M9.76 4.64c.04.05.08.12.12.23-.7-.22-1.32-.2-1.87.07l.05-.15c.02-.08.08-.13.19-.14.45-.04.95-.05 1.5 0Z" fill="#7E79B3"/><path d="m12.1 4.76 1.21 1.18c.02.02.03.01.02-.01-.06-.33-.2-.63-.41-.9.2.17.38.39.56.66a6 6 0 0 1 .65 2.58c0 .04-.01.08-.05.1l-.03.03c-.04.02-.07.01-.08-.03l-.04-.25a5.09 5.09 0 0 0-2.35-3.42c.15.05.26.07.32.08.04 0 .07-.01.07-.05 0-.02.02-.03.04-.02l.1.05Z" fill="#3B60CE"/><path d="M5.63 13.52c.63.39 1.3.67 2.01.85a4.88 4.88 0 0 0 2.86-.15 5.42 5.42 0 0 0 1.97-1.06 5.57 5.57 0 0 0 1.95-5.47l-.02.02c.05.51.06 1.02.03 1.54l-.1.5a5.6 5.6 0 0 0-.5-3.56c-.23-.6-.71-1.08-1.01-1.5a5.55 5.55 0 0 1 1.17 7.1 6.1 6.1 0 0 1-4.43 2.9c-.51.02-.96 0-1.35-.03a4.75 4.75 0 0 1-1.8-.53 4 4 0 0 1-.78-.6Z" fill="#141532"/><path d="m8.06 4.79-.05.15-.2.5-.28.52-.92 2.19a.3.3 0 0 1-.04.08c-.03-.44.23-.85.4-1.24l.31-.81c.11-.3.25-.62.42-.98.01-.02 0-.04-.02-.03-.34.03-.67.18-1.01.47-.55.47-1 .88-1.34 1.45-.4.7-.61 1.51-.62 2.42-.01.64.15 1.2.47 1.7L6 12.41A4.55 4.55 0 0 1 4.55 8.1v.24h.02l.02.01c.01 0 .02 0 .03-.02.19-.8.5-1.5.93-2.08.19-.24.45-.5.78-.77.14-.07.27-.15.4-.24.13-.1.26-.18.39-.22l.6-.23a.7.7 0 0 1 .34 0Z" fill="#193294"/><path d="M12.1 6.17a1.87 1.87 0 0 0 .2.2 4.27 4.27 0 0 0-.2-.2l-.02-.08a.08.08 0 0 0-.05-.05.16.16 0 0 1-.09-.07c-.03-.05-.02-.06.02-.02.1.09.2.16.3.2.02.01.03.02.03.04l.01.01c-.21-.36-.61-.67-.96-.93v-.01h.02l.3.2a4.38 4.38 0 0 1 1.72 3.22c.03.25.08.48.15.71a4.55 4.55 0 0 1-3.28 4l-.13-.11.36-.12c.3-.1.6-.25.87-.43.24-.13.48-.3.72-.54.04-.05.07-.11.08-.18v-.1c-.04-.05-.07-.06-.12-.01l-.48.48c-.03.03-.06.03-.08 0l-.03-.04v-.78l.02.73.02.01h.02v-.01c.07-.37.1-.72.06-1.03-.02-.23-.14-.31-.37-.26-.07.01-.1.06-.17.07a.1.1 0 0 1-.08-.02.33.33 0 0 0-.16-.07.05.05 0 0 1-.05-.03.05.05 0 0 1 0-.05c.23-.37.17-.79-.18-1.25.08.02.12.01.13-.02.06-.3-.06-.47-.36-.51a.42.42 0 0 0-.32-.1c-.13.01-.28.14-.37.19-.03.01-.05.02-.07 0a.5.5 0 0 1-.14-.14.14.14 0 0 0-.07-.05 1.91 1.91 0 0 0-.55-.04.23.23 0 0 0-.18.09.32.32 0 0 0-.09.2c0 .25 0 .44-.03.58 0 .02-.01.03-.03.05a.17.17 0 0 1-.05.02.05.05 0 0 1-.06-.02V9.9a3.39 3.39 0 0 1-.06-.62c0-.05-.03-.1-.1-.17a.21.21 0 0 0-.16-.07c-.2 0-.37 0-.5.03a.23.23 0 0 0-.2.2l-.22 1.66c0 .04-.02.06-.06.06h-.37a.1.1 0 0 0-.09.03.27.27 0 0 0-.08.2c.01.2.01.32.23.35.05 0 .08.03.08.09l.01.78-.6-.27-.76-.94a.66.66 0 0 0-.24-.2c-.03 0-.05 0-.06.03a.23.23 0 0 0 0 .15 2.93 2.93 0 0 1-.47-1.69c0-.9.22-1.72.62-2.42a5.6 5.6 0 0 1 1.34-1.45c.34-.29.67-.44 1-.47.03 0 .04 0 .03.03-.17.36-.3.68-.42.98-.15.39-.25.66-.32.8-.16.4-.42.81-.39 1.25l-.13.27a.06.06 0 0 0 0 .05.06.06 0 0 0 .06.03c.09 0 .16.03.2.12a.1.1 0 0 0 .07.05.8.8 0 0 0 .24.05h1.45c.17 0 .3-.1.37-.28.1.05.18.04.21-.04 0 .04.01.07.04.09a.07.07 0 0 0 .1-.02.31.31 0 0 0 .01-.15l.06.05c.02.02.04 0 .04-.03s.02-.05.03-.08v.18c0 .03.02.05.03.06.02.01.04.02.07.01.03 0 .04-.02.04-.06v-.31c.04.03.08 0 .1-.1v.37a.08.08 0 0 0 .03.07c.06.04.1.02.13-.07 0 .1.1.11.31.04.18.04.3.11.37.22a.1.1 0 0 0 .09.05h.67l.06-.03.25-.24a.06.06 0 0 0 .01-.07.25.25 0 0 0-.03-.08c.02-.67-.39-1.17-.62-1.77a13.72 13.72 0 0 0-.62-1.44.08.08 0 0 1 .1-.08c.27.05.52.15.75.3.36.24.7.5 1.04.78Z" fill="#3138AD"/><path d="M6.24 5.39c.03.05.06.08.1.1-.34.26-.6.52-.79.76a5.6 5.6 0 0 0-.96 2.1h-.02l-.01-.01-.01-.24a4.55 4.55 0 0 1 1.69-2.71ZM13.53 9.4a3.8 3.8 0 0 1-.14-.7 4.38 4.38 0 0 0-1.72-3.22c.05-.02.1-.03.13-.06a4.56 4.56 0 0 1 1.73 3.97Z" fill="#152060"/><path d="M13.82 6.19a5.6 5.6 0 0 1 .51 3.56l.1-.5a5.75 5.75 0 0 1-3.17 4.6 46.84 46.84 0 0 1-.76.36c-.27.04-.54.1-.8.16a5.07 5.07 0 0 1-1.55.03 5.77 5.77 0 0 0-.5-.03 7.02 7.02 0 0 1-2.02-.85l-.65-.59c.82.46 1.7.8 2.6 1.04a1.6 1.6 0 0 0 .51 0h-.02c-.55-.11-1.07-.31-1.54-.61.08 0 .1-.01.07-.05a4.95 4.95 0 0 0 7.25-5.13l.02.01c.02.02.04.02.04-.01l.02-.06.04.25c.01.04.04.05.08.03l.03-.03a.12.12 0 0 0 .05-.1 6 6 0 0 0-.65-2.58l.34.5Z" fill="#363981"/><path d="M9 6.03c.03.07.08.12.17.13.1.02.2.03.27.02.03 0 .05-.02.06-.04a.38.38 0 0 1 .1-.12c.03.14-.02.21-.15.22-.3.03-.53-.04-.68-.2a.11.11 0 0 0-.08-.05.96.96 0 0 0-.38.05.5.5 0 0 1-.21-.01.06.06 0 0 1-.05-.05c-.01-.06-.04-.09-.07-.09a.12.12 0 0 1 .09-.06c.02 0 .05 0 .09.03.17.1.43.17.49-.1 0-.03.02-.05.05-.06a.11.11 0 0 1 .1 0 .1.1 0 0 1 .04.06c.03.12.09.2.17.27Z" fill="#535BE5"/><path d="M7.98 5.9c.03 0 .06.02.07.08 0 .03.02.04.05.05.1.02.17.02.2 0A.96.96 0 0 1 8.7 6l.07.04c.15.17.38.24.68.21.13-.01.18-.08.15-.22.01 0 .02 0 .02-.03h.09l.06.05c.1.15.2.32.25.5.02.07.12.21.28.42a.1.1 0 0 0 .07.04l.28.03c0 .14-.03.25-.1.33l-.36.42a.2.2 0 0 0-.05.15l.02.45-.13.15c-.2.07-.31.06-.3-.04L9.7 7a.04.04 0 0 0-.04-.04h-.04a.05.05 0 0 0-.05.05v1.12c-.03.1-.07.13-.11.1v-.65c0-.02 0-.03-.02-.04a.06.06 0 0 0-.04-.02h-.02c-.05 0-.07.03-.07.08l.01.75a.27.27 0 0 0-.03.08c0 .04-.02.05-.04.03a.13.13 0 0 1-.06-.05v-.21c0-.03-.02-.05-.05-.06H9.1c-.04 0-.05.03-.05.06l-.02.3c-.03.07-.1.08-.21.03 0-.17 0-.34.03-.5 0-.06 0-.1-.04-.14l-.02-.04c0-.22-.04-.42-.11-.6a.07.07 0 0 0-.07-.05c-.34-.04-.69-.02-1.04.06-.1-.12-.14-.22-.1-.3.06-.18.1-.37.1-.57 0-.03 0-.06.02-.08a.8.8 0 0 1 .22-.21l.16-.2Z" fill="#010798"/><path d="m11.33 8.16-.53-.28a.09.09 0 0 0-.09 0c-.22.14-.4.3-.55.5l-.02-.45c0-.05.01-.1.05-.15l.36-.42c.07-.08.1-.2.1-.33.05 0 .1-.03.15-.1l.53 1.23Z" fill="#DFDFE6"/><path d="M8.8 7.84c-.14-.13-.02-.32-.17-.43-.04-.02-.1-.03-.22-.02-.32.03-.6-.01-.83-.14.35-.08.7-.1 1.04-.06.03 0 .05.02.07.05.07.18.11.38.11.6Z" fill="#152060"/><path d="m3.42 7.58-.02.96a5.36 5.36 0 0 0 .87 3.13c.17.07.35.1.55.1l.42.53c.34.4.77.75 1.3 1.06a4.32 4.32 0 0 0 1.55.6c-.23.03-.4.03-.5 0-.92-.23-1.79-.57-2.61-1.03l-.27-.27a7.34 7.34 0 0 1-.88-1.5l-.52-1.31a5.88 5.88 0 0 1 .1-2.27Z" fill="#364DBE"/><path d="m10.5 14.22.76-.37a5.75 5.75 0 0 0 3.16-4.6 9.4 9.4 0 0 0-.02-1.54l.02-.02a7.56 7.56 0 0 1 .13 1.16 5.57 5.57 0 0 1-2.08 4.31c-.59.5-1.24.84-1.97 1.06Z" fill="#152060"/><path d="M9.2 8.4c0 .06 0 .11-.03.15a.07.07 0 0 1-.1.02c-.02-.02-.03-.05-.03-.09l.02-.3c0-.02.01-.04.05-.05h.03c.03 0 .04.03.05.06v.2Z" fill="#F0DFFF"/><path d="M10.32 9.12c-.1 0-.2 0-.3.02-.33.08-.33.44-.24.7.1.27.65.3.54.71-.01.05-.05.08-.11.07-.04 0-.06-.02-.06-.06v-.22a.08.08 0 0 0-.07-.08H9.8c-.04 0-.06.02-.06.06-.03.25.04.5.32.56a.7.7 0 0 0 .58-.1.13.13 0 0 0 .05-.07.99.99 0 0 0 0-.57c-.05-.16-.29-.28-.47-.4-.09-.07-.12-.17-.08-.3a.06.06 0 0 1 .05-.04h.03c.05 0 .07.02.07.07v.13c.01.03.04.05.1.06a.3.3 0 0 0 .15 0c.35.45.4.87.18 1.24a.05.05 0 0 0 0 .05.05.05 0 0 0 .05.03c.06 0 .11.03.16.07a.1.1 0 0 0 .08.02c.07-.01.1-.06.17-.07.23-.05.35.03.37.26a3.8 3.8 0 0 1-.06 1.04h-.04l-.02-.74v-.35c0-.05-.02-.08-.07-.08h-.1c-.06 0-.09.03-.09.08v.52c0 .09-.02.09-.05.02l-.28-.55a.1.1 0 0 0-.05-.06.32.32 0 0 0-.23.01c-.03-.02-.07-.02-.12 0H9.7c-.04 0-.06.02-.06.06v1.15c0 .1-.02.11-.07.02l-.31-.64a.11.11 0 0 1 0-.11l.31-.41c.05-.06.03-.09-.04-.09h-.16a.2.2 0 0 0-.16.1l-.22.3c-.05.08-.08.08-.08-.01v-.3c0-.06-.02-.09-.08-.09h-.12c-.05 0-.07.03-.07.07v1.26c0 .04.02.06.05.06h.18c.03 0 .05-.03.05-.07v-.33c0-.07.03-.11.08-.13.03 0 .05 0 .06.03l.22.43a.1.1 0 0 0 .09.06h1.09v-.02l.11-.03c.05.07.12.08.23.04.03-.02.04-.04.04-.06l-.01-.47c0-.15.03-.16.09-.02l.25.53c-.6.3-1.02.27-1.84.28-.55 0-.98-.02-1.3-.07-.44-.07-.77-.1-1.02-.07a.1.1 0 0 1-.07-.02.3.3 0 0 1-.1-.17l-.01-.78c0-.06-.03-.09-.08-.1-.22-.02-.22-.15-.23-.34 0-.07.03-.14.08-.2a.1.1 0 0 1 .09-.03h.37c.04 0 .06-.02.06-.06l.23-1.66a.23.23 0 0 1 .18-.2c.14-.02.3-.03.51-.03.07 0 .13.02.17.07.06.07.09.12.09.17a3.39 3.39 0 0 0 .06.63.05.05 0 0 0 .04.02h.02l.05-.02c.02-.02.03-.03.03-.05.03-.14.04-.33.03-.58 0-.06.03-.13.09-.2.04-.06.1-.08.18-.09.23 0 .4 0 .55.04.03 0 .06.03.07.05.06.08.1.12.14.15l.07-.01c.1-.05.24-.18.37-.2.12 0 .22.03.32.1Z" fill="#193294"/><path d="M7.83 9.15a5.54 5.54 0 0 1 .3.02c.02 0 .02.02.02.03l.23 1.6c0 .04 0 .05-.03.06a.8.8 0 0 1-.36-.01c-.03 0-.04-.03-.04-.06 0-.16-.03-.24-.12-.24-.08 0-.12.09-.11.25 0 .03-.01.04-.04.05a.8.8 0 0 1-.35.01c-.03 0-.05-.02-.04-.05l.2-1.6a.05.05 0 0 1 .06-.05l.28-.01ZM9.06 10.55c-.09 0-.12.08-.12.24 0 .03-.01.05-.04.06a.81.81 0 0 1-.35.01c-.03 0-.04-.02-.04-.05l.2-1.61.02-.03.03-.02a6.1 6.1 0 0 1 .6.01l.01.03.24 1.6c0 .04-.01.05-.04.06a.8.8 0 0 1-.35 0c-.03-.01-.05-.03-.05-.06 0-.16-.03-.24-.11-.24Z" fill="#F0F3FA"/><path d="M7.78 10.27a.02.02 0 0 1-.02-.02v-.02a4.86 4.86 0 0 1 .05-.54l.03-.04c.02 0 .03.06.04.17l.02.41v.02a.02.02 0 0 1-.02.02h-.1Z" fill="#152060"/><path d="M9 10.27h-.02a.02.02 0 0 1 0-.02v-.02a4.48 4.48 0 0 1 .06-.53c.01-.03.02-.05.03-.04.02 0 .04.06.04.17V10.25a.02.02 0 0 1 0 .02H9ZM4.7 12.66a3.83 3.83 0 0 1-.96-1.34c-.21-.48-.35-.97-.43-1.47l.52 1.3c.19.46.48.96.88 1.51Z" fill="#363981"/><path d="m6.24 12.16.25.26c-.11 0-.1.09.07.24.19.18.48.33.88.45l.48.17a.58.58 0 0 1-.22.08 4.55 4.55 0 0 1-1.7-.94l-.82-1.22a.23.23 0 0 1 0-.15c.01-.03.03-.03.06-.02.1.04.17.1.24.19l.76.94Z" fill="#364DBE"/><path d="M7.08 11.13h.39c.03 0 .04.02.04.05v.19a.08.08 0 0 1-.07.08h-.17a.05.05 0 0 0-.05.05v.96c0 .02-.01.04-.04.05l-.1.01h-.1c-.02-.02-.04-.04-.04-.06v-.96a.05.05 0 0 0-.01-.04.05.05 0 0 0-.04-.01h-.16a.08.08 0 0 1-.08-.08v-.2c0-.02.02-.04.04-.04h.4ZM8.03 12.55a.4.4 0 0 1-.2-.05.55.55 0 0 1-.17-.16.78.78 0 0 1-.12-.23.96.96 0 0 1-.04-.28c0-.2.05-.38.15-.51.1-.14.23-.22.37-.22a.4.4 0 0 1 .2.05c.07.04.13.1.18.16.04.07.08.14.11.23s.04.18.05.28c0 .2-.06.38-.15.51a.47.47 0 0 1-.38.22Z" fill="#F0F3FA"/><path d="M10.57 11.15v1.31l-.1.03a.77.77 0 0 0 0-.25c-.01-.03-.03-.05-.06-.05h-.46c-.02 0-.04 0-.04-.03v-.18a.03.03 0 0 1 .04-.03h.41c.04 0 .06-.02.06-.06v-.19c0-.04-.02-.06-.07-.06H10c-.06 0-.08-.03-.08-.08v-.04a.08.08 0 0 1 .08-.08h.4c.03 0 .05-.01.05-.04a.78.78 0 0 0 .01-.25c.05-.02.09-.02.12 0Z" fill="#152060"/><path d="M11.44 11.56v.89c0 .03-.02.05-.05.06a.38.38 0 0 1-.19 0l-.03-.03-.25-.53c-.06-.14-.1-.13-.1.02l.02.47c0 .02-.01.04-.04.06-.1.04-.18.03-.23-.04v-1.31a.32.32 0 0 1 .23 0 .1.1 0 0 1 .05.05l.28.55c.03.07.05.07.05-.02v-.52c0-.05.03-.08.08-.08h.1c.06 0 .08.03.08.08v.35Z" fill="#F0F3FA"/><path d="M7.78 11.82c0 .22.11.4.25.4s.25-.18.25-.4c0-.22-.11-.4-.25-.4s-.25.18-.25.4Z" fill="#193294"/><path d="m11.35 12.73-.15-.07v-.16c.07.02.13.03.2.01.02 0 .04-.03.04-.06v-.11l.03.04c.02.03.05.03.08 0l.48-.48c.05-.05.08-.04.11.02.01.03.02.06.01.09a.34.34 0 0 1-.08.18c-.24.23-.48.41-.72.54Z" fill="#3E6AD7"/><path d="M6.84 12.43a.3.3 0 0 0 .1.17.1.1 0 0 0 .07.02c.25-.02.58 0 1.02.07.32.05.75.07 1.3.07.82-.01 1.24.02 1.84-.28l.03.02v.16l-.88.39c-.7.2-1.4.25-2.12.13a.49.49 0 0 1-.32-.1 4.9 4.9 0 0 1-1.1-.46 1 1 0 0 1-.29-.2l-.25-.26.6.27Z" fill="#3441B4"/><path d="M6.49 12.42a1 1 0 0 0 .28.2 4.92 4.92 0 0 0 1.11.46.86.86 0 0 1-.27-.04c-.13-.04-.2-.02-.17.07-.4-.12-.7-.27-.88-.45-.16-.15-.18-.23-.07-.24Z" fill="#4074DF"/><path d="m11.2 12.66.15.07c-.28.18-.57.33-.87.43.05-.1 0-.13-.16-.11l.88-.4ZM7.88 13.08c.08.06.19.1.32.1-.13.01-.18.06-.16.13l-.12-.03-.48-.17c-.02-.09.04-.11.17-.07.1.03.19.04.27.04Z" fill="#9697E9"/><path d="M10.32 13.05c.15-.02.2.02.16.11l-.36.12c-.7.19-1.39.2-2.08.03-.02-.07.03-.12.16-.13.71.12 1.42.07 2.12-.13Z" fill="#F0DFFF"/><path d="M8.04 13.3c.7.18 1.39.17 2.08-.02l.13.1c-.84.24-1.72.23-2.55-.02a.58.58 0 0 0 .22-.08l.12.03Z" fill="#3E6AD7"/><path d="M10.5 14.2c-.94.35-1.9.4-2.86.17.17 0 .34.02.5.03a5.1 5.1 0 0 0 1.56-.03c.26-.07.53-.12.8-.16Z" fill="#152060"/></svg>