<!-- by TradingView --><svg width="18" height="18" viewBox="0 0 18 18" xmlns="http://www.w3.org/2000/svg"><path fill="#F0F3FA" d="M0 0h18v18H0z"/><path d="M9.46 6.43c0 .2-.14.36-.33.41.32 1.2.93 2.87 1.63 2.87.74 0 1.92-1.06 2.59-1.76a.43.43 0 0 1-.23-.38c0-.24.2-.43.44-.43s.44.2.44.43c0 .24-.2.43-.44.43l-.11-.01L11.79 12c-.73-.14-1.61-.14-2.64-.14-.94 0-2.4.1-2.94.14L4.6 8a.45.45 0 0 1-.17.03A.44.44 0 0 1 4 7.6c0-.23.2-.43.44-.43s.44.2.44.43c0 .14-.06.26-.17.34.6.75 1.63 1.77 2.53 1.77.9 0 1.44-1.67 1.67-2.87a.43.43 0 0 1-.33-.41c0-.24.2-.43.44-.43s.44.2.44.43Zm-2.29 1.3c.12-.03.21-.14.21-.27a.29.29 0 0 0-.3-.29c-.15 0-.29.13-.29.29 0 .13.1.24.23.28l-.37 1.55c.05.04.23.14.59.14.35 0 .53-.29.58-.43a5.93 5.93 0 0 1-.65-1.27Zm3.81 0a.29.29 0 0 0 .23-.27.29.29 0 0 0-.3-.29c-.16 0-.3.13-.3.29 0 .13.1.24.22.27-.17.5-.5 1.03-.65 1.27.05.14.23.43.58.43.36 0 .54-.1.6-.14l-.38-1.55Z" fill="#DDBB6A"/></svg>