<!-- by TradingView --><svg width="18" height="18" viewBox="0 0 18 18" xmlns="http://www.w3.org/2000/svg"><path fill="url(#ah1ybewrb)" d="M0 0h18v18H0z"/><path fill-rule="evenodd" d="m7.03 6.36 1.78 1.5c.15.12.36.12.5 0l1.72-1.5a.41.41 0 0 0 .01-.6L9.34 4.1a.39.39 0 0 0-.54 0L7.02 5.74a.41.41 0 0 0 .01.61Zm.94-.19.9.76a.2.2 0 0 0 .25 0l.87-.76a.2.2 0 0 0 0-.3l-.86-.84a.2.2 0 0 0-.27 0l-.9.83a.2.2 0 0 0 0 .31Zm-2.14.45L8.8 8.87c.14.1.34.1.48 0l2.78-2.25a.38.38 0 0 1 .51.02l1.32 1.27c.16.16.16.43 0 .6l-.86.81.84.83c.17.17.16.46-.02.6l-3.27 2.71c-.41.35-.94.54-1.48.54h-.16c-.54 0-1.06-.19-1.48-.53l-3.27-2.7a.41.41 0 0 1-.03-.62l.87-.83-.9-.83a.41.41 0 0 1 0-.58l1.2-1.25a.39.39 0 0 1 .51-.04Zm-.1.9 2.96 2.33c.14.1.33.11.47 0l3.17-2.33.73.77-3.9 2.8c-.15.1-.33.1-.47-.01l-3.67-2.8.7-.76Zm0 2.3 2.96 2.33c.14.1.33.11.47 0l3.17-2.33.7.77-3.88 2.8c-.14.1-.32.1-.46-.01l-3.56-2.8.6-.76Z" fill="#fff"/><defs><linearGradient id="ah1ybewrb" x1="-.62" y1="7.86" x2="6.28" y2="7.86" gradientUnits="userSpaceOnUse"><stop offset=".16" stop-color="#27CAD8"/><stop offset="1" stop-color="#4412BD"/></linearGradient></defs></svg>