<!-- by TradingView --><svg width="18" height="18" xmlns="http://www.w3.org/2000/svg"><path fill="url(#paint0_linear)" d="M0 0h18v18H0z"/><path d="M8 4.556V8H4.701C4.131 8 4 7.813 4 7.483c.009-.803 0-2.513 0-2.927 0-.39.282-.556.532-.556h2.87c.479 0 .598.356.598.556zM8 13.444V10H4.701c-.57 0-.701.188-.701.517.009.803 0 2.513 0 2.927 0 .39.282.556.532.556h2.87c.479 0 .598-.356.598-.556zM10 4.556V8H13.3c.57 0 .701-.187.701-.517-.008-.803 0-2.513 0-2.927 0-.39-.282-.556-.532-.556h-2.87c-.478 0-.598.356-.598.556zM10 13.444V10H13.3c.57 0 .701.188.701.517-.008.803 0 2.513 0 2.927 0 .39-.282.556-.532.556h-2.87c-.478 0-.598-.356-.598-.556z" fill="#fff"/><defs><linearGradient id="paint0_linear" x1="3.349" y1="3.122" x2="21.904" y2="24.434" gradientUnits="userSpaceOnUse"><stop stop-color="#1A1E21"/><stop offset="1" stop-color="#06060A"/></linearGradient></defs></svg>