<!-- by TradingView --><svg width="18" height="18" viewBox="0 0 18 18" xmlns="http://www.w3.org/2000/svg"><path fill="url(#a)" d="M0 0h18v18H0z"/><path d="M5.54 4c.4.28.67.43.84.47.53.13 1.06.11 1.6-.05h.07l.02.02v.05l-.23.14a.76.76 0 0 0-.14.14.26.26 0 0 1-.18.1l-1.91.16a.7.7 0 0 0 .21-.23c.01-.03 0-.06-.03-.07l-.23-.09a.11.11 0 0 1-.06-.05c-.1-.2-.1-.39.04-.59Z" fill="#DAB998"/><path d="M9.48 4.55c.04.1.06.23.07.36l.3.82c.16.44.43.87.81 1.3.09.1.16.13.23.11.2-.05.36-.13.58.05.25.19.55.4.91.64.11.07.24.14.38.2l.4.15c-.76-.2-1.52-.46-2.27-.79a2.26 2.26 0 0 1-.4-.21c-.22-.16-.44-.35-.72-.5h-.02c-.02.02-.01.03.01.04.23.12.44.29.6.5.02.02.02.02 0 .02l-.8-.2a.79.79 0 0 0-.7.14 4.06 4.06 0 0 1-1.78-.74.09.09 0 0 1-.04-.07c0-.1 0-.2.04-.28.01-.03.04-.05.07-.04.67.05 1.05.08 1.13.1.13.01.3 0 .5-.02.32-.04.63.05.95.26.12.09.15.06.1-.09a5.6 5.6 0 0 0-.5-.98h-.02v.02a.98.98 0 0 1-.57.46c-.18-.17-.49-.39-.56-.62a1.08 1.08 0 0 1 0-.55V4.6l-.02-.02-.02-.01h-.02l-.34.19c.08-.12.2-.2.38-.25.46-.38.9-.37 1.32.04Z" fill="#B88D69"/><path d="M8.16 4.51a.65.65 0 0 0-.38.25l-.21.2c-.39.16-.73.28-1.01.37a.36.36 0 0 0-.27.28c0 .03 0 .06.02.08l.2.27c.03.03.04.06.03.08-.01.03-.03.04-.06.03l-.3-.14c-.12-.02-.23.03-.33.14l-.95-.1a.23.23 0 0 1-.04-.19c.23-.37.48-.62.75-.75l1.91-.16c.07 0 .13-.04.18-.1a.76.76 0 0 1 .14-.14 3.5 3.5 0 0 0 .24-.15.04.04 0 0 0-.01-.04l-.02-.01h-.07l.1-.02c.02 0 .04 0 .05.03l.03.07Z" fill="#B1977B"/><path d="M8.73 4.61a2.66 2.66 0 0 1 .32.94l-.02.04a.1.1 0 0 1-.03.03.1.1 0 0 1-.04.01c-.06.01-.1-.01-.12-.07a.17.17 0 0 0-.04-.07l-.38-.4c-.1-.11-.11-.23-.04-.37.04-.06.06-.1.08-.11.11-.12.2-.11.27 0Z" fill="#BEA68E"/><path d="m8.74 5.8.1.1c.01.02 0 .04-.02.04a.73.73 0 0 1-.27.02c-.27-.06-.54-.1-.82-.13a.1.1 0 0 1-.07-.04.83.83 0 0 1-.1-.83l.22-.2.34-.19a.04.04 0 0 1 .04 0l.02.03v.03c-.05.19-.05.38 0 .55.07.23.38.45.56.62Z" fill="#8B5436"/><path d="M13.16 7.34c.12.13.2.27.24.4a.95.95 0 0 1-.96-.18c-.23-.2-.4-.57-.6-.77a24.05 24.05 0 0 0-.92-.85h-.06a.12.12 0 0 0-.05.03.14.14 0 0 0-.03.05l-.08.23c0 .02-.01.04-.03.05a.16.16 0 0 1-.05.04.15.15 0 0 1-.12.01.56.56 0 0 1-.26-.22c-.12-.17-.25-.3-.4-.4l-.3-.82a.33.33 0 0 1 .1-.1c.02-.02.06-.01.11.03.24.18.49.33.74.46.5.25.96.54 1.4.86.41.3.84.79 1.27 1.18Z" fill="#DAB998"/><path d="M7.57 4.96c-.12.3-.09.57.1.83a.1.1 0 0 0 .06.04c.28.03.55.07.82.13.05.01.14 0 .27-.02.03 0 .03-.02.01-.04l-.09-.1a.98.98 0 0 0 .58-.48.03.03 0 0 1 .04.02c.18.3.34.62.47.96.05.15.02.18-.1.1-.32-.22-.63-.31-.95-.27-.2.03-.37.03-.5.01l-1.13-.1c-.03 0-.06.02-.07.05a.52.52 0 0 0-.03.28c0 .03.01.05.03.07.54.4 1.13.64 1.77.74l.32.39.01.03v.03l-.02.03h-.49a.15.15 0 0 1-.13-.07c-.06-.1-.12-.17-.18-.24-.05-.05-.12-.06-.2-.04h-.04c0-.1-.09-.17-.25-.2-.57-.05-1.09-.06-1.62-.38.2-.05.29-.16.27-.35l-.02-.04a.05.05 0 0 0-.04 0h-.05c-.03 0-.05-.02-.06-.05l-.18-.36.31.14c.03.01.05 0 .06-.03.01-.02 0-.05-.02-.08a7.57 7.57 0 0 1-.21-.27.1.1 0 0 1-.02-.08.36.36 0 0 1 .27-.28c.28-.09.62-.21 1-.37Z" fill="#A16C48"/><path d="M9.85 5.73c.14.1.27.23.39.4.07.1.16.18.26.22a.15.15 0 0 0 .12 0 .17.17 0 0 0 .08-.1l.08-.23c0-.02.01-.04.03-.05a.13.13 0 0 1 .05-.03.12.12 0 0 1 .12.02c.26.24.55.52.85.83.2.2.38.56.6.77.27.24.6.3.97.19-.03.12-.1.27-.24.43a9.3 9.3 0 0 1-.4-.15 2.21 2.21 0 0 1-.38-.2c-.36-.24-.66-.45-.9-.64-.23-.18-.39-.1-.59-.05-.07.02-.14-.02-.23-.11a4.18 4.18 0 0 1-.81-1.3Z" fill="#BEA68E"/><path d="M4.86 5.78c-.01.08 0 .14.04.2-.35.62-.63 1.27-.84 1.92.02.25.1.47.23.67.12.15.27.27.43.36a.06.06 0 0 0 .06 0l.03-.03v-.03c.01-.24.13-.42.37-.53l.38-.23-.03.19-.24.4c-.07.11-.04.13.06.07.58-.33 1.17-.28 1.8-.13.03 0 .04.02.05.05v.04l-.06-.03a4.93 4.93 0 0 0-1.58 0c-.03 0-.05.02-.06.05a.43.43 0 0 0 .02.25c-.01 0-.02 0-.03.02h-.45a.09.09 0 0 1-.03-.04c-.05-.08-.11-.1-.19-.03a.14.14 0 0 1-.1.03h-.18c-.03 0-.05.02-.06.05-.25-.16-.4-.21-.48-1.24.08-.17.16-.37.23-.6l.23-.62c.1-.12.17-.26.2-.42l.2-.37Z" fill="#9C8272"/><path d="m6.17 5.93.18.36c.01.03.03.04.06.04h.05l.04.01.02.04c.02.19-.07.3-.27.35l-.34.1c-.02 0-.04 0-.05-.03l-.07-.14c-.1-.25-.08-.45.06-.6.1-.1.21-.15.32-.13Z" fill="#1D0F03"/><path d="M5.85 6.07c-.13.14-.15.34-.06.59 0 .3.05.59.15.86.01.02.03.04.06.03h.15l.06.01c.03.02.04.04.01.07l-.04.05a.66.66 0 0 0-.07.26 1.19 1.19 0 0 1-.39-.27 1.59 1.59 0 0 0-.32-.29c-.43-.2-.9.08-1.15.45-.05.07-.11.1-.19.07.21-.65.5-1.3.84-1.93l.95.1Z" fill="#8B5436"/><path d="M4.66 6.15c-.03.16-.1.3-.2.42-.07 0-.1-.05-.08-.15a.74.74 0 0 1 .11-.25c.06-.08.12-.09.17-.02Z" fill="#3C2617"/><path d="M8.02 6.75c-.14-.06-.2-.17-.17-.32a.72.72 0 0 1 .06-.2c.09-.12.16-.14.23-.04a2.33 2.33 0 0 1 .34.71v.03l-.02.01h-.02l-.42-.19Z" fill="#B1977B"/><path d="M6.25 6.73c.53.32 1.05.33 1.62.39.16.02.24.08.25.2h-.03c-.13.01-.26.04-.39.07a.55.55 0 0 0-.3.17 4.3 4.3 0 0 1-.35.37.22.22 0 0 1-.16.06l-.53-.02a.4.4 0 0 0-.25-.03c0-.1.03-.18.07-.26.34.2.6-.03.83-.33.01-.02 0-.04-.02-.05-.35-.1-.68-.08-.98.03-.04.02-.04.03-.01.06l.15.15-.15.01c-.03 0-.05 0-.06-.03-.1-.27-.15-.56-.15-.86l.07.14c0 .03.03.04.05.03l.34-.1Z" fill="#774123"/><path d="M13.15 8.18c.14-.16.22-.3.25-.43a.98.98 0 0 0-.24-.4c.15.13.46.56.34.66-.1 0-.15.08-.19.2-.44-.02-.9-.11-1.35-.26a2.48 2.48 0 0 1-.48-.22 4.8 4.8 0 0 0-.5-.25l-.02.02v.04l.18.5v.07l-.04.02h-.03a.35.35 0 0 0-.25.02.1.1 0 0 0-.03.03l-.03.03c-.02.1-.05.2-.06.32-.02.13-.12.25-.28.37l.2-.53a.07.07 0 0 0 0-.08.94.94 0 0 0-.56-.37A1.47 1.47 0 0 0 9.1 8a.47.47 0 0 1-.24.03c-.03 0-.05 0-.07.03l-.12.16a.24.24 0 0 1-.09.03c-.03 0-.05-.02-.05-.05a.52.52 0 0 0-.3-.34c-.02-.02-.03-.04-.02-.08l.1-.33a.09.09 0 0 0-.01-.08.18.18 0 0 0-.14-.07c.08-.02.15-.01.2.04l.18.24c.03.05.08.08.13.08h.46l.03-.01.02-.03a.06.06 0 0 0-.01-.06l-.32-.39c.2-.16.44-.2.7-.15l.8.2c.03.01.03 0 .02-.02a1.85 1.85 0 0 0-.61-.49c-.02 0-.03-.02-.01-.03l.02-.01c.28.15.5.34.72.5l.4.21c.76.33 1.5.59 2.26.79Z" fill="#A1856F"/><path d="m6.18 7.68.04-.05c.03-.03.02-.05 0-.07a.16.16 0 0 0-.07-.02L6 7.4c-.03-.03-.03-.04 0-.06.3-.11.64-.12.99-.03.03 0 .03.03.02.05-.22.3-.49.53-.83.33Z" fill="#562A13"/><path d="M6.1 7.94a.4.4 0 0 1 .26.03.68.68 0 0 1-.3.12.11.11 0 0 0-.06.04l-.15.17a.06.06 0 0 1-.04.02c-.02 0-.04 0-.05-.02v-.03c-.04-.1-.1-.16-.2-.16l-.37.23.14-.32a.1.1 0 0 0-.02-.12.1.1 0 0 0-.04-.02L5.1 7.8h-.04l-.65.14c-.03.01-.05.03-.05.06l-.07.56c-.13-.2-.21-.42-.23-.67.08.03.14 0 .2-.07.25-.37.71-.64 1.14-.45.06.03.16.13.32.3.12.1.24.2.39.26Z" fill="#A1856F"/><path d="m8.09 7.32-.52.14a.1.1 0 0 0-.04.02.1.1 0 0 0-.02.03.87.87 0 0 0-.06.3c0 .04.01.06.04.07.4.18.68.3.87.4.37.17.61.47.73.89 0 .02.02.04.04.05h.06l1.23-.32c.16-.12.26-.24.28-.37a1.94 1.94 0 0 1 .09-.35.1.1 0 0 1 .03-.03.35.35 0 0 1 .25-.02h.03c.01 0 .02 0 .03-.02l.02-.03v-.04l-.2-.5a.05.05 0 0 1 .01-.04l.03-.02H11l.47.25c.15.1.31.16.48.22.46.15.9.24 1.35.27.03.07.03.14 0 .23-.06.16-.24.23-.38.2l-.54-.13a1.66 1.66 0 0 0-.52 0 .9.9 0 0 1-.38-.01c-.1-.04-.22-.1-.35-.2a.12.12 0 0 0-.11-.02.13.13 0 0 0-.05.03.14.14 0 0 0-.03.06.9.9 0 0 1-.62.63 3.8 3.8 0 0 1-.84.16h-.04c-.1.07-.2.1-.3.13-.04 0-.06 0-.08-.02l-1.1-.8-.15-.12a1.66 1.66 0 0 0-.44-.1c-.15 0-.16.03-.03.12a3.55 3.55 0 0 1 .6.54v.04l-.02.02H7.9l-.23-.01-.1-.07c.07 0 .15 0 .22.02.03.01.05 0 .07-.02.01-.03 0-.06-.03-.08l-.68-.5a.73.73 0 0 0-.4-.16.13.13 0 0 1-.08-.03.79.79 0 0 0-.31-.16l.53.02c.06 0 .11-.01.16-.06.12-.1.23-.23.35-.37a.55.55 0 0 1 .3-.17c.13-.03.26-.06.39-.07Z" fill="#A16C48"/><path d="M8.11 7.31h.05c.06 0 .1.03.14.07.02.02.02.05.01.08l-.1.33c-.01.04 0 .06.03.08.15.07.24.18.29.34 0 .03.02.05.05.05l.09-.03c.44.53 1.03.75 1.75.67l-1.23.33-.06-.01a.1.1 0 0 1-.04-.05 1.3 1.3 0 0 0-.73-.9l-.87-.39c-.03 0-.04-.03-.04-.06 0-.13.02-.23.06-.3a.1.1 0 0 1 .02-.04.1.1 0 0 1 .04-.02l.52-.14h.02Z" fill="#B1977B"/><path d="M5.18 8.34c-.23.11-.36.29-.37.53v.03l-.03.03a.06.06 0 0 1-.05 0c-.17-.1-.32-.21-.44-.36L4.36 8c0-.03.02-.05.05-.06l.65-.14h.04l.17.07a.1.1 0 0 1 .03.02l.03.03a.1.1 0 0 1 0 .09l-.15.32Z" fill="#8B5436"/><path d="M10.42 8.9c-.72.08-1.3-.14-1.75-.67l.12-.16a.07.07 0 0 1 .07-.03c.1 0 .17 0 .24-.03.3-.14.62-.17.96-.1.22.05.4.18.55.38.02.03.02.05.01.08l-.2.53Z" fill="#C0ABA7"/><path d="M5.75 8.27a.4.4 0 0 1-.22.03l.03-.19c.1 0 .16.05.19.16Z" fill="#B1977B"/><path d="m7.57 8.9-.36-.17-.01-.04c0-.03-.02-.04-.05-.05-.63-.15-1.22-.2-1.8.13-.1.06-.13.04-.06-.07l.24-.4a.4.4 0 0 0 .22-.03v.03l.06.02.04-.02.15-.17a.11.11 0 0 1 .06-.04c.11-.01.2-.05.3-.12.11.03.22.09.3.16l.09.03c.14.01.28.07.4.16l.68.5c.04.02.05.05.03.08-.02.02-.04.03-.07.02a.58.58 0 0 0-.22-.02Z" fill="#8F817B"/><path d="M13.9 9c-.1-.02-.21-.02-.31-.02l-.36.01c-.25 0-.4-.1-.68-.22-.11-.04-.25-.03-.41.03a1 1 0 0 0-.3.26c-.15.18-.27.28-.35.32a4 4 0 0 0-.95.58c-.14.12-.24.18-.32.2-.38.04-.57-.27-.53-.63.02-.1 0-.17-.03-.22a.37.37 0 0 0-.18-.14c.3-.02.58-.08.85-.16a.9.9 0 0 0 .62-.63l.03-.06a.13.13 0 0 1 .05-.03.12.12 0 0 1 .1.02c.14.1.25.16.36.2.08.03.2.03.38.01.2-.02.34-.03.52 0l.54.12c.14.04.32-.03.38-.19a.29.29 0 0 0 0-.23c.04-.13.1-.2.19-.21.02 0 .05 0 .07.03.07.07.13.19.17.33.09.31.14.52.15.62Z" fill="#8B5436"/><path d="m7.82 8.36-.13.02c-.04 0-.05.02-.01.04l.18.14c.02.01.03.03.03.06v.08l.01.03c0 .02.02.02.03.03.13.07.19.2.17.4 0 .03-.02.04-.04.02-.14-.1-.2-.11-.2-.06-.02.05-.09 0-.2-.15l.24.01h.03l.01-.02a.06.06 0 0 0 0-.06c-.2-.22-.4-.4-.6-.52-.12-.09-.1-.13.04-.12.13.01.28.04.44.1Z" fill="#655144"/><path d="m7.82 8.36.16.12c.13.18.22.36.27.56v.32a1.7 1.7 0 0 0 .34.98v.04h-.02l-.55.18-.1-.09a.2.2 0 0 1-.04-.05c-.01-.04 0-.07.04-.1.03-.16.07-.3.13-.45a.2.2 0 0 0 .01-.12.34.34 0 0 0-.06-.1c-.02-.03-.03-.03-.05-.01l-.08.13a.1.1 0 0 0-.01.04v.04c0 .03.02.05.04.07.02.02.03.05.02.08a.36.36 0 0 1-.07.15l-.18-.12.17-.4c.03-.04.03-.1.01-.16v-.35c0-.05.07-.03.2.06.03.02.04.01.05-.02.02-.2-.04-.33-.17-.4a.07.07 0 0 1-.03-.03.07.07 0 0 1-.01-.03v-.08a.07.07 0 0 0-.03-.06l-.18-.14c-.04-.02-.03-.04.01-.04l.13-.02Z" fill="#1D0F03"/><path d="m9.45 9.18-.21.2-.36.31a.12.12 0 0 1-.08.03c-.02 0-.04 0-.05-.02a.12.12 0 0 1-.03-.03l-.47-.63c-.05-.2-.14-.38-.27-.56l1.09.8c.02.02.05.03.07.02.1-.02.2-.06.3-.12ZM7.14 8.7c-.23-.02-.45.02-.65.1a.15.15 0 0 1-.08.01.66.66 0 0 0-.44.1c.25.33.45.66.57.98.04.09.02.1-.05.06l-.06-.08c-.2-.44-.36-.73-.48-.88-.03-.04-.06-.06-.08-.05-.04 0-.06.02-.05.06a2.18 2.18 0 0 1 .01.06H5.8l-.02-.01c-.09-.12-.18-.13-.26-.05a.43.43 0 0 1-.02-.25c.01-.03.03-.05.06-.05a4.93 4.93 0 0 1 1.58 0Z" fill="#655144"/><path d="m13.9 9 .05.28c-.26.04-.52.03-.77-.02-.31-.05-.64-.28-.94-.38-.03-.01-.05 0-.06.03-.23.48-.6 1.03-1.1 1.18-.38.12-.7.24-.93.35-.1.04-.21.07-.37.08-.03 0-.05 0-.06-.04l-.48-1.1.2-.2h.05c.07.02.13.07.17.13.04.05.05.13.03.22-.04.36.15.67.53.62.08 0 .18-.07.32-.19a4 4 0 0 1 .95-.58c.08-.04.2-.14.35-.32a1 1 0 0 1 .3-.26c.16-.06.3-.07.4-.03.3.13.44.22.7.22H13.88Z" fill="#774123"/><path d="m7.14 8.7.07.03.35.17.1.07c.11.15.17.2.2.15v.35a.39.39 0 0 0-.16 0 .1.1 0 0 1-.07-.02.08.08 0 0 1-.03-.07c0-.04.02-.07.06-.07l.02-.02c.03-.03.03-.07 0-.1l-.07-.1-.38-.2a.09.09 0 0 0-.08 0l-.37.15c-.01.01-.02.02 0 .04a3.8 3.8 0 0 0 .81.87h.01v-.32c0-.03.03-.05.06-.04l.18.04-.17.4c-.35.02-.68-.02-.9-.26-.08-.1-.24-.3-.48-.64a1.1 1.1 0 0 0-.32-.23.66.66 0 0 1 .43-.09h.09c.2-.1.42-.13.65-.1Z" fill="#562A13"/><path d="m7.68 10.03.17.12-.05.07c-.02.03-.02.06.01.07.03.02.07.03.11.03-.04.03-.05.06-.04.1a.7.7 0 0 0-.54.07c-.04.01-.04.03 0 .04l.03.01.02.02a.05.05 0 0 1 0 .05l-.02.02a.28.28 0 0 1-.1.01l-.04.02a.1.1 0 0 0-.03.04.1.1 0 0 0 .02.1c.05.07.15.12.29.15a.87.87 0 0 1-.43.06h-.03l-.02.03a.06.06 0 0 0 0 .05c.06.08.15.16.29.24.05.13-.1.2-.42.2a.51.51 0 0 0-.2.08l-.65-.03c-.33-.11-.6-.32-.85-.63-.09-.63-.13-1.04-.14-1.23a5.3 5.3 0 0 1 .12-.6l.04.01.02.06v.54c0 .01 0 .03.02.05l.04.03.04.01c.03.01.05 0 .05-.04v-.24c0-.01 0-.02.02-.02l.03.01v.01l.14.89c0 .03.02.04.04.03h.05c.02 0 .03-.02.02-.04l-.2-1.4.03-.02c.08-.08.17-.07.26.05l.02.01h.03V9c-.02-.04 0-.06.04-.06.02 0 .05.01.08.05a5.76 5.76 0 0 1 .54.96c.07.05.09.03.05-.06a4.52 4.52 0 0 0-.57-.99c.18.1.28.17.32.23.24.33.4.55.49.64.21.24.54.28.9.26Z" fill="#40110B"/><path d="M7.6 9.1a.3.3 0 0 0-.2 0v.01a.02.02 0 0 0 0 .02l.02.03c.02.02.03.02.05.02.07 0 .13.01.16.06.02.03.04.02.05 0v-.06c.03.04.03.08 0 .11l-.02.02c-.04 0-.06.03-.06.07a.08.08 0 0 0 .03.07l.03.01a.1.1 0 0 0 .04 0h.15c.02.08.02.13-.01.17l-.18-.04c-.03 0-.05 0-.05.05v.3l-.02.01a.03.03 0 0 1-.03 0 3.8 3.8 0 0 1-.79-.87l.01-.04.37-.16a.09.09 0 0 1 .08 0l.38.21Z" fill="#774123"/><path d="M13.95 9.28c.06.5.07 1 .02 1.48l-.02-.31c0-.03-.02-.05-.05-.04a.89.89 0 0 1-.4-.04l-1.14-.32c-.02-.01-.04 0-.05.02-.18.43-.26.86-.63 1.21.23-.3.35-.64.34-1.02 0-.03-.02-.05-.04-.07a.1.1 0 0 0-.06 0 .07.07 0 0 0-.06.04c-.11.3-.22.52-.32.66-.15.2-.4.46-.74.8h-.05l-.1-.07-.03-.01c-.57-.11-.91-.2-1.04-.24-.2-.07-.45-.23-.76-.48-.14-.1-.38-.2-.74-.28a3.12 3.12 0 0 1 1.21.3l.03-.01.02-.03v-.04a1.67 1.67 0 0 0-.39-.63l-.52-.53a1.4 1.4 0 0 1-.17-.31v-.32l.46.63.03.03a.11.11 0 0 0 .13-.01l.36-.31.48 1.1c0 .03.03.04.06.04.16-.01.28-.04.37-.08.23-.11.55-.23.94-.35.49-.15.86-.7 1.09-1.18.01-.03.03-.04.06-.03.3.1.63.33.94.38.25.05.5.06.77.02ZM5.5 9.02l.2 1.4c0 .02-.01.03-.03.04h-.05c-.02 0-.04 0-.04-.03l-.13-.89-.04-.02c-.02 0-.02 0-.02.02v.24c0 .04-.02.05-.05.04l-.04-.01a.08.08 0 0 1-.04-.03.1.1 0 0 1-.02-.05v-.54c0-.03 0-.04-.02-.06a.05.05 0 0 0-.04-.01 5.3 5.3 0 0 0-.11.6c0 .19.05.6.13 1.23-.28-.3-.5-.64-.67-1.03a1.5 1.5 0 0 1-.05-.89c0-.03.03-.05.06-.05h.19c.03 0 .07 0 .1-.03.07-.06.13-.05.18.03l.03.03.05.01h.4Z" fill="#562A13"/><path d="m7.6 9.1.08.08v.05c-.01.03-.03.04-.04.01-.04-.05-.1-.07-.17-.06-.02 0-.03 0-.05-.02l-.02-.03a.02.02 0 0 1 0-.02V9.1a.3.3 0 0 1 .2 0Z" fill="#B1977B"/><path d="M7.49 9.25c.03.03.04.07.04.1v.01h-.04c-.04-.04-.05-.07-.03-.1v-.01h.01a.02.02 0 0 1 .02 0Z" fill="#897672"/><path d="m8.08 10.6-.06-.04.55-.18a.03.03 0 0 0 .02-.02.04.04 0 0 0 0-.03 1.7 1.7 0 0 1-.33-.97c.06.15.12.25.17.3l.52.54c.18.19.3.4.39.63a.07.07 0 0 1-.02.07l-.03.02h-.03a3.12 3.12 0 0 0-1.18-.31Z" fill="#40110B"/><path d="M7.92 10.32c-.04 0-.08 0-.11-.03-.03-.01-.03-.04-.01-.06l.05-.08c.04-.05.06-.1.07-.15.01-.03 0-.06-.02-.08a.15.15 0 0 1-.04-.07v-.04l.01-.04.08-.13c.02-.02.03-.02.05 0l.06.11a.2.2 0 0 1-.01.12c-.06.15-.1.3-.13.45Z" fill="#774123"/><path d="m13.97 10.76-.04.21c-.17-.17-.3-.27-.4-.29a3.45 3.45 0 0 1-1.18-.53h-.02l-.02.02-.02.02c-.08.27-.1.58-.07.92.02.3.03.5.01.57-.09.44-.4.58-.82.64a12.17 12.17 0 0 0-.53.1l-.02.03a.07.07 0 0 0 .01.07l.52.56.02.05-.01.06c-.27.37-.6.5-1.1.57-.04-.36-.2-.51-.49-.46-.22.05-.37.24-.6.23h-.3a.14.14 0 0 0-.07.04l-.17.14c-.37.1-.77.1-1.2-.01-.02 0-.03-.02-.02-.04l.07-.22.02-.04h.04a3.08 3.08 0 0 0 2-.55c.57-.22 1.02-.5 1.34-.82l.76-.75c.37-.35.45-.78.63-1.2 0-.03.03-.04.05-.03l1.15.32c.13.05.26.06.4.04.02 0 .03 0 .04.04l.02.31Z" fill="#3C2617"/><path d="M13.92 10.97c-.07.4-.15.71-.26.95-.25.58-.5 1.1-.77 1.58-.1.18-.3.32-.53.35a9.7 9.7 0 0 1-1.23.08c-.44 0-.83.03-1.24.07l-.34-.02c-.03 0-.05-.02-.05-.05 0-.03 0-.06.02-.08a.13.13 0 0 1 .08-.03c.02 0 .05 0 .06.03.06.08.13.1.2.07l.45-.16c.49-.06.82-.2 1.09-.57a.08.08 0 0 0 0-.1l-.53-.57-.01-.03v-.04s0-.02.02-.03l.03-.01.5-.09c.41-.06.73-.2.82-.64.02-.08.01-.27-.02-.57a2.4 2.4 0 0 1 .1-.94l.02-.01a.05.05 0 0 1 .05 0c.34.24.73.42 1.15.52.1.02.23.12.4.3Z" fill="#1D0F03"/><path d="m11.68 11.28-.76.75c-.33.32-.77.6-1.35.82l-.4.23c-.29.05-.5.07-.65.04-.46-.09-.81-.59-.98-1.02a.04.04 0 0 1 0-.04l.02-.01h.02l.54.2c.11.05.13.02.07-.09-.1-.17-.24-.34-.42-.5a.08.08 0 0 0-.07-.02c-.13.02-.26.06-.39.1-.18.08-.21.02-.11-.15.04-.08.14-.13.29-.16l-.17.14c-.02.02-.02.03.01.03l.54-.02c.1 0 .3.06.57.2l.3.07c.07.02.13 0 .17-.03.06-.06.1-.11.1-.18L9 11.56a2.9 2.9 0 0 0-.96-.92.05.05 0 0 1-.02-.05v-.03l.06.05c.36.08.6.18.74.28.31.25.57.4.76.48a9 9 0 0 0 1.07.25l.1.07h.05c.35-.34.6-.6.74-.8.1-.14.2-.36.32-.66a.07.07 0 0 1 .06-.04.1.1 0 0 1 .06 0c.02.02.04.04.04.07 0 .38-.1.73-.34 1.02Z" fill="#655144"/><path d="M7.88 10.42a.2.2 0 0 0 .04.05l.2.6a.06.06 0 0 1 0 .05l-.03.01c-.22.06-.44.07-.66.06-.1-.01-.1-.04-.01-.09a.34.34 0 0 1 .13-.02c.01 0 .02 0 .03-.02l.02-.02a.06.06 0 0 0-.01-.06c-.07-.08-.1-.08-.08-.03-.14-.03-.24-.08-.3-.15a.1.1 0 0 1-.01-.1.1.1 0 0 1 .03-.04.08.08 0 0 1 .05-.02l.09-.01.02-.02a.05.05 0 0 0 0-.05l-.02-.02h-.03c-.04-.02-.04-.04 0-.05a.7.7 0 0 1 .54-.07Z" fill="#B1977B"/><path d="M8.02 10.56v.03c0 .02 0 .04.02.05.45.31.67.47.96.92l.02.08c-.01.07-.05.12-.11.18-.04.04-.1.05-.17.03a2.87 2.87 0 0 1-.3-.07c-.27-.14-.46-.2-.57-.2l-.54.02c-.03 0-.03-.01 0-.03l.16-.14c-.02-.07-.07-.1-.17-.1a.85.85 0 0 1-.28-.24.06.06 0 0 1 .01-.07l.03-.01c.17.01.31 0 .43-.06-.01-.05.01-.05.08.03l.01.03v.03l-.02.02-.03.02c-.06 0-.1 0-.13.02-.1.05-.09.08.02.09a2.17 2.17 0 0 0 .67-.07.05.05 0 0 0 .02-.04v-.02l-.2-.59.1.09Z" fill="#7A6F70"/><path d="M7.49 11.43c-.15.03-.25.08-.3.16-.1.17-.06.23.12.16.13-.05.26-.09.4-.11.02 0 .04 0 .06.02.18.16.32.33.42.5.06.1.04.14-.07.1l-.54-.2-.02-.01-.02.01v.04c.17.43.52.93.98 1.02.15.03.36.01.65-.04a3.08 3.08 0 0 1-1.63.32.06.06 0 0 0-.02.04l-.07.22c0 .02 0 .03.02.04.43.1.83.11 1.2.01.23.17.52.22.86.14a.1.1 0 0 0-.03.08c0 .03.02.05.05.05l.34.02h-.95a15.3 15.3 0 0 0-2-.2l-.03-.03a.07.07 0 0 1 0-.07c.1-.16.2-.29.28-.37.38-.38.24-.6.06-1.03-.12-.28-.3-.51-.55-.7.1-.04.16-.07.2-.07.33 0 .47-.07.42-.2.1 0 .15.03.17.1Z" fill="#562A13"/><path d="M6.7 11.6c.24.19.43.42.55.7.18.43.32.65-.06 1.03a2.1 2.1 0 0 0-.28.4.07.07 0 0 0 .03.06l.03.01c.65.02 1.31.09 1.97.2-.75.02-1.5-.02-2.25-.13a.56.56 0 0 1-.34-.17.09.09 0 0 1-.02-.06.1.1 0 0 1 .02-.06c.16-.17.37-.3.63-.4l.03-.03a.1.1 0 0 0 0-.12c-.12-.13-.2-.26-.25-.4a1.31 1.31 0 0 0-.22-.36 6.74 6.74 0 0 1-.5-.7l.66.04Z" fill="#655144"/><path d="M10.3 13.76c-.13.07-.28.1-.43.16-.08.04-.15.01-.2-.07a.07.07 0 0 0-.07-.03.13.13 0 0 0-.07.03c-.34.08-.63.03-.86-.14l.17-.14a.14.14 0 0 1 .08-.04h.29c.23.01.38-.18.6-.23.29-.05.45.1.5.46Z" fill="#666067"/><defs><linearGradient id="a" x1="0" y1="1.96" x2="9" y2="13.15" gradientUnits="userSpaceOnUse"><stop stop-color="#5C5962"/><stop offset="1" stop-color="#A38168"/></linearGradient></defs></svg>