<!-- by TradingView --><svg width="18" height="18" viewBox="0 0 18 18" xmlns="http://www.w3.org/2000/svg"><path fill="#F0F3FA" d="M0 0h18v18H0z"/><path fill-rule="evenodd" d="M4.67 7.5c0-.28.07-.5.16-.5h8.34c.09 0 .16.22.16.5s-.07.5-.16.5H13v3.5h.5a.5.5 0 1 1 0 1h-9a.5.5 0 0 1 0-1H5V8h-.17c-.09 0-.16-.22-.16-.5Zm7.33 4V8h-1v3.5h1ZM8 8h2v3.5H8V8Zm-1 3.5V8H6v3.5h1Zm-3 2c0-.28.22-.5.5-.5h9a.5.5 0 0 1 0 1h-9a.5.5 0 0 1-.5-.5Z"/><path d="M13.73 6H4.27c-.27 0-.37-.36-.14-.5l3.85-2.23a2.04 2.04 0 0 1 2.04 0l3.85 2.24c.23.13.13.49-.14.49Z"/></svg>