<!-- by TradingView --><svg width="18" height="18" viewBox="0 0 18 18" xmlns="http://www.w3.org/2000/svg"><path fill="url(#a)" d="M0 0h18v18H0z"/><path d="M9.5 7h1v1h1v.71h-1v1.72h1V11h-1.43v-.29H9.8v-.28H9.5V7ZM3 7h1v1h1v.71H4v1.72h1V11H3.57v-.29H3.3v-.28H3V7Zm5.01.53V8H9v3h-.66v-.8h-.33v.33H6.69V10H8V8H6.69v2H5.7V8h.66v-.2h.33v-.27h1.32ZM13 8.6h2V8h-2.1v.3h-.3v.3H12v1.8h.6v.3h.3v.3H15v-.6h-2v-.6h2v-.6h-2v-.6Z" fill="#fff"/><defs><linearGradient id="a" x1="3.35" y1="3.12" x2="21.9" y2="24.43" gradientUnits="userSpaceOnUse"><stop stop-color="#1A1E21"/><stop offset="1" stop-color="#06060A"/></linearGradient></defs></svg>