<!-- by TradingView --><svg width="18" height="18" viewBox="0 0 18 18" xmlns="http://www.w3.org/2000/svg"><path fill="#4B399C" d="M0 0h18v18H0z"/><path d="m11.46 8.04 1.48.96-1.48.97c.1-.3.24-.63.24-.97 0-.33-.14-.66-.24-.96Zm-4.92 0c-.1.3-.24.63-.24.96 0 .34.13.67.24.97L5.06 9l1.48-.96ZM9 6.84c1.15 0 2.1.97 2.1 2.16 0 1.2-.95 2.16-2.1 2.16-1.15 0-2.1-.96-2.1-2.16 0-1.2.95-2.16 2.1-2.16ZM9 5.8 4.05 9 9 12.24 13.95 9 9 5.8ZM14.5 9.67a.94.94 0 0 0-.51.16L9.6 12.84l.04.03c.13.08.29.13.47.13.16 0 .33-.05.5-.16l.87-.6L15 9.84l-.05-.03a.87.87 0 0 0-.46-.13M7.89 5a.94.94 0 0 0-.5.16l-.87.6L3 8.16c.23.17.61.26 1.01 0l4.39-3-.04-.04A.82.82 0 0 0 7.89 5" fill="#F0F3FA"/></svg>