<!-- by TradingView --><svg width="18" height="18" viewBox="0 0 18 18" xmlns="http://www.w3.org/2000/svg"><path fill="#003566" d="M0 0h18v18H0z"/><path d="M12.85 3 6 5.98l1.8 1.59 3.75-1.6a2.29 2.29 0 0 0 1.36-2.76L12.85 3Z" fill="url(#a)"/><path d="M11.84 7 6 9.5l.44 2.07 4.01-1.78c1.17-.4 1.8-1.53 1.45-2.59l-.06-.2Z" fill="url(#b)"/><path d="M6 6h.73C7.43 6 8 6.6 8 7.34V15h-.73C6.57 15 6 14.4 6 13.66V6Z" fill="#0FA8FF"/><defs><linearGradient id="a" x1="10.03" y1="2.64" x2="7.1" y2="6.13" gradientUnits="userSpaceOnUse"><stop offset=".85" stop-color="#0FA8FF"/><stop offset="1" stop-color="#1D89C6"/></linearGradient><linearGradient id="b" x1="12" y1="9.09" x2="8.28" y2="9.09" gradientUnits="userSpaceOnUse"><stop offset=".85" stop-color="#0FA8FF"/><stop offset="1" stop-color="#1D89C6"/></linearGradient></defs></svg>