<!-- by TradingView --><svg width="18" height="18" viewBox="0 0 18 18" xmlns="http://www.w3.org/2000/svg"><path fill="#F0F3FA" d="M0 0h18v18H0z"/><path d="m9.67 4.05-.01.06a6.9 6.9 0 0 0-2.4.2c-.1.02-.23.07-.39.14-.16.06-.32.15-.47.26-.03.02-.02.03.02.03.95.01 1.9 0 2.82-.02l.19-.16a.15.15 0 0 1 .09-.03h.45v.06c-.15 0-.3 0-.45.02a.16.16 0 0 0-.1.05l-.08.07v.03a1669.05 1669.05 0 0 1 1.09.96l1.3-.01c.06 0 .07-.03.1-.07 0-.03 0-.06.02-.07 0-.01.01-.02.03-.02 0 .02.02.02.04.02h1.04v.04h-1a.1.1 0 0 0-.06.03l-.03.02v.03H13.02l.02-.04a.53.53 0 0 0 0-.2v-.07c.1.12.1.25.01.4v.02l-.01 3.33c0 .07-.03.13-.09.18-.26.21-.54.46-.84.73a.46.46 0 0 1-.29.12 44.7 44.7 0 0 1-1.96.1c-.03 0-.04.02-.03.05l.03.11c-.05.1-.14.16-.28.18-.18.03-.32.04-.42.04l-.53.02a.82.82 0 0 1-.22-.11c-.04-.02-.08-.01-.1.03h-.08c.02-.09.12-.11.18-.14l.02-.02v-.12a.03.03 0 0 0-.01-.02h-.02l-2.66-.07a.24.24 0 0 1-.16-.06c-.33-.3-.67-.6-1.02-.94a.13.13 0 0 1-.05-.1l.03-.34a1892.04 1892.04 0 0 1-.02-2.65v-.29c0-.05.02-.08.05-.1l1.14-1.1a.4.4 0 0 1 .3-.12l.43.02c.05 0 .1-.02.14-.04.35-.16.65-.27.88-.31.6-.11 1.12-.17 1.58-.18.16 0 .37.02.64.05Z" fill="#0E185B"/><path d="M13.03 5.38v.07l-.93-.83a.16.16 0 0 0-.1-.04l-2.03.01v-.06h1.11c.01 0 .02-.01 0-.02-.3-.18-.64-.3-.99-.34l-.43-.06.02-.06c.2.02.42.06.66.1.31.07.6.2.86.34a.3.3 0 0 0 .14.04H12c.05 0 .1.02.14.05l.89.8Z" fill="#012390"/><path d="m9.66 4.1.43.07a2.72 2.72 0 0 1 1 .35H9.51a.15.15 0 0 0-.1.04l-.18.16-.99-.02-.03-.01a1.79 1.79 0 0 1-1.35-.24l.38-.15a6.9 6.9 0 0 1 2.4-.2Z" fill="#E3C8F9"/><path d="M6.87 4.45c.2.1.38.16.55.19a4.22 4.22 0 0 0 .8.05h.03l.99.03c-.93.02-1.87.03-2.82.02-.04 0-.05-.01-.02-.03.15-.11.3-.2.47-.26Z" fill="#AA8CF2"/><path d="M13.02 5.45c.02.07.02.14 0 .2v.03a.06.06 0 0 1-.04.01h-1.1l-.01-.01a.02.02 0 0 1 0-.02l.03-.02a.1.1 0 0 1 .06-.03h1v-.04h-.02a37.68 37.68 0 0 0-1.06-.02l-.4-.93h-.01l-.02.01v.01l.39.93-1.38.02a195.35 195.35 0 0 1-1.04-.93.16.16 0 0 1 .1-.05l.45-.02h2.02c.04 0 .08 0 .11.03l.92.83Z" fill="#E6D7FE"/><path d="m5.73 4.73.12-.12h.5c.03 0 .04 0 0 .02-.09.05-.14.12-.25.12a19.63 19.63 0 0 1-.37-.02Z" fill="#D7C2FE"/><path d="m9.42 4.66.27.26.77.67c-.02.02-.03.05 0 .07-.03.02-.04.04-.03.06a2.07 2.07 0 0 1-.07-.03 1988.75 1988.75 0 0 0-1.02-.96l.08-.07Z" fill="#7961F6"/><path d="m9.24 4.84-.54.71H5.12l.32-.47.18-.25.03-.02h3.51c.1 0 .13 0 .08.03ZM9.3 6.09l-.53-.52.5-.71c.01-.02.03-.02.07 0l.95.86c.02.02.02.03 0 .04l-.98.33Z" fill="#D7C2FE"/><path d="m5.35 5.1-.3.45c-.2.15-.36.31-.47.5l.01-.2c.02-.04.05-.09.1-.13.2-.19.41-.38.6-.58.04-.04.06-.05.06-.03Z" fill="#7961F6"/><path d="M5.06 5.55c0 .04.01.07.04.08v.03l-.45.39c-.03.03-.06.02-.07 0 .11-.19.27-.35.48-.5Z" fill="#AA8CF2"/><path d="M8.7 5.55c-.02.07-.06.12-.12.13h-.16L6.1 5.66h-.98l-.01-.03c.05-.01.06-.04.02-.08H8.7Z" fill="#4E49EB"/><path d="m8.77 5.57.54.52-.12.05a.1.1 0 0 1-.04 0 .03.03 0 0 1-.02 0l-.4-.42c-.02-.01-.02-.02-.02-.03 0-.05.02-.09.06-.12Z" fill="#7961F6"/><path d="M11.83 5.64c-.03.04-.04.06-.1.06l-1.3.02c0-.02 0-.05.02-.06l.04-.03a278.8 278.8 0 0 0 1.34 0v.01Z" fill="#AA8CF2"/><path d="M6.07 5.72a2197.73 2197.73 0 0 1 2.54.02v.05s0 .02.02.02l.01.02c-.01.02-.04.04-.08.04a717.41 717.41 0 0 1-3.3 0l-.34.3a.08.08 0 0 1-.07.01l-.16-.05c-.02 0-.02-.02 0-.03l.4-.36a.12.12 0 0 1 .08-.03h.9Z" fill="#4E49EB"/><path d="M12.93 9.21c-.03-.02-.04-.04-.09-.05a1.37 1.37 0 0 0-.34-.02h-.01l-.01-1.2a15.65 15.65 0 0 0 .05-1.44c0-.21-.04-.29-.3-.28h-.37v-.46h1.11v3.42l-.04.03Z" fill="#D7C2FE"/><path d="M11.86 5.76v.45c0-.02-.02-.02-.06 0v-.44l.06-.01Z" fill="#4E49EB"/><path d="M11.8 5.77v.44H11.23l-.02.03-.1.16a.12.12 0 0 0-.03.07v.94l-.03.31.02.63c0 .07-.01.14-.05.21a.3.3 0 0 0-.05.13 3.8 3.8 0 0 0-.01.58c-.18.01-.35 0-.53.02h-.02v-.03a152.5 152.5 0 0 1 0-3.48h1.39Z" fill="#D6B9FD"/><path d="M10.4 5.78v.2a152.5 152.5 0 0 0 .03 3.31v.06c-.03 0-.04.02-.03.04v.01h.54l.02-.02c.01 0 .03 0 .03-.04l.01.04v.01h.01a.02.02 0 0 0 .02 0c.1-.08.19-.16.19-.3v-.48c.01-.16-.02-.3-.05-.45a1.6 1.6 0 0 1 0-.37c.01-.05.04-.08.1-.07a11.57 11.57 0 0 0 1.14-.02c.02.03.05.04.1.03-.04.05-.05.12-.03.21a.35.35 0 0 0-.07.1c0-.06-.02-.1-.06-.13-.02-.05-.1-.04-.11.02l-.01.24-.01.02-.02.01h-.02a.02.02 0 0 1-.01 0 .01.01 0 0 1 0-.01v-.26c-.08-.07-.13-.06-.16.03L12 8.2c0 .02 0 .02.02.02l.15.02c-.13 0-.17.02-.15.06l-.7.01c-.01 0-.02 0-.02.02s0 .02.02.02h1.08l-.01.04c-.33.03-.67.04-1 .02-.04 0-.05.02-.05.05V9l-.02.28a.03.03 0 0 0 .02.02.04.04 0 0 0 .02.01l1.07-.06c.05.02.07-.02.06-.12l.01.01a.2.2 0 0 0 0 .07l.01.03v.03c-.03 0-.04.03-.04.06l-.24.25c0-.03 0-.05-.02-.06l.16-.16c.02-.02.02-.03-.02-.03l-1 .03a.08.08 0 0 0-.06.03l-.1.13c-.02.02-.01.03.01.03h.94c-.03.07-.1.1-.18.1l-.89.02a.21.21 0 0 1-.13-.04.43.43 0 0 1-.1-.1.1.1 0 0 0 .03-.06v-.01h-.43a.1.1 0 0 0-.08.03l-.03.03c-.02.02-.01.03.02.03h.43v.04h-.47a.25.25 0 0 0-.15.06c-.02.02-.01.02 0 .02h.5v.05h-.54c-.04 0-.07.02-.1.05-.02.02-.03.04-.03.07-.05 0-.1.03-.13.06-.02.02-.02.02 0 .02l2.25-.04-.02.06h-.26l-1.94.03a.29.29 0 0 0-.2.06c-.03.03-.02.04.01.03.14-.01.25-.04.4-.04.63 0 1.27-.01 1.9-.03 0 .06-.03.1-.1.1-.4.01-.75.01-1.1.03l-1.17.06c-.06 0-.12.02-.17.03-.02 0-.03 0 0-.03l.06-.05a.02.02 0 0 0 0-.03H9.5l.03-.03.73-.54c.03-.03.03-.05 0-.06l-1.12-.41H9.1l-.02.02a25.8 25.8 0 0 1-.4.41l.62.69-.05.03-.61-.67a.11.11 0 0 0-.09-.03H6.43c-.02 0-.02 0 0 .02l.67.63-.1.01v-.03a83.88 83.88 0 0 1-.73-.65h-.86a.78.78 0 0 1-.5-.19 2.33 2.33 0 0 0-.32-.2l.03-.11.28-.05c0 .03.01.06.04.08a.4.4 0 0 0-.25 0 93.16 93.16 0 0 0 .48.4l.12.02h.97c.06 0 .1-.06.16-.08.02 0 .02 0 .01.01a.1.1 0 0 1-.03.04c-.04.03-.04.04 0 .04h2.21L8.6 9.4l.05-.01.04-.01.34-.33v-.03l.01-.03h.03c.01 0 .04 0 .07.02l.19.08.98.35a.03.03 0 0 0 .02 0v-.01l.01-.01v-.03l.01-3.47c0-.08-.01-.12-.04-.13.01-.02.05-.02.1-.01Z" fill="#012390"/><path d="M10.3 5.79c.04.01.05.05.05.13l-.01 3.47v.03a.02.02 0 0 1 0 .02h-.03l-.98-.35V6.13l.98-.34Z" fill="#D6B9FD"/><path d="m9 6.2-.33-.36c0-.03 0-.04.03-.04h.01l.34.35v.03c-.01.02-.03.02-.05.01Z" fill="#4E49EB"/><path d="M8.9 8.34c.01.13 0 .26-.01.37-.04.3-.2.48-.5.52a41.13 41.13 0 0 1-2.59.03c-.2 0-.34-.02-.4-.04C5.21 9.16 5 8.99 5 8.8a67.35 67.35 0 0 1 .01-2.52l.23-.23c.07-.08.22-.1.34-.09.34.03.74 0 1.12 0 .87 0 1.44.02 1.71.02.21 0 .31.1.44.26.06.07.07.22.07.32v.82c-.02.5-.03.82-.02.96Z" fill="#012390"/><path d="M9.33 6.13v2.96L9.14 9V6.2l.07-.04.12-.04ZM4.9 8.94l-.28.05V6.17l.27.05v2.72Z" fill="#7961F6"/><path d="m11.86 6.21.38.01c.25 0 .29.07.29.28 0 .42 0 .83-.03 1.23-.04 0-.07 0-.09-.03h-.03c-.36.02-.73.03-1.1.02-.07 0-.1.02-.1.07-.02.18-.02.3 0 .37.02.15.05.29.05.45l-.01.48c0 .14-.08.22-.2.3a.02.02 0 0 1-.02 0L11 9.33l.08-.07.01-.02v-.63a6.74 6.74 0 0 0 0-.98V6.46c0-.02 0-.05.02-.07l.11-.16.02-.02h.03l.54-.01c.04-.02.07-.02.06 0Z" fill="#0E185B"/><path d="M9.07 6.25v2.73h-.03v.07l-.35.33h-.04l-.05.02c-.03-.04-.03-.06 0-.06.12-.07.24-.18.35-.32l.02-.03.03-.67L9 6.25h.06Z" fill="#7961F6"/><path d="m11.3 6.4-.05.02h-.05c-.02-.01-.02-.02-.02-.03.03-.07.07-.1.15-.12.01 0 .02 0 .02.02.01.04 0 .07-.04.1Z" fill="#AA8CF2"/><path d="M11.5 7.48v-1.1s0-.02-.02-.02c-.05-.03-.08-.05-.07-.07l.93-.01a.13.13 0 0 1 .09.03.11.11 0 0 1 .03.08v1.09h-.96Z" fill="#E3C8F9"/><path d="M11.4 6.29c0 .02.03.04.08.07.02 0 .03.01.03.03l-.01 1.1h-.14a.03.03 0 0 1-.02 0v-.02h-.01c0-.34.02-.67.03-1a.5.5 0 0 1 .05-.18Z" fill="#7961F6"/><path d="m11.3 6.4-.03 1.04c0 .02-.01.03-.03.03-.03 0-.05 0-.06-.02V7.4a.21.21 0 0 0 .03-.08c0-.3.02-.6.04-.9l.06-.02Z" fill="#4E49EB"/><path d="M8.65 6.75c.03.11.06.25.06.35v1.16c-.01.34-.31.4-.6.4-.93-.01-1.74-.02-2.45-.01-.33 0-.42-.26-.4-.52l.03-1.09a.7.7 0 0 1 .06-.3c.04-.06.08-.13.17-.13l.25-.01h2.56c.08 0 .3.05.32.15Z" fill="#1737DA"/><path d="M8.52 6.79c-.03.05-.03.1 0 .12v.03l-.02.01h-.22c.01-.02 0-.04-.01-.04L5.52 6.9l-.03.01.01.05c-.01.05-.02.1 0 .13a30.3 30.3 0 0 1 .9.02h1.65c.12 0 .2-.02.25-.05.04-.02.1-.02.18 0 .02 0 .03 0 .04.02a.02.02 0 0 1 0 .02h-.15l-.01.01v.09h.02l.12.01h.01l.01.02a.02.02 0 0 1 0 .02c-.03.05-.03.1 0 .14a.02.02 0 0 1 0 .02h-.16l-.02.04v.01c0 .02.02.03.04.03h.11c.02 0 .02 0 .02.02v.02c0 .02 0 .03-.03.03h-.11a.02.02 0 0 0-.02 0 .02.02 0 0 0 0 .02v.04l.03.01h.1c.02 0 .03.01.03.03v.03h-.13c-.02 0-.04.02-.04.04l.01.02.03.02h.1c.03 0 .04.02.03.05a.04.04 0 0 1-.05.03h-.11v.05c0 .02.01.03.03.03l.1.01c.07.03.06.04-.01.05h-.1c-.03 0-.04.01-.05.03v.03c0 .02.02.04.05.03.07 0 .13 0 .15.02.03.02.02.03 0 .03l-.18.01c-.02 0-.03.01-.03.04l.01.02c.01.02.02.03.04.03h.13c.02 0 .02 0 .02.02v.22l-.22.02c-.46-.01-.9-.02-1.31-.01-.49 0-.97-.02-1.44 0a.05.05 0 0 1-.04-.02.04.04 0 0 1-.01-.03v-.15h2.73a.02.02 0 0 0 .02 0 .02.02 0 0 0 0-.02v-.01l-.02-.02-.03-.01c-.68.02-1.36 0-2.04-.01-.22 0-.44 0-.66-.02v-.03l.16-.02h2.61a.01.01 0 0 0 0-.01.01.01 0 0 0 .01-.01V8.1l-.02-.02H6.8c-.35-.02-.7-.02-1.06 0l-.24-.03v-.04l2.75-.03h.01a.02.02 0 0 0 0-.03l-.02-.01-2.74-.02v-.07c.87 0 1.74-.02 2.6-.03a.23.23 0 0 0 .13-.04L5.5 7.75V7.7l2.73-.01.02-.01v-.04a.02.02 0 0 0 0-.01.02.02 0 0 0-.01-.01 284.28 284.28 0 0 1-2.75 0v-.66c0-.06.02-.1.01-.16a.02.02 0 0 1 0-.01.02.02 0 0 1 .02-.01h3.01Z" fill="#AA8CF2"/><path d="M8.28 6.95a.1.1 0 0 0 .02.11c-.05.03-.13.05-.25.04h-.92c-.3.02-.55.02-.73.02a30.31 30.31 0 0 0-.9-.03c-.02-.03-.01-.08 0-.13a498.44 498.44 0 0 1 2.73-.01c.02 0 .03-.02.04-.04.02 0 .02.02 0 .04Z" fill="#D6B9FD"/><path d="M8.26 7.2 5.5 7.2l-.02.01v.04l.02.01 2.75.02.01-.01v-.04l-.01-.01Z" fill="#E3C8F9"/><path d="M9.52 8.52a.04.04 0 0 0 .01.03.04.04 0 0 0 .03 0l.71-.04h.01v.03l-.75.06a.07.07 0 0 1-.05-.02.06.06 0 0 1-.02-.05V7.47c0-.02 0-.04.02-.06a.08.08 0 0 1 .06-.02l.69-.01v.01l-.65.03-.04.01a.05.05 0 0 0-.02.04v1.05ZM11.08 7.4l.01.23a6.32 6.32 0 0 0 0 .99l-.03.64v.01h-.01a.02.02 0 0 1-.02.01h-.07l.03-.03v-.03a3.8 3.8 0 0 1-.01-.53.3.3 0 0 1 .04-.13.38.38 0 0 0 .05-.2l-.02-.64.03-.31Z" fill="#AA8CF2"/><path d="M8.26 7.52c0 .03-.04.05-.11.04a94.65 94.65 0 0 0-2.66-.01v-.06l.01-.01h2.65c.07 0 .1.02.1.04Z" fill="#D6B9FD"/><path d="m12.41 7.51-1.05.01a.05.05 0 0 0-.05.05v.05c0 .02.02.04.05.04h1.05c.03 0 .05-.03.05-.05v-.05a.05.05 0 0 0-.05-.05Z" fill="#4E49EB"/><path d="M5.49 7.7c-.01-.02-.02-.05 0-.08h.13a286.81 286.81 0 0 0 2.63.02v.02l-.01.02h-.02l-2.73.02Z" fill="#E3C8F9"/><path d="M11.09 8.5a6.41 6.41 0 0 1 0-.87c.02.3.02.58 0 .87Z" fill="#4E49EB"/><path d="M5.49 7.85v-.09l2.73.01a.23.23 0 0 1-.13.05l-2.6.03Z" fill="#E3C8F9"/><path d="M12.36 7.91c0 .07-.1.07-.12.02 0-.06.09-.07.12-.02Z" fill="#AA8CF2"/><path d="M11.41 7.89h-.02a.03.03 0 0 0-.03.03v.27c0 .02.01.03.03.03h.02c.02 0 .03-.01.03-.03v-.27a.03.03 0 0 0-.03-.03Z" fill="#4E49EB"/><path d="M12.17 7.93c-.02.05-.07.06-.16.03.03-.1.08-.1.16-.03ZM11.93 7.94a.15.15 0 0 0-.02.06v.02a.02.02 0 0 1-.03 0c-.05-.03-.07-.06-.07-.1.09-.02.13-.02.12.02Z" fill="#AA8CF2"/><path d="M12.41 8.04v.18h-.02l-.22.02-.15-.02c-.01 0-.02 0-.02-.02l.01-.24c.09.03.14.02.16-.03v.26a.02.02 0 0 0 .01.01h.04v-.03l.02-.24c.03.05.12.05.12-.02.03.02.05.07.05.13ZM11.8 7.93c0 .03.03.06.08.1A.02.02 0 0 0 11.9 8c0-.03 0-.05.02-.07 0 .05.02.17 0 .21v.05a.03.03 0 0 1-.02.03h-.39l-.02-.03a.42.42 0 0 1 .02-.21c.04.02.15.03.16-.04l-.02.2v.02h.02l.01.01h.02l.05-.2c0-.04.02-.05.05-.05Z" fill="#1737DA"/><path d="M12.49 9.13c.01.1 0 .14-.06.12l-.01-.84c0-.02-.01-.03-.03-.02v-.03l.03-.04a.02.02 0 0 0-.02-.03h-.38c-.02-.03.02-.05.15-.05l.22-.02h.02v-.18a.35.35 0 0 1 .07-.1v1.2Z" fill="#0E185B"/><path d="M5.5 8.16a.3.3 0 0 1 0-.1l.23.01h1.06a43.38 43.38 0 0 0 1.48.03v.02a.01.01 0 0 1 0 .01h-.01c-.33.02-.68 0-.97 0a48.04 48.04 0 0 1-1.8.03Z" fill="#E3C8F9"/><path d="M12.02 8.3h.37a.03.03 0 0 1 .02 0v.02l-.01.03h-1.08l-.02-.01v-.02h.01l.71-.02Z" fill="#7961F6"/><path d="M12.39 8.4c.02-.02.03-.01.03 0v.85l-1.06.06a.04.04 0 0 1-.02 0 .04.04 0 0 1-.02-.03c0-.1.03-.2.03-.28l-.01-.54c0-.03.01-.05.04-.05.34.02.68 0 1.01-.02ZM11.09 8.62v.63l-.02.02-.08.07c0 .03-.01.05-.03.04 0-.02 0-.04-.03-.04l-.5.01v-.06c.18-.03.35 0 .53-.02l.07.01a.03.03 0 0 0 .02 0 .02.02 0 0 0 0-.02l.04-.64Z" fill="#4E49EB"/><path d="m4.94 9.02.28.26a.02.02 0 0 1 0 .01v.01l-.02.04h.02v-.02l.02-.01h.01l3.36.03c-.04 0-.04.02-.01.06v.04c0 .01 0 .02-.02.02L6.4 9.45c-.04 0-.04-.01 0-.04a.1.1 0 0 0 .03-.04c.01-.01 0-.02-.01-.01-.07.02-.1.09-.16.09a4707.6 4707.6 0 0 0-1.09-.03l-.48-.37c-.02-.01-.02-.02 0-.03a.4.4 0 0 1 .25 0Z" fill="#AA8CF2"/><path d="M9.14 9.06v.04a12.5 12.5 0 0 1 .36 1l-.15.08H9.3l-.63-.69a.02.02 0 0 1 0-.03 25.84 25.84 0 0 0 .43-.4h.04Z" fill="#4E49EB"/><path d="m9.14 9.06 1.11.4c.04.02.04.04 0 .07l-.72.54-.03-.01a12.5 12.5 0 0 0-.36-1Z" fill="#AA8CF2"/><path d="m7 10.17-1.3-.03a.13.13 0 0 1-.08-.04l-1-.92c-.03-.03-.04-.06-.03-.09l.32.21c.14.12.31.19.5.19a49.9 49.9 0 0 0 .92.02 83.18 83.18 0 0 0 .67.66Z" fill="#4E49EB"/><path d="m12.93 9.21-.06.07h-.34l-.03.01-.03.04c0-.03 0-.05.04-.06v-.03l-.01-.03a.2.2 0 0 1 0-.07c.12 0 .23 0 .34.02.05 0 .06.03.1.05Z" fill="#7961F6"/><path d="m12.87 9.28-.49.4-.03.01-.19-.01c-.02 0-.02-.01 0-.02l.07-.08.24-.25.03-.04.03-.01h.34Z" fill="#AA8CF2"/><path d="m12.2 9.52-.06.03h-.94c-.02 0-.03-.01-.01-.03l.1-.13a.08.08 0 0 1 .06-.03l1-.03c.04 0 .04 0 .02.03l-.16.16ZM9.25 10.2l-2.15-.04-.67-.63c-.02-.02-.02-.02 0-.02h2.12a.12.12 0 0 1 .09.03l.6.67ZM12.09 9.94c-.02.03-.05.05-.09.05-.63.02-1.27.03-1.9.03-.15 0-.26.03-.4.04-.03 0-.04 0-.01-.03a.29.29 0 0 1 .2-.06 41.07 41.07 0 0 0 2.2-.03Z" fill="#4E49EB"/><path d="m9.76 10.32.02.03c.01.04 0 .06-.04.07l-.2.04a4.95 4.95 0 0 1-1-.02v-.01c-.01-.02-.02-.05-.01-.1l.01-.01.03-.01c.42 0 .71.02 1.1-.04.04 0 .07 0 .09.05Z" fill="#012390"/><path d="m10.76 10.69.02.08h-.33c-.04 0-.05.02-.04.05l.02.1.03.03.05.02c.14 0 .28-.02.44-.05.05-.01.08 0 .1.02a2.1 2.1 0 0 1-.55.06c-.06 0-.1-.02-.13-.07l-.02-.01h-.03a7.25 7.25 0 0 1-1.02.29l.1.13a.06.06 0 0 1 .02.05l-.02.03-.02.01-.35.16c-.2.09-.27.17-.31.37-.08.38-.12.73-.13 1.04l-.07-.01a5.47 5.47 0 0 1 .08-.88l-.02-.01-.32-.03c-.01 0-.02.01-.02.03-.02.16-.1.3-.22.4a9.23 9.23 0 0 1-1.15-.05l-.03-.02a.62.62 0 0 0-.08-.1.2.2 0 0 1-.06-.12.99.99 0 0 1 0-.25c0-.02 0-.02-.02-.03l-.26-.01H6.4a.01.01 0 0 1 0-.02v-.02l.26.02a.1.1 0 0 0 .06-.03l.14-.12a.1.1 0 0 1 .09-.02 10.8 10.8 0 0 1 1.13.07c.1 0 .13.13.15.2l.03.02.34.02c.02 0 .02 0 .03-.02a.68.68 0 0 1 .11-.31c.02-.03.02-.06 0-.09a1.28 1.28 0 0 1-.04-.04l-.08-.15a.06.06 0 0 0-.02-.03.07.07 0 0 0-.03 0l-1.1-.07v-.04l1.11.07c.07 0 .13-.02.2-.08v-.02l-1.26-.06a.22.22 0 0 0 .02-.09h.02l.01-.01v-.05l.01-.03.03-.07-.02-.01c-.24.08-.43.13-.59.24-.04 0-.09 0-.14.04a.35.35 0 0 0-.13.1.75.75 0 0 0-.36.52l-.23 1.14a.15.15 0 0 1-.1.01l.27-1.18.12-.29v-.02a.23.23 0 0 0-.14 0l-.03-.01a.53.53 0 0 0-.17-.06l-.77-.18H5.3v.01l-.08.28c0 .01 0 .02.02.02l.82.19.12.03c.02 0 .02 0 .02.02v.03a.12.12 0 0 0 0 .1c0 .02 0 .02-.02.03a.13.13 0 0 1-.08 0c-.02 0-.02 0 0-.01l.04-.03v-.03a.1.1 0 0 1 .01-.05v-.03c-.03-.02-.06-.02-.1-.01l-.81-.2-.04.03-.01.04.01.02h.02l.72.18c0 .03 0 .04-.02.04l-.7-.16h-.02a.05.05 0 0 0-.03.02l-.01.02c-.09.39-.16.8-.2 1.2h-.05c-.02 0-.02-.01-.02-.03.07-.52.17-1.05.31-1.58a.92.92 0 0 1 .12-.29c.14-.2.24-.32.49-.39a.92.92 0 0 1 .31 0 6.82 6.82 0 0 1 1.2.27l.34-.14.03-.03c.02-.03.05-.05.08-.05l.31-.08c.07-.01.11-.04.13-.09h.08c-.02.02-.01.03 0 .04.1.05.2.07.32.04l.53-.02c.1 0 .24-.01.42-.04.14-.02.23-.07.28-.18l.12.01.03.02.08.19.02.02.04.01.62.02Z" fill="#012390"/><path d="M8.62 10.66a.45.45 0 0 1-.32-.04c-.01-.01-.02-.02 0-.04.02-.04.06-.05.1-.03.09.06.17.1.22.11Z" fill="#4E49EB"/><path d="M13.44 13a8 8 0 0 0-.3-.96.1.1 0 0 0-.04-.04c0-.04-.01-.06-.03-.09a.03.03 0 0 0-.03-.01l-.13.01-.25.07-.04-.05.42-.11h.01v-.02l-.06-.3c-.01-.03-.02-.05-.03-.04l-.25-.2a.04.04 0 0 0-.03 0l-.23.05a.07.07 0 0 1-.03-.02l.2-.06c.02 0 .02 0 0-.01a1.07 1.07 0 0 0-.39-.04c-.12 0-.3.05-.53.12l-.67.22a.9.9 0 0 0-.27.45.7.7 0 0 0-.03.2c0 .03.01.1.04.18l.03.18c.01.14.03.27.07.4 0 .04 0 .06-.04.04l-.02-.01a.46.46 0 0 1-.04-.23l-.01-.03-.03-.01c-.08-.01-.2-.01-.28-.04a.65.65 0 0 1-.32-.21c-.23-.3-.21-.68 0-1 .27-.38.8-.33 1.18-.16.03 0 .03 0 .02-.02l-.2-.35c-.08-.1-.2-.16-.35-.14l-.02-.08c.18-.03.32.03.42.17.1.13.17.27.25.41 0 .02.03.03.05.02l.51-.14c.26-.06.62-.07.84.1.15.13.25.2.27.37.02.19.02.28.1.4l.05.14a14.24 14.24 0 0 1 .24.82c-.02.02-.03.02-.05.01Z" fill="#0E185B"/><path d="M6.05 10.74a.85.85 0 0 1-.08.05c-.11.02-.1.04 0 .05l.29.07c.07.02.12.06.17.1-.09.07-.16.15-.22.23l-.1.14-.75-.17c-.02 0-.03-.01-.01-.03l.27-.34.02-.02c.11-.04.25-.1.41-.08Z" fill="#D7C2FE"/><path d="m6.82 10.9-.21.03a.23.23 0 0 0-.1.03l-.08.05a.37.37 0 0 0-.17-.1c-.11-.03-.2-.06-.29-.07-.1 0-.11-.03 0-.05l.08-.05c.25.03.5.08.77.16Z" fill="#AA8CF2"/><path d="M7.72 10.92h.1c.01 0 .02-.01.01-.02a.22.22 0 0 0-.05-.08l.34-.08h.03l.03.03c.04.1.11.14.22.16.28.03.53.04.76.04.04 0 .05 0 .02.04-.02 0-.03.03-.02.07l-.02.02-.18.06c-.34.03-.59 0-.99-.04h-.3l-.02-.01-.01-.02a.04.04 0 0 1 0-.04l.03-.03.01-.03a.1.1 0 0 1 .04-.07Z" fill="#1737DA"/><path d="M10.78 10.77c.16-.02.27.03.35.14l-.08.03c-.02-.03-.05-.03-.1-.02-.16.03-.3.05-.44.05-.02 0-.03 0-.05-.02a.07.07 0 0 1-.03-.04l-.02-.09c-.01-.03 0-.05.04-.05h.33ZM6.95 10.93c-.06.04-.13.07-.19.09a.57.57 0 0 0-.16.08c-.12.09-.22.19-.31.3a.35.35 0 0 1-.19-.02l.11-.14a1.01 1.01 0 0 1 .3-.28.23.23 0 0 1 .1-.03c.07 0 .14-.02.2-.03l.14.03Z" fill="#4E49EB"/><path d="m11.05 10.94.07-.03.2.35c.02.02.02.03-.01.02-.38-.17-.91-.21-1.18.16a.21.21 0 0 0-.07.07.34.34 0 0 1-.06.06c-.17.13-.27.24-.3.45-.04.33-.03.65.03.98H8.59c.01-.31.05-.66.13-1.04.04-.2.12-.28.3-.37a15.11 15.11 0 0 1 .4-.2.06.06 0 0 0-.01-.04l-.11-.14a.01.01 0 0 1 0-.01.01.01 0 0 1 .01-.01 7.25 7.25 0 0 0 1.04-.27l.02.01c.03.05.07.07.13.07.19 0 .37-.02.55-.06Z" fill="#7961F6"/><path d="m7.53 11.2-.52-.02c.16-.1.35-.16.6-.24l.01.01c0 .02 0 .04-.03.07v.08l-.02.01h-.01l-.03.09Z" fill="#4E49EB"/><path d="M7 11.1c-.2.07-.3.16-.48.31-.07.05-.12.04-.19.01.09-.1.18-.19.29-.27.12-.1.25-.11.39-.06Z" fill="#7961F6"/><path d="m7.01 11.18.52.02 1.25.06c.02 0 .02 0 0 .02-.06.06-.12.09-.19.08a121.32 121.32 0 0 0-1.4-.09l-.32-.05c.05-.03.1-.05.14-.04ZM8.68 11.4v-.02l.5-.19h.04l.02.02.12.15v.02l-.57.24-.1-.22Z" fill="#D6B9FD"/><path d="M6.87 11.22a2.33 2.33 0 0 0 .6.07v.03a42.36 42.36 0 0 1-.59-.02l-.14.02a.35.35 0 0 1 .13-.1Z" fill="#AA8CF2"/><path d="m12.96 11.46-.81.17c-.02 0-.04 0-.05-.02l-.1-.12v-.03a.44.44 0 0 1 .16-.08l.3-.07.22-.06h.03l.25.21Z" fill="#7961F6"/><path d="m6.1 11.43-.03.32-.82-.19c-.01 0-.02 0-.02-.02l.08-.28h.02l.77.17Z" fill="#D6B9FD"/><path d="M10.52 11.37c-.1.1-.17.2-.2.3-.05.22-.05.58.1.79.06.07.04.09-.05.05a.46.46 0 0 1-.2-.17.74.74 0 0 1 .13-.97c.09-.07.2-.1.31-.09.03 0 .03.01 0 .03l-.09.06ZM12.42 11.29l.03.02-.29.07a.44.44 0 0 0-.15.08v.03l.1.12c0 .02.02.02.04.02l.81-.17s.02 0 .03.04l-.81.16a.09.09 0 0 0-.05.03l-.11.15v.03c.02.06.03.12.02.17H12c0 .02-.01.02-.02.03a10.82 10.82 0 0 0-.07-.23.1.1 0 0 0-.05 0v-.03c.12 0 .18-.05.18-.15 0-.05-.03-.1-.07-.13l-.01-.01a.03.03 0 0 0-.03 0v.01l-.17.24-.07.01c.08-.16.19-.29.31-.4l.4-.1Z" fill="#1737DA"/><path d="m11.7 11.3.31.08c-.12.11-.23.24-.3.4l-.06.03-.78.17c-.02-.12-.01-.2.01-.24.06-.07.1-.14.15-.22l.67-.22Z" fill="#E3C8F9"/><path d="M10.54 11.42c.03.03.06.04.1.03a.73.73 0 0 0-.13.25l-.01.29c0 .16.03.3.15.42l.09.13a.02.02 0 0 1 0 .02.02.02 0 0 1-.03 0c-.16-.03-.28-.22-.33-.36a.8.8 0 0 1 .16-.78Z" fill="#1737DA"/><path d="m6.27 11.49-.03.03-.02.03-.03.23a.39.39 0 0 1-.12-.03l.03-.32c.07.01.12.03.17.06Z" fill="#7961F6"/><path d="M10.13 11.44c-.21.32-.23.7 0 1 .07.1.18.16.32.21.07.03.2.03.28.04l.03.01v.03c0 .08.02.16.05.23l.02.01c.04.02.05 0 .04-.03a1.98 1.98 0 0 1-.07-.4h.1l.12.45h-1.3a3.21 3.21 0 0 1-.01-.97c.02-.21.12-.32.29-.45a.34.34 0 0 0 .06-.06.21.21 0 0 1 .07-.07Z" fill="#4E49EB"/><path d="M6.32 11.8h-.06a4.52 4.52 0 0 0 .04-.3c.04-.02.09-.01.13 0 .01 0 .02.01.01.02l-.12.29Z" fill="#7961F6"/><path d="M6.3 11.5a4.5 4.5 0 0 1-.04.3h.06L6.06 13h-.2a6.7 6.7 0 0 1 .11-1.07.1.1 0 0 0-.04-.02c.02 0 .02-.01.02-.04l.08.02.03-.01a.08.08 0 0 0 0-.08c.04-.01.07-.01.1.01v.03a.1.1 0 0 0 0 .05l-.01.03-.04.03c-.02 0-.02.01 0 .01h.08c.01 0 .02-.01.01-.03a.12.12 0 0 1 0-.1c.01-.01.02-.02.01-.03 0-.02 0-.02-.02-.02l.03-.23c0-.01 0-.02.02-.03l.03-.03h.03Z" fill="#1737DA"/><path d="m13 11.5.06.3v.01l-.02.01-.42.11-.62.16v-.04l.02-.01h.02c0-.05 0-.1-.03-.17v-.03l.12-.15a.09.09 0 0 1 .05-.03l.81-.16Z" fill="#7961F6"/><path d="M10.83 11.55c-.03.06-.08.09-.15.09h-.01l-.01-.01v-.02c.03-.06.08-.14.17-.08v.02Z" fill="#1737DA"/><path d="M11.87 11.81a.3.3 0 0 1-.1-.04l.16-.24h.01a.03.03 0 0 1 .04 0c.04.03.08.08.07.13 0 .1-.06.15-.18.15Z" fill="#D6B9FD"/><path d="M11.03 11.52c-.04.08-.1.15-.15.22-.02.04-.03.12-.01.24l-.11-.01a.9.9 0 0 1 .27-.45Z" fill="#AA8CF2"/><path d="M6.07 11.8c.01.03 0 .05-.01.08l-.03.01-.08-.02-.72-.17a.04.04 0 0 1-.03-.03v-.04c.02-.02.04-.03.05-.02l.82.19ZM5.93 11.91a.1.1 0 0 1 .04.02 13.92 13.92 0 0 1-.07.5 6.7 6.7 0 0 0-.05.57h-.88a11.64 11.64 0 0 1 .22-1.25h.04l.7.16Z" fill="#D6B9FD"/><path d="M8.17 11.98c-.36-.09-.78-.1-1.14-.08l-.2-.02c-.02 0-.02 0 0-.02l.07-.08a.06.06 0 0 1 .05-.02l1.13.08h.03c.04.04.06.09.06.14Z" fill="#AA8CF2"/><path d="M11.77 11.77a.3.3 0 0 0 .1.04v.02a.3.3 0 0 0-.15 0l-.04.04-.02-.01c-.21.04-.45.09-.7.16l-.11.02c-.01 0-.02.01-.02.03l.04.2c0 .02 0 .03.02.03.05 0 .1 0 .15-.03h.03l.64-.12.01-.02.05-.02c-.01.02 0 .02.01.02.06 0 .13-.01.22-.04l.62-.16.04.05-.67.17-.2.04-.9.17-.01.01v.01l.02.08c0 .01.01.02.03.01l.9-.17a.6.6 0 0 0 .2-.05L13.1 12a.1.1 0 0 1 .03.04l-.99.26-.02.02v.02l.16.61v.02h-.03c-.02 0-.04 0-.04-.03l-.16-.62c-.07 0-.14 0-.2.03l-.07.03-.88.15h-.1l-.03-.18a.8.8 0 0 1-.04-.19c0-.07 0-.13.03-.2.02.02.06.03.1.02.27-.05.53-.1.79-.17.02 0 .04-.02.05-.03l.07-.01Z" fill="#012390"/><path d="M6.38 11.84c0 .03.01.05.03.04v.01a.01.01 0 0 0 0 .02l.27.02c.02 0 .02.01.02.03a.99.99 0 0 0 0 .25c0 .04.03.08.06.11l.08.11.03.02.03.01a9.23 9.23 0 0 0 1.12.04c.12-.1.2-.24.22-.4 0-.02 0-.03.02-.03l.32.03a.04.04 0 0 1 .02.01l.01.02v.01c-.05.29-.08.57-.09.85H6.15l.23-1.15Z" fill="#D7C2FE"/><path d="M11.72 11.84c.04.08.05.18.04.27l-.05.01-.03-.25.04-.03Z" fill="#4E49EB"/><path d="m11.68 11.87.03.25c.01 0 .02 0 .01.01l-.01.02-.64.12-.05-.22a.02.02 0 0 0-.01-.02.02.02 0 0 0-.02.01v.03l-.04-.05a9.71 9.71 0 0 1 .73-.15Z" fill="#D6B9FD"/><path d="M8.17 11.98c-.01.02 0 .04.02.06h-.04s-.02 0-.02.02c-.04.08-.1.14-.1.24 0 .02-.02.04-.03.05a5.73 5.73 0 0 1-.94 0c0-.03 0-.05-.02-.08a.06.06 0 0 1-.01-.03c0-.03 0-.06-.02-.09a.4.4 0 0 1 0-.21l.02-.04c.36-.02.78 0 1.14.08Z" fill="#0E185B"/><path d="m13.1 12-1.08.25c0-.05-.01-.09-.03-.1l.67-.17a2.96 2.96 0 0 1 .38-.08l.03.01c.02.03.03.05.03.09Z" fill="#4E49EB"/><path d="M7 11.94a.4.4 0 0 0 .01.21l.02.1.01.02c.02.03.02.05.02.08l-.17.02-.08-.08c-.07-.09-.08-.22-.07-.33 0-.02.01-.03.03-.03h.24Z" fill="#7961F6"/><path d="m7.59 12.03-.13-.01a.03.03 0 0 0-.04.03v.03c0 .01.01.03.03.03h.13c.02 0 .03 0 .04-.02v-.03a.03.03 0 0 0-.03-.03Z" fill="#D6B9FD"/><path d="M7.3 12.1c.02 0 .04-.02.04-.04a.04.04 0 0 0-.04-.04.04.04 0 0 0-.04.04c0 .02.02.04.04.04Z" fill="#7961F6"/><path d="M8.19 12.04c-.01.15-.07.28-.16.39l-.03.02a10.04 10.04 0 0 1-1.12-.05v-.02l.18-.03a5.74 5.74 0 0 0 .94 0 .07.07 0 0 0 .02-.05c0-.1.07-.16.1-.24l.03-.03h.04ZM11.07 12.27h-.04a.21.21 0 0 1-.05-.2v-.03H11a.02.02 0 0 1 .02 0l.05.23Z" fill="#AA8CF2"/><path d="M13.13 12.04c.03.04.05.06.05.08.1.29.2.58.26.88h-1.43l-.1-.43.14-.25.16.62c0 .02.02.03.04.03h.01a.02.02 0 0 0 .02 0v-.01l-.16-.62v-.02l.02-.02 1-.26ZM11.99 12.15c.02.01.03.05.03.1a.6.6 0 0 1-.19.05.23.23 0 0 1-.04-.1l.2-.05Z" fill="#7961F6"/><path d="M11.8 12.2c0 .04.01.08.03.1l-.9.17-.03-.01-.02-.08a.02.02 0 0 1 0-.01l.01-.01.9-.17Z" fill="#D6B9FD"/><path d="m12.31 12.42.09.02.02.02v.05l-.01.02a.17.17 0 0 1-.15.02l-.01-.02v-.01a.02.02 0 0 1 0-.02.03.03 0 0 1 .03 0h.05c.05.02.06.01.02-.02-.05-.04-.08-.04-.1-.01l-.02-.09.01-.01c.05-.03.1-.04.16-.03l.01.02v.02h-.01l-.09.01c-.03.01-.02.02 0 .03Z" fill="#012390"/><path d="m11.86 12.35.05.22.1.43h-.06l-.17-.62.08-.03Z" fill="#1737DA"/><path d="m11.78 12.38.17.62h-.75l-.1-.43c0-.02-.02-.03-.04-.03h-.01c-.02 0-.03.01-.02.03l.1.42h-.1l-.13-.46.88-.15Z" fill="#D6B9FD"/><path d="M11.2 13a.2.2 0 0 1-.08-.01l-.1-.42c0-.02.01-.03.03-.03h.01c.02 0 .04.01.04.03l.1.42Z" fill="#AA8CF2"/></svg>