<!-- by TradingView --><svg width="18" height="18" viewBox="0 0 18 18" xmlns="http://www.w3.org/2000/svg"><path fill="#010834" d="M0 0h18v18H0z"/><circle cx="9" cy="9" r="6" fill="#021D63"/><circle cx="9" cy="9" r="5" fill="#034180"/><circle cx="9" cy="9" r="4" fill="#04689F"/><circle cx="9" cy="9" r="2.28" fill="#06A6D1"/><path fill-rule="evenodd" d="M5 7H4v4h1V9.4h2.5V11h1V7h-1v1.6H5V7Zm5.07 0C9.48 7 9 7.51 9 8.14v1.72c0 .63.48 1.14 1.07 1.14h2.86c.27 0 .52-.1.71-.29l.37.26.34-.68-.37-.24.02-.2v-1.7C14 7.5 13.52 7 12.93 7h-2.86Zm1.9 1.76 1.03.66V8.23c0-.24-.18-.43-.4-.43h-2.2c-.22 0-.4.2-.4.43v1.54c0 .24.18.43.4.43h2.2c.08 0 .15-.02.2-.06l-1.15-.8.32-.58Z" fill="#FDFFFF"/></svg>