<!-- by TradingView --><svg width="18" height="18" viewBox="0 0 18 18" xmlns="http://www.w3.org/2000/svg"><path fill="#F62A81" d="M0 0h18v18H0z"/><path d="M3 7.03v-.04h.7c.12 0 .23-.03.35-.06.11-.04.21-.12.3-.17.18-.1.36-.11.54-.04.07.03.17.1.31.2.36.26.65.57.95.9.03.03.04.06.04.09 0 .02 0 .02-.02 0a38.94 38.94 0 0 0-.81-.76c-.18-.11-.39-.23-.6-.22l-.27.06c-.48.15-.98.16-1.49.04ZM9.22 8.77c0-.01 0-.02-.02-.02a.32.32 0 0 0-.22.24c-.02.09.02.1.09.16.02.02.01.07-.02.08l-.16.03a.04.04 0 0 1-.04-.01l-.17-.17-.01-.03c-.03-.16-.04-.29-.03-.38.01-.05.05-.15.12-.29.04-.1.14-.19.2-.28.02-.03.02-.05 0-.06l-.4-.2c-.18-.1-.36-.12-.52.02-.2.16-.44.45-.6.62-.1.1-.25.18-.4.17a.46.46 0 0 1-.21-.1 149.41 149.41 0 0 1-.56-.57v-.01h.01l.32.33c.06.07.14.14.23.21.13.1.23.1.33 0a.7.7 0 0 0 .12-.18l.24-.56c.07-.14.13-.24.2-.31.14-.16.3-.12.46-.02a8.44 8.44 0 0 1 .86.56c.01 0 .02 0 .03-.02.1-.12.23-.24.36-.35l.16-.16.26-.2c.34-.27.35-.45.71-.52.07 0 .16-.05.22-.07l.02-.02c.06-.11.13-.19.26-.19a.05.05 0 0 0 .05-.03l.17-.47a.09.09 0 0 0 0-.1.92.92 0 0 1-.07-.1v-.01l.04-.12.01-.02c.19 0 .17-.19.22-.34 0-.02.02-.03.03-.03h.22a.1.1 0 0 0 .06-.02c.13-.12.3-.23.49-.23a5.89 5.89 0 0 1 1.1.42c.2.1.3.18.37.38a25.7 25.7 0 0 0 .25.66l-.01.03-.12.14-.01.03-.01.09c-.02.15-.11.27-.26.31-.04.01-.06.03-.07.04-.06.1-.13.23-.2.39-.04.08-.04.1 0 .18.11.2.19.4.22.6a.2.2 0 0 1 0 .11c-.08.18-.25.3-.42.4l-.34.21a.22.22 0 0 1-.1.03.07.07 0 0 0-.07.04c-.14.31-.32.63-.38.97a14.67 14.67 0 0 1-.24 1.01.52.52 0 0 0-.33.04c-.07.04-.16.11-.27.14-.12.03-.24.02-.36.04l-.01-.01.02-.2a7.76 7.76 0 0 1-.03-.76c0-.06-.01-.1-.03-.13a.56.56 0 0 0-.19-.17c-.03-.02-.06-.02-.08 0-.14.12-.25.25-.37.37a.27.27 0 0 1-.1.06.4.4 0 0 0-.2.17l-.08.14c-.28.34-.53.5-.87.73a.52.52 0 0 1-.2.05l-.37.02s-.02 0-.01-.02l.08-.21.13-.2a3.7 3.7 0 0 0 .43-.74c0-.11.02-.2.06-.26.1-.13.18-.3.3-.42a5.18 5.18 0 0 0 .47-.58l.07-.22c.01-.05.03-.07.06-.11v-.01a.02.02 0 0 0-.01-.02.63.63 0 0 1-.14-.04 2.68 2.68 0 0 1-.37-.23c-.03-.02-.05-.02-.07 0a.35.35 0 0 0-.1.16.78.78 0 0 1-.09.32.06.06 0 0 1-.09 0c-.04-.04-.04-.12-.02-.18Zm2.87-2.2a.95.95 0 0 1-.3-.4.04.04 0 0 0-.07 0 .78.78 0 0 0-.22.66c.03.18.1.33.22.45.12.13.28.22.46.25a.07.07 0 0 0 .06-.01 1.57 1.57 0 0 0 .38-.64h-.01c-.2-.09-.38-.19-.52-.3Zm.87.4c-.08.18-.22.34-.34.5-.02.02-.01.02.02.01a.8.8 0 0 0 .38-.32.4.4 0 0 0 .07-.18v-.01l-.01-.01a.14.14 0 0 0-.1 0l-.02.02Zm-2.49 1.1c.02-.04.15-.18.1-.22a.02.02 0 0 0-.03 0c-.1.03-.94.45-.9.57h.01c.15.14.34.22.55.17l.03-.02c.08-.1.2-.39.24-.5Z" fill="#FBFDFA"/><path d="M12.98 10.45c0-.03-.02-.04-.04-.02l-.08.08a.06.06 0 0 1-.05.02.05.05 0 0 1-.05-.05c.01-.09.04-.19.08-.3.01-.04.03-.07.06-.11a.16.16 0 0 0 .03-.05c.04-.14.05-.29.03-.44a3.02 3.02 0 0 0-.13-.56l.02-.02c.26-.1.5-.23.7-.4h.02c.05.13.1.32.06.46l.01.06c.06.07.1.11.08.23a27.66 27.66 0 0 1-.15.91c0 .08 0 .14-.02.18-.02.12-.03.2-.11.28a.89.89 0 0 1-.31.21h-.02c-.01 0-.02-.05-.04-.02-.04.07-.1.12-.18.12-.02 0-.04-.02-.03-.04l.05-.11a.33.33 0 0 0 .03-.12c0-.08.02-.16.04-.26v-.05ZM11.55 11.3c.12-.02.25-.05.37-.09.02 0 .03.01.03.03-.1.19-.18.4-.25.63-.06.2-.1.4-.14.6-.04.14-.09.26-.16.38-.13.2-.32.17-.51.07-.08-.03-.1-.1-.09-.18l.06-.3c.05-.25.12-.5.12-.75v-.32c.01-.02.02-.03.05-.03.16 0 .35 0 .52-.03ZM9.24 11.59c-.1.13-.23.26-.36.39-.09.1-.2.05-.27-.04a.54.54 0 0 1-.13-.33l.02-.01c.25.03.5.02.73-.04.02 0 .02.02.01.03Z" fill="#FBFDFA"/></svg>