<!-- by TradingView --><svg width="18" height="18" viewBox="0 0 18 18" xmlns="http://www.w3.org/2000/svg"><path fill="url(#a)" d="M0 0h18v18H0z"/><path fill-rule="evenodd" d="M5.63 8.67c.03.11.06.22.07.31 0 .02 0 .03-.02.04l-.05.03c-.23.1-.42.19-.54.43a.9.9 0 0 0 .07.89c.22.32.52.54.9.67.04.01.06.04.06.08-.01.22-.05.45-.1.7-.16.77.46 1.3 1.25 1.15a6.87 6.87 0 0 0 1.15-.3h.1c1 .36 1.7-.03 2.48-.6l.02-.01h.03l.08.02c.13.03.26.07.37.06.8-.06 1.1-.8 1.22-1.43.1-.6-.03-1.15-.2-1.75a.2.2 0 0 1 .04-.15c.2-.25.33-.54.4-.86.14-.54-.1-1.15-.76-1.2-.1 0-.2.02-.33.05a6.2 6.2 0 0 1-.12.03l-.02-.02c-.52-1-1.28-1.7-2.48-1.8a4.1 4.1 0 0 0-2.83 1 2.36 2.36 0 0 0-.87 2.32l.08.34Zm5.97-1.4-.01-.02a3.55 3.55 0 0 0-1.12-1.51c-.84-.59-1.94-.54-2.87-.1C6.45 6.16 5.62 7 5.87 8.32a6.27 6.27 0 0 0 .22.89h-.03c-.36.11-.78.23-.74.67.03.48.6.83 1.07.93.02 0 .04.01.04.03.02.34-.02.6-.09.96-.05.3-.06.53.17.72.17.14.37.2.61.16.4-.05.8-.16 1.2-.32.1-.05.23 0 .37.04l.09.03c.76.22 1.37-.11 1.94-.55a4.86 4.86 0 0 1 .29-.2h.02c.69.43 1.2-.2 1.33-.77a3.68 3.68 0 0 0-.2-2.08l.03-.04c.27-.4.53-.77.48-1.25-.06-.6-.64-.6-1.02-.28h-.02a.04.04 0 0 1-.03 0Z" fill="#44FDFF"/><path d="M8.84 7.06c.3-.3.67-.62 1.08-.29a.93.93 0 0 1 .31.5v.01l-.02.01h-.02c-.42.02-.9-.08-1.33-.19-.03 0-.04-.02-.02-.04ZM8.22 7.3c-.21.3-.4.57-.59.8a1.8 1.8 0 0 1-.3.3.05.05 0 0 1-.05 0v-.02c-.16-.37-.11-1.1.45-1.13.17 0 .33 0 .48.03.02 0 .02.01.01.02Z" fill="#44FDFF"/><path d="M6.44 10.6c.1.01.16.02.2.04.01 0 .02 0 .03.02v.03c.02.34 0 .66-.05.95l-.02.08c-.07.32-.13.64.28.74.1.02.24.02.42-.02.32-.07.61-.16.9-.27.1-.04.25-.07.34-.04.53.18.9.24 1.39-.01.3-.16.6-.36.88-.6.15-.11.24-.07.39 0l.1.05c.18.08.35.05.5-.1.64-.65.39-1.79.14-2.53a.33.33 0 0 1-.02-.11c0-.06.01-.1.03-.11.2-.27.35-.5.44-.73.07-.2.12-.57-.11-.7-.16-.07-.34.06-.49.16l-.16.1c-.1.04-.16.02-.18-.04-.5-1.18-1.26-2.11-2.74-1.97-.57.06-1.25.36-1.73.71-.55.41-.9.89-.91 1.55 0 .48.12.92.27 1.4.01.04 0 .09-.02.13a.19.19 0 0 1-.11.09l-.1.03c-.32.09-.76.21-.47.64.18.27.45.44.8.5Zm1.99-3.58h.02L8.47 7c.4-.48 1-.96 1.64-.48.4.32.82 1.2-.2 1.08a11.88 11.88 0 0 1-1.32-.22 73.14 73.14 0 0 0-.57.73v.01c-.17.22-.55.74-.86.56a.4.4 0 0 1-.18-.2c-.18-.43-.14-1.09.29-1.39.32-.22.8-.17 1.16-.07Zm.74 1.93a.66.66 0 0 1-.53-.02c-.15-.07-.4-.25-.27-.42.03-.03.07-.05.14-.06h.01c.12-.01.27-.03.4-.08.11-.05.23-.14.32-.21l.01-.01c.06-.04.1-.06.14-.06.23.03.2.33.14.48a.61.61 0 0 1-.36.38Z" fill="#44FDFF"/><path fill-rule="evenodd" d="M9 14.65a5.65 5.65 0 1 0 0-11.3 5.65 5.65 0 0 0 0 11.3ZM9 15A6 6 0 1 0 9 3a6 6 0 0 0 0 12Z" fill="#44FDFF"/><defs><linearGradient id="a" x1="3.35" y1="3.12" x2="21.9" y2="24.43" gradientUnits="userSpaceOnUse"><stop stop-color="#1A1E21"/><stop offset="1" stop-color="#06060A"/></linearGradient></defs></svg>