<!-- by TradingView --><svg width="18" height="18" viewBox="0 0 18 18" xmlns="http://www.w3.org/2000/svg"><path fill="#F0F3FA" d="M0 0h18v18H0z"/><circle cx="9" cy="9" r="5" fill="#6F210D"/><circle cx="9" cy="9" r="4.41" fill="#7D2205"/><circle cx="9" cy="9" r="4" fill="#84290A"/><circle cx="9" cy="9" r="3" fill="#9A3717"/><circle cx="9" cy="9" r="2" fill="#B64F2E"/><path d="M7.82 11.94v.71l.22.12v-.42l.15.47h.22v-.8H8.2v.33l-.15-.36-.22-.05Z" fill="#571F10"/><path fill-rule="evenodd" d="M13.99 8.61c0-1.01-2.23-2.23-4.99-2.23-2.76 0-4.71.77-4.9 1.83-.09.35-.1.6-.1.99 0 1.01 2.24 1.83 5 1.83s5-.34 5-1.83v-.3l-.01-.29Zm-.03.04c0-.92-2.2-2.08-4.96-2.08h-.02c-2.76 0-4.66.68-4.85 1.64a2.55 2.55 0 0 0-.07.83c0 .93 2.16 1.76 4.92 1.76H9c2.76 0 4.96-.3 4.96-1.66v-.49Z" fill="#371F16"/><path fill-rule="evenodd" d="m5.18 9.12.14.6.39-.14c.08-.03.25-.14.25-.4 0-.14-.22-.62-.32-.84-.06-.12-.13-.35.07-.35s.7.1.91.16c.09.02.25.1.25.29 0 .22-.13.27-.41.27v-.37l-.26-.1v.47H6v.16h.2v.57l.26-.05v-.52h.34c.13 0 .38-.08.38-.43 0-.16-.12-.26-.18-.3l-1.3-.31c-.12-.02-.38.03-.38.32 0 .17.21.7.32.93.02.13.03.4-.15.4-.08 0-.24-.24-.31-.36Zm7.64-.62v-.44c-.14.03-.45.1-.53.1-.11.02-.36.25-.36.76 0 .63.26.83.4.86l.4.1.1-1.03-.28-.05v.5c0 .28-.05.37-.16.37-.16 0-.16-.27-.16-.72 0-.45.12-.7.32-.7.16 0 .25.17.27.25Zm-1.88.73-.05.16.25.02-.05-.15V8.6l.4.96h.3V8.18l-.22.06.05.08v.71l-.4-.76h-.33l.05.11v.85Zm-2.6-.97h.5l-.12.09v.76c.1.02.28.02.31-.15h.11v.3H8.3c.04 0 .12-.03.12-.12v-.8c0-.02-.03-.08-.07-.08Zm.92.06h.51c.16 0 .47.09.47.47s-.38.47-.47.47h-.5v-.94Zm.33.12a2 2 0 0 0 .2 0c.06 0 .18.06.18.35 0 .28-.15.35-.18.35h-.2v-.7Zm-2.15-.29.4.1.27.86.12.13h-.5l.07-.09-.05-.2h-.38l-.1.24.08.12h-.3l.09-.12.32-.91-.02-.13Zm-.02.69h.3l-.11-.47-.2.47Zm3.25-.58h-.26v1h.26v-1Z" fill="url(#a)"/><path d="M9.04 11.94a4.56 4.56 0 0 1-2.1-.41l.13-.18c.2.12.89.38 1.97.38s1.74-.16 1.92-.23l.1.19c-.22.09-.92.25-2.02.25Z" fill="#371F16"/><path d="M8.7 12.82v-.78h.36c.05 0 .23.03.23.2 0 .13-.07.16-.1.16.03.02.1.08.1.2 0 .17-.15.22-.23.22h-.35Zm.19-.66h.13c.04 0 .08.04.08.08 0 .05-.04.09-.08.09h-.13v-.17Zm.13.34h-.13v.17h.13c.04 0 .08-.03.08-.08a.08.08 0 0 0-.08-.09ZM9.59 12.84h.3l.05-.16.22-.03.04.14h.28l-.22-.85-.32.05-.35.85Zm.5-.72.04.4h-.17l.12-.4Z" fill="#571F10"/><defs><linearGradient id="a" x1="5.18" y1="8.85" x2="12.82" y2="8.85" gradientUnits="userSpaceOnUse"><stop stop-color="#4F1706"/><stop offset=".45" stop-color="#854B37"/><stop offset="1" stop-color="#4E1300"/></linearGradient></defs></svg>