<!-- by TradingView --><svg width="18" height="18" viewBox="0 0 18 18" xmlns="http://www.w3.org/2000/svg"><path fill="#F0F3FA" d="M0 0h18v18H0z"/><path d="m11.92 9.5 1 1.7.44-.27L12.22 9l1.14-1.95-.45-.26-.99 1.7-2.45-4.2-.44.26L11.63 9l-2.6 4.44.44.26 2.45-4.2ZM8.7 6c-.16 0-.29.11-.29.25v3.5c0 .14.13.25.29.25.16 0 .3-.11.3-.25.2.16.44.25.7.25.72 0 1.3-.67 1.3-1.5S10.42 7 9.7 7c-.26 0-.5.1-.7.25v-1C9 6.1 8.86 6 8.7 6Zm1.72 2.5c0 .5-.32.9-.71.9C9.3 9.4 9 9 9 8.5s.3-.9.7-.9c.4 0 .72.4.72.9ZM7.6 10.75c0 .14-.13.25-.29.25-.16 0-.3-.11-.3-.25v-1c-.2.16-.44.25-.7.25C5.58 10 5 9.33 5 8.5S5.58 7 6.3 7c.26 0 .5.1.7.25 0-.14.14-.25.3-.25.16 0 .29.11.29.25v3.5ZM7 8.51v-.02c0-.5-.31-.89-.7-.89-.4 0-.72.4-.72.9s.32.9.72.9c.39 0 .7-.4.7-.9Z" fill="url(#a)"/><path fill-rule="evenodd" d="M9 14A5 5 0 1 0 9 4a5 5 0 0 0 0 10Zm0-.59A4.41 4.41 0 1 0 9 4.6a4.41 4.41 0 0 0 0 8.82Z" fill="#2D2D2D"/><defs><linearGradient id="a" x1="10.79" y1="4.29" x2="10.79" y2="13.69" gradientUnits="userSpaceOnUse"><stop stop-color="#039EE1"/><stop offset="1" stop-color="#D32D92"/></linearGradient></defs></svg>