<!-- by TradingView --><svg xmlns="http://www.w3.org/2000/svg" width="18" height="18" viewBox="0 0 18 18"><path fill="url(#aodyrgpth)" d="M0 0h18v18H0z"/><path d="M9.02 8.23a3.3 3.3 0 0 0-.9 2.46c.12.05.23.07.31.07.34.03.87-.14 1.06-.26.4-.25.6-.3.7-.25.12.06.13.22.13.39 0 .21 0 .45.06.66h.05c.12-.05.27-.09.33-.1l-.05.07c.43-.3.65-.29.87-.27a3.22 3.22 0 0 0 .27.02c.43-.62.56-1.36.51-1.84a5.17 5.17 0 0 0-.73-.68l-.79.04c-.02.16-.12.29-.42.27-.2-.01-.4-.15-.59-.29-.1-.06-.19-.13-.28-.17a1.64 1.64 0 0 0-.52-.13h-.01z" fill="#F9F9F9"/><path d="M8.12 10.7a3.3 3.3 0 0 1 .9-2.47v-.01l-.18-.01c-.51-.02-1.16.14-1.41.63-.14.24-.2.6-.04 1.08.16.45.47.67.73.77z" fill="#2C0218"/><ellipse rx=".26" ry=".43" transform="matrix(.91083 .41279 -.41624 .90926 9.91 10.31)" fill="#B39D7C"/><path d="M11.49 5.29c.57.1.59-.08.53-.18.22-.19-.37-.43-.5-.5a.93.93 0 0 1-.28-.25c-.07-.12.16-.2.4-.1.15.06.3.18.41.3.26.28.36.65.38.68.02.06.17.4.33.57l.73.72c.55.51.62.95.63 1.04.02.08.08.37.13.43l.1.16c.04.12.02.44.01.58a.8.8 0 0 1-.08.31l-.22.2c-.1.11-.16.26-.2.3-.03.05-.14.2-.24.27-.1.07-.21.1-.31.1s-.13 0-.27-.1c-.15-.1-.7-.65-.85-.83a5.18 5.18 0 0 0-.55-.49l-.8.04c-.02.16-.12.29-.42.27-.3-.02-.6-.33-.87-.46-.2-.11-.56-.14-.71-.14-.51-.02-1.16.14-1.41.63-.14.24-.2.6-.04 1.08.24.65.8.83 1.04.84.34.03.87-.14 1.06-.26.4-.25.6-.3.7-.25.12.06.13.22.13.39 0 .22 0 .46.06.68.12-.06.3-.1.38-.12.47-.33.64-.21.88-.2.09.02.16-.05.22-.06h.01c.16-.02.24-.02.26-.08.2.1.08.44.08.44l.18-.14c.13-.12.44-.26.76-.3.31-.02.4.34.4.53.02.28-.12.58-.27.8-.12.17-.27.35-.43.5-.22.2-.5.38-.77.48l-.55.1-.65.14c-.2.04-.67.11-.92.06-.3-.06-.55.06-.6.09-.06.02-.3.15-.53.23-.18.06-.24-.11-.25-.2-.01-.12-.1-.35-.28-.38-.23-.03-.5.19-.72.31a.96.96 0 0 1-.6.1c-.18-.02-.74-.24-.8-.53-.07-.28.16-.25.7-.23.54.02.89-.02 1.02-.15.12-.13.04-.46-.21-.63-.2-.14-.35-.11-.4-.08-.14.06-.28.07-.37-.05-.12-.15-.26-.45-.4-.64-.16-.24-.43-.31-.66-.34-.44-.04-.94.07-1.34-.14a.91.91 0 0 1-.36-.32c-.18-.23-.13-.44-.07-.48.4-.28 1.11.21 1.24.34.12.12.58.3.88-.02.3-.32.33-.78.2-.97-.1-.16-.35-.19-.46-.18-.15 0-.48-.03-.62-.27-.14-.25.08-.3.2-.29.15 0 .28.07.35.13.08.06.13.1.23.13.49.15.6-.1.58-.34-.02-.2-.22-.44-.32-.54-.36-.32-.75-.5-1.22-.48-.46.01-.79-.03-1.22-.2a.95.95 0 0 1-.54-.5c-.08-.3 0-.64.46-.53.6.14.64.4.92.58.27.16.26.02.22-.07-.01-.07.03-.05.03-.04.27.22.4.23.46.22.2-.03.2-.18.05-.29-.13-.07-.27-.1-.37-.2-.16-.16-.4-.5-.06-.66.42-.2.75.55.93.78.14.18.3.28.36.3.49.21 1 .1 1.2.02.35-.12.5-.33.54-.47.06-.23-.09-.43-.31-.43-.17 0-.34.02-.5 0a.42.42 0 0 1-.27-.1c-.07-.09-.16-.22-.11-.34.05-.14.43 0 .58.04.16.03.25-.12.38-.18.12-.05.26-.06.46 0 .29.07.47.01.22-.2-.26-.21-.71-.2-.96-.15-.2.05-.45.06-.55.06-.36 0-.65-.2-.75-.3-.27-.23-.14-.52.37-.52.11 0 .22.04.29.08l.3.15.18.07c.3.07.42 0 .5-.05.57-.36.96-.09 1.08 0 .37-.13.56.14.62.25.26-.04.38.04.49.14.13.12.25.2.41.28l.47.18c.23.06.51.06.42-.07-.07-.1 0-.11.04-.1z" fill="url(#bodyrgpth)"/><path d="M5.26 5.82c-.3-.3-.75-.04-.56.32a1 1 0 0 0 .45.43 1 1 0 0 1 .14.08c.12.08.17.2-.07.27.14.08.22.09.26.08.2-.03.2-.18.05-.29l-.14-.07a.59.59 0 0 1-.23-.14c-.16-.15-.4-.49-.06-.65.05-.02.1-.03.16-.03zM13.07 9.85c.1.08.35.2.61.02.15-.1.23-.22.31-.36l.11-.16c.06-.08.16-.22.25-.27.03-.02.06-.05.08-.14.03-.08.12-.52.03-.82l-.09-.15a1 1 0 0 1-.12-.37 1.66 1.66 0 0 0-.12-.43 4.4 4.4 0 0 0-.96-1.15 5.24 5.24 0 0 1-.43-.44c-.07-.1-.23-.4-.35-.71-.11-.32-.48-.78-.87-.86-.4-.07-.33.28-.3.32-.01-.1.2-.16.42-.07.15.06.3.18.41.3.23.25.34.57.37.66v.02c.03.06.18.4.34.57l.16.15.57.57c.55.51.62.95.63 1.04.02.08.08.37.13.43l.1.16c.04.12.02.44.01.58a.8.8 0 0 1-.08.31c-.04.03-.14.11-.22.2-.07.07-.12.16-.15.23a.57.57 0 0 1-.04.07c-.04.05-.15.2-.25.27s-.21.1-.31.1c-.09 0-.12 0-.23-.07z" fill="#300E00"/><path d="M12.02 5.11c.18-.16-.2-.35-.4-.45l-.1-.05a.93.93 0 0 1-.28-.25l-.01-.02c-.03.04-.04.1.02.21.08.14.23.22.39.3.16.07.3.12.38.26z" fill="#A36621"/><path d="M12.02 5.11c-.04.03-.2.08-.47.04-.07-.02-.18-.03-.11.06.02.03.03.05.02.07h.03c.57.1.59-.07.53-.17zM6.29 4.85c-.23-.23-.08-.49.4-.49.11 0 .22.04.29.08a5.22 5.22 0 0 0 .48.22c.3.07.42 0 .5-.05.55-.36.94-.1 1.07 0h.01c.37-.13.56.14.62.25.26-.04.38.04.49.14.13.11.25.2.41.28.16.07.34.14.47.17.23.07.51.07.42-.06a.21.21 0 0 1-.03-.05h-.02c-.1.03-.45 0-.98-.28a3 3 0 0 1-.33-.22.51.51 0 0 0-.5-.15c-.1-.15-.34-.4-.66-.27a.95.95 0 0 0-1.19.04c-.06.05-.31.1-.63-.05l-.39-.2c-.07-.05-.46-.15-.7.07-.1.07-.17.29.27.57zM7.94 6.07c.24.34-.29 1.05-1.57.85l.02.02c.5.2 1.01.09 1.2 0 .35-.11.5-.32.54-.46.05-.19-.04-.35-.19-.4z" fill="#300E00"/><path d="M5 6.86l-.23-.16c-.09-.08-.08 0-.07.05l.02.1.05.04c.23.14.25.06.23-.03z" fill="#592020"/><path d="M3.8 6.3c-.33-.17-.74-.2-.8.12-.04.27.1.5.3.66.19.16.5.32.93.37l-.3-.1a.95.95 0 0 1-.54-.52c-.08-.28 0-.6.4-.53zM5.45 7.56c.72.28.97.75 1.02.95.03.1.05.34-.21.42.36.07.45-.16.43-.37-.02-.2-.22-.44-.32-.53a1.74 1.74 0 0 0-.92-.47zM5.4 8.66c-.16-.05-.4-.06-.38.16.02.18.24.3.39.34.09.03.18.04.28.04.1.01.2.02.31.05.16.06.23.2.25.35a.94.94 0 0 1-.43.93c.14 0 .28-.06.4-.18.3-.32.32-.78.2-.97-.1-.16-.36-.19-.47-.18-.15 0-.48-.03-.62-.27-.1-.17-.03-.24.07-.27zM4.16 10c-.2-.04-.53-.01-.43.34a.9.9 0 0 0 .42.54c.24.14.59.17.87.17h.15c.31-.01.67-.02.92.15.09.05.18.14.27.28l.28.5.01.01c.05.07.16.24.35.18.21-.08.37-.08.56.07.18.14.25.36.22.54.05-.02.09-.04.12-.07.12-.13.04-.46-.21-.64-.2-.14-.35-.1-.4-.07-.14.06-.28.07-.37-.05a2.6 2.6 0 0 1-.22-.36l-.17-.28c-.17-.24-.44-.31-.67-.34h-.45c-.3 0-.62 0-.9-.14a.91.91 0 0 1-.35-.32c-.18-.23-.13-.44-.07-.48a.43.43 0 0 1 .07-.04z" fill="#300E00"/><path d="M6.16 13.02c-.38-.01-.27.38.17.65.1.06.36.19.64.16.28-.02.54-.18.64-.25.17-.12.56-.32.73-.08.05.1.09.19.12.29.03.09.08.2.13.2.05.02.18 0 .36-.1.23-.13.55-.23.64-.24.1-.02.25 0 .3 0 .35.05.71-.01 1.06-.08a181.5 181.5 0 0 0 1.13-.21c.15-.06.33-.14.48-.24.14-.1.36-.28.45-.39.03-.01.31-.36.38-.5l.03-.03c.07-.13.17-.3.2-.5.04-.2.01-.54-.18-.7.08.12.1.29.1.4.03.27-.11.57-.26.78-.12.18-.27.35-.43.5-.22.21-.5.39-.77.49l-.55.1-.65.14c-.2.04-.67.11-.92.06a.98.98 0 0 0-.6.08l-.07.04-.46.2c-.18.06-.24-.11-.25-.2-.01-.12-.1-.35-.28-.38-.17-.02-.37.1-.55.21l-.17.1a.96.96 0 0 1-.6.1c-.18-.02-.74-.25-.8-.53a.4.4 0 0 1-.02-.07z" fill="#300E00"/><ellipse rx=".3" ry=".48" transform="matrix(.9296 .36855 -.37176 .92833 11.67 10.3)" fill="#B39D7C"/><ellipse rx=".2" ry=".25" transform="rotate(19.38 -20.62 37.37) skewX(-.18)" fill="#B39D7C"/><ellipse rx=".28" ry=".14" transform="matrix(.71416 -.69998 .70356 .71063 8.9 9.35)" fill="#B39D7C"/><path d="M12.45 9.34c.04.38.1.93-.22 1.63.02.07 0 .14 0 .2.38-.65.35-1.2.32-1.66v-.14l-.1-.11a7 7 0 0 0 0 .08z" fill="#524D44"/><path d="M10.51 6c-.03-.1-.04-.27.1-.16l.09.11a6.7 6.7 0 0 0 1.97 1.58c-.12 0-.24-.03-.31-.04-.14.5-.41 1.11-1 1.19-.3.04-.54-.05-.62-.1.35.06.48.01.58-.02-.62.1-1.23-.41-1.2-1.04.02-.36.23-.83.6-1.14a1.76 1.76 0 0 1-.2-.37z" fill="#2C0218"/><path d="M10.92 6.33c.44.58 1.2 1 1.63 1.18a3.37 3.37 0 0 1-1.24-.63c-.3-.25-.56-.54-.74-.88-.02-.03-.07-.1-.05-.13.02-.03.07.02.1.06l.3.4z" fill="#6D0218"/><path d="M10.96 6.55c-.38.17-.57.54-.58.73-.01.09 0 .29.13.42.3.28.84.42 1.23.37.14-.03.28-.1.38-.34.02-.07.07-.24.07-.34a3.32 3.32 0 0 1-1.23-.84z" fill="#F7E7A1"/><path d="M10.29 7.64c.24.3.89.7 1.66.52a.95.95 0 0 1-1.66-.52z" fill="#6D0218"/><path d="M10.53 7.95c.15.09.37.2.48.23.1.04.36.1.56.1.05 0 .07.06.03.08-.1.07-.28.13-.61.05a.8.8 0 0 1-.52-.4c-.02-.05.03-.08.06-.06z" fill="#F78700"/><path d="M11.6 7.43c0 .19-.16.34-.35.34a.35.35 0 0 1-.35-.34c0-.2.16-.35.35-.35.2 0 .35.16.35.35z" fill="#FAA916"/><path fill-rule="evenodd" d="M11.25 7.72a.3.3 0 0 0 .3-.3.3.3 0 0 0-.3-.29.3.3 0 0 0-.3.3c0 .16.14.3.3.3zm0 .05c.2 0 .35-.15.35-.34a.35.35 0 0 0-.35-.35c-.2 0-.35.16-.35.35 0 .19.16.34.35.34z" fill="#BA5000"/><ellipse cx="11.25" cy="7.41" rx=".18" ry=".2" fill="#7D3400"/><path d="M9.49 8.31c0 .1 0 .23.03.35.05.22.02.3 0 .36a2 2 0 0 1-.18.24c-.02.03-.05.08 0 .12.07.05.13-.1.15-.15.1-.25.2-.29.51-.27-.06.08-.16.25 0 .3.03 0 .11-.01.08-.15-.04-.1 0-.2.05-.28l.06-.09a2.47 2.47 0 0 1-.36-.22 2.5 2.5 0 0 0-.34-.2z" fill="#6D0218"/><path d="M9.66 8.44c.1.08.35.25.45.29-.26.2-.42-.1-.45-.3z" fill="#C50005"/><path d="M12.45 9.34c.04.38.1.93-.22 1.63-.01-.05-.04-.08-.1-.12a.19.19 0 0 0-.15 0l-.03.02c.35-.59.45-1.25.42-1.7l.07.09a7 7 0 0 0 0 .08z" fill="#BCAF9A"/><path d="M10.25 10.6c0-.46-.34-.31-.5-.22-.1.06-.37.2-.69.32-.31.12-.6.14-.7.14a1.35 1.35 0 0 1-.83-.36c-.24-.24-.38-.7-.41-.94l.17-.01c.03.3.24.96.82 1.16.59.2 1.3-.13 1.6-.32.12-.08.4-.23.53-.08.05.05.08.15.08.32 0 .2.01.42.04.62 0 .07.04.22.12.3.09.1.25.15.43.12.18-.04.35-.2.37-.22l.25-.26.16-.16c.25-.28.38.03.4.1.03.1.08.24.11.26.17.12.34-.07.41-.16.02-.03.16-.24.26-.34.15-.16.43-.05.54.1-.1-.1-.27-.1-.34-.1-.26.04-.35.46-.56.59-.12.06-.26.08-.33-.06l-.12-.3c-.13-.2-.27-.12-.32-.05-.19.18-.35.42-.56.57a.7.7 0 0 1-.45.13c-.41-.02-.44-.47-.45-.53l-.03-.63z" fill="url(#codyrgpth)"/><path d="M11.61 11.09l-.03.04c-.07-.03-.26-.04-.48.12-.05.03-.17.1-.25.13-.05 0-.17.02-.21.05l-.14.13-.02-.03c.09.1.25.15.43.12.18-.04.35-.2.37-.22l.12-.13.13-.13.08-.08z" fill="url(#dodyrgpth)"/><path d="M11.69 11.01h-.03c-.5-.1-.82.09-.92.2-.12 0-.2.04-.22.06-.08 0-.13.04-.14.06v.01a.53.53 0 0 0 .12.22l.14-.13c.04-.03.16-.05.21-.05.08-.02.2-.1.25-.13.22-.16.4-.15.48-.12a339.17 339.17 0 0 1 .1-.12z" fill="#C50005"/><path d="M8.42 12.77c-.3.05-.41-.03-.43-.08a.37.37 0 0 1 .05-.31.95.95 0 0 1 .42-.3c.37-.14.8-.06.87-.03.04.01.1.12.13.13.03.02.25.08.24.12 0 .04-.04.06-.13.16-.1.1-.37.2-.44.23-.07.02-.34.01-.71.08z" fill="#F82D00"/><path opacity=".6" d="M7.49 13.43c.26-.2.54-.27.66-.29.01 0 .02 0 .01-.02a.77.77 0 0 0-.12-.18 1.84 1.84 0 0 0-.62-.04c-.3.03-.7.23-.77.26-.03.01-.04.03-.04.04 0 .04.04.1.05.13.05.06.12.14.3.2.22.1.44-.03.53-.1z" fill="#F63300"/><path d="M8.87 11.8a5.7 5.7 0 0 0 1.2-.25l.16-.07a.5.5 0 0 0 0-.2l-.1-.42a8.48 8.48 0 0 0-.1-.34.92.92 0 0 0-.1.03 1.98 1.98 0 0 0-.66.46c-.16.11-.34.25-.54.3-.13.03-.26.02-.29.03-.08 0-.3.14-.29.34.01.2.2.18.25.18.05 0 .05-.04.47-.06z" fill="#FA3A00"/><path d="M6.83 11.54c-.09-.09-.16-.22-.19-.28-.05-.15.16-.33.4-.21.24.12.46.17.62.23.16.05.13.17.1.3-.02.14-.2.2-.3.25a.53.53 0 0 1-.4.01c-.15-.06-.13-.18-.23-.3z" fill="#FA5B00"/><path d="M4.56 10.47l-.13-.2c-.02-.1.13-.11.28-.11.14 0 .23.04.28.13l.08.11c.04.04.08.07.1.13.02.1-.1.12-.18.12-.08 0-.24.01-.28 0-.06-.02-.09-.1-.15-.18z" fill="#FA7700"/><path d="M10.3 11.35l-.32-.38c-.16-.16-.21-.45-.22-.6l-.01.01-.09.05c.02.38.08.48.13.57l.03.05c.03.05.06.1.1.13.04.06.1.12.13.21.05.12.04.26.03.33v.05c0 .05-.01.27.26.32.22.05.46-.06.55-.12.14 0 .22.15.24.23 0 .07.1.13.14.15.13.09.16.18.18.27.02.1.02.21-.02.3-.05.1-.11.14-.16.17l-.04.03a.36.36 0 0 0-.12.08c-.05.05-.03.1-.02.12.08.08.19-.06.21-.1l.1-.17.04-.04a.88.88 0 0 0 .11-.17c.02-.04.02-.1.01-.15v-.11c0-.09.08-.08.13-.06l.06.02a.1.1 0 0 0 .03.02.1.1 0 0 0 .05-.01h.02a.34.34 0 0 1 .17-.02c.07.04.16.04.19.04.13-.05.13-.15.13-.25 0-.09.03-.11.05-.13.02-.02.18-.17.33-.18.14 0 .18-.06.2-.1h.01l.05-.03.06-.06-.02-.23v-.02a1.7 1.7 0 0 1-.03-.3l.09.02c0 .07 0 .22.03.33.02.11 0 .2-.02.24a.5.5 0 0 0-.02.2c.02.1.14.1.23.1l.11-.2-.01-.16-.02-.2c0-.03.01-.05.03-.08l.01-.05c.01-.03-.02-.1-.03-.14v-.02a3.39 3.39 0 0 1-.05-.39.47.47 0 0 0-.22-.05h-.05a.74.74 0 0 0-.19.5v.05l.02.2c0 .14-.05.17-.07.19l-.04.01a.4.4 0 0 0-.13.07.21.21 0 0 1-.13.06 1.4 1.4 0 0 0-.52.12l-.14.08a1.1 1.1 0 0 1-.06.03c-.15.05-.2 0-.24-.04a.26.26 0 0 0-.04-.03.68.68 0 0 0-.21-.05c-.2-.06-.24-.16-.26-.23l-.02-.05a.14.14 0 0 0-.06-.06.65.65 0 0 1-.25.03c-.3-.01-.4-.25-.43-.4z" fill="url(#eodyrgpth)"/><path d="M7.45 10.78c.15 0 .2-.15.22-.22a.17.17 0 0 0-.16-.15 1.1 1.1 0 0 0-.36.05c-.15-.1-.31-.56-.28-.6l.04-.1a.14.14 0 0 1 .07-.1c.1-.06.16-.15.17-.2 0-.03-.04-.07-.06-.08 0 0-.12-.63.33-.83-.23 0-.47.1-.5.42-.05.3.07.5.06.5h-.11c-.17.01-.21.13-.25.16a.2.2 0 0 0-.05.05c-.02.04 0 .08.02.1.01.05.02.17.05.22.02.04 0 .04.1.24.1.2.25.34.33.38l.19.1c.09.04.1.06.19.06z" fill="#6D0218"/><path d="M6.98 8.33c.56.37.74.11.73-.06.16-.03.15-.24.12-.3-.02-.06-.14-.17-.33-.24-.2-.06-.5-.07-.72-.02-.23.05-.17.27-.15.3.06.17.21.24.35.32z" fill="#FAAB00"/><path d="M5.91 7.7c.33.18.48.11.5.05.14-.13.3-.38.09-.6-.2-.2-.68-.13-.78-.11a.57.57 0 0 0-.24.1c-.06.05-.14.15-.08.26.05.11.12.1.24.15.09.03.22.1.27.14z" fill="#FAAD00"/><path d="M4 6.62c-.23-.04-.3.16-.3.27 0 .29.27.43.51.5.34.07.68 0 .81-.06-.08-.1-.17-.1-.18-.11 0-.02-.12-.16-.35-.37a.96.96 0 0 0-.5-.23z" fill="#FAA800"/><path d="M9.08 6.63c-.14.29-.36.32-.45.3.2.02.36-.31.41-.48.03-.08.07-.2.14-.25.12-.1.26-.07.38.01.1.08.17.19.23.3.08.17.12.46.11.52 0 .07-.15.11-.22.17-.07.04-.03.13 0 .17.04.1.1.17.14.27.05.14.05.31.04.38-.03-.26-.1-.25-.13-.28-.02-.03 0-.1-.01-.15-.01-.06-.04-.1-.16-.2-.12-.12-.05-.43-.04-.51.02-.09.05-.42.03-.5-.02-.06-.08-.1-.14-.1-.08-.02-.15.03-.2.1l-.13.25z" fill="#6C0214"/><path d="M13.53 9.46c-.12.17-.37.13-.47.08a.2.2 0 0 0-.02.04c0 .05.03.07.06.1.14.12.36.18.46.2 0-.1.04-.15.08-.22a.6.6 0 0 0 .04-.29c0-.1-.1-.37-.1-.4l-.12-.3-.28-.7c-.02-.05 0-.21.3-.3a.92.92 0 0 1 .3-.05c.23 0 .39.21.46.42v-.18c-.02-.1-.24-.25-.45-.27-.21 0-.45.1-.58.12-.13.02-.64-.03-.7-.05a1.74 1.74 0 0 1-.18-.09l-.02.08c.04 0 .13 0 .24.04.06.02.14.08.22.16.15.13.3.26.41.43.1.16.2.37.25.5.07.16.22.5.1.68z" fill="#FEA13B"/><defs><linearGradient id="aodyrgpth" x1="1.61" y1="4.5" x2="14.63" y2="15.27" gradientUnits="userSpaceOnUse"><stop stop-color="#752111"/><stop offset="1" stop-color="#7C210F"/></linearGradient><linearGradient id="bodyrgpth" x1="3.37" y1="7.43" x2="14.38" y2="8.82" gradientUnits="userSpaceOnUse"><stop offset=".04" stop-color="#FFFB00"/><stop offset=".34" stop-color="#FFDA01"/><stop offset=".56" stop-color="#FF7D00"/><stop offset="1" stop-color="#F90000"/></linearGradient><linearGradient id="codyrgpth" x1="13.42" y1="10.91" x2="6.97" y2="10.19" gradientUnits="userSpaceOnUse"><stop stop-color="#CA8021"/><stop offset="1" stop-color="#FFD601"/></linearGradient><linearGradient id="dodyrgpth" x1="11.49" y1="11.17" x2="10.55" y2="11.6" gradientUnits="userSpaceOnUse"><stop stop-color="#F63D00"/><stop offset="1" stop-color="#F98D00"/></linearGradient><linearGradient id="eodyrgpth" x1="8.84" y1="11.25" x2="13.88" y2="11.86" gradientUnits="userSpaceOnUse"><stop offset=".6" stop-color="#C50005"/><stop offset=".86" stop-color="#810000"/></linearGradient></defs></svg>