<!-- by TradingView --><svg width="18" height="18" viewBox="0 0 18 18" xmlns="http://www.w3.org/2000/svg"><path fill="#000957" d="M0 0h18v18H0z"/><path d="M9 13.24a4.24 4.24 0 0 0 4.16-5.05c-.06.16-.16.3-.29.43L9 12.35 5.09 8.58c-.11-.12-.2-.25-.25-.4A4.26 4.26 0 0 0 9 13.25ZM5.45 6.69a4.23 4.23 0 0 1 7.1 0 1 1 0 0 0-1.07.2L9 9.36 6.56 6.94a1 1 0 0 0-1.11-.25Zm6.82 1.37L9 11.29 5.72 8.05c-.14-.14-.27-.43-.13-.58.07-.08.27-.08.34 0L9 10.41l3.08-2.95c.08-.07.3-.07.37.01.14.17-.04.46-.18.59Z" fill="url(#a1wm3e2na)"/><path fill-rule="evenodd" d="M9 14.5c3.16 0 5.5-2.34 5.5-5.5S12.16 3.5 9 3.5A5.35 5.35 0 0 0 3.5 9c0 3.16 2.34 5.5 5.5 5.5Zm0 .5A6 6 0 1 0 9 3a6 6 0 0 0 0 12Z" fill="url(#b1wm3e2na)"/><defs><linearGradient id="a1wm3e2na" x1="9.93" y1="4.76" x2="7.01" y2="12.71" gradientUnits="userSpaceOnUse"><stop stop-color="#C769E7"/><stop offset="1" stop-color="#6DECF6"/></linearGradient><linearGradient id="b1wm3e2na" x1="11.45" y1="3.68" x2="6.82" y2="14.18" gradientUnits="userSpaceOnUse"><stop stop-color="#E6ACF9"/><stop offset="1" stop-color="#72EFF4"/></linearGradient></defs></svg>