<!-- by TradingView --><svg width="18" height="18" viewBox="0 0 18 18" xmlns="http://www.w3.org/2000/svg"><path fill="#181B1E" d="M0 0h18v18H0z"/><path fill-rule="evenodd" d="M9 14A5 5 0 1 0 9 4a5 5 0 0 0 0 10Zm0-.23a4.77 4.77 0 1 0 0-9.54 4.77 4.77 0 0 0 0 9.54Z" fill="#fff"/><path fill-rule="evenodd" d="M9 12.53a3.53 3.53 0 1 0 0-7.06 3.53 3.53 0 0 0 0 7.06Zm0-.23a3.3 3.3 0 1 0 0-6.6 3.3 3.3 0 0 0 0 6.6Z" fill="#fff"/><path d="M8.66 6.92h.01l.08-.62a.6.6 0 0 1 .1-.28c0-.02.02-.02.04-.02a.4.4 0 0 1 .15.07l1.06.86c.36.3.73.67 1.03 1.07A8.26 8.26 0 0 1 12 9.43v.01h-.02l-.17-.28-.46-.72a5.6 5.6 0 0 0-.9-1A32.9 32.9 0 0 0 9.19 6.4c-.04-.01-.04 0-.02.04.13.2.24.4.27.66.03.28-.2.4-.41.42l-.5.1c-.07.01-.17.07-.29.14-.3.2-.53.45-.72.76a.65.65 0 0 0-.1.3c0 .1.04.25.05.35.01.12 0 .22-.03.3l-.17.37a1.5 1.5 0 0 0-.09.2v.01l.02.01h.01l.2-.01h.01l.02.01.01.02v.03c0 .04 0 .08-.03.12l-.14.3c-.05.15.02.2.12.29.16.13.34.23.52.3.25.1.54.03.78-.1a.02.02 0 0 0 0-.02l-.18-.26a.02.02 0 0 1 0-.01v-.01h.02l.01.01.21.24c.01.02.03.02.05.01l.26-.15v-.01a.03.03 0 0 0 0-.03l-.4-.3v-.01l.01-.01h.01l.43.28a.04.04 0 0 0 .06 0l.01-.02c.01-.03.03-.04.07-.04v.02l-.06.06a.03.03 0 0 0 0 .03v.01a5.48 5.48 0 0 1 1.1 1.19h-.01l-.68-.73a6.17 6.17 0 0 0-.5-.42 1.01 1.01 0 0 1-.27.2.02.02 0 0 0 0 .02 4.6 4.6 0 0 1 .48.93V12H9.3c-.13-.22-.25-.46-.4-.7l-.14-.21h-.02c-.17.07-.35.12-.53.14-.21.02-.4 0-.56-.16a1.8 1.8 0 0 0-.25-.18.8.8 0 0 1-.17-.13 1.53 1.53 0 0 1-.2-.3.33.33 0 0 1 0-.33c.16-.28.27-.58.29-.9l.01-.27c.02-.29.11-.53.28-.72a3.26 3.26 0 0 1 .69-.6c.17-.12.28-.23.33-.45 0-.04 0-.07-.04-.1a4.5 4.5 0 0 0-.57-.34c-.08-.04-.14-.07-.22-.08h-.02v.03c0 .16.03.33.1.5a3.52 3.52 0 0 0 .15.35h-.01a4.61 4.61 0 0 1-.4-.98c0-.05.02-.07.07-.06.1.02.2.05.32.1l.64.31Z" fill="#FFA456"/><path d="m8.55 9.08-.09.13c-.08.15-.34.36-.47.16a8.52 8.52 0 0 1-.15-.3h.01c.21-.1.49-.08.72-.03v.02l-.02.02ZM8.7 10.25c.34.1.64.27.92.52a5.6 5.6 0 0 1 .4.4l-.04-.02c-.22-.2-.4-.33-.5-.42a3.7 3.7 0 0 0-.79-.47l.02-.01Z" fill="#FFA456"/><path d="M5 9.59a.3.3 0 1 1-.59 0 .3.3 0 0 1 .59 0Z" fill="#F98827"/><circle cx="13.29" cy="9.59" r=".29" fill="#F98827"/><path d="M7.86 4.74c.76-.2 1.57-.2 2.33.01l-.15.55A3.85 3.85 0 0 0 8 5.28l-.14-.54ZM11.71 12.48a4.41 4.41 0 0 1-5.4.02l.35-.45a3.85 3.85 0 0 0 4.7-.02l.35.45Z" fill="#F98827" fill-opacity=".6"/></svg>