<!-- by TradingView --><svg width="18" height="18" viewBox="0 0 18 18" xmlns="http://www.w3.org/2000/svg"><path fill="#0083EB" d="M0 0h18v18H0z"/><path d="M9.03 4.01c.1 0 3.13-.33 4 2.7 0 0 .97.37.97 1.38v1.04c-.05.54-.28.97-1.1 1.25 0 0-.26.7-.54 1.04 0 0 .28.3.28.57 0 .27-1.05 1.59-3.29 1.76h-.7c-2.24-.17-3.3-1.49-3.3-1.76s.3-.57.3-.57a5.01 5.01 0 0 1-.55-1.04c-.99-.33-1.1-.9-1.1-1.59v-.7c0-1.01 1-1.37 1-1.37C5.93 3.68 8.94 4 9.03 4Z" fill="#020C84"/><path d="M4.88 7.27s-.23 1.6.06 2.6c0 0-.63-.2-.63-.96 0-.74.03-1.39.57-1.64ZM13.12 7.27s.23 1.6-.06 2.6c0 0 .63-.2.63-.96 0-.74-.03-1.39-.57-1.64Z" fill="#DCFFFC"/><path d="M5.86 6.61S5.7 7.14 5.73 8h-.48c.03-.33.06-.66.15-1.09l.46-.3ZM5.8 9c.06.5.18.93.39 1.52 0 0-.49-.1-.64-.23 0 0-.24-.36-.3-1.29h.55Z" fill="#BEDBDF"/><path d="M6 11s2.97 1.27 6 0c-.03 0-2.79 3.32-6 0Z" fill="#DCFFFC"/><path d="M12.15 6.61s.15.53.12 1.39h.48a8.65 8.65 0 0 0-.15-1.09l-.45-.3ZM12.2 9c-.06.5-.19.93-.4 1.52 0 0 .49-.1.64-.23 0 0 .24-.36.3-1.29h-.54Z" fill="#BEDBDF"/><path d="M6.23 12s.8 1 2.84 1 2.61-1 2.61-1l.32.3s-.98 1.15-2.93 1.15c-1.95 0-3.07-1.2-3.07-1.2l.23-.25ZM5.88 6.26s3.14-2.15 6.19 0c0 0-.43-1.92-3.02-1.92S5.88 6.26 5.88 6.26Z" fill="#DCFFFC"/><path d="M10.81 5.58A3.56 3.56 0 0 0 8.7 4.34h.37c2.63 0 3.07 1.95 3.07 1.95-.41-.32-.88-.55-1.32-.7Z" fill="#9DAFC5"/><path d="M6.22 6.67s2.69-1.5 5.59 0c0 0 .56 2.07-.25 3.7 0 0-2 1.2-4.97.29 0-.03-1.03-1.76-.37-3.99Z" fill="#1943A5"/><path d="M10.75 6.23c.18.27.35.67.35 1.26 0 .1 0 .22-.02.34-.16 1.23-1.67 2.6-3.64 3.02 2.5.47 4.12-.48 4.12-.48.81-1.63.25-3.7.25-3.7-.34-.19-.72-.31-1.06-.44Z" fill="#123696"/><path d="M11.06 8.24c.1.2.13.43.13.65 0 .88-.7 1.63-1.6 1.63-.33 0-.65-.1-.9-.29h.19c1.12 0 2.05-.88 2.18-1.99ZM8.06 6.29c.52 0 .94.44.94.98s-.42.97-.94.97a.96.96 0 0 1-.93-.97c0-.54.42-.98.93-.98Z" fill="#7890CC"/><path d="M2 6.72s.48-1.05 3.58-1.05S16 6.13 16 7.83c0 .55-.83.82-2 .97v-.33c.57-.06 1-.22 1-.43 0-.94-6.57-1.51-9.1-1.51-2.53 0-2.9.45-2.9.45 0 .26.55.63 1.03.78L4 8.15c-.63-.18-2-.4-2-1.43Z" fill="url(#andr1robo)"/><defs><linearGradient id="andr1robo" x1="16.16" y1="7.52" x2="2.16" y2="6.99" gradientUnits="userSpaceOnUse"><stop stop-color="#FF901D"/><stop offset="1" stop-color="#F3D911"/></linearGradient></defs></svg>