<!-- by TradingView --><svg width="18" height="18" viewBox="0 0 18 18" xmlns="http://www.w3.org/2000/svg"><path fill="#F0F3FA" d="M0 0h18v18H0z"/><path d="M14.25 9a5.25 5.25 0 1 1-2.04-4.16c.16.13.4.12.53-.03a.36.36 0 0 0-.03-.53 6 6 0 1 0 1.82 2.38c-.1-.23-.4-.28-.58-.1a.4.4 0 0 0-.1.44c.26.62.4 1.3.4 2Z"/><path d="M14.25 3.99c.18.1.24.33.14.5l-3.75 6.57a.38.38 0 0 1-.65 0l-2-3.37a.37.37 0 1 1 .65-.38l1.67 2.82 3.43-6c.1-.18.33-.25.5-.14Zm-9 3.19c.18-.1.4-.05.51.13l2.06 3.56a.37.37 0 1 1-.64.38L5.1 7.69a.37.37 0 0 1 .14-.51Z"/></svg>