<!-- by TradingView --><svg width="18" height="18" viewBox="0 0 18 18" xmlns="http://www.w3.org/2000/svg"><path fill="url(#a)" d="M0 0h18v18H0z"/><path d="M9.9 4.47v.02h-.02l-.32-.03v.02l.32.04h.03v-.06l-.03-.06c0-.02 0-.02.02-.02a3.54 3.54 0 0 1 .73.32h.03v-.01l.45-.55h.01c.04-.02.08 0 .13.04.1.1.15.21.16.33a.33.33 0 0 1-.2-.11.51.51 0 0 1-.06-.1c-.02-.03-.03-.02-.03 0l-.17.55h-.04a.25.25 0 0 0-.06-.03v.02l.37.3c.33.3.58.65.77 1.05l-.39.11a171.4 171.4 0 0 1-.3-.65c-.2-.28-.54-.48-1.01-.62a4.9 4.9 0 0 0-1.8-.15c-.2.03-.46.09-.76.16a2.3 2.3 0 0 0-1.18.63c-.1.1-.17.23-.23.38-.13.28-.2.58-.22.9a1.24 1.24 0 0 0-.5-.06 3.34 3.34 0 0 1 1.01-1.75l.4-.33V4.8a.17.17 0 0 1-.09.02L6.9 4.8l-.19-.5h-.03a.84.84 0 0 1-.25.22c-.02-.11.03-.22.14-.33a.25.25 0 0 1 .08-.06c.03 0 .05 0 .07.02a4.12 4.12 0 0 0 .48.55 3.86 3.86 0 0 1 .75-.31l-.04.13 1.12-.05a9.23 9.23 0 0 1-.54 0 26.49 26.49 0 0 0-.55 0l.31-.35a.24.24 0 0 1 .15-.08c.37-.06.73-.05 1.07.01.04.01.07.03.1.07a44.4 44.4 0 0 1 .32.35Z" fill="#A4FBDC"/><path d="m11.4 4.5-.18.64-.37-.3v-.01l.06.02h.04l.16-.55c.01-.02.02-.03.04 0l.07.1c.05.06.1.1.19.1ZM6.61 5.14l-.18-.62c.1-.06.18-.13.25-.22h.03l.2.5.01.02L7 4.8h.01v.01l-.4.33ZM11.6 6.3c.1.3.14.61.14.93 0 .23-.02.44-.07.63a.28.28 0 0 1-.08.12c-.1.1-.22.19-.32.24l-.16.1-.05.01a.21.21 0 0 0-.05.02.25.25 0 0 1-.14.04l.3-.17c.14-.1.24-.23.3-.4.03-.1.05-.23.06-.36.02-.3 0-.61-.07-.95-.05-.22-.12-.4-.21-.57-.1-.15-.24-.28-.45-.4-.17-.1-.37-.19-.58-.25a5.91 5.91 0 0 0-1.6-.18c-.33.03-.6.08-.83.13-.3.07-.55.17-.76.29-.18.1-.32.22-.4.35-.11.15-.2.34-.24.55a3.75 3.75 0 0 0-.06 1.3c.04.17.12.3.25.42l.24.16v.03H6.76l.1.04a.38.38 0 0 1-.1-.03 1.83 1.83 0 0 0-.08-.05 1.19 1.19 0 0 1-.33-.2.6.6 0 0 1-.2-.35 2.8 2.8 0 0 1 .16-1.7c.07-.15.15-.28.24-.38.25-.28.65-.5 1.18-.63.3-.07.55-.13.76-.16a4.9 4.9 0 0 1 1.8.15c.47.14.8.34 1.01.62l.13.24.1.24.07.17Z" fill="#428388"/><path d="m9.86 5.27-.3.03a36.47 36.47 0 0 1-.92.01L8 5.4l.3-.06v-.01a.76.76 0 0 0-.34.07l-.17.06-.28.1a2.42 2.42 0 0 0-.69.5c-.16.17-.27.4-.34.7l-.1.38a1 1 0 0 0 .22.7h-.01c0 .01 0 0 0 0a.98.98 0 0 0-.22-.25c-.04-.41 0-.82.1-1.22a.58.58 0 0 0 .18-.19L6.76 6c.04-.06.1-.1.14-.15a2.12 2.12 0 0 1 .56-.33 6.88 6.88 0 0 1 .58-.26c.16-.04.35-.06.57-.09.18-.02.36-.02.53 0 .25.02.48.05.72.1Z" fill="#B9B6AF"/><path d="M8.04 5.26a7.91 7.91 0 0 1-.58.26l-.22.1c-.08.04-.2.12-.34.23a.78.78 0 0 0-.14.15 2.49 2.49 0 0 0-.14.21.58.58 0 0 1-.14.15c.06-.32.23-.56.5-.73.3-.19.66-.31 1.06-.37Z" fill="#A79F92"/><path d="M11.24 6.06a3.8 3.8 0 0 0-.64.09.58.58 0 0 0-.24-.22.5.5 0 0 0-.32-.04.6.6 0 0 0-.29.16.87.87 0 0 0-.2.26c-.06.13-.1.26-.11.4-.16.1-.32.23-.45.36a40.78 40.78 0 0 1-.97.88 1 1 0 0 1-1.08.09 1.44 1.44 0 0 1-.35-.26.92.92 0 0 1-.15-.77l.04-.27a1.48 1.48 0 0 1 .66-.96c.1-.09.23-.16.37-.23l.28-.1.17-.06H8l.64-.08.43-.01a36.31 36.31 0 0 0 .8-.03c.34.06.65.18.94.35.2.1.33.26.43.44Z" fill="#C6C8C3"/><path d="M8.34 6.86c.01-.17-.02-.33-.08-.49a.87.87 0 0 0-.31-.39c-.2-.13-.4-.14-.6-.01a.52.52 0 0 0-.14.15.73.73 0 0 0-.1.18c-.1.37-.04.71.2 1 .1.14.24.22.43.25a.77.77 0 0 1-.23.32c-.15.13-.3.17-.44.13a.97.97 0 0 1-.38-.26h-.01l.02.05c.02.03.02.03-.01 0a.72.72 0 0 1-.21-.45c-.02-.17 0-.33.06-.5.13-.35.29-.62.47-.8a30.02 30.02 0 0 0 .4-.27c.18-.12.36-.2.53-.25a4.24 4.24 0 0 1 1.7-.09c.05.01.08.03.1.06.03.03.03.06 0 .1a4.82 4.82 0 0 1-.56.59 31.08 31.08 0 0 0-.7.61.22.22 0 0 1-.14.07Z" fill="#D9DEDC"/><path d="M8.34 6.85c0 .23-.08.41-.23.56a.5.5 0 0 1-.37.14.68.68 0 0 1-.43-.24C7.07 7 7 6.67 7.1 6.3c.01-.04.04-.1.1-.18.05-.07.1-.12.14-.15.2-.13.4-.12.6.01a1.08 1.08 0 0 1 .4.87ZM10.6 6.15c.09.18.12.36.1.56-.02.23-.1.43-.23.6a.7.7 0 0 1-.33.22.62.62 0 0 1-.22.02.62.62 0 0 1-.27-.14.47.47 0 0 1-.16-.27.13.13 0 0 0-.03-.04.09.09 0 0 1-.01-.03c-.01-.08-.02-.2-.01-.35.01-.15.05-.28.11-.41.05-.1.12-.19.2-.26a.6.6 0 0 1 .3-.16.5.5 0 0 1 .31.04c.1.04.17.12.23.22Z" fill="#25B6DD"/><path d="m11.24 6.06.11.3a3.66 3.66 0 0 1 .1 1.3l-.32.1c-.16.02-.33.02-.51-.03-.14-.04-.3-.1-.48-.2a.7.7 0 0 0 .33-.23 1.07 1.07 0 0 0 .13-1.15c.2-.05.42-.08.64-.09Z" fill="#C1B4A6"/><path d="M12.34 6.44a.17.17 0 0 1-.05.05 14.84 14.84 0 0 1-.11 0l-.12-.3c-.01-.01 0-.02.02-.01l.1.02.04.03.12.21Z" fill="#424D5C"/><path d="M12.18 8.4c-.12.2-.29.4-.5.56-.17.13-.35.21-.55.26a.67.67 0 0 1-.35 0 7.33 7.33 0 0 0-2.31-.28c-.3 0-.63.06-.99.15-.24.06-.4.1-.46.1-.15.01-.3 0-.48-.02a.96.96 0 0 1-.52-.24c-.12-.1-.21-.2-.28-.27-.1-.2-.16-.4-.19-.62-.05-.39-.03-.77.05-1.15.16-.01.32 0 .5.06 0 .25.01.52.06.8a.6.6 0 0 0 .19.35c.07.07.18.14.33.2l.09.05c.02.01.05.03.09.03a.37.37 0 0 0-.1-.04h.06V8.3c.16.08.36.16.6.22a6.38 6.38 0 0 0 1.58.2 5.9 5.9 0 0 0 2.27-.51c.1-.05.21-.13.32-.24a.28.28 0 0 0 .08-.12c.05-.19.08-.4.07-.63 0-.32-.05-.63-.14-.93l.39-.1c.22.48.33 1 .31 1.53 0 .24-.04.46-.12.67Z" fill="#7DC7BA"/><path d="M5.48 7.2c-.09 0-.13 0-.14-.05.02-.23.06-.44.13-.61.05-.13.11-.24.2-.32 0-.02.03-.03.07-.02v.01c-.02.1-.05.2-.1.3a2.72 2.72 0 0 0-.16.69Z" fill="#424D5C"/><path d="m5.26 7.06-.05.14-.02.01a.22.22 0 0 1-.17 0c.02-.25.08-.49.18-.7a.67.67 0 0 1 .07-.1c.02-.03.09-.06.2-.1h.02v.02c-.12.24-.2.49-.23.73ZM12.84 7.23c-.04.05-.09.07-.14.05-.04-.01-.06-.03-.07-.06a.5.5 0 0 0-.03-.11 2.28 2.28 0 0 0-.24-.79c-.01-.01 0-.02.01-.01l.04.01a.4.4 0 0 1 .17.09.6.6 0 0 1 .08.13c.1.22.16.45.18.69Z" fill="#7DC7BA"/><path d="M7.97 7.37a.34.34 0 0 1-.3-.1.55.55 0 0 1-.15-.33.52.52 0 0 1 .06-.35c.06-.1.14-.16.24-.17.1-.01.2.02.3.1.08.09.13.2.15.33.02.13 0 .25-.06.35a.32.32 0 0 1-.24.17ZM9.8 7.37a.32.32 0 0 1-.24-.17.52.52 0 0 1-.06-.35.55.55 0 0 1 .16-.32.34.34 0 0 1 .29-.11c.1.01.19.07.25.17s.08.22.06.35a.55.55 0 0 1-.17.33.34.34 0 0 1-.28.1Z" fill="#060419"/><path d="M7.8 6.64c.07.03.15.02.18-.03.03-.06 0-.12-.07-.15-.07-.04-.14-.02-.17.03-.03.06 0 .12.07.15Z" fill="#D9DEDC"/><path d="m12.34 6.44.07.18a.4.4 0 0 0-.18.03l-.05-.16a14.8 14.8 0 0 0 .11 0 .17.17 0 0 0 .05-.05Z" fill="#428388"/><path d="M9.9 6.63c.05.05.12.07.17.03.05-.03.05-.1 0-.15-.04-.05-.11-.07-.16-.03-.05.03-.05.1 0 .15Z" fill="#D9DEDC"/><path d="M12.52 7.26c-.04.02-.1.02-.16 0-.03-.2-.07-.41-.13-.61a.4.4 0 0 1 .18-.03 2.85 2.85 0 0 1 .1.64Z" fill="#424D5C"/><path d="M9.44 6.72v.35l.03.03.02.04c.02.1.07.19.16.27.09.07.18.12.27.14-.18.03-.35.09-.51.18-.23.08-.47.14-.7.16-.11.02-.21 0-.3-.03h-.03v.03c.01.07.04.13.09.18-.15.1-.32.16-.5.18-.22.03-.42.03-.61 0-.22-.02-.4-.1-.56-.2l-.01-.01.01-.01h.01c.03 0 .04 0 .01-.01a1.3 1.3 0 0 1-.23-.24c.12.11.24.2.35.26a1 1 0 0 0 1.08-.09 40.78 40.78 0 0 0 .96-.88c.14-.13.3-.25.46-.35Z" fill="#B9B6AF"/><path d="M6.48 6.74a41.44 41.44 0 0 1-.07.54c.01.18.07.34.18.5.06.09.14.16.23.24.03.01.02.02 0 .01H6.8s-.01 0 0 0v.02a.98.98 0 0 1-.41-.42l-.01-.05a.98.98 0 0 1 .21.26 1 1 0 0 1-.2-.71c0-.09.04-.21.1-.39Z" fill="#C1B4A6"/><path d="m5.26 7.06-.01.41a2.14 2.14 0 0 0 .1.68h-.02c-.06-.03-.1-.05-.12-.08a.9.9 0 0 1-.12-.23c-.07-.2-.1-.42-.07-.64.06.03.11.03.17.01l.02-.01.05-.14ZM12.84 7.23c.02.26-.02.5-.13.74a.35.35 0 0 1-.19.18l-.01-.01a2.6 2.6 0 0 0 .09-1.03.5.5 0 0 1 .04.1c0 .04.02.06.06.07.06.02.1 0 .14-.05Z" fill="#428388"/><path d="M9.92 7.55c.08 0 .15 0 .22-.02.18.1.34.16.48.2.18.05.35.05.51.02l.31-.09c-.03.17-.1.3-.2.41-.13.14-.34.25-.63.34a6.54 6.54 0 0 1-2 .26 6.98 6.98 0 0 1-1.56-.33 1.7 1.7 0 0 1-.33-.17.73.73 0 0 1-.34-.54c.1.18.23.32.42.42.15.1.34.18.56.2.19.03.39.03.6 0 .2-.02.36-.08.5-.18.1.11.2.18.34.2.13.03.26 0 .37-.07.16-.1.25-.24.28-.44v-.02l-.03-.01h-.01c.16-.1.33-.15.51-.18Z" fill="#A79F92"/><path d="M8.43 7.91c.1.03.22.04.34.02a3.6 3.6 0 0 0 .64-.15.59.59 0 0 1-.15.3.5.5 0 0 1-.22.14.5.5 0 0 1-.61-.3s0-.01 0 0Z" fill="#D9DEDC"/><path d="M12.18 8.4a.75.75 0 0 1-.05.17c-.14.35-.37.64-.69.87a.42.42 0 0 1-.13.06l-.15.04c-.04 0-.07 0-.1-.02a2.98 2.98 0 0 0-.62-.28 4.78 4.78 0 0 0-2.05-.2c-.36.03-.73.11-1.1.24-.18.05-.34.13-.48.22a.26.26 0 0 1-.12.04.42.42 0 0 1-.26-.08 1.95 1.95 0 0 1-.7-.8l.29.27c.14.13.32.21.52.24.17.03.33.03.48.02.06 0 .22-.04.46-.1.36-.09.69-.14.99-.15.78-.03 1.55.07 2.31.29.1.02.22.02.35 0 .2-.06.38-.14.54-.27.22-.17.4-.36.51-.56Z" fill="#428388"/><path d="m8.84 9.28-.35.01V9.1a6.16 6.16 0 0 1 .85.01v.13c0 .01 0 .02-.02.02l-.58.02h-.01.11Z" fill="#424D5C"/><path d="M8.42 9.13a3.26 3.26 0 0 1-.34.05h-.1a3.47 3.47 0 0 0-1.16.42v-.02c.13-.09.28-.16.44-.22a4.36 4.36 0 0 1 1.16-.23Z" fill="#428388"/><path d="M8.47 9.3a14.85 14.85 0 0 1 .78.02c.08 0 .1-.02.08-.04l.04-.01.01-.02.02-.12h.08a5 5 0 0 0 .55.1c.03 0 .04 0 .03-.02l.04.01c0 .03.02.05.03.07.01.03.02.05.01.07a.7.7 0 0 1-.01.12c0 .03-.02.04-.04.05a4.9 4.9 0 0 0-3.29.26l-.01-.17.02-.04v.02h.03a3.47 3.47 0 0 1 1.58-.47v.14c0 .01.02.02.05.02Z" fill="#424D5C"/><path d="m10.49 9.33-.12.03-.03.03-.02.13v.03l.09.06a3.17 3.17 0 0 0 .4.15l.12.06h.05l.04-.05a.28.28 0 0 0-.01-.19c.06.03.1.09.1.16 0 .08 0 .13-.02.15l-.01.02a.21.21 0 0 1-.14.03c-.02 0-.05-.01-.08-.04a.35.35 0 0 0-.07-.06 3.2 3.2 0 0 0-.72-.19l.02.04-.07-.02a5.28 5.28 0 0 0-2.08-.03v-.02l-.17.01-.4.1c-.09.02-.17.05-.26.09a.57.57 0 0 0-.16.1.1.1 0 0 1-.06.03h-.07l-.02-.01a.06.06 0 0 1-.06-.06v-.01a.6.6 0 0 1-.01-.14c0-.05.02-.09.06-.11l.01.17.01.02h.02l.28-.12a6.3 6.3 0 0 1 2.9-.15h.08l.04-.06a.7.7 0 0 0 .02-.12c0-.02 0-.04-.02-.07a.63.63 0 0 1-.03-.07l.39.1Z" fill="#1D262F"/><path d="M9.34 9.28c.02.02-.01.03-.1.03l-.73.01c-.04 0-.05 0-.04-.03h.02l.35-.01h.5Z" fill="#428388"/><path d="M11 9.58c.03.07.04.14.02.2 0 .01-.02.03-.04.03h-.05a3.18 3.18 0 0 1-.52-.2.25.25 0 0 1-.08-.06c-.01 0-.02-.01-.01-.03l.02-.13.03-.03.12-.03c.12.03.25.08.38.15l.13.1Z" fill="#424D5C"/><path d="M10.08 9.69c.14.02.26.05.35.09.13.04.22.12.29.21a1.24 1.24 0 0 1 .13.36l.05.33a1.4 1.4 0 0 0-.8-.8 2.7 2.7 0 0 0-.87-.2 6.16 6.16 0 0 0-.57 0 2.18 2.18 0 0 0-1.4.55c-.08.08-.14.16-.18.23l-.17.28c.02-.2.07-.4.14-.61a.53.53 0 0 1 .33-.35 4.87 4.87 0 0 1 2.64-.1h.06Z" fill="#428388"/><path d="M12.67 10c-.02 0-.02-.01-.01-.04a.33.33 0 0 0 .02-.19l-.04-.06c-.03-.03-.08-.02-.15.02a.45.45 0 0 0-.22.27h-.02v-.05a.43.43 0 0 1 .31-.3.2.2 0 0 1 .08-.01c.04 0 .08.02.1.05.02.03.03.07.02.1a.6.6 0 0 1-.1.2Z" fill="#FEEF72"/><path d="M10.9 10.68c.08.16.15.32.2.5v.13l.02.13c0 .3-.12.54-.35.75a.76.76 0 0 1-.27.15c-.16.05-.34.1-.52.13l-.6.08a4.53 4.53 0 0 1-2-.23c-.04-.03-.06-.05-.06-.07a.87.87 0 0 0-.15-.27 1.6 1.6 0 0 0-.25-.3.25.25 0 0 1-.06-.12.93.93 0 0 0-.11-.26l.03-.28.13-.28.17-.28c.04-.07.1-.15.18-.23l.2-.16.23-.14c.3-.15.62-.24.97-.25h.57c.3.03.6.1.87.2.38.16.65.42.8.8Z" fill="#7DC7BA"/><path d="m12.67 10-.02.02a.27.27 0 0 1-.16.07h-.16l-.08-.02-.01-.02v-.1l.01.05h.02c.03-.12.1-.2.22-.27.07-.04.12-.05.15-.02l.04.06c.01.07 0 .13-.02.19v.03Z" fill="#DDAB4F"/><path d="M9.85 11.37a1.9 1.9 0 0 1-.5.01l-.04-.04-.13-.5h-.02L8.9 11a.06.06 0 0 1-.07 0l-.26-.17h-.01l-.15.51c0 .02-.02.03-.04.03a4.34 4.34 0 0 1-.45 0 .33.33 0 0 1-.1-.06.05.05 0 0 1-.02-.05c.12-.45.27-.9.47-1.33.02-.04.05-.05.1-.02a2.3 2.3 0 0 1 .46.37c.02.02.04.02.06 0a6.06 6.06 0 0 1 .49-.38h.04l.03.02a8.63 8.63 0 0 1 .47 1.37.22.22 0 0 1-.08.07Z" fill="#121417"/><path d="M9.84 11.27a.3.3 0 0 1-.06-.12 5.62 5.62 0 0 1-.14-.46 12.75 12.75 0 0 0-.28-.64 8.8 8.8 0 0 1-.38.33.23.23 0 0 1-.1.04c-.03 0-.07 0-.1-.03a3.2 3.2 0 0 1-.4-.33h-.02a4.77 4.77 0 0 0-.38 1.04l-.05.16-.03.01v-.02c.11-.43.26-.84.43-1.24 0-.02.02-.02.03-.01l.16.1a13.32 13.32 0 0 0 .35.29l.06-.02a9.17 9.17 0 0 0 .45-.38h.02a8.45 8.45 0 0 1 .44 1.28Z" fill="#D9DEDC"/><path d="M6.7 10.39h.02a4.84 4.84 0 0 0 .08-.25l.08-.11C6.9 10 6.94 10 7 10v.02a8.52 8.52 0 0 0-.19.68.5.5 0 0 1-.07.17c0 .02-.01.02-.02 0a1.66 1.66 0 0 1-.03-.48ZM10.82 10c.09 0 .17 0 .26.03v.02c-.06.14-.1.28-.12.42h-.01a3.5 3.5 0 0 0-.13-.47Z" fill="#428388"/><path d="m12.65 10.02-.04.16c0 .02 0 .02-.02.01l-.26-.1h.16c.06 0 .11-.02.16-.07Z" fill="#B46319"/><path d="m6.88 10.03-.08.1a4.8 4.8 0 0 1-.1.25l.05-.28.02-.02.1-.05Z" fill="#7DC7BA"/><path d="M9.84 11.26h-.4c-.02 0-.02 0-.03-.02a.16.16 0 0 1-.02-.07 1 1 0 0 0-.01-.09l-.11-.26-.03-.06-.01-.02c-.05 0-.09 0-.12.03-.07.04-.15.1-.22.17h-.03l-.23-.18c-.05-.05-.1-.07-.13-.03a3.5 3.5 0 0 0-.2.5c0 .02-.02.02-.04.03h-.33l.05-.16a7.49 7.49 0 0 1 .4-1.04 5.31 5.31 0 0 1 .4.33c.03.02.07.03.1.03.04 0 .07-.02.1-.04a8.8 8.8 0 0 0 .38-.33l.03.01a12.75 12.75 0 0 1 .45 1.2Z" fill="#DDAB4F"/><path d="M11.42 10.16c-.05.05-.09.1-.11.18l-.16-.24v-.02l.01-.01c.1 0 .19.03.26.1Z" fill="#424D5C"/><path d="m12.83 10.93-.03-.37a.2.2 0 0 0-.08-.13 1 1 0 0 0-.6-.24.2.2 0 0 0-.1.03 2.2 2.2 0 0 0-.29.17.36.36 0 0 0-.1.16c-.03-.06-.03-.11 0-.16l.17-.15a.8.8 0 0 1 .2-.1.38.38 0 0 1 .24 0c.2.07.38.13.5.2.04.02.06.05.08.1l.04.16c0 .1 0 .22-.03.33Z" fill="#FEEF72"/><path d="M6.65 10.8c-.03.03-.07.04-.1.04-.02 0-.02-.01-.03-.02a.4.4 0 0 0-.2-.16c-.1-.02-.18 0-.26.07v.02c0 .02.02.03.04.04l.04.03c.1 0 .18.04.23.12V11h-.03a1.13 1.13 0 0 0-.8.06.4.4 0 0 0-.12.08.07.07 0 0 0-.02.04c0 .02 0 .04.02.05-.01.04 0 .05.05.03.14-.06.28-.1.4-.1.22.01.37.09.47.21l-.03.04a.08.08 0 0 0-.05-.01.6.6 0 0 0-.43.21l-.17.21a.98.98 0 0 1-.25.24.37.37 0 0 1-.35.03.56.56 0 0 1-.06-.23.4.4 0 0 1 .05-.2 2.64 2.64 0 0 1 .22-.35.24.24 0 0 0 .05-.09.47.47 0 0 1 .06-.19c.04-.05.1-.1.18-.13a4.41 4.41 0 0 1 .35-.13c.22-.24.46-.44.72-.6.03-.02.03-.02.03 0-.05.21-.05.42 0 .63Z" fill="#7DC7BA"/><path d="M11.57 10.7a.16.16 0 0 1-.07 0 .1.1 0 0 1-.06-.03 105.65 105.65 0 0 0-.36-.46l.01-.03h.02c0 .02.02.04.04.06.04.06.06.1.08.11a4.11 4.11 0 0 1 .28.32l.06.02Z" fill="#428388"/><path d="m12.83 10.93.01-.01a.42.42 0 0 1-.19.01.8.8 0 0 1-.13-.04.29.29 0 0 0-.13-.03l-.4-.02c-.05 0-.08 0-.11.02a.6.6 0 0 0-.2.08h-.03l-.01-.02a.31.31 0 0 1-.01-.17l.1-.09c.1-.1.24-.14.4-.15h.13l.1.03h.13v-.02l.04-.02v-.04c-.1-.01-.15 0-.19.04a.63.63 0 0 1-.07-.04.3.3 0 0 0-.07-.03.45.45 0 0 0-.33.05.41.41 0 0 0-.2.1h-.02a.1.1 0 0 1-.02-.03.36.36 0 0 1 .1-.16l.29-.17a.2.2 0 0 1 .11-.03 1 1 0 0 1 .6.24.2.2 0 0 1 .07.13l.03.37Z" fill="#DDAB4F"/><path d="M11.57 10.7a.4.4 0 0 0 0 .23l-.02.02a.5.5 0 0 0-.24.17.45.45 0 0 1-.03.04c-.03.04-.04.04-.03-.01.03-.12.1-.23.2-.32v-.02l-.01-.01h-.06c-.03 0-.07 0-.1.02a.1.1 0 0 1-.07 0 .15.15 0 0 1-.04-.02l-.02-.02a.37.37 0 0 1-.13-.2c0-.12.03-.24.06-.36a4.46 4.46 0 0 0 .42.48h.07Z" fill="#7DC7BA"/><path d="m11.42 10.45.11-.19c.03.02.04.04.05.06v.03a.2.2 0 0 0-.04.1v.1l.01.04c0 .02 0 .02-.02 0l-.1-.14Z" fill="#424D5C"/><path d="M12.34 10.5c.04.03.09.03.14.02h.01v.02a.24.24 0 0 1-.13 0 1.1 1.1 0 0 0-.1-.03h-.14a.59.59 0 0 0-.4.15l-.1.1c.01-.06.03-.1.05-.12l.2-.16c.1-.06.22-.08.33-.05a.3.3 0 0 1 .07.03l.07.04Z" fill="#FEEF72"/><path d="m11.38 10.8-.14.17a.07.07 0 0 1-.07.03.07.07 0 0 1-.06-.04l-.1-.22c-.02-.03-.02-.08 0-.15.03.07.07.14.14.2h.02l.04.04a.1.1 0 0 0 .06 0 .26.26 0 0 1 .1-.02ZM6.65 10.8l.06.14v.03c-.06.08-.1.13-.15.14l-.02-.01a.78.78 0 0 0-.15-.24.29.29 0 0 0-.13-.1c-.06-.01-.12 0-.16.03-.02 0-.04-.02-.04-.04v-.02c.08-.07.17-.1.25-.07a.4.4 0 0 1 .21.16l.02.02c.04 0 .08 0 .11-.04Z" fill="#428388"/><path d="m8.63 10.76-.07-.01c-.03-.01-.04 0-.05.02l-.16.54h-.01l-.35.01c-.04 0-.07-.02-.09-.05h.03l.33-.01c.02 0 .03-.01.04-.03a3.5 3.5 0 0 1 .2-.5c.04-.04.08-.02.13.03ZM9.84 11.26v.01c0 .03-.03.04-.05.04h-.38l-.02-.01-.12-.48c.04.08.08.17.1.26l.02.1c0 .02 0 .04.02.06l.02.02h.41Z" fill="#B46319"/><path d="M9.85 11.37c.02.09-.01.14-.1.14-.16.02-.32.01-.46 0-.06 0-.1-.04-.11-.1A3.67 3.67 0 0 1 9.1 11h-.02l-.13.12a.1.1 0 0 1-.06.03.1.1 0 0 1-.07-.02l-.17-.11h-.02c-.05.15-.1.3-.13.44-.01.03-.04.06-.1.06-.05.01-.17.02-.36.02-.08 0-.11-.05-.1-.16a4.28 4.28 0 0 0 .44 0c.02 0 .03-.01.04-.03l.15-.5.01-.01.26.17c.02.02.05.02.07 0l.25-.17h.02l.13.5c.01.02.02.04.05.04l.1.02c.14 0 .26 0 .39-.03Z" fill="#428388"/><path d="m12.84 10.92-.05.26a.55.55 0 0 1-.09.23.59.59 0 0 1-.61.18.4.4 0 0 1-.26-.2v-.02h.26l.1.05h.07v-.02c0-.01 0-.02.02-.02.08 0 .13-.01.15-.04v-.02l-.01-.01h-.44a.43.43 0 0 1-.22-.05.24.24 0 0 1-.1-.21l.56-.1v-.01a3.75 3.75 0 0 0-.32-.02c0-.03 0-.05-.02-.06a.15.15 0 0 1 .1-.02c.2.02.34.03.41.02.04 0 .09 0 .13.03l.13.04c.05.01.12 0 .2-.01Z" fill="#B46319"/><path d="m6.37 10.94.07.11c.03.05.03.1.01.13h-.02a1.18 1.18 0 0 0-.97.02.12.12 0 0 0-.04.03c-.02 0-.02-.03-.02-.05 0-.02 0-.03.02-.04a.4.4 0 0 1 .11-.08c.27-.11.53-.13.8-.05h.03v-.07ZM6.75 11.3a.12.12 0 0 1-.05-.04v-.02l.08-.22c0 .1 0 .19-.03.28Z" fill="#428388"/><path d="M11.65 11.25c-.04.09-.09.16-.13.21-.08.1-.16.11-.25.06-.02-.22.08-.39.29-.5h.02v.01c0 .08.02.15.07.22ZM13 11.3a1.19 1.19 0 0 1-.09-.14.17.17 0 0 1-.01-.05l-.01-.05v-.03h.03c.05.07.07.16.08.26Z" fill="#7DC7BA"/><path d="M12.89 11.06v.05l.02.05c.03.04.05.09.09.13 0 .12 0 .23-.06.33l-.1.22c-.04.1-.07.18-.1.22a.8.8 0 0 1-.3.26 1.03 1.03 0 0 1-.82.04.75.75 0 0 1-.33-.23.07.07 0 0 1-.01-.05 1.68 1.68 0 0 0-.01-.56c.1.05.17.03.25-.06.04-.05.09-.12.13-.2l.09.07.01.02c.02.07.05.14.11.2a.62.62 0 0 0 .84-.04.44.44 0 0 0 .15-.26l.04-.19ZM6.34 11.37c-.1-.12-.25-.2-.47-.21.2-.02.4.01.57.1v.03l-.1.08ZM7.17 11.98c.07.09.12.18.15.27 0 .02.03.04.06.07a4.53 4.53 0 0 0 2 .23l.6-.08c.18-.03.36-.08.52-.13.1-.04.2-.09.27-.15a.99.99 0 0 0 .34-.88v-.14a3 3 0 0 1 .1.47c.03.2.02.4-.04.6a.17.17 0 0 1-.06.09c-.23.16-.5.3-.82.4a5.55 5.55 0 0 1-2.37.1A3.56 3.56 0 0 1 7 12.5c-.02-.02-.03-.03 0-.05.08-.09.13-.2.15-.33 0-.05 0-.1.02-.15Z" fill="#428388"/><path d="M7.02 12.3a.17.17 0 0 1 0-.1c0-.06-.01-.11-.07-.15-.1-.06-.2-.12-.3-.2a.34.34 0 0 1-.1-.13.81.81 0 0 1-.08-.23v-.01h-.03l-.13.08c.05-.13.12-.22.23-.25.07-.02.13 0 .17.07a.7.7 0 0 1 .09.22c0 .03.02.07.05.1l.17.19c.06.06.08.14.06.23a.75.75 0 0 1-.06.18Z" fill="#FEEF72"/><path d="m6.3 11.4-.06.13-.02.02a.78.78 0 0 0-.32.24c-.08.1-.14.22-.18.34a.7.7 0 0 0-.02.4l.05.1c.01.02 0 .03-.01.03a.65.65 0 0 1-.42-.19 1.07 1.07 0 0 1-.26-.38c.12.04.23.04.35-.03a.98.98 0 0 0 .25-.24l.17-.2a.6.6 0 0 1 .43-.22h.05Z" fill="#428388"/><path d="m7.02 12.3-.03.06a1.15 1.15 0 0 1-.3-.1 3.33 3.33 0 0 1-.3-.18.28.28 0 0 1-.05-.08c-.01-.02-.02-.02-.02 0l-.02-.02c.02-.01.02-.03.02-.04a.44.44 0 0 1-.04-.09c-.02-.1 0-.2.03-.29l.13-.08h.02l.01.01a.8.8 0 0 0 .07.23c.02.04.06.09.1.12l.31.21c.06.04.08.09.06.15l.01.1Z" fill="#DDAB4F"/><path d="m6.09 12-.15-.07c.04-.05.05-.09.04-.12a.62.62 0 0 1 .23-.19v.01a.55.55 0 0 0 0 .26v.02a.25.25 0 0 0-.12.1Z" fill="#FEEF72"/><path d="M5.99 11.8c0 .04-.01.08-.05.13a1.3 1.3 0 0 0-.13.34c-.02.13.04.22.2.26a.53.53 0 0 0 0 .2c0 .01 0 .02-.02.01-.2-.1-.27-.25-.24-.46.03-.18.11-.34.24-.47Z" fill="#B46319"/><path d="m5.94 11.93.15.07a.74.74 0 0 0-.1.34l.02.2c-.15-.05-.22-.14-.2-.27 0-.07.05-.18.13-.34Z" fill="#DDAB4F"/><path d="m6.3 11.98.02.03c.03.1.08.18.15.24.1.13.23.21.4.24l.01.02v.04c0 .02-.01.02-.02.02a.1.1 0 0 1-.08 0l-.22-.07a.73.73 0 0 1-.22-.13.33.33 0 0 1-.11-.18.5.5 0 0 0-.07-.16c.02-.05.07-.07.14-.05Z" fill="#FEEF72"/><path d="M7 12.36c-.04.06-.09.08-.16.06a.47.47 0 0 1-.16-.07.9.9 0 0 0-.21-.1.53.53 0 0 1-.15-.24V12c0-.02.01-.02.02 0 .02.04.04.07.06.08.14.1.24.16.29.18.08.04.18.07.3.1Z" fill="#B46319"/><path d="M6.16 12.03c.03.04.05.1.07.16.02.07.06.13.11.18l.22.13.22.08a.1.1 0 0 0 .08 0v.02a1.2 1.2 0 0 1-.06.13l-.04.03a.68.68 0 0 1-.56-.2.51.51 0 0 1-.07-.09.7.7 0 0 0-.08-.1c0-.11.04-.23.1-.34Z" fill="#DDAB4F"/><path d="m6.86 12.57.01-.02c.01.12-.03.21-.1.3h-.03a.55.55 0 0 1-.36-.08 2.85 2.85 0 0 1-.2-.13l.1.12c.1.1.23.15.38.15v.02c-.17.1-.33.1-.48-.04a.37.37 0 0 1-.1-.14.27.27 0 0 1-.01-.18.4.4 0 0 0 .01-.07v-.02a.22.22 0 0 1-.03-.1.7.7 0 0 1 .08.1l.07.09.19.13c.11.05.23.07.37.06l.04-.03.06-.13v-.03Z" fill="#B46319"/><defs><linearGradient id="a" x1="3.35" y1="3.12" x2="21.9" y2="24.43" gradientUnits="userSpaceOnUse"><stop stop-color="#1A1E21"/><stop offset="1" stop-color="#06060A"/></linearGradient></defs></svg>