<!-- by TradingView --><svg width="18" height="18" viewBox="0 0 18 18" xmlns="http://www.w3.org/2000/svg"><path fill="url(#a)" d="M0 0h18v18H0z"/><path d="M8.55 4.83c-.65.07-1.3.1-1.94.07-.06 0-.11.02-.15.05-.03.02-.03.03.01.03l2.09-.02c.3.01.6.01.9-.01.36-.03.69.09 1.01.07h.6c.23.02.23.04 0 .05-.34.03-.7.03-1.1.01-.17 0-.33 0-.5.02l-.49.06c-.88-.05-1.75-.06-2.63-.03a.64.64 0 0 0-.17.05l-.1-.01c-.04-.01-.05-.03-.02-.06l.41-.43c.42.13.85.15 1.27.06.07-.02.17-.03.29-.03.1 0 .2-.01.3-.04a50 50 0 0 0 1.55 0c.05 0 .16.04.3.11l.1.03h.81c.28 0 .3-.08.06-.22a2.25 2.25 0 0 0-.57-.21c-.03-.01-.05-.03-.04-.07.01-.07-.01-.1-.06-.11l-.78-.1c-.1-.01-.17 0-.22.02-.05.03-.05.05.01.05h.47l.03.02c.1.04.16.12.2.23.02.03.04.04.08.04.08-.02.15 0 .21.06.03.02.06.04.1.04l.4.02c.03 0 .04.02.04.04v.04c-.22 0-.44-.03-.66-.12-.08-.03-.2.04-.31.04-.6 0-1.18 0-1.77.02a.91.91 0 0 1-.42.01c-.28-.05-.5.1-.78.08a.7.7 0 0 1-.45-.2l.43-.2a.08.08 0 0 0 .05-.07v-.03c0-.04.02-.06.05-.06.2-.03.4-.12.56-.27.06-.06.25-.1.56-.15.03 0 .07-.03.13-.1a.18.18 0 0 1 .09-.05c.27-.07.54-.08.82-.02.03 0 .06.02.08.04.14.18.5.19.6.25.19.12.37.21.55.26a.7.7 0 0 1 .35.2c.1.1.31.16.45.32a12.26 12.26 0 0 0 .66.7.06.06 0 0 1-.03.05c-.03.01-.07.02-.11 0a.08.08 0 0 1-.07-.07v-.03a.11.11 0 0 0-.05-.08l-.35-.26a.13.13 0 0 0-.08-.03l-1.03-.01c-.13 0-.23-.08-.36-.08l-1.38.03Z" fill="#B7BAB6"/><path d="M9.96 3.87c.02 0 .03.01.02.03l-.03.05v.01a1.13 1.13 0 0 1-.5-.06v-.01l.02-.02c0-.01 0-.02.02-.02l.47.02ZM8.72 4.02c-.03 0-.04 0-.03-.03l.02-.06a1.23 1.23 0 0 1 .54-.03.02.02 0 0 1 0 .01v.03l-.02.02-.51.06ZM7.47 4.3a.15.15 0 0 1-.04-.02c-.03-.02-.03-.05 0-.07.05-.03.1-.05.16-.05.03 0 .06-.03.06-.06.01-.03.05-.06.12-.08.03-.02.06 0 .08.02.04.04.07.06.1.06h.64c.03 0 .04.01.02.03-.06.08-.35.07-.85-.01a.06.06 0 0 0-.07.04.05.05 0 0 0 .03.06l.13.08.08.02H10l.01.03v.05c0 .02 0 .02-.02.02H7.68a.13.13 0 0 0-.12.06c-.07.11-.18.13-.35.08-.04-.02-.05-.04-.02-.08.01-.01.1-.05.28-.1.09-.02.09-.05 0-.07Z" fill="#898B8B"/><path d="M8.33 4.67a.2.2 0 0 1-.04-.01l-.02-.03.01-.03c.6-.02 1.18-.02 1.77-.02.1 0 .23-.07.3-.04a1.83 1.83 0 0 0 .68.12v-.04c0-.02-.02-.04-.04-.04l-.4-.02a.15.15 0 0 1-.1-.04.22.22 0 0 0-.22-.06c-.04 0-.06 0-.07-.04a.46.46 0 0 0-.21-.23l-.03-.01H9.5c-.06-.01-.06-.03-.01-.06.05-.03.13-.03.22-.02l.78.1c.05 0 .07.04.06.11 0 .04 0 .06.04.07.24.06.43.13.57.21.24.14.22.22-.06.22h-.8c-.04 0-.07-.01-.1-.03a.87.87 0 0 0-.31-.1l-1.55-.01Z" fill="#191C23"/><path d="M6.63 4.49a.7.7 0 0 0 .45.2c.28.02.5-.13.78-.08.14.03.28.03.42-.01v.03l.01.03a.2.2 0 0 0 .04 0c-.1.04-.2.06-.3.05-.12 0-.22.01-.3.03-.41.09-.84.07-1.26-.06l.16-.19ZM8.55 4.83v.13l-2.08.02c-.04 0-.04-.01-.01-.03a.23.23 0 0 1 .15-.05c.65.03 1.3 0 1.94-.07Z" fill="#4F5262"/><path d="M9.66 5.38c.29 0 .52-.05.51-.1 0-.05-.23-.09-.51-.08-.28 0-.51.05-.51.1s.23.09.51.08Z" fill="#898B8B"/><path d="M8.18 5.29c-.07.04-.14.1-.22.1a20.25 20.25 0 0 0-1.9.02v.06h1.8c.04 0 .08.01.1.04.13.16.33.22.63.16.05-.01.05-.03 0-.04-.08-.03-.2-.04-.38-.03a.12.12 0 0 1-.11-.07l-.01-.03a.03.03 0 0 1 .03-.04h.7c.02 0 .02 0 .02-.02l-.02-.04c-.01-.02-.03-.03-.06-.03a.85.85 0 0 1-.46-.05c.02-.06.05-.09.1-.09.25.01.44 0 .58-.02a.2.2 0 0 1 0 .19c-.01.03 0 .05.04.05.2.03.48 0 .65.05l.09.01h1.49a.03.03 0 0 1 .03.03v.03a28.6 28.6 0 0 0-1.43 0c-.11-.02-.2.03-.3.03a34.24 34.24 0 0 0-.87.02v.03c0 .02 0 .03.02.03l.03.02h1.31c.02 0 .03 0 .04.02l.02.04c.02.02.01.04-.02.04l-.56.07H9.5a.84.84 0 0 0-.45-.02c-.05.01-.06.03-.02.06.2.13.4.17.61.1a.32.32 0 0 1 .16 0c.04 0 .07.02.09.05 0 .03 0 .05-.03.06-.26.08-.52.08-.78-.02h-.04a.07.07 0 0 0-.04.03l-.03.06a.07.07 0 0 1-.06.03l-1.33-.07c-.03 0-.05-.02-.05-.06v-.03c0-.02.01-.03.03-.03H8.8c.05 0 .06-.02.04-.07l-.02-.04a.1.1 0 0 0-.09-.06l-.73-.04c-.05 0-.08-.03-.08-.08v-.09c0-.04-.02-.06-.06-.06a41.59 41.59 0 0 1-1.87.01l-.08.03c-.15.04-.15.06.01.06l1.74.01a.07.07 0 0 1 .07.07v.03a.04.04 0 0 1-.01.03.04.04 0 0 1-.03.01c-.62-.03-1.24-.02-1.84.02-.1 0-.17-.02-.22-.07l.28-.35.01-.02c.04-.1.12-.15.25-.15.19.03.37.04.54.02l.4-.03c.35 0 .69-.02 1.03-.03.02 0 .03 0 .04.03v.03Z" fill="#B7BAB6"/><path d="M10.81 5.36c.26 0 .48-.02.48-.05 0-.03-.21-.06-.48-.06-.26 0-.47.02-.47.05 0 .03.21.06.47.06Z" fill="#898B8B"/><path d="m8.18 5.29.12.03c.15.06.3.08.47.05.02 0 .04 0 .05.03l.02.04-.01.02h-.71a.03.03 0 0 0-.03.04v.03a.12.12 0 0 0 .12.07c.17 0 .3 0 .38.03.05.02.05.03 0 .04-.3.06-.5 0-.63-.16a.11.11 0 0 0-.1-.04h-1.8v-.03a.05.05 0 0 1 .04-.05c.62-.03 1.24-.03 1.86 0 .08 0 .15-.06.22-.1Z" fill="#3A3639"/><path d="M11.48 5.46c.06 0 .1 0 .14.02a.04.04 0 0 1-.01.07c-.1.03-.15.02-.17-.02-.02-.04 0-.06.04-.07ZM11.98 5.59c.09 0 .16-.01.17-.04 0-.03-.07-.05-.17-.06-.09 0-.16.02-.16.04 0 .03.07.05.16.06Z" fill="#898B8B"/><path d="m9.85 6.12.1.15c-.36.07-.7.13-1.06.1a34.02 34.02 0 0 0-.76-.06.04.04 0 0 0 0 .07c.07.06.19.1.35.1l.88.01v.14a.24.24 0 0 0-.13 0 .04.04 0 0 0-.03.03.04.04 0 0 0 .02.04c.08.06.14.05.19-.03.1.02.2.07.28.15a.1.1 0 0 0 .09.02l.1-.01c.2 0 .4-.03.59-.1a.1.1 0 0 1 .08 0c.04.02.07.04.12.04.3 0 .58-.02.83-.03.22 0 .54-.09.84-.05 0 .05.03.1.06.16-.18.02-.39.07-.54.04a.9.9 0 0 0-.33 0c-.1.02-.1.05 0 .08.03.02.09.02.17.01a.28.28 0 0 0-.15.12c-.17.05-.35.08-.55.09-1.5.03-3 .01-4.5-.05.05-.04.08-.07.08-.1a17.25 17.25 0 0 0 2.4-.01.08.08 0 0 0 .02-.05c0-.01 0-.02-.03-.03-.08-.03-.23.05-.38.01a1.68 1.68 0 0 0-.71 0l.07-.11c.1.03.17.02.23 0 .06-.04.05-.06 0-.08l-.24-.07c-.04-.01-.05-.04-.04-.08l.02-.04c.03-.04.01-.05-.05-.04a8.95 8.95 0 0 0-.64.1.2.2 0 0 1-.05-.02.14.14 0 0 0-.09-.03l-1.44.03-.07-.08c.1-.12.05-.23-.14-.32a.28.28 0 0 0 .04-.15c.15.03.27.04.37 0 .1-.03.1-.07 0-.11a1.38 1.38 0 0 0-.24-.06l.01-.1c.05.04.12.07.22.06a16.22 16.22 0 0 1 1.87-.03.04.04 0 0 0 0-.03v-.03a.07.07 0 0 0-.06-.07H5.9c-.16 0-.16-.03-.01-.07a9.15 9.15 0 0 0 .15-.04c.63.02 1.23.02 1.8 0 .04 0 .06.02.06.06v.09c0 .05.03.08.08.08l.73.04a.1.1 0 0 1 .09.06l.02.04c.02.05 0 .07-.04.07H7.55c-.02 0-.03.01-.03.03v.03c0 .04.02.05.05.06l1.33.07a.07.07 0 0 0 .06-.03l.03-.06.04-.03h.04c.26.1.52.1.78.02Z" fill="#3A3639"/><path d="M5.61 5.9c.1.01.18.04.24.06.1.04.1.08 0 .11a.63.63 0 0 1-.37 0c-.02-.01-.04-.02-.03-.04 0-.02 0-.03.02-.04l.14-.1Z" fill="#B7BAB6"/><path d="M6.85 6.12c-.2-.08-.4-.05-.71-.04l-.06-.02a.1.1 0 0 1-.05-.05.05.05 0 0 1 0-.04.05.05 0 0 1 .03-.02 1.42 1.42 0 0 1 1.08.15.02.02 0 0 1 0 .02l-.04.07h-.03a5.12 5.12 0 0 0-.22-.07Z" fill="#898B8B"/><path d="M11.04 5.92c.06 0 .12.04.17.1a.04.04 0 0 1-.03.07l-.16-.01a.84.84 0 0 1-.16-.03l-.01-.02-.01-.02a.04.04 0 0 1 .01-.03.27.27 0 0 1 .2-.06Z" fill="#3A3639"/><path d="m11.9 6.13-.19-.08c-.07-.03-.07-.06 0-.09.19-.07.32-.02.4.17l.04.03.04-.01.02-.03v-.04a.14.14 0 0 1 .13-.14l.07.01c.06.03.08.06.08.1l-.03.04c-.36.27-.82.2-1.32.18-.02 0-.03-.01-.04-.03v-.03l.02-.02.23-.03c.04 0 .06-.03.05-.07-.02-.07-.02-.11 0-.14.03-.03.07-.04.1-.02l.05.02.02.02v.04l-.02.08c-.01.03 0 .05.03.06.1.04.21.05.3.03.07 0 .07-.03.01-.05ZM10.41 6.13c0 .04-.1.05-.3.02-.06 0-.09-.03-.08-.08 0-.04.04-.06.1-.05.2.03.29.06.28.1Z" fill="#4F5262"/><path d="M6.27 6.3c.27-.02.49-.06.48-.1 0-.03-.21-.04-.48-.03-.27.01-.48.05-.48.08 0 .04.22.05.48.04ZM5.44 6.22c.19.1.23.2.14.32-.17.02-.21-.09-.14-.32ZM9.94 6.27c.07 0 .12.02.15.05.03.02.03.04-.01.05l-.72.12-.88-.01c-.16 0-.28-.04-.35-.1a.04.04 0 0 1 .03-.08l.73.07c.35.03.7-.03 1.05-.1ZM7.18 6.34v.01c.01.03-.06.07-.19.1-.12.03-.3.05-.48.06h-.03a3.6 3.6 0 0 1-.49 0 .7.7 0 0 1-.15-.04c-.03 0-.05-.02-.05-.04v-.01l1.4-.08Z" fill="#B7BAB6"/><path d="M12.6 6.4h-1.87a.05.05 0 0 0 0 .1h1.88c.02 0 .05-.02.05-.05a.05.05 0 0 0-.05-.05Z" fill="#898B8B"/><path d="M7.38 6.5c-.02.01-.05.01-.07 0a.05.05 0 0 1-.02-.04.05.05 0 0 1 .01-.04c.03-.03.06-.03.1 0 .02 0 .03.01.03.02v.04c0 .01 0 .02-.02.02h-.03Z" fill="#696868"/><path d="M7.95 6.85c-.27-.14-.47 0-.73-.06a1 1 0 0 0-.38-.04 3.6 3.6 0 0 1-.83 0 1.03 1.03 0 0 1-.35-.07c-.02-.01-.02-.03-.01-.06l1.44-.03c.03 0 .07 0 .1.03a.2.2 0 0 0 .04.03h.06c.13-.04.33-.07.58-.11.06-.01.08 0 .05.04l-.02.04c-.01.04 0 .07.04.08l.23.07c.06.02.07.04.01.07-.06.03-.13.04-.23 0Z" fill="#898B8B"/><path d="M12.34 6.69c-.3-.04-.62.04-.84.05l-.83.03c-.05 0-.08-.02-.12-.04a.1.1 0 0 0-.08 0c-.2.07-.38.1-.58.1.24-.15.44-.22.58-.22l1.82-.01c.06 0 .1 0 .15.03.03.02.03.04-.01.06a.15.15 0 0 1-.1 0Z" fill="#696868"/><path d="M8.68 6.72c.06 0 .12-.02.12-.05 0-.03-.05-.06-.11-.06-.07 0-.12.02-.12.05 0 .03.05.06.11.06ZM9.35 6.63c.02 0 .04.02.06.04-.05.08-.11.09-.2.03a.04.04 0 0 1-.01-.04.04.04 0 0 1 .03-.04h.12ZM11.7 6.98h-.17c-.1-.04-.1-.07 0-.09a.9.9 0 0 1 .33 0c.15.03.36-.02.54-.04l.2-.04c.23.1.22.15-.02.16l-.88.01Z" fill="#898B8B"/><path d="M7.88 6.96c.26-.05.5-.05.71 0 .15.04.3-.04.38 0 .02 0 .03.01.03.02 0 .02 0 .04-.02.05a17.25 17.25 0 0 1-2.4.01 6.44 6.44 0 0 0-1.07-.06c-.1 0-.18-.01-.22-.05-.03-.02-.03-.04 0-.04.54-.03.89-.04 1.04-.02l1.55.09Z" fill="#B7BAB6"/><path d="M9.75 6.99c.29 0 .67-.04 1.15-.1.1-.02.2-.01.32.01.04 0 .04.02 0 .04-.1.07-.19.1-.25.1l-1.2.04A.35.35 0 0 1 9.55 7c-.04-.03-.03-.05 0-.07.04 0 .08 0 .12.03.03.02.06.03.1.03Z" fill="#898B8B"/><path d="M6.5 7.14c1.5.06 3 .08 4.5.05.2 0 .38-.04.55-.09h1.1c.02 0 .02.01.02.03l-.02.03-.02.02H11.68c-.15 0-.26-.02-.4.04a.62.62 0 0 1-.23.07c-1.42 0-2.83.01-4.24.04a6.5 6.5 0 0 0-1.4-.18c-.02-.01-.02-.02 0-.02a3.2 3.2 0 0 1 1.1.01Z" fill="#B7BAB6"/><path d="M11.68 7.18c-.03.03-.04.06-.04.07a4.27 4.27 0 0 1 .58.05l-.11.01c-.02.02-.02.04 0 .05a1 1 0 0 0 .68.05l-.13 1.23-.06-.03a.4.4 0 0 0-.03-.28.08.08 0 0 0-.08-.05c-.23 0-.45.05-.64.18-.07.03-.12 0-.15-.1a.09.09 0 0 0-.06-.06l-.17-.06a.09.09 0 0 1-.06-.05c-.04-.12-.1-.17-.2-.18l.28-.05v-.03c-.6.03-1.2-.01-1.8-.12l1.24-.03c.01 0 .02 0 .02-.02v-.03l-.02-.02-1.25-.02c-.16-.04-.11-.08.15-.12l.36-.01a3.7 3.7 0 0 0 1.06-.06v-.04a.07.07 0 0 0-.03-.04.07.07 0 0 0-.04-.02l-1.16.03-3.36-.06c.1 0 .16-.02.15-.04 1.41-.03 2.82-.04 4.24-.04.05 0 .13-.02.23-.07.14-.06.25-.04.4-.04Z" fill="#3A3639"/><path d="m6.66 7.37 3.36.06.15.03c.04 0 .05.02.04.05a.1.1 0 0 1-.02.05h-.36l-3.4-.03a1.5 1.5 0 0 0-.88-.1c-.2.05-.2.09.01.11l.34.06c.1.02.1.04 0 .07-.24.06-.46 0-.66-.2a.07.07 0 0 1 .03-.12c.45-.13.93 0 1.4.02Z" fill="#B7BAB6"/><path d="M11.56 7.46c.06 0 .11-.03.11-.06s-.06-.05-.12-.05c-.07.01-.12.04-.11.07 0 .03.06.05.12.04ZM10.2 7.56a.1.1 0 0 0 .01-.05c0-.03 0-.05-.04-.05l-.15-.03 1.16-.03c.02 0 .03 0 .04.02.02 0 .03.02.03.04v.04a.02.02 0 0 1-.01.02c-.35.06-.7.07-1.05.04Z" fill="#696868"/><path d="M9.83 7.57c-.26.04-.31.08-.15.12-1.2 0-2.2 0-3.04-.04a.46.46 0 0 1-.22-.08l.02-.04 3.4.04Z" fill="#898B8B"/><path d="M6.42 7.57c.08.05.16.08.22.08.83.04 1.85.05 3.04.04l1.25.02.01.02v.03l-.01.02-1.25.03a61.48 61.48 0 0 0-3.42-.04c-.06 0-.09-.04-.08-.1.05-.08.13-.11.24-.1Z" fill="#B7BAB6"/><path d="M12.17 7.68c.23 0 .42-.03.42-.06s-.19-.06-.42-.06c-.24 0-.43.02-.43.06 0 .03.2.06.43.06Z" fill="#696868"/><path d="M6.18 7.66c0 .07.02.1.08.11.1.02.2.02.3.02a61.5 61.5 0 0 1 3.12.02 8.01 8.01 0 0 0 1.81.12v.03l-.29.05-1.24.02a.06.06 0 0 0-.06.06c0 .1-.05.14-.17.15a.1.1 0 0 0-.08.05.21.21 0 0 0-.01.1c0 .03-.02.05-.05.06a.37.37 0 0 0-.19.1L9.3 9c-.08 0-.12-.05-.14-.14-.01-.03-.03-.05-.06-.05l-.27-.02c0-.02-.04-.04-.1-.05l.45-.03s.02 0 .02-.02l.01-.02v-.03a.03.03 0 0 0-.03-.04h-.53c-.03 0-.05.02-.05.05l-.01.03a.12.12 0 0 1-.04-.02.08.08 0 0 1-.03-.06c0-.07-.05-.12-.16-.15a.04.04 0 0 1-.02-.06c.03-.04 0-.08-.05-.12a.11.11 0 0 0-.05 0l-.05-.01c-.03 0-.05-.02-.06-.06-.01-.11-.11-.16-.3-.15a.73.73 0 0 1 .3-.06l.01-.03c0-.02-.01-.03-.03-.03L6 7.85l.18-.19Z" fill="#898B8B"/><path d="m6 7.85 2.1.07c.02 0 .03 0 .03.03v.02H8.1c-.1 0-.2.03-.28.07l-1.18-.02A.95.95 0 0 1 6.3 8l-.34-.07-.5-.07c-.13-.01-.13-.03 0-.06.17-.03.35-.02.54.04Z" fill="#B7BAB6"/><path d="M12.46 8.16c.12-.03.22-.1.2-.13 0-.04-.11-.04-.24 0-.13.03-.22.09-.21.13.01.03.12.04.25 0Z" fill="#898B8B"/><path d="M6.57 8.19c-.1.05-.2.07-.3.08-.03 0-.05.02-.06.05v.04c.01.02.02.03.01.05 0 .02 0 .03-.02.05a.14.14 0 0 1-.05.03.17.17 0 0 1-.07.01c-.22-.01-.41 0-.58.03l-.02.01v.03c0 .02.01.03.03.03.2-.03.37-.04.5-.02.17.02.17.05 0 .09l-.19.1c-.04.02-.04.04 0 .07.24.23.47.35.67.35h1.35c.03 0 .06.02.1.05l-.01.06-.05.02c-.54.08-1.1.04-1.65.07-.1 0-.16-.03-.27-.07-.03-.01-.04 0-.04.02v.06a.03.03 0 0 0 .03.03l1 .08c-.28.13-.5.18-.7.14a28 28 0 0 0-1.09-.2l-.38-.22c-.04-.02-.04-.04 0-.05l.31-.06a.02.02 0 0 0 .02-.02c0-.02 0-.03-.02-.03a10.87 10.87 0 0 0-.6-.05V9L4.52 9c.15-.06.28-.14.38-.25a.08.08 0 0 1 .06-.03h.4a.07.07 0 0 0 .07-.06v-.3a.06.06 0 0 1 .02-.04.05.05 0 0 1 .04-.01l.47.03h.02v-.02l.05-.07c.01-.02 0-.04-.02-.03a.7.7 0 0 1-.5-.1c-.14-.1-.12-.13.03-.1.27.07.57.08.9.05.04 0 .07 0 .1.02.03.03.05.06.04.1Z" fill="#B7BAB6"/><path d="M7.83 8.04c.18-.01.28.04.3.15 0 .04.02.06.05.06h.05l.05.01c.06.04.08.08.05.12a.04.04 0 0 0 .02.06c.1.03.16.08.16.15 0 .03.01.05.03.06l.04.02.14.06c.06.01.1.03.1.05-.1 0-.17 0-.2.05a.88.88 0 0 0-.17.24.1.1 0 0 1-.07.06l-.27.06-.18.05c-.03-.03-.06-.05-.09-.05H6.5c-.2 0-.43-.12-.68-.35-.03-.03-.03-.05.01-.07.1-.06.17-.1.2-.1.16-.04.16-.07 0-.09-.14-.02-.3-.01-.51.02-.02 0-.03-.01-.03-.03v-.03l.02-.01c.17-.03.36-.04.58-.03h.07l.05-.04a.08.08 0 0 0 .03-.05c0-.02 0-.03-.02-.05v-.04c0-.03.03-.05.06-.05.1 0 .2-.03.3-.08.03 0 .06-.02.08-.04.03-.03.03-.05.02-.09l-.02-.04 1.18.02Z" fill="#0E0E14"/><path d="M11.2 8c.1.02.17.07.2.18.02.03.04.05.07.06l.17.06a.09.09 0 0 1 .06.05c.03.1.08.14.15.11l.39.03a.05.05 0 0 1 .03.02l.03.04c.01.03 0 .04-.03.04h-.35c-.01 0-.02 0-.02.02v.04c0 .01 0 .02.02.02.1 0 .21 0 .31.04.04.01.06.04.07.07 0 .05.03.1.07.16.02.03.02.05 0 .08-.29.25-.64.32-1.04.2a4.53 4.53 0 0 0-1.28.02c-.02.02-.02.03 0 .05l.02.01c.4.07.8.08 1.2.05.1 0 .16.04.17.12l-.56.03c-.04 0-.05.02-.03.05 0 .02.03.05.07.07l-.03.06-.3-.03c-.07-.08-.13-.12-.17-.13L10 9.47l-.27-.08c-.05-.01-.06-.03-.02-.07l.08-.08c.03-.03.02-.05-.02-.05a.3.3 0 0 0-.19.05.03.03 0 0 1-.03-.03c.08-.3.03-.52-.15-.66.04-.04.1-.08.2-.1.02 0 .04-.03.04-.06l.01-.1a.1.1 0 0 1 .08-.05c.12-.01.17-.06.17-.15a.06.06 0 0 1 .06-.06l1.24-.02Z" fill="#10172C"/><path d="M8.98 8.23c.11 0 .2-.03.2-.06 0-.04-.09-.07-.2-.07-.1 0-.2.03-.2.06 0 .04.1.07.2.07Z" fill="#B7BAB6"/><path d="M12.6 8.6c-.06-.03-.1-.04-.14-.02-.03.02-.03.05-.02.08.05.09.07.12.07.22 0 .12.06.18.18.18.36-.02.6-.02.73-.01l.08.57-.23.83c-.11.05-.29.04-.51-.02a.13.13 0 0 1-.1-.14l.02-.06a.34.34 0 0 1 .15-.14.07.07 0 0 0 .05-.07v-.3a.1.1 0 0 0-.05-.09.17.17 0 0 0-.1-.03.08.08 0 0 0-.07.06c-.05.12-.14.2-.28.22a.08.08 0 0 0-.05.14c.07.07.1.13.07.2a.1.1 0 0 1-.07.07.57.57 0 0 1-.2.04l-.14-.05v-.03c-.01-.02-.02-.03-.04-.03l-2.04-.03c-.02 0-.02 0-.01.02v.03l.02.01h.01l1.22.05c0 .14.17.2.52.18.02 0 .03 0 .04.02a.04.04 0 0 1 0 .04l-.01.01c-.1.05-.17.1-.2.15a.08.08 0 0 1-.07.05.87.87 0 0 0-.3.05c-.06.03-.06.06.01.07.02 0 .03.02.04.03.01.03 0 .05-.02.06-.2.07-.37.1-.54.1-.2-.11-.38-.11-.54 0l-.88-.32a.05.05 0 0 1-.03-.03c0-.03-.02-.04-.02-.02v-.08c.03-.11.1-.17.2-.17.04 0 .04-.02.03-.04l-.19-.25c.07-.23-.05-.38.07-.65a.25.25 0 0 0 .02-.1V9l.12-.44c.18.14.23.36.15.66a.03.03 0 0 0 .03.03.3.3 0 0 1 .19-.05c.04 0 .05.02.02.05l-.08.08c-.04.04-.03.06.02.07l.27.08c.12.13.26.15.42.05.04 0 .1.05.18.13a25.7 25.7 0 0 1-.73.13c0 .02 0 .03.02.03.2.02.34.07.4.17a1 1 0 0 0-.36.06c-.05.02-.05.03.01.04.53.02 1.07.02 1.62-.01.3-.02.3-.04 0-.07l-.34-.05.82-.12c.03 0 .04-.02.03-.05-.02-.06-.07-.08-.15-.06-.33.06-.68.04-1.03-.04l.03-.06 1.04-.05a.02.02 0 0 0 .03-.02V9.5l-.02-.02-.53-.02c-.01-.08-.07-.11-.17-.12.06-.01.08-.06.06-.13.4.12.75.05 1.03-.2.03-.03.03-.05.01-.08a.35.35 0 0 1-.07-.16.09.09 0 0 0-.07-.07.89.89 0 0 0-.31-.04c-.01 0-.02 0-.02-.02v-.04c0-.01 0-.02.02-.02h.35c.03 0 .04-.01.03-.04l-.03-.04-.01-.01-.02-.01-.39-.03c.2-.13.4-.19.64-.18.04 0 .06.02.08.05a.4.4 0 0 1 .03.28Z" fill="#4F5262"/><path d="m8.72 8.73-.14-.06v-.03c.01-.03.03-.05.06-.05h.53a.03.03 0 0 1 .03.04v.05l-.03.02-.45.03Z" fill="#B7BAB6"/><path d="m12.6 8.6.06.04c.03.04.07.06.13.05.32-.03.52.1.63.36h-.73c-.12.01-.18-.05-.18-.17 0-.1-.02-.13-.07-.22-.01-.03 0-.06.02-.08.03-.02.08 0 .14.03Z" fill="#898B8B"/><path d="M7.07 8.86c.26-.02.46-.07.46-.11 0-.05-.21-.07-.47-.06-.25.01-.46.06-.45.1 0 .05.2.08.46.07Z" fill="#B7BAB6"/><path d="M10.89 8.87c.24 0 .44-.03.44-.08s-.2-.1-.44-.1-.44.03-.44.08.2.1.44.1Z" fill="#696868"/><path d="m8.82 8.78.27.02c.03 0 .05.02.06.05.02.09.06.13.14.14l-.01.42c0 .03 0 .06-.02.09-.11.27 0 .42-.07.65a.57.57 0 0 1-.35.02c-.03 0-.05-.02-.05-.06v-.54c0-.03.02-.06.05-.06a.77.77 0 0 1 .28-.03c.01 0 .02 0 .02-.02l-.01-.05a.03.03 0 0 0-.03-.03l-.42.05a.07.07 0 0 1-.08-.07l.02-.53c.03-.04.1-.06.2-.05Z" fill="#B7BAB6"/><path d="m8.62 8.83-.02.53a.07.07 0 0 0 .08.07l.41-.05a.03.03 0 0 1 .04.03v.05l-.01.02c-.1 0-.19 0-.28.03-.03 0-.05.03-.05.06v.54c0 .04.02.06.05.06.12.04.23.03.35-.02l.19.25c.01.02 0 .04-.02.04-.11 0-.18.06-.21.17-.1-.08-.2-.1-.3-.03-.3.16-.59.27-.88.3a.37.37 0 0 0-.11.03c-.1.04-.11.08-.06.12-.31-.04-.63-.08-.95-.1a.46.46 0 0 1-.26-.1.52.52 0 0 1-.16-.24 2 2 0 0 1 .73.06c.07.02.17 0 .3-.05.03-.01.03-.02.02-.04l-.04-.03-.02-.01H7.4c-.1.02-.2.01-.29-.03a.14.14 0 0 0-.05 0l-.53-.05a.3.3 0 0 0 .08-.14c.11 0 .23 0 .34.02.13.02.24.03.31.02.4-.06.76-.09 1.09.12h.03l.02-.02a.05.05 0 0 0-.01-.06.73.73 0 0 0-.66-.2c-.13.02-.27.03-.44.01a9.86 9.86 0 0 0-.68-.02v-.07l1.66.02c.06 0 .07-.02.02-.07l-.04-.04a.15.15 0 0 0-.11-.04H6.2a.1.1 0 0 0 0-.08c.58-.02 1.16-.02 1.75-.02.15 0 .26-.03.32-.11.08-.12.05-.15-.08-.1a.8.8 0 0 1-.4.03c.03-.04.03-.07 0-.1.16 0 .32-.02.48-.08a.06.06 0 0 0 0-.12h-.1c.03-.06 0-.12-.07-.2l.27-.06a.1.1 0 0 0 .07-.06c.04-.09.1-.17.17-.24Z" fill="#696868"/><path d="M8.11 9.19c.08.08.1.14.07.2l-.54.13c-.03.01-.04.02 0 .04s.1.03.17.03c.02.03.02.06 0 .1l-.66-.02c.11-.14.05-.2-.2-.16l-1-.08a.03.03 0 0 1-.03-.03v-.06c0-.02.01-.03.04-.02.1.04.17.07.27.07.55-.03 1.11.01 1.65-.07.02 0 .04 0 .05-.02.02-.02.02-.04 0-.06l.18-.05Z" fill="#3A3639"/><path d="M11.33 9.22c.02.07 0 .12-.06.13a5.09 5.09 0 0 1-1.22-.06c-.02-.02-.02-.03 0-.05l.01-.02c.43-.05.86-.05 1.27 0Z" fill="#898B8B"/><path d="M8.18 9.39h.1a.06.06 0 0 1 0 .12 1.12 1.12 0 0 1-.64.05c-.04-.02-.03-.03 0-.04l.54-.13Z" fill="#B7BAB6"/><path d="M6.95 9.5c.25-.03.31.03.2.17-.6.02-1.2.02-1.83 0-.05 0-.08.02-.09.07-.16.02-.17.08-.02.17-.16-.05-.3-.05-.4 0-.03 0-.03.02-.01.04l.02.02-.06.01-.08-.01c-.04-.01-.05-.04-.05-.07v-.25c0-.03.01-.05.04-.05h.44c.04 0 .06-.02.06-.06v-.1a28 28 0 0 1 1.09.2c.18.05.41 0 .7-.13Z" fill="#696868"/><path d="M10.42 9.52c-.16.1-.3.08-.42-.05l.42.05ZM11.44 9.47l.53.02s.02 0 .02.02v.04l-.01.01h-.02l-1.04.06a.22.22 0 0 1-.07-.07c-.02-.03-.01-.05.03-.05l.56-.03Z" fill="#898B8B"/><path d="M13.27 10.45c-.05.55-.3.88-.73.99-.2.05-.24.14-.28.33l-.06-.43a.07.07 0 0 0-.12-.06c-.04.04-.07.1-.06.21-.23.11-.52.12-.86.02a.13.13 0 0 0-.08-.03c-.05-.03-.08-.06-.08-.08v-.02l.01-.02.03-.01a.1.1 0 0 1 .03-.01l.62-.01c.05 0 .07-.02.08-.07l.02-.31a.1.1 0 0 1 .03-.07l.22-.23a.06.06 0 0 0 .02-.05c0-.1.02-.2.07-.27.07 0 .14-.01.2-.04a.1.1 0 0 0 .07-.07c.02-.07 0-.13-.07-.2a.08.08 0 0 1-.02-.08.08.08 0 0 1 .07-.06c.14-.02.23-.1.28-.22a.08.08 0 0 1 .08-.05c.03 0 .06 0 .09.02a.1.1 0 0 1 .05.08v.3c0 .04-.02.07-.05.08a.34.34 0 0 0-.15.14.13.13 0 0 0 .03.17l.05.03c.22.06.4.07.51.02Z" fill="#10172C"/><path d="m10.6 9.65.3.03c.34.08.69.1 1.02.04.08-.02.13 0 .15.06.01.03 0 .05-.03.05l-.82.12-.92.03c-.07-.1-.2-.15-.4-.17-.03 0-.04-.01-.03-.03a25.66 25.66 0 0 0 .72-.13Z" fill="#696868"/><path d="m5.23 9.74.98.15a.1.1 0 0 1 0 .08l-.4.03c-.02 0-.02.01-.02.02v.03l.04.02.77.03.01.07-.84.02v.05c0 .02 0 .02.02.02l.82.04a.3.3 0 0 1-.08.14l-.44-.02c-.01 0-.02 0-.02.02v.02l.01.01.35.12c.04.1.09.19.16.25.06.05.14.08.26.09.32.02.64.06.95.1l.13.03.02.04c0 .02-.02.04-.04.05l-.51.07c-.17.02-.17.07 0 .12h.15c.09 0 .15.02.18.05.04.03.03.05-.01.05l-.44.06v.05l.02.01.02.01.77.03.01.01v.04l-.01.02-1.21.06-.84-.03-.02-.01-.02-.03a.05.05 0 0 1-.01-.05.05.05 0 0 1 .04-.03h.65c.02-.01.03-.03.04-.06 0-.03-.01-.04-.04-.04h-.3c-.02 0-.03 0-.03-.03v-.04c0-.01 0-.02.02-.03l.18-.03c.24-.07.24-.1 0-.13-.21-.02-.45-.01-.72.01l-.03-.14.12-.01c.06-.03.06-.05-.01-.07a1.93 1.93 0 0 0-.74.01c-.05 0-.1-.03-.14-.12.28.02.5 0 .7-.03.16-.03.16-.06 0-.09a2.18 2.18 0 0 0-.74.03c-.04 0-.09-.04-.15-.12.24.01.48 0 .72-.02a.1.1 0 0 0 .08-.04l.04-.02c.03-.03.02-.05 0-.06a.22.22 0 0 1-.1-.17l.03-.04a.04.04 0 0 0-.04-.05 2.02 2.02 0 0 0-.8.04c0-.03 0-.08.02-.12l.8-.02c.02 0 .02-.01.02-.03v-.04c0-.01 0-.02-.02-.02l-.82-.03-.01-.09h.06c.24.03.36.01.39-.07-.15-.1-.14-.15.02-.17Z" fill="#3A3639"/><path d="M5.21 9.9c-.02.1-.15.11-.39.07a.1.1 0 0 1-.02-.02c-.02-.02-.02-.03 0-.04.11-.05.25-.05.41 0ZM6.21 9.97h1.93c.04 0 .08.01.11.04l.04.04c.05.05.04.07-.02.07L6.6 10.1a13.15 13.15 0 0 1-.8-.05l-.01-.03s0-.02.02-.02l.4-.03ZM4.77 10.07l.82.03c.02 0 .02 0 .02.02v.04c0 .02 0 .03-.02.03l-.8.02c-.05 0-.08-.03-.08-.07 0-.03.01-.05.06-.07ZM6.61 10.17c.23 0 .45 0 .68.02a2 2 0 0 0 .44 0c.25-.04.47.01.66.2a.05.05 0 0 1 .01.05c0 .02-.01.03-.02.03h-.03c-.33-.22-.7-.19-1.09-.13-.07 0-.18 0-.3-.02a1.12 1.12 0 0 0-.35-.02l-.82-.04c-.01 0-.02 0-.02-.02v-.05l.84-.02Z" fill="#B7BAB6"/><path d="m11.99 10.28.14.05a.53.53 0 0 0-.07.27.07.07 0 0 1-.02.05l-.22.23a.1.1 0 0 0-.03.07l-.02.3c0 .06-.03.08-.08.08l-.62.01a.1.1 0 0 0-.03 0l-.03.02-.01.02v.02c0 .02.03.05.08.08l-.74-.03c-.01 0-.03 0-.04.02l-.05.05c-.02.02-.02.03.02.04.32.03.6.03.85 0 .03 0 .04-.02.04-.05.34.1.63.1.86-.02-.01.03.01.07.06.11.03.03.02.05 0 .07a.22.22 0 0 1-.14.04 7.65 7.65 0 0 0-.45.03.07.07 0 0 0-.01.05v.27l-.02.04-.03.01a.68.68 0 0 0-.35.15l-.29.12-.67-.36c.06-.01.11-.03.14-.05.04-.03.05-.08.04-.13a2.15 2.15 0 0 1-.02-.2c0-.04-.02-.06-.06-.07-.04 0-.07-.01-.07-.04s0-.05.04-.05h.04c.04-.02.04-.04 0-.07a1.86 1.86 0 0 0-2.02-.23.31.31 0 0 1 0-.17c.31-.17.54-.33.94-.32 0-.02.01-.01.02.02 0 .02.02.03.03.03l.88.32c.22.05.4.05.54 0 .17 0 .34-.03.54-.1.03-.01.03-.03.02-.06a.05.05 0 0 0-.04-.03c-.07-.01-.07-.04 0-.07a.87.87 0 0 1 .3-.05c.03 0 .05-.02.06-.05.03-.05.1-.1.2-.15a.04.04 0 0 0 .02-.04l-.01-.01c0-.02-.02-.02-.04-.02-.35.02-.52-.04-.52-.18l.43-.05.1.01c.1.04.2.04.31.02Z" fill="#3A3639"/><path d="M5.58 10.38c-.27.07-.55.06-.86-.03.34-.08.62-.1.86-.06a.04.04 0 0 1 .03.05c0 .03-.01.04-.03.04ZM8.96 10.43c.1 0 .18-.04.18-.08s-.08-.07-.18-.07c-.1 0-.18.04-.18.08s.08.07.18.07Z" fill="#B7BAB6"/><path d="M4.72 10.35c.3.09.6.1.86.03 0 .07.04.13.1.17.03.01.03.03 0 .06a.08.08 0 0 1-.04.01c0-.04-.02-.06-.05-.07-.24-.02-.5 0-.8.04a.63.63 0 0 1-.01-.26 2 2 0 0 1-.06.02Z" fill="#696868"/><path d="m6.53 10.44.53.04.05.01c.09.04.18.05.29.03h.02l.02.01.04.04-.01.03c-.14.05-.24.07-.31.05a2 2 0 0 0-.73-.06l-.35-.12v-.01l-.01-.02c0-.02.01-.02.02-.02l.44.02ZM8.12 10.56a1.38 1.38 0 0 0-.56.02.04.04 0 0 1-.03-.03v-.02l.01-.04.03-.02c.15-.04.3-.06.48-.05a.2.2 0 0 1 .1.03l.14.06c.18-.02.2.03.09.16-.08.09-.23.12-.46.1-.02 0-.03-.01-.03-.03-.01-.03 0-.05.03-.06.1-.02.17-.05.21-.08.04-.02.04-.04 0-.04Z" fill="#B7BAB6"/><path d="M10.4 10.58c.2.01.37 0 .38-.04 0-.04-.16-.08-.36-.1-.2 0-.37 0-.37.05 0 .03.16.07.36.09ZM12.65 10.7a.13.13 0 0 1-.08-.03c-.03-.03-.03-.05.01-.07.09-.05.2-.08.34-.08.09 0 .13.05.1.14a.39.39 0 0 0 0 .17c.02.05 0 .07-.05.08l-.3.04a.1.1 0 0 0-.09.07l-.01.04-.01.01h-.04l-.01-.02a.43.43 0 0 1 .16-.3c.04-.03.03-.05-.02-.05Z" fill="#898B8B"/><path d="M5.64 10.62a.1.1 0 0 1-.08.05c-.24.03-.48.03-.72.02-.02-.02-.04-.04-.04-.06v-.04c.29-.05.55-.06.79-.04.03 0 .05.03.05.07ZM9.15 10.61v.08c-.4 0-.63.15-.95.32l-.27.05-.13-.03c-.05-.04-.03-.08.06-.12a.37.37 0 0 1 .11-.03c.29-.03.58-.14.88-.3.1-.06.2-.05.3.03Z" fill="#B7BAB6"/><path d="M10.37 10.85c.2.04.36.04.36 0 .01-.02-.14-.08-.33-.12-.2-.03-.36-.03-.37 0 0 .03.15.09.34.12Z" fill="#898B8B"/><path d="M5.03 10.9c-.02 0-.04-.03-.04-.09.26-.05.5-.06.73-.03.17.03.17.06 0 .09-.18.04-.41.05-.69.03ZM5.8 11.09c-.25.07-.46.05-.63-.07.26-.05.5-.05.74 0 .07 0 .07.03 0 .06a.25.25 0 0 1-.1 0Z" fill="#B7BAB6"/><path d="M10.12 12.02c-.45-.15-.9-.24-1.35-.26-.14 0-.15-.03 0-.06.07-.02.17-.03.31-.04h.01v-.04c.01-.03 0-.04-.02-.04l-.37-.02c-.04 0-.05-.02-.03-.06 0-.02.03-.03.08-.03a.03.03 0 0 0 .02-.06.14.14 0 0 0-.09-.03l-.32-.03a.22.22 0 0 1-.11-.04c-.04-.04-.06-.09-.04-.13a1.86 1.86 0 0 1 2.01.23c.05.03.05.05 0 .06h-.03c-.03.01-.05.03-.04.06 0 .03.03.04.07.04.04 0 .06.03.06.06l.02.2c.01.06 0 .1-.04.14a.28.28 0 0 1-.14.05Z" fill="#0E0E14"/><path d="M10.62 11.05a.93.93 0 0 1-.54 0c.16-.1.34-.1.54 0ZM8.2 11.01a.31.31 0 0 0 0 .17c0 .04 0 .09.05.13l.11.04.32.03c.04 0 .07 0 .1.03a.03.03 0 0 1 0 .05h-.03c-.05.01-.08.02-.08.04-.02.04 0 .06.03.06l.37.02c.02 0 .03.01.03.04v.03l-.02.01c-.14 0-.24.02-.32.04-.14.03-.13.05.01.06.45.02.9.1 1.35.26l.67.36a3 3 0 0 1-.67-.23c-.19-.1-.33-.15-.44-.17-.44-.08-.9-.01-1.35-.02-.46-.15-.93-.2-1.42-.2l-.03-.03 1.2-.06c.02 0 .03 0 .03-.02v-.04h-.02l-.77-.04a.04.04 0 0 1-.03-.02l-.02-.04.01-.01.44-.06c.04 0 .05-.02.01-.05-.03-.03-.1-.04-.18-.04.18-.03.33-.02.45 0 .16.04.18 0 .08-.13-.03-.04-.09-.06-.17-.07.02-.01.04-.03.04-.05 0-.01 0-.03-.02-.04l.27-.05Z" fill="#898B8B"/><path d="M7.9 11.15c.1 0 .15.03.19.07.1.12.07.17-.09.13a1.43 1.43 0 0 0-.45 0l-.16-.01c-.16-.05-.16-.1.01-.12l.5-.07Z" fill="#B7BAB6"/><path d="m6.88 11.73.03.04c-.14.05-.22.15-.25.31-.33-.1-.53-.09-.61.04a.85.85 0 0 1-.24-.36l.02-.53c.27-.02.5-.03.71-.01.25.02.25.06.01.13a14.46 14.46 0 0 1-.2.06v.04c0 .02 0 .03.02.03h.3c.04 0 .05.01.05.04s-.02.05-.04.06h-.65a.05.05 0 0 0-.04.03.05.05 0 0 0 0 .05l.03.03h.02l.84.04ZM12.26 11.77l-.24.7c-.15.38-.45.51-.72.78a.15.15 0 0 1-.09.04c-.1.02-.14.06-.1.14v.02a.06.06 0 0 1-.05.06l-.28.04c-.04 0-.06.02-.06.06-.02.13-.1.19-.25.19l-.37-.02a.15.15 0 0 0 .03-.09l.33-.03c.12-.01.13-.05.02-.1a.96.96 0 0 0-.2-.08c-.02 0-.02-.01-.01-.03l.02-.03a.05.05 0 0 1 .06-.02.7.7 0 0 0 .4-.02c.09-.04.09-.06 0-.07l-.4-.02a.04.04 0 0 1-.05-.04v-.04c0-.02 0-.04.03-.04h.7c.02 0 .03 0 .03-.03V13.08h-.7c-.02 0-.04-.01-.04-.04V13a.01.01 0 0 1 0-.01l.76-.04c.02 0 .04 0 .06-.02l.03-.04v-.02a.02.02 0 0 0-.02-.01h-.65c-.06 0-.1 0-.15-.02-.1-.07-.1-.1.03-.1.4 0 .74-.01 1.01-.04.17-.01.18-.04.01-.08a2.74 2.74 0 0 0-.27-.05l-.01-.03c0-.01 0-.02.02-.03l.31-.06c.08-.02.09-.05.03-.1-.07-.06-.2-.09-.4-.09.09-.07.2-.12.35-.15a.06.06 0 0 0 .05-.05v-.27a.07.07 0 0 1 .06-.07l.4-.01c.06 0 .1-.02.14-.04.02-.02.03-.04 0-.07-.05-.04-.07-.08-.06-.1 0-.11.02-.18.06-.22a.07.07 0 0 1 .12.06l.06.43Z" fill="#696868"/><path d="M11.08 11.48c.03 0 .05.01.08.03 0 .03-.01.04-.04.04-.24.04-.53.04-.85 0-.04 0-.04 0-.02-.03l.05-.05.04-.02.74.03Z" fill="#898B8B"/><path d="M10.78 11.8c.26 0 .46-.02.46-.05 0-.04-.2-.07-.46-.07-.25 0-.46.02-.46.05 0 .04.2.07.46.08Z" fill="#696868"/><path d="M6.05 12.12c.07.2.2.33.42.25.15-.06.31-.1.48-.1.05-.01.05-.03.01-.05a.9.9 0 0 0-.3-.14c.03-.16.1-.26.25-.31.49-.02.96.04 1.42.19h-.09c-.03.01-.05.03-.05.06 0 .06-.03.1-.1.1-.04-.12-.11-.16-.21-.12l-.73.3c-.04.01-.03.02 0 .03.14.02.28 0 .42-.06.03.13.02.2-.03.24-.15.08-.25.1-.32.02l-.88-.06h-.03a.1.1 0 0 0-.04.03c-.01.02 0 .05.02.1 0 .07.01.14.05.2.01.04.03.06.07.06l.52.04c-.08.07-.22.1-.4.07a.04.04 0 0 0-.05.03c-.02.05 0 .08.08.08a3.67 3.67 0 0 1 .52.05l.02.03h-.01a1.2 1.2 0 0 0-.47.06 1.37 1.37 0 0 1-.67-1 .81.81 0 0 0-.1-.24.18.18 0 0 1-.03-.1v-.12c.04.15.12.27.23.36Z" fill="#3A3639"/><path d="M8.33 11.96c.44 0 .91-.06 1.35.02.1.02.25.08.44.17a3 3 0 0 0 .67.23l.3-.12c.19 0 .32.03.39.09.06.05.05.08-.03.1l-.31.06c-.02 0-.02.02-.02.03l.01.03.03.01.24.04c.17.04.16.07 0 .08-.28.03-.62.04-1.02.04-.13 0-.14.03-.03.1.04.02.09.03.15.03a6.16 6.16 0 0 1 .67.01v.01l-.03.04a.07.07 0 0 1-.06.02l-.75.03-.01.01a.01.01 0 0 0 0 .01v.04c0 .03.02.04.04.04h.7V13.14c0 .02 0 .03-.03.03h-.7c-.02 0-.03.02-.03.04v.04a.04.04 0 0 0 .04.04l.4.02c.1.01.1.03.01.07a.7.7 0 0 1-.4.02c-.02 0-.04 0-.06.02l-.02.03v.03c.1.03.17.05.21.08.1.05.1.09-.02.1l-.33.03-.6-.05c-.04 0-.04-.02-.01-.04l.07-.06h.02c.2.02.32.04.34.03.38-.1.37-.16-.02-.15l-.76-.01-.58-.07.58-.08v-.03c0-.02 0-.03-.03-.03l-.92-.03c-.02 0-.04-.02-.07-.05a.03.03 0 0 1 0-.03.1.1 0 0 0 .03-.02c.01-.03 0-.05-.03-.07a.43.43 0 0 0-.14-.05c-.03 0-.04-.02-.05-.05 0-.1-.04-.16-.12-.16-.4 0-.74-.04-.99-.12l.36-.09c.08.07.18.06.33-.02.05-.03.06-.11.03-.24l.52-.15c.07 0 .1-.04.1-.1 0-.03.02-.05.05-.06h.1Z" fill="#191C23"/><path d="m8.09 12.12-.52.15a.76.76 0 0 1-.42.06c-.03 0-.04-.02 0-.03l.73-.3c.1-.04.17 0 .21.12Z" fill="#B7BAB6"/><path d="M6.66 12.08c.11.03.21.07.3.14.04.02.04.04-.01.04a1.9 1.9 0 0 0-.48.1c-.23.09-.35-.04-.42-.24.08-.13.28-.14.61-.04Z" fill="#898B8B"/><path d="m9.96 12.47-2 .05c-.04 0-.05-.02-.01-.05.32-.27 1.61-.1 2.03-.03v.03h-.02Z" fill="#B7BAB6"/><path d="M6.85 12.62c.25.08.58.12 1 .12.07 0 .1.05.11.16 0 .03.02.05.05.05.06.01.1.03.14.05.03.02.04.04.03.07l-.02.02a.03.03 0 0 0 0 .03c.02.03.04.05.06.05l.92.03c.02 0 .03.01.03.03v.02l-.58.1-.39.04c-.01 0-.02 0-.02.02v.03c0 .01.01.02.03.02.33.05.65.03.96-.05l.76.01c.4 0 .4.04.02.15a2.08 2.08 0 0 1-.35-.04l-.08.07c-.03.02-.03.04 0 .04l.6.05c0 .03 0 .06-.02.09H7.35a.07.07 0 0 1-.07-.05v-.04l.03-.03.02-.01c.04-.02.04-.04 0-.05l-.36-.09c-.08-.02-.13-.05-.14-.1l.93-.04c.02 0 .03-.01.03-.02v-.03l-.01-.01a16.97 16.97 0 0 0-.48-.05.08.08 0 0 1-.02-.04.03.03 0 0 1 0-.03l.01-.01h.27l.01-.02v-.03l-.01-.02a.57.57 0 0 1-.23-.07c-.04-.02-.04-.04 0-.06l.06-.01c.02-.01.03-.03.02-.06 0-.01-.01-.02-.03-.02a.94.94 0 0 0-.45 0l-.52-.03a.08.08 0 0 1-.07-.05.42.42 0 0 1-.05-.22c.23-.02.42 0 .56.03Z" fill="#898B8B"/><path d="M8.32 12.61a.03.03 0 0 1 .03-.03h.32a15.08 15.08 0 0 1 1.04.03l.08.03v.02c0 .02-.12.04-.33.06l-.79.04h-.32a.03.03 0 0 1-.02-.03v-.12Z" fill="#B7BAB6"/><path d="m6.83 13.4.09-.02.02-.03-.01-.03c-.02-.02-.25-.07-.31-.1.15-.05.3-.07.47-.05 0 0 .01 0 0 0v-.04a3.67 3.67 0 0 0-.52-.05c-.08 0-.1-.03-.09-.08a.04.04 0 0 1 .05-.03c.18.03.32 0 .4-.07a.94.94 0 0 1 .45-.01c.02 0 .03 0 .03.02.01.03 0 .05-.02.06l-.05.01c-.05.02-.05.04 0 .06.06.04.14.06.22.07l.01.02v.04h-.28a.03.03 0 0 0-.01.03v.02l.02.04.04.01a16.54 16.54 0 0 1 .45.05v.03c0 .01-.01.02-.03.02l-.93.04Z" fill="#696868"/><path d="M9.17 13.4c-.31.09-.63.1-.96.06a.04.04 0 0 1-.03-.02v-.03c0-.01 0-.02.02-.02l.39-.05.58.07ZM10.22 14.05c-.13-.03-.23-.07-.37-.07l-2.32.01c-.05-.03-.05-.07 0-.12a.05.05 0 0 1 .03-.01l2.8.02c.1 0 .11.03.02.1a.7.7 0 0 1-.16.07Z" fill="#B7BAB6"/><path d="M10.22 14.05c-.36.24-.66.5-1.16.44.07 0 .09-.03.05-.1H9.1l-.02-.01-.96-.02a.16.16 0 0 0 .02-.04v-.04a.2.2 0 0 0-.04-.03c.5-.03 1-.04 1.51-.04.04 0 .08-.02.12-.06.03-.04.02-.06-.03-.06l-1.74-.03c-.03 0-.06 0-.09.02a.26.26 0 0 0-.07.05c-.02.02-.01.04.01.06a.37.37 0 0 1-.28-.2l2.32-.01c.14 0 .24.04.37.07Z" fill="#3A3639"/><path d="M8.1 14.25c-.1.01-.2 0-.29-.06-.02-.02-.03-.04-.01-.06a.26.26 0 0 1 .07-.05.19.19 0 0 1 .09-.02l1.74.03c.05 0 .06.02.03.06-.04.04-.08.06-.12.06-.5 0-1 0-1.51.04Z" fill="#B7BAB6"/><path d="m8.12 14.36.96.02a.04.04 0 0 1 .03.02c.04.06.02.09-.05.1-.28 0-.56-.02-.83-.05-.09-.01-.12-.04-.1-.09Z" fill="#696868"/><defs><linearGradient id="a" x1="3.35" y1="3.12" x2="21.9" y2="24.43" gradientUnits="userSpaceOnUse"><stop stop-color="#1A1E21"/><stop offset="1" stop-color="#06060A"/></linearGradient></defs></svg>