<!-- by TradingView --><svg width="18" height="18" viewBox="0 0 18 18" xmlns="http://www.w3.org/2000/svg"><path fill="url(#aulwpxdsa)" d="M0 0h18v18H0z"/><path opacity=".4" d="M13.8 10.57c.43.78.14 1.76-.58 2.19a1.7 1.7 0 0 1-2.22-.57L7.57 6.43a1.6 1.6 0 0 1 .64-2.19c.79-.49 1.72-.2 2.22.57l3.37 5.76Z" fill="#306A30"/><path opacity=".65" d="M7.04 12.2a1.58 1.58 0 0 1-2.22.56 1.52 1.52 0 0 1-.57-2.19l3.37-5.76a1.58 1.58 0 0 1 2.22-.57c.78.43 1.07 1.41.57 2.19l-3.37 5.76Z" fill="#43B543"/><path d="M10.63 5.62c0 .91-1.65 3.16-1.65 3.16S7.4 6.53 7.4 5.62C7.4 4.7 8.12 4 9.05 4c.93 0 1.58.77 1.58 1.62Z" fill="#4CDB4B"/><defs><linearGradient id="aulwpxdsa" x1="3.35" y1="3.12" x2="21.9" y2="24.43" gradientUnits="userSpaceOnUse"><stop stop-color="#1A1E21"/><stop offset="1" stop-color="#06060A"/></linearGradient></defs></svg>