<!-- by TradingView --><svg width="18" height="18" viewBox="0 0 18 18" xmlns="http://www.w3.org/2000/svg"><path fill="#F0F3FA" d="M0 0h18v18H0z"/><path d="M8.78 7.96c1.53-.1 1.98-.79 1.98-1.15 0-.13-.16-.26-.7-.26-1.28 0-1.4.31-3.3.31C4.42 6.86 4 5.84 4 5.53c0-.3.2-.53.37-.53.3 0 1.08.24 1.89.42.8.18 4.18.2 4.92.2.75 0 2.82.33 2.82 1.48 0 .92-.91 1.14-1.37 1.13l-2.05-.13c.31.1.94.47.94 1.12C11.52 12 7.48 14 7.4 14c-.08 0-.16-.02-.16-.11 0-.16.76-1.35.76-2.48 0-1.66-3-1.48-3-2.39 0-.66 1.88-.92 3.78-1.06Z" fill="url(#a1x1dxeqp)"/><path d="M11.52 9.22C11.52 12 7.48 14 7.4 14c-.08 0-.16-.02-.16-.11 0-.04.05-.16.14-.32.23-.46.62-1.29.62-2.11 0-.22-.07-.46-.14-.62.02-2.37 1.73-2.74 2.76-2.74.49.15.9.53.9 1.12Z" fill="url(#b1x1dxeqp)"/><path d="M9.85 6.56a7.66 7.66 0 0 1 2.22-.37c1.23 0 1.81.52 1.87 1.3.04-.11.06-.24.06-.39 0-1.15-2.07-1.48-2.82-1.48-.74 0-4.12-.02-4.92-.2l-.88-.21c-.45-.12-.83-.21-1-.21-.17 0-.38.22-.38.53C4 5.84 4.48 7 6.8 7c1.04 0 1.54-.14 1.98-.26.32-.08.62-.16 1.07-.18Z" fill="url(#c1x1dxeqp)"/><path d="M11.42 8.81c.06.12.1.26.1.41C11.52 12 7.48 14 7.4 14c-.08 0-.16-.02-.16-.11 0-.04.05-.16.14-.32.23-.46.62-1.29.62-2.11 0-.21-.06-.45-.14-.6.7-1.7 2.48-2.06 3.56-2.05Z" fill="url(#d1x1dxeqp)"/><defs><linearGradient id="a1x1dxeqp" x1="10.52" y1="6.72" x2="9.91" y2="10.67" gradientUnits="userSpaceOnUse"><stop stop-color="#FE85B3"/><stop offset="1" stop-color="#FFBBD4"/></linearGradient><linearGradient id="b1x1dxeqp" x1="11.31" y1="8.69" x2="7.73" y2="10.7" gradientUnits="userSpaceOnUse"><stop stop-color="#FE7DAE"/><stop offset="1" stop-color="#FD79AB"/></linearGradient><linearGradient id="c1x1dxeqp" x1="4.02" y1="5.57" x2="14" y2="5.67" gradientUnits="userSpaceOnUse"><stop stop-color="#FF74A9"/><stop offset="1" stop-color="#FDBFD8"/></linearGradient><linearGradient id="d1x1dxeqp" x1="10.27" y1="8.25" x2="7.77" y2="13.75" gradientUnits="userSpaceOnUse"><stop offset=".21" stop-color="#FE80B0"/><stop offset="1" stop-color="#FBBAD4"/></linearGradient></defs></svg>