<!-- by TradingView --><svg width="18" height="18" viewBox="0 0 18 18" xmlns="http://www.w3.org/2000/svg"><path fill="#181B1E" d="M0 0h18v18H0z"/><circle cx="9" cy="9" r="5" fill="#228044"/><circle cx="9" cy="9" r="4.69" fill="#135429"/><circle cx="9" cy="9" r="4.54" fill="#26994B"/><path d="M6.39 8.82a.04.04 0 0 0 0-.03.04.04 0 0 0 0-.03 6.02 6.02 0 0 0-.08-.06.42.42 0 0 1-.15-.38c0-.02 0-.04-.02-.05a.78.78 0 0 1 .03-.9.09.09 0 0 0 .01-.06c0-.13.03-.24.11-.33.07-.07.15-.1.25-.14a.1.1 0 0 0 .04-.02 1.15 1.15 0 0 1 .7-.3l.01-.02c.37-.56 1.04-.6 1.6-.36a1.15 1.15 0 0 1 .3.2h.01a1.4 1.4 0 0 1 1.05.06c.36.16.61.5.72.9a4.78 4.78 0 0 1 .1.28c.27.1.5.36.64.63.22.42.29.91.29 1.4a2 2 0 0 1-.46 1.33c-.26.32-.59.54-.95.7a4.64 4.64 0 0 1-2.56.3c-.62-.12-1.25-.46-1.53-1.1a7.74 7.74 0 0 1-.19-.13c-.18-.1-.26-.28-.24-.5v-.04c-.1-.2-.09-.38.04-.55l.05-.06.01-.02a1 1 0 0 1 .22-.72Z" fill="#1E1F1E"/><path d="m6.87 6.96.02-.02c.2-.14.5-.16.75-.13a6.9 6.9 0 0 1 .38.05v-.01c-.07-.1-.38-.17-.5-.2a.01.01 0 0 1 0-.01c.3-.46.87-.45 1.3-.24a.83.83 0 0 1 .2.14.01.01 0 0 1 0 .01c-.13.1-.23.21-.3.35a.1.1 0 0 1-.05.04.95.95 0 0 0-.49.43.15.15 0 0 1-.07.07.01.01 0 0 1-.01 0 1.48 1.48 0 0 0-.5-.33 2.41 2.41 0 0 0-.73-.15Z" fill="#26994B"/><path d="M8.46 7.24c.15-.13.32-.2.5-.22a2.52 2.52 0 0 1 1.15.19.02.02 0 0 0 0-.03 1.8 1.8 0 0 0-1.15-.32c.31-.36.83-.34 1.22-.17.4.17.56.63.62 1.06a22.87 22.87 0 0 0 .06.33.72.72 0 0 0 .06-.26c.03 0 .05 0 .08.02.41.17.61.66.7 1.08.04.24.06.5.05.77 0 .32-.09.61-.24.87-.27.45-.74.74-1.21.92a4.91 4.91 0 0 1-1.98.23A2.02 2.02 0 0 1 6.9 11V11a4.65 4.65 0 0 0 3.02-.04c.45-.17.89-.45 1.16-.86.2-.3.18-.72-.12-.93-.2-.14-.48-.08-.67.08l-.22.21a1.3 1.3 0 0 1-.3.2c-.22.12-.47.2-.74.26-.56.12-1.11.11-1.66-.02a2.54 2.54 0 0 1-.57-.2c-.12-.06-.22-.16-.36-.17l-.01-.02a.71.71 0 0 1 .2-.57h.03a.8.8 0 0 0 .82.1.01.01 0 0 0 0-.01l-.23-.01a.81.81 0 0 1-.52-.2c-.07-.06-.1-.14-.13-.23v-.01l-.12-.07a.11.11 0 0 1-.04-.06l-.02-.05a.03.03 0 0 1 0-.03h.03l.2.06a3.7 3.7 0 0 0 1 .07.27.27 0 0 0 .06 0 .5.5 0 0 0-.01.2c.03.38.32.58.63.69.2.07.4.1.6.08a1.71 1.71 0 0 0 .79-.29l-.01-.02-.38.11c-.42.12-.81.08-1.18-.12a.58.58 0 0 1-.32-.54h.01l.08.11c.12.12.25.2.42.25.37.11.76.12 1.12-.01a3.75 3.75 0 0 0 .52-.22l.24-.04a.2.2 0 0 0 .16-.19c.02-.22-.2-.27-.36-.33l-.03-.01a258.03 258.03 0 0 1-.3-.21 2.12 2.12 0 0 0-.71-.33c-.28-.07-.57-.1-.82.03l-.06.03v-.01c.18-.32.6-.37.9-.31.2.04.4.1.58.18.14.06.3.15.48.22h.02v-.02a2.5 2.5 0 0 0-.94-.49 1.53 1.53 0 0 0-.68-.02Z" fill="#26994B"/><path d="M6.45 7.28a.01.01 0 0 1-.01 0v-.01c0-.08.05-.14.13-.16l.27-.03c.42.03.84.12 1.16.43.03.03 0 .07-.02.1h-.02c-.38-.24-.8-.36-1.26-.38-.09 0-.17.02-.25.05Z" fill="#26994B"/><path d="M7.96 7.79a.02.02 0 0 1 0 .03.83.83 0 0 0-.17.4c0 .04-.02.07-.03.09-.07.07-.23.07-.32.07-.25 0-.5-.03-.76-.09-.22-.04-.39-.15-.4-.42-.02-.1 0-.19.05-.27.08-.16.2-.23.38-.23.41.02.83.13 1.2.36l.05.06ZM10.23 8.54a.13.13 0 0 1-.05.02 2.4 2.4 0 0 0-.25.05c-.13.04-.28.13-.41.18-.27.1-.55.14-.84.1-.25-.02-.53-.09-.69-.3-.13-.2-.08-.45.03-.62.13-.21.36-.27.59-.25.3.02.57.1.81.23.15.08.28.18.41.28l.1.07c.08.04.2.06.26.1.04.02.1.1.04.14Z" fill="#fff"/><path d="m6.27 10.36-.01-.08a.04.04 0 0 1 .01-.03l.02-.01h.02a4.35 4.35 0 0 0 2.85.37c.57-.13 1.07-.4 1.51-.81a.08.08 0 0 0 .01-.1l-.01-.03a.05.05 0 0 0-.07.01 3 3 0 0 1-1.19.72 4.13 4.13 0 0 1-3.17-.35l-.01-.02c-.07-.1-.02-.25.08-.31.09-.05.17-.03.26.03.33.22.73.33 1.13.39.54.07 1.07.03 1.59-.1a2.58 2.58 0 0 0 .9-.46c.18-.18.3-.33.55-.32.1.01.2.08.25.19.08.16.07.32-.03.48-.23.37-.63.63-1.04.8-.6.24-1.29.31-1.94.27a3.45 3.45 0 0 1-1.66-.54.17.17 0 0 1-.05-.1Z" fill="#BE6F4A"/><path d="M7.53 7.9c0 .1-.03.17-.1.23a.3.3 0 0 1-.42 0 .32.32 0 0 1 0-.44.3.3 0 0 1 .43 0c.05.06.09.13.09.22ZM9.39 8.37a.4.4 0 0 1-.11.27.37.37 0 0 1-.27.11.37.37 0 0 1-.26-.11.39.39 0 0 1-.11-.27.4.4 0 0 1 .1-.28.37.37 0 0 1 .27-.1.37.37 0 0 1 .27.1.39.39 0 0 1 .1.28Z" fill="#1E1F1E"/><path d="M7.32 7.94a.1.1 0 0 0 .09-.1.1.1 0 0 0-.1-.1.1.1 0 0 0-.09.1c0 .05.04.1.1.1ZM9.12 8.4a.1.1 0 0 0 .1-.12.1.1 0 0 0-.1-.11.1.1 0 0 0-.1.11c0 .06.04.11.1.11Z" fill="#fff"/></svg>