<!-- by TradingView --><svg width="18" height="18" viewBox="0 0 18 18" xmlns="http://www.w3.org/2000/svg"><path fill="url(#a)" d="M0 0h18v18H0z"/><circle cx="9" cy="9" r="5" fill="#fff"/><path d="M12.97 9.13c-.02.08-.12.1-.19.06-.3-.23-.75-.48-1.28-.48-.83 0-1.29.52-1.77 1.06-.53.6-1.09 1.23-2.2 1.23C5.75 11 5.11 9.46 5 8.48 5.1 6.54 6.85 5 9 5c2.2 0 4 1.63 4 3.65l-.03.48ZM7 10a1 1 0 1 0 0-2 1 1 0 0 0 0 2Z" fill="#DC1EA6"/><defs><linearGradient id="a" x1="15.59" y1="2.25" x2="2.57" y2="15.27" gradientUnits="userSpaceOnUse"><stop offset=".39" stop-color="#371E31"/><stop offset="1" stop-color="#BE098A"/></linearGradient></defs></svg>