<!-- by TradingView --><svg width="18" height="18" viewBox="0 0 18 18" xmlns="http://www.w3.org/2000/svg"><path fill="#F0F3FA" d="M0 0h18v18H0z"/><path d="M3 12.29c0 .3.41.2.56.1h.07v.45l.14.16.37-.37v-.27c.09-.05.26-.16.26-.22.26-.72.78-.92 1.01-.92l.34-.37h.41c.19-.1.6-.07.77-.06l.53-.45.06-.2c.4 0 .87-.22 1.22-.22h.79c.17 0 .43.02.56-.04 0 .4.17.5.17.69 0 .15-.1.23-.17.28h.22c-.07.03-.23.15-.35.15-.16.04-.19.57-.18.77h.25c.26-.24.77-.85.77-.98 0-.17-.22-.31-.22-.76 0-.35.2-.6.32-.72l.12.07c.06-.17.23-.5.36-.5.14 0 .36.4.46.59l-.14.15h.14c-.04.08-.18.26-.26.26-.17 0-.2.4-.2.66.32-.21.96-.53.96-.66s-.13-.33-.18-.41v-.45c0-.46-.1-.6-.17-.64h-.33c.2-.03.43-.92.74-.92.25 0 .36.67.39.97.05.09.23.26.42.26.19 0 .44-.2.53-.3v-.3s.09-.2.15-.29v-.28l.16-.29v-.22a.4.4 0 0 0 .22.08c.1 0 .24-.1.28-.2a.8.8 0 0 1-.66-.37c.1.07.4.2.66.2.33 0 .45-.26.45-.49-.08.17-.26.3-.4.3-.13 0-.2-.09-.38-.28-.18-.19-.47-.18-.63-.18C12.7 5.04 11.93 5 11.74 5c-.19 0-.17.02-.46.06-.28.04-.49-.12-.67-.04-.65.36-1.12.4-1.43.5-.25.08-.45.4-.52.55-.18.25-.6.81-.9 1.05-.38.31-.7.34-.97.34-.21 0-.57-.19-.72-.3-.07 0-.36 0-.47-.04-.14-.03-.55-.31-.55-.74 0-.34.14-.61.24-.7.07.02.25.06.45.06.28 0 .41-.15.42-.31 0-.1-.02-.2-.04-.28 0 .17-.14.25-.2.26a.65.65 0 0 0-.35-.1c-.14 0-.27.16-.32.25-.14.13-.36.47-.36.82 0 .43.24.7.4.81.16.11.7.28.7.5 0 .35-.45.67-.46.83-.01.13.03.87.07 1.2-.11.11-.37.33-.47.33-.17 0-.36.13-.4.24-.18.57-.87.89-1.1.97-.22.09-.22.24-.28.34-.05.1-.35.38-.35.69Z" fill="#1C834C"/><path d="M12.89 5.42c-.13.31-.32.71-.4.71-.08 0-.11-.04-.15-.07-.04-.04-.07-.08-.14-.08-.06 0-.08.04-.1.08-.03.04-.05.07-.11.07s-.13-.08-.2-.18c-.1-.1-.2-.23-.29-.23-.14 0-.22.14-.25.21-.13.4-.43 1.17-.52 1.17-.05 0-.07-.02-.1-.05-.02-.03-.04-.06-.11-.05-.06 0-.12.13-.18.27-.08.18-.17.38-.3.38-.07 0-.12-.05-.16-.11-.05-.07-.1-.13-.2-.13-.16 0-.25.16-.27.24l-.31.77-.24-.08c-.08.21-.3.65-.48.65-.23 0-.36-.26-.48-.5-.1-.17-.18-.34-.3-.34-.2 0-.28.29-.29.43H7.1l-.41.88H6.5l-.47 1.39h.12a1.82 1.82 0 0 1 .77-.06l.53-.45.06-.2c.21 0 .44-.05.65-.11.2-.06.4-.1.57-.1h.88c.16 0 .36 0 .47-.05 0 .24.06.37.1.47.04.08.07.14.07.22 0 .15-.1.23-.17.28h.22l-.05.02c-.08.05-.2.13-.3.13-.16.04-.19.57-.18.77h.25c.26-.24.77-.85.77-.98 0-.07-.03-.13-.07-.2-.06-.12-.15-.28-.15-.56 0-.35.2-.6.32-.72l.12.07c.06-.17.23-.5.36-.5.14 0 .36.4.46.59l-.14.15h.14c-.04.08-.18.26-.26.26-.17 0-.2.4-.2.66l.34-.2c.3-.18.62-.37.62-.46 0-.11-.1-.28-.16-.37l-.02-.04v-.45c0-.46-.1-.6-.17-.64h-.33c.08-.01.18-.19.28-.38.14-.26.29-.54.46-.54.25 0 .36.67.39.97.05.09.23.26.42.26.19 0 .44-.2.53-.3v-.3s.09-.2.15-.29v-.28l.16-.29v-.22a.4.4 0 0 0 .22.08c.1 0 .24-.1.28-.2a.8.8 0 0 1-.66-.37c.1.07.4.2.66.2.33 0 .45-.26.45-.49-.08.17-.26.3-.4.3-.12 0-.19-.07-.32-.21l-.06-.07c-.17-.18-.46-.18-.62-.18-.26-.29-.5-.5-.71-.65Z" fill="url(#amm4yiau4)"/><path d="M12.79 5.35a6.57 6.57 0 0 1-.33.66l-.04-.04c-.04-.04-.1-.1-.22-.1-.06 0-.1.01-.14.05A.3.3 0 0 0 12 6h-.01L11.97 6a1.6 1.6 0 0 1-.1-.11l-.02-.03a1.3 1.3 0 0 0-.14-.15.33.33 0 0 0-.21-.1c-.11 0-.2.06-.25.12a.5.5 0 0 0-.1.17 14.1 14.1 0 0 1-.44 1.07.23.23 0 0 0-.07-.06.24.24 0 0 0-.14-.02.2.2 0 0 0-.12.08 2.72 2.72 0 0 0-.17.33l-.11.2a.2.2 0 0 1-.04.04h-.01c-.02 0-.03 0-.09-.07-.04-.06-.13-.17-.29-.17a.35.35 0 0 0-.27.13.55.55 0 0 0-.1.2l-.27.65-.23-.08-.04.1c-.05.1-.12.26-.2.39a.83.83 0 0 1-.12.15c-.04.04-.06.04-.06.04-.06 0-.11-.03-.17-.1a1.32 1.32 0 0 1-.17-.26L8 8.45a2.49 2.49 0 0 0-.13-.23.55.55 0 0 0-.1-.12.26.26 0 0 0-.17-.07c-.16 0-.26.13-.32.23a.84.84 0 0 0-.07.2h-.19l-.4.88h-.2l-.5 1.5h.24l.44-1.26h.16l.41-.88h.25v-.1c.01-.07.03-.16.07-.23.04-.08.08-.1.11-.1l.02.01c.02.01.04.03.06.07.04.05.07.12.11.2l.04.08c.06.1.12.22.2.3.09.1.2.17.35.17.09 0 .16-.05.22-.1a2.54 2.54 0 0 0 .33-.52l.24.08.35-.87a.3.3 0 0 1 .06-.11c.03-.04.06-.05.1-.05.03 0 .05.01.1.07v.01c.05.06.13.16.27.16.11 0 .19-.08.24-.15.05-.07.1-.16.13-.24l.03-.07a2.25 2.25 0 0 1 .1-.19c0 .02.02.04.05.06.04.03.08.04.13.04s.08-.02.1-.03a.27.27 0 0 0 .04-.05 14.33 14.33 0 0 0 .5-1.17c0-.02.02-.06.05-.09.02-.02.05-.04.08-.04h.01l.05.04.11.12.02.03.1.12.08.07c.03.01.07.03.12.03.06 0 .1-.02.14-.05.04-.03.06-.06.07-.08V6.1c.01 0 .02 0 .06.04.04.04.1.11.22.11.07 0 .11-.04.13-.06a2.24 2.24 0 0 0 .21-.34l.17-.36-.2-.14ZM7.6 8.27Zm4.84-2.24ZM10.56 7.1Z" fill="#4DFFA9"/><defs><linearGradient id="amm4yiau4" x1="10.52" y1="5.42" x2="10.52" y2="11.77" gradientUnits="userSpaceOnUse"><stop stop-color="#33C07A"/><stop offset=".77" stop-color="#1D8A4F"/></linearGradient></defs></svg>