<!-- by TradingView --><svg width="18" height="18" viewBox="0 0 18 18" xmlns="http://www.w3.org/2000/svg"><path fill="#F0F3FA" d="M0 0h18v18H0z"/><circle cx="9" cy="9" r="6" fill="#9F722E"/><circle cx="9" cy="9" r="5.69" fill="#7B511F"/><circle cx="9" cy="9" r="5.51" fill="#CCA349"/><circle cx="8.99" cy="8.95" r="4.75" fill="#E6CE9B"/><path d="M9.49 4.22c-.26.07-.16.3-.03.42l.02.05c0 .06 0 .13-.02.2a.52.52 0 0 1-.09.17.45.45 0 0 0-.08.4c.04.15.01.25-.1.31l-.16.1-.02.01H9a.85.85 0 0 1-.38-.23c.03-.1-1.02-.89-.49-.4l-.23-.14-.15-.24a.07.07 0 0 1 0-.04c0-.07-.02-.12-.08-.15a.08.08 0 0 1-.04-.05.24.24 0 0 0-.16-.15c0-.02.01-.04.05-.05.13-.04.23-.08.37-.1.56-.05 1.04-.16 1.61-.1Z" fill="#DAAC69"/><path d="M9.49 4.22c.3.02.6.07.9.17l.47.21a.04.04 0 0 1 .02.03.04.04 0 0 1-.01.04.15.15 0 0 0-.07.09c0 .02-.02.04-.04.04l-.2.06a.08.08 0 0 1-.06-.01c-.18-.11-.32.16-.32.3 0 .1.08.18.14.27a.1.1 0 0 0 .04.03c.09.04.32.1.33.2l.01.12c.04.1.16.26.05.36 0-.06-.02-.09-.06-.1-.21-.02-.49.04-.66-.04-.28-.13-.55-.2-.83-.22.1-.06.13-.16.1-.3a.45.45 0 0 1 .07-.41.52.52 0 0 0 .1-.17.68.68 0 0 0 0-.2l-.01-.05c-.13-.13-.23-.35.03-.42Z" fill="#C1995B"/><path d="M10.38 4.39c.4.13.78.3 1.12.51.03.1.06.2.1.28.06.12.15.17.27.15a.1.1 0 0 1 .1.04c.3.36.47.83.54 1.28.03.18.19.3.3.44.07.1.09.2.1.3l.03.06c.1.08.37.18.45.28.24.33.01.72.23 1.02l.01.05.01.11c.03.05.06.06.1.04.04.28.02.55-.06.82-.02.09.02.16-.01.24-.07.18-.1.38-.17.54a7.46 7.46 0 0 1-.44.92c-.09.12-.15.26-.26.38l-.17.21c-.1.12-.19.2-.3.27a.4.4 0 0 0-.15.08c-.04.03-.11.05-.2.04-.02 0-.03 0-.02-.02 0-.05 0-.1-.02-.14a.32.32 0 0 1-.01-.2l.01-.02.02-.02c.62-.06 1.07-.58.63-1.04l-.02-.03c-.03-.1-.04-.25-.04-.44 0-.08-.03-.14-.12-.2-.02 0-.02-.02-.02-.04.02-.08 0-.13-.05-.17a.09.09 0 0 1-.04-.04 1.34 1.34 0 0 1-.08-.21c-.05-.16-.1-.16-.15 0 0 .02-.04.06-.1.1a.58.58 0 0 0-.04-.41.42.42 0 0 1-.04-.2c.25.03.41.16.62.28.22.13.5-.35.32-.5a1.4 1.4 0 0 0-.51-.3l.08-.01c.02-.02.02-.04 0-.05-.2-.24.02-.32-.18-.31h-.03l-.02-.04c-.1-.26.14-.37.33-.47a.12.12 0 0 0 .05-.16.27.27 0 0 0-.06-.08.07.07 0 0 1-.03-.05c0-.14 0-.28-.06-.42a6.64 6.64 0 0 0-.4-.75l-.1-.19c-.03-.05-.03-.05-.02 0a.1.1 0 0 1 0 .06l-.3-.62a.03.03 0 0 0-.06 0 .39.39 0 0 1-.12.15l-.35.55a.08.08 0 0 1-.04.03l-.2.08c.17-.32.66-.92-.19-.05l.07-.28a.16.16 0 0 0 .06-.11c.1-.1-.01-.26-.05-.36a.43.43 0 0 1-.01-.11c-.01-.11-.24-.17-.33-.2a.1.1 0 0 1-.04-.04c-.06-.09-.14-.17-.14-.27 0-.14.14-.41.32-.3a.08.08 0 0 0 .06 0c.14-.03.26-.05.32-.2a.04.04 0 0 0-.02-.05l-.48-.21Z" fill="#D19D58"/><path d="M7.38 4.5h.03l.01.03v.02l.03.04.14.1a.06.06 0 0 1 .02.07l-.01.02c-.11.1-.3 0-.4-.08l-.04-.08c.04-.06.12-.1.22-.11Z" fill="#8F5424"/><path d="m7.16 4.62.04.08.11.2v.03c.02.29.22.62.4.86.07.08.07.18 0 .28a.08.08 0 0 0 0 .05l.01.2c0 .13-.07.25-.1.37-.04.11-.13.2-.29.3a.07.07 0 0 0-.03.05c-.01.16-.1.25-.26.25a.1.1 0 0 0-.1.1v.04A.07.07 0 0 0 7 7.5h.03a.2.2 0 0 1 .18.04c.02.02.04.02.06 0l.02-.01c0-.02.02-.03.04-.03.03-.01.06 0 .07.05.07.19.07.41 0 .67.02.1.02.19 0 .26a.33.33 0 0 0-.12-.06l-.18-.08-.06-.04a.48.48 0 0 0-.25-.06c-.12 0-.22.1-.35.13a.09.09 0 0 0-.05.14c.07.1.1.2.08.33a.22.22 0 0 0 .17.24l.22.06a.4.4 0 0 0 .22.18c.06.01.16.02.19.09.02.03 0 .06-.03.1a.05.05 0 0 0-.02.03v.01l-.01.05c-.08.08-.1.16-.04.26.06.11.1.23.13.36l-.03-.04c-.47-.86-.52 1.4-.45 1.64v.05a.21.21 0 0 1-.25.1.08.08 0 0 0-.07.02.08.08 0 0 0-.02.06c0 .15.04.28.15.38l.03.04.07.14.02.04.08.27c0 .02.01.03.03.03l.04.05.05.26a4.67 4.67 0 0 1-2.36-2.53c.03 0 .05 0 .06-.02a.83.83 0 0 0 .03-.07.96.96 0 0 1 0-.33c.02-.1.06-.1.1-.02.14.28.25.55.35.83.03.12.12.26.26.43.1.14.17.3.37.4.02 0 .04 0 .05-.02.08-.1.09-.24.11-.33l.06-.2c.03-.1.09-.18.17-.25.09-.06.11-.14.07-.22a1.6 1.6 0 0 1-.14-.55c0-.02 0-.08.03-.16.04-.13-.05-.15-.05-.25a.1.1 0 0 1 .03-.08.12.12 0 0 0 .03-.04.34.34 0 0 1 .16-.2c.1-.06.14-.1.12-.23a4.4 4.4 0 0 1-.06-.52c0-.09-.04-.16-.05-.25l-.03-.04c-.06-.06-.12-.06-.17.02-.1.15-.2.24-.29.38-.06.11-.1.1-.08-.03a2.85 2.85 0 0 1 .16-.63c.05-.18.17-.35.24-.52.05-.1.14-.2.19-.31l.03-.01a2.24 2.24 0 0 1 .69-.52c.2-.13.25-.64.26-.85 0-.18 0-.31-.02-.38-.04-.2-.34-.32-.5-.14-.24.3-.53.45-.85.66a.12.12 0 0 1-.07.01h-.23c-.03 0-.04-.01-.04-.04v-.08c0-.02 0-.03.02-.05a.6.6 0 0 0 .14-.27.1.1 0 0 1 .03-.05.56.56 0 0 0 .16-.3.1.1 0 0 1 .04-.05c.12-.1.17-.19.14-.28.2-.15.48-.32.83-.5.09-.05.16-.07.22-.05Z" fill="#DCB67C"/><path d="m7.89 5.11.23.15.02.01.22.2c.06.06.08.12.1.19.1.23.44.22.46.5.02.28-.1.36-.37.4a.05.05 0 0 0-.03.02c-.07.11-.32.06-.4.01a.15.15 0 0 1-.07-.13c.03-.23 0-.45-.1-.68-.06-.14-.14-.33-.24-.44-.02-.02-.02-.04-.02-.06v-.05l-.11-.21c-.04-.07-.03-.11.02-.12a.06.06 0 0 1 .06.01l.23.2Z" fill="#B67427"/><path d="M11.5 4.9c.31.19.58.4.8.64.1.1.26.23.36.37l.2.26.18.26c.44.73.76 1.66.7 2.52-.04.02-.07 0-.1-.04a.2.2 0 0 1-.01-.1l-.01-.06c-.12-.16-.08-.27-.1-.43a.7.7 0 0 0-.07-.18c-.05-.09-.05-.18-.1-.25l-.15-.2c-.07-.1-.17-.16-.26-.24a.1.1 0 0 1-.02-.05.65.65 0 0 0-.12-.31c-.1-.14-.26-.26-.29-.44-.03-.2-.14-.29-.12-.53a.07.07 0 0 0-.02-.05.63.63 0 0 1-.14-.23 1.52 1.52 0 0 0-.1-.24c-.04-.08-.1-.15-.16-.23a.1.1 0 0 0-.1-.04c-.12.02-.21-.03-.26-.15a1.78 1.78 0 0 1-.1-.28Z" fill="#DAAC69"/><path d="m8.6 5.65-.46-.38-.02-.01c-.07-.07-.08-.14-.03-.21A.17.17 0 0 1 8.32 5c.02.01.03.04.04.1l.02.03c.13.13.2.3.32.44a.04.04 0 0 1 0 .04.04.04 0 0 1-.03.03H8.6Z" fill="#DCB67C"/><path d="m8.14 5.27.47.38c.1.11.23.19.38.23h.04l-.01.03v.06c.08.1.18.13.31.05.05-.03.08-.02.1.03l.14.24v.06c0 .07 0 .13.03.2a.04.04 0 0 0 .06 0c.06-.11.2-.37.34-.38.18 0 .4.02.69.07l-.07.28c-.07.07-.08.14-.05.22l.01.05c0 .01 0 .02-.02 0a.28.28 0 0 0-.27-.13c-.04 0-.05.02-.02.05.1.14 0 .28.07.4.04.07.14.15.29.26l.12.1c.11.18.27.33.47.47l.37.43h.04v.06l-.02.05c0 .02 0 .03-.02.03-.05 0-.07-.03-.07-.07l-.01-.12a.05.05 0 0 0-.04-.04c-.07-.02-.13-.03-.19-.07-.06-.06-.13-.1-.2-.14a.1.1 0 0 1-.04-.05.75.75 0 0 0-.17-.23.04.04 0 0 1-.01-.04c0-.04 0-.06-.03-.06a.04.04 0 0 1-.03-.03c-.01-.02-.02-.03-.04-.03a.88.88 0 0 0-.29 0 .07.07 0 0 0-.04.03c-.1.11-.18.04-.23-.07a1.36 1.36 0 0 0-.25-.37V7.2h.02a.02.02 0 0 0 .02-.03c-.02-.07-.06-.11-.11-.13a.7.7 0 0 0-.47.02c-.07-.12-.27-.09-.39-.1 0-.02-.03-.03-.07-.02-.02 0-.03 0-.04-.02-.04-.07-.1-.07-.16-.04a.3.3 0 0 1-.26.04c.07-.08.04-.13-.1-.15l-.15.01-.38.1c-.06.03-.08 0-.05-.05l.01-.06.02-.05c.11-.17.07-.3.09-.47l.03-.47c.08.23.12.45.1.68a.14.14 0 0 0 .06.13c.08.05.33.1.4-.01a.04.04 0 0 1 .03-.02c.26-.04.39-.12.37-.4-.02-.28-.36-.27-.45-.5-.03-.07-.05-.13-.11-.18a3.5 3.5 0 0 1-.22-.21Z" fill="#CB913E"/><path d="M7.3 6.14c-.02.21-.07.72-.28.84l-.31.24a2.46 2.46 0 0 1-.34.27.1.1 0 0 1-.03.02H6.3c-.05.13-.14.21-.19.32-.07.17-.19.34-.24.52l-.07.16c-.07.1-.1.2-.12.3-.03.3-.1.62-.1.79-.01.28.04.62.15 1.02 0 .04 0 .07-.02.12l.01.05c.4.4-.24.6-.36.2l-.24-.94c-.02-.11-.1-.22-.13-.36-.05-.44-.09-.89-.16-1.32-.03-.22-.04-.4-.03-.58.01-.11.1-.2.12-.3.05-.15.05-.28.26-.34.26-.07.46-.15.67-.33.16-.15.33-.28.48-.44a.42.42 0 0 1 .13-.09c.17-.06.4-.48.49-.63a.06.06 0 0 1 .06-.03l.03.01c.15.12.23.29.24.5Z" fill="#E9E1B1"/><path d="m11.88 6.38.29.6c0 .08-.04.11-.11.1a.12.12 0 0 0-.06.1L12 7.2h-.02v-.01c.01-.09 0-.15-.02-.19l-.3-.4c-.07-.1-.22-.16-.09-.32a.06.06 0 0 1 .05-.02h.07c.04 0 .04-.01.02-.04a.2.2 0 0 0-.16-.06c-.02 0-.03-.01-.03-.03 0-.04-.03-.05-.06-.05a.35.35 0 0 0-.05-.17c.05-.04.1-.09.12-.15a.03.03 0 0 1 .03-.02.03.03 0 0 1 .03.02l.3.62Z" fill="#8F5424"/><path d="M10.75 6.13c0 .04-.03.08-.06.1a3.26 3.26 0 0 0-.69-.06c-.14 0-.28.27-.34.38a.04.04 0 0 1-.06 0 .45.45 0 0 1-.02-.2.1.1 0 0 0-.01-.06l-.13-.24c-.03-.05-.06-.06-.1-.03-.14.08-.24.06-.32-.05a.06.06 0 0 1 0-.06l.01-.04.17-.1c.28.02.55.09.83.22.18.08.45.02.66.05.04 0 .06.03.06.09ZM11.4 5.91c.03.06.05.11.05.17 0 .04 0 .07.02.08.02.09-.02.14-.03.2 0 .09.02.17.07.23 0 .02 0 .03-.02.04a.55.55 0 0 0-.3.22.16.16 0 0 1-.14.07c-.03 0-.04-.01-.04-.04l.04-.26V6.6l-.01-.01h-.02a.18.18 0 0 0-.08.08c-.1.12-.16.25-.25.37l-.12.1c-.07.06-.05.13.06.22-.15-.1-.25-.2-.3-.26-.07-.12.05-.26-.06-.4-.03-.03-.02-.05.02-.05.12-.01.21.03.27.13.01.02.02.01.02 0v-.05c.01.02.04.02.07 0 .06-.03.1-.13.16-.17l.2-.08c.02 0 .03-.02.04-.03l.35-.55Z" fill="#B58546"/><path d="M11.45 6.08c.03 0 .05.01.06.05 0 .02.01.03.03.03a.2.2 0 0 1 .16.06c.02.03.02.04-.02.04h-.07c-.02 0-.03 0-.05.02-.13.16.02.22.09.32l.3.4c.03.04.04.1.02.19H12c0-.05.02-.08.06-.1-.07.25-.1.5-.1.75.01.11-.05.2-.17.19a6.4 6.4 0 0 0-.57-.1 1.6 1.6 0 0 1-.47-.45c.05.04.1.05.15.04a.05.05 0 0 0 .03-.06v-.02c-.06-.07-.07-.15-.04-.24.07-.16.1-.33.12-.5 0-.01 0-.02-.03-.02h-.04a.18.18 0 0 1 .08-.08.02.02 0 0 1 .02 0 .02.02 0 0 1 0 .02l-.03.26c0 .03.01.04.04.04.06 0 .1-.02.13-.07a.55.55 0 0 1 .31-.22c.03 0 .03-.02.02-.04a.35.35 0 0 1-.07-.22c0-.07.05-.12.03-.21-.02-.01-.02-.04-.02-.08Zm-.18 1.1c0 .23-.02.32-.16.5a.06.06 0 0 0-.02.05.06.06 0 0 0 .03.04c.26.17.36.07.43-.19a22.43 22.43 0 0 1 .12-.46.1.1 0 0 0-.1-.08l-.3.02c-.02 0-.03.01-.02.04v.03l.02.05Z" fill="#9C662F"/><path d="m12.32 8.85-.21-.07c.1.02.1-.08.03-.3l-.01-.02a.1.1 0 0 1-.02-.05.42.42 0 0 0-.06-.14.2.2 0 0 1 0-.23l.18-.22a.13.13 0 0 0 .02-.09L12.17 7l-.3-.61a.1.1 0 0 0 0-.05c0-.06 0-.06.03-.01l.1.19.03.04a6.64 6.64 0 0 1 .37.71c.06.14.05.28.06.42 0 .02.01.04.03.05l.06.08a.12.12 0 0 1-.05.16c-.19.1-.43.2-.33.47 0 .02.02.03.02.03h.03c.02 0 .04 0 .04-.02l.02-.02h.01c0 .01 0 .02.02.03l.02.05c-.02.1 0 .2.07.28.02.01.02.03 0 .05-.01.01-.04.02-.08.01Z" fill="#CB913E"/><path d="m10.75 7.48-.12-.11c-.1-.1-.13-.16-.06-.22l.12-.1c.1-.12.15-.25.25-.37h.04c.02 0 .03 0 .03.02-.01.17-.05.34-.12.5-.03.09-.02.17.03.24a.05.05 0 0 1-.02.08c-.05.01-.1 0-.15-.04Z" fill="#8F5424"/><path d="M7.62 4.63a.24.24 0 0 0-.16-.15.17.17 0 0 1-.07.03h.02l.01.02v.02l.03.04.14.1a.06.06 0 0 1 .02.07l-.01.02c-.11.1-.3 0-.4-.08l.11.2v.03c.02.29.22.62.4.86.07.08.07.18 0 .28a.08.08 0 0 0 0 .05l.01.2c0 .09-.03.17-.06.26l-.04.11c-.04.11-.13.2-.29.3a.07.07 0 0 0-.03.05c-.01.16-.1.25-.26.25a.1.1 0 0 0-.07.03c-.04.04-.05.16.03.18a.07.07 0 0 0 .03 0 .2.2 0 0 1 .18.04c.02.02.04.02.06 0l.02-.01c0-.02.02-.03.04-.03.03-.01.06 0 .07.05.07.19.07.41 0 .67.02.1.02.19 0 .26l.15.25c0-.02 0-.04.02-.05a.04.04 0 0 1 .06.01l.05.23v.35c0 .05-.01.08-.06.1-.09.04-.15.02-.17-.05h-.37c.06.01.16.02.19.09.02.03 0 .06-.03.1a.05.05 0 0 0-.02.03v.01l-.01.05c-.08.08-.1.16-.04.26.08.16.09.35.18.5 0-.03-.02-.12.01-.13h.02c.04.04.1.07.15.08a.1.1 0 0 0 .07-.18.66.66 0 0 0-.32-.11c-.02 0-.03-.02-.02-.04a.15.15 0 0 1 .06-.09h.03l.03.01c.03.04.07.07.1.08l.22-.03c.02 0 .03-.02.03-.03l.03-.13c0-.02.01-.03.04-.04.08 0 .14-.04.18-.1a.06.06 0 0 0 0-.07.53.53 0 0 1-.06-.23c0-.02 0-.04.02-.05A.11.11 0 0 0 8 9.22c0-.03-.01-.04-.03-.02-.04.03-.05.07-.06.1-.01.07-.03.13-.11.16a.03.03 0 0 1-.03 0 .03.03 0 0 1-.01-.03l.05-.26.02-.1c.03-.07.05-.15.02-.25V8.8l.02-.02.01-.03a.37.37 0 0 1 .04-.22l.02-.09c.01-.04.02-.1.05-.14.04-.08.26-.26.3-.34.03-.1-.16-.44.1-.46v-.16l.07.06a.1.1 0 0 0 .15 0l.02-.02c.04-.1.12-.18.21-.24l.04-.04.03-.1c.01-.02.02-.03.04-.03a.2.2 0 0 1 .08-.01c0-.02-.03-.03-.07-.02-.02 0-.03 0-.04-.02-.04-.07-.1-.07-.16-.04a.3.3 0 0 1-.26.04c.07-.08.04-.13-.1-.15l-.15.01-.38.1c-.06.03-.08 0-.05-.05l.01-.06.02-.05a.57.57 0 0 0 .08-.35v-.12l.04-.47c-.07-.15-.15-.33-.25-.44-.02-.02-.02-.04-.02-.06v-.05a10.3 10.3 0 0 1-.11-.21c-.04-.07-.03-.11.02-.12a.06.06 0 0 1 .06.01l.23.2-.15-.24a.07.07 0 0 1 0-.04c0-.07-.02-.12-.08-.15a.08.08 0 0 1-.04-.05Z" fill="#CA9949"/><path d="M9.02 6.96c.12.01.32-.02.39.1 0 .06-.01.1-.07.14-.03.02-.06.03-.1.01-.02 0-.03-.02-.02-.04a.1.1 0 0 0 0-.05c-.01-.03-.03-.03-.04-.01l-.2.2c0 .02-.01.02-.03.02h-.02c-.03 0-.04.01-.05.04a.22.22 0 0 1-.15.18.02.02 0 0 0-.01.02v.02c0 .01 0 .02.02.02h.06c.03 0 .04.02.02.04-.06.1-.17.15-.33.13l.14-.15a.05.05 0 0 0-.07-.09l-.06.04a.13.13 0 0 1-.05.01c-.03 0-.05.02-.05.06 0 .11-.06.19-.16.22v-.22a.1.1 0 0 1 0-.05l.1-.24a.03.03 0 0 1 .03-.02c.03.01.06.03.08.06a.1.1 0 0 0 .13.02.1.1 0 0 0 .04-.04c.04-.1.12-.18.21-.24l.04-.04.03-.1c.01-.02.02-.03.04-.03a.2.2 0 0 1 .08-.01Z" fill="#B58546"/><path d="m12.17 6.99.08.74c0 .03 0 .07-.02.1l-.17.21a.2.2 0 0 0-.01.23c.03.04.05.1.06.14 0 .02 0 .04.02.05l.01.02c.08.22.07.32-.03.3h-.02l-.2-.58-.01-.02a.04.04 0 0 0-.04 0l-.01.01a.23.23 0 0 0-.03.17l-.17.01h-.04l-.37-.43a3.6 3.6 0 0 0 .57.09c.12.02.18-.08.18-.2 0-.24.02-.5.09-.75.07.01.1-.02.11-.1Z" fill="#B67427"/><path d="M11.62 8.43v.26c0 .03-.01.04-.03.04l-.17.02c-.02 0-.04 0-.04-.03V8.4c0-.03 0-.04-.03-.05h-.22c-.03 0-.05.01-.05.04v.4c0 .01 0 .03-.03.04l-.23.1c-.2.06-.4.06-.6.02a.1.1 0 0 1-.04-.03c-.05-.06-.1-.06-.17-.01h-.03l-.5.03c-.05 0-.05.02 0 .05.09.06.15.12.18.19a.4.4 0 0 1-.14-.07l-.19-.1a.2.2 0 0 0-.2-.07c-.09.02-.13-.02-.13-.11V8.7l.15-.25.45-.22c.02 0 .02-.02.02-.04 0-.03-.03-.06-.05-.07l-.1.01a.56.56 0 0 1-.1.03s-.02 0-.02-.02c-.01-.05 0-.1.04-.12a.32.32 0 0 0 .07-.07c.02-.06.02-.06.07-.07a.07.07 0 0 1 .07.03c.37.57-.15.33.2.26a.04.04 0 0 1 .04 0c.2.18.07.23.34.33.1.04.16.2.28.16.1-.04.13-.13.12-.23l-.04-.02c-.21 0-.17-.2-.19-.35a.07.07 0 0 0-.04-.05l-.15-.05a.06.06 0 0 1-.04-.05c-.04-.18.14-.14-.13-.21a.06.06 0 0 1-.04-.04l-.08-.18c0-.03-.05.03-.07.02-.2-.13-.16-.17-.26-.02v.02c-.02.06-.06.1-.12.09a.03.03 0 0 1-.03-.04c0-.16.06-.38-.1-.2a.14.14 0 0 0-.05.13c.02.08 0 .16-.04.23l-.04.02a.05.05 0 0 0-.05.04c0 .02-.02.04-.04.04a.4.4 0 0 0-.19.14.08.08 0 0 1-.05.03c-.03 0-.06 0-.07-.04a.06.06 0 0 0-.1 0 .57.57 0 0 1-.2.15.06.06 0 0 0-.04.05.8.8 0 0 0 0 .14c0 .1-.05.15-.15.14-.05 0-.04.09-.09.08a.02.02 0 0 1-.01-.02v-.07c0-.05.04-.1.1-.15.08-.05.06-.16.09-.22.03-.1.07-.18.13-.27.14.02.2-.2.23-.41 0-.02.18-.04.2-.04h.03l.03-.01.2-.21c.01-.02.03-.02.03 0a.1.1 0 0 1 0 .06c0 .02 0 .03.03.04.04.02.07.01.1 0 .06-.04.08-.1.07-.15a.7.7 0 0 1 .47-.02c.05.02.09.06.11.13.02.05.14.27.2.42.06.1.13.18.24.07a.07.07 0 0 1 .04-.03.88.88 0 0 1 .3 0l.03.03.03.03c.03 0 .04.02.03.06a.04.04 0 0 0 0 .04c.08.07.13.14.18.23 0 .02.02.04.04.05.07.04.14.08.2.14.06.04.12.05.2.07l.02.01v.03c.02.03.02.07.02.12 0 .04.02.07.07.07.01 0 .02-.01.02-.03l.01-.05Z" fill="#CA9949"/><path d="M8.8 8.77c-.04.14 0 .16.1.06l.1-.12v.13c0 .1.04.13.13.11a.2.2 0 0 1 .2.06c-.16-.02-.41-.03-.53.11l-.2.22c.03-.1.1-.16.13-.25V9c-.03-.03-.06-.04-.09-.01-.13.1-.24.19-.3.29a.87.87 0 0 1-.12.12.14.14 0 0 1-.05.03.18.18 0 0 0-.08.05v.05c.1.1.18.21.36.17l-.15.12a.06.06 0 0 1-.05 0 .17.17 0 0 1-.07-.02.08.08 0 0 0-.05 0c-.05 0-.08.03-.1.09-.13.02-.23.12-.35.11-.07 0-.13 0-.2-.02l.22-.03c.02 0 .03-.02.03-.03l.03-.13c0-.02.01-.03.04-.04.08 0 .14-.04.18-.1a.06.06 0 0 0 0-.07.53.53 0 0 1-.06-.23c0-.02 0-.04.02-.05a.11.11 0 0 0 .04-.08c0-.03 0-.04-.02-.02-.09.06-.03.2-.17.26-.02 0-.05-.01-.04-.03l.05-.26c.02-.1.09-.2.04-.35V8.8l.02-.01.01-.03a.37.37 0 0 1 .04-.22c.03-.06.02-.15.07-.23a6 6 0 0 0 .14-.23c.05.33.3.29.3.22v-.14a.06.06 0 0 1 .04-.05.57.57 0 0 0 .2-.15.06.06 0 0 1 .1 0c.01.04.04.05.07.04.02 0 .04-.01.05-.03a1.04 1.04 0 0 1 .32-.24.28.28 0 0 0 .04-.23.15.15 0 0 1 .04-.14l.07-.06.01-.01c.02 0 .04.01.04.03l-.01.25a.03.03 0 0 0 .03.04c.1 0 .07-.08.13-.12l.12-.15.16.1a.1.1 0 0 1 .04.06c.04.09.38.27.27.38a.06.06 0 0 0-.02.05.06.06 0 0 0 .04.05l.15.05a.06.06 0 0 1 .04.05c.02.14-.02.34.2.35.01 0 .02 0 .03.02.01.1-.02.2-.12.23-.12.04-.24-.03-.34-.07a.08.08 0 0 1-.05-.04l-.02-.05c-.01-.02-.03-.02-.05-.01-.11.05-.07-.23-.16-.31l-.02-.01c-.08-.02-.08.14-.07.18v.05c-.02.05-.04.06-.07.03-.08-.08-.08-.16 0-.24a.05.05 0 0 0 0-.04.57.57 0 0 0-.08-.24.07.07 0 0 0-.07-.03c-.05 0-.09.04-.1.1a.1.1 0 0 1-.04.04c-.04.03-.05.07-.04.12 0 .01.01.02.03.02l.1-.03c.03-.01.07-.02.09 0 .02 0 .04.03.05.06 0 .02 0 .03-.02.04-.4.2-.5-.48-.8.53Z" fill="#B58546"/><path d="M8.49 7.78c-.06.09-.1.18-.13.27-.03.06-.01.17-.09.22-.06.05-.1.1-.1.15a.1.1 0 0 0-.04.06l-.07.28A.06.06 0 0 1 8 8.8h-.03a.03.03 0 0 1-.02-.05l.18-.68a.46.46 0 0 1 .12-.2c.1-.03.15-.1.16-.22 0-.04.02-.06.05-.06l.05-.01.06-.04a.05.05 0 0 1 .07.09l-.14.15Z" fill="#9C662F"/><path d="M9.15 8.46 9 8.7l-.1.12c-.1.1-.14.08-.1-.06a5.76 5.76 0 0 1 .23-.56l.15-.06a.05.05 0 0 1 .06.03v.02a.7.7 0 0 1-.09.26ZM12.1 8.77a.22.22 0 0 1-.14 0 .05.05 0 0 1-.03-.05V8.4c0-.03-.02-.04-.04-.04h-.09a.23.23 0 0 1 .03-.18.04.04 0 0 1 .03-.02.04.04 0 0 1 .03.03l.2.57Z" fill="#8F5424"/><path d="m7.04 8.3-.15-.02c-.02 0-.03 0-.05.02-.05.05-.1.1-.12.16v.06c.05.07.07.13.06.19-.03.17 0 .31.09.43l-.23-.06a.22.22 0 0 1-.17-.24.44.44 0 0 0-.08-.33.09.09 0 0 1 .05-.14c.13-.03.23-.13.35-.13.09 0 .17.02.25.06Z" fill="#D19D58"/><path d="m7.04 8.3.06.04a.2.2 0 0 1-.07.02c-.02 0-.03 0-.04.03v.05l.05.04c.02.02.03.05.02.08-.03.09-.04.18-.04.28L7 9l-.09-.1c-.01-.02-.03-.02-.04 0a.06.06 0 0 0 0 .06c.1.19.2.28.33.28a.61.61 0 0 0 .34-.17l-.08.26h-.37a.4.4 0 0 1-.22-.18.54.54 0 0 1-.08-.44c0-.05-.01-.11-.06-.18a.05.05 0 0 1 0-.06.56.56 0 0 1 .12-.16.06.06 0 0 1 .05-.02l.15.02Z" fill="#8F5424"/><path d="m7.1 8.34.18.08a.34.34 0 0 0-.14 0c-.03 0-.03.02 0 .04.05.05.1.08.17.1a.05.05 0 0 1 .04.05c0 .04.01.08.04.11.02.02.02.03 0 .04l-.02.01-.04-.01a.6.6 0 0 0-.13-.08.06.06 0 0 0-.07.02l-.1.14c0-.1 0-.19.03-.28 0-.03 0-.06-.02-.08A.28.28 0 0 1 7 8.44c-.02-.02-.02-.04-.01-.05a.05.05 0 0 1 .04-.03.2.2 0 0 0 .07-.02Z" fill="#51371C"/><path d="M11.62 8.43v-.06h.28c.01 0 .02.01.02.04v.3a.05.05 0 0 0 .04.06h.13l.02.01.2.07c.22.07.39.17.52.3.18.15-.1.63-.32.5-.2-.12-.37-.25-.62-.27l-.14-.02c-.36-.03-.65.1-.89.36a.88.88 0 0 0-.22.5c-.09.55.22 1.12.8 1.23.37.07.7 0 .98-.21.25-.19.34-.02.45.19.16.36-.65.6-.9.62a.04.04 0 0 0-.04.04.32.32 0 0 0 .01.2v.15c0 .02-.01.03-.03.03-.13.03-.23.02-.3-.04l.02-.32a.02.02 0 0 0-.02-.02l-.2-.01-.02.01v.35c0 .02-.02.03-.04.03h-.24c-.02 0-.03 0-.03-.03v-.4a.05.05 0 0 0-.02-.05l-.43-.22c-.2-.14-.36-.32-.48-.54a1.8 1.8 0 0 1-.2-.95c.03-.35.16-.67.39-.96.14-.15.3-.27.48-.38l.23-.1c.02-.01.03-.03.03-.05v-.4c0-.02.02-.03.05-.03h.22c.02 0 .04.02.04.05v.3c0 .03 0 .04.03.04l.17-.02c.02 0 .03-.01.03-.04v-.26Z" fill="#F2E7D6"/><path d="m7.28 8.42.12.06.15.25c.04.12.03.23-.02.33a.61.61 0 0 1-.34.17L7 9l.03-.15.11-.14a.06.06 0 0 1 .07-.02.6.6 0 0 1 .13.08l.04.01h.02c.02-.02.02-.03 0-.05a.15.15 0 0 1-.04-.11.04.04 0 0 0-.04-.05.47.47 0 0 1-.18-.1c-.02-.02-.02-.03.01-.04h.14Z" fill="#231508"/><path d="m7.45 9.32.08-.26c.05-.1.06-.2.02-.33 0-.02 0-.04.02-.05a.04.04 0 0 1 .06.01l.05.23c.02.12-.02.23 0 .35 0 .05-.01.08-.06.1-.09.04-.15.02-.17-.05Z" fill="#DCB67C"/><path d="m7 8.99.2.24c-.13 0-.24-.1-.34-.28a.06.06 0 0 1 0-.06c.01-.02.03-.02.04 0l.1.1Z" fill="#B58546"/><path d="M10.82 8.94c-.18.1-.34.23-.48.38-.02-.12-.08-.17-.18-.15-.08.02-.14.06-.18.11a.08.08 0 0 1-.08.04c-.02 0-.03-.01-.03-.02a.43.43 0 0 0-.21-.11.43.43 0 0 0-.18-.2c-.05-.02-.05-.04 0-.04l.5-.03h.03c.06-.05.12-.05.17 0a.1.1 0 0 0 .04.04c.2.04.4.04.6-.02Z" fill="#D19D58"/><path d="m8.6 9.34-.13.36h-.02c-.18.04-.25-.06-.36-.17v-.05a.17.17 0 0 1 .08-.05c.02 0 .04-.02.05-.03a.86.86 0 0 0 .11-.12c.07-.1.18-.2.31-.3.03-.02.06-.01.08.02.02.02.02.05.01.09-.02.1-.1.15-.13.25Zm-.03-.15v-.01a.04.04 0 0 0-.06-.04.47.47 0 0 0-.22.39c0 .02 0 .04.02.05.04.03.07.04.11.03.02 0 .04-.02.04-.03.04-.1.16-.26.12-.36l-.01-.03Z" fill="#CA9949"/><path d="m9.33 9.01.19.1c.15.23.15.6-.14.72-.09.06-.2.04-.31-.06-.12-.13-.16-.3-.13-.54 0-.02-.01-.03-.03-.03h-.02a4.73 4.73 0 0 0-.14.42c-.01.02-.04.02-.08 0-.1-.17.06-.35.13-.5.12-.14.37-.13.53-.1Zm-.1.38c.03.03.06.04.1.02v-.05l.04-.06-.01-.04a.55.55 0 0 0-.2-.07c-.03 0-.03 0-.03.02 0 .09.04.15.1.18Z" fill="#231508"/><path d="M9.52 9.12a.4.4 0 0 0 .14.07c.03.06.07.1.12.15l-.03.3-.05.1a.54.54 0 0 1-.58.27.37.37 0 0 1-.18-.08l-.27-.31c.04.02.07.02.07 0a4.73 4.73 0 0 1 .15-.42h.02c.02 0 .03.01.03.03-.03.23.01.41.13.54a.4.4 0 0 1-.18-.15.03.03 0 0 0-.04-.01h-.02a.04.04 0 0 0 0 .05c.1.22.44.42.65.2.02-.02.01-.03-.01-.03h-.1c.3-.12.3-.5.15-.71Z" fill="#51371C"/><path d="M8.8 9.12c-.07.15-.22.33-.13.5l.27.31a.36.36 0 0 1-.11-.1.59.59 0 0 1-.36-.13l.13-.36.2-.22Z" fill="#8F5424"/><path d="M10.34 9.32c-.23.29-.36.6-.4.96a.26.26 0 0 0-.03.2c0 .01 0 .02-.02.02h-.01a.3.3 0 0 0-.11-.19.04.04 0 0 1-.01-.03v-.02l.02-.01c.02 0 .03-.02.03-.04s0-.02-.02-.03l-.17-.02c-.01 0-.02-.01 0-.02l.01-.01c.02-.02.02-.03 0-.04-.03-.06-.03-.1.03-.16.08-.07.1-.14.04-.2l.05-.1c.12-.03.19.03.3.05.01 0 .02 0 .03-.03v-.02c0-.02-.02-.03-.03-.04a1.84 1.84 0 0 1-.4-.4c.08.01.15.05.22.11a.08.08 0 0 0 .1.01l.01-.03c.04-.05.1-.09.18-.1.1-.03.16.02.18.14Z" fill="#B58546"/><path d="M9.78 9.34c.08.1.17.18.27.25l.03.04v.02c0 .02-.02.03-.04.03-.1-.02-.17-.08-.29-.05l.03-.29Z" fill="#8F5424"/><path d="M11.75 9.36c0 .15 0 .25.02.3.1.22.01.26-.18.32-.1.04-.2.1-.26.18a.05.05 0 0 1-.05.02.18.18 0 0 1-.16-.13.14.14 0 0 0-.03-.04.52.52 0 0 1-.13-.3c0-.02-.01-.03-.04-.02a.2.2 0 0 1-.06.03c.24-.27.53-.39.89-.36Z" fill="#CFB47F"/><path d="m11.75 9.36.14.02c0 .06 0 .12.04.19.07.12.08.26.05.42a64 64 0 0 1-.22.5c-.06.13-.04.25-.04.4l-.01.03a.28.28 0 0 0-.08.18l-.01.06-.19.3c-.57-.12-.88-.69-.79-1.24 0 .11.06.13.19.05a.07.07 0 0 0 .03-.05c.04-.17 0-.28-.1-.33a.47.47 0 0 1 .1-.17.2.2 0 0 0 .06-.03c.03 0 .04 0 .04.02.01.11.06.21.13.3l.03.04c.03.08.08.12.16.13.02 0 .03 0 .05-.02a.58.58 0 0 1 .26-.18c.2-.06.27-.1.18-.32a.95.95 0 0 1-.02-.3Z" fill="#C1995B"/><path d="M9.07 9.77c.12.1.22.12.3.06h.1c.02 0 .03.01 0 .03-.2.22-.54.02-.65-.2a.04.04 0 0 1 .01-.04l.02-.01a.03.03 0 0 1 .04 0c.05.07.1.13.18.16Z" fill="#8F5424"/><path d="M8.47 9.7c.09.08.2.12.36.13h-.25c-.02 0-.03 0-.04.02a.75.75 0 0 0-.12.23c0 .03-.03.05-.05.05l-.27.07a.07.07 0 0 0-.04.03l-.04.07-.04.02a.24.24 0 0 0 .03-.08c0-.02.02-.04.04-.05a.4.4 0 0 0 .18-.25c0-.02 0-.03-.02-.04a.34.34 0 0 0-.17-.01c0-.06.04-.1.09-.1l.05.01c.02.02.05.03.07.03l.05-.01.15-.12h.02Z" fill="#B67427"/><path d="M9.7 9.73c.06.06.04.13-.04.2-.06.05-.06.1-.02.16v.04h-.02c-.02.02-.01.02 0 .03l.17.02c.02 0 .02.01.02.03 0 .02-.01.03-.03.04a.04.04 0 0 0-.02.03.04.04 0 0 0 0 .03c.06.05.1.11.11.19h.02c.01 0 .02 0 .02-.02a.26.26 0 0 1 .03-.2c-.01.35.06.66.21.95v.17c.03.06 0 .1-.06.1a.31.31 0 0 0-.2.15.07.07 0 0 1-.05.04l-.27.04a.06.06 0 0 0-.04.03.3.3 0 0 1-.14.1.1.1 0 0 0-.05.05c-.06.1-.05.18.04.23.17.11.5-.04.65-.12.1-.04.15-.14.24-.2a.09.09 0 0 1 .05-.03l.31-.02.43.22.02.02v.43c0 .02.01.04.03.03h.24c.02 0 .03-.01.04-.03v-.05c.02 0 .04 0 .05.03l.04.03c.06 0 .1 0 .14-.02.06.06.16.07.29.04.02 0 .03-.01.03-.03v-.15c.02.04.02.09.02.14 0 .02 0 .02.02.02.09 0 .16 0 .2-.04a.4.4 0 0 1 .16-.08c-.14.17-.27.3-.4.38a.2.2 0 0 1 .09-.1v-.03l-.01-.02h-.03a.54.54 0 0 1-.16.08.1.1 0 0 0-.04.04c-.03.04-.08.06-.13.05-.14-.01-.23-.04-.37.03-.12.05-.24.1-.38.1l-.56.06c-.07 0-.19 0-.33-.05-.17-.05-.29.1-.44.03-.17-.06-.3-.01-.47-.03l-.22-.02c.04-.05.1-.08.15-.1-.47.17-.53.18-.41.28l-.48.35a.05.05 0 0 0-.02.05c0 .04 0 .08-.02.11a.06.06 0 0 1-.05.03H7.9l-.57-.15-.01-.2a.05.05 0 0 0-.03-.05l-.11-.05a.14.14 0 0 1-.05-.03l-.1-.1a.08.08 0 0 1-.02-.06L7 12.59c0-.02 0-.04-.02-.05l-.1-.08a.17.17 0 0 1-.03-.04.66.66 0 0 0-.23-.25c-.04-.02-.04-.05-.03-.09v-.02a.03.03 0 0 1 .04-.01l.5.26a.14.14 0 0 0 .18-.05c.05-.1.12-.2.21-.28.07-.06.13-.18.05-.25-.17-.14-.21-.23-.46-.25a.36.36 0 0 1-.12-.02c-.06-.03-.07-.07-.05-.13a.12.12 0 0 0-.04-.15.78.78 0 0 1-.29-.27.39.39 0 0 0-.16-.16.06.06 0 0 1-.03-.05.05.05 0 0 1 .03-.04.1.1 0 0 1 .07-.02c.27.04.47.11.76 0 .02 0 .03-.02.04-.04l.06-.19c.04.1.05.2.02.3a.07.07 0 0 0 0 .06.07.07 0 0 0 .07.02c.1-.02.2-.1.12-.2a.08.08 0 0 1-.01-.05v-.02l.35.36c.02.01.02.03.02.05-.03.17.14.17.24.24l.04-.01c.02-.03.02-.06.01-.1-.01-.06.01-.09.08-.07.14.05.28.18.43.19a.13.13 0 0 1 .11.07c.27.5.47.21.04-.27.06.01.06-.01.02-.07-.04-.07-.1-.1-.15-.18-.08-.14-.32-.13-.45-.2a.11.11 0 0 1-.02-.04.04.04 0 0 1 .03-.05h.02l.17.02.06-.03a.07.07 0 0 1 .06-.01c.18.03.14.1.4.08.72-.04.6-.08.53-.25-.25 0-.32-.12-.59-.07h-.01a.02.02 0 0 1-.01-.02v-.02l.01-.01c.01-.02.02-.03.04-.03.1 0 .15-.03.12-.1.25.04.45-.05.58-.27Z" fill="#C1995B"/><path d="M12.87 11.43c-.11-.2-.2-.38-.45-.2-.29.22-.61.29-.99.22l.19-.3a.12.12 0 0 0 .01-.05c0-.07.03-.12.08-.18a.06.06 0 0 0 .01-.04c0-.14-.02-.26.04-.39l.22-.5a.34.34 0 0 0 .09-.11c.05-.16.1-.16.15 0l.08.21.04.04c.06.04.07.1.05.17 0 .02 0 .04.02.05.09.05.13.11.12.19 0 .19 0 .34.04.44.01.06.3.29.36.42v.03c-.01.02-.02.02-.03 0h-.03Z" fill="#CB913E"/><path d="M8.83 9.83c.03.05.07.08.11.1.06.04.12.07.18.08.03.06-.01.1-.12.1-.08 0-.05.08.1.05l.06-.02c.14-.07.54.15.62.18.02.01.05.16.05.18v.04c.02.17-.22-.37-.09.1a.03.03 0 0 1 0 .02l-.02.01-.25.02c-.53 0-.5-.21-.84-.27l-.06.01c-.02.02-.04.1-.06.1-.05.01-.29-.13-.2 0-.03-.01-.05-.03-.05-.06 0-.04.2-.12.05-.15a4.2 4.2 0 0 1-.26-.04c-.01 0-.02 0-.01.02h-.02l.04-.07a.07.07 0 0 1 .04-.03l.27-.07c.02 0 .04-.02.05-.04a.75.75 0 0 1 .12-.24.06.06 0 0 1 .04-.02h.25Z" fill="#D19D58"/><path d="M8.04 9.89c.05-.01.11 0 .17.01l.02.04a.4.4 0 0 1-.18.25.07.07 0 0 0-.04.05c0 .03-.01.05-.03.08l-.06.03c-.13 0-.24.06-.34.17l-.01.02.01.05c.07.1-.03.18-.12.2a.07.07 0 0 1-.06-.02.07.07 0 0 1-.01-.06.4.4 0 0 0-.02-.3l-.02-.05v-.12a.02.02 0 0 1 .01-.01h.02c.04.04.1.07.15.08a.1.1 0 0 0 .07-.18.66.66 0 0 0-.32-.11c-.02 0-.03-.02-.02-.04a.15.15 0 0 1 .06-.09h.03l.03.01c.03.04.07.07.1.08.07.02.13.02.2.02.13 0 .22-.09.36-.11Z" fill="#8F5424"/><path d="M10.75 9.9c.12.04.15.15.11.32 0 .02-.01.04-.03.05-.13.08-.2.06-.19-.05a.7.7 0 0 1 .11-.33Z" fill="#B58546"/><path d="m7.23 10.11.04.07c.04.09.04.16.02.21a.05.05 0 0 1-.05.03c-.1 0-.2.02-.3.04-.04 0-.09-.02-.1-.06 0-.02 0-.04.02-.05l.06-.03c.02-.01.02-.03.02-.05-.02-.03-.05-.05-.09-.05l-.4-.13c-.01 0-.02-.01-.02-.03v-.03c.1-.12.32-.03.44 0 .04.01.06.02.09.01.2-.05.27.5.27.07Z" fill="#E9E1B1"/><path d="m7.22 10.1.01.01c0 .09-.02.15-.06.2-.05.03-.1.04-.14 0l-.02-.02a.07.07 0 0 1 0-.11.38.38 0 0 1 .21-.09Z" fill="#fff"/><path d="m7.27 10.18.03.04c0 .05.02.1.05.14l.02.05-.06.2c-.01.01-.02.03-.04.03-.3.11-.49.04-.76 0a.1.1 0 0 0-.07.01.05.05 0 0 0 0 .1c.07.04.12.08.16.16.07.1.16.2.29.27a.12.12 0 0 1 .04.15c-.02.06 0 .1.05.13l.12.02c.25.02.29.11.46.25.08.07.02.19-.05.25-.09.09-.16.18-.21.28a.14.14 0 0 1-.18.05c-.72-.38-.52-.34-.28.1l.04.05.09.08.02.05.01.34.02.05.1.1.05.04.1.05.04.05.01.2-.37-.16L6.9 13c0-.02-.02-.04-.04-.05a.05.05 0 0 1-.03-.03l-.08-.27a.27.27 0 0 0-.02-.04l-.07-.14a.15.15 0 0 0-.03-.04.49.49 0 0 1-.15-.38c0-.05.04-.08.09-.07.1.02.19-.02.24-.11a.06.06 0 0 0 .01-.05 3.3 3.3 0 0 0-.43-.96c-.06-.05-.08-.1-.08-.16 0-.02 0-.03-.02-.04-.1-.11-.13-.24-.05-.38.02-.04.05-.05.1-.03l.03.04c.05.28.15-.08.23-.04.2.1.28.08.25-.03.04 0 .07.02.09.05 0 .02 0 .04-.02.05l-.06.03c-.02.01-.02.03-.02.05.01.04.05.06.1.05a2.16 2.16 0 0 1 .33-.04l.02-.02c.02-.05.02-.12-.02-.2Z" fill="#DAAC69"/><path d="m8.9 10.98.34.39c.08.09-.01.2-.12.2-.02 0-.04 0-.05.02a.28.28 0 0 1-.25.05c-.02 0-.02-.01-.02-.03l.02-.17a.03.03 0 0 1 .03-.03c.05-.02.26.16-.06-.38a.06.06 0 0 0-.05 0c-.06.01-.16-.11-.27-.1-.02 0-.04-.01-.05-.03a.17.17 0 0 0-.11-.05.05.05 0 0 1-.04-.04.16.16 0 0 0-.05-.1c-.02-.02-.01-.03.02-.03.07 0 .13.01.2.05l.06.02c.05 0 .09.03.12.08 0 .02.02.03.03.04l.24.11Z" fill="#CA9949"/><path d="M10.15 11.23c.12.22.28.4.48.54l-.31.02-.05.02c-.09.07-.14.17-.24.21-.16.08-.48.23-.65.12-.09-.05-.1-.13-.04-.23a.1.1 0 0 1 .05-.04.3.3 0 0 0 .14-.11.06.06 0 0 1 .04-.03l.27-.04c.02 0 .03-.02.05-.04a.31.31 0 0 1 .2-.14c.06-.02.09-.05.07-.11a.35.35 0 0 1-.01-.17Z" fill="#CFB47F"/><path d="M11.62 12.43a.23.23 0 0 1-.14.02.06.06 0 0 1-.04-.03c-.01-.02-.03-.03-.06-.03l.01-.3.02-.01.2.01a.02.02 0 0 1 .02.02l-.01.32Z" fill="#B67427"/><path d="m8.89 12.85-.26.18-.2.08-.05-.01a.22.22 0 0 0-.25-.03h-.05a.1.1 0 0 0-.07 0l-.05-.01-.53-.28a.08.08 0 0 1-.04-.06c-.01-.07.03-.12.12-.13l.05-.01c.12-.07.24-.13.36-.17.02 0 .04-.02.05-.03.03-.03.07-.04.12-.05.27-.01.46 0 .57.03.12.04.17.16.34.14l.05.01c.06.06.07.13.03.22l-.04.03a.32.32 0 0 0-.15.09Z" fill="#B58546"/><path d="M11.94 12.71a4.77 4.77 0 0 1-4.05.87l.17-.01c.02 0 .04-.01.05-.03a.14.14 0 0 0 .02-.1c0-.03 0-.05.02-.06l.48-.35.26-.18c.07 0 .14 0 .22.02.17.02.3-.03.47.03.15.06.27-.08.44-.03.14.04.26.06.33.05l.56-.05c.14 0 .26-.06.38-.11.14-.07.23-.04.37-.03.05 0 .1-.01.13-.05a.09.09 0 0 1 .04-.04.54.54 0 0 0 .16-.08h.03l.01.02v.02a.2.2 0 0 0-.1.11Z" fill="#CFB47F"/><path d="M11.1 7.68c.15-.18.18-.27.17-.5l-.01-.05-.01-.03c0-.03 0-.04.03-.04l.28-.02a.1.1 0 0 1 .1.13l-.11.41c-.07.26-.17.36-.43.19a.06.06 0 0 1-.03-.04.06.06 0 0 1 .02-.05Z" fill="#51371C"/><path d="M8.84 8.14c.05 0 .06.02.05.06l-.14.43c0 .02-.02.03-.04.04-.06 0-.12 0-.18-.03a.1.1 0 0 1-.06-.1c0-.24.13-.37.37-.4Z" fill="#DCB67C"/><path d="M9.34 9.36c-.04 0-.08 0-.1.03-.07-.03-.1-.1-.11-.18 0-.02 0-.03.03-.02.07 0 .13.03.2.07.01 0 .02.02 0 .04l-.02.06Z" fill="#734621"/><path d="M8.3 10.52c.14.08.38.07.46.2.04.09.1.12.15.19.04.06.04.08-.02.07l-.24-.12a.08.08 0 0 1-.03-.03.15.15 0 0 0-.12-.08.16.16 0 0 1-.07-.02.34.34 0 0 0-.19-.05c-.03 0-.04.01-.02.04.03.02.04.05.05.1a.05.05 0 0 0 .04.03c.04 0 .08.02.1.05.02.02.04.02.06.02.11 0 .21.12.27.1l.05.01c.14.1.13.23.22.34l.03.08a.02.02 0 0 1-.01.03h-.05v-.01l-.13-.22a.13.13 0 0 0-.1-.07c-.16-.01-.3-.14-.44-.19-.07-.02-.1 0-.08.07v.1c-.02.01-.04.02-.05 0-.1-.06-.27-.06-.24-.23 0-.02 0-.04-.02-.05l-.34-.36c.1-.11.2-.17.34-.17-.1.06-.28.14-.2.29.04.1.26.18.37.23a.02.02 0 0 0 .03-.02v-.08c0-.02-.01-.03-.04-.04-.02 0-.03-.02-.04-.06a.02.02 0 0 1 0-.02h.02v-.01c.09 0 .15 0 .18-.02.08-.02.08-.04 0-.07l-.1-.04a.05.05 0 0 1-.03-.03.05.05 0 0 1 .01-.04.08.08 0 0 0 .02-.1.05.05 0 0 0-.04-.03l-.06-.01.01-.02h.03l.23.04c.03 0 .05.03.05.07 0 .03-.01.04-.04.04H8.3c-.03 0-.04.01-.04.04s.02.05.05.05Z" fill="#DCB67C"/></svg>