<!-- by TradingView --><svg width="18" height="18" viewBox="0 0 18 18" xmlns="http://www.w3.org/2000/svg"><path fill="#F0F3FA" d="M0 0h18v18H0z"/><path d="M7.5 3.67c.18 0 .33-.15.33-.34A.33.33 0 0 0 7.5 3a.33.33 0 0 0-.33.33c0 .19.15.34.33.34Zm-.68.35c0 .23-.18.42-.41.42A.41.41 0 0 1 6 4.02c0-.23.18-.41.41-.41.23 0 .41.18.41.41Zm.69 1.6c-.52 0-.75-.7-.32-1.02.53-.4 1.33.72.32 1.02ZM6.08 6c.44-.38 1.04.33 1.1.66l-.59.55c-.33-.07-1.02-.76-.5-1.2Z" fill="#4E49FD"/><path d="m6.83 13.33 2.61.67c.18-.17.27-.45.27-.75V11H6.35c-.64-.05-1.13-.75-1.3-1.13l.68 2.4c.13.6.79.96 1.1 1.06Z" fill="url(#a0spnd0cd)"/><path d="M10.14 10.41c-.01.44-.14.59-.43.59v2.16c0 .53-.22.77-.28.82.6-.15.71-.33.71-.72v-2.85Z" fill="url(#b0spnd0cd)"/><path d="M5.37 8.35c-.49.5-.39 1.29-.28 1.62.15.32.39.65.48.74H8V9.44c.02-.41.16-.44.43-.44H9.7V7.56C9.66 6.58 8.79 6.14 8.43 6a1.88 1.88 0 0 0-1.19.43L5.37 8.35Z" fill="url(#c0spnd0cd)"/><path d="M8.4 6c.5 0 1.57.33 1.74 1.68V9.48v-.12c0-.14-.09-.27-.43-.36V7.63c0-.4-.37-1.22-1.3-1.63Z" fill="url(#d0spnd0cd)"/><path d="M6.44 11c-.52.02-.72-.15-.87-.3H8c0 .23.35.3.5.3H6.45Z" fill="url(#e0spnd0cd)"/><path d="m11.2 6.69-2.27-.6c.9.36 1.04 1.25 1.07 1.65v5.4c.05.63-.36.82-.65.84.67.1 1.24-.23 1.45-.42l1.81-1.85c.49-.52.42-1.32.32-1.66l-.66-2.31c-.16-.6-.78-.95-1.07-1.05Z" fill="url(#f0spnd0cd)"/><defs><linearGradient id="a0spnd0cd" x1="5.65" y1="12.29" x2="9.63" y2="12.2" gradientUnits="userSpaceOnUse"><stop stop-color="#FF40C4"/><stop offset="1" stop-color="#FF9B55"/></linearGradient><linearGradient id="b0spnd0cd" x1="9.77" y1="10.41" x2="9.77" y2="13.98" gradientUnits="userSpaceOnUse"><stop offset=".15" stop-color="#FD313C"/><stop offset="1" stop-color="#FF9758"/></linearGradient><linearGradient id="c0spnd0cd" x1="5.64" y1="9.06" x2="9.58" y2="9.01" gradientUnits="userSpaceOnUse"><stop stop-color="#5046FF"/><stop offset="1" stop-color="#5B9BF2"/></linearGradient><linearGradient id="d0spnd0cd" x1="9.26" y1="6.01" x2="9.26" y2="9.62" gradientUnits="userSpaceOnUse"><stop stop-color="#0752FD"/><stop offset=".72" stop-color="#5B9BF2"/></linearGradient><linearGradient id="e0spnd0cd" x1="5.69" y1="10.83" x2="8.17" y2="10.83" gradientUnits="userSpaceOnUse"><stop stop-color="#5456FF"/><stop offset="1" stop-color="#243BFF"/></linearGradient><linearGradient id="f0spnd0cd" x1="10.96" y1="6.11" x2="10.96" y2="14" gradientUnits="userSpaceOnUse"><stop stop-color="#E029FF"/><stop offset=".33" stop-color="#DC2BFF"/><stop offset=".81" stop-color="#6F2DFF"/><stop offset="1" stop-color="#3D2DFF"/></linearGradient></defs></svg>