<!-- by TradingView --><svg width="18" height="18" viewBox="0 0 18 18" xmlns="http://www.w3.org/2000/svg"><path fill="#0D1C53" d="M0 0h18v18H0z"/><path opacity=".5" d="M13.32 13.29c-.34.32-.8.65-1.36.98-.25.14-.53.26-.87.36a13.68 13.68 0 0 1-1.18.27 4.4 4.4 0 0 1-2.03-.04c-.41-.09-.72-.16-.92-.22-.34-.1-.62-.2-.86-.34-.47-.27-.9-.56-1.28-.88-.3-.27-.64-.67-1-1.2a3.42 3.42 0 0 1-.4-.76 9.67 9.67 0 0 1-.29-1.02 3.32 3.32 0 0 1-.05-1.63l.23-.94c.11-.4.3-.8.56-1.19.19-.27.47-.62.84-1.04a.1.1 0 0 0 .03-.1 2.38 2.38 0 0 1-.06-.25v-.23c.1-.41.19-.7.28-.87.21-.37.51-.66.9-.88.1-.05.2-.09.33-.13a5.96 5.96 0 0 1 .68-.15.74.74 0 0 1 .36-.01 10.72 10.72 0 0 0 .71.14 2.23 2.23 0 0 1 1.04.68l.02.02.03-.01a2.17 2.17 0 0 1 1.02-.68 5.78 5.78 0 0 1 .7-.15.79.79 0 0 1 .4.01 4.72 4.72 0 0 0 .66.15l.3.12c.25.14.47.3.65.5.21.23.34.45.4.68l.07.24.09.38c.02.15 0 .28-.05.4-.02.06-.01.1.03.16.36.4.63.73.8.97.26.38.44.75.55 1.11l.26 1a3.26 3.26 0 0 1-.05 1.72c-.1.4-.18.7-.25.89-.1.32-.24.6-.4.85-.29.43-.58.79-.9 1.09Z" fill="#194D9F"/><path d="m7.33 6.36-.12-.23a.1.1 0 0 0-.09-.06.6.6 0 0 1-.27-.08.5.5 0 0 1-.26-.4c0-.1.02-.18.06-.27a.51.51 0 0 1 .32-.3.52.52 0 0 1 .4.04c.12.07.21.17.26.3.06.14.04.3-.04.45a.11.11 0 0 0 0 .12l.16.27c.02.03.05.04.08.03a4.06 4.06 0 0 1 2.32 0c.05.02.08 0 .1-.04l.15-.26a.11.11 0 0 0 0-.12.53.53 0 0 1-.04-.44.53.53 0 0 1 .31-.33.5.5 0 0 1 .3-.03c.1.02.18.07.25.13.08.07.13.15.16.24.04.1.04.2 0 .3-.07.24-.24.38-.51.4a.1.1 0 0 0-.09.04l-.12.24c-.02.03 0 .06.03.07.44.22.84.5 1.17.84a3.9 3.9 0 0 1 .18 5.35A4 4 0 0 1 9.06 14c-.59.01-1.15-.1-1.69-.34a3.93 3.93 0 0 1-2.25-4.67A3.86 3.86 0 0 1 7.3 6.44c.04-.02.05-.04.03-.08Z" fill="#FAFBFB"/><path d="M10.58 5.8c-.09-.14-.12-.27-.08-.39.03-.13.13-.2.29-.25.13-.03.23 0 .33.07a.4.4 0 0 1 .14.27.34.34 0 0 1-.1.3c-.08.08-.2.12-.37.12a.1.1 0 0 0-.09.05l-.26.47-.03.03h-.05l-.03-.02c-.03-.02-.04-.04-.02-.08l.27-.46a.1.1 0 0 0 0-.11ZM7.21 5.92a.43.43 0 0 1-.33-.09.38.38 0 0 1-.13-.26.37.37 0 0 1 .35-.42c.1 0 .17 0 .24.05.06.03.1.08.14.15.03.07.04.14.03.22-.01.08-.04.16-.08.23a.1.1 0 0 0 0 .11l.26.46c.01.03 0 .05-.02.06l-.06.03c-.02.02-.04.01-.05-.01l-.27-.49a.07.07 0 0 0-.08-.04Z" fill="#0D1C53"/><path d="M11.12 7.1a.31.31 0 0 1-.17.03h-.65a977.2 977.2 0 0 0-2.32 0c-.02-.02-.03-.02-.05 0-.02.04-.03.08-.02.12l-.01.25-.02.1a.81.81 0 0 0-.23-.66.11.11 0 0 0-.06-.03.97.97 0 0 1-.26-.1c-.05-.02-.04-.03.01-.04h.12c.05.02.1 0 .13-.03a.11.11 0 0 1 .09-.03c.04 0 .07-.01.1-.04a.63.63 0 0 1 .45-.22l.87-.03c.1 0 .2.01.3.05.1.03.22.05.33.05.04 0 .08 0 .11.02.04.02.07.02.1.02.16-.01.27.02.36.1l.07.04c.28.07.53.2.75.4Z" fill="#C8D0DB"/><path d="m11.12 7.1.04.04c-.06-.02-.05.01.02.09.02.02.02.04 0 .07-.01.02-.04.03-.08.03a3.95 3.95 0 0 0-.77 0c-.02.02-.04.02-.06 0a.1.1 0 0 0-.08-.03l-.41.06-.04-.01-.02-.02h-.04a.05.05 0 0 0-.03.03.07.07 0 0 1-.06.05c-.03 0-.04 0-.03-.03v-.03a.04.04 0 0 0-.05-.03l-.82.01-.02.01-.02.02a.1.1 0 0 1-.08 0 .44.44 0 0 0-.23-.03H8v-.06c0-.02-.03-.03-.05-.03l-.04.01c-.01-.04 0-.08.02-.12.02-.02.03-.02.05 0a977.03 977.03 0 0 1 2.96 0 .3.3 0 0 0 .18-.04Z" fill="#A9B4D2"/><path d="m11.16 7.14.6.53c-.13.03-.19.08-.17.16-.09-.27-.26-.35-.51-.24l-.2.08a.92.92 0 0 0-.45.3c-.12.13-.21.23-.3.29a.05.05 0 0 1-.03 0 .05.05 0 0 1-.04-.02V8.2a.12.12 0 0 0 .04-.04l-.01-.05-.03-.02c-.03 0-.04 0-.05.03a.6.6 0 0 0-.02.24l-.01.07-.03.02c-.04.02-.06 0-.06-.04l.02-.07a.06.06 0 0 0 0-.07.07.07 0 0 0-.05-.04c-.02 0-.03 0-.04.02v.02c-.03.03-.06.03-.08 0l-.04-.03h-.05c-.02.05-.05.06-.09.04a35.3 35.3 0 0 0-1.16-.01c-.04-.03-.08-.03-.12 0 0 .01-.01.02-.02.01-.06-.01-.08-.05-.05-.12.01-.02 0-.04-.02-.06-.04-.03-.06-.02-.06.03v.07c0 .06-.03.08-.1.06a.12.12 0 0 0-.1.01c-.03.02-.06 0-.07-.04-.04-.1-.1-.17-.16-.2l.18-.43.02-.1c.03-.05.06-.07.09-.04.04-.03.04-.07.01-.13h.34c.08-.01.16 0 .23.02a.1.1 0 0 0 .08 0h.02l.02-.02.82-.01c.03 0 .04.01.05.03v.03c0 .02 0 .03.03.03s.05-.02.06-.05c0-.02.01-.03.03-.03h.04s.02 0 .02.02h.04l.4-.05a.1.1 0 0 1 .1.03c.01.02.03.02.05 0a3.95 3.95 0 0 1 .77 0c.04 0 .07 0 .09-.03.01-.03.01-.05 0-.07-.08-.08-.09-.1-.03-.09Z" fill="#567DA5"/><path d="M8 7.33c.03.06.03.1-.02.13-.02-.02-.05-.01-.08.04v-.24l.04-.02c.03 0 .05 0 .05.04l.01.05ZM10.96 7.41c0-.05.04-.07.09-.06.05.01.1.04.12.1.01.03 0 .05-.04.05h-.44c-.03 0-.04-.01-.02-.04l.02-.03h.02l.21.01c.02 0 .04 0 .04-.03ZM10 7.42 10 7.4h.04l.01.02v.02a.24.24 0 0 0-.08.1c-.02.04-.05.05-.09.02l-.01-.01a.03.03 0 0 0-.03-.02c-.01 0-.02 0-.03.02l-.02.05c-.03.05-.05.05-.07 0a.26.26 0 0 0-.02-.03c-.02-.03-.04-.03-.06 0l-.04.06-.02.01c-.02 0-.02 0-.03-.02-.01-.1-.06-.12-.14-.05H9.4l-.03-.03c-.02-.01-.02-.03 0-.04.08-.07.14-.06.2 0 .02.04.04.03.05 0 0-.02 0-.03.02-.04l.06-.01h.25c.02 0 .04 0 .05-.03Z" fill="#9BA3B0"/><path d="M10.89 7.67a39.08 39.08 0 0 0-1.04.97H9.8c-.01-.01-.02-.02-.01-.03 0-.01 0-.02-.02-.03-.03 0-.04 0-.05.02a.08.08 0 0 1-.09.04 5.54 5.54 0 0 0-1.17-.04c-.05-.02-.09 0-.1.05 0 .01-.01.02-.03.02-.01 0-.02 0-.02-.02a.13.13 0 0 0-.05-.08c-.04-.03-.06-.02-.07.03v.02c-.01.05-.04.06-.07.03a2.52 2.52 0 0 1-.43-.44.08.08 0 0 0-.06-.04c-.04 0-.04-.03-.02-.06a.34.34 0 0 1 .08-.07c.07.02.12.08.15.2.02.04.04.05.09.03a.12.12 0 0 1 .1 0c.05.01.08-.01.08-.07v-.07c0-.05.03-.06.07-.03.02.02.03.04.02.06-.03.07-.02.1.05.12h.02c.04-.04.08-.04.12-.01.02.02.04.02.07 0a.06.06 0 0 1 .06-.01h.08a35.3 35.3 0 0 1 .95.02c.04.02.07.01.09-.03a.03.03 0 0 1 .05-.01l.03.04c.03.02.06.02.08 0l.01-.03.04-.02c.02 0 .04.02.05.04.01.03.01.05 0 .07a.15.15 0 0 0-.02.07c0 .04.02.06.06.04l.02-.02a.09.09 0 0 0 .02-.07.6.6 0 0 1 .02-.24c0-.03.02-.03.04-.03s.03.01.03.02c.02.01.02.03.01.05l-.02.04c-.02.01-.02.03-.01.04 0 .02.02.03.04.03l.04-.01c.08-.06.17-.16.28-.3a.92.92 0 0 1 .47-.3Z" fill="#0D1C53"/><path d="M9.67 12.5c-.7.02-1.4.01-2.11-.03a.83.83 0 0 1-.51-.19c-.52-.43-.84-.8-.96-1.09a.14.14 0 0 1-.01-.08c.1-.47.22-.98.37-1.51a3.7 3.7 0 0 0 .06-.86l.03-.01h.05c.03 0 .04.02.04.04 0 .38-.02.71-.1 1-.14.53-.23.87-.26 1.03l-.07.34c0 .03 0 .06.02.08.17.24.35.47.56.68.27.28.5.42.67.44.9.07 1.88.08 2.92.02.19 0 .36-.07.51-.18.33-.25.62-.57.88-.94.05-.09.05-.2-.01-.3l-.38-1.64c0-.45 0-.9-.03-1.33a.22.22 0 0 0-.05-.1.75.75 0 0 1-.02-.05c.01-.04-.01-.06-.07-.06l-.04.01c-.42.35-.77.69-1.05 1.03a.14.14 0 0 1-.07.05.6.6 0 0 1-.25.02h-1.5c0 .02-.02.02-.06 0l-.24-.02a.11.11 0 0 1-.08-.03l-.47-.53c.04-.05.09-.05.15.01l.37.39c.04.04.09.06.15.06a33.59 33.59 0 0 1 1.8 0 .3.3 0 0 0 .18-.11c.35-.4.69-.72 1.02-.97.06-.04.11-.05.17-.03.07.02.1.06.13.12.03.07.05.14.05.22.02.38.04.76.04 1.14 0 .24.04.46.1.67.1.4.21.82.3 1.26a.3.3 0 0 1-.04.24c-.3.43-.6.77-.95 1.03a.84.84 0 0 1-.41.14c-.27.03-.55.04-.83.05Z" fill="#121319"/><path d="M11.76 7.67a3.6 3.6 0 0 1 .68 3.54l.01.05c.02.02.04.02.06.02l.15-.04c-.31.89-.84 1.56-1.58 2.01a3.96 3.96 0 0 1-4.83-.54 3.77 3.77 0 0 1-.92-1.53c.06.01.11.07.16.16.02.02.03.03.06.02l.02-.04a6.06 6.06 0 0 0-.14-.58c-.07-.28-.1-.63-.05-1.05 0-.14.06-.41.15-.8l.48-.95c-.07.4.04.65.32.76.03.01.04.03.04.07a27.15 27.15 0 0 0-.01.55c0 .13-.03.25-.06.36l-.33 1.35c-.02.14.05.33.22.55.1.13.25.3.45.49l.02.02.02.01.3.27c.13.1.24.16.34.18.7.12 1.55.14 2.51.07l.76-.06c.2-.02.47-.18.79-.5a4.87 4.87 0 0 0 .59-.74.4.4 0 0 0 .05-.28c-.09-.45-.19-.87-.3-1.25a2.4 2.4 0 0 1-.09-.61c0-.46-.02-.9-.04-1.35-.02-.08.04-.13.17-.16Z" fill="#0D1C53"/><path d="M11.27 7.82c-.02.02-.02.03-.01.04l-.15.17c-.12.04-.17.15-.16.32l-.38.76c-.03.05-.01.07.04.05.03 0 .05-.02.07-.04.03-.03.06-.03.1 0l.04.09c0 .03.03.05.06.05l.24.05c0 .04.02.05.06.04.03 0 .06-.01.08-.04.03-.03.07-.04.1 0l.39 1.62-.3-.59a.12.12 0 0 0-.05-.05l-.4-.2h-.04c0 .02-.01.02-.02.01-.01-.03-.03-.03-.06 0 0 .02-.02.02-.05.02a.67.67 0 0 0-.34-.13.59.59 0 0 0-.64.63l-.1.02c-.02 0-.03 0-.03-.02s-.01-.03-.03-.03a11.5 11.5 0 0 1-.56-.14c-.01 0-.02 0-.03.02 0 .01-.01.02-.03.02h-.55l-.07.02a.24.24 0 0 1-.23 0 .1.1 0 0 0-.07 0c-.13.03-.28.05-.44.04-.14-.12-.3-.22-.49-.29a.09.09 0 0 0-.08.01c-.17.1-.23.2-.2.28h-.4a.07.07 0 0 0-.07.04.51.51 0 0 1-.2.2l.26-1.01c.08-.3.11-.63.1-1 0-.03-.01-.04-.04-.05h-.08l-.01.03c0 .42-.01.7-.05.84a24.1 24.1 0 0 0-.37 1.5l.01.1c.12.28.44.65.96 1.08.14.12.3.18.51.2.7.03 1.4.04 2.1.03-.05.04 0 .08.17.11-.96.07-1.8.05-2.51-.08a.82.82 0 0 1-.34-.17 3.86 3.86 0 0 1-.32-.28l-.01-.02a4.8 4.8 0 0 1-.46-.49c-.17-.22-.24-.4-.22-.55.1-.45.2-.9.33-1.35.03-.11.05-.23.06-.37a5.78 5.78 0 0 0 .01-.54.06.06 0 0 0-.04-.07c-.28-.11-.39-.37-.32-.76l1.29.25c.02 0 .04.02.06.04.02.05.05.07.08.06l.47.53c.02.02.05.03.08.03l.24.03c-.05.22-.05.45-.02.69.02.1.08.14.18.1h.05c.09-.03.13-.1.13-.19v-.4A.11.11 0 0 0 8.52 9a.18.18 0 0 0-.17-.05c-.03 0-.05 0-.06-.03v-.05h1.18l-.06.69c0 .03.01.06.04.09.02.02.05.03.08.03h.18l.06-.03a.08.08 0 0 0 .02-.06l-.01-.72a.6.6 0 0 0 .25-.02l.08-.05a7.3 7.3 0 0 1 1.08-1.04c.06 0 .08.02.07.06Z" fill="#C8D0DB"/><path d="m11.27 7.82.02.05c.03.03.04.07.04.1.03.44.04.88.04 1.33-.04-.03-.08-.02-.11.02a.13.13 0 0 1-.08.03c-.04.01-.07 0-.06-.04 0-.05-.05-.09-.15-.1a.1.1 0 0 1-.08-.05l-.12-.2a.1.1 0 0 1 0-.1c.15-.26.29-.51.4-.76a1.22 1.22 0 0 0 .1-.28Z" fill="#9BA3B0"/><path d="m11.25 7.86-.07.24c-.12.25-.26.5-.4.75a.1.1 0 0 0 0 .1l.11.21a.1.1 0 0 0 .08.05c.1.01.15.05.15.1l-.24-.05a.07.07 0 0 1-.06-.05.23.23 0 0 0-.05-.09c-.03-.03-.06-.03-.09 0a.15.15 0 0 1-.07.04c-.06.02-.07 0-.04-.05l.38-.76c.11-.13.17-.23.16-.32l.14-.17Z" fill="#121319"/><path d="M9.62 7.91c.04-.02.08-.01.1.02.01.02.02.03.01.05-.01.04-.03.04-.06.02-.05-.04-.09-.04-.12 0-.02.02-.04.02-.07 0a.07.07 0 0 1-.03-.03v-.03l.03-.01.1.01c.02 0 .04 0 .04-.03Z" fill="#1D5DB9"/><path d="M8.38 8.38c-.01.04 0 .08.03.09.03 0 .07-.03.08-.07 0-.04-.01-.08-.04-.08-.03-.01-.07.02-.07.06Z" fill="#567DA5"/><path d="M8.02 8.44c.03.03.07.03.1.01.02-.02.01-.06-.02-.09-.02-.03-.07-.03-.09-.01-.02.02-.02.06.01.09Z" fill="#1D5DB9"/><path d="M7.19 9.1a.23.23 0 0 0-.07.1.1.1 0 0 1-.05.04.4.4 0 0 1-.21.05c-.06 0-.06-.02 0-.04.14-.04.23-.12.27-.22.04-.12.01-.23-.1-.34-.02-.03-.02-.06.02-.08l.03-.02c.03-.01.05 0 .07.03l.23.48c.02.05 0 .07-.05.05a.21.21 0 0 1-.07-.04c-.02-.02-.05-.02-.07 0Z" fill="#121319"/><path d="M9.48 8.86h.3l.02.73-.03.06a.08.08 0 0 1-.05.02l-.18.01a.11.11 0 0 1-.08-.03.11.11 0 0 1-.04-.1l.06-.69Z" fill="#9BA3B0"/><path d="M5.53 8.88c-.09.4-.14.67-.15.81a3 3 0 0 0 .05 1.05c.06.2.1.4.14.58 0 .02 0 .03-.02.04-.02.01-.04 0-.05-.02-.06-.1-.11-.15-.17-.16a3.39 3.39 0 0 1-.02-2.2c0-.03.03-.05.06-.05l.16-.05Z" fill="#CD19BF"/><path d="M8.23 8.88h.06v.04c.02.03.04.04.07.03.07 0 .13 0 .17.06.02.02.03.04.03.07v.4c.01.1-.03.16-.12.18l-.05.02c-.1.03-.16 0-.18-.11-.04-.24-.03-.47.02-.7ZM9.08 8.93h-.17a.1.1 0 0 0-.1.1v.72c0 .06.05.1.1.1h.18a.1.1 0 0 0 .1-.1v-.71a.1.1 0 0 0-.1-.1Z" fill="#9BA3B0"/><path d="m12.66 11.24-.16.04c-.02 0-.03 0-.05-.02a.05.05 0 0 1 0-.05c.2-.64.24-1.27.12-1.9a.56.56 0 0 0 .06-.26c0-.03.02-.05.05-.05a3.59 3.59 0 0 1-.02 2.23Z" fill="#CD19BF"/><path d="M10.83 10.12c.15.14.23.3.23.48s-.08.34-.24.47c-.09.07-.19.11-.3.12-.1.01-.2 0-.3-.06a.67.67 0 0 1-.37-.51c0-.13.03-.24.09-.35a.59.59 0 0 1 .55-.28c.12.01.23.06.34.13Z" fill="#121319"/><path d="M11.75 10.93c.06.12.06.22 0 .3a3.9 3.9 0 0 1-.87.95.91.91 0 0 1-.51.19c-1.04.05-2.01.04-2.92-.03-.17-.01-.4-.16-.67-.44-.2-.21-.4-.44-.56-.68-.01-.02-.02-.05-.01-.08l.06-.34a.51.51 0 0 0 .2-.2.07.07 0 0 1 .06-.05h.42c.36.09.67.22.91.4.15.11.19.08.1-.08a1.28 1.28 0 0 0-.25-.32c.16.01.3 0 .44-.04a.1.1 0 0 1 .07 0c.08.04.16.04.23 0a.13.13 0 0 1 .07-.01h.55c.02 0 .03-.01.03-.03 0-.02.02-.03.03-.02a11.5 11.5 0 0 0 .59.17c0 .02 0 .03.03.02l.1-.02a.65.65 0 0 0 .67.57c.11 0 .21-.05.3-.12a.58.58 0 0 0 .24-.47.63.63 0 0 0-.23-.48c.03 0 .04 0 .05-.02.03-.03.05-.03.06 0H11l.4.19c.03 0 .05.03.06.05l.3.6Z" fill="#A9B4D2"/><path d="M10.03 10.4c-.06.16-.01.32.1.36.12.04.26-.05.32-.2.06-.16 0-.32-.1-.36-.12-.04-.26.05-.32.2Z" fill="#FAFBFB"/><path d="M7.7 10.55c.14.13.22.23.27.32.08.16.04.19-.1.08a2.64 2.64 0 0 0-.92-.4c-.04-.09.02-.18.2-.28a.09.09 0 0 1 .07 0c.19.06.35.16.49.28Z" fill="#121319"/><path d="M10.66 10.88c0 .05.02.08.04.1a.45.45 0 0 1-.51.01c-.09-.05-.08-.07.02-.07l.4.04c.04 0 .05-.02.05-.08Z" fill="#685A5C"/><path d="m9.32 11.21-.3.18h-.05l-.29-.18c-.02-.01-.02-.03-.02-.05 0-.02.02-.03.04-.03h.6c.01 0 .03.01.03.04l-.01.04ZM9.82 11.58c-.04-.05-.03-.07.04-.06l.07.02c.02 0 .03.01.04.03.04.1.03.18-.02.26a.18.18 0 0 1-.1.06.18.18 0 0 1-.11 0l-.65-.24a.23.23 0 0 0-.16 0c-.2.06-.39.13-.58.21-.12.04-.2.04-.26 0-.07-.05-.1-.13-.08-.26 0-.02.02-.04.04-.05l.07-.02h.03l.01.04c-.07.2 0 .25.18.17l.53-.2a.38.38 0 0 1 .26.01l.63.23h.06c.08-.05.08-.12 0-.2Z" fill="#121319"/></svg>