<!-- by TradingView --><svg width="18" height="18" viewBox="0 0 18 18" xmlns="http://www.w3.org/2000/svg"><path fill="#F0F3FA" d="M0 0h18v18H0z"/><circle cx="9" cy="9" r="6" fill="#030304"/><path d="m14.82 8.62-.86.43c-.1-.33-.28-.59-.54-.76-.18-.11-.41-.18-.65-.26a.1.1 0 0 1-.06-.08 22.3 22.3 0 0 0-.2-1.3c-.13-.67-.37-1.3-1-1.63-.38-.19-.76-.3-1.16-.35-.56-.06-1 .06-1.34.5-.2.24-.37.51-.5.81a.13.13 0 0 1-.14.08 4.89 4.89 0 0 0-1.4.01.13.13 0 0 1-.05-.04c-.34-.39-.76-.65-1.26-.8-.09-.02-.11 0-.07.1l.1.21a.06.06 0 0 1-.05.08c-.17 0-.3.01-.36.03-.13.04-.13.08-.02.14a4.15 4.15 0 0 1 .9.6.07.07 0 0 1-.01.08l-.27.25c-.38.18-.5.46-.38.84l.33 1c.06.14.16.25.3.33a.09.09 0 0 1 .03.13 27.62 27.62 0 0 0-.4.65 9.65 9.65 0 0 1-2.58-1 5.84 5.84 0 0 1 11.64-.05Z" fill="#FB6A6D"/><path d="M5.88 6.72c-.1.2-.12.42-.07.66.16.66.27 1.13.87 1.47a.07.07 0 0 1 0 .11c-.25.22-.46.5-.63.8l-.33-.06-.02-.02h.05a27.62 27.62 0 0 1 .42-.7.09.09 0 0 0-.04-.09.65.65 0 0 1-.3-.33l-.33-1c-.13-.38 0-.66.38-.84Z" fill="#C45355"/><path d="M14.4 11.21c-.05.12-.1.25-.16.36a5.84 5.84 0 0 1-6.92 3.02c-.47-.73-.94-1.46-1.24-2.25-.33-.85-.3-1.68.1-2.48C6.52 9.1 7.2 8.7 7.94 8.4c.64-.25 1.3-.46 1.96-.63a3.06 3.06 0 0 1 1.6.01c.53.15 1.07.32 1.61.51a1 1 0 0 1 .6.54c.12.27.23.58.3.92.12.48.24.97.38 1.45Z" fill="#fff"/><path d="M14.82 8.62c.05.8-.06 1.6-.33 2.36l-.53-1.93.86-.43ZM5.7 9.68l.02.02c.02.02.02.04.01.06-.08.19-.18.39-.3.6-.06.1-.12.32-.18.64-.07.36.07.84.16 1.18.04.16.1.33.2.5.21.47.43.96.64 1.47a5.83 5.83 0 0 1-3.08-5.48l1.3.62c.31.13.72.26 1.23.4Z" fill="#E1292B"/><path d="M6.05 9.76a3.28 3.28 0 0 0 0 2.9c.26.55.6 1.17 1.04 1.85-.29-.1-.57-.22-.84-.36-.2-.51-.43-1-.65-1.46a2.86 2.86 0 0 1-.19-.5c-.09-.35-.23-.83-.16-1.19.06-.32.12-.53.18-.64.12-.21.22-.41.3-.6.01-.02 0-.04-.01-.06l.33.06Z" fill="#AD2223"/><path d="M4.27 8.12c.25-.08.41-.26.37-.4-.05-.15-.29-.2-.54-.13-.25.08-.41.26-.36.4.04.16.28.21.53.13ZM5 8.9c.32-.1.53-.34.47-.53-.06-.2-.37-.28-.7-.18-.31.1-.52.34-.46.54s.37.27.7.17Z" fill="#F5968C"/><path d="M8.48 6.2a.14.14 0 0 0 .13-.1c.13-.33.32-.63.55-.9.57-.65 1.7-.38 2.35-.01.31.17.52.44.64.79a6.86 6.86 0 0 1 .29 1.32.03.03 0 0 1-.03 0c-.37-.1-1.15-.35-1.74-.3-1.02.06-1.93.23-2.75.5a4.36 4.36 0 0 0-1.56.87.07.07 0 0 1-.05-.03 2.77 2.77 0 0 1-.4-1.2c-.03-.3.24-.52.52-.68.37-.2.8-.3 1.31-.29l.74.02Z" fill="#3962DC"/><path d="M8.9 10.6c-.03-.26-.08-.44-.02-.73.08-.42.52-.47.87-.4a.04.04 0 0 0 .03 0 .04.04 0 0 0 .01-.05c-.12-.5.05-.82.52-.97.62-.19 1.1.2 1.5.62a.1.1 0 0 0 .1.02c.18-.05.36-.07.55-.06a.14.14 0 0 1 .11.05c.17.21.17.46.06.71-.22.5-.61.82-1.13.97l-.5.16c-.51.19-.78.73-1.13 1.07-.6.6-1.78.73-2.57.57a.06.06 0 0 1-.04-.02.06.06 0 0 1 0-.04l.04-.32v-.08c-.27-.54-.66-1.42.02-1.8.55-.3 1.1-.13 1.51.34.06.06.08.05.07-.03Z" fill="#030304"/><path d="M9.84 5.7c.19-.1.3-.28.24-.4-.06-.1-.26-.1-.46 0-.19.1-.3.27-.24.38.06.11.26.12.46.01ZM9.53 6.08c.1-.03.15-.11.12-.18-.02-.07-.1-.1-.2-.07-.09.03-.14.11-.12.18.02.07.11.1.2.07Z" fill="#7CAAF7"/><path d="M11.46 9.18c-.42-.43-1.1-.4-1.1.34 0 .06-.03.08-.09.07l-.23-.04a.12.12 0 0 1-.1-.1c-.05-.28-.1-.58.17-.75.6-.38 1.1-.02 1.54.4.04.05.03.08-.02.1l-.03.01a.12.12 0 0 1-.14-.03Z" fill="#fff"/><path d="M8.8 11.42c.59-.48-.02-1.13.27-1.65.1-.2.45-.2.64-.15.43.1.73.18 1.16.02l1.1-.41a1.08 1.08 0 0 1 .45-.06l.01.01a.03.03 0 0 1 0 .02.93.93 0 0 1-.74.7c-.67.15-1.47.35-1.84.95-.1.17-.19.43-.38.6-.53.44-1.15.76-1.84.8-.23 0-.24-.03-.02-.12.45-.2.85-.43 1.2-.71Z" fill="#FAB731"/><path d="M11.97 9.97c.24-.06.45-.35.54-.56.04-.09.06-.08.06.01 0 .5-.48.95-.9 1.13l-.63.21c-.48.15-.79.53-1.08.92-.49.68-1.63.9-2.41.77-.17-.03-.17-.05 0-.07l.28-.02a3.22 3.22 0 0 0 1.76-.84c.1-.1.18-.2.23-.3.21-.54.59-.8 1.17-.98.27-.09.6-.18.98-.27Z" fill="#FAB731"/><path d="M8.23 10.84c-.67-.14-.79.58-.51 1.02.01.03.01.04-.01.06l-.2.11c-.04.03-.08.02-.1-.03a4.9 4.9 0 0 1-.28-.74c-.13-.42-.02-.74.39-.9.58-.23.94.11 1.35.52.05.05.06.1.03.16l-.04.1c-.03.07-.07.08-.12.03-.22-.2-.39-.3-.5-.33Z" fill="#fff"/></svg>