<!-- by TradingView --><svg width="18" height="18" viewBox="0 0 18 18" xmlns="http://www.w3.org/2000/svg"><path fill="#181B1E" d="M0 0h18v18H0z"/><path fill="#fff" d="M5 8h1v1H5zM5 10h1v1H5zM4 9h1v1H4zM6 9h1v1H6z"/><path fill-rule="evenodd" d="M9.21 5H10v.67h.68V5h.8v.67c.9.09 2.04.5 2.04 1.62 0 .88-.44 1.27-.66 1.35.38.1 1.14.56 1.14 1.51 0 1.19-.63 2.15-2.53 2.17V13h-.79v-.67H10V13h-.78v-.67H8v-1h.63V6.67H8v-1h1.21V5ZM10 6.67c.93 0 2 .09 2 .88 0 .98-1.35.92-2 .92v-1.8Zm2.42 3.62c0-.87-1.32-.94-2.42-.94v1.98c.73 0 2.42.07 2.42-1.04Z" fill="#fff"/></svg>