<!-- by TradingView --><svg width="18" height="18" viewBox="0 0 18 18" xmlns="http://www.w3.org/2000/svg"><path fill="#181B1E" d="M0 0h18v18H0z"/><path d="M4.36 12.67c.2 0 .35-.15.35-.34 0-.18-.16-.33-.35-.33-.2 0-.36.15-.36.33 0 .19.16.34.36.34ZM5.14 11.99c.08 0 .15-.03.2-.09l3.87-3.7a.31.31 0 0 0 0-.42.28.28 0 0 0-.2-.08.3.3 0 0 0-.21.08l-3.6 3.43a4.03 4.03 0 0 1-.61-2.13 4.54 4.54 0 0 1 6.99-3.75.28.28 0 0 0 .37-.03l1.97-1.79a.3.3 0 0 0 .08-.22.32.32 0 0 0-.08-.2.28.28 0 0 0-.2-.09.3.3 0 0 0-.21.09l-1.81 1.7C10.9 4.27 9.91 4 9.03 4A5.04 5.04 0 0 0 4 9.08c0 .95.41 2.13.9 2.78.06.08.15.13.24.13ZM13.07 6.1a.28.28 0 0 0-.39-.05.26.26 0 0 0-.05.37c.53.69.79 1.57.79 2.43-.15 2.7-2.26 4.65-4.41 4.65-.7 0-1.6-.24-2.29-.68l3.87-3.6a.26.26 0 0 0 .08-.18.27.27 0 0 0-.3-.27.3.3 0 0 0-.18.08l-6.11 5.7c-.1.1-.1.26 0 .37.06.05.12.08.2.08.06 0 .14-.03.19-.08L6.3 13.2c.73.47 1.58.8 2.7.8C11.58 14 14 11.92 14 8.77c0-.97-.32-1.9-.93-2.66Z" fill="#fff"/></svg>