<!-- by TradingView --><svg width="18" height="18" viewBox="0 0 18 18" xmlns="http://www.w3.org/2000/svg"><path fill="#075A5A" d="M0 0h18v18H0z"/><path d="M12.9 8.96c-.03.03-.08.04-.14.03l-.13-.03a18.5 18.5 0 0 1-.7-.3c-.04-.02-.06 0-.07.03l-.1-.15.87.33c.05.02.06 0 .03-.04a445.86 445.86 0 0 0-3.65-5.6c-.02-.01-.04 0-.05.01l-.73 1.14a142 142 0 0 0-2.89 4.45c-.02.05-.01.06.04.04l.78-.32.03.01v.03a.24.24 0 0 1-.08.15L6.1 8.7c-.01-.02-.03-.02-.05-.01l-.97.37a.05.05 0 0 1-.04.01H5v-.04l3.96-6.01L9 3a.04.04 0 0 1 .03 0l.02.02 3.86 5.94Z" fill="#4C8888"/><path d="M9.05 3.31a.46.46 0 0 0-.05.23v.77L6.2 8.6l-.01-.03c0-.01-.01-.02-.03-.01l-.78.32c-.05.02-.07 0-.04-.04.93-1.5 1.9-2.98 2.89-4.45l.73-1.14c.01-.02.03-.02.05 0 .02.01.03.04.04.07Z" fill="#85AEAE"/><path d="M9 3.23a444.45 444.45 0 0 1 3.66 5.6c.03.05.02.06-.03.04l-.87-.33L9 4.31V3.24Z" fill="#70A0A0"/><path d="m9.01 4.31 2.75 4.23.1.15.14.2.04.08c-.04.05-.1.06-.2.02L9 7.79V4.45c0-.05 0-.08-.03-.1 0-.03.01-.04.04-.04Z" fill="#C1DCDC"/><path d="M8.97 4.35c.02.02.03.05.03.1v3.34L6.21 8.97c-.08.03-.15.02-.23.04a.02.02 0 0 1-.03-.02v-.01l.08-.12.08-.12a.24.24 0 0 0 .08-.15l2.78-4.24Z" fill="#fff"/><path d="M9 7.79v2.94h-.02l-.02.01c-.91-.5-2.32-1.2-3.08-1.7-.02 0-.02-.02 0-.03a.18.18 0 0 1 .08-.03V9h.02c.07 0 .15 0 .23-.03L9 7.79Z" fill="#70A0A0"/><path d="m9 7.79 2.84 1.2c.1.04.16.03.2-.02.04.01.06.03.07.04.01.03 0 .04-.02.06l-3.08 1.69-.01-.03V7.8Z" fill="#A6C4C4"/><path d="M12.9 8.96c.05.02.08.05.1.08 0 .02 0 .03-.02.04-1.23.72-2.47 1.2-3.97 2.03L5.34 9.13l-.02-.02a.04.04 0 0 1 0-.05l.03-.01.68-.2-.07.13a.18.18 0 0 0-.08.03c-.02.01-.02.02 0 .03.76.5 2.17 1.2 3.08 1.7h.02l.03.02-.02.33.02.02a.03.03 0 0 0 .02 0l3.63-2c.04-.01.04-.03 0-.04L12 8.89l-.2-.3c.32.16.61.3.96.4.06.01.1 0 .14-.03Z" fill="#317676"/><path d="m12 8.89.66.18c.04 0 .04.03 0 .05L9.04 11.1h-.02A.03.03 0 0 1 9 11.1v-.34l3.1-1.7c.02 0 .02-.02.01-.05 0-.01-.03-.03-.07-.04L12 8.89Z" fill="#4C8888"/><path d="M9 11.32v2.35l-2.03-2.63-.3-.37-.74-1c-.04-.04-.03-.05.03-.02L9 11.32Z" fill="#fff"/><path d="m12.09 9.67-.76 1-.32.4L9 13.7v-2.38a551.74 551.74 0 0 1 3.07-1.67l.02.02Z" fill="#C1DCDC"/><path d="m6.68 10.67.29.37-1.2-.63c-.05-.03-.06-.02-.02.04L9 14.69a1455.2 1455.2 0 0 0 3.27-4.26c0-.03-.02-.04-.05-.02l-1.2.65.3-.38 1.6-.86c.06-.02.07-.02.03.03L9.02 15H9a.02.02 0 0 1-.03 0L5.03 9.84c-.02-.04-.02-.05.02-.03l1.63.86Z" fill="#4C8888"/><path d="M6.97 11.04 9 13.67v1.02l-3.25-4.24c-.04-.06-.03-.07.03-.04l1.19.63Z" fill="#85AEAE"/><path d="M9 14.69v-1.02l.05-.04L11 11.05l1.21-.65c.03-.02.05-.01.05.02 0 .02-.01.03-.03.04A1434.9 1434.9 0 0 1 9 14.69Z" fill="#70A0A0"/></svg>