<!-- by TradingView --><svg width="18" height="18" viewBox="0 0 18 18" xmlns="http://www.w3.org/2000/svg"><path fill="url(#a)" d="M0 0h18v18H0z"/><path d="M11.85 7.06a1173.8 1173.8 0 0 0-5.61 5.62.7.7 0 0 1-.5.23.6.6 0 0 1-.44-.18.6.6 0 0 1-.2-.41c0-.18.07-.34.21-.49l5.62-5.63c.03-.03.03-.06-.01-.08a.55.55 0 0 1-.3-.48.6.6 0 0 1 .25-.53.63.63 0 0 1 .32-.1 4.98 4.98 0 0 1 .86 0c.3 0 .5.01.6.05.22.1.34.3.35.6v1c0 .33-.14.54-.43.63a.5.5 0 0 1-.37-.01 1.1 1.1 0 0 1-.3-.22c-.01-.02-.03-.02-.05 0Zm-5-1.85-.03-.03a.6.6 0 0 0-.85 0l-.8.8a.6.6 0 0 0 0 .85l.04.03a.6.6 0 0 0 .85 0l.8-.8a.6.6 0 0 0 0-.85Zm2.94 0h.01c.25.25.25.64 0 .88L6.12 9.8a.62.62 0 0 1-.87 0h-.01a.62.62 0 0 1 0-.88l3.69-3.72a.62.62 0 0 1 .87 0Zm3 3h-.01a.62.62 0 0 0-.87 0l-3.69 3.7a.62.62 0 0 0 0 .87l.02.01c.24.24.63.24.87 0l3.68-3.7a.62.62 0 0 0 0-.88Zm-.04 2.92.04.03a.6.6 0 0 1 0 .85l-.81.81a.6.6 0 0 1-.85 0l-.03-.03a.6.6 0 0 1 0-.85l.8-.8a.6.6 0 0 1 .85 0Z" fill="#fff"/><defs><linearGradient id="a" x1="3.35" y1="3.12" x2="21.9" y2="24.43" gradientUnits="userSpaceOnUse"><stop stop-color="#1A1E21"/><stop offset="1" stop-color="#06060A"/></linearGradient></defs></svg>