<!-- by TradingView --><svg width="18" height="18" viewBox="0 0 18 18" xmlns="http://www.w3.org/2000/svg"><path fill="url(#a)" d="M0 0h18v18H0z"/><path fill-rule="evenodd" d="M14 10.54V7.46c0-.27 0-.5-.07-.74a1.95 1.95 0 0 0-.99-1.22 2100.15 2100.15 0 0 1-3.6-1.98v2.97a.05.05 0 0 0 .02.04l1.63 1.08.01.02V8.1l.01.02h.97a.03.03 0 0 0 .03-.01L12 8.1v-.86c0-.09-.01-.13-.1-.17-.52-.3-.9-.54-1.19-.73A8.47 8.47 0 0 0 10.2 6V4.96h.01c.42.23.8.46 1.15.68l1.01.6c.35.2.55.46.6.82.02.06.03.26.03.58v1.81a1366.64 1366.64 0 0 0-.02 1.5c-.06.34-.26.62-.6.81-.36.2-.68.4-1.02.6-.36.22-.72.45-1.14.68h-.02V12a8.47 8.47 0 0 0 .51-.34c.3-.2.67-.44 1.2-.73.08-.04.09-.08.09-.17v-.88H11V10.37l-.02.02-1.63 1.08-.02.02v2.99c0 .02 0 .02.02.01 1.56-.87 2.76-1.53 3.58-2 .52-.28.85-.68 1-1.21.06-.24.06-.47.06-.74ZM7 9A447.19 447.19 0 0 0 7 10.38l1.63 1.1a.05.05 0 0 1 .03.03v2.97a.02.02 0 0 1-.02.01l-3.43-1.9c-.23-.13-.4-.24-.5-.31a1.87 1.87 0 0 1-.7-1.2 4.33 4.33 0 0 1-.02-.59V7.51c0-.27.01-.47.03-.58.07-.5.3-.9.7-1.2.09-.08.26-.19.5-.32a5004.85 5004.85 0 0 0 3.43-1.9V6.5a.05.05 0 0 1-.02.04L7.01 7.62a.02.02 0 0 0-.01.01V9ZM6 9v1.72c0 .07.02.11.08.14l.44.29c.28.18.64.42 1.15.72l.02.02v1.01h-.01l-2.14-1.25a1.05 1.05 0 0 1-.52-.76A167.17 167.17 0 0 0 5 7.64c0-.28 0-.45.02-.52.05-.34.23-.6.51-.76l2.15-1.27h.01v1.02l-.02.02c-.5.3-.87.54-1.15.73l-.44.28c-.06.03-.08.08-.08.14V9Z" fill="#22D191"/><defs><linearGradient id="a" x1="3.35" y1="3.12" x2="21.9" y2="24.43" gradientUnits="userSpaceOnUse"><stop stop-color="#1A1E21"/><stop offset="1" stop-color="#06060A"/></linearGradient></defs></svg>