<!-- by TradingView --><svg width="18" height="18" viewBox="0 0 18 18" xmlns="http://www.w3.org/2000/svg"><path fill="#0F1622" d="M0 0h18v18H0z"/><path d="M7.83 4.16a.55.55 0 0 0 0 .78L9.4 6.51a.55.55 0 0 0 .78-.78L8.62 4.16a.55.55 0 0 0-.79 0ZM11 5.5a.5.5 0 0 1 1 0v2a.5.5 0 0 1-1 0v-2Zm-6 1c0 .28.22.5.5.5h2a.5.5 0 1 0 0-1h-2a.5.5 0 0 0-.5.5Zm-.84 3.61c.22.22.57.22.79 0L6.5 8.55a.55.55 0 1 0-.78-.79L4.16 9.33a.55.55 0 0 0 0 .78ZM7 12.5a.5.5 0 0 1-1 0v-2a.5.5 0 0 1 1 0v2Zm3.18 1.34a.55.55 0 0 0 0-.78l-1.56-1.57a.55.55 0 0 0-.79.78l1.57 1.57c.22.21.57.21.78 0ZM12.5 11a.5.5 0 0 1 0 1h-2a.5.5 0 1 1 0-1h2Zm1.34-3.24a.56.56 0 0 0-.79 0L11.5 9.33a.55.55 0 1 0 .78.78l1.57-1.56a.55.55 0 0 0 0-.79Z" fill="#2DDB9C"/></svg>