<!-- by TradingView --><svg width="18" height="18" viewBox="0 0 18 18" xmlns="http://www.w3.org/2000/svg"><path fill="#5831FE" d="M0 0h18v18H0z"/><path d="M11.84 6.78a1.3 1.3 0 0 0-.73-1.72 1.36 1.36 0 0 0-1.46.28 1.31 1.31 0 0 0 0 1.87 1.35 1.35 0 0 0 2.19-.43Zm-.62-.5c0 .34-.28.6-.62.6a.62.62 0 0 1-.63-.6c0-.34.28-.61.63-.61.34 0 .62.27.62.6ZM7.26 7.99a1.31 1.31 0 0 0 0-1.87 1.35 1.35 0 0 0-1.9 0 1.31 1.31 0 0 0 0 1.87 1.35 1.35 0 0 0 1.9 0Zm-.33-.94c0 .34-.27.61-.62.61a.62.62 0 0 1-.62-.6c0-.35.28-.62.62-.62.35 0 .62.27.62.61Z" fill="#fff"/><path fill-rule="evenodd" d="M9.8 13.93a4.52 4.52 0 0 1-5.24-3.68 4.32 4.32 0 0 1 .03-1.63l-.01-.06a2.28 2.28 0 0 1 1.18-3.72A2.33 2.33 0 0 1 8.3 5.87h.01a2.3 2.3 0 0 1 2-1.85 2.3 2.3 0 0 1 2.58 2.03c.03.35-.01.7-.14 1.03l.01.07a4.36 4.36 0 0 1 .62 1.5l.04.23a4.45 4.45 0 0 1-3.63 5.05Zm2.03-6.43a1.71 1.71 0 0 0 0-2.44 1.76 1.76 0 0 0-2.47 0 1.71 1.71 0 0 0 0 2.44 1.76 1.76 0 0 0 2.47 0Zm-4.28.77a1.71 1.71 0 0 0 0-2.44 1.77 1.77 0 0 0-2.47 0 1.71 1.71 0 0 0 0 2.44 1.77 1.77 0 0 0 2.47 0Zm2.08 4.7a.86.86 0 0 1-.94-.48c-.04-.09-.07-.2-.1-.35a774.4 774.4 0 0 0-.38-1.92c-.39-.06-.74-.2-1.07-.42a.2.2 0 0 1 .21-.34 2.3 2.3 0 0 0 3.14-.57c.16-.22.5 0 .32.25a2.61 2.61 0 0 1-.87.78v.02l.36 1.89c.03.15.04.27.03.36a.85.85 0 0 1-.7.77Zm-.08-2.86h.01l.36 1.93a.45.45 0 0 1-.36.53.46.46 0 0 1-.54-.36l-.36-1.93h.01l.88-.17Z" fill="#EAFF04"/></svg>