<!-- by TradingView --><svg width="18" height="18" viewBox="0 0 18 18" xmlns="http://www.w3.org/2000/svg"><path fill="#F0F3FA" d="M0 0h18v18H0z"/><path d="M12.5 4.5c.17.03.3.1.41.17.06.27.05.49-.04.64-.31.58-.87.99-1.36 1.4-.15.12-.37.24-.53.4l-.52.37-.47-.6.3-.1c.32-.11.63-.26.91-.44l.57-.42c.02-.02.03-.04 0-.06l-.5-.58.65.48a.05.05 0 0 0 .07 0c.17-.16.44-.48.44-.71a.22.22 0 0 0-.14-.2.21.21 0 0 0-.08-.02c-.37.02-.72.14-1.05.36l-.4-.2c.48-.25.98-.4 1.5-.49h.24Z" fill="#76B1FE"/><path d="m8.55 4.65-.53.3a1.1 1.1 0 0 0-.32.3.82.82 0 0 0-.13.87c.17.4.5.67.99.82-.4-.01-.76-.22-1.07-.63-.18-.23-.35-.47-.52-.72-.07-.11-.22-.17-.45-.17.6-.45 1.29-.7 2.03-.77Z" fill="#87D4FF"/><path d="m10.76 4.99.4.2c.07.05.1.08.11.1l.5.57c.03.02.02.04 0 .06l-.56.42-2.09-1.7c.58 0 1.12.12 1.64.35Z" fill="#39AEFB"/><path d="M12.74 6.73 12 7.96l-1.02-.84c.16-.17.38-.3.53-.41.5-.41 1.05-.82 1.36-1.4.09-.15.1-.37.04-.64.57.53.14 1.5-.17 2.06Z" fill="#87D4FF"/><path d="m11.27 5.28-.1-.09c.32-.22.67-.34 1.04-.36a.21.21 0 0 1 .2.13c.02.03.02.06.02.09 0 .23-.27.55-.44.7a.05.05 0 0 1-.07.01l-.65-.48Z" fill="#070660"/><path d="m11.2 6.34-2.08-1.7h-.57l-.53.3a1.1 1.1 0 0 0-.32.3l1.87 1.72.42-.07.3-.12c.32-.1.63-.25.92-.43Z" fill="url(#a)"/><path d="m7.7 5.25 1.87 1.71c-.33.06-.67.05-1.01-.02-.5-.15-.82-.42-1-.82a.82.82 0 0 1 .14-.87Z" fill="#2964D2"/><path d="M6.52 5.42c.23 0 .38.06.45.17.17.25.34.49.52.72.31.4.67.62 1.07.63.34.07.68.08 1.01.02L10 6.9l.47.59c-.48.42-.94.84-.82 1.53l-2.8-2.47c0-.19.01-.36-.1-.52-.16-.24-.4-.3-.71-.17l.49-.43Z" fill="#9AA3FF"/><path d="m6.83 6.54-.05.13c-.21-.32-.46-.6-.75-.82.31-.13.55-.07.72.17.1.16.08.33.08.52Z" fill="#070660"/><path d="M6.02 5.84v.01c.3.22.55.5.76.82a.95.95 0 0 1-.23.4.13.13 0 0 1-.07-.02l-.01-.06c.01-.27-.06-.5-.21-.71-.06-.08-.18-.13-.35-.15-.04 0-.05-.03-.05-.07l.01-.1c.04-.05.09-.09.15-.12Z" fill="#2D1595"/><path d="M5.87 5.97v.1c-.01.03 0 .05.04.06.17.02.29.07.35.15.15.2.22.44.2.7l.02.07.07.02-.14.18c-.5.4-1.07.76-1.69 1.06.15-.9.54-1.68 1.15-2.34Z" fill="#1249D8"/><path d="M9.64 9.01c.22.38.54.62.96.71.4.09.8.1 1.23.04l.49.47-.7.54c-.27.23-.42.53-.45.9L8.41 9.35c.03-.68-.6-1.02-1.19-1.11l-.81-1 .14-.18c.11-.12.19-.25.23-.4l.05-.13L9.63 9Z" fill="#AF9BFE"/><path d="m12.74 6.73.25.52c-.21.25-.36.53-.45.84-.01.03 0 .06.02.08.21.17.46.24.75.23l.04.38a1.5 1.5 0 0 1-.5.3 1 1 0 0 1-.52-.34.1.1 0 0 0-.07-.04.73.73 0 0 1-.5-.19l.24-.55.74-1.23Z" fill="#2E78DD"/><path d="m10.98 7.12 1.02.84-.24.55c-.21.9.56.9 1.09.56.18-.06.35-.16.5-.29.23-.15.4-.32.54-.5l.02.48c-.59.52-1.28.86-2.08 1-.43.06-.84.05-1.23-.04-.42-.1-.74-.33-.96-.7-.12-.7.34-1.12.82-1.54l.52-.36Z" fill="#AAD5FF"/><path d="m6.4 7.25.82 1A3.92 3.92 0 0 0 3.9 9.42c-.1.1-.21.3-.34.58l-.06-.18v-.09c.08-.42.3-.76.63-1.02.2-.16.4-.3.6-.4.61-.3 1.17-.66 1.68-1.06Z" fill="#CA91FE"/><path d="M12.98 7.28c.01.09.06.18.15.28l.18.84a1.1 1.1 0 0 1-.75-.23.06.06 0 0 1-.02-.08c.09-.3.24-.59.45-.84.02.03.02.04-.01.03Z" fill="#3393EC"/><path d="M14.46 7.91c-.1.37-.3.65-.55.85l-.02-.49c.27-.5-.43-.65-.76-.71a.54.54 0 0 1-.15-.28c.7 0 1.2.21 1.48.63Z" fill="#87D4FF"/><path d="M13.13 7.56c.33.06 1.03.22.76.71-.13.2-.31.36-.54.51l-.04-.38-.18-.84Z" fill="#070660"/><path d="m13.29 9.7-.97.53-.5-.47c.8-.14 1.5-.48 2.09-1 .26-.2.44-.48.55-.85.09.39.03.71-.19.99-.18.24-.4.44-.67.6l-.31.2Z" fill="#76B1FE"/><path d="M7.22 8.25c.59.09 1.22.43 1.2 1.1-.13.4-.34.73-.63.98l-1.47 1.14c-.46.35-1.18.95-1.2 1.54l-.01.3c-.57-.5-.11-1.5.18-2.06l.99-1.75c.06-.3.02-.53-.12-.66-.15-.15-.38-.17-.69-.06-.3.1-.58.27-.87.49-.3.2-.86.7-.3.99.15.07.35.13.6.17.06.09.1.2.12.3-.3-.01-.6-.07-.88-.17-.32-.12-.52-.3-.58-.56.13-.29.24-.48.34-.58.56-.54 1.2-.91 1.9-1.1.42-.1.9-.13 1.42-.07Z" fill="#DDBCFF"/><path d="M12.85 9.07c-.53.34-1.3.34-1.09-.56.15.13.32.2.5.2a.09.09 0 0 1 .07.03 1 1 0 0 0 .52.33Z" fill="#1249D8"/><path d="M6.28 9.5a.4.4 0 0 1-.18-.1.12.12 0 0 0-.07-.03l-.2-.04-.36-.55c.31-.1.54-.09.7.06.13.13.17.35.11.66Z" fill="#2D1595"/><path d="m5.47 8.78.35.55-.64.19c-.03 0-.05 0-.06-.03l-.15-.26a.09.09 0 0 0-.05-.04c-.11-.04-.2 0-.23.11l-.09-.03c.29-.22.58-.38.87-.49Z" fill="#2964D2"/><path d="m5.82 9.33.2.04c.03 0 .06.01.08.03.04.05.1.08.18.1l-1 1.75-.26-.51a.78.78 0 0 0-.12-.31c-.14-.37-.2-.74-.21-1.13.04-.11.12-.15.23-.1.02 0 .04.01.05.03l.15.26c.01.03.03.04.06.03l.64-.19Z" fill="#6E72F5"/><path d="m4.6 9.27.09.03c0 .39.07.76.2 1.13-.24-.04-.44-.1-.58-.17-.57-.3 0-.79.3-.99Z" fill="#3B29C1"/><path d="m11.17 11.66.1.32c.17.22.42.28.74.18l-.6.49a1.34 1.34 0 0 1-.38-.27c-.42-.62-.57-.94-1.11-1.22a.08.08 0 0 0-.07 0l-.03.05a2.38 2.38 0 0 0-1.76-.1c-.38.12-.76.27-1.12.48l-.6.4-.28.24-.06.07c-.2.17-.34.37-.4.6a.2.2 0 0 0 .15.26c.18.03.36 0 .55-.09l.55-.25c.1.12.22.19.35.21-.48.24-.96.4-1.42.47h-.24c-.2-.03-.34-.09-.43-.18v-.3c.03-.6.75-1.2 1.21-1.55a84.4 84.4 0 0 0 1.47-1.14c.3-.25.5-.58.62-.97l2.76 2.3Z" fill="#CA91FE"/><path d="M13.29 9.7a1.9 1.9 0 0 1-.18.72c-.37.13-.7.31-.99.54l-.5-.2.7-.53.97-.54Z" fill="#3B29C1"/><path d="M13.1 10.42c-.13.43-.32.8-.56 1.13l-.54-.48c.03-.06.07-.1.12-.1.3-.24.62-.42.99-.55Z" fill="#6E72F5"/><path d="m11.62 10.77.5.2c-.05 0-.09.04-.12.1-.3.26-.55.56-.73.9l-.1-.3c.03-.37.18-.67.45-.9Z" fill="#7626D8"/><path d="M9.82 11.21c.24.13.42.3.54.48.23.37.21.75-.06 1.12.04-.47-.25-.78-.86-.91-.2-.05-.39-.07-.58-.09l-.8-.7c.62-.18 1.2-.15 1.76.1Z" fill="#2D1595"/><path d="m12.54 11.55-.53.6c-.32.11-.57.05-.74-.17.18-.35.43-.65.73-.91l.54.48Z" fill="#9B37EB"/><path d="m8.07 11.12.8.7-.85.08-.4.1-.68-.41c.36-.2.74-.36 1.13-.47Z" fill="#3B29C1"/><path d="M11.41 12.65c-.62.43-1.3.67-2.04.7.4-.14.7-.32.93-.54.27-.37.29-.75.06-1.12-.12-.19-.3-.35-.54-.48 0-.03.02-.04.03-.05a.08.08 0 0 1 .07 0c.54.28.69.6 1.11 1.22.04.06.17.15.38.27Z" fill="#DDBCFF"/><path d="m6.94 11.59.68.4-.65.28a.1.1 0 0 1-.08 0l-.55-.29.6-.4Z" fill="#8057DB"/><path d="M8.86 11.81c.2.02.39.04.58.09.61.13.9.44.85.91-.22.22-.53.4-.92.54l-.68.02-.67-1.47.84-.09Z" fill="url(#b)"/><path d="m8.02 11.9.67 1.47a8.4 8.4 0 0 1-1.49-.34.64.64 0 0 1-.35-.2l-.8-.6.3-.25.54.28a.1.1 0 0 0 .08 0l.65-.26.4-.1Z" fill="#A07AED"/><path d="m6.06 12.23.79.6-.55.24-.3-.77.06-.07Z" fill="#7626D8"/><path d="m6 12.3.3.77a.94.94 0 0 1-.54.09.2.2 0 0 1-.17-.17.2.2 0 0 1 0-.08c.07-.24.2-.44.4-.61Z" fill="#2D1595"/><defs><linearGradient id="a" x1="9.86" y1="5.39" x2="9" y2="6.32" gradientUnits="userSpaceOnUse"><stop stop-color="#39AEFB"/><stop offset="1" stop-color="#2964D2"/></linearGradient><linearGradient id="b" x1="10.13" y1="12.3" x2="8.6" y2="12.91" gradientUnits="userSpaceOnUse"><stop stop-color="#8057DB"/><stop offset="1" stop-color="#A07AED"/></linearGradient></defs></svg>