<!-- by TradingView --><svg width="18" height="18" viewBox="0 0 18 18" xmlns="http://www.w3.org/2000/svg"><path fill="url(#az10pxroh)" d="M0 0h18v18H0z"/><path d="M13.92 7H8.84V5h5.08c.6 0 1.08.45 1.08 1s-.48 1-1.08 1Z" fill="#56BBAC"/><path d="M4 10h1.6V8H4a1 1 0 0 0 0 2Z" fill="#624998"/><path fill-rule="evenodd" d="M9 13a4 4 0 1 0 0-8 4 4 0 0 0 0 8Zm0-2a2 2 0 1 0 0-4 2 2 0 0 0 0 4Z" fill="url(#bz10pxroh)"/><path d="M9.22 5h2.76c.6 0 1.02.49 1.02 1.09 0 .6-.43.91-1.02.91H9.19C8.15 7 7 8.08 7 9c0 .9 1.22 2 2.2 2h2.74c.61 0 1.06.2 1.06.83 0 .63-.45 1.17-1.06 1.17H9.22a3.97 3.97 0 0 1-3.95-4c0-2.2 1.77-4 3.95-4Z" fill="url(#cz10pxroh)"/><path d="M5 9c0 2.2 1.72 3.98 3.85 4a4.33 4.33 0 0 0 3.59-2H8.82c-1.3 0-1.88-1.22-1.91-2-.03-.8 1.2-2 2.26-2h3.27c-.64-1.24-2.15-1.99-3.6-2A3.94 3.94 0 0 0 5 9Z" fill="url(#dz10pxroh)"/><defs><linearGradient id="az10pxroh" x1="3.35" y1="3.12" x2="21.9" y2="24.43" gradientUnits="userSpaceOnUse"><stop stop-color="#1A1E21"/><stop offset="1" stop-color="#06060A"/></linearGradient><linearGradient id="bz10pxroh" x1="9.04" y1="8.4" x2="12.89" y2="8.4" gradientUnits="userSpaceOnUse"><stop offset=".3" stop-color="#E5597D"/><stop offset="1" stop-color="#DA3B8B"/></linearGradient><linearGradient id="cz10pxroh" x1="9.16" y1="5" x2="9.16" y2="13" gradientUnits="userSpaceOnUse"><stop stop-color="#B8DBF5"/><stop offset="1" stop-color="#658CC8"/></linearGradient><linearGradient id="dz10pxroh" x1="8.59" y1="5" x2="8.59" y2="13" gradientUnits="userSpaceOnUse"><stop stop-color="#FFE0F9"/><stop offset="1" stop-color="#D498C3"/></linearGradient></defs></svg>