<!-- by TradingView --><svg width="18" height="18" viewBox="0 0 18 18" xmlns="http://www.w3.org/2000/svg"><path fill="#7AA434" d="M0 0h18v18H0z"/><path d="M12.2 4.8a.49.49 0 0 1-.28.08 3.8 3.8 0 0 0-1.11-.34 3.96 3.96 0 0 0-1.43-.1l-1.11.2h-.82c-.4 0-.64-.13-.96-.29-.17-.08-.22-.04-.16.13.07.19.23.32.16.6-.17.65-.84.82-1.47.6l-.3-.15a.1.1 0 0 0-.1 0c-.17.1-.25.19-.24.3-.59.4-.97.9-1.15 1.51-.07.5.02.93.3 1.31l.15.15.06.07.17.12c.5.39 1.11.63 1.82.73 1.16.17 2.25.18 3.27.02.6-.1 2.28-.01 2.8.6.26.28.51.56.84.76.61.37.59 1.44.74 2.04 0 .02.02.04.03.05l.05.01a4.9 4.9 0 0 1 1.54.13V14h-1.09c-.44-.26-.9-.4-1.38-.4-.21 0-.22.05-.04.14l.17.08c.03.01.05.04.05.07v.04c-.02.03-.04.04-.08.04a2.16 2.16 0 0 1-.35-.08c-.19-.13-.36-.25-.6-.2-.24.06-.46.17-.66.31h-.25c-.05 0-.08-.01-.08-.04-.01-.05.01-.1.07-.11l1.16-.4c.16.1.28.1.34 0 .2-.05.4-.06.63-.02a.22.22 0 0 0 .2-.07.21.21 0 0 0 .05-.2l-.1-.43-.18-1.01a.19.19 0 0 0-.05-.1c-.1-.12-.32-.21-.4-.28-.82-.57-1.6-1.06-2.34-1.46h-.51c-.22 0-.39 0-.51.03-1.15.16-2.24.2-3.26.1a3.9 3.9 0 0 1-1.42-.45c-.05-.03-.07-.01-.08.04v.07c-.01.1.03.19.1.25l.83.62-.2 1.54c-.1.79-.09 1.41-.37 1.92h-.84c.25-.8.56-1.59.93-2.33.15-.3.19-.57.23-.9a.25.25 0 0 0-.11-.24c-.22-.14-.42-.3-.61-.47-.16-.14-.21-.33-.18-.58a.1.1 0 0 0-.03-.09c-.34-.31-.68-.47-.86-.91-.33-.81-.2-1.54.38-2.19.34-.38.58-.62.7-.74.12-.1.2-.23.22-.36.05-.25-.02-.53.21-.83.28-.37 1.1-.4 1.5-.33.2.03.4.1.63.22.63.32 1.1.36 1.78.18a4.74 4.74 0 0 1 3.6.36Z" fill="#2E3D24"/><path d="M8.27 4.64c.15.14.33.23.54.27-.3.3-.42.64-.37 1.05-.64.13-1.28.28-1.91.45-1.4.36-2.16 1.22-2.85 2.39l-.16-.15c.27-.94.16-1.46 1.2-2.38.1-.13.2-.33.3-.59.63.22 1.3.05 1.47-.6.07-.28-.1-.41-.16-.6-.06-.17 0-.21.16-.13.32.16.56.28.96.29h.82Z" fill="#5B7B4A"/><path d="M10.8 4.54c-.22.18-.5.26-.84.27a1.45 1.45 0 0 0-1.15.1c-.2-.04-.39-.13-.54-.27l1.1-.2c.36-.06.83-.03 1.44.1Z" fill="#7A9564"/><path d="m11.92 4.88.78.51a.96.96 0 0 0-.42-.09.17.17 0 0 0-.14.1.16.16 0 0 0 .01.17c.42.56.86 1.05.82 1.79-.02.4-.1.78.18 1.02.34.3.72.57 1.15.84.1.06.16.03.2-.07.15-.55.13-1.12-.08-1.7.48.68.37 1.27.28 2.13a5.08 5.08 0 0 1-1.65-.24c-.75-.25-1.67-.86-2.4-1.16a8.2 8.2 0 0 0-3.82-.55 5.92 5.92 0 0 0-3.09 1.24l-.06-.07c.69-1.17 1.45-2.03 2.85-2.4.63-.16 1.27-.3 1.91-.44.17.45.51.68 1.01.69.62 0 1.18-.46 1.03-1.1a1.2 1.2 0 0 0-.52-.74c.34 0 .62-.1.85-.27.36.05.73.16 1.11.34Z" fill="#517042"/><path d="M9.96 4.8c.27.19.44.44.52.75.15.64-.41 1.1-1.03 1.1-.5 0-.84-.24-1.01-.7-.05-.4.08-.75.37-1.04.34-.19.72-.22 1.15-.1Z" fill="#2A311F"/><path d="M15 8.13v5.2a4.89 4.89 0 0 0-1.59-.14.08.08 0 0 1-.03-.05c-.15-.6-.13-1.67-.74-2.04-.33-.2-.58-.48-.83-.76-.53-.61-2.21-.7-2.8-.6-1.03.16-2.12.15-3.28-.02-.7-.1-1.31-.34-1.82-.73 1.59 0 3.18-.12 4.76-.16 1.35-.03 2.51.41 3.5 1.32l.87.77c.41.35.76.31 1.06-.1.18-.27.38-.69.6-1.24.1-.86.2-1.45-.28-2.13-.42-.8-.99-1.49-1.72-2.06l-.78-.51c.11 0 .2-.03.29-.08a4.8 4.8 0 0 1 1.92 1.84c.28.48.58.98.87 1.5Z" fill="#3D5332"/><path d="M12.7 5.4c.73.56 1.3 1.24 1.72 2.05.21.58.23 1.15.07 1.7-.03.1-.1.13-.19.07a9.1 9.1 0 0 1-1.15-.84c-.28-.24-.2-.62-.18-1.02.04-.74-.4-1.23-.82-1.8a.16.16 0 0 1 .05-.23.18.18 0 0 1 .08-.03c.12 0 .26.03.42.1Z" fill="#5B7B4A"/><path d="M5.02 5.68c-.1.26-.2.46-.3.6-.31.42-.62.84-.9 1.25l-.06.28-.24.84a1.73 1.73 0 0 1-.29-1.3c.02.05.03.1.05.12.04.04.06.03.08-.01.23-.57.57-1.12 1.02-1.64-.01-.1.07-.2.23-.3a.1.1 0 0 1 .11 0l.3.16Z" fill="#708958"/><path d="M4.38 5.82a6.06 6.06 0 0 0-1.02 1.64c-.02.04-.04.05-.08.01a.33.33 0 0 1-.05-.13c.18-.6.56-1.12 1.15-1.52Z" fill="#9E9E9E"/><path d="M14.7 9.58c-.22.55-.42.97-.6 1.23-.3.42-.65.46-1.06.11-.31-.26-.6-.52-.87-.77a4.82 4.82 0 0 0-3.5-1.32c-1.58.04-3.17.15-4.76.16l-.17-.12a5.92 5.92 0 0 1 3.1-1.24 8.2 8.2 0 0 1 3.81.55c.73.3 1.65.91 2.4 1.16.53.17 1.08.25 1.65.24Z" fill="#445C37"/><path d="M10.07 9.88c-.9.26-1.38.64-1.4 1.15-.46.07-.94.05-1.43-.04l-.97-.2a8.2 8.2 0 0 1-1.05-.25l-.82-.62a.27.27 0 0 1-.11-.25V9.6c0-.05.03-.07.08-.04.5.26.98.41 1.42.45 1.02.1 2.1.06 3.26-.1.12-.02.3-.03.5-.03h.52Z" fill="#708958"/><path d="M10.07 9.88c.74.4 1.52.89 2.34 1.46.08.07.3.16.4.28.03.03.05.06.05.1l.18 1c-.3.16-.6.25-.9.28-.46.05-1.05-.12-1.48-.16-.19-.01-.3-.05-.37-.11a.38.38 0 0 1-.11-.43c.16-.49.13-.93-.1-1.31.08-.03.12-.06.14-.1.02-.03 0-.04-.03-.03-.47.11-.98.17-1.52.17.02-.5.5-.9 1.4-1.15Z" fill="#7A9564"/><path d="M8.67 11.03c.54 0 1.05-.06 1.52-.17.04-.01.05 0 .03.04-.02.03-.06.06-.14.09l-1.63.27c-.05 0-.07.03-.08.07a.1.1 0 0 0 0 .06c.02.04.04.06.08.06l1.19.09h.02l.02.02a.04.04 0 0 1-.01.05 1.9 1.9 0 0 1-1.64.61c-.75-.06-1.5-.21-2.21-.45-.04 0-.05 0-.03.04.35.58 1.05.85 1.7 1.03.81.23 1.64.38 2.48.47.66.07 1.31.12 1.95.14l-1.16.4c-.78-.04-1.55-.1-2.3-.15-.2-.01-.5.01-.9.09-.45.08-.76-.06-1.21 0-.04.01-.08 0-.12-.02-.75-.49-1.16-.81-1.22-1.7l.21-1.53c.33.1.68.2 1.05.26l.97.19c.5.1.97.1 1.43.04Z" fill="#517042"/><path d="M10.08 10.99c.23.38.26.82.1 1.31-.06.17-.02.3.1.43.07.06.2.1.38.11.43.04 1.02.21 1.47.16.31-.03.61-.12.9-.27l.11.44a.2.2 0 0 1-.05.2.22.22 0 0 1-.2.06 1.48 1.48 0 0 0-.63.02c-.84-.22-1.7-.28-2.54-.43-.31-.06-.69-.11-1.12-.17-.38-.05-.57-.26-.57-.63a1.9 1.9 0 0 0 1.65-.63.04.04 0 0 0-.02-.04l-.02-.01-1.19-.09a.09.09 0 0 1-.08-.06.1.1 0 0 1 0-.06c0-.04.03-.06.08-.07l1.63-.27Z" fill="#708958"/><path d="M8.03 12.22c0 .37.2.58.57.63.43.06.8.11 1.12.17.85.15 1.7.2 2.54.43-.06.1-.18.1-.34 0-.64-.02-1.29-.07-1.95-.14-.84-.09-1.67-.24-2.47-.47-.66-.18-1.36-.45-1.71-1.03-.02-.04-.01-.05.03-.04.72.24 1.46.39 2.21.45Z" fill="#5B7B4A"/><path d="M5.01 12.08c.06.88.47 1.2 1.22 1.69l.12.03c.45-.07.76.07 1.21-.01.4-.08.7-.1.9-.09.75.06 1.52.1 2.3.15-.06.02-.08.06-.07.11 0 .03.03.04.08.04H4.65c.28-.51.28-1.13.36-1.92Z" fill="#445C37"/><path d="M13.91 14h-2.9c.2-.14.43-.25.67-.3.24-.06.41.06.6.19.02.01.13.04.35.08.04 0 .06-.01.08-.04v-.04a.08.08 0 0 0-.05-.07l-.17-.08c-.18-.09-.17-.14.04-.14.48 0 .94.14 1.38.4Z" fill="#3D5332"/><path d="M5.34 4.75c-.29.07-.43-.04-.42-.32.27-.15.58-.18.94-.08a.1.1 0 0 1 .07.05l.04.07c.02.03 0 .04-.02.03-.23-.03-.43.05-.6.25Z" fill="#F7FCE5"/><path d="M4.92 4.43c0 .28.13.39.42.32-.16.23-.15.47.03.7.06.08.04.1-.06.08l-.3-.12a.54.54 0 0 1-.24-.27c-.1-.24-.05-.47.15-.7Z" fill="#879F57"/><path d="M9.31 5.43c-.28.07-.47-.12-.33-.4.24-.11.52-.12.83-.02.18.06.18.1 0 .15-.15.04-.31.13-.5.27Z" fill="#F7FCE5"/><path d="M8.98 5.03c-.14.28.05.47.33.4-.28.37-.02.75.35.89.11.04.1.07-.02.08-.68.07-1.1-.22-1-.93.02-.16.13-.3.34-.44Z" fill="#879F57"/></svg>