<!-- by TradingView --><svg width="18" height="18" viewBox="0 0 18 18" xmlns="http://www.w3.org/2000/svg"><path fill="#FEFA50" d="M0 0h18v18H0z"/><path d="M9.01 4c.11 0 .22.03.31.07l.76.3-.02.09a359.54 359.54 0 0 0-.67-.27 1.12 1.12 0 0 0-.66-.01v-.15c.06-.02.13-.03.2-.03H9Z" fill="#555D66"/><path d="M8.73 4.03v.15l-.08.02a18480.95 18480.95 0 0 0-3.22 1.26c0 .04.02.08.06.08l.04-.01a2799.25 2799.25 0 0 0 3.31-1.26l.01.45.01.22-.38.03c-.26.05-.51.1-.75.21-.14.06-.27.14-.38.26a.67.67 0 0 0-.16.31l-.03.1a.32.32 0 0 1-.1.16l-.03.03c-.08.04-.16.13-.12.23.02.07.09.1.15.13.1.03.17.03.28.04.11.01.22.03.32.06l.37.06c.26.03.52.04.79.03.03.1.03.2.03.3v.64a279.24 279.24 0 0 1-2.47-1.09 28.57 28.57 0 0 1-1.64-.8 234593.1 234593.1 0 0 0 3.99-1.62Z" fill="#4E555F"/><path d="m10.06 4.46 1.93.78a1088.5 1088.5 0 0 1 .68.3.06.06 0 0 1-.06.08l-.04-.01-.48-.2-1.7-.69a2210.3 2210.3 0 0 0-1.04-.42 1 1 0 0 0-.66.02l-1.97.75-.03-.11a17235.73 17235.73 0 0 1 2.04-.78 1.12 1.12 0 0 1 .75.04l.58.24Z" fill="#FEFA50"/><path d="m10.08 4.37 1.93.77c-.02.03-.02.06-.02.1l-1.93-.78.02-.09Z" fill="#646D75"/><path d="M10.4 5.12a3.68 3.68 0 0 0 .51.08h.03c.06-.02.11.03.1.1l-.02.03-.13.18a.87.87 0 0 1-.16.17c-.06.3-.34.5-.58.63-.14.07-.28.12-.43.16a5.35 5.35 0 0 1-2.38-.03c-.1 0-.19-.01-.28-.04-.06-.02-.13-.06-.15-.13-.04-.1.04-.19.12-.23A.28.28 0 0 0 7.07 6c.04-.04.08-.1.1-.16l.02-.1a.67.67 0 0 1 .16-.31c.1-.12.24-.2.38-.26a3.17 3.17 0 0 1 1.13-.24 4.61 4.61 0 0 1 1.54.18Z" fill="#090909"/><path d="m6.69 4.96.03.11a2799.25 2799.25 0 0 1-1.23.47c-.04 0-.07-.04-.06-.08l.04-.04 1.22-.46Z" fill="#FBEE2D"/><path d="M9.36 5.1a3.7 3.7 0 0 1 .87.15 5.34 5.34 0 0 0 .57.11l-.12.14a.2.2 0 0 1-.05.04.2.2 0 0 0-.03.02.08.08 0 0 0-.02.05l-.01.06a.73.73 0 0 1-.32.4c-.16.1-.35.18-.54.23a5.2 5.2 0 0 1-1.9.05c-.07 0-.15-.03-.22-.04l-.35-.04a.6.6 0 0 1-.14-.03.21.21 0 0 1-.04-.02.2.2 0 0 1 .04-.03c.11-.07.19-.18.22-.32l.03-.13a.58.58 0 0 1 .26-.3c.15-.1.32-.17.5-.22a4.23 4.23 0 0 1 .55-.1c.22-.02.46-.03.7-.01Z" fill="#FEFA50"/><path d="m12.01 5.14 1.2.48.06.03a.39.39 0 0 1-.15.1 17.96 17.96 0 0 0-1 .44.7.7 0 0 1-.03-.24 49.95 49.95 0 0 1 0-.54 237.62 237.62 0 0 1 .52.2c.03.01.07-.02.06-.07l-.05-.04a1088.5 1088.5 0 0 0-.63-.26c0-.04 0-.07.02-.1Z" fill="#747F85"/><path d="m4.74 5.65.27.14c.45.23.91.45 1.37.65l2.36 1.04.11.05a.5.5 0 0 0 .38-.01l.1-.05.42-.2a254.83 254.83 0 0 1 3.37-1.52c.06-.02.1-.05.15-.1.06.04.11.09.15.15l.05.15c-.06-.12-.16-.14-.27-.1l-.77.34-1.33.59-1.42.63a99.84 99.84 0 0 0-.42.19.4.4 0 0 0-.18.37v2.57c.04 0 .06.02.08.05v.05a6253.23 6253.23 0 0 0 .04 2.4c.02.33.33.53.6.4l.33-.17 1.1-.53.17.17a4499.5 4499.5 0 0 1-2.21 1.05.79.79 0 0 1-.56-.04l-3.65-1.77a.44.44 0 0 1-.07-.05c-.24-.2-.36-.5-.39-.8l-.01-.23a30.14 30.14 0 0 1-.01-1.2v-.5a536.87 536.87 0 0 1 .02-3.28c.01-.1.04-.21.1-.3a.4.4 0 0 1 .12-.14Z" fill="#090909"/><path d="M13.47 5.95a69.71 69.71 0 0 1 .03 1.2.72.72 0 0 0-.1-.06 59.58 59.58 0 0 1 0-.3c-.04-.36-.37-.6-.7-.49l-.12.06c-.04-.07-.1-.12-.15-.17.25-.11.5-.23.77-.33.1-.05.21-.03.27.09Z" fill="#555D66"/><path d="m12.43 6.19.15.17-1.32.6a6.05 6.05 0 0 0-.17-.18l1.34-.6Z" fill="#4E555F"/><path d="M4.61 6.78c.04-.35.36-.58.68-.48a1.1 1.1 0 0 1 3.25 1.57 1.25 1.25 0 0 1 .32.9 12317.84 12317.84 0 0 0-.06 4.32c-.04.27-.3.44-.54.37a.74.74 0 0 1-.1-.04l-2.81-1.39a1.23 1.23 0 0 1-.68-1.14l-.06-4v-.1Z" fill="#FBEE2D"/><path d="m13.4 7.1-.03 1.85-.03 1.82v.25a1.23 1.23 0 0 1-.7 1.02l-.13.07-1.28.62-1.1.54a1.87 1.87 0 0 1-.08-.18l1.25-.61 1.33-.65a.94.94 0 0 0 .29-.25c.16-.2.23-.43.23-.7l.04-2.58a142937.48 142937.48 0 0 1 .01-1.51.36.36 0 0 0-.28-.3.31.31 0 0 0-.19.02l-1.03.47-1.5.67a54.6 54.6 0 0 0-.37.18 1.01 1.01 0 0 0-.5.94v.62l.03 1.53v.27l-.11-.35a1.2 1.2 0 0 0-.08-.2v-.05l-.03-1.92c.01-.2.06-.38.15-.55a1.14 1.14 0 0 1 .57-.53l1.4-.63 1.32-.6.13-.06c.32-.1.65.13.68.5V7.1Z" fill="#FEFA50"/><path d="M10.4 4.72v.4c-.05 0-.15-.03-.3-.07l-.37-.07a4.61 4.61 0 0 0-.87-.04v-.28c0-.15 0-.25-.02-.39h.03a1 1 0 0 1 .58.07l.94.38Zm1.69.7v.53c0 .09 0 .17.03.24L9.75 7.26a97.8 97.8 0 0 1-.03-.8c.15-.03.3-.08.43-.15.24-.12.52-.33.58-.63l.16-.17a2.4 2.4 0 0 0 .15-.22c.01-.06-.04-.11-.1-.1l-.03.01a3.68 3.68 0 0 1-.51-.08v-.4l1.69.7ZM9.74 6.7c0-.09 0-.16-.02-.23-.3.08-.6.11-.9.12.03.1.03.2.03.3v.64a.5.5 0 0 0 .38-.01l.05-.03.05-.02.42-.2a96.46 96.46 0 0 1-.02-.56Z" fill="url(#a)"/><path d="M5.69 8.34v.07a28348.82 28348.82 0 0 0 0 3.5v.07a75.01 75.01 0 0 0-.35-.17c-.3-.18-.48-.51-.49-.89L4.8 6.85c0-.24.2-.41.41-.36a.7.7 0 0 1 .1.04L8.1 7.79a1 1 0 0 1 .57 1 4352.34 4352.34 0 0 0-.06 4.28c-.02.14-.16.23-.28.2a11069.76 11069.76 0 0 0-1.52-.74v-.75l.6.24c.02.16.12.32.26.38.15.07.3 0 .35-.18.03-.14 0-.3-.09-.42a.39.39 0 0 0-.23-.17c-.12-.02-.23.05-.27.17l-.62-.24v-1.08h.01l.58.25c.02.14.08.25.17.33.1.1.27.14.38.02a.37.37 0 0 0 .08-.28.54.54 0 0 0-.22-.39c-.13-.1-.31-.06-.38.11l-.61-.26V9.19l.59.23c.03.14.1.28.22.35.1.07.23.07.32-.03a.35.35 0 0 0 .08-.24c0-.19-.1-.39-.27-.46-.14-.06-.29 0-.34.16l-.6-.23v-.38c.12-.02.2-.1.22-.22a.54.54 0 0 0-.12-.44c-.11-.13-.3-.2-.42-.06-.1.1-.1.27-.05.4a.52.52 0 0 0 .19.27l-.02 3.9-.74-.37V8.18c.07-.03.11-.1.14-.17a.53.53 0 0 0-.2-.55c-.08-.06-.18-.08-.27-.03-.13.07-.16.24-.13.38a.5.5 0 0 0 .27.37v.16Z" fill="#090909"/><path d="M13.19 8.3a3905.57 3905.57 0 0 1-1.49-1.33l1.03-.46a.31.31 0 0 1 .2-.02c.14.03.25.14.27.3v.11l-.01 1.4Z" fill="#4E555F"/><path d="M11.1 6.78a6.26 6.26 0 0 1 .16.18l-1.4.63a3.02 3.02 0 0 0-.18-.18l1.42-.63Z" fill="#40464E"/><path d="M13.5 7.15v1.96c-.02-.07-.06-.14-.13-.16l.02-1.86.11.06Z" fill="#4E555F"/><path d="m9.68 7.4.18.2a1.14 1.14 0 0 0-.57.53c-.09.16-.14.34-.15.54a.44.44 0 0 1-.06-.06v-.03a3059.09 3059.09 0 0 0 0-.72.4.4 0 0 1 .18-.26 99.85 99.85 0 0 1 .42-.2Z" fill="#292D32"/><path d="m5.81 7.75.03.12c0 .04 0 .1-.03.12-.04.02-.1-.01-.12-.04a.34.34 0 0 1-.1-.22c0-.03 0-.1.04-.12.04-.02.1.02.12.04.02.03.05.06.06.1ZM12.24 9.59a1148.19 1148.19 0 0 1-.67.28.1.1 0 0 1-.07-.02c-.05-.05-.05-.13-.01-.2l-.02.01a.1.1 0 0 1-.14-.04 127.31 127.31 0 0 1-.01-1.04c0-.08.02-.15.07-.21a.21.21 0 0 1 .1-.07l.1-.02a.76.76 0 0 1 .4.07c.08.07.09.2.05.29.06-.07.15-.1.23-.05l.06.08a1.23 1.23 0 0 1 .16.38 1.47 1.47 0 0 0-.06-.23.9.9 0 0 0-.4-.5c-.31-.16-.67-.05-.94.15.13-.05.23.07.22.2v.97c0 .04-.01.07-.04.1-.03.04-.08.06-.13.04a2495.1 2495.1 0 0 1-.56-.56.26.26 0 0 1-.02-.18 2.82 2.82 0 0 0-.16.28c.06-.04.14-.04.2.01a232.54 232.54 0 0 1 .54.55c.04.06.01.15-.03.19a76.94 76.94 0 0 0-.84.36c-.08 0-.14-.04-.16-.12a2.68 2.68 0 0 0-.02.13.18.18 0 0 1-.05.08.22.22 0 0 1-.06.04l-.1.04c-.08.03-.15-.02-.16-.11v-.03a3.45 3.45 0 0 1 1.07-2.27c.17-.15.35-.26.55-.34.26-.1.54-.11.8 0 .3.12.53.4.64.73a2.12 2.12 0 0 1 .12.62c0 .06-.03.11-.08.14l-.05.02-.06.03a.2.2 0 0 1-.07.02.11.11 0 0 1-.1-.08 2.13 2.13 0 0 0-.01-.03.5.5 0 0 1-.02.06.28.28 0 0 1-.14.17l-.13.06Z" fill="#090909"/><path d="M11.84 7.86c.25.02.48.15.65.36a1.7 1.7 0 0 1 .32 1c0 .02-.03.04-.05.05a7.17 7.17 0 0 0-.13.04l-.02-.04c-.03-.37-.16-.78-.47-.99a.82.82 0 0 0-.76-.07c-.27.1-.5.28-.68.5a3 3 0 0 0-.7 1.72 22.68 22.68 0 0 0-.17.09c-.02 0-.03-.03-.03-.05.01-.11.02-.23.05-.34a3.52 3.52 0 0 1 .94-1.82c.28-.27.66-.47 1.05-.45Z" fill="#FEFA50"/><path d="M6.82 8.39c-.04.01-.09-.02-.11-.05a.34.34 0 0 1-.1-.22c0-.03 0-.1.04-.12.03-.02.09.02.11.04a.34.34 0 0 1 .1.22c0 .04 0 .1-.04.13Z" fill="#090909"/><path d="M11.31 8.68c0-.14-.09-.26-.22-.21.27-.2.63-.3.94-.15.18.1.32.29.4.5a1.46 1.46 0 0 1 .06.23 1.23 1.23 0 0 0-.16-.38.29.29 0 0 0-.06-.08c-.08-.05-.17-.02-.22.05.03-.1.02-.22-.07-.29a.76.76 0 0 0-.49-.06.21.21 0 0 0-.1.08.32.32 0 0 0-.08.2v.11Z" fill="#40464E"/><path d="M5.69 8.34v3.56-.04a28348.82 28348.82 0 0 1 0-3.52Z" fill="#1C1F22"/><path d="m11.94 8.66-.5.9c0 .03-.04.03-.04 0V8.52a.2.2 0 0 1 .1-.14h.04a.7.7 0 0 1 .4.04l.02.02c.02.04.02.1 0 .14 0 .02 0 .04-.02.07ZM10.74 8.9c.1-.13.22-.23.35-.33a.12.12 0 0 1 .05-.02c.05 0 .08.05.08.1a1000.93 1000.93 0 0 0 0 1c0 .02-.02.04-.04.04h-.01a1443.87 1443.87 0 0 0-.52-.53c-.02-.06 0-.14.03-.18 0-.02.03-.04.06-.08Z" fill="#FEFA50"/><path d="m9.14 8.67.02 1.92a.13.13 0 0 0-.08-.05V8.58v.03l.06.06Z" fill="#1C1F22"/><path d="m12.32 9.46-.74.31c-.02.01-.03 0-.03-.02v-.04l.54-.98c.02-.04.09-.1.13-.06l.03.04a1.17 1.17 0 0 1 .2.58c-.02.05-.04.1-.08.14l-.05.03Z" fill="#FEFA50"/><path d="M13.5 9.1v1.73c-.07.03-.12-.02-.16-.06l.03-1.82c.07.02.1.09.13.16Z" fill="#40464E"/><path d="M7.8 9.6c-.03.03-.09 0-.11-.03a.34.34 0 0 1-.1-.22c0-.04 0-.1.04-.12.04-.02.09.01.11.04a.34.34 0 0 1 .1.22c0 .03 0 .1-.04.12Z" fill="#090909"/><path d="M11.03 10a485.43 485.43 0 0 1-.78.33c-.06 0-.08-.07-.07-.13.03-.25.1-.5.2-.72.03-.05.1-.12.15-.09l.03.03.5.5c.02.02 0 .06 0 .07l-.03.02Z" fill="#FEFA50"/><path d="M12.71 10.47c-.12.35-.29.66-.5.95a2 2 0 0 1-1.16.8l.25.26-1.25.6-.33.17c-.14.07-.31-.03-.33-.2v-.11c-.02-.58-.02-1.17-.03-1.75v-.27c.05.01.1.04.13.08a19.38 19.38 0 0 0 .29.24 6.34 6.34 0 0 1-.06-.38v-.08l.06-.09.05-.03.1-.04c.06-.03.13 0 .16.07v.02l.01-.05a.29.29 0 0 1 .16-.18 512.8 512.8 0 0 0 .77-.33c.05 0 .1.04.1.09v.1a.1.1 0 0 1 .17.04V11.05a95.37 95.37 0 0 0 0 .45c-.02.1-.1.2-.19.22a.8.8 0 0 1-.44-.05.18.18 0 0 1-.12-.15.31.31 0 0 1 .02-.16c-.08.08-.18.1-.26.02a1.26 1.26 0 0 1-.18-.4c.01.07.04.15.07.23.06.15.14.28.25.38.2.18.45.22.7.15a1.23 1.23 0 0 0 .37-.2c-.1.04-.18-.02-.2-.13v-.14a635.97 635.97 0 0 1 0-.96c.02-.07.09-.11.16-.09l.05.04.48.48a.2.2 0 0 1 .05.1.3.3 0 0 1 0 .12c0 .01 0 .01 0 0a2.86 2.86 0 0 0 .17-.28.33.33 0 0 1-.05.02.15.15 0 0 1-.12 0 598.2 598.2 0 0 0-.56-.55c-.05-.06-.03-.16.02-.2.01-.02.03-.03.06-.04l.67-.29a2 2 0 0 1 .06-.02.15.15 0 0 1 .16.03.2.2 0 0 1 .05.07 1.39 1.39 0 0 0 .01-.13.18.18 0 0 1 .06-.08 2.1 2.1 0 0 0 .2-.08c.03 0 .07.01.1.05l.01.11c-.02.3-.09.61-.19.9Z" fill="#090909"/><path d="m10.78 12.15-.1-.32c.32.1.64-.02.9-.21l.09-.07c.14-.11.26-.24.37-.38a3 3 0 0 0 .57-1.56c0-.03.03-.06.06-.07l.1-.04h.02c.02 0 .03.02.03.04a3.46 3.46 0 0 1-.91 2.1c-.3.3-.7.54-1.13.5Z" fill="#FEFA50"/><path d="M12.32 9.7a.15.15 0 0 1 .06-.02c.05 0 .07.07.06.13-.03.25-.1.49-.2.72-.02.05-.1.12-.15.08l-.03-.03-.5-.5.01-.06.03-.02.72-.3ZM11.03 10.25c.01 0 .02 0 .02.02v.04a1925.32 1925.32 0 0 0-.56 1c-.03.03-.09.05-.12 0-.1-.15-.16-.34-.19-.53a.23.23 0 0 1 .07-.2 1288.59 1288.59 0 0 0 .78-.34ZM11.88 11.11c-.1.13-.22.24-.35.33a.12.12 0 0 1-.05.02c-.05 0-.08-.05-.08-.1a1022.96 1022.96 0 0 0 0-1.02c0-.01.02-.03.04-.03h.01l.5.5.02.04c.03.05 0 .13-.02.18l-.07.08ZM10.83 11.63a.65.65 0 0 1-.16-.06l-.03-.03c-.02-.05 0-.12.02-.17l.51-.95c.02-.02.05-.03.05 0a633.94 633.94 0 0 1 0 1.07c-.02.06-.07.13-.13.14a.73.73 0 0 1-.26 0Z" fill="#FEFA50"/><path d="M7.8 10.95c-.03.02-.09-.02-.11-.04a.34.34 0 0 1-.1-.22c0-.04 0-.1.04-.12.04-.02.09.01.11.04a.34.34 0 0 1 .1.22c0 .03 0 .1-.04.12Z" fill="#090909"/><path d="M9.36 11.2a3761.27 3761.27 0 0 1 .03 1.85c.02.17.19.27.33.2l.33-.16.08.18-.33.16c-.27.14-.58-.06-.6-.38v-.11l-.03-2.3.08.2.11.35ZM10.69 11.83c.02.11.05.21.1.32a.89.89 0 0 1-.53-.22 1.57 1.57 0 0 1-.45-1.13c0-.03.02-.04.04-.05l.1-.04.04-.01.02.04c.03.46.23.95.68 1.09Z" fill="#FBEE2D"/><path d="M13.5 10.79a162.77 162.77 0 0 0 0 .6.98.98 0 0 1-.45.74l-.1.05a128.16 128.16 0 0 0-.24.11l-.2-.18a12.69 12.69 0 0 1 .22-.11c.34-.2.57-.56.6-.98l.01-.25c.04.04.1.09.15.07v-.05Z" fill="#292D32"/><path fill-rule="evenodd" d="M11.8 7.08a2.8 2.8 0 0 1-.1-.1l-1.5.67a49.55 49.55 0 0 0-.37.18 1.01 1.01 0 0 0-.5.94v.62l.03 1.53c.05.01.1.04.13.08a19.38 19.38 0 0 0 .29.24 6.41 6.41 0 0 1-.06-.38v-.08l.06-.09.05-.03.1-.04c.06-.03.13 0 .16.07v.02l.01-.05a.29.29 0 0 1 .16-.18l.64-.28.07-.03a.21.21 0 0 1 .06-.02c.05 0 .1.04.1.09v.1a.1.1 0 0 1 .17.04V11.27h.01a1272.48 1272.48 0 0 1 .01-.96c.02-.07.09-.11.16-.09l.05.04.48.48a.2.2 0 0 1 .05.1.3.3 0 0 1 0 .12c0 .01 0 .01 0 0a2.84 2.84 0 0 0 .17-.28.33.33 0 0 1-.05.02.15.15 0 0 1-.12 0 .34.34 0 0 1-.07-.06l-.48-.49c-.06-.06-.04-.16.01-.2.01-.02.03-.03.06-.04l.68-.29.05-.02a.15.15 0 0 1 .16.03.2.2 0 0 1 .05.07 1.4 1.4 0 0 0 .01-.13.18.18 0 0 1 .06-.08 2.08 2.08 0 0 0 .2-.08c.03 0 .07.01.1.05l.01.11a3.46 3.46 0 0 1-.7 1.85 2 2 0 0 1-1.15.8l.05.06.2.2 1.33-.65a.94.94 0 0 0 .29-.25c.16-.2.23-.43.23-.7l.04-2.58a3676.3 3676.3 0 0 1-1.38-1.22Zm.72 4.63-.07-.06.07.06Zm-1.63-1.54a76.86 76.86 0 0 1 .22-.1c.04-.04.07-.13.03-.19l-.04-.04-.5-.51c-.06-.05-.14-.05-.2 0a2.82 2.82 0 0 1 .16-.3c0 .07 0 .14.03.19l.05.06a711.23 711.23 0 0 0 .5.5c.05.02.1 0 .13-.04a.15.15 0 0 0 .04-.1 282.43 282.43 0 0 0 .02-.03c.02.06.09.08.14.05h.02c-.04.06-.04.14.01.19a.1.1 0 0 0 .07.02l.06-.02a833.71 833.71 0 0 0 .74-.32c.07-.03.12-.1.14-.17a.46.46 0 0 0 .02-.06v.03c.02.04.07.08.11.08a.2.2 0 0 0 .07-.02l.06-.03a.7.7 0 0 0 .05-.02.18.18 0 0 0 .08-.14v-.09a2.1 2.1 0 0 0-.12-.53 1.22 1.22 0 0 0-.64-.74c-.26-.1-.54-.09-.8.01-.2.08-.38.2-.55.34a3.55 3.55 0 0 0-1.07 2.3c0 .09.08.14.16.1l.1-.03a.21.21 0 0 0 .06-.04.18.18 0 0 0 .05-.08v-.06a2.68 2.68 0 0 1 .02-.07c.02.07.08.12.15.12l.09-.03.54-.23Z" fill="url(#b)"/><path d="M7.8 12.22c-.03.02-.09-.02-.11-.04a.34.34 0 0 1-.1-.22c0-.04 0-.1.04-.12.04-.02.09.01.11.04a.34.34 0 0 1 .1.22c0 .04 0 .1-.04.12Z" fill="#090909"/><path d="m12.71 12.29-1.3.63a1.7 1.7 0 0 0-.19-.18l1.29-.63.2.18Z" fill="#1C1F22"/><defs><linearGradient id="a" x1="8.92" y1="5.8" x2="12.01" y2="5.89" gradientUnits="userSpaceOnUse"><stop stop-color="#4E555F"/><stop offset="1" stop-color="#747F85"/></linearGradient><linearGradient id="b" x1="12.84" y1="8.12" x2="11.04" y2="12.38" gradientUnits="userSpaceOnUse"><stop stop-color="#4E555F"/><stop offset="1" stop-color="#090909"/></linearGradient></defs></svg>