<!-- by TradingView --><svg width="18" height="18" viewBox="0 0 18 18" xmlns="http://www.w3.org/2000/svg"><path fill="url(#a)" d="M0 0h18v18H0z"/><path d="M6 5.05c0-.16.04-.3.16-.43.05-.04.15-.1.32-.18l.91-.42c.1-.04.18-.02.24.06.02.02.03.06.03.12v.85c0 .16-.03.3-.15.42-.05.05-.16.11-.32.19l-.92.42c-.1.04-.17.02-.24-.06C6.01 6 6 5.96 6 5.9v-.85Z" fill="url(#b)"/><path d="m9.63 7.2-1.3.65a.4.4 0 0 1-.24.03h-.02l-.01-.01A.27.27 0 0 1 8 7.72v-1.3c0-.2.05-.44.27-.55l1.4-.7c.07-.04.16-.08.23-.05.06.02.1.06.1.12L9.98 6.7c-.01.22-.13.38-.36.49Z" fill="url(#c)"/><path d="M12 7.41c0 .16-.04.3-.16.42a1.2 1.2 0 0 1-.32.2l-.91.41c-.1.04-.18.02-.24-.05-.02-.03-.03-.07-.03-.13v-.85c0-.16.03-.3.15-.43.05-.05.16-.1.32-.19l.91-.41c.1-.05.18-.03.24.05.02.03.03.07.03.12v.86Z" fill="url(#d)"/><path d="M11.65 10.05 7.34 12.1a.39.39 0 0 1-.24.04h-.03a.06.06 0 0 1-.02-.03.42.42 0 0 1-.05-.18c0-.19 0-.5.04-.93 0-.11.03-.2.07-.25a.65.65 0 0 1 .26-.21l4.32-2.08a.36.36 0 0 1 .22-.02s.02 0 .03.02a.2.2 0 0 1 .05.12v.96a.56.56 0 0 1-.34.5Z" fill="url(#e)"/><path d="M9.87 11.93c.14.02.12.1.12.2v1c0 .17-.12.3-.34.4l-1.02.45c-.04.02-.2.03-.24-.01a.15.15 0 0 1-.06-.12v-.9c0-.12.02-.22.05-.28a.7.7 0 0 1 .36-.28l.96-.43a.38.38 0 0 1 .17-.03Z" fill="url(#f)"/><defs><linearGradient id="a" x1="1.5" y1="11.41" x2="17.19" y2="3.71" gradientUnits="userSpaceOnUse"><stop stop-color="#4F2652"/><stop offset=".47" stop-color="#332234"/><stop offset="1" stop-color="#244961"/></linearGradient><linearGradient id="b" x1="6" y1="4.59" x2="7.4" y2="5.79" gradientUnits="userSpaceOnUse"><stop stop-color="#00DA92"/><stop offset=".44" stop-color="#04C9D8"/><stop offset="1" stop-color="#4F7BD2"/></linearGradient><linearGradient id="c" x1="7.81" y1="6.1" x2="9.65" y2="7.45" gradientUnits="userSpaceOnUse"><stop stop-color="#08D590"/><stop offset=".4" stop-color="#09C3D8"/><stop offset="1" stop-color="#5771D2"/></linearGradient><linearGradient id="d" x1="10.33" y1="6.97" x2="11.73" y2="8.19" gradientUnits="userSpaceOnUse"><stop stop-color="#18D08D"/><stop offset=".48" stop-color="#01CCD2"/><stop offset="1" stop-color="#5375D6"/></linearGradient><linearGradient id="e" x1="7" y1="10.3" x2="10.83" y2="11.96" gradientUnits="userSpaceOnUse"><stop stop-color="#17CA9F"/><stop offset="1" stop-color="#3895D8"/></linearGradient><linearGradient id="f" x1="8.33" y1="12.32" x2="9.58" y2="13.95" gradientUnits="userSpaceOnUse"><stop stop-color="#0FCEA7"/><stop offset="1" stop-color="#3599D3"/></linearGradient></defs></svg>