<!-- by TradingView --><svg width="18" height="18" viewBox="0 0 18 18" xmlns="http://www.w3.org/2000/svg"><path fill="#F0F3FA" d="M0 0h18v18H0z"/><path fill-rule="evenodd" d="M9 15A6 6 0 1 0 9 3a6 6 0 0 0 0 12Zm0-1A5 5 0 1 0 9 4a5 5 0 0 0 0 10Z" fill="#ACE730"/><path d="M9 7.77 6.5 9 9 5v2.77Z" fill="#C2ED68"/><path d="M9 7.77 11.5 9 9 5v2.77Z" fill="#90C228"/><path d="M9 10.48 6.5 9 9 7.76v2.72Z" fill="#E3F7B9"/><path d="M9 10.48 11.5 9 9 7.76v2.72Z" fill="#A3DB2E"/><path d="M9 10.91 6.5 9.52 9 13v-2.09Z" fill="#C2ED68"/><path d="m9 10.91 2.5-1.39L9 13v-2.09Z" fill="#6B8D1D"/></svg>