<!-- by TradingView --><svg width="18" height="18" viewBox="0 0 18 18" xmlns="http://www.w3.org/2000/svg"><path fill="url(#amr3khcls)" d="M0 0h18v18H0z"/><path fill-rule="evenodd" d="M11.5 6.5C11.5 5.14 10.36 4 9 4a2.52 2.52 0 0 0-2.5 2.5V4A2.52 2.52 0 0 0 4 6.5h2.5A2.52 2.52 0 0 0 4 9c0 1.36 1.14 2.5 2.5 2.5H4C4 12.86 5.14 14 6.5 14v-2.5C6.5 12.86 7.64 14 9 14s2.5-1.14 2.5-2.5V14c1.36 0 2.5-1.14 2.5-2.5h-2.5c1.36 0 2.5-1.14 2.5-2.5s-1.14-2.5-2.5-2.5Zm0 2.5v2.5H9A2.5 2.5 0 0 0 11.5 9Zm-5 0A2.5 2.5 0 0 1 9 6.5H6.5V9Zm0 0A2.5 2.5 0 0 0 9 11.5H6.5V9Zm5 0V4C12.86 4 14 5.14 14 6.5H9A2.5 2.5 0 0 1 11.5 9Z" fill="#fff"/><defs><linearGradient id="amr3khcls" x1="3.35" y1="3.12" x2="21.9" y2="24.43" gradientUnits="userSpaceOnUse"><stop stop-color="#1A1E21"/><stop offset="1" stop-color="#06060A"/></linearGradient></defs></svg>