<!-- by TradingView --><svg width="18" height="18" viewBox="0 0 18 18" xmlns="http://www.w3.org/2000/svg"><path fill="#F0F3FA" d="M0 0h18v18H0z"/><circle cx="9" cy="9" r="6" fill="url(#a)"/><path d="M4.34 7h1L5 9.6c-.03.2.12.38.32.38.3 0 .54-.22.57-.5l.28-2.04.05-.44h1.01l-.36 2.6c-.02.2.13.38.33.38.29 0 .53-.22.57-.5L8.1 7H9l-.3 2.5A1.7 1.7 0 0 1 7.04 11c-.35 0-.66-.15-.87-.4-.31.25-.7.4-1.13.4-.62 0-1.1-.54-1.02-1.15L4.34 7Zm9.31 4h-.88l.32-2.66a.29.29 0 0 0-.29-.32.5.5 0 0 0-.5.45L12 11h-1l.51-4h.95l-.04.25c.23-.16.5-.25.8-.25.45 0 .8.4.76.85L13.65 11Zm-3.03-4H9.55l-.58 4h1.07l.58-4Z" fill="#010103"/><defs><linearGradient id="a" x1="15" y1="9" x2="3" y2="9" gradientUnits="userSpaceOnUse"><stop stop-color="#FCD675"/><stop offset=".51" stop-color="#FBE3A9"/><stop offset="1" stop-color="#FCD675"/></linearGradient></defs></svg>