<!-- by TradingView --><svg width="18" height="18" viewBox="0 0 18 18" xmlns="http://www.w3.org/2000/svg"><path fill="#FED8B3" d="M0 0h18v18H0z"/><path d="M11.89 14.16c-.12.21-.32.33-.6.34h-.9a.57.57 0 0 1-.45-.2 2.62 2.62 0 0 1-.47-.8 6.85 6.85 0 0 1-1 0c-.07.21-.18.42-.32.63a.8.8 0 0 1-.28.29.56.56 0 0 1-.28.09h-.84c-.27 0-.47-.12-.6-.33a5.73 5.73 0 0 1-.64-1.3h-.03a1 1 0 0 1-.69-.02c-.47-.18-.74-.68-.78-1.12-.02-.2 0-.45.04-.66.2-.96.78-1.82 1.63-2.43v-.03a1.6 1.6 0 0 1-.31-.86l-.02-.01a.97.97 0 0 1-.63-1.03c.08-.48.38-.79.9-.92h.02l.01-.02c.01-.1.04-.2.07-.28.21-.57.6-1.03 1.13-1.4.38-.26.8-.45 1.27-.58a2.34 2.34 0 0 1 .67-.1c.29-.15.6-.26.92-.35a2.54 2.54 0 0 1 .51-.06.02.02 0 0 1 0 .02l-.2.31a.01.01 0 0 0 0 .02h.02a2.33 2.33 0 0 1 .9-.07h.02v.04l-.16.24a.02.02 0 0 0 0 .02h.02a1.97 1.97 0 0 1 1.12.21v.01l-.5.25c-.02.01-.02.02 0 .03.15.11.34.22.42.36.02.05 0 .12.04.16a2.31 2.31 0 0 1 .54 1.2l.03.02c.33.1.56.28.7.55a1 1 0 0 1 .08.73c-.1.4-.4.64-.85.72h-.02l-.01.02a1.57 1.57 0 0 1-.28.6v.01A4.06 4.06 0 0 1 14 11.3c.03.27 0 .55-.11.85-.14.37-.4.65-.8.82-.22.1-.46.12-.72.07h-.02v.02l-.15.5c-.05.16-.15.37-.3.61Z" fill="#1F0A0A"/><path d="m9.62 3.43-1.6.76H8v-.02l.05-.08a5.68 5.68 0 0 1 1.61-.75c.03 0 .04 0 .02.03a.18.18 0 0 1-.06.06Z" fill="#FEFEFE"/><path d="m9.62 3.43-.13.33a.03.03 0 0 0 0 .03l.02.01h.01c.04.01.07.02.12.01a.42.42 0 0 1-.04.06c-.03.04-.03.04.02.03a15.2 15.2 0 0 0 .85-.33c-.01.1-.04.21-.08.3 0 .03 0 .05.03.07a.3.3 0 0 0-.03.02 5.12 5.12 0 0 1 .83-.08l-.33.2v.08l-.01.04a.63.63 0 0 0-.17.28v.04l.03.02c.38.22.65.52.81.9.04.08-.02.13-.08.2v.09a.2.2 0 0 1-.03.1 1.38 1.38 0 0 0-1.23-.78c-.5-.02-.96.17-1.34.46a3.8 3.8 0 0 0-.37.3l-.01-.01h-.01A3.39 3.39 0 0 0 8 5.4c-.28-.2-.67-.36-1.03-.32-.18.02-.35.07-.5.16-.11.05-.22.13-.33.23.1-.2.21-.37.35-.52.39-.42.85-.75 1.4-1 0 .09.05.13.15.14L8 4.17a.01.01 0 0 0 0 .01h.02l1.6-.75Z" fill="#5E413D"/><path d="M10.47 3.57a15.2 15.2 0 0 1-.84.33c-.05.01-.06 0-.03-.03l.04-.06a2.1 2.1 0 0 1 .86-.29v.01c0 .02-.01.03-.03.04ZM7.9 3.95c-.55.25-1.01.58-1.4 1-.14.15-.26.32-.35.52a1.82 1.82 0 0 0-.28.64l-.01-.01c.08-.6.35-1.12.83-1.55a3.66 3.66 0 0 1 1.39-.76l-.19.16Z" fill="#FEFEFE"/><path d="M11.22 3.88c-.28.01-.55.05-.81.1-.04.01-.05 0-.02-.02l.03-.02c.27-.1.55-.13.83-.1.05 0 .06.02.01.04h-.04Z" fill="#FED8B3"/><path d="M10.9 4.08v.04l.03.02c.16.05.3.11.43.2a2.76 2.76 0 0 1 .78 1.32c.03.2.05.44.04.74l-.04 1.17c-.02.29-.11.55-.29.78-.32.41-.75.71-1.27.9a5.37 5.37 0 0 1-2.6.24l-.47-.07c-.18-.03-.4-.1-.68-.2l-.58-.46v-.08l.09.08.1.07.45.24a5.38 5.38 0 0 0 2.95.18 2.6 2.6 0 0 0 1.06-.48c.23-.2.38-.42.43-.67a.83.83 0 0 0-.08-.55c.2-.1.3-.27.34-.49v-.04a.07.07 0 0 0-.04-.03c-.02 0-.05 0-.07.04l-.29.4-.1-.13c-.02-.02-.02-.04 0-.05.42-.41.54-.88.35-1.42a.2.2 0 0 0 .02-.1c0-.05 0-.08.02-.1.05-.06.11-.1.07-.2a1.9 1.9 0 0 0-.8-.89.06.06 0 0 1-.03-.02v-.04c.02-.1.08-.2.16-.28a.05.05 0 0 0 .01-.04v-.08Z" fill="#452323"/><path d="M7.34 4.46c-.07.08-.1.16-.06.18.03.02.11-.02.18-.1.06-.07.09-.15.06-.17-.03-.02-.11.02-.18.1ZM8.32 5.01c-.02.08 0 .16.03.17.04 0 .1-.06.11-.14.02-.08.01-.16-.03-.16-.04-.01-.09.05-.1.13ZM10.25 5.3a3.75 3.75 0 0 1 .39.19l.18.15c.15.17.23.35.26.56.04.3-.02.57-.2.8a.88.88 0 0 1-.2.18 10.25 10.25 0 0 1-.24.18c.1.02.18.06.25.11.15.12.1.34 0 .46-.15.18-.34.32-.57.43l-.35.16a4.7 4.7 0 0 1-1.85.19c-.4-.03-.77-.14-1.11-.32a1.62 1.62 0 0 1-.41-.32c-.09-.09-.13-.15-.13-.19a.38.38 0 0 0-.07-.17.72.72 0 0 1 .22-.3l.23-.08.02-.01V7.3c-.04-.05-.08-.07-.12-.06a1.73 1.73 0 0 1-.18-.21.97.97 0 0 1-.18-.4 1.81 1.81 0 0 1-.04-.41.93.93 0 0 1 .37-.7c.12-.11.27-.17.43-.2.28-.02.54.04.78.2a4.27 4.27 0 0 1 .76.6.05.05 0 0 0 .04 0h.02c.23-.25.5-.45.82-.63.27-.15.56-.21.88-.19Z" fill="#FEFEFE"/><path d="M6.2 7.7c.04.06.06.12.06.18 0 .04.05.1.14.2.13.13.27.23.4.31.35.18.72.29 1.12.32.66.05 1.27 0 1.84-.2.07-.01.19-.07.36-.15.23-.11.42-.25.56-.43.1-.12.16-.34 0-.46a.55.55 0 0 0-.24-.1c-.02-.01-.02-.02 0-.03l.23-.16c.1-.06.16-.12.2-.18.19-.23.25-.5.2-.8-.02-.2-.1-.4-.25-.56l-.18-.15a3.74 3.74 0 0 0-.4-.19c.17 0 .33.04.47.12.32.18.5.43.55.76.06.42-.15.77-.5 1.05l-.02.02a.05.05 0 0 0 0 .04l.01.02c.1.1.2.2.25.3.23.47-.06.9-.51 1.15-.3.17-.66.28-1.08.34a5.7 5.7 0 0 1-1.29.02 3.56 3.56 0 0 1-1.2-.3 1.53 1.53 0 0 1-.61-.5.69.69 0 0 1-.1-.61Z" fill="#E1B595"/><path d="M10.29 6.91a.57.57 0 0 0 .2-.44.58.58 0 0 0-.36-.5.84.84 0 0 0-.63 0 .6.6 0 0 1 .46-.17c.17 0 .31.06.43.16.16.13.23.3.22.52 0 .05-.01.1-.03.13a8.2 8.2 0 0 0-.04.1c-.04.1-.13.16-.25.2ZM7.58 5.95c-.36-.09-.63-.03-.82.16a.59.59 0 0 0-.17.46.5.5 0 0 1 0-.36c.04-.12.11-.21.22-.29.24-.17.5-.16.77.03Z" fill="#E1B595"/><path d="M7.57 5.95c.24.15.35.36.32.6 0 .02 0 .02.02.02.18-.03.34 0 .47.1l.02.01h.02l.11-.06c.2-.1.4-.08.59.05.14.1.2.22.19.37 0 .03-.02.05-.05.06-.05 0-.08-.01-.1-.03-.07-.21-.24-.36-.5-.3-.1.03-.16.08-.24.13a.08.08 0 0 1-.08 0l-.25-.14c-.3-.03-.37.1-.43.32 0 .01-.01.02-.03.01-.02 0-.04-.03-.05-.09 0-.02-.02-.03-.05-.02a.66.66 0 0 1-.67-.03.58.58 0 0 1-.27-.38c0-.2.05-.35.17-.46.19-.2.46-.25.81-.16ZM10.29 6.91c-.33.22-.64.21-.92-.04-.13-.11-.18-.26-.16-.46a.6.6 0 0 1 .3-.44.84.84 0 0 1 .62 0c.21.09.36.29.36.5 0 .16-.06.31-.2.44Z" fill="#1F0A0A"/><path d="M5.58 6.14h-.04c-.33.27-.44.59-.33.96.01.05 0 .07-.06.04a.6.6 0 0 1-.13-.1.8.8 0 0 1 .33-.88.55.55 0 0 1 .2-.09c.02 0 .03 0 .03.02a.1.1 0 0 1 0 .05ZM12.98 7.08a.44.44 0 0 0-.15.11c-.05.06-.07.05-.07-.02l.02-.15a.78.78 0 0 0-.09-.53 10.7 10.7 0 0 0-.2-.4c.43.21.6.54.49.99ZM7.28 6.47c.12 0 .21-.09.21-.2 0-.1-.1-.18-.21-.18-.12 0-.22.08-.22.19 0 .1.1.2.22.2ZM9.82 6.47c.12 0 .22-.08.22-.19 0-.1-.1-.2-.22-.2s-.22.1-.22.2.1.2.22.2Z" fill="#FEFEFE"/><path d="M12.98 7.08c-.07.26-.25.42-.54.5-.02 0-.03 0-.03-.02v-.27c0-.03.02-.05.06-.06a.4.4 0 0 0 .17-.11c.04-.05.07-.1.09-.16.06-.23-.03-.4-.26-.53-.02 0-.02-.01-.02-.03v-.3a10.51 10.51 0 0 1 .24.39c.1.17.13.35.1.53l-.03.15c0 .07.02.08.07.02a.44.44 0 0 1 .15-.11ZM5.58 6.14v.23c0 .01 0 .02-.02.03a.44.44 0 0 0-.21.13c-.18.22-.16.42.06.6v.01l-.04.34h-.02a.66.66 0 0 1-.33-.45c.05.05.1.09.13.1.05.04.07.02.06-.03-.11-.37 0-.69.33-.95h.04Z" fill="#E1B595"/><path d="M6.97 6.48c-.02.03 0 .06.02.06.03.01.06 0 .07-.03.01-.03 0-.06-.03-.07-.02-.01-.05 0-.06.04ZM9.55 6.47c-.01.03 0 .06.02.07.02.01.06 0 .07-.03.02-.03.01-.06-.01-.07-.03-.01-.06 0-.08.03Z" fill="#FEFEFE"/><path d="m5.54 6.76-.04.1c-.01.06-.03.06-.04 0a.22.22 0 0 1 0-.13.25.25 0 0 1 .1-.1c.05-.04.06-.04.03.02l-.05.1ZM12.43 6.69c.04 0 .06 0 .08.04a.2.2 0 0 1 .03.1v.02a.2.2 0 0 1-.04.11c-.02.03-.05.05-.07.05h-.01v-.32Z" fill="#C18A75"/><path d="M6.24 8.68c.02.03.02.06.01.08a1.3 1.3 0 0 1-.24-.28 1.45 1.45 0 0 1-.24-.8c0-.32.05-.63.15-.93.03.03.05.07.06.11l.04.12c.04.08.1.15.16.22l.02.04-.02.04a.88.88 0 0 0-.28.63c0 .13.03.27.1.4.06.14.14.26.24.37Z" fill="#5E413D"/><path d="M9.26 7.1h-.65l.2-.04.04-.01.01-.03V7l-.01-.02a.2.2 0 0 0-.17-.06c-.16.01-.23.1-.21.24a.45.45 0 0 0-.24-.02c.01-.08-.03-.15-.13-.2-.1-.04-.16-.03-.22.03L7.87 7v.04l.04.02.04.01c.05 0 .1.01.13.04l-.28-.02h-.02l-.01-.02a.03.03 0 0 1 0-.03l.1-.15c0-.01.01-.02.03-.02a.51.51 0 0 0 .2-.1l.24.13a.08.08 0 0 0 .08 0c.08-.05.14-.1.24-.13.26-.06.43.09.5.3.02.02.05.03.1.03Z" fill="#E1B595"/><path d="M8.23 7.13c-.06.05-.1.04-.15-.02a.2.2 0 0 0-.13-.04h-.04a.07.07 0 0 1-.03-.03.06.06 0 0 1 0-.08c.06-.06.13-.07.22-.03.1.05.15.12.13.2ZM8.6 7.1c-.02.07-.07.08-.13.05-.02-.15.05-.23.21-.24a.2.2 0 0 1 .17.06l.01.02v.03l-.01.03-.03.01-.21.05Z" fill="#1F0A0A"/><path d="m11.25 7.55-.06-.13.3-.4c.01-.02.03-.04.06-.03l.03.03.01.04a.64.64 0 0 1-.34.49Z" fill="#5E413D"/><path d="M7.82 7.5c.16.12.34.17.54.16a.83.83 0 0 0 .67-.32c.05-.06.1-.07.17-.02.06.05.07.1.03.16-.25.36-.74.47-1.19.38a.85.85 0 0 1-.51-.3c-.07-.09-.1-.24.05-.28.06-.01.1.01.12.06.05.08.09.14.12.16Z" fill="#1F0A0A"/><path d="M13.27 12.06c.01 0 .02 0 .02-.02.09-.35.1-.7.05-1.04a3.63 3.63 0 0 0-.5-1.31 1.56 1.56 0 0 1-.15-.25c-.05-.1-.15-.14-.22-.2a.35.35 0 0 0-.2-.1.33.33 0 0 0-.24.05c-.36.27-.67.48-.94.64l-.3-.37a.03.03 0 0 1-.02-.02l.01-.02h.02c.4-.17.77-.4 1.07-.71.04-.04.09-.05.14-.01a4.46 4.46 0 0 1 1.05 1.02c.27.37.47.77.58 1.2a2.37 2.37 0 0 1 .04 1.04h-.05l-.07-.08h-.01l-.02-.01h-.01l-.01.02a.6.6 0 0 1-.17.23h-.04c-.02-.01-.03-.03-.03-.06Z" fill="#452323"/><path d="M5.92 8.91c-.14.11-.27.23-.4.36a3.8 3.8 0 0 0-1.15 2.52l-.02.17c0 .02 0 .02-.01 0-.12-.33-.07-.69.02-1.02a3.81 3.81 0 0 1 1.5-2.1c.02.01.04.03.06.07Z" fill="#FEFEFE"/><path d="m5.6 9.56-.25.33c-.06.08-.11.23-.17.44-.13.48-.18.96-.14 1.45a.57.57 0 0 0-.2.17.63.63 0 0 1-.14.14.04.04 0 0 1-.03 0h-.01l-.3-.3a3.8 3.8 0 0 1 1.17-2.52c.12-.13.25-.25.4-.36.03.02.05.04.07.08a.03.03 0 0 1 0 .03l-.4.54ZM13.27 12.06l-.05-.14-.02-.02h-.02a.07.07 0 0 0-.06 0l-.18.17h-.02a.05.05 0 0 1-.04 0l-.39-.34-.03-.02h-.03l-.17.04h-.03v-.03c0-.45-.13-.85-.4-1.2-.04-.06-.14-.19-.22-.2-.09-.03-.14 0-.17.08l-.04-.01c-.07-.2-.18-.38-.3-.56.26-.16.57-.37.93-.64a.33.33 0 0 1 .25-.05c.06 0 .12.04.19.1.07.06.17.1.22.2l.16.25c.06.08.1.16.15.25.17.34.28.7.34 1.06.05.34.04.7-.04 1.04l-.03.02ZM10.91 12.46c.1.06.19.13.25.22l.13.13c.06.05.1.13.12.22.08.26.1.5.05.75 0 .01 0 .02-.02.03l-.08.08-.15.08h-.04a1.04 1.04 0 0 0-.19-.1c-.12-.03-.21.06-.31.1h-.05a.8.8 0 0 0-.23-.07.65.65 0 0 1-.35-.59.4.4 0 0 0 .19-.13v-.03l-.02-.01h-.02c-.22.03-.43.08-.64.1-.74.1-1.47.04-2.18-.17l-.28-.09h-.03l-.02.01-.01.02v.03c.08.17.15.34.2.5.06.19.08.33.05.44-.2-.15-.36-.15-.48-.02h-.03l-.16-.08-.43-.19c-.03-.05-.04-.07-.02-.08 0-.12-.05-.27-.13-.45a6.88 6.88 0 0 1-.3-1.06 3.96 3.96 0 0 1 .05-1.84c.1-.3.21-.58.35-.84.04-.06.06-.14.09-.21a.04.04 0 0 0 .01-.04c.1.03.19.08.27.15l.01.02-.01.02-.08.1c-.18.16-.3.3-.4.45-.12.22-.22.48-.28.78-.06.28-.03.6.08.94.11.32.31.6.6.84.31.25.67.42 1.08.53.62.15 1.26.18 1.94.08a3.05 3.05 0 0 0 1.47-.62Z" fill="#5E413D"/><path d="M6.2 9.2h.02l-.09.22c-.14.26-.26.54-.35.84a3.96 3.96 0 0 0-.06 1.84c.12.53.23.88.3 1.06.09.18.13.33.14.45-.07-.1-.15-.23-.22-.39-.17-.4-.29-.8-.37-1.2a4.09 4.09 0 0 1-.05-1.1A3.38 3.38 0 0 1 6.2 9.2ZM12.28 9.34a.05.05 0 0 0-.01.07l.11.12c.02.02.06.02.08 0h.01a.05.05 0 0 0 0-.08l-.1-.11a.06.06 0 0 0-.09 0Z" fill="#FEFEFE"/><path d="M10.66 9.7a3.37 3.37 0 0 1-1.48.33c-.58.01-1.04 0-1.38-.07a5.56 5.56 0 0 1-1-.34 4.89 4.89 0 0 0-.14-.08.45.45 0 0 1 .12-.1h.04c.3.12.6.2.88.24.47.08.97.1 1.48.07a5 5 0 0 0 1.3-.23c.07.05.13.1.18.17Z" fill="#C18A75"/><path d="M12.1 9.52a.05.05 0 0 0 0 .08l.09.08c.02.02.06.02.09 0a.05.05 0 0 0 0-.08l-.08-.08a.07.07 0 0 0-.1 0Z" fill="#FEFEFE"/><path d="M6.66 9.54a4.86 4.86 0 0 1 .26.15c.36.14.66.22.88.27.34.06.8.08 1.38.07a3.37 3.37 0 0 0 1.48-.34l.28.37c-.24.1-.46.15-.66.19-.88.13-1.77.12-2.69-.04a5.3 5.3 0 0 1-1.2-.37l.27-.3Z" fill="#E1B595"/><path d="m5.6 9.56-.2.61c-.16.57-.2 1.14-.13 1.7 0 .06-.02.07-.08.03l-.15-.12c-.04-.49 0-.97.14-1.45.05-.21.11-.36.17-.44.09-.1.17-.22.25-.33Z" fill="#452323"/><path d="M12.59 9.93c.06.08.13.12.17.1.03-.02.01-.1-.05-.17-.06-.08-.13-.12-.16-.1-.04.02-.02.1.04.17ZM6.39 9.84c.42.18.82.3 1.2.37.92.16 1.81.17 2.69.04.2-.04.42-.1.66-.19.1.17.18.34.23.53 0 .36-.1.69-.3.99-.17.3-.43.52-.77.68a3.9 3.9 0 0 1-2.94.04 3.15 3.15 0 0 1-.9-.56h-.02c-.01 0-.02 0-.02-.02-.03-.06-.06-.09-.1-.07a1.87 1.87 0 0 1 .27-1.82Z" fill="#FEFEFE"/><path d="m11.44 10.4.22.33c.18.26.28.54.29.84 0 .09-.01.14-.09.2-.18.18-.27.4-.17.62.03.08.09.12.15.2.03.02.04.05.05.08.03.09.09.16.16.23a.1.1 0 0 1 .03.04 4.83 4.83 0 0 1-.33.99c-.03.05-.07.06-.12.03a.95.95 0 0 0-.1-.06c-.06-.02-.1-.02-.17-.01l.08-.08a.06.06 0 0 0 .02-.03c.04-.24.03-.49-.05-.75a.46.46 0 0 0-.12-.22l-.13-.13a.84.84 0 0 0-.25-.22l.16-.16a1.72 1.72 0 0 0 .42-1.58 7.4 7.4 0 0 0-.09-.33l.04.01Z" fill="#452323"/><path d="M6.9 11.38c-.01-.03-.02-.03-.02.01v.35c0 .07-.05.1-.15.12H6.7c-.09-.03-.13-.08-.13-.16l-.02-.95c0-.09.04-.15.1-.18a.14.14 0 0 1 .19.06c.1.16.16.35.23.5h.02l.18-.43c.03-.07.06-.13.14-.14.17-.01.19.15.19.28v.84c0 .08-.05.14-.13.17h-.01c-.1.02-.16-.02-.17-.09-.02-.09-.02-.2 0-.34 0-.03-.02-.04-.04 0l-.1.11c-.06.05-.1.05-.16 0a.77.77 0 0 1-.1-.15ZM8.26 11.88c-.12 0-.23-.07-.3-.2a.88.88 0 0 1-.14-.47c0-.17.05-.34.13-.47.08-.12.2-.2.3-.2.12 0 .23.08.31.2.08.13.13.3.13.47 0 .18-.05.35-.13.47-.08.13-.19.2-.3.2ZM9.3 11.56h.25c.1 0 .14.05.15.15-.01.1-.06.14-.16.14H9.1a.16.16 0 0 1-.1-.03.13.13 0 0 1-.04-.05.12.12 0 0 1 0-.05V10.7c0-.09.05-.13.15-.13.11 0 .16.06.16.15v.83c0 .01 0 .02.03.02ZM10.12 10.56c-.09 0-.16.06-.16.14v1.02c0 .07.07.13.15.13.1 0 .16-.06.17-.13V10.7c0-.08-.07-.14-.16-.14ZM10.83 10.78c.07-.01.11-.07.1-.12-.02-.06-.08-.09-.15-.07-.07.01-.11.07-.1.12.02.06.09.09.15.07Z" fill="#1F0A0A"/><path d="M11.17 10.59c.12.33.13.65.05.97-.08.27-.23.5-.47.72-.3.27-.75.47-1.2.55-.8.15-1.54.1-2.23-.12-.57-.2-.97-.55-1.2-1.06.04-.02.07 0 .1.07 0 .01 0 .02.02.02h.01l.03.01c.3.25.59.43.88.55a3.9 3.9 0 0 0 2.94-.04c.34-.16.6-.39.78-.68.18-.3.28-.63.3-1Z" fill="#E1B595"/><path d="M8.14 11.22c0 .2.05.35.11.35s.11-.16.11-.35c0-.2-.05-.36-.1-.36-.07 0-.12.16-.12.36Z" fill="#FEFEFE"/><path d="m12.11 11.99.04.25c0 .01.01.02.03.02a.2.2 0 0 0 .1-.05h.03c.04 0 .07.01.1.04l.02.07a1.4 1.4 0 0 1-.03.35l.01.01.02.01h.01c.28-.02.46-.15.56-.38 0-.02 0-.03-.02-.03h-.02a.2.2 0 0 1 .1-.05c.01 0 .02 0 .03.02 0 .06.02.12.05.17l.04.02c.12 0 .22-.1.3-.15.02-.02.03-.02.01 0-.13.22-.31.37-.55.47-.24.1-.65.12-.79-.12-.01-.03 0-.06.03-.07.13-.05.2-.13.23-.25 0-.01 0-.02-.02-.03h-.01l-.04.01c-.05.09-.14.17-.26.13-.25-.1-.18-.37-.05-.51.01-.02.02-.01.03 0l.05.07Z" fill="#E1B595"/><path d="M12.96 12.28h.02c.02 0 .02.01.02.03-.1.23-.28.36-.56.39a.04.04 0 0 1-.03-.02v-.02l.02-.34c0-.03-.01-.06-.03-.08a.17.17 0 0 0-.09-.04.06.06 0 0 0-.04.01.2.2 0 0 1-.09.05c-.02 0-.03 0-.03-.02l-.03-.25c.09.01.17 0 .25-.05l.04.01.33.38h.03a.6.6 0 0 0 .19-.05ZM5.24 12.17l.02.4v.01h-.03c-.25 0-.4-.07-.46-.24l.26-.25h.03c.06.04.12.06.18.08Z" fill="#FEFEFE"/><path d="M4.77 12.34c.06.17.21.25.46.25h.01l.01-.01a.02.02 0 0 0 .01-.02l-.02-.4a.1.1 0 0 1 .06 0l.02.03.11.42v.02l-.02.02c-.34.16-.76-.07-.9-.34-.03-.07-.02-.07.04-.03a.3.3 0 0 0 .22.06Z" fill="#E1B595"/><path d="M7.37 13.07h-.06l-.01.02v.02a1.76 1.76 0 0 0 .87.36l.02.01a.04.04 0 0 1 0 .05l-.22.43a.04.04 0 0 1-.05 0 .47.47 0 0 0-.39-.06 4.7 4.7 0 0 0-.25.08.82.82 0 0 0-.05-.43 4.67 4.67 0 0 0-.2-.54l.01-.02h.05l.28.08Z" fill="#452323"/><path d="M6.3 13.42c.05.09.12.14.16.13.03-.02.02-.1-.03-.19s-.12-.14-.15-.13c-.04.02-.03.1.02.19Z" fill="#FEFEFE"/><path d="M10.04 13.31c0 .25.12.45.35.59a.47.47 0 0 0-.36.09h-.02v-.01l-.26-.48v-.03c0-.02 0-.03.02-.03l.27-.13ZM6.6 13.88a.44.44 0 0 0-.25.08h-.02v-.01l-.15-.26.43.19Z" fill="#452323"/><path d="m6.82 14.21.1-.09.04-.02c.11 0 .18.05.25.11l.04.02h.05c.13-.07.3-.15.43-.1l.03.02v.07a.27.27 0 0 1-.19.07h-.85c-.1 0-.17-.03-.21-.08a.05.05 0 0 1 0-.07l.03-.02c.02-.02.05-.02.08 0l.1.1h.02a.08.08 0 0 0 .08 0ZM10.6 14.21l.06.02c.01 0 .03 0 .04-.02.09-.06.23-.17.35-.07a23.45 23.45 0 0 1 .1.09h.05l.14-.09c.07-.05.14-.04.18.03v.04c-.06.05-.1.08-.15.08a45.28 45.28 0 0 1-1.1-.02.15.15 0 0 1-.05-.05l-.01-.02c-.03-.05-.02-.08.05-.08a.5.5 0 0 1 .35.1Z" fill="#E1B595"/><path d="M8.15 14.13H9.8l.14.17c.11.13.26.2.44.2h.91c.28-.01.48-.13.6-.34.43.02.86.06 1.27.1a3.06 3.06 0 0 1 .63.14v.05c0 .01 0 .02-.02.02a5.32 5.32 0 0 1-.88.17 45.34 45.34 0 0 1-7.5 0 7.94 7.94 0 0 1-.5-.06 2.04 2.04 0 0 1-.4-.1v-.05l.01-.02a.33.33 0 0 1 .15-.07c.49-.09.99-.14 1.5-.16.13.21.33.32.6.33h.84c.1 0 .2-.04.28-.09a.8.8 0 0 0 .28-.3Z" fill="#DF976D"/></svg>