<!-- by TradingView --><svg width="18" height="18" viewBox="0 0 18 18" xmlns="http://www.w3.org/2000/svg"><path fill="#F0F3FA" d="M0 0h18v18H0z"/><path d="M7.54 6.97V7c.05.14.14.27.25.35.1.1.24.14.38.15.13 0 .27-.03.39-.11.11-.08.2-.2.26-.33l1.25-3.03a.79.79 0 0 0-.15-.81.68.68 0 0 0-.28-.19.64.64 0 0 0-.62.13.73.73 0 0 0-.2.27l-1.26 3a.79.79 0 0 0-.02.54ZM9.8 6.2a.66.66 0 0 1 .4-.36l1.64-.55a.68.68 0 0 1 .7.15l.01.02a.66.66 0 0 1 .18.63.66.66 0 0 1-.44.47l-1.66.53a.68.68 0 0 1-.7-.18.66.66 0 0 1-.12-.71Z" fill="#E11F53"/><path d="M11.03 7.54H11a.74.74 0 0 0-.35.25.65.65 0 0 0-.03.77c.07.11.18.2.32.26l3.02 1.25a.79.79 0 0 0 .82-.15.68.68 0 0 0 .19-.28.64.64 0 0 0-.13-.62.73.73 0 0 0-.27-.2l-3-1.26a.79.79 0 0 0-.54-.02ZM11.8 9.8a.66.66 0 0 1 .36.4l.55 1.64a.68.68 0 0 1-.15.7l-.02.01a.66.66 0 0 1-.92.02.67.67 0 0 1-.18-.28l-.53-1.66a.68.68 0 0 1 .18-.7.66.66 0 0 1 .71-.12Z" fill="#4C8BF5"/><path d="M10.46 11.02V11a.74.74 0 0 0-.25-.34.65.65 0 0 0-.77-.04c-.11.08-.2.2-.26.33l-1.25 3.02a.79.79 0 0 0 .15.82.64.64 0 0 0 .9.06.73.73 0 0 0 .2-.27l1.26-3a.79.79 0 0 0 .02-.55ZM8.2 11.8a.66.66 0 0 1-.4.36l-1.64.55a.68.68 0 0 1-.7-.15l-.02-.03a.66.66 0 0 1-.01-.91.67.67 0 0 1 .28-.18l1.66-.53a.68.68 0 0 1 .7.18.66.66 0 0 1 .12.71Z" fill="#44C6AC"/><path d="M6.97 10.46H7a.74.74 0 0 0 .35-.25.65.65 0 0 0 .03-.77.72.72 0 0 0-.32-.26L4.03 7.93a.79.79 0 0 0-.81.15.68.68 0 0 0-.19.28.64.64 0 0 0 .13.62c.07.09.17.16.27.2l3 1.26c.17.07.37.08.54.02ZM6.2 8.2a.66.66 0 0 1-.36-.4L5.3 6.16a.68.68 0 0 1 .15-.7l.03-.01a.66.66 0 0 1 .9-.02c.1.08.15.17.19.28l.53 1.66a.68.68 0 0 1-.18.7.66.66 0 0 1-.71.12Z" fill="#F7B233"/></svg>