<!-- by TradingView --><svg width="18" height="18" viewBox="0 0 18 18" xmlns="http://www.w3.org/2000/svg"><path fill="url(#av0nvj4vk)" d="M0 0h18v18H0z"/><path d="M13.52 5.05c-.22-.08-.42-.1-.6-.09a5.66 5.66 0 0 0-6.37-1.02 5.63 5.63 0 0 0-2.58 7.56c-.06.02-.07.06-.04.13.12.28.24.53.36.73.1.17.22.34.38.52a5.83 5.83 0 0 0 9.39-1 5.15 5.15 0 0 0 .64-3.22.03.03 0 0 0-.02-.02h-.03l-.01.03-.02.05a5.76 5.76 0 0 0-.7-2.45l.15-.48a17.76 17.76 0 0 0 .32.56 5.95 5.95 0 0 1-1.41 7.13 5.85 5.85 0 0 1-3.06 1.45A5.98 5.98 0 0 1 4.44 5.1a5.87 5.87 0 0 1 3.19-1.94 5.98 5.98 0 0 1 5.89 1.9Z" fill="#056EF7"/><path d="M12.91 4.96c-.1.03-.18.03-.21.01a5.32 5.32 0 0 0-4.16-1.42 5.49 5.49 0 1 0 5.28 2.88c0-.05.03-.1.1-.16a5.76 5.76 0 0 1 .6 3.84 5.72 5.72 0 0 1-3.57 4.16 5.73 5.73 0 0 1-2.26.36l-.14-.02-.5-.06a5.64 5.64 0 0 1-.42-11 5.81 5.81 0 0 1 4.13.55c.42.24.8.52 1.15.86Z" fill="#696868"/><path d="M12.7 4.97c-.18.06-.32.12-.43.19-.07.05-.1.03-.06-.05a.85.85 0 0 1 .05-.11c.03-.06.02-.07-.04-.04-.13.08-.25.18-.34.3a.06.06 0 0 0 0 .06c0 .02 0 .03.03.04l.13.02h.13l.16.06h-.08l-.22-.04c-.03-.01-.05 0-.08.02a.24.24 0 0 0-.17-.03.54.54 0 0 0-.17.08.08.08 0 0 1-.04.01.61.61 0 0 0-.2.04c-.02 0-.03.02-.04.06a.82.82 0 0 0-.37.23h-.06a.8.8 0 0 1-.39-.34h-.04a.41.41 0 0 0-.04.24c.03.18.1.33.24.44l.05.04h.05c0 .03 0 .05.02.05l.23.17.06.05.1.05.11.12c.05.05.1.07.16.04.07.08.15.12.25.12-.03.05.02.1.15.13h.13v.04c-.1 0-.2.03-.28.07-.03.01-.03.03 0 .05l.05.07c0 .02.02.03.05.04l.17-.01.11-.01c.15-.01.29-.04.41-.09.01 0 .02.01.02.04.1.02.2.02.28 0l.2-.02c.02 0 .03-.01.04-.04 0-.02 0-.04-.02-.05a.24.24 0 0 0-.17-.07V6.9h.03l.13.03c.22-.03.4-.11.57-.25.08.04.14.09.18.13.05.08.07.07.07-.02a.39.39 0 0 0-.1-.25c.03-.06.06-.1.1-.11a5.46 5.46 0 0 1-1.33 6.81 5.59 5.59 0 0 1-2.24 1.12 5.53 5.53 0 0 1-3.45-.32 5.48 5.48 0 0 1-1.74-8.83 5.5 5.5 0 0 1 4.8-1.62c1.04.16 2 .62 2.84 1.38Z" fill="#1E243C"/><path d="M12.7 4.97c.04.02.1.02.21 0 .19-.03.39 0 .6.08l.2.11-.01.02a.03.03 0 0 1-.04 0c-.2-.07-.42-.09-.62-.05a.94.94 0 0 0-.55.32v.06c0 .02 0 .03-.02.02l-.14-.1-.16-.04a.49.49 0 0 0-.13-.01c-.05 0-.1 0-.13-.02a.06.06 0 0 1-.04-.04l.01-.05c.1-.13.2-.23.34-.3.06-.04.07-.03.04.03a.82.82 0 0 0-.05.1c-.03.1-.01.1.06.06.11-.07.25-.13.43-.19Z" fill="#1F1D20"/><path d="m6.83 5.12.04.45-.08-.1a.05.05 0 0 0-.05-.03.05.05 0 0 0-.04.03.99.99 0 0 0-.1.44c-.02.02-.05.02-.07.01a.04.04 0 0 1-.02-.03c-.02-.2 0-.38.06-.57a.87.87 0 0 1 .1-.24.05.05 0 0 1 .05-.03c.06 0 .1.02.11.07Z" fill="#9B6930"/><path d="M13.71 5.16a.1.1 0 0 1 .01.03c0 .01 0 .02-.02.02a.2.2 0 0 1-.05.02 1 1 0 0 0-.37.15c-.1.01-.07.1.08.25a.3.3 0 0 1-.19-.09l-.03-.02c-.01 0-.02 0-.03.02a.4.4 0 0 0-.12.17c-.01.02 0 .04.01.05.02.02.04.02.05 0 .1-.05.2-.07.32-.07.02 0 .02 0 .03-.02v-.02c.04.02.08.03.12.02l.05.07-.17.02c-.1 0-.19.03-.26.1-.04.02-.03.03 0 .04.12.01.23.06.33.15v.03c-.02.03-.01.04.01.04h.03c-.2.12-.4.18-.62.18a.1.1 0 0 0-.08.03.1.1 0 0 0-.03.08v.31l.01.05.08.12-.03.01v.04l-.12.08a.47.47 0 0 0-.21.1c0-.03 0-.04-.02-.04l.22-.12c.03 0 .07-.02.1-.04v-.04a.28.28 0 0 1-.06-.11c0-.02-.02-.03-.04-.03-.04 0-.08 0-.1.03l-.64.2.01-.03v-.02l.6-.2.01-.01V6.7l-.12-.08h-.03c-.15.08-.33.17-.55.25-.03.02-.04.03-.04.05-.13-.04-.18-.08-.15-.13.1-.02.16-.08.17-.18v-.05c-.01 0-.02-.02-.01-.03V6.5a.29.29 0 0 0-.15-.2.22.22 0 0 0-.24.03c-.05.04-.08.1-.08.17s.02.13.06.18c-.06.03-.1.01-.16-.04a7.92 7.92 0 0 0-.12-.12.1.1 0 0 0 .02-.1c0-.02-.02-.02-.03-.02-.05 0-.08.02-.08.07l-.06-.05.58-.3c.02 0 .02-.01 0-.01-.08-.02-.18-.01-.3 0-.19.03-.36.08-.5.14-.02 0-.03-.02-.03-.06l.22-.07a3.74 3.74 0 0 1 1.3-.04c.02 0 .02 0 0-.01a2.12 2.12 0 0 0-1.34-.16.24.24 0 0 0-.1.06.41.41 0 0 0-.05.07.43.43 0 0 1-.08.1c-.02.01-.02.03 0 .05v.01l-.05-.04c.05-.13.13-.24.23-.34h.06c-.02.02 0 .03.03.04h.02l.23-.06c.3.02.56.06.79.12.26.08.5.2.7.35l.04.02.22-.04c.01 0 .02 0 .03-.02V6.2c-.1-.25-.26-.45-.49-.6h-.03v.02c.06.08.1.16.14.25 0 .02.01.03.03.04.11.08.21.17.3.28v.01l-.01.02h-.03c-.19-.22-.41-.39-.68-.5a1.46 1.46 0 0 0-.82-.12.13.13 0 0 1-.1-.01c.01-.04.02-.05.04-.06.03.02.06.03.1.03h.03l.14-.04h.04l.25.06a2.1 2.1 0 0 1 .25.06h.01c0-.01.01-.02.02-.01l.33.2c.02.01.03 0 .02-.02a.55.55 0 0 0-.31-.36h.08l.14.09c.02 0 .02 0 .02-.02v-.06a.94.94 0 0 1 .55-.32c.2-.04.41-.02.62.06l.04-.01.01-.02Z" fill="#413347"/><path d="M6.83 5.12c.08.07.15.13.2.2l.05.08.07.09.01.02v.02l-.02-.01h-.02v.03c.07.11.1.24.08.37-.09.02-.15.01-.2-.02l-.13-.33-.04-.45Z" fill="#FFA001"/><path d="m13.65 5.23.28.33v.04a.87.87 0 0 1-.22.34l-.14-.2-.05-.07a.93.93 0 0 0-.24-.29 1 1 0 0 1 .37-.15Z" fill="#056EF7"/><path d="M11.95 5.42c.05.07.12.12.2.14.03.01.03 0 0-.01a.51.51 0 0 0-.14-.1l-.02-.03.01-.02h.03l.22.04c.15.07.26.2.31.36 0 .03 0 .03-.02.02l-.33-.2h-.05a2.1 2.1 0 0 0-.23-.05l-.25-.06h-.04a.44.44 0 0 1-.14.03 3 3 0 0 0-.03 0c-.04.01-.07 0-.1-.02a.61.61 0 0 1 .2-.04l.04-.01a.54.54 0 0 1 .17-.08c.06-.01.12 0 .17.03Z" fill="#B4B3B2"/><path d="M13.28 5.38c.1.08.18.18.24.29-.04 0-.08 0-.12-.02-.03 0-.04-.02-.04-.02-.15-.16-.18-.24-.08-.25Z" fill="#696868"/><path d="m6.87 5.57.14.33-.4.01c0-.16.02-.3.09-.44 0-.02.02-.03.04-.03s.04 0 .05.02l.08.11Z" fill="#432E16"/><path d="M10.9 5.81c-.1.1-.18.21-.23.34a.65.65 0 0 1-.24-.44.41.41 0 0 1 .04-.23l.02-.02.02.01c.1.16.22.27.39.34ZM14.07 5.79l-.15.48c-.07.06-.1.11-.1.16-.04.01-.07.05-.1.11l-.15.14a1.1 1.1 0 0 1-.57.25c-.03 0-.07-.01-.13-.04l-.08-.12a.09.09 0 0 1 0-.05v-.31a.1.1 0 0 1 .02-.08.1.1 0 0 1 .08-.03c.21 0 .42-.06.62-.18l.08-.05.12-.13c.1-.1.18-.21.22-.34v-.04c0-.02 0-.03.02-.04l.03-.01c.05 0 .07.02.07.07-.01.1 0 .17.02.2Z" fill="#A137B3"/><path d="m7.17 5.53.16.36-.01.03a.22.22 0 0 1-.13 0 .55.55 0 0 0-.07-.37v-.02l.02-.01h.03Z" fill="#F9DDBF"/><path d="m13.36 5.63.04.02v.02c0 .01-.01.02-.03.02a.57.57 0 0 0-.32.08.04.04 0 0 1-.05 0A.04.04 0 0 1 13 5.7a.4.4 0 0 1 .12-.17l.03-.02.03.02c.04.05.1.08.19.09Z" fill="#1F1D20"/><path d="m11.24 5.8.2-.2c.26-.05.53-.01.82.11.26.11.48.28.67.5h.03v-.02c.01 0 .01 0 0 0a1.3 1.3 0 0 0-.3-.29.08.08 0 0 1-.02-.04.8.8 0 0 0-.14-.25V5.6h.03c.23.14.39.34.49.59v.03l-.03.02-.22.04c-.01 0-.03 0-.04-.02a2.1 2.1 0 0 0-.7-.35c-.23-.06-.5-.1-.79-.12Z" fill="#B4B3B2"/><path d="M11.33 5.58c.03.02.06.02.1.01l-.19.2-.23.06H11c-.04-.01-.05-.03-.03-.04.1-.12.23-.2.37-.23ZM13.57 5.74l.14.2-.12.13c-.02-.03-.02-.06-.01-.07a.1.1 0 0 0 .02-.08.1.1 0 0 0-.05-.07l-.15-.09.17-.02Z" fill="#696868"/><path d="m4.86 5.8.36.22c.1.06.18.15.26.28-.2-.13-.4-.22-.58-.26h-.03c-.01.01-.02.02-.01.04.01.15.07.3.18.42.04.05.03.07-.02.08-.17-.2-.3-.42-.4-.68a.12.12 0 0 1 0-.09.12.12 0 0 1 .07-.06c.04-.02.1 0 .17.04Z" fill="#9B6930"/><path d="m13.4 5.76.15.09a.1.1 0 0 1 .05.07.1.1 0 0 1-.02.08c-.01.01 0 .04 0 .07l-.07.05h-.03c-.02 0-.03-.01 0-.03v-.04a.62.62 0 0 0-.33-.15c-.04 0-.05-.02-.01-.05a.46.46 0 0 1 .26-.09Z" fill="#1E243C"/><path d="M4.86 5.8c.2.02.4.1.59.2.01.07.06.13.14.2-.06 0-.1.05-.11.1a.85.85 0 0 0-.26-.28l-.36-.23Z" fill="#FFA001"/><path d="m11 6.1.16-.24c.39-.04.77.02 1.14.2.01 0 .01 0 0 0h-.2c-.34-.04-.7-.03-1.1.05Z" fill="#B4B3B2"/><path d="M6.4 6.03a.16.16 0 0 0-.01-.05.03.03 0 0 0-.04-.02l-.51.14a2 2 0 0 1 .51-.22h.09v.03c-.03.03-.04.07-.03.12Z" fill="#9B6930"/><path d="m11.16 5.86-.17.25-.22.07c-.02.01-.03.02-.05.01v-.01c-.02-.02-.02-.04 0-.05a.43.43 0 0 0 .08-.1.41.41 0 0 1 .05-.07.24.24 0 0 1 .1-.06 1 1 0 0 1 .21-.04Z" fill="#696868"/><path d="M6.4 6.03a180.96 180.96 0 0 1 .02.75c0 .08-.02.15-.1.18a.41.41 0 0 0-.12.28c0 .1 0 .2.03.31 0 .02 0 .03-.02.03-.17.01-.35.06-.53.14a3.98 3.98 0 0 0-.15-.17.93.93 0 0 0-.18-.15c-.02 0-.02 0 0 0l-.06-.14c-.01-.04 0-.06.04-.06.1 0 .14-.04.13-.12a.05.05 0 0 0-.03-.04c-.05-.02-.07-.05-.07-.08l.02-.02c.02-.01.02-.02 0-.02a.7.7 0 0 0-.38.19c-.1.1-.12.09-.06-.04a.5.5 0 0 1 .1-.08c.1-.03.18-.09.24-.16.2-.06.23-.1.13-.1-.04-.04-.08-.05-.14-.04l-.24.03a2.98 2.98 0 0 1 .7-.56l.11-.06.5-.14c.02 0 .04 0 .05.02l.02.05Z" fill="#FFA001"/><path d="M5.48 6.3c.01-.05.05-.1.11-.1.05-.02.07-.04.07-.07.02.03.04.04.06.04-.23.13-.44.3-.64.48.01-.04 0-.07-.06-.07.05 0 .06-.03.02-.08a.8.8 0 0 1-.18-.42v-.03l.04-.01c.18.04.38.13.58.26Z" fill="#432E16"/><path d="M11.93 8.23a3.4 3.4 0 0 0-1.2-1.62l-.17-.1a4.34 4.34 0 0 0-.3-.14c-.19-.1-.4-.15-.63-.14h-.68c-.22 0-.45 0-.67-.02a13.87 13.87 0 0 0-1.45-.01c-.05 0-.1.02-.13.04a19.57 19.57 0 0 1-.05.33l.04 1.04a5.94 5.94 0 0 1-.02.6c.03.06.02.1-.03.14a.04.04 0 0 0-.01.04c0 .05.04.07.12.06-.07.03-.13.03-.18 0a.04.04 0 0 1-.03-.04V6.14l.02-.03.04-.01c.97 0 1.95 0 2.93-.02.25-.01.5.03.74.1a2.8 2.8 0 0 1 1.6 1.5l.17.42c.01.02.01.05 0 .07a.08.08 0 0 1-.05.04l-.06.02Z" fill="#0564C4"/><path d="m12.42 6.18.23.22c.01 0 .02.02.01.04l-.06.22a2.1 2.1 0 0 0-.82-.53c-.07-.02-.06-.04 0-.04.22-.02.43.01.64.09ZM11.02 6.41l-.23-.17c.15-.06.32-.1.51-.14.12-.01.22-.02.3 0 .02 0 .02 0 0 .01l-.58.3Z" fill="#B4B3B2"/><path d="m11.93 8.23-.13.06h-.04a.06.06 0 0 1-.04-.03 2.61 2.61 0 0 0-1.38-1.68c-.26-.13-.56-.2-.9-.2a163.36 163.36 0 0 0-2.53 0c-.08 0-.12.03-.12.12l.01 1.86c0 .05-.01.08-.05.09-.08 0-.12-.01-.12-.06l.01-.04c.05-.04.06-.08.03-.13v-.04a11.97 11.97 0 0 0 0-1.84 18.76 18.76 0 0 0 .03-.1.28.28 0 0 1 .13-.04l.46-.03c.32 0 .65.02 1 .04.21.02.44.02.66.02h.68c.23 0 .44.04.64.14a5 5 0 0 0 .3.14l.16.1c.21.17.38.3.49.42.3.33.54.73.71 1.2Z" fill="#056EF7"/><path d="M12.5 6.2c.09.01.15.05.2.1.04.03.05.06.01.08a.76.76 0 0 1-.2-.18Z" fill="#B4B3B2"/><path d="M11.7 6.79a.29.29 0 0 1-.3-.3c0-.08.02-.13.07-.17a.22.22 0 0 1 .24-.03l.1.08.05.12v.07c.01.02.02.03.01.05-.01.1-.07.16-.17.18Z" fill="#fff"/><path d="M11.81 6.58c-.05 0-.1.01-.13.04a.06.06 0 0 1-.07 0l-.07-.03c-.03-.01-.03-.03-.01-.06.03-.05.02-.09-.02-.12a.17.17 0 0 1 .1-.04c.03 0 .06 0 .1.02.03.01.06.04.08.07.02.04.03.08.02.12Z" fill="#010203"/><path d="M11.17 6.51a.26.26 0 0 1-.1-.05c.01-.05.04-.07.09-.07.01 0 .02 0 .03.02a.1.1 0 0 1-.02.1ZM12.3 6.63l-.12-.22c-.01-.03 0-.04.02-.02l.23.17v.02l-.1.06h-.03Z" fill="#B4B3B2"/><path d="M11.51 6.41c.04.03.05.07.02.12-.02.03-.02.05.01.06l.07.04c.03.01.05 0 .07-.01a.19.19 0 0 1 .13-.04c0 .04-.03.08-.07.1a.18.18 0 0 1-.2 0 .17.17 0 0 1-.08-.13c0-.06.01-.1.05-.14Z" fill="#432E16"/><path d="M10.5 6.8c-.44-.12-.74-.19-.9-.19a121.03 121.03 0 0 1-2.57-.02c-.01 0-.02.01-.02.03v.2l-.04 1.63c-.05-.02-.07-.05-.07-.08a385.58 385.58 0 0 0 0-1.9h2.6c.35 0 .68.11 1 .34Z" fill="#F9DDBF"/><path d="M13.71 6.54c.08.08.11.17.11.25 0 .1-.02.1-.07.02a.43.43 0 0 0-.18-.13l.14-.14Z" fill="#2E3144"/><path d="M12.2 6.58c.06.05.06.1 0 .13a.35.35 0 0 1-.12.03h-.01v-.02a.25.25 0 0 0 .08-.13c0-.04.03-.04.05-.01Z" fill="#B4B3B2"/><path d="M10.5 6.8c.28.16.52.38.71.66-.57-.4-1.16-.6-1.77-.6L7 6.82v-.2c0-.03.02-.04.03-.04h.2l2.38.02c.15 0 .45.07.9.2Z" fill="#FC8D01"/><path d="M11.97 6.91h-.12l.04-.04a4.07 4.07 0 0 0 .58-.25l.12.08v.01l-.62.2Z" fill="#B4B3B2"/><path d="M6.33 6.71c.02.01.03.02.03.04v.05l-.1.14a.73.73 0 0 1-.14.18c-.05.04-.09.05-.11.04l-.06-.04c-.03-.02-.03-.06-.02-.12a.73.73 0 0 1 .1-.2l.08-.15.04-.03.05.01.13.08Z" fill="#9B6930"/><path d="M6.3 6.76v.02c-.05.1-.11.18-.16.24s-.09.08-.1.07L6 7.06c-.01 0 0-.05.03-.12l.14-.25h.02l.13.07Z" fill="#fff"/><path d="m5.4 6.73-.42.1c-.02 0-.03 0-.02-.02l.07-.09.24-.03c.06 0 .1 0 .13.04Z" fill="#F9DDBF"/><path d="M12.7 6.96a.33.33 0 0 1-.1-.19.15.15 0 0 1 .1-.03c.03 0 .04 0 .05.03 0 .04.03.08.06.11v.04a.22.22 0 0 1-.1.04Z" fill="#696868"/><path d="M12.6 6.77c.02.09.06.15.1.19l-.2.12c-.13.05-.27.08-.42.09h-.1a.8.8 0 0 1-.18.02.06.06 0 0 1-.05-.04.18.18 0 0 0-.06-.07c-.02-.02-.02-.04 0-.05a.76.76 0 0 1 .28-.07l.64-.19Z" fill="#B4B3B2"/><path d="M5.28 6.83a.51.51 0 0 1-.25.15c.04-.11.12-.16.25-.15Z" fill="#9B6930"/><path d="M11.21 7.46c.2.24.34.55.43.91a.38.38 0 0 0-.14.11c-.06.08-.06.14-.01.2l.12.06a.7.7 0 0 1 .05.02c.03 0 .03.02.01.04-.07.06-.12.11-.15.16-.05.07-.07.13-.06.19.02.05.04.08.09.08.03.03.07.05.11.06.02 0 .02.02.02.03-.05.36-.15.69-.3.98-.15.31-.37.58-.63.8l-.06-.03h-.04c-.67.27-1.37.38-2.1.31 0 0-.02 0-.01-.02v-.03l.36-.67a.13.13 0 0 1 .1-.08 1.84 1.84 0 0 0 1-.43 1.5 1.5 0 0 0 .5-.96c.02-.2 0-.4-.09-.57a.03.03 0 0 0-.03-.02h-.04a1.35 1.35 0 0 0-.77-.88 1.1 1.1 0 0 0-.4-.08h-.79c-.03 0-.04.02-.04.05l-.05 3.7-1.37-.02c-.02 0-.04-.01-.05-.03a5.38 5.38 0 0 0-.06-.98c.11-.1.17-.21.19-.33v-.6c.06-.08.09-.17.1-.26 0-.1 0-.17.02-.22a.55.55 0 0 0-.15-.5L7 6.83l2.44.02c.61 0 1.2.2 1.77.6Z" fill="#FFC000"/><path d="M12.84 6.94c.07 0 .13.03.17.07.02.01.03.03.02.05 0 .03-.02.04-.05.04l-.19.02c0-.03-.02-.07-.07-.1l.12-.08Z" fill="#696868"/><path d="M5.36 6.96c0 .03.02.06.07.08l.03.04c0 .08-.03.12-.13.12-.04 0-.05.02-.04.06l.05.13c-.11-.03-.16.02-.14.14h-.04l-.02-.04a.63.63 0 0 1-.03-.2c0-.06.03-.11.08-.14.07 0 .14 0 .21-.02l.02-.02c0-.02 0-.02-.02-.03a.38.38 0 0 0-.14-.04c0-.04.04-.06.1-.08Z" fill="#9B6930"/><path d="M6.33 6.96h.05c.02 0 .03.02.02.03v.1h-.03a.04.04 0 0 0-.04.03.14.14 0 0 0 0 .09c.01.09.04.18.08.27 0 .02 0 .04-.03.07a.3.3 0 0 1-.1-.13c0-.02-.01-.02-.03-.01-.01 0-.02.01-.02.03 0 .07.03.11.1.14l-.01.01v.02c-.1 0-.2.01-.3.04-.14.03-.22.08-.26.16a.72.72 0 0 1-.2.15c-.01-.05-.04-.07-.1-.04a.08.08 0 0 1-.06.01.08.08 0 0 1-.05-.04l-.15-.36c-.02-.12.03-.17.14-.14h.01a.09.09 0 0 0-.04.06c-.03-.03-.06-.04-.1-.01v.02l.01.03h.09c.07-.01.1 0 .1.01h-.04l-.01.02c0 .04.03.07.07.1.02.07.05.14.1.21 0 .01 0 .02.02.02h.04a.26.26 0 0 0 .1-.13c.17-.08.35-.13.52-.14.02 0 .02-.01.02-.03a.9.9 0 0 1-.03-.31.41.41 0 0 1 .13-.28Z" fill="#696868"/><path d="M12.72 7.02c.05.03.08.07.07.1a.73.73 0 0 1-.28 0 .47.47 0 0 1 .21-.1Z" fill="#B4B3B2"/><path d="M12.04 7.2c0 .1.05.14.11.16.16.04.25-.01.26-.17.03-.03.06-.04.08-.02l.02.04a.28.28 0 0 1-.27.22.28.28 0 0 1-.28-.2V7.2l.02-.01h.06Z" fill="#fff"/><path d="m12.61 8.04-.02-.07a.05.05 0 0 0-.04-.04l-.04.01a.63.63 0 0 1-.16.11h-.05a.3.3 0 0 0-.13-.01c.02-.04.01-.05 0-.06.14-.01.23-.1.27-.25a.32.32 0 0 0 .08-.1c.06-.15.1-.29.13-.44a.66.66 0 0 1 .23-.03c.03 0 .05.02.04.06a3.72 3.72 0 0 0-.05.58h-.01l-.01-.01a.22.22 0 0 0-.02-.06c-.05-.06-.07-.05-.08.02a.48.48 0 0 1-.14.3Z" fill="#413347"/><path d="M12.41 7.19c0 .16-.1.22-.26.17-.06-.02-.1-.07-.11-.15a.1.1 0 0 1 .06 0c.01 0 .03 0 .04.02.04.04.09.06.15.05l.03-.03c.01-.05.04-.07.1-.06Z" fill="#E95D43"/><path d="M12.65 7.2c-.03.14-.07.28-.13.42a.32.32 0 0 1-.08.11l.13-.52.03-.02h.05ZM11.9 7.36c.01.02.04.05.08.07a.2.2 0 0 1 .06.05v.1H12l-.17-.33v-.02h.03l.05.13ZM6.38 7.55c.02.02 0 .03-.05.03-.07-.03-.1-.07-.1-.14 0-.02.01-.03.02-.03.02-.01.03 0 .04.01.02.05.05.1.1.13Z" fill="#B4B3B2"/><path d="M5.35 7.4c.07.04.12.09.18.15l.15.17a.26.26 0 0 1-.1.12.04.04 0 0 1-.03.01c-.01 0-.02 0-.03-.02a.53.53 0 0 1-.09-.22c.02.01.04.02.05 0 .02 0 .02-.01.01-.03a.2.2 0 0 0-.08-.08c0-.02-.03-.02-.1-.02v-.03a.09.09 0 0 1 .04-.05Z" fill="#1E243C"/><path d="M12.44 7.73c-.04.16-.13.24-.28.25l-.11-.28a.06.06 0 0 1 0-.06.55.55 0 0 1 .09-.08c.03-.03.05-.02.05.02v.13c-.01.13.01.14.07.03l.07-.18c.01-.05.03-.05.05 0 .02.03.02.07 0 .11l.01.05c.02.02.03.02.05.01Z" fill="#B4B3B2"/><path d="M6.33 7.61h.05l.02.04v.51c0 .03 0 .04-.02.05a.64.64 0 0 1-.2.08c-.03 0-.05 0-.06-.02a.26.26 0 0 1-.08-.16c0-.01 0-.03.02-.04.09-.06.14-.15.15-.27l-.01-.02-.02-.02a.5.5 0 0 0-.37.08c-.04 0-.06-.01-.05-.03.04-.08.12-.13.26-.16.1-.03.2-.04.3-.04Z" fill="#fff"/><path d="M5.76 7.81c0 .02 0 .03.05.03l-.09.11V8c.08.07.16.1.26.12l.02.01c0 .05.02.1.06.14v.03a.28.28 0 0 1-.24.07v.03h.15l.13.1c-.02.04-.06.05-.13.04H5.9a1.34 1.34 0 0 1-.3-.07.31.31 0 0 1-.19-.2c-.02-.08 0-.09.05-.03.06.05.12.1.19.12l.02-.01v-.01a.48.48 0 0 1-.18-.2c.02-.06.02-.1-.03-.1 0-.03.03-.06.1-.08a.72.72 0 0 0 .2-.15Z" fill="#B4B3B2"/><path d="M10.04 8.2c.2.28.3.58.26.91-.06.1-.1.21-.14.32-.02.09-.12.2-.28.33-.3.26-.66.4-1.07.39a.06.06 0 0 0-.07.04l-.14.4c-.05-.04-.06-.1-.04-.18a32.14 32.14 0 0 1 .02-.14 6.96 6.96 0 0 1 0-.73c.01-.5.01-1.03-.01-1.6 0-.03.02-.04.05-.05a2.67 2.67 0 0 1 1.24.22l.08.04c.02 0 .03.01.04.03.02.02.04.03.06.02Z" fill="#056EF7"/><path d="M12.61 8.04a.43.43 0 0 0-.08.12c0 .02-.02.03-.03.01a.32.32 0 0 0-.25-.05h-.05c-.03-.02-.04-.05-.03-.09a.3.3 0 0 1 .13.02h.04a.63.63 0 0 0 .17-.1.05.05 0 0 1 .04-.02c.02 0 .03.02.04.03l.02.08Z" fill="#522531"/><path d="M8.76 9.86V8.08c0-.01 0-.02.02-.03.41-.06.72.07.93.37.1.14.15.3.16.5.02.2-.02.37-.1.52-.19.36-.5.52-.93.48h-.03c-.02 0-.04-.02-.05-.06Z" fill="#010203"/><path d="M12.65 8.57c-.04.08-.1.05-.14-.1.04-.08.05-.14.04-.17a.08.08 0 0 1 .01-.09.43.43 0 0 0 .07-.11l.04-.03c.02 0 .03.01.04.03.06.13.08.27.07.4 0 .04-.02.04-.04.01a.35.35 0 0 0-.06-.07c-.07-.06-.09-.05-.05.04l.02.09Z" fill="#522531"/><path d="M9.53 8.4c.07.08.13.19.16.31a.93.93 0 0 1-.08.7c-.06.1-.14.19-.24.25a.8.8 0 0 1-.44.12c-.01 0-.02-.01-.02-.03l-.02-1.49c0-.02.01-.03.03-.03a.8.8 0 0 1 .33 0 .5.5 0 0 1 .28.16Z" fill="#1E243C"/><path d="M12.5 8.47c.06.15.1.18.15.1.04.08.03.18-.02.28 0 .02-.01.03-.02.03l-.05-.01V8.8c0-.02-.02-.02-.02 0-.03.06-.12.14-.28.23a2.45 2.45 0 0 1-.3.15c-.08.03-.22.04-.41.04-.05 0-.07-.03-.09-.08-.01-.06 0-.12.06-.2.03-.04.08-.1.15-.15.02-.02.02-.03 0-.04a.68.68 0 0 0-.06-.02.32.32 0 0 1-.12-.06c-.05-.06-.05-.12.01-.2.05-.05.1-.09.14-.1.11-.03.23-.06.34-.12a.31.31 0 0 1 .19-.04c.15.03.26.1.34.25Z" fill="#413347"/><path d="M6.43 8.5c-.16-.03-.27.05-.33.23 0-.13.08-.26.23-.4 0-.03.02-.04.06-.02.01 0 .02.01.01.03-.02.09 0 .14.03.16Z" fill="#B4B3B2"/><path d="m6.29 8.31-.19.2-.13-.11.08-.07a.08.08 0 0 1 .04-.01h.2Z" fill="#fff"/><path d="m6.29 8.31.04.01c-.15.15-.23.28-.23.41l-.04.3c0-.1-.01-.17-.05-.23l.03-.16-.01-.04a.19.19 0 0 0-.11-.02c.04 0 .06 0 .05-.04.07.01.11 0 .13-.04l.19-.19Z" fill="#696868"/><path d="m4.88 8.37.17.33v.03c0 .01 0 .02-.02.02H5l-.2-.36c0-.01 0-.03.02-.03.01-.01.03 0 .06.01Z" fill="#B4B3B2"/><path d="m4.88 8.37.35.07.36.25-.6.07a.2.2 0 0 0 .04 0 .03.03 0 0 0 .02-.06l-.17-.33Z" fill="#E95D43"/><path d="M5.23 8.44c.18 0 .36.04.52.13a.1.1 0 0 0 .05.01h.1v.02a.05.05 0 0 0-.02.04l-.01.13c-.03.01-.05 0-.06-.01-.02-.02-.01-.04 0-.06.02-.01.02-.03 0-.04l-.03-.04h-.02v.04l-.05.02-.12.01-.36-.25Z" fill="#522531"/><path d="M6.71 9.57c.02-.07 0-.1-.07-.11l-.01-.04c.1-.03.14-.1.13-.2a.07.07 0 0 0-.03-.06.06.06 0 0 0-.05-.01l-.17.03a.05.05 0 0 0-.05.03.26.26 0 0 0 0 .24c.02 0 .02 0 .01.02l-.04.07c-.03.05-.07.06-.11.02a.58.58 0 0 1-.26-.53l.04-.3c.06-.18.17-.26.33-.23.14.02.27 0 .4-.04l.06.01c.11.12.17.25.16.4 0 .07-.03.12-.08.16a.46.46 0 0 1-.17.05l-.01.02v.01c.08.01.14 0 .2-.03.03-.02.05 0 .05.04a.4.4 0 0 1-.1.25.23.23 0 0 1-.1.05.44.44 0 0 0-.07.02c-.03.02-.03.02 0 .03l.1-.01c.04 0 .04 0 .03.03-.04.07-.1.1-.19.08Z" fill="#fff"/><path d="M5.92 8.58c.04 0 .08 0 .1.02.02.01.03.02.02.04l-.03.16c-.05.03-.1.02-.14-.03v-.13l.02-.04.02-.02Z" fill="#E95D43"/><path d="M8.54 11.33c-.04.04-.08.06-.1.05l.4-.94c0-.02.01-.03.03-.03.25 0 .47-.05.69-.14.2-.1.38-.22.52-.38.15-.17.24-.36.29-.58.05-.22.04-.46-.03-.71h.04c.02 0 .03 0 .03.02.08.17.11.36.09.57a1.48 1.48 0 0 1-.5.96 1.84 1.84 0 0 1-1 .44.13.13 0 0 0-.1.07l-.36.67Z" fill="#F9DDBF"/><path d="M3.97 11.5a5.64 5.64 0 0 0 4.58 3.1l.14.03H9a2.93 2.93 0 0 1 .36.01 5.5 5.5 0 0 0 5.27-5.92 1.83 1.83 0 0 1 .03-.07l.03-.01c.01 0 .02 0 .02.02a5.15 5.15 0 0 1-.65 3.21c-.4.7-.9 1.27-1.52 1.75-.63.48-1.32.82-2.08 1a6.16 6.16 0 0 1-2.97-.03 5.83 5.83 0 0 1-2.8-1.71 3.07 3.07 0 0 1-.39-.52c-.12-.2-.24-.45-.36-.73-.03-.07-.02-.1.04-.13Z" fill="#0EACEB"/><path d="M4.85 9.64c0-.03 0-.08.02-.14a.62.62 0 0 0 .02-.07.6.6 0 0 1 .07-.2v-.04a.04.04 0 0 0-.02-.02l-.42-.19c-.02 0-.02-.02 0-.03l.15-.1.55-.09h.33a.4.4 0 0 0 .11-.01l.07-.01c.01 0 .02 0 .02.02v.09c0 .02 0 .02-.03.02l-.03-.02a.18.18 0 0 0-.07-.02c-.13 0-.25.03-.37.08v.01l.09-.01.2-.03c.08 0 .14.02.18.06h.03c.03-.02.05-.05.05-.1h.02l.15.03c.03 0 .04.02.04.05v.16c0 .02 0 .03-.02.04h-.03a.5.5 0 0 1-.22-.14.04.04 0 0 0-.04-.02c-.1.02-.22.05-.32.11 0 .01 0 .02.01.01l.22-.06c.11-.03.13 0 .05.08l-.71.69a.05.05 0 0 1-.05 0 .04.04 0 0 1-.03-.03l-.02-.12Z" fill="#E95D43"/><path d="m6.73 9.05-.19.03-.06-.01A.08.08 0 0 1 6.45 9v-.16c0-.02.02-.03.03-.05a.08.08 0 0 1 .05-.02l.2-.02c.03 0 .05 0 .07.02.02.02.02.05.02.07l-.03.14c0 .04-.02.06-.06.07Z" fill="#2E3144"/><path d="M6.77 8.87c0 .12-.08.17-.2.15A.07.07 0 0 1 6.51 9a.07.07 0 0 1-.02-.05c0-.06.03-.1.07-.12a.38.38 0 0 1 .13-.03c.05 0 .07.02.07.07Z" fill="#E95D43"/><path d="m4.67 8.86-.15.1c-.02 0-.02.01 0 .02l.42.19c.01 0 .02 0 .02.02v.03a.6.6 0 0 0-.07.2c0 .02 0 .05-.02.08a.4.4 0 0 0-.02.14.7.7 0 0 1 .02-.41c0-.02 0-.03-.02-.04a1.18 1.18 0 0 1-.42-.22v-.03a.43.43 0 0 1 .24-.08Z" fill="#B4B3B2"/><path d="M12.1 9.47a.3.3 0 0 1-.15-.05c-.04-.03-.05-.07-.03-.13l.52-.3.04-.02c.08.01.14.05.2.13v.04c-.08.1-.14.17-.18.18l-.4.15Z" fill="#413347"/><path d="M10.3 9.11c-.04.47-.26.8-.64 1.02-.25.13-.53.2-.84.2-.02 0-.03 0-.03.02l-.13.29a.1.1 0 0 1-.04 0c-.01 0-.02 0-.02-.02v-.02l.14-.4a.06.06 0 0 1 .07-.05c.41 0 .77-.13 1.07-.39.16-.13.26-.24.28-.33.03-.1.08-.21.14-.32Z" fill="#0EACEB"/><path d="m5.9 9.18-.18.13c0-.07 0-.13.04-.18 0-.02.02-.03.03-.02.06 0 .1.03.12.07Z" fill="#9B6930"/><path d="M6.63 9.42a.2.2 0 0 0-.16.03.26.26 0 0 1 0-.24c0-.02.02-.03.04-.03l.17-.03.05.01c.02.02.03.03.03.05 0 .1-.04.18-.13.21Z" fill="#1E243C"/><path d="M5.9 9.18H6l.02.04a.8.8 0 0 0 .35.43l.02.04c0 .04 0 .05-.02.05-.02-.01-.04 0-.05.01-.11.14-.25.24-.4.3a.66.66 0 0 1-.3-.22c0-.17.03-.34.1-.52l.19-.13Z" fill="#FFA001"/><path d="m6.54 9.23.1-.03c.03 0 .04 0 .06.02.01.01.02.03.01.05l-.02.06c0 .02-.01.03-.03.04l-.11.02-.05-.01a.05.05 0 0 1-.02-.05l.02-.07c0-.02.02-.03.04-.03Z" fill="#E95D43"/><path d="M11.92 9.29c-.02.06-.01.1.03.13-.06.32-.14.63-.26.93-.16.43-.42.78-.78 1.04a2.65 2.65 0 0 1-1.59.49 10.7 10.7 0 0 1-.73-.02H6.54c-.06 0-.1.04-.11.1a.3.3 0 0 1-.12 0c-.02 0-.02-.01-.02-.03l-.02-1.54c0-.05.02-.1.06-.17a1.8 1.8 0 0 1 .15-.2.28.28 0 0 0 .06-.13.5.5 0 0 0 0-.14l.01-.05a.06.06 0 0 1 .04-.02l.16-.03c.04-.01.05 0 .06.04v.27c0 .05-.01.1-.05.17l-.1.16-.07.1a.25.25 0 0 0-.04.14v1.05l.03.06.06.02a434.85 434.85 0 0 0 2.75-.02c.7.02 1.3-.25 1.76-.8.18-.2.32-.45.42-.71.1-.23.16-.5.22-.82 0-.01 0-.03.02-.03.04-.02.07-.01.11 0Z" fill="#056EF7"/><path d="M4.63 9.96c-.02.02-.02.04 0 .07l.3.38c.11.12.28.22.5.3.02 0 .02.02.02.03v.19l-.03.01a1 1 0 0 1-.49-.12c-.16-.1-.29-.2-.37-.31a1.06 1.06 0 0 1-.26-.65.48.48 0 0 1 .2-.44c.07-.05.09-.04.05.04-.08.17-.06.34.08.5Z" fill="#FFA001"/><path d="M11.95 9.42c.05.03.1.04.15.05a3.48 3.48 0 0 1-.62 1.51 2.7 2.7 0 0 1-1.31.94c-.18.06-.36.08-.55.09a70.07 70.07 0 0 1-3.2-.04c.02-.07.06-.1.12-.1a197.66 197.66 0 0 1 3.14-.02c.48-.06.89-.21 1.23-.46.36-.26.62-.6.78-1.04.12-.3.2-.61.26-.93Z" fill="#0EACEB"/><path d="M12.33 9.66c.04.07.07.14.07.2a12.54 12.54 0 0 0 0 .35c-.03.04-.05.05-.06.02a.98.98 0 0 1-.05-.22l-.02-.02-.02.01v.01l-.02.48c0 .07-.02.08-.06.02a.83.83 0 0 0-.11-.14.03.03 0 0 1-.01-.04c.1-.27.17-.54.18-.82 0-.03.01-.05.04-.06l.1-.03c.05-.01.07 0 .06.05 0 .09.01.18.05.27.02.02.01.04-.02.05-.03.01-.05 0-.05-.02a.26.26 0 0 0-.07-.12c-.02-.02-.02-.02 0 0Z" fill="#522531"/><path d="M7 9.42v.6a.58.58 0 0 1-.19.34.6.6 0 0 1-.19.2l.27-.5.01-.05a.93.93 0 0 1 .1-.59Z" fill="#F9DDBF"/><path d="M6.71 9.57c-.06.05-.11.07-.15.06-.11-.02-.12-.06-.02-.1.05-.04.11-.02.17.04Z" fill="#E95D43"/><path d="M6.12 11.11c.03.18-.05.22-.24.11a.33.33 0 0 1-.15-.13 1.15 1.15 0 0 1-.08-.65 8 8 0 0 1 .03-.28c.1.01.22-.02.36-.1.11-.06.22-.14.32-.23h.04c.01 0 .02.01.02.03v.03l-.25.33a.23.23 0 0 0-.05.14v.75Z" fill="#FFE889"/><path d="M5.63 9.83c.1.12.19.2.29.23-.07.05-.13.06-.18.04-.05-.01-.08-.05-.1-.1a.75.75 0 0 1-.01-.17Z" fill="#F9DDBF"/><path d="M4.3 9.86c.02.27.1.48.26.65.08.1.21.2.37.31.1.07.27.11.5.12h.02v-.2c0-.01 0-.02-.02-.03a1.14 1.14 0 0 1-.5-.3l-.3-.38c-.02-.03-.02-.05 0-.07.2.3.46.48.8.53.03 0 .04.01.05.02h.03l.03-.01a4.87 4.87 0 0 0 .12-.35h.02l-.03.29c-.03.27 0 .49.08.65.03.05.08.1.15.13.19.1.27.07.24-.1l.02.24c0 .02 0 .03-.03.04a.4.4 0 0 1-.27-.04.54.54 0 0 1-.21-.18c-.01-.01-.03-.02-.04 0l-.05.02a.42.42 0 0 0-.07-.2.04.04 0 0 0-.04-.02.92.92 0 0 1-.64-.19c-.26-.18-.43-.4-.53-.63 0-.02-.01-.02-.02 0v.02a.5.5 0 0 1-.03-.13c-.01-.09.02-.15.1-.19Z" fill="#9B6930"/><path d="M14.54 10.03v.06c-.09.61-.3 1.2-.61 1.76a5.54 5.54 0 0 1-4.65 2.78 5.53 5.53 0 0 0 4.99-3.69 5.72 5.72 0 0 0 .27-.91Z" fill="#056EF7"/><path d="M5.54 11.2c-.15.09-.3.14-.48.15a.7.7 0 0 1-.47-.12c-.02-.02-.02-.03 0-.03.09 0 .17-.02.25-.07.05-.03.05-.05-.01-.06a.75.75 0 0 1-.56-.33c-.04-.05-.03-.06.03-.03s.13.03.2.02c.03 0 .03-.02 0-.03a.45.45 0 0 1-.18-.23 1.71 1.71 0 0 1-.09-.3l.01-.01c0-.02.02-.02.02 0 .1.24.27.45.53.63.2.15.41.21.64.2.01-.01.03 0 .04.01.04.06.06.13.07.2Z" fill="#FFE889"/><path d="M6.81 10.36a5.38 5.38 0 0 1 .06.98c.01.02.03.03.05.03l1.37.03c-.01.07 0 .1.06.1h.04a.06.06 0 0 0 .03-.05c0-.02 0-.05.02-.07.02.01.06 0 .1-.05v.03a4.36 4.36 0 0 0 2.16-.3l.05.03c-.43.32-.89.48-1.38.47-.9 0-1.8 0-2.7.02-.02 0-.04-.01-.04-.04v-.97a.6.6 0 0 0 .18-.2Z" fill="#FC8D01"/><path d="M12.15 11.33a.53.53 0 0 1-.21-.16c-.04-.06-.06-.05-.06.02v.23c0 .02-.01.02-.03 0a.52.52 0 0 1-.15-.18.04.04 0 0 0-.04-.02c-.02 0-.03 0-.04.02a1.12 1.12 0 0 1-.12.2h-.02c-.02 0-.03-.01-.03-.03l-.01-.07c.06-.15.16-.28.28-.39a.24.24 0 0 1 .1-.05c.1-.03.16-.07.18-.11v-.03l-.03-.01h-.05c-.02 0-.02 0-.02-.02v-.08c0-.02.02-.03.03-.03.08 0 .14.04.16.12.03.1.07.19.13.26.04.05.03.07-.03.05a.43.43 0 0 1-.1-.05c-.02 0-.03 0-.03.02.02.08.06.17.13.26v.03l-.04.02Z" fill="#522531"/><path d="M12.15 11.33c.1.03.16.1.16.19.03.11.05.23.06.34 0 .04.02.07.05.09v.04a.96.96 0 0 1-.57.07.07.07 0 0 1-.04-.03.07.07 0 0 1-.02-.05l.01-.19c0-.06-.01-.07-.05-.01a.41.41 0 0 0-.05.14c-.02.08-.08.12-.2.11a.58.58 0 0 1-.14-.03.57.57 0 0 1-.1-.04.04.04 0 0 1-.03-.04l.01-.38c.01-.11.08-.18.2-.2l.01.07c0 .02.01.03.03.03h.02l.02-.02.1-.18.04-.02c.02 0 .03 0 .04.02.03.08.09.14.15.19.02.01.03 0 .03-.01v-.23c0-.07.02-.08.06-.02.05.06.12.11.21.16Z" fill="#1F1D20"/><path d="M5.6 11.54c.01.02.05.01.1-.02.02-.01.03 0 .03.01l-.01.03c-.07.05-.12.1-.17.17a.2.2 0 0 0-.05.12v.1c0 .03 0 .04.02.04a.3.3 0 0 0 .22-.05.3.3 0 0 0 .11-.07h.04v.08l.04.13c0 .07.04.08.15.04a.1.1 0 0 1 .05 0l.28.02c.83 0 1.73 0 2.7.02.44 0 .77-.01.98-.06.39-.1.74-.27 1.06-.55.03-.03.06-.04.1-.01l-.02.38.02.04.11.04.14.03c.12.01.18-.03.2-.11l.05-.14c.04-.06.05-.05.05.01v.19a.07.07 0 0 0 .05.08c.2.03.38 0 .56-.07l.01-.02v-.02a.13.13 0 0 1-.05-.09 4 4 0 0 0-.06-.34l.03-.11c0-.02.01-.03.03-.04a.47.47 0 0 1 .18 0c.18.03.32.06.4.09.16.05.27.14.32.25v.04c-.04.13-.16.23-.37.32a4.68 4.68 0 0 1-1.9.3c0 .02 0 .02.02.03.16.03.28.1.34.2v.05c-.05.12-.25.23-.61.3a17.2 17.2 0 0 1-4.73-.05c-.36-.08-.58-.18-.65-.3a.05.05 0 0 1 0-.05c.03-.07.1-.12.2-.17l.27-.08.01-.02v-.02c-.5-.04-.85-.15-1.02-.31a.07.07 0 0 1-.02-.05c0-.13.16-.24.48-.32a.33.33 0 0 1 .23 0c.02.02.03.01.04 0l.04-.04Z" fill="#2E3144"/><path d="M5.84 11.45c-.02-.02-.04 0-.06.04v.04l.1.15c-.04.01-.04.04-.02.07.02.03.03.03.05.03l-.01.17-.01-.07c-.01-.02-.02-.02-.04 0a.3.3 0 0 1-.11.06c.04-.1.05-.2.04-.3 0-.02-.03-.05-.06-.08v-.03c0-.02 0-.02-.02-.01-.05.03-.09.04-.1.02l.1-.12c.05-.03.1-.02.14.03Z" fill="#B4B3B2"/><path d="M5.84 11.45c.24-.02.34.03.3.13-.1 0-.17.03-.22.1h-.04l-.1-.15a.05.05 0 0 1 0-.04c.02-.04.04-.06.06-.04Z" fill="#FFE889"/><path d="m5.72 11.56.06.08c.01.1 0 .2-.04.3a.3.3 0 0 1-.22.05c-.02 0-.03-.01-.02-.03v-.11a.2.2 0 0 1 .05-.12c.05-.06.1-.12.17-.17ZM6.1 11.66c.02.05.02.1.01.13l-.04.22c-.04.06-.09.08-.14.07l-.03-.13.01-.17a.68.68 0 0 1 .1-.11c.03-.03.06-.03.09-.01Z" fill="#fff"/><defs><linearGradient id="av0nvj4vk" x1="3.35" y1="3.12" x2="21.9" y2="24.43" gradientUnits="userSpaceOnUse"><stop stop-color="#1A1E21"/><stop offset="1" stop-color="#06060A"/></linearGradient></defs></svg>