<!-- by TradingView --><svg width="18" height="18" viewBox="0 0 18 18" xmlns="http://www.w3.org/2000/svg"><path fill="#F0F3FA" d="M0 0h18v18H0z"/><path d="M14.73 9A5.73 5.73 0 1 1 3.27 9a5.73 5.73 0 0 1 11.46 0Z" fill="url(#auzozsdij)"/><path d="M13.84 9a4.84 4.84 0 1 1-9.68 0 4.84 4.84 0 0 1 9.68 0Z" fill="url(#buzozsdij)"/><path fill-rule="evenodd" d="M9 15A6 6 0 1 0 9 3a6 6 0 0 0 0 12Zm0-.35a5.65 5.65 0 1 0 0-11.3 5.65 5.65 0 0 0 0 11.3Z" fill="#A04500"/><path fill-rule="evenodd" d="M9 14A5 5 0 1 0 9 4a5 5 0 0 0 0 10Zm0-.24a4.76 4.76 0 1 0 0-9.52 4.76 4.76 0 0 0 0 9.52Z" fill="#FFF343"/><path d="M12.18 10.95c0 .68-1.43 1.23-3.18 1.23-1.75 0-3.18-.55-3.18-1.23 0-.67 1.43-1.22 3.18-1.22 1.75 0 3.18.55 3.18 1.22Z" fill="#038D7B"/><path d="M12.18 10.58c0 .67-1.43 1.22-3.18 1.22-1.75 0-3.18-.55-3.18-1.22 0-.68 1.43-1.23 3.18-1.23 1.75 0 3.18.55 3.18 1.23Z" fill="#06A28A"/><path fill-rule="evenodd" d="M11.67 10.78c.1-.1.12-.17.12-.2 0-.04-.01-.1-.12-.2-.12-.11-.3-.22-.56-.32A6.1 6.1 0 0 0 9 9.72a6.1 6.1 0 0 0-2.1.34c-.27.1-.45.2-.57.31-.1.1-.12.17-.12.2 0 .04.01.1.12.21.12.1.3.22.56.32.52.2 1.27.33 2.11.33a6.1 6.1 0 0 0 2.1-.33c.27-.1.45-.21.57-.32ZM9 11.8c1.75 0 3.18-.55 3.18-1.22 0-.68-1.43-1.23-3.18-1.23-1.75 0-3.18.55-3.18 1.23 0 .67 1.43 1.22 3.18 1.22Z" fill="#00786D"/><path d="M8.12 10.24V8.76l1.76-.11v1.6c-.09.17-.4.51-.93.51s-.77-.34-.83-.52Z" fill="#404040"/><path d="M10.76 7.23a1.76 1.76 0 1 1-3.52 0 1.76 1.76 0 0 1 3.52 0Z" fill="#F95D75"/><path fill-rule="evenodd" d="M9 8.7a1.46 1.46 0 1 0 0-2.93A1.46 1.46 0 0 0 9 8.7ZM9 9a1.76 1.76 0 1 0 0-3.53A1.76 1.76 0 0 0 9 9Z" fill="#AD3053"/><path d="M9.03 6.82a.47.47 0 1 1-.94 0 .47.47 0 0 1 .94 0Z" fill="#FFB4C6"/><path opacity=".3" d="m10.93 4.67-6.21 6.35c0 .32.58 1 .87 1.3l6.65-6.7a6.03 6.03 0 0 0-1.31-.95ZM6.85 13.33a6.2 6.2 0 0 1-.86-.66l6.69-6.6c.25.2.55.64.67.84l-6.5 6.42Z" fill="#fff"/><path fill-rule="evenodd" d="M9 13.76a4.76 4.76 0 1 0 0-9.52 4.76 4.76 0 0 0 0 9.52Zm0-.17A4.59 4.59 0 1 0 9 4.4a4.59 4.59 0 0 0 0 9.18Z" fill="#E1830B"/><defs><linearGradient id="auzozsdij" x1="9" y1="3.27" x2="9" y2="14.73" gradientUnits="userSpaceOnUse"><stop offset=".94" stop-color="#FACE2E"/><stop offset="1" stop-color="#FEF249"/></linearGradient><linearGradient id="buzozsdij" x1="9" y1="4.16" x2="9" y2="13.84" gradientUnits="userSpaceOnUse"><stop stop-color="#EDA31D"/><stop offset="1" stop-color="#EDA31D" stop-opacity="0"/></linearGradient></defs></svg>