<!-- by TradingView --><svg width="18" height="18" viewBox="0 0 18 18" xmlns="http://www.w3.org/2000/svg"><path fill="#F0F3FA" d="M0 0h18v18H0z"/><path d="M9.18 13.38a4.36 4.36 0 0 0 4.08-2.83c.27-.03.52-.12.74-.26a4.99 4.99 0 0 1-8.95 1.5.3.3 0 0 1 .15-.44h.01c.14-.05.3 0 .38.13a4.35 4.35 0 0 0 3.6 1.9ZM5.23 6.48c.14.1.34.06.45-.08a4.35 4.35 0 0 1 7.45.73c.27 0 .53.07.75.2a4.99 4.99 0 0 0-8.73-1.27.3.3 0 0 0 .08.42Z" fill="#262859"/><path d="M4.73 10c.02 0 .03-.01.04-.03l.68-1.48a.05.05 0 0 1 .1 0l.68 1.48c0 .02.02.03.04.03h.18c.04 0 .06-.05.04-.08l-.86-1.89A.05.05 0 0 0 5.58 8h-.16a.05.05 0 0 0-.05.03l-.86 1.89c-.02.03 0 .08.04.08h.18ZM8.33 8H7.07c-.04 0-.07.03-.07.06v1.88c0 .03.03.06.07.06h.2c.03 0 .06-.03.06-.06V8.3h1c.17 0 .34.16.34.28 0 .2-.12.29-.34.29h-.45c-.04 0-.06.02-.06.05v.21l.01.04.79.82.05.02h.26c.06 0 .09-.06.06-.1l-.7-.76c.4 0 .71-.22.71-.57 0-.3-.33-.57-.67-.57ZM9.75 10c-.04 0-.06-.03-.06-.06V8.06c0-.03.02-.06.06-.06h.19c.03 0 .06.03.06.06v1.88c0 .03-.03.06-.06.06h-.2Z" fill="#202451"/><path fill-rule="evenodd" d="M13 9.71a.71.71 0 1 0 0-1.42.71.71 0 0 0 0 1.42Zm0 .29a1 1 0 1 0 0-2 1 1 0 0 0 0 2Z" fill="#FFB133"/><path d="m11.31 8-.62.29v.28l.31-.14V10h.31V8Z" fill="#FFB133"/><path fill-rule="evenodd" d="M14.52 8.37a.47.47 0 0 1-.46-.46c0-.26.2-.47.47-.47.26 0 .47.2.47.47 0 .26-.39.6-.57.83l-.12-.1.2-.27Zm0-.15a.31.31 0 0 1-.3-.31c0-.18.13-.32.3-.32.18 0 .32.14.32.32 0 .15-.15.3-.31.3Z" fill="#FFB133"/></svg>