<!-- by TradingView --><svg width="18" height="18" viewBox="0 0 18 18" xmlns="http://www.w3.org/2000/svg"><path fill="url(#a)" d="M0 0h18v18H0z"/><path fill-rule="evenodd" d="M9.62 4.07a1.65 1.65 0 0 1 1.24 1.39 2.4 2.4 0 0 1-.5 1.83c-.2.26-.45.46-.74.6-.36.16-.73.15-1.11-.03-.4-.2-.71-.53-.94-.97a2.2 2.2 0 0 1-.27-1.36c.11-.71.53-1.26 1.24-1.46.35-.1.71-.1 1.08 0Zm.42 2.03c-.12.52-.67 1.44-1.32.96-.5-.42-.8-1.16-.49-1.8a.8.8 0 0 1 .55-.43c.38-.1.82-.03 1.08.3.2.3.25.63.18.97Z" fill="url(#b)"/><path d="M6.38 12.22c-.15 0-.3-.02-.45-.04-.52-.1-1.01-.47-1.1-1.02-.03-.26.01-.5.13-.7.3-.48.75-.71 1.34-.69a2 2 0 0 1 1.17.45h.04l.51-.52a.04.04 0 0 0 0-.06 2.51 2.51 0 0 0-.87-.5c-.32-.1-.62-.16-.9-.16a2.26 2.26 0 0 0-2.04 1.16 1.8 1.8 0 0 0-.01 1.67C4.56 12.6 5.44 13 6.26 13c.32.01.61-.03.88-.13.88-.33 1.55-1 2.23-1.68l.24-.24c.17-.17.4-.37.71-.62.3-.24.63-.42.98-.53.5-.1 1.1 0 1.49.34.44.4.52 1.03.16 1.51-.14.19-.32.33-.54.44a1.85 1.85 0 0 1-1.88-.34h-.01l-.55.55v.04c.53.44 1.14.66 1.84.66.7 0 1.3-.27 1.76-.82a1.85 1.85 0 0 0 .25-2 1.93 1.93 0 0 0-.84-.87 2.68 2.68 0 0 0-2.5-.03c-.7.39-1.32 1-1.88 1.55l-.22.2c-.37.38-.8.75-1.27 1-.23.11-.47.18-.73.19Z" fill="url(#c)"/><defs><linearGradient id="a" x1="3.35" y1="3.12" x2="21.9" y2="24.43" gradientUnits="userSpaceOnUse"><stop stop-color="#1A1E21"/><stop offset="1" stop-color="#06060A"/></linearGradient><linearGradient id="b" x1="4" y1="7.65" x2="14" y2="7.61" gradientUnits="userSpaceOnUse"><stop stop-color="#565EF2"/><stop offset=".61" stop-color="#3C96CA"/><stop offset="1" stop-color="#2AC9A3"/></linearGradient><linearGradient id="c" x1="4" y1="7.65" x2="14" y2="7.61" gradientUnits="userSpaceOnUse"><stop stop-color="#565EF2"/><stop offset=".61" stop-color="#3C96CA"/><stop offset="1" stop-color="#2AC9A3"/></linearGradient></defs></svg>