<!-- by TradingView --><svg width="18" height="18" viewBox="0 0 18 18" xmlns="http://www.w3.org/2000/svg"><path fill="#F0F3FA" d="M0 0h18v18H0z"/><circle cx="9" cy="9" r="6" fill="#C88AA4"/><path d="M15 8.84c-1 .65-2.4 1.4-3.1 1.27-.51-.09-.88-.3-1.25-.5-.43-.26-.84-.5-1.46-.5-.6 0-1.07.28-1.52.55-.4.23-.77.45-1.2.45-.35 0-.75-.25-1.2-.54C4.65 9.2 3.92 8.72 3 8.7c.02-.5.1-.98.25-1.44.62.04 1.28.34 1.87.61.52.24.99.45 1.34.45.6 0 1.07-.28 1.52-.54.4-.23.77-.46 1.2-.46.43 0 .8.27 1.2.55.45.32.92.65 1.51.65.9 0 2.2-.93 2.72-1.4l.12.14c.16.5.24 1.03.26 1.58Zm-1.97-4.29c.35.32.66.68.93 1.08-.84.63-2.1 1.43-2.71 1.3a2.87 2.87 0 0 1-1.03-.47C9.86 6.22 9.52 6 9 6c-.5 0-.88.26-1.25.5-.33.23-.65.44-1 .44-.3 0-.62-.24-1-.5a3.67 3.67 0 0 0-1.7-.82c.21-.32.47-.62.74-.9.59.25 1.4.53 1.96.53.5 0 .89-.26 1.25-.5.33-.23.65-.44 1-.44s.67.25 1 .52c.37.3.76.6 1.25.6.55 0 1.26-.46 1.78-.88Zm1.05 7.64c.36-.57.63-1.2.78-1.9-.4.02-1 .4-1.6.79-.65.4-1.3.81-1.73.81-.6 0-1.07-.33-1.51-.64-.4-.28-.78-.55-1.2-.55-.43 0-.81.22-1.2.46-.45.26-.93.53-1.52.53-.41 0-.9-.24-1.39-.5a3.8 3.8 0 0 0-1.47-.52c.19.66.49 1.28.88 1.83.28.14.53.3.77.45.46.29.85.54 1.2.54.43 0 .81-.23 1.21-.46.44-.26.92-.54 1.51-.54.62 0 1.04.24 1.47.49.36.2.73.42 1.25.5.45.09 1.14-.37 1.85-.84l.7-.45Z" fill="#9F145F"/><path d="M5.96 11.06c.15-.9.43-1.62.55-1.87l-.91.37V9l-.19-.19c-.3 0-.98.13-1.29.19.19-.94 1.3-2.06 2.03-2.06.59 0 1.1.12 1.28.18.13-.12.48-.37.92-.37.44 0 .92.38 1.1.56h.37c.74 0 1.29.75 1.47 1.13.31.06 1 .22 1.3.37.36.19.91 0 .91.38 0 .3-.25.5-.37.56 0 .13-.14.49-.73.94-.74.56-1.84.19-2.2.19-.38 0 .18 2.43.18 2.8 0 .3-.13.38-.19.38-.3.06-1.18.19-2.2.19a2.72 2.72 0 0 1-2.03-.94 7.9 7.9 0 0 1 0-2.25Z"/><path d="M9.4 7.41a.44.44 0 0 0-.2-.01c-.03-.03-.05-.04-.07-.01-.17-.02-.33-.01-.5.02-.14.03-.22-.01-.35-.05-.18-.06-.4-.06-.63-.01-.04 0-.07 0-.09-.04.32-.15.64-.16.98-.19a.06.06 0 0 0 .05-.03.06.06 0 0 0-.02-.08h-.02a1.48 1.48 0 0 0-.4-.04c.42-.07.74.04 1.12.24.1.06.15.12.12.2Z" fill="#F7AA00"/><path d="M8.15 6.97a1.48 1.48 0 0 1 .42.04l.02.02a.06.06 0 0 1-.02.08l-.03.01c-.34.03-.66.04-.98.19-.04-.01-.07-.03-.09-.05-.01-.02 0-.03.01-.04.2-.12.43-.2.67-.25Z" fill="#FFFFFE"/><path d="m7.24 7.32.11.1a.04.04 0 0 1 .01.03.04.04 0 0 1-.01.03c-.1.1-.2.08-.32.06a4.57 4.57 0 0 0-1.15 0l-.1-.33c.46-.15.95-.12 1.46.1Z" fill="#F4D603"/><path d="m5.79 7.21.1.34c-.27.03-.49.1-.66.17l-.32.12a.97.97 0 0 1 .2-.2c.2-.15.43-.29.68-.43Z" fill="#F3FAA2"/><path d="M8.86 7.46c.4.07.75.23 1.04.46.25.2.5.43.72.66.11.11.22.2.33.25.3.15.63.24.97.27-.19.2.04.59.17.77l-.16-.16a.05.05 0 0 0-.04-.02l-.54.1c0-.07-.02-.1-.07-.1s-.07.03-.06.09l-.15-.01c-.02-.06-.05-.08-.1-.07a.05.05 0 0 0-.04.04v.05l-1.06-.25-.05.01a.33.33 0 0 0-.2.3.71.71 0 0 1-.22-.15c-.06-.05-.05-.07.02-.06l.16.02c.04.01.04 0 .01-.03-.25-.2-.62-.12-.69.23l.05.06c-.16.28-.39.32-.68.1l-.5-.56a.06.06 0 0 0-.05-.02l-.04.01-.02.02v.02l-.01.07c-.08-.19-.11-.37-.11-.55 0-.06-.02-.07-.06-.02a.2.2 0 0 0-.03.2.83.83 0 0 0 0 .58c.07.56.32 1.03.76 1.4v.03a.68.68 0 0 0-.03.22.1.1 0 0 1-.01.05c-.11.2-.03.72.01.94.07.47.27.87.58 1.2.1.1.34.28.68.52a4.4 4.4 0 0 1-2.17-.19 4.9 4.9 0 0 1-.33-1.41c0-.02-.02-.03-.03-.02a.91.91 0 0 0-.35.44l-.22.56a.67.67 0 0 1-.18-.13.36.36 0 0 1-.09-.2L6 12.71c.04 0 .06.03.08.06a.12.12 0 0 0 .1.06.11.11 0 0 0 .1-.06.4.4 0 0 0 .04-.2c-.03-1.11.12-2.2.45-3.27.02-.06 0-.1-.04-.1a5.5 5.5 0 0 1 .17-.07l-.02-.01c-.19 0-.41-.02-.66-.05-.34-.05-.62-.2-.82-.47.22-.12.38-.08.63-.03.02 0 .04 0 .05-.02l.17-.18.2-.14c-.03.09-.1.18-.2.26.12.24.34.32.59.37.2.02.37 0 .5-.04.13-.05.18-.15.15-.3a2.3 2.3 0 0 0-.08-.26 2.26 2.26 0 0 0-1.05-.52c-.2-.03-.43-.03-.67.03-.3-.04-.89.26-1.04.51 0 .02 0 .04.02.06.04.02.06.07.06.14l-.2.15v.02h.02a3.4 3.4 0 0 0 .57-.3.03.03 0 0 1 .01.02.9.9 0 0 0 .17.34v.01h-.02c-.36 0-.63-.02-.95.2-.05.03-.07.02-.04-.04.14-.39.35-.74.63-1.04l.32-.12c.17-.08.4-.14.65-.17.38-.05.76-.05 1.15 0 .12 0 .21.02.32-.07a.04.04 0 0 0 .01-.03.04.04 0 0 0-.01-.03l-.1-.1a1.38 1.38 0 0 1 .58.42.04.04 0 0 1-.02.04.27.27 0 0 0-.07.1c-.03.07-.02.08.04.05l.46-.26c.21-.12.42-.2.62-.21Z" fill="#F7AA00"/><path d="m9.4 7.41.04.01c.25.13.46.32.72.43.24.1.52.18.76.32l.23.12.14.3.04.03a103.76 103.76 0 0 0 1.23.27c.05 0 .05.01 0 .02-.2.04-.47.05-.64.19a2.74 2.74 0 0 1-.97-.27c-.1-.06-.22-.14-.32-.25a8.72 8.72 0 0 0-.73-.66 2.29 2.29 0 0 0-1.04-.46l.28-.05.05-.01c.07-.01.14-.01.2.01Z" fill="#FFFFFE"/><path d="m8.25 7.5-.24.12a.06.06 0 0 1-.08-.01l-.15-.14a.03.03 0 0 1-.01-.03.03.03 0 0 1 .02-.02.8.8 0 0 1 .46.04c.03.01.03.02 0 .04Z" fill="#FF6C00"/><path d="M11.15 8.29a2.62 2.62 0 0 1-.23-.12c-.24-.14-.52-.22-.77-.32-.25-.11-.46-.3-.71-.43.74-.02 1.3.27 1.7.87Z" fill="#F3FAA2"/><path d="M5.68 7.77c-.29.15-.5.3-.63.43-.13.14-.24.23-.33.28 0-.07-.02-.12-.06-.14-.02-.02-.03-.04-.02-.06.15-.25.73-.55 1.04-.51ZM6.24 8.37l-.17.18a.05.05 0 0 1-.05.02c-.25-.05-.41-.1-.62.03a.81.81 0 0 1-.16-.31c0-.04 0-.07.03-.1.22-.17.44-.3.73-.32.03 0 .03.01 0 .03a.8.8 0 0 0-.33.42v.06c0 .03.02.03.04 0A.88.88 0 0 1 6.7 8c.02 0 .02 0 0 .01a.79.79 0 0 0-.46.36Z" fill="#FF4600"/><path d="M9.65 8.91c-.26.18-.5.14-.72-.12-.1-.2-.09-.36.01-.51.42-.6 1.24.15.7.63Z" fill="#010001"/><path d="M7.4 8.26c.04.09.06.18.08.26.03.15-.02.25-.16.3a1.1 1.1 0 0 1-.49.04l-.59-.37c.1-.08.17-.17.2-.26.2-.1.42-.13.66-.08l.15.06c.05.03.1.04.15.05Z" fill="#FF4600"/><path d="M9.3 8.55c.08 0 .15-.07.15-.16a.15.15 0 0 0-.15-.15.15.15 0 0 0-.15.15c0 .09.06.16.15.16Z" fill="#FFFFFE"/><path d="m6.24 8.49.59.37c-.25-.05-.47-.13-.59-.37Z" fill="#FF6C00"/><path d="M7.65 9.56c.1.25.15.44.38.63.14.1.29.16.43.2.16.05.39.1.67.16-.45.12-.95.02-1.27-.34-.2-.24-.34-.58-.4-1.03A.2.2 0 0 1 7.47 9c.04-.05.06-.04.06.02 0 .18.03.36.1.55Z" fill="#F4D603"/><path d="M13.3 9.1a.18.18 0 0 1-.16.05 4.44 4.44 0 0 0-.47.05l-.67.07c-.02-.08 0-.13.08-.16.36-.14.74-.18 1.12-.1.06 0 .1.03.1.09Z" fill="#FFFFFE"/><path d="M5.87 9.14a.3.3 0 0 0-.05.08c-.02.04-.03.08-.01.12l-.13.1c-.03.04-.04.03-.03-.01l.09-.3c0-.01.02-.03.04-.03.03 0 .06.01.09.04Z" fill="#FF6C00"/><path d="M13.3 9.1c.07.05.1.13.05.22-.35-.02-.7 0-1.03.1h-.31a.26.26 0 0 1-.02-.15c.06.06.14.07.23.03l.18-.02a4.82 4.82 0 0 0 .9-.18Z" fill="#2D5282"/><path d="M5.93 9.19c-.06.06-.1.07-.11.03a.3.3 0 0 1 .05-.08c.01.03.03.04.06.05Z" fill="#630136"/><path d="M13.14 9.15a4.82 4.82 0 0 1-.92.15c-.09.04-.16.03-.22-.03l.67-.07h.02l.01-.01.02-.01.42-.03Z" fill="#C88AA4"/><path d="M6.72 9.2c.05 0 .06.04.04.1a10.34 10.34 0 0 0-.45 3.27.4.4 0 0 1-.04.2.12.12 0 0 1-.1.06.11.11 0 0 1-.1-.06.11.11 0 0 0-.08-.06 7.53 7.53 0 0 1 .6-3.45c.03-.06.07-.07.13-.07Z" fill="#F4D603"/><path d="M13.35 9.32a.24.24 0 0 1-.05.1.06.06 0 0 1-.04.02c-.25 0-.1.5-.47.5-.07 0-.09-.03-.03-.09.24-.25.09-.66-.28-.36-.14.13-.43.18-.47-.07h.31c.34-.1.68-.12 1.03-.1Z" fill="#630136"/><path d="M8.27 10.02a.37.37 0 0 0-.24.17c-.23-.19-.29-.38-.38-.63v-.07a.05.05 0 0 1 .03-.04l.04-.01c.02 0 .03 0 .04.02l.5.56Z" fill="#FA9800"/><path d="M10.93 9.79c0 .04.01.06.06.06.04 0 .07-.03.08-.08h.15c0 .05.02.07.06.07.04 0 .06-.02.07-.06l.54-.09a.05.05 0 0 1 .04.02l.16.16.12.14c-.26.15-.65.2-.93.2a.1.1 0 0 0-.06.02.44.44 0 0 1-.28.05 2.64 2.64 0 0 1-1.32-.44c0-.13.07-.23.2-.29h.05l1.06.24Z" fill="#F4D603"/><path d="M11.07 9.77c-.01.05-.04.07-.08.08-.05 0-.06-.02-.06-.06v-.05c0-.02.02-.04.04-.04.05-.01.08.01.1.07ZM11.35 9.78c0 .04-.03.06-.07.06-.04 0-.06-.02-.06-.06-.01-.06.01-.08.06-.08.04 0 .07.02.07.08Z" fill="#010001"/><path d="M10.44 10.37h-.48a.06.06 0 0 0-.07.05v.03l.03.2-.4-.06c-.03 0-.04-.03-.01-.05l.05-.05v-.04c-.02-.02-.04-.02-.05-.01a1 1 0 0 1-.37.1 9.51 9.51 0 0 1-.68-.15 1.6 1.6 0 0 1-.43-.2.37.37 0 0 1 .24-.17c.3.22.52.18.68-.1.04-.08.1-.15.2-.19h.05c.37.29.79.5 1.24.64Z" fill="#FF6C00"/><path d="m8.78 11-.57.18c-.44-.38-.69-.85-.76-1.41.27.63.71 1.04 1.33 1.23Z" fill="#840F2E"/><path d="m12.21 10 .04.04v.06a.08.08 0 0 1-.05.04 3.1 3.1 0 0 1-1.26.14c.1.02.2 0 .28-.05a.1.1 0 0 1 .05-.02c.3 0 .68-.05.94-.2Z" fill="#F6CB9D"/><path d="M12.6 10.23a1 1 0 0 0-.73.5c-.44.07-.9.08-1.37.03l.22-.33c.5.05 1.2.03 1.65-.25a.06.06 0 0 1 .05-.01l.18.06Z" fill="#F6CB9D"/><path d="M12.6 10.23a.1.1 0 0 1 .05 0c.02.01.03.03.02.05a.74.74 0 0 1-.2.2c-.16.12-.36.2-.6.26a1 1 0 0 1 .73-.51Z" fill="#FFFFFE"/><path d="m10.44 10.37.15.04a.6.6 0 0 0-.46.28l-.22-.04-.02-.2a.07.07 0 0 1 .04-.07h.52Z" fill="#F7AA00"/><path d="m10.6 10.4.12.03-.22.33-.37-.07a.6.6 0 0 1 .46-.28Z" fill="#F1A37F"/><path d="m9.04 11.04-.67.27-.16-.11v-.02l.57-.18.26.04Z" fill="#C4655F"/><path d="M9.96 11.09c-.07.28-.08.59-.06.94a.97.97 0 0 1-.56.05.36.36 0 0 1-.19-.1l-.4-.4a.84.84 0 0 0-.2-.15 1.93 1.93 0 0 1-.18-.12l.67-.27c.34-.01.65 0 .92.05Z" fill="#F1A37F"/><path d="m9.96 11.09.12.04c.02 0 .03.02.03.05-.03.7.05 1.3.06 1.96 0 .02 0 .04-.02.05-.03.04-.09.05-.16.04l-.09-.75a3.03 3.03 0 0 1 0-.45c-.03-.35 0-.66.06-.94Z" fill="#FFFFFE"/><path d="M8.37 11.31c.06.05.12.09.19.12.07.04.13.09.18.14l.41.41c.05.05.11.08.2.1.2.04.38.02.55-.05v.45l.1.75-.61.08c-.02 0-.02 0 0 .02h.02l-.03.06c0 .02.02.03.04.04a2 2 0 0 1 .64.56l-.62.14a5.06 5.06 0 0 1-.68-.53c-.31-.32-.5-.72-.58-1.2-.03-.21-.12-.74-.01-.93a.1.1 0 0 0 .01-.05c0-.08 0-.15.03-.22l.16.11Z" fill="#F6CB9D"/><path d="M7.18 12.01c-.03-.22-.02-.43.02-.65.03-.17.04-.17.05 0a3.02 3.02 0 0 0 .5 1.5 1.97 1.97 0 0 1-.25.31 3.67 3.67 0 0 1-.32-1.16Z" fill="#010001"/><path d="M7.27 13.94a3.4 3.4 0 0 1-.93-.43l.22-.56c.1-.2.2-.36.35-.44.01 0 .02 0 .03.02.04.49.15.96.33 1.41Z" fill="#FA9800"/><path d="M10.06 13.99a2 2 0 0 0-.64-.56l-.04-.04c0-.02 0-.03.03-.05.22.02.44.06.66.1.08.02.12.06.12.12a1 1 0 0 0 0 .06c0 .23-.03.36-.13.37Z" fill="#FFFFFE"/><path fill-rule="evenodd" d="M9 13.88a4.87 4.87 0 1 0 0-9.75 4.87 4.87 0 0 0 0 9.75ZM9 15A6 6 0 1 0 9 3a6 6 0 0 0 0 12Z" fill="#EE2257"/><path fill-rule="evenodd" d="M14.06 9A5.06 5.06 0 1 1 3.94 9a5.06 5.06 0 0 1 10.12 0ZM9 14.81A5.81 5.81 0 1 0 9 3.2 5.81 5.81 0 0 0 9 14.8ZM13.88 9a4.87 4.87 0 1 1-9.75 0 4.87 4.87 0 0 1 9.75 0ZM15 9A6 6 0 1 1 3 9a6 6 0 0 1 12 0Z" fill="#010001"/></svg>