<!-- by TradingView --><svg width="18" height="18" viewBox="0 0 18 18" xmlns="http://www.w3.org/2000/svg"><path fill="#181B1E" d="M0 0h18v18H0z"/><path d="M6.15 6.06c.06-.01.13.02.14.1.07.26.38.79 1.06.79h.28c.18.04.44.13.66.32.23.19.42.47.42.87v1.32c0 .07-.06.13-.12.13a.12.12 0 0 1-.12-.13V8.14c0-.3-.14-.52-.32-.68a1.3 1.3 0 0 0-.55-.26h-.25c-.83 0-1.2-.66-1.29-.99a.12.12 0 0 1 .09-.15ZM12.14 6.06a.13.13 0 0 0-.17.1c-.07.26-.4.79-1.17.79h-.31c-.2.04-.5.13-.74.32-.25.19-.46.47-.46.87v1.32c0 .07.06.13.14.13.07 0 .13-.06.13-.13V8.14c0-.3.15-.52.36-.68.2-.15.44-.23.6-.26h.28c.92 0 1.34-.66 1.43-.99.02-.06-.02-.13-.1-.15Z" fill="#fff"/><path fill-rule="evenodd" d="M9 14A5 5 0 1 0 9 4a5 5 0 0 0 0 10Zm0-.3c2.59 0 4.7-2.11 4.7-4.7 0-2.59-2.11-4.7-4.7-4.7A4.72 4.72 0 0 0 4.3 9c0 2.59 2.11 4.7 4.7 4.7Z" fill="#fff"/><path d="M9 5c1.15 0 2.18.3 2.94 1v.35A3.99 3.99 0 0 0 9 5.3a4 4 0 0 0-2.93 1.04v-.36C6.82 5.3 7.86 5 9 5ZM5.85 5.18c.08 0 .15.05.15.13v7.39c0 .07-.07.12-.15.12-.08 0-.14-.05-.14-.13V5.32c0-.08.06-.13.14-.13ZM6.5 10.89c.08 0 .15.05.15.11v2.1c0 .06-.07.12-.15.12-.08 0-.15-.06-.15-.12V11c0-.06.07-.11.15-.11ZM7.15 11.63c.08 0 .14.05.14.1v1.67c0 .06-.06.11-.14.11-.08 0-.15-.05-.15-.1v-1.67c0-.06.07-.11.15-.11ZM7.85 12.28c-.08 0-.14.05-.14.1v1.22c0 .06.06.1.14.1.08 0 .15-.04.15-.1v-1.21c0-.06-.07-.1-.15-.1ZM11.5 11.06c-.08 0-.15.05-.15.11v1.93c0 .06.07.12.15.12.08 0 .15-.06.15-.12v-1.93c0-.06-.07-.11-.15-.11ZM10.85 11.62c-.08 0-.14.05-.14.1v1.66c0 .06.06.1.14.1.08 0 .15-.04.15-.1v-1.65c0-.06-.07-.11-.15-.11ZM10.15 12.28c.08 0 .14.05.14.1v1.22c0 .06-.06.1-.14.1-.08 0-.15-.04-.15-.1v-1.21c0-.06.07-.1.15-.1ZM9.59 12.15c0 .08-.06.14-.14.14h-.9c-.08 0-.14-.06-.14-.14 0-.08.06-.15.14-.15h.9c.08 0 .14.07.14.15ZM12.15 5.18c.08 0 .14.05.14.13v7.39c0 .07-.06.12-.14.12-.08 0-.15-.05-.15-.12V5.3c0-.07.07-.12.15-.12Z" fill="#fff"/><path d="m7.6 5.18-.36.09C7.64 5.75 8.29 6 9 6a2.3 2.3 0 0 0 1.75-.7l-.36-.1c-.34.34-.84.5-1.39.5-.56 0-1.07-.17-1.42-.52ZM6.74 9.57a1.96 1.96 0 0 1-.98-1.43l.26-.02c.03.29.2.85.87 1.26.05.03.07.1.03.16a.13.13 0 0 1-.18.03ZM11.26 9.57c.73-.45.94-1.09.98-1.43l-.26-.02c-.03.29-.2.85-.87 1.26a.11.11 0 0 0-.03.16c.04.05.12.06.18.03ZM8.82 10.01a.12.12 0 0 0-.1 0l-.65.3c-.06.02-.09.1-.06.15.2.33.56.54.99.54.43 0 .79-.2.99-.54.03-.06 0-.13-.06-.16l-.65-.29a.12.12 0 0 0-.1 0l-.13.06a.12.12 0 0 1-.1 0L8.82 10Zm.23.3.13-.07a.12.12 0 0 1 .1 0l.46.21a.9.9 0 0 1-.74.34.9.9 0 0 1-.74-.34l.46-.2a.12.12 0 0 1 .1 0l.13.05a.12.12 0 0 0 .1 0Z" fill="#fff"/><path fill-rule="evenodd" d="M6.16 7a.16.16 0 0 0-.16.15c0 .47.4.85.9.85h.94c.09 0 .16-.07.16-.15C8 7.38 7.6 7 7.1 7h-.94Zm1.01.27h-.83c0 .25.22.46.49.46h.83a.47.47 0 0 0-.49-.46ZM11.84 7c.09 0 .16.07.16.15 0 .47-.4.85-.9.85h-.94a.16.16 0 0 1-.16-.15c0-.47.4-.85.9-.85h.94Zm-1.01.27h.83c0 .25-.22.46-.49.46h-.83c0-.25.22-.46.49-.46Z" fill="#fff"/><path d="M5.98 9.12A.14.14 0 0 0 5.83 9a.13.13 0 0 0-.12.14c.02.42.24 1.43.9 2.14C7.19 11.91 7.98 13 9 13s1.8-1.09 2.4-1.72c.65-.7.87-1.72.9-2.14a.13.13 0 0 0-.13-.14.14.14 0 0 0-.15.12 3.6 3.6 0 0 1-.83 1.99c-.48.51-1.3 1.63-2.19 1.63-.88 0-1.71-1.12-2.19-1.63a3.6 3.6 0 0 1-.83-1.99ZM5 6.08a.15.15 0 0 1 .2.03l.02.02c.04.04.1.1.14.18.06.09.11.2.11.33 0 .22-.18.4-.25.46l-.81.87a.15.15 0 0 1-.2.02c-.06-.05-.06-.12-.01-.17L5 6.95c.08-.08.19-.19.19-.31a.4.4 0 0 0-.08-.21L5 6.28l-.02-.03c-.05-.05-.04-.13.02-.17Z" fill="#fff"/><path d="M4.92 7.18a.15.15 0 0 1 .2.02l.01.03c.13.14.34.38.34.59 0 .22-.18.39-.25.46l-.98.97a.15.15 0 0 1-.2.02c-.05-.05-.06-.12 0-.17L5 8.13c.08-.08.19-.19.19-.31 0-.15-.2-.34-.28-.44l-.03-.03c-.04-.06-.03-.13.03-.17Z" fill="#fff"/><path d="M4.99 8.3a.12.12 0 0 1 .16.03l.01.02.12.16c.05.08.2.3.2.42 0 .2-.16.35-.22.4v.01l-.76.8a.12.12 0 0 1-.17.01.1.1 0 0 1 0-.15l.75-.8c.07-.06.16-.16.16-.27 0-.07-.12-.25-.16-.32l-.1-.13-.02-.02A.1.1 0 0 1 5 8.3Z" fill="#fff"/><path d="M4.96 9.46a.12.12 0 0 1 .16.02l.02.02.24.31c.05.08.09.18.09.3 0 .2-.15.34-.2.4l-.48.51a.12.12 0 0 1-.16.01.1.1 0 0 1-.01-.15l.47-.5c.07-.07.15-.17.15-.28a.37.37 0 0 0-.06-.19 5.28 5.28 0 0 0-.22-.28l-.02-.02a.1.1 0 0 1 .02-.15Z" fill="#fff"/><path d="M4.98 10.7c.1.13.2.28.2.45 0 .21-.13.4-.3.54l.17.25a.98.98 0 0 0 .42-.8c0-.25-.1-.5-.28-.67l-.2.24ZM13 6.08a.15.15 0 0 0-.2.03l-.02.02c-.04.04-.1.1-.14.18a.6.6 0 0 0-.11.33c0 .22.18.4.25.46l.81.87c.05.05.14.06.2.02.06-.05.06-.12.01-.17L13 6.95c-.08-.08-.19-.19-.19-.31a.4.4 0 0 1 .08-.21l.12-.15.02-.03c.05-.05.04-.13-.02-.17Z" fill="#fff"/><path d="M13.08 7.18a.15.15 0 0 0-.2.02l-.01.03c-.13.14-.34.38-.34.59 0 .22.18.39.25.46l.98.97c.05.05.14.06.2.02.05-.05.06-.12 0-.17L13 8.13c-.08-.08-.19-.19-.19-.31 0-.15.2-.34.28-.44l.03-.03c.04-.06.03-.13-.03-.17Z" fill="#fff"/><path d="M13.01 8.3a.12.12 0 0 0-.16.03l-.01.02-.12.16c-.05.08-.2.3-.2.42 0 .2.16.35.22.4v.01l.76.8c.05.04.12.05.17.01a.1.1 0 0 0 0-.15l-.75-.8c-.07-.06-.16-.16-.16-.27 0-.07.12-.25.16-.32l.1-.13.02-.02A.1.1 0 0 0 13 8.3Z" fill="#fff"/><path d="M13.04 9.46a.12.12 0 0 0-.16.02l-.02.02-.24.31a.56.56 0 0 0-.09.3c0 .2.15.34.2.4l.48.51c.04.05.12.05.16.01a.1.1 0 0 0 .01-.15l-.47-.5c-.07-.07-.15-.17-.15-.28 0-.06.02-.12.06-.19l.22-.28.02-.02a.1.1 0 0 0-.02-.15Z" fill="#fff"/><path d="M13.02 10.7c-.1.13-.2.28-.2.45 0 .21.13.4.3.54l-.17.25a.98.98 0 0 1-.42-.8c0-.25.1-.5.28-.67l.2.24Z" fill="#fff"/></svg>