<!-- by TradingView --><svg width="18" height="18" viewBox="0 0 18 18" xmlns="http://www.w3.org/2000/svg"><path fill="#F0F3FA" d="M0 0h18v18H0z"/><circle cx="9" cy="9" r="6" fill="#FEF2D4"/><path d="M9.68 9.03a.65.65 0 0 1-.02-.23.07.07 0 0 1 .04-.05c.09-.06.67-.5.76-.5l.3.04c.23.08.41.06.57-.06.12-.1.2-.24.23-.42a.43.43 0 0 0-.01-.22c-.07-.2-.18-.36-.4-.42a.98.98 0 0 0-.18-.03.55.55 0 0 1-.13-.13c.04-.01.06-.02.05-.03a.9.9 0 0 1 .26.04c.24.07.41.22.5.45.03.1.06.21.05.31a.81.81 0 0 1-.47.68l-.2.03c-.14.02-.26-.05-.38-.06l-.02.01c-.26.28-.58.48-.95.59ZM6.45 6.99l.12.04v.01a.3.3 0 0 0-.03.13h-.25a.53.53 0 0 0-.5.52v.17c.1.35.44.55.8.45.04-.01.06-.03.06-.05.1.01.19 0 .29-.02a3.22 3.22 0 0 1 .71.47l-.04.27c-.34-.1-.63-.27-.87-.54h-.02l-.07.01-.2.05a.76.76 0 0 1-.77-.58c-.1-.33.1-.71.4-.84.1-.04.23-.07.37-.1Z" fill="#9F131D"/><path d="M7.1 4.59c0 .08-.02.24 0 .3l.06.15c.05.08.08.07.09-.02 0-.08-.02-.15.04-.24.05-.04.11-.06.16.02.03.04.02.13.02.18L7.5 5h.1a7.52 7.52 0 0 1 .86-.24c0-.15.08-.26.23-.31l.14-.01c.18.04.27.15.27.32 0 .01 0 .02.02.02.18.05.34.13.5.24h.03c.16-.06.3-.01.47-.05.01 0 .02 0 .01-.02v-.12c.02-.08.06-.1.13-.1.06.01.1.09.1.14l.01.23c0 .03.01.03.03 0a.64.64 0 0 0 .1-.43c0-.18-.12-.32.03-.51l.1-.01c.06 0 .12.02.16.06l.08.07c.03.2.04.36.04.56a.9.9 0 0 1-.23.6c-.07.07-.13.16-.18.25-.02.03 0 .05.02.07l.12.1h.03l.02-.01.22-.2c.08-.08.23-.1.29.01.02.05.03.1.02.16a.87.87 0 0 1-.41.55c-.02.01-.03.04-.03.07-.12.47-.33.18.07.57.13.2.26.4.24.74 0 .2-.17.42-.32.54l-.3-.04c-.02 0-.02 0-.01.02.02.03.05.05.1.07v.03a.3.3 0 0 0-.05.07c-.09.16-.29.06-.42.06l-.02.01-.36.24a.07.07 0 0 0-.04.05c-.01.15.02.31.03.46l.01.02h.16c.28-.05.55-.13.82-.18.11-.02.15.08.17.16 0 0 0 .02.02.01a.68.68 0 0 1 .52.07c.07.04.12.1.07.18-.03.04-.09.05-.13.07-.04 0-.04.02 0 .03.04.02.07.05.08.09.03.1-.1.17-.19.18l-.26.01a.06.06 0 0 0-.05.05c-.01.12-.03.23-.07.33a.45.45 0 0 1-.37.33v.02c.05.1.12.19.21.28l.09.06h.01a.8.8 0 0 1 .13-.36c.03-.04.09-.09.14-.07a.8.8 0 0 1 .3.22h.05l.13-.12a.04.04 0 0 0 .01-.05 1.1 1.1 0 0 1-.12-.52s0-.02.02-.02a.3.3 0 0 1 .22-.04 152.68 152.68 0 0 1 .2.03l.05-.17v-.02a.68.68 0 0 1-.3-.33c-.02-.06-.06-.17 0-.22.12-.12.31-.13.36-.33a10.06 10.06 0 0 1 .04-.24.07.07 0 0 0-.03-.03.25.25 0 0 1-.07-.13.7.7 0 0 1 .21-.68c.08-.07.21-.15.39-.24.18-.1.3.02.37-.35v-.13c-.03-.05-.02-.07.03-.04.03.01.06.03.08.06.18.24.34.85.31 1.14a.9.9 0 0 1-.52.75v.01c.2.03.43.18.38.41-.02.15-.05.24-.16.35v.02c.12.05.2.14.21.27.02.07 0 .16-.02.23a.5.5 0 0 1-.29.36v.02c.1.14.13.29.07.43a.4.4 0 0 1-.16.2.92.92 0 0 1-.24.1v.03c.03.08.05.18-.02.27-.1.12-.18.22-.32.29-.07.03-.13 0-.2-.04l-.01.01a.3.3 0 0 1-.09.22c-.12.13-.34.2-.5.28-.27.1-.54.15-.83.13 0 0-.02 0-.01.02l.03.15c0 .03 0 .06-.03.08-.13.13-.29.2-.45.27a.13.13 0 0 0-.05.04.62.62 0 0 1-.53.28c-.1 0-.16-.04-.21-.14v-.03l.04-.1v-.02l-.24-.1c-.07-.12-.08-.25-.13-.38a.02.02 0 0 0-.02-.02c-.3-.03-.53-.14-.82-.16-.02 0-.03.02-.02.03.02.08.06.16-.03.22-.38.24-.56.21-.64.3-.08.02-.14.02-.19 0-.02-.04.05-.36.05-.36a.47.47 0 0 1-.34-.03c-.22-.1-.28-.53-.3-.76v-.02c-.11-.04-.36-.07-.42-.18v-.03c.06-.37.5-.75.68-1.06v-.02a1.6 1.6 0 0 1-.78-.28c-.07-.04-.07-.08-.07-.15 0-.23.03-.47.09-.7a.76.76 0 0 1 .09-.2v-.03a.51.51 0 0 0-.21-.08c-.09-.01-.14-.07-.15-.17l-.01-.02a.3.3 0 0 1-.17-.12c-.01-.03-.01-.05 0-.07.15-.12.24-.19.43-.17.11.01.22.05.31.12h.02c.03-.03.06-.04.1-.03.3.15.6.34.9.49l.03-.01.1-.52s0-.02-.02-.03a1.04 1.04 0 0 1-.3-.19H7.3a.93.93 0 0 1-.15.03c-.1.13-.32-.05-.27-.23 0-.01.1-.03.07-.04h-.01c-.3.02-.42.07-.52-.37-.18-.77.44-.8.3-1.45L6.7 6.4a.87.87 0 0 1-.42-.53.24.24 0 0 1 0-.14c.03-.1.1-.15.22-.13.03 0 .06.02.1.05a14.63 14.63 0 0 1 .24.24l.18-.16a.04.04 0 0 0 0-.04.4.4 0 0 0-.13-.21c-.1-.08-.28-.2-.27-.34h.01l.1-.02c.07.03.08.01.04-.06a.8.8 0 0 1-.01-.81c.01-.03.04-.05.09-.05.36-.05.25.14.25.4Z" fill="#1D140E"/><path d="M6.72 6.43c.02.12.06.23.13.33.03.05-.15.16-.18.19-.04.04-.08.05-.13.03a.77.77 0 0 1-.44-.64c.2.01.4.04.62.1ZM10.84 7l-.25-.24c.1-.1.15-.2.18-.32.22-.05.44-.09.67-.1l.02.01c-.01.3-.35.58-.62.66ZM8.54 4.74a.2.2 0 0 1 .06-.15.22.22 0 0 1 .16-.07.23.23 0 0 1 .16.06.21.21 0 0 1 .07.15l-.45.01Z" fill="#CA8438"/><path d="M8.3 5.72v-.01a.92.92 0 0 0-.31-.6v-.04c.1-.05.49-.21.71-.22a1.27 1.27 0 0 1 .83.24.02.02 0 0 1 0 .02l-.14.17c-.1.14-.12.27-.15.43-.01.03-.03.04-.05.02-.38-.46-.89 0-.9 0Z" fill="#C50B1F"/><path d="m7.97 5.23.08.1c.08.07.14.18.14.3a.73.73 0 0 0 .01.14.47.47 0 0 0-.2.06h-.01c-.03-.24-.26-.62-.56-.5-.09.03-.2.1-.25.2a.31.31 0 0 0-.02.06c-.02.1-.04.1-.07.01a.39.39 0 0 1 0-.16c.03-.16.16-.29.32-.35.15-.05.48 0 .56.14ZM9.65 5.11a.15.15 0 0 1 .1-.03H10c.08-.01.14 0 .19.01.09.05.17.13.23.22.02.04.04.1.04.15l-.01.16c0 .02-.01.03-.02.03h-.02a.45.45 0 0 0-.37-.35c-.06-.02-.1 0-.15 0a.18.18 0 0 0-.06.03c-.19.11-.28.33-.3.55a.01.01 0 0 1-.01 0l-.17-.1v-.02c-.04-.25.15-.52.3-.65Z" fill="#FEF2D4"/><path d="M9.94 5.42h-.01c-.03-.01-.03-.02 0-.03.1-.02.24.07.29.14.03.06.06.13.07.22.03.13 0 .25-.1.37a.38.38 0 0 1-.36.17H9.8v-.03l.01-.02a.3.3 0 0 0 .2-.06c.12-.09.18-.2.19-.35a.46.46 0 0 0-.14-.34.25.25 0 0 0-.13-.07ZM7.33 5.88l.01.05c.05.18.16.28.33.31.02 0 .02.02 0 .03a.08.08 0 0 1-.05.01.36.36 0 0 1-.27-.13.5.5 0 0 1-.1-.25c-.02-.1-.02-.2.02-.28.04-.1.11-.17.22-.2.02-.02.04-.02.05-.01.02 0 .02.02 0 .03-.15.08-.22.2-.21.39v.05Z" fill="#FEF9DE"/><path d="M7.59 5.75c.05-.05.07-.12.03-.17-.03-.05-.11-.06-.17-.01-.05.04-.07.11-.03.16.03.05.11.06.17.02Z" fill="#FEF9DE"/><path d="M9.93 5.75c.05.05.13.05.17 0 .04-.05.03-.13-.02-.17-.05-.05-.13-.05-.17 0-.04.05-.04.12.02.17Z" fill="#FEF2D4"/><path d="m6.37 5.68.04-.03h.03c.08.01.13.04.17.08l.2.18v.01a.92.92 0 0 0-.1.38c0 .04-.01.04-.04.02a1.1 1.1 0 0 1-.33-.43c-.02-.05-.04-.17.03-.21Z" fill="#DB9449"/><path d="M10.8 6.19a1.04 1.04 0 0 0-.12-.26v-.02a.3.3 0 0 1 .08-.07.59.59 0 0 0 .12-.11.39.39 0 0 1 .1-.07c.05-.02.08-.02.12 0l.05.07v.09a.71.71 0 0 1-.34.47h-.01v-.1Z" fill="#CA8438"/><path d="M8.5 5.75c0 .1.08.16.2.18.14.02.27-.04.28-.2a.02.02 0 0 1 0-.02.02.02 0 0 1 .03 0c.04.05.07.1.07.17 0 .13-.07.2-.22.22h-.3c-.07 0-.13-.14-.15-.2a.12.12 0 0 1 .01-.1l.04-.06c.02-.03.03-.03.03.01Z" fill="#DB9449"/><path d="m8.32 5.9-.12.03a.37.37 0 0 0-.15.1 14.55 14.55 0 0 0-.27.28c-.03.01-.04 0-.03-.03a.82.82 0 0 1 .33-.38c.07-.04.15-.05.22-.07l.02.01a.1.1 0 0 1 0 .06Z" fill="#F8F1CB"/><path d="M9.71 6.26v.01a.11.11 0 0 1-.09-.04l-.2-.2a.45.45 0 0 0-.2-.12.05.05 0 0 1-.04-.04v-.01c-.01-.02 0-.03.02-.02.08.01.15.02.23.08.12.1.18.17.2.2.03.04.06.08.08.14Z" fill="#FEF2D4"/><path d="M10.5 6.68c.08 0 .14-.12.16-.18l.03-.16a.53.53 0 0 0-.14-.42.38.38 0 0 0-.13-.11h-.02c-.07.52-.05.41-.27.47l-.16.03c-.03.01-.03.03 0 .04l.53.33ZM7.15 5.78a.01.01 0 0 0-.01 0 .01.01 0 0 0-.01-.01.28.28 0 0 0-.1.05c-.19.16-.26.37-.21.63.02.1.06.17.12.24l.02.01a6.2 6.2 0 0 0 .43-.27 16.23 16.23 0 0 0 .14-.08c-.72-.19-.35-.3-.38-.57Z" fill="#C50B1F"/><path d="M10.95 7.43a2.8 2.8 0 0 0-.94-.84 2.76 2.76 0 0 0-2.16-.17c-.2.06-.38.14-.55.25a2.5 2.5 0 0 0-.81.8c.04-.16.1-.29.16-.36a2.66 2.66 0 0 1 1.76-.9 4.93 4.93 0 0 1 .86.03l.47.13a2.4 2.4 0 0 1 .83.5c.18.15.3.34.38.56Z" fill="#F8EBB2"/><path d="M10.95 7.43a.7.7 0 0 1-.13.74l-.18-.26v-.02a.04.04 0 0 1 .01-.04h.02l.02-.01.03-.01a.37.37 0 0 1 .12-.07.04.04 0 0 0 .03-.04c-.03-.15-.17-.26-.25-.37a1.87 1.87 0 0 0-.62-.52c-.13-.08-.3-.14-.49-.2a4.05 4.05 0 0 0-.5-.1 2.22 2.22 0 0 0-.5 0 2.88 2.88 0 0 0-1.36.51c-.06.05-.13.12-.2.16a.2.2 0 0 0-.07.06l-.23.3c-.03.04-.05.1-.05.18v.06l.02.04c.06.1.08.15.07.26a.2.2 0 0 0-.02.08c0 .04 0 .05-.04.01a.77.77 0 0 1-.14-.71 2.5 2.5 0 0 1 2.1-1.2 2.76 2.76 0 0 1 1.72.48c.25.18.46.4.64.67Z" fill="#D20721"/><path d="M10.37 7.44a.52.52 0 0 1-.06-.03c-.43-.39-2.7-.43-3.05-.08a.8.8 0 0 1-.18.13c0-.05-.11-.08-.08-.13.05-.07.11-.13.18-.19a2.27 2.27 0 0 1 .94-.45 1.93 1.93 0 0 1 .73-.08 2.61 2.61 0 0 1 1.43.52c.06.05.1.1.16.18.01.03 0 .06-.02.08a.23.23 0 0 0-.05.05Z" fill="#BE8F49"/><path d="M10.73 7.64c.01 0 .02.02.01.04a.49.49 0 0 1-.12.07c-.07.03-.13.02-.22.02-.05 0-.05.01-.01.04.12.1.21.2.28.34.01.01 0 .03-.01.03-.18.03-.27-.04-.44-.14-.04-.03-.05-.02-.03.02.03.1.12.2.19.28.01.02.03.06 0 .08h-.01c-.12.02-.19-.02-.29-.06h-.02a.7.7 0 0 1-.19.17c-.2.12-.45.2-.73.26-.17.03-.3.05-.41.05l-.2-.02-.26-.03a3.33 3.33 0 0 1-.53-.16.96.96 0 0 1-.29-.17c-.04-.03-.06-.06-.06-.08-.01-.05-.03-.06-.07-.03a.41.41 0 0 1-.3.08v-.01c.03-.07.28-.43.1-.32-.09.06-.2.09-.34.08h-.01a.03.03 0 0 1-.01-.05l.3-.33c.01-.02 0-.03-.01-.03h-.12a.3.3 0 0 1-.2-.09.03.03 0 0 1 0-.03v-.01c.4-.22.73-.47 1.12-.68a.6.6 0 0 1 .18-.07l.25-.05c.15-.04.6.01.85-.01h.08c.42.12.77.29 1.1.58.12.1.28.15.42.23Z" fill="#F8F1CB"/><path d="M12.55 7.8c.13.01.4-.28.35-.35l.04-.16c0-.02.01-.02.02 0 .06.1.1.2.1.32a1.48 1.48 0 0 1-.12.7c-.02.03 0 .04.03.01.12-.08.2-.2.2-.36a8.16 8.16 0 0 0 .06.22.96.96 0 0 1-.38.77.32.32 0 0 1-.12.05.03.03 0 0 1-.02 0l-.01-.02v-.83a.02.02 0 0 0 0-.02.02.02 0 0 0-.02 0c-.17.09-.31.18-.44.29-.05.03-.09.09-.12.14a.92.92 0 0 1-.05.08h-.02c-.11-.1-.1-.2-.07-.34.04-.16.12-.3.26-.4a7.03 7.03 0 0 1 .34-.2v.01l-.03.08Z" fill="#E6C38C"/><path d="M6.26 8.89a.03.03 0 0 0-.03-.02h-.35c-.02 0-.02 0 0-.02.1-.1.24-.12.39-.08.08.03.15.06.21.1a.05.05 0 0 1 .03.04l-.04.36h-.02a.9.9 0 0 0-.36-.16c-.01 0-.02 0-.02-.02-.01-.03 0-.06.03-.08.03-.01.18-.06.16-.12Z" fill="#FEF2D4"/><path d="M8.01 9.08a.45.45 0 0 0-.14-.03c-.02 0-.05 0-.06-.02h-.03l-.01.03a.6.6 0 0 1-.01-.3h.01l.1.02a.06.06 0 0 1 .05.04l.1.26ZM8.92 9.17a.85.85 0 0 0-.34-.05l.17-.13a.55.55 0 0 1 .2-.07l.27-.04c.09-.01.19-.05.26-.06.08-.01.09 0 .02.05l-.27.15a4.04 4.04 0 0 0-.31.15Z" fill="#BE8F49"/><path d="M6.24 10.26c.07-.1.12-.2.15-.3a21.14 21.14 0 0 0 .13-.5 72.5 72.5 0 0 1 .11-.6l.19.1V9c-.06.43-.11.74-.16.94a1.64 1.64 0 0 1-.22.48l-.2-.11a.03.03 0 0 1 0-.04Z" fill="#FEF2D4"/><path d="M9.76 9.38c.44-.05.33-.02.62-.12a.02.02 0 0 1 .03 0c.1.3.16 1-.09 1.23-.11.11.1.32.26.45.23.2.02.32-.35.62a1.12 1.12 0 0 1-.73.06c-.8-.36-.83-.52-.93-1.14a.16.16 0 0 1-.03-.14c0-.03.02-.06.04-.08.04-.04.07-.06.09-.1.08-.14 0-.28-.12-.38v-.03a.23.23 0 0 1 .1-.12.68.68 0 0 0 .34-.16c.06-.07.1-.16.1-.28l.44-.2a.02.02 0 0 1 .02 0c.01.02-.04.52.21.4Z" fill="#D20721"/><path d="m8.01 9.08.16.42v.03l-.07.25-.01.08h-.01a.49.49 0 0 0-.14-.1.03.03 0 0 1-.02-.03c0-.1-.01-.21-.05-.32a6.25 6.25 0 0 1-.1-.35l.01-.02c.01-.01.02-.02.03 0l.06.01c.05 0 .1.01.14.03Z" fill="#FEF2D4"/><path d="M7.01 9.1c.27.14.24.15.5.2l-.2.58c-.16.35-.13.35-.3.61 0 .03-.01.05-.03.05a1.08 1.08 0 0 1-.42-.09.02.02 0 0 1 0-.02c.27-.52.26-.83.35-1.37a.02.02 0 0 1 .01-.01.02.02 0 0 1 .02 0l.07.04Z" fill="#D20721"/><path d="M8.58 9.12c.13 0 .24.01.34.05a1.15 1.15 0 0 0-.47.57l-.02.01c-.12.02-.16.07-.23.15h-.03c-.01 0-.02-.02-.01-.04.07-.3.22-.55.42-.74Z" fill="#F8F1CB"/><path d="M11.88 9.17a.28.28 0 0 0 .05-.04c.02-.02.03-.02.02 0l-.03.63h-.01a.77.77 0 0 1-.19-.2c-.04-.07-.08-.2-.02-.26l.18-.13Z" fill="#DB9449"/><path d="M12.83 9.4a1.57 1.57 0 0 1-.07-.26l.01-.02h.01c.08.02.15.05.22.1.06.06.1.12.1.2 0 .12-.02.21-.06.3a.41.41 0 0 1-.13.14h-.01a4.13 4.13 0 0 0-.07-.46Z" fill="#D6A051"/><path d="M10.45 10.5c.01-.07.06-.14.07-.22a1.9 1.9 0 0 0 0-1 .04.04 0 0 1 .02-.04c.05-.02.1-.03.16-.02l.03.01.05.15c.05.18.06.36.04.55-.01.17-.06.32-.13.44a.3.3 0 0 1-.23.15l-.01-.01Z" fill="#F8F1CB"/><path d="M11.1 9.55v.03l.01.01c.07.04.13.08.19.14.02.03 0 .04-.06.06h-.3l-.01-.02a2.56 2.56 0 0 1-.05-.4l.01-.02h.26a.78.78 0 0 1 .23.1.02.02 0 0 1 0 .01v.01a.41.41 0 0 1-.24.05l-.04.03Z" fill="#FEF2D4"/><path d="M12.76 9.7c.02.13.04.39.03.51-.01.44-.23.83-.47 1.17a1.98 1.98 0 0 1-1.75.8H10.45a.03.03 0 0 1-.02-.02l-.02-.14c0-.01 0-.02.02-.03.3-.17.52-.37.66-.7a.4.4 0 0 0 .03-.14.02.02 0 0 0-.02-.02l-.1-.04c-.02 0-.02 0 0-.01l.36-.16.1-.07c.48-.47.5-.84.54-1.25.02-.3.2-1 .2-1.02.06-.08.1-.13.2-.17a2.16 2.16 0 0 0 .2-.1c-.04.6.1.68.16 1.39Z" fill="#C50B1F"/><path d="M7.87 10.1a.1.1 0 0 0 .07 0c.02 0 .03 0 .02.03l-.02.04c0 .02-.02.03-.04.03-.08.01-.13-.02-.17-.09-.03-.07-.02-.14.05-.21.07-.07.14-.07.22.01a.03.03 0 0 1-.01.05h-.02c-.05 0-.12.01-.13.08 0 .03 0 .05.03.06ZM8.39 10.1c.04 0 .08-.05.08-.09 0-.01 0-.02-.02-.03-.03-.04-.08-.05-.13-.02-.02 0-.03 0-.02-.02a.17.17 0 0 1 .13-.09h.03c.06.04.14.1.13.19-.01.14-.17.24-.26.08a.01.01 0 0 1 0-.02H8.4Z" fill="#F3D790"/><path d="M12.91 9.92c.16.03.24.13.23.3-.02.22-.1.41-.32.48-.01 0-.03-.01-.02-.03l.06-.24c.03-.2.04-.36.04-.5h.01ZM8.32 10H7.97v.06h.36v-.05ZM11.83 10.2l-.16.3c0 .02-.02.02-.02.03a.05.05 0 0 1-.06 0c0-.02-.01-.02-.02-.03l-.07-.34a.05.05 0 0 1 .01-.05.05.05 0 0 1 .05-.01l.23.03c.03 0 .05.04.04.07Z" fill="#D6A051"/><path d="M8.22 10.17c.05.05.1.1.19.12l.01.02a1.77 1.77 0 0 0 .61 1.18c.1.08.22.14.35.19.21.07.42.08.62.05.36-.06.63-.26.8-.6.02-.01.03-.02.05 0l.14.08.01.01v.03c-.05.1-.1.21-.18.3a1.39 1.39 0 0 1-1.51.39 1.62 1.62 0 0 1-.98-.95c-.06-.14-.1-.3-.14-.5a14.56 14.56 0 0 0-.03-.31.04.04 0 0 1 .06 0Z" fill="#FEF9DE"/><path d="M7.9 10.3c.08-.04.1-.07.15-.12h.02c0 .17 0 .29-.02.35a1.82 1.82 0 0 1-1.13 1.17.95.95 0 0 1-.24.04 1.47 1.47 0 0 1-.27-.01.04.04 0 0 1-.02-.04v-.01l.1-.17.03-.02.18-.02c.17-.03.31-.08.44-.16.24-.16.44-.37.59-.63.06-.1.1-.23.16-.36 0-.01 0-.02.02-.02Z" fill="#FEF2D4"/><path d="m10.98 10.66.13.25a.61.61 0 0 0 .2-.1v-.02a.73.73 0 0 0-.24-.17c-.04-.01-.06 0-.09.04ZM11.11 10.91l-.13-.25a1 1 0 0 0-.1.23.18.18 0 0 0-.01.1h.02l.22-.08Z" fill="#C16736"/><path d="M8.17 10.83c-.05.06-.08.11-.08.17a.67.67 0 0 0-.14.21l-.1-.03h-.01a.02.02 0 0 1 0-.03c.1-.13.19-.27.26-.42.03-.06.04-.05.04.01l.03.09Z" fill="#BE8F49"/><path d="M12.79 10.73c.07.06.12.14.13.23.03.17-.03.3-.17.38-.08.05-.2.12-.3.07v-.02c.12-.18.23-.4.34-.66ZM8.17 10.83a1.45 1.45 0 0 0 .13.36.03.03 0 0 1-.01.03.16.16 0 0 1-.12.01c.02 0 .02 0 .03-.02l-.01-.03a1.5 1.5 0 0 1-.1-.18c0-.06.03-.11.08-.17Z" fill="#D6A051"/><path d="m8.09 11 .1.18v.03c0 .01 0 .02-.02.02a.44.44 0 0 1-.22-.02.68.68 0 0 1 .14-.21Z" fill="#F3D790"/><path d="M7.7 9.2c-.18.47-.33.93-.56 1.4-.2.32-.23.38-.53.77l.01.02c.2-.02.36-.1.47-.16.18-.1.19-.13.36-.31l.15-.23c.07-.13.14-.24.19-.38l-.01-.02c-.24-.1-.25-.47.04-.54 0 0 .02-.01.01-.02-.03-.12-.07-.42-.13-.53Z" fill="#D20721"/><path d="m7.93 11.3-.25.3a.27.27 0 0 1-.06-.18l.01-.03.14-.13h.03l.13.04ZM8.63 11.63l-.2.08-.2-.35c-.05-.02.01-.04.01-.04a.32.32 0 0 1 .11-.03l.03.01c.07.12.15.23.25.33Z" fill="#BE8F49"/><path d="M8.04 11.33h.15a.04.04 0 0 1 .04.03l.2.35a1.04 1.04 0 0 1-.75-.1l.25-.3a.2.2 0 0 0 .1.02Z" fill="#F8EBB2"/><path d="M12.41 11.44h.01c.06.06.11.12.1.21a.3.3 0 0 1-.08.18l-.1.1c-.12.12-.26.09-.37-.02v-.01l.44-.46Z" fill="#D6A051"/><path d="M8.1 12.32c-.25.02-.48.07-.72.12-.13.03-.25.03-.4.03-.04 0 .01.04-.02-.02a.93.93 0 0 1-.13-.32v-.23c0-.04.02-.06.06-.08.19-.05.25-.04.47-.2l.12-.1c.01 0 .02 0 .03.02.1.25.3.7.6.78Z" fill="#D20721"/><path d="M8.7 11.71c.05.03.09.06.12.1a.3.3 0 0 1 .05.14l.02.15a.58.58 0 0 1-.2.07c.03-.06-.2-.32-.22-.37l.22-.09Z" fill="#CA8438"/><path d="M8.47 11.8c.04.06.22.27.22.33v.04a.79.79 0 0 1-.24.02l-.34-.02a1.2 1.2 0 0 1-.4-.44c.25.09.5.1.76.07Z" fill="#F3D790"/><path d="M10.27 12.05a.02.02 0 0 1 .03.01l.14.52c0 .02 0 .04-.03.05-.42.22-.71.4-1.2.25a.38.38 0 0 1-.07-.1 5.05 5.05 0 0 1-.13-.85c.47.22.8.27 1.26.12Z" fill="#C50B1F"/><path d="M11.42 12.19v-.01l.46-.23h.01c.08.12.06.22-.04.3a3.07 3.07 0 0 1-.42.2l-.01-.26Z" fill="#D6A051"/><path d="m8.9 12.2.1.4a.01.01 0 0 1-.01.02c-.3-.06-.56-.19-.79-.38l.17.02a.9.9 0 0 0 .41-.02l.13-.04ZM11.34 12.46a.02.02 0 0 1-.01.02 1.35 1.35 0 0 1-.43.08v-.01a.78.78 0 0 0 .03-.25l.01-.01.38-.08.02.25Z" fill="#E6C38C"/><path d="m10.47 12.28.33.02c.03 0 .04.02.03.04l-.02.2c0 .03-.02.05-.05.05l-.2-.02h-.01l-.09-.29h.01Z" fill="#D6A051"/><path d="M6.97 12.5v-.03c.16 0 .28 0 .41-.03a7.75 7.75 0 0 0 .56-.11l.16-.02.18.12c.02.02.01.02 0 .03h-.16a43.9 43.9 0 0 1-.87.2c-.15.02-.24-.04-.28-.17Z" fill="#E6C38C"/><path d="M9.2 12.88a1.47 1.47 0 0 0 1.05-.08l.21-.12.03.01.04.15a.02.02 0 0 1 0 .01c-.05.05-.1.1-.19.14a1.46 1.46 0 0 1-1.02.1c-.09-.03-.13-.1-.14-.2l.01-.01h.01Z" fill="#F8EBB2"/><path d="M9.11 7.11c.1-.08.14-.17.11-.2-.03-.03-.12.01-.2.1-.1.08-.15.17-.12.2s.12-.01.21-.1ZM8.54 7.22c-.13.02-.17-.1-.25-.16a.13.13 0 0 1-.06-.14.02.02 0 0 1 .01-.01h.01c.06.01.1.04.13.08.06.07.17.06.18.19a.04.04 0 0 1-.02.04Z" fill="#D6A051"/><path d="M9.67 7.5c-.14.04-.18.14-.26.23a.04.04 0 0 1-.04.01.04.04 0 0 1-.03-.03.69.69 0 0 1 .04-.34c.04-.12.17-.27.32-.24a.3.3 0 0 1 .2.18c.02.06.03.13.02.2 0 .02 0 .03-.02.02-.09-.02-.15-.05-.23-.03ZM7.75 7.5c-.07-.01-.13.01-.2.02a.02.02 0 0 1-.01-.02.66.66 0 0 0 .02-.11c0-.1.08-.2.15-.23.15-.07.26.03.33.16.05.08.08.2.08.34 0 .06-.02.1-.08.08a.03.03 0 0 1-.02-.02 1 1 0 0 0-.07-.1.31.31 0 0 0-.2-.12Z" fill="#1D140E"/><path d="M7.56 7.95c.14 0 .26-.08.25-.17 0-.08-.11-.15-.26-.15-.14 0-.25.08-.25.16 0 .1.12.16.26.16ZM9.9 7.94c.14 0 .25-.07.25-.15 0-.09-.1-.16-.25-.16-.14 0-.25.07-.25.15 0 .09.1.16.25.16Z" fill="#C50B1F"/><path d="M8.32 7.89c.03.04.09.05.12.03.03-.03.03-.09 0-.13-.05-.05-.1-.06-.13-.03s-.03.08 0 .13ZM9.02 7.8c-.04.04-.04.1 0 .12.02.02.08 0 .11-.04.03-.05.04-.1 0-.13-.03-.02-.08 0-.11.04ZM8.57 8.3c.19.03.38.01.56-.05.11-.04.2-.13.27-.2a.18.18 0 0 0 .03-.07c.01-.02.02-.02.04-.02h.02A.03.03 0 0 1 9.5 8V8c-.08.26-.46.38-.7.4a1.2 1.2 0 0 1-.53-.09.7.7 0 0 1-.27-.18c-.07-.08-.08-.13-.04-.15a.03.03 0 0 1 .04 0c.06.12.16.2.28.25.1.03.19.06.28.07Z" fill="#1D140E"/><path fill-rule="evenodd" d="M9 14.73A5.73 5.73 0 1 0 9 3.27a5.73 5.73 0 0 0 0 11.46ZM9 14A5 5 0 1 0 9 4a5 5 0 0 0 0 10Z" fill="#840E16" fill-opacity=".5"/></svg>