<!-- by TradingView --><svg width="18" height="18" fill="none" xmlns="http://www.w3.org/2000/svg"><path fill="#F0F3FA" d="M0 0h18v18H0z"/><path fill-rule="evenodd" clip-rule="evenodd" d="M14 6.25L9 3.5 4 6.25v5.5l5 2.75 5-2.75v-5.5zm-1.25.137c-1.209-.653-3.652-1.96-3.757-1.97L5.25 6.386l3.743 1.696 3.757-1.696zM9.312 8.7l4.063-1.84v1.95l-4.063 2.023V8.7zm0 3.017l4.062-2.107v1.746l-4.062 2.227v-1.866zM4.625 6.86v4.436l1.563.875V7.6l-1.563-.74zm2.188 5.65V7.834l1.875.861v4.878l-1.875-1.06z" fill="url(#paint0_linear_1530)"/><defs><linearGradient id="paint0_linear_1530" x1="14.238" y1="8.475" x2="4" y2="8.475" gradientUnits="userSpaceOnUse"><stop stop-color="#26D6C9"/><stop offset="1" stop-color="#0571F7"/></linearGradient></defs></svg>