<!-- by TradingView --><svg width="18" height="18" viewBox="0 0 18 18" xmlns="http://www.w3.org/2000/svg"><path fill="#004AAD" d="M0 0h18v18H0z"/><path d="M14 12.75v.13H7.37c-.06 0-.1.03-.14.1L7.2 13l-1.05-.13a1.42 1.42 0 0 0-.43 0c-.15.02-.32.03-.51.03l-1.13-.01H4v-.14h1.13c.03 0 .04-.01.02-.04a5.88 5.88 0 0 0-.24-.4L4 10.65v-.15c.04-.02.07 0 .1.05l.95 1.74.18.3c.01.03.03.04.06.04l1.84.24c.02 0 .03 0 .02-.03a.32.32 0 0 0-.12-.13.17.17 0 0 1-.05-.06L5.76 10.5a.06.06 0 0 0-.05-.03c-.57-.06-1.14-.08-1.71-.06v-.18l1.78.1c.03 0 .05.02.06.05l.87 1.52c.01.03.02.03.03 0 .02-.27.11-.46.28-.57.1-.07.22-.12.36-.14a2.75 2.75 0 0 1 .53-.03c.16 0 .28-.03.38-.06.11-.05.29-.15.54-.32.15-.1.28-.22.37-.35l.2-.28c.13-.16.23-.34.3-.54a.76.76 0 0 1 .14-.22v-.05a2.82 2.82 0 0 0-.25-.24 5.07 5.07 0 0 1-.46-.29h-.06c-.32.23-.66.34-1.03.34h-.17l-.4-.01A.72.72 0 0 1 7.12 9c-.07-.05-.12-.14-.14-.26a5.45 5.45 0 0 0-.2-.71 1.59 1.59 0 0 0-.23-.4l-.2-.26a.47.47 0 0 1-.12-.27l.02-.45a1.65 1.65 0 0 1 .38-.72l-.01-.03a.24.24 0 0 1-.12-.1.38.38 0 0 1-.02-.14.4.4 0 0 0-.08-.22 3.4 3.4 0 0 1-.12-.18c-.1-.2-.09-.41.02-.61.07-.13.2-.25.4-.35.5-.26 1.02-.35 1.57-.27a5.17 5.17 0 0 0 1.15.07c.2 0 .46.07.76.18.14.06.25.15.34.26.29.38.45.78.48 1.21a12.02 12.02 0 0 1 0 .67l.04.06a8.86 8.86 0 0 0 1.3 1.85l.16.04c.21.05.36.1.44.17a1.5 1.5 0 0 1 .55 1.02l.04.17c.05.27.08.48.09.61v1c-.01.48-.12.93-.33 1.37 0 .02 0 .03.02.03l.68.01Z"/><path d="M9.22 8.6c0-.04 0-.06-.03-.07a.05.05 0 0 0-.07.02c-.15.15-.33.26-.53.33h-.06l-.12-.06c-.02 0-.04 0-.06.02l-.04.04h-.05c-.04-.03-.09-.03-.13 0a.06.06 0 0 1-.05 0 2.34 2.34 0 0 0-.46-.08c-.05-.02-.1-.02-.12-.01h-.05l-.12-.05-.02-.04v-.3l.01-.05c.15-.15.3-.23.48-.23.11 0 .28.04.5.11.03.01.04.03.03.05 0 .14.03.3.12.46.02.03.05.05.1.04.03 0 .04-.02.05-.04V8.7a.85.85 0 0 1-.11-.45c0-.07-.03-.12-.1-.15-.15-.05-.3-.1-.47-.12a.64.64 0 0 0-.47.08c-.12.08-.2.13-.26.15a.05.05 0 0 0-.03.05c-.02.26 0 .46.06.6.01.02 0 .02 0 0a.24.24 0 0 1-.08-.12 4.22 4.22 0 0 0-.23-.83 1.36 1.36 0 0 0-.23-.38 6.76 6.76 0 0 1-.28-.4c0-.01.01-.02.03-.02a.91.91 0 0 0 .55-.5c.02-.04 0-.1-.05-.19a.32.32 0 0 0-.29-.14l-.02-.01v-.03c.11-.14.18-.27.21-.38a11.13 11.13 0 0 1 1.11-.82.91.91 0 0 1 .36-.14 2.82 2.82 0 0 1 .6 0c.45 0 .88.15 1.27.47.11.1.2.2.24.33l.17.52c.03.14.05.36.05.66v.25c0 .03.02.06.04.07.07.05.11.03.13-.05l.13-.48c.01-.05.03-.05.05 0a4.13 4.13 0 0 0 .44.75c.32.45.57.78.76.98l.06.11c.01.02.02.05 0 .07-.06.2-.12.34-.18.4-.34.34-.72.52-1.12.54h-.47a.84.84 0 0 1-.37-.12.6.6 0 0 1-.19-.2.84.84 0 0 0-.19-.22 8.25 8.25 0 0 1-.47-.27.06.06 0 0 1-.03-.05v-.06Z" fill="#F3C8B7"/><path d="M6.5 6.67c.01.03.05.07.12.12.02.01.02.03 0 .04a.46.46 0 0 1-.18.09c-.03 0-.04 0-.04-.03 0-.05 0-.14.02-.27.01-.08.03-.13.07-.15.1-.08.11-.07.03.04-.03.02-.03.08-.01.16Z" fill="#fff"/><path d="M10.23 6.9c-.16.31-.43.45-.8.4a.52.52 0 0 1-.44-.33.19.19 0 0 1 0-.15.17.17 0 0 1 .1-.1c.1-.04.21-.06.35-.06h.77c.03 0 .05.01.07.03.03.05.03.1 0 .14a1.9 1.9 0 0 0-.05.07Z"/><path d="M9.46 6.85c0 .15.04.23.14.24.14.02.2-.06.18-.23 0-.03 0-.04.03-.04h.24c.03 0 .03 0 .02.03a.43.43 0 0 1-.24.24c-.1.04-.2.06-.33.05a.42.42 0 0 1-.37-.23c-.02-.03 0-.04.03-.05l.26-.05c.03 0 .04.01.04.04Z" fill="#fff"/><path d="M9.62 7.91a1 1 0 0 0-.23.14.7.7 0 0 0-.15.23c-.01.03-.03.04-.06.02l-.03-.01c-.04-.03-.05-.06-.03-.1a.7.7 0 0 1 .17-.26c.05-.05.13-.1.26-.16.11-.05.19-.1.23-.14a.7.7 0 0 0 .14-.23c.01-.03.04-.04.07-.02l.03.02c.04.02.05.05.03.1-.05.11-.1.2-.17.26-.05.04-.14.1-.26.15ZM7.42 8.41c0-.02.01-.03.03-.03l.63.02c.06 0 .09.02.09.06v.05c0 .03-.04.05-.1.05l-.62-.02c-.02 0-.03-.01-.03-.03v-.1Z"/><path d="M13.4 10.1c-.03 0-.05 0-.05.05-.01.15-.04.3-.1.44 0 .02-.02.03-.03.03l-.04-.01a.89.89 0 0 0-.63-.25l-.65.01c-.02 0-.03 0-.03-.03.04-.33.18-.61.4-.84.02-.03.02-.05 0-.08 0-.02-.03-.04-.07-.03a1.66 1.66 0 0 0-.48 1.1 4.87 4.87 0 0 1-.89 1.09c-.15.13-.36.21-.61.25-.02 0-.04 0-.05-.02a2.58 2.58 0 0 1-.24-.58c-.08-.38-.06-.82.06-1.32 0-.03 0-.05-.03-.07l-.03-.01c-.04 0-.07.02-.08.05l-.1.52c0 .02 0 .02-.03.01l-.21-.13c-.02-.01-.02-.03 0-.05.14-.2.26-.41.35-.66.04-.09.09-.1.17-.06.18.12.5.16.95.13.46-.03.86-.23 1.2-.6.06-.07.13-.23.23-.5.01-.03.03-.03.05-.03.16.03.27.06.32.09.29.18.47.45.55.79l.14.7c0 .02 0 .02-.03.02h-.04Z" fill="#141423"/><path d="M13.44 10.28c.04-.05.06-.04.06.04v.73a3.2 3.2 0 0 1-.36 1.67.05.05 0 0 1-.04.02h-1.24c-.13 0-.13-.02-.01-.07.3-.13.58-.35.83-.66.19-.24.38-.56.59-.97.05-.11.09-.22.1-.3.01-.09.03-.2.07-.32v-.14Z" fill="#141423"/><path d="M4 10.5v-.1c.57-.02 1.14 0 1.71.06.02 0 .04.01.05.03l1.22 2.15c.01.03.03.05.05.06.05.03.09.08.12.13 0 .02 0 .03-.02.03l-1.84-.24a.07.07 0 0 1-.06-.04l-.18-.3-.95-1.74c-.03-.05-.06-.07-.1-.05Z" fill="#898989"/><path d="M7.38 11.57v-.02a.05.05 0 0 0-.05-.02c-.08 0-.14.05-.2.14a1.47 1.47 0 0 0-.13.35c-.02.05-.05.07-.1.06-.02 0-.03-.02-.03-.04-.04-.22.01-.4.14-.54.13-.12.3-.19.5-.2l.55-.01c.1 0 .22-.05.39-.13.2-.1.41-.23.63-.4.12-.1.22-.21.3-.35 0-.02.02-.02.04-.02.13.06.24.14.31.25.02.02.02.04.02.06-.01.28.03.55.13.8l-.01.05c-.11.09-.25.16-.42.2H9.4a.6.6 0 0 0-.25-.12c-.38-.1-.72-.13-1.03-.12-.2.02-.4.09-.6.22-.08.06-.17.2-.27.42l-.02.05a.06.06 0 0 1-.07.04c-.03 0-.05-.02-.06-.04a.3.3 0 0 1 0-.17c.03-.2.12-.35.26-.42.02 0 .02-.02.02-.04Z" fill="#F3C8B7"/><path d="M7.95 11.99c.02-.02.02-.03 0-.04l-.03-.02a.05.05 0 0 0-.05 0c-.1.07-.2.16-.29.26-.05.06-.1.07-.17.05-.02 0-.03-.02-.02-.05a.62.62 0 0 1 .4-.45c.34-.13.79-.11 1.37.04l.1.05.08.05c.4.16.82.16 1.24 0 .22-.08.44-.25.66-.5.2-.22.4-.5.63-.84a.06.06 0 0 1 .05-.03h.74c.06 0 .12.01.17.04l.37.23c.02 0 .03.03.02.05-.14.3-.3.6-.5.9a2.2 2.2 0 0 1-.55.6 2 2 0 0 1-.73.33c-.38.08-.75.1-1.11.07a1.16 1.16 0 0 1-.34-.08 4.62 4.62 0 0 1-.44-.23.4.4 0 0 0-.2-.05H9.3c-.1.01-.16 0-.2-.01-.26-.09-.48-.08-.67.03-.1.06-.17.1-.2.1-.07.05-.1.02-.07-.06.04-.11.16-.22.37-.31.03-.01.04-.04.03-.08-.02-.05-.05-.06-.1-.04-.1.06-.22.09-.35.1a.16.16 0 0 0-.1.05l-.29.3c-.02.03-.04.03-.06 0l-.01-.04c-.03-.07-.02-.13.03-.17l.28-.25Z" fill="#F3C8B7"/><path d="M9.73 11.8a.49.49 0 0 0 .18-.11c.02-.02.03-.02.05 0l.06.12c0 .02 0 .03-.03.04-.14 0-.23 0-.26-.02-.04-.01-.04-.03 0-.03ZM7.05 12.33c.06.02.12.01.2-.02h.05c.04.06.09.07.15.07h.04c.01.02.02.03.01.04H7.5c-.16-.03-.3 0-.4.08-.01.02-.03.02-.04 0l-.13-.24c-.02-.02-.01-.03.01-.03s.05.02.08.06c0 .02.02.03.04.04ZM8.8 12.59l-.02-.14.01-.01c.1 0 .19.03.29.06.05.02.13.02.24.01.05 0 .1 0 .15.04h.02c.04.03.04.04 0 .04l-.66.02c-.02 0-.03 0-.03-.02Z" fill="#004AAD"/><path d="M8.58 12.57a.2.2 0 0 1 .07 0h.02v.02h-.01l-.08.01c-.05-.01-.05-.02 0-.03Z" fill="#898989"/></svg>