<!-- by TradingView --><svg width="18" height="18" viewBox="0 0 18 18" xmlns="http://www.w3.org/2000/svg"><path fill="#163DA5" d="M0 0h18v18H0z"/><path d="M8.18 7.67c-.37.21-.75.4-1.13.6a.08.08 0 0 0-.05.08v3.15a.07.07 0 0 0 .04.07c.59.35 1.34.7 1.93 1.05a.06.06 0 0 0 .07 0l2.91-1.68c.05-.03.05-.03.05.03v1.23a.07.07 0 0 1-.04.06A1229.02 1229.02 0 0 0 9.01 14c-.02 0-.04 0-.05-.02l-2.92-1.7a.07.07 0 0 1-.04-.06 3849.76 3849.76 0 0 0 .01-4.55l.03-.03c.35-.2.61-.42.96-.62a.08.08 0 0 1 .1 0c.34.2.69.4 1.03.62a.1.1 0 0 1 .05.03Z" fill="#F0F3FA"/><path d="m10.04 4.69.13-.08A5354.5 5354.5 0 0 1 11.18 4l.04.01c.9.55 1.82 1.07 2.74 1.6.01 0 .02 0 .03.02l.01.05a913.76 913.76 0 0 0-.01 2.38c0 .02-.02.03-.04.03L8.98 11a.07.07 0 0 1-.08 0 128.21 128.21 0 0 0-.9-.52 253.07 253.07 0 0 0 0-1.3c0-.06 0-.06.06-.03l.57.33a37.94 37.94 0 0 1 .3.15h.04c1.28-.75 2.7-1.48 3.99-2.22a.07.07 0 0 0 .04-.07 93.77 93.77 0 0 1 0-.98.06.06 0 0 0-.04-.03c-.92-.53-1.98-1.07-2.9-1.61l-.02-.02Z" fill="#F0F3FA"/><path d="m11.97 6.98-1.07.7a.07.07 0 0 1-.1 0 3403.13 3403.13 0 0 0-3.64-2.26c-.02 0-.04 0-.05.02-.63.4-1.44.83-2.07 1.23a.08.08 0 0 0-.03.04L5 6.75v2.27L4.96 9c-.37-.23-.55-.48-.92-.7a.07.07 0 0 1-.03-.03 793 793 0 0 0 0-2.3A1588.8 1588.8 0 0 0 7.16 4h.04c1.56 1 3.15 1.97 4.73 2.95l.04.02Z" fill="#F0F3FA"/></svg>