<!-- by TradingView --><svg width="18" height="18" viewBox="0 0 18 18" xmlns="http://www.w3.org/2000/svg"><path fill="url(#anes5jisi)" d="M0 0h18v18H0z"/><path d="M13.27 8.4c.27-.98.17-2.09-.42-2.95-.39-.5-.92-.89-1.59-1.15-.52-.2-1.01-.3-1.48-.3H5.62c-.32.01-.58.45-.49.78.04.16.12.27.22.32.27.16.46.3.56.44.4.54.23 1.29-.25 1.7a1.7 1.7 0 0 1-.18.14c-.1.07-.22.14-.28.25-.22.38.05.7.46.7h4.4a4.77 4.77 0 0 1 1.84.45.04.04 0 0 1 0 .04c-.34.4-.82.64-1.33.79-.23.06-.51.06-.84.06H5.64c-.4 0-.64.54-.45.88.07.12.18.21.3.3.1.08.2.15.28.24.31.28.41.6.3.98-.02.1-.14.28-.34.52-.12.13-.32.3-.61.51-.06.05-.1.15-.12.3 0 .39.23.6.58.6h4.67c1.09 0 2.18-.34 2.95-1.17.3-.36.51-.76.64-1.2.12-.43.17-.87.16-1.32a2.88 2.88 0 0 0-.3-1.24l-.42-.6a.07.07 0 0 1-.01-.06Zm-.95-.6a5.6 5.6 0 0 0-2.47-.47H6.93c-.03 0-.04 0-.02-.03.35-.68.32-1.6.02-2.26-.01-.01 0-.03.02-.03H9.3c.4-.02.76 0 1.06.07.91.2 1.87.77 1.98 1.86a3.8 3.8 0 0 1-.02.85Zm-1.7 2.82a3.66 3.66 0 0 0 2.1-1.29l.02.01.02.02c.23.53.27 1.13.11 1.81-.3 1.31-1.38 1.82-2.53 1.83h-3.5l-.01-.02a.04.04 0 0 1 0-.04c.42-.7.44-1.51.08-2.23 0-.02 0-.04.03-.04h2.73c.37 0 .7.01.96-.05Z" fill="#fff"/><defs><linearGradient id="anes5jisi" x1="9" y1="0" x2="9" y2="18" gradientUnits="userSpaceOnUse"><stop stop-color="#2E4195"/><stop offset="1" stop-color="#3E90AD"/></linearGradient></defs></svg>