<!-- by TradingView --><svg width="18" height="18" viewBox="0 0 18 18" xmlns="http://www.w3.org/2000/svg"><path fill="#F0F3FA" d="M0 0h18v18H0z"/><path d="M10 12.5a3.5 3.5 0 1 0-2.12-6.28 3 3 0 1 1 0 5.57c.59.44 1.32.71 2.12.71Z" fill="url(#agjnjrr4v)"/><path fill-rule="evenodd" d="M9 11.5a2.5 2.5 0 1 1 0-5 2.5 2.5 0 0 1 0 5ZM11 9a2 2 0 1 1-4 0 2 2 0 0 1 4 0Z" fill="url(#bgjnjrr4v)"/><path d="M14 9A5 5 0 1 1 4 9a5 5 0 0 1 10 0Zm-4-4a4 4 0 1 0 0 8 4 4 0 0 0 0-8Z" fill="url(#cgjnjrr4v)"/><defs><linearGradient id="agjnjrr4v" x1="4" y1="9" x2="14" y2="9" gradientUnits="userSpaceOnUse"><stop stop-color="#04DDFC"/><stop offset="1" stop-color="#5736CB"/></linearGradient><linearGradient id="bgjnjrr4v" x1="4" y1="9" x2="14" y2="9" gradientUnits="userSpaceOnUse"><stop stop-color="#04DDFC"/><stop offset="1" stop-color="#5736CB"/></linearGradient><linearGradient id="cgjnjrr4v" x1="4" y1="9" x2="14" y2="9" gradientUnits="userSpaceOnUse"><stop stop-color="#04DDFC"/><stop offset="1" stop-color="#5736CB"/></linearGradient></defs></svg>