<!-- by TradingView --><svg width="18" height="18" viewBox="0 0 18 18" xmlns="http://www.w3.org/2000/svg"><path fill="#F0F3FA" d="M0 0h18v18H0z"/><circle cx="9" cy="9" r="6" fill="url(#a)"/><circle cx="9" cy="9" r="5.82" fill="url(#b)"/><path d="M6.86 6.91a4 4 0 0 1 .1-1.05c.04-.18.15-.52.27-.43.15.11.58.56.97.85.4.28 1.37.3 1.44.33.07.04.36-.2.63-.68.22-.38.57-.57.71-.62.04.28.12.88.07 1.1-.07.29.06.79.06.9 0 .12-.16.36-.13.55l.13.62c-.03.25-.13.83-.3 1.15-.2.4-.18.55-.35.99-.17.44.1.84.1 1.17.01.34-.6 1.6-.83 1.78-.22.2-.67.23-1.3.23-.62 0-1.1-.77-1.2-1.24-.1-.47.43-2.06.45-2.11.02-.05-.05-.5-.36-1.02-.3-.52-.36-.4-.46-.8-.1-.4.1-.44.1-.87 0-.42-.08-.54-.1-.85Z" fill="#fff"/><path d="M10.08 3.34c.83.34 1.6.72 2.3 1.17a.8.8 0 0 1 .13.12c.08.1.16.15.24.18.05.02.09.05.12.08l.25.28c.06.06.05.11-.02.14a.48.48 0 0 1-.22-.24c-.02-.05-.05-.07-.09-.07l-.3-.04c-.03 0-.04 0-.03.02a.1.1 0 0 1 0 .05c-.02.05 0 .08.05.06.11-.02.19-.02.22 0 .03 0 .04.02.04.03l.02.04c0 .04 0 .06-.04.07l-.16.05c-.03.01-.05.04-.05.07 0 .02 0 .04.02.05.01.02.04.02.08.02.1 0 .2.02.3.06.05.02.06.05.02.08l-.03.04c-.04.03-.04.06 0 .1.14.11.14.24.01.36-.02.03-.02.05.02.07H13c.04 0 .07-.02.08-.06a.94.94 0 0 0 .04-.42c-.01-.05 0-.1.02-.13l.05-.07c.06-.03.1-.02.13.02l.02.1c0 .04.02.08.04.1a2.58 2.58 0 0 1-.85 1.66c-.06.03-.07.12-.04.25h-.03a.33.33 0 0 0-.05-.23c-.01-.03-.05-.02-.1.05l.61-1.02a.05.05 0 0 0 0-.05l-.01-.02a4.4 4.4 0 0 0-3.49-2.07c-.26-.15-.62-.15-1.08 0a4.57 4.57 0 0 0-2.83 1.44c-.1-.02-.1-.1-.01-.22l.14-.15c.32-.25.55-.48.69-.7a.15.15 0 0 1 .1-.07c.17-.02.28-.1.34-.24a.17.17 0 0 1 .1-.1c.06-.02.11-.01.16.02.1.06.2 0 .33-.19.07-.1.16-.12.27-.08.38.12.7.02.95-.32.04-.05.03-.07-.03-.08a.66.66 0 0 0-.34.07.18.18 0 0 1-.1.01c-.09 0-.14.02-.18.08a.1.1 0 0 1-.1.06H7.6c-.05 0-.1 0-.14.02l-1.07.34h-.01l-.08-.08c-.04-.04-.03-.06.02-.08l.5-.19c.15-.06.23-.14.24-.24a4.2 4.2 0 0 1 1.12-.27 6.64 6.64 0 0 1 1.9.07Z" fill="#FCF3B1"/><path d="M14.22 6.58c-.2-.02-.3-.01-.31.03a.31.31 0 0 1-.08.15l-.06-.6c-.02-.17-.05-.17-.09-.01-.12.52-.44.97-.95 1.33v.03c.09.15.12.23.08.27a.85.85 0 0 0-.03.02c-.04-.16-.14-.23-.29-.22-.03-.13-.02-.22.04-.25 0 .05 0 .08.02.1.06.05.12.05.17-.03l.55-.77c.19-.26.25-.55.2-.89-.02-.08-.05-.1-.09-.07a.19.19 0 0 1-.04-.1.28.28 0 0 0-.02-.1c-.03-.04-.07-.05-.13-.02 0-.06-.03-.1-.1-.14.08-.03.09-.08.03-.14l-.25-.28a.37.37 0 0 0-.12-.08.71.71 0 0 1-.24-.18.8.8 0 0 0-.14-.12c-.7-.45-1.47-.83-2.3-1.17.73.1 1.45.38 2.16.87a5.25 5.25 0 0 1 1.99 2.37Z" fill="#F1D98C"/><path d="M11.25 4.33s0 .02-.03.03l-.02-.01-.11-.15c-.04-.04-.08-.06-.13-.04-.23.1-.42.03-.57-.2a.14.14 0 0 0-.13-.06h-.62c-.1 0-.14-.04-.14-.14 0-.08.03-.13.08-.16a.14.14 0 0 1 .14 0c.27.15.52.2.75.16.05 0 .1 0 .14.02a3 3 0 0 0 .88.34c.05 0 .13.07.23.17.03.03.03.05 0 .07l-.05.05c-.02.03-.05.03-.07 0a.36.36 0 0 0-.3-.12c-.03 0-.04.01-.05.04Z" fill="#E0B15F"/><path d="M12.9 6.31c0 .03 0 .05-.02.06-.04.03-.07.02-.1-.02a.19.19 0 0 1-.01-.06 6.43 6.43 0 0 0-1.24-1.25 6.27 6.27 0 0 0-2.1-.8 4.4 4.4 0 0 1 3.48 2.07Z" fill="#C39F63"/><path d="M8.34 4.24c.1-.02.15-.02.17 0 .02.02.03.04.02.06-.01.03-.03.04-.05.05l-.28.02c-.16 0-.27.02-.34.04-.87.25-1.63.7-2.27 1.34-.04.04-.1.12-.16.23a.94.94 0 0 1-.2.27c-.08.06-.1.04-.06-.04.08-.2.2-.38.34-.53a4.57 4.57 0 0 1 2.83-1.44Z" fill="#996934"/><path d="M9.86 5.48c0-.14.09-.24.28-.3.06-.19.03-.32-.1-.4a.15.15 0 0 0-.14-.02.63.63 0 0 1-.37.02 3.79 3.79 0 0 0-1.15-.13.8.8 0 0 0-.4.08c-.17.07-.23.18-.2.31 0 .1.11.18.3.27.06.03.07.07.02.11a.67.67 0 0 0-.16.24c.39-.16.83-.23 1.33-.2.05 0 .1.02.13.05.11.07.24.1.4.06.04-.01.06-.04.06-.09Zm.02-.42c0 .12-.42.21-.93.21s-.92-.1-.92-.22.41-.21.92-.21.93.1.93.22Z" fill="#923702"/><path d="M13.1 5.31c.06.03.09.08.09.14l-.05.07a.19.19 0 0 0-.02.13c.02.13 0 .27-.04.42-.01.04-.04.06-.08.06h-.04c-.04-.02-.04-.04-.02-.06.13-.13.13-.26-.01-.38-.04-.03-.04-.06 0-.1l.03-.03c.04-.03.03-.06-.01-.08a.87.87 0 0 0-.31-.06c-.04 0-.06 0-.08-.02a.06.06 0 0 1-.02-.05c0-.03.02-.06.05-.07l.16-.05c.04 0 .05-.03.04-.07l-.02-.04-.04-.03c-.03-.02-.1-.02-.22 0-.05.02-.07 0-.05-.06a.1.1 0 0 0 0-.05c0-.02 0-.03.03-.02l.3.03c.04.01.07.03.09.08.05.11.12.2.22.24Z" fill="#E0B15F"/><path d="M8.5 6.53c-.2.19-.4.33-.62.43-.05-.06-.06-.1-.03-.1-.04-.4-.18-.76-.42-1.1l-.18-.3c-.03-.05-.07-.07-.12-.06a.1.1 0 0 0-.1.1l-.15.75c0 .04 0 .09.03.13.1.15.11.3.03.42a.73.73 0 0 1-.14-.33c-.01-.36.03-.74.11-1.13.02-.1.08-.14.17-.14.13 0 .24.07.35.21.22.27.5.53.87.8.05.03.04.05 0 .07-.1.03-.15.08-.14.14 0 .03.02.05.05.05.18 0 .27.02.28.06ZM10.97 6.8l-.04-1.3a.08.08 0 0 0-.05-.09.08.08 0 0 0-.1.02c-.4.38-.63.85-.72 1.43-.06.02-.14 0-.26-.07-.04-.02-.08-.02-.11.01-.1.09-.2.11-.29.08v-.04c.36-.22.45-.4.25-.52l1.07-1.08a.18.18 0 0 1 .19-.05c.07.02.12.07.14.14.1.44.13.9.05 1.38 0 .05-.03.07-.08.08h-.05Z" fill="#261A19"/><path d="M7.43 5.75a.5.5 0 0 0-.17.35c0 .05.01.1.05.13.1.1.1.23 0 .38 0 .02-.02.02-.06.02-.04 0-.06.01-.06.05v.06c-.01-.07-.03-.11-.06-.13-.05-.03-.08-.02-.08.04l-.02.5a.16.16 0 0 1-.12-.06c-.01-.14 0-.24.03-.3.08-.12.07-.26-.03-.41a.17.17 0 0 1-.03-.13l.15-.76a.1.1 0 0 1 .1-.09c.05 0 .09.01.12.06l.18.3Z" fill="#676B85"/><path d="M4.63 5.82c.13.6.4 1.12.83 1.57.03.03.03.06-.02.08h-.05c-.02.02-.03.01-.05 0a3.8 3.8 0 0 1-.86-1.32c-.05-.67 0-.78.15-.33Z" fill="#6C3407"/><path d="M5.55 7.2c.23.3.51.58.83.85.1.08.19.18.26.29l.22.33.16-.02c.06-.02.08-.06.06-.13l-.03-.1c-.02-.06 0-.1.07-.08.06 0 .1.03.14.08-.03 0-.03.03.01.12.02.04.01.07-.03.09a.35.35 0 0 1-.05.01c-.05.02-.07.05-.04.1l.22.37c.02.04.04.06.08.09l.32.23.12.72c-.07.08-.12.1-.16.08l-.49.47c-.1 0-.08-.1.05-.27a.21.21 0 0 0 .09-.06c.04-.05.03-.09 0-.13l-.43-.42c-.04-.05-.04-.09.01-.13.03-.02.08-.03.14-.03l.37.48c.04.05.08.06.14.03l.12-.07c.05-.03.05-.07.02-.11a.85.85 0 0 1-.15-.43.16.16 0 0 0-.05-.1.82.82 0 0 0-.2-.15c-.1-.05-.23-.17-.37-.34a3.2 3.2 0 0 0-.13-.17c-.13-.08-.27-.07-.43.03-.2-.2-.35-.4-.46-.61.1-.03.2.02.25.12.03.04.06.05.1.01l.03-.03c.02-.02.02-.04 0-.06a.55.55 0 0 0-.24-.2.3.3 0 0 1-.12-.1c-.22-.28-.45-.41-.7-.4l-.36-.37a2.2 2.2 0 0 1-.54-.85c0-.14.03-.2.1-.19.2.5.48.94.86 1.32.02.01.03.02.05 0h.05c.04-.02.05-.05.02-.08-.43-.45-.7-.97-.83-1.57l.04-.23c0-.02.02-.03.04-.03h.04c.05 0 .07.02.06.07-.03.1 0 .17.08.2.05.03.06.07.04.12a.2.2 0 0 1-.07.08v.02c.1.11.15.2.15.26 0 .04.01.07.03.1l.5.78Z" fill="#FCF6C8"/><path d="M12.53 7.33c.5-.47.79-1.03.85-1.66.04-.04.07-.01.09.07.05.34-.01.63-.2.9a46 46 0 0 0-.55.76c-.05.08-.11.08-.17.02-.02 0-.02-.04-.02-.09ZM8.32 5.89c.24.16.52.25.83.24.06.12-.08.17-.43.16-.02.04-.06.03-.11-.04a.9.9 0 0 0-.37-.34l.08-.02Z" fill="#923702"/><path d="M13.83 6.76c-.1 0-.17.08-.17.26a.2.2 0 0 1-.07.14l-.59.6a.13.13 0 0 1-.13.03l-.06-.01c.04-.04 0-.12-.08-.27v-.03c.51-.36.83-.8.95-1.33.04-.16.07-.16.09 0l.06.6ZM4.38 6.34c.1.3.28.6.54.85l.37.37-.06.08a.1.1 0 0 0-.04 0c-.04 0-.05.03-.04.06.02.1.02.16-.02.21a.18.18 0 0 0-.11-.05l-.88-1.14.07-.61c0-.06.02-.07.06-.03.06.05.1.13.1.26Z" fill="#6C3407"/><path d="M9.64 6.32c.2.12.12.3-.25.52.06-.06.04-.12-.05-.16.05-.05.08-.1.08-.13a.11.11 0 0 0-.05-.12.11.11 0 0 0-.12 0c-.26.1-.44.06-.53-.14.35.01.49-.04.43-.15l.5.18Z" fill="#FBC54C"/><path d="M8.72 6.29c.1.2.27.25.53.13a.11.11 0 0 1 .12.01c.04.03.06.07.05.11 0 .05-.03.1-.08.14-.07.06-.12.02-.17-.1-.02-.04-.05-.05-.1-.04-.09.04-.2.04-.3.02a.2.2 0 0 1-.14-.1.3.3 0 0 1-.02-.2c.06.06.1.07.11.03Z" fill="#C77105"/><path d="M8.7 6.82a.28.28 0 0 1-.1.15c-.05.05-.08.04-.1-.03a.25.25 0 0 0-.05-.1c-.05-.05-.09-.05-.11.02l-.04.1-.1.1c-.04.04-.03.07.01.09l.42.15c.08.17.16.17.23 0l.5-.36c-.01-.02 0-.04.04-.06.1.03.2 0 .29-.08.03-.03.07-.03.11 0 .12.06.2.08.26.05.14.08.22.2.25.36 0 .05.04.1.08.12l.08.03c.05.02.06.06.06.11-.04.23.03.43.18.6.04.04.03.08-.01.1-.12.07-.22.1-.28.08a.9.9 0 0 0-.43-.06v-.06c.1.03.14-.04.16-.23.08-.03.1-.1.08-.2-.01-.04-.05-.08-.12-.11 0-.03-.02-.06-.07-.09a.19.19 0 0 0-.1-.03c-.17.01-.36.05-.56.11a.08.08 0 0 0-.06.08c0 .04 0 .07.02.1.02.05.06.05.1.02a.55.55 0 0 1 .22-.1c0 .1.05.14.15.13-.22.03-.37.13-.45.3l-.65.14a.09.09 0 0 0-.06.05l-.03.04c0-.1-.02-.2-.06-.3l.01-.21.07.2c.01.04.03.04.06.01l.03-.03c.02-.01.02-.03 0-.05a.57.57 0 0 1-.06-.26.11.11 0 0 0-.07-.1 1.2 1.2 0 0 0-.81-.08c-.13.1-.18.21-.14.36 0 .03.03.07.07.12.04.06.06.1.05.13-.2.16-.37.19-.5.08-.04-.03-.05-.06-.03-.1.1-.18.15-.36.15-.54a.42.42 0 0 0 .18-.15v-.07c-.02-.03-.04-.05-.05-.04l.12-.14.09-.04a.23.23 0 0 1 .15-.17c.22-.1.43-.24.61-.43.07.05.14.14.21.29Z" fill="#FBC54C"/><path d="M14.22 6.58a.57.57 0 0 0-.22.4l-.8.8a.26.26 0 0 1-.12.07c-.2.04-.36.18-.48.4-.02.03-.01.06.01.07l.05.03h.05l1.06-.91c-.16.3-.4.53-.73.68a.7.7 0 0 0-.27.25.57.57 0 0 1-.17.27.78.78 0 0 1-.26-.08c.11-.14.17-.3.18-.48 0-.05.03-.1.07-.12l.19-.16.03-.02h.06c.05.02.1 0 .13-.03l.6-.6a.2.2 0 0 0 .06-.13c0-.18.06-.27.17-.26a.31.31 0 0 0 .08-.15c.01-.04.11-.05.3-.03Z" fill="#FCF6C8"/><path d="M7.31 6.61c.05.05.09.1.1.16.02.05 0 .08-.05.09-.08.02-.14-.02-.17-.12v-.06c0-.04.02-.06.06-.05.04 0 .06 0 .06-.02Z" fill="#3F3431"/><path d="M3.83 6.65c.06.03.08.05.05.06.2.42.5.77.9 1.05a.1.1 0 0 1 .03.04c.02.05 0 .09-.03.1-.07.03-.08.07-.02.12l.2.16h.06l.03-.04v-.03a.15.15 0 0 0-.09-.03c-.05-.01-.08-.04-.07-.1 0-.06.05-.1.13-.12.05 0 .09.02.11.05.09.2.21.32.37.36.11.03.13 0 .06-.1l-.24-.32c-.02-.08-.02-.14 0-.17.03-.04.06-.04.08 0 .16.28.34.46.56.54.1.21.26.42.46.6.07.2.2.38.38.54.04.03.05.07.02.11 0 .02-.01.03-.03.04-.04.03-.05.07 0 .11.06.06.1.1.1.12.02.06 0 .1-.05.12a.36.36 0 0 0-.15.14c-.03.05-.07.06-.12.02a.6.6 0 0 1-.16-.14.1.1 0 0 0-.12-.05.83.83 0 0 1-.52-.09c-.4-.18-.83-.18-1.28 0a.13.13 0 0 1-.13-.02l-.24-.2-.3-.25-.1-.25c-.03-.08 0-.1.07-.06l.09.04c.05.07.1.1.14.1-.02.07 0 .13.05.18.24.2.5.28.79.24.05 0 .07-.03.05-.08a.51.51 0 0 0-.1-.15c0-.09-.03-.15-.13-.2-.25-.1-.5-.16-.76-.2a1.72 1.72 0 0 1-.36-.4c-.06-.06-.08-.13-.07-.22 0-.04.04-.05.12-.01.35.48.91.7 1.67.65.04 0 .05-.03.02-.06a.62.62 0 0 0-.3-.21c-.42-.1-.8-.25-1.16-.42-.1-.22-.2-.4-.32-.58a.3.3 0 0 1-.06-.2c0-.06.02-.1.07-.1h.1c.06.18.21.37.46.57.4.32.71.52.93.61h.05l.04-.05c.03-.02.02-.04 0-.05A3.59 3.59 0 0 1 3.9 7.4c-.14-.31-.17-.56-.07-.75Z" fill="#470F03"/><path d="m4.14 6.72.88 1.14c-.08.02-.12.06-.13.12 0 .06.02.09.07.1.03 0 .06.01.08.03.01.01.02.02.01.03 0 .02-.02.04-.03.04h-.05l-.2-.16c-.07-.05-.06-.09.01-.12.04-.01.05-.05.03-.1a.1.1 0 0 0-.03-.04c-.4-.28-.7-.63-.9-1.05.03-.1.12-.1.26 0Z" fill="#FCF6C8"/><path d="m14.12 7.86-.22.23a.59.59 0 0 1-.28.16c-.24.06-.47.15-.69.28-.04.02-.06.01-.08-.03v-.06l.3-.2c.22-.14.37-.25.46-.35.22-.23.45-.45.7-.66.04-.04.04-.09 0-.13l-.05-.05a.13.13 0 0 1-.04-.12l.04-.16c.01-.07.03-.08.06-.01l.16.37c.02.05.01.1-.02.13-.17.18-.28.38-.34.6Z" fill="#FCF3B1"/><path d="M3.67 7.3c.05 0 .03.01-.04.04a.22.22 0 0 0-.1 0c-.04 0-.07.04-.07.1 0 .07.01.13.06.2.12.17.22.36.32.58-.22-.06-.3-.05-.23.04-.08-.04-.12-.03-.12 0 0 .1.01.17.07.22v.13c-.02.05-.04.06-.08.03a.2.2 0 0 0-.05-.02c-.04-.01-.07 0-.07.05 0 .15.06.24.2.28.05 0 .08.04.1.08.02.07 0 .1-.07.1a.28.28 0 0 0-.14-.06c-.06 0-.09.02-.08.09 0 .08.05.14.13.17.05.02.07.06.04.1a.17.17 0 0 1-.08.08.14.14 0 0 0-.08.11c-.01.06.01.1.07.12.07.03.07.07.02.12-.12.12-.12.23 0 .32.05.04.07.08.06.14l-.02.3c-.04.03-.07.05-.1.04-.02 0-.03-.03-.04-.07a1.55 1.55 0 0 1-.01-.22c0-.04-.02-.09-.05-.13-.08-.13-.11-.33-.08-.58.04-.25.03-.6-.03-1.07 0-.64.14-1.25.42-1.83.01-.02.03-.03.06-.03.01 0 .03 0 .04.02.02.01.02.03.02.04l-.07.5Z" fill="#F1D98C"/><path d="m8.3 6.96.04-.1c.02-.07.06-.07.1-.02.03.03.05.06.06.1.02.06.05.08.1.03.05-.04.09-.1.1-.15a.38.38 0 0 1 .16-.07c.07-.01.08.01.04.07l-.26.36c-.03.05-.07.05-.1 0a.79.79 0 0 0-.24-.22Z" fill="#470F03"/><path d="M7.84 6.87c-.02 0 0 .03.04.1a.23.23 0 0 0-.15.16l.01-.05c0-.04-.02-.06-.06-.06H7.6c.06-.05.14-.1.24-.15Z" fill="#998E7A"/><path d="m9.36 6.94-.5.37a.2.2 0 0 1-.04 0c-.02 0-.03 0-.03-.02V7.2c.14-.26.33-.35.57-.26Z" fill="#470F03"/><path d="M13.42 6.96c.02-.01.03-.01.04.01l.02.09v.02l-.52.52h-.01l-.04-.04v-.04l.5-.56Z" fill="#FCF3B1"/><path d="M10.92 7.3c-.03-.16 0-.27.1-.32a.35.35 0 0 1 .12-.03c.05 0 .08.02.07.08-.02.15-.11.24-.29.27Z" fill="#FBC54C"/><path d="M14 6.97c-.03.2-.1.35-.23.47l-1.06.9a.04.04 0 0 1-.05 0l-.05-.02c-.02-.01-.03-.04-.01-.06.12-.23.28-.37.48-.41a.26.26 0 0 0 .12-.07l.8-.8Z" fill="#6C3407"/><path d="M5.08 7.53c.01.02.01.03-.01.03l-.08.02-.02-.01-.43-.52.04-.04h.03l.47.52Z" fill="#FCF3B1"/><path d="M7.52 7.31c.01 0 .03 0 .05.04-.06 0-.09.02-.09.04s.03.04.09.03a.42.42 0 0 1-.18.15.9.9 0 0 0-.1-.46c-.02-.05-.01-.08.04-.1L7.37 7c.05 0 .08.03.09.07l.06.24Z" fill="#3F3431"/><path d="m7.73 7.13-.09.04c-.03-.04-.04-.08-.04-.15h.09c.03 0 .05.02.05.06l-.01.05Z" fill="#585857"/><path d="M8.79 7.2v.09c0 .02 0 .03.03.03a.2.2 0 0 0 .04-.01c-.07.16-.15.16-.23 0l.16-.1Z" fill="#923702"/><path d="M7.06 7.73c.12.13.08.27-.11.42-.16-.07-.2-.16-.12-.27a.1.1 0 0 0 0-.12.74.74 0 0 1-.1-.43c.01-.06.04-.07.08-.02.13.11.21.25.25.42Z" fill="#C77105"/><path d="M3.67 7.3c.08 0 .15.04.23.1.32.43.72.77 1.2 1.02.03 0 .04.03.01.05l-.04.04a.05.05 0 0 1-.05.01c-.22-.09-.53-.29-.93-.61-.25-.2-.4-.39-.46-.57.07-.03.09-.04.04-.04ZM12.45 7.57c.03.22 0 .33-.07.31-.04 0-.07-.05-.09-.14 0-.05-.03-.05-.06-.02l-.29.32-.08.05-.26.16c-.02.01-.02.02 0 .04l.03.03h.02c.12-.1.25-.13.38-.1-.1.24-.27.43-.48.59a.15.15 0 0 0-.06.12c0 .08-.03.14-.06.18-.08.1-.13.08-.14-.04 0-.09.03-.2.1-.35l-.01-.04h-.05l-.1.08-.08.06-.05.57c0 .05.02.09.06.11.07.04.11.08.11.13l-.04.04c-.03-.04-.06-.03-.1 0-.02.03-.03.08 0 .15.2.08.24.2.12.32-.03.04-.07.04-.1 0l-.13-.12c-.03-.03-.05-.02-.05.02-.03.14.04.26.2.37.03 0 .05.02.06.03.04.02.03.04-.03.04-.12.01-.23-.04-.33-.16-.05-.05-.14-.05-.27.02-.06.04-.1.05-.13.03-.05-.02-.07-.08-.07-.16.3-.26.5-.5.6-.73.06-.16.05-.35-.04-.57l.07-.34v.04c0 .04.03.05.06.02.1-.07.16-.16.2-.28.1-.16.2-.29.34-.38.17-.11.28-.2.34-.27l.33-.3c.06-.07.1-.08.11-.05.04.08.06.15.04.22ZM14.74 9.06l-.03.56c0 .1-.03.18-.09.22a.16.16 0 0 0-.05.2c.1.3 0 .46-.3.48-.03 0-.04-.01-.04-.04v-.05c0-.04.02-.06.06-.05.16 0 .23-.07.23-.23a.07.07 0 0 0-.04-.06.07.07 0 0 0-.07 0l-.38.23c-.08.05-.11.11-.1.18a.1.1 0 0 0 .09.08c.02 0 .04.02.05.04.03.04.02.08-.03.1-.44.16-.48.27-.12.33-.03.06-.07.07-.13.05a.1.1 0 0 0-.11.03c-.1.09-.17.1-.18.05l.34-.56a.13.13 0 0 0 .01-.11.29.29 0 0 1 .03-.26.16.16 0 0 1 .1-.07c.32-.09.53-.31.64-.69 0-.02 0-.04-.02-.06a.05.05 0 0 0-.07 0l-.11.07a.09.09 0 0 0-.05.05c-.05.2-.12.27-.2.2 0-.15.11-.3.33-.45.05-.04.08-.08.1-.11 0-.05.01-.1.03-.14.03-.08 0-.1-.06-.06-.16.09-.24.1-.25.01.14-.08.25-.2.34-.33a.04.04 0 0 0 0-.05l-.04-.08c-.02-.02-.03-.03-.05 0l-.55.57-.08-.01-.67.22a.22.22 0 0 1-.1-.15c.2-.12.44-.2.68-.23.3-.04.5-.2.56-.47a.12.12 0 0 1 .1-.1c.07-.02.09-.07.06-.15-.01-.05-.04-.05-.08-.02-.17.13-.34.25-.52.35.03-.03.07-.04.1-.03.05.02.05.06 0 .1l-.25.13a.69.69 0 0 1-.26.08l-.88.1c-.06 0-.07-.02-.03-.06l.1-.13a5.48 5.48 0 0 0 1.32-.5l.23-.08c.1-.03.17-.09.21-.18.03-.05 0-.08-.05-.07a.96.96 0 0 0-.16.12c-.04.03-.06.02-.07-.03 0-.03.01-.05.05-.06l.23-.5c.02-.04.04-.04.05 0 .14.54.2 1.08.18 1.62Z" fill="#FCF6C8"/><path d="M4.5 7.64a374.79 374.79 0 0 1 .17.21c0 .03-.02.03-.04.03a.65.65 0 0 1-.21-.17.66.66 0 0 1-.15-.23c-.01-.02 0-.03.02-.03s.03 0 .04.02l.16.17Z" fill="#F1D98C"/><path d="M8.57 7.83a1.16 1.16 0 0 0-.73-.23c-.03 0-.04-.04-.05-.08.27-.07.54-.05.81.07.05.03.07.06.07.11 0 .1.03.18.07.26v.05l-.04.03c-.03.03-.05.03-.06-.01l-.07-.2ZM10.11 7.59l-.45.1a.55.55 0 0 0-.22.09c-.04.03-.08.03-.1-.02a.16.16 0 0 1-.02-.1c0-.04.02-.06.06-.08.2-.06.39-.1.56-.1.03 0 .06 0 .1.02.05.03.07.06.07.09Z" fill="#261A19"/><path d="M11.3 8.35a.57.57 0 0 1-.21.28c-.03.03-.05.02-.06-.02v-.04a.44.44 0 0 0 .05-.1.15.15 0 0 0 0-.11 1.03 1.03 0 0 0-.22-.4.12.12 0 0 1-.03-.13l.08-.22a.32.32 0 0 1 .1-.16c.02-.02.05-.02.1 0l.04.04c.02.02.02.04 0 .06l-.07.07a.11.11 0 0 0-.02.12l.24.61Z" fill="#E0B15F"/><path d="M7.79 7.52c0 .04.02.07.05.08-.1.12-.1.21 0 .28-.01.14.04.21.14.22-.04.06-.07.09-.1.08-.07 0-.11-.02-.11-.05 0-.03 0-.07-.05-.13a.32.32 0 0 1-.07-.12c-.04-.15.01-.27.14-.36Z" fill="#996934"/><path d="M5.96 8.22c-.22-.08-.4-.26-.56-.54-.02-.04-.05-.04-.08 0-.01.03-.02.09 0 .17-.05-.02-.08-.1-.09-.21l.06-.08c.25-.01.48.12.69.4a.3.3 0 0 0 .13.1c.1.05.17.11.24.2v.06l-.05.03c-.03.04-.06.03-.09 0-.06-.11-.14-.16-.25-.13Z" fill="#C39F63"/><path d="M10.11 7.59c.07.03.1.07.12.11.02.1 0 .17-.08.2a.53.53 0 0 0-.34-.1c-.1.02-.15-.02-.15-.12l.45-.1Z" fill="#fff"/><path d="M12.5 7.58c.14-.01.24.06.28.22l-.2.16a.16.16 0 0 0-.06.12.82.82 0 0 1-.18.48.5.5 0 0 0-.16.18c-.02.05 0 .08.05.08.19 0 .31-.07.37-.18.09-.09.15-.18.17-.27.02.05.05.07.08.07v.06c.02.04.04.05.08.03.22-.13.45-.22.69-.28.1-.02.2-.08.28-.16l.22-.23c.03-.01.05-.02.07-.01.03 0 .05.01.06.04 0 .02.02.03.03.05-.04.01-.06.03-.05.06 0 .05.03.06.07.03.09-.08.14-.11.16-.12.06 0 .08.02.05.07a.31.31 0 0 1-.21.18l-.24.08a5.48 5.48 0 0 1-1.32.5l-.1.13c-.03.04-.02.06.04.05l.88-.09c.08 0 .16-.03.26-.08l.24-.13c.06-.04.06-.07 0-.1a3.84 3.84 0 0 0 .43-.33c.04-.02.07-.02.08.03.03.08 0 .13-.06.15a.12.12 0 0 0-.1.1c-.07.27-.26.43-.56.47-.24.04-.47.11-.69.23-.05.02-.08 0-.09-.03a1.37 1.37 0 0 0-.53-.07c-.05 0-.09.03-.1.09 0 .02 0 .04-.02.05-.02.01-.02.03-.02.05 0 .02.02.03.04.03.23.06.45.04.64-.07.08 0 .08.06.01.2-.02.04 0 .07.04.08.4.1.7-.04.9-.4l.54-.57c.02-.02.04-.01.05.01l.05.08v.05c-.1.14-.21.25-.34.33a2 2 0 0 1-.85.77 1.14 1.14 0 0 0-.94-.14c-.33.15-.68.23-1.03.24l-.2.54c-.06-.02-.1-.02-.13 0-.17-.1-.24-.23-.21-.37 0-.04.02-.05.05-.02l.12.12c.04.04.08.04.11 0 .12-.13.08-.24-.12-.32.1.04.17.04.2 0 .13-.02.11-.09-.05-.2 0-.04-.05-.08-.12-.12-.04-.02-.06-.06-.06-.11l.05-.57.07-.06.12-.08h.04v.04a.81.81 0 0 0-.08.35c0 .12.05.14.13.04.03-.04.05-.1.06-.18 0-.05.02-.1.07-.12.2-.16.36-.35.47-.6l.08-.04.17-.12c.01-.1.05-.16.1-.17.08.02.1-.09.08-.3h.03Z" fill="#6C3407"/><path d="m8.57 7.83-.01.22c-.17-.28-.4-.33-.73-.17-.09-.07-.08-.16 0-.27.28-.01.53.06.74.22Z" fill="#8E98A4"/><path d="M5.23 7.64c.01.12.04.19.09.21l.24.33c.07.09.05.12-.06.09-.16-.04-.28-.16-.37-.36.04-.05.04-.12.02-.2 0-.04 0-.06.04-.07a.1.1 0 0 1 .04 0Z" fill="#FCF6C8"/><path d="M8.56 8.05c.04.1.06.2.06.3l-.07.1h-.07c.04-.14 0-.24-.13-.32a.43.43 0 0 0-.37-.03c-.1 0-.15-.08-.15-.22.32-.16.57-.1.73.17ZM10.15 7.9c-.02.19-.07.26-.15.23a.27.27 0 0 0-.06-.11c-.04-.05-.07-.05-.1 0a.24.24 0 0 1-.21.1.15.15 0 0 0-.15.1c-.04.1-.03.17.04.18a.16.16 0 0 0-.05.1.92.92 0 0 1-.11-.38c.08-.18.23-.28.44-.31.13-.01.24.02.35.09Z" fill="#261A19"/><path d="m12.28 8.05-.17.12c-.1-.05-.07-.12.09-.22.04-.02.07-.01.08.04v.06Z" fill="#FCF3B1"/><path d="m10 8.13-.01.06c-.14.13-.3.2-.47.21-.07-.01-.08-.07-.04-.17.03-.07.08-.1.15-.1.09 0 .15-.04.2-.1.04-.06.07-.06.11-.01.03.02.04.06.06.11Z" fill="#2AC5EA"/><path d="M11.94 8.04c.11.04.1.07-.05.12-.03.01-.04-.01-.03-.07l.08-.05Z" fill="#923702"/><path d="M8.48 8.46a1.83 1.83 0 0 1-.6-.28c.03 0 .06-.02.1-.08a.43.43 0 0 1 .37.04c.12.07.17.17.13.32Z" fill="#2AC5EA"/><path d="M9.36 8.12c.01.14.05.27.11.38 0 .11-.04.25-.12.41a.48.48 0 0 0-.18-.07c-.02 0-.04 0-.05.03 0 .02 0 .04.03.05l.03.02c.02.02.02.04 0 .06a.28.28 0 0 1-.28.03c-.07-.02-.09-.06-.04-.1l.03-.05c.07-.07.06-.1-.05-.07l-.2.06a.74.74 0 0 1-.19-.31c0-.04 0-.06.04-.06s.06-.01.06-.04l.07-.12.03-.04a.09.09 0 0 1 .06-.05l.65-.13ZM5.27 8.25c.22.12.38.26.5.44.01.02.01.05 0 .07a.06.06 0 0 1-.05.03c-.17.01-.3-.06-.36-.2a.41.41 0 0 0-.06-.1.59.59 0 0 1-.1-.17c-.03-.09 0-.1.07-.07Z" fill="#F1D98C"/><path d="M12.14 8.54a.33.33 0 0 1-.05.04c-.06.03-.09.02-.08-.05.01-.1.07-.18.17-.24.07-.04.1-.02.1.06 0 .04 0 .07-.03.1l-.1.09Z" fill="#FCF3B1"/><path d="m7.26 8.42.06.04c.11.08.2.12.28.13l.58.1c.05.02.08.05.1.1l.12.37c0 .08-.03.17-.07.27-.02.06-.01.1.03.15l.31.31c.03.03.07.05.12.05h.31c.04 0 .06.02.06.05 0 .03 0 .05-.04.07-.15.05-.27.18-.36.39a.15.15 0 0 0 0 .13l.02.04c.02.07 0 .1-.07.08a.63.63 0 0 1-.37-.2c.08 0 .07-.05-.03-.13a.19.19 0 0 1-.07-.12c-.03-.18-.06-.3-.1-.39-.06-.15-.19-.3-.37-.43l-.32-.23a.25.25 0 0 1-.08-.09l-.22-.38c-.03-.04-.01-.07.04-.09l.05-.01c.04-.02.05-.05.03-.09-.04-.09-.04-.13 0-.12Z" fill="#676B85"/><path d="M3.92 8.9c-.02 0-.04.04-.04.1l-.1-.04c-.07-.04-.1-.02-.06.06l.1.25.02.24a.32.32 0 0 0-.14-.07c0-.04-.03-.07-.1-.1-.05-.01-.07-.04-.06-.1 0-.03.02-.07.04-.1.08-.01.1-.04.08-.1a.12.12 0 0 0-.1-.1c-.14-.03-.21-.12-.2-.27 0-.05.02-.06.07-.05a.2.2 0 0 1 .04.02c.04.03.07.02.08-.03a.31.31 0 0 0 0-.13c.1.15.22.3.37.42Z" fill="#996934"/><path d="M11.73 8.86c.07-.1.14-.15.2-.17.02-.01.04 0 .06.01.01.02.02.03.01.06-.05.14-.13.2-.25.17-.04 0-.05-.03-.02-.07Z" fill="#FCF3B1"/><path d="M9.35 8.9c.02.16-.07.36-.25.64.14.13.05.2-.3.2h-.05a.09.09 0 0 1-.02-.08c0-.02 0-.03.02-.04l.16-.1a.08.08 0 0 0 .03-.1c0-.04-.03-.06-.07-.07-.19-.02-.28-.11-.27-.29l.05-.2.2-.05c.1-.02.11 0 .04.07l-.03.04c-.05.05-.03.09.04.11.1.04.2.03.28-.03.02-.02.02-.04 0-.06a.14.14 0 0 0-.04-.02c-.02-.01-.02-.03-.02-.05.01-.02.02-.03.05-.03.05 0 .1.03.18.07Z" fill="#261A19"/><path d="m6.85 8.8.14.17c.13.17.25.3.35.34.08.04.15.09.21.15.03.03.05.06.05.1.02.19.07.33.15.43.03.04.03.08-.02.1l-.12.08c-.06.03-.1.02-.14-.03l-.37-.48a1.46 1.46 0 0 0-.25-.5.14.14 0 0 1-.02-.12c.01-.06-.01-.1-.07-.14-.07-.03-.07-.06 0-.1a.16.16 0 0 1 .1 0Z" fill="#C77105"/><path d="M9.7 9.16c-.04 0-.05 0-.04-.05l.03-.15c0-.07.05-.1.12-.1l.44-.05c.2-.01.23.04.07.16-.05.03-.26.1-.62.19Z" fill="#8E98A4"/><path d="M3.92 8.9c.26.03.51.1.76.2.1.04.14.1.12.2v.03c0 .01 0 .02-.03.02l-.75-.25c-.04 0-.1-.03-.14-.1 0-.06.02-.1.04-.1Z" fill="#FCF3B1"/><path d="M5.96 9.07c0 .04 0 .06-.03.08a.07.07 0 0 1-.07 0l-.27-.1a.06.06 0 0 1-.03-.06c0-.02 0-.04.03-.05.17-.09.3-.04.37.13Z" fill="#FCF6C8"/><path d="m10.4 10.2-.14.02c.02-.06 0-.1-.03-.14-.04-.04-.07-.04-.1 0l-.32.3c-.05.06-.07.05-.06-.03.02-.2.1-.46.22-.75l.01-.13c.01-.06.04-.08.1-.09l.21-.02-.03.25c0 .04-.02.07-.06.1a.22.22 0 0 0-.08.2c0 .09.03.1.08.04a.5.5 0 0 0 .12-.21c.03-.12.05-.2.08-.24.02-.05.09-.1.18-.15a.87.87 0 0 0 .38-.44c.09.22.1.41.04.57-.09.23-.29.47-.6.73Z" fill="#C77105"/><path d="M12.05 9.13a.35.35 0 0 1-.04-.14c.08-.06.21-.08.4-.06.02 0 .04 0 .04.03v.06a.38.38 0 0 1-.4.1Z" fill="#FCF6C8"/><path d="m14.17 9.74.07.06c-.13-.01-.24.05-.32.18 0-.06-.14-.08-.4-.06 0-.06 0-.1-.04-.15a2 2 0 0 0 .85-.77c0 .08.09.08.24 0 .06-.04.09-.03.06.05l-.04.14c0 .03-.04.07-.1.1-.2.16-.31.3-.32.45Z" fill="#C39F63"/><path d="m12 9 .05.13c-.17.04-.32.12-.46.23a.13.13 0 0 0-.04.12v.06c0 .02-.02.04-.05.04-.02 0-.03 0-.03-.03.04-.07.04-.13 0-.18l.15-.21a.15.15 0 0 1 .11-.07c.11 0 .2-.04.27-.1ZM5.67 9.43c-.26 0-.44-.02-.55-.06-.06-.03-.14-.1-.23-.24-.03-.05-.01-.07.04-.07h.43c.04 0 .08.01.12.05l.27.27c.03.03.06.03.1.02.15-.04.29.02.4.2.02.03.01.05-.03.05-.2.01-.35-.04-.43-.16a.13.13 0 0 0-.12-.06Z" fill="#FCF3B1"/><path d="m10.29 9.36-.22.02c-.05 0-.08.03-.1.09v.13c-.23.05-.44.2-.61.43-.16.22-.3.4-.44.52a.1.1 0 0 0-.03.12c.04.13.15.2.32.23a.35.35 0 0 1-.12.17.11.11 0 0 1-.13 0l-.64-.36c-.05-.03-.09-.02-.12.04-.1.2-.15.43-.13.67a.6.6 0 0 1-.27-.08 3.74 3.74 0 0 1 0-1.02l-.07-.09c.04.03.1 0 .16-.08a.9.9 0 0 0 .45.36c.1.1.22.17.37.2.06 0 .09-.02.07-.09l-.01-.04a.15.15 0 0 1-.01-.13c.09-.21.2-.34.36-.4.04 0 .05-.03.04-.06 0-.03-.02-.05-.06-.05H8.8a.15.15 0 0 1-.12-.05l-.3-.31a.13.13 0 0 1-.04-.15c.04-.1.06-.19.07-.27.05.05.12.01.2-.1 0 .18.08.27.27.3.04 0 .06.02.07.06.01.04 0 .07-.03.1l-.16.1a.06.06 0 0 0-.02.04c0 .03 0 .06.02.08h.05c.35 0 .45-.07.3-.2.21-.06.35-.05.42.02.03.04.06.04.1.02a.53.53 0 0 0 .17-.13c.07-.08.12-.13.14-.13a.3.3 0 0 1 .12 0c.05 0 .1 0 .13-.04.12-.13.26-.2.43-.22.07-.01.08.01.04.07a.66.66 0 0 1-.36.23Z" fill="#8E98A4"/><path d="M13.07 9.14c-.01.06 0 .1.01.08-.2.1-.41.13-.64.07a.05.05 0 0 1-.04-.03l.01-.05a.09.09 0 0 0 .04-.05c0-.06.04-.09.1-.1.18 0 .36.02.52.08Z" fill="#FCF6C8"/><path d="M3.59 9.13a.31.31 0 0 0-.05.12c0 .05.01.08.06.1.07.02.1.05.1.1a.48.48 0 0 0-.17.2c-.02.06 0 .09.06.1h.04c.05-.01.09 0 .1.06.03.1.05.14.06.14.2.05.24 0 .1-.17-.03-.04-.04-.13-.05-.27l-.03-.24.31.26c-.04.09-.04.2 0 .35a5.04 5.04 0 0 0 4.04 3.85 5 5 0 0 0 5.57-3.65c.01-.03 0-.06 0-.07-.04-.05-.07-.04-.09 0l-.08.2-.67.14a.52.52 0 0 0-.21-.1c-.03-.05-.03-.08 0-.1 0-.02.03-.03.07-.03.27 0 .52-.06.73-.2a.3.3 0 0 1 .03 0c.27-.02.4 0 .4.05-.02.17.09.11.33-.17l-.07-.06c.08.08.15.02.2-.19l.05-.05.12-.07a.05.05 0 0 1 .06 0c.02.02.03.04.02.06-.11.38-.32.6-.64.69a.16.16 0 0 0-.1.07.29.29 0 0 0-.03.26c.02.04.01.08 0 .11l-.35.56-.6.92c-.07.11-.25.28-.54.5a.55.55 0 0 0-.15.18.35.35 0 0 1-.17.12.29.29 0 0 0-.15.11l-.48.3c.04.23-.12.32-.47.26a.66.66 0 0 0-.33.14.23.23 0 0 1-.12.05l-1.78.25a.24.24 0 0 1-.08-.05 6.16 6.16 0 0 1-2.48-.86c-.1-.06-.17-.04-.2.05-.06-.01-.09-.04-.1-.08.1-.03.15-.06.13-.08a.97.97 0 0 0-.5-.37.18.18 0 0 1-.1-.09 2.83 2.83 0 0 0-.36-.48c-.12-.13-.23-.3-.34-.49a18.2 18.2 0 0 0-.56-.99c.02-.2-.04-.35-.18-.46a.12.12 0 0 0-.12-.02l-.07.02a.05.05 0 0 0-.03.04c0 .02 0 .04.02.05.17.11.26.23.26.37a.3.3 0 0 0-.06.22l-.07.02a.09.09 0 0 0-.07.09c-.01.04 0 .07.04.1l.33.18c.02.01.02.03 0 .05-.29.2-.42.38-.41.5-.06-.03-.12 0-.16.06a.23.23 0 0 0-.07-.12l.1-.1.2-.3a.09.09 0 0 0 0-.1.34.34 0 0 0-.06-.08c-.07-.05-.1-.1-.11-.15-.01-.06.02-.1.08-.14a.05.05 0 0 0 .03-.05l-.01-.04-.06-.02c-.05 0-.1.01-.14.03l-.05-.1.02-.3c0-.06-.01-.1-.06-.14-.12-.09-.12-.2 0-.32.05-.05.05-.09-.02-.12-.06-.02-.08-.06-.07-.12 0-.05.03-.09.08-.1a.17.17 0 0 0 .08-.08c.03-.05.01-.1-.04-.11-.08-.03-.13-.1-.13-.17s.02-.1.08-.09c.04 0 .09.03.14.06Z" fill="#6C3407"/><path d="M6.22 9.12c.05.02.08.04.09.07 0 .04-.02.07-.09.07a.65.65 0 0 0-.36-.1l.07-.01c.02-.02.03-.04.03-.08l.26.05Z" fill="#E0B15F"/><path d="M13.94 9.1a.6.6 0 0 1-.67.22l.67-.22Z" fill="#996934"/><path d="M4.8 9.3c.05.04.08.09.1.14.03.05.01.07-.04.08a.96.96 0 0 1-.79-.24c-.06-.05-.07-.1-.05-.18l.75.25c.02 0 .03 0 .04-.02v-.04ZM6.22 9.26c.07 0 .1-.03.09-.07-.01-.03-.04-.05-.09-.07.12.03.23.13.33.32.02.03.02.06.01.09-.01.05-.04.06-.08.02l-.26-.29Z" fill="#998E7A"/><path d="M11.47 9.37c.04.05.04.11 0 .19-.09-.12-.09-.18 0-.19Z" fill="#F1D98C"/><path d="M11.94 9.36c.08 0 .17.03.25.11.04.04.03.07-.02.1a.8.8 0 0 1-.4.06c-.05-.02-.06-.04-.04-.09.06-.1.13-.16.21-.18Z" fill="#FCF6C8"/><path d="M3.84 9.51c0 .14.02.23.06.27.13.16.09.22-.11.17l-.06-.14c-.01-.05-.05-.08-.1-.07h-.05c-.05 0-.07-.04-.05-.09a.48.48 0 0 1 .17-.2c.04 0 .1.02.14.06Z" fill="#F1D98C"/><path d="M8.34 10.5a.9.9 0 0 1-.45-.35l-.11-.72c.17.13.3.28.37.43.03.08.06.21.09.39 0 .05.03.09.07.12.1.08.12.13.03.14Z" fill="#6C3407"/><path d="M13.48 9.77c.03.04.04.1.03.15a1.76 1.76 0 0 1-.97-.29c.3-.1.61-.05.94.14Z" fill="#FCF6C8"/><path d="m11.32 9.82-.09-.15.05-.04c.16.1.18.16.04.19ZM12.54 9.63c.28.19.6.28.94.3-.21.13-.46.2-.73.2-.04-.01-.07 0-.08.01-.02.03-.02.06 0 .1l-.1.02c0-.1-.06-.16-.2-.19.06-.05.08-.1.05-.14-.04-.07-.11-.05-.22.05-.1-.05-.2-.03-.33.06-.04.03-.07.04-.1.04-.04 0-.07-.03-.08-.09a.57.57 0 0 0-.18-.12c.35-.01.7-.09 1.03-.24Z" fill="#C39F63"/><path d="m11.23 9.67.09.15c-.02.04-.09.04-.2 0-.02-.07-.01-.12.02-.15s.06-.04.1 0Z" fill="#923702"/><path d="M5.44 10.25a.32.32 0 0 0-.32.05.15.15 0 0 1-.13.03l-.54-.14a.31.31 0 0 1-.08-.22c0-.05.03-.07.07-.04.4.18.83.24 1.3.19l.02.01.03.09c0 .02 0 .03-.03.03h-.32Z" fill="#470F03"/><path d="M11.51 9.87c.1.05.15.09.18.12l-.05.01c-.04.01-.06.04-.06.08 0 .16-.06.27-.2.35-.05.02-.07.02-.07-.02l.2-.54Z" fill="#E0B15F"/><path d="M12.37 10.07a.38.38 0 0 0-.31.21c-.02.05-.01.06.03.04a.8.8 0 0 1 .48-.06l.1-.02c.08.02.15.06.22.11l.17.17c.1.16.07.2-.11.15-.24-.08-.41-.08-.5 0a.66.66 0 0 1-.44-.21c0-.05-.05-.07-.14-.06a.13.13 0 0 1-.08-.11l.4-.31c.12-.1.2-.12.23-.05.03.04.01.1-.05.14Z" fill="#FCF3B1"/><path d="M7.3 10.43c-.14.18-.16.27-.06.27-.06.02-.1.04-.1.07-.2-.07-.47 0-.8.19-.22 0-.37-.07-.47-.22-.03-.04-.06-.05-.1-.02a.12.12 0 0 0-.04.07.11.11 0 0 1-.1.08l-.88.15a.45.45 0 0 0-.07-.2c.2-.09.45-.14.75-.15.24.03.44-.06.6-.25a.04.04 0 0 1 .04-.01h.06c.04.02.05.03.01.06-.06.05-.1.11-.13.18-.02.05 0 .07.06.06l.16-.06c.04-.01.07 0 .09.05l.02.05c.01.06.05.08.1.06.06 0 .1-.06.15-.15a.06.06 0 0 0 0-.07.07.07 0 0 0-.06-.03h-.1c-.03 0-.06-.02-.07-.06-.03-.13-.11-.22-.26-.25-.07-.01-.16-.1-.26-.27-.02-.03-.01-.04.02-.04h.07c.01 0 .03 0 .04.02.12.17.24.2.37.08.05-.04.08-.04.12 0 .05.07.04.14-.03.23a.05.05 0 0 0 0 .04v.05c.02.03.03.03.05 0 .06-.05.1-.12.1-.2 0-.07.04-.09.1-.06.06.04.14.03.25-.01.05-.02.08 0 .1.05 0 .06-.03.12-.12.2-.02.01-.03.03 0 .06 0 .01.01.02.03.02h.03c.08-.09.16-.13.24-.13.06 0 .1.05.08.14ZM12.2 9.98l-.4.3c-.08 0-.13.01-.18.03-.04.02-.06.05-.04.1.02.1 0 .15-.05.18-.06-.03-.1-.04-.14-.01-.03.02-.03.05-.01.09.02.02.03.05.02.08-.02.05-.04.06-.08.02-.15-.11-.28-.14-.4-.06-.1-.09-.11-.22-.05-.39.1.12.21.17.33.16.06 0 .07-.02.03-.04a.32.32 0 0 0-.05-.03c.03-.02.07-.02.13 0 0 .04.02.04.07.02a.35.35 0 0 0 .2-.35c0-.04.02-.07.06-.08h.05c0 .05.04.08.09.08.02 0 .05-.01.09-.04.13-.1.24-.11.33-.06Z" fill="#470F03"/><path d="M3.6 10.12a.08.08 0 1 0 0-.17.08.08 0 0 0 0 .17Z" fill="#FCF3B1"/><path d="M10.23 13.61a.8.8 0 0 1-.05 0c-.02-.01-.02-.02-.02-.04a.1.1 0 0 0-.02-.07c1-.28 1.82-.8 2.48-1.55.42-.51.73-1.1.94-1.75l.08-.19c.02-.04.05-.05.08 0 .02.01.02.04.01.07a5 5 0 0 1-3.5 3.53Z" fill="#F1D98C"/><path d="M12.37 10.07c.13.03.2.09.2.2a.8.8 0 0 0-.48.05c-.04.02-.05 0-.03-.04.06-.12.16-.19.3-.2Z" fill="#470F03"/><path d="M4.12 10.57c-.05.02-.09.02-.12 0 0-.14-.1-.26-.26-.37a.05.05 0 0 1-.02-.05c0-.02.01-.03.03-.04l.07-.02c.04-.01.08 0 .12.02.13.1.2.26.18.46Z" fill="#F1D98C"/><path d="M10.4 10.2c0 .1.02.15.07.17.02.02.07 0 .13-.03.13-.07.22-.07.27-.02-.06.17-.05.3.04.39.1.1.22.17.37.23.05.02.1.02.14 0a.61.61 0 0 0 .3-.26c.11-.01.18.02.23.09.03.04.01.07-.03.09-.42.13-.5.21-.27.26-.16-.01-.2.03-.11.14l-.36.04c-.11-.1-.35-.05-.71.14-.03.14.1.3.4.5-.03.16-.09.32-.17.45-.03.03-.06.04-.1.02-.1-.05-.17-.1-.18-.16 0-.06-.04-.09-.1-.08h-.2c-.05 0-.08.04-.07.11v.07c0 .05-.03.09-.09.1a.1.1 0 0 1-.09 0c.07-.33.15-.64.25-.94a.24.24 0 0 0 0-.13.42.42 0 0 1 0-.14l.13-1.02.15-.01Z" fill="#756A5A"/><path d="M13.55 10.2a5.2 5.2 0 0 1-.93 1.75.62.62 0 0 1-.18-.27c-.01-.04 0-.07.04-.1l.04-.01c.05-.03.06-.07.02-.11-.04-.08-.1-.12-.17-.12-.11 0-.18-.02-.2-.05l-.38-.15-.14-.02c-.23-.05-.15-.13.26-.26.05-.02.07-.05.04-.1-.05-.06-.12-.1-.22-.08-.04-.04-.1-.07-.2-.09.06-.03.07-.09.04-.18-.01-.05 0-.08.05-.1.05-.02.1-.02.17-.02 0 .05.03.09.08.11l-.03.05c-.04.04-.03.07.03.08.07.01.12.05.14.13.01.04.04.06.1.07.07 0 .12.02.12.07-.1 0-.16.03-.21.08-.04.04-.03.07.01.1.17.11.3.15.41.11.1.16.22.23.33.2.21-.04.21-.09 0-.15a.65.65 0 0 1-.23-.16.08.08 0 0 0-.08-.02c-.02 0-.03 0-.04.02a.14.14 0 0 1-.05-.04c-.03-.03-.02-.06.02-.08l.05-.01c.2-.03.36.01.49.12.02.02.06.03.09.02a.1.1 0 0 0 .07-.06c.03-.05.04-.1.03-.13 0-.03-.03-.06-.1-.06a8.32 8.32 0 0 0-.57-.06c.09-.1.26-.1.5-.01.18.06.21 0 .1-.15a1.28 1.28 0 0 0-.17-.17l.67-.15Z" fill="#C39F63"/><path d="M7.73 10.23c.05.05.07.08.07.1-.05.33-.05.67 0 1.01l.15.82-.22-.27c-.05-.05-.07-.05-.07.03 0 .13-.03.28-.09.44a.1.1 0 0 1-.04.05c-.04.02-.06.08-.05.18 0 .05-.02.06-.06.05l-.06-.02a.14.14 0 0 1-.06-.08c-.12-.24-.21-.47-.29-.7-.01-.05-.04-.07-.09-.06-.34.1-.67-.09-.97-.53l1.18-.48c.01-.03.05-.05.11-.07l.5-.47Z" fill="#3F3431"/><path d="M3.66 10.36c.11.03.17.08.17.16 0 .07-.03.08-.09.06-.05-.02-.1-.07-.13-.15-.02-.06 0-.08.05-.07Z" fill="#FCF3B1"/><path d="M12.45 10.68c.2 0 .4.03.58.06.06 0 .1.03.1.06s-.01.08-.04.13a.1.1 0 0 1-.07.06.1.1 0 0 1-.1-.02.59.59 0 0 0-.48-.12.24.24 0 0 1-.2-.05c-.01-.05-.05-.07-.14-.07-.04 0-.07-.03-.09-.08-.02-.07-.06-.1-.14-.12-.06-.01-.07-.04-.03-.08l.03-.05c.09 0 .13.01.14.06.13.13.28.2.44.22Z" fill="#470F03"/><path d="M10.67 10.47c0-.03.03-.05.07-.06.03 0 .06.02.08.05l-.01.1c-.03.06-.06.07-.1.03a.1.1 0 0 1-.04-.12Z" fill="#F1D98C"/><path d="M4 10.57c.03.02.07.02.12 0a.3.3 0 0 1 .05.12c-.01.1-.09.13-.23.1a.3.3 0 0 1 .06-.22Z" fill="#FCF3B1"/><path d="M11.53 10.59c.1.02.16.05.2.1a.61.61 0 0 1-.3.25.19.19 0 0 1-.15 0 .99.99 0 0 1-.37-.23c.13-.08.26-.05.4.06.04.04.07.03.09-.02 0-.03 0-.06-.02-.08-.03-.04-.02-.07 0-.1.04-.02.09-.01.15.02Z" fill="#F1D98C"/><path d="M14.42 10.95a.22.22 0 0 1-.07-.08c-.03-.04-.06-.05-.1-.03l-.22.16c0-.18.08-.26.23-.26.05 0 .08-.02.1-.06l.05-.07c.06-.1.08-.08.06.02l-.05.32Z" fill="#FCF3B1"/><path d="M3.62 11.57c-.04 0-.07 0-.09-.03-.03-.04-.03-.07.02-.1.06-.04.1-.1.1-.17.01-.05 0-.09-.04-.13-.11-.13-.13-.27-.05-.42a.35.35 0 0 1 .13-.03c.03 0 .05 0 .06.02l.02.04c0 .03 0 .04-.03.05-.07.03-.1.08-.08.14 0 .05.04.1.1.15l.08.08c.02.04.02.07 0 .1l-.22.3Z" fill="#F1D98C"/><path d="M5.85 13.07c-.08-.04-.13-.02-.15.04-.06-.08-.1-.1-.14-.08.01-.14-.07-.28-.25-.44l-.3-.4a.14.14 0 0 0-.12-.05h-.24a.13.13 0 0 1-.1-.05.68.68 0 0 0-.2-.15c-.05-.03-.05-.06 0-.1.1-.06.1-.16 0-.28a.15.15 0 0 0 .02-.08c0-.03 0-.05-.03-.07-.02-.01-.05 0-.08.02-.05-.05-.1-.06-.13-.01a.83.83 0 0 1-.37.3c-.02-.12.12-.28.4-.5.03-.01.03-.03 0-.04L3.84 11a.1.1 0 0 1-.05-.1c0-.04.03-.07.08-.08l.07-.02c.14.03.22 0 .23-.1.18.28.35.58.51.87.11.2.22.36.34.5.17.19.3.35.36.47.02.04.06.07.1.09.2.06.36.18.5.37.01.02-.03.05-.13.08Z" fill="#C39F63"/><path d="M9.22 10.9a.2.2 0 0 1 .14-.06c.06 0 .1.03.12.09.02.05.06.1.12.14.02.01.04.01.07 0a.06.06 0 0 0 .03-.05v-.1c0-.02 0-.03-.02-.03l-.04-.02c-.09-.03-.1-.07-.02-.1.08-.05.13-.03.16.05.13.35.1.65-.08.92-.02.04-.04.04-.08.02l-.52-.3a.27.27 0 0 0-.3 0l-.5.28c-.04.03-.08.02-.12-.02a.67.67 0 0 1-.1-.3c-.03-.24.02-.47.12-.67.03-.06.07-.07.13-.04l.63.37c.04.02.09.02.13 0 .06-.05.1-.1.13-.18Z" fill="#261A19"/><path d="M6.34 10.96a.46.46 0 0 0-.32.12.16.16 0 0 1-.07.04c-.05 0-.08 0-.1-.04v-.06l.06-.05c.03-.03.03-.05 0-.08-.05-.03-.11-.03-.2.02a.13.13 0 0 0-.07.12c0 .1.07.19.21.24-.07.02-.1.08-.07.18.02.05 0 .07-.05.06a.19.19 0 0 1-.07-.03l-.2-.21c-.02-.04-.02-.07 0-.1a.12.12 0 0 1 .08-.05c.03-.01.05-.03.05-.07 0-.01 0-.03-.02-.04-.03-.06-.08-.06-.12-.02a.51.51 0 0 1-.38.12c-.04 0-.06.01-.04.05l.01.06c.02.04.05.07.1.06.2 0 .33.1.38.33h-.05c-.02 0-.04.01-.04.04l-.03.14c-.01.07-.04.08-.1.03a2.64 2.64 0 0 1-.55-.8l.88-.15c.05-.01.08-.04.1-.08 0-.03.02-.05.04-.07.04-.03.07-.02.1.02.1.15.25.22.47.22Z" fill="#C39F63"/><path d="m7.13 10.77-1.18.48c.04.03 0 .04-.1.02-.14-.05-.21-.13-.21-.24 0-.06.02-.1.07-.12.09-.05.15-.05.2-.02.03.03.03.05 0 .08l-.05.05c-.02.02-.02.04 0 .06.01.03.04.05.09.04l.07-.04c.1-.08.2-.12.32-.12.33-.2.6-.26.79-.2Z" fill="#F1D98C"/><path d="M12.23 10.8c.06.05.13.06.21.05h-.05c-.04.03-.05.06-.02.09l.05.04.02.11c-.1.04-.24 0-.4-.11-.05-.03-.06-.06-.02-.1.05-.05.12-.08.21-.08Z" fill="#FCF3B1"/><path d="m12.44 11.1-.02-.12a.07.07 0 0 1 .04-.02c.03 0 .06 0 .08.02.1.09.17.14.24.16.2.06.2.11 0 .15-.12.03-.23-.04-.34-.2Z" fill="#261A19"/><path d="M5.66 11.48c-.07 0-.1.05-.1.16-.03-.04-.04-.04-.04-.03-.05-.22-.17-.33-.38-.33-.05 0-.08-.02-.1-.06l-.01-.06c-.01-.04 0-.05.04-.05.15 0 .28-.04.38-.12.04-.04.09-.04.12.02l.02.04c0 .04-.02.06-.05.07a.12.12 0 0 0-.07.04c-.03.04-.03.07 0 .1l.2.22Z" fill="#470F03"/><path d="M14.34 11a.4.4 0 0 1-.1.3c-.1 0-.13-.02-.1-.04.07-.15.13-.24.2-.26Z" fill="#FCF3B1"/><path d="m11.65 11.12.14.02.03.08c0 .03-.02.04-.05.05a.47.47 0 0 1-.2.01.76.76 0 0 0-.03-.02c-.1-.11-.05-.15.11-.14Z" fill="#3F3431"/><path d="M12.16 11.3c-.07 0-.12.03-.14.09a.93.93 0 0 0-.45-.1c.08 0 .14 0 .2-.02.03 0 .05-.02.05-.05a.15.15 0 0 0-.03-.08l.37.15Z" fill="#585857"/><path d="M7.07 11.4h-.24c-.02 0-.04-.01-.04-.04v-.05c0-.05.02-.07.07-.07.23 0 .42.08.56.22.05.04.04.06-.02.06a.32.32 0 0 1-.18-.07.25.25 0 0 0-.15-.05Z" fill="#261A19"/><path d="M9.64 11.3c.03-.04.07-.03.09.01.02.04 0 .09-.07.14a.09.09 0 0 1-.1 0 .11.11 0 0 1-.05-.05c-.02-.04 0-.07.04-.07s.06-.02.09-.04Z" fill="#756A5A"/><path d="M11.18 11.3c-.1.1-.23.14-.4.14a.05.05 0 0 0-.05.03.05.05 0 0 0 0 .06c.04.05.09.08.16.11s.07.05-.01.05c-.1 0-.24-.08-.4-.25.35-.19.59-.23.7-.14Z" fill="#261A19"/><path d="M14.15 11.26c-.04.02 0 .03.09.05-.07.03-.1.08-.07.16v.05c0 .03-.03.04-.05.05-.03 0-.05 0-.06-.03a.67.67 0 0 0-.13-.18c.04-.07.12-.1.22-.1Z" fill="#F1D98C"/><path d="M5.95 11.25c.3.44.63.62.97.53.05-.01.08 0 .1.05.07.24.17.47.28.71l.06.08.06.02c.04.01.06 0 .06-.05-.01-.1 0-.16.05-.18a.1.1 0 0 0 .05-.05c.05-.16.08-.3.08-.44 0-.08.02-.08.07-.03l.22.27c.16.5.44 1 .86 1.47a4.84 4.84 0 0 1-3.06-1.23 1.25 1.25 0 0 1-.3-.36.11.11 0 0 1 0-.12c.07-.1.1-.19.1-.28 0-.11.04-.16.12-.16l.06.03c.05.01.07-.01.05-.06-.03-.1 0-.16.08-.18.1.02.13 0 .09-.02Z" fill="#261A19"/><path d="m11.54 11.26.03.02c.18 0 .33.04.46.1l.1.32c.02.05.01.1-.02.13a.69.69 0 0 0-.15.25c-.03.06-.04.06-.04-.01 0-.08.03-.2.09-.35.02-.05 0-.07-.05-.08-.1-.02-.15.03-.17.14a.14.14 0 0 1-.1.12l-.48.15a.11.11 0 0 0-.08.08l-.15.48c0 .03-.02.04-.05.05l-.07.02c-.03.01-.05 0-.05-.04.02-.16.06-.31.13-.46.1-.2.08-.29-.07-.25-.3-.19-.43-.35-.4-.5.17.18.3.27.41.26.08 0 .08-.02 0-.05a.36.36 0 0 1-.15-.1.05.05 0 0 1 0-.07.05.05 0 0 1 .05-.03c.18 0 .3-.05.4-.14l.36-.04Z" fill="#998E7A"/><path d="M12.17 11.3c.02.02.09.04.2.04.07 0 .13.04.18.12.03.04.02.08-.03.1l-.04.03c-.04.02-.05.05-.04.1.03.09.1.17.18.26a5.02 5.02 0 0 1-2.48 1.55l-1.01.16c.35-.4.6-.8.75-1.22a.1.1 0 0 0 .08.01c.06-.01.08-.05.09-.1v-.07c0-.07.02-.1.07-.1l.2-.01c.06 0 .1.02.1.08.01.06.07.11.18.16.04.02.07.01.1-.02.08-.13.14-.29.17-.46.15-.04.17.04.07.25-.07.15-.11.3-.12.46 0 .04 0 .05.04.04l.08-.02c.02-.01.03-.02.04-.05l.15-.48a.11.11 0 0 1 .08-.08l.47-.15c.06-.02.1-.06.1-.12.03-.1.09-.16.18-.14.05 0 .07.03.05.08-.06.16-.09.27-.09.35 0 .07.01.07.04 0 .03-.09.08-.17.15-.24a.12.12 0 0 0 .02-.13l-.1-.31c.02-.06.06-.09.14-.1Z" fill="#3F3431"/><path d="M13.89 11.43c.01.1.05.17.13.22a.1.1 0 0 1 .03.12c0 .04-.04.07-.1.1-.01-.23-.13-.36-.33-.38-.08-.01-.09-.04-.03-.09a.16.16 0 0 0 .03-.04c.02-.04.05-.05.09-.02.06.04.12.08.18.1ZM4.35 11.56a.67.67 0 0 0-.21.19.09.09 0 0 0-.01.1l.25.44c.04.06.08.07.14.04l.09-.06.06.02.02.03c0 .03 0 .05-.03.07-.08.04-.12.07-.13.1-.01.04.01.08.07.1a.8.8 0 0 1 .24.2.1.1 0 0 0 .1.03.2.2 0 0 0 .04 0c.02-.01.05-.01.07 0l.36.25c.04.02.04.04 0 .07l-.03.04c-.01.02-.03.02-.05 0a.2.2 0 0 1-.09-.1c-.01-.04-.04-.05-.07-.03l-.03.02c-.02.01-.02.02 0 .04.12.13.26.26.4.38.1.1.2.13.27.08.04.05.06.06.05.03l-.05.16a.49.49 0 0 1-.32-.15l-.88-.86c-.12-.12-.25-.3-.4-.53l-.23-.33c-.05-.06-.04-.11.02-.16a.7.7 0 0 0 .26-.3c.03-.02.06-.03.08-.02.02.02.03.04.03.07 0 .03 0 .05-.02.08Z" fill="#F1D98C"/><path d="M4.35 11.56c.1.12.1.22 0 .29-.05.03-.05.06 0 .09.09.04.15.1.2.15.03.03.06.05.1.05h.24c.05 0 .08.02.11.06l.31.4c-.17 0-.29-.09-.34-.3a.06.06 0 0 0-.05-.04c-.03-.01-.05 0-.07.02a.43.43 0 0 0-.08.16c-.01.04 0 .08.04.1l.76.5c.03-.04.08-.01.13.07.1.17.24.23.43.17.04.13.13.2.27.19l.24.26c.04.04.08.06.13.05l.11-.01c-.02.03-.02.07 0 .1.04.03.08.04.14.04l.04.04c0 .12.03.2.12.21.05.01.1 0 .15-.03a.22.22 0 0 0 .06-.07h.2l.03.1-.59.22a2.39 2.39 0 0 1-.05-.05c.05-.08.04-.12-.03-.13h-.3l-.03-.03a.6.6 0 0 1 .2-.16c.03-.02.03-.04.02-.07a.08.08 0 0 0-.04-.03c-.04-.02-.07-.01-.1.01a.4.4 0 0 1-.22.13c-.04.01-.09 0-.12-.04a.68.68 0 0 0-.56-.23l.01-.02.06-.16c.21.05.41.15.6.29h.02l.07-.02c.03 0 .03-.02.01-.04a1.78 1.78 0 0 0-.6-.37c-.09-.03-.14 0-.16.11-.07.05-.16.02-.27-.08a7.77 7.77 0 0 1-.4-.38c-.02-.02-.02-.03 0-.04l.03-.02c.04-.02.06 0 .07.03a.2.2 0 0 0 .1.1c.01.02.03.02.04 0l.04-.04c.03-.03.03-.05 0-.07l-.36-.24a.09.09 0 0 0-.08-.01.2.2 0 0 1-.05 0 .1.1 0 0 1-.09-.03.8.8 0 0 0-.24-.2c-.05-.02-.08-.06-.06-.1 0-.03.05-.06.13-.1.02-.02.03-.04.02-.07a.07.07 0 0 0-.02-.03c-.03-.02-.05-.03-.06-.02l-.09.06c-.06.03-.1.02-.14-.04l-.25-.44a.09.09 0 0 1 0-.1.67.67 0 0 1 .22-.2Z" fill="#923702"/><path d="m5.94 11.61.25.75c0 .02 0 .03-.02.03l-.05.02h-.01l-.28-.7v-.04l.07-.06c.02-.03.03-.02.04 0Z" fill="#756A5A"/><path d="M13.9 11.96a.89.89 0 0 1-.24.36.17.17 0 0 0-.05.12c0 .04-.02.08-.05.11a6.15 6.15 0 0 1-2.05 1.62.16.16 0 0 1-.1.02c-.05 0-.08.02-.1.07a.1.1 0 0 1-.12.07c-.09 0-.16.02-.21.06-.12.08-.27.08-.45-.01l-.43-.23c-.03-.02-.03-.04 0-.06l.03-.04h.05c.14.1.3.18.46.23.13.04.28.02.47-.05a5.6 5.6 0 0 0 1.48-.9c.17-.09.3-.21.4-.38l.49-.46c.02-.03.02-.04-.01-.05l-.12-.02c-.03 0-.04-.02-.03-.05l.01-.04.01-.01c.2-.03.34-.14.39-.33a.18.18 0 0 1 .05-.09c.05-.05.1-.03.11.06ZM5.3 12.59c.18.16.27.3.26.44l-.75-.49c-.04-.02-.05-.06-.04-.1a.43.43 0 0 1 .08-.16.06.06 0 0 1 .06-.02c.03 0 .05.02.05.04.06.21.18.3.35.29Z" fill="#F1D98C"/><path d="M12.36 12.6c.06.07.04.15-.05.22-.04.03-.07.02-.1-.04a.55.55 0 0 1 .15-.18Z" fill="#C39F63"/><path d="m12.95 12.9.05.05c-.1.17-.24.3-.4.38a.18.18 0 0 1-.06.01c-.05 0-.07-.02-.06-.07 0-.03.03-.06.07-.07.16-.08.3-.18.4-.3Z" fill="#470F03"/><path d="M5.85 13.07c0 .04.04.07.1.08.05-.01.1 0 .14.04.04.02.05.06.03.1-.18.05-.33-.01-.42-.18.02-.06.07-.08.15-.04ZM11.4 13.32c.1 0 .15.05.15.16 0 .05-.02.09-.06.11a1 1 0 0 1-.33.15.16.16 0 0 0-.11.07.12.12 0 0 1-.06.05c-.06.02-.07 0-.02-.07.04-.07.03-.14-.03-.22.35.06.5-.03.47-.25ZM12.19 13.38c.02-.03.04-.04.06-.04.04.01.05.04.03.07-.1.13-.2.2-.31.21-.05 0-.1.02-.14.05a2.3 2.3 0 0 1-.68.36c-.02 0-.03 0-.03-.02v-.04c0-.02.01-.03.03-.04l.95-.5a.51.51 0 0 0 .09-.05Z" fill="#F1D98C"/><path d="M5.87 13.6c0 .03-.01.02-.06-.03.02-.1.07-.14.16-.1.22.07.42.2.6.36.02.02.02.03-.01.04l-.07.02h-.03a1.55 1.55 0 0 0-.6-.3Z" fill="#FCF3B1"/><path d="M10.66 13.87c0-.04-.03-.07-.08-.07l.16-.14c.02-.02.05-.02.07 0l.02.04c0 .02 0 .03-.02.04a.28.28 0 0 0-.15.13Z" fill="#C39F63"/><path d="M6.62 14.17c-.03.05-.08.06-.15.03-.19-.08-.41-.21-.67-.42.22 0 .4.07.56.23.03.04.08.05.12.04a.4.4 0 0 0 .22-.13c.03-.02.06-.03.1-.01l.04.03c.01.03 0 .05-.02.07a.6.6 0 0 0-.2.16ZM7.02 13.9c-.06.01-.1 0-.13-.03s-.03-.07 0-.1c.03-.01.07 0 .1.03.03.02.03.06.03.1ZM10.58 13.8c.05 0 .07.03.07.07l-.16.15c-.02.02-.03.02-.05 0l-.04-.04v-.04l.18-.14Z" fill="#F1D98C"/><path d="m8.63 13.96.08.04.37.04c-.17 0-.23.03-.2.1-.3 0-.39-.05-.25-.18Z" fill="#C39F63"/><path d="M9.08 14.04c.08.13.01.17-.2.1-.03-.07.04-.1.2-.1Z" fill="#FCF3B1"/><path d="M6.98 14.33c-.22.03-.33-.01-.34-.12.11-.01.22-.02.31 0 .07 0 .08.04.03.12ZM10.45 14.5l.04.05c.02.03 0 .05-.04.06-.24.01-.48.04-.7.08a3.5 3.5 0 0 1-1.45.04c-.33-.08-.6-.11-.77-.1-.04 0-.06-.02-.06-.06v-.04c.24-.04.46-.03.7.01l.5.1c.24.02.55 0 .95-.07.36-.06.63-.08.83-.06Z" fill="#F1D98C"/><defs><linearGradient id="a" x1="9" y1="3" x2="9" y2="15" gradientUnits="userSpaceOnUse"><stop stop-color="#923702"/><stop offset="1" stop-color="#C77105"/></linearGradient><linearGradient id="b" x1="9" y1="3.18" x2="9" y2="14.82" gradientUnits="userSpaceOnUse"><stop stop-color="#F1D98C"/><stop offset="1" stop-color="#996934"/></linearGradient></defs></svg>