<!-- by TradingView --><svg width="18" height="18" viewBox="0 0 18 18" xmlns="http://www.w3.org/2000/svg"><path fill="url(#a)" d="M0 0h18v18H0z"/><path d="M7.83 4.21 7.7 5.8l-.02.03-.16.3c-.09.15-.24.38-.32.61l-.49.48c.05-.38.16-.75.32-1.1.07-.18.2-.33.37-.44.13-.09.22-.19.25-.32a4.07 4.07 0 0 0 .06-.9.09.09 0 0 0-.03-.04.1.1 0 0 0-.09 0c-.29.16-.36.4-.6.59-.3.23-.5.4-.53.8-.03.35-.05.74-.06 1.14-.01.38.12.59.36.93.01.02.03.03.05.03.28.04.53.02.75-.07.16-.07.28-.1.36-.1.26-.03.5.03.73.16.43.29.67.55 1.14 1 .1.12.26.21.36.3.05.05.11.05.18.06a314.64 314.64 0 0 1 .86.1c.17.14.4.12.66.13l.48.04c.1 0 .21.03.32.07a31.84 31.84 0 0 1 .33.15v.05l-.02.02a.8.8 0 0 1-.48.1.83.83 0 0 0-.3 0 .87.87 0 0 0-.55.49c-.56.29-1.19.49-1.9.6-.35.04-.74.07-1.19.07-.38 0-.74-.04-1.02-.2a1.24 1.24 0 0 1-.2-.15 6.6 6.6 0 0 0-.65-.64l-.02.01v.04c.17.29.31.59.42.9a3.45 3.45 0 0 0-.59-.6c-.36-.27-.51-.45-.5-.86 0-.24.02-.4.06-.5.19-.46.39-.9.16-1.37l-.03-.09-.03-.16a.1.1 0 0 0-.03-.05c-.07-.06-.11-.12-.12-.17a3.1 3.1 0 0 1 .01-.6c0-.09-.02-.13-.09-.14.07-.4.08-.8.04-1.22.14-.29.38-.55.73-.78l.56-.37c.14-.09.3-.14.45-.11.16.03.2.1.14.2Z" fill="#ECC26D"/><path d="M7.83 4.21c.1.2.12.4.1.63-.01.03 0 .06.01.08.02.03.05.05.08.05l.76.22c.08.08.08.15 0 .22a.11.11 0 0 1-.07.02.2.2 0 0 0-.1.04 11.1 11.1 0 0 1-.62.11c-.12.01-.21.09-.29.21l.13-1.58Z" fill="#DAD0C0"/><path d="m6.71 7.21-.08.24a.04.04 0 0 0 0 .04l.02.02h.02c.38.08.74.04 1.09-.11.1-.05.19-.07.28-.06.33 0 .56.03.66.07.24.08.42.2.53.35.27.38.5.66.68.85l-.46-.37a.06.06 0 0 0-.07 0 .06.06 0 0 0-.02.02v.06a11.7 11.7 0 0 1-.41-.36 1.77 1.77 0 0 0-.41-.27l-.02.01v.04c.07.03.11.09.13.15-.23-.13-.47-.2-.73-.17-.08 0-.2.04-.36.1-.22.1-.47.12-.75.08a.07.07 0 0 1-.05-.03c-.24-.34-.37-.55-.36-.93 0-.4.03-.79.06-1.15.03-.38.23-.56.53-.79.24-.19.31-.43.6-.58a.1.1 0 0 1 .1 0l.02.02.02.05c0 .32-.03.6-.08.86-.03.13-.12.23-.25.32-.17.11-.3.26-.37.44a3.9 3.9 0 0 0-.32 1.1Z" fill="#E1A950"/><path d="M9.93 5.35a.58.58 0 0 0-.36.04.08.08 0 0 0-.03.05v.05c.02.08.02.15-.05.21-.06.07-.13.1-.18.19a.88.88 0 0 1-.17.2 5.48 5.48 0 0 0-.7.45c-.02 0-.03 0-.04-.02-.15-.14-.43-.37-.5-.56a.7.7 0 0 0-.1-.2h-.04l-.08.06c0-.03.02-.04.02-.03.08-.12.17-.2.29-.21a11.08 11.08 0 0 0 .61-.11.2.2 0 0 1 .1-.04l.07-.02c.1-.07.1-.14 0-.22l1.16.16Z" fill="#598108"/><path d="M5.95 5.27c.04.42.03.83-.04 1.22-.13.1-.24.22-.32.35-.17.25-.31.46-.44.62-.1.14-.15.25-.13.33.06.2.03.38-.09.54-.1.14-.21.27-.32.39-.13.12-.1.17.08.14.07-.02.17-.05.3-.12l.2-.06c.16-.06.26-.27.4-.31a6.06 6.06 0 0 0 .35-.16c.1-.16.28-.31.26-.51.23.47.03.9-.16 1.38-.04.09-.06.25-.06.49-.01.41.14.59.5.87.22.17.42.37.59.59a3.04 3.04 0 0 0 .55.67v.01l-.01.01-.03.02-.03.02c-.01 0-.02 0-.03-.02L7 11.28c-.03-.03-.07-.03-.11-.01-.02 0-.03.02-.03.02-.02.06-.02.1.01.13.08.07.15.17.2.3l.04.05a.2.2 0 0 1 .07.09l.04.04c.23.17.4.38.48.64-.41-.28-.7-.6-.88-.99-.03-.05-.07-.07-.14-.08-.02 0-.04 0-.04.03-.02.1 0 .24.05.4.09.3.25.54.5.74.26.21.45.38.62.56.21.22.62.34.88.46.13.06.16.13.13.25l-.01.02-.03.02-.38.03c-.4.03-.76.02-1.07-.04a1.08 1.08 0 0 1-.48-.24 7.5 7.5 0 0 0-1.27-.86c-.13-.27-.2-.43-.35-.63a9.39 9.39 0 0 1-.5-.8.29.29 0 0 0-.17-.2.07.07 0 0 1-.04-.05 1.28 1.28 0 0 0-.2-.5 2.2 2.2 0 0 1-.21-.28c-.1-.23-.14-.49-.1-.79 0-.07.04-.2.12-.42.11-.34.09-.7.2-1.03.07-.17.12-.43 0-.6a1.12 1.12 0 0 1-.08-.4c-.08-.63.35-.9.98-1.03.02 0 .04-.01.04-.03l.08-.31c.03-.1.1-.16.2-.17.08-.02.15-.07.2-.16a.11.11 0 0 1 .05-.04.3.3 0 0 0 .14-.13Z" fill="#D2CCC9"/><path fill-rule="evenodd" d="M6.22 9.63c.26.16.53.44.57.9l-1.88.16-.1.1a.84.84 0 0 0 .21.42.73.73 0 0 0 .29.19H5.3a1.06 1.06 0 0 1-.4-.25v-.01l-.22-.23c-.13-.13-.23-.3-.29-.48l.96-.3-.96.3c-.1-.29-.1-.6-.05-.89l1.5.28.1-.32.14.05.1.06a.78.78 0 0 0-.07-.09l.1.1Zm-.01 0a.8.8 0 0 1 .06.12l-.12.12-.3-.05.11-.31c.04 0 .08.03.12.05l.13.08Zm-.03.25.1-.1a.79.79 0 0 1 .02.05.2.2 0 0 1 0 .07l-.12-.02Zm-1.37.9.1-.09-.12.01.02.09Z" fill="#4E997C"/><path d="M9.93 5.35c.14.01.29.03.43.06.13.02.25.1.39.12-.07 0-.14 0-.2.03a.4.4 0 0 1-.16.06.06.06 0 0 0-.05.03c-.02.04-.06.07-.11.08a1 1 0 0 0-.32.12c-.25.2-.58.51-.99.94-.22 0-.44-.02-.65-.05a2.41 2.41 0 0 0-.45 0c-.21.02-.42.02-.62 0 .08-.24.23-.47.32-.63l.16-.3.08-.05h.04a.7.7 0 0 1 .1.2c.07.2.35.42.5.56l.04.02.04-.01c.2-.16.43-.3.66-.44a.88.88 0 0 0 .17-.2c.05-.08.12-.12.18-.19.07-.06.07-.13.04-.21v-.05l.04-.05c.1-.04.22-.06.36-.04Z" fill="#146BB4"/><path d="m10.75 5.53 1.76.28c.13.02.4.12.38.28a.36.36 0 0 1-.09.22.22.22 0 0 0-.07.16l-.04-.11c0-.02-.02-.03-.05-.03-.06 0-.1.02-.13.07-.1.13-.2.23-.28.3-.14.03-.28.08-.4.14-.15.08-.25.09-.4.12-.05 0-.14.05-.28.11-.12.06-.25.12-.38.16-.01.06-.03.09-.07.1-.03 0-.06 0-.1-.03l-.53-.3c-.13-.07-.24-.07-.38-.06-.3.06-.6.05-.87-.02-.02 0-.03-.02-.04-.04 0-.07.04-.1.14-.09.4-.43.74-.74.99-.94a1 1 0 0 1 .32-.12c.05-.01.1-.04.11-.08a.06.06 0 0 1 .06-.03.4.4 0 0 0 .15-.06c.06-.03.13-.03.2-.03Z" fill="#E1A950"/><path d="M12.73 6.47c.13.09.24.19.33.3.3.39.54.79.73 1.2l-.03.28c0 .13-.05.14-.14.04-.02-.03-.02-.05-.07-.08a1.56 1.56 0 0 1-.62-.62c-.18-.34-.37-.7-.7-.9.08-.06.18-.16.28-.3a.17.17 0 0 1 .13-.06c.03 0 .04.01.05.03l.04.11Z" fill="#C6D4BC"/><path d="M5.91 6.49c.07 0 .1.05.09.14a3.1 3.1 0 0 0-.01.6c0 .05.05.1.12.17a.1.1 0 0 1 .03.05l.03.16a.15.15 0 0 0-.03-.05h-.06c-.04.06-.08.12-.14.14-.12.06-.25.13-.4.24-.13.08-.2.19-.23.32 0 .02-.01.04-.03.05a.51.51 0 0 0-.28.43c-.14.07-.24.1-.3.12-.19.03-.22-.02-.1-.14.12-.12.22-.25.33-.4a.58.58 0 0 0 .1-.53c-.03-.08.01-.19.12-.33.13-.16.27-.37.44-.62.08-.13.19-.24.32-.35Z" fill="#598108"/><path d="M12.23 6.7c.33.19.52.55.7.89.15.26.35.46.62.62.05.03.05.05.07.08.09.1.13.1.14-.04l.03-.27c.18.31.23.61.17.9-.09-.16-.2-.32-.34-.47-.07-.09-.13-.07-.23-.08-.03 0-.04 0-.03.03l.15.45v.04c0 .02-.02.03-.03.04l-.5.22c-.2.02-.36 0-.49-.04l-.22-.23a.07.07 0 0 1-.02-.06.64.64 0 0 0-.16-.48.08.08 0 0 1-.02-.05c0-.08-.01-.09-.02-.03a.48.48 0 0 1-.1-.2c.05.07.1.11.17.13a.12.12 0 0 0 .08-.01.1.1 0 0 0 .04-.03 5.7 5.7 0 0 1 .08-.24c.01-.05 0-.11-.04-.19-.06-.1-.13-.18-.2-.25a.34.34 0 0 0-.19-.1l-.22-.01c-.05 0-.08-.02-.1-.07-.02-.08-.06-.1-.11-.06l-.25.14c-.05.03-.06.08-.03.15l-.41-.25c.13-.04.26-.1.38-.16.14-.06.23-.1.29-.11.14-.03.24-.04.39-.12.12-.06.26-.1.4-.14Z" fill="#6C9F33"/><path d="M7.2 6.73c.2.03.4.03.62 0l.45.01c.2.03.43.04.65.05-.1 0-.15.02-.14.09 0 .02.02.04.04.04.27.07.56.08.87.02a2.79 2.79 0 0 1-.94.22l-.01.02v.03c.12.12.25.22.38.32.26.18.38.36.5.61.1.28.34.47.59.64l-.3-.17a7.6 7.6 0 0 1-.68-.85 1.02 1.02 0 0 0-.52-.35c-.11-.04-.33-.06-.67-.07a.63.63 0 0 0-.28.06 1.8 1.8 0 0 1-1.1.1h-.02l-.01-.03v-.02l.08-.24.49-.48Z" fill="#AD753B"/><path d="m10.77 7.23.41.25c0 .02.02.04.04.05-.06.22.18.3.34.39a.1.1 0 0 1 .04.03l.28.37c.04.03.06.06.07.09 0 .02 0 .03-.03.04l-.45.12a.1.1 0 0 0-.05.03.08.08 0 0 0-.02.06v.49c0 .1.05.14.15.14h.85c.02 0 .04 0 .06-.02.02 0 .03-.02.04-.03a.1.1 0 0 0 .02-.1l-.03-.07c.13.05.3.06.5.04a.24.24 0 0 0-.07.1c0 .02 0 .04.02.05l.08.05c.02 0 .03.02.04.04l.06.14-1.27-.01c-.26-.01-.49 0-.66-.12a309.19 309.19 0 0 0-.87-.11c-.06 0-.12-.01-.17-.05-.1-.1-.25-.2-.36-.3-.47-.46-.7-.72-1.14-1.01a.28.28 0 0 0-.12-.15c-.02-.01-.02-.03 0-.04v-.01h.02c.15.07.28.16.4.27l.41.36c.16.2.34.37.55.52.11.08.27.11.38.18.18.11.32.1.57.13.1.02.18.06.27.1.02 0 .04 0 .04-.02.02-.15.02-.24-.19-.27-.27-.04-.53-.1-.77-.18a1.52 1.52 0 0 1-.6-.64c-.1-.25-.23-.43-.5-.61a2.56 2.56 0 0 1-.37-.34v-.03h.03c.32-.02.63-.1.92-.22.14 0 .25 0 .38.07l.53.3c.04.02.07.02.1.02.04-.01.06-.04.07-.1Z" fill="#9D6427"/><path d="M11.95 8.03a.78.78 0 0 0-.24-.24 20.94 20.94 0 0 0-.53-.3c-.03-.08-.02-.13.03-.16l.25-.14c.05-.04.1-.02.12.06 0 .05.04.07.09.07h.22c.07.02.13.05.2.1.06.08.13.16.19.26.04.08.05.14.03.2a5.58 5.58 0 0 0-.07.23.1.1 0 0 1-.04.03.12.12 0 0 1-.08 0 .34.34 0 0 1-.17-.11Z" fill="#146BB4"/><path d="M11.95 8.03c.01.06.05.12.1.19.02.05.01.09-.01.11-.02.01-.05.02-.08.01-.02 0-.05 0-.08-.02l-.28-.37a.1.1 0 0 0-.04-.03c-.16-.09-.4-.17-.34-.4.16.1.33.18.5.27.06.04.14.12.23.24Z" fill="#C6D4BC"/><path d="m6.17 7.61.03.09c.02.2-.15.35-.26.5a6.06 6.06 0 0 1-.35.16c-.14.05-.24.26-.4.32l-.2.06c.03-.2.12-.34.29-.43a.07.07 0 0 0 .03-.05c.03-.13.1-.24.23-.32.15-.1.28-.18.4-.24.06-.02.1-.08.14-.13.02-.02.04-.02.06 0l.03.04Z" fill="#146BB4"/><path d="m8.35 8.51-.28.02c-.09.01-.13.06-.13.16-.28.1-.41.3-.4.59.01.09.05.18.13.26l.21.24a.36.36 0 0 1-.14-.09c-.02-.02-.03-.02-.02 0 .05.47.4.77.9.8.48.03.8-.2 1.27-.46.12-.06.29-.1.52-.15.56-.1 1.01-.15 1.35-.17.1-.01.22 0 .38.04.02 0 .02.01 0 .02-.18.13-.4.24-.65.32-.29.09-.56.27-.83.35l-1.03.32c-.32.1-.85.11-1.2.07-.2-.03-.4-.1-.58-.2-.34-.2-.51-.43-.55-.8-.03-.39-.05-.87.18-1.2.19-.28.46-.48.8-.6h.05v.06c-.07.06-.14.12-.2.2-.08.1-.06.16.08.2l.14.02Z" fill="#F3D295"/><path d="m12.5 9.07.02.06a.1.1 0 0 1-.02.1.13.13 0 0 1-.04.04.14.14 0 0 1-.06.02h-.85c-.1 0-.15-.05-.15-.14v-.5c0-.01 0-.03.02-.05a.1.1 0 0 1 .05-.03l.45-.12c.02 0 .03-.02.03-.04-.01-.03-.03-.06-.07-.09l.08.02.08-.01c.02-.02.03-.06.01-.11 0-.06.01-.05.01.03l.02.05c.13.14.18.3.17.48 0 .02 0 .04.02.06l.22.23Z" fill="#CEB390"/><path d="m9.91 8.61.3.17c.24.08.5.14.77.18.2.03.2.11.19.27 0 .02-.02.03-.04.02-.09-.04-.17-.08-.27-.1-.25-.02-.39-.02-.57-.13-.1-.07-.27-.1-.38-.18-.2-.15-.39-.33-.55-.52v-.06s0-.02.02-.02a.06.06 0 0 1 .07 0l.46.37Z" fill="#F3D295"/><path d="M13.96 8.88a4.2 4.2 0 0 1-.47 2.58c-.02-.05-.05-.05-.09-.02a.08.08 0 0 0-.03.05c-.02.14-.12.19-.29.16a1.02 1.02 0 0 0-.39.02c-.07.02-.08 0-.04-.05l.35-.38c.11-.1.16-.26.26-.4.08-.1.08-.23.12-.33.13-.28.21-.43.15-.76 0-.01 0-.02-.02-.03l-.02-.02a.27.27 0 0 1-.13-.1c-.04-.07-.12-.1-.24-.1l-.06-.15a.08.08 0 0 0-.04-.05l-.08-.04c-.02-.01-.03-.03-.02-.05a.24.24 0 0 1 .07-.1l.49-.22.03-.04v-.04l-.15-.45c0-.02 0-.03.03-.03.1 0 .16 0 .23.08.14.15.25.3.34.47Z" fill="#47ABD6"/><path d="M8.35 8.51c.16 0 .38.01.48.13.2.24.2.52.18.83a9.97 9.97 0 0 1-.12.22.3.3 0 0 0-.14.13.1.1 0 0 1-.04.03.11.11 0 0 1-.05.02c-.07 0-.1-.02-.09-.07.3-.2.3-.53.24-.86-.03-.16-.14-.24-.32-.24l-.55-.01c0-.1.04-.15.13-.16l.28-.02Z" fill="#D2CCC9"/><path d="M8.57 9.8a.7.7 0 0 1-.69-.02 7.32 7.32 0 0 1-.21-.24.46.46 0 0 1-.13-.26c-.01-.3.12-.5.4-.6.2.02.38.02.55.02.18 0 .29.08.32.24.05.33.06.66-.24.86Z" fill="#197DBB"/><path d="M8.4 9.09c-.05.1-.06.2-.03.27.1.15-.02.2-.37.12a.07.07 0 0 1-.05-.04c-.03-.06-.04-.13-.03-.22.02-.21.14-.32.37-.31.06 0 .1.01.11.05.02.03.02.07 0 .13Z"/><path d="M8.37 9.36c-.03-.08-.02-.16.03-.27h.19l.02.02c.13.16-.11.23-.24.25Z" fill="#D2CCC9"/><path d="M5.8 10.62c-.02-.08-.07-.14-.17-.17l-.02-.01-.21-.22a.21.21 0 0 1-.05-.09.84.84 0 0 1-.03-.4l.03-.15.04-.05a.86.86 0 0 0 .18-.18c.08-.1.13-.09.14.04l.08 1 .03.05.12.1.01.03a.05.05 0 0 1 0 .05l-.03.01c-.04.02-.08.02-.13-.01Z" fill="#197DBB"/><path d="M13.12 9.5c.12 0 .2.03.24.1.04.05.08.09.13.1l.02.02.02.03c.06.33-.02.48-.15.76-.04.1-.04.23-.12.33a.32.32 0 0 0-.14.13.1.1 0 0 1-.05.04.34.34 0 0 0-.12.07c-.2.2-.39.44-.57.7a3.95 3.95 0 0 1-.36.38.1.1 0 0 1-.08.05.59.59 0 0 0-.34.15 4.38 4.38 0 0 0-.28.1c-.15.05-.14.15-.35.16l-.6-.01.57-.04c.02 0 .04-.02.04-.04a.86.86 0 0 1 .32-.47c.43-.29.78-.57 1.06-.84.08-.09.22-.16.33-.22.29-.16.38-.34.39-.67 0-.02-.02-.03-.04-.03-.2.01-.34.04-.4.08-.26.15-.54.22-.85.2a.08.08 0 0 1-.06-.02.44.44 0 0 1-.1-.16c.12-.25.3-.41.56-.48a.83.83 0 0 1 .3-.01.8.8 0 0 0 .47-.1l.02-.02a.05.05 0 0 0 0-.05l-.03-.02-.3-.13c-.1-.04-.21-.06-.32-.07l-.48-.04 1.27.01Z" fill="#D59A67"/><path d="M5.32 9.72a.84.84 0 0 0 .03.41c0 .03.02.06.05.09l.2.22h.03c.1.04.15.1.16.18l-.03.17c0 .03-.02.04-.04.06l-.14.07a.06.06 0 0 0-.02.03v.03c.03.22.24.33.19.6 0 .02-.02.03-.04.04-.09.05-.15.08-.17.17a.5.5 0 0 1-.04.12c-.06.1-.1.1-.14-.02-.1-.34-.35-.69-.47-.92-.25-.5-.13-.88.37-1.15.01 0 .02 0 .03-.02v-.02l.03-.06Z" fill="#82B43C"/><path d="M11.63 10.4c.01.04.05.1.1.16l.06.02c.3.02.59-.05.84-.2.07-.04.2-.07.4-.08.03 0 .05 0 .05.03-.01.33-.1.5-.4.67-.1.06-.24.13-.32.22-.28.27-.63.55-1.06.84a.86.86 0 0 0-.32.47c0 .02-.02.03-.04.04l-.57.04-.6.08c-.03 0-.04.01-.04.04s.02.07.06.11l-.1-.1c.08-.16.13-.31.14-.47 0-.02 0-.04-.03-.04-.27-.03-.46-.05-.7-.11a16.49 16.49 0 0 0-1.38-.33.08.08 0 0 0-.03.02l-.02.03v.03c.04.1.1.18.19.26.06.06.24.15.52.28.3.4.71.7 1.21.9.11.05.2.14.3.29H9.6a1.57 1.57 0 0 0-.27-.05c-.23 0-.48-.2-.6-.3-.06-.05-.17-.11-.32-.19a1.7 1.7 0 0 1-.3-.2 9.98 9.98 0 0 0-.4-.32 1.32 1.32 0 0 0-.49-.64.1.1 0 0 1-.04-.04.2.2 0 0 0-.07-.1.13.13 0 0 1-.04-.05.77.77 0 0 0-.2-.29c-.03-.03-.03-.07-.01-.13l.03-.02c.04-.02.08-.02.1.01l.52.46.03.02c.01 0 .03 0 .03-.02l.03-.02a.03.03 0 0 0 0-.02v-.02c-.21-.2-.4-.41-.54-.65a4.56 4.56 0 0 0-.42-.94h.03c.16.13.37.34.63.63l.2.14c.29.17.65.21 1.03.21.45 0 .84-.03 1.2-.08.7-.1 1.33-.3 1.89-.6Z" fill="#CE9040"/><path d="M13.26 10.84c-.1.14-.15.3-.26.4-.15.15-.27.27-.35.38-.04.05-.03.07.04.05.12-.03.26-.03.4-.02.16.03.26-.02.28-.16 0-.02.02-.04.03-.05.04-.03.07-.03.09.02-.09.2-.22.4-.28.6l-.16.64c-.06.3-.44.3-.7.33-.1.02-.2.05-.29.1-.25.14-.5.27-.76.39-.22.1-.45.2-.7.27l-.08-.02c-.03 0-.04-.01-.04-.03v-.12l-.02-.02-.03-.02a.1.1 0 0 0-.03 0l-.52.02a.63.63 0 0 0-.29-.29c-.5-.2-.9-.5-1.21-.9l.45.2.65.26c.1.04.2.13.35.13a.04.04 0 0 0 .03-.01v-.03c0-.04-.02-.08-.07-.12-.04-.04-.06-.08-.06-.11s.01-.04.04-.04l.6-.08h.6c.21 0 .2-.1.35-.16a4.5 4.5 0 0 1 .28-.1c.09-.07.2-.12.34-.14a.1.1 0 0 0 .08-.05 5.66 5.66 0 0 1 .93-1.07.34.34 0 0 1 .12-.08.1.1 0 0 0 .05-.04c.03-.05.08-.1.14-.13Z" fill="#D2CCC9"/><path d="m7.71 12.54.4.32c.1.08.2.15.31.2.15.08.26.14.32.19.12.1.37.3.6.3.06 0 .15.02.27.05h.27l.52-.02a.09.09 0 0 1 .06.02l.02.02v.12c0 .02.01.03.04.03l.09.02c-.27.1-.54.16-.8.18-.43.04-.9.04-1.4.01l.38-.03.03-.02.01-.02c.03-.12 0-.19-.14-.25-.25-.12-.66-.24-.87-.46a5.93 5.93 0 0 0-.62-.56 1.5 1.5 0 0 1-.5-.73.84.84 0 0 1-.05-.4c0-.03.02-.04.04-.04.07 0 .11.03.14.08.18.38.47.7.88.99Z" fill="#1384A8"/><path d="m9.68 12.73-.3-.08a1.02 1.02 0 0 1-.3-.1l-.27-.18c-.1-.08-.2-.13-.3-.17a146.97 146.97 0 0 0-.56-.25c-.08-.05-.15-.08-.19-.07-.04 0-.06.02-.03.05.1.15.23.25.39.31.27.1.47.24.71.36l-.45-.19a2.67 2.67 0 0 1-.52-.28.63.63 0 0 1-.19-.26v-.03c0-.01 0-.02.02-.03l.03-.02h.04c.42.08.87.19 1.34.33.24.06.43.08.7.11.02 0 .03.02.03.04-.01.16-.06.31-.15.46Z" fill="#A15A34"/><path d="m9.68 12.73.11.11c.05.04.07.08.07.12v.02l-.02.02h-.01c-.15 0-.25-.1-.35-.13l-.65-.27c-.24-.12-.44-.26-.71-.36a.79.79 0 0 1-.4-.3c-.02-.04 0-.06.04-.06s.1.02.19.07l.14.07.42.18c.1.04.2.1.3.17l.28.19c.05.03.15.06.29.09l.3.08Z" fill="#881D18"/><path d="M12.03 12.92c-.15.13-.27.21-.36.24a.9.9 0 0 0-.36.23l-.03.01h-.03l-.03-.01-.02-.03c-.03-.17 0-.46-.19-.59a.07.07 0 0 1-.02-.03.06.06 0 0 1 .01-.07l.04-.01c.27-.07.54-.18.82-.34.1-.06.2-.08.32-.08.03 0 .04.02.05.04.05.23 0 .46-.2.64Z" fill="#1CA8C6"/><defs><linearGradient id="a" x1="3.35" y1="3.12" x2="21.9" y2="24.43" gradientUnits="userSpaceOnUse"><stop stop-color="#1A1E21"/><stop offset="1" stop-color="#06060A"/></linearGradient></defs></svg>