<!-- by TradingView --><svg width="18" height="18" viewBox="0 0 18 18" xmlns="http://www.w3.org/2000/svg"><path fill="#F0F3FA" d="M0 0h18v18H0z"/><path d="M6.24 9.86c-.4-.5-.45-1.26-.3-1.86.03-.15 0-.3.04-.44a.1.1 0 0 0 0-.07 1.38 1.38 0 0 1-.1-.36c-.03-.19.2-.3.1-.47a.12.12 0 0 1-.02-.06c0-.88.14-1.66.78-2.37.31-.34.66-.62 1.04-.84a3.13 3.13 0 0 1 3.93.7c.3.34.52.71.65 1.12.17.5.11.9.06 1.41-.03.29-.1.58-.24.87a.1.1 0 0 0-.01.06c0 .02.02.04.04.06.12.07.18.17.18.28 0 .36-.26.69-.48.97-.08.1-.12.22-.18.34-.01.04 0 .07.04.08.27.1.5.22.7.35.74.5.94 1.31 1.41 1.96.13.18.13.45.1.65-.06.49-.04.98-.04 1.47 0 .12-.15.27-.3.29H4.36c-.13 0-.18-.1-.24-.2a.82.82 0 0 1 0-.84c.13-.25.27-.5.33-.78.04-.18.1-.37.18-.55.3-.67.84-1.24 1.6-1.72.02-.01.02-.03 0-.05Z" fill="#1F1001"/><path d="m9.74 3.2-.47.1h-.01a.02.02 0 0 0 0 .02v.02h.01c.34-.05.65.01.93.18.07.04.06.05-.01.04a1.6 1.6 0 0 0-.78.1v.02c.38-.09.78-.04 1.1.15.13.08.27.14.41.18a.1.1 0 0 1 .04.03c.02 0 .02.02.02.04v.04c0 .02-.02.03-.03.04a.82.82 0 0 0-.4.68h.02a.03.03 0 0 0 .02.01.37.37 0 0 1 .21-.02c.02 0 .04.01.05.03.03.05.04.1.03.17a11.56 11.56 0 0 0-.09.5h.02l.02-.01a.93.93 0 0 1 .4-.63c.35-.24.46.49.46.62-.02.33 0 .56.04.68.12.36.16.71.1 1.05l-.07.57-.28.98a.31.31 0 0 0-.05.17l-.14.38-.1.05c.13-.35.25-.7.36-1.06.03-.1.05-.22.04-.33-.02-.36-.05-.74.11-1.05a.11.11 0 0 0 0-.09c0-.02-.01-.03-.02 0l-.22.43c-.01.02-.03.02-.04 0v-.02c.14-.44.22-.89.1-1.33-.06-.2-.1-.39-.11-.57 0-.03-.02-.04-.04 0-.24.38-.52.7-.42 1.18.01.07 0 .07-.04.02-.2-.25-.19-.53-.16-.83 0-.02 0-.02 0 0-.15.31-.28.9.14 1.09.04.02.04.02 0 .02a.63.63 0 0 1-.19-.07c-.18-.09-.27-.27-.26-.54 0-.2.02-.4.05-.6a.77.77 0 0 0-.05-.36l-.01-.01a.04.04 0 0 0-.05-.01l-.01.01-.23.23.04-.61a.1.1 0 0 0-.01-.05.11.11 0 0 0-.04-.04.13.13 0 0 0-.11-.02l-.83.27c-.1.03-.11 0-.04-.07l.55-.6c.07-.08.06-.08-.02-.02a4.2 4.2 0 0 1-1.22.62 14.11 14.11 0 0 0-.64.22l-.02-.01v-.03a.03.03 0 0 1 0-.04h.01c.49-.17 1.1-.52 1.31-.94.04-.08.03-.1-.04-.03-.33.27-.73.5-1.19.69-.11.04-.13.02-.04-.06.31-.3.58-.61.79-.92.04-.06.03-.08-.05-.04-.31.17-.6.35-.85.56-.06.05-.08.04-.06-.04.12-.36.35-.7.69-1.01.4-.16.86-.2 1.37-.13Z" fill="#674736"/><path d="M9.74 3.2c1.04.19 1.8.73 2.26 1.64.25.47.34.96.28 1.45a3.52 3.52 0 0 1-.4 1.39v.02l.02.01h.02l.14.01a.47.47 0 0 0-.3.09l.08-.57c.05-.34 0-.69-.11-1.05-.04-.12-.06-.35-.04-.68 0-.13-.1-.86-.45-.62a.93.93 0 0 0-.4.63l-.03.01h-.02c.02-.17.05-.33.09-.5a.23.23 0 0 0-.03-.17.07.07 0 0 0-.05-.03.37.37 0 0 0-.2.02.03.03 0 0 1-.03 0 .03.03 0 0 1-.01-.02c.02-.3.15-.52.39-.67l.03-.04a.07.07 0 0 0-.02-.08.1.1 0 0 0-.04-.03c-.14-.04-.28-.1-.4-.18a1.47 1.47 0 0 0-1.1-.15l-.01-.02c.26-.1.52-.13.78-.1.07.01.08 0 .01-.04a1.36 1.36 0 0 0-.93-.18l-.01-.02a.02.02 0 0 1 0-.01l.01-.01.47-.1Z" fill="#8E8682"/><path d="M8.37 3.33c-.34.31-.57.65-.69 1.01-.02.08 0 .09.06.04.25-.2.54-.4.85-.56.08-.04.1-.02.05.04-.21.3-.48.61-.8.92-.08.08-.06.1.05.06a4.5 4.5 0 0 0 1.19-.7c.07-.05.08-.04.04.04-.22.42-.82.77-1.3.93l-.02.01v.01a.03.03 0 0 0 0 .03v.03l.02.01h.02l.62-.22a4.2 4.2 0 0 0 1.22-.62c.08-.06.09-.06.02.02l-.55.6c-.07.08-.06.1.04.07l.83-.27a.13.13 0 0 1 .11.02c.02 0 .03.02.04.04l.01.05-.04.6a3.33 3.33 0 0 1-1.69.9c.42-.18.74-.46.96-.82.04-.07.02-.08-.05-.04-.53.3-.92.76-1.55.9-.13.02-.14 0-.01-.05.3-.13.48-.34.55-.63.03-.13 0-.14-.08-.03-.2.29-.5.5-.87.66-.1.05-.12.03-.04-.05.2-.21.37-.46.5-.73 0-.04 0-.04-.04-.03a.53.53 0 0 0-.23.26c-.12.26-.34.46-.66.6-.07.03-.08.01-.05-.04.08-.11.13-.23.16-.36.05-.19.03-.2-.06-.02-.07.13-.16.24-.28.35h-.03v-.03c.16-.24.04-.4 0-.61-.02-.16-.06-.16-.12-.01-.05.14-.05.27-.13.4a.54.54 0 0 0-.07.26c-.01.4-.06.8-.16 1.18v-.1c0-.03 0-.05-.02-.06a.12.12 0 0 1-.07-.09.53.53 0 0 0 .09-.39.1.1 0 0 0 .02-.1c-.18-.83 0-1.6.53-2.29.09-.12.2-.2.3-.32l.03-.01h.02c-.33.37-.57.78-.73 1.23l.01.03.04-.01c.1-.16.23-.28.38-.38.08-.05.1-.04.05.04a.74.74 0 0 0-.1.47c.02.12.04.12.08 0 .05-.2.2-.35.42-.46.03-.01.05 0 .05.03.05.28 0 .55-.15.8v.02l.02.01h.02c.13-.18.27-.33.4-.47.13-.13.3-.2.5-.2l.04.01.03.03.01.03v.04l-.1.22c-.02.05-.01.06.03.02l.48-.37h.06v.02l.03.27c.01.05.02.05.04 0a1.82 1.82 0 0 0 .05-.43.07.07 0 0 0-.03-.02.07.07 0 0 0-.06 0l-.19.08h-.03a.05.05 0 0 1-.03-.02l-.02-.02c0-.02-.03-.03-.05-.02l-.7.13a.1.1 0 0 1-.07-.01.08.08 0 0 1-.02-.03l-.02-.03c0-.03.01-.06.04-.09.02-.02.02-.03-.01-.05a.17.17 0 0 1-.1-.17.1.1 0 0 0-.01-.06.12.12 0 0 0-.06-.04c-.1-.03-.15-.1-.12-.2v-.02l-.02-.02a.05.05 0 0 0-.05 0l-.16.09-.06-.01c-.02-.03-.03-.06 0-.1a2.22 2.22 0 0 1 .2-.34l-.01-.01-.01-.02h-.02l-.05.03c.32-.4.74-.69 1.28-.86Z" fill="#A46F52"/><path d="m7.1 4.19.04-.03h.02l.01.02a.03.03 0 0 1 0 .03l-.2.32c-.01.04-.01.07.02.1.01.02.03.02.06 0l.15-.08a.05.05 0 0 1 .05 0l.02.02v.03c-.02.1.01.16.12.19.02 0 .04.02.06.04a.1.1 0 0 1 .02.06c0 .08.03.13.1.17.02.02.02.03 0 .05a.1.1 0 0 0-.03.1v.02l.03.03a.09.09 0 0 0 .07 0l.7-.12c.03 0 .04 0 .06.02v.02l.04.02h.04l.18-.08a.08.08 0 0 1 .07 0l.02.02v.04c0 .13-.02.26-.05.4-.02.04-.03.04-.03-.01l-.03-.27-.01-.02H8.6a.04.04 0 0 0-.04 0l-.48.37c-.04.04-.05.03-.03-.02l.1-.22a.07.07 0 0 0-.01-.07.08.08 0 0 0-.03-.03h-.04c-.2-.01-.37.06-.5.19a5.57 5.57 0 0 0-.41.47h-.02v-.02c.14-.26.19-.53.15-.81 0-.03-.03-.04-.06-.03-.22.1-.37.26-.42.46-.04.12-.06.12-.07 0a.74.74 0 0 1 .1-.47c.04-.08.02-.1-.06-.04-.15.1-.28.22-.38.38-.01.01-.02.02-.04 0v-.02c.15-.45.4-.86.73-1.23Z" fill="#CEA58F"/><path d="M10.7 6.78c0 .17.13.32-.04.46a.08.08 0 0 1-.06.03c-.17-.01-.37-.08-.52.03l-.6.04a.12.12 0 0 0-.07.02.19.19 0 0 0-.08.12c0 .07.02.1.1.08.13-.02.26-.02.4 0a.1.1 0 0 0 .08-.01.1.1 0 0 1 .07-.02c.2.04.45.12.74.23-.04.05-.03.12.03.21a.12.12 0 0 1-.01.16.15.15 0 0 1-.05.03c-.21.1-.55.04-.79 0l-.03.01-.02.03v.04l.02.02a9.76 9.76 0 0 0 .57.14c0 .02 0 .03-.03.03-.12 0-.23.02-.32.04-.16.04-.17.1-.02.16.45.2.98.6.8 1.07-.14.36-.47.53-.87.63-.56.15-1.18.22-1.84.2-.42-.11-.89-.27-1.4-.49a1.13 1.13 0 0 1-.23-.13l.05.01c-.3-.6-.2-1.09.32-1.46.06-.04.1-.1.1-.16a.1.1 0 0 0 0-.05.12.12 0 0 0-.03-.05.13.13 0 0 0-.04-.03.14.14 0 0 0-.06 0l-.3.03c-.08.02-.13 0-.17-.06a.1.1 0 0 1 0-.06.1.1 0 0 1 .02-.06c.2-.18.43-.16.67-.1.15.03.3.04.44 0V7.9c.02-.02.02-.03-.01-.03-.25 0-.47-.09-.66-.25a.06.06 0 0 1-.02-.03v-.04c.03-.05.08-.09.13-.11.03-.01.04-.03.02-.05-.07-.1-.28-.08-.39-.07-.03 0-.05 0-.06-.03a.14.14 0 0 1-.02-.1l.2-.02h.19c.21.02.4.07.56.15.17.09.37.11.56.08l.03-.01.01-.02a.05.05 0 0 0 0-.05.37.37 0 0 0-.3-.17c-.04 0-.08 0-.12-.02a.56.56 0 0 1-.13-.07c-.07-.17-.24-.3-.52-.38a.3.3 0 0 1-.23-.25c0-.02-.02-.03-.04-.04-.07-.02-.1-.04-.06-.06v.02h.03c.12-.1.21-.21.28-.34.09-.18.1-.17.06.02-.03.13-.08.25-.16.36-.03.06-.02.07.05.04.32-.14.54-.34.66-.6.05-.1.12-.2.23-.26.04-.01.05 0 .03.03-.12.27-.28.52-.5.73-.07.08-.05.1.05.05.37-.15.67-.37.87-.66.09-.11.11-.1.08.03-.07.3-.25.5-.55.63-.13.06-.12.07.01.04.63-.13 1.02-.6 1.55-.89.07-.04.1-.03.05.04a2.07 2.07 0 0 1-.96.83h.04a3.33 3.33 0 0 0 1.65-.9l.23-.23.01-.01a.05.05 0 0 1 .05 0v.02c.05.12.07.24.06.36-.03.2-.04.4-.05.6 0 .27.08.45.26.54Z" fill="#CEA58F"/><path d="M11.18 9.39c-.04.14-.11.29-.2.43-.18.3-.45.5-.83.6-.38.08-.76.15-1.15.2-.24.02-.52 0-.84-.08.67 0 1.28-.06 1.84-.2.4-.11.73-.28.87-.64.18-.47-.35-.88-.8-1.07-.15-.06-.14-.12.02-.16.1-.02.2-.04.32-.04.02 0 .03-.01.03-.03 0-.02 0-.03-.02-.03a9.77 9.77 0 0 1-.57-.13V8.2l.02-.03h.04c.23.03.57.08.78-.01.02 0 .04-.02.05-.03a.13.13 0 0 0 .03-.05.12.12 0 0 0-.02-.1c-.06-.1-.07-.17-.03-.22.05.06.1.1.15.1a.05.05 0 0 0 .04 0l.01-.02v-.02c-.05-.32-.53-.47-.84-.52.15-.11.35-.04.53-.03l.06-.02c.16-.15.03-.3.03-.47.07.04.13.06.18.07.05 0 .05 0 .01-.02-.42-.2-.29-.78-.14-1.09 0-.02 0-.02 0 0-.03.3-.03.58.16.83.04.05.05.05.04-.02-.1-.47.19-.8.43-1.19.01-.03.02-.02.03 0 .02.2.06.38.1.58.13.44.06.89-.1 1.33l.01.02c.02.02.03.02.04 0l.22-.43c.01-.03.02-.02.03 0v.09c-.17.31-.14.7-.12 1.05 0 .11 0 .22-.04.33-.1.36-.23.7-.37 1.06ZM6.67 6.33c-.03.02-.01.04.06.06.03 0 .04.02.04.04.03.13.1.2.23.25.28.08.45.2.52.38a.19.19 0 0 1-.06.03l-.07-.01A1.15 1.15 0 0 0 6.83 7c-.14.01-.25.07-.31.17 0 .04 0 .08.02.11l.06.03c.12-.01.32-.03.4.07.01.02 0 .04-.03.05a.24.24 0 0 0-.13.11v.04c0 .01 0 .03.02.03.2.16.41.25.66.25.03 0 .03.01.02.03v.02h-.01a.98.98 0 0 1-.44 0c-.24-.06-.48-.08-.66.1a.1.1 0 0 0-.04.06l.01.06c.04.06.1.08.17.06l.3-.04.06.01.04.03c.02.02.03.03.03.05a.1.1 0 0 1 0 .05c0 .06-.04.12-.1.16-.5.37-.62.86-.32 1.46a1.22 1.22 0 0 1-.46-.77c-.08-.53.01-1.07.08-1.6.09-.39.14-.78.15-1.18 0-.1.03-.18.07-.25.08-.14.08-.27.13-.41.06-.15.1-.15.13 0 .03.23.15.38-.01.62Z" fill="#D3B7AE"/><path d="M6.2 6.91c.01.14-.02.27-.1.4-.08-.16-.05-.3.1-.4Z" fill="#BD9480"/><path d="m7.52 7.06.13.07.12.02c.12 0 .22.06.3.17v.05l-.01.02-.02.01c-.2.03-.4 0-.57-.08a1.64 1.64 0 0 0-.75-.15l-.2.01c.06-.1.17-.16.31-.17.22-.02.4 0 .56.07l.07.01.06-.03ZM10.08 7.3c.3.05.79.2.84.52v.02l-.01.02h-.04a.31.31 0 0 1-.15-.1c-.29-.11-.53-.19-.74-.23a.1.1 0 0 0-.07.02.1.1 0 0 1-.08 0 1.18 1.18 0 0 0-.4.01c-.08.01-.1-.01-.1-.08.01-.05.04-.08.08-.12a.12.12 0 0 1 .07-.02l.6-.04Z" fill="#674736"/><path d="M7.79 7.64a.16.16 0 0 0-.04.1.46.46 0 0 1-.38.04c-.09-.02-.1-.06-.12-.13 0-.03 0-.05.04-.05.05 0 .1 0 .15-.02h.01v-.02c0-.03 0-.05-.04-.06h-.2a.3.3 0 0 0-.17.06.24.24 0 0 1-.1.02h-.01l-.02-.01v-.04a.11.11 0 0 1 .07-.05c.23-.07.45-.08.69-.02a.3.3 0 0 1 .09.04c.08.05.09.1.03.14Z" fill="#272E35"/><path d="M7.21 7.5c.04.03.05.07.03.14 0 .01 0 .02-.02.03H7.2c-.05.01-.1-.03-.15-.11a.3.3 0 0 1 .17-.05Z" fill="#ACC6D4"/><path d="M7.75 7.73c0-.03.02-.06.04-.09.09.01.13.05.12.11l-.01.03-.03.01c-.08 0-.12-.01-.12-.06Z" fill="#D3B7AE"/><path d="M10.3 7.94a.28.28 0 0 0-.14-.07c-.03 0-.05 0-.06.03l-.04.1c-.22.1-.39.07-.5-.1v-.08c.04.04.08.06.13.05.03 0 .05-.02.06-.05v-.04c0-.03-.01-.04-.04-.03l-.14.02c-.08.01-.09 0-.02-.05.2-.13.71.08.87.21v.05l-.03.01c-.05 0-.07-.02-.08-.05Z" fill="#272E35"/><path d="M12.06 7.72c.14.06.18.2.1.4-.05.13-.13.26-.24.4h-.03a.06.06 0 0 1-.02-.03l.01-.04a6.9 6.9 0 0 1 .2-.3V8.1a.09.09 0 0 0-.03-.04.1.1 0 0 0-.03-.02c-.13-.04-.21.02-.21.14 0 .24-.07.44-.2.58-.05.06-.1.07-.13.02l.28-.98a.47.47 0 0 1 .3-.09Z" fill="#CEA58F"/><path d="M10.3 7.94c-.12.1-.2.12-.24.05l.04-.09c.01-.02.03-.03.06-.03.04 0 .1.03.15.07Z" fill="#ACC6D4"/><path d="m11.92 8.53-.29.44c-.02-.05-.06-.07-.13-.06-.02 0-.05.02-.07.05 0-.06.02-.12.05-.17.04.05.08.04.13-.02.13-.14.2-.34.2-.58 0-.12.08-.18.2-.14a.1.1 0 0 1 .04.02l.02.04a.08.08 0 0 1 0 .07 6.88 6.88 0 0 0-.2.31l.02.04h.03Z" fill="#A46F52"/><path d="m8.09 8.42-.03-.03-.04-.22v-.04a.07.07 0 0 1 .05-.02c.33-.06.64-.04.93.07.04.01.05.04.03.08l-.1.18c-.02.05-.06.06-.12.03a.8.8 0 0 0-.72-.05Z" fill="#D3B7AE"/><path d="m8.05 8.39.03.03c0 .07-.03.1-.1.1-.15-.02-.22.04-.24.16 0 .06-.02.06-.05 0-.1-.22.14-.34.36-.3ZM9.2 8.75c0-.16-.15-.18-.31-.14a.02.02 0 0 1-.02 0V8.6l.01-.04c0-.01 0-.02.02-.03l.02-.02c.21-.06.33 0 .36.17 0 .03-.01.06-.04.09-.03.02-.04.01-.04-.02ZM8.95 8.94a.44.44 0 0 0-.37-.03.28.28 0 0 1-.26-.02.74.74 0 0 0-.39-.1.18.18 0 0 1-.02-.09v-.03l.03-.02a.07.07 0 0 1 .07 0l.36.2c.03.01.08.02.12.01l.42-.1c.03 0 .05.01.07.04.02.05.02.1-.03.14Z" fill="#A46F52"/><path d="M7.93 8.79c.14 0 .27.03.39.1.08.05.17.06.26.02a.44.44 0 0 1 .37.03l.28-.05c.03 0 .06 0 .08.02.1.1.12.2.04.34 0 .02-.02.03-.03.03h-.05a3.78 3.78 0 0 0-.95-.12 18.46 18.46 0 0 1-.74-.02.14.14 0 0 1-.05-.05.13.13 0 0 1-.01-.12.52.52 0 0 1 .14-.18.1.1 0 0 1 .07-.02l.2.02Z" fill="#D3B7AE"/><path d="M11.63 8.97a.83.83 0 0 1-.22.35.16.16 0 0 1-.12.02l.14-.38.07-.05c.07 0 .11 0 .13.06Z" fill="#CEA58F"/><path d="m11.4 9.32.67.27a.6.6 0 0 1 .22.15l.19.18.19.19.17.21c.15.17.28.32.38.47.04.28.05.54.05.78 0 .05 0 .1.02.14.03.07.07.07.1 0l.05-.1.02-.02a.05.05 0 0 1 .06.01c.03.05.03.1 0 .14-.12.2-.19.33-.14.57l.24 1.47-.05-.02c-.02 0-.04 0-.04.02v.02c-.17-1.07-.33-2.15-.67-3.19-.07-.2-.16-.37-.28-.52-.22-.28-.66-.41-1.03-.46-.04 0-.05 0-.06.04-.05.58-.34 1-.88 1.25a3.62 3.62 0 0 1-2.06.3h-.02l-.13-.01a.56.56 0 0 0-.37-.1c-.4.02-.48.27-.53.58-.02.1-.1.16-.2.18a1 1 0 0 0 .16-.38c.04-.2.09-.29.26-.39a.02.02 0 0 0 0-.02l-.02-.02a.1.1 0 0 0-.09 0c-.22.1-.38.18-.46.27-.19.17-.29.33-.3.47l-.05.66c-.02.47.57.84 1 .97a3.2 3.2 0 0 0 1.1.1c.14-.02.26-.05.36-.1l.07.06-.24.32c-.03-.02-.06-.02-.07 0l.08-.18a.03.03 0 0 0 0-.03.03.03 0 0 0-.03-.01c-.32-.03-.64.03-.96 0a1.77 1.77 0 0 1-1.04-.47c-.1-.1-.23-.19-.35-.28a1.18 1.18 0 0 1 0-.67.63.63 0 0 0 .03-.26c0-.05 0-.1-.03-.13.26-.4.48-.78 1.04-.8l.63.1c.7.14 1.37.08 2.05-.2.4-.13.69-.38.85-.76v-.06a.1.1 0 0 0-.03-.05l-.15-.11c-.04-.03-.07-.02-.1.01-.15.25-.4.42-.72.53a1.7 1.7 0 0 1-.18.1l-.17.1c-.51.3-1.06.38-1.63.2-.3-.1-.68-.32-1.04-.46-.2-.19-.48-.24-.72-.37a.23.23 0 0 0-.06-.03h.03s.02 0 .02-.02l-.01-.05c.08.06.15.1.23.13.51.22.98.38 1.4.5.32.08.6.1.84.07.39-.04.77-.1 1.15-.2.37-.09.65-.28.84-.6.08-.13.14-.28.2-.42l.1-.05c.04.01.08 0 .12-.02Z" fill="#033507"/><path d="m9.39 9.6.1.08v.05l-.01.02h-.03c-.26.04-.54-.06-.79-.14-.44-.15-.78-.02-1.21 0h-.02l-.01-.01a.03.03 0 0 1 0-.04l.07-.08a.97.97 0 0 1 .62-.15c.46.01.87.06 1.28.26Z" fill="#D3B7AE"/><path d="M13.52 13.8a.22.22 0 0 1-.13.04 142 142 0 0 1-4.3 0v-.03l.24-.32.26-.23c.28-.24.48-.75.08-.99a.08.08 0 0 1-.02-.02l-.01-.03c-.03-.24-.17-.38-.42-.42-.03 0-.04-.02-.05-.04-.07-.3-.2-.4-.56-.43a.07.07 0 0 1-.05-.03.13.13 0 0 1-.03-.08h.06c.75.08 1.43-.02 2.02-.3.54-.26.83-.67.88-1.25 0-.03.02-.05.06-.04.37.05.8.18 1.03.46.12.15.2.33.28.52.34 1.04.5 2.12.66 3.19Z" fill="#ACC6D4"/><path d="M8.34 10.05c.21-.02.37-.1.36-.19-.01-.08-.19-.12-.4-.1-.2.03-.36.11-.35.2.01.07.19.12.4.1Z" fill="#D3B7AE"/><path d="m10.44 10.89-.15-.45c.32-.1.57-.28.72-.53.03-.03.06-.04.1-.01l.15.11a.1.1 0 0 1 .03.05v.06c-.16.38-.44.63-.85.77ZM6.5 9.98l.05.03c.24.13.52.18.72.37l.46.43v.02l-.01.02h-.04c-.22-.18-.41-.38-.68-.5a.5.5 0 0 0-.42.02c-.11.05-.2.12-.29.2-.08.09-.07.15.04.2.26.11.46.29.6.53.02.01.01.03 0 .04h-.06c-.28-.3-.62-.35-1.01-.17-.07.04-.18.15-.1.22v.01h.04l.01-.01c.26-.41.79.18.91.39.02.04.03.08.03.13 0 .04 0 .06-.03.07h-.03l-.03-.01a.4.4 0 0 0-.27-.18h-.07c-.39.12-.47-.14-.77-.27a.12.12 0 0 0-.11.01.1.1 0 0 0-.04.05.1.1 0 0 0 0 .05c.04.25.57.52.2.76a.48.48 0 0 0-.2.3 2.57 2.57 0 0 1-.57 1.08l-.03.01h-.43c-.21-.2-.24-.42-.1-.68a4.92 4.92 0 0 0 .4-1A3.74 3.74 0 0 1 6.5 9.98Z" fill="#018629"/><path d="M7.27 10.38c.36.14.74.37 1.05.46.56.18 1.1.1 1.62-.2.05-.03.1-.07.18-.1l.17-.1.15.45c-.68.27-1.36.33-2.05.2-.36-.07-.57-.1-.63-.1-.56.01-.78.39-1.04.79-.12-.2-.65-.8-.9-.4l-.02.02H5.8a.04.04 0 0 1-.04 0c-.07-.08.04-.2.11-.23.39-.18.73-.13 1.01.17h.06c.01-.01.02-.03 0-.04a1.31 1.31 0 0 0-.6-.53c-.11-.05-.12-.11-.04-.2.08-.08.18-.15.3-.2a.5.5 0 0 1 .41-.02c.27.12.47.32.68.5h.04l.01-.02v-.02l-.46-.43Z" fill="#014B0B"/><path d="M13.22 10.8c.13.14.22.3.27.47.11.33.36.49.3.88-.06.5-.08 1.03-.06 1.57 0 .03-.01.04-.03.06-.03.02-.06.02-.08 0-.07-.5-.15-.98-.24-1.47-.05-.24.02-.38.14-.57a.12.12 0 0 0 0-.14l-.01-.01a.05.05 0 0 0-.05 0l-.01.02-.05.1c-.04.07-.07.07-.1 0a.3.3 0 0 1-.03-.14c0-.24 0-.5-.05-.78Z" fill="#018629"/><path d="M7.3 11.87c-.16-.12-.14-.33-.15-.54a1.37 1.37 0 0 1 .5-.28.1.1 0 0 1 .05.01l.02.01v.01a.02.02 0 0 1 0 .02c-.17.1-.23.2-.26.39a1 1 0 0 1-.16.38Z" fill="#BD9480"/><path d="M8.4 11.2c.08.1.08.18 0 .28-.02.02-.01.04 0 .05l.02.02a.03.03 0 0 0 .04 0 .36.36 0 0 0 .1-.1.08.08 0 0 1 .06-.03c.26-.01.42.1.46.34 0 .03 0 .05-.02.07a.16.16 0 0 0-.05.1c0 .03.01.04.04 0l.06-.04a.08.08 0 0 1 .07-.02c.2.03.33.14.36.33v.08l-.07.13c-.02.05 0 .06.04.03l.1-.07a.05.05 0 0 1 .06 0c.29.22.07.64-.14.82-.09.08-.17.16-.27.23-.1.06-.22.09-.36.1l-.3-.02-.03-.01-.01-.03v-.01l.01-.02c.36-.04.6-.2.73-.45.05-.1 0-.22-.11-.28-.2-.1-.36-.22-.5-.38a.12.12 0 0 0-.07-.04l-.35-.06a.14.14 0 0 1-.07-.03c-.08-.08-.18-.21-.28-.25-.16-.06-.44.22-.58.34-.12.1-.3.16-.54.18l.05-.66c.01-.14.11-.3.3-.47.01.2 0 .42.15.54.1-.02.18-.09.2-.18.05-.31.13-.56.53-.59.14 0 .26.03.37.1Z" fill="#CEA58F"/><path d="M8.53 11.22c0 .03.01.06.03.08.01.02.03.03.06.03.34.03.48.13.55.43 0 .02.02.04.05.04.25.04.4.18.42.42v.03l.03.02c.4.24.2.75-.08.99l-.26.23-.07-.07c.1-.07.19-.15.27-.23.21-.18.43-.6.15-.81a.05.05 0 0 0-.07 0l-.1.06c-.05.03-.06.02-.04-.03l.06-.13a.14.14 0 0 0 .01-.08c-.03-.19-.15-.3-.36-.33-.03 0-.05 0-.07.02l-.05.05c-.04.03-.05.02-.04-.02 0-.03.02-.07.04-.1a.07.07 0 0 0 .02-.06c-.04-.24-.2-.35-.46-.34a.08.08 0 0 0-.07.04.36.36 0 0 1-.1.09h-.03l-.01-.02c-.02-.01-.02-.03 0-.05.07-.1.07-.19 0-.27l.12.01Z" fill="#272E35"/><path d="M6.75 11.91c0 .1 0 .18-.03.26v-.04c-.02-.03-.04-.03-.06 0a.67.67 0 0 0-.1.6 2.3 2.3 0 0 0-.7.38c-.13.11-.28.32-.46.63a.18.18 0 0 0-.07.08l-.96-.04H4.83l.03-.03c.26-.32.44-.67.53-1.06.03-.13.1-.23.21-.3.37-.24-.16-.51-.2-.76a.1.1 0 0 1 0-.05.1.1 0 0 1 .04-.05.12.12 0 0 1 .12-.01c.29.13.37.4.76.28.02-.01.05-.01.07 0 .11.01.2.07.27.17l.03.02h.03c.02-.02.03-.04.03-.08Z" fill="#014B0B"/><path d="M8.9 13.52a3.2 3.2 0 0 1-1.1-.1c-.43-.12-1.02-.5-1-.96a.99.99 0 0 0 .54-.18c.14-.12.43-.4.58-.34.1.04.2.17.28.25.02.02.04.03.07.03l.35.07c.02 0 .05.01.07.03.14.16.3.29.5.38.1.06.16.18.11.28-.12.26-.37.4-.73.45l-.01.02v.04h.03l.31.03Z" fill="#BD9480"/><path d="M6.73 12.17c-.07.23-.07.46-.01.67.09.28.26.51.51.69.01 0 .02.01 0 .02v.02l-.02.01h-.03c-.22-.13-.39-.3-.5-.53-.02-.02-.04-.02-.06-.01a.08.08 0 0 0-.04.08c0 .1.01.19.03.29 0 .04-.02.07-.06.09a.06.06 0 0 1-.07-.02.14.14 0 0 0-.1-.04c-.04 0-.05.02-.05.04 0 .09.06.16.05.24 0 .06-.04.1-.11.12l-.94-.02a.18.18 0 0 1 .07-.08l.54-.2a.15.15 0 0 0 .08-.05c.1-.14.26-.2.37-.35.1-.13.15-.27.17-.4a.67.67 0 0 1 .1-.61c.02-.03.04-.03.06 0v.04Z" fill="#018629"/><path d="M6.56 12.73a.87.87 0 0 1-.17.4c-.1.15-.27.22-.37.36a.15.15 0 0 1-.08.06l-.54.2c.18-.32.33-.53.46-.64.14-.13.37-.25.7-.38Z" fill="#033507"/><path d="M9.02 13.8c-.15.03-.3.04-.47.05-.76.01-1.52.01-2.28-.01.07-.02.1-.06.11-.12.01-.08-.05-.15-.05-.24 0-.02.01-.04.04-.04.04 0 .08.01.11.04.02.02.05.03.07.02.04-.02.06-.05.06-.1l-.03-.28c0-.04.01-.06.04-.08.02-.01.04 0 .05.01.12.22.3.4.5.53h.04l.02-.01.01-.02v-.02c-.26-.18-.43-.4-.52-.7l.36.3c.31.26.58.4 1.03.45.32.04.64-.02.96 0a.03.03 0 0 1 .03.02v.03l-.08.17Z" fill="#014B0B"/></svg>