<!-- by TradingView --><svg width="18" height="18" viewBox="0 0 18 18" xmlns="http://www.w3.org/2000/svg"><path fill="#F0F3FA" d="M0 0h18v18H0z"/><path fill="#6A5C43" d="M4 4h10v10H4z"/><path d="M4.54 4 6.1 5.86l2.5 1.28L8 4h2.3l-.62 3.14 1.1-.12L13.46 4H14v1.54l-2.58 1.93.4 1.53L14 8.7v2.02l-2.58-.92.67 2.37L13.83 14H4.2l2.35-2.43.32-1.77-2.87.93V8.65l2.87.47L6 7.14 4 5.5V4h.54Z" fill="#D69B44"/><path d="M8.49 6.63c-.14.1-.25.2-.32.31-.02.04-.05.05-.1.04-.09-.03-.15 0-.19.08a.77.77 0 0 0-.05.23c0 .11.03.12.1.04.23-.28.57-.48 1-.6.18-.01.37.01.57.06.2.06.35.08.47.07.15 0 .32-.03.49-.07.26-.16.38-.47.36-.93.2-.64.57-1.1 1.13-1.4.29-.15.48-.06.57.26.15.56.26 1.06.33 1.5l-.4 1.06a.25.25 0 0 1-.07.1l-.08.08c-.04.04-.03.05.03.05.11-.01.22 0 .34.03-.1.17-.08.31.05.44.02.01.02.03 0 .05l-.03.02a.43.43 0 0 1-.2-.04.12.12 0 0 0-.11 0l-.15.07c-.02-.03-.06-.05-.1-.05.07-.11.03-.2-.13-.24a.04.04 0 0 0-.03 0l-.02.02v.05c.01.03 0 .05-.03.07-.03 0-.05 0-.06-.02h.03v-.02a.46.46 0 0 0-.3-.24.5.5 0 0 1 .16-.45l.01-.02v-.02l-.02-.03h-.05c-.09.08-.18.15-.29.21-.05.03-.07.02-.04-.03.04-.1.13-.17.26-.22a.15.15 0 0 0 .07-.05.1.1 0 0 0 .01-.04c.01-.04 0-.07-.05-.09-.05-.02-.07-.06-.05-.12 0-.03.02-.03.04 0a.1.1 0 0 1 .02.08c0 .01 0 .02.02.03h.04c.03 0 .05-.01.06-.04V6.8c0-.07.03-.08.08-.04.04.02.06.05.06.1 0 .13-.04.25-.14.35a.1.1 0 0 0-.04.1c.02.1.06.18.13.26a.1.1 0 0 0 .05.02.1.1 0 0 0 .05 0 .1.1 0 0 0 .04-.02 6.81 6.81 0 0 1 .3-.93c.03-.1 0-.32-.11-.65.02-.1-.02-.15-.11-.15-.22 0-.37.34-.4.49-.03.1-.1.16-.16.25-.03.02-.05.04-.1.03h-.08l-.04-.01c-.04 0-.05-.02-.04-.05.02-.14-.03-.27 0-.42.05-.22.05-.44.01-.65 0-.06-.02-.06-.04 0-.14.39-.4 1.14-.2 1.51.12.23.25.45.39.66l-.16.04a1.57 1.57 0 0 0-.81-.7.2.2 0 0 0-.17.02.17.17 0 0 0-.06.05.15.15 0 0 0-.02.07c0 .07.01.12.05.17a.14.14 0 0 0-.05.06l-.1-.1a.12.12 0 0 0-.1-.04.71.71 0 0 0-.4.16.11.11 0 0 0-.04.09c0 .08.01.15.04.2v.06h-.15a.11.11 0 0 1-.1-.03 1.17 1.17 0 0 0-.43-.34c.16-.13.29-.16.38-.1.13.1.16.07.1-.06-.07-.16-.22-.2-.44-.14-.29.08-.55.22-.77.42a.1.1 0 0 0-.04.1l.02.13a.1.1 0 0 1-.04.06c-.02-.02-.04-.02-.05-.01a2.2 2.2 0 0 0-.3.28.34.34 0 0 0-.1.17c-.01.1.01.17.08.2-.01.05-.03.08-.05.1-.04.03-.07.02-.08-.02-.03-.13-.11-.17-.24-.1a.02.02 0 0 1-.03 0v-.02a.55.55 0 0 0 .04-.36c0-.02 0-.03-.02-.04a.08.08 0 0 0-.03-.02.1.1 0 0 0-.05 0 .09.09 0 0 0-.04.02l-.15.13V8a.22.22 0 0 0 .12-.08c.02-.04.01-.06-.03-.07h-.08c-.1.06-.18.06-.26 0 .04-.04.1-.09.19-.12.05-.02.06-.05.02-.09l-.2-.22c-.03-.03-.02-.05 0-.07a.11.11 0 0 1 .07-.02c.24.01.18.25.32.36.02.02.06.03.1.04h.1a.2.2 0 0 0 .09-.06.18.18 0 0 0 .04-.1c.06-.32.08-.64.07-.95A2.45 2.45 0 0 0 7.3 5.5H7.3a.04.04 0 0 0-.04 0l-.02.03c-.05.04-.07.09-.05.14.1.27.13.54.12.82 0 .04-.02.08-.04.11s-.02.06 0 .09l.16.2c.04.05.03.06-.03.04a.78.78 0 0 1-.26-.18c-.02-.04-.01-.08.02-.12.03-.03.02-.05-.03-.06-.06-.02-.07-.05-.05-.1a.16.16 0 0 0 0-.12c-.04-.1-.12-.17-.24-.18a.1.1 0 0 1-.1-.05.43.43 0 0 0-.27-.2 2.19 2.19 0 0 0-.62-.4h-.03l-.02.03v.02c0 .13.02.25.07.36a.2.2 0 0 1 .02.1c0 .2.04.37.13.54.05.3.17.55.36.76.01.12.06.21.15.28 0 .14.05.21.12.24.11.08.14.17.1.27h-.25c0-.06-.04-.1-.14-.13l-.44-.17c.1-.19.06-.33-.12-.42-.03-.01-.04-.04-.04-.07.04-.23-.06-.42-.28-.6l-.08-.22c-.06-.73-.09-1.36-.02-2.05.07-.79.9-.4 1.3-.08a3.53 3.53 0 0 1 1.25 1.79c.04.12.22.27.57.46Z" fill="#161414"/><path d="M11.35 6.62c.02.03.03.07.02.1-.05.07-.08.13-.07.19 0 .04.02.05.05.01a.7.7 0 0 0 .15-.22c.05-.07.1-.1.15-.08l.02.02v.03l.03.04c.04.05.07.04.09-.01l.28-.71.01-.03.03-.01c.05-.01.08 0 .09.05.1.33.14.55.1.65a6.8 6.8 0 0 0-.29.93.1.1 0 0 1-.04.02.1.1 0 0 1-.05 0 .1.1 0 0 1-.05-.02.48.48 0 0 1-.13-.26c0-.04.01-.07.04-.1.1-.1.14-.22.14-.36a.12.12 0 0 0-.06-.1c-.05-.03-.08-.02-.07.05v.05c-.02.03-.04.04-.07.04h-.04l-.02-.03a.1.1 0 0 0-.02-.08c-.02-.03-.04-.03-.04 0-.02.06 0 .1.05.12.05.02.06.05.06.1a.1.1 0 0 1-.02.03.15.15 0 0 1-.07.05.42.42 0 0 0-.26.22c-.03.05-.01.06.04.03l.3-.21h.04l.02.03v.04a.5.5 0 0 0-.17.45l-.16.01a9.6 9.6 0 0 1-.39-.66c-.2-.37.06-1.12.2-1.51.02-.06.03-.06.04 0 .04.21.04.43 0 .65-.04.15.01.28-.01.42 0 .03 0 .05.04.05h.04Z" fill="#C26B3B"/><path d="m6.46 5.92.28.36c.03.03.03.06.02.1-.03.14 0 .27.1.4.02.02.01.04-.02.05a.1.1 0 0 1-.05 0 .47.47 0 0 0-.22-.1c-.04 0-.05 0-.02.03.1.1.18.2.2.3.02.11 0 .19-.01.23l-.04.24c0 .04-.02.06-.06.07a.41.41 0 0 1-.12.01.41.41 0 0 1-.15-.28c.12-.38 0-.63-.36-.76-.09-.17-.13-.35-.13-.55a.2.2 0 0 0-.02-.1.74.74 0 0 1-.07-.35v-.02l.03-.02a.07.07 0 0 1 .05 0c.23.1.42.23.59.39Z" fill="#E86246"/><path d="M6.95 7.34c-.04-.03-.1-.05-.21-.05.02-.04.03-.12.02-.22.03.08.12.13.28.15.08.05.2.13.36.26.03.02.07.02.12 0 .02 0 .02-.02 0-.03l-.04-.01a.13.13 0 0 1-.05-.05l-.37-.59c-.02-.03-.01-.04.02-.05h.05c.07.08.16.13.26.18.06.02.07.01.03-.04l-.16-.2c-.02-.03-.02-.06 0-.09a.18.18 0 0 0 .04-.1 2.3 2.3 0 0 0-.12-.83c-.01-.05 0-.1.05-.14l.02-.02.02-.01a.04.04 0 0 1 .03 0l.01.02c.23.4.35.77.36 1.11.02.3-.01.63-.07.96 0 .03-.02.06-.04.09a.2.2 0 0 1-.1.05.22.22 0 0 1-.2-.03c-.13-.11-.07-.35-.3-.36Z" fill="#C26B3B"/><path d="M12.2 6c-.01-.04-.04-.06-.09-.05l-.03.01-.02.03-.27.7c-.02.06-.05.07-.1.02a.06.06 0 0 1-.01-.04l-.01-.03-.03-.02c-.05-.01-.1.01-.14.08l-.01-.03h-.05a.24.24 0 0 0-.07.06c.01-.04 0-.08-.02-.11h.09c.04 0 .06 0 .09-.03.06-.09.13-.15.15-.25.04-.15.19-.5.41-.49.1 0 .13.05.1.15ZM7.13 6.75h-.05c-.03 0-.04.02-.02.05l.37.59c0 .02.03.03.05.05l.04.01c.02.01.02.02 0 .03-.05.02-.09.02-.12 0-.16-.13-.28-.21-.36-.26.05-.02.02-.07-.08-.14A.14.14 0 0 1 6.9 7a.29.29 0 0 0-.1-.16.1.1 0 0 0 .04 0c.03-.02.04-.04.02-.06a.46.46 0 0 1-.1-.4c.01-.04 0-.07-.02-.1l-.28-.36c.12.03.21.1.28.2a.1.1 0 0 0 .09.05c.12.01.2.07.24.18.02.04.02.08 0 .12-.02.05 0 .08.05.1.05 0 .06.03.03.06-.03.04-.04.08-.02.12Z" fill="#672F1F"/><path d="M12.85 6.23c.06.42.05.8-.03 1.13a.54.54 0 0 1-.15.18.85.85 0 0 0-.34-.03c-.06 0-.07-.01-.03-.05l.08-.08a.25.25 0 0 0 .07-.1l.4-1.05Z" fill="#010000"/><path d="M6.37 7.33c-.2-.2-.3-.46-.36-.76.36.13.48.38.36.76ZM8.93 6.72c-.43.13-.77.33-1 .6-.07.1-.1.08-.1-.03 0-.07.02-.15.05-.23.04-.08.1-.11.2-.08.04.01.07 0 .1-.04a.95.95 0 0 1 .3-.3l.45.08Z" fill="#672F1F"/><path d="M11.5 6.7a.7.7 0 0 1-.15.22c-.03.04-.05.03-.05-.01 0-.06.02-.12.07-.18a.24.24 0 0 1 .08-.06h.04l.01.03Z" fill="#2D2A2E"/><path d="M6.8 6.84c.05.04.08.1.1.16 0 .04.03.06.06.08.1.07.13.12.08.14-.16-.02-.25-.07-.28-.15a.66.66 0 0 0-.21-.3c-.03-.03-.02-.05.02-.04.08.01.15.05.22.1Z" fill="#161414"/><path d="m5.9 7.82-.09.02c-.12.02-.12.06-.02.1.1.06.22.1.35.15.1.04.16 0 .21-.1.1.03.15.07.14.13-.08.28-.21.4-.38.35A1 1 0 0 1 5.62 8v-.17c0-.05.01-.07.07-.08.06 0 .12-.02.17-.06.04-.03.04-.05-.02-.05a.22.22 0 0 1-.15-.07c-.03-.03-.06-.03-.1 0l-.09.1c-.02-.06 0-.13.05-.19a.08.08 0 0 0 .02-.1.3.3 0 0 1 0-.2.16.16 0 0 0 0-.11l-.1-.32c.22.17.32.36.28.59 0 .03.01.06.05.07.17.1.2.23.1.42Z" fill="#672F1F"/><path d="M11.27 7.7c-.15-.19-.32-.34-.5-.46-.19-.12-.36-.1-.5.07a.21.21 0 0 1-.06-.17l.02-.07a.17.17 0 0 1 .06-.05.2.2 0 0 1 .17-.01c.36.14.63.37.81.7ZM8.93 7.37l-.75.35-.02-.13c0-.04 0-.07.04-.1.22-.2.48-.34.77-.42.22-.07.37-.02.44.14.07.13.03.16-.1.07-.1-.07-.22-.04-.38.09Z" fill="#C26B3B"/><path d="m11.27 7.7.16-.04.16-.01c.15.04.25.12.3.24v.01l-.03.01-.21-.11-.04.01-.02.02c-.01.02 0 .04.01.05.07.04.13.1.16.16a4 4 0 0 0 .3.46c.04.05.05.05.04-.01a.52.52 0 0 0-.14-.26.09.09 0 0 1-.02-.04v-.04l.01-.04A.1.1 0 0 1 12 8.1l.13-.06c.05 0 .1.02.11.05-.03.05.01.13.13.23-.04.13.03.23.22.32-.07.03-.1.07-.1.12l.03.05a.1.1 0 0 0 .04.03c.06.02.09.05.1.1v.05l-.03.01h-.03a.44.44 0 0 0-.15 0c-.04 0-.06.03-.05.07.01.04.04.08.1.1.05.01.05.03 0 .06a.12.12 0 0 0-.04.02c-.04.03-.04.06 0 .08.06.04.07.1.05.16-.04.11-.1.23-.17.34-.08.12-.02.3.08.38.02.03.04.05.04.08.03.11.01.23-.04.36-.07-.3-.19-.55-.34-.78-.04-.04-.08-.13-.11-.29a.72.72 0 0 0-.38-.48.15.15 0 0 0-.1-.02.87.87 0 0 1-.62-.1l.11-.04c.03 0 .05-.02.07-.04a.1.1 0 0 0 .03-.13.12.12 0 0 0-.06-.05 2.47 2.47 0 0 1-.62-.52l-.18-.69v-.13a.14.14 0 0 1 .05-.06c.15-.17.32-.2.5-.07.19.12.36.27.51.46Z" fill="#010000"/><path d="m10.2 7.37.01.13c-.27.04-.47.1-.6.18a.4.4 0 0 1-.04-.2c0-.04.01-.07.04-.1.1-.08.23-.13.4-.15.04 0 .07.01.1.04l.1.1ZM6.74 7.29c.1 0 .17.02.21.05-.03 0-.05 0-.06.02-.03.02-.04.04-.01.07l.2.22c.04.04.03.07-.02.1a.36.36 0 0 0-.19.11c-.2-.12-.27-.13-.23-.01-.07-.03-.11-.1-.12-.24l.12-.01c.04-.01.06-.03.06-.07l.04-.24ZM12.82 7.36c.06.11.08.22.07.34 0 .04 0 .07.03.1.15.27.09.49-.2.66a.27.27 0 0 0-.14.17c-.19-.09-.26-.2-.22-.32a.8.8 0 0 0 .33-.2.04.04 0 0 0 .01-.03l-.01-.03.03-.02c.02-.02.02-.04 0-.05-.13-.13-.15-.27-.05-.44a.54.54 0 0 0 .15-.18Z" fill="#672F1F"/><path d="M8.93 7.37c.17.07.3.19.43.34.02.03.05.04.1.04l.15-.01.13.58c-.27.39-.44.81-.52 1.27-.3.3-.4.65-.3 1.06.04.11.09.2.17.27l.2.25c.02.04 0 .07-.05.08l-.1.02c-.07 0-.1-.02-.1-.08a.33.33 0 0 0-.07-.26c-.03-.04-.06-.04-.07.02a.55.55 0 0 0-.02.25.9.9 0 0 1-.58.36c.04-.27.01-.5-.08-.7.2-.26.46-.51.46-.84 0-.04-.02-.07-.05-.08-.3-.1-.6-.12-.94-.02l-.06-.6c0-.03-.02-.03-.04 0-.31.35-.65.68-1.02.98-.05.04-.09.14-.11.3a.5.5 0 0 0-.1.38c0 .04 0 .08-.03.1-.07.13-.12.26-.14.4-.01.05-.03.08-.06.1l-.06.03c-.04 0-.07-.02-.08-.05L6 11.5c.12-.16.2-.34.26-.53.02-.1-.01-.12-.1-.06a.26.26 0 0 1-.08.03c-.11.02-.12 0-.04-.07a.8.8 0 0 0 .28-.49.1.1 0 0 0-.03-.08.84.84 0 0 1-.06-.08c-.04-.05-.03-.07.05-.07h.03c.02-.02.03-.04.02-.06-.05-.09-.04-.16.04-.22.03-.03.04-.06.03-.09a.33.33 0 0 0-.06-.1v-.06c.02-.03.03-.03.05 0 .14.15.12.33-.04.54-.02.03 0 .05.05.07a.16.16 0 0 0 .12-.02.14.14 0 0 0 .04-.04 1.2 1.2 0 0 1 .56-2.07l.15-.12.04-.02a.1.1 0 0 1 .05 0l.03.02.02.04c.03.12.01.25-.05.36v.01l.01.02h.03c.13-.08.21-.04.24.1.01.03.04.04.08.01.02-.02.04-.05.05-.1l.37-.64a.1.1 0 0 0 .04-.06l.75-.35Z" fill="#010000"/><path d="m10.22 7.5.17.7a.55.55 0 0 1-.31.18c-.06.02-.08 0-.07-.06v-.07a.1.1 0 0 0-.04-.06c-.01-.01-.03-.02-.06 0H9.9l-.01.02-.03.1-.01.02a.06.06 0 0 1-.04.02.1.1 0 0 1-.07-.03l-.13-.58v-.06c.13-.08.33-.14.6-.18ZM5.62 8a.63.63 0 0 0-.12-.34l.1-.1c.03-.03.06-.03.1 0 .03.04.08.06.14.07.06 0 .06.02.02.05a.33.33 0 0 1-.18.06c-.05 0-.07.03-.07.08l.01.17ZM6.87 7.86c.08.06.16.06.26 0a.12.12 0 0 1 .08 0c.04 0 .05.03.03.07a.22.22 0 0 1-.12.08c-.1.03-.21.1-.34.2l-.04-.09c.04-.1.01-.2-.1-.27-.04-.12.03-.11.23.01ZM8.14 7.78l-.37.64c-.07-.03-.1-.1-.07-.2a.34.34 0 0 1 .08-.17l.3-.28c.02-.01.04 0 .06.01ZM12.12 8.03l-.13.06a.1.1 0 0 0-.04.02.09.09 0 0 0-.02.04.08.08 0 0 0 .03.08c.07.08.12.16.14.26.01.06 0 .06-.04 0a4 4 0 0 1-.3-.45.42.42 0 0 0-.16-.16c-.02-.01-.02-.03 0-.05v-.02c.02-.02.03-.02.05-.01l.2.11c.02.02.04.03.07.02.03-.02.04-.04.04-.07V7.8l.01-.01a.04.04 0 0 1 .03 0c.16.05.2.13.12.24Z" fill="#C26B3B"/><path d="m5.9 7.82.45.17c-.05.1-.12.14-.21.1l-.35-.14c-.1-.05-.1-.1.02-.11l.1-.02ZM12.69 8.05l.01.03v.04a.8.8 0 0 1-.34.19c-.12-.1-.16-.18-.13-.23l.15-.07a.12.12 0 0 1 .1 0c.07.03.14.04.2.04Z" fill="#C26B3B"/><path d="M7.12 8v.1L7 8.35a24.28 24.28 0 0 0-.44 1.83.14.14 0 0 1-.04.04.15.15 0 0 1-.12.02c-.05-.02-.07-.04-.05-.07.16-.21.18-.4.04-.55-.02-.02-.03-.02-.05.01v.05a.12.12 0 0 1-.04-.03V9.6l.02-.02a.12.12 0 0 0 .06-.07l.03.03c.03.02.05.02.08 0 .22-.21.2-.47.25-.73a.13.13 0 0 0-.03-.11l-.07-.09a.1.1 0 0 1-.02-.05V8.5l.16-.29c.13-.1.24-.17.34-.2Z" fill="#672F1F"/><path d="m6.74 8.12.04.09-.15.3-.01.04c0 .02 0 .04.02.05l.07.09a.14.14 0 0 1 .03.1c-.05.27-.03.53-.25.74-.03.02-.05.02-.08 0l-.03-.03c-.05-.03-.08-.07-.08-.11 0-.04.01-.07.05-.08a.35.35 0 0 0 .1-.05c.03-.02.04-.05.04-.07l-.02-.03a.08.08 0 0 0-.07-.02.25.25 0 0 0-.08.03c-.07.04-.1.03-.08-.04 0-.03.02-.06.05-.08.14-.12.12-.17-.07-.15l-.15.01c-.05 0-.06-.01-.03-.04l.17-.16c.02-.03.03-.05 0-.09l-.1-.15c.17.05.3-.07.38-.35h.25Z" fill="#010000"/><path d="M10.4 8.2c.16.2.37.37.61.51.02.02.04.03.05.06a.1.1 0 0 1 .01.06c0 .03-.02.05-.03.06a.13.13 0 0 1-.07.04l-.1.03a1.2 1.2 0 0 0-.46-.2l-.25-.09a.1.1 0 0 0-.06 0 .09.09 0 0 0-.05.04c-.15.23-.17.43-.05.6a.44.44 0 0 0 0 .18c0 .03.03.04.07.04.5-.1 1-.15 1.52-.14.04 0 .07.02.08.05.04.1.04.23 0 .36a.77.77 0 0 0-.22.26v.04c0 .02 0 .03.02.04l.04.02h.04l.28-.09c-.13.3-.4.57-.48.85a1.5 1.5 0 0 0-.05.64c.02.1.06.12.14.03l.24-.28-.07.27-.28.6c-.01.03 0 .06.03.09.09.05.18.02.27-.08v.12c-.02.02-.05.03-.11.04-.2 0-.31.1-.35.31l-.4-.12.34-.36a.08.08 0 0 0 .02-.06.08.08 0 0 0-.03-.06l-.04-.03c-.08-.06-.15-.06-.2.02l-.16.2a.3.3 0 0 1-.1.07.34.34 0 0 1-.26.03.33.33 0 0 1-.11-.06l-.26-.2a.12.12 0 0 0-.14 0l-.53.36c-.08.08-.28.13-.59.13-.03-.06-.1-.12-.22-.18-.07-.47-.28-.78-.64-.93v-.02c.11-.11.26-.08.45.1a.9.9 0 0 0 .58-.35l.02.33c0 .04.02.07.05.1.16.15.43.21.6.03.28-.31.47-.63.56-.96a.22.22 0 0 0-.03-.18 2.91 2.91 0 0 1-.35-.67.8.8 0 0 0-.26-.36.1.1 0 0 0-.1-.01.36.36 0 0 0-.15.1c.08-.45.25-.87.52-1.26a.1.1 0 0 0 .07.03c.01 0 .02 0 .03-.02.01 0 .02-.01.02-.03l.02-.09.01-.02h.02c.03-.02.05-.01.06 0a.1.1 0 0 1 .04.06v.07c-.01.06.01.08.07.06.13-.03.23-.09.31-.19Z" fill="#161414"/><path d="M10.41 8.77c.12.04.21.1.27.17.02.03.01.05-.02.07l-.66.3c-.12-.17-.1-.37.05-.6a.09.09 0 0 1 .05-.04.1.1 0 0 1 .06 0l.25.1Z" fill="#010000"/><path d="M10.86 8.96c.2.11.4.15.61.1.04 0 .08 0 .11.03.21.12.34.28.38.48.03.16.07.25.11.3a.83.83 0 0 0-.1.54c-.02.1-.03.2-.02.31l-.27.6-.24.27c-.08.09-.12.07-.14-.03a1.5 1.5 0 0 1 .05-.64c.08-.28.35-.54.48-.85 0-.17-.05-.26-.16-.27a.55.55 0 0 0 0-.36c-.01-.03-.04-.05-.08-.05-.52 0-1.03.04-1.52.14-.04 0-.06-.01-.07-.04a.44.44 0 0 1 0-.18l.66-.3c.03-.02.04-.04.02-.07a.56.56 0 0 0-.27-.17c.17.03.32.1.45.2Z" fill="#2D2A2E"/><path d="m7.7 9.92.2.5-.04 1.03v.02c-.34.07-.42-.05-.68-.12-.04-.01-.06-.04-.07-.07a.2.2 0 0 1 0-.1v-.05a6.97 6.97 0 0 1-.52-.2c-.16-.05-.2-.16-.13-.32.02-.17.06-.27.1-.31.38-.3.72-.63 1.03-.99.02-.02.04-.02.04.01l.06.6Z" fill="#C26B3B"/><path d="M8.88 11.2a.55.55 0 0 1 .02-.25c.01-.06.04-.06.07-.02.07.08.09.17.08.26-.01.06.02.09.08.08l.11-.02c.05-.01.07-.04.04-.08a.97.97 0 0 0-.2-.25.54.54 0 0 1-.15-.27c-.1-.4-.01-.76.29-1.06.04-.06.1-.1.15-.11a.1.1 0 0 1 .1.01c.12.1.21.22.26.36.08.23.2.45.35.67a.22.22 0 0 1 .03.18c-.09.33-.28.65-.57.96-.16.18-.43.12-.59-.03a.15.15 0 0 1-.05-.1l-.02-.33Z" fill="#2D2A2E"/><path d="m8.22 10.86-.33-.44-.2-.5c.33-.1.64-.09.94.02.03.01.05.04.05.07 0 .34-.26.6-.46.85Z" fill="#161414"/><path d="M11.67 9.8c.11.01.17.1.16.27l-.28.09h-.04a.08.08 0 0 1-.04-.02.07.07 0 0 1-.02-.04v-.04c.05-.1.12-.18.22-.26Z" fill="#010000"/><path d="M12.41 10.64c.02-.04.03-.01.03.1-.07 0-.1.07-.09.22-.02.18-.1.28-.26.28-.08 0-.1.03-.05.09l.03.04c.05.04.05.08-.01.1a.86.86 0 0 1-.45.1l.07-.26c.25-.54.13-1.02.4-1.45.14.23.26.49.33.78Z" fill="#E86246"/><path d="M8.22 10.86c.09.2.12.43.08.7-.2-.19-.34-.22-.44-.11l.03-1.03.33.44Z" fill="#672F1F"/><path d="M6.46 10.6c-.07.17-.03.28.13.34a6.96 6.96 0 0 0 .52.19v.06a.2.2 0 0 0 0 .09c.01.03.03.06.07.07.26.07.34.19.67.12.36.15.57.46.64.93-.13 0-.26-.02-.4-.06a.19.19 0 0 1-.09-.06.6.6 0 0 0-.28-.2 8.85 8.85 0 0 1-1.16-.44.19.19 0 0 0-.13.05.16.16 0 0 0-.04.05c-.07.17-.14.64.13.72a.1.1 0 0 1 .06.04c.09.14-.02.24.04.36.03.06.08.08.15.08a.44.44 0 0 0-.12.17c-.03.1-.06.1-.08 0-.02-.1-.03-.2-.02-.3a.11.11 0 0 0-.06-.1l-.16-.12a.13.13 0 0 1-.06-.1L6.2 12c0-.05 0-.1.04-.14l.1-.15c.02-.04 0-.06-.04-.07-.1-.02-.16 0-.2.07a.17.17 0 0 0-.04-.1l.06-.04a.13.13 0 0 0 .06-.1c.02-.14.07-.27.14-.4a.17.17 0 0 0 .03-.1.5.5 0 0 1 .1-.38Z" fill="#672F1F"/><path d="M12.44 10.74c.1.1.13.22.12.35-.01.03 0 .06.02.08.06.08.1.16.12.25.01.04 0 .06-.05.06a.1.1 0 0 1-.04 0c-.06-.03-.09 0-.08.05.02.13.07.24.15.34.03.03.04.06.04.1 0 .17.01.33.03.48a.1.1 0 0 1-.05.1c-.02.01-.05.01-.07-.02a.14.14 0 0 0-.08-.04c-.06-.02-.07 0-.05.05.16.32.14.64-.05.97a.1.1 0 0 0 0 .1c.03.07.02.13-.03.19l-.02.02a.06.06 0 0 0 0 .05l.02.02.05.03c.08.01.08.03 0 .05-.05.02-.11.04-.17.03a.4.4 0 0 1 .06-.38.16.16 0 0 0 .04-.1c.01-.27.22-.73-.06-.93a.08.08 0 0 0-.1 0 .08.08 0 0 1-.07 0 .07.07 0 0 1-.04-.07c0-.04 0-.07.03-.1.05-.05.09-.1.11-.17.02-.03.05-.05.1-.03.07.03.13.07.17.12.03.03.06.03.08 0v-.04c-.02-.1-.08-.2-.15-.31a.16.16 0 0 1-.03-.14.8.8 0 0 0 .01-.3c-.03-.02-.05-.04-.05-.06 0-.05.02-.06.07-.06.03.01.06 0 .08-.01.05-.03.05-.07 0-.1-.07-.04-.08-.1-.05-.15a.09.09 0 0 0 0-.1.28.28 0 0 0-.15-.1c0-.16.02-.24.09-.23Z" fill="#161414"/><path d="M12.45 11.55a.55.55 0 0 0-.38.2c-.03.03-.02.04.02.03a.1.1 0 0 0 .07-.05c.01-.01.02-.02.04-.01h.01c.02.02.03.04.02.06-.07.14-.16.22-.26.23-.29.04-.4.1-.34.18-.1.1-.18.13-.27.08-.03-.03-.04-.06-.03-.1l.28-.6c.14.02.29-.02.45-.1.06-.02.06-.06.01-.1a.22.22 0 0 1-.03-.04c-.05-.06-.03-.1.05-.1.15 0 .24-.09.26-.27.06.02.11.06.14.12.02.03.02.06 0 .09-.02.05 0 .1.06.15.05.03.05.07 0 .1a.11.11 0 0 1-.08.01c-.05 0-.08.01-.07.06 0 .02.01.04.05.06Z" fill="#672F1F"/><path d="M12.45 11.55c.02.1.01.2-.01.3-.01.05 0 .1.03.14.07.1.13.2.16.31v.03c-.03.04-.06.04-.09 0a.47.47 0 0 0-.18-.11c-.04-.02-.07 0-.09.03a.66.66 0 0 1-.1.18.13.13 0 0 0-.04.09c0 .03.01.05.04.06.02.02.05.02.08 0a.08.08 0 0 1 .1.01c.27.2.06.66.05.93 0 .04-.01.07-.04.1a.4.4 0 0 0-.06.38h-1.14l.04-.28c0-.04 0-.06-.03-.08a.79.79 0 0 1-.02-.02c-.05-.05-.08-.04-.07.03 0 .11-.02.24-.08.35h-.28l.07-.47a.18.18 0 0 1 .1-.14.13.13 0 0 0 .06-.07l.22-.66c.04-.2.15-.3.35-.31.06 0 .1-.02.1-.04.02-.03.02-.07.01-.12-.06-.08.05-.14.34-.18.1-.01.19-.09.26-.23 0-.02 0-.04-.02-.06h-.05a.1.1 0 0 1-.07.06c-.04 0-.05 0-.02-.03.1-.12.23-.19.38-.2Z" fill="#C26B3B"/><path d="m6.77 12.94.09-.04c.03.01.06.04.07.09a.8.8 0 0 0-.01.7c.03.07.05.07.05 0l.02-.26c.02-.15.08-.16.18-.03.03.04.02.12-.01.26v.05c.03.06.04.04.04-.06 0-.06.03-.1.1-.12.03 0 .06-.02.08-.05a.12.12 0 0 0 .02-.07c0-.05.03-.09.07-.12l-.11.38c0 .02 0 .03.02.05l.03.01h.04l.24-.31.07.02c-.03.05-.05.09-.04.12l.01.02h.03c.08-.01.09.01.04.07-.09.1-.17.22-.24.35H5.1a.1.1 0 0 1-.04 0l-.02-.03a.04.04 0 0 1 0-.05.16.16 0 0 0 .05-.11c0-.03 0-.05-.02-.07-.07-.06-.09-.13-.05-.21a.33.33 0 0 1 .11-.12c.51-.34.8-.8.86-1.4 0-.07.05-.17.13-.29.03-.06.1-.09.19-.07.05 0 .06.03.03.07l-.1.15a.2.2 0 0 0-.03.14l.06.48c0 .04.02.07.06.1l.17.12c.03.02.05.06.05.1-.01.1 0 .2.02.3.02.1.05.1.08 0 .01-.05.05-.1.12-.17Z" fill="#010000"/><path d="M8.49 12.4c.12.06.19.12.22.18.06.14.3.49.2.68a.19.19 0 0 0-.02.1l.04.34a.1.1 0 0 1 0 .05.1.1 0 0 1-.05.04.12.12 0 0 1-.12 0c-.32-.18-.4-.44-.23-.77a.06.06 0 0 0 0-.06l-.03-.02h-.03c-.25-.02-.4.07-.65-.02-.14-.05-.2-.14-.22-.25a.17.17 0 0 0-.03-.08.19.19 0 0 0-.07-.06.21.21 0 0 0-.18 0c-.17.07-.33.2-.46.37l-.1.04c-.06 0-.11-.02-.14-.08-.06-.12.05-.22-.04-.36a.1.1 0 0 0-.06-.04c-.27-.08-.2-.55-.13-.72 0-.02.02-.04.04-.05a.18.18 0 0 1 .13-.05c.03 0 .05 0 .08.02.36.17.72.31 1.08.43.1.03.2.1.28.2l.1.05c.13.04.26.06.39.06Z" fill="#C26B3B"/><path d="M10.77 12.54c-.21-.08-.32-.05-.34.09-.03.31-.08.62-.15.93-.02.1.01.2.1.31.01.02.01.04-.01.05l-.03.02h-.02l-.22-.3c-.04-.06-.07-.05-.08.02v.06c.04.11 0 .13-.08.05-.05-.04-.04-.13.01-.28v-.04a.07.07 0 0 0-.02-.03.08.08 0 0 0-.08-.01.2.2 0 0 0-.07.04c-.13.1-.2.09-.21-.07a2.92 2.92 0 0 0-.27-.93l.53-.37a.12.12 0 0 1 .14 0l.26.2.11.07a.35.35 0 0 0 .26-.03.3.3 0 0 0 .1-.08l.15-.2c.06-.07.13-.07.21-.01l.04.03c.02.01.03.03.03.06 0 .02 0 .04-.02.06l-.34.36Z" fill="#010000"/><path d="M8.71 12.58c.31 0 .5-.05.59-.13.16.36.25.66.27.93.01.15.08.18.21.07a.2.2 0 0 1 .07-.04.08.08 0 0 1 .08.01l.03.04v.03c-.06.15-.07.24-.02.28.09.08.12.06.08-.05v-.06c0-.07.04-.08.08-.02l.22.3h.02l.03-.02c.02 0 .02-.03 0-.05-.08-.1-.1-.2-.09-.3.07-.32.12-.63.15-.94.02-.14.13-.17.34-.1l.4.13-.22.66a.13.13 0 0 1-.07.07.18.18 0 0 0-.1.14l-.06.47H8.47a.9.9 0 0 0-.2-.48c-.14-.13-.3-.16-.51-.08l-.07-.02c.06-.07.06-.11 0-.14-.24-.1-.33-.25-.28-.47v-.04a.08.08 0 0 0-.04-.04c-.22-.09-.38.1-.44.26-.01-.05-.04-.08-.07-.09.13-.17.29-.3.46-.38a.21.21 0 0 1 .18 0l.07.07c.02.02.03.05.03.08.01.11.08.2.22.25.24.1.4 0 .65.01l.03.01.03.02a.06.06 0 0 1 0 .06c-.17.33-.1.59.23.77a.12.12 0 0 0 .12 0 .1.1 0 0 0 .04-.04.1.1 0 0 0 .01-.05l-.04-.33c0-.04 0-.07.02-.1.1-.2-.14-.55-.2-.69Z" fill="#672F1F"/><path d="m7.69 13.42-.24.3-.02.02h-.02l-.03-.02c-.02-.02-.03-.03-.02-.05l.11-.38a.15.15 0 0 0-.07.12c0 .03 0 .05-.03.07a.14.14 0 0 1-.07.05c-.07.02-.1.06-.1.12 0 .1-.01.12-.04.06a.09.09 0 0 1 0-.05c.03-.14.04-.22 0-.26-.09-.13-.15-.12-.17.03a2.7 2.7 0 0 0-.02.26c0 .07-.02.07-.05 0a.8.8 0 0 1 0-.7c.07-.17.23-.35.45-.26l.04.04v.04c-.05.22.04.38.29.47.05.03.05.07-.01.14ZM8.48 14h-.92c.07-.13.15-.25.24-.36.05-.05.04-.07-.04-.06h-.03l-.01-.02c0-.03 0-.07.04-.12.2-.08.38-.05.5.08.1.11.18.27.22.48Z" fill="#C26B3B"/><path d="M11.16 14H11a.73.73 0 0 0 .08-.36c0-.06.02-.07.07-.02l.02.02c.03.02.04.04.03.08l-.04.28Z" fill="#2D2A2E"/><path d="M11.05 8.12a.15.15 0 0 0-.03-.08c-.03-.04-.03-.05.02-.03.17.05.3.14.36.28.03.07.03.14 0 .21-.06.17-.13.23-.2.18-.03-.02-.04-.05-.02-.08l.1-.2a.11.11 0 0 0 0-.11.13.13 0 0 0-.05-.04.14.14 0 0 0-.05-.02c-.08-.02-.12-.05-.13-.11Z" fill="#9A9A9A"/><path d="M11.11 8.36a.03.03 0 0 1 .03 0l.01.01v.02c0 .05-.04.09-.09.11-.05.02-.06 0-.05-.04.01-.05.05-.09.1-.1Z" fill="#672F1F"/><path d="M8.8 8.62c.1-.07.18-.16.22-.26a.09.09 0 0 0-.02-.1l-.24-.25c.1 0 .14-.03.12-.09v-.04l.02-.03.04-.02.05.01c.32.16.4.41.26.75a.12.12 0 0 1-.09.07.49.49 0 0 1-.37-.04Z" fill="#161414"/><path d="m8.76 8 .24.27.02.04v.05a.54.54 0 0 1-.23.26c-.13.07-.2.07-.23 0l.07-.03c.1-.03.17-.1.17-.25 0-.1-.04-.13-.14-.11-.06 0-.1-.01-.1-.07v-.11c.01-.04.04-.06.09-.07a.2.2 0 0 1 .11.03Z" fill="#9A9A9A"/><path d="m8.63 8.6-.07.03c-.1 0-.17-.03-.21-.08-.04-.03-.03-.06 0-.08.05-.02.09-.01.13.03.05.05.1.08.15.1Z" fill="#672F1F"/><path d="M10.82 9.66a.13.13 0 0 1 .15.01.1.1 0 0 1 .03.04c.03.07.03.14.02.22-.01.05-.04.08-.1.1a.69.69 0 0 1-.37 0c-.06-.02-.07-.05-.04-.1.08-.1.18-.2.31-.27Z" fill="#010000"/><path d="M11.95 12.82a.39.39 0 0 1-.16-.09c-.03-.03-.03-.06.01-.08.09-.04.16-.02.22.07.03.04.03.08.03.12-.04.2-.01.37.07.54.02.05 0 .07-.04.05a.65.65 0 0 0-.45 0 .13.13 0 0 0-.08.06.47.47 0 0 1-.06.1c-.08.1-.12.08-.11-.06l.03-.36c0-.04 0-.09.03-.13a.31.31 0 0 1 .07-.1.24.24 0 0 1 .1-.05h.1l.23.05c.01 0 .02 0 .02-.02v-.08l-.01-.02Z" fill="#672F1F"/></svg>