<!-- by TradingView --><svg width="18" height="18" viewBox="0 0 18 18" xmlns="http://www.w3.org/2000/svg"><path fill="url(#ald0wztzy)" d="M0 0h18v18H0z"/><path d="M5.55 5H4l2.91 2.85a3 3 0 0 0 4.18 0L14 5h-1.55l-2.3 2.25c-.64.62-1.66.62-2.3 0L5.55 5Z" fill="url(#bld0wztzy)"/><path d="M5.55 13H4l2.91-2.85a3 3 0 0 1 4.18 0L14 13h-1.55l-2.3-2.25a1.65 1.65 0 0 0-2.3 0L5.55 13Z" fill="url(#cld0wztzy)"/><defs><linearGradient id="ald0wztzy" x1="3.35" y1="3.12" x2="21.9" y2="24.43" gradientUnits="userSpaceOnUse"><stop stop-color="#1A1E21"/><stop offset="1" stop-color="#06060A"/></linearGradient><linearGradient id="bld0wztzy" x1="7.86" y1="7.25" x2="10.71" y2="4.52" gradientUnits="userSpaceOnUse"><stop stop-color="#5E8AD8"/><stop offset="1" stop-color="#23F59A"/></linearGradient><linearGradient id="cld0wztzy" x1="5.04" y1="12.81" x2="8.31" y2="8.99" gradientUnits="userSpaceOnUse"><stop stop-color="#E505FE"/><stop offset="1" stop-color="#519AD2"/></linearGradient></defs></svg>