<!-- by TradingView --><svg width="18" height="18" viewBox="0 0 18 18" xmlns="http://www.w3.org/2000/svg"><path fill="#F0F3FA" d="M0 0h18v18H0z"/><path d="M4 7.25v3.78c0 .28.14.57.42.72l1.53.83c.19.1.4.13.6.1V8.66L4.08 7.23 4 7.25Z" fill="url(#a)"/><path d="M6.64 8.66h-.08v4.02a.97.97 0 0 0 .34-.12l5.7-3.41a.8.8 0 0 0 .4-.7V4.64L6.64 8.66Z" fill="url(#b)"/><path d="M10.2 3.13c.3-.17.66-.17.96 0l1.43.8c.54.3.55 1.09.01 1.4L6.9 8.76a.96.96 0 0 1-.95.02l-1.53-.83a.82.82 0 0 1-.02-1.42l5.8-3.39Z" fill="#69FEFD"/><path d="M10.39 3.47c.18-.1.4-.1.59 0l1.42.8c.28.16.29.57.01.73l-5.7 3.4a.6.6 0 0 1-.59.02L4.6 7.6a.43.43 0 0 1-.01-.74l5.8-3.39Z" fill="url(#c)"/><path d="M12.64 13.01 9.5 14.83l.25-.52-.12-5.54L7 7.38l2.82-1.81a.7.7 0 0 1 .72 0l2.1 1.25c.23.14.36.38.36.64v4.91c0 .27-.14.51-.36.64Z" fill="url(#d)"/><path d="M9.5 8.24c.3.18.5.5.5.86v5.08c0 .64-.66 1.04-1.2.7l-1.77-.95a1 1 0 0 1-.46-.86v-2.25l.05 1.85.18-.06L9.63 11v-.65c0-.78 0-1.12-.14-1.35-.13-.2-.38-.34-.87-.64a3.5 3.5 0 0 0-.44-.23l-.5-.25-1.1.72v-.55c0-.63.76-1.02 1.3-.69l1.62.87Z" fill="url(#e)"/><path d="m9.63 10.89-2.74 1.67v.46c0 .2.1.4.27.52l1.86 1.03c.27.18.61-.02.6-.36V10.9Z" fill="url(#f)"/><path d="m7.65 7.85-.63.36c0-.33.36-.53.63-.36Z" fill="#04A853"/><path d="m6.55 12.7.16-3.94h-.32l.16 3.93Z" fill="#69FEFD"/><defs><linearGradient id="a" x1="6.44" y1="8.91" x2="4.95" y2="11.88" gradientUnits="userSpaceOnUse"><stop stop-color="#00F5D8"/><stop offset="1" stop-color="#01D67A"/></linearGradient><linearGradient id="b" x1="8.81" y1="11.04" x2="7.34" y2="9.14" gradientUnits="userSpaceOnUse"><stop stop-color="#00A64A"/><stop offset="1" stop-color="#00F6E4"/></linearGradient><linearGradient id="c" x1="12.62" y1="5.94" x2="4.38" y2="5.94" gradientUnits="userSpaceOnUse"><stop stop-color="#0AAB74"/><stop offset=".26" stop-color="#40ECC4"/><stop offset=".78" stop-color="#099C50"/></linearGradient><linearGradient id="d" x1="8.27" y1="6.55" x2="12.01" y2="13.3" gradientUnits="userSpaceOnUse"><stop stop-color="#03FEF9"/><stop offset=".35" stop-color="#8BFFFE"/><stop offset="1" stop-color="#00D77C"/></linearGradient><linearGradient id="e" x1="8.25" y1="7.25" x2="8.25" y2="15" gradientUnits="userSpaceOnUse"><stop stop-color="#85FFFF"/><stop offset="1" stop-color="#57F3AE"/></linearGradient><linearGradient id="f" x1="8.19" y1="11.61" x2="9.52" y2="14.45" gradientUnits="userSpaceOnUse"><stop stop-color="#3FECC8"/><stop offset=".26" stop-color="#40ECC4"/><stop offset=".78" stop-color="#099C50"/></linearGradient></defs></svg>