<!-- by TradingView --><svg width="18" height="18" viewBox="0 0 18 18" fill="none" xmlns="http://www.w3.org/2000/svg">
<rect width="18" height="18" fill="url(#paint0_linear_2357_47854)"/>
<path fill-rule="evenodd" clip-rule="evenodd" d="M11.7316 4.25156L13.821 7.31256C13.9181 7.45206 13.978 7.61432 13.995 7.78381C14.012 7.9533 13.9855 8.12434 13.9181 8.28057C13.8249 8.49964 13.6245 8.65618 13.396 8.71022C13.1533 8.76747 12.9432 8.68443 12.725 8.59818C12.6914 8.58492 12.6577 8.57157 12.6236 8.55865C12.6231 8.55837 12.6226 8.55825 12.6221 8.55832C12.6219 8.55835 12.6217 8.55841 12.6215 8.5585C12.6213 8.55862 12.6211 8.5588 12.6209 8.55902C12.6205 8.5594 12.6204 8.55989 12.6204 8.56039C12.6204 8.5609 12.6206 8.56138 12.6209 8.56176C12.8522 8.95588 13.0496 9.36924 13.2108 9.7973C13.2881 10.0021 13.1923 10.2408 12.9867 10.315C12.9012 10.3455 12.8078 10.3447 12.7229 10.3127C12.638 10.2807 12.5671 10.2195 12.5226 10.14C12.5226 10.14 11.7637 8.88457 11.152 8.29589C10.6082 7.77203 10.0164 7.31463 9.36321 6.9914C8.70999 6.66818 8.00845 6.48307 7.29128 6.4197C6.57411 6.35634 5.84482 6.41494 5.10997 6.53814C4.76434 6.59591 4.41665 6.39092 4.32721 6.04948C4.23057 5.6807 4.42549 5.36617 4.80731 5.22206H4.81122C8.25692 4.05479 11.1578 6.23355 11.3718 6.39426L11.3743 6.3961C11.3747 6.39629 11.3751 6.39635 11.3756 6.39627C11.376 6.39619 11.3764 6.39597 11.3767 6.39564C11.377 6.39532 11.3772 6.39491 11.3772 6.39447C11.3773 6.39403 11.3772 6.39358 11.377 6.3932C10.9051 5.70306 10.7079 5.14068 10.6857 4.60936C10.6614 4.02648 11.4035 3.7718 11.7316 4.25156ZM6.27926 13.7501L4.17814 10.6719C4.08141 10.5325 4.02177 10.3704 4.00493 10.2012C3.98808 10.0319 4.01459 9.86115 4.08191 9.70516C4.17423 9.48671 4.3749 9.32934 4.60334 9.27633C4.84544 9.21902 5.05643 9.30233 5.27513 9.38869C5.30847 9.40185 5.34198 9.41508 5.37581 9.4279C5.37625 9.42805 5.37672 9.42806 5.37716 9.42793C5.37761 9.4278 5.378 9.42754 5.37829 9.42718C5.37858 9.42682 5.37876 9.42638 5.37879 9.42591C5.37883 9.42545 5.37872 9.42499 5.37848 9.42459C5.14786 9.03168 4.95099 8.61965 4.79003 8.19298C4.71498 7.99338 4.79867 7.76043 4.99441 7.67761C5.08133 7.64126 5.17848 7.63829 5.26743 7.66929C5.35638 7.70028 5.43094 7.76306 5.47697 7.84574C5.47697 7.84574 6.23608 9.10116 6.84757 9.68983C7.3914 10.2135 7.98335 10.6713 8.63637 10.9943C9.28939 11.3173 9.99072 11.5025 10.7081 11.5658C11.4255 11.6292 12.1546 11.5718 12.8896 11.4476C13.235 11.3896 13.5827 11.5946 13.672 11.9358C13.7678 12.305 13.5739 12.6189 13.1921 12.7626H13.188C9.74677 13.9286 6.84715 11.755 6.62814 11.5909L6.6251 11.5886C6.62263 11.5871 6.62119 11.5898 6.62263 11.5919C7.09677 12.2856 7.29353 12.8502 7.31409 13.384C7.33651 13.9675 6.60824 14.2313 6.27926 13.7501Z" fill="white"/>
<defs>
<linearGradient id="paint0_linear_2357_47854" x1="15.2027" y1="2.45201" x2="3.1989" y2="15.9563" gradientUnits="userSpaceOnUse">
<stop stop-color="#E995A5"/>
<stop offset="1" stop-color="#BE42ED"/>
</linearGradient>
</defs>
</svg>
