<!-- by TradingView --><svg width="18" height="18" viewBox="0 0 18 18" xmlns="http://www.w3.org/2000/svg"><path fill="url(#agdtwyhib)" d="M0 0h18v18H0z"/><path d="M5 5.34c0-.19.18-.34.4-.34h2.2c.22 0 .4.15.4.34v2.82c0 .19-.18.34-.4.34H5.4c-.22 0-.4-.15-.4-.34V5.34Z" fill="#0C78F1"/><path d="M5 9.84c0-.19.18-.34.4-.34h2.2c.22 0 .4.15.4.34v2.82c0 .19-.18.34-.4.34H5.4c-.22 0-.4-.15-.4-.34V9.84Z" fill="#1152B8"/><path d="M9 5.34c0-.19.17-.34.38-.34H11c1.1 0 2 .78 2 1.75s-.9 1.75-2 1.75H9.38c-.2 0-.38-.15-.38-.34V5.34ZM9 9.84c0-.19.17-.34.38-.34H11c1.1 0 2 .78 2 1.75S12.1 13 11 13H9.38c-.2 0-.38-.15-.38-.34V9.84Z" fill="#0C78F1"/><defs><linearGradient id="agdtwyhib" x1="3.35" y1="3.12" x2="21.9" y2="24.43" gradientUnits="userSpaceOnUse"><stop stop-color="#1A1E21"/><stop offset="1" stop-color="#06060A"/></linearGradient></defs></svg>