<!-- by TradingView --><svg width="18" height="18" viewBox="0 0 18 18" xmlns="http://www.w3.org/2000/svg"><path fill="#F0F3FA" d="M0 0h18v18H0z"/><path d="M5.08 8.24c-.05 1.56.37 5.21 2.58 4.73.13-.03 2.63-.5 2.86-.42.34.12.49-.05.76-.21 1.17-.72.61-.95.92-1.17.1-.2.23-.48.37-.82.12-.28.13-.73.18-1.04-.1-3.52-.76-.46-.89-1.16-.09.13-.37.26-.56.33.06-1.17-1.2-1.31-1.23-1.13-.01.1-.2 1.02-.1 1.14-.1.1.12.67.16.77.18.44-.1.62.37.93.3.2 1 .74 1.16 1.08-.28.18-.45.47-.85.3-.35-.14-.29-.17-.3-.55-.45-1.98-3.79.67-3.37-.86.2-.26.51-.29.84-.41.55-1.4.1-.84-.13-1.52C7.72 5.4 6.37 9.5 6.08 7.22l-.23-.4-.3.35c-.08.4-.23.75-.47 1.07Z" fill="#02325C"/><path d="M9.49 8.84c0 .14-.06.08 0 .16l.09.02h.1c.2.04.15.44.13.64-.06.6-.73.5-1.02.5-.44-.02-.29-.09-.5-.18-.15-.03-.09.07-.15-.16L8.1 9.6c-.21-.04-.18-.08-.39-.07-.16.06-.47.26-.56.33-.36.45-.66.95-.98 1.43l.76.56.04.02.18.15.23.1c.12-.08.2-.23.28-.35.13-.2.17-.2.2-.49l-.26-.1-.02-.18c.18-.2.22-.32.48-.46.33-.17.38-.13.77-.13.57 0 1.19-.17 1.44.43.08.14.09.1.14.28-.12.1-.13.1-.28.16.02.36.35.78.46.83.32-.26.21-.06.45-.27l.38-.23c.06-.02.05-.08.2-.04.14.05.02.03.03.04.09-.07.12-.1.23-.16-.2-.44-.38-.67-.6-1.02l-.31-.4-.02-.02c-.12-.2-.04-.12-.22-.24-.47-.3-.42-.07-.6-.5-.04-.11-.13-.36-.05-.46 0 0 0-.03.05-.07.1-.1-.06.01.1-.07l.02-.05c-.15-.08-.3.08-.39.16-.3.3 0-.03-.37.06Z" fill="#2091ED"/><path d="m8.46 5.79-.03.03-.03.02-.03.03c-.34.26-.14.24-.3.41a1.39 1.39 0 0 1-.12-.27c-.1-.05-.03 0-.1-.1l-.09-.1-.2.04-.4.22c0 .12-.01.07.05.17.1.16.45.4.6.55l.29.31c.13.14.17.14.15.42-.05.39-.08.96.41 1.01.18.02.76.04.88-.07.07-.05.06-.07.1-.15.33-.6-.02-.86.1-1.08.08-.16.99-.9 1.03-1V6l-.49-.25-.12-.04c-.2.44-.1.7-.72.77-.44.05-.9.02-1.3-.1l.04-.2c.14-.25.02-.34.81-.33.5 0 .69.01.79.35l-.02-.1c-.04-.07-.06-.07-.08-.1l-.08-.1c-.5-.19-.68-.04-1.14-.1Z" fill="#02325C"/><path d="M12.33 5.62c.04.1-.01 0 .06.09.23.23.15.08.48.57l.48.74c.11.15.34.84.39 1.04.16.51.09 1.3.01 1.86-.06.28-.1.7-.28.88-.01.23-.21.55-.32.72-.37.63-.48.6-.68.82-.14.15-.04.12-.23.26-.13.1-.15.14-.28.22l-.3.22c-.07.13-.63.39-.78.45-.52.22-1.66.46-2.21.36-.3-.06-.8-.1-1.03-.24-.35-.03-.54-.36-.8-.52-.71-.43-1.32-.77-1.82-1.4l-.3-.47c-.13-.33-.3-.6-.38-1.02l-.07-.63c-.03-.4-.18-1.19.07-1.49 0-.61.43-1.13.61-1.59-.02-.03 0-.02.05-.11.08-.16.01.04.1-.2-.3.12-.62.83-.75 1.1-.18.4-.34.79-.35 1.35v.15c.02 2.07.72 3.54 2.6 4.63.72.42 1.89.68 3 .56A4.95 4.95 0 0 0 14 9.5v-.87c-.1-.98-.5-1.9-1.21-2.7-.26-.28-.24-.4-.54-.46.05.1 0 .04.08.15Z" fill="#3D240B"/><path d="M4.46 7.6c.14.06.16.1.33.11.05.1.01.06.04.1l.09.14c.06-.4.84-1.59 1.02-1.7.1-.07 0-.04.15-.06l.33-.27.36-.23c.26-.15.5-.26.81-.36v-.11c-.04-.33-.08-.22-.09-.28l-.02-.04v.16c-.18-.1-.77.23-.98.34-1.01.58-.95.73-1.19.91-.5.4-.55.77-.85 1.3Z" fill="#DCE0D7"/><path d="m10.26 5.79.49.24c.37.14.37-.03.7.23.48.38.2.19.45.44.27.27.36.28.46.45.1.18.06.5.12.75h.05c.25.02.43.2.62.29l-.07-.22a3.97 3.97 0 0 0-.68-1.28c-.12-.15-.15-.23-.29-.36-.3-.3-1.19-.92-1.67-1-.1.14-.13.29-.18.46Z" fill="#9E754D"/><path d="M5.1 6.15c-.09.25-.02.06-.1.2-.05.1-.07.1-.05.12.87-.74 2.54-2.65 2.81-.66.07.07.05.07.08.1.08.1 0 .06.1.1l-.16-.51-.14-.64c-.07-.66.78-.71 1.4-.7.26 0 .74 0 .94.11.23.12.42.3.38.59l-.1.45-.12.44.12.04c.05-.17.1-.32.2-.46l-.07-.14.02-.03.07-.43a5.02 5.02 0 0 1 1.85.9c-.08-.13-.03-.07-.08-.18 0-.1.19.02-.32-.28-.46-.26-1.34-.58-1.42-.63-.37-.28-.19-.43-.83-.52a1.79 1.79 0 0 0-.2-.02H8.5l-.13.01c-.93.11-.2.29-1.3.7a4 4 0 0 0-.5.2c-.42.22-.92.46-1.22.83-.14.18-.25.26-.24.41Z" fill="#010101"/><path d="M4.3 10.19c.08.41.26.74.4 1.07.46.27.56.8.95.9.01-.64-.43-.8-.33-1-.11-.08-.11-.14-.16-.27s-.08-.17-.15-.3c-.1-.22-.17-.47-.23-.7l-.06-.14c-.03-.07-.01-.03-.02-.1l-.05.21c-.22 0-.29.06-.3-.1.01.04.07.34-.05.43Z" fill="#AD977E"/><path d="M13.15 9.82c-.01.4-.19.73-.35 1.05v.04a2 2 0 0 1-.37.6l-.06.07c-.22.3-.24.32-.35.39a2.7 2.7 0 0 0-.26.2l-.23.16c-.9.61-1.59.73-2.68.76a.33.33 0 0 1-.05.03c-.2-.02-.43-.07-.51-.17l-.26-.06c-1.17-.31-1.26-.34-2.17-1.1l-.4-.45-.01-.02-.01-.01-.11-.15a.72.72 0 0 0-.1.46c-.11-.1-.3-.22-.55-.36l.2.3.1.14c.5.62.96 1.13 1.67 1.54.24.14.55.3.87.35.26.13.85.28 1.14.32.55.1 1.75-.12 2.27-.34.15-.06.65-.41.72-.54l.02-.03v-.01l.19-.22c.04-.04.08-.06.12-.08a.9.9 0 0 0 .15-.1l.77-.93.08-.1c.1-.12.15-.2.22-.33l.02.01.27-.37-.02-.02c.15-.15.2-.44.26-.7l.05-.25c-.07-.1-.06-.27-.05-.47v-.25c-.1.08-.31.1-.4.1l-.03.01-.02.14c-.02.15-.03.29-.13.39Zm-7.91 1.8c.03.17.14.26.2.26.04 0 .02-.08-.2-.26Z" fill="#9E754D"/><path d="M4.95 6.47c-.19.46-.68.97-.69 1.6l.01.12.19-.59c.3-.52.35-.9.85-1.29.23-.19.17-.34 1.19-.9.2-.12.8-.46.98-.35V4.9c.06-.27.01-.1-.04-.15-2.16.71-2 1.3-2.49 1.72Z" fill="#FAFBFA"/><path d="M4.27 8.06c-.25.3-.11 1.1-.09 1.5.12-.19.07-.44.1-.71h.32c.06.09.05.02.06.19l.09-.26c.01-.16 0-.2.07-.3 0-.24.05-.3.1-.53l-.09-.14-.04-.1c-.17-.02-.19-.06-.33-.1l-.19.58v-.13Z" fill="#CBC4B5"/><path d="M12.53 7.84c.16.56.17 1 .15 1.6h.02v.03c-.02 0-.02 0-.01.02-.04.2-.12.46-.26.8-.08.2-.18.35-.26.49-.25.4-.28.2-.23.48.03.17.07.41-.7.89a7.6 7.6 0 0 0-.07.05c-.22.13-.28.17-.58.07-.2-.07-.29-.02-.41.04-.07.04-.15.09-.27.12-.94.26-1.66.04-2.07-.1-.17-.05-.29-.09-.36-.07-.26.05-.3.07-.35.06-.05 0-.09-.04-.31-.09-.23.3.5.47 1 .58.28.07.5.11.46.16.1.1.34.12.57.13a4.48 4.48 0 0 0 2.69-.75l.23-.17c.13-.12.2-.17.26-.2a3.11 3.11 0 0 0 .85-1.21c.51-1.02.12-.99.84-1.51v.22c-.02.19-.03.34.04.44.08-.56.16-1.35-.01-1.86l-.11.15c-.06-.29-.15-.37-.24-.45-.1-.1-.2-.18-.22-.54-.08.1-.15.23-.12.35.2.72.03.31-.53.27Z" fill="#DCDED6"/><path d="M8.78 9.1c-.23 0-.1.02-.3.12l-.19-.15c-.07.1-.04.06-.04.23v.37c.01.2.14.3.27.37.01-.01.98-.04 1-.34.1.01.14.02.22.07.04-.2.04-.6-.03-.75h-.1c-.17-.02-.13-.04-.23.07h-.6Z" fill="#22B8F8"/><path d="M8.13 6.24c.45.16 1.45.24 1.83-.08l-.28-.19c.02.09.05-.15-.69-.15-.79 0-.71.08-.86.42Z" fill="#927456"/><path d="m7.58 11 .18.03.19-.28c.17-.2.5-.12 1-.13.86 0 1.04-.07 1.23.4.1-.1.09.13.1-.18-.25-.6-.87-.48-1.43-.48-.4 0-.47-.03-.8.14-.2.1-.17.07-.29.23l-.1.15c-.06.1 0 .04-.08.12Z" fill="#073999"/><path d="m4.28 10.19-.1-.63c.08-.13.09-.29.09-.47v-.24c.37 0 .45-.32.47-.32l.01.5.57-.26.04.88.33.95c.3.25.35.6.38.8l.02.15c.09.22.26.32.41.4.13.08.25.15.32.28a.37.37 0 0 1-.03.04h-.03c0 .02 0 .02.03 0l.03.04c.05.1.1.1.2.1.11 0 .28 0 .53.17.14.09.3.12.42.14.11.02.2.04.26.09l.03.02.02.06v.07l-.23-.06c-1.2-.31-1.28-.33-2.2-1.1-.18-.21-.36-.41-.53-.63-.09-.07-.1-.12-.14-.2-.13-.37-.48-1.05-.71-.93l-.19.15Z" fill="#C9C2B1"/><path d="m6 6.19.1-.01c.1-.03.24-.12.4-.23.36-.23.8-.51 1.02-.27.06.07.1.07.1.08v.11l-.45.18c-.22 0-.3 0-.35.04-.08.04-.12.13-.44.36-.11.08-.17.16-.23.25a.64.64 0 0 1-.32.28l-.04.1-.18.11-.04.31c-.03.29-.06.56-.24.8l-.01.47-.57.26v-.09c-.87.66.72-2.4 1.2-2.7L6 6.18Z" fill="#AB9175"/><path d="m7.96 8.93-.24.6c.2-.01.17.04.38.08v.2c.06.24.05.14.2.17-.15-.26-.14-.09-.13-.48 0-.22-.06-.43.14-.48l.13-.07c.14-.12 0 .1.06-.11-.32 0-.08.03-.29.06-.12.02-.13 0-.25.03Z" fill="#1578CD"/><path d="M8.28 9.98c.21.1.05.16.5.18.3 0 .97.1 1.04-.5.02-.2.06-.6-.13-.65.06.15.06.55.02.74-.11.2-.17.25-.48.28-.23.01-.54.05-.72 0-.12-.08-.25-.17-.26-.37V9.3c0-.17-.02-.13.04-.24v-.05c-.2.06-.13.27-.13.5-.02.39-.02.21.12.47Z" fill="#010205"/><path d="M13.24 11.16c-.11.22-.17.29-.34.5l-.77.92c-.1.1-.17.11-.27.19l-.19.22-.02.04.3-.22c.13-.08.16-.12.28-.22.2-.13.1-.1.24-.26.2-.22.3-.18.68-.82.1-.17.3-.5.31-.72l.02.02-.24.35Z" fill="#EAE4D7"/><path d="M12.12 6.33c-.3-.3-1.2-.91-1.67-1l-.06-.14c.03-.07.05-.23.07-.35l.02-.12a4.84 4.84 0 0 1 1.85.9l.02.05.04.03.14.14c.08.07.11.1.34.43l.48.75c.12.15.36.86.4 1.07l-.1.15c-.06-.3-.16-.38-.25-.46-.07-.06-.14-.12-.18-.25l-.07.66a4.6 4.6 0 0 0-1.03-1.86Z" fill="#DCDED6"/><path d="M6.09 6.2c.3-.1 1.1-.85 1.42-.5.11.13.06-.01.05.15l.2-.04c-.03-.22-.03-.46-.18-.6l.01.12a4.42 4.42 0 0 0-1.17.6l-.33.26Z" fill="#664525"/><path fill-rule="evenodd" d="m7.63 4.86.15.64a.1.1 0 0 1 .04-.03.12.12 0 0 0-.04.03l.16.51c.03.08.08.16.12.22l.03.05a.83.83 0 0 0 .09-.1l-.04.19c.4.12.86.15 1.3.1.47-.06.5-.19.59-.43.02-.08.05-.18.1-.29l.13-.44-.02-.01h.02l.09-.45-.02-.02-.1-.11c-.43.1-2.1.14-2.49.01l-.1.13Zm.55 1.3c.45.16 1.37.3 1.74-.01l-.16-.07L9.7 6l-.02-.02-.08-.1c-.31-.1-.5-.1-.7-.08-.13 0-.27.01-.45-.01v.01l-.03.02c-.07.08-.12.16-.17.24l-.07.1Zm-.3-.84a6.59 6.59 0 0 0 0 .18" fill="#C2B4A3"/><path d="m7.15 12.02-.18-.15-.03-.02-.76-.56-.11.2c.33.03.15.11.57.41l.03.02.34.21c.16.09.14.1.3.02-.27-.09-.1-.03-.16-.13Z" fill="#0A4BB7"/><path d="m10.77 6.22.36-.1c.1.15.45.38.6.5.22.16.41.34.51.61.23.23-.02.74-.17.99-.11.17 0 .03-.12.12-.01.1.06.06-.08.11.41-.38.2-.4.48-.7l.08.08.05.07c-.06-.24-.03-.57-.12-.75-.1-.17-.2-.18-.46-.45-.24-.25.03-.06-.46-.44-.32-.26-.32-.1-.7-.23.02.01.03.02.03.04v.15Z" fill="#0C1313"/><path d="M9.32 9.82c-.06.1-.2.05-.34.05-.27 0-.33 0-.52.15.2.06.54.06.8.04.34-.02.38-.12.5-.35a.6.6 0 0 0-.23-.07c-.1.15-.03.08-.2.18Z" fill="#177AD3"/><path d="M5.75 7.14c.04-.03 0 .03.07-.06l.17-.23c.1-.07.03-.03.13-.05.14-.26.55-.42.75-.65l.33.09c-.06-.1-.04-.05-.04-.17-.52.02-.25-.05-.8.34-.26.18-.32.45-.62.57l.01.16Z" fill="#070406"/><path d="M10.36 6.63c-.27.24-.57.5-.62.6-.47.27-.92-.13-1.39-.54-.67-.6-1.38-1.22-2.22.1-.31.07-.35.35-.38.6a8.38 8.38 0 0 1-.01.12c0 .1.02.21.06.3.04.1.27.49.3.52l.06-.02.07-.05.51.22.56-.43c-.03-.2-.07-.21-.1-.23-.03-.02-.06-.03-.1-.12.09-.12.15-.14.3-.18.28.4.26.42.2.5-.03.05-.08.13-.07.38.8 1.68 2.69.56 2.8.39.27-.19.2-.33.13-.5-.07-.18-.16-.37.04-.66l.16-.1.05.04.04.03.08.03.04.01-.02.1-.14.31.6.42c.19-.06.45-.18.55-.3l.02.08v.02l.07.07c.06-.05.06-.03.06-.03l.06-.09c.15-.25.39-.73.19-.97v-.02c-.1-.26-.29-.44-.5-.61a2.77 2.77 0 0 1-.61-.49l-.36.1c-.02.04-.22.2-.43.4Z" fill="#2091ED"/><path d="m8.5 8.84.04.02.95-.02c-.05-.1.1 0-.06-.06L9 8.75h-.3c-.35.04-.16.03-.2.09Z" fill="#021528"/></svg>