<!-- by TradingView --><svg width="18" height="18" viewBox="0 0 18 18" xmlns="http://www.w3.org/2000/svg"><path fill="url(#a)" d="M0 0h18v18H0z"/><path d="M9.73 5.06 3.8 7.28a.09.09 0 0 0 0 .17l4.5 1.98c.22.1.47.1.7.02l5.94-2.24a.09.09 0 0 0 0-.17l-4.52-1.96a.93.93 0 0 0-.7-.02Z" fill="#3D2F6A"/><path d="M5.03 8.43a.2.2 0 0 1 .15 0L8.35 9.8c.2.08.42.09.61.01l4.19-1.56a.2.2 0 0 1 .15 0l1.26.55c.07.03.07.13 0 .16L8.6 11.2a.93.93 0 0 1-.7-.02L3.41 9.2a.09.09 0 0 1 0-.17l1.62-.6Z" fill="#A79DFE"/><path d="M4.68 10.17a.2.2 0 0 1 .15 0L8 11.54c.2.08.42.08.61.01l4.19-1.57a.2.2 0 0 1 .15 0l1.26.55c.07.04.07.14 0 .17l-5.95 2.24a.93.93 0 0 1-.7-.02l-4.5-1.98a.09.09 0 0 1 0-.17l1.62-.6Z" fill="#A79DFE"/><defs><linearGradient id="a" x1="3.35" y1="3.12" x2="21.9" y2="24.43" gradientUnits="userSpaceOnUse"><stop stop-color="#1A1E21"/><stop offset="1" stop-color="#06060A"/></linearGradient></defs></svg>