<!-- by TradingView --><svg width="18" height="18" viewBox="0 0 18 18" xmlns="http://www.w3.org/2000/svg"><path fill="#E2222F" d="M0 0h18v18H0z"/><path fill-rule="evenodd" d="M12.25 6.18 11.5 6l-.01-.01a.02.02 0 0 1 0-.03c.14-.13.25-.25.33-.38.06-.09.04-.13-.07-.13-.23.02-.47 0-.68-.12l-.3-.18a1.08 1.08 0 0 0-.74-.13c-.1.01-.21.06-.35.14a3.9 3.9 0 0 1-.1.06c-.17.09-.4.2-.52.38l-.02.01a.03.03 0 0 1-.02 0 3.5 3.5 0 0 0-.56-.4c-.3-.16-.55-.25-.85-.2-.18.05-.33.13-.47.21l-.19.11c-.24.12-.47.16-.7.13H6.2l-.02.02a.06.06 0 0 0-.02.06c.05.18.23.32.36.4a.03.03 0 0 1 0 .03.03.03 0 0 1 0 .03h-.02l-.75.17c-.16.04-.37.11-.63.22-.4.16-.72.39-.97.67-.22.25-.34.63-.12.9.01.03.03.04.06.04.02 0 .05 0 .06-.02.36-.3.73-.56 1.1-.76a5.2 5.2 0 0 1 2.51-.73c.25 0 .42-.02.5-.05.32-.08.55-.3.7-.64L9 5.78h.03l.02.02c.19.38.5.67.93.68l.65.03c.38.02.78.12 1.1.24a7.07 7.07 0 0 1 2.13 1.22.08.08 0 0 0 .06.02l.04-.02.02-.02c.23-.39-.02-.84-.33-1.1a3.29 3.29 0 0 0-1.39-.67Zm-2.39-.34.93.05c.08 0 .09-.01.01-.06a5.25 5.25 0 0 0-.37-.2c-.2-.1-.42 0-.59.12-.09.05-.08.08.02.09Zm-2.65.06c0-.06.04-.12.13-.17a.9.9 0 0 1 .35-.1h.02a.9.9 0 0 1 .35.04c.1.04.16.09.16.15l-1 .08Zm6.89 4.98h-.02c-.25.04-.52 0-.8-.08-.03 0-.06-.02-.1-.04-.07-.03-.15-.07-.21-.07-.02 0-.03 0-.04.02-.04.06-.03.15.03.25.2.38.41.67.62.87.07.06.14.07.2.02.08-.06.2-.2.37-.41.08-.1.26-.4.54-.89a3 3 0 0 0 .3-1.02c.04-.27-.08-.58-.18-.82a1.27 1.27 0 0 0-.41-.5c-.13-.1-.35.05-.45.14l-.35.31a.28.28 0 0 0-.08.2c0 .23.01.44.03.62 0 .06.03.09.07.08.02 0 .03 0 .04-.02l.5-.52c.05-.04.11-.07.2-.08.02 0 .03 0 .04.02a.6.6 0 0 1 .06.23c.02.28.02.5 0 .64a1.66 1.66 0 0 1-.15.45h-.02l-.02-.04a9.16 9.16 0 0 0-.19-.66h-.02a.05.05 0 0 0-.05 0 .72.72 0 0 0-.22.67c.04.18.16.37.27.53l.04.06a.03.03 0 0 1 0 .04Zm-10.42-.63h.03l.01-.02.01-.02.1-.58c.02-.05.04-.07.1-.06.22.05.33.4.3.62-.02.16-.11.32-.22.51l-.09.15a.03.03 0 0 0 0 .02.03.03 0 0 0 .02.02c.38.03.72-.04 1.02-.2a.1.1 0 0 1 .1.01.1.1 0 0 1 .04.05v.06a.63.63 0 0 1-.1.24c-.12.2-.27.42-.46.65-.05.07-.14.18-.23.18a.15.15 0 0 1-.1-.04c-.19-.2-.38-.43-.58-.71A3.1 3.1 0 0 1 3 9.37c0-.1 0-.2.05-.3.13-.35.26-.69.58-.86.11-.06.2-.01.3.06l.43.34c.1.08.14.17.14.28a4.8 4.8 0 0 1-.08.69.03.03 0 0 1-.03 0c-.1-.08-.17-.14-.21-.2l-.04-.03c-.15-.2-.28-.35-.46-.4a.07.07 0 0 0-.06 0l-.02.03-.02.03a2.5 2.5 0 0 0 .06 1.18l.04.06Zm6.27 1.89c.03.01.06.04.09.07v.03h-.01l-.4.07-.02.01a.03.03 0 0 0 .01.03h.01c.3.26.56.48.89.63a.1.1 0 0 0 .1-.02c.28-.27.5-.58.67-.92.05-.1.07-.19.06-.24a11.4 11.4 0 0 0-.54-2 .03.03 0 0 1 .03 0c.08 0 .14.03.2.07.25.14.46.34.68.55l.14.13c.06.06.08.04.06-.04a2.34 2.34 0 0 0-.15-.42v-.02h.03l.02-.01.38.07c.2.02.26-.2.3-.37l.02-.05c.11-.4.15-.8.1-1.21a1.7 1.7 0 0 0-.14-.47l-.31-.68a.61.61 0 0 0-.3-.3l-.04-.02-.04-.02c-.24-.11-.5-.24-.74-.16a48.63 48.63 0 0 0-.8.25.04.04 0 0 1 0-.03l.03-.19c0-.02 0-.03-.02-.02a1.1 1.1 0 0 0-.3.12 325.67 325.67 0 0 1-.96.53 12.03 12.03 0 0 0-1.24-.65c-.02 0-.03 0-.02.03l.02.18v.02l-.02.01a.04.04 0 0 1-.03.01 8.5 8.5 0 0 0-.64-.22 1.08 1.08 0 0 0-.54-.01c-.04 0-.16.06-.38.17-.09.04-.15.1-.2.15-.13.2-.23.4-.34.63l-.02.04a2.2 2.2 0 0 0-.16.48c-.12.56-.12 1.12.15 1.62.06.12.14.19.27.16a3.23 3.23 0 0 1 .34-.07l.02.02a.05.05 0 0 1 0 .05c-.06.15-.12.3-.15.44-.02.09 0 .1.06.03.12-.13.26-.27.43-.42a2.4 2.4 0 0 1 .6-.4l.03.02v.04l-.36 1.18c-.09.28-.14.54-.16.78 0 .06.01.14.05.23.15.36.38.68.68.95a.1.1 0 0 0 .1.01 7 7 0 0 0 .92-.65.01.01 0 0 0 0-.02l-.4-.08c-.08-.01-.08-.04-.01-.07.63-.3 1.28-.3 1.95-.03ZM8.58 8.4c.17-.13.33-.18.49-.16.14.02.27.08.39.17l.9.69c.15.12.27.2.34.21.53.17 1.03-.18 1.38-.58.07-.08.07-.16 0-.24-.1-.13-.24-.28-.4-.44a.52.52 0 0 0-.32-.16 34.97 34.97 0 0 0-4.5-.03c-.14 0-.37.05-.47.12-.2.16-.38.35-.53.6a.05.05 0 0 0 0 .06c.35.45 1.08.98 1.64.58l1.08-.82Zm.03 1.35a27.79 27.79 0 0 0-.44-.4v-.02l.02-.01c.2-.07.34-.01.44.2l.15.3c.04.08.02.1-.05.04a1.72 1.72 0 0 1-.12-.1Zm.67.11.12-.1a35.18 35.18 0 0 1 .45-.41l-.01-.02-.02-.01c-.2-.07-.34-.01-.44.2l-.15.3c-.04.08-.02.1.05.04Zm-.27.34c.02 0 .03.02.04.04l.04.13c.03.1.06.2.12.27a10.43 10.43 0 0 1 1.42 1.07v.02c-.02.02-.03.02-.05.01l-.42-.24a3.1 3.1 0 0 0-1.15-.35l-.23.03c-.36.07-.67.18-.93.32l-.42.24c-.01 0-.03 0-.04-.02v-.03a10.39 10.39 0 0 1 1.42-1.05.79.79 0 0 0 .1-.27l.05-.13c.01-.03.03-.04.05-.04ZM7.3 8.81c.28-.02.5-.21.47-.42-.02-.2-.26-.35-.54-.32-.28.02-.5.21-.47.42.02.21.26.36.54.33Zm3.95-.32c-.01.2-.26.35-.53.32-.28-.02-.5-.21-.48-.42.02-.2.26-.35.54-.32.28.02.5.21.47.42Z" fill="#fff"/></svg>