<!-- by TradingView --><svg width="18" height="18" viewBox="0 0 18 18" xmlns="http://www.w3.org/2000/svg"><path fill="#F0F3FA" d="M0 0h18v18H0z"/><path d="M11.02 4.31 14 13c-3.32 0-5-2.52-5.42-3.78L7.02 4.64A.49.49 0 0 1 7.5 4h3.1c.2 0 .37.12.43.31Z" fill="url(#a)"/><path d="M7 4.31 4 13a5.8 5.8 0 0 0 5.45-3.78l1.58-4.58a.49.49 0 0 0-.47-.64H7.44c-.2 0-.38.12-.44.31Z" fill="url(#b)"/><defs><linearGradient id="a" x1="10.5" y1="4" x2="10.5" y2="13" gradientUnits="userSpaceOnUse"><stop stop-color="#2C34EA"/><stop offset=".44" stop-color="#3A5EFA"/><stop offset=".9" stop-color="#6ACFFF"/><stop offset="1" stop-color="#26D3FF"/></linearGradient><linearGradient id="b" x1="7.53" y1="4" x2="7.53" y2="13" gradientUnits="userSpaceOnUse"><stop offset=".1" stop-color="#1BD4FF"/><stop offset=".26" stop-color="#65CFFF"/><stop offset=".45" stop-color="#5399FF"/><stop offset="1" stop-color="#2A2EE7"/></linearGradient></defs></svg>