<!-- by TradingView --><svg width="18" height="18" viewBox="0 0 18 18" xmlns="http://www.w3.org/2000/svg"><path fill="#F0F3FA" d="M0 0h18v18H0z"/><path d="M9.4 4.05c.18.4.36.73.53 1 .1.17.25.28.44.36v.09c-.31-.12-.5-.27-.6-.45a35.52 35.52 0 0 1-.43-.8.1.1 0 0 0-.05-.02l-.54-.06c-.03 0-.05.01-.06.04-.14.47-.23.78-.29.93-.13.38 0 .61.4.7.82.17 1.7.24 2.64.22.03 0 .06 0 .09.03l.52.4c-.42-.11-.8-.18-1.15-.2-1.38-.05-2.18-.1-2.42-.13a1.05 1.05 0 0 0-.47.04l-.46.1c-.58.13-1 .36-1.47.64-.16.09-.34.14-.52.17l.02-.03.72-.37c.16-.05.26-.13.3-.25l.75-.25c.38-.13.44-.36.54-.65.18-.5.67-1 .1-1.44.52-.13 1-.16 1.4-.07Z" fill="#405A73"/><path d="M9.4 4.05c.48.06.88.22 1.19.48l-.58-.25a.04.04 0 0 0-.04 0l-.01.02v.02c.06.39.2.74.42 1.07v.02a.85.85 0 0 1-.45-.35c-.17-.28-.35-.62-.53-1Z" fill="#34495B"/><path d="M7.98 4.12c.58.45.09.93-.09 1.44-.1.29-.16.52-.54.65l-.2-.19a.1.1 0 0 1-.04-.08v-.06c.15-.33.1-.6-.17-.81a.19.19 0 0 1-.03-.28c.3-.33.66-.55 1.07-.67Z" fill="#243548"/><path d="M10.36 5.5c.2.1.45.18.76.24l.57.23c.05.23.2.4.43.53.19.12.42.18.71.2-.29.02-.55-.05-.78-.2l-.52-.41a.13.13 0 0 0-.09-.03c-.93.02-1.82-.05-2.64-.22-.4-.09-.53-.32-.4-.7.06-.15.15-.46.29-.93 0-.03.03-.04.06-.04l.54.06a.1.1 0 0 1 .05.02l.02.03.4.77c.1.18.3.33.6.45Z" fill="#52748F"/><path d="M10.59 4.53c.18.12.2.29.06.49l-.27.37a2.55 2.55 0 0 1-.42-1.09l.01-.01a.04.04 0 0 1 .04 0l.58.24Z" fill="#243548"/><path d="M13.07 5.03v.24c0 .03-.02.04-.04.02l-.2-.18a.14.14 0 0 0-.17-.02c-.39.23-.71.53-.97.88l-.57-.23c.34-.18.67-.4.99-.65.24-.19.44-.3.61-.36.2-.05.32.04.35.3Z" fill="#A0612F"/><path d="m13.01 5.86-.13-.59c-.02-.06-.05-.08-.11-.04a2.92 2.92 0 0 0-.96.91l.02.04.3.32a.78.78 0 0 1-.44-.53c.26-.35.58-.65.98-.88a.14.14 0 0 1 .17.02l.19.18c.02.02.04.01.04-.02v-.24c.05.27.03.54-.06.83Z" fill="#BB7566"/><path d="M5.24 5.12c.51.31 1 .65 1.46 1 .09.07.2.11.31.16.07.04.12.03.16-.02v-.08a.36.36 0 0 1-.08-.25.14.14 0 0 0 .02-.05v.06c0 .03.01.06.04.08l.2.19-.76.25-.63-.6a1.92 1.92 0 0 0-1.04-.46H4.9l-.01.02v.02c0 .54.13 1.07.35 1.6.02.03 0 .05-.03.04-.03 0-.07-.03-.1-.08-.18-.36-.31-.74-.4-1.13a1.88 1.88 0 0 1-.02-.61.2.2 0 0 1 .06-.12.23.23 0 0 1 .13-.06c.11-.02.23 0 .36.04Z" fill="#A0612F"/><path d="M5.24 5.12c.4.14.77.33 1.1.58.17.13.36.22.58.28.08.02.14 0 .17-.05 0 .09.02.17.08.25v.08c-.04.05-.09.06-.16.02-.1-.05-.22-.09-.31-.16a16.9 16.9 0 0 0-1.46-1Z" fill="#D08D4B"/><path d="m13.01 5.86-.18.78c0 .02 0 .05.04.08-.05-.02-.07-.03-.04-.03a1.44 1.44 0 0 1-.7-.2l-.3-.31a.06.06 0 0 1-.02-.04l.01-.03c.26-.38.58-.67.95-.88.06-.04.1-.02.1.04l.14.59Z" fill="#D7928B"/><path d="M6.6 6.46c-.04.12-.14.2-.3.25-.1-.58-.52-.96-1.26-1.16-.03-.01-.04 0-.05.03-.02.57.18 1.07.6 1.5a.06.06 0 0 0-.03.03.47.47 0 0 1-.3.1l-.12.08-.03.01h-.65l.6-.02a.1.1 0 0 0 .05 0 .1.1 0 0 0 .03-.03l.02-.04v-.04L5.1 7c.04.05.08.07.1.08.05 0 .06 0 .04-.04A4.33 4.33 0 0 1 4.9 5.4a.05.05 0 0 1 .04-.01c.4.05.73.21 1.02.46l.63.6Z" fill="#BB7566"/><path d="m6.3 6.7-.72.38A1.99 1.99 0 0 1 5 5.58c0-.03.02-.04.05-.03.74.2 1.16.58 1.26 1.16Z" fill="#D7928B"/><path d="M12.05 6.5c.23.15.5.22.78.2-.03 0-.01 0 .04.02.13 0 .32-.02.58-.08.11-.02.21.02.3.13.18.25.27.53.25.84-.04.62-.3 1.17-.77 1.63.2-.27.35-.53.47-.77a.34.34 0 0 0 .01-.24c-.01-.05-.06-.1-.16-.15a1.9 1.9 0 0 1-.66-.64c-.2-.26-.33-.42-.4-.48a1.7 1.7 0 0 0-.85-.4c-.81-.12-1.64-.17-2.48-.14a5.7 5.7 0 0 0-3.43.99c-.38.27-.65.67-.81 1.17-.1.34 0 .6.34.8l.09.16c-.45-.2-.83-.55-1.14-1.03-.22-.34-.26-.67-.15-.99a.28.28 0 0 1 .15-.17.57.57 0 0 1 .25-.04h.65l.03-.02.11-.07h.02c.1 0 .2-.04.3-.1.17-.04.35-.1.5-.18a4.8 4.8 0 0 1 1.94-.74c.16-.05.31-.06.47-.04.24.03 1.04.08 2.42.14.34.01.73.08 1.15.2Z" fill="#2E4158"/><path d="m13.23 9.24-.13.15c-.16-.8-.3-1.34-.38-1.61-.18-.56-.59-.9-1.23-1.04a7.7 7.7 0 0 0-1.84-.2c-.57.01-1.36.05-1.89.2-.78.2-1.52.52-2 1.13a2.3 2.3 0 0 0-.5 1.52c-.33-.2-.45-.47-.34-.8.16-.51.43-.9.81-1.19a5.7 5.7 0 0 1 3.43-.98c.84-.03 1.67.02 2.48.15.32.05.6.18.85.4.07.05.2.21.4.47.18.26.38.5.66.64.1.05.15.1.16.15.03.09.02.17-.01.24-.12.24-.27.5-.47.77Z" fill="#243548"/><path d="m13.1 9.39-.6.4h-.12c.05-.43.06-.86.02-1.28a1.95 1.95 0 0 0-.37-1.1c-.42-.5-1.18-.74-1.86-.77a7.04 7.04 0 0 0-3.08.47c-.83.38-1.38 1.14-1.26 2.03.02.12.08.33.18.62a.4.4 0 0 1-.14 0l-.52-.22-.1-.15a2.3 2.3 0 0 1 .51-1.52 3.65 3.65 0 0 1 2-1.14 9.55 9.55 0 0 1 1.9-.2 7.7 7.7 0 0 1 1.83.2c.64.14 1.05.49 1.23 1.05.09.27.22.8.38 1.6Z" fill="#1D2A38"/><path d="M12.38 9.78a10 10 0 0 1-.02-.68c0-.33-.01-.56-.04-.68-.11-.58-.43-1.01-.95-1.3a3.28 3.28 0 0 0-1.17-.3c-.41-.04-.82-.06-1.23-.06-1.21.17-2.66.53-2.92 1.83a3.4 3.4 0 0 0-.02 1.15l-.02.02a3.5 3.5 0 0 1-.18-.62c-.12-.89.43-1.65 1.26-2.03.87-.4 2.03-.51 3.08-.47.68.03 1.44.26 1.86.78.2.26.33.62.37 1.09.04.42.03.85-.02 1.27Z" fill="#302321"/><path d="M8.97 6.76c-.25.1-.53.24-.78.3-.83.18-1.69.5-1.97 1.34-.04.11-.06.3-.07.56-.01.26-.05.52-.12.78-.05-.4-.05-.79.02-1.15.26-1.3 1.7-1.66 2.92-1.83Z" fill="#522A17"/><path d="M12.38 9.78h.12l-.1.08a.15.15 0 0 0-.07.07c-.13.3-.33.57-.57.79-.24.2-.5.54-.5.84l-.03.62c-1.44-1.62-1.4-.32-2.48-.32l-1.52-.52a.95.95 0 0 1-.33-.22l-.51-.56c-.69-.9-.28-.64-.24-1.6 0-.26.03-.45.07-.56.28-.83 1.14-1.16 1.97-1.35.25-.05.53-.19.78-.3.41.01.82.03 1.23.08.5.05.9.15 1.17.3.52.28.84.7.95 1.29.03.12.04.35.04.68 0 .23 0 .46.02.68Z" fill="#743A1D"/><path d="m9.4 6.85.08.13a1.2 1.2 0 0 0-.83.2l-.23.16a.12.12 0 0 1-.08.02.72.72 0 0 1-.12-.02c-.27-.08-.34-.02-.2.18h-.26a1.06 1.06 0 0 0-.63.28c-.14.16-.15.26-.05.3a.45.45 0 0 0-.03.24l.11.2c.02.03 0 .04-.02.05a.51.51 0 0 0-.22.15v.06h.03l.74.15h.01l.01.02V9l-.01.02-.82.53a.15.15 0 0 0-.06.08.14.14 0 0 0 0 .1c.15.33.4.59.76.8.18.14.39.25.6.33-.47.03-.86-.12-1.17-.45-.24-.24-.43-.46-.58-.63a.09.09 0 0 1 .01-.13c.27-.23.6-.42.99-.57.01 0 .02-.01.02-.03v-.02c0-.03-.02-.04-.05-.04h-.71l-.01-.02a.04.04 0 0 1-.01-.04l.2-.5c.08-.2.03-.24-.16-.14l-.16.1c-.14.1-.16.08-.08-.06.32-.51.8-.87 1.47-1.05.02-.06.05-.1.09-.12.03-.01.07 0 .12.03a9.6 9.6 0 0 1 .16.1l.06-.01c.02 0 .04-.02.06-.04a.12.12 0 0 0 .03-.05c.04-.14.14-.2.31-.19.03 0 .05 0 .07-.02L9 6.84a.1.1 0 0 1 .08-.03l.33.04Z" fill="#B67C46"/><path d="m12.07 8.86.06.66c0 .08-.02.09-.07.02l-.24-.3c.09-.18.1-.32.06-.43l-.24-.54c-.07-.17-.02-.21.15-.12l.26.14c.04.02.05.01.03-.02a2.29 2.29 0 0 0-.46-.59c-.27-.21-.57-.4-.92-.56-.07-.03-.13-.03-.17-.02a.3.3 0 0 0-.14.14.29.29 0 0 1-.18.08h-.03a.07.07 0 0 1-.03-.03l-.11-.15a.12.12 0 0 0-.07-.04l-.5-.12-.07-.13c.18.03.35.08.53.12.16.04.34.07.54.09.49.04.93.24 1.32.6.26.23.41.53.47.89 0 .06-.01.07-.06.02-.11-.12-.21-.18-.29-.18-.04 0-.05.02-.03.05l.2.42Z" fill="#A0612F"/><path d="m9.48 6.98.5.12c.02 0 .04.02.06.04l.11.15.03.02h.03c.06 0 .12-.02.18-.07.41.01.71.16.9.44.06.07.05.08 0 .02-.02 0-.03-.02-.04-.04a.03.03 0 0 0-.04 0h-.01v.04a.75.75 0 0 0-.85-.14.73.73 0 0 0-.45.62.2.2 0 0 0 .18.23c.04 0 .05-.02.04-.05a.26.26 0 0 1-.02-.14c.02-.05.04-.05.08-.02.05.06.09.12.15.16.22.13.41.1.57-.1.06-.09.09-.21.09-.38 0-.03.01-.04.05-.05.14-.01.23.08.27.27a2.53 2.53 0 0 1-.05-.03.88.88 0 0 1-.4.5c-.04.01-.04.02 0 .03.05 0 .12-.01.18-.04a.13.13 0 0 1-.08.06c-.01 0-.01 0 0 0a1.95 1.95 0 0 0 .52-.15.08.08 0 0 1 .06.02l.02.03.05.18v.06c0 .02 0 .04-.02.05a.13.13 0 0 1-.05.04.15.15 0 0 1-.06.01h-.54a.08.08 0 0 0-.07.04c-.04.08-.01.15.09.2-.19-.08-.4-.22-.39-.4 0-.03-.01-.05-.04-.06l-.32-.12c-.1-.02-.17-.01-.23.04-.02.02-.04.01-.06 0a6.86 6.86 0 0 1-.1-.13.23.23 0 0 1-.04-.14c0-.18.02-.35.07-.51l.05-.07.24-.15c.02-.02.02-.04.01-.06-.24-.49-.84-.45-1.3-.32a.54.54 0 0 0-.32.23c-.1.14-.13.28-.1.39-.1-.1-.24-.2-.42-.28-.13-.2-.06-.26.21-.18l.12.02c.03 0 .06 0 .08-.02l.23-.16c.25-.17.52-.23.83-.2Z" fill="#D1A365"/><path d="M10.2 8.52c.14.18.24.3.3.34.37.3.6.5.65.57.06.07.09.14.09.2 0 .1-.01.17-.05.23-.01.02-.04.04-.07.03a8.2 8.2 0 0 0-.98.02c-.35.02-.6-.1-.74-.38.45.28.92.13 1.5.03.04 0 .05-.02.03-.05a1.76 1.76 0 0 0-.89-.78l.02.02v.04l-.2.24c-.25.07-.47.1-.67.11a.63.63 0 0 1-.24-.05c-.16-.07-.25-.06-.27.03-.22-.17-.48-.19-.77-.05-.09.04-.1.1-.04.17.4.47.8.57 1.24.28.08.01.12.05.11.13 0 .03-.02.05-.05.07a1.6 1.6 0 0 1-1.63-.1c-.03-.02-.04-.04-.04-.07.04-.16.1-.32.2-.46a1.76 1.76 0 0 1 .49-.32v-.01a.03.03 0 0 0 0-.03l-.08-.1c-.02-.03-.02-.05.03-.07.1-.02.18-.08.24-.17.02-.02.04-.02.06 0 .01 0 .02 0 .02.02a.25.25 0 0 0-.04.13c0 .03.02.04.05.03a.2.2 0 0 0 .12-.14.49.49 0 0 0-.04-.33.87.87 0 0 0-.11-.3c-.04-.11 0-.25.09-.4a.54.54 0 0 1 .32-.22c.46-.13 1.06-.17 1.3.32.01.02 0 .04-.01.06l-.24.15a.12.12 0 0 0-.05.07c-.05.16-.08.33-.07.51 0 .06.01.11.04.14l.1.12c.02.02.04.03.06 0 .06-.04.14-.05.23-.03Z" fill="#DDCFC0"/><path d="m11.82 9.23-.07-.1a1.19 1.19 0 0 0-.73-.22c-.1 0-.1.03-.04.08.12.1.3.23.53.38.08.06.14.15.18.28 0 .03.03.05.06.06l.07.01c.04 0 .04.02.01.04l-.11.08a.05.05 0 0 0-.03.04v.28c0 .02 0 .04-.02.06-.35.3-.75.5-1.2.63l.6-.41c.5-.44.49-.86-.05-1.29a.18.18 0 0 1-.06-.05c-.1-.05-.13-.12-.09-.2a.08.08 0 0 1 .07-.04h.54l.06-.01.05-.04a.12.12 0 0 0 .03-.05V8.7l-.06-.18-.02-.03-.03-.02a.08.08 0 0 0-.06 0 1.94 1.94 0 0 1-.47.15l.06-.06c.2-.08.49-.3.22-.5l.05.04c.16-.06.12-.2-.1-.4-.01-.02-.02-.03-.01-.04a.03.03 0 0 1 .05 0l.03.04c.06.06.07.05.02-.02-.2-.28-.5-.43-.9-.44a.3.3 0 0 1 .13-.14c.04-.01.1 0 .17.02.35.16.65.35.92.56.13.11.29.3.46.59.02.03 0 .04-.03.02l-.26-.14c-.17-.09-.22-.05-.15.12l.24.54c.05.1.03.25-.06.42Z" fill="#B67C46"/><path d="M7.94 7.27a2.4 2.4 0 0 0-1.47 1.05c-.08.14-.06.16.08.07.07-.05.12-.09.16-.1.19-.1.24-.06.17.13l-.21.5a.04.04 0 0 0 0 .04l.02.01h.71c.03 0 .05.02.05.05v.02c0 .02 0 .03-.02.03-.39.15-.72.34-.99.57a.09.09 0 0 0-.01.13c.15.17.34.39.58.63.3.33.7.48 1.18.45.36.14.73.22 1.09.24.23 0 .47-.04.7-.14a2.1 2.1 0 0 0 2-.75.07.07 0 0 0 .02-.05l-.02-.05-.2-.19c-.04-.02-.03-.05 0-.07l.13-.08c.02-.02.02-.03 0-.05-.19-.24-.35-.4-.48-.52-.21-.16-.19-.21.06-.14.04 0 .13.04.26.09l.07.1.24.3c.05.07.07.06.07-.02l-.06-.66c.15.42.14.83-.02 1.25a.9.9 0 0 1-.28.4c-.32.25-.65.5-1 .74-.12.1-.1.16.05.2l.15.05c.04 0 .06.03.07.06l.19.62-.47.05-1.09-.1.72-.1.04-.04.01-.02c.04-.04.03-.05-.03-.03l-.03.01a.12.12 0 0 1-.1 0c-.36-.14-.7-.11-1 .1l-.53-.19-.45-.17c-.04-.02-.05-.04-.05-.06v-.03c0-.01.01-.02.03-.02.62.01 1.1-.07 1.44-.25.32-.17.3-.24-.07-.23-.16.01-.38.02-.57 0L8 10.98a1.84 1.84 0 0 1-1-.4 9.17 9.17 0 0 1-.84-.84l.01-.03.02-.02.86-.56.02-.03v-.02c0-.03-.01-.04-.04-.03l-.48.04h-.03l-.02-.01v-.04l.33-.61c.07-.15.04-.17-.1-.07-.11.08-.23.2-.37.33-.01.02-.03.02-.06.01l-.02-.01a.05.05 0 0 1-.02-.06c.25-.77.8-1.23 1.68-1.36Z" fill="#96542A"/><path d="M11.2 7.7c.23.2.27.34.11.4-.04-.19-.13-.28-.27-.27-.04 0-.06.02-.05.05 0 .17-.03.3-.09.37-.16.2-.35.24-.57.11-.06-.04-.1-.1-.15-.16-.04-.03-.06-.03-.08.02 0 .05 0 .1.02.14 0 .03 0 .05-.04.05a.2.2 0 0 1-.18-.23c.04-.3.19-.5.45-.62.32-.13.6-.09.86.14ZM8.01 7.52c.18.08.32.17.43.28.06.1.1.2.11.3l-.01.13c0 .01 0 .02-.02.03h-.09c-.03 0-.04 0-.04-.03 0-.04-.02-.1-.07-.2l-.16.23a.46.46 0 0 1-.21.18.41.41 0 0 1-.37-.06c-.13-.1-.14-.37-.14-.53 0-.03-.02-.05-.05-.05-.1 0-.15.04-.14.1a.32.32 0 0 0-.17.2c-.1-.04-.09-.14.05-.29.08-.09.21-.17.39-.24a.66.66 0 0 1 .24-.04L8 7.52Z" fill="#1D0E0B"/><path d="M7.58 8.38h-.04c-.04 0-.05.02-.03.05l.02.03a.03.03 0 0 1 0 .03c-.03.02-.07.02-.12 0-.13-.1-.18-.3-.16-.59 0-.06.04-.1.14-.1.03 0 .05.02.05.05 0 .16.01.42.14.53Z" fill="#A0612F"/><path d="M7.25 7.9c-.02.3.03.49.16.59v.04c0 .03-.02.04-.05.03a.7.7 0 0 1-.3-.22.45.45 0 0 1 .02-.23c.03-.1.09-.17.17-.2Z" fill="#DDCFC0"/><path d="M8.32 8.03c.04.12.06.2.04.27 0 .05.01.06.05.03l.03-.02c.04-.02.06-.01.05.03 0 .03 0 .05-.03.07 0-.01 0-.02-.02-.03-.02-.01-.04 0-.06.01a.42.42 0 0 1-.24.17c-.05.02-.05.04-.03.07l.08.1a.03.03 0 0 1 0 .03v.01l-.02.01c-.16.08-.32.18-.46.3-.3.25-.48.54-.54.87 0 .05 0 .1.02.14.02.04.04.08.08.11l.4.32h-.09c-.36-.21-.61-.47-.75-.8a.14.14 0 0 1-.01-.1.15.15 0 0 1 .06-.08l.82-.53.01-.02v-.03l-.02-.01-.74-.14-.02-.01-.02-.02v-.02l.01-.02a.51.51 0 0 1 .22-.15c.03 0 .04-.02.02-.05l-.1-.2c.08.1.19.18.3.22.03 0 .05 0 .06-.03l-.01-.04c.05.02.1.02.11 0l.01-.02v-.01l-.02-.03c-.02-.03-.01-.04.03-.04h.04c.13.07.25.1.37.05a.46.46 0 0 0 .21-.18l.16-.23Z" fill="#D1A365"/><path d="M8.55 8.1c.05.1.07.22.04.33a.2.2 0 0 1-.12.14c-.03.01-.05 0-.05-.03 0-.04.02-.08.04-.13a.12.12 0 0 0 .03-.07c0-.04-.01-.05-.05-.03l-.03.02c-.04.03-.05.02-.05-.03a.57.57 0 0 0-.04-.27c.05.1.08.16.07.2 0 .02.01.04.04.04h.06l.03-.01.02-.03.01-.13Z" fill="#A0612F"/><path d="M11.26 8.07c.27.2-.02.4-.22.49a.35.35 0 0 1-.18.04c-.04 0-.04-.02 0-.04.19-.1.32-.27.4-.5Z" fill="#F4EDE4"/><path d="m10.96 9.1.06.05.27.39a.1.1 0 0 1 .02.08c-.11.71-.66.96-1.32 1.21a1.8 1.8 0 0 1-1.18.04 75.5 75.5 0 0 1-1.13-.35l-.4-.32a.27.27 0 0 1-.1-.11.26.26 0 0 1 0-.14c.05-.33.23-.62.53-.86-.1.14-.17.3-.2.46-.01.03 0 .05.03.07a1.6 1.6 0 0 0 1.63.1.08.08 0 0 0 .05-.07c0-.08-.03-.12-.11-.13l-.12-.19a.6.6 0 0 1 .21.18c.06.07.14.05.25-.06 0 .04-.02.06-.05.08.15.27.4.4.74.38.52-.03.84-.03.98-.02.03 0 .06 0 .07-.03a.38.38 0 0 0-.04-.43 7 7 0 0 0-.66-.57 2.32 2.32 0 0 1-.28-.34l.32.12c.03 0 .04.03.04.06-.01.18.2.32.39.4Z" fill="#BEAE9E"/><path d="M9.4 9.53a.12.12 0 0 0 .05-.08.58.58 0 0 1 .09-.11.67.67 0 0 1 .13-.08.39.39 0 0 0 .19-.23l.2-.24v-.04a.29.29 0 0 0-.02-.02c.42.18.71.44.9.78 0 .03 0 .05-.03.05-.59.1-1.06.25-1.5-.03ZM8.68 9.12l.3.21.13.2c-.43.28-.85.18-1.24-.29-.06-.07-.05-.13.04-.17.29-.14.55-.12.77.05Z" fill="#F4EDE4"/><path d="M11.75 9.14a3.48 3.48 0 0 0-.26-.1c-.25-.06-.27-.01-.06.15.13.11.29.28.49.52.01.02 0 .03-.01.05l-.13.08c-.03.02-.04.05 0 .07l.2.2.02.04c0 .02 0 .04-.02.05a2.1 2.1 0 0 1-2 .75l.48-.1c.46-.12.86-.33 1.2-.63a.08.08 0 0 0 .03-.06v-.28c0-.02.01-.03.03-.04l.11-.08c.03-.02.03-.03 0-.04l-.08-.01c-.03 0-.06-.03-.06-.06a.46.46 0 0 0-.18-.28c-.23-.15-.41-.28-.53-.38-.07-.05-.05-.08.04-.08.27 0 .52.07.73.23Z" fill="#B06A35"/><path d="m10.46 10.85-.47.1c-.24.1-.48.15-.71.14a3.32 3.32 0 0 1-1.7-.57h.1l1.13.35c.4.12.8.1 1.18-.04.66-.25 1.21-.5 1.32-1.21a.1.1 0 0 0-.02-.08l-.27-.39c.54.43.55.85.04 1.29-.08.07-.28.2-.6.4Z" fill="#B69774"/><path d="M7.23 11.34c-.01.14-.1.31-.25.51-.22.28-.15.52.2.72l.4.2-1.8-.53a.3.3 0 0 1-.08-.1.12.12 0 0 1 0-.1c.04-.14.06-.27.07-.36a.8.8 0 0 1 .1-.34c.05-.09.1-.24.13-.45a.28.28 0 0 1 .11-.17c.09-.07.22-.03.28-.16l.5.56c.07.08.18.15.34.22Z" fill="#2C3741"/><path d="m8.75 11.86.52.18c.1.08.24.1.4.09l1.09.1c-.26.08-.47.11-.73.03a1.7 1.7 0 0 0-.45-.09c-.05 0-.05.01 0 .03l.11.08c.02.01.03.03.04.06a.13.13 0 0 1-.03.12.15.15 0 0 1-.05.04l-.36.17c0-.14-.05-.2-.18-.2a.1.1 0 0 0-.05.02l-.42.28a.07.07 0 0 1-.09 0l-.01-.03-.16-.42c-.1-.2-.27-.2-.45-.1-.33.16-.57.08-.73-.25-.02-.03-.04-.04-.08-.02-.04.01-.06.03-.06.07.01.15.05.34.12.55-.35-.2-.42-.44-.2-.72.15-.2.24-.37.25-.51l1.52.52Z" fill="#34495B"/><path d="m11.26 11.56.06.04v.56l.02.03.02.02a.06.06 0 0 0 .06 0c.1-.06.2-.15.26-.26.05.19.06.35.05.5l-.07.78c0 .11-.03.2-.07.24a.8.8 0 0 1-.17.14.1.1 0 0 1-.09.01c-.2-.07-.35-.07-.43-.02-.32.21-.61.35-.87.4l-.35-.55c-.01-.03-.04-.04-.07-.04-.28.03-.48 0-.63-.06-.67-.3-1.59-.49-2.28-.6a2.02 2.02 0 0 1-.92-.51l1.8.52 1.53.43a.1.1 0 0 0 .04 0 .1.1 0 0 0 .04-.02.08.08 0 0 0 .03-.04v-.04a.56.56 0 0 1 .07-.42l.36-.17a.15.15 0 0 0 .05-.04.13.13 0 0 0 .02-.13.14.14 0 0 0-.03-.05.46.46 0 0 0-.12-.08c-.04-.02-.04-.03.01-.03.16.01.3.04.45.09.26.08.47.05.73-.03l.47-.05.03-.62Z" fill="#43382E"/><path d="M11.32 11.6c.2.07.32.18.36.35a.75.75 0 0 1-.26.25.06.06 0 0 1-.06 0l-.02-.01-.01-.03-.01-.56Z" fill="#302321"/><path d="M9.67 12.13a.55.55 0 0 1-.4-.09c.32-.2.65-.23 1.02-.09h.1l.02-.01c.06-.02.07-.01.03.03l-.01.02c-.01.02-.02.03-.04.03l-.72.1Z" fill="#B67C46"/><path d="M9.29 12.67a.56.56 0 0 0-.07.42v.04c0 .02-.02.03-.03.04a.1.1 0 0 1-.09.02l-1.51-.43-.41-.19c-.07-.21-.11-.4-.12-.55 0-.04.02-.06.06-.07.04-.02.06 0 .08.02.16.33.4.41.73.25.18-.1.36-.1.45.1a4.15 4.15 0 0 1 .17.44l.03.02a.07.07 0 0 0 .06-.01l.42-.28a.1.1 0 0 1 .06-.02c.12 0 .18.06.17.2Z" fill="#405A73"/><path d="M10.03 14a3.1 3.1 0 0 0-1.27-.2c-.46-.08-.92-.1-1.4-.06-.3.02-.5.02-.63.02-.25-.02-.46-.01-.65.02a.45.45 0 0 1-.22-.03c-.2-.07-.33-.13-.55-.12a13.86 13.86 0 0 0-.45.01.08.08 0 0 1-.03-.02l-.28-.37a.09.09 0 0 0-.08-.03H4.3c-.04 0-.05.01-.04.05l.09.32-.15-.2c-.01-.15.01-.26.07-.3l.45-.1c.03-.01.05 0 .06.03l.15.48.03.06.06.04a.16.16 0 0 0 .14-.02l.38-.25h.04l.25.31c0 .02.03.04.05.05a.17.17 0 0 0 .13 0c.03 0 .05-.01.06-.03l.38-.34v-.01a.04.04 0 0 1 .04 0v.01l.3.39.04.02.05.01h.28c.07-.01.16-.05.28-.13.09-.07.2-.12.31-.16.03 0 .05 0 .06.03.01.1.08.18.2.23l.5-.07.21-.1a.1.1 0 0 0 .04-.02.08.08 0 0 0 0-.1 4.06 4.06 0 0 0-1.82-.5c-.4-.03-.8-.08-1.2-.14l-.34-.3c-.03-.02-.03-.04 0-.07.04-.05.04-.07-.02-.07.17 0 .3-.04.4-.1.34.29.65.46.92.5.7.12 1.61.3 2.28.61.15.07.35.09.63.06.03 0 .06 0 .07.04l.35.55Z" fill="#96542A"/><path d="M5.38 12.34c.06 0 .06.02.01.07-.02.03-.02.05 0 .07l.35.3c.1.13.29.2.58.19h.04l.03.03a.07.07 0 0 1 0 .08l-.22.32c-.2.29-.32.27-.37-.07v-.32c0-.05-.01-.06-.06-.03l-.69.42H5L5 13.38v-.02l.1-.46v-.02l-.01-.01-.02-.01h-.01c-.27.03-.53.1-.78.23-.06.04-.08.15-.07.3-.08-.3.05-.55.38-.73.2-.1.47-.21.8-.32Z" fill="#D08D4B"/><path d="M8.5 13.64c-.05-.26-.23-.41-.55-.46a.06.06 0 0 0-.05.02l-.01.02v.02l.11.47c-.11-.05-.18-.12-.2-.23 0-.03-.02-.04-.05-.03a1.1 1.1 0 0 0-.31.16.59.59 0 0 1-.28.12 5.68 5.68 0 0 1-.33 0 .09.09 0 0 1-.03-.02l-.3-.39h-.01l-.02-.01h-.02l-.38.35a.17.17 0 0 1-.25-.02l-.24-.31h-.04l-.38.25a.16.16 0 0 1-.14.02.15.15 0 0 1-.06-.04.14.14 0 0 1-.03-.06l-.15-.48c-.01-.03-.03-.04-.06-.03l-.45.1a2.3 2.3 0 0 1 .8-.23l.02.02v.02l-.1.46v.02l.01.02h.05l.69-.42c.05-.03.07-.02.06.03v.32c.05.34.18.36.37.07l.21-.32.02-.04-.01-.04a.08.08 0 0 0-.03-.02.09.09 0 0 0-.04-.01c-.3 0-.48-.06-.58-.19.4.06.8.11 1.2.14a4.06 4.06 0 0 1 1.82.5.08.08 0 0 1 0 .1.1.1 0 0 1-.04.03l-.22.1Z" fill="#B06A35"/><path d="m8.5 13.64-.5.07-.11-.47v-.02l.01-.02.03-.02h.02c.32.05.5.2.55.46Z" fill="#D08D4B"/><path d="M8.76 13.8c-.82.13-1.8.17-2.9.12a3.65 3.65 0 0 1-1.51-.33l-.1-.32c0-.04 0-.05.05-.05h.17c.04 0 .06.01.08.03l.28.37.03.02h.04l.41-.01c.22-.01.35.05.55.12.08.03.15.04.22.03.19-.03.4-.04.65-.02.13 0 .34 0 .64-.02.47-.04.93-.02 1.4.06Z" fill="#743A1D"/><path d="M10.43 7.9c.06 0 .11-.04.11-.1 0-.05-.05-.1-.1-.1-.06 0-.11.05-.11.1 0 .06.05.1.1.1Z" fill="#F4EDE4"/><path d="M9.57 10.3c-.07.1-.13.14-.19.13a1.97 1.97 0 0 1-.5-.13.23.23 0 0 0-.17 0c-.26.09-.52.1-.8.02a.1.1 0 0 1-.04-.04.09.09 0 0 1-.02-.05V10.06l.02-.02a.06.06 0 0 1 .05 0c.5.12.93.02 1.31-.3.03-.02.05-.02.08 0 .36.2.59.31.68.32.22.02.45.02.7.02.16 0 .19.05.07.16-.11.1-.28.14-.5.11l-.62-.09a.08.08 0 0 0-.07.04Z" fill="#93837B"/><path d="M9.21 9.83a.1.1 0 0 1 .13 0l.4.27c.03.02.02.04-.02.05l-.13.04-.13-.01a1.06 1.06 0 0 0-.58.04h-.03l-.05-.01-.03-.01-.02-.01a.04.04 0 0 1 0-.04l.01-.02.45-.3Z" fill="#522A17"/></svg>