<!-- by TradingView --><svg width="18" height="18" viewBox="0 0 18 18" xmlns="http://www.w3.org/2000/svg"><path fill="url(#a)" d="M0 0h18v18H0z"/><path d="M12.58 5H14v-.99h-3V7h1V5.75c.77.9 1 1.8 1 2.99C13 11.08 11.38 13 9 13c-2.35 0-4-1.68-4-4 0-1.57.52-3.13 2-3.8v5.3h-.58v1H9.2c1.44 0 2.49-.65 2.49-2 0-1.11-.73-1.77-1.74-1.98.18-.2.3-.4.39-.66.36-1.02-.11-2.28-1.14-2.69-.37-.14-.76-.2-1.2-.16-2.46.21-4 2.7-4 4.96C4 11.85 6.1 14 9 14c3.02 0 5-2.37 5-5.26 0-1.41-.44-2.72-1.42-3.74ZM8 5.05c.32-.01.9.07 1.12.33.38.42.35 1.3 0 1.71-.22.27-.79.33-1.12.33V5.05Zm.83 3.39c.86 0 1.67.11 1.67 1.06 0 .91-.84 1-1.7 1H8V8.44h.83Z" fill="#FF8000"/><defs><linearGradient id="a" x1="3.35" y1="3.12" x2="21.9" y2="24.43" gradientUnits="userSpaceOnUse"><stop stop-color="#1A1E21"/><stop offset="1" stop-color="#06060A"/></linearGradient></defs></svg>