<!-- by TradingView --><svg width="18" height="18" viewBox="0 0 18 18" xmlns="http://www.w3.org/2000/svg"><path fill="url(#aqtn43nfb)" d="M0 0h18v18H0z"/><path fill-rule="evenodd" d="M12.94 9.4c.03-.03.06-.09.06-.15V4.83a.24.24 0 0 0-.06-.16c-.04-.05-.09-.05-.14-.05h-.95c-.03 0-.08-.08-.08-.1v-.35a.19.19 0 0 0-.04-.12.16.16 0 0 0-.11-.06c-.25-.02-.6-.02-.85-.01-.25 0-.23.28-.22.48a2.42 2.42 0 0 1 0 .12l-.01.02-.02.01h-.02l-.97.01c-.24.01-.23.27-.22.48V9.24c0 .06.04.12.08.16.04.04.09.07.14.07h.67l.02-.02a.07.07 0 0 0 .01-.05c-.05-.3.1-.58.4-.57h.97c.25 0 .35.3.32.55-.01.06.01.1.07.1h.8a.2.2 0 0 0 .15-.07Zm-.57-4.13h-.6l-.01.01h-.01l-.01.03-.55 2.58-.01.02a.03.03 0 0 1-.04 0l-.02-.02-.58-2.58c0-.02-.02-.04-.03-.04h-.58c-.03 0-.04.03-.04.05l.75 3.16.01.02h.99l.01-.03.76-3.16c0-.02-.01-.04-.04-.04ZM8.77 8.57c.14 0 .23-.19.23-.33V3.8c0-.04-.04-.08-.06-.1a.14.14 0 0 0-.11-.05H7.67l-.04-.02a.07.07 0 0 1-.02-.05v-.4c0-.05-.02-.1-.05-.13a.17.17 0 0 0-.12-.05H6.6c-.27 0-.24.33-.23.53v.06a.05.05 0 0 1 0 .03l-.02.02H5.26c-.18.01-.27.1-.26.26v4.36c0 .12.03.2.08.26l.03.02.04.02h1.04c.02 0 .04-.05.04-.07v-.38c0-.06.1-.12.15-.12h1.15c.27 0 .24.28.23.47v.03a.07.07 0 0 0 .01.05.06.06 0 0 0 .05.02h.95ZM6.2 4.07l-.01.2c0 .02-.02.04-.05.04h-.43c-.06 0-.09 0-.09.06v.37c0 .05.02.08.08.08H6c.05 0 .07.02.07.06V6.7c0 .05-.04.08-.09.08h-.33c-.01 0-.02 0-.02.02v.44c0 .01 0 .02.02.02h.48l.05.02.02.04v.22c0 .03.02.05.06.04h.25c.03 0 .04-.02.04-.04V7.3l.02-.02.02-.02H7.04c.04 0 .06.03.06.06v.2c0 .03.02.06.06.06h.23c.04 0 .07-.01.07-.05v-.21c0-.02 0-.03.02-.04a.08.08 0 0 1 .04-.03c.66-.07.98-.44.83-1-.05-.2-.2-.34-.42-.42-.12-.05-.12-.09 0-.13.28-.12.41-.3.42-.59.01-.48-.27-.71-.86-.77-.06 0-.08-.04-.08-.09v-.2c0-.03-.03-.06-.07-.06h-.16c-.04 0-.06.02-.06.05a.67.67 0 0 0 0 .2v.03l-.01.03-.03.01h-.51c-.03 0-.05 0-.06-.04a.12.12 0 0 1 .01-.1l.02-.08a.1.1 0 0 0-.01-.04.1.1 0 0 0-.04-.04.12.12 0 0 0-.05-.02L6.28 4a.1.1 0 0 0-.05.03.08.08 0 0 0-.02.05Zm.5.74a.06.06 0 0 0-.02.05v.63l.02.02.03.02h.51c.06 0 .13-.01.19-.03a.54.54 0 0 0 .16-.08.37.37 0 0 0 .1-.12.27.27 0 0 0 .04-.13v-.03c0-.04-.02-.1-.04-.13a.38.38 0 0 0-.11-.12.54.54 0 0 0-.16-.08.67.67 0 0 0-.2-.02h-.47l-.05.02ZM6.7 6.1v-.02l.02-.02.02-.02H7.33c.1 0 .21.04.3.1.07.07.11.15.11.25v.03a.3.3 0 0 1-.03.13.35.35 0 0 1-.1.11.43.43 0 0 1-.12.08.48.48 0 0 1-.16.02h-.56c-.02 0-.04 0-.05-.02a.06.06 0 0 1-.03-.04v-.6Z" fill="#fff"/><path fill-rule="evenodd" d="M12.83 14c.1 0 .15-.1.17-.2v-3.62c0-.13-.08-.18-.2-.18h-1.06c-.05 0-.07-.08-.07-.12v-.54a.17.17 0 0 0-.04-.12.16.16 0 0 0-.12-.06h-.84c-.26.01-.22.55-.2.72 0 .05-.04.12-.09.12H7.7c-.03 0-.07-.06-.07-.1v-.57a.16.16 0 0 0-.03-.1.15.15 0 0 0-.1-.06c-.3-.03-.6-.03-.9 0a.16.16 0 0 0-.11.06.17.17 0 0 0-.04.1l-.01.58v.03c-.02.02-.05.07-.07.06H5.1c-.06 0-.1.02-.11.08v3.84c.03.05.07.08.12.08h7.7Zm-3.36-.74.4-2.14c0-.03.02-.04.05-.03v.04a52.66 52.66 0 0 0 .03 2.2c.01.02.04.03.06.03h.45c.02 0 .04-.01.05-.03a.08.08 0 0 0 .03-.06v-2.8c0-.02-.02-.03-.04-.02h-.92c-.03 0-.05.01-.06.04l-.48 2.44a.03.03 0 0 1-.02.03h-.04l-.02-.05-.48-2.42c0-.03-.02-.04-.05-.04H7.5c-.01 0-.04 0-.04.02v2.81a.08.08 0 0 0 .05.07h.52v-.01a.07.07 0 0 0 .04-.04v-2.14c0-.11.02-.12.07-.03l.06.2.33 1.93c0 .06.04.1.1.1h.73c.06 0 .1-.03.11-.1Z" fill="#fff"/><defs><linearGradient id="aqtn43nfb" x1="9" y1="0" x2="9" y2="18" gradientUnits="userSpaceOnUse"><stop stop-color="#FE9573"/><stop offset="1" stop-color="#E14603"/></linearGradient></defs></svg>