<!-- by TradingView --><svg width="18" height="18" viewBox="0 0 18 18" xmlns="http://www.w3.org/2000/svg"><path fill="url(#aichzqgkn)" d="M0 0h18v18H0z"/><path d="M4 7v-.31L5.88 5H10v2H4Zm0 1.31V8h6v2H5.88L4 8.31Zm0 4.38V13h6v-2H5.88L4 12.69Z" fill="url(#bichzqgkn)"/><path d="M11 7.79V13c2.83 0 2.92-2.1 2.92-2.71 0-.62-.15-.57-.15-1.22 0-.51.15-.75.23-.8-.04-.03-.48-.21-.86.24.3-1.86-1.2-3.12-2-3.51.1.06.28.35.28 1.05 0 .7-.28 1.45-.42 1.74Z" fill="#03E1FF"/><path d="M11 12.82V9.44c.04-.06.2-.27.57-.52.37-.26.5-.8.52-1.03.46 1.32.93 1.15.93 2.92 0 1.76-1.35 2.08-2.02 2.01Z" fill="#00FFA3"/><path d="M11 12.8v-2.12c.23.14.7.56.7 1.17 0 .78-.47.96-.7.95Z" fill="#DC1FFF"/><defs><linearGradient id="aichzqgkn" x1="3.35" y1="3.12" x2="21.9" y2="24.43" gradientUnits="userSpaceOnUse"><stop stop-color="#1A1E21"/><stop offset="1" stop-color="#06060A"/></linearGradient><linearGradient id="bichzqgkn" x1="11.64" y1="6.46" x2="7.06" y2="13.94" gradientUnits="userSpaceOnUse"><stop stop-color="#24AEA7"/><stop offset="1" stop-color="#924AF9"/></linearGradient></defs></svg>