<!-- by TradingView --><svg width="18" height="18" viewBox="0 0 18 18" xmlns="http://www.w3.org/2000/svg"><path fill="url(#agw5jcmvd)" d="M0 0h18v18H0z"/><path d="M5.61 6.54c.26-.36.57-.54.95-.54h9.13c.26 0 .36.11.29.34-.14.38-.8.66-1.17.66H6.73c-.2 0-.59.61-.64.8-.05.12-.07.2.07.2h7.7c.4 0 .54.03.43.36-.35 1-1.3 2.24-1.9 3.1-.23.32-.55.5-.95.54H2.31c-.26 0-.36-.11-.29-.34a.83.83 0 0 1 .11-.2l.89-.95c.23-.33.55-.45.95-.49h7.3c.18 0 .6-.5.75-.69a.3.3 0 0 0 .05-.1c.03-.11-.01-.23-.15-.23h-7.2c-.4 0-.55-.1-.45-.43.04-.1.1-.2.18-.32l1.16-1.7Z" fill="#fff"/><defs><linearGradient id="agw5jcmvd" x1="3.35" y1="3.12" x2="21.9" y2="24.43" gradientUnits="userSpaceOnUse"><stop stop-color="#1A1E21"/><stop offset="1" stop-color="#06060A"/></linearGradient></defs></svg>