<!-- by TradingView --><svg width="18" height="18" viewBox="0 0 18 18" xmlns="http://www.w3.org/2000/svg"><path fill="#0090FA" d="M0 0h18v18H0z"/><circle cx="9" cy="9" r="6" fill="url(#a)"/><path d="M11.38 3.62c.07.05.06.11-.02.18-.14.1-.26.15-.38.13a.68.68 0 0 0-.28-.12.12.12 0 0 0-.12.05 15.07 15.07 0 0 1-.26.45c0 .03 0 .05.02.08l-.02.02h-.02a.43.43 0 0 1 .03-.37.8.8 0 0 0 .12-.22c.03-.07.06-.1.11-.07a.16.16 0 0 0 .2-.04c.17-.18.38-.21.62-.1Z" fill="#39F7BB"/><path d="M12.25 3.96c-.05 0-.05.05-.02.13l.03.13c0 .2.02.35.06.47a.08.08 0 0 0 .05.05.08.08 0 0 0 .07-.01.44.44 0 0 1 .2-.09.12.12 0 0 1 .12.06.96.96 0 0 1 .07.87v.01h.03c.1-.16.31-.42.14-.62-.05-.05-.1-.14-.17-.24v-.06h.06a6.52 6.52 0 0 1 .28.28c.1.4-.15.6-.42.85a.2.2 0 0 0-.07.12c0 .05 0 .1.03.13.02.03.02.08 0 .15-.09.69-.58 1.27-1.33 1.08l-.43-.15A.26.26 0 0 0 10.9 7a.71.71 0 0 1 0-.46l.18-.2.02-.04c0-.03.02-.05.04-.07l.39-.38c.03.07.03.12 0 .16v.02l.02.02c.02 0 .04 0 .05-.02l.07-.14c.03-.05.05-.04.06 0 .02.04.04.05.08.03.03-.01.04-.03.04-.04.02-.03 0-.05-.03-.05-.06 0-.09-.02-.08-.08 0-.02 0-.05-.02-.07a.53.53 0 0 0-.32-.25c-.2-.04-.52-.14-.63-.33a2.98 2.98 0 0 0-.17-.28h-.04V4.8c.01-.03.03-.03.05-.03l.37.08c.06.12.14.22.25.29a.1.1 0 0 0 .08.02l.27-.05a.35.35 0 0 1 .22.02.05.05 0 0 0 .07-.04l.11-.45c.05-.23.04-.45-.04-.66a.07.07 0 0 0-.06-.05l-.4-.08a.06.06 0 0 0-.06.02l-.31.25a.08.08 0 0 1-.07.02.55.55 0 0 0-.34.08l-.02-.02v-.02l.3-.25c.12.02.24-.02.38-.13.08-.07.09-.13.02-.18l.06.02c.02.01.04 0 .05-.03l-.01-.08.77.43Z" fill="#0154B2"/><path d="m10.98 3.93-.3.25v.02l.02.02c.1-.07.22-.1.34-.08.03 0 .05 0 .07-.02l.31-.25a.07.07 0 0 1 .05-.02l.41.08c.03 0 .05.02.06.05.08.21.1.43.04.66a.49.49 0 0 0-.16-.17c-.02-.01-.04 0-.06.01l-.2.26c-.2.1-.4.14-.58.11l-.37-.08c-.02 0-.04 0-.04.03l-.01.03a.41.41 0 0 0 0 .25l.21.79c.03.11 0 .33-.12.64l-.35.54-.47.6c-.02.02-.03.06-.03.12.01.04 0 .08-.03.1l-.27.4a8.75 8.75 0 0 1-.06-1.12 1 1 0 0 1 .08-.29l-.03-.01a.06.06 0 0 0-.06.01l-.02.02-.34.94c-.02.04-.05.06-.1.04l-.04-.02c-.05-.02-.07-.06-.05-.11l.05-.14c.02-.05 0-.08-.05-.09a.36.36 0 0 0-.16-.01.09.09 0 0 0-.07.08c-.01.44-.32.69-.57 1.02-.31.18-.56.3-.73.34-.12.03-.18.01-.18-.07.03-.12.08-.2.13-.25a.3.3 0 0 0 .09.04.1.1 0 0 0 .08-.02 8.16 8.16 0 0 0 .42-.38.1.1 0 0 0 0-.04c0-.11.04-.2.13-.27a.06.06 0 0 0 .02-.06l-.02-.18.01-.07c.07-.08.28-.24.26-.39a.86.86 0 0 0-.06-.17.1.1 0 0 1 0-.07l.09-.36a.23.23 0 0 0-.04-.19c.02-.12.07-.15.15-.07l.08.1c.07.13.17.22.32.27.16.06.3.03.46-.08.45-.37.4-.74-.07-1.05l.54-.38c.16-.1.14-.16-.05-.18l-.13-.02a.56.56 0 0 0-.38.05c-.14.08-.2.2-.3.35-.05.05-.1.05-.19-.01-.07-.06-.1-.04-.1.05l.04.35a.08.08 0 0 1-.04.08h-.03l-.62.06c-.13-.01-.21-.1-.25-.24a.07.07 0 0 0-.05-.05.49.49 0 0 1-.27-.2c-.02-.02-.03-.02-.04.02a.89.89 0 0 0-.02.2 2 2 0 0 1 .02.5c0 .05.02.11.09.17l-.05.05a.75.75 0 0 0-.23.31.47.47 0 0 1-.17-.25h-.04c-.01 0-.02.01-.01.03.02.1.02.17 0 .23l-.14-.01a.07.07 0 0 1-.04-.06.4.4 0 0 1 .07-.28.09.09 0 0 1 .06-.03l.36-.06c.02 0 .02-.01.03-.02l.01-.03c0-.28-.01-.53-.04-.72-.02-.19-.13-.29-.32-.3-.02 0-.04.01-.05.04v.02c-.01.02-.02.02-.04.02a.2.2 0 0 0-.03-.02c-.02 0-.05 0-.07.02a.83.83 0 0 1-.42.24H6.1a.09.09 0 0 0-.06.02l-.21.23h-.03a.02.02 0 0 1 0-.02l.1-.24c-.08.03-.11.02-.12-.03v-.03l.03-.02.29-.13c.1.02.14.02.13 0-.09-.26-.02-.45.2-.58.18-.07.23-.2.38-.27a.49.49 0 0 0 .24-.18l.24-.1.28-.12c.08 0 .16-.02.24-.04.22-.05.41-.15.63-.18l.06.01c.03.02.03.04 0 .06L8.4 4c-.03.02-.02.04.01.04h.58l.04-.02c.04-.03.09-.05.14-.04.36.06.57 0 .89.25h.04v-.04a.38.38 0 0 1-.06-.24c0-.02.01-.03.03-.02h.02c0 .04 0 .06.03.08.02.01.05 0 .07-.01.05 0 .1.01.14.04a.43.43 0 0 0-.03.37h.02l.02-.01a.2.2 0 0 1-.02-.1c0-.01 0-.04.03-.07a15.05 15.05 0 0 0 .28-.42.12.12 0 0 1 .07 0c.1.02.2.06.28.12Z" fill="#0547A3"/><path d="M7.04 4.3a.49.49 0 0 1-.24.18c0-.06-.07-.06-.22.01-.07.03-.08.02-.04-.04.1-.17.26-.25.48-.23.03 0 .05 0 .05.02l-.03.06Z" fill="#0154B2"/><path d="m11.98 4.64-.11.45a.05.05 0 0 1-.03.03.05.05 0 0 1-.04 0 .35.35 0 0 0-.22-.01c-.1-.04-.1-.16-.02-.37l.2-.26c.02-.02.04-.02.06 0 .06.03.12.09.16.16Z" fill="#0098FA"/><path d="M6.42 4.75c-.22.13-.29.32-.2.57.01.03-.03.03-.13 0-.05-.2.04-.41.27-.62.03-.02.05-.02.07 0l-.01.05Z" fill="#5AC7D0"/><path d="M11.56 4.74c-.08.21-.07.33.02.37l-.27.05a.1.1 0 0 1-.08-.02.69.69 0 0 1-.25-.29c.19.03.38-.01.58-.1ZM11.4 5.43c-.3.18-.46.41-.44.7a.79.79 0 0 1-.3.38c.1-.31.14-.53.11-.64l-.22-.8a.41.41 0 0 1 0-.24c.02-.01.03-.02.05-.01h.01l.01.01.16.27c.1.2.41.3.62.33Z" fill="#01E5BD"/><path d="M9.22 5.62a.34.34 0 0 0-.26 0c-.18.07-.16.24-.27.37l-.01.04v.03c.12.23.17.46.15.69a.57.57 0 0 1-.32-.27.44.44 0 0 0-.08-.1c-.08-.08-.13-.05-.15.07l-.03-.08-.1-.29c-.03-.08-.09-.12-.19-.1l.62-.07a.07.07 0 0 0 .07-.05v-.03l-.04-.35c0-.1.03-.11.1-.05.08.06.14.06.18 0 .1-.13.17-.27.3-.34a.56.56 0 0 1 .39-.05l.13.02c.2.02.2.08.05.18l-.54.38Z" fill="#0293B7"/><path d="M6.93 6.74c.05.08.08.12.11.12-.18.4-.31.8-.07 1.2a.1.1 0 0 1-.1.04c-.1-.02-.1-.1-.1-.17 0-.03-.01-.05-.03-.07a.28.28 0 0 0-.2-.12l-.07-.05c-.05-.03-.07-.07-.08-.11 0-.03.01-.07.05-.12.1-.13.15-.26.17-.4l-.24-.19a.2.2 0 0 1-.08-.13c-.07-.31-.02-.61.14-.9.02-.02 0-.09-.03-.18-.01-.01-.02-.02-.03 0a.61.61 0 0 1-.03 0c-.03.02-.04 0-.02-.04s.02-.06 0-.07c.16-.03.3-.11.42-.24a.06.06 0 0 1 .07-.02.2.2 0 0 1 .03.02c.02 0 .03 0 .03-.02l.01-.02c.01-.03.03-.04.05-.04.2.01.3.11.32.3a5.96 5.96 0 0 1 .03.75c0 .01-.01.02-.03.02l-.36.06a.09.09 0 0 0-.06.03.4.4 0 0 0-.07.28c0 .03.02.05.04.06.04.01.08.02.13.01Z" fill="#A599EF"/><path d="M11.4 5.43c.13.03.23.11.32.25l.02.07c0 .06.02.08.08.08.03 0 .05.02.03.05 0 .01-.01.03-.04.04-.04.02-.06.01-.08-.02-.01-.05-.03-.06-.06-.01l-.07.14c-.01.02-.03.03-.05.02l-.02-.02v-.02c.03-.04.03-.1 0-.16.05-.04.08-.07.08-.1.01-.04 0-.04-.03-.03l-.62.41c-.02-.29.13-.52.44-.7Z" fill="#39F7BB"/><path d="M7.96 5.97c.1 0 .16.03.2.11l.1.29a.25.25 0 0 1-.1-.06c.01.04.02.03.02-.04a.06.06 0 0 0-.04-.05.06.06 0 0 0-.06 0L8 6.28a.07.07 0 0 1-.08 0l-.37-.17-.03.02a.02.02 0 0 0 0 .02c.11.08.22.13.33.16.05.01.05.03 0 .06a.51.51 0 0 1-.42 0c-.07-.06-.1-.12-.1-.17a2 2 0 0 0 0-.5c-.01-.02 0-.1.01-.2 0-.04.02-.04.04-.01.07.1.16.16.27.19a.07.07 0 0 1 .05.05c.04.15.12.23.25.24Z" fill="#A599EF"/><path d="M6.32 5.55c.02.01.02.03 0 .07-.02.05-.01.06.02.05l.03-.02.03.01c.04.1.05.16.03.19-.16.28-.2.58-.14.9.01.05.04.09.08.12l.24.2a1.88 1.88 0 0 0-.68.2l-.15.19c0 .01-.02.02-.04.01-.03 0-.04-.03-.04-.06a.57.57 0 0 1 .1-.21.07.07 0 0 1 .06-.03c.1 0 .18-.03.25-.09.02-.01.02-.02 0-.04l-.05-.06a.08.08 0 0 1-.03-.06c.03-.26.06-.45.1-.58.05-.18.02-.2-.12-.07a.52.52 0 0 0-.17.36c0 .02 0 .03.03.02h.02a.03.03 0 0 1 .04 0v.02l.03.31-.01.04a.22.22 0 0 1-.16.11.1.1 0 0 0-.06.04c-.1.16-.12.34-.06.56 0 .02 0 .03-.02.02-.17-.1-.17-.4-.16-.58l.02-.1.13-.18a.09.09 0 0 0 .02-.07c-.02-.12-.04-.37.1-.41a.1.1 0 0 0 .06-.05l.13-.22c.02-.04.02-.08 0-.1-.03-.03-.05-.03-.08 0l-.35.35a.23.23 0 0 1-.07.04c-.14.07-.2.2-.21.37-.05.03-.07 0-.07-.1s.1-.2.12-.3c.05-.08.1-.13.18-.16a.08.08 0 0 0 .05-.06c.01-.06.05-.1.12-.12A.07.07 0 0 0 5.69 6c0-.05 0-.1-.03-.13a.08.08 0 0 1 0-.07c.03-.1.1-.19.22-.26l-.1.24a.02.02 0 0 0 0 .01.02.02 0 0 0 .02.01h.02l.2-.23a.09.09 0 0 1 .07-.03h.23Z" fill="#39F7BB"/><path d="M9.22 5.62c.48.3.52.68.07 1.05-.15.11-.3.14-.46.08.02-.23-.03-.46-.14-.69a.07.07 0 0 1 0-.07c.1-.13.1-.3.27-.37a.34.34 0 0 1 .26 0Z" fill="#A599EF"/><path d="m11.53 5.85-.4.38a.12.12 0 0 0-.03.07c0 .02 0 .04-.02.05l-.18.19a.5.5 0 0 0-.21.3c0 .03 0 .05.02.07.05.05.12.08.19.1.02.02.04.06.05.11l-.25-.1c-.02 0-.04 0-.04.04-.01.08 0 .15.05.21.07.08.2.1.42.07 0 .08-.03.12-.06.12l-.22.01c-.02 0-.05 0-.07.02-.12.05-.2.04-.27-.03a2.3 2.3 0 0 1-.2-.4l.34-.55c.15-.1.25-.22.31-.38l.62-.4c.03-.02.04-.02.03.01 0 .04-.03.07-.08.11Z" fill="#005EA1"/><path d="M5.5 7.06a.6.6 0 0 0-.05-.28c-.01-.03-.03-.03-.05 0a.12.12 0 0 1-.06.04c-.05 0-.08.03-.1.06 0 .05 0 .1.03.15v.03l-.03.02a.02.02 0 0 1-.01 0 .02.02 0 0 1-.01 0c-.06-.1-.05-.2.02-.28 0-.17.07-.3.21-.37a.23.23 0 0 0 .07-.04l.35-.36c.03-.02.05-.02.07 0 .03.03.03.07 0 .11l-.12.22a.1.1 0 0 1-.06.05c-.14.04-.12.29-.1.41 0 .03 0 .05-.02.07l-.13.17Z" fill="#0293B7"/><path d="M5.78 7.46c.1-.01.1.04-.03.16-.02.02-.02.04 0 .06.04.1.13.13.24.1l.48-.09.07.05v.06l-.05.03a1 1 0 0 1-.6.02.05.05 0 0 0-.07.07c.02.06.06.11.11.17.02.02.02.04 0 .05l-.03.03h-.05c-.1-.11-.22-.21-.34-.3a.42.42 0 0 1-.17-.47c.04-.12.08-.2.15-.23 0 .19-.01.49.16.58.02 0 .03 0 .02-.02-.06-.22-.04-.4.06-.56a.1.1 0 0 1 .06-.04.22.22 0 0 0 .16-.1v-.05l-.02-.31a.03.03 0 0 0-.04-.03l-.02.01c-.02.01-.03 0-.03-.02 0-.14.06-.26.17-.36.14-.13.17-.1.12.07-.04.13-.07.32-.1.58l.03.06.06.06v.04a.35.35 0 0 1-.26.09c-.03 0-.05 0-.06.03a.57.57 0 0 0-.1.21c0 .03 0 .05.04.06l.04-.01Z" fill="#0154B2"/><path d="M8.16 6.31c.02.03.06.05.1.06l.02.08c.04.06.05.12.04.2L8.23 7a.1.1 0 0 0 0 .07l.06.17c.02.15-.2.3-.26.39a.09.09 0 0 0-.01.07l.02.18c0 .03 0 .05-.02.06a.31.31 0 0 0-.12.27.1.1 0 0 1-.03.08l-.4.34a.1.1 0 0 1-.08.02.3.3 0 0 1-.09-.04L7 8.23a.07.07 0 0 1-.02-.07.13.13 0 0 1 .07-.08c.03-.02.03-.03-.01-.04a.1.1 0 0 0-.07.02c-.24-.4-.11-.8.07-1.2.06-.03.1-.07.12-.13a.75.75 0 0 1 .23-.31c.23.08.49.04.77-.1Z" fill="#C99AE9"/><path d="M7.16 6.73a.25.25 0 0 1-.12.13c-.03 0-.06-.04-.1-.12a.44.44 0 0 0 0-.23l.01-.03h.03c.04.11.1.2.18.25Z" fill="#5AC7D0"/><path d="M10.9 6.54a.71.71 0 0 0 0 .46.41.41 0 0 1-.19-.09.06.06 0 0 1-.02-.06.5.5 0 0 1 .2-.31Z" fill="#39F7BB"/><path d="M9.5 8.26a.15.15 0 0 1-.12.08c-.02 0-.04 0-.06-.02a.13.13 0 0 0-.08-.04c-.07-.01-.14.02-.2.1a3.5 3.5 0 0 1-.06.33c-.02.1.02.18.12.22.03 0 .05 0 .06-.02.25-.4.43-.68.53-.8.09-.1.17-.18.26-.24.01 0 .02 0 .01-.02 0-.02 0-.02-.03-.02l-.16.05c.03-.03.04-.07.03-.11l.27-.07c.2.12.4.23.6.32.2.1.32.2.42.37a.1.1 0 0 1 0 .11c-.31.35-.63.7-.96 1.04-.13.14-.28.27-.43.37a1.86 1.86 0 0 0-.63-.32l-.01.01-.01.03v.02c0 .01 0 .02.02.02l.55.3-.1.06-.56-.27c-.01-.01-.02 0-.03.01l-.01.03c0 .02 0 .04.02.05l.47.23a.4.4 0 0 0-.07.2.71.71 0 0 0-.44.3c-.1-.23-.28-.32-.55-.28a.9.9 0 0 1-.42-.02c.03-.1.13-.19.3-.28.38-.1.64-.34.77-.7a.07.07 0 0 0-.04-.09l-.42-.16-.03-.07a1.3 1.3 0 0 0-.12-.25c-.07-.11-.19-.14-.3-.14.24-.33.55-.58.56-1.02a.09.09 0 0 1 .07-.08l.16.01c.05.01.07.04.05.09l-.05.14c-.02.05 0 .1.05.11l.05.02c.04.02.07 0 .09-.04l.34-.94a.05.05 0 0 1 .05-.04h.03l.03.02v.01a1 1 0 0 0-.08.28c0 .37.02.74.06 1.11Z" fill="#005EA1"/><path d="m10.95 7.12.43.15c-.1.08-.18.1-.25.07-.21.03-.35 0-.42-.07a.26.26 0 0 1-.05-.21c0-.03.02-.04.04-.03l.25.1Z" fill="#39F7BB"/><path d="m11.56 8.23-.03.27c0 .03.01.05.05.05.3 0 .53.06.7.16l.25.13c.32.08.56.27.7.57 0 .3-.14.52-.43.68-.1 0-.15-.04-.13-.15l.02-.03a.8.8 0 0 0 .34-.23.18.18 0 0 0 0-.24 1.66 1.66 0 0 0-.48-.35.9.9 0 0 0-.38-.09l-.4-.05c-.03 0-.05-.02-.05-.05 0-.07.02-.16.06-.27v-.02a.03.03 0 0 0-.02-.02h-.02c-.1.04-.15.13-.12.29 0 .02-.01.03-.04.02-.35-.1-.41.44-.4.68-.04.01-.08 0-.13-.02h-.04l-.02.02-.01.02a.03.03 0 0 0 .01.02c.16.12.3.28.42.46a.1.1 0 0 1 .02.06c0 .09 0 .16.05.24a.09.09 0 0 1-.03.11.09.09 0 0 1-.04.02.7.7 0 0 1-.31-.06.97.97 0 0 0-.32.02c-.05 0-.08-.02-.09-.07v-.03c0-.05.04-.08.1-.09a1 1 0 0 1 .22 0c.13.02.14 0 .03-.08-.03-.01-.08-.02-.15 0a.61.61 0 0 0-.47.08l-.05.02c-.37-.04-.67 0-.92.13-.04 0-.08-.06-.11-.15a.4.4 0 0 1 .07-.2.1.1 0 0 0 .1 0c.01-.02.02-.03 0-.05l.1-.07c.03.01.05.01.07 0 .02 0 .02-.02.02-.05.15-.1.3-.23.43-.37a54.2 54.2 0 0 0 .98-1.1.1.1 0 0 0-.02-.05.9.9 0 0 0-.41-.37l-.61-.32a6.81 6.81 0 0 1 1.44 0c.02 0 .02.02.02.04l.03.5Z" fill="#01548D"/><path d="M9.03 8.37c-.01.07 0 .13.03.16.02.02.04.02.06 0 .18-.09.21-.18.12-.25.03 0 .05.01.08.04l.06.02c.05 0 .1-.03.12-.08l.27-.38.16-.05c.02 0 .03 0 .03.02v.02c-.1.06-.18.14-.27.24-.1.12-.28.4-.53.8-.01.02-.03.03-.06.02-.1-.04-.14-.11-.12-.22l.05-.34Z" fill="#007BBB"/><path d="M14.89 8.01c.05.2.06.37.05.51a.45.45 0 0 0-.14.26.65.65 0 0 1-.06.22.51.51 0 0 1-.18.15c-.06 0-.08-.04-.07-.13 0-.02-.01-.04-.04-.04a.28.28 0 0 0-.27.1c-.1.15-.22.26-.32.33a.12.12 0 0 1-.07.03.8.8 0 0 1-.52-.17.94.94 0 0 1 .4-.13c.04 0 .06.01.07.05 0 .03.02.06.04.08a.04.04 0 0 0 .04 0l.68-.55a.1.1 0 0 0 .04-.06.99.99 0 0 1 .35-.65Z" fill="#EEFBF7"/><path d="M12.69 9.91c-.02-.01-.01-.04 0-.06a.04.04 0 0 0 0-.04.04.04 0 0 0-.03-.03c-.35 0-.67.08-.66.5l-.2.22c-.02.02-.03.02-.04 0a4.73 4.73 0 0 0-.58-.92c-.01-.24.05-.78.4-.68.03.01.04 0 .04-.02-.03-.16.01-.25.12-.29a.03.03 0 0 1 .04 0 .03.03 0 0 1 0 .04c-.04.1-.06.2-.06.27 0 .03.02.05.05.05l.4.05a.9.9 0 0 1 .38.1c.2.1.36.21.47.34a.18.18 0 0 1 0 .24.8.8 0 0 1-.33.23Z" fill="#50DFFB"/><path d="M8.54 9.05a.2.2 0 0 0-.12.03c-.03.01-.04.03-.03.06l.05.19c-.21.15-.43.28-.67.38l-.3.15c-.26.14-.54.27-.74.42l-.43.36a.13.13 0 0 0-.01.18l.18.2-.16.32-.54-.41c-.04-.2.14-.23.25-.33l.25-.13c.13-.1.17-.2.1-.27l.28-.27c.1-.11.2-.2.3-.24l.26-.16a24.28 24.28 0 0 0 1.3-.54l.03.06Z" fill="#0293B7"/><path d="m14.56 9.15-.51.47c-.02.02-.04.02-.06 0-.12-.08-.23-.1-.35-.04-.26-.03-.38.06-.34.28-.1.2-.26.37-.51.5a.06.06 0 0 1-.07 0c-.02-.03-.03-.06-.02-.11l.1-.16c.29-.16.44-.39.44-.68l.03-.14a.8.8 0 0 0 .52.17c.02 0 .05-.01.07-.03.1-.07.21-.18.32-.32a.28.28 0 0 1 .27-.1c.03 0 .04 0 .04.03-.01.09.01.13.07.13Z" fill="#72F4FB"/><path d="M8.23 10c-.23-.06-.09-.33.01-.44.07-.08.2-.1.2-.23l-.05-.19c0-.03 0-.05.03-.06a.2.2 0 0 1 .12-.03l.42.16A.07.07 0 0 1 9 9.3c-.13.36-.39.6-.77.7Z" fill="#007BBB"/><path d="M8.44 9.33c0 .13-.13.15-.2.23-.1.11-.24.38 0 .44-.18.1-.28.19-.31.28a.46.46 0 0 0-.14.22c-.01.02 0 .04 0 .07.04.06.05.13.04.2 0 .18-.04.35-.1.51-.1.33-.24.62-.44.88l-.09-.06a.06.06 0 0 1-.03-.07l.1-.52a.1.1 0 0 1 .05-.07c.08-.05.18-.05.25-.12.24-.22.26-.55.01-.75-.12-.1-.27-.1-.47.02a.1.1 0 0 0-.05.05c-.07.18-.1.3-.08.35.06.28-.03.49-.26.63h-.04a.05.05 0 0 1-.02-.04c-.02-.2-.08-.4-.2-.55l-.17-.2a.13.13 0 0 1 0-.19l.44-.36c.2-.15.48-.28.73-.42l.3-.15c.25-.1.47-.23.68-.38Z" fill="#F2FFCF"/><path d="M14.97 9.34c-.01.36-.06.7-.14 1l-.05-.04-.01-.4c0-.03-.02-.05-.06-.04l-.2.03c-.04 0-.05 0-.05-.04s.02-.07.05-.1l.46-.4Z" fill="#72F4FB"/><path d="M11.18 9.58c.23.28.42.58.58.91 0 .03.02.03.04.01l.2-.21c.21-.15.4-.3.67-.35-.02.1.03.16.13.15l-.1.16-.25.15c-.16.08-.5.06-.45.35l-.34.03c-.02 0-.04 0-.06-.02l-.18-.14a.14.14 0 0 0-.08-.03l-.73-.05a.42.42 0 0 0 .04-.21c0-.03 0-.04.03-.04.14-.01.2-.04.2-.1l.16.01c.11.07.1.1-.03.09a1 1 0 0 0-.23 0c-.05 0-.08.03-.09.08v.03c0 .05.04.07.09.07a.97.97 0 0 1 .32-.02c.1.04.2.06.3.06a.09.09 0 0 0 .08-.05.09.09 0 0 0 0-.08.43.43 0 0 1-.05-.24.1.1 0 0 0-.02-.06 1.91 1.91 0 0 0-.43-.48v-.02l.03-.02h.04c.05.03.09.03.13.02Z" fill="#006DA8"/><path d="m13.64 9.58-.34.28c-.04-.22.08-.31.34-.28Z" fill="#C1FCFA"/><path d="M9.7 9.91c0 .03 0 .04-.02.05h-.06l-.55-.29c-.01 0-.02 0-.02-.02v-.02l.01-.03.01-.01h.02c.22.07.42.18.61.32ZM9.52 10.03l-.01.05a.1.1 0 0 1-.1 0l-.47-.23c-.02-.01-.03-.03-.02-.05l.01-.03c0-.02.02-.02.03-.01l.56.27Z" fill="#A7FC8D"/><path d="M10.89 10.2c0 .05-.07.08-.2.09-.03 0-.05.01-.04.04 0 .08 0 .15-.04.21-.04.04-.08.05-.13.04l-.02-.27v-.02c-.02-.02-.03-.02-.04 0 .16-.1.31-.13.47-.1Z" fill="#0293B7"/><path d="M6.38 10.2c.06.08.02.17-.1.27l-.26.13h-.04a.02.02 0 0 1 0-.02v-.01l.4-.37Z" fill="#C1FCFA"/><path d="m8.9 10.57-.1.19c-.2.1-.35.2-.43.29-.08.09-.15.24-.2.47-.12.14-.26.27-.42.37-.13.08-.15.06-.07-.07.07-.11.08-.3.05-.54.06-.16.1-.33.1-.51l.02-.1c0-.03.02-.05.04-.06.18-.07.33-.17.46-.3.27-.05.45.04.55.26Z" fill="#0547A3"/><path d="M9.34 10.28c.03.09.07.14.1.15a.84.84 0 0 1-.38.54.86.86 0 0 0-.25.3c-.06.1-.15.14-.24.2-.03-.01-.05-.03-.05-.07.15-.18.26-.38.31-.6v-.03l-.03-.01.1-.19a.71.71 0 0 1 .44-.29Z" fill="#006DA8"/><path d="M10.37 10.3a1 1 0 0 1-.53.24h-.08a.21.21 0 0 0-.1-.03c-.03 0-.05.02-.05.05.01.2-.12.33-.1.54-.23-.08-.43-.02-.57.18a6.46 6.46 0 0 1-.2.3c0 .05-.04.09-.1.1a.06.06 0 0 0-.04.06v.04c-.01.06-.04.08-.07.06-.07-.08-.06-.16.01-.24.02-.02.02-.03 0-.04-.02-.01-.02-.03-.02-.04 0-.03.02-.04.05-.06.1-.05.18-.09.24-.19.1-.16.18-.26.25-.3.19-.1.32-.29.39-.54.25-.12.55-.17.92-.13Z" fill="#1AC1FA"/><path d="M10.42 10.29c0-.02.02-.02.03 0l.01.02.02.27-.63.43c-.1.03-.2.15-.33.09-.03-.21.1-.34.1-.54 0-.03 0-.04.04-.05.03 0 .07 0 .1.02.02.01.05.02.08.01a1 1 0 0 0 .53-.24c.04-.03.06-.03.05-.02Z" fill="#A7FC8D"/><path d="m14.78 10.3.05.04c-.08.4-.2.76-.35 1.1l-.6.12a.06.06 0 0 0-.05.05.31.31 0 0 0 0 .18c-.17.14-.28.33-.34.55-.02.07-.01.11.01.14.07.08.14.04.22.08.03.02.04.05.02.08h-.87c-.17 0-.25.08-.24.24l.01.87c-.07.03-.1-.07-.08-.3l.03-.74a.27.27 0 0 0 .08-.12c.07-.15.17-.27.29-.37.12.08.21.18.28.3a.08.08 0 0 0 .07.04h.04a.03.03 0 0 0 .02-.03v-.01a2.86 2.86 0 0 0-.6-.6l.16-.58.03-.06c.16-.18.4-.33.63-.38.11-.03.19.02.23.14a.06.06 0 0 0 .04.04h.03l.03-.01c.09-.09.17-.2.24-.32a.15.15 0 0 1 .13-.08c.04 0 .05-.01.03-.04l-.04-.04a.12.12 0 0 1 .07-.2l.43-.1Z" fill="#FFFEF6"/><path d="M7.29 12.16c-.03.04 0 .07.07.1h.1a5.7 5.7 0 0 1 .5-.08l.02-.02.42-.56a.65.65 0 0 0 .12-.2c0 .04.02.06.05.06a.09.09 0 0 0-.05.06c0 .01 0 .03.02.04.02.01.02.02 0 .04-.07.08-.08.16-.01.24a.4.4 0 0 0-.14.14c-.08.05-.14.17-.16.35-.16.11-.29.26-.38.44a97.28 97.28 0 0 1-.46.84.03.03 0 0 1-.03-.02l-.12-.37a.72.72 0 0 1 0-.45l-.01-.07c-.02-.04-.06-.04-.1 0l-.2-.24-.23-.2a.06.06 0 0 0-.07 0l-.02.02c-.08.17-.15.36-.26.52l-.44.65c-.1.15-.18.32-.24.5-.08.04-.16 0-.25-.15.35-.26.61-.58.8-.98h.02c.01 0 .02 0 0 0 0-.02-.05-.04-.13-.05a.02.02 0 0 1-.02-.02v-.01l.26-.7a.07.07 0 0 0-.03-.1.4.4 0 0 1-.15-.12c-.02-.1.01-.15.09-.18.08-.05.1-.1.04-.17v-.13l.17-.31c.1.16.17.34.19.55a.05.05 0 0 0 .02.04.04.04 0 0 0 .04 0c.23-.14.32-.35.26-.63-.02-.05.01-.17.08-.35a.1.1 0 0 1 .05-.05c.2-.11.35-.12.47-.02.25.2.23.53-.01.75-.07.07-.17.07-.25.12a.1.1 0 0 0-.05.07l-.1.52c0 .03 0 .05.03.07l.09.06Z" fill="#005EA1"/><path d="m12 10.75.17.21a.08.08 0 0 1 .02.07l-.02.08c0 .03 0 .05.03.07.06.04.12.08.19.1a.2.2 0 0 1 .13.18c0 .14 0 .26.09.36.04.05.1.08.16.1a2.86 2.86 0 0 1 .6.62.03.03 0 0 1-.02.02h-.04a.08.08 0 0 1-.07-.04.88.88 0 0 0-.28-.3.8.8 0 0 0-.36-.22c-.06-.02-.08 0-.06.06l.13.53a.27.27 0 0 1-.08.12.52.52 0 0 0-.13-.23.06.06 0 0 0-.06-.02.06.06 0 0 0-.05.05l-.07.38c0 .01-.01.02-.03.02h-.04c-.02 0-.02 0-.02-.03.1-.52.05-1.02-.34-1.41-.02-.08-.1-.13-.2-.17a.07.07 0 0 1-.05-.05c-.03-.1-.07-.17-.13-.2.01-.09-.03-.14-.12-.17-.1-.03-.15 0-.18.09l-.3.04c-.02-.07-.09-.09-.2-.05a.1.1 0 0 0-.07.11c0 .05.03.07.07.1 0 .04 0 .07-.03.09l-.26.25a.8.8 0 0 0-.4.3c-.19.12-.24.27-.14.48 0 .02.02.03.04.03h.46a.05.05 0 0 1 .04.01.05.05 0 0 1 .01.05c-.02.1 0 .19.03.28.08.17.17.3.27.4.13.01.24.04.34.09-.07 0-.11.02-.15.05a.07.07 0 0 0-.02.07c.02.06.05.1.1.15l-.07.2c-.42-.09-.53-.4-.76-.66a.69.69 0 0 1-.2-.42c0-.06-.04-.08-.1-.08h-.05c-.05 0-.07.03-.07.08l.13.72c.05.2.02.36-.07.51a.08.08 0 0 0 .02.11c.45.36.98.17 1.3.75a6.17 6.17 0 0 1-4.38-.07c.05-.16-.04-.18-.08-.33.12.01.22.04.32.1.05.02.1.01.13-.03.04-.06.04-.11 0-.15-.02-.02-.03-.05-.01-.07.13-.27.19-.55.17-.86l.12.37v.01a.03.03 0 0 0 .04 0h.02l.43-.83c.1-.18.22-.33.38-.44-.03.07-.04.12-.03.14.02.03.03.03.05 0 .07-.14.12-.3.14-.49a.4.4 0 0 1 .14-.14c.03.02.06 0 .08-.06.04.05.07.1.07.16a.1.1 0 0 0-.04.02 23.62 23.62 0 0 0-.51 1.2c.02.02.03.02.05 0l.14-.27.06 1.16.03.06.08.03c.03 0 .05 0 .07-.03l.15-.2c.16-.1.22-.19.16-.25a.57.57 0 0 1 .03-.42l.56-1.18c.17-.35.28-.68.4-1.05l.62-.43c.05.01.1 0 .13-.04l.73.05c.03 0 .06 0 .08.03l.18.14c.02.02.04.02.06.02l.34-.03Z" fill="#01548D"/><path d="M11.47 11.04c-.08.01-.16.02-.23.01-.05 0-.07-.03-.07-.08.03-.09.09-.12.18-.09.1.03.13.08.12.16ZM10.87 11c.03.08 0 .12-.06.14a.36.36 0 0 1-.14.02c-.04-.02-.07-.04-.07-.08 0-.06.03-.1.08-.12.1-.04.17-.02.2.05Z" fill="#F2FFCF"/><path d="M11.17 10.97c0 .05.02.08.07.08h.23c.06.03.1.1.13.2 0 .02.02.04.04.05.12.04.19.1.21.17-.26-.17-.48-.17-.66.01a.96.96 0 0 0-.29.47c-.04.2 0 .43.12.68a.32.32 0 0 1-.31.13c-.02 0-.02 0 0-.02h.03c.03 0 .04-.02.04-.05 0-.08-.04-.14-.1-.18-.02-.02-.03-.02-.04.02a.41.41 0 0 0 .03.18l-.01.01h-.04c-.03 0-.05 0-.05.03 0 .01 0 .03.02.05.04.07.1.13.16.19v.04a.04.04 0 0 1 0 .02.04.04 0 0 1-.02.02h-.04c-.1-.1-.19-.24-.27-.41a.44.44 0 0 1-.03-.28.05.05 0 0 0-.02-.06h-.49c-.02 0-.03-.01-.04-.03-.1-.2-.05-.36.15-.47l.39-.22c.14-.03.24-.12.29-.28 0-.02 0-.04-.03-.06.02-.02.03-.05.03-.1.05 0 .1 0 .14-.02.06-.02.09-.06.06-.13l.3-.04Z" fill="#007BBB"/><path d="M9.85 11.01c-.11.37-.22.7-.39 1.05-.28.57-.47.96-.56 1.18a.57.57 0 0 0-.03.42c-.12.09-.18.16-.16.24l-.15.21a.06.06 0 0 1-.07.03.26.26 0 0 1-.08-.03.07.07 0 0 1-.03-.06l-.06-1.16.37-.89v-.06a.25.25 0 0 0-.08-.16.09.09 0 0 1-.01-.04c0-.03.01-.05.04-.06.06-.01.1-.05.1-.1 0-.03.01-.05.03-.08l.17-.22c.14-.2.34-.26.58-.18.13.06.23-.06.33-.09Z" fill="#006DA8"/><path d="M8.16 11.52c.06 0 .14.03.24.08l-.42.56-.02.02-.03.01a5.74 5.74 0 0 0-.57.06c-.07-.02-.1-.05-.07-.1.2-.25.34-.54.44-.87.03.25.02.43-.05.54-.08.13-.06.15.07.07.16-.1.3-.23.41-.37Z" fill="#1AC1FA"/><path d="M11.85 11.47c.39.4.43.89.34 1.41 0 .02 0 .03.02.03h.04c.02 0 .03 0 .03-.02l.07-.38a.07.07 0 0 1 .05-.05.06.06 0 0 1 .06.02c.06.07.1.14.13.23l-.03.74-.02.36c0 .03-.02.05-.04.07-.43.32-.9.57-1.41.75-.32-.58-.85-.4-1.3-.75a.08.08 0 0 1-.02-.1c.09-.16.12-.33.07-.52l-.13-.72c0-.05.02-.08.07-.08h.06c.05 0 .08.02.09.08 0 .15.07.29.2.42.23.25.34.57.76.66.03.15.08.3.16.43a.09.09 0 0 0 .15 0 .66.66 0 0 1 .41-.33c.03 0 .04-.02.03-.05-.04-.12-.08-.19-.13-.21a.64.64 0 0 0-.54-.04.23.23 0 0 1-.1-.15c-.01-.02 0-.05.01-.07.04-.03.08-.05.15-.05.22.11.45.16.7.15a.07.07 0 0 0 .06-.04l.08-.13a.08.08 0 0 0 0-.08.08.08 0 0 0-.06-.04 1.6 1.6 0 0 1-.8-.38 1.1 1.1 0 0 1-.11-.68c.03-.15.13-.3.3-.47.17-.18.4-.18.65-.01Z" fill="#09466C"/><path d="m14.48 11.43-.26.52a.2.2 0 0 1-.1-.1.08.08 0 0 0-.05-.05.56.56 0 0 0-.24-.01.3.3 0 0 1 0-.18c0-.03.02-.04.05-.05l.6-.13Z" fill="#C1FCFA"/><path d="M10.38 11.51v.09l-.4.22a.8.8 0 0 1 .4-.3Z" fill="#A599EF"/><path d="m14.22 11.95-.38.62a.2.2 0 0 1-.1.07c.02-.03.01-.06-.02-.08-.08-.04-.15 0-.22-.08-.02-.03-.03-.07 0-.14.05-.22.16-.4.33-.55.1-.02.17-.01.24.01.03 0 .04.02.06.05a.2.2 0 0 0 .1.1Z" fill="#72F4FB"/><path d="M6.22 12.82c-.03-.02-.05-.02-.07 0-.15.1-.28.23-.4.4a.35.35 0 0 1-.3.16.89.89 0 0 1 .26-.32c.05 0 .1-.04.16-.13.04-.06.04-.1-.02-.14l.01-.32c.01-.1.04-.16.1-.18a.8.8 0 0 0 .29-.24.06.06 0 0 0 0-.06l-.1-.15.02-.02c.04.05.09.1.15.13a.07.07 0 0 1 .03.08l-.26.71a.02.02 0 0 0 .02.03c.08.01.13.03.14.04v.01h-.03Z" fill="#0154B2"/><path d="m6.16 11.84.09.15v.06a.8.8 0 0 1-.29.24c.03-.16.1-.31.2-.45Z" fill="#EEFBF7"/><path d="M8.68 11.94c.02.02.02.04.01.06l-.37.89-.14.27c-.02.02-.03.02-.05 0v-.04a23.62 23.62 0 0 1 .51-1.16.1.1 0 0 1 .04-.02Z" fill="#A7FC8D"/><path d="M8.4 11.98c-.03.19-.08.35-.15.5-.02.02-.03.02-.05 0-.01-.03 0-.08.03-.15.02-.18.08-.3.16-.35Z" fill="#05BAB6"/><path d="M12.96 12.22c-.12.1-.22.22-.3.37l-.12-.53c-.02-.06 0-.08.06-.06.17.06.29.14.36.22Z" fill="#50DFFB"/><path d="M6.93 12.46c-.13.16-.27.32-.44.46a.62.62 0 0 0-.14.24.72.72 0 0 0-.09.48l.21.77a2.1 2.1 0 0 1-.75-.36c-.04-.04-.06-.07-.05-.1.06-.18.14-.35.24-.5l.44-.65c.11-.16.18-.35.26-.52a.06.06 0 0 1 .04-.03.06.06 0 0 1 .05.01l.23.2Z" fill="#A7FC8D"/><path d="M5.85 12.8c.06.02.06.07.02.13-.06.09-.11.13-.16.13a.6.6 0 0 0-.46-.2c-.23.01-.24-.04-.04-.16l.24-.14a.1.1 0 0 0 .05-.06.48.48 0 0 0 .02-.18l.11-.03h.04l.03.02c.1.15.15.31.15.48Z" fill="#EEFBF7"/><path d="M11.02 12.63c.23.2.5.33.8.38a.08.08 0 0 1 .05.12l-.08.13a.07.07 0 0 1-.06.04c-.25.01-.48-.04-.7-.15a.83.83 0 0 0-.3-.08.04.04 0 0 0 .02-.02V13a.9.9 0 0 1-.16-.2l-.02-.04c0-.03.02-.04.05-.03h.03a.02.02 0 0 0 .01 0v-.02a.41.41 0 0 1-.02-.17c0-.04.02-.04.05-.02.05.04.08.1.1.18 0 .03-.02.05-.05.05h-.04v.02c.14.02.24-.03.32-.13Z" fill="#016D8A"/><path d="m13.74 12.64-.2.28a.29.29 0 0 1-.13.1l-.37.01a.1.1 0 0 0-.1.07c-.04.15-.05.3-.04.45l-.26.2-.01-.87c0-.16.07-.24.24-.24h.87Z" fill="#5AC7D0"/><path d="M7.24 13.22c.02.3-.04.6-.17.86-.02.02-.01.05 0 .07.05.04.05.09.01.15-.03.04-.08.05-.13.03a.84.84 0 0 0-.32-.1l-.13-.53a.06.06 0 0 0-.04-.03.06.06 0 0 0-.05 0c-.04.02-.09.01-.15-.03a.72.72 0 0 1 .1-.48c.01-.03.06 0 .13.1.02.02.04.02.07.01a.1.1 0 0 1 .1.02c.03.02.05.02.06 0l.4-.6c.05-.03.09-.03.1 0 .02.03.03.05.02.08a.72.72 0 0 0 0 .45Z" fill="#1139AB"/><path d="M13.41 13.02c-.05.16-.14.22-.25.17a.04.04 0 0 0-.04 0 .04.04 0 0 0-.02.04l.02.1c0 .03 0 .05-.02.07l-.2.15c-.01-.15 0-.3.04-.44a.1.1 0 0 1 .1-.07l.37-.02Z" fill="#FFFEF6"/><path d="m10.9 13.62.07-.2c.2-.07.38-.06.54.04.05.02.09.1.13.21 0 .03 0 .04-.03.05a.66.66 0 0 0-.41.33.09.09 0 0 1-.12.04.09.09 0 0 1-.03-.04 1.3 1.3 0 0 1-.16-.43Z" fill="#005EA1"/><path d="M6.63 14.23c.04.15.13.17.08.33-.12-.04-.2-.1-.24-.15l-.2-.77c.05.04.1.05.14.03a.06.06 0 0 1 .07.01l.02.02.13.53Z" fill="#038877"/><path d="m12.48 6.71-.2-.44a.62.62 0 0 0 .26-.18c.06-.1.1-.08.1.02a.9.9 0 0 1-.16.6Z" fill="#39F7BB"/><path d="m12.28 6.27.2.44c-.15.18-.33.3-.54.4a.1.1 0 0 1-.08 0c-.27-.12-.35-.33-.24-.64.01-.03.03-.03.04 0l.04.09.05.05c.2.11.38-.08.42-.26a.1.1 0 0 1 .04-.06c.02-.03.05-.03.07-.02Z" fill="#00A9FA"/><path d="M8.52 4.33c.07-.07.16-.1.28-.08.03 0 .04.01 0 .04-.04.04-.12.06-.18.1l-.61.5c-.02.02-.04.02-.06 0-.04-.03-.05-.07-.02-.13.07-.15.3-.17.44-.26l.15-.17Z" fill="#05BAB6"/><path d="M6.77 6.33a3.56 3.56 0 0 1-.23.23.06.06 0 0 1-.06-.09l.03-.06a1.03 1.03 0 0 1 .72-.4v.02c-.23.1-.38.2-.46.3ZM9.06 6.14c.06.05.08.11.08.19a.07.07 0 0 1-.05.06.07.07 0 0 1-.08-.02c-.15-.18-.32-.72.12-.67.14 0 .24.18.29.28v.06c-.03.02-.04.01-.06 0a4.6 4.6 0 0 1-.18-.23c-.03-.04-.08-.04-.13-.01-.03.01-.03.03-.02.06.03.07.03.13 0 .18a.08.08 0 0 0 .03.1Z" fill="#007BBB"/><path d="m7.47 12.98.1-.31a.32.32 0 0 1 .08-.1c.08-.06.1-.04.06.05-.04.08-.07.18-.11.3-.02.05-.06.07-.13.06Z" fill="#A7FC8D"/><path d="m7.57 12.67-.1.3-.16.09a.06.06 0 0 1-.07-.02V13c-.03-.23.08-.34.33-.34Z" fill="#29CAFB"/><defs><linearGradient id="a" x1="5.38" y1="4.25" x2="11.06" y2="11.88" gradientUnits="userSpaceOnUse"><stop stop-color="#008DF9"/><stop offset=".57" stop-color="#03B0FA"/><stop offset="1" stop-color="#50DFFB"/></linearGradient></defs></svg>