<!-- by TradingView --><svg width="18" height="18" viewBox="0 0 18 18" xmlns="http://www.w3.org/2000/svg"><path fill="#A6D48C" d="M0 0h18v18H0z"/><path d="M7.33 3.34c-.53-.27-1 .23-1.16.52-.11-.06-.4-.1-.67.17s-.11 1.48 0 2.06C5.33 6.37 5 7.22 5 8.3c0 1.1.44 1.95.67 2.23-.17.06-.5.28-.5.69 0 .41.22.74.33.86l.33-.18c.14.14.5.29.67.35v.51c-.27.14-.44.74-.5 1.03 0 .82.78 1.14 1.17 1.2h.5c.26 0 .44-.34.5-.51.1.05.43.17.83.17.4 0 .61-.12.67-.17 0 .27.33.45.5.51h.33c.13 0 .28-.11.33-.17.54 0 .78-.57.84-.86.8-.68.77-1.66.66-2.06.11-.11.34-.44.34-.85s-.45-.52-.67-.52c.33-.17 1-1.2 1-2.23 0-.68-.44-1.77-.67-2.22.11-.58.27-1.79 0-2.06-.26-.28-.55-.23-.66-.17-.14-.69-.84-.63-1.17-.52A6.33 6.33 0 0 0 8.83 3c-.53 0-1.22.23-1.5.34Z" fill="#0A0D36"/><path d="M7.38 4.19c-.02.08-.1.13-.2.09-.09-.04-.15-.14-.13-.23.02-.08.1-.12.2-.09.08.04.14.14.13.23ZM7.83 7.8c-.01.09-.1.13-.2.1-.08-.04-.14-.14-.12-.23.01-.09.1-.13.19-.1.1.04.15.14.13.23ZM10.34 4.25c.01.09.1.13.2.1.08-.04.14-.14.12-.23-.01-.09-.1-.13-.19-.1-.1.05-.15.15-.13.23ZM10.24 7.77c.01.1.1.13.2.1.08-.04.14-.14.12-.23-.01-.09-.1-.13-.19-.09-.09.04-.15.14-.13.22Z" fill="#FEFDFF"/><path d="M7.17 3.86c-.27 0-.34.34-.34.51L6.5 4.2c0-.17.03-.37.17-.51.26-.28.66-.12.83 0 .11-.12.53-.35 1.33-.35s1.45.23 1.67.35c.17-.06.53-.14.67 0 .13.13.16.4.16.51l-.33.17c0-.17-.07-.51-.33-.51-.27 0-.45.34-.5.51-.8-.27-2-.11-2.5 0-.06-.17-.24-.51-.5-.51ZM5.83 5.74l-.16.17c-.06-.51-.14-1.57 0-1.71.13-.14.83.17 1.16.34l-.16.17c-.11-.05-.4-.17-.67-.17s-.22.8-.17 1.2ZM11 4.54l.17.17c.22-.11.7-.27.83 0 .13.28.06.8 0 1.03l.17.17c.1-.51.26-1.57 0-1.71-.27-.14-.9.17-1.17.34Zm.67 6.69c-.27 0-.34-.12-.34-.17 0 .27.23.34.34.34.04.14.24.17.33.17-.18.23-.74.33-1 .34.13.28.06.69 0 .86.22.12.63.48.5 1.03s-.61.8-.83.86c-.14.13-.17.05-.17 0-.13.13-.28.05-.33 0-.09 0-.13 0-.15-.02-.02-.02-.02-.07-.02-.15 0-.14.11-.29.17-.35 0-.27.1-.8.16-1.03v-.51c0-.34-.16-.86-.33-1.03a2.29 2.29 0 0 0-.5-.34c.67 0 1.61-.34 2-.52.17 0 .53.04.67.18.13.13.05.51 0 .68L12 11.4c-.13 0-.28-.11-.33-.17Zm-.5 1.54.83-.68h.17c.05.34.03 1.13-.5 1.54-.06-.23-.24-.72-.5-.86Zm-3.5-.17c0-.27.1-.8.16-1.03l.49-.33c-1.21.03-1.94-.34-2.15-.53a.74.74 0 0 0-.5.18c-.27.27-.11.57 0 .68l.16-.17c.27 0 .34-.11.34-.17.26 0 .33-.12.33-.17 0 .27-.22.34-.33.34 0 .14-.11.17-.17.17.13.28.61.34.83.34-.13.14-.05.63 0 .86-.16.17-.5.62-.5 1.03 0 .41.56.74.84.86.13.13.27.05.33 0 .13.13.28.05.33 0 .09 0 .13 0 .15-.02.02-.02.02-.07.02-.15 0-.14-.11-.29-.17-.35l-.16-1.03v-.51ZM5.83 9.17c0-.87 0-2.4.67-2.57.67-.17.67-.17 1.17-.17.25 0 .41.04.58.08.17.05.33.09.58.09.28 0 .6-.05.9-.1.24-.04.45-.07.6-.07.34 0 .67 0 1 .17 1.11.57.84 2.74.67 3.43.22-.23.67-.9.67-1.72 0-1.02-.67-3.08-1.67-3.6a5.86 5.86 0 0 0-2-.34c-1.17 0-1.67.17-2 .34-.33.18-1.83 1.89-1.67 3.6.14 1.38.73 2.18 1 2.4-.22-.22-.5-.85-.5-1.54Zm1.84-3.94c0 .19-.08.34-.17.34-.1 0-.17-.15-.17-.34 0-.2.08-.34.17-.34.1 0 .17.15.17.34Zm2.66 0c0 .19-.07.34-.16.34-.1 0-.17-.15-.17-.34 0-.2.07-.34.17-.34.09 0 .16.15.16.34Z" fill="#87CA2C"/><path fill-rule="evenodd" d="m11.83 5.4-.5-.51c.11-.12.37-.31.5-.18.14.14.06.52 0 .69ZM6 4.71c.13-.13.39.06.5.18l-.5.68c-.06-.23-.13-.72 0-.86Zm.67 2.06a.84.84 0 0 0 0 .69c-.11-.06-.34-.2-.34-.35 0-.05.07-.2.34-.34Zm1.5 0c-.14 0-.28-.11-.34-.17 0 .17.04.51.17.51s.17-.22.17-.34Zm1.66 0c.06 0 .2-.03.34-.17 0 .17-.04.51-.17.51s-.17-.22-.17-.34Zm1.84.34c0-.13-.23-.28-.34-.34.14.14.06.52 0 .69.14 0 .28-.23.34-.35ZM6 8.83c.06.06.27.17.67.17.21 0 .53-.2.88-.42.46-.28.98-.6 1.45-.6.42 0 .7.16 1 .33.3.18.58.35 1 .35.67 0 .94-.23 1-.35.06.4.1 1.3-.17 1.72-.33.51-1.66 1.2-2.83 1.2-1.69 0-3.33-.69-3-2.4ZM7.67 9c.16.06.56.17.83.17h.33V9c-.16-.06-.5-.24-.5-.51 0-.28.45-.35.67-.35.22 0 .67.07.67.35 0 .27-.34.45-.5.51v.17h.33c.22 0 .7-.03.83-.17-.05.17-.2.58-.33.86-.17.34-.5.68-1 .68s-.83-.34-1-.68c-.07-.15-.11-.3-.15-.44-.05-.17-.09-.32-.18-.42Z" fill="#FEFEFF"/><path d="M8.33 9.51 8 9.34l.17.35.16-.18ZM10 9.34l-.33.17.16.18.17-.35Z" fill="#FEFEFF"/><path d="M10 11.74c-.13-.13-.5-.28-.67-.34h-.66c-.27 0-.5.23-.67.34a6.01 6.01 0 0 0 0 2.23c.17.2.44.36.67.36h.66c.34 0 .56-.3.67-.36.33-.34.17-2.06 0-2.23ZM11.5 12.26h-.17v.17l.17-.17ZM11.83 12.09l-.16.17v-.17h.16Z" fill="#D9E021"/><path fill-rule="evenodd" d="M6.17 7.11 6 8.83c0 .06.13.17.67.17.31 0 .66-.23 1.03-.47.42-.27.86-.56 1.3-.56.4 0 .64.16.9.32.28.18.58.37 1.1.37.7 0 1-.17 1-.35l-.33-1.02c0 .05-.1.2-.5.34.05-.17.13-.58 0-.86-.06-.06-.3-.17-.84-.17 0 .23-.06.69-.33.69-.21 0-.26-.22-.3-.4l-.03-.12H8.33l-.03.12c-.04.18-.09.4-.3.4-.27 0-.33-.46-.33-.69-.17-.06-.57-.1-.84.17-.05.12-.13.45 0 .86-.22 0-.66-.24-.66-.52Zm1.5.18A1.63 1.63 0 0 0 7 7.1c.13 0 .17.12.17.18C7.1 7.43 7 8.3 7.5 8.3c.4 0 .61-.45.67-.68.26 0 .33-.12.33-.17-.33 0-.5 0-.83-.17Zm2.83 0c.27-.14.56-.18.67-.18-.14 0-.17.12-.17.18.07.14.17 1.02-.33 1.02-.4 0-.61-.45-.67-.68-.27 0-.33-.12-.33-.17.33 0 .5 0 .83-.17Z" fill="#FA9A22"/><path d="M8.5 8.49c0 .27.33.34.5.34.4 0 .5-.23.5-.34 0-.06-.1-.18-.5-.18s-.5.12-.5.18Z" fill="#706E71"/><path d="M8.83 9.86c-.13 0-.39.23-.5.34.11.06.4.17.67.17s.56-.11.67-.17c-.11-.11-.37-.34-.5-.34-.14 0-.17.11-.17.17 0-.06-.03-.17-.17-.17Z" fill="#FD496C"/></svg>