<!-- by TradingView --><svg width="18" height="18" viewBox="0 0 18 18" xmlns="http://www.w3.org/2000/svg"><path fill="url(#a)" d="M0 0h18v18H0z"/><path d="M7.9 14.96a6.7 6.7 0 0 1-1.51-.37l-.38-1.3a5.46 5.46 0 0 1 1.66-.73c.21 0 1.28.37 1.34.43.06.06-.6 1.98-1.11 1.97Z" fill="#F2E7EB"/><path d="M11.03 3.22a1.5 1.5 0 0 1-.24 0l-.02.01c-.02.02-.02.03 0 .04.61.21 1.08.6 1.41 1.13.01.03.02.05 0 .07-.09.27 0 .51.25.72.07.06.15.05.23.17.2.28.38.58.52.89L13 6.08l-.4-.72a.07.07 0 0 0-.07-.04H12.33v.03l.22.08c-.15-.02-.25-.09-.3-.19h-.01l-.02.02h-.02l-.11-.13c-.21-.4-.45-.76-.72-1.1l.1.05a.3.3 0 0 0-.17-.18c-.57-.28-1.13.14-1.53.5v-.03a.05.05 0 0 0-.01-.04.05.05 0 0 0-.05-.01l-.68.16c.48-.17.7-.38 1.07-.68h-.02c-.1.07-.19.12-.27.14a.1.1 0 0 1-.08-.01c-.3-.22-.53-.25-.95-.35l1.3-.11c.06 0 .06-.02 0-.04a.29.29 0 0 1-.1-.06c-.2-.2-.67-.3-.97-.34.57-.05 1-.04 1.3.04l.72.15Z" fill="#CD9C80"/><path d="M9 3.03c.31.04.78.13.98.34.03.03.07.05.1.06.06.02.06.03 0 .04l-1.3.1-.08-.03c-.3.02-.52.07-.63.13-.28.16-.61.22-1 .2-.2 0-.37.08-.5.26-.03.03-.1.15-.2.37-.02.02-.01.04.01.05l.02.01c.01.02 0 .03-.01.03-.14.03-.25 0-.32-.09-.04-.05-.05-.13-.04-.24.03-.16.05-.32.05-.49a.93.93 0 0 1 .44-.3c.18-.05.28-.15.46-.18.28-.05.46-.06.65-.16a.1.1 0 0 1 .04-.01l1.34-.09Z" fill="#B0846D"/><path d="m11.03 3.22.62.19c.42.18.75.28.97.49h.04c.02-.02.02-.03 0-.04-.08-.1-.08-.15.01-.15a.6.6 0 0 1 .23.49l.01.72c0 .04.01.06.03.1.08.1.17.2.28.29.13.1.2.18.25.27.16.3.19.41.19.76 0 .21.02.42.07.61l.14.75a.7.7 0 0 0-.23-.01c-.14-.18-.08-.4-.14-.57a1.56 1.56 0 0 1-.09-.43c0-.17-.13-.3-.23-.44-.14-.31-.32-.6-.52-.89-.08-.12-.16-.11-.23-.17-.26-.2-.34-.45-.24-.72V4.4c-.34-.54-.8-.92-1.42-1.13-.02-.01-.02-.02 0-.04h.02l.02-.01h.22Z" fill="#F7D3C0"/><path d="M12.67 3.7c-.1.01-.1.06 0 .16v.03l-.03.01h-.02c-.22-.2-.55-.31-.97-.5.33.02.78.05 1.02.3Z" fill="#9AA8B5"/><path d="M8.7 3.54c-.24.1-.48.2-.72.32-.28.13-.45.14-.76.15-.2.01-.37.08-.5.21a.1.1 0 0 0-.04.08c0 .07-.03.14-.08.23a.04.04 0 0 0 0 .04v.01h.02l.02.01c.04.01.04.02 0 .04-.11.05-.25.1-.4.1-.03.01-.05.03-.05.06v.3c0 .04-.01.06-.04.06l-.52.14a3.46 3.46 0 0 0-.92-.2l-.02.02a.05.05 0 0 0 0 .04l.1.25c-.2-.04-.37-.13-.28-.33.68-.05 1.23-.28 1.31-1.01l.26-.29c0 .17-.02.33-.05.49-.01.1 0 .19.04.24.07.09.18.12.32.1.02-.01.02-.02.01-.04l-.02-.01c-.02-.01-.03-.03-.02-.05l.2-.37c.14-.18.31-.26.51-.25.39.01.72-.05 1-.2.11-.07.33-.12.63-.14Z" fill="#CD9C80"/><path d="m8.7 3.54.08.04c.42.1.65.14.95.35a.1.1 0 0 0 .08.01.82.82 0 0 0 .28-.14h.01c-.36.3-.6.51-1.07.68a.71.71 0 0 0-.32.25.1.1 0 0 1-.06.04l-.44.1c.14-.22.28-.36.4-.41.46-.2.64-.23.91-.43L9.55 4a.07.07 0 0 0-.01-.07.08.08 0 0 0-.03-.02 1.18 1.18 0 0 0-1.34.17.12.12 0 0 1-.07.02h-.62c-.02 0-.03.02-.04.04 0 .03.01.05.05.06l.23.03c.07.01.07.02 0 .03a7.55 7.55 0 0 1-.85.04.06.06 0 0 0-.03.02.05.05 0 0 0 .01.06l.28.33v.03a.06.06 0 0 1-.01.06l-.03.01c-.27.05-.44.15-.53.32l-.2.15h-.73l.52-.13c.02 0 .04-.02.04-.05v-.31c0-.03.02-.05.05-.05.15-.02.29-.06.4-.11.04-.02.04-.03 0-.04h-.02l-.02-.01v-.01a.04.04 0 0 1 0-.04.47.47 0 0 0 .08-.23.1.1 0 0 1 .03-.08c.14-.13.31-.2.51-.2.31-.02.48-.03.76-.16l.72-.32Z" fill="#E0B196"/><path d="m8.21 4.87-1.65.26c.09-.17.26-.27.53-.32l.03-.01.02-.03a.06.06 0 0 0-.01-.06l-.28-.33a.06.06 0 0 1 0-.06c0-.01 0-.02.02-.02l.03-.01c.29 0 .56 0 .82-.03.07 0 .07-.02 0-.03l-.23-.03c-.03 0-.05-.03-.05-.06 0-.02.02-.03.04-.03h.62l.07-.03c.42-.34.86-.4 1.34-.17l.03.02.01.03V4l-.03.03c-.27.2-.45.23-.9.43-.13.05-.27.2-.4.4Z" fill="#F7D3C0"/><path d="M11.47 4.08c-.68-.4-1.16.16-1.7.42-.4.2-.48.4-.5.8 0 .34.2.5.45.7a.1.1 0 0 1 .04.06.1.1 0 0 1-.02.08c-.13.2-.27.4-.43.6-.11.14-.12.32-.02.54l.2.04c-.02.02-.07.04-.16.04l-.27-.08L9 7.14c.04-.32.19-.6.44-.84l.02-.03a.08.08 0 0 0-.01-.07.09.09 0 0 0-.03-.03c-.47-.24-.74-.6-.54-1.11.15-.39.45-.6.9-.66.4-.36.95-.78 1.52-.5.09.04.15.1.17.18Z" fill="#B0846D"/><path d="m11.47 4.08-.1-.04c-.32.03-.54.08-.64.14-.4.21-.76.4-1.1.54-.03 0-.04.03-.04.05 0 .42 0 .82.4 1.04.08.05.25.12.51.22.15.06.33.21.52.46.03.35.11.64.24.89.13.11.19.24.18.37-.03.38-.26.7-.5 1.03a.45.45 0 0 0-.06.3c.05.29.05.56 0 .83-.17.25-.38.41-.62.48-.33.1-.6.21-.8.34a2.16 2.16 0 0 1-1.9.1l.07.01c.05 0 .05 0 0-.01l-.07-.02c.57.11 1.03.2 1.57 0a2.52 2.52 0 0 0 .61-.57.1.1 0 0 0-.01-.09.12.12 0 0 0-.04-.03c-.02-.01-.01-.04.02-.08a4.99 4.99 0 0 1 .54-.65c-.19.19-.31.4-.38.65v.06c.01.01.03.03.05.03l.25.08c.08.03.14 0 .2-.05.21-.25.33-.52.35-.83 0-.03 0-.06-.02-.08a.13.13 0 0 0-.07-.04.76.76 0 0 0-.24-.04c-.02.02-.03.04-.02.08l-.07.1c-.38.12-.54.34-.73.68-.01.02-.02.02-.04.02l-.02-.01v-.01c.08-.11.23-.2.18-.36-.01-.02-.03-.03-.06-.02l-.61.34c.04.06.1.1.18.12-.13 0-.28 0-.4.02h.5v.04l-.77.02c-.02 0-.03.01-.02.02l.02.02.8.01.2.01c.03 0 .03.02.02.04l-.04.07v-.06c0-.03-.03-.05-.06-.05-.3.01-.62 0-.92-.01-.1-.01-.2-.07-.27-.1.01-.01.07.02.16.07a.03.03 0 0 0 .03-.01v-.01c0-.2.3-.27.51-.34.17-.06.22-.13.14-.23.34-.07.64-.18.92-.31.1-.05.1-.08-.02-.09h-.94L10 9.2l.12-.02c.03-.02.03-.03 0-.04l-.07-.01c-.29.02-.51-.01-.67-.1a1.25 1.25 0 0 0-.43-.12c.54.05 1.07-.01 1.59-.2.27-.1.47-.27.59-.52v-.04h-.06l.2-.58c.02-.02.02-.04 0-.06a.08.08 0 0 0-.04-.04l-.47-.18a.78.78 0 0 0-.4-.38 1.88 1.88 0 0 0-.82 0 .08.08 0 0 0-.06.06l-.1.26-.02.01h-.03v-.03a.87.87 0 0 1 .23-.33c.02-.02.02-.02 0-.02h-.19l-.04.01a.06.06 0 0 0-.02.04.9.9 0 0 0 .04.36h-.06c-.1-.22-.1-.4.02-.54.16-.2.3-.4.43-.6a.1.1 0 0 0 .02-.08.1.1 0 0 0-.04-.06c-.25-.2-.46-.36-.45-.7.02-.4.1-.6.5-.8.54-.26 1.02-.82 1.7-.42Z" fill="#906049"/><path d="M11.37 4.04c.27.33.51.7.72 1.09l.3.46-.02.05a6.8 6.8 0 0 1-.55-.75c-.23-.37-.4-.5-.84-.54-.02 0-.05.01-.07.03-.42.29-.9.36-1.03.92a.1.1 0 0 0 0 .07l.04.05c.15.1.32.2.5.29.44.22.67.5.74.95.05.26.09.44.12.67h-.06V7.3c-.06-.39-.12-.83-.34-1.17l-.02-.01h-.01v.02l.17.34c-.2-.25-.37-.4-.52-.46-.26-.1-.43-.17-.51-.22-.4-.22-.4-.62-.4-1.04 0-.02.01-.04.04-.05.34-.15.7-.33 1.1-.54.1-.06.32-.1.64-.14Z" fill="#735041"/><path d="M5.82 4.06c-.08.73-.63.96-1.31 1a.8.8 0 0 0 .04-.35c0-.03.01-.05.03-.07.04-.05.1-.09.18-.11l.07-.04c.2-.18.38-.28.55-.32.22-.04.37-.08.44-.11Z" fill="#E0B196"/><path d="M9.77 4.4c-.44.05-.74.27-.9.66-.2.52.08.87.55 1.11l.03.03a.08.08 0 0 1-.01.1c-.26.24-.4.52-.44.84-.02-.14 0-.35.04-.63.04-.27-.08-.5-.35-.66-.33-.21-.66.02-.84.3a.2.2 0 0 1-.08.06.21.21 0 0 1-.1.02 1.6 1.6 0 0 1-.8-.2c-.08-.05-.15-.09-.24-.12a.12.12 0 0 0-.08 0l-.87.26.82-.43a.07.07 0 0 0 .05-.06c0-.15-.07-.24-.23-.27a1.98 1.98 0 0 0-1.03.08h.02c.02.01.02.02.02.04-.05.4-.17.78-.37 1.13.02-.15.01-.3.06-.45.07-.18.11-.36.13-.55a.1.1 0 0 0-.02-.07.53.53 0 0 0-.35-.2l-.1-.24a.05.05 0 0 1 .01-.04l.02-.02h.03c.3.03.6.1.9.2l.72-.01c.23-.05.45-.06.68-.02.3.04.47.06.51.05.28-.03.48-.25.66-.44l.44-.1a.1.1 0 0 0 .06-.04c.07-.1.18-.19.32-.25l.68-.16a.05.05 0 0 1 .05 0l.01.02v.06Z" fill="#BD8365"/><path d="m12.37 5.64-.06.81-.02.02h-.01a.01.01 0 0 1-.01-.01v-.51a.22.22 0 0 0-.03-.11c-.2-.35-.52-.58-.92-.68-.24-.06-.4-.11-.6-.07-.11.03-.16.1-.15.19 0 .01 0 .03.02.04l.03.03c.25.17.5.34.72.52.46.38.51 1.61.36 2.11-.04.13-.17.38-.38.75-.05.1-.1.29-.14.57-.03.24-.08.42-.15.55-.3.63-.96.68-1.57.88.2-.13.47-.24.8-.34.24-.07.45-.23.63-.48.08-.24.12-.5.13-.76 0-.14.03-.27.08-.37.18-.41.69-1.05.16-1.4-.13-.25-.2-.54-.24-.9l-.17-.33v-.02h.03c.22.35.28.8.34 1.18v.02h.05c-.02-.23-.06-.4-.1-.67-.08-.45-.3-.73-.75-.95a3.8 3.8 0 0 1-.54-.34.1.1 0 0 1 0-.07c.13-.56.6-.63 1.03-.92a.12.12 0 0 1 .07-.03c.44.03.61.17.84.54.16.26.35.51.55.75Z" fill="#6D422C"/><path d="M8.21 4.87c-.18.2-.38.4-.66.44-.04.01-.22 0-.51-.05a1.84 1.84 0 0 0-.68.02l.2-.15 1.65-.26Z" fill="#CD9C80"/><path d="m12.37 5.64.01-.05.01.86.14 1.3a.87.87 0 0 0 .1.41l-.02.01a.02.02 0 0 1-.01 0h-.01v-.01c-.12-.29-.3-.44-.59-.48-.03 0-.05.01-.06.04-.21.41-.39.79-.52 1.13-.05.14-.03.15.05.03a34.48 34.48 0 0 0 .62-.97.2.2 0 0 1 .08-.03.21.21 0 0 1 .17.05c.23.2.34.5.57.72.04.03.06.05.07.04l-.04-.06c-.11-.11-.3-.4-.24-.54 0-.02 0-.02.02 0l.2.34.07.06a.16.16 0 0 0 .17-.02.14.14 0 0 0 .05-.07 1.5 1.5 0 0 0-.25-1.34c-.2-.3-.32-.32-.35-.07a.23.23 0 0 1-.02-.11c.2-.38.62.31.68.4l.14.34.01.73c0 .03-.01.06-.04.07l-.23.13c-.03.01-.03.03 0 .05l.18.1.05.07c.02.02.02.05.02.08l-.03.48-.24.55-.24.44c-.2.32-.47.54-.71.82-.14.17-.29.25-.5.17-.06-.02-.1 0-.15.05v-.05c0-.04-.02-.05-.05-.04-.35.07-.58.13-.68.18-.45.26-.9.47-1.36.65-.1.03-.1.05.01.06l.23-.03-.3.12a15.7 15.7 0 0 0-.5.17v.04l-.1.02-.43-.04c-.03 0-.06 0-.08.02l-.41.18.2-.12c.08-.03.12-.07.12-.1s0-.06-.03-.07l-.75-.45c-.13-.13-.03-.13.3 0h.07a1 1 0 0 0 .6-.37.05.05 0 0 0 0-.08c-.4-.32-.9-.24-1.46-.2l-.04.01a.06.06 0 0 0-.02.03.06.06 0 0 0 .01.07c.05.05.04.13-.03.24l-.13.1a.06.06 0 0 1-.07.01l-.3-.15-.23-.39c-.05-.2-.11-.4-.19-.6-.05-.15-.14-.19-.28-.24l.37-.1 1.56.58.07.02c.04.01.04.01 0 .01a1.9 1.9 0 0 1-.07 0c.66.26 1.29.22 1.9-.11.6-.2 1.27-.25 1.57-.88.07-.13.12-.31.15-.55.04-.28.09-.47.14-.57.21-.37.34-.62.38-.75.15-.5.1-1.73-.36-2.11a8.15 8.15 0 0 0-.75-.55.1.1 0 0 1-.02-.04c-.01-.1.04-.16.16-.19.18-.04.35.01.59.07.4.1.71.33.92.68.02.03.03.07.03.1v.52h.04l.06-.82Z" fill="#56392E"/><path d="m12.54 5.43.47.65.17.17c.1.14.23.27.23.44.01.15.04.3.09.43.05.18 0 .39.14.57l.07.16c.03.06.02.1-.03.11a.07.07 0 0 0-.05.05.52.52 0 0 0 0 .25v.08l-.26.99.03-.48c0-.03 0-.06-.02-.08a.16.16 0 0 0-.05-.06l-.18-.11c-.03-.02-.03-.04 0-.05l.23-.13a.07.07 0 0 0 .04-.07v-.73a5.1 5.1 0 0 0-.28-1.25l.01.04c.05.1.07.17.09.23 0 .03 0 .04-.03.02-.18-.13-.39-.22-.64-.27-.03 0-.05 0-.05.04v.12a.5.5 0 0 0-.13-.1V5.6l-.3-.46.11.13h.02l.02-.02c.06.1.16.17.3.2Z" fill="#906049"/><path d="m13 6.08-.46-.65-.2-.08-.01-.01v-.02h.21c.03 0 .05.02.07.04l.4.72Z" fill="#BD8365"/><path d="m5.68 6.17-.33.18a3.1 3.1 0 0 0-.16 1.5l.02.45a.1.1 0 0 1-.03.07c-.1.1-.23.18-.38.24-.23-.43-.09-.84.06-1.32l.1-.63c.2-.35.32-.73.37-1.13 0-.02 0-.03-.02-.03l-.02-.01v-.02c.34-.1.68-.13 1.03-.06.16.03.23.12.23.27 0 .02-.02.04-.05.06l-.82.43Z" fill="#906049"/><path d="m9 7.14.06.14c-.05-.07-.11-.12-.12-.21-.05-.52-.06-.87-.32-1.23a.16.16 0 0 0-.1-.06c-.03-.01-.07 0-.1.01l-.48.26-.01.02v.02c0 .01 0 .02.02.01.23-.13.38-.3.67-.15.04.02.06.05.07.1a6.7 6.7 0 0 1 .1.8c-.03-.3-.1-.57-.2-.8a.15.15 0 0 0-.08-.08.16.16 0 0 0-.12 0c-.16.06-.3.13-.4.2a.6.6 0 0 1-.32.1c-.32 0-.59-.08-.95-.15-.39-.07-.63-.02-.74.14-.04.37-.1.72-.19 1.07-.1.43.1.8.34 1.2.13.22.32.3.59.24.14-.03.21-.03.31-.11.29-.25.52-.5.82-.53.34-.05.66-.13.94-.27.06-.02.08-.06.07-.12-.05-.33-.16-.6-.31-.8a.17.17 0 0 0-.06-.04.18.18 0 0 0-.2.03l-.32.33c.14-.23.17-.56.1-1 0-.07.02-.11.09-.12l.12-.02c.05-.01.09.01.1.06.19.54.52 1.04.55 1.6a.1.1 0 0 1-.02.07.11.11 0 0 1-.04.04l-.7.32a.74.74 0 0 1-.28-.05c-.2.07-.33.14-.4.21-.21.24-.44.45-.7.62a.1.1 0 0 0-.04.08l-.08.69a.1.1 0 0 1-.01.04.1.1 0 0 1-.04.03.1.1 0 0 1-.1 0c-.31-.21-.56-.4-.97-.45a.42.42 0 0 1-.09-.12c-.01-.03 0-.03.02-.02l.26.14v-.02c-.05 0-.07-.03-.07-.06.05 0 .08 0 .1-.04v-.08a5.36 5.36 0 0 0-.13-.58 2.38 2.38 0 0 1-.06-.51c0-.1-.03-.1-.1-.03a.58.58 0 0 0-.06.2.33.33 0 0 0-.09-.17 5.75 5.75 0 0 0-.02-.39v.07c0 .02.02.04.05.06l.25.16a.02.02 0 0 0 .02 0 .01.01 0 0 0 0-.01.72.72 0 0 1-.26-.56 18.16 18.16 0 0 1 0-.82l.03-.02a.02.02 0 0 1 .02 0l.01.01v.01l-.01.81H5.4l.01-.01c.05-.37.03-.72-.07-1.05l.33-.18.87-.27h.08c.09.04.16.08.24.14.2.14.53.18.8.2.03 0 .07-.01.1-.03a.2.2 0 0 0 .08-.07c.18-.27.51-.5.84-.3.27.18.39.4.35.67a2.9 2.9 0 0 0-.04.63Z" fill="#E0B196"/><path d="M11.65 7.75c-.01-.21.03-.3-.16-.45-.14-.11-.21-.3-.25-.5-.1-.47-.16-.74-.5-1.07-.01-.01 0-.03.01-.04l.03-.01h.01c.22.15.36.35.44.59.07.21.1.57.2.8l.19.33c.08.12.1.24.06.36a.02.02 0 0 1-.02 0Z" fill="#735041"/><path d="m9.06 7.28.27.08c-.07.23.01.46.26.7.04.05.04.06-.01.03-.05-.02-.12-.12-.2-.18v.04c.04.01.07.03.08.06.02.02 0 .04-.02.05l-.08.03a.61.61 0 0 1-.15.01h.1a.04.04 0 0 0 .02-.02.04.04 0 0 0 .01-.03.14.14 0 0 0-.1-.11.3.3 0 0 0 .04 0c.03 0 .04-.02.04-.05a.5.5 0 0 0-.28-.31c-.05-.03-.08-.01-.07.04l.02.28-.82.31.7-.32.04-.04a.1.1 0 0 0 .02-.06c-.03-.57-.36-1.07-.54-1.6-.02-.06-.06-.08-.11-.07l-.12.02c-.07.01-.1.05-.09.11.07.45.04.78-.1 1.01-.04.06-.09.09-.15.08.05-.14.05-.25-.02-.34-.05-.08-.15-.12-.28-.13a.97.97 0 0 0-.73.28c-.1.11-.16.21-.16.32.07-.01.04 0-.07.04.02-.23.1-.39.27-.49a4.02 4.02 0 0 0 .66-.49.06.06 0 0 0-.01-.06l-.03-.02a2.34 2.34 0 0 0-1.47-.19c.1-.16.35-.2.74-.14.36.07.63.15.95.15.1 0 .2-.03.32-.1.1-.07.24-.14.4-.2a.16.16 0 0 1 .12 0c.03.01.06.04.08.07.1.24.17.51.2.8v.03a6.7 6.7 0 0 0-.1-.82.13.13 0 0 0-.07-.1c-.29-.15-.44.02-.67.15l-.02-.01v-.04l.48-.26a.17.17 0 0 1 .12-.01c.03 0 .07.03.1.06.25.36.26.71.3 1.23.02.09.08.14.13.21Z" fill="#CD9C80"/><path d="M6.56 7.51c-.24.28-.17.63-.12.95.01.03.03.06.06.08.03.02.06.03.1.02.25-.04.49-.12.72-.3.36-.27.75-.52 1.16-.75.07-.05.1-.1.09-.19l-.02-.06c-.01-.08-.06-.1-.13-.07l-.67.34c-.13.07-.41.12-.85.14-.02 0-.04 0-.04-.02-.01-.03 0-.05.02-.06a.66.66 0 0 0 .32-.22c.2.03.41.03.62-.03.06 0 .11-.02.15-.08l.31-.33a.17.17 0 0 1 .14-.05c.02 0 .05 0 .07.02.02 0 .04.02.06.04.15.2.26.47.31.8.01.06-.01.1-.07.12-.28.14-.6.22-.94.27-.3.03-.53.28-.82.53-.1.08-.17.08-.31.11-.27.06-.46-.02-.59-.23-.23-.41-.45-.78-.34-1.21.09-.35.15-.7.2-1.07a2.34 2.34 0 0 1 1.49.21.07.07 0 0 1 0 .06l-.01.03c-.2.17-.4.33-.64.46-.17.1-.25.26-.27.5Z" fill="#F8BEA5"/><path d="m13.41 7.62-.14-.34a1.05 1.05 0 0 0-.7-.79c-.02-.01-.03 0-.03.03l.04.31-.07-.28.01-.12c0-.04.02-.05.05-.04.25.05.47.14.64.27.03.02.04.01.03-.02a1.58 1.58 0 0 0-.09-.23.1.1 0 0 1 0-.04c0-.04 0-.04.02 0 .13.4.21.82.24 1.25Z" fill="#735041"/><path d="m9.85 6.52.06-.06c.1-.12.22-.15.37-.1l.44.13c.06.02.09.06.08.12l-.03.28c0 .07-.04.1-.11.06-.26-.1-.5-.18-.73-.23-.14-.03-.17-.1-.08-.2Z" fill="#B0846D"/><path d="M5.35 6.35a2.42 2.42 0 0 1 .06 1.06l.02-.8v-.02a.02.02 0 0 0-.03 0h-.02v.02c-.02.32-.02.59-.01.8a.72.72 0 0 0 .26.57.01.01 0 0 1 0 .01.01.01 0 0 1-.01 0 .02.02 0 0 1-.01 0l-.25-.16a.08.08 0 0 1-.04-.06L5.3 7.7l.02.38-.08-.26c-.01-.03-.02-.03-.01 0l.02.32c0 .08 0 .09-.02 0a3.1 3.1 0 0 1 .11-1.79Z" fill="#BD8365"/><path d="M13.27 7.28c-.06-.09-.48-.78-.68-.4a.13.13 0 0 1-.01-.05l-.04-.31c0-.03.01-.04.04-.03.38.15.6.41.69.8Z" fill="#6D422C"/><path d="m10.61 6.61-.01.03c-.03.05-.07.07-.13.07l-.48-.05c-.04 0-.06-.02-.05-.06 0-.02 0-.04.02-.06 0 0 .02-.02.05-.02.2-.03.37-.04.54-.02.07.01.1.05.06.11ZM12.51 6.55l.07.28.01.05c0 .04 0 .08.02.1l.07 1.09c0 .06-.01.06-.04 0a.8.8 0 0 1-.11-.32l-.13-1.3a.5.5 0 0 1 .11.1Z" fill="#CD9C80"/><path d="M12.53 7.75a.8.8 0 0 0 .1.33c.04.05.05.05.05-.01l-.07-1.08c.03-.25.14-.23.35.07.27.38.4.9.25 1.34l-.05.07a.16.16 0 0 1-.23-.04l-.21-.35h-.02c-.06.16.13.44.24.55l.04.06c-.01 0-.03 0-.07-.04-.23-.23-.34-.51-.57-.72a.21.21 0 0 0-.25-.02 34.2 34.2 0 0 1-.62.96c-.08.13-.1.12-.05-.02.13-.34.3-.72.52-1.13 0-.03.03-.04.06-.04.28.04.47.2.58.48a.02.02 0 0 0 .03.01h.03v-.01a.87.87 0 0 1-.11-.4Z" fill="#432A23"/><path d="M10.35 6.92c-.34.02-.6.12-.77.33-.08.09-.11.07-.08-.04a.86.86 0 0 1 .13-.27l-.01-.02h-.03c0-.01 0 0 0 0l-.18.34c0 .02-.02.03-.04.02h-.02a.9.9 0 0 1-.04-.36c0-.01 0-.03.02-.04a.07.07 0 0 1 .04-.01h.19c.02 0 .02 0 0 .02-.1.1-.18.2-.23.33v.02l.03.01.03-.01.09-.26a.08.08 0 0 1 .06-.06c.27-.06.54-.05.81 0Z" fill="#6D422C"/><path d="M7.82 7.34c-.2.06-.42.06-.62.03-.04-.01-.07-.04-.08-.07 0-.02-.02-.03-.05-.03h-.03l-.02.02v.03l-.05.04-.34.1c0-.1.06-.2.16-.3.2-.2.45-.3.73-.29.13 0 .23.05.28.13.07.09.07.2.02.34Z" fill="#584644"/><path d="M10.35 6.92c.19.09.32.21.4.38-.14-.02-.28-.01-.4.02-.17.07-.4.04-.69-.06h-.02a.22.22 0 0 1-.15.06l-.2-.04h.08c.02 0 .04 0 .04-.02l.17-.34h.04v.02a.86.86 0 0 0-.12.27c-.03.11 0 .13.08.04.17-.2.43-.31.77-.33Z" fill="#56392E"/><path d="M6.56 7.51c.11-.03.14-.05.07-.04l.34-.11c.02 0 .04-.02.04-.04l.01-.03.02-.02h.03c.03 0 .04 0 .05.03.01.03.04.06.08.07a.66.66 0 0 1-.32.22c-.02.01-.03.03-.02.06 0 .02.02.02.04.02.44-.02.72-.07.85-.14l.67-.34c.07-.03.12-.01.13.07l.02.06c.01.08-.02.14-.1.19-.4.23-.79.48-1.15.75-.23.18-.47.26-.72.3-.04 0-.07 0-.1-.02a.13.13 0 0 1-.06-.08c-.05-.32-.12-.67.12-.95Z" fill="#F7D3C0"/><path d="M10.35 7.32c.2-.02.4 0 .57.05v.01h-.01l-.01.02c0 .36-.1.67-.35.94l-.7.23c-.04.01-.06 0-.04-.04.07-.16.21-.2.43-.14l.01-.02v-.01l-.3-.1a1 1 0 0 0 .48-.16c.24-.19.21-.45-.08-.57l-.84-.14a.06.06 0 0 0-.05.02l-.02.02v.03c.05.22.12.44.23.66.05.1.06.27.03.52.28 0 .56-.05.84-.13-.29.12-.57.18-.84.16l-.03-.03c-.01-.02-.02-.02-.03 0-.03.04-.03.08 0 .1-.04-.02-.05-.07-.02-.12.1-.17.1-.31 0-.43-.08-.13-.16-.14-.23-.02h-.24a.44.44 0 0 0 .21-.08l.08-.03c.03 0 .04-.03.02-.05a.14.14 0 0 0-.07-.06l-.02-.01V7.9h.02c.07.06.14.16.19.18.05.03.05.02 0-.02-.24-.25-.32-.48-.26-.7.1-.01.15-.03.17-.05.05 0 .1-.02.15-.06a.02.02 0 0 1 .02 0c.29.1.52.13.69.06Z" fill="#E0B196"/><path d="m10.76 7.3.47.18c.02 0 .04.02.05.04v.06l-.2.58a.27.27 0 0 1-.02-.15c-.14.2-.31.38-.52.5-.28.08-.56.12-.84.13l.85-.3c.24-.27.36-.58.35-.94v-.01l.03-.01v-.01a1.76 1.76 0 0 0-.58-.05c.12-.03.26-.04.4-.02Z" fill="#CD9C80"/><path d="m10.35 7.53-.72.02c-.03 0-.04.02-.03.05.05.25.17.48.36.67l.29.09v.02c-.23-.06-.37-.01-.44.15-.02.04 0 .05.04.04l.7-.23-.85.3c.03-.25.02-.43-.03-.52a2.61 2.61 0 0 1-.22-.69l.01-.02.02-.02h.03l.84.14Z" fill="#F8BEA5"/><path d="M10.89 9.91c.04-.27.04-.54 0-.83-.02-.09 0-.21.06-.3.23-.34.46-.65.49-1.03 0-.13-.05-.26-.18-.37.53.35.02.99-.16 1.4a.94.94 0 0 0-.08.37c-.01.26-.05.52-.13.76Z" fill="#735041"/><path d="M9.96 8.27c-.19-.2-.3-.42-.36-.67 0-.03 0-.05.03-.05l.72-.02c.3.12.32.38.09.57a1 1 0 0 1-.48.17Z" fill="#F7D3C0"/><path d="M9.36 8.09a.44.44 0 0 1-.2.09l.06-.38c0-.03 0-.05-.02-.07a.19.19 0 0 0-.14-.07c-.06 0-.06.01-.02.04h.07l.05.01c.01.02 0 .04-.02.04-.05 0-.1.05-.15.15l-.02-.28c0-.05.02-.07.07-.04a.5.5 0 0 1 .28.31c0 .03 0 .05-.04.05h-.05c.06.02.1.05.11.11a.03.03 0 0 1 0 .03l-.02.01H9.3l-.09.01.15-.01Z" fill="#BD8365"/><path d="M13.87 7.7c.06.1.1.22.13.34 0 .03 0 .05-.02.07-.3.36-.25.75-.38 1.14l-.38 1.17c-.05.1-.11.29-.17.53-.06.24-.2.46-.42.66-.25.16-.38.37-.4.63 0 .02-.01.03-.04.02-.28-.09-.54-.34-.4-.64l.11.17a.1.1 0 0 0 .08.05h.05a.1.1 0 0 0 .04-.03c.05-.06.1-.13.13-.21.08-.23.1-.34.25-.5.02 0 .1-.1.26-.26.1-.1.18-.2.22-.3.1-.2.17-.43.2-.66l.24-.55.26-.99v-.08a.52.52 0 0 1 0-.25c0-.02.02-.04.05-.05.05-.01.06-.05.03-.1l-.07-.17.23.01Z" fill="#F8BEA5"/><path d="m9.15 8.18-.74.1a.85.85 0 0 0-.32.04.07.07 0 0 0-.04.06v.08c0 .03.03.04.06.05l1.09.1h-.01c-.11 0-.22-.02-.32-.03-.07-.01-.07-.02 0-.02.2-.02.4 0 .63.04.01 0 .02 0 .02-.02v-.02l-.01-.01-.77-.05a.04.04 0 0 1-.03-.02.04.04 0 0 1 0-.03c.04-.13.1-.21.2-.24a.44.44 0 0 0-.16.2.05.05 0 0 0 0 .04l.03.02.02.01.71.07.05-.01.03-.04c.04-.13.03-.23-.04-.3L9.5 8.2h-.03l-.1.05c-.04.01-.04 0-.02-.02a.2.2 0 0 0 .03-.05c.07-.12.15-.11.24.02.09.12.08.26 0 .43-.23.04-.42.04-.59.02-.18-.03-.18-.01-.02.06a5.93 5.93 0 0 0 .16.08v.03c0 .02-.01.02-.03.01l-.24-.12-1.02-.18c-.04 0-.07.01-.08.05l-.1.3a.07.07 0 0 0 0 .07l.02.02.04.01.31.04-.29.08h-.03a.05.05 0 0 1-.03-.02l-.1-.15c0-.02-.02-.02-.03 0l-.02.02v.01l.13.2c.01.04.04.05.07.05h.07a.3.3 0 0 1-.23-.06H7.6a.2.2 0 0 1-.03.02 3 3 0 0 0 .22.06c.05 0 .1 0 .18-.02l.45-.15-.73.39c-.03.01-.03.03-.01.05l.1.1-.4.23c-.03.01-.05 0-.06-.02a1.42 1.42 0 0 0-.28-.46.07.07 0 0 1-.01-.07c.15-.45.5-.81.86-1.11.09.03.18.05.28.05l.82-.31c.05-.1.1-.14.15-.15.03 0 .03-.02.02-.04 0-.01-.02-.02-.05-.01h-.07c-.04-.03-.04-.04.02-.04s.1.03.14.07c.02.02.02.04.02.07l-.07.38Z" fill="#906049"/><path d="m8.6 7.85-.05-.03.06.03c-.1.08-.2.1-.29.05-.03-.02-.03-.04-.02-.07.04-.13.15-.17.32-.12.03 0 .05.03.05.06 0 .05-.02.08-.06.08Z" fill="#F7D3C0"/><path d="M5.33 8.08c.04.04.07.1.09.17-.1.19-.27.36-.5.54L4.8 8.6c.15-.06.27-.14.38-.24a.1.1 0 0 0 .03-.07l-.02-.45c0 .12.02.21.05.3.02.07.03.07.02-.01l-.02-.32c0-.03 0-.03 0 0l.1.26Z" fill="#CD9C80"/><path d="M5.67 9.3a1 1 0 0 1-.27-.25.08.08 0 0 0-.06-.04.6.6 0 0 1-.28-.08.32.32 0 0 0-.1-.09 4.38 4.38 0 0 1-.04-.05c.23-.18.4-.35.5-.54.02-.1.04-.15.07-.19.06-.08.09-.07.09.03 0 .15.01.36.06.51a5.36 5.36 0 0 1 .12.66c-.01.03-.05.04-.09.04Z" fill="#6D422C"/><path d="M11.06 8c-.01.07 0 .12.01.16h.06v.04c-.12.25-.32.42-.6.52a3.47 3.47 0 0 1-1.58.2c.16.02.3.06.43.12a2.3 2.3 0 0 0-.96 0l-.45.16a.38.38 0 0 1-.18.02 3 3 0 0 1-.21-.07h.04a.3.3 0 0 0 .23.05h-.07a.08.08 0 0 1-.07-.04l-.13-.2v-.02l.02-.03h.04l.09.16.03.02h.03l.3-.08.84-.2c.03 0 .04-.03.03-.05a.11.11 0 0 0-.05-.06l.24.12c.02.01.03 0 .03-.01v-.03l-.01-.02a5.92 5.92 0 0 1-.15-.06c-.16-.07-.16-.1.02-.06.17.02.36.02.58-.02-.03.05-.02.1.02.13-.03-.03-.03-.07 0-.11 0-.02.02-.02.03 0 0 .02.02.03.03.03.27.02.55-.04.84-.16.2-.12.38-.3.52-.5Z" fill="#BD8365"/><path d="M9.15 8.18h.24a.2.2 0 0 1-.03.04c-.02.02-.02.03.02.02l.1-.05h.03l.04.01c.07.07.08.17.04.3 0 .02-.02.03-.03.04a.07.07 0 0 1-.05 0l-.7-.06h-.03l-.02-.03a.06.06 0 0 1-.01-.05.44.44 0 0 1 .16-.19l-.31.13c-.04.02-.08.03-.1.01a.2.2 0 0 1-.1-.08l.75-.1Z" fill="#6D422C"/><path d="m11.84 10.22.03-.06c.08-.25.13-.5.16-.78a836.74 836.74 0 0 1 .1-1.26l.03-.02a.07.07 0 0 1 .06 0c.17.14.32.3.44.5.07.12.2.17.33.25l.08.08.04.1c.04.3-.12.47-.37.7-.21.17-.38.38-.52.6-.14.23-.28.35-.54.39-.03 0-.04 0-.03-.03l.2-.47Z" fill="#432A23"/><path d="M7.89 8.16c-.37.3-.7.66-.86 1.11-.01.03 0 .05.01.07.12.12.2.28.28.46.01.03.03.03.06.02l.4-.23c.43.07.87.08 1.32.03.08.1.03.17-.14.23-.2.07-.52.14-.5.34v.01l-.02.01a.03.03 0 0 1-.02 0 .62.62 0 0 0-.16-.08c.08.04.17.1.27.1.3.02.61.03.92.02.03 0 .05.02.05.05v.06c-.24.23-.54.38-.9.42.31-.06.58-.2.78-.4.05-.04.04-.07-.03-.07h-.48a1.26 1.26 0 0 1-.81-.33c-.01 0-.02-.01-.02-.03v-.03l.02-.02.04-.02c.29-.02.56-.07.83-.14.12-.03.11-.05 0-.05l-1.2-.03c-.04 0-.06 0-.09.02a.14.14 0 0 0-.05.06c-.14.37-.12.6.07.7l-.18-.13a.07.07 0 0 1-.03-.07.4.4 0 0 0 0-.13c-.02-.04-.03-.04-.04 0a.56.56 0 0 0-.02.18c0 .03.02.05.04.07.34.25.73.4 1.17.42l-.8-.07c-.02 0-.03 0-.02.02l.02.02c.05.02.04.03 0 .03h-.04c-.24-.1-.6-.26-1.07-.49-.2-.1-.44-.12-.7-.07l-.36.11-.18-.1.48-.08c.02 0 .03 0 .04-.02l.01-.04a1 1 0 0 0-.43-.71c.4.05.66.24.97.45a.1.1 0 0 0 .13-.03.1.1 0 0 0 .02-.04l.08-.7A.1.1 0 0 1 6.79 9c.26-.17.49-.38.7-.62.07-.07.2-.14.4-.21Z" fill="#BD8365"/><path d="M8.91 8.21c-.1.03-.16.1-.2.24a.04.04 0 0 0 0 .03l.01.01h.02l.77.06s.01 0 0 0v.03l-.01.02a2.38 2.38 0 0 0-.63-.04c-.07 0-.07.01 0 .02a2.28 2.28 0 0 0 .33.03l-1.1-.1c-.02 0-.04-.02-.05-.05v-.08c0-.03.02-.05.04-.06.1-.03.2-.05.32-.05a.2.2 0 0 0 .08.08c.03.02.07.01.1-.01.1-.05.21-.1.32-.13Z" fill="#735041"/><path d="M8.91 8.7c.03.02.04.03.05.06.01.02 0 .04-.03.05l-.85.2-.31-.04h-.04a.08.08 0 0 1-.02-.03.07.07 0 0 1 0-.07l.1-.3c.01-.04.04-.05.08-.05l1.02.18Z" fill="#F7D3C0"/><path d="M5.67 9.3c0 .03.02.05.07.06v.01l-.26-.13c-.02-.01-.03 0-.02.02.03.05.06.09.1.12a1 1 0 0 1 .42.7v.05l-.05.02-.48.09c-.18-.4-.31-.85-.4-1.31a.6.6 0 0 0 .29.08c.02 0 .05.02.06.04a1 1 0 0 0 .27.25Z" fill="#F8BEA5"/><path d="M9.38 9.04c.16.09.38.12.67.1L10 9.2h-.94l.94.01c.12 0 .13.04.02.09-.28.13-.58.24-.92.31-.45.05-.89.04-1.32-.03l-.1-.1c-.02-.02-.02-.04 0-.05l.74-.4c.35-.06.66-.06.96 0Z" fill="#251D1E"/><path d="m10 9.21.05-.07.06.01c.04.01.04.02 0 .04a.32.32 0 0 1-.1.02Z" fill="#6D422C"/><path d="M9.13 10.8c-.11 0-.22.02-.33.05h-.02v-.03c.36-.1.64-.27.85-.53a.06.06 0 0 0 0-.07.06.06 0 0 0-.02-.03h-.04l-.23.05-.81-.01-.02-.02c0-.01 0-.02.02-.02l.76-.02.02-.01v-.02h-.52v-.01c.13-.02.27-.01.4-.02.2-.1.34-.2.45-.34.07-.08.06-.1-.04-.04-.2.12-.27.24-.58.26l.61-.34c.03-.01.05 0 .06.02.05.16-.1.25-.17.36l.01.02c.02 0 .03 0 .04-.02.2-.34.35-.56.73-.68l-.15.62c-.01.06 0 .07.05.03a.64.64 0 0 0 .17-.75c0-.04 0-.06.02-.08.13.3.1.57-.1.81-.1.13-.16.1-.15-.05a10.44 10.44 0 0 1 .03-.36h-.06l-.13.3c-.07.2.03.33.25.32a.1.1 0 0 0 .07-.03c.28-.3.42-.7.1-1 .05 0 .13.02.23.05.03 0 .05.02.07.04l.02.08c-.02.3-.14.58-.35.83a.17.17 0 0 1-.2.05l-.25-.08a.08.08 0 0 1-.04-.03.07.07 0 0 1-.01-.06c.07-.25.2-.46.38-.65l-.02-.01c-.2.2-.37.43-.52.66-.03.04-.04.07-.02.08l.04.03a.11.11 0 0 1 .01.1l-.02.04c-.18.21-.38.38-.59.51Z" fill="#B0846D"/><path d="M10.4 9.17c.32.3.18.69-.1.99a.1.1 0 0 1-.07.03c-.22.01-.31-.13-.25-.32l.13-.3h.06v.01l-.03.35c0 .16.04.18.15.05.2-.24.23-.51.1-.81Z" fill="#CD9C80"/><path d="M10.3 10.23c.1-.07.21-.14.26-.25.13-.28.28-.53.13-.79a.02.02 0 0 1 0-.01l.02-.01a.02.02 0 0 1 .02.01l.07.26c.05.24-.29.66-.45.82a.14.14 0 0 1-.08.04l-.55.09-.01-.03.01-.01c.17-.06.34-.1.51-.1.03 0 .06 0 .08-.02Z" fill="#B0846D"/><path d="m10.3 9.35.07-.1c.11.29.05.54-.17.75-.05.04-.06.03-.05-.03l.15-.62Z" fill="#E0B196"/><path d="m11.87 10.16-.03.06-.16.28-.05.02h-.02v-.03c.08-.33.16-.6.24-.83.05-.14.07-.13.08.01 0 .14-.02.3-.06.5Z" fill="#906049"/><path d="M8.87 10.32c.04.04.07.08.08.12 0 .03 0 .06-.03.07-.3.27-.92.1-1.26-.08-.19-.1-.21-.32-.07-.69a.14.14 0 0 1 .05-.06.15.15 0 0 1 .08-.02l1.2.03c.12 0 .13.02 0 .05a4.56 4.56 0 0 1-.86.16l-.02.02a.05.05 0 0 0 .02.06c.22.2.49.32.8.34Z" fill="#F8BEA5"/><path d="M9.2 10.1a.3.3 0 0 1-.18-.1c.3-.03.38-.15.58-.27.1-.06.11-.04.04.04-.11.13-.26.24-.44.34Z" fill="#735041"/><path d="m7.6 10.06.14-.2c.02-.03.05-.03.07 0 .23.29.54.47.95.54.07.02.07.04 0 .06-.44.17-.77.01-1.13-.28-.05-.04-.05-.08-.02-.12Z" fill="#F7D3C0"/><path d="M13.13 9.88c-.03.23-.1.45-.2.66-.04.1-.12.2-.22.3l-.26.27c-.14.15-.17.26-.25.49a.57.57 0 0 1-.13.2.1.1 0 0 1-.09.04l-.04-.02a.1.1 0 0 1-.04-.03l-.11-.17-.12-.24a.05.05 0 0 0-.03-.03.05.05 0 0 0-.04.01c-.02.01-.03.03-.03.05-.03.04-.03.05-.01.04h-.04l.01-.09c.05-.05.1-.07.15-.05.21.08.36 0 .5-.17.24-.28.52-.5.7-.82.1-.15.17-.3.25-.44Z" fill="#735041"/><path d="M7.76 10.77c-.06-.02-.1 0-.15-.01h.02c.5.14 1 .15 1.5.04-.55.2-1 .12-1.57.01L6 10.22c.25-.05.48-.03.7.07.46.23.82.39 1.06.48Z" fill="#B0846D"/><path d="M7.66 10.43c.34.18.96.35 1.26.08a.07.07 0 0 0 .03-.07.22.22 0 0 0-.08-.12h.48c.07 0 .08.02.03.07-.2.2-.47.33-.78.4a2.2 2.2 0 0 1-1.17-.43.1.1 0 0 1-.04-.07c0-.04 0-.1.02-.19 0-.03.02-.03.03 0a.4.4 0 0 1 0 .14c0 .03.02.05.04.07l.18.12Z" fill="#E0B196"/><path d="M9.13 10.8a3.01 3.01 0 0 1-1.52-.04l.15.01h.03c.05.01.06 0 .01-.02l-.02-.02c0-.02 0-.02.02-.02l.8.07c.36-.04.66-.19.9-.42l.05-.07c.01-.02 0-.04-.02-.04h-.2l.24-.06h.04l.03.03a.06.06 0 0 1 0 .07 1.54 1.54 0 0 1-.86.53v.02c0 .01 0 .02.02.01.1-.03.22-.05.33-.05Z" fill="#CD9C80"/><path d="m7.4 11.9-.41-.24c-.05-.02-.1-.02-.18 0l.02-.06c.07-.11.08-.2.03-.24l-.01-.03v-.04l.02-.03h.04c.56-.05 1.06-.13 1.46.2l.02.03-.01.04a1 1 0 0 1-.6.37h-.09c-.32-.13-.42-.13-.29 0Z" fill="#735041"/><path d="M11.53 11.36v.1l-.06.13c-.19.25-.2.51-.03.78.01.02 0 .03-.02.02-.28-.06-.5.5-.78.05l.02-.36a.09.09 0 0 0-.03-.07.1.1 0 0 0-.06-.03c-.3-.02-.6.03-.89.15l-.23.03c-.1 0-.1-.03 0-.06.45-.18.9-.4 1.35-.65.1-.05.33-.11.68-.18.03 0 .05 0 .05.04v.05Z" fill="#251D1E"/><path d="M11.79 11.62c-.14.3.12.55.4.64.03.01.04 0 .04-.02.02-.26.15-.47.4-.63l-.3.43a.08.08 0 0 0-.01.08l.02.04a1.4 1.4 0 0 0 1.6.64l-.06.18-.9-.46-.49-.16c-.27.08-.55-.03-.85-.33a.1.1 0 0 1-.03-.07l-.04-.55c0-.02.01-.04.03-.05a.05.05 0 0 1 .07.02l.12.24Z" fill="#E0B196"/><path d="m11.57 11.41.04.55c0 .03 0 .05.03.07.3.3.58.4.85.33l-.06.2c0 .03-.02.04-.05.04a.39.39 0 0 1-.24-.09c-.2-.16-.4-.28-.6-.34-.03-.01-.04-.03-.05-.06-.02-.22 0-.44.07-.66-.02.01-.02 0 .01-.04Z" fill="#B0846D"/><path d="M11.52 11.45h.04c-.07.22-.1.44-.07.66 0 .03.02.05.05.06.2.06.4.18.6.34.06.06.14.09.24.1.03 0 .05-.02.05-.04l.06-.2.48.15-.4-.07c-.02 0-.03 0-.03.02l.06.34c0 .02 0 .04-.03.03-.46-.06-.83-.3-1.17-.6a.1.1 0 0 1-.04-.06c-.02-.21.01-.4.1-.59l.06-.14Z" fill="#584644"/><path d="m6.83 11.6-.02.06-.11.27.02 1.4-.02.04-.03.03a.1.1 0 0 1-.08 0c-.02-.02-.04-.06-.04-.14-.03-.4-.16-.78-.38-1.16.17-.09.29-.21.34-.37a.05.05 0 0 0 0-.04l-.02-.02h-.03c-.05-.02-.1-.05-.13-.11l.3.15c.02.01.04 0 .07 0l.13-.11Z" fill="#333D46"/><path d="M11.47 11.6c-.1.18-.13.37-.1.58 0 .02 0 .05.03.06.34.3.7.54 1.17.6.03 0 .04 0 .03-.03l-.06-.34c0-.02 0-.03.03-.02l.4.07.9.46c-.04.07-.12.16-.25.26a1.98 1.98 0 0 0-1.12.1c-.32.1-.64.14-.96.12-.47-.02-.82-.03-1.21-.22-.03 0-.04-.03-.03-.06l.15-.43.19-.31c.28.44.5-.11.78-.05.02 0 .03 0 .02-.02a.64.64 0 0 1 .03-.78Z" fill="#242930"/><path d="m7.4 11.9.75.45c.03.01.04.04.03.06 0 .04-.04.08-.11.1a1.46 1.46 0 0 0-1.2-.5c-.03 0-.04.02-.05.05l-.06 1.27-.06-1.4.11-.27c.07-.02.13-.02.18 0l.41.24Z" fill="#BAADAF"/><path d="m6.7 11.93.06 1.4-.12.47c-.05.3-.03.58.06.83.01.03 0 .04-.03.04A6.07 6.07 0 0 1 4 13.13c.04-.06.1-.1.18-.13.5-.16 1-.39 1.52-.7.07-.04.23-.11.47-.2.22.38.35.77.38 1.16 0 .08.02.12.04.13a.1.1 0 0 0 .08 0c.02 0 .03-.01.03-.02l.02-.04-.02-1.4Z" fill="#545B65"/><path d="m10.64 12.44-.19.31-.13.18c.03-.58-.45-.7-.94-.68l.3-.12a2.13 2.13 0 0 1 .92-.14.1.1 0 0 1 .06.09l-.02.36Z" fill="#584644"/><path d="m8.07 12.52-.21.12-.13.08-.57.67c-.07.06-.12.14-.17.22-.03.05-.03.09 0 .13-.09.03-.2.05-.35.06l.12-.47.06-1.27c0-.03.02-.04.05-.04.48-.03.88.14 1.2.5Z" fill="#F2E7EB"/><path d="m10.32 12.93-.11.24c-.04.15-.1.23-.2.24-.04 0-.05-.02-.04-.07h.06l.02-.02.01-.03a.06.06 0 0 0-.02-.05l-.3-.25h-.02c-.05 0-.06.01-.03.05l-.23-.17-.58-.4v-.06l.05-.02.45-.14c.49-.02.97.1.94.68Z" fill="#746D6F"/><path d="M8.79 12.48a1.35 1.35 0 0 0 .28.47.06.06 0 0 1-.01.06l-.03.02c-.45.25-.48.63-.09 1.14l.25.53c.08.16.07.26-.04.3l-.25-.01c.03-.32.02-.68-.16-.93a1.27 1.27 0 0 1-.05-1.13.03.03 0 0 0-.01-.03h-.02a1.78 1.78 0 0 0-.76.07l-.17-.25.13-.08.4-.18a.16.16 0 0 1 .09-.02l.44.04Z" fill="#76201C"/><path d="m8.88 12.46.58.41.25.27.01.03v.03l-.03.02-.03.01h-.54a.1.1 0 0 0-.07.03.1.1 0 0 0-.03.06l-.08.85c-.4-.5-.36-.89.1-1.14l.02-.02v-.03a.06.06 0 0 0 0-.05c-.12-.13-.21-.28-.27-.45l.09-.02Z" fill="#4E1514"/><path d="m7.73 12.72.16.25.02-.02c-.07.09-.07.16 0 .22.09.06.07.1-.03.1-.12.01-.28.04-.4.1l-.36.19c-.03.01-.03 0-.02-.02l.06-.15.57-.67Z" fill="#735041"/><path d="m10.45 12.75-.15.43c0 .03 0 .05.03.06.39.2.74.2 1.21.22.32.02.64-.02.96-.12.46-.14.7-.18 1.12-.1A7.15 7.15 0 0 1 9.6 15c-.04-.03-.05-.06-.05-.09l.33-.94c.05-.05.09-.13.1-.25l.23-.54.1-.24.14-.18Z" fill="#333D46"/><path d="M8.73 14.04c-.06-.05-.1-.07-.14-.07-.04 0-.06.03-.07.09-.04.33.06.6-.09.93l-.66-.03c-.15 0-.19-.08-.1-.2.12-.17.2-.39.26-.66.08-.1.14-.2.17-.33a.1.1 0 0 1 0 .02c.01-.15.05-.28 0-.43a2.53 2.53 0 0 0-.2-.4 1.78 1.78 0 0 1 .78-.06.03.03 0 0 1 .01.03v.01c-.16.36-.14.72.04 1.1Z" fill="#BF3633"/><path d="m9.69 13.04.27.3c0 .05.01.07.05.07.1-.01.16-.09.2-.24l-.22.54c.11-.25-.07-.33-.54-.25a.12.12 0 0 0-.07.04c-.18.2-.28.4-.31.65-.02.15.08.38.12.55l-.25-.53.08-.85a.1.1 0 0 1 .03-.06.1.1 0 0 1 .07-.03H9.7l.03-.03a.05.05 0 0 0-.01-.06l-.25-.27.23.17Z" fill="#584644"/><path d="M7.9 12.95c.08.13.15.27.2.4.05.16.01.3 0 .44v-.02c.02-.1.01-.2-.02-.28a.08.08 0 0 0-.06-.04.62.62 0 0 0-.34 0 .2.2 0 0 1-.08 0 .42.42 0 0 0-.28.04.81.81 0 0 0-.32.25c-.04-.04-.04-.08-.01-.13.05-.08.1-.15.17-.22l-.06.15c-.01.03 0 .03.02.02l.35-.19c.13-.06.29-.09.4-.1.11 0 .13-.04.04-.1-.07-.06-.07-.13 0-.22Z" fill="#8C7777"/><path d="m9.96 13.34-.27-.3c-.03-.04-.02-.06.03-.06l.02.01.3.25a.06.06 0 0 1 .01.08l-.02.02h-.07Z" fill="#BAADAF"/><path d="M8.3 13.73a5.87 5.87 0 0 1 .12-.56h.07c.05.27.02.48-.08.65 0 .02-.02.02-.03.03h-.04l-.04-.01a.06.06 0 0 1-.01-.04.3.3 0 0 1 0-.07Z" fill="#E36A62"/><path d="M9.99 13.7c-.02.13-.06.21-.11.26.05-.14.07-.27.07-.4 0-.02-.02-.04-.04-.04-.52-.08-.8.48-.7.88.06.23.17.4.34.5 0 .03.01.06.05.09l-.45.01c.11-.04.12-.14.04-.3-.04-.17-.14-.4-.12-.55.03-.24.13-.46.3-.65a.12.12 0 0 1 .08-.04c.47-.08.65 0 .54.25Z" fill="#8C7777"/><path d="m9.88 13.96-.33.94a.77.77 0 0 1-.34-.5c-.1-.4.18-.96.7-.88.02 0 .04.02.04.04 0 .13-.03.26-.07.4Z" fill="#BAADAF"/><path d="m9.81 13.96-.27.77c-.03.1-.07.1-.1 0-.08-.2-.06-.46.06-.78 0-.02.02-.04.05-.06a.25.25 0 0 1 .18-.05c.08.01.1.05.08.12Z" fill="#F7D3C0"/><path d="M8.73 14.04v.02l.05.92-.35.01c.15-.33.05-.6.1-.93 0-.07.02-.1.06-.1.04 0 .08.03.14.08Z" fill="#E36A62"/><path d="M8.9 14.99h-.12l-.04-.93c.18.25.2.61.16.93Z" fill="#BF3633"/><defs><linearGradient id="a" x1="9" y1="0" x2="9" y2="18" gradientUnits="userSpaceOnUse"><stop stop-color="#52AECE"/><stop offset="1" stop-color="#9ACDE7"/></linearGradient></defs></svg>