<!-- by TradingView --><svg width="18" height="18" viewBox="0 0 18 18" xmlns="http://www.w3.org/2000/svg"><path fill="#0D0B20" d="M0 0h18v18H0z"/><path d="M12.67 12.4A4.98 4.98 0 0 0 9 4a5 5 0 1 0 2.9 9.07l-1.17-1.62a3 3 0 1 1 .59-.55l1.35 1.5Zm-2.53-1.76a2 2 0 0 1-2.64-.32l1.38-1.07.2.23h.22l.84 1.16Zm.5-.49a2 2 0 1 0-3.18.11c.22-.35.65-.95 1.2-1.5l-.07-.14.29-.3.2.07.46-.45c.07-.1.2-.34.19-.48.14.03.43.18.51.48-.21.05-.67.26-.77.68l.26.36v.18l.9 1Z" fill="url(#aobimvtr3)"/><defs><linearGradient id="aobimvtr3" x1="5.66" y1="5.51" x2="12.11" y2="13.12" gradientUnits="userSpaceOnUse"><stop stop-color="#EE9B2D"/><stop offset="1" stop-color="#CB1E20"/></linearGradient></defs></svg>