<!-- by TradingView --><svg width="18" height="18" viewBox="0 0 18 18" xmlns="http://www.w3.org/2000/svg"><path fill="#F0F3FA" d="M0 0h18v18H0z"/><path d="m12.86 5.18-.03 1.37L9.5 4.5c-.32-.2-.51-.29-.83-.08a4086.98 4086.98 0 0 0-3.54 2.24l-1.12.68c-.01-.56-.05-1.1.3-1.54.1-.14.3-.3.6-.48l3.31-2.07c.35-.21.68-.3 1-.23.17.04.44.17.8.39l2.84 1.77Z" fill="#1863BB"/><path d="M12.75 5.1c.52.3.98.57 1.17 1.08.05.14.08.3.08.46v4.54c0 .18-.03.36-.08.54-.12.36-.33.63-.63.81l-3.15 1.94-1-.62-.04-.06a.1.1 0 0 1 .04-.04c1.14-.72 2.2-1.45 3.35-2.18.17-.1.26-.28.26-.54V5.1Z" fill="#1475BF"/><path d="M5.25 6.56v4.39c0 .36.16.5.44.69 1.16.72 2.22 1.44 3.37 2.16h.04l.04.05 1 .62c-.43.3-.83.6-1.33.51a1.83 1.83 0 0 1-.6-.27l-3.43-2.14c-.34-.21-.56-.5-.69-.88-.05-.17-.09-.44-.09-.79V7.34l1.25-.78Z" fill="#1992EE"/><path d="M9 5.3v1L6.81 7.67l-.75-.46-.02-.07L9 5.31Z" fill="#1863BB"/><path d="m9 5.3 2.96 1.83v.04l-.02.02-.02.02-.75.44L9 6.3v-1Z" fill="#124E95"/><path d="M6.04 7.13c0 .03 0 .06.02.07.26.15.51.3.75.46L8.67 8.8l.02.03.01.03v.95a.01.01 0 0 1-.02 0L7 8.76v1.66l1.65 1.07a.1.1 0 0 1 .04.04l.01.05v.9c0 .03-.01.04-.03.03l-2.64-1.63-.02-.02-.01-.03V7.2c0-.02 0-.04.02-.05l.02-.02Z" fill="#1992EE"/><path d="m11.96 7.13.02.03.02.04V8.16l-.03.02-1.96 1.23-.02.02.01.02v1.64h-.01a.01.01 0 0 0 .02.01l1.97-1.24a.01.01 0 0 1 .01 0 .02.02 0 0 1 .01.02v.93c0 .03-.01.05-.04.06L9.01 12.7H9V9.02c0-.02 0-.04.02-.05l2.15-1.33.75-.44a.06.06 0 0 0 .03-.04l.01-.04Z" fill="#1475BF"/></svg>