<!-- by TradingView --><svg width="18" height="18" viewBox="0 0 18 18" xmlns="http://www.w3.org/2000/svg"><path fill="#181B1E" d="M0 0h18v18H0z"/><path fill-rule="evenodd" d="M9 4a5 5 0 1 1 0 10A5 5 0 0 1 9 4ZM5.8 7c.43 0 .74.3.74.67 0 .3-.12.44-.25.59A1 1 0 0 0 6 9c0 .68.32 1 1 1 .69 0 1-.32 1-1 0-.26-.13-.45-.26-.64-.14-.2-.28-.4-.28-.69 0-.38.3-.67.77-.67.46 0 .77.29.77.68 0 .31-.13.5-.26.7-.12.18-.24.35-.24.62 0 .28.13.49.26.7.12.19.24.38.24.63 0 .36-.25.67-.63.67-.26 0-.4-.1-.56-.22-.18-.13-.38-.28-.8-.28-.31 0-.51.13-.71.26-.19.12-.37.24-.63.24-.37 0-.67-.34-.67-.71 0-.3.13-.47.25-.66.13-.17.25-.35.25-.63 0-.39-.14-.57-.27-.74-.12-.15-.23-.3-.23-.58 0-.37.3-.68.8-.68Zm7.2 3.43c0-.35-.27-.57-.67-.57-.56 0-1-.43-1-.86 0-.38.36-.86.84-.86.45 0 .83-.14.83-.57 0-.28-.2-.57-.67-.57-.5 0-.66.37-.66.71 0 .4-.59.72-1 .72-.34 0-.67.28-.67.57 0 .3.33.57.67.57.4 0 1 .51 1 .86 0 .34.27.57.66.57.4 0 .67-.23.67-.57Z" fill="#FFC70E"/></svg>