<!-- by TradingView --><svg width="18" height="18" viewBox="0 0 18 18" xmlns="http://www.w3.org/2000/svg"><path fill="#F0F3FA" d="M0 0h18v18H0z"/><path d="M7.1 9.78c-.02-.58-.66-1.08-.98-1.26-.36-.24.22-.42.28-.59.67-.3.83.33 1 0 .08.23.34.69.65.66.4-.05.53-.34.62-.6.13-.38.69-.26.99-.26.08 0 1.29.82 2 1.28-.2.27-.63 1-.63 1.77l.02 2.43c-.27.24-1.01.72-1.77.72-1.2 0-1.97-.79-2.22-1.15v-1.5c.02-.26.05-.92.04-1.5Z" fill="#71D0BA"/><path d="M6.58 8.86c-.55.7-1.26.12-1.48-.53-.63.13-1.05-.8-1.1-1.2-.06-.69.4-1.64 1.35-1.9.19-.65 1.43-2.57 3.1-1.52.35-.8 2.7-1.16 2.89.24 1.93 0 2.35 1.66 1.79 2.52.94.25 1.3 2.11.14 2.31-.9.15-1.17.7-1.9.78h-.03c.12-.25.24-.44.33-.55-.69-.23-1.75-1.28-2.2-1.28h-.42c-.06 0-.29 0-.38.26-.09.26-.23.55-.62.6-.18.02-1.55-.4-1.62-.63-.05.15-.32.18-.4.33v.01c-.04.1.03.18.1.22.1.06.24.16.38.28l.07.06Z" fill="#26997A"/><ellipse cx="8.26" cy="10.86" rx=".29" ry=".36" fill="#F8F6F9"/><ellipse cx="10.16" cy="10.86" rx=".29" ry=".36" fill="#F8F6F9"/><ellipse cx="9.32" cy="12.62" rx=".57" ry=".19" fill="url(#auiwcfh4p)"/><path d="M6.93 13.28c.06.05.14.1.25.14-.03.2.04.7.5 1-.28 0-.63.21-.76.28l.01-1.42Z" fill="#5E5C5F"/><path d="M6.92 14.7c.01-.13.29-.21.43-.24l.32.24-.22.19c-.18-.01-.54-.07-.53-.2Z" fill="#0B1514"/><path d="m7.3 14.46.03.01c.11-.03.24-.05.35-.05a1.12 1.12 0 0 1 .02 0v-.03a13 13 0 0 0-.06-.7c.81.45 1.7.36 2.43.28.37-.04.7-.08.98-.03v.21c-.26.44-.8.85-2.05.85-1.13 0-1.58-.33-1.7-.54Z" fill="#352D37"/><path d="M11.05 13.94v-.75c-.27.24-.99.7-1.75.7-.74 0-1.3-.26-1.7-.57l.03.1.03.27c.82.45 1.7.36 2.43.28.36-.04.69-.07.96-.03Z" fill="#C9C9C9"/><path d="M9.1 13.77c.06 0 .1.02.14.06.08-.05.28-.16.44-.2.1-.02.18 0 .21.05.07.13.07.61-.14.62-.11 0-.39-.12-.5-.17a.19.19 0 0 1-.14.08.19.19 0 0 1-.15-.08c-.1.07-.26.14-.37.1-.2-.07-.13-.58.06-.58.13 0 .26.1.32.17a.19.19 0 0 1 .14-.05Z" fill="#D63B35"/><path d="M11.04 13.2c.15-.21.23-.67.25-.87l-.25-.08v.95Z" fill="#111516"/><path d="M11.05 13.2c.14-.21.21-.62.23-.83h.27l.2.17c0 .71-.31 1.27-.46 1.95-.08 0-.24-.07-.24-.34v-.96Z" fill="#4C4C4E"/><path d="M10.56 14.65c.06.1.21.22.49.08l.24-.18v-.06c-.08 0-.24-.07-.24-.34-.11.18-.26.36-.5.5Z" fill="#0C0C0C"/><path d="M12.4 11.63v-.05a3.7 3.7 0 0 0-.55-.56l.02.2-.03.32-.02.16c-.03.22.01.4.28.4.3 0 .33-.3.3-.47Z" fill="url(#buiwcfh4p)"/><path d="M6.77 11.4v1.3a.83.83 0 0 0-.67.16c-.04-.01-.1-.13-.09-.51.02-.37.33-.83.5-1.03v-.36c0-.07.06-.13.13-.13s.13.06.13.13v.43Z" fill="url(#cuiwcfh4p)"/><path d="M6.9 10.7a.14.14 0 0 0-.13.14v2.03c-.02.12.03.41.4.55-.02.2.05.7.53 1-.01-.17-.04-.58-.1-1a.5.5 0 0 0-.17-.31c-.13-.1-.25-.25-.25-.36 0-.12-.07-.71-.13-1.2v-.71a.14.14 0 0 0-.14-.14Z" fill="#434142"/><path d="M6.93 13.6a.85.85 0 0 1-.75-.8.85.85 0 0 1 .59-.1v.17c-.02.09 0 .26.16.4v.33Z" fill="url(#duiwcfh4p)"/><path d="m8.72 12.62.33-.94.56-.03.26.85 1.81-.13.14-1.67-2.07.17-.19.16-.6.03-.38-.14-1.67.14v.62l.43 1.01 1.38-.07Z" fill="#373C38"/><path d="M11.8 12.59c-.2.01-.2-.16-.24-.24 0 0 .26-.95.2-1.28-.06-.33-.26-.37-.32-.36.05.1.08.36-.08.39-.09 0-.12-.1-.13-.2-.01-.17.03-.38.25-.38.12 0 .23.14.28.24.08.13.1.3.11.46 0 .16-.04.32-.05.48-.03.22.01.4.28.4.32 0 .33-.35.3-.52l.12.2c.05.1-.03.32-.12.44a1 1 0 0 1-.6.37Z" fill="url(#euiwcfh4p)"/><path d="M8.55 10.93c-.03.16-.15.28-.3.28-.12 0-.23-.1-.27-.24l.57-.04ZM9.86 10.86c0 .2.13.35.3.35.16 0 .3-.16.3-.35l-.01-.05-.59.05Z" fill="#E84232"/><defs><linearGradient id="auiwcfh4p" x1="9.32" y1="12.48" x2="9.32" y2="12.85" gradientUnits="userSpaceOnUse"><stop stop-color="#68D0B4"/><stop offset=".59" stop-color="#258965"/></linearGradient><linearGradient id="buiwcfh4p" x1="12.11" y1="11.02" x2="12.11" y2="12.1" gradientUnits="userSpaceOnUse"><stop stop-color="#79CFB6"/><stop offset="1" stop-color="#47A78D"/></linearGradient><linearGradient id="cuiwcfh4p" x1="6.77" y1="11.95" x2="6.01" y2="11.95" gradientUnits="userSpaceOnUse"><stop stop-color="#191919"/><stop offset="1" stop-color="#505050"/></linearGradient><linearGradient id="duiwcfh4p" x1="6.76" y1="12.98" x2="6.36" y2="13.32" gradientUnits="userSpaceOnUse"><stop stop-color="#3DA284"/><stop offset="1" stop-color="#60CCB4"/></linearGradient><linearGradient id="euiwcfh4p" x1="11.49" y1="10.52" x2="11.61" y2="12.73" gradientUnits="userSpaceOnUse"><stop stop-color="#1C1D1D"/><stop offset=".7" stop-color="#2E2C2D"/><stop offset="1" stop-color="#292628"/></linearGradient></defs></svg>