<!-- by TradingView --><svg width="18" height="18" viewBox="0 0 18 18" xmlns="http://www.w3.org/2000/svg"><path fill="url(#a)" d="M0 0h18v18H0z"/><path d="M9.22 5.1A5.81 5.81 0 0 0 9 6.25a7.86 7.86 0 0 0-.1-.7 2.4 2.4 0 0 0-.43-1.06 1.29 1.29 0 0 0-.94-.45c.1-.01.18 0 .27-.02a.73.73 0 0 1 .35.02c.24.08.48.19.65.36a1.42 1.42 0 0 1 .38.7h.02a.1.1 0 0 0 .03.02Z" fill="#FF9000"/><path d="M7.52 4.03c.4.03.72.18.94.45.23.27.36.69.43 1.05a10.66 10.66 0 0 1 .12.71 10.5 10.5 0 0 1 .21-1.13c.04-.12.09-.24.16-.38.37-.76 1.24-.8 1.98-.58.85.26 1.55.73 2.1 1.4.4.53.72 1.28.43 1.9-.15.33-.5.5-.85.54a3 3 0 0 1-1.18-.2 2.89 2.89 0 0 1-.8-.42l-.11.26v.02a2.05 2.05 0 0 1 .89.98 6.7 6.7 0 0 1 .67 3.32 9.7 9.7 0 0 1-.06.22c-.06.22-.23.4-.4.55-.37.33-.82.61-1.35.87a4 4 0 0 1-2.05.38l-.48-.08-.27-.06a5.08 5.08 0 0 1-2.18-1.35.7.7 0 0 1-.14-.22 1.91 1.91 0 0 1-.12-.74c.03-.91.21-1.81.6-2.65.18-.42.41-.8.77-1.08l.2-.12.02-.02v-.02l-.12-.26a.01.01 0 0 0-.02 0c-.38.3-.86.49-1.35.58-.51.1-1.04.06-1.37-.36-.14-.22-.2-.47-.19-.74.09-1.2 1.23-2.15 2.3-2.59.4-.15.8-.25 1.22-.23Z"/><path d="M6.82 5.44c-.36.4-.73.84-1.14 1.16-.26.2-.58.35-.9.38a.66.66 0 0 1-.61-.27.06.06 0 0 1-.02-.05c.06-.38.27-.76.52-1.07.58-.7 1.5-1.28 2.44-1.42a1.38 1.38 0 0 1 1.15.28c-.6.12-1.07.57-1.44.99Zm2.93-1c.3-.27.72-.34 1.12-.28 1.22.18 2.63 1.18 2.95 2.35l.02.17v.02c-.18.24-.43.33-.76.26-.47-.1-.86-.4-1.2-.75-.2-.2-.41-.44-.65-.72-.38-.43-.88-.93-1.47-1.03h-.01v-.02Z" fill="#FFCB3A"/><path d="M8 6.04a1.81 1.81 0 0 0-.36.3c-.23.3-.45.58-.72.84-.34.33-.8.52-1.27.63-.51.12-1.1.12-1.4-.36-.01-.02 0-.02.02-.01.16.07.3.12.5.12.88.03 1.58-.67 2.08-1.28.33-.4.64-.82 1.1-1.1a.83.83 0 0 1 .69-.1v.02a8.94 8.94 0 0 1 .28 2.37H8.4l-.02-.01c0-.16-.02-.34-.04-.52-.02-.16-.13-.9-.33-.9Zm1.99.01c-.09.02-.14.14-.17.22a4.42 4.42 0 0 0-.2 1.2 6.63 6.63 0 0 0-.56-.01l.02-.6a8.68 8.68 0 0 1 .28-1.76c0-.02 0-.02.02-.02a.9.9 0 0 1 .46 0c.38.15.7.45.95.76.39.48.78.98 1.28 1.34.45.32 1.12.53 1.65.26.03-.01.04 0 .02.02-.4.71-1.61.36-2.17.07-.2-.1-.4-.24-.57-.43a5.4 5.4 0 0 1-.39-.43 2.9 2.9 0 0 0-.58-.62.05.05 0 0 0-.04 0Z" fill="#FFCB3A"/><path d="M10.8 7.64a154.13 154.13 0 0 0-1.08-.2c.02-.27.06-.55.1-.8a1.22 1.22 0 0 1 .16-.48.02.02 0 0 1 .02 0c.24.18.43.44.63.71a2.8 2.8 0 0 0 .35.4 1.45 1.45 0 0 0-.16.37.02.02 0 0 1-.02 0Zm-3.63-.01a1.25 1.25 0 0 0-.14-.34.04.04 0 0 1 0-.05c.12-.1.22-.22.31-.34l.43-.53a1.62 1.62 0 0 1 .23-.2h.02a.3.3 0 0 1 .06.1c.04.11.08.22.1.33.04.23.07.51.1.85 0 .01-.01.02-.03.02-.34.05-.72.08-1.07.17Z" fill="#fff"/><path d="M6.83 7.8a.07.07 0 0 0-.03-.03h-.03c-.3.15-.59.26-.89.33-.32.07-.67.12-.99.05-.22-.05-.4-.14-.55-.27a.44.44 0 0 1-.15-.29c.33.42.86.45 1.37.36a3.08 3.08 0 0 0 1.37-.58l.12.26v.02l-.01.02-.21.12Z" fill="#FF9000"/><path d="M8.14 8.22c-.04-.13-.2-.26-.3-.34h-.01a.02.02 0 0 1 0-.02 5.86 5.86 0 0 1 2.34.02c-.12.09-.21.18-.29.29-.04.05-.03.1.03.16l.24.22c.07.06.1.12.07.18-.16.43-.57.8-.99 1-.2.1-.4.05-.59-.07-.37-.22-.67-.5-.85-.89-.02-.04-.03-.1 0-.14.06-.11.18-.2.28-.28.03-.03.08-.08.07-.13Z" fill="#fff"/><path d="M12.35 10.79a1 1 0 0 0-.71.3 1.53 1.53 0 0 0-.3 1.66.8.8 0 0 0 .15.24c-.22.16-.5.32-.81.47a3.74 3.74 0 0 1-3.09.12A5.71 5.71 0 0 1 6.51 13a.95.95 0 0 0 .15-.25 1.5 1.5 0 0 0-.37-1.72.98.98 0 0 0-.64-.23l.05-.37h.02a4.91 4.91 0 0 1 1.14.1c-.03-.45.11-.96.64-1.05.32-.06.48.13.57.39a3.57 3.57 0 0 1 .2 1.1 3.78 3.78 0 0 0 1.46-.02c.01-.36.07-.71.18-1.04.1-.26.25-.5.58-.44a.7.7 0 0 1 .53.39 1.38 1.38 0 0 1 .13.68v.01h.02a4.59 4.59 0 0 1 1.13-.1l.05.35Z" fill="#FFCB3A"/><path d="M7.64 11.53c-.35.02-.56-.29-.6-.6-.04-.2-.04-.43 0-.7.03-.15.1-.29.18-.41a.4.4 0 0 1 .2-.15c.28-.13.42.04.5.28.14.36.2.72.14 1.1-.04.27-.1.46-.42.48Zm3.13-.16a.51.51 0 0 1-.47.16c-.22-.04-.3-.17-.33-.35-.08-.38-.05-.77.09-1.17.07-.21.2-.46.48-.36.1.04.18.09.23.14a1.2 1.2 0 0 1 .22.74c.02.3 0 .63-.22.84Z"/><path d="M7.86 10.5a.25.25 0 0 1-.44-.03c-.05-.12-.03-.35.08-.44.13-.11.27-.01.33.11.06.11.1.24.03.36Zm2.46.11c-.43-.04-.16-.74.13-.61.13.06.16.26.15.38a.25.25 0 0 1-.28.23Zm2.03.18c.07.45.12.96-.03 1.39a.73.73 0 0 1-.17.26c-.19.2-.4.38-.66.55a.87.87 0 0 1-.15-.24 1.53 1.53 0 0 1 .3-1.67 1 1 0 0 1 .71-.3ZM6.5 13a4.4 4.4 0 0 1-.53-.44c-.1-.1-.25-.24-.3-.39a1.8 1.8 0 0 1-.08-.5c0-.3.01-.59.06-.88.25 0 .46.08.64.23.5.43.6 1.15.37 1.72a.95.95 0 0 1-.15.25Z" fill="#fff"/><path d="M8.52 11.28c0-.08.07-.11.14-.13.22-.04.44-.04.66 0 .06.01.14.03.16.1.02.1-.06.19-.15.24a.63.63 0 0 1-.74-.06.17.17 0 0 1-.07-.15Zm-.23.9c.22.05.42-.01.6-.12a.2.2 0 0 1 .21 0c.2.1.46.2.68.09.09-.04.13-.12.2-.18.03-.03.07-.04.12-.02.02.02.03.05.02.1 0 0 0 .02-.02.03a.78.78 0 0 1-.93.12c-.2-.12-.28 0-.46.05-.33.1-.6.05-.82-.17l-.02-.03v-.03c0-.03.01-.06.04-.07.05-.02.09 0 .12.03.08.08.14.17.26.2Z"/><defs><linearGradient id="a" x1="0" y1="9" x2="18" y2="9" gradientUnits="userSpaceOnUse"><stop stop-color="#FFBC01"/><stop offset="1" stop-color="#FF9000"/></linearGradient></defs></svg>