<!-- by TradingView --><svg width="18" height="18" viewBox="0 0 18 18" xmlns="http://www.w3.org/2000/svg"><path fill="#F0F3FA" d="M0 0h18v18H0z"/><path d="M9 14.5a5.5 5.5 0 1 0 0-11 5.5 5.5 0 0 0 0 11Zm0 .5A6 6 0 1 0 9 3a6 6 0 0 0 0 12Z" fill="#8C8B8A"/><path d="M14.5 9a5.5 5.5 0 1 1-11 0 5.5 5.5 0 0 1 11 0Z" fill="url(#a43mcjhen)"/><path fill-rule="evenodd" d="m6.18 4.76 1.4.36c-.05.12-.27.35-.7.35-.42 0-.64-.47-.7-.7Zm4.23.36 1.41-.36c-.11.24-.42.71-.7.71-.28 0-.6-.23-.7-.35ZM7.24 6.18c-1.13 0-1.89 1.17-2.12 1.76a4.73 4.73 0 0 1 1.59-.88C6 7.48 5.82 9 5.82 9.7l1.06 1.4V9.36c0-.17 0-1.06 2.12-1.06 1.7 0 2.12.71 2.12 1.06v1.77l1.06-1.41c0-1.27-.6-2.3-.89-2.65.57 0 1.3.59 1.6.88-.15-1.27-1.6-1.7-2.3-1.76H9.35v.35c0 .14-.23.3-.35.35-.14 0-.3-.23-.35-.35v-.35H7.24ZM7.94 9c-.23 0-.7.07-.7.35h3.52c0-.11-.14-.35-.7-.35H7.94Zm2.12.88h-2.3c.24-.12.82-.35 1.24-.35.42 0 .88.23 1.06.35ZM9 13.58l-1.76-3.34h.7L9 12.35l1.06-2.11h.7L9 13.59Zm-1.94-6a2 2 0 0 1 .02-.04c.09-.1.48-.13.68-.13.24.18.82.53 1.24.53.42 0 1-.35 1.24-.53l.52.18a3.24 3.24 0 0 0-.7-1.06c-.12.35-.5 1.06-1.06 1.06s-.94-.7-1.06-1.06c-.4.13-.73.7-.86 1.01a.07.07 0 0 0-.02.05Z" fill="url(#b43mcjhen)"/><defs><linearGradient id="a43mcjhen" x1="12.94" y1="4.55" x2="6.06" y2="12.63" gradientUnits="userSpaceOnUse"><stop stop-color="#878585"/><stop offset="1" stop-color="#010101"/></linearGradient><linearGradient id="b43mcjhen" x1="10.94" y1="4.76" x2="3.18" y2="10.06" gradientUnits="userSpaceOnUse"><stop stop-color="#FDFCFD"/><stop offset="1" stop-color="#5C5B5A"/></linearGradient></defs></svg>