<!-- by TradingView --><svg width="18" height="18" viewBox="0 0 18 18" xmlns="http://www.w3.org/2000/svg"><path fill="#F0F3FA" d="M0 0h18v18H0z"/><path d="M9 3a6 6 0 1 1 0 12A6 6 0 0 1 9 3Z" fill="#181B1E"/><path d="M13.23 6s.38 1.38-1.56 2.21C9.73 9.04 9.07 9.7 9 9.96c-.07-.26-.77-.92-2.72-1.75C4.33 7.38 4.75 6 4.75 6s-.51.66-.51 1.65c0 1 .77 1.32 1.82 1.9 1.06.56 1.12 1 1.12 1a6.55 6.55 0 0 0-1.94-1.16A2 2 0 0 1 4 8.15c.07 1.5.88 2.15 2 2.54 1.13.39 1.36.94 1.36.94s-.39-.41-1.5-.78C4.72 10.48 4 10 4 10c.3 1.08 1 .91 2.29 1.63C7.57 12.34 7.35 13 7.35 13 8.98 10.72 7 9.23 7 9.23c.9.38 1.54 1.6 1.54 1.6v-.3c.24.34.46 1.07.46 1.07s.22-.73.46-1.08v.3S10.1 9.61 11 9.23c0 0-1.99 1.5-.35 3.77 0 0-.22-.66 1.06-1.37C13 10.9 13.7 11.08 14 10c0 0-.74.48-1.85.85-1.12.37-1.5.78-1.5.78s.22-.54 1.35-.94c1.12-.4 1.93-1.03 2-2.53 0 0-.2.81-1.24 1.24a6.5 6.5 0 0 0-1.94 1.16s.06-.44 1.12-1.01c1.05-.57 1.82-.9 1.82-1.89 0-1-.53-1.66-.53-1.66Z" fill="url(#ajspzga3i)"/><path d="M7.75 8.98s.4-1.58.67-1.96c0 0-.41-.2-.42-1.02 0 0 .35.5.72.5s.86-.08.97.55c0 0 .42.05.42.58 0 0-.1.03-.19-.07-.08-.1-.43-.07-.43.33s.76 1.09.76 1.09L8.99 10.2 7.75 8.98Z" fill="url(#bjspzga3i)"/><defs><linearGradient id="ajspzga3i" x1="9" y1="6" x2="9" y2="13" gradientUnits="userSpaceOnUse"><stop stop-color="#5F401F"/><stop offset=".14" stop-color="#FCE168"/><stop offset=".25" stop-color="#956429"/><stop offset=".31" stop-color="#956429"/><stop offset=".42" stop-color="#DBA54E"/><stop offset=".52" stop-color="#EBBB57"/><stop offset=".65" stop-color="#FBDE68"/><stop offset=".92" stop-color="#83572A"/></linearGradient><linearGradient id="bjspzga3i" x1="9" y1="6" x2="9" y2="10.2" gradientUnits="userSpaceOnUse"><stop stop-color="#5F401F"/><stop offset=".14" stop-color="#FCE168"/><stop offset=".25" stop-color="#956429"/><stop offset=".31" stop-color="#956429"/><stop offset=".42" stop-color="#DBA54E"/><stop offset=".52" stop-color="#EBBB57"/><stop offset=".65" stop-color="#FBDE68"/><stop offset=".92" stop-color="#83572A"/></linearGradient></defs></svg>