<!-- by TradingView --><svg width="18" height="18" viewBox="0 0 18 18" xmlns="http://www.w3.org/2000/svg"><path fill="url(#a)" d="M0 0h18v18H0z"/><path d="M9 4a24107.48 24107.48 0 0 1 0 3.92A17986.53 17986.53 0 0 1 5 5.7 6812.83 6812.83 0 0 1 9 4Z" fill="#00FF97"/><path d="M9 7.92V4H9A9239.68 9239.68 0 0 1 13 5.7L9 7.92Z" fill="#009B95"/><path d="M9 14.5v-.02a9577.8 9577.8 0 0 1 .02-3.9l.44-.46.03-.03.02-.02.05-.05a.5.5 0 0 1 .04-.05l.22-.23.05-.05.04-.04a22.92 22.92 0 0 1 .6-.62l.04-.05.04-.04a11.9 11.9 0 0 1 .23-.24l.04-.04.03-.03a4.57 4.57 0 0 1 .28-.3l.17-.17.01-.02a.54.54 0 0 1 .07-.07l.02-.02.1-.1c.01-.03.04-.05.07-.07l.05-.06.03-.04.2-.2.02-.03.02-.02.14-.14a1.61 1.61 0 0 0 .06-.07.82.82 0 0 0 .08-.07l.01-.02a683.84 683.84 0 0 0 .78-.81v4.66L9 14.5Z" fill="#006C68"/><path d="M9 8.63v1.96h-.01a228556.22 228556.22 0 0 1 330686.04-315592.32A228556.22 228556.22 0 0 1 5 6.42l3.98 2.2Z" fill="#38FFAE"/><path d="m12.99 6.42-.03.04-.74.77-.01.02a2.55 2.55 0 0 0-.13.13h-.01l-.14.15-.02.02-.02.03-.2.2-.03.04-.05.06-.08.07a2.7 2.7 0 0 1-.1.1l-.01.03a.55.55 0 0 0-.07.06l-.01.02a4.68 4.68 0 0 0-.34.35 4.6 4.6 0 0 0-.14.15l-.04.04a13.07 13.07 0 0 0-.27.28l-.05.05a1.49 1.49 0 0 0-.13.14 8.63 8.63 0 0 0-.5.52l-.05.05-.22.23a.5.5 0 0 0-.04.05l-.05.05-.02.02-.03.04a243.52 243.52 0 0 1-.46.47V8.62A39176.47 39176.47 0 0 1 13 6.41Z" fill="#009B95"/><path d="M9 10.6v.01a9576.78 9576.78 0 0 0 0 3.89 70556.2 70556.2 0 0 0-4-3.43V6.43a10.78 10.78 0 0 0 .06.05A200603.06 200603.06 0 0 0 9 10.6Z" fill="#00D67F"/><defs><linearGradient id="a" x1="3.35" y1="3.12" x2="21.9" y2="24.43" gradientUnits="userSpaceOnUse"><stop stop-color="#1A1E21"/><stop offset="1" stop-color="#06060A"/></linearGradient></defs></svg>