<!-- by TradingView --><svg width="18" height="18" viewBox="0 0 18 18" xmlns="http://www.w3.org/2000/svg"><path fill="#E6000C" d="M0 0h18v18H0z"/><path d="M13.84 13H4c0-.38.06-.75.17-1.12a11.89 11.89 0 0 1 .54-1.44c-.06-.18-.1-.33-.11-.43-.06-.56-.02-1.1.12-1.62a6.11 6.11 0 0 1 .35-1.03v-.01l-.01-.01c-.42-.14-.7-.43-.88-.86a2.26 2.26 0 0 1-.15-1.08c.05-.33.18-.62.4-.88.33-.4.75-.57 1.26-.5.25.02.51.12.71.29.11.09.28.25.43.33.05.03.08.04.13 0 .26-.12.55-.22.86-.29A8.43 8.43 0 0 1 9.9 4.2a2.93 2.93 0 0 1 1.48.57.1.1 0 0 0 .1 0c.32-.12.6-.24.9-.3.43-.07.8.02 1.12.28.47.38.62 1.02.4 1.6a3.48 3.48 0 0 1-.98 1.3v.04a14.4 14.4 0 0 1 .15.55c.1.33.13.68.12 1.05a9.28 9.28 0 0 1-.08 1.23l.16.33c.18.47.32.93.43 1.36.06.24.1.5.14.79Z"/><path d="M5.52 11.42a2.99 2.99 0 0 1-.59-.75 2.09 2.09 0 0 1-.25-.92 4.3 4.3 0 0 1 .22-1.59c.25-.74.57-1.44.96-2.11.2-.36.44-.67.72-.96.2-.2.4-.34.64-.44.21-.09.48-.16.8-.22.45-.08.93-.13 1.43-.13a3 3 0 0 1 2.08.73c.27.24.49.52.64.86a37.86 37.86 0 0 1 .86 2.65 2.74 2.74 0 0 1 .05.53 10.63 10.63 0 0 1-.12 1.54c-.09.43-.3.76-.66 1-.14.1-.28.18-.4.24-.75.36-1.52.63-2.3.82l-.46.03c-.73 0-1.46-.12-2.14-.37-.55-.2-1.05-.5-1.48-.91Z" fill="#fff"/><path d="M11.06 6.77a1.05 1.05 0 0 1-.4-.25l-.2.07c-.12.04-.2 0-.24-.14a.3.3 0 0 1 .05-.17c.17-.22.53-.14.75-.03.15.07.39.25.42.43.02.12-.06.2-.17.18a.7.7 0 0 1-.21-.09ZM9.32 7.23a.22.22 0 0 1-.18-.07l-.17-.18a.78.78 0 0 0-.44-.23 3.2 3.2 0 0 0-.6-.09 476.35 476.35 0 0 1-.44-.04.06.06 0 0 1-.03-.04v-.05c.03-.05.08-.07.11-.1.2-.14.43-.22.68-.21a12.13 12.13 0 0 1 .89.08c.13.12.23.27.3.45.08.18.1.4-.12.48Z"/><path d="M10.22 6.45c.04.13.12.18.23.14a7.74 7.74 0 0 0 .22-.06c.11.11.24.2.39.24 0 .06-.03.11-.08.14-.12.08-.2.13-.28.16a.9.9 0 0 1-.54.07l-.05-.03a.08.08 0 0 1-.02-.06c0-.04 0-.1.02-.17l.1-.43ZM8.53 6.75a.78.78 0 0 1 .44.23l.17.18c.05.05.1.07.18.07 0 .08-.01.14-.06.19-.03.03-.08.04-.15.04l-.17-.01c.02-.09 0-.14-.04-.18a.51.51 0 0 0-.18-.08l-.2-.44Z" fill="#C4C4C4"/><path d="M8.72 7.2c.06 0 .12.03.18.07.05.04.06.1.04.18-.15.1-.3.16-.47.16-.3.02-.59 0-.88-.06a.31.31 0 0 1-.12-.05l-.02-.02a.06.06 0 0 1 .02-.07 3.26 3.26 0 0 1 .95-.25c.09 0 .19 0 .3.03Z"/><path d="m8.7 7.44-.04-.14h.01a.44.44 0 0 1 .17.07.02.02 0 0 1 0 .01l-.01.01a.37.37 0 0 1-.12.06l-.01-.01Z" fill="#fff"/><path d="M10.74 7.3a.98.98 0 0 0-.4.14c0-.04.02-.07.06-.09.1-.06.22-.07.34-.04Z" fill="#C4C4C4"/><path d="M11.37 7.67c-.19.08-.38.11-.56.1a.48.48 0 0 1-.16-.04c-.11-.04-.22-.1-.31-.18l-.03-.05a.1.1 0 0 1 .03-.06.98.98 0 0 1 .4-.13c.2-.01.4.05.57.17.04.03.07.06.09.1 0 .03 0 .06-.03.09Z"/><path d="m8.15 7.5-.46-.04v-.02l.44-.13a.01.01 0 0 1 .01 0v.01l.02.17a.01.01 0 0 1 0 .01.01.01 0 0 1-.01 0ZM10.48 7.49l.16-.05a.01.01 0 0 1 .01 0v.16a.56.56 0 0 1-.18-.1.01.01 0 0 1 0-.01ZM11.26 7.6l-.09.02c-.01 0-.02 0-.02-.02a.32.32 0 0 1 .01-.05c0-.01.01-.02.02-.01.06.02.08.04.08.05Z" fill="#fff"/><path d="M11.37 7.67c.01.05-.01.1-.07.16a.84.84 0 0 1-.63-.05c-.01 0-.02-.02-.02-.05.05.03.1.04.16.04.18.01.37-.02.56-.1Z" fill="#C4C4C4"/><path d="M8.28 7.85c-.11 0-.23.01-.34-.02-.04 0-.05-.04-.04-.07l.02-.03h.03a1.74 1.74 0 0 0 .65-.03h.03l.02.03c.01.04 0 .07-.03.08-.11.03-.23.04-.34.04ZM10.67 7.78c.2.1.4.11.63.05l.03.06c0 .02-.01.04-.03.05a.8.8 0 0 1-.68-.07.05.05 0 0 1-.02-.03V7.8c.02-.02.04-.03.07-.02Z"/><path d="M6.98 9.8a.56.56 0 0 1-.5.06.86.86 0 0 1-.56-1c.01-.06.04-.11.07-.17l.25-.26a.79.79 0 0 1 .27-.16c.1-.04.2-.05.3-.03.18.04.32.14.42.31a2.17 2.17 0 0 1 .17.46c.04.36-.15.6-.42.78Z" fill="#FBC5D3"/><path d="M8.96 8.57c-.07.04-.09.11-.05.2.06.18.18.24.34.2l.26-.05a1 1 0 0 1 .2-.03c.11 0 .2.03.26.06l.24.13h.12c.03 0 .11 0 .24-.03.04 0 .08 0 .13.03s.06.07.03.13l-.07.05a.27.27 0 0 1-.08.03.57.57 0 0 0-.15.04c-.1.05-.2.17-.3.2a.61.61 0 0 1-.39.04c-.26-.07-.5-.17-.7-.3a.55.55 0 0 1-.24-.36.28.28 0 0 0-.03-.1h-.02L8.6 9a.09.09 0 0 1-.03.02h-.04l-.01-.01c-.03-.02-.03-.05-.01-.08l.25-.32c.1-.12.24-.22.4-.29h.03c.03.01.05.03.05.04 0 .03 0 .05-.03.06a.87.87 0 0 0-.24.14Z"/><path d="M12.74 8.8c.1.26.07.48-.06.68a.64.64 0 0 1-.2.2c-.16.1-.31.09-.5.04-.27-.07-.46-.25-.5-.54-.03-.31.1-.63.39-.74a.92.92 0 0 1 .42-.05c.22.04.37.18.45.41Z" fill="#FBC5D3"/><path d="M11.18 9.45a5.15 5.15 0 0 1-.4-.6.84.84 0 0 0-.2-.22c-.01-.06 0-.1.02-.12h.03l.03.01a3.47 3.47 0 0 1 .34.46l.24.35c.04.05.01.12-.06.12Z"/><path d="M8.96 8.57c-.01.1 0 .18.04.26.03.07.09.1.17.1a2.79 2.79 0 0 0 .46-.05 1.67 1.67 0 0 0 .18 0v.01h-.1a1 1 0 0 0-.2.03l-.26.06c-.16.03-.28-.03-.34-.2-.04-.1-.02-.17.05-.2ZM8.75 8.62l-.25.32c-.02.03-.02.06.01.08h.05c.01 0 .02 0 .03-.02l.16-.2h.02l.03.1-.15.12a.37.37 0 0 1-.26.1l-.04-.01a.07.07 0 0 1-.02-.05c0-.04 0-.08.03-.11.1-.14.23-.25.39-.33ZM11.18 9.45c-.1.03-.18-.01-.23-.11a4.6 4.6 0 0 0-.36-.71c.08.06.14.13.2.22l.18.3.21.3Z" fill="#C4C4C4"/><path d="m10.5 10.74-.14-.04c-.1-.03-.2-.03-.33-.04-.04 0-.1 0-.17-.02a3.12 3.12 0 0 0-.53-.03c-.08 0-.13.01-.14.03l-.1.09c-.13.05-.25-.05-.31-.16a.33.33 0 0 1-.04-.16c0-.28.18-.5.41-.6.17-.07.37-.1.6-.09.3.03.55.07.76.14.06.03.17.09.22.15.1.1.12.24.06.42-.05.19-.15.29-.28.31Z"/><path d="M9.3 10.24a.99.99 0 0 1 .44-.12c.2-.01.39 0 .56.06.05.01.1.04.14.08.03.02.03.04-.01.04l-.35.03a1.58 1.58 0 0 1-.78-.08Z" fill="#fff"/><path d="M10.5 10.74c-.02.05-.05.08-.1.09a.68.68 0 0 1-.34-.03l-.12-.02a10.1 10.1 0 0 0-.85-.05l.1-.09c.02-.02.06-.03.14-.03a3.12 3.12 0 0 1 .7.05c.12.01.22.01.33.04l.15.04Z" fill="#C4C4C4"/><path d="M9.89 11.28c.13.02.28.02.45.01l.07.01c.1.05.06.16 0 .23a.47.47 0 0 1-.23.13c-.31.08-.6.04-.89-.13a.68.68 0 0 1-.29-.35 2.72 2.72 0 0 1-.07-.24v-.02c.02-.02.03-.03.05-.02.01 0 .03 0 .04.03.05.05.1.1.18.13.27.12.5.19.69.22Z"/></svg>