<!-- by TradingView --><svg width="18" height="18" viewBox="0 0 18 18" xmlns="http://www.w3.org/2000/svg"><path fill="#F0F3FA" d="M0 0h18v18H0z"/><circle cx="9" cy="9" r="6" fill="url(#a)"/><circle cx="9" cy="9" r="5.65" fill="#250B4C"/><path d="M8.5 9.7h2.56L13 13h-1.5c-.65 0-1.24-.32-1.54-.82L8.5 9.71Z" fill="url(#b)"/><path d="M9.79 5H6v.67c0 .5.15.66.7.66h2.32c.62 0 .98.53.98 1.1v.27c0 .84-.68 1.3-1.26 1.9-.36.37-.31.66 1.35.63.76-.02 2.91-.87 2.91-2.8C13 5.52 10.78 5.01 9.79 5Z" fill="url(#c)"/><path d="M11.41 8.82c0-.84-1.03-1.44-1.44-1.62l.03.24v.26C10 8.26 9.42 9 8.8 9h-.34a.93.93 0 0 0-.96.82v1.5c0-.79 1.82-1.03 2.59-1.05.84-.02 1.32-.69 1.32-1.45Z" fill="url(#d)"/><path d="M6 8h1.5v5H6V8Z" fill="#fff" fill-opacity=".7"/><defs><linearGradient id="a" x1="15" y1="9" x2="3" y2="9" gradientUnits="userSpaceOnUse"><stop stop-color="#61D9D8"/><stop offset="1" stop-color="#F874F6"/></linearGradient><linearGradient id="b" x1="11.23" y1="10.06" x2="12.41" y2="13.12" gradientUnits="userSpaceOnUse"><stop stop-color="#3C04A5"/><stop offset="1" stop-color="#CE51F7"/></linearGradient><linearGradient id="c" x1="12.78" y1="8.16" x2="5.51" y2="8.16" gradientUnits="userSpaceOnUse"><stop stop-color="#FDDF0F"/><stop offset=".87" stop-color="#FF4A42"/></linearGradient><linearGradient id="d" x1="11.29" y1="8.46" x2="7.84" y2="10.79" gradientUnits="userSpaceOnUse"><stop stop-color="#F24256"/><stop offset="1" stop-color="#C33BE5"/></linearGradient></defs></svg>