<!-- by TradingView --><svg width="18" height="18" viewBox="0 0 18 18" xmlns="http://www.w3.org/2000/svg"><path fill="#F0F3FA" d="M0 0h18v18H0z"/><circle cx="9" cy="9" r="5" fill="#FFBA67"/><path d="M10.48 4.66c.2.49.13.9-.23 1.22-.1.1-.1.16-.07.28l.07.48c0 .02 0 .03-.03.04-.03 0-.06 0-.1-.02l-.1-.92c-.01-.07-.08-.13-.22-.18-.32-.2-.71-.19-1.13-.16-.52.05-.98.23-1.4.53-.15.1-.24.21-.26.32-.01.08.01.1.07.03.32-.38.77-.61 1.35-.71.07 0 .12 0 .16.02 0 .08-.03.12-.1.13-.28.03-.5.1-.64.2a.1.1 0 0 0-.04.05c0 .03-.02.05-.05.06-.1.03-.13.07-.11.11-.26.1-.46.28-.6.54-.04 0-.06.03-.05.08v.18l.01.03h.03l.05.01c.01 0 .02 0 .03.02-.02.05-.01.1.02.15l-.03.11a.3.3 0 0 1-.08.06c-.03.02-.05.01-.06-.02a.3.3 0 0 1-.03-.14c-.05-.14-.06-.3-.04-.45v-.07l-.07-.2a.09.09 0 0 0-.02-.04.1.1 0 0 0-.11-.03c-.3.13-.5.32-.64.56C6.02 7 6 7 6.01 6.9c0-.16.04-.31.11-.45.08-.18.05-.2-.1-.08-.12.1-.23.2-.33.31-.11.13-.18.29-.25.43-.02.05-.04.05-.04 0-.03-.66.37-1.28.9-1.68.1-.07.1-.09-.02-.05-.34.1-.65.26-.93.48.4-.7 1.13-1.06 1.88-1.24.06 0 .06-.02 0-.03-.21-.03-.43.04-.63.09-.18.04-.19.02-.03-.07.74-.4 1.51-.51 2.33-.33.03 0 .04 0 .04-.03v-.03a.04.04 0 0 0-.04-.03l-.5-.15c-.05-.02-.05-.03.01-.04.58-.07 1.29.13 1.66.54.1.11.13.1.08-.04a.87.87 0 0 0-.1-.22c-.14-.19-.11-.2.07-.06.13.1.25.25.36.43Z" fill="#060A0A"/><path d="M9.8 5.56a.06.06 0 0 0-.03.03.15.15 0 0 0-.1.04.06.06 0 0 0-.02.06l.1.79c0 .1-.04.17-.09.26h-.1a1.22 1.22 0 0 1-.06-.36c0-.13-.01-.24-.04-.34a1.17 1.17 0 0 1-.04-.52.1.1 0 0 0-.03-.08.11.11 0 0 0-.08-.04h-.64c.42-.03.8-.04 1.13.16Z" fill="#74A2A0"/><path d="M8.67 5.4h.64a.12.12 0 0 1 .08.04.1.1 0 0 1 .03.08c-.03.17-.01.34.04.52.03.1.04.2.04.34 0 .12.02.24.06.36h-.07a2.98 2.98 0 0 1-.15-1.2c0-.06-.03-.1-.13-.12a.1.1 0 0 0-.08.02.1.1 0 0 0-.03.03v.04l-.01.19-.05-.2c-.01-.03-.03-.05-.07-.04l-.54.1c-.57.1-1.03.34-1.35.72-.06.06-.08.05-.07-.03.02-.1.1-.22.26-.32.42-.3.89-.48 1.4-.53Z" fill="#CDC6C1"/><path d="M9.49 6.74c-.09.03-.18.03-.28-.02L9.08 5.7l.01-.2.01-.03a.1.1 0 0 1 .11-.05c.1.02.14.06.13.12-.03.42.02.82.15 1.2Z" fill="#FAF2E0"/><path d="m9.08 5.7.13 1.02-.45-.1a.18.18 0 0 0-.08-.02l-.1-1.01a.38.38 0 0 0-.15-.02l.54-.1c.04-.02.06 0 .07.03l.04.2Z" fill="#88B3AE"/><path d="M9.8 5.56c.14.05.2.1.21.18.04.3.08.61.1.92.01.04-.01.07-.06.07-.07 0-.1-.03-.12-.1l-.16-1.04.03-.03Z" fill="#fff"/><path d="M8.68 6.6a1.9 1.9 0 0 0-.52-.03.19.19 0 0 0-.12.06l-.11-.02c-.11.01-.23.04-.37.1.05-.07.1-.11.18-.14a.1.1 0 0 0 .05-.05c.08-.16.52-.21.7-.24.07 0 .1-.05.09-.11a.05.05 0 0 0-.02-.04.05.05 0 0 0-.04 0c-.01 0-.03 0-.05.03 0-.05-.02-.07-.05-.07-.22-.02-.43 0-.65.02l-.12.03c-.02-.04.02-.08.11-.11.03-.01.05-.03.05-.06a.1.1 0 0 1 .04-.05c.14-.1.36-.17.64-.2.07-.01.1-.05.1-.13l.09 1.01Z" fill="#2D565D"/><path d="m9.77 5.6.16 1.03c.03.07-.05.12-.23.14-.02 0-.03 0-.04-.03.05-.09.1-.16.08-.26-.02-.26-.05-.52-.1-.79l.03-.06a.16.16 0 0 1 .1-.04Z" fill="#0B1416"/><path d="m8.47 6.16-.45.04c.07-.08-.01-.11-.25-.1.22-.02.43-.03.65-.01.03 0 .05.02.05.07Z" fill="#88B3AE"/><path d="M7.77 6.1c.24-.01.32.02.25.1-.35.1-.65.3-.9.57a.16.16 0 0 0-.04.15c0 .01 0 .02-.02.02-.01 0-.02 0-.02-.02 0-.08 0-.16.02-.24.13-.26.33-.44.59-.54l.12-.03Z" fill="#FAF2E0"/><path d="M7.56 6.7c-.13.07-.43.28-.42.45A.17.17 0 0 1 7.12 7a.02.02 0 0 0 0-.02.02.02 0 0 0-.03-.01h-.05l-.03-.01v-.03L7 6.76c0-.05.01-.07.06-.08a.71.71 0 0 0-.02.24l.02.02c.02 0 .02-.01.02-.02-.01-.06 0-.1.04-.15.25-.27.55-.46.9-.57l.45-.04.05-.04a.05.05 0 0 1 .04.01l.01.02v.02c.02.06-.01.1-.08.11-.18.03-.62.08-.7.24a.1.1 0 0 1-.05.05.41.41 0 0 0-.18.14Z" fill="#0B1416"/><path d="m7.93 6.61-.01.08-.43.17-.23.2a.07.07 0 0 0-.03.06l.03.07-.13.12a.15.15 0 0 1-.02-.05l.03-.11c0-.17.29-.38.42-.44.14-.06.26-.09.37-.1Z" fill="#C9C5A7"/><path d="M8.04 6.63c0 .01 0 .02.02.03.02.02.03.02.05.02l.65-.03v-.03l.45.1c.1.05.2.05.28.02h.17c0 .02.02.03.04.03 0 .06.03.08.07.08a.26.26 0 0 0-.05.18v.02l-.03.01a.07.07 0 0 1-.07.01.42.42 0 0 0-.21-.02c-.03 0-.05 0-.07-.02a.43.43 0 0 1-.08-.12c-.25-.08-.4-.13-.48-.14a2 2 0 0 0-.92.1.03.03 0 0 0-.02.02v.02c-.05.1-.1.15-.19.12-.02-.08-.03-.17.06-.2a4.7 4.7 0 0 1 .28-.13v-.02H7.92v-.07l.12.02Z" fill="#AB8670"/><path d="m7.98 6.67-.06.02-.43.17c.06.17-.06.23-.2.31l-.03.02-.13.12.01.01-.33.34c-.08.07-.16.1-.24.06-.1.22-.12.47-.05.75 0 .05.04.07.09.06l.04-.01c.06-.02.09-.05.08-.11l-.07-.38c0-.03.01-.05.04-.06L7 7.9l.09-.08a.61.61 0 0 1 .26-.26l.3-.36c.05 0 .09 0 .1-.04.01-.02 0-.04-.01-.06l-.08-.06c-.02-.08-.03-.17.06-.2l.27-.11a.03.03 0 0 0 0-.05Zm1.68.45c.04.02.06.05.06.07 0 .1.01.18.03.24.09.35.3.52.65.5.03 0 .05.01.05.04l.01.04v.02l-.01.01.16 1.5c0 .02.03.04.06.04h.49c.44.07.77.3 1 .67l.14.39c0 .02.02.04.04.06l.5.33.37.75c.2.18.3.37.3.58 0 .17-.06.3-.2.38l-.25.06a.62.62 0 0 0-.25.12c-.34.15-.7.2-1.07.12l-.76-.3a.04.04 0 0 0-.04 0l-.01.02v.02l.08.72c0 .08.01.16.04.24a.1.1 0 0 1 0 .07.5.5 0 0 1-.1.16L9.07 14l-1.12-.03c-.14 0-.24-.04-.3-.1-.06-.07-.1-.18-.1-.31a1 1 0 0 0-.05-.57l-.02-.02h-.03c-.94-.01-1.5-.45-1.66-1.33-.02-.1-.07-.15-.12-.2a.44.44 0 0 1-.1-.11 1.3 1.3 0 0 1 .32-1.65c.3-.24.69-.35 1.15-.32l.05-.01a.06.06 0 0 0 .02-.04.7.7 0 0 0-.02-.42c-.03-.09-.03-.17-.02-.25v-.18a9.87 9.87 0 0 1-.08-.57l.09-.08.06.09c.79.13 1.86 0 2.43-.73 0-.04.03-.06.1-.05Z" fill="#060A0A"/><path d="M11.05 7.58c-.08.2-.29.27-.62.24-.25-.03-.33-.02-.47-.19l.43-.37.1-.13.22-.24a.05.05 0 0 0-.01-.08h-.03c-.28 0-.55.04-.8.12l-.08.1h-.07a.26.26 0 0 1 .05-.18c.08 0 .16-.04.22-.09a.1.1 0 0 1 .07-.02l.2.02a.2.2 0 0 0 .08 0 .84.84 0 0 1 .63.03l.11.13a.06.06 0 0 0 .04.02.06.06 0 0 0 .05-.02c.06-.06.07-.1.02-.13a.54.54 0 0 0-.18-.06V6.7c.15-.05.24 0 .3.12a.1.1 0 0 1-.01.09.52.52 0 0 1-.13.16.1.1 0 0 0-.04.06l-.08.44Z" fill="#060A0A"/><path d="M11.01 6.73c.07 0 .13.03.18.06.05.03.04.07-.02.13l-.02.02a.06.06 0 0 1-.07-.02l-.1-.13c-.01-.03 0-.05.03-.06Z" fill="#C9C5A7"/><path d="M9.26 6.91c-.02.33-.05.54-.1.65-.17.34-.7.37-1 .23a.08.08 0 0 1-.02-.13l.43-.4c.11-.08.19-.14.23-.19a.26.26 0 0 0 .06-.2 2.96 2.96 0 0 0-.64-.02.6.6 0 0 0-.28.1l-.02.02-.03.02c-.02.02-.04.01-.05-.02V6.9s0-.02.02-.02a2 2 0 0 1 .92-.1c.07.01.23.06.48.14Z" fill="#060A0A"/><path d="M8.86 6.87c-.04.15-.14.24-.3.26-.03 0-.04 0-.06-.02v-.02a.1.1 0 0 0-.07-.05 1.32 1.32 0 0 0-.45-.06h-.03v-.03a.6.6 0 0 1 .27-.1c.18-.02.4-.01.64.02Z" fill="#C9C5A7"/><path d="M7.5 6.86c.05.18-.1.25-.24.33a.2.2 0 0 1-.03-.07c0-.03 0-.05.03-.07l.23-.19Z" fill="#855C3E"/><path d="m8.57 7.27-.6-.07c-.04 0-.05-.02-.06-.04a.37.37 0 0 1 0-.2h.03l.01.01c0 .01.02.02.03.01.14 0 .3.02.45.06a.1.1 0 0 1 .06.05l.01.02c.02.02.03.03.06.02.16-.02.26-.11.3-.26 0 .08-.02.15-.06.2l-.23.2Z" fill="#3D6F6D"/><path d="M7.83 6.91v.06c.02.03.04.04.06.02l.03-.02a.37.37 0 0 0 0 .19c0 .02.01.04.04.04l.61.07-.43.4a.08.08 0 0 0 0 .1s0 .02.02.02c.3.14.83.11 1-.23.05-.1.08-.32.1-.65.02.05.05.1.08.12.02.02.04.03.07.02.07-.01.14 0 .21.02.03.01.05 0 .07 0l.02-.02c0 .03-.01.06-.05.07-.06 0-.1 0-.1.05l.02.3-.04-.26c0-.02-.01-.04-.04-.04-.05 0-.09.03-.1.08-.04.13-.06.25-.08.37l-.07.18a.1.1 0 0 1-.05.05l-.06.04-.18.13-.02-.08c0-.03-.03-.04-.06-.03l-.98.23c.03-.06.04-.1.02-.13 0-.02-.03-.03-.06-.02a.92.92 0 0 0-.57.46l-.06.12-.06-.6a.14.14 0 0 0-.03-.07l-.06-.09a.61.61 0 0 1 .26-.26.9.9 0 0 0 .27-.13c.08-.06.1-.16.03-.23.05 0 .09 0 .1-.04.01-.02 0-.04-.01-.06l-.08-.06c.09.03.14-.01.18-.12Z" fill="#17363C"/><path d="m9.86 6.93.5.02c.02 0 .04.02.04.04 0 .07.03.12.09.14l-.1.13-.6-.23.07-.1Z" fill="#3D6F6D"/><path d="m9.8 7.03.59.23-.43.37c-.08-.14-.15-.2-.2-.2a.82.82 0 0 1-.04-.24c0-.02-.02-.05-.06-.07.04-.01.06-.04.05-.07l.01-.02h.07Z" fill="#1A454B"/><path d="m7.1 7.26.03.05.01.01-.33.34c-.08.07-.16.1-.24.06l.29-.29c.05-.04.07-.13.08-.27 0 .06 0 .1.03.14.01.03.03.04.06.02a.3.3 0 0 0 .08-.06Z" fill="#855C3E"/><path d="M9.58 7.48a.7.7 0 0 0 .15.36l.02.15c0 .03 0 .05-.02.07-.1.09-.21.11-.34.08l-.07-.52c.02-.12.04-.24.08-.37.01-.05.05-.08.1-.08.03 0 .04.02.04.04l.04.27Z" fill="#FAF2E0"/><path d="M7.64 7.19c.07.07.05.17-.03.23a.9.9 0 0 1-.27.13l.3-.36Z" fill="#C9C5A7"/><path d="M9.96 7.63c.14.17.22.16.46.19.34.03.55-.05.63-.24.06.13.04.23-.07.3a.97.97 0 0 1-.52.13v-.04c-.01-.03-.03-.04-.06-.04-.35.02-.56-.15-.65-.5.06 0 .13.06.2.2Z" fill="#413836"/><path d="m9.32 7.62.07.52a.52.52 0 0 1-.35-.05l-.02-.02A.05.05 0 0 1 9.04 8a.32.32 0 0 0 .1-.1l.06-.05a.1.1 0 0 0 .05-.05l.07-.18Z" fill="#88B3AE"/><path d="m10.01 8.22-.03.01v-.05l-.05-.02a.23.23 0 0 0-.1.03h-.05c-.02-.02-.04-.02-.08-.01a1 1 0 0 1-.69 0c-.03-.07-.07-.09-.13-.04a.06.06 0 0 0-.03.07v.08a.1.1 0 0 1-.03.05.1.1 0 0 1-.06.02l-.85.08c.11-.13.24-.25.42-.27a31.58 31.58 0 0 0 .56-.1l.07-.05.18-.13a.32.32 0 0 1-.1.11l-.02.02a.05.05 0 0 0 0 .05l.02.02c.1.05.22.07.35.05.13.03.24 0 .34-.08a.07.07 0 0 0 .02-.07l-.02-.15c.15.1.34.16.28.38Z" fill="#1A454B"/><path d="m7.9 8.14-.56.4c-.04 0-.05-.04-.05-.09.14-.24.33-.4.57-.46.03-.01.05 0 .06.02.02.03 0 .07-.02.13Z" fill="#FAF2E0"/><path d="M9.01 8.17c-.05-.01-.08-.02-.1 0a.08.08 0 0 0 0 .06s0 .02.02.03l.02.02c.29.16.55.16.8-.01a.07.07 0 0 0 .03-.05V8.2h.04c-.02.13-.1.21-.26.25l-.17.04c-.17 0-.3-.1-.46-.13a.07.07 0 0 0-.06.02.07.07 0 0 0-.02.07c.1.37.15.76.15 1.15a1.2 1.2 0 0 1-.18-.07.93.93 0 0 0-.48-.07c-.04 0-.07-.01-.1-.03l-.02-.02a.05.05 0 0 1 .01-.05l.02-.02c.16-.05.32-.09.47-.1.04-.01.08-.03.1-.06a.12.12 0 0 0 .04-.05c.01-.04 0-.06-.04-.06l-.17-.02.13-.03v-.03c0-.01 0-.02-.02-.02l-.87.08c.1-.2.2-.3.32-.33a64.36 64.36 0 0 0 .58-.13l.02-.04v-.02c0-.01 0-.02-.02-.02l-.6.06a.21.21 0 0 0 .07-.06c.02-.03.02-.04-.02-.04a.99.99 0 0 0-.38.03c-.02-.03 0-.05.05-.05l.85-.08a.1.1 0 0 0 .06-.02.1.1 0 0 0 .03-.05v-.08c0-.03 0-.05.03-.07.06-.05.1-.04.13.03Z" fill="#2D565D"/><path d="M9.98 8.23c-.09.08-.15.15-.15.27.01.39.05.76.12 1.14l-.22.16H9.7c-.05.02-.1.01-.12 0 .05 0 .09-.02.12-.05.02-.03.03-.06.02-.11-.03-.4-.09-.8-.16-1.2.16-.04.24-.12.26-.25a.23.23 0 0 1 .11-.03c.02 0 .04 0 .05.02v.05Z" fill="#C9C5A7"/><path d="m10.01 8.22.05.47.01.02.02.02.01.02.08.76c0 .03 0 .05-.03.06l-.2.07c-.07-.38-.11-.75-.12-1.14 0-.12.06-.2.15-.27h.03Z" fill="#517E80"/><path d="m9.39 8.48.15 1.26.02.04.01.02c.04.01.08.02.13 0-.06.07-.18.06-.35 0L9 9.59a4.6 4.6 0 0 0-.15-1.19s0-.02.02-.03l.02-.01h.04c.17.02.3.12.46.12Z" fill="#88B3AE"/><path d="M8.2 8.56c-.34.11-.62.3-.85.56h-.02c-.02 0-.03 0-.03-.02v-.07c.1-.25.28-.43.56-.54a.99.99 0 0 1 .38-.03c.04 0 .04.01.02.04a.21.21 0 0 1-.07.06ZM9.56 8.44c.07.4.13.8.16 1.2 0 .05 0 .08-.03.1a.16.16 0 0 1-.12.06l-.01-.02a.07.07 0 0 1-.02-.04L9.4 8.48l.17-.04ZM8.65 9.04c-.37.03-.7.16-1.01.4a.18.18 0 0 1-.14.03.08.08 0 0 1-.06-.04c-.02-.02-.01-.04 0-.06.15-.15.3-.26.45-.33l.87-.08c.01 0 .02 0 .02.02v.03l-.13.03Z" fill="#FAF2E0"/><path d="M9.73 10.32v.03c0 .02-.02.03-.04.02a1.16 1.16 0 0 0-.86-.1c-.15-.02-.3-.04-.45-.04-.03 0-.06 0-.08-.02a.38.38 0 0 0-.06-.03c-.03-.02-.03-.04 0-.05a.34.34 0 0 1 .18-.07c.16 0 .31-.03.46-.08.08-.02.08-.05 0-.06a3.84 3.84 0 0 0-1.23-.07.65.65 0 0 0-.4-.03c-.07.03-.14.1-.22.12-.04 0-.06 0-.05-.04l-.01-.07c-.02-.02-.04-.03-.07-.02a.75.75 0 0 0-.29.2c-.12.15-.17.13-.13-.06 0-.03.02-.06.04-.09.07-.11.04-.14-.09-.1a.96.96 0 0 0-.26.16c-.02.02-.05.02-.08 0a.26.26 0 0 1-.07-.19 1.45 1.45 0 0 1 1.61-.02c.03.01.05.02.08 0 .2-.07.43-.1.68-.1.23 0 .44.04.62.13.25.12.47.28.64.47l.08.11Z" fill="#F6F4ED"/><path d="M11.02 9.7a.54.54 0 0 0-.1.02c-.04.02-.04.04 0 .06l.13.05c-.06 0-.1 0-.15.02-.02.01-.03.03-.02.05.06.11.08.23.07.37-.02-.08-.08-.12-.18-.13-.16-.02-.29-.02-.38 0a2.12 2.12 0 0 1-.64-.28c.26-.18.45-.18.72-.15l.23-.01h.32Z" fill="#ABB9AC"/><path d="M11.02 9.7c.35.01.66.18.93.5.1.12.16.24.2.37 0 .07-.01.09-.08.04l-.03-.03a.36.36 0 0 0-.1-.23 1.64 1.64 0 0 0-.9-.52.55.55 0 0 1-.12-.05c-.04-.02-.04-.04 0-.06l.1-.02Z" fill="#FAF2E0"/><path d="M6.02 9.73c0 .08.03.14.07.19.03.02.06.02.08 0a.96.96 0 0 1 .26-.15c.13-.05.16-.02.09.1a.26.26 0 0 0-.04.08c-.04.19 0 .2.13.06a.75.75 0 0 1 .3-.2c.02 0 .04 0 .06.02 0 .02.01.04 0 .07 0 .03.02.05.06.04.08-.03.15-.1.23-.12a.65.65 0 0 1 .39.03 3.84 3.84 0 0 1 1.22.07c.09.01.09.04 0 .06-.14.05-.29.08-.45.08a.34.34 0 0 0-.18.07c-.03.01-.03.03 0 .05l.06.03.07.02c.16 0 .31.02.46.04h-.65a.07.07 0 0 1-.02-.04c-.15-.29-.6-.33-.92-.32a.1.1 0 0 0-.08.03l-.26.3a.04.04 0 0 1-.03.01h-.02l-.02-.02-.1-.18c-.02-.03-.04-.03-.06 0l-.25.23a.05.05 0 0 1-.03.01c-.02 0-.04-.01-.05-.04v-.03l.08-.25c.04-.15 0-.18-.12-.08a.34.34 0 0 1-.18.08c-.03 0-.06 0-.08-.02-.13-.07-.15-.06-.07.04a.49.49 0 0 0-.2.18h-.02l-.02.01c-.01 0-.02 0-.02-.02v-.03a.93.93 0 0 1 .3-.4Z" fill="#ABB9AC"/><path d="M9.7 9.8h.03c0 .02 0 .04.02.06.2.12.4.21.64.27l-.1.03c-.1.05-.1.07.01.08l.65.03a.64.64 0 0 0-.07-.37c-.01-.02 0-.04.02-.05a.38.38 0 0 1 .15-.02c.34.08.64.25.88.52.07.08.1.15.1.23l-.13-.01a.27.27 0 0 1-.15-.05c-1.44-.85.14-.13-.52.3a1 1 0 0 1-.4.16 1.08 1.08 0 0 0-.55-.17 1.7 1.7 0 0 1-.25-.25l-.07-.03a2.07 2.07 0 0 0-.61-.73c.17.06.29.07.35 0ZM8.83 10.27c.32-.08.6-.04.86.1.02 0 .03 0 .04-.02v-.03l.14.24c-.44.3-.94.42-1.51.4l-.47-.24a.08.08 0 0 1-.04-.07c0-.03-.1-.37-.1-.25a.6.6 0 0 1-.03.18c-.01.03-.04.05-.07.04-.02 0-.03-.02-.03-.05 0-.18-.05-.3-.15-.37-.06.26-.15.47-.28.64l-.03.01c-.11.07-.2.15-.32.16-.24.02-.47 0-.69-.08a.74.74 0 0 1-.23-.34.63.63 0 0 1 0-.3l.05-.3c-.08-.1-.05-.11.07-.04.02.02.05.02.08.02.07-.01.13-.04.18-.08.12-.1.16-.07.12.08l-.08.25v.03c.01.03.03.04.05.04l.03-.01.25-.24c.02-.02.04-.02.05.01l.11.18c.01.02.04.03.06.02l.01-.01.26-.3a.1.1 0 0 1 .08-.03c.32 0 .77.03.92.32 0 .03.04.05.07.05l.6-.01Z" fill="#74A2A0"/><path d="M6.15 10.93c.21.15.45.21.72.17h.02l.02.02a.04.04 0 0 1 0 .04l-.1.16-.3.17c-.07.04-.08.09-.06.15.07.18.17.3.29.39.32.21.66.32 1.03.33-.02.1-.02.22.07.3.24.2.26.41.66.34.03 0 .06-.02.08-.04a.79.79 0 0 0 .1-.14c.12-.22.44-.3.65-.42.51-.31.92-.7 1.22-1.2a.06.06 0 0 1 .06-.03c.04 0 .08.02.12.04l.04.05-.14.02a.05.05 0 0 0-.05.04 4 4 0 0 1-.41.88c0-.05-.02-.06-.05-.02-.17.23-.33.46-.58.62a2.2 2.2 0 0 1-.68.29l-.07-.01a.1.1 0 0 0-.05-.02c-.09 0-.24.08-.35.1-.16.01-.26-.01-.32-.07a1.27 1.27 0 0 0-.5-.35.74.74 0 0 0-.36-.05c-.44.06-.71-.2-.96-.51-.13-.17-.15-.36-.24-.53-.02-.05-.05-.06-.09-.03v-.08h.24c.12-.02.12-.05 0-.07-.1-.02-.22-.08-.36-.18-.19-.11-.28-.34-.26-.7 0-.17.06-.33.17-.46v.03c0 .02 0 .02.02.02h.02l.02-.01a.5.5 0 0 1 .2-.18l-.05.3a.63.63 0 0 0 0 .3c.04.13.12.24.23.34Z" fill="#1A454B"/><path d="M11.9 10.57a.32.32 0 0 0-.04.02c-.02 0-.03.02-.04.03 0 .02.01.05.04.07l-.23.02h-.06a.08.08 0 0 0-.02.05c0 .02 0 .04.02.05.06.08.1.17.11.26 0 .03.02.05.05.06.08.02.17.03.27.03-.74-.02-.35.07-.9.05a.1.1 0 0 1-.06-.02l-.21-.2a1 1 0 0 0 .4-.16c.27-.18.01-.48-.09-.65-.03-.06.06-.07.09-.04.12.12.29.25.52.38.06.04.11.05.15.05Z" fill="#17363C"/><path d="m10.95 10.27-.65-.03c-.11 0-.12-.03-.01-.08l.1-.03h.38c.1.02.16.06.18.14Z" fill="#F6F4ED"/><path d="M9.96 10.53c.03 0 .06.02.07.03.08.1.16.18.25.25h-.4c-.4.1-.84.16-1.21.34-.08.03-.13.01-.17-.05a.55.55 0 0 0-.14-.15c.57.03 1.07-.1 1.51-.39l.05.1c.01.03.02.03.04 0v-.13Z" fill="#2D565D"/><path d="M11.86 10.7c.34.03.62.16.86.4l.1.12a79.72 79.72 0 0 0-.03.07.06.06 0 0 1-.08-.03.47.47 0 0 0-.33-.25 1.2 1.2 0 0 1-.27-.1c-.12-.06-.27-.1-.44-.13-.02 0-.04-.03-.04-.07l.23-.02Z" fill="#F6F4ED"/><path d="M11.63 10.71c0 .04.02.07.04.07.17.03.32.07.44.14l.27.1c.15.03.26.11.33.24l.02.03a.06.06 0 0 0 .06 0l.02-.02.01-.05.14.46c.05.2.02.37-.06.48a.11.11 0 0 0-.02.1c0 .02.01.04.03.05l.05.03c.11.03.2.01.28-.07a.08.08 0 0 0 .02-.07l-.02-.15.09.18v.1c-.02.03-.03.05-.06.05l-.24.05a.2.2 0 0 1-.12-.02.48.48 0 0 0-.26-.04 2.59 2.59 0 0 1-1.26-.16l.02-.02a1.7 1.7 0 0 0 1.03-.05v-.02a.04.04 0 0 0 0-.03.05.05 0 0 0-.04-.01 3.5 3.5 0 0 1-1.74-.35.06.06 0 0 1-.04-.05l.01-.13c.06-.1.12-.15.18-.11.03.06.1.1.2.09.43-.03.87 0 1.3 0 .08 0 .15.02.23.07.1.06.14.05.15-.03l.1.08c.03.01.04 0 .04-.02-.04-.27-.58-.45-.83-.47-.1 0-.19 0-.27-.03a.06.06 0 0 1-.05-.06.57.57 0 0 0-.11-.26.09.09 0 0 1-.02-.05c0-.02 0-.04.02-.05h.06Z" fill="#74A2A0"/><path d="M8.35 11.38a1.34 1.34 0 0 0-1.15-.35.05.05 0 0 1-.03-.02V10.94c0 .02.02.01.05-.02.45-.17.96-.08 1.21.33.02.02 0 .07-.08.13Z" fill="#F6F4ED"/><path d="m7.16 10.85-.01.03v.03l.03.01h.04c-.03.03-.05.04-.06.02-.1.1-.2.22-.28.34a.09.09 0 0 1-.08.04l.11-.16a.04.04 0 0 0-.01-.06h-.03a.94.94 0 0 1-.72-.17c.22.08.45.1.68.08.14-.01.22-.1.33-.16Z" fill="#3D6F6D"/><path d="m10.77 11.26-.04-.05a.48.48 0 0 0-.17-.17c-.15-.02-.3 0-.47.06a.16.16 0 0 1-.08.01.98.98 0 0 0-.72.16c-.21.03-.38.1-.5.21-.15.13-.25.18-.4.27-.02.02-.04.01-.04-.02a.35.35 0 0 1 0-.16c.4-.45 1.1-.56 1.73-.64.35-.05.62.05.81.3.02.01.01.03-.01.04-.03.01-.06 0-.1-.01Z" fill="#FAF2E0"/><path d="M7.16 10.94V11l.01.01.02.02h.03c.44-.05.81.06 1.13.35a.68.68 0 0 1-.16.17c-.14.11-.16.18-.1.33.03.04.05.04.07 0l.18-.3a.35.35 0 0 0 0 .15c.02.03.03.04.06.02.14-.09.24-.14.38-.27.13-.1.3-.18.51-.21.44 0 .86-.08 1.27-.23.08.05.14.1.17.17a.35.35 0 0 0-.12-.04l-.06.03c-.3.5-.7.89-1.22 1.2-.21.12-.53.2-.65.42a.79.79 0 0 1-.1.14.14.14 0 0 1-.08.04c-.4.07-.42-.14-.66-.34-.09-.08-.09-.2-.07-.3-.5-.18-.94-.3-1.22-.77a.06.06 0 0 1 .02-.08l.23-.19c.04 0 .07 0 .08-.04l.28-.34Z" fill="#74A2A0"/><path d="M10.56 11.04a3.4 3.4 0 0 1-1.27.23c.22-.15.46-.2.72-.16h.08c.16-.07.32-.09.47-.07Z" fill="#C9C5A7"/><path d="M5.8 11.3c.14.1.27.15.37.17.1.02.1.05 0 .07a.83.83 0 0 1-.24 0 .8.8 0 0 1-.29-.3v-.02l.03-.02h.03a.3.3 0 0 0 .1.1Z" fill="#74A2A0"/><path d="M12.69 11.57c0 .08-.06.09-.15.03a.4.4 0 0 0-.23-.07c-.43 0-.87-.03-1.3 0-.1 0-.17-.03-.2-.09.5-.1.82-.15.95-.17.34-.04.65.06.93.3Z" fill="#F6F4ED"/><path d="m6.8 11.32-.23.19a.06.06 0 0 0-.01.08c.27.46.72.59 1.21.77-.37 0-.71-.12-1.03-.33a.82.82 0 0 1-.29-.4c-.02-.05 0-.1.05-.14l.3-.17Z" fill="#517E80"/><path d="M10.63 11.55a.27.27 0 0 0 0 .13c0 .02.01.04.03.05a3.5 3.5 0 0 0 1.77.36.04.04 0 0 1 .02.03v.02h-.01a1.7 1.7 0 0 1-1.02.04h-.01l-.02.03v.01c.42.16.83.2 1.26.15.1 0 .18 0 .26.04a.2.2 0 0 0 .12.02l.24-.05c.03 0 .04-.02.05-.04a4.02 4.02 0 0 1 0 .13c0 .06-.01.11-.04.14a.25.25 0 0 1-.16.07c-.09-.1-.17-.09-.25.03a.13.13 0 0 1-.07.04c-.56.2-1.09.18-1.57-.08a2.85 2.85 0 0 0-.56-.25c-.1-.03-.2-.1-.31-.19-.03-.02-.03-.04 0-.06v-.02c.03-.02.05-.02.07 0a.2.2 0 0 0 .12.05c.05 0 .05-.01.02-.04l-.08-.08a.06.06 0 0 1-.01-.07l.15-.46Z" fill="#1A454B"/><path d="M8.39 13.16c.06 0 .09.01.1.04a.36.36 0 0 1-.28.06.49.49 0 0 1-.2-.09l-.47-.3c-.14-.08-.33-.01-.49-.04-.56-.1-.93-.42-1.1-.95a.79.79 0 0 1-.03-.26c.04-.03.07-.02.1.03.08.17.1.36.23.53.25.32.52.57.97.51.1-.01.22 0 .34.05.2.08.37.2.51.35.06.06.16.08.32.07Z" fill="#CDC6C1"/><path d="M12.96 11.68c.12.1.21.23.28.37l.02.15c0 .02 0 .05-.02.07-.07.08-.17.1-.28.07a.12.12 0 0 1-.05-.03.11.11 0 0 1-.01-.15c.08-.11.1-.27.06-.48Z" fill="#F6F4ED"/><path d="M10.17 12.23c-.36.62-.92.95-1.68.97-.01-.03-.04-.04-.1-.04.11-.02.26-.1.36-.1a.1.1 0 0 1 .04.02c.03.01.05.01.07 0 .27-.06.5-.15.69-.28.25-.16.4-.4.57-.62.03-.04.05-.03.05.02v.03Z" fill="#88B3AE"/><path d="m13.12 12.68-.42.2c-.7.21-1.46.01-2.03-.46.1.03.3.11.56.25.48.26 1.01.29 1.57.08.03 0 .05-.02.07-.04.08-.12.16-.13.25-.03Z" fill="#74A2A0"/><path d="m11.03 13.5.04.13c0 .03.03.04.06.04.58 0 1.16.03 1.75.1.03 0 .04.03.04.06 0 .02-.02.04-.04.04l-1.93.1a.5.5 0 0 0 .1-.16.1.1 0 0 0 0-.07.63.63 0 0 1-.04-.24h.02ZM7.56 13.56c0 .13.02.24.1.31.05.06.15.1.3.1l1.1.03c-.9 0-1.82-.03-2.73-.06a9.61 9.61 0 0 1-1.1-.11c-.04 0-.04-.02-.04-.05l.01-.01.02-.01c.67-.06 1.43-.1 2.27-.1.03 0 .04-.02.05-.04l.01-.08v.02Z" fill="#1A454B"/><path d="M9.9 4.98c-.02.1-.08.1-.16-.02-.08-.3-.24-.52-.47-.65-.13-.08-.12-.1.02-.06.36.08.56.32.61.73Z" fill="#CDC6C1"/><path d="m9.2 4.8.02.06v.05l-.03.03a.08.08 0 0 1-.09 0c-.14-.12-.26-.22-.39-.31-.17-.14-.36-.21-.57-.23-.03 0-.04 0-.03-.03.43-.05.8.1 1.1.44Z" fill="#F6F4ED"/><path d="M8.1 4.37c0 .02.01.03.04.03l-.07.03c-.05.02-.04.03 0 .04l.1.02a.18.18 0 0 0-.12.08l-.66-.09c-.01 0-.02 0-.02-.02v-.02l.74-.07Z" fill="#74A2A0"/><path d="M9.2 4.8c.05 0 .08-.02.1-.04.08.13.2.23.34.28.09.12.07.53.1-.08.08.12.14.12.16.02.08.1-.01.2.03.32.02.05.04.05.05 0l.07-.2c.05.1.09.13.12.1l-.02.25c0 .03 0 .04.04.05.06 0 .1-.04.13-.14-.02.09-.01.15.02.19a.3.3 0 0 1-.13.16c-.03.01-.05 0-.07-.02-.23-.52-1.25-.47-1.74-.42a.89.89 0 0 0-.32.1c-.16.08-.36.08-.5.18-.1.07-.2.07-.29.15-.07.07-.16.13-.26.18a.17.17 0 0 1-.07.02H6.5l.43-.14.02-.02V5.7c0-.02 0-.03-.03-.03-.28.02-.52.13-.75.32l-.03-.01c-.02-.02-.03-.04-.01-.06l.03-.06c.16-.14.34-.23.53-.27l.64-.04c.03 0 .05-.02.06-.06-.2-.18-.2-.2-.3-.32a.15.15 0 0 0 .07-.06c.02-.03-.01-.06-.04-.05a.6.6 0 0 1-.23 0L7.42 5l.67.13c.03 0 .04 0 .02-.03-.16-.22-.6-.24-.86-.22h-.3l.2-.09c.05.04.15.03.3-.02.24 0 .45.05.62.13.13.06.24.1.33.12.03 0 .05 0 .04-.04-.03-.14.3 0 .38-.04.03-.01.04-.05.02-.07-.2-.2-.42-.33-.67-.38l-.1-.02c-.04 0-.05-.02 0-.04l.07-.03c.2.02.4.1.57.23l.39.3c.1.09.12-.06.1-.12Z" fill="#17363C"/><path d="M9.64 5.04a.7.7 0 0 1-.35-.28.93.93 0 0 0-.36-.3c-.02 0-.03-.02-.02-.04l.01-.02h.02c.36.06.6.27.7.64ZM10.17 5.2c-.03.03-.07 0-.12-.1-.06-.23-.13-.4-.21-.52-.09-.14-.07-.15.05-.05.21.19.3.41.28.68ZM8.17 4.5a1.21 1.21 0 0 1 .68.39v.02l-.01.02-.02.01c-.08.03-.16 0-.24-.08a1.76 1.76 0 0 0-.53-.3.18.18 0 0 1 .12-.07ZM8.43 4.93v.05c.02.04 0 .05-.03.04-.1-.02-.2-.06-.33-.12a1.56 1.56 0 0 0-.63-.13c-.06-.01-.08-.03-.06-.05.4-.09.75-.01 1.05.21Z" fill="#F6F4ED"/><path d="M10.34 5.55c-.03-.04-.04-.1-.02-.2v-.49c.01-.14.04-.14.1-.01.09.24.06.47-.08.7Z" fill="#fff"/><path d="m6.95 4.87.3.01-.13.04c-.03.01-.03.02 0 .02l.3.06-.53.05-.54.15c-.17.05-.19.02-.04-.08.16-.12.37-.2.64-.25Z" fill="#517E80"/><path d="m7.42 5-.3-.06c-.03 0-.03-.01 0-.02l.13-.04c.26-.02.7 0 .86.22.02.02.01.03-.02.03L7.42 5Z" fill="#F6F4ED"/><path d="M7.09 5.16c.23-.03.54.07.55.1 0 .03-.02.06-.05.05l-.27-.02c-.09 0-.1.02-.02.06.06.04.09.08.09.13 0 .04-.03.06-.06.06l-.64.04.44-.11c.16-.03.16-.07 0-.11-.16-.04-.42.08-.6.12.15-.16.33-.27.56-.32Z" fill="#3D6F6D"/><path d="M6.7 5.58c-.2.04-.38.13-.54.27-.1.05-.15.05-.12-.02.14-.16.3-.27.49-.35.18-.04.44-.16.6-.12.16.04.16.08 0 .1l-.44.12ZM6.5 5.9a.65.65 0 0 0-.27.15h-.05c-.02-.01-.03-.03-.02-.05l.01-.02c.23-.2.47-.3.74-.32.03 0 .04 0 .05.03v.05l-.03.02-.43.15Z" fill="#CDC6C1"/><path d="M6.04 5.83c-.03.07.01.07.12.02l-.03.06c-.02.02-.01.04.02.06h.02L6.16 6c0 .02 0 .04.02.04l.05.01-.51.4c-.04.04-.06.03-.04-.01.08-.22.2-.43.36-.6Z" fill="#3D6F6D"/><path d="M11.48 5.57c-.09.16-.16.32-.23.47-.07.15-.2.2-.3.33-.06.08-.08.07-.07-.03 0-.21.27-.47.4-.56a.15.15 0 0 0 .05-.06.42.42 0 0 1 .13-.18c.04-.04.05-.03.02.03ZM11.64 7.26a.08.08 0 0 0-.09.03l-.33.33c-.01.02-.03.02-.03 0v-.05c.13-.2.26-.42.38-.65a.08.08 0 0 1 .06-.04l.13-.03c.03 0 .06-.02.08-.04.06-.06.13-.1.21-.08.07.01.1.12.05.18l-.3.38-.03.02h-.03l-.1-.05ZM12.98 8.84a.11.11 0 0 1-.07.05c-.36.06-.71.15-1.06.26-.02 0-.03-.02-.04-.04l.01-.02c.25-.15.5-.3.75-.48.12-.08.27-.13.43-.17.22-.04.45-.1.67-.2.01 0 .03.06 0 .07l-.53.3c-.1.05-.1.15-.16.23ZM4.74 8.07a.4.4 0 0 1-.1-.08c-.03-.05-.02-.06.04-.04.18.07.37.13.56.18.1.03.36.16.44.24.12.12.25.23.4.35.16.14.15.17-.06.07a5.86 5.86 0 0 0-.49-.2c-.3-.1-.52-.35-.79-.52Z" fill="#fff"/><path d="M7.25 8.16v.02c-.02.02-.03.02-.03 0 .03-.26.18-.45.47-.57.04-.02.07-.01.1.03v.04c0 .06-.03.1-.09.13a1.7 1.7 0 0 0-.45.33v.02ZM10.33 9.6a.02.02 0 0 1-.02-.01v-.01l-.13-1.06a3.2 3.2 0 0 1-.01-.44c0-.02.01-.03.02-.03l.06-.01s.02 0 .03.03l.03.1a1.97 1.97 0 0 1 .06.33l.13 1.06v.01l-.02.01-.15.02Z" fill="#FAF2E0"/><path d="M10.16 12.53c.2.42.26.85.22 1.29h-.27l-.02-.05.05.01a.1.1 0 0 0 .12-.05 10.9 10.9 0 0 1-.07-.85.64.64 0 0 0-.11-.33c.08-.08.11-.09.08-.02Z" fill="#ABB9AC"/><path d="m10.46 12.84.11.9c0 .04 0 .05-.04.06l-.15.01c.04-.43-.03-.86-.22-1.28.08.06.14.13.19.22l.11.09Z" fill="#517E80"/><path d="M10.08 12.55c.07.1.1.22.11.33a10.94 10.94 0 0 0 .07.85.1.1 0 0 1-.07.05.1.1 0 0 1-.05 0l-.05-.01-.1-.8-.02-.27c.02-.05.06-.1.1-.15Z" fill="#FAF2E0"/><path d="M10.77 13.05a.15.15 0 0 0-.07-.03c-.03 0-.05 0-.05.03.01.22.03.42.07.63.02.09.07.14.16.15h-.81c0-.01.02-.02.04-.01h.27l.15-.02c.03 0 .04-.02.04-.05l-.1-.91c.03.02.06.03.08.02.03 0 .04-.02.04-.05v-.21l.02-.01a.04.04 0 0 1 .04 0c.17.1.13.3.12.46Z" fill="#1A454B"/><path d="m9.97 12.7.03.26c-.12.12-.28.24-.34.37-.07.16-.04.33.1.5l-.8-.05c-.06 0-.06-.02 0-.04l.22-.1c.03 0 .04-.03.04-.05 0-.04-.02-.07-.06-.07-.28-.05-.8.15-1.05.26a.4.4 0 0 1-.26.02c.41-.08.65-.3.2-.22.18-.15.39-.21.62-.18.18.03.35.04.53.03.02 0 .04 0 .05-.03a.7.7 0 0 1 .19-.23c.18-.15.36-.3.53-.47Z" fill="#2D565D"/><path d="m10.09 13.77.02.05h-.04l-.32.01c-.13-.17-.16-.34-.09-.5.06-.13.22-.25.34-.37l.09.8Z" fill="#88B3AE"/><path d="M10.78 13.05c.04.06.07.13.08.23.02.22.02.4.02.55-.09-.01-.14-.06-.16-.15-.04-.2-.06-.41-.07-.63 0-.02.02-.04.05-.03l.08.03Z" fill="#F6F4ED"/><path d="M7.83 13.41a1.6 1.6 0 0 1-.08.18c-.02.03-.03.03-.03 0-.01-.13.01-.25.07-.37.01-.03.03-.03.05-.02.05.01.08.05.1.09v.03l-.03.02a.12.12 0 0 0-.08.07Z" fill="#ABB9AC"/><path d="M7.85 13.8c0-.07.06-.14.2-.22.09-.05.19-.07.29-.06h.03l.02.03a.05.05 0 0 1 0 .05.13.13 0 0 1-.07.04c-.16.07-.27.17-.47.16ZM9.99 9.8a1 1 0 0 1 .28-.06c.2-.01.39.1.56.18a.1.1 0 0 1 .04.02l.02.04V10.04h-.02c-.3-.13-.57-.12-.87-.16-.14-.01-.14-.04-.01-.09Z" fill="#FAF2E0"/><path d="M7.67 11.4a7.67 7.67 0 0 0-.38-.19v-.02c0-.01 0-.02.01-.01.42.06.67.26.75.58.02.1 0 .1-.06.03-.1-.13-.16-.31-.32-.4Z" fill="#F6F4ED"/><path d="m9.44 12.15-.13.02c-.1.02-.1 0-.03-.06.19-.16.4-.3.64-.44.08-.04.13-.13.18-.27l.12-.16c.01-.01.02-.02.04-.01h.02v.04c-.16.4-.44.7-.84.88Z" fill="#17363C"/><path d="M10.1 11.4c-.05.14-.1.23-.18.27-.24.14-.45.28-.64.44-.08.06-.07.08.03.06l.13-.02c-.23.14-.45.2-.64.17-.17-.01-.18-.06-.03-.13.35-.16.7-.35 1.02-.59l.3-.2Z" fill="#517E80"/><path d="M8.26 12.74c.16.07.31.07.34 0 .03-.07-.07-.17-.23-.24-.16-.06-.3-.06-.34 0-.03.07.08.18.23.24Z" fill="#F6F4ED"/></svg>