<!-- by TradingView --><svg width="18" height="18" viewBox="0 0 18 18" xmlns="http://www.w3.org/2000/svg"><path fill="url(#a)" d="M0 0h18v18H0z"/><path d="M10.85 14H7.17c-.65 0-1.26-.35-1.58-.9L3.74 9.9a1.82 1.82 0 0 1 0-1.8L5.6 4.9c.32-.55.93-.9 1.58-.9h3.68c.65 0 1.26.35 1.58.9l.92 1.59c.19.32.07.75-.26.94a.7.7 0 0 1-.94-.26l-.91-1.52a.45.45 0 0 0-.39-.22H7.17c-.16 0-.3.09-.39.22L4.94 8.78a.44.44 0 0 0 0 .44l1.84 3.18c.08.14.23.17.39.17h3.68c.16 0 .3-.03.39-.17l1.6-2.4H9.72A.71.71 0 0 1 9 9.3c0-.38.32-.71.7-.71h4.06c.4 0 .73.31.74.71 0 .36-.08.7-.26 1.01l-1.8 2.78c-.33.56-.94.91-1.59.91Z" fill="#DED2FF"/><path d="M6.67 10a.69.69 0 0 1-.34-.09.63.63 0 0 1-.24-.88l1.66-2.71c.19-.3.6-.41.92-.23.32.18.43.58.24.88L7.25 9.68a.68.68 0 0 1-.58.32Z" fill="url(#b)"/><defs><linearGradient id="a" x1="3.35" y1="3.12" x2="21.9" y2="24.43" gradientUnits="userSpaceOnUse"><stop stop-color="#1A1E21"/><stop offset="1" stop-color="#06060A"/></linearGradient><linearGradient id="b" x1="9.01" y1="6.04" x2="6.16" y2="10.14" gradientUnits="userSpaceOnUse"><stop stop-color="#9747FF"/><stop offset="1" stop-color="#782AED"/></linearGradient></defs></svg>