<!-- by TradingView --><svg width="18" height="18" viewBox="0 0 18 18" xmlns="http://www.w3.org/2000/svg"><path fill="url(#a)" d="M0 0h18v18H0z"/><path d="M8.78 4c.42.46.1.8-.36.95l-.3.06c-.03 0-.04-.01-.04-.04.03-.26 0-.51-.06-.74-.02-.05-.05-.08-.1-.08a.22.22 0 0 0-.11-.01L8.78 4Z" fill="#1E0D38"/><path d="m9.64 4.03-.12.3v.63c-.04.04-.11.06-.23.04a.22.22 0 0 0-.16-.02l-.06-.04c-.19-.05-.4-.05-.65.01.46-.16.78-.5.36-.95l.86.03Z" fill="#2D1C5A"/><path d="M9.64 4.03c.47.06.9.18 1.32.36a5.7 5.7 0 0 1-1.1.67.28.28 0 0 1-.19.03c-.08-.02-.13-.06-.15-.13v-.62l.12-.3ZM7.8 4.14l.11.01c-.04.2-.03.36.06.52.01.02.02.05.01.08A.71.71 0 0 0 8 5a.04.04 0 0 1-.03.03c-.39.07-.76.2-1.11.37l-.4-.71c.42-.26.88-.44 1.36-.56Z" fill="#568D9A"/><path d="M8.42 4.95c.25-.06.46-.06.65 0L8.53 5a.07.07 0 0 0-.07.04c-.1.23-.23.13-.4.2-.06.01-.1.03-.1.06-.43.07-.8.26-1.1.58a.88.88 0 0 0-.42.23.06.06 0 0 1-.07.01.18.18 0 0 1-.08-.08l.08-.11c.05-.02.1-.06.13-.11l.05-.05c0-.02 0-.03-.02-.04H6.5c-.03-.02-.03-.04 0-.06l.35-.27a4.11 4.11 0 0 1 1.14-.39.04.04 0 0 0 0-.03.71.71 0 0 1 0-.24c0-.03 0-.06-.02-.08a.69.69 0 0 1-.06-.52c.06 0 .1.03.1.08.08.23.1.48.07.74 0 .03.01.04.04.04l.3-.06Z" fill="#3A4E86"/><path d="M12.28 5.21c-.04.04-.1.03-.2 0a2.51 2.51 0 0 0-.69-.05c-.23.02-.4.1-.5.26-.06.09-.13.12-.22.09a.1.1 0 0 0-.14.07.32.32 0 0 1-.13.17.06.06 0 0 1-.08 0l-.18-.11h-.03l-.02.01c-.02.02-.02.03 0 .05l.18.23-.2-.18a.04.04 0 0 0-.07.02.96.96 0 0 0-.01.37l-.22-.1a.07.07 0 0 1-.04-.05v-.05l.2-.44c.01-.03 0-.06-.02-.08-.17-.17-.38-.31-.62-.42.12.02.2 0 .23-.04.02.07.07.11.15.13.06.01.12 0 .19-.03.39-.18.76-.4 1.1-.67.48.2.92.48 1.32.82Z" fill="#4F7E91"/><path d="m6.45 4.7.4.71-.35.27c-.03.02-.03.04 0 .05l.03.01c.02.01.02.02.02.04l-.05.05v-.05a.05.05 0 0 0-.05-.03.23.23 0 0 0-.17.11c-.02.03-.01.05.01.07.02.02.04.02.08 0l-.08.12a.36.36 0 0 0-.19-.17.17.17 0 0 1-.06-.05c-.16-.2-.34-.32-.55-.4.28-.27.6-.52.96-.73Z" fill="#476E85"/><path d="m9.07 4.94.06.04c-.61.02-.75.43-.72.95L7.9 6l.07-.34a.08.08 0 0 0-.03-.08.08.08 0 0 0-.09 0l-.3.16.4-.43c0-.03.04-.05.1-.07.17-.06.3.04.4-.19a.07.07 0 0 1 .07-.04l.54-.07Z" fill="#585EB0"/><path d="M9.13 4.98c.05-.02.1-.01.16.02.24.1.45.25.62.42.03.02.03.05.02.08l-.2.44v.05c0 .02.02.03.04.04l.22.1.27.15c.02.01.04.04.04.06 0 .04 0 .05-.04.04l-.32-.08c-.42.05-.89.07-1.27-.07.37.04.7.04 1 0 .16-.02.17-.08.04-.17a.42.42 0 0 0-.12-.03l-.1-.11c-.01-.03 0-.04.02-.06l.2-.1c.03-.03.06-.06.06-.08a.15.15 0 0 0-.01-.12.55.55 0 0 0-.31-.3.96.96 0 0 0-.57-.15c-.12 0-.2.07-.24.17-.03.05-.03.12 0 .22.02.13.04.27.03.42h-.26c-.03-.51.11-.92.72-.94Z" fill="#939AF0"/><path d="m9.45 5.25-.5-.1c-.07 0-.15.04-.24.14a.08.08 0 0 0-.02.07l.05.2v.08c0 .08.04.13.12.14.1.02.27.03.5.04.02 0 .05-.01.07-.03l.33-.23c.02.04.02.08.01.12 0 .02-.03.05-.07.07l-.2.11c-.02.02-.02.03 0 .06l.1.11c-.3-.1-.61-.14-.93-.11 0-.15 0-.29-.04-.42-.02-.1-.02-.17 0-.22.05-.1.13-.17.25-.17.22 0 .4.04.57.14Z" fill="#B8CBFA"/><path d="M9.45 5.25c.15.07.25.17.3.31l-.32.23a.12.12 0 0 1-.07.03c-.23 0-.4-.02-.5-.04-.08-.01-.12-.06-.11-.14v-.08l-.06-.2a.08.08 0 0 1 .02-.07c.09-.1.17-.15.23-.13l.5.1Z" fill="#D3FCFC"/><path d="m12.08 5.2-.74.05c-.13.01-.23.05-.28.12a8.52 8.52 0 0 0-.24.28h-.14c-.04 0-.06 0-.07.04-.03.1-.02.17.03.24a.6.6 0 0 1-.02.23c-.01.02-.03.04-.06.05-.05.01-.1-.01-.14-.07l-.15-.2-.19-.24v-.05l.03-.01h.03l.18.1c.03.02.05.02.08 0 .07-.04.11-.1.13-.16a.11.11 0 0 1 .14-.07c.09.03.16 0 .22-.09.1-.16.27-.24.5-.26.28-.01.5 0 .7.05Z" fill="#97AED5"/><path d="m12.74 5.66.14 1.78c0 .03.02.05.04.07a.6.6 0 0 0 .53.11c.03 0 .05 0 .05.04s0 .08-.04.1c-.02.02-.06.03-.12.03h-.25a.1.1 0 0 0-.07.05c-.08.14-.11.25-.1.35.03.12.03.26.03.41 0 .06.02.19.07.4v.08a.82.82 0 0 0-.04.39c-.01.05.01.1.08.14.06.05.1.11.11.2 0 .02 0 .04-.02.06l-.07.1a.09.09 0 0 0-.02.08l.07.29s0 .02.02.03h.03c.04 0 .06-.01.08-.04.16 0 .22-.05.17-.13l-.11-.01c-.04-.01-.06-.03-.07-.06v-.05a.06.06 0 0 1 .05-.06c.06-.01.08-.05.06-.11a1.56 1.56 0 0 1-.06-.27c0-.04 0-.06.04-.07l.16-.07c.03 0 .05 0 .06.02.15.23.17.46.07.71a.08.08 0 0 0 0 .08l.13.2-.27.68-.42-.1a.06.06 0 0 0-.05 0 .06.06 0 0 0-.03.06l.01.37c0 .03-.01.06-.04.08a.2.2 0 0 1-.07.02l-.05-.01a.67.67 0 0 0 0-.42.7.7 0 0 1-.05-.22 3.37 3.37 0 0 1 .02-.26h.03l.33-.02a.03.03 0 0 0 .03-.03v-.02c0-.02 0-.03-.02-.03l-.31.01c-.02 0-.04 0-.06-.02a.08.08 0 0 1-.02-.05 1.01 1.01 0 0 1 0-.36c.05-.2-.01-.24-.19-.15a.3.3 0 0 1-.11 0c-.16 0-.28.04-.38-.12a.12.12 0 0 1 .07-.17l.17-.05c.14.01.27 0 .39-.06.02-.01.04-.04.03-.06l-.07-.86a1.83 1.83 0 0 1 0-.46.84.84 0 0 0-.07-.27.07.07 0 0 1 .02-.08l.01-.01a.06.06 0 0 0 .03-.06 5.61 5.61 0 0 0 0-1.1 5.9 5.9 0 0 0-.21-1.19.62.62 0 0 0-.37-.2 1.66 1.66 0 0 0-1.04.15.07.07 0 0 0-.04.05l-.02.05c0 .03 0 .05.04.05h.1c.03 0 .04.03.02.06a.23.23 0 0 1-.07.1.04.04 0 0 0-.02.04.04.04 0 0 0 .02.04l.42.18c.08.04.1.1.07.17l-.08.17a.07.07 0 0 1-.08.04l-.03-.01a1.2 1.2 0 0 0-.36-.22c-.15-.06-.26-.2-.4-.3-.05-.06-.06-.14-.03-.23.01-.03.03-.05.07-.04h.1a.08.08 0 0 0 .07-.03l.2-.25c.06-.07.16-.1.3-.12l.73-.04c.1.03.16.04.2 0l.46.45Z" fill="#2D1C5A"/><path d="m7.96 5.3-.4.44-.28.34c-.2.07-.33.1-.4.1a.17.17 0 0 1-.11-.04c-.02-.02-.02-.04-.01-.06l.1-.19c.3-.32.67-.51 1.1-.58Z" fill="#ABF6F9"/><path d="M12.48 5.55c-.06.06-.04.16.03.31.01.03.02.05.01.08-.03.53.04 1.04.06 1.57v.03l-.03.02c-.02.03-.02.04.01.03.05 0 .1-.03.14-.09-.02.12-.03.23-.01.34 0 .02 0 .04-.03.06l-.01.01a.07.07 0 0 0-.02.08c.05.14.07.23.07.27-.02.17-.02.32 0 .46a.85.85 0 0 0-.1.27.06.06 0 0 1-.08.04l-.34-.28a.13.13 0 0 1-.04-.06c-.03-.12 0-.35-.13-.46l.05-.33c0-.03-.01-.05-.04-.06a.31.31 0 0 0-.18-.02c-.03-.01-.05-.03-.05-.04-.02-.04-.01-.05.02-.06h.2c.03 0 .04-.02.02-.04l-.35-.9a.11.11 0 0 0-.13-.06.48.48 0 0 1-.22 0c-.03 0-.06-.03-.1-.07-.12-.12-.17-.11-.15.03l-.66-.54c.04.06.09.08.14.07.03 0 .05-.03.06-.05a.6.6 0 0 0 .02-.23c.14.1.25.23.4.3.13.04.25.11.36.2a.07.07 0 0 0 .09 0l.02-.02.08-.17c.03-.08.01-.13-.07-.17l-.42-.18a.04.04 0 0 1 0-.08.23.23 0 0 0 .07-.1c.02-.03 0-.05-.03-.05l-.1-.01c-.03 0-.04-.02-.03-.05l.02-.05c0-.02.02-.04.04-.05.3-.18.69-.2 1.04-.14.13.01.26.08.37.2Z" fill="#3A5575"/><path d="M5.49 5.44c.2.07.4.2.55.4l.06.04c.08.03.14.09.19.17.02.04.05.07.08.08.03.02.05.01.07 0 .12-.12.26-.2.42-.24l-.1.19c-.01.02-.01.04.01.06.04.03.07.04.11.04.07 0 .2-.03.4-.1 0 .03.02.05.05.06l-.56.4.06-.13c0-.03 0-.05-.03-.06-.1-.05-.21-.1-.3-.17-.02 0-.07.02-.15.08-.21-.19-.43-.4-.66-.64a.75.75 0 0 0-.23-.11c0-.02 0-.04.03-.07Z" fill="#6AA8BB"/><path d="M5.46 5.5c.12.05.2.1.23.12.23.24.45.45.66.64.16-.01.28.04.37.16.01.02.02.04 0 .07l-.31.47c-.04.05-.07.08-.11.07-.04 0-.06-.02-.06-.05l-.01-.47a.09.09 0 0 0-.06-.08.1.1 0 0 0-.1.02l-.12.13H5.9l-.18-.19c-.04-.03-.04-.06 0-.09l.1-.1v-.05c-.13-.2-.3-.38-.51-.5.03-.08.08-.12.15-.14Z" fill="#2D1C5A"/><path d="M12.48 5.55a5.9 5.9 0 0 1 .22 1.95c-.04.06-.09.1-.14.1-.03 0-.03-.01 0-.04l.01-.02v-.03c0-.52-.08-1.04-.05-1.57l-.01-.08c-.07-.15-.09-.25-.03-.3Z" fill="#7A70AE"/><path d="m7.91 6-.58.14c-.03 0-.05-.03-.05-.06l.28-.34.3-.16a.08.08 0 0 1 .09 0 .08.08 0 0 1 .03.08L7.9 6Z" fill="#3A4E86"/><path d="M5.3 5.65c.22.12.4.3.52.5.02.02.01.04 0 .05l-.1.1c-.03.03-.03.06 0 .1l.18.18h.05l.12-.13a.1.1 0 0 1 .14.01l.02.05.01.47c0 .03.02.05.06.05.04 0 .07-.02.1-.07-.01.07-.06.1-.13.1a.07.07 0 0 1-.06-.04l-.13-.3a.07.07 0 0 0-.05-.05c-.12-.02-.22.03-.29.16a.9.9 0 0 0-.2.38c-.04.37-.1.7-.2 1 0 .03-.03.04-.1.04l-.14-.1.01-.31a.06.06 0 0 0-.04-.06l-.1-.05a.06.06 0 0 1-.04-.06c0-.44.02-.87.07-1.3.01-.14 0-.23-.05-.3l.36-.42ZM13.98 8.53a.34.34 0 0 1-.17.04l-.3.07a.1.1 0 0 0-.06.05c-.13.24-.12.3.05.19.06.06.07.14.03.23l-.12.04a.15.15 0 0 0-.04.06c0 .03-.02.04-.05.04l-.06-.01a.21.21 0 0 0-.1-.05c.01-.05 0-.1-.02-.16a.55.55 0 0 1 .1-.45c.12-.17.25-.32.38-.44.02-.01.01-.03 0-.04l-.04-.01a.07.07 0 0 0-.08.02c-.21.24-.4.4-.43.66a.52.52 0 0 0-.02.21v.08c-.05.12-.07.25-.07.37.02-.02.02 0 0 .04a.82.82 0 0 1 .03-.39V9a2.3 2.3 0 0 1-.06-.4c0-.15 0-.3-.03-.41-.01-.1.02-.21.1-.35a.1.1 0 0 1 .07-.04c.08-.01.16-.02.25-.01.06 0 .1 0 .12-.02a.13.13 0 0 0 .04-.1c0-.04-.02-.05-.05-.05a.6.6 0 0 1-.53-.1.1.1 0 0 1-.04-.08l-.14-1.78a4.97 4.97 0 0 1 1.24 2.87Z" fill="#3A5575"/><path d="M6.5 5.83a.25.25 0 0 1-.13.1c-.04.02-.06.02-.08 0-.02-.02-.03-.04-.01-.07.04-.06.1-.1.17-.1a.05.05 0 0 1 .04.02v.05Z" fill="#939AF0"/><path d="m10.27 5.93.15.21.66.54.41.92a9.59 9.59 0 0 0 0 1.57c0 .03-.01.05-.04.06-.11.07-.2.1-.27.1-.13 0-.41-.04-.85-.13a.48.48 0 0 0-.14-.23c0-.06-.01-.14-.07-.22l.24-.24c.02-.04.1-.12.22-.24.17-.18.24-.4.22-.67a.22.22 0 0 0-.04-.11.37.37 0 0 0-.12-.1c-.02-.01-.05 0-.09.03v.06c.01.03 0 .05-.02.06a.8.8 0 0 0-.35.2c-.01.02-.03.01-.04-.01a.18.18 0 0 1 .02-.13.16.16 0 0 1 .08-.08l.17-.06.05-.05.16-.4c.03-.1.02-.19 0-.26-.05-.1-.09-.1-.12 0a.92.92 0 0 1-.18.35.08.08 0 0 1-.15-.04c-.02-.15-.12-.22-.3-.2-.04 0-.23.01-.57.05-.3.03-.56.13-.8.31-.17.04-.23-.07-.31-.19l-.2-.3c.06-.06.06-.18 0-.36.6.38 1.1.38 1.74.17a1.82 1.82 0 0 1 .61-.1.04.04 0 0 0 .03-.03v-.07a.06.06 0 0 0-.04-.05l-.34-.15a.96.96 0 0 1 .01-.37.04.04 0 0 1 .05-.03l.02.01.2.18Z" fill="#3F5F8C"/><path d="M8.67 5.92c.32-.03.62 0 .92.11l.12.03c.13.1.12.15-.04.17-.3.04-.63.04-1 0H8.2l-.42.06-.79.24c-.03 0-.04.03-.03.06l.02.04c.01.04 0 .05-.03.05-.14 0-.2-.06-.18-.14l.56-.4L7.9 6l.5-.07.26-.01Z" fill="#D3FCFC"/><path d="M4.95 6.08c.05.06.06.15.05.29-.05.43-.07.86-.07 1.3 0 .03.01.05.04.06l.1.05c.03 0 .04.03.04.06v.31a.3.3 0 0 0-.12.02.06.06 0 0 0-.05.06l-.02.22a.05.05 0 0 0 .03.05l.13.07h-.07c-.03 0-.04.03-.04.06a.4.4 0 0 1-.06.21.06.06 0 0 0 .07.08c.06-.02.1-.06.12-.13.01-.03.03-.05.05-.06.05-.02.07-.05.07-.1.06.07.08.17.07.32a.18.18 0 0 0-.05-.08c-.02-.02-.04-.02-.06 0a.22.22 0 0 0-.07.15.04.04 0 0 1-.04.03h-.1a.05.05 0 0 0-.05.04l-.07.63h-.12c-.03-.01-.05-.03-.04-.06.03-.27.05-.48.08-.63.03-.17.03-.38.01-.63a4.03 4.03 0 0 1-.01-.64c.04-.64.07-1.14.07-1.5 0-.07.04-.13.11-.18Z" fill="#7A70AE"/><path d="M8 6.37a.44.44 0 0 0-.22-.08l.42-.05c.66.25 1.11.38 1.74.06l.32.08c.03 0 .05 0 .04-.04a.08.08 0 0 0-.04-.06l-.27-.14.34.15c.02 0 .04.03.04.05v.05a.05.05 0 0 1-.01.03.05.05 0 0 1-.04.02c-.18 0-.38.03-.59.1-.64.2-1.14.2-1.73-.17Z" fill="#585EB0"/><path d="M6.77 6.54c-.02.08.04.13.18.14.03 0 .04-.01.03-.05l-.02-.04c-.01-.03 0-.05.03-.06l.79-.24c.1.01.16.04.22.08.05.18.05.3-.01.36-.11.1-.1.28.07.54l.08.28c0 .04 0 .05-.03.03a.12.12 0 0 0-.03-.02c-.04 0-.05 0-.05.04l.02.14-.1-.24c0-.12-.06-.2-.15-.23-.4-.15-.49.22-.63.47-.05.1-.07.2-.05.3.04.19.13.39.28.59.29.06.52 0 .7-.17a.75.75 0 0 0 .02-.37l.01-.01c.02-.01.03 0 .03.01l-.02.4c0 .02 0 .04.02.06.1.19.07.42.07.75 0 .15.1.28.06.45l-.1-.29c0-.19.02-.37.04-.56.01-.08 0-.13-.06-.16-.02-.02-.04-.01-.05.01a.7.7 0 0 0-.05.22L8 9.34c0 .03-.03.05-.06.05l-1.78.05-.04.01a.06.06 0 0 0-.02.04c-.06.55-.04 1.18-.3 1.73a.06.06 0 0 1-.06.03h-.03c-.02-.02-.03-.04-.03-.07-.02-.65 0-1.29.08-1.92l.22-1.76c.03-.22.03-.44-.01-.66 0-.03-.03-.04-.05-.05-.06 0-.12 0-.18.04.07-.13.17-.18.3-.16a.07.07 0 0 1 .04.04l.13.3a.07.07 0 0 0 .06.05c.07 0 .12-.03.14-.1l.31-.47a.06.06 0 0 0 0-.07c-.09-.12-.21-.17-.37-.16.08-.06.13-.09.14-.08l.31.17c.03.01.04.03.03.06l-.06.13Z" fill="#3A4E86"/><path d="M8.67 6.23c.38.14.85.12 1.27.07-.63.32-1.08.2-1.74-.06l.47-.01Z" fill="#6D72E1"/><path d="M4.84 6.26c0 .36-.03.86-.07 1.5-.01.2-.01.42.01.64.02.25.02.46-.01.63a9.2 9.2 0 0 0-.08.63c0 .03 0 .05.04.05l.12.01c.17-.01.33.02.47.1 0 .04.04.06.1.06l-.1.94-.02.02-.02-.01c.01-.18 0-.36-.05-.53-.02-.03 0-.1.02-.18.02-.05 0-.08-.05-.08l-.35-.03a.12.12 0 0 0-.13.1.71.71 0 0 0 0 .25c0 .03-.01.05-.03.07l-.06.06c-.05.05-.04.07.03.07.1 0 .19.03.3.1a.04.04 0 0 1-.02.07c-.13.02-.25.16-.16.3.02.03.07.05.16.07.09.02.1.07.05.14-.12.14-.15.34-.1.6a3.08 3.08 0 0 1-.49-.9c0-.08.01-.16.04-.24l.05-.22c.02-.2 0-.4-.05-.6a.16.16 0 0 1 .04-.17c.06-.08.08-.23.06-.46a.83.83 0 0 0-.51.18l.01-.16.43-.18c.05 0 .07 0 .08-.05.01-.15 0-.3-.06-.44 0-.03 0-.05.03-.06a.1.1 0 0 1 .04 0c.03-.13.05-.26.04-.39-.01-.13 0-.24.01-.33a2.2 2.2 0 0 0-.04-1.1c0-.05.05-.14.12-.29a.46.46 0 0 1 .15-.17Z" fill="#2D1C5A"/><path d="M11.84 7.82c.07.05.1.12.12.18 0 .03-.01.05-.04.06l-.3.07a.05.05 0 0 1-.03-.01.05.05 0 0 1-.02-.04c0-.16-.02-.32-.08-.48l-.41-.92c-.02-.14.03-.15.15-.03.04.04.07.07.1.07.07.02.14.02.22 0a.11.11 0 0 1 .13.06l.35.9c.02.02 0 .04-.02.04h-.2c-.03 0-.04.02-.02.06 0 .01.02.03.05.04Z" fill="#6AA8BB"/><path d="M10.12 8.75a1.4 1.4 0 0 0-.37-.41.04.04 0 0 1-.01-.06c.04-.06.16-.08.38-.08a.03.03 0 0 0 .01-.04l-.07-.07a.16.16 0 0 0-.13-.03 2.8 2.8 0 0 1-1.1-.03.04.04 0 0 1 0-.06l.04-.06a.6.6 0 0 0 .2-.16c.03-.03.02-.05-.01-.07l-.12-.05c-.02-.01-.03-.03-.01-.05l.03-.04a.03.03 0 0 1 .05 0c.1.09.18.08.25-.01.04-.04.07-.04.09-.02a.05.05 0 0 1 0 .06c-.1.1-.08.18.03.23a.06.06 0 0 1 .03.08l-.01.02c0 .01-.02.02-.03.01l-.18-.08h-.03l-.03.02-.06.07c-.03.03-.02.05.02.05.17.02.33 0 .47-.05.1-.04.14-.1.12-.21l-.06-.3c.15-.1.24-.16.28-.17.27-.12.26-.18-.03-.18-.28 0-.61-.03-.9.06l-.37.12c-.1.04-.13.03-.1-.02.24-.18.5-.28.8-.31l.58-.06c.17 0 .27.06.3.2a.08.08 0 0 0 .05.07.08.08 0 0 0 .09-.02c.08-.1.15-.22.18-.35.03-.1.07-.1.11 0 .04.07.04.16 0 .26-.02.1-.08.24-.15.4l-.05.05-.17.06a.16.16 0 0 0-.08.08.17.17 0 0 0-.02.13c.01.02.03.03.04 0a.8.8 0 0 1 .35-.2c.02 0 .03-.02.02-.05v-.06c.04-.03.07-.04.1-.03.04.03.08.06.1.1.03.03.05.07.05.11a.84.84 0 0 1-.22.67 7.93 7.93 0 0 0-.46.48Z" fill="#9C81AC"/><path d="M4.56 8.53c-.01-.05-.03-.08-.06-.08a3.64 3.64 0 0 1-.46 0c.04-.56.22-1.14.53-1.73.1.37.12.73.04 1.1-.02.1-.02.2-.01.33 0 .13 0 .26-.04.38Z" fill="#3A4E86"/><path d="m7.99 6.73.2.3-.13.24C7.9 7 7.88 6.83 8 6.73Z" fill="#DEC1DB"/><path d="M5.98 7.5c-.17.66-.24 1.34-.45 2-.01.02-.02.02-.04 0a.64.64 0 0 0-.2-.2v-.07c.08-.09.14-.18.21-.28.06-.08.1-.18.1-.29l.01-.32c0-.12-.02-.13-.09-.02-.1.2-.18.42-.22.69v-.06c0-.15-.02-.25-.08-.31a.2.2 0 0 1-.14-.07.1.1 0 0 0 .06 0c.03-.01.04-.03.04-.06-.01-.07.01-.11.08-.13.03-.01.04-.03.04-.06a.14.14 0 0 0-.05-.07c.06 0 .09 0 .1-.04.09-.3.15-.63.2-1a.9.9 0 0 1 .19-.38.27.27 0 0 1 .18-.04c.02 0 .04.02.05.05.04.22.04.44 0 .66Z" fill="#7081C3"/><path d="M6.86 6.8a.06.06 0 0 0-.1 0l-.33.35a.06.06 0 1 0 .09.09l.34-.35a.06.06 0 0 0 0-.09Z" fill="#585EB0"/><path d="M8.5 7.22c-.03.05 0 .06.1.02l.38-.12c.28-.09.61-.06.89-.06.29 0 .3.06.03.18-.04.01-.13.07-.28.16-.4-.2-.8-.2-1.05.22-.12.1-.16.22-.1.38 0 .03.03.06.07.08.03.03.07.04.12.04.08.01.12.07.1.17 0 .03.02.05.04.07a.1.1 0 0 0 .06.02c.02 0 .04 0 .05-.03l.02-.05A.08.08 0 0 1 9 8.26c.14-.03.25-.02.33.03.08.05.07.08-.02.08a.3.3 0 0 0-.24.12c-.22-.04-.34-.12-.37-.25a.07.07 0 0 0-.05-.05.34.34 0 0 1-.16-.09.15.15 0 0 1-.04-.07.88.88 0 0 1 .01-.4c0-.02 0-.03-.03-.03l-.3.01c-.03 0-.05.02-.05.06v.13a.2.2 0 0 1-.02-.06l-.02-.14c0-.03.01-.05.05-.04l.03.02c.03.02.04 0 .03-.03a10 10 0 0 0-.08-.28l.13-.24c.08.12.14.23.3.19Z" fill="#814C62"/><path d="M7.95 7.5c-.09-.12-.2-.17-.33-.07-.37.27-.3.6-.1 1 0 .02 0 .04-.03.05a.17.17 0 0 0-.1.15c-.14-.2-.23-.4-.27-.59-.02-.1 0-.2.05-.3.14-.25.24-.62.63-.47.1.03.14.1.15.23Z" fill="#9C81AC"/><path d="m6.06 9.47-.13-.01c-.02 0-.03-.01-.03-.03.05-.66 0-1.4.26-2.12 0-.02.01-.03.03-.03l.45-.01a.01.01 0 0 1 .01 0v.01a6.3 6.3 0 0 0-.6 2.19Z" fill="#3A5575"/><path d="m9.62 7.4.06.31c.02.1-.02.17-.12.2-.14.06-.3.08-.47.06-.04 0-.05-.02-.02-.05l.06-.07.03-.02h.03l.18.08.03-.01v-.02a.06.06 0 0 0-.02-.08c-.11-.05-.12-.13-.03-.23a.05.05 0 0 0 0-.06c-.02-.02-.05-.02-.08.01h-.01c-.07.1-.15.1-.25.02a.03.03 0 0 0-.05 0l-.03.04c-.02.02-.01.04.01.05l.12.05c.03.02.04.04.01.07a.6.6 0 0 1-.2.16.79.79 0 0 1-.3-.3c.24-.4.65-.41 1.05-.2Z" fill="#E9E8F7"/><path d="m7.95 7.5.1.24.02.06c.06.2.07.43.04.66-.19.17-.42.23-.71.17 0-.07.03-.12.1-.15.02-.01.02-.03.01-.05-.19-.4-.26-.73.11-1 .13-.1.24-.05.33.07Z" fill="#BD99C4"/><path d="m5.98 7.5-.22 1.76c-.2.98-.14 1.94-.08 2.93a.27.27 0 0 1-.1.01.76.76 0 0 1-.23-.51.06.06 0 0 0-.05-.06h-.03l-.23.05a.02.02 0 0 1-.02-.02c.08-.2.13-.39.13-.54.01-.15.04-.16.09-.01l.04.2.01.03c.02.02.03.02.05.02.03 0 .05-.02.05-.05l.1-1.37c0-.03 0-.05-.04-.05h-.04c-.05-.01-.08-.03-.1-.08L5.3 9.3c.08.05.14.12.2.2 0 .02.02.02.03 0 .2-.66.28-1.34.45-2Z" fill="#585EB0"/><path d="M11.84 7.82c.08-.01.14 0 .18.02.03.01.04.03.04.06l-.05.33c-.06.3-.05.6.03.9.04.16.01.27-.03.41-.02.07 0 .13.05.17-.22.16-.18.72-.16.96l-.13-.04a.26.26 0 0 1-.23-.1.08.08 0 0 1-.02-.07l.04-.2c.05.01.1 0 .12-.03.01-.02.02-.03.01-.05l-.01-.02a.05.05 0 0 0-.03-.02.05.05 0 0 0-.04 0c-.06.06-.13.07-.2.06a.07.07 0 0 1-.05-.05c-.02-.08-.09-.12-.19-.12l-.49.01c-.08 0-.16-.03-.21-.02a.1.1 0 0 1-.06-.01.12.12 0 0 1-.04-.04.16.16 0 0 1-.03-.06v-.07c.04-.2.04-.42-.01-.64.44.09.72.13.85.14.07 0 .16-.04.27-.1a.06.06 0 0 0 .04-.07 9.59 9.59 0 0 1 0-1.57 1.23 1.23 0 0 1 .08.5.05.05 0 0 0 .04.03h.02l.29-.07c.03-.01.04-.03.04-.06a.28.28 0 0 0-.12-.18Z" fill="#446EA5"/><path d="M9.06 8.5c-.15.14-.28.33-.38.57-.2.32-.22.6-.06.81-.04 0-.09-.04-.13-.1a.1.1 0 0 0-.19.06c-.02.13 0 .27-.03.4l-.04.17-.01-.24.04-.44v.04h.02l.01-.02c.03-.17-.06-.3-.06-.45 0-.33.03-.56-.07-.75a.12.12 0 0 1-.02-.07l.02-.39c0-.02-.01-.02-.03-.01v.01c.02.12.01.25-.02.37a1.6 1.6 0 0 0-.04-.66v-.13c0-.04.02-.06.06-.06h.3c.02 0 .03 0 .02.03a.88.88 0 0 0 0 .39c0 .03 0 .05.03.07.03.04.08.07.16.09.02 0 .04.03.05.05.03.13.15.21.37.25Z" fill="#402537"/><path d="M8.57 7.62c.07.12.17.21.3.29l-.04.06a.04.04 0 0 0 .02.07c.35.08.71.08 1.08.02a.16.16 0 0 1 .13.03l.07.07a.03.03 0 0 1-.01.04c-.22 0-.34.02-.38.08a.04.04 0 0 0 0 .06c.17.12.3.25.38.4.06.1.08.17.07.23l-.06-.08c-.01-.03-.02-.03-.03 0a.73.73 0 0 0-.01.18c.04.24.07.49.09.73 0 .03 0 .05-.03.07a.87.87 0 0 1-.3.1l-.62.02c-.03 0-.05.01-.05.04 0 .04 0 .08.02.1-.24-.37-.46-.68-.52-1.06.1-.24.23-.43.38-.58a.3.3 0 0 1 .24-.12c.09 0 .1-.03.02-.08s-.19-.06-.33-.03a.08.08 0 0 0-.06.04l-.02.05c0 .03-.03.04-.05.03a.1.1 0 0 1-.06-.02.07.07 0 0 1-.03-.07c0-.1-.03-.16-.11-.17a.23.23 0 0 1-.12-.04.18.18 0 0 1-.07-.08c-.05-.16-.02-.29.1-.38Z" fill="#DEC1DB"/><path d="m13.14 9.03-.02.04-.03.01-.02-.31c.03-.25.22-.42.43-.66a.07.07 0 0 1 .08-.02l.03.01c.02.01.03.03 0 .04-.12.12-.25.27-.38.44a.55.55 0 0 0-.1.45Z" fill="#97AED5"/><path d="m5.1 8.15.15.1.05.07c0 .03-.01.05-.04.06-.07.02-.1.06-.08.13 0 .03 0 .05-.04.06a.1.1 0 0 1-.06 0l-.13-.07-.03-.02v-.03l.02-.22c0-.03.01-.05.05-.06a.3.3 0 0 1 .11-.02Z" fill="#D3FCFC"/><path d="M12.01 8.23c.13.11.1.34.13.46 0 .02.02.05.04.06l.34.28a.06.06 0 0 0 .09-.04.85.85 0 0 1 .09-.27l.07.86c0 .02 0 .05-.03.06a.79.79 0 0 1-.4.06.27.27 0 0 1 .13-.07c.06.02.1.02.15 0a.07.07 0 0 0 .05-.06.64.64 0 0 0-.03-.3c-.13-.1-.25-.22-.36-.35-.1-.12-.15-.1-.14.06 0 .06.02.13.04.23v.49c-.03.02-.07.02-.12.01-.05-.04-.07-.1-.05-.17.04-.14.07-.25.03-.4-.08-.3-.09-.6-.03-.91ZM5.3 9.24V9c.04-.27.11-.5.22-.7.07-.1.1-.1.1.03l-.02.32c0 .11-.04.2-.1.3l-.2.28Z" fill="#97AED5"/><path d="M4.56 8.53c-.2-.01-.38.02-.54.1 0-.06 0-.11.03-.16.15 0 .3 0 .45-.02.03 0 .05.03.06.08Z" fill="#7A70AE"/><path d="M4.55 8.53a.1.1 0 0 0-.03.01c-.03.01-.04.03-.03.06.06.14.07.29.06.44 0 .04-.03.06-.08.05.07-.1.02-.11-.13-.06l-.29.1a.06.06 0 0 0-.04.06L4 9.25l.02-.63c.16-.07.33-.1.53-.09Z" fill="#3A4E86"/><path d="m13.98 8.53.01.5-.46.08c.04-.09.03-.17-.03-.23l.31-.31c.07 0 .13-.02.17-.04Z" fill="#585EB0"/><path d="M5.08 8.57a.2.2 0 0 0 .14.07c0 .04-.02.07-.07.09a.08.08 0 0 0-.05.06c-.02.07-.06.11-.12.13a.06.06 0 0 1-.07-.08.4.4 0 0 0 .06-.21c0-.03.01-.05.04-.05l.07-.01Z" fill="#3F2F79"/><path d="m13.81 8.57-.3.3c-.18.12-.2.06-.06-.18a.1.1 0 0 1 .06-.05l.3-.07Z" fill="#AAE1F2"/><path d="M8.18 9.46c-.14 0-.18-.16-.1-.49a.7.7 0 0 1 .04-.22c.01-.02.03-.03.05-.01.05.03.07.08.06.16l-.05.56Z" fill="#7A70AE"/><path d="m13.07 8.77.02.3v.01h.03v-.01l.02-.04c.03.06.03.11.01.16-.04.03-.01.08.1.14.02.02.04 0 .04-.03 0-.01 0-.04-.03-.06h.06c.03.01.05 0 .05-.03l.04-.06c0 .05 0 .09.02.12.02.02.04.03.07.03l.5-.06c-.02.41-.1.84-.24 1.27l-.13-.2a.08.08 0 0 1 0-.08.72.72 0 0 0-.07-.7c-.01-.03-.03-.04-.06-.03l-.16.07c-.04.01-.05.03-.04.07.01.1.03.2.06.27.02.06 0 .1-.06.11a.06.06 0 0 0-.05.06v.05c0 .03.03.05.07.06h.11c-.1 0-.18.01-.22.05-.02.02-.03.04 0 .06.01.02.03.03.05.03a.11.11 0 0 1-.08.05l-.03-.01a.05.05 0 0 1-.02-.03l-.07-.29c-.01-.03 0-.05.02-.08l.07-.1a.08.08 0 0 0 .02-.07.3.3 0 0 0-.11-.19c.05-.03.07-.1.08-.2a.05.05 0 0 0-.02-.03.05.05 0 0 0-.03-.01c-.03 0-.06.02-.1.06 0-.12.01-.25.05-.37.01-.02.02-.05.01-.08 0-.07 0-.14.02-.21Z" fill="#3F5F8C"/><path d="M10.19 8.97c.06.06.11.14.14.23.05.22.05.43.01.64v.07l.03.06.04.04a.1.1 0 0 0 .06 0c.05 0 .13.04.21.03l.5-.01c.1 0 .16.04.18.12l.02.03.03.02c.07.01.14 0 .2-.05a.05.05 0 0 1 .04-.01.05.05 0 0 1 .03.02l.01.02-.01.05c-.03.03-.07.04-.12.04-.31-.02-.36.3-.74.1a1.68 1.68 0 0 0-.85-.21l-.11-.2c.1-.01.2-.05.29-.1a.06.06 0 0 0 .03-.06c-.02-.24-.05-.49-.1-.73l.02-.18c0-.03.02-.03.03 0l.06.08Z" fill="#AAE1F2"/><path d="M5.3 8.95V9.3l.02.51a.83.83 0 0 0-.47-.09l.07-.63a.05.05 0 0 1 .06-.04h.09a.04.04 0 0 0 .04-.03c0-.06.02-.1.07-.15.02-.02.04-.02.06 0 .02.02.04.04.05.08Z" fill="#3A4E86"/><path d="M12.47 9.63a.83.83 0 0 1-.33-.65c-.01-.16.03-.18.14-.06a3.3 3.3 0 0 0 .37.36c.02.09.03.19.02.29 0 .03-.02.05-.05.06a.2.2 0 0 1-.15 0Z" fill="#3F2F79"/><path d="M8.07 8.97c-.07.33-.03.5.11.5l.11.28-.01.02h-.01v-.04c0-.1-.05-.13-.14-.08-.37.21-.75.14-1.26.1-.18-.02-.4.05-.64.2-.05 0-.09 0-.12.02l-.02.06c.13.36.15.68.08.97-.12.44-.27.8.04 1.12l-.53.07c-.06-1-.12-1.95.08-2.93a12.08 12.08 0 0 0-.05 1.98l.03.01c.03 0 .05 0 .07-.03.25-.55.23-1.18.3-1.73l.01-.04a.07.07 0 0 1 .04-.01l1.78-.05c.03 0 .05-.02.06-.05l.07-.37Z" fill="#3E58A5"/><path d="m4.47 9.09-.43.18L4 9.25v-.06c0-.03.02-.05.05-.06l.29-.1c.15-.05.2-.03.13.06Z" fill="#B8CBFA"/><path d="M14 9.04v.2l-.5.06c-.03 0-.05 0-.07-.03-.02-.03-.02-.07-.02-.12l.12-.04.46-.07Z" fill="#AAE1F2"/><path d="M9.2 10.14c0 .01 0 .02.02.03-.06.01-.12 0-.16-.02l-.44-.27c-.16-.22-.14-.49.06-.81.06.38.28.7.52 1.07Z" fill="#BD99C4"/><path d="M12.47 9.63a.27.27 0 0 0-.12.07l-.17.05a.12.12 0 0 0-.07.17c.1.16.22.11.38.13h.11c.18-.1.24-.05.19.14-.02.09-.02.2 0 .36 0 .02 0 .04.02.05.02.02.04.02.06.02h.3c.02 0 .03 0 .03.02v.02l-.01.02-.02.01-.33.01a.05.05 0 0 0-.04.04v.23c0 .05.01.12.04.22.05.12.05.26 0 .42-.03-.02-.06-.02-.1 0-.02 0-.04.01-.04.03 0 .03 0 .05.04.05.13.02.18 0 .15-.07a.2.2 0 0 0 .07-.02.08.08 0 0 0 .04-.08v-.37a.07.07 0 0 1 .02-.05.06.06 0 0 1 .05-.01l.42.1c-.19.4-.43.76-.72 1.1-.2.09-.49.04-.85-.13 0 .05-.05.06-.16.02h.15c.03 0 .04-.02.03-.05a.38.38 0 0 1 .02-.3.1.1 0 0 1 .05-.05l.06-.03a.05.05 0 0 1 .05 0 .05.05 0 0 1 .02.06l-.03.35c0 .03.01.05.04.06l.08-.01c.02-.02.04-.05.05-.09a8.04 8.04 0 0 0 .08-.38.08.08 0 0 0-.02-.03c-.12-.12-.23-.13-.36-.05-.1.07-.12.05-.05-.05.07-.1.06-.26-.03-.45-.01-.03-.03-.03-.04 0a.5.5 0 0 0-.02.29c0 .02 0 .03-.03.03h-.04a.04.04 0 0 1-.03-.04v-.32c-.01-.03 0-.06.02-.07a.18.18 0 0 1 .09-.04c.02 0 .04-.02.04-.05v-.3c-.01-.23-.05-.79.17-.95.05.01.09 0 .11-.02.02-.02.02-.05.02-.1a1.55 1.55 0 0 1-.01-.38c.06.18.15.31.29.42Z" fill="#494795"/><path d="M4.54 9.25a.34.34 0 0 1-.23.15c-.16.02-.17.08-.04.17.03.01.09.02.17 0 .03 0 .05.02.05.05v.1a.16.16 0 0 0-.05.16c.06.2.07.4.05.6l-.05.22a.79.79 0 0 0-.04.23l-.15-.37.11.02c.13-.04.14-.08.01-.13-.09-.04-.14-.03-.14.04l-.16-.65c0-.14 0-.17-.03-.07l-.01-.34a.83.83 0 0 1 .51-.18Z" fill="#7081C3"/><path d="M4.54 9.25c.02.23 0 .38-.06.46a.22.22 0 0 0 .01-.1c0-.02-.02-.03-.05-.03l-.17-.01c-.13-.1-.12-.15.04-.17.1-.02.17-.06.23-.15Z" fill="#494795"/><path d="M13.06 9.61c-.07-.04-.1-.1-.08-.14.02-.05.02-.06 0-.04.05-.04.08-.06.11-.06a.05.05 0 0 1 .03.01.04.04 0 0 1 .02.03c0 .1-.03.17-.08.2Z" fill="#6AA8BB"/><path d="m8.26 9.73-.04.44-.06.32c-.13.17-.28.39-.46.5-.08.05-.16.09-.25.12l-.29.11a.22.22 0 0 1-.13.05c-.03 0-.04-.02-.03-.04.03-.07.08-.11.14-.13.15-.05.27-.1.35-.15.17-.14.38-.25.48-.43.11-.2.16-.41.13-.67l.03-.2c.1-.05.13-.02.13.08Z" fill="#97AED5"/><path d="m8.13 9.65-.03.2a.6.6 0 0 1-.02.23c0 .03-.02.04-.05.05-.44.03-.87 0-1.3-.11a.13.13 0 0 0-.14.07c-.2.44-.24 1-.33 1.46-.04.16-.03.35.01.56l-.06.01c-.31-.32-.16-.68-.04-1.12.07-.29.05-.61-.08-.96l.07.04c.04.02.06.01.08-.01.03-.03.02-.07-.01-.11.24-.16.46-.23.64-.21.51.04.89.11 1.26-.1Z" fill="#4164BD"/><path d="M8.1 9.85c.03.26-.02.48-.13.67-.1.18-.31.29-.48.43a3.3 3.3 0 0 0-.32.11.52.52 0 0 0-.27.2c-.12.21-.23.43-.3.66-.02.06 0 .1.07.1h.1c.06.01.1-.02.1-.08 0-.16.05-.33.15-.51.18.23.4.28.63.13.05.16.05.26 0 .3-.16.13-.14.19.06.18.12-.01.27 0 .45.01l-.21.01-1.54.04-.14.01c-.04-.21-.05-.4-.01-.56.09-.46.13-1.02.33-1.46a.13.13 0 0 1 .15-.07c.42.1.85.14 1.29.1.03 0 .04-.01.05-.04a.6.6 0 0 0 .02-.23Z" fill="#4577DE"/><path d="m5.58 12.2-.39.04-.3-.4c-.05-.26-.02-.46.1-.6.06-.07.04-.12-.05-.14-.09-.02-.14-.04-.16-.08-.09-.13.03-.27.16-.3a.04.04 0 0 0 .01-.07.53.53 0 0 0-.29-.09c-.07 0-.08-.02-.03-.07l.06-.06a.08.08 0 0 0 .02-.07.7.7 0 0 1 0-.25.12.12 0 0 1 .14-.1l.35.03c.05 0 .07.03.05.08-.03.09-.04.15-.03.18.05.17.07.35.06.53h.04l.1-.95.03.01c.03 0 .05.02.05.05l-.11 1.37c0 .03-.02.05-.05.05-.02 0-.03 0-.05-.02l-.01-.03a1.4 1.4 0 0 0-.04-.2c-.05-.15-.08-.14-.09.01a1.65 1.65 0 0 1-.13.55.02.02 0 0 0 .02.02l.23-.06a.06.06 0 0 1 .05.01.06.06 0 0 1 .03.05c0 .2.09.37.23.51Z" fill="#494795"/><path d="M6.23 9.96c.03.04.04.08.01.1-.02.03-.04.04-.08.02a.25.25 0 0 1-.07-.04c0-.04 0-.06.02-.07.03-.03.07-.03.12-.01Z" fill="#4582DF"/><path d="m9.86 9.96.1.2c-.24.04-.49.05-.74 0-.01 0-.02 0-.02-.02a.2.2 0 0 1-.02-.1c0-.04.02-.05.05-.05l.63-.03Z" fill="#E9E8F7"/><path d="M12.37 10.18c-.04.22-.1.4-.15.52-.04.08-.02.17-.04.23-.05.12-.08.12-.1 0a.87.87 0 0 1 .1-.57.13.13 0 0 0 .01-.08v-.12c0-.04.03-.06.07-.05h.06a.06.06 0 0 1 .05.04v.03Z" fill="#7081C3"/><path d="m11.56 10.27-.04.2c0 .02 0 .04.02.06.06.07.14.1.23.1l-.01.01c-.63.15-1.28.23-1.97.25-.03 0-.05 0-.07-.02a.32.32 0 0 0-.17-.07c-.17-.05-.29-.13-.35-.23-.06-.11-.09-.1-.07.03l.04.14a.73.73 0 0 1-.12-.54l.01-.05c.04.02.1.03.16.02.25.04.5.03.75-.01.3-.01.58.06.85.2.38.2.43-.11.74-.1Z" fill="#4582DF"/><path d="M8.22 10.17v.24l-.12.44c-.01.03 0 .04.03.04l.87.07a.05.05 0 0 0 .05-.01.05.05 0 0 0 .01-.05 1.88 1.88 0 0 1 0-.7c-.04.22 0 .4.1.54.04.04.08.06.12.07.07.05.13.12.18.19a.64.64 0 0 1-.47.18l-.94-.04c-.03 0-.04-.01-.04-.04l.06-.41a.32.32 0 0 0 .09-.2l.06-.32Z" fill="#2A3048"/><path d="M13.43 10.2c.05.08-.01.13-.17.13a.12.12 0 0 1-.05-.03c-.03-.02-.02-.04 0-.06.04-.04.12-.05.22-.04Z" fill="#7081C3"/><path d="M8.16 10.49c0 .07-.03.14-.09.2a.52.52 0 0 0-.15.56l-.05.24h-.19l-.11-.32a.05.05 0 0 0-.03-.04H7.5l-.36.15.02-.06.29-.11c.09-.03.17-.07.25-.12.18-.11.33-.33.46-.5Z" fill="#7A70AE"/><path d="M9.55 10.8c.28.16.58.4.63.63.03.1.06.32.08.63l-.55-.02-1.55.01a2.85 2.85 0 0 0-.45-.01c-.2 0-.22-.05-.07-.18.06-.04.06-.14 0-.3l.04-.06h.2c-.02.07 0 .13.06.16h.09l.34-.17a.17.17 0 0 1 .15 0c.02 0 .04.02.05.04l.03.07c0 .07.06.12.13.14.16.04.34.07.54.1.03 0 .05 0 .07-.03l.16-.2a.05.05 0 0 1 .05-.02.05.05 0 0 1 .04.02c.1.15.26.24.46.27a.06.06 0 0 0 .05-.02.06.06 0 0 0 .02-.06l-.1-.43a.12.12 0 0 0-.06-.07l-.68-.49a.27.27 0 0 1-.11-.07 1.03 1.03 0 0 1-.04-.14c-.02-.13 0-.14.07-.03.06.1.18.18.35.23Z" fill="#67A2F3"/><path d="m11.9 10.67-.01.29c0 .03-.02.04-.04.05a.18.18 0 0 0-.1.04.1.1 0 0 0-.02.07l.01.32.01.03h.02l.04.01c.03 0 .04 0 .03-.03a.5.5 0 0 1 .02-.29c.01-.03.03-.03.04 0 .09.2.1.34.03.45-.07.1-.05.12.05.05.13-.08.24-.07.36.05a.08.08 0 0 1 .02.07l-.08.34c-.01.04-.03.07-.05.09h-.08c-.03 0-.04-.02-.04-.05l.03-.35v-.03a.05.05 0 0 0-.07-.03l-.06.03a.1.1 0 0 0-.05.04.38.38 0 0 0-.02.31c.01.03 0 .04-.03.04l-.15.01h-.08l-.08-.02.23-.03c.04 0 .05-.03.03-.06-.02-.03-.06-.05-.13-.08a.14.14 0 0 1-.08-.14l.05-.67a.04.04 0 0 0-.02-.04l-.06-.02c-.01-.01-.03 0-.03.01l-.01.2c0 .03-.02.05-.05.04h-.13a.05.05 0 0 1-.04-.08l.4-.65v-.01l.14.04Z" fill="#4164BD"/><path d="m11.76 10.64-.4.65a.05.05 0 0 0 0 .05.05.05 0 0 0 .04.02l.13.01c.03 0 .05 0 .05-.03l.01-.2c0-.03.02-.03.03-.02l.06.02.01.01v.03l-.04.67a.14.14 0 0 0 .08.14c.07.03.1.05.13.08.02.03 0 .05-.03.06l-.23.03-1.34-.1a4.87 4.87 0 0 0-.08-.63c-.05-.23-.35-.47-.63-.63.06 0 .12.03.17.07.02.02.04.02.07.02.69-.02 1.34-.1 1.97-.25Z" fill="#478DF5"/><path d="m8.07 10.69-.06.41c0 .03.01.04.04.04l.94.04c.19 0 .34-.06.47-.18a.2.2 0 0 1 .12.1c.05.06.07.11.07.16 0 .03 0 .05-.03.06-.2.07-.38.1-.58.1-.36-.02-.73-.04-1.1-.08l-.02-.1a.52.52 0 0 1 .15-.55Z" fill="#3A5575"/><path d="m7.87 11.5.05-.25.03.1c.2.07.4.11.63.1a.1.1 0 0 1 .07.03.7.7 0 0 0 .5.17c.14 0 .26-.1.39-.14h.06l.28.13c.07.03.1 0 .1-.08v-.06a.26.26 0 0 0-.11-.21l-.29-.19a.2.2 0 0 0-.12-.1.77.77 0 0 0-.18-.19l.68.49c.03.01.05.04.05.07l.1.43a.06.06 0 0 1-.03.07h-.03a.66.66 0 0 1-.46-.26.05.05 0 0 0-.04-.02.05.05 0 0 0-.04.02l-.17.2a.07.07 0 0 1-.06.03c-.21-.03-.4-.06-.55-.1-.07-.02-.12-.07-.13-.14a.15.15 0 0 0-.08-.11.16.16 0 0 0-.15 0l-.34.17a.09.09 0 0 1-.09 0c-.05-.03-.08-.09-.07-.17Z" fill="#7081C3"/><path d="M7.5 10.95c-.1.05-.21.1-.36.15a.21.21 0 0 0-.14.13c0 .02 0 .04.03.04.04 0 .09-.02.13-.05l-.02.06-.12.15c-.1.18-.15.35-.15.51 0 .06-.04.1-.1.09l-.1-.01c-.07 0-.1-.04-.07-.1.07-.23.18-.45.3-.65a.52.52 0 0 1 .27-.2c.1-.05.21-.09.32-.12Z" fill="#67A2F3"/><path d="M7.95 11.34c.36.04.72.06 1.1.07.19.01.38-.02.57-.09.02 0 .04-.03.03-.06 0-.05-.02-.1-.07-.16l.29.19a.26.26 0 0 1 .11.21v.06c0 .09-.03.11-.1.08l-.28-.12a.09.09 0 0 0-.06 0c-.13.03-.26.12-.4.13a.7.7 0 0 1-.49-.17.1.1 0 0 0-.07-.03c-.23.01-.44-.03-.63-.1Z" fill="#3E58A5"/><path d="m7.68 11.5-.03.06c-.23.15-.45.1-.63-.13l.12-.15.36-.15a.05.05 0 0 1 .06.02v.02l.12.33Z" fill="#446EA5"/><path d="m12.84 11.6.05.02c.03.07-.02.09-.15.07-.04 0-.05-.02-.04-.05 0-.02.02-.03.04-.03.04-.02.07-.02.1 0Z" fill="#97AED5"/><path d="M9.71 12.04a62.45 62.45 0 0 1-2.09.2c-.16.02-.4.1-.74.26-.36.18-.69.26-1.06.37l-.07-.07c.28-.05.46-.12.56-.19.31-.21.65-.37 1.01-.49.08-.02.19-.04.31-.04.1 0 .21 0 .32-.02h.21l1.55-.02Z" fill="#1E0D38"/><path d="M7.95 12.06c-.1.02-.21.02-.32.02-.12 0-.23.02-.31.04-.36.12-.7.28-1 .5-.1.06-.3.13-.57.18l-.08-.07c.3-.12.55-.33.74-.63l1.54-.04Z" fill="#2D1C5A"/><path d="m9.71 12.04.55.02 1.34.1.08.02c0 .19-.04.36-.15.5a.06.06 0 0 1-.06.04 9.26 9.26 0 0 0-2.11-.05.03.03 0 0 0 0 .03l.03.02c.02 0 .03.02.02.04-.2.4-.24.8-.12 1.23a4.98 4.98 0 0 1-3.47-1.12c.37-.1.7-.2 1.06-.37.34-.15.58-.24.74-.25l1.5-.16c.2-.03.4-.04.59-.05Z" fill="#19042A"/><path d="M6.27 12.11h.14c-.19.3-.43.5-.74.62l-.48-.49.4-.04h.09l.53-.08h.06Z" fill="#3F2F79"/><path d="M11.76 12.18c.11.04.16.03.16-.02a1.36 1.36 0 0 1-.28.57v.03a.04.04 0 0 0 .03.03l.46.11A4.89 4.89 0 0 1 9.29 14c-.12-.43-.08-.84.12-1.24 0-.02 0-.04-.02-.04l-.03-.02a.03.03 0 0 1 0-.03v-.01h.02c.7-.06 1.4-.04 2.09.06.03 0 .05-.01.06-.03.1-.15.15-.32.15-.51h.08Z" fill="#1E0D38"/><path d="m12.77 12.3-.64.6-.46-.11-.02-.01a.04.04 0 0 1 0-.07c.1-.12.2-.3.27-.55.36.17.65.22.85.13Z" fill="#2D1C5A"/><defs><linearGradient id="a" x1="3.35" y1="3.12" x2="21.9" y2="24.43" gradientUnits="userSpaceOnUse"><stop stop-color="#1A1E21"/><stop offset="1" stop-color="#06060A"/></linearGradient></defs></svg>