<!-- by TradingView --><svg width="18" height="18" viewBox="0 0 18 18" xmlns="http://www.w3.org/2000/svg"><path fill="#F0F3FA" d="M0 0h18v18H0z"/><path d="m10.26 3.18-.03.2-.9-.11a.1.1 0 0 0-.08.01h-.04a.54.54 0 0 0-.3.01.87.87 0 0 0-.27-.03 364.79 364.79 0 0 0-.86.11.51.51 0 0 1-.1.03 1.53 1.53 0 0 0-.42.1c-.02.01-.02 0 0 0l.18-.25c.31-.09.56-.14.73-.15.25-.02.53-.06.83-.1.04 0 .11 0 .2.03l.2.03c.3.02.57.06.86.12Z" fill="#857A82"/><path d="m11.88 3.78-.16.14a7.49 7.49 0 0 0-1.49-.54l.03-.2a42.72 42.72 0 0 1 1.13.36 7.9 7.9 0 0 1 .5.24Z" fill="#C3C8CE"/><path d="m7.44 3.25-.19.25s0 .01 0 0a8.65 8.65 0 0 1 .63-.16c.1 0 .35-.04.76-.08.05 0 .14 0 .26.03.16.06.26.08.3.08a16.57 16.57 0 0 1 .21-.02l.11.04-.01.35c0 .03.01.05.04.05l.4.07c.06 0 .09-.02.1-.06l.06-.2c.02-.1.06-.1.1-.02v.07l-.02.23c0 .02 0 .04.03.04l.4.07c.01 0 .03 0 .04-.02.05-.04.1-.1.12-.17a.41.41 0 0 1-.11.34c-.16-.07-.33-.11-.5-.14a3.72 3.72 0 0 1-.28-.06.95.95 0 0 0-.3-.04h-.32a10.1 10.1 0 0 0-.97.03 6 6 0 0 0-1.2.3.98.98 0 0 0-.46.11c-.03.02-.05.01-.07-.02l-.14-.33c-.02-.04-.05-.06-.1-.04l-.22.1a.56.56 0 0 1-.18.1c-.02 0-.02 0 0-.02.05-.06.14-.15.27-.25a.6.6 0 0 0 .15-.23c.35-.17.71-.3 1.1-.4Z" fill="#4F4954"/><path d="M10.23 3.38c.52.13 1.02.3 1.5.54.34.22.67.46 1 .72.05.04.1.1.15.17l.13.1c.06.03.11.08.16.14v.03l-.01.01c-.02.02-.03.02-.05 0a1.27 1.27 0 0 0-.22-.18.46.46 0 0 1-.16-.15.9.9 0 0 0-.23-.22c-.1-.07-.19-.07-.26-.01a.28.28 0 0 0-.05.06c-.06.09-.1.1-.09.02.05-.09.12-.14.2-.15v-.04l-.76-.45-.55-.23c-.02-.03-.05-.04-.07-.03a9.53 9.53 0 0 1-.83-.24h-.1a2 2 0 0 0-.47-.08.27.27 0 0 1-.1-.04l-.06-.01-.15.03a.79.79 0 0 1-.3-.08.54.54 0 0 1 .3 0h.04l.02-.02a.1.1 0 0 1 .05 0l.91.11Z" fill="#0D161C"/><path d="M10.92 3.7a.25.25 0 0 0-.13.1.51.51 0 0 1-.13.17.05.05 0 0 1-.04.02l-.4-.07c-.02 0-.03-.02-.03-.04a2.81 2.81 0 0 1 .03-.3c-.05-.08-.08-.08-.11.01l-.06.2c-.01.05-.04.07-.1.07l-.4-.07c-.03 0-.04-.02-.04-.05l.01-.35a2 2 0 0 1 .47.07h.1a9.54 9.54 0 0 0 .84.24Z" fill="#7E868B"/><path d="M7.14 3.65a.03.03 0 0 0-.02.04l.11.28c0 .02.02.02.04.02l.02-.04-.11-.28a.03.03 0 0 0-.04-.02Z" fill="#857A82"/><path d="M6.35 3.65a.6.6 0 0 1-.15.23 4.63 4.63 0 0 0-.27.26.56.56 0 0 0 .18-.1.47.47 0 0 1-.22.14.1.1 0 0 0-.08.07.1.1 0 0 0 .02.11l.24.3-.01.03-.03.02c-.02.01-.04.01-.05-.01l-.2-.34c-.03-.05-.07-.06-.11-.02l-.47.37a.06.06 0 0 0-.03.05c0 .02.02.04.06.04l.02.01.2.2c.02.03.02.04 0 .06l-.02.01c-.02.02-.04.02-.06 0l-.16-.2a.12.12 0 0 0-.09-.05c-.03 0-.06 0-.1.03a.1.1 0 0 1-.04.03.05.05 0 0 0-.04.03.5.5 0 0 1-.17.2c-.07.04-.1.1-.1.15l.03.05.28.24c.02.01.02.03.02.04v.03c0 .01-.01.02-.03.02h-.03l-.31-.26c-.03-.03-.06-.03-.08 0l-.33.45c-.03.03-.02.06.01.09l.35.25v.04c-.02.02-.03.02-.05 0l-.36-.25c-.02-.02-.04-.01-.05 0a.38.38 0 0 0-.06.13.81.81 0 0 1-.18.3c0-.02-.01-.03-.02-.02a.08.08 0 0 0-.05.05 1.9 1.9 0 0 1-.12.27l-.1.22a5.89 5.89 0 0 0-.35 2.83c.02.19.07.4.14.65l.22.57c.01.04.04.06.09.05l.21-.04c.02 0 .03-.01.03-.03.01-.1 0-.21-.05-.34-.01-.03 0-.06.03-.08.02-.02.04-.01.05.01 0 .02.01.03.03.04.02 0 .03 0 .03-.03L4 10.22l.05.15c.02.12 0 .21-.06.29l-.01.05.05.25.01.02c.04.05.06.1.06.14 0 .04.01.1.04.18a2.74 2.74 0 0 1 .05.13c.04.04.07.09.08.14l-.01.04a.77.77 0 0 1-.34.18l-.02.01.01.02.02.01h.02a.71.71 0 0 0 .2-.08.4.4 0 0 1 .21-.06c.09 0 .18.02.27.06.22.37.5.7.82 1a.56.56 0 0 1-.22-.07h-.04a11.78 11.78 0 0 0-.3.31c0 .02.02.03.04.04h.05c.02-.02.03-.01.04 0 .05.12.13.23.24.33.12.1.25.21.4.3l.64.4.37.18.32.12.4.12.02.02c.02.02.05.03.07.03h.07c.33.09.68.14 1.05.16l.49.04c.06.02.08.03.06.06h-.63a6.38 6.38 0 0 1-1.07-.18.63.63 0 0 0-.17-.06 32.27 32.27 0 0 1-.73-.28 10.39 10.39 0 0 1-1.54-1.01c-.03-.01-.04 0-.03.03v.04l-.01.03h-.1l-.26-.26a5.99 5.99 0 0 1 1.74-9.45Z" fill="#263646"/><path d="m10.99 3.74-.05.01-.01.05c0 .05-.01.1-.04.13l-.03.15c0 .02 0 .03.02.04l.32.16c.03.02.06.01.1-.01a.08.08 0 0 1 .02-.02l.14-.04.02-.03a.39.39 0 0 1 .08-.12h.05c.03 0 .03.01.02.03l-.11.26c-.02.04-.01.07.03.1l.4.24c.07.05.12.02.15-.08 0 .08.03.07.09-.02a.28.28 0 0 1 .05-.06c.08-.06.16-.06.26.01.12.08.2.16.24.22.04.07.09.12.15.15l.22.18c.02.02.03.02.05 0v-.01c.02 0 .02-.02 0-.03a.52.52 0 0 0-.15-.14.48.48 0 0 1-.13-.1.82.82 0 0 0-.16-.17c-.32-.26-.65-.5-1-.72l.16-.14a5.9 5.9 0 0 1 2.94 6.65c-.04.03-.08.04-.11.04-.02 0-.03-.02-.03-.04.02-.22.04-.41.07-.57l.02-.3c0-.1.02-.2.05-.28l-.01-.04c0-.03-.02-.04-.05-.03-.02 0-.02.02-.02.03a5.16 5.16 0 0 1-.18 1.26c-.01.03-.04.05-.08.06-.28.1-.45.07-.53-.09a5.81 5.81 0 0 0 .03-2.83 5.13 5.13 0 0 0-3.31-3.5c.1-.11.13-.22.12-.34a.25.25 0 0 1 .13-.1c.03 0 .05.01.07.04Z" fill="#1F394C"/><path d="m10.99 3.74.55.23.02.09a.39.39 0 0 0-.08.12c0 .02-.02.03-.02.03l-.14.04s-.02 0-.03.02c-.03.02-.06.03-.1.01a4.18 4.18 0 0 0-.3-.16c-.03 0-.03-.02-.03-.04a.53.53 0 0 1 .03-.15.21.21 0 0 0 .04-.13v-.05c.02-.01.04-.02.06-.01Z" fill="#7E868B"/><path d="M10.67 4.14a2.78 2.78 0 0 0 .38.15 5.28 5.28 0 0 1 2.93 3.35l.05.22.05.22.03.17a5.81 5.81 0 0 1-.16 2.23l-.06.07a.08.08 0 0 0-.02.05c0 .03-.02.05-.04.07a.1.1 0 0 0-.03.04.83.83 0 0 1-.17.33.62.62 0 0 0-.14.19 1.78 1.78 0 0 1-.22.36v-.01c-.03-.02-.03-.04-.02-.06.16-.28.3-.56.4-.85a.28.28 0 0 1 .1-.1 4.47 4.47 0 0 0 .24-1.6v-.39a31.8 31.8 0 0 0-.08-.6 2.47 2.47 0 0 0-.11-.44 48.1 48.1 0 0 0-.15-.43.14.14 0 0 0-.1-.09c-.07-.02-.11 0-.12.06 0 .02.01.03.03.04l.05.02a2.5 2.5 0 0 1 .27.75c0 .03 0 .04-.02.04h-.03c-.02 0-.04-.02-.05-.04-.07-.3-.18-.58-.32-.83-.02-.03-.04-.04-.08-.03l-.02.02a.05.05 0 0 0 0 .05 2.46 2.46 0 0 1 .27.77c0 .02-.01.03-.03.02a.22.22 0 0 1-.06-.04c-.06-.19-.12-.38-.2-.58a2.38 2.38 0 0 0-.22-.43l-.41-.6c-.1-.15-.23-.3-.35-.42l-.4-.38c.26.1.49.25.7.46.06.06.1.13.14.2.05.1.09.17.13.21l.17.28.06.19c.04.12.14.18.29.18.03 0 .05-.01.07-.04.05-.09.05-.17 0-.25a1.39 1.39 0 0 0-.22-.23.43.43 0 0 1-.14-.24.54.54 0 0 0-.09-.22c-.1-.13-.2-.23-.27-.3a.43.43 0 0 1-.08-.07.32.32 0 0 0-.07-.08.33.33 0 0 1-.1-.1.6.6 0 0 0-.14-.17 3.52 3.52 0 0 1-.28-.24 2.54 2.54 0 0 1-.57-.23c-.27-.18-.49-.3-.66-.36a1.65 1.65 0 0 1-.28-.15c-.1-.06-.19-.1-.3-.13-.13-.04-.24.02-.33.17l-.05-.2a.04.04 0 0 0-.03-.03 4.2 4.2 0 0 0-1-.07v.04l.12.2a.1.1 0 0 1-.1-.02.07.07 0 0 1-.02-.04c-.02-.14-.16-.17-.42-.12l-.3.05c-.25.03-.42.06-.5.1l-.46.24.02-.05V4.4h-.07c-.4.16-.76.35-1.08.6a.12.12 0 0 0-.05.1v.02c0 .01 0 .02.02.02H6a16.12 16.12 0 0 1 .67-.42c0 .03 0 .05.02.06l-.33.21c-.18.1-.21.17-.1.17 0 .02-.03.04-.08.04a.2.2 0 0 0-.08.03 9.13 9.13 0 0 0-.77.68.96.96 0 0 0-.27.53l-.31-.1c.05-.08.06-.16.02-.23A5.39 5.39 0 0 1 8.3 3.92a10.1 10.1 0 0 1 .97-.03c.1.01.21.02.33.01.09 0 .18 0 .29.04l.28.06c.17.03.34.07.5.14Z" fill="#93AAB1"/><path d="M7.1 4.24A5.39 5.39 0 0 0 4.77 6.1a5.83 5.83 0 0 0-.85 1.96c-.05.11-.06.29-.05.53a5 5 0 0 1 0 .35c-.01.43.03.85.13 1.27l.02.33c0 .02-.01.03-.03.03a.04.04 0 0 1-.03-.04c-.01-.02-.02-.03-.05-.01-.03.02-.04.05-.03.08.04.13.06.24.05.34 0 .02-.01.03-.03.03l-.21.04c-.05 0-.08-.01-.1-.05l-.2-.57.52-.12v-.02c-.03-.02-.06-.03-.08-.02l-.34.08c-.07.02-.11 0-.13-.08a4.31 4.31 0 0 1-.1-1.06 6.43 6.43 0 0 1 .16-1.38 6.51 6.51 0 0 1 .47-1.4c.09-.12.15-.22.17-.3a.38.38 0 0 1 .06-.12c.01-.02.03-.03.05-.01l.36.26h.05V6.2c.02-.01.01-.02 0-.03l-.35-.25c-.03-.03-.03-.06-.01-.09l.33-.45c.02-.03.05-.03.08 0l.3.26h.04c.02 0 .02-.01.03-.02V5.6l-.01-.04-.29-.24a.07.07 0 0 1-.02-.05c0-.05.03-.1.1-.16a.5.5 0 0 0 .16-.2l.04-.02a.1.1 0 0 0 .05-.03.12.12 0 0 1 .1-.03c.03 0 .06.01.08.04l.16.2c.02.03.04.03.06.01l.02-.01c.02-.02.02-.03 0-.05l-.2-.2-.02-.02c-.04 0-.05-.02-.06-.04 0-.02.01-.04.03-.05l.47-.37c.04-.04.08-.03.11.02l.2.34c.01.02.03.02.05.01l.03-.02c.02 0 .02-.02 0-.04l-.23-.29a.1.1 0 0 1-.02-.1.1.1 0 0 1 .09-.08.47.47 0 0 0 .2-.13l.23-.1c.05-.02.08 0 .1.04l.14.33c.02.03.04.04.07.02.14-.07.3-.1.46-.1Z" fill="#192B3A"/><path d="M12.1 4.61c-.03.1-.08.13-.15.08l-.4-.24c-.04-.03-.05-.06-.03-.1l.11-.26c.01-.02 0-.03-.02-.04l-.05.01-.02-.1.76.46.01.02-.02.02c-.07.01-.13.06-.19.15ZM9.9 4.32l-.33-.04a.85.85 0 0 0-.45 0l-.19-.03-.12-.2v-.03a4.2 4.2 0 0 1 1 .07c.02 0 .03.01.03.03l.05.2Z" fill="#5B696C"/><path d="M9.57 4.28h-.24c-.03.02-.04.04 0 .06l.04.05a.1.1 0 0 0 .1.02l.21-.04c.13-.01.2.03.23.13 0 .02.02.03.04.04.2.1.42.15.65.16a.1.1 0 0 1 .05.02.7.7 0 0 0 .38.12.4.4 0 0 1 .13.03c.02 0 .03.02.05.03.1.1.21.22.34.33a3.36 3.36 0 0 1-.5-.24.41.41 0 0 0-.16-.06 13.54 13.54 0 0 1-.2-.05.1.1 0 0 0-.08-.04.75.75 0 0 1-.09-.02l-.04-.01a.73.73 0 0 0-.11-.04 2.7 2.7 0 0 1-.44-.11 1.03 1.03 0 0 0-.46-.14 3.4 3.4 0 0 0-.83 0 2.9 2.9 0 0 0-.6.13.29.29 0 0 0-.1.06.31.31 0 0 1-.1.07 4.19 4.19 0 0 1-.77.2.55.55 0 0 1-.15.15l-.22.14a.07.07 0 0 1-.05.02c-.07 0-.14.04-.2.11a.86.86 0 0 1-.07.07.06.06 0 0 1-.05.01l-.15-.02a10.58 10.58 0 0 1 .96-.57 2.44 2.44 0 0 0 .72-.26c.15-.07.28-.1.38-.11a5.8 5.8 0 0 0 .49-.07l.08-.1a.06.06 0 0 1 .05-.02c.1 0 .18-.02.26-.05a.85.85 0 0 1 .45 0Z" fill="#70979D"/><path d="m7.13 4.47-.46.25c-.12.05-.24.11-.34.2a2.31 2.31 0 0 1-.36.22c-.01 0-.02 0-.02-.02V5.1c0-.04.02-.07.05-.1a4.12 4.12 0 0 1 1.14-.6c.02 0 .02.02.01.03a.07.07 0 0 0-.02.05Z" fill="#5B696C"/><path d="m11.55 5.23.3.21.4.38c.14.13.25.27.36.42a32.34 32.34 0 0 1 .44.64c.1.16.16.3.2.39l.19.58.13.88-.01.58-.12.73-.12.6a4.13 4.13 0 0 1-1.6 2.08l-.56.35a.57.57 0 0 1-.4.07c-.02 0-.03 0-.03-.02l.01-.03.17-.1.42-.23.32-.2c.06-.04.12-.1.2-.19a4.35 4.35 0 0 0 1.57-3.22c0-.27-.02-.53-.06-.8-.03-.35-.1-.62-.18-.82-.1-.21-.26-.47-.48-.77l-.27-.4c-.1-.16-.22-.3-.35-.42a.8.8 0 0 0-.16-.17c-.13-.1-.29-.2-.47-.29a3.6 3.6 0 0 0-3.06-.69.25.25 0 0 1-.12-.03c-.02-.01-.02-.02 0-.04a.4.4 0 0 0 .1-.1c0-.02.01-.03.03-.04l.25-.05c.22-.04.5-.04.82-.01.19.01.34.06.47.14.03.02.17.05.43.11a.72.72 0 0 1 .15.05l.1.02a.1.1 0 0 1 .06.04l.05.02.16.03c.05 0 .1.02.16.06.16.1.33.18.5.24Z" fill="#0D161C"/><path d="m8.64 4.53-.24.05a.06.06 0 0 0-.04.03.4.4 0 0 1-.1.11v.04l.13.03a4.35 4.35 0 0 0-1.05.4c-.02.03-.02.03.02.02l.16-.06c.1-.05.16-.08.21-.09.26-.07.53-.12.82-.15.11.1.18.3.2.56a3.7 3.7 0 0 0-1.94 6.61l.44.15.2.15c.04.07.11.12.22.14.27 0 .5-.07.71-.23l.11-.08c.23-.19.44-.33.63-.44.44-.24.92-.3 1.44-.2.05.01.08.03.07.06a2.02 2.02 0 0 0-2.05.6l-.43.24c-.15.09-.34.15-.58.17-.16-.1-.26-.08-.3.04l.07.08a5.35 5.35 0 0 1-1.37-.95 1.9 1.9 0 0 1-.12-.15.22.22 0 0 0-.19-.09 5.65 5.65 0 0 1-.76-1.61c-.03-.1-.05-.24-.06-.44V9.5l-.03-.35a2.51 2.51 0 0 1 0-.5l.14-.84c.01-.02 0-.04-.02-.04h-.05a3.6 3.6 0 0 0-.16.72 9.39 9.39 0 0 0-.08.75h-.02a3.6 3.6 0 0 1 .02-.89c.04-.23.1-.52.2-.86.01-.07 0-.15-.04-.25h-.03c.1-.12.16-.24.17-.36l.41-.59a3.93 3.93 0 0 1 .59-.67c.04-.09.12-.14.24-.16l.15.02.05-.01a.86.86 0 0 0 .07-.07c.06-.07.13-.1.2-.1a2.7 2.7 0 0 1 .26-.17.55.55 0 0 0 .16-.15 4.19 4.19 0 0 0 .76-.2.31.31 0 0 0 .1-.07.29.29 0 0 1 .1-.06c.2-.06.4-.1.61-.12Z" fill="#263646"/><path d="M6.27 5.16c-.12 0-.09-.06.1-.17l.32-.21c.1-.04.2-.08.3-.15a.25.25 0 0 1 .1-.03h.04c.05-.02.07 0 .04.04l-.03.02c-.3.14-.59.31-.87.5Z" fill="#5E7379"/><path d="M11.45 5.48c.02.1-.02.1-.13.02a7.36 7.36 0 0 0-.94-.4 4.93 4.93 0 0 0-2.86.05l-.16.06c-.04.01-.04 0-.02-.03a.31.31 0 0 1 .16-.1l.15-.05c.24-.1.49-.18.74-.24a3.6 3.6 0 0 1 3.05.69Z" fill="#fff"/><path d="M11.45 5.48c.18.09.34.19.47.29l.16.17-.47.48a3.73 3.73 0 0 0-2.86-.95c-.02-.27-.09-.45-.2-.56a4.03 4.03 0 0 1 1.83.19 7.37 7.37 0 0 1 .94.4c.11.09.15.08.13-.02Z" fill="#414958"/><path d="m11.61 6.42.1.08c.04.06.03.07-.02.03a3.57 3.57 0 0 0-2.96-.6A3.74 3.74 0 0 0 6.3 7.7a3.64 3.64 0 0 0 .22 4.02l.29.36a3.7 3.7 0 0 1 1.94-6.61c1.1-.09 2.05.23 2.86.95Z" fill="#fff"/><path d="m11.61 6.42.47-.48c.13.12.25.26.35.42l.27.4c.22.3.38.56.48.77.09.2.15.47.18.82l-.01-.03s0-.01 0 0h-.02v.01c-.04.37-.08.74-.15 1.1-.08.5-.23.97-.46 1.42-.26.11-.5.14-.74.08a1.52 1.52 0 0 1-.66-.35c-.1-.1-.15-.2-.15-.33a23.47 23.47 0 0 0 .05-2.54c-.01-.04-.03-.06-.08-.06h-.67c-.05 0-.08.02-.08.07v2.19c0 .15-.05.25-.14.32a.7.7 0 0 1-.37.08H8.41c-.2 0-.32-.05-.4-.13-.06-.08-.1-.22-.1-.41V7.7c0-.04-.01-.06-.06-.06h-.68c-.05 0-.08.03-.08.09l.01 2.2a1 1 0 0 0 .18.52c-.42.12-.86.17-1.3.17a3.64 3.64 0 0 1 1.36-4.09 3.74 3.74 0 0 1 4.35-.01c.05.04.06.03.03-.03a.27.27 0 0 0-.1-.08Z" fill="#263E54"/><path d="M4.77 6.11c.04.07.03.15-.02.24-.14.2-.25.43-.34.67-.1.3-.2.6-.28.92 0 .03 0 .04.03.05.06 0 .1.03.12.07.02.03.03.07.03.12 0 .22-.09.38-.26.5-.06.18-.08.38-.08.62A3.93 3.93 0 0 0 4.4 11l.03-.01v-.02c0-.04-.01-.1-.05-.2a2.8 2.8 0 0 1-.23-1c0-.02.01-.03.03-.01.02 0 .03.03.03.05.04.26.1.52.2.76.04.1.1.19.16.27a9.5 9.5 0 0 0 .28.38l.42.44.07.08c0 .07.04.15.12.25l.07.08c.02.03.02.06 0 .09a.09.09 0 0 1-.06.06l-.1.01a.11.11 0 0 0-.09.08c-.01.04 0 .08.02.12l.08.1c.08.12.15.2.22.23l.45.36-.03.14-.03.04-.17.1v-.02c.11-.07.15-.13.13-.18l-.5-.45c-.32-.3-.6-.63-.82-1a1.99 1.99 0 0 1-.32-.52l-.14-.4a1.29 1.29 0 0 1-.05-.23.91.91 0 0 0-.07-.23L4 10.22c-.1-.42-.14-.84-.13-1.27a5 5 0 0 0 0-.35 1.34 1.34 0 0 1 .11-.7 5.83 5.83 0 0 1 .79-1.79Z" fill="#F2FBFC"/><path d="m4.75 6.35.3.1c-.12.15-.2.3-.26.44-.01.03 0 .06.04.07l-.06.29.03-.01a24.06 24.06 0 0 0-.32 1.08 7.35 7.35 0 0 0-.08.93.45.45 0 0 1-.04-.24c0-.03 0-.04-.03-.05H4.3c-.02 0-.03 0-.03.03v.4l-.02.01c0 .02-.01.02-.03.02l-.02-.03a1.67 1.67 0 0 1-.04-.45.16.16 0 0 0-.09-.16.05.05 0 0 1-.02-.04l-.01-.06a.57.57 0 0 0 .26-.5c0-.05-.01-.1-.03-.12a.16.16 0 0 0-.12-.07c-.03 0-.04-.02-.03-.05.08-.32.17-.62.28-.92.09-.24.2-.46.34-.67Z" fill="#5B696C"/><path d="M3.89 6.4c-.03.02-.05.04-.05.06-.01.05-.06.15-.14.31-.06.14-.16.48-.29 1.03a6.43 6.43 0 0 0-.15 1.7c.02.31.06.56.1.74.02.07.06.1.13.08l.34-.08c.02 0 .05 0 .08.02v.02l-.53.12a4.04 4.04 0 0 1-.14-.65 5.89 5.89 0 0 1 .62-3.37l.03.01Z" fill="#93AAB1"/><path d="m14.12 6.65-.32.15a.02.02 0 0 0-.01.03v.01c0 .01.02.02.03.01l.33-.15v-.03a.02.02 0 0 0-.03-.02Z" fill="#70979D"/><path d="M4.94 6.88a.85.85 0 0 1-.17.37l.06-.3c.04 0 .07-.03.11-.07Z" fill="#93AAB1"/><path d="M13.95 10.48c-.05.22-.12.43-.23.63v-.02c-.03-.01-.05 0-.07.02a3 3 0 0 1-.29.51.56.56 0 0 0-.08.12c-.06.12-.1.2-.13.23-.08.11-.3.36-.66.74a.5.5 0 0 1-.17.13c-.09.04-.1.01-.04-.06a.56.56 0 0 0 .1-.22c0-.02 0-.05-.03-.06a.06.06 0 0 0-.08 0c-.15.08-.3.2-.43.36-.02.02-.02.03 0 .05.05.07.05.14-.02.2-.18.2-.39.36-.62.47l-.12.05-.3.11c.1-.06.22-.11.35-.14a.97.97 0 0 0 .3-.17l.1-.06c.1-.06.2-.23.29-.5.01-.06 0-.07-.04-.04-.18.14-.38.22-.62.24l.56-.35a.35.35 0 0 1-.19.16v.03s0 .01 0 0c.12-.03.23-.1.33-.18.08-.08.15-.13.2-.16l.2-.15.43-.44c.23-.24.44-.57.62-1 .07-.15.07-.26.01-.34l.12-.6c0 .04 0 .06.03.08h.05c.12-.27.16-.54.14-.82v-.39c.01-.2-.02-.25-.09-.18l-.14-.88.07.04c.02.01.03 0 .03-.02l-.03-.16a2.46 2.46 0 0 0-.24-.6.05.05 0 0 1 0-.06l.02-.02c.03-.01.06 0 .08.03.14.25.24.52.32.83 0 .02.03.04.05.04h.03c.02 0 .03-.01.02-.03a2.5 2.5 0 0 0-.27-.76.16.16 0 0 0-.05-.02c-.02 0-.03-.02-.03-.04 0-.06.05-.08.13-.06.04.02.07.05.09.1l.15.42c.05.17.1.32.11.44l.08.6v.77a4.47 4.47 0 0 1-.24 1.21.28.28 0 0 0-.1.1c-.1.3-.24.58-.4.86-.01.02-.01.04.01.06h.02c.1-.12.16-.24.2-.35a.62.62 0 0 1 .15-.2.83.83 0 0 0 .17-.32.1.1 0 0 1 .03-.04.09.09 0 0 0 .03-.07l.02-.05.07-.07Z" fill="#5B696C"/><path d="M5.66 11.57c.35.43.73.8 1.15 1.08l.45.35v.04H7.2c.07.12.29.21.66.28v-.04l-.58-.25c.24.1.43.18.57.2.13.04.36.07.68.1.35.06.69.07 1.03.03.13-.01.26 0 .38.02.03 0 .03.02.02.04l-.02.03-.03.03c-.24.05-.38.08-.42.07a2.98 2.98 0 0 0-.55 0 .76.76 0 0 1-.24 0 9.63 9.63 0 0 1-1.28-.27c-.08-.1-.16-.14-.24-.15a.81.81 0 0 1-.37-.12l.34.02c.03 0 .03-.02.02-.05a6.81 6.81 0 0 1-.46-.23.53.53 0 0 0-.35-.01l-.64-.52-.39-.48-.07-.08a1.8 1.8 0 0 0-.13-.24L5 11.18c-.04-.1-.1-.2-.16-.3a2.41 2.41 0 0 1-.32-.87 7.19 7.19 0 0 0-.07-.3c-.02-.1-.04-.2-.04-.3a6.46 6.46 0 0 1 .12-1.3c.08-.3.17-.58.27-.87.04.1.05.18.03.25-.09.34-.15.63-.19.86a3.6 3.6 0 0 0-.02.9h.02l.01-.02c.02-.32.04-.56.07-.74.03-.27.09-.5.16-.71 0-.02.02-.02.03-.02h.02c.02.01.03.03.02.05l-.14.84c-.02.17-.02.33 0 .5l.03.35v.02c.01.2.03.34.06.44.18.6.43 1.13.76 1.61Z" fill="#0D161C"/><path d="M13.8 8.73a.26.26 0 0 0-.04-.1 14.07 14.07 0 0 1-.07-.59h.03l.02.02.06.08c.06.5.08.96.05 1.42 0 .07-.02.13-.04.16-.07.12-.1.11-.08-.03.04-.34.06-.66.06-.96Z" fill="#E8FEFE"/><path d="M14.72 8.81a.93.93 0 0 0-.02-.42c-.02-.05-.01-.1.01-.16a.07.07 0 0 0-.01-.08.07.07 0 0 0-.08-.02l-.4.06h-.03v-.03l.02-.03c.01-.02.02-.02.04-.02.1.01.18 0 .25-.04H14.71c.02 0 .03 0 .03.02a15.07 15.07 0 0 1 .07.74c0 .03-.02.05-.03.06h-.51v-.03c.01-.02.02-.02.03-.02h.4s.02-.01.02-.03Z" fill="#5E7379"/><path d="M13.36 8.35c.04.27.05.53.05.8a4.35 4.35 0 0 1-1.57 3.22l-.64.42c0 .02 0 .02.01.01a.15.15 0 0 1 .12-.04l-.42.23a5.8 5.8 0 0 0-.53.17.38.38 0 0 0-.18.07.06.06 0 0 1-.05.01 3.66 3.66 0 0 1-1.6.08l-.9-.27a6.26 6.26 0 0 1 .84.1h.24l.15.01.2.01c.62.02 1.2-.12 1.73-.41l.08-.04h.02c.27-.1.49-.27.65-.49.02-.01.01-.03 0-.04-.1-.06-.23-.15-.38-.28a.9.9 0 0 0-.37-.18c-.15-.05-.3-.08-.43-.08-.2-.05-.42-.07-.63-.06.3-.05.59-.04.88.04h.33c.02 0 .03 0 0-.01a.42.42 0 0 0-.16-.04.08.08 0 0 0-.04-.04l.65-.04c.2 0 .36-.03.45-.07a45.83 45.83 0 0 1 .71-.32l.15-.26c.22-.45.38-.92.46-1.42a12.7 12.7 0 0 0 .16-1.12l.02.04Z" fill="#2B97BD"/><path d="M4.05 8.68v.06l.03.04c.06.04.09.09.09.16 0 .19 0 .33.03.45l.03.03c.02 0 .03 0 .03-.02l.02-.02.02.23c0 .03.01.05.04.09l.03.02c.02 0 .03 0 .03-.03V9.4l.05.31.07.3A3.23 3.23 0 0 0 5 11.18l.14.24c.05.07.1.16.13.24l-.42-.44a.13.13 0 0 1-.03-.04 9.47 9.47 0 0 1-.25-.33 1.11 1.11 0 0 1-.15-.28c-.1-.24-.17-.5-.2-.76a.07.07 0 0 0-.04-.05c-.02-.02-.03-.01-.03.01l.07.42a15.19 15.19 0 0 1 .2.8h-.04a3.93 3.93 0 0 1-.4-1.7c-.01-.23.01-.43.07-.61Z" fill="#7E868B"/><path d="m13.66 9.3-.1.01.01-.58c.07-.07.1-.01.09.18v.39Z" fill="#93AAB1"/><path d="M4.4 9.25V9.7c0 .02-.01.03-.03.03a.05.05 0 0 1-.03-.02.17.17 0 0 1-.04-.09l-.02-.23v-.4c0-.02 0-.02.03-.02h.02c.02 0 .04.02.03.05 0 .09 0 .17.03.24Z" fill="#C3C8CE"/><path d="m14.83 10.43-.13.44a6.08 6.08 0 0 1-2.24 3.04l-.24-.08a25.1 25.1 0 0 0 .77-.6l.2-.19c.08-.07.17-.17.27-.3a10.17 10.17 0 0 0 .73-1.16l-.07.01a10.64 10.64 0 0 0-.16.25c-.12.22-.22.38-.3.48-.07.06-.12.13-.17.21-.07.1-.19.24-.36.42l-.18.2a2.5 2.5 0 0 1-.31.27c-.08.06-.14.1-.17.14a26.09 26.09 0 0 1-.87.55v-.62a9 9 0 0 0 .72-.52c.09-.06.18-.13.26-.22l.57-.64c.23-.28.42-.61.57-1a2.34 2.34 0 0 0 .23-.64c.08.16.25.2.53.1.04-.02.07-.04.08-.07v-.07a3.12 3.12 0 0 0 .13-.66 5.16 5.16 0 0 0 .07-.56c.03 0 .04 0 .05.03a.1.1 0 0 1 0 .04l-.04.29c0 .13 0 .23-.02.29-.03.16-.05.35-.07.57 0 .02.01.03.03.04.03 0 .07-.01.12-.04Z" fill="#2C78A3"/><path d="M13.66 9.3c.02.28-.02.55-.14.81 0 .01-.01.02-.03.02l-.02-.01c-.02-.02-.03-.04-.03-.08l.12-.73.1-.01Z" fill="#E0D8F8"/><path d="m3.73 9.53-.33.02a.02.02 0 0 0-.03.03v.02l.03.02.33-.02c.02 0 .03-.01.03-.02v-.03a.02.02 0 0 0-.03-.02Z" fill="#5B696C"/><path d="M11.17 10.25c0 .12.04.23.15.33.18.16.4.28.66.35.23.06.48.03.74-.08l-.15.26-.04.03-.67.3c-.1.03-.24.05-.45.06l-1.32-.23c-.31 0-.61.07-.9.2l-.59.23c-.26.1-.46.17-.6.19-.27.05-.56.03-.87-.03l-.6-.14a3.9 3.9 0 0 1-.55-1.09c.44 0 .88-.05 1.3-.17.24.3.62.46 1.15.46h1.45c.28 0 .53-.05.76-.15.21-.1.39-.27.53-.52Z" fill="#404E67"/><path d="M4.63 11.75a.68.68 0 0 0-.27-.06.4.4 0 0 0-.2.06.71.71 0 0 1-.21.09h-.02l-.02-.02v-.02l.01-.01a.77.77 0 0 0 .34-.18.04.04 0 0 0 .01-.04.37.37 0 0 0-.08-.14 2.73 2.73 0 0 0-.05-.12.58.58 0 0 1-.04-.2c0-.04-.02-.08-.06-.13v-.02l-.06-.25v-.05c.07-.08.1-.17.07-.29l.07.23c.01.1.03.18.05.23l.14.4c.05.13.15.3.32.52Z" fill="#5E7379"/><path d="M11.72 12.72a4.13 4.13 0 0 0 1.6-2.07c.06.07.06.18 0 .33-.19.43-.4.76-.63 1l-.42.44-.21.15c-.05.03-.12.08-.2.16-.1.08-.2.15-.33.19v-.04a.35.35 0 0 0 .19-.16Z" fill="#E0D8F8"/><path d="M13.72 11.11c-.15.39-.34.72-.57 1-.07.1-.26.3-.57.64-.09.09-.17.16-.26.22l-.18.14a8.93 8.93 0 0 1-.55.38l-.2.11h-.04c-.02-.03-.07-.03-.15-.02.23-.11.44-.27.63-.46.06-.07.07-.14 0-.21v-.05c.15-.15.3-.28.45-.37a.06.06 0 0 1 .07 0c.02.02.03.05.03.07a.56.56 0 0 1-.1.22c-.06.07-.04.1.05.06a.5.5 0 0 0 .17-.13c.36-.38.58-.63.65-.74.03-.03.07-.11.13-.23a.56.56 0 0 1 .08-.12 3 3 0 0 0 .3-.51c0-.02.03-.03.06-.02v.02Z" fill="#93AAB1"/><path d="M10.1 11.27a4.41 4.41 0 0 0-1.61.63l-.43.24c-.23.11-.5.14-.8.1l-.45-.16-.29-.36.6.14c.31.06.6.08.89.03a3 3 0 0 0 .6-.2l.57-.23c.3-.12.6-.18.91-.19Z" fill="#5B696C"/><path d="m11.41 11.5-.65.04a2.18 2.18 0 0 0-2.27.67l-.11.08-.49.2-.44-.1-.2-.16c.32.05.58.02.8-.09.1-.04.24-.12.44-.24a4.4 4.4 0 0 1 1.6-.62l1.32.22Z" fill="#5E7379"/><path d="m7.34 12.76.43.13-.17-.01-.06-.03-.02.01c0 .04-.02.05-.05.04a3.06 3.06 0 0 1-.31-.1l-.35-.15c-.42-.29-.8-.65-1.15-1.08.07 0 .14.03.19.1l.12.14.49.42c.23.18.52.35.88.53Z" fill="#E8FEFE"/><path d="M10.38 11.65c-.15.03-.3.06-.44.07-.21.03-.36.05-.45.08-.26.1-.5.24-.7.45l-.24.15c-.07 0-.17.05-.28.15h-.02l.01-.01.32-.3c.33-.36.72-.57 1.17-.65.21 0 .42.01.63.06Z" fill="#7E868B"/><path d="M12.22 13.83c-.15.1-.26.18-.32.2a5.37 5.37 0 0 1-2.75.75c.02-.02 0-.03-.06-.05.1-.03.2-.03.33 0 .03 0 .1-.01.17-.04.21-.02.4-.04.54-.08.21-.05.49-.12.82-.23l.65-.27.47-.28c.16-.1.3-.18.4-.27.03-.04.1-.08.17-.14.14-.11.24-.2.3-.28l.2-.2a3 3 0 0 0 .35-.4c.05-.09.1-.16.16-.22.08-.1.19-.26.3-.48a10.14 10.14 0 0 1 .17-.25l.07-.01c.01 0 .02 0 0 .02-.24.44-.49.82-.73 1.14-.1.13-.2.23-.27.3l-.2.2a25.1 25.1 0 0 1-.77.6Z" fill="#404E67"/><path d="M10.38 11.65c.14 0 .28.03.43.08l-.37-.02v.01l.43.12-.01.02h-.02c-.43-.1-.85-.1-1.26 0a1.6 1.6 0 0 0-.7.38l-.04.02c-.04.02-.06.02-.05 0 .2-.22.44-.37.7-.46.09-.03.24-.05.45-.08.14-.01.3-.04.44-.07Z" fill="#93AAB1"/><path d="M10.81 11.73c.16.04.28.1.37.18.15.13.28.22.38.28.01.01.02.03 0 .04a1.4 1.4 0 0 1-.65.49.55.55 0 0 1 .13-.07c.06-.02.1-.08.13-.17 0-.16-.07-.29-.22-.38-.1-.06-.21-.1-.33-.13a2.07 2.07 0 0 0-.96 0c-.28.07-.5.2-.66.41a2.8 2.8 0 0 0-.36.72c-.01.04-.04.06-.08.05a44.42 44.42 0 0 0-.8-.12c-.15-.02-.3-.06-.44-.13v-.03c.17.07.32.12.46.14.1.01.1 0 .01-.04l-.19-.1.17.02c.22.04.4-.02.54-.18l.24-.3.24-.16c-.01.03 0 .03.05 0l.04-.01c.22-.2.46-.33.7-.39a2.75 2.75 0 0 1 1.28 0c.01 0 .01 0 0 0l-.42-.13v-.01l.37.02Z" fill="#82A3CC"/><path d="M5.73 12.22a.25.25 0 0 0-.07.2c0 .03.01.04.03.06l.43.36.03.04c.04.1.1.16.19.21l.09.06c.02.08 0 .1-.07.05l-.37-.26a.69.69 0 0 1-.21-.24.22.22 0 0 0-.14-.1c-.02 0-.03 0-.04.02a.2.2 0 0 0 0 .14.67.67 0 0 1-.22-.23 1.73 1.73 0 0 0-.08-.1.11.11 0 0 1-.02-.12.11.11 0 0 1 .1-.08l.09-.01c.03-.01.06-.03.07-.06a.09.09 0 0 0-.01-.1 1.6 1.6 0 0 0-.07-.07c-.08-.1-.12-.18-.12-.25l.4.48Z" fill="#93AAB1"/><path d="M11.17 12.48a2.89 2.89 0 0 1-.13-.1l-.25-.2c-.39-.2-.79-.23-1.21-.07-.4.14-.68.49-.85 1.05a5.53 5.53 0 0 0-.47-.03c-.2-.04-.4-.06-.6-.08a1.28 1.28 0 0 1-.5-.25c.15.06.26.1.3.1.04 0 .05 0 .06-.04 0-.01 0-.02.02-.01l.06.03.2.09c.08.04.08.05-.02.04a1.85 1.85 0 0 1-.45-.14l-.01.02v.01c.14.07.28.11.43.13a49.89 49.89 0 0 1 .8.12c.05 0 .08-.01.1-.05.11-.33.23-.57.35-.72.16-.2.38-.34.66-.41.31-.08.63-.07.96 0 .12.03.23.07.33.13.15.1.22.22.22.38Z" fill="#C3C8CE"/><path d="M11.17 12.48c-.03.1-.07.15-.13.17a.55.55 0 0 0-.13.07h-.02a.66.66 0 0 0-.4-.39 1.12 1.12 0 0 0-1.21.26c-.08.07-.21.26-.4.57h-.15c.17-.56.46-.91.85-1.05.42-.16.83-.13 1.2.07.07.03.15.1.26.2a3 3 0 0 0 .13.1Z" fill="#E0D8F8"/><path d="M4.8 12.17v.02l-.23.17c-.1.07-.15.1-.16.09l-.02-.02.13-.13.24-.17h.01l.03.04Z" fill="#7E868B"/><path d="m6.37 12.74.45.27c.08.06.2.1.37.12.07 0 .15.06.24.15l-.4-.11c-.03-.01-.04 0-.02.02l.07.04.31.13c.02.01.06.03.1.03l.09.03c.2.08.4.15.62.2l-.63-.06-1.24-.71a.05.05 0 0 0-.06 0 .05.05 0 0 0-.02.05l.09.19a.47.47 0 0 1-.2-.2.11.11 0 0 0-.02-.05l-.43-.36a.08.08 0 0 1-.03-.06.25.25 0 0 1 .07-.2l.64.52Z" fill="#857A82"/><path d="M8.58 12.24a213.65 213.65 0 0 0-.31.31c.11-.1.2-.15.28-.15l-.24.3a.54.54 0 0 1-.54.2l-.43-.14-.07-.08.3-.04c.24-.02.43-.08.58-.17l.43-.23Z" fill="#70979D"/><path d="M8.38 12.29c-.2.16-.44.24-.7.23l.21-.03.49-.2Z" fill="#7E868B"/><path d="M8.93 12.38h-.04l-.31.68v.02h.04l.32-.68-.01-.02Z" fill="#C3C8CE"/><path d="M10.81 12.76c-.54.29-1.11.43-1.73.41.24-.34.5-.54.78-.6.28-.07.6 0 .95.19Z" fill="#fff"/><path d="M6.34 13.09a.64.64 0 0 1-.09-.19c0-.02 0-.04.02-.05a.05.05 0 0 1 .06 0l1.24.71-.25-.1-.02.01v.05l.21.13v.01a.2.2 0 0 0-.1-.02c-.02 0-.02 0 0 .02.03.03.05.04.07.04.16 0 .28.02.39.04a.27.27 0 0 0-.12 0c-.03 0-.03.01 0 .02.09.05.24.09.44.11l.1.01.3.02.62.02c.08 0 .09-.02.03-.07a5.43 5.43 0 0 0 .2-.05c.03 0 .04-.02.02-.04v-.01a.96.96 0 0 0-.37-.06c.07 0 .12 0 .14-.02.03 0 .05-.03.04-.06 0-.02-.01-.03-.03-.03l-.28-.03h.54c.04 0 .18-.02.42-.08.01 0 .03 0 .03-.02l.02-.03c.01-.02 0-.03-.02-.04a1.06 1.06 0 0 0-.38-.02 23.02 23.02 0 0 0 1-.25l.34-.12-.17.1-.01.03c0 .01 0 .02.02.02.15.03.29 0 .41-.07.24-.02.45-.1.62-.24.04-.03.05-.02.04.03-.09.28-.18.45-.29.5l-.1.07a.97.97 0 0 1-.3.17c-.13.03-.24.08-.35.14-.11.06-.22.1-.33.11a7.4 7.4 0 0 0-.79.14 2.1 2.1 0 0 1-.5.07 8.9 8.9 0 0 1-1-.04 4.65 4.65 0 0 1-1.66-.62c-.15-.05-.3-.14-.45-.28l-.45-.36a.2.2 0 0 1 0-.14c0-.02.02-.03.04-.02.06.02.1.05.14.1.06.1.13.19.21.24l.37.26c.07.05.09.03.07-.05l-.1-.06Z" fill="#5E7379"/><path d="M7.16 12.8c.15.12.32.2.5.25l.88.27a5.77 5.77 0 0 1-.68-.08c-.14-.04-.33-.1-.57-.21 0 .02-.03.02-.08 0h.04c.02 0 .02-.01 0-.03l-.44-.35.35.15Z" fill="#2C78A3"/><path d="m6.82 13-.45-.26a.53.53 0 0 1 .36.02 6.8 6.8 0 0 0 .45.22c.01.03 0 .05-.02.05L6.82 13Z" fill="#192B3A"/><path d="M5.23 12.68v.02c.02.01.01.03 0 .04-.1.07-.17.15-.24.25l-.03.02h-.03c-.02 0-.02-.02 0-.03a11.75 11.75 0 0 1 .28-.3h.02Z" fill="#93AAB1"/><path d="m5.45 12.75.5.45a.8.8 0 0 0-.3.47c-.14-.1-.27-.2-.39-.31-.1-.1-.19-.21-.24-.33 0-.01-.02-.02-.04 0a.08.08 0 0 1-.05 0c-.02 0-.03-.02-.03-.04 0-.03.01-.05.06-.07 0 .02-.02.04-.04.06l.01.03h.03c.01 0 .02 0 .03-.02.06-.1.15-.18.24-.25.01-.01.02-.03 0-.04v-.02c.07.04.14.07.22.07Z" fill="#77847F"/><path d="M7.21 13.04c.05.01.07.01.08-.01l.57.25.02.01v.02c-.38-.06-.6-.15-.67-.27Z" fill="#263E54"/><path d="M10.52 13.45c.18-.06.32-.14.3-.18 0-.04-.16-.02-.34.03-.18.06-.32.14-.3.18 0 .04.16.02.34-.03Z" fill="#E0D8F8"/><path d="M9.15 14.79a5.37 5.37 0 0 0 3.07-.96l.24.08a6.11 6.11 0 0 1-7.15-.18 3.37 3.37 0 0 1-.43-.37h.09c.01 0 .02-.01.02-.03l-.01-.04c0-.03 0-.04.03-.03l.05.05.05.04a10.37 10.37 0 0 0 1.44.93 32.27 32.27 0 0 0 .73.27c.06.01.11.03.17.06l.16.05a6.39 6.39 0 0 0 1.54.13Z" fill="#82A3CC"/><path d="m10.78 13.74.3-.1a.51.51 0 0 1 .17-.03c.01 0 .02 0 0 .02l-.23.18a.04.04 0 0 0-.02.04c.03.18.02.35-.05.53-.33.1-.6.18-.82.23-.15.04-.33.06-.54.08a.58.58 0 0 1-.38-.46c0-.02-.02-.03-.04-.03-.6-.04-1-.08-1.17-.13a30.1 30.1 0 0 1-.73-.2L7 13.82c-.03 0-.04 0-.04.04l.02.13c0 .02 0 .03-.02.04l-.3.22-.38-.18a.5.5 0 0 0 .44-.1.08.08 0 0 0 .02-.04l.07-.24c0-.03 0-.05-.03-.06a.83.83 0 0 1-.29-.22c.58.34 1.14.54 1.66.62.18.02.5.04 1 .04.14 0 .31-.02.5-.07.21-.05.47-.1.79-.14.1-.01.22-.05.33-.1Z" fill="#E0D8F8"/><path d="m7.57 13.56.64.06c.28.05.57.07.88.07a.96.96 0 0 1 .38.07c.01.02 0 .04-.03.04l-.33.04c-.42 0-.83-.03-1.24-.1-.1-.03-.23-.04-.39-.04-.02 0-.04-.01-.07-.04-.02-.01-.02-.02 0-.02a.2.2 0 0 1 .1.02v-.01l-.2-.13c-.02-.01-.02-.02-.02-.03l.01-.02h.02l.25.1Z" fill="#404E67"/><path d="M11.6 13.49v.62l-.65.27a.98.98 0 0 0 .05-.53c0-.01 0-.03.02-.04l.23-.18c.02-.01.02-.02 0-.02a.5.5 0 0 0-.17.02l.12-.05c.08-.01.13-.01.15.02h.04l.2-.11Z" fill="#82A3CC"/><path d="M7.87 13.74a6.32 6.32 0 0 0 1.37.1c.06.06.05.09-.03.08a45.03 45.03 0 0 0-.92-.04h-.1c-.2-.03-.35-.07-.45-.12-.02-.01-.02-.02 0-.02h.13Z" fill="#C3C8CE"/><path d="M7.27 13.88c.02.22-.07.38-.28.48l-.32-.12.3-.22a.04.04 0 0 0 .02-.04l-.02-.13c0-.03.01-.05.04-.04l.26.07Z" fill="#70979D"/><path d="m7.27 13.88.73.2c.18.04.57.08 1.17.12.02 0 .03 0 .04.03.04.22.16.38.38.46a.35.35 0 0 1-.18.03.66.66 0 0 0-.32.01 7.9 7.9 0 0 0-.49-.04 5.62 5.62 0 0 1-1.22-.2l-.4-.13c.21-.1.3-.26.29-.48Z" fill="#5680A7"/></svg>