<!-- by TradingView --><svg width="18" height="18" viewBox="0 0 18 18" xmlns="http://www.w3.org/2000/svg"><path fill="#53C1FE" d="M0 0h18v18H0z"/><path d="M7.01 4.75c.35-.05.61-.24.58-.42-.02-.18-.33-.28-.68-.22-.34.05-.6.24-.57.42.02.18.33.28.67.22ZM10.98 4.76c.35.05.65-.06.68-.24.02-.18-.23-.37-.58-.42-.35-.06-.65.05-.68.23-.03.18.23.37.58.43Z" fill="#A45934"/><path d="M11.1 5.14c-.18 1.72 2.07 3.04 1.8 1.09.7.54 1.15 1.26 1.34 2.16a7.79 7.79 0 0 1-.1 3.37c-.1.34-.28.66-.58.89a5.8 5.8 0 0 1-1.52.8c-2.09.75-4.17.73-6.25-.07-.65-.25-1.5-.65-1.81-1.32-.12-.25-.2-.6-.28-1.02-.26-1.72-.06-3.7 1.4-4.83 0 1.43 2.03-.18 1.85-1.07a6.3 6.3 0 0 1 4.14 0Z" fill="#E0966E"/><path d="M6.26 5.31c-.45.26-.84.56-1.15.9a3.4 3.4 0 0 0-1.28 1.97c-.02.08-.06.14-.12.18-.14.13-.24.2-.3.24-.14.08-.23.05-.3-.1-.15-.38-.19-.9.12-1.21.14-.15.72-.85 1.75-2.12l.14-.13c.25-.22.9.16 1.14.27ZM14.24 8.4a3.56 3.56 0 0 0-1.34-2.17c-.35-.39-.76-.7-1.24-.94.23-.07.45-.15.67-.24.14-.06.29-.08.43-.04.1.03.21.12.33.26.35.45.93 1.13 1.72 2.05.09.1.14.17.14.21.08.36.06.69-.07.99a.2.2 0 0 1-.14.12.2.2 0 0 1-.17-.05.69.69 0 0 0-.33-.2Z" fill="#A45934"/><path d="M6.95 5.14c.17.06.28.12.34.18.36 1.04-.85 2.48-1.62 3.04-.1.08-.28.17-.54.28-.27.11-.54.05-.8-.18-.08-.73.17-1.48.78-2.25.31-.34.7-.64 1.15-.9l.69-.17ZM11.1 5.14l.56.15c.48.24.89.55 1.24.94.49.6.76 1.25.8 1.93a.8.8 0 0 1-.1.37.74.74 0 0 1-.75.1A3.96 3.96 0 0 1 10.9 6.6c-.21-.45-.28-.9-.19-1.31l.4-.15Z"/><path d="M4.33 8.46c.26.23.53.29.8.17.26-.1.44-.2.54-.27.77-.56 1.98-2 1.62-3.04l.03-.02a.06.06 0 0 1 .06 0c.53.41.5 1.14.27 1.7-.41 1.03-1.47 2.32-2.69 2.14-.33-.04-.54-.27-.63-.68ZM10.7 5.29c-.09.42-.02.86.19 1.32.4.85 1.08 1.66 1.96 2.02.27.1.52.07.75-.1-.05.42-.32.64-.8.64-.23 0-.45-.04-.65-.15-1.02-.54-2.03-1.74-1.93-3 .03-.35.19-.6.48-.73Z" fill="#FEFEFE"/><path d="M9.83 7.75c-.32.08-.55.23-.67.46-.13.22-.09.48-.1.8 0 .89.74 1.25 1.51 1.1l1.17-.23c.17-.04.3-.03.37.02.25.18.16.43-.09.52-.3.13-.66.16-1.05.1-.7-.09-1.3-.19-1.76-.29 0-.18-.09-.26-.25-.22-.05.01-.12.06-.22.15-.02.03-.04.02-.04-.01v-.1c.11-.12.1-.15-.07-.08a.7.7 0 0 0-.35.36l-1.27.2c-.37.04-.9.05-1.2-.21A.23.23 0 0 1 5.8 10c.1-.12.24-.17.43-.14s.52.1 1 .22c.78.2 1.65-.06 1.73-.94a2 2 0 0 0-.05-.82c-.1-.28-.34-.47-.72-.57.55-.24 1.1-.24 1.65 0Z"/><path d="M8.18 7.75c.38.1.62.29.72.57a2 2 0 0 1 .05.82c-.08.88-.95 1.13-1.73.94-.48-.11-.81-.19-1-.22-.19-.03-.33.02-.43.14a.23.23 0 0 0 .03.32c.3.26.82.25 1.2.2.41-.06.83-.12 1.26-.2-.07.2-.16.42-.05.6.1.17.3.16.45.08.33-.17.5-.43.53-.77.47.1 1.05.2 1.76.3.4.05.74.02 1.05-.1.25-.1.34-.35.1-.53-.09-.05-.21-.06-.38-.03-.14.04-.53.11-1.17.24-.77.15-1.5-.21-1.5-1.1 0-.32-.04-.58.09-.8.12-.23.35-.38.67-.46.2.07.38.2.52.4.56.79 1.3 1.2 2.18 1.22.22 0 .38.04.46.1.56.47-.47 1.22-.8 1.37a8.81 8.81 0 0 1-4.16.51 5.23 5.23 0 0 1-2.6-.75c-.29-.21-.7-.62-.53-1 .12-.28.92-.25 1.17-.3.81-.2 1.17-.63 1.7-1.27a1 1 0 0 1 .4-.28Z" fill="#A45934"/><path d="M9.21 10.23c-.02.34-.2.6-.53.77-.15.08-.35.09-.45-.08-.1-.18-.02-.4.05-.6a.7.7 0 0 1 .35-.35c.16-.07.18-.04.07.09v.09c0 .03.02.04.04.01.1-.09.17-.14.22-.15.16-.04.24.04.25.22Z" fill="#FF729B"/><path d="M6.58 5.47c.03 0 .04.02.05.05.04.15.13.24.27.27.12.03.13.07.01.14-.12.07-.19.12-.22.27-.04.17-.07.25-.1.25-.04 0-.07-.08-.11-.25-.03-.15-.1-.2-.22-.27-.12-.06-.12-.1 0-.14.14-.03.23-.12.27-.27.01-.03.03-.05.05-.05ZM11.42 6.44c-.03 0-.07-.09-.1-.25-.04-.15-.1-.2-.23-.26-.1-.06-.1-.1.01-.13.14-.03.22-.12.26-.27 0-.03.02-.05.05-.05.02 0 .04.02.05.05.04.14.13.23.26.26.12.03.12.07.01.13-.12.07-.18.12-.21.27-.04.16-.07.25-.1.25Z" fill="#FEFEFE"/></svg>