<!-- by TradingView --><svg width="18" height="18" viewBox="0 0 18 18" xmlns="http://www.w3.org/2000/svg"><path fill="#7A40B8" d="M0 0h18v18H0z"/><path d="M11.02 11.6c.08.13.2.18.36.14.31-.06.32-.15.02-.26-.05-.02-.18 0-.37.04h-.08c-.04-.03-.04-.05 0-.08l.28-.17a.15.15 0 0 0 .08-.13v-.93c-.03-.64-.8-.64-.73-1.23a.11.11 0 0 1 .11-.1h.53c.06 0 .1-.03.1-.1V8c0-.02 0-.04.02-.05a.08.08 0 0 1 .05-.03h.07c.06 0 .1-.03.1-.09v-.29c0-.06.02-.1.08-.1.3-.04.52.09.64.4.02.05.06.08.12.1.15.02.2.13.11.3-.03.07 0 .1.06.13l.12.03a.12.12 0 0 1 .08.1v.54c0 .08.04.11.12.1.23-.06.37-.01.42.14.02.06.06.1.12.1s.08.03.07.08c0 .06.02.1.08.12.16.04.21.15.16.32v.09c.02.03.04.05.07.06.07.03.15.1.23.21a.14.14 0 0 0 .12.06c.27-.02.43-.01.47 0 .12.06.14.13.07.23.11-.04.2 0 .29.12l.01.3c-.21.17-.43.28-.65.33a.2.2 0 0 0-.13.08c-.23.32-.57.35-.85.62l-1.01 1H4.25s-.39-.47-.2-.88l.16-.35c.19-.66.61-1.1 1.28-1.3.05 0 .06-.03.02-.07-.63-.55-.98-.87-1.05-.96-.2-.26-.56-.8-.4-1.12.09-.19.15-.37.2-.54.11-.44.33-.81.63-1.11.64-.62 1.08-1.06 1.34-1.33a.22.22 0 0 1 .14-.07c.49-.02.82-.07 1.1.44a.07.07 0 0 0 .04.04.07.07 0 0 0 .06-.02l.42-.4a.17.17 0 0 1 .12-.06h.62c.06 0 .1.02.14.07l.22.3a.4.4 0 0 0 .13.12c.18.1.31.23.39.4a.2.2 0 0 0 .1.1c.18.08.32.21.41.4.02.04.06.06.11.06a.1.1 0 0 1 .06.02c.02.02.04.04.04.07v.73c0 .06-.04.1-.1.12-.12.03-.17.14-.14.3a.11.11 0 0 1-.04.1l-.2.21c-.04.04-.04.07.01.08l.13.05c.05.02.08.05.1.1.01.16.05.44-.09.6-.22.26-.41.43-.57.5a.13.13 0 0 0-.06.06.13.13 0 0 0-.02.07v.48c0 .07.04.1.1.1l.3.01c.05 0 .09.02.1.06.02.01.02.03.02.05 0 .02 0 .03.02.04l.61.61c.05.05.07.1.07.17v.16c0 .07.04.1.1.1.15 0 .27.03.35.08Z" fill="#020202"/><path d="M11.82 13h-7.2l-.26-.42a.2.2 0 0 1-.03-.15.46.46 0 0 1 .1-.2c.03-.04.05-.09.06-.14.1-.52.1-.99.64-1.23a2 2 0 0 0 .56-.34c.05-.05.1-.05.15-.02l.24.15c.1.08.18.1.25.08.2-.06.22-.15.02-.25a.38.38 0 0 0-.11-.02.27.27 0 0 1-.12-.03C5.38 10 4.8 9.43 4.4 8.7c-.08-.15-.09-.34-.01-.57.12-.38.24-.7.34-.96.14-.34.37-.52.59-.81a.33.33 0 0 1 .13-.11c.2-.09.32-.22.39-.4a.2.2 0 0 1 .12-.13c.16-.07.26-.18.3-.34 0-.08.06-.12.14-.12h.75c.06 0 .1.04.1.1v.06l.01.05.04.03c.15.06.2.2.16.43 0 .06-.04.08-.1.08h-.32c-.06 0-.1-.03-.1-.1v-.07c0-.08-.03-.11-.1-.11h-.45c-.1 0-.14.04-.14.14v.09c0 .02.01.05.03.07a.1.1 0 0 0 .07.03h.3l.03.01.01.04v.09l-.03.02a.83.83 0 0 1-.3 0c-.08-.01-.12.02-.12.1v.08c0 .08.04.12.12.12h.26c.06 0 .1-.03.1-.1v-.09c0-.06.03-.1.09-.1h.8a.1.1 0 0 1 .08.04.1.1 0 0 1 .03.07c0 .12.04.18.15.17.07 0 .1.03.1.1s-.02.12-.04.14c-.03.02-.07.03-.12.02-.6-.04-1.25-.16-1.54.3a.16.16 0 0 0 0 .18l.05.04.38.24c.02.01.04.04.04.07 0 .03 0 .05-.02.06-.02.02-.03.02-.05 0a.2.2 0 0 0-.1-.06c-.1-.04-.1-.01.02.07.24.16.4.25.46.27.39.13.68.03.87-.28.06-.1.13-.18.2-.2.05-.02.07-.06.07-.11v-.73c0-.07-.03-.1-.1-.1l-.04-.01a.08.08 0 0 1-.07-.06.35.35 0 0 0-.23-.25.1.1 0 0 1-.06-.08v-.06A.07.07 0 0 1 7.75 6c.1 0 .13-.05.1-.14-.04-.15 0-.33.11-.53a.14.14 0 0 1 .13-.07h.7c.06 0 .1.02.12.08.09.19.24.34.47.44a.11.11 0 0 1 .06.09.12.12 0 0 1-.03.1.22.22 0 0 1-.13.06.09.09 0 0 1-.1-.05v-.03c0-.14-.1-.2-.27-.21l-.66-.02c-.04 0-.07.02-.07.06v.17c0 .06.04.1.1.1h.53c.04 0 .07.02.07.06v.06c0 .01 0 .02-.02.03l-.03.02h-.28c-.08 0-.11.03-.11.1v.1a.1.1 0 0 0 .06.1.1.1 0 0 0 .04 0h.3c.04 0 .07-.03.07-.08v-.1c0-.06.04-.1.1-.1h.78c.05 0 .1.03.11.08v.11a.07.07 0 0 0 .04.08h.11c.05 0 .09.03.1.08v.1a.1.1 0 0 1-.03.06.1.1 0 0 1-.07.02 5.29 5.29 0 0 0-1.14 0c-.19.01-.34.12-.46.31a.13.13 0 0 0 0 .15c.03.04.07.07.14.1.08.05.07.08 0 .1-.08.04-.13.06-.13.08v.16c.02.05.05.1.1.14.03.04.08.07.14.1a.5.5 0 0 0 .18.04l.67.02c.07 0 .1.04.1.11v.08c0 .09-.04.13-.12.12-.9-.05-1.77-.06-2.64 0-.09 0-.14-.05-.16-.16a.13.13 0 0 0-.1-.1c-.1-.04-.3-.04-.56 0-.07 0-.1.05-.1.12.01.06-.03.1-.11.1-.07.01-.1.05-.11.11-.08.49.1.85.5 1.1.11.06.36.08.77.08l2.04-.02c.06 0 .1.03.1.1v.47c0 .05-.03.08-.07.1-.12.03-.18.1-.18.23 0 .06-.04.1-.1.1h-.07c-.02 0-.04 0-.05.02a.07.07 0 0 0-.02.05v.09c0 .04.02.07.07.06.1-.01.16-.07.2-.16.02-.07.07-.1.14-.1h.64c.04 0 .08.01.12.05l.53.53c.02.03.04.06.03.1 0 .15.1.32.32.5.04.03.1.05.14.04.16-.02.25.03.28.14 0 .06.05.09.13.1.04.01.08.08.14.2.02.06.06.08.12.06.02 0 .03-.02.05-.04a.1.1 0 0 0 .02-.06v-.24c0-.08.03-.12.1-.13l.28-.05c.02 0 .03 0 .04-.02l.75-.76a.2.2 0 0 0 .06-.14v-1.2c0-.04.02-.06.06-.06h.07c.07 0 .1.04.1.1v.53c0 .06.03.09.09.09h.74c.1 0 .14.04.14.13v.84a.27.27 0 0 1-.17.24c-.36.14-.65.35-.9.64-.22.28-.44.36-.6.66a.23.23 0 0 1-.13.11l-.4.17Z" fill="#5CB746"/><path d="m11.02 11.56.01-.08c.2-.04.32-.05.37-.03.3.11.3.2-.02.26-.16.03-.28-.02-.36-.15Z" fill="#9E9E9E"/><path d="M10.8 13h-.74c-.05 0-.09-.06-.1-.11a.26.26 0 0 0-.12-.14.06.06 0 0 0-.06 0 .06.06 0 0 0-.02.01l-.01.03c-.01.2-.1.21-.32.21l-.05-.34a.09.09 0 0 0-.03-.05l-.39-.35a.34.34 0 0 1-.09-.14.32.32 0 0 1 .2-.41c.02 0 .06.03.14.12.03.03.04.09.03.15-.03.18.07.32.3.4.26.1.47.23.64.4.02.03.05.05.08.06l.53.16ZM5.72 12.97h-.29c-.3-.33-.36-.74-.18-1.2.02-.06.06-.08.12-.07.03 0 .06.02.08.05.02.02.02.06.02.1-.02.24-.02.48 0 .7 0 .06.02.1.07.13.13.08.2.17.18.3ZM12.74 4.67c-.23-.03-.4.01-.5.12l-.06-.01c-.05-.02-.06-.05-.04-.1.2-.4.54-.58 1-.57.12 0 .15-.06.1-.2a.17.17 0 0 0-.05-.07 1.3 1.3 0 0 0-.68-.34c-.27-.26-.52-.33-.74-.19-.31.2-.64.37-.97.54a.17.17 0 0 0-.1.12c-.07.33.06.55.4.67.1.03.3.04.62.01.18.12.3.27.37.46a1.12 1.12 0 0 1-.8.35.02.02 0 0 0 0 .03l.36.24c.02.02.05.03.08.02.41-.02.62-.29.6-.8a.06.06 0 0 1 .08-.05c.07.03.1.12.12.3 0 .05.03.08.09.08.07-.01.12-.05.15-.12a.51.51 0 0 0-.01-.37c-.02-.09 0-.14.06-.14.25-.01.48.1.67.34.04.05.03.1-.03.12a.52.52 0 0 0-.23.21.14.14 0 0 1-.13.07c-.1 0-.19 0-.23.02-.07.02-.1.05-.11.1a.3.3 0 0 1-.01.05c0 .02-.02.04-.04.06a.1.1 0 0 1-.06.02h-.24c-.06 0-.1.03-.11.09a.7.7 0 0 0 .02.35c0 .04.04.06.08.06h.06c.03 0 .05.02.07.04.03.05.03.1 0 .13a.08.08 0 0 1-.06.04c-.16.02-.22.12-.17.31.02.07 0 .11-.06.14a.65.65 0 0 0-.26.3.07.07 0 0 1-.13 0c-.06-.15-.13-.24-.22-.28a.13.13 0 0 1-.08-.13v-.24c0-.06.02-.08.08-.08h.05c.05 0 .08.02.1.07l.1.38c.03.1.06.1.09 0l.07-.31c.02-.06 0-.1-.05-.12a.81.81 0 0 1-.43-.41.22.22 0 0 0-.07-.1l-.36-.26c-.07-.05-.08-.11-.02-.17.17-.22.39-.32.63-.31.07 0 .1-.03.08-.1l-.03-.07c0-.04-.03-.06-.07-.06h-.7a.18.18 0 0 1-.13-.06l-.37-.36c-.87-.82 1.12-1.47 1.5-1.49.05 0 .1 0 .15.03.54.21.95.27 1.3.79a.23.23 0 0 1-.02.29l-.25.25a.18.18 0 0 1-.13.06c-.2 0-.3.08-.33.25Z" fill="#020202"/><path d="M12.51 3.5c.05.1.04.2 0 .3a.16.16 0 0 1-.13.1.5.5 0 0 0-.33.2.21.21 0 0 1-.14.09.9.9 0 0 1-.19 0l-.08.01a.12.12 0 0 0-.06.07c-.02.05 0 .09.05.11l.06.03c.04.01.07.04.1.08.02.07 0 .13-.07.16-.31.03-.52.02-.62-.01-.34-.12-.47-.34-.4-.67.01-.05.04-.1.1-.12.33-.17.66-.35.97-.54.22-.14.47-.07.74.19Z" fill="#73888A"/><path d="M12.24 4.79c-.1.11-.16.22-.15.32a.96.96 0 0 0-.37-.46c.07-.03.1-.09.06-.16a.17.17 0 0 0-.1-.08l-.05-.03c-.05-.02-.07-.06-.05-.1a.12.12 0 0 1 .06-.08h.08a.9.9 0 0 0 .19-.01c.06-.01.1-.04.14-.09a.5.5 0 0 1 .33-.2c.05 0 .1-.04.12-.1a.35.35 0 0 0 .01-.3c.28.05.5.17.68.34l.05.07c.05.14.02.2-.1.2-.46-.01-.8.18-1 .58-.02.04 0 .07.04.09h.06Z" fill="#2E373A"/><path d="m12.74 4.67.02.12c.05.13.05.25 0 .37-.02.07-.07.11-.14.12-.06 0-.1-.03-.1-.09 0-.17-.04-.26-.1-.29a.06.06 0 0 0-.08.06c0 .5-.2.77-.6.8-.04 0-.07-.01-.1-.03l-.34-.24a.02.02 0 0 1 0-.02.02.02 0 0 1 0-.01c.34-.03.6-.14.8-.35-.02-.1.03-.2.14-.32.1-.11.27-.15.5-.12Z" fill="#727273"/><path d="M7.58 7.62h.06c.04 0 .06.02.06.06 0 .08-.05.13-.13.14-.06.01-.23.02-.51.01a.13.13 0 0 1-.11-.06 1.21 1.21 0 0 0-.4-.44c-.25-.13-.24-.2.03-.22a7.04 7.04 0 0 1 .81 0 .08.08 0 0 1 .05.1.66.66 0 0 0 0 .3c.02.07.06.11.14.11Z" fill="#E6F4E1"/><path d="M7.8 7.5c.08-.06.1-.16.06-.23a.16.16 0 0 0-.22-.05.17.17 0 0 0-.06.22c.05.08.14.1.22.05ZM9.62 7.51c.02.07.07.1.14.1h.07c.04 0 .06.03.05.07 0 .08-.04.12-.13.14h-.5a.13.13 0 0 1-.11-.05c-.15-.24-.28-.38-.4-.44-.25-.12-.24-.2.03-.22a7.25 7.25 0 0 1 .8 0 .08.08 0 0 1 .05.1.65.65 0 0 0 0 .3ZM9.99 7.52a.16.16 0 1 0 0-.33.16.16 0 0 0 0 .33Z" fill="#E6F4E1"/><path d="m12.3 8.18-.75-.02c-.06 0-.1.05-.1.11v.08c0 .07.04.12.1.12l.75.01c.06 0 .11-.05.11-.1v-.09c0-.06-.05-.11-.1-.11Z" fill="#73888A"/><path d="M9.46 8.81h-2.9a.1.1 0 0 1-.1-.06.82.82 0 0 0-.2-.27c-.08-.07-.07-.12.01-.15l.07-.03a.23.23 0 0 1 .25.05l.15.15c.03.02.06.04.1.04h2.9c.07 0 .1.03.11.09.03.16.02.3-.03.4-.03.04-.06.06-.1.04a.17.17 0 0 1-.11-.13c-.02-.09-.07-.13-.15-.13Z" fill="#E4081B"/><path d="M6.11 9.07c-.18-.1-.22-.28-.1-.5a.1.1 0 0 1 .16 0c.07.16.17.3.3.4a.2.2 0 0 0 .13.05h2.81c.1 0 .16.05.2.13l.03.06a.05.05 0 0 1-.04.08H6.38a.16.16 0 0 1-.14-.08.43.43 0 0 0-.13-.14Z" fill="#E4081B"/><path d="M11.75 8.57c.08.22.07.4-.03.5-.28-.3-.27-.47.03-.5Z" fill="#9E9E9E"/><path d="M12.34 8.58c.05.26.04.41-.03.47-.1-.01-.16 0-.2.02-.05.02-.07.08-.07.16v.63c0 .06.03.1.09.13l.18.06.04.92a.53.53 0 0 1-.27.33.12.12 0 0 0-.06.09v.05c0 .02-.02.03-.04.03a.3.3 0 0 1-.12 0 .47.47 0 0 1 0-.34c.16-.1.22-.26.2-.49-.01-.05-.04-.1-.1-.12-.06-.02-.12 0-.19.08.05-.26.03-.47-.07-.62.15-.25.15-.55.02-.9.1-.12.11-.29.03-.51l.59.01Z" fill="#727273"/><path d="m12.35 10.97-.04-.92v-1c.07-.06.08-.21.03-.47.06-.02.11-.02.14-.01.03.01.05.05.05.11v2.22c0 .07-.02.1-.09.08l-.1-.01Z" fill="#2E373A"/><path d="M11.52 9.1h.01c.01.02.02.03.01.04-.01.13 0 .28.01.44v.16a.33.33 0 0 1-.09.08c-.05.04-.09.03-.1-.03l-.03-.08a.2.2 0 0 0-.1-.13.48.48 0 0 1-.2-.2.2.2 0 0 0-.13-.11l-.08-.03c-.06-.02-.07-.06-.03-.1a.3.3 0 0 1 .09-.09c.03-.01.09-.02.16 0 .16.02.3.03.44.02h.03l.01.02Z" fill="#9E9E9E"/><path d="m12.3 9.05.01 1-.18-.06c-.06-.03-.1-.07-.09-.13v-.63c0-.08.02-.14.06-.16.05-.02.12-.03.2-.02Z" fill="#020202"/><path d="M13.38 9.54c.13.06.17.18.12.38-.01.06-.04.1-.08.1h-.07c-.06-.02-.09-.05-.09-.12v-.23c0-.06-.03-.1-.08-.12-.09-.03-.13-.05-.14-.08-.07-.2 0-.26.2-.14.01 0 .03.04.04.1.01.05.05.1.1.11Z" fill="#7138AC"/><path d="M11.7 9.98c.1.15.12.36.07.62 0 .18.03.35.1.53a.47.47 0 0 0-.01.33c-.18.05-.28 0-.3-.16-.08-.52-.03-.96.14-1.32Z" fill="#9E9E9E"/><path d="M4.99 8.14c.25-.34.52-.7.95-.52.04.01.05.04.05.08a.1.1 0 0 1-.02.06.1.1 0 0 1-.07.03c-.54.03-.77.3-.7.83 0 .05.03.1.07.14l.18.17c.02.02.02.05 0 .07l-.04.03a.03.03 0 0 1-.03 0 .7.7 0 0 1-.52-.7c0-.14.04-.2.13-.2ZM7.02 10.03h1.02a.1.1 0 0 1 .1.1v.07a.1.1 0 0 1-.02.07.1.1 0 0 1-.08.03h-1.2a.14.14 0 0 1-.1-.03.96.96 0 0 1-.31-.37.1.1 0 0 1 .05-.12.52.52 0 0 1 .3-.04c.06 0 .1.03.12.08a.2.2 0 0 1 .02.1c0 .07.03.1.1.1Z" fill="#020202"/><path d="M11.38 3.68a.04.04 0 0 1 .04-.04l.25.02c.11 0 .22.02.3.05.07.02.11.05.11.08v.05c0 .02-.02.03-.04.04a.34.34 0 0 1-.1.03 1.6 1.6 0 0 1-.3 0l-.24-.01a.04.04 0 0 1-.04-.05l.02-.17Z" fill="#2E373A"/></svg>