<!-- by TradingView --><svg width="18" height="18" viewBox="0 0 18 18" xmlns="http://www.w3.org/2000/svg"><path fill="#F0F3FA" d="M0 0h18v18H0z"/><path fill-rule="evenodd" d="M9.35 3.6a.72.72 0 0 0-.7 0l-4 2.23c-.4.23-.65.65-.65 1.1v4.14c0 .45.25.87.65 1.1l4 2.24c.22.12.48.12.7 0l4-2.24c.4-.23.65-.65.65-1.1V6.93c0-.45-.25-.87-.65-1.1l-4-2.24Zm-.24.62a.22.22 0 0 0-.22 0l-4.06 2.3a.22.22 0 0 0-.12.18v4.6c0 .07.05.15.12.19l4.06 2.3c.07.03.15.03.22 0l4.06-2.3a.22.22 0 0 0 .12-.2V6.7a.22.22 0 0 0-.12-.19l-4.06-2.3Z" fill="url(#a)"/><path d="M5.43 11.01V8.4c0-.08.06-.14.13-.14a5.93 5.93 0 0 0 2.82-1.09l1.33-.93v2.94l-1.06.72a5.6 5.6 0 0 1-3.1 1.24.13.13 0 0 1-.12-.13Z" fill="url(#b)"/><path d="M12.57 6.68V9.3c0 .07-.06.13-.13.13a5.93 5.93 0 0 0-2.82 1.1l-1.33.92V8.51l1.06-.72a5.6 5.6 0 0 1 3.1-1.24c.07 0 .12.06.12.13Z" fill="url(#c)"/><path d="M9.71 7.53v1.65l-1.06.72c-.12.1-.24.18-.36.26V8.51l1.06-.72.36-.26Z" fill="#06B388"/><defs><linearGradient id="a" x1="9" y1="3.5" x2="9" y2="14.5" gradientUnits="userSpaceOnUse"><stop stop-color="#59EAC1"/><stop offset="1" stop-color="#1AC095"/></linearGradient><linearGradient id="b" x1="7.57" y1="6.24" x2="7.57" y2="11.14" gradientUnits="userSpaceOnUse"><stop stop-color="#08B489"/><stop offset="1" stop-color="#59EAC1"/></linearGradient><linearGradient id="c" x1="10.43" y1="6.55" x2="10.43" y2="11.45" gradientUnits="userSpaceOnUse"><stop stop-color="#59EAC1"/><stop offset="1" stop-color="#06B287"/></linearGradient></defs></svg>