<!-- by TradingView --><svg width="18" height="18" viewBox="0 0 18 18" xmlns="http://www.w3.org/2000/svg"><path fill="#181B1E" d="M0 0h18v18H0z"/><circle cx="9" cy="9" r="5" fill="#2FE1E9"/><path fill-rule="evenodd" d="M8.36 6h2.07c.68.09 1.44.53 1.44 1.3 0 .57-.37.95-.73 1.18.45.27.86.8.86 1.34 0 1-.93 1.34-1.51 1.38-.34.64-1.14.8-1.59.8H7v-.5l1.37-.73h1.78l.02-.19c0-.41-.17-.67-.36-.83-.2-.16-.44-.23-.59-.24H8v-.55l1.27-.73h.78c.03-.1.05-.14.05-.26 0-.49-.7-.51-1.08-.54H7v-.52L8.36 6Zm1.46 2.66H9.4L8.68 9h.55c.13 0 .35-.09.54-.29l.05-.05Zm.55.08h.16c.49 0 1 .6 1 1.08 0 .65-.5.86-.9.93v-.17a1.43 1.43 0 0 0-.74-1.3 1.6 1.6 0 0 0 .48-.54Zm-.44 2.46H8.5l-.69.37H8.9c.28 0 .76-.1 1.03-.37Zm.6-2.9c.02-.1.04-.22.04-.33 0-.75-.9-.93-1.52-.97H7.7l.8-.57h1.87c.46.06 1.02.34 1.02.86 0 .56-.55.9-.87 1Z"/></svg>