<!-- by TradingView --><svg width="18" height="18" viewBox="0 0 18 18" xmlns="http://www.w3.org/2000/svg"><path fill="#F0F3FA" d="M0 0h18v18H0z"/><path d="M9.31 8.54H10v2c0 2.08 2.21 2.46 3.22 2.46.34 0 .78-.07.78-.07V11h-.5c-.41 0-1.5-.3-1.5-1V5h-2v2h-.69v1.54Zm-2.79 2.78c-.9 0-1.61-.63-1.61-.63L4 12.1s.95.91 2.53.91c1.64 0 2.49-.94 2.49-2 0-1.34-1.24-1.77-2.11-2.08-.43-.15-.72-.23-.72-.38 0-.22.28-.33.6-.33.89 0 1.5.5 1.5.5l.73-1.48s-.75-.7-2.23-.7c-1.46 0-2.63.69-2.63 1.85 0 1.33 1.31 1.84 2.19 2.17.45.17.65.27.65.45 0 .2-.16.32-.48.32Z" fill="#20242F"/><path d="M12 8.5h1.5V7H12v1.5Z" fill="#47B9FF"/></svg>