<!-- by TradingView --><svg width="18" height="18" viewBox="0 0 18 18" xmlns="http://www.w3.org/2000/svg"><path fill="#F0F3FA" d="M0 0h18v18H0z"/><path d="m13.59 7.22-.56.23c-.02 0-.04.02-.04.05 0 .15-.03.3-.1.43l-.05.05a.08.08 0 0 1-.08 0l-.4-.13c.1-.12.17-.26.22-.4.03-.07.02-.12-.01-.12l.06-.13c.4.13.7.04.9-.27a.08.08 0 0 0 .02-.09.09.09 0 0 0-.06-.05c-.19-.05-.25-.17-.18-.37v-.04c0-.01-.01-.03-.03-.03l-.07-.12c.08-.24-.06-.47-.25-.65l-.01-.03v-.03L13 5.4v-.04a.12.12 0 0 0-.04-.06l-.22-.2a.1.1 0 0 0-.08-.03.83.83 0 0 0-.33.1c-.03 0-.05.03-.05.06v.08c0 .04-.01.06-.05.06a.98.98 0 0 0-.64.33c-.1.03-.19.11-.23.24h-.08a1.15 1.15 0 0 0-.4-.14.18.18 0 0 0-.13.04.15.15 0 0 0-.04.05.13.13 0 0 0-.01.06v.14c0 .07.02.15.06.23a.8.8 0 0 0-.35.53c0 .01 0 .02-.02.02h-.02c-.02 0-.02 0-.02-.02v-.48c0-.03-.01-.04-.04-.05-.24-.1-.41-.04-.48.18a1.7 1.7 0 0 1-.06.18l-.05-.02a.55.55 0 0 0 .04-.34c-.01-.03-.03-.04-.06-.05-.26-.04-.68-.09-.93.03a.1.1 0 0 0-.05.06.38.38 0 0 0 0 .27l-.06-.03c.01-.13-.03-.22-.13-.26-.35-.16-.69-.1-1 .18a.14.14 0 0 0-.08 0c-.02-.1-.07-.14-.15-.14a2.1 2.1 0 0 0-.84.16c.06-.21-.04-.42-.3-.63a.82.82 0 0 0-.13-.08c-.2-.1-.79.07-.88.27-.04.08-.04.15 0 .2.17.25.32.5.45.75l-.23.1c-.42-.67-.88-1.35.34-1.58.52-.1.8.26.95.65 0 .02.02.04.04.05.02.01.05.02.07.01 1.26-.22 2.5-.28 3.7-.2.03 0 .05-.01.06-.04.07-.32.3-.42.67-.3h.05l.04-.02c.23-.27.39-.28.7-.38a.1.1 0 0 0 .05-.05c.15-.29.62-.4.88-.15.1.08.15.17.16.25.02.1.05.2.1.27.1.13.16.37.18.72 0 .13.09.22.24.28a.1.1 0 0 1 .03.02l.02.03c.08.17.06.34-.06.51Z" fill="#72CAF5"/><path d="M13 5.4c-.14-.01-.23-.06-.27-.12-.01-.02-.03-.03-.06-.03a.6.6 0 0 0-.4.2l.01.02h.03a.23.23 0 0 1 .2-.05.1.1 0 0 1 .06.04c.04.07.05.14.02.23-.01.03 0 .04.03.05h.03l.02-.02.01-.02a.1.1 0 0 1 0-.03c.04-.06.06-.06.06 0l.02.33a1.93 1.93 0 0 0-1.17-.3c.16-.19.38-.3.64-.33.04 0 .05-.02.05-.06v-.08c0-.03.02-.05.05-.07.1-.05.21-.08.33-.09a.1.1 0 0 1 .08.03l.22.2c.02.01.03.04.04.06v.04Z" fill="#FEDA7B"/><path d="m13 5.4-.05.12v.03c0 .01 0 .03.02.03.18.18.32.4.24.65a.56.56 0 0 1-.45-.23l-.02-.33c0-.06-.02-.06-.05 0v.03l-.02.02-.02.01h-.03c-.03 0-.04-.01-.03-.04a.24.24 0 0 0-.02-.23.1.1 0 0 0-.07-.04.23.23 0 0 0-.19.06h-.03v-.03a.6.6 0 0 1 .4-.2c.02 0 .04 0 .05.03.04.06.13.1.27.12Z" fill="#E69C3F"/><path d="M11.59 5.7c.43-.02.82.08 1.17.3.1.14.25.22.45.23l.07.12c-.3-.12-.38.16-.29.35 0 .02.02.02.03.02h.04c.02-.01.03-.02.01-.04-.09-.1-.07-.18.04-.24.05-.02.09-.03.11-.02a.1.1 0 0 1 .05.02l.02.03v.05a.1.1 0 0 1-.02.04.97.97 0 0 1-.27.22.07.07 0 0 1-.07 0 .38.38 0 0 1-.13-.1.1.1 0 0 0-.08-.04.39.39 0 0 1-.21-.06c-.19-.1-.38-.18-.58-.24-.02 0-.03-.02-.03-.05a.5.5 0 0 0 0-.23c.18.2.4.32.63.37a.1.1 0 0 0 .08-.02.2.2 0 0 0 .1-.14c0-.03-.01-.05-.03-.07-.27-.26-.6-.38-.98-.38-.03 0-.05.01-.07.03-.1.07-.1.16-.04.25a.2.2 0 0 1 .01.1l-.04.01a.62.62 0 0 0-.17-.2.09.09 0 0 1-.03-.07c.04-.13.12-.21.23-.24Z" fill="#843B13"/><path d="M11.36 5.94c0 .03 0 .05.03.07.08.07.14.13.17.2.03.09.08.17.15.25h-.19c-.03-.09-.08-.1-.13-.06-.03-.02-.06-.02-.12 0a.14.14 0 0 0-.03-.03.2.2 0 0 0 .1-.02c.03-.01.04-.03.02-.05-.16-.16-.38-.23-.66-.21v-.2a.15.15 0 0 1 .05-.05.18.18 0 0 1 .13-.03c.15.01.28.06.4.12.02.01.04.02.06.01h.02Z" fill="#FECA47"/><path d="M11.9 6.06c-.02.02-.06.01-.12-.02 0-.07-.03-.11-.07-.14-.03-.02-.05-.01-.06.02-.01.03 0 .07.03.12 0 .05-.03.07-.09.06-.06-.09-.05-.18.04-.25a.12.12 0 0 1 .07-.03c.38 0 .7.12.98.38.02.02.03.04.02.07a.2.2 0 0 1-.1.14.1.1 0 0 1-.07.02 1.29 1.29 0 0 1-.64-.37Z" fill="#FBE0B3"/><path d="M11.78 6.04a.23.23 0 0 1-.1 0c-.03-.05-.04-.1-.03-.12 0-.03.03-.04.06-.02.04.03.06.07.07.14Z" fill="#843B13"/><path d="m6.46 6.54.35 1.04c0 .01.01.03.03.03l.04.01.53-.07c.05 0 .07-.03.07-.07v-.07c0-.04-.02-.06-.07-.06l-.23.03c-.04 0-.06 0-.06-.04V7.3l.01-.02.02-.01.26-.03c.03 0 .05-.02.05-.05a.29.29 0 0 0-.03-.23.08.08 0 0 0-.03-.03.09.09 0 0 0-.03 0 .83.83 0 0 0-.32.03h-.01l-.01-.01v-.01l-.01-.03v-.03l.02-.01a.83.83 0 0 1 .3-.05.1.1 0 0 0 .03-.01l.03-.02.02-.03v-.04a.32.32 0 0 1 .03-.22l.09.01c-.12.32-.08.6.13.86.3.23.61.23.9 0h.05c.02.01.03.03.02.05l-.02.04c-.02.03-.01.05.03.05.06 0 .11 0 .15-.03l.55.02c.06 0 .1 0 .12-.02.02-.02.03-.06.04-.11 0-.03 0-.05-.03-.06a.57.57 0 0 0-.27-.03c-.04.01-.06 0-.06-.04v-.03c0-.02.02-.04.05-.04h.27c.07 0 .1-.02.12-.07l.03-.18c.02-.07-.01-.1-.1-.1h-.28c-.02 0-.03-.01-.03-.03v-.05h.02c.13-.02.25-.02.37-.01.03 0 .05 0 .07-.02a.11.11 0 0 0 .05-.06l.05.02-.12.64v.2c-.04-.02-.07 0-.1.1-.31 0-.63 0-.95-.02a12.9 12.9 0 0 0-1.92.16c-.06 0-.1-.02-.11-.09a5.6 5.6 0 0 0-.4-1.76c.25.2.35.42.3.63Z" fill="#4088C9"/><path d="M11.78 6.04c.06.03.1.04.11.02a.5.5 0 0 1 .01.23c0 .03 0 .04.03.05.2.06.4.14.58.24.08.05.13.06.2.06a.1.1 0 0 1 .09.03c.03.05.08.08.13.1.02.02.04.02.07 0 .1-.05.2-.12.27-.21a.1.1 0 0 0 .02-.04.08.08 0 0 0-.02-.08.1.1 0 0 0-.04-.02c-.03 0-.07 0-.12.02-.11.06-.13.14-.04.24.02.02.01.03-.01.03h-.07c-.1-.2-.02-.48.3-.36l.02.03v.04c-.07.2 0 .32.18.37.03 0 .05.03.06.05.01.03 0 .06-.01.09-.06-.02-.11-.02-.15.01-.25.2-.5.22-.75.06.01-.12-.06-.21-.22-.28a5.52 5.52 0 0 1-.58-.3.4.4 0 0 1-.24-.23.2.2 0 0 0 0-.09c.05.01.07 0 .08-.06h.1ZM11.24 6.37a1.2 1.2 0 0 0-.48-.05.65.65 0 0 1-.06-.23c.28-.02.5.04.66.2.02.03.01.05-.01.06a.2.2 0 0 1-.1.02Z" fill="#E69C3F"/><path d="M12.38 6.28c.07 0 .12-.05.12-.1s-.06-.09-.13-.08c-.08 0-.13.04-.13.1 0 .04.06.08.14.08Z" fill="#843B13"/><path d="M11.6 6.2c.05.11.13.19.24.23.2.26.47.45.8.57.26.16.5.14.75-.06.04-.03.09-.03.15-.01-.2.3-.5.4-.9.27a2.42 2.42 0 0 1-.93-.74.82.82 0 0 1-.15-.25l.04-.02Z" fill="#CF7023"/><path d="M7.45 6.51a.32.32 0 0 0-.03.22v.04l-.02.03-.03.02a.1.1 0 0 1-.04 0 .83.83 0 0 0-.29.06l-.02.01V6.96h.02a.03.03 0 0 0 .02 0l.3-.03.04.01.03.03c.05.07.06.15.03.23 0 .03-.02.04-.05.05l-.26.03-.02.01v.05c0 .03.01.05.05.04l.23-.03c.05 0 .07.02.07.06v.07c0 .04-.02.07-.07.07l-.53.07h-.04a.06.06 0 0 1-.03-.04l-.35-1.04c.36-.13.64-.18.84-.16.08 0 .13.05.15.13Z" fill="#E6F8FD"/><path d="m11.39 6.4-.61 1-.15.36a.17.17 0 0 0 0 .13.2.2 0 0 0 .1.1c.2.1.46.16.79.18-.3.1-.64.06-1.02-.1-.02-.13-.09-.23-.22-.3a1.46 1.46 0 0 0-.35-.08 3.98 3.98 0 0 1-.38-.07c.03-.1.06-.12.1-.1.11.07.24.1.39.09.03 0 .04-.02.04-.04 0-.06.02-.1.04-.11.01-.03.03-.02.03 0l.02.13c0 .02.02.04.03.05.08.07.17.1.28.08.01 0 .02 0 .03-.02l.03-.02.16-.34.57-.94c.06-.02.1-.02.12 0Z" fill="#4767B4"/><path d="M11.7 6.46c.26.33.56.57.93.74l-.06.13a1.59 1.59 0 0 1-1.05-.88l.19.01Z" fill="#ACA9EF"/><path d="M8.73 6.63c0 .23 0 .48-.02.72 0 .08.03.13.09.14a.29.29 0 0 1-.15.03c-.04 0-.05-.02-.03-.05l.02-.04c0-.02 0-.04-.02-.05h-.04v-.02c.07-.14.06-.25-.03-.36a.12.12 0 0 0-.06-.04.38.38 0 0 0-.26.02c-.06.03-.07.07-.05.12 0 .02.02.03.04.03h.05c.1.03.1.06 0 .09a.44.44 0 0 1-.26-.03.08.08 0 0 1-.06-.05c-.1-.36.3-.3.52-.28.03 0 .05 0 .07-.03.06-.06.1-.14.12-.23.01 0 .04 0 .07.03ZM5.91 7.63c.1.34.25.54.46.6.13.07.24.1.33.07.42-.12.84-.2 1.27-.27l.04.19a.4.4 0 0 0 .04.21c-.32.04-.63.14-.74.42l-.16.18a3.05 3.05 0 0 1-.23-.32c-.01-.02-.04-.03-.07-.02l-.07-.06a1 1 0 0 0-.81-.08c-.44.1-.57.34-.4.7l-.01.07c-.08-.04-.12-.08-.14-.1-.06-.13-.15-.2-.25-.22l-.05-.13c.17-.26.43-.35.73-.43l.01-.01.01-.02a.03.03 0 0 0 0-.02l-.5-1.23.23-.1.31.57Z" fill="#64A6E2"/><path d="M13.59 7.22c-.13.3-.3.65-.68.77l-.01-.06c.06-.14.09-.28.1-.43 0-.03 0-.04.03-.05l.56-.23Z" fill="#5A81CC"/><path d="M8.54 6.83c.06-.06.1-.14.12-.23.01-.13-.03-.22-.13-.26-.35-.16-.68-.1-1 .18-.11.32-.07.6.14.86.3.23.61.23.9 0l.01-.02c.07-.14.06-.25-.03-.36a.12.12 0 0 0-.06-.04.38.38 0 0 0-.26.02c-.06.03-.07.07-.05.12 0 .02.02.03.04.03h.05c.1.03.1.06 0 .09a.44.44 0 0 1-.26-.03.08.08 0 0 1-.06-.05c-.1-.33.23-.3.46-.28h.06c.03 0 .05 0 .07-.03ZM11.24 6.37a1.2 1.2 0 0 0-.48-.05.8.8 0 0 0-.35.53c0 .01 0 .02-.02.02h-.02c-.01 0-.02 0-.02-.02v-.48c0-.03-.01-.04-.04-.05-.24-.1-.41-.04-.48.18a1.7 1.7 0 0 1-.06.18l-.12.64v.2c.11.07.24.1.39.09.02 0 .04-.02.04-.04 0-.06.02-.1.04-.11.01-.03.03-.02.03 0l.02.13c0 .02.02.04.03.05.08.07.17.1.28.08.01 0 .02 0 .03-.02l.03-.02.16-.34.57-.94a.14.14 0 0 0-.03-.03ZM12.57 7.33a1.59 1.59 0 0 1-1.04-.88c-.04-.08-.09-.1-.14-.05l-.61 1-.15.36a.17.17 0 0 0 0 .13.2.2 0 0 0 .1.1c.2.1.46.16.79.18l.52-.1.31-.22c.1-.12.18-.26.23-.4.03-.07.02-.12-.01-.12Z" fill="#E6F8FD"/><path d="M8.86 8.46c-.04.06-.03.11.06.16v.05l-.11.23a.09.09 0 0 0-.04.02c.09-.18-.04-.28-.2-.39.17-.12.23-.23.18-.32.04-.22-.06-.37-.28-.43-.14-.04-.2 0-.33.05-.03 0-.04 0-.02-.02a.11.11 0 0 1 .05-.03l.04-.01c.16-.12.36 0 .5.06.03.02.05 0 .06-.02l.02-.05c0-.02.02-.04.05-.04.22-.03.4-.04.55-.02.02 0 .03.01.03.02 0 .02-.01.03-.03.03h-.5c-.04 0-.06.01-.07.04a.42.42 0 0 0-.02.3l.01.08c0 .1 0 .2.05.29Z" fill="#64A6E2"/><path d="M10.16 8.33a.49.49 0 0 1-.2.07l-.23-.21-.01-.05c.04-.04.06-.08.05-.13 0-.02-.03-.04-.06-.05l-.19-.03c-.03 0-.05 0-.06.02-.04.04-.04.09-.01.14-.27.08-.38.3-.53.53-.09-.05-.1-.1-.06-.16.1 0 .15-.06.17-.2 0-.02.01-.04.03-.05a.07.07 0 0 1 .05-.02c.03 0 .08-.02.12-.07.03-.02.02-.04-.02-.04l-.11-.02c-.05 0-.05-.02-.01-.04.05-.03.11-.03.18 0 .01.01.02.02.04.01 0 0 .02 0 .03-.02l.1-.16c.01-.02.03-.03.06-.03.22.02.47.03.59.16V8l-.02.03h-.02c-.04-.07-.09-.1-.15-.09-.03 0-.05.02-.05.05 0 .18.1.3.3.34Z" fill="#4767B4"/><path d="m12.35 7.85.41.14.08-.01.06-.05.01.06c-.1.06-.17.14-.25.23a.09.09 0 0 0-.02.07c.01.06 0 .11-.05.17a.05.05 0 0 0 0 .04v.02l.02.01.34.18h.03l.03-.01c.14-.16.35-.15.56-.13a.1.1 0 0 0 .07-.02c.1-.1.25-.27.36-.3.28-.1.56.1.68.32.03.05.1.12.2.23.15.18.16.38.01.6a.33.33 0 0 1-.24-.3c.05-.17.01-.27-.13-.3l-.07-.15c0-.12-.07-.18-.2-.18a.09.09 0 0 1-.07-.03c-.06-.06-.11-.07-.17-.04a.6.6 0 0 0-.12.17.1.1 0 0 1-.05.05.34.34 0 0 0-.18.17l-.01.01-.02.01a.05.05 0 0 1-.05 0c-.11-.1-.2-.2-.34-.18a.38.38 0 0 0-.2.1c-.1.02-.2.1-.27.22a.08.08 0 0 1-.04.04.14.14 0 0 1-.06.01c.04-.26-.07-.4-.31-.4-.16-.08-.3-.08-.43 0l-.21.2-.15-.22c-.23-.33-.79-.28-1.1-.1-.16.06-.24.16-.24.3a.22.22 0 0 1-.08.02l-.2-.4c.1-.01.17-.04.2-.07.2 0 .31-.09.35-.26.38.16.72.2 1.02.1l.52-.1.31-.22Z" fill="#64A6E2"/><path d="M7.97 8.03c-.43.06-.85.15-1.27.27-.09.02-.2 0-.33-.07L8 7.9c.03 0 .04 0 .03.03a.22.22 0 0 1-.06.1Z" fill="#4767B4"/><path d="m9.72 8.14-.27-.05c-.03-.05-.03-.1 0-.14.02-.02.04-.03.07-.02l.2.03c.02 0 .04.03.05.05 0 .05-.01.1-.05.13Z" fill="#64A6E2"/><path d="M8.4 8.12c.06 0 .1-.03.1-.08 0-.04-.04-.08-.1-.08-.04 0-.08.04-.08.08 0 .05.04.08.09.08Z" fill="#5A81CC"/><path d="m9.45 8.1.27.04.01.05c-.3.07-.58.23-.81.48v-.05c.15-.24.26-.45.53-.53Z" fill="#FCFBE6"/><path d="m8.57 8.53-.33-.11c.22.04.4-.03.51-.21.05.1-.01.2-.18.32ZM8.01 8.22c.05.09.12.15.2.18-.04.03-.08.03-.13.03h-.03A.4.4 0 0 1 8 8.22Z" fill="#A2521B"/><path d="M14.45 8.65c-.16.05-.26.14-.3.27 0 .01 0 .02-.02.03l-.03.03c-.1.03-.13.09-.12.15 0 .03 0 .05-.04.05l-.17.03a.08.08 0 0 0-.06.03.4.4 0 0 1-.14.14.63.63 0 0 1-.25-.11h-.02l-.02.02v.02c.1.1.22.18.36.24-.12 0-.26.09-.42.23l-.74.02.38-.77c.1-.07.21-.13.31-.18a.4.4 0 0 1 .19-.05c.1 0 .16.03.18.1 0 .04.02.04.05.02l.23-.23a.25.25 0 0 1 .06-.05c.1-.05.14-.13.13-.24.06-.03.11-.02.17.04.01.02.04.03.06.03.14 0 .2.06.21.18Z" fill="#FEDA7B"/><path d="M14 8.4c.02.1-.02.2-.12.24a.26.26 0 0 0-.06.05l-.23.23c-.03.02-.05.02-.05-.01-.02-.08-.08-.11-.18-.11a.4.4 0 0 0-.19.05l-.31.18.18-.3a.38.38 0 0 1 .2-.1c.14-.02.23.08.34.17l.02.01h.05l.01-.02a.34.34 0 0 1 .18-.17.1.1 0 0 0 .05-.05.6.6 0 0 1 .12-.17ZM10.46 8.48c-.06.18-.09.4-.07.68l-.16-.38c0-.14.08-.24.23-.3ZM5.97 8.55c-.1.1-.19.2-.25.29-.1.15-.1.32-.14.5l-.02-.02c.01-.04.02-.06.01-.08-.17-.35-.04-.58.4-.7ZM12.36 8.6a.7.7 0 0 0-.49.3l.06-.3c.13-.08.27-.08.43 0Z" fill="#FCFBE6"/><path d="m11.93 8.6-.06.3-.15.95-.01.02-.03.35c-.03.08-.03.14 0 .2.01.01.03.03.06.03.06.01.13 0 .2-.03.15-.04.24-.13.28-.26l.13-.3.32-.86h.06l.04-.05c.08-.13.17-.2.27-.22l-.18.3-.38.77-.16.43c-.23.35.31.44.56.42l.04-.01a.06.06 0 0 0 .02-.04c0-.17.05-.29.13-.35.13 0 .2.05.22.11l.02.32c-.02.03-.06.04-.12.04h-.28l-.2.05c-.23.06-.47 0-.68-.07a.09.09 0 0 1-.05-.04.15.15 0 0 1-.02-.06c0-.02 0-.03-.02-.05 0-.02-.03-.03-.06-.02-.18.05-.31.1-.41.07-.05-.02-.06-.04-.06-.08l.08-.42c.01-.03 0-.05 0-.07-.02-.02-.05-.03-.08-.03l.02-.02a.8.8 0 0 0 .2-.3c.1-.29.14-.58.09-.87l.2-.21Z" fill="#A2521B"/><path d="M6.85 8.7c.15.13.2.32.17.56l-.24-.63.07.06Z" fill="#FCFBE6"/><path d="M14.52 8.8c.02.19.02.25-.01.2l-.27.24a.71.71 0 0 1-.3.17.66.66 0 0 1-.37-.03.4.4 0 0 0 .14-.14.08.08 0 0 1 .06-.04l.17-.02c.04 0 .05-.02.04-.05-.01-.06.03-.12.12-.15l.03-.03.02-.03c.04-.13.14-.22.3-.27l.07.15Z" fill="#E69C3F"/><path d="M4.33 9a4.52 4.52 0 0 0-.55-.1c-.07 0-.2.02-.4.07-.04 0-.05.02-.05.05v.15c0 .02 0 .05.02.07.14.2.21.47.49.64.1.07.22.04.37-.06l-.07.88-.05.15c-.13-.01-.25 0-.36.02l-.08-.18v-.47c0-.02 0-.04-.03-.06a1.77 1.77 0 0 1-.6-.92c-.07-.26.04-.41.34-.45.22-.03.46-.04.72-.03l.08-.01a.8.8 0 0 1 .47-.08c.07.01.07.03 0 .05a.65.65 0 0 0-.3.27Z" fill="#5A81CC"/><path d="M7.15 9.03c-.07.27-.06.55.05.84 0-.02 0-.02-.04.01-.11-.1-.22-.15-.32-.13l.18-.49c.04-.24-.02-.43-.17-.57.03 0 .05 0 .07.02l.23.32Z" fill="#A2521B"/><path d="m10.23 8.78.16.38.19.56.15.35c0 .16.14.2.38.15l-.4.2-.18-.58-.05-.16-.33-.88c.03 0 .06 0 .08-.02Z" fill="#843B13"/><path d="M14.52 8.8c.14.03.18.13.13.3-.18.25-.39.41-.62.48-.39.11-.68.23-.87.35h-.05c.02-.05.05-.1.1-.15.17-.14.3-.22.43-.23.4 0 .69-.2.87-.55.03.05.03-.01 0-.2Z" fill="#FCFBE6"/><path d="M4.33 9c0 .02.04.05.15.08.23.11.25.25.05.4l.05-.2c0-.02 0-.04-.03-.06a2.23 2.23 0 0 0-1.04-.21c-.05 0-.08.02-.08.06v.06c0 .03.02.04.05.04.25 0 .5.07.75.2.03.01.04.03.06.05l.02.05c-.13 0-.18.05-.15.12.04.11.06.18.05.23-.15.1-.27.13-.37.06-.28-.17-.35-.44-.5-.64a.12.12 0 0 1-.01-.07v-.15c0-.03.01-.04.04-.05.21-.05.34-.07.4-.07.09 0 .27.03.56.1Z" fill="#1FBBD0"/><path d="M8.53 9.6c-.2-.06-.58-.18-.62.12-.38-.3.1-.62.42-.4a.14.14 0 0 0 .18 0c.12-.14.21-.27.26-.4l.04-.02-.28.7Z" fill="#A2521B"/><path d="m4.53 9.49-.08.02-.14-.04-.02-.05a.13.13 0 0 0-.06-.05c-.25-.13-.5-.2-.75-.2-.03 0-.05-.01-.05-.04v-.06c0-.04.03-.06.08-.06.36-.02.7.06 1.04.21l.03.06-.05.2Z" fill="#0D7795"/><path d="M14.5 9a.93.93 0 0 1-.86.55 1.13 1.13 0 0 1-.36-.25v-.01l.02-.02h.02c.08.05.16.09.25.1.13.06.25.07.37.04a.71.71 0 0 0 .3-.17l.27-.24Z" fill="#CF7023"/><path d="M14.65 9.1c.02.16.1.26.24.3l-.4.4a.06.06 0 0 0-.02.07l.2.75c-.14.1-.27.17-.41.21l-.05-.03a.5.5 0 0 0 .01-.34l-.14-.56-.06-.2a.05.05 0 0 0-.02-.03h-.04c-.3.04-.56.14-.78.3l-.02-.04c.19-.12.48-.24.87-.35.23-.07.44-.23.62-.48Z" fill="#5A81CC"/><path d="M9.73 9.74a.63.63 0 0 1-.28 0l.07-.28c.03-.09.07-.09.12 0 .03.06.06.16.09.28Z" fill="#A2521B"/><path d="m8.53 9.6-.07.2a.39.39 0 0 0-.05.18c-.01.04-.03.06-.05.05a.12.12 0 0 0-.02-.12c-.08-.07-.18-.1-.31-.09l-.12-.1c.04-.3.41-.18.62-.12Z" fill="#594F9D"/><path d="M11.72 8.8c.05.3.02.6-.09.88a.81.81 0 0 1-.2.3l-.02.02-.3.22c-.24.06-.37 0-.38-.15l-.15-.35-.19-.56c-.02-.27 0-.5.07-.68.32-.18.88-.23 1.11.1l.15.23Z" fill="#FEDA7B"/><path d="M11.4 10c.03 0 .06 0 .08.03 0 .02.01.04 0 .07l-.08.42c0 .04.02.06.06.08.1.03.23-.02.42-.07.02-.01.04 0 .06.02l.01.05.03.06c0 .02.02.03.04.04.21.08.45.13.68.07l.2-.04c-.02.11 0 .2.03.28.04.06.12.1.24.1.28.03.55 0 .82-.07-.36.27-.75.39-1.16.36-.15-.01-.24-.08-.28-.19-.04-.12-.12-.16-.26-.13-.23.05-.34 0-.58-.1a.9.9 0 0 0-.49-.04c-.03.01-.05 0-.05-.04v-.43l-.02-.01a.04.04 0 0 0-.04 0c-.23.13-.4.29-.51.47-.2.34-.46.46-.9.42-.03 0-.04-.02-.04-.05v-.14c0-.08-.05-.12-.14-.1-.17.03-.4.24-.63.29-.34.08-.55-.04-.63-.36a1 1 0 0 0 .85 0c.17-.09.18-.25.35-.32a.17.17 0 0 1 .15 0l.06.06.02.06c.01.17.05.25.27.25.18-.01.53-.03.59-.2.13-.1.18-.23.15-.41l.4-.2.3-.23Z" fill="#594F9D"/><path d="m12.35 9.86.32-.86c.04-.26-.07-.4-.31-.4a.7.7 0 0 0-.49.3l-.15.95-.01.02-.03.35c-.03.08-.03.14 0 .2.01.01.03.03.06.03.06.01.13 0 .2-.03.15-.04.24-.13.28-.26l.13-.3ZM8.57 8.57l-.33-.12-.04-.01c-.03.02-.07.03-.12.02v.02c0 .02 0 .03-.03.04-.26.06-.5.18-.74.37l-.16.18c-.07.26-.06.54.04.82l-.03.03c-.11-.1-.22-.15-.32-.13l.18-.5-.24-.62a1 1 0 0 0-.81-.09c-.1.1-.19.2-.25.3a.84.84 0 0 0-.12.37l-.02.12.25.53.2.43a.4.4 0 0 0 .1.2c.1.1.29.05.4-.01a.26.26 0 0 0 .13-.14.07.07 0 0 0 0-.07c-.05-.08-.06-.14-.03-.17l.2.18.17.08.08-.01a.7.7 0 0 0 .23-.25c.02-.04.04-.04.08-.01.2.16.43.24.65.23a.3.3 0 0 0 .19-.04l.13-.25a.12.12 0 0 0-.02-.13c-.08-.06-.18-.1-.31-.08l-.12-.1c-.38-.3.1-.62.42-.4a.14.14 0 0 0 .18-.01c.12-.14.21-.27.26-.4.09-.17-.04-.27-.2-.38Z" fill="#FEDA7B"/><path d="M8.23 10.5v.15a.5.5 0 0 0-.05.2 1.17 1.17 0 0 0-.4-.05c-.1 0-.21.04-.35.1-.35.17-.73.3-1.14.38-.17.04-.33.02-.48.04a.16.16 0 0 0-.08.03.13.13 0 0 1-.07.03c-.4.03-.73-.03-1-.2-.2-.13-.44-.15-.57-.33l.05-.15.02.01c-.02.14.05.21.18.23l.03.02c.48.23.85.2 1.11-.1.34.12.63.09.87-.1a.11.11 0 0 1 .08-.03c.15 0 .39 0 .46-.14a.14.14 0 0 0 .05-.1c0-.06.03-.06.08-.02.22.16.37.12.46-.13.02-.06.05-.06.1-.03.17.12.39.19.65.2Z" fill="#594F9D"/><path d="M9.7 10.45a.1.1 0 0 1 .03 0c.02 0 .04.01.04.03l.02.23c0 .1.04.15.1.16.2.03.39.02.57-.04h.1c-.07.18-.4.2-.59.2-.22.01-.26-.07-.27-.24l-.02-.06a.15.15 0 0 0-.06-.05.17.17 0 0 0-.15 0c-.17.06-.18.22-.35.3a1 1 0 0 1-.85 0 .36.36 0 0 0-.1-.13.5.5 0 0 1 .05-.2c.06.19.2.28.45.26.2.04.38 0 .52-.15l.14-.2a.1.1 0 0 1 .06-.04l.3-.07Z" fill="#CF7023"/><path d="M14 11.04c.12-.02.21-.1.26-.2.14-.05.27-.13.4-.22 0 .02 0 .04.02.06-.08.4-.1.73-.59.88a2.35 2.35 0 0 1-1.52-.01c-.42-.15-.9-.33-1.41-.55-.03 0-.04 0-.05.04-.02 0-.03.01-.04.03-.16.19-.23.36-.51.44-.16.04-.32.07-.46.07a43.36 43.36 0 0 1-1.78-.01l-.2-.1c0 .02-.02.03-.09.02L8 11.32a.07.07 0 0 0-.04-.05l-.14-.07c.12-.04.15-.12.1-.24a.08.08 0 0 0-.06-.05c-.12-.03-.24-.04-.37.04a11.93 11.93 0 0 1-2.46.67c-.73.02-1.16-.23-1.3-.75.12-.03.24-.03.37-.02.13.18.37.2.56.32.28.18.61.24 1 .2.04 0 .06 0 .08-.02a.16.16 0 0 1 .08-.03c.15-.02.31 0 .48-.04.4-.09.79-.21 1.14-.37.14-.07.26-.1.36-.1.13-.02.26 0 .39.04.05.05.08.1.1.14.07.32.28.44.62.36.22-.05.46-.26.63-.29.09-.02.13.02.13.1v.14c0 .03.02.05.06.05.43.04.69-.08.89-.42a1.3 1.3 0 0 1 .53-.47h.02l.01.01v.43c0 .04.03.05.06.04a.9.9 0 0 1 .48.05c.25.1.36.14.59.09.14-.03.22.01.26.13.03.11.13.18.28.19.41.03.8-.09 1.16-.36Z" fill="#7466CB"/><path d="M13.29 10.36c-.01-.06-.09-.1-.22-.11-.08.06-.13.18-.13.35 0 .01 0 .03-.02.04a.07.07 0 0 1-.04.01c-.25.02-.8-.07-.56-.42l.16-.43.74-.02a.33.33 0 0 0-.1.14l.04.01.02.04c.22-.16.48-.26.78-.3H14l.02.03.06.2.14.56a.5.5 0 0 1 0 .34.56.56 0 0 1-.43.2.72.72 0 0 1-.36-.02.1.1 0 0 1-.06-.04.4.4 0 0 1-.06-.26l-.02-.32Z" fill="#FECA47"/><path d="M13.31 10.68c0 .1.01.19.06.26a.1.1 0 0 0 .06.04c.15.04.27.04.36.01.17 0 .31-.07.42-.19l.05.03a.33.33 0 0 1-.26.21c-.27.07-.54.1-.82.08-.12-.01-.2-.05-.24-.11-.04-.07-.05-.17-.02-.28h.27c.06 0 .1-.02.12-.05Z" fill="#CF7023"/><path d="M3.73 10.87c.13.52.56.77 1.3.75-.38.07-.75.04-1.1-.09a.47.47 0 0 1-.3-.35c-.03-.14-.03-.3.02-.49l.08.18Z" fill="#ACA9EF"/><path fill-rule="evenodd" d="m5.2 9.02-.04-.13-.3-.14a.1.1 0 0 0-.1 0c-.12.1-.2.2-.24.34.23.12.25.25.05.41l-.02.02h-.06l-.14-.04c-.13 0-.18.05-.15.12.04.11.06.18.05.23l-.07.88.02.01c.2-.12.57-.16.81-.26 0-.05.05-.1.14-.14.1.09.18.22.24.38.03.07.08.1.16.1a.8.8 0 0 0 .38-.1c.15-.05.2-.13.15-.26a4.3 4.3 0 0 0-.57-1.02l-.3-.4Zm-.12.88s.04-.14-.1-.2h-.07l-.04.08.2.12Z" fill="#FEDA7B"/><path d="m5.08 10.72-.07-.26c-.24.1-.6.14-.81.26-.02.14.05.22.18.24l.03.02h.03c.24-.02.58-.03.64-.26Z" fill="#FEDA7B"/><path fill-rule="evenodd" d="m9.96 8.4-.23-.21c-.3.07-.58.23-.82.48l-.1.23-.28.7-.07.2a.39.39 0 0 0-.05.18c-.01.04-.03.06-.05.05l-.13.25c.04.02.04.08.01.18l-.01.05v.14c.05.19.2.28.44.26.2.04.38 0 .52-.15l.14-.2a.1.1 0 0 1 .06-.04l.3-.07a.1.1 0 0 1 .04 0c.02 0 .04.01.04.03l.02.23c0 .1.04.15.1.16.2.03.39.02.57-.04h.1c.13-.09.18-.22.14-.4l-.17-.6-.05-.15-.33-.88-.2-.4Zm-.23 1.34a1.33 1.33 0 0 0-.1-.28c-.04-.09-.08-.09-.11 0-.03.07-.05.16-.07.27.12.02.2.03.28 0Z" fill="#FEDA7B"/><path d="m5.62 9.35.02.02.25.53.2.42a.4.4 0 0 0 .11.2c.1.1.28.06.39 0a.26.26 0 0 0 .14-.14.07.07 0 0 0 0-.07c-.05-.08-.06-.14-.04-.18l.2.18v.01l.12.05.08-.01a.7.7 0 0 0 .23-.25c.02-.03.05-.04.08-.01.21.16.43.24.65.23a.3.3 0 0 0 .19-.04c.04.02.05.08.01.18l-.01.04a1.18 1.18 0 0 1-.65-.2c-.04-.03-.08-.02-.1.03-.08.25-.24.3-.45.13-.06-.04-.09-.03-.1.03v.04l.02.08c-.08.14-.3.14-.45.14h-.02c-.03 0-.05 0-.07.02-.24.2-.53.23-.87.1-.26.31-.63.35-1.12.11h.04c.23 0 .57-.03.64-.26l-.07-.25c0-.04.05-.1.14-.14.1.09.17.21.24.38.02.07.07.1.15.1a.8.8 0 0 0 .38-.1c.15-.05.2-.13.15-.25a4.3 4.3 0 0 0-.57-1.02l-.3-.41c.1.02.2.09.26.2.01.04.06.07.13.11Z" fill="#A2521B"/><path d="M7.8 11.2a5.8 5.8 0 0 1-.87.34c-.75.2-1.33.34-1.73.4-.46.07-.89-.07-1.28-.4.36.12.73.15 1.1.08a11.93 11.93 0 0 0 2.46-.67c.13-.08.25-.07.37-.04.03 0 .05.02.06.05.05.12.02.2-.1.24ZM11.11 11.04c.7.3 1.3.52 1.79.65.16.05.37.06.62.03.21-.02.52-.09.93-.19-.16.16-.33.26-.49.3-.49.13-1.02.25-1.5.1-.42-.12-.9-.3-1.47-.54-.03-.01-.05 0-.07.02-.05.07-.07.14-.13.21-.13.17-.34.26-.61.27-.71.05-1.25.06-1.6.05-.3-.01-.49-.16-.55-.45.07 0 .1 0 .09-.02.07.1.14.15.2.16.31.02.87.03 1.7 0 .5 0 .91-.12 1.05-.56 0-.02.02-.03.04-.03Z" fill="#48408C"/><path d="M11.07 11.07c-.14.44-.56.55-1.06.56-.82.03-1.38.02-1.69 0-.06 0-.13-.06-.2-.16l.2.1.08.02h1.7c.14-.01.3-.04.45-.08.29-.08.36-.25.52-.44Z" fill="#ACA9EF"/><path d="m11.45 7.16.01-.02a.06.06 0 0 1 .05-.01h.02c.06.04.1.08.12.13.03.05.02.1 0 .14l-.01.02a.18.18 0 0 1-.14.08.3.3 0 0 1-.17-.04h-.01l-.02-.01a.05.05 0 0 1-.01-.04v-.02l.16-.23Z" fill="#5A81CC"/><path d="M6.42 9.43c.01.05-.01.09-.07.12-.02.01-.05 0-.07-.01l-.02-.07a.2.2 0 0 1-.02-.06c0-.03.03-.05.06-.05.06 0 .1.03.12.07ZM10.93 9.22V9.2h.01V9.2H11l.04.03.03.04.02.05v.13a.09.09 0 0 1-.07.05h-.02l-.06-.28Z" fill="#A2521B"/></svg>