<!-- by TradingView --><svg width="18" height="18" viewBox="0 0 18 18" xmlns="http://www.w3.org/2000/svg"><path fill="url(#a)" d="M0 0h18v18H0z"/><path d="m13.08 7.29-.38-.22c.01-.11.05-.26.1-.44.11-.37.1-.81-.16-1.13a1.1 1.1 0 0 0-1.23-.39c-.27.07-.46.13-.57.17l-.7-.3a4.1 4.1 0 0 0-.34-.6c-.32-.37-.71-.5-1.18-.38-.2.05-.4.17-.58.36l-.38-.21c.35-.46.8-.68 1.34-.65.42.02.78.2 1.08.52.18.2.33.5.5.8a.07.07 0 0 0 .07.03c.3-.08.61-.2.89-.22.54-.06 1.02.08 1.39.5.33.38.46.82.38 1.31-.04.22-.11.5-.23.85Z" fill="#05BECA"/><path d="m7.66 4.15.38.21 1.41.82.53.3.68.4.77.45 1.27.74.38.22c.15.1.31.19.48.28.21.13.37.23.46.32a1.59 1.59 0 0 1-.3 2.51l-.33.19-1.41.82-.5.3-.78.44-.74.44-1.2.7-.41.23-.69.38a1.5 1.5 0 0 1-1.54-.03c-.45-.27-.7-.7-.76-1.27V8.96l-.02-.77c.02-.1.02-.25.02-.48V5.89c0-.37.02-.62.06-.77.11-.44.38-.76.79-.98.48-.25.96-.25 1.45 0Z" fill="#fff"/><path d="m7.42 4.53-.79 1.38a85.07 85.07 0 0 1-.16.07l-.65.17-.01-.58c0-.18.04-.36.12-.53.07-.16.18-.3.33-.4.28-.21.62-.27 1-.18l.16.07Z" fill="#121418"/><path d="m7.81 4.76-.57 1c-.2.07-.4.12-.6.15l.78-1.38.4.23Z" fill="#02949E"/><path d="m7.81 4.76 1.02.58-1.6.42.58-1Z" fill="#121418"/><path d="m10.84 5.28.6 1.05-.78-.45-.24-.44a.08.08 0 0 0-.08-.03l-.36.07-.53-.3.7-.2.69.3Z" fill="#02949E"/><path d="m9.36 5.66-2.22.6a2.2 2.2 0 0 0-.24.09c-.21.02-.41.07-.62.15l-.46.1v-.45a182.3 182.3 0 0 1 1.42-.39l1.59-.42.53.32Z" fill="#026D75"/><path d="m9.36 5.66 1.83 1.06c0 .04 0 .07.02.1l.97 1.7.07.13-.04.22-.57 2.1c0 .03.01.05.05.08l-1.88 1.1-2.16-.01a.1.1 0 0 1-.07-.03l-1.75-1.76a39.6 39.6 0 0 1 0-2.17L6.9 6.35l.24-.1c.72-.18 1.46-.38 2.22-.59Z" fill="#121418"/><path d="m4.74 9.24.3.32c.09.08.23.2.28.3a.5.5 0 0 0 .03.05v.6l-.53-.53-.33-.33c-.27-.28-.58-.54-.8-.9a1.62 1.62 0 0 1-.03-1.47c.21-.41.54-.68.99-.81l.58-.16c.06-.02.1 0 .1.07v.32c0 .04-.02.06-.07.07-.23.06-.51.12-.7.22-.43.22-.69.71-.6 1.19.04.2.12.37.25.53.09.1.26.28.53.53ZM6.9 6.35 5.83 8.18c-.02-.3-.03-.58 0-.82.07-.17.13-.3.17-.36.1-.16.2-.32.28-.5.2-.08.41-.13.62-.15Z" fill="#038A92"/><path d="M6.28 6.5 6 7l-.18.36V6.6l.46-.1Z" fill="#121418"/><path d="m11.19 6.72.71.41.52.9-.17.62c-.03-.05-.04-.1-.07-.13l-.97-1.7a.16.16 0 0 1-.02-.1Z" fill="#026D75"/><path d="m11.9 7.13.67.4-.15.5-.52-.9Z" fill="#121418"/><path d="m12.97 7.75-.22.84-.18.64-.42 1.56-.46.26c-.04-.03-.05-.05-.04-.07a829.58 829.58 0 0 1 .6-2.33l.17-.61.15-.52.4.23Z" fill="#038A92"/><path d="m13.54 9.98-.79-1.39.22-.84c.26.14.46.26.6.36.2.14.34.32.42.53a1.14 1.14 0 0 1-.45 1.34Z" fill="#121418"/><path d="m5.34 8.19.01.77c-.02.08-.05.16-.1.26-.06.13-.13.25-.2.34l-.31-.32c.18-.36.38-.7.6-1.05ZM12.75 8.6l.79 1.38-.4.23-.57-.98.18-.64Z" fill="#025E65"/><path d="M5.35 8.96v.95a.51.51 0 0 1-.03-.06c-.05-.1-.19-.21-.27-.3a1.59 1.59 0 0 0 .3-.59ZM13.14 10.21l-1 .58.43-1.56.57.98Z" fill="#121418"/><path d="m4.82 9.98-.3.54c-.12.22-.15.47-.1.74l-.46.01c-.12-.61.21-1.1.53-1.62l.33.33Z" fill="#026D75"/><path d="m9.8 12.14-.77.45-.9.01c-.04 0-.05.02-.02.04l.3.32-.4.22a9.78 9.78 0 0 1-.5-.5.23.23 0 0 0-.18-.08H5.8v-.46l1.11-.01c.01 0 .02 0 0-.02L5.83 11v-.64l1.76 1.76a.1.1 0 0 0 .07.03H9.8Z" fill="#02949E"/><path d="M13.71 10.4c.06.02.1.07.12.15.04.19.09.38.07.54-.05.55-.3.98-.73 1.27-.43.29-.9.25-1.48.24a5.06 5.06 0 0 0 .1-.46h.66c.26-.03.51-.14.67-.32.31-.33.4-.75.27-1.23l.32-.2Z" fill="#038A92"/><path d="M5.82 12.14v-1.15l1.1 1.12c.02.01.01.02 0 .02h-1.1Z" fill="#121418"/><path d="M4.41 11.26c.13.48.44.78.95.9v.43a1.59 1.59 0 0 1-1.4-1.31l.45-.02Z" fill="#038A92"/><path d="M11.98 11.4c-.04.26-.11.5-.2.74a5.14 5.14 0 0 1-.13.53c-.05.23-.1.46-.17.7-.1.33-.29.6-.56.81l-.21-.4c.16-.16.27-.34.33-.56a15.59 15.59 0 0 0 .27-1.1.1.1 0 0 0 .05-.02l.02-.03c0-.1.03-.23.1-.36l.5-.3Z" fill="#025E65"/><path d="M11.31 12.13c-.01.16-.04.32-.1.47l-1.25-.01.74-.44.61-.02Z" fill="#02949E"/><path d="m8.01 13.18-.36.23c-.4.23-.76.33-1.2.13a1.1 1.1 0 0 1-.64-.95c.5.02 1.01.02 1.52.01.07 0 .13.03.18.08.16.18.33.34.5.5ZM9.03 12.6l-.62.36-.3-.32c-.03-.02-.02-.04.02-.04h.9Z" fill="#121418"/><path d="m8.75 13.28.48.49c.11.1.27.19.42.23.39.1.74.02 1.06-.22l.21.4c-.6.44-1.4.43-1.97-.06a6.26 6.26 0 0 1-.6-.6l.4-.24Z" fill="#038A92"/><defs><linearGradient id="a" x1="3.35" y1="3.12" x2="21.9" y2="24.43" gradientUnits="userSpaceOnUse"><stop stop-color="#1A1E21"/><stop offset="1" stop-color="#06060A"/></linearGradient></defs></svg>