<!-- by TradingView --><svg width="18" height="18" viewBox="0 0 18 18" xmlns="http://www.w3.org/2000/svg"><path fill="#F0F3FA" d="M0 0h18v18H0z"/><path d="M6 12v3h1v-3h4.3c.24 0 .7-.09.7-.49s-.46-.51-.7-.51H5V7h6.3c.24 0 .7-.1.7-.5s-.46-.5-.7-.5H7V3H6v3H4v6h2Z" fill="#9BB6A5"/><path fill="#9BB6A5" d="M4 13h1v1H4zM4 4h1v1H4z"/><path d="M10 3H9v2h2.66c.67 0 1.34.7 1.34 1.76s-.9 1.74-1.34 1.74H7v1h4.66c.5 0 1.34.64 1.34 1.8 0 1.2-.9 1.7-1.34 1.7H9v2h1v-1h1.66c1.67 0 2.34-1.2 2.34-2.7 0-1.2-.9-2.19-1.34-2.3 1.07 0 1.35-1.58 1.34-2.24C14 4.59 12.5 4 11.66 4H10V3Z" fill="#045E5E"/></svg>