<!-- by TradingView --><svg width="18" height="18" viewBox="0 0 18 18" xmlns="http://www.w3.org/2000/svg"><path fill="#3C6658" d="M0 0h18v18H0z"/><path d="M14 9A5 5 0 1 1 4 9a5 5 0 0 1 10 0Z" fill="#87E0C2"/><path d="M7.28 10.12c.02.02.03.01.02-.02a2.5 2.5 0 0 0-.25-.48.04.04 0 0 0-.04-.02l-.45.09a.06.06 0 0 1-.07-.04 1.06 1.06 0 0 1-.08-.34.06.06 0 0 0-.03-.05c-.15-.08-.34-.09-.4-.27a8.22 8.22 0 0 1-.09-.35c.07-.05.16-.08.2-.15a.97.97 0 0 0 .16-.28v-.05c-.1-.09-.2-.17-.28-.26-.07-.08-.04-.17.02-.24.1-.1.14-.22.14-.35a.1.1 0 0 0-.03-.07.78.78 0 0 1-.17-.64c.02-.2.12-.36.23-.52.06-.1.14-.12.25-.08.02.01.04 0 .04-.02.02-.15.24-.21.36-.27a.3.3 0 0 0 .12-.1c.29-.42.61-.71 1.12-.86a.99.99 0 0 1 .32-.03c.07 0 .14 0 .2-.03.54-.17 1.27.02 1.72.33.08.06.17.1.27.14.1.04.2 0 .29-.02.17-.04.3.02.4.16h.05c.27-.1.46.1.42.36a.06.06 0 0 0 .04.07c.19.08.37.1.37.36 0 .09-.05.16-.07.24v.05c.08.2.03.36-.14.48a.03.03 0 0 0-.01.03c.18.23.13.53-.19.58l-.02.03v.33c0 .02.01.04.03.04.16.02.22.21.29.33.2.36-.4.48-.18.85.1.16-.03.32-.13.44a.05.05 0 0 0-.01.05l.05.12c.1.25.1.56-.13.72a.05.05 0 0 0-.03.05v.96c0 .13-.04.24-.11.34a.15.15 0 0 1-.08.05c-.22.07-.36-.06-.35-.27a4.03 4.03 0 0 0-.02-.22H11l-.01.02-.07 1.43c0 .2-.15.45-.38.42-.2-.03-.32-.24-.3-.42 0-.13.05-.38 0-.5l-.01-.02a.05.05 0 0 0-.05 0l-.02.01-.2.25c-.17.2-.26.46-.39.69a.19.19 0 0 1-.12.1c-.3.07-.6.1-.88.1a.16.16 0 0 1-.1-.03 2.3 2.3 0 0 0-.41-.29c-.08-.04-.14-.02-.22-.02-.64-.03-.91-.93-.56-1.36a.06.06 0 0 0 0-.07c-.08-.17-.12-.37-.23-.52a1.35 1.35 0 0 1-.28-.84c0-.18.1-.38.32-.25l.19.13Z" fill="#191A18"/><path d="m9.18 4.77-.06.63c0 .02 0 .03.02.03a1.46 1.46 0 0 1 .56.16.02.02 0 0 1 0 .03h-.04a7.16 7.16 0 0 0-.5-.03c-.25-.01-.46.1-.67.23a.06.06 0 0 0-.02.04l-.08.39a.4.4 0 0 0-.26.26.37.37 0 0 1-.25.15.04.04 0 0 1-.03 0 .03.03 0 0 1-.01-.03c0-.14.01-.27.07-.38.02-.05.01-.06-.03-.02l-.13.13c.01-.47.36-.3.6-.52l.21-.18c.07-.05.06-.06-.02-.05-.08.02-.2.14-.28.2-.13.09-.3.04-.4.14a.41.41 0 0 0-.14.18l-.11.37c-.08.24-.01.42.2.55.05.14.12.27.22.38l.24.55a.15.15 0 0 1-.02.15.8.8 0 0 1-.27.22.08.08 0 0 1-.05 0h-.05c-.1 0-.12.02-.04.09.03.01.07.02.14.01l.04.13-.06.01c-.52.04-1 .1-1.46.19a.57.57 0 0 0-.26.13c-.04.06-.08.09-.12.1v-.02c.06 0 .07-.04.05-.1v-.05c.07-.17.43-.26.61-.3.13-.04.27-.05.38-.1h.05c.02.02.04.01.05 0 .02-.05 0-.06-.03-.06l-.29.03-.14-.32a5.87 5.87 0 0 1 .06-.16h-.02l-.24.23a.12.12 0 0 1-.15 0l-.4-.33a.04.04 0 0 1-.01-.05l.1-.14c.01-.02.02-.02.03 0 .04.1.23.36.37.32a.84.84 0 0 0 .38-.27c.05-.06.06-.05.05.02-.03.11-.1.43.04.5.22.09.3-.16.3-.32a.02.02 0 0 1 0-.02.02.02 0 0 1 .02 0h.02c.04.13.1.22.2.3.24.2.58-.04.43-.35-.11-.22-.2-.44-.3-.62a.25.25 0 0 0-.3-.13c-.12.04-.25 0-.3.18 0 .01-.02.02-.03 0l-.01-.01c-.01-.18.16-.2.08-.4.04-.05.07-.07.1-.05a.1.1 0 0 0 .07.02h.03v-.03c.01-.3-.04-.62.15-.89h-.01a1.2 1.2 0 0 0-.26.6c-.09.07-.17.2-.3.13a1.6 1.6 0 0 1-.3-.2.26.26 0 0 0-.14-.07v.01l.13.12c.03.02.02.03-.01.04h-.06a.3.3 0 0 0-.26-.08h-.08c.03-.1.2-.31.3-.2 0 .02.02.03.04.03.07 0 .12.03.17.08a.02.02 0 0 0 .02 0 .02.02 0 0 0 .02-.02v-.01a40.58 40.58 0 0 0 .26.22L7 6.53c.02-.02.02-.03 0-.05l-.1-.17a.5.5 0 0 1 .04-.2l.04-.03a.25.25 0 0 0 .15-.12c.1-.19.18-.35.24-.5a.81.81 0 0 1 .21-.3c.01-.02.02-.03 0-.05h-.03A.6.6 0 0 1 7.8 5c.03 0 .05 0 .07.02.03.02 0 .1.04.15l-.34.53a.03.03 0 0 0 0 .02.02.02 0 0 0 .01.02h.03c.14-.16.2-.34.33-.5.32-.38.74-.6 1.25-.47Z" fill="#7EFA97"/><path d="M9.96 4.9c-.2.34-.23.72-.34 1.03-.31.03-.62.13-.92.3a.58.58 0 0 1 .1-.17c.01-.02 0-.02-.01-.02-.05 0-.1.02-.12.06a.3.3 0 0 1-.26.15H8.4l.08-.39c0-.02 0-.03.02-.04.2-.13.42-.24.67-.23a7.15 7.15 0 0 1 .54.02.02.02 0 0 0-.01-.02 1.46 1.46 0 0 0-.55-.16c-.01 0-.02 0-.02-.03l.06-.63c.27.01.53.06.78.14Z" fill="#37D0AD"/><path d="M7.9 5.17c-.03-.05-.01-.13-.05-.15A.11.11 0 0 0 7.8 5a1.28 1.28 0 0 1 .44-.17.01.01 0 0 1 0 .02l-.33.32Z" fill="#428D70"/><path d="M9.96 4.9c.13.06.24.13.35.22.16.13.31.09.36.35a3.06 3.06 0 0 1 .05.5.02.02 0 0 1-.02 0 .4.4 0 0 1-.08-.19c-.01-.09-.06-.15-.09-.23h-.02l-.01.01c.02.13.06.32.01.44-.01.03-.02.03-.03 0l-.1-.3c0-.01 0-.02-.01-.01h-.02v.01c.02.13.04.27.04.41 0 .05 0 .06-.02 0a.78.78 0 0 0-.39-.42l-.01.02v.02c.26.27.39.62.4 1.05a1.02 1.02 0 0 0 .25.54v.01l-.05.19c-.01.05 0 .08.06.08l.06.25c0 .05 0 .1-.02.14a.6.6 0 0 1-.07.13l-.23.2a1.3 1.3 0 0 1-.24.18l-.41.24-.27.12a.05.05 0 0 0-.03.03v.19a13.6 13.6 0 0 0 .48 1.37h.04l.1-.12c0 .4-.11.79-.33 1.16a1.47 1.47 0 0 0 0-.77H9.7l-.02.01c.02.17 0 .33-.06.49l-.05-.57a4.76 4.76 0 0 0-.93-2l.31-.09a3.79 3.79 0 0 1 .21.43c.01 0 .02 0 .02-.02a1.44 1.44 0 0 0-.25-.64l.13-.44.54-.17c.17-.05.3-.16.4-.31 0-.02 0-.02.02 0 .02.05.01.1-.02.14-.17.21-.36.38-.58.5-.04.02-.04.03 0 .02.14-.02.28-.07.41-.14.08-.05.1-.04.04.04-.13.16-.33.22-.5.31-.04.02-.03.02 0 .02.29 0 .7-.1.87-.34.14-.2.2-.42.2-.66a.14.14 0 0 0-.06-.1c0-.01-.02-.02-.03 0a.04.04 0 0 0-.02.03c.03.17.02.29-.02.34-.08.1-.1.1-.07-.03a.43.43 0 0 0-.02-.2.95.95 0 0 0-.12-.48c0-.04.04-.06.1-.05.01 0 .02 0 .02-.02v-.02c0-.02 0-.03-.02-.04a3.95 3.95 0 0 1-.22-.2.13.13 0 0 1-.05-.13l.03-.03h.01v-.04l-.21-.23h-.01l-.14-.07.04-.05-.01-.03c-.01 0-.02 0-.02-.02.1-.3.14-.69.34-1.02Z" fill="#0CABBB"/><path d="m7.55 5.1.03.01v.05a.71.71 0 0 0-.21.3 5.2 5.2 0 0 1-.25.5.25.25 0 0 1-.15.12.05.05 0 0 0-.03.04.5.5 0 0 0-.05.19l-.33-.24a.05.05 0 0 1-.02-.05c.01-.07.06-.12.15-.15.17-.05.25-.1.35-.26.15-.2.32-.36.51-.5Z" fill="#EDFCDF"/><path d="M11.07 5.23c0 .2-.03.4-.2.52a.04.04 0 0 0-.02.04v.01c0 .02.02.03.04.02l.2-.12c.07.14.26.07.38.16.1.08.12.25 0 .34-.1.08-.2.07-.34-.02a1 1 0 0 0-.26-.13.04.04 0 0 1-.02-.03l-.13-.7a.05.05 0 0 1 .02-.05.3.3 0 0 1 .33-.04Z" fill="#A530A1"/><path d="M11.07 5.23c.05.03.09.08.1.13.02.03.02.08 0 .14l-.07.2-.21.12c-.02 0-.03 0-.04-.02v-.03l.01-.02c.18-.11.21-.33.21-.52Z" fill="#F17DE4"/><path d="M11.83 5.85c-.06.19-.13.23-.18.14l-.04-.16a.04.04 0 0 0-.03-.02l-.31-.08a.06.06 0 0 1-.04-.03.06.06 0 0 1-.01-.05l.08-.25.03-.03c.14-.04.25 0 .3.12l.02.17c0 .1.06.16.18.2Z" fill="#A530A1"/><path d="M10.73 5.95c.02.04.02.07.01.1l-.03.03c-.18.05-.26.2-.2.38.02.05.02.1.02.16 0 .02 0 .03-.02.04l-.14.13a1.57 1.57 0 0 0-.4-1.08l.01-.02H10c.2.12.3.23.38.43.01.05.02.04.02 0a2.6 2.6 0 0 0-.03-.43h.02l.1.3c0 .04.02.04.03.01.05-.12 0-.3-.01-.44l.01-.02h.02c.03.1.08.15.09.24a.4.4 0 0 0 .07.19.02.02 0 0 0 .04 0v-.02Z" fill="#0F6170"/><path d="M7.75 6.36a.56.56 0 0 0 0 .38c.06.18.25.21.33.03a.56.56 0 0 0 .05-.26.4.4 0 0 1 .26-.26h.02c.04.01.03.03-.04.05a.08.08 0 0 0-.04.04l-.07.15c-.04.1-.02.1.05.03a2.26 2.26 0 0 1 1.3-.59l.03.02c.01 0 .02.02 0 .03l-.03.05c-.04 0-.08 0-.12.02-.02.01-.02.02 0 .04.12.09.23.2.34.31l.15.22.12.24c.07.13.14.32.12.48a.45.45 0 0 0-.12.18c0 .02-.02.03-.03.04-.04.03-.06.02-.07 0 .04-.06.04-.1.02-.15-.01-.02-.02-.02-.03 0a.66.66 0 0 1-.39.3l-.54.18c-.4.1-.66-.03-.8-.37-.03-.09-.06-.09-.07.01-.02.11 0 .24.07.33.06.08.14.17.09.28a.62.62 0 0 1-.37.31l-.14-.01c-.08-.07-.07-.1.03-.09h.11a.8.8 0 0 0 .27-.22.15.15 0 0 0 .02-.15l-.24-.55a.97.97 0 0 1-.05-.37c0-.02 0-.03-.02-.02l-.15.01c-.21-.13-.28-.31-.2-.55l.11-.37a.41.41 0 0 1 .13-.18c.12-.1.28-.05.41-.15.07-.05.2-.17.28-.19.08-.01.09 0 .02.05l-.22.18c-.23.21-.58.05-.59.52Z" fill="#1A1F19"/><path d="M11.65 5.99c.05.1.11.05.18-.14.15.03.22.12.2.27 0 .16-.1.27-.25.33l-.05-.01a.15.15 0 0 1-.05-.1.06.06 0 0 0-.03-.03.09.09 0 0 0-.04-.02c-.02 0-.03-.02-.02-.04l.06-.26Z" fill="#6E3277"/><path d="m7.23 6.8-.03-.32c.03-.22.11-.42.26-.6v.01c-.18.27-.13.59-.14.9v.01l-.03.01a.1.1 0 0 1-.06-.02Z" fill="#191A18"/><path d="M8.7 6.23c-.15.09-.28.19-.39.3-.07.07-.1.05-.05-.04l.07-.15.04-.04c.07-.02.08-.04.04-.05.11 0 .2-.05.26-.15a.13.13 0 0 1 .12-.06c.02 0 .02 0 0 .02a.58.58 0 0 0-.1.17Z" fill="#428D70"/><path d="m9.6 6.03.14.06.02.01.21.23v.04h-.01a.03.03 0 0 0-.03.03c0 .05 0 .1.05.13a3.93 3.93 0 0 0 .24.24v.02c0 .02-.01.03-.03.02-.05 0-.08.01-.09.05a6.87 6.87 0 0 1-.12-.24l-.15-.22c-.1-.12-.22-.22-.34-.31-.02-.02-.02-.03 0-.04a.25.25 0 0 1 .12-.02Z" fill="#0F6170"/><path d="M6.74 6.32a.1.1 0 0 0-.01.01.02.02 0 0 1-.02.02.02.02 0 0 1-.02 0 .24.24 0 0 0-.17-.08c-.02 0-.04 0-.05-.02-.1-.12-.26.1-.29.19a.58.58 0 0 0-.04.63c.02.02.02.04 0 .05 0 .02-.02.02-.03 0-.23-.3-.08-.74.13-1.02a.06.06 0 0 1 .05-.02c.15-.02.37.16.45.24Z" fill="#F8FDF4"/><path d="m11 6.79-.12-.06.07-.17c.01-.05 0-.06-.03-.06h-.02a.42.42 0 0 0-.11.22.2.2 0 0 1-.08.05.35.35 0 0 0-.08.04 2 2 0 0 0-.11.08c-.06-.18.23-.17.1-.41-.08-.19.06-.4.28-.34a.4.4 0 0 1 .17.12c.2.21.18.39-.06.53Z" fill="#C153B8"/><path d="M8.13 6.51c0 .1-.01.18-.05.26-.08.18-.27.15-.33-.03a.56.56 0 0 1 0-.38l.13-.13c.04-.04.05-.03.03.02a.83.83 0 0 0-.07.4.03.03 0 0 0 .02.01h.02c.1 0 .18-.06.25-.15Z" fill="#509052"/><path d="M11.6 6.35c-.02 0-.02.02-.03.03v.02c.03.06.03.1 0 .15 0 .02-.02.03-.04.03a.4.4 0 0 0-.2.1.53.53 0 0 1-.08-.3c0-.02 0-.03.03-.03.09.01.17 0 .25-.04a.04.04 0 0 1 .05.02l.01.02Z" fill="#A530A1"/><path d="m7.2 6.48.03.31c-.04-.02-.07 0-.11.06a.92.92 0 0 1-.6-.32l.06-.01c.03 0 .04-.02.01-.04l-.13-.12c-.01 0-.01-.01 0 0 .05 0 .1.02.13.05l.3.21c.14.07.22-.06.3-.14Z" fill="#509052"/><path d="M11.6 6.35a.2.2 0 0 1 .06.1c.03.14-.02.24-.15.3-.08.03-.1.06-.1.15-.13.18-.28.2-.44.06a.23.23 0 0 1-.09-.23l.13.06c.03.06.08.09.16.09a.2.2 0 0 0 .13-.06c.06-.05.07-.1.04-.15a.4.4 0 0 1 .2-.09l.03-.03a.15.15 0 0 0 0-.15v-.02l.02-.03Z" fill="#428D70"/><path d="M9.47 6.41c.06 0 .1 0 .14.05a1.67 1.67 0 0 1 .23.33h-.01c-.02.02-.04.02-.05 0a.75.75 0 0 0-.35-.24 2.3 2.3 0 0 1-.2-.07c-.08-.04-.08-.05.01-.05.08 0 .15 0 .23-.02Z" fill="#2B515F"/><path d="M12 6.62V6.6a.02.02 0 0 0-.02 0l-.08.13-.02-.22c0-.02.01-.03.03-.04l.06-.04c.02-.01.04 0 .05.02.02.06.02.12-.01.18Z" fill="#6E3277"/><path d="M6.18 6.44h.08l.13.14v.04a.81.81 0 0 0-.2.34.3.3 0 0 1-.05.11.58.58 0 0 1 .04-.63Z" fill="#509052"/><path d="M10.88 6.73c-.01.1.02.17.09.23.16.14.31.12.44-.06.05 0 .08 0 .1-.04 0 .04.02.06.05.07.1.02.18.02.25 0l.03.02c0 .1-.07.18-.2.23-.01-.05-.03-.08-.05-.09-.02 0-.04 0-.04.02a.1.1 0 0 0-.01.04l-.24.18a.05.05 0 0 0-.02.05c0 .07.01.14.03.2l.02.19c0 .07.02.13.05.17-.06.02-.13.04-.22.05-.14.03-.27.09-.4.17 0-.02 0-.04-.02-.05a.04.04 0 0 0-.06.02c-.05.26-.16.47-.3.62a.08.08 0 0 0-.03.05.8.8 0 0 1-.05.21c-.07.14-.14.26-.18.41-.05.2 0 .42.01.62a.9.9 0 0 1-.09.3l-.1.1c-.01.02-.03.02-.04.01-.02 0-.03-.03-.03-.06v-.04h.06c.12-.2.13-.5.12-.71 0-.16.03-.32.08-.5a.58.58 0 0 0 .03-.22.02.02 0 0 0-.02-.02c-.04 0-.07 0-.1.04-.12.2-.1.47-.13.7 0 .03-.01.03-.02 0a.43.43 0 0 1-.03-.21l.02-.46a.03.03 0 0 0-.02-.03h-.02l-.22.03c-.02 0-.03.02-.03.04l.11.45.15.85c-.15-.38-.3-.8-.42-1.23a.38.38 0 0 1-.01-.19c0-.01.01-.03.03-.03l.27-.12c.18 0 .35-.03.5-.08.1-.03.16-.08.2-.13.07-.08.13-.22.18-.4a.6.6 0 0 0 .07-.14c.02-.04.03-.1.02-.14a1.98 1.98 0 0 0-.06-.25 3.7 3.7 0 0 0 .5-.2c.06-.08.05-.1-.04-.05a1.54 1.54 0 0 1-.34.12.03.03 0 0 1-.02-.03v-.02c.05-.08.06-.13.03-.17.12 0 .2-.04.23-.14l-.01-.04a.5.5 0 0 1-.19-.35.51.51 0 0 1 .1-.21l.03-.01c.03 0 .04.01.03.05l-.07.18Z" fill="#23363F"/><path d="m9.53 6.77-.3-.06a1.52 1.52 0 0 0-.75.05c.06-.08.1-.12.16-.14.29-.11.64-.02.9.15Z" fill="#9F8C0F"/><path d="M12 6.62c-.03.13-.14.18-.2.3a.44.44 0 0 1-.24.01c-.03 0-.04-.03-.05-.07l.39-.14.08-.13a.02.02 0 0 1 .01-.01H12c.02.02.01.03 0 .04Z" fill="#428D70"/><path d="m9.54 6.77.07.05c0 .03-.01.04-.04.05-.1.02-.19 0-.23.12l-.09.03c-.02 0-.03 0-.04-.02-.27-.43-.92-.13-.67.33.02.04.08.1.17.18l.05.01.29-.03c.08.05.16.03.24-.04a.29.29 0 0 0 .1-.2l-.01-.28c.14.02.25 0 .35-.07.1.07.3.3.17.42h-.33c-.17 0-.17.01-.01.06l.24.1a.39.39 0 0 1-.2.12c-.17.03-.36.08-.56.14a.69.69 0 0 1-.42 0c-.04-.01-.05-.04-.02-.08a.1.1 0 0 0 .02-.05c0-.04-.01-.04-.04 0a.11.11 0 0 1-.05.03h-.05a.24.24 0 0 1-.1-.1c-.12-.32-.09-.57.1-.78.28-.08.53-.1.76-.05l.3.06Z" fill="#FCEA3A"/><path d="M10.79 6.72c0 .13.07.25.19.35.01.01.02.03.01.04-.03.1-.1.15-.24.14-.1-.08-.26-.22-.23-.36a2 2 0 0 1 .1-.08.34.34 0 0 1 .1-.04.2.2 0 0 0 .07-.05Z" fill="#A530A1"/><path d="M9.34 6.99h.03l-.1.07a.05.05 0 0 0-.02.04c.02.15-.05.28-.2.39l-.3.03-.04-.01a.75.75 0 0 1-.18-.18c-.25-.46.4-.77.68-.33 0 .02.02.03.04.02l.09-.03Z" fill="#D1BA0C"/><path d="M9.6 6.82c.05.02.1.04.13.08a.52.52 0 0 1-.35.07L9.37 7h-.03c.04-.12.13-.1.23-.12.03 0 .04-.02.04-.05Z" fill="#6E3277"/><path d="M6.95 7.12a.67.67 0 0 0-.36-.2c.1-.06.18-.06.25-.02.07.04.12.07.17.07.02 0 .03.02.02.03a.25.25 0 0 1-.08.12Z" fill="#9F8C0F"/><path d="M6.6 6.92c.13.03.25.1.35.2v.22c0 .1-.01.17-.04.22-.07.15-.22.3-.4.25a.28.28 0 0 1-.21-.16l.05-.6c.05-.06.13-.1.24-.13Z" fill="#FCEA3A"/><path d="M11.63 7.18c.14-.05.2-.13.2-.23.05.02.08.05.08.1.03.15-.04.26-.19.33a.03.03 0 0 1-.04-.01v-.02l-.05-.17Z" fill="#428D70"/><path d="m8.84 7.15.01.01h.03a.11.11 0 0 1 .08-.07c.03 0 .04 0 .04.03-.01.26-.36.18-.3-.02.02-.08.07-.11.17-.11.02 0 .03.01.02.03a.28.28 0 0 1-.05.08c-.02.02-.02.04 0 .05Z" fill="#191A18"/><path d="M9.38 6.97c.01.1.01.2 0 .28 0 .09-.04.15-.09.2-.08.07-.16.09-.24.04.15-.11.22-.24.2-.39a.04.04 0 0 1 .02-.04l.1-.07v-.02Z" fill="#FBF8B5"/><path d="M8.03 7.43a1.2 1.2 0 0 1-.22-.38l.14-.01c.02 0 .03 0 .03.02a.8.8 0 0 0 .05.37Z" fill="#509052"/><path d="m6.34 7.05-.04.6c-.16-.18-.15-.38.04-.6Z" fill="#FBF8B5"/><path d="m11.54 7.15.03.7c0 .01 0 .03-.02.04a.4.4 0 0 1-.18.05.37.37 0 0 1-.04-.17.99.99 0 0 0-.02-.18 1.51 1.51 0 0 1-.03-.21c0-.02 0-.04.02-.05l.24-.18Z" fill="#359F8B"/><path d="m6.57 7.32.07-.03c.02-.01.04 0 .04.03 0 .05-.03.1-.07.12a.11.11 0 0 1-.1.01c-.08-.03-.12-.08-.1-.15.02-.07.06-.1.13-.1.02 0 .03 0 .04.02 0 .03 0 .05-.03.08-.02.02-.02.03.02.02Z" fill="#191A18"/><path d="M10 7.55c0 .03.03.04.07.01a.08.08 0 0 0 .03-.04.45.45 0 0 1 .12-.18c.02.07.03.14.02.2-.03.12 0 .13.07.03.04-.05.05-.17.02-.34 0-.02 0-.03.02-.04h.03a.14.14 0 0 1 .06.1c0 .25-.06.47-.2.67-.17.24-.59.34-.87.34-.04 0-.04 0 0-.02.17-.08.37-.15.5-.31.06-.08.04-.1-.04-.04a1.1 1.1 0 0 1-.4.14c-.05 0-.06 0-.01-.02.22-.12.41-.29.58-.5Z" fill="#0F6170"/><path d="M9.9 7.32a.24.24 0 0 1-.1.16l-.24-.1c-.16-.05-.16-.07 0-.07l.34.01Z" fill="#A530A1"/><path d="m9.06 7.9-.13.43a.66.66 0 0 0-.34-.03l-.02.02c0 .02.01.02.03.02.15 0 .27.08.35.22l-.3.1a.95.95 0 0 0-.5-.09l-.13.01-.04-.13a.62.62 0 0 0 .37-.3c.05-.12-.03-.2-.1-.29a.42.42 0 0 1-.06-.33c.01-.1.04-.1.08 0 .13.33.4.46.8.36Z" fill="#46DDA7"/><path d="M11.9 8.2a.18.18 0 0 1-.08.08c-.05.01-.1 0-.17-.06a.05.05 0 0 0-.06 0c-.19.16-.45.18-.63.32-.28.2-.27.54-.26.87-.02.06-.05.1-.09.1V9.4c-.04-.1-.06-.1-.07 0-.05.37.02.75.02 1.14l-.03.18-.08.18a73.41 73.41 0 0 1-.96 2.12c-.05.1-.1.1-.2.12-.2.05-.4.1-.59.13a.3.3 0 0 1-.33-.14.7.7 0 0 1 .49-.2c.2.02.42.02.52-.15a23.24 23.24 0 0 0 .54-1.03c-.03-.02-.04-.02-.06 0l-.35.43a5.6 5.6 0 0 0-.2.23.84.84 0 0 1-.46.3c-.21.04-.43.04-.64.12l-.3.08a.4.4 0 0 1-.3-.06c-.01-.07-.06-.14-.15-.2v-.04c.01-.02.03-.03.05-.02h.02l.03.01c.11.1.22.13.34.12a3.87 3.87 0 0 0 .34-.07l.03-.04.47-.1c.19.05.35 0 .48-.13a.7.7 0 0 0 .15-.28c.07-.08.1-.14.08-.17a.95.95 0 0 0 .26-.44c.22-.37.33-.76.33-1.16.06-.13.1-.23.09-.29-.01-.2-.06-.41 0-.62.03-.15.1-.27.17-.4a.98.98 0 0 0 .05-.22c0-.02 0-.03.02-.05.15-.15.26-.36.31-.62a.04.04 0 0 1 .03-.03.04.04 0 0 1 .03 0c.02.02.02.04.02.06a1.8 1.8 0 0 1-.16.68h.02l.2-.3c.21-.2.47-.34.74-.43.09-.03.13-.08.12-.14.12-.04.18.12.23.22Z" fill="#1F98A7"/><path d="M11.68 7.97c0 .06-.03.1-.12.14-.28.1-.53.24-.75.43 0-.2.08-.31.23-.36l.64-.21Z" fill="#A530A1"/><path d="m6.8 8.1.14.3-.72.19.14-.28c0-.02.02-.02.04-.01l.12.02.05-.01.23-.22Z" fill="#509052"/><path d="M10.6 8.12a.99.99 0 0 1-.18.41c-.04.05-.1.1-.2.13a1.9 1.9 0 0 1-.5.08l.41-.24c.09-.04.17-.1.24-.18l.23-.2Z" fill="#46DDA7"/><path d="M11.86 8.5c-.1-.05-.19 0-.28.14-.06.11-.1.32.02.42.09.07.1.06.07-.02.15.1.04.25-.06.35-.01.02-.03.02-.04.01-.13-.07-.22-.15-.36-.03a.13.13 0 0 0-.03.14l.02.05.08.07v.05c-.16.1-.48.22-.62.05a.28.28 0 0 1-.05-.23c.04 0 .07-.03.1-.1v.04a.03.03 0 0 0 .05.01v-.01c.02-.05.02-.1.02-.14-.01-.16.19-.22.3-.25a.24.24 0 0 0 .14-.35.07.07 0 0 0-.05-.04l-.09-.02c-.05-.02-.06-.04 0-.07.21-.11.3.1.34.27 0 .02.01.03.02.03h.02c.02 0 .03 0 .03-.02a.46.46 0 0 0-.13-.34v-.04l.22-.11a.06.06 0 0 1 .05 0c.05.02.1.03.17.03.02 0 .04-.01.05-.03.02-.03.01-.06-.03-.08a.18.18 0 0 0 .08-.09c.1.14.1.24-.04.3Z" fill="#2B515F"/><path d="M6.12 9c-.1-.2-.07-.33.1-.41l.72-.18.28-.03c.04 0 .06.01.04.05-.01.02-.03.03-.05.01a.04.04 0 0 0-.05 0c-.12.05-.25.06-.38.1-.18.04-.54.13-.6.3v.05c.01.06 0 .1-.06.1Z" fill="#EDFCDF"/><path d="M11.86 8.5c-.11.17-.23.31-.2.54.05.08.02.09-.06.02-.11-.1-.08-.3-.02-.42.09-.14.18-.2.28-.15Z" fill="#428D70"/><path d="M8.64 8.66a4.76 4.76 0 0 1 .98 2.56c-.05.19-.1.31-.12.37-.15.3-.37.49-.66.6.1-.12.13-.22.1-.29a2.12 2.12 0 0 0-.14-.3.02.02 0 0 0-.02 0v.01l-.07.15H8.7v-.37a.5.5 0 0 0-.12-.33.22.22 0 0 1 0-.14v-.2c.01-.02.03-.04.05-.04.01 0 .03-.02.03-.04a.4.4 0 0 1 .1-.18l.13.54-.08.03a.14.14 0 0 0-.06 0c-.02 0-.02 0-.02.02.02.2.06.4.14.6.01.04.04.06.08.05l.1-.02c.02 0 .03-.02.04-.05a.97.97 0 0 0-.05-.34 1.03 1.03 0 0 1-.04-.22c0-.1-.02-.17-.03-.22l-.14-.45c0-.12.06-.2.2-.24.03-.01.04-.02.04-.04a.64.64 0 0 0 0-.21c0-.02-.02-.03-.04-.03h-.07c-.03 0-.04.01-.03.04l.03.12a.07.07 0 0 1-.02.07l-.13.11c-.01.02-.03.02-.05 0v-.07a1.45 1.45 0 0 1-.1-.66l.04-.2v-.1c0-.02 0-.04-.02-.05L8.53 9c-.02-.02-.04-.02-.05 0a.17.17 0 0 0-.06.14c-.06.2-.03.36.1.46.03.09.05.18.06.29 0 .01 0 .03.02.04a.4.4 0 0 1 .13.27c0 .05-.02.1-.07.12l-.1.06c-.04.02-.06 0-.07-.04-.03-.13-.1-.24-.12-.38a.93.93 0 0 0-.14-.35.07.07 0 0 1 0-.05c0-.03.02-.05.06-.05.02 0 .03 0 .04-.02l.02-.1c.02-.17.03-.54-.25-.38a.84.84 0 0 1-.14.07l-.05-.12a.4.4 0 0 1 .13-.13c.13-.1.27.02.31.14.02.04.03.04.04 0l.01-.03a.08.08 0 0 1 .05-.02c.1-.01.19.01.27.07h.02v-.04a.63.63 0 0 0-.27-.23c-.18-.08-.45-.05-.67-.04a.93.93 0 0 1 .18-.01.1.1 0 0 0 .05-.02c.02 0 .02-.02.03-.03 0-.03 0-.04-.03-.04h-.07.06c.04 0 .09 0 .13-.02a1 1 0 0 1 .49.09Z" fill="#271D26"/><path fill-rule="evenodd" d="m8.65 11.56.37-.38-.54.17c.04.1.1.17.15.22h.02Zm-.27.14a1.01 1.01 0 0 0 1.9-.18 1.02 1.02 0 0 0 .12-.4 1.2 1.2 0 0 0-.37-.98l-.08.07a1.03 1.03 0 0 0-1.15-.06 1.06 1.06 0 0 0-.46 1.24h.03l-.12.06.13.25Zm0-.32-.04.01a.74.74 0 0 1-.02-.27c0-.01.01-.1.05-.2v-.01l.06-.13a.94.94 0 0 0-.03.16l.7.06-.7-.06a.8.8 0 0 0 .07.4l-.1.04Zm.1-.03-.01-.02.64-.33h.07l-.16.18-.54.17Zm.7-.34h-.07l.15-.09-.08.09Zm.09-.09.32-.17.28-.29a1.03 1.03 0 0 0-.1-.06l.18-.18a.99.99 0 0 0-1.1 0l.07.13h-.01l-.09-.13a1 1 0 0 0-.39.56.98.98 0 0 1 .48-.42l.35.56Zm0 0 .5-.52a.96.96 0 0 0-.85-.05l.35.57Zm.6-.46-.27.29.38-.2a.94.94 0 0 0-.1-.09Zm-1.24 1.11h.02-.01Zm1.68-.22h-.07m-.09-.56Z" fill="#D18D6E"/><path d="m7.91 8.97-.1-.28c.2 0 .48-.04.66.04.12.05.2.13.27.23v.05h-.02a.34.34 0 0 0-.27-.08.08.08 0 0 0-.05.02l-.01.03c-.01.04-.02.04-.04 0-.04-.12-.18-.23-.31-.14a.48.48 0 0 0-.13.13Z" fill="#6E3277"/><path d="M7.88 9.34c0 .05-.02.06-.07.03 0-.05 0-.08-.02-.11-.01-.02-.03-.02-.04 0l-.02.02c-.03.02-.04 0-.05-.02l-.03-.11h-.03a.02.02 0 0 0 0 .01v.16a.04.04 0 0 1-.01.04l-.02.01H7.4l-.01-.02a1.34 1.34 0 0 1 0-.37l.02-.2c0-.02 0-.03.02-.04a.7.7 0 0 1 .28-.02c.02 0 .03.01.03.03.01.04.01.07.03.1.09.15.12.31.1.49Z" fill="#D1BA0C"/><path d="m6.94 8.81-.03.08-.07.19c-.01.03-.03.03-.04 0a.56.56 0 0 0-.12-.19c-.02-.01-.02-.03 0-.04a.42.42 0 0 1 .26-.04Z" fill="#A530A1"/><path d="m7.3 9 .03.48v.02l-.03.01-.42.04v-.03h.01l.02-.01c-.02-.17-.05-.4.04-.55a.28.28 0 0 1 .13-.04c.02 0 .03 0 .04.03 0 .02.02.04.05.05l.03-.01a.15.15 0 0 0 .04-.1c0-.01 0-.02.02-.01h.01l.02.01.01.11Z" fill="#FCEA3A"/><path d="M6.12 9c.04 0 .08-.03.12-.09.06.02.12.02.18-.01.04-.03.05-.01.04.03l-.05.18c0 .01-.02.02-.03.01A.8.8 0 0 1 6.12 9Z" fill="#509052"/><path d="m9.87 10.39-.02-.08-.15-.85c0-.08.02-.14.06-.19a.03.03 0 0 1 .03 0 .03.03 0 0 1 .03.02l.04.14c0 .07 0 .15.03.21 0 .03.02.03.02 0 .02-.23 0-.5.14-.7.02-.03.05-.05.09-.04h.01v.02c.01.08 0 .16-.02.23-.06.17-.08.33-.08.49 0 .2 0 .51-.12.7l-.02.01h-.04v.04Z" fill="#A530A1"/><path d="M6.75 9.15a.51.51 0 0 0-.29.02l.08-.23a.03.03 0 0 1 .04-.03l.01.01c.08.05.13.13.16.23Z" fill="#5A5413"/><path d="m9.86 9.43-.04-.14a.03.03 0 0 0-.03-.03.03.03 0 0 0-.02.01.26.26 0 0 0-.07.19L9.6 9c-.01-.02 0-.04.02-.04l.22-.03a.03.03 0 0 1 .04.02v.01l-.02.46Z" fill="#6E3277"/><path d="m8.35 9.4-.12-.09a.06.06 0 0 1-.03-.04l.01-.1v-.04a.04.04 0 0 0-.04-.02c-.02 0-.03 0-.04.02a.44.44 0 0 0-.08.26c-.06 0-.09 0-.09-.04V9.1l.15-.07c.27-.16.26.21.24.37Z" fill="#FCEA3A"/><path d="M8.7 9.3c-.05-.09-.14-.14-.28-.15 0-.05.01-.1.05-.14.02-.02.04-.02.05 0l.16.13.02.04v.11Z" fill="#9F8C0F"/><path d="m8.35 9.4-.02.1c0 .02-.02.03-.04.02-.04 0-.06.02-.07.05l.01.05c.08.12.12.23.14.35.02.14.1.25.12.38 0 .05.03.06.08.04l.1-.06a.12.12 0 0 0 .06-.12.4.4 0 0 0-.13-.27.06.06 0 0 1-.02-.04c0-.1-.03-.2-.07-.29.07-.07.06-.15-.04-.22a.04.04 0 0 1-.02-.04c0-.02.01-.03.03-.04h.05l.14.18c-.03.21 0 .43.08.66v.04l.01.03c.02.02.04.02.05 0l.13-.1a.07.07 0 0 0 .02-.08l-.03-.12c-.01-.03 0-.04.03-.04h.07c.02 0 .04 0 .04.03v.2c0 .03-.01.04-.03.05-.15.04-.21.12-.2.24-.04-.07-.07-.05-.08.06a.39.39 0 0 0-.1.18c0 .02-.01.03-.03.04a.06.06 0 0 0-.04.03c-.02.06 0 .14-.02.2a.86.86 0 0 0-.12-.5l-.1-.29c-.08-.26-.19-.49-.3-.73 0-.1.02-.18.08-.26a.05.05 0 0 1 .04-.02c.02 0 .03 0 .03.02v.14c0 .02.01.03.03.04l.12.08Z" fill="#A530A1"/><path d="M6.75 9.15c.08.09.1.19.07.31a.4.4 0 0 0-.14.02.05.05 0 0 1-.07-.02c-.04-.1-.1-.16-.16-.18a.08.08 0 0 1 .01-.1.5.5 0 0 1 .29-.03Z" fill="#FCEA3A"/><path d="M7.81 9.37H7.6h.02a.04.04 0 0 0 .02-.05l-.02-.16a.02.02 0 0 1 .02-.02h.01l.01.01.03.1c0 .04.03.05.05.03l.02-.02c.02-.02.03-.02.04 0 .02.03.03.06.02.1Z" fill="#6E3277"/><path d="m8.7 9.3-.03.19a.48.48 0 0 0-.14-.17.05.05 0 0 0-.05 0 .05.05 0 0 0-.03.03c0 .01 0 .03.02.04.1.07.11.15.04.22-.12-.1-.15-.26-.09-.46.14.01.23.06.28.14Z" fill="#FCEA3A"/><path d="M6.82 9.46c.01.03.03.05.06.06v.03a.7.7 0 0 1-.3.05.05.05 0 0 1-.04-.02.73.73 0 0 1-.09-.3c.07.02.12.08.16.18a.05.05 0 0 0 .07.02.4.4 0 0 1 .14-.02Z" fill="#EDFCDF"/><path d="M7.96 9.35c0 .03.03.04.1.04.1.24.21.47.29.73l.1.3c-.22.07-.42.1-.63.05l-.14-.03-.32-.12a.16.16 0 0 0-.06-.07c.06-.02.1-.05.14-.08.02.07.11.12.26.14.03 0 .04 0 .03-.02a.24.24 0 0 0-.03-.11.06.06 0 0 1 0-.05c0-.05 0-.08-.03-.1 0-.13-.04-.27-.09-.41-.02-.08-.07-.1-.15-.07-.02-.03-.02-.05 0-.07a.05.05 0 0 1 .04-.02h.1c.02 0 .03-.01.04-.03.01-.02 0-.04-.02-.06h.22c.05.03.07.02.07-.03l.08.01Z" fill="#271D26"/><path d="M11.65 9.7c-.07-.02-.1 0-.1.08-.03-.11-.12-.2-.25-.27a.05.05 0 0 1-.02-.03c-.02-.05 0-.07.08-.08h.04c.1.06.2.15.25.3Z" fill="#9F8C0F"/><path d="M8.8 9.53v-.01h.05l.03.01.03.03.01.04.02.04v.04l-.01.04-.02.03-.03.02h-.02l-.06-.24Zm-1.13.51v.02a.04.04 0 0 1-.04-.02l-.21-.44.01-.05c.07-.03.13-.01.15.07.05.14.08.28.1.42Z" fill="#A530A1"/><path d="M7.42 9.6a7.24 7.24 0 0 1 .22.45h.02l.01-.01c.03.01.04.04.03.09v.05c.02.03.03.07.03.1s0 .04-.03.03c-.15-.02-.24-.07-.26-.14a47.92 47.92 0 0 1-.14-.35.58.58 0 0 0-.12-.18V9.6a.32.32 0 0 1 .24-.01Z" fill="#6E3277"/><path d="M11.65 9.7c.1.2.08.38-.05.52a.35.35 0 0 1-.44.07.05.05 0 0 1-.02-.06c.02-.05.05-.06.1-.05.33.09.4-.14.3-.4 0-.08.04-.1.1-.08Z" fill="#FCEA3A"/><path d="M11.46 9.81a.01.01 0 0 1 .01.02v.22l-.01.01h-.03l-.02-.01V10l-.01-.17v-.01h.06Z" fill="#428D70"/><path d="M10.97 10.11c.04.06.1.08.13.06.03-.02.02-.08-.02-.13-.03-.06-.09-.08-.12-.06-.03.02-.02.08.01.13Z" fill="#3C6658"/><path d="M7.1 10.1c-.12 0-.19.03-.19.1-.01.21.03.42.12.62l.06.15c.01.03 0 .04-.02.01-.17-.17-.23-.62-.22-.82a.12.12 0 0 1 .14-.12l.06.03.04.03Z" fill="#EDFCDF"/><path d="m7.3 10.25.06.07c-.04-.01-.06-.01-.07 0a.06.06 0 0 0 .01.07l.02.01c.16.07.28.08.36.04l.14.03h-.06c-.02.01-.02.02 0 .04.02.04.06.06.1.07.2.03.4 0 .56-.1.01-.01.02 0 .02.01l.01.15c-.24.12-.4.1-.69.05-.02 0-.03.01-.03.03 0 .02 0 .04.03.04.12.06.25.1.38.13.1.02.2-.01.29.02.01 0 .02.02 0 .03v.01a1.3 1.3 0 0 1-.63.05c-.21-.04-.37-.18-.54-.31-.03-.02-.03-.02-.01.01a.6.6 0 0 0 .12.15c.04.04.03.07-.02.08a.37.37 0 0 1-.32-.1c-.1-.21-.13-.42-.12-.63 0-.07.07-.1.18-.1l.21.15Z" fill="#A530A1"/><path d="M10.96 10.96a.38.38 0 0 0-.14-.11l.04-.6c0-.02.02-.03.04-.03.03 0 .05.02.06.05.09.2 0 .47 0 .69Z" fill="#3C6658"/><path d="m7.36 10.32.32.12c-.08.04-.2.03-.36-.04a.06.06 0 0 1-.03-.04.06.06 0 0 1 0-.05l.07.01Zm1.47.08.14.45c.01.05.03.13.03.22 0 .08.02.15.05.22l-.02.04-.01.02a.03.03 0 0 1-.06-.02l-.02-.16L8.9 11l-.13-.54c.01-.1.04-.13.07-.06Zm-.26.52.01.14a.75.75 0 0 0 0 .32.2.2 0 0 0-.02.13c0 .02 0 .03-.02.04-.03.02-.07.01-.12-.03v-.13c.05-.02.07-.06.07-.13v-.17l-.02-.13-.02-.32v-.15c0-.02-.02-.02-.03-.01a.8.8 0 0 1-.56.1.16.16 0 0 1-.1-.07c-.02-.02-.02-.03 0-.04h.06c.2.04.41.02.63-.05.08.1.13.27.12.5Z" fill="#F17DE4"/><path d="M11.18 11.6c.08 0 .13-.03.13-.1v-.07c.04-.2.05-.4.03-.58l.03-.34.01-.04.04-.02.05-.01c.03 0 .04 0 .04.03-.02.23-.04.56-.05.98 0 .08-.03.14-.1.2a.05.05 0 0 1-.04.01.27.27 0 0 1-.14-.07Z" fill="#359F8B"/><path d="m8.45 10.64.02.32h-.05l.02-.02-.01-.03c-.1-.03-.19 0-.28-.02a2.27 2.27 0 0 1-.4-.13.04.04 0 0 1-.02-.04c0-.02.01-.03.03-.03.3.05.45.07.7-.05Z" fill="#6E3277"/><path d="m9.13 10.99.14.25c.02.05.04.05.04 0 0-.04 0-.1-.02-.15-.01-.04 0-.07.03-.08h.03l.03.03c.01.01.02 0 .02-.01a.2.2 0 0 0-.07-.17.35.35 0 0 1 .1-.1c.02-.02.03-.01.03 0 .07.22.03.42-.1.6-.02.03-.05.04-.08.02l-.15-.06a.06.06 0 0 1-.04-.04 12.34 12.34 0 0 1-.01-.28c0-.01.03-.02.05-.01Z" fill="#FCEA3A"/><path d="M9.33 10.86c.05.05.08.1.07.17 0 .02 0 .02-.02 0l-.03-.02a.03.03 0 0 0-.03 0c-.03.01-.04.04-.03.08.02.06.03.1.02.15 0 .05-.02.05-.04 0L9.13 11l.2-.13Zm1.49-.01c.06.03.1.06.14.1a1.58 1.58 0 0 1 .05.05.06.06 0 0 0 .07-.02.42.42 0 0 1 .25-.13c.02.19.02.38-.02.58v.07c0 .07-.05.1-.13.1a2.18 2.18 0 0 1 0-.34c0-.05-.01-.1-.06-.14-.1-.06-.18-.02-.22.09l-.05.16a.06.06 0 0 0-.03-.02c-.01 0-.02 0-.02.02l-.01.07c0 .02-.01.02-.03.02l-.02-.03a1.05 1.05 0 0 1 0-.33c0-.12.04-.2.08-.25Z" fill="#A530A1"/><path d="M10.73 11.1c-.01.1-.01.21.01.33l.01.02.01.01c.02 0 .03 0 .03-.02v-.07l.03-.02.03.02-.06 1.29c-.01.1-.1.33-.24.33-.1 0-.14-.11-.12-.2.03-.15.02-.3.05-.45a6.95 6.95 0 0 0 .13-.79.1.1 0 0 0 .01-.06 2.26 2.26 0 0 1 .04-.55h.02s.01 0 0 0c-.01.07 0 .12.05.16Z" fill="#797292"/><path d="M8.94 11.17v.1c0 .01 0 .02-.02.03H8.9a.07.07 0 0 1-.03-.03.25.25 0 0 1-.02-.12c0-.02 0-.04-.02-.05-.02-.02-.03-.04-.02-.07L8.9 11l.05.17Z" fill="#A530A1"/><path d="M8.82 11.03c-.02.03-.01.05 0 .07.03 0 .03.03.03.05 0 .04 0 .08.02.12l.03.03h.02l.02-.03v-.1l.02.16.01.02a.04.04 0 0 0 .06-.02l.01-.04c.04.1.05.22.05.34 0 .03-.02.04-.05.05l-.09.02c-.04 0-.07 0-.08-.05a2.6 2.6 0 0 1-.14-.6c0-.02 0-.03.02-.03h.07Z" fill="#9F8C0F"/><path d="M8.59 11.06c.07.1.1.2.1.33l-.01.07c0 .02-.01.03-.03.02-.03 0-.05-.04-.06-.1a.75.75 0 0 1 0-.32Zm-.11.03.01.17c0 .07-.02.11-.08.13a.77.77 0 0 1-.03-.24c0-.02.01-.04.03-.04a.17.17 0 0 1 .07-.02Z" fill="#FBF8B5"/><path d="M8.24 11.58c-.02.06-.05.06-.1 0-.05-.15-.13-.23-.24-.26l-.05-.14c-.01-.03 0-.05.04-.05a.5.5 0 0 1 .16 0 .1.1 0 0 1 .07.07l.12.38Z" fill="#FCEA3A"/><path d="M8 11.6h.03a.5.5 0 0 0 .1.15c0 .02 0 .02.01 0 0-.08-.03-.14-.1-.16.04-.03.07-.03.1 0 .05.05.09.05.1 0 .06.1.08.23.07.38 0 .04-.01.08-.04.1a.12.12 0 0 1-.14.03.12.12 0 0 1-.04-.03c-.06-.09-.15-.14-.2-.24a5.35 5.35 0 0 0-.2-.39c-.04-.07-.06-.16-.09-.24 0-.02 0-.03.02-.04a.13.13 0 0 1 .07-.01c.03 0 .05.01.06.04l.18.36c.03.06.05.07.07.05Z" fill="#9F8C0F"/><path d="m7.58 11.19-.2.1-.02.05c.01.04.03.08.06.1a.06.06 0 0 1 .02.05.3.3 0 0 0 0 .15c.03.05.04.1.02.14-.11-.16-.2-.35-.24-.55 0-.02 0-.04.02-.04a.88.88 0 0 1 .34 0Z" fill="#EDFCDF"/><path d="M7.58 11.19c0 .1.02.19.05.26-.05.06-.05.13 0 .22l-.02.02H7.6a.27.27 0 0 1-.06-.08c0-.02-.02-.02-.04-.02-.04 0-.06.03-.05.05a.3.3 0 0 1-.01-.14.06.06 0 0 0-.02-.05.24.24 0 0 1-.06-.1c0-.03 0-.04.02-.05l.2-.11Z" fill="#FCEA3A"/><path d="M8.14 11.58c-.03-.02-.06-.02-.1.01H8a.78.78 0 0 1-.1-.27c.11.03.19.11.24.26Z" fill="#D1BA0C"/><path d="M8.59 11.38c0 .06.03.1.06.1.01 0 .03 0 .03-.02l.02-.07v.37a.3.3 0 0 0-.08.19.02.02 0 0 1-.03.01c-.16-.09-.21-.23-.17-.44.05.04.09.05.12.03l.02-.04c0-.05 0-.1.03-.13Zm-1.13.4a.17.17 0 0 0-.01-.14c0-.03.01-.04.05-.05.02 0 .03 0 .04.02l.06.07a.02.02 0 0 0 .01 0h.02v-.01c-.05-.09-.05-.16 0-.22.09.15.26.4.17.56a.06.06 0 0 1-.05.03.06.06 0 0 1-.05-.02l-.24-.24Z" fill="#9F8C0F"/><path d="M8.84 12.18c-.21.11-.38.18-.5.2-.43.07-.72-.08-.88-.44-.03-.07-.02-.08.03-.02a.9.9 0 0 0 .23.2h.05c.06-.02.1-.06.11-.12l.01-.01h.01l.2.2a.07.07 0 0 0 .08.01l.17-.06c.03 0 .03-.02.03-.04a.68.68 0 0 1-.04-.16c0-.07.02-.08.07-.03l.13.12a.1.1 0 0 0 .13-.01.1.1 0 0 0 .02-.04.45.45 0 0 0 .03-.22l.05-.15a.02.02 0 0 1 .02-.01h.01c.06.1.1.2.14.3.03.07 0 .17-.1.28Z" fill="#A530A1"/><path d="M10.65 11.84c0 .1 0 .2.02.2l.02-.2c0-.1 0-.2-.02-.2l-.02.2Z" fill="#87E0C2"/><path d="M10.39 11.68c0-.01.01-.02.02-.01h.02l.01.02v.02l-.01.39-.01.03a.05.05 0 0 1-.06.02l-.03-.02-.07-.09a.05.05 0 0 1-.01-.06l.14-.3Z" fill="#A530A1"/><path d="M7.43 12.06c-.1.17-.1.37.03.58.09.07.14.14.16.21a.87.87 0 0 1-.38-.88.61.61 0 0 1 .06-.22h.02l.11.3Z" fill="#F8FDF4"/><path d="m8.37 13.13-.2-.1c-.06-.04-.05-.06 0-.07l.64-.12a.92.92 0 0 0 .44-.22l.2-.23a.2.2 0 0 0 .06-.2l.35-.44c.02-.02.03-.02.05 0h.01c.01 0 .02.01.01.02l-.12.25-.43.76c-.1.17-.31.17-.52.16a.7.7 0 0 0-.5.2Z" fill="#0F6170"/><path d="M7.43 12.06c.14.21.3.38.49.5a.6.6 0 0 0 .25.07c.03 0 .06-.01.06-.04l.04.02-.03.04a3.87 3.87 0 0 1-.34.07.45.45 0 0 1-.34-.12l-.03-.01H7.5c-.02-.01-.04 0-.04.02v.03c-.13-.21-.14-.4-.04-.58Z" fill="#87E0C2"/><path d="M9.36 12.1a.51.51 0 0 1-.15.28.46.46 0 0 1-.47.13l.04-.06c0-.02.02-.03.03-.04.21-.07.4-.17.55-.31Z" fill="#80D7E4"/><path d="M10.68 12.2a1.97 1.97 0 0 1 0 .55l-.03.01a.05.05 0 0 1-.05 0c-.1-.1 0-.44.06-.56.01-.03.02-.03.02 0Z" fill="#F17DE4"/></svg>