<!-- by TradingView --><svg width="18" height="18" viewBox="0 0 18 18" xmlns="http://www.w3.org/2000/svg"><path fill="url(#ax3n2vl0w)" d="M0 0h18v18H0z"/><path d="M10.66 7.34v-.01a1.28 1.28 0 0 0-.3-.6 1.8 1.8 0 0 0-1.97-.42c-.15.06-.3.15-.44.27a2.4 2.4 0 0 0-.62.85 4.3 4.3 0 0 1-.03-1.14 4.13 4.13 0 0 1 .68-.45 11.76 11.76 0 0 0-.63.04 2.67 2.67 0 0 1 .24-.66 3.9 3.9 0 0 1 .58-.17l-.44-.07v-.01c.19-.27.44-.46.74-.58h.03a1.8 1.8 0 0 0 .58.3l.01-.01v-.02a.46.46 0 0 0-.07-.08 1.56 1.56 0 0 0-.16-.1.8.8 0 0 1-.17-.2.37.37 0 0 1-.06-.11c0-.05 0-.09.04-.1l.04-.02h.06a4.26 4.26 0 0 1 1.08-.03 1.54 1.54 0 0 1 .5.17c.02.01.04.03.05.06.03.06.03.12 0 .18v.02a1.45 1.45 0 0 1 .25.24l.1.02a1.4 1.4 0 0 0 .14 0c.11 0 .21.01.3.06.04.02.04.04.02.07 0 .01 0 .02-.02.03a.64.64 0 0 0-.03.06.16.16 0 0 0-.02.05.62.62 0 0 1-.22.41c-.04-.11-.12-.18-.25-.2-.06 0-.12 0-.18.03a.26.26 0 0 0-.13.1.17.17 0 0 0-.03.1c0 .03.01.06.03.08l.07.07a.3.3 0 0 0 .08.05c.07.02.14.02.22 0a.5.5 0 0 1 .07.22c0 .07 0 .15-.02.22a.4.4 0 0 1-.13.2h-.01a.94.94 0 0 0-.22-.22 1.7 1.7 0 0 0-.28-.16l-.44-.23a1.36 1.36 0 0 1-.5-.46h-.01a.54.54 0 0 0 0 .24c.03.09.1.18.19.26a1.7 1.7 0 0 0 .38.25 10.38 10.38 0 0 1 .4.25c.13.1.24.2.32.3l.01.01c.06 0 .11-.02.17-.04.16-.04.29-.16.39-.34.07-.13.12-.3.16-.52a1.06 1.06 0 0 1 .24-.48.8.8 0 0 1 .21-.17.66.66 0 0 1 .26-.08h.01a.6.6 0 0 0-.11.32v.02c.04.04.09.04.14.02l.2-.06a.82.82 0 0 1 .23-.02v.01l-.14.16a.34.34 0 0 0-.08.13.3.3 0 0 0 0 .14c.01.05.05.08.1.09a.85.85 0 0 0 .23 0 .44.44 0 0 1-.2.2 3.48 3.48 0 0 1-.38.15.41.41 0 0 0-.14.12l-.12.15v.01a.71.71 0 0 0-.09.15c-.1.21-.2.4-.34.54-.16.18-.34.3-.54.37v.01c.1.1.21.19.32.26.06.03.11.06.18.08.07.02.14.01.22-.04a.65.65 0 0 1 .2-.08 2.7 2.7 0 0 1 .5-.06c.06 0 .12.02.18.05v.02a.63.63 0 0 0-.13.08c-.04.05-.06.09-.05.12.02.05.05.08.08.11a.3.3 0 0 0 .13.05 2.44 2.44 0 0 0 .18.05.71.71 0 0 1-.31.15c-.06.01-.09.03-.1.06-.02.04 0 .08.07.13a.72.72 0 0 0 .16.07c.02 0 .02.02 0 .02-.2.1-.4.12-.62.07a1.57 1.57 0 0 1-.3-.09 4.46 4.46 0 0 0-.6-.22c-.26-.07-.5-.16-.73-.26a1.93 1.93 0 0 1-.4-.23 1.5 1.5 0 0 1-.34-.32c0-.01 0-.01 0 0-.02.1 0 .21.06.3.05.09.12.16.22.23.15.1.32.2.54.29v.02l-.2.32.01.03a9.1 9.1 0 0 1 1.06.75 1.12 1.12 0 0 1 .15.19l-.3.11v.02a2.8 2.8 0 0 1 .38.9 6.21 6.21 0 0 1-1.31-.81 20.6 20.6 0 0 1-.9-.7l.11.15a6.14 6.14 0 0 0 2.08 1.88 2.5 2.5 0 0 0 .42.16l.05-.01.05-.02a.07.07 0 0 0 .02-.05l-.01-.05a1.73 1.73 0 0 1-.33-1.2c.02-.14.05-.28.1-.42 0 0 0-.01 0 0 .08.01.14.04.2.08.2.14.34.33.44.58.08.22.13.46.14.73a.29.29 0 0 0 .06.17.2.2 0 0 0 .07.06c.03.01.06.02.09.01.05 0 .09-.03.11-.07a.37.37 0 0 0 .03-.14c.02-.26.08-.48.18-.66.12-.21.3-.36.52-.44l.3-.06a1.55 1.55 0 0 1 .33.02c-.3.41-.61.82-.93 1.21-.16.2-.33.37-.52.54a.32.32 0 0 0-.06.09c-.04.07-.1.1-.2.1h-.12l-.11-.04a41.3 41.3 0 0 0-1.69-.44 5.63 5.63 0 0 1-1.13-1.08c-.08-.1-.15-.2-.2-.32h-.03c-.05.12-.13.24-.22.36a5.85 5.85 0 0 1-1.15 1.06 1.13 1.13 0 0 1-1.93.47.2.2 0 0 1-.11-.03.22.22 0 0 1-.09-.08.44.44 0 0 0-.09-.11 3.8 3.8 0 0 1-.37-.38A15.15 15.15 0 0 1 4.03 9.8L4 9.78v-.02c.16-.02.3-.02.42 0 .14.02.27.07.38.13.15.09.27.21.35.37.08.14.14.3.16.5a5.5 5.5 0 0 1 .06.3c.02.03.04.04.06.05.03.02.06.02.09.01.03 0 .06-.02.09-.04a.27.27 0 0 0 .08-.2c0-.25.05-.48.12-.69.06-.16.15-.3.25-.43a.94.94 0 0 1 .4-.28h.01a1.75 1.75 0 0 1-.24 1.64.05.05 0 0 0 0 .05c0 .02.01.03.03.04.04.03.09.04.14.02.2-.06.4-.14.61-.27a5.46 5.46 0 0 0 2-1.93 22 22 0 0 1-.9.72c-.26.2-.52.39-.79.56a3.03 3.03 0 0 1-.46.22 4.33 4.33 0 0 0 .41-.7l.05-.08a.93.93 0 0 1-.5-.16.94.94 0 0 1-.34-.4 2.36 2.36 0 0 1-.15-.67 3.46 3.46 0 0 1 .05-.94 1 1 0 0 0-.04-.42.5.5 0 0 0-.1-.18.41.41 0 0 0-.2-.11.62.62 0 0 0-.23-.02.77.77 0 0 0-.44.2.53.53 0 0 0-.13.2c-.02.05 0 .09.05.1.18.1.33.21.45.37.07.08.1.2.1.31v.24l-.09.45a1.7 1.7 0 0 0-.02.17 2.61 2.61 0 0 1-.55-.57c-.1-.15-.18-.3-.24-.44a1.18 1.18 0 0 1 .01-.8 1.03 1.03 0 0 1 1-.65.97.97 0 0 1 .66.4c.08.11.14.24.17.37.04.18.05.38.02.62l-.05.47v.3c.01.14.06.26.14.35.08.1.18.15.3.19.11.03.23.04.36.02A.84.84 0 0 0 7.9 9a.99.99 0 0 0 .34-.46 1.3 1.3 0 0 0 .09-.57 3.7 3.7 0 0 0-.09-.65V7.2h-.01a6.31 6.31 0 0 1-.53 1.37h-.02l-.28-.9v-.02c.15-.27.32-.5.52-.7.22-.2.46-.35.73-.44.02 0 .02 0 .01.01a.96.96 0 0 0-.18.55c0 .01 0 .02 0 0 .07-.13.15-.24.24-.33a.94.94 0 0 1 1.06-.18c.2.08.36.18.5.3a1.47 1.47 0 0 1 .38.48Zm-.9-2.82a9.03 9.03 0 0 0 .51.39l.01-.06c0-.06 0-.13-.02-.2 0-.03-.02-.06-.06-.06a26.6 26.6 0 0 0-.44-.07Zm.1 6.83-.83-.81-.83.8v.02l.82.8h.01l.83-.8v-.01Zm-4.13.74.49 1.26s0 .01 0 0a7.98 7.98 0 0 1 2.78-.5 4.44 4.44 0 0 0-.57-.73 5.49 5.49 0 0 0-.6-.54 9.38 9.38 0 0 0-2.1.51Zm1.88.36-.41.41h-.01l-.42-.4v-.01l.42-.41.42.4Zm1.44.4c.04-.09.1-.2.2-.33a5.67 5.67 0 0 1 .98-.94 9.34 9.34 0 0 1 2.04.52l-.49 1.26a8 8 0 0 0-2.73-.5Zm1.76-.81-.42.4v.02l.41.4h.01l.42-.4v-.01l-.42-.41Zm-4.34 1.63c.3.1.63.17 1 .22a11.11 11.11 0 0 0 3.32-.04 5.7 5.7 0 0 0 .74-.2c-.4-.16-.87-.28-1.4-.34-.86-.1-1.7-.09-2.53.04a5.52 5.52 0 0 0-1.13.32Z" fill="#fff"/><defs><linearGradient id="ax3n2vl0w" x1="3.35" y1="3.12" x2="21.9" y2="24.43" gradientUnits="userSpaceOnUse"><stop stop-color="#1A1E21"/><stop offset="1" stop-color="#06060A"/></linearGradient></defs></svg>