<!-- by TradingView --><svg width="18" height="18" viewBox="0 0 18 18" xmlns="http://www.w3.org/2000/svg"><path fill="#F0F3FA" d="M0 0h18v18H0z"/><circle cx="9" cy="9" r="5" fill="#578225"/><path d="m5.29 12.35.02-.02c.33-.2 1.06-.71 1.25-1.2.13-.2.2-.35.23-.41l.06-.46.2-.43-.33-.23c-.16-.03-.48-.2-.48-.68 0-.47.43-.7.64-.76.1 0 .32.01.5.12.08-.06.26-.38.34-.53l.27-1.02.34-.81.26-.26.39-.27.46-.1.57.25.31-.09.58-.16.52.03.6.22.19.57v.3l.21.47.03 1.06.12.61.5-.21c.12.04.37.17.43.38l.1.43a.87.87 0 0 1-.62.6c-.23.05-.54.34-.67.48a3 3 0 0 1-.5.38c-.1.04-.3.28-.39.4l-.7.36-.4.04-.03.16.3.66.25.3h.49l.7.3.07.09a4.98 4.98 0 0 1-6.81-.57Z" fill="#F0F3FA"/><path d="M12.14 12.86c.01.05-.03.08-.11.07a1.73 1.73 0 0 0-1.11-.36c-.11 0-.17-.04-.24-.13-.22-.3-.37-.55-.43-.91 0-.03-.02-.04-.05-.02l-.07.05a.07.07 0 0 1-.03.02c-.03 0-.06-.03-.04-.06.13-.16.27-.22.42-.19.08.02.17 0 .25-.03.17-.1.36-.18.54-.26a.42.42 0 0 0 .17-.16c.12-.17.24-.3.45-.38.31-.13.47-.42.71-.62a.98.98 0 0 1 .33-.17c.15-.04.26-.14.39-.21.1-.06.15-.17.2-.27.05-.12-.03-.33-.06-.47-.01-.07-.07-.15-.17-.25-.3-.3-.42.08-.7.07a.1.1 0 0 1-.1-.1 3.12 3.12 0 0 0-.05-.37c-.06-.27-.04-.55-.03-.82 0-.24-.07-.53-.19-.73-.07-.13-.05-.27-.06-.4a.72.72 0 0 0-.15-.43c-.04-.04 0-.15-.06-.16a.51.51 0 0 1-.17-.07.05.05 0 0 0-.05 0 .28.28 0 0 0-.08.08l-.03.02c-.04.02-.06.02-.07-.02a.03.03 0 0 1 .01-.03l.06-.05a.04.04 0 0 0-.01-.08l-.2-.07h-.06a.2.2 0 0 0-.09.07c-.01.02-.03.02-.05 0a.06.06 0 0 1-.02-.03.05.05 0 0 0-.03-.04c-.13-.04-.2-.01-.23.07 0 .03-.02.03-.03.02a.08.08 0 0 1-.04-.05c0-.02-.02-.03-.04-.03-.07 0-.1.04-.12.1-.01.06-.04.07-.08.01-.05-.06-.1-.07-.18-.04-.1.05-.19.1-.28.13-.02.01-.02.03-.01.04.18.16.37.2.56.13.06-.03.08 0 .04.05-.02.04-.06.06-.11.07a.68.68 0 0 1-.48-.12c-.14-.1-.28-.2-.42-.28a.78.78 0 0 0-.39-.12c-.02 0-.03.01-.02.03.04.07.09.1.15.1.03 0 .03.03.04.05 0 .03-.01.05-.04.05a2.3 2.3 0 0 1-.4.01c-.02 0-.04 0-.04-.02a.08.08 0 0 1 0-.09h.03c.06.05.14.07.22.04.01 0 .02 0 .01-.02l-.03-.1-.02-.01c-.2.02-.4.1-.56.24-.05.04-.04.06.03.06h.15c.02 0 .03 0 .03.02s.01.04-.01.05h-.01c-.14-.01-.34-.04-.43.1-.1.14-.18.3-.22.45-.06.2-.15.37-.2.55-.09.25-.17.54-.25.86a1.6 1.6 0 0 1-.26.49c-.04.04-.05.1-.08.14a.03.03 0 0 1-.03.02.78.78 0 0 1-.2-.1c-.25-.16-.56.05-.75.2-.17.13-.17.32-.17.52 0 .27.18.5.44.57.1.03.18.1.25.17l.04.03.06.01.02.02v.02c-.03.3-.22.52-.23.84a.5.5 0 0 1-.08.26c-.12.17-.22.35-.31.53a.3.3 0 0 1-.08.1c-.12.1-.23.2-.34.32-.13.15-.3.28-.48.38v.02c0 .01 0 .02.02.01a.6.6 0 0 1 .34 0c.03 0 .04.02.05.04.01.02 0 .05-.03.05l-.6.04H5.3c-.03-.01-.04-.04-.04-.09l.09-.03c.02 0 .03-.01.04-.03.05-.05.09-.1.16-.14.26-.14.5-.35.73-.62.17-.2.24-.44.4-.64a.44.44 0 0 0 .07-.24c.02-.27.13-.44.22-.68v-.06a.56.56 0 0 0-.3-.22c-.24-.07-.48-.34-.47-.61 0-.18-.02-.36.07-.5.07-.12.2-.18.3-.27.21-.2.56-.2.79-.04a.03.03 0 0 0 .04 0c.17-.2.27-.41.32-.65a4.8 4.8 0 0 1 .45-1.37 1.24 1.24 0 0 1 .4-.58v-.03l-.01-.01-.25-.05c-.02-.02 0-.05 0-.06h.03l.32.06c.05.01.1-.05.07-.1l-.08-.13c0-.03.03-.04.04-.03.05.04.08.09.1.14.02.02.05.01.07 0 .02 0 .02-.03.01-.05a.27.27 0 0 1-.02-.15c0-.02 0-.03.02-.03h.02l.02.03.02.12c0 .02.02.03.04.03.06-.02.1-.06.09-.13V5.2c.02-.02.06-.03.07 0v.08c0 .02.01.03.03.03a.1.1 0 0 0 .09-.07l.03-.02h.02c.03.02.05.03.08.02.03 0 .04-.01.03-.04l-.04-.08c-.01-.04.06-.04.07-.01l.04.1a.06.06 0 0 0 .04.04l.31.13c.03.01.04 0 .03-.02a.25.25 0 0 1-.02-.08c0-.03.06-.03.06 0l.04.13a.05.05 0 0 0 .04.03l.18.02c.02 0 .05 0 .07-.02.2-.11.4-.17.63-.18.02 0 .03 0 .05-.02.04-.04.08-.13.14-.15.08-.03.09-.02.03.05a.5.5 0 0 1-.05.05c-.01.02-.02.03-.01.05 0 .01.01.02.03.02.06 0 .1-.03.14-.06h.04c.06.07.12.06.18 0l.01-.01c.02 0 .04 0 .04.03 0 .04.03.07.07.07.03 0 .04 0 .06-.02a.47.47 0 0 1 .18-.14l.03.01v.03l-.14.12c-.02.02-.02.05 0 .06.1.04.2.07.3.07.1 0 .14.05.14.13 0 .05.05.09.1.08.04 0 .07 0 .1.02.03.01.03.02 0 .04a.16.16 0 0 1-.06.03c-.02 0-.03.01-.03.03.03.15.07.32.06.47l.01.14c.02.15.15.23.17.37.02.16.07.29.07.45v.6c-.01.24.05.45.08.67a.03.03 0 0 0 .01.03.03.03 0 0 0 .03 0 .51.51 0 0 0 .17-.09c.12-.1.33-.12.45-.05.15.1.3.26.33.45.02.12.08.24.06.36a.66.66 0 0 1-.3.46c-.09.05-.17.12-.27.16-.13.05-.35.12-.44.23-.16.2-.3.33-.42.42-.22.17-.49.25-.63.51a.45.45 0 0 1-.2.18l-.51.26a.7.7 0 0 1-.43.08h-.03a.07.07 0 0 0-.05.08l.06.24c.07.22.24.44.38.62a.16.16 0 0 0 .11.06l.4.04c.31.03.6.18.83.37Z" fill="#0E0E0E"/><path d="M12 6.92h-.86c-.2 0-.38-.06-.57-.14a.53.53 0 0 0-.21-.05c-.46 0-.87.03-1.22.1a.69.69 0 0 1-.22 0c-.01 0-.02 0-.02-.02v-.02c0-.02.02-.03.04-.03h.18c.38-.07.8-.1 1.28-.1.08 0 .16.02.24.06.17.08.31.12.44.13h.83c.1 0 .19.02.27.06a.05.05 0 0 1 .02.05v.01a.02.02 0 0 1 0 .01.02.02 0 0 1-.02 0c-.06-.02-.1-.06-.17-.06ZM11.29 9.7a.04.04 0 0 0 .05 0l.01-.02c.02-.07.02-.14.06-.2a3.36 3.36 0 0 0 .2-.36.09.09 0 0 0-.03-.05c-.27-.3-.6-.52-.52-.99a.03.03 0 0 1 .04-.02h.01a.05.05 0 0 1 .04.04c0 .24.08.46.26.62l.28.27a.19.19 0 0 1 .02.23l-.18.3c-.06.1-.06.43-.29.3a.82.82 0 0 0-.19-.08.04.04 0 0 1-.03-.04.04.04 0 0 1 .02-.04c.1-.05.17 0 .25.05ZM7.45 8.9a.09.09 0 0 0-.01.08.04.04 0 0 0 .06.02l.06-.06c.03-.02.04-.01.04.02V9a.09.09 0 0 1-.08.08l-.41.02c-.21.01-.35-.08-.42-.28a.07.07 0 0 0-.04-.05l-.03-.01a.02.02 0 0 1-.01-.02.03.03 0 0 1 .01-.03c.23-.12.5-.13.73-.01.1.05.21.1.34.14.1.03.1.05 0 .07a.38.38 0 0 1-.2-.02h-.04ZM8 8.94a.61.61 0 0 0-.2-.26.01.01 0 0 1 0-.02v-.01c.01-.02.03-.03.05-.01.11.06.18.16.21.3v.01h-.01l-.02.01h-.02L8 8.94ZM12.44 8.8l-.03-.01c-.02 0-.03 0-.03.02l-.04.35.02.02h.03l.03-.01.03-.36-.01-.02ZM13.21 9.16a.23.23 0 0 0-.01.15.08.08 0 0 1-.03.07.08.08 0 0 1-.07.02 2.65 2.65 0 0 0-.42-.08c-.1 0-.14-.07-.19-.13v-.04c.17-.1.3-.1.46-.13a.7.7 0 0 1 .32.04.03.03 0 0 1 .02.04c0 .02-.02.03-.04.04a.05.05 0 0 0-.04.02ZM9.7 9.26c-.02.03-.03.06-.02.08.05.14.1.27.27.28a1 1 0 0 1 .12.02c.02 0 .03.01.03.03 0 .03-.01.05-.04.05-.32.08-.53-.19-.49-.48a.14.14 0 0 1 .12-.12l.29-.04a.05.05 0 0 1 .04.01c.02.02.02.04.01.06 0 .02-.02.03-.03.03l-.25.06a.07.07 0 0 0-.05.02ZM10.6 9.52l-.2.02a.05.05 0 0 0 .01.1l.2-.01c.03 0 .05-.03.05-.06a.05.05 0 0 0-.06-.05ZM10.57 10.26c.2-.01.4-.02.6-.07l.45-.1c.03 0 .05 0 .05.03l-.01.06a.19.19 0 0 1-.12.06l-.34.08c-.21.06-.44.07-.66.08-.22.01-.45-.03-.7-.12a.11.11 0 0 1-.07-.08v-.02c0-.03.03-.04.06-.03.28.09.53.12.74.11ZM9.44 12.14c.11-.05.12-.16.1-.23-.01-.03.01-.05.06-.05h.03c.04 0 .06 0 .07.03.03.13.06.31-.29.32-.02 0-.06 0-.05-.03a.35.35 0 0 1 .08-.04Z" fill="#0E0E0E"/><path d="M6.78 8.76c.07-.06.14-.09.21-.06.03 0 .04.02.03.04a.54.54 0 0 0-.01.22.05.05 0 0 1-.05.06L6.93 9a.5.5 0 0 1-.16-.2l.01-.05ZM12.85 9.22a.02.02 0 0 1 0 .02.02.02 0 0 1-.02.01l-.04.01h-.1c-.04 0-.05-.02-.06-.03v-.04l.03-.02.05-.03.05-.01h.07v.01l.02.08Z" fill="#F0F3FA"/></svg>