<!-- by TradingView --><svg xmlns="http://www.w3.org/2000/svg" width="18" height="18"><path fill="#F0F3FA" d="M0 0h18v18H0z"/><path d="M6 8.42v5.08h1.6v-.49l.32.15c.4.24.76.34 1.3.34s.86-.08 1.34-.32a3.44 3.44 0 001.73-2.3 4.3 4.3 0 00.02-1.84c-.42-1.76-2-2.98-3.52-2.7-.35.06-.9.28-.99.4-.02.03-.18.06-.2.06V3.5H6v4.92zm3.34-.56c.85.23 1.36.97 1.37 2 .01.67-.15 1.15-.54 1.58-.35.4-.83.59-1.39.55a1.68 1.68 0 01-.95-.36l-.23-.12V8.17l.33-.12a2 2 0 011.41-.19z" fill="#222F33"/><circle cx="13" cy="12.5" r="1" fill="#268BC4"/></svg>