<!-- by TradingView --><svg width="18" height="18" viewBox="0 0 18 18" xmlns="http://www.w3.org/2000/svg"><path fill="#053C50" d="M0 0h18v18H0z"/><path d="M5.25 10.46h-.94c.5.65 1.15.92 1.4.97l-.46-.97Z" fill="#0D4947" fill-opacity=".53"/><path d="M5.6 11.46c.42.21.93.34 1.53.29 1.87-.16 3.12-1.77 3.12-2.25.56.1 1.83.1 2.8-.56A4.11 4.11 0 0 0 9 5a4.12 4.12 0 0 0-4.06 4.18c0 .84.24 1.62.66 2.28Z" fill="url(#arl1yfg2f)"/><path d="M13.04 8.65c-1 .42-2.51.53-3.25.53a6.22 6.22 0 0 1-2.68 2.57h.02c1.88-.16 3.13-1.77 3.13-2.25.56.1 1.83.1 2.8-.56l-.02-.29Z" fill="url(#brl1yfg2f)"/><path d="M8.9 14A5.05 5.05 0 0 0 14 8.86a4.02 4.02 0 0 1-3.28 1.12c-.21.84-1.1 2.41-2.97 2.41-1.6 0-3-1.1-3.75-1.97A5.1 5.1 0 0 0 8.9 14Z" fill="url(#crl1yfg2f)"/><defs><linearGradient id="arl1yfg2f" x1="11.34" y1="5.64" x2="5.42" y2="10.78" gradientUnits="userSpaceOnUse"><stop stop-color="#D1FAFE"/><stop offset=".12" stop-color="#E9FDFE"/><stop offset=".28" stop-color="#A6EAED"/><stop offset=".43" stop-color="#77D4D7"/><stop offset=".65" stop-color="#5DC8C8"/><stop offset=".84" stop-color="#439CBA"/><stop offset="1" stop-color="#3B7DB2"/></linearGradient><linearGradient id="brl1yfg2f" x1="12.91" y1="8.7" x2="6.9" y2="11.62" gradientUnits="userSpaceOnUse"><stop stop-color="#55A6AD"/><stop offset=".16" stop-color="#9CB6BA"/><stop offset=".57" stop-color="#4092A0"/><stop offset="1" stop-color="#35729F"/></linearGradient><linearGradient id="crl1yfg2f" x1="13.74" y1="9.17" x2="5.65" y2="12.73" gradientUnits="userSpaceOnUse"><stop stop-color="#8CF2FC"/><stop offset=".39" stop-color="#A6F3FB"/><stop offset=".86" stop-color="#46A7BA"/><stop offset="1" stop-color="#3B7CB2"/></linearGradient></defs></svg>