<!-- by TradingView --><svg width="18" height="18" viewBox="0 0 18 18" xmlns="http://www.w3.org/2000/svg"><path fill="url(#a)" d="M0 0h18v18H0z"/><path d="M5 4h5.06a7 7 0 0 1 1.56.16c1.1.28 2.05 1.14 2.05 2.51 0 .84-.3 1.42-.76 1.79l-.07.05c.31.23.55.53.72.84.33.61.42 1.28.44 1.65.04.9-.26 1.58-.75 2.07-.47.47-1.09.73-1.65.85-.28.06-.71.08-.91.08H5V4Zm7 3.84c.1-.04.2-.1.28-.16.2-.17.4-.44.4-1 0-.57-.26-1-.68-1.28v2.44Zm-1-2.78a7.5 7.5 0 0 0-.94-.06H8v3h3V5.06ZM11 9H8v4h2.69l.31-.01V9Zm1 3.74a1.65 1.65 0 0 0 1-1.7 2.85 2.85 0 0 0-.32-1.2 1.56 1.56 0 0 0-.68-.68v3.58ZM7 13V5H6v8h1Z" fill="#06FFFB"/><defs><linearGradient id="a" x1="3.35" y1="3.12" x2="21.9" y2="24.43" gradientUnits="userSpaceOnUse"><stop stop-color="#1A1E21"/><stop offset="1" stop-color="#06060A"/></linearGradient></defs></svg>