<!-- by TradingView --><svg width="18" height="18" viewBox="0 0 18 18" xmlns="http://www.w3.org/2000/svg"><path fill="#F0F3FA" d="M0 0h18v18H0z"/><path d="M13 4.94c0-.5-.26-.94-.64-.94H7.49c-.57 0-1.22 1.91-1.3 2.45L5 12.82c-.08.53.28 1.18.69 1.18h5.58c.32 0 .71-.38.75-.81l.54-5.95.32-1.21.11-1.09Z" fill="url(#a2gphcw2n)"/><path d="M12.55 4.96c.03-.4-.23-.76-.56-.76H7.8c-.34 0-.64.29-.7.7l-1.15 6.4c-.07.43.2.7.56.7h4.87c.28 0 .52-.13.56-.47l.38-4.3H9.4c-.4 0-.75.38-.8.88L8.51 9h1.53l.04-.3c0-.06.04-.1.08-.1h.27c.05 0 .09.06.08.12l-.16 1.59c-.02.15-.12.26-.24.26H8.08c-.15 0-.27-.17-.24-.35l.71-4.51c.03-.14.13-.24.24-.24h1.87c.14 0 .26.15.24.33l-.01.2h1.56l.1-1.04Z" fill="url(#b2gphcw2n)"/><path d="m7.07 5.1.32-.32c.13-.12.29-.2.45-.2h4.13c.2 0 .4.12.54.3l.04.06c.02-.4-.23-.74-.56-.74H7.8c-.34 0-.64.29-.7.7l-.04.2Z" fill="#FAFF27"/><path d="m7.12 4.8-.02.1-1.14 6.4c-.07.43.27.7.63.7h4.87c.19 0 .36-.14.46-.31l-.25.94a.5.5 0 0 1-.49.37H5.8c-.25 0-.44-.02-.4-.33L6.5 6.5c0-.07.02-.13.05-.2l.58-1.5Z" fill="url(#c2gphcw2n)"/><path d="m7.04 5.24-.46 1.21-1.14 6.56a.58.58 0 0 1-.04-.34L6.48 6.5l.06-.2.58-1.5-.02.1-.06.34Z" fill="#7D8B36"/><path d="m8.34 7 .21-1.3c.03-.13.13-.23.24-.23h1.87c.14 0 .26.15.24.33l-.01.2h1.56l-.64 1.23h-1.69l.22-.23h-2Z" fill="url(#d2gphcw2n)"/><path d="M7.9 10.47a.34.34 0 0 1-.06-.25L8 9.23l.71-1.55h.01c-.07.12-.11.27-.13.43L8.51 9h1.53l.04-.3c0-.05.04-.1.08-.1h.27c.05 0 .09.06.08.12l-.16 1.6c0 .05-.03.1-.06.15H7.9Z" fill="url(#e2gphcw2n)"/><path d="m7.9 10.46.6-1.36.1-1c0-.15.05-.3.12-.42L8 9.23l-.16.99c-.01.09.01.17.05.24Z" fill="#486A00"/><path d="M9.39 10.47h.9c.03-.04.05-.1.06-.16l.16-1.6c0-.05-.03-.1-.08-.1H10.13l-.06.16-.03.33-.65 1.37Z" fill="url(#f2gphcw2n)"/><path d="M10.3 7.23h-.9c-.38 0-.7.31-.78.73l.29-.15a.75.75 0 0 1 .35-.09h.98l.05-.49Z" fill="#FCFC1E"/><path d="m7.98 10.54-.06.27c-.03.13.05.25.15.25h1.6c.07 0 .14-.07.15-.17l.05-.32H8.08a.2.2 0 0 1-.1-.03Z" fill="#F5FF23"/><defs><linearGradient id="a2gphcw2n" x1="9" y1="4" x2="9" y2="14" gradientUnits="userSpaceOnUse"><stop stop-color="#273102"/><stop offset="1" stop-color="#273600"/></linearGradient><linearGradient id="b2gphcw2n" x1="9.25" y1="4.2" x2="9.25" y2="12.14" gradientUnits="userSpaceOnUse"><stop stop-color="#A3DA03"/><stop offset="1" stop-color="#ACE604"/></linearGradient><linearGradient id="c2gphcw2n" x1="7.51" y1="11.99" x2="7.21" y2="13.29" gradientUnits="userSpaceOnUse"><stop stop-color="#557400"/><stop offset="1" stop-color="#474A07"/></linearGradient><linearGradient id="d2gphcw2n" x1="8.35" y1="6.35" x2="11.47" y2="8.04" gradientUnits="userSpaceOnUse"><stop offset=".53" stop-color="#516100"/><stop offset=".56" stop-color="#505000"/><stop offset=".62" stop-color="#546F00"/></linearGradient><linearGradient id="e2gphcw2n" x1="9.32" y1="9.2" x2="8.66" y2="10.37" gradientUnits="userSpaceOnUse"><stop stop-color="#5E7D05"/><stop offset="1" stop-color="#515501"/></linearGradient><linearGradient id="f2gphcw2n" x1="9.88" y1="9.29" x2="10.06" y2="10.46" gradientUnits="userSpaceOnUse"><stop stop-color="#4A5205"/><stop offset="1" stop-color="#405B00"/></linearGradient></defs></svg>