<!-- by TradingView --><svg width="18" height="18" viewBox="0 0 18 18" xmlns="http://www.w3.org/2000/svg"><path fill="url(#a)" d="M0 0h18v18H0z"/><circle cx="9" cy="9" r="6" fill="#B29B11"/><circle cx="9" cy="9" r="5.65" fill="url(#b)"/><path d="m12.88 6.94-.32-.22h-.02c-.04 0-.05-.01-.06-.04l-.01-.04a.08.08 0 0 0-.07-.02c-.02 0-.03 0-.04.02a2.33 2.33 0 0 1-.14.12h-.04c-.12 0-.22 0-.3.03-.07.02-.13.02-.16-.01a.74.74 0 0 1-.14-.12.03.03 0 0 0-.02 0l-.03.04v.03a.2.2 0 0 1 .02.11v.03l.03.01.1.03h.02v.05l-.23.3v.05l.04.02.04-.01c.12-.06.2-.14.26-.24l.02-.02.03-.01h.05c-.13.07.02.18.08.23l.08.12.22.44c0 .02.03.04.06.05h.09l.34-.08a.74.74 0 0 1-.57.19c-.07-.01-.14-.06-.23-.14a.1.1 0 0 1-.02-.06.53.53 0 0 0-.25-.45h-.06c-.14.05-.28.1-.42.04-.12-.06-.19-.14-.2-.26a3.72 3.72 0 0 1-.01-.46l.49-.53a.28.28 0 0 1 .1-.07c.23-.09.46-.1.7-.02a6.13 6.13 0 0 1 .39.14l.2.19.04.07.06.25v.05l-.12.19Z" fill="#4C8138"/><path d="M12.88 6.94a.34.34 0 0 1-.17.1l-.09-.02h-.03a.07.07 0 0 0-.03.02l-.02.02h-.04l-.01-.01-.02-.08s0-.02-.02-.03a.08.08 0 0 0-.03-.01h-.04a.07.07 0 0 0-.03.02l-.07.07-.03.01c-.05.01-.1-.03-.13-.12l-.02-.02-.03-.01H12v.01l.12.27v.02h-.03l-.18-.13h-.08l-.02.03a.53.53 0 0 1-.26.24.07.07 0 0 1-.07 0 .05.05 0 0 1-.02-.04l.01-.03.23-.29v-.04l-.02-.01-.1-.03-.02-.01-.01-.03a.2.2 0 0 0-.03-.11.03.03 0 0 1 0-.03l.03-.03.01-.01a.03.03 0 0 1 .02 0h.01l.13.12c.03.03.09.03.15.01a.98.98 0 0 1 .3-.03h.05a2.38 2.38 0 0 0 .17-.14.08.08 0 0 1 .08.02l.01.04c0 .03.02.04.05.03a.03.03 0 0 1 .03 0l.32.23Z" fill="#28522C"/><path d="M12.7 7.04c-.1.12-.09.28.06.46.08.09.08.19.02.31l-.34.08h-.1a.11.11 0 0 1-.05-.05l-.22-.44a.43.43 0 0 0-.08-.12c-.06-.05-.21-.16-.08-.23l.18.13h.03v-.02L12 6.89l.01-.01H12.1l.02.03c.03.1.08.13.13.12h.03l.07-.08c0-.01.01-.02.03-.02h.04l.03.01.02.03.02.08v.01h.05l.02-.02.03-.02h.03l.09.02Z" fill="#8DB84C"/><path d="M10.81 5.26c.04.38-.04.69-.12 1.07-.06.27-.18.52-.27.79v.02l.01.03c.06.05.1.12.1.2a3.56 3.56 0 0 1 .04.57c.09.25.26.53.5.86.1.15.02.3.02.46l-.06.5-.01.19c0 .02 0 .04.02.06.28.45.5.88.9 1.29.05.04.06.11.06.21-.1-.03-.13-.04-.06-.04l-.15-.12a5.56 5.56 0 0 0-.42-.48c-.18-.17-.28-.32-.41-.5a.2.2 0 0 1-.03-.06.9.9 0 0 0-.22-.36l-.13-.19c.05.03.1.04.13.04l.02-.02a.03.03 0 0 0 0-.03 1.32 1.32 0 0 1-.04-.58l-.01-.02a.7.7 0 0 1-.2-.47.1.1 0 0 0-.04-.07c-.26-.21-.43-.56-.75-.75a.02.02 0 0 0-.02 0v.03l.13.18C9.8 8.03 9.77 8 9.74 8a.02.02 0 0 0-.02 0v.02a2.69 2.69 0 0 1 .4.88l.04.63c-.5.15-.96.26-1.37-.13l-.01-.02v-.03l.01-.02.03-.01.27-.07c-.02.17.22.28.36.13v-.01c0-.01 0-.02-.02-.03l.04-.02c-.02.06 0 .11.04.14a.05.05 0 0 0 .06 0 .19.19 0 0 0 .06-.1v-.02h.02a.03.03 0 0 1 .02 0l.07.05a.12.12 0 0 0 .1-.01.1.1 0 0 0 .02-.04.1.1 0 0 0 .02-.04l.01-.16-.01-.05a.08.08 0 0 0-.04-.03c-.23-.07-.4-.17-.53-.3a.1.1 0 0 0-.14-.01l-.56.4c.13-.2.3-.34.53-.43l.02-.01v-.03l-.01-.01h-.02l-.18.01.27-.11c.02 0 .04-.02.05-.03a.1.1 0 0 0 .02-.1.11.11 0 0 0-.03-.05l-.19-.16-.4-.26a.18.18 0 0 0-.13-.02.7.7 0 0 1-.45-.1.7.7 0 0 0 .14-.3v-.01l.02-.01a.05.05 0 0 1 .04 0l.23.14a.03.03 0 0 0 .04 0v-.04a.9.9 0 0 0-.26-.27.08.08 0 0 0-.1.01l-.33.36a.1.1 0 0 0-.02.08.43.43 0 0 1-.04.22l-.29.37-.28.3a.65.65 0 0 1-.23.1l-.05-.01-.11-.06V8.7c.03 0 .04-.03.03-.05.13-.04.21-.08.25-.12.14-.13.31-.26.51-.4.12-.07.17-.18.13-.31-.01-.04-.04-.06-.1-.06h-.02l-.01.03a.1.1 0 0 1-.03.05.22.22 0 0 0-.1-.14l.27-.07h.01v-.04c-.1-.08-.11-.14-.04-.16l.09.01h.02l.03-.02c.08-.1.12-.2.13-.33l.04.06h.03v-.01l.01-.01a.38.38 0 0 0-.08-.23c.04 0 .08-.03.1-.07l.14.15.04.03c.15.04.5-.03.59-.06.02 0 .04-.02.06-.04l.13-.18a2.84 2.84 0 0 0 .79-1.06c.12-.26.32-.47.6-.64a.23.23 0 0 1 .22 0c.02 0 .04.02.05.04l.07.2Z" fill="#3C3636"/><path d="M6.77 5.17c-.18-.08 0 .04-.13.02.07.02.14.07.22.13.08.08.18.15.28.22.29.45.61.88.99 1.29a.15.15 0 0 1-.11.07l-.6-.7h-.03l-.01.02c-.02.24.07.43.17.81 0 .03.03.04.07.04 0 .12.05.24.13.36-.07.02-.06.08.04.16v.04l-.28.07c-.12-.06-.2-.11-.22-.17l.03-.65v-.04a1.21 1.21 0 0 1-.06-.33l-.46-.66a.47.47 0 0 0-.15-.22.06.06 0 0 0-.05-.01l-.02.01-.01.02-.1.25-.01.01a.04.04 0 0 1-.05 0V5.9c-.02-.04-.04-.06-.06-.06h-.03l-.02.02c-.17.52-.13 1.02.13 1.51-.1.12-.13.22-.09.3a2.58 2.58 0 0 0 .23.38h.04c.01 0 .02 0 .03-.02L6.66 8c0-.1.04-.21.1-.32V7.6l.07-.1h.03l.01.01.02.15v.02l.02.01h.02l.01-.01c.06-.1.11-.13.17-.1.01.15.07.43.17.54l.02.01a.06.06 0 0 0 .06 0l.02-.02.23-.28a.1.1 0 0 0 .03-.05l.01-.02.02-.01c.06 0 .09.02.1.06.04.13 0 .24-.13.32-.2.13-.37.26-.5.39a.77.77 0 0 1-.26.12l-.12-.2a.07.07 0 0 1 0-.06c.01-.05-.01-.1-.07-.13a.02.02 0 0 0-.02 0h-.01v.01l-.03.1a.1.1 0 0 0 .01.06c.05.11.12.2.21.27v.03c-.07 0-.09.04-.06.12a.19.19 0 0 0-.1-.03c.07-.05.06-.11-.01-.17l-.02-.02-.12-.24v-.04l.02-.1v-.03a.05.05 0 0 0-.04-.02c-.09-.02-.14-.08-.16-.18a.12.12 0 0 0-.03-.06c-.1-.1-.15-.2-.15-.3a31.87 31.87 0 0 0 0-.5L6 6.84a2.62 2.62 0 0 1 .23-1.28l.07-.3c.1-.2.26-.22.46-.08Z" fill="#292520"/><path d="M6.8 5.85c-.03-.06-.07-.09-.1-.09l-.04.01-.13.1a.08.08 0 0 0-.03.06c-.01.13.02.24-.07.4l-.02.04c-.04.22.06.55.15.78.05.15.07.3.09.46 0 .04.03.05.09.02l-.06.06a.04.04 0 0 1-.03 0h-.01l-.01-.02a.35.35 0 0 0-.14-.2.14.14 0 0 1-.05-.04c-.02-.03-.02-.06-.01-.07-.26-.49-.3-1-.13-1.5 0-.02.01-.02.02-.03h.03c.02 0 .04.02.05.06l.01.02h.05l.01-.01.1-.25.01-.02.02-.01a.06.06 0 0 1 .05.01c.07.06.12.13.15.22Z" fill="#746256"/><path d="m6.8 5.85.46.66v.02c0 .1.02.2.06.31v.04l-.03.65c-.07.07-.13.09-.18.06-.06-.03-.11 0-.17.1h-.01l-.02.01-.02-.01v-.02c0-.05 0-.1-.02-.15l-.02-.02h-.01l-.01.02-.07.09-.02.02c-.06.03-.09.02-.1-.02-.01-.15-.03-.31-.08-.46-.09-.23-.2-.56-.15-.78l.02-.05c.09-.15.06-.26.07-.4l.03-.05.13-.1h.03c.04 0 .08.02.11.08Z" fill="#BDA39C"/><path d="M8.02 6.9c.05.08.08.15.08.23v.01l-.01.01a.03.03 0 0 1-.03 0 .21.21 0 0 1-.04-.06.52.52 0 0 0-.19-.04l-.03-.02L7.8 7c-.03-.18 0-.3-.16-.44l-.02-.01H7.6l-.01.01v.02l.04.49c-.04 0-.07-.01-.07-.04-.1-.38-.19-.57-.17-.81V6.2h.04l.6.7Z" fill="#746256"/><path d="M8.02 7.1c0 .11-.05.22-.13.32l-.03.02h-.02l-.09-.01a.73.73 0 0 1-.13-.36l-.04-.5.01-.02h.04c.15.15.13.27.16.45l.01.03.03.02c.1 0 .16.02.19.04Z" fill="#222221"/><path d="m6.74 7.63.02-.02V7.67a.77.77 0 0 0-.1.32c0 .01 0 .02-.02.03l-.03.02h-.04a2.58 2.58 0 0 1-.23-.38c-.04-.08 0-.18.09-.3-.01.01 0 .04.01.07l.05.05c.07.05.12.11.14.19v.01l.02.01a.04.04 0 0 0 .03 0c.02 0 .04-.03.06-.06Z" fill="#4A423B"/><path d="m8.09 7.85-.57.55.29-.37V8a.43.43 0 0 0 .04-.2.1.1 0 0 1 .02-.08l.33-.36a.08.08 0 0 1 .1-.01c.1.06.19.15.27.27a.03.03 0 0 1-.01.04h-.04l-.23-.14a.04.04 0 0 0-.06 0v.03a.7.7 0 0 1-.14.3ZM7.29 7.53c.02.06.1.11.22.17.06.04.09.09.1.14l-.23.28-.02.02a.06.06 0 0 1-.08-.01c-.1-.11-.16-.4-.17-.54.05.03.1.01.18-.06Z" fill="#746256"/><path d="M10.58 9.76c-.1-.15-.2-.33-.24-.52a7.49 7.49 0 0 0-.25-.72 1.76 1.76 0 0 0-.29-.45l-.14-.18a.02.02 0 0 1 0-.03.02.02 0 0 1 .03 0c.32.2.49.54.75.75a.1.1 0 0 1 .02.03l.02.04c0 .18.07.34.2.47a.06.06 0 0 1 .01.05 1.32 1.32 0 0 0 .04.57v.01l-.01.01h-.01c-.04.01-.08 0-.13-.03Z" fill="#222221"/><path d="M8.09 7.85c.15.09.3.12.45.1.04 0 .09 0 .12.02l.41.26a.53.53 0 0 0-.29.1.34.34 0 0 0-.06.09c-.03.07-.13.09-.27.06l-.04.01a.06.06 0 0 0-.03.03l-.03.09-.21.5c-.17-.06-.3-.04-.42.07-.12.04-.23-.06-.3-.12a.44.44 0 0 0-.16-.15.4.4 0 0 0-.2-.03c-.1 0-.19 0-.27-.03-.03-.08 0-.12.06-.12l.1.06h.06c.1-.03.18-.06.23-.1.05-.04.15-.14.28-.3l.57-.54Z" fill="#887A6F"/><path d="M9.8 8.07c.14.17.24.32.3.45.09.23.17.47.24.72.05.2.13.37.24.52l.13.19a1.9 1.9 0 0 1-.4-.56h-.04v.02l-.03.51a.1.1 0 0 0 .03.08l.32.3c.16.12.3.33.36.53.06.18.13.35.22.5l-.1.23-.01.02h-.03l-.02-.02c-.02-.05-.01-.1.02-.14v-.05l-.1-.09-.11-.5a.7.7 0 0 0-.21-.4 3.57 3.57 0 0 1-.5-.5v-.02l.05-.23v-.1l-.04-.63v-.05a2.69 2.69 0 0 0-.4-.83V8h.02c.03 0 .05.03.06.07Z" fill="#746256"/><path d="M6.88 8.65c0 .02 0 .04-.03.05a.65.65 0 0 1-.21-.27.1.1 0 0 1 0-.06l.02-.1v-.01a.02.02 0 0 1 .03 0c.06.03.08.08.07.13v.05l.12.21Z" fill="#A7957F"/><path d="m9.07 8.23.19.16.03.04a.1.1 0 0 1-.02.1.12.12 0 0 1-.05.04l-.26.11c-.23.06-.4.17-.54.33l-.02.01a.06.06 0 0 1-.06 0L8.32 9c-.06-.09-.05-.18.05-.25l.02-.02V8.7a.18.18 0 0 1-.04-.09l.03-.09.03-.03h.04c.14.02.24 0 .27-.07a.34.34 0 0 1 .06-.08.53.53 0 0 1 .3-.1Z" fill="#222221"/><path d="m8.35 8.61.03.1v.04c-.1.07-.12.16-.06.25l.02.02a.06.06 0 0 0 .06 0l.02-.01c.13-.16.31-.27.54-.33l.17-.02h.02l.01.02v.03l-.02.01c-.22.1-.4.23-.53.43-.2.1-.3.02-.47-.03l.21-.51Z" fill="#746256"/><path d="M9.47 9.32a.12.12 0 0 0-.02-.1c0-.03-.01-.04-.03-.04-.02 0-.02.01-.03.03l-.07.01-.01-.03h-.09a.25.25 0 0 0-.1.05h-.03l-.27.08h-.03l-.01.03v.03l.01.02c.41.4.88.28 1.37.13v.1c-.18.22-.41.4-.69.55l-.13.1a.04.04 0 0 1-.05 0l-.02-.03.01-.03a.13.13 0 0 0 .04-.08.03.03 0 0 0-.01-.02h-.02l-.01-.01-.53.05c-.21-.04-.38-.1-.5-.18a.04.04 0 0 0-.05 0L8.2 10v.02a.2.2 0 0 1 .02.11l-.02.03-.03.02a.22.22 0 0 0-.1.06c-.06.04-.12.05-.2.02h-.02v-.02a.03.03 0 0 1 0-.03c.05-.1.06-.2.01-.3v-.04c0-.01 0-.02.02-.03.05-.06.13-.06.13-.15 0-.1.02-.17.08-.2l.02-.01a.04.04 0 0 0 0-.04l-.02-.02a1.01 1.01 0 0 1-.36-.24c.11-.1.25-.13.42-.06.17.05.27.13.47.03l.57-.4a.1.1 0 0 1 .13.02c.12.12.3.22.53.3.01 0 .03 0 .04.02l.01.05-.01.16a.1.1 0 0 1-.02.04.1.1 0 0 1-.03.04.11.11 0 0 1-.09.01.22.22 0 0 1-.07-.05h-.04v.02c-.01.04-.03.07-.06.1l-.03.01h-.03c-.04-.04-.06-.09-.04-.15ZM6.7 8.82l.09.03c.08.03.17.04.26.03.1 0 .17 0 .21.03.07.04.12.09.16.15-.05.09-.1.18-.13.28-.04.08-.03.13.07.16h.02l.01.02v.03l-.2.2a.07.07 0 0 0-.01.05c0 .02 0 .04.02.05.2.2.34.4.43.64.09.22.22.33.42.45v.03h-.02l-.91-.02H7.1v.01l.6.55v.04a.71.71 0 0 0-.14.41c0 .12.05.18.15.2l.06-.02c.03 0 .06.01.1.06l.02.07.01.03c.05.05.09.1.11.15v.06c-.03.02-.05.03-.08 0l-.37-.21a.14.14 0 0 1-.06-.07c-.04-.1-.1-.2-.2-.33a20.82 20.82 0 0 1-.74-1.4c-.05-.11-.1-.34-.16-.68.04-.09-.01-.1-.15-.04h-.03v-.04c.15-.1.21-.24.18-.4l.21-.46c.02 0 .04-.01.08-.06Z" fill="#222221"/><path d="M7.72 9.18c.1.1.22.19.36.24l.01.02a.04.04 0 0 1 0 .04l-.01.02c-.06.02-.08.09-.08.2 0 .08-.08.08-.13.14l-.02.03v.03c.05.11.04.21-.02.31a.03.03 0 0 0 .01.04l.01.01c.09.03.15.02.2-.02l.02.04a.5.5 0 0 0-.12.18c-.02.1.02.16.11.17a.1.1 0 0 1 .05.03c.1.07.16.14.19.2.13.25.3.47.5.66a13.73 13.73 0 0 1 .3.26h.01V11.7c.04.03.07.06.1.11l.07.07.14.08.02.02.01.03c.01.12.03.13.06.03.06.12.15.22.26.3a.08.08 0 0 0-.03.09v.02l-.02.01c-.24.23.18.26.15.37-.2.11-.34.17-.42.16a6.93 6.93 0 0 1-.63-.06.35.35 0 0 1-.14.06h-.03l-.41-.1H8.2a23.1 23.1 0 0 1-.14-.12c-.16-.13-.35-.23-.53-.35a.4.4 0 0 1-.14-.15c-.13-.25-.33-.41-.4-.65-.04-.11-.15-.2-.19-.34a3.55 3.55 0 0 1-.45-1.17c-.02-.06-.06-.11-.06-.16a.06.06 0 0 1 .02-.05l.09-.1c.06.35.11.58.16.7a20.87 20.87 0 0 0 .74 1.4c.1.11.16.22.2.32.01.03.03.05.06.07.02 0 .14.08.37.22.03.02.05.01.08-.01v-.06l.05.04h.06c.03 0 .06 0 .08.04a4.96 4.96 0 0 0 .14.2l.02-.01a.02.02 0 0 0 0-.02.22.22 0 0 1-.07-.2.03.03 0 0 1 .04-.01l.02.01c.07.14.15.29.31.31a.04.04 0 0 0 .04 0 .04.04 0 0 0 .01-.04v-.15c.01-.02.03-.03.07-.02l.01.02v.01l.02.01.02-.01.01-.01c.02-.05.07-.07.14-.05a.09.09 0 0 0 .07-.02l.17-.07c.03 0 .06-.02.08-.05.04-.06.11-.07.2-.03h.01l.01-.03a1.51 1.51 0 0 1-.46-.36.07.07 0 0 0-.04-.05H9a.78.78 0 0 0-.28.05h-.04c-.2 0-.38-.03-.55-.1-.13-.06-.28-.21-.38-.28a.02.02 0 0 0-.03 0v.02l-.02.15.07.24v.03l.03.02c.04.03.07.06.08.1-.04-.04-.07-.05-.1-.05l-.06.02c-.1-.02-.15-.08-.15-.2 0-.15.05-.29.14-.4a.03.03 0 0 0 0-.05l-.6-.55v-.01l.92.03h.02v-.04a.89.89 0 0 1-.42-.45 1.9 1.9 0 0 0-.43-.64.07.07 0 0 1-.02-.05c0-.02 0-.03.02-.05l.18-.2.01-.02v-.01l-.01-.02h-.02c-.1-.03-.11-.08-.07-.16.04-.1.08-.2.13-.28.07.06.18.16.3.12Z" fill="#4A423B"/><path d="M9.32 9.22c-.05.05-.09.05-.1-.02.03-.02.06-.02.09-.01l.01.03Z" fill="#BDA39C"/><path d="M9.22 9.2c.01.07.05.07.1.02l.07-.01.02.04h.03V9.2c.03.03.04.07.03.1l-.04.03c-.15.11-.25.08-.31-.1a.25.25 0 0 1 .1-.04Z" fill="#292520"/><path d="M9.12 9.24c.06.18.16.21.31.1.02 0 .02.02.02.03v.01c-.14.15-.38.04-.36-.13l.03-.01Z" fill="#9D525A"/><path d="M10.7 9.95c.11.1.18.23.23.36 0 .03.01.05.03.07.13.17.23.32.4.5.16.14.3.3.43.47-.07.02-.07.06-.01.12h-.1v-.08l-.03-.01-.02-.01c-.09 0-.15.02-.18.05-.1-.2-.19-.23-.28-.08a3.15 3.15 0 0 1-.22-.5c-.07-.21-.2-.42-.36-.55a4.78 4.78 0 0 1-.34-.33.1.1 0 0 1 0-.04l.01-.51v-.02h.04l.02.01c.1.21.23.4.39.55Z" fill="#887A6F"/><path d="m10.93 11.28-.18-.34-.01-.01a.06.06 0 0 0-.05-.02l-.02.01-.21.12a.06.06 0 0 0-.03.03v.05l.42.66v.03l-.02.04-.15.07h-.03a1.55 1.55 0 0 0-.56.01l-.25-.14-.06-.06c-.09-.05-.16-.13-.27-.14-.05 0-.1-.05-.13-.12v-.01a.04.04 0 0 0-.05 0c-.06.03-.1.03-.12 0a1.77 1.77 0 0 0-.19-.17h-.01l-.02.02v.01c0 .04.03.07.05.1.09.07.16.16.23.26 0 .02.03.04.05.05.06.04.13.06.2.07.04 0 .06.02.08.05.05.05.1.07.16.06a1.07 1.07 0 0 1 .3.41v.01l-.02.01h-.01c-.12 0-.18-.08-.29-.14a.92.92 0 0 1-.23-.15c-.03.1-.05.1-.06-.03v-.03l-.03-.02-.14-.08a.18.18 0 0 1-.07-.07 56.86 56.86 0 0 0-.62-.73.49.49 0 0 1-.06-.13c.13-.12.3-.12.53.03l.05.02.28.1.69.38.02.03v.03l-.07.17v.02l.02.03h.06l.43-.23h.03c0 .01.03.02.05.01l.01-.01a.02.02 0 0 0 0-.02l-.13-.21c0-.01 0-.02-.02-.02l-.03-.01a1.58 1.58 0 0 1-.36-.07c-.1-.03-.1-.1-.1-.17V11h.03l.37-.04h.02l.15-.23.01-.03-.01-.03c-.18-.18-.31-.24-.55-.32a4.03 4.03 0 0 0-.27-.09c-.09-.02-.18-.06-.27-.1.28-.14.5-.32.69-.54l-.05.23v.03l.01.02c.13.16.3.32.49.48.11.09.17.25.2.4l.12.49Z" fill="#3C3636"/><path d="M8.75 10.16c.3.08.62.15.94.2.28.06.5.19.63.39a.07.07 0 0 1 0 .06v.02l-.04.02-.29.1a.09.09 0 0 0-.04.04c-.04.05-.04.12 0 .2v.03l-.01.01-.02.01H9.9l-.51-.12L9.1 11a.22.22 0 0 1-.05-.02c-.22-.15-.4-.15-.53-.03-.03-.02-.04-.06-.05-.14v-.02l.02-.02a.05.05 0 0 1 .05-.01l.42.12h.04l.78.1c.03 0 .06-.02.09-.06a.11.11 0 0 1 .05-.04l.18-.07h.02v-.05l-.02-.01c-.06-.04-.09-.1-.07-.17v-.04a.05.05 0 0 0-.04-.02.52.52 0 0 0-.24 0h-.1c-.23-.06-.35-.1-.53-.06h-.04l-.03-.02a.16.16 0 0 1-.04-.06c-.01-.03-.04-.04-.07-.04a.68.68 0 0 1-.6-.21.04.04 0 0 0-.05 0l-.23.14-.01-.04a.23.23 0 0 1 .1-.06l.03-.02.02-.03a.2.2 0 0 0-.02-.11V10l.01-.02a.04.04 0 0 1 .05 0c.12.08.29.14.5.18Z" fill="#746256"/><path d="m9.47 10.18.27.1c.14.03.23.06.27.08.24.08.37.14.55.32l.01.03v.03l-.16.22h-.01l-.01.01-.37.03-.03.01v.03c0 .08 0 .14.1.17.11.03.23.06.36.07h.03l.02.03.13.2v.04H10.57a.02.02 0 0 0-.03 0l-.43.22a.06.06 0 0 1-.06 0l-.02-.03v-.02l.07-.17v-.03a.05.05 0 0 0-.02-.03l-.7-.37.52.12h.04v-.04c-.03-.09-.03-.16 0-.2a.09.09 0 0 1 .05-.04l.3-.1.02-.03.02-.02a.07.07 0 0 0-.01-.06.93.93 0 0 0-.63-.38 13.8 13.8 0 0 1-.94-.21l.53-.05a.04.04 0 0 1 .03 0v.03c0 .03 0 .06-.03.08a.04.04 0 0 0 0 .05l.03.01h.03l.13-.1Z" fill="#4A423B"/><path d="m8.53 10.96.06.13a55.94 55.94 0 0 1 .53.67v.02H9.1a.03.03 0 0 1-.02 0l-.28-.26c-.2-.19-.37-.4-.5-.66a.74.74 0 0 0-.19-.2.1.1 0 0 0-.05-.03c-.1-.01-.13-.07-.1-.17 0-.04.04-.1.1-.18l.24-.15a.04.04 0 0 1 .05 0c.16.18.36.25.6.22.03 0 .06.01.07.04l.04.06a.07.07 0 0 0 .07.02c.18-.05.3 0 .52.05h.1a.52.52 0 0 1 .25 0l.04.03v.04c-.02.07 0 .13.07.17l.02.01v.04l-.02.01-.18.07a.11.11 0 0 0-.05.04c-.03.04-.06.06-.09.06l-.78-.1h-.04l-.42-.12a.06.06 0 0 0-.05 0l-.02.03v.02c0 .08.02.12.05.14Z" fill="#9C8877"/><path d="m10.93 11.28.1.1v.04c-.03.04-.04.09-.02.14l.02.01a.03.03 0 0 0 .03 0h.01l.1-.23c.1-.15.18-.12.28.08.05.06.11.1.18.1.03.01.05 0 .06-.04h.25c-.07-.01-.05 0 .06.03a.43.43 0 0 1-.27.25.06.06 0 0 0-.03.02l-.08.11v.01h.01a.57.57 0 0 0 .16-.11h.01a.63.63 0 0 1-.24.23h-.02l-.48.1c-.08-.1-.24-.11-.49-.07a.06.06 0 0 0-.03.03l-.01.01-.01.01h-.01a.03.03 0 0 1-.03 0l-.1-.09a.08.08 0 0 0-.08 0h-.06l-.15-.08c.19-.03.37-.03.56 0h.03l.15-.08.02-.04v-.03l-.42-.66a.05.05 0 0 1 0-.05c0-.01.01-.03.03-.03l.21-.12a.06.06 0 0 1 .05 0h.02l.01.02.18.34Z" fill="#292520"/><path d="M9.78 11.73c-.07.04-.07.1-.02.18a.17.17 0 0 1-.16-.06.13.13 0 0 0-.08-.05.58.58 0 0 1-.2-.07.16.16 0 0 1-.05-.05 1.7 1.7 0 0 0-.23-.27.18.18 0 0 1-.05-.09v-.01l.02-.01h.03l.17.16c.02.03.06.03.12 0l.02-.01h.03v.02c.04.07.08.11.13.12.1.01.18.09.27.14Z" fill="#D88085"/><path d="m11.8 11.35.14.12h-.16c-.06-.06-.06-.1.01-.12ZM11.69 11.48c-.01.03-.03.05-.06.05a.31.31 0 0 1-.18-.1c.03-.04.1-.05.18-.06h.02l.02.02.02.09Z" fill="#BDA39C"/><path d="M8.02 12.45a.55.55 0 0 0-.1-.15c-.02 0-.02-.02-.02-.03l-.02-.07a.15.15 0 0 0-.08-.11.07.07 0 0 1-.03-.05 1.23 1.23 0 0 0-.07-.24 1.44 1.44 0 0 1 .02-.16.02.02 0 0 1 .03 0c.1.06.25.2.38.26a1.3 1.3 0 0 0 .59.1c.1-.03.2-.05.28-.04h.03l.04.05.01.03c.14.15.3.26.45.33v.02H9.5c-.09-.03-.16-.02-.2.04a.12.12 0 0 1-.08.05.43.43 0 0 0-.17.07.09.09 0 0 1-.07.02c-.07-.02-.12 0-.14.05l-.01.01h-.01l-.01.01H8.8v-.02l-.01-.01-.01-.01c-.04-.01-.06 0-.07.02V12.8l-.01.01a.04.04 0 0 1-.04.01c-.16-.02-.24-.17-.31-.31l-.02-.01h-.03l-.01.02c0 .07.01.13.06.19a.02.02 0 0 1 0 .01.02.02 0 0 1 0 .02h-.02a4.96 4.96 0 0 1-.13-.2c-.02-.03-.05-.05-.08-.04h-.06a.17.17 0 0 1-.05-.04Z" fill="#A7957F"/><path d="m9.78 11.73.06.06c.02.1.06.17.14.23a.1.1 0 0 1 .04.05.4.4 0 0 0 .12.2 1.83 1.83 0 0 0 .28.19v.01h-.27a.32.32 0 0 1-.12-.02.1.1 0 0 0-.05 0 .2.2 0 0 1-.2-.1.76.76 0 0 1-.27-.3c.08.07.15.12.23.15.11.06.17.14.29.14h.02v-.03c-.07-.16-.16-.3-.29-.4-.05-.09-.05-.14.02-.18Z" fill="#BE9585"/><path d="m10.1 11.93.14.08h.14-.02a.02.02 0 0 0-.01.02v.01l.17.43a.8.8 0 0 1-.37 0h.26v-.02c-.1-.05-.18-.12-.27-.19a.4.4 0 0 1-.12-.2.1.1 0 0 0-.04-.04.3.3 0 0 1-.14-.23l.25.14Z" fill="#9D525A"/><path d="m10.38 12.01.1.09a.03.03 0 0 0 .03 0h.02v-.02l.02-.02h.02c.25-.05.4-.03.49.05l.02.2c-.01.09-.03.18-.07.26-.02.06-.08.1-.16.13-.19.06-.3-.02-.33-.23l-.17-.43v-.02h.03Z" fill="#D88085"/><path d="M10.94 12.75c-.25.07-.52.08-.82.06-.07-.01-.16 0-.25.03a.28.28 0 0 1-.13-.04c.07-.02.07-.04-.02-.07H9.7v.04h-.02c-.08 0-.15.01-.21.04a.19.19 0 0 1-.06.03l-.06-.06c.05-.14.17-.25.36-.3l.02-.02v-.02c0-.04 0-.06.03-.08.05.07.12.1.2.08a.1.1 0 0 1 .06 0c.04.03.08.04.12.04a.8.8 0 0 0 .37-.01c.04.2.14.29.33.23.08-.02.14-.07.16-.13.04-.08.06-.17.07-.26l.01-.09.02-.01.01.01a.7.7 0 0 1-.18.53Z" fill="#292520"/><path d="m9.93 6.93-.02.02a.06.06 0 0 1-.06-.01l-.01-.03a.98.98 0 0 1 .06-.5c.13-.34.18-.47.28-.67.07-.12.24-.22.38-.33h.02v.01l.03.37c0 .08-.03.2-.07.37l-.15.55c-.05.16-.1.26-.16.3a.87.87 0 0 0-.17.16h-.03l-.01-.02-.02-.23V6.9l-.01-.01a.02.02 0 0 0-.02 0 .09.09 0 0 0-.04.03Z" fill="#BE9585"/><path d="m8.82 7.13-.01-.01-.01-.02v-.02h.02c.37-.07.73.01 1 .25.04.05.1.08.16.12a30.31 30.31 0 0 1 .48.55c.11.12.23.3.26.48v.01l-.01.01a.03.03 0 0 1-.03 0 .68.68 0 0 1-.22-.33l-.02-.03L10 7.8h-.01l-.26-.13a.18.18 0 0 0-.09-.02.4.4 0 0 1-.2-.03 5.74 5.74 0 0 1-.34-.17.87.87 0 0 1-.55-.13.92.92 0 0 0-.19-.1l-.01-.01a.04.04 0 0 1 0-.05l.02-.01a.94.94 0 0 1 .35-.04h.02a.05.05 0 0 1 .01.05v.08l.03.03.18.1a.1.1 0 0 0 .08.02l.03-.01h.03l.92.3a.02.02 0 0 0 .02-.01.02.02 0 0 0 0-.02.26.26 0 0 0-.08-.1 1.62 1.62 0 0 0-.54-.22.28.28 0 0 1-.08-.03c-.18-.1-.35-.15-.52-.16Z" fill="#887A6F"/><path d="M10.43 7.65v.02h-.02a.03.03 0 0 1-.03 0l-.14-.13a.1.1 0 0 1-.02-.14l.1-.14.02-.02a.04.04 0 0 1 .04 0v.02c.06.13.07.26.05.4Z" fill="#4A423B"/><path d="M8.26 9.48a.05.05 0 0 1 0-.05l.02-.02h.03l.14-.02.06.01.05.04a1.78 1.78 0 0 1 .22.56l-.02.02a.05.05 0 0 1-.05 0c-.2-.15-.34-.33-.45-.54Z" fill="#3C3636"/><path d="M6.81 10.4c-.06-.16-.02-.26-.17-.4l-.02-.04-.05-.23V9.7l.07-.55.1-.2h.01l.01-.01a.03.03 0 0 1 .02 0c.03.02.05.05.06.08v.03l-.01.02-.1.09v.04l.01.02c.02.01.02.03.02.05a.6.6 0 0 1-.1.35.12.12 0 0 0-.02.06c0 .17.14.33.18.47.03.1.04.17.04.23v.01h-.04Z" fill="#887A6F"/><path d="M7.66 9.55h.01a.04.04 0 0 1 .04 0v.01c.03.07.04.15.03.25 0 .03 0 .05.02.08.05.1.07.19.06.28l-.01.03-.03.01a.07.07 0 0 1-.06 0 .59.59 0 0 1-.24-.26l-.02-.02-.1-.06-.01-.01v-.03l.01-.01c.11-.07.2-.15.3-.27ZM7.76 11.36a.07.07 0 0 1 0-.06l.03-.02.03-.01c.35-.08.61 0 .78.24.03.05.06.09.1.12l.07.1v.01a.02.02 0 0 1-.02.01l-.78-.14a.15.15 0 0 1-.06-.02.39.39 0 0 1-.15-.23ZM10.33 12.72a.7.7 0 0 1-.52-.17v-.03h.03l.5.16v.03h-.01Z" fill="#A7957F"/><defs><linearGradient id="a" x1="9" y1="0" x2="9" y2="18" gradientUnits="userSpaceOnUse"><stop stop-color="#4A390B"/><stop offset="1" stop-color="#F2D139"/></linearGradient><linearGradient id="b" x1="13.26" y1="5.38" x2="4.2" y2="11.9" gradientUnits="userSpaceOnUse"><stop offset=".31" stop-color="#E3D99B"/><stop offset=".65" stop-color="#AA9E52"/></linearGradient></defs></svg>