<!-- by TradingView --><svg width="18" height="18" viewBox="0 0 18 18" xmlns="http://www.w3.org/2000/svg"><path fill="#F0F3FA" d="M0 0h18v18H0z"/><path d="M10.25 4.16a5 5 0 0 0-5.28 7.8l1.9-2.8L5 6h1.14l1.33 2.26L9 6.01V6l1.25-1.84Zm-4.69 8.47 1.79-2.64L8.53 12h3c.81 0 1.47-.8 1.47-1.78 0-.66-.3-1.23-.74-1.54.13-.27.2-.57.2-.9C12.46 6.8 11.8 6 11 6h-.94l1.04-1.54a5 5 0 1 1-5.53 8.17Zm2.4-3.54L9.37 7H11c.3 0 .55.41.55.78 0 .36-.25.66-.55.66H8.96l-.3.56.3.56h2.5c.3 0 .54.3.54.66 0 .37-.25.78-.55.78H9.08L7.96 9.09Z" fill="#010101"/></svg>