<!-- by TradingView --><svg width="18" height="18" viewBox="0 0 18 18" xmlns="http://www.w3.org/2000/svg"><path fill="#F0F3FA" d="M0 0h18v18H0z"/><path d="M9 4a5 5 0 1 1 0 10A5 5 0 0 1 9 4Z" fill="url(#akmw0b2cc)"/><path d="M13.75 10.57h-1.07c-.1 0-.81-.14-.74-1.02.02-.27.05-.56.06-.85.01-.42-.03-.85-.24-1.25A2.7 2.7 0 0 0 9.32 6c-.93 0-1.19.29-1.19.29S7.94 6 7.51 6c-.4 0-.67.33-.74.67-.07.33-.74 4.26-.74 4.26s-.03.12-.03.28c0 .31.1.79.75.79.83 0 .98-1 .98-1l.32-2.35s.1-1.22 1.15-1.22c1.06 0 1.2 1.14 1.2 1.55 0 .6 0 1.6.45 2.23.33.47.64.79 1.55.79h.62c.34-.44.57-.94.73-1.43Z" fill="#F0F3FA"/><defs><linearGradient id="akmw0b2cc" x1="13.03" y1="5.65" x2="4.96" y2="12.17" gradientUnits="userSpaceOnUse"><stop offset=".04" stop-color="#34CAFF"/><stop offset=".32" stop-color="#7A68F8"/><stop offset=".7" stop-color="#F238B7"/><stop offset=".97" stop-color="#FEB864"/></linearGradient></defs></svg>