<!-- by TradingView --><svg width="18" height="18" viewBox="0 0 18 18" xmlns="http://www.w3.org/2000/svg"><path fill="url(#ayvumabqw)" d="M0 0h18v18H0z"/><path d="M9.89 4.08v.08a.9.9 0 0 0-.01.07.4.4 0 0 1-.03.1v.03l-.01.04-.01.04c-.05.24-.1.48-.17.72H9.6a1256.33 1256.33 0 0 1-1.37.02l-.16.02h-.24l-.19-.8-.02-.2c.75-.22 1.5-.26 2.28-.12Z" fill="#FD8C00"/><path d="M9.89 4.08c.17.03.35.07.52.12v.05l-.02.04-.01.07-.02.06a3.14 3.14 0 0 0-.11.26 10.07 10.07 0 0 0-.17.46h-.02c-.13.02-.26.03-.4.02a7.93 7.93 0 0 0 .23-1.08ZM7.6 4.2l.03.2.2.8-.27.03a26.57 26.57 0 0 1-.27-.93l.32-.1Z" fill="#fff"/><path d="M10.4 4.2c.4.12.78.28 1.13.49l-.17.27a.98.98 0 0 0-.13.22.61.61 0 0 0-.25-.06 1.75 1.75 0 0 0-.22 0c-.13.02-.23.02-.3.02a4.94 4.94 0 0 0-.4 0h.02a10.07 10.07 0 0 1 .32-.9V4.2ZM7.3 4.3a1.2 1.2 0 0 1 .01.1l.25.83-.14.02-.14.02-.17.03a2.45 2.45 0 0 0-.33.1.87.87 0 0 1-.24.05l.02-.02v-.01A2.62 2.62 0 0 1 6.3 5a.18.18 0 0 0-.02-.03.06.06 0 0 1-.02-.05v-.01l-.05-.06c.34-.23.7-.41 1.08-.55Z" fill="#FD8C00"/><path d="M11.53 4.69c.15.09.3.19.44.3 0 0 0 .02-.02.03l-.01.02v.02l-.03.03a.37.37 0 0 0-.05.06.2.2 0 0 1-.03.05 1.3 1.3 0 0 1-.23.28l-.03-.01c-.1-.12-.21-.22-.34-.3a.98.98 0 0 1 .13-.21l.17-.27ZM6.21 4.85l.05.06v.01c0 .02 0 .03.02.05L6.3 5l.03.05.02.03a2.62 2.62 0 0 0 .2.35v.02l-.32.14c-.03.01-.05 0-.06-.01a22.97 22.97 0 0 1-.31-.47l.35-.26Z" fill="#fff"/><path d="M11.97 4.98c.37.27.7.6.98.96-.04 0-.07 0-.1.03a28.81 28.81 0 0 0-.63.47v.04l.02.04.01.02v.03l.03.02.11.04h-.08l-.04-.02-.02-.01a19.48 19.48 0 0 0-.27-.54 2.42 2.42 0 0 0-.41-.6l.02.02.02-.01a1.3 1.3 0 0 0 .22-.27.2.2 0 0 0 .03-.05 1.4 1.4 0 0 0 .08-.1l.01-.03a.07.07 0 0 0 .02-.04ZM5.86 5.11c0 .03.02.05.03.08 0 .02.02.04.04.06.04.05.09.1.13.17l.1.16c.02.02.04.02.07.01a.83.83 0 0 1-.19.12l-.1.06c-.13.07-.25.18-.36.33a.49.49 0 0 0-.08.14 2.77 2.77 0 0 0-.06.18 590.28 590.28 0 0 0-.45-.4c.25-.34.54-.64.87-.9Z" fill="#FD8C00"/><path d="M11.23 5.18a1.52 1.52 0 0 1 .34.3 2.42 2.42 0 0 1 .48.72 1.64 1.64 0 0 1 .1.2 17.69 17.69 0 0 1 .11.2l.01.01.04.01.08.01a.1.1 0 0 1 .05.07l.01.08v.03a8.97 8.97 0 0 1 .01.08h.12l.32-.03c.03 0 .04 0 .05.03v.13c0 .02-.01.03-.03.03a29.66 29.66 0 0 0-.3.04l.01.02.23.27c.13.17.23.36.3.57l-.01.4a2.75 2.75 0 0 1-.67 1.14.3.3 0 0 0 .02-.04v-.04h-.04v.01h-.11l.1-.15v-.05h-.02l-.06.01c-.06.01-.06 0-.01-.03a.5.5 0 0 1 .1-.06.55.55 0 0 0 .23-.15c.05-.05.1-.12.15-.22.11-.2.17-.4.17-.64L13 8.06v-.07a.65.65 0 0 0-.1-.24 2.09 2.09 0 0 0-.27-.4.6.6 0 0 0-.46-.22L12 7.12c-.1-.02-.1-.03 0-.03a3.27 3.27 0 0 1 .3-.03l-.1-.18-.03-.01h-.2a24.85 24.85 0 0 1-.98.04c-.01 0-.02.01-.02.03v.12a12.6 12.6 0 0 0 .3.1l.02.03c0 .01 0 .02-.02.03a.37.37 0 0 1-.18.05h-.04v-.03l.08-.01.01-.02V7.2a.28.28 0 0 0-.06-.04c-.03-.02-.05-.02-.07-.02l-.04.01h-.04a.5.5 0 0 0-.14.02v.01l.03.08a.02.02 0 0 1 0 .02h-.01a.29.29 0 0 0-.06.05.12.12 0 0 0-.03.07l-.01.01-.21.01-.01.01v.15c.01.03.02.05.01.07 0 .02-.02.03-.05.04-.05 0-.05.02 0 .03.13.02.26.02.36-.02a2.13 2.13 0 0 0 .41-.19 13.84 13.84 0 0 1 .26-.1l.13-.03a.64.64 0 0 1 .4.06c.16.07.28.2.36.36.05.1.08.19.08.26l.01.3c0 .09-.02.17-.05.24a.55.55 0 0 1-.15.2h-.01l-.01-.01a.72.72 0 0 1 .03-.36l.03-.14v-.15a.81.81 0 0 0-.1-.27.65.65 0 0 0-.19-.2.62.62 0 0 0-.43-.09c-.05 0-.1.02-.14.05l-.2.11c-.13.08-.28.13-.44.16-.15.02-.3.02-.46 0a.15.15 0 0 1-.07-.04h-.02l-.01.01V7.92h-.02a22.53 22.53 0 0 0-1.74.06v-.01l-.01-.2c0-.01-.01-.02-.03-.02H8.2c-.02 0-.03 0-.02-.02v-.2H8l-.04-.01-.04-.04h-.02a.21.21 0 0 0-.07.13.73.73 0 0 0 0 .18l-.03.12a1.78 1.78 0 0 0-.04.14.41.41 0 0 1-.04.07.21.21 0 0 1-.12.1c-.08.02-.13.05-.14.1a.3.3 0 0 0 0 .15c.01.05.04.1.07.15a.74.74 0 0 0 .23.22.1.1 0 0 0 .08.02l.07-.03a.43.43 0 0 1 .05-.03h.05c.02 0 .04.01.05.04v.03a.1.1 0 0 1 0 .03c0 .05-.02.08-.06.1a.3.3 0 0 1-.25.05.36.36 0 0 1-.1-.05 5.35 5.35 0 0 1-.24-.26.5.5 0 0 0-.12-.11.05.05 0 0 0-.05 0l-.08.03h-.02a.44.44 0 0 0-.1-.1.05.05 0 0 0-.05-.01.74.74 0 0 0-.18.1.87.87 0 0 1-.2.1c-.03.02-.04.01-.02-.02a.27.27 0 0 1 .1-.1 1.3 1.3 0 0 1 .18-.08 4.63 4.63 0 0 0 .3-.27 1.19 1.19 0 0 1 .13-.1l.16-.12a.7.7 0 0 0 .14-.15.31.31 0 0 0 .04-.14v-.14a.16.16 0 0 0-.06-.12 1.14 1.14 0 0 0-.14-.07h-.01v.02c0 .02 0 .04-.02.06l-.05.01h-.15c-.01 0-.02 0-.02.02 0 .07 0 .14.02.22v.02h-.34v.02l.01.08-.01.08a.2.2 0 0 1-.11.1.88.88 0 0 1-.38.04.14.14 0 0 1-.09-.05.34.34 0 0 1-.05-.08.67.67 0 0 0-.1-.12c0-.01 0-.02-.02-.02h-.21a.55.55 0 0 0-.14.03 2.23 2.23 0 0 0-.17.06h-.05a.06.06 0 0 1-.04-.04c0-.03-.02-.04-.05-.04h-.02v-.02a.87.87 0 0 0 0-.08l-.03-.05H5.4c-.04.14-.05.28-.04.45 0 .06.02.1.06.14l.07.06c.03.03.04.06.05.09v.02h-.02a.43.43 0 0 1-.2-.32.92.92 0 0 1 .03-.39c0-.03.02-.06.04-.09a.1.1 0 0 0 .01-.07c-.06 0-.1 0-.15.02-.03 0-.06.02-.08.06a.4.4 0 0 0-.04.1.78.78 0 0 0-.02.27c0 .07.02.17.05.28a.36.36 0 0 0 .2.26 1.73 1.73 0 0 0 .14.07l.1.08c.02 0 .02.02.02.03l-.01.01h-.02a3.67 3.67 0 0 1-.3-.15.38.38 0 0 1-.12-.11.34.34 0 0 1-.04-.15.4.4 0 0 0-.02-.06.62.62 0 0 1-.06-.35.85.85 0 0 1 .1-.4.2.2 0 0 0 .03-.08c0-.04-.01-.07-.03-.1h-.02l-.03.01a.47.47 0 0 0-.06.12 1.1 1.1 0 0 0-.03.64l.03.16c.06.2.13.4.23.57.05.09.07.15.08.2l.02.25a4.1 4.1 0 0 1-.02.39 95.84 95.84 0 0 1-.03 1.52l-.01.07v.12c-.02.12-.02.25-.01.37v.06c0 .02-.02.03-.04.02a.07.07 0 0 1-.03-.03h-.02l-.02-.01v-.03l-.02-.01v-.31l.02-.09v-.55a4.56 4.56 0 0 0 .02-.47 5.4 5.4 0 0 0 0-.67c.02-.1.03-.22.02-.34v-.1l-.04-.16a6.05 6.05 0 0 1-.3-.69l-.03-.12-.01-.1v-.44c0-.05.01-.15.05-.3a7.26 7.26 0 0 0 .02-.48c0-.04.02-.06.06-.06a1.3 1.3 0 0 0 .35-.04l.01-.02a.4.4 0 0 1 .04-.08.6.6 0 0 0 .06-.3l.06-.23c.02-.05.04-.1.08-.14a1.24 1.24 0 0 1 .46-.39 2.03 2.03 0 0 1 .5-.26c.09-.01.16-.03.24-.06a1.05 1.05 0 0 1 .16-.05 2.45 2.45 0 0 1 .34-.07l.14-.02.14-.02.26-.03a21.42 21.42 0 0 0 .55-.04 1256.41 1256.41 0 0 0 2.1-.02 3.67 3.67 0 0 0 .34-.02 1.75 1.75 0 0 1 .22 0c.05 0 .11.02.2.06Z" fill="#040405"/><path d="M11.27 6.34h.01l-.3-.27a3.45 3.45 0 0 0-.9-.53 1.3 1.3 0 0 0-.22-.06 1.16 1.16 0 0 0-.19-.04 4.36 4.36 0 0 0-.82-.02 15.29 15.29 0 0 0-1.09.12 3.5 3.5 0 0 1-.52-.02v-.03l.01-.01a3.32 3.32 0 0 1 .69-.11 2.46 2.46 0 0 0 .4-.03 4.31 4.31 0 0 1 .26 0 14.58 14.58 0 0 1 .9-.03 5.85 5.85 0 0 1 .97 0 5.2 5.2 0 0 0 .58 0l.1.03c.15.1.27.2.37.32.14.17.26.35.35.55a8.13 8.13 0 0 1 .18.4 31.48 31.48 0 0 0-1.03.05H10.78a.2.2 0 0 1-.05 0h-.05a13.83 13.83 0 0 1-.51.02 3.8 3.8 0 0 0-.6-.03.41.41 0 0 0-.13.04.92.92 0 0 1-.25.04 8.9 8.9 0 0 0-.56.02l-.35.01a3.96 3.96 0 0 1-.54.02 2.08 2.08 0 0 1-.03-.21.27.27 0 0 0-.03-.1.42.42 0 0 0-.06-.09h-.03v.03a1.66 1.66 0 0 1 .1.37l-.01.01h-.36a44.88 44.88 0 0 1-1.78.07l.01-.08a.54.54 0 0 0 .02-.1c0-.1.02-.21.05-.33a.5.5 0 0 1 .1-.18l.15-.14a1.94 1.94 0 0 1 .39-.26c.13-.07.28-.13.44-.17.16-.03.32-.05.48-.04l.26.01a8.3 8.3 0 0 0 1.13-.07c.2-.03.37-.04.53-.05a2.66 2.66 0 0 1 .96.13 2.81 2.81 0 0 1 .61.35 18.14 18.14 0 0 0 .6.41Z" fill="#fff"/><path d="M10.88 6.4a2.6 2.6 0 0 0-2.35-.59l-.14.03c-.2.04-.4.05-.64.05a8.97 8.97 0 0 1-1.08-.07.27.27 0 0 0-.08.03 1.02 1.02 0 0 0-.1.06h-.02c-.02 0-.02-.01-.02-.03 0-.02.03-.04.07-.07a.37.37 0 0 1 .09-.04.3.3 0 0 1 .07-.01 1.31 1.31 0 0 1 .24.01 1.71 1.71 0 0 0 .3.04l.19.01a2.7 2.7 0 0 0 .72 0 4.66 4.66 0 0 0 .68-.1 4.65 4.65 0 0 1 1 .04l.06.02.12.03.13.04.36.18a2.1 2.1 0 0 1 .44.35 2.83 2.83 0 0 1 .16.2h-.01l-.2-.17Z" fill="#040405"/><path d="m12.95 5.94.32.45a11.32 11.32 0 0 1-.8.45v-.01c0-.05-.01-.1-.03-.13a.1.1 0 0 0-.05-.07 1.61 1.61 0 0 1-.11-.04s-.02 0-.02-.02v-.03l-.02-.02a.07.07 0 0 1-.02-.04v-.04a.33.33 0 0 1 .07-.06 1.6 1.6 0 0 0 .17-.12 2.55 2.55 0 0 0 .2-.15l.1-.06a.6.6 0 0 0 .1-.08.11.11 0 0 1 .1-.03Z" fill="#fff"/><path d="M10.42 6.32a1.63 1.63 0 0 0-.8-.26l-.14-.02c-.2 0-.37 0-.55.02-.03 0-.03-.01 0-.04l.04-.01a3.6 3.6 0 0 1 .93.03c.07.01.17.04.3.1.23.08.44.23.6.44l.02.04h-.01a8.75 8.75 0 0 1-.4-.3Z" fill="#040405"/><path d="m4.99 6.02.01.02a585.03 585.03 0 0 1 .44.38v.05a.6.6 0 0 1-.06.3l-.02.02a.21.21 0 0 1-.05.03h-.06a16.63 16.63 0 0 0-.3-.2 2.01 2.01 0 0 0-.26-.16l.3-.44Z" fill="#fff"/><path d="m6.7 6.18.13-.05a.5.5 0 0 1 .15-.02 1.9 1.9 0 0 1 .83.12c0 .01 0 .02-.01.01a7.32 7.32 0 0 1-.54-.08 1.7 1.7 0 0 0-.29-.01.68.68 0 0 0-.2.05.56.56 0 0 0-.23.17.68.68 0 0 0-.14.26l-.01.02h-.02l-.01-.02c0-.05 0-.1.02-.14a.46.46 0 0 1 .08-.13.65.65 0 0 1 .23-.18Z" fill="#040405"/><path d="M13.27 6.4c.25.4.43.84.56 1.3a1.24 1.24 0 0 0-.4.1h-.01a13.26 13.26 0 0 1-.27.08v.07c-.06-.2-.16-.4-.3-.57a15.81 15.81 0 0 0-.21-.3h.02l.26-.03c.02 0 .03-.01.03-.03V6.9c0-.02-.02-.03-.05-.03a2.31 2.31 0 0 1-.45.02v-.01a.2.2 0 0 0 0-.07v.05-.07a.25.25 0 0 1 0-.08c.01.04.02.08.01.13l.01.01h.02a.5.5 0 0 1 .09-.05 11.3 11.3 0 0 0 .69-.4ZM4.7 6.46a2.01 2.01 0 0 1 .3.2 16.72 16.72 0 0 1 .3.16l.06-.03a.4.4 0 0 1 .02-.02.4.4 0 0 0-.04.08l-.01.02-.03.01a1.3 1.3 0 0 1-.32.03c-.04 0-.06.02-.06.06a4.88 4.88 0 0 0 0 .33l-.02.15a1.8 1.8 0 0 0-.05.3v.43-.32l-.01-.01v-.03a.14.14 0 0 0-.06-.02.25.25 0 0 1-.06-.03 11.56 11.56 0 0 1-.52-.18l.03-.1.02-.06c.11-.34.26-.66.44-.97Z" fill="#FD8C00"/><path d="m9.6 7.35.08-.3-.01-.02-.05-.02a.03.03 0 0 1-.02-.04c0-.02.02-.03.04-.03a.2.2 0 0 1 .06 0l.03.02h.02v-.02l.02-.06c0-.02.01-.02.02-.02h.03l.02.01v.02l-.01.06.01.04h.01l.02-.01.03-.08.02-.01h.01c.02 0 .03.01.03.03v.05a.3.3 0 0 0-.01.03V7c.04.01.07.03.1.06a.11.11 0 0 1 .02.14.11.11 0 0 1-.04.04l-.01.02v.03c.05.03.06.07.04.11-.02.06-.04.1-.08.1-.03.02-.07.03-.13.02h-.03v.03l-.02.05c0 .02-.02.03-.04.02h-.01c-.02 0-.03-.01-.03-.03l.02-.06V7.5h-.02l-.03.01v.02l-.01.03-.02.03h-.04l-.02-.02c0-.02 0-.05.02-.07v-.03h-.01l-.1-.03c-.01 0-.02-.02-.01-.04 0-.03.02-.04.04-.04h.06v-.02Z" fill="#fff"/><path d="M12.35 9.42a15.64 15.64 0 0 0-.38.66 3.35 3.35 0 0 1-.49.63c-.2.19-.43.36-.67.5a11.7 11.7 0 0 1-.88.47l-.23.13a6.18 6.18 0 0 1-1.15.5 7.92 7.92 0 0 1-.57.15 12.8 12.8 0 0 0-.41.13 2.44 2.44 0 0 1-1.12.08h-.08c-.06 0-.1-.01-.16-.03H6.2l-.02-.01h-.01l-.05-.01a.36.36 0 0 1-.1-.03.68.68 0 0 0-.1-.04.65.65 0 0 1-.25-.16 1.5 1.5 0 0 0-.14-.12.2.2 0 0 1-.05-.07.37.37 0 0 0-.04-.07.38.38 0 0 1-.05-.08 1.18 1.18 0 0 0-.05-.1.56.56 0 0 1-.04-.16v-.37l.02-.2a32.22 32.22 0 0 1 .03-.75 95.84 95.84 0 0 0 0-1.4.66.66 0 0 0-.08-.2 2.62 2.62 0 0 1-.3-.96c0-.14.03-.28.07-.41a.47.47 0 0 1 .06-.12l.03-.01h.02c.02.03.03.06.03.1a.2.2 0 0 1-.02.08.92.92 0 0 0-.1.4v.1a2.38 2.38 0 0 0 .07.31c0 .06.02.1.04.15.03.04.06.07.12.1l.14.1a3.66 3.66 0 0 0 .18.06v-.04a.54.54 0 0 0-.17-.1 1.73 1.73 0 0 1-.17-.1.36.36 0 0 1-.11-.2c-.03-.12-.05-.22-.05-.29-.01-.1 0-.19.02-.27a.4.4 0 0 1 .04-.1c.02-.04.05-.06.08-.06a2.88 2.88 0 0 1 .15-.02.1.1 0 0 1-.01.07.32.32 0 0 0-.04.1.92.92 0 0 0-.03.38c.02.14.09.25.2.32h.01l.01-.02a.22.22 0 0 0-.05-.09.56.56 0 0 0-.07-.06.18.18 0 0 1-.06-.14 1.27 1.27 0 0 1 .05-.46h.01l.02.06a.4.4 0 0 1 0 .08v.01l.03.01c.03 0 .04.01.05.04 0 .02.02.03.04.04h.05l.03-.01.14-.05.14-.03a3.05 3.05 0 0 1 .24.02l.09.12.05.08c.03.03.06.04.09.05.13 0 .26 0 .38-.05a.2.2 0 0 0 .11-.1.13.13 0 0 0 .01-.07.42.42 0 0 0-.02-.08V7.8h.33l.01-.01v-.02a1.04 1.04 0 0 1 0-.22v-.02h.16l.05-.01c.02-.02.02-.04.01-.06v-.02h.03a1.22 1.22 0 0 0 .08.03l.05.04c.04.03.06.07.06.12v.14c0 .06-.02.1-.04.14a.7.7 0 0 1-.14.15 2.34 2.34 0 0 1-.17.13 3.99 3.99 0 0 0-.3.28.42.42 0 0 1-.12.08 2.96 2.96 0 0 1-.18.08.27.27 0 0 0-.1.1c-.02.03-.01.04.02.03a.87.87 0 0 0 .2-.12l.18-.1c.02 0 .03 0 .05.02.04.02.07.06.1.1h.02l.08-.04h.05a.5.5 0 0 1 .11.12 5.34 5.34 0 0 0 .24.26c.04.03.08.04.11.05a.3.3 0 0 0 .25-.04.15.15 0 0 0 .07-.1v-.04l-.01-.03c-.01-.03-.03-.04-.05-.05l-.05.01a.43.43 0 0 0-.05.03.28.28 0 0 1-.07.03.1.1 0 0 1-.08-.02.79.79 0 0 1-.23-.22.48.48 0 0 1-.07-.15.3.3 0 0 1 0-.15c.01-.05.06-.08.14-.1.05-.02.09-.05.12-.1a1.37 1.37 0 0 0 .1-.33 2.94 2.94 0 0 0 0-.18c.02-.05.04-.1.08-.13h.02l.04.04.04.01h.18v.2c0 .02 0 .03.02.03l.23-.01c.02 0 .03 0 .03.02v.2l.01.01h.02a21.16 21.16 0 0 1 .73-.02l.2-.01a22.5 22.5 0 0 1 .8-.04v-.05l.02-.02h.02c.02.03.04.04.07.04.15.03.3.03.46 0 .16-.02.31-.07.44-.15l.2-.11a.47.47 0 0 1 .14-.05.6.6 0 0 1 .63.3c.04.07.07.16.1.26l-.01.15-.03.14a.71.71 0 0 0-.03.36v.01h.02a.55.55 0 0 0 .15-.2.67.67 0 0 0 .05-.25v-.29a.78.78 0 0 0-.09-.26.7.7 0 0 0-.5-.4.64.64 0 0 0-.27-.01 1.95 1.95 0 0 0-.27.07 13.82 13.82 0 0 0-.3.15l-.22.09a.71.71 0 0 1-.36.02c-.05-.01-.05-.02 0-.03.03 0 .04-.02.05-.04v-.07a.32.32 0 0 1-.01-.15l.22-.02.01-.01c0-.03.02-.05.03-.07a.28.28 0 0 1 .07-.05v-.02l-.04-.08.01-.01a.5.5 0 0 1 .14-.01h.04l.04-.02c.02 0 .04 0 .07.02l.06.04v.02l-.01.02h-.08v.03l.04.01c.07 0 .13-.02.18-.05.02 0 .02-.02.02-.03 0-.01 0-.02-.02-.03a12.29 12.29 0 0 1-.3-.1v-.12c0-.02 0-.03.02-.03a9.83 9.83 0 0 0 .52-.03 24.88 24.88 0 0 0 .68 0l.1.18v.01l-.02.01H12c-.1.01-.1.02 0 .04l.17.01a.6.6 0 0 1 .46.22c.1.11.2.24.28.4.05.1.08.18.08.24l.01.07.01.07a1.3 1.3 0 0 1-.32.86.55.55 0 0 1-.22.15.5.5 0 0 0-.11.06c-.05.03-.05.04 0 .03l.07-.01h.02v.05a.73.73 0 0 0-.1.15Z" fill="#fff"/><path d="m6.8 7.38.01.02.03.04v.05c0 .06-.03.1-.07.12-.03.02-.08.03-.15.02H6.6l-.01.02-.01.05c0 .02-.02.03-.04.03h-.02c-.02-.01-.02-.03-.02-.05l.02-.04c0-.02 0-.03-.02-.04H6.5l-.02.01-.02.07c0 .01 0 .02-.02.02H6.4l-.02-.03v-.04l.01-.02c0-.03 0-.04-.03-.05l-.08-.01v-.01c-.01-.04 0-.06.01-.07h.07l.02-.02.08-.3-.01-.02-.06-.03c-.01 0-.02-.02 0-.03v-.03a.03.03 0 0 1 .04 0l.07.02h.02l.01-.02.02-.06v-.01c.02-.02.04-.02.05-.01.02 0 .02.03.02.05l-.01.04.01.03h.03L6.67 7c.01-.02.03-.03.05-.02.02.02.03.04.02.06l-.01.05v.01c.06.02.09.05.1.07.04.04.04.08.02.12l-.03.04a.2.2 0 0 0-.02.02v.02Z" fill="#fff"/><path d="m9.8 7.1.01-.03h.05l.07.04c.01.02.02.04.01.05 0 .03-.02.04-.04.04-.02.01-.05.01-.07 0H9.8l-.02-.02v-.02l.02-.07ZM12.69 8.42l.03-.2a1.83 1.83 0 0 0-.04-.45.81.81 0 0 0-.1-.28.5.5 0 0 0-.22-.2.61.61 0 0 0-.22-.05 4.36 4.36 0 0 0-.27 0 .86.86 0 0 1-.16-.03c-.03-.01-.03-.02 0-.02a1.78 1.78 0 0 1 .61.04l.05.02.1.06c.13.1.22.22.25.35a1.4 1.4 0 0 1 .03.32v.16a15.15 15.15 0 0 1-.06.52.51.51 0 0 1-.05.11.47.47 0 0 1-.13.13 1.4 1.4 0 0 1-.16.1l-.12.06h-.02v-.02a.22.22 0 0 1 .08-.08c.1-.05.18-.1.24-.15a.46.46 0 0 0 .13-.25l.03-.14ZM9.75 7.3l.01-.02h.04c.04 0 .07.02.1.04.02.02.03.04.02.06 0 .02-.02.04-.05.05h-.1l-.02-.01-.02-.01v-.02l.02-.1ZM6.53 7.39l.01-.02h.03l.1.05c.03.02.04.04.03.06 0 .03-.02.04-.06.05l-.1-.01h-.02l-.01-.02V7.5l.02-.1Z" fill="#040405"/><path d="M4.2 7.6c.03 0 .06.01.08.03a11.55 11.55 0 0 0 .55.19v.01l.01.02v.33l.02.11h-.09c-.1 0-.2-.02-.29-.05h-.05a.2.2 0 0 1-.06-.02 130.24 130.24 0 0 1-.3-.06c.03-.2.08-.38.13-.57ZM13.83 7.7c.05.18.09.36.11.55l-.09.01a5.53 5.53 0 0 0-.53.09 2.86 2.86 0 0 1-.17 0V7.89c0-.02.02-.04.04-.04h.05a13.26 13.26 0 0 0 .59-.15Z" fill="#fff"/><path d="M11.39 8.03a.57.57 0 0 0 .19-.27h.02c.03.02.06.05.08.1.02.03.03.07.04.13a.3.3 0 0 0 .12.18l.1.05a1.92 1.92 0 0 0 .14.07l.07.04v.06a.1.1 0 0 1-.05.02 1.36 1.36 0 0 1-.18.02.32.32 0 0 0-.08.02.2.2 0 0 0-.11.14l-.01.1v.08l-.03.07a15.63 15.63 0 0 0-.37.59 3.78 3.78 0 0 1-1.17 1.2 3.1 3.1 0 0 1-1.08.4 5.98 5.98 0 0 1-1.38.09 7.87 7.87 0 0 1-1.12-.11 1.52 1.52 0 0 1-.27-.09.66.66 0 0 1-.4-.4 1.63 1.63 0 0 1-.12-.48 4.16 4.16 0 0 1-.03-.9l.05-.54c.01-.07.04-.15.1-.24a.32.32 0 0 0 .05-.1.92.92 0 0 0 .03-.14c0-.03.02-.04.04-.05h.03l.02.01a1.43 1.43 0 0 1 .08.3l.03.14a.35.35 0 0 0 .07.15 1.78 1.78 0 0 0 .15.17c.07.05.13.1.2.13a1.64 1.64 0 0 0 .55.18 3.7 3.7 0 0 0 1.38-.02 7.1 7.1 0 0 0 1.85-.6l.7-.3c.1-.05.2-.12.31-.2Z" fill="#131214"/><path d="m6.71 7.86-.11.05h-.02l-.12-.06a.02.02 0 0 1 0-.02v-.01h.01l.25-.01h.02v.03l-.02.02Z" fill="#fff"/><path d="M10.09 8.34c0 .01 0 .02-.03.02H9.9c-.1.02-.2.02-.27.01-.13-.01-.2-.05-.22-.11a.2.2 0 0 1 0-.13l.01-.01c.02 0 .03.01.03.03l.02.1.02.01.1.04.28.02c.06 0 .13 0 .2.02Z" fill="#131214"/><path d="M9.31 8.28c.06.12.06.25.02.39-.03.1-.1.15-.19.18l-.05-.01a.07.07 0 0 1-.03-.04.13.13 0 0 1 .02-.13.9.9 0 0 0 .09-.13c.02-.05.02-.1-.01-.13a.18.18 0 0 0-.05-.04.25.25 0 0 0-.07-.03 1.79 1.79 0 0 0-.12-.03.23.23 0 0 1-.08-.04.07.07 0 0 1-.02-.03v-.03l.01-.03.04-.02a.6.6 0 0 1 .25 0c.1.01.17.05.2.12Z" fill="#040405"/><path d="M4.07 8.16a151.46 151.46 0 0 0 .79.13l.02.12.06.16a6.06 6.06 0 0 0 .25.53l.04.16v.1a8.61 8.61 0 0 0-.73.04h-.13a2.06 2.06 0 0 1-.2.03 22.74 22.74 0 0 1-.13.03 5.02 5.02 0 0 1 .03-1.3Z" fill="#FD8C00"/><path d="M11.61 8.3c-.01.1-.04.2-.1.28a.77.77 0 0 1-.18.2c-.07.06-.16.1-.26.16a5.15 5.15 0 0 1-.28.1L10.78 9a9.2 9.2 0 0 0 .01-.39 5 5 0 0 0 .43-.25l.19-.1a.67.67 0 0 1 .18-.03l.02.01a.2.2 0 0 1 0 .06Z" fill="#fff"/><path d="M13.94 8.25c.08.48.08.97 0 1.46-.02 0-.05 0-.09-.02a.2.2 0 0 0-.07-.01c-.07 0-.14 0-.2-.02a.57.57 0 0 0-.09-.02h-.1c-.25-.04-.52-.08-.82-.1-.03-.01-.07 0-.1.02l.06-.08.22-.3a2.73 2.73 0 0 0 .4-.8 5.51 5.51 0 0 1 .79-.13Z" fill="#FD8C00"/><path d="m8.93 8.53.01.1c0 .04 0 .07-.02.1l-.04.03-.03-.01a.23.23 0 0 0-.08-.05 5.06 5.06 0 0 1-.29-.01.25.25 0 0 1-.15-.06l-.01-.02v-.02a.41.41 0 0 1 .18-.1.73.73 0 0 1 .42.02l.01.02Z" fill="#040405"/><path d="M9.86 8.94a3.53 3.53 0 0 1 .73-.2v.02c0 .11-.03.22-.1.33a.42.42 0 0 1-.13.13.8.8 0 0 1-.19.08c-.12.04-.25.09-.38.16a.38.38 0 0 1-.16.03h-.02l-.01-.03a1.24 1.24 0 0 1-.03-.1 1.02 1.02 0 0 1-.03-.22c0-.03 0-.05.04-.06a1.26 1.26 0 0 1 .24-.12l.04-.02ZM6.13 9.08l.01-.03A.39.39 0 0 1 6.17 9c.01-.02.02-.03.04-.03h.01v.01c.02.13.02.26 0 .38 0 .06-.02.1-.04.15v.01h-.02c-.09-.02-.12-.08-.11-.18l.03-.12a1.73 1.73 0 0 1 .05-.13ZM11.26 9.07l.01.01v.02a3.33 3.33 0 0 1-.41.63c-.02.03-.04.03-.06 0a.19.19 0 0 1-.05-.1V9.5c0-.05.02-.1.06-.16a.45.45 0 0 1 .15-.11l.3-.16ZM6.69 9.26c.02.01.03.03.03.06 0 .12-.02.24-.06.35l-.01.02h-.02a2 2 0 0 1-.14-.04.07.07 0 0 1-.04-.03 3.8 3.8 0 0 1-.06-.2v-.13a1.12 1.12 0 0 1 .05-.14h.02c.03 0 .07 0 .11.03a1.24 1.24 0 0 1 .12.08ZM8.55 9.77H8.5c-.01 0-.02 0-.02-.02v-.02a1.62 1.62 0 0 0 .01-.37h.02l.27-.09a2.97 2.97 0 0 1 .57-.1v.01l.05.18.02.05v.08c0 .07 0 .1-.04.12l-.17.07a1.96 1.96 0 0 1-.51.07l-.15.02ZM6.9 9.69a.07.07 0 0 1-.03-.02l-.01-.03v-.08a2.26 2.26 0 0 0 .07-.2l.02-.01.18.01c.12.03.24.05.38.06.02 0 .04.01.04.04 0 .09-.02.17-.04.25a.04.04 0 0 1-.03.03h-.4a.71.71 0 0 1-.19-.05ZM5.23 9.36a1.2 1.2 0 0 1-.03.38c0 .02-.02.02-.04.03a9.82 9.82 0 0 0-1.05.25l-.05-.24-.03-.21v-.11a22.66 22.66 0 0 0 1.2-.1ZM7.78 9.42l.5-.07h.02l.01.02v.38l-.02.01h-.6v-.02a14.13 14.13 0 0 1 .02-.17c0-.06.02-.1.04-.13l.03-.02Z" fill="#fff"/><path d="m12.53 9.48-.06.08-.16.3-.23.41c-.1.17-.22.31-.35.44l-.27.26a138.54 138.54 0 0 0-.7.47l-.29.15c-.23.11-.45.24-.67.37l-.2.13-.45.23c-.1.05-.2.09-.31.12l-.32.08a2.21 2.21 0 0 0-.4.09l-.21.06a6.65 6.65 0 0 1-.72.18 2.06 2.06 0 0 1-.41.02 11.42 11.42 0 0 0-.41-.02 3.54 3.54 0 0 1-.48-.13.98.98 0 0 1-.28-.15.8.8 0 0 0-.1-.1 2.87 2.87 0 0 1-.31-.42.28.28 0 0 1-.05-.12 23.22 23.22 0 0 0 .02-.14l.01.01v.02l.01.01h.02l.02.01.03.03c.02.01.03 0 .03-.02v-.06c.02.08.03.13.05.16l.05.1.05.08.04.07a.2.2 0 0 0 .05.07c.05.03.1.07.14.12.07.07.16.12.26.16.03 0 .07.02.1.04l.09.03a.63.63 0 0 1 .06.01h.02l.01.01c.05.02.1.02.16.02h.07l.01.01.08.01a2.44 2.44 0 0 0 1.24-.16 12.8 12.8 0 0 1 1.14-.33 6.18 6.18 0 0 0 1.14-.58l.2-.1.56-.3a3.67 3.67 0 0 0 .97-.83 3.35 3.35 0 0 0 .37-.61l.2-.35h.11l.02-.02h.01v.05a.3.3 0 0 1-.02.05h.03c0-.02.01-.02.03-.02Z" fill="#131214"/><path d="m9.79 9.83.13-.07a29.79 29.79 0 0 0 .63-.27v.06l.01.09a1.3 1.3 0 0 0 .09.2c.02.06.01.12-.03.16-.05.06-.1.11-.16.15a51.73 51.73 0 0 1-.57.4 1.26 1.26 0 0 0-.09-.22.86.86 0 0 1-.07-.2.69.69 0 0 1-.02-.2c0-.02 0-.04.02-.05a.24.24 0 0 1 .06-.05ZM13.95 9.7c-.03.2-.07.39-.12.57h-.07v-.01l-.02-.01a1.83 1.83 0 0 1-.37-.07 159.78 159.78 0 0 1-1.06-.28v-.04l.16-.3a.14.14 0 0 1 .1-.03 19.18 19.18 0 0 1 1.38.18Z" fill="#fff"/><path d="M5.21 9.7a5.4 5.4 0 0 1-.01.9l-.01.23c-.08.06-.16.1-.26.13l-.25.12a1.03 1.03 0 0 1-.18.1c-.18-.37-.31-.76-.4-1.16a.8.8 0 0 0 .1-.03 9.82 9.82 0 0 1 1-.24.1.1 0 0 0 .01-.05ZM12.3 9.86c.01.02.02.02.01.03a172.95 172.95 0 0 0 1.44.36l.01.01.07.01a4.93 4.93 0 0 1-.56 1.29l-.01-.02-1.53-.83c.13-.13.25-.27.35-.44l.23-.4Z" fill="#FD8C00"/><path d="m9.54 10.17.04.12a1.56 1.56 0 0 0 .1.19c.03.07.01.13-.05.17a.65.65 0 0 1-.17.08h-.01a9.06 9.06 0 0 1-.6.16.4.4 0 0 1-.13 0 .04.04 0 0 1-.04-.04 7.32 7.32 0 0 1-.03-.64 6.57 6.57 0 0 0 .87-.3v.03l.02.23ZM6.03 10.36c.05.12.11.2.13.2.02 0 0-.11-.05-.23-.05-.12-.11-.21-.13-.2-.02 0 0 .1.05.23ZM6.36 10.56v-.06a1.43 1.43 0 0 1-.05-.23h.03c.06.05.12.12.16.2a1.17 1.17 0 0 1 .1.25 297 297 0 0 1 0 .07h-.05l-.04-.01a2.36 2.36 0 0 1-.17-.06.26.26 0 0 1-.11-.1v-.02l.12-.02.01-.02ZM8.46 10.29l.02.13v.44c0 .03 0 .05-.03.06a10.04 10.04 0 0 0-.57.03l-.02-.14-.03-.12c0-.07-.02-.13-.04-.2v-.07c.01-.04.03-.05.06-.06l.12-.03.09-.01h.09a1.01 1.01 0 0 0 .28-.05c.01 0 .02 0 .03.02ZM6.71 10.51a1.73 1.73 0 0 1-.06-.16h.02c.08 0 .15.02.22.04.02 0 .05.04.07.1l.04.11.06.18v.08c0 .03 0 .04-.03.04l-.2-.06c-.02 0-.02 0-.03-.02a1.1 1.1 0 0 0-.09-.3ZM7.5 10.4c.04 0 .07.02.1.07l.03.12.05.3c0 .03 0 .05-.03.05a.22.22 0 0 1-.14 0H7.5a.79.79 0 0 1-.07-.02.15.15 0 0 1-.05-.03.64.64 0 0 1-.14-.2 1.78 1.78 0 0 1-.08-.25c0-.02 0-.04.03-.04h.32Z" fill="#fff"/><path d="M10.85 10.6h.01v.02a17.3 17.3 0 0 1-.7.4c-.06.04-.12.08-.2.11l-.39.19a6.05 6.05 0 0 1-.74.26 4.18 4.18 0 0 1-.7.07 25.67 25.67 0 0 0-.69.03c-.3.01-.57-.01-.82-.07a.96.96 0 0 1-.35-.19.5.5 0 0 1-.1-.1 1.39 1.39 0 0 1-.07-.12v-.01h.02a3.37 3.37 0 0 1 .3.27l.12.07a1.28 1.28 0 0 0 .57.1c.25 0 .5 0 .76-.02a16.02 16.02 0 0 1 .93-.05 18.4 18.4 0 0 0 2.06-.96Z" fill="#040405"/><path d="M11.32 10.64a5.99 5.99 0 0 1-1.47.8 5.94 5.94 0 0 1-1.6.44 2.46 2.46 0 0 1-.32.04 1.89 1.89 0 0 1-.35.03h-.06a262.97 262.97 0 0 0-1.1.03.3.3 0 0 1-.24-.05l-.34-.25a.32.32 0 0 1-.15-.32c0-.03.02-.03.02 0a.4.4 0 0 0 .1.2l.1.09a3.65 3.65 0 0 0 .4.28c.04.02.1.02.15.02.28 0 .55 0 .79-.03l.34-.02a1.69 1.69 0 0 0 .3-.04 6.18 6.18 0 0 0 1.74-.39 1.93 1.93 0 0 0 .29-.1l.13-.06.26-.13.4-.21a29.81 29.81 0 0 1 .6-.35h.01v.02Z" fill="#040405"/><path d="M11.73 10.7a666.14 666.14 0 0 0 1.54.86v.03c-.08.15-.18.3-.3.44l-1.5-1.06.26-.26ZM5.19 10.83v.11l-.01.39-.01.03-.01.01a.05.05 0 0 0-.03.03v.01a2.05 2.05 0 0 0-.15.1 1.6 1.6 0 0 0-.17.1l-.01.02a.08.08 0 0 1-.03.03c-.1-.15-.19-.32-.27-.48a21.26 21.26 0 0 0 .69-.35Z" fill="#fff"/><path d="m11.46 10.97 1.52 1.06c-.27.35-.58.66-.93.93l-1.29-1.52a11.06 11.06 0 0 1 .33-.2l.37-.27ZM5.18 11.33v.06l-.01.09a23.41 23.41 0 0 1-.02.45c0 .04.02.08.04.13a2.87 2.87 0 0 0 .28.38c0 .02.02.03.04.04a.8.8 0 0 1 .1.1.1.1 0 0 1-.04-.01.1.1 0 0 0-.03 0H5.5a4.82 4.82 0 0 1-.73-.91l.03-.03.01-.01a1.6 1.6 0 0 1 .17-.1.95.95 0 0 0 .15-.12l.03-.03.01-.01.01-.03Z" fill="#FD8C00"/><path d="m10.76 11.44 1.3 1.52-.45.3v-.02l-1.14-1.65.29-.15Z" fill="#fff"/><path d="m10.47 11.59 1.14 1.64v.03c-.35.22-.72.39-1.11.51l-.01-.07a543.73 543.73 0 0 0-.64-1.7c0-.03-.02-.04-.05-.04.22-.13.44-.26.67-.37Z" fill="#FD8C00"/><path d="M9.8 11.96c.03 0 .05.01.05.04a543.73 543.73 0 0 1 .64 1.77l-.43.12a.35.35 0 0 1-.05-.13 15.83 15.83 0 0 0-.43-1.59c-.01-.04 0-.07.02-.08l.2-.13Z" fill="#fff"/><path d="M9.6 12.09c-.03.01-.03.04-.02.08a188.94 188.94 0 0 0 .48 1.72c-.4.08-.79.12-1.18.1l-.04-1.55.3-.12.46-.23Z" fill="#FD8C00"/><path d="M8.84 12.44 8.88 14l-.45-.03a83.3 83.3 0 0 1 .09-1.45l.32-.08Z" fill="#fff"/><path d="m8.52 12.52-.01.05v.04l-.08 1.36a4.92 4.92 0 0 1-1.1-.26 2.25 2.25 0 0 1 .14-.46l.03-.15.1-.31c0-.01 0-.02-.03-.02a6.75 6.75 0 0 0 .54-.16 6.39 6.39 0 0 1 .4-.09Z" fill="#FD8C00"/><path d="M5.61 12.57c.09.07.18.12.28.15.01.02.03.03.06.04l.02.01v.02a.11.11 0 0 0-.02.06l-.01.02-.05.04c-.14-.1-.27-.22-.39-.34a.1.1 0 0 1 .04 0 .1.1 0 0 1 .03 0 .1.1 0 0 0 .04 0Z" fill="#fff"/><path d="m5.89 12.72.06.02.07.03a3.54 3.54 0 0 0 .62.1 11.42 11.42 0 0 1 .34 0c.08 0 .15 0 .2-.02a.14.14 0 0 0-.05.07 8.02 8.02 0 0 1-.22.62 5 5 0 0 1-1.02-.63l.05-.04v-.02l.02-.06v-.02l-.01-.01a.12.12 0 0 1-.06-.04Z" fill="#FD8C00"/><path d="M7.57 12.77c.02 0 .03 0 .03.02a8.9 8.9 0 0 0-.27.92l-.42-.17V13.48l.01-.03.05-.1a8 8 0 0 0 .16-.43.14.14 0 0 1 .06-.07 4.09 4.09 0 0 1 .28-.05l.1-.03Z" fill="#fff"/><defs><linearGradient id="ayvumabqw" x1="3.35" y1="3.12" x2="21.9" y2="24.43" gradientUnits="userSpaceOnUse"><stop stop-color="#1A1E21"/><stop offset="1" stop-color="#06060A"/></linearGradient></defs></svg>