<!-- by TradingView --><svg width="18" height="18" viewBox="0 0 18 18" xmlns="http://www.w3.org/2000/svg"><path fill="url(#a)" d="M0 0h18v18H0z"/><circle cx="9" cy="9" r="6" fill="#B6B1A3"/><circle cx="9" cy="9" r="5.51" fill="#121418"/><path d="M10.08 6H8.65c-.02 0-.04.01-.05.04L7.5 8.97l-.02.01-.02-.01-.99-2.93A.04.04 0 0 0 6.43 6H5.02L5 6.02v.02l1.58 3.92c0 .02.02.04.03.04h.49c.02 0 .02 0 .01.02l-.06.2c-.07.26-.15.56-.24.65a.67.67 0 0 1-.3.13h-.19a5.28 5.28 0 0 0-.26 0c-.02 0-.06.02-.06.04v.89c0 .04.05.05.08.06h.68c.56-.01.92-.2 1.1-.54l.14-.31a10173.24 10173.24 0 0 0 2.08-5.13Zm1.92.98v-.91c0-.03-.02-.05-.05-.05a6.14 6.14 0 0 0-.73-.01 1.9 1.9 0 0 0-.72.17 1 1 0 0 0-.42.51A1177.16 1177.16 0 0 0 7.93 12l.01.01h1.42c.02 0 .04-.01.05-.03l1.09-2.9c.02-.05.03-.05.05 0l.98 2.9c.01.02.03.03.05.03h1.4c.02 0 .02 0 .02-.02l-.08-.22-1.49-3.71c0-.03-.02-.05-.05-.05h-.47c-.02 0-.03 0-.02-.03l.05-.16c.05-.19.1-.39.17-.47.11-.15.25-.33.42-.34h.44C12 7 12 7 12 6.98Z" fill="#fff"/><defs><linearGradient id="a" x1="3.35" y1="3.12" x2="21.9" y2="24.43" gradientUnits="userSpaceOnUse"><stop stop-color="#1A1E21"/><stop offset="1" stop-color="#06060A"/></linearGradient></defs></svg>