<!-- by TradingView --><svg width="18" height="18" viewBox="0 0 18 18" xmlns="http://www.w3.org/2000/svg"><path fill="url(#a)" d="M0 0h18v18H0z"/><path d="M8.74 7.54c-.72-.37-1.47-.4-2.15.01a.03.03 0 0 1-.03 0l-.01-.02c.02-.82.2-1.58.57-2.3A2.2 2.2 0 0 1 8.72 4c.06 0 .08.01.08.06V7.5c0 .05-.02.06-.06.04Zm2.64.01c-.68-.42-1.42-.38-2.14-.01-.04.02-.06 0-.06-.04V4.06c0-.04.02-.06.07-.05.73.1 1.31.64 1.6 1.22a5.33 5.33 0 0 1 .56 2.32.03.03 0 0 1-.03 0Zm-5.31.24 1.84 2.37c.08.1.07.12-.04.03L4.3 7.56l-.01-.02a.04.04 0 0 1 0-.04l.02-.02a2.2 2.2 0 0 1 1.78.07h.04l.02-.03.01-.03A4.6 4.6 0 0 1 7.5 4.2c.05-.04.04-.05-.02-.04-1.84.41-3.18 1.64-3.39 3.4 0 .03-.02.06-.04.1-.07.05-.07.11 0 .17l4.83 3.56a.19.19 0 0 0 .22 0l4.88-3.78c.03-.02.03-.05 0-.07l-.02-.02a.28.28 0 0 1-.1-.19c-.33-1.56-1.33-2.58-2.99-3.08a2.01 2.01 0 0 0-.38-.09c-.05 0-.05.01-.02.04.33.32.57.6.69.83a5.63 5.63 0 0 1 .65 2.47l.02.02a.07.07 0 0 0 .07 0c.56-.3 1.12-.36 1.68-.18.08.03.09.06.02.1l-3.4 2.65c-.12.09-.14.08-.05-.04l1.76-2.25c.04-.05.03-.1-.02-.13l-.11-.08a.13.13 0 0 0-.1-.03c-.02 0-.03 0-.05.02a.12.12 0 0 0-.04.03L9.25 10.6c-.04.06-.06.05-.06-.02V7.64c0-.01-.01-.02-.03-.02h-.33c-.01 0-.02 0-.02.02v2.99c0 .05-.02.05-.05.01l-2.4-3.07c-.03-.05-.08-.06-.14-.02l-.12.1c-.06.04-.06.09-.02.14Zm1.89 3.71h-.92c-.02 0-.04.03-.04.06v.38c0 .03.02.06.04.06h.92c.02 0 .04-.03.04-.06v-.38c0-.03-.02-.06-.04-.06Zm.74 0h.6c.02 0 .03.01.03.03v.88c0 .01-.01.03-.03.03h-.6c-.02 0-.03-.02-.03-.03v-.88c0-.02.01-.03.03-.03Zm2.26 0h-.92c-.02 0-.04.03-.04.06v.38c0 .03.02.06.04.06h.92c.02 0 .04-.03.04-.06v-.38c0-.03-.02-.06-.04-.06Zm-1 1.45a.19.19 0 0 1-.12.05H8.16a.19.19 0 0 1-.12-.05c-.03-.03-.04-.07-.04-.1v-.46c0-.08-.05-.12-.14-.12h-.72c-.1 0-.14.05-.14.13v1.54c0 .04.02.06.07.06h3.86c.05 0 .07-.02.07-.06V12.4c0-.09-.05-.13-.14-.13h-.73c-.09 0-.13.04-.13.12v.46c0 .03-.02.07-.05.1Z" fill="#18D16F"/><defs><linearGradient id="a" x1="3.35" y1="3.12" x2="21.9" y2="24.43" gradientUnits="userSpaceOnUse"><stop stop-color="#1A1E21"/><stop offset="1" stop-color="#06060A"/></linearGradient></defs></svg>