<!-- by TradingView --><svg width="18" height="18" viewBox="0 0 18 18" xmlns="http://www.w3.org/2000/svg"><path fill="#F0F3FA" d="M0 0h18v18H0z"/><path d="M12.33 4c-.17.45-.2 1-.36 1.45a.1.1 0 0 0 0 .07c.05.07.1.14.13.21.12.25.14.5.05.75-.05.18-.15.33-.26.47-.02.02-.02.05 0 .08.07.11.12.24.15.38 0 .07.03.13.1.18l.58.4.32.23c.1.06.2.1.3.17.2.12.37.27.44.5l.09.41c0 .03 0 .05.03.06.08.01.1.04.1.13v.46c0 .12-.05.19-.16.23l-.07.03c-.04.01-.05.03-.05.07 0 .15-.02.11.11.19h.02c.06.04.08.09.05.16l-.05.12a.15.15 0 0 1-.08.07.14.14 0 0 1-.1 0l-.13-.03-.06.01a.9.9 0 0 1-.56.32c-.36.07-.74.02-1.07-.15l-.47-.24a.63.63 0 0 0-.28-.1c-.24 0-.47.07-.68.19-.03.02-.04.03-.03.07l.08.24a2.16 2.16 0 0 0 1.17 1.25l.83.4c.01 0 .03 0 .05.03h-.05l-.45.07c-.3.06-.6.13-.89.24-.4.14-.78.29-1.17.45a6.66 6.66 0 0 1-1.68.42 3.36 3.36 0 0 1-1.64-.26c-.41-.18-.75-.45-1.02-.82a3.12 3.12 0 0 1-.52-1.52 4.7 4.7 0 0 1 .01-1.03c0-.03 0-.05-.03-.06a1.6 1.6 0 0 1-.17-.1c-.2-.13-.37-.3-.55-.48l-.02-.03L5 9.6a1.92 1.92 0 0 1-1-.79h.05l.17.03a1 1 0 0 0 .47-.05c.19-.06.35-.2.45-.37.17-.26.32-.52.48-.79.2-.34.4-.69.67-.99l.12-.13-.02-.01a.72.72 0 0 1-.54-.62l-.06-.54v-.04l.05.04.14.12c.15.13.32.21.52.2.19-.02.36-.09.52-.17l.02-.03L7 5.45a.51.51 0 0 1-.16-.38c0-.12.04-.24.1-.34.12-.23.3-.4.49-.58l.03-.01v.05l-.01.18c0 .14.08.2.2.19.08 0 .15-.02.23-.04l.72-.2c.33-.09.68-.12 1.02-.1.24.02.47.07.7.19.1.05.19.12.29.19l.02-.04a.69.69 0 0 1 .31-.32c.06-.03.07-.02.08.04.05.23.14.42.34.54.06.04.06.05.1-.01.23-.3.63-.5.86-.81Zm-.8 2.94-.05-.04h-.05l-.03.02c-.43.12-.78-.02-1.03-.45l-.06-.13a.09.09 0 0 0-.04-.03l-.22-.1a.12.12 0 0 1-.05-.04 2.33 2.33 0 0 0-.7-1.03c-.1-.09-.21-.16-.33-.22v.04c.1.26.22.53.34.79.08.16.18.31.34.4l.13.06-.26.05c-.4.08-.79.26-1.12.52-.48.39-.8.9-1 1.5a3.7 3.7 0 0 0-.17 1.56c.06.63.27 1.2.67 1.68.32.4.73.66 1.2.81l.26.07h.05a4.33 4.33 0 0 1-.98-1.85 4.2 4.2 0 0 0 2 1.68v-.02l-.13-.15a2.73 2.73 0 0 1-.54-.95l-.07-.28a.09.09 0 0 0-.04-.05 2.3 2.3 0 0 1-.85-.69c-.23-.3-.37-.64-.4-1.03-.04-.37.05-.71.24-1.02a.13.13 0 0 1 .05-.05l-.02.11c-.04.2-.06.4-.06.6 0 .3.06.58.2.84.18.34.45.55.81.64.46.12.88.02 1.28-.24.1-.06.2-.15.3-.23l.02-.03a.8.8 0 0 1-.38-.94l.06.15c.08.2.24.3.43.33.15.02.3.02.46.02.12 0 .25.01.37.03.05 0 .1.04.14.07l.03.05-.05.02-.35.02h-.03l.05.05c.3.2.62.35.97.46.19.06.39.1.59.08l.21-.06c.02-.01.04-.04.04-.06v-.14c-.12.07-.23.11-.36.09l.08-.05.1-.07a.2.2 0 0 0 .06-.17c0-.18 0-.36-.06-.53a1.12 1.12 0 0 0-.27-.4l-.02-.01h-.02l.05.4h-.01l-.1-.16-.17-.31a.2.2 0 0 0-.06-.07l-1.5-1.07a.22.22 0 0 1-.06-.06l.37.05a.82.82 0 0 0-.26-.46Zm-6.4 2.99c.18.04.37.06.55.05a.8.8 0 0 0 .69-.55c-.18.21-.38.35-.64.36l.1-.07c.17-.1.28-.25.39-.42l.42-.72c.15-.27.31-.53.52-.76l.19-.2.04-.04c-.07.02-.13.05-.2.09-.34.2-.58.49-.77.84l-.37.65c-.16.27-.37.47-.65.58-.12.05-.26.08-.4.12l-.04.01v.02l.17.04Zm6.56.02c0 .04.03.04.06.05l.4.1h-.03l-.35.03c-.06 0-.06.01-.04.07l.07.16c.01.04.04.04.07.04a4.54 4.54 0 0 1 1.57-.05c.05 0 .06-.01.05-.05 0-.04-.03-.03-.05-.04a2.6 2.6 0 0 1-.97-.23c-.25-.1-.48-.23-.7-.38l-.05-.03c0 .12-.02.22-.03.33ZM8 5.4c-.3.06-.58.2-.86.32-.17.07-.33.14-.5.19a.8.8 0 0 1-.5 0L6 5.86v.03c.09.19.25.27.45.23.18-.04.35-.11.52-.18l.7-.3c.48-.17 1.01-.04 1.24.32l.02-.02c-.16-.38-.5-.61-.94-.53Zm3.19.23c.09.12.21.2.35.24l.04-.01.15-.41c0-.01 0-.04-.02-.04a5.84 5.84 0 0 0-.22-.16h-.05l-.26.33v.05Zm0 1.16.23-.63c0-.01-.01-.05-.03-.06a9.46 9.46 0 0 0-.34-.24c-.01-.02-.06-.01-.07 0l-.4.51-.01.04s.2.46.61.38Zm2.09 3.8a2.4 2.4 0 0 0-1 0c.24.24.8.24 1 0ZM11.8 4.78l-.2.28c-.03.03-.03.05 0 .07l.13.1c.03.03.05.02.07-.02l.17-.48.1-.3-.27.35Zm-.48 5.28c0 .15.1.3.26.37-.1-.27-.1-.55-.07-.83a.91.91 0 0 0-.19.46Z"/><path d="M7.46 4.98c-.22.03-.17-.35-.12-.55-.54.74-.2 1 .04 1.03.39.06.9-.48 1.29-.48.44 0 .76.29.86.42a.95.95 0 0 1 1.16.24c-1.12-2.29-2.95-.7-3.23-.66Z" fill="url(#acfchohwj)"/><path d="M4.63 9c.6.87 1.11.27 1.5-.4a4.77 4.77 0 0 1 3.08-2.52 5.26 5.26 0 0 0-2.57 1c-.6.46-.83 1.08-1.26 1.66a.8.8 0 0 1-.24.22c-.2.12-.4.1-.5.05Z" fill="url(#bcfchohwj)"/><path d="M5.68 9.98A1.72 1.72 0 0 1 5 9.9l-.04-.01v-.02h.05l.12-.04c.1-.03.19-.05.27-.09.28-.1.49-.31.65-.58.1-.15.18-.32.27-.48l.1-.17a2.08 2.08 0 0 1 .9-.9l.06-.04.01.01-.04.04a6.36 6.36 0 0 1-.2.2 4.3 4.3 0 0 0-.64.97l-.3.51c-.1.17-.21.32-.38.42l-.08.05-.02.01v.01c.26-.01.46-.15.64-.36a.8.8 0 0 1-.69.55Z" fill="url(#ccfchohwj)"/><path d="M7.35 5.64c.21-.1.42-.19.65-.23.43-.08.78.15.94.53l-.02.02c-.23-.36-.76-.49-1.23-.31l-.63.25-.08.04a2.7 2.7 0 0 1-.52.18c-.2.04-.36-.04-.44-.23L6 5.87v-.01l.04.02.09.04a.8.8 0 0 0 .5 0c.17-.05.33-.12.48-.18h.02l.21-.1Z" fill="url(#dcfchohwj)"/><path d="M6.83 6.54c.24-.43.95-1.16 1.88-.64-.37-.1-1.26-.1-1.88.64Z" fill="url(#ecfchohwj)"/><path d="M11.58 10.43a.39.39 0 0 1-.26-.37c.01-.17.1-.32.19-.46-.02.28-.03.56.07.83Z" fill="#D9D9D9"/><path d="M11.19 5.64c.09.12.21.2.35.24l.04-.01.15-.41c0-.01 0-.04-.02-.04a5.82 5.82 0 0 0-.22-.16h-.05l-.21.28-.05.05v.02a.36.36 0 0 1 0 .03Z" fill="#F0C113"/><path d="m11.18 6.8.24-.63c0-.01-.01-.05-.03-.06a9.46 9.46 0 0 0-.34-.24c-.01-.02-.06-.01-.07 0l-.34.44-.06.07v.03h-.01s.2.47.61.4Z" fill="url(#fcfchohwj)"/><path d="m11.8 4.78-.07.1-.14.18c-.02.03-.02.05 0 .07l.1.07.04.04c.03.02.05.01.07-.03l.11-.32.06-.16.1-.3-.27.35Z" fill="#F0C113"/><path d="m11.53 6.94-.01-.01-.04-.03h-.04l-.02.01-.02.01c-.43.12-.78-.02-1.03-.45a1.03 1.03 0 0 1-.03-.07l-.03-.06a.09.09 0 0 0-.04-.03l-.04-.02a3.53 3.53 0 0 0-.23-.12 2.33 2.33 0 0 0-.7-1.03c-.1-.09-.21-.16-.33-.22v.04a49.18 49.18 0 0 1 .34.79c.08.16.18.31.34.4l.08.04.05.02a21.5 21.5 0 0 1-.26.05c-.4.08-.79.26-1.12.52-.48.39-.8.9-1 1.5a3.7 3.7 0 0 0-.17 1.56c.06.63.27 1.2.67 1.68a2.46 2.46 0 0 0 1.38.86l.08.02h.05a4.33 4.33 0 0 1-.98-1.85 4.2 4.2 0 0 0 2 1.68v-.02l-.02-.02-.1-.13a2.74 2.74 0 0 1-.55-.95l-.04-.16-.03-.12a.09.09 0 0 0-.04-.05 2.3 2.3 0 0 1-.85-.69c-.23-.3-.37-.64-.4-1.03-.04-.37.05-.71.24-1.02a.13.13 0 0 1 .05-.05 2.83 2.83 0 0 0-.02.11c-.04.2-.06.4-.06.6 0 .3.06.58.2.84.18.34.45.55.81.64.46.12.88.02 1.28-.24.07-.04.14-.1.2-.15l.1-.08V9.7l.02-.02a.8.8 0 0 1-.38-.94 5.05 5.05 0 0 1 .06.15c.08.2.24.3.43.33l.3.02a5.6 5.6 0 0 1 .53.03.3.3 0 0 1 .12.05l.02.02.02.03v.02a.11.11 0 0 1-.04.02l-.23.01-.12.01h-.03l.01.03.04.02c.3.2.62.35.97.46.19.06.39.1.59.08a.9.9 0 0 0 .2-.06h.01c.02-.01.04-.04.04-.06v-.14c-.12.07-.23.11-.36.09l.02-.02a.61.61 0 0 0 .06-.03l.1-.07a.2.2 0 0 0 .06-.17v-.04c0-.16 0-.33-.06-.48a1.13 1.13 0 0 0-.27-.41l-.02-.01h-.02l.05.4h-.01a9.19 9.19 0 0 0-.1-.16l-.06-.11-.11-.2a.2.2 0 0 0-.06-.07l-1.08-.77-.42-.3a.22.22 0 0 1-.06-.06l.37.05a.82.82 0 0 0-.26-.46Z" fill="url(#gcfchohwj)"/><path d="M13.28 10.6a2.4 2.4 0 0 0-1 0c.24.24.8.24 1 0Z" fill="url(#hcfchohwj)"/><path d="M11.32 10.06c0 .15.1.3.26.37-.1-.27-.1-.55-.07-.83a.91.91 0 0 0-.19.46Z" fill="url(#icfchohwj)"/><path d="M11.75 10c-.03 0-.06-.01-.06-.05l.02-.23.01-.1.03.02h.02a4.27 4.27 0 0 0 1.3.58 7.87 7.87 0 0 1 .38.04c.02 0 .04 0 .04.04s0 .06-.05.05a4.2 4.2 0 0 0-1.57.05c-.03 0-.06 0-.07-.04l-.02-.04-.05-.12c-.02-.06-.02-.07.04-.07a15.28 15.28 0 0 1 .38-.04 4.83 4.83 0 0 0-.4-.1Z" fill="#fff"/><path d="M9.57 7.23c.06-.08.21-.22.36-.22.12 0 .36.2.65.43l.13.11c.05.04.13-.06.15-.3.23.3.12.53.12.53l.4.35-.73-.35c-.1.04-.3.07-.47.02-.17-.06-.22-.2-.27-.35v-.02l-.08-.2h-.26Zm.45-.03c0 .16.08.47.25.47h.25a1.2 1.2 0 0 0-.5-.47ZM11.96 8.3c.2-.05.4.32.46.51-.09-.08-.28-.24-.33-.24-.05 0-.08.06-.09.09-.15-.05-.2-.31-.04-.36Z"/><path d="M10.27 7.67c-.17 0-.25-.31-.25-.47.25.1.44.36.5.47h-.25Z" fill="url(#jcfchohwj)"/><defs><linearGradient id="acfchohwj" x1="10.61" y1="5.53" x2="7" y2="5.21" gradientUnits="userSpaceOnUse"><stop stop-color="#623F03"/><stop offset="1" stop-color="#240E00"/></linearGradient><linearGradient id="bcfchohwj" x1="9.13" y1="6.08" x2="4.35" y2="8.98" gradientUnits="userSpaceOnUse"><stop stop-color="#573500"/><stop offset="1" stop-color="#240E00"/></linearGradient><linearGradient id="ccfchohwj" x1="7.27" y1="7.69" x2="5.16" y2="9.73" gradientUnits="userSpaceOnUse"><stop stop-color="#D7951D"/><stop offset="1" stop-color="#BB6628"/></linearGradient><linearGradient id="dcfchohwj" x1="8.94" y1="5.88" x2="5.96" y2="5.88" gradientUnits="userSpaceOnUse"><stop stop-color="#E9B516"/><stop offset="1" stop-color="#BB6628"/></linearGradient><linearGradient id="ecfchohwj" x1="8.56" y1="5.88" x2="6.82" y2="6.39" gradientUnits="userSpaceOnUse"><stop stop-color="#5C3800"/><stop offset="1" stop-color="#240E00"/></linearGradient><linearGradient id="fcfchohwj" x1="11.77" y1="4.45" x2="9.33" y2="12.26" gradientUnits="userSpaceOnUse"><stop offset=".02" stop-color="#F0C113"/><stop offset=".45" stop-color="#F3C712"/></linearGradient><linearGradient id="gcfchohwj" x1="11.77" y1="4.45" x2="9.33" y2="12.26" gradientUnits="userSpaceOnUse"><stop offset=".02" stop-color="#F0C113"/><stop offset=".45" stop-color="#F3C712"/><stop offset="1" stop-color="#C97D22"/></linearGradient><linearGradient id="hcfchohwj" x1="11.77" y1="4.45" x2="9.33" y2="12.26" gradientUnits="userSpaceOnUse"><stop offset=".45" stop-color="#F3C712"/><stop offset="1" stop-color="#C97D22"/></linearGradient><linearGradient id="icfchohwj" x1="11.77" y1="4.45" x2="9.33" y2="12.26" gradientUnits="userSpaceOnUse"><stop offset=".45" stop-color="#F3C712"/><stop offset="1" stop-color="#C97D22"/></linearGradient><linearGradient id="jcfchohwj" x1="10.04" y1="7.31" x2="10.56" y2="7.65" gradientUnits="userSpaceOnUse"><stop stop-color="#D08B1F"/><stop offset=".5" stop-color="#F0C113"/><stop offset="1" stop-color="#D8981D"/></linearGradient></defs></svg>