<!-- by TradingView --><svg width="18" height="18" viewBox="0 0 18 18" xmlns="http://www.w3.org/2000/svg"><path fill="url(#a)" d="M0 0h18v18H0z"/><path fill-rule="evenodd" d="M9 13.12a4.12 4.12 0 1 0-3.95-5.3h.61a3.53 3.53 0 0 1 6.03-1.1l-1.14.14a2.65 2.65 0 1 0 .3 4.03l1.05.13a3.53 3.53 0 0 1-6.24-.84h-.61A4.12 4.12 0 0 0 9 13.12ZM5.46 9c0 .1 0 .2.02.3H4a5 5 0 1 0 0-.6h1.47V9Z" fill="#fff"/><defs><linearGradient id="a" x1="3.35" y1="3.12" x2="21.9" y2="24.43" gradientUnits="userSpaceOnUse"><stop stop-color="#1A1E21"/><stop offset="1" stop-color="#06060A"/></linearGradient></defs></svg>