<!-- by TradingView --><svg width="18" height="18" viewBox="0 0 18 18" xmlns="http://www.w3.org/2000/svg"><path fill="url(#a)" d="M0 0h18v18H0z"/><path d="M12.14 4.9a.38.38 0 0 1-.04.09.08.08 0 0 1-.1.02l-.4-.22c-.02-.01-.03 0-.04.01l-.2.46c-.08.1-.2.21-.36.32a2.5 2.5 0 0 1-.27.1.18.18 0 0 1-.11 0 .24.24 0 0 1-.1-.07.85.85 0 0 0-.26.07c-.07-.01-.12-.03-.15-.05-.02-.02-.02-.04 0-.05.16-.14.33-.24.53-.31.09.02.23.07.44.16.05.02.08 0 .08-.05l.26-.58a.09.09 0 0 0 .03-.04v-.03l-.02-.03a4.93 4.93 0 0 0-5.78 1.11c-.03 0-.08-.04-.15-.14a5.14 5.14 0 0 1 6.64-.78Z" fill="#D2B278"/><path d="M11.42 4.8a4.78 4.78 0 0 0-5.76 1.11.05.05 0 0 1-.05-.03v-.02a4.93 4.93 0 0 1 5.84-1.13v.03l-.03.04Z" fill="#010101"/><path d="m11.42 4.8-.26.58a5.28 5.28 0 0 0-1.67-.43h-.25a.96.96 0 0 0-.61-.16c-.6.02-1.15.28-1.4.8a.08.08 0 0 1-.05.04l-.16.06a3.44 3.44 0 0 0-.8.73v.04c.05.06.09.12.12.19a1 1 0 0 0 .17.16.4.4 0 0 1 .13.2c-.17.1-.18.29-.04.54.02.02 0 .04-.02.04h-.03a5.25 5.25 0 0 1-.98-1.06l-.4-.44c-.24-.33-.5-.65-.78-.95A.2.2 0 0 1 4.34 5a.73.73 0 0 1 .32-.33l.84 1c.07.09.12.13.15.13-.03.01-.04.03-.04.05a.05.05 0 0 0 .03.05h.02c.02 0 .04 0 .05-.03a4.78 4.78 0 0 1 5.71-1.08Z" fill="#A84204"/><path d="M4.66 4.68a.73.73 0 0 0-.32.33c-.05 0-.1 0-.15-.05a.08.08 0 0 1-.03-.06.08.08 0 0 1 .03-.07l.12-.09.01-.01a.03.03 0 0 0 0-.04H4.3c-.1 0-.15-.06-.18-.17 0-.02 0-.04.03-.05.03-.02.04-.04.05-.06a.12.12 0 0 1 .07-.08.1.1 0 0 1 .06 0 .1.1 0 0 1 .05.02l.28.33Z" fill="#798282"/><path d="M4.27 4.54c.05.04.1.06.1.05.01-.02-.01-.06-.06-.1l-.1-.04c-.02.01.01.06.06.1Z" fill="#010101"/><path d="M12.14 4.9c.02.03.04.04.07.02-.07.13-.06.23.04.3a4.67 4.67 0 0 1 1.7 4.96.38.38 0 0 0-.31-.2c-.33-.02-.6-.13-.8-.33-.02-.02-.04-.02-.06 0-.15.09-.28.2-.37.35 0-.03-.02-.04-.05-.05.06-.07.18-.19.36-.35a.54.54 0 0 1 .44-.15c.03 0 .04 0 .05-.03a.95.95 0 0 0 .04-.45 2.7 2.7 0 0 0-.23-1.36c.03-.06.01-.12-.06-.16a.07.07 0 0 0-.07 0c-.16.06-.29.01-.36-.16a2.4 2.4 0 0 1-.07-.18c.02-.08.07-.1.16-.1.06.03.14.03.26.01l.18-.03c.03.09.01.2-.05.32a.07.07 0 0 0 0 .06c.33.68.44 1.4.32 2.16 0 .02 0 .04.02.06.11.13.26.25.45.35.06.04.1.01.11-.07l.07-.48c.03-.16.03-.32.03-.48a4.6 4.6 0 0 0-1.8-3.6.05.05 0 0 0-.05.03c-.04.14-.08.42-.2.52a.2.2 0 0 0-.06 0c-.1-.02-.17 0-.21.08l-.07.05c-.22-.09-.35-.03-.4.17a.2.2 0 0 0-.05.02c-.04-.05-.08-.07-.12-.06-.03.01-.06.04-.09.08l-.18.26c-.04-.02-.06-.06-.04-.12a.4.4 0 0 1 .15-.18.08.08 0 0 0 .03-.06c0-.13.03-.24.12-.34a.1.1 0 0 0 .02-.06c0-.08-.01-.12-.06-.12.16-.1.28-.21.35-.32.04-.06.11-.21.21-.46 0-.02.02-.02.03-.01L12 5A.08.08 0 0 0 12.1 5a.37.37 0 0 0 .04-.1Z" fill="#372923"/><path d="M9.24 4.95c-.75.04-1.16.67-1.1 1.35l-.01.03-.02.02v.03c.43.25 1.49.73 1.96.46a.06.06 0 0 1 .06 0 .1.1 0 0 1 .05.04c.01.04.01.06 0 .07-.1.09-.08.18-.14.26-.13.13-.42.12-.6.08a9.32 9.32 0 0 1-1.2-.44.87.87 0 0 0-.43-.1c-.2.01-.27.1-.24.26.02.1-.01.12-.08.04-.18-.2-.3-.43-.34-.7-.02-.1-.01-.15 0-.17a.6.6 0 0 1 .35.1 5.3 5.3 0 0 0 1.77.86l.02-.02v-.03a7.84 7.84 0 0 1-2.04-1.03.5.5 0 0 1-.19-.26.18.18 0 0 0-.04-.11l.16-.06a.08.08 0 0 0 .05-.04c.25-.52.8-.78 1.4-.8.24-.01.45.04.61.16Z" fill="#88B5B6"/><path d="M12.03 5.13a.7.7 0 0 1-.18.34.47.47 0 0 1-.17.18.06.06 0 0 1-.06 0l-.2-.1c-.03-.03-.04-.05-.03-.09l.18-.53c.02-.04.05-.05.09-.03l.37.23Z" fill="#A84204"/><path d="M14.13 10.35a.36.36 0 0 1-.19-.17 4.6 4.6 0 0 0-1.7-4.96c-.09-.07-.1-.17-.03-.3a4.9 4.9 0 0 1 1.92 5.42Z" fill="#D2B278"/><path d="M11.16 5.38c0 .05-.03.07-.08.05a3.94 3.94 0 0 0-.57-.21 3.46 3.46 0 0 0-.99-.2c-.05 0-.06.02-.01.05l.2.15c.23.36.45.67.45 1.12 0 .2-.05.33.06.53l-.04.01a.1.1 0 0 0-.05-.04.06.06 0 0 0-.06 0c-.47.27-1.53-.2-1.96-.46v-.03l.02-.02V6.3c-.05-.68.36-1.31 1.11-1.35h.25l.24.01c.5.07.97.21 1.43.42Z" fill="#010101"/><path d="m10.5 5.22-.41.26a.07.07 0 0 1-.07.01c-.09-.02-.15-.07-.18-.13a.34.34 0 0 0-.13-.14l-.2-.15c-.05-.03-.04-.05.01-.05.32.02.64.08.99.2Z" fill="#DBD6CB"/><path d="M11.85 5.47a.7.7 0 0 0 .18-.34c.1.06.1.16-.02.3-.09.09-.14.1-.16.04Z" fill="#D2B278"/><path d="M10.5 5.22c.03.02.08.04.14.05-.2.07-.37.17-.53.3-.02.02-.02.04 0 .06.03.02.08.04.15.05.18.05.27.03.26-.07.03.03.06.06.1.07h.11l.27-.1c.05 0 .07.04.06.12a.1.1 0 0 1-.02.06c-.09.1-.13.2-.12.34a.08.08 0 0 1-.03.06.4.4 0 0 0-.15.18c-.02.06 0 .1.04.12l-.34.62c-.16 0-.24-.07-.22-.2-.1-.2-.05-.34-.05-.54-.01-.45-.23-.76-.46-1.12.05.03.1.07.13.14.03.06.1.1.18.13h.07l.42-.27Z" fill="#CDA76B"/><path d="M13.06 6.99c-.22-.13-.4-.2-.53-.46a1.73 1.73 0 0 0-.17-.19.15.15 0 0 1-.04-.07c-.06-.2-.3-.17-.36-.41.12-.1.16-.38.2-.52a.05.05 0 0 1 .08-.03 4.6 4.6 0 0 1 1.67 4.56c0 .08-.05.1-.11.07-.19-.1-.34-.22-.45-.35a.08.08 0 0 1-.02-.06c.12-.76.01-1.48-.31-2.16a.07.07 0 0 1 0-.06.48.48 0 0 0 .04-.32Z" fill="#A84204"/><path d="M8.81 5.51c.12.08.38.3.43.45 0 .03 0 .04-.03.04-.25-.01-.47-.11-.67-.3-.07-.06-.07-.13.02-.18l.04-.02a.21.21 0 0 1 .21.01Z" fill="#FEFEFE"/><path d="M11.58 5.74c.01 0 .02 0 .02.02v.02a.18.18 0 0 1-.1.08.1.1 0 0 1-.08 0h-.01a.1.1 0 0 1-.05-.08c0-.04 0-.08.03-.11v-.02a.03.03 0 0 1 .03 0h.01l.15.09Z" fill="#D2B278"/><path d="M7.02 5.7c.03.02.04.06.04.1-.06.03-.05.11.02.26a1.45 1.45 0 0 0 .4 1.08c.02.02.04.03.07.03.07.01.13.03.19.06 0 .1.04.2.08.3v.06l-.12.2-.02.06-.03.25c0 .03-.02.04-.04.02-.11-.08-.1-.22-.2-.3a2.57 2.57 0 0 1-.4-.41.1.1 0 0 1 0-.12c.04-.06.09-.1.14-.15l.03-.04c0-.02 0-.04-.02-.05a.06.06 0 0 0-.06-.02.7.7 0 0 0-.2.12l-.02-.02v-.02A.33.33 0 0 0 7 6.86c0-.03 0-.04-.03-.03-.11.04-.16.1-.14.17.01.03 0 .05-.03.06-.04.01-.1 0-.16-.04a.4.4 0 0 0-.13-.21 1 1 0 0 1-.17-.16 2.66 2.66 0 0 0-.13-.23 3.44 3.44 0 0 1 .8-.73Z" fill="#CDA76B"/><path d="M7.99 6.34a.01.01 0 0 1-.02 0 15.46 15.46 0 0 1-.7-.5h.01a15.47 15.47 0 0 1 .73.44.01.01 0 0 1 .01 0 .01.01 0 0 1 0 .01l-.03.05Z" fill="#313232"/><path d="M7.06 5.8c.05.12.11.2.2.26A7.84 7.84 0 0 0 9.3 7.1l-.03.03h-.02a5.3 5.3 0 0 1-1.75-.86.6.6 0 0 0-.35-.1c-.01-.08-.04-.12-.07-.12-.07-.15-.08-.23-.02-.26Z" fill="#696868"/><path d="M11.9 5.87c.01.05-.02.09-.09.1-.07.02-.1.01-.12-.03.04-.08.1-.1.21-.07Z" fill="#798282"/><path d="M11.96 5.86c.06.24.3.2.36.41 0 .03.02.05.04.07l.17.2c.13.25.3.32.53.45l-.18.03-.17-.12-.1-.07a.76.76 0 0 1-.53-.3c-.04-.06-.07-.05-.1.02-.04.16-.18.2-.31.1a.28.28 0 0 0-.08-.04l-.01-.03v-.02a.02.02 0 0 1 .04 0l.06.05a.1.1 0 0 0 .07.02c.06 0 .1-.06.11-.15a.07.07 0 0 0-.03-.07.08.08 0 0 0-.07 0l-.08.02c-.03.01-.04 0-.04-.02a.1.1 0 0 1 .06-.08c.03-.02.03-.04.01-.07.15-.07.29-.05.4.05a.06.06 0 0 0 .08-.02l.01-.03c0-.05-.04-.09-.1-.1a2 2 0 0 1-.48-.17l.07-.05c.01.04.05.05.12.04.07-.02.1-.06.09-.11a.2.2 0 0 1 .06-.01Z" fill="#583F2C"/><path d="M11.62 5.99a2 2 0 0 0 .47.17c.07.01.11.05.11.1v.03l-.03.02a.06.06 0 0 1-.06 0c-.11-.1-.25-.12-.4-.05-.17.02-.36.08-.48-.1.04-.2.17-.26.39-.17Z" fill="#FEFEFE"/><path d="M5.85 6.17c.07.06.14.1.15.08.01-.01-.04-.07-.1-.13-.08-.06-.14-.1-.16-.08 0 .02.04.08.1.13Z" fill="#583F2C"/><path d="M7.15 6.18c-.01.02-.02.08 0 .16.04.28.16.52.34.71.07.08.1.07.08-.04-.03-.16.05-.25.24-.27.1-.01.25.02.43.1.38.18.78.33 1.2.45a.7.7 0 0 1-.34.11c-.14 0-.26.03-.35.06l-.65.03a.1.1 0 0 1-.07-.02l-.2-.15-.1-.09a.53.53 0 0 0-.18-.06.12.12 0 0 1-.06-.03 1.45 1.45 0 0 1-.4-1.09c.02.01.05.05.06.13Z" fill="#3C5151"/><path d="M6.55 7.59c.04 0 .07 0 .1.02.04.04.02.14.08.2.3.33.52.55.72.9l.25.44.22.32c.07.11.13.24.18.38.03.08.11.12.24.11.28-.02.53-.11.75-.28l.01.07c-.17.11-.3.18-.37.2-.4.07-.76.17-1.11.29a.21.21 0 0 1-.1 0c-.03 0-.02-.02.02-.04a.88.88 0 0 1 .11-.03c.1-.02.19-.07.27-.16v-.06a.13.13 0 0 0-.14-.01l-.3.14c-.09.06-.16.08-.21.05a2.39 2.39 0 0 0 .32-.25c.18-.17.15-.24-.1-.2-.03 0-.07.03-.13.09-.07.06-.14.06-.2-.01-.2-.21-.41-.46-.62-.75-.06-.08-.14-.12-.22-.05l-.05-.1a.8.8 0 0 0 .12-.08c.1-.1.22-.14.35-.2.03-.02.06.01.1.1a.2.2 0 0 0 .1.1c.04 0 .07.03.09.09a.07.07 0 0 0 .04.04.08.08 0 0 0 .07 0c.07-.05.1-.1.1-.18a.3.3 0 0 0-.07-.17 24.71 24.71 0 0 0-.73-.86c-.04-.01-.04 0-.02.03.04.03.1.07.1.14 0 .06-.04.1-.1.13a.05.05 0 0 1-.06-.02c-.02-.03-.02-.06 0-.1.03-.08 0-.13-.1-.15-.03 0-.04-.02-.03-.05v-.04c.02-.02 0-.04-.02-.04-.06-.01-.12.03-.17.1-.11-.04-.1-.12.04-.22a.06.06 0 0 1 .05-.01h.05c.03-.01.04-.03.02-.05-.14-.2-.33-.37-.45-.59a1.1 1.1 0 0 0-.2-.24c-.12-.1-.2-.27-.36-.37l-.06-.1c.01.01.03 0 .04-.03a11.28 11.28 0 0 1 .61.7c.23.29.49.56.77.8Z" fill="#38423F"/><path d="M11.17 6.18a.79.79 0 0 0-.23.76l.1.37a5.53 5.53 0 0 1 .03.47l-.03.03c-.15.1-.19.27-.1.5.04.1.07.1.08-.02l.05-.27c.03-.12.05-.12.05 0v.5c0 .06.02.16.08.32l-.04.58c0 .18-.06.2-.14.03-.06-.13-.2-.25-.44-.37-.05-.03-.06-.02-.02.03l.15.11c.26.19.35.45.27.8-.04.19-.1.36-.2.51a1.03 1.03 0 0 0-.54.15v.01h.01c.2-.07.4-.1.6-.1.04 0 .1 0 .19-.02.15-.04.33.02.48-.03a.92.92 0 0 0 .4-.26.09.09 0 0 1 .06-.02.09.09 0 0 1 .07.03l.58.77c.02.02.02.04-.01.04l-.22.03h-.03l-.02-.02c-.2-.28-.38-.53-.69-.5-.22.03-.44.1-.65.24a.07.07 0 0 1-.04 0h-.26a.13.13 0 0 0-.11.06.12.12 0 0 0-.01.12l.02.04-.02.04-.65.21a1.82 1.82 0 0 1 .15-1.62.07.07 0 0 0-.02-.06l-.03-.01c-.26-.07-.76.08-.64.44l.03.15c0 .03 0 .04-.03.06-.15.12-.35.24-.2.46a.1.1 0 0 0 .05.05.8.8 0 0 1 .36.23c-.15.1-.26.15-.33.18a3.1 3.1 0 0 1-.4.07c-.17.03-.34-.01-.51 0a.7.7 0 0 1-.27-.29.56.56 0 0 0-.15-.2c-.29-.2-.58.1-.61.4l-.35.26c-.26.19-.6.27-.86.38a.33.33 0 0 0-.14.11c-.34.47-.7 1.12-1.34 1.25l.1-.28c.01-.02.03-.04.06-.04.13-.02.23.02.33-.09.18-.17.32-.36.43-.56.05-.04.07-.08.07-.13l.27-.43a.1.1 0 0 1 .13-.04c.12.04.24.03.36-.02.1-.04.18-.12.24-.22l.24-.37.1-.17.3-.32.34-.27c.35-.12.72-.22 1.1-.3.08-.01.21-.08.38-.2.2-.1.32-.2.35-.3.06-.2.14-.38.22-.55a.37.37 0 0 1 .2-.18c.21-.08.36-.15.45-.2.34-.17.43-.5.2-.81a15.43 15.43 0 0 1-.2-.3.1.1 0 0 1 0-.04l.12-.28.34-.62a13.45 13.45 0 0 1 .27-.34c.04 0 .08 0 .12.06Z" fill="#FEFEFE"/><path d="m5.13 6.13.06.09a.38.38 0 0 0 0 .17l-.23.46A4.48 4.48 0 0 0 4.46 9c0 .05-.03.08-.1.1-.04 0-.06 0-.06-.03-.03-.3-.03-.6 0-.92.12-.73.4-1.4.83-2.01Z" fill="#D2B278"/><path d="M11.23 6.16c.12.18.3.12.48.1.02.03.02.05-.01.07a.1.1 0 0 0-.06.08c0 .03 0 .03.04.02l.08-.03a.08.08 0 0 1 .07.01l.03.03v.04c0 .1-.05.14-.1.15a.1.1 0 0 1-.08-.02.29.29 0 0 1-.06-.05.02.02 0 0 0-.03 0l-.01.02v.04c0 .1-.01.2-.05.28l-.14.2-.12.06c-.11.04-.1.07.01.09.16.02.3.09.4.2.1.36.32.45.65.3a.1.1 0 0 0 .05-.05.73.73 0 0 0 .07-.53v-.06l.08.18c.07.17.2.22.36.15h.07c.07.05.1.1.06.17l-.35.32a.1.1 0 0 1-.06.03l-.67.09c-.03 0-.05 0-.07-.03a.95.95 0 0 1-.25-.39c-.06-.18-.11-.18-.14 0-.03.11-.03.25 0 .4.03.3.1.6.19.89l.02.24a.2.2 0 0 1-.09.1l-.28-.25c0-.05-.05-.1-.12-.17a1.23 1.23 0 0 1-.09-.31v-.5c0-.13 0-.13-.04-.01l-.05.27c-.01.12-.04.13-.08.01-.09-.22-.05-.38.1-.5a.08.08 0 0 0 .04-.06 5.58 5.58 0 0 0-.14-.8.79.79 0 0 1 .23-.76.2.2 0 0 1 .06-.02Z" fill="#313232"/><path d="M6.04 7.7c.11.14.22.2.33.19-.03.03-.03.06 0 .09l.02.02h.03c.06-.02.1-.07.1-.13 0-.07-.06-.1-.1-.14-.02-.03-.02-.04.02-.03a24.73 24.73 0 0 1 .73.86c.04.05.06.11.07.17 0 .07-.03.13-.1.17a.07.07 0 0 1-.07.01.08.08 0 0 1-.04-.05c-.02-.05-.05-.08-.08-.09h.13a.08.08 0 0 0 .05-.06.08.08 0 0 0-.01-.07l-.15-.2a.04.04 0 0 0-.04-.01.04.04 0 0 0-.04.03l-.05.22c-.04-.09-.07-.12-.1-.1.06-.1.09-.2.07-.3a.09.09 0 0 0-.03-.05.45.45 0 0 0-.35-.08.07.07 0 0 0-.05.03c-.02.02-.01.04.01.06a.6.6 0 0 1-.59.2h-.05l-.02.07c-.04 0-.05.02-.03.08.02.07.1.14.14.19.06.07.05.1-.04.07l-.5-.16a.07.07 0 0 1-.05-.08l.1-.52.4.18-.03.03.02.04c0 .02.02.02.03.03a.1.1 0 0 0 .09 0l.24-.09a.1.1 0 0 0 .05-.04l.12-.2c.01-.02 0-.03-.01-.03h-.02c-.08-.07-.17-.08-.28-.02l-.02-.01.01-.03c.06-.05.08-.1.06-.17a.07.07 0 0 0-.05-.04l-.06-.02a.07.07 0 0 1-.06-.05c-.01-.04-.05-.07-.11-.07a.1.1 0 0 1-.05-.02.14.14 0 0 1-.04-.04l-.01-.02c-.01-.03 0-.04.03-.04h.23a.06.06 0 0 0 .05-.03.06.06 0 0 0 0-.06.82.82 0 0 0-.18-.3c.01-.04-.01-.09-.06-.14l-.42-.48c-.02-.06-.05-.1-.09-.08a.38.38 0 0 1 0-.17c.16.1.24.26.36.37.09.09.15.17.2.24.12.22.3.4.45.59.02.02.01.04-.02.04h-.05a.06.06 0 0 0-.05.02c-.14.1-.15.17-.04.22Z" fill="#857A6D"/><path d="M5.28 6.47c-.3.47-.51.97-.62 1.51-.04.24-.08.55-.11.93 0 .06.02.09.07.09h.46a.08.08 0 0 0 .05-.03.08.08 0 0 0 .03-.05 3.48 3.48 0 0 1 .5-1.9l-.02-.04c0-.02 0-.03.03-.03h.03c.05.05.07.1.06.14-.17.18-.22.45-.31.68l-.1.32-.1.52a.07.07 0 0 0 .05.08l.5.16c.09.03.1 0 .04-.07-.04-.05-.12-.12-.14-.19-.02-.06-.01-.09.03-.08l.28.23a.04.04 0 0 0 .04.01h.01l.41-.47c.05-.04.1-.04.18 0a.05.05 0 0 1 .02.05.05.05 0 0 1-.02.04c-.17.1-.31.24-.43.42-.01.02 0 .05.05.08l.05.1c-.01.04 0 .07.02.1l.2.27c0 .01-.02.03-.04.03l-.16-.05c-.18-.05-.23-.22-.41-.27a44.28 44.28 0 0 1-.64-.2.07.07 0 0 0-.05.03v.06c.01.07.05.1.11.13.4.11.7.36.92.73l.14.37a8.57 8.57 0 0 1 .8.3h.07v.04l-.3.32c-.02-.02-.03-.04-.02-.07 0-.02 0-.04.02-.06a.15.15 0 0 0 .05-.1c0-.02 0-.03-.02-.04l-.55-.22c-.04-.02-.07 0-.07.05v.3c0 .03 0 .05.02.08l.05.05c.17.1.15.26.42.18l-.24.37a.43.43 0 0 1-.03-.15c0-.03 0-.04-.03-.04h-.1c-.03 0-.04-.01-.04-.03l.02-.1a.09.09 0 0 0 .02-.06c0-.02 0-.03-.02-.05l-.05-.07a.04.04 0 0 0-.03-.01h-.02l-.01.02-.18.33a.12.12 0 0 0-.1 0 1.65 1.65 0 0 0 .2-.95.05.05 0 0 0-.03-.03h-.02a.67.67 0 0 0-.26.1.06.06 0 0 0-.03.05.05.05 0 0 0 .02.05c.06.04.1.08.13.13.01.02.01.04 0 .07-.04.2-.12.41-.25.61a.27.27 0 0 1-.21.13c-.04 0-.05 0-.05-.04v-.74c0-.03 0-.05.03-.06.17-.13.16-.2.18-.42 0-.1.02-.17.06-.23L6 9.7v-.06l-.16-.25-.34-.2a1.04 1.04 0 0 0-.38-.14c-.25-.03-.5 0-.74.08 0 .02-.01.01-.02-.02V9.1c.07-.02.1-.05.1-.1-.01-.75.15-1.46.5-2.14l.23-.46c.04-.01.07.02.1.08Z" fill="#2A2014"/><path d="M7.5 6.42a.02.02 0 0 1 .01 0 .02.02 0 0 1 .02 0c.02 0 .04.03.05.07.01.02 0 .04-.02.05a.26.26 0 0 1-.09.02c-.02 0-.03 0-.02-.02l.05-.12Z" fill="#3C5151"/><path d="M5.7 6.95h-.03c-.02 0-.03 0-.03.03l.01.04v.03a3.48 3.48 0 0 0-.5 1.9.08.08 0 0 1-.04.04h-.49c-.05 0-.08-.02-.07-.08.03-.38.07-.69.11-.93.1-.54.32-1.04.62-1.51l.42.48Z" fill="#A84204"/><path d="m12.7 6.9.02.05c0 .03 0 .04-.03.05l-.07.01c-.09 0-.14.02-.16.1l-.01.06-.19.29c-.08.12-.16.14-.3.08a1.38 1.38 0 0 0-.28-.08.65.65 0 0 0-.4-.21c-.12-.02-.12-.05 0-.1l.1-.05h.03c.14.06.24.05.3-.03a.06.06 0 0 0 0-.06c-.04-.06-.09-.08-.15-.07-.02 0-.03-.02-.03-.04a.62.62 0 0 0 .06-.28l.08.04c.13.1.27.05.32-.1.02-.08.05-.09.1-.03.11.17.29.27.51.3.02 0 .06.03.1.07Z" fill="#FEFEFE"/><path d="M12.56 6.72a.1.1 0 0 1-.04.03h-.06a.17.17 0 0 1-.05-.02.2.2 0 0 1-.05-.04l-.01-.02a.2.2 0 0 1-.04-.05.16.16 0 0 1 0-.06v-.05a.1.1 0 0 1 .03-.04l.22.25Z" fill="#DBD6CB"/><path d="m7.65 6.63-.14.1h-.02l-.01-.02V6.7c.09-.09.2-.12.31-.1.03 0 .03 0 0 .01a.21.21 0 0 1-.08.01.1.1 0 0 0-.06.02ZM7.74 7.23l.1.09c0 .06.05.12.12.16.02.02.02.03.01.06v.04c-.02.02-.01.04 0 .06.1.07.2.12.3.14.02 0 .03 0 .02.02v.01h-.01a.54.54 0 0 1-.23-.04c-.02-.01-.03 0-.03.02l.03.58a.32.32 0 0 1-.03-.12L8 8.24h-.02l-.01.02a60.36 60.36 0 0 1 .07.7c-.01.08 0 .1.05.09l.25.91c-.13 0-.21-.03-.24-.1a1.58 1.58 0 0 0-.18-.39c-.15-.2-.22-.32-.22-.32l-.25-.44c-.2-.35-.42-.57-.72-.9-.06-.06-.04-.16-.08-.2-.03-.02-.06-.02-.1-.02h.03c.03 0 .04-.02.02-.04-.14-.25-.13-.43.04-.53.07.04.12.05.16.04.03-.01.04-.03.03-.06-.02-.07.03-.13.14-.17.02-.01.03 0 .03.03 0 .1-.05.19-.12.25v.02l.01.02h.02a.7.7 0 0 1 .19-.12.07.07 0 0 1 .06.02c.02 0 .02.03.02.05l-.03.04-.14.14a.1.1 0 0 0 0 .13l.24.26c0 .02.06.07.17.15.1.08.08.22.19.3.02.02.04.01.04-.02l.03-.25c0-.02 0-.04.02-.05l.12-.21a.06.06 0 0 0 0-.06.93.93 0 0 1-.08-.3Z" fill="#798282"/><path d="m10.44 7.08-.11.28a.1.1 0 0 0 .01.1l.18.24c.23.3.14.64-.2.82l-.45.2a.37.37 0 0 0-.2.17c-.08.17-.16.36-.22.56-.03.08-.15.18-.35.3l-.01-.07.03-.66c0-.22-.24-.22-.4-.26a.35.35 0 0 0-.22.02c-.15.06-.29.15-.41.27-.05.02-.06 0-.05-.09v-.08a60.36 60.36 0 0 0-.06-.63L8 8.24l.02.01.03.12.13.42c.02.07.07.09.13.06.1-.04.16-.11.28-.12.17 0 .35.02.52.1l.14.03c.03 0 .04.02.03.05-.03.18-.05.35-.04.5 0 .1.04.12.1.04a36.94 36.94 0 0 1 .17-1c.06-.41.17-.75.33-1.03.04-.06.02-.08-.05-.06l-.21.04c-.07-.02-.13-.02-.17 0-.19.09-.41.11-.66.06.1-.03.21-.05.35-.06a.7.7 0 0 0 .34-.1c.18.03.47.04.6-.1.06-.07.05-.16.14-.25.01-.01.01-.03 0-.07h.04c-.02.13.06.2.22.2Z" fill="#313232"/><path d="M11.53 6.9c0 .02 0 .03.03.04l-.15.17c.03 0 .02 0-.02-.01l.14-.2Z" fill="#696868"/><path d="M12.88 7.02a.54.54 0 0 1-.26 0l.07-.02c.03 0 .04-.02.03-.05l-.01-.05.17.12Z" fill="#ACACAD"/><path d="m11.41 7.1.15-.16c.06 0 .11.01.15.07v.06c-.06.08-.16.1-.3.04Z" fill="#372923"/><path d="M5.76 7.09c.08.08.14.18.19.3a.06.06 0 0 1-.01.06.06.06 0 0 1-.05.03h-.23c-.03 0-.04.01-.03.04v.03l.05.03a.1.1 0 0 0 .05.02c.06 0 .1.03.11.07.01.03.03.05.06.06l.06.01c.02 0 .04.02.05.04.02.06 0 .12-.06.17v.04h.01c.1-.05.2-.05.28.02 0 .03-.02.05-.04.07-.02.01-.04.02-.07.01-.08 0-.15 0-.23-.02l-.15-.13a.04.04 0 0 1 0-.06l.02-.06a.1.1 0 0 0-.02-.05.1.1 0 0 0-.04-.03.1.1 0 0 0-.1.01c-.12.1-.17.1-.16.02.09-.23.14-.5.31-.68Z" fill="#D2B278"/><path d="M12.45 7.17c.04.18.02.36-.07.53a.1.1 0 0 1-.05.05c-.33.15-.55.06-.65-.3.1.02.18.05.27.09.15.06.23.04.31-.08l.19-.29Z" fill="#ACACAD"/><path d="M10.17 7.39c.05.14.08.18.04.33-.1.36-.24.65-.4.86-.15.2-.18.18-.1-.05.04-.09.07-.25.08-.48.02-.29.05-.42.18-.67a.11.11 0 0 1 .17-.04c.01 0 .03.03.03.05ZM7.84 7.32l.2.15a.1.1 0 0 0 .06.02l.65-.03c.25.05.47.03.66-.06.04-.02.1-.02.17 0l-.68.37v.02h.01l.46-.16a.04.04 0 0 1 .04 0 .04.04 0 0 1 .01.04c-.12.34-.19.69-.21 1.05 0 .07-.04.11-.1.1a1.1 1.1 0 0 0-.52-.09c-.12 0-.19.08-.28.12-.06.03-.1.01-.13-.06l-.13-.42-.03-.58c0-.02.01-.03.03-.02.08.03.15.05.23.05l.01-.02-.01-.02a.64.64 0 0 1-.3-.14.05.05 0 0 1-.02-.06l.01-.04c.01-.03 0-.04-.01-.06-.07-.04-.11-.1-.12-.16Z" fill="#88B5B6"/><path d="M9.1 8.83c.07 0 .1-.04.1-.11a4.06 4.06 0 0 1 .22-1.06v-.02a.04.04 0 0 0-.05-.01l-.46.16H8.9l.01-.02.68-.37.21-.04c.07-.02.09 0 .05.06-.16.28-.27.62-.33 1.02a36.94 36.94 0 0 0-.17 1.01c-.06.08-.1.07-.1-.03 0-.16 0-.33.04-.51 0-.03 0-.05-.03-.05l-.14-.03Z" fill="#798282"/><path d="M13.02 7.61c.2.42.27.87.23 1.36-.2-.06-.33-.1-.42-.09l-1.16.04c-.1-.3-.16-.59-.2-.89-.02-.15-.02-.29 0-.4.04-.18.09-.18.15 0 .05.16.14.29.25.4l.07.02.67-.1a.1.1 0 0 0 .06-.02l.35-.32Z" fill="#CDA76B"/><path d="M5.9 8.07c.16.03.11.1-.15.2l-.4-.18.1-.32c-.01.08.04.07.15-.02a.1.1 0 0 1 .1-.01.1.1 0 0 1 .05.03.1.1 0 0 1 .02.05l-.03.06a.04.04 0 0 0 0 .06l.16.13Z" fill="#696868"/><path d="M5.75 8.27c.26-.1.31-.17.15-.2l.23.02.07-.01A.08.08 0 0 0 6.24 8h.02c.02 0 .02 0 .01.02l-.12.21a.1.1 0 0 1-.05.04l-.24.1a.1.1 0 0 1-.09 0 .1.1 0 0 1-.03-.04.09.09 0 0 1-.02-.03c0-.02.01-.03.03-.04Z" fill="#88B5B6"/><path d="M8.72 8.2c.1.04.1.02.04-.05-.07-.07-.17-.09-.3-.05l-.02.01-.08.1c-.03.03-.04.02-.02-.02.1-.32.57-.2.51.11 0 .07-.05.13-.13.17-.13.08-.25.06-.35-.08a.05.05 0 0 1 0-.06c.08-.13.2-.17.35-.12Z" fill="#696868"/><path d="M4.3 8.14c-.03.31-.03.62 0 .92 0 .03.02.04.07.03-.01 0-.02.01-.01.02 0 .03.02.04.02.02l-.02.03c-.01.02 0 .04.03.04.15 0 .3.02.45.05.07 0 .1-.01.15-.05a.13.13 0 0 1 .17 0l.04.05c.03.09.07.18.03.29-.03.07-.08.09-.14.05-.02-.06-.08-.07-.18-.03a.47.47 0 0 0-.13.1 5 5 0 0 1-.45.4.07.07 0 0 0 .02.07l.03.02c.13.03.23 0 .32-.12a.7.7 0 0 0 .41-.22.91.91 0 0 1-.32.56c-.11.04-.22 0-.32.06a.96.96 0 0 0-.16.1.1.1 0 0 1-.13 0 .4.4 0 0 1-.12-.15.1.1 0 0 0-.05-.05c-.15-.07-.19-.18-.12-.33a.09.09 0 0 1 .05-.05c.17-.07.27-.15.3-.24.07-.25-.16-.22-.3-.28a.93.93 0 0 1 .25-.23.05.05 0 0 0 .03-.05c-.03-.34 0-.67.07-1Z" fill="#975E38"/><path d="M6.74 8.58c-.13.06-.24.1-.35.2a.8.8 0 0 1-.12.09c-.05-.03-.06-.06-.05-.08.12-.18.26-.32.43-.42a.05.05 0 0 0 .02-.04.05.05 0 0 0-.02-.05c-.07-.04-.13-.04-.18 0l-.08-.04c-.02-.02-.03-.04-.01-.06a.07.07 0 0 1 .05-.03c.12-.03.24 0 .35.08l.03.06c.02.1 0 .2-.07.29Z" fill="#88B5B6"/><path d="m6.47 8.28-.4.46a.04.04 0 0 1-.03.01.04.04 0 0 1-.03 0l-.28-.24.02-.07h.05a.6.6 0 0 0 .6-.2l.07.04Z" fill="#798282"/><path d="M8.47 8.33c.1.02.17 0 .22-.04a.03.03 0 0 1 .03 0 .03.03 0 0 1 .02.02c.02.05 0 .1-.05.12h-.22a.05.05 0 0 1-.04-.04v-.02c-.01-.04 0-.05.04-.04Z" fill="#88B5B6"/><path d="M6.95 8.78a.2.2 0 0 1-.11-.1l.05-.22.01-.02a.04.04 0 0 1 .07 0l.15.2a.08.08 0 0 1-.04.12.33.33 0 0 1-.13.02Z" fill="#DBD6CB"/><path d="M9.09 9.68c-.22.17-.47.26-.75.28l-.25-.91c.12-.12.26-.21.41-.27a.35.35 0 0 1 .21-.02c.17.04.4.04.4.26.01.22 0 .44-.02.66Z" fill="#88B5B6"/><path d="m6.5 9.37.22.36a.83.83 0 0 1-.45.07 1.5 1.5 0 0 0-.92-.73.14.14 0 0 1-.1-.13 2.58 2.58 0 0 1 0-.06.06.06 0 0 1 .04-.04h.04l.6.2c.18.06.23.23.41.28l.16.05Z" fill="#D2B278"/><path d="M11.32 9c-.05.1-.07.2-.05.34v.32c-.03.25-.08.51-.13.77-.1.07-.22.1-.35.1.08-.15.15-.32.2-.52.07-.34-.02-.6-.28-.79l-.15-.11c-.04-.05-.04-.06.02-.03.23.12.38.24.44.37.08.16.13.15.14-.03l.04-.58c.07.07.11.12.12.17Z" fill="#ACACAD"/><path d="M13.25 8.97c.03.14.01.3-.04.45-.01.03-.02.03-.05.03a.54.54 0 0 0-.44.15c-.18.16-.3.28-.36.35-.1.1-.23.17-.41.22a.11.11 0 0 1-.13-.06 2.4 2.4 0 0 1 .02-.37c.02-.1-.03-.3-.15-.58l-.02-.24 1.16-.04c.09 0 .23.03.42.1Z" fill="#A84204"/><path d="M7.33 10.08c-.12-.01-.2-.07-.24-.17a.06.06 0 0 0-.05-.03c-.2-.04-.38-.38-.5-.54a7 7 0 0 0-.2-.27c-.03-.03-.03-.06-.02-.1.08-.08.16-.04.22.04.21.29.42.54.62.75.06.07.13.07.2 0 .06-.05.1-.08.12-.08.26-.04.3.03.11.2-.04.05-.13.1-.26.2Z" fill="#88B5B6"/><path d="M7.31 8.99a.02.02 0 0 1 .03 0l.01.01c.05.06.08.12.1.17.03.04.03.07.02.08l-.02.02h-.03a.25.25 0 0 1-.05-.04.73.73 0 0 1-.13-.14v-.02a.02.02 0 0 1 0-.02l.07-.06Z" fill="#ACACAD"/><path d="M8.99 9.43a.26.26 0 0 1-.07.1.3.3 0 0 1-.1.06.39.39 0 0 1-.37-.07.34.34 0 0 1-.07-.1.28.28 0 0 1-.04-.1.25.25 0 0 1 .08-.21.3.3 0 0 1 .1-.07.39.39 0 0 1 .37.07l.08.1c.02.03.03.07.03.11L9 9.43Z" fill="#3C5151"/><path d="M11.6 9.26c.11.28.15.57.12.86 0 .02 0 .04-.03.06-.15.1-.34.19-.55.25a13 13 0 0 0 .13-.77v-.32a.58.58 0 0 1 .05-.33l.28.25Z" fill="#696868"/><path d="m5.84 9.39-.23.19-.01.02-.08.23c0 .02-.02.03-.04.01-.15-.1-.27-.1-.37-.03a.7.7 0 0 1-.4.22c0-.17.28-.36.38-.44.06.04.1.02.14-.05.04-.1 0-.2-.03-.29a.13.13 0 0 0-.1-.07.13.13 0 0 0-.1.02c-.05.04-.1.06-.16.05-.15-.03-.3-.05-.45-.05-.03 0-.04-.02-.03-.04l.02-.03c.24-.09.49-.11.74-.08.12.02.24.06.38.14l.34.2Z" fill="#3F9984"/><path d="M8.47 9.42c.05.08.16.1.24.06.07-.05.08-.16.02-.24-.05-.08-.16-.11-.23-.06-.08.05-.09.15-.03.24Z" fill="#68C9D4"/><path d="M7.33 10.08c-.04.01-.06.03-.06.05a1.9 1.9 0 0 1-.55-.4l-.22-.36c.02 0 .03-.01.05-.03.1.16.29.5.5.54.01 0 .03.01.04.04.04.1.12.15.24.16Z" fill="#857A6D"/><path d="M6.07 11.22c-.3.33-.64.52-1.05.56-.33.04-.64-.05-.92-.27.1-.05.13-.13.1-.22a.42.42 0 0 1-.02-.23.54.54 0 0 0 0-.25.12.12 0 0 1 .04-.11.13.13 0 0 1 .12-.03c.11.03.24-.03.34-.03a50.98 50.98 0 0 0 .22.02l.02.04v.2a.02.02 0 0 0 .01.02h.04c.02 0 .02 0 .02-.02v-.2a.05.05 0 0 1 .03-.04.71.71 0 0 0 .22-.16.04.04 0 0 0-.03-.07l-.42-.06a.91.91 0 0 0 .32-.56c.1-.08.22-.06.37.03.02.02.03.01.04 0l.08-.25v-.01l.24-.2.16.26v.06l-.16.18a.4.4 0 0 0-.06.23c-.02.21-.01.29-.18.42a.07.07 0 0 0-.03.06v.74c0 .03.01.04.05.04.09 0 .16-.05.21-.13.13-.2.21-.4.26-.61l-.01-.07a.45.45 0 0 0-.13-.13l-.01-.02a.05.05 0 0 1 .02-.07c.08-.06.17-.1.26-.11a.06.06 0 0 1 .04.01l.01.02.01.02c.03.33-.04.64-.2.94Z" fill="#224546"/><path d="M3.93 9.43c.15.06.38.03.3.28-.02.09-.12.17-.3.24a.09.09 0 0 0-.04.05c-.07.15-.03.26.12.33a.1.1 0 0 1 .05.05.4.4 0 0 0 .12.16.1.1 0 0 0 .13 0c.06-.05.1-.08.16-.1.1-.06.2-.03.32-.07l.42.06.02.01.01.02a.04.04 0 0 1 0 .04.72.72 0 0 1-.22.16.05.05 0 0 0-.03.05v.19c0 .01 0 .02-.02.02h-.04a.02.02 0 0 1-.01-.01V10.7c0-.02 0-.03-.02-.04a.06.06 0 0 0-.04-.02h-.18c-.1 0-.23.06-.34.03a.13.13 0 0 0-.12.03.13.13 0 0 0-.04.11c.02.1.02.14 0 .25-.02.07 0 .15.02.23.03.1 0 .17-.1.22a1.32 1.32 0 0 1-.17-2.08Z" fill="#68C9D4"/><path d="M5.09 9.59c-.1.08-.37.26-.39.44-.09.11-.2.15-.32.12a.07.07 0 0 1-.05-.05.07.07 0 0 1 .02-.07 5 5 0 0 0 .43-.38.47.47 0 0 1 .13-.1c.1-.03.16-.02.18.04Z" fill="#68C9D4"/><path d="M9.9 11.22v.02h-.03l-.26-.22a.8.8 0 0 0-.36-.23.1.1 0 0 1-.06-.05c-.14-.22.06-.34.21-.46a.07.07 0 0 0 .03-.06c0-.04 0-.1-.03-.15-.12-.36.38-.5.64-.44a.07.07 0 0 1 .04.04.07.07 0 0 1 0 .06c-.27.46-.33.96-.18 1.49Z" fill="#313232"/><path d="M13.94 10.18c.04.07.1.13.19.17l.32.44c-.05.1-.15.16-.31.18a.1.1 0 0 1-.07-.01.1.1 0 0 1-.04-.07.72.72 0 0 0-.33-.55c-.1-.07-.24-.09-.33-.12a.14.14 0 0 1-.06-.03c-.24-.22-.55-.42-.8-.12a.22.22 0 0 1-.05.04c-.03.01-.05 0-.05-.02V10c.1-.14.22-.26.37-.36h.06c.2.2.47.32.8.34.12.01.23.08.3.2Z" fill="#FEFEFE"/><path d="M7.27 10.13c.05.03.12.01.21-.05 0 .06.05.1.17.09a.86.86 0 0 0-.1.03c-.05.02-.06.03-.03.04h.1l-.34.27v-.03l-.02-.02h-.1c-.24-.1-.47-.18-.7-.25a.07.07 0 0 1-.05-.04l-.14-.37c.17.02.32 0 .45-.07.15.16.33.3.55.4Z" fill="#CDA76B"/><path d="M14.45 10.79c.12.14 0 .28-.11.4-.1.1-.22.1-.36.06.04-.16 0-.26-.1-.3-.07-.03-.14-.03-.22 0l-.2.1a.5.5 0 0 1-.05-.24l.02-.4a.07.07 0 0 0-.03-.05l-.18-.13c-.02-.02-.04-.02-.06.01l-.22.44c-.1.01-.16.1-.2.23a.06.06 0 0 1-.04.04.06.06 0 0 1-.05 0 .8.8 0 0 1-.26-.35c-.01-.04 0-.07.02-.1l.34-.33a.03.03 0 0 0-.01-.05l-.23-.05c.25-.3.56-.1.8.12.01.02.04.03.06.03.09.03.23.05.33.12.2.13.3.31.33.55a.1.1 0 0 0 .04.07.1.1 0 0 0 .07.01c.16-.02.26-.08.3-.18Z" fill="#583F2C"/><path d="M7.65 10.17c-.12 0-.18-.03-.17-.1l.3-.13c.05-.02.1-.02.13.01l.02.03-.01.03a.42.42 0 0 1-.27.16Z" fill="#D2B278"/><path d="M13.46 11.05a1.18 1.18 0 0 1-.24.4.07.07 0 0 1-.06 0h-.02l-.34-.34a.1.1 0 0 1-.02-.11l.16-.32.22-.44c.02-.03.04-.03.06-.01l.18.13c.02.01.03.03.03.06 0 .12 0 .25-.02.4 0 .06.01.14.05.23Z" fill="#A84204"/><path d="m6.98 10.83-.1.17c-.27.08-.25-.09-.42-.18a.15.15 0 0 1-.05-.05.14.14 0 0 1-.02-.07v-.3c0-.06.03-.08.08-.06l.54.22.02.04c0 .04-.02.07-.05.1a.09.09 0 0 0-.02.06c0 .03 0 .05.02.07Z" fill="#CDA76B"/><path d="M8.15 10.59c-.05.14-.02.27.06.3.09.04.2-.05.26-.19.05-.13.02-.27-.06-.3-.09-.04-.2.05-.26.19Z" fill="#372923"/><path d="M8.07 10.66a.03.03 0 0 1-.01.02.04.04 0 0 1-.03 0h-.02a.13.13 0 0 1-.08-.04.12.12 0 0 1-.03-.1v-.01a.12.12 0 0 1 .06-.08.13.13 0 0 1 .09-.03h.02l.03.02v.03l-.03.19Z" fill="#2A2014"/><path d="M11.74 10.81v.01l-.06.04a3.64 3.64 0 0 1-.4.23h-.05V11.03a2.22 2.22 0 0 1 .36-.3l.06-.03h.01l.08.11Z" fill="#FEFEFE"/><path d="M10.82 11.15c0-.04-.03-.07-.06-.08.14-.1.27-.17.39-.23.1-.05.12-.03.04.06-.08.1-.2.17-.37.25Z" fill="#798282"/><path d="M6.64 11.37a.44.44 0 0 1-.24.22.38.38 0 0 0-.13-.06c-.1-.03-.14-.1-.15-.2l.05-.12.18-.33.01-.01a.04.04 0 0 1 .04 0h.01l.05.07.02.05c0 .02 0 .04-.02.05a.22.22 0 0 0-.02.1c0 .03.01.04.03.04h.1c.03 0 .05.01.04.04l.03.15Z" fill="#CDA76B"/><path d="M10.57 12.16c0-.02-.03-.04-.06-.06-.2 0-.3.06-.3.2-.03.12-.07.23-.12.34 0 .04-.03.05-.05.05-.03 0-.04 0-.04-.03l-.03-.28c.02 0 .03-.01.03-.03a.07.07 0 0 0-.04-.06c-.02 0-.04 0-.06.02-.07-.02-.12-.02-.16.02a.14.14 0 0 0-.04.16c.04.12.07.23.08.34l-.07-.04-.08-.23c0-.03-.02-.03-.04-.02l-.05.05-.02-.04c.06-.06.03-.13-.08-.21-.23-.13-.44-.08-.63.14-.06.07-.1.06-.08-.04 0-.05-.01-.1-.04-.16-.03-.07-.05-.06-.07 0l-.01.05c.02-.04 0-.07-.05-.09a.12.12 0 0 0-.16.09l-.09.35-.25-.04c-.03 0-.04-.02-.03-.05l.16-.38a.05.05 0 0 0-.02-.07.34.34 0 0 0-.35-.02c-.03.01-.05 0-.05-.03a.36.36 0 0 0-.08-.17c-.01-.02-.02-.04 0-.06l.17-.3a.2.2 0 0 1 .17-.1c.2 0 .36 0 .48.06.48.18.82.32 1.32.26.18-.02.39-.1.62-.23a27.65 27.65 0 0 0 .71-.4c.19.01.41-.05.68-.18a.15.15 0 0 0 .05-.04c.16-.21.36.15.47.29.06.08.05.16-.02.23l-.13.12c-.07.07-.12.06-.13-.04-.02-.16-.1-.2-.21-.13l-.43.27a.58.58 0 0 0-.15.16l-.06.03a.68.68 0 0 0-.26.07.15.15 0 0 0-.09.1.15.15 0 0 0 .03.13l.14.18c.03.04.02.08-.03.1l-.54.21a.04.04 0 0 1-.03 0l-.01-.02v-.02l.16-.37c.02-.05 0-.08-.03-.08Z" fill="#AE5707"/><path d="m9.9 11.22.04.1c-.04 0-.06 0-.07.04 0 .03 0 .05.02.07.09.07.18.12.3.14.03 0 .03.02 0 .03-.31.15-.65.18-1 .1-.33-.09-.6-.23-.82-.44.17 0 .34.04.5.01l.41-.07.33-.18.26.22h.03v-.02Z" fill="#696868"/><path d="m13.76 11.2-.26.44c-.1.03-.16.01-.2-.05a.05.05 0 0 1 0-.05l.21-.36.02-.02h.03c.05-.01.12 0 .2.05Z" fill="#D2B278"/><path d="M7.34 11.17c-.01.15.04.26.16.34a.05.05 0 0 1 .02.04.05.05 0 0 1-.02.04c-.2.15-.38.24-.53.27-.27-.26-.48-.23-.62.07a64.9 64.9 0 0 1-.33.67v.05a.13.13 0 0 0-.05-.01.32.32 0 0 0-.22-.1.06.06 0 0 0-.06.04c-.13.22-.28.42-.44.6a.48.48 0 0 1-.27.17c-.14.03-.24-.03-.33-.17.64-.13 1-.78 1.34-1.25a.33.33 0 0 1 .14-.1c.26-.12.6-.2.86-.39.12-.09.24-.17.35-.27Z" fill="#696868"/><path d="M6.12 11.33c0 .1.06.17.15.2.07.02.12.04.13.06a.48.48 0 0 1-.36.01h-.08a.1.1 0 0 0-.05.05l-.27.43a2.2 2.2 0 0 1-.1-.17c-.03-.06-.06-.1-.1-.1.27-.12.5-.28.68-.48Z" fill="#583F2C"/><path d="M12.37 12.66c-.04.05-.1.07-.16.04a.24.24 0 0 1-.13-.12l-.29-.47c-.04-.1-.11-.16-.2-.15a.56.56 0 0 1-.12.01.33.33 0 0 1-.11-.06.08.08 0 0 1 0-.13l.48-.3a.09.09 0 0 1 .08-.02.1.1 0 0 1 .08.1c0 .03-.02.04-.04.05a.14.14 0 0 0-.08.04.06.06 0 0 0 0 .07l.5.94Z" fill="#88B5B6"/><path d="M12.57 12.18a.1.1 0 0 1 0 .05l-.04.04-.1.08c-.04.02-.07.02-.09-.02l-.24-.4a.1.1 0 0 1 .01-.1l.3-.3a.05.05 0 0 1 .04 0h.02l.01.02.09.63Z" fill="#A84204"/><path d="M7.44 11.91c-.07 0-.12.02-.14.05a.95.95 0 0 1-.2.23c-.05-.05-.08-.1-.08-.14 0-.04.03-.07.09-.11.32-.22.5-.37.64-.4.04 0 .05 0 .03.04l-.17.22a.1.1 0 0 1-.06.04c-.09.02-.12.05-.1.07Z" fill="#696868"/><path d="M6.97 11.86a.61.61 0 0 0-.1.3c0 .02.01.04.03.05.05.07.12.06.2-.02a.95.95 0 0 0 .2-.23c.02-.03.07-.05.14-.05l.15.04a.1.1 0 0 1 .07.05.1.1 0 0 1 0 .09l-.4.95a.14.14 0 0 1-.05.06.1.1 0 0 1-.08.01c-.08-.02-.1-.06-.08-.13a2.56 2.56 0 0 1 .2-.46.07.07 0 0 0-.09-.06c-.01 0-.02 0-.03.02-.15.14-.28.35-.47.43-.03 0-.04 0-.04-.03v-.2s0-.02-.02-.03l-.01-.01c-.03-.02-.03-.05-.01-.07.06-.1.1-.21.12-.31 0-.03 0-.04-.03-.05-.03 0-.05 0-.06.03a22.91 22.91 0 0 1-.29.5.13.13 0 0 1-.1.03.13.13 0 0 1-.05-.03l-.15-.1v-.04a25.72 25.72 0 0 1 .33-.67c.14-.3.35-.32.62-.07Z" fill="#88B5B6"/><path d="M13.46 11.78c.05.04.1.1.12.2a.68.68 0 0 1-.21.18.54.54 0 0 1-.26.06c-.1 0-.2.02-.3.04-.15-.04-.22-.14-.22-.31v-.02a.05.05 0 0 1 .04-.03h.02a1 1 0 0 0 .69-.1.18.18 0 0 1 .12-.02Z" fill="#FEFEFE"/><path d="M5.44 11.81c.04 0 .07.04.1.1l.1.17c0 .05-.02.1-.07.13a.94.94 0 0 1-.33-.3v-.05a.27.27 0 0 1 .2-.05Z" fill="#D2B278"/><path d="m11.4 13.01-.24-.47-.23-.45c-.03-.06-.01-.1.05-.13l.15-.05a.12.12 0 0 1 .12.02l.03.04.37.91a.13.13 0 0 1 0 .12.13.13 0 0 1-.1.06c-.08.02-.13 0-.15-.05Z" fill="#88B5B6"/><path d="M13.03 12.41a.52.52 0 0 1-.22-.15c.1-.02.2-.04.3-.04.1 0 .2-.02.26-.06a.67.67 0 0 0 .21-.19c.07.09.1.18.08.28 0 .08-.06.13-.17.15-.16.03-.32.03-.46.01Z" fill="#696868"/><path d="m12.08 12.58-.23.2c-.06.06-.11.05-.15-.03l-.17-.33c-.04-.06-.02-.12.04-.16l.22-.15.29.47Z" fill="#A84204"/><path d="M8.16 13.05c.06-.04.09-.11.1-.2l.05-.17.1-.35a.12.12 0 0 1 .05-.08.13.13 0 0 1 .1 0c.05.01.07.04.05.08-.06.43-.19.78-.4 1.07-.23.02-.5-.03-.53-.3-.01-.13 0-.26.04-.39a.74.74 0 0 0 .03-.16c0-.14.05-.24.09-.35.02-.05.05-.07.1-.07H8c.06 0 .08.03.06.09-.07.17-.12.39-.15.64a.5.5 0 0 0 0 .18c.01.03.02.04.05.05.07.04.14.02.21-.04ZM10.51 12.1l.06.06-.3.62c0 .03 0 .05.02.07l.44.43v.04a.4.4 0 0 1-.26.05l-.26-.36a.05.05 0 0 0-.08.01.57.57 0 0 0 .03.42c-.08.06-.18.07-.3.03l-.08-.53v-.1c0-.12-.04-.23-.09-.35a.14.14 0 0 1 .05-.16c.04-.04.1-.04.16-.02l.07.07.03.28c0 .03.01.04.04.03.02 0 .04-.01.05-.05l.13-.33c.04-.1.14-.16.3-.21Z" fill="#88B5B6"/><path d="M9.44 12.34c-.37-.07-.58.04-.63.33 0 .05.01.1.06.16-.12-.04-.23-.04-.31.01a.03.03 0 0 0 0 .06c.14.03.27.04.4.01l.31.16a.04.04 0 0 1 .02.06l-.01.01c-.12.1-.26.12-.42.05a.1.1 0 0 0-.07 0 .1.1 0 0 0-.06.05.22.22 0 0 0 0 .21c-.2.01-.37 0-.51-.05.2-.29.33-.64.39-1.07l.01-.04c.02-.07.04-.08.07-.01.03.06.04.11.04.16-.01.1.02.11.08.04.2-.22.4-.27.63-.14Z" fill="#81441D"/><path d="m9.97 12.38-.07-.07c.02-.02.04-.03.06-.02a.07.07 0 0 1 .04.06c0 .02-.01.03-.03.03Z" fill="#583F2C"/><path d="M9.44 12.34c.1.08.14.15.08.2-.2.01-.33-.11-.5.06-.07.07-.06.13.03.18l.4.23c.1.15.1.3-.02.45-.25.2-.45.08-.7 0a.22.22 0 0 1 0-.22.1.1 0 0 1 .06-.05.1.1 0 0 1 .07 0c.16.07.3.05.42-.05a.04.04 0 0 0 .01-.04.04.04 0 0 0-.02-.03l-.32-.16-.08-.08c-.05-.06-.07-.11-.06-.16.05-.29.26-.4.63-.33Z" fill="#88B5B6"/><path d="M12.21 12.7c.06.03.12.02.16-.04.08-.01.12-.06.12-.13 0-.03 0-.05.02-.07l.12-.12a.08.08 0 0 1 .1-.01l.05.03a.05.05 0 0 1 0 .08 5.24 5.24 0 0 1-6.2.6v-.03a.1.1 0 0 1 .01-.04.06.06 0 0 1 .06-.02c.21.05.43.2.58.27a5.01 5.01 0 0 0 4.98-.52Z" fill="#D2B278"/><path d="M5.9 12.52c.07 0 .11-.04.11-.08 0-.05-.05-.08-.1-.08-.07 0-.11.04-.11.08 0 .05.05.09.1.08Z" fill="#ACACAD"/><path d="M9.7 12.79c-.2.07-.38.04-.53-.08a.05.05 0 0 1-.02-.06c.01-.04.05-.05.1-.04l.14.03c.06.02.12 0 .15-.05l.05-.05c.02-.01.04 0 .04.02l.08.23Z" fill="#975E38"/><path d="m11.4 13.01-.45.2a.06.06 0 0 1-.06 0 5.9 5.9 0 0 1-.22-.14.4.4 0 0 1-.19-.24c0-.02 0-.04.03-.05l.65-.24.24.47Z" fill="#A84204"/><path d="M8.25 12.85c0 .09-.03.16-.09.2-.12-.04-.17-.1-.16-.17 0-.06.03-.08.1-.07l.15.04Z" fill="#81441D"/><path d="m8.87 12.83.08.08a.93.93 0 0 1-.38-.01h-.02v-.02a.03.03 0 0 1 0-.04c.1-.05.2-.05.32 0Z" fill="#2A2014"/><path d="m6.25 13.33-.06-.05.03-.3.08-.08c.13-.12.16-.1.1.07l-.15.36Z" fill="#313232"/><path d="m9.78 12.94.07.53c-.14.03-.28.03-.42 0 .12-.16.13-.31.02-.46l.33-.07Z" fill="#81441D"/><path d="m10.47 13.37-.3.07a.57.57 0 0 1-.04-.42.05.05 0 0 1 .03-.03.05.05 0 0 1 .05.02l.26.36Z" fill="#583F2C"/><path d="m6.2 13.28.05.05.02.07-.31.56c-.24-.02-.27-.2-.18-.38a.1.1 0 0 1 .05-.04.8.8 0 0 0 .17-.08c.07-.05.1-.14.2-.18Z" fill="#FEFEFE"/><path d="M6.38 13.51c-.03.22-.11.27-.24.44-.04.06-.1.07-.18.01l.31-.56c.06.02.1.06.11.11Z" fill="#696868"/><defs><linearGradient id="a" x1="3.35" y1="3.12" x2="21.9" y2="24.43" gradientUnits="userSpaceOnUse"><stop stop-color="#1A1E21"/><stop offset="1" stop-color="#06060A"/></linearGradient></defs></svg>