<!-- by TradingView --><svg width="18" height="18" viewBox="0 0 18 18" xmlns="http://www.w3.org/2000/svg"><path fill="#5C3D78" d="M0 0h18v18H0z"/><path fill-rule="evenodd" d="M12.85 6.08c-.12.27-.2.26-.24-.03-.08-.5-.33-.89-.75-1.19a4.55 4.55 0 0 0-3.57-.77c-.3.05-.59.17-.88.37-.62.42-.8.96-.53 1.64a.26.26 0 0 1-.06.28L5.61 7.6a.05.05 0 0 1-.08-.03 6.68 6.68 0 0 0-.28-.98c-.24-.68-.92-1.16-1.56-1.43-.32-.13-.7-.2-1.13-.2-.94 0-.5 1.04-.1 1.4a.15.15 0 0 1 0 .2c-.23.27-.23.55-.02.85.04.06.1.1.17.14.1.07.19.13.23.3l.1.32c.15.25.47.32.74.35.04 0 .07.03.08.07l.03.13c0 .07.02.14.06.19.04.05.1.09.16.1l.32.06c.03 0 .05.02.07.04.12.14.26.23.42.27a.2.2 0 0 1 .17.21c-.1 2.03.55 3.85 2.3 4.9.65.4 1.5.63 2.23.45 2.88-.75 3.72-3.18 3.56-5.9a.15.15 0 0 1 .1-.15c.14-.06.29-.15.42-.26.08-.06.2-.1.32-.13a2 2 0 0 0 .15-.04.22.22 0 0 0 .14-.2l.01-.17A.1.1 0 0 1 14.3 8l.1-.02c.3-.06.75-.15.84-.43.02-.05.02-.12.02-.19s-.01-.15.01-.22a.16.16 0 0 1 .07-.09c.24-.15.62-.43.5-.72l-.21-.41a.17.17 0 0 1 .03-.2c.44-.42.58-1.37-.35-1.23-.94.13-2.05.67-2.46 1.6Zm-1.36.05c-.1-.65-.8-.97-1.4-1.04a8.09 8.09 0 0 0-1.33-.1c-.35.02-.97.15-.93.62a.1.1 0 0 0 .09.1 4.42 4.42 0 0 1 2.42.04c.26.07.47.2.74.37a16.44 16.44 0 0 0 .29.16.13.13 0 0 0 .12-.07.13.13 0 0 0 0-.08Z" fill="#010101"/><path d="M7.57 5.4c-.08.17 0 .45-.26.56a.12.12 0 0 1-.16-.08C6.9 5.1 7.58 4.5 8.3 4.36a3.95 3.95 0 0 1 3.47.96c.48.41.62.8.4 1.4a.16.16 0 0 1-.2.08.3.3 0 0 1-.19-.32c.2-1.62-2.02-1.88-3.13-1.73-.4.06-.9.25-1.07.64ZM13.87 7.8l-.02.33a.1.1 0 0 1-.04.07.1.1 0 0 1-.09.01c-.13-.05-.24 0-.33.15-.16.27-.53.27-.6-.08-.05-.3-.04-.69.04-1.17.06-.47.2-.83.39-1.06.27-.33.6-.61 1-.85.29-.17.9-.29 1.2-.36a.24.24 0 0 1 .22.06c.05.05.06.1.02.18-.18.39-.27.57-.7.66l-.53.11c-.13.03-.18.1-.17.24l.01.05a.14.14 0 0 0 .11.12h.06l.72-.14a.24.24 0 0 1 .28.16c.15.53-.66.69-1 .64-.14-.01-.23.03-.28.13a.17.17 0 0 0 .15.24l.54.04a.06.06 0 0 1 .05.1c-.15.22-.56.21-.89.24a.15.15 0 0 0-.14.13ZM4.73 8.7a.09.09 0 0 0-.07-.1h-.03l-.37.08a.1.1 0 0 1-.11-.06.1.1 0 0 1 0-.04l.01-.3a.12.12 0 0 0-.1-.14 9.8 9.8 0 0 1-.76-.1c-.07-.01-.1-.05-.11-.12-.01-.06.01-.1.07-.1h.56a.17.17 0 0 0 .16-.13v-.07l-.01-.05a.14.14 0 0 0-.13-.1c-.31-.02-.57-.05-.78-.1-.3-.05-.43-.2-.4-.43a.18.18 0 0 1 .2-.16l.83.06a.1.1 0 0 0 .12-.1v-.06c.01-.12-.04-.18-.16-.19-.5-.04-1.25-.38-1.29-.94a.23.23 0 0 1 .15-.23.23.23 0 0 1 .1-.02c.31.02.64.1.97.24 1.4.6 1.86 1.86 1.54 3.37a.1.1 0 0 1-.07.08.43.43 0 0 1-.26 0c-.04-.01-.06-.04-.06-.09v-.2Z" fill="#fff"/><path d="M6.88 13.57a4.74 4.74 0 0 1-1.3-4.5c.12-.55.17-.9.47-1.33.23-.32.55-.68.97-1.09.3-.28.5-.46.89-.55 1.32-.33 2.85-.1 3.7 1.1.54.76 1 1.6.93 2.55a6.74 6.74 0 0 1-.9 3.25c-.75 1.05-2.18 1.7-3.41 1.37-.5-.13-.95-.4-1.35-.8Z" fill="#fff"/><path d="M8.8 9.96c.14.9-.38 1.63-1.24 1.84-.15.03-.3-.02-.48-.16-.41-.33-.66-.75-.74-1.27a2 2 0 0 1 .29-1.45c.12-.18.26-.29.4-.3.88-.08 1.62.44 1.77 1.34ZM11.12 12.29c-1.19 1.13-1.76-2.28-.03-2.26.46 0 .75.35.7.86a2.16 2.16 0 0 1-.67 1.4Z" fill="#010101"/><path d="M7.27 9.35c.08-.04.16-.04.22.01.33.26.34.47.03.63a.39.39 0 0 1-.13.04h-.15a.33.33 0 0 1-.12-.06.17.17 0 0 1-.06-.08c-.08-.24-.01-.42.21-.54ZM10.26 10.72c-.02.2.13.36.33.38.2 0 .37-.14.38-.34a.35.35 0 0 0-.33-.37.36.36 0 0 0-.38.33Z" fill="#fff"/></svg>