<!-- by TradingView --><svg width="18" height="18" viewBox="0 0 18 18" xmlns="http://www.w3.org/2000/svg"><path fill="#F0F3FA" d="M0 0h18v18H0z"/><path d="M13.44 12.15c-.1-.19-.23-.35-.37-.5a8.37 8.37 0 0 1-.22-.23c-.02-.03-.04-.02-.07-.03h-.02l-.05-.14v-.04c.06-.15.03-.34-.13-.43a.06.06 0 0 1-.02-.03c-.04-.18-.05-.36-.2-.47l-.01-.03a2.83 2.83 0 0 1-.02-.43l.1-.2a2.8 2.8 0 0 0-.1-2.17 4.85 4.85 0 0 0 0-1.77 3.02 3.02 0 0 0-.07-.36c-.03-.11-.09-.4-.17-.6a.6.6 0 0 0-.11-.18c-.12-.11-.26-.14-.42-.08-.23.1-.4.15-.53.22l-.2.1a6.26 6.26 0 0 0-1 .73c0 .01-.02.02-.04.01a3.57 3.57 0 0 0-1.66.01l-.34-.26c-.11-.07-.25-.2-.37-.28a4.7 4.7 0 0 0-1.03-.53c-.21-.07-.37.08-.42.28a5.74 5.74 0 0 0 .01 2.63v.04a2.2 2.2 0 0 0-.11.2 6.59 6.59 0 0 0-.2.58l-.5-.07-.07.01v.03c0 .01 0 .02.02.02l.53.1v.01l-.04.34-.01.01c-.19 0-.33.02-.43.03l-.48.08a3.75 3.75 0 0 0-.55.16v.03c0 .03.01.04.03.03l.35-.09a4.4 4.4 0 0 1 1.1-.14v.34l-.2.06c-.15.04-.32.11-.46.16-.26.08-.5.22-.73.35-.03.02-.03.04-.02.06.01.03.03.04.05.02a5.6 5.6 0 0 1 1.4-.54l.03.15v.01c-.36.15-.66.34-1 .57a.07.07 0 0 0-.03.06.1.1 0 0 0 0 .02c.01.02.02.03.04.02l.15-.1.16-.1a5.34 5.34 0 0 1 .72-.37l.05.12a.02.02 0 0 1 0 .03c-.12.07-.26.18-.44.31l-.18.17v.06h.02l.02.01h.01l.02-.01c.07-.09.16-.16.26-.23a3.25 3.25 0 0 0 .33-.23h.01a.84.84 0 0 0 .18.25v.01l-.02.34-.01.02h-.01c-.11.05-.12.12-.15.24l-.07.25c0 .05-.07.1-.1.14a.43.43 0 0 0-.03.32v.08a5.68 5.68 0 0 1-.17.27.92.92 0 0 1-.17-.17c-.04-.06-.08-.06-.12-.02l-.38.41-.23.32-.21-.3-.2-.32c-.03-.06-.05-.16-.09-.23a5.17 5.17 0 0 1-.46-1.5 9.06 9.06 0 0 1-.03-1.4 4.54 4.54 0 0 1 .4-1.5 10.15 10.15 0 0 0 .26-.55 4.55 4.55 0 0 1 .5-.73c.04-.07.1-.15.2-.25l.34-.35c.09-.1.18-.17.28-.25l.33-.25a4.1 4.1 0 0 1 1.16-.62 5.55 5.55 0 0 1 1.07-.3l.53-.06a7.33 7.33 0 0 1 1.23.06c.2.02.37.06.49.1.2.06.4.11.6.2a3.75 3.75 0 0 1 1.11.58c.02.01.09.04.12.08.13.1.26.18.39.3.08.06.15.12.22.2l.26.28c.1.11.2.23.3.37l.13.2c.13.16.2.3.32.51l.16.31.19.47a5.13 5.13 0 0 1 .22 2.77c-.03.22-.1.48-.2.8l-.23.57a4.82 4.82 0 0 1-.5.82Z" fill="#B8E5E6"/><path d="m13.44 12.15-.06.07h-.01l-.25-.32a168 168 0 0 0-.18-.21l-.14-.14h-.01a5.26 5.26 0 0 1-1.13.77c-.23.12-.47.22-.7.32a5.8 5.8 0 0 1-4.36-.14c-.17-.08-.29-.15-.49-.27a3.84 3.84 0 0 1-.87-.68H5.2c-.09.07-.17.15-.24.24l-.34.44-.08-.09.23-.32.38-.4c.04-.05.08-.05.12 0a.92.92 0 0 0 .18.19l.16-.28v-.08a.43.43 0 0 1 .04-.32c.02-.05.08-.09.1-.14.01-.1.04-.18.06-.25.03-.12.04-.19.15-.23l.01-.01v-.02l.03-.34a.02.02 0 0 0 0-.01.84.84 0 0 1-.18-.25h-.01a9.98 9.98 0 0 0-.64.47v-.01h-.01c-.02-.02-.02-.04 0-.06.06-.06.1-.12.17-.17a7.03 7.03 0 0 1 .44-.34l-.05-.12a.02.02 0 0 0-.02 0 5.34 5.34 0 0 0-1 .57c-.03 0-.04 0-.05-.02v-.02c0-.02.01-.05.03-.06a5.23 5.23 0 0 1 1-.58l-.03-.15h-.01l-.56.16c-.21.07-.49.2-.83.38-.02.02-.04.01-.05-.01-.01-.03 0-.05.02-.07.22-.13.47-.27.73-.35.14-.05.31-.12.47-.16a14.07 14.07 0 0 0 .2-.07l-.02-.33a4.4 4.4 0 0 0-1.44.23c-.02 0-.03 0-.03-.02V8.9l.03-.02a3.75 3.75 0 0 1 1-.22 3.13 3.13 0 0 1 .44-.04l.05-.34-.54-.1c-.02-.01-.02-.02-.02-.03v-.03a.13.13 0 0 1 .07-.01l.5.07c.1-.33.17-.52.2-.58l.1-.2a5.94 5.94 0 0 1-.01-2.67c.06-.2.22-.35.43-.28.36.13.7.3 1.03.53l.37.28a2.63 2.63 0 0 1 .35.27 3.57 3.57 0 0 1 1.65-.02h.05c.06-.08.1-.13.2-.19l.47-.36.31-.18.21-.1c.13-.08.3-.14.53-.23.16-.06.3-.03.42.08.03.03.07.1.1.18.1.2.15.49.18.6a7.24 7.24 0 0 1 .14 1.17 4.85 4.85 0 0 1-.07 1c.3.68.36 1.44.1 2.13l-.1.2a2.78 2.78 0 0 0 .03.46c.15.1.16.3.2.47v.02l.02.02c.16.08.2.27.13.42v.04l.05.13.02.01c.03 0 .05 0 .07.03l.22.23c.14.15.27.31.37.5Z" fill="#1E030C"/><path d="m6.93 5.9.27.08a.02.02 0 0 0 .02-.01v-.01a.13.13 0 0 0-.03-.07.44.44 0 0 0-.17-.09C7 5.8 7 5.78 7 5.77l.02-.01h.12v-.01a21.47 21.47 0 0 0-.24-.42 3.19 3.19 0 0 0-.5-.45c-.1-.01-.16.07-.18.15.28.22.58.54.72.87Z" fill="#F59393"/><path d="m6.7 5.89.23.01a2.33 2.33 0 0 0-.72-.87l-.04.33c0 .3 0 .59.03.88a3.43 3.43 0 0 0 .12.59l.12-.14a.02.02 0 0 0-.01-.03 1.26 1.26 0 0 1-.08-.03c-.05-.02-.05-.04 0-.06l.07.01.05.01a.02.02 0 0 0 .02 0l.12-.11a.01.01 0 0 0 0-.02l-.19-.06c-.05-.01-.05-.03 0-.04.07-.02.18 0 .25.03h.04l.15-.14v-.02a8.56 8.56 0 0 1-.24-.13 1.35 1.35 0 0 1 .35.06l.13-.1v-.01c-.14-.06-.27-.11-.4-.14-.05-.01-.05-.02 0-.02ZM11.92 6.65a1.8 1.8 0 0 1-.14.44h-.01l-.15-.19h.01l.13-.05c.04-.02.04-.03 0-.04a.6.6 0 0 0-.18 0l-.12-.13.2-.05.04-.02c.03-.01.02-.02 0-.03a.6.6 0 0 0-.31.02l-.15-.14.27-.07c.03 0 .03-.02 0-.03a.75.75 0 0 0-.33.02h-.05L11 6.26c-.02-.01-.02-.02 0-.03l.32-.13c.04-.01.04-.02 0-.01a1.76 1.76 0 0 0-.43.07l-.13-.07c-.02-.01-.02-.02 0-.02a.76.76 0 0 0 .11-.04.8.8 0 0 1 .08-.04l.06-.02a.92.92 0 0 1 .13-.04l.16-.05c.01 0 .01 0 0 0h-.1c-.13 0-.27.02-.4.07l-.1.03-.06.01c-.02 0-.02 0 0-.01 0-.01 0-.03.02-.04a.27.27 0 0 1 .07-.09l.08-.02a.32.32 0 0 0 .16-.08.4.4 0 0 0-.19 0v-.01a3.37 3.37 0 0 1 .76-.85c.04-.04.13-.06.18-.04.45.19.24 1.51.2 1.79Z" fill="#F59393"/><path d="M11.92 7.72a1.22 1.22 0 0 1-.04-.18 2.81 2.81 0 0 0-1.03-1.24 3.08 3.08 0 0 0-1.16-.42.01.01 0 0 1 0-.01l.14-.13.19-.17.06-.05c.1-.09.2-.17.31-.24a1 1 0 0 0 .1-.07l.19-.12a114.45 114.45 0 0 1 .63-.36l.27-.11a.3.3 0 0 1 .33.03c-.07-.1-.16-.12-.27-.09a4.71 4.71 0 0 0-2.03 1.3c-.03.01-.04 0-.02-.02a1.44 1.44 0 0 1 .13-.17.02.02 0 0 0 0-.02 3.74 3.74 0 0 0-1.51.02l.04.09c0 .01 0 .02-.02.01a23.42 23.42 0 0 1-.59-.46l-.07-.06a8.64 8.64 0 0 0-.89-.54 4.52 4.52 0 0 1-.25-.1c-.12-.06-.28-.07-.32.09l.03-.03c.11-.12.23-.06.35 0l.1.04A8.42 8.42 0 0 1 8.1 5.8a.01.01 0 0 1-.01.01l-.33.08a.94.94 0 0 0-.28.1l-.32.17a1.37 1.37 0 0 0-.3.24 2.8 2.8 0 0 0-.26.24c-.1.1-.15.16-.21.28a.93.93 0 0 1-.08.12 10.78 10.78 0 0 0-.45.93 5.05 5.05 0 0 0-.05.27l.09.02c0-.09.01-.17.04-.26l.01-.1c0-.04.02-.08.03-.11.06-.12.1-.2.14-.25l.02-.05c0-.02 0-.04.02-.06l.14-.2.08-.1.14-.14a.8.8 0 0 1 .19-.25l-.08.1a2.57 2.57 0 0 1 1-.62V6.2a45.84 45.84 0 0 0 .42-.14c.15-.04.3-.07.48-.06h.29a3.11 3.11 0 0 1 .69.12l.08.03.1.04a37.02 37.02 0 0 1 .55.3 2.8 2.8 0 0 1 .52.46l.09.08.22.31.1.14c.15.2.27.42.35.65.04.15.05.3.04.46l-.01.03.35.09a.3.3 0 0 0 .16-.1.23.23 0 0 0 .04-.2l-.03-.14c0-.06-.02-.1-.03-.15l-.13-.4Zm-5.61-.5-.05.06h-.01l.1-.14-.04.07Z" fill="#FFF5E1"/><path d="M8.55 7.1a1.07 1.07 0 0 0 .08.39h.01l-.03-.16.08.33.07.23a.69.69 0 0 0 .1.2h.01a.29.29 0 0 1-.02-.06l.06.08h.01l-.07-.14.11.17c.04.05.09.09.14.12l.27.1c.1.06.22.1.35.12.03.05.06.1.1.13l-.4.08v.01l.02.01.38-.03c.1.05.2.12.22.22a3.48 3.48 0 0 0-.57-.02.02.02 0 0 0 .01.02l.44.07c.07.1.16.18.26.22.22.08.52.1.75 0a52.5 52.5 0 0 0 .7.24l.27.13c-.13.15-.23.24-.31.3-.08.04-.15.1-.23.15l-.3-.22a4.8 4.8 0 0 0-1.11-.59 2.34 2.34 0 0 0-.46-.11v.01l.52.21a6.32 6.32 0 0 1 1.27.76l-.33.2a8.17 8.17 0 0 0-.5-.47c-.12-.1-.28-.21-.49-.35-.16-.1-.32-.16-.5-.21-.02 0-.02 0-.01.01a2.62 2.62 0 0 1 .44.25l.58.43c.11.1.26.24.44.43-.17.11-.36.13-.5.21a.02.02 0 0 0 0 .02.02.02 0 0 0 0 .01l.05.02.5-.05c.17 0 .32-.03.48-.06h.15c-.37.15-.73.33-1.07.53-.04.02-.1.08-.14.09l-.72.05a12.12 12.12 0 0 1-2.87-.17l-.03-.02-.21-.21-.24-.22c.06-.08.14-.15.24-.13l.29.04c.03 0 .04-.01.01-.04l-.18-.17.1.13a.8.8 0 0 0-.32-.18l-.27-.27a1.5 1.5 0 0 1-.25-.34l.46-.26a43.84 43.84 0 0 1 .53-.25h-.03c-.15.03-.3.08-.44.14l-.24.1a1.64 1.64 0 0 0-.31.16.02.02 0 0 1-.03-.01l-.09-.3v-.01h.01c.06-.03.1-.05.13-.05a16.67 16.67 0 0 1 1-.2c.03-.01.03-.02-.01-.02a5.83 5.83 0 0 0-1.15.14l-.02-.3h.02a13.76 13.76 0 0 1 1.14.02v-.01l-.23-.05a.2.2 0 0 1 .1-.09l.23.07h.01v-.01l-.33-.17a.47.47 0 0 1 .18-.04h.02a.1.1 0 0 1 .05-.02h.08c.2.01.37-.06.5-.21a.59.59 0 0 0 .34-.3 6.1 6.1 0 0 0 .12-.28l.06-.17.1-.25a4.59 4.59 0 0 1 .2-.54l.06-.2a.01.01 0 0 1 0-.01.01.01 0 0 1 .02 0v.02l.1.47c0 .05.03.1.04.14Z" fill="#FFF5E1"/><path d="M9.72 8.48a.9.9 0 0 1-.35-.13 3.4 3.4 0 0 1-.22-.3c-.12-.29-.03-.56.16-.78a.64.64 0 0 1 .45-.2.7.7 0 0 1 .62.28c.13.18.16.4.1.62a.64.64 0 0 1-.04.13.75.75 0 0 1-.42.33c-.1.04-.2.05-.3.05ZM7.63 8l-.12.23a.59.59 0 0 1-.5.2c-.35-.08-.53-.3-.53-.66 0-.29.21-.58.5-.65.34-.08.64.1.7.45.03.14.01.28-.05.44Z" fill="#1E030C"/><path d="M10.4 7.74a2.65 2.65 0 0 1-.56.6.1.1 0 0 1-.12 0c-.13-.1-.24-.2-.34-.32a.9.9 0 0 1-.08-.13 2.53 2.53 0 0 0-.08-.13c0-.06.02-.12.04-.16.03-.07.05-.15.1-.2a.45.45 0 0 1 .2-.14v.01a.94.94 0 0 0-.16.14c-.04.04-.05.08-.02.13.07.1.19.2.25.27l.12.13.01.04a13.62 13.62 0 0 1 .29-.3l.2-.19a.04.04 0 0 0 0-.06l-.08-.1v-.01h.01c.13.1.2.25.22.42ZM7.63 7.79l-.03.05c-.06.16-.2.27-.34.39a.52.52 0 0 1-.13.08.05.05 0 0 1-.05 0 .49.49 0 0 1-.12-.1c-.03-.04-.07-.05-.1-.08a5.98 5.98 0 0 1-.26-.36c.02-.2.1-.35.27-.47a.14.14 0 0 1 .06-.03c.03 0 .04 0 0 .03a.71.71 0 0 0-.17.16.03.03 0 0 0 0 .04l.17.23c.06.05.1.14.17.2a.03.03 0 0 0 .04 0c.12-.12.24-.25.37-.36l.05-.08h.01c.04.1.05.2.06.3Z" fill="#0BA8CF"/><path d="M9.5 7.38a.15.15 0 0 0 .01.22c.07.05.16.04.22-.02a.15.15 0 0 0 0-.22.16.16 0 0 0-.23.02Z" fill="#F2FDEF"/><path d="M6.87 7.43c-.03.07-.01.15.06.18.06.03.14 0 .17-.08.04-.07.01-.15-.05-.18-.07-.03-.15 0-.18.08Z" fill="#FFF5E1"/><path d="M8.83 6c-.19 0-.42-.04-.42-.04-1.04-.03-2.22.98-2.45 1.93l-.01.1c-.03.09-.04.17-.04.26l.1.03a6.09 6.09 0 0 1 .67.22.47.47 0 0 1 .18-.04h.02a.1.1 0 0 1 .05-.02h.08c-.35-.09-.53-.3-.53-.67 0-.29.21-.58.5-.65.34-.08.64.1.7.45.03.14.01.28-.05.43l-.12.23a.59.59 0 0 0 .34-.3 6.07 6.07 0 0 0 .18-.45l.1-.25a4.57 4.57 0 0 1 .2-.54l.03-.13.03-.08a.01.01 0 0 1 .02 0v.02c.04.19.06.37.08.54.03.28.07.55.14.83.04.2.37.57.74.48a3.4 3.4 0 0 1-.22-.3c-.12-.29-.03-.56.16-.78a.64.64 0 0 1 .45-.2.7.7 0 0 1 .62.28c.13.18.16.4.1.62a.63.63 0 0 1-.04.13.75.75 0 0 1-.42.33c-.1.04-.2.05-.3.05.03.05.06.1.1.13a5.23 5.23 0 0 1 1.62-.01l.12.02v-.03l-.03-.46c-.4-1.07-1.49-2.11-2.7-2.13Z" fill="#E6C1C5"/><path d="m11.88 7.54.25.47.03.12c.12.38.16.74-.03 1.12l-.15.24c-.32-.17-.66-.29-1.01-.4l.13-.11.17-.19a.34.34 0 0 1 .16-.1l.44.08h.03l.02-.03-.01-.03a.3.3 0 0 0 .16-.1.23.23 0 0 0 .04-.2 3.66 3.66 0 0 1-.06-.29 6.53 6.53 0 0 1-.17-.58Z" fill="#FFF5E1"/><path d="M10.4 7.74c0 .1-.02.2-.06.28-.08.19-.3.31-.5.35-.16.03-.36-.07-.48-.18-.1-.1-.15-.28-.14-.43l.08.13.08.13c.1.11.21.22.34.31a.1.1 0 0 0 .12 0 2.29 2.29 0 0 0 .56-.59ZM7.63 7.79c0 .1-.05.21-.08.29-.05.13-.26.23-.39.26-.12.02-.26-.04-.36-.1a.46.46 0 0 1-.16-.2.51.51 0 0 1-.04-.27l.07.08.05.09.15.2.09.06c.02.04.06.07.12.1a.05.05 0 0 0 .05.01l.13-.08c.14-.12.28-.23.34-.39 0-.02.02-.03.03-.05Z" fill="#fff"/><path d="M11.59 10.5a.38.38 0 0 0-.15 0c-.16.04-.31.06-.48.07a48.36 48.36 0 0 0-.54.03.02.02 0 0 1-.01-.01.02.02 0 0 1 0-.02c.14-.08.33-.1.5-.2h.06l.01-.01c0-.04 0-.07-.03-.1l.32-.2.22.2.03.02a.07.07 0 0 0 .04-.01c.02-.03.02-.05 0-.07l-.2-.19.23-.16c.08-.05.18-.14.3-.29l.13.06c.02.01.04 0 .05-.02 0-.03 0-.05-.02-.07l-.07-.04.15-.24c.19-.38.15-.74.03-1.12L12.13 8l.04.06c.01.05.03.05.05 0a.87.87 0 0 0 .05-.24.1.1 0 0 1 0-.03h.02c.08.22.13.44.15.65.02.28 0 .54-.04.8a2.07 2.07 0 0 1-.15.4c-.05.1-.07.17-.13.24a8.76 8.76 0 0 1-.23.3v.02h.02a.66.66 0 0 0 .25-.17h.01v.01l.03.22v.02l-.61.22Z" fill="#E6C1C5"/><path d="M11.56 8.15h.01l.01.01a.64.64 0 0 1 .01.12v.09a2.92 2.92 0 0 1 0 .22l-.03-.44Z" fill="#FFF5E1"/><path d="M8.1 9.03c.03.14.12.23.25.28.3.1.55.05.76-.13.02-.08.05-.1.1-.07.08.05-.06.18-.1.2a.8.8 0 0 1-1.04-.07.02.02 0 0 0-.02 0c-.1.11-.22.18-.37.2a.51.51 0 0 1-.49-.24c-.02-.04-.01-.07.01-.09.03-.02.05-.01.07.01l.07.1c.17.19.57.13.64-.12a2 2 0 0 0 0-.27c0-.03-.02-.05-.05-.06-.08-.04-.09-.08-.13-.14H7.8c-.15-.05-.17-.21-.07-.3a.3.3 0 0 1 .13-.08c.2-.05.37-.04.54.05.04.02.08.06.1.1.02.1-.05.18-.13.21a2.35 2.35 0 0 0-.12.05.39.39 0 0 1-.13.11.03.03 0 0 0-.01.02.56.56 0 0 0 0 .24Z" fill="#1E030C"/><path d="m6 8.38.08.26h-.32a.02.02 0 0 1-.02-.02l.05-.29.01-.01.2.06Z" fill="#FFF5E1"/><path d="M8.39 8.38c.02.02.03.05.02.08-.03.06-.12.06-.17.04a.1.1 0 0 0-.08 0 .04.04 0 0 0-.02.01v.03l.01.06c0 .02 0 .04-.02.05-.07.05-.13.05-.2 0a.08.08 0 0 1-.03-.04v-.02a.1.1 0 0 0 0-.06L7.9 8.5H7.75c-.04-.05-.04-.09-.02-.13l.1-.01h.1a5.33 5.33 0 0 0 .46 0Z" fill="#F59393"/><path d="M6.76 8.61a.2.2 0 0 0-.09.09l-.4-.05-.19-.01L6 8.38c.26.06.51.14.76.23Z" fill="#BB938A"/><path d="m11.44 8.6.12.02.35.09.01.03c0 .01 0 .02-.02.02h-.03l-.44-.06a7.03 7.03 0 0 0-1.6-.02l-.39.03h-.02v-.02l.4-.08a5.23 5.23 0 0 1 1.62-.01Z" fill="#100302"/><path d="M11.43 8.7a.34.34 0 0 0-.16.09c-.06.07-.1.13-.17.19-.05.03-.09.07-.13.12-.3-.1-.61-.16-.92-.2-.04-.1-.14-.17-.23-.22a7.02 7.02 0 0 1 1.6.02Z" fill="#BB938A"/><path d="M7.98 9.1c-.07.25-.47.31-.64.13l.2-.02h.12c.08-.02.2-.05.22-.13a.7.7 0 0 1 .06-.1c.03-.06.02-.1.02-.16l.02.28Z" fill="#E6C1C5"/><path d="M10.04 8.9a5.36 5.36 0 0 1 1.94.6l.07.03c.02.02.03.04.02.06-.01.03-.03.04-.05.03l-.12-.06a8.09 8.09 0 0 0-.57-.25l-.4-.13-.09-.02a9.83 9.83 0 0 0-.81-.17l-.11-.02-.44-.07a.02.02 0 0 1-.01-.01v-.01c.2-.01.38 0 .57.02Z" fill="#100302"/><path d="M10.03 8.99c.06.08.13.14.21.16.2.07.4.07.6 0l.09.03c-.23.1-.53.09-.75.01a.53.53 0 0 1-.26-.22l.11.02Z" fill="#E6C1C5"/><path d="M10.84 9.16c-.2.06-.4.06-.6 0a.42.42 0 0 1-.21-.17c.27.04.54.1.81.17Z" fill="#BB938A"/><path d="M9.1 9.18c-.2.18-.46.22-.75.13a.38.38 0 0 1-.26-.28c.36.31.2.22.68.18a16 16 0 0 0 .34-.03Z" fill="#E6C1C5"/><path d="m11.36 10.01.2.2c.02.01.02.03 0 .06h-.07l-.22-.2-.15-.13a6.32 6.32 0 0 0-1.61-.86c.17.03.31.07.44.12a10.8 10.8 0 0 0 .51.22c.25.13.4.23.6.37l.3.22ZM10.95 10.27c.03.02.04.05.03.09l-.01.01h-.06a4.06 4.06 0 0 0-1.02-.86 2.62 2.62 0 0 0-.38-.22.16.16 0 0 1-.06-.04c-.01-.01 0-.02.01-.01.18.05.34.11.5.21a3.94 3.94 0 0 1 .75.58l.24.24ZM6.49 9.64h-.05v-.05a1.34 1.34 0 0 1 .52-.34v.03c-.16.1-.32.22-.47.36Z" fill="#100302"/><path d="M6.5 10.33c.04.03.08.05.13.06.01 0 .02 0 .02-.02l-.03-.04v.04H6.6v-.01h.01v-.01H6.6l-.03-.06-.12-.08c.12.04.22.1.31.19h.01l-.1-.13v-.01l.18.18c.03.02.02.03-.01.03a4.7 4.7 0 0 1-.3-.04c-.09-.02-.17.05-.23.13l-.17-.14a.08.08 0 0 1-.03-.07 2.4 2.4 0 0 1 .05-.25c.1.1.2.17.33.23Z" fill="#E6C1C5"/><path d="M11.9 11.07c-.01-.23-.16-.43-.42-.37l-.05-.01a3.17 3.17 0 0 1 .81-.3c.07-.03.1.05.13.11a2.13 2.13 0 0 1 .07.31l-.02.02-.25.13-.27.11Z" fill="#377AA2"/><path d="M6.05 10.47c-.01 0-.02 0-.01.02v.02l.36.32.04.07a3.3 3.3 0 0 0-.35.33h-.02a2.16 2.16 0 0 1-.19-.24.2.2 0 0 1-.02-.15l.07-.33c0-.02.02-.04.04-.06l.01-.01c.02 0 .05 0 .07.03ZM11.9 11.07l-.83.46h-.02c-.1-.16-.21-.3-.34-.44a.59.59 0 0 1 .1-.06l.38-.2.15-.07.14-.06c.26-.06.4.14.42.37Z" fill="#0BA8CF"/><path d="m12.18 11.3-.12-.25a197.34 197.34 0 0 1 .46-.16c.06 0 .09.13.1.17a.03.03 0 0 1-.02.04l-.42.2ZM5.99 11.35l-.02.13h-.01a1.85 1.85 0 0 1-.18-.22c-.05-.07-.09-.17-.04-.24a.34.34 0 0 0 .03-.06h.02l.24.31a.01.01 0 0 1 0 .02.2.2 0 0 1-.03.04l-.01.02Z" fill="#377AA2"/><path d="m6.74 11.1-.16-.04a.28.28 0 0 0-.1-.02l-.03.01-.35.34h-.02a13.88 13.88 0 0 1 .33-.33c.03-.04.05-.06.1-.05a1 1 0 0 1 .24.06.02.02 0 0 1 0 .02l-.01.02Z" fill="#B8E5E6"/><path d="m6.74 11.1-.01.1-.02.01c-.15 0-.25.07-.3.2-.1.18-.08.33.04.46.1.1.24.13.37.09h.02a.02.02 0 0 1 0 .02l-.02.44a.01.01 0 0 1-.01.01H6.8a2 2 0 0 1-.4-.18l-.17-.1a.67.67 0 0 1-.2-.12l-.01-.01V12l.04-.6v-.02h.03l.36-.34H6.57l.17.06ZM12.06 11.05l.12.25-1.03.5h-.02c0-.08.03-.15-.03-.21v-.01l.32-.19c.17-.09.42-.24.64-.34Z" fill="#0BA8CF"/><path d="m7.13 11.23-.32-.08v-.02l.02-.01.3.06v.05Z" fill="#F2FDEF"/><path d="m7.13 11.23-.03.45c-.01.09-.09.17-.16.24h-.02v-.01a.01.01 0 0 1 0-.01c.1-.13.11-.28.08-.43-.02-.1-.11-.18-.19-.23l-.01-.02.01-.07.32.08Z" fill="#0BA8CF"/><path d="M11.04 11.68c-.02.02-.04.01-.05-.02v-.02a26.06 26.06 0 0 1-.3-.37.09.09 0 0 0-.1-.04c-.08.02-.17.03-.26.03l.01-.04h.01l.27-.03a.07.07 0 0 1 .07.03l.35.46Z" fill="#B8E5E6"/><path d="m10.25 11.29-.42.03c0-.03 0-.05.03-.05a10.86 10.86 0 0 0 .4-.02l-.01.04Z" fill="#F2FDEF"/><path d="m11.04 11.68-.04.77v.02l-.02.02a6.68 6.68 0 0 1-.99.27v-.01l.03-.63a.02.02 0 0 1 .01-.02.02.02 0 0 1 .02 0c.17.12.38.06.49-.1.14-.25.05-.52-.22-.6l-.01-.01c0-.05 0-.09.02-.13.1 0 .18-.01.27-.03.03 0 .06.01.08.04a26.06 26.06 0 0 0 .31.39c.01.03.03.04.05.02ZM7.2 11.24l.28.04a13.84 13.84 0 0 0 2.27.05v.16a3.4 3.4 0 0 0-.02.4c0 .14.08.21.18.3 0 0 .01 0 0 0v.24l-.02.02-.4.04a9.59 9.59 0 0 1-1.45-.03 5.53 5.53 0 0 1-1.1-.24v-.03c0-.06 0-.14.04-.2.11-.1.18-.17.2-.32l.03-.43Z" fill="#0BA8CF"/><path d="M12.45 11.67c-.13-.08-.23-.07-.38 0-.19.09-.37.2-.55.3-.17.1-.31.18-.4.33l.01-.32c0-.02.01-.03.03-.04l1.38-.68.12.22v.03c0 .01 0 .02-.02.03l-.19.13Z" fill="#E6C1C5"/><path d="m10.25 11.29-.02.09-.01.01a.49.49 0 0 0-.24.12c-.1.09-.1.18-.1.31 0 .09.03.17.07.24v.03h-.01c-.1-.09-.15-.13-.15-.28 0-.17.01-.33.04-.49l.42-.03Z" fill="#0BA8CF"/><path d="M6.7 11.88c-.04 0-.07 0-.1-.02a.26.26 0 0 1-.1-.06.32.32 0 0 1-.03-.4.26.26 0 0 1 .1-.07.24.24 0 0 1 .2-.01c.02 0 .05.03.08.05a.32.32 0 0 1 .03.4.26.26 0 0 1-.08.08.24.24 0 0 1-.1.03Z" fill="#FAC580"/><path d="m6.65 11.4.02-.02h.02l.01.02.01.01c.06.05.12.08.09.17a.03.03 0 0 1-.02.01c-.03.02-.03.04-.01.07v.02a.2.2 0 0 1-.1.1h-.1l-.02-.01a.13.13 0 0 0-.05-.05c-.02-.01-.03-.03-.03-.05a.01.01 0 0 1 .02 0h.02l.02-.01c0-.03.02-.06.04-.09l.04-.1v-.02l-.01-.01c-.03 0-.03-.02 0-.04l.03.01h.01Z" fill="#1E030C"/><path d="m5.56 11.68.18-.28h.01l.2.24-.03.32s0 .01 0 0H5.9l-.35-.27v-.01Z" fill="#E6C1C5"/><path d="M7.61 11.8c.05.1.07.16.01.26-.04.06-.1.08-.17.07a1.25 1.25 0 0 1-.25-.06V11.98a17.11 17.11 0 0 1 .14-.52h.02c.1-.02.2 0 .28.07.07.07.04.2-.03.26v.02Z" fill="#F2FDEF"/><path d="M6.66 11.5a.01.01 0 0 1 0-.02h.01a.05.05 0 0 1 .05.02v.01l.01.02v.01c0 .01 0 .03-.02.04a.05.05 0 0 1-.03.01.01.01 0 0 1-.02 0V11.48ZM10.52 11.77a.29.29 0 0 1-.29.3.3.3 0 0 1-.29-.3.29.29 0 0 1 .3-.29.3.3 0 0 1 .28.3Z" fill="#FAC580"/><path d="M13.12 11.9c-.03.04-.01.08 0 .14.05.22-.1.37-.23.52-.14.16-.3.3-.44.44l-.16.18c-.03-.07-.07-.1-.12-.1a8.4 8.4 0 0 1-.45.22c-.07-.1-.12-.25-.16-.34-.06-.13-.1-.3-.25-.28-.05 0-.1.02-.12.06-.04.03-.04.09 0 .15l.3.6-.12.08a.16.16 0 0 0-.17 0 4.8 4.8 0 0 1-.31.12c-.08-.18-.15-.38-.22-.58-.07-.18-.35-.09-.28.1a3.01 3.01 0 0 1 .13.39l-.1.07a.5.5 0 0 0-.28-.39.49.49 0 0 0-.34-.05c-.27.06-.45.26-.44.54l-.07.02a.5.5 0 0 0-.12-.3.41.41 0 0 0-.23-.16 2.5 2.5 0 0 0-.41-.02c-.06 0-.1 0-.1.08-.02.21-.02.42-.03.64l-.16-.04c.01-.05.04-.11.03-.16 0-.06-.04-.1-.1-.12l-.23-.04c-.08-.01-.1.1-.11.14 0 .05.04.08.11.1.03 0 .03.01.03.04 0 .02-.02.03-.04.03-.15-.04-.29-.1-.3-.25 0-.16.13-.28.3-.26.06.01.11.05.16.08.1.04.2-.05.16-.14 0-.03-.03-.06-.08-.1a.51.51 0 0 0-.43-.08c-.11.02-.2.07-.26.15a.49.49 0 0 0-.11.45l-.17.1-.04-.87c-.01-.14-.15-.25-.29-.18a61.74 61.74 0 0 1-.67.63l-.1-.06-.05-.35.01-.02c.14-.01.24-.07.3-.2.05-.17-.04-.34-.18-.43l-.24-.15c-.14-.1-.18 0-.25.11l-.13.22-.11.17-.12.2a1.76 1.76 0 0 1-.4-.25 1.54 1.54 0 0 1-.23-.3.8.8 0 0 1-.07-.22 9.1 9.1 0 0 1 .58-.68h.03a4.24 4.24 0 0 0 .87.68c.2.12.32.2.5.27.24.1.4.18.48.2a7.21 7.21 0 0 0 .84.2 5.8 5.8 0 0 0 3.03-.26c.23-.1.47-.2.7-.32l.23-.12c.1-.04.17-.09.23-.13a20.3 20.3 0 0 0 .68-.52c.05.05.1.08.14.14l.18.21Z" fill="#FFF5E1"/><path d="m8.11 12.1-.02-.01-.18-.03a.04.04 0 0 0-.04.03l-.03.06a.08.08 0 0 1-.09.05h-.04a.05.05 0 0 1-.03-.03.05.05 0 0 1 0-.04 10.96 10.96 0 0 1 .3-.54.14.14 0 0 1 .15-.02c.01 0 .02 0 .02.02l.03.08.1.5c0 .05-.01.08-.05.1-.05 0-.08 0-.1-.05l-.02-.11ZM8.52 12.14c.1.1.22-.05.12-.1a5.87 5.87 0 0 0-.17-.1c-.05-.03-.07-.07-.07-.13 0-.15.07-.23.22-.23.1 0 .22.05.22.16v.02c-.06.06-.1.03-.14-.02-.08-.1-.24.03-.06.12.12.06.22.16.16.31-.03.09-.1.13-.22.13a.26.26 0 0 1-.2-.11c-.03-.03-.03-.07 0-.1.05-.05.1.02.14.05Z" fill="#F2FDEF"/><path d="M7.43 11.6a.03.03 0 0 1 .01-.01h.07l.02.02v.02l.01.03-.01.02-.02.02a.07.07 0 0 1-.05 0h-.03a.03.03 0 0 1-.01-.02v-.01l.01-.07Z" fill="#377AA2"/><path d="m10.1 11.68-.05.01h-.01v-.02c0-.01 0-.02.02-.02l.08-.05h.02c.12 0 .16-.02.2.12v.02l-.02.03v.01l.05.1a.1.1 0 0 1-.03.05l-.01.01-.07.01-.01.01v.05l-.01.02h-.02v-.01a.15.15 0 0 0-.03-.04h-.01l-.05.02h-.02l-.01-.03c0-.02.02-.02.03-.04v-.01l-.03-.23h-.01Z" fill="#100302"/><path d="M12.45 11.67c-.25.19-.42.32-.66.44a7.27 7.27 0 0 1-.68.3v-.11c.1-.15.24-.23.4-.33.19-.1.37-.21.57-.3.14-.07.24-.08.37 0Z" fill="#FFF5E1"/><path d="M9.13 11.9h.17c.05.01.09 0 .1.07a.05.05 0 0 1-.04.05c-.07.02-.17.01-.24 0-.02 0-.03.01-.03.03v.1c0 .02 0 .03.02.03h.31c.04 0 .06.01.05.05 0 .05-.02.07-.06.07H9c-.07 0-.08-.05-.08-.12a989.99 989.99 0 0 1 .07-.57h.43c.05 0 .07.02.06.06v.02c0 .04-.02.06-.06.06h-.28c-.02 0-.03 0-.03.02l-.02.12c0 .01.01.02.03.02Z" fill="#F2FDEF"/><path d="M6.6 11.67c0 .03.01.05.04.06.02 0 .04-.02.05-.05 0-.03-.02-.06-.04-.06-.03 0-.05.02-.05.05Z" fill="#FAC580"/><path d="m7.95 11.91.08-.18.02-.01.01.01.03.2a.02.02 0 0 1 0 .01.02.02 0 0 1-.02 0h-.1a.02.02 0 0 1-.02-.02Z" fill="#377AA2"/><path d="M7.39 11.82a.01.01 0 0 1 .01 0h.06a.1.1 0 0 1 .05.03c.02.02.02.03.02.05l-.01.04-.03.03a.1.1 0 0 1-.06 0h-.06a.01.01 0 0 1-.01-.02l.03-.13Z" fill="#0BA8CF"/><path d="M6.1 13.45c-.05.05-.1.06-.13.05a.21.21 0 0 1-.13-.1.44.44 0 0 1-.04-.14c-.02-.15-.02-.23-.06-.31a.01.01 0 0 0-.02-.01c-.05.06-.11.2-.22.2-.07 0-.13-.05-.17-.14l.11-.2.12-.17.13-.22c.07-.11.1-.2.25-.11l.24.15c.14.1.23.26.17.42-.05.14-.15.2-.29.2l-.02.03.06.35Z" fill="#29020C"/><path d="M7.8 12.49a7.37 7.37 0 0 0 2.1.02l-.01.24c0 .02 0 .02-.02.03a5.75 5.75 0 0 1-2.77-.22l-.15-.06c-.03 0-.04-.03-.04-.05l.01-.14c0-.02.01-.03.04-.02.14.06.28.08.47.12l.36.08Z" fill="#0BA8CF"/><path d="M5.89 12.63a.03.03 0 0 1 .02-.01h.02l.1.06.03.02.02.03v.06l-.01.01-.02.02-.03.01a.1.1 0 0 1-.07-.01l-.1-.07a.03.03 0 0 1-.01-.03l.05-.1Z" fill="#FFF5E1"/><path d="M12.3 13.18c0 .06-.02.11-.08.15l-.5.27c-.14.07-.18-.02-.22-.11l-.32-.6c-.03-.06-.03-.12 0-.15a.18.18 0 0 1 .13-.06c.14-.01.19.15.25.28l.16.34h.02a8.4 8.4 0 0 0 .43-.22c.05 0 .1.03.12.1ZM7.2 13.93c-.03.04-.06.06-.09.07-.08.01-.12-.03-.17-.09-.04-.05-.02-.1-.03-.16l-.01-.02-.3-.15a.06.06 0 0 0-.07.02c-.07.07-.12.14-.23.09-.06-.03-.1-.09-.1-.17a60.08 60.08 0 0 0 .67-.64c.14-.07.28.04.29.18l.04.87ZM11.37 13.57c.05.06.07.1.04.16-.01.03-.05.05-.1.08l-.21.09c-.08.02-.15.06-.22.1-.12.04-.2 0-.24-.1a6.44 6.44 0 0 1-.25-.69c-.07-.19.21-.28.28-.1a44.87 44.87 0 0 0 .24.6l.29-.15a.16.16 0 0 1 .17.01Z" fill="#29020C"/><path d="m6.8 13.3.09-.08h.01v.23l-.16-.08v-.02l.06-.04Z" fill="#FFF5E1"/><path d="M8.24 14c-.02.1-.02.24-.17.24l-.24-.03a.64.64 0 0 1-.46-.38.49.49 0 0 1 .1-.45.47.47 0 0 1 .27-.15c.16-.04.3-.01.43.08.05.04.07.07.08.1.03.09-.06.18-.16.14-.05-.03-.1-.07-.16-.08-.17-.02-.3.1-.3.26.01.16.15.21.3.25.02 0 .03 0 .04-.03 0-.03 0-.04-.03-.04-.07-.02-.11-.05-.11-.1 0-.04.03-.15.1-.14l.23.04c.07.02.1.06.11.12l-.03.16ZM10.42 13.67a.5.5 0 0 1-.27.48.53.53 0 0 1-.54 0 .5.5 0 0 1-.25-.38c-.01-.28.17-.48.44-.54.12-.03.23 0 .34.05a.5.5 0 0 1 .28.39ZM9.3 13.79c0 .24-.19.48-.44.5l-.38-.01c-.05 0-.08-.03-.08-.1v-.15l.02-.64c0-.07.05-.08.1-.08.21 0 .35 0 .42.02.09.02.16.07.23.15a.5.5 0 0 1 .12.3Z" fill="#29020C"/><path d="M9.67 13.8c.04.12.18.18.3.14a.23.23 0 0 0 .13-.3.23.23 0 0 0-.3-.14.23.23 0 0 0-.13.3ZM8.7 13.6a.02.02 0 0 1 .02-.02h.06a.23.23 0 0 1 .15.06.22.22 0 0 1 .07.16c0 .07-.02.12-.07.16a.23.23 0 0 1-.15.07h-.06A.02.02 0 0 1 8.7 14v-.41Z" fill="#FFF5E1"/><path fill-rule="evenodd" d="M9 14.63A5.63 5.63 0 1 0 9 3.37a5.63 5.63 0 0 0 0 11.25ZM9 15A6 6 0 1 0 9 3a6 6 0 0 0 0 12Z" fill="#1E030C"/></svg>