<!-- by TradingView --><svg width="18" height="18" viewBox="0 0 18 18" xmlns="http://www.w3.org/2000/svg"><path fill="#181B1E" d="M0 0h18v18H0z"/><path d="m8.99 11.83-.48-.2c.37-.63.48-1.07.5-1.22l.36.03-.38 1.4Z" fill="url(#ajstjxnmh)"/><path d="M4.06 11.58c-1.04 0-1.8-.46-2.06-.7.13.43 1.14 1.39 2.06 1.39.92 0 1.98-.7 2.6-1.28.63-.6 1.03-.83 1.27-.9.5.27 1.07.4 1.23.46a5.72 5.72 0 0 1-.5 1.44c.32.29.96.9 1.05 1.02 0 .66.3.94.46.99l.07-1.26-.8-.69c.07-.19.22-.63.27-.85.8-.67.99-1.41 1.05-1.58a4.8 4.8 0 0 0 1.42-.57c.11.19.36.6.42.78-.15.34-.06.58 0 .67l.35-.67c-.2-.58-.24-.99-.24-1.15.75-.66.97-1.4 1.02-1.5.1 0 .42-.16.57-.24h.38c.27 0 .32-.17.32-.37 0-.2-.36-.3-.58-.39a.95.95 0 0 0-.74-.37 5.75 5.75 0 0 0-.17-.81c-.25 0-.32.8-.32 1.06-.27.2-.14.88-.88.88-.83 0-1.2-.17-2.28-.17-1.09 0-1.92.61-2.69 2.12-.76 1.5-1.98 2.69-3.28 2.69Z" fill="#D109E8"/><path d="M2.23 11.06c.36.23 1.01.52 1.83.52 1.3 0 2.52-1.2 3.28-2.7a4.6 4.6 0 0 1 1.27-1.65L7.74 9.5a54.6 54.6 0 0 0-1.2 1.06c-.5.46-1.35 1.26-2.48 1.26-.67 0-1.35-.39-1.83-.77Z" fill="url(#bjstjxnmh)"/><path d="M7.7 8.24c-.1.32-.18.7-.18 1.06 0 .36.25.65.57.88.34.16.7.26.91.32l.16.05a5.71 5.71 0 0 1-.5 1.44c.32.29.96.9 1.05 1.02 0 .66.31.94.46.99l.07-1.26-.8-.69c.07-.19.22-.63.27-.85.72-.6.94-1.25 1.03-1.5l.02-.08c.2-.04.39-.1.56-.16l.3-1.44-1.15-1.28h-.44c-.92 0-1.66.46-2.32 1.5Z" fill="url(#cjstjxnmh)"/><path d="M10.1 6.73c-.52.2-1.13.52-1.13.9 0 .3.4.54.82.8.48.28.97.57.97.97a3.16 3.16 0 0 1 0 .22c.6-.12 1.2-.43 1.42-.57l.06.1.36-2.26a.83.83 0 0 1-.3.05c-.38 0-.66-.05-.97-.1-.33-.05-.69-.1-1.23-.1Z" fill="url(#djstjxnmh)"/><path d="M12.36 6.94c-.25.28-.52.69-.52 1.03 0 .35.18.78.33 1.08.12.19.37.6.43.78-.15.34-.06.58 0 .67l.35-.67c-.2-.58-.24-.99-.24-1.15a3.58 3.58 0 0 0 1.02-1.5c.04 0 .12-.03.21-.07l-.74-1.3a3 3 0 0 0-.01.25c-.1.07-.14.2-.18.32-.1.25-.2.54-.65.56Z" fill="url(#ejstjxnmh)"/><path d="M12.71 8.68v.01-.01Zm0 0c.68-.6.93-1.27 1-1.46l.02-.05c.1 0 .42-.15.57-.23h.38c.27 0 .32-.17.32-.37 0-.17-.24-.26-.45-.34a3.69 3.69 0 0 1-.13-.05.95.95 0 0 0-.74-.37 5.75 5.75 0 0 0-.17-.81c-.24 0-.32.72-.32 1.02.09.84.1 2.09-.47 2.66Z" fill="url(#fjstjxnmh)"/><defs><linearGradient id="ajstjxnmh" x1="9.18" y1="10.54" x2="8.66" y2="11.92" gradientUnits="userSpaceOnUse"><stop stop-color="#521FAC"/><stop offset="1" stop-color="#2963DB"/></linearGradient><linearGradient id="bjstjxnmh" x1="7.65" y1="8.98" x2="1.99" y2="11.01" gradientUnits="userSpaceOnUse"><stop stop-color="#1488FF"/><stop offset=".78" stop-color="#C624EB"/></linearGradient><linearGradient id="cjstjxnmh" x1="10.38" y1="9.13" x2="8.64" y2="11.36" gradientUnits="userSpaceOnUse"><stop stop-color="#FEF62D"/><stop offset="1" stop-color="#F56817"/></linearGradient><linearGradient id="djstjxnmh" x1="10.79" y1="6.73" x2="10.9" y2="9.67" gradientUnits="userSpaceOnUse"><stop offset=".1" stop-color="#D958F3"/><stop offset=".12" stop-color="#C326FB"/><stop offset=".46" stop-color="#7452FF"/><stop offset=".73" stop-color="#6C57FF"/><stop offset=".77" stop-color="#345AE3"/></linearGradient><linearGradient id="ejstjxnmh" x1="12.89" y1="5.81" x2="12.89" y2="10.5" gradientUnits="userSpaceOnUse"><stop stop-color="#FEE018"/><stop offset="1" stop-color="#EA5008"/></linearGradient><linearGradient id="fjstjxnmh" x1="13.85" y1="5" x2="13.85" y2="8.69" gradientUnits="userSpaceOnUse"><stop stop-color="#F0D735"/><stop offset="1" stop-color="#E34903"/></linearGradient></defs></svg>