<!-- by TradingView --><svg width="18" height="18" viewBox="0 0 18 18" xmlns="http://www.w3.org/2000/svg"><path fill="url(#aut4llmi3)" d="M0 0h18v18H0z"/><path d="m9 4 3.5 1.48L14 9l-1.5 3.52L9 14l-3.5-1.48L4 9l1.5-3.52L9 4ZM5.97 5.94 4.63 9l1.35 3.06L9 13.33l3.02-1.27L13.38 9l-1.35-3.06L9 4.67 5.97 5.94Z" fill="#05E295"/><path d="m9 4.63 3.06 1.29L13.37 9l-1.3 3.08L9 13.38l-3.07-1.3L4.63 9l1.3-3.08L9 4.62ZM6.5 6.5 5.4 9l1.1 2.66L9 12.75l2.5-1.1L12.6 9l-1.1-2.5L9 5.4 6.5 6.5Z" fill="#007D4D"/><path d="m9 5.25 2.63 1.1 1.12 2.6-1.12 2.7L9 12.74l-2.63-1.1-1.12-2.7 1.12-2.6L9 5.26ZM6.73 6.71l-.97 2.23.97 2.35 2.27.96 2.27-.96.97-2.35-.97-2.23L9 5.75l-2.27.96Z" fill="#062C1D"/><path d="m12.84 13.28-1.72-1.72.44-.44 1.72 1.72-.44.44Z" fill="#05E295"/><defs><linearGradient id="aut4llmi3" x1="3.35" y1="3.12" x2="21.9" y2="24.43" gradientUnits="userSpaceOnUse"><stop stop-color="#1A1E21"/><stop offset="1" stop-color="#06060A"/></linearGradient></defs></svg>