<!-- by TradingView --><svg width="18" height="18" viewBox="0 0 18 18" xmlns="http://www.w3.org/2000/svg"><path fill="#F0F3FA" d="M0 0h18v18H0z"/><path d="M14.61 11.12c-.04-.23 0-.48.12-.74a5.9 5.9 0 0 0-7.15-7.1l-.03-.1a6 6 0 0 1 7.06 7.94Z" fill="#B47708"/><path d="m9.35 3.13.78.48c-.02.04-.02.08.01.11.2.55.83.48 1.21.83a.65.65 0 0 0-.28-.01l-.62-.26a1.4 1.4 0 0 0-.59-.25 6.2 6.2 0 0 0-2.13.07l-.75-.63.6-.19c.21-.05.43-.08.64-.11.38-.05.76-.07 1.13-.04Z" fill="#F2C135"/><path d="M14.89 9.03c-.05-.2-.12-.39-.22-.56-.14-.23-.31-.26-.46-.36-.22-.14-.28-.32-.4-.58a.58.58 0 0 0-.18-.19l-.2-.49c0-.2-.04-.39-.14-.6a2.06 2.06 0 0 0-.35-.44c-.34-.36-.57-.59-.7-.69-.31-.26-.56-.46-.89-.57-.38-.35-1-.28-1.2-.83.02 0 .04 0 .06-.02a.05.05 0 0 0 .02-.05.05.05 0 0 0-.04-.03l-.06-.01-.78-.48a5.9 5.9 0 0 1 5.54 5.9Z" fill="#E6B630"/><path d="m6.98 3.47.75.63-.33.12a.03.03 0 0 0 0 .04l.08.06-.27.1c-.29.1-.56.24-.82.41-.1.07-.12.02-.21.02-.02 0-.04 0-.05.02a.14.14 0 0 1-.1.05l.6-.4a6.86 6.86 0 0 0-.23-.2c-.05-.03-.12-.02-.15-.12a.08.08 0 0 0-.03-.04l-.34-.28c.2-.12.4-.23.62-.33.01.04.05.06.1.05.07-.01.2-.06.38-.13Z" fill="#F5D656"/><path d="M9.1 3.5h.04c.02.01.03.02.03.04v.02a.03.03 0 0 1-.02.02.03.03 0 0 1-.02 0c-.02 0-.04-.02-.05-.03-.01-.02 0-.03.01-.04ZM9.38 3.5c.01 0 .03 0 .05.03v.04l-.04.03c-.08-.03-.08-.06 0-.1ZM10.43 3.78c.03 0 .05-.03.05-.06 0-.02-.03-.04-.06-.04s-.06.03-.05.06c0 .02.03.04.06.04Z" fill="#FBEB79"/><path d="M10.62 3.78c.04-.02.07-.02.09-.02l.02.03v.03c0 .02-.02.03-.04.02a.2.2 0 0 1-.08-.03v-.02Z" fill="#FFF88F"/><path d="m5.88 3.88.34.28.03.04c.03.1.1.1.16.13a6.86 6.86 0 0 1 .23.2l-.61.39-.56.46c.09-.08.03-.18-.18-.32.04-.01.06-.03.05-.07 0-.03-.03-.05-.06-.04-.04 0-.07.03-.08.06l-.3-.17a.09.09 0 0 0-.1.02l-.52.6-.1-.04a6 6 0 0 1 1.7-1.54ZM11.35 4.07a.21.21 0 0 1 .09-.02c.02 0 .03.01.03.04l-.01.03a.04.04 0 0 1-.05.02.12.12 0 0 1-.07-.03V4.1a.02.02 0 0 1 0-.03Z" fill="#FBEB79"/><path d="m10.45 4.28.62.26a5.04 5.04 0 0 1 2.36 2.31l.2.5a5.43 5.43 0 0 1 .27 1.78c0 .52-.1 1.03-.27 1.53-.05-.02-.06-.09-.05-.2.19-.57.26-1.16.21-1.77a4.7 4.7 0 0 0-1.43-3.11A4.73 4.73 0 0 0 8.64 4.2a5.2 5.2 0 0 0-1.4.31c-.04-.04-.06-.07-.03-.1l.27-.1a5.17 5.17 0 0 1 2.97-.04Z" fill="#B47708"/><path d="M11.65 4.27c.03 0 .06-.03.05-.06 0-.02-.04-.04-.07-.03-.03 0-.06.04-.05.06 0 .03.04.04.07.03Z" fill="#FFF88F"/><path d="m9.92 4.29.35.47c.02.01.02.03.01.05l-.02.02c-.4-.11-.8-.17-1.2-.18-.1 0-.22-.04-.24-.13a.52.52 0 0 0-.18-.31c.43-.04.86-.01 1.28.08Z" fill="#F2C135"/><path d="M8.64 4.2c.1.08.15.19.18.32.02.1.14.12.23.13a4.4 4.4 0 0 1 4.23 3.56c0 .02.02.03.03.04l.15.06c.06.03.1.06.1.09.05.13.12.22.23.29a4.62 4.62 0 0 1-.57 2.6c.08-.23.2-.47.13-.72-.03-.1-.08-.2-.16-.35a.06.06 0 0 1 0-.04 3.69 3.69 0 0 0-.08-2.35 4.2 4.2 0 0 0-3.26-3.05 3.12 3.12 0 0 0-.55-.05l-.56-.02c-.31-.03-.62 0-.93.1a.4.4 0 0 1-.23.02c-.17-.05-.37-.1-.6-.18l.27-.13a5.2 5.2 0 0 1 1.39-.31Z" fill="#F5D656"/><path d="M13.8 8.69a.49.49 0 0 1-.23-.3c-.01-.02-.05-.05-.11-.08l-.15-.06a.05.05 0 0 1-.03-.04 4.4 4.4 0 0 0-3.02-3.38l.02-.02v-.05l-.36-.47c.94.19 1.76.62 2.44 1.29a4.7 4.7 0 0 1 1.43 3.1Z" fill="#F0AF15"/><path d="M7.21 4.42c-.03.03-.01.06.04.1l-.28.13-.7.4-.27.2-.18.01-.05.02-.63.63a.05.05 0 0 1-.07 0v-.07l.4-.46.56-.46c.04 0 .07-.02.1-.05a.06.06 0 0 1 .05-.02c.09 0 .12.05.21-.02.26-.17.53-.31.82-.41Z" fill="#E6B630"/><path d="M11.35 4.55c.33.1.58.31.89.57.13.1.36.33.7.69.16.17.28.32.35.45.1.2.15.4.14.6a5.04 5.04 0 0 0-2.36-2.32c.1-.02.19-.01.28.01Z" fill="#F0AF15"/><path d="M12.3 4.7c.05 0 .08-.02.08-.05 0-.02-.04-.04-.08-.04s-.07.02-.07.05c0 .02.04.04.08.04Z" fill="#FBEB79"/><path d="M5.68 4.71c.03 0 .06-.02.06-.04 0-.03-.03-.05-.06-.05-.04 0-.06.02-.06.05 0 .02.02.04.06.04Z" fill="#E6B630"/><path d="m6.97 4.65.61.18a.4.4 0 0 0 .23-.01c.3-.1.62-.14.93-.11l-.16.04c-.02 0-.02 0 0 .02l.2.08-.95.23a.04.04 0 0 0-.02.03v.02a.1.1 0 0 0 .1.03c.4-.07.79-.11 1.18-.13.5.03.97.13 1.42.3l-.02.06a3.8 3.8 0 0 0-1.71-.28c-.05 0-.05.01-.01.04.1.05.17.08.3.08.62.02 1.2.18 1.75.49a4.7 4.7 0 0 1-.54-.2 2.88 2.88 0 0 0-1.46-.17c-.07.02-.07.04 0 .05.25.04.5.03.77.08a3.77 3.77 0 0 1 1.78.85c.1.07.19.08.28 0l.1.1c-.08.12-.14.23-.19.34l.01.05c.54.64.81 1.4.82 2.25 0 .08-.02.19-.05.34v.1c.04.03.09.04.14.02.04 0 .05.01.05.05l-.07.3c0 .02 0 .03.03.04.02 0 .05.01.07.03.01.01.03 0 .03-.01l.18-.83.03.09.04.04h.07c0 .36-.05.74-.18 1.1-.04.11-.04.22-.05.33 0 .05 0 .05.03 0 .25-.47.37-.99.36-1.54a.8.8 0 0 0 0-.37l.08-.08c.01.03.03.05.05.06-.03.47-.09.93-.18 1.38 0 .02 0 .04.02.04h.02c.02 0 .03 0 .04-.02.17-.43.19-.92.16-1.4l.02-.3c.1.58.07 1.15-.1 1.74l.01.04c.08.14.13.26.16.35.08.25-.05.5-.13.73a5 5 0 0 1-.6.86.34.34 0 0 0-.1.22c0 .04-.02.07-.04.1-.18.19-.36.35-.55.48a22.17 22.17 0 0 0-.53.4v.01c.02.01.03.02.05.01l-.22.16a.05.05 0 0 0-.02.05l.01.02.2.23v.02c-.04 0-.06.03-.04.06a.04.04 0 0 0 .06 0l.03-.02h.03l.26.29-.23.13-.28.11c-.2-.24-.42-.44-.68-.6a.09.09 0 0 0-.07-.01l-.88.2-.44.02a87.88 87.88 0 0 0-.6-.03l-.03-.04-.02-.04a.08.08 0 0 0-.04-.02l-.78-.16c0-.05.01-.09.03-.1l.14.03a5.28 5.28 0 0 0 2.2 0 6.56 6.56 0 0 0 1.34-.54.88.88 0 0 0-.52-.37.6.6 0 0 0-.3.03l-.02-.02.23-.13c.02-.01.02-.03 0-.04a.14.14 0 0 0-.12 0l-.34.12c-.47.17-.97.24-1.48.22l.57-.09.45-.06c.2-.05.5-.14.7-.27.1-.07.1-.1-.04-.07l-.34.08h-.02v-.02l.15-.07c.06-.03.05-.04 0-.05a.62.62 0 0 0-.27.02 3.74 3.74 0 0 1-.87.12v-.02a.01.01 0 0 1 0-.01 2.73 2.73 0 0 0 .93-.2c.01-.02 0-.03-.02-.03s-.03-.01-.03-.03v-.01h.02l.08-.04-.02-.02h-.02c-.25.09-.5.15-.77.17-.02 0-.02 0-.02-.02v-.02l.01-.02.3-.05c.03 0 .03 0 0-.02a.78.78 0 0 0-.24-.07H9.4l-.01-.03-.04-.16.4-.96.37-.75c.08.21.15.46.24.63.13.25.3.49.53.72a44.02 44.02 0 0 0 1.12 1.09l.04-.01c.13-.09.27-.2.39-.35a27.1 27.1 0 0 1 .44-.57l-.01-.04a4.38 4.38 0 0 0-.33-.45 13.3 13.3 0 0 0-2.02-1.93l.6-1.34a.03.03 0 0 1 .03-.02h.02l.12.13-.06-.4V7.7l.01-.01h.01l.03.02v.04c.2.39.3.8.3 1.24a186.93 186.93 0 0 1 .03.4.1.1 0 0 1 .04.06c.01.02.02.02.03 0 .06-.47.04-.89-.08-1.27-.06-.21-.17-.41-.29-.65V7.5h.03l.01-.01h.01a2.97 2.97 0 0 1 .44 1.81l.1-.02h.02v-.52c0-.02 0-.02.02-.02h.02c.04.39-.03.74-.04 1.12l.01.02h.03s.02 0 .02-.02a3.1 3.1 0 0 0-.5-2.8v-.02c.01-.02.02-.02.03 0 .51.67.73 1.42.65 2.26 0 .04.02.07.06.08h.02c.03 0 .05 0 .05-.03a3.33 3.33 0 0 0-.43-2.04c-.11-.2-.25-.35-.42-.44l.15-.38a.02.02 0 0 0 0-.01l-.01-.01h-.81v.04l-.01.03-.34.77-.64 1.46-.18.17c.12-.37.22-.75.33-1.12l.03-.28a.08.08 0 0 0-.07-.08l-.35-.05.38-.9a.03.03 0 0 0-.03-.04h-1.2v-.13c-.01-.02 0-.03.01-.03a2.02 2.02 0 0 1 .68-.03v-.03c-.37-.09-.7-.03-1.08-.04H8.3v-.04l.31-.1v-.01l.01-.01v-.02h-.02A.85.85 0 0 1 8.22 6a11.7 11.7 0 0 1-1.94-.96l.7-.4Z" fill="#FBEB79"/><path d="m13.28 8.45-.02.3-.06-.01a.22.22 0 0 1-.05-.06l-.04-.4a4.23 4.23 0 0 0-4.32-3.42l-.21-.1c-.02 0-.02 0 0-.01l.16-.04.56.02c.21 0 .4.02.55.05a4.28 4.28 0 0 1 3.26 3.05l.17.62ZM5.47 4.88c.04 0 .08-.02.08-.05 0-.03-.03-.05-.07-.06-.04 0-.07.02-.08.05 0 .03.03.06.07.06Z" fill="#F2C135"/><path d="M12.57 4.82c0 .04-.02.06-.08.05-.04 0-.06-.02-.06-.05 0-.02.02-.03.06-.04.05-.02.08 0 .08.04Z" fill="#FBEB79"/><path d="M5.2 5c.02.04.04.06.09.06.2.14.27.24.18.32l-.4.46a5.08 5.08 0 0 0-.6.94h-.01l-.65-.43a.07.07 0 0 1-.03-.04v-.05l.5-.8.52-.6a.09.09 0 0 1 .1-.02l.3.17Z" fill="#FFF88F"/><path d="m13.15 8.68-.07.08A4.1 4.1 0 0 0 9.2 4.92c-.02 0-.04 0-.05.02a.3.3 0 0 0-.07.1 8.6 8.6 0 0 0-1.24.12.1.1 0 0 1-.05-.03V5.1l.03-.03.95-.23a4.23 4.23 0 0 1 4.32 3.42c.03.14.03.27.05.41Z" fill="#F5D656"/><path d="M13.08 8.76a.8.8 0 0 1-.01.37h-.04c-.02.01-.02 0-.03-.01l-.04-.41a4.02 4.02 0 0 0-3.87-3.68.3.3 0 0 1 .07-.1.07.07 0 0 1 .05-.01 4.1 4.1 0 0 1 3.87 3.84Z" fill="#F2C135"/><path d="M6.28 5.05c.68.41 1.33.73 1.94.96.08.03.2.04.37.02l.02.01v.02l-.01.01-.3.11-.02.02.01.02h.01c.37 0 .71-.05 1.07.04l.02.02-.01.01a2.02 2.02 0 0 0-.68.03c-.01 0-.02.01-.02.03l.02.13h-.6c-.03 0-.04.02-.02.04l.9 2.14a.02.02 0 0 0 .03 0l.53-1.24.35.05a.08.08 0 0 1 .07.08c0 .09 0 .18-.03.28-.1.37-.21.75-.33 1.12l-.56 1.3a.03.03 0 0 1-.03.02l-.02-.01-.01-.02-.21-.5a.38.38 0 0 0-.22-.22l-.76-1.74-.41-.95-.15-.31a.06.06 0 0 0-.05-.04h-.76c-.02 0-.03 0-.02.02l.4.9.43 1 .4.93c-.24-.1-.43-.26-.57-.46-.3-.44-.56-.8-.76-1.07L6 7.35 5.26 6c.25-.27.43-.5.75-.74l.28-.2Z" fill="#FFF88F"/><path d="M10.5 5.39a3.93 3.93 0 0 1 2.33 2.96l.04.27.02.27c0 .11 0 .23.02.34a.16.16 0 0 1-.07.01l-.04-.04-.03-.1a3.75 3.75 0 0 0-1.01-2.66l-.1-.1a3.07 3.07 0 0 0-.84-.62 3.65 3.65 0 0 0-1.75-.49.58.58 0 0 1-.3-.08c-.04-.03-.04-.04 0-.04a3.8 3.8 0 0 1 1.72.28Z" fill="#F2C135"/><path d="M12.9 5.22c.03 0 .06-.01.06-.03 0-.03-.02-.05-.06-.05-.03 0-.06.01-.06.03 0 .03.02.05.05.05Z" fill="#FFF88F"/><path d="M5.1 5.23c.04-.01.05-.04.05-.06-.01-.02-.04-.03-.07-.02-.03.01-.05.04-.04.06 0 .02.04.03.07.02Z" fill="#D1A22D"/><path d="M6 5.25c-.32.25-.5.47-.75.74-.11.03-.21.1-.3.22-.2.28-.39.61-.55.98-.05.11-.17.18-.21.3-.1.3-.17.63-.2 1A6.61 6.61 0 0 1 4.1 9.5c0 .13.03.3.1.52-.03-.06-.05-.1-.09-.11-.07-.03-.1-.1-.11-.18-.05-.47-.07-.77-.06-.91a.64.64 0 0 0-.07-.31 1.28 1.28 0 0 0-.2-.28.02.02 0 0 0-.03 0c-.03.05-.06.06-.1.03-.02-.02-.02-.03 0-.04.03-.04.03-.06 0-.1a1.89 1.89 0 0 0-.13-.25c-.11-.18-.1-.35-.08-.56.01-.06-.01-.1-.06-.12a6 6 0 0 1 .9-1.77l.1.05-.5.79v.05c0 .02.02.03.03.04l.65.42a.03.03 0 0 0 .03 0c.16-.34.35-.64.58-.93v.03a.05.05 0 0 0 .07.04l.63-.63a.07.07 0 0 1 .05-.02H6ZM10.82 5.72c.3.15.58.35.83.61-.1.08-.18.07-.28 0a3.77 3.77 0 0 0-1.78-.85c-.27-.05-.52-.04-.77-.08-.07 0-.07-.03 0-.05a2.88 2.88 0 0 1 1.46.17c.27.1.44.18.54.2Z" fill="#F5D656"/><path d="M13.07 9.13c.01.55-.1 1.07-.36 1.55-.02.04-.04.04-.03-.01 0-.1.01-.22.05-.32a3.28 3.28 0 0 0 .14-1.73 3.46 3.46 0 0 1-.04-.27 3.52 3.52 0 0 0-.29-.98 3.93 3.93 0 0 0-2.05-1.98l.02-.05a4.02 4.02 0 0 1 2.45 3.37l.04.4c0 .02.01.03.03.03h.04Z" fill="#F5D656"/><path d="m8.45 5.57-.02-.01v-.02c1.09-.16 2.03.1 2.85.78.03.03.02.04-.02.05h-.04c-.05.02-.09 0-.12-.02a3.32 3.32 0 0 0-2.69-.69H8.4v-.02c0-.01 0-.02.02-.02l.05-.02c.02-.02.01-.03-.01-.03Z" fill="#F5D656"/><path d="M4.74 5.63c.04 0 .06-.03.06-.05 0-.03-.03-.05-.06-.05-.04 0-.06.03-.06.05 0 .03.03.05.06.05Z" fill="#E6B630"/><path d="M10.97 6.32a.7.7 0 0 1 .04.03c.03.02.03.04-.01.04a.65.65 0 0 1-.37-.11 3.4 3.4 0 0 0-1.74-.47.26.26 0 0 1-.17-.06.02.02 0 0 1 .01-.05 3.42 3.42 0 0 1 2.24.61Z" fill="#F5D656"/><path d="M13.41 5.74h.02l.02.01.01.04v.03h-.03a.1.1 0 0 1-.07-.02c-.02 0-.02-.02 0-.04l.05-.02Z" fill="#FFF88F"/><path d="M4.58 5.84c.04 0 .06-.02.06-.05 0-.02-.02-.04-.06-.04-.03 0-.06.02-.06.04 0 .03.03.05.06.05Z" fill="#D1A22D"/><path d="M5.25 5.99 6 7.35c.07.13.18.3.29.45.2.28.46.63.76 1.07.14.2.33.35.56.46l.27.59.08.2c-.03.05-.04.1-.04.12 0 .09-.02.1-.07.03l-.05-.05c-.11-.02-.12 0-.02.06a.8.8 0 0 1 .28.31c.03.06.02.08-.04.05a.88.88 0 0 1-.17-.11c-.02-.02-.02-.03 0-.04h.02c.02-.01.02-.03 0-.04l-.26-.22a.14.14 0 0 0-.08-.03H7.5c-.04 0-.05.01-.02.04a2.37 2.37 0 0 0 .62.52c.06.07.04.09-.03.05-.21-.11-.4-.27-.6-.47a.45.45 0 0 0-.2-.12c-.04 0-.05 0-.03.03.2.27.41.47.7.62a7.84 7.84 0 0 1 .28.16l.01.02a.02.02 0 0 1 0 .02H8.2c-.4-.16-.72-.4-.98-.74a.07.07 0 0 0-.04-.03h-.11c-.02 0-.02.02-.01.03a.5.5 0 0 1 .05.07v.02h-.04a.32.32 0 0 0-.2-.06c-.02 0-.02 0 0 .03.22.34.52.62.9.84.2.12.4.18.57.2a.1.1 0 0 1 .07.03l.04.05c.02.03.02.04-.01.03a2.64 2.64 0 0 1-1.58-1.04.22.22 0 0 1-.04-.1.03.03 0 0 0-.04-.02h-.12a.08.08 0 0 1-.04-.04c-.2-.28-.3-.69-.35-1.03 0-.02-.01-.02-.03-.02h-.02c-.02 0-.03 0-.03.02l.22.85-.01.02h-.02l-.03-.02c-.1-.13-.17-.3-.22-.52a4.8 4.8 0 0 1-.13-.86.48.48 0 0 0-.05-.2c-.03-.05-.06-.05-.06.02a3.15 3.15 0 0 0 2.84 3.52.2.2 0 0 1-.15.04 4.94 4.94 0 0 1-.73-.2 2.99 2.99 0 0 1-1.37-1.03l-.18-.24c-.06-.07-.1-.15-.15-.25l-.19-.49a3.2 3.2 0 0 1-.16-.88 1.53 1.53 0 0 0-.07-.28h-.02a.02.02 0 0 0-.03.01 3.38 3.38 0 0 0 .72 2.27 3.29 3.29 0 0 0 2.12 1.2 5.65 5.65 0 0 1 .3.06c-.06.03-.13.04-.24.02A3.43 3.43 0 0 1 5.64 9.3a.75.75 0 0 0-.04-.22c-.04-.13-.03-.22-.13-.35a.06.06 0 0 1-.01-.04l.06-.87c0-.01 0-.02-.02-.02h-.02v.01l-.23.97c-.02-.06-.07-.08-.16-.05l-.03-.05a4.83 4.83 0 0 1 .22-1.16c-.02-.1-.05-.1-.09 0l-.07.19c-.06-.02-.1-.01-.12.02-.01.01-.02.02-.04.01h-.04l-.03.05a3.4 3.4 0 0 0-.17.9H4.7l-.02-.01v-.24a6.71 6.71 0 0 1 .3-1.14l-.2-.45a.03.03 0 0 0-.05 0 4.2 4.2 0 0 0-.52 2A5.36 5.36 0 0 0 4.28 10c-.02.08-.04.08-.08 0-.06-.21-.09-.38-.1-.51A6.61 6.61 0 0 0 4 8.48c.03-.36.1-.7.2-.98.04-.13.16-.2.21-.31.16-.37.35-.7.56-.98a.57.57 0 0 1 .29-.22Z" fill="#FBEB79"/><path d="M4.3 6.28a.05.05 0 1 0 0-.1.05.05 0 0 0 0 .1Z" fill="#F2C135"/><path d="m12.77 9.1-.18.84c0 .02-.02.02-.03 0a.14.14 0 0 0-.07-.02c-.02 0-.03-.02-.03-.04l.07-.3c0-.04-.01-.05-.05-.05-.05.02-.1 0-.13-.02-.02-.01-.02-.05-.01-.1.03-.15.05-.26.05-.34 0-.85-.28-1.6-.82-2.25a.04.04 0 0 1 0-.05c.04-.11.1-.22.19-.33.7.76 1.03 1.65 1.01 2.67Z" fill="#F5D656"/><path d="m7.38 6.83-.59.58-.39-.91c0-.01 0-.02.02-.02h.76a.06.06 0 0 1 .05.04l.15.3Z" fill="#692702"/><path d="M8.7 6.48h1.19a.03.03 0 0 1 .03.04l-.38.9L9 8.66a.02.02 0 0 1-.03 0l-.9-2.14c-.02-.02 0-.04.02-.04h.6Z" fill="#6E492B"/><path d="m11.44 6.88-.46 1.03-.56-.59.34-.77V6.5l.01-.01.02-.01h.8a.02.02 0 0 1 0 .02l-.15.38Z" fill="#692702"/><path d="M13.93 6.73c.03.01.06 0 .07-.02 0-.03-.01-.05-.04-.07-.03 0-.06 0-.07.03-.01.02 0 .05.04.06Z" fill="#FFF88F"/><path d="m7.8 7.78-.57.62-.44-1 .59-.57.41.95Z" fill="#6E3724"/><path d="M5.12 7.7c-.14.43-.2.87-.2 1.33l.01.47c0 .09.02.18.04.27l.07.27a4.03 4.03 0 0 0 5.4 2.76h-.04c-.02 0-.04 0-.04-.03v-.04l.33-.13a.14.14 0 0 1 .12.01c.02.01.02.03 0 .04l-.23.12v.01l.02.02a.6.6 0 0 1 .3-.03.88.88 0 0 1 .52.38.02.02 0 0 1 0 .02c-.45.23-.9.4-1.33.51-.14.04-.27.06-.4.07l-.07-.4-.01-.03a5.33 5.33 0 0 1-1.2-.02c-.22-.02-.5-.1-.74-.15a16.73 16.73 0 0 0-.65-.28 4.48 4.48 0 0 1-2.38-3.89c0-.08-.02-.14-.06-.15-.13-.05-.23-.15-.35-.03a4.2 4.2 0 0 1 .53-1.97.03.03 0 0 1 .02.02l.2.45v.04c-.12.32-.22.68-.3 1.1v.24l.02.01h.03a3.4 3.4 0 0 1 .2-.94h.03c.02 0 .03 0 .04-.02.02-.03.06-.04.12-.02Z" fill="#F5D656"/><path d="M14.04 6.98c.03 0 .06 0 .07-.04 0-.02-.02-.05-.05-.06-.03 0-.06.01-.07.04 0 .03.02.05.05.06Z" fill="#FFF88F"/><path d="M10.52 9.34a.95.95 0 0 0-.12.21 23.82 23.82 0 0 1-.28.7l-.37.75-.05-.13.17-.42 1.11-2.54.46-1.03c.17.1.31.24.42.44.36.65.5 1.32.43 2.04 0 .03-.02.04-.05.03h-.02c-.04 0-.06-.04-.06-.08.08-.84-.14-1.6-.65-2.27h-.02l-.02.03v.01a3.1 3.1 0 0 1 .5 2.79l-.01.02h-.03l-.01-.02c.01-.38.08-.73.05-1.11v-.01h-.03l-.02.01v.53h-.01l-.1.02-.02-.01a2.97 2.97 0 0 0-.44-1.8h-.03v.03c.1.24.22.44.28.65.12.38.14.8.08 1.26 0 .03-.02.03-.03 0a.1.1 0 0 0-.04-.04l-.02-.02v-.39a2.88 2.88 0 0 0-.35-1.3h-.01v.02l.07.4h-.01l-.12-.12a.03.03 0 0 0-.03 0 .03.03 0 0 0-.02 0l-.6 1.35Z" fill="#F5D656"/><path d="M14.13 7.23c.04 0 .07-.02.07-.04 0-.03-.02-.05-.05-.06-.03 0-.06.02-.07.04 0 .03.02.05.05.06Z" fill="#FFF88F"/><path d="M4.12 9.91c.03.1.08.2.1.3a4.8 4.8 0 0 0 3.48 3.53l.79.17c.01 0 .03 0 .04.02l.02.04.03.04h.05l.55.03.4.4c.02.02.03.01.03 0 .01-.04.03-.05.06-.06.02 0 .02 0 .03.02v.02l-.01.03-.05.01c-.03 0-.03.02 0 .04l.47.4a6 6 0 0 1-6.83-7.7c.05.02.07.05.06.11-.03.2-.03.38.08.56.06.08.1.16.14.24.02.05.02.07-.02.1v.05c.05.03.08.02.11-.02a.02.02 0 0 1 .03 0c.09.08.15.17.2.27.05.08.07.18.07.3 0 .15.01.45.06.92 0 .08.04.15.11.18Z" fill="#D1A22D"/><path d="m10.42 7.32.56.6-1.1 2.53a1.86 1.86 0 0 0-.58-.54l.48-1.13.64-1.46Z" fill="#400B01"/><path d="M14.89 9.03c0 .45-.06.9-.16 1.35-.05 0-.08-.02-.1-.03-.2-.2-.4-.41-.63-.61l.03-.44c.01-.2.02-.4 0-.56 0-.07-.05-.1-.13-.08-.04-.45-.13-.89-.27-1.32.08.07.14.13.17.2.13.25.2.43.4.57.16.1.33.13.47.36.1.17.17.36.22.56Z" fill="#F2C135"/><path d="M14.23 7.47c.03 0 .06-.03.05-.05 0-.03-.03-.05-.07-.04-.03 0-.05.03-.05.05 0 .03.03.05.07.04Z" fill="#FFF88F"/><path d="M5.06 8.68c-.04.4-.03.74.03 1.03a4.07 4.07 0 0 0 2.39 2.94 3.97 3.97 0 0 0 2.88.08v.04c0 .02.02.03.04.03h.04v.03a4.03 4.03 0 0 1-5.47-3.06c-.02-.1-.04-.18-.04-.27v-.47c-.01-.46.05-.9.19-1.32l.07-.2c.04-.1.07-.09.09.01l-.02.09-.14.55-.06.52Z" fill="#F2C135"/><path d="M14.3 7.64a.05.05 0 0 1 .05.03c.02.02 0 .04-.04.06a.06.06 0 0 1-.05-.01c-.06-.04-.05-.06.04-.08Z" fill="#FBEB79"/><path d="M8.55 9.52v.05a.1.1 0 0 0-.05-.04c-.02 0-.04 0-.06.03-.17.13-.36.25-.55.36l-.27-.59-.4-.93.57-.62.76 1.74Z" fill="#8A5239"/><path d="M8.82 12.33a.75.75 0 0 0 .12.24.02.02 0 0 1 0 .01h-.02l-.5-.06a3.59 3.59 0 0 1-2.9-2.76c-.02-.03-.04-.04-.07-.03h-.01c-.05.02-.06.05-.05.1a3.69 3.69 0 0 0 3.52 2.9l.15-.01.02-.04c0-.05 0-.08.02-.14.07-.2.16-.39.25-.58l.04.16.01.02.02.01c.1.01.17.04.25.07.02.01.02.02 0 .02l-.3.06-.02.01v.02c0 .02 0 .02.02.02a3.1 3.1 0 0 0 .8-.17v.01l-.07.04h-.01v.02c0 .02 0 .03.02.03.03 0 .03.01.02.03l-.03.01a2.73 2.73 0 0 1-.9.2c-.01 0-.01 0 0 0v.02h.01c.27 0 .55-.04.86-.12.1-.03.18-.04.26-.02.06 0 .07.02 0 .05l-.14.06v.02l.02.01.34-.08c.14-.03.15 0 .04.07-.2.13-.5.22-.7.27a3.9 3.9 0 0 1-.45.06 5.8 5.8 0 0 0-.57.09c-.48-.01-.94-.11-1.4-.3A4.07 4.07 0 0 1 5.1 9.71a3.55 3.55 0 0 1-.03-1.03c0 .03.02.05.03.05.02.15.02.3.01.46 0 .13.03.24.05.37a4.64 4.64 0 0 0 .35 1.18 3.89 3.89 0 0 0 2.74 2.1 1.64 1.64 0 0 0 .43.02l.05-.03.02-.02a.04.04 0 0 0-.04-.05A3.78 3.78 0 0 1 5.31 9.7c-.01-.06-.06-.11-.06-.18v-.74l.22-.97h.05l-.06.88v.04c.11.13.1.22.14.35.03.08.04.16.04.22a3.43 3.43 0 0 0 2.95 3.05c.1.02.18.01.23-.02Z" fill="#F5D656"/><path d="M14.34 7.99c.04 0 .07-.02.08-.04 0-.03-.03-.06-.07-.06-.04 0-.07.01-.08.04 0 .03.03.06.07.06Z" fill="#FBEB79"/><path d="M3.55 8.52c.03.02.06 0 .07-.02.01-.02 0-.05-.03-.06-.03-.01-.06 0-.07.02-.01.02 0 .05.03.06ZM7.97 10.11l.5 1.16a2 2 0 0 0 .27.85A3.15 3.15 0 0 1 5.9 8.6c.01-.07.04-.07.07-.01.03.04.05.13.05.19.01.22.05.5.13.86.05.21.12.39.22.52l.03.02h.02v-.02l-.2-.85c-.01-.02 0-.03.02-.03h.02c.02 0 .02.01.03.03.06.34.16.75.35 1.03.01.02.02.03.04.03h.13a.03.03 0 0 1 .03.03c0 .03.02.06.04.1.4.54.92.89 1.58 1.04.03 0 .03 0 .01-.03l-.04-.05a.1.1 0 0 0-.07-.04c-.17 0-.37-.07-.58-.2-.37-.2-.67-.49-.9-.83-.01-.02 0-.03.02-.03.07 0 .14.02.2.07h.03v-.03l-.05-.07v-.03h.12l.04.03a2.42 2.42 0 0 0 1 .75l.01-.02v-.03L8.21 11l-.26-.14c-.3-.15-.51-.35-.7-.62-.03-.03-.02-.04.01-.03.07.01.16.06.21.12.2.2.39.36.6.47.07.04.09.02.03-.05l-.06-.05c-.23-.14-.41-.3-.56-.47-.03-.03-.02-.04.02-.04h.03c.03 0 .06.02.08.04l.26.21c.02.02.02.03 0 .03h-.02c-.02.02-.02.03 0 .05.06.05.12.09.17.11.06.03.07.01.04-.05a.8.8 0 0 0-.28-.31c-.1-.07-.1-.08.02-.05.02 0 .03.01.05.04.05.06.08.06.07-.03 0-.03 0-.07.04-.13Z" fill="#F5D656"/><path d="M14 9.74a26.74 26.74 0 0 1-.25.94c-.03.1-.04.18-.01.23.06.13.1.26.14.4l.04.03a1.04 1.04 0 0 1 .34.25v.01l-.04.2a.04.04 0 0 0 .01.03c.02.02.04.02.05.01-.1.2-.21.38-.34.56l-.4-.36c.06 0 .08-.01.08-.05a.05.05 0 0 0-.03-.05h-.02c-.05 0-.07.02-.06.07-.13-.12-.26-.16-.37-.14l.05-.1c.08-.13.05-.26.12-.39a4.93 4.93 0 0 0 .6-2.72c.07-.02.11 0 .12.08.02.15.01.37 0 .56l-.03.44Z" fill="#FBEB79"/><path d="M5.25 8.78a9.1 9.1 0 0 0 0 .74c0 .07.05.12.06.18a3.78 3.78 0 0 0 3.41 3.07.04.04 0 0 1 .02.04l-.02.02-.05.03c-.17 0-.31 0-.43-.03a3.89 3.89 0 0 1-3.1-3.27c0-.13-.04-.24-.04-.37v-.46c.08-.03.13-.01.15.05ZM4.88 10.36a.4.4 0 0 1-.23-.01.07.07 0 0 1-.03-.03.48.48 0 0 0-.19-.17h-.02a.04.04 0 0 0-.04.02v.03c.04.32.21.72.37 1.04 0 .02 0 .02-.02.02a.25.25 0 0 1-.12-.05 4.75 4.75 0 0 1-.37-1c-.03-.1-.08-.2-.1-.3.03.01.05.05.07.1.04.08.06.08.08 0v-.05a5.36 5.36 0 0 1-.05-1.16c.12-.12.22-.02.35.03.04.01.07.07.06.15 0 .48.08.94.24 1.38Z" fill="#F2C135"/><path d="M13.26 8.74c.03.48.01.97-.16 1.4 0 .02-.02.02-.04.03h-.02l-.02-.05c.09-.45.15-.91.18-1.38h.06ZM8.74 12.12l.07.18a5.65 5.65 0 0 0-.55-.06 3.29 3.29 0 0 1-1.85-1.17 3.38 3.38 0 0 1-.7-2.28h.04l.06.28a3.2 3.2 0 0 0 .35 1.37c.04.1.09.18.15.25l.18.24c.34.47.8.81 1.37 1.04.16.06.4.12.73.19.05 0 .1 0 .15-.04ZM9.78 8.78 9.3 9.9l-.28.63a.02.02 0 0 1-.02.01.02.02 0 0 1-.02-.01l-.42-.97-.01-.05c.1.04.17.11.22.22a16.86 16.86 0 0 1 .24.53l.02-.01v-.01l.57-1.3.18-.17Z" fill="#F5D656"/><path d="M3.54 9.32c.03 0 .07-.01.07-.04 0-.02-.02-.05-.05-.05-.04-.01-.07 0-.07.03 0 .02.02.05.05.06Z" fill="#FBEB79"/><path d="M10.52 9.34c.11.08.2.13.23.17.62.5 1.22 1.09 1.79 1.76a4.37 4.37 0 0 1 .34.5c0 .01 0 .03-.02.04l-.42.52c-.12.15-.26.26-.4.35a.06.06 0 0 1-.06 0c-.32-.3-.68-.67-1.09-1.08-.22-.23-.4-.47-.53-.72-.1-.17-.16-.42-.24-.63.04-.16.1-.32.18-.48l.1-.22a.95.95 0 0 1 .12-.21Z" fill="#FFF88F"/><path d="M3.57 9.58c.03 0 .06-.02.06-.05 0-.03-.03-.04-.07-.04-.03 0-.06.02-.06.05 0 .03.03.04.07.04Z" fill="#FBEB79"/><path d="m8.56 9.57.42.97a.02.02 0 0 0 .02.01h.01v-.01l.29-.63c.23.12.4.32.57.54l-.17.42-.68 1.57c0 .02-.02.02-.03 0l-.52-1.17-.5-1.16-.08-.2a4.27 4.27 0 0 0 .6-.38.1.1 0 0 1 .07.04Z" fill="#5E0200"/><path d="M8.82 12.33v-.03l-.08-.18a2 2 0 0 1-.27-.85l.52 1.17c.01.02.02.02.03 0l.68-1.57.05.13-.4.96-.26.58c-.02.06 0 .1-.01.14l-.02.04a8.65 8.65 0 0 1-.62-.05 3.69 3.69 0 0 1-3.05-2.84c-.01-.05 0-.08.05-.1h.01c.03 0 .05 0 .06.03a3.59 3.59 0 0 0 3.43 2.8.75.75 0 0 1-.12-.23Z" fill="#F2C135"/><path d="M3.6 9.85c.03 0 .06-.02.06-.05 0-.02-.02-.05-.06-.05-.04 0-.07.01-.07.04s.03.05.06.06Z" fill="#FBEB79"/><path d="M14 9.74c.22.2.44.4.64.61l.09.03c-.12.26-.16.5-.12.74-.09.24-.2.49-.33.72h-.05a.04.04 0 0 1-.01-.05l.04-.19a.03.03 0 0 0-.01-.02c-.13-.12-.24-.2-.33-.24a.06.06 0 0 1-.04-.04 2.82 2.82 0 0 0-.14-.39c-.03-.05-.02-.13.01-.23a6.05 6.05 0 0 0 .25-.94Z" fill="#F5D656"/><path d="M3.59 10.03c.05-.02.08-.03.09-.02.04.07.02.1-.05.09l-.04-.01-.01-.01a.03.03 0 0 1 0-.04Z" fill="#FBEB79"/><path d="M4.88 10.36a4.48 4.48 0 0 0 2.79 2.79c.03.12.1.22.19.3.06.05.16.17.02.23l-.14-.04a11.38 11.38 0 0 1-1.04-.36l-.03.06A4.8 4.8 0 0 1 4.6 11.2c.05.03.09.05.12.05.02 0 .03 0 .02-.02a3.82 3.82 0 0 1-.37-1.07.04.04 0 0 1 .06-.02c.08.04.15.1.19.17l.03.03a.4.4 0 0 0 .23.01Z" fill="#F0AF15"/><path d="M3.7 10.36c.03 0 .06-.02.06-.04 0-.03-.03-.05-.06-.05s-.06.01-.07.04c0 .02.03.04.06.05Z" fill="#FBEB79"/><path d="M13.58 10.46c-.01.11 0 .18.05.2-.08.25-.19.49-.32.72-.07.13-.04.26-.12.38a.33.33 0 0 0-.05.11l-.28.35a5.03 5.03 0 0 1-1.41 1.16h-.05v-.02a.03.03 0 0 1 0-.02v-.01l.53-.37c.19-.13.37-.29.55-.49a.15.15 0 0 0 .04-.09c.01-.1.03-.14.1-.22a5 5 0 0 0 .96-1.7Z" fill="#E6B630"/><path d="M3.72 10.53c.06-.03.09-.02.1.03a.05.05 0 0 1-.06.05.1.1 0 0 1-.05-.03c-.02-.02-.01-.04.01-.05ZM3.85 10.87c.03 0 .06-.03.06-.05 0-.03-.03-.05-.06-.05-.04 0-.07.02-.07.05 0 .03.03.05.07.05ZM3.94 11.1c.03.01.06 0 .06-.03s-.02-.05-.06-.05c-.03 0-.06.01-.06.04 0 .02.03.05.06.05ZM4.06 11.36c.03-.01.05-.04.04-.07 0-.02-.04-.04-.07-.03-.03.01-.05.04-.04.06 0 .03.04.04.07.04ZM4.17 11.6c.03-.01.06-.04.06-.06 0-.03-.03-.05-.07-.05-.03 0-.06.03-.06.05 0 .03.03.05.07.05ZM4.3 11.82c.03 0 .06-.02.06-.05 0-.03-.03-.05-.06-.05-.04 0-.07.02-.07.05 0 .03.03.05.06.05Z" fill="#FBEB79"/><path d="M13.51 12c0 .02.02.04.04.04l.4.36c-.25.35-.53.68-.84.97-.02-.05-.05-.06-.09-.04l-.35.28a4.7 4.7 0 0 1-.9.58l-.27-.3h-.03l-.03.04a.04.04 0 0 1-.03 0 .04.04 0 0 1-.03-.01c-.02-.03 0-.05.04-.06v-.02l-.2-.23a.05.05 0 0 1 0-.04v-.02l.01-.01.22-.16a5.03 5.03 0 0 0 1.7-1.51c.1-.02.23.02.36.14Z" fill="#FFF88F"/><path d="M4.43 12.05c.04 0 .07-.02.07-.06 0-.03-.03-.05-.07-.05-.04 0-.07.02-.07.05 0 .03.03.06.07.06Z" fill="#FBEB79"/><path d="M13.55 12.04c-.02 0-.03-.02-.04-.03 0-.05.01-.07.06-.08a.05.05 0 0 1 .04.02.05.05 0 0 1 .01.03c0 .05-.02.07-.07.06ZM13.27 12.46c.03 0 .05-.03.04-.06-.01-.03-.04-.04-.07-.03-.04 0-.05.03-.05.06.01.03.04.04.08.03Z" fill="#F0AF15"/><path d="M4.75 12.48c.03 0 .06-.03.06-.06s-.03-.05-.07-.05c-.04 0-.07.03-.07.06s.04.05.08.05ZM5.1 12.86c.03 0 .05-.02.05-.04 0-.03-.02-.05-.05-.05-.04 0-.06.02-.06.05 0 .02.02.04.05.04Z" fill="#FBEB79"/><path d="M12.93 12.86c-.04.01-.06 0-.07 0a.05.05 0 0 1-.02-.04.05.05 0 0 1 .02-.04.07.07 0 0 1 .07-.01l.02.01v.08h-.02Z" fill="#D1A22D"/><path d="M5.47 13.22c.03 0 .06-.01.07-.04 0-.02-.02-.05-.05-.05-.04-.01-.07 0-.08.03 0 .02.02.05.06.06Z" fill="#FBEB79"/><path d="M9.7 13.75c-.62.08-1.23.06-1.82-.07.14-.06.04-.18-.02-.24a.55.55 0 0 1-.2-.3c.26.06.53.14.75.16a5.32 5.32 0 0 0 1.2.02l.01.03.07.4ZM7.74 13.64a.19.19 0 0 0-.03.1 4.1 4.1 0 0 1-1.04-.4c0-.03.02-.05.03-.06h.06c.32.14.65.26.98.36Z" fill="#F2C135"/><path d="M13.1 13.37c-.44.42-.94.77-1.5 1.03l-.07-.08.23-.13a4.7 4.7 0 0 0 1.26-.86c.04-.02.07 0 .09.04Z" fill="#F5D656"/><path d="M6.18 13.64v.02a.04.04 0 0 1-.06.03c-.05-.02-.08-.03-.07-.05 0-.02.02-.03.07-.05a.04.04 0 0 1 .04 0 .04.04 0 0 1 .02.04v.01Z" fill="#FBEB79"/><path d="M11.66 13.81c.03 0 .06-.02.06-.04 0-.03-.03-.05-.07-.04-.04 0-.06.02-.06.04 0 .03.03.05.07.04Z" fill="#F2C135"/><path d="M6.34 13.73h.01c.03 0 .04.02.05.04 0 .02 0 .03-.02.04-.02.02-.04.02-.07 0a.03.03 0 0 1-.02-.02c0-.03 0-.05.05-.06Z" fill="#FBEB79"/><path d="M11.25 14.43a4.34 4.34 0 0 1-.84.26 13.3 13.3 0 0 1-.37-.22.28.28 0 0 0-.15-.03c-.02 0-.03-.01-.03-.03v-.1l-.01-.04-.23-.26.88-.2c.03 0 .05 0 .07.02.26.16.48.36.68.6Z" fill="#F5D656"/><path d="M6.59 13.95c.03 0 .06-.03.06-.06s-.04-.05-.07-.04c-.04 0-.07.03-.07.05 0 .03.04.05.08.05Z" fill="#FBEB79"/><path d="m9.62 14.01.23.26v.14c0 .02.02.03.04.03.05 0 .1 0 .15.03a13.3 13.3 0 0 0 .42.22c.26-.06.53-.14.79-.26l.28-.1.08.07a6 6 0 0 1-1.5.5l-.48-.4c-.02-.02-.02-.03.01-.04l.05-.01c.01 0 .02-.01.01-.03v-.02c0-.01-.01-.02-.03-.02a.06.06 0 0 0-.06.05c0 .02-.01.03-.03.01l-.4-.4.44-.03Z" fill="#E6B630"/><path d="M7.27 14.17c.05-.02.08-.02.1 0a.04.04 0 0 1-.04.07c-.03 0-.04 0-.06-.02a.03.03 0 0 1 0-.04Z" fill="#FFF88F"/><path d="m9.1 14.42.07.01a.04.04 0 0 1 .01.04.04.04 0 0 1-.02.03.1.1 0 0 1-.05 0c-.02 0-.03 0-.03-.02v-.04c0-.01.01-.02.03-.02Z" fill="#FBEB79"/></svg>