<!-- by TradingView --><svg width="18" height="18" viewBox="0 0 18 18" xmlns="http://www.w3.org/2000/svg"><path fill="red" d="M0 0h18v18H0z"/><path d="M8.97 5.4a2.72 2.72 0 0 0-1.18.38.07.07 0 0 1-.07-.04V5.7a17.01 17.01 0 0 1 .18-1.69L7.94 4c.05 0 .1.04.14.08l.9 1.08c.03.05.08.08.08.15a.1.1 0 0 1-.09.1ZM9.7 5.33l1.27-1.1a.1.1 0 0 1 .16.07v.6c-.01.26-.08.63-.12.9-.02.12-.05.17-.14.24a.07.07 0 0 1-.09 0 3.54 3.54 0 0 0-1.08-.6.07.07 0 0 1 0-.1Z"/><path d="M8.72 5.2a3.66 3.66 0 0 0-.8.27l.12-1.08c0-.02 0-.02.02 0l.67.78a.02.02 0 0 1 0 .04ZM10.77 5.7a2.09 2.09 0 0 0-.77-.36.02.02 0 0 1 0-.03l.86-.74c.01-.02.02-.01.03.01a4.65 4.65 0 0 1-.12 1.12Z" fill="#FFA511"/><path d="M7.3 6.08c-.34.24-.63.55-.87.94a.1.1 0 0 1-.04.04.08.08 0 0 1-.05.01c-.03 0-.05-.02-.08-.06a70.74 70.74 0 0 1-.91-1.94c-.04-.08-.04-.14-.01-.22a.09.09 0 0 1 .08-.06l.04.01 1.98 1c.08.04.1.1.07.19 0 .02-.01.03-.03.03-.06.03-.12.03-.17.06Z"/><path d="M7.13 5.96a2.99 2.99 0 0 0-.77.87.01.01 0 0 1-.02-.01l-.67-1.59c-.02-.05-.01-.06.04-.04l1.41.72a.03.03 0 0 1 .02.02.03.03 0 0 1-.01.03Z" fill="#FFA511"/><path d="m11.43 8.53-.02.02a.04.04 0 0 0 .02.04 1 1 0 0 1 .36.42 2.38 2.38 0 0 1 .13.59 2.36 2.36 0 0 1-.8 1.97c-.11.09-.26.24-.42.32-.35.18-.7.28-1.07.29a4 4 0 0 1-1.28-.17 2.01 2.01 0 0 1-.64-.33 3.11 3.11 0 0 1-1.13-1.66 4.91 4.91 0 0 1-.07-2.26 3 3 0 0 1 .45-.97c.1-.15.3-.34.46-.48l.38-.29A5.23 5.23 0 0 1 9 5.6c.19-.03.46.03.66.06s.36.14.54.21c.07.03.16.1.27.2a1.88 1.88 0 0 1 .56 1.66.05.05 0 0 0 .03.03h.02c.15 0 .4-.02.53.04.13.07.26.18.18.34-.08.15-.2.28-.36.4Z"/><path d="M7.14 9.01c.08.33.46.4.75.4.44.01.87-.07 1.27-.24.2-.08.36-.22.5-.42.03-.06.09-.06.16-.01.08.04.12.1.24.1.28.04.58.01.9-.09.16-.05.27.08.4.15.04.03.08.07.1.12l.17.32c.08.45.04.88-.14 1.28-.07.16-.23.33-.3.45-.09.16-.21.24-.39.4-.15.13-.38.24-.68.32-.4.1-.8.12-1.2.04-.2-.04-.43-.1-.67-.17-.23-.07-.35-.18-.57-.36a1.37 1.37 0 0 1-.22-.23c-.15-.18-.28-.3-.35-.48-.08-.2-.23-.47-.29-.73a4.51 4.51 0 0 1-.07-.49c-.02-.19-.07-.48-.04-.72L6.78 8a2.54 2.54 0 0 1 1.24-1.75c.25-.15.59-.22.88-.28.13-.03.25-.03.38 0a41.84 41.84 0 0 1 .52.1c.37.15.65.4.83.76.07.14.1.29.11.46.01.2 0 .35-.01.48 0 .03-.02.05-.03.06a.11.11 0 0 1-.06.04c-.3.08-.55.25-.8.42-.09.06-.17.05-.28.02a2.8 2.8 0 0 0-1.87.13c-.22.09-.61.31-.55.57Z" fill="#FFA511"/><path d="M11.53 7.58a11.32 11.32 0 0 0-.1-1.04h.02a31.47 31.47 0 0 1 1.74-.32.04.04 0 0 1 .03.04c.01.1 0 .18-.05.23l-1.14 1.1a.51.51 0 0 1-.17.13c-.1.04-.32.02-.33-.14Z"/><path d="M11.76 7.44a1.6 1.6 0 0 0-.1-.7c-.02-.04 0-.06.04-.07l1.03-.18c.04 0 .05 0 .02.04l-.95.93c-.03.02-.04.02-.04-.02Z" fill="#FFA511"/><path d="M6.18 9.09c.01.1.1.16.04.28a.09.09 0 0 1-.1.05 64.88 64.88 0 0 1-2.07-.7A.07.07 0 0 1 4 8.7c-.03-.09 0-.15.1-.19l1.17-.49a9.13 9.13 0 0 1 .9-.3.06.06 0 0 1 .05.03v.03c-.06.4-.08.84-.05 1.32Z"/><path d="M4.5 8.6 6 7.9c.01 0 .02 0 .01.02a2.76 2.76 0 0 0-.06 1.19.02.02 0 0 1-.01 0L4.5 8.64c-.04 0-.04-.02 0-.04Z" fill="#FFA511"/><path d="M11 7.97a.14.14 0 0 0-.2.02l-.37.5a.14.14 0 0 0 .02.2c.07.05.16.03.2-.03l.38-.5a.14.14 0 0 0-.02-.2ZM8.75 8.35a.1.1 0 0 0-.14.01l-.55.74a.1.1 0 0 0 .02.15c.05.03.1.02.14-.02l.55-.74a.1.1 0 0 0-.02-.14Z" fill="#fff"/><path d="m11.99 8.54.03-.07a.05.05 0 0 1 .04-.02 16.88 16.88 0 0 1 1.76.16c.19.02.25.18.09.31l-1.24.97a.62.62 0 0 1-.31.14.08.08 0 0 1-.07-.02.08.08 0 0 1-.02-.07 1.6 1.6 0 0 0-.31-1.18c-.06-.08-.06-.14 0-.2.02 0 .02-.01.03-.02Z"/><path d="M12.5 9.57c.01-.27-.09-.56-.26-.76-.05-.06-.03-.08.04-.06.2.07.4.04.6.07.18.02.39.04.61.04.03 0 .03 0 .01.02l-.95.72a.03.03 0 0 1-.04 0 .03.03 0 0 1-.01-.03Z" fill="#FFA511"/><path d="m10 9.27-.22.08c-.09.03-.12 0-.07-.1l.1-.15a.04.04 0 0 1 .05-.02c.05.01.1.04.16.07a.06.06 0 0 1 .01.1l-.03.02ZM6.09 10.13a.34.34 0 0 1 .09-.06c.02-.02.03 0 .03.02.07.38.23.76.5 1.14.13.2.27.34.42.43l.02.05c0 .04-.01.08-.03.1a.06.06 0 0 1-.05.02c-.15 0-.32 0-.51.03-.46.05-.86.03-1.29.06-.23.02-.37-.04-.64-.13a.06.06 0 0 1-.04-.04c-.02-.07 0-.15.07-.22.4-.43.8-.84 1.2-1.23.06-.06.17-.1.23-.17Z"/><path d="M5 11.44c.27-.22.52-.53.72-.72.13-.13.21-.26.32-.42.01-.02.02-.02.03 0l.01.2c.1.38.3.73.6 1.05.04.04.03.05-.03.04a2.1 2.1 0 0 0-.52-.07l-1.11-.02c-.07 0-.08-.02-.02-.06Z" fill="#FFA511"/><path d="M12.35 10.32c.34.45.7.99 1.18 1.69a.4.4 0 0 1 .04.07.11.11 0 0 1-.02.12.11.11 0 0 1-.12.03l-1.42-.43a1.14 1.14 0 0 1-.33-.16.04.04 0 0 1 0-.04c.09-.11.15-.2.2-.3a4.78 4.78 0 0 0 .37-.99.07.07 0 0 1 .07-.01l.03.02Z"/><path d="m12.33 10.8.02-.12c0-.03 0-.03.02 0l.79 1.16c.01.03 0 .03-.02.03l-1.1-.28c-.03 0-.03-.02-.02-.03.13-.23.23-.49.31-.77Z" fill="#FFA511"/><path d="M11.2 11.95a84.03 84.03 0 0 0 .16-.12c.02 0 .03 0 .04.02.06.06.1.14.1.25l.17 1.52a.4.4 0 0 1-.02.16.05.05 0 0 1-.03.03c-.08.02-.17-.01-.28-.1a19.57 19.57 0 0 1-1.27-1.13.09.09 0 0 1 .06-.13c.45-.1.8-.27 1.07-.5ZM8.02 12.33a3.84 3.84 0 0 0 1.14.27.09.09 0 0 1 .04.06v.04a.4.4 0 0 1-.12.16c-.38.35-.82.72-1.31 1.12a.1.1 0 0 1-.15-.02c-.16-.2-.1-.57-.08-.93 0-.21 0-.58.04-.87a.06.06 0 0 1 .09-.05c.12.07.22.17.35.22Z"/><path d="m11.44 13.47-.03-.01a17.93 17.93 0 0 0-1.03-.85 2.47 2.47 0 0 0 .88-.5h.03a18.23 18.23 0 0 0 .15 1.36ZM7.8 13.5l-.14-1.15c0-.02 0-.02.02-.01a2.85 2.85 0 0 0 1.1.4.02.02 0 0 1-.01.01l-.93.77a.03.03 0 0 1-.04 0v-.02Z" fill="#FFA511"/></svg>