<!-- by TradingView --><svg width="18" height="18" viewBox="0 0 18 18" xmlns="http://www.w3.org/2000/svg"><path fill="url(#a)" d="M0 0h18v18H0z"/><path d="M5.03 9.38a1330.62 1330.62 0 0 0 4.3-4.37H6.9A2.02 2.02 0 0 0 5 6.93a150.61 150.61 0 0 0 .01 2.45Zm4.63-.56 3.3-.13c.03 0 .04-.01.04-.03V7.02c0-1-.76-1.83-1.71-2a.57.57 0 0 0-.21 0 .12.12 0 0 0-.07.03L8.48 7.63a.02.02 0 0 0-.01 0 .02.02 0 0 0 0 .02L9.62 8.8c.01.02.03.02.05.02Zm-1.01 4.11a.06.06 0 0 1-.06.06h-1.5a2.04 2.04 0 0 1-2.08-1.81c0-.03 0-.05.02-.06l2.55-2.58.02-.01h.02l1.1 1.11a.19.19 0 0 1 .05.14l-.12 3.15Zm4.32-3.05-3 .12a.04.04 0 0 0-.04.04l-.1 2.9c0 .03 0 .05.04.05h.42c.43.01.85.02 1.18-.06.8-.2 1.5-.98 1.52-1.84a23.88 23.88 0 0 0-.02-1.21Z" fill="url(#b)"/><defs><linearGradient id="a" x1="3.35" y1="3.12" x2="21.9" y2="24.43" gradientUnits="userSpaceOnUse"><stop stop-color="#1A1E21"/><stop offset="1" stop-color="#06060A"/></linearGradient><linearGradient id="b" x1="13" y1="6.55" x2="7.86" y2="12.93" gradientUnits="userSpaceOnUse"><stop stop-color="#3E7DCE"/><stop offset="1" stop-color="#3064AB"/></linearGradient></defs></svg>