<!-- by TradingView --><svg width="18" height="18" viewBox="0 0 18 18" xmlns="http://www.w3.org/2000/svg"><path fill="#1572FE" d="M0 0h18v18H0z"/><path d="M9.67 9.02v1.88c0 .34.17.54.48.59.24.04.38-.1.53-.31 1.6-2.22 2.63-3.61 3.05-4.19a.68.68 0 0 1 .63-.3c.43.04.74.52.61.96-.03.1-.12.25-.27.45l-2.86 3.94c-.19.26-.34.44-.47.54-.66.55-1.59.55-2.28.05-.61-.45-.77-1.16-.76-1.93V8.98c.02-1.14 0-1.77 0-1.88 0-.34-.17-.54-.48-.59-.24-.04-.38.1-.53.31-1.6 2.22-2.63 3.61-3.05 4.19a.68.68 0 0 1-.63.3c-.43-.04-.74-.52-.61-.96.03-.1.12-.25.27-.45l2.86-3.94c.19-.26.34-.44.47-.54.66-.55 1.59-.55 2.28-.05.45.33.65.8.74 1.4.02.12.02.3.02.53v1.72Z" fill="#fff"/></svg>