<!-- by TradingView --><svg width="18" height="18" viewBox="0 0 18 18" xmlns="http://www.w3.org/2000/svg"><path fill="#D0BE9B" d="M0 0h18v18H0z"/><path d="M8.63 4.58H7.1s-.4 0-.39.01a93.9 93.9 0 0 1-1.04-.87c-.2-.17-.36-.36-.52-.58a.1.1 0 0 0-.06-.04L4.7 3c-.04 0-.06 0-.08.04-.38.66-.58 1.31-.28 2 .38 0 .56.17.8.39l.08.08c.2.18.44.32.67.45a10.34 10.34 0 0 1 .3.2.13.13 0 0 1-.02.15c-.21.26-.48.48-.8.67-.17.13-.2.34-.07.61v.03l-.03-.4c.08.37.22.67.42.88a2.37 2.37 0 0 1-.33-.8h-.03a.1.1 0 0 1 0-.06c0-.02.02-.03.03-.04l.73-.5c.34-.23.66-.36 1-.5a15.73 15.73 0 0 0 .38-.14c.02 0 .03.02.04.03l.41.4a.03.03 0 0 0 .06 0v-.01c.1-.18.26-.45.5-.4l-.15-.44a.18.18 0 0 1 .04-.18l.05-.05c.05-.04.08-.04.12.02l.24.42c.01.03.03.03.04 0l.02-.05v-.02l-.15-1.16c0-.03-.02-.04-.05-.04Z" fill="#A45622"/><path d="M13.94 4.22v.01a2.8 2.8 0 0 0-.87.27c-.67.32-1.18.6-1.53.81a1.1 1.1 0 0 0-.37.47.03.03 0 0 1-.05.02l-.03-.02c-.03-.01-.04-.03-.03-.06.13-.27.3-.5.53-.7a.17.17 0 0 0 .1-.08l.17-.08.54-.27a4.98 4.98 0 0 1 1.56-.56c.04 0 .05.01.03.05l-.05.14Z" fill="#E0AF6C"/><path d="m13.94 4.23-.26.66c-.1.13-.14.23-.13.29a9.92 9.92 0 0 0-.9 1.78l.02.41c.04.35.14.72.3 1.12-.38-.33-.52-.8-.4-1.44a7.12 7.12 0 0 1 .22-.92.1.1 0 0 0-.04-.08.1.1 0 0 0-.05-.01l-.35-.05c-.05 0-.08.01-.09.06l-.14.6c-.01.03-.03.04-.05.03l-.83-.37c-.03-.01-.05 0-.03.03.22.55.65 1.02 1 1.5.1.15.17.38.19.68 0 .05-.02.06-.05.03a.28.28 0 0 0-.12-.05c-.04 0-.05 0-.05.05.02.26-.07.4-.28.43-.42.04-.7.22-.83.54l-.16-.43a.08.08 0 0 1 0-.07.08.08 0 0 1 .06-.04l1.05-.14a.08.08 0 0 0 .07-.07l-.01-.04a.98.98 0 0 0-.5-.52.1.1 0 0 0-.14.07c-.05.22-.14.35-.27.4.05-.05.07-.09.06-.13.1-.2.15-.41.16-.63a.1.1 0 0 0-.04-.09l-.4-.36-.65-.42a.18.18 0 0 1-.07-.22c.2-.52.14-1.14.14-1.7a.12.12 0 0 1 .07-.11.12.12 0 0 1 .13.01c.3.24.64.24 1.02-.01-.23.2-.4.43-.53.7-.01.03 0 .05.03.06l.03.02a.03.03 0 0 0 .05-.02c.1-.23.23-.38.37-.47.35-.22.86-.49 1.53-.81.3-.14.58-.23.87-.27Z" fill="#BE814D"/><path d="M11.7 4.94a.17.17 0 0 1-.11.08c-.49.32-.7.29-1.09-.01a.12.12 0 0 0-.11.06.12.12 0 0 0-.02.06c0 .56.05 1.18-.14 1.7a.18.18 0 0 0 .07.22l.65.42a1.2 1.2 0 0 0-.4-.04.45.45 0 0 0-.33.15c-.13.15-.22.3-.27.46-.08.23-.01.52.26.58.35.07.68.11 1.02-.07 0 .04-.01.08-.06.12l-1 .04a.14.14 0 0 0-.13.12l-.16.8-.04-.03c0-.18-.03-.36-.08-.52-.04-.12-.08-.13-.12-.01-.02.06-.1.09-.2.07H9.4v.02h.06c.08.02.07.02 0 .01-.4-.04-.78-.18-1.16-.25a.07.07 0 0 0-.08.04.35.35 0 0 0-.01.2c0 .04.02.04.04 0v-.08c.01-.03.03-.05.07-.04l.8.17-.77-.14c-.03 0-.06 0-.06.05v.05c-.01.02 0 .04.03.04a5.3 5.3 0 0 1 1.14.13L8.42 9.2c-.04 0-.06.02-.06.06-.01.1.03.2.11.3l.1.18c-.2.1-.4.14-.57.12a3.17 3.17 0 0 1-1.7-.66.8.8 0 0 0-.1-.53l.13.06.2.15V9c.19.6 1.19.8 1.77.82.2-.01.19-.17-.03-.47-.02-.02-.03-.02-.03.01 0 .1-.02.16-.07.18l-.04-.45c-.05-.25-.11-.5-.18-.72-.04-.13-.2-.24-.47-.33.17 0 .3.03.4.1.09.05.17.07.26.07.03 0 .05-.02.06-.05l.06-.44c0-.08.04-.1.1-.04.25.18.52.22.8.13.74-.24.48-1 .28-1.57a.11.11 0 0 0-.06-.07.4.4 0 0 1-.1-.06c-.1-.08-.2-.1-.3-.05a.11.11 0 0 0-.05.08c-.25.95-.86.96-1.69.87.39.02.75-.01 1.08-.1.13-.26.19-.54.15-.83l-.15-.44a.18.18 0 0 1 .04-.18l.05-.05c.05-.04.08-.04.12.02l.24.42c.02.03.03.03.04 0l.02-.05v-.02l-.15-1.16c0-.03-.02-.04-.05-.04-.2.22-1.94.18-1.97 0 .05 0 .43-.11.46-.14l1.44.03c.26 0 .5.03.73.1l.74.23c.73.23.95.26 1.66.14Z" fill="#A76E28"/><path d="m5.35 6.98-.17.12a.09.09 0 0 0-.03.08c.07.86.38 1.2 1.2 1.45l.18.25-.2-.15c-.63-.3-1.09-.5-1.18-1.27l-.02-.02c-.01 0-.02 0-.02.02 0 .51.23.87.67 1.08-.6-.16-.71-.71-.86-1.2a.07.07 0 0 0-.06-.06c-.16-.01-.27.02-.33.12a2.17 2.17 0 0 0-.32 1.7c.06.33-.05 0-.07-.05-.12-.32-.2-.63-.1-1.02.21-.8.61-2.21.29-2.98.43-.01.6.2.88.46.27.25.62.41.92.6a.13.13 0 0 1 .06.15 3.03 3.03 0 0 1-.84.71Z" fill="#85471A"/><path d="M8.47 6.08c.04.3-.02.57-.15.83-.33.09-.7.12-1.08.1-.3.03-.6.1-.87.24a.1.1 0 0 0-.06.07c-.02.07.01.16.1.24l-.63-.13a.1.1 0 0 0-.09.02.44.44 0 0 0-.1.15.18.18 0 0 0 .07.22l1.17.72c.04.24.2.44.48.6L5.68 8.1a2.37 2.37 0 0 1-.33-.8h-.03a.1.1 0 0 1 0-.06c0-.02.02-.03.03-.04l.73-.5c.45-.3.85-.43 1.33-.63h.05c.02 0 .03 0 .04.02l.41.4a.03.03 0 0 0 .06 0c.1-.18.25-.46.5-.4Z" fill="#CB8F4A"/><path d="M9.93 6c0-.01.02-.02.03-.01L10 6l.04.05c.05.28.07.54.06.8 0 .1-.03.1-.08.02A1.12 1.12 0 0 1 9.93 6Z" fill="#E0AF6C"/><path d="M12.98 8.49c.38.32.26.9-.77 2.2l-.32.2.73-1a1.67 1.67 0 0 0 .25-.5.06.06 0 0 0-.01-.02h-.03l-.2.53-.58-.1c-.07-.02-.08 0-.05.06l.08.14a.1.1 0 0 1 0 .1c-.06.15-.2.23-.38.23l-.14-.27c-.02-.04-.01-.05.03-.04l.26.1c.05.01.1 0 .14-.04l.03-.05a.06.06 0 0 0-.02-.1.77.77 0 0 0-.56.04l-.37-.45c.14-.32.41-.5.83-.54.21-.02.3-.17.28-.43 0-.04.01-.06.05-.05.04 0 .08.02.12.05.03.03.05.02.05-.03-.02-.3-.08-.53-.2-.68-.34-.48-.77-.95-1-1.5 0-.03 0-.04.04-.03l.83.37c.03.01.04 0 .05-.02l.14-.6c.01-.06.04-.08.1-.07l.34.05a.1.1 0 0 1 .08.04.1.1 0 0 1 .01.1c-.12.36-.2.66-.23.87-.1.63.03 1.11.42 1.44Z" fill="#A76E28"/><path d="M7.89 8.15c.1.04.16.05.21.03a.07.07 0 0 0 .04-.08 1.59 1.59 0 0 0-.2-.67c-.27-.46-.97-.35-1.36-.17a.15.15 0 0 0-.08.15l.06.4a.4.4 0 0 1-.15-.25c-.09-.08-.12-.17-.1-.24a.1.1 0 0 1 .06-.07c.27-.13.56-.21.87-.24.83.09 1.44.08 1.69-.87 0-.04.03-.06.06-.08.1-.05.19-.03.29.05a.4.4 0 0 0 .1.06c.03.01.05.04.06.07.2.58.46 1.33-.28 1.57a.83.83 0 0 1-.8-.13c-.06-.05-.1-.04-.1.04l-.06.44c0 .03-.03.05-.06.05a.62.62 0 0 1-.25-.06Z" fill="#815217"/><path d="M10.92 7.2c.32.21.61.33.65.26.04-.06-.18-.28-.5-.49-.31-.2-.6-.32-.64-.25-.04.06.18.28.5.49Z" fill="#E0AF6C"/><path d="M5.35 6.98c-.16.13-.18.34-.06.61v.03l-.03-.4c.08.37.22.67.42.88l.81.57c.02.02.02.02 0 .02l-.02-.01c-.04-.04-.07-.06-.11-.05-.83-.25-1.14-.59-1.21-1.45 0-.03 0-.06.03-.08l.17-.12Z" fill="#A76E28"/><path d="M7.89 8.15a.61.61 0 0 0-.4-.11C7.11 8 6.8 8 6.55 7.8l-.06-.4a.15.15 0 0 1 .08-.15c.39-.18 1.1-.29 1.36.17.12.2.19.43.2.67 0 .04 0 .06-.04.08-.05.02-.12.01-.21-.03Z" fill="#301F04"/><path d="m5.78 8.54.42.13a.8.8 0 0 1 .1.53c-.3-.27-.68-.35-1.14-.24-.38.08-.6.16-.7.21a.07.07 0 0 0-.03.08l.03.17c0 .04-.02.05-.04 0a.31.31 0 0 1-.05-.12v.01l.35 1.06c-.5-.72-.33-.36-.51-1.26-.13-.63-.02-1.2.32-1.71.06-.1.17-.13.33-.12.04 0 .06.02.06.05.15.5.25 1.05.86 1.21Z" fill="#644410"/><path d="M6.41 7.56c.03.1.08.19.15.25.24.2.56.2.92.23.27.1.43.2.47.33.07.23.13.47.18.72-.53.05-.96-.14-1.3-.55l-1.17-.72a.18.18 0 0 1-.07-.22c.02-.05.05-.1.1-.15a.1.1 0 0 1 .09-.02l.63.13Z" fill="#E0AF6C"/><path d="m10.95 7.47.4.36a.1.1 0 0 1 .04.1c0 .21-.06.42-.16.62-.34.18-.67.14-1.02.07-.27-.06-.34-.35-.26-.58.05-.15.14-.3.27-.46.08-.1.2-.15.33-.15.13-.01.26 0 .4.04Z" fill="#4D3609"/><path d="m6.33 8.73-.13-.06-.42-.13a1.12 1.12 0 0 1-.67-1.08c0-.01 0-.02.02-.02l.02.02c.1.77.54.96 1.18 1.27Z" fill="#815217"/><path d="M9.65 8.63c-.45.16-.85-.13-1.23-.22-.06-.01-.1-.05-.1-.11v-.2a.12.12 0 0 1 .08-.12h.06l1.25.3c.04.02.07.04.07.09.01.14-.03.23-.13.26Z" fill="#BE814D"/><path d="M10.84 8.12c.07.1.09.25.06.43-.01.04-.04.06-.08.06h-.3c-.08 0-.12-.04-.12-.13V8.1c0-.08.04-.11.12-.1.18.03.28.07.32.12Z" fill="#0E0E0A"/><path d="m11.07 9.52.01.58a.08.08 0 0 1-.04.08.08.08 0 0 1-.08 0 2.3 2.3 0 0 0-1-.33c-.04 0-.06-.02-.07-.06a.52.52 0 0 1-.01-.17l.16-.8a.15.15 0 0 1 .13-.1l1-.05c.13-.04.22-.17.27-.4a.1.1 0 0 1 .09-.07.1.1 0 0 1 .04 0c.23.11.4.29.51.53a.08.08 0 0 1 0 .07.08.08 0 0 1-.06.04l-1.05.14a.08.08 0 0 0-.06.04.08.08 0 0 0 0 .07l.16.43Z" fill="#C99E66"/><path d="m8.13 9.1.04.44c-.18.02-.27 0-.4-.14a.93.93 0 0 0-.46-.26c-.29-.16-.45-.36-.48-.6.34.41.77.6 1.3.55Z" fill="#AE9362"/><path d="M9.84 9.6c-.1.32-.08.65.08.98.01.03 0 .06-.02.08l-.2.21c.25-.27-.05-.58-.1-.79-.04-.2.03-.46.03-.7 0-.03-.02-.05-.06-.06l-.44-.11-.81-.17c-.04 0-.06 0-.06.04v.07c-.03.05-.04.05-.05 0a.35.35 0 0 1 0-.2.07.07 0 0 1 .09-.03c.38.07.76.21 1.16.25.07.01.08 0 0-.01h-.05c-.02 0-.02 0 0-.01a.24.24 0 0 1 .02-.01c.12.02.19 0 .2-.07.05-.12.09-.11.13 0 .05.17.07.35.08.53ZM7.76 9.4a.93.93 0 0 0-.45-.26L5.68 8.1l.81.57c.02.02.02.02 0 .02l-.02-.01c-.04-.04-.07-.06-.11-.05l.17.25V9c.4.46 1.2.72 1.76.82.2-.01.2-.17-.02-.47-.02-.02-.03-.02-.03.01 0 .1-.02.16-.07.18-.18.02-.27 0-.4-.14ZM6.53 9c.4.46 1.2.72 1.76.82C7.72 9.8 6.72 9.6 6.53 9ZM11.7 10.33a.7.7 0 0 1-.26-.36c.17-.08.36-.1.56-.04a.06.06 0 0 1 .04.05.06.06 0 0 1-.02.05l-.03.05a.12.12 0 0 1-.14.03l-.26-.1c-.04 0-.05 0-.03.05l.14.27Z" fill="#786234"/><path d="m9.42 10.88.16-.07a.12.12 0 0 0 .06-.07c.03-.08.02-.16-.03-.22l-.13-.16a2.13 2.13 0 0 1-.15-.45l.01-.03.03-.02c.02 0 .03 0 .04.02l.31.64c.02.03.02.06.02.1-.02.2-.12.3-.32.27Z" fill="#6C572B"/><path d="m9.13 9.2.44.12c.04.01.05.03.06.07l-.02.3a1.3 1.3 0 0 0 0 .4c0 .05.04.12.07.19.1.18.2.4.02.6l-.14.04h-.23l.09-.04c.2.04.3-.06.32-.27 0-.03 0-.06-.02-.1l-.31-.63c-.01-.02-.02-.03-.04-.02l-.03.02c-.01 0-.02.02-.01.03.03.16.09.31.15.45l.13.16c.05.06.06.14.03.22a.12.12 0 0 1-.06.07l-.16.07-.65.04c-.34-.06-.7-.1-1.04-.13a1.7 1.7 0 0 1-1.04-.37c-.07-.06-.11-.11-.1-.16 0-.05.01-.1.05-.15a.1.1 0 0 1 .08-.04c.55.07.98.1 1.31.08.3-.01.48-.15.54-.41l-.1-.19c-.08-.1-.12-.2-.11-.3 0-.02.01-.03.03-.04h-.07c-.03 0-.04-.02-.04-.04v-.05c.01-.04.03-.06.07-.05l.78.14Zm.33.14-1-.13a5.33 5.33 0 0 1 1 .13Z" fill="#301F04"/><path d="M4.72 10.37c.48.6.65 1.3.5 2.06-.19.96-.29 1.82-.3 2.57h-.66a10.41 10.41 0 0 1 .39-3.51c.16-.53-.73-2.26.07-1.12ZM12.16 10.87l.06-.17-.33.18c-1.02 1.17-1.3 2.6-1.4 4.12h3.1a5.6 5.6 0 0 0-.25-1.21c-.13-.31-.44-.92-.94-1.84a1.6 1.6 0 0 1-.18-1.04.04.04 0 0 0-.03-.04h-.03Z" fill="#AE9362"/><path d="M8 9.86a3.17 3.17 0 0 1-1.7-.66c-.3-.27-.68-.35-1.15-.24-.37.09-.6.16-.69.21a.07.07 0 0 0-.03.08c.02.09.03.14.02.17 0 .04-.01.05-.04 0a.31.31 0 0 1-.04-.12v.01l.34 1.06c.48.6.65 1.3.5 2.06-.18.96-.28 1.82-.3 2.57h5.58c.1-1.52.38-2.95 1.4-4.12l.73-.98-.57-.1c-.07-.02-.08 0-.05.06l.08.14a.1.1 0 0 1 0 .1c-.07.15-.2.23-.39.23a.71.71 0 0 1-.26-.36l-.36-.45v.58a.08.08 0 0 1-.03.08.08.08 0 0 1-.09 0 2.3 2.3 0 0 0-1-.33c-.03 0-.05-.02-.06-.06a.52.52 0 0 1-.01-.17l-.04-.02c-.1.32-.08.65.07.98.02.03.01.06-.01.08l-.2.21-.14.06-.24-.02c.03 0 .06 0 .1-.02l-.65.03c-.35-.06-.7-.1-1.05-.13a1.7 1.7 0 0 1-1.03-.37c-.08-.06-.11-.11-.11-.16s.02-.1.06-.15a.1.1 0 0 1 .08-.04c.54.07.98.1 1.3.08.31-.01.49-.15.55-.41-.21.1-.4.14-.57.12Z" fill="#786234"/></svg>