<!-- by TradingView --><svg width="18" height="18" viewBox="0 0 18 18" xmlns="http://www.w3.org/2000/svg"><path fill="url(#ami5klrgp)" d="M0 0h18v18H0z"/><path d="m9.17 6.36-.99.99c-.2.13-.37.13-.5-.02-.1-.1-.1-.29 0-.39L8.74 5.9c.1-.1.2-.1.3-.04.2.1.23.27.13.5Z" fill="#03C5E6"/><path d="m9.17 6.36 1.41 1.4-1 .98-1.4-1.39.99-1Z" fill="#5B6D81"/><path d="m9.58 8.74 1-.99c.4-.14.72.17.38.52l-.98.97a.25.25 0 0 1-.2.07c-.3-.05-.37-.24-.2-.57Z" fill="#03C5E6"/><path d="m6 10.5 2.55-2.4a.03.03 0 0 1 .04 0l.28.28a.03.03 0 0 1 0 .04l-2.4 2.56h-.01a.03.03 0 0 1-.03 0L6 10.54a.03.03 0 0 1 0-.04Z" fill="#5B6D81"/><path d="M7.59 11.67V12h3.88v-.33h-.35v-.34h-.36V11H8.3v.33h-.35v.34H7.6Z" fill="#0266E2"/><path opacity=".5" fill-rule="evenodd" d="M9 15A6 6 0 1 0 9 3a6 6 0 0 0 0 12Zm0-2.2a3.8 3.8 0 1 0 0-7.6 3.8 3.8 0 0 0 0 7.6Z" fill="url(#bmi5klrgp)"/><defs><linearGradient id="ami5klrgp" x1="3.35" y1="3.12" x2="21.9" y2="24.43" gradientUnits="userSpaceOnUse"><stop stop-color="#1A1E21"/><stop offset="1" stop-color="#06060A"/></linearGradient><linearGradient id="bmi5klrgp" x1="9" y1="3" x2="9" y2="15" gradientUnits="userSpaceOnUse"><stop stop-color="#03BCE6"/><stop offset="1" stop-color="#0266E2"/></linearGradient></defs></svg>