<!-- by TradingView --><svg width="18" height="18" viewBox="0 0 18 18" xmlns="http://www.w3.org/2000/svg"><path fill="#19438D" d="M0 0h18v18H0z"/><path d="M7.4 12h2.08l1.19-1.65L11.85 12H14l-2.33-3 2.2-3h-2.09l-1.11 1.65L9.48 6H7.33C5.5 6.03 4 7.36 4 9c0 1.66 1.52 3 3.4 3Zm.95-1.25a2.6 2.6 0 0 1-.52.05c-1.2 0-2.16-.8-2.16-1.8s.97-1.8 2.16-1.8c.16 0 .32.01.47.04L9.67 9l-1.32 1.75Zm1.82-1.73L8.1 6.3h1.08l1.49 2.1 1.47-2.1h1.03l-2 2.7 2.07 2.7h-1.07l-1.5-2.1-1.49 2.1H8.16l2-2.68Z" fill="#FEFEFA"/></svg>