<!-- by TradingView --><svg width="18" height="18" viewBox="0 0 18 18" xmlns="http://www.w3.org/2000/svg"><path fill="#F0F3FA" d="M0 0h18v18H0z"/><path d="M9.52 6.05h.47l-.58-.08c-.02 0-.03-.02-.03-.04-.01-.6.08-1.18.28-1.72.01-.05.04-.07.09-.07a.56.56 0 0 0 .45-.85.53.53 0 0 0-.3-.26c-.25-.08-.45 0-.63.22-.09.12-.11.27-.07.47 0 0 .02.07.08.18.04.1.04.2-.02.33-.1.25-.15.6-.14 1.05l-.03.3-.04.35c0 .02-.01.03-.04.03H7.83a.04.04 0 0 1-.02 0l-.21-.27a9.64 9.64 0 0 0-2.48-1.88c-.02-.02-.04-.01-.06.01-.24.4-.39.85-.44 1.32-.25 1-.17 1.97.25 2.9l.04.06c.02.04.05.08.06.13l-.01.07c-.2.3-.34.5-.43.6-.19.22-.33.44-.4.66.28-.17.52-.15.7.06.14.16.22.32.24.48.33-.89.83-1.66 1.5-2.31.47-.45 1-.79 1.58-1.02l.13-.03c.56-.18 1.13-.2 1.7-.07.92.21 2 .93 2.74 1.56 0 .03.16-.03.18-.08 1.4-2.54 1.09-3.3.91-3.55a4.71 4.71 0 0 0-3.5 1.57.16.16 0 0 1-.07 0l-.72-.05c-.02 0-.02 0-.02-.03v-.03l.02-.01ZM5.08 7.9a4.35 4.35 0 0 1-.14-3l.22-.61.01-.02a.05.05 0 0 1 .04-.01l.02.01.23.23c.48.46.9.96 1.23 1.5.05.07.1.17.14.28 0 .03 0 .04-.02.06l-.92.72-.37.4-.35.46a.05.05 0 0 1-.05.02l-.02-.01-.02-.03Z" fill="url(#a)"/><path d="M11.58 5.2a5.3 5.3 0 0 0-1.27.97.16.16 0 0 1-.07 0l-.72-.05c-.02 0-.02 0-.02-.03v-.03l.02-.01h.47c.14.04.25.04.37-.07a4.88 4.88 0 0 1 3.55-1.44l.03.04.05.32a4.74 4.74 0 0 1-1.17 3.32l-.02-.02a.06.06 0 0 1-.01-.08 4.48 4.48 0 0 0 1.05-3.48 4.05 4.05 0 0 0-2.27.57Z" fill="#747B7A"/><path d="m12.62 7.98.21-.29c.33-.47.57-.98.74-1.53.07-.24.08-.48.09-.72v-.1l.02-.12c.01-.1.03-.2-.02-.32 0-.03-.03-.05-.06-.05a3.72 3.72 0 0 0-2.77 1.36.08.08 0 0 0 .03.08l.47.3.39.3c.3.28.61.6.78 1 .01.04.03.08.06.1.03.01.04 0 .06-.01Z" fill="url(#b)"/><path d="M12.67 8.16a4.28 4.28 0 0 0-.21-.23 5.78 5.78 0 0 0-2.48-1.26 3.14 3.14 0 0 0-1.7.07l-.13.03c-.59.23-1.11.57-1.58 1.02a6.06 6.06 0 0 0-1.5 2.31c.04.17.01.33-.07.48l.3.73c.53 1.23 1.53 1.69 2.74 1.9l1.2.19h.14a4.82 4.82 0 0 0 4.17-1.66c.13-.2-.05-.87-.12-1.15a38.2 38.2 0 0 0-.62-2.16.79.79 0 0 0-.14-.27Z" fill="url(#c)"/><path d="M5.07 10.1c.04.17.01.33-.07.48-.22.45-.51.55-.88.3a.7.7 0 0 1-.09-.37c.1.1.2.15.28.19.08.02.14.02.21-.02.39-.24.2-1.12-.27-.9a.24.24 0 0 0-.08.06l-.07.09c-.02.02-.04.01-.06 0a.2.2 0 0 1-.02-.1l.1-.27c.3-.17.53-.15.71.06.14.16.22.32.24.48Z" fill="#262626"/><path d="M4.03 10.51a1.97 1.97 0 0 1 0-.68l.01.1c.02.01.04.02.06 0l.07-.1a.24.24 0 0 1 .08-.06c.48-.2.66.67.27.9a.22.22 0 0 1-.2.03 1 1 0 0 1-.29-.19Z" fill="#545F5C"/><path d="m9.19 12.88-.14-.04c-.07-.02-.07-.04 0-.06l.24-.05.65-.07c.02 0 .03-.02.02-.04a.54.54 0 0 1 .06-.49c.12-.17.3-.17.43 0 .1.13.13.3.08.5v.02a.02.02 0 0 0 .01 0c.18.03.31.06.39.1.1.06.1.1 0 .14-.23.08-.46.11-.7.11-.34 0-.7-.05-1.04-.12Z" fill="#262626"/><path d="m5.3 11.31-.3-.73c-.22.44-.51.54-.88.3.13.58.37 1.1.72 1.56.12.16.25.25.42.36a7.3 7.3 0 0 0 4.3 1.2c1.31-.05 3.64-.62 4.06-2.18v-.05a.07.07 0 0 0-.03-.03h-.04a4.82 4.82 0 0 1-4.17 1.65h-.14l-1.2-.17c-1.21-.22-2.21-.68-2.74-1.9Z" fill="url(#d)"/><path d="M10.13 3.31c.02.03.03.06.03.1 0 .21-.06.4-.18.54a.06.06 0 0 1-.06.03 1.42 1.42 0 0 1-.53-.18.08.08 0 0 1-.04-.05c-.07-.3.07-.7.42-.67.12.01.24.1.36.23Z" fill="#9E9E9E"/><path d="M12 11c0 .56.24 1 .51 1 .28 0 .5-.46.49-1 0-.56-.24-1-.51-1-.28 0-.5.46-.49 1ZM7 11c.01.56.24 1 .52 1 .27 0 .49-.45.48-1-.01-.56-.24-1-.52-1-.27 0-.49.45-.48 1Z" fill="#262626"/><path d="M4.79 12.24c-.25-.34-.41-.73-.48-1.15 0-.03 0-.05.03-.06.03 0 .06 0 .1.02.13.02.26-.01.4-.1h.02a.05.05 0 0 1 .04.01l.02.02a3.46 3.46 0 0 0 1.12 1.7.1.1 0 0 1 0 .06c0 .05-.04.08-.1.09-.24.01-.41.01-.61-.09-.22-.11-.4-.28-.54-.5Z" fill="url(#e)"/><defs><linearGradient id="a" x1="13.97" y1="6.55" x2="4.12" y2="6.55" gradientUnits="userSpaceOnUse"><stop stop-color="#B1B0B0"/><stop offset="1" stop-color="#636D6A"/></linearGradient><linearGradient id="b" x1="13.69" y1="6.43" x2="10.82" y2="6.43" gradientUnits="userSpaceOnUse"><stop stop-color="#C8D5D1"/><stop offset="1" stop-color="#F6F8F8"/></linearGradient><linearGradient id="c" x1="13.59" y1="10" x2="5" y2="10" gradientUnits="userSpaceOnUse"><stop stop-color="#E3E6E6"/><stop offset="1" stop-color="#C1CFCB"/></linearGradient><linearGradient id="d" x1="13.62" y1="12.29" x2="4.12" y2="12.29" gradientUnits="userSpaceOnUse"><stop stop-color="#B1B0B0"/><stop offset="1" stop-color="#636D6A"/></linearGradient><linearGradient id="e" x1="6.05" y1="11.89" x2="4.31" y2="11.89" gradientUnits="userSpaceOnUse"><stop stop-color="#C8D5D1"/><stop offset="1" stop-color="#F6F8F8"/></linearGradient></defs></svg>