<!-- by TradingView --><svg width="18" height="18" viewBox="0 0 18 18" xmlns="http://www.w3.org/2000/svg"><path fill="url(#awoyo1o12)" d="M0 0h18v18H0z"/><path d="M5 5.27v3.8H9.5l-4.1-3.96a.23.23 0 0 0-.39.16Z" fill="#F27BF3"/><path d="M13 12.71V8.85l-3.94-.32-.4.48 3.9 3.86c.14.14.44.04.44-.16Z" fill="#F000F5"/><path d="M5 9h3.71c.16 0 .3.13.3.3v3.4a.3.3 0 0 1-.3.3H5.3a.3.3 0 0 1-.3-.3V9Z" fill="#F000F5"/><path d="M8.67 9H5v3.7L8.67 9Z" fill="#F255F4"/><path d="M9 5.3c0-.17.13-.3.3-.3h3.41c.16 0 .3.13.3.3V9H9.3a.3.3 0 0 1-.3-.3V5.3Z" fill="#BD0EDF"/><path d="M13 5.26a.3.3 0 0 0-.29-.26H9.3a.3.3 0 0 0-.3.3v3.4c0 .17.13.3.3.3h.1L13 5.26Z" fill="#9E16D1"/><defs><linearGradient id="awoyo1o12" x1="3.35" y1="3.12" x2="21.9" y2="24.43" gradientUnits="userSpaceOnUse"><stop stop-color="#1A1E21"/><stop offset="1" stop-color="#06060A"/></linearGradient></defs></svg>