<!-- by TradingView --><svg width="18" height="18" viewBox="0 0 18 18" xmlns="http://www.w3.org/2000/svg"><path fill="url(#ajfzfna2p)" d="M0 0h18v18H0z"/><path d="m4.44 10.52.43-4.38 2.64-2.07.33.23.76 2.5.44.12.98-1.7 2.03.2 1.35 5.35-.54.2-2.1-.05.41-1-.07-1.26-.76.03-.9 2.16-1.88-.06.6-1.18-.75-.72-.74.13.14 1.8H4.68l-.24-.3Z" fill="#003414"/><path d="M5.98 6.15v.12l-.4.1c.14.27.02.04.42.07-.13.77 1.38.52 1.06 1.19.08.17.1.27.21.2-.12.08-.22.12-.29-.02-.07-.33-.29-.2.06.32.24.34 2.8-.27 1.84.2-.08.09-.05 0-.1.14.53.12 1.54-1.4.46.23l-.41-.13c-.32-.1-.01.12.08.2-.66.56 1.16.12-.82.64-.1.03-.06-.05-.08.07-.02.12-.01.1-.11.12-.1.02-.13-.01-.36-.02-.15.7-.6.4 0 .5.3.07 1.1.5 1.35.28.17-.14.1-.04.22-.14l.02-.01.02-.02c-.23-.17-.2.12-.6.14-.15-.18-.2-.1.07-.25-.04-.02 1.2-.67 1.33-1.07-1.23.05-.64.06-.46-.3.09-.15-.03-.02.18-.05 2.69-.43 2.87-1.38 1.2-1.24-.39.04-1.22.73-.54-.02.12-.09.1-.04.26-.19.06 0 .06.1.07.12.16-.06.02 0 .14-.14.22-.27.35-.06-.17-.2-.56-.15-.74.35-2.28.65.06-.25 1.56-.69 0-.52.06-.03-.52-2.35-.53-2.35l-.17-.04c.1-.2-.23-.57.03-.66-.52-.06.18.45-.23.67-.18.13-.1.1-.22.07-.45-.09-.18.23-.46.24.04.48-.03.96-.79 1.1Z" fill="#178729"/><path d="m11.88 5.72.17.1c-.18.1-.04.95.07 1.12.1.05.07.1.07.1.28.62-.02.6.39.96-.13.03-.12.06-.17.16-.05.07-.09.12-.14.14.28.15.25-.04.26.25v.19c-.1 1.27.32 1.36.52 1.88-.27.05-.83.43-.14.24l-.03.14.11-.03 1.57-.08c.2 0 .27.04.44-.08-.16-.01-.21-.05-.32-.13-.17-.13-.1-.08-.46-.18-.52-.1-1.1-.28-.97-1.27l.06-.13c-.2-.05-.22-.02-.3-.18l-.06-.14c.13-.06.06-.07.18-.16.04.05.07.08.1.14.06-.4.23-.23-.1-.44.01-.13.02-.04-.02-.19-.19.23-.22-.04-.25-.17-.06-.23 0-.03.01-.28.03-.82-.16-.17-.25-.9-.07-.4.1-.31-.17-.46.11-.32-.04-.12-.07-.35l-.02-.4-.04-.13c-.14.04.05 0-.1-.05-.1-.03-.07-.01-.17 0 .03.08-.02-.04-.04.15-.03.16.04.12-.13.18Z" fill="#061709"/><path d="M5.08 5.6c.3.13.2-.09.4.09-.03.04-.07.12-.1.14-.8.22 1.35-.05-.38.36.13-.02.28.28-.05.14v.02l.01.08.03.07c.05.03 1.27-.48 1.27-.48.07-.08.02.02.01-.1v-.05c.48-.18.43-.04.61-.04v-.18c-.18-.05-.24.04-.38-.1l.04-.05c.07-.13.02.16.01-.06l-.01-.14h.22c.04-.1.02-.13 0-.25.3-.01.02-.33.47-.24.76.16-.09-.8.45-.74l.1-.01.1-.04c-.72-.06-.62.04-.92.08-.14.03-.29.03-.44.07l-.42.11c-.47.1-.82-.26-.9.81 0 .1 0 .1.05.16-.19.07-.22.12-.17.36ZM3.47 10.74c-.21.13.15-.03-.09.1l.1.02.32-.1c.18-.04.3.03.65.03l.23.04c.27.03.58 0 .85 0-.24-.05-1.12-.22-.3-.33-.06-.32.41-.05.48-.03l-.02-.04c-.36-.51-.93-.57-.91-.73l-.12-.05c.36-.1.16.02.38-.21v-.08c.72.02.23-.27.16-.5.3.08.17.11.45 0 .36-.02.85 1.64.68.23-.03-.08-.17-.09-.26-.1.38-.11.42-.05.3-.35.13-.07.21-.1.22-.2l-.2-.02c-.68.45-1.1.23-1.63-.45.2-.03-.08-.01.14-.01.06 0 .12.02.25-.02l-.07-.06c-.17-.12-.11-.1-.38-.2-.19 1-.37 2.49-1.23 3.06Z" fill="#179737"/><path d="M9.16 10.79c-.1.15-.44.05-.65.06-.51.04-.65-.1-.56.07.26-.03 1.78 0 1.98.04l.38-.03c.54-.04 1.71.04 2.3.06-.02-.12-1.44-.1-1.55-.12 0-.23.04-.1-.09-.57.2-.05.13-.03.12 0 .02-.24.02-.02-.1-.19-.16.02-.25.03-.3.15-.05.14.07-.08-.02.12.16-.04.08-.05.25 0a2.1 2.1 0 0 1-.15.27c-.24.32-.41.17-.61.11-.12-.03-.06 0-.17-.05.05-.37-.05-.45.42-.27 0 0-.38-.39-.06-.94l.16-.45c.05-.08.06-.07.2-.08 0 .12.03.42-.03.48.1.01.58-1.38.6-1.43l.16.05.08.01c.08-.02-.02.01.07-.06.14-.1.02-.03.15-.07-.54-.08.32 0-.3.01-.3 0-.71-1.01-.86.09 0 .06-.03-.02 0 .07-.67.08-1.1.79-1.27.8l-.2.05s.12.1.46.06L9.95 9c-.02.08 0 .14-.21.15l-.01.1c-.04.05-.16.06-.17.06l-.36-.03c.16.06.27.14.27.27.14-.02.2-.01.3.06-.29.22-.4.83-.6 1.17Z" fill="#072616"/><path d="M9.67 5.14c.03.13 0 .18-.07.28-.3.44-.18.95-.68 1.33-.08.06-.02 0-.05.09H9c.05.13.08.11.2.11.2 0 .2.04.27.01.78-.06 1.01-.61 1.15-.15.17-.03.1-.05.23-.01l.07-.17-.09-.04c-.1-.04-.26-.18-.26-.17 0 0-.13-.09-.16-.06-.19.08-.23.34-.4.29-.14-.05.1-.03-.14-.1-.07-.02-.16 0-.2.07-.12-.07-.12-.1-.27-.09.62-.63.86-.83 1.76-.9.3.51.55.04.72.1.17-.07.1-.03.13-.2.02-.18.07-.06.04-.14.1-.01.07-.03.17 0 .15.04-.04.09.1.05l-.03-.12c-.44-.08-.82-.18-1.28-.23-.12-.01-.21-.06-.32-.07h-.76c-.26.03-.01.02-.26.12Z" fill="#17A737"/><path d="m8.89 6.9-.02-.06H9c.12.37 1.26-.1 1.37-.13.68-.17 1.06-.27-.97-.18l.05-.05c.16-.16.3-.3-.1-.26.16-.26.41-.17.45-.15l-.01-.13.63-.03c.33-.02 1.37-.21 1.46-.19.05.03.48 1.67.46 1.75-.05.25 0 .28.06.33.04.03.1.06.14.15.03.07-.08.1-.13.21-.05.07-.09.12-.14.14.11.06.17.06.2.07.1 0 .14.68.16.75.03.1.06.2.05.25-.03.1.18.64.24.79l.01.03-.12.06c-.09-.06-.16-.03-.17 0-.01.03.03.06.17 0 .07.05.16.15.24.37l-.16.03c-.04 0-.06 0-.1-.02-.1-.02-.02-.03 0 0l.01.07c.01.03-.06.08-.12.12-.11.09-.2.16.23.04l-.03.14c-.14 0-.26-.03-.38-.05-.18-.04-.36-.08-.58-.03-.22 0-1.03-.09-1.01-.11.15-.28.1-.37.09-.72v-.06h-.03c-.02 0-.07 0-.14-.05.3-.12.3-.76.14-1.04-.25.2-.23.14-.17.02.14-.32.01-.53.03-.54l.14.11c.07 0 .11-.02.15-.03.08-.03.13-.05.33.04.25.15.24.13.17.04-.16-.19-.08-.25 0-.33.08-.07.17-.15.17-.31l.04.02c.07.04.16.1.37-.12-.05 0-.04-.01-.03-.02 0-.02 0-.03-.13.03-.22.1-.51.1-.2-.07.14-.09.09-.1-.03-.11-.2-.02-.55-.07-.45-.48l.15.02s.37-.17.38-.16c0 .02 0 .02 0 0-.06-.19-2.64.83-3.15.7.02-.13.1-.2.1-.21 0-.02-.11.03-.49.1.09-.4.33-.46.47-.5.13-.03.2-.04.06-.22V6.9s0-.01 0 0Z" fill="#167728"/><path d="M6.71 7.76c0 .2-.06.33-.1.54l-.2.03c.04.16.02.03-.02.1h.2c-.02.27-.24-.06-.15.45l-.37.1c.09.02.23.03.26.11.2.53-.72.3.33 1.73-.14 0-.21-.03-.34-.01-.22.02-.09.09-.26-.06-.54.08-1.89-.07-2.26.02l-.32.1c1.08.05 2.01.02 3.06.03.23 0 .43.01.65-.01.3-.03.42 0 .58-.02h.04c-.1-.15-.07-.02-.25-.08-.43 0-.63-.31-.71-.67a2.61 2.61 0 0 1 0-.95l.08-.02a.85.85 0 0 1 .02-.37c.03-.08.1-.28.17-.35-.02-.06-.1.08-.05-.1-.1-.12-.1-.15-.07-.3-.1-.07-.1-.21-.2-.11.05-.11.13-.02.07-.21-.01-.04-.02-.05-.05-.09l-.18.05c0 .06-.04-.01.01.05l.06.04Z" fill="#061709"/><path d="M4.96 7.8c.01.02-.02-.02.19.14-.13.04-.19.02-.25.02-.22 0 .05-.02-.14.01.3.39.56.44.93.76l.34-.15c.07-.04.1-.11.16-.13.16-.06.4-.02.47-.38.04-.15-.04-.03.06-.11 0-.2-.24-.43-.44-.43l-.13.01c-.1.03-.15.1-.2.17-.32.42-.09-.05-.26.26-.05-.04.03-.04-.12-.05.16-.63-.13-.65.52-.58.23.03.09 0 .21-.03.11-.02.19.05.28-.07l.07-.12c-.08-.01-.13-.07-.27-.13l-.07.16c-.15-.04-.42-.05-.41-.15.15-1.12-1.4 1.09-.94.8Z" fill="#076825"/><path d="M4.85 6.7c0 .36-.14.09-.14.36 0 .38.07.11-.13.47v.02l.1.1c.04-.05.17-.06.17-.05l1.24-.26c-.13.03.23.03 0 0-1.68.21 0 .38-.08.6-.05.1.46-.21.49-.15.34.03.13-.06.14-.12.35-.1.25-.11.32.05l.02.09c.07.14.17.1.29.02-.06.04.13.07-.06 0-.1-.02-.06-.01-.15-.2C6.5 7 5.54 6.66 5.5 6.5c-.02-.16-.12-.35-.5-.31 1.38-.33.1.08.48-.5-.2-.18-.1.04-.4-.08-.03 0-.03-.05-.06.1-.07.29-.18.57-.17.98Z" fill="#18B847"/><path d="M7.69 4.07c-.13.04-.08.03-.1.14-.04.3.18.3.06.52l-.02.03c.08.06.13.07.17.16.08.19.1.43.18.55-.37.2.15.77.4 1.35-.04.01-.23.12-.18.06.1.08-.03.02.12.05.05 0 .07-.01.16.01-.02.2-.16.3.19.08.47-.3.01-.08.25-.27-.31-.3.32-.6-.21-.5.01-.33-.27-.9-.44-1.03.13-.1.07-.02.08-.1.03-.24-.16-.3-.24-.47l-.24-.63-.1.04-.08.01Z" fill="#05260A"/><path d="M7.7 10.56v.02l-.14.21c.18.06.15-.07.25.09l-.04-.01c.05.06.05.04.18.05-.1-.17.05-.03.55-.07.22-.01.57.1.66-.06.1-.16-.12-.14.17-.27l-.1-.1c.31-.02.24-.19.24-.2v-.07a.82.82 0 0 1 .22-.32c-.11-.03-.14-.02-.23-.06.07-.06.14-.07.21-.07v-.04l-.24.01c-.18-.02-.47.15-.64.26-.19.13-.37.05-.17.15l-.22.12c.11.06.08.05.16.13.1 0 .82-.33.57-.12-.09.07-.14.06-.24.15l-.01.01-.09.06c-.33.22-.08-.15-.35-.14-1.22.04.83-.04-.7-.16l.03.02.09.04c.06.04.02-.08.03.18-.1.1-.08 0-.19.2Z" fill="#155819"/><path fill-rule="evenodd" d="M7.07 8.32c-.05.19.03.05.05.11a1.1 1.1 0 0 0-.17.35c-.23.73.8.64 1 .66l-.02-.1c-.08-.65.24-.47-.02-.34-.54.21.24.08.27-.19.17.14.22.02.29-.05-.15-.02.18.04-.1-.1a.31.31 0 0 0-.24-.02c-.16.06-1.02.38-.23-.1.08-.09-.02.1.06-.09-.38-.14-.33.07-.35.13l-.38-.1c-.06-.07.1-.02.2-.06.1-.05.01.02.1-.07 0 0-.1-.1-.2-.09-.1.01-.1.06-.26.06Z" fill="#139247"/><path d="m4.44 11.19.43 4.38 2.64 2.07.33-.23.76-2.5.44-.12.98 1.7 2.03-.2 1.35-5.35-.54-.2-2.1.05.41 1-.07 1.26-.76-.04-.9-2.15-1.88.06.6 1.18-.75.72-.74-.13.14-1.8-2.13-.01-.24.3Z" fill="#003414"/><path d="m11.88 15.99.17-.1c-.18-.1-.04-.95.07-1.12.1-.05.07-.1.07-.1.28-.62-.02-.6.39-.96-.13-.04-.12-.06-.17-.16-.05-.07-.09-.12-.14-.14.28-.15.25.04.26-.25v-.19c0-.07.35-1.3.4-1.45-.16-.1-.29.02-.37-.09.51.05.37 0 .5-.34-.28-.05-.84-.43-.15-.24l-.03-.14.11.03 1.57.08c.2 0 .27-.04.44.08-.16 0-.21.05-.32.13-.17.13-.1.08-.46.18-.89.18-.52-.13-.4.58-.16-.19-.3-.67-.5-.13v.02c-.08.27-.2.57-.07.8l.06.13c-.2.05-.22.02-.3.18l-.06.14c.13.06.06.07.18.16a.79.79 0 0 0 .1-.14c.06.4.23.23-.1.43.01.14.02.05-.02.2-.19-.23-.22.04-.25.16-.06.24 0 .04.01.3.03.8-.16.16-.25.9-.07.38.1.3-.17.45.11.32-.04.12-.07.35l-.02.4-.04.13c-.14-.04.05 0-.1.05-.1.03-.07.01-.17 0 .03-.08-.02.04-.04-.15-.03-.16.04-.12-.13-.18Z" fill="#061709"/><path d="M3.8 12.02c.04-.16.18-.26.25-.45.05-.1.02-.1.08-.18-.08-.07-.52-.34-.66-.43-.21-.12.15.04-.09-.1l.1-.01.32.1c.18.04.3-.03.65-.03l.23-.04c.27-.03.58 0 .85 0-.13.03-.08.08-.19.1-.13.01.15.02-.08-.03-.06-.01-.96.13-.02.26-.07.32.4.05.47.03l-.02.04c-.36.51-.93.57-.91.73l-.12.05c.36.1.16-.02.38.21v.08c.72-.02.23.27.16.5.3-.08.17-.11.45 0 .35.02.37.33.34.02v-.05c.04-1.3.4-.34.34-.2-.03.08-.17.09-.26.1.38.11.42.05.3.35.13.07.21.1.22.2l-.2.02c-.68-.45-1.1-.23-1.63.45.2.03-.08.01.14.01.06 0 .12-.02.25.02l-.07.06c-.17.12-.11.1-.38.2-.03-.17-.02-.07-.05-.15-.13-.26-.04-.1-.04-.26 0-.12-.06-.12-.08-.16-.15-.35-.22-1.1-.32-1.5.18-.02-.03-.02 0-.4-.12.05-.16.22-.29.36l-.11.1Z" fill="#179737"/><path fill-rule="evenodd" d="M5.53 10.88c.1-.05.45 0 .53.08.17-.15.04-.08.26-.06.13.02.2-.02.34-.01-.21.28.07.01-.19.18-.1.1-.28.23-.17.34.08.07.01.42-.3.14-.1.07-.04.04-.1.16.4.02.4.06.35.6.16.08-.05-.05.08 0l.08.07c-.2.02-.06 0-.1.06-.18.03-.02 0-.1.05-.74.37-.18-.93-.22.33v.05l.01.06.04.08c-.13-.05-.08-.02-.18-.09a1.37 1.37 0 0 0-.41-.14l-.09.03-.16.03c.12-.4.32-.57-.54-.78.21-.1.12-.12.03-.24.23.06.19.13.26-.08v-.03l.42.17.25-.15a.86.86 0 0 1-.2-.03c-.05-.02.5-.5-.53-.55-.02 0 0-.23.22-.07 0-.26.2-.1.23-.1.1-.02.06-.07.19-.1Z" fill="#045816"/><path d="M7 13.67c-.04-.14-.03-.17.07-.28.15 0 .17.05.25.06.1 0 .21-.09.21-.09-.49-.52.12-.74.4-.89.26-.15.67-.18.82-.2-1.25-1.33.45.41-.1.9.77.02.15-.42 1.02.28l.22.14c-.13.07-.06 0-.1.14l-.18-.06c-.03-.02.08-.1-.16-.05-.24.06.01.06-.15.07-.14.01-.1-.07-.13-.17l.26-.05c-.62-.37-.9-.24-.3.03-.06.05-.1.1-.12.1h-.02c-.75-.12-.08.18-.4-.21-.4.36 0 .19-.36 0l-.03-.02-.11-.06c.05.22-.92-.05-.42.16.71.15.1.1-.2.05-.15-.05.15-.02-.08.04-.14.04-.17-.13-.33-.02l-.02.04-.01.02c-.05.1.1-.02-.03.07Z" fill="#045816"/><path d="M7.7 11.14v-.01l-.14-.21c.18-.06.15.07.25-.09l-.04.01c.05-.06.05-.04.18-.05-.1.17.05.03.55.07.22.01.57-.1.66.06.1.16-.12.14.17.27l-.1.1c.31.02.24.19.24.2v.07c.02.08.11.22.22.32-.11.03-.14.02-.23.06.07.06.14.07.21.07v.04l-.24-.01c-.18.02-.47-.15-.64-.26-.19-.13-.37-.05-.17-.15l-.22-.12c.11-.06.08-.05.16-.13.1 0 .82.33.57.12-.09-.07-.14-.06-.24-.15l-.01-.01-.09-.06c-.33-.22-.08.15-.35.14-1.22-.04.83.04-.7.16l.03-.02.09-.04c.06-.04.02.08.03-.18-.1-.1-.08 0-.19-.2Z" fill="#155819"/><path d="M5.98 15.44v.12c.76.14.83.62.79 1.1.12 0 .14.07.16.13.02.08.05.16.3.1.05 0 .06-.02.08-.02.02 0 .04.02.14.1.2.1.13.3.08.44-.06.15-.1.26.15.23-.15-.05-.1-.2-.06-.35.04-.11.08-.23.03-.31l.07-.02.1-.02s.59-2.32.53-2.35c1 .1.74-.03.42-.21-.19-.1-.4-.22-.42-.31.36.07.5.09.62.1.22.03.4.05 1.57.32-.06.06-.2.14-.33.21-.26.15-.44.24.42.02.27-.07.36-.05.36-.05s-.08-.02-.2-.15c-.06-.08-.04-.1-.05-.1l-.08-.04v.04c-.02.04-.02.08-.07.08-.1-.1-.13-.11-.17-.13a.72.72 0 0 1-.09-.06c-.41-.46-.27-.38 0-.24.17.09.39.2.54.22.44.03.75 0 .92-.09l.04.02c.15.09.1.1-.02.11-.2.02-.55.07-.45.48l.15-.02c-.02 0 .31.36.38.16.02-.06.03-.06.08-.06h.12c.01.1-.02.13-.03.15h.01l.05.02c.09-.05.07-.1.07-.1l.1-.23c.06-.1.07-.11.05-.2-.05-.25 0-.28.06-.33.04-.03.1-.06.13-.15.02-.04 0-.07-.05-.11l-.07-.1c-.05-.07-.09-.12-.14-.14a.52.52 0 0 1 .2-.07h.05l.01-.12v-.06c0-.23.06-.42.1-.57.03-.1.06-.2.05-.25-.03-.1.18-.64.24-.79l.01-.03a1.1 1.1 0 0 0-.12-.06c-.09.06-.16.03-.17 0-.01-.03.03-.06.17 0 .07-.05.16-.15.24-.37l-.16-.03h-.08l-.03.02c0 .02-.02.02-.03.01h-.03l.06-.01.02-.07c0-.03-.06-.08-.12-.12-.11-.09-.2-.16.23-.04l-.03-.14c-.14 0-.26.03-.38.05-.18.04-.36.08-.58.03l-.34-.01h-.08l.02.04.04.06c-.12-.03-.73-.15-.65.02l.09.16.04.07-.02.12-.03.1c.2.04.11.09.1.06v.12c-.01 0-.04-.02-.1.07v.08h-.02c-.02 0-.07 0-.14.05.14.06.27.12.19.34-.03.08-.14.55.06.18-.02.03-.03.12-.04.22a1.1 1.1 0 0 1-.07.3c-.25-.2-.23-.14-.17-.02.05.1.06.2.07.28-.33-.1-.72-.2-1.2-.27-.13-.02-.14.02-.14.02L9.49 13c-.1-.19-.3-.27-.3-.3 0-.03.18-.01.76.01-.1-.3-.78-.72-1.13-.93l-.2-.14-.2-.11c0-.03.06-.05.14-.14.19.01.28.08.35.14.07.05.12.1.24 0l-.02-.02-.02-.01c-.05-.05-.07-.05-.08-.05-.03 0-.05-.01-.14-.1-.17-.14-.63.03-.99.16-.14.06-.27.1-.35.12-.2.04-.28.03-.3.03.03 0 .21.09.3.48l.22-.02h.13c.05 0 .07 0 .08.02.01 0 .02.03.03.1l.01.07s.02-.02.07 0c1.06.28 1.03.28.88.31-.14.03-.36.07-.06.33l-.07.05c-.11.1-.27.23-.01.15l.4-.13c.57.85.57.85.36.67-.2-.17-.56-.5-.82-.44l.05.1s.02 0 .06.05c.48.23.08.19-.47.14-.55-.05-1.25-.12-1.37.05-.35.52-.13.65-.06.32.06-.13.15-.1.27-.03-.08-.04-.11.03-.17.16l-.02.05c.16.33-.13.44-.45.55-.32.12-.68.25-.61.64-.25.02-.3-.07-.34-.06-.02 0-.03.03-.09.13l.23.06.18.04Zm5.37-1.94.1-.04c.25-.15.24-.13.17-.04a.36.36 0 0 0-.09.16 2.67 2.67 0 0 0-.18-.08Zm.6.5c.05 0 .14.04.25.16-.05 0-.04.01-.03.02 0 .02 0 .03-.13-.03a.79.79 0 0 0-.12-.05.17.17 0 0 0 .02-.1Z" fill="#167728"/><path d="M0 10.86h18V18H0v-7.14Z" fill="url(#bjfzfna2p)"/><defs><linearGradient id="ajfzfna2p" x1="9" y1="0" x2="9" y2="18" gradientUnits="userSpaceOnUse"><stop stop-color="#0980B8"/><stop offset=".21" stop-color="#4DCCF7"/><stop offset=".35" stop-color="#48C9F4"/><stop offset=".57" stop-color="#10A8D9"/><stop offset="1" stop-color="#044F7C"/></linearGradient><linearGradient id="bjfzfna2p" x1="9" y1="10.38" x2="9" y2="18" gradientUnits="userSpaceOnUse"><stop stop-color="#10A3D4" stop-opacity=".28"/><stop offset=".57" stop-color="#034E78"/></linearGradient></defs></svg>