<!-- by TradingView --><svg width="18" height="18" viewBox="0 0 18 18" xmlns="http://www.w3.org/2000/svg"><path fill="#1331F5" d="M0 0h18v18H0z"/><path d="M7.9 8.65c.02.23.16.4.31.4.16-.01.27-.21.25-.44-.02-.24-.16-.42-.31-.4-.16 0-.27.2-.25.44ZM5.69 9.17c-.12.01-.23-.14-.25-.35-.02-.2.06-.37.18-.39.12 0 .23.15.25.36.02.2-.06.37-.18.38ZM8 11.47c.08-.12.14-.26.2-.42 0-.04.04-.05.07-.02l.02.01a.08.08 0 0 1 .03.09c-.07.27-.2.5-.4.67a.77.77 0 0 1-.44.2c-.03 0-.06 0-.07-.03a.09.09 0 0 1-.02-.03c0-.04.02-.07.06-.08.22-.05.4-.18.55-.4Z" fill="#fff"/><path fill-rule="evenodd" d="M12.64 7.92c-.02.01-.02.02-.01.04.3.63.25 1.26.1 1.91a4.99 4.99 0 0 1-1.82 2.84c-.41.32-.82.58-1.24.78a3.25 3.25 0 0 1-1.2.3.63.63 0 0 0-.18.06l-.26.11a2 2 0 0 1-1.26-.15 3.64 3.64 0 0 1-1.97-2.42c-.08-.37-.02-.7.2-.98l.1-.16v-.04a3.2 3.2 0 0 1-.14-2.33s0-.02-.02-.02a1.35 1.35 0 0 1-.7-.64c-.25-.42-.3-.86-.16-1.32.07-.23.21-.43.42-.6.42-.35 1-.43 1.47-.14a1.57 1.57 0 0 1 .74 1.2.03.03 0 0 0 .02.02.03.03 0 0 0 .01 0 5.42 5.42 0 0 1 3.48-.13l.01-.01c.03-.67.29-1.23.77-1.7.46-.43 1-.6 1.64-.52.52.08.86.41 1.1.88.15.3.23.63.26.97.03.61-.16 1.13-.6 1.54-.22.21-.47.39-.76.51Zm-.12-.17-.27-.35a.03.03 0 0 1 0-.04c.4-.38.57-1.13.06-1.5-.26-.2-.53-.2-.83 0a.86.86 0 0 0-.36.47 6.02 6.02 0 0 0-.09.22l-.6-.23a.06.06 0 0 1-.04-.06c.03-.72.37-1.39.97-1.8.45-.3.93-.38 1.45-.23.62.18.94.93 1.01 1.51.12.96-.4 1.65-1.24 2.03a.05.05 0 0 1-.06-.02ZM5 6.73a.46.46 0 0 1 .17-.3c.31-.24.6-.21.85.06l.1.16v.02c.02.02.03.02.05.01l.35-.2a.06.06 0 0 0 .03-.07 1.5 1.5 0 0 0-.6-1.07 1.1 1.1 0 0 0-1.34.08c-.37.31-.51.72-.42 1.23.06.33.22.61.47.85.1.1.22.17.35.2a.03.03 0 0 0 .04 0l.23-.3v-.02l-.12-.12A.6.6 0 0 1 5 6.73Zm7.1.52a3.64 3.64 0 0 0-.88-.62.25.25 0 0 1 0-.14.82.82 0 0 1 .52-.58c.31-.11.62.1.7.42a.98.98 0 0 1-.3.92h-.04Zm-6.72 0 .06-.01.52-.44a.08.08 0 0 0 .01-.1l-.08-.1a.44.44 0 0 0-.29-.16.4.4 0 0 0-.3.08l-.01.01a.39.39 0 0 0-.14.28.43.43 0 0 0 .1.31l.08.1c.02.02.03.03.05.03Zm.08 2.65a.4.4 0 0 0-.03.06.26.26 0 0 1-.06.1.31.31 0 0 1-.1.06c-.02 0-.03 0-.04-.02A3.16 3.16 0 0 1 5 8.37c.04-.28.14-.52.28-.7A4.01 4.01 0 0 1 8.32 6.2c.14-.03.32-.03.55-.02.73.04 1.44.22 2.13.53.92.42 1.67 1.14 1.69 2.2a4.65 4.65 0 0 1-1.5 3.33 5.8 5.8 0 0 1-1.58 1.09c-.28.13-.6.22-.93.26-.05 0-.05 0-.02-.04a4.07 4.07 0 0 0 1.14-2.63c0-.6-.37-1.03-.93-1.2a3.6 3.6 0 0 0-1.74-.09h-.11a1.7 1.7 0 0 0-1.4.12.44.44 0 0 0-.16.14Zm1.8-.13c.43-.05.85-.04 1.25.03.16.03.32.07.46.14.47.2.7.57.67 1.1a3.88 3.88 0 0 1-1.24 2.53c-.22.2-.48.28-.79.27a2.1 2.1 0 0 1-1-.3 3.4 3.4 0 0 1-1.52-1.74c-.24-.62-.25-1.17.32-1.58h.02c.16.28.33.49.62.6.15.07.31.07.48 0 .2-.1.37-.2.48-.33.2-.2.32-.4.23-.69a.02.02 0 0 1 .02-.03Z" fill="#fff"/></svg>