<!-- by TradingView --><svg width="18" height="18" viewBox="0 0 18 18" xmlns="http://www.w3.org/2000/svg"><path fill="#181B1E" d="M0 0h18v18H0z"/><path d="M6.9 5 2 9.87l1.05 1.04 4.72-4.87L6.9 5ZM15.13 9l-2.98 2.96.88.87L16 9.87 15.12 9Z" fill="#F0F3FA"/><path d="M4.98 12.83 2 9.87 2.88 9l2.97 2.96-.87.87ZM11.1 5l-.7 1.57 4.55 4.34L16 9.87 11.1 5ZM6.9 5l-.87.87 4.72 4.7 1.05-.7L6.9 5ZM5.15 7.09 4.1 8.13 9 13l.87-1.22-4.72-4.7Z" fill="#F0F3FA"/><path d="M11.1 5 6.2 9.87l1.05.7 4.55-4.53L11.1 5ZM12.85 7.09l-4.73 4.7L9 13l4.9-4.87-1.05-1.04Z" fill="#F0F3FA"/></svg>