<!-- by TradingView --><svg width="18" height="18" viewBox="0 0 18 18" xmlns="http://www.w3.org/2000/svg"><path fill="#042B89" d="M0 0h18v18H0z"/><path d="M4 11.06v-.51l1.52 1.55.13-1.3 1-1.67 2.29 2.58 3.29-5.3-.76-.38L13.75 5 14 7.32l-.76-.38-4.05 5.8-2.28-2.58-.76.78L5.9 13 4 11.06Z" fill="url(#a)"/><path d="M7.88 5.22c-.1-.01-.2-.04-.3-.07-.2-.07-.34-.08-.52 0-.06.03-.06.05 0 .07a.4.4 0 0 0 .19.01c.1-.01.23.02.33.06l.47.2a3.34 3.34 0 0 1-.43-.1 1.77 1.77 0 0 0-.63-.1.05.05 0 0 0-.03.03v.02c0 .04.02.06.06.05.04 0 .06 0 .06.05 0 .21.07.34.23.37.03.02.06.04.1.04.02 0 .04 0 .04.02.04.1.12.13.24.08a.05.05 0 0 0 .03-.05v-.14a.04.04 0 0 1 .02-.04.04.04 0 0 1 .04 0 .6.6 0 0 0 .19.06h-.2c-.02 0-.03 0-.03.02l-.01.35c-.01.2-.25.35-.38.48-.29.27-.22.61-.14.96a.04.04 0 0 1-.01.04h-.02l-.7-.01h-.01V7.6a1.1 1.1 0 0 1 .1-.94c.17-.27.28-.48.3-.83.13-.2-.19-.41.02-.63.06-.06.08-.1.17-.13a.65.65 0 0 1 .41.01l.41.14Z" fill="#8B4515"/><path d="m7.88 5.22.34.23a.53.53 0 0 1-.15.1l-.02-.06-.47-.2a.66.66 0 0 0-.33-.06.42.42 0 0 1-.18 0c-.07-.03-.07-.05 0-.08.17-.08.3-.07.5 0 .1.03.2.06.3.07Z" fill="#A46730"/><path d="m8.05 5.49.02.05.02.06c0 .01 0 .03-.02.05l-.1.13-.02-.08a2.43 2.43 0 0 0-.65-.37.06.06 0 0 0-.05.04c-.06.19-.05.34.05.44-.15-.03-.22-.16-.23-.37 0-.04-.01-.06-.05-.05-.04.01-.06 0-.06-.05a.05.05 0 0 1 .01-.04.05.05 0 0 1 .04-.01c.21 0 .38.02.6.1.15.04.3.08.44.1Z" fill="#733510"/><path d="M7.96 5.78a.6.6 0 0 1-.18-.06.04.04 0 0 0-.04 0 .04.04 0 0 0-.02.04v.14c0 .02-.01.04-.03.05-.12.05-.2.03-.24-.08a.04.04 0 0 0-.03-.02.18.18 0 0 1-.12-.04c-.1-.1-.11-.25-.05-.44a.06.06 0 0 1 .05-.04h.03a3 3 0 0 1 .62.37c.01.02.02.04.01.08Z" fill="#38180E"/><path d="m8.68 6.01.13.11c.06.07.1.14.12.21 0 .02 0 .03-.02.02-.4-.2-.55.18-.74.43l.14-.3v-.05a.92.92 0 0 0-.37-.37c-.07-.05-.08-.11-.01-.18L8 5.81c.06-.06.12-.06.17.01.12.14.29.2.5.2Z" fill="#BA6E2F"/><path d="m8.5 5.81-.28-.36a.53.53 0 0 1-.15.1l.02.05c0 .01 0 .03-.02.05l-.1.13h-.2c-.02 0-.03 0-.03.02l-.02.35c0 .16-.15.28-.27.39l-.1.09c-.29.27-.22.61-.14.96a.04.04 0 0 1 0 .03.03.03 0 0 1-.03.01l-.7-.01h-.01V7.6a1.1 1.1 0 0 1 .1-.94c.17-.27.28-.48.3-.83l-.06.04c-.33.3-.7.86-.82 1.3l-.02.24c.12.2.22.33.29.4.07.08.16.12.29.13.01 0 .02 0 .03.02.02.16.06.3.14.44.01.01.02.02.04 0l.04-.02c.02 0 .02-.02.02-.03a.93.93 0 0 0-.02-.3.04.04 0 0 1 .02-.02h.01L7.17 8c.02 0 .04 0 .04.03l.02.13c.09.06.08.14-.02.23a.83.83 0 0 1 .22.21.02.02 0 0 0 .02 0v-.01l.09-.4c0-.02 0-.04-.02-.05a.7.7 0 0 0-.48-.15.46.46 0 0 1-.2 0 .07.07 0 0 0-.07.03v.03l-.02.22c0 .02-.02.03-.04.02H6.7l-.02-.03a7.29 7.29 0 0 1-.07-.48c0-.02 0-.03.02-.03a3.44 3.44 0 0 1 .64-.05.08.08 0 0 0 .04-.05V7.6a2.72 2.72 0 0 1-.04-.76 4.1 4.1 0 0 0 .23-.14c.15-.1.32-.19.5-.22h.04l.02.04c.01.07.02.15 0 .24h.03c.02 0 .02 0 .02.03l-.01.05.07-.07.14-.3v-.05a.92.92 0 0 0-.37-.37c-.07-.05-.08-.11-.01-.18L8 5.81c.06-.06.12-.06.17.01.12.14.28.2.5.2l-.17-.2Z" fill="#995420"/><path d="M12.32 6.18h.22c.15.1.28.23.39.37a.33.33 0 0 0-.33-.03.1.1 0 0 0-.05.07.1.1 0 0 0 .02.08c.08.1.2.17.33.23.02 0 .03 0 .05-.02L12.9 7c-.05.13-.1.2-.17.23-.1.05-.22.1-.3.17-.1.08-.18.07-.27-.04l-.02-.02h-.03a.2.2 0 0 1-.17-.01.1.1 0 0 1-.04-.05.1.1 0 0 1 0-.07.98.98 0 0 1 .52-.57v-.02l-.01-.01a.98.98 0 0 1-.3-.34l.01-.02.19-.07Z" fill="#DFAB75"/><path d="M12.11 6.28a1.05 1.05 0 0 0 .32.34v.01a.03.03 0 0 1-.02.02.98.98 0 0 0-.5.56.1.1 0 0 0 0 .07c0 .02.02.04.04.05a.2.2 0 0 0 .17.01.04.04 0 0 1 .05.02c.09.11.18.12.27.04.08-.08.2-.12.3-.17.07-.02.12-.1.17-.23.02.07.02.16-.04.22-.23.26-.77.36-1.1.28-.15-.14-.28-.36-.1-.53l.18-.16c.14-.12.15-.3.17-.49a.2.2 0 0 1 .1-.04Z" fill="#D69457"/><path d="M9.26 7.08c.07.24.1.54.08.9a3.54 3.54 0 0 0 .02.32h.02l.02-.01.13-.34.03-.02h.02c.02.01.03.03.02.04-.03.18-.03.37 0 .57.03.14.03.28.03.42v.06l-.02.01h-.03a.16.16 0 0 0-.15 0 .04.04 0 0 0-.02.04.7.7 0 0 0 .02.25.05.05 0 0 1-.01.05.44.44 0 0 0-.11.22c-.22.22-.28.45-.16.71.07.15.2.27.3.4.06.09.15.13.21.02.08 0 .14-.01.2-.05a.03.03 0 0 1 .02 0h.02l.1.17-.1.01h-.03c-.14.01-.2.12-.36.14h-.02l-.17-.13c-.04-.13-.1-.3-.2-.5-.13-.23-.08-.44.03-.68.05-.13.07-.26.05-.4 0-.02 0-.04.02-.05l.1-.12c.11-.2.18-.4.2-.6l-.02-.1c0-.02-.02-.02-.04-.02-.04.03-.08.02-.1-.03a.44.44 0 0 1-.07-.26c0-.2.01-.38.03-.57 0-.02 0-.03-.03-.02l-.41.11h-.05a.06.06 0 0 1-.02-.03 2.01 2.01 0 0 0-.33-.61c-.19-.25-.05-.6.27-.59.07 0 .14.03.2.1.08.08.13.15.14.21.06.19.12.31.17.38Z" fill="#C78E58"/><path d="M12.02 6.32c-.02.2-.03.37-.17.49l-.18.16c-.18.17-.05.39.1.53l-.07.17-.1.12a.42.42 0 0 0-.06-.37l-.09-.2c-.1-.55.15-.65.57-.9Z" fill="#C37D3D"/><path d="M12.93 6.55c.05.11.04.23-.03.35a.88.88 0 0 1-.33-.23.1.1 0 0 1 .03-.15.33.33 0 0 1 .33.03Z" fill="#EED3B5"/><path d="M8.07 6.77h.02c.02 0 .03 0 .02.03v.05a.68.68 0 0 1-.11.44c-.1.1-.2.12-.28.06a.23.23 0 0 1-.09-.16.4.4 0 0 0-.07-.18.04.04 0 0 1 0-.05.16.16 0 0 1 .05-.03c.02-.01.03 0 .02.02l.01.06c.01.01.02.02.04 0l.1-.05c.07-.04.14-.1.21-.16a.12.12 0 0 1 .08-.03Z" fill="#0B0403"/><path d="M12.83 7.06a.1.1 0 0 0-.09.07c0 .02 0 .03-.02.04l-.2.11c-.06.04-.08.09-.14.12-.02.01-.03 0-.04-.02a.21.21 0 0 1 0-.2c.01-.01.03-.02.04 0l.08.03h.03v-.04a.7.7 0 0 0-.17-.13c-.08-.07-.07-.11.03-.14.03 0 .06-.03.07-.06a.14.14 0 0 1 .09-.07.13.13 0 0 1 .1.02c.1.07.2.1.23.24v.02h-.01Z" fill="#EED3B5"/><path d="m7.77 6.96-.09.06L7.64 7v-.06c0-.02 0-.03-.03-.02a.16.16 0 0 0-.04.03.04.04 0 0 0 0 .05.4.4 0 0 1 .06.18c.01.07.04.12.1.16.07.06.17.04.27-.06.13.09.3.16.48.23.13.04.22.12.28.25-.11-.14-.24-.12-.36.06-.2-.23-.43-.12-.67-.01-.09-.2-.19-.36-.16-.58.01-.08 0-.16-.05-.2a.03.03 0 0 1 0-.05c.05-.07.1-.11.16-.12.03-.01.04 0 .03.03l-.01.02c0 .02 0 .03.02.03l.05.01Z" fill="#A46730"/><path d="M9.67 7.38v.38c0 .02.01.03.03.02a.51.51 0 0 1 .34.04.5.5 0 0 0 .27.03.03.03 0 0 0 .02-.04l-.03-.42c0-.04 0-.07.04-.08l.17-.06c.06-.03.09 0 .1.06 0 .17.03.36.07.55.02.12.02.25-.01.4 0 .03 0 .05.04.05h.03c.04 0 .06-.03.06-.06l.15-1 .14-.02h.2a.88.88 0 0 0-.27.42c-.06.27-.09.54-.22.77a.07.07 0 0 1-.07.03 7.45 7.45 0 0 1-.5-.09c-.14-.03-.27-.1-.31-.23a.48.48 0 0 0-.09-.15.06.06 0 0 0-.06-.03.06.06 0 0 0-.05.04.46.46 0 0 0-.05.25c0 .07.05.1.12.1.02 0 .03 0 .03.02.07.23.29.23.48.2a.03.03 0 0 1 .03.02v.04c-.14.25-.45.27-.7.34 0-.14 0-.28-.03-.42-.03-.2-.03-.39 0-.57 0-.01 0-.03-.02-.04h-.02c-.01 0-.02 0-.03.02l-.13.34-.02.01h-.02l-.01-.01a3.55 3.55 0 0 1-.01-.3c.01-.37-.01-.67-.08-.91l.07-.17a.02.02 0 0 1 .02 0 .02.02 0 0 1 .01 0c.16.12.26.28.31.47Z" fill="#DFAB75"/><path d="m9.1 6.32-.27-.19h-.02c.06.06.1.13.12.2 0 .02 0 .03-.02.02-.33-.16-.49.07-.65.3l-.1.13-.06.07a.68.68 0 0 1-.1.44c.13.09.3.16.48.23.13.04.22.12.28.25l.16.13a.02.02 0 0 0 .03 0l.01-.02-.01-.23a.04.04 0 0 1 .01-.03c.04-.03.06-.01.06.05l.05.18v.02a.03.03 0 0 0 .06 0 1 1 0 0 1 .08-.14c.05-.07.07-.07.06.03l-.02.18c-.03.24-.05.47-.18.7l-.01.03a.04.04 0 0 0 .02.03.03.03 0 0 0 .03 0l.42-.19-.03-.1c0-.02-.02-.02-.04-.02-.04.03-.08.02-.1-.03a.44.44 0 0 1-.07-.26c0-.2.01-.38.03-.57 0-.02 0-.03-.03-.02l-.41.11h-.05a.06.06 0 0 1-.02-.03 2.01 2.01 0 0 0-.33-.61c-.19-.25-.05-.6.27-.59.07 0 .14.03.2.1.08.08.13.15.14.21.06.19.12.31.17.38l.07-.17a.02.02 0 0 1 .02 0 .02.02 0 0 1 .01 0c.16.12.26.28.31.47v.38c0 .02.01.03.03.02a.51.51 0 0 1 .34.04.5.5 0 0 0 .27.03.03.03 0 0 0 .02-.04l-.03-.42c0-.04 0-.07.04-.08l.17-.06c.06-.03.09 0 .1.06 0 .17.03.36.07.55.02.12.02.25-.01.4 0 .03 0 .05.04.05h.03c.04 0 .06-.03.06-.06l.15-1 .14-.02A3.45 3.45 0 0 0 9.95 7h-.02c-.1 0-.2 0-.23-.1l-.04-.06-.56-.52Z" fill="#A46730"/><path d="m6 7.18-.03.23c.12.2.22.33.29.4.07.08.16.12.29.13.01 0 .02 0 .03.02.02.16.06.3.14.44.01.01.02.02.04 0l.04-.02c.02 0 .02-.02.02-.03a.93.93 0 0 0-.02-.3.04.04 0 0 1 .02-.02h.01L7.17 8c.02 0 .04 0 .04.03l.02.13c-.05-.09-.1-.1-.15-.06h-.11c-.02 0-.03.01-.04.03a.85.85 0 0 0-.01.24c0 .02.01.03.03.03h.22l-.12.03a.06.06 0 0 0-.05.03l-.12.2-.03.02H6.8a1.55 1.55 0 0 1-.47-.36.04.04 0 0 0-.05.01l-.12.14a.07.07 0 0 1-.04.02H6.1c-.02 0-.03 0-.02-.03 0-.02 0-.04.02-.07.01-.02 0-.03-.02-.03a1.41 1.41 0 0 1-.84-.1.02.02 0 0 1 0-.02l.22-.16a.02.02 0 0 0 0-.03v-.02a.04.04 0 0 0-.05 0l-.15.08c-.02 0-.03 0-.02-.02l.03-.1c.23-.18.43-.38.65-.6.03 0 .05-.03.05-.1l.02-.11Z" fill="#8B4515"/><path d="M11.6 7.79c-.06.19-.06.18-.16.28l-.09.12.19-.77c.08.12.1.24.06.37Z" fill="#DBA064"/><path d="m8.76 7.77.16.13a.02.02 0 0 0 .03 0l.01-.02-.01-.23a.04.04 0 0 1 .01-.03c.04-.03.06-.01.06.05 0-.02-.02-.03-.02-.03a.03.03 0 0 0-.03 0 .03.03 0 0 0-.01.03L9 8l-.06.15a.77.77 0 0 1-.43.23c-.02 0-.03 0-.04-.02l-.17-.2c-.13-.15-.29-.12-.46.09l.27-.4c.03-.04.05-.04.05.01.02.08.07.13.17.14.01 0 .02 0 .03-.02a.4.4 0 0 0 .04-.14c.13-.18.25-.2.36-.06Z" fill="#8C5F3A"/><path d="M7.99 6.8a.12.12 0 0 1 .08-.03v-.24a.05.05 0 0 0-.03-.03.05.05 0 0 0-.03 0c-.2.02-.35.12-.52.21a4.1 4.1 0 0 1-.22.14 2.72 2.72 0 0 0 .05.8.08.08 0 0 1-.05.05l-.04.01c-.2 0-.4 0-.6.04a7.28 7.28 0 0 0 .08.55c.02 0 .04-.01.04-.03l.02-.22A.07.07 0 0 1 6.79 8a.07.07 0 0 1 .06-.01h.2c.19-.13.41.01.57.14-.05-.11-.16-.18-.31-.2a.53.53 0 0 0 .28-.28l.14.17a5.28 5.28 0 0 0-.04-.08c-.07-.16-.14-.31-.12-.5.02-.08 0-.16-.05-.2a.03.03 0 0 1 0-.05c.05-.07.1-.11.17-.12.02-.01.03 0 .02.03v.02c-.02.02-.01.03.01.03l.06.01c.07-.04.14-.1.21-.16Z" fill="#C37D3D"/><path d="M8.4 7.83a.4.4 0 0 1-.04.14l-.03.02c-.1-.01-.15-.06-.17-.14 0-.05-.02-.05-.05 0l-.27.39-.07.14a.28.28 0 0 0-.06.08.04.04 0 0 1-.03.03c-.03 0-.05-.01-.05-.04a.8.8 0 0 1-.01-.32c-.05-.11-.16-.18-.31-.2a.53.53 0 0 0 .28-.28l.14.17c.24-.1.47-.22.67 0Z" fill="#B2753E"/><path d="m9.02 7.67.05.18v.02a.03.03 0 0 0 .06 0 1 1 0 0 1 .08-.14c.05-.07.07-.07.06.03-.04.3-.04.6-.2.88l-.01.03a.04.04 0 0 0 .02.03.03.03 0 0 0 .03 0l.42-.19c-.03.2-.1.4-.2.6-.2.13-.36.26-.6.28l-.42.05c0-.02 0-.04-.02-.06 0-.03-.02-.05-.06-.06-.1-.1-.2-.19-.28-.24-.09-.07-.08-.09.03-.07l.18.01c.02.02.03.04.03.08 0 .02.01.03.03.03.07 0 .14 0 .2-.03.02-.02.03-.04.02-.06V8.9c0 .07.06.11.17.12l-.06.07a.04.04 0 0 0 0 .04.04.04 0 0 0 .02.02.9.9 0 0 0 .67-.2c.08-.05.09-.14.07-.22a.04.04 0 0 0-.03-.03.04.04 0 0 0-.03 0l-.43.17.12-.21c.03-.05.04-.1.03-.14-.01-.07-.05-.12-.1-.12.04-.02.1 0 .15.04.01 0 .02 0 .02-.02a2.3 2.3 0 0 0 0-.59h-.01L9 7.85V8a2.73 2.73 0 0 0-.04-.33.03.03 0 0 1 .02-.02H9l.02.03Z" fill="#8B4515"/><path d="M8.86 8.4a.87.87 0 0 0-.25.3.52.52 0 0 0-.23.38.03.03 0 0 1-.01.02.03.03 0 0 1-.02 0h-.02a.05.05 0 0 1-.03-.02.05.05 0 0 1 0-.04c.04-.16.07-.35.2-.46.17-.14.32-.23.44-.44L9 7.99v-.14l.02-.01h.01v.02c.03.19.03.38 0 .57 0 .02 0 .03-.02.02-.06-.04-.1-.06-.16-.04Z" fill="#38180E"/><path d="M7.62 8.13a.8.8 0 0 0 0 .32c.01.03.03.04.06.04a.04.04 0 0 0 .03-.03.28.28 0 0 1 .06-.08c-.03.14-.01.25.07.32l-.12-.08c-.08-.04-.1-.02-.06.06.08.15.22.23.44.27.02 0 .03 0 .04-.03l.01-.06c0-.02 0-.03-.03-.04l-.14-.04.18.03s.02 0 .02.02l.01.03a.3.3 0 0 1-.02.1v.06a.9.9 0 0 1-.19 0c-.1-.03-.12 0-.02.06.08.05.17.13.27.24a.3.3 0 0 0-.22 0l-.37-.11c.02.03.02.02-.01-.03h.05c.02 0 .03 0 .05-.02.02-.01.02-.04.02-.06a.05.05 0 0 0-.03-.04c-.24-.1-.49-.24-.75-.14l-.3-.23c-.08-.05-.2-.07-.36-.05a.23.23 0 0 0-.16-.05c-.02 0-.04 0-.05-.02a.3.3 0 0 0-.18-.04c-.22-.02-.68-.1-.8-.31a.8.8 0 0 1 .15-.23l-.03.1c0 .02 0 .02.02.02l.15-.08h.04l.01.02a.03.03 0 0 1 0 .03l-.21.16a.02.02 0 0 0 0 .02.02.02 0 0 0 0 .01c.27.11.54.14.83.1.03-.01.03 0 .02.02a.23.23 0 0 0-.02.07c0 .02 0 .03.03.03l.05-.02.12-.14a.04.04 0 0 1 .03-.01.04.04 0 0 1 .03.01c.14.15.3.26.47.35h.04l.04-.03.12-.2.04-.02.12-.03.04-.01a.83.83 0 0 1 .22.21.02.02 0 0 0 .02 0v-.01l.1-.4a.05.05 0 0 0-.03-.05.7.7 0 0 0-.48-.15c.2-.13.42.01.58.14Z" fill="#A46730"/><path d="m6.12 7.94.05.01c.02.01.03.03.03.05v.17c0 .02 0 .04-.03.05a1.3 1.3 0 0 1-.64.03l-.02-.01a.05.05 0 0 1-.02-.05l.02-.02.33-.27a.06.06 0 0 1 .04 0h.16c.02-.01.04 0 .05.02l.01.02h.02Z" fill="#38180E"/><path d="m11.54 7.42-.09-.2c-.07 0-.12 0-.16.02a.88.88 0 0 0-.27.41l-.04.19c-.04.2-.08.4-.17.58a.07.07 0 0 1-.08.03 7.46 7.46 0 0 1-.5-.09c-.14-.03-.26-.1-.31-.23a.48.48 0 0 0-.09-.15.06.06 0 0 0-.05-.03.06.06 0 0 0-.05.04.46.46 0 0 0-.06.25c0 .07.05.1.12.1.02 0 .03 0 .03.02.08.23.29.23.48.2a.03.03 0 0 1 .03.02.04.04 0 0 1 0 .04c-.11.2-.34.26-.56.3l-.14.04v.11c0 .02 0 .03.03.04.1.03.2.08.25.16.15.2.42.23.64.2a.15.15 0 0 0 .05-.1l.5-.78.2-.29.05-.11.19-.77Z" fill="#EED3B5"/><path d="M8.3 8.15c.03.1.1.2.1.3 0 .07-.03.13-.07.18a.4.4 0 0 1-.36.13.27.27 0 0 1-.13-.06c-.08-.07-.1-.18-.07-.32l.07-.14c.17-.2.33-.24.46-.1Zm-1.07.01c.09.06.08.14-.02.23l-.04.01h-.22c-.02 0-.03 0-.03-.03-.01-.07 0-.15.01-.24 0-.02.02-.03.04-.03h.1c.06-.05.11-.03.16.06Z" fill="#0B0403"/><path d="m7.65 8.16.06-.06a.05.05 0 0 1 .05-.01l.02.01.01.03v.09l-.07.18c0 .01 0 .02-.02.02a.05.05 0 0 1-.05 0l-.01-.03v-.2a.05.05 0 0 1 0-.03Z" fill="#E7C197"/><path d="M8.94 8.14c-.12.21-.27.3-.44.44-.13.1-.16.3-.2.46a.05.05 0 0 0 0 .04.05.05 0 0 0 .03.02h.02a.03.03 0 0 0 .02 0 .03.03 0 0 0 .01-.02c.02-.16.1-.3.23-.38l-.16.21a.23.23 0 0 0 0 .13c0 .02-.01.04-.04.06a.37.37 0 0 1-.19.03c-.02 0-.03-.01-.03-.03 0-.04 0-.06-.03-.08h.01v-.06a.3.3 0 0 0 .02-.1v-.03l-.03-.02-.18-.03v-.02c.14.02.26-.02.35-.13a.28.28 0 0 0 .07-.19c0-.1-.07-.2-.1-.3l.17.2c0 .02.02.03.04.03a.8.8 0 0 0 .43-.23Z" fill="#543E34"/><path d="M8.86 8.4c.06.01.1.06.11.13 0 .04 0 .09-.03.14l-.12.21a.64.64 0 0 1-.2.15c-.12 0-.18-.05-.17-.12l.17-.21a.87.87 0 0 1 .24-.3Z" fill="#AF845E"/><path d="M7.84 8.7c.04.03.08.05.13.06v.02l.15.04c.02 0 .03.02.03.04l-.01.06c-.01.02-.02.03-.04.03-.22-.04-.37-.12-.44-.27-.04-.08-.03-.1.06-.06l.12.08Z" fill="#C78E58"/><path d="M8.61 9.03a.64.64 0 0 0 .21-.15l.43-.17a.04.04 0 0 1 .05.01v.02a.2.2 0 0 1-.06.23.96.96 0 0 1-.67.2.04.04 0 0 1-.03-.03.04.04 0 0 1 0-.04l.07-.07Z" fill="#38180E"/><path d="M7.63 9.18H7.5l-.08-.02-.18-.04a.61.61 0 0 1-.27-.2c.27-.1.51.03.75.14l.03.04c0 .02 0 .05-.02.06a.07.07 0 0 1-.05.02h-.05Zm2-.16v.05c0 .02 0 .03.03.04.1.03.2.08.25.16.15.2.42.23.64.2a.28.28 0 0 1-.08.12v.04c.13.07.27.13.39.22l.1.06c.02 0 .04.03.04.07l-.34.04c-.02 0-.02.01-.03.03-.01.21-.1.33-.18.5a.78.78 0 0 0 .01.34.93.93 0 0 1-.47-.05l-.09-.16v-.01h-.03a.33.33 0 0 1-.2.05l-.05-.09.29-.25c.22-.17.34-.32.45-.56v-.04s0-.02-.02-.03a.98.98 0 0 0-.65-.3.68.68 0 0 0-.38.14.44.44 0 0 1 .1-.22.05.05 0 0 0 .02-.05.7.7 0 0 1-.02-.25c0-.02 0-.03.02-.04a.2.2 0 0 1 .15 0h.03l.02-.01Z" fill="#DBA064"/><path d="m9.32 9.11-.1.12a.06.06 0 0 0-.02.05c.02.14 0 .27-.05.4-.1.24-.16.45-.04.69.1.2.17.36.2.5l-.28-.27-.12-.21-.24-.49a.12.12 0 0 0-.03-.04.28.28 0 0 1-.07-.1.73.73 0 0 1-.26-.32l.42-.05c.25-.02.4-.15.6-.28Z" fill="#B2753E"/><path d="M9.69 9.45c.28.01.46.13.65.3a.06.06 0 0 1 .02.07c-.1.24-.23.39-.45.56l-.3.25.05.1c-.06.1-.15.06-.21-.03l-.12-.14c-.06-.08-.13-.17-.18-.26-.12-.26-.06-.5.16-.71a.68.68 0 0 1 .38-.14Z" fill="#BA6E2F"/><path d="M11 9.98c.13.28.3.78-.14.9-.21.05-.23 0-.4.01-.03-.17-.03-.29 0-.35.08-.16.16-.28.17-.5 0 0 .01-.02.03-.02l.34-.04Z" fill="#EED3B5"/><defs><linearGradient id="a" x1="13.37" y1="5.39" x2="4.15" y2="11.16" gradientUnits="userSpaceOnUse"><stop stop-color="#F89B28"/><stop offset=".36" stop-color="#B2586B"/><stop offset=".62" stop-color="#2476DE"/><stop offset="1" stop-color="#2A77D8"/></linearGradient></defs></svg>