<!-- by TradingView --><svg width="18" height="18" viewBox="0 0 18 18" xmlns="http://www.w3.org/2000/svg"><path fill="#F0F3FA" d="M0 0h18v18H0z"/><ellipse cx="9" cy="9.05" rx="6" ry="5.95" fill="#495910"/><ellipse cx="9" cy="8.82" rx="6" ry="5.82" fill="#90FB5D"/><path fill-rule="evenodd" d="M9 14.3a5.56 5.56 0 0 0 5.64-5.48A5.56 5.56 0 0 0 9 3.35a5.56 5.56 0 0 0-5.64 5.47A5.56 5.56 0 0 0 9 14.3Zm0-.23c3 0 5.42-2.35 5.42-5.25S11.99 3.58 9 3.58c-3 0-5.42 2.35-5.42 5.24 0 2.9 2.43 5.25 5.42 5.25Z" fill="#495910"/><path d="M8.98 4.19c-.29 0-.58.02-.86.07l-.09-.47c.31-.06.63-.08.95-.08v.48Zm.82.07a5.04 5.04 0 0 0-.44-.06l.04-.48a5.54 5.54 0 0 1 .95.16l-.13.47a5.04 5.04 0 0 0-.42-.1Zm-2.05.08c-.28.08-.56.18-.82.3l-.21-.44c.29-.13.59-.24.9-.32l.13.46Zm3.63.47a4.87 4.87 0 0 0-.8-.35l.17-.46c.3.1.6.23.87.39l-.24.42Zm-4.79 0c-.25.14-.49.3-.7.48l-.33-.37c.25-.2.51-.38.79-.53l.24.42Zm5.78.73c-.2-.2-.43-.38-.67-.54l.28-.4c.26.18.51.38.74.6l-.35.34Zm-6.77 0c-.2.2-.4.42-.56.65l-.4-.28c.18-.26.39-.5.61-.71l.35.34Zm7.54.96a4.69 4.69 0 0 0-.5-.7l.36-.3c.22.23.4.48.57.75l-.43.25Zm-8.3 0c-.15.24-.27.5-.37.77l-.46-.16c.1-.3.24-.59.4-.85l.43.24Zm8.79 1.11a4.55 4.55 0 0 0-.31-.79l.44-.21c.14.28.26.57.35.88l-.48.12Zm-9.27.01a4.55 4.55 0 0 0-.15.84l-.49-.04a5.01 5.01 0 0 1 .16-.92l.48.12Zm9.44 1.2c0-.29-.03-.57-.09-.85l.5-.09c.05.3.08.62.08.94h-.5Zm-9.6 0c0 .3.03.58.09.85l-.5.1c-.05-.31-.08-.62-.08-.94h.5Zm9.53.79.06-.42.49.03a5.02 5.02 0 0 1-.16.93l-.48-.13.1-.41Zm-9.36.42c.08.28.18.54.31.8l-.44.2a5.03 5.03 0 0 1-.35-.87l.48-.13Zm8.8 1.12c.14-.25.26-.5.36-.77l.46.16c-.1.3-.24.58-.4.85l-.43-.24Zm-8.31 0c.15.24.32.47.5.69l-.36.32c-.21-.24-.4-.5-.57-.76l.43-.25Zm7.54.96c.2-.2.4-.42.56-.65l.4.27c-.18.26-.39.5-.61.72l-.35-.34Zm-6.77 0c.2.2.43.38.67.54l-.28.4a5.28 5.28 0 0 1-.74-.6l.35-.34Zm5.78.73c.25-.14.49-.3.7-.48l.33.37c-.25.2-.51.38-.79.53l-.24-.42Zm-4.79 0c.25.14.52.26.8.35l-.17.46c-.3-.1-.6-.24-.87-.39l.24-.42Zm3.63.46c.28-.07.56-.17.82-.29l.21.44a5.4 5.4 0 0 1-.9.32l-.13-.47Zm-2.47 0a5.06 5.06 0 0 0 .86.14l-.04.48a5.58 5.58 0 0 1-.95-.15l.13-.47Zm1.24.16c.29 0 .58-.03.86-.08l.09.48c-.31.05-.63.08-.95.08v-.48ZM8.7 5.4H8V6H6.6v.33l.4.07c.17.04.3.17.3.33v4c0 .16-.13.3-.3.33l-.4.08v.32H8V12h.7V5.4ZM9.74 5.4H9v1h.02c.77 0 1.03.5 1.07.75v.5c0 .67-.73.87-1.09.88v.51c.26 0 .6.69.8 1.25l.04.1c.2.52.41 1.07 1.21 1.07.68 0 1.04-.36 1.13-.54v-.33c-.05 0-.11.07-.18.14-.08.1-.17.2-.25.2-.24 0-.48-.56-.7-1.06-.09-.18-.16-.36-.24-.5-.22-.4-.76-.55-1-.57v-.08c1.31-.07 1.67-.49 1.67-1.32 0-1-1.09-1.28-1.74-1.3v-.7ZM9 10h.2c.1.5.23.94.5 1.36V12H9v-2Z" fill="#495910"/></svg>