<!-- by TradingView --><svg width="18" height="18" viewBox="0 0 18 18" xmlns="http://www.w3.org/2000/svg"><path fill="url(#a)" d="M0 0h18v18H0z"/><path d="M7.39 3C6.07 3 5 3.99 5 5.2V7h2V4.96c0-.53.37-.96.82-.96h2.36c.45 0 .82.43.82.96V7h2V5.2C13 4 11.93 3 10.61 3H7.4ZM7.39 15C6.07 15 5 14.01 5 12.8V11h2v2.04c0 .53.37.96.82.96h2.36c.45 0 .82-.43.82-.96V11h2v1.8C13 14 11.93 15 10.61 15H7.4Z"/><circle cx="6" cy="9" r="1" fill="#FFEC01"/><circle cx="12" cy="9" r="1" fill="#2E489E"/><defs><linearGradient id="a" x1="18" y1="9" x2="0" y2="9" gradientUnits="userSpaceOnUse"><stop stop-color="#FDF18D"/><stop offset="1" stop-color="#9194C7"/></linearGradient></defs></svg>