<!-- by TradingView --><svg width="18" height="18" viewBox="0 0 18 18" xmlns="http://www.w3.org/2000/svg"><path fill="url(#a)" d="M0 0h18v18H0z"/><path d="m10.58 7.32-.16-.99c-.02-.1-.02-.24 0-.42.01-.3.1-.55.27-.77a1.54 1.54 0 0 1 2.6.15c.19.34.25.7.19 1.06-.04.17-.1.32-.17.45-.26.43-.62.71-.99 1.03l-.22.23c-.27.36-.48.75-.62 1.19-.17.52-.32 1.14-.46 1.86l-.28 1.5c-.12.66-.5 1.16-1.16 1.32-.46.11-1 .1-1.44-.1-.6-.27-.83-.81-.93-1.44l-.36-1.9a16.4 16.4 0 0 0-.33-1.24 4.06 4.06 0 0 0-.55-1.09c-.1-.14-.2-.25-.3-.34-.35-.3-.66-.54-.9-.88-.6-.88-.16-2.04.8-2.36a1.55 1.55 0 0 1 2 1.83c-.12.62-.22 1.13-.2 1.67.03.58.15 1.15.37 1.7.2.46.52.78 1.01.86.7.1 1.22-.2 1.5-.86.32-.74.45-1.65.33-2.46Z" fill="#fff"/><defs><linearGradient id="a" x1="16.22" y1="2.35" x2="0" y2="15.42" gradientUnits="userSpaceOnUse"><stop stop-color="#182464"/><stop offset=".51" stop-color="#101118"/><stop offset="1" stop-color="#203566"/></linearGradient></defs></svg>