<!-- by TradingView --><svg width="18" height="18" viewBox="0 0 18 18" xmlns="http://www.w3.org/2000/svg"><path fill="#2E6588" d="M0 0h18v18H0z"/><path d="M5.17 7.24V12h1.66v2.7L10.5 12h2.33v-1.82H13V6.06c0-.33-.3-.59-.67-.59h-.5V4.44l-.83-.3-.83.3-.84-.3-.83.3-.83-.3-1 .3-.67-.3-.83.3v2.8Z" fill="url(#allrdfw5t)"/><path d="M10.67 8.26V6.8c-1.19 0-1.55-.57-1.64-1.03L9 5.47h3.33c.37 0 .67.26.67.59v4.12h-.33V6.06c0-.16-.15-.3-.34-.3H9.37a.9.9 0 0 0 .18.36c.16.19.47.38 1.12.38H11v2.06h-.33c-.79 0-1.65.43-1.81 1.32l-.01.12H8.5l.01-.12c.16-1.1 1.23-1.62 2.15-1.62Z" fill="#FFE7C0"/><path fill-rule="evenodd" d="M6.67 7.12V4.88c0-.32-.3-.59-.67-.59-.37 0-.67.27-.67.6v2.23c0 .32.3.59.67.59.37 0 .67-.27.67-.6ZM6 4c-.55 0-1 .4-1 .88v2.24C5 7.6 5.45 8 6 8s1-.4 1-.88V4.88C7 4.4 6.55 4 6 4Z" fill="#FFE7C0"/><path fill-rule="evenodd" d="M8.33 7.12V4.88c0-.32-.3-.59-.66-.59-.37 0-.67.27-.67.6v2.23c0 .32.3.59.67.59.36 0 .66-.27.66-.6ZM7.67 4c-.56 0-1 .4-1 .88v2.24c0 .48.44.88 1 .88.55 0 1-.4 1-.88V4.88c0-.48-.45-.88-1-.88Z" fill="#FFE7C0"/><path fill-rule="evenodd" d="M10 7.12V4.88c0-.32-.3-.59-.67-.59-.36 0-.66.27-.66.6v2.23c0 .32.3.59.66.59.37 0 .67-.27.67-.6ZM9.33 4c-.55 0-1 .4-1 .88v2.24c0 .48.45.88 1 .88.56 0 1-.4 1-.88V4.88c0-.48-.44-.88-1-.88Z" fill="#FFE7C0"/><path d="M12.67 7.24v4.47h-2.22L7 14.43V11.7H5.33V5.47H5V12h1.67v3l3.88-3H13V7.24h-.33ZM11.67 4.88v.88H12v-.88c0-.48-.45-.88-1-.88s-1 .4-1 .88v.88h.33v-.88c0-.32.3-.59.67-.59.37 0 .67.27.67.6Z" fill="#FFE7C0"/><path d="M10.33 6.65H10v.59c0 .48.45.88 1 .88v-.3c-.37 0-.67-.26-.67-.58v-.6Z" fill="#FFE7C0"/><defs><linearGradient id="allrdfw5t" x1="12.06" y1="5.92" x2="10.11" y2="10.91" gradientUnits="userSpaceOnUse"><stop stop-color="#C92828"/><stop offset="1" stop-color="#FD7419"/></linearGradient></defs></svg>