<!-- by TradingView --><svg width="18" height="18" viewBox="0 0 18 18" xmlns="http://www.w3.org/2000/svg"><path fill="#2C0B62" d="M0 0h18v18H0z"/><path d="m9.4 4.14.05.03c.03.01.04.03.03.06l-.03.01h-.08a4.1 4.1 0 0 0-2.86.37l-.1.1a2.1 2.1 0 0 1-.2.11.34.34 0 0 0-.08.07 4.17 4.17 0 0 0-1.06 1.19c-.07.11-.12.25-.19.38-.05.09-.08.18-.1.25l-.1.36c-.04.08-.06.19-.07.32l-.03.45v.48l.03.34c0 .11.03.22.06.34l.13.47c.02.1.06.2.1.29.08.22.18.43.3.64l.29.48.18.25a5.75 5.75 0 0 0 1.97 1.65c.02 0 .04 0 .06.02l.08.04.18.1H8c.05 0 .08.02.11.03l.12.06a7.35 7.35 0 0 1 .42.15 4.7 4.7 0 0 0 2.24.1l.44-.13a3.52 3.52 0 0 0 .92-.5v-.02l-.15-.33c.31-.2.58-.44.8-.72l.12.17c.02.02.05.03.09.03.02 0 .04-.02.06-.05.06-.06.1-.13.14-.2l.12-.2.12-.2a3 3 0 0 0 .17-.56l.09-.42c.03-.2.04-.41.05-.64a4.55 4.55 0 0 0-.3-1.61.15.15 0 0 1 .07-.08 5.7 5.7 0 0 1 .37 2.05c-.03.27-.03.5-.08.74a4.03 4.03 0 0 1-1.67 2.57c-.13.06-.25.11-.37.18a.55.55 0 0 1-.14.05.73.73 0 0 0-.23.1c-.16.04-.31.06-.47.07a.2.2 0 0 1-.17-.06v-.02c.08 0 .12 0 .2-.04a25.19 25.19 0 0 0 .67-.28v-.02h-.01l-.44.15a4.97 4.97 0 0 1-4.22-.7A5.66 5.66 0 0 1 4.6 9.26a5.04 5.04 0 0 1-.06-2.03c.02-.13.07-.29.1-.38a7.54 7.54 0 0 0 .15-.47 5.17 5.17 0 0 0 .26-.46c.04-.06.08-.13.11-.22.02-.03.01-.03-.01-.03l-.02.02a6.24 6.24 0 0 0-.54.9c-.02-.01-.02-.02-.02-.04 0-.28.11-.5.27-.75a3.9 3.9 0 0 1 .54-.7l.19-.17.38-.3c.05-.04.1-.07.18-.1l.05-.04a4.7 4.7 0 0 1 3.21-.35Z" fill="#FBEDF4"/><path d="M13.62 7.82a.15.15 0 0 0-.07.08 1.95 1.95 0 0 0-.15-.38c-.07-.12-.11-.25-.18-.36a5.9 5.9 0 0 0-3.85-2.91h.08l.03-.02c0-.03 0-.05-.03-.06l-.05-.03c.2.03.34.07.42.1l.42.16a6.11 6.11 0 0 1 3.38 3.42Z" fill="#EC8BC6"/><path d="m9.37 4.25.47.12a3.9 3.9 0 0 1 .7.27 5.9 5.9 0 0 1 2.68 2.52c.07.11.1.24.18.36.06.12.1.25.15.38.12.32.2.66.24 1l.01.23h-.02c0 .02 0 .02-.01 0L13.66 9a3.14 3.14 0 0 0-.17-.9 1.85 1.85 0 0 0-.11-.36 23.22 23.22 0 0 1-.18-.41.25.25 0 0 1-.04-.07c-.03-.09-.09-.16-.13-.25l-.07-.14c-.14-.2-.2-.32-.22-.33a.4.4 0 0 0-.04-.05.24.24 0 0 1-.05-.06.77.77 0 0 0-.08-.13l-.37-.39a4.23 4.23 0 0 0-.68-.6 6 6 0 0 0-1.44-.74 4.55 4.55 0 0 0-2.2-.2c-.24.05-.5.05-.74-.01a4.1 4.1 0 0 1 2.23-.1Z" fill="#6710B7"/><path d="m9.34 4.37-.03.48-.33-.02a3.65 3.65 0 0 0-1.09.08 4.4 4.4 0 0 1-.37.13 2.8 2.8 0 0 0-1.7 1.85 7.82 7.82 0 0 0-.14.66l.01.07.02.1c0 .12 0 .25.02.37 0 .06.03.08.06.06a5.9 5.9 0 0 1 .08.58c.04.2.1.39.16.57a.17.17 0 0 0-.07.12c0 .03 0 .05.02.08.1.16.15.37.24.5.34.53.73.97 1.17 1.32a4.54 4.54 0 0 0 2.15.94 5.08 5.08 0 0 0 .84 0l.23-.04a.71.71 0 0 0 .23-.1c.05-.04.06-.08.03-.12l.29-.1.17-.07a.32.32 0 0 1-.1.16v.03l.01.01h.03l.19-.05.31-.18a2.68 2.68 0 0 0 1.15-1.4l-.01-.02-.25-.1c.05-.15.08-.3.1-.47l.33-.08.02-.02c.03-.19.04-.37.04-.55.07-.14.16-.23.3-.15l.2.14c0 .01 0 0 0 0v-.16l.12.15h.01c0-.02 0-.02.02-.02 0 .01 0 0 0 0V8.9c.03.23.05.43.05.61a5.73 5.73 0 0 1-.14 1.06l-.1-.29a.29.29 0 0 0-.03-.05h-.01l-.06.25a.9.9 0 0 1-.08.2 3.16 3.16 0 0 1-.54.9 3.2 3.2 0 0 1-1.81 1.15l-.28.06-.52.07c-.23.01-.43 0-.59-.02a14.2 14.2 0 0 0-.41-.06 5.34 5.34 0 0 1-3.5-2.5c-.2 0-.4.04-.58.12-.12-.2-.22-.42-.3-.64l.49-.24V9.5c-.1-.3-.15-.46-.2-.7a44.97 44.97 0 0 1-.12-.71l-.46.06-.02.02v.15-.48l.47-.12.01-.02.04-.4c.02-.11.04-.24.08-.37l.11-.35a3.29 3.29 0 0 1 1.32-1.7l.44-.27c.05-.03.1-.04.13-.07.02 0 .02 0 0 0l-.43.03c-.19.04-.23.03-.12-.03.16-.08.33-.14.5-.19.25.06.5.06.75.02l.22-.03.23-.02c.34-.02.67 0 1 .05Z" fill="#786FC6"/><path d="M13.66 8.99v.16h-.02c-.06-.05-.12-.1-.2-.14-.13-.08-.22.01-.29.15l-.02-.36a3.7 3.7 0 0 0-.37-1.35c-.14-.3-.28-.54-.43-.74a4.7 4.7 0 0 0-3.01-1.86c-.01-.16 0-.32.02-.48a4.56 4.56 0 0 1 1.54.53 5.99 5.99 0 0 1 1.77 1.52l.05.06a.4.4 0 0 1 .04.05l.22.33.07.14c.04.09.1.16.13.25l.04.07.04.06.14.35c.05.12.09.23.11.36l.12.46c.02.08.03.22.05.44Z" fill="#6755AD"/><path d="m5.82 5.63-.3-.2a4.17 4.17 0 0 1 .88-.72l.1-.1a.32.32 0 0 1 .14-.07c-.11.06-.07.07.12.03a5.28 5.28 0 0 1 .43-.03l-.13.07-.44.28c-.3.2-.58.44-.8.74Z" fill="#99B5E6"/><path d="M5.96 4.63a27.25 27.25 0 0 1-.57.47l-.12.13-.12.12a3.9 3.9 0 0 0-.3.45c-.16.25-.27.47-.27.75 0 .02 0 .03.02.03h.02a6.24 6.24 0 0 1 .52-.89.13.13 0 0 1 .02-.02c.02 0 .03 0 .01.03-.03.09-.07.16-.11.22l-.12.2-.14.26-.08.23-.07.24c-.03.1-.08.25-.1.38a23 23 0 0 0-.08.7v.38a6.05 6.05 0 0 1 .04.41 5.04 5.04 0 0 0 .24 1c-.04-.08-.1-.21-.17-.26-.08-.04-.13.02-.14.1l-.06-.14a6.02 6.02 0 0 1-.21-2.03.01.01 0 0 0-.01 0 .5.5 0 0 1-.05.1l-.02.02c-.01 0-.02.02-.01.04 0 .02 0 .05-.02.08a5.18 5.18 0 0 1 .5-1.58c.03-.08.08-.15.13-.23a4.95 4.95 0 0 1 1.27-1.2Z" fill="#F79BB0"/><path d="m8.98 4.83.03.29a3.77 3.77 0 0 0-.65 0c-.12.02-.22.06-.33.07-.08 0-.16.03-.25.05-.15.05-.29.1-.42.17l.09-.17c.02-.05 0-.1-.04-.15a.9.9 0 0 0 .1-.05L7.63 5l.27-.09a3.65 3.65 0 0 1 1.09-.08Z" fill="#7D94CB"/><path d="M9.31 4.85a4.7 4.7 0 0 1 3.45 2.6l-.3.17a4.86 4.86 0 0 0-1.13-1.49A4.26 4.26 0 0 0 9 5.12l-.03-.29.33.02Z" fill="#472672"/><path d="M7.41 5.09c.05.05.06.1.04.15l-.1.17-.31.22c-.33.24-.62.52-.85.86a.67.67 0 0 1-.14.15 1.1 1.1 0 0 1-.18.12A2.8 2.8 0 0 1 7.4 5.09Z" fill="#F896FF"/><path d="M9.01 5.12a3.96 3.96 0 0 1 2.32 1.01l.13.13-.08.06a4.88 4.88 0 0 0-1.85-.96 3.5 3.5 0 0 0-1.43-.03 2.82 2.82 0 0 0-1.08.46 2.55 2.55 0 0 0-1.06 1.78 3.27 3.27 0 0 0 .11 1.53c.02.09.06.2.11.3l.04.1c.03.08.04.14.1.23.06.1.12.2.17.32l-.05.03a2.41 2.41 0 0 1-.31-.58l-.1-.2A4.4 4.4 0 0 1 5.76 8c0-.02-.01-.02-.01 0l-.02.1a4.15 4.15 0 0 1-.04-.47l-.01-.07a7.82 7.82 0 0 1 .19-.8c.06-.02.12-.06.18-.1.05-.04.1-.1.14-.16.23-.34.52-.62.85-.86l.32-.22a3.33 3.33 0 0 1 .67-.22c.1-.01.21-.05.33-.06.21-.03.43-.03.65-.01Z" fill="#B0E1FB"/><path d="M11.38 6.32a4.77 4.77 0 0 1 1.08 1.53 184.42 184.42 0 0 1 .2.6 27.7 27.7 0 0 0 .05.56 4.46 4.46 0 0 1-.12 1.14 55.46 55.46 0 0 0-.22.5 2.66 2.66 0 0 1-1.93 1.33 5.6 5.6 0 0 1-1.25-.04 1.2 1.2 0 0 0-.18-.04 4.35 4.35 0 0 1-.74-.27c.17-.15.34-.25.53-.32.04-.01.04-.03 0-.05a.7.7 0 0 1-.1-.05c-.08-.05-.07-.07.01-.07h.15c.07.02.15.05.23.06l.17.04.17.05c.2.03.4.05.63.05.14 0 .26 0 .38-.04l.37-.1c.24-.12.47-.28.67-.48.06-.05.1-.1.13-.15l.1-.16a21.48 21.48 0 0 0 .23-.46c.05-.09.07-.22.08-.4l.03-.14c.06-.26.07-.5.04-.73a15.5 15.5 0 0 1-.1-.54 9.5 9.5 0 0 0-.22-.53 17.26 17.26 0 0 1-.25-.4 4.92 4.92 0 0 0-.7-.7 3.12 3.12 0 0 0-1.39-.6 4.02 4.02 0 0 0-.8 0l-.13.03a.35.35 0 0 1-.12.02h-.05l-.04.02c-.06 0-.1.03-.15.05a.51.51 0 0 1-.08.03.74.74 0 0 0-.34.23.17.17 0 0 0-.05.13 2.27 2.27 0 0 0 .14.32c.06.1.15.18.26.23.12.07.2.1.27.1a.9.9 0 0 0 .43-.12c.06-.03.1-.08.08-.15v-.02l.02-.02.22-.1-.01.03a.2.2 0 0 0 .1.06c.14.03.31.03.46.06a2.36 2.36 0 0 0 .24.05l.08.03-.16-.01v.03l.25.15-.24-.1a.82.82 0 0 0-.32-.09l-.01.02c-.01.12.04.23.14.3.15.1.38.26.53.39.2.17.36.38.5.62l.24.4c.06.1.14.16.25.17a.31.31 0 0 0 .02-.1v-.15h.01v.02-.02l.07.33c.03.16-.02.29-.14.39l-.02.02c-.1.21-.2.39-.31.53-.1.11-.23.22-.4.32a.25.25 0 0 1-.06.02.13.13 0 0 0-.06.03.05.05 0 0 1-.04.02.04.04 0 0 1-.03-.03c-.07-.1-.13-.2-.18-.33-.13-.31-.26-.6-.47-.9L9 8.12c-.06-.14-.17-.21-.31-.2a380.24 380.24 0 0 1-.88-.83.25.25 0 0 0-.23-.08.68.68 0 0 0-.37-.2 3.64 3.64 0 0 1-.18-.94l.26-.2a.9.9 0 0 0 .09-.08 2.82 2.82 0 0 1 1.56-.32 4.08 4.08 0 0 1 2.46 1.05Z" fill="#683EB9"/><path d="m5.53 5.44.29.19a3.29 3.29 0 0 0-.63 1.3c-.04.13-.06.26-.08.37a11.74 11.74 0 0 0-.05.42l-.48.12a5.47 5.47 0 0 1 .1-.77c.04-.13.08-.25.1-.36.02-.07.05-.16.1-.25.07-.13.12-.27.2-.39.12-.22.28-.43.45-.63Z" fill="#BE58E2"/><path d="M7.37 5.59a.9.9 0 0 1-.1.09 4.48 4.48 0 0 0-.26.22c.02.3.09.6.19.9a.48.48 0 0 0-.38.1.47.47 0 0 0-.2.36c0 .23.1.4.31.54a.23.23 0 0 1-.09.13.76.76 0 0 0-.1.08c-.1.1-.13.22-.2.41a.99.99 0 0 0-.09.32c0 .17.03.31.09.44l.4.73a1.56 1.56 0 0 0 .2.27h.01c.01 0 .02-.01 0-.02v-.03l.01-.03c0-.06 0-.11.02-.16a3.45 3.45 0 0 0 1.43 1.14l.25.06H8.7c-.08 0-.09.02-.02.07a.7.7 0 0 0 .11.05c.04.02.04.04 0 .05-.19.07-.36.17-.53.32a4.43 4.43 0 0 1-1.95-1.9c-.06-.09-.07-.15-.1-.23a.76.76 0 0 0-.04-.1c-.05-.1-.09-.21-.1-.3a3.27 3.27 0 0 1 .02-2.05A2.55 2.55 0 0 1 7.36 5.6Z" fill="#7446D1"/><path d="M9.44 5.9c.03.08.09.13.17.15l.4.13c.1.02.26.1.48.22l-.48-.2v.02l.24.1a5.17 5.17 0 0 0-1.14-.21c-.1-.01-.22 0-.32.02-.19.04-.36.11-.52.21a.28.28 0 0 1-.1.03.34.34 0 0 0-.07.03.16.16 0 0 1-.18-.02l-.04-.02a.05.05 0 0 0-.04.03v.02c.03.02.04.04.03.07a.14.14 0 0 1-.04-.05l-.02-.02-.07.01-.02.06v.08a.26.26 0 0 1-.05-.14c0-.05.01-.09.05-.13.1-.11.2-.19.34-.23.03 0 .06-.02.08-.03.04-.02.1-.05.15-.05l.04-.01c.02-.01.03-.02.05-.01.03 0 .07 0 .12-.02a.42.42 0 0 1 .12-.02l.14-.02.13-.02c.18 0 .36 0 .55.03Z" fill="#F896FF"/><path d="M12.05 9.4c-.04-.05-.1-.09-.16-.06-.09.04-.12.18-.17.28-.12.3-.32.6-.58.8l-.24.18-.13.14a.06.06 0 0 0 0 .05.06.06 0 0 0 .02.03c.05.02.1.03.15.01.04 0 .1-.03.18-.08l.16-.11c.15-.11.27-.24.36-.39.1-.15.2-.34.32-.56-.08.24-.18.44-.27.58-.17.24-.4.45-.73.62-.14.08-.31.12-.5.13a.67.67 0 0 1-.31-.06c-.03-.01-.05-.03-.06-.06a.16.16 0 0 1 0-.09l.01-.02.54-.2c.32-.13.6-.34.85-.64.1-.12.16-.28.21-.4l.09-.24a2.2 2.2 0 0 0-.04-1.14 3.36 3.36 0 0 0-.08-.27 1.84 1.84 0 0 0-.83-1.27 1.15 1.15 0 0 0-.27-.18l-.07-.05a2.97 2.97 0 0 0-.9-.35.25.25 0 0 1-.16-.14 3.11 3.11 0 0 1 1.68.84 4.92 4.92 0 0 1 .56.7 13.37 13.37 0 0 0 .18.33l.14.36.05.27.04.27c.03.23.02.47-.04.73Z" fill="#E06EFC"/><path d="m9.92 6.24.65.2c.1.06.2.12.27.19l-.31-.08-.27-.12-.37-.13a5.2 5.2 0 0 0-.1-.02h-.01l-.2-.02h-.03a.66.66 0 0 0-.23.2.2.2 0 0 0-.11-.19H9.2l-.01.01v.02c.07.04.1.09.07.15l-.04.07c-.05.06-.06.08-.04.08l-.1.07-.2.1-.02.01v.02c0 .07-.03.12-.09.15a.9.9 0 0 1-.42.12.66.66 0 0 1-.27-.1c.04.02.09.02.15.01a.03.03 0 0 0 .02-.01.03.03 0 0 0 0-.03.23.23 0 0 0-.08-.09l.11.04a.03.03 0 0 0 .03-.01.03.03 0 0 0 0-.03.55.55 0 0 1-.02-.36.04.04 0 0 0-.02-.04h-.34c-.03.02-.04.07-.03.13l-.03-.1c0-.03 0-.05-.03-.07V6.4a.05.05 0 0 1 .04-.03c.01 0 .03 0 .04.02.06.04.12.05.18.02a.34.34 0 0 1 .07-.03c.03 0 .07 0 .1-.03.16-.1.33-.17.52-.21.1-.03.21-.03.33-.02.27.02.54.07.8.13Z" fill="#9D43D5"/><path d="M9.9 6.3a.5.5 0 0 0 .2.1l.1.06h-.01l.53.34a2.56 2.56 0 0 1 .15.15c.27.21.48.48.62.8l.04.12a1.23 1.23 0 0 1-.01.22.65.65 0 0 1-.08.4.03.03 0 0 1-.03.02.03.03 0 0 1-.03-.02l-.09-.24c-.09-.2-.16-.34-.22-.41l-.22-.29c.14.14.23.24.27.32.05.09.14.2.2.32.03.06.05.06.06-.01.06-.47-.29-.96-.63-1.23-.33-.26-.66-.41-1.06-.33a.2.2 0 0 0-.15.11.24.24 0 0 1-.12-.08H9.4c-.04.02-.09.06-.14.05-.02 0-.02 0 0-.01l.21-.18V6.5h-.01l-.38.19v-.02l.1-.07.14-.15a.66.66 0 0 1 .23-.18h.03l.2.02v-.01a7.94 7.94 0 0 1 .11.02Z" fill="#472672"/><path d="m10.5 6.4.07.05-.65-.2a1.57 1.57 0 0 1 .33.07 23.33 23.33 0 0 0-.24-.1V6.2l.49.19Z" fill="#BE58E2"/><path d="m12.46 7.62.15.37c.05.1.08.18.09.24l.09.54c.06.35.05.7-.03 1.04-.02.17-.05.32-.1.48l-.12.24-.12.24c-.27.46-.64.81-1.1 1.06l-.16.07H11.04v-.08a2.66 2.66 0 0 0 1.6-1.88 4.46 4.46 0 0 0-.02-1.64 184.42 184.42 0 0 0-.26-.69 4.77 4.77 0 0 0-.98-1.29l.08-.06a4.38 4.38 0 0 1 1 1.36Z" fill="#FBEDF4"/><path d="M9 6.6a.3.3 0 0 0-.12.06.44.44 0 0 0 .12-.07l-.07.07-.36.15a.61.61 0 0 1-.18.03l-.03-.01c-.02-.02-.03-.05-.03-.1v-.06c0-.1.05-.19.14-.24a.96.96 0 0 1 .58-.1l.1.03a.07.07 0 0 1 .04.05.07.07 0 0 1-.02.06l-.11.1c-.05.05-.05.04-.01 0l.11-.13.01-.02v-.01a.04.04 0 0 0-.02-.03.61.61 0 0 0-.28-.05h.01l.24.05a.02.02 0 0 1 .02.02.02.02 0 0 1 0 .02L9 6.6Z" fill="#F896FF"/><path d="m7.87 6.48.03.1c.05.12.13.21.27.27.04.03.06.06.08.1a.03.03 0 0 1-.01.03h-.17a.56.56 0 0 1-.26-.24l-.09-.18v-.08c0-.02 0-.04.02-.06a.08.08 0 0 1 .07 0l.02.01.04.05Z" fill="#E06EFC"/><path d="m10.2 6.46.16.06.14.08c.12.07.23.16.32.26s.05.09-.1-.06l-.53-.33v-.01h.01Z" fill="#663580"/><path d="M8.17 6.85a.49.49 0 0 1-.27-.27c-.01-.06 0-.1.03-.13h.32a.04.04 0 0 1 .04 0 .04.04 0 0 1 0 .04.55.55 0 0 0 .03.36.03.03 0 0 1 0 .03.03.03 0 0 1-.04 0l-.11-.03Z" fill="#472672"/><path d="m9.54 6.73.3.1c.07.01.13.04.17.08a1.38 1.38 0 0 0-.14-.06 2.36 2.36 0 0 1-.24-.05c-.14-.02-.31-.02-.44-.05a.2.2 0 0 1-.11-.06l.38-.2h.01v.01l-.22.19v.01c.06 0 .11-.03.15-.06h.02c.03.05.07.08.12.1Z" fill="#663580"/><path d="M10.84 6.63c.39.26.64.6.76 1-.01.06 0 .1.01.15.01.02.01.03 0 0l-.01-.02a2.28 2.28 0 0 0-.27-.48v.01l.1.2a4.06 4.06 0 0 0-.31-.4 3.12 3.12 0 0 0-.32-.27l.02.04c-.1-.1-.2-.19-.32-.26.03 0 .04-.02.03-.05l.3.08Z" fill="#7446D1"/><path d="m10.85 7.55-.13-.14v-.02h-.02l-.02-.02a.13.13 0 0 0-.05-.04.29.29 0 0 1-.05-.04 1.49 1.49 0 0 0-.35-.27 2.02 2.02 0 0 1-.22-.1.47.47 0 0 0-.17-.1 5.18 5.18 0 0 0-.3-.09.2.2 0 0 1 .15-.11c.4-.08.73.07 1.06.33.34.27.7.76.63 1.23-.01.07-.03.07-.06 0l-.2-.31a1.27 1.27 0 0 0-.27-.32Z" fill="#331B3E"/><path d="m11.43 7.49.04.07.03.09.08.2v.01l-.02-.01c-.05-.12-.07-.15-.07-.1a2.09 2.09 0 0 0-.62-.8 2.56 2.56 0 0 0-.15-.15c.15.15.19.17.1.06a.17.17 0 0 1-.02-.04c0-.01 0-.02 0 0 .12.08.22.17.32.26l.31.4Z" fill="#683EB9"/><path d="M7.2 6.8c.14.03.26.1.37.21.1.11.15.24.15.39 0 .08-.02.16-.06.22a.5.5 0 0 1-.32.25.51.51 0 0 1-.4-.07c-.22-.14-.32-.31-.31-.54 0-.14.07-.25.19-.35.1-.1.23-.13.38-.1Z" fill="#FBEDF4"/><path d="m9.8 6.96-.19-.05-.02.01c-.05.06-.03.12.04.17l.53.34a1 1 0 0 1 .2.17c.1.11.2.23.3.37.07.07.12.17.18.29l.16.3c.02.04.03.03.04-.01l.04-.2h-.02l-.03.08a.05.05 0 0 1-.04.01.04.04 0 0 1-.04-.02 3.78 3.78 0 0 0-.46-.72c-.1-.13-.21-.23-.33-.31a145.33 145.33 0 0 0-.5-.34l-.02-.02v-.04c0-.04.02-.05.05-.02.04.04.04.08.08.12l.07.06c.11.05.22.12.31.2a3.48 3.48 0 0 1 .55.55v-.02l-.1-.11v-.01h.01l.15.1c.02.02.02.02.01 0l-.04-.13c0-.02 0-.02.01-.01l.02.02.02.05-.02-.05.07.12h.01l-.07-.2c.1.12.18.25.24.39l.12.25.05.18v.06-.02h-.01l-.01.14-.04-.18c0-.01 0-.01 0 0-.01.1 0 .2.02.29a.3.3 0 0 1-.25-.17l-.23-.4a2.59 2.59 0 0 0-.51-.62c-.15-.13-.38-.28-.53-.39a.33.33 0 0 1-.14-.3l.01-.02c.11.01.22.04.32.09Z" fill="#472672"/><path d="m9.96 6.9.05.01.22.11c.08.04.2.13.35.27l.06.04.04.04.02.01.02.01v.02l.13.14.22.29c.06.07.13.2.22.41l.07.37v.19a.03.03 0 0 1-.04.02h-.03c-.01.01-.02 0-.02-.01a.82.82 0 0 0-.1-.34c-.01-.1-.03-.16-.04-.18l-.12-.25a1.67 1.67 0 0 0-.24-.39c-.04-.01-.06-.05-.08-.1v-.02a2.58 2.58 0 0 1-.2-.19.69.69 0 0 0-.17-.11l-.02-.03a.13.13 0 0 0-.1-.07h-.04l-.1-.08-.26-.15v-.03l.16.01Z" fill="#BE58E2"/><path d="m9.8 6.96.25.1.11.07.03.01c.05.01.08.03.1.07l.03.03c.07.03.12.07.17.11a2.51 2.51 0 0 0 .2.2c.02.06.04.1.08.11l.07.2-.08-.12-.02-.02h-.01l.04.13c.01.03 0 .03-.01.02l-.15-.12v.01l.1.11v.03h-.02c-.16-.2-.34-.39-.54-.55-.1-.08-.2-.15-.31-.2l-.07-.06c-.04-.04-.04-.08-.08-.12-.03-.03-.05-.02-.05.02v.04l.01.02.15.11.36.23c.12.08.23.18.33.3a3.78 3.78 0 0 1 .48.75.04.04 0 0 0 .06-.01.22.22 0 0 0 .03-.08h.01l-.03.2c0 .04-.02.05-.04 0a5.8 5.8 0 0 1-.16-.29 1.58 1.58 0 0 0-.18-.3l-.3-.36a1 1 0 0 0-.2-.17l-.53-.34c-.07-.05-.09-.1-.04-.17h.02l.2.04Z" fill="#2C0B62"/><path d="M8.68 7.91c-.11.06-.16.16-.14.3.03.2.13.33.3.39.07.02.1.01.14-.05.1-.13.1-.27.01-.43l.54.8c.21.3.34.59.47.9a2.52 2.52 0 0 0 .2.35.04.04 0 0 0 .03 0h.02a.13.13 0 0 1 .06-.04l.06-.02c.17-.1.3-.2.4-.32a2.2 2.2 0 0 0 .33-.55c.12-.1.17-.23.14-.4l-.06-.32v-.04c.04.07.07.19.09.34 0 .01 0 .02.02.02h.03l.02-.01.01-.02.01-.19.04.19c0 .01.01.02.02.01.02 0 .03-.02.04-.05 0 .1-.04.21-.1.3l-.04.04a.1.1 0 0 0-.04.02v.01l.04-.03c-.01.04-.01.06 0 .07v.04c0 .03 0 .04 0 0l.04-.08v.02l-.04.17a1.5 1.5 0 0 1-.3.45.84.84 0 0 0-.1.11.77.77 0 0 1-.22.26c-.2.1-.41.15-.64.15-.22 0-.45-.03-.66-.07a1.7 1.7 0 0 1-.12-.19.52.52 0 0 0-.2-.19l-.25-.15a2.23 2.23 0 0 1-.87-1.14.72.72 0 0 0-.41-.45.57.57 0 0 0-.52.04.83.83 0 0 0-.38.5c-.01.1 0 .2.03.3.07.2.16.41.27.63.05.1.13.22.23.36a.3.3 0 0 0-.02.16V10.17h-.03a1.56 1.56 0 0 1-.19-.26c-.15-.26-.29-.5-.4-.73a.9.9 0 0 1-.09-.44c0-.08.03-.19.08-.32.08-.19.12-.31.2-.41a.76.76 0 0 1 .11-.08.23.23 0 0 0 .1-.13c.11.08.25.1.4.07a.5.5 0 0 0 .32-.25.44.44 0 0 0 .06-.22.54.54 0 0 0-.15-.39c.09-.02.17.01.23.08l.07.08.8.74Z" fill="#824CE0"/><path d="M7.1 7.7c.1 0 .19 0 .27-.05l.07-.44V7.2l-.02-.02a.78.78 0 0 0-.51-.03c-.01 0-.02 0-.02.02l-.04.38a.4.4 0 0 1-.05-.33c.01-.05.03-.1.06-.11a.5.5 0 0 1 .12-.07A.26.26 0 0 1 7.1 7h.11c.12 0 .22.05.3.14.06.09.05.2.02.3l-.02.11a.2.2 0 0 1-.05.1.15.15 0 0 1-.09.05.76.76 0 0 1-.26 0Z" fill="#D585FF"/><path d="M7.37 7.65a1.6 1.6 0 0 1-.42 0 .32.32 0 0 1-.1-.1l.04-.4.02-.01a.78.78 0 0 1 .5.03c.01 0 .02 0 .02.02v.02l-.06.44Z" fill="#824CE0"/><path d="M11.49 7.75c0-.05.02-.02.07.1l.01.01s.01 0 0 0l-.07-.21c.1.21.18.44.22.66v.2l-.02.02a.73.73 0 0 0-.24.24c0 .03-.02.05-.04.05l-.02-.01-.04-.19-.07-.37.1.24a.03.03 0 0 0 .02.02.03.03 0 0 0 .03-.02c.07-.12.1-.25.08-.4-.02-.2-.08-.38-.16-.52a9.69 9.69 0 0 0-.22-.34h.01a2.89 2.89 0 0 1 .38.64l-.04-.12Z" fill="#663580"/><path d="m11.6 7.63.07.27a3.35 3.35 0 0 1 .16.64c.03.27.02.53-.04.77l-.09.24c-.05.12-.12.28-.21.4-.25.3-.53.51-.85.64a19.46 19.46 0 0 1-.56.22v.1l.07.05c.08.04.18.06.3.06.2 0 .37-.05.51-.13.32-.17.56-.38.73-.62.1-.14.19-.34.27-.58l.06-.13c-.01.17-.03.3-.07.38a20.46 20.46 0 0 1-.23.47l-.11.16a.76.76 0 0 1-.13.15c-.2.2-.43.36-.67.47a2.25 2.25 0 0 1-.75.15 4.64 4.64 0 0 1-.8-.1 1.4 1.4 0 0 0-.17-.04 1.28 1.28 0 0 1-.23-.06l-.25-.06.29-.01c.03 0 .07-.02.13-.05l.02.04.02.02c.24.05.47.08.68.1.16.01.31 0 .47-.04.04-.01.04-.02 0-.04L9.89 11a.6.6 0 0 1-.08-.05c-.14-.12-.3-.2-.47-.24l.06-.16a3.38 3.38 0 0 0 .92-.06l.26-.07c.43-.16.74-.44.93-.85a.7.7 0 0 0 .08-.3.91.91 0 0 0-.07-.33.02.02 0 0 0-.02 0c-.08.12-.14.25-.18.4l.04-.17v-.01a.16.16 0 0 0 0-.01l-.03.09c-.01.03-.01.02-.01 0v-.05a.34.34 0 0 0 .04-.1c.06-.1.1-.2.1-.3.06-.1.14-.19.24-.25l.02-.02v-.2c-.04-.22-.11-.45-.22-.66l-.03-.09.01.02v-.02l-.05-.07-.1-.2v-.01a2.28 2.28 0 0 1 .28.5.21.21 0 0 1 0-.15Z" fill="#9D43D5"/><path d="m4.38 9.42.22.67v.02l.03.05.02.07.12.28c.04.1.09.19.14.27.03.03.04.09.06.11a.2.2 0 0 1 .05.07 2.72 2.72 0 0 0 .09.19l.13.17.06.12.06.13a.2.2 0 0 1 .01.07c0 .05-.03.06-.07.06l-.36-.5-.43-.76a2.92 2.92 0 0 1-.25-.65 9.42 9.42 0 0 1-.24-1.18 3.33 3.33 0 0 1 .07-1.1.64.64 0 0 0 .02-.02.5.5 0 0 0 .05-.1.01.01 0 0 1 .02 0c.02.02.03.04.03.07a5.57 5.57 0 0 0 .17 1.96Z" fill="#FDF5EF"/><path d="M13.15 9.16a3.35 3.35 0 0 1-.06.57l-.33.08c.08-.34.09-.7.03-1.04l-.1-.54a1.07 1.07 0 0 0-.08-.24c-.06-.11-.1-.25-.15-.37l.3-.17a3.7 3.7 0 0 1 .4 1.7Z" fill="#554688"/><path d="M7.37 7.65a.5.5 0 0 1-.27.05.26.26 0 0 1-.15-.05c.15.02.29.02.42 0Z" fill="#BE58E2"/><path d="M5.79 8.15c-.03.02-.05 0-.06-.06l.02-.1c0-.02 0-.02 0 0 .03.04.04.1.04.16Z" fill="#99B5E6"/><path d="M9 8.12c.08.16.07.3-.02.43-.04.06-.07.07-.14.05-.17-.06-.27-.2-.3-.4-.02-.13.03-.23.14-.29.14 0 .25.07.31.21ZM9.68 8.35c.08.18.24.29.35.23.11-.05.14-.23.06-.41-.08-.18-.24-.29-.35-.23-.11.05-.14.24-.06.41Z" fill="#E06EFC"/><path d="M9.4 10.23a.7.7 0 0 1 0 .31l-.06.16a.73.73 0 0 1-.31.32.34.34 0 0 1-.13.05l-.3.01a3.5 3.5 0 0 1-1.92-2.13.6.6 0 0 1-.03-.3c.03-.2.22-.41.38-.5.17-.1.34-.11.52-.04.2.08.33.23.41.45l.16.37a2.23 2.23 0 0 0 .97.93c.08.05.15.11.19.18l.12.19Z" fill="#FBEDF4"/><path d="M4.9 9.76a1.1 1.1 0 0 1-.1-.29L4.67 9a1.84 1.84 0 0 1-.06-.34l-.02-.34v-.15c0-.01 0-.02.02-.02l.46-.05.01.01a45.3 45.3 0 0 0 .1.7c.06.23.12.39.22.69l-.01.02-.48.24Z" fill="#7D94CB"/><path d="M7.6 8.33c-.1 0-.19 0-.28.03A2.1 2.1 0 0 1 7 8.4a.04.04 0 0 0-.02.03v.01l.04.29c0 .02.01.02.02 0 .05-.11.13-.13.25-.06.12.08.21.18.27.3.1.22.15.33.27.48.15.2.33.38.53.55.14.11.36.23.47.3.15.1.24.23.27.4v.03l-.16.15a.68.68 0 0 1-.52-.1 4.35 4.35 0 0 1-1.05-.96c-.22-.3-.39-.6-.48-.96a.44.44 0 0 1 .07-.43.18.18 0 0 1 .11-.07l.3-.04a.83.83 0 0 1 .25 0Z" fill="#D585FF"/><path d="M7.6 8.33c.1.05.16.14.19.25.01.04 0 .06-.02.07h-.02l-.01.03v.05l.1.23a2.65 2.65 0 0 0 .8.92.6.6 0 0 0 .17.09l.19.06a.3.3 0 0 1 .15.1c.07.1.05.22.03.35v.12l-.01.12c-.04.08-.12.14-.24.17l.15-.15.01-.03a.56.56 0 0 0-.27-.4c-.11-.07-.33-.19-.48-.3-.2-.17-.37-.35-.53-.55-.11-.15-.15-.26-.26-.47a.74.74 0 0 0-.27-.3c-.12-.08-.2-.06-.25.05-.01.02-.02.02-.02 0l-.04-.29a.04.04 0 0 1 0-.03.04.04 0 0 1 .04-.01c.1-.01.19-.02.31-.05.1-.02.19-.03.29-.03ZM9.4 10.54a.7.7 0 0 0 0-.31c.21.04.44.07.66.07.23 0 .44-.05.64-.15a.77.77 0 0 0 .22-.26.84.84 0 0 1 .1-.11c.13-.14.23-.29.3-.45a1.97 1.97 0 0 1 .18-.4.02.02 0 0 1 .02 0v.01a.7.7 0 0 1-.01.62c-.19.4-.5.69-.93.85l-.26.07-.16.02-.17.02c-.14.02-.34.03-.59.02Z" fill="#F896FF"/><path d="m6.03 9.3.1.2a5 5 0 0 0 1.57 1.92 4.21 4.21 0 0 0 1.33.61c.08.03.17.04.26.05a61.23 61.23 0 0 1 .54.07h.28c.22-.04.51-.07.76-.15.03.04.02.08-.03.11a.71.71 0 0 1-.23.1 3.24 3.24 0 0 1-1.84-.13 4.54 4.54 0 0 1-1.38-.76c-.44-.35-.83-.8-1.17-1.32-.09-.13-.15-.34-.24-.5a.11.11 0 0 1-.02-.08c0-.05.03-.09.07-.12Z" fill="#7629D8"/><path d="m12.05 9.4-.03.16-.06.13-.32.56c-.09.15-.2.28-.36.39l-.16.11a.66.66 0 0 1-.18.08c-.06.02-.1.01-.15 0a.06.06 0 0 1-.03-.07l.01-.02c.03-.05.08-.1.13-.14l.24-.18c.26-.2.46-.5.58-.8.05-.1.08-.24.17-.28.06-.03.12.01.16.07Z" fill="#F896FF"/><path d="m4.75 9.72.24.55c.21.44.48.85.8 1.23-.19-.16-.36-.34-.51-.55a.52.52 0 0 0-.16-.14c-.03-.02-.04-.01-.03.03A10.74 10.74 0 0 0 5.82 12a5.67 5.67 0 0 1-.89-1.27c-.21-.41-.37-.8-.5-1.18.02-.07.07-.13.15-.09.07.05.13.18.17.26Z" fill="#AB5682"/><path d="M4.44 9.55c.11.38.28.77.5 1.18a6.7 6.7 0 0 0 1.59 2c-.04 0-.08 0-.1-.02l-.2-.15a5.26 5.26 0 0 1-.93-.87c.04.01.08 0 .07-.05a.2.2 0 0 0-.01-.07 2.63 2.63 0 0 1-.06-.13.52.52 0 0 0-.06-.12 4.44 4.44 0 0 1-.22-.36.2.2 0 0 0-.05-.07l-.06-.1-.14-.28a12.62 12.62 0 0 0-.17-.42l-.22-.67.06.13Z" fill="#FAA298"/><path d="M8.27 11.63a4.37 4.37 0 0 0 1.1.35c.45.03.8.03 1.07 0 .14-.02.34-.07.6-.16v.08h.12l-.29.1c-.25.08-.54.11-.76.14a1.94 1.94 0 0 1-.55-.02l-.27-.04a8.36 8.36 0 0 1-.84-.24 4.08 4.08 0 0 1-1.13-.71 5 5 0 0 1-.88-1.05l.05-.03c.46.69 1.05 1.22 1.78 1.58Z" fill="#E06EFC"/><path d="M6.54 11.27c-.16.08-.33.15-.5.2h-.02a3.59 3.59 0 0 1-.38-.46.47.47 0 0 0-.15-.13l-.3-.48c.2-.08.39-.12.59-.12l.03.01.07.13.15.25.5.6Z" fill="#6C4996"/><path d="M13.7 10.57a3 3 0 0 1-.16.55l-.12.21-.12.2a1.3 1.3 0 0 1-.14.2c-.02.03-.04.05-.06.05-.04 0-.07 0-.09-.03a1.16 1.16 0 0 1-.12-.17 3.16 3.16 0 0 0 .54-.9.9.9 0 0 0 .08-.2 31.41 31.41 0 0 0 .07-.25l.04.05.09.29Z" fill="#76DDE3"/><path d="m12.66 10.29.25.1h.01v.02a2.68 2.68 0 0 1-1.68 1.62V12c.04-.05.07-.1.09-.16a2.86 2.86 0 0 0 1.33-1.54Z" fill="#E06EFC"/><path d="M4.94 11.2a2.64 2.64 0 0 1-.43-.76l.43.77Z" fill="#AB5682"/><path d="M9.03 11.02a.73.73 0 0 0 .31-.32c.17.04.33.12.47.24a.6.6 0 0 0 .08.05c.08.04.17.06.33.11.04.02.04.03 0 .04-.16.04-.31.05-.47.04a6.96 6.96 0 0 1-.7-.12l-.02-.04Z" fill="#663580"/><path d="M5.8 11.5a5.66 5.66 0 0 0 1.39 1.22l.46.28c.14.08.3.15.49.22l.5.21c.22.1.39.16.5.2.42.12.85.17 1.3.15h-.02v.02l.22-.02a4.7 4.7 0 0 1-2.08-.22 6.3 6.3 0 0 1-1.58-.81l-.24-.19v.01a1.95 1.95 0 0 1 .13.15H6.8a.03.03 0 0 0-.03.04v.01c.05.1.24.23.29.27v.03l-.28-.1-.24-.17c.08.02.04 0-.12-.09.03.01.07.02.1.01v-.01a10.75 10.75 0 0 1-1.43-1.87c-.02-.04 0-.05.03-.03.07.04.11.08.16.14.15.2.32.39.51.55Z" fill="#6F4066"/><path d="M6.54 11.27a5.34 5.34 0 0 0 3.15 1.57c.16.02.36.03.59.02 0 .1.02.21.06.31.03.06.04.1.03.11-.01.04-.05.07-.12.08a4.7 4.7 0 0 1-2.56-.56.25.25 0 0 0-.05-.02 5.75 5.75 0 0 1-2.15-1.9c.06.04.11.08.15.13a3.58 3.58 0 0 0 .4.47c.17-.06.34-.13.5-.21Z" fill="#472672"/><path d="m12.1 12.3.14.33v.03a3.52 3.52 0 0 1-.91.5.29.29 0 0 0 .05-.21c0-.1-.02-.2-.03-.29a4.2 4.2 0 0 0 .75-.36Z" fill="#E06EFC"/><path d="m10.64 13.78.25-.04a9.12 9.12 0 0 0 .26-.04.34.34 0 0 0 .16-.01 1.76 1.76 0 0 1-1.15.3l-.64.01c-.15 0-.29 0-.42-.03a37.9 37.9 0 0 0-.47-.09l.26.02h.01v-.02a2.32 2.32 0 0 1-.47-.1 9.38 9.38 0 0 1-.67-.24.76.76 0 0 1-.21-.12l-.02-.03c-.02-.03-.03-.05-.05-.05L6.82 13l-.04-.04.28.1v-.03c-.05-.04-.24-.16-.28-.27a.03.03 0 0 1 0-.04h.02l.07-.01a1.97 1.97 0 0 0-.13-.16l.24.19.3.19c.47.28.89.5 1.28.62a4.71 4.71 0 0 0 2.08.22Z" fill="#331B3E"/><path d="M11.5 13.51a4.92 4.92 0 0 1-1.07.26v.01a3.77 3.77 0 0 1-1.8-.35l-.5-.2a3.6 3.6 0 0 1-.48-.23 11.75 11.75 0 0 1-.6-.4 5.31 5.31 0 0 0 2.45.9 4.98 4.98 0 0 0 1.77-.19 7.73 7.73 0 0 1 .46-.15v.02l-.01.01c-.22.1-.44.19-.67.27-.07.03-.11.03-.19.04v.02c.04.04.1.07.17.06.16-.01.31-.03.47-.07Z" fill="#FAA298"/><path d="m11.35 12.66.03.29c.01.07 0 .14-.06.2l-.44.13c-.11.04-.32.06-.63.08.07-.01.1-.04.12-.08 0-.02 0-.05-.03-.1a.83.83 0 0 1-.06-.32 14.8 14.8 0 0 0 .8-.13l.27-.07Z" fill="#874FAC"/><path d="m6.54 12.8.24.17.04.04a.48.48 0 0 1-.3-.13 5.01 5.01 0 0 0-.25-.2l.1.07.05.03c.01 0 .01 0 0 0l-.03-.04v-.01c.06.01.1.04.15.07Z" fill="#472672"/><path d="M12.24 13.18a47.24 47.24 0 0 0-.65.4 3.92 3.92 0 0 0-.43.13c-.05-.01-.1 0-.14 0a9.12 9.12 0 0 1-.38.07l-.21.02v-.01h-.01l.01-.01v-.01l.01-.02h.19c.05 0 .1-.02.18-.04l.3-.08a4.92 4.92 0 0 0 1.13-.45Z" fill="#AB5682"/></svg>