<!-- by TradingView --><svg width="18" height="18" viewBox="0 0 18 18" xmlns="http://www.w3.org/2000/svg"><path fill="#F0F3FA" d="M0 0h18v18H0z"/><path d="m12.14 3.88-.63.2c-.14.04-.28.05-.42.04-.32-.03-.63-.1-.93-.2a7.13 7.13 0 0 1-1.51-.73c.12-.03.27-.05.46-.04.09 0 .19-.03.3-.11.05-.03.14-.05.28-.04.38.02.8.12 1.24.28l.6.23c.16.05.36.17.61.37Z" fill="#E5F1E8"/><path d="M8.65 3.19c.47.3.97.54 1.5.73.31.1.62.17.94.2.14.01.28 0 .42-.04l.63-.2c.22.09.41.22.58.41.09.09.17.17.25.22.41.3.75.67 1 1.1a5.3 5.3 0 0 1-.65.2c-.15.03-.24.12-.41.05-.05-.02-.12-.02-.2.01l-.05-.01c-.08-.1-.19-.14-.33-.1-.02 0-.04 0-.05-.02a.3.3 0 0 0-.17-.04h-.05a.45.45 0 0 0-.3-.02c-.33 0-.65.04-.95.13a.99.99 0 0 1-.23.05c-.1 0-.18.03-.23.07a.05.05 0 0 1-.06 0c-.12-.05-.22-.03-.32.05-.01.02-.03.02-.04 0l-.07-.03a.18.18 0 0 0-.17 0A.5.5 0 0 1 9.4 6h-.05l-.04.03c-.03.02-.04 0-.03-.02.02-.1.03-.18.02-.24a.05.05 0 0 0-.03-.03.05.05 0 0 0-.04 0 .25.25 0 0 1-.18.04h-.05c-.05.02-.09.05-.12.11-.01.02-.02.02-.04 0-.12-.13-.25-.1-.38 0-.04.03-.08.04-.12 0a4.06 4.06 0 0 1-.07-.04c-.05-.05-.13-.01-.24.11A.09.09 0 0 1 8 6l-.07-.01c-.03-.03-.1-.01-.18.05a.08.08 0 0 1-.05.02l-.03-.02v-.02c0-.02-.01-.04-.03-.05-.1-.09-.2 0-.27.1h-.04c-.45-.28-.9-.4-1.34-.36-.64.06-1.13.36-1.48.92 0 .02-.02.02-.04.02a.41.41 0 0 0-.27.04.04.04 0 0 1-.03 0l-.12-.05h-.02l-.43.04c-.03 0-.06.02-.1.05l-.05.02.07-.16.07.04c.02.01.03 0 .03-.01 0-.03-.01-.06-.04-.09a.4.4 0 0 1 .05-.2 5.8 5.8 0 0 1 1.7-2.1c0 .2-.05.36-.15.5a.08.08 0 0 0 .04.12c.3.13.74.26 1.04.15.16-.05.29-.13.4-.25.05-.04.06-.12.1-.16a.07.07 0 0 1 .03-.03c.18-.03.4-.02.55-.14.2-.02.39 0 .6-.02.34-.03.54-.22.61-.57.02-.07 0-.15-.07-.26a5.2 5.2 0 0 1-.24-.4l-.15-.07c-.06-.02-.06-.04 0-.04h.3c.15.01.24.06.27.14Z" fill="#B4DDD9"/><path d="M7.33 4.41c-.16.12-.37.1-.55.14a.07.07 0 0 0-.04.03c-.03.04-.04.12-.09.17-.11.1-.24.19-.4.24-.3.11-.75-.02-1.04-.15a.08.08 0 0 1-.04-.12c.1-.14.15-.3.15-.5a3.82 3.82 0 0 1 1.06-.63.04.04 0 0 1 .02.03c.03.14.1.26.21.37.18.17.3.27.37.29l.35.13Z" fill="#E5F1E8"/><path d="m13.98 5.61.21.37-.17-.15a4.94 4.94 0 0 1-.32.03h-.23a.62.62 0 0 0-.34.07.2.2 0 0 1-.08.01h-.07a.46.46 0 0 0-.3-.02h-.05c-.03-.03-.04-.08-.08-.1a.24.24 0 0 0-.08-.03c-.14-.02-.22 0-.24.05l-.48-.16c.1-.03.2-.03.3.01l.06.01c.05 0 .1.01.17.04.01.01.03.02.05.01.14-.03.25 0 .33.1 0 .02.02.03.04.02.1-.03.16-.03.2-.01.18.07.27-.02.42-.05.22-.05.44-.12.66-.2Z" fill="#114518"/><path d="m11.75 5.68.48.16c.44.17.76.47.94.88l.11.32.07.62.03.39a.02.02 0 0 0 .03.02h.01c.1-.09.2-.14.33-.17h.06l.06.04h.06c.1-.05.28-.19.4-.13l.04.04c0 .02.02.03.03.04h.04a.69.69 0 0 1 .22-.1.04.04 0 0 1 .04.02v.02c0 .02 0 .04.03.05a.03.03 0 0 0 .02 0l.13-.06v.03l-.14.08-.04-.01-.04-.08c-.01-.02-.03-.02-.05-.01l-.2.11c-.01.02-.03.01-.04 0-.03-.07-.07-.1-.12-.1-.09 0-.24.11-.3.15a.07.07 0 0 1-.08 0c-.06-.05-.1-.07-.17-.04-.1.04-.2.1-.29.16a.04.04 0 0 0-.02.04l.12 1.65.05.8.04.53c0 .07.02.12.04.15l.52.77-.06.1-.48-.76a.72.72 0 0 1-.12-.43 70.07 70.07 0 0 0-.28-3.7 1.5 1.5 0 0 0-.9-1.3c-.15-.07-.3-.12-.42-.15-.4-.1-.86-.04-1.21.2a2.95 2.95 0 0 1-3.54.03 1.96 1.96 0 0 0-1.5-.2c-.53.16-.97.5-1.15 1.02-.04.12-.08.42-.13.92-.1 1.11-.18 2.23-.25 3.35a.4.4 0 0 1-.04.18l-.36.51-.04-.07.31-.45a.3.3 0 0 0 .05-.15l.09-1.22c0-.04-.01-.05-.04-.02-.07.06-.16.05-.22.1l-.13.14c-.02.03-.03.03-.04 0-.01-.04-.03-.06-.05-.07-.02 0-.04 0-.07.02a.98.98 0 0 0-.23.2c-.04.05-.07.04-.07-.03 0-.06-.04-.09-.1-.07-.02 0-.03-.01-.01-.03.01-.02.02-.02.04-.02a.2.2 0 0 1 .1.08.03.03 0 0 0 .03 0l.25-.2a.05.05 0 0 1 .06 0l.07.04a.02.02 0 0 0 .03 0c.04-.05.1-.1.17-.13a.68.68 0 0 0 .18-.09.05.05 0 0 0 .03-.04l.14-1.91.07-.68c0-.09.04-.26.11-.5 0-.03 0-.04-.02-.04a.42.42 0 0 0-.34.11h-.05a.01.01 0 0 1 0-.01l.04-.04a.04.04 0 0 0-.03-.07c-.2 0-.37.04-.53.08-.01 0-.02 0-.02-.03.03-.03.06-.05.09-.05a18.78 18.78 0 0 0 .45-.04l.12.05a.04.04 0 0 0 .03 0c.1-.05.19-.06.27-.04.02 0 .03 0 .04-.02.35-.56.84-.87 1.48-.92.44-.04.9.08 1.34.36h.04c.08-.1.17-.19.27-.1.02.01.03.03.03.05v.02l.03.02.05-.02c.08-.06.15-.08.18-.05.02.01.04.02.07.01.02 0 .04-.01.05-.03.1-.12.19-.16.24-.11l.07.05c.04.03.08.02.12 0 .13-.12.26-.14.38 0h.04c.03-.07.07-.1.12-.12h.05c.07 0 .13 0 .18-.04a.04.04 0 0 1 .06.01v.02c.02.06.01.14-.01.24-.01.03 0 .04.03.02l.04-.02c.01-.01.03-.02.05-.01.1 0 .2-.01.28-.05a.18.18 0 0 1 .17 0l.07.04h.04c.1-.1.2-.1.32-.05a.05.05 0 0 0 .06 0 .39.39 0 0 1 .23-.08c.05 0 .13-.02.23-.05.3-.1.62-.14.94-.13Z"/><path d="M14.1 12.14c-.2.35-.46.68-.74.98l-.84-.74-.02-.01c-.06 0-.08.02-.05.06.22.33.39.69.5 1.08A6.04 6.04 0 0 1 9.29 15h-.53a5.98 5.98 0 0 1-4.02-1.78l.04-.13a12.89 12.89 0 0 0 .42-.62c.04-.13 0-.16-.1-.09-.23.15-.45.3-.67.49a5.37 5.37 0 0 1-.71-1.05l.36-.5a.4.4 0 0 0 .04-.19c.07-1.12.15-2.24.25-3.35.05-.5.09-.8.13-.92.18-.53.62-.86 1.15-1.03.47-.14 1.1-.03 1.5.22a2.95 2.95 0 0 0 3.54-.03c.35-.25.82-.3 1.2-.21.13.03.28.08.43.16.54.25.85.69.9 1.29l.03.3c.1 1.14.2 2.27.25 3.4 0 .17.01.28.12.43l.48.75Z" fill="#529F4F"/><path d="M7.95 6.08c0 .08.01.08.05 0a.53.53 0 0 1 .19-.2.05.05 0 0 1 .05 0c.05.01.09.03.1.05.02.05.06.06.1.02.18-.14.31-.13.4.02a.03.03 0 0 0 .05 0c.03-.07.07-.11.11-.14h.06c.05.02.11 0 .17-.03.02-.02.03-.01.03.02 0 .12 0 .21-.03.27-.02.06 0 .07.04.02.04-.04.11-.06.18-.06.1 0 .2-.03.3-.08a.07.07 0 0 1 .04 0c.04 0 .07.02.1.05a.08.08 0 0 0 .11 0c.05-.04.1-.07.16-.07h.05l.07.05h.06a.46.46 0 0 1 .2-.1l.03.01-.01.03c-.1.04-.14.05-.21.1-.56.37-1.21.57-1.88.47a2.9 2.9 0 0 1-1.06-.4c-.02-.01-.03-.03 0-.05l.1-.08a.06.06 0 0 1 .08 0c.02 0 .04.06.03.14a.01.01 0 0 0 .02.02c.06-.05.12-.08.2-.12h.06c.04.02.05.04.05.06ZM14.2 5.98c.1.17.2.36.29.58a2.39 2.39 0 0 0-.21-.02c-.06 0-.13.01-.2.04l-.38.1c-.2.06-.38.07-.53.04-.18-.41-.5-.7-.94-.88.02-.06.1-.07.24-.05.03 0 .06.02.08.03.04.02.05.07.08.1h.05c.1-.03.2-.02.3.01.03.01.05.02.07.01a.2.2 0 0 0 .08 0c.1-.07.22-.1.34-.08h.24a4.93 4.93 0 0 0 .31-.03l.17.15Z" fill="#ACE44A"/><path d="M12.24 6.58c.39.36.51.8.37 1.32a.7.7 0 0 1-.27.38c-.41.28-.84.33-1.28.13a1.08 1.08 0 0 1-.57-1.45c.21-.47.67-.86 1.22-.68.2.07.38.17.53.3ZM7.19 7.07c.05.14.06.27.05.38-.05.6-.37.95-.96 1.06a1.1 1.1 0 0 1-.78-.13c-.45-.25-.62-.63-.5-1.15.1-.5.64-.96 1.15-.99.5-.03.88.38 1.04.83Z"/><path d="M3.57 6.52c.03.03.04.06.04.09 0 .01-.01.02-.03.01l-.07-.04c0-.05.03-.07.06-.06Z" fill="#021302"/><path d="m14.49 6.56.13.3c-.2.02-.35.09-.43.22-.1.18.07.43.27.42.13-.01.24-.03.33-.07l.1.4-.14.05a.03.03 0 0 1-.02 0c-.02-.01-.03-.03-.03-.05a.04.04 0 0 0-.04-.04.7.7 0 0 0-.22.1h-.04a.11.11 0 0 1-.03-.04.12.12 0 0 0-.05-.04c-.1-.06-.28.08-.4.13h-.05l-.06-.04a.07.07 0 0 0-.06 0 .85.85 0 0 0-.34.17.02.02 0 0 1-.03-.02l-.03-.39c.14.06.3.06.48 0 .25-.1.3-.28.16-.53-.1-.2-.52-.1-.71-.09l-.1-.32c.14.03.32.02.52-.03l.38-.12a.55.55 0 0 1 .2-.03l.2.02Z" fill="#5FC978"/><path d="M4.27 7.9c-.24-.24-.6-.35-1.1-.34.07-.32.16-.59.27-.82l.06-.02c0 .02 0 .03.02.03a2.64 2.64 0 0 1 .55-.07.04.04 0 0 1 0 .06l-.03.04a.01.01 0 0 0 0 .01h.05c.1-.09.22-.13.34-.1.02 0 .03 0 .02.02-.07.25-.1.42-.11.5l-.07.69Z" fill="#ACE44A"/><path d="M5.74 7.11c-.08.13-.15.28-.27.33a.06.06 0 0 1-.09-.07c.03-.24.3-.75.61-.65a.07.07 0 0 1 .05.05.07.07 0 0 1-.03.07c-.12.1-.21.18-.27.27ZM11.9 7.11c-.06-.09-.15-.18-.28-.27a.07.07 0 0 1 .02-.12c.31-.1.59.4.61.65a.06.06 0 0 1-.08.07c-.12-.05-.2-.2-.27-.33Z" fill="#fff"/><path d="M14.8 7.43c-.1.04-.2.06-.34.07-.2.01-.38-.24-.27-.42.08-.13.23-.2.43-.22l.17.57ZM13.35 7.66l-.07-.62c.19 0 .6-.1.71.1.14.24.09.42-.16.51a.65.65 0 0 1-.48.01Z" fill="#ACE44A"/><path d="M4.27 7.9 4.13 9.8c0 .02-.01.03-.03.04a.68.68 0 0 1-.18.09.38.38 0 0 0-.17.13h-.03l-.07-.04a.05.05 0 0 0-.06 0l-.24.2a.03.03 0 0 1-.02 0 .03.03 0 0 1-.02 0 .2.2 0 0 0-.1-.08c-.02 0-.03 0-.04.02-.02.02-.01.03.02.03.01.03 0 .04-.04.04-.09-.34-.14-.7-.15-1.06V8.9c0-.49.06-.93.17-1.34.5-.01.86.1 1.1.34Z" fill="#5FC978"/><path d="M6.72 7.66c.03.02.03.05.02.1a.44.44 0 0 1-.07.15l-.02.02a.52.52 0 0 1-.12.11.15.15 0 0 1-.06.02h-.04l.3-.4Z" fill="#fff"/><path d="M14.88 7.85c.03.07.05.14.05.21l.07.65v.55a6.15 6.15 0 0 1-.6 2.35c-.2-.09-.28-.23-.24-.41.04-.2.23-.4.38-.56a.05.05 0 0 0 .01-.04.05.05 0 0 0-.03-.04c-.06-.02-.12-.06-.15-.12a1 1 0 0 1-.07-.85c.03-.08.01-.1-.06-.05-.14.1-.3.18-.46.25-.12.05-.21.05-.27.01l-.12-1.65c0-.02 0-.03.02-.04.1-.07.2-.12.3-.16.06-.03.1-.01.16.03a.07.07 0 0 0 .07 0c.07-.03.22-.15.31-.15.05 0 .1.04.13.1 0 .02.02.03.04.01l.2-.11c.01-.01.03 0 .04.01l.04.08h.04l.14-.07Z" fill="#ACE44A"/><path d="M10.47 9.64c-.38 0-.82.08-1.14.07-.46 0-.9.01-1.38-.02a52 52 0 0 1-.76-.05.95.95 0 0 1-.32-.16c-.18-.13-.21-.38.01-.5.1-.05.21-.08.35-.1l1.1-.1c.7-.04 1.38.03 2.14.11.15.02.41.1.43.29.03.24-.22.38-.43.46Z"/><path d="M8.82 8.87c.55.02 1.08.06 1.6.12.12 0 .23.05.32.11a.12.12 0 0 1 .03.18c-.17.2-.61.25-.86.28a12.62 12.62 0 0 1-2.2 0c-.24-.03-.68-.09-.85-.28a.12.12 0 0 1 0-.14c0-.02.01-.03.03-.04.1-.06.2-.1.33-.12a20.67 20.67 0 0 1 1.6-.1Z" fill="#BC5B75"/><path d="M8.81 9.1c.54 0 1.1.04 1.65.08l.02.01v.05a.02.02 0 0 1-.02.02c-.36.02-.67-.02-1.06-.04a14.2 14.2 0 0 0-1.17 0c-.4.02-.7.06-1.06.04a.02.02 0 0 1-.03-.03v-.02l.01-.02.02-.01c.55-.04 1.1-.08 1.64-.08Z"/><path d="m14.4 11.61-.24.44c-.22-.32-.4-.57-.52-.77a.43.43 0 0 1-.04-.15c.1.03.2.04.29.02a.2.2 0 0 0 .12-.12c.11-.2.01-.42-.23-.43h-.22l-.05-.8c.06.04.15.04.27-.01.16-.07.32-.15.46-.25.07-.05.1-.03.06.05a1 1 0 0 0 .07.85c.03.06.1.1.15.12a.05.05 0 0 1 .03.04.05.05 0 0 1-.01.04c-.15.15-.34.36-.38.56-.04.18.04.32.24.41Z" fill="#5FC978"/><path d="M10.47 9.63c-.13.07-.3.12-.52.15-.66.1-1.38.1-2.15.02a1.87 1.87 0 0 1-.61-.16l.76.05c.48.03.92.01 1.38.02.32 0 .76-.06 1.14-.08Z" fill="#114518"/><path d="M3.68 11.75a6.22 6.22 0 0 1-.53-1.51c.04 0 .05-.01.04-.04.05-.02.08 0 .09.07 0 .07.03.08.07.02a.98.98 0 0 1 .23-.2c.03-.01.05-.02.07-.01.02 0 .04.03.05.06 0 .04.02.04.04 0s.07-.08.13-.13.15-.04.22-.1c.03-.03.04-.02.04.02l-.09 1.22a.3.3 0 0 1-.05.15l-.3.45ZM13.6 11.13l-.04-.53h.22c.24.01.34.22.23.43a.2.2 0 0 1-.12.12.48.48 0 0 1-.3-.02Z" fill="#ACE44A"/><path d="m4.74 13.22-.31-.35c.22-.18.44-.34.66-.49.11-.07.15-.04.1.08a12.7 12.7 0 0 1-.42.62c0 .05-.02.09-.03.14Z" fill="#032406"/><path d="m13.36 13.12-.41.4c-.11-.4-.28-.76-.5-1.09-.03-.04-.01-.06.05-.06h.02l.84.75Z" fill="#021302"/></svg>