<!-- by TradingView --><svg width="18" height="18" viewBox="0 0 18 18" xmlns="http://www.w3.org/2000/svg"><path fill="#F0F3FA" d="M0 0h18v18H0z"/><path d="M13.6 7.04a4.37 4.37 0 0 0-5.2 6.93 5 5 0 1 1 5.2-6.93Z" fill="url(#a10aip4h1)"/><path d="M8.95 14a5.03 5.03 0 0 0 .6-10c.8.8 1.3 1.89 1.3 3.1a4.4 4.4 0 0 1-3.69 4.33c.13.99.58 1.87 1.24 2.53l.55.04Z" fill="url(#b10aip4h1)"/><path d="M7.13 11.5c-.21-1.4.25-4.38 3.75-5l-3.75 5Z" fill="url(#c10aip4h1)"/><path d="M10.87 6.5c.21 1.4-.25 4.38-3.75 5l3.75-5Z" fill="url(#d10aip4h1)"/><defs><linearGradient id="a10aip4h1" x1="11.66" y1="5.09" x2="6.81" y2="13.38" gradientUnits="userSpaceOnUse"><stop stop-color="#4040FF"/><stop offset="1" stop-color="#6ABBFF"/></linearGradient><linearGradient id="b10aip4h1" x1="9.16" y1="14" x2="9.16" y2="4" gradientUnits="userSpaceOnUse"><stop stop-color="#3F40FF"/><stop offset="1" stop-color="#70BEFF"/></linearGradient><linearGradient id="c10aip4h1" x1="10.88" y1="6.5" x2="6.97" y2="11.19" gradientUnits="userSpaceOnUse"><stop stop-color="#E8FCD2"/><stop offset="1" stop-color="#A2F149"/></linearGradient><linearGradient id="d10aip4h1" x1="7.12" y1="11.5" x2="11.03" y2="6.81" gradientUnits="userSpaceOnUse"><stop stop-color="#23D695"/><stop offset="1" stop-color="#BCF3DE"/></linearGradient></defs></svg>