<!-- by TradingView --><svg width="18" height="18" viewBox="0 0 18 18" xmlns="http://www.w3.org/2000/svg"><path fill="#242112" d="M0 0h18v18H0z"/><path d="M7.85 3.12c.11.2.18.4.22.6a.7.7 0 0 1 0 .3c-.02.05-.03.05-.05 0a.83.83 0 0 0-.11-.22.08.08 0 0 0-.07-.03h-.15c-.03 0-.04-.02-.05-.05-.02-.1.03-.23-.01-.32-.03-.05-.07-.07-.13-.06a.11.11 0 0 0-.05.02.12.12 0 0 0-.04.05c-.04.1-.02.18.07.24a.1.1 0 0 1 .05.06l.24.75a.04.04 0 0 1-.01.04h-.01l-.02.01H7.7c-.04 0-.07-.02-.1-.06a4 4 0 0 1-.15-.43c-.03-.11-.13-.13-.22-.08l-.06-.03a.1.1 0 0 1-.03-.03.1.1 0 0 1-.02-.03c-.04-.16-.13-.3-.08-.48.08-.27.27-.39.57-.36a.6.6 0 0 1 .23.1ZM9.43 3.26c.06.14.07.26.03.38l-.39 1.21a.12.12 0 0 1-.05.07.11.11 0 0 1-.1 0c-.04 0-.08 0-.13.03a.09.09 0 0 0-.04.05l-.48 1.56-.04.05a.08.08 0 0 1-.05.01h-.02a.04.04 0 0 1-.03-.02.04.04 0 0 1 0-.04l.84-2.73c.04-.11.07-.17.15-.24a.15.15 0 0 0 .01-.2.13.13 0 0 0-.05-.03c-.07-.03-.13-.02-.17.05l-.01.05c0 .09 0 .17-.03.25-.01.04-.03.04-.06.03-.11-.07-.19-.04-.22.09l-.9 2.85a.59.59 0 0 1-.33.37c-.02.01-.03 0-.02-.02l1.24-3.71c.26-.4.54-.42.85-.06Z" fill="#FACA4F"/><path d="m6.96 4.2.07.21a.1.1 0 0 1 0 .07.1.1 0 0 1-.03.05L4.42 6.08c-.04.03-.09.08-.09.12v5.52c0 .05.04.09.08.11l4.56 2.76a.08.08 0 0 0 .08 0l4.58-2.77.03-.04V6.21l-.01-.07a.13.13 0 0 0-.05-.05L9.78 3.77a.06.06 0 0 1-.03-.06l.01-.25V3.4l.01-.01.01-.01a.03.03 0 0 1 .03 0l4.15 2.52c.03.01.04.04.04.07v5.96c0 .03-.01.06-.04.07l-4.9 2.97a.12.12 0 0 1-.12 0l-4.89-2.96a.11.11 0 0 1-.04-.04.12.12 0 0 1-.01-.06V5.98c0-.03.02-.05.04-.07L6.9 4.2h.05l.02.02Z" fill="#FACA4F"/><path d="m8.83 3.84-.09-.03-.02.01-.9 2.84.01.03.1.03.02-.01.9-2.85s0-.02-.02-.02ZM7.77 4.13c.04.15.1.27.14.26.03-.01.02-.14-.03-.3-.04-.15-.1-.27-.13-.26-.04.01-.03.14.02.3ZM7.31 4.02c.01 0 .03 0 .05.02a11 11 0 0 0 .2.54.1.1 0 0 0 .05.07c.06.02.11.01.17 0 .03-.02.05 0 .03.03l-.16.5c-.02.08-.05.08-.07 0l-.34-1.04c-.02-.05 0-.1.07-.12Z" fill="#FACA4F"/><path d="M9.2 6.24a5.04 5.04 0 0 1-.13-.53l.5-1.54c.01-.03.03-.04.06-.02a441.81 441.81 0 0 0 3.41 2.1.04.04 0 0 1-.01.06l-1 .58a.05.05 0 0 1-.07-.02v-.02c-.01-.16 0-.33-.04-.48a.73.73 0 0 0-.6-.51.71.71 0 0 0-.51.12.05.05 0 0 1-.05 0h-.01l-.02-.02-.07-.15c-.2-.45-.86-.54-1.19-.2a.85.85 0 0 0-.22.62c0 .1-.02.1-.05 0ZM4.94 6.23l2.2-1.33a.02.02 0 0 1 .04 0v.01l.27.84v.01L6.91 7.4a.03.03 0 0 1-.03.01L4.93 6.28h-.01a.03.03 0 0 1 0-.05Z" fill="#8C6927"/><path d="m8.94 5.05-.04-.02c-.02 0-.05 0-.06.04l-.47 1.49c0 .02 0 .05.03.06l.04.01c.02.01.05 0 .06-.03l.47-1.49c0-.03 0-.05-.03-.06ZM10.46 6.79v-.01 1.06c.02.57-.62.7-.88.23-.03-.05-.04-.2-.02-.46l.03-.07.18-.18a.12.12 0 0 0 .03-.09V5.81c0-.08.05-.13.12-.13.28-.03.46.1.55.36.03.1 0 .17-.07.24l-.43.43a.11.11 0 0 0-.03.09v.84c0 .08-.02.13-.07.18a.06.06 0 0 0-.02.07c.04.09.1.13.17.12.02 0 .05 0 .07-.02a.13.13 0 0 0 .04-.05.14.14 0 0 0-.01-.14.42.42 0 0 1-.06-.32c0-.03.02-.07.05-.09.12-.1.27-.23.26-.4 0-.08.04-.14.09-.19v-.01Z" fill="#FACA4F"/><path d="M9.7 5.83v1.44l-.09.1h-.05V5.97l.09-.16.01-.02h.02l.02.01v.02ZM11.33 6.2l-.32.33-.02.01h-.03l-.15-.13a.04.04 0 0 1-.02-.03.04.04 0 0 1 .02-.03l.19-.18.02-.01.28-.03h.02l.02.02v.03l-.01.02ZM11.16 8.47c.09.03.16.01.22-.04.08-.06.05-.17-.02-.22a.12.12 0 0 1-.05-.04 23.02 23.02 0 0 0 0-1.1c0-.15-.07-.28-.22-.4-.03-.01-.03-.04 0-.06l.33-.35a.1.1 0 0 1 .1-.03.1.1 0 0 1 .05.02l.03.05c.05.12.1.23.1.37 0 .5 0 1.01.02 1.54 0 .3-.12.6-.43.61-.36.02-.53-.19-.52-.62V6.98c0-.05.01-.06.05-.03l.05.05c.05.04.07.09.07.16v.77c0 .08.03.11.1.1.07-.02.12 0 .16.05a.07.07 0 0 1 0 .08.34.34 0 0 0-.08.26c0 .01 0 .02.02.03l.02.02ZM9.36 9.98a.1.1 0 0 0 .04.04.1.1 0 0 0 .12-.02.11.11 0 0 0 .03-.05c.03-.1.03-.2 0-.3A1.84 1.84 0 0 0 8.39 8.4a.03.03 0 0 1 0-.03v-.01l.27-.23c.43-.37.47-.8.12-1.3a.17.17 0 0 1-.03-.16l.13-.36c.03-.07.05-.07.07 0 .06.26.14.52.25.8.04.13.07.25.07.38 0 .18-.02.38.03.56.09.33.29.53.6.6.04.02.05.04.05.07v.52c.01.56-.32 1-.86 1.12-.08.02-.25.02-.5 0a.1.1 0 0 1-.06-.03 29.4 29.4 0 0 0-.35-.36c-.07-.07-.15-.08-.24-.08-.04 0-.05 0-.02-.04l.6-.65a.13.13 0 0 1 .1-.04h.28l.09.01c.02.02.05.04.06.07.09.16.2.33.22.52a.6.6 0 0 0 .09.23ZM10.25 6.93c-.03.12-.03.24-.14.31-.03.03-.04.02-.04-.03v-.38c0-.04.02-.08.04-.1l.3-.32c.05-.04.07-.04.06.02v.15a.16.16 0 0 1-.05.12c-.07.06-.16.13-.17.23Z" fill="#FACA4F"/><path d="m11.04 7-.27-.26a.03.03 0 0 1-.01-.02l-.01-.15v-.02l.02-.01a.03.03 0 0 1 .03 0l.38.41a.03.03 0 0 1 .01.02v.91h-.02l-.1.02a.03.03 0 0 1-.01 0l-.01-.01v-.87a.03.03 0 0 0-.01-.02Z" fill="#FACA4F"/><path d="M7.32 11.5c.03.5-.02 1.02.01 1.52a.06.06 0 0 1-.02.05.06.06 0 0 1-.06 0L4.74 11.6a.15.15 0 0 1-.07-.13V6.71c0-.06.02-.07.07-.04L6.56 7.7a.06.06 0 0 1 .03.07l-.01.03c-.2.29-.33.61-.36.97-.1 1.02.08 2.13 1.06 2.65l.03.03.01.05ZM10.74 11.43a2.07 2.07 0 0 0 1.05-1.8 18.03 18.03 0 0 0 .02-.78c.11-.18.17-.36.17-.55a24.46 24.46 0 0 0 .02-.9l.03-.03 1.25-.7a.03.03 0 0 1 .04 0v.02l.01 4.79-.01.06a.13.13 0 0 1-.05.05l-2.54 1.51a.04.04 0 0 1-.06-.01v-1.55c0-.02 0-.05.02-.07a.13.13 0 0 1 .05-.04Z" fill="#8C6927"/><path d="M7.57 8.12a.19.19 0 0 1-.03.03 4.58 4.58 0 0 1-.82.02c-.05 0-.06-.03-.03-.07l.02-.02a.15.15 0 0 1 .05-.05.14.14 0 0 1 .07-.01h.68c.03 0 .05-.01.08-.03l.46-.37c.1-.08.2 0 .27-.07.05-.05.06-.1.03-.16a.15.15 0 0 0-.05-.06.14.14 0 0 0-.2.04c-.12.21-.28.3-.46.44-.19.14-.48.1-.7.09-.08-.01-.1-.04-.02-.1.28-.24.59-.5.91-.75.32-.26.72-.2.88.2.12.33-.08.58-.32.74a.45.45 0 0 1-.29.08h-.45a.12.12 0 0 0-.08.05ZM7.38 8.77c0-.02-.01-.04-.03-.05a10.16 10.16 0 0 1-.86-.03l.12-.37c0-.02.01-.02.02-.02h.84c.04 0 .07 0 .1-.02a.73.73 0 0 1 .53-.1v.01a.02.02 0 0 1 0 .02c-.15.13-.3.26-.47.38a.21.21 0 0 0-.09.2c0 .02 0 .04.02.06l.04.04a.1.1 0 0 0 .12-.01l.26-.19a.24.24 0 0 1 .22-.04h.02c.1.03.11.08.04.15l-.7.73c-.16.15-.22.12-.2-.1.02-.24.03-.46.02-.66ZM9.5 10.3c.39-.22.57-.68.58-1.14a15.17 15.17 0 0 0 0-.5l.03-.01a1.12 1.12 0 0 0 .4-.17h.01v.02l.02.66c.02.6-.3 1.04-.86 1.2a.28.28 0 0 1-.17 0c-.04-.02-.04-.03 0-.05Z" fill="#FACA4F"/><path d="M8.48 9.1a126.14 126.14 0 0 1-1 1.01.2.2 0 0 1-.07.02h-.77c-.03 0-.04-.01-.05-.04l-.09-.3a.05.05 0 0 1 0-.04l.02-.02h.93c.07 0 .12-.02.17-.07l.8-.87c.03-.02.05-.03.07-.02.12.05.21.1.28.17.08.07.06.1-.04.09-.1 0-.18-.02-.25.06Z" fill="#FACA4F"/><path d="m7.24 8.85.02.73a.04.04 0 0 1-.01.03.04.04 0 0 1-.03.02h-.67l-.03-.01-.01-.03v-.75a.04.04 0 0 1 .01-.03.04.04 0 0 1 .03 0h.65l.03.01.01.03ZM10.7 8.86c.12.15.29.21.46.26.03 0 .04.02.04.04.03.55-.08 1.05-.57 1.34a.8.8 0 0 1-.4.1l-3.3.01a.34.34 0 0 1-.17-.06l-.02-.01v-.02a.04.04 0 0 1 0-.04l.03-.01h2.8c.27 0 .51-.12.74-.36.35-.37.33-.73.34-1.23 0-.05.02-.06.05-.02Z" fill="#FACA4F"/><path d="M9.4 11.66a.14.14 0 0 1-.03-.1v-.67c0-.03 0-.05-.02-.07l-.01-.03.01-.03h.62c.22 0 .44 0 .63-.1.59-.27.75-.84.72-1.47 0-.06.02-.1.08-.1h.03a.05.05 0 0 1 .04 0l.01.02v.02c.03.4.02.67-.01.82a1.8 1.8 0 0 1-1.13 1.36c-.18.07-.37.07-.56.07a.13.13 0 0 0-.1.03.14.14 0 0 0-.04.1c0 .1.03.15.11.16.11.03.3 0 .6-.08.04-.02.07 0 .07.05v.28c0 .06-.03.08-.08.08l-.59-.01a.11.11 0 0 1-.08-.04l-.27-.29ZM7.45 10.26c.04 0 .08-.02.12-.05.08-.07.14-.18.26-.18.11-.01.24-.03.33.06a44.36 44.36 0 0 1 .22.26l-.02.01-1.63.01-.05-.01a.1.1 0 0 1-.03-.04l-.01-.02c-.01-.02 0-.04.02-.04h.8ZM8.32 11c-.11 0-.22-.06-.32-.19-.03-.03-.02-.05.02-.05h.84l.02.01a.03.03 0 0 1 .01.02V10.97c0 .02-.01.03-.03.03h-.54Z" fill="#FACA4F"/><path d="M8.69 12.09H8.1l-.02-.02-.36-.4H7.7a.04.04 0 0 1 0-.04l.02-.02h.04a.8.8 0 0 0 .44.1c.09-.01.14-.06.15-.15v-.05c-.01-.08-.06-.11-.13-.1-.49.01-.9-.18-1.26-.57-.04-.05-.03-.07.03-.07h.69c.05 0 .1.02.15.05l.32.3a.1.1 0 0 0 .07.03h.61c.04 0 .06.02.06.06V14c0 .05-.02.06-.05.03L8.79 14a.1.1 0 0 1-.05-.1v-1.76c0-.03-.01-.05-.05-.05ZM9.27 12.51l.91 1 .01.02v.04l-.02.01-1.07.7a.03.03 0 0 1-.04 0h-.01V10.8a.04.04 0 0 1 0-.02.04.04 0 0 1 .03-.02h.14l.02.02.01.03v1.67l.02.03Z" fill="#FACA4F"/><path d="M8.44 12.3h-.37a.2.2 0 0 1-.14-.05 21.11 21.11 0 0 1-.34-.37.15.15 0 0 1 0-.06v-.06c0-.04.02-.05.05-.02l.4.42a.15.15 0 0 0 .1.04h.42s.02 0 .02.02l.01.02v1.6c0 .03 0 .04-.04.02l-.02-.01a.06.06 0 0 1-.03-.05v-1.43c0-.05-.02-.07-.06-.07ZM9.38 12.3l-.02-.41c0-.04.02-.05.04-.02.1.09.22.27.36.27a61.46 61.46 0 0 1 .6 0l.02.02v1.16l-.02.01a.03.03 0 0 1-.03 0l-.92-.95a.12.12 0 0 1-.03-.08Z" fill="#FACA4F"/><path d="M7.62 13.3a.09.09 0 0 1-.04-.03.1.1 0 0 1 0-.04l-.01-1.11c0-.05.01-.05.04-.02l.21.22c.15.17.31.12.5.13.04 0 .05.02.05.05v1.17c0 .07-.03.09-.08.05-.2-.15-.43-.29-.67-.41Z" fill="#FACA4F"/></svg>