<!-- by TradingView --><svg width="18" height="18" viewBox="0 0 18 18" xmlns="http://www.w3.org/2000/svg"><path fill="#F0F3FA" d="M0 0h18v18H0z"/><path fill-rule="evenodd" d="M9.51 3.5A.5.5 0 0 1 9 4a.5.5 0 0 1-.51-.5c0-.28.23-.5.51-.5a.5.5 0 0 1 .51.5ZM8 5.06c0 .38-.3.69-.67.69a.68.68 0 0 1-.66-.69c0-.38.3-.69.66-.69.37 0 .67.31.67.7Zm2.67.69a.67.67 0 1 0 0-1.33.67.67 0 0 0 0 1.33Zm-2.7.89h-.14l-.28-.01c-.2-.05-.3-.1-.3-.33 0-.2.24-.3.47-.3h2.55c.2 0 .5.1.49.33-.01.33-.48.32-.72.3a.04.04 0 0 0-.03.02.04.04 0 0 0 0 .02v2.09c0 .04 0 .09.03.12.95 1.34 1.87 2.7 2.78 4.05.1.14.19.3.18.46-.02.49-.46.6-.9.6L5.9 14c-.28 0-.57-.04-.74-.23A.5.5 0 0 1 5 13.3c.03-.15.08-.28.16-.38l1.05-1.52c.58-.85 1.17-1.69 1.74-2.54A.2.2 0 0 0 8 8.76V6.67l-.01-.02-.03-.01ZM10.61 11H7.35a.02.02 0 0 1 0-.03l1.32-1.96V6.64h.66v2.37l1.3 1.96.01.01V11h-.02Z" fill="#4F53F6"/></svg>