<!-- by TradingView --><svg width="18" height="18" viewBox="0 0 18 18" xmlns="http://www.w3.org/2000/svg"><path fill="url(#a)" d="M0 0h18v18H0z"/><path d="m9 3 4 6.5-1.56 3.25L9 16l-2.26-2.98L5 9.5 9 3Z" fill="url(#b)"/><path d="M10.74 9.52c.38.18.75.3 1.12.35l.3.08c.12.04.12.08.01.14-.14.07-.16.21-.05.41.1.18.27.3.53.37.16.15.17.31.04.48-.03.04-.03.08 0 .12.03.02.04.05.05.09.01.04 0 .07-.03.09l-.33.22-.02.03-.15.28c-.14.28-.33.46-.43.77-.01.05-.04.08-.09.09h-.04a.1.1 0 0 0-.08.06c-.2.36-1.08.61-1.38.67l-.56.15c-.3.1-.53.07-.82.08-.25 0-.47-.14-.72-.17a2.11 2.11 0 0 1-.4-.1l-.73-.25c.08-.1.15-.1.23-.11 3.8-.37.32-2.34 3.1-3.82l.45-.03Z" fill="#050406"/><path d="M5.33 8.51c7.63.78 3.28 4.02 1.59 4.79.02.02.02.06 0 .12-.23.01-.4-.25-.6-.38a.25.25 0 0 1-.08-.1c-.07-.14-.07-.3-.18-.41a1.94 1.94 0 0 1-.37-.6.18.18 0 0 0-.07-.09l-.28-.17a.08.08 0 0 1-.03-.04.1.1 0 0 1 0-.05.25.25 0 0 1 .05-.12l.02-.03a.08.08 0 0 0-.02-.08.31.31 0 0 1-.11-.17.2.2 0 0 1 .03-.17c.07-.08.06-.16-.01-.22a.13.13 0 0 1-.04-.07c-.01-.02-.01-.05 0-.07a.43.43 0 0 0-.13-.46.05.05 0 0 1-.02-.04v-.02l.02-.02c.26-.26.26-.53.26-.69a2.6 2.6 0 0 0-.12-.87l.02-.06c0-.04.02-.04.05-.01l.02.03Z" fill="#050406"/><path d="M7.63 6.8c-.02 0-.04.03-.06.07a2.46 2.46 0 0 0-.45-.42c-.12-.1-.34-.31-.65-.65-.14-.15-.3-.23-.46-.35-.05-.04-.06-.03-.03.03.04.07.08.12.13.16.32.25.61.54.86.88.04.12.13.27.28.48.1.15.19.35.26.61-.07.01-.1.04-.13.07-.12-.02-.2-.02-.25 0l-.24-.11c-.19-.15-.44.03-.65.1-.04.01-.04.02 0 .03l.36.05a.46.46 0 0 1-.38.16c-.01 0-.02 0-.03.02l.01.01c.06-.01.12 0 .17.02.06.03.07.06 0 .1l-.14.08a.23.23 0 0 0-.08.08l-.26.4c-.03.01-.08.05-.14.11-.02.03-.04.03-.06 0l-.2-.5-.11-.68c.03-.7-.02-1.4-.15-2.1-.03-.11.02-.2 0-.29l-.01-.02h-.06c-.01 0-.02 0-.02.02-.01.25.01.5.07.74.04.2.06.42.05.66l.01 1.24c.02.18 0 .26-.06.25-.04-.27-.09-.54-.07-.84A9.04 9.04 0 0 0 5 5.31c-.04-.22.04-.32.25-.3.1 0 .22.02.32.07a3 3 0 0 1 .77.5c.43.4.86.8 1.28 1.22ZM12.68 10.85a3.6 3.6 0 0 1-.18-1.47 5.16 5.16 0 0 1 .23-1 .7.7 0 0 0-.02-.34v-.06c.1-.52.04-1.02.03-1.53 0-.17.02-.35.07-.53.07-.25.09-.5.04-.75 0-.01-.01-.02-.03-.02h-.03v.01h-.02v.03c.03.3.01.58-.05.85-.09.37-.08.75-.1 1.13a3.14 3.14 0 0 1-.3 1.6.06.06 0 0 1-.06-.01l-.02-.03c-.02-.06-.05-.08-.08-.09-.77-.93-.7-.53-1.26-.96a.55.55 0 0 0-.26-.01c-.04-.02-.07-.04-.08-.07-.03-.03-.03-.07 0-.11l.48-.98 1.1-1.06c.02-.01.02-.03.01-.04l-.02-.03h-.02L10.59 6.7l-.04-.06c.59-.57 1.11-1.18 1.84-1.54a.91.91 0 0 1 .5-.1l.07.05c.03.02.04.05.04.08.02.46-.1.88-.1 1.34 0 .5-.01 1.02-.06 1.57-.02.26-.06.51-.1.75-.06.24-.08.49-.06.74.02.2.09.39.22.54.02.04.03.07 0 .1a.8.8 0 0 0-.1.51.15.15 0 0 1-.04.1.13.13 0 0 1-.08.06Z" fill="#291C18"/><path d="M5.38 7.55c0 .2-.04.28-.1.25-.02-.41-.03-.83-.01-1.24 0-.24-.02-.46-.06-.66-.06-.25-.08-.5-.07-.74 0-.01 0-.02.02-.02h.06l.01.02c.02.1-.03.18 0 .29.13.7.18 1.4.15 2.1ZM12.72 7.98l-.04-.01a.06.06 0 0 1-.02-.05l-.04-.75c.02-.38.01-.76.1-1.13a2.44 2.44 0 0 0 .05-.87l.01-.01h.04c.02-.01.03 0 .03.01.05.25.03.5-.04.75-.05.18-.08.36-.07.53 0 .51.06 1.01-.02 1.53Z" fill="#D9CCC5"/><path d="M7.57 6.87c.08.04.13.1.18.18l-.78-.53a4.27 4.27 0 0 0-.86-.88.48.48 0 0 1-.13-.16c-.03-.06-.02-.07.03-.03.15.12.32.2.46.35.31.34.53.55.65.65.21.16.36.3.45.42ZM11.04 6.51l-.56.42c-.05.04-.09.04-.1 0l.21-.22 1.52-1.34h.02l.02.04v.04l-1.1 1.06Z" fill="#9C867D"/><path d="M7.75 7.05c-.03-.06.01-.06.11 0-.05 0-.07.03-.07.06 0 .04 0 .05.04.03l.52-.2.07.16a.16.16 0 0 1 0 .12c-.05.14-.1.3-.2.4-.1.11-.18.23-.26.35a.38.38 0 0 0 .03.47l.32.32c.04.05.07.1.09.17 0 .07 0 .13-.02.2-.09.2-.04.35.14.47l.14.16c.03.03.03.07.02.1l-.07.16a.14.14 0 0 0 .02.15c.06.06.08.14.09.24 0 .18.04.2.11.02a2.8 2.8 0 0 1 .15-.28h.08l.03.04.13.3c.05.12.08.11.1-.02 0-.25.16-.33.08-.6a.16.16 0 0 1 0-.11.25.25 0 0 1 .06-.1c.13-.09.2-.21.23-.37a.2.2 0 0 0-.02-.12c-.14-.3.13-.51.32-.68.14-.13.19-.4.07-.56-.2-.28-.62-.6-.38-1 .16.1.34.17.52.2.03.01.04 0 .03-.04a.06.06 0 0 0-.04-.03.55.55 0 0 0 .18-.13c.03.04.06.04.1 0l.57-.42-.49.98c-.02.04-.02.08 0 .1l-.03.01c-.03.01-.03.03-.01.06.18.23-.01.36 0 .6 0 .07.02.08.06.02a.3.3 0 0 1 .15-.12c.04-.01.06-.04.05-.08a.72.72 0 0 0-.13-.41c.1-.02.2-.02.26 0l.92.62a.2.2 0 0 1 .07.09c.06.1.15.2.27.26.03 0 .06.03.08.09.02.05.08.05.1 0 .24-.53.33-1.05.28-1.56l.04.75c0 .02 0 .03.02.05l.04.01.07.28c-.16.74-.32 1.44-.15 2.37 0 .08.01.15.04.22l-.03.02c-.26-.07-.43-.19-.53-.37-.1-.2-.1-.34.05-.41.11-.06.11-.1 0-.14l-.31-.08a.25.25 0 0 0-.01-.15c-.02-.05-.05-.06-.1-.05-.14.03-.24.03-.38-.04a.98.98 0 0 0-.63-.11l-.44.03a.72.72 0 0 0-.55.15c-.28.2-.17.76-.14 1.05v.03l.02.02c.04.03.06.03.08-.01l.09.05c.03.01.04.04.03.08a.4.4 0 0 0 0 .27c.09.22.29.62.5.6.06 0 .07-.02.01-.04-.15-.07-.2-.18-.17-.32 0-.04 0-.06-.02-.09a.22.22 0 0 1-.07-.18l.02-.06a.13.13 0 0 1 .05-.05l.1-.06c.18.1.4.08.66-.05a.5.5 0 0 1-.23.27c-.03.01-.04.03-.02.06v.03c.01.01.02.02.04.01l.42-.19c.16-.02.27-.1.34-.27.06-.02.06-.07.01-.14-.03-.06-.02-.09.04-.1a.2.2 0 0 0 .06-.03c.06-.05.06-.08-.01-.1l-.28-.08a.18.18 0 0 0 .07-.07c.02-.03.02-.06 0-.1a.27.27 0 0 0-.08-.1c.03-.06.07-.1.11-.11.3-.06.43.08.43.4-.05.05-.07.13-.05.24 0 .04 0 .08-.02.12-.08.19.07.3.17.43.15.18.34.23.58.14.05.13.04.23-.02.3-.03.02-.06.03-.1 0l-.29-.2H12c-.25.2-.69.03-.96-.07-.06-.03-.08 0-.04.06l.25.4-.98.32c-.15-.03-.23-.01-.24.05l-.36.06.02-.46c0-.06-.02-.07-.07-.05-.4.17-.79.17-1.17.01-.04-.01-.07 0-.08.05a.7.7 0 0 0 .02.44c-.1.01-.2 0-.29-.03-.03-.01-.11.18-.14.2-.2.14-.55.08-.68.25-.06.08-.58.19-.69.17-.18-.02-.26-.24-.26-.42 0-.04.01-.08.03-.1l.18-.25c.12-.1.26-.16.41-.12 1.18.36.76.15-.14-.14.06-.16.14-.28.22-.36.07-.07.06-.1-.04-.07-.38.1-.6.2-1.03.09-.07-.02-.12 0-.14.07l-.03.04a.13.13 0 0 1-.05.03c-.21.09-.28-.01-.2-.3.3.25.65-.12.78-.4a.15.15 0 0 0 0-.12l-.12-.34c0-.1.02-.2.06-.29.11-.26.38-.2.55-.05a.42.42 0 0 0-.13.1c-.02.04-.02.07 0 .1l.1.11a.67.67 0 0 0-.35.06c-.02 0-.03.03-.02.05l.02.02c.15.1.28.22.37.38.06.1.14.17.23.23.12.07.24.13.37.15h.01l.01-.03v-.03l-.02-.01a.52.52 0 0 1-.27-.3c.25.1.44.12.57.05.1-.01.17.02.24.1.03.04.04.08.01.12a.65.65 0 0 0-.1.3c-.01.07-.04.13-.1.18-.03.04-.03.06.03.06.04 0 .07-.02.1-.04.22-.24.36-.56.42-.95l.05.04c.03 0 .04 0 .05-.04.06-.31.15-.9-.15-1.1-.18-.11-.35-.15-.5-.1l-.57-.07-.95.18c-.04 0-.06.03-.07.07-.01.04.01.08.07.1l-.41.17c-.06.02-.06.04 0 .07.15.07.18.2.1.37a.16.16 0 0 1-.1.09c-.14.05-.11.25-.31.28-.05.01-.08 0-.1-.05-.09-.17.02-.49-.03-.72.08-.11.12-.23.12-.36a.65.65 0 0 0 .07-.22c.08-.2.05-.42-.1-.68-.06-.12-.06-.3.01-.56l.21.48c.02.04.04.04.06.01.06-.06.1-.1.14-.1.39-.38.8-.7 1.24-.95.04-.02.13-.02.25 0-.17.26-.15.46.06.6.03.01.07-.02.06-.05a1.24 1.24 0 0 1 0-.62 1.94 1.94 0 0 0-.25-.6c-.14-.22-.24-.38-.28-.49l.78.53Z" fill="#775244"/><path d="m10.55 6.65.04.06-.22.22a.55.55 0 0 1-.18.13c-.2-.12-.37-.17-.51-.14-.24.4.17.73.38 1.01.12.15.07.43-.07.56-.19.17-.46.38-.32.68a.2.2 0 0 1 .02.12.55.55 0 0 1-.23.38.9.9 0 0 0 .01-.17c0-.15-.1-.2-.1-.37l.07-.35a.2.2 0 0 1 .05-.1c.08-.1.15-.18.21-.28.1-.17.12-.31.05-.43-.24-.28-.54-.5-.36-.94v-.06a.1.1 0 0 0-.1-.05c-.02 0-.04.02-.03.05l.06.6c0 .04.02.08.05.11.06.07.1.15.14.23.02.04.02.08 0 .12l-.22.47c-.1-.14-.11-.3-.03-.52.01-.03 0-.07-.04-.1l-.04-.08c-.07-.3-.09-.56-.06-.81 0-.05-.01-.08-.05-.1a.12.12 0 0 0-.12 0c-.04.02-.05.05-.05.09.06.31.03.6-.08.86-.07.1-.07.2-.01.31.01.03.02.07.01.1-.01.1 0 .24.04.42l-.32-.62a.14.14 0 0 1 0-.13c.04-.1.1-.2.16-.3.04-.04.04-.1.02-.14a.13.13 0 0 1 0-.1.62.62 0 0 0 .01-.43c0-.01-.01-.02-.03-.02l-.02.01c-.04.01-.05.03-.04.07.04.13.05.27.02.4-.05.24-.24.39-.38.57-.17.2.07.5.22.63l.04.07.13.45-.15.47c-.18-.12-.23-.28-.14-.48a.34.34 0 0 0 .02-.19.32.32 0 0 0-.09-.17L8 8.44a.38.38 0 0 1-.04-.47l.27-.35c.1-.1.15-.26.2-.4a.16.16 0 0 0 0-.12l-.07-.16c-.11-.07-.28-.03-.49.1-.1-.05-.14-.05-.11 0a.4.4 0 0 0-.18-.17c.02-.04.04-.06.06-.07.03.02.06.05.1.06.03.01.06.02.1 0 .78-.21 1.58-.21 2.39 0 .03.02.07.01.1 0a.81.81 0 0 0 .23-.21Z" fill="#050406"/><path d="M9.22 7.88c-.06.08-.1.19-.15.32 0 .03-.03.04-.06.05-.03 0-.06-.03-.07-.1v-.02c0-.15-.04-.24-.12-.29.11-.26.14-.55.08-.86 0-.04.01-.07.05-.1a.12.12 0 0 1 .12 0c.04.03.06.06.05.1-.03.25 0 .52.06.82 0 .04.02.06.04.08Z" fill="#775244"/><path d="M8.86 8.67c.25.1.39.04.43-.17l.22-.47a.14.14 0 0 0 0-.12.85.85 0 0 0-.14-.23.2.2 0 0 1-.05-.11l-.06-.6c0-.03 0-.05.04-.05a.1.1 0 0 1 .08.05c.01.02.02.04 0 .06-.17.44.12.66.37.94-.21.3-.36.6-.46.94-.03.1.01.18.09.22-.02.16.08.22.1.37 0 .05 0 .1-.02.17a.25.25 0 0 0-.06.09.16.16 0 0 0 0 .12c.08.26-.07.34-.09.59 0 .13-.04.14-.1.02l-.12-.3a.08.08 0 0 0-.03-.03.07.07 0 0 0-.08 0 2.78 2.78 0 0 0-.15.28c-.07.16-.1.15-.11-.03 0-.1-.04-.18-.09-.24a.14.14 0 0 1-.02-.15l.07-.15a.09.09 0 0 0-.02-.1l-.14-.17.15-.47c.1-.11.12-.24.05-.37a13.4 13.4 0 0 0-.44-.78c.14-.18.33-.33.38-.57a.84.84 0 0 0-.02-.4c0-.04 0-.06.04-.07h.02c.02-.01.03 0 .03.01.05.15.04.29-.01.43a.13.13 0 0 0 0 .1c.02.05.02.1-.02.14-.07.1-.12.2-.17.3a.14.14 0 0 0 0 .13l.33.62Z" fill="#D9CCC5"/><path d="M6.9 7.57c-.05-.02-.09 0-.1.07a.1.1 0 0 1-.08.08l-.12.03-.36-.05c-.04 0-.04-.02 0-.03.2-.07.46-.25.65-.1Z" fill="#9C867D"/><path d="M11.8 8.15a.1.1 0 0 1 .06.09c0 .08.04.13.09.15l.2.25a.6.6 0 0 1-.26-.26.2.2 0 0 0-.07-.09l-.92-.61.39-.15a.13.13 0 0 1 .1 0l.29.13c.03.02.03.03 0 .04a.62.62 0 0 1-.4-.08h-.01l-.01.03c-.01.02 0 .03.01.04.26.08.31.36.54.46Z" fill="#fff"/><path d="m5.48 8.24-.05-.05c-.02 0-.03.01-.04.04a.67.67 0 0 0-.06.28l-.02-.03c-.03-.03-.04-.03-.05.01l-.02.06-.03-.5c.06.01.08-.07.06-.25.07.04.1-.05.1-.25l.11.69Z" fill="#775244"/><path d="m6.9 7.57.23.11c-.44.26-.86.57-1.24.94l.26-.4a.23.23 0 0 1 .08-.08l.15-.09c.06-.03.05-.06 0-.1a.28.28 0 0 0-.18-.01c-.01 0-.02 0 0-.01 0-.01 0-.02.02-.02.14.02.27-.04.38-.16l.12-.03a.1.1 0 0 0 .08-.08c.01-.06.05-.09.1-.07Z" fill="#fff"/><path d="M7.5 7.61c-.05.2-.05.4 0 .62v.03l-.02.01-.02.01h-.02c-.21-.14-.23-.34-.06-.6.02-.03.06-.06.13-.07ZM10.56 7.6c0 .03.04.05.08.07.09.12.13.26.13.4 0 .05-.01.08-.05.09a.3.3 0 0 0-.16.12c-.03.06-.05.05-.05-.02-.01-.24.18-.37 0-.6-.03-.03-.02-.05.01-.06h.04Z" fill="#D9CCC5"/><path d="M9.22 7.88c.04.03.05.07.04.1-.08.21-.07.38.03.52-.04.2-.18.27-.43.17a1.08 1.08 0 0 1-.04-.41c.01-.04 0-.08-.01-.11-.06-.11-.06-.21 0-.3.09.04.13.13.12.28v.03c.02.06.05.1.08.09.03 0 .05-.02.06-.05.04-.13.09-.24.15-.32Z" fill="#9C867D"/><path d="M9.38 9.13a.18.18 0 0 1-.09-.22c.1-.33.25-.65.46-.94.08.12.06.26-.05.43l-.2.28a.2.2 0 0 0-.06.1l-.06.35ZM8.28 7.98c.16.26.3.52.44.78.07.13.05.26-.05.37l-.13-.45a.15.15 0 0 0-.04-.07c-.15-.13-.39-.43-.22-.63Z" fill="#775244"/><path d="M5.48 8.24c-.07.25-.07.44 0 .56.14.26.17.49.09.68l-.24-.97c0-.1.02-.2.06-.28 0-.03.02-.04.04-.04s.03.02.05.05ZM7.18 9.5c-.3.2-.61.33-.95.36-.06-.03-.08-.07-.07-.11 0-.04.03-.07.07-.07l.95-.18ZM11.86 9.87a3.9 3.9 0 0 1-1.12-.35c.2-.04.41 0 .63.11.14.07.24.07.39.04.04-.01.07 0 .09.05.02.04.02.08 0 .15ZM8.3 10.77c.11-.52-.07-.92-.54-1.2.14-.05.3-.01.49.1.3.2.2.79.15 1.1 0 .03-.02.05-.05.04-.02 0-.04-.02-.05-.04ZM10.3 9.55c-.48.25-.67.66-.6 1.24 0 .04-.03.04-.07.01l-.02-.02v-.03c-.03-.3-.14-.85.14-1.05a.72.72 0 0 1 .55-.15ZM7.7 11c-.13.07-.32.05-.57-.05l-.35-.52-.1-.1c-.02-.04-.02-.07 0-.1a.42.42 0 0 1 .13-.11c.06-.04.09-.04.1.01.04.46.3.75.79.87ZM11.27 10.14c.04.02.06.06.08.1.02.03.02.06 0 .09a.18.18 0 0 1-.07.07l-.37.54c-.26.13-.48.15-.65.05.5-.06.78-.33.84-.82 0-.05.02-.07.07-.07l.1.04Z" fill="#D9CCC5"/><path d="m6.78 10.43.35.52c.05.14.14.24.27.3l.02.01v.06H7.4a1.17 1.17 0 0 1-.37-.15.68.68 0 0 1-.23-.23c-.1-.16-.22-.29-.37-.38l-.02-.02a.04.04 0 0 1 0-.04l.02-.01a.67.67 0 0 1 .35-.06ZM11.28 10.4l.28.08c.07.02.07.05.01.1a.2.2 0 0 1-.06.03c-.06.01-.07.04-.04.1.17.44-.52.49-.77.6l-.03-.01-.02-.03c0-.03 0-.05.03-.06a.5.5 0 0 0 .23-.27l.37-.54Z" fill="#050406"/><path d="M11.81 10.42c.04.08.06.18.06.3 0 .04.01.07.04.1l.58.53c-.24.09-.43.04-.58-.14-.1-.13-.25-.24-.17-.43a.21.21 0 0 0 .02-.12c-.02-.11 0-.19.05-.24ZM5.54 11.32l.63-.52c.03-.03.03-.05.01-.09a.23.23 0 0 1 .02-.25l.12.34c.02.04.02.08 0 .12-.13.28-.47.65-.78.4Z" fill="#D9CCC5"/><path d="m9.67 12.27-.24.03a.1.1 0 0 0-.06.03.1.1 0 0 0-.03.05.52.52 0 0 1-.2.31.15.15 0 0 0-.04.06.16.16 0 0 0 .01.15c.02.02.03.04.06.05.34.2.7.22 1.06.07h.02v.07l-.01.02c-.2.15-.42.2-.64.17a3.98 3.98 0 0 0-1.1 0c-.35.04-.7-.02-.82-.45-.02-.06-.01-.07.02 0 .06.1.12.2.23.24.31.1.63.05.96-.14a.1.1 0 0 0 .03-.04.12.12 0 0 0-.01-.15c-.1-.1-.18-.2-.24-.34a.14.14 0 0 0-.09-.08l-.2-.06a.7.7 0 0 1-.01-.44c.01-.05.04-.06.08-.05.38.16.77.16 1.17-.01.05-.02.07 0 .07.05l-.02.46Z" fill="#050406"/><path d="m6.8 11.82.93.3.01.04a.03.03 0 0 1 0 .02l-.02.01h-.01l-.76-.23c-.15-.04-.29.02-.4.12 0-.04-.06-.05-.2-.04-.08-.1-.22-.09-.41.01a.07.07 0 0 1-.05 0h-.03c-.02 0-.02-.02 0-.02l.94-.2Z" fill="#9C867D"/><path d="M11.25 11.84a.2.2 0 0 1 .12.03c.1.15.22.21.35.2l.22.15a.1.1 0 0 1 .05.07.12.12 0 0 1-.02.08l-.38.61c-.02.03-.04.04-.07.02a.15.15 0 0 0-.1 0c-.18-.1-.37-.17-.55-.21-.07-.02-.12 0-.16.02-.06.04-.09.11-.08.2 0 .05.03.08.07.09a.2.2 0 0 1 .08.04c.03.02.03.04 0 .05a.15.15 0 0 1-.13-.02c-.03-.02-.06-.02-.1 0-.26.2-.49.14-.74.46-.09.09-.18.12-.27.1l-.82.06c-.29 0-.49-.09-.6-.28l-.75-.41c.04-.12.02-.22-.03-.28-.03-.03-.07-.04-.1-.03L6.5 13l-.45-.65c-.02-.03-.02-.07.01-.1l.29-.2c.13-.02.19-.01.18.03l-.18.24a.18.18 0 0 0-.03.11c0 .18.08.4.26.42.14.02.24-.01.31-.1.03-.03.07-.04.1-.03.07.02.12.02.18.02.04 0 .07-.02.1-.06.08-.12.2-.18.33-.18.03 0 .06-.01.08-.03l.3-.22a.11.11 0 0 1 .11-.02c.1.03.19.04.29.03l.2.06c.03.02.06.04.08.08.06.13.14.25.24.34.05.05.04.15-.02.19-.33.19-.65.24-.96.14-.11-.04-.17-.15-.23-.25-.03-.06-.04-.05-.02.01.12.43.47.5.83.45.37-.05.74-.05 1.1 0 .21.03.43-.02.63-.17.02-.01.02-.1-.01-.1-.36.16-.72.14-1.06-.06-.1-.05-.1-.2-.02-.26.1-.08.17-.18.2-.3a.1.1 0 0 1 .02-.06.1.1 0 0 1 .06-.03l.24-.03.36-.06c0 .1.06.16.16.18.03 0 .06.02.1.05.12.13.2.13.23.02l.24.22c.03.03.06.04.1.04h.24c.03 0 .05.02.06.04a.1.1 0 0 0 .08.08c.22.05.36-.03.43-.24.05-.14.02-.28-.1-.4-.15-.2-.25-.3-.51-.24-.26.07-.51.15-.76.25l-.03-.05.98-.32Z" fill="#D9CCC5"/><path d="M11.72 12.07c-.13.01-.25-.05-.35-.2.38-.05.5.01.35.2ZM10.52 12.46h.95c.07 0 .07-.03.01-.07a.26.26 0 0 0-.14-.05 23.98 23.98 0 0 0-1.05-.02l-.01-.02v-.02c0-.02 0-.05.02-.07.25-.1.5-.18.76-.25s.36.05.51.23c.12.13.15.27.1.41-.07.21-.21.3-.43.24a.1.1 0 0 1-.08-.08c-.01-.02-.03-.04-.06-.04h-.24a.15.15 0 0 1-.1-.04l-.24-.22Z" fill="#775244"/><path d="m10.27 12.16.03.05a.14.14 0 0 0-.03.07v.02l.02.02.02.02h1.02c.06 0 .11.02.16.05.05.04.05.06-.02.06h-.95c-.03.12-.1.12-.24-.01a.17.17 0 0 0-.1-.05c-.1-.02-.15-.08-.15-.18.01-.06.09-.08.24-.05Z" fill="#9C867D"/><path d="M7.37 13.1a.57.57 0 0 0-.24.07.09.09 0 0 0-.04.04l-.02.05c0 .04.02.06.05.07.03 0 .05.02.07.04-.08-.02-.15.02-.23.11.02-.01 0-.03-.05-.06.03-.06.03-.1 0-.12a1.7 1.7 0 0 0-.4-.3l.72-.21c.04-.01.08 0 .1.03.06.06.08.16.04.28ZM11.42 13l-.37.38c-.03.03-.06.04-.1.02l-.03-.02a.07.07 0 0 0-.08 0c-.34.2-.69.28-1.03.25.25-.32.48-.26.75-.46.03-.02.06-.02.1 0 .03.02.07.03.11.02.04-.01.04-.03.01-.05a.2.2 0 0 0-.08-.04c-.04-.01-.06-.04-.07-.08 0-.1.02-.17.08-.21.04-.03.1-.04.16-.02.18.04.37.1.55.2Z" fill="#5B3A2F"/><path d="m7.37 13.1.76.4c-.07.15-.16.19-.29.13-.21-.1-.43-.16-.65-.26a.13.13 0 0 0-.07-.04c-.03 0-.05-.03-.05-.07 0-.02 0-.03.02-.05 0-.02.02-.03.04-.04.1-.05.18-.07.24-.07Z" fill="#775244"/><path d="M8.64 11.03a.72.72 0 0 0-.1.34c0 .04.02.07.06.09.11.05.22.07.33.07h.26c.09 0 .17-.03.25-.08.03-.03.05-.06.04-.1l-.1-.47c.13.14.2.34.2.6 0 .04-.03.07-.06.08-.2.1-.4.16-.57.18a.19.19 0 0 1-.15-.05.41.41 0 0 0-.3-.1c-.04 0-.06-.03-.06-.07.01-.2.06-.38.13-.54.02-.04.04-.04.06 0a.1.1 0 0 1 0 .05Z" fill="#D9CCC5"/><path d="m9.38 10.88.1.47c0 .04 0 .07-.04.1a.44.44 0 0 1-.25.08h-.26a.72.72 0 0 1-.33-.07c-.04-.02-.05-.05-.05-.09 0-.12.03-.23.09-.34.06-.13.12-.1.18.07.02.04.04.06.08.07a.4.4 0 0 0 .24 0 .1.1 0 0 0 .07-.07c.01-.06.07-.14.17-.22Z" fill="#5B3A2F"/><path d="m8.97 9.84-.12.23-.02.02H8.8c-.02 0-.03-.02-.03-.04.04-.15.1-.26.09-.43-.01-.22 0-.43.07-.64.05-.22.11-.22.17 0 .06.23.08.45.07.68 0 .13.06.24.08.36v.06H9.2a6.77 6.77 0 0 0-.15-.25c-.03-.05-.06-.05-.1.01Z" fill="#775244"/><path d="M7.46 9.8c-.1.14-.22.2-.36.2.03-.2.14-.29.32-.26.02 0 .03 0 .04.02v.05Z" fill="#9C867D"/><path d="m7.46 9.8.07.11a.1.1 0 0 1 .01.12.2.2 0 0 1-.09.09c-.05.02-.06.06-.04.1l.12.28c0 .02.02.04.03.05a.1.1 0 0 0 .15-.02c.1-.14.18-.3.22-.47.02-.07.04-.08.08-.01.07.14.1.27.12.39.05.62-1.2.51-1.03-.44.15 0 .26-.06.36-.2Z" fill="#58F2DA"/><path d="M10.94 10.04a.27.27 0 0 1-.25-.1.11.11 0 0 0-.1-.04l-.1.01c.17-.3.32-.26.45.13Z" fill="#9C867D"/><path d="M10.49 9.91h.1c.04-.01.07 0 .1.03.06.07.14.1.25.1.03.34-.08.59-.32.73-.16.09-.33.05-.5.02-.2-.03-.26-.23-.18-.6a.43.43 0 0 1 .07-.16l.03-.04c.03-.03.04-.03.05.02.04.2.12.38.25.54l.04.03a.08.08 0 0 0 .08-.01.1.1 0 0 0 .03-.04l.11-.28c.02-.06.01-.1-.04-.13-.08-.05-.1-.12-.07-.21Z" fill="#58F2DA"/><path d="M9.26 12.1a.3.3 0 0 0-.05.24c.01.05 0 .09-.03.12l-.14.15c-.03.03-.06.03-.09 0-.1-.1-.15-.22-.12-.33 0-.05 0-.1-.04-.13-.06-.06-.13-.07-.2-.01H8.5l-.01-.02-.02-.04a.07.07 0 0 1 .01-.09h.03c.14-.04.27.01.4.13a.12.12 0 0 0 .17 0c.12-.1.25-.16.4-.15.04 0 .06.02.08.05a.1.1 0 0 1 0 .07l-.02.03h-.03a.26.26 0 0 1-.2-.03c-.02-.02-.04-.02-.06 0Z" fill="#D55F6F"/><defs><linearGradient id="a" x1="18" y1="9" x2="0" y2="9" gradientUnits="userSpaceOnUse"><stop stop-color="#C46CE3"/><stop offset="1" stop-color="#0A4BB2"/></linearGradient><linearGradient id="b" x1="9" y1="3" x2="9" y2="16" gradientUnits="userSpaceOnUse"><stop stop-color="#45A7EF"/><stop offset="1" stop-color="#7B6FEE"/></linearGradient></defs></svg>