<!-- by TradingView --><svg width="18" height="18" viewBox="0 0 18 18" xmlns="http://www.w3.org/2000/svg"><path fill="#283870" d="M0 0h18v18H0z"/><ellipse cx="9.13" cy="10.91" rx=".8" ry=".82" fill="#fff"/><path d="M11 12.26c-.32-.2-.73-.09-1.04.1A1.64 1.64 0 0 1 7.46 11a1.64 1.64 0 0 1 2.5-1.36c.34.2.78.3 1.1.08.3-.21.4-.64.12-.9A3.04 3.04 0 0 0 6.06 11a3.04 3.04 0 0 0 5.1 2.2c.3-.27.18-.73-.16-.94Z" fill="#fff"/><path d="M13.84 6.5a.5.5 0 0 0-.01-.74c-1.3-1.1-3-1.76-4.86-1.76-1.83 0-3.5.64-4.8 1.7a.5.5 0 0 0-.02.74.6.6 0 0 0 .8.03 6.4 6.4 0 0 1 4.02-1.4 6.4 6.4 0 0 1 4.08 1.44c.23.2.58.2.8-.02ZM12.5 7.81c.21-.2.21-.54-.02-.73a5.57 5.57 0 0 0-6.97-.03c-.24.18-.24.51-.03.72.21.22.56.22.8.04a4.46 4.46 0 0 1 5.42.03c.24.18.59.18.8-.03Zm-1.6 1.63c.21-.2.22-.53-.02-.7a3.08 3.08 0 0 0-1.9-.54c-.74 0-1.19.2-1.73.58-.24.17-.24.5-.03.7.21.22.57.22.83.06.33-.2.5-.28.92-.28.43 0 .76.02 1.1.23.26.16.62.17.84-.05Z" fill="#E5B909"/></svg>