<!-- by TradingView --><svg width="18" height="18" viewBox="0 0 18 18" xmlns="http://www.w3.org/2000/svg"><path fill="url(#ay1h14rqr)" d="M0 0h18v18H0z"/><path fill-rule="evenodd" d="M2 8.31c.26.23 1.03.7 2.08.7 1.06 0 1.97-.72 2.3-1.07A6.55 6.55 0 0 1 11.02 6c2.36 0 3.64.7 3.98 1.05C14.5 8.7 12.86 12 8.67 12 4.47 12 2.6 9.69 2 8.31Zm3.76.8c.3-.19 1.01-.7 1.46-1.2a5.84 5.84 0 0 1 4.24-1.58c1.76 0 2.64.56 2.86.83-.04.26-.36.8-1.3 1-1.2.22-2.33.57-3.18 1.64-.67.84-1 .85-1.34.87h-.02c-.22 0-.74-.1-1.14-.63a2.94 2.94 0 0 0-1.58-.93Z" fill="#fff"/><defs><linearGradient id="ay1h14rqr" x1="3.6" y1="0" x2="12.48" y2="18" gradientUnits="userSpaceOnUse"><stop stop-color="#0E1C3C"/><stop offset="1" stop-color="#163B8F"/></linearGradient></defs></svg>