<!-- by TradingView --><svg width="18" height="18" viewBox="0 0 18 18" xmlns="http://www.w3.org/2000/svg"><path fill="url(#az030jtph)" d="M0 0h18v18H0z"/><path d="M5 4h3.99c.9 0 1.63.38 2.23 1.1.55.66.79 1.53.78 2.36a3.46 3.46 0 0 1-1.84 3.07c.61 1.2 1.21 2.27 1.83 3.46h-.07l-1.76.01c-.06 0-.08-.02-.1-.07-.87-1.64-1.77-3.26-2.6-4.93h1.1C9.32 9 10 8.42 10 7.52 10 6.35 9.26 6 8.4 6H6.12c-.18 0-.28-.11-.36-.26-.24-.44-.47-1.2-.71-1.65L5 4.02V4Z" fill="#fff"/><defs><linearGradient id="az030jtph" x1="9" y1="0" x2="9" y2="18" gradientUnits="userSpaceOnUse"><stop stop-color="#B29AFA"/><stop offset="1" stop-color="#F8B4C1"/></linearGradient></defs></svg>