<!-- by TradingView --><svg width="18" height="18" viewBox="0 0 18 18" xmlns="http://www.w3.org/2000/svg"><path fill="#A42715" d="M0 0h18v18H0z"/><path d="M14.92 9A5.92 5.92 0 1 1 3.08 9a5.92 5.92 0 0 1 11.84 0Z" fill="#FC5245"/><path d="m10.54 3.6.83.4a.58.58 0 0 1-.1.03.66.66 0 0 0-.39.28 5.06 5.06 0 0 0-3.25-.16l-.02-.01c-.12-.26-.36-.25-.56-.1-.17.12-.33.33-.43.51a5.04 5.04 0 0 0-2.6 5.15 5.03 5.03 0 1 0 8.11-4.63.22.22 0 0 1-.09-.13 4.87 4.87 0 0 0-.32-.74 4.7 4.7 0 0 1 .78.53c-.07.23.13.4.34.3a.02.02 0 0 1 .03 0c.35.32.65.69.9 1.1l.4.68a5.37 5.37 0 0 1 .42 2.61 5.61 5.61 0 1 1-4.04-5.83Z" fill="#C02A11"/><path d="m14.16 6.81-.39-.68a5.06 5.06 0 0 0-.93-1.1c-.21.1-.41-.07-.34-.3V4.7a4.7 4.7 0 0 0-.78-.51c-.1-.1-.22-.16-.35-.2l-.83-.4c.24.04.43.1.58.17a6.96 6.96 0 0 1 1.44.86h.02c.18-.1.37 0 .37.2l-.02.11.01.03.36.36c.27.3.5.62.66.93.09.16.15.34.2.55Z" fill="#FEE5E1"/><path d="M11.37 4c.13.04.25.1.35.2a2 2 0 0 0 .09.16l.08.17c.07.15.12.3.15.41.02.06.04.09.1.13a5.04 5.04 0 0 1-2.43 8.9 5.35 5.35 0 0 1-1.76-.05 5.03 5.03 0 0 1-1.33-9.37c.1-.18.26-.4.43-.51.2-.15.44-.16.56.1a.04.04 0 0 0 .05.02 5.06 5.06 0 0 1 3.18.16h.04a.66.66 0 0 1 .4-.3c.03 0 .06 0 .09-.02Z" fill="#020101"/><path d="M7.28 4.77c-.1-.02-.18.1-.21.17-.14.32-.2.65-.17 1l-.01.03a14.56 14.56 0 0 0-.52.33.55.55 0 0 1-.03-.14 2.8 2.8 0 0 1 .33-1.55c.12-.23.34-.53.59-.6.17-.05.25.06.31.2l.51 1.13-.01.04-.39.17a.03.03 0 0 1-.03 0v-.01a14.8 14.8 0 0 0-.31-.73.09.09 0 0 0-.06-.04ZM11.51 5.03c-.05-.1-.16-.17-.25-.08a.8.8 0 0 0-.14.23 5.95 5.95 0 0 0-.23.59h-.01l-.49-.2a.03.03 0 0 1-.02-.03l.5-1.05a.9.9 0 0 1 .14-.23c.38-.4.7-.03.84.33a9.18 9.18 0 0 1 .48 1.93v.13h-.02l-.57-.43-.01-.02c0-.33-.04-.65-.13-.95a1.05 1.05 0 0 0-.09-.22Z" fill="#CE2417"/><path d="M9 4.12v.61l-.07.14H8.9l-.86-.3a.05.05 0 0 0-.07.05l.02.06a54.67 54.67 0 0 0 .3.6l-.12.05-.03-.01-.45-1a4.86 4.86 0 0 1 1.3-.2Z" fill="#D89446"/><path d="M9.01 4.73v-.6a4.92 4.92 0 0 1 1.78.34l-.5 1.06-.32-.11V5.4l.5-.61a.05.05 0 0 0 .01-.04c0-.04-.03-.05-.08-.04a84.35 84.35 0 0 1-1.04.15l-.03-.5a.04.04 0 0 0-.03-.05c-.03 0-.05 0-.06.03L9 4.73Z" fill="#FFF6B4"/><path d="M8.48 5.26c0-.02 0-.03-.03-.02a.06.06 0 0 1-.07-.03l-.27-.5c0-.01 0-.02.01-.01l.8.28c.03 0 .06 0 .07-.03l.24-.42c.01-.03.02-.02.02 0l.04.42c0 .03.02.04.05.04l.95-.16c.03 0 .04 0 .02.02-.17.21-.3.35-.38.47a.15.15 0 0 1-.08.06c-.06.01-.06.03 0 .06.38.13.75.28 1.1.45.67.32 1.26.75 1.76 1.29.39.42.79 1.01.68 1.62-.05.28-.17.54-.38.79a5.67 5.67 0 0 1-1.74 1.27v-.01l.19-.24c.2-.29.39-.7.33-1.04-.09-.51-.73-.81-1.16-.92-.04 0-.05-.02 0-.04.49-.22.99-.7.98-1.27a1 1 0 0 0-.43-.82c-.2-.15-.4-.26-.62-.33-.28-.1-.56-.16-.83-.2-.06 0-.1 0-.15.03a108.46 108.46 0 0 1-1.1.78l-.04-.01-.67-.68a.09.09 0 0 0-.1-.03c-.3.08-.59.2-.88.35-.3.15-.54.34-.73.58-.29.35-.36.95-.01 1.3.12.12.23.2.3.25a28.59 28.59 0 0 0 .27.15c-.27.1-.53.22-.69.45-.24.36-.16.75.04 1.1a2.52 2.52 0 0 0 .61.77v.01a4.8 4.8 0 0 1-1.09-.72c-.35-.32-.6-.69-.76-1.1-.11-.31-.1-.61.02-.91.06-.16.14-.3.22-.42.36-.53.8-1 1.35-1.42a8.65 8.65 0 0 1 2.16-1.21Z" fill="#CE2417"/><path d="M6.28 6.3a27.17 27.17 0 0 0-.74-.74 4.84 4.84 0 0 1 .93-.72c-.16.49-.26.94-.19 1.45Z" fill="#FFF6B4"/><path d="M6.97 5.92c-.03-.33.03-.65.17-.96a.28.28 0 0 1 .08-.1c.03-.03.06-.03.08 0a5.61 5.61 0 0 1 .28.74l-.61.32ZM11.64 6.17l-.66-.35V5.8c.08-.29.17-.58.33-.8a.05.05 0 0 1 .06-.02c.13.06.21.42.23.57a4.8 4.8 0 0 1 .04.62Z" fill="#EFD157"/><path d="M12.42 5.53a.7.7 0 0 1-.15.2l-.12-.43h.02l.25.23Z" fill="#D89446"/><path d="M12.42 5.53c.47.45.83.99 1.09 1.6-.19.06-.36.13-.51.22a5.55 5.55 0 0 0-.6-.62v-.14c0-.15-.02-.32-.05-.51a9.98 9.98 0 0 0-.08-.35.7.7 0 0 0 .15-.2Z" fill="#FFF6B4"/><path d="m5.54 5.56.12.1.62.63c.02.04.02.07-.02.1-.4.3-.77.65-1.09 1.04l-.68-.28c.24-.6.6-1.12 1.05-1.59Z" fill="#D89446"/><path d="M6.98 10.64h-.01l.2.83h-.01l-.32-.22v-.08a3.19 3.19 0 0 1-.88-1.08c-.08-.18-.11-.33-.1-.46.02-.4.36-.7.72-.81a2.37 2.37 0 0 1 .48-.1V8.7c-.51-.08-1.15-.38-1.15-.98-.02-.87 1.04-1.33 1.77-1.55l.03.01.74.75h.04l1.15-.83a.06.06 0 0 1 .04-.02c.71.09 1.95.43 1.83 1.39-.07.58-.68.98-1.19 1.19-.03 0-.03.02 0 .02.46.06 1.06.28 1.32.68.3.47-.16 1.2-.49 1.53-.06.07-.12.1-.2.13a9.47 9.47 0 0 1-.83.35v.01c0 .01 0 .02.02.01l.1-.03v.01l-1.57.84h-.03l-.89-.42a.02.02 0 0 1 0-.01.02.02 0 0 1 0-.02l.48-.65h.02c.2.38.4.8.44.82a.05.05 0 0 0 .04 0 .05.05 0 0 0 .03-.03l.32-.92a.02.02 0 0 1 .01-.01.02.02 0 0 1 .02 0 82.63 82.63 0 0 1 .51.4h.01a.03.03 0 0 0 .03-.03l-.11-.9a.02.02 0 0 0-.03-.02.01.01 0 0 0-.01.02l.04.76h-.02l-.46-.38c-.02-.02-.03-.01-.04 0l-.32.92a.01.01 0 0 1-.02 0l-.43-.8-.01-.01a.01.01 0 0 0-.01 0l-.8 1.08a.02.02 0 0 1-.02 0L7.4 12a15.73 15.73 0 0 0-.43-1.36Z" fill="#FEE5E1"/><path d="M9.15 7.54h-.03a.1.1 0 0 1-.03.01c-.44 0-.05-.8.18-.88.23-.1.46.07.5.32.04.26-.19.34-.36.45-.04.03-.04.03.01.02.1-.02.22 0 .21.13 0 .06-.04.1-.1.13-.08.05-.42.16-.48.03-.05-.11.02-.15.1-.2.02 0 .02 0 0 0ZM7.58 7.46c-.19-.11-.39-.21-.33-.47.06-.24.32-.4.55-.26.17.1.59.86.12.85h-.07c-.02 0-.02 0 0 .02.04.02.06.05.05.1-.02.2-.31.1-.44.05-.1-.03-.18-.1-.15-.21.03-.1.18-.09.26-.07.04.01.04 0 0-.01Z" fill="#020101"/><path d="M9.61 6.8c.08.09.12.22.08.33-.06.15-.58.43-.7.32-.12-.12.15-.65.3-.71.1-.05.24-.01.32.07ZM8.03 7.48c-.12.12-.64-.17-.7-.33a.31.31 0 0 1 .4-.38c.15.06.42.6.3.7Z" fill="#CE2417"/><path d="M13.88 8.99h-.43c.18-.62-.08-1.16-.45-1.64.15-.09.32-.16.5-.22.25.59.37 1.21.38 1.86Z" fill="#D89446"/><path d="m4.49 7.15.68.28c-.24.29-.44.6-.56.95-.07.19-.09.4-.05.62h-.44c0-.63.12-1.25.37-1.85Z" fill="#FFF6B4"/><path d="M8.43 8.32a.02.02 0 0 0-.03 0l-.2.37a.08.08 0 0 1-.07.05H8.1c-.04 0-.05-.02-.03-.05l.25-.47A.93.93 0 0 1 8 7.93c-.28-.36.54-.3.7-.29.07 0 .17.05.16.14-.02.17-.23.35-.35.42a.01.01 0 0 0-.01 0 .01.01 0 0 0 0 .02l.23.44c.01.02 0 .03-.01.04l-.03.02c-.02.01-.04 0-.05-.02l-.2-.39Z" fill="#020101"/><path d="M8.33 7.7c0 .03 0 .06-.03.08a.15.15 0 0 1-.09.04c-.04 0-.07 0-.1-.02a.08.08 0 0 1-.04-.06l.26-.04Z" fill="#FEE5E1"/><path d="m5.51 10.46-1.01.42a4.93 4.93 0 0 1-.38-1.87L4.56 9c.04.2.12.38.22.58.18.33.43.62.73.88Z" fill="#D89446"/><path d="M13.45 8.99h.43a4.9 4.9 0 0 1-.37 1.87l-1.23-.5c.3-.21.56-.43.8-.7.16-.2.29-.43.37-.67Z" fill="#FFF6B4"/><path d="m12.28 10.35 1.23.5a4.8 4.8 0 0 1-.53.95 55.1 55.1 0 0 0-1.18-1.14l.48-.3Z" fill="#D89446"/><path d="m5.51 10.46.66.46a7.88 7.88 0 0 0-1.18.86c-.2-.28-.35-.58-.49-.9l1.01-.42Z" fill="#FFF6B4"/><path d="M11.75 10.8h.03l.21.21c-.31.12-.58.23-.8.34a34.77 34.77 0 0 0-4 2.23l-.3-.15h-.01v-.01a.01.01 0 0 1 0-.02 40.27 40.27 0 0 1 4.87-2.6ZM7.38 12.16c.03.02.06.01.08-.02a45.83 45.83 0 0 0 .22-.28c.08.05.14.09.18.1a20.01 20.01 0 0 0 .67.33l-.89.52c-.04.02-.07.02-.11 0a9.56 9.56 0 0 1-1.84-1.42v-.03l.55-.35h.04c.3.17.59.38.9.62a.2.2 0 0 1 .06.1 29.93 29.93 0 0 1 .14.43Z" fill="#EFD157"/><path d="M11.84 11.97h-.03a6.57 6.57 0 0 1-.15 1.13c0 .02-.02.03-.03.04a5.06 5.06 0 0 1-4.27.48v-.02l.34-.23c1.1-.7 2.23-1.32 3.4-1.88.26-.12.61-.28.94-.4.02-.01.05 0 .07.01l.83.8a.03.03 0 0 1 0 .04l-.17.23a5.43 5.43 0 0 1-1 .85c.07-.34.1-.68.1-1.03 0-.02-.01-.03-.03-.02ZM5.64 11.84h-.02c-.02 0-.03.02-.04.04 0 .22.01.43.04.64 0 .03 0 .04-.02.02a3.75 3.75 0 0 1-.56-.64v-.01l.53-.43h.06c.13.15.3.3.48.46a10.07 10.07 0 0 0 1.38.98l-.7.44h-.03a6.17 6.17 0 0 1-.96-.64.19.19 0 0 1-.07-.1 3.59 3.59 0 0 1-.07-.74l-.02-.02Z" fill="#416192"/></svg>