<!-- by TradingView --><svg width="18" height="18" viewBox="0 0 18 18" xmlns="http://www.w3.org/2000/svg"><path fill="url(#a24gf1pz0)" d="M0 0h18v18H0z"/><path fill-rule="evenodd" d="m5.1 13 2.4-7.6c.43-.14 1.58-.4 2.67-.4C11.52 5 13 5.22 13 7.54c0 1.98-1.96 3.4-4.02 3.46a4.6 4.6 0 0 1-1-.12h-.02L7.14 13H5.1Zm3.35-3.87.53-1.99c.11-.08.47-.26.93-.26.57 0 .69.47.69.82 0 .36-.22 1.65-2.15 1.43Z" fill="url(#b24gf1pz0)"/><defs><linearGradient id="a24gf1pz0" x1="9" y1="0" x2="9" y2="18" gradientUnits="userSpaceOnUse"><stop stop-color="#2072C5"/><stop offset="1" stop-color="#101263"/></linearGradient><linearGradient id="b24gf1pz0" x1="8.95" y1="5" x2="8.95" y2="13.07" gradientUnits="userSpaceOnUse"><stop offset=".67" stop-color="#C3E3F3"/><stop offset="1" stop-color="#CB96D8"/></linearGradient></defs></svg>