<!-- by TradingView --><svg width="18" height="18" viewBox="0 0 18 18" xmlns="http://www.w3.org/2000/svg"><path fill="url(#a)" d="M0 0h18v18H0z"/><path d="M4.97 8.66c.07 1.93 1.47 3.54 3.42 3.53a40.81 40.81 0 0 0 .48 0l.04.05.67 1.7c.01.04 0 .06-.04.06h-.92a.1.1 0 0 1-.1-.08l-.25-.64a.15.15 0 0 0-.13-.1C5.62 13 3.9 10.82 4 8.3a4.81 4.81 0 0 1 2.67-3.84.04.04 0 0 1 .03.03l.31.8v.06c0 .02-.02.04-.04.05a3.76 3.76 0 0 0-2 3.26Z" fill="#fff"/><path d="M10.85 12.4c.55-.4 1-.9 1.34-1.5a5.02 5.02 0 0 0 .6-2.7.03.03 0 0 1 .04 0c.3.14.53.08.69-.17.19-.3-.05-.57-.24-.8l-.1-.1a.07.07 0 0 1 0-.1l.8-.65c.03-.03.03-.05-.02-.05h-.62a.03.03 0 0 1 0-.05c.43-.5.51-1.07.26-1.6-.19-.39-.59-.64-1-.68-.07 0-.1.02-.1.09v.46c0 .04-.02.05-.06.04l-.07-.02a1.24 1.24 0 0 0-1.35.31c-.02.02-.02.04 0 .06l.58.5a.05.05 0 0 1 .02.05l-.01.03-.02.01a4 4 0 0 0-2.55 2.55l-.13.37a.98.98 0 0 1-1.37.5A1.1 1.1 0 0 1 7 8.32c-.21-.64.07-1.03.57-1.4a.06.06 0 0 0 .02-.06l-.31-.82C7.26 6 7.24 5.99 7.2 6a2.13 2.13 0 0 0-1.14 2.6c.32.97 1.3 1.67 2.32 1.42a2.03 2.03 0 0 0 1.5-1.4c.27-1.02.9-1.73 1.87-2.1h.01a.03.03 0 0 1 .03.02v.01L11.78 9a3.63 3.63 0 0 1-2.14 2.97.1.1 0 0 0-.05.13l.7 1.84a.09.09 0 0 0 .1.06h.91c.05 0 .06-.02.05-.07l-.54-1.38a.13.13 0 0 1 .04-.15ZM13 6.33a.33.33 0 1 1-.67 0 .33.33 0 0 1 .67 0Z" fill="#fff"/><defs><linearGradient id="a" x1="13.5" y1="2.25" x2="5.3" y2="16.88" gradientUnits="userSpaceOnUse"><stop stop-color="#F4895D"/><stop offset="1" stop-color="#FF4C64"/></linearGradient></defs></svg>