<!-- by TradingView --><svg width="18" height="18" viewBox="0 0 18 18" xmlns="http://www.w3.org/2000/svg"><path fill="url(#a)" d="M0 0h18v18H0z"/><path d="M9.54 3.02a9.51 9.51 0 0 0-1.1.02v3.79c0 .04-.02.04-.04 0L6.51 3.56a.02.02 0 0 0-.03-.01 6.31 6.31 0 0 0-.94.56v.02L7.43 7.4a.02.02 0 0 1-.01.03H7.4a1604.96 1604.96 0 0 0-3.3-1.89 6.08 6.08 0 0 0-.54.95l.01.02L6.82 8.4c.05.03.05.04-.01.04H3.03v.02a6.22 6.22 0 0 0 0 1.1l.03.01h3.77c.05 0 .05.01.01.04l-3.27 1.88-.01.02v.03a6.17 6.17 0 0 0 .56.93l3.28-1.89c.04-.02.05-.02.03.03l-1.9 3.27a.03.03 0 0 0 .02.04 6.57 6.57 0 0 0 .96.53l1.9-3.3h.01a.01.01 0 0 1 .02 0v3.8c0 .02 0 .03.02.03a4.66 4.66 0 0 0 1.1-.02V11.14a.01.01 0 0 1 .02 0l1.9 3.3a.02.02 0 0 0 .04 0 6.56 6.56 0 0 0 .94-.55v-.02l-1.89-3.27c-.02-.05-.01-.05.03-.03l3.28 1.9h.02a6.19 6.19 0 0 0 .54-.97l-.01-.02-3.27-1.88c-.04-.03-.04-.04 0-.04h3.78a.03.03 0 0 0 .04-.03 6.25 6.25 0 0 0-.02-1.1h-3.77c-.06 0-.06-.01-.01-.04l3.25-1.88a.03.03 0 0 0 .01-.04 6.1 6.1 0 0 0-.57-.94 1484.83 1484.83 0 0 0-3.3 1.89V7.4l1.9-3.27a.03.03 0 0 0-.02-.04 6.31 6.31 0 0 0-.96-.53L9.6 6.83c-.01.04-.02.04-.02 0V3.04a.03.03 0 0 0-.03-.02Zm-.51 4.6 1.35 1.35c.02.01.02.04 0 .06l-1.35 1.35a.04.04 0 0 1-.06 0L7.62 9.03a.04.04 0 0 1 0-.06L8.97 7.6a.04.04 0 0 1 .06 0Z"/><defs><linearGradient id="a" x1="13.29" y1="0" x2="5.89" y2="19.16" gradientUnits="userSpaceOnUse"><stop stop-color="#EEDEE9"/><stop offset=".45" stop-color="#E3F0FF"/><stop offset="1" stop-color="#B0BFD6"/></linearGradient></defs></svg>