<!-- by TradingView --><svg width="18" height="18" viewBox="0 0 18 18" xmlns="http://www.w3.org/2000/svg"><path fill="#F0F3FA" d="M0 0h18v18H0z"/><path fill-rule="evenodd" d="M13 11a2 2 0 1 0 0-4 2 2 0 0 0 0 4Zm0-1a1 1 0 1 0 0-2 1 1 0 0 0 0 2Z" fill="#7A6BB0"/><path fill-rule="evenodd" d="M9 11a2 2 0 1 0 0-4 2 2 0 0 0 0 4Zm0-1a1 1 0 1 0 0-2 1 1 0 0 0 0 2Z" fill="#D5AF34"/><path fill-rule="evenodd" d="M11 7a2 2 0 1 0 0-4 2 2 0 0 0 0 4Zm0-1a1 1 0 1 0 0-2 1 1 0 0 0 0 2Z" fill="#B065A8"/><path fill-rule="evenodd" d="M11 15a2 2 0 1 0 0-4 2 2 0 0 0 0 4Zm0-1a1 1 0 1 0 0-2 1 1 0 0 0 0 2Z" fill="#0E8CA5"/><path fill-rule="evenodd" d="M5 11a2 2 0 1 0 0-4 2 2 0 0 0 0 4Zm0-1a1 1 0 1 0 0-2 1 1 0 0 0 0 2Z" fill="#ED8C79"/><path fill-rule="evenodd" d="M7 7a2 2 0 1 0 0-4 2 2 0 0 0 0 4Zm0-1a1 1 0 1 0 0-2 1 1 0 0 0 0 2Z" fill="#EA6575"/><path fill-rule="evenodd" d="M7 15a2 2 0 1 0 0-4 2 2 0 0 0 0 4Zm0-1a1 1 0 1 0 0-2 1 1 0 0 0 0 2Z" fill="#7DA96A"/></svg>