<!-- by TradingView --><svg width="18" height="18" viewBox="0 0 18 18" xmlns="http://www.w3.org/2000/svg"><path fill="#F0F3FA" d="M0 0h18v18H0z"/><path d="m9.31 4.2.12.23c.2.32.45.62.72.9l.3.24.32.17c.1.03.17.04.24.04.08 0 .15-.03.2-.09v-.02a.6.6 0 0 1-.23-.44c-.01-.17.06-.32.2-.45a.68.68 0 0 1 .55-.13c.18.03.31.12.4.27.1.14.12.3.06.46a.6.6 0 0 1-.15.25.76.76 0 0 1-.24.14c-.03.01-.04.04-.05.09a10.93 10.93 0 0 1-.15.75 1.25 1.25 0 0 1-.02.15c-.05.2-.06.34-.04.42a4.88 4.88 0 0 1 .2.38c-.08.09-.18.17-.32.25-.01 0-.02.02 0 .03l.07.08c.18.27.33.56.44.87.08.2.14.48.2.82.03.28.03.55-.04.82-.06.28-.18.54-.37.78l-.06.07-.17.16-.3.23a4.15 4.15 0 0 1-1.3.48c-.65.11-1.29.13-1.92.05l-.13-.02c-.27-.04-.52-.1-.76-.17a3.3 3.3 0 0 1-.88-.43l-.24-.2c-.16-.17-.3-.37-.42-.6a2.27 2.27 0 0 1-.14-.8 3.82 3.82 0 0 1 .68-2.14c.02-.02.02-.04 0-.05l-.29-.18a.06.06 0 0 1-.02-.04v-.04l.04-.06c.08-.1.13-.18.14-.24.03-.09.03-.2 0-.35-.05-.27-.11-.54-.18-.8l-.05-.26a.05.05 0 0 0-.02-.04l-.24-.15-.1-.13-.07-.16a.57.57 0 0 1 .22-.57.63.63 0 0 1 .76-.03l.1.1.1.14.04.15c.01.06.02.11 0 .16a.72.72 0 0 1-.07.22.63.63 0 0 1-.16.18v.01c.17.15.42.1.75-.14.22-.16.43-.36.6-.59.2-.24.37-.5.54-.79l.04-.12h.01v-.02l-.03-.02c-.15-.2-.18-.4-.1-.6a.64.64 0 0 1 .29-.33c.13-.08.28-.1.43-.08.19.02.33.1.44.22.1.13.16.28.15.46 0 .04-.02.1-.06.18l-.02.08a.2.2 0 0 1-.04.06.24.24 0 0 0-.04.05v.03l.07.12Z" fill="#171C1A"/><path d="M9.2 3.81a.12.12 0 0 0-.12 0 .46.46 0 0 0-.1.06.42.42 0 0 1-.1.06.47.47 0 0 1-.42-.04c-.04-.03-.08-.02-.13.02a.43.43 0 0 1-.11-.34c.01-.1.06-.2.15-.27.09-.08.2-.12.31-.13.13-.01.25.02.36.1.17.13.22.3.15.54Z" fill="#FFE14C"/><path d="m8.52 3.3.17-.02c.03 0 .05 0 .07.02.02.02.03.04.02.07l-.01.07c0 .03-.03.05-.06.06l-.26.06c-.04 0-.07 0-.09-.04-.02-.03-.01-.06.01-.09l.1-.1a.08.08 0 0 1 .05-.02Z" fill="#FEF7CB"/><path d="M9.2 3.81a.63.63 0 0 1-.2.21c-.02.02-.03.04-.01.06h.02a.6.6 0 0 1-.56 0 .14.14 0 0 0-.03-.1.51.51 0 0 0-.09-.07c.05-.04.09-.05.13-.02.13.08.27.09.42.04l.1-.06a.46.46 0 0 1 .1-.07.12.12 0 0 1 .11.01Z" fill="#EA9008"/><path d="M10.97 4.66v.01l-.01.03c0 .09-.03.16-.12.22-.03.02-.08.03-.17.04h-.07c0 .01 0 .02-.02.02a1.96 1.96 0 0 1-.43.35 5.33 5.33 0 0 1-.83-1.12l.25.05h.14c.01 0 .02 0 .03-.02a.51.51 0 0 1 .2-.15.73.73 0 0 1 .27-.03c.22.01.37.11.43.3l.02.02.07.03c.08.03.13.06.15.08.05.04.07.1.09.17Z" fill="#3FBCE5"/><path d="M8.45 4.09c.19.09.37.09.56 0a7.05 7.05 0 0 0 .35.54l.04.13.07.1.09.15a.3.3 0 0 1 .02.17c-.02.16.03.29.17.38.03.01.08.03.17.04l.14.02c.04.02.07.05.08.09v.2l-.02.01c-.21-.01-.31.06-.29.21 0 .04.03.06.07.06.07 0 .15-.01.22-.05h.02v.02l-.04.46-.27-.01c-.08 0-.14-.03-.18-.08a20.82 20.82 0 0 0-.93-1.3l-.9 1.28a.21.21 0 0 1-.19.1l-.4.01a11.56 11.56 0 0 1-.98.04c-.02 0-.02 0-.01-.01v-.02c0-.1-.02-.2-.05-.28a3.28 3.28 0 0 1-.07-.42h-.01l-.02.01c-.01.17.02.33.07.5.02.03.03.07.03.11 0 .04 0 .08.02.12a.21.21 0 0 1-.1 0v.02c.27.02.48.03.62.01l.6-.05c.11.1.27.12.45.07.05-.01.1-.01.14 0 .08.03.15.04.22.04h1.34c.04 0 .08 0 .11-.03a.38.38 0 0 1 .1-.05v-.04c-.07-.04-.13-.04-.18 0l-.73-1a.05.05 0 0 0-.04-.03c-.01 0-.03 0-.04.02l-.74 1.01c0-.03.01-.06.03-.08l.02-.03.02-.05c.02-.06.04-.1.07-.12a.65.65 0 0 0 .07-.1.79.79 0 0 1 .05-.07.52.52 0 0 0 .07-.1c.05-.11.15-.24.28-.4.04-.06.12-.18.22-.37a16.53 16.53 0 0 0 .75 1.1l.07.1c.04.08.12.12.22.12l.8.05.43.01v.06h-.03l-.64.01-.08.03h-.03l-.28.02h-.1c-.07-.01-.12-.02-.15-.01l-.19-.01a126.85 126.85 0 0 0-3.41.07c-.02.01-.03 0-.04-.03l-.02-.09a57.56 57.56 0 0 0-.2-1.07l.14-.02s.02 0 .02.02c.02.09.08.16.19.2.09.05.19.07.3.06-.03.03-.02.06 0 .08l.11.04H6.88a3.92 3.92 0 0 0 .36-.23l.02-.04a3.16 3.16 0 0 0 .85-1.08l-.01-.03-.03-.01a21.48 21.48 0 0 0 .36-.6c.01 0 .02 0 .02.02Z" fill="#FFE14C"/><path d="M9.78 4.3c.05.12.14.14.25.06.06-.05.09-.1.08-.18l-.02-.02a.27.27 0 0 0-.13-.02c.35-.11.57-.02.67.27 0 .02.01.02.02.02.2.02.28.14.24.36-.02.06-.07.1-.17.1h-.24a.3.3 0 0 0-.19 0c-.15.05-.28.04-.38-.02a.38.38 0 0 1-.18-.24.43.43 0 0 1 .05-.34Z" fill="#BEE6F2"/><path d="M9.96 4.14c.05 0 .09 0 .13.02l.01.02a.17.17 0 0 1-.07.18c-.11.08-.2.06-.25-.07l.1-.1a.2.2 0 0 1 .08-.05Z" fill="#fff"/><path d="M8.17 4.18c-.17.29-.35.55-.53.8-.19.22-.39.42-.6.58-.34.24-.59.3-.76.14V5.7a.63.63 0 0 0 .16-.18.72.72 0 0 0 .08-.22v-.16a2.6 2.6 0 0 0-.05-.15l.15-.07c.35-.15.7-.27 1.04-.35.05-.01.08-.05.07-.1 0-.03-.01-.05-.05-.05-.07 0-.14 0-.2.03a11.33 11.33 0 0 0-1.11.4l-.1-.1a11.55 11.55 0 0 0 .62-.26l.13-.05c.09-.03.15-.05.2-.05l.22-.06a.92.92 0 0 1 .2-.05c.19-.01.37-.04.53-.09Z" fill="#7CCCE7"/><path d="m6.47 4.98-.1-.15a8.15 8.15 0 0 0 .45-.19l.65-.2a.67.67 0 0 1 .21-.03c.04 0 .05.02.05.05 0 .05-.02.09-.07.1a6.41 6.41 0 0 0-1.19.42Z" fill="#BEE6F2"/><path d="m9.36 4.63.2.3a5.58 5.58 0 0 0 .6.63c.14.11.25.2.34.24.13.08.27.12.4.14.11 0 .23 0 .33-.05.12-.06.2-.13.22-.23 0-.02.01-.03.03-.01.03.02.06.03.1.02h.02l.01.03-.21 1.01-.09-.02h.04c.02 0 .02 0 0 0l-.03-.02a16.23 16.23 0 0 0-.87-.03l-.35-.02.05-.46-.01-.02h-.02a.38.38 0 0 1-.22.05c-.04 0-.06-.02-.07-.06-.02-.15.08-.22.3-.2l.01-.02a.61.61 0 0 0 0-.2c-.01-.04-.04-.07-.08-.09a.69.69 0 0 0-.14-.02.46.46 0 0 1-.17-.04.35.35 0 0 1-.17-.38.3.3 0 0 0-.02-.17.98.98 0 0 0-.1-.15 1.17 1.17 0 0 1-.06-.1.52.52 0 0 1-.04-.13Z" fill="#FB1"/><path d="m10.97 4.66.01.02c.1 0 .16.04.2.1a.58.58 0 0 0-.2.45c0 .18.09.32.24.44v.02a.33.33 0 0 1-.21.1.7.7 0 0 1-.24-.05V5.7l.01-.03c.12-.08.14-.2.06-.33a.04.04 0 0 0-.04-.02c-.09-.01-.16 0-.21.04a.53.53 0 0 0-.11.16 7.4 7.4 0 0 1-.03.05l-.3-.24a1.96 1.96 0 0 0 .43-.35l.02-.01.03-.01h.04c.09 0 .14-.02.17-.04.09-.06.13-.13.12-.22v-.03Z" fill="#7CCCE7"/><path d="M6.54 5.94c.23-.03.43-.11.62-.26.35-.3.66-.63.9-1.01l.04.01v.03a.88.88 0 0 1-.13.3l-.15.2a3.16 3.16 0 0 1-.58.61 3.92 3.92 0 0 1-.36.23.37.37 0 0 1-.18.02h-.05a.24.24 0 0 1-.1-.05c-.03-.02-.04-.05-.01-.08Z" fill="#FEF7CB"/><path d="M6.35 5.27c-.05-.03-.08-.02-.1.01-.11.19-.27.25-.48.2l-.1-.05a.23.23 0 0 0-.16 0 .4.4 0 0 1 .13-.56c.1-.06.2-.09.32-.07.11.01.2.06.28.14.09.1.12.2.1.33ZM12.04 5.25c-.05 0-.11.05-.18.13-.07.1-.18.13-.32.11a.33.33 0 0 1-.12-.02c-.07-.05-.13-.06-.2-.02a.4.4 0 0 1 .01-.5v.15l.02.02h.02l.32-.05a.1.1 0 0 0 .1-.08l-.01-.03-.07-.12-.02-.02a.39.39 0 0 0-.14 0 .45.45 0 0 1 .34 0 .42.42 0 0 1 .25.43Z" fill="#FFE14C"/><path d="m11.45 4.81.14.01.02.02.07.12v.03a.1.1 0 0 1-.09.08 397.45 397.45 0 0 0-.34.05l-.02-.02v-.14a.44.44 0 0 1 .22-.15Z" fill="#FEF7CB"/><path d="M7.93 5.33c-.01.08.03.16.1.17.08.02.16-.04.17-.12.02-.09-.02-.17-.1-.18-.07-.02-.15.04-.17.13Z" fill="#FEC919"/><path d="M6.35 5.27a.44.44 0 0 1-.4.37.46.46 0 0 1-.44-.21.23.23 0 0 1 .17 0l.1.05c.2.05.36-.01.46-.2.03-.03.06-.04.1 0ZM12.04 5.25a.4.4 0 0 1-.07.2c-.04.05-.1.1-.16.13a.46.46 0 0 1-.32.04.43.43 0 0 1-.26-.17c.06-.04.12-.03.2.02 0 0 .04.02.1.02.15.02.26-.01.33-.1.07-.1.13-.14.18-.14Z" fill="#EA9008"/><path d="m8.8 5.32-.23.37c-.13.16-.23.29-.28.4a.52.52 0 0 1-.07.1.8.8 0 0 0-.05.07.65.65 0 0 1-.07.1.34.34 0 0 0-.07.12l-.02.05c0 .01 0 .02-.02.03-.02.02-.03.05-.03.08h1.55c.05-.04.1-.04.17 0 .02 0 .02.01.02.02s0 .02-.02.02a.38.38 0 0 0-.09.05.19.19 0 0 1-.1.03H8.13a.68.68 0 0 1-.22-.04.23.23 0 0 0-.14 0c-.18.05-.34.03-.45-.07l.32-.01c.1 0 .17-.04.2-.1a5.38 5.38 0 0 1 .41-.59l.09-.12.13-.19.1-.15.14-.22h.02c.02 0 .04.02.05.05Z" fill="#FEF7CB"/><path d="m10.77 5.74-.32-.17.03-.05a.53.53 0 0 1 .1-.16c.06-.04.13-.05.22-.04.02 0 .03 0 .04.02.08.14.06.25-.06.33a.03.03 0 0 0-.01.03v.04Z" fill="#3FBCE5"/><path d="m5.3 5.34.05.16c-.24.18-.44.38-.59.58-.2.28-.36.5-.45.68a3.34 3.34 0 0 0-.33 1c0 .01.02.03.04.03.06 0 .1-.02.1-.07.08-.23.16-.46.26-.7a6.02 6.02 0 0 1 .48-.8c.15-.18.35-.38.6-.59l.24.15.02.04.05.26c-.03-.02-.05-.06-.06-.12 0-.02-.02-.02-.03-.03-.1-.01-.18.01-.23.09-.08.14-.1.27-.06.4.04.1.1.2.19.25.04.02.06.05.07.08l.08.33a1 1 0 0 1 .03.18c0 .08.02.15.05.21l-.04.06v.04c0 .02 0 .03.02.04l.29.18c.02.01.02.03 0 .04a3.82 3.82 0 0 0-.68 2.14c0 .32.06.59.14.8-.03.16-.02.32.03.49a5 5 0 0 1 .09.41c0 .04.03.1.06.19l.06.15.04.07a.2.2 0 0 1 .03.07c.04.22.16.31.35.28a.1.1 0 0 1 .08.02c.06.05.13.1.2.13.27.12.54.21.82.28l.01.2c0 .08.01.15.03.18.06.13.16.2.3.2.24.01.36-.13.34-.43.48.02.87.02 1.18 0a4.7 4.7 0 0 0 1.48-.37l.46-.15v.05c.01.12.03.2.06.23a.4.4 0 0 0 .15.1c.07.04.13.04.18.02.1-.05.18-.12.22-.22a.55.55 0 0 0 .03-.21c0-.14 0-.26.03-.37a2.2 2.2 0 0 0 .38-1.68c0-.03-.02-.03-.04-.01l-.02.03c.07-.27.07-.54.03-.82a4.19 4.19 0 0 0-.19-.82 4.3 4.3 0 0 0-.51-.98c.14-.08.24-.16.32-.25a7.77 7.77 0 0 0 .16-.76.41.41 0 0 1 .12-.13.53.53 0 0 0 .2-.6c-.03-.11-.1-.18-.18-.21a.74.74 0 0 0-.3 0c.02-.05.03-.08.06-.1l.04-.01c.1-.05.17-.09.2-.12a.6.6 0 0 0 .15-.25l.27.26A4.84 4.84 0 0 1 13.8 8.3l-.02.01v.02c.13.01.25.05.37.1a1.4 1.4 0 0 1 .7 1.24c0 .13 0 .26-.02.38a.7.7 0 0 1-.18.4h-.1c-.02-.04-.04-.06-.09-.05a.15.15 0 0 0-.07.02c-.15.1-.27.18-.37.23a.86.86 0 0 1-.36.07c-.1 0-.23-.03-.37-.08h-.09a.04.04 0 0 0-.02.03v.03c.1.1.2.18.32.24a4.57 4.57 0 0 1-2.66 2.67 4.9 4.9 0 0 1-1.41.34 5.69 5.69 0 0 1-2.44-.24c-.27-.09-.53-.2-.77-.33a3.73 3.73 0 0 1-1.04-.75c.15-.13.25-.3.28-.5a1 1 0 0 0-.04-.38.31.31 0 0 0-.2-.24.08.08 0 0 1-.04-.07.26.26 0 0 0-.1-.17.7.7 0 0 0-.17-.11c-.15-.08-.31-.06-.48.05l-.01.03.01.03-.03.02c-.1.08-.17.15-.19.21-.03.1-.05.2-.05.3 0 .09.02.18.06.28l.01.01.1.04c.04.05.08.08.14.09h.51c.03 0 .04-.02.05-.04l.07-.15a.06.06 0 0 1 .06-.04c.09-.01.15-.04.2-.09.02.14.01.26-.04.38l-.14.2-.02.02-.25.08a.78.78 0 0 0-.33-.06c-.06 0-.16-.01-.31-.05-.04 0-.09.01-.13.07a.63.63 0 0 1-.3-.25c-.16-.23-.2-.45-.17-.65l.1-.3a.96.96 0 0 1 .41-.44c.01 0 .01 0 0 0 0-.01 0-.01 0 0l-.26.1c-.08-.14-.14-.3-.16-.47.34.06.62-.02.86-.23a.08.08 0 0 0 .02-.04c0-.02 0-.03-.02-.02l-.16.07a.9.9 0 0 1-.63.07.74.74 0 0 1-.37-.21 1.22 1.22 0 0 1-.33-.63l-.01-.07c-.04-.15-.01-.37.09-.66.03-.1.1-.2.19-.34.07-.1.16-.19.27-.26a2.36 2.36 0 0 1 .35-.19h-.09c-.08.05-.15.07-.21.05v-.06c.02-.06.05-.15.07-.28l.07-.24a4.65 4.65 0 0 1 1-1.75c.01-.03.03-.04.04-.05.11-.14.25-.26.4-.36Z" fill="#7CCCE7"/><path d="m5.35 5.5.1.13a3.96 3.96 0 0 0-1.32 2.09c-.02.05-.05.07-.1.07-.03 0-.04-.02-.05-.04a.8.8 0 0 1 .07-.35l.03-.11c.05-.14.12-.32.23-.53.1-.17.24-.4.45-.68.15-.2.35-.4.6-.58Z" fill="#fff"/><path d="M9.51 6.65H7.96l.74-1.02a.05.05 0 0 1 .04-.02c.02 0 .03 0 .04.02l.73 1.02Z" fill="#CD6D06"/><path d="M9.1 6.6a.9.9 0 0 1-.16-.29.15.15 0 0 0-.03-.04.16.16 0 0 1-.04-.05c-.03-.1-.08-.18-.14-.26l-.02-.01H8.7a2 2 0 0 0-.08.14l-.1.17a.88.88 0 0 0-.07.12l-.05.09a.5.5 0 0 0-.06.13H8.1v-.03a5.94 5.94 0 0 0 .21-.3 1 1 0 0 0 .12-.16.62.62 0 0 1 .06-.1 1.76 1.76 0 0 0 .19-.26.21.21 0 0 1 .04-.07.05.05 0 0 1 .04 0l.03.01a7.37 7.37 0 0 0 .62.87c.03.04.02.05-.03.05l-.26-.01Z" fill="#FFE14C"/><path d="M7.76 6.06c.07 0 .13-.06.13-.13a.13.13 0 0 0-.13-.12.13.13 0 0 0-.13.12c0 .07.05.13.13.13Z" fill="#FEC919"/><path d="M11.74 7.56a4.93 4.93 0 0 0-.2-.38c-.02-.08 0-.22.04-.42l.02-.15.03-.15.12-.6a.74.74 0 0 1 .3 0c.08.03.14.1.17.2a.53.53 0 0 1-.2.61c-.06.05-.1.1-.12.13a7.77 7.77 0 0 1-.16.76ZM5.78 6.08l.17.8c.03.14.03.26 0 .35a.76.76 0 0 1-.14.24.59.59 0 0 1-.05-.2 1 1 0 0 0-.03-.19 7.43 7.43 0 0 1-.08-.33c0-.03-.03-.06-.07-.08a.47.47 0 0 1-.19-.26c-.04-.12-.02-.25.06-.4.05-.07.12-.1.23-.08l.03.03c.01.06.03.1.07.12Z" fill="#3FBCE5"/><path d="M6.25 6.66h-.04a.8.8 0 0 1-.02-.11.47.47 0 0 0-.03-.12 1.25 1.25 0 0 1-.07-.49c0-.01 0-.02.02-.02l.01.01a6.86 6.86 0 0 1 .07.42 2.26 2.26 0 0 1 .05.3c-.01 0-.01 0 0 0l.01.01Z" fill="#EA9008"/><path d="M9.1 6.6h-.77a.5.5 0 0 1 .06-.13l.05-.1.07-.11.1-.17a2 2 0 0 1 .1-.14h.02c.06.09.1.17.14.27l.04.05.03.04c.04.1.1.2.17.29Z" fill="#FEC919"/><path d="M5.18 6.97a.16.16 0 0 1-.11-.05.15.15 0 0 1-.05-.1c0-.05.01-.1.05-.12a.16.16 0 0 1 .1-.05c.05 0 .1.01.13.04s.04.07.04.12c0 .04-.01.08-.04.11a.16.16 0 0 1-.12.05Z" fill="#3FBCE5"/><path d="M5.16 6.87a.1.1 0 0 0 .1-.1.1.1 0 0 0-.1-.09.1.1 0 0 0-.1.1c0 .05.05.09.1.09Z" fill="#BEE6F2"/><path d="m11.31 6.7.09.01-.03.15A12.2 12.2 0 0 1 10 6.82l.28-.01.03-.01a.16.16 0 0 1 .08-.03 49.06 49.06 0 0 0 .66-.01V6.7h.26Z" fill="#FEC919"/><path d="m10 6.82.33.02c.23.02.58.02 1.04.02v.06a16.32 16.32 0 0 1-1.43-.06h-.17c-.06.02-.11.02-.15.02a2.82 2.82 0 0 1-.19-.02 36.45 36.45 0 0 0-2.3.02l-.31.01-.61.03c-.03 0-.05 0-.06-.02v-.04a40.8 40.8 0 0 0 1.88-.08 1470 1470 0 0 1 1.53.02h.19l.15.01.1.01Z" fill="#CD6D06"/><path d="M9.62 6.88h.15c.02.01.03.02.03.05v.04c0 .06-.01.1-.04.12.04-.1.04-.16-.01-.17a.4.4 0 0 0-.2.01c-.02.01-.05.03-.08.07a.49.49 0 0 1-.03.04l-.01.03c0 .06.04.1.1.1-.07.04-.1.13-.06.28a11.63 11.63 0 0 1-2.15-.06 2.18 2.18 0 0 0-.04-.18.6.6 0 0 0-.04-.11.73.73 0 0 1-.05-.1.48.48 0 0 0-.05-.12 9.75 9.75 0 0 1 .84-.03 36.4 36.4 0 0 1 1.64.03Z" fill="#FFE14C"/><path d="M11.38 6.92a.78.78 0 0 0 0 .33 96.52 96.52 0 0 0-.85.13 48.99 48.99 0 0 1-.58.03l-.48.04c-.04-.15-.01-.24.06-.28a.4.4 0 0 0 .09 0l.07-.04a.33.33 0 0 1 .07-.04c.03-.02.04-.06.04-.12a.4.4 0 0 1 0-.04c0-.03 0-.04-.03-.04l-.15-.01.15-.01a1.33 1.33 0 0 1 .3 0h.26c.35.03.7.04 1.05.05Z" fill="#FB1"/><path d="m7.14 6.88.05.11.05.11a.6.6 0 0 1 .04.11l.04.18-.38-.01-.12-.27c-.02-.04-.02-.11 0-.22l.32-.01Z" fill="#fff"/><path d="M6.82 6.9c-.02.1-.01.17 0 .2l.12.28-.66-.1a4.47 4.47 0 0 0-.05-.35l-.02-.01.61-.03Z" fill="#FEC919"/><path d="m6.15 6.9.06.02h.02l.01.03.04.32c-.1.01-.15-.01-.14-.07a1.86 1.86 0 0 0 0-.3Z" fill="#FEF7CB"/><path d="M9.76 7.1a.33.33 0 0 0-.07.03.16.16 0 0 1-.07.04.4.4 0 0 1-.09 0c-.06 0-.1-.04-.1-.1v-.03c.02 0 .03-.02.04-.04.03-.04.06-.06.09-.07a.4.4 0 0 1 .19 0c.05 0 .05.06 0 .16Z" fill="#fff"/><path d="m9 6.96.04-.02h.05l.01.01c.06.03.1.08.11.13.02.06.01.11-.02.16a.2.2 0 0 1-.13.08.25.25 0 0 1-.18-.03.06.06 0 0 1-.03-.1L9 6.97ZM8.2 7.3l-.08-.02c-.05 0-.07-.04-.07-.09v-.06c0-.04.03-.06.07-.08l.05-.02a.1.1 0 0 1 .09 0c.02.02.04.04.04.07l.02.1c0 .04 0 .06-.03.09a.1.1 0 0 1-.09.02Z" fill="#FB1"/><path d="M6.14 7.2c-.01.06.04.08.14.07l.66.1.38.02a11.63 11.63 0 0 0 2.63.03 10.78 10.78 0 0 1 .8-.06l.62-.11.01.06-.76.1a4.46 4.46 0 0 1-.27.02 59.43 59.43 0 0 1-1.05.06l-.4.02a11.98 11.98 0 0 1-1.6-.08 3.59 3.59 0 0 0-.37-.01l-.33-.04c-.1-.04-.2-.05-.3-.05l-.18-.05a.16.16 0 0 0 .02-.08Z" fill="#CD6D06"/><path d="M6.3 7.33c-.06.01-.07.04-.04.08l.07.04.1.01c.1.02.16-.01.17-.08l.33.04.07.08a.2.2 0 0 0 .03.07l.07.03c-.27 0-.53-.04-.79-.1a1.53 1.53 0 0 0-.29-.03l.1-.19.17.05Z" fill="#FFE14C"/><path d="m11.38 7.3.12.2h-.02l-.03-.02c-.11 0-.22 0-.32.03-.25.06-.47.09-.67.09a4.41 4.41 0 0 0-.44.02l-.33.03c-.11.01-.22.02-.33.01.1-.04.2-.06.32-.06h.24a5.38 5.38 0 0 0 .58-.1.5.5 0 0 1 .1-.04l.02-.01v-.03l.76-.11Z" fill="#FB1"/><path d="M6.6 7.38c0 .07-.07.1-.18.08l-.1-.01a.11.11 0 0 1-.06-.04c-.03-.04-.02-.07.03-.08.1 0 .2.01.31.05ZM8.9 7.5h.14c.02 0 .04.02.04.04v.02l-.06.03c-.56.01-1.06 0-1.48-.03-.07 0-.12 0-.16.04l-.02.01h-.03L7.1 7.6a.19.19 0 0 1-.07-.03A.2.2 0 0 1 7 7.5a.23.23 0 0 0-.07-.08 6.5 6.5 0 0 0 .36.01 27.74 27.74 0 0 0 1.61.08Z" fill="#FEF7CB"/><path d="M10.62 7.42v.03l-.02.01a.5.5 0 0 0-.1.04 5.39 5.39 0 0 1-.81.1.82.82 0 0 0-.33.06c-.28.03-.57.04-.86.03a29.29 29.29 0 0 1-1.17-.07h.03l.02-.02c.04-.03.1-.05.16-.04a13 13 0 0 0 1.48.03l.06-.03v-.02c0-.02-.02-.03-.04-.03H8.9a20.92 20.92 0 0 1 .98-.04 59.35 59.35 0 0 0 .74-.05Z" fill="#FFE14C"/><path d="M6.02 7.47a3.94 3.94 0 0 0 .29.03c.26.06.52.1.8.1l.22.02h.02c.38.04.77.06 1.15.07.3 0 .58 0 .86-.03h.33a6.6 6.6 0 0 1 .77-.06c.2 0 .42-.03.67-.09.1-.02.2-.03.32-.03.02 0 .03.01.03.02a.15.15 0 0 1-.08.03c-.11 0-.21.02-.3.04-.11.03-.2.05-.26.05a7.22 7.22 0 0 1-.55.03l-.29.03-.89.04h-.86a20.76 20.76 0 0 0-.95-.06 3.49 3.49 0 0 0-.41-.03c-.18 0-.35-.02-.49-.06a.75.75 0 0 0-.18-.03A.85.85 0 0 1 6 7.5l.02-.03Z" fill="#CD6D06"/><path d="M6 7.5c.08.03.15.04.22.04.08 0 .14.01.18.03.14.04.3.06.49.06l.4.03.3.03c.22 0 .44.02.66.04-.07 0-.12 0-.15.03l-.01.08c0 .02 0 .03.02.04l.04.02c.05-.01.08-.03.09-.05l.01-.05h.02l.3.02a5.4 5.4 0 0 0 .58-.06l-.04-.04.89-.04c.01.03.04.06.08.08.04.02.07.06.08.1v.13l-.01.02-.42.06c-.2.04-.4.07-.6.07-.3 0-.6.02-.9.04a7.44 7.44 0 0 1-1.9-.4l-.35-.24v-.02L6 7.5Z" fill="#FB1"/><path d="m11.5 7.5.01.03-.01.03-.34.23c-.18.07-.35.13-.53.18a8.4 8.4 0 0 1-2.4.2l.9-.03c.2 0 .4-.03.6-.07a4.16 4.16 0 0 1 .43-.08v-.13a.15.15 0 0 0-.08-.1.18.18 0 0 1-.08-.08 12.95 12.95 0 0 0 .58-.04l.26-.02c.06 0 .15-.02.25-.05.1-.02.2-.04.31-.04.03 0 .05 0 .08-.03h.02ZM9.11 7.72l.04.04-.01.02a5.4 5.4 0 0 1-.89.02v.05l-.02-.04-.02-.02-.11-.03c.03-.02.08-.03.15-.03h.86Z" fill="#FFE14C"/><path d="M8.24 7.85c-.01.02-.04.04-.09.04h-.04a.05.05 0 0 1-.02-.05v-.08l.11.03c.01 0 .02 0 .02.02l.02.04Z" fill="#FEF7CB"/><path d="M8.24 8.18a8.1 8.1 0 0 0 2.4-.21c.17-.05.35-.1.52-.18l.08.07a2.39 2.39 0 0 1-.71.25 3.1 3.1 0 0 1-.25.05l-.25.05c-.07.02-.18.04-.34.04l-.2.02-.42.05h-.38c-.13 0-.25 0-.38-.02a5.76 5.76 0 0 1-2.05-.44.3.3 0 0 0 .08-.08 7.44 7.44 0 0 0 1.9.4Z" fill="#129CB7"/><path d="M6.27 7.86a3.1 3.1 0 0 1 .3.1.3.3 0 0 1 .07.02 5.76 5.76 0 0 0 1.67.32 4.27 4.27 0 0 0 1.38-.05c.16 0 .27-.02.35-.04l.24-.05.25-.05.34-.1c.07-.01.2-.06.37-.15l.15.22c.41.65.6 1.31.58 2-.02.35-.12.67-.31.94a.54.54 0 0 0-.2.12 2.1 2.1 0 0 1-.44.34 4.28 4.28 0 0 1-2.01.56c-.02 0-.02.01-.02.03h.02c-.38.02-.75 0-1.12-.04a3.71 3.71 0 0 1-1.4-.46 1.74 1.74 0 0 1-.87-1.1c.12-.04.23-.1.33-.17.04.04.1.06.17.05-.03.2.05.36.24.48.18.18.39.32.63.41a5.15 5.15 0 0 0 2.3.3c.31-.05.6-.12.86-.2a3.06 3.06 0 0 0 1.15-.66c.08-.1.1-.2.06-.33a.42.42 0 0 0-.14-.19c.05-.34.06-.68.02-1.01a2.24 2.24 0 0 0-.13-.46c-.01-.04-.04-.05-.07-.04l-.6.18c-.03.01-.05 0-.07-.02a1.51 1.51 0 0 1-.16-.44.1.1 0 0 0-.05-.07.12.12 0 0 0-.1-.01 1.9 1.9 0 0 1-.44.08 9.88 9.88 0 0 1-.74.02A9.99 9.99 0 0 1 7.5 8.3a1.35 1.35 0 0 0-.2-.04 2.85 2.85 0 0 1-.8-.21l-.3-.1.07-.09ZM4.82 7.94l-.06.03a.1.1 0 0 0-.05.12l.03.08a.1.1 0 0 0 .13.05l.06-.02a.1.1 0 0 0 .05-.12L4.95 8a.1.1 0 0 0-.13-.06Z" fill="#3FBCE5"/><path d="m6.2 7.96.3.09.13.04a.5.5 0 0 1 .1.04l.09.04c.18.04.34.08.47.09l.2.04.2.04a9.99 9.99 0 0 0 1.93.03c.13 0 .28-.03.45-.08h.1a.1.1 0 0 1 .04.08c.03.16.09.3.16.44.02.02.04.03.07.02l.6-.18c.03 0 .06 0 .07.04.07.2.11.34.13.46.04.33.03.67-.02 1.01-.2-.12-.4-.1-.55.05a.34.34 0 0 0-.1.2.37.37 0 0 0 .4.43l.16-.02-.04.03-.16.12c-.27.18-.53.3-.78.38a6.59 6.59 0 0 1-1.5.22A5.15 5.15 0 0 1 7 11.24c-.24-.1-.45-.23-.63-.41.1.03.21.03.31 0a.35.35 0 0 0 .16-.12.4.4 0 0 0 .08-.36.33.33 0 0 0-.11-.17.5.5 0 0 0-.41-.1h-.03a5.98 5.98 0 0 1 0-1.27h.04c.18.06.36.1.54.1.15.02.26-.03.34-.14a.04.04 0 0 0 0-.04.35.35 0 0 0-.19-.15 6.88 6.88 0 0 1-.61-.26.6.6 0 0 0 0-.22.07.07 0 0 0-.04-.05c-.12-.05-.2-.02-.25.09a13.66 13.66 0 0 0-.15.37 2.24 2.24 0 0 1-.08.33 5 5 0 0 0-.01 1.46c-.1.07-.21.13-.33.17-.02-.1-.04-.2-.04-.3a3.47 3.47 0 0 1 .62-2.21Z" fill="#90D1E9"/><path d="M12.87 8.76c-.1 0-.2-.03-.27-.1a.38.38 0 0 1-.12-.28c0-.1.03-.2.1-.28a.36.36 0 0 1 .26-.12c.1 0 .2.03.27.1.08.08.12.17.12.28 0 .1-.03.2-.1.28a.36.36 0 0 1-.26.12ZM3.76 10.54a1.6 1.6 0 0 0-.16-.1 1 1 0 0 1-.44-.42 1.47 1.47 0 0 1 .14-1.56c.1-.13.22-.24.38-.32l.04-.06c.06.02.13 0 .21-.04h.09c.01 0 .01 0 0 0-.15.07-.27.12-.35.18a.98.98 0 0 0-.27.26 1.5 1.5 0 0 0-.28 1 11.02 11.02 0 0 1 .1.35c.07.14.15.25.24.35.11.11.24.18.37.21a.9.9 0 0 0 .63-.07l.16-.07c.02-.01.03 0 .02.02l-.02.04a.97.97 0 0 1-.86.23Z" fill="#2CB2D3"/><path d="M6.35 10.08v.02a.75.75 0 0 0-.24.25c-.07 0-.12-.01-.17-.05a5 5 0 0 1 .14-1.93l.1-.23c.06-.1.14-.14.26-.1.02.02.04.03.04.06a.6.6 0 0 1 0 .22 6.88 6.88 0 0 0 .61.26c.08.03.14.08.19.15v.04c-.08.11-.2.16-.34.15a2.19 2.19 0 0 1-.54-.11h-.04a5.98 5.98 0 0 0 0 1.27ZM12.8 8.04h.08l.03.02v.03l-.06.12a.08.08 0 0 1-.06.04l-.08-.01a.2.2 0 0 0-.06-.03c-.01 0-.02-.02-.01-.03l.04-.09a.3.3 0 0 1 .13-.05Z" fill="#fff"/><path d="m12.68 8.1-.04.08.01.03a.2.2 0 0 1 .06.03c.02.01.05.02.08.01.03 0 .05-.02.06-.04l.06-.12v-.03l-.03-.01-.07-.01a.3.3 0 0 1 .21.03.3.3 0 0 1 .02.51.3.3 0 0 1-.27.04.3.3 0 0 1-.2-.34.29.29 0 0 1 .11-.19Z" fill="#BEE6F2"/><path d="M13.8 8.3c.17 0 .35.05.52.16.16.1.29.21.39.36.13.2.22.43.27.7.02.13.03.27 0 .4 0 .12-.04.25-.1.4a1.08 1.08 0 0 1-1 .73.66.66 0 0 1-.26-.04 1.02 1.02 0 0 1-.43-.3l-.01-.03c0-.01 0-.02.02-.03h.09c.15.05.27.08.38.08.11 0 .23-.02.35-.07.1-.05.23-.12.37-.23a.15.15 0 0 1 .07-.02c.05 0 .07.01.08.06l-.09.07a3.91 3.91 0 0 1-.38.24.83.83 0 0 1-.24.07 3.56 3.56 0 0 0-.08.02h.27c.13 0 .25-.04.37-.12.1-.08.2-.17.26-.29a.7.7 0 0 0 .18-.4l.02-.37c0-.4-.12-.73-.4-1.02a1.08 1.08 0 0 0-.67-.34l.02-.02Z" fill="#2CB2D3"/><path d="M4.01 8.66c.02.2-.05.3-.2.31L3.73 9l-.03.07c-.04.24-.03.48.02.7a.1.1 0 0 1-.06 0l-.01-.03-.02-.23c-.02-.14-.01-.31.02-.52 0-.07.05-.14.14-.23a.33.33 0 0 1 .22-.1Z" fill="#fff"/><path d="M4.66 9.29c-.12.02-.26-.02-.42-.11a.05.05 0 0 0-.04 0c-.09.02-.14.06-.14.12-.01.07 0 .13.01.2l.03.01.23.03c.06 0 .08.04.08.1a.4.4 0 0 1-.05.1.23.23 0 0 1-.1.05.5.5 0 0 1-.34.03l-.19-.05s-.01 0 0 0a1.74 1.74 0 0 1-.03-.7c0-.04.02-.06.03-.08l.08-.02c.15-.01.22-.11.2-.31.07 0 .14.01.2.04a.2.2 0 0 1 .06.04l.05.05.02.02.03.22.02.03h.04c.11-.05.19-.02.24.08v.15Z" fill="#BEE6F2"/><path d="M14.35 9.51h-.13c-.02 0-.04 0-.04-.02v-.06c0-.1 0-.16-.02-.2a.64.64 0 0 0-.23-.32.41.41 0 0 0-.38-.07.57.57 0 0 0-.26.15.54.54 0 0 0-.09.17l-.02.05-.02.01h-.02a.44.44 0 0 0 .07-.13.44.44 0 0 1 .16-.22c.2-.15.4-.16.62-.05.07.04.12.08.16.12.13.16.2.35.2.57Z" fill="#2CB2D3"/><path d="M14.35 9.51c.1.02.14.07.15.15.01.11 0 .2-.03.28l-.17.04a.36.36 0 0 1-.17 0c-.02-.02-.04 0-.05.02a.4.4 0 0 1-.2.25.5.5 0 0 1-.35.02l-.1-.02-.02-.02a.6.6 0 0 1-.03-.04.31.31 0 0 0-.08-.1h-.03l-.14-.01a.5.5 0 0 1-.14-.35v-.16c0-.05.02-.1.04-.15l.06-.18c.02 0 .04 0 .07-.02l.02-.01.02-.05a.54.54 0 0 1 .1-.17.57.57 0 0 1 .25-.15.41.41 0 0 1 .38.07c.1.08.18.18.23.32l.02.2v.06c0 .02.02.03.04.03l.13-.01Z" fill="#BEE6F2"/><path d="M13.41 9.1c-.07.12-.05.26.05.32.1.05.24 0 .31-.13.08-.12.05-.26-.05-.32-.1-.05-.24 0-.31.13Z" fill="#fff"/><path d="M5.03 9.49v-.15l-.02-.29c0-.05 0-.05.04 0a.4.4 0 0 1 .04.1c.1.27.03.54-.18.82 0 .02-.01.02-.02 0a.04.04 0 0 1 0-.03c.01-.05.03-.1.06-.14a.9.9 0 0 0 .08-.31Z" fill="#2CB2D3"/><path d="M7.1 10.14a.4.4 0 0 1-.32-.15.53.53 0 0 1-.13-.36c0-.14.04-.26.13-.36a.4.4 0 0 1 .63 0c.08.1.13.22.13.36 0 .14-.05.26-.13.36a.4.4 0 0 1-.32.15ZM10.44 10.14a.4.4 0 0 1-.3-.15.53.53 0 0 1-.14-.36c0-.14.04-.26.13-.36a.4.4 0 0 1 .62 0c.09.1.13.22.13.36 0 .14-.04.26-.13.36a.4.4 0 0 1-.3.15Z"/><path d="M4.66 9.29c.01.15-.02.26-.1.3a.3.3 0 0 1-.1.05H4.4c0-.06-.02-.1-.08-.1-.09 0-.16-.02-.23-.03-.02 0-.02 0-.03-.02a.42.42 0 0 1-.01-.2c0-.05.05-.1.14-.12h.04c.17.1.3.14.42.12Z" fill="#90D1E9"/><path d="M10.3 9.38c0 .1.06.19.13.19s.13-.09.13-.19-.06-.18-.13-.18-.13.08-.12.18ZM7 9.4c0 .1.06.18.12.18.07 0 .12-.09.12-.2 0-.1-.06-.18-.13-.18-.06 0-.12.09-.11.2Z" fill="#7CCCE7"/><path d="m13.1 9.24-.07.18a.45.45 0 0 0-.04.15v.16c0 .13.05.24.14.35-.04 0-.07 0-.08-.02a.47.47 0 0 1-.12-.3v-.03c-.02-.22 0-.36.06-.4a.3.3 0 0 0 .06-.06l.03-.02h.01Z" fill="#fff"/><path d="m3.73 9.77.2.05c.09.03.19.02.3-.01a.4.4 0 0 1 .06.12l-.01.03a.62.62 0 0 1-.34.03c-.14-.02-.2-.1-.21-.22ZM14.47 9.94a.2.2 0 0 1-.17.16c-.07.01-.13.04-.15.07a.33.33 0 0 1-.1.1.58.58 0 0 1-.52.02v-.02a.5.5 0 0 0 .35-.02.4.4 0 0 0 .2-.25c.01-.03.03-.04.05-.03h.01c.07.02.12.02.16.01.05 0 .1-.02.17-.04Z" fill="#3FBCE5"/><path d="M6.36 10.83c-.19-.12-.27-.27-.25-.48a.75.75 0 0 1 .24-.26h.04a.5.5 0 0 1 .41.1c.05.04.1.1.11.16.02.06.02.12 0 .19a.4.4 0 0 1-.08.17.35.35 0 0 1-.16.11c-.1.04-.2.04-.31 0ZM11.22 10.16c.06.05.1.11.14.19.04.12.02.23-.06.33-.05.06-.1.1-.17.14l-.16.02a.37.37 0 0 1-.37-.22.37.37 0 0 1-.03-.2.34.34 0 0 1 .1-.2c.16-.16.34-.18.55-.06Z" fill="#FCC9AD"/><path d="M9.43 10.25c.03-.01.06 0 .09.01l.02.05a.92.92 0 0 1-.28.6.74.74 0 0 1-.64.17.66.66 0 0 1-.44-.27c-.1-.13-.17-.3-.2-.48 0-.03.01-.05.03-.07a.07.07 0 0 1 .07 0l.2.07a1.33 1.33 0 0 0 .91.01l.24-.1Z"/><path d="M11.77 12.09a.4.4 0 0 1-.03-.15 14.74 14.74 0 0 0-.02-.73 1.83 1.83 0 0 0 .39-.81c.02-.02.03-.02.03 0 .1.65-.02 1.2-.37 1.69Z" fill="#2CB2D3"/><path d="m8.85 10.53-.02.15c0 .02-.01.04-.03.04a.6.6 0 0 0-.2.03.62.62 0 0 0-.19.14.75.75 0 0 1-.29-.49c.26.1.5.14.73.13Z" fill="#EA84A5"/><path d="M8.41 10.89a.62.62 0 0 1 .18-.14.6.6 0 0 1 .2-.03c.03 0 .04-.02.04-.04l.02-.15a2.2 2.2 0 0 0 .53-.14c.01 0 .02 0 .01.02a.78.78 0 0 1-.24.44.56.56 0 0 1-.36.13.63.63 0 0 1-.38-.1Z" fill="#FAC5D2"/><path d="M14.65 10.46a.88.88 0 0 1-.26.29.68.68 0 0 1-.37.13 4.29 4.29 0 0 1-.27 0v-.01c.02 0 .05 0 .08-.02.1-.01.19-.03.24-.06a3.94 3.94 0 0 0 .38-.25l.1-.07c.04-.02.08-.02.1 0Z" fill="#BEE6F2"/><path d="M12.75 10.64c0 .1.07.17.16.17.08 0 .16-.07.16-.16 0-.1-.07-.18-.16-.18-.08 0-.15.08-.16.17Z" fill="#3FBCE5"/><path d="M5.96 11.37a.62.62 0 0 0-.01.27c-.02.17-.02.32 0 .45 0 .07.02.13.07.18.06.05.11.06.18.05.07-.02.12-.08.14-.17a.3.3 0 0 0-.05-.26.44.44 0 0 0-.05-.07.26.26 0 0 1-.09-.17c0-.04.02-.06.05-.07.28.19.57.33.88.43.24.07.49.13.76.17l.04.31-.16-.16a.61.61 0 0 0-.32-.05l-.04-.15c0-.01 0-.02-.02-.02l-.02.01-.01.03v.71a4.5 4.5 0 0 1-1.03-.4.1.1 0 0 0-.08-.03c-.19.03-.3-.06-.35-.28a.2.2 0 0 0-.03-.07.23.23 0 0 1-.04-.07l-.05-.15a1 1 0 0 1-.07-.19 5 5 0 0 0-.1-.41 1.01 1.01 0 0 1-.02-.49c.12.24.26.44.42.6ZM4.14 12.55c.09.05.18.08.27.1h.3c.06 0 .13-.02.2-.06l.25-.08.02-.02.14-.2a.61.61 0 0 0 .03-.38v-.1a.4.4 0 0 0-.02-.16c-.03-.05-.08-.08-.17-.1a.03.03 0 0 1-.03-.03.49.49 0 0 0-.42-.35c-.1-.01-.16.01-.2.08a.23.23 0 0 0-.08.03c-.01 0-.02-.02-.01-.03l.01-.03c.17-.11.33-.13.48-.05a.7.7 0 0 1 .18.1c.05.06.08.12.09.18 0 .04.02.06.05.07.1.05.17.13.2.24v.04c.03.15.04.27.03.34a.79.79 0 0 1-.28.5c-.05.01-.13.05-.24.1a1 1 0 0 1-.49.06 1 1 0 0 1-.75-.45.87.87 0 0 1-.15-.44 1.1 1.1 0 0 1 .25-.77.38.38 0 0 1 .06-.06.26.26 0 0 0 .06-.07 4.44 4.44 0 0 0 .26-.1.96.96 0 0 0-.4.43c-.05.1-.08.2-.1.3-.05.21 0 .43.16.66.07.12.17.2.3.25Z" fill="#2CB2D3"/><path d="m11.66 11.02-.1.12a9.25 9.25 0 0 1-.4.36 3.92 3.92 0 0 1-2.17.57c0-.02 0-.03.02-.03h.19l.44-.08a3.7 3.7 0 0 0 1.38-.48c.15-.09.3-.2.43-.34a.54.54 0 0 1 .2-.12ZM5.35 11.91c-.04.05-.1.08-.2.1a.06.06 0 0 0-.05.03l-.07.15c0 .02-.02.03-.05.04a2.4 2.4 0 0 1-.5 0 .17.17 0 0 1-.14-.09.3.3 0 0 0-.04-.1.4.4 0 0 1-.04-.11 1.97 1.97 0 0 1-.03-.23c0-.05.01-.06.05-.03.06.06.13.05.2 0s.12-.11.15-.19c.06-.13.02-.2-.12-.23.04-.07.1-.1.2-.08.21.03.35.15.42.35 0 .01.01.02.03.02.09.03.14.06.17.11a.4.4 0 0 1 .02.17v.1Z" fill="#BEE6F2"/><path d="m11.72 11.2.03.16-.01.58c0 .04 0 .1.03.15-.03.11-.04.23-.03.37 0 .1-.01.17-.03.21a.43.43 0 0 1-.22.22c-.05.02-.11.02-.18-.01a.4.4 0 0 1-.15-.11c-.03-.04-.05-.11-.05-.23v-.05a26.36 26.36 0 0 1 0-.77.23.23 0 0 1 .07-.05c.03.21.03.37.02.46a1.9 1.9 0 0 0-.01.42c0 .08.05.14.12.18.08.04.16.03.24-.02a.25.25 0 0 0 .12-.2.6.6 0 0 0 0-.2v-1.03l.05-.07Z" fill="#129CB7"/><path d="M4.5 11.25c.15.02.2.1.13.23a.46.46 0 0 1-.14.18c-.08.06-.15.07-.21.01-.04-.03-.06-.02-.05.03l.03.23.04.1a.3.3 0 0 1 .04.11l-.1-.04-.02-.01a.65.65 0 0 1-.06-.28c0-.1.02-.2.05-.3.02-.06.08-.13.2-.21a29.17 29.17 0 0 0 .1-.05Z" fill="#fff"/><path d="M11.66 11.28v1.04c-.07.05-.12.05-.15 0a.53.53 0 0 1-.04-.29l.02-.59.17-.16Z" fill="#90D1E9"/><path d="m5.96 11.37.24.2c-.03.02-.05.04-.05.08 0 .06.03.12.09.17l.05.07a.3.3 0 0 1 .05.26c-.02-.02-.05 0-.09.03a.15.15 0 0 1-.07.04c-.07.01-.12-.01-.14-.08a.34.34 0 0 1-.02-.17c.02-.11.02-.23 0-.34 0-.03-.02-.04-.04-.03l-.02.01-.01.03a.62.62 0 0 1 0-.27Z" fill="#7CCCE7"/><path d="m11.5 11.44-.04.6c0 .12.01.21.05.27.03.06.08.06.15 0a.6.6 0 0 1 .01.2c0 .09-.05.15-.12.2-.08.05-.16.06-.24.02a.22.22 0 0 1-.12-.18c-.01-.1 0-.25.01-.42.01-.1 0-.25-.01-.46l.3-.23Z" fill="#3FBCE5"/><path d="M6.34 12.15c-.02.1-.07.15-.14.17a.18.18 0 0 1-.18-.05.27.27 0 0 1-.08-.18v-.45l.02-.03.02-.01c.02-.01.04 0 .04.03.02.11.02.23 0 .34 0 .06 0 .12.02.17.02.07.07.1.14.08l.07-.04c.04-.04.07-.05.09-.03Z" fill="#90D1E9"/><path d="M11.12 11.72a26.35 26.35 0 0 0-.01.77 52.4 52.4 0 0 1-.85.28c-.38.13-.75.2-1.1.23-.3.03-.7.03-1.18.01.05-.28.04-.55 0-.81.62.08 1.26.06 1.9-.05.44-.08.85-.23 1.24-.43Z" fill="#2CB2D3"/><path d="m7.4 12.28-.01.36c-.01.17-.02.34-.01.51 0 .08.02.14.07.2.04.05.1.07.18.05a.7.7 0 0 0 .13-.03c.05-.02.08-.05.09-.08a.84.84 0 0 0 .03-.25v-.55l-.04-.31.13.02c.05.26.06.53.01.81.02.3-.1.44-.34.43a.32.32 0 0 1-.3-.2.5.5 0 0 1-.03-.19v-.2a4.4 4.4 0 0 0 0-.7l.01-.03h.05l.03.16Z" fill="#129CB7"/><path d="M7.72 12.33a12.44 12.44 0 0 0-.02.84c-.03.04-.1.05-.19.01l-.02-.38a.22.22 0 0 0-.1-.16v-.36a.6.6 0 0 1 .33.05Z" fill="#BEE6F2"/><path d="M7.88 12.5v.54c0 .1-.01.18-.03.25-.02.03-.04.06-.09.08a.71.71 0 0 1-.13.03l.02-.01.01-.02v-.02a.03.03 0 0 0-.02-.02c-.09-.01-.13-.06-.13-.15.1.04.16.03.19-.01l.02-.14v-.7l.16.16Z" fill="#7CCCE7"/><path d="M4.91 12.6a.53.53 0 0 1-.2.06l-.3-.01a.74.74 0 0 1-.27-.1c.04-.06.09-.08.13-.07.15.04.25.05.3.05.15 0 .26.03.34.06Z" fill="#BEE6F2"/><path d="M7.51 13.18c0 .09.04.14.13.15 0 0 .02 0 .02.02v.02l-.01.02-.02.01a.17.17 0 0 1-.19-.06.3.3 0 0 1-.06-.19v-.51c.07.04.1.1.1.16l.03.38Z" fill="#fff"/><path d="M10.49 13.34c0 .06-.03.1-.08.15a.25.25 0 0 1-.17.05.25.25 0 0 1-.17-.06.19.19 0 0 1 0-.3c.06-.04.11-.06.18-.05.07 0 .12.02.17.06.05.04.07.1.07.15Z" fill="#2CB2D3"/><path d="M10.21 13.48a.6.6 0 0 0 0-.28c.07-.04.13-.03.18.03.02.03.03.08.02.13-.02.1-.09.14-.2.12Z" fill="#7CCCE7"/><path d="M10.21 13.2a.6.6 0 0 1 0 .28c-.06 0-.1 0-.13-.04s-.04-.08-.03-.13c.01-.08.07-.11.16-.11Z" fill="#fff"/></svg>