<!-- by TradingView --><svg width="18" height="18" viewBox="0 0 18 18" xmlns="http://www.w3.org/2000/svg"><path fill="url(#a)" d="M0 0h18v18H0z"/><path d="M14.62 6.93c-.2.35-.49.6-.85.77-.87.4-1.8.71-2.8.96a5.43 5.43 0 0 1-1.2.13l-.2-.51c.22.28.42.4.82.34.36-.04.72-.1 1.07-.19.17-.04.37-.1.5-.17a7 7 0 0 1 .74-.33c.16-.06.81-.34.83-.5v-.05a.08.08 0 0 0-.05-.03c-.15-.05-.32 0-.5.04-.75.16-1.45.26-1.8.35-.23.06-.47.14-.72.18-.23.04-.43.05-.64.16a.04.04 0 0 1-.04 0l-.01-.01c-.1-.16-.22-.34-.45-.34-.08-.15-.13-.31-.22-.46a1.7 1.7 0 0 0-.32-.38c-.03-.03-.06-.04-.1-.02-.04.02-.03.03.02.05.04 0 .08.03.12.08a3.84 3.84 0 0 1 .66 1.25l.07.17c.08.21.15.46.21.74a7.9 7.9 0 0 1-1.7.42.5.5 0 0 0-.36-.3h-.01v-.03c.18-.2.16-.4-.04-.58.32-.15.65-.28.98-.42.09-.04.14-.08.15-.1C8.85 8 8.51 8 8.45 8c-.86.02-1.73.27-2.58.41-.55.1-1.1.13-1.43.55-.17.22-.18.55.08.72.17.1.32.04.5-.02.13-.04.32-.08.43-.08.35-.02.69-.06 1.02-.13.08.23.14.46.16.7-.76.19-1.46.3-2.25.21-1.01-.1-1.32-.77-1.03-1.58.28-.43.68-.75 1.19-.93.15-.06.35-.12.58-.17l3.32-.74c.04 0 .1-.03.19-.07.17-.08.35-.11.58-.16l2.58-.58c.33-.08.61-.14.92-.13.5.01.95.15 1.36.42.22.14.4.31.55.5Z" fill="#FD6C2A"/><path d="m9.32 7.73.23.54.34.94h.02c.46-.05.79-.1 1-.14.8-.17 1.63-.4 2.48-.67a7.44 7.44 0 0 0 1.36-.61l.05-.31c0-.03 0-.03.02 0l.08.18h.01a.45.45 0 0 0 0-.19l.07.3v.25c0 .02-.01.02-.03.03l-.33.08a.31.31 0 0 0-.13.07l-.1.1a.61.61 0 0 1-.17.11c-.48.23-.98.41-1.5.54-.8.2-1.51.38-2 .48a11.31 11.31 0 0 1-.75.12l-.18-.51v-.01h-.02l-.01.02v.1a7.23 7.23 0 0 0-.2-.73l-.08-.17A3.84 3.84 0 0 0 8.82 7a.26.26 0 0 0-.12-.08c-.05-.02-.06-.03-.01-.05.03-.02.06-.01.09.02.14.13.23.24.32.38.09.15.14.3.22.46Z" fill="#E14E14"/><path d="M14.91 7.47v.19h-.01l-.08-.19c-.01-.02-.02-.02-.02 0l-.05.32-.01.02c-.47.26-.92.46-1.35.6-.85.26-1.68.49-2.48.66a12.65 12.65 0 0 1-1.02.14l-.34-.94h.02l.2.52.02.01c.43 0 .82-.05 1.19-.14 1-.25 1.92-.56 2.79-.96.36-.16.65-.42.85-.77.14.17.23.35.29.54Z" fill="#F05E25"/><path d="m9.57 8.28-.02-.01-.23-.54c.23 0 .36.18.45.34a.04.04 0 0 0 .03.01h.01c.22-.11.42-.12.65-.16.24-.04.49-.12.73-.18.34-.09 1.04-.19 1.78-.35.19-.04.36-.09.51-.04.02 0 .03.02.04.03.01.02.02.04.01.05-.02.16-.67.44-.83.5a7 7 0 0 0-.74.33c-.13.07-.33.13-.5.17-.35.08-.71.15-1.07.2-.4.04-.6-.07-.82-.35Z" fill="#FD7846"/><path d="M15 8.14c-.26.33-.59.57-.97.74a8.2 8.2 0 0 1-1.17.38l-1.96.47a7.44 7.44 0 0 1-.9.11l-.1-.34-.01-.01a.02.02 0 0 0-.02 0h-.01v.02a16.9 16.9 0 0 0 .01.32c-.68.17-1.38.29-2.09.35.25-.14.34-.34.28-.6.6-.1 1.16-.2 1.7-.42v-.11l.01-.02h.02l.18.52c.36-.04.6-.09.75-.12.49-.1 1.2-.29 2-.48.52-.13 1.02-.3 1.5-.54a.6.6 0 0 0 .16-.11l.1-.1a.31.31 0 0 1 .14-.07 122.22 122.22 0 0 1 .35-.1l.01-.26.02.37Z" fill="#D34005"/><path d="M7.65 8.67a.7.7 0 0 0-.55-.1l-.88.2c-.04.02-.05.04-.03.07.12.2.21.4.28.61-.33.07-.67.11-1.02.13-.1 0-.3.04-.44.08-.17.06-.32.12-.5.02-.25-.17-.24-.5-.07-.72.33-.42.88-.45 1.43-.55.85-.14 1.72-.4 2.58-.41.06 0 .4 0 .33.14-.01.03-.06.07-.15.1l-.98.43Z" fill="#FD7846"/><path d="M15 8.14c0 .19-.04.36-.1.53-.38.26-.8.45-1.29.58-.59.17-1.14.31-1.64.43-.4.1-.81.21-1.14.28-.2.05-.43.09-.71.12-.18.02-.55.15-.8.2-.74.14-1.33.26-1.77.36-.56.12-1.22.32-1.69.43-.62.16-1.29.2-1.86-.03-.47-.18-.75-.5-.98-.9L3 9.84c.05.15.14.3.27.45.58.66 1.44.74 2.3.54.4-.09.77-.2 1.1-.35.32-.07.6-.13.83-.2.1-.02.18-.06.28-.1a13.38 13.38 0 0 0 2.1-.38 16.99 16.99 0 0 1-.01-.32.02.02 0 0 1 .02 0l.12.35.01.01c.41-.04.7-.08.88-.12l1.96-.47c.4-.1.85-.24 1.17-.38.38-.17.7-.41.97-.74Z" fill="#B52D01"/><path d="M7.65 8.67c.2.18.22.38.04.58v.03c.19.04.3.14.37.3.06.26-.03.46-.28.6-.1.05-.19.09-.28.11-.23.07-.5.13-.83.2-.03-.1-.04-.22-.04-.34a3.24 3.24 0 0 0-.44-1.3c-.02-.04-.01-.06.03-.07l.88-.21a.7.7 0 0 1 .55.1Z" fill="#27242D"/><path d="M14.9 8.67c-.17.47-.48.85-.93 1.13h-.43c-.14 0-.33.03-.56.08-.67.16-1.3.32-1.86.5-.2.05-.42.11-.57.13l-1 .15c-.83.15-1.36.23-2.07.42l-1.43.38c-.63.17-1.33.2-1.92-.02-.33-.12-.6-.32-.84-.56a1.62 1.62 0 0 1-.27-.75c.23.4.51.73.98.91.57.24 1.24.19 1.86.03.47-.11 1.13-.3 1.69-.43.44-.1 1.03-.22 1.77-.36.25-.05.62-.18.8-.2.28-.03.52-.07.71-.12.33-.07.74-.19 1.14-.28.5-.12 1.05-.26 1.64-.43.48-.13.91-.32 1.3-.58Z" fill="#8B1401"/><path d="M3.35 8.78c-.29.81.02 1.47 1.03 1.58.79.08 1.49-.02 2.25-.21 0 .12.01.24.04.34-.33.15-.7.26-1.1.35-.86.2-1.72.12-2.3-.54-.13-.15-.22-.3-.27-.45.02-.4.13-.75.35-1.07Z" fill="#D34005"/><path d="M6.84 9.3 6.71 9a.02.02 0 0 1 0-.01h.01v-.01l.38-.1c.08-.01.2-.03.27.02.1.07.13.22 0 .28a10.26 10.26 0 0 1-.53.12Z" fill="#FD7846"/><path d="M5.11 9.34c.12-.03.2-.13.16-.21-.02-.08-.14-.13-.26-.1-.11.04-.18.13-.16.21.03.09.15.13.26.1Z" fill="#FFFEFE"/><path d="M6.92 9.64h.01l.47-.12a.3.3 0 0 1 .18.01l.07.06c.02.02.04.04.04.06l.01.04c.02.05 0 .1-.03.15a.27.27 0 0 1-.15.1l-.46.11h-.01l-.13-.4Z" fill="#F05E25"/><path d="M13.97 9.8c-.28.18-.61.29-.95.37l-2.45.65c-.23.06-.46.1-.68.14-.17.02-.32.05-.43.09a93.46 93.46 0 0 1-2.36.6c-.04 0-.1.03-.17.07l-.8.2c-.33.06-.65.1-.97.07a2.51 2.51 0 0 1-1.87-1.1c.25.23.51.43.84.55.59.21 1.3.19 1.92.02l1.43-.38c.7-.19 1.24-.27 2.08-.42l.99-.15c.15-.02.38-.08.57-.14.57-.17 1.19-.33 1.86-.49.23-.05.42-.08.56-.08h.43Z" fill="#6A0301"/><defs><linearGradient id="a" x1="3.35" y1="3.12" x2="21.9" y2="24.43" gradientUnits="userSpaceOnUse"><stop stop-color="#1A1E21"/><stop offset="1" stop-color="#06060A"/></linearGradient></defs></svg>