<!-- by TradingView --><svg width="18" height="18" viewBox="0 0 18 18" xmlns="http://www.w3.org/2000/svg"><path fill="#F0F3FA" d="M0 0h18v18H0z"/><path d="M13.95 8.34c.13.34 0 .72-.3.96L11.65 11a.74.74 0 0 0-.45-.15c-.14 0-.22.1-.34.15.1-.22.15-.52.15-.77 0-1-.95-1.84-2-1.84s-2 .84-2 1.84c0 .25.05.55.15.77-.12-.05-.22-.15-.35-.15-.18 0-.3.07-.44.15L4.34 9.28c-.29-.24-.42-.63-.29-.97A5.25 5.25 0 0 1 9 5c2.28 0 4.23 1.4 4.95 3.34Z" fill="#92C9EE"/><path d="M9.67 11c.2-.21.33-.52.33-.85C10 9.5 9.55 9 9 9s-1 .51-1 1.15c0 .34.13.64.33.85.14-.26.39-.45.67-.45s.53.19.67.45Z" fill="#347EB8"/><path d="M9.96 9.83a1.1 1.1 0 0 1-.36.06c-.47 0-.88-.3-1.08-.75A.9.9 0 0 1 9 9c.46 0 .84.35.96.83Z" fill="#63A3D3"/><path d="m11 11.53-1.59 1.32c-.24.2-.58.2-.81 0L7 11.52c.1-.1.27-.22.42-.22.13 0 .3.1.46.2.16.1.3.2.41.2.1 0 .17-.08.26-.16.1-.11.23-.24.45-.24.21 0 .34.13.45.24.08.08.15.15.25.15s.26-.1.41-.19c.16-.1.33-.2.46-.2.16 0 .33.13.43.23Z" fill="#347EB8"/></svg>