<!-- by TradingView --><svg width="18" height="18" viewBox="0 0 18 18" xmlns="http://www.w3.org/2000/svg"><path fill="url(#a)" d="M0 0h18v18H0z"/><path d="M14.38 11.98a.35.35 0 0 1-.49.12l-.3-.2a.38.38 0 0 1-.13-.5 5.14 5.14 0 0 0 .46-1.18c.05-.2.23-.33.43-.3l.36.07c.2.03.33.22.28.42a6.22 6.22 0 0 1-.6 1.57Zm.27-4.25c.2-.04.32-.24.26-.43a6.2 6.2 0 0 0-.68-1.54.35.35 0 0 0-.5-.1l-.3.21a.38.38 0 0 0-.09.51c.22.37.39.76.51 1.16.06.2.25.31.45.27l.35-.08Zm-2.67-4.11c.18.1.23.32.12.49l-.2.3a.38.38 0 0 1-.5.13 5.13 5.13 0 0 0-1.18-.46.38.38 0 0 1-.3-.43l.07-.36c.03-.2.22-.33.42-.28a6.2 6.2 0 0 1 1.57.6ZM7.3 3.09c.2-.06.39.06.43.26l.08.35c.04.2-.08.39-.27.45-.4.12-.8.3-1.16.51-.17.1-.4.06-.5-.1l-.22-.3a.35.35 0 0 1 .1-.49c.48-.3 1-.53 1.54-.68ZM4.1 5.9a.35.35 0 0 0-.48.12A6.2 6.2 0 0 0 3 7.59c-.05.2.09.39.28.42l.36.06c.2.04.38-.1.43-.29a5.13 5.13 0 0 1 .46-1.18c.1-.18.04-.4-.13-.5l-.3-.2ZM3.1 10.7a.35.35 0 0 1 .26-.43l.35-.08c.2-.04.39.08.45.27.12.4.3.8.51 1.16.1.17.06.4-.1.5l-.3.22a.35.35 0 0 1-.49-.1c-.3-.48-.53-1-.68-1.54Zm2.93 3.68a.35.35 0 0 1-.12-.49l.2-.3c.1-.17.32-.22.5-.13a5.13 5.13 0 0 0 1.18.46c.2.05.33.23.3.43l-.07.36a.35.35 0 0 1-.42.28 6.22 6.22 0 0 1-1.57-.6Zm4.68.53a.35.35 0 0 1-.43-.26l-.08-.35a.38.38 0 0 1 .27-.45c.4-.12.8-.3 1.16-.51.17-.1.4-.06.5.1l.22.3c.11.16.07.39-.1.49-.48.3-1 .53-1.54.68Z" fill="#FDFAFB"/><path fill-rule="evenodd" d="M9 6c.07 0 .13.03.16.09l1.7 2.9 1.86-1.2a.19.19 0 0 1 .2 0c.06.04.09.11.08.18l-.58 3.01-.2-.04A15.5 15.5 0 0 0 9 10.59a10.2 10.2 0 0 0-3.2.52l-.2.07L5 7.98a.17.17 0 0 1 .08-.19.19.19 0 0 1 .2 0L7.13 9l1.71-2.9c.03-.06.1-.09.16-.09ZM6.95 9.3l-1.52-.98.44 2.39c.24-.08.57-.17.97-.25a.67.67 0 0 1-.1-.1.58.58 0 0 1-.1-.53l.01-.02.3-.51Zm.59 1.04c.28-.04.58-.07.89-.09L7.26 9.5l-.27.45c-.01.05-.01.13.04.2.06.07.2.16.51.2Zm1.28-.26-1.38-.9 1.38-2.34v3.24Zm.76.17c.37.01.73.04 1.05.07.24-.03.33-.11.36-.17a.26.26 0 0 0 .02-.2l-.27-.45-1.16.75Zm.98-1.06L9.18 6.84v3.24l1.38-.9Zm.49.1.3.52v.02a.6.6 0 0 1-.1.57c.36.05.66.1.88.15l.43-2.23-1.51.98Z" fill="#FDFAFB"/><path d="M9 10.94c-1.16 0-2.67.51-3.27.77l.16.18c.12.12.3.14.45.07A6.3 6.3 0 0 1 9 11.29c1.1 0 2.12.4 2.66.67.15.07.33.05.45-.07l.16-.18c-.6-.26-2.1-.77-3.27-.77Z" fill="#FDFAFB"/><defs><linearGradient id="a" x1="9" y1="0" x2="9" y2="18" gradientUnits="userSpaceOnUse"><stop stop-color="#01A1F3"/><stop offset="1" stop-color="#008EDB"/></linearGradient></defs></svg>