<!-- by TradingView --><svg width="18" height="18" viewBox="0 0 18 18" xmlns="http://www.w3.org/2000/svg"><path fill="#00C454" d="M0 0h18v18H0z"/><path d="M4.71 12.71c.2.16.52.27.82.34l.02.01.01.03v.9h.01a.02.02 0 0 0 .02 0 30.26 30.26 0 0 1 1.4-.9c.06-.04.14-.09.2-.09h5.04c.31 0 .57 0 .84-.15.6-.35.92-.91.93-1.68v-.81l-.01-.02h-.63c-.68 0-1.03-.18-1.3-.6-.57-.85 0-2.05.97-2.07h.96v-.01l.01-.02v-.79c-.01-.4-.1-.73-.3-1.06-.29-.43-.67-.7-1.15-.77-.1-.01-.4-.02-.9-.02H5.88c-.24 0-.42.01-.54.04a1.5 1.5 0 0 0-.52.22c-.39.27-.64.63-.76 1.1-.04.17-.06.48-.06.95v3.9c0 .31.07.6.2.86.12.26.3.47.51.64ZM13.75 9c0 .37-.3.67-.66.67a.66.66 0 0 1-.65-.67c0-.37.3-.67.65-.67.37 0 .66.3.66.67Z" fill="#fff"/></svg>