<!-- by TradingView --><svg width="18" height="18" viewBox="0 0 18 18" xmlns="http://www.w3.org/2000/svg"><path fill="#F0F3FA" d="M0 0h18v18H0z"/><path d="M8.77 3H9.2A6 6 0 0 1 15 8.75V9.18a5.99 5.99 0 0 1-2.1 4.38 5.95 5.95 0 0 0-.18-.37 1.7 1.7 0 0 0-.67-.67 2.07 2.07 0 0 0-.54-.14c.24-.19.43-.4.58-.65.12-.21.2-.45.22-.7.02-.31 0-.62-.07-.91-.1-.37-.2-.72-.34-1.04-.06-.14-.1-.27-.13-.38-.1-.4-.13-.72-.22-1.28a7.1 7.1 0 0 0-.16-.73 1.9 1.9 0 0 0-.3-.66c-.17-.21-.38-.4-.64-.57a3.94 3.94 0 0 0-1.7-.6c-.21-.02-.42-.01-.61.04a3.13 3.13 0 0 0-1.99 1.68 4.07 4.07 0 0 0-.36 1.9l.09 1.75c.03.52.07.97.11 1.34.04.28.1.6.24.86.05.1.13.18.23.24v.02c-.2.11-.38.24-.51.4-.13.14-.22.3-.27.47l-.03.2-.02.21A5.97 5.97 0 0 1 3 9.23a.1.1 0 0 0 0-.06v-.34A5.98 5.98 0 0 1 8.75 3h.02Z" fill="#4F63AC"/><path d="M11.4 4.35a5.3 5.3 0 0 0-7.66 4.27 5.24 5.24 0 0 0 1.78 4.37c.05.04.06.1.03.16l-.02.02a.12.12 0 0 1-.14.01A5.46 5.46 0 0 1 3.9 6.91a5.53 5.53 0 0 1 10.52 3.1c-.2 1.06-.67 2-1.43 2.81-.05.06-.11.06-.17.02-.06-.06-.07-.11-.02-.17a5.21 5.21 0 0 0-1.42-8.32Z" fill="#31458C"/><path d="M12.9 13.55A6 6 0 0 1 9.18 15h-.33a6 6 0 0 1-3.21-1.04l.02-.2c0-.1.02-.16.03-.2.05-.18.14-.34.27-.48.13-.16.3-.29.5-.4.02 0 .02 0 0-.02a.67.67 0 0 1-.22-.24c-.14-.26-.2-.58-.23-.86-.05-.37-.1-.82-.12-1.34l-.09-1.76c-.03-.64.08-1.31.36-1.9A3.13 3.13 0 0 1 8.14 4.9c.2-.05.4-.06.6-.04.63.07 1.2.27 1.71.6.26.17.47.36.63.57.14.19.25.41.31.66.08.29.13.53.16.73.09.56.13.88.22 1.28.03.11.07.24.13.38.14.32.25.67.34 1.04.07.3.1.6.07.9-.02.26-.1.5-.22.7a2.38 2.38 0 0 1-.58.66l.01.01c.19.02.36.06.53.13a1.7 1.7 0 0 1 .67.67l.19.37Z" fill="#31458C"/><path d="M7.7 9.92a.05.05 0 0 0-.04-.05.74.74 0 0 1-.5-.76c.02-.14.14-.22.28-.19l.03.02c.04.04.05.08.1.07.1 0 .11-.11.05-.17V8.8a.8.8 0 0 0 .14-.38l.01-.03c.66-.38 1.2-.87 1.62-1.47.08-.12.16-.26.24-.44.06-.13.1-.27.1-.44 0-.05-.03-.08-.09-.1-.06 0-.09.03-.1.08a82.29 82.29 0 0 0-.02.25c-.07.2-.17.41-.32.61a4.8 4.8 0 0 1-1.84 1.53c-.05.02-.06.05-.04.1.02.05.06.07.1.05a.42.42 0 0 0 .1-.04c.04-.02.05-.01.03.02a1.2 1.2 0 0 1-.1.18h-.02c-.19 0-.32.07-.4.2a.56.56 0 0 0-.04.39c.05.28.2.5.45.65l.02.02a14.25 14.25 0 0 0 .2 1.5 1.9 1.9 0 0 0 .22.6l-.03.22-.01.01a2.1 2.1 0 0 0-1.02.18.33.33 0 0 1-.16.04.33.33 0 0 1-.25-.17c-.14-.23-.2-.53-.23-.8-.05-.33-.08-.65-.1-.98a95.2 95.2 0 0 1-.11-2.14c-.02-.67.1-1.35.41-1.94A2.92 2.92 0 0 1 8.3 5.03c.12-.02.26-.02.42 0 .62.06 1.2.28 1.73.63.2.15.39.32.54.53l.16.32c.07.2.12.4.17.6a14.81 14.81 0 0 1 .15 1 6.65 6.65 0 0 0-1.53-1.98c-.05-.04-.1-.04-.13 0-.04.04-.04.09 0 .13l.45.45a6.73 6.73 0 0 1 .79 1.05c-.25 0-.49.06-.72.16-.05.02-.07.06-.05.11.02.06.06.07.11.05.26-.1.52-.15.76-.15.01 0 .02 0 .03.02.07.13.11.26.12.38.02.41 0 .8-.06 1.14-.04.2-.14.44-.29.68a4.1 4.1 0 0 1-1.01 1.08H9.9c-.29-.07-.59-.15-.9-.25a3.8 3.8 0 0 1-.95-.46c-.2-.15-.35-.35-.36-.6Z" fill="#fff"/><path d="M11.01 8.45c.01.12-.02.21-.1.27a.21.21 0 0 1-.3-.01c-.06-.08-.08-.17-.06-.29h-.02a.6.6 0 0 0-.15.14c-.03.04-.07.05-.12.02-.05-.04-.06-.08-.02-.13.08-.1.18-.19.3-.25.19-.1.37-.1.53.05.05.04.09.1.03.17a.07.07 0 0 1-.07.02l-.02.01ZM9.22 8.63l-.02.01c.05.14.04.26-.03.36-.04.04-.1.07-.17.08a.19.19 0 0 1-.15-.06c-.08-.07-.1-.17-.08-.3h-.02c-.14.07-.28.16-.4.29-.04.03-.08.03-.12 0-.05-.05-.05-.1 0-.13.25-.25.66-.5 1.03-.42.15.04.08.23-.04.17Z" fill="#31458C"/><path d="M10.52 12.11c-.02-.14-.06-.4-.27-.32h-.01v-.1c.23-.14.4-.29.54-.43.17-.2.25-.44.24-.74l.02-.13a5.47 5.47 0 0 1 .22-.52 1.73 1.73 0 0 0 .14-.5 6.3 6.3 0 0 0 .07-.84l.35.85c.13.3.23.65.24.99a1.7 1.7 0 0 1-.59 1.37 2.3 2.3 0 0 1-.77.44l-.16-.05a.02.02 0 0 1-.02-.02Z" fill="#fff"/><path d="M10.11 9.57a.07.07 0 0 0 .02-.05c0-.12-.01-.24-.05-.36-.02-.05 0-.09.05-.1.06-.02.1 0 .11.04.05.15.07.3.06.43 0 .07-.04.16-.1.2a.08.08 0 0 1-.1-.02c-.04-.04-.04-.09.01-.14ZM10.4 10.06a.37.37 0 0 1-.15.11l-.18.04a3.75 3.75 0 0 1-.56.05.05.05 0 0 1-.02-.04v-.02c0-.04.02-.06.05-.06.23-.02.44-.05.65-.1.06-.01.1-.04.16-.07a.05.05 0 0 1 .07.02v.03a.1.1 0 0 1-.02.04Z" fill="#31458C"/><path d="m8.21 10.81-.08.58a.01.01 0 0 1-.02 0 .65.65 0 0 1-.2-.32 2.52 2.52 0 0 1-.08-.55c0-.01 0-.02.01 0 .1.1.22.18.36.26l.01.03ZM10.22 11.2a4.32 4.32 0 0 0 .62-.62c0 .2-.06.38-.18.53-.09.12-.23.24-.42.36h-.01l-.01-.25v-.01Z" fill="#4F63AC"/><path d="M9.95 11.87c-.47.1-.97.15-1.44.06a1.3 1.3 0 0 1-.3-.1l-.02-.03a7.72 7.72 0 0 0 .16-.86l1.63.9a.01.01 0 0 1 0 .02l-.03.01Z" fill="#fff"/></svg>