<!-- by TradingView --><svg width="18" height="18" viewBox="0 0 18 18" xmlns="http://www.w3.org/2000/svg"><path fill="#F0F3FA" d="M0 0h18v18H0z"/><circle cx="9" cy="9" r="5" fill="#FFC72A"/><path fill-rule="evenodd" d="M9 13.41A4.41 4.41 0 1 0 9 4.6a4.41 4.41 0 0 0 0 8.82ZM9 14A5 5 0 1 0 9 4a5 5 0 0 0 0 10Z" fill="#050826"/><path d="m7.12 10.36-.04-.19c0-.02 0-.02-.01 0l-.03.14a1 1 0 0 1-.24-.61 16.58 16.58 0 0 0-.04-.3 1.49 1.49 0 0 1-.06.2.02.02 0 0 1-.02-.01c-.28-.51-.2-.98.13-1.44a.04.04 0 0 0 0-.04.9.9 0 0 1-.13-.2c-.12-.37-.07-1.03.46-1 .02 0 .03-.02.04-.03a.73.73 0 0 1 .3-.44.33.33 0 0 0 .1-.1c.22-.41.43-.68.95-.7h.93c.43.02.71.25.89.64.04.1.1.14.18.2.14.1.23.24.27.4 0 .02.01.03.03.03.18-.02.3.04.38.18.2.35.19.69-.04 1.02a.04.04 0 0 0 0 .05c.05.09.13.2.17.3.17.37.15.74-.04 1.12-.02.04-.04.04-.05 0a.93.93 0 0 0-.04-.17c-.02-.04-.03-.04-.02 0 .03.33-.06.63-.25.9l-.04.02c-.02 0-.03 0-.02-.03a.4.4 0 0 0 .03-.15l-.01-.01-.01-.01h-.01a.47.47 0 0 0-.02.16c0 .16-.14.4-.23.5-.1.12-.12.1-.07-.02l-.02-.13c0-.02 0-.02-.01 0-.04.11-.08.3-.15.43-.09.15-.2.28-.34.37h-.02l-.01-.01v-.01a.36.36 0 0 0 .04-.16c0-.03-.01-.04-.03 0a.85.85 0 0 1-.43.44.03.03 0 0 1-.03 0l-.01-.04c0-.04-.01-.04-.03 0-.1.25-.28.48-.52.66-.02.02-.03.02-.05 0a1.7 1.7 0 0 1-.51-.68c-.01-.04-.02-.04-.03 0l-.01.04a.02.02 0 0 1-.01.02.02.02 0 0 1-.02 0 .96.96 0 0 1-.43-.45h-.01l.03.17v.01a.02.02 0 0 1-.03 0c-.27-.19-.42-.43-.45-.73-.01-.11-.03-.11-.04 0v.15c0 .03-.02.03-.04.01a1.2 1.2 0 0 1-.28-.5Z" fill="#08071E"/><path d="M8.74 5.76c.05.06.11.1.17.15.07.04.15.04.23.05.06 0 .08.03.08.08-.13.02-.28.03-.44 0-.06 0-.1.01-.14.05-.01.02-.01.02.01.02.07 0 .14 0 .21.04a.5.5 0 0 0 .25.02.1.1 0 0 0 .05-.02c.04-.03.09-.04.14-.02v.07c-.16.06-.27.08-.32.07-.12-.02-.35-.1-.46-.05a1.67 1.67 0 0 0-.26.15.01.01 0 0 0 .02.01c.2-.07.4-.05.6.05.27.13.45.03.7 0 .07-.02.13 0 .2.03a.02.02 0 0 1 0 .04l-.07.06H9.7v.02h.01c.2-.04.39-.07.6-.09.2.13.3.33.32.6.02.33.05.57.11.74.06.17.28.35.36.5.15.26.2.53.14.82 0 .02 0 .03-.02 0-.1-.16-.18-.34-.31-.47-.04-.04-.05-.03-.03.02.12.39.18.73.07 1.1-.02.04-.03.04-.04 0a1.38 1.38 0 0 0-.3-.52l-.1-.18.04-.07c.11.04.19.09.24.15.05.08.08.07.07-.03l-.07-.56c.04-.11.02-.17-.07-.2-.06-.09-.18-.25-.14-.37a.7.7 0 0 0 0-.38c.03-.38-.14-1.07-.65-.98-.08 0-.16.07-.23.1l-.04-.01c-.13-.16-.3-.2-.5-.15-.06.02-.15.06-.23.04-.1-.03-.17-.07-.28-.06a.44.44 0 0 0-.34.16.05.05 0 0 1-.07.01c-.44-.33-.78.15-.83.54a.96.96 0 0 1 .34-.83c.02-.02.02-.03 0-.03h-.03c.2-.07.21-.09.05-.07l.38-.48c.17-.1.36-.14.6-.12Z" fill="#A6573A"/><path d="M10.3 6.5a3.23 3.23 0 0 0-.6.08v-.02l.08-.06a.02.02 0 0 0 0-.04.28.28 0 0 0-.2-.04c-.25.04-.43.14-.7 0 .1 0 .18 0 .26-.03l.25-.06c.1 0 .19.02.27.05.07.03.08.02.02-.03a.67.67 0 0 0-.37-.15l-.01-.07h.04c.02 0 .03-.01.01-.03a.31.31 0 0 0-.13-.06c0-.05-.02-.07-.08-.08-.08-.01-.16 0-.23-.05a1.36 1.36 0 0 1-.17-.15c.1 0 .21.03.31.01.46-.08.97.08 1.16.54a.04.04 0 0 1-.02.04H10.07a.02.02 0 0 0-.02.02v.02h.02c.1 0 .17.04.24.1Z" fill="#692F24"/><path d="m8.15 5.88-.38.48a.63.63 0 0 1 .38-.48Z" fill="#FFC72A"/><path d="M9.22 6.04c.06.01.1.03.13.06.02.02.01.03 0 .03H9.3a.18.18 0 0 0-.14.02.1.1 0 0 1-.05.02.5.5 0 0 1-.25-.02.42.42 0 0 0-.2-.04c-.03 0-.03 0-.02-.02a.14.14 0 0 1 .14-.05c.16.03.3.02.44 0ZM9.3 6.2c.17.02.3.07.38.15.06.05.05.06-.02.03a.67.67 0 0 0-.27-.05l-.25.06c-.08.02-.17.04-.25.04a.75.75 0 0 0-.62-.05.01.01 0 0 1 0-.02c.06-.05.15-.1.25-.14.11-.05.34.03.46.05.05.01.16-.01.33-.07Z" fill="#08071E"/><path d="M7.72 6.43h.03c.02 0 .02.01 0 .03a.96.96 0 0 0-.34.83l-.03.33c-.04.3-.12.4-.31.65-.14.17-.2.38-.21.65a.52.52 0 0 1-.1.21.02.02 0 0 1-.04 0c-.05-.27 0-.5.12-.73.14-.26.4-.44.44-.8l.08-.61a.71.71 0 0 1 .36-.56Z" fill="#FFC72A"/><path d="M9.47 7.03c-.03.04-.03.06 0 .06-.01.05-.03.08-.06.09-.03 0-.03 0-.02-.02.04-.06.04-.13 0-.21-.04-.08-.09-.11-.16-.09a.4.4 0 0 1-.36-.03c-.09-.06-.18-.11-.28-.15.1 0 .22.02.34.07l.05.01c.21-.03.35-.2.55.01a.12.12 0 0 1 .02.14l-.08.12Z" fill="#BE7D58"/><path d="M8.59 6.68c.1.04.2.09.28.15.11.06.23.07.36.03.07-.02.12 0 .16.09.04.08.04.15 0 .2-.01.03 0 .03.02.03.03-.01.05-.04.05-.09a.07.07 0 0 0 .04-.04.84.84 0 0 1 .4-.28c.14-.04.26.01.37.16-.04.1 0 .2-.08.3-.04-.1-.1-.15-.2-.13.02-.03.03-.05.01-.08A.06.06 0 0 0 9.94 7a.74.74 0 0 0-.64.44v.04c.04.05.1.08.17.07-.14.12-.22.04-.28-.09-.02-.05-.04-.05-.06 0v.13c0 .02 0 .02-.02.02-.05-.02-.08-.03-.08-.05-.04-.08-.07-.08-.09 0 0 .02-.04.04-.09.04-.02 0-.02 0-.02-.02a.38.38 0 0 0 .03-.15c0-.04-.02-.04-.04 0l-.09.13a.12.12 0 0 1-.14.04.37.37 0 0 1-.16-.12c.1-.15-.06-.26-.16-.34a.17.17 0 0 0-.08-.05c-.06-.01-.09.01-.1.07-.13-.08-.23-.07-.3.04-.1.18-.1.35.04.51h.01a.01.01 0 0 0 0-.01.4.4 0 0 1-.03-.12c0-.03 0-.03.02 0 .08.14.15.18.33.19.03 0 .03.01.02.03-.1.12-.13.25-.08.37a.6.6 0 0 0 .26.3c0 .01.01.01 0 0-.14-.17-.24-.42-.06-.6.1-.1.2-.14.33-.12.13.02.2.15.34.16.17 0 .24-.15.4-.16.11-.02.21.01.29.1.15.15.14.33-.02.54a.36.36 0 0 0-.18.14.02.02 0 0 0 .02.04c.17 0 .27-.04.43-.12.14-.07.26-.03.35.14-.08.17-.19.32-.33.43 0 .02-.02.01-.03 0a.61.61 0 0 0-.44-.26l-.31-.03a2.7 2.7 0 0 0-.6.02.71.71 0 0 0-.41.19.04.04 0 0 1-.04 0 3.97 3.97 0 0 1-.4-.24c-.04-.03-.06-.07-.05-.11 0-.19.09-.35.24-.49v-.03c-.4-.13-.38-.52-.32-.85.04-.2.14-.35.3-.43.16-.08.44.08.53.18a1.08 1.08 0 0 0 .1.1h.01l-.1-.18a.06.06 0 0 1 0-.05c.02-.07.08-.12.18-.15Z" fill="#F2B179"/><path d="M10.27 6.93c.2.27.26.8-.01 1.04a.27.27 0 0 1-.17.08h-.01a.03.03 0 0 0 0 .05c.19.14.25.3.18.48-.1-.17-.21-.21-.35-.14a.76.76 0 0 1-.45.12.02.02 0 0 1 0-.04.36.36 0 0 1 .18-.14c.05 0 .11-.05.18-.14.11-.15.1-.3-.03-.45-.02-.02-.01-.04.02-.04.14 0 .3-.07.3-.23.01-.02.02-.02.03 0l.01.1c0 .02.01.02.03.02.02 0 .04-.02.05-.05a.46.46 0 0 0-.04-.36c.09-.1.04-.2.08-.3Z" fill="#BE7D58"/><path d="M9.99 7.1c-.2.06-.38.3-.52.44-.08 0-.13-.02-.16-.07a.04.04 0 0 1 0-.04c.12-.26.33-.4.63-.44a.06.06 0 0 1 .06.03c.02.03.01.05-.01.08Z" fill="#F8DEAB"/><path d="M7.05 7.32a.11.11 0 0 0-.07.07.7.7 0 0 0 .01.46v.05a.1.1 0 0 1-.05.05h-.05a.07.07 0 0 1-.05-.05.91.91 0 0 1-.03-.65c.05-.15.15-.22.3-.2h.03v.2c0 .02 0 .03-.02.04l-.07.03Z" fill="#F2B179"/><path d="m10.92 7.32-.07-.04a.04.04 0 0 1-.03-.04v-.16l.01-.03h.03c.15-.02.25.05.3.2.06.23.05.45-.04.65a.07.07 0 0 1-.06.05h-.04a.1.1 0 0 1-.05-.05.07.07 0 0 1 0-.05.71.71 0 0 0 .02-.46.12.12 0 0 0-.07-.07Z" fill="#BE7D58"/><path d="m8.43 7.47-.34-.32c.01-.06.04-.08.1-.07.02 0 .05.02.08.05.1.08.25.19.16.34Z" fill="#F8DEAB"/><path d="M9.95 7.44v.03a.12.12 0 0 1-.06.14.4.4 0 0 1-.28.02.02.02 0 0 1-.01-.02.71.71 0 0 1 .23-.22c.06-.03.1-.02.12.05ZM8.14 7.4a.73.73 0 0 1 .24.22.02.02 0 0 1 0 .02h-.01c-.1.03-.2.02-.28-.02a.13.13 0 0 1-.07-.14v-.03c.02-.07.06-.09.12-.05Z" fill="#fff"/><path d="m7.38 7.62.1.29c0 .05.02.1.06.16v.04l-.1.37c-.18-.08-.3-.04-.37.12a.96.96 0 0 1-.21.32c0-.27.07-.48.2-.65.2-.24.28-.35.32-.65Z" fill="#A6573A"/><path d="M10.59 7.64a.7.7 0 0 1-.01.38c-.04.12.08.28.14.38l-.23.04c-.02 0-.03 0-.04-.02l-.11-.29a.04.04 0 0 1 0-.04c.12-.13.2-.28.25-.45Z" fill="#692F24"/><path d="m7.49 7.9.14.2v.04c-.06.11-.1.24-.11.37 0 .01-.01.02-.03.01a.16.16 0 0 1-.05-.04l.1-.37v-.04a.27.27 0 0 1-.05-.17Z" fill="#F2B179"/><path d="M9.18 8.1c-.07.13-.06.27.03.32.1.05.22-.01.3-.14.06-.13.05-.27-.04-.32-.1-.05-.22.01-.3.14ZM8.48 8.28c.08.13.2.18.3.13.08-.06.1-.2.02-.32-.08-.13-.21-.18-.3-.13-.09.06-.1.2-.02.32Z" fill="#08071E"/><path d="M10.63 8.57c.01.02-.02.05-.09.1-.03.04-.06.04-.08 0-.02-.03 0-.05.03-.07.09-.03.13-.04.14-.03Z" fill="#BE7D58"/><path d="m10.8 8.59.06.56c0 .1-.02.1-.07.03a.48.48 0 0 0-.24-.15c.04-.18.17-.3.24-.44Z" fill="#692F24"/><path d="m8.26 9.58-.01.03A2.37 2.37 0 0 1 7.49 9a.65.65 0 0 1-.13-.23l.03-.1c0-.01.02-.02.03 0l.61.4a.04.04 0 0 1 .02.04c0 .2.06.35.21.47Z" fill="#FDEB6F"/><path d="m10.42 8.75-.16.31v.04c0 .02 0 .03-.02.03a.06.06 0 0 0-.04.03c-.14.22-.32.4-.54.54-.17.1-.36.15-.58.15-.29 0-.57-.08-.83-.24l.01-.03.04.01a.06.06 0 0 0 .09-.05v-.28a.01.01 0 0 1 .01 0c.36.15.78.23 1.16.12.02 0 .03 0 .03.02v.14a.06.06 0 0 0 .03.05.06.06 0 0 0 .06 0c.15-.08.17-.2.24-.35a.24.24 0 0 1 .08-.1c.14-.1.26-.24.35-.42.01-.02.03-.02.04 0l.03.03Z" fill="#FFC72A"/><path d="M7.36 8.77c.02.07.06.15.13.23.22.26.47.46.76.6.26.17.54.25.83.25.22 0 .41-.05.58-.15.22-.14.4-.32.54-.54.01-.02.02-.03.04-.03.01 0 .02-.01.02-.03v-.04l.16-.31c.05.01.07.04.05.08a2.2 2.2 0 0 0-.14.3l-.04.24c-.05.3-.25.5-.52.63l-.03-.01-.03-.2a.04.04 0 0 0-.03-.04c-.05-.01-.08 0-.1.05-.09.24-.26.23-.51.24a2.97 2.97 0 0 1-.57-.05.7.7 0 0 1-.1-.18c-.03-.04-.08-.07-.12-.05a.05.05 0 0 0-.03.05V10a.03.03 0 0 1-.04.02 1.55 1.55 0 0 1-1-1.24.05.05 0 0 1 .05-.04l.1.03Z" fill="#E7692B"/><path d="m8.41 9.04.01-.07c.15-.07.3-.1.47-.11.2-.01.4 0 .57.06.06.01.09.05.09.1v.07c0 .07-.03.09-.1.06A1.4 1.4 0 0 0 9 9.03c-.12 0-.26.03-.43.1-.09.04-.15.01-.15-.1Z" fill="#DED0D6"/><path d="M7.11 9.03c-.02.17 0 .33.07.5l-.12.24c-.02.04-.03.03-.04 0a1.7 1.7 0 0 1 .01-.85c.02-.05.04-.05.06 0 .02.03.02.07.02.11Z" fill="#692F24"/><path d="M8.42 8.97v.07h-.04a.6.6 0 0 0-.07.42c.02.07 0 .08-.05.03a.43.43 0 0 1-.14-.32c0-.1.02-.16.07-.19s.13-.04.23-.01ZM9.66 8.95l.13.42a.48.48 0 0 1-.08.12c-.04.05-.06.04-.06-.02 0-.15-.01-.3-.05-.47a.04.04 0 0 1 .02-.04h.04Z" fill="#fff"/><path d="m9.8 9.37-.14-.42c.25-.04.2.28.13.42Z" fill="#DED0D6"/><path d="m7.11 9.03.14.34c0 .03-.02.08-.07.15a.83.83 0 0 1-.07-.49Z" fill="#A6573A"/><path d="m10.52 9.1.1.18.02.19-.06.3v.01a.03.03 0 0 1-.03.01h-.02l-.18-.14.17-.55Z" fill="#692F24"/><path d="M10.64 9.47c.05.28.1.54.03.82-.02.07-.04.07-.06 0a.69.69 0 0 0-.27-.35l-.07-.17.08-.12.18.14a.03.03 0 0 0 .04 0l.01-.02.06-.3ZM8.26 10.68c.12.2.34.21.54.23a.1.1 0 0 1 .08.06c.15.28.14.6.12.9l.03.18-.03.05h-.03l-.03-.01a1.3 1.3 0 0 1-.43-1.13c0-.02 0-.02-.02-.01-.08.04-.14.12-.18.24l-.28-.45v-.06a.03.03 0 0 0-.02-.02.03.03 0 0 0-.03 0l-.13.17a1.55 1.55 0 0 1-.16-.72c0-.02 0-.03-.02-.04l-.02-.01.01-.08a.03.03 0 0 0 0-.02.03.03 0 0 0-.04 0 .62.62 0 0 0-.16.13.93.93 0 0 1-.13-.48v-.06c0-.02.02-.02.03 0 .14.2.31.35.5.46a.07.07 0 0 1 .04.07c-.03.23.19.48.36.6Z" fill="#A6573A"/><path d="m7.46 10.1-.1.2c-.02.03-.03.03-.04 0-.08-.24-.07-.47.01-.69.01.2.05.36.13.48ZM10.27 9.77l.07.17c-.02 0-.03.01-.03.04.09.35.06.7-.09 1.04a.68.68 0 0 0-.18-.5h-.01a.02.02 0 0 0-.02.02v.13c-.03-.02-.05-.02-.05 0l-.02.24a.59.59 0 0 1-.18.39c-.07-.2-.04-.35-.2-.5-.04-.05-.06-.04-.05.02a.5.5 0 0 1-.02.09c-.01 0-.03.02-.03.07l-.01.22c0 .32-.13.6-.36.83l-.06.02C9.02 12 9 11.93 9 11.86c.02-.3.03-.6-.12-.89a.1.1 0 0 0-.08-.06c-.2-.02-.42-.04-.54-.23.12 0 .23-.03.35 0 .16.04.31.05.47.05l.26-.04c.1-.02.19-.02.27-.02.23.02.4-.26.46-.44.03-.07.01-.14.01-.22 0-.01 0-.03.02-.04l.17-.2Z" fill="#692F24"/><path d="M9.4 10.09c.03.07.02.11-.04.11l-.37.02h-.33c-.1-.02-.22-.03-.33-.03a.67.67 0 0 1-.02-.34c0-.03.02-.03.03 0 .04.08.1.16.16.23l.04.01h.86Z" fill="#fff"/><path d="m8.33 10.2.33.01c.12.02.23.02.33.01l.37-.02c.06 0 .07-.04.04-.11.1-.04.16-.1.2-.2.02-.06.04-.06.05 0 .02.1.01.21-.01.32a.1.1 0 0 1-.1.08 10.55 10.55 0 0 1-1.05 0c-.07.02-.13-.01-.16-.1Z" fill="#DED0D6"/><path d="m7.85 10.83-.07.17a.02.02 0 0 1-.02 0h-.01a1.3 1.3 0 0 1-.1-.94l.02.01c.02.01.02.02.02.04 0 .25.05.5.16.72Z" fill="#692F24"/><path d="M8.69 10.5c-.18.08-.32.09-.44.02-.09-.06-.17-.18-.23-.37 0-.02 0-.03.03-.03.12.01.18.07.23.18a.08.08 0 0 0 .06.05l.61.05c.06 0 .2 0 .44-.03h.17c.08 0 .13-.05.15-.12a.15.15 0 0 1 .09-.11l.07-.03c.06-.03.08 0 .07.05a.65.65 0 0 1-.18.32c-.13.12-.28.06-.44.1-.22.05-.43.06-.64 0-.06 0-.06-.02 0-.04l.02-.02c.01-.02 0-.02-.01-.02Z" fill="#F2B179"/><path d="m10.22 11.02-.2-.35a.27.27 0 0 1 0-.13v-.01h.02c.12.12.18.28.18.49Z" fill="#A6573A"/><path d="m8.03 10.74.28.45-.01.13a.02.02 0 0 1-.04.02.6.6 0 0 1-.23-.6Z" fill="#692F24"/><path d="M9.76 11.3a.14.14 0 0 1-.05.03c-.02 0-.03 0-.03-.02a.98.98 0 0 0-.18-.4.5.5 0 0 0 0-.1c0-.05.02-.06.06-.02.16.16.13.31.2.5Z" fill="#A6573A"/></svg>