<!-- by TradingView --><svg width="18" height="18" viewBox="0 0 18 18" xmlns="http://www.w3.org/2000/svg"><path fill="#F0F3FA" d="M0 0h18v18H0z"/><path d="m12.62 4.22-.15 1.15-.05.01V5.2l.04-.52-.01-.06-.24-.5a.13.13 0 0 0-.05-.05c-.14-.1-.28-.2-.42-.32-.05-.05-.21-.1-.48-.12a.14.14 0 0 1-.07-.02.73.73 0 0 0-.5-.15c-.2.02-.31.03-.34.02a3.2 3.2 0 0 1-.76-.17.94.94 0 0 0-.56-.04c-.5.1-.88.14-1.14.12-.19 0-.33 0-.41.02-.31.1-.63.14-.95.16.28-.16.58-.27.9-.33l.04-.02.01-.02h.01a6.62 6.62 0 0 1 3.5.15c.14.05.27.1.4.13.05.01.07.03.07.06s.02.04.04.03c.04 0 .08.01.13.05l.12.06c.31.14.6.32.87.55Z" fill="#37904D"/><path d="M9.59 3.3a1.26 1.26 0 0 0-.52 0c-.4.11-.78.17-1.15.18-.26.01-.5.03-.68.06-.29.05-.58.08-.87.1a.28.28 0 0 1 .16-.08c.32-.02.64-.07.95-.16.08-.02.22-.03.41-.02a5.15 5.15 0 0 0 1.19-.13.94.94 0 0 1 .5.05Z" fill="#7E9658"/><path d="M9.59 3.3c.25.09.5.15.76.17l.34-.02c.18-.01.34.03.5.15l.07.02c.27.03.43.07.48.12.14.12.28.23.42.32l.04.05.24.5.02.06-.04.52-.02.31a1.1 1.1 0 0 1 0-.4v-.42c0-.03 0-.05-.02-.07a3.06 3.06 0 0 0-.48-.58c-.2-.17-.42-.27-.67-.29a1.47 1.47 0 0 0-.4-.14 4.75 4.75 0 0 0-.45-.05 4.85 4.85 0 0 1-.5-.09 3.21 3.21 0 0 0-.6-.08c-.2 0-.5.05-.9.14-.12.04-.3.05-.52.05h-.13c-.15 0-.32.02-.49.05-.37.07-.75.11-1.13.14.09-.07.17-.1.26-.12.29-.02.58-.05.87-.1.19-.02.42-.05.68-.06a5.6 5.6 0 0 0 1.15-.17c.16-.04.33-.04.52-.01Z" fill="#ABA166"/><path d="m11.23 3.74.4.11c.03.01.04.02.04.04v.02c.01.03 0 .04-.03.04l-1.22-.12a9.62 9.62 0 0 1-.86-.18 2.04 2.04 0 0 0-.64-.07l-.9.07a5.4 5.4 0 0 0-.77.09 16.27 16.27 0 0 0-.89.21c-.2.06-.44.08-.71.08l.46-.27c.38-.03.76-.07 1.13-.14.17-.03.34-.05.5-.05h.12c.22 0 .4-.01.52-.04.4-.1.7-.15.9-.15.12 0 .32.02.6.08a4.86 4.86 0 0 0 .52.09l.44.05c.14.03.27.08.4.14Z" fill="#EDB373"/><path d="M11.23 3.74c.25.02.48.12.67.29.14.11.3.3.48.58l.02.07v.42l-.12.5h-.04c-.02 0-.03-.02-.03-.04.02-.31.01-.55-.02-.7a.9.9 0 0 0-.35-.59c-.05-.03-.22-.1-.5-.18l-.53-.08c-.5-.06-.98-.16-1.44-.3a.85.85 0 0 0-.17-.02l-.08-.01a53.08 53.08 0 0 0-1.52.08 4.61 4.61 0 0 0-.94.18c-.51.13-.9.2-1.19.22l.18-.13a2.74 2.74 0 0 0 .8-.1l.8-.2c.25-.04.5-.07.77-.09.25 0 .55-.03.9-.06.18-.02.4 0 .64.06a9.62 9.62 0 0 0 2.08.31c.03 0 .04 0 .04-.04V3.9a.05.05 0 0 0-.04-.04l-.4-.11Z" fill="#E5A060"/><path d="M12.4 5.1a1.1 1.1 0 0 0 0 .4c.02.1 0 .2-.04.28a.5.5 0 0 1-.3-.38 1.87 1.87 0 0 1 .01-.57c0-.07-.02-.11-.09-.13a7.4 7.4 0 0 1-.84-.34 3.53 3.53 0 0 0-.48-.17c-.44-.1-.85-.21-1.24-.32a1.35 1.35 0 0 0-.5-.05L8 3.85a4.5 4.5 0 0 0-.92.1c-.5.13-.98.28-1.45.45-.2.08-.38.18-.52.32a.92.92 0 0 0-.27.72c0 .09 0 .22.02.4.03.59.02 1.04-.04 1.36a9.12 9.12 0 0 0-.1-.28 3.01 3.01 0 0 1-.19-.8c0-.32 0-.7.02-1.13.27-.31.58-.59.93-.83a7.08 7.08 0 0 0 1.46-.28c.26-.07.49-.1.67-.12a53.13 53.13 0 0 1 1.52-.08h.08l.17.03c.46.14.94.24 1.44.3l.53.08c.28.09.45.15.5.18.18.14.3.33.35.58.03.16.04.4.02.71 0 .02.01.04.03.04h.04l.12-.5Z" fill="#D28648"/><path d="M12.36 5.78c-.18.14-.37.14-.56-.01-.13-.1-.22-.2-.3-.32l-.15-.36c-.08-.21-.15-.36-.22-.45a.86.86 0 0 0-.47-.3c-.42-.11-.8-.23-1.15-.34-.21-.07-.4-.1-.56-.1l-1.24.03c-.22 0-.4.04-.54.1l-1.14.43c-.16.06-.3.14-.43.25a.83.83 0 0 0-.29.42c-.02.1-.02.23.01.41l.01.1c.04.2.05.36.05.46 0 .17-.05.34-.12.5l-.2.36c-.14.22-.23.4-.28.54l-.43 1.13c-.12.28-.27.7-.43 1.28l-.21.68a8.04 8.04 0 0 0-.2.8l-.25-.64a.6.6 0 0 0 .28-.31c.04-.1.1-.24.14-.46.05-.18.08-.31.12-.39A268.91 268.91 0 0 0 4.8 7.2c.06-.3.07-.76.04-1.36l-.02-.39a.92.92 0 0 1 .27-.72c.14-.14.31-.24.52-.32.47-.17.96-.32 1.45-.45.24-.05.55-.09.92-.1a432.9 432.9 0 0 1 1.19-.03l.24.05 1.24.32a3.53 3.53 0 0 1 .62.23c.3.14.54.23.7.28.07.02.1.06.09.13v.05c-.03.24-.04.42-.02.52.04.18.14.3.31.38Z" fill="#BF7338"/><path d="M12.36 5.78a.48.48 0 0 0 .04-.28l.02-.3v.18c.04.24.01.45-.09.65a.48.48 0 0 1-.37.1 1.5 1.5 0 0 1-.41-.18.92.92 0 0 1-.35-.3c-.07-.1-.13-.25-.17-.43l-.08-.38c-.06-.22-.28-.4-.65-.5a57.1 57.1 0 0 1-.33-.11c-.45-.14-.8-.22-1.04-.23a15.6 15.6 0 0 0-1.3 0c-.12 0-.3.06-.53.16a17.6 17.6 0 0 0-1.01.45c-.35.2-.5.38-.48.54l.03.14c.04.2.06.36.06.47 0 .26.02.55.05.89.02.21-.08.38-.3.5a.65.65 0 0 0-.37.03.1.1 0 0 0-.06.04l-.19.34c-.1.33-.22.63-.34.9a7.7 7.7 0 0 0-.34.91L3.7 11c-.03.1-.09.23-.2.4v-.02a14.48 14.48 0 0 0 .2-.8c.06-.15.13-.38.22-.67.16-.57.3-1 .43-1.28l.43-1.13c.05-.14.14-.32.28-.54l.2-.36c.07-.16.12-.33.12-.5a2.7 2.7 0 0 0-.06-.56 1.1 1.1 0 0 1 0-.4.83.83 0 0 1 .28-.43c.12-.1.27-.19.43-.25l1.14-.44c.14-.05.32-.08.54-.1l1.24-.02c.16 0 .35.03.56.1.34.11.73.23 1.15.34.2.06.36.16.47.3.07.1.14.24.22.45.06.16.11.28.16.36.07.11.16.22.29.32.2.15.38.15.56.01Z" fill="#AC622D"/><path d="m12.33 6.03.01.05-.05.2a2 2 0 0 1-1.16-.14c-.15-.06-.25-.13-.29-.2l-.14-.29c-.04-.08-.1-.12-.2-.1l-.37.06c-.1.02-.12-.02-.06-.1l.04-.06c.13-.18.2-.3.2-.38 0-.11-.09-.24-.25-.4a2.11 2.11 0 0 0-.4-.29 1.46 1.46 0 0 0-.93-.12c-.28.04-.55.02-.83-.05a.73.73 0 0 0-.3-.01l-.15-.02c-.02-.01-.04 0-.04.03l-.05.36c0 .04-.02.08-.05.1a.13.13 0 0 1-.1.03.78.78 0 0 1-.42-.18c-.1-.08-.15-.06-.16.06l-.01.19c0 .13.04.23.14.32l.29.23c.02.01.03.04.02.06 0 .03-.02.05-.04.05-.33.12-.57.26-.73.4a1 1 0 0 0-.31.76l-.02.56c0 .03-.02.04-.04.05a.59.59 0 0 1-.37.02H5.5l-.03-.03a.08.08 0 0 0-.04-.02l.01-.02c.22-.12.32-.28.3-.5-.03-.34-.04-.63-.05-.89a3.11 3.11 0 0 0-.09-.61c-.02-.16.13-.34.48-.54a7.7 7.7 0 0 1 1.54-.6c.5-.03.94-.03 1.3-.01.24 0 .6.09 1.04.23l.33.1c.37.12.59.29.65.51l.08.38c.04.18.1.33.17.44a.92.92 0 0 0 .38.31c.17.1.3.14.38.16.13.02.25-.01.37-.1Z" fill="#9A5222"/><path d="M12.29 6.28c.01.05 0 .14-.05.25l-.02.02-1.16-.33c-.14-.04-.23-.1-.26-.16-.06-.1-.11-.21-.14-.32-.03-.1-.1-.14-.2-.12l-.5.08c-.01 0-.03 0-.04-.02a.04.04 0 0 1 0-.05c.08-.14.18-.29.29-.44.01-.03.02-.08.02-.18 0-.03-.02-.04-.05-.05h-.03a.1.1 0 0 1-.07-.04c-.14-.16-.3-.3-.48-.43a.88.88 0 0 0-.46-.15 2.65 2.65 0 0 0-.58.06.98.98 0 0 1-.37-.01 5.19 5.19 0 0 0-.67-.1c-.06 0-.06 0-.01.05.14.1.23.18.27.22.1.09.12.18.07.28a.96.96 0 0 1-.2.25c-.06.05-.1.1-.11.12-.02.01-.06.1-.13.25a.58.58 0 0 1-.24.24l-.33.14-.15.05c-.19.08-.33.25-.42.51-.08.2-.11.44-.11.7-.2.15-.4.19-.6.12.12.03.25.03.37-.02.02 0 .03-.02.04-.05l.02-.56a1 1 0 0 1 .31-.76c.16-.14.4-.28.73-.4.03 0 .04-.02.04-.05 0-.02 0-.04-.02-.06l-.29-.23a.36.36 0 0 1-.14-.32l.01-.19c.01-.12.06-.14.16-.06.1.1.24.15.41.18.04 0 .08 0 .1-.03a.13.13 0 0 0 .06-.1l.05-.36c0-.03.02-.04.04-.03l.15.02a.73.73 0 0 1 .3 0c.28.08.56.1.83.06.39-.05.7 0 .93.12.14.08.27.18.4.3.16.15.24.28.24.39 0 .08-.06.2-.19.38l-.04.06c-.06.09-.04.12.06.1l.37-.06c.1-.02.16.02.2.1l.14.28c.04.08.14.15.3.2a2 2 0 0 0 1.15.15Z" fill="#86421C"/><path d="m12.87 4.39-.09.91c-.1.04-.2.06-.31.07l.15-1.15c.09.03.17.09.25.17Z" fill="#1D6432"/><path d="M12.22 6.55c-.22.07-.44.08-.66.01a.6.6 0 0 0-.2-.03.71.71 0 0 0-.15.04 2.8 2.8 0 0 1-.08.03c-.15.04-.28 0-.41-.12a6.03 6.03 0 0 1-.3-.34c-.05-.06-.1-.1-.16-.1a3.62 3.62 0 0 1-.44-.1c-.1-.02-.24-.04-.44-.04-.16 0-.29-.02-.37-.03a1.41 1.41 0 0 0-.37-.04c-.14.01-.33-.01-.57-.06a2.13 2.13 0 0 0-.57-.06c-.17.01-.34.08-.5.19a.3.3 0 0 0-.14.26c0 .1-.06.19-.17.28a.8.8 0 0 0-.23.29c-.07.15-.17.28-.3.37 0-.26.03-.49.1-.7.1-.26.24-.43.43-.5l.15-.06c.15-.05.26-.1.33-.14.1-.06.19-.15.24-.24.07-.15.11-.24.13-.25l.1-.12c.12-.1.18-.19.21-.25.05-.1.02-.2-.07-.28a4.64 4.64 0 0 0-.27-.22c-.05-.04-.05-.06.01-.05.23.02.45.05.67.1a.98.98 0 0 0 .46 0c.23-.04.39-.06.5-.05.16 0 .31.06.45.15.18.12.34.27.48.43a.1.1 0 0 0 .07.04h.03c.03 0 .04.02.05.05 0 .1 0 .15-.02.18l-.3.44a.04.04 0 0 0 .01.05c.01.02.03.03.05.02l.5-.08c.1-.02.16.02.19.12.03.1.08.22.14.32.03.07.12.12.26.16l1.16.33Z" fill="#6F3417"/><path d="M12.87 4.39c.1.05.17.13.24.21l-.09.67a.3.3 0 0 1-.24.03l.09-.91Z" fill="#082D15"/><path d="m13.11 4.6.37.4c.04.03.05.08.03.13a.13.13 0 0 1-.1.1l-.23.04a.31.31 0 0 1-.16 0l.09-.67Z" fill="#1D6432"/><path d="M4.54 5c-.02.42-.03.8-.02 1.12.01.18.07.45.2.8l.09.28c-.16.15-.31.35-.45.58-.16.28-.28.51-.36.68l-.71 1.7a.79.79 0 0 0 .04-.32L4.2 7.8l.55-.64c.04-.05.04-.1-.02-.13a.67.67 0 0 1-.23-.3 2.08 2.08 0 0 1-.1-.44c-.03-.1-.03-.22-.03-.33l.06-.82.11-.15Z" fill="#D5BF9C"/><path d="M14.06 5.76c-.03 0-.05.03-.06.08a1.2 1.2 0 0 0-.55-.59c.03 0 .05-.05.06-.11 0-.03.02-.04.05-.03a.2.2 0 0 1 .11.08l.39.57Z" fill="#9DC2AB"/><path d="m4.43 5.14-.06.82a1.44 1.44 0 0 0 .03.4c.03.17.07.3.1.37.05.12.12.22.23.3.06.04.06.08.02.13l-.55.64-.1.16-1.02.1a5.9 5.9 0 0 1 1.35-2.92Z" fill="#B0EAFE"/><path d="M13.02 5.27h.2c-.07 0-.12.01-.16.04h-.03c-.2.03-.33.1-.37.2.06.44.2.81.4 1.12.14.2.34.27.62.24a.88.88 0 0 0 .19-.23.7.7 0 0 1-.1.19c-.03.05-.09.1-.15.12-.3.1-.6.08-.89-.07a.18.18 0 0 1-.1-.18c.02-.34-.02-.67-.1-.99-.02-.03-.03-.03-.04 0l-.04.15a.34.34 0 0 1-.1.22l-.02-.05c.1-.2.13-.41.09-.65l.05-.01c.11 0 .22-.03.31-.07a.3.3 0 0 0 .24-.03Z" fill="#86421C"/><path d="M13.45 5.25c.22.1.4.3.55.59.02.03.03.06.03.1l-.1.57c-.11-.13-.2-.27-.3-.4a.9.9 0 0 0-.32-.33.87.87 0 0 1-.21-.18.32.32 0 0 1-.04-.29.26.26 0 0 1 .16-.03l.23-.03Z" fill="#E5A060"/><path d="M13.03 5.32a.64.64 0 0 0-.18.3c0 .03 0 .06.04.07.15.06.27.11.34.16.12.08.2.17.25.28l.14.31c.04.1.12.15.25.17v.03a.88.88 0 0 1-.2.23.65.65 0 0 1-.3-.28 8.61 8.61 0 0 1-.17-.39c-.05-.13-.1-.22-.15-.25-.16-.12-.3-.26-.4-.45.05-.1.18-.16.38-.18Z" fill="#AC622D"/><path d="M13.06 5.31c-.03.11-.02.2.04.29.03.05.1.1.21.18l.12.08a.9.9 0 0 1 .2.24l.3.42-.06.09c-.13-.02-.21-.08-.25-.17l-.14-.31a.67.67 0 0 0-.25-.28 1.9 1.9 0 0 0-.34-.16c-.03-.01-.05-.04-.04-.07a.64.64 0 0 1 .18-.3l.03-.01Z" fill="#D28648"/><path d="M12.66 5.5c.1.19.23.33.39.45.05.03.1.12.15.25l.18.4c.05.1.15.2.3.27-.28.03-.48-.04-.61-.24-.21-.3-.35-.68-.41-1.13Z" fill="#9A5222"/><path d="m12.22 6.55.02-.02-.14.28c-.01.02-.03.03-.06.03a2.05 2.05 0 0 0-.42-.03c-.02 0-.02 0 0 .02.08.03.1.04.05.05l-.88-.04c-.1 0-.19 0-.3.03l-.3.04c-.07-.07-.18-.1-.32-.07a2.7 2.7 0 0 0-.75-.04c-.21.02-.6.08-1.15.19-.08.01-.18.04-.3.1h-.49a.7.7 0 0 0-.2 0l-.64.1c-.1.02-.2.07-.28.15-.1.1-.17.22-.24.36a.15.15 0 0 0-.05.07l-.32.2.15-.53c.02-.08-.01-.15-.09-.22h.05c.2.07.4.03.6-.12.13-.1.23-.22.3-.37a.8.8 0 0 1 .23-.29c.11-.1.17-.19.17-.28 0-.12.05-.2.13-.26.17-.11.33-.18.5-.2.15 0 .34.02.58.07.24.05.43.07.57.06.1 0 .23 0 .37.03.08.02.2.03.37.04.2 0 .35.02.44.05l.44.08c.06.01.11.05.16.11l.3.34c.13.12.26.16.4.11l.09-.02a.71.71 0 0 1 .15-.04.6.6 0 0 1 .2.03c.22.07.44.06.66-.01ZM13.87 6.64a.16.16 0 0 1 .05-.03c.02-.01.04 0 .04.02l.01.1-.19.24c-.01.02-.02.05-.01.1l-.08.08-.07.07h-.05c.08-.05.12-.1.13-.16 0-.03-.02-.04-.04-.03-.4.13-.77.12-1.1-.03a.11.11 0 0 1-.08-.13 10 10 0 0 0 0-1.06l-.03.05.04-.15c.01-.03.02-.03.03 0 .1.32.13.65.1.99 0 .08.04.14.11.18.29.15.58.18.88.07a.32.32 0 0 0 .16-.12.7.7 0 0 0 .1-.19Z" fill="#542715"/><path d="M14.06 5.76c.3.47.53.96.7 1.49-.26.1-.52.16-.77.18l-.08-.12-.14-.25.01-.1.2-.24c.09-.24.1-.5.05-.77a.17.17 0 0 0-.03-.11c0-.05.03-.08.06-.08Z" fill="#B0EAFE"/><path d="m13.57 7.22-.24.07a.13.13 0 0 0-.06.04c-.11.12-.24.21-.38.28-.03.02-.06.05-.08.11-.04.08-.1.12-.16.13-.14-.3-.33-.56-.56-.79a.63.63 0 0 0-.42-.18c.05 0 .03-.02-.05-.05-.02-.01-.02-.02 0-.02.14 0 .28 0 .42.03.03 0 .05 0 .06-.03l.14-.28c.05-.11.06-.2.05-.25l.05-.2c.06-.06.1-.13.11-.22l.04-.05a9.97 9.97 0 0 1 0 1.07c-.02.05 0 .1.06.12.34.15.7.16 1.1.03.03 0 .05 0 .05.03 0 .06-.05.1-.13.16Z" fill="#19121C"/><path d="M13.97 6.72v-.09c-.01-.02-.03-.03-.05-.02a.16.16 0 0 0-.05.03v-.03l.05-.1.11-.56c.06.28.04.53-.06.77Z" fill="#696868"/><path d="M10.3 6.19c.06.07.1.12.1.14.02.02.02.05.01.08a.08.08 0 0 1-.06.05c-.24.05-.51.06-.81.04a9.55 9.55 0 0 1-.89-.13c-.05 0-.05-.02 0-.05.3-.17.63-.18.96-.04a.5.5 0 0 0 .15.02c.04 0 .16-.05.37-.16.07-.03.13-.01.18.05Z" fill="#37170A"/><path d="M9.87 6.84c-.28.16-.46.29-.54.4-.14.2-.3.4-.46.59-.03.03-.05.06-.05.1 0 .03.03.06.07.1-.18.05-.33.04-.44-.05a.1.1 0 0 1-.04-.06c-.1-.4-.35-.68-.75-.83.13-.06.23-.09.3-.1l1.16-.2c.22-.01.47 0 .75.05Z" fill="#2C2432"/><path d="M10.2 6.92c-.31.1-.56.26-.75.49-.05.06-.1.15-.15.26l-.12.27a.6.6 0 0 1-.3.08c-.03-.03-.05-.06-.06-.1 0-.03.02-.06.05-.1l.46-.59c.08-.1.26-.23.54-.4.14-.02.25 0 .33.09Z" fill="#19121C"/><path d="M11.67 6.88c.16 0 .3.07.42.19.23.22.42.48.56.78.02 0 .02.03 0 .07a.55.55 0 0 1-.45.14.08.08 0 0 1-.06-.03 1.3 1.3 0 0 0-.99-.6c-.82-.16-1.45.05-1.9.61-.01-.05-.03-.08-.06-.1l.11-.27c.05-.11.1-.2.15-.26.2-.23.44-.4.75-.5.1 0 .2-.02.3-.04l.29-.03c.29 0 .58.02.88.04Z" fill="#C3C6DB"/><path d="m13.77 7.07.14.24c0 .22.04.43.12.62a3.97 3.97 0 0 0 .37.68c.08.15.15.3.2.47a6.57 6.57 0 0 1 .14.58l.15.5-.08.38-.46-1.4a7.66 7.66 0 0 0-.5-1.06c-.13-.26-.19-.57-.16-.93l.08-.08Z" fill="#D28648"/><path d="m5.45 7.15-.01.02a.83.83 0 0 0-.26.03.25.25 0 0 0-.12.15l-.6 1.5c-.15.37-.36 1.13-.62 2.3-.05.2-.07.48-.06.82l-.27-.58c.1-.16.16-.3.19-.4l.45-1.62c.07-.24.18-.54.34-.9.12-.28.23-.58.34-.9.02-.06.08-.18.2-.35a.1.1 0 0 1 .05-.04.65.65 0 0 1 .37-.03Z" fill="#884D27"/><path d="M13.7 7.15c-.04.36.02.67.16.93.25.47.41.82.49 1.05a55.96 55.96 0 0 1 .46 1.46 1.44 1.44 0 0 1-.34-.52c-.05-.12-.1-.33-.16-.63a4.92 4.92 0 0 0-.45-.96c-.22-.4-.3-.82-.24-1.26l.07-.07Z" fill="#AC622D"/><path d="m5.44 7.17.04.02a.34.34 0 0 0-.2.03.1.1 0 0 0-.06.05c-.09.21-.15.38-.18.52-.05.18-.05.36-.02.53-.12-.02-.16.02-.13.12-.17.14-.29.32-.35.55A21.96 21.96 0 0 0 4 11.64c-.02.24-.01.47.03.7l-.25-.37c0-.34.01-.62.06-.83.26-1.16.47-1.92.62-2.29l.6-1.5a.25.25 0 0 1 .12-.15.83.83 0 0 1 .26-.03Z" fill="#542715"/><path d="M4.81 7.2a5.8 5.8 0 0 0-1.36 2.88c-.06.2-.12.4-.2.6l-.05-.19.09-.33.71-1.7c.08-.17.2-.4.36-.68.14-.23.29-.43.45-.58Z" fill="#EDB373"/><path d="M5.48 7.2c.02 0 .03 0 .03.02.08.07.1.14.1.22l-.16.54-.15.29a.28.28 0 0 1-.28.05C5 8.15 5 7.97 5.04 7.8c.03-.14.1-.31.18-.52a.1.1 0 0 1 .05-.05.34.34 0 0 1 .21-.03Z" fill="#190603"/><path d="M13.57 7.22a.25.25 0 0 1-.08.08.8.8 0 0 0-.13.68l.16.62c.04.13.12.33.24.6.15.33.25.67.31 1.03.08.5.18 1 .3 1.5l-.26.41a4.77 4.77 0 0 1-.1-.5c-.06-.83-.17-1.5-.31-2.04-.18-.64-.28-1.07-.33-1.28a3.4 3.4 0 0 0-.12-.4c-.08-.15-.17-.24-.27-.27-.05-.06-.1-.04-.15.07h-.02c.02-.06.05-.1.08-.1.14-.08.27-.17.38-.3a.13.13 0 0 1 .06-.03l.24-.07Z" fill="#542715"/><path d="M13.62 7.22c-.06.44.02.86.24 1.26.27.5.42.82.45.96.06.3.11.5.16.63.08.2.19.37.34.51l-.3.82c-.1-.46-.2-.92-.32-1.38a6.33 6.33 0 0 0-.53-1.45 1.77 1.77 0 0 1-.17-1.27.25.25 0 0 0 .08-.08h.05Z" fill="#884D27"/><path d="M4.75 7.3 3.8 9.6c-.04.07-.07.2-.12.38-.05.22-.1.37-.14.46a.6.6 0 0 1-.28.3v-.06l.2-.6c.06-.23.13-.43.2-.6.17-.38.32-.75.46-1.12.11-.27.32-.62.63-1.07Z" fill="#E5A060"/><path d="M13.49 7.3c-.11.42-.05.85.17 1.27a7.23 7.23 0 0 1 .53 1.45l.33 1.38-.16.32-.29-1.5c-.06-.35-.16-.7-.3-1.02a5.29 5.29 0 0 1-.41-1.23.8.8 0 0 1 .13-.67Z" fill="#6F3417"/><path d="m13.99 7.43.28.74.37.62c.15.23.26.55.31.95l-.06.42a5.92 5.92 0 0 1-.29-1.08 2.26 2.26 0 0 0-.3-.63c-.13-.23-.23-.4-.27-.52a1.7 1.7 0 0 1-.12-.62l.08.12Z" fill="#E5A060"/><path d="M11.15 7.42h-.72a1 1 0 0 0-.53.18c-.18.07-.34.18-.46.33a.92.92 0 0 0-.14.24l-.03.09c-.08.17-.1.3-.08.4l-.1.03c.02-.05 0-.08-.03-.09a1.2 1.2 0 0 0-.77.01.06.06 0 0 0-.04.05.76.76 0 0 0 .03.42c0 .01-.05.03-.13.05.07-.4-.01-.75-.24-1.03-.1-.12-.24-.23-.42-.3a1.53 1.53 0 0 0-.5-.15 5.62 5.62 0 0 0-.62 0c.5-.08.92-.04 1.26.13a1 1 0 0 1 .56.7c.01.05.04.07.1.05.27-.06.48-.09.63-.07h.13c.03-.01.04-.03.05-.05l.15-.37c.45-.56 1.08-.77 1.9-.62Z" fill="#2C2432"/><path d="M11.16 7.42c.03.04.07.06.13.07l.14.04c.22.09.4.22.55.39.12.15.19.32.2.52 0 .21-.03.4-.08.57a.2.2 0 0 1-.05.08.16.16 0 0 0-.04.06.67.67 0 0 1-.25.32c-.19.14-.41.24-.67.31-.09 0-.15 0-.18.03l-.57.01a.73.73 0 0 0-.32-.11l.1-.04.25.05a3.6 3.6 0 0 0 .68-.02l.12-.02c.06 0 .13-.02.2-.07.1-.05.16-.1.19-.1.02-.02.02-.04.02-.07-.06-.19-.17-.29-.34-.3a5.15 5.15 0 0 1-.55-.06 3.23 3.23 0 0 0 .71-.4.9.9 0 0 0 .29-.34c.01-.02 0-.03-.02-.04a27.5 27.5 0 0 1-.58-.14 2 2 0 0 0-1.16.11h-.06a.5.5 0 0 1-.15-.14.07.07 0 0 1 0-.08l.18-.45a1 1 0 0 1 .53-.18 11 11 0 0 0 .73 0Z" fill="#57C761"/><path d="m12.65 7.92.12-.01-.02.03c-.02.02-.03.04-.02.06l.02.04-.03-.01c-.03-.01-.05 0-.06.02-.1.13-.22.19-.38.17-.03 0-.04 0-.04.03.07.47-.06.87-.39 1.21l-.35.21c-.17.1-.3.14-.41.11.26-.07.48-.17.67-.31.12-.08.2-.19.25-.32 0-.02.02-.04.04-.06A.2.2 0 0 0 12.1 9c.05-.17.08-.36.08-.57a.8.8 0 0 0-.2-.52 1.4 1.4 0 0 0-.55-.4 1.6 1.6 0 0 0-.14-.03.21.21 0 0 1-.13-.07c.44.05.77.26.98.6.02.03.04.04.06.04.17.03.32-.02.45-.14Z" fill="#453F4E"/><path d="m9.9 7.6-.19.45a.07.07 0 0 0 0 .07c.05.06.1.1.16.14.02.02.04.02.06.01a2 2 0 0 1 1.16-.11l.58.14c.02 0 .03.02.02.04a.91.91 0 0 1-.3.33c-.21.16-.42.28-.61.37.15-.3.11-.5-.1-.65-.15-.1-.14-.14.03-.13.13 0 .24.1.34.28 0 .02.02.02.03 0l.02-.03V8.5c-.08-.24-.24-.35-.46-.35-.2 0-.35.05-.46.14-.17.13-.23.31-.18.54.04.14.13.23.28.27.13.03.26.03.41-.02l.54.06c.18.01.3.11.35.3 0 .03 0 .05-.02.06a5.1 5.1 0 0 1-.2.11.44.44 0 0 1-.19.07c-.03 0-.07 0-.12.02a3.6 3.6 0 0 1-.68.02l.02-.02h.02v-.03a2.83 2.83 0 0 1-.75-.54 8.34 8.34 0 0 0-.47-.47c-.03-.1 0-.23.08-.4l.03-.1a1.07 1.07 0 0 1 .6-.57Z" fill="#4CB458"/><path d="M6.37 7.65h.1a.6.6 0 0 1-.37.06c.1-.05.19-.07.27-.06Z" fill="#7E9658"/><path d="M13.25 7.91c.09.65.2 1.3.33 1.95.06.32.12.9.18 1.74a1.2 1.2 0 0 0-.32-.26c-.22.11-.35.05-.42-.17l.13-.4c.05-.14.08-.28.1-.4.04-.4.01-.8-.08-1.2l-.12-.43-.3-.7-.02-.04c0-.02 0-.04.02-.06a.08.08 0 0 0 .02-.03.37.37 0 0 0 .12-.12.46.46 0 0 0 .1-.14c.09.03.18.12.26.26Z" fill="#030208"/><path d="M8.15 9.13a.49.49 0 0 1-.08.15c-.2.1-.39.24-.55.4-.02.02-.02.03.01.02.1-.02.19-.07.26-.16 0-.02.02-.02.03 0l.02.01v.02c-.13.12-.27.22-.43.3-.22.06-.45.1-.67.1-.24.02-.46-.02-.66-.1a1.3 1.3 0 0 1-.73-.75l.4-1.22c.04-.01.05-.06.02-.13a.15.15 0 0 1 .05-.07c0 .05.04.07.1.04a.38.38 0 0 1 .18-.03.6.6 0 0 0 .36-.05c.28-.02.46-.02.53-.01a1.53 1.53 0 0 1 .92.45c.23.28.3.63.24 1.03Z" fill="#77FE74"/><path d="M12.9 7.8a.37.37 0 0 1-.13.11l-.12.01c.02-.04.02-.07 0-.07.07 0 .12-.05.16-.13h.05c.01 0 .02 0 .02.02l.01.05Z" fill="#ABA166"/><path d="m4.2 7.8-.87 2.04a.1.1 0 0 1-.06 0c.18-.42.34-.83.5-1.25.07-.22.18-.43.32-.63l.11-.16Z" fill="#D9D0D5"/><path d="m5.76 7.9-.4 1.22c-.04.03-.07.1-.08.23 0-.09-.01-.17-.04-.24l-.07-.24v-.25c0-.03-.02-.05-.04-.05l-.1-.02-.01-.02c.14 0 .25-.08.3-.22.1-.2.25-.34.44-.4Z" fill="#19121C"/><path d="m14.11 12.15-.1.15-.22-.63c-.03-.03-.04-.05-.03-.07-.06-.84-.12-1.42-.18-1.74-.13-.65-.24-1.3-.33-1.95.07.2.11.33.12.4.05.22.15.65.33 1.29.14.53.25 1.21.32 2.03 0 .1.04.27.1.52Z" fill="#37170A"/><path d="M4.1 7.96c-.15.2-.26.4-.34.63-.15.42-.31.83-.48 1.24a.48.48 0 0 1-.2 0C3 9.44 2.98 9.06 3 8.7l.07-.63 1.01-.1Z" fill="#CFE7F8"/><path d="m12.75 8.04.3.7c.01.22 0 .44-.03.64a.68.68 0 0 1-.22.43.62.62 0 0 1-.45.15c-.26-.01-.42-.18-.5-.5.33-.34.46-.74.4-1.2-.01-.03 0-.05.03-.04.16.02.28-.04.38-.17.01-.02.03-.03.06-.02h.03Z" fill="#C3C6DB"/><path d="M10.78 9.04a.17.17 0 0 0-.09.04.7.7 0 0 1-.41.02.35.35 0 0 1-.28-.27c-.05-.23.01-.4.18-.54a.76.76 0 0 1 .46-.14c.22 0 .38.11.47.35v.01l-.03.04h-.03c-.1-.19-.21-.28-.34-.29-.17-.01-.18.03-.04.13.22.14.26.36.1.65Z" fill="#08140B"/><path d="m15 9.07-.05.67c-.05-.4-.16-.72-.3-.95-.21-.31-.33-.52-.38-.62l.43.45c.07.08.12.2.15.36V9c.02.08.07.1.15.08Z" fill="#D5BF9C"/><path d="m5.3 8.27.03.04a.33.33 0 0 1-.31.22c-.06 0-.1-.03-.13-.1-.03-.1.01-.13.13-.1.1.03.2 0 .28-.06Z" fill="#F7F5F9"/><path d="M7.04 8.59c.01-.06.02-.1.01-.12 0-.04-.02-.05-.05-.04-.22.03-.35.16-.37.38 0 .04 0 .08.02.13l.03.1c0 .03 0 .04-.02.02-.1-.11-.14-.22-.12-.31a.57.57 0 0 1 .27-.37c.13-.09.27-.11.42-.08.21.05.33.2.33.46.01.2-.04.34-.14.4a.4.4 0 0 1-.3.06.27.27 0 0 1-.22-.2c-.05-.16-.01-.29.1-.37a.1.1 0 0 0 .04-.06Z" fill="#08140B"/><path d="M4.9 8.44c.01.06.06.1.12.1v.01c-.12.15-.2.28-.24.39-.1.29-.21.68-.32 1.18-.05.23-.07.48-.07.72 0 .27.06.51.2.74-.2.1-.35.22-.47.36a.04.04 0 0 0 0 .05v.03c.02.02.04.03.07.01l.4-.3-.5.69-.06-.07a2.77 2.77 0 0 1-.03-.7 9.17 9.17 0 0 1 .14-.9c.1-.55.23-1.14.4-1.76.06-.23.18-.41.35-.55Z" fill="#37170A"/><path d="M10.16 8.5c-.03.03-.03.07-.01.1.02.01.06 0 .09-.03s.03-.07.01-.1c-.02-.01-.06 0-.09.03Z" fill="#37904D"/><path d="M9.09 8.69a.12.12 0 0 1-.05.03.1.1 0 0 1-.06 0c-.3-.04-.53.08-.7.36a.76.76 0 0 1-.03-.42c0-.03.02-.04.04-.05.27-.09.52-.09.77 0 .04 0 .05.03.03.08Z" fill="#F7F5F9"/><path d="m5.03 8.55.1.02c.02 0 .04.02.04.05v.25c0 .04.03.12.07.24.03.07.04.15.04.24l.01-.06c-.1.55-.13 1.02-.06 1.4 0 .06.05.18.12.38 0 .04 0 .09-.02.12 0 .03-.04.05-.09.08l-.65.31c-.14-.23-.2-.47-.2-.74 0-.24.02-.49.07-.72.1-.5.21-.9.32-1.18.04-.11.12-.24.25-.39Z" fill="#190603"/><path d="m9.19 8.66.01.05a.5.5 0 0 0-.02.2 2 2 0 0 0 .08.24c.07.18.04.2-.09.07l-.21-.23a.11.11 0 0 0-.08-.04c-.1 0-.19.02-.3.07l-.62.63c-.07.06-.08.05-.04-.03l.15-.34c.04-.05.07-.1.08-.15.08-.02.12-.04.13-.05.17-.28.4-.4.7-.35a.1.1 0 0 0 .06 0l.05-.04.1-.03Z" fill="#08140B"/><path d="m9.2 8.7.46.43a2.83 2.83 0 0 0 .75.56l-.01.01-.03.02-.26-.05a1.7 1.7 0 0 1-.63-.36l-.3-.4c0-.07 0-.14.02-.2Z" fill="#030208"/><path d="m13.05 8.74.12.44c0 .32-.03.57-.1.75a.75.75 0 0 1-.53.49c-.32.08-.58.07-.78-.04-.23-.13-.32-.37-.26-.7l.35-.22c.08.32.24.49.5.5.18 0 .32-.05.45-.15.12-.11.2-.25.22-.43.03-.2.05-.42.03-.64Z" fill="#B7B1BD"/><path d="M10.39 8.95c.1.02.2-.03.29-.14.02-.02.03-.02.05 0l.02.02c.02.02.02.05 0 .07-.18.18-.37.2-.55.04v-.06c0-.03.01-.03.04-.02l.15.09Z" fill="#1D6432"/><path d="m9.18 8.9.3.4-.15-.13c-.03-.02-.04-.02-.02.02.03.09.09.16.16.22.17.14.35.24.55.3.11.01.22.05.32.11a.83.83 0 0 1-.43.03 1.33 1.33 0 0 0-.19-.03l-.19.01c-.06.02-.1.07-.1.15a2.18 2.18 0 0 0-.86 0l.27-.39.03-.02h.02c.02 0 .04-.02.04-.04.05-.24-.06-.41-.34-.51.1-.05.2-.07.3-.07l.07.04.21.23c.13.13.16.11.09-.06a2 2 0 0 1-.08-.26Z" fill="#2C2432"/><path d="M8.57 9.99a.46.46 0 0 0-.39-.15l-.02.01v.04c.06 0 .1.03.1.07 0 .03-.01.05-.04.07a.35.35 0 0 1-.2.04c.11-.02.16-.06.15-.1a.1.1 0 0 0-.05-.07.1.1 0 0 0-.08 0 .9.9 0 0 1-.53.05c-.09-.01-.12-.04-.1-.09.16-.07.3-.17.43-.3l-.02-.03h-.03a.41.41 0 0 1-.26.17c-.03 0-.03 0-.01-.02.16-.16.35-.3.55-.4l-.15.34c-.04.09-.03.1.04.03l.63-.63c.28.1.4.27.34.5 0 .03-.02.04-.04.05h-.02l-.03.02-.27.4Z" fill="#453F4E"/><path d="M5.35 9.12c.13.35.38.6.73.75.2.08.42.12.66.1.22 0 .45-.04.67-.1-.02.04.01.07.1.08-.28-.04-.44.02-.48.18-.04-.05-.07-.06-.1-.02-.02.02-.03.04-.02.07.02.03.05.05.1.07a.24.24 0 0 0-.14 0c-.06-.02-.07-.07-.06-.13 0-.06-.01-.08-.07-.09l-.47-.02c-.39-.1-.71-.33-.98-.72a125.87 125.87 0 0 0 .06-.17Z" fill="#838293"/><path d="M9.48 9.3c.17.16.38.29.63.37l-.09.04c-.2-.06-.38-.16-.55-.3a.56.56 0 0 1-.16-.22c-.02-.04 0-.04.02-.02l.15.14Z" fill="#696868"/><path d="M13.17 9.18c.1.4.12.8.07 1.2-.01.11-.04.24-.09.4l-.13.39c.02.03.02.06 0 .09-.02.02-.04.02-.06 0a1.88 1.88 0 0 0-1.44-.2c-.12.1-.16.23-.12.4-.42.05-.8-.06-1.12-.31.26-.18.46-.35.58-.52.05-.06.1-.19.19-.39.08-.27.03-.41-.14-.43.03-.03.1-.04.18-.03.1.03.24-.01.41-.1-.06.34.03.57.26.7.2.1.46.12.78.04a.75.75 0 0 0 .53-.49c.07-.17.1-.43.1-.75Z" fill="#A1A3B6"/><path d="m8.53 9.84-.14-.22a.1.1 0 0 1-.02-.07c.01-.1.07-.16.16-.2a.09.09 0 0 1 .1.01c.02.02.03.05.03.09l-.05.37c0 .09-.04.1-.08.02Z" fill="#696868"/><path d="M10.34 9.82h.57c.17 0 .22.15.14.42 0-.08-.01-.14-.03-.19.05-.05.04-.09-.04-.12-.03-.01-.05-.01-.06.01a.24.24 0 0 1-.14.1c-.2.05-.45.05-.74.02l-.6-.08c0-.08.03-.13.1-.15a.58.58 0 0 1 .2 0c.03 0 .09 0 .17.02.15.03.3.02.43-.03Z" fill="#B84515"/><path d="M3.28 9.83a.1.1 0 0 0 .05 0c.01.1 0 .2-.04.33l-.09.33a2.14 2.14 0 0 1-.12-.66c.06.02.12.02.2 0Z" fill="#6DAEC8"/><path d="M8.57 9.99c.29-.06.58-.07.86-.02l.61.09c.29.03.53.03.74-.02.05-.02.1-.05.14-.1.01-.02.03-.03.06-.02.08.04.1.08.04.13-.27.12-.49.3-.65.52-.13.16-.29.27-.5.35a1.56 1.56 0 0 0-.8-.24l-.7-.01-.2.06a.1.1 0 0 0-.04.05l-.07.12c-.02.03-.04.03-.06.02-.2-.07-.39-.2-.55-.37l-.44-.3c-.05-.02-.08-.04-.1-.07 0-.03 0-.05.02-.07.03-.04.06-.03.1.02.33.13.66.11 1-.06.06 0 .13-.01.2-.05a.06.06 0 0 0 .03-.06c0-.04-.04-.07-.1-.07v-.04l.02-.01c.15-.02.28.03.39.15Z" fill="#030208"/><path d="m6.27 10.01.47.02c.06 0 .08.03.07.09-.01.06 0 .1.06.14l.07.2a1 1 0 0 0 .07.2c.1.19.24.34.41.46-.01.24-.12.4-.32.48-.16.07-.36.1-.6.06.05-.15.08-.25.07-.3-.03-.2-.15-.3-.36-.3a2.48 2.48 0 0 1 .41.03c.03 0 .04 0 .05-.03.15-.46.01-.8-.4-1.05Z" fill="#E6DDE4"/><path d="M11.02 10.05c.02.05.03.11.03.19-.08.2-.14.33-.19.39-.12.17-.32.34-.58.52l-.1.06c-.02-.05-.05-.06-.12-.03-.26.11-.5.28-.73.51l-.03-.24.1-.16.47-.37c.21-.08.38-.2.5-.35.16-.22.38-.4.65-.52Z" fill="#C75D0E"/><path d="m7 10.25.45.3c.11.2.21.32.3.35.27.11.5.28.68.5l.28.36c.09.1.16.1.23 0 .13-.14.25-.25.36-.3l.03.23-.32.32c-.12.11-.23.11-.33 0a4.82 4.82 0 0 0-.78-.66c-.06-.02-.08 0-.07.04l-.4-.27a1.27 1.27 0 0 1-.42-.47 1 1 0 0 1-.07-.2.92.92 0 0 0-.07-.2c.04 0 .09-.01.14 0Z" fill="#FABA2E"/><path d="m9.87 10.92-.47.37a8.87 8.87 0 0 1-.81-.23c-.04 0-.08 0-.12.05-.02.03-.02.05 0 .07.08.08.12.15.13.2 0 .04 0 .05-.04.06h-.04c-.03-.05-.06-.06-.09-.04-.19-.22-.41-.4-.68-.5-.09-.03-.19-.15-.3-.35.16.18.35.3.55.37.02.01.04 0 .06-.02l.07-.12a.1.1 0 0 1 .04-.05l.2-.06.7.01c.28 0 .55.09.8.24Z" fill="#4C090B"/><path d="M13.02 11.17c.07.22.2.28.42.17-.02.24.06.39.25.46.07.02.1-.02.1-.13l.23.63-.4.53-1.01-.68c-.16-.1-.27-.21-.34-.32-.07-.1-.16-.26-.26-.5-.05-.11-.22-.2-.49-.27.5-.13.97-.06 1.44.2.02.02.04.02.06 0 .02-.03.02-.06 0-.1Z" fill="#19121C"/><path d="m6.5 11.66-.1.17-.29.39a.15.15 0 0 0-.04.03.2.2 0 0 0-.08.08l-.24.2-.58.42-.08.07-.25.22H4.8a4.72 4.72 0 0 1-.71-.81l.5-.7.86-.52.25-.1c.15-.03.32-.04.5-.04.22 0 .34.1.37.29.01.05-.02.15-.08.3Z" fill="#030208"/><path d="m5.45 11.2-.86.54-.4.29c-.03.02-.05.01-.07-.02V12c-.02-.02-.01-.03 0-.05.12-.14.28-.26.47-.36.21-.1.43-.22.65-.31.05-.03.08-.05.1-.08a.24.24 0 0 0 .01-.12c.02.05.05.1.1.14Z" fill="#453F4E"/><path d="m9.4 11.29-.1.16c-.11.06-.23.17-.36.32-.07.08-.14.08-.23-.01l-.28-.36c.03-.02.06 0 .1.03 0 .02.02.02.03.01.03 0 .04-.02.04-.05 0-.06-.05-.13-.13-.21-.02-.02-.02-.04 0-.06.04-.05.08-.07.12-.06.27.1.54.17.81.23Z" fill="#B84515"/><path d="M11.52 11.06c.27.06.44.16.49.27.1.24.19.4.26.5.07.1.18.21.34.32.33.23.67.46 1.02.68l-.26.28-1.14-.72-.13-.1-.1-.07-.42-.45-.18-.3c-.04-.18 0-.32.12-.41Z" fill="#030208"/><path d="M7.83 11.39v-.01c0 .26-.08.43-.26.51-.38.17-.77.15-1.16-.06l.08-.17c.25.03.45.01.61-.06.2-.08.3-.24.32-.48l.41.27Z" fill="#D9D0D5"/><path d="M10.28 11.15c.33.25.7.36 1.12.32l.18.3c-.3.18-.65.26-1.02.23-.36-.04-.57-.22-.65-.55l.26-.24.1-.06Z" fill="#838293"/><path d="m10.17 11.2-.26.25a14 14 0 0 0-.8.76c-.1.11-.22.12-.33.03l-.13-.12-.52-.48-.3-.26c-.01-.03 0-.05.07-.03l.06.02c.2.14.44.35.72.64.1.11.21.11.33 0l.32-.32c.23-.23.47-.4.73-.5.06-.04.1-.03.11.02Z" fill="#030208"/><path d="M13.76 11.6c0 .02 0 .04.03.07 0 .1-.03.15-.1.13-.19-.07-.27-.22-.25-.46.1.05.2.14.32.26Z" fill="#6DAEC8"/><path d="M8.13 11.64c.14.26.08.44-.18.56-.15.06-.45.1-.9.14-.17 0-.26.09-.27.23l-.67-.35.3-.39c.4.21.78.23 1.16.07.18-.09.26-.26.25-.52l.31.26Z" fill="#B7B1BD"/><path d="M9.9 11.45c.09.33.3.51.66.54.37.04.71-.04 1.02-.22l.43.45-.3.16-.71.49c-.51.35-1.08.47-1.7.36-.63-.11-1.02-.2-1.19-.24l-.6-.26c.34-.05.63-.12.87-.2.14-.06.27-.15.4-.3.11.1.22.1.34-.02a14 14 0 0 1 .79-.76Z" fill="#6A6B7F"/><path d="M8.65 12.12c-.2.15-.5.28-.89.4a9.5 9.5 0 0 0-.18.04c-.1.03-.12.09-.08.17l.61.26c.5.18 1.08.34 1.73.46.26.05.49.04.68-.02.17-.06.37-.18.59-.37l.15-.13c.33-.3.62-.5.84-.63l.13.1c-.16.17-.3.36-.42.57-.15.24-.26.4-.35.48-.29.27-.63.37-1.02.32-.42-.06-.93-.21-1.55-.46-.72-.19-1.42-.43-2.11-.74.01-.14.1-.22.27-.23.45-.03.75-.08.9-.14.26-.12.32-.3.18-.56l.52.48Z" fill="#9492A3"/><path d="M8.78 12.24c-.13.14-.26.23-.4.28-.24.1-.53.17-.88.21-.04-.08-.01-.14.08-.17l.18-.05c.4-.1.7-.24.9-.39l.12.12Z" fill="#838293"/><path d="m6.11 12.22.67.35.34.21 1.46.74c.34.18.66.33.96.44l1.67.62-.76.25a6.2 6.2 0 0 0-1.05-.56 21.1 21.1 0 0 0-1.34-.49c-.16-.05-.3-.13-.42-.24a2.98 2.98 0 0 1-.33-.38 1.79 1.79 0 0 0-.38-.3l-.86-.6.04-.04Z" fill="#C3C6DB"/><path d="m12 12.22.1.08a5.17 5.17 0 0 0-1 .76 1.9 1.9 0 0 1-.58.37c-.2.06-.42.07-.67.02-.66-.12-1.23-.28-1.74-.46.17.05.56.13 1.18.24.63.11 1.2-.01 1.71-.36a61.72 61.72 0 0 1 1-.65Z" fill="#838293"/><path d="m6.07 12.25.86.6a1.79 1.79 0 0 1 .41.35l.3.34c.12.11.26.2.42.24a20.33 20.33 0 0 1 1.33.49c.39.16.74.35 1.06.56l-1.01.16c-.45-.24-.9-.45-1.37-.63-.52-.2-.91-.48-1.19-.86-.28-.4-.58-.79-.89-1.17a.2.2 0 0 1 .08-.08Z" fill="#D9D0D5"/><path d="M6 12.33c.3.38.6.77.88 1.17.28.38.68.67 1.2.86.46.18.92.39 1.36.63-1.7.1-3.18-.42-4.44-1.53.05-.14.08-.28.1-.44l.07-.07-.09.42c0 .03 0 .05.03.06.3.13.62.23.94.28.03 0 .06-.01.06-.05.12-.46 0-.84-.36-1.12l.24-.2Z" fill="#E6DDE4"/><path d="M13.37 13.11c-.43.48-.93.87-1.48 1.15l-.83-.13a13.02 13.02 0 0 1-1.87-.53 32.73 32.73 0 0 0-1.36-.56l1.06.27c.62.25 1.13.4 1.55.46.4.05.73-.05 1.02-.32.09-.07.2-.23.35-.48.12-.2.26-.4.42-.58l1.14.72Z" fill="#A1A3B6"/><path d="M11.05 12.6c-.31.18-.56.32-.74.4-.26.12-.6.16-1.03.13a5.06 5.06 0 0 1-1.05-.22 4.87 4.87 0 0 1 1.6-.43l1.38-.08c.02 0 .04.01.05.03v.02c0 .03-.01.04-.03.05l-.18.1Z" fill="#545469"/><path d="m8.89 13.31-1.06-.27v.01l1.37.55a13.02 13.02 0 0 0 1.86.53l.83.13-.68.32c-.57-.2-1.13-.41-1.67-.62a8.3 8.3 0 0 1-.96-.44l-1.46-.74-.34-.2c.69.3 1.4.54 2.1.73Z" fill="#B7B1BD"/><path d="M5.09 13.02c0 .16-.04.3-.1.44-.09-.08-.14-.15-.15-.22l.25-.22Z" fill="#EDB373"/></svg>