<!-- by TradingView --><svg width="18" height="18" viewBox="0 0 18 18" xmlns="http://www.w3.org/2000/svg"><path fill="#181B1E" d="M0 0h18v18H0z"/><circle cx="9" cy="9" r="5" fill="#C8BD6A"/><circle cx="9" cy="9" r="4.41" fill="#080600"/><ellipse cx="9" cy="9" rx="4.24" ry="4.19" fill="url(#a)"/><circle cx="9" cy="9" r="4" fill="url(#b)"/><path d="M9.01 5.07a3.9 3.9 0 0 0-1.93.5l.22.37a3.45 3.45 0 0 1 3.42.01l.22-.37A3.9 3.9 0 0 0 9 5.07Zm0 7.57a3.9 3.9 0 0 1-1.93-.5l.22-.38a3.45 3.45 0 0 0 3.42 0l.22.36a3.9 3.9 0 0 1-1.93.52Z" fill="#6E5C0D" fill-opacity=".5"/><path d="m5.72 7.5-.03-.15-.07.14-.16-.02.11.11-.07.15.14-.08.12.12-.03-.16.15-.08-.16-.02Zm-.23.7-.05-.15-.05.15h-.16l.13.1-.05.15.13-.1.13.1-.05-.16.13-.1H5.5Zm-.22.62.1.13.15-.06-.1.14.1.12-.15-.04-.1.13v-.16l-.15-.05.15-.05v-.16Zm.18.82-.13-.1.04.15-.14.08.16.02.04.15.06-.14.16.01-.12-.1.06-.15-.13.08Zm.05.64.15.07.1-.12v.16l.14.06-.16.04-.01.16-.08-.14-.16.03.1-.12-.08-.14Zm6.76-2.77.03-.16.07.14.16-.02-.12.11.08.15-.15-.08-.11.12.02-.16-.14-.08.16-.02Zm.23.69.05-.15.05.15h.16l-.13.1.05.15-.13-.1-.14.1.05-.16-.13-.1h.17Zm.21.62-.1.13-.15-.06.1.14-.1.12.15-.04.1.13v-.16l.15-.05-.15-.05v-.16Zm-.17.82.12-.1-.04.15.14.08-.16.02-.04.15-.06-.14-.16.01.12-.1-.06-.15.14.08Zm-.06.64-.15.07-.1-.12.01.16-.15.06.16.04.02.16.08-.14.16.03-.11-.12.08-.14Z" fill="#6D5B19"/><ellipse cx="9" cy="8.85" rx="3.24" ry="3.08" fill="#412825"/><path d="M8.8 5.8a.1.1 0 0 1 .04.03c-.01 0-.02 0-.03.03v.01l.18.35c.01.02.02.02.04 0l.1-.19.18-.18c0-.03.02-.04.03-.05a.4.4 0 0 1 .12.02l-.05.04c-.18.15-.3.32-.38.53a.22.22 0 0 0-.01.1c0 .04.02.07.04.09.06.06.15.12.25.17a5 5 0 0 0 .66.43c.32.19.65.36 1 .53.02.01.03 0 .04-.02l.03-.35v-.79c-.01-.04 0-.06.03-.06l.06.05a.29.29 0 0 0 0 .15v.17l.06.15.11.19.13.28a.02.02 0 0 0 .01.01.02.02 0 0 0 .02 0 .14.14 0 0 1 .08-.03c.02 0 .03 0 .03.02s-.01.04-.04.06a.13.13 0 0 0-.06.03 5.46 5.46 0 0 1 .25.96c.01.06-.02.1 0 .17.1.26.22.53.35.78l.06.14a.16.16 0 0 0-.02.08c-.03 0-.05 0-.06-.04a2.89 2.89 0 0 0-.04-.1l-.19-.44h-.02v.01l.12.5c.01.03 0 .05 0 .07-.02.02-.05.03-.1.01l-.03-.01-.05-.14-.2-.76c-.04-.12-.1-.22-.14-.3-.24-.36-.7-.31-.97-.02l-.2.21-.1.2c-.01.15-.05.24-.1.3-.12.02-.14-.07-.06-.28.04-.14.11-.27.2-.39 0-.01 0-.01 0 0l-.26.28a.04.04 0 0 1-.07 0v-.02c0-.01 0-.04.04-.08l.2-.2c.03-.02.02-.04-.03-.03a7.78 7.78 0 0 1-1.49.03l.28.2c.04.05.05.07.01.09h-.03l-.26-.2c-.02-.02-.03-.01 0 .02.12.18.16.36.11.53-.06 0-.1-.02-.12-.07a.9.9 0 0 0-.22-.5c-.34-.42-.75-.5-1.23-.26-.23.11-.42.28-.56.52a.82.82 0 0 0-.13.5l.07.17a8.31 8.31 0 0 0 .1 1.32h-.05l-.07-.08a.45.45 0 0 0 0-.2l-.06-.82a.03.03 0 0 0-.01-.02.03.03 0 0 0-.03 0c-.07.03-.11.01-.13-.07-.04-.26 0-.52.12-.78.06-.14.04-.28.06-.43v-.01c.01-.01.02-.02.03-.01l.01.01.02.01h.02a51.09 51.09 0 0 1 .91-.6l-.18-.09a.06.06 0 0 0-.05 0l-.11.05a.06.06 0 0 1-.07-.02l-.01-.02c-.02-.11-.07-.18-.15-.22L6.8 7.5v-.01a.02.02 0 0 1 0-.02.02.02 0 0 1 .02-.01h.04c.02 0 .02-.01.02-.03l-.05-.21-.04-.3c0-.15.03-.18.07-.09a3.78 3.78 0 0 0 .18.85.04.04 0 0 0 .03 0 9.65 9.65 0 0 0 1.77-.97L9 6.6c.01 0 .02-.02.01-.03-.1-.27-.25-.5-.46-.7V5.8l.27-.02Z" fill="#2F2927"/><path d="m8.84 5.83.47.02-.18.18-.1.19c-.02.02-.03.02-.04 0l-.18-.35a.02.02 0 0 1 0-.01c0-.03.02-.04.03-.03Z" fill="#FFB6AD"/><path d="M8.54 5.86c.21.2.37.43.46.7v.03l-.15.12c-.03 0-.05-.01-.07 0a53.85 53.85 0 0 0-1.46.53 30.14 30.14 0 0 1-.25-.57.41.41 0 0 1-.02-.14c0-.01 0-.03.02-.03l.59-.38a3.35 3.35 0 0 1 .82-.23c.02 0 .03 0 .04-.02l.02-.01ZM9.4 5.86c.63.07 1.17.3 1.64.7v.78a2.4 2.4 0 0 0-.35-.14l-.36-.12c-.33-.12-.67-.23-1.02-.33a.91.91 0 0 1-.25-.17.16.16 0 0 1-.04-.1l.01-.09c.07-.2.2-.38.38-.53Z" fill="#FFF7F7"/><path d="m7.66 6.12-.59.38a.04.04 0 0 0-.02.03c0 .06 0 .11.02.14a30.09 30.09 0 0 0 .25.57h.05l1.41-.53c.02-.01.04 0 .07 0-.03.03-.08.08-.17.13a9.65 9.65 0 0 1-1.64.83v-.01a3.78 3.78 0 0 1-.17-.83c0-.1-.03-.21.06-.26l.2-.16c.1-.09.28-.18.53-.29Z" fill="#FDC1CF"/><path d="m6.9 6.52.03.05c-.09.05-.07.16-.06.26-.04-.1-.06-.06-.07.1 0-.03 0-.06-.02-.08h-.03c-.08.18-.14.37-.18.58a4 4 0 0 0-.07.51l-.05.47-.01-.01h-.02l-.01.02c.02-.57.08-1.16.35-1.69.02-.02.02-.05 0-.09.06-.03.1-.07.14-.12Z" fill="#563528"/><path d="m11.26 6.75.17.25v.04a.33.33 0 0 1-.13.16 4.5 4.5 0 0 0-.1-.2.37.37 0 0 1-.06-.14l-.01-.17c.02-.05.06-.03.13.06Z" fill="#FFDCD5"/><path d="M6.76 6.73a4.07 4.07 0 0 0-.35 1.7c-.02.14 0 .28-.06.42-.12.26-.16.52-.12.78.02.08.06.1.13.07a.03.03 0 0 1 .04.01v.01l.07.83-.03.03c0 .05 0 .05-.02 0-.12-.2-.3-.47-.38-.7-.34-.95-.2-2 .43-2.81l.11-.17a.7.7 0 0 1 .18-.17ZM11.53 7.04c.08.25.22.5.3.72.14.39.18.8.19 1.2 0 .17-.02.17-.05 0a5.38 5.38 0 0 0-.44-1.42c.03-.02.04-.04.04-.06 0-.02-.01-.02-.03-.02a.14.14 0 0 0-.08.03.02.02 0 0 1-.03 0v-.01l-.13-.28c.07-.04.11-.1.13-.16V7l-.17-.25.27.3Z" fill="#FFB6AD"/><path d="m11.04 7.34-.03.35c0 .03-.02.03-.04.02-.35-.17-.68-.34-1-.53a5 5 0 0 1-.66-.43 11.08 11.08 0 0 1 1.38.45l.35.14Z" fill="#FDC1CF"/><path d="m6.8 6.93.04.29-.34.72a4 4 0 0 1 .07-.5c.04-.22.1-.41.18-.58.01-.02.02-.02.03 0l.02.07ZM12.07 9.48a5.71 5.71 0 0 1-.34-.78c-.03-.06 0-.11 0-.17a5.46 5.46 0 0 0-.26-.96.13.13 0 0 1 .06-.03l.18.49c.13.32.19.6.26.93.03.17.05.17.05 0 0-.4-.05-.81-.2-1.2-.07-.21-.21-.47-.29-.72l.18.24a3.08 3.08 0 0 1 .41 1.99 9.1 9.1 0 0 1-.05.21Z" fill="#EC8E88"/><path d="m6.84 7.22.05.2c0 .03 0 .04-.02.04h-.04a.03.03 0 0 0-.02 0 .02.02 0 0 0 0 .03v.01l.02.02c.08.04.13.11.15.22a.05.05 0 0 0 .03.04.06.06 0 0 0 .05 0l.1-.05h.06l.17.1a.02.02 0 0 1 0 .02 51.06 51.06 0 0 0-.94.56l.05-.47.34-.72Z" fill="#FFB6AD"/><path d="m8.55 9.07-.05.08c0-.24-.1-.43-.29-.55a.63.63 0 0 0-.63-.05c-.36 0-.7.09-1.04.28.14-.24.33-.41.56-.52.48-.24.9-.16 1.23.26.13.15.2.32.22.5ZM11.54 8.8l-.17-.12a.62.62 0 0 0-.51-.12c-.26-.1-.46-.05-.61.15l-.01-.02.2-.21c.26-.3.72-.34.96.02.05.08.1.18.14.3Z" fill="#D9CECD"/><path d="M9.88 8.7H8.84l-.28-.2c-.02-.02-.02-.03 0-.02.5.04 1 .04 1.5-.01.04 0 .05 0 .01.04l-.19.19Z" fill="#E8B5A9"/><path d="M8.5 9.15c0 .3-.15.47-.45.51-.19.03-.36 0-.5-.1-.28-.2-.35-.46-.2-.78.02-.05.1-.13.23-.23.23-.1.44-.08.63.05.19.12.28.3.29.55Z" fill="#2F2927"/><path d="M10.02 9.19c.03.33.2.52.52.58l.25.03a4 4 0 0 0 .12.84l.02.23c-.4.08-.8.12-1.21.12l-1.41-.02c-.23 0-.6-.05-1.1-.14.3-.3.46-.63.21-1.04.2 0 .4 0 .6-.02a.65.65 0 0 0 .38-.15c.05-.05.1-.12.15-.23l.12-.25c.05-.17 0-.35-.12-.53-.02-.03-.01-.04.01-.02l.26.2h.03c.04-.02.03-.04 0-.09h1.03l-.05.08.01.02h.02a.04.04 0 0 0 .05 0l.25-.29h.01v.01c-.09.12-.16.25-.2.4-.08.2-.06.3.05.27Z" fill="#FFE9E2"/><path d="M7.58 8.55c-.13.1-.2.18-.23.23-.15.32-.08.58.2.78.14.1.31.13.5.1.3-.04.45-.21.45-.51l.05-.08c.02.05.06.08.12.07l-.12.25c-.05.1-.1.18-.15.23a.65.65 0 0 1-.38.15l-.6.02c-.2-.02-.66-.02-.81-.17a3.17 3.17 0 0 1-.13-.12.64.64 0 0 1-.07-.18.82.82 0 0 1 .13-.5c.33-.18.68-.28 1.04-.27ZM11.54 8.8l.2.76a.89.89 0 0 1-.56.22l-.39.02a3.6 3.6 0 0 1-.25-.03c-.32-.05-.5-.25-.52-.58.06-.06.1-.15.11-.3 0 .02.02.02.03.01a.94.94 0 0 0-.01.48c.06.23.59.4.77.22.21-.2.2-.56.1-.83a.48.48 0 0 0-.16-.2c.2-.04.36 0 .5.1l.18.13Z" fill="#fff"/><path d="M12.01 9.56c-.1.3-.24.62-.44.94a.98.98 0 0 1-.3.32l-.02-.01a2.53 2.53 0 0 0 .63-1.03h-.02l-.1.24c-.05.11-.05.11-.02 0l.08-.3c.05 0 .08 0 .1-.02v-.08a20.27 20.27 0 0 0-.11-.5h.01l.2.44Z" fill="#D5A383"/><path d="M6.49 9.5c.05.4.14.8.26 1.19.07.14.18.28.31.43-.16 0-.32-.11-.48-.34a8.31 8.31 0 0 1-.1-1.27Z" fill="#EC8E88"/><path d="m6.52 9.53.06.11c.01.02.02.03.04.03.14.06.38.15.48.27.22.29-.1.56-.35.76v-.01c-.12-.4-.2-.79-.26-1.18l.03.02Z" fill="#FFB6AD"/><path d="M7.42 9.8c.25.4.08.73-.22 1.03-.2 0-.35-.04-.45-.13.25-.2.57-.47.35-.76-.1-.12-.34-.21-.48-.27a.07.07 0 0 1-.04-.03l-.06-.11.09.1c.15.14.6.14.81.16Z" fill="#FFCCC4"/><path d="m11.74 9.56.05.14a3 3 0 0 1-.58 1.11.57.57 0 0 1-.25.06c.44-.3-.16-.72.22-1.1a.89.89 0 0 0 .56-.2Z" fill="#FFB6AD"/><path d="m11.82 9.71-.08.3c-.03.12-.03.12.02.01l.1-.24h.02c-.12.4-.33.74-.63 1.03h-.04a3 3 0 0 0 .58-1.11l.03.01Z" fill="#EC8E88"/><path d="M11.18 9.78c-.38.37.22.8-.22 1.1h-.03c0-.12 0-.2-.02-.24a4 4 0 0 1-.12-.84l.4-.02Z" fill="#FFDCD5"/><path d="M6.75 10.7c.1.09.25.13.45.13.5.09.88.13 1.1.14l1.42.02a5.79 5.79 0 0 0 1.49-.18h.04l.01.01-.05.02a.89.89 0 0 0-.3.23l-1.41.08c-.55.02-1.14-.02-1.7-.02h-.74a1.96 1.96 0 0 1-.31-.43Z" fill="#E8B5A9"/><path d="m7.06 11.12.74.01c.56 0 1.15.04 1.7.02a68.55 68.55 0 0 0 1.76-.1c-.04.03-.06.06-.06.07l-.3.02-1.42.1c-.03 0-.04 0-.05-.02h-.86l-1.23-.02-.4.01-.33-.3-.08-.09h.05v-.04c.16.23.32.34.48.34Z" fill="#412825"/><path d="m11.2 10.84-.18.22h-.1c.08-.09.18-.16.29-.22Z" fill="#D5A383"/><path d="M10.9 11.14c.02.03.02.07-.02.12a4.27 4.27 0 0 1-.6.34c-.07.04-.13.01-.17-.08.13-.02.24-.05.32-.1.14-.07.14-.1-.02-.07-.09.02-.21.05-.37.11a.35.35 0 0 0-.3-.06c-.2.05-.28.2-.3.4 0 .04-.03.06-.07.06h-.22c-.03 0-.04-.01-.02-.03l.35-.59 1.42-.1Z" fill="#DD6A8B"/><path d="m7.34 11.2-.24.02c-.02 0-.02.01-.01.03l.03.02c.23.16.46.29.7.38v.07c-.32-.12-.62-.29-.89-.5l.41-.02Z" fill="#865B32"/><path d="M8.57 11.22a2.52 2.52 0 0 1 .45.65.02.02 0 0 1-.02 0c-.08.01-.16 0-.25-.02-.02 0-.03-.02-.03-.03 0-.28-.2-.5-.5-.48a.43.43 0 0 0-.29.15 9.3 9.3 0 0 0-.84-.24v-.03l.25-.02 1.23.02Z" fill="#DD6A8B"/><path d="m9.43 11.22-.35.54a.02.02 0 0 1-.01.01h-.02l-.4-.55h.78Z" fill="#E8B5A9"/><path d="m7.93 11.49-.1.16a3.3 3.3 0 0 1-.7-.38c0-.03.03-.03.08 0l.07.02c.21.06.43.12.65.2ZM10.1 11.52l-.06-.06c.16-.06.28-.1.37-.1.16-.03.16 0 .02.06-.08.05-.2.08-.32.1Z" fill="#EC8E88"/><path d="M8.78 6.01a.57.57 0 0 1-.09-.1c-.05-.09-.04-.1.04-.05A.56.56 0 0 1 8.8 6Z" fill="#A47663"/><path d="m9.64 7.09-.3.05c-.28.02-.55-.01-.8-.1l.49-.36h.02l.6.4Z" fill="#FFB6AD"/><path d="M8.55 7.03a1.83 1.83 0 0 0 1.1.06c.17.1.29.16.33.2.05.03.1.1.15.22l-.56.08H9v-.01h-.04c-.18 0-.32-.03-.43-.06a2.23 2.23 0 0 0-.34-.08l.04-.2c0-.01 0-.03.02-.03l.3-.18Z" fill="#FFDCD5"/><path d="M11.3 7.59a.42.42 0 0 1-.1-.14.1.1 0 0 0-.03-.04c-.03-.02-.04-.02-.05 0l.02-.33c0-.06.02-.07.04 0l.2.42v.04a.26.26 0 0 1-.09.05Z" fill="#EC8E88"/><path d="m7.3 7.67.7-.34c.21-.12.23-.1.05.06a3.67 3.67 0 0 1-.58.4l-.17-.1v-.01ZM10.28 7.44l.69.36-.13.1h-.03a12.3 12.3 0 0 1-.55-.43c-.11-.08-.1-.1.02-.03Z" fill="#FFB6AD"/><path d="m11.3 7.59-.2.12a.02.02 0 0 1-.01 0V7.7l.03-.28c0-.03.02-.03.05 0a.1.1 0 0 1 .02.03l.1.14Z" fill="#FFCCC4"/><path d="M8.18 7.44c.08 0 .2.03.34.08.1.03.25.06.43.06l.03.63c-.2-.03-.35-.07-.46-.12l-.38-.14.04-.51Z" fill="#FFB6AD"/><path d="M8.05 7.84a.74.74 0 0 1-.24.15l-.23-.14v-.02l.48-.34a.01.01 0 0 1 .02 0l-.03.35Z" fill="#E8B5A9"/><path d="M10.28 7.88c-.16.16-.36.27-.6.33 0-.22-.04-.42-.1-.62l.55-.08.15.37ZM9.54 7.59c.07.22.1.43.08.65l-.59-.02-.04-.62.55-.01Z" fill="#FFB6AD"/><path d="M10.6 8.07a.34.34 0 0 0-.22-.14l-.12-.33a.01.01 0 0 1 .02-.01l.46.35a.02.02 0 0 1 0 .02l-.14.11Z" fill="#E8B5A9"/><path d="M11.66 8.58c0-.07-.03-.12-.06-.14a5.6 5.6 0 0 1-.35-.27 1.22 1.22 0 0 1-.34-.2v-.02l.46-.33c.03-.02.05-.01.06.01a4.86 4.86 0 0 1 .25.95h-.02Z" fill="#FFB6AD"/><path d="M8.05 7.84v.26c0 .02-.01.03-.03.02l-.2-.13a.74.74 0 0 0 .23-.15Z" fill="#FFF7F7"/><path d="M9.68 8.21c.24-.06.44-.17.6-.33l.08.35c0 .01 0 .03-.02.04l-.14.12a.08.08 0 0 1-.05.02h-.46l-.01-.01V8.2Z" fill="#EC8E88"/><path d="m7.5 7.9.18.1c.03.02.03.02 0 .02-.2 0-.37.03-.54.1h-.01V8.1l.34-.21a.04.04 0 0 1 .03 0Z" fill="#E8B5A9"/><path d="m10.6 8.07-.14.1h-.02l-.06-.24c.09.02.16.06.22.14Z" fill="#FFE9E2"/><path d="M8.98 8.21v.19a.03.03 0 0 1 0 .02.03.03 0 0 1-.03.01l-.4-.03a.44.44 0 0 1-.21-.06l-.19-.14a.06.06 0 0 1-.02-.05v-.2l.39.14c.1.05.26.09.46.12Z" fill="#EC8E88"/><path d="m10.65 8.12.15-.1c.02-.02.03-.02.05 0l.07.05v.02l-.26.05c-.04 0-.04 0-.01-.02Z" fill="#D9CECD"/><path d="M9.62 8.24v.16c0 .02 0 .03-.03.03h-.56v-.21l.59.02Z" fill="#EC8E88"/><path d="M8.83 6.45a1.22 1.22 0 0 0-.64-.1c-.03.03-.06.04-.11.02a.04.04 0 0 1-.03-.03c-.03-.16.06-.36.24-.36.1 0 .17.02.24.08l.25.23c.03.02.04.08.05.16ZM9.8 6.4a1.54 1.54 0 0 0-.51.02c-.03.01-.03.02 0 .04.02.01.05 0 .1-.02.01.09 0 .15-.06.2a.05.05 0 0 1-.05 0 .27.27 0 0 1-.19-.16v-.05c.1-.24.34-.38.59-.44.06-.02.1 0 .12.03a1.46 1.46 0 0 1 .16.32.04.04 0 0 1-.01.03l-.02.01-.12.02Z" fill="#FDC1CF"/><path d="M7.91 8.9c.21.03.32.13.34.3 0 .11-.04.2-.13.27 0-.15-.06-.21-.16-.2.12-.03.16-.1.13-.22-.04-.11-.19-.14-.27-.04-.06.08-.06.16.03.24-.08.03-.12.1-.14.2-.18-.2-.14-.39.11-.55h.1Z" fill="#EF85A1"/><path d="M7.96 9.27c-.03 0-.07 0-.11-.02-.09-.08-.1-.16-.03-.24.08-.1.23-.07.27.04.03.12-.01.19-.13.22Z" fill="#2F2927"/><path d="M7.85 9.25c.04.02.08.02.11.02.1-.01.16.05.16.2-.14.09-.28.09-.4-.02 0-.1.05-.17.13-.2Z" fill="#FFDCD5"/><path d="M8.78 9.7a9.24 9.24 0 0 1 .9.19s.02.02.01.03a.86.86 0 0 1-.29.49c-.25.21-.66.26-.8-.1a.7.7 0 0 1 .06-.62c.02-.04.04-.05.08-.04l.01.03c0 .02.02.03.03.03Z" fill="#2F2927"/><path d="m10.53 8.96-.04.04c-.1-.06-.13-.13-.08-.22a.1.1 0 0 1 .07-.05.1.1 0 0 1 .1.03c.03.05.02.11-.05.2Z" fill="#FFF7F7"/><path d="M10.53 8.96c.13-.02.22 0 .26.06.14.19.13.35-.05.5 0-.15-.06-.25-.16-.29.01-.11-.02-.2-.1-.23l.05-.04Z" fill="#EF85A1"/><path d="M10.58 9.23c.1.04.16.14.16.29-.23.04-.37-.04-.4-.24-.01-.03 0-.04.02-.01l.03.04.03.03c.08.02.13-.02.16-.1Z" fill="#FFDCD5"/><path d="M8.49 11.46a.1.1 0 0 1 0 .05c0 .02 0 .03-.03.03h-.02a.5.5 0 0 0-.21-.04c-.04-.03-.06-.06-.05-.1.12-.03.22-.01.3.06Z" fill="#FFF7F7"/><path d="M8.18 11.4c0 .04 0 .07.05.1-.1.03-.16.09-.17.17 0 .02-.02.03-.05.03h-.04a.04.04 0 0 1-.04-.01.04.04 0 0 1 0-.03c0-.14.1-.22.25-.26Z" fill="#B4AAA4"/><path d="m9.79 11.55-.06-.09c.13-.04.23-.03.28.05.07.1.05.12-.05.06a.36.36 0 0 0-.17-.02Z" fill="#FFE9E2"/><path d="M8.44 11.54h.02c.02 0 .03-.01.03-.03a.1.1 0 0 0 0-.05c.14.1.19.22.14.38 0 .01 0 .02-.02.02-.01 0-.02 0-.02-.03a.45.45 0 0 0-.15-.3ZM9.73 11.46l.06.09a.25.25 0 0 0-.2.24c0 .02 0 .03-.02.03l-.04-.01-.01-.03c-.02-.16.05-.26.2-.32Z" fill="#B4AAA4"/><path d="m8.43 11.8-.24-.04a.08.08 0 0 1-.06-.05.08.08 0 0 1 0-.08c.15-.17.31 0 .33.15 0 .02 0 .03-.03.03Z" fill="#DD6A8B"/><path d="M9.7 11.8h-.02a.02.02 0 0 1 0-.02l-.01-.01a.12.12 0 0 1 .02-.1.14.14 0 0 1 .09-.06c.04 0 .07 0 .1.02s.05.05.06.08v.03h-.02l-.22.06Z" fill="#9F605B"/><path d="M9.04 9.9a.02.02 0 0 1 0 .02.02.02 0 0 1-.02 0h-.05a1.63 1.63 0 0 1-.2-.05l-.07-.04V9.8h.09a1.24 1.24 0 0 1 .2.02h.05a.02.02 0 0 1 .01.01.02.02 0 0 1 0 .02v.06ZM9.5 9.92l-.01.02h-.37c-.02 0-.03-.02-.03-.04l.01-.03c0-.02.02-.02.03-.02.13 0 .25.02.36.07Z" fill="#FFF7F7"/><path d="M8.98 9.98c.17.1.3.2.42.31-.1.1-.2.17-.32.2-.36.06-.5-.31-.42-.58a.03.03 0 0 1 .01-.02.03.03 0 0 1 .03 0l.28.09Z" fill="#FFB6AD"/><path d="M9.4 10.29a1.7 1.7 0 0 0-.42-.31c.22.02.37.02.46.01.04 0 .05-.02.05-.05v-.02l.08.03c.02.01.03.02.02.04a.63.63 0 0 1-.2.3Z" fill="#9F605B"/><defs><linearGradient id="a" x1="9" y1="4.81" x2="9" y2="13.19" gradientUnits="userSpaceOnUse"><stop stop-color="#F7E9A1"/><stop offset=".4" stop-color="#F2D45C"/><stop offset=".62" stop-color="#F7E071"/><stop offset="1" stop-color="#5B3409"/></linearGradient><linearGradient id="b" x1="9" y1="5" x2="9" y2="13" gradientUnits="userSpaceOnUse"><stop stop-color="#FDE493"/><stop offset=".19" stop-color="#FFEDA9"/><stop offset=".28" stop-color="#FFDA60"/><stop offset=".56" stop-color="#FFF2AB"/><stop offset=".77" stop-color="#E1BB36"/><stop offset="1" stop-color="#F1DE73"/></linearGradient></defs></svg>