<!-- by TradingView --><svg width="18" height="18" viewBox="0 0 18 18" xmlns="http://www.w3.org/2000/svg"><path fill="url(#a)" d="M0 0h18v18H0z"/><path d="M11 4.1v5.6c0 .08 0 .15-.05.2l-3.59 3.92a.1.1 0 0 0 .08.18h3.6a.3.3 0 0 0 .22-.1l2.65-2.72a.31.31 0 0 0 .09-.21V6.95a.31.31 0 0 0-.09-.22l-2.7-2.7c-.07-.07-.21-.02-.21.07Zm-4 9.8V8.3c0-.07 0-.15.06-.2l3.58-3.92a.1.1 0 0 0-.08-.18h-3.6a.3.3 0 0 0-.22.1L4.1 6.81a.31.31 0 0 0-.09.21v4.02c0 .08.03.16.09.22l2.7 2.7c.07.07.21.02.21-.07Z" fill="#fff"/><defs><linearGradient id="a" x1="15" y1="1.63" x2="3.47" y2="16.13" gradientUnits="userSpaceOnUse"><stop stop-color="#0880FB"/><stop offset="1" stop-color="#1802A3"/></linearGradient></defs></svg>