<!-- by TradingView --><svg width="18" height="18" viewBox="0 0 18 18" xmlns="http://www.w3.org/2000/svg"><path fill="#1D1958" d="M0 0h18v18H0z"/><path d="M13.05 7.06c.3.22.54.44.7.73.11.2.2.43.23.66h-.75c-1.28-2-2.76-.53-4.02.84-.29.31-.6.62-.92.92-1.05.97-2.47 1.66-3.78.65a2.36 2.36 0 0 1-.9-1.49s0-.02-.02-.01H3v-.68l.03-.04a.06.06 0 0 1 .04-.02h.51c.02 0 .03 0 .03-.02.08-.5.29-.91.63-1.26.72-.71 2.01-1 2.93-.5a.03.03 0 0 0 .03 0 2.4 2.4 0 0 1 3.2-.4.06.06 0 0 1 .02.05v.03l-.02.02a3 3 0 0 0-.58.43l-.03-.01c-.97-.54-1.84.07-2.46.83a.07.07 0 0 1-.05.02.06.06 0 0 1-.05-.02c-.83-.81-2.59-.4-2.84.82v.01h1.69c.02 0 .03 0 .04.02l.02.04v.62a.06.06 0 0 1-.01.04.06.06 0 0 1-.04.02H4.4c-.02 0-.02 0-.02.02.37 1.42 2.18 1.48 3.05.59.43-.43.85-.83 1.28-1.3C9.8 7.5 11.09 5.9 13.05 7.06Z" fill="#fff"/><path d="M13.38 9.38h.55l.04.01.02.02a.06.06 0 0 1 0 .05 2.37 2.37 0 0 1-2.08 1.93c-.4.04-.8-.04-1.16-.23l-.03.01c-.5.58-1.13.86-1.88.83-.4-.03-.78-.16-1.12-.4a.23.23 0 0 1-.07-.07.05.05 0 0 1 0-.05l.01-.01a3.07 3.07 0 0 0 .56-.44h.04c.95.55 1.75-.08 2.36-.85.05 0 .1.03.16.08l.14.11c.84.56 2.05.14 2.32-.94 0-.01.01-.03.03-.03a.2.2 0 0 1 .1-.02Z" fill="#0C86FF"/></svg>