<!-- by TradingView --><svg width="18" height="18" viewBox="0 0 18 18" xmlns="http://www.w3.org/2000/svg"><path fill="#F0F3FA" d="M0 0h18v18H0z"/><path d="M9 3a6 6 0 1 1 0 12A6 6 0 0 1 9 3Z" fill="url(#a3w0hcpo0)"/><path d="M9 3.38a5.62 5.62 0 1 1 0 11.24A5.62 5.62 0 0 1 9 3.38Z" fill="#181B1E"/><path d="M12.62 6.2h-1.13S10.92 4 9 4C7.08 4 6.5 6.2 6.5 6.2H5.4l.53 1.63c-.16-.12-1.1-.36-1.1 1.08-.01 1.29 1 1.5 1.17 1.46l-.34.91 1.25.46v.48L9 13.56l2.09-1.34v-.48l1.25-.46-.24-.83c.17.04 1.08-.32 1.08-1.54 0-1.35-.88-1.27-1.04-1.16l.48-1.55Z" fill="#0047D6"/><path d="m12.86 6-.59 1.59c.12 0 .26 0 .4.05.18.06.37.18.5.4.14.21.22.5.22.87 0 .7-.24 1.14-.58 1.39-.17.12-.34.2-.49.25l.32.86-1.43.5v.44L9 13.83l-2.2-1.48v-.45l-1.44-.49.4-.86A1.66 1.66 0 0 1 4.61 8.9c0-.37.07-.66.2-.87a.94.94 0 0 1 .51-.4c.14-.04.28-.05.4-.05L5.13 6h1.23l.07-.17C6.91 4.86 7.9 4 9 4c1.1 0 2.08.86 2.56 1.84l.07.16h1.23ZM6 7.9a.66.66 0 0 0-.26-.07c-.37-.05-.92.07-.92 1.08 0 .95.59 1.33.96 1.43.1.03.18.04.22.03l-.34.91 1.34.46v.48l2 1.35 2-1.35v-.48l1.34-.46-.34-.91c.04 0 .12 0 .22-.03.37-.1.96-.48.96-1.43 0-1.02-.63-1.14-1-1.08-.12.01-.14.05-.18.08l.55-1.68h-1.06s-.99-2-2.49-2c-1.5 0-2.5 2-2.5 2H5.44L6 7.9Z" fill="#99FFD8"/><path d="m8.05 5.34.4.18v.75l-.4.44-.51-.2v-.66s.19-.3.51-.5ZM9.95 5.34l-.4.18v.75l.4.44.51-.2v-.66s-.18-.3-.51-.5ZM7.8 10.2v.9s.5.3 1.2.3c.35 0 .77-.08 1.2-.3v-.9s-.52.28-1.21.28c-.36.01-.77-.06-1.19-.28Z" fill="#99FFD8"/><path fill-rule="evenodd" d="M11 8H7v.99l.6.33v.58s.57.3 1.4.3c.42 0 .88-.07 1.39-.3v-.58l.61-.35V8Zm-.4.37H7.4v.46c.16 0 .22.05.28.11.08.08.17.16.48.16.32 0 .44-.09.54-.16.08-.06.15-.11.3-.11s.22.05.3.1c.1.08.2.16.52.16.31 0 .42-.08.5-.15.08-.06.14-.1.28-.1v-.47Z" fill="#99FFD8"/><defs><linearGradient id="a3w0hcpo0" x1="6" y1="3.56" x2="12" y2="14.44"><stop offset="1" stop-color="#FC0084"/></linearGradient></defs></svg>