<!-- by TradingView --><svg width="18" height="18" viewBox="0 0 18 18" xmlns="http://www.w3.org/2000/svg"><path fill="url(#a4svquhr2)" d="M0 0h18v18H0z"/><path d="M14 12V6L9 3 4 6v6l1.5.99V7L9 4.99l3.5 2V11L9 13v2l5-3Z" fill="url(#b4svquhr2)"/><path opacity=".2" d="M14 6 9 3 4 6l1.66 1L9 4.99l3.34 2L14 6Z" fill="#fff"/><path d="M11.5 7.61 9 6.23 6.5 7.6v6l1.5.77v-6l1-.61 1 .61v1.24l-1 .61v1.54l2.5-1.38V7.6Z" fill="url(#c4svquhr2)"/><path opacity=".2" d="M9 6.23 6.52 7.6l1.38.77L9 7.77l1.1.61 1.4-.77L9 6.23Z" fill="#fff"/><defs><linearGradient id="a4svquhr2" x1="3.35" y1="3.12" x2="21.9" y2="24.43" gradientUnits="userSpaceOnUse"><stop stop-color="#1A1E21"/><stop offset="1" stop-color="#06060A"/></linearGradient><linearGradient id="b4svquhr2" x1="11.5" y1="4.5" x2="6.21" y2="13.32" gradientUnits="userSpaceOnUse"><stop stop-color="#4E4AFF"/><stop offset="1" stop-color="#A873FF"/></linearGradient><linearGradient id="c4svquhr2" x1="10.24" y1="6.92" x2="6.5" y2="13.6" gradientUnits="userSpaceOnUse"><stop stop-color="#4E4AFF"/><stop offset="1" stop-color="#A873FF"/></linearGradient></defs></svg>