<!-- by TradingView --><svg width="18" height="18" viewBox="0 0 18 18" xmlns="http://www.w3.org/2000/svg"><path fill="#F0F3FA" d="M0 0h18v18H0z"/><path d="M6 6a3 3 0 0 1 6 0H6Zm0 3V3a3 3 0 0 0-3 3h3a3 3 0 0 0 0 6H3a3 3 0 0 0 3 3v-3a3 3 0 0 0 6 0v3a3 3 0 0 0 3-3h-3a3 3 0 1 0 0-6h3a3 3 0 0 0-3-3v6a3 3 0 1 0-6 0Zm3 3H6V9a3 3 0 0 0 3 3Zm0 0a3 3 0 0 0 3-3v3H9Z" fill="url(#a)"/><defs><linearGradient id="a" x1="3.19" y1="9" x2="15" y2="9" gradientUnits="userSpaceOnUse"><stop stop-color="#40E0B7"/><stop offset="1" stop-color="#02114C"/></linearGradient></defs></svg>