<!-- by TradingView --><svg width="18" height="18" viewBox="0 0 18 18" xmlns="http://www.w3.org/2000/svg"><path fill="#F0F3FA" d="M0 0h18v18H0z"/><path d="M9 3a5.91 5.91 0 1 1 0 11.83A5.91 5.91 0 0 1 9 3Z" fill="url(#a32tkzj0m)"/><path d="M4.8 5.7c-.03.18-.12.08-.07.3.02.11.07.2.12.32.07.16.2.45.23.6h.03c.67-.43 2.83-2.38 7.89-.45 0 0-.04.02 0 0l.06-.03c.06-.06.23-.47.2-.56A5.88 5.88 0 0 0 12 4.62a5.2 5.2 0 0 0-7.05.97l-.14.1ZM4.03 7.48a6.8 6.8 0 0 0-.2 2.5c.1.6.36 1.26.7 1.77l.1.16.03.04c.15.14.2.2.32.35a5.3 5.3 0 0 0 3.17 1.8c.12-.04.1-.07.23-.2l.15-.16.03-.05c-.04-.05-.03-.18-.06-.23-2.35.58-3.07-4.1-3.74-5.97.11-.09.1-.25.29-.25H4.8c-.12 0-.66.18-.77.24Z" fill="#1A2A44"/><path d="m5.08 6.93.05.15-.1.05-.06.02-.06.02c-.05.01-.06.02-.11.07h.25c-.12 0-.16.07-.2.14a.34.34 0 0 1-.1.1c-.1.08-.16.13-.22.16l-.11.08c-.06.06-.09.16-.17.47l-.03.09-.05.61v.34c-.05.19-.01.6 0 .63l.04.08.02.13v.05l.04.21.04.23.02.04a2.43 2.43 0 0 1 .13.37c0 .05.01.07.13.25.06.08.07.12.08.16l.04.1.05.08.04.03a.2.2 0 0 1 .04.08l.03.06a.2.2 0 0 1 .02.02l.04.02v.01c.1.07.11.08.12.1v.03c0 .03.01.07.05.17l.02.03v.01l.01.01c.06.1.06.1.14.16l.13.1.18.12c.08.05.1.08.14.12l.06.06c.05.05.08.06.11.08l.12.06.1.1c.04.05.08.09.2.18l.04.03c.1.08.13.09.16.1a.5.5 0 0 1 .12.06h.01l.01.01.14.1c.1.04.14.04.2.04s.13.01.27.07l.6.17c.1 0 .09 0 .07-.01-.01 0-.03-.01.06-.02h.06c0 .01-.02.02.04.02.11 0 .13-.01.15-.04.01-.02.03-.05.09-.07v.1l.03-.02a.35.35 0 0 1 .14-.06l.02.04.03.05c.1-.05.18-.14.26-.23l.12-.12c.09.05.13.1.18.14.04.05.08.09.14.13v-.08h.02-.01v.11l.01.03.02.01.04.05c.4.48.45.5.8.43a5.3 5.3 0 0 0 1.16-.4c.52-.25.67-.37.96-.6l.23-.17a4.46 4.46 0 0 0 1.29-1.69 5.38 5.38 0 0 0 .4-3.43l-.01-.1c-.01-.09-.02-.13-.07-.18-.08-.09-.56-.23-.7-.27l-.56-.2.23-.67a.36.36 0 0 0-.05.03c-.05.02-.01 0 0 0l-.03-.01c-.03-.02-.04-.02.03-.13-.19 0-.19-.02-.18-.1 0-.05.01-.14-.08-.28l-.03-.06a.43.43 0 0 0-.1-.17 1.76 1.76 0 0 0-.03-.04c-.05-.05-.07-.09-.09-.18h.01l-.01-.02v.02l-.05-.01c-.08-.02-.1-.05-.12-.1-.02-.01-.03-.04-.05-.07l-.02-.01-.07-.07a.46.46 0 0 0-.05-.04l-.04-.04a1.14 1.14 0 0 1-.11-.1l-.09-.08-.93-.56h-.05l-1.1-.34a2.8 2.8 0 0 0-1.36-.03.21.21 0 0 1-.12.01l-.17.01c-.1.02-.1.03-.11.04l-.03.02c-.1.04-.18.05-.28.08-.17.04-.39.09-.74.23-.3.13-.45.23-.62.33l-.26.16-.05.02-.06.03c-.05.03-.05.04-.06.06 0 .02-.02.06-.13.15l-.04.03-.01.01-.12.1c-.03.02-.03.03-.12.15l-.33.31c-.12.16-.16.26-.1.48.04.22.04.3.05.46v.15l-.05.04H5.1l-.02.01Z" fill="#254472"/><path d="M9.06 4.96c.02.03 0 0 .05.04l.11.09c.13.13-.05.04.14.14.13.07.15.06.3.22-.13.63-.46.43-.47.6l-.03.09c1.98-.12 2.57 1.96 2.92 3.29-.01.16-.03.1-.07.23.17.25.29.2.48.4.1.14 0 .15.2.18a.1.1 0 0 1-.01-.01l-.09-.06c.04-.85.1-.42.14-.75.05-.42.05-.02.1-.34.04-.23-.04-.07 0-.28v-.02c.06-.31.1 0 .04-.25-.02-.14-.03.03-.03-.18 0-.17.04-.33-.05-.42-.12-.13-.13-.03-.14-.28-.06-.02 0 .06-.06-.03l-.08-.13c-.04-.09-.01-.1-.07-.17-.03-.05-.03-.03-.05-.05-.07-.06 0 .02-.04-.03l-.09-.2c-.12-.41-.02-.13-.18-.33-.09-.1.01-.1-.13-.25l-.07-.07-.1-.1c-.2-.14.07.16-.12-.15l-.2-.2a.32.32 0 0 0-.14-.08c.06-.13.05-.06.01-.12-.12.04-.04-.04-.11.13-.02-.15-.01-.06-.04-.15-.1-.29-.15-.02-.32-.24-.07-.08 0-.11-.24-.09l.05-.08c-.2 0-.1-.02-.14-.04l-.35-.16C9.95 5 9.99 5.04 9.76 5l-.12-.02c-.49-.04-.11-.13-.43-.07h-.05c-.1.04-.02-.01-.1.06Z" fill="#2D5593"/><path d="m5.26 10.64-.03.17c-.17.03-.21.09-.25.14-.03.04-.06.08-.15.1l-.01-.12v-.09l-.01-.12s-.01.04-.05-.04c-.04-.1-.06-.26-.07-.36l-.01-.07c-.03-.08-.05-.1-.07-.12-.03-.03-.05-.05-.03-.3 0-.1.01-.2-.02-.28l-.04-.09V9.34c.01-.04 0-.07-.01-.1-.04-.07-.08-.18-.05-.54l.01-.12.06-.39a.43.43 0 0 0 0-.19c-.02-.06-.03-.07.13-.08-.03-.07-.05-.06-.05-.06l-.01-.02c-.01-.05.02-.05.04-.05h.01c.1-.06.1-.07.12-.1a.32.32 0 0 1 .07-.06.8.8 0 0 1 .1-.06l.1-.07.04-.03c.05-.04.1-.08.14-.14.15-.22.13-.43.1-.66a1.61 1.61 0 0 1 0-.5c.05-.2.33-.55.49-.67l.4-.32H6.32c.08-.03.1-.07.1-.1.02-.04.03-.07.18-.04l-.03-.08.03-.05a.47.47 0 0 1 .3 0v-.1l.05-.05c.1-.15.2-.15.3-.15.04 0 .09 0 .14-.03l.04-.03.08-.05a.2.2 0 0 1 .12-.02c.05 0 .13.02.29-.02l.01.05.01.03.05.15.08.09.3.47c-.1.02-.1.03-.12.06 0 .02-.02.05-.06.1l-.1.23-.13.25-.11.14C8 7.2 7.75 7.48 7.3 7.95c-.33.35-.76.8-1.23 1.82-.02.13-.1.28-.19.34l-.07-.03-.04-.07-.04-.09-.03-.02-.07.2-.02.01v.01l-.07.29a.27.27 0 0 1-.08.1.21.21 0 0 0-.06.08l-.14.05Z" fill="#2E5A9B"/><path d="m6.68 4.11-.02.02-.27.16-.28.17c-.2.13-.3.22-.48.36-.2.15-.75.66-.83.88l.14-.11A5.2 5.2 0 0 1 12 4.62c.3.2 1.2 1.02 1.27 1.26.03.1-.15.5-.2.56l-.24.67.56.2c.14.03.63.18.7.27.07.06.06.12.09.28.16.84.18 1.65-.05 2.5-.12.46-.26.71-.44 1.11a4.55 4.55 0 0 1-1.2 1.51c-.48.36-.56.46-1.2.77-.3.15-.8.33-1.15.4-.36.07-.4.05-.81-.44-.07-.08-.04-.03-.07-.11-.15-.08-.16-.18-.32-.27-.12.1-.25.29-.38.35l-.03.05-.15.16c-.12.14-.1.16-.23.2-.08.15-.25.08-.42.03-1.68-.42-2.4-1.35-2.56-1.44.12.15.27.26.39.4.15.08.43.33.78.54.14.07.29.16.45.23.15.07.32.12.46.2l.76.21c-.06.06-.16.18-.2.25l.18.07.14.01c.07-.12.75-.8.84-.84.13.1.1.1.19.2.1.12.14.08.24.2.15.2.33.36.37.47l.22-.03.1-.07a1.23 1.23 0 0 1-.2-.24c.11-.05.36-.07.5-.11l.48-.17a4.74 4.74 0 0 0 1.81-1.14c.08-.07.04-.04.13-.09.04-.1.15-.16.26-.3a5.2 5.2 0 0 0 1.28-3.9c-.02-.3-.16-.8-.15-1l.2.06c.06-.05.01.02.03-.1l-.05-.23a5.11 5.11 0 0 1-1.14-.4c.04-.23.31-.79.38-1.01.05-.17-.02-.17-.1-.32-.1-.03-.05-.12-.18.21-.1-.1-.33-.44-.51-.6-.1-.1-.13-.08-.2-.2-.09-.04-.34-.27-.47-.36-.43-.29-.81-.53-1.33-.7-.1-.03-.22-.05-.3-.12-.15 0-.7-.14-.96-.17-1.7-.16-2.64.47-2.9.48Z" fill="#B0B1B0"/><path d="M7.23 7.23c-.02.1-.2.43-.26.57l-.22.56c-.11.26-.42.9-.45 1.1.14.02.15.1.25.17l.29.05h.02c.1-.12.28-.43.3-.57.49-.07.1-.38.63-.72.4-.26.48-.53.49-.93-.36-.2-.14.27-.8-.33-.17-.07-.16.01-.25.1Z" fill="#CBB446"/><path d="M7.27 11.47c-.04-.04-.1-.06-.19-.06.12-.03.12-.04.12-.06 0-.02 0-.05.1-.08a.74.74 0 0 1 .21-.01h.12v.04l-.17.05c-.02 0-.04-.02-.15-.02.34.32 1.05.6 1.69.6.76.01 1.28-.25 1.77-.6l.15.04c-.1.03-.1.04-.12.06-.02.02-.04.05-.11.1l.02.07s0-.02.04.05l-.04-.05-.02-.08a.5.5 0 0 0 .1-.09c.03-.02.04-.03.13-.06l.14.03c-.03.06-.04.06-.05.07-.01 0-.02 0-.05.09l.13-.01a.7.7 0 0 1 .24-.01l1.12.1-.04.11-.07.1c-.14.02-.18.01-.2.03l-.04.13-.03.06s-.04.05.03.1c-.15 0-.18.04-.23.1l-.04.05-.02.03-.04.03h-.01l-.01.01h-.01v.02l-.25.16-.02.02a.24.24 0 0 1-.03.03l-.19.1-.06.02-.06.05c0 .01 0 .02-.04.06-.1.08-.29.15-.4.18l-.14.06-.02.02-.07.04c-.06.03-.13.03-.2.03h-.09c-.07.01-.11.04-.15.06-.06.04-.1.08-.32 0l-.49-.06H9.2l-.02-.01h-.18s.05 0-.02-.03l-.24.01c-.11.02-.13.05-.14.05l-.06-.1c-.08.1-.1.1-.24.07l-.23-.03c-.11.04-.18-.01-.22-.04l-.02-.02-.1-.05c-.01.01.03.06-.14.07a.6.6 0 0 0-.06-.05l-.09-.04c-.01.01-.03.02-.1 0-.09-.03-.1-.05-.1-.06 0-.02 0-.03-.27-.1h-.03c-.03 0-.03 0-.07-.05l-.03-.04c-.06-.07-.08-.07-.12-.08a.57.57 0 0 1-.13-.05c-.03-.01-.02-.02-.02-.02l-.07-.03.03-.07.03-.06-.39-.18h-.02v-.01h-.01l-.02-.01c0-.2.04-.17.04-.18 0 0-.02 0-.07-.1a.69.69 0 0 1 .06-.03l.08-.03c.08-.04.06-.07.06-.07l.07.03a.92.92 0 0 0-.03-.06l-.01-.15.14.01h.24l.07-.02c.12-.01.24-.03.37-.03-.02-.06-.06-.1-.1-.13l-.02-.03.07-.05c.1 0 .15.02.2.06Zm.1.21.07.1a.5.5 0 0 0 .12.06c.06.03.12.05.14.13-.02-.08-.08-.1-.14-.13a.5.5 0 0 1-.12-.07.25.25 0 0 1-.07-.09Zm.07.35Zm.07.05.01.01.07.02.04.02-.04-.02c-.02 0-.04 0-.07-.02h-.01Zm.15.18.01.01c.11.1.2.1.28.1h.1c.11.02.11.03.11.05 0 .01.01.03.1.08l.04.03h.03l.9.02a.14.14 0 0 0 .1-.07c.04-.05.07-.1.44-.03.09-.16.11-.14.16-.11l.12.04c.1-.09.1-.12.11-.12.02 0 .03.02.16.02-.13 0-.14-.02-.16-.02l-.1.12a.26.26 0 0 1-.12-.04c-.06-.04-.08-.05-.17.1-.37-.06-.4-.01-.44.04-.02.03-.04.05-.1.07l-.9-.02H8.3c-.01 0-.02 0-.05-.03-.08-.05-.08-.07-.09-.08 0-.02 0-.03-.1-.05h-.11a.34.34 0 0 1-.29-.11Zm2.68-.06a.1.1 0 0 1 .06-.07h.01l.19-.08-.19.07h-.01a.1.1 0 0 0-.06.08Zm.23-.3c0-.06.04-.13.12-.2l.03-.02.04-.01-.04.01-.03.02c-.08.07-.11.14-.12.2Zm-3 1.2h.01c.05.04-.16-.06 0 0Z" fill="#315B9C"/><path d="M8.98 6.28c-.19.11-.26.27-.42.37-.08.12-.18.12-.22.34-.03.14-.04.32-.06.46-.01.4-.1.68-.5.93-.52.35-.14.66-.62.73-.02.14-.21.44-.3.57 0 0 .08-.01.13.02.1.06.12.18.27-.05l.12-.18c.5-.66.37-.4.82-.88.11-.1.24-.22.3-.34.07-.16.14-.72.18-.93.03-.22.15-.17.2-.38-.15-.08-.17-.02-.36-.02.05-.19.03-.17.14-.24l.3-.32.05-.07.05-.06a.84.84 0 0 1 .1-.1l.02-.08h-.04c-.02.13-.07.18-.16.23Z" fill="#354757"/><path d="m7.98 14.6-.23-.04c.04.14.08.1.05.26.14.03.15.08.21.2.1.06.33.37.43.47.12.14.33.41.49.47.26-.13.36-.38.55-.52.05-.1.15-.2.23-.28a1 1 0 0 1 .24-.3c.18-.17.09.05.16-.28l-.13.01-.22.04c-.04-.11-.22-.27-.37-.47-.1-.13-.14-.09-.24-.2-.1-.11-.06-.11-.19-.2-.1.03-.77.72-.84.84h-.14ZM2.8 5.92c-.13.2.12.57.2.73.09.21.3.51.26.76.1.03 0-.03.12.1 0 0 .05.12.18.07.04-.23.02-.25.1-.28l.07-.03.43-.15c.19-.05.39-.11.58-.2 0-.2-.37-1-.38-1.07-.03-.18.08-.18.13-.33-.09-.1-.15-.02-.31-.03l-.04.05c-.15-.05-1.18.31-1.35.38ZM13.52 5.58c.07.15.15.14.1.31-.07.23-.34.78-.39 1.02.1.1.97.38 1.14.4l.05.22c.04.04.02-.04.07.1.07-.12.11-.22.21-.28 0-.13.37-.84.45-1.05l.08-.34-.56-.21-.82-.2-.31-.05c-.05.05-.1-.08-.02.08Z" fill="#365867"/><path d="M9.07 6.24a.84.84 0 0 1 .1-.1c.2-.01.28.01.33-.01.05-.02.08-.07.16-.2.07.06.39.1.5.11l.1.09c.17.09.2.1.23.1l.26.2.12.07c.07.03.12.07.32.26l.26.29c.3.38.3.4.34.5.02.07.06.18.2.47.16.3.23 1.1.1 1.41l-.2-.27-.02-.01c-.37-.2-.67-.54-.95-.91l-.1-.03-.02-.13c-.06-.1-.13-.18-.2-.27-.21-.32-.44-.62-.68-.88v.02L9.9 6.9a3.09 3.09 0 0 0-.05-.04l-.23-.06c-.1-.03-.2-.06-.33-.07-.2-.03-.35-.02-.44 0a.6.6 0 0 1-.07 0h-.1l-.02-.05.31-.33.03-.03.02-.04a.64.64 0 0 0 .05-.05ZM6.1 9.75l-.03.02c0-.2-.04-.23-.08-.27-.03-.04-.07-.07-.07-.28v-.07c0-.46-.01-.52.1-.87l.04-.11.05-.18.09-.21c.1-.2.47-.79.62-.9.5-.4.57-.42.66-.46.05-.02.11-.04.25-.13l.05-.02.02-.07v-.08c0-.02 0-.03.05-.1v.42a2.74 2.74 0 0 0-.77 1.12 28.85 28.85 0 0 0-.18.43l-.15.37-.1.22a91.38 91.38 0 0 0-.27.63l-.08.26h-.04a.61.61 0 0 1-.16.28Z" fill="#C8F8FC"/><path d="M3.19 6.17c0 .17.4.89.49 1.02.17 0 .35-.1.52-.17l.32-.12.02-.01.14-.05a6.3 6.3 0 0 0-.4-.97c-.28.05-.83.16-1.1.3Z" fill="#2DFBD4"/><path d="m11.12 8.21-.15.04.04-.17c.06-.02.09-.02.1-.01.02 0 .03.03.07.07.1.28.13.3.17.32l.08.09c.04.06.05.12.05.17.01.08.02.15.14.22l.01.01h.01l.06.04c.03.04.13.12.19.16l.2.28-.04.14a.42.42 0 0 0-.04.1c.1.12.17.17.25.22.07.04.14.08.23.18a.5.5 0 0 1-.02.07c-.02.05-.03.09.03.14l.14.02c.04.17.05.18.08.2a.3.3 0 0 1 .09.1c.04.06.05.1.05.13.01.04.01.07.15.15.04.04.2.13.26.16.04.04.07.05.1.06.02.02.04.02.1.16-.1 0-.14-.05-.19-.1-.06-.06-.14-.14-.33-.08-.22.06-.47.1-.68.03-.36-.09-.41-.04-.48.02a.29.29 0 0 1-.11.07c-.16.06-.31.05-.46.04a2.6 2.6 0 0 0-.2-.02c0-.1 0-.1-.02-.1-.15-.18-.36-.73-.3-.9h.09l.02.04.02.05c.03.07.04.1.12.13l.01.03c0 .01 0 .02.03.05.03.1.32-.5.28-.56-.02-.1-.06-.15-.1-.22l-.05-.05c.08-.1.04-.21 0-.32a.79.79 0 0 1-.04-.18c-.02-.15.09-.23.2-.3.09-.06.18-.12.13-.23l-.04-.05-.05-.05a.32.32 0 0 1-.03-.04l-.02-.01c-.08-.11-.09-.12-.1-.17l-.05-.13Z" fill="#D6BA46"/><path d="M8.7 5.17c.23.12-.13.96.44.89h.04c.01-.14.1-.1.25-.1.08-.15.2-.32.23-.5-.07-.08-.96-.88-1-.9-.13-.06-.16 0-.24-.13l-.16-.24-.17-.09c.1.63.42.67.48.79.04.05.12.21.12.28Z" fill="#978531"/><path d="M3.56 7.58c.06.03.14-.03.25-.06l.03.12c.02.1-.02.03.03.1-.02-.18 0-.22.16-.26.11-.06.65-.25.77-.25.07-.07.07-.05.17-.08.07-.03.1-.03.16-.07l-.04-.15c-.03-.16-.17-.46-.24-.61-.05-.12-.1-.2-.12-.32-.05-.22.04-.12.07-.3l-.15.1c-.03-.1-.06-.24-.16-.28-.05.15-.15.15-.12.33.01.07.37.88.37 1.06-.19.1-.39.16-.57.21l-.43.15-.08.03c-.08.03-.06.05-.1.28Z" fill="#B6B6B5"/><path d="M11.12 9.7c.11-.17-.02-.33-.04-.51-.06-.05 0 .03-.07-.08-.02-.03-.02-.06-.03-.1-.29-.15-.28 0-.6.04-.24.03-.45-.02-.67-.01-.15 0-.12.04-.24.04l-.26-.03c-.11.1-.2.03-.6-.03l.17-.56V8.4c-.1.07-.44.76-.46.9.16-.02.33-.09.55-.1h.33c.22-.03.09-.08.26-.07l.72.11c.1 0 .3-.05.44-.05.2.22.31.24.38.32.06.06.05.1.12.17Z" fill="#554617"/><path d="m6.67 10.69.11.01c-.08.15.14.28.29.28.13 0 .16-.05.24-.09.16-.08.17 0 .22-.12-.16 0-.33-.27-.4-.38-.13-.17-.2-.4-.3-.52a.6.6 0 0 0-.29.36c-.06.2.05.32.13.46Z" fill="#C8F8FC"/><path d="M8.25 5.31c.01-.03.01-.04.13-.06l.26.02.05-.1c.14.07.15.25.17.42 0 .12.02.24.08.3.05.05.09.04.11.03.04-.02.05-.03.08.14-.01.12-.07.17-.15.22-.1.06-.17.13-.23.2-.06.06-.11.12-.19.17 0-.57-.19-.57-.35-.57-.12 0-.22 0-.25-.2l.13-.24.1-.24a.22.22 0 0 0 .06-.09Z" fill="#D6BA46"/><path d="M7.85 6.44v-.41l.11-.14c.02.17.07.13.1.09l.04-.03c.01 0 .44.15.47.19v.18l-.01.34a.57.57 0 0 1-.08.09c-.06.05-.11.1-.14.25l-.04.29-.02.17-.3.24c.02-.02.02-.04-.02-.12l-.48-.45c-.13-.05-.16-.02-.2.05a.6.6 0 0 1-.06.06c.03-.13.2-.38.27-.44l.07-.05-.07.04.04-.13.17-.12.15-.1Zm0 .1c-.02.04-.03.04-.07.04h.01c.03 0 .05 0 .05-.04Zm.12 1.17L8 7.7h-.02Zm0 0-.04.04c0-.02.02-.03.04-.04Z" fill="#F0F8CA"/><path d="M6.07 9.77c-.02.13-.1.27-.19.34l-.05-.02h-.01c0-.01 0-.02-.02-.03a.93.93 0 0 0-.02-.05l-.05-.09-.02-.02-.08.2v.04l-.08.27-.08.1a.21.21 0 0 0-.06.07l-.15.06-.03.17a.39.39 0 0 1-.11.12c-.06.04-.1.07-.13.2H5c-.04 0 0 .02.02.04.03.02.05.02-.02-.03a5.41 5.41 0 0 1 .16.07l.05.03c.03.02.03.03.15.01l.18-.02.34-.03a2 2 0 0 0 .87.05c.1-.01.82.06.96.07a.9.9 0 0 1 .36 0h.1c.1-.06.31-.08.46-.1h.02c.67-.08.83-.05.98-.02.1.03.2.05.43.03-.01-.1-.03-.14-.06-.2l-.03-.06v-.03l-.02-.04-.02-.05-.03-.1v-.01h-.03l.02-.01c-.06-.16-.33-.6-.48-.63l-.02.03v.05c-.02.11-.02.15-.04.17-.02.02-.07.01-.23.05-.06.01-.12.05-.18.1-.06.04-.13.08-.21.11H8.6c-.1 0-.24-.04-.36-.07l-.23-.05c-.3-.06-.35.03-.44.21l-.04.08c-.03.07-.05.07-.09.08-.02 0-.07 0-.13.04a.6.6 0 0 0-.06.03.26.26 0 0 1-.18.06c-.15-.01-.37-.13-.3-.28l-.1-.02c-.06.01-.12.06-.17.1-.1.08-.19.16-.33.12-.01-.11.13-.38.23-.55l.06-.11c.05-.1.12-.18.18-.26.07-.08.14-.16.2-.3l-.23-.14c-.08-.05-.14-.06-.22-.06l-.1-.01h-.03a.66.66 0 0 1-.13.25.25.25 0 0 1-.03.02l-.03.02Zm2.53.85v.02-.02Z" fill="#BBA433"/><path d="m9.91 6.95.06-.17.12-.07.22.4a.9.9 0 0 0 .06.05l.03.02.04.01.01.13.09.05c.04.03.05.03.13.13.08.11.08.13.09.25v.08c-.06.03-.07.04-.08.08l-.04.07a1.48 1.48 0 0 1-.09.16l-.11-.02a1.54 1.54 0 0 0-.25-.02l-.06-.16-.08-.13-.03-.05c-.02-.04-.05-.07-.09-.1a.51.51 0 0 1-.2-.4c.04-.1.08-.13.11-.16.04-.04.07-.07.07-.15Z" fill="#CDB752"/><path d="m10.04 8.4.2-.06.01-.14c-.08-.08-.01 0-.05-.1l-.07-.16c-.07-.07-.08-.13-.1-.18-.08-.12-.27-.16-.3-.5-.18.23-.09.25-.08.4l.01.24c.05.21.32.3.38.5Z" fill="#554617"/><path d="m13.34 6.86.67.28c.12.04.14.08.3.06.09-.23.46-.77.47-1.02-.25-.09-.87-.3-1.12-.27l-.3.73-.04.13c-.03.17-.03.05.02.1Z" fill="#2DFBD4"/><path d="M10.2 8.16c.01 0 .02 0 .05.04v.14l-.2.06c-.08.04-.18.05-.28.05-.11 0-.23 0-.33.07l.04.01h-.04c-.12.02-.19 0-.28-.05l-.02-.01c-.14-.07-.15-.07-.3-.06h-.06v.05l-.17.56c.13.01.22.03.3.05.16.03.22.05.3-.02l.11.01.15.02c.06 0 .09 0 .11-.02a.3.3 0 0 1 .13-.02h.27c.13.02.26.03.4 0 .13 0 .2-.03.26-.06.09-.04.15-.06.29 0l.05.04.03.09.03.05v.01l.04.02c.02-.08.07-.06.13-.05.07.02.16.05.24-.04.06-.06 0-.34-.04-.43-.02-.05-.03-.05-.04-.06a.3.3 0 0 1-.05-.05.3.3 0 0 1-.05-.05c-.08-.11-.09-.12-.1-.17l-.05-.13-.15.04-.15-.04-.05-.37c-.1 0-.14.05-.2.1-.07.08-.15.17-.38.16l.02.06Z" fill="#DFC039"/><path d="m8.29 14.5-.1.09c.2.31.5.65.74.9.13-.12.67-.76.72-.9-.21-.24-.51-.51-.73-.75-.2.17-.43.46-.63.66Z" fill="#2DFBD4"/><path d="M10.95 10.45c.03.04 0 .02.05.07.1.04.1.05.22.08.14-.2.26-.35.04-.63-.13.01-.03-.06-.12.08l-.07.14c-.05.09-.1.15-.12.26Z" fill="#C8F8FC"/><path d="m9.78 11.36.16.05.37.01a.25.25 0 0 0-.07-.16c-.04-.05-.09-.1-.09-.3l.07-.05c.15-.11.31-.24.5-.25l.04.14.03.02.03.04s0 .03.01.02v.02h.01v.01c.15.2.1.24.02.32a.75.75 0 0 0-.1.12c-.48.34-1 .6-1.76.6-.64-.01-1.35-.3-1.69-.62.07 0 .1.02.13.02h.02l.12-.03.05-.01v-.04l.04.01c.17-.04.32-.03.5 0 .08.09.24.1.42.08l.18-.02c.07-.02.14-.03.3-.03h.53l.18.05Z" fill="#D6FAFB"/><defs><linearGradient id="a32tkzj0m" x1="5" y1="3.87" x2="13.87" y2="13.26" gradientUnits="userSpaceOnUse"><stop stop-color="#636363"/><stop offset=".2" stop-color="#494949"/><stop offset=".52" stop-color="#626262"/><stop offset=".71" stop-color="#8A8A8A"/><stop offset="1" stop-color="#4A4B49"/></linearGradient></defs></svg>