<!-- by TradingView --><svg width="18" height="18" viewBox="0 0 18 18" xmlns="http://www.w3.org/2000/svg"><path fill="#F0F3FA" d="M0 0h18v18H0z"/><path fill-rule="evenodd" d="M9 9.7s1.9-2.55 1.9-3.9c0-1-.85-1.8-1.9-1.8-1.05 0-1.9.8-1.9 1.8C7.1 7 9 9.7 9 9.7Zm0-3c.52 0 .95-.4.95-.9s-.43-.9-.95-.9-.95.4-.95.9.43.9.95.9Z" fill="url(#al5petuad)"/><path d="M13.1 7.5h-2.44l.12-.21c.05-.1.1-.17.15-.29h2.18C14.15 7 15 7.8 15 8.8v2.4c0 1-.85 1.8-1.9 1.8H4.9C3.84 13 3 12.2 3 11.2V8.8C3 7.8 3.85 7 4.9 7h2.2c.04.11.1.2.15.28l.12.22H4.9c-.7 0-1.39.64-1.39 1.3v2.4c0 .66.7 1.3 1.4 1.3h8.2c.7 0 1.4-.64 1.4-1.3V8.8c0-.66-.7-1.3-1.4-1.3ZM9 10.2v.02a28.7 28.7 0 0 1-1.21-1.8L7.54 8h-2.6c-.52 0-.94.38-.94.86v2.28c0 .48.42.86.94.86h2.5c.3 0 .54-.1.77-.21.24-.11.47-.22.79-.22.3 0 .5.1.7.2.22.11.45.23.86.23h2.5c.52 0 .94-.38.94-.86V8.86c0-.48-.42-.86-.94-.86H10.5a13.18 13.18 0 0 1-.93 1.47l-.56.74Z" fill="url(#bl5petuad)"/><defs><linearGradient id="al5petuad" x1="9" y1="4" x2="9" y2="9.7" gradientUnits="userSpaceOnUse"><stop stop-color="#289ED6"/><stop offset="1" stop-color="#443479"/></linearGradient><linearGradient id="bl5petuad" x1="9" y1="7" x2="9" y2="13" gradientUnits="userSpaceOnUse"><stop stop-color="#27A4D8"/><stop offset="1" stop-color="#492D76"/></linearGradient></defs></svg>