<!-- by TradingView --><svg width="18" height="18" viewBox="0 0 18 18" xmlns="http://www.w3.org/2000/svg"><path fill="#2F8BDE" d="M0 0h18v18H0z"/><path d="M13 13.82c0 .12-.05.18-.18.18-.57-.08-.87-.35-1.39-.56a6.4 6.4 0 0 1-2.51.56c-1.3 0-2.36-.47-3.19-1.41A5.1 5.1 0 0 1 4.5 9.08c0-1.45.4-2.65 1.2-3.6A3.96 3.96 0 0 1 8.88 4c.62 0 1.23.13 1.8.4.57.26 1.18.8 1.55 1.35.05.07.09.15.1.24 0 .14-.18.47-.56.98-.37.5-.62.76-.72.76-.11-.07-.21-.17-.3-.28-.18-.2-.5-.53-.74-.67a2.04 2.04 0 0 0-1.05-.28c-.3-.01-.69.05-.95.19-.26.13-.49.33-.66.58-.35.5-.54 1.15-.52 1.78 0 .74.18 1.35.54 1.78.37.45 1 .67 1.67.67.5-.02 1.05-.13 1.5-.35 0-.15-.04-.3-.1-.93-.05-.38-.12-.56-.13-.95 0-.09.03-.14.09-.16a5.94 5.94 0 0 1 .65.02c.24.03.35.04.48.04s.4 0 .66-.03l.6-.03c.1 0 .16.08.16.23 0 .22.03.35 0 .8l-.03.75c0 .59-.02 1.68.06 2.85v.08Z" fill="#014380"/><path d="M6.85 8.84c.23-1.25.92-2.26 2.12-2.19.6.04 1.05.22 1.57.8.17.2.44.45.52.46.24 0 1.55-1.68 1.38-1.97a.94.94 0 0 0-.3-.33l.1.14c.05.07.09.15.1.24 0 .14-.18.47-.56.98-.37.5-.62.76-.72.76-.11-.07-.21-.17-.3-.28-.18-.2-.5-.53-.74-.67a2.04 2.04 0 0 0-1.05-.28c-.3-.01-.69.05-.95.19-.26.13-.49.33-.66.58-.32.45-.5 1-.51 1.57ZM12.82 14c.13 0 .19-.06.18-.18v-.06l-.15.08c-.2.11-.79-.22-1.2-.45l-.2-.1c-.47.24-1.78.55-2.26.55-3 0-3.86-1.93-4.36-2.9l-.04-.06v.06c.2.62.51 1.17.94 1.65.83.94 1.9 1.41 3.19 1.41a6.4 6.4 0 0 0 2.51-.56c.18.07.32.15.47.22.28.15.54.29.92.34Z" fill="#96BDDE"/><path d="M10.65 4.6a4.14 4.14 0 0 0-4.88 1.06c-.78.93-1.27 2-1.27 3.42 0-1.47.3-2.59 1.12-3.56a4.24 4.24 0 0 1 5.1-1.11c.6.27 1.22.72 1.6 1.28.06.08.1.17.12.27l-.17.27c-.02-.06-.02-.27-.11-.4v-.01a3.73 3.73 0 0 0-1.51-1.21Zm-.16 4.62h-.07V9.29c0 .38 0 .69.05 1.07.07.61.12.63.13.78v.08l-.06.03c-.46.22-.98.35-1.48.37-.7 0-1.36-.23-1.76-.7-.38-.47-.46-1.1-.46-1.86 0 .73.28 1.3.62 1.7.34.42.94.64 1.6.64.45-.01.96-.12 1.39-.3-.02-.2-.05-.22-.1-.74a9 9 0 0 1-.1-1.07c0-.05.02-.1.04-.16a.2.2 0 0 1 .12-.1 6.07 6.07 0 0 1 .73.02 4.3 4.3 0 0 0 1.1 0l.5-.02c.08 0 .15.03.2.1.05.06.06.15.06.23l-.03.9c-.03.45-.04.43-.04.65v.28c0 .62 0 1.57.06 2.57l.01.08-.15.01v-.08a42.08 42.08 0 0 1-.12-2.59v-.27c0-.23 0-.21.03-.66a17.86 17.86 0 0 0 .02-.99l-.04-.01-.5.02-.66.03a4.4 4.4 0 0 1-.45-.03h-.05a6.67 6.67 0 0 0-.59-.04Z" fill="#032D53"/></svg>