<!-- by TradingView --><svg width="18" height="18" viewBox="0 0 18 18" xmlns="http://www.w3.org/2000/svg"><path fill="#5F53C7" d="M0 0h18v18H0z"/><path fill-rule="evenodd" d="M7.38 13.02c.18-.1.3-.15.37-.17.1-.02.14.02.14.12v.69a.34.34 0 0 0 .34.33c.42 0 .65-.19.68-.55l.06-.53c.01-.1.06-.15.15-.16.25-.06.5-.04.71.06.08.03.13.1.15.18.04.12.06.29.07.5.03.47.39.67.78.36.05-.03.14-.16.26-.37.04-.07.1-.13.16-.17.97-.55 1.55-.88 1.83-1.85l.73-2.6c.21-.77.25-1.36.1-1.77-.38-1.07-1.19-1.26-2-1.44-.27-.06-.53-.12-.78-.22a.17.17 0 0 1-.13-.17V4.18c0-.11-.06-.17-.17-.17h-.61c-.15 0-.22.07-.22.22v.63c0 .08-.04.13-.12.14-.65.09-.95-.16-.98-.74 0-.17-.1-.26-.26-.26h-.52c-.16 0-.23.08-.23.24v.49a.3.3 0 0 1-.12.23c-.5.41-.86 1.03-1.1 1.86a122.8 122.8 0 0 0-.92 3.42 3 3 0 0 1-.32.85c-.26.4-.46.63-.6.71-.33.18-.58.38-.77.6a.25.25 0 0 0 .08.4c.87.39 2.37.7 3.24.22ZM8.4 8.8c.22.15.27.34.13.57l-.42.56a.2.2 0 0 0 0 .2c.02.04.05.06.08.08.03.02.07.03.1.03h1.2a.4.4 0 0 1 .23.07c.07.06.15.14.23.24.09.1.19.22.29.3.23.18.42.2.57.08a.21.21 0 0 0 .06-.08.2.2 0 0 0 .02-.1c-.1-.82.2-1.33.91-1.52.05 0 .1-.04.13-.07a.25.25 0 0 0 .04-.29.27.27 0 0 0-.1-.1l-1.16-.63a.26.26 0 0 1-.15-.23l-.03-.46c-.03-.53-.2-.58-.53-.14-.35.47-.91.7-1.69.67-.13 0-.22.05-.27.16-.1.2.01.42.36.66Z" fill="#F5F5F5"/></svg>