<!-- by TradingView --><svg width="18" height="18" viewBox="0 0 18 18" xmlns="http://www.w3.org/2000/svg"><path fill="#F0F3FA" d="M0 0h18v18H0z"/><circle cx="9" cy="9" r="6" fill="url(#a)"/><path fill-rule="evenodd" d="M9 14.3A5.3 5.3 0 1 0 9 3.7a5.3 5.3 0 0 0 0 10.6Zm0 .7A6 6 0 1 0 9 3a6 6 0 0 0 0 12Z" fill="#D54546"/><path d="M13.83 7.41c.12.43.09.85-.1 1.25l-.24.32a.04.04 0 0 0 0 .05c0 .03.03.07.06.13.07.12.06.26 0 .4l-.12.2-.16.46c-.16.4-.42.7-.8.86-.07.04-.26.1-.57.17-.33.08-.65.2-.95.35l-.53.27c-.3.12-.55.2-.74.25-.22.05-.53.07-.93.05A3.99 3.99 0 0 1 7 11.6a3.25 3.25 0 0 0-.86-.33l-.37-.09a1.5 1.5 0 0 1-1-.77c-.1-.2-.18-.48-.28-.72-.17-.2-.17-.43-.02-.65V9c-.13-.14-.2-.25-.25-.33a1.7 1.7 0 0 1 .19-1.78 1.42 1.42 0 0 1 .95-.53c.02 0 .04-.02.04-.03.26-.4.97-.53 1.38-.5.2.02.45.1.78.25.38.19.72.34 1.12.38.46.05.9-.02 1.33-.21.5-.22.88-.45 1.34-.43.41.02.95.15 1.2.51 0 .02.02.03.04.03.23.06.43.08.64.24.3.21.49.48.59.81Z" fill="#006838"/><path d="M12.18 6.66a1.39 1.39 0 0 0-1.35-.17l-.74.32c-.74.3-1.47.3-2.2 0-.2-.07-.45-.18-.74-.31a1.22 1.22 0 0 0-.54-.12c-.3 0-.57.1-.83.27l-.04-.14a.05.05 0 0 1 0-.05c.24-.3.78-.36 1.12-.3.27.03.64.24.89.35.77.34 1.54.36 2.32.06a7 7 0 0 0 .51-.23c.24-.12.42-.18.53-.2.35-.04.77.02 1.05.25.08.06.09.15.02.27Z" fill="#FFF200"/><path d="M12.18 6.66c-.12.32-.2.57-.25.76-.07.28-.06.58.01.89l-.05-.01h-.01a1.29 1.29 0 0 0 .95.86c.18.04.3.08.37.13a.2.2 0 0 1-.02.17 6.32 6.32 0 0 0-1.73.16 8.21 8.21 0 0 1-1.4.22c-.71.1-1.45.1-2.21-.01-.4-.05-1.06-.16-1.98-.3a4.51 4.51 0 0 0-1.04-.05c-.02 0-.03 0-.04-.02-.04-.11-.04-.2.01-.25.16 0 .35-.03.56-.12a1.26 1.26 0 0 0 .68-.62v-.01l-.01-.01h-.01c-.01 0-.03 0-.04.02.09-.24.13-.44.12-.59a3.44 3.44 0 0 0-.31-1.23c.26-.17.53-.26.83-.27.17 0 .35.03.54.12l.74.32c.73.3 1.46.3 2.2 0l.74-.33a1.39 1.39 0 0 1 1.35.17Z" fill="#8CC63F"/><path d="M5.69 8.13c-.09.33-.33.56-.71.67l-.14.02-.04-.01-.16-.15a.05.05 0 0 1-.01-.05.05.05 0 0 1 .03-.03.7.7 0 0 0 .38-.4c.14-.39.12-.89-.2-1.2-.02 0-.02-.02 0-.03a.79.79 0 0 1 .52-.28c.02 0 .03 0 .04.02.13.3.22.6.27.85.03.17.04.37.02.59ZM12.96 8.23c.07.15.19.27.35.37a.04.04 0 0 1 .02.02.04.04 0 0 1 0 .04l-.17.16h-.04c-.2-.02-.35-.06-.43-.1-.43-.25-.48-.68-.4-1.12.05-.34.15-.64.27-.9 0-.02.02-.03.04-.03.21 0 .37.12.54.29.02.01.02.02 0 .03a.51.51 0 0 0-.22.27c-.1.33-.1.65.04.97Z" fill="#fff"/><path d="M11.94 8.31c.1.3.3.53.6.67.13.05.3.1.52.13.08.02.13.08.14.18a1.05 1.05 0 0 0-.37-.12 1.29 1.29 0 0 1-.86-.63 1.49 1.49 0 0 1-.1-.24h.02l.05.01ZM4.8 9.21c.02-.05.05-.09.07-.09.46-.05.87-.24 1.1-.65L6 8.45a.02.02 0 0 1 .02 0 .02.02 0 0 1 0 .03c-.15.29-.38.5-.68.61-.21.09-.4.13-.56.12Z" fill="#FFF200"/><path d="M8.72 9.42c-.17.17-.34.19-.52.05l-.05-.1V9.3c.03-.08.07-.13.12-.15a.4.4 0 0 1 .33 0c.11.05.15.14.12.26ZM9.76 9.43a.38.38 0 0 1-.27.13c-.1 0-.2-.05-.29-.14-.01-.1.01-.18.08-.22.16-.12.3-.11.44 0 .06.06.08.13.04.23Z" fill="#006838"/><path d="M8.44 9.4c.05.01.1-.02.1-.06 0-.04-.04-.07-.1-.08-.05 0-.1.03-.1.07 0 .04.04.08.1.08ZM9.49 9.41c.05 0 .1-.03.1-.07 0-.04-.05-.08-.1-.07-.06 0-.1.03-.1.07 0 .04.05.07.1.07Z" fill="#8CC63F"/><path d="M8.72 9.42c.01.13-.06.2-.22.23-.15.02-.26-.03-.34-.16-.02-.01-.01-.03.01-.03h.03c.18.15.35.13.52-.04ZM9.2 9.42c.09.1.18.14.29.14.1 0 .19-.04.27-.13.02.12-.05.2-.2.22-.22.03-.34-.05-.36-.23ZM13 9.89c-.04.08-.09.13-.14.13-.78.02-1.47.17-2.3.31a9.68 9.68 0 0 1-3.28-.01l-.86-.15c-.18-.04-.42-.07-.72-.1L5 9.97c-.01-.08-.03-.13-.05-.16a.02.02 0 0 1 0-.03l.02-.01c.43 0 .88.04 1.33.12a12.34 12.34 0 0 0 3.99.22l.55-.08c1-.16 1.54-.3 2.2-.26l.01.02v.02c-.03.02-.04.05-.03.08Z" fill="#FFF200"/><path d="M13 9.89c-.04.15-.1.3-.18.44-.16.3-.42.5-.76.57l-.48.12c-.44.11-.75.28-1.25.54-.2.1-.43.19-.73.26-.13.04-.28.05-.44.05-.15 0-.43.01-.6-.01a4.46 4.46 0 0 1-1.5-.6 4.92 4.92 0 0 0-1.04-.33 1.56 1.56 0 0 1-.39-.13 1.1 1.1 0 0 1-.4-.34c-.1-.16-.2-.32-.24-.48l.71.09c.3.03.54.06.72.1l.86.15c1.12.19 2.21.2 3.28.01.83-.14 1.52-.3 2.3-.31.05 0 .1-.05.15-.13Z" fill="#8CC63F"/><defs><linearGradient id="a" x1="9" y1="3" x2="9" y2="15" gradientUnits="userSpaceOnUse"><stop stop-color="#FAE080"/><stop offset="1" stop-color="#FAD269"/></linearGradient></defs></svg>