<!-- by TradingView --><svg width="18" height="18" viewBox="0 0 18 18" xmlns="http://www.w3.org/2000/svg"><path fill="#F0F3FA" d="M0 0h18v18H0z"/><path d="M7 13.58V11H4.42A5.02 5.02 0 0 0 7 13.58Zm1 .32a5.02 5.02 0 0 0 5.94-5.68c-.29 0-.75.07-1.21.32-.18.1-.4.31-.68.57-.82.74-2.06 1.89-3.9 1.89H8v2.9Zm5.23-7.57A5 5 0 0 0 8 4.1V7h3.51c.4 0 1.28-.05 1.72-.67ZM7 4.42A5.02 5.02 0 0 0 4.42 7H7V4.42ZM4.1 8a5.02 5.02 0 0 0 0 2H7V8H4.1Zm4.05 2H8V8h3.65c-.69 1.4-2.89 2.01-3.5 2Z" fill="url(#awzapsgoc)"/><defs><linearGradient id="awzapsgoc" x1="9" y1="4" x2="9" y2="14" gradientUnits="userSpaceOnUse"><stop stop-color="#EB297C"/><stop offset="1" stop-color="#204BCB"/></linearGradient></defs></svg>