<!-- by TradingView --><svg width="18" height="18" viewBox="0 0 18 18" xmlns="http://www.w3.org/2000/svg"><path fill="#EAC251" d="M0 0h18v18H0z"/><path d="m11.83 3.53-.1.25a.4.4 0 0 1-.08.16l-.13.14a5.71 5.71 0 0 0-6.38.8l-.16-.13h-.05l-.42.5c-.25-.06-.43.01-.55.21 0 .02-.02.02-.04.03H3.9c-.1-.29.07-.5.33-.64a.1.1 0 0 1 .06-.01c.13.02.22 0 .26-.03a6.17 6.17 0 0 1 6.92-1.26c.14.07.2-.12.37-.02ZM5.83 3.38c.05.02.11 0 .13-.05.02-.04 0-.1-.06-.12-.05-.02-.11 0-.13.04-.02.05 0 .1.06.13ZM5.46 3.68c.09-.04.12-.14.08-.22-.04-.07-.14-.1-.22-.06-.09.05-.12.15-.08.22.04.08.14.1.22.06Z" fill="#FFFEFE"/><path d="M11.52 4.08c.03.13.08.21.2.28.32.16.5.24.82.53a.08.08 0 0 0 .06.02.2.2 0 0 0 .08-.03c.1-.07.24-.05.34.02.27.2.27.53.22.81 0 .03.01.05.04.05l.49.04h.01l.23.45v.02a.82.82 0 0 0-.43.18c-.03.03-.03.04.02.05l.18.03c.01 0 .02.01.01.02v.05h-.03c-.1 0-.13.05-.16.15-.02.1-.08.16-.15.2a.14.14 0 0 0-.07.2c.1.14.24.19.43.15h.05c.02.01.04.03.04.05.04.12.25.2.35.28.01.1.04.19.09.29.02.06-.05.24-.04.33l.02.47c.03.66-.1 1.3-.4 1.93 0 .03 0 .05.02.07l.1.1.02.05c.08.24.03.4-.17.5-.1.05-.23.05-.33.1a.11.11 0 0 0-.06.04c-.23.36-.37.58-.73.72a.06.06 0 0 0-.04.05c-.01.03 0 .05.02.06-.1 0-.19 0-.27-.02-.03 0-.04-.02-.03-.04a.73.73 0 0 0-.1-.59l-.4-.55a.07.07 0 0 1-.02-.06c.08-.3-.09-.44-.3-.61-.03-.02-.04-.05-.02-.08l.16-.3c.06-.36-.15-.73-.38-1a.07.07 0 0 1-.02-.07c.03-.18.13-.34.14-.52.02-.26 0-.45-.04-.57a66.04 66.04 0 0 0-.22-.6.1.1 0 0 1 .04-.05c.11-.07.19-.16.24-.29.11-.32.2-.57.23-.76.1-.43-.04-1.37-.73-1.13a2.88 2.88 0 0 0-1.1.66 2.67 2.67 0 0 0-1.98.12c-.15.07-.3.18-.48.35a.1.1 0 0 1-.1.01c-.3-.13-.63-.2-1-.22-.41-.02-.88.1-.85.61.04.64.39.94.84 1.4.05.04.12.08.21.1.03.01.04.03.04.06l-.01.75c-.18.19-.3.34-.38.45-.24.39-.25.65 0 1 .02.02.02.03 0 .04-.17.14-.33.23-.33.49a.08.08 0 0 1-.03.06c-.2.16-.23.36-.4.54-.22.25-.32.45-.21.78 0 .02 0 .04-.02.04h-.09c.01-.05 0-.1-.06-.13a.62.62 0 0 1-.1-.08 5.33 5.33 0 0 1-1.23-2.32l-.03-.03c-.1-.05-.37-.15-.24-.32.03.1.09.17.18.2.1.02.2-.04.28-.05.07-.01.17.02.24 0 .03 0 .04-.01.05-.03a.3.3 0 0 1 .13-.18c.03-.02.05-.04.05-.06a.1.1 0 0 0 0-.07.07.07 0 0 0-.06-.04h-.07c-.03 0-.04-.02-.04-.04-.01-.26-.18-.52-.47-.33-.06.04-.08.13-.08.22 0 .1-.04.17-.13.23.05-.21.1-.57.12-1.07 0-.12.05-.4.14-.82.06-.28.18-.48.28-.73a.1.1 0 0 0 0-.07c-.05-.11-.1-.21.01-.32l.21-.19a.12.12 0 0 0 .04-.06c.06-.21.18-.4.34-.56a.06.06 0 0 0-.02-.1.46.46 0 0 1-.17-.15l.42-.48c.02-.02.03-.02.05 0l.16.12h.02a5.71 5.71 0 0 1 6.36-.8Z" fill="#E3AA29"/><path d="M13.63 5.15c.1.13.18.26.26.4l.23.4.36.75c.08.17.15.38.21.66-.12.11-.26.2-.44.27-.1-.09-.31-.16-.35-.28a.08.08 0 0 0-.04-.05.08.08 0 0 0-.05 0c-.19.04-.33-.01-.43-.15a.14.14 0 0 1 .02-.17.14.14 0 0 1 .04-.04c.08-.03.14-.1.16-.2.03-.1.06-.13.16-.14h.02l.01-.02v-.03l-.01-.02-.18-.03c-.05 0-.05-.02-.02-.05a.82.82 0 0 1 .43-.18.01.01 0 0 0 0-.02l-.23-.44-.01-.01-.5-.04c-.02 0-.03-.02-.03-.05.05-.28.05-.62-.22-.81-.1-.07-.24-.1-.34-.02a.2.2 0 0 1-.08.03.08.08 0 0 1-.06-.02c-.33-.29-.5-.37-.81-.53-.13-.07-.18-.15-.2-.28l.12-.14a.4.4 0 0 0 .09-.16l.08-.25c.45-.04.55.13.63.52 0 .02.02.04.04.05a2.11 2.11 0 0 1 .56.5.06.06 0 0 0 .05 0l.02-.02c.06-.1.16-.13.29-.07.2.08.28.23.26.44a.1.1 0 0 1-.02.06c-.04.05-.05.1-.02.14Z" fill="#FDECB6"/><path d="M4.56 6.24c.1-.14.17-.31.29-.45a5.08 5.08 0 0 1 3.28-1.92 4.79 4.79 0 0 1 2.37.18V4.14a.04.04 0 0 1-.03.02h-.02a5.33 5.33 0 0 0-3.93.39 4.84 4.84 0 0 0-2.16 2.07h-.02V6.6c.07-.13.14-.26.22-.37Z" fill="#F0CF71"/><path d="M4.1 4.77c.07.02.13.01.14-.02.01-.03-.04-.07-.11-.1-.07-.01-.14 0-.15.03 0 .03.04.07.12.1ZM12.5 5.21a.04.04 0 0 0 .05-.02c.03-.11.08-.22.2-.26.13-.05.23 0 .31.13.15.25.04.66-.04.91l-.05.04c-.33 0-1.1-.16-.83-.68.06-.12.18-.16.35-.12Z" fill="#FFFEFE"/><path d="m11.77 10.09-.04-.05v.02h-.03v-.22c0 .12.02.23-.05.33-.1.16-.22.28-.39.37 0-.09.03-.16.11-.2.38-.38.21-.75-.06-1.13-.04-.04-.03-.09.01-.13a.08.08 0 0 0 .03-.06v-.1c0-.04 0-.04-.03-.04l-.05.02a1 1 0 0 0 .09-.68v-.07a.41.41 0 0 0-.05-.32l-.27-.66a.17.17 0 0 1-.01-.07c0-.16-.12-.27-.22-.4a.13.13 0 0 1-.03-.06c-.03-.15-.1-.22-.2-.21-.25-.3-.49-.5-.72-.58a2.24 2.24 0 0 0-1.95.18c-.2.11-.35.23-.45.37h-.1c0-.05 0-.08-.05-.1a.88.88 0 0 0-.27-.09l-.57-.1c-.14-.02-.58 0-.72.14-.08.08-.12.16-.12.23-.03.38.13.89.47 1.15.18.13.26.23.42.4a.07.07 0 0 0 .1-.03l.03-.1.06-.33.03-.06c.06-.08.1-.18.09-.3.11-.02.17 0 .18.1-.14.2-.23.43-.24.69l-.04.38c-.02.13-.03.26-.02.39l.01.03h.04l.01.02c-.07 0-.13.03-.17.12l.01-.75c0-.03-.01-.05-.04-.05a.48.48 0 0 1-.21-.11c-.45-.46-.8-.76-.84-1.4-.03-.52.44-.63.85-.61.37.01.7.09 1 .22a.1.1 0 0 0 .1-.01c.17-.17.33-.28.49-.35a2.67 2.67 0 0 1 1.98-.12 2.88 2.88 0 0 1 1.09-.66c.7-.24.83.7.73 1.13-.04.19-.12.44-.23.76a.51.51 0 0 1-.24.29.1.1 0 0 0-.04.12l.22.53c.04.12.06.3.04.57 0 .18-.11.34-.14.52 0 .02 0 .04.02.06.23.28.44.65.38 1Z" fill="#463A37"/><path d="M14.7 7.36c-.07-.28-.14-.5-.22-.66l-.36-.75a20.96 20.96 0 0 0-.48-.8l.02-.03.03.01a5.73 5.73 0 0 1 .86 5.92 4.7 4.7 0 0 1-1.14 1.64l-.02-.01a.02.02 0 0 1-.01-.03v-.01c.8-.8 1.28-1.75 1.44-2.87.04-.26.06-.53.07-.8.02-.57-.04-1.1-.2-1.61Z" fill="#EAC251"/><path d="M11.16 7.16c-.02-.13.01-.22.08-.26.07-.06.11-.13.15-.2.25-.36.3-.76.15-1.2-.03-.1-.1-.19-.2-.2a.78.78 0 0 0-.48.1c-.25.13-.5.29-.75.47-.02-.05-.02-.09.01-.12.19-.18.42-.33.7-.47.18-.08.53-.19.68.01.3.43.2 1.06-.04 1.5a.77.77 0 0 0-.08.22c-.03.17-.1.22-.22.15Z" fill="#DBB99A"/><path d="M4.5 5.24c.05.07.11.12.18.15a.06.06 0 0 1 .02.1c-.16.16-.28.35-.34.56 0 .03-.02.04-.04.06l-.2.19c-.11.1-.07.21-.03.32a.1.1 0 0 1 0 .07c-.09.25-.2.45-.27.73-.2-.1-.35-.26-.45-.46a.14.14 0 0 0-.05-.05c-.07-.05-.1-.11-.1-.18 0-.03.02-.05.03-.08l.27-.47a.1.1 0 0 0 .01-.07c-.06-.25.04-.42.3-.5.03-.02.05-.06.06-.12h.03c.02 0 .03-.01.04-.03.12-.2.3-.27.55-.22Z" fill="#FDECB6"/><path d="M11.39 6.7c-.15-.02-.2.05-.15.2-.07.04-.1.13-.08.26a.38.38 0 0 1-.03-.19l-.01-.06-.48-.64c.02-.05.06-.1.12-.15a.08.08 0 0 0 .03-.07c0-.02-.02-.03-.04-.03l-.07.01a.06.06 0 0 1-.07-.05v-.03c.04-.1.06-.16.05-.2 0-.04-.02-.05-.05-.02a.94.94 0 0 0-.2.38l-.3-.24c.25-.18.5-.34.75-.48a.78.78 0 0 1 .48-.09c.1.01.17.1.2.2.15.44.1.84-.15 1.2Z" fill="#BF8067"/><path d="m10.58 6.43-.7-.44a.52.52 0 0 0-.27-.08.05.05 0 0 0-.04.05v.02c.04.09.06.15 0 .24l-.25.4c-.14.36-.08.64.19.85.07.06.15.06.24.06l.15.1c.18.19.37.34.58.47.07.04.08.15.03.3l-.25.3a.48.48 0 0 1-.31.15c-.1-.02-.18-.11-.2-.26a1.4 1.4 0 0 0-.08-.25 1.49 1.49 0 0 1-.1-.25c-.01-.07.01-.11.04-.17.05-.1.03-.22-.06-.27a.69.69 0 0 0-.67-.03.1.1 0 0 0-.05.05c-.11.06-.17.13-.18.21-.01.1.03.19.12.24l.11.39v.07l-.14.52c-.36.06-.53-.03-.83-.29l.32-.78c.05-.14.18-.28.4-.42.03 0 .05-.03.05-.09.03-.36.01-.62-.31-.84-.15-.1-.48-.3-.36-.48.06-.08.04-.1-.05-.07a.75.75 0 0 0-.47.51c0 .03-.02.04-.05.04-.03 0-.04-.02-.05-.05a.25.25 0 0 1 .07-.23 2.24 2.24 0 0 1 2.4-.56c.23.1.47.29.72.59Z" fill="#FFFEFE"/><path d="m10.64 6.27-.23-.16c.05-.17.12-.3.2-.38.03-.03.05-.02.05.02s0 .1-.05.2a.06.06 0 0 0 .01.06.06.06 0 0 0 .06.02h.07c.02-.01.04 0 .04.02 0 .03 0 .05-.03.07-.06.05-.1.1-.12.15Z" fill="#B65754"/><path d="M10.58 6.43c.1-.01.17.06.2.21 0 .03.02.05.03.06.1.13.22.24.22.4v.07l.28.66c-.05.06-.09.13-.12.2-.06.1-.04.19-.04.3 0 .27-.28.44-.51.54.06-.11.1-.23.11-.33 0-.12-.07-.17-.24-.13.05-.16.04-.27-.03-.3-.21-.14-.4-.3-.58-.48.23.05.5.11.55-.2a6.98 6.98 0 0 0 .44.15.03.03 0 0 0 0-.04l-.4-.25c-.18-.24-.5-.44-.75-.13-.07.1-.07.21 0 .37-.08 0-.16 0-.23-.06-.26-.21-.33-.5-.19-.85l.25-.4c.06-.09.04-.15 0-.24a.05.05 0 0 1 .04-.07c.09 0 .18.03.27.08l.7.44Z" fill="#F1D1A9"/><path d="M7.36 6.4v.02a.03.03 0 0 1-.01.02.03.03 0 0 1-.03 0l-.54-.13c-.24-.1-.62-.14-.83-.06-.4.13-.19.78-.04 1.02.07.1.2.24.42.42.03.04.09.07.16.1.08.03.13.07.16.11l-.02.1a.07.07 0 0 1-.11.03c-.16-.17-.24-.27-.42-.4-.34-.26-.5-.77-.47-1.15 0-.07.04-.15.12-.23.14-.15.58-.16.72-.14l.57.1c.1.02.2.05.27.09.04.02.06.05.05.1Z" fill="#DBB99A"/><path d="M8.63 7.6a.5.5 0 0 0-.22.09c-.04.03-.06.02-.06-.04v-.18a.07.07 0 0 0-.05-.04c-.37-.15-.53.05-.7.34a.34.34 0 0 1-.14.11c-.19.11-.35.26-.48.45-.05.07-.04.08.03.02.09-.09.2-.19.36-.3.13-.1.25-.13.36.01a.1.1 0 0 0 .05.04c.13.04.28.02.45-.07l-.32.78-.17.09c-.03 0-.04 0-.04-.03v-.03c-.02-.03-.04-.03-.06-.01-.05.04-.06.09-.04.15l.12.22c0 .02 0 .04-.02.04-.08 0-.18 0-.28-.04-.34-.1-.47-.32-.4-.66a.01.01 0 0 0-.01 0l-.23.13a.03.03 0 0 0-.02.03v.1h-.04l-.01-.03c0-.13 0-.26.02-.39L6.77 8c.01-.26.1-.49.24-.7a.66.66 0 0 1 .19-.33c.02-.02.02-.04 0-.06-.02-.04-.02-.08.01-.1.02-.03.02-.05 0-.07l-.09-.1c-.1-.15-.21-.26-.34-.33l.54.13a.03.03 0 0 0 .03 0 .03.03 0 0 0 0-.02l.01-.02h.1a.25.25 0 0 0-.07.23c0 .03.02.05.05.05.03 0 .04-.01.05-.04a.75.75 0 0 1 .47-.5c.09-.04.1-.02.05.06-.12.18.2.37.36.48.32.22.34.48.3.84 0 .06-.01.09-.04.09Z" fill="#F1D1A9"/><path d="M6.78 6.3c.13.08.24.2.34.34h-.47a.06.06 0 0 0-.06.07l.02.03.34.25a.02.02 0 0 1 0 .02c0 .07-.04.14-.12.2 0 .12-.03.22-.09.3a.14.14 0 0 0-.03.06l-.06.33a.35.35 0 0 0-.16-.12.57.57 0 0 1-.16-.09 2.35 2.35 0 0 1-.42-.42c-.15-.24-.36-.9.04-1.02.21-.08.6-.04.83.06Z" fill="#BF8067"/><path d="m7.12 6.64.1.1v.06c-.04.03-.04.07-.01.1.01.03 0 .05-.01.07-.1.1-.16.2-.19.34 0-.1-.07-.12-.18-.1.08-.06.12-.13.13-.2a.02.02 0 0 0-.01-.02l-.34-.25a.06.06 0 0 1 .04-.1h.47ZM9.97 6.77c-.18.06-.25.15-.27.35 0 .03-.01.04-.04.04h-.04a.03.03 0 0 1-.04-.03c0-.3.1-.46.32-.47.03 0 .06.01.09.06a.03.03 0 0 1 0 .03.03.03 0 0 1-.02.02Z" fill="#B65754"/><path d="M11.39 6.7a.72.72 0 0 1-.15.2c-.05-.15 0-.22.15-.2Z" fill="#463A37"/><path d="M12.92 6.91c.01.04.04.07.07.06.02 0 .04-.04.03-.08 0-.04-.04-.06-.06-.06-.03 0-.05.04-.04.08Z" fill="#F1D1A9"/><path d="M3.27 6.98a.03.03 0 0 1 .02-.02h.02l.01.01.03.06a.08.08 0 0 1 0 .06 5.59 5.59 0 0 0 1.2 5.5v.02H4.5A5.49 5.49 0 0 1 3.1 7.85c.03-.21.1-.5.18-.87Z" fill="#EAC251"/><path d="M10.49 7.3c0 .04-.02.09-.04.13-.05.31-.32.25-.55.2a.57.57 0 0 0-.15-.1c-.08-.16-.08-.28-.01-.37.24-.31.57-.11.75.13Z" fill="#0F080C"/><path d="M8.11 7.06c.1.03.17.12.2.25.02.04 0 .05-.04.03-.06-.05-.1-.11-.2-.15-.1-.03-.18-.01-.26-.02-.05 0-.05-.02-.02-.05.12-.08.22-.1.32-.06Z" fill="#B65754"/><path d="M10.04 7.24c.03 0 .06-.01.06-.04 0-.02-.02-.04-.05-.05-.04 0-.07.01-.07.04 0 .02.02.04.06.05Z" fill="#DBB99A"/><path d="M8.63 7.6c-.22.15-.35.3-.4.43-.17.09-.32.1-.45.07a.1.1 0 0 1-.05-.04c-.1-.14-.23-.11-.36-.01-.15.11-.27.21-.36.3-.07.06-.08.05-.03-.02.13-.19.29-.34.48-.45.07-.03.1-.07.14-.11.17-.29.33-.5.7-.34.03 0 .04.02.05.04v.18c0 .06.02.07.06.04a.5.5 0 0 1 .22-.08Z" fill="#0F080C"/><path d="M13.07 7.6c.03.03.08.03.1 0 .02-.03 0-.07-.03-.1-.04-.02-.08-.01-.1.01-.02.03 0 .07.03.1ZM8.14 7.6c.05 0 .08-.02.08-.05 0-.02-.04-.04-.08-.04-.05 0-.09.02-.09.05 0 .02.04.04.09.04Z" fill="#F1D1A9"/><path d="M9.95 8.85a.83.83 0 0 1-.52-.12c-.13-.07-.18-.17-.16-.3a.08.08 0 0 1 .03-.06.59.59 0 0 0 .17-.18.1.1 0 0 0 .01-.07c-.01-.07.02-.14.08-.2a.05.05 0 0 0-.01-.09.84.84 0 0 0-.6-.04.11.11 0 0 0-.06.04.32.32 0 0 0-.05.12.04.04 0 0 1-.04.03H8.8c-.03 0-.04-.03-.05-.06a.06.06 0 0 1 .03-.06c.06-.05.09-.11.1-.18a.01.01 0 0 0-.01-.01h-.03a.1.1 0 0 1 .05-.05c.24-.1.46-.1.67.03.09.05.11.18.06.27-.03.06-.05.1-.03.17.03.1.06.2.09.25l.07.25c.03.15.1.24.2.26Z" fill="#9C8277"/><path d="M8.83 7.67a.26.26 0 0 1 .03 0c0 .08-.03.14-.1.19a.06.06 0 0 0-.02.06c0 .03.02.05.05.06a.04.04 0 0 0 .05-.03c.01-.05.03-.1.05-.12a.11.11 0 0 1 .06-.04.84.84 0 0 1 .6.04.05.05 0 0 1 .01.09c-.06.06-.09.13-.08.2a.1.1 0 0 1-.01.07.59.59 0 0 1-.17.18.09.09 0 0 0-.03.06c-.02.13.03.23.16.3.19.1.36.15.52.12a.48.48 0 0 0 .31-.16l.25-.28c.16-.04.25 0 .24.13l-.17.04a.08.08 0 0 0-.05.04L10 9.63c-.04.15-.08.26-.11.32-.18.35-.77.32-.95-.01a.74.74 0 0 0-.15-.19.13.13 0 0 0-.07-.03c-.33-.06-.64-.4-.84-.66-.04-.06-.1-.07-.14-.02a.05.05 0 0 1-.06 0 .26.26 0 0 1-.09-.06c-.02-.06 0-.11.04-.15.02-.02.04-.02.05.01v.03c.01.03.02.04.05.03l.17-.09c.3.26.47.35.83.29.17-.05.3-.15.4-.3.08-.12.05-.22.05-.35a.07.07 0 0 0-.02-.05l-.4-.28c-.09-.05-.13-.13-.12-.24 0-.08.07-.15.18-.2Z" fill="#0F080C"/><path d="M11.3 7.83c.07.11.09.22.06.32v.07a1 1 0 0 1-.1.68c-.18.28-.42.5-.72.68a.46.46 0 0 0-.08.07.14.14 0 0 1-.06.03.7.7 0 0 0-.26.14c-.04.02-.1.1-.17.22-.13.2-.32.3-.58.3a.36.36 0 0 1-.18-.06c-.14-.09-.21-.14-.43-.17-.46-.05-.9-.18-1.3-.4-.09-.04-.16-.1-.23-.15a.13.13 0 0 0-.07-.03.18.18 0 0 1-.15-.14.5.5 0 0 0-.2-.35.08.08 0 0 1-.04-.06l-.02-.16v-.01l-.01-.11c0-.02 0-.03.02-.03L7 8.53a.01.01 0 0 1 .02.01c-.08.34.05.56.39.66.1.03.2.04.28.04.02 0 .03-.02.02-.04l-.12-.22c.03.03.06.06.1.07l.05-.01c.05-.05.1-.04.14.02.2.25.5.6.85.66l.06.03c.06.06.11.12.15.19.19.33.77.36.95.01.03-.06.07-.17.1-.32a.2.2 0 0 0 .2-.09l.44-.67c.23-.1.51-.27.51-.54 0-.11-.02-.2.04-.3.03-.07.07-.14.12-.2Z" fill="#FFFEFE"/><path d="m8.74 9.1.14-.52V8.5l-.1-.4.39.29a.07.07 0 0 1 .02.05c0 .13.03.23-.05.35a.72.72 0 0 1-.4.3Z" fill="#9C8277"/><path d="M8.52 8.32a.04.04 0 0 1 .04-.01.05.05 0 0 1 .04.02l.03.05c.02.04.01.06-.02.08l-.19.1-.02.01c-.1 0-.06-.09.12-.25Z" fill="#FDECB6"/><path d="M10.75 8.54c-.01.1-.05.22-.11.33l-.45.67a.2.2 0 0 1-.18.1l.52-1.02a.07.07 0 0 1 .05-.04l.17-.04Z" fill="#9C8277"/><path d="M8.61 8.6a.01.01 0 0 1 .02 0v.05a.1.1 0 0 1-.02.04.15.15 0 0 1-.04.03.18.18 0 0 1-.04.02l-.03.01h-.1a.1.1 0 0 1-.03-.03.08.08 0 0 1-.02-.03.01.01 0 0 1 0-.02l.26-.07Z" fill="#F1D1A9"/><path d="M14.06 8.8c.02.05.06.07.1.06.03-.02.05-.06.03-.1-.02-.05-.06-.07-.1-.06-.03.02-.05.06-.03.1Z" fill="#F0CF71"/><path d="M3.48 9.46c.02-.05.04-.1.08-.15a.25.25 0 0 0 .13-.23c0-.09.02-.18.08-.22.3-.19.46.07.47.33 0 .02.01.04.04.04h.07c.03 0 .05.02.06.04a.1.1 0 0 1 0 .07c0 .02-.02.04-.05.06a.3.3 0 0 0-.13.18c0 .02-.02.03-.05.03-.07.02-.17-.01-.24 0-.09.01-.18.07-.27.04-.1-.02-.16-.09-.19-.2Z" fill="#FFFEFE"/><path d="M6.77 8.82a.86.86 0 0 0 .05.47c0 .02.02.03.05.03.06 0 .11.02.16.07.02.08.07.13.15.14.03 0 .05.01.07.03.07.05.14.11.23.16.4.21.84.34 1.3.4.22.02.29.07.43.16.06.03.11.05.18.06.26 0 .45-.1.58-.3.08-.12.13-.2.17-.22a.7.7 0 0 1 .25-.14c.03 0 .05-.02.07-.03a.47.47 0 0 1 .08-.07c.3-.17.54-.4.73-.68l.05-.02c.02 0 .04 0 .04.03l-.01.11-.03.06c-.05.04-.05.09-.02.13.28.38.45.75.07 1.12-.01-.1.01-.28-.1-.33l-.1-.08-.2-.36-.01-.01h-.04c-.02 0-.02.01-.02.03 0 .16-.01.26-.05.31-.17.2-.24.3-.39.42l-.68.6a2.7 2.7 0 0 0-.67.94l.01.04h.03c.01 0 .02 0 .03-.02.14-.2.32-.35.54-.47l1.2-.63c.12-.06.23-.15.34-.23.17-.09.3-.21.4-.37.06-.1.04-.2.04-.33v.21c0 .02.01.02.02.01v-.02h.01l.04.05-.16.3c-.02.03-.01.06.01.08.22.17.39.31.31.6 0 .03 0 .05.02.07l.4.55c.11.18.15.37.1.59 0 .02 0 .04.03.04.08.02.18.03.27.02a.7.7 0 0 1 .53.41c.06.12-.04.36-.08.5-.07.31-.29.5-.62.49-.12 0-.23-.09-.35-.04-.38.14-.77.24-1.17.3-.23.03-.48.13-.69.13-.17 0-.32.05-.5.06-1 .06-1.93.06-2.87-.11l-1.4-.37c-.03-.01-.05-.01-.07 0-.36.12-.7-.02-.8-.4-.06-.22-.21-.43-.04-.68.1-.15.25-.25.45-.29h.09c.02 0 .03-.02.02-.04-.11-.33 0-.53.21-.78.17-.18.2-.38.4-.54a.08.08 0 0 0 .03-.06c0-.26.16-.35.33-.49.02 0 .02-.02 0-.04-.25-.35-.24-.61 0-1 .07-.11.2-.26.38-.45.04-.09.1-.12.17-.12Z" fill="#0F080C"/><path d="M9.77 9.18c-.12-.02-.33-.04-.38.1 0 .03-.02.03-.04.03a.11.11 0 0 1-.05-.04.09.09 0 0 0-.07-.03.48.48 0 0 0-.34.13l-.04-.14.01-.07c.21-.23.48-.3.82-.22.09.02.12.07.1.16v.08Z" fill="#B65754"/><path d="M9.9 9.3c-.01-.07-.06-.1-.13-.12h.05c.03 0 .04-.01.06-.03a.37.37 0 0 1 .2-.15.03.03 0 0 1 .04.02v.02c-.06.1-.13.19-.22.25Z" fill="#BF8067"/><path d="M9.77 9.18c.07.02.12.05.13.11.07.3-.02.68-.35.78a.42.42 0 0 1-.39-.07.68.68 0 0 1-.27-.63c.1-.1.22-.13.34-.13a.1.1 0 0 1 .07.03l.05.04c.02 0 .03 0 .04-.03.05-.14.26-.12.38-.1Z" fill="#EA8F93"/><path d="M8.78 9.41c-.01.03-.03.05-.06.06a.1.1 0 0 1-.07-.02c-.17-.08-.24-.13-.24-.16.01-.02.1-.02.29.02.03 0 .05.01.06.03.02.02.03.05.02.07Z" fill="#B65754"/><path d="M6.52 10.37h.03a.03.03 0 0 0 0-.04c-.11-.13-.17-.23-.06-.38a3.53 3.53 0 0 1 .4-.44.07.07 0 0 1 .08.07c0 .28.11.38.34.62.08.08.18.17.3.26.47.35 1.05.73 1.4 1.4l-.02.02h-.04c-.18-.24-.4-.42-.66-.54-.52-.24-1.2-.52-1.76-.86-.2-.13-.32-.24-.36-.36a.62.62 0 0 1 .04-.56c.06-.1.08-.1.07.02-.02.1-.08.22-.07.32.02.18.12.33.3.47Z" fill="#DB8A14"/><path d="M13.98 9.81a.15.15 0 1 0 0-.3.15.15 0 0 0 0 .3Z" fill="#FDECB6"/><path d="M11.17 9.92a.81.81 0 0 1-.27.41 15.03 15.03 0 0 1-.74.57l.01.03a.02.02 0 0 0 .02 0c.35-.21.67-.46.97-.72.03-.02.06-.1.1-.21.12.05.1.23.11.33-.08.05-.11.12-.1.21-.12.08-.23.17-.34.23l-1.21.63c-.22.12-.4.27-.54.47l-.03.03h-.02c-.02-.02-.02-.03-.02-.05.19-.4.41-.72.67-.94l.68-.6c.15-.12.22-.22.39-.42.04-.05.06-.15.05-.3 0-.03 0-.04.02-.04h.03a.02.02 0 0 1 .02 0l.2.37Z" fill="#E3AA29"/><path d="m10.54 9.74-.1.18a.52.52 0 0 1-.11.17c-.3.25-.62.5-.98.63a.56.56 0 0 1-.26.02c-.49-.07-.97-.26-1.42-.58a.19.19 0 0 0-.2-.02l-.2-.16a.25.25 0 0 1-.1-.17l-.02-.1c-.01-.08.01-.1.07-.05.21.18.37.22.6.3.13.05.34.2.55.2.03 0 .05.01.07.03.14.08.27.1.4.05.02-.01.05-.01.07 0 .1.03.2.06.27.1.1.04.18.06.26.05.07 0 .18-.03.32-.08.08-.02.16-.09.23-.2.13-.19.29-.38.55-.37Z" fill="#DBB99A"/><path d="M7.47 10.14a.19.19 0 0 1 .2.02c.45.32.93.51 1.42.58.1.01.19 0 .26-.02.36-.13.68-.38.98-.63.04-.05.09-.1.12-.17l.1-.18c.03-.03.06-.05.09-.05.04 0 .05.03.03.07-.08.19-.13.33-.3.46-.33.27-.61.5-.86.68-.07.06-.2.19-.37.39-.04.05-.03.1-.04.14-.02.09-.05.1-.08.06-.09-.15-.2-.28-.33-.4-.35-.3-.65-.52-.9-.65-.13-.07-.22-.19-.32-.3Z" fill="#FFFEFE"/><path d="M13.48 9.88a.09.09 0 1 0 0-.17.09.09 0 0 0 0 .17Z" fill="#F1D1A9"/><path d="M4 9.75h-.01a.06.06 0 0 0-.04.08l.06.21c0 .04.04.05.07.04h.01a.06.06 0 0 0 .04-.07l-.06-.22A.06.06 0 0 0 4 9.75Z" fill="#F0CF71"/><path d="M4.6 9.93a.1.1 0 0 1 .14-.01c.05.04.08.08.1.13.03.04.05.1.06.14l-.01.14a.28.28 0 0 1-.06.11.3.3 0 0 1-.25.1c-.1 0-.2-.05-.28-.12a.1.1 0 0 1-.01-.15l.31-.34Z" fill="#FFFEFE"/><path d="M11.26 10a.61.61 0 0 1-.1.2 8.82 8.82 0 0 1-.99.73l-.01-.03v-.03c.25-.17.5-.35.74-.54.13-.1.22-.24.27-.41l.1.08Z" fill="#B65754"/><path d="M13.77 10.75c.1 0 .2.05.25.14.1.18-.07.4-.24.44-.17.04-.53.02-.59-.2l-.06-.2c-.18-.47.43-.9.56-.35l.04.14c0 .02.02.03.04.03Z" fill="#FFFEFE"/><path d="M11.77 11.16c-.06.02-.1.07-.1.14a.1.1 0 0 1-.02.06.25.25 0 0 1-.08.06c-.03.01-.03.03-.02.05.03.05.08.08.15.1h-.09c-.04.01-.04.02 0 .03.32.07.6.28.6.64 0 .05-.02.06-.06.03-.29-.19-.6-.25-.94-.17-.23.05-.38.18-.44.38a.05.05 0 0 1-.05.04h-.1c-.02 0-.04-.03-.04-.06-.01-.36.17-.5.45-.72.02-.02.02-.02 0-.02-.1 0-.22.11-.27.14-.12.08-.16.05-.12-.08.14-.5.42-.92.85-1.27a.05.05 0 0 1 .07 0c.13.08.23.17.29.28.06.12.03.24-.08.37Z" fill="#2F8CB7"/><path d="m6.32 10.51-.05.24a.07.07 0 0 0 .02.06c.11.15.18.3.21.46a1.12 1.12 0 0 0-.48-.32.1.1 0 0 1-.06-.15c.1-.17.22-.27.36-.29Z" fill="#61B9D4"/><path d="M6.5 11.27c-.03-.16-.1-.31-.21-.46a.08.08 0 0 1-.02-.06l.05-.24c.22.12.46.22.58.44.1.18.3.34.36.55a1.03 1.03 0 0 1 0 .66h-.02a.03.03 0 0 1-.03 0c-.17-.28-.28-.33-.63-.48a1 1 0 0 0-.41-.09c-.33.01-.6.13-.82.34-.02.02-.04.02-.06 0v-.06c.09-.17.2-.32.36-.43a.07.07 0 0 0 .03-.06c.02-.16.1-.29.26-.38a.07.07 0 0 1 .08.01l.87.66-.01-.03a3 3 0 0 1-.38-.37Z" fill="#2F8CB7"/><path d="M11.6 10.78h.01v.01l-.01.02a13.41 13.41 0 0 1-.54.48 10.9 10.9 0 0 1 .49-.54v-.01a.01.01 0 0 1 .02 0l.04.04Z" fill="#0F080C"/><path d="M7.38 11.63c-.1-.35-.25-.5-.4-.71-.05-.07-.03-.08.04-.05.62.3.96.95.6 1.6-.07.13-.16.13-.3.07-.03-.02-.03-.04-.02-.06l.06-.14v-.03l.01-.18c.04-.15.05-.35.01-.5ZM9.9 11.77c-.01.03 0 .1.02.2.04.17.12.35.25.54.03.06.02.1-.05.1l-.75.1h-.01a.03.03 0 0 1-.02-.04c.05-.08.13-.15.15-.23.06-.19 0-.34-.15-.46a.07.07 0 0 1-.02-.1c.19-.27.45-.36.73-.52.27-.17.6-.33.84-.45.08-.03.1-.02.05.05-.12.2-.23.44-.33.73l-.17.52c-.04.1-.02.16-.01.27 0 .02-.01.04-.04.05-.07.02-.15.02-.19-.06-.08-.21-.27-.39-.27-.7 0-.06-.02-.07-.03 0Z" fill="#2F8CB7"/><path d="M12.92 11.23c.08.04.18.01.21-.06.04-.07 0-.16-.08-.2-.08-.04-.18-.02-.21.06-.04.07 0 .16.08.2Z" fill="#FFFEFE"/><path d="M12.51 11.16c.03.05.08.07.13.05.04-.02.05-.08.03-.13-.03-.05-.08-.07-.13-.04-.04.02-.05.08-.03.12Z" fill="#FDECB6"/><path d="M11.77 11.16c.17.04.19.12.27.24.07.12.22.23.26.34.07.17.04.2-.1.06-.12-.1-.28-.19-.5-.24-.07-.01-.12-.04-.15-.09-.01-.02 0-.04.02-.05a.25.25 0 0 0 .08-.06.1.1 0 0 0 .02-.06c0-.07.04-.12.1-.14Z" fill="#61B9D4"/><path d="M8.91 12.67h.02a.03.03 0 0 1 0 .03H8.9a5.1 5.1 0 0 1-1.15-.1.06.06 0 0 1 0-.05 2.19 2.19 0 0 0 .02-1.29.02.02 0 0 1 .02 0c.36.17.74.3 1.04.63a.06.06 0 0 1 .01.07c0 .01 0 .02-.02.02-.17.15-.28.28-.11.51.07.1.13.15.17.17h.02Z" fill="#2F8CB7"/><path d="M12.72 11.35c.05.01.08.03.1.06 0 .02 0 .04-.03.05h-.09a.05.05 0 0 1-.02-.05c0-.02 0-.04.02-.05l.02-.01Z" fill="#F1D1A9"/><path d="M6.33 11.66c.42.07.82.33.83.79a.07.07 0 0 1-.03.06.1.1 0 0 1-.09.01L7 12.47c-.25-.45-.93-.5-1.3-.23-.11.08-.16.05-.15-.08v-.07a.4.4 0 0 1 .17-.3c.16-.13.37-.17.62-.13Z" fill="#2F8CB7"/><path d="M9.45 12.3c0 .09-.04.17-.1.22a.42.42 0 0 1-.4.06.37.37 0 0 1-.12-.06.3.3 0 0 1-.08-.1.27.27 0 0 1-.02-.12c0-.08.04-.16.1-.21a.4.4 0 0 1 .26-.1c.05 0 .1.02.14.03l.12.07a.3.3 0 0 1 .07.1l.03.12Z" fill="#E3AA29"/><path d="M9.2 12.22a.14.14 0 0 1 0 .2l-.06.06a.15.15 0 0 1-.2 0l-.08-.1a.14.14 0 0 1 0-.2l.06-.05a.14.14 0 0 1 .16-.03l.04.03.09.09Z" fill="#0F080C"/><path d="M5.95 12.34c-.03.1-.1.14-.18.11a.07.07 0 0 1-.03-.1c.27-.35 1.08-.23 1.18.22a.1.1 0 0 1-.15.12l-.04-.03a.06.06 0 0 1-.03-.06c0-.05 0-.1-.02-.14h-.02l-.01-.01c-.01 0-.02 0-.03.02v.02l.01.1c0 .03-.01.05-.03.06a.44.44 0 0 1-.21.06c-.03 0-.04-.01-.04-.03v-.25c0-.02 0-.03-.03-.02-.03.02-.04.06-.03.13a.07.07 0 0 1-.09.08.36.36 0 0 1-.18-.1.06.06 0 0 1-.02-.06.21.21 0 0 0 0-.12.02.02 0 0 0-.02-.01h-.02v.01ZM11.84 12.31c0-.01 0-.02-.01-.01l-.02.01c0 .15-.08.25-.22.3a.08.08 0 0 1-.07 0 .08.08 0 0 1-.05-.06l-.01-.14c0-.03-.02-.03-.04-.01-.03.03-.03.1.01.2a.07.07 0 0 1-.04.09h-.03c-.14-.02-.2-.1-.21-.24a.03.03 0 0 0-.03-.02h-.01l-.02.01v.01c0 .05 0 .1.02.15v.02a.04.04 0 0 1-.02.04h-.02c-.28 0-.22-.3-.03-.4a.93.93 0 0 1 .97.04.1.1 0 0 1 .05.07c0 .07-.04.1-.12.09-.07-.01-.1-.06-.1-.15ZM9.04 12.4a.1.1 0 1 0-.1-.1c0 .05.05.1.1.1Z" fill="#FFFEFE"/><path d="M6.43 12.84c.03.18.03.33 0 .43-.03.1 0 .16.1.18l.26.04c.1.02.15-.02.15-.13a.7.7 0 0 1 .06-.35c.01-.02 0-.04-.01-.06l-.07-.05a.06.06 0 0 0-.06 0c-.11.05-.2.01-.33-.02-.03 0-.05-.02-.05-.05.05-.03.1-.04.15-.05h.07c.12.07.22.03.29-.1a.1.1 0 0 1 .1-.05c.75.12 1.5.17 2.25.13.41-.01.99-.1 1.4-.13.01 0 .03 0 .05.02l.14.1.06.03c.2.02.34.05.48 0 .15-.06.28-.13.4-.2.05-.04.24-.1.57-.15.32-.06.57.04.73.3.05.07.06.15.01.23-.02.02-.03.02-.04 0a.55.55 0 0 0-.43-.34l-.03.01v.02c.32.13.53.41.36.73-.12.23-.43.3-.65.2-.11-.06-.17-.15-.26-.23h-.01l-.01.01v.02l.1.17c.02.02.01.04-.01.05-.19.07-.3.12-.34.12-.78.2-1.3.3-1.58.32-.33.03-.72.09-1.05.1a11.1 11.1 0 0 1-3.5-.51c-.06-.02-.06-.05-.03-.08.06-.07.1-.13.13-.2.02-.05 0-.05-.02-.02-.26.3-.58.45-.91.13a.65.65 0 0 1-.08-.2c-.08-.24.13-.49.33-.59.06-.03.06-.04-.01-.03-.15.02-.26.13-.36.26-.1.12-.12.1-.08-.04.14-.6.89-.48 1.28-.24.17.1.32.17.45.22Z" fill="#FFFEFE"/><path d="M6.48 12.83c0 .03.02.05.05.05.12.03.22.07.33.02.02-.02.04-.01.06 0l.07.05c.02.02.02.04.01.06a.7.7 0 0 0-.06.35c0 .1-.05.15-.15.13l-.26-.04c-.1-.02-.13-.08-.1-.18a.98.98 0 0 0 0-.43l.05-.01ZM11.37 13.41c-.04-.13-.02-.3-.11-.4-.02-.02-.02-.04 0-.05.03-.03.06-.04.08-.03.15.03.28 0 .4-.1a.06.06 0 0 1 .05 0c.01 0 .02 0 .03.02v.03l.07.44a.03.03 0 0 1-.04.04c-.16-.05-.28-.02-.38.08a.06.06 0 0 1-.05.01.06.06 0 0 1-.05-.04ZM7.05 13.34l.02-.27c0-.02.01-.04.04-.05a.4.4 0 0 0 .18-.1.02.02 0 0 1 .02 0c.15.2.23.16.5.16.07 0 .09-.02.13-.06.03-.01.05-.01.07 0 .12.08.04.18.05.26v.27c0 .06-.03.1-.1.09l-.33-.03c-.05 0-.08-.03-.08-.09l.03-.3a.04.04 0 0 0-.01-.03h-.01l-.02-.01h-.02c-.03 0-.05.01-.05.04l-.05.33a.04.04 0 0 1-.08.02.4.4 0 0 1-.06-.13l-.01-.02a.05.05 0 0 0-.07 0l-.08.11a.05.05 0 0 1-.04.02.05.05 0 0 1-.04-.02c-.04-.04-.04-.08-.01-.12a.16.16 0 0 0 .02-.07ZM10.69 13.05a.67.67 0 0 0 .18-.13.05.05 0 0 1 .06-.01.6.6 0 0 0 .25.06c.03 0 .04 0 .05.03.04.13.03.25-.03.35-.02.02-.02.04 0 .06.03.04.07.06.12.09a.05.05 0 0 1 .03.04v.05c0 .02-.02.03-.04.03-.11-.02-.2-.09-.26-.23-.02-.04-.06-.05-.1-.03a.05.05 0 0 0-.03.05v.05c0 .12-.04.14-.12.04a.6.6 0 0 1-.12-.34c0-.04-.02-.05-.05-.04l-.16.07c-.04.01-.06.04-.05.08l.02.15c0 .03.02.04.05.03h.09c.04-.01.06 0 .06.05v.04c0 .03-.03.05-.06.05-.2.02-.41.05-.47.01a.05.05 0 0 1-.02-.04.05.05 0 0 1 .03-.04l.15-.05c.02 0 .03-.02.03-.04a.5.5 0 0 0-.02-.16c-.02-.03-.04-.05-.07-.05h-.12a.05.05 0 0 1-.04-.03c-.01-.04 0-.06.04-.08.14-.05.32-.06.53-.05h.07Z" fill="#D60101"/><path d="m11.64 13.04-.13.03a.07.07 0 0 0-.06.08v.04c.02.03.05.06.1.05l.13-.02c.03-.01.06-.05.05-.09v-.03a.07.07 0 0 0-.09-.06Z" fill="#FFFEFE"/><path d="M9.79 13.25a.02.02 0 0 0-.02.01v.04h.18c.04-.01.06.01.06.05v.04c0 .04-.01.06-.05.05l-.24-.01H9.7a.04.04 0 0 0-.03.03v.04c0 .03.02.04.04.03l.22-.03a.08.08 0 0 1 .08.04l.01.03v.02a.03.03 0 0 1 0 .03H10l-.4.06h-.03l-.02-.02c-.09-.15-.07-.27.04-.35.04-.03.04-.04 0-.05a.25.25 0 0 1-.1-.04c-.07-.04-.06-.06.02-.07l.43-.06c.05 0 .07.01.06.06v.03c0 .03-.02.04-.04.05l-.17.02Z" fill="#D60101"/><path d="M10.97 13.24c.08-.01.13-.06.13-.1-.01-.03-.08-.05-.15-.04-.08.01-.13.05-.13.1.01.03.08.05.15.04ZM13.9 13.39a.14.14 0 1 0 0-.28.14.14 0 0 0 0 .28Z" fill="#FFFEFE"/><path d="m8.42 13.48.07-.28c.01-.03.03-.05.06-.06.04-.02.07-.01.1.01a.05.05 0 0 1 0 .06.5.5 0 0 0-.05.39c.01.02 0 .04-.02.05a.41.41 0 0 0-.18.13c-.02.02-.04.02-.06 0a.56.56 0 0 0-.14-.15c-.03-.01-.03-.03-.02-.06.05-.11.04-.23-.03-.37-.02-.04-.01-.06.03-.07h.09c.02 0 .04.01.04.03l.03.3c.01.1.04.11.08.02Z" fill="#D60101"/><path d="M7.3 13.27c.04-.03.05-.07.03-.1-.03-.03-.07-.03-.1 0-.04.02-.05.07-.03.1.03.03.07.03.1 0Z" fill="#FFFEFE"/><path d="m9.43 13.17-.02.46c0 .03-.02.05-.05.05h-.04c-.02 0-.03-.02-.03-.04v-.22c0-.05-.02-.07-.07-.07h-.06c-.01 0-.02 0-.02.02l-.02.27c0 .04-.02.05-.05.05h-.03c-.03 0-.04-.02-.04-.04v-.48c0-.02.01-.03.04-.03l.16.05h.06c.06-.04.11-.05.17-.03Z" fill="#D60101"/><path d="M5.05 13.32c.04-.01.08-.04.07-.06 0-.02-.04-.03-.09-.02-.05.01-.08.04-.08.06 0 .02.05.03.1.02ZM12.87 13.33c.05 0 .08-.02.08-.04s-.03-.04-.07-.04c-.05 0-.08.01-.08.04 0 .02.03.04.07.04Z" fill="#0F080C"/><path d="M6.8 13.31v.02c-.01.02-.02.02-.04.02-.13-.01-.19-.03-.19-.06s.07-.04.2-.02c.02 0 .03.01.03.03v.01Z" fill="#FFFEFE"/><path d="M11.77 14.03v.03l-.02.01c-.22.1-.45.28-.62.37-1.27.68-2.6.74-3.95.19-.37-.15-.64-.37-.99-.53l-.01-.03v-.02h.01l.25.07.06.03c1.01.8 2.62.86 3.8.56.4-.1.74-.28 1.05-.56a1.17 1.17 0 0 1 .4-.17.04.04 0 0 1 .02.03v.02Z" fill="#BF8067"/></svg>