<!-- by TradingView --><svg width="18" height="18" viewBox="0 0 18 18" xmlns="http://www.w3.org/2000/svg"><path fill="#BAAC92" d="M0 0h18v18H0z"/><path d="M5.67 9.86v.34h.95V6.56l6.05-1.06v-.44H13v-.69h-.33V3.7h-.72V3h-1.59v.69h-3.7v.68H6v.69h-.33V7.1H5v2.75h.67Z" fill="#386068"/><path d="M6 5.4h-.33v-.69h1.5v-.34h.5V3.7h2v.68h-1v.34h-1v.69h-1v1.15H6V5.4ZM9.83 5.06v-.69h.5v-.34H11v.34h.33V3.7h1.34v1.37H9.83Z" fill="#29484B"/><path d="M6.11 6.43h-.78v.68H5v1.03h.67V7.6h.44V6.43ZM5.67 10.2h.67v.69h-.67z" fill="#29484B"/><path d="M6 6.43v3.33l.4.22v4.63h3.23v-1.4h.96l1.38-1.37V5.4h-.64v-.34h-3v.34H7v.69h-.37v.34H6Z" fill="#F5CA9F"/><path d="M8.33 13.29H6.82l-.07.67L8.22 15H10v-1.07h-.67v.38h-.66v-.34h-.34v-.68Z" fill="#FEFFFF"/><path d="M11.97 5.4h.7v6.51h-.65v.35h-.69v-.69h.64V5.4Zm-6.3 2.74h.66v1.72h-.66V8.14Zm1 1.72H6V15h2.33v-.69h-.66v-.34H7v-.34h.67v-.69h-1V9.86Zm2 0H8v.68h.67v-.68Zm0 3.08h2v-.68h.66v.68h-.66v.69H10v.34h-.67v-.34h-.66v-.69ZM11 11.23h-.67v.68H11v-.68Zm-.67.34h-1v-.34h1v-.69H8.67v1.03h.66v.69h1v-.69ZM8 12.26h.67v.68H8v-.68Zm1.33-3.09H10v.69h-.67v-.69Z"/><path fill="#FDF9F5" d="M7.65 8.14h.67v.69h-.67zM9.67 8.14h.67v.69h-.67z"/><path fill="#6B5B94" d="M8.33 8.14H9v.69h-.67zM10.33 8.13H11v.69h-.67z"/><path fill="#386068" d="M7.33 7.46H9v.69H7.33zM9.67 7.46h1.67v.69H9.67z"/></svg>