<!-- by TradingView --><svg width="18" height="18" viewBox="0 0 18 18" xmlns="http://www.w3.org/2000/svg"><path fill="url(#a)" d="M0 0h18v18H0z"/><path fill-rule="evenodd" d="M10.83 3.03a.2.2 0 0 1 .2 0l1.86 1.03c.07.03.11.1.11.18V6.7a.2.2 0 0 1-.1.18l-1.87 1.03a.2.2 0 0 1-.21-.01L8.95 6.67a.2.2 0 0 1-.09-.17V4.24a.2.2 0 0 1 .1-.18l1.87-1.03ZM9.21 4.59v1.8l1.51.96V5.4l-1.51-.8Zm1.93.8v2l1.52-.8v-2l-1.52.8Zm1.23-1.15-1.44.79-1.43-.8 1.43-.79 1.44.8Z" fill="#28BC64"/><path fill-rule="evenodd" d="M7.04 3.03a.2.2 0 0 1 .2 0L9.1 4.06c.07.03.1.1.1.18V6.7a.2.2 0 0 1-.1.18L7.24 7.92a.2.2 0 0 1-.22-.01L5.16 6.67a.2.2 0 0 1-.1-.17V4.24a.2.2 0 0 1 .12-.18l1.86-1.03ZM5.4 4.59v1.8l1.52.96V5.4l-1.52-.8Zm1.94.8v2l1.51-.8v-2l-1.51.8Zm1.22-1.15-1.43.79-1.44-.8 1.44-.79 1.43.8ZM7.04 10.08a.2.2 0 0 1 .2 0l1.86 1.03c.07.04.1.1.1.18v2.47a.2.2 0 0 1-.1.18l-1.86 1.03a.2.2 0 0 1-.22 0l-1.86-1.24a.2.2 0 0 1-.1-.17v-2.27a.2.2 0 0 1 .12-.18l1.86-1.03ZM5.4 11.64v1.8l1.52.97v-1.97l-1.52-.8Zm1.94.8v2l1.51-.8v-2l-1.51.8Zm1.22-1.15-1.43.8-1.44-.8 1.44-.79 1.43.8Z" fill="#28BC64"/><path fill-rule="evenodd" d="M10.83 10.08a.2.2 0 0 1 .2 0l1.86 1.03c.07.04.11.1.11.18v2.47a.2.2 0 0 1-.1.18l-1.87 1.03a.2.2 0 0 1-.21 0l-1.87-1.24a.2.2 0 0 1-.09-.17v-2.27a.2.2 0 0 1 .1-.18l1.87-1.03Zm-1.62 1.56v1.8l1.51.97v-1.97l-1.51-.8Zm1.93.8v2l1.52-.8v-2l-1.52.8Zm1.23-1.15-1.44.8-1.43-.8 1.43-.79 1.44.8ZM5.14 6.4a.2.2 0 0 1 .2 0L7.2 7.43c.07.04.11.1.11.18v2.47a.2.2 0 0 1-.1.18L5.33 11.3a.2.2 0 0 1-.21 0l-2.04-1.24A.2.2 0 0 1 3 9.88V7.6a.2.2 0 0 1 .1-.18L5.15 6.4Zm-1.8 1.56v1.8l1.7.97V8.76l-1.7-.8Zm2.1.8v2l1.53-.8v-2l-1.52.8Zm1.24-1.15-1.44.8-1.6-.8 1.6-.79 1.44.8Z" fill="#28BC64"/><defs><linearGradient id="a" x1="3.35" y1="3.12" x2="21.9" y2="24.43" gradientUnits="userSpaceOnUse"><stop stop-color="#1A1E21"/><stop offset="1" stop-color="#06060A"/></linearGradient></defs></svg>