<!-- by TradingView --><svg width="18" height="18" viewBox="0 0 18 18" xmlns="http://www.w3.org/2000/svg"><path fill="#2B3CFE" d="M0 0h18v18H0z"/><path d="M10.16 11.27h-.02l-.01-.01-2.17-5.23L7.95 6 7.92 6h-1.6l-.02.01a.02.02 0 0 0 0 .02l2.5 5.99c.23.59.74.98 1.35.98.61 0 1.12-.4 1.36-.98A2499.82 2499.82 0 0 1 14 6H12.35l-.01.03-2.17 5.23-.01.01ZM8.47 12.8l-2.8-6.77-.02-.02L5.62 6h-1.6C4 6 4 6 4 6.03l2.39 5.72.03.08c.09.22.18.45.3.6.4.48.88.65 1.48.53a.81.81 0 0 0 .25-.1c.03-.01.03-.03.02-.06Z" fill="#fff"/></svg>