<!-- by TradingView --><svg width="18" height="18" viewBox="0 0 18 18" xmlns="http://www.w3.org/2000/svg"><path fill="url(#a)" d="M0 0h18v18H0z"/><path d="M8.45 3.68c0 .38.25.68.55.68.3 0 .55-.3.55-.68C9.55 3.3 9.3 3 9 3c-.3 0-.55.3-.55.68ZM6.05 3.6c-.16.33-.07.7.2.83.28.13.63-.04.8-.38.16-.34.06-.71-.21-.84-.28-.13-.63.05-.8.38ZM10.96 4.05c.16.34.51.5.79.38.27-.13.36-.5.2-.84-.16-.34-.52-.5-.8-.38-.26.13-.36.5-.2.84Z" fill="#231040"/><path d="M9 5.56c.15 0 .3.03.43.1l.48.22c.3.14.58.14.85 0l.41-.23a.84.84 0 1 1 .57 1.58.84.84 0 0 1-.57-.07c-.18-.1-.38-.22-.55-.28a.9.9 0 0 0-.99.23c-.2.19-.26.38-.27.66 0 .2.03.37.11.5s.24.3.3.45c.1.22.1.44 0 .68-.03.1-.11.28-.24.56a1 1 0 0 0 0 .87l.17.37c.07.16.12.29.13.37.06.33-.04.6-.3.8a.81.81 0 0 1-.53.2.81.81 0 0 1-.54-.2.82.82 0 0 1-.3-.8l.14-.37.17-.37a1 1 0 0 0 0-.87 13.2 13.2 0 0 1-.25-.56.84.84 0 0 1 0-.68c.07-.14.23-.32.3-.45.09-.13.13-.3.12-.5a.88.88 0 0 0-.27-.66.9.9 0 0 0-.99-.23c-.17.06-.37.19-.55.28a.85.85 0 0 1-1.16-.43.84.84 0 0 1 1.15-1.08l.42.22a.9.9 0 0 0 .85 0l.48-.22c.13-.06.28-.09.43-.09Z" fill="url(#b)"/><path d="M3.25 6.32c-.23.3-.23.69 0 .87.25.19.63.1.87-.2.24-.29.24-.68 0-.87-.24-.18-.63-.1-.87.2ZM13.88 7c.24.29.62.37.86.19.24-.19.24-.58 0-.87-.23-.3-.62-.38-.86-.2-.24.2-.24.58 0 .88Z" fill="#231040"/><path d="M6.27 9.77c.46 0 .83-.36.83-.81a.82.82 0 0 0-.83-.81.82.82 0 0 0-.82.8c0 .46.37.82.82.82ZM11.73 9.77c.45 0 .82-.36.82-.81a.82.82 0 0 0-.82-.81.82.82 0 0 0-.83.8c0 .46.37.82.83.82Z" fill="#4B207C"/><path d="M3.68 9.64c.38 0 .69-.27.69-.61 0-.34-.3-.62-.69-.62-.37 0-.68.28-.68.62 0 .34.3.61.68.61ZM14.3 9.64c.39 0 .7-.27.7-.6 0-.34-.3-.62-.68-.63-.38 0-.69.27-.69.61 0 .34.3.62.68.62Z" fill="#231040"/><path d="M5.6 11.83c.11.44.52.72.93.63.4-.1.65-.52.55-.96-.1-.44-.52-.72-.92-.63-.4.1-.65.53-.55.96ZM10.92 11.51c-.1.44.16.87.56.95.41.09.82-.2.91-.64.1-.44-.15-.86-.56-.95-.4-.09-.81.2-.9.64Z" fill="#3B1A66"/><path d="M3.26 11.88c.24.28.63.37.86.17.24-.19.23-.57-.01-.86-.24-.3-.63-.37-.86-.18-.24.19-.23.58.01.87ZM13.88 11.2c-.23.3-.23.68 0 .87.25.18.63.09.87-.2.23-.3.23-.7-.01-.88-.24-.18-.62-.09-.86.21ZM6.04 14.4c.16.35.5.53.79.4.27-.12.37-.5.22-.84-.16-.34-.5-.52-.79-.4-.27.12-.37.5-.22.84ZM10.96 13.95c-.17.34-.07.72.2.85.28.12.63-.05.8-.4.15-.33.06-.71-.21-.84-.28-.12-.63.05-.8.4ZM8.45 14.32c0 .38.25.68.55.68.3 0 .55-.3.55-.68 0-.38-.25-.68-.55-.68-.3 0-.55.3-.55.68Z" fill="#231040"/><defs><linearGradient id="a" x1="3.35" y1="3.12" x2="21.9" y2="24.43" gradientUnits="userSpaceOnUse"><stop stop-color="#1A1E21"/><stop offset="1" stop-color="#06060A"/></linearGradient><linearGradient id="b" x1="9" y1="5.56" x2="9" y2="12.57" gradientUnits="userSpaceOnUse"><stop stop-color="#A73BFF"/><stop offset="1" stop-color="#893CFB"/></linearGradient></defs></svg>