<!-- by TradingView --><svg width="18" height="18" viewBox="0 0 18 18" xmlns="http://www.w3.org/2000/svg"><path fill="#F0F3FA" d="M0 0h18v18H0z"/><path d="M9.36 4.65c-.1 0-.2.06-.26.16L8.27 6.5a.9.9 0 0 1-.77.5H5.76a.28.28 0 0 0-.28.2l-.87 2.5c-.08.2.07.3.27.3h4.63a.3.3 0 0 0 .27-.2l.7-1.3h.58l-.74 1.56a.88.88 0 0 1-.81.59H4.88a.86.86 0 0 1-.82-1.18l.88-2.5a.89.89 0 0 1 .82-.63H7.5c.1 0 .2-.06.26-.16l.83-1.7c.16-.3.45-.48.77-.48h2.15c.63 0 1.05.7.8 1.34L11.7 6.5h-.59l.67-1.4c.08-.22-.06-.45-.27-.45H9.36Zm-.71 3c-.11 0-.22-.03-.27.08L7.53 9.5h-.59l.92-2.06c.15-.33.45-.44.79-.44h4.47c.63 0 1.05.6.81 1.24l-.98 2.81a.88.88 0 0 1-.8.6h-1.68a.3.3 0 0 0-.28.22l-.47 1.45a.9.9 0 0 1-.84.68H6.3c-.6 0-1.02-.63-.84-1.26L5.9 11h.59l-.48 1.94c-.06.2.08.41.28.41h2.58a.3.3 0 0 0 .28-.22l.47-1.45a.9.9 0 0 1 .84-.68h1.67a.3.3 0 0 0 .27-.2l1-2.8c.08-.22-.06-.35-.27-.35H8.65Z" fill="url(#a)"/><defs><linearGradient id="a" x1="11.77" y1="4.48" x2="5.53" y2="11.64" gradientUnits="userSpaceOnUse"><stop stop-color="#04BDFE"/><stop offset="1" stop-color="#036AF2"/></linearGradient></defs></svg>