<!-- by TradingView --><svg width="18" height="18" viewBox="0 0 18 18" xmlns="http://www.w3.org/2000/svg"><path fill="#FF4E00" d="M0 0h18v18H0z"/><path d="M10.91 4.95a.2.2 0 0 1-.12.06c-.15-.06-.23-.13-.27-.21a14.16 14.16 0 0 1-.1-.3 16.24 16.24 0 0 1-.17-1.17c0-.11.05-.2.16-.27a.4.4 0 0 1 .28-.06c.12.02.2.07.26.16.04.06.06.16.07.29l.03.6a2.2 2.2 0 0 1-.05.5c0 .07-.02.13-.04.2l-.05.2Z" fill="#D31A20"/><path d="M10.74 3.15h.02l.01.02v.19c0 .04-.01.06-.03.07h-.01c-.02 0-.04-.02-.06-.06a.54.54 0 0 1-.04-.16v-.04l.02-.01.1-.01Z" fill="#FA8070"/><path d="M12.5 5.08a.62.62 0 0 1-.22.14.1.1 0 0 1-.07 0 .08.08 0 0 1-.04-.05.65.65 0 0 1-.02-.38c0-.02 0-.03-.02-.04l-.05.01c.05-.15.1-.3.13-.45l.1-.3a13 13 0 0 1 .24-.5.3.3 0 0 1 .18-.13.43.43 0 0 1 .24 0c.06.03.13.07.2.13.1.1.08.3-.08.59l-.24.4a7.3 7.3 0 0 0-.35.58Z" fill="#D31A20"/><path d="M13.04 3.61c.01 0 .02.01.01.03l-.02.04a.32.32 0 0 1-.06.1c-.03.02-.05.03-.06.02h-.01c-.02 0-.03-.03-.03-.06a.3.3 0 0 1 .03-.11l.02-.04c0-.01.01-.02.03-.01l.09.03Z" fill="#FA8070"/><path d="M10.79 5.01a.2.2 0 0 0 .12-.06c.23-.1.45-.17.67-.21.17-.03.34-.02.5.02h.05c.02 0 .02.01.02.03a.65.65 0 0 0 .02.38c0 .02.02.04.04.05a.1.1 0 0 0 .07 0 .62.62 0 0 0 .22-.14c.16.32.21.67.16 1.03l-.06.14a.25.25 0 0 0-.03.15.8.8 0 0 0 .05.19c-.04.23-.1.46-.19.67a.19.19 0 0 0 0 .16c.08.16.14.33.18.52l.06.53c0 .05.03.1.06.17l.1.16c.24.25.42.49.53.7.17.35.16.6-.04.76-.05.05-.09.1-.11.18a1.9 1.9 0 0 1-.43.68c-.19.2-.4.38-.64.54a.11.11 0 0 0-.05.07 1.86 1.86 0 0 1-1.35 1.33l-.12.04a.29.29 0 0 0-.1.07 2.52 2.52 0 0 1-1.17.72 2.85 2.85 0 0 1-1.82-.1.65.65 0 0 0-.16-.03h-.16l-.17-.01a3.32 3.32 0 0 1-2.2-1.25 2.18 2.18 0 0 1-.36-.72 1.38 1.38 0 0 1-.04-.54c.02-.15.07-.32.15-.52 0-.03 0-.05-.02-.07a1.63 1.63 0 0 1-.3-.34c-.1-.16-.13-.29-.07-.39l.01-.01.07-.05c.02-.01.02-.03 0-.05-.09-.14-.17-.27-.23-.4-.1-.23-.05-.38.15-.45l.17-.08c.07-.04.13-.08.18-.13.14-.12.2-.22.19-.32A1.2 1.2 0 0 1 4.75 8a.8.8 0 0 0 .02-.23c0-.12 0-.25.04-.38a.36.36 0 0 0 0-.17c-.05-.29-.06-.6 0-.9.06-.4.18-.75.35-1.06.2-.37.47-.65.8-.83.12-.07.25-.11.4-.13.13-.01.27 0 .41.02a1.73 1.73 0 0 1 .76.35c.28.23.51.5.7.8.03.06.07.1.12.13.05.03.11.04.18.03.43-.05.9-.03 1.37.06.03 0 .06 0 .08-.03.22-.24.48-.45.8-.64Z" fill="#18070E"/><path d="M6.52 4.63a.89.89 0 0 0-.2.14c-.47.45-.72.98-.75 1.6 0 .26.03.5.11.7.11.24.29.4.53.48.02 0 .03 0 .03-.02 0-.05 0-.1-.03-.15.1 0 .17-.01.22-.03.03-.01.04-.03.04-.05.01-.03 0-.05-.02-.06l-.03-.04c-.02 0-.02-.02 0-.03a.08.08 0 0 1 .06-.02v.02h.02a2.75 2.75 0 0 0 .81.16v.02a5.28 5.28 0 0 0-1.5 1.4c-.1.13-.22.25-.37.35a2.62 2.62 0 0 1-.47.27l.01.01.18.06a3.53 3.53 0 0 0 .63.09v.02l-.4.12-.02.02.01.03a.8.8 0 0 0 .2.1c.25.08.5.12.76.12.02 0 .02 0 0 .02v.01a3.42 3.42 0 0 1-1.49-.1 2.9 2.9 0 0 0-.14-.06c-.02-.08.02-.12.12-.15.04 0 .08-.02.11-.03.03 0 .03-.01 0-.02l-.3-.13a.98.98 0 0 1-.25-.18v-.03c.19-.08.36-.18.52-.29.18-.13.32-.26.42-.4a5.32 5.32 0 0 0-.3.15.4.4 0 0 0 .1-.38.96.96 0 0 1-.02-.16c0-.04 0-.09.02-.14l.01-.02h.03c.05.07.1.08.13.05.02.05.05.08.07.1.07.04.1.03.04-.04 0-.01 0-.02-.02-.03a.14.14 0 0 1-.03-.05c-.07-.16-.1-.31-.12-.47 0-.03 0-.05.03-.07h.03c.04.11.12.21.24.3h.01v-.03c-.1-.12-.16-.23-.21-.36l-.01-.1a8.65 8.65 0 0 0-.05-.37 1.86 1.86 0 0 1-.03-.37 2.72 2.72 0 0 1 .48-1.42.74.74 0 0 1 .1-.13c.06-.05.08-.1.06-.16.1-.1.23-.18.4-.23a.5.5 0 0 1 .23-.02Z" fill="#8D4524"/><path d="M6.52 4.63a.5.5 0 0 1 .16.03l-.25.14h-.01v.02h.01l.02.02h.03c.14-.1.27-.13.4-.1.17.06.33.18.48.35-.08 0-.1.07-.06.18v.04a.13.13 0 0 1-.14.06l-.23-.03a4.67 4.67 0 0 0-.1-.07.22.22 0 0 0-.1-.04c-.08 0-.14 0-.2.02-.21.07-.37.24-.5.5a1.83 1.83 0 0 0-.13 1.18.8.8 0 0 0 .31.45l.03.15c0 .02-.01.02-.03.02a.8.8 0 0 1-.53-.49c-.08-.2-.12-.43-.1-.7.02-.61.27-1.14.74-1.59.06-.05.12-.1.2-.14Z" fill="#FA9B47"/><path d="M6.68 4.66c.11 0 .2 0 .25.03a2.55 2.55 0 0 1 1 1.01c.03.05.07.1.13.13l.02.07c0 .02 0 .03-.02.02a.25.25 0 0 1-.17-.11l-.24-.38a3 3 0 0 0-.3-.34c-.14-.17-.3-.29-.47-.34-.13-.04-.26-.02-.4.08h-.05v-.01l-.01-.01V4.8l.26-.14Z" fill="#D3B9A3"/><path d="m14.72 4.78-.05.04a.12.12 0 0 1-.04.02l-.07.02a.08.08 0 0 0-.04.02.8.8 0 0 1-.2.18c-.1.05-.18.12-.25.2a.43.43 0 0 1-.1.07.34.34 0 0 0-.08.08.89.89 0 0 1-.2.2 5.45 5.45 0 0 0-.24.14.47.47 0 0 1 .13-.13.91.91 0 0 0 .22-.2c.03-.02.02-.02 0 0l-.42.34c-.04.03-.1.12-.18.28-.01.02 0 .03.01.04l.08.04v.02a.44.44 0 0 1-.17 0c-.02 0-.03-.01-.03-.03a.17.17 0 0 1 0-.1c.03-.09.07-.15.1-.2.04-.07.1-.12.16-.18l.42-.35c.14-.13.33-.27.56-.41a.53.53 0 0 1 .4-.09Z" fill="#6E3524"/><path d="M14.72 4.78a.4.4 0 0 1 .2.12h.03c.03.09.05.16.05.23 0 .1-.05.17-.15.24a5.57 5.57 0 0 1-1.03.6c-.15.07-.3.13-.48.17a.1.1 0 0 1-.06 0l.01-.01v-.01l-.08-.04c-.02-.01-.02-.02-.01-.04.08-.16.14-.25.18-.28a31.87 31.87 0 0 0 .42-.33.91.91 0 0 1-.22.19.46.46 0 0 0-.13.13 5.45 5.45 0 0 1 .24-.14c.06-.04.13-.1.2-.2a.33.33 0 0 1 .09-.08.43.43 0 0 0 .09-.07c.07-.08.15-.15.24-.2a.8.8 0 0 0 .2-.18.08.08 0 0 1 .05-.02l.07-.02.04-.02.05-.04Z" fill="#D31A20"/><path d="M5.89 4.88c.02.05 0 .1-.05.16-.06.06-.1.1-.11.13a6.26 6.26 0 0 1-.21.35c-.17.34-.26.7-.27 1.07 0 .1 0 .22.03.37l.05.37a1.46 1.46 0 0 1-.15-.55c-.04-.71.2-1.35.7-1.9Z" fill="#B35D2A"/><path d="M12.13 5.2c-.05.03-.04.12.04.27l-.13-.04a.3.3 0 0 0-.13-.01.37.37 0 0 0-.11.03.09.09 0 0 1-.06.01c-.14-.02-.28.04-.4.16-.1.1-.18.21-.25.35l-.1.23-.46-.19c.06-.12.12-.2.18-.26.04-.03.1-.05.2-.05.16-.06.23-.17.22-.32 0-.01 0-.02.02-.03l.48-.27c.26-.08.43-.04.5.13Z" fill="#FA9B47"/><path d="m11.63 5.08-.48.27-.02.03c.01.15-.06.26-.22.32a.64.64 0 0 0-.2-.03h.1c.02-.02.02-.03 0-.04a.22.22 0 0 0-.08-.01h-.04l-.17-.1-.01-.02a.21.21 0 0 1-.01-.08c0-.03 0-.06.03-.08a1.72 1.72 0 0 0 .1-.1.23.23 0 0 1 .09-.05h.15l.14.07h.07c.17-.1.36-.16.55-.18Z" fill="#D31A20"/><path d="M7.36 5.09a3 3 0 0 1 .53.72c.04.06.1.1.17.11.02 0 .03 0 .02-.02l-.02-.07c.14.08.28.12.4.13-.06.04-.1.08-.11.13-.02.06.03.11.13.16l.17.06c.16.06.27.1.34.15.54.3.81.75.81 1.34 0 .44-.2.79-.58 1.05a3.2 3.2 0 0 1-.98.44c-.52.13-1 .33-1.42.58-.02.02-.09.04-.19.08l-.3.02.02-.01c.01-.01.01-.02-.01-.02a2.6 2.6 0 0 1-.76-.12.8.8 0 0 1-.2-.1l-.01-.03s0-.02.02-.02l.4-.12v-.02l-.02-.01c-.2 0-.4-.03-.61-.08a.73.73 0 0 1-.18-.06v-.03c.19-.08.34-.16.46-.25.15-.1.27-.22.37-.35a5.35 5.35 0 0 1 1.5-1.42c0-.01 0-.02-.02-.02a2.75 2.75 0 0 1-.8-.14v-.02l.16-.1c.03-.03.03-.05 0-.07a.32.32 0 0 1-.1-.16c0-.02.01-.03.03-.02h.08c.02 0 .03 0 .04-.02v-.05c-.04-.05-.04-.08 0-.1l.25-.05.04.01.09.06h.02V6.6c-.06-.06-.1-.12-.14-.18a.5.5 0 0 1-.1-.2v-.08a.47.47 0 0 1-.02-.17c0-.02.01-.02.03 0 .2.24.49.41.84.5a.08.08 0 0 0-.04.02v.03c.17.02.3.05.4.08.06.02.07.01.02-.03-.06-.05-.16-.08-.3-.09l-.15-.1a6.14 6.14 0 0 0-.7-1.05c.08 0 .15.02.22.03.05 0 .1-.01.13-.06l.01-.04c-.04-.11-.02-.17.06-.18Z" fill="#E17F36"/><path d="M6.93 5.34a6.14 6.14 0 0 1 .7 1.06l-.19-.1a3.48 3.48 0 0 0-.51-.86.51.51 0 0 0-.4-.2.66.66 0 0 1 .2-.01 4.57 4.57 0 0 1 .21.1Z" fill="#8D4524"/><path d="M12.13 5.2c.15.26.2.57.18.95-.04.38-.1.71-.21.98-.01.02-.02.02-.03 0a.12.12 0 0 1-.04-.06c.13-.33.2-.62.2-.85v-.4c.05-.11.03-.23-.06-.35-.08-.15-.09-.24-.04-.26Z" fill="#D3B9A3"/><path d="m6.9 5.53-.16.21a1.11 1.11 0 0 0-.25.6l-.01.02h-.02a.73.73 0 0 1-.18-.16c-.01-.02-.02-.01-.02 0a.77.77 0 0 0-.02.46v.04l-.03.01a.16.16 0 0 0-.1.09.22.22 0 0 0-.04.13c0 .01 0 .02-.02.02h-.03a1.4 1.4 0 0 1-.05-.71c.04-.24.12-.46.25-.67.05-.08.11-.14.18-.19.09-.06.17-.07.26-.04.03 0 .06.03.1.05a1.36 1.36 0 0 1 .14.14Z" fill="#B35D2A"/><path d="M12.17 5.47c.1.12.11.24.06.35-.14.14-.3.16-.46.05a.21.21 0 0 1-.12-.2c0-.02 0-.03-.02-.04h-.04c-.1.04-.17.1-.2.2a.84.84 0 0 0 0 .59l-.28-.17a.06.06 0 0 1-.03-.03v-.01c-.01-.02-.02-.02-.04-.02L11 6.2l.1-.23c.07-.14.15-.26.25-.35.12-.12.26-.18.4-.16a.1.1 0 0 0 .06 0 .37.37 0 0 1 .11-.04.3.3 0 0 1 .13.01l.13.04ZM6.9 5.53c.09.1.16.2.23.34a5.25 5.25 0 0 0 .14.3c0 .02 0 .03-.03.02-.15-.08-.27-.2-.37-.33-.04-.06-.06-.05-.08.01-.04.24 0 .45.11.62v.03a.95.95 0 0 1-.4.05l-.05.01a.05.05 0 0 0-.02.04c-.01.14.03.27.12.38l-.01.03a.41.41 0 0 1-.18.07l-.04.02c-.02.05 0 .1.03.14v.03a.07.07 0 0 1-.08.01.4.4 0 0 1-.25-.35h.03c.02 0 .03 0 .02-.02 0-.05.01-.09.03-.13a.16.16 0 0 1 .1-.09l.03-.01a.04.04 0 0 0 .01-.04.77.77 0 0 1 .02-.46c0-.01 0-.02.02 0 .05.06.11.11.18.16h.02l.01-.02a1.11 1.11 0 0 1 .25-.6l.16-.21Z" fill="#6E3524"/><path d="M12.02 5.62c.02.04.07.06.1.05.03-.02.04-.06.02-.1-.03-.04-.07-.06-.1-.05-.04.02-.04.06-.02.1Z" fill="#FA8070"/><path d="M10.7 5.67c.07 0 .14.01.2.03-.09 0-.15.02-.19.05a.84.84 0 0 0-.18.26l-.28-.07a.03.03 0 0 1-.02-.02V5.9l.28-.26c.02-.02.04-.02.06 0a.4.4 0 0 0 .14.04Z" fill="#8D4524"/><path d="M11.77 5.87c-.02.26-.08.5-.18.71l-.2-.16a.84.84 0 0 1 0-.6c.03-.08.1-.15.2-.2l.04.01.02.03c0 .1.03.17.12.21Z" fill="#B35D2A"/><path d="M12.23 5.82v.4c0 .23-.07.52-.2.85a2.05 2.05 0 0 0-.44-.49c.1-.22.16-.45.18-.7.17.1.32.08.46-.06Z" fill="#E17F36"/><path d="m11.19 6.52.02.05c.04.08.06.15.06.19 0 .06-.03.12-.1.17a7.69 7.69 0 0 0-.42.39c-.13.15-.2.31-.23.5-.05.26.05.49.29.68l-.17.03c.18 0 .34.04.5.1.03.02.03.02-.01.02-.27 0-.5.08-.69.25-.14.14-.2.29-.14.46.02.06.06.1.11.14.06.03.12.03.2 0a.28.28 0 0 1 .08-.03c.03 0 .04 0 0 .02-.12.07-.13.15-.03.25a.1.1 0 0 1-.02.03v.01h-.06l-.3.04-.37.04a2.95 2.95 0 0 1-1.03-.15 1.65 1.65 0 0 0-.28-.08c-.3-.06-.5.04-.63.27a.33.33 0 0 0-.03.1l-.01.06c-.02.08 0 .16.05.23.04.04.1.1.2.16.04.02.07.05.1.1a.3.3 0 0 1 .06.11c.02.1 0 .17-.1.23a.7.7 0 0 1-.38.1c-.13 0-.27-.02-.42-.04a3.83 3.83 0 0 1-1.48-.57l.01-.02.66-.4.2-.09c.42-.25.89-.45 1.4-.58.34-.08.66-.23.99-.44.39-.26.58-.61.58-1.05 0-.59-.27-1.04-.8-1.34a2.52 2.52 0 0 0-.35-.15 5.68 5.68 0 0 1-.17-.06c-.1-.05-.15-.1-.13-.16 0-.05.05-.1.12-.13.85-.08 1.66.05 2.42.39.11.04.2.1.3.17Z" fill="#F7F7F7"/><path d="M12.66 6.1a.4.4 0 0 1 .13.04l.04.02.12.07c.03.03.04.08.04.14a.3.3 0 0 1-.06.2c-.07.07-.17.08-.31.02a.8.8 0 0 1-.05-.2c0-.04 0-.09.03-.14l.06-.14Z" fill="#D31A20"/><path d="m7.7 6.48.09.01c.14 0 .24.04.3.1.05.03.04.04-.02.02-.1-.03-.23-.06-.4-.08V6.5l.04-.02Z" fill="#FA9B47"/><path d="M11.19 6.52c.33.19.57.43.72.73.17.41.26.69.28.83l.03.39a.87.87 0 0 0 .24.52c.2.18.33.37.4.57l.01.04c0 .02-.01.02-.03 0h-.04v.02c.04.17.05.34.03.52l-.02.01-.03-.01a.98.98 0 0 0-.48-.45c.01-.48-.23-.82-.74-1-.1-.04-.2-.06-.28-.08-.05-.01-.05-.03 0-.04.28-.09.5-.03.65.16.03.03.06.04.09.02l.02-.04a.52.52 0 0 0-.4-.47.54.54 0 0 0-.23 0 .67.67 0 0 0-.37.23.06.06 0 0 1-.05.03h-.18c-.24-.2-.34-.42-.3-.69.04-.18.11-.34.24-.5a7.56 7.56 0 0 1 .43-.39c.06-.04.1-.1.09-.16 0-.04-.02-.1-.06-.19a4.4 4.4 0 0 1-.02-.05Z" fill="#E17F36"/><path d="M6.7 6.64c-.04.01-.04.04 0 .1v.04l-.04.03-.08-.01c-.02 0-.03 0-.03.02a.28.28 0 0 1-.04-.16c0-.01 0-.02.02-.02h.17Z" fill="#B35D2A"/><path d="M8.35 7.53a.1.1 0 0 1-.07-.02.08.08 0 0 1-.03-.06l-.01-.06c0-.07.02-.14.07-.2a.3.3 0 0 1 .2-.09h.02c.09 0 .16.01.23.06.06.05.1.1.1.18v.07c.01.02 0 .04-.01.06a.1.1 0 0 1-.07.03l-.43.03Z" fill="#F7F7F7"/><path d="M11.91 7.25c.25.32.37.65.38 1 0 .22.04.4.11.54.05.09.1.16.18.23.21.2.38.44.5.75 0 .03 0 .03-.03.02a.97.97 0 0 1-.11-.12l-.03-.01h-.02v.02c.04.2.04.39-.02.58 0-.03-.01-.04-.04-.05a.15.15 0 0 1-.05-.07l.03.01.02-.01c.02-.18.01-.35-.03-.52V9.6h.04c.02.02.03.02.03 0v-.04c-.08-.2-.21-.39-.4-.57a.87.87 0 0 1-.25-.52 20.6 20.6 0 0 0-.03-.39c-.02-.14-.1-.42-.28-.83Z" fill="#D3B9A3"/><path d="M5.34 7.44c.05.12.12.23.22.35v.02l-.02.01a.69.69 0 0 1-.24-.3h-.03a.1.1 0 0 0-.03.07c.02.16.05.32.12.47 0 .02.01.03.03.05l.02.03c.05.07.04.08-.04.04-.02-.02-.05-.05-.07-.1a.76.76 0 0 1-.06-.74c0-.02.01-.02.02 0l.08.1Z" fill="#B35D2A"/><path d="M11.28 7.65a.07.07 0 0 1-.04-.03.06.06 0 0 1 0-.05v-.02a.36.36 0 0 1 .15-.2.26.26 0 0 1 .22-.03h.01c.07.03.12.07.15.15.03.07.03.15 0 .23v.02l-.05.04a.08.08 0 0 1-.05 0l-.4-.1Z" fill="#F7F7F7"/><path d="m7.96 8.54-.33.15h-.07c-.02-.04-.02-.07 0-.1.12-.16.26-.27.43-.35.1-.04.2-.07.3-.07.1 0 .2.01.28.05a.5.5 0 0 1 .3.42c0 .04 0 .08-.02.12a.06.06 0 0 1-.06.03c-.02 0-.04 0-.06-.03-.18-.25-.43-.32-.77-.22Z" fill="#18070E"/><path d="M7.96 8.54c.21.01.4.04.56.1.1.03.15.07.17.12.01.05 0 .1-.02.14a.24.24 0 0 1-.12.1 1 1 0 0 1-.83 0c-.18-.08-.21-.18-.09-.31l.33-.15Z" fill="#FA9B47"/><path d="m11.12 8.8-.01.03c0 .02 0 .03.02.03.14.04.26.04.38.01.13.07.19.18.17.35 0 .04-.02.04-.04 0a.45.45 0 0 0-.31-.17c-.1-.02-.22-.02-.38 0a.74.74 0 0 0-.45.2c-.04.04-.05.03-.04-.02.02-.1.07-.2.16-.27a.63.63 0 0 1 .5-.15Z" fill="#47383C"/><path d="m10.98 10.04.05-.15a.7.7 0 0 0 .27-.05c.1-.04.16-.1.19-.16v-.04l-.05-.1h.02l.04.02c.06.03.13.03.2-.02a.36.36 0 0 0 .11-.15.44.44 0 0 0-.03-.41c-.03-.06-.02-.07.03-.02a.82.82 0 0 1 .23 1.05.78.78 0 0 1-.37.34.52.52 0 0 1-.22.05.5.5 0 0 1-.36-.17.53.53 0 0 1-.1-.19Z" fill="#F7F7F7"/><path d="M10.66 9.74c.1.1.22.14.37.15a.43.43 0 0 0-.05.15l-.01-.05c-.01-.02-.02-.02-.03 0-.13.11-.28.2-.48.29a2.2 2.2 0 0 1-.56.14 1.86 1.86 0 0 1-1.41-.47c-.02-.02-.02-.02.01-.02l.06.01c.04 0 .04 0 .02-.02a.43.43 0 0 0-.3-.1c-.05 0-.1.02-.13.04a.23.23 0 0 0-.1.12c0 .02 0 .04.03.05h.04l.1-.08a.07.07 0 0 1 .04-.02l.05.02c.05.06.1.1.17.15l.1.1.06.11.06.13c.24.34.58.57 1 .68.08.02.15.05.22.09.17.1.37.17.59.2.03 0 .03.02 0 .03a.31.31 0 0 1-.1.03.95.95 0 0 1-.13 0c-.29 0-.53-.06-.75-.2-.02-.02-.03-.01-.03.01v.03c0 .02 0 .03-.03.02l-.18-.07-.01.01v.04l.05.03.13.08c.29.12.59.18.9.16l-.14.02a.07.07 0 0 0-.05.03c-.2.23-.45.44-.76.63a4.72 4.72 0 0 1-1.48.55 2.71 2.71 0 0 1-1.07-.09 1.69 1.69 0 0 1-.49-.22.92.92 0 0 1-.32-.36c-.01-.03 0-.04.03-.03.14.06.28.1.42.11.07 0 .08 0 .01-.02a6.33 6.33 0 0 0-.29-.1.94.94 0 0 1-.18-.09.68.68 0 0 1-.33-.7l.02-.02c.01-.02.02-.02.04 0 .1.14.23.27.38.36h.02v-.01a1.42 1.42 0 0 1-.35-.46c.52.23 1 .38 1.46.44a20.54 20.54 0 0 0 .7.07c-.4-.07-.82-.15-1.23-.27-.33-.1-.63-.21-.9-.36a2.4 2.4 0 0 1-.73-.57c-.06-.08-.04-.1.05-.06l.14.03c.1 0 .1 0 .02-.05a1.86 1.86 0 0 0-.1-.05 1.4 1.4 0 0 1-.12-.07.33.33 0 0 1-.1-.1.11.11 0 0 0-.05-.04H4.9l.08-.02v-.03a1.18 1.18 0 0 1-.19-.16.32.32 0 0 1-.08-.13 2.92 2.92 0 0 1 .29.1c.44.11.88.13 1.34.06l.3-.02-.67.41v.04a3.83 3.83 0 0 0 1.89.58.7.7 0 0 0 .39-.09c.08-.06.11-.14.1-.23a.3.3 0 0 0-.07-.12.41.41 0 0 0-.1-.1.85.85 0 0 1-.2-.15.24.24 0 0 1-.05-.23l.01-.06c0-.05.02-.08.03-.1.12-.23.33-.33.63-.27.07 0 .16.04.28.08a2.12 2.12 0 0 0 .67.15h.36l.38-.04c.1 0 .2-.02.3-.05h.03l.01.01h.01l.02-.04Z" fill="#D3B9A3"/><path d="M12.3 9.7c.22.1.38.24.48.44 0 .03.02.05.05.07.03 0 .04.02.04.05-.08.22-.2.43-.39.63-.16.17-.35.33-.58.48a.5.5 0 0 0-.14.12 3.01 3.01 0 0 1-.57.6h.01a.77.77 0 0 1 .23-.08l.02.01c.02.01.02.02 0 .03l-.19.14c-.22.18-.5.32-.87.42a.39.39 0 0 0-.16.1 2.86 2.86 0 0 1-1.32.7l-.34.02h-.13c-.04 0-.05 0-.02-.02l.18-.14c.11-.03.2-.06.27-.1.07-.03.06-.04-.02-.02a2.8 2.8 0 0 1-1.56-.08l.5-.15.4-.12a.88.88 0 0 0 .14-.05l.14-.06c.35-.11.66-.26.94-.43.31-.19.56-.4.76-.63a.07.07 0 0 1 .05-.03l.15-.02c.14 0 .25-.05.35-.13a.07.07 0 0 1 .05-.02c.14 0 .27-.03.38-.08a.49.49 0 0 0 .28-.22c.04-.1.04-.2-.02-.31-.04-.07-.1-.16-.21-.28l-.03-.03c-.01-.01 0-.02.02-.01.25.06.47.03.65-.08.27-.16.42-.4.46-.73ZM4.9 10.14h.06l.05.05c.02.04.05.07.1.1l.13.07.1.05c.07.04.06.06-.03.05a.58.58 0 0 1-.14-.03c-.1-.04-.11-.02-.05.06.17.21.42.4.73.57.27.15.57.27.9.36a10 10 0 0 0 1.24.28l-.71-.08a5.24 5.24 0 0 1-1.58-.52 2.27 2.27 0 0 1-.61-.45l-.1-.14a.56.56 0 0 0-.14-.11.91.91 0 0 1-.21-.17v-.03l.26-.06Z" fill="#FEF6E8"/><path d="M11.05 10.6a.3.3 0 0 0-.25-.01l-.02.03v.12c0 .03 0 .03-.02 0a.42.42 0 0 0-.05-.08.16.16 0 0 0-.09-.05 1.06 1.06 0 0 0-.54 0 .25.25 0 0 0-.1.05.26.26 0 0 1-.08.05.09.09 0 0 0-.04.02l-.07.07a.06.06 0 0 0 0 .1c.03.03.04.05.03.07a.8.8 0 0 1-.18-.37c0-.02 0-.03.03-.03a31.28 31.28 0 0 0 .58-.08l.12-.03h.12l.03.01c.03.06.08.1.16.13.02 0 .03 0 .02-.02 0-.05-.03-.09-.1-.12-.01 0-.03-.02-.03-.05 0-.02.01-.03.04-.04l.26-.14h.04l.01.03a.8.8 0 0 0 .13.33Z" fill="#45180C"/><path d="m9.49 10.55.14.4c-.24-.08-.44-.2-.6-.34v-.02l.01-.02a.68.68 0 0 1 .42-.04c.02 0 .02.01.03.03Z" fill="#B35D2A"/><path d="M11.05 10.6c.07.06.13.14.18.22.06.08.09.15.08.2-.02.1-.09.16-.2.21-.1.04-.2.06-.32.06-.2 0-.37-.02-.52-.07a1.27 1.27 0 0 1-.45-.25c.01-.02 0-.04-.03-.08a.06.06 0 0 1 0-.1l.07-.06a.09.09 0 0 1 .04-.02c.03 0 .05-.02.09-.05a.25.25 0 0 1 .09-.05c.19-.05.37-.05.54 0 .04 0 .07.02.09.05l.05.08c.02.03.02.03.02 0v-.12c0-.01 0-.02.03-.03a.3.3 0 0 1 .24 0Z" fill="#D31A20"/><path d="M5.09 10.65c.19.2.39.34.6.45-.13.31-.1.6.13.84a.58.58 0 0 1 .12.2l.07.12c.16.24.45.42.87.55l.06.05a.3.3 0 0 1 .04.06l.01.03c.04.07.12.13.25.18l.44.17a2.63 2.63 0 0 1-2.5-1.1 1.7 1.7 0 0 1-.26-1.23c-.01-.1.04-.21.17-.32Z" fill="#6E3524"/><path d="M10.9 10.95v-.02a4.54 4.54 0 0 0-.1-.22c.01-.02.02-.03.04-.03a.24.24 0 0 1 .2.01c.07.03.12.08.15.14.04.07.04.13 0 .19-.03.05-.09.1-.16.11-.17.05-.36.05-.58.02a1.18 1.18 0 0 1-.6-.28c-.02-.01-.02-.03-.02-.05 0-.02.02-.03.04-.04l.13-.04a.71.71 0 0 1 .14-.05c.31-.06.56.02.74.25h.01Z" fill="#FA8070"/><path d="M4.92 10.97c-.06.48.03.89.26 1.22a2.63 2.63 0 0 0 2.5 1.1l.18.01.02.01v.03l-.02.02a2.88 2.88 0 0 1-2.52-.83 2 2 0 0 1-.46-.77c-.08-.27-.07-.53.04-.79Z" fill="#B35D2A"/><path d="M9.81 13.2c-.58.35-1.2.44-1.86.27l.43-.17a.73.73 0 0 1 .22-.03l-.18.14c-.03.02-.02.03.02.03a7 7 0 0 1 .13 0 2.86 2.86 0 0 0 1.66-.73c.05-.05.1-.08.16-.1.37-.1.65-.24.87-.42l.2-.14v-.03l-.03-.01.12-.05c.04-.02.06 0 .03.03-.1.17-.23.31-.39.43s-.34.22-.54.28h-.02l-.18.07a.68.68 0 0 0-.2.13l-.17.12a.8.8 0 0 1-.17.1c-.07.02-.1.05-.1.09ZM7.8 12.92l-.51.15a.83.83 0 0 1-.22-.18l.01-.01.71.04Z" fill="#D3B9A3"/><path d="M7.95 13.47c.66.17 1.28.08 1.86-.26a.34.34 0 0 1 .17-.07c.04 0 .04.01.01.03-.4.3-.84.44-1.34.46-.28 0-.48-.02-.6-.07-.17-.07-.2-.1-.1-.1Z" fill="#FEF6E8"/></svg>