<!-- by TradingView --><svg width="18" height="18" viewBox="0 0 18 18" xmlns="http://www.w3.org/2000/svg"><path fill="#F0F3FA" d="M0 0h18v18H0z"/><path d="M6.75 8.34h.03c.12-.22.29-.39.52-.5.22-.13.43-.12.63 0 .13.1.28.26.43.5l.37.58c.1.15.23.3.37.43.2.18.35.27.48.27h1.17c.1 0 .22-.03.39-.09l.13-.04a.81.81 0 0 1 .35-.03c.14.01.24.07.3.16.04.08.05.16.02.24a.38.38 0 0 1-.14.2c-.23.17-.58.22-1.05.16a3.34 3.34 0 0 0-.49 0l.14.21c.18.28.33.49.43.62.62.81 1.25 1.6 1.87 2.36.08.1.19.17.33.25.08.04.21.1.38.16h.02a.1.1 0 0 1 .07.1c0 .05-.02.08-.07.08h-.7c-.19 0-.36-.02-.51-.07a.83.83 0 0 1-.43-.25l-.21-.27-2.2-2.76a.96.96 0 0 0-.7-.37c-.93-.08-1.68.5-1.68 1.57v1.3c0 .39.02.61.42.69.03 0 .04.02.04.04v.08c0 .03 0 .04-.03.04H5.05c-.03 0-.05-.02-.05-.06v-.07c0-.02.02-.03.04-.03.43-.04.53-.26.53-.65V4.33c0-.2.1-.33.3-.33h2.57c.13 0 .22 0 .28.03.09.03.15.1.2.22.03.1.02.2-.04.28a.27.27 0 0 1-.26.13l-.03.01v.04a.4.4 0 0 0 .15.2c.14.1.36-.08.65-.53l.02-.02a.71.71 0 0 1 .63-.33c.24 0 .48.07.72.21.13.08.23.18.3.31.07.13.09.27.07.42-.03.15-.1.25-.22.3-.07.03-.2.05-.37.06l-.14.01-.18.04a.8.8 0 0 1-.24.04l-.52-.02c-.57-.01-.81.4-.72 1.22.04.36.14.64.32.85.35.43.73.7 1.13.84l.2.04a1.09 1.09 0 0 1 .47.2c.07.04.18.08.34.12.06.01.1.04.15.08l.02.05-.01.05a.8.8 0 0 1-.46.26c-.73.15-1.4-.12-1.99-.82l-.65-.78a2.24 2.24 0 0 0-.35-.36.7.7 0 0 0-.46-.17c-.18 0-.35.1-.5.27-.12.13-.22.3-.3.5-.03.06-.02.15 0 .3l.1.29ZM12.07 4.84a.78.78 0 0 0-.3-.12l-.22-.06a.31.31 0 0 1-.15-.15.24.24 0 0 1-.02-.19.2.2 0 0 1 .15-.12c.15-.04.31.02.48.16a1.54 1.54 0 0 1 .37.44c.04.06.05.12.05.16 0 .03-.02.05-.06.05-.07 0-.15-.05-.26-.14l-.04-.03ZM12.6 5.87c-.18-.18-.2-.38-.08-.59.07-.1.16-.15.27-.1.12.03.22.13.33.29.08.12.14.25.2.4.12.35.18.71.17 1.1-.01.34-.03.69-.06 1.03-.01.16-.04.3-.1.42-.06.17-.15.28-.27.33a.08.08 0 0 1-.06 0 .08.08 0 0 1-.05-.04c-.04-.1 0-.33.13-.71a1.55 1.55 0 0 0 .1-.6c-.01-.17-.05-.35-.11-.56l-.15-.43a1.55 1.55 0 0 0-.33-.54Z" fill="#5BBDB8"/><path d="M11.32 7.5c-.04 0-.06.03-.07.07l-.02.13c-.01.07-.05.1-.12.1a.9.9 0 0 1-.23-.01l-.07-.01c-.27-.04-.5-.13-.7-.27l-.09-.06c-.29-.2-.49-.35-.61-.48-.21-.22-.3-.45-.26-.66a.84.84 0 0 1 .1-.29c.06-.11.14-.15.23-.12h.02l.15.03c.14-.01.28-.02.42 0 .28.01.5-.07.67-.24a.39.39 0 0 1 .3-.12c.1 0 .21.04.31.1.05.02.1.02.15.02l.15-.04.08-.03c.04-.01.07 0 .1.02.09.05.16.12.21.2l.41.6c.11.17.13.33.05.48l-.04.08c-.07.15-.14.26-.2.32-.09.1-.2.13-.32.1h-.02c-.14-.03-.23-.03-.27-.01-.1.05-.22.08-.33.1Z" fill="#B9AE92"/><path d="M12.13 8.19c.15-.11.25-.32.29-.63.02-.19.1-.31.26-.38h.04c.1.04.15.12.14.24a2 2 0 0 1-.18.79c-.14.26-.32.45-.56.57-.2.09-.32.04-.39-.15-.03-.1-.02-.17.04-.23.03-.04.1-.08.2-.13l.16-.08Z" fill="#5BBDB8"/></svg>