<!-- by TradingView --><svg width="18" height="18" viewBox="0 0 18 18" xmlns="http://www.w3.org/2000/svg"><path fill="#F0F3FA" d="M0 0h18v18H0z"/><path d="M11.87 9c-.54 0-1.07-.03-1.58-.17-.62-.16-1.22-.71-1.29-1.2-.06-.48.52-.8.9-1.11.08-.07.29-.48.36-.49L10.6 6c.42.02.75.1 1.04.34l.74.65c.3.28.64.7.62 1.08-.03.49-.38.94-1.13.93Zm.5-.24a.64.64 0 0 0 .3-.23.73.73 0 0 0 .08-.62c-.1-.33-.33-.6-.58-.86-.08-.09-.05.1-.05.12 0 .05-.01.17-.1.2-.32.07-.49 0-.8-.06-.2-.04-.3-.12-.27-.27.02-.2.03-.42.32-.48.04 0 .18 0 .2-.02a.26.26 0 0 0-.1-.19c-.12-.1-.43-.29-.6-.16-.14.1-.31.2-.48.28-.43.24-1 .56-1.08 1-.09.45.5 1.03 1.06 1.2.65.2 1.45.35 2.1.09ZM7.96 8.24a.2.2 0 0 0 0 .07c-.1.28-.27.5-.44.74-.27.39-.69.92-1.18.95-.31.02-.92-.15-1.07-.5l-.01-.08a1.79 1.79 0 0 0-.2-.73.73.73 0 0 1-.04-.14c-.06-.29.02-.69.21-.91.28-.32.61-.6 1.05-.63.48-.04.86.03 1.27.3.07.04.18.13.2.2.02.04.01.1-.03.11a.56.56 0 0 0-.18.08c-.06.06.14.2.15.25.01.02.02.07-.01.08-.04 0-.08-.02-.1-.05-.13-.16-.3-.34-.45-.5l-.2-.19a.79.79 0 0 0-.62-.16c-.36.04-.59.28-.83.52-.04.03-.05.04-.05.08v.01c.09.07.24.05.33.12.14.09.22.24.2.4a.45.45 0 0 1-.32.38c-.06.01-.32 0-.32.06.02.23.03.43.1.66.1.3.46.47.74.48h.12a.66.66 0 0 0 .37-.14c.25-.22.5-.45.7-.72.13-.17.34-.4.4-.61.02-.1.06-.2.06-.3l-.03-.17-.04-.24.01-.02c.04-.02.11.02.14.05.05.04.08.08.1.14.02.14.01.27-.03.4Z" fill="#040505"/><path d="m9.59 4 .01.01v.03a3.5 3.5 0 0 1-1.2.24h-.07c-.33.03-.5.18-.76.34-.44.26-.64.02-1.02.52-.35.47-.74.9-1.13 1.33l-.52.56c-.05.06-.1.13-.16.18l-.02.04-.01.43c-.04.32-.22.58-.3.87-.06.32-.1.5-.1.8v1.05c0 .15.1.28.15.4.03.07.05.14.05.2 0 .38.1.67.25 1.01.08.18.16.37.18.56 0 .08.02.17.04.25.02.07.08.14.13.2l.04.06c.16.2.37.41.57.56.16.11.31.24.5.3a.63.63 0 0 0 .1.02v.02a1 1 0 0 1-.4-.02c-.32-.07-.53-.32-.7-.57-.04-.06-.11-.13-.17-.18-.02-.02-.13-.14-.14-.07.07.27.13.59.26.83v.01c-.05.02-.1.02-.14 0H5v-.02c-.05-.29-.17-.55-.24-.83l-.15-.45c-.1-.27-.24-.38-.35-.67-.15-.37-.17-.8-.22-1.02a2.13 2.13 0 0 1-.05-.52v-.22a5839.97 5839.97 0 0 1 .03-2.5c.43-.01-.05 2.95.55-.89V6.6c0-.02.01-.02.02-.02.04 0 .06.12.06.14 0 .05-.03.16 0 .2.05.04.12-.08.15-.1.18-.18.35-.39.52-.57.32-.34.58-.73.9-1.06l.1-.13c.28-.3.57-.55.98-.6.12 0 .24-.03.34-.06.24-.06.43-.22.68-.26l.08-.01.45-.07C9.1 4 9.34 4 9.59 4ZM11 11.5c-.01.21 0 .51-.09.68-.07.13-.15.29-.25.39-.13.13-.26.27-.42.35-.02 0-.17.05-.34.07a2.69 2.69 0 0 1-1.46-.43c-.24-.28-.43-.6-.44-1.06 0-.11.02-.23.04-.35 0-.04.02-.05.05-.05.08 0 .15.07.2.16l.09.3c.05.19.08.38.19.51.24.32.6.38.92.4.31.03.63-.02.9-.23.26-.2.23-.87.23-.87.03-.4-.03-.8-.01-1.2 0-.09 0-.15.06-.17.1-.01.25.1.26.25v.1c.06.38.07.76.07 1.15ZM10.2 4l.23.01.08.03.04.01c.21.1.42.23.59.38.14.12.32.26.42.41l.04.03.08.1.1.14c.07.08.14.15.2.24.17.2.37.35.52.56.3.42.28 1.03.57 1.48l.11.17c.14.21.34.73.52.88.12.1.1.4.1.61v.33c.07.42.05.89.03 1.32-.01.2-.04.43-.04.64 0 .18.16.17.2.3.03.13 0 .3 0 .43.01.34-.23.79-.39 1.08-.12.24-.29.54-.34.82 0 .06-.2.02-.23.01-.01-.01.06-.12.06-.14.05-.2.1-.4.17-.6l.05-.14c.1-.3.32-.5.4-.8a8.86 8.86 0 0 1-.04-2.19c0-.1-.03-.17-.05-.25-.1-.39-.22-.78-.35-1.18a24.64 24.64 0 0 1-.34-1.1c-.05-.18-.8-1.42-.79-1.42-.09-.3-.3-.6-.42-.76a.38.38 0 0 1-.09-.24c0-.1-.03-.2-.1-.27-.02 0-.03-.02-.05-.03-.3-.24-.85-.84-1.3-.81-.02 0-.04-.02-.03-.03l.02-.01h.02Z" fill="#040505"/></svg>