<!-- by TradingView --><svg width="18" height="18" viewBox="0 0 18 18" xmlns="http://www.w3.org/2000/svg"><path fill="url(#a)" d="M0 0h18v18H0z"/><path d="M13 11.29V5h-2v4.1c0 .42.21.83.58 1.1L13 11.3ZM5 6.7V13h2V8.9c0-.42-.21-.83-.58-1.1L5 6.7Zm4.43 2.32C9.02 8.6 9 8.1 9 7.59V5H7v.01L7 6.48a2.66 2.66 0 0 0 .35 1.23c.26.43.66.78 1.06 1.11l.17.16c.28.29.41.64.42 1.04V12.99h.01l.01.01h1.96a.02.02 0 0 0 .02-.01v-1.4a2.44 2.44 0 0 0-.21-1.02c-.21-.48-.56-.8-.94-1.14a9.86 9.86 0 0 1-.42-.4Z" fill="#fff"/><defs><linearGradient id="a" x1="3.35" y1="3.12" x2="21.9" y2="24.43" gradientUnits="userSpaceOnUse"><stop stop-color="#1A1E21"/><stop offset="1" stop-color="#06060A"/></linearGradient></defs></svg>