<!-- by TradingView --><svg width="18" height="18" viewBox="0 0 18 18" xmlns="http://www.w3.org/2000/svg"><path fill="#FFBFE4" d="M0 0h18v18H0z"/><path fill-rule="evenodd" d="M13.24 13.24a6 6 0 1 0-8.48-8.48 6 6 0 0 0 8.48 8.48Zm-.5-.5a5.3 5.3 0 1 0-7.48-7.48 5.3 5.3 0 0 0 7.48 7.48Z" fill="#E3A4FF"/><path d="M10.07 13.75c-.5.11-1.05.02-1.5-.21a2.54 2.54 0 0 1-.9-.77c-.33-.46-.63-1-.9-1.63a3.13 3.13 0 0 1-.2-.73.06.06 0 0 1 .09-.03l.36.15h.03v-.02l.11-.33c.1-.24.4-.06.56.02a.05.05 0 0 0 .07-.04l.09-.36a.06.06 0 0 1 .09-.04l.28.16a.02.02 0 0 0 .03-.02L7.8 7.75c0-.02-.02-.03-.04-.03-.56 0-1.13-.15-1.45-.63-.21-.31-.19-.58-.1-.96.04-.13.06-.26.06-.4 0-.18.02-.3.04-.38.1-.34.35-.55.72-.63.02 0 .04-.02.05-.03.24-.26.52-.37.85-.45.34-.07.64-.1.97.04h.05c.37-.08.68 0 .92.27.05.06.12.17.2.34.06.11.14.22.22.33.25.3.39.53.33.9-.09.58-.54.95-1.04 1.2-.02 0-.03.02-.02.04l.47 2.15a.02.02 0 0 0 .02.01.02.02 0 0 0 .02 0l.19-.27a.06.06 0 0 1 .1 0l.23.29a.05.05 0 0 0 .08 0c.12-.15.3-.43.5-.26a2.66 2.66 0 0 1 .25.27h.01l.01-.01.27-.3a.06.06 0 0 1 .09 0l.02.03c.06.2.1.45.1.72.04.68 0 1.3-.11 1.85-.08.4-.24.77-.48 1.08-.3.4-.77.72-1.26.83Z" fill="#010001"/><path d="M10.44 5.66c-.11.34-.31.59-.6.75-.08.05-.16.06-.24.08a9.47 9.47 0 0 1-.26-.12c-.03-.02-.03-.01-.03.02l.01.04a.05.05 0 0 1 0 .04c-.1.12-.34.31-.52.36-.1.02-.2-.03-.27-.03h-.05c-.1.05-.14.15-.27.15-.17 0-.34-.03-.51-.08-.07-.02-.1-.05-.1-.1-.01-.04-.02-.04-.05 0a.78.78 0 0 1-.16.21c-.26.14-.7-.06-.9-.23l-.2-.16c-.03-.15 0-.3.06-.45.03-.07.05-.2.05-.37 0-.19.02-.31.03-.37.13-.45.52-.6.96-.56.02 0 .02 0 .03-.02V4.8l-.17-.04a.03.03 0 0 1-.03-.02.03.03 0 0 1 .01-.04 1.83 1.83 0 0 1 1.54-.33.02.02 0 0 1 0 .03l-.12.12v.02h.03c.1-.05.19-.1.29-.13.47-.12.78.1.98.51.07.14.12.23.15.26.14.16.25.32.34.48Z" fill="#5EBFEC"/><path d="M9.52 5.1c-.2-.05-.37-.01-.5.11-.07.08-.1.06-.1-.05.05-.5.61-.5.8-.08a.04.04 0 0 1-.04.05c-.06 0-.11-.02-.16-.03Z" fill="#1C83D6"/><path d="M9.7 5.7c-.16-.25-.48-.31-.55.06l-.03.03h-.03v-.02c-.13-.3-.05-.68.37-.64.32.03.41.32.28.58a.03.03 0 0 1-.05 0Z" fill="#010001"/><path d="M7.23 5.59c-.21-.02-.37.04-.48.18-.07.08-.1.07-.1-.04-.03-.5.53-.59.78-.2a.04.04 0 0 1-.04.07l-.16-.01Z" fill="#1C83D6"/><path d="M7.48 6.14c-.22-.3-.48-.12-.51.18a.03.03 0 0 1-.04.02c-.24-.18-.27-.48 0-.64.37-.22.6.09.62.42v.02l-.02.01h-.04v-.01Z" fill="#010001"/><path d="M10.44 5.66c.07.2.08.4.03.6a.9.9 0 0 1-.87.25V6.5c.08-.02.16-.03.24-.08.29-.16.49-.41.6-.75Z" fill="#1C83D6"/><path d="M8.6 6.37c.06.04.13.04.15 0 .03-.03 0-.1-.05-.14-.06-.04-.12-.04-.15 0-.03.03 0 .1.05.14Z" fill="#010001"/><path d="M10.47 6.25c-.14.36-.4.65-.79.87a.9.9 0 0 1-.37.14l-.04.01c-.08.07-.15.13-.19.19-.04.05-.08.05-.11 0l-.15-.26a.14.14 0 0 1 .03-.17l.52-.53a.05.05 0 0 1 .05-.01l.18.02a.9.9 0 0 0 .87-.26Z" fill="#D8FBFF"/><path d="M7.4 6.98 7.4 7a.56.56 0 0 1-.2.14c-.2.09-.44.1-.7.02a.94.94 0 0 1-.21-.35.41.41 0 0 1-.02-.22l.2.16c.2.17.65.37.91.23Z" fill="#1C83D6"/><path d="M8.75 7.62a.12.12 0 0 0-.16.08l-.04.17a.02.02 0 0 1-.04 0c-.09-.13-.05-.44-.05-.6 0-.07-.03-.15-.06-.22a.1.1 0 0 1 .04-.12c.12-.1.26-.05.27.11.02.28.26.46.26.76 0 .02 0 .02-.02 0a.63.63 0 0 0-.2-.18Z" fill="#D2725A"/><path d="M6.5 7.16c.27.07.5.07.72-.02A.56.56 0 0 0 7.4 7l.14-.09h.03l.72.24a.12.12 0 0 1 .08.12l-.02.32c0 .06-.03.08-.08.05a1.16 1.16 0 0 0-.15-.06.35.35 0 0 0-.17 0c-.22.03-.5.01-.8-.06a1.32 1.32 0 0 1-.65-.36Z" fill="#D8FBFF"/><path d="M8.86 8.36a1.84 1.84 0 0 1-.78.04l-.02-.02-.13-.59c-.02-.08.01-.1.1-.1l.2.04c.07.01.12.06.15.13.02.06.08.14.16.25a.1.1 0 0 0 .06.04.03.03 0 0 0 .04-.04.68.68 0 0 1 .04-.35c0-.04.02-.05.03-.06a.69.69 0 0 1 .24.34.03.03 0 0 0 .05.02.1.1 0 0 0 .03-.06c.03-.14.05-.24.04-.3 0-.07.02-.14.09-.18l.17-.12c.06-.04.1-.03.12.05l.13.58a.05.05 0 0 1-.02.05c-.2.15-.44.22-.7.28Z" fill="#D8FBFF"/><path d="M9.07 9.32a1.68 1.68 0 0 1-.79-.02v-.02L8.1 8.5c0-.01 0-.02.02-.02.19.02.3.02.36.01a28.56 28.56 0 0 0 .78-.17c.05-.02.16-.07.32-.17l.03.01.17.77a.04.04 0 0 1-.01.04c-.21.17-.44.28-.7.34Z" fill="#D8FBFF"/><path d="M9.14 9.61c-.02 0-.05.03-.08.06-.2.2-.28.4-.4.65a.02.02 0 0 1-.04.01.64.64 0 0 1-.22-.39 8.42 8.42 0 0 0-.1-.56h.01a1.66 1.66 0 0 0 1.5-.33.02.02 0 0 1 0 .01l.13.54a.64.64 0 0 1-.04.46.02.02 0 0 1-.02 0c-.23-.17-.4-.33-.64-.43l-.1-.02Z" fill="#D8FBFF"/><path d="M10.6 9.69a.12.12 0 0 0 .13-.04l.23-.26c.04-.05.08-.06.13 0l.22.21c.03.03.03.06 0 .1l-.42.5a.06.06 0 0 1-.08 0 4.48 4.48 0 0 0-.67-.53v-.04l.14-.22c.01-.04.03-.04.06 0 .04.05.15.24.27.28Z" fill="#EAE1D5"/><path d="M7.9 11.04a.04.04 0 0 0 .04-.02c.16-.4.22-.54.38-.79a.03.03 0 0 1 .04 0l.26.25a.07.07 0 0 0 .07.02.08.08 0 0 0 .05-.04c.1-.26.23-.49.37-.68a.09.09 0 0 1 .1-.03 2.4 2.4 0 0 1 .67.47.09.09 0 0 0 .08-.02.09.09 0 0 0 .02-.03l.12-.34V9.8a.05.05 0 0 1 .07 0l.67.57h.02a.04.04 0 0 0 .03 0l.8-.95h.04v.01c.16.75.1 1.61-.04 2.37-.2 1.04-1.1 1.96-2.22 1.85-.91-.08-1.5-.62-1.98-1.37a7.03 7.03 0 0 1-.77-1.74l.02-.01h.01a58.57 58.57 0 0 1 1.09.5h.06Z" fill="#F6F1EB"/><path d="M7.84 10.31c.09-.08.1-.3.12-.37 0-.04.03-.04.06-.02l.21.14a.05.05 0 0 1 .01.07 4.48 4.48 0 0 0-.4.76.06.06 0 0 1-.04 0l-.6-.27c-.03-.02-.05-.05-.03-.09l.1-.29c.02-.06.07-.08.13-.05l.31.14a.12.12 0 0 0 .13-.02ZM11.49 12.1l-.23.5c-.17.27-.38.48-.63.62-.2.12-.45.24-.7.28-.76.12-1.5-.12-1.92-.78v-.05c0-.02.01-.02.03-.02.3.12.66.25.97.29a2.8 2.8 0 0 0 1.95-.5c.2-.1.33-.27.48-.4a.03.03 0 0 1 .03 0l.02.02v.04Z" fill="#EAE1D5"/></svg>