<!-- by TradingView --><svg width="18" height="18" fill="none" xmlns="http://www.w3.org/2000/svg"><path fill="#F0F3FA" d="M0 0h18v18H0z"/><path d="M9 3L6.69 5.31 9 7.62l2.31-2.31L9 3zM9 10.38l-2.31 2.31L9 15l2.31-2.31L9 10.38zM12.69 6.708l-2.31 2.31 2.31 2.31L15 9.018l-2.31-2.31z" fill="#002060"/><path d="M9.68 9.016l1.627-1.627 1.627 1.627-1.627 1.627L9.68 9.016z" fill="#4E87F7"/><path d="M5.313 6.711L3 9.018l2.313 2.307 2.313-2.307-2.313-2.307z" fill="#002060"/><path d="M5.061 9.016l1.627-1.627 1.626 1.627-1.626 1.627L5.06 9.016zM7.37 6.706L8.999 5.08l1.626 1.626-1.626 1.627L7.37 6.706zM7.37 11.326l1.628-1.627 1.626 1.627-1.626 1.626-1.627-1.626z" fill="#4E87F7"/></svg>