<!-- by TradingView --><svg width="18" height="18" viewBox="0 0 18 18" xmlns="http://www.w3.org/2000/svg"><path fill="url(#asveasziv)" d="M0 0h18v18H0z"/><path d="M9.76 7.61c-.29-.02-.42-.03-.7.12L5.2 9.79c-.27.15-.47.23-.62.26-.98.2-1.84-.7-1.49-1.57.18-.45.46-.58.95-.85l6.36-3.38a1.77 1.77 0 0 1 1.89.05c.35.22.58.52.69.9.04.14.03.42.03.82v6.6c0 .69-.45 1.35-1.21 1.38-.2 0-.42 0-.6-.07-.52-.2-.76-.82-.76-1.37V8.42c0-.35-.22-.6-.53-.77a.35.35 0 0 0-.14-.04Z" fill="url(#bsveasziv)"/><path d="M7.42 13.75a4.07 4.07 0 0 1-1.8-.9c-.12-.1-.24-.22-.27-.36-.05-.23.13-.34.33-.45l1.72-.93c.21-.11.49-.04.59.17.02.05.01.13.01.26v1.75c0 .15 0 .26-.05.32-.12.18-.32.19-.53.14Z" fill="url(#csveasziv)"/><path d="M9.72 7.61a.97.97 0 0 0-.65.12L5.19 9.79c-.27.15-.47.23-.62.26-.98.2-1.84-.7-1.49-1.57.13-.32.3-.48.58-.64 1.83-.58 4.77-1.17 6.06-.23Z" fill="url(#dsveasziv)"/><path d="M9.65 7.6a7.73 7.73 0 0 1 .25.05c.13.07.26.15.35.25-.16-2.29-2.2-2.11-2.97-2L4.03 7.63 4 7.66l-.33.18c1.82-.58 4.71-1.17 6-.24Z" fill="url(#esveasziv)"/><defs><linearGradient id="asveasziv" x1="3.35" y1="3.12" x2="21.9" y2="24.43" gradientUnits="userSpaceOnUse"><stop stop-color="#1A1E21"/><stop offset="1" stop-color="#06060A"/></linearGradient><linearGradient id="bsveasziv" x1="8.01" y1="4" x2="8.01" y2="14" gradientUnits="userSpaceOnUse"><stop stop-color="#4AF78B"/><stop offset="1" stop-color="#23BFEF"/></linearGradient><linearGradient id="csveasziv" x1="5.59" y1="11.92" x2="7.57" y2="13.5" gradientUnits="userSpaceOnUse"><stop stop-color="#3CD1C6"/><stop offset="1" stop-color="#34C2D8"/></linearGradient><linearGradient id="dsveasziv" x1="7.61" y1="7.12" x2="4.01" y2="10.13" gradientUnits="userSpaceOnUse"><stop stop-color="#226A82"/><stop offset="1" stop-color="#55DEB0"/></linearGradient><linearGradient id="esveasziv" x1="8.28" y1="5.84" x2="7.44" y2="8.46" gradientUnits="userSpaceOnUse"><stop stop-color="#2A687F"/><stop offset="1" stop-color="#6CF7B6"/></linearGradient></defs></svg>