<!-- by TradingView --><svg width="18" height="18" viewBox="0 0 18 18" xmlns="http://www.w3.org/2000/svg"><path fill="url(#a)" d="M0 0h18v18H0z"/><path d="M7.67 7.13a.7.7 0 0 1-.62-.26c-.52-.61-.84-1.26-.57-2.04.18-.5.46-.78.86-.82.4-.05.73.16 1.01.62.43.7.26 1.4-.12 2.12a.7.7 0 0 1-.56.38Zm3.06-3.06c.4.07.67.36.82.87.22.8-.12 1.43-.67 2.01a.71.71 0 0 1-1.18-.18c-.34-.73-.47-1.44-.01-2.12.3-.45.65-.64 1.04-.58Zm-5.7 4.86c.23.22.5.25.8.09.26-.31.42-.66.46-1.05.05-.53-.28-1.31-.92-1.36-.25-.02-.5.15-.63.35-.46.7-.2 1.4.3 1.97Zm7.83.26a.87.87 0 0 1-.28.2c-.3.1-.54.02-.7-.22a.96.96 0 0 1-.12-.3 1.99 1.99 0 0 1-.1-.71c.05-.48.33-.93.78-1.12.38-.17.75 0 .93.37.22.47.15 1.02-.16 1.42-.1.13-.22.25-.35.36Zm-.57 2.35a3.4 3.4 0 0 0-1.43-2.62 3.24 3.24 0 0 0-3.78.04 3.37 3.37 0 0 0-1.33 2.24c-.06.36-.05.66.01.88.2.63.85 1.04 1.53.88l.83-.2c.33-.1.57-.14.72-.14.61 0 1.23.17 1.82.33h.02c.36.1.69.05 1-.15.44-.29.64-.7.6-1.26Z" fill="#EDFAFF"/><defs><linearGradient id="a" x1="9" y1="0" x2="9" y2="18" gradientUnits="userSpaceOnUse"><stop stop-color="#2DAAFF"/><stop offset="1" stop-color="#1696FF"/></linearGradient></defs></svg>