<!-- by TradingView --><svg width="18" height="18" viewBox="0 0 18 18" xmlns="http://www.w3.org/2000/svg"><path fill="#F0F3FA" d="M0 0h18v18H0z"/><path fill-rule="evenodd" d="M9 14.65a5.65 5.65 0 1 0 0-11.3 5.65 5.65 0 0 0 0 11.3ZM9 15A6 6 0 1 0 9 3a6 6 0 0 0 0 12Z" fill="#0C0C0C"/><path fill-rule="evenodd" d="M9 13.67a4.67 4.67 0 1 0 0-9.34 4.67 4.67 0 0 0 0 9.34ZM9 14A5 5 0 1 0 9 4a5 5 0 0 0 0 10Z" fill="#EECC70"/><path d="M7.67 5.88c0-.49.37-.88.83-.88.46 0 .83.4.83.88V9.6h-3.5c-.46 0-.83-.43-.83-.91 0-.49.37-.88.83-.88h1.84V5.88ZM6.19 9.22c.16-.19.4-.3.67-.3h1.8V7c0-.27.14-.5.34-.66v-.46c0-.3-.22-.53-.5-.53s-.5.24-.5.53v2.28H5.83c-.27 0-.5.24-.5.53 0 .3.23.53.5.53h.36ZM9.67 6.2c.38.07.67.4.67.8v.81h.83c.46 0 .83.4.83.88 0 .08 0 .15-.03.23h.17c.42 0 .78.29.86.68H9.67V6.2Zm.67 1.96v.76h1.28a.55.55 0 0 0 .05-.23c0-.3-.23-.53-.5-.53h-.83Z" fill="#0C0C0C"/><path fill-rule="evenodd" d="M9.33 9.98 6 10c.08.39.44.62.86.62h.8v.53c0 .48.38.88.84.88a.8.8 0 0 0 .16-.02v.2c0 .39.29.71.67.79V9.98Zm-.67 1.67v-1.03H8v.53c0 .29.22.53.5.53.06 0 .11-.01.16-.03Z" fill="#0C0C0C"/><path d="M13 10H9.67v3c.38-.08.67-.4.67-.8v-1.58h1.8c.42 0 .78-.23.86-.62Z" fill="#0C0C0C"/></svg>