<!-- by TradingView --><svg width="18" height="18" viewBox="0 0 18 18" xmlns="http://www.w3.org/2000/svg"><path fill="url(#ays1g4axs)" d="M0 0h18v18H0z"/><path d="M8.56 6.87c.04.18.18.56.44.56s.4-.38.44-.56V6c.12.1.22.4.22.53.17-.12.61-.2.8-.14-.3.14-.4.48-.4 1.03s-.35.8-.57.99c.1.15.19.46.22.6a4.2 4.2 0 0 0 1.78-1.33c1-1.15 1.48-1.4 2.44-1.4 1.4 0 1.9.56 2.07.78-.81 0-1.9.36-1.9 1.16 0 .71.22 1.14.38 1.51l.06.15c-.2-.15-.62-.34-1.07-.34-.94 0-1.39 1.04-1.65 1.68-.04.08-.06.15-.1.2a2.13 2.13 0 0 0-1.9-1.03c-.14.76-.6 1.39-.82 1.61a3.44 3.44 0 0 1-.81-1.6c-.34 0-1.3.02-1.92 1.03l-.09-.2c-.26-.66-.71-1.7-1.65-1.7-.45 0-.87.2-1.07.35l.06-.15c.16-.37.38-.83.38-1.54 0-.8-1.09-1.13-1.9-1.13.17-.22.66-.77 2.07-.77.96 0 1.44.24 2.44 1.39A4.2 4.2 0 0 0 8.29 9c.03-.14.12-.45.22-.6-.22-.19-.58-.44-.58-1 0-.54-.08-.88-.39-1.02.19-.07.63.02.8.14 0-.14.1-.43.22-.53v.87Z"/><path d="M8.65 8.29c-.2.37-.39.9-.39 1.5 0 1.14.74 2.07.74 2.07s.74-.93.74-2.07c0-.6-.2-1.13-.39-1.5-.2.16-.35.25-.35.25s-.15-.09-.35-.25Z" fill="#212727"/><path d="M8.5 6.19c-.1.22-.17.48-.17.75 0 .85.67 1.53.67 1.53s.67-.68.67-1.53c0-.27-.07-.53-.16-.75v.63c0 .38-.23.69-.51.69s-.5-.3-.5-.69V6.2Z" fill="#212727"/><defs><linearGradient id="ays1g4axs" x1="9" y1="0" x2="9" y2="18" gradientUnits="userSpaceOnUse"><stop offset=".04" stop-color="#72241E"/><stop offset=".38" stop-color="#F44236"/><stop offset=".55" stop-color="#E93F34"/><stop offset=".91" stop-color="#64211C"/></linearGradient></defs></svg>