<!-- by TradingView --><svg width="18" height="18" viewBox="0 0 18 18" xmlns="http://www.w3.org/2000/svg"><path fill="url(#a)" d="M0 0h18v18H0z"/><path d="M9.4 5.02a1.08 1.08 0 0 0-.4-.07c-.16 0-.29.02-.4.07l-.14.05h-.03c-.23-.37-.56-.61-.98-.73a.03.03 0 0 1-.03-.02c-.2-.55-1.02-.34-.91.21.06.31.43.47.71.3l.08-.05h.04c.32.1.57.29.73.57v.03c-.47.6-.28 1.39.38 1.73.17.08.35.13.55.13.2 0 .38-.05.55-.13.66-.34.85-1.14.39-1.73v-.03c.15-.28.4-.48.72-.58h.04l.08.05c.28.18.65.02.71-.29.11-.55-.7-.76-.91-.21l-.03.02c-.42.12-.75.36-.98.72 0 .01-.02.02-.03.01a2.43 2.43 0 0 1-.14-.05Zm.33 1.07c0 .39-.33.7-.73.7a.71.71 0 0 1-.73-.7c0-.38.33-.7.73-.7.4 0 .73.32.73.7Z" fill="#FEDE7E"/><path d="m13.93 8.14-.42-.13c.16-.6-.13-1.2-.69-1.42-.64-.25-1.17.1-1.64.5L11 6.67c.36-.3.77-.56 1.24-.6a1.63 1.63 0 0 1 1.7 2.08Z" fill="#FDD16F"/><path d="m11 6.66.18.44a6.65 6.65 0 0 0-.6.59c.25.26.51.5.8.72.45.35.94.58 1.5.32.3-.13.51-.38.63-.72l.42.13a1.6 1.6 0 0 1-.82.98c-.7.35-1.38.14-1.96-.32a7.5 7.5 0 0 1-1.21-1.14c.18-.16.35-.34.52-.52.11-.12.3-.28.54-.48ZM7.5 8.47l-.41-.26.58-.52a.02.02 0 0 0 0-.01.02.02 0 0 0 0-.02 6.24 6.24 0 0 0-1.1-.9C6.07 6.46 5.5 6.4 5 6.72c-.37.25-.56.65-.52 1.09l-.45.16A1.2 1.2 0 0 1 4 7.56c.14-1.34 1.65-1.9 2.8-1.19.35.22.68.48 1 .78a46.64 46.64 0 0 0 .56.54l-.87.78Z" fill="#FEEB8D"/><path d="m7.09 8.21.41.26c-.55.48-1.21.91-2 .8a1.66 1.66 0 0 1-1.46-1.3l.45-.16c.1.74.88 1.21 1.65.97a3 3 0 0 0 .95-.57Z" fill="#FDD16F"/><path d="M8.73 8.04c.02.15.06.3.13.43-.54.07-.97.52-1.2.97v.01h1.46c-.11.17-.25.3-.41.43H7.48c-.02 0-.02.03-.03.05l-.03.14-.47-.04c.18-.86.81-1.81 1.78-2Z" fill="#FEEB8D"/><path fill-rule="evenodd" d="m7.42 10.07-.47-.04c-.07.34-.07.66 0 .96a2.2 2.2 0 0 0 1.87 1.76c1.3.11 2.33-1.06 2.28-2.26a2.82 2.82 0 0 0-.8-1.88c-.4-.43-.96-.67-1.57-.57.02.15.06.3.13.43.32-.03.6.05.87.24.26.2.46.43.61.72v.02H9.11c-.11.17-.25.3-.41.43l1.82.02c.01 0 .02 0 .02.02a2.32 2.32 0 0 1 .05.97H7.4a.01.01 0 0 1-.01-.01 2.3 2.3 0 0 1 .03-.81Zm3.02 1.28a1361.42 1361.42 0 0 0-2.9.02c.27.56.83 1.01 1.46 1.01s1.19-.45 1.45-1v-.01a.01.01 0 0 0 0-.01Z" fill="#FEDE7E"/><path d="M9.02 13.25h-.03c-.12 0-.22.09-.22.2v.34c0 .12.1.21.22.21h.03c.11 0 .21-.1.21-.2v-.35c0-.11-.1-.2-.21-.2Z" fill="#FEEB8D"/><defs><linearGradient id="a" x1="3.35" y1="3.12" x2="21.9" y2="24.43" gradientUnits="userSpaceOnUse"><stop stop-color="#1A1E21"/><stop offset="1" stop-color="#06060A"/></linearGradient></defs></svg>