<!-- by TradingView --><svg width="18" height="18" viewBox="0 0 18 18" xmlns="http://www.w3.org/2000/svg"><path fill="#FF8400" d="M0 0h18v18H0z"/><path d="M4.61 7.3c0 .15.02.3.08.45v.08c0 .04-.03.04-.05 0-.15-.21-.2-.4-.14-.56.02-.05 0-.1-.04-.13l-.04-.02c-.05-.03-.08-.02-.1.04-.03.15-.03.32 0 .5 0 .03-.01.04-.05.04h-.02c-.04-.02-.07-.04-.07-.08a.65.65 0 0 1 .04-.48.12.12 0 0 0 0-.1c-.01-.07-.07-.1-.15-.08-.05.01-.07 0-.07-.05v-.03c0-.04.02-.05.06-.06l.17-.02c.02 0 .02 0 .02-.02a.69.69 0 0 1 .1-.55.1.1 0 0 1 .07-.05c.04 0 .05.01.04.04-.07.15-.09.32-.07.52h.02l.15-.07a.05.05 0 0 0 .03-.05c0-.18.06-.34.2-.45a.07.07 0 0 1 .08-.01h.03c.04.02.04.04.01.06a.63.63 0 0 0-.23.32c-.03.12 0 .15.12.09.05-.03.1-.04.17-.03.04 0 .07 0 .1-.02a.53.53 0 0 1 .26-.05.6.6 0 0 0 .2-.04.58.58 0 0 1 .17-.03h.76c.03 0 .05-.02.05-.05v-.23c-.02-.32 0-.54.06-.67.14-.33.4-.5.78-.51.03 0 .06 0 .08.02l.15.04c.06 0 .11.02.14.04.09.04.16.1.2.15l.04.08v.06c.02.29 0 .46-.08.53v.03l.02.02a.1.1 0 0 0 .1-.03c.09-.1.19-.16.29-.19.06-.02.17-.03.32-.03h.14c.23 0 .48.13.74.41.05.06.07.12.07.19a.3.3 0 0 1-.17.25 5.7 5.7 0 0 1-.45.19c-.09.02-.15.04-.2.07-.04.02-.04.04 0 .05a4.77 4.77 0 0 1 1.9 1.18c.3.27.5.48.6.63.53.7.92 1.55.76 2.42-.1.49-.34.89-.73 1.2a.06.06 0 0 0-.03.07c.01.03.03.04.06.05.44.08.87.03 1.28-.16.48-.22.77-.5.89-.85a2 2 0 0 0 .1-.88 20.4 20.4 0 0 0-.45-2.45l-.01-.13a1.46 1.46 0 0 1-.02-.53l.02-.16a.66.66 0 0 1 .1-.34c.1-.21.2-.36.29-.44.34-.33.74-.5 1.21-.55.03 0 .06-.01.08-.03.05-.05.11-.07.18-.04.04.02.04.03 0 .04-.4.1-.72.21-.95.35-.3.2-.48.44-.56.76-.06.3-.05.63.03.99l.38 1.42c.11.38.17.81.19 1.29 0 .45-.08.84-.26 1.16-.48.86-1.48 1.05-2.38 1.11-.7.05-1.35-.16-2.02-.16H5.97c-.03 0-.04-.02-.03-.05a.87.87 0 0 1 .53-.57c.27-.1.57-.15.9-.11.04 0 .07.01.1.03a.2.2 0 0 0 .08.02c.2.03.4.07.58.15.04 0 .06 0 .06-.04v-.02c0-.01 0-.02-.02-.03a.3.3 0 0 1-.08-.13 4.66 4.66 0 0 0-.13-.48.35.35 0 0 0-.05-.15.15.15 0 0 1-.03-.08 3.56 3.56 0 0 1 0-.85.7.7 0 0 1 .38-.5c.2-.12.44-.16.72-.12.02 0 .04 0 .05-.02l-.01-.03a1.1 1.1 0 0 0-.61-.1.74.74 0 0 0-.46.25c-.18.2-.28.42-.28.68-.02.53.04.98.18 1.34.04.1.02.1-.05.03l-.46-.43c-.3-.27-.55-.66-.78-1.18a.64.64 0 0 1-.04-.16.46.46 0 0 0-.06-.19.12.12 0 0 1-.03-.08.6.6 0 0 0-.13-.43.32.32 0 0 0-.26-.12c-.37-.02-.7.09-1 .32-.11.08-.15.06-.11-.07.07-.29.29-.48.64-.58.05-.02.12-.03.21-.04A.96.96 0 0 0 6.11 9c.02-.01.03-.03.02-.06A4.68 4.68 0 0 0 5.1 7.6a1.69 1.69 0 0 1-.19-.15.82.82 0 0 0-.25-.17c-.03-.01-.05 0-.05.03Z" fill="#fff"/><path d="M6.22 6.8c.03-.05.07-.06.1-.02l.05.03c.14.05.18.14.13.28-.04.08-.13.11-.3.1h-.03a.09.09 0 0 1-.06-.04.32.32 0 0 1-.05-.26c0-.03.03-.05.06-.05h.03a.1.1 0 0 0 .07-.05Z" fill="#FF8400"/></svg>