<!-- by TradingView --><svg width="18" height="18" viewBox="0 0 18 18" xmlns="http://www.w3.org/2000/svg"><path fill="#F0F3FA" d="M0 0h18v18H0z"/><path d="M11 4c.55 0 1 .5 1 1.14v7.72c0 .63-.45 1.14-1 1.14s-1-.5-1-1.14V5.14C10 4.5 10.45 4 11 4Z" fill="url(#abz2kkvzm)"/><path d="M8 7.33a1 1 0 0 1 1 1V11a1 1 0 1 1-2 0V8.33a1 1 0 0 1 1-1Z" fill="url(#bbz2kkvzm)"/><path d="M6 7.14C6 6.51 5.55 6 5 6s-1 .51-1 1.14v.38c0 .63.45 1.15 1 1.15s1-.52 1-1.15v-.38Z" fill="url(#cbz2kkvzm)"/><path d="M8 4.33c.55 0 1 .51 1 1.15v.38C9 6.49 8.55 7 8 7s-1-.51-1-1.14v-.38c0-.64.45-1.15 1-1.15Z" fill="url(#dbz2kkvzm)"/><defs><linearGradient id="abz2kkvzm" x1="12.63" y1="11" x2="4.4" y2="6.09" gradientUnits="userSpaceOnUse"><stop stop-color="#2042B8"/><stop offset=".93" stop-color="#F60"/></linearGradient><linearGradient id="bbz2kkvzm" x1="12.77" y1="11.02" x2="4.36" y2="5.33" gradientUnits="userSpaceOnUse"><stop stop-color="#2042B8"/><stop offset=".93" stop-color="#F60"/></linearGradient><linearGradient id="cbz2kkvzm" x1="12.41" y1="11.72" x2="3.33" y2="6.35" gradientUnits="userSpaceOnUse"><stop stop-color="#2042B8"/><stop offset=".93" stop-color="#F60"/></linearGradient><linearGradient id="dbz2kkvzm" x1="12.77" y1="11.56" x2="3.69" y2="6.19" gradientUnits="userSpaceOnUse"><stop stop-color="#2042B8"/><stop offset=".93" stop-color="#F60"/></linearGradient></defs></svg>