<!-- by TradingView --><svg width="18" height="18" viewBox="0 0 18 18" xmlns="http://www.w3.org/2000/svg"><path fill="url(#ap2ja1zf2)" d="M0 0h18v18H0z"/><path d="M6.75 12.79c.84-.41 1.61-.41 2.02-.41.41 0 1.18 0 2.02.4.8.4 2.76.47 2.76-1.68 0-.92-.43-2.11-1.02-3.26C11.95 6.7 10.4 4 8.77 4S5.6 6.7 5.01 7.84A7.93 7.93 0 0 0 4 11.1c0 2.15 1.95 2.07 2.75 1.69Z" fill="url(#bp2ja1zf2)"/><ellipse cx="11.03" cy="7.7" rx="2.97" ry="3.05" fill="url(#cp2ja1zf2)"/><path d="M10.33 4.73A3.04 3.04 0 0 0 8.06 7.7a3.01 3.01 0 0 0 2.97 3.05c.9 0 1.72-.42 2.27-1.08a11.5 11.5 0 0 0-.77-1.83 11.5 11.5 0 0 0-2.2-3.11Z" fill="url(#dp2ja1zf2)"/><defs><linearGradient id="ap2ja1zf2" x1="3.35" y1="3.12" x2="21.9" y2="24.43" gradientUnits="userSpaceOnUse"><stop stop-color="#1A1E21"/><stop offset="1" stop-color="#06060A"/></linearGradient><linearGradient id="bp2ja1zf2" x1="8.77" y1="4" x2="8.77" y2="13" gradientUnits="userSpaceOnUse"><stop stop-color="#7F70FD"/><stop offset=".53" stop-color="#6551F1"/><stop offset="1" stop-color="#846DF8"/></linearGradient><linearGradient id="cp2ja1zf2" x1="11.19" y1="4.64" x2="12.51" y2="9.93" gradientUnits="userSpaceOnUse"><stop stop-color="#F4C9EA"/><stop offset="1" stop-color="#E995AE"/></linearGradient><linearGradient id="dp2ja1zf2" x1="10.68" y1="4.73" x2="11.71" y2="10.26" gradientUnits="userSpaceOnUse"><stop stop-color="#F9DBFF"/><stop offset=".57" stop-color="#ED9FF9"/><stop offset="1" stop-color="#F3BBFB"/></linearGradient></defs></svg>