<!-- by TradingView --><svg width="18" height="18" viewBox="0 0 18 18" xmlns="http://www.w3.org/2000/svg"><path fill="#F0F3FA" d="M0 0h18v18H0z"/><path d="m7.71 5.52 1.82-1.38 3.19 4.48c.27 1.8.21 3.4 0 4.15-.5.34-.98.61-1.16.7-1.6.58-3.23.45-3.84.31l-2.16-2.46-.45-1.1 2.6-4.7Z" fill="#fff"/><path d="m7.76 5.48 1.77-1.34.17.23.24 1.47-.72.66.25 3.52-1.11.34L6.49 8.9l-1.38 1.3 2.6-4.69.05-.04Z" fill="url(#aszp4kvbt)"/><path d="m9.33 6.74.45 3.7 2.4-1.65-2.09-2.76-.76.71Zm.45 3.7 1.53 1.99 1.06-1.29-.18-2.35-2.4 1.65Z" fill="url(#bszp4kvbt)"/><path d="m12.7 8.6.02.02c.27 1.8.21 3.4 0 4.15l-.15.1-.37-4.1.5-.16Z" fill="url(#cszp4kvbt)"/><path d="m12.57 12.87-.14.1-1.18-.3 1.12-1.29.2 1.49Z" fill="url(#dszp4kvbt)"/><path d="m11.25 12.66 1.2.3-.89.52c-1.6.57-3.23.44-3.84.3l-.07-.07.64-.65.13-2.52 1.07-.33 1.76 2.45Z" fill="url(#eszp4kvbt)"/><path d="m5.35 10.2 1.2-1.13 1.66 1.44-.12 2.42-2.74-2.74Z" fill="url(#fszp4kvbt)"/><path d="m5.56 11.32 1.96 2.24.57-.63-2.74-2.74-.2.14.4 1Z" fill="url(#gszp4kvbt)"/><path d="m9.55 4 3.26 4.59v.02c.28 1.8.22 3.42 0 4.19l-.01.03-.03.02c-.5.34-.98.62-1.16.72h-.02a7.76 7.76 0 0 1-3.9.3h-.02l-2.2-2.5L5 10.21l2.63-4.75L9.55 4ZM7.8 5.59l-2.57 4.63.42 1.05 2.13 2.42c.62.13 2.2.25 3.75-.3.18-.1.63-.36 1.11-.68.2-.74.26-2.3 0-4.05L9.5 4.28l-1.72 1.3Z" fill="#2F0B0A"/><defs><linearGradient id="aszp4kvbt" x1="9.31" y1="5.68" x2="6.94" y2="9.12" gradientUnits="userSpaceOnUse"><stop offset=".23" stop-color="#ACAFFC"/><stop offset=".32" stop-color="#6650F2"/><stop offset="1" stop-color="#AE4EEF"/></linearGradient><linearGradient id="bszp4kvbt" x1="9.75" y1="6.41" x2="12.55" y2="11.13" gradientUnits="userSpaceOnUse"><stop stop-color="#7A7DF7"/><stop offset=".56" stop-color="#84A0FB"/><stop offset=".62" stop-color="#5C59F4"/><stop offset="1" stop-color="#84A2FB"/></linearGradient><linearGradient id="cszp4kvbt" x1="12.55" y1="8.61" x2="12.55" y2="12.87" gradientUnits="userSpaceOnUse"><stop stop-color="#1E0DE9"/><stop offset=".48" stop-color="#6944F7"/><stop offset="1" stop-color="#A279FD"/></linearGradient><linearGradient id="dszp4kvbt" x1="11.65" y1="11.85" x2="12.64" y2="13.16" gradientUnits="userSpaceOnUse"><stop stop-color="#7E00A6"/><stop offset="1" stop-color="#AA03C6"/></linearGradient><linearGradient id="eszp4kvbt" x1="9.49" y1="10.2" x2="8.98" y2="12.9" gradientUnits="userSpaceOnUse"><stop stop-color="#5000BC"/><stop offset=".96" stop-color="#A300AA"/></linearGradient><linearGradient id="fszp4kvbt" x1="7.49" y1="10.03" x2="6.65" y2="12.52" gradientUnits="userSpaceOnUse"><stop stop-color="#C600D1"/><stop offset="1" stop-color="#B9008B"/></linearGradient><linearGradient id="gszp4kvbt" x1="7.49" y1="10.03" x2="6.65" y2="12.52" gradientUnits="userSpaceOnUse"><stop stop-color="#C600D1"/><stop offset="1" stop-color="#B9008B"/></linearGradient></defs></svg>