<!-- by TradingView --><svg width="18" height="18" viewBox="0 0 18 18" xmlns="http://www.w3.org/2000/svg"><path fill="#37D5C7" d="M0 0h18v18H0z"/><path d="M8.83 4.16a113.2 113.2 0 0 0-2.39 1.3.58.58 0 0 0-.29.34.55.55 0 0 0 0 .32c.02.1.07.18.15.25a.67.67 0 0 0 .56.2c.08-.01.2-.06.38-.15a115.93 115.93 0 0 0 2.4-1.3c.14-.08.23-.2.28-.35a.55.55 0 0 0 0-.31.58.58 0 0 0-.14-.26.66.66 0 0 0-.57-.2c-.08.02-.2.07-.38.16Zm1.84 2.5a6.02 6.02 0 0 0 .91-.52c.11-.1.17-.23.18-.38a.58.58 0 0 0-.3-.54.67.67 0 0 0-.6-.05 5.96 5.96 0 0 0-.91.52.54.54 0 0 0-.18.38c0 .12.02.22.07.32a.6.6 0 0 0 .22.22.67.67 0 0 0 .6.05ZM11.9 8.1c-.8.42-1.36.72-1.69.91a.7.7 0 0 1-.71.01.58.58 0 0 1-.26-.29.52.52 0 0 1-.01-.41.59.59 0 0 1 .26-.31c.2-.12.8-.45 1.8-.98l1.7-.91a.7.7 0 0 1 .7-.02c.11.06.2.16.26.3.06.14.07.27.01.4a.59.59 0 0 1-.26.32c-.2.12-.8.45-1.8.98Zm-6.97-.44a6.06 6.06 0 0 0 .9-.52c.12-.1.18-.23.19-.39a.58.58 0 0 0-.08-.31.6.6 0 0 0-.21-.22.67.67 0 0 0-.62-.05 6.06 6.06 0 0 0-.9.52.58.58 0 0 0-.1.7.6.6 0 0 0 .2.22.67.67 0 0 0 .62.05Zm2.2.91h-.01L5.23 9.6l-.42.2a.68.68 0 0 1-.49-.08.55.55 0 0 1-.3-.39.56.56 0 0 1 .1-.47c.05-.06.16-.14.32-.23l2.1-1.14h.01l1.89-1.02c.21-.12.36-.18.42-.2a.68.68 0 0 1 .49.08c.15.08.25.2.29.39.04.17 0 .33-.1.47-.05.06-.15.14-.31.23l-2.1 1.13Zm3.47.93-2.11 1.14c-.16.09-.27.16-.31.22-.1.15-.14.3-.1.48.04.18.13.3.3.4.16.08.32.1.48.06a3843.5 3843.5 0 0 0 2.3-1.22h.02l2.1-1.13c.16-.1.26-.17.3-.23.11-.14.15-.3.1-.47a.55.55 0 0 0-.29-.4.68.68 0 0 0-.48-.07c-.07.02-.2.08-.43.2L10.6 9.5Zm-4.35.25 1.82-.99a.7.7 0 0 1 .7-.02c.11.06.2.16.26.3.05.1.07.22.04.33a.59.59 0 0 1-.16.3c-.04.05-.12.1-.23.16A282.03 282.03 0 0 1 5 11.81a.7.7 0 0 1-.69.02.6.6 0 0 1-.27-.29.54.54 0 0 1-.04-.34.6.6 0 0 1 .17-.3c.03-.04.11-.1.23-.16l1.84-1Zm6.5 2.08a6.06 6.06 0 0 0 .9-.52c.12-.1.18-.23.18-.38a.58.58 0 0 0-.07-.32.6.6 0 0 0-.21-.22.67.67 0 0 0-.62-.05 5.91 5.91 0 0 0-.91.52.58.58 0 0 0-.1.7.6.6 0 0 0 .21.22.67.67 0 0 0 .61.05Zm-6.1-.2c.21-.12.34-.19.4-.21a.67.67 0 0 1 .61.05.58.58 0 0 1 .29.54c0 .14-.07.27-.18.38-.07.06-.2.14-.38.24a7.25 7.25 0 0 0-.53.27c-.1.05-.2.06-.32.05-.1 0-.2-.04-.3-.1a.6.6 0 0 1-.2-.21.58.58 0 0 1-.08-.32c0-.15.06-.28.18-.38.06-.07.2-.15.38-.24l.14-.08Zm2.37 2.21a108.82 108.82 0 0 0 2.4-1.3c.14-.07.23-.19.28-.34a.54.54 0 0 0 .01-.32.58.58 0 0 0-.15-.25.67.67 0 0 0-.56-.2c-.08.01-.2.06-.38.15a121.54 121.54 0 0 0-2.4 1.3.58.58 0 0 0-.28.34.55.55 0 0 0 .14.58.67.67 0 0 0 .56.2c.08-.02.2-.07.38-.16Z" fill="#fff"/></svg>