<!-- by TradingView --><svg width="18" height="18" viewBox="0 0 18 18" xmlns="http://www.w3.org/2000/svg"><path fill="#F0F3FA" d="M0 0h18v18H0z"/><path d="M9 15A6 6 0 1 0 4.53 5H6a5 5 0 1 1-1.58 2h4.35C9.48 7 10 7.51 10 8.27 10 9.02 9.48 10 8.77 10H7.32l2.24 3h1.2l-1.6-2.18c1.07 0 1.84-1.3 1.84-2.43v-.17A2.28 2.28 0 0 0 8.77 6H3.7l.02.13A6 6 0 0 0 9 15Z" fill="url(#apixj05ww)"/><defs><linearGradient id="apixj05ww" x1="12.47" y1="4.48" x2="5.85" y2="12.85" gradientUnits="userSpaceOnUse"><stop stop-color="#01BCF0"/><stop offset="1" stop-color="#01BEF1"/></linearGradient></defs></svg>