<!-- by TradingView --><svg width="18" height="18" viewBox="0 0 18 18" xmlns="http://www.w3.org/2000/svg"><path fill="#242422" d="M0 0h18v18H0z"/><path d="m10.04 13.43.04-.08.03-.02a.08.08 0 0 1 .09 0c.12.08.25.16.4.22.16.07.55.08.68.05.23-.05.42-.15.58-.31.33-.33.34-.69.3-1.13-.06-.59.25-1.05.56-1.5l.3-.44a4.17 4.17 0 0 0-.6-4.78 4.68 4.68 0 0 0-4.03-1.41 4 4 0 0 0-2.17.86L6.08 5c-.14.11-.24.19-.34.32l-.16.17-.2.23c-.3.43-.53.82-.66 1.17-.3.85-.28 1.8-.02 2.66.17.52.42.9.75 1.38l.15.22c.15.21.23.45.26.7.02.16 0 .33-.01.48l-.01.16c-.03.4.2.77.55.98.14.08.3.13.48.14.35.04.66-.06.93-.27a.1.1 0 0 1 .07-.02.1.1 0 0 1 .06.04c.08.12.21.26.39.4.08.08.28.19.36.2a1.23 1.23 0 0 0 1.36-.53ZM6.99 9.99A1.5 1.5 0 1 1 7 7a1.5 1.5 0 0 1-.01 3Zm4 0A1.5 1.5 0 1 1 11 7a1.5 1.5 0 0 1 0 3ZM8 11.47l.97-1.45H9a.03.03 0 0 1 .03 0l.98 1.45v.03h-.01l-.02.01H8.02L8 11.49v-.02Z" fill="#fff"/></svg>