<!-- by TradingView --><svg width="18" height="18" viewBox="0 0 18 18" xmlns="http://www.w3.org/2000/svg"><path fill="#F0F3FA" d="M0 0h18v18H0z"/><path d="m15 9-.86-1.56h-2.46l1.2-1.96L12 4h-1.77L9 6.05 7.77 4H6l-.89 1.48 1.2 1.96H3.9L3 9l.84 1.56h2.45l-1.18 1.96L6 14h1.77L9 11.95 10.23 14H12l.89-1.48-1.28-1.96h2.45L15 9Zm-2.56-3.52-1.2 1.96h-1.1l1.75-2.88.55.92ZM10.45 4.3h1.1L9.8 7.26l-.58-.84 1.23-2.1Zm-.87 3.33L9 8.63 7.11 5.48l.55-.92 1.92 3.08ZM5.56 5.48l.66-1.17h1.1l-.66 1.17 2 3.33h-1.1l-2-3.33Zm-1.4 2.27H6.5l.63 1.06H3.5l.66-1.06Zm-.1 2.5L3.5 9.19h3.62l-.63 1.06H4.06Zm3.5-1.06h1.1l-1.92 3.25h-1.1l1.92-3.25Zm-.01 4.5H6.22l-.52-.94h1.27L9 9.38l.53 1-1.98 3.3Zm2.9 0-1.23-2.1.53-.83 1.8 2.93h-1.1Zm1.99-1.17-.55.92-1.8-2.88h1.07l1.28 1.96ZM9.9 10.25l-.57-1.06h3.78l.52 1.06H9.91Zm3.43-1.44h-4l.61-1.06h3.91l.7 1.25-.6 1.01-.62-1.2Z" fill="#FF3B80"/></svg>