<!-- by TradingView --><svg width="18" height="18" viewBox="0 0 18 18" xmlns="http://www.w3.org/2000/svg"><path fill="#F0F3FA" d="M0 0h18v18H0z"/><path fill-rule="evenodd" d="M9 13.94a4.94 4.94 0 1 0 0-9.88 4.94 4.94 0 0 0 0 9.88Zm-.18-4.6V7.91L6.71 5.98c-.12-.12-.43-.28-.71 0-.28.28-.12.59 0 .7l2.82 2.65Zm.36.54V8.47L12 11.12c.12.12.28.42 0 .7-.28.29-.59.12-.7 0L9.17 9.88ZM7.3 5.21a.35.35 0 0 0-.48.52L8.76 7.5c.14.12.34.12.48 0l1.94-1.77a.35.35 0 0 0-.48-.52L9 6.76 7.3 5.2Zm5.39 1.71a.35.35 0 0 0-.5.2l-.44 1.35h-1.16a.35.35 0 0 0-.27.59l1.24 1.4a.35.35 0 1 0 .53-.46l-.72-.82H12c.15 0 .29-.1.33-.24l.37-1.11c.11.13.18.29.18.46v1.06a.35.35 0 1 0 .7 0V8.3c0-.38-.15-.7-.34-.92a1.8 1.8 0 0 0-.55-.45Zm-7.47.07a.35.35 0 0 1 .5 0l1.76 1.76c.14.13.14.35.02.49l-1.77 1.94a.35.35 0 0 1-.55-.04c-.13-.2-.32-.53-.48-.9-.15-.37-.29-.82-.29-1.24 0-.4.15-1.36.81-2.01Zm-.07 1.66h1.23l-.88-.89c-.2.3-.3.62-.35.89Zm1.29.7H5.16a3.48 3.48 0 0 0 .37 1l.9-1Z" fill="#203A49"/><path fill-rule="evenodd" d="M9 14.65a5.65 5.65 0 1 0 0-11.3 5.65 5.65 0 0 0 0 11.3ZM9 15A6 6 0 1 0 9 3a6 6 0 0 0 0 12Z" fill="#459B6E"/><path d="M9.18 7.94v1.41L12 6.71c.12-.12.28-.43 0-.71-.28-.28-.59-.12-.7 0L9.17 7.94ZM8.82 9.86V8.45L6 11.1c-.12.11-.28.42 0 .7.28.29.59.12.7 0l2.12-1.94Z" fill="#459B6E"/></svg>