<!-- by TradingView --><svg width="18" height="18" viewBox="0 0 18 18" xmlns="http://www.w3.org/2000/svg"><path fill="#F0F3FA" d="M0 0h18v18H0z"/><path fill-rule="evenodd" d="M14.54 11.3a5.94 5.94 0 0 0-1.3-6.54A5.94 5.94 0 0 0 9 3a5.94 5.94 0 0 0-5.54 3.7 5.94 5.94 0 0 0 1.3 6.54A5.94 5.94 0 0 0 9 15a5.94 5.94 0 0 0 4.24-1.76c.57-.56 1-1.2 1.3-1.94Zm-.46-.2a5.45 5.45 0 0 0-1.2-5.99 5.44 5.44 0 0 0-5.98-1.2A5.44 5.44 0 0 0 3.92 6.9a5.45 5.45 0 0 0 1.2 5.99A5.44 5.44 0 0 0 9 14.5a5.45 5.45 0 0 0 5.08-3.4Z" fill="#82C143"/><path d="M9.9 6.98c-.02 0-.03 0-.04.03l-.11.71c0 .02-.01.02-.03.01a3.45 3.45 0 0 0-2.9.1V7.8c0-.22.02-.4.07-.57.1-.34.27-.65.51-.95A3.49 3.49 0 0 1 9.1 5.2c.31-.08.62-.1.93-.05l.01.03-.07.66c0 .02 0 .03.02.04l.28.06c.85.21 1.44.38 1.77.49.3.1.6.22.89.35.28.12.48.32.6.58.13.26.15.54.06.84-.04.11-.14.3-.3.54a34.85 34.85 0 0 1-.66.9 4.17 4.17 0 0 0-.7-1.55A3.25 3.25 0 0 0 9.9 7Z" fill="#4DB649"/><path d="m5.73 9.67-.45-1.86a7.98 7.98 0 0 1-.19-1.13 1.2 1.2 0 0 1 .25-.89c.2-.25.47-.39.8-.4a8.75 8.75 0 0 1 1.59.12 5.8 5.8 0 0 0-.51.55 2.96 2.96 0 0 0-.6 2.7l.15.44c0 .02.02.02.03.01l.66-.25c.02 0 .03 0 .03.02l.07.37c.1.42.27.81.52 1.18a3.91 3.91 0 0 0 .93.93v.02l-.16.07c-.58.23-1.18.26-1.8.08A3.15 3.15 0 0 1 5.09 10l.01-.03.62-.26.01-.03Z" fill="#4DB649"/><path d="M10.32 8.67v-.02l-.28-.15a3.55 3.55 0 0 0-1.84-.43c-.06 0-.1.03-.15.1a.4.4 0 0 0-.05.17 3.36 3.36 0 0 0 1.02 2.68l-.02.02a3.11 3.11 0 0 1-1.25-3.23l.03-.02c.62-.11 1.22-.06 1.8.16a4.83 4.83 0 0 1 1.09.6c-.16.44-.37.81-.64 1.13-.29.34-.63.6-1.02.77-.12.05-.12.04-.02-.04a3.7 3.7 0 0 0 1.33-1.74Z" fill="#82C143"/><path d="M11.18 11.5c-.21.22-.43.42-.64.62a17.54 17.54 0 0 1-1.69 1.43c-.14.09-.26.15-.38.18-.32.07-.6.04-.85-.1a1.4 1.4 0 0 1-.55-.66 132.32 132.32 0 0 1-.52-1.16h.02c1.1.38 2.06.3 2.88-.26.3-.19.55-.42.79-.7v-.06l-.55-.45v-.03c.41-.3.74-.67.97-1.11a4.2 4.2 0 0 0 .46-1.44c.24.15.44.34.62.58a3.3 3.3 0 0 1 .55 2.2c-.06.52-.23.97-.53 1.35-.01.02-.02.02-.04 0l-.5-.38h-.04Z" fill="#4DB649"/></svg>