<!-- by TradingView --><svg width="18" height="18" viewBox="0 0 18 18" xmlns="http://www.w3.org/2000/svg"><path fill="#2B7834" d="M0 0h18v18H0z"/><path d="m10.06 5.79-.1.02a2.58 2.58 0 0 0-.39-.18c-.2-.08-.4-.05-.62 0-.31.06-.67.14-.98.26-.47.18-.92.37-1.35.58-.49.24-.9.56-1.24.95-.2.22-.29.36-.36.59-.23.8-.34 1.54-.32 2.26a13.78 13.78 0 0 0 .4 3.27c-.07-.05-.1-.1-.1-.12a13.87 13.87 0 0 1-.37-3.38c0-.62.1-1.2.26-1.83.07-.3.19-.55.35-.73.4-.46.82-.8 1.28-1.03A14.8 14.8 0 0 1 8 5.8a7 7 0 0 1 1.06-.28 1.08 1.08 0 0 1 .76.12l.24.14Z" fill="#010101"/><path d="M9.96 5.8v.02l-.02.02c-.24.1-.4.28-.47.53-.06.21-.13.44-.16.68a3.57 3.57 0 0 0-.05 1.1l.03.66c0 .33.04.63.14.9.03.08.1.2.2.38l.29.58c.1.23.16.35.38.43a3.2 3.2 0 0 0 .48.14l.01.02a.62.62 0 0 0-.12.4l.04.68a11.38 11.38 0 0 0 .52 2.18 5.84 5.84 0 0 1-6.13-1 13.77 13.77 0 0 1-.4-3.25c-.02-.72.1-1.47.32-2.26.07-.23.17-.37.36-.59.34-.4.76-.7 1.24-.95.43-.2.88-.4 1.35-.58.31-.12.67-.2.98-.26.22-.05.41-.08.62 0 .13.05.26.1.39.18Z" fill="#fff"/><path d="M10.07 5.79c.12 0 .23 0 .33.02.54.13.97.66 1.18 1.15.03.06.06.19.12.4.08.28.16.53.24.74.11.28.3.52.57.71.37.27.66.5.88.7l.22.26c.06.08.06.17.01.26-.18.35-.67.41-1.01.47a.02.02 0 0 0-.02.01v.01c.05.12.03.22-.07.3-.15.13-.34.23-.54.3-.36.13-.72.18-1.09.15h-.1l-.01-.03-.03-.01a3.2 3.2 0 0 1-.45-.13c-.22-.08-.29-.2-.38-.43-.09-.2-.18-.4-.3-.58-.1-.17-.16-.3-.19-.37a2.5 2.5 0 0 1-.14-.9c0-.22-.01-.42-.04-.67-.02-.2-.02-.4-.01-.57a4.64 4.64 0 0 1 .23-1.21.81.81 0 0 1 .47-.53l.02-.02V5.8l.1-.02Z" fill="#FDFC04"/><path d="M10.33 10.5v.01c.02.02.05.04.08.04.37.04.64.09.95.09l.47-.05a11.73 11.73 0 0 1 .65-.07c.01 0 .02 0 .02.02.03.11.02.17-.08.25a1.77 1.77 0 0 1-.84.34 1.82 1.82 0 0 1-.86 0l-.43-.12a.44.44 0 0 1-.25-.26c-.13-.31-.23-.5-.44-.88a1.75 1.75 0 0 1-.16-.37 2.7 2.7 0 0 1-.08-.63c0-.3-.01-.56-.03-.8-.03-.33-.02-.61.03-.83l.14-.65c.05-.19.1-.36.23-.5.13-.15.3-.21.52-.2.2.01.31.09.51.21.31.2.5.44.68.78.07.15.13.36.16.47.14.52.27.97.62 1.34.06.07.18.17.36.29.31.22.62.46.87.74.04.04.07.09.1.15v.03c-.04.21-.2.3-.38.36-.27.1-.51.15-.78.18-.23.02-.38.03-.62.07-.2.04-.38.05-.52.04l-.64-.06-.28.01Z" fill="#FFA402"/><path d="M7.94 7.87a.9.9 0 0 1 .01.53c-.04.12-.15.14-.25.06a.75.75 0 0 1-.16-.23v-.02c.1-.09.14-.18.12-.27-.03-.09-.1-.14-.24-.16l-.01-.02c0-.1 0-.2.03-.28.04-.12.14-.15.24-.07.14.1.21.3.26.46Z" fill="#010101"/><path d="M10.86 8.24a.4.4 0 0 1-.2.2l-.05.02c-.07-.02-.07-.05 0-.08.09-.04.15-.1.18-.17a.32.32 0 0 0-.01-.26c-.03-.06-.01-.08.05-.06l.03.05c.04.1.04.2 0 .3Z" fill="#FDFC04"/><path d="M10.9 11.27a.37.37 0 0 0-.13.2c-.02.1-.03.21-.02.31l.04.7c0 .09.04.25.09.49l.18.78c.04.2.12.45.24.76a.1.1 0 0 1-.07.02 11.38 11.38 0 0 1-.52-2.19l-.04-.68c0-.15.04-.28.12-.4h.1Z" fill="#010101"/><path fill-rule="evenodd" d="M9 14.82A5.82 5.82 0 1 0 9 3.18a5.82 5.82 0 0 0 0 11.64ZM9 15A6 6 0 1 0 9 3a6 6 0 0 0 0 12Z" fill="#010101"/></svg>