<!-- by TradingView --><svg width="18" height="18" viewBox="0 0 18 18" xmlns="http://www.w3.org/2000/svg"><path fill="#F0F3FA" d="M0 0h18v18H0z"/><path fill-rule="evenodd" d="M5.75 7.4c0 .03 0 .03-.01 0a.9.9 0 0 1-.1-.3v-.01c-.5.17-.99.44-1.46.83A6.62 6.62 0 0 0 3 9.22c.05.1.12.19.2.26 0 .01.02.02.04.01a7.31 7.31 0 0 0 2.43-.65c.13-.06.24-.13.34-.2a12.4 12.4 0 0 1 1.61-1.02 4.37 4.37 0 0 1-1.73-.11V7.5a4.8 4.8 0 0 0 2.14-.07 15.22 15.22 0 0 1 3.3-1.21v-.05a8.55 8.55 0 0 1-.54-1.27 2.43 2.43 0 0 1-.1-.44c-.04-.25-.2-.4-.45-.44a2.23 2.23 0 0 0-.67.02c-.68.1-1.36.21-2.04.35-.18.04-.37.05-.55.05l-.59-.04c-.06 0-.11 0-.16.02a.28.28 0 0 0-.14.13l-.07.2L6 4.8a7.65 7.65 0 0 0-.3 2.17c0 .15.02.29.05.41Zm2.58.66a.82.82 0 0 0-.27-.01c-.02 0-.02 0 0-.01.38-.14.77-.25 1.17-.32a.3.3 0 0 1 .16.02c.1.04.18.1.23.2a4.24 4.24 0 0 0 .18.3h.01v-.02a34.25 34.25 0 0 1-.27-.56l.27-.04a23.28 23.28 0 0 1 2.42-.14l.86.04c.17.01.36-.01.58-.07a.43.43 0 0 0 .33-.3c0-.03 0-.05-.02-.07a2.73 2.73 0 0 0-1.39-.74c-.5-.1-1.03-.08-1.57.07a17.16 17.16 0 0 0-5.13 2.36l.1-.03c.03 0 .06 0 .07.04.08.14.1.28.09.42a119.66 119.66 0 0 1-.1.82l-.07.02c-.1.02-.16.04-.19.07v.05l.02.1.25.72c.01.02 0 .05-.02.09H6l-.14-.24c-.02-.02-.05-.04-.08-.03-.07.01-.13.06-.2.15a.73.73 0 0 0-.1.23c-.04.11-.02.2.05.3l.05.06.15.21a14.77 14.77 0 0 0 1.45 2.16 9.43 9.43 0 0 1 .58.87l.04.12.1.09c.03.02.07.01.12-.02a.66.66 0 0 0 .1-.1.81.81 0 0 1 .04-.04h.03l.04.04.1.07c.04.02.08 0 .13-.03a.79.79 0 0 0 .18-.24c0-.01 0-.02.02-.02l.02.01c.1.1.18.13.26.12.02 0 .03-.01.03-.03 0-.2.04-.39.1-.57a79.15 79.15 0 0 1 .4-1.26l.1-.2.04-.1c.16-.37.34-.73.54-1.08l.05-.1a13.62 13.62 0 0 1 1.37-1.99.6.6 0 0 0 .37-.03c.05-.02.1-.08.17-.2l.02-.01c.04.14.11.24.2.32a.9.9 0 0 1 .2.23c.1.16.22.26.39.29a3.5 3.5 0 0 1 .49.13c.06.02.1 0 .12-.06v-.04c-.04-.06-.07-.1-.1-.11a.74.74 0 0 1-.17-.1 2.05 2.05 0 0 1-.34-.27.82.82 0 0 1-.19-.42.42.42 0 0 0-.14-.26c-.03-.02-.03-.04.01-.04h.09a.97.97 0 0 0 .24-.04.31.31 0 0 0 .19-.16.1.1 0 0 0 0-.1c-.01-.03-.04-.04-.07-.03-.1.03-.17.03-.23 0a.84.84 0 0 1-.3-.24l-.01-.01-.13-.15a.27.27 0 0 0-.17-.07c-.22.02-.36.09-.43.2-.01.02-.02.03-.04.03a.67.67 0 0 0-.3 0 .34.34 0 0 0-.2.22.17.17 0 0 1-.08.1 194.14 194.14 0 0 0-1.41.71c-.1.06-.25.13-.47.21l-.1.05c-.08.03-.2.06-.35.08 0 0-.01 0 0 0v-.02c.04 0 .07-.03.12-.06a.34.34 0 0 1 .07-.05c.2-.1.32-.19.38-.28.1-.18.12-.37.06-.58a.42.42 0 0 0-.2-.26c-.3-.17-.6-.3-.94-.37Zm-2.3 3.07c-.02.02-.03.02-.03 0l-.16-.25c-.02-.04-.05-.05-.08-.02a.57.57 0 0 0-.22.27.31.31 0 0 0 0 .23c.01.05.05.11.11.19l.1.14.14.25.3.53c.27.4.53.76.79 1.1a26.78 26.78 0 0 1 .78 1.07l.05.12.01.05c.02.06.05.1.09.13.05.03.1.02.13-.03l.12-.13c.02-.02.04-.02.06 0l.11.1c.04.04.07.04.1 0a1 1 0 0 0 .25-.38c.02-.04.01-.07-.01-.1a8.07 8.07 0 0 1-.36-.54l.12-.27a3 3 0 0 1 .24-.44l.14-.17a17.88 17.88 0 0 1 .6-.58c.06-.05.13-.1.18-.16v-.03a.3.3 0 0 0-.1-.1h-.03l-.1.02c-.05.02-.06 0-.03-.04a5.72 5.72 0 0 0 .62-1.1l.2-.43a.7.7 0 0 1 .12-.18c.12-.14.26-.29.4-.42.1-.1.2-.24.28-.4.03-.05.02-.1-.03-.14-.04-.05-.09-.06-.13-.05a.57.57 0 0 0-.22.14c-.01.02-.02.02-.03 0-.05-.09-.1-.14-.17-.15h-.03c-.17.1-.31.2-.42.33-.22.24-.42.52-.6.83a3.96 3.96 0 0 0-1.47 2.64l-.02-.01A4.97 4.97 0 0 0 7.7 13a2.36 2.36 0 0 1-.3-.43 5.57 5.57 0 0 0-.49-.8 8.64 8.64 0 0 1-.29-.47 3.1 3.1 0 0 1-.2-.34.3.3 0 0 0-.08-.1c-.02-.02-.03-.02-.04-.01l-.03.02a.53.53 0 0 0-.1.09l-.16.17Zm.4-1.28c.05.02.04.03 0 .03a.7.7 0 0 1-.08 0h-.14v.1a.77.77 0 0 0 .23-.06c.17-.08.31-.2.42-.35a.54.54 0 0 1 .07-.07.42.42 0 0 0 .09-.1l.05-.09c.1-.19.17-.33.19-.42l.02-.23.01-.01h.01v.01l.01.21c0 .08-.01.14-.04.19a7.27 7.27 0 0 0-.13.32h.02a.8.8 0 0 1 .43.08l.45.17c.05.02.05 0 .02-.03A.33.33 0 0 0 8 9.54a.2.2 0 0 1-.07-.15l.02-.2c.03-.1.04-.17.03-.22a.3.3 0 0 0-.1-.21 1.92 1.92 0 0 0-.04-.04.55.55 0 0 1-.1-.1.38.38 0 0 1-.05-.16c0-.06-.03-.08-.08-.05-.05.04-.12.01-.2-.07v-.02l.03-.02c.01 0 .03 0 .05.02.04.03.07.03.1.01a1.24 1.24 0 0 0 .29-.2l.03-.03s0-.01 0 0l-.88.3v.01c.06.06.09.12.1.18.01.15 0 .29-.03.4v.02l-.1.27c-.05.08-.1.17-.17.24-.04.05-.13.09-.25.12-.06.02-.1 0-.15-.06a.05.05 0 0 1-.01-.03c0-.1-.01-.21-.03-.31l-.02-.2v-.11a.82.82 0 0 0-.07-.26c-.01-.02-.02-.02-.03-.02l-.13.05v.02c.07.13.1.26.1.4v.47c0 .06.02.11.06.16a.3.3 0 0 0 .13.1Zm1.8-.17c.21.03.36.01.44-.05a.15.15 0 0 1 .1-.03v-.03a.2.2 0 0 0-.13.03 7.98 7.98 0 0 0-.41.03l-.02.03.02.02Z" fill="#2F2D2E"/></svg>