<!-- by TradingView --><svg width="18" height="18" viewBox="0 0 18 18" xmlns="http://www.w3.org/2000/svg"><path fill="#019F55" d="M0 0h18v18H0z"/><path d="M9 11.67v-1.3L4.73 6.32a1.98 1.98 0 0 0-.4-.33c-.2 0-.42.07-.54.16-.12.1-.3.61-.47.84-.17.24-1.08.42-1.2.52-.13.09-.12.95-.12 1.25 0 .23.53.23.63.23.1 0 .22-.18.22-.25.81-.49 1.38-.42 1.6-.42l1.05.84c-.22.1-1.23.36-1.33.4-.12.05-.17.26-.17.8 0 .53.15.63.35.63.2 0 .27-.07.32-.12.21-.2 1.67-.43 2.08-.55.2.19.46.6.5.67-.42.07-.91.41-1.04.48-.12.07-.21 1.04-.21 1.27 0 .19.47.25.7.25.03-.03.1-.11.1-.19.46-.33 1.36-.59 1.85-.64l.35-.5ZM9 11.67v-1.3l4.27-4.04c.12-.12.35-.33.4-.33.2 0 .42.07.54.16.12.1.3.61.47.84.17.24 1.08.42 1.2.52.13.09.12.95.12 1.25 0 .23-.53.23-.63.23-.1 0-.22-.18-.22-.25-.81-.49-1.38-.42-1.6-.42l-1.05.84c.22.1 1.23.36 1.33.4.12.05.17.26.17.8 0 .53-.15.63-.35.63-.2 0-.27-.07-.32-.12-.21-.2-1.67-.43-2.08-.55-.2.19-.46.6-.5.67.42.07.91.41 1.04.48.12.07.21 1.04.21 1.27 0 .19-.47.25-.7.25-.03-.03-.1-.11-.1-.19a4.62 4.62 0 0 0-1.85-.64l-.35-.5Z" fill="#FFFEFC"/></svg>