<!-- by TradingView --><svg width="18" height="18" viewBox="0 0 18 18" xmlns="http://www.w3.org/2000/svg"><path fill="#F0F3FA" d="M0 0h18v18H0z"/><path d="m9.46 3.03-.17.56-1.44.26c-.18.03-.42.1-.7.17a2 2 0 0 1 .02-.5c.02-.1 0-.12-.08-.06l-.53.47a.17.17 0 0 1-.15.04l-.52-.1c.2-.14.44-.26.72-.38a6.73 6.73 0 0 1 2.85-.46Z" fill="#22258D"/><path d="M14.73 7.24c-.67-.17-1.32-.37-1.94-.62l-.01-.05a.73.73 0 0 0-.15-.26 5.46 5.46 0 0 1-.03-.49 2.69 2.69 0 0 0-.11-.7.4.4 0 0 1-.03-.09 1.76 1.76 0 0 0-.04-.12c-.1-.29-.33-.5-.67-.65a8.54 8.54 0 0 0-1.65-.54l-.41-.05a2.9 2.9 0 0 1-.4-.08l.17-.56a6.1 6.1 0 0 1 5.28 4.08c.02.04.01.09 0 .13Z" fill="#F12936"/><path d="m9.29 3.59.4.08.4.05c.5.1 1.05.28 1.66.54.34.14.56.36.67.65l.04.12.03.09.03.08c.06.25.09.46.08.62a5.5 5.5 0 0 0 .03.5c.07.07.12.16.15.25a3.27 3.27 0 0 0-.02.09h-.04c-.02-.1-.05-.15-.09-.19-.04-.03-.06-.03-.06.03l.1 1.69c0 .05.02.07.07.06l.32-.09c.03.06.06.1.1.14l.1.62-.04.07a.07.07 0 0 0 0 .07l.12.2c.02.02.02.05.02.08l-.03.3c0 .02-.01.04-.04.04h-.15c-.02 0-.03.01-.04.03v.04l.15.16c.03.03.02.05-.01.06h-.03c-.03.01-.05.03-.04.06 0 .05.04.1.08.13.04.02.03.04 0 .06-.02.01-.03.03-.04.06v.06c.03.05.05.12.07.21 0 .04 0 .05-.04.03l-.07-.04c-.04-.02-.05-.01-.03.03l.12.27c0 .1.03.21.07.34v.04c-.03.01-.04 0-.05-.01a.76.76 0 0 0-.18-.2c-.03-.02-.04-.01-.04.02 0 .02.02.04.04.06a.1.1 0 0 1 .04.06c.06.16.12.32.2.48a.8.8 0 0 1 .04.27c0 .1.03.23.08.39l-.01.02h-.02c-.02 0-.02.01-.01.02l.32.38c-.07.17-.12.2-.17.12l-.07-.1c-.02-.03-.02-.04 0-.06l.05-.02v-.03l-.34-.33c-.02-.03-.05-.03-.07 0-.03.04-.03.09 0 .15.02.02.01.03-.01.04-.03 0-.04.02-.03.05.02.23.1.45.25.64a.85.85 0 0 1-.44.4l-.07-.04a.06.06 0 0 1-.03-.07.21.21 0 0 0-.08-.21v-.04a.48.48 0 0 0 .07-.1c0-.04-.01-.05-.05-.03a.1.1 0 0 1-.04.02c-.03 0-.04-.01-.05-.04a.3.3 0 0 0-.09-.15v-.02l.01-.03h.03c.08.07.15.09.22.05.03-.02.03-.03.01-.06a.18.18 0 0 1-.04-.08c0-.02 0-.03.02-.04h.02c.03-.01.04 0 .05.02.03.11.08.21.15.3.02.03.02.04 0 .06l-.1.04a.1.1 0 0 0 .02-.08c0-.02-.01-.03-.04-.02-.01 0-.02 0-.03.02 0 .04.02.07.06.08-.07 0-.12.02-.14.05-.01.03-.01.05 0 .07.06.05.08.11.07.2 0 .02.01.04.03.05.03.01.05 0 .07 0l.29-.26c.02-.02.02-.04 0-.06-.1-.1-.2-.24-.32-.44-.05-.07-.1-.09-.18-.06-.02.01-.04 0-.04-.02a.38.38 0 0 1-.01-.1c0-.04.02-.05.05-.05a.1.1 0 0 1 .08.04c.05.08.11.13.19.17.02.01.03 0 .02-.02a.82.82 0 0 0-.17-.34c-.02-.02-.02-.04 0-.06l.12-.07c.05 0 .05.01 0 .04s-.06.06-.04.09l.05.02c.02 0 .03-.02.03-.04.02-.06.05-.1.1-.13a.08.08 0 0 1 .07 0l.13.05c.08.03.09.01.03-.04l-.77-.87c-.02-.03-.02-.05.02-.05h.08c.14.2.25.33.33.41l.14.1c.03 0 .04 0 .02-.03l-.07-.12c-.02-.03-.01-.04.02-.04s.06.02.09.05c0 .01.02.02.03 0h.01v-.02c-.1-.14-.23-.26-.38-.36v-.06c0-.02 0-.02.02-.01l.19.1h.02v-.03l-.02-.04a.8.8 0 0 1-.15-.26.44.44 0 0 0-.05-.11 2.08 2.08 0 0 0-.12-.13v-.03l.01-.02c.01-.02.02-.02.04-.01l.27.2c.07.06.09.04.06-.04a1.47 1.47 0 0 0-.19-.38c-.02-.02-.01-.04.02-.05a.35.35 0 0 1 .13-.01c.02 0 .03 0 .04-.02l-.01-.04-.17-.16c-.02-.03-.02-.04.02-.04h.1c.02 0 .02-.02.02-.04a.23.23 0 0 0-.13-.14c-.03-.01-.03-.03 0-.05.03-.02.05-.05.05-.07.01-.03 0-.05-.04-.04h-.05c-.1 0-.11-.03-.04-.1a.5.5 0 0 0 .06-.06c.07-.1.15-.14.23-.13.02 0 .04-.01.04-.03a.46.46 0 0 0-.14-.42.06.06 0 0 1-.01-.06c.03-.09.01-.17-.05-.26-.02-.02-.02-.04 0-.06l.04-.04c.02-.02.02-.04 0-.06-.05-.06-.06-.11-.03-.16.07-.11.04-.15-.08-.13-.07 0-.17.04-.29.1a.11.11 0 0 0-.1 0l-.02-.15a.1.1 0 0 0-.03-.06c-.39-.37-.83-.6-1.34-.68a35.4 35.4 0 0 0-2.34-.28 3.54 3.54 0 0 0-1.04.06c-.64.17-1.24.42-1.78.74-.06.04-.07.09-.02.15v.06l.04 1.08c0 .14.08.18.2.13l.16-.05c.02 0 .03-.02.04-.05.03-.15.02-.3-.01-.45a.18.18 0 0 0-.03-.05v-.05h.12c-.05.21-.06.43-.02.65l-.3.12c-.06.02-.1 0-.13-.04a1 1 0 0 1-.13-.34 4.64 4.64 0 0 1 0-.91c0-.03-.01-.05-.04-.06l-.43-.18c-.04-.01-.06 0-.07.04l-.1.44c0 .04 0 .04.03.02a.32.32 0 0 1 .1-.08c.04-.02.05 0 .04.03a.26.26 0 0 1-.1.11.06.06 0 0 0-.02.06.6.6 0 0 1 .02.23c0 .02 0 .03.03.02a.21.21 0 0 1 .13-.04c.03 0 .04.02.01.05a.5.5 0 0 0-.13.31c0 .03-.02.05-.04.06a.08.08 0 0 0-.03.05c-.01.03 0 .05.03.06l.05.02c.03.01.04.03.02.06-.02.05-.05.08-.1.08-.03 0-.03.02.01.04l.16.07c.02.01.03.03 0 .04a.3.3 0 0 0-.1.2c0 .03.02.05.03.07.05.07.05.12 0 .16-.03.02-.03.04-.01.06l.09.1c.02.02.03.02.05 0 .01-.01.03-.02.05-.01.04 0 .05.01.02.04-.04.05-.04.08 0 .1 0 .02.02.02.04 0h.05c.02 0 .03.01.02.03l-.2.26c0 .02-.02.02-.04 0l-.01-.04-.12-.04a.05.05 0 0 1-.04-.05l.01-.13h.07c.04 0 .07-.02.09-.04a.04.04 0 0 0 0-.04.04.04 0 0 0-.03-.03l-.06.04a.1.1 0 0 1-.08 0 .7.7 0 0 1 .01-.26c.02-.08 0-.12-.05-.15-.03 0-.04-.02-.03-.05.03-.14.02-.3-.02-.48 0-.04.03-.12.1-.25a.04.04 0 0 0 0-.05.13.13 0 0 0-.07-.04c-.04-.01-.05-.03-.03-.07.05-.1.03-.17-.04-.2l-.02-.33c0-.03 0-.05.02-.07.1-.22.12-.4.05-.53 0-.08 0-.17.03-.26a.17.17 0 0 0 .02-.08l.05-.44c.05-.14.08-.27.11-.4a5.48 5.48 0 0 1 .37-1.19c.13-.25.26-.52.37-.8.07-.05.15-.14.24-.25.08-.11.16-.2.24-.24.14-.1.29-.18.44-.25.29-.08.52-.14.7-.17l1.44-.26Z" fill="#040303"/><path d="M12.44 5.32c.03.03.05.06.05.08v1.3l.06.7c.02.2.03.44.03.7 0 .02 0 .03-.03.01a2.7 2.7 0 0 0-1.39-.66c-.95-.16-1.82-.25-2.6-.3-.24-.01-.56.03-.93.14a6.84 6.84 0 0 0-1.65.68l-.01-.03c.01-.73.07-1.48.16-2.25.05-.36.12-.64.23-.86.2-.41.56-.67 1.1-.8l1.5-.3c.27-.03.52-.03.75 0 .63.1 1.22.26 1.78.5.28.13.5.27.67.42l.13.18.05.12a.2.2 0 0 0 .05.08c.02.02.03.04.02.06-.02.06 0 .1.04.15v.05l-.01.01v.02Z" fill="#E0242A"/><path d="m5.78 3.94.33.39v.06l-.4.42c-.01.02 0 .03.02.03l.5-.08c-.11.28-.24.55-.37.8-.08.15-.13.28-.16.38-.04.13-.07.27-.12.4l-.09.4-.11.4-.36-.12c-.07-.02-.09 0-.05.06l.31.5v.07l-.18.27c-.02.02-.01.04.02.04.04.01.1 0 .15-.03.08.13.06.31-.04.53a.15.15 0 0 0-.02.07l.02.32-2.2-.87c-.02-.02-.02-.05-.01-.1.14-.73.42-1.42.82-2.05a.13.13 0 0 1 .07-.05l.29-.06c.02 0 .04 0 .06.02l.25.36c.04.05.07.05.07-.02v-.52c0-.03 0-.04.03-.05l.37-.15c.09-.03.08-.06-.01-.07a1.7 1.7 0 0 1-.56-.22c.4-.46.85-.84 1.37-1.13Z" fill="#22258D"/><path d="m9.76 4.94-.01.02.25.34c.02.01.02.03 0 .06-.02.04-.06.08-.13.11a.07.07 0 0 0-.04.06c0 .05-.04.07-.09.07-.02 0-.03-.01-.03-.03v-.08h.03v-.05l-.15-.15c-.02-.02-.02-.03 0-.04a.17.17 0 0 1 .08-.01c.1.02.13 0 .07-.08l-.1-.14c-.04-.04-.04-.09 0-.13l.18-.18c.02-.02.03-.01.03 0 .03.09.08.16.13.22a.1.1 0 0 1 .03.1l-.01.05c-.01.04-.03.04-.05.02l-.17-.17h-.02ZM8.5 5.21l.17.2v.03a.3.3 0 0 1-.14 0c-.03 0-.04 0-.04-.04.01-.1-.03-.15-.14-.15-.03 0-.05.01-.05.04 0 .05.02.1.07.16.01.02.01.03-.02.04h-.07c-.03 0-.04-.01-.04-.03l-.02-.41-.02-.04L8.18 5c-.02-.03-.02-.04.01-.04h.2c.04 0 .04.02.01.05l-.05.05c-.1.08-.08.11.04.09.05-.01.1-.08.13-.2 0-.03.02-.05.05-.05l.56-.03c.04 0 .05.02.03.05v.03c-.02.02-.03.02-.05.02a.35.35 0 0 0-.19.02c-.03.01-.04.04-.01.06.03.04.08.05.16.05.01 0 .02 0 .02.02v.04a.48.48 0 0 0-.2.08c-.02.02-.02.04 0 .06.03.03.06.05.11.04l.18-.04c.04 0 .05 0 .03.04l-.03.05-.02.01-.35.02c-.04 0-.05-.01-.04-.04 0-.04.02-.06.04-.06.02-.01.03-.02.03-.05a.29.29 0 0 0-.02-.1.07.07 0 0 1 0-.07l.02-.03v-.05a.26.26 0 0 0-.08-.08c-.03-.01-.05-.01-.07.01l-.2.19c-.02.02-.02.05 0 .07ZM10.27 5.4c.03.01.05 0 .07-.01.1-.13.15-.26.14-.39 0-.03 0-.06.04-.06l.03-.01c.03 0 .04 0 .04.03-.01.18-.07.35-.2.48a.13.13 0 0 1-.13.05.13.13 0 0 1-.11-.1l-.04-.18v-.08c.02-.06.02-.12 0-.16-.02-.03-.01-.04.01-.05a.2.2 0 0 1 .08-.01c.03 0 .04.02.03.05a.59.59 0 0 0-.05.23c0 .1.03.17.1.2ZM10.9 5.03a.04.04 0 0 0-.04-.02l-.04.02-.02.04a.06.06 0 0 0 0 .06l.15.26a.1.1 0 0 1 0 .1.1.1 0 0 1-.09.05c-.14 0-.22-.06-.25-.21v-.05h.06l.06.13c.02.04.04.06.08.06h.02c.05 0 .06-.02.05-.06a.66.66 0 0 0-.14-.2.15.15 0 0 1-.05-.15c.02-.05.05-.1.1-.11.06-.03.12-.02.17.04.05.05.07.1.06.13-.04.11-.07.11-.08 0l-.05-.09ZM7.15 5.39c-.02.07 0 .13.05.18.02.02.02.03 0 .04a.22.22 0 0 1-.09.02c-.03 0-.04-.02-.04-.05l.02-.4c0-.03.01-.05.04-.05l.06.01.04.06.09.18c.02.03.04.02.05 0l.17-.3c.02-.02.04-.03.07-.02h.04c.02.01.03.02.01.04l-.04.08a.13.13 0 0 0-.02.07v.29c0 .03 0 .05-.05.04l-.08-.02c-.02 0-.03-.02-.01-.04l.07-.09c.07-.09.05-.11-.05-.06-.04.01-.06.07-.08.16-.01.02-.03.04-.05.04h-.03a.05.05 0 0 1-.05-.04.44.44 0 0 0-.08-.15c-.02-.03-.04-.03-.04 0ZM11.25 5.23c0-.08.03-.13.1-.17.03-.01.05 0 .06.03l.09.35.02.06.06.12c.01.04 0 .05-.03.04l-.12-.02c-.02 0-.03-.02-.02-.04l.02-.08c0-.03 0-.05-.03-.07a.15.15 0 0 0-.14-.01c-.03.01-.04.03-.03.06l.02.07c0 .03 0 .04-.04.04-.03 0-.07 0-.11-.03-.04-.01-.04-.03-.01-.06a.38.38 0 0 0 .1-.23c0-.02 0-.03.02-.03h.02c.02-.01.02-.02.02-.03ZM7.95 5.25c-.09-.02-.13-.06-.12-.12 0-.03.02-.05.04-.06h.05c.03 0 .05.02.06.05l.12.32s0 .02.02.03l.03.02v.02l-.1.04c-.03 0-.05 0-.06-.03a.15.15 0 0 0-.02-.05c-.03-.04-.07-.06-.1-.04a.07.07 0 0 0-.05.05l-.01.06c0 .02-.02.03-.04.04a.1.1 0 0 1-.06 0c-.03-.02-.03-.04-.02-.06a.45.45 0 0 0 .07-.24l.01-.03a.05.05 0 0 1 .06 0s.02 0 .03.02l.04.05c.03.03.05.03.06 0l.01-.02c.02-.02 0-.04-.02-.05Z" fill="#EBECF6"/><path d="M6 6.06c0 .14-.02.4-.07.75-.03.3-.04.7-.02 1.22 0 .02 0 .03-.03.02l-.46-.1c-.04 0-.06-.03-.05-.07.12-.81.3-1.55.54-2.2a5.71 5.71 0 0 1 .2-.43l.04-.01c-.06.2-.1.32-.1.37a.7.7 0 0 1-.02.23.68.68 0 0 0-.04.22Z" fill="#E0242A"/><path d="m11.32 5.27.06-.02c.03-.01.04 0 .04.04-.01.03-.04.05-.09.06-.05 0-.06-.01-.04-.06l.03-.02Z" fill="#F9C34A"/><path d="M9.8 5.3c.02-.03.06-.02.12 0 .02 0 .03.02 0 .04-.01.02-.05.03-.1.02a.04.04 0 0 1-.03-.03l.01-.04Z" fill="#E0242A"/><path d="M9.12 5.97H9.1l-.01-.02.04-.16c0-.02 0-.04-.03-.05-.04-.02-.1-.02-.16 0l-.04-.03c-.01-.01-.01-.02.01-.03a.73.73 0 0 1 .52.01l.01.02v.03c0 .02 0 .03-.02.02a.45.45 0 0 0-.17-.03c-.03 0-.05.02-.05.04 0 .16 0 .26.04.3.02.03.01.05-.02.05h-.13l-.03-.01v-.04l.08-.06c.02-.02.02-.04-.02-.04ZM10.06 6.04c.02-.04 0-.06-.04-.07-.1 0-.15.03-.17.1 0 .03-.02.04-.05.04-.02 0-.05 0-.08-.02-.02-.02-.02-.04 0-.06.06-.06.11-.15.17-.27.06-.14.13-.15.2-.02l.04.17c0 .07.04.13.08.18.02.03.01.04-.02.05-.04.01-.09 0-.14-.02-.02 0-.03-.02-.02-.04l.03-.04ZM10.6 6.13c.02-.02.01-.06-.02-.1-.03-.03-.02-.04.02-.03l.14.03c.03 0 .04.02.02.05a.49.49 0 0 1-.09.13c-.03.03-.08.04-.14.02a.32.32 0 0 1-.23-.18.33.33 0 0 1 .02-.28c.04-.1.15-.12.33-.08.07.02.1.06.09.14-.01.02-.03.04-.06.03-.02 0-.04-.01-.05-.04a.1.1 0 0 0-.05-.05c-.05-.03-.09-.03-.13-.02-.04.02-.07.05-.08.1-.02.14.03.24.17.3.02.01.04 0 .06-.02ZM7.93 6l-.02-.22c0-.03.01-.04.04-.05a.58.58 0 0 1 .33 0c.02.02.03.03.03.05l-.01.02H8.1a.15.15 0 0 0-.08.04.23.23 0 0 1-.03.03c-.05.02-.04.04 0 .03.07 0 .14.01.2.04.08.03.08.06 0 .07l-.17.04c-.02 0-.02 0-.03.02 0 .01 0 .02.02.03l.08.05h.08c.06-.04.13-.05.2-.03.04.01.05 0 .06-.03.03-.14.1-.26.18-.35.03-.03.05-.02.06.01.05.13.12.26.22.38.02.02.01.03-.01.03h-.1c-.02 0-.04 0-.05-.03-.03-.07-.09-.1-.17-.08-.03.01-.05.03-.05.06v.07c0 .05 0 .06-.05.03l-.06-.03a.07.07 0 0 0-.07 0 .88.88 0 0 1-.4.06c-.03 0-.04-.01-.03-.03l.03-.15v-.07ZM7.78 6.27h-.13c-.03 0-.04 0-.04-.03l-.01-.1c-.02-.04-.04-.05-.07-.04l-.03.01c-.03 0-.05.03-.05.06v.09c0 .03 0 .05-.04.05h-.1c-.04 0-.05 0-.03-.03a.2.2 0 0 1 .06-.08.06.06 0 0 0 .03-.06c0-.06 0-.11.03-.17.01-.03 0-.05-.01-.06l-.03-.03c-.03-.03-.02-.05.01-.06.2-.09.32-.07.39.03.04.06.02.13-.06.22-.04.04-.03.07.02.09a.3.3 0 0 1 .08.07c.02.03.02.04-.02.04ZM10.96 6.17v.06c-.02.03-.03.04-.06.03h-.05c-.02-.01-.03-.03-.02-.05l.1-.2a.1.1 0 0 0 0-.05c0-.06.03-.12.1-.16.03-.02.04-.01.05.02l.17.45c0 .02 0 .04-.03.05-.02 0-.04 0-.07-.02-.03-.02-.05-.06-.05-.11 0-.03 0-.04-.03-.05h-.04c-.04-.02-.06 0-.07.03ZM6.81 6.02c.01-.1.06-.16.16-.19a.33.33 0 0 1 .26.04c.02 0 .02.02.03.04v.07c0 .04-.01.04-.04.01-.12-.12-.22-.13-.3-.03-.06.08-.07.17-.03.28 0 .03.03.05.06.06h.08a.05.05 0 0 0 .03-.06v-.08c0-.03.01-.05.04-.05h.08c.02 0 .03 0 .04.02v.04c-.06.14-.14.21-.25.21a.18.18 0 0 1-.15-.08c-.06-.09-.07-.16-.03-.23a.1.1 0 0 0 .02-.05Z" fill="#EBECF6"/><path d="M10 5.9c.03 0 .06-.03.06-.06s-.04-.04-.08-.04c-.03 0-.06.03-.06.06s.04.05.08.04ZM7.59 6c.06 0 .1-.05.1-.09-.01-.04-.07-.06-.13-.05-.06.01-.1.05-.1.1 0 .03.06.06.13.05Z" fill="#E0242A"/><path d="M11.49 5.97v.34c0 .03-.02.04-.05.04l-.03-.01c-.02 0-.03-.02-.03-.04.02-.1.03-.2.02-.3l-.01-.07-.02-.02c-.04-.02-.03-.03 0-.04.05-.02.1-.02.14 0 .03.01.03.03.01.05l-.02.01-.01.04Z" fill="#EBECF6"/><path d="M8.52 5.9h.17c.02 0 .03 0 .04.02v.02l-.02.02c-.09.03-.15.02-.2-.04l.01-.02Z" fill="#F12936"/><path d="M11.97 6.17c-.04-.08-.06-.13-.06-.16s.02-.04.05-.05H12c.03 0 .04.01.04.04l-.02.4c0 .02-.01.03-.04.02-.03 0-.06-.01-.07-.04a2.8 2.8 0 0 0-.1-.17c-.06-.1-.1-.1-.1.03l.06.14c.02.04 0 .05-.04.04l-.06-.01c-.03 0-.04-.03-.04-.06.01-.17 0-.3-.03-.4-.01-.03 0-.05.03-.04.06 0 .1.01.1.04a1.03 1.03 0 0 0 .22.25l.01-.01c.02 0 .02-.01.01-.02Z" fill="#EBECF6"/><path d="M12.72 6.65c.02.11.05.21.1.3l.04.13.04.13c.02.04.03.1.04.18.01.14.03.25.07.34l.02.15.01.15c0 .02.01.03.03.04l.01.02-.02.07-.32.09c-.05 0-.07-.01-.08-.06l-.09-1.7c0-.05.02-.05.06-.02.04.04.07.1.1.18Z" fill="#E0242A"/><path d="M12.79 6.62c.14.4.23.71.3.95.05.22.07.46.06.73a.41.41 0 0 1-.1-.14l.03-.07c0-.01 0-.02-.02-.02l-.02-.04v-.15L13 7.73c-.04-.1-.06-.2-.07-.34a.67.67 0 0 0-.04-.18.76.76 0 0 1-.04-.13.71.71 0 0 0-.04-.12 1.4 1.4 0 0 1-.1-.3h.03l.02-.02a4.31 4.31 0 0 1 .02-.02Z" fill="#381B1D"/><path d="M12.59 8.42a.3.3 0 0 0 0 .13h.02c.01-.02.02-.01.02.02 0 .05.02.08.05.11.02.02.03.04.02.07l-.01.05v-.05c-.04-.02-.05-.01-.04.02 0 .01.02.03.04.03l.2.5.03.04c.02 0 .02.02.02.04 0 .03-.02.04-.05.03l-.71-.26a.72.72 0 0 1-.01-.37c.07.03.1 0 .1-.05 0-.1 0-.19.02-.24.03-.14-.05-.2-.23-.2a.38.38 0 0 0-.12-.07l-.6-.25-.9-.14-.23-.02a6.44 6.44 0 0 0-1.76 0l-.31.05-.41.06-.31.06c-.3.07-.56.17-.78.3l-.25.13c-.02.02-.03.04-.02.06.04.1.05.19.02.28l.01.05.02.02v.05l.03.05c.03.15.04.3 0 .45 0 .03-.01.04-.03.05l-.16.05c-.13.05-.2 0-.2-.13l-.04-1.08V8.2c-.05-.06-.04-.11.02-.15a6.94 6.94 0 0 1 1.79-.74 3.54 3.54 0 0 1 1.03-.06c1.08.1 1.86.2 2.34.28.5.08.95.31 1.34.68a.1.1 0 0 1 .03.06l.02.15Z" fill="#E0242A"/><path d="M5.31 7.67a.71.71 0 0 0-.03.26c-.07.03-.12.04-.16.03-.03 0-.04-.02-.02-.04l.19-.27.02.02Z" fill="#EBECF6"/><path d="M10.21 7.8c-.03.04-.04.08-.01.12a8.6 8.6 0 0 1-1.57.06.09.09 0 0 1-.06-.03l-.1-.12c0 .02-.01.01-.02-.02a6.44 6.44 0 0 1 1.76 0Z" fill="#696868"/><path d="M8.45 7.8c.01.04.02.05.02.03-.03.15.04.23.2.23.45 0 .9-.01 1.34-.03.1 0 .16-.04.19-.1-.02-.05-.02-.09.01-.12l.23.02c.07.2.1.42.12.63l.04.62c.04.37.05.68.03.92 0 .06-.05.13-.15.2-.02 0-.05.02-.08.01 0-.03 0-.04-.03-.04a1.32 1.32 0 0 1-.23-.23l-.35-.65a.11.11 0 0 0-.05-.05L9.7 9.2c0-.03 0-.05.04-.06h.04c.04-.02.05-.04.03-.07a1.08 1.08 0 0 0-.14-.27c-.26-.2-.5-.19-.69.06a.9.9 0 0 0-.05.09c-.02.05-.05.07-.06.08-.04.02-.05.04-.01.06l.08.05c.02.02.03.04.01.06l-.36.67-.02.04a.12.12 0 0 0-.03.09c-.1.04-.16.1-.17.2h-.15l-.08-2.34.3-.05Z" fill="#FE82DF"/><path d="M11.34 7.97c-.13.07-.2.15-.23.22-.07.7-.05 1.38.04 2.06l-.12.06a2.22 2.22 0 0 0-.95.63h-.02v-.03c.12-.2.27-.34.45-.43l.27-.14c.03-.03.02-.04-.02-.04-.09 0-.2.04-.36.14a.96.96 0 0 0-.4.46c0 .02-.02.03-.03.03-.03 0-.05 0-.04-.04.04-.38.02-.74-.07-1.06 0-.03 0-.05.03-.06.03 0 .06 0 .09.03l.06.1a23.56 23.56 0 0 0 .03.59c0 .09.03.1.1.03.09-.1.2-.2.33-.26.03-.02.03-.03 0-.05l-.02-.02c.1-.06.15-.13.15-.19.02-.24.01-.55-.03-.92l-.04-.62a2.42 2.42 0 0 0-.12-.63l.9.14Z" fill="#FBB5A6"/><path d="M10.2 7.92c-.04.07-.1.1-.19.11-.44.02-.89.03-1.33.03-.17 0-.24-.08-.21-.23l.1.12c.01.02.03.03.06.03.53.03 1.05.01 1.57-.06Z" fill="#381B1D"/><path d="m8.14 7.86.08 2.35c.02-.01.02 0 0 .05-.05.01-.08.05-.09.13l-.39-.03.02-.15c.03-.2.04-.34.04-.44 0-.62-.01-1.23-.07-1.85l.41-.06Z" fill="#FBB5A6"/><path d="M7.73 7.92c.05.62.08 1.23.07 1.85a3.93 3.93 0 0 1-.06.59l-.21-.03-.3-.12c.02-.4.03-.78.02-1.16 0-.18.02-.36.06-.54.04-.18.08-.35.1-.53l.32-.06Z" fill="#E5E384"/><path d="m7.42 7.98-.1.53c-.05.18-.07.36-.07.54 0 .38 0 .77-.02 1.16a.72.72 0 0 1-.33-.13c.06-.35.02-.71-.14-1.07.05-.02.08-.03.08-.05 0-.13 0-.26.04-.39 0-.02 0-.05-.02-.07-.01-.01-.01-.04.01-.06.03-.02.05-.03.08-.02v.02h.03l.08-.17v-.02c-.01-.01-.02-.02-.03-.01a.41.41 0 0 0-.23.1.07.07 0 0 0-.03.06c.02.11.01.21-.02.3-.01-.04-.05-.02-.1.04a.9.9 0 0 1-.01-.46c.22-.13.48-.23.78-.3Z" fill="#8BDAD3"/><path d="m11.34 7.97.6.25a.64.64 0 0 0 0 .5c.03.06.02.12-.04.2a.12.12 0 0 0-.02.06v1.05l-.54.18a5.12 5.12 0 0 0 0-1.84.1.1 0 0 0-.04-.05l-.2-.13c.03-.07.11-.15.24-.22Z" fill="#A8D7B0"/><path d="m6.51 9.47.02.18c0 .11-.03.13-.12.05-.02-.02-.05-.03-.1-.02-.04 0-.04.02-.01.04.09.05.15.11.2.18l-.24-.04-.06.01-.05.06c-.03.02-.02.04 0 .06.25.15.52.26.79.3.02.01.03 0 .04-.02v-.02l-.01-.02-.45-.13c-.06-.02-.06-.04 0-.06l.07-.01.3.05c.12.08.23.12.34.13l.3.12c-.02.12.04.2.18.21.48.06.88.27 1.2.63.08.1.07.1-.04.05a1.32 1.32 0 0 0-.76-.17c-.03 0-.05.02-.04.05v.02c0 .02 0 .02.02.02.37-.03.68.06.95.29.06.05.12.16.18.34l.16.49c.02.03.04.04.07.05.04 0 .06-.01.08-.04.13-.23.22-.47.28-.74.04-.14.1-.27.18-.37.25-.32.56-.56.94-.72.03 0 .06-.05.1-.13l.12-.06.18-.04.55-.18c.04 0 .08.02.12.05.1.05.17.12.23.22.02.02.01.03 0 .04a.16.16 0 0 0-.06.04c-.02.02-.02.04 0 .04l.37.11c.05.02.07 0 .04-.04a.4.4 0 0 0-.15-.13.06.06 0 0 1-.04-.05v-.04a.07.07 0 0 0-.03-.06l-.31-.19c-.03-.03-.02-.05.04-.07.03-.01.04-.03.05-.05l.03-.14c0-.03.02-.04.04-.04h.06c.02 0 .03-.01 0-.03l-.1-.11c-.02-.02-.02-.04 0-.05a.6.6 0 0 1 .18-.11c.02-.01.02-.02 0-.04 0-.01-.01-.02-.03-.02-.02 0-.06 0-.1.02-.03.01-.04 0-.04-.03 0-.04.01-.07.04-.09l.64.25a.1.1 0 0 0 .12-.02.1.1 0 0 0 .03-.12l-.32-.94c.12-.07.22-.1.29-.11.12-.02.15.02.08.13-.04.05-.02.1.03.16.02.02.02.04 0 .06l-.04.04c-.02.02-.02.04 0 .06.06.09.08.17.05.26v.06c.13.13.17.27.15.42 0 .02-.02.03-.05.03-.07 0-.15.04-.22.13a.5.5 0 0 1-.06.06c-.07.07-.06.1.04.1h.05c.04 0 .05.01.04.04 0 .02-.02.05-.06.07-.02.02-.02.04 0 .05.07.03.1.07.13.14.01.02 0 .03-.02.03H13c-.03 0-.03.02 0 .05l.16.16v.04c0 .01-.01.02-.03.02H13c-.03.02-.04.04-.02.06.08.11.14.24.2.38.02.08 0 .1-.07.05l-.27-.21h-.04l-.02.03v.03l.13.13.05.11c.03.1.08.18.15.26l.02.04v.02c0 .02-.01.02-.02.01l-.19-.1c-.02-.01-.03 0-.02.01v.06a1.66 1.66 0 0 1 .38.37l-.01.02h-.03a.14.14 0 0 0-.1-.06c-.02 0-.03.01-.01.04l.07.12c.01.03 0 .04-.02.02a.44.44 0 0 1-.15-.09 3.39 3.39 0 0 1-.34-.41h-.06c-.04 0-.04.02-.02.05l.77.87c.05.05.04.07-.03.04l-.13-.06a.08.08 0 0 0-.07 0 .22.22 0 0 0-.1.14c0 .02-.02.03-.04.04-.01 0-.03 0-.04-.02-.02-.03 0-.06.04-.1.05-.02.05-.03 0-.03-.03 0-.07.03-.12.07-.02.02-.02.04 0 .06.1.11.15.23.17.34 0 .03 0 .03-.02.02a.48.48 0 0 1-.19-.17.1.1 0 0 0-.08-.04c-.04 0-.05.01-.06.04l.01.1c.01.03.03.04.05.03.07-.03.13 0 .18.06.11.2.22.34.32.44.02.02.02.04 0 .06l-.3.25c-.01.02-.04.02-.06.01a.05.05 0 0 1-.03-.06.22.22 0 0 0-.06-.2c-.02-.01-.03-.03 0-.06.01-.03.06-.05.12-.05l.1-.04c.02-.02.02-.03 0-.05a.88.88 0 0 1-.15-.3c0-.03-.02-.04-.05-.03h-.02c-.02.01-.02.02-.02.04l.04.08c.02.03.02.04-.01.06-.07.04-.15.02-.22-.05h-.03v.05c.04.04.07.1.08.15 0 .03.02.04.05.04a.1.1 0 0 0 .04-.02c.04-.02.05-.01.04.03l-.06.1v.04c.07.05.1.12.08.21 0 .03 0 .05.03.07l.06.05.01.03-.18.1c-.03.03-.05.02-.08 0a6.58 6.58 0 0 1-.66-.7.97.97 0 0 1-.13-.28c-.01-.02-.03-.03-.05-.03h-.02c-.02 0-.03.01-.02.03.05.2.16.38.32.54.26.27.44.44.52.51.02 0 .01.03-.02.07a.44.44 0 0 0-.19.13h-.04c-.06-.05-.14-.06-.24-.05-.02 0-.03 0-.04-.03 0-.14-.03-.3-.08-.48-.01-.04-.04-.07-.07-.09-.03 0-.04 0-.05.03 0 .02 0 .04.03.07a.1.1 0 0 1 .02.06l.03.4c0 .03-.02.05-.04.06l-.12.05v.28c0 .03-.01.05-.04.08l-.19.07c-.03.01-.05 0-.06-.04l-.03-.58c0-.02 0-.02.02-.02h.03c.03.01.04 0 .03-.02a.84.84 0 0 0-.41-.53h-.04a.03.03 0 0 0-.01.03c0 .06.03.12.1.17a.1.1 0 0 0 .07.02c.07 0 .1.03.1.12a21.7 21.7 0 0 1 .08.85c0 .02 0 .04-.02.05a.66.66 0 0 1-.22.1c-.03.02-.05.01-.07 0a.3.3 0 0 1-.08-.15c0-.04.01-.1.06-.17.07-.13.13-.26.15-.4 0-.04 0-.05-.03-.04h-.03c-.03.01-.05.03-.04.07.01.1-.03.2-.13.32a.13.13 0 0 0-.03.06c-.03.14-.1.29-.19.45-.05.03-.1.03-.14-.02l.02-.48c0-.03-.01-.04-.04-.03-.1.01-.15-.02-.19-.09.02-.09-.02-.12-.11-.1a.1.1 0 0 0-.08.07l-.1.31c-.02.05-.03.07-.05.06l-.36-.48-.08-.1v-.08c0-.03-.02-.05-.05-.05-.04 0-.06 0-.07.03L9 14.96c-.04 0-.07 0-.1-.02l-.05-.2c.01-.08-.01-.13-.06-.16a.1.1 0 0 1-.05-.06 2.8 2.8 0 0 1-.1-.4.1.1 0 0 0-.05-.02c-.03 0-.05.01-.05.04 0 .06-.04.1-.1.1a.09.09 0 0 0-.07.04 1.5 1.5 0 0 0-.1.17.6.6 0 0 1-.11.16c-.1.1-.18.2-.26.3l-.53-.13a.06.06 0 0 1-.05-.05.36.36 0 0 1 0-.13.3.3 0 0 0 .03-.12c0-.03-.01-.04-.04-.03-.04.02-.09.06-.14.14a.72.72 0 0 1-.08.1c-.14-.01-.24-.05-.28-.11.24-.21.46-.44.64-.7.05-.05.1-.09.18-.1.03 0 .04-.02.04-.05 0-.05-.04-.07-.1-.08-.02 0-.04 0-.06.03-.21.27-.44.52-.67.77-.1.1-.2.13-.3.07a.1.1 0 0 1-.06-.06l.66-1.04c.02-.03.05-.04.08-.03.03.02.04.05.03.08l-.06.14.01.03h.03c.03.01.05 0 .07-.02l.4-.7c.02-.02.02-.03.01-.03h-.04c-.03-.01-.04 0-.05.01l-.17.3c-.05.09-.09.09-.12 0l.01-.08c.02-.03.01-.04-.02-.03a.1.1 0 0 0-.06.04 3.59 3.59 0 0 1-.62.75c-.02 0-.03 0-.05-.03-.02-.02-.02-.04-.01-.06l.07-.12v-.02c0-.01 0-.02-.02-.02h-.06a.45.45 0 0 0-.05.07c-.07.07-.13.11-.17.11-.04 0-.05 0-.02-.03a.82.82 0 0 0 .09-.1c.04-.06.03-.08-.04-.04a.36.36 0 0 0-.17.17.1.1 0 0 1-.05.05.71.71 0 0 0-.31.26l-.54-.37a.34.34 0 0 0 0-.21c0-.03-.02-.04-.05-.04-.04 0-.07.04-.08.1a.35.35 0 0 1-.27-.15c.11-.1.18-.18.2-.23.1-.17.07-.19-.07-.05-.05.04-.11.11-.19.21-.1-.02-.13-.05-.1-.08.1-.4.17-.79.24-1.18.06-.31.18-.6.35-.85a.09.09 0 0 1 .06-.04.54.54 0 0 0 .22-.07l.02-.03v-.02c0-.01-.01-.02-.03-.02l-.18.05c-.04 0-.05 0-.04-.04.04-.06.11-.13.22-.2.07-.04.11-.07.13-.1.03-.03.02-.04 0-.04-.05 0-.09.02-.1.04-.03.02-.05.03-.07.01a.2.2 0 0 1-.05-.06v-.05l.01.03c.02.03.03.03.05.01l.18-.26c.02-.02.01-.03-.01-.03H5.7a.04.04 0 0 1-.05 0c-.03-.02-.03-.05.01-.1.03-.03.02-.04-.02-.04l-.05.01c-.02.02-.04.02-.05 0l-.1-.1c-.01-.02-.01-.04.01-.06.06-.04.06-.1.01-.16a.1.1 0 0 1-.02-.06.3.3 0 0 1 .1-.2c.01-.02.01-.04-.02-.05a1.1 1.1 0 0 1-.15-.07c-.04-.02-.04-.03 0-.04.04 0 .07-.03.1-.08 0-.03 0-.05-.03-.06l-.06-.02c-.02-.01-.03-.03-.02-.06 0-.02.01-.03.03-.05a.08.08 0 0 0 .04-.06.5.5 0 0 1 .13-.31c.03-.03.02-.04-.01-.05-.05 0-.09 0-.13.04-.03.01-.04 0-.04-.02a.6.6 0 0 0-.01-.23c0-.02 0-.04.02-.06a.26.26 0 0 0 .1-.1c.01-.05 0-.06-.04-.04a.32.32 0 0 0-.1.08c-.03.02-.04.02-.03-.02l.1-.44c0-.04.03-.05.07-.04l.43.18c.03 0 .04.03.04.06-.03.45-.03.75 0 .9a1 1 0 0 0 .13.35c.03.05.07.06.12.04l.3-.12Z" fill="#EBE3D8"/><path d="m11.34 10.2-.2.05c-.08-.68-.1-1.36-.03-2.06l.19.13a.1.1 0 0 1 .04.05c.03.09.04.19.06.32.05.56.03 1.07-.06 1.52Z" fill="#E5E384"/><path d="m6.76 9-.01-.3a.6.6 0 0 0 .02-.3c0-.02 0-.05.03-.06.06-.06.14-.1.23-.1h.03v.03l-.08.16c0 .02-.01.02-.02.01v-.02h-.01c-.03-.01-.05 0-.08.02-.02.02-.02.05 0 .06.01.02.02.05 0 .07-.03.13-.04.26-.03.39 0 .02-.03.03-.08.04Z" fill="#EBECF6"/><path d="m12.06 8.28-.03.3c0 .1.04.17.14.2a.72.72 0 0 0 0 .37l.05.11c-.03.02-.04.05-.04.1 0 .02.01.03.04.02a.22.22 0 0 1 .1-.02c.02 0 .03 0 .04.02.02.02.01.03-.01.04a.6.6 0 0 0-.17.1c-.02.03-.02.04 0 .06l.1.1c.02.03.02.04-.01.04h-.06c-.02 0-.04.01-.04.04l-.03.14c0 .02-.02.04-.05.05-.05.02-.07.04-.04.08a.14.14 0 0 0-.05.05.41.41 0 0 0-.12-.05V8.98c0-.03.01-.05.03-.07.05-.07.06-.13.04-.2a.64.64 0 0 1 0-.5l.11.07Z" fill="#0275C5"/><path d="m12.7 8.43.31.94a.1.1 0 0 1-.03.12.1.1 0 0 1-.12.02l-.64-.25a.33.33 0 0 1-.04-.11l.71.26c.03.01.05 0 .05-.03 0-.02 0-.03-.02-.04a.08.08 0 0 1-.03-.04l-.2-.5.01-.05c0-.03 0-.05-.02-.07a.15.15 0 0 1-.05-.1c0-.04 0-.05-.02-.03h-.02a.3.3 0 0 1 0-.13h.1Z" fill="#381B1D"/><path d="M10.14 9.94v.41c0 .03.02.04.05.02l.2-.16c.04 0 .07 0 .09-.02l.02.02c.03.02.03.03 0 .05-.13.06-.24.15-.34.26-.06.07-.09.06-.1-.03a24.38 24.38 0 0 1-.02-.6.36.36 0 0 0-.06-.09c-.03-.03-.06-.04-.1-.03-.02.01-.03.03-.02.06.09.32.11.68.06 1.06 0 .03.02.05.05.04l.03-.03c.07-.18.2-.33.4-.46.16-.1.27-.15.36-.14.04 0 .05.01.02.04l-.27.14c-.18.1-.33.23-.45.43v.03h.02l.02-.01c.25-.28.56-.49.93-.62-.04.08-.07.12-.1.13-.38.16-.69.4-.94.72a.96.96 0 0 0-.18.37c-.06.27-.15.51-.28.74a.07.07 0 0 1-.08.04.07.07 0 0 1-.06-.05l-.17-.5c-.06-.17-.12-.28-.18-.33a1.22 1.22 0 0 0-.95-.29c-.01 0-.02 0-.02-.02v-.02c0-.03 0-.04.04-.05.28-.02.53.04.76.17.1.06.12.04.04-.05a1.87 1.87 0 0 0-1.2-.63c-.14-.02-.2-.09-.18-.21l.2.03.4.03c.39.12.69.35.88.69.03.18.07.27.14.28l.28.78c.02.07.05.07.08 0 .12-.25.21-.54.29-.84.03-.17.06-.36.06-.58v-.58a.43.43 0 0 0-.05-.17.43.43 0 0 1-.04-.17c0-.02-.01-.03-.03-.03h-.02c-.03-.02-.04-.05-.02-.07.01-.03.05-.05.1-.05.06-.01.08-.05.04-.1-.11-.16-.2-.32-.26-.47a.24.24 0 0 0-.13-.13c-.17-.07-.29-.03-.35.12-.04.11-.16.35-.36.72-.04.08-.1.11-.15.08l.36-.67c.02-.02.01-.04 0-.06l-.1-.05c-.03-.02-.02-.04.02-.06l.06-.08a.9.9 0 0 1 .05-.09c.2-.25.42-.27.69-.06.02.02.07.11.14.27.02.03 0 .05-.03.06l-.04.01c-.04 0-.05.03-.04.06 0 .02.02.03.03.04.03 0 .05.03.06.05l.35.65Z" fill="#040303"/><path d="m6.75 8.7.01.3c.16.37.2.73.14 1.08l-.31-.05c0-.04-.03-.08-.08-.13a.78.78 0 0 0-.21-.18c-.03-.02-.03-.04 0-.04.06 0 .1 0 .12.02.08.08.12.06.1-.05v-.18c-.04-.22-.03-.44.02-.64.04-.01.08-.04.1-.09.06-.06.1-.08.1-.04Z" fill="#0275C5"/><path d="M9.16 11.36c-.1-.4-.18-.72-.21-1-.02-.14 0-.3.06-.48 0-.03.02-.04.04-.05l.02-.02c.04-.02.04-.03 0-.05l-.13-.08a.06.06 0 0 0-.07 0 .11.11 0 0 0-.04.13c0 .03.02.04.05.04h.03c.03 0 .03.01.02.03a.72.72 0 0 0-.06.52l.05.32c0 .04.03.1.06.17.02.07.04.13.04.19-.2-.34-.5-.57-.9-.69.02-.08.05-.12.1-.13.09.03.18.04.26.05.07 0 .12.02.14.05.06.1.08.1.06-.02 0-.09-.02-.2-.04-.34 0-.04-.03-.07-.07-.09l.02-.04c.06.03.1 0 .15-.08.2-.37.32-.6.36-.72.07-.15.18-.2.35-.12.06.03.1.07.13.13.06.15.15.3.26.46.04.06.02.1-.05.1-.04.01-.07.03-.1.06 0 .02 0 .05.03.06l.03.01c.01 0 .02.01.02.03 0 .05.01.1.04.17.03.05.04.11.04.17v.58c0 .22-.01.41-.05.58-.08.3-.17.59-.3.85-.02.06-.04.06-.07 0l-.27-.8Z" fill="#F9C34A"/><path d="M15 9.37c0 .32 0 .52-.02.6a14.16 14.16 0 0 1-.4 1.3l-1.32-.43-.12-.27c-.02-.04 0-.05.03-.03l.07.04c.03.02.04 0 .04-.03-.02-.1-.04-.16-.07-.2 0-.03-.01-.05 0-.07 0-.03.02-.05.04-.06.03-.02.03-.04 0-.06a.2.2 0 0 1-.08-.13c0-.03 0-.05.04-.05l.03-.01c.03-.01.04-.03.01-.06l-.14-.16a.03.03 0 0 1 0-.04c0-.02 0-.02.02-.03h.16c.03 0 .04-.02.04-.05l.03-.3c0-.02 0-.05-.02-.07l-.11-.2a.07.07 0 0 1 0-.07l.02-.07 1.75.45Z" fill="#F12936"/><path d="M12.26 9.53c.05-.01.08-.02.09-.01.05.02.05.05-.01.06-.03 0-.06 0-.08-.03-.02-.01-.01-.02 0-.02Z" fill="#0275C5"/><path d="M9.16 11.36c-.08 0-.12-.1-.15-.28a.44.44 0 0 0-.03-.19.65.65 0 0 1-.06-.17c0-.1-.03-.2-.05-.32a.72.72 0 0 1 .06-.52c.01-.02 0-.03-.02-.03h-.03c-.03 0-.04-.01-.05-.04-.01-.05 0-.1.04-.12a.06.06 0 0 1 .07 0l.13.07c.04.02.04.03 0 .05l-.02.02a.08.08 0 0 0-.04.05c-.06.18-.08.34-.06.48.03.28.1.6.2 1Z" fill="#381B1D"/><path d="M6.5 9.9c.06.05.09.09.1.13h-.08c-.06.03-.06.05 0 .07l.45.13.01.02v.02c0 .02-.02.03-.04.03a2.3 2.3 0 0 1-.79-.31c-.02-.02-.02-.04 0-.06l.05-.06a.06.06 0 0 1 .06-.01l.25.04ZM8.23 10.26v-.05l.14-.01.16.02c.03 0 .04-.02.03-.04L8.54 10c0-.03 0-.06.03-.09.04.02.06.05.07.09l.04.34c.02.11 0 .12-.06.02-.02-.03-.07-.04-.14-.05-.08 0-.17-.02-.25-.05Z" fill="#040303"/><path d="m10.4 10.21-.21.16c-.03.02-.04.01-.04-.02v-.41c.06.08.13.16.22.23.02 0 .03.01.02.04Z" fill="#EBECF6"/><path d="m8.54 10 .02.18c0 .02 0 .04-.03.04-.05 0-.1 0-.16-.02.01-.1.07-.16.17-.2Z" fill="#EBE3D8"/><path d="m3 10.02.68.29c.23.1.46.17.7.24l.98.28.03.02-.21.42a.3.3 0 0 0-.02.07l-.1.3a3.33 3.33 0 0 0-.24.83.53.53 0 0 0-.02.22h-.05l-.73-.22A6.25 6.25 0 0 1 3 10.02Z" fill="#F12936"/><path d="m12.05 10.03.3.18c.03.02.04.04.04.06v.04c0 .02.02.04.04.05a.4.4 0 0 1 .15.13c.03.04.01.06-.04.04l-.36-.1c-.03-.01-.03-.03-.01-.05a.16.16 0 0 1 .05-.04c.02 0 .03-.02.01-.04a.7.7 0 0 0-.23-.22l.05-.05ZM6.69 10.56l.33.13.01.01v.04c0 .03 0 .04-.02.03l-.6-.25c-.04-.02-.04-.04 0-.07l.09-.04.01-.03-.01-.03-.03-.02c-.04-.02-.03-.02.01-.02l.48.06.02.02v.02l-.03.02a.84.84 0 0 0-.27.08c-.03.02-.03.04 0 .05Z" fill="#040303"/><path d="M8.38 10.66a1.5 1.5 0 0 0-.68-.18v-.02l.02-.01c.24-.04.47.01.68.14.18.1.33.22.45.34v.02l-.01.01a3.2 3.2 0 0 0-.46-.3Z" fill="#FBB5A6"/><path d="m11.96 10.73.24.1c.03.01.03.03 0 .05h-.03a2.02 2.02 0 0 0-.58-.09c-.01 0-.02 0-.02-.02v-.03l.23-.03c.04 0 .06-.02.07-.03.02-.03.02-.04-.01-.06l-.13-.05-.01-.02v-.02c0-.02.02-.02.04-.02l.37.08c.02 0 .03.02.03.03v.05c0 .02 0 .03-.03.03a.32.32 0 0 0-.17 0c-.04 0-.04.01 0 .03ZM4.76 13.3c-.12-.04-.15-.06-.09-.07l.1-.49c.03 0 .03-.01.03-.05-.01-.06 0-.13.02-.22a3.33 3.33 0 0 1 .23-.82c.05-.13.09-.23.1-.3a.3.3 0 0 1 .03-.08l.21-.42.03-.03.1-.07a.2.2 0 0 0 .05.06c.03.02.05.01.06 0 .02-.03.06-.04.1-.05.04 0 .04.01.01.04a.53.53 0 0 1-.12.1.56.56 0 0 0-.22.2c-.02.04-.01.05.03.04l.18-.05c.02 0 .02 0 .02.02v.05a.53.53 0 0 1-.23.07.09.09 0 0 0-.06.04c-.17.25-.29.54-.35.85l-.23 1.18ZM7 10.95c.13.08.23.12.3.12.01 0 .02 0 .02.02v.03c-.07.05-.13.04-.2-.02-.05-.04-.1-.05-.17-.03H6.9l-.17-.14c-.12-.09-.1-.12.05-.11l.22.04c.03.01.04.03.02.05l-.01.02c-.02 0-.02.01 0 .02ZM11.4 10.97c.04.04.06.04.1.01-.02-.02-.05-.02-.1 0a.45.45 0 0 0-.2-.07c-.02 0-.02-.01-.02-.02v-.05a20.16 20.16 0 0 1 .75.16c.14.04.19.1.15.2 0 .02 0 .04.03.05l.06.04c.02.02.01.03 0 .02l-.67-.14h-.01v.03l.26.1c.02 0 .03.02.04.04v.05l-.03.01c-.4-.16-.8-.23-1.17-.2-.15 0-.16-.02-.02-.08.06-.02.2-.03.4 0l.1.01c.1 0 .21-.04.34-.16Z" fill="#040303"/><path d="M11.63 11.07a.9.9 0 0 1-.06-.02v-.03c.05 0 .11.01.2.06.04.02.03.03 0 .04a.1.1 0 0 1-.07-.01.98.98 0 0 0-.07-.04Z" fill="#696868"/><path d="M7.03 11.12c.27.17.56.19.86.06h.03l.05.03c.04.01.04.02 0 .03l-.51.13h-.08l-.36-.12a.04.04 0 0 1-.03-.05v-.05c0-.04 0-.05.04-.03ZM5.54 11.94c-.01-.08.02-.15.1-.2l-.01-.01c0-.02-.02-.02-.03-.01a.42.42 0 0 0-.12.16c0 .03-.02.04-.05.03a.11.11 0 0 1-.06-.02c-.02-.02-.02-.04 0-.06l.15-.19a.06.06 0 0 0 0-.07.05.05 0 0 1 0-.06l.04-.08c.1-.16.15-.24.18-.24s.05 0 .04.04c0 .03-.03.06-.07.1-.03.01-.04.03-.04.04v.03c-.01.02 0 .03.02.04l.05.02c.01.02 0 .04-.03.06a.16.16 0 0 0-.05.03c-.02.03-.01.05.01.05h.04c.04.01.04.03.02.05l-.19.29ZM11.27 12.11c.05.01.05 0 .02-.04l-.24-.28v-.02h.1c.18.26.33.45.44.58.17.22.14.24-.1.07a6.76 6.76 0 0 1-.23-.2.72.72 0 0 1-.48-.3c-.03-.04-.02-.05.02-.04l.06.02a.1.1 0 0 1 .04.03c.06.08.13.11.19.1.03 0 .05 0 .07.03.02.03.05.05.11.05ZM7.36 12.06a.58.58 0 0 0-.2.12h-.03l-.02-.01c-.02 0-.02-.02 0-.03l.35-.26c.02-.02.05-.02.07 0l.02.02v.06l-.07.06a.04.04 0 0 0-.02.05l.02.04c.01.02.03.02.05 0l.05-.04h.02c.01 0 .02.01.02.03l-.06.24.01.02h.02l.63-.5h.04l.03.01v.02l-.69.55c-.06.06-.17.2-.3.4l-.04.02-.05-.01c-.02 0-.02-.01-.01-.03l.22-.3a.09.09 0 0 0 .02-.08c-.02-.07 0-.14.08-.2.02-.02.02-.03 0-.04l-.03-.01h-.02a.33.33 0 0 1-.17.1c-.03 0-.04-.01-.03-.05l.12-.15c.03-.03.02-.04-.03-.03Z" fill="#040303"/><path d="m5.54 11.94.04.07c.01.02.02.04 0 .07a.12.12 0 0 1-.06.07.02.02 0 0 0-.01.02v.03l.16-.05.03.01v.02a.63.63 0 0 0-.3.39l-.05.04c-.03 0-.05-.01-.06-.03-.02-.03 0-.05.04-.08a.08.08 0 0 0 .04-.05l.03-.16c0-.02 0-.03-.02-.03h-.03c-.03-.01-.04-.03-.02-.05l.14-.24.03-.03h.04ZM10.57 12.7c-.01.02 0 .04 0 .07.02.03 0 .04-.02.05h-.03a.07.07 0 0 1-.05-.04.64.64 0 0 0-.21-.3c-.03-.01-.03-.03 0-.04.04-.02.08 0 .12.03.02.02.04.03.07.02a.23.23 0 0 0 .08-.05c.03-.02.03-.05 0-.07l-.02-.02a.1.1 0 0 1-.03-.07c0-.08-.01-.13-.06-.16a.03.03 0 0 1-.01-.03c0-.01 0-.02.02-.03.05-.02.08 0 .1.04l.14.48c.02.1.08.2.16.32.1.14.18.29.2.45l.05.07.11.1c.06.04.07.1.02.17h-.04c-.03 0-.05 0-.06-.03l-.1-.25-.04-.03c-.02-.02-.03-.05-.03-.08l-.01-.07-.32-.54c-.01-.03-.03-.03-.04 0Z" fill="#040303"/><path d="m13.57 12.83-.03.01c-.07-.05-.13-.08-.19-.08-.05 0-.06.02-.01.05l.19.13-.18.23c-.14-.19-.23-.4-.26-.64 0-.03.01-.05.04-.05.02 0 .03-.02.02-.04-.04-.06-.04-.11 0-.15.01-.03.04-.03.06 0l.34.33v.03l-.04.02c-.03.02-.03.03-.01.06l.07.1Z" fill="#EBE3D8"/><path d="m8.43 12.93.37-.64c0-.01.02-.02.03 0h.02c.01 0 .02.01.01.02-.25.44-.41.9-.49 1.4 0 .01-.01.02-.03.02H8.3c-.03-.01-.03-.03-.03-.05l.2-.62-.02-.04a.03.03 0 0 0-.03-.01c-.01 0-.02 0-.03.02l-.12.28c0 .02-.02.02-.03.02l-.05-.02v-.02a3.73 3.73 0 0 0 .1-.39c.01-.07.05-.13.1-.18l.01-.01v-.04c0-.01-.02-.02-.03 0-.1.08-.17.17-.22.26l-.06.06-.05.03c-.04.02-.05 0-.02-.03l.25-.38c.16-.24.21-.22.16.06l-.04.25c0 .05 0 .06.03 0ZM5.65 12.5l-.09.03c-.02.01-.04 0-.04-.02-.01-.05 0-.08.02-.11.02-.02.09-.02.2 0 .03 0 .05.03.04.06 0 .02.01.02.03.02l.12-.04c.06-.03.06-.01.02.03a1.97 1.97 0 0 0-.37.51c-.03.02-.05 0-.06-.03-.01-.03 0-.05.01-.07.08-.06.1-.14.05-.22 0-.02 0-.04.02-.06a.43.43 0 0 0 .08-.08c.02-.03.02-.04-.03-.02ZM10.17 12.93h-.03c-.03.01-.04.03-.02.05.12.2.17.43.15.68 0 .02-.02.03-.04.02h-.03c-.02 0-.03-.02-.03-.03 0-.2-.04-.37-.11-.51-.04-.1-.12-.14-.22-.12-.03 0-.05-.01-.05-.04a.5.5 0 0 0-.09-.3.04.04 0 0 1 0-.04c.01-.02.02-.04.04-.04.03 0 .05 0 .05.03.01.06.03.11.06.15.04.07.07.07.1-.02v-.08c0-.03 0-.03.03-.03H10c.02.01.02.02.02.04l-.02.2c0 .04.02.05.05.01.06-.06.06-.13.02-.22 0-.02 0-.03.02-.03h.02l.02.01c.03.1.04.18.03.27ZM9.06 13.46c-.07-.07-.08-.15-.04-.25.01-.02 0-.04-.03-.05a.26.26 0 0 0-.1 0c-.02 0-.04-.02-.03-.05v-.22c0-.07.03-.08.07-.03.06.06.11.09.16.08.03 0 .05-.01.05-.04l.03-.14c.01-.03.03-.05.06-.06h.03c.03-.01.05 0 .04.03L9 14.02c0 .02-.02.03-.04.02h-.02c-.03 0-.04-.02-.02-.05.05-.1.08-.22.08-.34l.01-.04.05-.08c.01-.03.01-.05 0-.07ZM12.91 13.6c-.05.12-.15.18-.3.18a22.8 22.8 0 0 1-.52-.5 1.25 1.25 0 0 1-.32-.55c0-.02 0-.03.02-.03h.02c.03 0 .04 0 .05.03.04.13.09.22.13.27.2.25.42.49.66.71.03.02.06.03.09 0l.17-.1Z" fill="#040303"/><path d="M5.92 12.78h.03c.02 0 .02 0 .02.02.01.05 0 .08-.04.1-.04.01-.05 0-.04-.03 0-.04.01-.07.03-.09Z" fill="#381B1D"/><path d="m13.07 12.78.03-.02c.02 0 .02.02.02.06 0 .02 0 .02-.02.03-.01 0-.02 0-.03-.02v-.05Z" fill="#EBE3D8"/><path d="M13.54 12.84c.02.01.03.02.03.04.01.01 0 .03-.01.04l-.03.02-.2-.13c-.04-.03-.03-.04.02-.05.06 0 .12.03.2.08ZM9.45 12.89v-.03c0-.02 0-.03.03-.03l.17-.01c.04 0 .06.02.05.05-.01.13-.1.19-.28.17-.02 0-.03-.01-.02-.03 0-.03.01-.05.03-.07a.07.07 0 0 0 .02-.05Z" fill="#040303"/><path d="m6.48 14.46-.63-.34c.09-.12.19-.21.3-.26a.1.1 0 0 0 .06-.05c.04-.08.1-.14.17-.17.07-.04.09-.02.04.05a.83.83 0 0 1-.09.09c-.02.02-.02.03.02.03.05 0 .1-.04.17-.11a.45.45 0 0 1 .06-.06c.02-.02.04-.02.06-.01l.01.02v.02l-.07.12v.06l.06.03.04-.02c.2-.18.4-.43.58-.73a.1.1 0 0 1 .06-.04c.04-.01.04 0 .02.03-.01.03-.02.05 0 .08.02.09.06.09.11 0l.17-.3c.01-.02.03-.02.05-.02l.04.01v.02l-.41.7c-.01.03-.04.04-.06.03H7.2c-.01 0-.02-.01 0-.03l.05-.14c.01-.03 0-.06-.03-.08-.03-.01-.06 0-.08.03l-.66 1.04Z" fill="#381B1D"/><path d="M6.05 13.2a.21.21 0 0 0-.08.09 2.29 2.29 0 0 1-.25.43H5.7c-.02-.01-.02-.02-.01-.04l.23-.56c.01-.03.04-.04.07-.03.07.01.13-.03.18-.13l.06-.04h.03c.02 0 .03.01.02.03a.9.9 0 0 1-.22.24Z" fill="#040303"/><path d="M9.03 13.03a.17.17 0 0 1 .09-.02c.03 0 .03.01.01.03-.03.03-.07.04-.1.02-.02-.01-.02-.02 0-.03Z" fill="#696868"/><path d="M4.91 13.45a.17.17 0 0 1-.05-.02l-.01-.02v-.03c.08-.1.14-.17.19-.21.14-.14.16-.12.07.05-.02.05-.09.13-.2.23ZM11.76 14.36h.02c.02.01.02.02 0 .03a.61.61 0 0 1-.24.08.1.1 0 0 0-.07.03c-.08.09-.18.12-.29.1l-.07.01-.29.1c.1-.15.16-.3.2-.44 0-.02 0-.04.02-.06.1-.12.15-.23.13-.32 0-.04 0-.06.04-.07h.03c.03-.01.04 0 .04.03-.03.15-.09.28-.16.41-.05.08-.07.13-.06.17.01.05.04.1.08.14.02.02.04.03.07.02.1-.03.17-.07.22-.1.02-.02.03-.04.02-.06a21.42 21.42 0 0 0-.07-.85c0-.09-.04-.13-.11-.12a.1.1 0 0 1-.07-.02c-.07-.05-.1-.1-.1-.17 0-.01 0-.03.02-.03h.03c.21.12.35.3.41.53 0 .02 0 .03-.03.03h-.04l.03.6c0 .03.02.04.05.03l.19-.07ZM12.36 13.98l-.44.26c-.02.01-.04 0-.04-.03a.36.36 0 0 0-.08-.2l.12-.06a.06.06 0 0 0 .04-.06l-.03-.4a.1.1 0 0 0-.02-.06l-.03-.07c0-.02.02-.03.05-.03.03.02.06.05.07.1.05.17.07.33.08.47 0 .03.02.04.04.03.1-.01.18 0 .24.05ZM5.3 13.75l-.1-.05c-.03-.01-.04-.03-.04-.06l.02-.03c.01-.07.04-.1.08-.11.03 0 .05 0 .06.04.02.06.01.13-.01.2ZM6.81 14.58a.43.43 0 0 1-.3-.02c-.02 0-.02-.02 0-.03h.02c.11.05.21.02.3-.08.24-.25.47-.5.68-.77a.07.07 0 0 1 .07-.03c.05 0 .08.03.09.08 0 .03 0 .05-.04.05a.27.27 0 0 0-.18.1c-.18.26-.4.49-.64.7ZM10.47 14.1a.74.74 0 0 0-.23.33.1.1 0 0 1-.09.07.1.1 0 0 1-.1-.04l-.4-.45c-.04-.04-.06-.03-.08 0-.17.3-.3.63-.4.97-.06.03-.12.03-.17-.02l.57-1.2c.01-.02.04-.04.07-.03.03 0 .04.02.05.05v.07l.08.1.37.49c0 .01.02 0 .04-.06l.1-.3a.1.1 0 0 1 .08-.07c.1-.03.13 0 .11.1Z" fill="#040303"/><path d="M10.47 14.1c.04.07.1.1.19.09.03 0 .04 0 .04.03l-.01.48a.11.11 0 0 0-.04.04.08.08 0 0 1-.06.04l-.84.18c-.15.03-.34.04-.58.02.1-.34.23-.66.4-.97.02-.03.04-.04.07 0l.4.45a.1.1 0 0 0 .11.04.1.1 0 0 0 .09-.07.74.74 0 0 1 .23-.33Z" fill="#381B1D"/><path d="M8.85 14.74a.17.17 0 0 1-.06.04c-.02.01-.04 0-.06-.02a.6.6 0 0 1-.14-.34.06.06 0 0 0-.04-.06c-.07-.02-.12 0-.15.05-.1.2-.22.38-.35.53-.04 0-.09 0-.14-.02v-.01c.07-.1.15-.2.25-.3a.6.6 0 0 0 .1-.16l.1-.17a.09.09 0 0 1 .07-.04c.07 0 .1-.04.1-.1.01-.03.03-.04.06-.04a.1.1 0 0 1 .06.02l.02.05c.01.12.04.24.07.35.01.03.02.05.05.06.05.03.07.08.06.16Z" fill="#040303"/><path d="m8.85 14.73.05.2a1.5 1.5 0 0 1-.85 0c.13-.14.24-.31.35-.52.03-.06.08-.07.15-.05.02.01.04.03.04.06 0 .12.05.24.14.34.02.02.04.03.06.02.02 0 .04-.02.06-.04Z" fill="#381B1D"/><path d="m7.31 14.6-.03.17c-.1-.02-.17-.05-.2-.09a.71.71 0 0 0 .09-.1c.05-.07.1-.11.14-.13.03 0 .04 0 .04.03a.3.3 0 0 1-.04.12Z" fill="#040303"/><path d="M7.31 14.6v.13c.01.03.03.04.06.05l.53.13.01.01c-.27.04-.48-.01-.63-.15l.03-.17Z" fill="#381B1D"/></svg>