<!-- by TradingView --><svg width="18" height="18" viewBox="0 0 18 19" xmlns="http://www.w3.org/2000/svg"><path fill="#181B1E" d="M0 .33h18v18H0z"/><path d="M8.88 3.46a7.09 7.09 0 0 1-.25 0l-.02.03c-.02.03 0 .05.03.07l.75.3c.35.18.71.32 1.1.43.36.1.6.62.76.83.14.2.2.36.2.5l.02.55c0 .04-.02.07-.06.08a.37.37 0 0 1-.26-.04l-.26-.44.28.27c.14.13.21.1.21-.08v-.52a.11.11 0 0 0-.04-.1c-.29-.24-.55-.7-1-.9-.5-.23-.92-.41-1.28-.55-.79-.3-1.46-.27-2.01.41-.1.13-.13.11-.1-.04l.13-.48 1.28-.45h.07l.45.13Z" fill="#72362E"/><path d="M8.88 3.46c.18 0 .34.01.49.1.24.14.48.08.74.19.1.04.27.1.5.15a3 3 0 0 1 .65.49.4.4 0 0 1 .13.21l.06.25c.02.12.16.3.25.37.03.04.09.07.16.08.1.03.2.08.3.15.03.03.04.06.03.1-.02.06 0 .11.03.15.03.03.04.06 0 .09-.04.05-.11.08-.22.08l-.04.01a.08.08 0 0 0-.03.03.07.07 0 0 0 0 .07.5.5 0 0 1 .03.4l-.13.36c-.09.48-.14.83-.16 1.04-.02.18-.11.32-.2.46a.03.03 0 0 0 0 .03v.02h.04c0 .01 0 .02-.02.03-.01.02-.02.02-.04 0-.03-.03-.04-.1-.05-.18l-.05-.72c.14.3.2.2.18-.3l-.07-.3a.41.41 0 0 1 .08-.38.17.17 0 0 0 .03-.1l.03-.68a.57.57 0 0 0-.06-.32.63.63 0 0 0-.28-.26c-.05-.02-.07-.05-.06-.1l.01-.18c0-.03 0-.07-.03-.1-.09-.11-.13-.19-.13-.23-.01-.14-.09-.23-.24-.27-.21-.05-.42-.13-.63-.23a.95.95 0 0 0-.38-.1l-.41-.01-.75-.3c-.04-.02-.05-.04-.03-.07l.02-.02.04-.01h.21Z" fill="#B5815E"/><path d="M6.94 3.73c-.37.44-.56.91-.57 1.43 0 .04-.01.06-.05.07a1 1 0 0 1-.4.01c-.06-.01-.13.02-.22.09-.03.02-.04.02-.04-.02s.03-.06.07-.07a3.4 3.4 0 0 0 .43-.2.12.12 0 0 0 .02-.04c.06-.24.04-.48.29-.67a.2.2 0 0 0 .06-.08c.09-.23.22-.43.39-.6a.14.14 0 0 1 .07-.05c.03-.01.04 0 .03.03a.24.24 0 0 1-.08.1Z" fill="#A85545"/><path d="m10.9 5.77-.16-.16a.53.53 0 0 0-.36-.11c-.48.03-.88.02-1.19-.02.71-.08 1.36-.09 1.84.29.2.15.25.11.16-.11-.1-.25-.24-.49-.43-.72a1.27 1.27 0 0 0-1.09-.5c-.03 0-.06 0-.09-.03a3.4 3.4 0 0 0-.8-.41 1.42 1.42 0 0 0-1.7.43c-.33.37-.52.84-1.27 1 .08-.05.12-.1.11-.19a1 1 0 0 0 .4-.01c.04-.01.05-.03.05-.07.01-.52.2-1 .57-1.43l.01.07H7c.03-.02.06-.03.08-.02l-.13.48c-.03.15 0 .17.1.04.55-.68 1.22-.71 2.01-.41.36.14.78.32 1.28.54.45.2.71.67 1 .92.03.02.04.05.04.09v.52c0 .19-.07.21-.2.08l-.29-.27Z" fill="#45241D"/><path d="m9.2 5.48-.98-.16c-.01-.04-.06-.07-.12-.08l.91.11c.03 0 .07 0 .1-.02.26-.18.29-.4.07-.67a.96.96 0 0 0-.27-.26 8.91 8.91 0 0 1-.55-.3.56.56 0 0 0-.48-.09c-.67.2-.99.57-.95 1.13-.3.2-.49.46-.58.75a28.09 28.09 0 0 0-.42 1.7l-.04.08-.39-.77-.04-.23c-.03-.14-.06-.14-.09 0l-.06.28c-.1-.63.06-1.14.5-1.52.75-.16.94-.63 1.26-1A1.42 1.42 0 0 1 8.8 4c.32.12.58.26.79.41.03.02.06.03.1.03.44-.02.8.15 1.08.5.2.23.34.47.43.72.09.22.03.26-.16.1-.48-.37-1.13-.36-1.84-.28Z" fill="#331C17"/><path d="M8.1 5.24a1.8 1.8 0 0 0-1.17-.1c-.04-.56.28-.94.95-1.13a.56.56 0 0 1 .48.09c.09.06.27.16.55.3.08.05.17.13.27.26.22.27.2.5-.07.67a.14.14 0 0 1-.1.02l-.91-.11Z" fill="#150D0B"/><path d="M11.35 7.42a1.96 1.96 0 0 1-.12-.72l-.08-.49c.09.05.18.06.26.04.04-.01.06-.04.06-.08l-.01-.54a.89.89 0 0 0-.2-.5c-.17-.22-.41-.75-.78-.84-.38-.1-.74-.25-1.09-.43l.41.01c.13 0 .26.04.38.1.21.1.42.18.63.23.15.04.23.13.24.27 0 .04.04.12.13.23.03.03.04.07.03.1l-.01.18c0 .05.01.08.06.1.11.05.2.13.28.26.05.07.07.18.06.32l-.03.68c0 .04 0 .07-.03.1a.41.41 0 0 0-.08.37l.07.32c.02.48-.04.58-.18.29Z" fill="#8B523A"/><path d="M8.1 5.24c.06.01.1.04.12.08l-.6-.15a.73.73 0 0 0-.4.04c-.1.03-.17.12-.22.26-.16.49-.12 1 .11 1.54.02.03.05.05.09.04l.4-.07h.04l.03.06a.04.04 0 0 1 0 .04l-.02.01-.41.12c-.12.05-.24.1-.35.18-.13.08-.18.23-.14.46a.33.33 0 0 1-.15.34l-.13.08c-.11.08-.17.05-.17-.08 0-.37-.02-.72-.08-1.03-.03-.15-.08-.16-.14-.02a.74.74 0 0 0-.05.21.59.59 0 0 1-.1.19c.2-.89.35-1.44.42-1.65.1-.3.29-.54.58-.75.43-.1.81-.07 1.17.1Z" fill="#72362E"/><path d="m8.22 5.32.97.16c.3.04.7.05 1.19.02.13-.01.25.03.36.1l-1.97-.07-.6-.14-.65-.13a.3.3 0 0 0-.25.06.28.28 0 0 0-.1.23c.01.4.21.77.6 1.1l.35.29c.09.08.16.17.21.26a.9.9 0 0 1 0 .94.14.14 0 0 0-.05-.07c-.02-.02-.04-.02-.06 0L7.9 7.6a.18.18 0 0 0-.08-.06.19.19 0 0 0-.1-.01l-.68.12c-.06.01-.1-.05-.08-.1.07-.12.16-.23.28-.33l.41-.12c.03 0 .04-.03.02-.05l-.03-.05a.03.03 0 0 0-.04-.01l-.4.07c-.04 0-.07 0-.09-.04A2.08 2.08 0 0 1 7 5.47c.05-.14.12-.23.22-.26a.73.73 0 0 1 .4-.04l.6.15Z" fill="#A85545"/><path d="M8.16 5.4c-.37.14-.48.39-.33.75.16.36.78.58.87 1.1.04.22.04.5 0 .82-.04.36.08.7.36 1.02a.1.1 0 0 1-.05 0c-.29-.06-.46-.2-.5-.43l-.02-.03-.04-.02a.07.07 0 0 0-.06.02c-.12.14-.22.31-.27.52a.14.14 0 0 0 .02.12.15.15 0 0 0 .11.06c.28.03.55 0 .83-.1.05.02.1.03.17.03l-.73.21a.1.1 0 0 0-.05.03.09.09 0 0 0-.02.1l.04.03.28.19a.66.66 0 0 1-.26-.05 2.3 2.3 0 0 0-1.02-.16.1.1 0 0 1-.1-.04l-.46-.62a.1.1 0 0 1-.02-.1.75.75 0 0 1 .25-.34c.03-.03.04-.05.02-.06l-.1-.08c-.15-.12-.14-.18.04-.18l.52-.02.04.02c.01.24-.1.4-.35.47a.11.11 0 0 0-.05.02.1.1 0 0 0-.03.09v.04l.21.38c.04.07.09.11.13.13.07.02.14.03.2.01.06-.01.12-.07.16-.18.16-.32.28-.66.38-1.01a.9.9 0 0 0 0-.94.95.95 0 0 0-.21-.26l-.36-.3a1.5 1.5 0 0 1-.6-1.1.27.27 0 0 1 .1-.22.3.3 0 0 1 .26-.06l.64.13Z" fill="#C37058"/><path d="m8.16 5.4.6.13c.17 0 .32.01.44.06.1.04.1.06-.01.05l-.86-.07c-.04 0-.05.01-.04.04.25 1.2 1.75.7 2.19 1.36.2.32.35.69.4 1.1.01.04 0 .06-.02.09a.12.12 0 0 1-.07.04l-.71.14c-.2.03-.2.07 0 .1l.2.04c.02 0 .03.02.03.05v.04c0 .03-.02.05-.05.05-.44 0-.74-.18-.91-.55-.1-.08-.2-.17-.28-.27-.07-.1-.15-.07-.25.06a.25.25 0 0 0-.05.17l.03.44c0 .04.02.07.05.09l.46.32c.05.02.08.06.1.1a.26.26 0 0 1-.03.29.29.29 0 0 1-.13.08c-.1.05-.22.12-.34.23a.07.07 0 0 0-.02.08l.02.03.04.01.42.04c.04 0 .07-.01.09-.04.17-.27.45-.4.84-.38.36.02.6.2.7.53 0 .06-.01.12-.06.17-.32-.38-.72-.5-1.22-.36a.13.13 0 0 0-.08.07.21.21 0 0 0-.02.12c-.16.04-.34.04-.54.01 0 .02-.02.02-.08 0l-.23-.04-.28-.19a.09.09 0 0 1-.03-.04.09.09 0 0 1 .01-.1.1.1 0 0 1 .05-.02l.73-.2c0-.12-.06-.18-.2-.18-.27-.32-.4-.66-.35-1.02.04-.32.04-.6 0-.83-.1-.51-.7-.73-.87-1.1-.15-.35-.04-.6.33-.75Z" fill="#D98E6D"/><path d="m10.74 5.6.15.17.26.44.08.49a2.8 2.8 0 0 1-.12-.37.5.5 0 0 0-.2-.28l-.16-.09a.12.12 0 0 0-.14.01.11.11 0 0 0-.04.06 6.86 6.86 0 0 1 .37 1.74c.05.44-.06.84 0 1.28.02.25.06.5.1.74l-.32-.76a.1.1 0 0 0-.06-.06.11.11 0 0 0-.08 0c-.84.4-1.31-.28-1.75-.83a.15.15 0 0 1-.03-.09V8a.18.18 0 0 1 .25.03c.03.03.04.06.05.09 0 .02.01.03.03.05.03.02.05.01.07-.02.04-.07.08-.1.15-.08.17.37.47.55.9.55.04 0 .05-.02.06-.05v-.04c0-.03 0-.04-.03-.05l-.2-.03c-.2-.04-.2-.08 0-.11l.7-.13c.04-.01.07-.03.08-.05a.11.11 0 0 0 .03-.08c-.06-.42-.2-.79-.41-1.1-.44-.66-1.94-.17-2.2-1.37 0-.03.01-.05.05-.04l.86.07c.1 0 .1 0 0-.05a1.07 1.07 0 0 0-.42-.06l1.97.08Z" fill="#E7AB8C"/><path d="M10.9 6.05c-.04.2-.05.34-.04.4a9.03 9.03 0 0 1 .25 2.65c.01.1.05.13.1.1-.01.2.02.35.1.45l-.43.67c-.03-.06-.01-.16.06-.3a.29.29 0 0 0 .07-.17l.02-.06-.1-.74c-.05-.44.06-.84.01-1.28a6.86 6.86 0 0 0-.37-1.74c0-.03.02-.05.04-.06a.12.12 0 0 1 .14-.01l.16.1Z" fill="#F9D6B8"/><path d="M10.9 6.05c.1.08.17.16.2.28l.13.37c0 .25.03.49.12.72l.05.72-.2 1.07c-.04.02-.08-.02-.1-.11a9.02 9.02 0 0 0-.24-2.65c-.01-.06 0-.2.05-.4Z" fill="#FDF4E1"/><path d="M5.5 6.9c-.03.13.01.3.13.51.08.16.09.35.01.57 0 .03-.02.03-.04.02-.02 0-.03-.02-.02-.03L5.3 6.95l.06-.28c.03-.14.06-.14.09 0l.04.23Z" fill="#E29655"/><path d="M5.9 7.67c-.06.25-.08.43-.06.52.03.26.15.8.35 1.63-.08.1-.18.09-.3-.03.03-.2.02-.34-.05-.42-.16.02-.25-.02-.27-.1a10.2 10.2 0 0 1-.12-.9c-.01-.1-.04-.15-.09-.17-.06-.03-.14-.01-.23.05-.01-.1.01-.17.08-.23.1-.08.2-.04.3 0a.05.05 0 0 0 .05-.01.1.1 0 0 0 .02-.04c0 .01 0 .02.02.03.02.01.03 0 .04-.02.08-.22.07-.41-.01-.57-.12-.2-.16-.38-.13-.51l.4.77Z" fill="#8B201C"/><path d="M7.24 7.2c-.12.11-.2.22-.28.35a.07.07 0 0 0 .01.07l.03.02h.04l.68-.12.1.01.08.06.32.48c-.01.05-.04.07-.07.08-.04.02-.06 0-.08-.03a.46.46 0 0 0-.2-.26c-.25-.4-.54-.38-.87.04-.02.02-.02.05 0 .07a.1.1 0 0 0 .05.03c.03 0 .06 0 .08-.03l.05-.07c.05-.06.08-.05.1.02.01.06.02.12 0 .19l-.58.13c-.04.01-.05.04-.05.08.04.35.09.58.15.68l.53.94c.13.24.28.42.45.55.57.42 1.22.62 1.98.6-.22.1-.44.14-.68.16-.64-.06-1-.37-1.55-.8a1.44 1.44 0 0 1-.39-.5 3.88 3.88 0 0 0-.43-.68c-.1-.12-.15-.1-.17.04-.04.41 0 .83.13 1.25.01.03 0 .05-.02.07a.14.14 0 0 0-.04.08c-.06.07-.11.12-.18.13-.03-.01-.06-.03-.07-.06l.16-.27a.11.11 0 0 0-.02-.13.72.72 0 0 1-.2-.33c.05-.03.06-.1.04-.17.05-.37.05-.67.03-.9-.05-.4-.17-.94-.34-1.63l.05-.2c.06-.15.1-.14.14 0 .06.32.09.67.08 1.04 0 .13.06.16.17.08l.13-.08c.12-.09.17-.2.15-.34-.04-.23.01-.38.14-.46.11-.07.23-.13.35-.18Z" fill="#8D3F32"/><path d="M6.34 9.88a13.65 13.65 0 0 0-.4-2.34l.1-.19c.16.69.28 1.23.33 1.64.02.22.02.52-.03.89Z" fill="#C76447"/><path d="M6.34 9.88c.02.08 0 .14-.04.17l-.11-.23c-.2-.83-.32-1.37-.35-1.63-.02-.1 0-.27.05-.52l.04-.08c.2.75.34 1.52.41 2.29Z" fill="#E29655"/><path d="M7.86 7.86v.25c0 .04-.02.06-.06.07l-.12.01-.04-.02c-.2.02-.3 0-.35-.06l-.01-.2c-.02-.06-.05-.07-.1 0l-.05.06c-.02.03-.05.04-.08.03A.1.1 0 0 1 7 7.97c-.02-.02-.02-.05 0-.07.33-.42.62-.43.86-.04Z" fill="#331C17"/><path d="M9.35 8.07c-.07-.01-.11.01-.15.08-.02.03-.04.04-.07.02-.02-.02-.03-.03-.03-.05a.17.17 0 0 0-.04-.09.18.18 0 0 0-.17-.06.18.18 0 0 0-.08.03v.05c0 .04 0 .07.02.1.44.54.91 1.22 1.75.82a.11.11 0 0 1 .12.02.1.1 0 0 1 .03.04l.3.76-.02.06c-.11-.34-.35-.51-.71-.53-.39-.02-.67.1-.84.38a.09.09 0 0 1-.09.04l-.42-.04-.04-.01a.07.07 0 0 1-.02-.03.07.07 0 0 1 .02-.08c.12-.1.23-.18.34-.23a.29.29 0 0 0 .13-.08.27.27 0 0 0 .03-.28.28.28 0 0 0-.1-.11l-.46-.32a.11.11 0 0 1-.05-.09l-.03-.44c0-.06.01-.12.05-.17.1-.13.18-.15.25-.06.08.1.17.19.28.27ZM8.22 8.07c.02-.02.04-.02.06 0 .03.01.04.04.05.07-.1.35-.22.69-.38 1.01-.04.1-.1.17-.16.18a.36.36 0 0 1-.2-.01c-.04-.02-.09-.06-.13-.13a9.54 9.54 0 0 1-.22-.42.1.1 0 0 1 .04-.09.11.11 0 0 1 .05-.02c.25-.07.36-.23.35-.47l.12-.01c.04 0 .06-.03.06-.07v-.25c.1.05.17.14.21.26.02.03.04.04.08.03.03 0 .06-.03.07-.08Z" fill="#E69C7C"/><path d="M7.29 8.1c.04.07.16.1.35.07l-.52.02c-.18 0-.19.06-.04.18l.1.08c.02.01 0 .03-.02.06-.12.1-.2.2-.25.33a.1.1 0 0 0 .02.1l.47.63a.1.1 0 0 0 .09.04c.36-.02.7.03 1.02.16l-.75-.07h-.07a.12.12 0 0 0-.05.05.11.11 0 0 0 0 .13c.32.41.73.55 1.23.4.06-.02.06-.03 0-.04l-.3-.05-.02-.04v-.03l.05-.02.72-.02c.03 0 .05-.01.05-.04V10a.07.07 0 0 0-.06-.06l-.18-.04a.11.11 0 0 1-.05-.05c.2.03.38.03.54-.01.19-.01.35.03.5.13.04.02.04.05.03.09-.02.04-.06.06-.11.06-.06 0-.18-.03-.36-.1a.16.16 0 0 0-.11 0c-.1.04-.23.1-.39.19-.23.11-.53.2-.92.25-.02 0-.02.01 0 .03l.2.27c.02.03.05.05.09.05.4.06.69.07.86.03.33-.08.78-.27 1.25-.2v.04c-.1-.02-.17.03-.2.16l-.01.84-.02-.72c.03-.05.03-.1 0-.14-.01-.05-.05-.06-.1-.03l-.2.15a.27.27 0 0 0-.07.07l-.12.19c-.03-.1-.1-.14-.18-.12a3.11 3.11 0 0 1-1.98-.6 1.7 1.7 0 0 1-.45-.55L6.8 9a2.2 2.2 0 0 1-.15-.68c0-.04.01-.07.05-.08l.59-.13Z" fill="#A85545"/><path d="M11.51 8.3a.32.32 0 0 1 .18-.07c.1 0 .15.05.15.16-.15.02-.25.07-.32.16-.02.04-.02.07.01.1l.24.2c-.09.3-.24.56-.46.8a.72.72 0 0 1-.1-.44l.19-1.07c0 .09.02.15.05.18.02.02.03.02.04 0l.02-.02Z" fill="#E29655"/><path d="M5.84 9.37c-.07.1-.1.18-.08.28-.42-.4-.63-.87-.63-1.4.1-.06.17-.08.23-.05.05.02.08.08.09.17.05.47.1.77.12.9.02.08.11.12.27.1Z" fill="#BE231E"/><path d="M11.84 8.39c.01.14-.01.3-.07.47l-.24-.22c-.03-.02-.03-.05 0-.09.06-.09.16-.14.3-.16Z" fill="#C76447"/><path d="M9 9.1 9 9.13c-.01.03 0 .06.03.07l.06.03c-.28.1-.55.13-.83.1a.16.16 0 0 1-.11-.06.14.14 0 0 1-.02-.12c.05-.2.14-.38.27-.52l.03-.01a.07.07 0 0 1 .06.01l.02.03c.05.22.22.37.5.44Z" fill="#A85545"/><path d="M9.08 11.25c-.73.06-1.31-.19-1.96-.38-.24-.18-.41-.24-.51-.16 0-.04.02-.06.04-.08a.06.06 0 0 0 .02-.07 3.16 3.16 0 0 1-.13-1.25c.02-.15.07-.16.17-.04.16.2.31.44.43.68.1.21.24.38.4.5.54.43.9.74 1.54.8Z" fill="#63271F"/><path d="M5.89 9.8a.35.35 0 0 1-.13-.15.37.37 0 0 1 .08-.28c.07.08.08.22.05.42Z" fill="#E29655"/><path d="M10.94 10.02c-.07.14-.09.24-.06.3a.48.48 0 0 0-.13.26.08.08 0 0 0-.03-.02l-.03.01c-.02.02-.03.04-.03.07-.47-.06-.92.13-1.25.2-.17.05-.46.04-.86-.01a.13.13 0 0 1-.1-.06l-.2-.27c-.01-.02 0-.03.01-.03.39-.05.7-.14.92-.25.16-.09.3-.15.39-.18a.16.16 0 0 1 .1 0c.2.06.31.09.37.09.05 0 .09-.02.1-.06.02-.04.02-.07-.02-.09a.81.81 0 0 0-.5-.13c0-.04 0-.08.02-.12l.04-.04a.13.13 0 0 1 .04-.03c.5-.14.9-.02 1.22.36Z" fill="#C76447"/><path d="M8.5 9.77c.08.03.17.05.27.05l.23.03a3.06 3.06 0 0 1-1.22-.1l-.02.02a.04.04 0 0 0 0 .04l.08.1a.2.2 0 0 0 .1.08c.4.08.8.09 1.19 0 .03 0 .04-.02.03-.04a.09.09 0 0 0-.03-.04l.18.04c.03 0 .05.02.06.06v.03c0 .03-.02.04-.05.04a12.42 12.42 0 0 0-.76.04l-.01.03c0 .02.01.03.03.04l.29.05c.06.01.06.02 0 .04-.5.15-.91.01-1.22-.4a.11.11 0 0 1 .04-.17.12.12 0 0 1 .07-.01l.75.07Z" fill="#72362E"/><path d="M10.75 10.58c.3.3.58.62 1 .78.3.1.58.25.82.41.23.15.3.36.23.62a.1.1 0 0 0 .02.1c.08.1.18.2.25.34.12.26.21.49.39.73.21.3.39.61.52.95v.1l-.03.01h-.02a.05.05 0 0 1-.04-.02c-.05-.15-.15-.3-.32-.33a6.12 6.12 0 0 0-.17-.04c.26-.06.32-.13.19-.21a1.06 1.06 0 0 0-.23-.4c-.13-.14-.2-.25-.25-.34l-.2-.45a.2.2 0 0 0-.06-.08.72.72 0 0 1-.09-.07c-.03-.02-.04-.08-.05-.16 0-.1-.02-.2-.05-.3a.62.62 0 0 0-.13-.3c-.01-.01-.02 0-.03.01l-.01.03c-.07.03-.12.03-.15 0-.1-.14-.24-.25-.4-.32a2.9 2.9 0 0 1-.4-.18c-.12-.1-.23-.18-.33-.24-.22-.13-.34-.29-.5-.47l-.04-.06-.01-.05c0-.03.01-.05.03-.07h.06Z" fill="#E9CEC5"/><path d="m10.67 10.7.04.05c.04.16.1.3.19.43.07.1.2.2.36.28.43.19.82.43 1.18.73-.23.14-.45.31-.69.5a1.2 1.2 0 0 1-.41.25c-.38.09-.6-.3-.73-.61a.71.71 0 0 1-.02-.45 4.56 4.56 0 0 0 .09-1.08.1.1 0 0 0-.05-.04.1.1 0 0 0-.11.03l-.06.06c.03-.13.1-.18.2-.16Z" fill="#342B31"/><path d="M7.7 11.92c-.04-.45-.23-.8-.58-1.05-.24-.18-.41-.24-.51-.16-.06.07-.11.12-.18.13l-.32.3a.25.25 0 0 1-.1.05c-.5.14-.94.36-1.3.65-.1.09-.16.18-.15.3 0 .03 0 .07.03.1.02.03.03.06.03.1.01.04 0 .06-.05.06-.03 0-.05-.01-.06-.04l-.06.12a3.5 3.5 0 0 0-.28.67C4 13.83 4 14.58 4 15.33h9.65c.04 0 .07-.03.09-.06.14-.19.32-.5.24-.76v.1c-.02.03-.08.03-.1-.01-.04-.15-.14-.3-.31-.33a6.55 6.55 0 0 0-.17-.04c.26-.06.32-.13.18-.21-.33-.16-.56-.46-.68-.91a.45.45 0 0 0-.08-.14l-.02-.04c-.03-.04-.06-.04-.1 0l-.03.01c-.04 0-.06-.01-.05-.05l.04-.66a.62.62 0 0 0-.13-.3c-.01-.02-.02-.02-.03 0l-.01.03c.04.08.02.16-.05.23-.23.14-.45.31-.69.5a1.2 1.2 0 0 1-.41.25c-.38.09-.6-.3-.73-.61a.71.71 0 0 1-.02-.45 4.56 4.56 0 0 0 .09-1.08.1.1 0 0 0-.16-.01l-.06.06-.01.84-.2 1.29-.04.1-.27.85c-.08.13-.12.2-.12.23-.06.24-.1.23-.12-.01l-.04-.33a.9.9 0 0 0-.12-.29c-.07-.12-.1-.24-.08-.34a.2.2 0 0 0 0-.11L9.42 13c-.1-.22-.16-.39.04-.56.04-.03.07-.02.1 0l.64.63.04-.1a.65.65 0 0 1-.32-.29c-.14-.2-.26-.39-.36-.57-.07-.12-.19-.22-.37-.3-.06.08-.18.1-.35.03a.61.61 0 0 0-.36.38.12.12 0 0 0 .01.1c.15.27.22.47.22.6 0 .3-.02.57-.05.83-.02.09-.04.09-.08 0l-.5-1.06-.4-.78Z" fill="#242124"/><path d="M12.49 11.96c.04.08.02.16-.05.23-.36-.3-.75-.54-1.18-.73a.84.84 0 0 1-.36-.28 1.49 1.49 0 0 1-.2-.43c.17.18.29.34.5.47.11.06.22.14.34.24l.4.18c.16.07.3.18.4.31.03.04.08.04.15.01Z" fill="#A1938B"/><path d="M6.36 10.78c.01.03.04.05.07.06l-.32.3a.25.25 0 0 1-.1.05c-.5.14-.94.36-1.3.65-.1.09-.16.18-.15.3 0 .03 0 .07.03.1.02.03.03.06.03.1.01.04 0 .06-.05.06-.03 0-.05-.01-.06-.04-.14-.25-.12-.45.06-.59.23-.18.68-.4 1.35-.66a.74.74 0 0 0 .23-.15l.21-.18Z" fill="#77655B"/><path d="M10.43 10.97a13 13 0 0 0-.23 1.26c-.03.26-.12.42-.27.46-.14-.2-.26-.39-.36-.57-.07-.12-.19-.22-.37-.3l.74-.61.12-.19a.27.27 0 0 1 .07-.07l.2-.15c.05-.03.09-.02.1.03.03.04.03.09 0 .14Z" fill="#E9CEC5"/><path d="M9.08 11.25c.24-.02.46-.07.68-.16.09-.02.15.02.18.12l-.74.61c-.06.08-.18.1-.35.03.03-.01.03-.03.02-.06-.03-.04-.05-.05-.09-.06-.37-.01-.73.05-1.09.19-.03-.45-.22-.8-.57-1.05.65.19 1.23.44 1.96.38Z" fill="#45241D"/><path d="m10.43 10.97.02.72-.2 1.29a.65.65 0 0 1-.32-.29c.15-.04.24-.2.27-.46a13 13 0 0 1 .23-1.26Z" fill="#E7AB8C"/><path d="M8.78 11.73c-.41.23-.64.55-.7.97l-.39-.78c.36-.14.72-.2 1.1-.19Z" fill="#77655B"/><path d="M8.78 11.73c.04 0 .06.02.09.06.01.03 0 .05-.02.06a.61.61 0 0 0-.36.38.12.12 0 0 0 .01.1c.15.27.22.47.22.6 0 .3-.02.57-.05.83-.02.09-.04.1-.08 0l-.5-1.06c.05-.42.28-.74.7-.97Z" fill="#A1938B"/><path d="M13.58 14.02c-.33-.16-.56-.46-.68-.91-.02-.07-.07-.12-.1-.18-.03-.04-.06-.04-.1 0l-.03.01c-.04 0-.06-.01-.05-.05l.04-.66c.03.09.04.19.05.29 0 .08.02.14.05.16l.09.07a.2.2 0 0 1 .07.08l.2.45c.03.1.11.2.24.34.1.11.18.25.22.4Z" fill="#77655B"/><path d="m10.21 13.08-.27.85c-.08.13-.12.2-.12.23-.06.24-.1.23-.12-.01l-.04-.33a.9.9 0 0 0-.12-.29c-.07-.12-.1-.24-.08-.34a.2.2 0 0 0 0-.11c-.1-.26-.2-.44.01-.63.04-.03.07-.02.1 0l.64.63Z" fill="#A1938B"/><path d="M8.71 14.25c-.17.16-.29.34-.36.53a.07.07 0 0 0 .02.07l.03.02h.03a2 2 0 0 0 .77-.24c.04.08.06.13.06.17-.04.23.04.27.24.12a.73.73 0 0 1 .3-.09h.7c.34.01.6.18.78.5H8.33l-1.44-.31c-.07-.02-.09-.06-.07-.12l.2-.59.11-.04c.25 0 .53-.05.84-.13a.9.9 0 0 1 .74.11Z" fill="#72362E"/><path d="M8.71 14.25c.2.1.36.23.5.38a2 2 0 0 1-.81.24.08.08 0 0 1-.03-.02.07.07 0 0 1-.02-.07c.07-.2.2-.37.36-.53Z" fill="#A85545"/><path d="m7.03 14.31-.2.6c-.03.05 0 .1.06.1l1.44.32-.9-.02-.6-.04a.19.19 0 0 1-.12-.07.17.17 0 0 1-.03-.14l.15-.64.2-.11Z" fill="#45241D"/><path d="M10.17 7.94c.02.1.02.18 0 .24-.01.03-.04.05-.08.05l-.4-.04a.11.11 0 0 1-.08-.04.1.1 0 0 1 0-.1l.1-.3a.13.13 0 0 1 .07-.07c.2-.08.44-.01.7.2 0 .02.02.03.03.05l.01.06a.1.1 0 0 1-.06.1l-.04-.02a.12.12 0 0 1-.07-.05.3.3 0 0 0-.12-.12.05.05 0 0 0-.04 0c-.01 0-.02 0-.02.02v.02ZM8.47 9.1c.05-.03.1-.01.17.04l.01.02a.06.06 0 0 1 0 .05l-.02.02a.16.16 0 0 1-.16 0 .08.08 0 0 1-.03-.02.08.08 0 0 1 0-.08l.03-.03Z" fill="#331C17"/></svg>