<!-- by TradingView --><svg width="18" height="18" viewBox="0 0 18 18" fill="none" xmlns="http://www.w3.org/2000/svg">
<rect width="18" height="18" fill="url(#paint0_linear_2352_47562)"/>
<path fill-rule="evenodd" clip-rule="evenodd" d="M6.3913 5H4V7.97939V8.4H4.7L4.88931 8.4V8.40035C4.89323 8.40012 4.89718 8.4 4.90116 8.4H6.34782C6.76056 8.4 7.14337 8.52809 7.45869 8.74667C7.72549 8.55057 7.84654 8.32674 7.88653 8.19068C7.45314 7.88173 6.92279 7.7 6.34999 7.7H4.7V5.69566H6.39782C7.44836 5.69566 8.3 6.54729 8.3 7.59783C8.3 8.64837 7.44836 9.5 6.39782 9.5H4.62499H4V9.52143V10.2174V13H6.34999C7.81355 13 9 11.8136 9 10.35C9 9.99369 8.92968 9.65381 8.80215 9.34347C8.55395 9.46011 8.3596 9.6793 8.23762 9.86075C8.27833 10.0178 8.3 10.1824 8.3 10.3522C8.3 11.4303 7.42598 12.3044 6.34782 12.3044H4.69999V10.2174H6.3913C7.83204 10.2174 9 9.04944 9 7.6087C9 6.16795 7.83204 5 6.3913 5ZM15 5H10V5.69565H15V5ZM14 8H10V8.47826V8.69565V13H10.7V8.69565H14V8Z" fill="white"/>
<defs>
<linearGradient id="paint0_linear_2352_47562" x1="16.1843" y1="3.33429" x2="2.38404" y2="15.955" gradientUnits="userSpaceOnUse">
<stop stop-color="#32C2FE"/>
<stop offset="1" stop-color="#3C5AC2"/>
</linearGradient>
</defs>
</svg>
