<!-- by TradingView --><svg width="18" height="18" viewBox="0 0 18 18" xmlns="http://www.w3.org/2000/svg"><path fill="url(#aoal4x0io)" d="M0 0h18v18H0z"/><path d="M6 7H2v.5h1.5V11h1V7.5H6V7Z" fill="#0ABC34"/><path fill-rule="evenodd" d="M7 7v4h1V9.5h2V11h1V9.9a.79.79 0 0 0-.5-.72c.4 0 .5-.48.5-.73v-.72c0-.58-.44-.73-.67-.73H7Zm1 .5V9h2V7.5H8Z" fill="#0ABC34"/><path d="M16 7.5V7h-3.33c-.54 0-.67.48-.67.73v2.54c0 .58.44.73.67.73h2.66c.54 0 .67-.48.67-.73v-.72c0-.59-.44-.55-.67-.55H14v.5h1v1h-2v-3h3Z" fill="#0ABC34"/><defs><linearGradient id="aoal4x0io" x1="3.35" y1="3.12" x2="21.9" y2="24.43" gradientUnits="userSpaceOnUse"><stop stop-color="#1A1E21"/><stop offset="1" stop-color="#06060A"/></linearGradient></defs></svg>