<!-- by TradingView --><svg xmlns="http://www.w3.org/2000/svg" width="18" height="18"><path fill="#173ED8" d="M0 0h18v18H0z"/><path fill-rule="evenodd" d="M9 15A6 6 0 109 3a6 6 0 000 12zm0-.42A5.58 5.58 0 109 3.42a5.58 5.58 0 000 11.16z" fill="#BD6514"/><circle cx="9" cy="9" fill="url(#a0wea4quj)" r="5.58"/><ellipse cx="9" cy="9.02" rx="3.97" ry="3.95" fill="url(#b0wea4quj)"/><ellipse cx="8.98" cy="9.02" rx="3.75" ry="3.74" fill="url(#c0wea4quj)"/><path d="M10.66 11.07c0 .18-.07.35-.1.42.06.03.33-.08.52-.12.16-.04.15.13.12.22 0 .03.01.08.1.1.13 0 .64-.58.62-.69-.01-.16.05-.46.02-.68-.02.11-.08.33-.17.3-.11-.03-.06-.2-.04-.22.03-.01-.05-.1-.1-.1s-.13.15-.16.22a.57.57 0 00-.12-.06c-.05-.02-.22.2-.3.32-.13.03-.4.12-.4.3z" fill="#A9D8EC"/><path d="M5.4 8.77c-.02.24.05.53.08.65.04.03.12.07.18-.05.06-.14.14.05.24.1.1.06.08.23.08.33s.15.35.22.47c.07.1.07.29.07.37l.67.84s.05.02.16 0c.15-.04.04-.39.1-.44.06-.05-.02-.22-.06-.3.03-.05.13-.16.2-.2.06-.06.02-.52 0-.74.12-.2.37-.64.35-.72-.02-.08-.26-.04-.37 0-.03-.06-.05-.18 0-.12.06.08.6-.28.77-.54.18-.25.43-.24.47-.16.04.07.23.14.32.16.03.3.13.87.26.83.12-.05.16-.32.17-.45l.48-.42c.13-.1.21.2.21.3 0 .09.07.12.15.05.09-.06.09.1.1.27l.03.18c0-.1.04-.28.1-.25.06.03.15.2.2.29.04-.03.15-.1.2-.17.07-.08.02-.21-.01-.27-.16-.05-.36-.2.07-.36.54-.2.52-.51.38-.66-.14-.15-.03-.23-.02-.28 0-.04-.2-.02-.22-.08-.01-.06.08.02.11-.1.03-.1.1.08.21.12.11.04.15.24.22.24s-.16-.33-.1-.35c.07-.02.23-.36.16-.52-.08-.17-.28-.3-.41-.3-.13 0-.07-.17-.08-.27 0-.07.14-.03.21 0 .15.17.46.5.47.42 0-.08-.47-.52-.58-.65a1.89 1.89 0 00-.65-.34c-.16-.06-.61-.1-.82-.11a.5.5 0 00-.3-.13c-.2-.02-.69.32-.84.34-.15.02-.38.11-.45.14-.08.03-.1-.22-.14-.26-.03-.04-.27.11-.8.36-.55.26-.97.84-1 .95-.02.11-.19.17-.26.26s-.12.42-.18.46c-.05.05-.07.22-.2.38s-.13.44-.15.73z" fill="url(#d0wea4quj)"/><path fill-rule="evenodd" d="M10.54 6.44a.64.64 0 00-.9 0l-.3.3c-.2.2-.24.51-.1.75l-.13.13v.5l.38-.38c.24.13.54.1.74-.1l.31-.31a.63.63 0 000-.9zm-.8 1.04A.3.3 0 0010 7.4l.34-.33a.29.29 0 000-.41.3.3 0 00-.4 0l-.34.33a.29.29 0 00-.09.23.18.18 0 01.23 0c.07.08.08.19 0 .26zm-1.22.74a.64.64 0 00-.75.1l-.31.3a.63.63 0 000 .9c.24.24.64.25.9 0l.3-.3c.2-.2.24-.5.11-.75l.12-.12v-.51l-.37.38zm-.23.24a.29.29 0 00-.24.08l-.34.34a.29.29 0 000 .4c.11.12.3.12.41 0l.34-.33c.07-.07.1-.16.08-.25a.18.18 0 01-.23-.02.18.18 0 01-.02-.22z" fill="#F3B635"/><path fill="#F3B635" d="M7 10h4v1H7z"/><defs><linearGradient id="a0wea4quj" x1="6.89" y1="3.68" x2="11.69" y2="14.07" gradientUnits="userSpaceOnUse"><stop stop-color="#FDE357"/><stop offset=".44" stop-color="#DC8F21"/><stop offset="1" stop-color="#FBF1BF"/></linearGradient><linearGradient id="b0wea4quj" x1="7.5" y1="5.31" x2="11.12" y2="12.29" gradientUnits="userSpaceOnUse"><stop stop-color="#FEFACF" stop-opacity="0"/><stop offset="0" stop-color="#FEFACF"/><stop offset="1" stop-color="#7F5015"/></linearGradient><linearGradient id="c0wea4quj" x1="8.98" y1="5.29" x2="8.9" y2="14.39" gradientUnits="userSpaceOnUse"><stop stop-color="#006EA6"/><stop offset=".3" stop-color="#024385"/><stop offset=".47" stop-color="#0B4C8B"/><stop offset=".74" stop-color="#7BC2DF"/><stop offset=".84" stop-color="#CAE8F4"/></linearGradient><linearGradient id="d0wea4quj" x1="8.58" y1="5.41" x2="8.58" y2="11.49" gradientUnits="userSpaceOnUse"><stop stop-color="#E4F3FA"/><stop offset=".52" stop-color="#A9D8EC"/><stop offset=".86" stop-color="#85C3E1"/></linearGradient></defs></svg>