<!-- by TradingView --><svg width="18" height="18" fill="none" xmlns="http://www.w3.org/2000/svg"><path fill="url(#paint0_linear_1530)" d="M0 0h18v18H0z"/><path fill-rule="evenodd" clip-rule="evenodd" d="M11.095 11H7.5a2.5 2.5 0 111.926-.906c-.019.225.07.435.211.563.26.147.51.064.649-.038a3.5 3.5 0 10-3.065 1.37V12h5.337a1.5 1.5 0 00.8-2.737 1.5 1.5 0 10-1.974-2.192c.004.01.002.022-.008.034-.15.194-.261.592.034.828.244.196.614.118.885-.03a.5.5 0 11.341.664.76.76 0 00-.636.77c0 .407.202.595.472.664L12.5 10a.5.5 0 01.053.997V11h-1.458z" fill="#fff"/><defs><linearGradient id="paint0_linear_1530" x1="9" y1="0" x2="4.486" y2="18" gradientUnits="userSpaceOnUse"><stop stop-color="#40B06C"/><stop offset="1" stop-color="#06AF8F"/></linearGradient></defs></svg>