<!-- by TradingView --><svg width="18" height="18" viewBox="0 0 18 18" xmlns="http://www.w3.org/2000/svg"><path fill="url(#a)" d="M0 0h18v18H0z"/><path d="m8.99 13.16 1.46.84 2.14-1.22v-1.6l1.41-.93V7.72l-1.4-.8v-1.7l-2.14-1.2L9 4.82l-.63.39v.79h1.28l.8-.44.74.45v1.7l1.48.8v.98l-1.48.93v1.55l-.73.46-.84-.47V12.8l-.63.36Z" fill="url(#b)"/><path d="M8.38 5.22 9 4.83 7.52 4 5.41 5.22v1.6L4 7.75v2.52l1.4.8v1.7L7.53 14 9 13.16l.64-.37v-.81H8.38l-.85.45-.72-.45v-1.71l-1.56-.8v-.98l1.56-.92V6l.72-.45.85.45v-.79Z" fill="url(#c)"/><path d="M8.38 6.01v5.96h1.24V6.01H8.38Z" fill="url(#d)"/><defs><linearGradient id="a" x1="3.35" y1="3.12" x2="21.9" y2="24.43" gradientUnits="userSpaceOnUse"><stop stop-color="#1A1E21"/><stop offset="1" stop-color="#06060A"/></linearGradient><linearGradient id="b" x1="9.81" y1="6.9" x2="16.02" y2="10.15" gradientUnits="userSpaceOnUse"><stop stop-color="#7B61FF"/><stop offset="1" stop-color="#533DC4"/></linearGradient><linearGradient id="c" x1="4.56" y1="7.18" x2="8.3" y2="11.09" gradientUnits="userSpaceOnUse"><stop stop-color="#6AFFAF"/><stop offset="1" stop-color="#5CFEEB"/></linearGradient><linearGradient id="d" x1="9.01" y1="6.01" x2="9.01" y2="11.99" gradientUnits="userSpaceOnUse"><stop offset=".01" stop-color="#7C62FF"/><stop offset="1" stop-color="#5DFEEB"/></linearGradient></defs></svg>