<!-- by TradingView --><svg width="18" height="18" viewBox="0 0 18 18" xmlns="http://www.w3.org/2000/svg"><path fill="url(#akpgbdaxd)" d="M0 0h18v18H0z"/><path d="M7.22 6.96c-.4 0-.5-.36-.5-.54.1-.41.52-1.42 1.35-1.42 1.18 0 2.44.13 3.12.3-1.53.36-3.46 1.66-3.97 1.66Z" fill="#F7C91E"/><path fill-rule="evenodd" d="M6.71 6.78c0 .18.23.37.57.37.21 0 .82-.3 1.5-.65.97-.5 2.11-1.07 2.5-.97.12.18.38.93.52 1.78.73.3 2.2 1.07 2.2 1.78C14 9.98 11.8 13 8.07 13 4.34 13 4 10.51 4 9.98c0-.54.68-1.78 2.54-2.5.12-.05.17-.42.17-.7ZM6.2 8.69c.11.3.61.93 1.56.93 1.19 0 3.41-1.5 3.75-1.85v1.38C11.5 9.55 9.19 11 8 11s-2-.64-2-1c0-.28.13-1.07.19-1.3Z" fill="#F7C91E"/><defs><linearGradient id="akpgbdaxd" x1="3.35" y1="3.12" x2="21.9" y2="24.43" gradientUnits="userSpaceOnUse"><stop stop-color="#1A1E21"/><stop offset="1" stop-color="#06060A"/></linearGradient></defs></svg>