<!-- by TradingView --><svg width="18" height="18" viewBox="0 0 18 18" xmlns="http://www.w3.org/2000/svg"><path fill="#253F59" d="M0 0h18v18H0z"/><path fill-rule="evenodd" d="M6.56 3.9a.7.7 0 0 1 1.34-.44 5.67 5.67 0 0 1 1.54-.09.7.7 0 0 1 1.32.26c.55.18 1.06.44 1.52.77a.7.7 0 1 1 1.02.94c.22.26.42.54.6.84h.04a.7.7 0 0 1 .48 1.22 5.65 5.65 0 0 1 .17 2.37.7.7 0 0 1-.35 1.35 5.65 5.65 0 0 1-.94 1.54.7.7 0 1 1-1.02.94c-.18.12-.36.24-.55.34.06.1.1.23.1.35a.7.7 0 0 1-1.4.17 5.66 5.66 0 0 1-2.53.08.7.7 0 0 1-1.34-.45c-.21-.1-.42-.21-.61-.34a.7.7 0 0 1-1.19-.51.7.7 0 0 1 .11-.38c-.47-.5-.85-1.1-1.1-1.74a.7.7 0 0 1-.36-1.35 5.7 5.7 0 0 1 0-1.54.7.7 0 0 1 .35-1.35c.3-.72.73-1.37 1.28-1.9a.7.7 0 1 1 1.08-.84l.44-.23ZM13.9 11a5.3 5.3 0 0 1-.96 1.53h-.08L9.18 9.18l3.7-3.7.06-.01c.23.25.44.53.61.82a.7.7 0 0 0-.03 1.16L12.8 8.7a.7.7 0 0 0-.96.52l-1.95-.13-.01.17 1.94.13a.7.7 0 0 0 1.26.4l.57.34a.7.7 0 0 0 .25.87Zm-.16-1.02a.7.7 0 0 1 .5-.27 5.34 5.34 0 0 0-.14-2.14.7.7 0 0 1-.43-.04l-.72 1.26a.7.7 0 0 1 .23.85l.56.34Zm-2.27 3.7a.7.7 0 0 0-.73.02l-.87-1.04a.7.7 0 1 0-1.1-.87l-.87-.44a.7.7 0 0 0-.52-.92l.24-2.84a.7.7 0 0 0 .57-1.08l.67-.53a.7.7 0 0 0 1.2-.56l1.8-.36L7.6 9.18l4.48 4.13c-.2.14-.39.26-.6.37Zm.63-8.85.07-.07c-.44-.33-.93-.6-1.46-.77a.7.7 0 0 1-.83.4l-.18.46a.7.7 0 0 1 .32.4l2.08-.42ZM9.53 4.8l.19-.47a.7.7 0 0 1-.37-.6 5.37 5.37 0 0 0-1.42.1.7.7 0 0 1-.1.27l1.04.86a.7.7 0 0 1 .66-.16Zm-.77.3-1.04-.87a.7.7 0 0 1-.32.17l.2 1.79a.7.7 0 0 1 .48.2l.67-.54a.7.7 0 0 1 0-.75Zm-1.34 1.1-.2-1.78a.7.7 0 0 1-.48-.2l-.56.31v8.96c.18.11.37.22.56.31a.7.7 0 0 1 .4-.2v-1.77a.7.7 0 0 1 .07-1.4l.23-2.85a.7.7 0 0 1-.02-1.37Zm.4 5.32a.7.7 0 0 1-.5.3v1.78a.7.7 0 0 1 .35.15L8.8 12.6a.7.7 0 0 1-.11-.67l-.87-.43Zm1.1 1.22-1.13 1.13c.08.1.12.2.14.33a5.32 5.32 0 0 0 2.51-.1.7.7 0 0 1 .16-.28l-.87-1.04a.7.7 0 0 1-.81-.04ZM4.1 7c.24-.6.59-1.14 1.02-1.6v1.53l-.8.32A.7.7 0 0 0 4.1 7Zm.25.87a.7.7 0 0 0 .04-.46l.73-.3v1.22l-.77-.46Zm-.09.15a.7.7 0 0 1-.5.27 5.34 5.34 0 0 0 0 1.42.7.7 0 0 1 .53.31l.83-.41V8.54l-.86-.52Zm.86 1.78-.75.38a.7.7 0 0 1 .04.28l.7.14v-.8Zm0 .98v1.82A5.3 5.3 0 0 1 4.1 11a.7.7 0 0 0 .28-.36l.74.14Z" fill="#fff"/></svg>