<!-- by TradingView --><svg width="18" height="18" viewBox="0 0 18 18" xmlns="http://www.w3.org/2000/svg"><path fill="#F0F3FA" d="M0 0h18v18H0z"/><path d="M4 7.17V11l.83.56V6.61L4 7.17Z" fill="url(#aylvtusea)"/><path d="M4.83 6.61v4.94l.84-.56V7.17l-.84-.56Z" fill="url(#bylvtusea)"/><path d="M5.33 5.64v6.88l.84.56v-8l-.84.56Z" fill="url(#cylvtusea)"/><path d="M6.17 5.08v8l.83-.56V5.64l-.83-.56Z" fill="url(#dylvtusea)"/><path d="M14 7.17V11l-.83.56V6.61l.83.56Z" fill="url(#eylvtusea)"/><path d="M13.17 6.61v4.94l-.84-.56V7.17l.84-.56Z" fill="url(#fylvtusea)"/><path d="M12.67 5.64v6.88l-.84.56v-8l.84.56Z" fill="url(#gylvtusea)"/><path d="M11.83 5.08v8l-.83-.56V5.64l.83-.56Z" fill="url(#hylvtusea)"/><path d="M7 4.56v8.88L8 14V4l-1 .56Z" fill="url(#iylvtusea)"/><path d="m8 14 1-.56V4.56L8 4v10Z" fill="url(#jylvtusea)"/><path d="M9 4.56v8.88l1 .56V4l-1 .56Z" fill="url(#kylvtusea)"/><path d="m10 14 1-.56V4.56L10 4v10Z" fill="url(#lylvtusea)"/><defs><linearGradient id="aylvtusea" x1="4.42" y1="6.61" x2="4.42" y2="11.55" gradientUnits="userSpaceOnUse"><stop stop-color="#670057"/><stop offset="1" stop-color="#230059"/></linearGradient><linearGradient id="bylvtusea" x1="5.25" y1="6.61" x2="5.25" y2="11.55" gradientUnits="userSpaceOnUse"><stop stop-color="#CC1B99"/><stop offset="1" stop-color="#471288"/></linearGradient><linearGradient id="cylvtusea" x1="5.75" y1="5.08" x2="5.75" y2="13.08" gradientUnits="userSpaceOnUse"><stop stop-color="#670057"/><stop offset="1" stop-color="#230059"/></linearGradient><linearGradient id="dylvtusea" x1="6.58" y1="5.08" x2="6.58" y2="13.08" gradientUnits="userSpaceOnUse"><stop stop-color="#CC1B99"/><stop offset="1" stop-color="#471288"/></linearGradient><linearGradient id="eylvtusea" x1="13.58" y1="6.61" x2="13.58" y2="11.55" gradientUnits="userSpaceOnUse"><stop stop-color="#CC1B99"/><stop offset="1" stop-color="#471288"/></linearGradient><linearGradient id="fylvtusea" x1="12.75" y1="6.61" x2="12.75" y2="11.55" gradientUnits="userSpaceOnUse"><stop stop-color="#670057"/><stop offset="1" stop-color="#230059"/></linearGradient><linearGradient id="gylvtusea" x1="12.25" y1="5.08" x2="12.25" y2="13.08" gradientUnits="userSpaceOnUse"><stop stop-color="#CC1B99"/><stop offset="1" stop-color="#471288"/></linearGradient><linearGradient id="hylvtusea" x1="11.42" y1="5.08" x2="11.42" y2="13.08" gradientUnits="userSpaceOnUse"><stop stop-color="#670057"/><stop offset="1" stop-color="#230059"/></linearGradient><linearGradient id="iylvtusea" x1="7.5" y1="4" x2="7.5" y2="14" gradientUnits="userSpaceOnUse"><stop stop-color="#670057"/><stop offset="1" stop-color="#230059"/></linearGradient><linearGradient id="jylvtusea" x1="8.5" y1="4" x2="8.5" y2="14" gradientUnits="userSpaceOnUse"><stop stop-color="#CC1B99"/><stop offset="1" stop-color="#471288"/></linearGradient><linearGradient id="kylvtusea" x1="9.5" y1="4" x2="9.5" y2="14" gradientUnits="userSpaceOnUse"><stop stop-color="#670057"/><stop offset="1" stop-color="#230059"/></linearGradient><linearGradient id="lylvtusea" x1="10.5" y1="4" x2="10.5" y2="14" gradientUnits="userSpaceOnUse"><stop stop-color="#CC1B99"/><stop offset="1" stop-color="#471288"/></linearGradient></defs></svg>