<!-- by TradingView --><svg width="18" height="18" viewBox="0 0 18 18" xmlns="http://www.w3.org/2000/svg"><path fill="#F0F3FA" d="M0 0h18v18H0z"/><path d="M6 10.37c-1.66 0-3-1.31-3-2.94A2.97 2.97 0 0 1 6 4.5a3 3 0 0 1 2.87 2.07c.32 1.02.53 1.26.13 3.02 0 .78.07 1.5.2 1.95-.4-.39-.72-1.37-1.2-1.37-.68 0-1.33.2-2 .2Z" fill="url(#azviyhcqa)"/><path d="M11.06 7.78c-.53.05-1.07.04-1.26-.15-.32-.31-.8-.91-1-1.17.13.32.4 1.1.4 1.56 0 .19-.06.48-.13.8-.43 2.01.21 4.68 2.93 4.68 1.66 0 3-1.31 3-2.93a2.97 2.97 0 0 0-3-2.94c-.33 0-.64.05-.94.15Z" fill="url(#bzviyhcqa)"/><defs><linearGradient id="azviyhcqa" x1="4" y1="5.67" x2="8.73" y2="9.1" gradientUnits="userSpaceOnUse"><stop stop-color="#6DB82B"/><stop offset="1" stop-color="#C9D808"/></linearGradient><linearGradient id="bzviyhcqa" x1="9.2" y1="8.8" x2="14.11" y2="12.82" gradientUnits="userSpaceOnUse"><stop stop-color="#4683C3"/><stop offset="1" stop-color="#71C6E3"/></linearGradient></defs></svg>