<!-- by TradingView --><svg width="18" height="18" viewBox="0 0 18 18" xmlns="http://www.w3.org/2000/svg"><path fill="url(#ay01oxglu)" d="M0 0h18v18H0z"/><path d="M13 12.51c1.66-1.96 1.2-5.13-1-7.07C9.79 3.5 6.65 3.52 5 5.5c-1.66 1.96-1.2 5.13 1 7.07 2.21 1.94 5.35 1.92 7-.05ZM7.08 5.12a4.4 4.4 0 0 1 4.35 2.16c1.49 2.6-.61 4.7-1.32 5.15-1.75.17-4.46-1.79-4.46-4.13 0-1.87.95-2.9 1.43-3.18Z"/><path d="M13.4 7.23c.19 1.13.2 2.49-.58 3.37-.57.64-1.3.96-1.9 1.08-.25.3-.5.53-.7.67.9.03 2.34-.28 3.11-1.75.44-.83.5-1.76.38-2.6-.08-.27-.2-.52-.32-.77ZM7.93 5.1a4.07 4.07 0 0 0-.68 0c.7-.52 2.41-1.12 4.54.2-.77-.34-2.57-.84-3.86-.2Z" fill="#B0EAEE"/><defs><linearGradient id="ay01oxglu" x1="16.54" y1="2.33" x2="2.6" y2="16.04" gradientUnits="userSpaceOnUse"><stop stop-color="#CFEBF7"/><stop offset=".73" stop-color="#617CC1"/></linearGradient></defs></svg>