<!-- by TradingView --><svg width="18" height="18" viewBox="0 0 18 18" xmlns="http://www.w3.org/2000/svg"><path fill="#F0F3FA" d="M0 0h18v18H0z"/><path d="M6.57 13.33c2.24.3 4.77-.16 5.92-2.33.35-.66.46-1.31.4-2.04a4.59 4.59 0 0 0-3.63-4.2 8.14 8.14 0 0 0-2.72-.1c1-.56 2.07-.77 3.21-.6a5.06 5.06 0 0 1 4.23 4.49 4.98 4.98 0 0 1-7.35 4.87c-.05-.03-.07-.06-.06-.1Z" fill="#FFEF74"/><path d="M6.57 13.33c-.22-.05-.33-.12-.3-.2 1.7.28 3.7.18 5.09-.96a3.98 3.98 0 0 0 1.3-1.93 4.03 4.03 0 0 0 .03-1.75A4.34 4.34 0 0 0 10 5.15a6.22 6.22 0 0 0-2.53-.4c-.42.02-.84.05-1.27.1a1 1 0 0 1 .33-.18 8.14 8.14 0 0 1 2.72.1 4.59 4.59 0 0 1 3.63 4.19c.06.73-.05 1.38-.4 2.04-1.15 2.17-3.68 2.63-5.92 2.33Z" fill="#0A121A"/><path d="m12.75 9.68-.69-.3c-.4-.17-.82-.3-1.23-.44a.86.86 0 0 0-.06-1.57c-.81-.36-1.75.52-1.17 1.3-.12.1-.3.03-.47-.02 0-.07-.04-.1-.12-.1-.45-.03-.9-.04-1.35-.04-.1 0-.18.03-.21.09a.55.55 0 0 1-.43-.02c.37-.55 0-1.23-.64-1.33-.36-.05-.64.04-.86.25a.81.81 0 0 0-.25.6c0 .23.1.45.28.66L4 9.1a4.99 4.99 0 0 1 2.2-4.24c.43-.06.85-.09 1.27-.1.85-.03 1.75.07 2.53.4a4.34 4.34 0 0 1 2.68 3.33c.08.39.1.79.06 1.19Z" fill="#B6B7BC"/><path d="M7.02 8.58c-.22.22-.48.33-.78.35a1 1 0 0 1-.7-.17 1 1 0 0 1-.27-.66c0-.23.08-.43.25-.6.22-.21.5-.3.86-.24.64.09 1 .77.64 1.32ZM10.83 8.94c-.48.1-.89.02-1.23-.27-.58-.78.36-1.66 1.17-1.3.7.3.74 1.22.06 1.57ZM9.13 8.65c-.19.18-.67.51-.94.43-.3-.1-.54-.26-.74-.48.03-.06.1-.09.2-.09.46 0 .9.01 1.36.03.08 0 .12.04.12.11Z" fill="#010000"/><path d="M6.77 7.5c.33.24.45.76.1 1.05-.32.28-1.04.4-1.33-.01a.75.75 0 0 1-.11-.64c.15-.6.9-.73 1.34-.4ZM11.14 7.81c.2.45-.01 1-.55 1.04a1.1 1.1 0 0 1-.85-.25c-.38-.33-.18-.95.24-1.13.4-.18.98-.1 1.16.34Z" fill="#fff"/><path d="M6.26 8.69c.37-.04.64-.33.6-.65-.02-.33-.34-.56-.7-.53-.37.04-.64.33-.6.65.02.32.34.56.7.53ZM10.34 8.74c.37.01.67-.24.69-.56.01-.33-.28-.6-.64-.62-.37-.02-.67.24-.69.56-.01.33.28.6.64.62Z" fill="#010000"/></svg>