<!-- by TradingView --><svg width="18" height="18" viewBox="0 0 18 18" xmlns="http://www.w3.org/2000/svg"><path fill="#F0F3FA" d="M0 0h18v18H0z"/><path d="M9 10.48 5 6.04l1.48.44L9 5l2.52 1.48L13 6.04l-4 4.44Z" fill="url(#asodjvfwk)"/><path d="m8.5 13-3-5.5V11l3 2Z" fill="url(#bsodjvfwk)"/><path d="m9.5 13 3-5.5V11l-3 2Z" fill="url(#csodjvfwk)"/><path fill-rule="evenodd" d="M9 14.65a5.65 5.65 0 1 0 0-11.3 5.65 5.65 0 0 0 0 11.3ZM9 15A6 6 0 1 0 9 3a6 6 0 0 0 0 12Z" fill="url(#dsodjvfwk)"/><defs><linearGradient id="asodjvfwk" x1="9" y1="5" x2="9" y2="10.48" gradientUnits="userSpaceOnUse"><stop stop-color="#5E1AD1"/><stop offset="1" stop-color="#497AE5"/></linearGradient><linearGradient id="bsodjvfwk" x1="5.29" y1="7.51" x2="8.44" y2="13.07" gradientUnits="userSpaceOnUse"><stop stop-color="#4686E8"/><stop offset="1" stop-color="#32E3FB"/></linearGradient><linearGradient id="csodjvfwk" x1="12.71" y1="7.51" x2="9.56" y2="13.07" gradientUnits="userSpaceOnUse"><stop stop-color="#4686E8"/><stop offset="1" stop-color="#32E3FB"/></linearGradient><linearGradient id="dsodjvfwk" x1="9" y1="3" x2="9" y2="15" gradientUnits="userSpaceOnUse"><stop stop-color="#5D20D2"/><stop offset=".25" stop-color="#4E66E1"/><stop offset=".61" stop-color="#40A3EE"/><stop offset="1" stop-color="#33DFFA"/></linearGradient></defs></svg>