<!-- by TradingView --><svg width="18" height="18" viewBox="0 0 18 18" xmlns="http://www.w3.org/2000/svg"><path fill="#F0F3FA" d="M0 0h18v18H0z"/><path d="M8.5 5.03a.13.13 0 0 1 .2.02l.8 1c.56 0 1.26.23 1.9.52.62.29 1.2.64 1.56.89.26-.2.65-.46 1-.46.14 0 .24.08.28.13.24.59-.01 1.63-.17 2.23.33.35.5.86.63 1.32.15.54.25 1.1.28 1.46l.02.15-1.62-.4c-.57.33-1.32.54-1.97.54-.26 0-.6-.03-.89-.15a.83.83 0 0 1-.52-.78c0-.12.02-.23.05-.33L3.23 9.5l-.02-.04A2.1 2.1 0 0 1 3 8.49c0-.69.45-1.67 1.23-1.67.4 0 .76.3 1 .61A6.8 6.8 0 0 1 7.8 5.86c.15-.34.42-.6.7-.83ZM5.34 7.6l.24.35a.1.1 0 0 1-.02.14.1.1 0 0 1-.14-.02l-.3-.43c-.18-.3-.52-.61-.89-.61-.66 0-1.03.9-1.03 1.46 0 .41.1.71.16.83l6.78 1.65c.15-.28.4-.48.59-.58.05-.03.1 0 .13.05.02.05 0 .11-.05.14-.18.1-.41.3-.53.56a.88.88 0 0 0-.08.36c0 .28.16.48.4.59.25.1.56.13.81.13.63 0 1.36-.2 1.9-.53.13-.08.23-.17.3-.26l.15.13c-.04.06-.1.12-.16.17l1.17.29a9.15 9.15 0 0 0-.26-1.28 2.8 2.8 0 0 0-.62-1.27l-.05-.05.02-.06c.1-.33.31-1.17.26-2.02 0-.05-.04-.09-.08-.11-.27-.15-.82.28-1.01.44l-.06.04-.06-.04c-.35-.25-.95-.61-1.6-.91a4.37 4.37 0 0 0-1.86-.5H9.4l-.82-1.03c-.23.2-.5.46-.62.75l-.02.06h-.06A6.4 6.4 0 0 0 5.34 7.6Z" fill="#212121"/><ellipse cx="7.29" cy="8.3" rx=".29" ry=".3" fill="#212121"/><ellipse cx="4.8" cy="8.12" rx=".25" ry=".26" fill="#F17AA4"/><ellipse cx="3.83" cy="8.45" rx=".25" ry=".26" fill="#F17AA4"/><ellipse cx="4.2" cy="7.94" rx=".23" ry=".24" fill="#F17AA4"/><path d="M4.92 8.74c.06.15-.06.35-.26.43-.2.08-.42.01-.48-.15-.05-.15.07-.35.27-.43.2-.08.42-.01.47.15Z" fill="#F17AA4"/><path d="M8.4 8.68c.06-.06.16-.03.17.06.01.06.03.12.07.18.04.06.09.1.16.1.06 0 .12-.02.17-.05.05-.03.1-.03.15 0 .03.03.04.1 0 .12-.1.07-.2.11-.32.11a.38.38 0 0 1-.33-.19.6.6 0 0 1-.06-.12.64.64 0 0 1-.34.1c-.17 0-.3-.13-.38-.27-.02-.05 0-.1.06-.12.05-.01.1.02.12.06.05.08.12.15.2.15.08 0 .15-.02.2-.05a.58.58 0 0 0 .12-.08Z" fill="#212121"/><ellipse cx="10.29" cy="9.3" rx=".29" ry=".3" fill="#212121"/><path d="M9.71 11.96c.04.06.02.14-.03.18l-.93.64a.12.12 0 0 1-.17-.04.13.13 0 0 1 .04-.18l.92-.64a.12.12 0 0 1 .17.04ZM9.81 14c-.06-.02-.09-.07-.07-.12l.36-1.3c.02-.06.08-.1.14-.08.05.02.09.07.07.12l-.37 1.3c-.01.06-.07.1-.13.08ZM11.44 13.68a.11.11 0 0 1-.15-.03l-.66-.99a.1.1 0 0 1 .03-.14.11.11 0 0 1 .15.03l.66.99a.1.1 0 0 1-.03.14Z" fill="#F0251F"/></svg>