<!-- by TradingView --><svg width="18" height="18" viewBox="0 0 18 18" xmlns="http://www.w3.org/2000/svg"><path fill="#F0F3FA" d="M0 0h18v18H0z"/><path d="M4.86 6.1c.24-.33.52-.63.84-.9L8.37 9l-2.98 3.52c-.26-.27-.5-.56-.7-.87L7.1 9 4.87 6.1Zm3.51 7.86V4.04a5.2 5.2 0 0 1 1.25 0v9.92a5.22 5.22 0 0 1-1.25 0Zm4.94-2.31c-.2.31-.44.6-.7.87L9.63 9l2.67-3.8c.32.27.6.57.84.9L10.9 9l2.4 2.65Z" fill="#2054A5"/><path d="M6.24 4.8 7.9 6.97V5.09l-.6-.8c-.38.13-.73.3-1.05.51Zm4.48-.5-.61.8v1.87l1.65-2.17c-.32-.2-.67-.38-1.04-.5Zm2.79 2.4L11.85 9l1.75 2.12c.19-.4.32-.82.4-1.26L13.12 9l.85-1.04c-.1-.44-.26-.87-.46-1.26Zm-1.4 6.25-2-2.23v1.72l1.01 1.1c.35-.16.69-.36.99-.59Zm-5.23.6 1.01-1.11v-1.72l-2 2.23c.3.23.64.43.99.6ZM4.4 11.11 6.15 9 4.49 6.7c-.2.39-.36.82-.46 1.26L4.88 9 4 9.86c.08.44.21.86.4 1.26Z" fill="#FFC529"/></svg>