<!-- by TradingView --><svg width="18" height="18" viewBox="0 0 18 18" xmlns="http://www.w3.org/2000/svg"><path fill="url(#a)" d="M0 0h18v18H0z"/><path d="M9.5 4.32c-.2-.1-.38-.15-.53-.15a.3.3 0 0 0-.27.14c-.05.08-.03.16-.04.28v.02l-.03.02c-.24.1-.46.13-.57.4l.01.03.02.02h.01c.05-.11.12-.14.2-.07l-.2.17a.07.07 0 0 0-.03.05c0 .03-.02.06-.04.07-.03.01-.03.03-.01.05l.08.08c.05.05.04.06-.02.05-.12-.04-.24-.1-.26-.25-.06-.42.08-.78.43-1.08.17-.1.37-.16.6-.15.27 0 .48.11.65.32Z" fill="#B195D5"/><path d="M8.25 4.15c-.35.3-.5.66-.43 1.08.02.14.14.2.26.25.06.01.07 0 .02-.05l-.08-.08C8 5.33 8 5.3 8.02 5.3a.07.07 0 0 0 .05-.07c0-.02.01-.04.03-.05L8.3 5c.12-.1.22-.1.3.01.1.14.15.29.17.44a61.55 61.55 0 0 0 .05.35.12.12 0 0 0 .09.06h.05l.36-.14.24-.18.11-.04.13.02a.68.68 0 0 1-.2.33c-.07-.04-.14 0-.22.1a.22.22 0 0 1-.04.04l-.24.18c-.02.14.05.3.22.5a.42.42 0 0 1-.14-.04.7.7 0 0 1-.16-.35c0-.05-.03-.07-.07-.06l-.14.02a.05.05 0 0 0-.04.05v.02l.08.16c-.02.01-.03.03-.03.06a.28.28 0 0 1-.1-.18c-.01-.03-.02-.05-.04-.06a.1.1 0 0 0-.07-.01.2.2 0 0 0-.03-.08c.09 0 .14-.01.16-.04.02-.02.01-.03-.02-.04-.18-.03-.35-.1-.52-.21.02-.02.05-.04.1-.05.03 0 .03-.01 0-.03l-.09-.07c-.02-.02-.04-.02-.06 0-.02.04-.04.04-.06.02l-.19-.17a.1.1 0 0 0-.07-.03.09.09 0 0 0-.07.03c-.16.22-.24.46-.22.74.01.08-.02.12-.08.11l.01-.02.01-.05a.96.96 0 0 1 .2-.75l.13-.15a.06.06 0 0 0 0-.06c-.05-.16-.08-.3-.08-.4 0-.41.18-.71.52-.9Z" fill="#6B3C81"/><path d="M9.5 4.32c.05 0 .1.05.16.17l.12.24a.7.7 0 0 1 .08.26c.01.18 0 .36-.06.54l-.13-.02a.53.53 0 0 0 .06-.2l.05-.2.01-.14c0-.05-.02-.09-.06-.1a.3.3 0 0 0-.13 0 .65.65 0 0 0-.48-.28.05.05 0 0 0-.04.02.05.05 0 0 0-.02.03c0 .27.03.55.08.82.02.12.08.2.18.27l-.36.13a.11.11 0 0 1-.14-.05 62.79 62.79 0 0 1-.05-.35.96.96 0 0 0-.17-.44c-.08-.11-.18-.12-.3-.01-.08-.07-.15-.04-.2.07l-.03-.02v-.02c.1-.28.32-.3.56-.4l.02-.03.01-.02c0-.12-.01-.2.04-.28a.3.3 0 0 1 .27-.14c.15 0 .33.05.53.15Z" fill="#9657AC"/><path d="m12.64 5.02-.07.44a.82.82 0 0 0-.04-.43c-.05-.11-.17-.21-.26-.3a.61.61 0 0 0-.23-.16.67.67 0 0 0-.57.07l-.42.1v-.1c.3-.42.81-.55 1.24-.22.19.15.3.35.35.6Z" fill="#C1A6D1"/><path d="M12.57 5.46a.55.55 0 0 1-.11.16c-.09.09-.21.08-.3.19a.79.79 0 0 1-.26-.22.62.62 0 0 1-.08-.26c-.03-.16-.09-.36-.22-.45a.08.08 0 0 0-.07-.01l-.2.06c-.09.03-.1 0-.04-.07l.18-.22a.67.67 0 0 1 .57-.07c.07.02.15.08.23.16.1.09.21.19.26.3.05.12.06.26.04.43Z" fill="#F9F0F9"/><path d="m9.6 4.86-.27-.05a.05.05 0 0 0-.05.03v.01l-.04.24.01.05.31.4-.24.2a.4.4 0 0 1-.18-.28 4.48 4.48 0 0 1-.06-.85.05.05 0 0 1 .04-.02c.2.03.36.12.48.27Z" fill="#B775C5"/><path d="m11.47 4.64-.18.22c-.06.07-.05.1.04.07l.2-.06a.08.08 0 0 1 .07.01c.13.1.2.29.22.45.02.12.05.21.08.26.07.09.15.16.25.22a.54.54 0 0 1-.54.08.07.07 0 0 1-.04-.06v-.17c0-.18-.15-.25-.31-.19a.08.08 0 0 0-.04.05c-.04.07-.09.1-.15.09-.04 0-.06-.01-.07-.03l-.1-.37c-.01-.07.02-.22.1-.44l.02-.03h.03l.42-.1Z" fill="#E6DEEE"/><path d="m9.6 4.86.13.01c.04.01.06.05.06.1l-.01.15c-.03.07-.04.14-.05.2 0 .07-.02.14-.06.2l-.1.03-.32-.4a.08.08 0 0 1-.01-.06l.03-.24a.05.05 0 0 1 .04-.04h.02l.27.05Z" fill="#FEFDFE"/><path d="M12.64 5.02c.06.38-.05.68-.34.89-.26.2-.58.25-.95.16a.65.65 0 0 0-.24-.28.05.05 0 0 0-.06 0 .13.13 0 0 0-.06.07.17.17 0 0 0-.08.03c.04-.07.1-.14.12-.2v-.05c-.03-.02-.02-.03 0-.03h.04c.06.01.11-.02.15-.1l.04-.04c.16-.06.31.01.31.2a4.33 4.33 0 0 1 .01.2l.03.02c.19.07.37.04.54-.08.1-.1.22-.1.3-.19.05-.04.09-.1.12-.16l.07-.44Z" fill="#6B3C81"/><path d="M8.2 5.92c-.12-.06-.23-.02-.32.13-.01.02.01.03.07.03l-.15.16a.02.02 0 0 0 0 .03l.03.02h.05A.17.17 0 0 1 8 6.22c.03 0 .04 0 0 .03a.74.74 0 0 0-.13.12c-.05.07-.1.07-.17.07-.03 0-.05.02-.04.05 0 .02 0 .04-.02.05-.08.08-.1.13-.03.13a.12.12 0 0 1-.07.01c-.02 0-.03-.02-.01-.04a.11.11 0 0 0 .02-.06c0-.02 0-.03-.02-.05a.12.12 0 0 0-.11-.05l.04-.02c.06 0 .09-.03.08-.11-.02-.28.06-.52.22-.74a.09.09 0 0 1 .14 0c.08.08.14.14.19.17.02.02.04.02.06-.01.02-.03.04-.03.06-.01l.1.07c.02.02.02.03 0 .03-.06.01-.1.03-.1.05Z" fill="#C1A6D1"/><path d="m11.34 6.07-.25.3c-.04 0-.06.01-.07.02l-.36.37a.98.98 0 0 0-.23.45.55.55 0 0 1-.24-.15.57.57 0 0 0-.04-.19c-.01-.02 0-.04.01-.05l.1-.08a4.14 4.14 0 0 0 .79-.95h.06c.11.08.19.17.23.28Z" fill="#F9F0F9"/><path d="M9.6 5.86a.8.8 0 0 1-.5.32L9.34 6a.22.22 0 0 0 .04-.04c.08-.1.15-.14.21-.1Z" fill="#B195D5"/><path d="M10.99 5.86c-.2.32-.45.62-.73.88l-.04-.02.7-.83a.17.17 0 0 1 .07-.03Z" fill="#8A77B0"/><path d="M8.2 5.92c.17.1.34.18.52.21.03 0 .04.02.02.04-.02.03-.07.04-.16.04l-.4-.2A.08.08 0 0 0 8.13 6a.49.49 0 0 0-.17.08c-.06 0-.08-.01-.07-.03.1-.15.2-.19.32-.13Z" fill="#E6DEEE"/><path d="M8.58 6.21a.2.2 0 0 1 .03.08c-.03 0-.04.02-.03.04l.39.69v.06a.16.16 0 0 1-.08.05c-.04.01-.07 0-.1-.04a.05.05 0 0 0-.02-.03.07.07 0 0 0-.06 0c-.08.02-.16.05-.25.06a.6.6 0 0 1-.24 0c-.23-.06-.36-.03-.45-.28a.1.1 0 0 1 .03-.12.1.1 0 0 1 .04-.01c.03 0 .05-.02.08-.03.02-.03.02-.04-.02-.04-.09 0-.19 0-.29.04-.06 0-.05-.05.03-.13a.06.06 0 0 0 .02-.05c0-.03 0-.05.04-.05.08 0 .12 0 .17-.07a.74.74 0 0 1 .14-.12c.03-.02.02-.03-.01-.03a.17.17 0 0 0-.12.05c-.02.02-.03.02-.05 0H7.8a.02.02 0 0 1 0-.03v-.01l.15-.16A.49.49 0 0 1 8.12 6h.07l.4.21Z" fill="#8541A0"/><path d="M5.83 6.63c-.01.01-.02.04 0 .07 0 .02 0 .03-.01.02L5.8 6.7a.06.06 0 0 1-.03-.03c-.14-.2-.25-.3-.35-.34-.35-.1-.52-.02-.5.28-.14.03-.26.07-.36.11a.39.39 0 0 0-.2.22c-.02.03 0 .05.02.04.4-.05.54.45.93.5l.37.05-.25.2a.85.85 0 0 1-.94-.17c-.06-.07-.09-.16-.13-.22-.02-.02-.04-.02-.05 0-.07.19.02.3.12.43.02.02.02.03 0 .05a.07.07 0 0 1-.05 0l-.04-.01a.08.08 0 0 1-.03-.03c-.07-.12-.2-.35-.23-.52-.04-.24.02-.5.17-.74a.9.9 0 0 1 .8-.34c.32.02.57.17.78.44Z" fill="#C1A6D1"/><path d="m9.18 6.64.23.38v.06a.5.5 0 0 0-.02.2c-.16.02-.26 0-.3-.05.03-.02.01-.07-.04-.16a.03.03 0 0 1 0-.03c0-.02.02-.03.04-.02.02 0 .03-.01.03-.03a.35.35 0 0 0-.07-.21c0-.23-.07-.33-.2-.3l-.07-.16a.05.05 0 0 1 .03-.07l.14-.02c.04-.01.07 0 .07.06a.7.7 0 0 0 .16.35Z" fill="#F9F0F9"/><path d="M5.83 6.63 6 6.9a.17.17 0 0 1-.1.05c-.12-.11-.23-.12-.33 0a.92.92 0 0 0-.65-.33c0-.3.16-.39.51-.28.1.03.21.15.35.34l.03.03h.02c0 .02 0 .01 0 0l.01-.08Z" fill="#9657AC"/><path d="M8.6 6.29a.1.1 0 0 1 .08.01c.02.01.03.03.03.06.02.08.05.14.11.18l.17.3a.04.04 0 0 0 .03.03c.05 0 .06-.03.03-.1.04.07.07.14.07.22 0 .02-.01.03-.03.03-.02 0-.03 0-.04.02a.03.03 0 0 0 0 .03c.05.09.07.14.05.16a.73.73 0 0 0-.18.28c-.05.14-.02.25.1.34-.03.06-.09.06-.16.01a.06.06 0 0 1-.03-.05l-.01-.33c-.01-.1.04-.24.07-.35a.16.16 0 0 0 .07-.05.05.05 0 0 0 0-.06c-.08-.16-.2-.4-.38-.7 0-.01 0-.02.03-.03Z" fill="#C1A6D1"/><path d="M11.09 6.38c-.12.16-.25.3-.4.44a.75.75 0 0 0-.16.3c0 .03 0 .05-.02.06l-.08.03a.98.98 0 0 1 .23-.45l.36-.37c.01-.01.03-.02.07-.01Z" fill="#8A77B0"/><path d="M9.05 6.78c.03.06.02.09-.03.09a.04.04 0 0 1-.03-.02l-.17-.31c0-.03 0-.05.03-.06.13-.03.2.07.2.3Z" fill="#784F86"/><path d="M7.42 6.49c.05 0 .08.01.1.05.02.02.03.03.03.05l-.02.06c-.02.02-.01.04.01.04h.07a.7.7 0 0 1 .3-.05c.03 0 .03.01 0 .04a.15.15 0 0 1-.07.03.1.1 0 0 0-.07.04.1.1 0 0 0 0 .09c.09.25.22.22.45.27.1.02.18.03.24.01.09-.01.17-.04.25-.06h.06l.02.03c.02.12 0 .21-.07.28a.12.12 0 0 1-.2-.02.4.4 0 0 0-.1-.09 1.04 1.04 0 0 0-.26-.06 1.22 1.22 0 0 1-.4-.19c-.07-.04-.12-.04-.19-.01-.26.09-.54.17-.83.24.12-.08.27-.14.43-.17.01 0 .02 0 .03-.02v-.02A.03.03 0 0 0 7.17 7a4.76 4.76 0 0 0-1.03.37.03.03 0 0 1-.02-.03l-.04-.44c.04 0 .06-.01.05-.02.28.02.55-.05.8-.21l.49-.18Z" fill="#E6DEEE"/><path d="M4.25 6.53c-.15.25-.21.5-.17.74.03.17.16.4.23.52l.03.03.04.01h.05c.02-.02.02-.03 0-.05-.1-.14-.19-.24-.12-.42.01-.03.03-.03.05 0 .04.05.07.14.13.2.28.26.6.32.94.18.04.02.05.04.05.06l-.03.05a.68.68 0 0 0-.08.08c-.02.02-.02.03 0 .05l.1.09c-.17.02-.33.1-.48.08a1.02 1.02 0 0 1-.44-.18.26.26 0 0 0-.21-.05c-.12-.13-.21-.3-.29-.48a.92.92 0 0 1 .02-.67c.04-.1.1-.19.18-.24Z" fill="#493354"/><path d="M4.91 6.62c.24 0 .46.12.65.32-.12.08-.17.17-.12.27.04.12.16.24.35.34l-.1-.01a13.4 13.4 0 0 0-.38-.05c-.39-.05-.53-.55-.93-.5-.03 0-.04 0-.02-.03.04-.11.1-.18.2-.23.1-.04.22-.08.35-.1Z" fill="#E6DEEE"/><path d="m10.22 6.72.04.02-.1.08c-.02.01-.02.03-.01.05.02.06.04.12.04.2-.1-.08-.21-.24-.3-.26a.65.65 0 0 0-.32.03.08.08 0 0 0-.04.04.29.29 0 0 0 .02.25c-.07.03-.09.1-.04.22a.25.25 0 0 1-.12-.08c0-.06 0-.13.03-.2l-.01-.05-.23-.38.14.04c.27-.08.53-.06.79.05h.1Z" fill="#B195D5"/><path d="M6.92 6.67a1.3 1.3 0 0 1-.8.21l.8-.21Z" fill="#A35BBE"/><path d="M10.2 7.06c.05.06.13.11.23.15.02 0 .05 0 .08-.03.02-.01.03-.03.02-.06.03.17.11.36.12.5 0 .32-.12.58-.36.79a.08.08 0 0 0-.02.1l.08.13-.02.04-.11-.15a.07.07 0 0 0-.06-.03.36.36 0 0 0-.17.04l-.5-.02a.05.05 0 0 1-.05-.04.25.25 0 0 1 .03-.25c.01-.02 0-.03-.02-.03h-.02a.06.06 0 0 0-.04.04c-.02.07-.06.11-.11.12-.03 0-.04-.01-.03-.04l.07-.3a.2.2 0 0 1-.14-.14c-.01-.05-.06-.06-.16-.03-.12-.09-.15-.2-.1-.34.05-.12.1-.21.18-.28.03.06.13.07.29.04.02.03.06.06.12.08v.18c0 .02-.02.04-.04.04l-.2.07a.05.05 0 0 0-.04.07c.01.02.04.06.07.07.12.05.22.13.28.25a.06.06 0 0 0 .07.02l.02-.01.22-.22a.09.09 0 0 1 .08-.02l.5.13c.1-.12.11-.28.04-.49a.08.08 0 0 0-.04-.04.19.19 0 0 0-.16 0l-.41.04c-.08 0-.12-.03-.13-.1 0-.03-.02-.04-.05-.04h-.18a.03.03 0 0 1-.02-.01.04.04 0 0 1-.01-.03c0-.04.01-.09.04-.13a.29.29 0 0 1-.02-.25.08.08 0 0 1 .04-.04c.1-.04.2-.04.31-.03.1.02.22.18.31.25Z" fill="#6B3C81"/><path d="M5.9 6.95c.1.18.1.4.04.64-.05.05-.08.05-.1.02-.03-.02-.05-.04-.05-.06-.19-.1-.3-.22-.35-.34-.05-.1 0-.2.12-.27.1-.1.2-.1.34.01Z" fill="#F9F0F9"/><path d="M5.99 6.9h.09l.04.44a.03.03 0 0 0 .02.03.03.03 0 0 0 .03 0A4.76 4.76 0 0 1 7.19 7a.03.03 0 0 1 .01.03v.02l-.03.02c-.16.03-.3.09-.43.17l-.58.17a.21.21 0 0 0-.14.12l-.06.16-.02-.1a.87.87 0 0 0-.04-.64c.04 0 .07-.03.09-.05Z" fill="#B775C5"/><path d="M8.9 7.13c-.04.11-.1.24-.08.35.01.11.02.22 0 .33 0 .02.02.04.04.05.07.05.13.05.16 0 .1-.04.15-.03.16.02a.2.2 0 0 0 .14.13c-.08 0-.13.02-.15.07a.6.6 0 0 1-.06.14c-.05.02-.08.02-.1-.01a.76.76 0 0 0-.07-.17.03.03 0 0 0-.03-.01.03.03 0 0 0-.03.02l-.01.08a.1.1 0 0 0-.07.05l-.24.39-.12.11.38-.65a.06.06 0 0 0 0-.06c-.05-.12-.05-.2-.15-.31-.1-.12-.19-.25-.24-.4l.1.09a.12.12 0 0 0 .14.05c.02 0 .04-.02.05-.03.07-.07.1-.16.07-.28.03.04.06.05.1.04Z" fill="#A35BBE"/><path d="m10.3 7.4-.22.08a.1.1 0 0 0-.06.08.1.1 0 0 0 0 .06l.04.04c.04.02.09.01.14-.02a.06.06 0 0 1 .06 0c.03.01.05.04.04.09 0 .02 0 .04.02.06l.15.14-.5-.13a.09.09 0 0 0-.08.02l-.22.22a.06.06 0 0 1-.09-.01.56.56 0 0 0-.28-.25.18.18 0 0 1-.07-.07.05.05 0 0 1 .01-.06l.02-.01.2-.07c.03 0 .04-.02.05-.04a.34.34 0 0 0 0-.18c-.05-.11-.03-.19.04-.22a.28.28 0 0 0-.04.13.04.04 0 0 0 0 .03.03.03 0 0 0 .03 0h.18c.03 0 .05.02.05.05 0 .07.05.1.13.1.13 0 .27-.02.4-.05Z" fill="#8541A0"/><path d="m10.47 7.93-.15-.14a.07.07 0 0 1-.02-.06c0-.05 0-.08-.04-.1a.06.06 0 0 0-.06.01c-.05.03-.1.04-.14.02a.1.1 0 0 1-.04-.04.1.1 0 0 1 0-.06.1.1 0 0 1 .06-.08l.23-.09a.19.19 0 0 1 .16 0l.04.05c.07.21.06.37-.04.49Z" fill="#FEFDFE"/><path d="M13.6 7.73a.4.4 0 0 1-.18-.04c-.2-.1-.38-.06-.56.08a.11.11 0 0 0-.03.15l.12.2v.06h-.05v-.03h-.03a.54.54 0 0 0-.46.14c0-.1 0-.17.03-.2a.04.04 0 0 0 0-.05.04.04 0 0 0-.04-.02c-.12.02-.18.08-.17.18 0 .07-.02.07-.05.02-.05-.06-.04-.12 0-.2l.14-.29c.47-.3.9-.3 1.29 0Z" fill="#B195D5"/><path d="M5.8 7.55c0 .02 0 .04.03.06v.09c-.1.04-.16.12-.16.23-.07.1-.14.15-.2.14l-.1-.09c-.02-.02-.02-.03 0-.05a.68.68 0 0 1 .08-.08l.03-.05c0-.02-.01-.04-.05-.06l.25-.2.11.01Z" fill="#A35BBE"/><path d="m5.94 7.6.02.1c-.03.05-.01.1.04.16-.09 0-.14.04-.14.1l.01.05.33.37a.64.64 0 0 0-.26-.06l-.28-.2a.07.07 0 0 0-.06-.01c-.15.04-.32.1-.47.1-.27 0-.54-.1-.8-.3.08 0 .15.01.22.06.15.1.27.15.44.18.15.03.31-.06.48-.08.06.01.13-.04.2-.14.14.01.2-.07.15-.23l.01-.09c.03.03.06.03.1-.02Z" fill="#C1A6D1"/><path d="M13.6 7.73c.1.05.18.14.25.27l-.12-.07h-.06c-.1.1-.22.17-.37.2-.03 0-.04.01-.04.04.05.4-.02.69-.07 1.05a.98.98 0 0 1-.65 0 .18.18 0 0 0-.1-.02c-.06.02-.09.05-.1.09a.13.13 0 0 1-.1-.1v-.02l.02-.03c.04-.04.05-.07.03-.1-.02-.03-.04-.04-.09-.05a.2.2 0 0 1-.14-.1c-.02-.04-.03-.03-.04 0-.03.1-.1.18-.23.2l-.01.02-.01.01v.03c0 .01 0 .02.01.01l.15-.02c.05-.01.06 0 .02.04-.04.05-.12.08-.24.1l-.1-.01c-.05 0-.07-.03-.05-.07.05-.12.13-.19.24-.2.03 0 .04 0 .01-.03a.1.1 0 0 0-.07-.02.27.27 0 0 0 .15-.1.1.1 0 0 0 .01-.07 1.3 1.3 0 0 1 .13-.73.78.78 0 0 1 .3-.32l-.15.3c-.04.07-.05.13 0 .2.03.04.05.04.05-.03 0-.1.05-.16.17-.18a.04.04 0 0 1 .05.05l-.01.02c-.02.03-.03.1-.03.2.15.02.31-.01.5-.11h.03c.02-.02.02-.03.01-.05l-.12-.21a.12.12 0 0 1 .03-.15c.19-.14.35-.17.56-.08a.4.4 0 0 0 .19.04Z" fill="#A35BBE"/><path d="M5.82 7.7c.04.16 0 .24-.15.23 0-.11.05-.2.15-.23Z" fill="#F9F0F9"/><path d="m6 7.86.25.25c.02.11.05.18.08.2.2.17.36.35.48.56l-.61-.49-.33-.37a.07.07 0 0 1-.01-.06c0-.05.05-.08.14-.1Z" fill="#E6DEEE"/><path d="M13.85 8c.17.32.2.63.08.93v-.07c.01-.15.07-.39.02-.52a1.4 1.4 0 0 0-.09-.18.1.1 0 0 0-.08-.05.1.1 0 0 0-.08.05l-.13.23a.15.15 0 0 0-.02.07v.23c0 .01 0 .03.02.04.09.07.16.16.2.27a.32.32 0 0 0-.1.03.87.87 0 0 1-.48.2c.05-.37.12-.65.07-1.06 0-.03.01-.04.04-.05a.67.67 0 0 0 .37-.18c.02-.02.03-.02.06-.01l.12.07Z" fill="#B775C5"/><path d="m9.32 8.01-.07.31c0 .03 0 .04.03.04.05-.01.09-.05.1-.12.02-.02.03-.04.05-.04h.02c.03 0 .03.01.02.03a.25.25 0 0 0-.03.25l.05.04.5.02c0 .05 0 .07.05.06l-.18.01-.52-.04a.07.07 0 0 0-.06.03l-.5.65c-.1.04-.16.03-.19-.04a.07.07 0 0 0-.04-.04.45.45 0 0 1-.18-.1.1.1 0 0 1 .07-.06h.08l.05-.03a7.34 7.34 0 0 0 .6-.9c.02-.05.07-.07.15-.07Z" fill="#F9F0F9"/><path d="M9.11 8.22a7.34 7.34 0 0 1-.59.8L8.48 9h-.04a.1.1 0 0 0-.07.05.16.16 0 0 0-.09-.04l-.04.01a.06.06 0 0 0-.02.05c0 .02 0 .04.03.04.09.03.15.1.2.2 0 .03 0 .05-.02.05-.2-.12-.3-.24-.28-.35.04-.01.07-.03.09-.06.06-.1.13-.2.2-.28l.12-.11.15.03c.03 0 .04 0 .05-.02.04-.13.1-.25.19-.35a.05.05 0 0 0 0-.06c0-.04-.04-.05-.08-.04l.01-.08a.03.03 0 0 1 .05-.02l.01.01.08.17c0 .03.04.03.1.01Z" fill="#C1A6D1"/><path d="M10.25 8.07c-.03.03-.03.07-.01.1.02.02.06.01.09-.02s.03-.07.01-.09c-.02-.02-.06-.01-.09.01Z" fill="#E6DEEE"/><path d="m13.92 8.86-.05.1-.03.04h-.06a.87.87 0 0 0-.21-.27.05.05 0 0 1-.02-.04v-.23c0-.02 0-.05.02-.07l.13-.23a.1.1 0 0 1 .08-.05.1.1 0 0 1 .08.05l.09.18c.05.13 0 .37-.03.52Z" fill="#FEFDFE"/><path d="m6.25 8.11.96.85c.02.06 0 .11-.08.17-.12.06-.23-.03-.32-.26-.12-.21-.28-.4-.48-.55-.03-.03-.06-.1-.08-.2Z" fill="#C1A6D1"/><path d="M8.56 8.57c.1-.14.17-.27.24-.39a.1.1 0 0 1 .07-.05c.04-.01.07 0 .09.04a.05.05 0 0 1-.01.06c-.08.1-.15.22-.19.35 0 .02-.02.03-.05.02l-.15-.03Z" fill="#FEFDFE"/><path d="M12.9 8.18a.75.75 0 0 1-.49.1.54.54 0 0 1 .46-.13h.02c.02.01.02.02.01.03Z" fill="#F9F0F9"/><path d="M9.99 8.29c.07 0 .13-.02.13-.05.01-.04-.04-.07-.12-.08-.07-.01-.13 0-.13.04s.05.08.12.09Z" fill="#493354"/><path d="m6.2 8.38.6.49c.1.23.2.32.33.26-.04.07-.12.11-.24.13-.3-.33-.6-.65-.95-.94.08 0 .16.02.26.06Z" fill="#8A77B0"/><path d="M10.33 8.68c.06.1.14.21.24.3.02.01.03.03.03.05a.1.1 0 0 1 0 .06l-.05.01-.51-.5c-.04 0-.06-.01-.05-.06a.36.36 0 0 1 .17-.04c.03 0 .04.01.06.03l.11.15Z" fill="#E6DEEE"/><path d="m10.04 8.6.5.5.06.1c-.12.02-.14.08-.05.18a.05.05 0 0 0 .09 0 .1.1 0 0 0 .02-.09c.05.05.09.06.11.03a.06.06 0 0 0 0-.07c-.03-.05-.04-.1-.03-.13l.08-.07a.44.44 0 0 1 .5-.05c.04.02.06.06.05.11-.13.03-.21.07-.26.13-.05.07-.07.12-.06.16 0 .03.02.04.04.04.09.02.15.07.19.13.05.06.04.1 0 .11a.06.06 0 0 1-.06 0c-.24-.14-.35-.34-.66-.14a.26.26 0 0 1-.14 0c-.02 0-.04-.02-.04-.05v-.27c0-.02 0-.03-.02-.04l-.02-.01c-.02 0-.04 0-.05.02-.07.16-.02.33-.05.5l-.04.05a.06.06 0 0 0 0 .06v.13c.08.1.13.2.17.32a.6.6 0 0 1-.22-.38 1.2 1.2 0 0 1 .09-.74.05.05 0 0 0 0-.05l-.38-.47h.18Z" fill="#784F86"/><path d="M12.35 9.29c.06.04.08.07.04.1l-.11-.07a.31.31 0 0 0-.13-.1h-.07l-.36.13c-.05 0-.08 0-.1-.02-.02-.01-.02-.02 0-.04l.09-.02c.12-.01.2-.04.24-.09.04-.04.03-.05-.02-.04l-.15.02h-.01V9.1l.02-.01c.13-.03.2-.1.23-.2 0-.04.02-.05.04-.01a.2.2 0 0 0 .14.1c.05 0 .07.02.09.04.02.04.01.07-.03.1a.05.05 0 0 0-.01.07c.02.05.05.08.1.09Z" fill="#E6DEEE"/><path d="m13.92 8.86.01.07c-.3.67-.95.68-1.54.45.04-.02.02-.05-.04-.1 0-.03.03-.06.08-.08.03 0 .07 0 .1.02.22.07.44.07.66 0a.87.87 0 0 0 .48-.19.32.32 0 0 1 .1-.03h.07l.03-.03.05-.11Z" fill="#685073"/><path d="m7.21 8.96.24.07c-.12.02-.14.17-.17.25-.01.03-.02.04-.04.05-.26.12-.29.32-.36.6a1 1 0 0 1 .07-.45c.03-.08 0-.15-.06-.22.12-.02.2-.06.24-.13.07-.06.1-.11.08-.17Z" fill="#784F86"/><path d="m7.86 8.96-.19.6c-.01.03 0 .06.03.07l.04.03a.04.04 0 0 1 .02.03.04.04 0 0 1-.03.03h-.08l.02-.01a.04.04 0 0 0 0-.04.04.04 0 0 0-.02-.02c-.18-.07-.33-.05-.44.08a.06.06 0 0 0-.02.06.03.03 0 0 0 .03.02h.01a.4.4 0 0 1 .26-.05l-.16.23-.14.05a.06.06 0 0 0-.04.04l-.03.1c-.06.06-.13.2-.23.21-.01-.15-.07-.23-.16-.24.12-.03.17-.1.15-.22.07-.28.1-.48.36-.6.02-.01.03-.02.04-.05.03-.08.05-.23.17-.25.13-.05.27-.07.41-.07Z" fill="#B195D5"/><path d="M8.15 9.02c-.01.11.08.23.28.35.01.04.03.07.06.09a.05.05 0 0 1-.01.09.2.2 0 0 0-.08.05.05.05 0 0 0 0 .06l.05.16-.17.1-.01.01v.02c0 .02.01.02.02.03.03 0 .05.01.05.04v.01l-.06.08c-.01.02 0 .03.02.05l.34.19-.17.09c-.02-.05-.05-.07-.1-.07-.02 0-.03 0-.04.03-.03.1-.01.18.04.24l-.06.17a.1.1 0 0 1-.04.05.44.44 0 0 0-.16.16c-.03.02-.05.05-.04.08l-.02-.2c.08-.15.04-.25-.1-.31l-.2-.15h-.03a.05.05 0 0 0-.05.02v.03l.15.56c-.05 0-.1 0-.14-.02.02-.05.03-.1.02-.13 0-.03-.04-.05-.09-.06a.51.51 0 0 1-.15-.08l.11-.17a.1.1 0 0 0 .02-.06l-.02-.4c0-.02 0-.03-.02-.04a.34.34 0 0 0-.22-.1l.16-.23.16-.04h.08a.04.04 0 0 0 .03-.03.04.04 0 0 0-.02-.03l-.04-.03c-.03-.01-.04-.04-.03-.07l.2-.6c.1 0 .2.01.28.06Z" fill="#8541A0"/><path d="M11.74 8.95a.1.1 0 0 1 .07.02c.03.02.02.03 0 .03-.12.01-.2.08-.25.2-.02.04 0 .07.04.07h.1l-.08.02c-.02.02-.02.03 0 .04l.1.02c-.03.02-.06.02-.07 0a.36.36 0 0 0-.21 0 .04.04 0 0 0-.03.05l.02.01.08.05c.02.01.03.03.02.05-.02.03-.05.06-.1.07-.04.01-.05 0-.06-.03l-.05-.26a.06.06 0 0 0-.04-.05c-.04-.01-.07 0-.1.04-.02.02-.04.02-.05 0a.09.09 0 0 1-.02-.04c.05-.06.13-.1.26-.13.05 0 .1 0 .14-.02.04-.02.05-.04.03-.06a.65.65 0 0 0 .2-.08Z" fill="#C1A6D1"/><path d="M8.37 9.06c.05.05.11.09.18.11l.04.04c.03.07.1.08.18.04-.04.06-.06.11-.04.14-.05.17-.02.3.08.37h-.1c-.02 0-.04.03-.04.07l-.02.15a.1.1 0 0 1-.05.08.12.12 0 0 1-.1.01c-.02 0-.05-.04-.08-.09v-.06l.08-.07v-.04l-.05.01a.38.38 0 0 0-.06-.16V9.6a.2.2 0 0 1 .09-.05.05.05 0 0 0 .03-.04.05.05 0 0 0-.02-.05.16.16 0 0 1-.06-.09c.02 0 .03-.02.02-.05a.33.33 0 0 0-.2-.2.05.05 0 0 1-.03-.04c0-.02 0-.04.02-.05a.06.06 0 0 1 .04-.01c.03 0 .06.02.1.04Z" fill="#A35BBE"/><path d="M10.56 9.54h.04c.06.02.06.04 0 .05l-.18.04a.08.08 0 0 0-.05.03c-.04.05-.08.06-.13.03.03-.17-.02-.34.05-.5.01-.02.03-.02.05-.02l.02.01c.02 0 .02.02.02.04v.27c0 .03.02.05.04.05.04.01.09.01.14 0Z" fill="#C1A6D1"/><path d="m12.28 9.32-.47.16a.05.05 0 0 0-.03.04c-.01.16.02.32-.06.46l-.04-.08a.66.66 0 0 0 .01-.33c.03.1.04.1.05-.02 0-.02 0-.03-.02-.04l-.07-.04c-.03-.01-.03-.03-.02-.06l.02-.05.07-.01.36-.13h.07c.05.02.1.06.13.1Z" fill="#685073"/><path d="m11.65 9.36-.02.05c-.01.03 0 .05.02.06l.07.04.02.04c0 .11-.02.12-.05.02a.61.61 0 0 0-.33.17.07.07 0 0 0-.02.06.07.07 0 0 0 .03.05l.2.11a.05.05 0 0 0 .05 0 .15.15 0 0 0 .06-.06l.04.08a.88.88 0 0 1-.25.36c-.14-.12-.22-.22-.24-.3l.01-.25c0-.04.01-.06.02-.07a.32.32 0 0 0 .07-.04.06.06 0 0 0 .01-.06.06.06 0 0 0-.04-.04h-.02a.26.26 0 0 0-.19-.14.05.05 0 0 1-.04-.04c0-.04.01-.1.06-.16l.02.04c.01.02.03.02.04 0 .04-.04.07-.05.11-.04.02 0 .04.02.04.05l.05.26c0 .03.02.04.05.03.06-.01.1-.04.1-.07.02-.02.01-.04-.01-.05l-.08-.05a.04.04 0 0 1-.02-.03.04.04 0 0 1 .03-.04.36.36 0 0 1 .2.02Z" fill="#B775C5"/><path d="M7.4 9.36c-.06.08-.07.17-.03.2.05.04.13 0 .2-.07.05-.08.07-.18.02-.21-.04-.04-.13 0-.2.08Z" fill="#493354"/><path d="M8.1 11.02a.44.44 0 0 1 .17-.16.1.1 0 0 0 .04-.05l.06-.17.1-.2.17-.09c.04 0 .06 0 .07-.02.13-.22.17-.4.1-.57-.1-.07-.13-.2-.08-.37.31.44.24.95-.1 1.36a.78.78 0 0 1-.52.27Z" fill="#685073"/><path d="M11.28 9.57h.02a.06.06 0 0 1 .03.1.32.32 0 0 1-.07.05l-.02.07v.24c.01.1.09.2.23.3l-.25.15a.06.06 0 0 0-.04.05c-.02.2 0 .4.06.6-.04.02-.07.02-.1 0v-.06l-.01-.13a.86.86 0 0 1 0-.43c.03-.11.04-.2.05-.3 0-.02-.01-.03-.04-.03a.1.1 0 0 0-.05.02c-.12.06-.2.04-.24-.05a.1.1 0 0 0-.04-.04c-.06-.03-.08-.07-.08-.1a17.14 17.14 0 0 0-.48-.13.06.06 0 0 0-.04.05c0-.04 0-.09-.02-.13l.01-.06.04-.05c.05.03.09.02.13-.03a.08.08 0 0 1 .05-.03l.18-.04c.06-.01.06-.03 0-.05h-.04c.3-.2.42 0 .66.14a.06.06 0 0 0 .05 0c.05-.01.06-.05 0-.1Z" fill="#9657AC"/><path d="M11.7 9.57c.01.15 0 .26-.02.33a.15.15 0 0 1-.06.06.05.05 0 0 1-.05 0l-.2-.11a.07.07 0 0 1 0-.11c.1-.1.21-.16.32-.17Z" fill="#FEFDFE"/><path d="m7.65 9.72-.16.04a.4.4 0 0 0-.26.04.03.03 0 0 1-.02 0 .03.03 0 0 1-.02 0v-.03c0-.02 0-.03.02-.04.11-.13.26-.15.44-.08a.04.04 0 0 1 .02.04v.02l-.02.01Z" fill="#F9F0F9"/><path d="M8.81 9.76c.07.17.03.35-.1.57 0 .02-.03.03-.07.02l-.34-.2c-.03 0-.03-.02-.02-.04l.06-.08v-.01c0-.03-.02-.04-.05-.04 0 0-.02-.01-.02-.03v-.02l.01-.01.17-.1h.04c.02 0 .02.01 0 .03l-.06.07c-.02.02-.02.04-.01.06.03.05.06.08.09.09h.05l.04-.01a.1.1 0 0 0 .05-.08c0-.05 0-.1.02-.14 0-.05.02-.07.04-.08h.1Z" fill="#FEFDFE"/><path d="m10.73 10-.31.3a.22.22 0 0 1-.05-.05.9.9 0 0 0-.16-.32c0-.02.01-.04.04-.05h.06l.42.12Z" fill="#C1A6D1"/><path d="M7.46 10.76c-.04.01-.05.03-.05.06s.01.04.04.06l.06.01.02.01.02.03.01.12-.48-.34c.04-.02.04-.08 0-.19 0-.04 0-.06.04-.06.01 0 .02-.01.01-.04a.1.1 0 0 0-.01-.03c-.04-.07-.04-.14 0-.22l.03-.09c0-.02.02-.04.04-.04l.14-.05c.1.01.17.04.22.1l.02.04.02.4a.1.1 0 0 1-.02.06l-.1.17Z" fill="#6B3C81"/><path d="M10.73 10c0 .04.02.08.08.1a.1.1 0 0 1 .04.05c.04.1.12.11.24.05l-.08.26c0 .02-.02.03-.04.04a.2.2 0 0 1-.12-.01c-.02-.01-.03-.03-.02-.05.03-.05.02-.1-.03-.17 0-.01 0-.02-.02-.02a.05.05 0 0 0-.05 0l-.02.03c-.03.08-.02.13.04.16a.05.05 0 0 1 .03.04l.02.6a.2.2 0 0 1 0 .11c-.02 0-.05 0-.07.02l-.04-.66v-.04a.1.1 0 0 0-.04-.04l-.23-.17.31-.3Z" fill="#B775C5"/><path d="m5.77 10.43-.04.08c-.05.1 0 .17.1.2H5.7a.05.05 0 0 0-.04.04.45.45 0 0 0-.05.18c-.1-.14-.14-.32-.09-.54 0-.02 0-.04-.02-.05-.28-.2-.61-.3-.88-.03-.18.19-.37.44-.4.71-.03-.15-.02-.32.01-.5a.81.81 0 0 1 .7-.45c.3-.03.55.08.75.33.02.02.05.03.1.03Z" fill="#C1A6D1"/><path d="m5.6 10.93.18.05c.02 0 .03.02.03.05 0 .04-.02.1-.06.17-.06 0-.14-.01-.24-.04a.89.89 0 0 0-.23-.03c-.21 0-.35.02-.53-.04-.13-.04-.26-.09-.4-.05l-.14.03v-.05c.03-.27.22-.52.4-.7.27-.29.6-.17.88.02.02 0 .02.03.02.05-.05.22-.02.4.1.54Z" fill="#E6DEEE"/><path d="M6.73 10.15c.1.01.15.1.16.24-.01.03-.03.05-.05.05-.34.08-.68.17-1 .28-.1-.04-.16-.11-.1-.21a.64.64 0 0 0 .03-.08l.96-.28Z" fill="#F9F0F9"/><path d="M7.12 10.17c-.04.08-.04.15 0 .22l.01.03v.04c-.05 0-.06.02-.04.06.03.11.03.17 0 .2l-.15-.17c-.01-.02-.03-.03-.05-.02l-.93.28a.12.12 0 0 0-.09.1.91.91 0 0 1-.78.85.84.84 0 0 1-.8-.3c-.22-.27-.24-.58-.07-.93-.03.17-.04.34-.01.5v.04c-.01.12.03.21.13.27a.02.02 0 0 0 .02 0v-.03c0-.03 0-.05.04-.05.05 0 .09 0 .1.02.19.13.32.2.4.22.23.05.48-.1.66-.24a.08.08 0 0 1 .05-.02c.02 0 .03 0 .04.02a.03.03 0 0 0 .03 0c.05-.01.08-.03.07-.06a.44.44 0 0 0 .06-.17c0-.03-.01-.04-.03-.05l-.18-.05c.01-.08.02-.14.05-.18a.05.05 0 0 1 .04-.03h.14c.34-.11.67-.2 1.01-.28.02 0 .04-.02.05-.05.1-.01.17-.15.23-.22Z" fill="#685073"/><path d="M11.13 10.94c.02.08-.1.13-.33.14l-.02-.6-.01-.02-.02-.02c-.06-.03-.07-.08-.04-.16l.02-.03a.05.05 0 0 1 .05 0c.01 0 .02 0 .02.02.05.06.06.12.03.17 0 .02 0 .04.02.05a.2.2 0 0 0 .12 0c.02 0 .04-.01.04-.03l.08-.26a.1.1 0 0 1 .05-.02c.03 0 .04.01.04.03 0 .1-.02.19-.06.3a.86.86 0 0 0 0 .43Z" fill="#F9F0F9"/><path d="m8.46 10.44-.09.2c-.05-.06-.07-.14-.04-.24 0-.03.02-.04.04-.03.05 0 .08.03.1.07Z" fill="#BD89D1"/><path d="M7.95 10.59c-.01.04-.01.09.01.14l.01.06c-.01.17-.06.26-.15.26l-.15-.56a.05.05 0 0 1 .02-.05.05.05 0 0 1 .06 0l.2.15Z" fill="#6B3C81"/><path d="M8.05 10.9c-.08.28-.08.57-.01.89l-.01.09-.12-.02a.2.2 0 0 0-.15.03.18.18 0 0 0-.08.12c0 .08-.07.14-.2.2a.83.83 0 0 0-.21.29.66.66 0 0 0-.03.28c0 .16-.02.3-.08.43-.08-.09-.1-.23-.07-.41l.13-.44c.1-.13.23-.23.39-.3v-.87c0-.11.02-.16.07-.16l.14.02c.09 0 .14-.1.15-.26v-.06a.19.19 0 0 1-.02-.14c.14.06.17.16.1.32Z" fill="#F9F0F9"/><path d="m7.46 10.76.15.08c.05.01.08.03.09.06.01.04 0 .08-.02.13-.05 0-.08.05-.07.16v.86l-.05-1-.01-.12a.04.04 0 0 0-.04-.04l-.06-.01c-.03-.02-.04-.03-.04-.06s.01-.05.05-.06Z" fill="#BD89D1"/><path d="m8.05 10.9.02.2c-.02.29 0 .57.07.85H8.1l-.02.02V12a.34.34 0 0 0-.04-.11.13.13 0 0 0 .01-.1c-.07-.3-.07-.6 0-.87Z" fill="#8A77B0"/><path d="M11.24 11.14c.28.13.45.23.59.5v.12c-.08-.01-.17.04-.26.17a.33.33 0 0 0-.07.2c0 .08.02.15.05.22a1.75 1.75 0 0 1-.46-.54c-.1-.18-.03-.29.03-.45a.1.1 0 0 0-.1-.12.5.5 0 0 1-.22-.05.2.2 0 0 0 0-.11c.24-.01.35-.06.33-.14v.13c0 .03 0 .05.02.06.02.02.05.02.09 0ZM5.75 11.2c0 .03-.02.05-.07.06h-.03l-.04-.02c-.02 0-.03 0-.05.02-.18.13-.43.3-.66.24-.08-.02-.21-.1-.4-.22-.01-.02-.05-.02-.1-.02-.03 0-.04.02-.03.05v.02a.02.02 0 0 1-.02.01c-.1-.06-.15-.15-.14-.27l.15-.03c.13-.04.26.01.39.05.18.06.32.05.53.04.05 0 .13 0 .23.03s.18.04.24.04Z" fill="#C1A6D1"/><path d="M10.8 11.2a.5.5 0 0 0 .23.04.1.1 0 0 1 .09.12c-.06.16-.12.27-.03.45.12.2.27.39.46.54.02.03.04.05.07.06-.06.03-.1.05-.1.08-.22-.1-.27-.26-.38-.44a.08.08 0 0 0-.05-.04c-.1-.02-.18 0-.27.1.01-.06-.01-.1-.08-.13a.07.07 0 0 1-.03-.04.27.27 0 0 1 .04-.26.09.09 0 0 0 .01-.05v-.16a.05.05 0 0 0-.01-.04.04.04 0 0 0-.04 0 .7.7 0 0 0-.25.1.21.21 0 0 0-.09.16l-.01.48.03.01.16-.01c.09-.02.17.01.27-.06l-.07.14a.55.55 0 0 1-.24.08c-.06 0-.08.03-.07.09.01.11 0 .16-.07.16a.9.9 0 0 1-.12-.85.8.8 0 0 1 .48-.52.14.14 0 0 1 .07-.02Z" fill="#BD89D1"/><path d="M10.82 12.1c-.1.08-.18.05-.27.07-.09.01-.14.02-.16.01l-.03-.01.01-.48a.21.21 0 0 1 .09-.17.7.7 0 0 1 .27-.1.04.04 0 0 1 .03.03v.18l-.01.05a.27.27 0 0 0-.04.26c0 .02.01.03.03.04.07.03.1.07.08.13ZM10.97 11.54c.04-.03.05-.07.04-.1-.02-.02-.07-.02-.11.02-.04.03-.06.07-.04.1.02.02.06.02.1-.02Z" fill="#E6DEEE"/><path d="M10.37 12.58c.06 0 .08-.05.07-.16-.01-.06.01-.08.07-.09.07 0 .15-.03.24-.08.07.02.13.05.18.1l.01.04-.01.02-.12.12v.04l.1.1.06.03c.23.01.41-.06.54-.2.02-.04.05-.06.1-.1.1.04.16.04.23.01a.08.08 0 0 0 .04-.05.95.95 0 0 0-.04-.6l-.01-.13c.19.3.21.58.07.84a.88.88 0 0 1-1.53.11Z" fill="#784F86"/><path d="M11.84 11.76c.08.21.1.41.04.6a.08.08 0 0 1-.04.05c-.07.04-.14.03-.22 0a.16.16 0 0 1-.07-.06.52.52 0 0 1-.05-.22c0-.07.03-.14.07-.2.1-.13.18-.18.27-.17Z" fill="#FEFDFE"/><path d="M8.03 11.88c.02.04.04.07.04.11.14.12.28.17.4.14.18.1.32.3.43.6l-.05.45c.02-.15.01-.3-.02-.44l-.07-.23a.48.48 0 0 0-.3-.23c-.29-.04-.51-.24-.81.02-.05.03-.1.03-.12.02-.02 0-.03-.02-.04-.05v-.06c.12-.06.18-.12.2-.2a.17.17 0 0 1 .07-.12.2.2 0 0 1 .15-.03l.12.02Z" fill="#A35BBE"/><path d="m8.15 11.95.32.18c-.12.03-.26-.02-.4-.14v-.02l.02-.01h.06Z" fill="#E6DEEE"/><path d="M11.51 12.5a.63.63 0 0 1-.54.2c-.02 0-.04-.01-.05-.03l-.1-.1c-.02-.02-.02-.03 0-.04l.1-.12a.04.04 0 0 0 .01-.05.35.35 0 0 0-.18-.11l.07-.14c.09-.1.18-.12.27-.1.02 0 .04.02.05.04.1.18.16.35.37.44Z" fill="#A35BBE"/><path d="M8.46 12.28c-.07 0-.1.02-.09.08a.08.08 0 0 0 .04.07l.3.17c.03.02.04 0 .04-.02v-.07l.08.23a.39.39 0 0 0-.2-.04.06.06 0 0 0-.05.03.4.4 0 0 1-.17.17.05.05 0 0 0-.03.06l.03.28a.87.87 0 0 1-.17-.42c0-.05-.06-.18-.16-.4a.06.06 0 0 0-.05-.05.42.42 0 0 0-.17 0 .07.07 0 0 0-.05.04.42.42 0 0 0-.02.3c.01.03 0 .04-.03.05l-.4.07a.04.04 0 0 1-.04-.02.04.04 0 0 1 0-.05l.33-.46c.3-.26.52-.06.81-.02Z" fill="#C1A6D1"/><path d="m7.48 12.21.01.06c0 .03.02.04.04.05.03.01.07 0 .12-.02l-.32.46a.04.04 0 0 0 .01.07h.03l.4-.07c.02 0 .03-.02.02-.05a.42.42 0 0 1 .02-.3.07.07 0 0 1 .05-.03.42.42 0 0 1 .17 0c.03 0 .04.01.05.03l.16.4c.04.2.1.35.17.43l.32.05-.48.31-.26-.7a.08.08 0 0 0-.04-.04.08.08 0 0 0-.05 0l-.55.16a.09.09 0 0 0-.05.05.39.39 0 0 0-.04.18c0 .02-.02.03-.04.02-.04 0-.07-.03-.06-.06a.89.89 0 0 0 .08-.43c-.01-.13 0-.22.03-.28.04-.1.12-.2.21-.29Z" fill="#BD89D1"/><path d="M8.46 12.28c.13.04.23.11.3.23v.07c0 .03-.02.04-.05.02l-.3-.17a.08.08 0 0 1-.04-.07c0-.06.02-.09.1-.08Z" fill="#FEFDFE"/><path d="m7.22 12.36-.13.44c-.04.14-.06.27-.06.37 0 .08.05.13.13.16.02 0 .03.02.04.05a.3.3 0 0 0 .1.16c.13.1.47.33.64.25.13-.07.23-.13.3-.19l.5-.31c.02 0 .06-.03.11-.1l.05-.47c.1.67-.14 1.09-.74 1.24a.88.88 0 0 1-.58-.02c-.68-.3-.71-1-.36-1.58Z" fill="#685073"/><path d="M8.83 12.74c.03.14.04.3.02.44-.05.08-.09.11-.12.1l-.32-.04-.03-.28c0-.03.01-.04.03-.06a.4.4 0 0 0 .17-.17.06.06 0 0 1 .05-.03c.07 0 .13 0 .2.04Z" fill="#FEFDFE"/><path d="M7.09 12.8c-.04.18-.01.32.07.4 0 .04.02.06.06.07.02.01.04 0 .04-.02 0-.08.01-.14.04-.18a.09.09 0 0 1 .05-.05l.55-.16h.05c.02.01.04.03.04.05l.26.7-.3.18c-.18.08-.52-.15-.65-.25a.3.3 0 0 1-.1-.16.06.06 0 0 0-.04-.05c-.08-.03-.12-.08-.13-.16 0-.1.02-.23.06-.37Z" fill="#A35BBE"/><defs><linearGradient id="a" x1="3.35" y1="3.12" x2="21.9" y2="24.43" gradientUnits="userSpaceOnUse"><stop stop-color="#1A1E21"/><stop offset="1" stop-color="#06060A"/></linearGradient></defs></svg>