<!-- by TradingView --><svg width="18" height="18" xmlns="http://www.w3.org/2000/svg"><path fill="url(#paint0_linear)" d="M0 0h18v18H0z"/><path d="M13.326 7.731l-1.235-2.47.521-.261L14 7.775 10.466 13H7.534L4 7.775l1.177-2.353h6.189l1.178 2.355-2.808 4.057H8.264L5.456 7.777l.595-1.19h4.44l.594 1.187-2.081 3.122-2.161-3.143H9v.583H7.951l1.045 1.52 1.416-2.124-.28-.562h-3.72l-.28.56 2.438 3.52h.86l2.438-3.52-.862-1.725H5.537L4.674 7.73l3.17 4.685h2.313l3.17-4.685z" fill="#fff"/><defs><linearGradient id="paint0_linear" x1="18" y1="5.625" x2="0" y2="14.625" gradientUnits="userSpaceOnUse"><stop stop-color="#3F59A1"/><stop offset="1" stop-color="#3B8DCE"/></linearGradient></defs></svg>