<!-- by TradingView --><svg width="18" height="18" viewBox="0 0 18 18" xmlns="http://www.w3.org/2000/svg"><path fill="#FE4100" d="M0 0h18v18H0z"/><path d="M8.15 6.63c.02.2.3.2.45.2a25.94 25.94 0 0 0 2.14-.05c.21-.03.33-.15.33-.35l.06-1.99c0-.24.13-.45.4-.44.39.01.71.16.98.44.42.45.74 1.15.92 1.71.24.78.41 1.5.5 2.16.08.53.1 1.08.03 1.64-.1.86-.36 1.68-.9 2.37-.15.19-.3.33-.52.48A7.53 7.53 0 0 1 8.6 14c-1.25.04-2.48-.1-3.7-.43a2.09 2.09 0 0 1-1.25-1.25 2.6 2.6 0 0 1-.12-1.16c.02-.14.11-.25.27-.33l.45-.22c.34-.17.65-.38.91-.65.83-.8 1.1-1.86.87-2.99-.03-.18-.15-.17-.31-.14-.24.05-.58.04-.68-.22-.08-.24.12-.68.26-.86.52-.66 1.34-1.02 2.15-.66.12.06.21.13.28.22.27.35.39.85.43 1.32Z"/><path d="m8.1 8.37.14.65.01.03h.03c.29.03.59.07.85.16l.03.03c.12.24.14.47.06.71a.56.56 0 0 1-.17.26c-.17.16-.34.27-.5.34-.02 0-.02.02-.02.03l.03.15a.1.1 0 0 1-.04.1.1.1 0 0 1-.1.01c-.13-.06-.18-.07-.24-.2l-.01-.03h-.03c-.37.05-.69-.02-1.03-.14a.07.07 0 0 1-.04-.03.07.07 0 0 1 0-.04c.03-.17-.03-.22-.14-.32-.07-.06-.06-.08.03-.06.2.05.47.19.7.2l.33-.01c.01 0 .02-.01.02-.03l-.13-.63c0-.02-.01-.03-.03-.03l-.3-.03a.95.95 0 0 1-.6-.34.4.4 0 0 1-.1-.25c0-.2.06-.38.19-.52.07-.08.22-.2.34-.24.08-.03.2-.1.18-.2a.53.53 0 0 1 .01-.34h.03l.03.07.02.02.03-.01c.03-.03.03-.07.09-.07.15-.02.2.22.22.32 0 .02.01.02.03.02l.15-.02c.21 0 .72.04.86.2.01 0 .02.03.02.07l.03.17c0 .03 0 .05-.03.06-.13.07-.22.07-.38.03a1.64 1.64 0 0 0-.55-.1c-.01-.01-.02 0-.01.01ZM11.32 9.73l.06-.44a.05.05 0 0 0-.03-.05c-.27-.08-.62-.37-.5-.67.1-.3.35-.36.64-.4a.07.07 0 0 0 .07-.06c0-.07.03-.15.08-.23 0-.01.02-.02.04 0l.01.02.03.02h.04c.16-.02.11.16.12.27 0 .01 0 .02.02.03.2.04.38.12.55.25.12.09.1.17.06.3 0 .02-.02.03-.03.03-.1.02-.18 0-.23-.04a1.9 1.9 0 0 0-.4-.23l-.01.01-.07.45a.05.05 0 0 0 .03.05 2.93 2.93 0 0 1 .55.31v.02a.73.73 0 0 1-.1.47.48.48 0 0 1-.25.2 1.5 1.5 0 0 1-.37.1l-.03.01c-.03.06-.02.17-.13.18l-.03-.01a.34.34 0 0 1-.12-.21c0-.02 0-.03-.02-.03-.27-.06-.46-.2-.68-.35l-.01-.02V9.7c.06-.13.03-.17-.01-.3-.02-.04 0-.05.04-.02l.37.28c.04.03.13.06.28.1.02 0 .02 0 .03-.02Z" fill="#FE4100"/><path d="M7.79 9.02a.01.01 0 0 1 0 .01h-.01a.3.3 0 0 1-.31-.1.28.28 0 0 1 .17-.45.01.01 0 0 1 .02 0l.13.54ZM11.44 8.9a.2.2 0 0 1-.17-.15.2.2 0 0 1 .07-.21.2.2 0 0 1 .15-.04l-.05.4ZM11.72 9.42h.03a.21.21 0 0 1 .13.07.18.18 0 0 1 .03.13c0 .05-.04.1-.08.12a.2.2 0 0 1-.14.03h-.02a.01.01 0 0 1-.01-.02l.06-.33ZM8.35 9.56h.01v-.01c.09-.01.17 0 .24.04.06.03.1.1.12.16.02.07 0 .14-.05.2a.33.33 0 0 1-.2.12h-.01l-.1-.5Z"/><path d="M12.78 10.68c-.11.02-.2.02-.23 0l-.26-.13c-.1-.05-.09-.07.01-.04a.4.4 0 0 0 .33-.06c.06-.04.08-.03.15-.02a.05.05 0 0 0 .04-.01.04.04 0 0 0 .01-.03l.08-.46a.34.34 0 0 0 0-.18c0-.03.01-.03.04-.02l.01.02c.1.17.13.35.1.53 0 .08.02.09.07.03a.25.25 0 0 1 .07-.06.6.6 0 0 0 .22-.12c.03-.03.04-.03.02 0-.1.19-.22.38-.43.44a.13.13 0 0 0-.08.07c-.03.08-.05.16-.1.24a40.22 40.22 0 0 0-.22.27v-.01l-.01-.02c.1-.13.16-.26.2-.41 0-.02 0-.03-.02-.03Z" fill="#FE4100"/></svg>