<!-- by TradingView --><svg width="18" height="18" viewBox="0 0 18 18" xmlns="http://www.w3.org/2000/svg"><path fill="#000B41" d="M0 0h18v18H0z"/><path fill-rule="evenodd" d="M8.94 5.46c-.01.07-.03.07-.04 0-.14-.48-.33-.9-.57-1.28-.07-.1-.2-.17-.32-.15a5.04 5.04 0 0 0-3.76 6.56c.07.23.18.34.44.34.47 0 .92-.08 1.35-.23.08-.02.08 0 .03.05-.22.21-1.05 1.13-.9 1.43a5 5 0 0 0 7.58.13c.1-.12.2-.28.12-.43a4.24 4.24 0 0 0-.88-1.16c-.07-.05-.06-.07.03-.05.46.12.92.17 1.4.15.16-.01.26-.07.3-.19a5.04 5.04 0 0 0-3.8-6.61c-.22-.05-.38.01-.48.19-.24.42-.4.84-.5 1.25ZM10.62 8a3 3 0 0 0 2.72 1.47.05.05 0 0 1 .03.04v.02l-.16.65c-.01.04-.03.06-.07.05a3.77 3.77 0 0 1-3.29-5.51c.02-.04.05-.05.09-.04l.64.17a.05.05 0 0 1 .03.03.05.05 0 0 1 0 .04c-.55.95-.55 2.13.01 3.08Zm-3.33.02a3 3 0 0 0-.1-3.06.05.05 0 0 1 .04-.06l.63-.18c.04-.01.07 0 .08.03a3.72 3.72 0 0 1-3.07 5.55c-.03 0-.06-.01-.07-.05l-.17-.63a.05.05 0 0 1 .05-.07c1.08 0 2.08-.57 2.6-1.53Zm5.94 0a1.54 1.54 0 0 1-1.38-.76c-.3-.5-.29-1.09 0-1.58.02-.04.01-.07-.03-.1l-.58-.41c-.02-.02-.04-.01-.06 0a2.37 2.37 0 0 0 2.18 3.66c.03 0 .04-.01.03-.04l-.08-.72c0-.04-.03-.06-.08-.06Zm-7.2-.7c.25-.47.25-1.06-.02-1.52a.06.06 0 0 1 .02-.09l.56-.44a.06.06 0 0 1 .09.02 2.38 2.38 0 0 1-2.05 3.65.06.06 0 0 1-.03-.06l.07-.72a.06.06 0 0 1 .06-.05 1.53 1.53 0 0 0 1.3-.8Zm7.04.02a4.08 4.08 0 0 0-.75-1.22.03.03 0 0 0-.02.03c-.09.3-.06.56.08.79a.96.96 0 0 0 .67.45.03.03 0 0 0 .02-.03v-.02ZM5.5 7a.94.94 0 0 1-.57.44.03.03 0 0 1-.02-.04 4.2 4.2 0 0 1 .64-1.12.03.03 0 0 1 .03.02c.06.26.03.5-.08.7Zm2.14 2.77c-.02.02-.02.03.01.02.7-.23 1.4-.28 2.06-.16a31.54 31.54 0 0 0 .55.07 4.45 4.45 0 0 1-1.28-2.11c-.02-.08-.04-.08-.06 0-.2.83-.63 1.56-1.28 2.18Zm1.38.41c1.3-.01 2.46.65 3.17 1.74.02.03.02.06-.01.09l-.46.46a.05.05 0 0 1-.05.02.05.05 0 0 1-.04-.03 2.96 2.96 0 0 0-5.2.06l-.03.01h-.02l-.02-.01-.47-.46c-.03-.03-.04-.06-.01-.09A3.72 3.72 0 0 1 9 10.18Zm2.1 2.6a2.36 2.36 0 0 0-4.16.06.06.06 0 0 0 .03.06l.66.28a.06.06 0 0 0 .08-.03 1.53 1.53 0 0 1 2.63-.02.06.06 0 0 0 .08.02l.65-.29a.06.06 0 0 0 .03-.03.06.06 0 0 0 0-.05Zm-2.08.6a4.2 4.2 0 0 1-.66-.06.03.03 0 0 1 0-.04c.2-.18.42-.27.66-.27a.95.95 0 0 1 .67.28.03.03 0 0 1-.01.03l-.02.01c-.2.03-.42.05-.64.05Z" fill="#fff"/></svg>