<!-- by TradingView --><svg width="18" height="18" viewBox="0 0 18 18" xmlns="http://www.w3.org/2000/svg"><path fill="#F0F3FA" d="M0 0h18v18H0z"/><path d="m9 3.02.04.03h-.15a.12.12 0 0 0-.04.03l-.25-.05h-.01v.01c.2.04.36.12.5.25l.2.18c.11.08.23.14.36.2.05.02.13.09.24.2.09.08.17.14.28.17.1.03.24.04.38.03l.06.01-.03.01c-.18 0-.33-.01-.44-.04a.57.57 0 0 1-.32-.22h-.01v.02c.2.25.47.27.77.24-.22.07-.44.09-.66.06-.17-.03-.27-.04-.4.06a.08.08 0 0 0-.03.1c.03.1.1.2.18.32.14.17.15.36.16.58v.27l-.03.45c0 .16-.02.3-.05.44l-.15.5c.03-.17.06-.34.07-.51 0-.11 0-.23-.1-.29a.26.26 0 0 1-.1-.07c-.15-.21.04-.51-.07-.75a3.02 3.02 0 0 1-.19-.49.02.02 0 0 0-.02.01.97.97 0 0 1-.37.26 6 6 0 0 0-.18-.43 1.33 1.33 0 0 1-.08-.23c-.05-.2-.07-.36-.13-.57a1.97 1.97 0 0 1-.06-.7.03.03 0 0 1 .03 0c.14.01.26.05.37.1.2.1.39.34.61.45a10.96 10.96 0 0 0 .41.17V3.8l-.34-.17a.81.81 0 0 1-.24-.17 1.94 1.94 0 0 0-.3-.28c-.12-.08-.3-.14-.54-.17.2-.03.42-.03.64 0Z" fill="#736D5E"/><path d="M11.35 3.48c-.2.23-.31.46-.67.48a.86.86 0 0 1-.58-.18c-.2-.15-.35-.3-.49-.45a19.83 19.83 0 0 0-.57-.29L9 3.03h.06l.44.03c.2 0 .34.01.4.03.2.03.35.04.53.1l.45.12.46.18Z" fill="#C2BCAB"/><path d="M8.37 3.02c.23.03.42.09.54.17.06.04.16.13.3.28.04.05.12.1.24.17a19.15 19.15 0 0 1 .35.18h-.01l-.4-.17c-.23-.1-.42-.36-.62-.45a1.23 1.23 0 0 0-.39-.1.03.03 0 0 0-.01.02c-.02.25 0 .48.06.68.06.2.08.38.13.57.02.07.04.15.08.23a6 6 0 0 1 .2.43.97.97 0 0 0 .36-.26.02.02 0 0 1 .03.01c.03.14.1.3.17.47.1.24-.08.54.07.75.02.03.05.05.1.07.1.06.1.18.1.29-.01.17-.03.34-.08.5l-.03.07c.02-.22 0-.5-.15-.64-.09-.08-.13-.16-.14-.24-.02-.1-.02-.23-.01-.38a.1.1 0 0 0-.07-.1 1.66 1.66 0 0 1-.41-.27 1 1 0 0 1-.14-.25l-.32-.85c-.1-.18-.25-.35-.34-.5a14.96 14.96 0 0 1-.25-.45.04.04 0 0 0-.06 0c-.05.07-.1.15-.13.25l-.25.83c-.07.23-.2.32-.38.43a.82.82 0 0 0-.38.48 3.01 3.01 0 0 0-.05 1.91c.03.13.06.33.07.58.02.22-.08.42-.08.63 0 .08 0 .15.02.2.04.1.09.24.13.4.04.11.03.28-.01.5.01-.19-.01-.36-.08-.52-.14-.36-.22-.56-.25-.6a2.43 2.43 0 0 0-.13-.23h-.01v.02a1 1 0 0 1 .19.4H6.3v.04L6.3 8.5h-.02v.03c.04.07.05.13.05.17-.01.05 0 .12.02.23-.06-.33-.16-.6-.3-.82a.75.75 0 0 0-.44-.3.84.84 0 0 0-.43-.07.2.2 0 0 1-.06-.02c-.02 0-.02-.01 0-.02.23-.19.14-.34.06-.58-.07-.17 0-.4.05-.59a.05.05 0 0 1 .07-.04.7.7 0 0 1 .24.14c.15.12.27.25.37.4.05.06.08.05.07-.03 0-.21.04-.42.15-.6.08-.14.16-.26.18-.4.04-.38.12-.74.26-1.1.05-.13.13-.29.26-.35l.16-.03c.16-.03.26-.14.31-.31.07-.24.1-.48.11-.72 0-.12.07-.22.2-.32.24-.07.5-.12.77-.15Z" fill="#8F8C7C"/><path d="M9.04 3.05a19.83 19.83 0 0 1 .57.28c.14.15.3.3.49.45.16.13.36.19.59.18.35-.02.46-.25.66-.48l.65.31a.85.85 0 0 1-.22.06c-.18 0-.35 0-.54.06l-.16.03v.02l-.47.12-.06-.01c-.3 0-.57-.07-.72-.35.22.3.5.34.85.32V4c-.26-.02-.47-.07-.64-.22-.19-.15-.37-.34-.56-.45a3.1 3.1 0 0 0-.6-.29h.16Z" fill="#B7B09E"/><path d="M8.85 3.08c.18.07.26.14.4.24.04.04.11.08.2.13.14.07.27.16.38.27.15.28.41.34.72.35-.14 0-.27 0-.38-.03a.59.59 0 0 1-.28-.17 1.1 1.1 0 0 0-.24-.2 2.5 2.5 0 0 1-.35-.2c-.04-.02-.1-.08-.2-.18a.93.93 0 0 0-.5-.25s-.01 0 0 0v-.01l.25.05Z" fill="#8F8C7C"/><path d="M9.83 3.72c-.11-.1-.24-.2-.38-.27l-.2-.13c-.14-.1-.22-.17-.4-.24l.04-.03c.2.07.4.17.59.29.19.11.37.3.56.45.17.15.38.2.63.22l.01.01v.02c-.35.02-.63-.02-.85-.32Z" fill="#A29A84"/><path d="M7.6 3.17c-.13.1-.2.2-.2.32 0 .24-.04.48-.1.72-.06.17-.16.28-.32.3l-.16.04c-.13.06-.2.22-.26.35-.14.36-.22.72-.26 1.1-.02.14-.1.26-.18.4-.1.18-.15.39-.15.6 0 .08-.02.09-.07.02-.1-.14-.22-.27-.37-.4a.7.7 0 0 0-.24-.13.05.05 0 0 0-.07.04c-.05.2-.12.42-.05.6.08.23.17.38-.07.57v.02a.2.2 0 0 0 .07.02c-.1 0-.2.01-.3.06-.03-.17-.12-.2-.22-.27-.09-.06-.11-.13-.06-.23.08-.14.14-.23.18-.35.08-.29.2-.77.6-.68.06.02.13.06.23.15.09.09.18.16.28.22l.03-.01c.08-.19.12-.33.13-.44 0-.24.04-.44.11-.59.13-.2.26-.4.33-.62a7.84 7.84 0 0 1 .23-.6c.24-.06.47-.1.5-.4a3.4 3.4 0 0 0 0-.7l.38-.11Z" fill="#79786A"/><path d="m8.32 4.2-.6-.68h-.03c-.04.15-.1.3-.18.45l-.15.32-.13.33c-.06.15-.13.27-.21.36-.08.08-.23.18-.3.3a.45.45 0 0 0-.07.14 4.9 4.9 0 0 0-.1 1.33l.08.88a1 1 0 0 0 .1.3l.12.23c.11.18.14.38.12.6l-.06.46c-.02.11.01.2.1.26.17.13.23.22.3.44.03.13.07.22.1.26.12.21.31.31.5.44l.22.15c.13.1.27.18.42.25.02 0 .02.01.02.03l-.2.31c-.07.13-.06.24.04.34.06.07.21.11.32.17.05.02.13.08.22.15.08.07.17.12.26.16l-.04.03a.6.6 0 0 1-.33.03.52.52 0 0 1-.24-.14 3.73 3.73 0 0 0-.2-.18c-.1-.08-.18-.17-.2-.28l-.05-.25c-.03-.1-.06-.15-.1-.18-.15-.1-.28-.22-.38-.35l-.23-.3-.4-.44a1.86 1.86 0 0 0-.33-.27.04.04 0 0 0-.04.01v.02c-.04.4 0 .79.15 1.14a7.73 7.73 0 0 0 .61.63.2.2 0 0 1-.03.11l-.03.02a2.22 2.22 0 0 0-.69 0c-.1-.04-.18-.08-.27-.1-.12-.05-.22-.03-.3.05-.13.17-.21.37-.3.54-.07.11-.1.2-.1.25.02.3.4.3.6.44.1.07.17.15.22.25l-.02.83a6.83 6.83 0 0 1-.91-.43l-1.04-.58a5.9 5.9 0 0 1-1.48-3.07l.37.59c.14.2.24.35.32.42.43.41 1.2.41 1.76.32.2-.03.38-.08.53-.13.3-.13.35-.32.33-.64 0-.07 0-.13.02-.2.04-.11.08-.23.1-.35.01-.05 0-.06-.04-.03l-.18.15a.03.03 0 0 1-.04 0 .03.03 0 0 1-.02-.02c0-.14-.03-.27-.08-.4-.07-.16-.26-.18-.42-.15.24-.1.51-.12.69.1-.01.04 0 .06.05.06a.09.09 0 0 0 .07-.06l.07-.16c.04-.22.05-.39.01-.5-.04-.16-.09-.3-.13-.4a.57.57 0 0 1-.02-.2c0-.2.1-.41.08-.63a3.62 3.62 0 0 0-.07-.58 3.01 3.01 0 0 1 .05-1.91c.06-.2.19-.38.38-.48.19-.1.3-.2.38-.43l.25-.83a1.07 1.07 0 0 1 .14-.27.04.04 0 0 1 .05.02c.04.04.07.1.12.18l.13.26c.09.16.24.33.34.51Z" fill="#A29A84"/><path d="M7.2 3.27c.03.24.03.48 0 .72-.02.3-.25.33-.49.4a7.84 7.84 0 0 0-.23.6c-.07.21-.2.41-.33.61.13-.28.2-.47.2-.57l.05-.48c.02-.1.06-.19.11-.27.09-.14.2-.26.31-.39a.7.7 0 0 0 .16-.24c.04-.1.05-.2.05-.32l.17-.06Z" fill="#736D5E"/><path d="M7.03 3.33c0 .11-.01.22-.05.32a.7.7 0 0 1-.16.24c-.12.13-.22.25-.3.39a.76.76 0 0 0-.12.27l-.05.48c0 .1-.07.29-.2.57-.07.15-.1.35-.11.6 0 .1-.05.24-.13.43h-.03c-.1-.05-.2-.12-.29-.21a.57.57 0 0 0-.22-.15c-.4-.09-.52.4-.6.68-.04.12-.1.21-.18.35-.05.1-.03.17.06.23.1.07.19.1.22.27l-.3.13-.1-.11a.05.05 0 0 0-.03-.02c-.16-.01-.26-.1-.3-.24a.5.5 0 0 1-.02-.3c.02-.06.08-.18.18-.34.06-.12.14-.16.26-.24a.35.35 0 0 0 .09-.11l.15-.33c.08-.17.15-.41.27-.6l.48.15a.04.04 0 0 0 .05-.03v-.02l-.3-.52a.09.09 0 0 1-.02-.05l.01-.05h.02l.28.08a.01.01 0 0 0 .01 0l.12-.4a.03.03 0 0 1 .02-.01.03.03 0 0 1 .03 0c.1.07.2.15.28.26a.05.05 0 0 0 .08-.02 3.38 3.38 0 0 0-.02-1.08c.01-.07.03-.12.06-.15.09-.06.17-.14.24-.22l.62-.25Z" fill="#545445"/><path d="m8.32 4.2.32.85a1 1 0 0 0 .13.25.7.7 0 0 1-.25-.25 18.28 18.28 0 0 0-.3-.55c-.35-.06-.8.09-.92.45l-.13.42c-.02.06-.1.2-.26.42-.17.25-.24.53-.2.85l.1.68c.03.15.1.34.25.56.15.27.16.58.04.87-.07.16-.14.3-.11.45a.06.06 0 0 0 .07.05c.03-.01.06-.03.08-.06l.11-.16a.08.08 0 0 1 .1-.01c.04.02.07.06.09.1.09.2.05.37.04.67-.01.12.04.22.14.3.07.07.21.12.32.16.26.12.5.38.67.61v.02l.01.23.03.06.44.38c.22.21.58.14.84 0a.8.8 0 0 1-.42.38.1.1 0 0 0-.06.07.1.1 0 0 0 .02.08l.3.45s0 .02-.02.02h-.04c-.1-.18-.2-.33-.3-.43-.03-.02-.06-.01-.1.02l-.1.04a1.4 1.4 0 0 1-.26-.16c-.1-.07-.17-.13-.22-.15-.1-.06-.26-.1-.32-.17-.1-.1-.11-.21-.03-.34l.19-.31c0-.02 0-.03-.02-.03a2.06 2.06 0 0 1-.42-.25l-.21-.15c-.2-.13-.39-.23-.52-.44a1.31 1.31 0 0 1-.1-.26c-.06-.22-.12-.31-.29-.44-.09-.06-.12-.15-.1-.26l.06-.46a.96.96 0 0 0-.12-.6l-.13-.23a1 1 0 0 1-.08-.3c-.03-.14-.05-.43-.08-.88-.03-.47 0-.91.09-1.33 0-.04.03-.09.07-.14.07-.12.22-.22.3-.3.08-.1.15-.21.21-.36a209.2 209.2 0 0 1 .28-.65c.08-.15.14-.3.18-.44 0-.02.02-.02.03 0l.6.67Z" fill="#B7B09E"/><path d="M6.41 3.58c-.07.08-.15.16-.24.22-.03.03-.05.08-.06.15l.01.14a3.38 3.38 0 0 1 0 .96.05.05 0 0 1-.07 0 1.2 1.2 0 0 0-.3-.27.03.03 0 0 0-.02.01v.01l-.13.4a.01.01 0 0 1-.01 0l-.28-.08H5.3l-.01.05.01.05.3.52a.04.04 0 0 1-.02.05h-.02l-.48-.15c-.1-.04-.17-.01-.2.08-.03.08-.07.36-.2.41-.1.04-.2.08-.3.16-.05.06-.13.11-.21.16a.36.36 0 0 0-.14.11c-.05.1.06.26.12.35a.02.02 0 0 1-.01.04l-.32.1c-.04.02-.05.04-.03.08.01.04.06.12.14.24.03.04.04.08.02.1-.01.03-.05.06-.1.08v.01l.1.12a.04.04 0 0 1-.02.07l-.16.05-.01.01v.01l.02.02h.64c.01 0 .02 0 .02.02 0 .03 0 .05-.03.06a2.8 2.8 0 0 0-.42.11v.02l.03.01c.18 0 .36-.04.53-.1-.11.07-.27.16-.34.26-.23.32.17.75.39.93a1.16 1.16 0 0 1-.32-.26c-.1-.14-.18-.28-.23-.43a4.7 4.7 0 0 0-.36-.14 11.23 11.23 0 0 1-.6-.26 5.99 5.99 0 0 1 3.34-4.49Z" fill="#343223"/><path d="m12 3.79.45.29c.03.18.03.37.03.5a2.36 2.36 0 0 0 .1.67.1.1 0 0 1-.09.1l-.45.09a.04.04 0 0 1-.04-.01.05.05 0 0 1 0-.05L12.1 5c.01-.02 0-.03-.01-.03h-.02a.02.02 0 0 0-.03 0l-.12.21c.03-.18.08-.3.16-.39l.16-.19c.21-.35-.11-.6-.44-.64a2.87 2.87 0 0 0-.22-.02v.02c.2 0 .36.06.51.17-.09-.06-.17-.1-.24-.11a3.3 3.3 0 0 0-.62-.1c.19-.06.36-.05.54-.06.04 0 .1-.02.22-.06Z" fill="#736D5E"/><path d="M10.58 4.09c-.3.03-.58.01-.77-.24v-.02h.01c.09.11.2.19.32.22.11.03.26.04.44.04Z" fill="#79786A"/><path d="M11.24 3.91c.24.02.45.05.62.1.07.02.15.05.24.1l.1.1c.02.02.03.01.01 0a.27.27 0 0 0-.1-.1.92.92 0 0 0-.51-.15l-.01-.01v-.02l.22.02c.33.04.65.3.44.64l-.16.2a.74.74 0 0 0-.16.38l-.42.65c-.15.16-.35.27-.59.32l-.35.07c-.06 0-.1.02-.14.05-.07.05-.15.13-.15.22 0 .1.16.14.25.13.05 0 .06.01.01.04a2.8 2.8 0 0 1-.33.17.73.73 0 0 1-.27.03l-.34.01c.06-.16.1-.33.15-.5.03-.12.05-.27.05-.43a10.79 10.79 0 0 1 .03-.72c0-.22-.02-.41-.15-.58-.1-.11-.16-.22-.2-.33a.08.08 0 0 1 .04-.09c.13-.1.23-.09.4-.06a1.48 1.48 0 0 0 .69-.07l.46-.12v-.01l.17-.04Z" fill="#5D5C4F"/><path d="M11.03 4.38v-.01a.02.02 0 0 1 0-.02c.39-.25.79-.42 1.18-.07a.1.1 0 0 1 0 .14l-.23.17a6.93 6.93 0 0 1-.42.17.3.3 0 0 1-.16 0 .26.26 0 0 1-.15-.1 3.6 3.6 0 0 0-.22-.28Z" fill="#343223"/><path d="M13.95 5.6a2.7 2.7 0 0 0-.9.05c-.46.11-.8.18-1 .2-.25.05-.42.17-.61.28-.09.05-.1.03-.08-.06l.14-.25.43-.65.12-.2a.02.02 0 0 1 .03-.02h.02c.01.01.02.02.01.04l-.12.4a.05.05 0 0 0 .01.04h.02l.02.01.45-.1a.1.1 0 0 0 .08-.13c-.04-.15-.1-.41-.1-.63.01-.13 0-.32-.03-.5.6.43 1.1.94 1.51 1.53Z" fill="#8F8C7C"/><path d="M8.77 5.3c.14.12.28.2.42.27a.1.1 0 0 1 .07.1v.38c.02.08.06.16.15.24.15.14.17.42.15.64L9.53 7l-.12.34v-.1c.1-.37.03-.69-.24-.94a.08.08 0 0 1-.02-.04.62.62 0 0 0-.24-.34 2.6 2.6 0 0 1-.2-.14.57.57 0 0 1-.14-.23c-.08-.26-.1-.43-.21-.56a3.9 3.9 0 0 1-.26-.32.05.05 0 0 0-.06 0l-.34.39c-.14.15-.24.3-.3.42-.09.21-.15.39-.17.53-.06.34-.08.69-.06 1.05 0 .12.03.27.08.37a4.11 4.11 0 0 1 .42 1.38c.03.24.1.48.19.71-.02.25.04.46.17.63l.4.35.18.35c-.17-.23-.41-.5-.67-.6-.1-.05-.25-.1-.32-.16a.37.37 0 0 1-.14-.3c.01-.31.05-.48-.04-.68a.25.25 0 0 0-.08-.1.08.08 0 0 0-.1.01l-.12.16a.13.13 0 0 1-.08.06A.06.06 0 0 1 7 9.2c-.03-.15.04-.3.1-.45a.93.93 0 0 0-.03-.87 1.7 1.7 0 0 1-.25-.56l-.1-.68c-.04-.32.03-.6.2-.85.15-.22.24-.36.26-.42l.13-.42c.12-.36.57-.5.91-.45l.04.02.27.53c.05.09.13.18.25.25Z" fill="#C2BCAB"/><path d="M9.41 7.26c-.06-.26-.14-.5-.26-.72a3.28 3.28 0 0 0-.33-.47l-.34-.45a1.03 1.03 0 0 0-.22-.23c-.15-.11-.35-.12-.5.02-.17.18-.22.46-.25.72a4.7 4.7 0 0 0 0 1.1c0 .1.09.49.25.46.08-.02.14-.14.17-.22l.14-.4c.05-.15.17-.43.37-.3.07.05.13.1.17.17.21.34.33.58.65.73l.03-.01.07-.16c.03.2 0 .41-.1.61a.84.84 0 0 0-.17.27c-.06.16-.1.34-.15.53-.05.13-.08.26-.1.39l-.02.16c0 .1.03.15.12.16.01 0 .02 0 .02-.03a.16.16 0 0 0-.05-.08.05.05 0 0 1-.01-.04c0-.03.03-.05.07-.06l.25.16-.5.13a.07.07 0 0 1-.08-.02 2.39 2.39 0 0 1-.17-.25 1.11 1.11 0 0 0-.43-.41.05.05 0 0 0-.06.03c-.07.15-.1.31-.12.48-.1-.23-.16-.47-.19-.71a4.11 4.11 0 0 0-.42-1.38.92.92 0 0 1-.08-.37c-.02-.36 0-.71.06-1.05.02-.14.08-.32.18-.53.05-.13.15-.27.29-.42a42.14 42.14 0 0 1 .38-.4.05.05 0 0 1 .04.02l.24.31c.11.13.13.3.2.56.03.07.08.15.15.23l.2.14c.11.08.2.2.24.34l.02.04c.27.25.35.57.24.95Z" fill="#D3CBB8"/><path d="M9.41 7.26v.09l-.05.15-.07.16h-.03c-.32-.14-.44-.38-.65-.72a.53.53 0 0 0-.17-.17c-.2-.13-.32.15-.37.3l-.14.4c-.03.08-.09.2-.17.22-.16.03-.25-.35-.26-.45a4.7 4.7 0 0 1 .01-1.1c.03-.27.08-.55.26-.73.14-.14.34-.13.5-.02.08.07.15.14.2.23l.35.45c.16.2.27.36.33.47.12.23.2.46.26.72Z" fill="#DDD6C1"/><path d="M5.07 5.64c-.12.19-.19.43-.27.6l-.15.33a.35.35 0 0 1-.1.11c-.1.08-.19.12-.25.24-.1.16-.16.28-.18.34a.5.5 0 0 0 .01.3c.05.15.15.23.3.24.02 0 .03 0 .04.02l.1.11-.03.02c-.17.07-.35.1-.53.11l-.02-.01v-.02c.12-.05.25-.08.4-.11.04 0 .05-.03.04-.06 0-.02 0-.02-.02-.02h-.64l-.02-.02V7.8l.17-.05a.04.04 0 0 0 .03-.05l-.01-.02-.1-.12v-.01c.05-.02.09-.05.1-.08.02-.02 0-.06-.02-.1-.08-.12-.13-.2-.14-.24-.02-.04 0-.06.03-.08l.32-.1a.02.02 0 0 0 0-.04c-.05-.1-.16-.24-.1-.35a.36.36 0 0 1 .13-.1c.08-.06.16-.11.22-.17.1-.08.2-.12.3-.16.12-.05.16-.33.19-.4.03-.1.1-.13.2-.09Z" fill="#4F4931"/><path d="m13.95 5.6.07.1c-.4-.02-.79 0-1.18.08-.1.02-.21.06-.32.1-.31.1-.65.06-.85.22a1.6 1.6 0 0 0-.43.55c-.06.12-.08.2-.06.27.04.13.05.25.05.38-.04-.18-.1-.4-.08-.57l.05-.35c0-.04 0-.05-.05-.04l-.14.05a.1.1 0 0 0-.07.07c-.06.27-.06.5-.05.8 0 .1-.04.31-.13.64a.74.74 0 0 1-.13.25v.02a.04.04 0 0 0 0 .04h.02c.15.06.37.1.44-.09.05-.13.09-.28.12-.44l-.01.27-.03.27c0 .16-.01.32-.05.48l.1.9.1.14-.07.02a.44.44 0 0 0-.16-.13c-.38-.12-.66-.25-1-.12l.19-.4c.08-.18.2-.23.34-.33.04-.03.06-.08.06-.15a.33.33 0 0 0-.04-.15.64.64 0 0 1-.09-.32 6.55 6.55 0 0 1 .02-.3c-.16-.1-.25-.16-.36-.3a.07.07 0 0 0-.09-.02c-.18.12-.33.25-.45.39l-.33.13c.1-.08.18-.17.27-.26.15-.18.38-.23.53-.38.03-.03.02-.04-.02-.02a.69.69 0 0 1-.6-.03.03.03 0 0 1-.03-.03L9.53 7l.03-.08.03-.06h.01c.11-.02.23-.02.34-.02.12 0 .2-.01.27-.03.1-.04.2-.1.33-.17.05-.03.05-.04 0-.04-.1 0-.26-.02-.26-.13 0-.1.08-.17.15-.22a.26.26 0 0 1 .14-.05l.35-.07c.24-.05.44-.16.59-.32-.07.1-.12.18-.14.25-.04.09-.01.1.07.06.19-.11.36-.23.61-.27.21-.03.54-.1 1-.2.27-.07.58-.09.9-.05Z" fill="#68685E"/><path d="m14.02 5.7.08.13a3.35 3.35 0 0 0-.7.01.4.4 0 0 0-.23.11 22.05 22.05 0 0 0-.94.09c-.28.02-.57.17-.69.44a4.94 4.94 0 0 0-.31.94V7.3c0-.13-.01-.25-.05-.38-.02-.07 0-.15.06-.27.11-.23.26-.41.43-.55.2-.16.54-.13.85-.23l.32-.1c.4-.06.78-.1 1.18-.07Z" fill="#545445"/><path d="m14.1 5.83.06.1c-.26 0-.42.02-.49.05-.17.06-.31.08-.4.08a2.7 2.7 0 0 0-1.06.06.85.85 0 0 0-.3.09c-.1.07-.14.18-.11.34 0 .02.01.03.03.03l.42.04.43.09a10.94 10.94 0 0 0 .88.18l.01.01v.02h-.01s0 .01 0 0l-.3-.02-.67-.14c-.22-.08-.45-.1-.68-.08a.55.55 0 0 0-.2.06.31.31 0 0 0-.16.16.63.63 0 0 1-.28.36c.07-.27.16-.53.27-.78.12-.27.41-.42.69-.44a22.07 22.07 0 0 1 .9-.07l.04-.02a.4.4 0 0 1 .22-.1c.22-.04.45-.04.7-.02Z" fill="#343223"/><path d="M14.16 5.94c.23.39.42.8.56 1.23l-.94-.13a2.24 2.24 0 0 1-.53-.14l.3.03h.01v-.04a10.94 10.94 0 0 1-.88-.18l-.43-.09a15.73 15.73 0 0 1-.45-.07c-.03-.16 0-.27.1-.34a.85.85 0 0 1 .31-.1l.49-.06c.11-.02.3-.02.56 0 .1.01.24-.01.41-.07.07-.03.23-.04.5-.04Z" fill="#1C1D11"/><path d="M11.23 7.3v.12l-.02.26a3.3 3.3 0 0 1-.12.44c-.07.19-.3.15-.44.1a.04.04 0 0 1-.03-.03.04.04 0 0 1 .01-.04c.06-.07.1-.15.13-.25.09-.33.14-.54.13-.64-.01-.3-.01-.53.05-.8a.1.1 0 0 1 .07-.07l.14-.05c.04-.01.06 0 .05.04l-.05.35c-.02.18.04.39.08.57Z" fill="#79786A"/><path d="M12.59 6.76a1.79 1.79 0 0 0-.7-.02 125.89 125.89 0 0 0-.47 1.48c-.06.2-.07.41-.04.62a7.02 7.02 0 0 0 .14.73l-.03.02h-.02a.29.29 0 0 0-.06-.17c.02.09.03.17.01.25a.01.01 0 0 1-.01 0l-.04-.24c-.03-.08-.03-.08-.01 0l.04.24v.01l-.01.02h-.02l-.1-.34-.15-.66c.04-.16.05-.32.05-.48l.02-.27c.02-.1.02-.18.02-.27l.02-.26c0-.07.02-.12.04-.16a.63.63 0 0 0 .28-.36.31.31 0 0 1 .15-.16.55.55 0 0 1 .2-.06c.24-.02.47 0 .69.08Z" fill="#1C1D11"/><path d="m12.6 6.76.65.14c.2.08.37.12.53.14l.94.13c.32 1.02.37 2.05.15 3.1l-.53.12c-.59.09-1.2.13-1.87.13-.16 0-.33-.01-.51-.05a.64.64 0 0 1-.51-.4c-.04-.08-.1-.13-.19-.13a.18.18 0 0 1-.08-.07c-.02-.03-.02-.05 0-.07a.14.14 0 0 1 .07-.04l.07-.02-.06-.38.11.33h.03v-.02l-.04-.23c-.02-.1-.01-.1.01 0a1.4 1.4 0 0 1 .04.24h.01a.63.63 0 0 0-.01-.26c.04.05.06.1.06.16 0 .02.01.02.02.01l.03-.02v-.03a7.05 7.05 0 0 1-.14-.7c-.03-.2-.02-.41.04-.62a124.91 124.91 0 0 1 .47-1.48c.24-.04.47-.03.7.02Z" fill="#090C06"/><path d="m9.53 7-.04.34c0 .01 0 .02.02.03.19.1.4.12.61.03.04-.02.05 0 .02.02-.15.15-.38.2-.53.38-.09.09-.17.18-.27.26l-.08.05c.1-.2.13-.4.1-.61l.05-.15.12-.34Z" fill="#8F8C7C"/><path d="M10.09 9.5a.23.23 0 0 0-.04.1l-.1.1c-.18.02-.35 0-.53-.04l-.1-.05.51.04c.02 0 .03 0 .03-.02a1 1 0 0 1 .27-.32.14.14 0 0 0 .06-.15l-.02-.13c-.01-.07-.04-.08-.07-.02-.19.3-.41.44-.68.4-.02 0-.02 0-.01-.02 0-.02.01-.03.02-.03l.2-.02c.24-.12.37-.34.39-.66.01-.16.02-.26.01-.3 0-.02 0-.03.02-.03h.15a.08.08 0 0 0 .07-.03c.04-.06.03-.12-.03-.17a1.04 1.04 0 0 0-.57-.22c.12-.14.27-.27.45-.39a.07.07 0 0 1 .1.02c.1.14.19.2.35.3a6.73 6.73 0 0 0-.02.3c0 .08.02.19.09.32.03.06.04.11.04.15 0 .07-.02.12-.06.15-.15.1-.26.15-.34.33l-.19.4Z" fill="#5D5C4F"/><path d="M5.17 7.74c.17 0 .31.02.43.08a.53.53 0 0 1-.22.37.03.03 0 0 0-.01.03v.07l.03.12a2.36 2.36 0 0 1-.04.61l-.04.03c-.22.09-.47.12-.73.1-.22-.18-.62-.6-.4-.93.08-.1.24-.19.35-.27 0 0 .02 0 .03-.02l.3-.13c.1-.05.2-.06.3-.06Z" fill="#090C06"/><path d="m6.34 8.93.02.28c0 .03-.01.04-.04.04l-.4.03a3.54 3.54 0 0 0 .1-.7v-.01H6l-.19.54c0 .03-.05.08-.13.13-.06.04-.11.12-.18.16a.05.05 0 0 1-.04 0c-.1-.02-.2 0-.28-.01-.41-.04-.72-.2-.91-.5.1.1.2.2.32.26.26.02.5-.01.73-.1a.09.09 0 0 0 .06-.07c.03-.19.04-.38.02-.57.03.08.1.1.2.04.04-.01.04-.05.01-.1a.03.03 0 0 0-.05 0c-.01.03-.03.04-.07.04-.01 0-.02 0-.03-.02l-.01-.1c-.01-.06-.04-.07-.07-.02v.04l-.01-.07.01-.03c.13-.1.2-.22.22-.37.2.06.35.16.44.29.14.22.24.5.3.82Z" fill="#292B26"/><path d="M9.67 7.93c.2.01.4.09.57.22.06.05.07.1.03.17a.08.08 0 0 1-.07.03h-.15c-.01 0-.02.01-.02.03v.3c-.03.32-.16.54-.4.66-.24-.01-.43-.1-.54-.26A.33.33 0 0 0 8.98 9a.03.03 0 0 1-.02-.03l-.01-.06c.04-.2.08-.37.14-.53.04-.1.1-.18.17-.27l.08-.05.33-.13Z" fill="#090C06"/><path d="M4.27 8.89c.2.3.5.46.9.5.09 0 .19-.01.3.01h.03c.07-.04.12-.12.18-.16.08-.05.12-.1.13-.13a17.58 17.58 0 0 0 .2-.54h.02a.02.02 0 0 1 0 .02c-.01.24-.05.47-.11.69l-.27.16-.01.02v.02a.01.01 0 0 0 .01.01c.3-.1.58-.18.77.14-.18-.23-.45-.21-.69-.11-.2.04-.4.05-.57.02-.21-.04-.46-.1-.73-.2l-.07-.1-.4-.4a.57.57 0 0 0-.4-.3 6.74 6.74 0 0 0-.54-.06l.05-.42a11.28 11.28 0 0 0 .6.26 4.7 4.7 0 0 1 .37.14c.05.15.13.29.23.43Z" fill="#68685E"/><path d="m6.6 9.46-.06.16a.09.09 0 0 1-.07.06c-.04 0-.06-.02-.05-.05-.19-.32-.47-.25-.77-.14a.01.01 0 0 1-.01-.01v-.04l.28-.16.4-.03c.03 0 .04-.01.04-.04l-.02-.28a.62.62 0 0 1-.03-.23c.01-.04 0-.1-.04-.17v-.04h.02l.02.08a.1.1 0 0 1 0-.04s0-.01 0 0h.02a1 1 0 0 0-.2-.4V8.1h.02l.13.22.25.6c.07.17.1.34.08.53Z" fill="#736D5E"/><path d="M5.4 8.41a.35.35 0 0 1-.02-.16c.03-.05.05-.04.07.02l.01.1c0 .02.02.02.03.02.04 0 .06 0 .07-.03a.03.03 0 0 1 .02-.02.03.03 0 0 1 .03.01c.03.05.03.09-.01.1-.1.05-.17.04-.2-.04Z" fill="#D3CBB8"/><path d="M9.8 8.48c.05.11 0 .24-.14.22-.02 0-.03-.01-.03-.03v-.18c0-.02.01-.03.03-.03h.1c.02 0 .04 0 .04.02Z" fill="#68685E"/><path d="M3.96 8.84C3.63 8.69 3.3 8.8 3 9l.02-.53c.18.01.36.04.53.07.18.03.32.13.41.29Z" fill="#A29A84"/><path d="m11.26 9.36.06.38-.1-.13v-.02.02l-.1-.9.14.65Z" fill="#545445"/><path d="m3.96 8.84.4.4c-.18 0-.3 0-.35.02-.29.06-.43.22-.42.49 0 .4.32.66.66.81.45.2.93.32 1.44.34l.43-.1a.1.1 0 0 0 .07-.1c0-.14-.02-.3-.07-.44-.02-.08-.1-.19-.14-.23a.6.6 0 0 1-.1-.4.04.04 0 0 0-.03-.05h-.02c-.31.07-.63.07-.96.02l-.29-.14a.46.46 0 0 1-.15-.13c.27.1.52.17.73.2.18.04.37.03.57-.01.16-.03.35 0 .42.16a1.14 1.14 0 0 1 .09.4l.01.02a.03.03 0 0 0 .04 0l.18-.16c.04-.03.05-.02.04.03-.02.12-.06.24-.1.36a.47.47 0 0 0-.02.2c.02.31-.02.5-.33.63-.15.05-.32.1-.53.13-.56.1-1.33.1-1.76-.32a2.35 2.35 0 0 1-.32-.42l-.37-.59A5.5 5.5 0 0 1 3 9.01c.29-.2.63-.32.96-.17Z" fill="#B7B09E"/><path d="m9.63 9.34-.2.02s-.02.01-.02.03c-.01.01 0 .02.01.02.27.04.5-.1.68-.4.03-.06.06-.05.07.02l.02.13c.01.06 0 .11-.06.15a1 1 0 0 0-.26.32l-.04.02-.51-.04-.1-.04-.25-.16c-.09 0-.13-.04-.12-.11 0-.13.04-.26.1-.39l.01.06c0 .01 0 .02.02.03.05.03.09.05.1.08.12.16.3.25.55.26Z" fill="#292B26"/><path d="m9.22 9.57.1.04.1.05a.49.49 0 0 0-.16.46c.03.24.19.37.46.4.15.01.3 0 .45-.03a.05.05 0 0 0 .04-.06.98.98 0 0 0-.15-.45c.2.08.37.2.38.41a44 44 0 0 1 0 .6.05.05 0 0 1-.04.01c-.2 0-.36 0-.58-.02a2.74 2.74 0 0 0-.4-.02c-.14.02-.3.06-.46.12a.67.67 0 0 1-.28.02c-.01 0-.02 0-.02-.02l-.05-.2v-.02l-.19-.35.14.2h.02v-.02a1.3 1.3 0 0 0-.14-.2 2.6 2.6 0 0 0-.4-.33.91.91 0 0 1-.18-.63 1.37 1.37 0 0 1 .14-.5.05.05 0 0 1 .06 0c.17.1.3.2.41.4a2.39 2.39 0 0 0 .2.27h.05l.5-.13Z" fill="#DDD6C1"/><path d="m4.36 9.25.07.08c.06.07.1.11.15.13l.3.14c-.26-.08-.52-.1-.77-.07-.24.03-.5.2-.3.45.12.17.29.3.48.39l.65.3c.15.07.4.15.75.23-.5-.02-.99-.13-1.44-.34-.34-.15-.66-.4-.66-.81 0-.27.13-.43.42-.49.05-.01.17-.02.35-.01Z" fill="#C2BCAB"/><path d="M11.09 9.63c-.23-.02-.4.02-.6 0-.18-.01-.26-.12-.44-.03 0-.03.02-.06.04-.1.34-.12.62 0 1 .13Z" fill="#79786A"/><path d="M4.88 9.6a2.53 2.53 0 0 0 .97-.02.04.04 0 0 1 .03.05.6.6 0 0 0 .1.4c.03.04.12.15.14.23.05.15.08.3.07.44a.1.1 0 0 1-.07.1l-.43.1c-.35-.08-.6-.16-.75-.23l-.65-.3c-.2-.09-.36-.22-.48-.39-.2-.25.06-.42.3-.45.25-.03.5-.01.77.07Z" fill="#D3CBB8"/><path d="M11.09 9.63c.06.03.11.07.16.13a.14.14 0 0 0-.07.04c-.02.02-.02.04 0 .07.01.03.04.05.08.07l.02.04s0 .02-.02.03a.4.4 0 0 0-.06.05l-.03.05-.22.5c-.15.12-.2.29-.15.49v.03l-.03.02-.3.08.07-.06.2-.06c.02 0 .03-.01.02-.03a.6.6 0 0 1 .1-.45c.1-.17.18-.32.24-.46a.11.11 0 0 0-.06-.14.75.75 0 0 0-.4-.07c-.21 0-.42-.02-.64-.06 0-.05.02-.1.06-.13l.03-.04v-.05a.04.04 0 0 0-.05 0l-.1.01.1-.1c.2-.08.27.03.45.04.2.02.37-.02.6 0Z" fill="#8F8C7C"/><path d="M9.42 9.66c.18.04.35.06.52.03l.1-.02.04.01c.02.01.02.03.01.05l-.03.04a.16.16 0 0 0-.06.13l.06.08c.08.14.13.29.15.45a.05.05 0 0 1-.04.06c-.15.03-.3.04-.46.03-.26-.03-.42-.16-.45-.4a.49.49 0 0 1 .16-.46Z" fill="#D9D9D9"/><path d="m9.17 12.21-.77.4a.66.66 0 0 0-.32.4.78.78 0 0 0 .03.56.67.67 0 0 0-.3.23h-.03a.39.39 0 0 0-.31-.26h-.25l-.02-.01-.01-.2c-.01-.1-.05-.14-.12-.15a1.78 1.78 0 0 0-.54.03.68.68 0 0 0-.21-.25c-.2-.14-.6-.14-.6-.44 0-.06.02-.14.09-.25.09-.17.17-.37.3-.54l-.06.09-.06.24v.05a2 2 0 0 0 .94.51.5.5 0 0 0 .23.03 5.82 5.82 0 0 0 1.02-.28c.02 0 .02-.01.03-.03a.65.65 0 0 0-.01-.22l-.15-.54c-.05-.23-.23-.27-.37-.38a.89.89 0 0 1-.18-.19 3 3 0 0 1-.32-.56.05.05 0 0 0-.07 0c-.13.11-.24.25-.32.4v.05l.03.12a2.5 2.5 0 0 1-.15-1.16.04.04 0 0 1 .04-.01h.01c.12.08.23.17.32.27a18.56 18.56 0 0 1 .63.74c.1.13.23.25.38.35.04.03.07.09.1.18l.05.25c.02.1.1.2.2.28l.2.18c.08.07.16.12.24.14.1.02.21.01.33-.03Z" fill="#8F8C7C"/><path d="M10.64 9.96c.12.12.2.26.23.42v.04l-.33.75-.07.06a.83.83 0 0 1-.23.17l-.19.08-.12.07c-.26.14-.62.21-.84 0a8.12 8.12 0 0 0-.44-.38.08.08 0 0 1-.03-.06l-.01-.23.05.2c0 .01 0 .02.02.02.11.01.2 0 .28-.02.17-.06.32-.1.46-.12l.4.02a5.06 5.06 0 0 0 .62 0l.01-.02-.01-.57c0-.2-.18-.33-.38-.41L10 9.9c.22.04.43.06.64.06Z" fill="#C2BCAB"/><path d="m10.54 11.17.32-.75v-.04a.77.77 0 0 0-.22-.42c.15-.01.28 0 .4.07a.11.11 0 0 1 .06.14 3.1 3.1 0 0 1-.25.46.6.6 0 0 0-.09.45l-.01.03-.21.06Z" fill="#B7B09E"/><path d="m14.87 10.26-.05.2a.99.99 0 0 1-.6.27l-.6.03c-.4.05-.8 0-1.2.01a2 2 0 0 0-.6.13c-.07.02-.12.02-.16 0a1.09 1.09 0 0 1-.4-.43c-.06-.1-.05-.28-.06-.4a.4.4 0 0 1 .06-.06l.02-.03-.02-.04c.1 0 .15.05.19.14.09.22.26.35.5.4.2.03.36.04.52.04.66 0 1.28-.04 1.87-.13.13-.02.31-.06.53-.13Z" fill="#292B26"/><path d="M11.2 10.06c0 .13 0 .3.06.41.09.18.22.32.4.43.04.02.09.02.16 0a2 2 0 0 1 .6-.13c.4-.01.8.04 1.2 0 .09-.02.28-.03.6-.04.21-.02.41-.1.6-.27l-.08.27-.28.23c0-.05-.04-.05-.13.01a1.8 1.8 0 0 0-.35.28l-.26.24a.96.96 0 0 1-.51.15 2.7 2.7 0 0 1-1.29-.31 2.38 2.38 0 0 0-.55-.16l-.03-.01-.31-.07a.04.04 0 0 1-.04-.04c0-.11.02-.22.05-.32l.07-.14a.28.28 0 0 0 0-.24v-.04a.32.32 0 0 1 .05-.1c.02-.03.03-.07.01-.1l.03-.05Z" fill="#343223"/><path d="M11.17 10.1c.02.04.01.08 0 .1a.32.32 0 0 0-.06.1v.05c.04.08.04.16 0 .24l-.07.14c-.03.1-.05.21-.05.32a.04.04 0 0 0 .04.04l.31.07-.45-.07a.05.05 0 0 1-.03-.02.05.05 0 0 1 0-.04l.1-.42.21-.5Z" fill="#4F4931"/><path d="M6.05 11.82c.17.17.35.33.56.5.15.13.35.2.58.2.34 0 .64-.08.88-.25v-.03a.99.99 0 0 1-.13-.29c-.02-.18-.05-.3-.07-.35a1.48 1.48 0 0 0-.56-.57c-.03-.01-.1-.08-.22-.2-.01-.02-.05-.04-.13-.07h-.04a.22.22 0 0 0-.1.13c-.02.04 0 .08.04.14.07.09.13.14.16.16.2.11.35.27.43.46.03.04.02.1-.01.17-.02.04-.06.06-.13.08a1.6 1.6 0 0 1-.32.03.61.61 0 0 1-.31-.16c.23-.03.46-.03.69 0h.03a.2.2 0 0 0 .03-.12c0-.02-.02-.04-.06-.08a7.71 7.71 0 0 1-.55-.55l-.03-.12v-.04a1.27 1.27 0 0 1 .35-.42.05.05 0 0 1 .04.01l.02.02a3 3 0 0 0 .3.54.9.9 0 0 0 .18.2c.14.1.32.14.37.37l.15.54c.01.06.02.14 0 .22 0 .02 0 .03-.02.03l-.15.07c-.28.1-.57.16-.87.21a.5.5 0 0 1-.23-.03 2 2 0 0 1-.93-.5.05.05 0 0 1-.01-.06l.06-.24Z" fill="#847360"/><path d="m10.95 10.6-.1.43a.05.05 0 0 0 .04.06l.45.07.03.01v.05a8.7 8.7 0 0 1-.57.02l-.21.26v.03l.37.24a1.5 1.5 0 0 1-.43-.18c-.14-.1-.23-.17-.3-.2.09-.03.17-.09.24-.16l.3-.08.02-.02v-.03c-.04-.2.01-.37.16-.5Z" fill="#68624E"/><path d="m6.05 11.82.05-.09c.09-.08.2-.1.31-.06l.27.1c.11.1.21.15.3.16.05 0 .16 0 .33-.03.07-.02.11-.04.13-.08.03-.07.04-.13.01-.17a.95.95 0 0 0-.43-.46.71.71 0 0 1-.16-.16c-.04-.06-.06-.1-.05-.14.02-.05.05-.1.11-.13h.04l.13.06c.12.13.2.2.22.2.24.15.43.34.56.58.02.05.05.17.07.35a1 1 0 0 0 .14.29l-.01.03c-.24.17-.54.26-.88.25a.89.89 0 0 1-.58-.2c-.2-.17-.39-.33-.56-.5Z" fill="#6D5946"/><path d="M14.74 10.73a5.77 5.77 0 0 1-.75 1.6c-.1-.35-.08-.69.06-1.01.1-.24.32-.46.7-.6Z" fill="#7891A6"/><path d="m14.33 10.97-.28.24c-.1.18-.2.33-.28.42-.17.2-.39.26-.68.34-.35.1-.68.18-1 .23-.1.02-.25.07-.33.07a.48.48 0 0 1-.33-.16c-.15-.15-.3-.26-.47-.34l-.37-.24v-.03l.2-.26a.04.04 0 0 1 .04-.02 8.7 8.7 0 0 0 .54 0v-.05c.2.03.38.08.55.16l.41.17c.29.1.58.14.88.14.18 0 .35-.05.5-.15.05-.03.14-.11.27-.24.1-.11.22-.2.35-.28Z" fill="#4F4931"/><path d="M14.28 11.08a2.5 2.5 0 0 0-.13.1.39.39 0 0 0-.1.14c-.14.32-.16.66-.06 1.02-.61.9-1.42 1.6-2.41 2.08a1.3 1.3 0 0 1-.03-.21l-.02-.22c-.07-.25-.25-.4-.52-.45a1.18 1.18 0 0 0-.31 0 .78.78 0 0 0-.06-.5c-.05-.1-.18-.27-.39-.52l-.23-.28a.42.42 0 0 1 .3-.34c.3.23.5.39.57.47.1.1.2.22.28.35.04.07.05.06.03-.01a.88.88 0 0 0-.2-.35 3.62 3.62 0 0 0-.61-.48c-.16-.14-.27-.23-.34-.4l.19-.08c.06.02.15.08.3.19.08.06.22.12.42.18.17.08.33.2.47.34.1.1.2.16.33.16.08 0 .23-.05.33-.07.32-.05.65-.13 1-.22.3-.09.5-.15.68-.35.09-.1.18-.24.28-.42l.3-.24v.01l-.07.1Z" fill="#5A543D"/><path d="M10.05 11.48c.07.17.18.26.34.4-.03 0-.05 0-.07.02a.42.42 0 0 0-.3.34 1.84 1.84 0 0 1-.18-.2.28.28 0 0 0-.08-.1h-.04c-.02.01-.02.02 0 .03l.52.62c.04.05.06.04.05-.02l-.04-.05c.21.25.34.42.4.51.06.13.08.3.05.51a.66.66 0 0 0-.44.24h-.03c-.08-.16-.23-.24-.43-.24h-.1c-.05.01-.07 0-.06-.05.02-.13 0-.21-.05-.27-.03-.03-.1-.04-.21-.05-.13 0-.23 0-.32.02a.12.12 0 0 0-.1.12v.4a.01.01 0 0 1-.01 0 .8.8 0 0 0-.71-.16c-.03-.22-.03-.47.07-.64.06-.1.16-.2.29-.33.07-.07.23-.17.47-.28l.24-.16c.04-.03.07-.04.1-.02.1.1.2.25.3.43h.04c.02 0 .02-.01.01-.02l-.3-.45a.1.1 0 0 1 .01-.12.1.1 0 0 1 .04-.03.8.8 0 0 0 .41-.38l.13-.07Z" fill="#68624E"/><path d="M10.39 11.88c.3.2.5.36.6.48.1.1.17.22.2.35.03.07.02.08-.02.01a2.23 2.23 0 0 0-.28-.35 6.08 6.08 0 0 0-.57-.47.14.14 0 0 1 .07-.02Z" fill="#736D5E"/><path d="m9.3 12.14-.23.16c-.24.11-.4.2-.47.28-.13.13-.23.24-.28.33-.11.17-.1.42-.08.64l-.13.02a.78.78 0 0 1-.03-.57c.06-.17.16-.3.32-.39a62.37 62.37 0 0 1 .8-.43l.1-.04Z" fill="#79786A"/><path d="m6.51 14.04-.01.38a.4.4 0 0 1-.15-.03 5.96 5.96 0 0 1-1.8-1.36c.27.14.62.33 1.05.58.26.15.57.3.91.43Z" fill="#B7B09E"/><path d="m8.1 13.57.14-.02a.8.8 0 0 1 .71.17h.01V13.3a.12.12 0 0 1 .1-.12l.32-.02c.11 0 .19.02.21.05.06.06.07.14.05.26 0 .05.01.07.06.06h.1c.2 0 .35.08.43.23v.01h.02a.02.02 0 0 0 .01 0 .66.66 0 0 1 .44-.24h.3c.28.05.46.2.53.45l.02.22.03.21-.26.1c.05-.05.07-.1.07-.16 0-.02-.01-.03-.03-.03h-.31l-.01.03c-.03.08-.1.12-.22.1a.15.15 0 0 1-.14-.1v-.01c-.03-.06-.01-.1.05-.1h.66a.03.03 0 0 0 0-.02c0-.23-.06-.45-.31-.51-.3-.08-.72-.02-.77.35-.04.26.02.52.3.6l.22.04c-.24.08-.49.14-.75.17l-.44-.07a.1.1 0 0 0-.04 0c-.16.04-.32.06-.5.03-.07 0-.1-.03-.13-.1v-.01l-.02-.01h-.03c-.2.18-.54.18-.8.1a.49.49 0 0 1-.25-.16c-.01-.02-.02-.02-.02 0a.32.32 0 0 1-.12.2c-.24-.04-.48-.1-.7-.2v-.54c0-.1.05-.14.14-.15.1 0 .14.03.14.12v.56a.03.03 0 0 0 .03.04h.31c.02 0 .03-.02.03-.04v-.62c0-.18-.09-.31-.27-.34a.42.42 0 0 0-.35.1h-.01a.01.01 0 0 1-.02 0v-.45h-.35l-.01.01v1.18c-.1-.02-.16-.06-.17-.11l.01-.38.02-.83c.2-.04.39-.05.54-.03.07 0 .11.06.12.14a79.28 79.28 0 0 1 .03.23h.25c.15.02.25.1.3.24a.02.02 0 0 0 .02.01h.02c.08-.1.18-.18.3-.23Z" fill="#090C06"/><path d="m7.03 14.67-.36-.14v-1.18l.01-.01h.35v.44a.01.01 0 0 0 .01.02h.01c.1-.1.23-.13.36-.1.18.02.26.15.27.33v.62c0 .02 0 .04-.03.04h-.3a.03.03 0 0 1-.04-.04v-.56c0-.09-.04-.13-.14-.12-.1 0-.14.06-.14.15v.55ZM9.51 13.8a.41.41 0 0 1 .13-.09c.22-.07.47 0 .49.27v.68c0 .02 0 .03-.03.03h-.3c-.03 0-.04-.01-.04-.03v-.58c0-.08-.03-.11-.1-.11h-.03c-.1 0-.14.05-.14.14v.56a.02.02 0 0 1 0 .01H9.12v-1.34H9.48v.44c0 .02.02.03.03.01ZM8.29 14.26c-.06 0-.07.02-.06.07l.02.05a.13.13 0 0 0 .1.08c.14.02.22-.01.23-.08a.06.06 0 0 1 .06-.05h.27c.03 0 .05.02.04.05-.06.28-.3.33-.54.33a.67.67 0 0 1-.4-.12c-.18-.12-.18-.45-.11-.62.13-.33.6-.34.86-.2.15.08.2.3.19.47v.01h-.66Z" fill="#FBFBFB"/><path d="m8.24 14.09-.01-.01.01-.06.04-.05a.2.2 0 0 1 .12-.05h.01c.05 0 .09.02.12.04.03.03.05.07.05.1v.02h-.34ZM10.68 14.09V14.01l.04-.05a.17.17 0 0 1 .06-.03.2.2 0 0 1 .06-.02h.01c.05 0 .1.02.13.04.03.03.05.07.05.1v.01h-.01l-.34.02Z" fill="#090C06"/><path d="M10.08 14.88a5.61 5.61 0 0 1-2.35-.03c.07-.05.1-.12.12-.19 0-.02 0-.02.02 0 .07.08.15.14.26.17.25.07.58.07.79-.1l.01-.01h.02a.03.03 0 0 1 .02.02c.03.07.06.1.14.1.17.03.33.01.5-.03a.1.1 0 0 1 .03 0l.44.07Z" fill="#68685E"/></svg>