<!-- by TradingView --><svg width="18" height="18" viewBox="0 0 18 18" xmlns="http://www.w3.org/2000/svg"><path fill="#FEC400" d="M0 0h18v18H0z"/><path fill-rule="evenodd" d="M10.51 3.7c.13.19.23.41.29.67.04.17.07.42.1.74 0 .05.03.06.06.03.2-.13.4-.16.6-.1a.1.1 0 0 1 .09.09.1.1 0 0 1-.05.11c-.12.1-.2.22-.24.39 0 .04-.03.07-.06.09a.98.98 0 0 0-.35.4c-.04.08-.03.09.04.02l1.28-1.35c.03-.03.03-.06 0-.08a5.67 5.67 0 0 0-1.58-.97.56.56 0 0 1-.16-.1l-.03-.05v-.06a.05.05 0 0 1 .06-.01c.52.16 1 .4 1.43.71.16.12.28.24.37.37.02.03.05.04.08.01l.62-.5h.04c.02.02.03.04.02.07a.1.1 0 0 1-.01.04l-.41.57c-.03.04-.02.07 0 .1.48.48.83 1.07 1.04 1.75a4.7 4.7 0 0 1-.46 4.05c-.13.21-.19.36-.18.45.03.2.17.35.43.43.04.02.05.04.05.08 0 .02-.01.04-.03.05-.01.02-.03.03-.06.03-.16.02-.26.1-.33.26-.02.04-.01.07.02.1.08.06.13.11.16.16.02.04.04.08.04.11l.04 1.06c0 .04-.02.06-.05.08a.55.55 0 0 1-.37.04h-.1a2.7 2.7 0 0 1-.96.2c-.1 0-.2.02-.32.06-.18.07-.3.1-.33.1a5.22 5.22 0 0 0-.94-.05l-.07-.06a.37.37 0 0 1 .23-.06c.22.02.23 0 .03-.1-.02 0-.05-.06-.08-.15-.05-.12-.02-.21.1-.28a.31.31 0 0 1 .24-.05.26.26 0 0 1 .19.34.37.37 0 0 1-.19.2c-.04.02-.04.03.01.04.06 0 .2.02.46.07h.15c.08-.02.13-.04.15-.06.06-.07.13-.1.2-.11a.84.84 0 0 1 .22-.01c.09.02.23 0 .43-.07h.03v-.02l-.04-.05-.03-.01-.23.06c-.02 0-.03 0-.05-.02a.06.06 0 0 1-.02-.05.84.84 0 0 0 0-.33c0-.05.02-.08.07-.09l.6-.15a.2.2 0 0 0 .09-.05.2.2 0 0 1 .17-.06c.04 0 .06.02.08.06.03.03.06.05.1.04.02 0 .03-.01.02-.03l-.02-.02c-.06-.02-.07-.04-.05-.08a.23.23 0 0 1 .11-.07l.02-.03v-.06c0-.02 0-.02-.02-.02-.5.18-1 .3-1.51.34l-1.4.13c-1.5.07-2.92.02-4.27-.15a10.17 10.17 0 0 1-1.3-.28.1.1 0 0 0-.02.04c.37.19.7.3 1.02.34a.1.1 0 0 1 .08.07c.05.11.06.25.03.42 0 .04-.03.05-.06.03a.25.25 0 0 0-.18-.03c-.06.02-.06.04 0 .06.1.04.18.06.22.06.2 0 .41.03.62.07.2.04.39.06.53.06h.57c.05 0 .06-.03.03-.07l-.1-.12h-.04l-.06.06c-.02.03-.05.03-.08.01a.33.33 0 0 1-.07-.09c-.02-.02-.03-.02-.05 0-.05.09-.1.13-.16.15-.06.02-.12 0-.16-.09a.46.46 0 0 1-.07-.26c0-.04.02-.07.06-.1.1-.08.22-.08.34.01.03.03.06.03.1 0 .1-.06.23-.06.37.01.04.02.05.05.04.09a.2.2 0 0 1-.06.08.09.09 0 0 0-.03.1l.06.21c0 .04.03.06.06.08.06.04.16.05.3.04.55-.03 1.27-.02 2.17.04.16.07.33.09.5.07l.02.01V14l-3.23-.03c-.04 0-.08 0-.11-.03a.83.83 0 0 0-.39-.1c-.13 0-.26 0-.38-.05a7.96 7.96 0 0 1-1.75-.32.22.22 0 0 0-.1 0H4.7c-.05.02-.07 0-.07-.05v-1.11c0-.04.01-.08.05-.1l.14-.13c.04-.02.04-.05.02-.09-.1-.18-.21-.27-.34-.3-.12 0-.12-.04-.02-.1.15-.08.26-.17.34-.26.1-.12.1-.25.02-.38a4.94 4.94 0 0 1 2.45-7.4.64.64 0 0 1 .2-.04c.03 0 .07-.01.1-.04a2.12 2.12 0 0 1 1.72-.44c.52.07.91.29 1.2.67Zm3.21 5.31c-.25.12-.35-.1-.27-.66v-.02l-.05-.02c-.03-.02-.05-.01-.05.03l-.02.53c0 .04.01.07.04.1.07.08.11.2.14.34 0 .03 0 .05-.03.06l-.05.05c-.03.02-.05.01-.06-.02-.1-.34-.14-.66-.13-.98l.03-.15a9.2 9.2 0 0 0-.09-1l-.03.01a5.9 5.9 0 0 1-.03 3.02c0 .08-.05.13-.14.12h-.1c-.09 0-.14-.05-.14-.14V6.9l-.05-.05a.04.04 0 0 0-.04-.02c-.02.01-.03.02-.03.04l-.05 1.83c0 .05-.03.07-.07.07h-.05c-.04 0-.06-.02-.06-.05v-.6c0-.01 0-.02-.01-.01l-.03-.01h-.02c-.03.14-.04.27-.04.42.02.76.02 1.67.01 2.73 0 .04.02.06.05.07h.03c.03 0 .05-.01.06-.04l.01-.04.01.1-.2.22a.25.25 0 0 1-.23.08.25.25 0 0 1-.2-.14 6.57 6.57 0 0 1-.6-2.07c-.02-.06.02-.1.11-.13a.17.17 0 0 0 .1-.06l.47-.59a.23.23 0 0 0 .05-.1l.01-.05a.67.67 0 0 1 .16-.3c.1-.11.19-.24.27-.37a.1.1 0 0 0 0-.1 3.26 3.26 0 0 1-.18-.5c-.01-.06 0-.19.05-.38 0-.03.03-.06.06-.09a.37.37 0 0 0 .1-.11.12.12 0 0 0 0-.1.34.34 0 0 0-.23-.23.1.1 0 0 0-.1.02l-.1.08c-.03.03-.07.04-.11.03-.3-.06-.52.04-.7.3-.18.3-.17.56.04.78.03.03.03.06 0 .09l-.06.07a.16.16 0 0 0-.03.11c0 .13-.02.25-.06.35a.1.1 0 0 0 .02.1l.15.2c.15.2.34.23.55.07h.03l.03.04v.02l-.2.12a.1.1 0 0 1-.09.01l-.33-.13a.11.11 0 0 1-.07-.07.7.7 0 0 0-.19-.3.13.13 0 0 1-.04-.1V7.04c0-.04.01-.08.04-.12l1.59-1.97c.04-.05.07-.04.07.03v.04c0 .04 0 .07.03.1a4.7 4.7 0 0 1 1.05 3.9Zm-1.26 2.23ZM6.04 9.07a22.8 22.8 0 0 0 0 2.14c.37-.83.55-1.67.55-2.53 0-.14.04-.32.12-.54a1.5 1.5 0 0 0 .11-.7c-.01-.26 0-.6.02-1.05a.18.18 0 0 0-.1-.18c-.22-.13-.34-.3-.36-.5a.8.8 0 0 0-.22-.49.14.14 0 0 1-.04-.13.14.14 0 0 1 .1-.11c.25-.1.52-.06.8.12.03.02.05.01.04-.04-.04-.56.1-1.04.43-1.46a3.13 3.13 0 0 1-.58.35A4.55 4.55 0 0 0 4.23 7.7c-.05.49-.03.98.08 1.49.09-.04.16-.11.22-.21a.18.18 0 0 0 .03-.1v-.55c0-.02.01-.04.04-.04h.05l.01.02a2 2 0 0 0-.02.48c.01.1-.03.23-.11.4l-.03.06a.14.14 0 0 0 .02.16l.05.06c.01.01.02.01.03-.01l.16-.52.02-1.87.01-.02h.03c.03 0 .04.02.04.05-.04.54-.03 1.07.02 1.6 0 .05 0 .1-.02.19l-.03.17.02 1.2c0 .05.03.1.08.13.01.02.03.01.05 0a.08.08 0 0 0 .03-.07v-.2c0-.02 0-.04.04-.03h.03c.02.01.02.02.02.04.01.07 0 .13-.05.17-.03.03-.03.06 0 .08.03.02.07.02.13 0a.1.1 0 0 0 .06-.11V6.9c0-.02.02-.03.04-.03h.03l.08 1.76c0 .08.04.12.12.12h.08c.04 0 .05.02.05.05a117.84 117.84 0 0 1 .02 2.56 1.1 1.1 0 0 0-.03.07l.1.11c.02.03.04.03.08.02.02-.02.04-.04.05-.09-.04-.06-.06-.1-.06-.13V9.57c0-.16.02-.35.05-.55 0-.04.03-.06.07-.06.08 0 .12.04.12.11Z" fill="#04010B"/><path d="M9.64 3.29a.9.9 0 0 1-.3.01c-.3-.02-.71.02-1.24.15.44-.35.95-.43 1.51-.24l.03.08Z" fill="#FEFCFD"/><path d="M10.25 4.22c0 .11.02.21.06.3.01.05 0 .08-.03.1-.09.1-.22.12-.4.08l-.01.05c0 .02 0 .03.03.03l.33.01c.05 0 .07.03.05.08-.01.06.01.1.08.15.03.02.05.05.05.08a.1.1 0 0 1-.01.07.1.1 0 0 1-.1.04.54.54 0 0 0-.47.16l-.27.13c-.14.07-.23.04-.27-.07a.13.13 0 0 1 0-.1l.05-.13c.02-.05 0-.07-.05-.06a.22.22 0 0 0-.09.06c-.01.02-.03.02-.05 0l-.05-.05c-.04-.03-.07-.03-.1.01v.03c0 .02 0 .04.02.05.09.07.1.14.06.24h-.31l-.36-.23c-.33-.18-.59-.11-.77.2-.11.16-.15.28-.1.36-.02.13-.01.24.03.32.02.11.07.2.17.27l-.02.06h-.08a.1.1 0 0 1-.08-.06c-.12-.21-.19-.4-.2-.55-.02-.25 0-.52.07-.8.13.07.3-.06.52-.4.01-.03 0-.05-.02-.05l-.05-.02c-.04 0-.04-.02-.01-.05a.44.44 0 0 0 .1-.14c.02-.06 0-.07-.05-.05a.36.36 0 0 0-.16.11.11.11 0 0 0-.02.08c0 .05.02.06.06.05.02 0 .03 0 .03.02l-.01.04h-.05a.13.13 0 0 1-.1-.08.13.13 0 0 1 .01-.14l.14-.17a.1.1 0 0 0 .02-.1l-.06-.14c.07-.04.1-.1.12-.15 0-.05-.01-.06-.05-.02l-.1.12c-.02.02-.03.02-.04 0v-.03c.13-.24.26-.4.4-.49.52-.12.93-.16 1.23-.14a.9.9 0 0 0 .3-.01c.08-.06.18-.04.29.04a1.73 1.73 0 0 1 .65.87h-.03c-.01.02-.02.01-.03 0-.1-.3-.28-.56-.54-.75a.05.05 0 0 0-.05 0 .05.05 0 0 0-.03.04v.03c0 .02 0 .03-.03.03-.02 0-.03 0-.05-.02-.02-.02-.02-.05 0-.07l.03-.02c.04-.01.04-.03.02-.06-.02-.04-.05-.05-.06-.04a.12.12 0 0 0-.08.09c-.01.04 0 .08.02.12l.5.67Z" fill="#E5BEF9"/><path d="m7.71 3.7-.2.25c-.02.02-.03.02-.05 0v-.04a.93.93 0 0 1 .17-.28c.1-.13.18-.2.24-.24h.04c.03.01.03.03.01.05l-.2.25Z" fill="#F8D7FE"/><path d="M10.08 3.85a.37.37 0 0 1-.04-.1c0-.07.02-.08.06-.03.05.08.08.15.09.2 0 .04 0 .05-.05.05-.03 0-.04-.03-.04-.06 0-.02 0-.04-.02-.06Z" fill="#C137DB"/><path d="m7.38 4 .02.01c.04.01.06.03.06.05l-.23.83c0 .02-.03.02-.07.01h-.02l.24-.9Z" fill="#E5BEF9"/><path d="m7.78 4.01.06.14a.1.1 0 0 1-.02.1l-.14.17a.13.13 0 0 0-.02.14c.02.05.06.08.11.08h.05V4.6c0-.02 0-.02-.02-.02-.04.01-.06 0-.07-.05 0-.03.01-.05.03-.08.05-.05.1-.1.16-.11.05-.02.07 0 .05.05a.44.44 0 0 1-.1.14c-.03.03-.03.05.01.05l.04.02c.03 0 .04.02.02.05-.2.34-.38.47-.5.4-.03-.4.05-.74.23-1 .04-.06.07-.07.11-.04ZM9.83 5.37a.54.54 0 0 1 .47-.16.1.1 0 0 0 .1-.04.1.1 0 0 0 .01-.07.11.11 0 0 0-.05-.08c-.07-.05-.1-.1-.08-.15.02-.05 0-.08-.05-.08H9.9c-.02 0-.03-.02-.03-.04v-.04c0-.01 0-.02.01-.01.18.04.31.01.4-.07a.09.09 0 0 0 .02-.1.73.73 0 0 1-.05-.3c.22.13.26.33.13.57a.07.07 0 0 0 .01.07c.02.02.04.03.07.03l.03-.01c.02-.02.04-.01.05 0 .14.27.21.46.21.58 0 .24-.05.25-.16.03-.08-.15-.33-.2-.76-.13Z" fill="#8B0FA6"/><path d="M11.53 5.96h.03v.02a.32.32 0 0 0-.21.15.5.5 0 0 1-.07.1l-1.46 1.6a.03.03 0 0 1-.04 0 .03.03 0 0 1-.02-.02c-.01-.05 0-.1.01-.17a.41.41 0 0 1 .1-.16l2.85-3h.01v.03l-1.2 1.44Z" fill="#FEFCFD"/><path d="m10.7 4.61.01.15c0 .05-.01.06-.06.05-.04-.01-.06-.03-.06-.06l.04-.15c.03-.07.05-.07.06.01Z" fill="#8B0FA6"/><path d="M8.81 4.62c.26.1.48.1.65 0 .02-.01.03 0 .03.01l-.01.05c-.23.2-.46.19-.7-.02v-.03c.01-.01.02-.02.03-.01Z" fill="#04010B"/><path d="M8.62 4.74a3.53 3.53 0 0 0 .48.17c.15.02.3-.01.45-.1h.02l.02.03v.02c-.24.19-.49.21-.74.06a14.98 14.98 0 0 1-.27-.18h.04ZM8.66 4.97c.12.08.19.15.22.2v.04c0 .02-.02.03-.04.01a13.02 13.02 0 0 0-.48-.35c-.02-.01-.02-.03 0-.04h.03c.06 0 .15.05.27.14ZM9.75 5.12c.13-.08.22-.16.2-.19 0-.02-.13.02-.26.1-.13.07-.22.15-.2.18.01.03.13-.01.26-.09Z" fill="#04010B"/><path d="M10.94 5.53c-.02.02-.03.01-.03-.01v-.15c0-.02 0-.04.02-.05a.62.62 0 0 1 .54-.2c.02 0 .03.02.02.04 0 .03-.02.04-.04.04-.17.02-.34.13-.51.33Z" fill="#FEFCFD"/><path d="M8.41 5.25a.83.83 0 0 0-.77.2c.18-.31.44-.38.77-.2Z" fill="#C137DB"/><path d="M7.2 5.45c-.02.12 0 .22.01.22.02 0 .04-.1.05-.22.01-.12 0-.22-.01-.22-.02 0-.05.1-.06.22ZM6.65 5.8a.2.2 0 0 0 .03.04c.17.1.27.22.32.35.03.09.02.1-.06.04a38.52 38.52 0 0 1-.43-.4l-.11-.5c-.03-.1 0-.1.06-.03.09.1.14.25.16.44l.03.05Z" fill="#E5BEF9"/><path d="M8.11 6.14c.24.08.49-.01.56-.21.08-.2-.05-.43-.3-.52-.23-.08-.48 0-.56.21-.07.2.06.43.3.52ZM10.2 6.13c.22-.07.35-.27.29-.45s-.29-.27-.5-.2c-.22.07-.35.27-.3.45.07.18.3.27.51.2Z" fill="#FED201"/><path d="M9.08 5.48c0 .1-.04.14-.14.13-.07 0-.13-.05-.18-.13h.32Z" fill="#8B0FA6"/><path d="M5.65 5.58a.04.04 0 0 0-.04.04L5.58 6.7c0 .02.01.03.03.03.03 0 .04-.01.05-.03l.03-1.08a.04.04 0 0 0-.04-.04ZM12.26 5.87c0 .12 0 .23.02.23s.04-.1.05-.23c0-.12 0-.22-.02-.23-.02 0-.04.1-.05.23Z" fill="#F54A36"/><path d="m9.35 6.15-.12-.16c-.02-.03-.05-.04-.09-.02-.06.03-.12.1-.16.2-.14-.15-.1-.28.08-.4.05-.03.1-.04.15-.03.06.01.1.04.13.1l.14.23c.02.04 0 .06-.03.07h-.1Z" fill="#8B0FA6"/><path d="M6.17 6.1c0 .19.01.34.03.34.02 0 .04-.15.04-.34 0-.19-.01-.34-.03-.34-.02 0-.04.15-.04.34Z" fill="#F54A36"/><path d="M7.15 6.01c.02.14.05.26.08.25.02 0 .03-.12.02-.26-.02-.14-.05-.25-.08-.25-.02 0-.03.12-.02.26Z" fill="#8B0FA6"/><path d="m9.84 7-.07-.04c.1-.07.2-.17.28-.3.01-.01 0-.02-.02-.03h-.12l-.2.18-.14-.47a.05.05 0 0 0-.03-.04H9.5v-.08c.03.06.06.07.09.05v-.05l.09.06c.03.02.06.03.1.03.23.02.41-.02.55-.1.04-.03.07-.02.1 0 .01.02.03.02.04.02.04-.01.06-.03.06-.04.03-.18.08-.3.14-.36.1-.1.14-.09.11.05-.03.15-.09.3-.19.45-.02.04 0 .06.04.06s.05.02.03.06a.14.14 0 0 1-.06.06c-.1.07-.17.15-.18.24-.01.05-.03.05-.05 0l-.02-.22c0-.05-.02-.06-.05-.02a.68.68 0 0 0-.13.17.57.57 0 0 1-.34.33Z" fill="#350848"/><path d="M7.57 6.13a.53.53 0 0 1-.04-.32c.2.2.4.37.62.48.03.02.04.05 0 .07-.02.03-.05.03-.09.01a9.42 9.42 0 0 1-.49-.24Z" fill="#8B0FA6"/><path d="M5.29 6.04a.05.05 0 1 0 0-.1.05.05 0 0 0 0 .1Z" fill="#350848"/><path d="M9.35 6.15c.01.1-.03.15-.14.18a.1.1 0 0 1-.1-.03l-.13-.14c.04-.1.1-.16.16-.2.04-.01.07 0 .1.03l.1.16Z" fill="#F8D7FE"/><path d="m11.87 6.12.04-.02c.01 0 .03 0 .03.02.03.06.02.11-.01.15a.05.05 0 0 1-.06.01c-.02 0-.03-.02-.03-.04l.03-.12Z" fill="#FD9E18"/><path d="M9.5 6.3a.1.1 0 0 1 .04 0l.03.04.15.47c-.02.07-.05.1-.1.06-.38-.24-.72-.22-1.03.06a.06.06 0 0 1-.06.02.06.06 0 0 1-.05-.05.92.92 0 0 0-.14-.27.6.6 0 0 0 .38-.25c.04-.05.04-.1.02-.14l.04-.04c.03-.03.05-.03.07 0 .07.12.15.2.26.28a.1.1 0 0 0 .1.01.85.85 0 0 0 .3-.2Z" fill="#F8D7FE"/><path d="M8.74 6.24c.02.04.02.1-.02.14a.6.6 0 0 1-.38.25l-.62-.17.02-.06c.08 0 .16.02.24.06.04.02.07.02.1.01l.66-.23Z" fill="#8B0FA6"/><path d="M7.25 7.13c0 .01 0 .02-.02.02H7.2a.03.03 0 0 1-.02-.03v-.64a.1.1 0 0 1 .06-.1l.04-.02c.04-.02.07 0 .07.04.04.23 0 .48-.1.73Z" fill="#FD9E18"/><path d="M7.02 7.46h-.09l.02-1.05c0-.02.01-.03.03-.03h.05c.02 0 .03.01.03.03l-.04 1.05Z" fill="#FED201"/><path d="M12.07 6.59c.05-.01.1-.04.16-.08s.08-.03.05.04a.27.27 0 0 1-.15.14.09.09 0 0 1-.08 0c-.02 0-.03-.02-.03-.03-.02-.04 0-.06.05-.07Z" fill="#E5BEF9"/><path d="M13.23 6.85v.3c0 .03-.02.04-.04.03-.01 0-.02 0-.03-.02a.86.86 0 0 1-.03-.31c0-.15.02-.25.04-.3l.03-.03c.03 0 .04 0 .04.03l-.01.3ZM4.75 6.72c0 .12.01.22.04.22s.06-.1.07-.21c0-.12-.01-.22-.04-.22s-.06.1-.07.21Z" fill="#F54A36"/><path d="M7.47 6.56c.01-.02.08 0 .19.05.04.02.04.04.02.08a.25.25 0 0 1-.12.1c-.03.01-.06 0-.07-.04-.03-.12-.04-.18-.02-.2Z" fill="#696868"/><path d="M10.9 6.8a.7.7 0 0 0 .15-.16l-.17.13a.7.7 0 0 0-.14.16l.17-.13Z" fill="#556168"/><path d="M6.2 6.68h.03l.02.04c.01.04 0 .08-.01.12a.18.18 0 0 0-.02.09c.04.82.03 1.22-.02 1.22-.06 0-.06-.4-.02-1.22a.2.2 0 0 0-.02-.1.16.16 0 0 1-.01-.11c0-.02.01-.03.02-.03h.03Z" fill="#F54A36"/><path d="m11.4 6.83-.03.02c-.01 0-.02 0-.01-.02V6.8c0-.02.02-.03.04-.04l.37-.05c.03 0 .04.01.03.04l-.04.08-.02.02a1.7 1.7 0 0 0-.34-.02Z" fill="#696868"/><path d="M8.67 7c.05.06.11.08.19.04.24-.12.46-.12.67.02.03.02.05 0 .06-.02V7l.18-.04c.02 0 .05.02.07.05l-.53.32a.18.18 0 0 1-.1.02.7.7 0 0 1-.35-.1.21.21 0 0 0-.1-.03.85.85 0 0 1-.73-.42c-.02-.03-.01-.05.03-.05.14 0 .24.05.3.15a.1.1 0 0 0 .08.06c.1 0 .17 0 .23.03ZM7.32 7.36a.36.36 0 0 0 .05-.14c.06.03.12.03.15.01.05-.02.05-.04 0-.05l-.09-.02c-.05 0-.07-.03-.03-.08.03-.04.08-.05.15-.04.04 0 .11.03.2.08.03.01.05 0 .07 0l.02-.03-.01-.06a.18.18 0 0 0-.15-.05c-.05 0-.06-.02-.04-.07a.19.19 0 0 1 .12-.1.1.1 0 0 1 .1.03c.1.1.16.19.18.26 0 .04.03.07.06.08l.26.08c.05.01.08.04.1.07.01.04 0 .06-.04.07-.15.02-.3.02-.44-.01a.2.2 0 0 0-.1 0 .76.76 0 0 1-.56-.03Z" fill="#8B0FA6"/><path d="m9.6 7-.01.04c-.01.03-.03.04-.06.02-.2-.14-.43-.14-.67-.02-.08.04-.14.02-.2-.05.34-.2.65-.2.94.01Z" fill="#E5BEF9"/><path d="M13.72 9.01c-.12.8-.45 1.49-1 2.08a.84.84 0 0 1-.07-.55c0-.06-.02-.1-.08-.1h-.04c-.07 0-.1.03-.1.1l.03.7-.02.05c0 .03-.03.05-.06.05h-.03a.07.07 0 0 1-.05-.08c.01-1.06 0-1.97-.01-2.73 0-.15.01-.28.04-.41 0-.01.01-.02.02-.01h.03l.01.02v.6c0 .03.02.05.06.05h.05c.04 0 .07-.02.07-.07l.05-1.83c0-.02.01-.03.03-.04.02 0 .03 0 .04.02l.05.05v3.37c0 .09.05.14.14.14h.1c.09 0 .13-.04.14-.12.04-.36.06-.68.04-.96-.02-.38-.03-.7-.01-.96a12.67 12.67 0 0 0 0-1.1l.04-.01a9.2 9.2 0 0 1 .08 1l-.02.15c-.02.32.03.64.12.98.01.03.03.04.06.02l.05-.05a.06.06 0 0 0 .03-.06.72.72 0 0 0-.14-.34.14.14 0 0 1-.04-.1l.02-.53c0-.04.02-.05.05-.03l.04.02v.02c-.07.56.03.78.28.66ZM5.63 11.44c-.11-.07-.18-.13-.2-.19.07-.17.09-.39.07-.66 0-.05-.02-.08-.04-.1-.03-.04-.05-.03-.06.01l-.1.62c-.5-.56-.84-1.2-.99-1.92.09-.04.16-.11.22-.21a.18.18 0 0 0 .03-.1v-.55c0-.02.01-.04.04-.04h.05l.01.02a2 2 0 0 0-.02.48c.01.1-.03.23-.11.4l-.03.06a.14.14 0 0 0 .02.16l.05.06c.01.01.02.01.03-.01l.16-.52c.04 0 .06.05.07.12l.02 1.2c0 .05.03.1.08.13.01.02.03.01.05 0a.08.08 0 0 0 .03-.07v-.2c0-.02 0-.04.04-.03h.03l.03.04c0 .07-.02.13-.06.17-.03.03-.03.06 0 .08.03.02.07.02.13 0a.1.1 0 0 0 .07-.11V6.9c0-.02 0-.03.03-.03h.03l.08 1.76c0 .08.04.12.12.12h.08c.04 0 .05.02.06.05a117.91 117.91 0 0 1 0 2.56 1.1 1.1 0 0 0-.02.07Z" fill="#F93287"/><path d="M11.6 7.16s.02-.01.02-.03V7.1l-.02-.01h-.21c-.02 0-.03 0-.04-.02l-.02-.02c-.02-.03-.02-.05.02-.06a.82.82 0 0 1 .35 0c.04 0 .07.02.08.06.03.11 0 .18-.1.22a.53.53 0 0 1-.35 0c-.02 0-.03-.02-.02-.04v-.04c.01-.03.04-.04.07-.04.06.02.14.02.21.02Z" fill="#556168"/><path d="M4.83 9.07c0-.07-.03-.11-.07-.12l.02-1.87.01-.02h.03c.03 0 .04.02.04.05-.04.54-.03 1.07.02 1.6 0 .05 0 .1-.02.19l-.03.17Z" fill="#F54A36"/><path d="M10.68 7.42c-.04-.08-.02-.15.07-.23.03-.03.05-.02.06.02.02.13.03.24 0 .34-.01.07-.03.07-.06.01l-.02-.04-.05-.1Z" fill="#FED201"/><path d="M7.37 7.22c-.01.06-.03.1-.05.14-.17.15-.25.25-.25.29-.03-.1-.02-.16.02-.16a.53.53 0 0 1 .14-.27c.05-.05.1-.05.14 0Z" fill="#C137DB"/><path d="M11.92 7.33V7.3c.08-.05.16 0 .22.11l.1.2c.08.11.07.2 0 .23h-.03l-.3-.52Z" fill="#F8D7FE"/><path d="M5.06 7.45a.05.05 0 0 0-.05.04v1.3c0 .02.02.04.04.04.03 0 .05-.02.05-.05V7.5a.05.05 0 0 0-.04-.04Z" fill="#F54A36"/><path d="M8.8 7.67c0-.03-.02-.03-.04 0l-.02.02v.01l.18.3c.02.05.02.06-.03.04l-.06-.02c-.02-.01-.04-.03-.04-.06a.44.44 0 0 0-.1-.2c-.02-.04-.02-.07 0-.1l.2-.2c.04-.05.07-.04.09.02a1 1 0 0 0 .11.34c.15.15.12.18-.08.1-.07-.03-.14-.11-.2-.25Z" fill="#FD9E18"/><path d="M10.17 7.64a.81.81 0 0 1-.03.1.08.08 0 0 1-.05.04h-.04c-.02-.02-.03-.04 0-.06a2.88 2.88 0 0 1 .31-.29c.02.01.01.02 0 .03l-.16.14a.09.09 0 0 0-.03.04Z" fill="#696868"/><path d="M12.97 7.44h-.03a.03.03 0 0 0-.03.03l-.01 1.81c0 .02.01.03.03.03h.03c.01 0 .03-.01.03-.03v-1.8a.03.03 0 0 0-.02-.04Z" fill="#F54A36"/><path d="M10.52 7.47c.02-.01.08.05.17.18.09.14.13.21.1.22-.01.01-.06-.05-.16-.18-.09-.14-.12-.2-.1-.22Z" fill="#8B0FA6"/><path d="M11.49 7.5v-.03h.01c.04-.02.09-.01.14.03.06.04.11.1.15.18l.03.05c.04.08.07.15.07.22s0 .12-.05.14h-.02l-.33-.6ZM7.71 7.68a2.2 2.2 0 0 0-.35.33c-.04.06-.14.09-.28.08-.01 0-.02.01-.02.03v.05s0 .02.02.01l.26-.02c.17 0 .29.05.36.12.03.03.04.06.03.1-.04.1-.08.2-.15.27l-.6-.07c-.06 0-.1 0-.13.03a.25.25 0 0 0-.08.12c-.06 0-.1-.03-.09-.1.04-.29.16-.58.37-.87.03-.03.06-.03.08 0l.07.08c.03.03.05.03.07-.01 0-.03 0-.06-.02-.1a.08.08 0 0 1 .02-.1c.18-.2.33-.2.44.05ZM8.32 7.9c-.07-.13-.15-.14-.25-.03a.32.32 0 0 1-.13-.24c0-.04.01-.05.05-.04.3.07.49.13.57.18.05.04.08.07.08.1.01.04 0 .07-.04.08-.13.07-.22.05-.28-.05Z" fill="#F8D7FE"/><path d="M9.62 7.6c.02 0 .04 0 .06.02 0 .01.02.03.01.05 0 .04-.02.06-.06.06h-.09l-.03-.03c-.02-.04.02-.08.11-.1Z" fill="#FD9E18"/><path d="M11.9 7.63c.03 0 .06.03.06.1 0 .01 0 .02-.02 0-.05 0-.06-.04-.05-.1ZM9.18 7.64l.14.11c.02.02.02.04 0 .06l-.02.02-.04-.01a.34.34 0 0 1-.11-.16c0-.03 0-.04.03-.02ZM10.35 7.72l-.06.02c-.03 0-.03 0-.02-.03a.18.18 0 0 1 .1-.07l.03.01v.03a.1.1 0 0 1-.02.03l-.03.01Z" fill="#C137DB"/><path d="M11.47 8.18c.06-.03.07-.07.02-.12a.9.9 0 0 1-.18-.23c0-.26.07-.27.2-.05.13.25.11.45-.06.6-.04.03-.07.03-.1.02-.05-.02-.06-.05-.04-.1.04-.05.1-.1.16-.12Z" fill="#F8D7FE"/><path d="M7.71 7.68a.7.7 0 0 1-.37.48l-.26.03c-.02 0-.02-.01-.02-.02v-.05c0-.02 0-.03.02-.03.14 0 .24-.02.28-.08.08-.1.2-.2.35-.33Z" fill="#8B0FA6"/><path d="M10.55 8.44a.91.91 0 0 1-.23-.58c.1-.14.27-.03.54.31.02.03.03.07.02.12 0 .04-.03.07-.07.1a.64.64 0 0 1-.26.05Z" fill="#F8D7FE"/><path d="m10.14 8.75.01-.06c0-.02 0-.03-.02-.03h-.2c-.08 0-.11-.04-.11-.1v-.1c-.01-.05.02-.07.07-.04.13.06.27.1.4.12.03 0 .04.01.05.03v.06l-.1.17a.13.13 0 0 1-.12.07.49.49 0 0 1-.41-.2.16.16 0 0 0-.05-.04l-.5-.29c-.02-.01-.03-.04-.03-.07a.3.3 0 0 0 0-.04c0-.03 0-.04-.04-.04-.06 0-.1-.02-.1-.06-.02-.04-.01-.06.03-.05l.1.03c.03.01.06 0 .08-.03.07-.1.15-.17.23-.22a.2.2 0 0 1 .19-.01c.07.02.1.07.12.14l.06.2c0 .03 0 .06-.03.09-.08.07-.11.15-.1.24 0 .04.02.08.06.1.15.09.3.13.41.13Z" fill="#FD9E18"/><path d="M12.1 7.94a.2.2 0 0 1 0-.04l.04-.04a.1.1 0 0 1 .03 0c.02 0 .03.02.02.04a.42.42 0 0 1-.08.16c-.03.04-.04.04-.03-.03l.01-.05.01-.04Z" fill="#F8D7FE"/><path d="M9.89 8.04c0 .07.02.13.06.13.03 0 .06-.06.06-.13S10 7.9 9.95 7.9c-.03 0-.06.05-.06.13Z" fill="#556168"/><path d="M10.32 7.86c0 .21.08.4.23.58-.25.01-.33-.18-.23-.58Z" fill="#C137DB"/><path d="M4.42 8.11c0-.03 0-.06.02-.09.02-.06.04-.06.08-.02v.1c0 .04-.03.05-.06.05-.02 0-.03-.02-.04-.04ZM13.51 8.15l-.04-.1c.02-.11.06-.12.1 0 .01.02 0 .05-.01.1-.02.03-.03.03-.05 0Z" fill="#F54A36"/><path d="m8.84 8.18.06.02c.1.07.08.1-.03.1a.45.45 0 0 0-.25.05.15.15 0 0 1-.1.02 1.06 1.06 0 0 1-.3-.12.46.46 0 0 0-.24-.06h-.13c-.04-.01-.06-.04-.06-.08 0-.06.02-.1.07-.11.02 0 .06 0 .09.02.25.12.5.14.73.07.04-.02.07 0 .09.02l.03.05a.1.1 0 0 0 .04.02Z" fill="#F8D7FE"/><path d="M9.52 8.23c.04 0 .08-.02.14-.06.03-.03.05-.03.06.02 0 .02 0 .04-.02.07-.06.1-.12.16-.18.16s-.12-.05-.18-.16c-.02-.03-.03-.06-.02-.08.01-.04.04-.05.07-.02.05.05.1.07.13.07Z" fill="#04010B"/><path d="M5.57 8.44c0 .17.02.3.05.3.03 0 .05-.13.05-.3 0-.16-.02-.3-.05-.3-.03 0-.05.14-.05.3Z" fill="#F54A36"/><path d="M6.97 8.33c.02-.03.05-.03.07 0 .01 0 .02.01.01.02 0 .02 0 .04-.02.05l-.05.02c-.02.02-.03.01-.03-.02s0-.05.02-.07Z" fill="#350848"/><path d="m7.97 8.63.02.1c0 .05 0 .08-.02.12a.25.25 0 0 0 0 .22c.02.05 0 .07-.06.07H7.8a.14.14 0 0 1-.12-.08c-.06-.1-.03-.3.1-.58l.06-.14c.02-.03.05-.05.09-.04l.24.05c.02 0 .03.02.01.04l-.02.04c0 .02-.02.02-.04.02-.1-.03-.18 0-.25.1-.03.03-.02.06.03.08h.07Z" fill="#696868"/><path d="M8.72 8.66c.02-.05.03-.09.01-.12-.02-.05-.01-.09.02-.12a.12.12 0 0 1 .13-.03c.15.04.3.12.43.22.02.02.04.04.04.07v.1l-.03.03-.04-.01a.8.8 0 0 0-.29-.2c-.06-.03-.07-.01-.05.05.08.16.17.28.28.38v.04l-.04.03c-.03.02-.06.02-.08 0l-.22-.27c-.04-.05-.07-.05-.1.02v.09l.22.3v.03l-.06.04c-.02.02-.04.02-.05-.01-.06-.18-.15-.28-.28-.29-.05 0-.07-.02-.08-.07 0-.04.01-.07.06-.11.03-.02.03-.04.01-.07a.12.12 0 0 1-.02-.05c0-.02 0-.04.02-.06.01-.02.03-.02.04-.01a.1.1 0 0 1 .03.02c.02.03.04.02.05 0Z" fill="#F8D7FE"/><path d="M10.97 8.63c-.1.07-.2.12-.3.16-.05.02-.1 0-.14-.06a.7.7 0 0 1 .36-.29c.04-.01.07 0 .08.04a.3.3 0 0 1 0 .15Z" fill="#FEFCFD"/><path d="m8.25 8.9.14.1c.02.02.03.04.02.06 0 .03-.01.04-.04.04-.1.04-.2 0-.27-.08s-.08-.14-.03-.2a.1.1 0 0 0 .02-.04c.04-.27.18-.37.4-.32.04 0 .06.02.06.05 0 .04 0 .06-.02.08a.2.2 0 0 0-.08.21c0 .04-.01.06-.05.06h-.14c-.04 0-.05 0-.01.03Z" fill="#F8D7FE"/><path d="M7.58 8.65c0 .07 0 .12-.03.15s-.07.03-.13.02a4 4 0 0 0-.65-.08c.02-.06.04-.1.08-.13.03-.03.07-.04.13-.03l.6.07Z" fill="#C137DB"/><path d="M10.97 8.63c.17.2.13.33-.14.42l-.2.08c-.05.02-.06.05-.02.09l.06.05v.03l-.02.01-.02-.01c-.16-.18-.2-.38-.1-.57.04.06.09.08.14.06.1-.04.2-.1.3-.16ZM9.73 8.82c.01.01.03.02.03.04.03.03.02.06-.01.09-.13.09-.2.13-.23.1-.02-.02 0-.1.07-.23.02-.04.05-.05.09-.03.02 0 .03.01.05.03Z" fill="#8B0FA6"/><path d="m11.25 8.76.1.06c.04.03.03.04-.01.04-.06 0-.1-.03-.11-.08 0-.02 0-.03.02-.02Z" fill="#FD9E18"/><path d="M6.1 12.04c-.17 0-.26-.02-.27-.07.19-.08.32-.23.38-.45.02-.07 0-.07-.04-.03a.6.6 0 0 0-.15.2.19.19 0 0 1-.07.08.34.34 0 0 1-.16.06v-.05c.22-.2.38-.45.47-.76.23-.8.4-1.49.48-2.05 0-.06.03-.07.08-.03l.05.06c.03.03.05.06.05.1-.04.93-.15 1.76-.33 2.51-.06.22-.1.38-.15.46a.63.63 0 0 1-.18.15c-.05.03-.06.02-.03-.03.12-.2.2-.39.23-.56v-.08c-.03-.04-.05-.04-.08 0l-.28.5Z" fill="#C137DB"/><path d="M7.3 9.01a.9.9 0 0 0 .15.04c.15.01.15.03 0 .06-.03 0-.1 0-.18-.03A.48.48 0 0 1 7.11 9c-.12-.1-.1-.12.03-.05L7.3 9Z" fill="#696868"/><path d="M6.04 11.2c0 .1-.07.19-.18.28-.04-.06-.06-.1-.06-.13V9.57c0-.16.02-.35.05-.55 0-.04.03-.06.07-.06.08 0 .12.04.12.11-.03.96-.03 1.67 0 2.14ZM11.91 9.35v-.14c.03-.17.07-.25.13-.26.07 0 .1.02.1.1v2.48c0 .03 0 .05-.04.05-.03 0-.06 0-.08-.03a.34.34 0 0 1-.1-.23V9.35Z" fill="#F93287"/><path d="M10.34 10.21c.05-.05.07-.1.05-.19-.06-.2-.1-.36-.15-.47-.04-.1-.1-.14-.21-.1l-.23.1c-.06.01-.1 0-.15-.04a.15.15 0 0 1-.04-.15.2.2 0 0 1 .04-.07c.02-.02.02-.04 0-.06l-.05-.04c-.02-.02-.01-.04 0-.05a.92.92 0 0 1 .41-.15.1.1 0 0 1 .1.05c.2.4.32.83.34 1.26 0 .04-.02.06-.06.04a.17.17 0 0 1-.05-.04c-.03-.03-.03-.06 0-.09Z" fill="#8B0FA6"/><path d="M8.57 9.29c.07.1.14.15.18.13.03-.02 0-.11-.07-.2-.06-.1-.14-.16-.17-.14-.03.02 0 .12.06.21Z" fill="#E5BEF9"/><path d="M11.29 9.22c-.03.03-.04.03-.04-.01 0-.05.03-.09.1-.1.05-.03.06-.01.02.03l-.08.08Z" fill="#696868"/><path d="M7.74 9.44c.1.06.2.08.23.03s-.02-.14-.12-.2c-.1-.07-.2-.08-.24-.04-.03.05.03.14.13.2ZM9.4 9.36c.1-.05.18-.11.16-.14-.01-.03-.1-.01-.21.04-.1.04-.18.1-.16.14.01.03.1.01.21-.04Z" fill="#8B0FA6"/><path d="M7.14 9.31a.04.04 0 0 0-.05.04l-.05.74c0 .02.01.04.04.04s.05-.01.05-.04l.06-.73a.04.04 0 0 0-.05-.05Z" fill="#350848"/><path d="M8.26 9.68c.07 0 .13-.05.13-.12a.13.13 0 0 0-.13-.13.13.13 0 0 0-.13.13c0 .07.05.12.13.12Z" fill="#FED201"/><path d="M9.58 9.47a.31.31 0 0 1-.12.12c-.04.02-.07 0-.09-.05V9.5c0-.04.02-.05.06-.06h.13c.02 0 .03 0 .02.03Z" fill="#8B0FA6"/><path d="M11.44 10.85c0 .02-.01.04-.05.04-.02 0-.04 0-.04-.03L11 9.98l.01-.5c0-.02.02-.03.04-.03.03 0 .05.01.05.04l.33 1.36Z" fill="#E5BEF9"/><path d="m9.1 9.58.02-.02c.03-.03.06-.03.1 0 .1.11.1.22 0 .33-.13.13-.27.15-.4.07-.13-.08-.17-.2-.14-.34l.02-.01h.04c.03 0 .04.01.03.04-.04.13 0 .2.11.23.17.04.29 0 .35-.15.03-.05.01-.08-.04-.08-.04-.01-.08.02-.11.07a.1.1 0 0 1-.04.04c-.08.05-.14.01-.19-.1-.01-.03 0-.05.05-.05h.17c.02 0 .03-.01.04-.03Z" fill="#FD9E18"/><path d="M7.63 9.74c-.08.15-.12.31-.12.49l-.07-.21.08-.38c.04-.15.08-.15.13 0l-.02.1Z" fill="#C137DB"/><path d="m8.1 9.74.1.1c.02.03.02.04-.02.05-.03 0-.06-.01-.08-.05a.81.81 0 0 1-.1-.13c-.03-.03-.03-.06-.02-.09.01-.03.03-.03.05 0l.07.12Z" fill="#696868"/><path d="m10.23 10.29-.16-.34a.15.15 0 0 0-.1-.08.15.15 0 0 0-.14.04c-.08.06-.1.16-.08.27.02.11 0 .18-.04.19-.11-.13-.14-.3-.1-.52 0-.04.03-.06.06-.08l.3-.18c.07-.03.12-.02.16.05.11.2.14.42.1.65Z" fill="#C137DB"/><path d="M7.9 9.8c-.17-.04-.26 0-.25.16 0 .25-.04.34-.14.27 0-.18.04-.34.12-.49.05.03.08 0 .1-.08.01-.04.04-.05.08-.04.05.01.08.07.1.18Z" fill="#8B0FA6"/><path d="M7.9 9.8c.06.14.13.2.21.2.03.16 0 .28-.11.37a.23.23 0 0 0-.07.11.14.14 0 0 1-.06.08l-.33.17a.2.2 0 0 0-.1.08.28.28 0 0 0-.04.12.93.93 0 0 1-.02.17c-.04.06-.09.1-.15.11 0-.2.07-.38.2-.53a.19.19 0 0 0 .05-.1.25.25 0 0 1 .1-.16.08.08 0 0 0 .03-.05l-.01-.04h-.05a.17.17 0 0 0-.05.03c-.04.09-.07.08-.08-.01 0-.1 0-.21.02-.33l.06.2c.1.08.15-.01.14-.26 0-.15.09-.2.27-.16Z" fill="#F8D7FE"/><path d="M9.33 10.29c-.02 0-.03.01-.04.04-.02.08-.03.21-.04.39 0 .03-.01.07-.04.1l-.18.22c-.03.04-.05.03-.06 0a.5.5 0 0 0-.2-.28.13.13 0 0 1-.06-.09.68.68 0 0 0-.13-.36c-.04-.04-.06-.03-.06.02v.1c0 .02 0 .03-.02.03h-.05c-.02 0-.02 0-.02-.03.02-.11.03-.28.04-.5 0-.05.03-.09.07-.1.05-.02.08 0 .09.04.02.12.08.2.2.24.1.05.2.04.3-.02.1-.06.18-.15.24-.26 0-.02.02-.02.03-.02h.04v.01l-.03.54c0 .03 0 .03-.02.01a.07.07 0 0 1-.02-.05c0-.02-.01-.03-.04-.03Z" fill="#8B0FA6"/><path d="m10.23 10.29.13.29c0 .04 0 .07-.02.1-.02.02-.05.03-.09.02l-.24-.09a.48.48 0 0 0-.16-.08.53.53 0 0 0-.14-.16c.04-.01.06-.08.04-.2-.02-.1 0-.2.08-.26a.15.15 0 0 1 .13-.04c.05 0 .09.03.11.08l.16.34Z" fill="#F8D7FE"/><path d="M7.94 10.98c-.06 0-.11 0-.16.03-.04.01-.06.04-.06.07 0 .1.01.21.05.32v.02l-.02.02c-.02 0-.04 0-.05-.02-.08-.11-.12-.2-.1-.26.04-.22-.02-.25-.16-.06-.02.02-.02.08-.02.2 0 .13 0 .26-.04.38-.15.03-.2-.12-.15-.47.07 0 .11-.05.15-.11l.02-.17c0-.05.02-.09.04-.12a.2.2 0 0 1 .1-.08l.33-.17a.14.14 0 0 0 .06-.08.23.23 0 0 1 .07-.11c.1-.1.14-.21.11-.36.26-.07.27.08.02.42-.14.21-.2.4-.19.55ZM11.44 10.85c.08.34.2.67.38.99.15.27.37.4.67.37h.22l.23.03c.04 0 .05-.02.01-.04-.09-.06-.15-.09-.2-.08-.38.04-.67-.09-.86-.38v-.03l.03-.02c.16.14.32.21.49.22.32.01.59.13.79.37.06.07.04.1-.06.1l-.72-.07a.31.31 0 0 1-.1-.02.92.92 0 0 0-.2-.07c-.1-.03-.2-.08-.32-.16a.59.59 0 0 1-.24-.26 1.3 1.3 0 0 0-.11-.2c-.03-.04-.04-.04-.05 0-.02.1 0 .17.03.24.01.03.02.05 0 .04h-.02a6.55 6.55 0 0 1-.4-1.89l.34.87c0 .03.02.04.04.03.04 0 .05-.02.05-.04Z" fill="#C137DB"/><path d="M12.9 10.18c0 .07.01.13.04.13s.06-.05.07-.12c0-.07-.02-.13-.05-.13-.03 0-.06.05-.06.12Z" fill="#F93287"/><path d="M5.43 11.25a.5.5 0 0 1-.13-.13l.1-.62c.01-.04.03-.05.06-.02.02.03.04.06.04.11.02.27 0 .49-.07.66ZM12.72 11.09a.8.8 0 0 1-.25.26.16.16 0 0 1-.01-.11l-.02-.7c0-.07.03-.1.09-.1h.04c.06 0 .09.04.08.1a.84.84 0 0 0 .07.55Z" fill="#FD9E18"/><path d="M9.7 10.57a.1.1 0 0 1 .06.02c.04.05.03.06-.03.05-.06-.01-.1-.05-.14-.12-.03-.05-.02-.06.03-.03a.3.3 0 0 1 .08.08Z" fill="#696868"/><path d="M10 10.61c-.01.14.02.2.12.2.08-.02.13 0 .15.03-.17.06-.25.12-.24.18l-.1.2.02-.33c0-.04 0-.07-.03-.1a.46.46 0 0 1-.07-.26l.16.08Z" fill="#C137DB"/><path d="m10.38 10.7-.11.14c-.02-.03-.07-.05-.15-.04-.1.01-.13-.05-.11-.19l.24.1c.04 0 .07 0 .09-.04a.16.16 0 0 0 .02-.1c0 .05 0 .1.02.14Z" fill="#8B0FA6"/><path d="M10.44 10.73c0 .18.06.3.17.35.1.28.05.5-.15.64l-.1-.66c0-.02-.01-.04-.03-.04h-.06c-.05.06-.13.06-.24 0 0-.06.07-.12.24-.18l.11-.13c.02 0 .04 0 .06.02Z" fill="#350848"/><path d="M10.6 11.08c-.1-.06-.16-.17-.16-.35.13.06.18.17.17.35Z" fill="#F54A36"/><path d="m9.9 11.85-.02.19c0 .03-.02.04-.04.02l-.04-.03c-.02-.01-.02-.02-.01-.04a.7.7 0 0 0-.03-.6.72.72 0 0 1-.05-.53c.01-.05.03-.05.06 0 .02.04.03.12.02.26 0 .12.03.24.09.34.02.04.02.07.02.1-.01.07.01.12.08.16.07.04.08.06.02.07l-.04.01-.05.05Z" fill="#696868"/><path d="m8.08 11.14.02-.26c0-.02.01-.03.03-.02l.03.03v.26a.72.72 0 0 1-.06.26l-.02.02c-.02 0-.03-.01-.03-.03l.03-.26Z" fill="#8B0FA6"/><path d="M7.94 10.98c.02.08.02.16-.01.26a.84.84 0 0 0-.18.71.3.3 0 0 1 0 .1l-.06.4c-.01.13-.08.2-.2.2-.17.02-.29-.04-.36-.16-.02-.04-.05-.04-.07 0l-.01.07c0 .03-.01.05-.04.03l-.28-.11-.01-.02v-.04c0-.02 0-.02.02-.02l.57.07a.1.1 0 0 1 .08.07c.02.04.05.07.09.08.03 0 .05-.01.04-.05l-.06-.24c0-.03-.03-.03-.07-.03-.18.05-.37.04-.55-.02a.15.15 0 0 0-.1 0c-.13.05-.2.1-.23.14-.02.02-.05.03-.07.03l-.26-.02c-.02 0-.03 0-.02-.03l.04-.02.25-.03c.02 0 .04-.01.04-.03.04-.06.14-.11.3-.17.18-.06.38-.22.6-.47.02-.12.03-.25.03-.39 0-.1 0-.17.02-.2.15-.18.2-.15.16.07-.02.06.02.15.1.26.01.02.03.02.05.02l.02-.02v-.02a.83.83 0 0 1-.05-.32c0-.03.02-.06.06-.07.05-.02.1-.03.16-.03ZM10.46 11.72c.28.24.6.41.96.51.05.02.08.05.09.1 0 .05-.01.1-.06.12l-.17.1c-.03.02-.05 0-.06-.03 0-.04.04-.07.14-.1.02 0 .03-.01.04-.03l.01-.03c0-.02 0-.03-.02-.03-.2-.04-.4-.05-.64-.03-.1 0-.16.02-.17.06l-.06.12c-.02.03-.01.04.02.04l.58-.15.05.01v.05a.28.28 0 0 1-.15.14c-.03.02-.06 0-.08-.02l-.03-.05c-.02-.04-.04-.04-.07 0-.14.17-.3.2-.45.1l-.32-.58c.04-.29 0-.55-.13-.8l.1-.2c.1.06.18.06.24 0a.05.05 0 0 1 .05 0c.02 0 .03.02.04.04l.1.66Z" fill="#F8D7FE"/><path d="m7.93 11.24.01.16c.01.04 0 .07-.03.09-.06.04-.08.1-.06.17.01.05.04.06.08.03a.13.13 0 0 0 .04-.04c.02-.03.04-.03.07 0l.02.07c0 .04-.01.07-.05.07a.43.43 0 0 0-.13.05c-.05.02-.05.06-.03.1l.2.3c.02.03.05.04.07.04h1.5c.03 0 .05.01.07.03l.04.04v.04c0 .02-.02.03-.04.03l-2 .03.06-.4a.3.3 0 0 0 0-.1c-.05-.26.01-.5.18-.7ZM12.82 11.42c.08-.08.13-.15.12-.17-.02-.02-.1.03-.18.1-.08.08-.13.16-.12.18.02.02.1-.03.18-.11Z" fill="#8B0FA6"/><path d="M5.23 11.59c.02.01.02.03 0 .06-.1.03-.2.11-.27.24-.02.04-.03.04-.04 0-.02-.1-.1-.18-.21-.25a.03.03 0 0 1-.02-.03c0-.01 0-.02.02-.02a.3.3 0 0 0 .2-.23c.02-.05.03-.05.06 0 .06.12.15.2.26.23Z" fill="#FED201"/><path d="M5.24 11.65v-.06c0-.08-.03-.15-.12-.2v-.04l.02-.02c.02-.02.03-.02.05 0l.39.36c.03.03.03.06-.02.08a.94.94 0 0 1-.34.14c-.15 0-.16-.04-.02-.11l.22-.1c.05-.03.05-.06 0-.08-.05-.01-.1 0-.18.03Z" fill="#8B0FA6"/><path d="M13.3 11.63v.02l-.01.01a.35.35 0 0 0-.2.22c-.02.05-.04.05-.06.01a.45.45 0 0 0-.41-.22c-.01 0-.02 0-.03-.02v-.05l.03-.02c.17.01.31-.06.41-.21.03-.04.05-.04.06 0 .03.1.1.18.2.23l.01.01v.02Z" fill="#FED201"/><path d="M5.82 11.97h-.08c-.04-.03-.04-.06-.01-.08l.06-.06c.06 0 .1-.02.16-.06a.19.19 0 0 0 .07-.08.6.6 0 0 1 .15-.2c.04-.04.06-.04.04.03a.66.66 0 0 1-.39.45Z" fill="#350848"/><path d="m5.78 11.78.01.05-.06.06c-.03.02-.03.05 0 .07.03.01.06.02.1.01 0 .05.1.08.27.07-.3.2-.66.32-1.1.35-.03 0-.06 0-.09-.03 0-.08.03-.14.12-.2a.16.16 0 0 1 .1-.02c.25.02.4-.02.45-.12 0-.14.06-.22.2-.24ZM8.03 11.96a.7.7 0 0 1 .05-.08c.01-.02.03-.03.05-.02.03 0 .04.02.04.04v.07c-.02.02-.03.04-.06.04h-.07v-.05Z" fill="#8B0FA6"/><path d="M5.58 12.02c-.05.1-.2.14-.45.12-.04 0-.07 0-.1.03-.09.05-.12.12-.12.2-.03.03-.07.05-.1.05-.05 0-.07-.03-.04-.07.12-.19.26-.29.42-.31.13-.02.25-.02.4-.02Z" fill="#C137DB"/><path d="m10.07 12.02.32.57c-.15-.1-.32-.17-.53-.2a.07.07 0 0 1-.06-.04c-.01-.03 0-.06.02-.08l.25-.25Z" fill="#8B0FA6"/><path d="M11.58 12.42c.04-.06.08-.09.1-.08.04 0 .07.02.1.04.03.04.02.06-.03.08a.27.27 0 0 1-.14.01c-.04 0-.05-.02-.03-.05ZM12.35 12.69c-.1-.1-.26-.14-.47-.12.21-.1.43-.13.66-.11.27.01.28.07.03.18l-.22.05Z" fill="#E5BEF9"/><path d="M11.88 12.57c.21-.02.37.02.47.12-.5.1-1.01.17-1.52.2a28 28 0 0 1-4.6-.08 3.4 3.4 0 0 1-.98-.24c-.04-.02-.04-.03 0-.04.27-.06.48-.08.62-.04.88.2 1.43.3 1.64.33.08 0 .23-.02.44-.07.17-.04.31-.06.44-.07h1.29c.13 0 .29.03.47.09l.14.04c.06.02.14.02.24 0 .46-.07.91-.15 1.35-.24Z" fill="#C137DB"/><path d="M13 13.08c.1.03.2.04.2.02s-.07-.06-.18-.1c-.1-.03-.2-.04-.2-.02s.07.07.18.1ZM5.06 13.05a.15.15 0 0 1-.06.03c-.07.01-.09 0-.04-.06.06-.05.12-.07.19-.04.03.02.03.03 0 .04l-.06.01a.1.1 0 0 0-.03.02ZM5.62 13.15a.93.93 0 0 0-.5.18.14.14 0 0 1-.1.03.23.23 0 0 0-.14.05c-.04.02-.06.01-.06-.04v-.04c0-.02.01-.03.03-.03.16-.05.32-.1.47-.18.03-.01.15-.02.36-.02.04 0 .06.02.07.05.02.08 0 .13-.02.17-.02.03-.04.03-.04 0v-.1c0-.05-.02-.08-.07-.07Z" fill="#FD9E18"/><path d="M11.4 13.47c.07 0 .14.04.18.12.02.02.01.04-.02.05-.07.03-.19.02-.34-.03-.04-.01-.05-.04-.05-.07v-.37l.01-.03c.05-.05.09-.05.12.01.03.05.03.13.02.23-.01.06.01.1.07.1ZM6.4 13.43h-.06l-.01-.01.01-.03c.1-.03.12-.1.08-.2-.01-.04 0-.06.05-.07a.1.1 0 0 1 .07.02.1.1 0 0 1 .04.09v.2c0 .05.02.08.06.09a.1.1 0 0 1 .07.04c.02.03.01.05-.03.05H6.5c-.03 0-.05-.03-.05-.06v-.1c0-.03-.01-.04-.05-.02ZM6.15 13.32v.1c0 .04-.02.07-.04.07a.1.1 0 0 1-.05 0c-.04-.01-.04-.03-.01-.06l.1-.1c0-.02-.04-.05-.11-.11-.03-.03-.03-.05.01-.06a.1.1 0 0 1 .05 0c.03 0 .04.02.05.06v.1Z" fill="#04010B"/><path d="M11.86 13.19c.03-.04.05-.05.07-.04.07.05.07.09 0 .12-.02 0-.04 0-.06-.02-.02-.02-.02-.04 0-.06Z" fill="#350848"/><path d="M10.24 13.21c.07.1.06.16-.05.2-.08.02-.09.04-.03.06l.07.01c.05 0 .07.03.08.07 0 .05-.02.1-.07.17a.52.52 0 0 1-.36 0c-.1-.03-.1-.08 0-.13h.15c.04 0 .06-.01.07-.05v-.04h-.05c-.08.02-.14.01-.18-.01a.14.14 0 0 1-.07-.14c0-.06.03-.1.1-.13a.47.47 0 0 1 .34 0Z" fill="#04010B"/><path d="M11.64 13.24c0-.06 0-.07.03-.04.02.03.02.04 0 .06-.02 0-.03 0-.03-.02Z" fill="#556168"/><path d="M7.86 13.24c0-.02.02-.04.04-.03h.13c.08 0 .14.03.19.08.05.05.07.1.07.18v.02c0 .07-.03.13-.08.17a.27.27 0 0 1-.2.07h-.13c-.02 0-.04-.02-.03-.04l.01-.45ZM8.83 13.72a.18.18 0 0 1-.15-.08.26.26 0 0 1-.06-.17c0-.07.02-.12.06-.17a.18.18 0 0 1 .3 0c.04.05.05.1.05.17s-.02.13-.06.17a.18.18 0 0 1-.14.08Z" fill="#04010B"/><path d="M13.21 13.4c-.01.03-.03.04-.05.03-.26-.08-.38-.15-.36-.2.02-.04.15 0 .4.11.02.02.02.04.01.07Z" fill="#FD9E18"/><path d="m9.3 13.58.01.05c0 .07-.01.1-.06.1l-.03-.02c-.03 0-.05-.03-.05-.06v-.32c0-.04.02-.06.06-.07l.1-.03c.06-.01.09 0 .1.06 0 .1-.03.16-.09.2a.1.1 0 0 0-.04.1Z" fill="#04010B"/><path d="M10.06 13.28h.03c.03.01.03.03.02.07-.01.03-.03.04-.06.03a.1.1 0 0 1-.03 0c-.03-.03-.04-.05-.01-.07a.17.17 0 0 1 .05-.03ZM10.74 13.27c.08 0 .1.07.08.19-.02.1-.05.16-.1.16-.03 0-.06-.06-.07-.16-.02-.13 0-.2.09-.19Z" fill="#FD9E18"/><path d="m6.97 13.48-.03-.09c-.01-.05 0-.08.05-.08l.1.01c.03.02.04.06.02.1a.34.34 0 0 1-.05.07c-.04.05-.07.04-.09 0Z" fill="#FED201"/><path d="m7.25 13.32.12.03c.03.07.01.1-.07.09-.04-.01-.07-.03-.1-.06l.01-.05a.04.04 0 0 1 .04-.01Z" fill="#FEC400"/><path d="M7.52 13.4c.03 0 .06-.02.06-.05 0-.03-.03-.05-.07-.05-.04 0-.06.02-.06.06 0 .03.03.05.07.05Z" fill="#FD9E18"/><path d="M11.64 13.4c0 .06.01.1.04.1.03.01.06-.03.06-.09 0-.05-.01-.1-.04-.1s-.06.04-.06.1Z" fill="#04010B"/><path d="M7.98 13.54v-.18l.03-.04h.04c.08.05.11.11.1.18a.1.1 0 0 1-.04.07c-.04.02-.07.02-.1.01-.02 0-.03-.02-.03-.04Z" fill="#FEC400"/><path d="m12.43 13.38-.05-.02c-.08-.04-.07-.05.01-.04.13.01.28.05.44.12.04.01.04.03.02.05l-.03.03c-.01.01-.03.02-.05 0a.4.4 0 0 0-.23-.04c-.03 0-.06-.01-.07-.04l-.01-.04a.05.05 0 0 0-.03-.02ZM5.5 13.48a1.3 1.3 0 0 1-.3-.04c-.05-.01-.05-.03.01-.05.17-.03.27-.02.32.05.02.03.01.05-.03.04Z" fill="#FD9E18"/><path d="M8.78 13.4c0-.02.02-.03.04-.03s.03 0 .04.03c.04.06.03.12 0 .17a.05.05 0 0 1-.05.03.04.04 0 0 1-.04-.03c-.02-.05-.02-.1 0-.17Z" fill="#FEC400"/><path d="M11.92 13.5a.05.05 0 1 0-.05-.06c0 .03.02.06.05.06Z" fill="#350848"/><path d="M7.54 13.91c.1.01.2 0 .2-.03s-.08-.06-.2-.07c-.1-.01-.19 0-.19.03s.08.06.19.07Z" fill="#FEC400"/></svg>