<!-- by TradingView --><svg width="18" height="18" viewBox="0 0 18 18" xmlns="http://www.w3.org/2000/svg"><path fill="#F0F3FA" d="M0 0h18v18H0z"/><path d="M4.26 6.2c.25-.61.94-1 1.26-1.11l4.46-1h.84l.66.27.57.51 1.78 2.2.62.98.54 1.44c0 .1 0 .43-.16.83-.15.4-1.15 1.4-1.64 1.85-.17.2-.67.66-1.29.96-.62.3-2.8 1.16-3.8 1.54-.16.11-.6.33-1.1.33-.5 0-.8-.3-.88-.45l-.64-1.15a17.8 17.8 0 0 1-1.24-3.1C4.1 9.55 4.02 8.44 4 7.98c-.02-.34 0-1.17.25-1.78Z" fill="url(#aqzmvda25)"/><path d="M4.28 6.5c.01-.12.19-.16.28-.17l2.15 3.8 1.73 1.71 5.3-1.6 1.02-.28c-.03.1-.09.3-.16.42a37 37 0 0 1-1.36 1.38c-.25.23-.82.74-1.13.94-.32.2-1.19.54-1.58.7l-2.91 1.13-1.18-.23-.73-1.2a20.19 20.19 0 0 1-1.3-3.47 15.88 15.88 0 0 1-.13-3.13Z" fill="url(#bqzmvda25)"/><path d="M5.85 7.03a3.97 3.97 0 0 1-.37-1.16l-1.11.5 1.48 2.55c.38.9 1.16 2.85 1.2 3.42.06.72-.33 1.6-.43 1.8-.08.15-.21.09-.27.04.26.41.74.43.99.43.2 0 .36-.1.42-.14-.21.05-.2-.12-.17-.21.03-.1.15-.38.35-.75.2-.37.64-.8.83-.97l-.43.28-1.14-.48-.13-.78 1.03-.84c-.8-.61-1.88-2.83-2.25-3.69Z" fill="url(#cqzmvda25)"/><path d="m9.01 11.03-.93-.3-1.02.85.14.78 1.16.47.65-.4v-1.4Z" fill="#005C63"/><path d="M10.12 10.95c-.4.12-.99.09-1.23.06L9 12.4c.58-.3 4.1-1.66 5.8-2.3a.56.56 0 0 0 .1-.28c0-.12-.23-.44-.34-.59-.17.2-.6.39-.8.46-1.04.37-3.24 1.13-3.65 1.25Z" fill="url(#dqzmvda25)"/><path d="M13.59 9.46c-.59.33-2.27.92-3.04 1.18l-.31.27c1.13-.38 3.47-1.17 3.8-1.3.4-.17.4-.28.52-.28.1 0 .27.36.34.54.07-.06.18-.53 0-1-.27-1.02-2.13-3.27-3.03-4.26 0 0-.5-.64-1.46-.6-.96.02-3.9.74-4.39.9-.39.12-.66.25-.76.3.24 0 .38.1.43.14.28-.31 1.2-.53 1.62-.6.95-.2 2.94-.6 3.28-.62.41-.03.88.22 1.22.55.34.32 2.35 2.8 2.58 3.4.22.59-.08.97-.8 1.38Z" fill="#41FCF4"/><ellipse cx=".29" cy=".8" rx=".29" ry=".8" transform="matrix(.96589 -.25895 .28348 .95898 5 10.04)" fill="#01FFFD"/><ellipse cx=".28" cy=".83" rx=".28" ry=".83" transform="matrix(.51842 .85513 -.87628 .4818 10.04 12.22)" fill="#01FFFD"/><ellipse cx=".21" cy=".62" rx=".21" ry=".62" transform="matrix(.51842 .85513 -.87628 .4818 12.33 11.93)" fill="#01FFFD"/><path fill-rule="evenodd" d="m8.4 7.02.71 1.72-.5.68 1.88.08L12 8.09l-.92-2.15H8.33l-.73.53h1.12l.1.16-.43.4Zm.67-.4.7 1.58-.2.29.07.14 1.4-.09.1-.12-.6-1.86-.17-.1H9.2l-.13.17Z" fill="#fff"/><defs><linearGradient id="aqzmvda25" x1="10.4" y1="9.55" x2="8.77" y2="14.97" gradientUnits="userSpaceOnUse"><stop stop-color="#00C8D7"/><stop offset="1" stop-color="#A8FFFF"/></linearGradient><linearGradient id="bqzmvda25" x1="5.22" y1="11.98" x2="8.61" y2="13.52" gradientUnits="userSpaceOnUse"><stop offset=".61" stop-color="#01848E"/><stop offset=".89" stop-color="#004A4F"/></linearGradient><linearGradient id="cqzmvda25" x1="6.57" y1="5.87" x2="6.57" y2="14.61" gradientUnits="userSpaceOnUse"><stop offset=".55" stop-color="#01585F"/><stop offset="1" stop-color="#002C31"/></linearGradient><linearGradient id="dqzmvda25" x1="9.81" y1="12.03" x2="13.19" y2="7.97" gradientUnits="userSpaceOnUse"><stop offset=".81" stop-color="#007881"/><stop offset="1" stop-color="#0AD5E5"/></linearGradient></defs></svg>