<!-- by TradingView --><svg width="18" height="18" viewBox="0 0 18 18" xmlns="http://www.w3.org/2000/svg"><path fill="url(#a)" d="M0 0h18v18H0z"/><path d="m11.1 4.46-.43.17h-.04a4.49 4.49 0 0 0-.48-.15c.09-.16-.05-.23-.18-.22-.13 0-.25.04-.37.1a.14.14 0 0 1-.06.01 4.66 4.66 0 1 0 3.2 1.85l.45.04c.51.79.82 1.73.81 2.67v.46a5.01 5.01 0 1 1-9.97-1 5.02 5.02 0 0 1 7.07-3.93Z" fill="#FE7F2F"/><path d="M13.04 4.4a8.36 8.36 0 0 1-.74.3 2.78 2.78 0 0 1-.15-.34c.16-.03.3-.04.38-.04a16.6 16.6 0 0 1 .47.04c0 .02.01.04.04.04ZM9.64 4.82l-.15-.2.16-.12-.01-.01a.01.01 0 0 0-.01 0c-.08.06-.16.11-.25.15l.34-.25a.69.69 0 0 1 .19-.05c.04 0 .17-.01.16.07a3.77 3.77 0 0 1-.43.41Z" fill="#EBCF47"/><path d="M12.15 4.36c.04.12.1.24.15.35l-.63.2a1.5 1.5 0 0 0-.08-.28l.2-.08v-.01h-.01l-.42.1-.1-.05c.3-.1.59-.18.89-.23Z" fill="#E9B947"/><path d="m9.72 4.4-.34.24a4.2 4.2 0 0 0-.67.54c-.16.16-.3.34-.41.54a7.38 7.38 0 0 0-.27.46l-.02-.05a3.42 3.42 0 0 1 .28-.54 4.99 4.99 0 0 1 .82-.86c.11-.09.22-.15.36-.23.08-.05.16-.08.25-.1Z" fill="#FEF1E6"/><path d="M9.49 4.63c-.1.06-.18.12-.26.19a.73.73 0 0 0-.13.13c.06-.04.1-.07.16-.09.03-.01.04 0 .01.02l-.08.09-.23.23a26.32 26.32 0 0 0 .16-.06l-.15.16v.01h.01l.14-.09c-.23.18-.44.34-.61.56a30.43 30.43 0 0 1-.28.34h.01l.24-.22a91 91 0 0 0 .42-.02.69.69 0 0 0-.1.13h.01a.01.01 0 0 0 .02 0 .45.45 0 0 1 .13-.1l-.06.11s0 .01 0 0l.81-.61c.21-.15.38-.24.67-.4a8.48 8.48 0 0 1 .68-.32 2.16 2.16 0 0 1-.37.24c.08-.02.14-.04.2-.08.15-.08.31-.15.47-.21l.42-.1v.01l-.19.08-.37.15c-.15.06-.29.13-.42.2-.03.03-.07.04-.1.06h.01a28.33 28.33 0 0 1 .28-.06l-.1.05c-.04.02-.03.03.01.02a1.95 1.95 0 0 0 .17-.03l-.01.01-.12.06-.27.11v.01l.23-.04a11.88 11.88 0 0 0-1.06.44c-.23.11-.42.24-.67.39l.39-.15h.01c.14.02.27.05.4.09a1.67 1.67 0 0 1 .65.34 5.66 5.66 0 0 1 .7.74c-.28-.12-.56-.2-.86-.26a.52.52 0 0 1 .1-.22v-.02a2.2 2.2 0 0 0-.44-.25.61.61 0 0 0-.29-.04v.01a2.43 2.43 0 0 1 .18.14.9.9 0 0 0-.38-.06 5.13 5.13 0 0 0-.58.05.2.2 0 0 0-.1.06c-.02.01-.02.02 0 .01a.85.85 0 0 1 .43 0c.03.02.03.02 0 .02-.14 0-.28 0-.42.03a.79.79 0 0 0-.45.27c-.02.03-.05.03-.07.02a1.23 1.23 0 0 0-.86.02h-.01l-.11-.07a.98.98 0 0 0-.07-.2c-.01-.02 0-.03.01 0a.5.5 0 0 1 .12.17c0 .03.01.03.01 0l-.02-.09-.04-.08a.27.27 0 0 1-.02-.12 5.29 5.29 0 0 1 .54-.21l.03-.07.01.05h.02l.25-.46c.11-.2.25-.38.41-.54a4.2 4.2 0 0 1 .93-.69h.01l-.16.14Z" fill="#D52E2F"/><path d="m11.27 4.59.1.05c-.17.06-.33.13-.48.21-.06.04-.12.06-.2.08a2.16 2.16 0 0 0 .37-.25l.2-.1ZM9.49 4.63l.15.19-.38.3a.32.32 0 0 1-.07-.15l.08-.09c.03-.03.02-.03-.01-.02a.49.49 0 0 0-.15.1v-.01c.04-.06.08-.1.12-.13a55 55 0 0 1 .26-.2ZM11.6 4.63l.07.29-.32.1c-.05-.08-.1-.16-.13-.24l.37-.15Z" fill="#E79C48"/><path d="M11.22 4.78c.03.08.08.16.13.24l-.45.15-.22.04h-.01l.27-.12a3.8 3.8 0 0 1 .12-.06v-.01c-.06 0-.11.02-.16.03-.04 0-.05 0 0-.02l.09-.05v-.01a29.44 29.44 0 0 0-.28.07l.09-.05c.13-.08.27-.15.42-.21Z" fill="#E96F45"/><path d="M11.9 4.94c.24.19.46.38.67.6l-.5-.02a4.78 4.78 0 0 0-.59-.45l.41-.13Z" fill="#FE7F2F"/><path d="M9.19 4.97c0 .05.03.1.07.15l-.14.1-.14.1V5.3l.14-.16c.03-.04.03-.04-.01-.02a26.45 26.45 0 0 1-.15.08l.23-.23Z" fill="#E96F45"/><path d="M12.36 5.61c.05.03.12.03.17.06.02 0 .02.01 0 .02l-.1.01-.2.02c-.17 0-.37.03-.59.07a73 73 0 0 0-.8.15c-.12.02-.24.07-.35.13L10.36 6a.01.01 0 0 1 0-.01 5.62 5.62 0 0 1 2-.37Z" fill="#FEF1E6"/><path d="M12.95 5.67c-.01.16-.02.32-.01.48l-.53-.05.02-.4.1-.01c.02 0 .02-.01 0-.02-.05-.03-.12-.03-.17-.06.2 0 .4.03.6.06Z" fill="#E79C48"/><path d="M13.58 5.8c-.1.1-.12.23-.07.4l-.57-.05.01-.48c.23.03.44.07.63.12Z" fill="#E9B947"/><path d="m12.43 5.7-.02.4a6 6 0 0 0-.55-.02.7.7 0 0 0-.21-.03 1.34 1.34 0 0 1-.21 0h-.04v-.01l.07-.02.43-.05c.07-.01.18-.01.27-.05a2.57 2.57 0 0 0-.46-.06c-.08 0-.08 0 0-.02.05 0 .1 0 .16-.02l.16-.03c.06 0 .13-.03.2-.07l.2-.02Z" fill="#E96F45"/><path d="M12.24 5.72a.75.75 0 0 1-.2.07l-.17.03c-.05.02-.1.02-.16.02-.08.01-.08.02 0 .02a2.57 2.57 0 0 1 .46.06c-.09.04-.2.04-.27.05a5.7 5.7 0 0 1-.5.07v.01h.04l.01.01h.2a14.42 14.42 0 0 0-.25.02c-.26.01-.5.04-.73.08l-.08-.01a2.96 2.96 0 0 0-.1-.08c.11-.06.23-.1.35-.13l.8-.15c.22-.04.42-.07.6-.07Z" fill="#D52E2F"/><path d="M13.58 5.8a4.84 4.84 0 0 1 .85.31l.06.06a.02.02 0 0 1 .01.02l-.01.01a.2.2 0 0 1-.1.03h-.26l-.62-.03c-.05-.17-.02-.3.07-.4Z" fill="#EBCF47"/><path d="M10.46 6.76a5.32 5.32 0 0 0-1.5-.1c-.15.02-.3.04-.44.1H8.5v-.01a.79.79 0 0 1 .45-.26c.14-.02.28-.04.42-.03.03 0 .03 0 0-.02a.85.85 0 0 0-.43 0c-.02 0-.02 0 0-.01a.2.2 0 0 1 .1-.06 2.3 2.3 0 0 1 .58-.05.9.9 0 0 1 .38.06 2.43 2.43 0 0 0-.17-.15c.08 0 .18 0 .27.04a2.19 2.19 0 0 1 .44.25v.02a.52.52 0 0 0-.1.22Z" fill="#FE7F2F"/><path d="M12.81 7.04a2.22 2.22 0 0 1-.38-.1 4.48 4.48 0 0 0-.5-.11l.19.12a.4.4 0 0 1-.13-.02l-.29-.1.06.05c-.03 0-.06 0-.1-.02a.52.52 0 0 0-.25-.01l-.09-.02a.12.12 0 0 1-.05-.04 2.67 2.67 0 0 0-.2-.22c.21-.02.43 0 .65.05a5.3 5.3 0 0 1 1.1.42Z" fill="#D52E2F"/><path d="M12.43 6.94a.99.99 0 0 0-.03.23L12 7.03a.1.1 0 0 1 0-.1.4.4 0 0 0 .13.02l-.19-.12v-.01c.17.03.34.07.5.12Z" fill="#E79C48"/><path d="M12 6.93a.1.1 0 0 0-.01.1l-.58-.18c.1-.01.18 0 .25.01l.1.03v-.01l-.07-.04h.01l.3.09Z" fill="#E96F45"/><path d="M7.13 7.09c.02.01.01.02 0 .03l-.34.23a.76.76 0 0 1-.35.16A.45.45 0 0 1 6 7.3a18.4 18.4 0 0 1-.2-.33l.16-.03a6.86 6.86 0 0 0 .26.32c.13.1.3.07.43 0L7 7h.05l.08.08ZM8.87 7.12h.36a.06.06 0 0 1 .05.02l.26.3c.21.25.51.34.83.22.15-.06.26-.1.39-.17a15.75 15.75 0 0 0 .21-.1l.4.12c.02 0 .02 0 0 .01l-.25.13c-.34.17-.53.29-.84.31-.16.02-.32 0-.47-.03a.85.85 0 0 1-.4-.22 7.66 7.66 0 0 1-.54-.59Z" fill="#fff"/><path d="m8.13 7.67-.12-.06H8a.2.2 0 0 0-.03.09c-.02.2-.04.4 0 .61l.02.04a.01.01 0 0 0 .03 0v-.1c0-.1 0-.18.02-.24h.02l.02.25c0 .12.05.22.12.31l.1.33c.07.15.17.29.29.4.11.13.24.23.38.32.19.13.4.2.63.23a1.98 1.98 0 0 0 1.8-.71c.22-.27.39-.58.51-.9a16.3 16.3 0 0 1 .32.95c.05.3.08.59.09.89l-.02.3-.02.18a3.65 3.65 0 0 1-.3.99 3.12 3.12 0 0 1-.93.9c-.22.12-.43.21-.64.3a3.05 3.05 0 0 1-.57.2h.01a4.35 4.35 0 0 1-3-.66 10 10 0 0 1-.8-.72 5.97 5.97 0 0 0 .97.4 5.11 5.11 0 0 0 1.78.18l.34-.07a6.01 6.01 0 0 0 .63-.26c.17-.13.3-.26.4-.38a1.8 1.8 0 0 0 .4-1.31h-.01l-.12.03a2.12 2.12 0 0 1-.81.02 1.6 1.6 0 0 1-.67-.33c-.14-.1-.24-.2-.33-.34-.02-.03-.04-.05-.06-.05-.03 0-.07 0-.13.02a1.92 1.92 0 0 0-.38.19l-.61.37a.84.84 0 0 1-.41.14c-.1.01-.24 0-.3-.08-.13-.15-.13-.38-.08-.55.18-.05.38-.07.57-.06.16 0 .37.06.51.08.17.03.38.03.53-.06.24-.16.07-.5-.09-.63l-.17-.18c-.13-.13-.13-.28-.15-.47 0-.07.04-.17-.02-.25-.07-.1-.35.03-.43.06-.01.01-.02 0-.01-.01a5.63 5.63 0 0 0 .22-.65.66.66 0 0 1 .36-.05.3.3 0 0 1 .18.1v.02l-.03.22Z" fill="#D52E2F"/><path d="M6.66 7.8a3.88 3.88 0 0 1 .31.45.72.72 0 0 1-.13.16h-.01c-.12-.2-.23-.35-.36-.5-.1-.1-.19-.13-.3-.12a.71.71 0 0 0-.25.13c-.14.1-.27.2-.38.32-.01.02-.02.01-.02 0v-.26l.35-.23c.09-.06.16-.1.23-.12.15-.04.31 0 .44.06l.12.11Z" fill="#fff"/><path d="M8.13 7.67c-.01.09-.02.17-.01.25a4.5 4.5 0 0 0 .05.5l.03.15a.52.52 0 0 1-.12-.3A16.68 16.68 0 0 1 8.04 8a.86.86 0 0 0-.02.24.46.46 0 0 1 0 .1.01.01 0 0 1-.03 0l-.02-.04c-.04-.2-.02-.4 0-.61A.2.2 0 0 1 8 7.62h.01l.12.05Z" fill="#FE7F2F"/><path d="m7.8 8.06-.04.13c-.09-.04-.15-.03-.19.04-.03.06-.03.16-.02.23.02.12.02.2-.09.27l-.2.1a.51.51 0 0 0-.28.25.76.76 0 0 0-.07.2c-.01.06.02.09.08.09l.02.04-.26.03c-.12.03-.23.07-.33.13-.02-.21 0-.45.1-.63.03-.07.08-.15.15-.23a2.06 2.06 0 0 1 .81-.6c.04-.02.3-.13.31-.05Z" fill="#EBCF47"/><path d="M7.8 8.06c-.01.07-.03.14-.02.2 0 .05 0 .1.02.18 0 .15.09.27.2.37.14.14.3.27.3.49 0 .26-.45.21-.61.18-.23-.05-.45-.1-.68-.07a.1.1 0 0 0-.02-.04c.2-.01.41.03.62.04.09 0 .21.03.27.04.1 0 .36 0 .36-.15a.43.43 0 0 0-.13-.31l-.16-.17c-.06-.06-.09-.11-.13-.18a.37.37 0 0 1-.07-.19l.01-.26.03-.13Z" fill="#E79C48"/><path d="m10.81 9.2-.53-.63a.4.4 0 0 0-.16-.12c-.35-.13-.6.03-.87.24a5.39 5.39 0 0 0-.4.35.01.01 0 0 1-.02 0l-.13-.22a.02.02 0 0 1 0-.02l.55-.44c.14-.1.28-.18.46-.2.38-.05.74.1.97.4a54.72 54.72 0 0 0 .35.45l-.2.2a.01.01 0 0 1-.02-.01Z" fill="#fff"/><path d="M9.85 12.95h-.01v-.01c.2-.05.38-.1.57-.18a12.41 12.41 0 0 0 .84-.43 3.12 3.12 0 0 0 .8-.9c.1-.3.19-.58.23-.87l.02-.18.02-.3a4.86 4.86 0 0 0-.4-1.85l.02-.06.05-.02H12l.11.25c.09.22.16.45.2.67.05.16.07.33.08.5a7.72 7.72 0 0 1-.08 1.36 2.12 2.12 0 0 1-.64 1.18c-.17.15-.35.28-.57.4-.27.13-.5.23-.7.3-.17.07-.35.11-.55.14Z" fill="#E96F45"/><path d="M7.76 8.2v.25c0 .07.02.14.06.2l.13.17.16.17c.08.08.14.18.13.3 0 .16-.26.16-.36.16l-.27-.04c-.2-.01-.41-.05-.62-.04-.06 0-.1-.03-.08-.09a.76.76 0 0 1 .07-.2c.06-.12.15-.2.27-.25l.21-.1c.11-.07.11-.15.1-.27-.02-.07-.02-.17.01-.23.04-.07.1-.08.19-.04Z" fill="#FE7F2F"/><path d="M7.4 8.5a.78.78 0 0 0-.11.12.12.12 0 0 1-.05.03.02.02 0 0 1-.03-.02c0-.08.1-.15.18-.15.02 0 .02 0 0 .01Z"/><path d="m5.6 9.03-.02.05a2 2 0 0 0-.13.84 7.66 7.66 0 0 0 .1.85c.01.09.05.2.1.32a1.9 1.9 0 0 1-.35-1.55 5.02 5.02 0 0 1 .2-.64l.1.13Z" fill="#FEF1E6"/><path d="m6.33 9.5-.23.03c-.07 0-.18-.02-.23-.07a.97.97 0 0 1-.16-.2 4.54 4.54 0 0 0-.13-.18l.02-.05c.12.17.3.25.5.24a1.21 1.21 0 0 0 .24-.02l-.01.26Z" fill="#D52E2F"/><path d="m5.58 9.08.13.18c.05.08.1.15.16.2.05.05.16.07.23.07.05 0 .13 0 .23-.02 0 .08 0 .23.12.14a1 1 0 0 1 .2-.1c-.04.17-.04.4.08.55.07.08.22.1.3.08a.84.84 0 0 0 .42-.14 123.69 123.69 0 0 0 .8-.48l.19-.08.13-.02c.02 0 .04.02.06.05.09.14.2.23.33.34a1.6 1.6 0 0 0 .84.36c.22.01.43 0 .64-.05l.12-.03a.01.01 0 0 1 .01 0v.01c.04.5-.1.93-.4 1.3-.1.12-.23.25-.4.38a6 6 0 0 1-.98.33 5.1 5.1 0 0 1-2.75-.58c-.14-.15-.27-.31-.4-.48a4.3 4.3 0 0 1-.2-1.17 2 2 0 0 1 .14-.84Z" fill="#FE7F2F"/><defs><linearGradient id="a" x1="3.35" y1="3.12" x2="21.9" y2="24.43" gradientUnits="userSpaceOnUse"><stop stop-color="#1A1E21"/><stop offset="1" stop-color="#06060A"/></linearGradient></defs></svg>