<!-- by TradingView --><svg width="18" height="18" viewBox="0 0 18 19" xmlns="http://www.w3.org/2000/svg"><path fill="#76C7FE" d="M0 .22h18v18H0z"/><path d="M14.35 8.42a3.7 3.7 0 0 0-.16-1.1 1.45 1.45 0 0 1-.05-.36c0-.17-.02-.41-.08-.73a.12.12 0 0 0-.05-.08.11.11 0 0 0-.09-.02c-.1.02-.22.05-.34.1-.27.12-.53.2-.76.26-.33.07-.65.16-.97.27-.46.15-.72.37-.79.65a.31.31 0 0 0 .02.2c.06.13.14.27.26.41l.23.26c.15.21.28.47.38.79l.22.72c.07.26.16.46.26.6.04.05.11.1.21.12l.03.01c.09.03.15.03.2.02l.54-.13c.07-.02.07-.04 0-.06a.76.76 0 0 1-.29-.18.05.05 0 0 0-.05-.01.05.05 0 0 0-.04.03.84.84 0 0 1-.28.31c-.02.01-.04 0-.06-.02-.18-.04-.26-.15-.25-.31 0-.06.04-.15.09-.28l.05-.14v-.06c-.16-.41-.12-.8.1-1.16.22-.33.5-.53.85-.59.08-.01.16 0 .24.06a4.72 4.72 0 0 1 .58.42l.5.48c.11.11.16.23.15.34a.5.5 0 0 1-.24.4.11.11 0 0 0-.04.04.86.86 0 0 1-.17.26c-.08.06-.18.08-.3.04-.02-.01-.03 0-.02.02.03.11-.01.22-.14.32a.53.53 0 0 1-.21.11.79.79 0 0 1-.2.01h-.12c-.03 0-.05.02-.05.05-.01.2 0 .44.06.7.02.08 0 .1-.07.03a.76.76 0 0 0-.08-.07c-.08-.05-.11-.03-.08.06.04.15.05.3.04.48 0 .02-.01.03-.02.03h-.04a.24.24 0 0 0-.12-.06c-.02 0-.04 0-.04.03-.02.06-.05.1-.11.1a.52.52 0 0 0-.34.08l-.52.4c-.55.39-1.14.66-1.76.8a8.3 8.3 0 0 1-2.45.09l-.45-.1a5.35 5.35 0 0 1-2.9-1.75 3.27 3.27 0 0 1-.6-1.06c-.04-.1-.07-.15-.1-.17-.11-.08-.2-.16-.26-.23a2.13 2.13 0 0 1-.34-.53c-.02-.05-.05-.06-.08-.02l-.12.1c-.14.09-.16.06-.07-.07l.15-.11c.02-.02.02-.03 0-.05-.02-.04-.02-.09.01-.13a.05.05 0 0 0 0-.06l-.04-.08c0-.01-.02-.02-.04-.01a.45.45 0 0 1-.05.01c-.11.02-.12 0-.03-.07a.36.36 0 0 1 .13-.05c.02 0 .04-.02.05-.03l.05-.13c.02-.03 0-.04-.03-.03a.26.26 0 0 1-.13 0v-.05l.02-.02h.2c.02 0 .02-.01 0-.03a.24.24 0 0 0-.07-.05.07.07 0 0 1-.05-.05c0-.02 0-.04.02-.06l.16-.2a.04.04 0 0 0 0-.05c-.07-.15-.1-.27-.09-.36.06-.28.23-.44.52-.49.03 0 .05-.01.06-.04l.04-.1c.01-.02 0-.04-.02-.04h-.3c-.02-.01-.03-.02-.03-.04L3.6 7l.02-.02a.8.8 0 0 1 .29-.04c.02 0 .04 0 .04-.04.07-.46.28-.85.62-1.15.05-.04.1-.08.15-.1a.1.1 0 0 1 .08.02.1.1 0 0 1 .05.06l.16.6c0 .03.02.03.05.02.13-.1.27-.12.43-.07.05.02.07 0 .05-.05v-.06a.03.03 0 0 1 .05 0l.75.34h.03c.1-.13.24-.25.4-.36.28-.2.57-.27.88-.25.1.01.15.08.14.2 0 .2-.02.34-.03.4-.01.07 0 .2.01.39.03.31 0 .63-.07.95-.03.1-.08.2-.15.29a.05.05 0 0 0-.01.06c.01.02.03.02.05.02a2.62 2.62 0 0 1 .86.1l-.01.01a3.89 3.89 0 0 0-.88-.02l.04.18c0 .02.02.03.04.03.35.01.57.04.66.09.02 0 .02.01 0 .01l-.57-.01c-.03 0-.04.01-.02.04l.06.11c.02.02.01.05 0 .06l-.04.05v.05c.12.1.12.21 0 .35v.03c0 .03.01.04.04.04h.04c.01.02.02.03.01.05l-.05.16c-.01.03 0 .05.02.06.9.34 1.77.27 2.6-.2a.06.06 0 0 0 .03-.06c0-.02-.01-.03-.03-.03h-.14c-.06-.01-.07-.04-.03-.08.08-.09.16-.2.24-.35v-.03h-.03l-.08.01c-.17.04-.27.05-.32.03a.48.48 0 0 1-.1-.06.13.13 0 0 0-.07-.02.74.74 0 0 1-.33-.12.07.07 0 0 0-.07-.01c-.1.03-.18 0-.22-.09a.06.06 0 0 0-.04-.04 1.06 1.06 0 0 1-.38-.15.07.07 0 0 1-.03-.06c0-.03.01-.04.04-.06a6.4 6.4 0 0 0 1.67-1.3 6.94 6.94 0 0 1 1.72-1.32l.03.03c0 .02.01.04.04.04.1 0 .18-.03.23-.06.25-.16.5-.3.75-.43.04-.02.08-.01.1.03.08.13.1.36.07.7 0 .02 0 .03.03.02.11-.01.22-.04.32-.07.05-.01.11.01.18.08.08.1.14.21.16.34.03.22.05.45.06.67a3.44 3.44 0 0 0 .15.8c.04.18.06.38.05.58 0 .02-.01.04-.04.04Z" fill="#020101"/><path d="M11.59 8.65a4.91 4.91 0 0 0 .25 2.07c.06.31-.05.55-.32.72-.19.12-.38.2-.57.26a9.2 9.2 0 0 1-2.38.35 6.15 6.15 0 0 1-1.71-.19 2.07 2.07 0 0 1-.67-.31c-.14-.1-.27-.23-.39-.38a6.78 6.78 0 0 1-.36-.56 4.22 4.22 0 0 0-.57-.7v-.03c.36.29.68.64.94 1.04.25.39.57.65.97.78.3.1.55.15.78.18 1 .1 2 .03 3.04-.2.63-.14 1-.36 1.11-.65.05-.12.05-.3 0-.55-.08-.34-.2-.67-.37-1-.09-.16-.2-.26-.36-.28-.1-.02-.24 0-.43.04-.01-.03-.08-.04-.2-.03-.02 0-.02 0 0-.03a.6.6 0 0 0 .16-.31c0-.03.01-.04.03-.05l.22-.05c.2-.03.35-.11.45-.25a.43.43 0 0 0-.13-.4c-.21-.2-.42-.43-.62-.65a.27.27 0 0 0-.12-.08 1.18 1.18 0 0 0-.13-.03c.42-.47.83-.87 1.25-1.18.12-.1.33-.22.62-.38a.05.05 0 0 1 .06 0l.04.01a.1.1 0 0 0 .05 0c.1-.05.18-.06.23-.04.14.06.28.1.4.13.02 0 .03.01.03.03v.2h.03v-.01a.8.8 0 0 0 .02-.22.04.04 0 0 0-.03-.04l-.08-.01c-.13-.02-.21-.06-.23-.13-.01-.02 0-.03.01-.04l.63-.38a.07.07 0 0 1 .08 0c.02.02.04.04.04.07v.57c0 .06-.03.1-.09.11l-.19.06c-.01 0-.02 0-.01-.02l.12-.36c.01-.04.01-.04-.01 0-.07.1-.12.21-.16.34a.15.15 0 0 1-.11.11l-1.12.35c-.45.14-.75.32-.89.53-.1.16-.12.34-.05.56.03.1.12.23.25.38l.07.08c.2.23.35.42.42.57Z" fill="#FBBE40"/><path d="M4.92 6.4a.5.5 0 0 0-.07-.13.4.4 0 0 1-.07-.14c-.02-.1-.04-.22-.04-.33 0-.02-.02-.03-.06-.04l.03-.03c.01-.02.03-.02.06-.01.02 0 .03.02.03.05.01.2.06.38.16.56v.06l-.04.02Z" fill="#F0AB61"/><path d="M4.68 5.76c.04 0 .06.02.06.04 0 .11.02.22.04.33 0 .04.03.08.07.14a.5.5 0 0 1 .07.14c-.22.06-.4.18-.54.35-.1.01-.18.07-.22.18a.1.1 0 0 1-.08-.01c-.02-.01-.03-.03-.02-.05.07-.42.26-.78.55-1.08a.24.24 0 0 1 .07-.04Z" fill="#DA6809"/><path d="M7.72 6.02c-.18 0-.3.05-.33.13l-.2.1a1.12 1.12 0 0 0-.82.59h-.02v-.02a.43.43 0 0 1 .05-.16c.19-.27.44-.47.77-.61.23-.1.41-.1.55-.03Z" fill="#FBBE40"/><path d="M13.82 6.1c-.39.17-.78.3-1.17.4l-.58.14c-.36.1-.63.23-.8.37a.61.61 0 0 0-.2.68c.02.08.12.23.3.44.18.22.3.37.35.46a3.5 3.5 0 0 1 .26.82h-.02l-.3-.74a4.7 4.7 0 0 0-.25-.42l-.24-.27a1.26 1.26 0 0 1-.23-.32.65.65 0 0 1-.07-.4c.02-.13.1-.24.23-.34.17-.15.42-.27.72-.36a39 39 0 0 0 1.9-.59c.1-.04.19 0 .24.08.02.03 0 .04-.02.04h-.12Z" fill="#F0AB61"/><path d="M7.72 6.02c0 .2-.03.38-.07.53-.02.09-.01.24.03.46.01.08 0 .23-.03.45l-.04.25a.77.77 0 0 1-.1.26c-.02.06-.09.1-.18.15a.22.22 0 0 1-.05-.07 1.36 1.36 0 0 0-.14-.16 2.1 2.1 0 0 1-.17-.2 3.3 3.3 0 0 0-.38-.4c-.1-.11-.2-.25-.27-.43l.02-.04.01.02h.02l.07-.13c.2-.26.45-.42.76-.46-.14.2-.24.4-.32.61 0 .03 0 .06.02.08.02.03.05.03.08.03L7 6.96c.02 0 .04 0 .04.02v.13c.01.04.04.07.08.1.07.02.1.07.07.14a.94.94 0 0 0-.03.17c0 .1.02.11.06.02.1-.19.14-.3.15-.33.07-.18.04-.32-.06-.4-.04-.03-.04-.07-.03-.1.05-.1.06-.17.02-.2-.02-.03-.06-.03-.11-.03-.05.01-.06 0-.03-.04l.23-.29c.04-.08.15-.12.33-.13Z" fill="#DA6809"/><path d="m14.35 8.42-.02-.01c-.01 0-.02 0-.03-.02a4.72 4.72 0 0 0-.53-.4.33.33 0 0 0-.24-.05c-.35.06-.63.26-.85.6-.22.35-.26.74-.1 1.15v.06c0 .03-.02.08-.05.14l-.09.28c-.01.16.07.27.25.3 0 .02-.02.04-.05.04-.1-.02-.17-.07-.2-.12-.1-.14-.2-.34-.27-.6l-.22-.72a2.76 2.76 0 0 0-.6-1.05 1.6 1.6 0 0 1-.27-.41.31.31 0 0 1-.02-.2c.07-.28.33-.5.8-.65.31-.11.63-.2.96-.27.23-.05.49-.14.76-.26.12-.05.24-.08.34-.1.03 0 .06 0 .1.02l.04.08c.06.32.08.56.08.73 0 .13.02.26.05.37l.1.36c.03.11.05.35.06.73Z" fill="#F0E0C2"/><path d="m7.4 6.15-.24.29c-.03.03-.02.05.03.04.05 0 .1 0 .11.03.04.03.03.1-.02.2-.01.03 0 .07.03.1.1.08.13.22.06.4 0 .03-.06.14-.15.33-.05.1-.06.09-.06-.02l.03-.17c.02-.07 0-.12-.07-.15-.04-.02-.07-.05-.08-.09v-.13c0-.02-.02-.03-.04-.02h-.02a.08.08 0 0 1-.1-.1c.08-.21.18-.42.32-.61l.2-.1Z" fill="#020101"/><path d="M6.32 6.86c.08.18.17.32.27.42.18.17.3.3.38.42l.17.19.14.16.05.07.1.05c.02.01.02.02 0 .02l-.54.08c-.01 0-.02 0-.01.02l.01.03.03.02.5-.08c.02 0 .03 0 .04.02l.08.2-.01.02c-.22 0-.41.01-.57.03-.07 0-.13.03-.16.07-.03.03-.02.05.02.04.2-.04.42-.06.66-.06.06 0 .1.01.13.04.03.02.06.06.08.12 0 .02 0 .03-.02.04l-.07.02-.02.01v.04c0 .01 0 .03.02.04l.15.13c.04.03.04.05 0 .08a.33.33 0 0 0-.1.13v.06c0 .02.01.03.02.03.02 0 .04.02.04.04v.09l-.14.4c-.02.06 0 .06.03.02l.12-.2c0-.01.02-.02.04 0 .35.16.66.25.93.26.18 0 .31.02.4.03-.27.22-.59.3-.95.24a.73.73 0 0 1-.31-.17c-.03-.02-.03-.01-.02.02.1.2.27.34.53.4.2.06.43.07.68.03.44-.06.76-.29.97-.68a.4.4 0 0 0 .23.09c.02 0 .04.01.05.03.13.15.3.26.5.34.08.03.09.02.02-.04l-.36-.3c-.03-.02-.02-.04 0-.05a.36.36 0 0 0 .1-.06c.02-.02.01-.03-.01-.03h-.27c-.02 0-.02-.01-.01-.03l.31-.5c.19-.05.33-.07.43-.05.16.02.28.12.36.29.17.32.29.65.36 1 .06.24.06.42.01.54-.11.3-.48.51-1.1.65-1.04.23-2.06.3-3.05.2a3.72 3.72 0 0 1-.78-.18c-.4-.13-.72-.4-.97-.78-.26-.4-.58-.75-.94-1.04a1.08 1.08 0 0 1-.65-.28c-.02-.02-.03-.02-.04 0v.04c.1.13.23.22.4.27.28.35.54.73.78 1.12.23.38.5.64.83.8.43.22.95.36 1.55.43 1.02.11 2.03.02 3.03-.28l-.05.04a6.85 6.85 0 0 1-3.5.23A2.74 2.74 0 0 1 5.4 11.2a6.14 6.14 0 0 0-.6-.75 2.63 2.63 0 0 0-.97-.56c-.17-.18-.32-.4-.45-.66-.02-.03-.02-.05 0-.07l.09-.06c.03-.02.03-.03-.02-.02a.74.74 0 0 0-.1.03.1.1 0 0 1-.06 0c-.02-.01-.03-.03-.01-.04.04-.08.04-.14-.01-.2-.02 0-.01-.02 0-.03l.36-.09V8.7l-.28.04c-.03 0-.04 0-.03-.03l.04-.1c0-.03.03-.05.07-.05h.3v-.03c0-.02 0-.03-.02-.03a.58.58 0 0 0-.24 0c-.02 0-.04 0-.03-.03 0-.05-.03-.08-.1-.1h-.02v-.03l.13-.15c.02-.03.03-.03.05 0 .17.16.36.22.55.19a.6.6 0 0 0 .43-.3c.12-.18.1-.39-.06-.6a.69.69 0 0 0-.44-.26v-.01l.04-.15c0-.01.01-.02.03-.01h.4l.03-.02v-.02L4.49 7l-.32-.06c.04-.11.11-.17.22-.18.1-.03.18-.08.27-.13l.26-.14c.13-.03.23-.07.3-.12.03-.02.08-.04.15-.03l.17.01a.1.1 0 0 1 .05.03l.03.02c.02 0 .03 0 .03-.03v-.05c0-.02.02-.03.04-.02l.59.28c.02.01.03.03.02.05a.83.83 0 0 0-.02.13c-.01.06 0 .1.05.1Z" fill="#EEAC32"/><path d="M7.19 6.88h.02c.03-.01.05 0 .06.02.05.1.05.2 0 .29-.02.03-.03.03-.05 0l-.05-.1a.13.13 0 0 1-.02-.06c0-.08-.04-.13-.13-.17C7 6.85 7 6.83 7.01 6.8c.04-.1.09-.17.14-.2.08-.05.1-.03.05.05a.45.45 0 0 0-.05.19c0 .03 0 .04.04.03Z" fill="#F0E0C2"/><path d="M14.08 7.33c0 .14-.05.25-.14.34-.1.1-.2.14-.34.14a.45.45 0 0 1-.33-.14.47.47 0 0 1-.14-.34c0-.13.04-.25.14-.34.09-.1.2-.14.33-.14s.25.05.34.14c.1.1.14.2.14.34Z" fill="#020101"/><path d="M13.75 6.94a.67.67 0 0 0-.3.19l-.15-.03c-.03 0-.03-.02-.02-.04.1-.14.25-.18.47-.12Z" fill="#AE917F"/><path d="M13.45 7.13a.67.67 0 0 1 .3-.19c.17.04.26.16.27.37 0 .22-.1.36-.32.42-.02 0-.03 0-.03-.02.07-.24 0-.44-.22-.58Z" fill="#FFFEFE"/><path d="m6.15 6.96-.84.06a.05.05 0 0 0-.04.05c0 .03.02.05.05.05l.84-.06c.02 0 .04-.02.04-.05a.05.05 0 0 0-.05-.05ZM12.6 7.7c0 .16-.05.29-.16.4-.1.1-.23.15-.37.15a.51.51 0 0 1-.38-.16.53.53 0 0 1-.16-.38c0-.15.05-.28.16-.39.1-.1.23-.15.38-.15.14 0 .27.05.37.15.1.11.16.24.16.39Z" fill="#020101"/><path d="M13.4 7.38c-.06 0-.1 0-.11-.02a.11.11 0 0 1-.03-.1.1.1 0 0 1 .05-.08c.02-.01.05 0 .1.03l.03.05c0 .07.03.14.08.21l-.01.02h-.02l-.05-.08c0-.03-.02-.03-.05-.03Z" fill="#FFFEFE"/><path d="m12.25 7.27-.45.28a.47.47 0 0 1-.17.01c-.03 0-.03-.02-.02-.04.07-.17.2-.27.36-.31.08-.03.17 0 .28.06Z" fill="#AE917F"/><path d="m11.8 7.55.45-.28c.13.03.22.12.27.26.04.13.03.25-.02.36-.05.11-.13.2-.26.26h-.03a.03.03 0 0 1-.02-.04c.04-.28-.1-.47-.4-.56ZM4.04 7.4a.42.42 0 0 0-.16.16.6.6 0 0 0 0 .7v.03a.6.6 0 0 1-.42-.3.42.42 0 0 1-.02-.39c.05-.13.16-.22.34-.26.1-.02.2-.02.26.02l.01.02v.02Z" fill="#ECE0D8"/><path d="M6.54 7.64c.08.16.08.32.02.5a.78.78 0 0 1-.37.4.76.76 0 0 1-.54.09.55.55 0 0 1-.4-.29.57.57 0 0 1-.01-.5c.07-.17.19-.3.37-.4.17-.1.35-.13.54-.09.18.04.3.14.39.3Z" fill="#020101"/><path d="m10.21 7.36.13.03c.04.01.08.04.12.08l.62.65a.43.43 0 0 1 .13.4 5.37 5.37 0 0 1-1.16.25.93.93 0 0 0-.31-.09c-.02 0-.04 0-.06-.02a.5.5 0 0 0-.32-.09c-.02 0-.03 0-.03-.02v-.03c0-.01 0-.02-.02-.02l-.34-.12c-.08-.04-.09-.07 0-.11.45-.23.87-.53 1.24-.9Z" fill="#DA6809"/><path d="M5.8 7.68c-.01-.08-.13-.07-.36.02.18-.22.4-.31.66-.26.06 0 .06.02 0 .03a.57.57 0 0 0-.3.2Z" fill="#AE917F"/><path d="M4.19 7.5h-.06a.06.06 0 0 0-.06.06v.06c0 .04.03.07.07.06h.05c.04 0 .07-.03.06-.06v-.06a.06.06 0 0 0-.06-.07ZM6.2 7.72c.05-.04.07-.1.04-.15-.03-.04-.1-.05-.16 0-.06.04-.08.1-.05.15.03.05.1.05.16 0ZM5.8 7.68c-.22.29-.22.56.01.83.02.01.01.02 0 .02-.11.01-.2 0-.3-.06a.48.48 0 0 1-.2-.2c-.1-.2-.06-.4.13-.57.23-.09.35-.1.35-.02Z" fill="#FFFEFE"/><path d="M11.94 7.9c0 .03 0 .06.03.06.02 0 .04-.02.04-.05 0-.03-.01-.05-.03-.05-.02 0-.04.02-.04.05Z" fill="#AE917F"/><path d="m14.45 9.66-.07.18-.06.05a.05.05 0 0 1-.05.01 1.87 1.87 0 0 0-.57-.05c-.34.02-.63-.1-.89-.36-.02-.02-.02-.04 0-.06l.01-.01v-.03c0-.01 0-.02-.02-.02-.05 0-.07.03-.08.07 0 .1.05.16.17.22l-.34.36a.81.81 0 0 1 .18-.38v-.01h-.01l-.04.02c-.02.02-.04.01-.05-.01-.14-.4-.08-.77.17-1.11.2-.26.45-.44.77-.54h.06l.08.05c.31.23.62.49.93.78.02.02.01.02-.01.02-.17 0-.29.02-.35.06-.2.13-.25.28-.17.46.06.13.18.23.34.3Z" fill="#EEAC32"/><path d="m10.7 8.54-.1-.05a.24.24 0 0 1 .14-.08c.02 0 .04 0 .06-.02a.37.37 0 0 1 .11-.06h.06v.06a.58.58 0 0 1-.27.15Z" fill="#6C3124"/><path d="m4.44 9.27 1 .1c.02 0 .03 0 .03-.03v-.02c0-.02.01-.03.03-.03.02 0 .03 0 .04.02.04.09.05.17.02.23 0 .02-.01.02-.03.01a.12.12 0 0 1-.06-.07c-.01-.03-.03-.05-.07-.05l-1.6-.07c-.03 0-.05.02-.05.05v.04l-.02.02c-.02 0-.02 0-.03-.02a.74.74 0 0 1-.04-.18c0-.07.02-.08.07-.02l.01.01.03.01h.51c.02 0 .04 0 .04-.02.02-.07 0-.12-.05-.16a.84.84 0 0 1-.19-.18.4.4 0 0 1-.09-.25c0-.09.04-.15.1-.2.04-.03.1-.05.19-.06.13-.01.28 0 .43.04.2.05.3.13.32.24.01.07-.01.11-.08.13l-.1.03a.47.47 0 0 0-.2.08l-.21.18a.06.06 0 0 0-.03.04v.1c0 .01 0 .03.03.03Z" fill="#020101"/><path d="M4.68 8.81a4.7 4.7 0 0 0-.3.2c-.03.02-.06.01-.09-.01l-.16-.19a.27.27 0 0 1-.07-.16c0-.06.04-.1.1-.13.2-.07.4-.06.63.03a.4.4 0 0 1 .16.13c.02.02.01.04-.02.04l-.25.1Z" fill="#FA6A4D"/><path d="M11.63 8.71c0 .17 0 .42-.03.75-.01.21.02.43.1.65.04.14.14.32.3.55l.24.4c.03.08.02.14-.03.2-.12.12-.26.22-.42.29-.12.05-.3.1-.54.17l-.14.04a7.84 7.84 0 0 1-3.85.3 2.7 2.7 0 0 1-1.34-.58c-.11-.1-.26-.28-.43-.54a610.2 610.2 0 0 1-.71-1c.04 0 .08 0 .1-.04.24.26.43.5.56.71l.03.05.33.5c.12.16.25.3.4.39.19.14.41.24.66.31.52.14 1.09.2 1.7.2a9.2 9.2 0 0 0 2.39-.36c.2-.06.38-.14.57-.26.27-.17.38-.41.32-.72a8.3 8.3 0 0 0-.1-.4 4.92 4.92 0 0 1-.15-1.68l.04.07Z" fill="#EEAC32"/><path d="M12.26 10.51c.12.14.2.28.24.43.08.28-.03.54-.35.76a.07.07 0 0 1-.06.02 1.71 1.71 0 0 0-.84 0c.24-.07.42-.12.54-.17.16-.08.3-.17.42-.3a.15.15 0 0 0 .03-.18l-.24-.4a2.85 2.85 0 0 1-.3-.56 1.6 1.6 0 0 1-.1-.65c.02-.33.03-.58.02-.75l.64 1.8Z" fill="#C88326"/><path d="M6.75 8.93v-.01c0-.02.05-.02.14-.01.1 0 .2.03.32.06h.03l.31.1c.08.05.12.07.12.1h-.01l-.9-.24Z" fill="#020101"/><path d="m14.86 9.04-.37-.01c-.07-.01-.19.04-.34.14a.24.24 0 0 1 .12-.18c.24-.13.44-.12.59.05Z" fill="#F0AB61"/><path d="M14.86 9.04c.05.12.04.24-.01.37a.27.27 0 0 1-.12.15c-.14.07-.28.04-.41-.1a1.13 1.13 0 0 1-.16-.23c-.02-.03-.02-.06 0-.06.14-.1.26-.15.33-.14h.37ZM13.52 9.42l.01.03c.01 0 .02-.01.02-.03l-.01-.03c-.01 0-.02.01-.02.03Z" fill="#6C3124"/><path d="M10 9.8c-.22.4-.54.62-.98.68-.25.04-.48.03-.68-.02-.26-.07-.44-.2-.53-.41-.01-.03 0-.04.02-.02.12.1.22.15.31.17.36.06.68-.02.94-.24.4-.06.78-.18 1.12-.36.1-.06.12-.04.02.04-.05.05-.13.1-.23.16Z" fill="#FBBE40"/><path d="M4.87 9.88v.02c-.01.03-.05.04-.1.04a.7.7 0 0 1-.59-.3V9.6c0-.02.02-.02.04 0 .18.16.4.26.65.28Z" fill="#020101"/><path d="m12.55 10.02.34-.36.29.19.01.03s0 .02-.02.02a.36.36 0 0 0-.14.11l-.26.36a.07.07 0 0 1-.05.02c-.1 0-.17-.03-.2-.12a.33.33 0 0 1 .03-.25Z" fill="#A74B2D"/><path d="M14.42 9.85c.03-.08.07-.13.12-.15l.05-.01c.03 0 .03 0 .02.03l-.16.2c-.02.01-.03.01-.04-.01l.01-.06Z" fill="#AE917F"/><path d="M10.72 12.02c-.07.07-.12.14-.16.2-.04.08-.03.09.04.04a2.16 2.16 0 0 1 1.54-.5h.06c.44-.27.59-.55.45-.85l-.1-.2c-.01-.03 0-.04.02-.03l.2.07.21.1c.02 0 .04.02.05.03l.23.3c.05.14.06.28.05.42 0 .02-.02.03-.03.02-.08-.05-.14-.05-.18.01-.24-.01-.45.04-.64.15a.1.1 0 0 1-.06.02l-.15-.02a.5.5 0 0 0-.18 0 5.3 5.3 0 0 0-1.61.64c-.1.18-.14.37-.15.57a5.8 5.8 0 0 1-4.49-.78c-.2-.12-.37-.26-.51-.41-.37-.4-.66-.84-.9-1.32l.65.3h.02a5.35 5.35 0 0 1-1.24-.88c.41.13.74.32.98.55.12.12.32.36.59.75.39.54 1 .9 1.8 1.05 1.2.23 2.37.15 3.51-.23Z" fill="#C88326"/><path d="m4.78 9.94.3.43.4.57c.18.26.33.44.44.54.31.28.76.48 1.34.59 1.2.23 2.48.12 3.85-.3l-.34.21c-1 .3-2 .39-3.03.28-.6-.07-1.12-.21-1.55-.43-.33-.16-.6-.42-.83-.8-.24-.4-.5-.77-.79-1.12a.6.6 0 0 0 .2.03ZM14.02 10.02a.5.5 0 0 0 0-.02l.01-.04c.04-.03.07-.03.1 0a.2.2 0 0 1 .02.2.27.27 0 0 1-.13.14.5.5 0 0 1-.43.05 1.98 1.98 0 0 1-.44-.24c-.02-.01-.02-.03 0-.05a.42.42 0 0 1 .13-.12.07.07 0 0 1 .06 0l.46.2c.1.04.17.01.21-.07l.01-.05Z" fill="#C88326"/><path d="M13.98 10.03a.21.21 0 0 1-.05.07c-.02.02-.04.02-.05.01l-.2-.1c-.04-.03-.04-.04 0-.05a.7.7 0 0 1 .26 0c.04 0 .05.03.04.07Z" fill="#6C3124"/><path d="m12.33 10.3.04.08c.03.08.08.12.16.13.02 0 .03.01.03.03v.02c0 .02 0 .02-.02.02-.1 0-.18-.04-.24-.15a.77.77 0 0 1-.1-.33c0-.02 0-.03.02 0l.08.15c0 .02.01.04.03.05Z" fill="#A74B2D"/><path d="M12.64 10.51c.03 0 .05-.02.05-.03.02.03.04.03.06.02a.84.84 0 0 0 .28-.31c.01-.02.03-.03.05-.03l.04.01c.1.08.19.14.3.18.06.02.06.04 0 .06l-.55.13a.43.43 0 0 1-.2-.02h-.03Z" fill="#AE917F"/><path d="M4.42 10.48c.23.48.52.92.89 1.32l-.53-.5c-.29-.3-.5-.64-.65-1.01-.02-.04 0-.04.02-.02l.27.21Z" fill="#A74B2D"/><path d="M13.44 11c-.02.02-.04-.01-.06-.1a.94.94 0 0 1 .03-.45l.03.55Z" fill="#AE917F"/><path d="M13.41 10.45a.94.94 0 0 0-.03.46c.02.08.04.1.06.09.02.02.03.04.03.08 0 .02 0 .03-.03.01a.25.25 0 0 0-.14-.04c-.02 0-.04.02-.04.04v.09l-.23-.3a.12.12 0 0 0-.05-.03l-.21-.1-.05-.1.7-.2Z" fill="#6C3124"/><path d="m12.72 10.64.05.1-.2-.06c-.03 0-.03 0-.02.02l.1.2c.14.3-.01.59-.45.85a.09.09 0 0 1-.06.01c-.5-.05-1.02.1-1.54.5-.07.05-.08.04-.04-.04l.16-.2.05-.04.34-.22.14-.04c.28-.08.56-.08.84 0 .03 0 .04 0 .06-.02.32-.22.43-.48.35-.76-.04-.15-.12-.29-.24-.43.08.07.15.1.21.13h.25Z" fill="#DA6809"/><path d="M13.1 11.63c-.22.06-.4.14-.53.24a3.93 3.93 0 0 0-.88.36c-.24.13-.41.22-.52.3-.2.11-.34.24-.46.37l-.4.09c0-.2.05-.4.15-.57a5.3 5.3 0 0 1 1.6-.64.5.5 0 0 1 .2 0l.14.02a.1.1 0 0 0 .06-.02c.2-.11.4-.16.64-.15Z" fill="#A74B2D"/><path d="M12.57 11.87c-.56.48-1.18.82-1.86 1.03.12-.13.27-.26.46-.38a7.41 7.41 0 0 1 1.4-.65Z" fill="#6C3124"/></svg>