<!-- by TradingView --><svg width="18" height="18" viewBox="0 0 18 18" xmlns="http://www.w3.org/2000/svg"><path fill="#181B1E" d="M0 0h18v18H0z"/><path d="M5.91 5.16A.5.5 0 0 1 6.28 5h5.87a.5.5 0 0 1 .36.16l3.4 3.28c.07.07.1.16.09.25a.33.33 0 0 1-.33.31H6.89l-1.15 1.2c-.11.13-.08.32.06.4l3.28 2.01c.05.04.12.04.17 0l2.18-1.34a.14.14 0 0 0 .07-.13.14.14 0 0 0-.14-.14H9.73a.26.26 0 0 1-.26-.21c-.03-.16.13-.28.26-.38l.05-.04c.2-.15.37-.37.62-.37H15c.2 0 .31.16.3.31 0 .1-.04.2-.14.27l-5.8 3.36a.43.43 0 0 1-.43 0l-5.06-3.11a.24.24 0 0 1-.04-.37L6.1 8.13A.4.4 0 0 1 6.4 8h6.72c.12 0 .18-.15.1-.24L11.45 6H6.62l-3.68 4.07a.21.21 0 0 1-.27.03l-.57-.4a.21.21 0 0 1-.04-.33l3.85-4.2Z" fill="#FEFEFE"/></svg>