<!-- by TradingView --><svg width="18" height="18" viewBox="0 0 18 18" xmlns="http://www.w3.org/2000/svg"><path fill="url(#aiwzevugx)" d="M0 0h18v18H0z"/><path d="M14 12.43V5.54A8.8 8.8 0 0 0 9 4a8.8 8.8 0 0 0-5 1.54v6.89a8.85 8.85 0 0 0 10 0Z" fill="url(#biwzevugx)"/><path d="M7 9a2 2 0 1 0 0-4 2 2 0 0 0 0 4Z" fill="url(#ciwzevugx)"/><path d="M14 12.42c-7.3-.8-4.57-3.07-4.18-3.3L4 12.42l.65.4a8.6 8.6 0 0 0 8.67.01l.68-.4Z" fill="url(#diwzevugx)"/><path d="M10.3 8.83s.5-.36.5-.63c0-.28-.58-1.13-.58-1.13.4.52.67.74.67.74.38.33 1.17-.15 1.96-.63 0 0-.94.63-1.34 1.1-.17.2 0 .56.16.8 0 0-.33-.48-.67-.5-.3 0-.7.25-.7.25Z" fill="#F2F2F2"/><defs><linearGradient id="aiwzevugx" x1="12.97" y1="6.03" x2="3.22" y2="16.21" gradientUnits="userSpaceOnUse"><stop offset=".04" stop-color="#fff"/><stop offset=".68" stop-color="#7F96C0"/><stop offset="1" stop-color="#194291"/></linearGradient><linearGradient id="biwzevugx" x1="9.81" y1="4.62" x2="7.25" y2="11.02" gradientUnits="userSpaceOnUse"><stop stop-color="#021A70"/><stop offset="1" stop-color="#0C3B8F"/></linearGradient><linearGradient id="ciwzevugx" x1="8.49" y1="5.59" x2="5.61" y2="8.39" gradientUnits="userSpaceOnUse"><stop stop-color="#FBB357"/><stop offset="1" stop-color="#F89827"/></linearGradient><linearGradient id="diwzevugx" x1="9.43" y1="10.22" x2="7.05" y2="13.41" gradientUnits="userSpaceOnUse"><stop offset=".01" stop-color="#DC5B56"/><stop offset=".46" stop-color="#B02D3D"/><stop offset="1" stop-color="#970B2D"/></linearGradient></defs></svg>