<!-- by TradingView --><svg width="18" height="18" viewBox="0 0 18 18" xmlns="http://www.w3.org/2000/svg"><path fill="#FF9304" d="M0 0h18v18H0z"/><path d="M3.44 10.04c.1-.18.18-.36.2-.55l.03-.05a.1.1 0 0 1 .05-.03.1.1 0 0 1 .06 0 .1.1 0 0 1 .05.03l.08.11.07.06c.36.16.65.33.88.5.1.06.14.18.12.36-.02.19-.1.3-.24.35a5.06 5.06 0 0 0-.59.26v.07c.05.14.12.27.25.35.41.24.94.55 1.37.3a.08.08 0 0 1 .08 0c.1.05.17.1.2.13.42.43.7.8.86 1.13a69.03 69.03 0 0 1 .42.92.1.1 0 0 0 .1.01 4.91 4.91 0 0 1 1.65-1.17c.32-.15.64-.23.94-.24.55-.01 1 .04 1.33.15a6.64 6.64 0 0 1 2.06 1.17h.04a.1.1 0 0 0 .04-.03.1.1 0 0 0 .02-.05c.07-.28-.02-.66-.1-1a5.04 5.04 0 0 0-.43-1.31.27.27 0 0 1 .07-.32c.2-.16.3-.38.4-.6l.06-.14c.24-.51.24-1.23.16-1.78a3.04 3.04 0 0 0-.9-1.6c-.4-.4-.87-1.14-.58-1.75.1-.21.18-.35.25-.4.3-.26.63-.4.98-.43A3.73 3.73 0 0 0 15 4.02C15 4 14.99 4 14.97 4c-.26.12-.56.19-.9.2-.5.03-.97.1-1.42.23-.43.12-.8.6-.93 1-.26.69.22 1.53.68 2.04.51.57.97 1.37.82 2.18-.09.45-.27.82-.55 1.11a.15.15 0 0 1-.11.05.14.14 0 0 1-.11-.06c-.75-.96-2.1-1.41-3.25-1.67a6.6 6.6 0 0 1-1.29-.45 1.35 1.35 0 0 1-.43-.33c-.04-.04-.04-.09 0-.13.3-.37.38-.74.22-1.12-.2-.51-.69-.62-1.16-.46-.16.06-.27.22-.37.38l-.12.16a.1.1 0 0 1-.05.04.1.1 0 0 1-.06 0 1.86 1.86 0 0 0-1.26.01c-.5.2-1 .4-1.54.44a.14.14 0 0 0-.09.05.16.16 0 0 0-.04.09c-.06.5.12.9.4 1.35.01.02.03.04.06.05.12.03.17.12.15.24a2.3 2.3 0 0 1-.21.63h.02c0 .01 0 .01 0 0ZM4.77 8.3c-.1 0-.2-.15-.2-.33 0-.18.09-.33.2-.33.12 0 .21.14.21.33 0 .18-.1.33-.2.33Z" fill="#fff"/><path d="M3.33 9.28c-.03.05-.03.11-.01.12.02.02.06-.02.1-.08.02-.05.02-.1 0-.12-.02-.01-.06.02-.1.08ZM11.07 13.43l-.2.4a.2.2 0 0 1-.07.09.07.07 0 0 1-.1-.02c-.21-.27-.44-.52-.66-.77-.06-.06-.1-.15-.07-.23.01-.03.03-.05.05-.06a6.9 6.9 0 0 1 1.26.13.08.08 0 0 1 .03.05v.04c-.05.15-.17.23-.24.37Z" fill="#fff"/></svg>