<!-- by TradingView --><svg width="18" height="18" viewBox="0 0 18 18" xmlns="http://www.w3.org/2000/svg"><path fill="#181B1E" d="M0 0h18v18H0z"/><path fill-rule="evenodd" d="M14 6 9 3 4 6v6l5 3 5-3V6Zm-.63.33L9 3.67 4.62 6.33v5.34L9 14.33l4.38-2.66V6.33Z" fill="url(#a)"/><path d="M7.09 11.6a3.5 3.5 0 0 1-.55-1.81c0-1.03.28-1.74.96-2.42a2.07 2.07 0 0 0 2.98 0c.25.23.74.74.74 1.64 0 .91-.6 1.99-1.6 1.99H7.87l-.57.5c.23.16.9.5 1.67.5.95 0 2.48-.43 2.99-2.53.27 0 .48-.2.48-.45v-.98a.46.46 0 0 0-.47-.46h-.36A3 3 0 0 0 9 6a3 3 0 0 0-2.6 1.54l-.01.04h-.36c-.26 0-.47.2-.47.46v.98c0 .25.2.45.46.45.02.44.25 1.35 1.07 2.13ZM8.47 9c0 .26-.21.47-.47.47A.47.47 0 0 1 7.53 9c0-.26.21-.47.47-.47s.47.2.47.47Zm2 0c0 .26-.21.47-.47.47A.47.47 0 0 1 9.53 9c0-.26.21-.47.47-.47s.47.2.47.47Z" fill="url(#b)"/><defs><linearGradient id="a" x1="9" y1="3" x2="9" y2="15" gradientUnits="userSpaceOnUse"><stop stop-color="#0BDEF9"/><stop offset=".22" stop-color="#2286E0"/><stop offset=".67" stop-color="#4036A6"/><stop offset=".83" stop-color="#8047C0"/><stop offset="1" stop-color="#583AB1"/></linearGradient><linearGradient id="b" x1="10.96" y1="6.94" x2="6.99" y2="11.46" gradientUnits="userSpaceOnUse"><stop stop-color="#1CE8A8"/><stop offset=".54" stop-color="#807FD7"/><stop offset="1" stop-color="#C833F7"/></linearGradient></defs></svg>