<!-- by TradingView --><svg width="18" height="18" viewBox="0 0 18 18" xmlns="http://www.w3.org/2000/svg"><path fill="#F0F3FA" d="M0 0h18v18H0z"/><path d="M13.52 9.29a.51.51 0 0 0-.18.03 4.17 4.17 0 0 0-1.7-.32c-.94 0-1.84.3-2.64.94A4.2 4.2 0 0 0 6.35 9c-.55 0-1.12.07-1.69.32a.51.51 0 0 0-.18-.03c-.25 0-.48.16-.48.4 0 .25.22.45.47.45.24 0 .45-.15.5-.37 1.26-.62 2.52-.3 3.63.6a3.47 3.47 0 0 0-.78 2.17c.01.92.46 1.73 1.18 2.46.7-.77 1.17-1.58 1.18-2.46 0-.63-.24-1.28-.69-1.97 0-.02-.38.44-.36.47.3.51.47 1.02.46 1.5-.01.56-.26 1.1-.6 1.6a2.3 2.3 0 0 1-.58-1.6c.01-.79.38-1.6 1-2.17 1.1-.9 2.36-1.23 3.63-.6.03.2.23.36.46.37.26.01.5-.14.5-.4-.01-.25-.23-.45-.48-.45ZM13 7.38c0-.22-.26-.37-.46-.38-.18 0-.3.05-.39.12-1.1-.1-2.2-.1-3.15.28a6.99 6.99 0 0 0-3.15-.28A.6.6 0 0 0 5.5 7c-.28 0-.52.22-.5.4.02.17.24.35.48.35.16 0 .32-.06.4-.15A6.3 6.3 0 0 1 9 8a6.29 6.29 0 0 1 3.12-.4c.1.11.31.17.5.15.22-.03.38-.1.38-.37ZM10.6 5a.43.43 0 0 0-.35.16c-.44.08-.86.22-1.25.4a4.84 4.84 0 0 0-1.25-.4A.43.43 0 0 0 7.4 5c-.22 0-.4.14-.41.31 0 .17.18.38.39.39.12 0 .24-.04.31-.12.47.1.91.2 1.3.42.39-.23.83-.33 1.3-.42.07.07.19.12.3.12.21 0 .4-.21.4-.38S10.82 5 10.6 5Z" fill="#04BFBF"/><path d="M9 5a.5.5 0 1 0 0-1 .5.5 0 0 0 0 1Z" fill="#04BFBF"/></svg>