<!-- by TradingView --><svg width="18" height="18" viewBox="0 0 18 18" xmlns="http://www.w3.org/2000/svg"><path fill="#F0F3FA" d="M0 0h18v18H0z"/><circle cx="9" cy="9" r="5.84" fill="#B86219"/><circle cx="9" cy="9" r="5.29" fill="url(#a)"/><path d="M11.96 6.4c-.07.31-.18.61-.34.89a.11.11 0 0 0 0 .1c.13.26.28.48.46.66v.04c-.04.03-.12.03-.22.01-.03 0-.04 0-.02.02l.32.34a.3.3 0 0 1-.17.06.02.02 0 0 0-.02.01.02.02 0 0 0 .01.02l.2.16a.05.05 0 0 1 0 .08.34.34 0 0 1-.2.1c-.02 0-.03 0-.02.03v.03l.01.01a.03.03 0 0 0 .02.01h.05a.06.06 0 0 1 .04.09.57.57 0 0 1-.16.1c0 .03.01.05.04.07l.02.04c0 .04-.02.06-.07.05-.1.2-.23.34-.4.44l-.15.12c-.02 0-.02.02 0 .03a.5.5 0 0 1 .22.5c-.02.07-.02.13.01.19.07.1.08.19.1.28 0 .08.02.16.06.24.09.19.11.4.08.65v.05l.02.06h-.02a.03.03 0 0 1-.02-.04v-.06c-.01-.02-.02-.02-.03 0-.1.42-.27.8-.51 1.14l-.86 1.2a.5.5 0 0 0-.1.28l-.19.23c-.04.03-.07.03-.1.01l-.71-.39-.99-.47a9.34 9.34 0 0 1-1.1-.71 1.77 1.77 0 0 1-.4-.41l-.04-.07c-.28-.4-.5-.7-.54-1.13a.02.02 0 0 0-.01-.02.02.02 0 0 0-.01 0H6.2l-.32.42c-.04.05-.03.07.03.05a.98.98 0 0 0 .18-.08h.03l.02.01v.03l-.18.27-.13.22-.63.97c-.07-.02-.1-.04-.08-.08l.09-.13.45-.67.27-.42c.03-.04.02-.05-.02-.02-.06.03-.11.07-.18.13-.06.06-.08.05-.05-.04.06-.18.16-.36.31-.54.04-.05.1-.1.15-.13l.08-.08a.06.06 0 0 0 .02-.04c0-.14.04-.26.14-.36a.04.04 0 0 0 0-.05.26.26 0 0 1 .03-.26c.05-.08.03-.15 0-.21a.4.4 0 0 1-.02-.1.44.44 0 0 1 .08-.31.06.06 0 0 0-.02-.1l-.29-.13c-.01 0-.02-.02-.01-.04l.03-.08c0-.02 0-.03-.02-.02a.5.5 0 0 0-.08.07c-.04.04-.06.03-.06-.03v-.23c0-.02-.01-.03-.03-.02-.02 0-.04 0-.05.02-.05 0-.09 0-.1-.03-.02-.01-.03-.04-.02-.09A3.87 3.87 0 0 1 5.92 9a.03.03 0 0 0-.03 0l-.14.04a.04.04 0 0 1-.04 0 .03.03 0 0 1 0-.05l.18-.38a.03.03 0 0 0-.03-.04l-.11.01c-.11 0-.13-.04-.04-.11a.65.65 0 0 0 .1-.13l.36-.76v-.04c-.17-.2-.3-.4-.39-.64-.1-.22-.17-.43-.19-.64 0-.02.01-.03.03-.04a.03.03 0 0 1 .04.02c0 .02.01.03.03.04.01 0 .02 0 .01-.02a2.6 2.6 0 0 1 .18-1.64l.14-.19a.3.3 0 0 1 .21-.14l.08.02.11.03c.38.15.72.35 1.04.6.14.1.3.28.42.4a8.35 8.35 0 0 0 .11.11h.03a.8.8 0 0 1 .3-.09c.08 0 .08-.02 0-.04h-.07c-.03 0-.04-.01-.03-.04v-.01c0-.02.02-.03.03-.03.16-.03.32-.02.48.03h.03l.02-.02c.03-.03.06-.05.09-.04a5.9 5.9 0 0 1 .72.21c.01 0 .02 0 .02-.02.11-.23.25-.35.46-.54l.17-.15a5.33 5.33 0 0 1 .92-.64c.13-.06.2-.03.27.09a2.6 2.6 0 0 1 .46 1.41l.06.28c.05.18.06.36.01.54Z" fill="#1A1A1A"/><path d="M11.8 5.8c-.04.12-.09.21-.13.29-.05.08-.08.07-.08-.02 0-.04-.03-.1-.08-.16.06-.06.1-.14.1-.24a.73.73 0 0 0-.05-.24.95.95 0 0 1-.05-.28.1.1 0 0 0-.05-.09c-.26-.16-.73-.15-.84.2a.58.58 0 0 0-.24.66c0 .02.01.03.03.04.03.01.06 0 .09-.02a.1.1 0 0 0 .04 0 .08.08 0 0 0 0 .07l.06.04c.03.02.05.04.04.08 0 .02.01.03.03.03h.07c.02 0 .03.02.02.04 0 .07-.1.08-.16.07l-.02.01v.04l.02.01c.13.06.23.16.38.15.02 0 .03.01.03.03 0 .05.02.1.05.13.18.04.25 0 .24-.11l.23-.09a.09.09 0 0 1 .11.06c.04.11.03.22-.02.32v.04c.02.01.03.02.06.01a1.2 1.2 0 0 1-.16.37h-.02l-.1-.1a.02.02 0 0 0-.01 0 .02.02 0 0 0-.02 0l-.01.02v.04c.08.08.15.2.23.33.02.04.02.06 0 .08a.06.06 0 0 0-.03.05l.03.08.03.14v.02a.02.02 0 0 1-.03 0l-.1-.02a.02.02 0 0 0-.02 0v.03c.03.04.05.08.05.12-.49-.97-1.18-1.71-2.33-1.81-1.03-.09-1.86.48-2.4 1.3l-.26.41-.2.47-.01.01H6.3l-.01-.02a1.5 1.5 0 0 1 .14-.66.01.01 0 0 0-.02-.01l-.1.05c-.03.02-.04.01-.04-.03l.04-.23c-.06-.01-.1-.03-.12-.07a3.46 3.46 0 0 1-.48-1h.03c.04.08.1.11.17.08a.95.95 0 0 1 .29.33.02.02 0 0 0 .02-.02l.01-.17a.03.03 0 0 1 .05-.02c.07.04.13.09.18.16a.01.01 0 0 0 .02 0v-.05c-.01-.02 0-.03.02-.03.03 0 .05.02.08.05.05.06.09.09.13.07 0 .03 0 .05.02.06.01.02.03.02.04 0 .11-.08.2-.18.25-.29.07-.06.04-.06-.09-.01l-.04-.01a.1.1 0 0 1-.02-.04c0-.02 0-.03.02-.03h.08l.04-.01c.01-.02.02-.04 0-.06 0-.04-.05-.06-.08-.09-.01-.01 0-.02.01-.03l.12-.04.17-.09c.1-.07.14-.18.14-.34a.3.3 0 0 0-.1-.21c-.22-.4-.55-.57-.98-.5v-.02a.02.02 0 0 0-.04 0l-.14.22c-.17.3-.14.75-.03 1.06 0 .02 0 .03-.02.02l-.23-.07c-.1-.33-.11-.67-.04-1.03.05-.2.1-.4.17-.6.04-.09.16-.37.3-.35.63.23 1.16.6 1.6 1.1l.08.1v.06a.3.3 0 0 0-.02.13l.01.04.03-.01.02-.03c0-.02.02-.02.03 0v.1c0 .01.01.02.03.02h.01a.02.02 0 0 0 .02 0 .4.4 0 0 0 0-.26c-.03-.06 0-.1.06-.11.13-.04.29-.06.45-.05.02 0 .03 0 .04-.02V5.4c0-.02 0-.03.02-.02.16 0 .3.04.45.1.01.01.03.02.05.01l.03-.03c.01-.02.03-.03.07-.03.06 0 .16.03.3.1l.01.02.06.15c0 .02.01.03.03.03l.03-.01V5.7a.33.33 0 0 1 .06-.32c.04-.05.06-.05.05.02 0 .15-.03.34.06.46h.03v-.03a.8.8 0 0 1 .1-.64c.28-.44.73-.74 1.2-1.02a.1.1 0 0 1 .14.03c.19.3.33.62.42.96.03.12.05.34.07.64Z" fill="#974A18"/><path d="M11.5 5.91c-.03.21-.1.42-.2.62.01.12-.06.15-.24.11l.15-.29v-.03H11.15c-.12.08-.22.08-.3 0a.04.04 0 0 1-.02-.05.19.19 0 0 1 .04-.06.05.05 0 0 0 0-.07l-.01-.02a.22.22 0 0 1-.06-.03c-.02-.01-.02-.02 0-.04h.02V6l-.06-.03c-.02 0-.02-.01 0-.03l.06-.04c.04-.09.01-.11-.07-.07l-.21.11a.1.1 0 0 1-.04 0 .77.77 0 0 1 .28-.17c.01 0 .02-.01.01-.02v-.02l-.02-.01-.11.04c-.02 0-.03 0-.03-.02l.01-.16a.04.04 0 0 0-.01-.03.04.04 0 0 0-.04 0 .18.18 0 0 0-.04.01c-.06.07-.09.06-.07-.03a.73.73 0 0 1 .14-.27c.11-.35.58-.36.84-.2a.1.1 0 0 1 .05.09c0 .1.02.19.05.28.04.11.06.2.06.24 0 .1-.05.18-.11.24ZM7.27 5.65a.3.3 0 0 0-.22-.04c-.03 0-.03.02-.01.03a.4.4 0 0 0 .13.1h.01v.02c0 .01 0 .02-.02.01l-.03.01v.04c.05.12.09.24.1.38l-.17.09-.25-.1a.03.03 0 0 0-.05.05l.06.1c.02.03.01.04-.01.03l-.09-.01c-.15 0-.16.02-.02.1.03.01.08.07.13.16v.06l-.05.05v.02l.03.02h.02a.34.34 0 0 1 .2-.16c-.06.1-.15.2-.26.3h-.04c-.02-.02-.02-.04-.03-.07a1.1 1.1 0 0 0-.26-.3 1.1 1.1 0 0 1-.29-.38 1.2 1.2 0 0 1 .14-1.01c.43-.07.76.1.98.5Z" fill="#6B3D24"/><path d="M6.29 5.15a1.2 1.2 0 0 0-.14 1c.08.17.18.3.3.39.1.09.19.19.25.3-.03.02-.07 0-.12-.07a.12.12 0 0 0-.08-.05c-.03 0-.03 0-.02.03v.04a.02.02 0 0 1 0 .02h-.01a.48.48 0 0 0-.2-.17.03.03 0 0 0-.04.02l-.01.17a.02.02 0 0 1-.03.01.95.95 0 0 0-.28-.32.52.52 0 0 1-.08-.16l.23.07c.02 0 .02 0 .02-.02-.1-.31-.14-.76.03-1.06a3.15 3.15 0 0 1 .16-.23.02.02 0 0 1 .01.01v.02ZM10.5 5.94c-.03.02-.06.03-.09.02a.05.05 0 0 1-.03-.04.58.58 0 0 1 .24-.66.73.73 0 0 0-.14.27c-.02.09 0 .1.07.03l.04-.02a.03.03 0 0 1 .05.02v.02l-.01.16c0 .02 0 .03.03.02l.1-.04h.03v.05c-.12.03-.21.1-.3.17ZM7.27 5.65a.3.3 0 0 1 .1.2c0 .17-.05.28-.14.35a.92.92 0 0 0-.1-.38v-.04h.03c.01 0 .02 0 .02-.02v-.03a.4.4 0 0 1-.14-.09c-.02-.01-.02-.03 0-.03a.3.3 0 0 1 .23.04ZM11.8 5.8l.05.36c.04.22-.09.56-.17.71h-.05l-.02-.03v-.02c.06-.1.07-.2.03-.32a.09.09 0 0 0-.08-.07l-.03.01-.23.09c.1-.2.17-.4.2-.62.06.07.09.12.1.16 0 .1.02.1.07.02.04-.08.09-.17.13-.29Z" fill="#ECF2F6"/><path d="M11.52 8.03c.05.07.08.14.08.2s0 .07-.05.02a.37.37 0 0 0-.13-.1c-.12-.04-.14-.03-.05.06l.09.14v.03a.02.02 0 0 1-.03 0l-.12-.04c-.43-.94-1-1.66-2.07-1.78-1.04-.11-1.85.49-2.35 1.33l-.22.37c-.08 0-.14.06-.2.14l-.01.02a.03.03 0 0 1-.05-.03l.12-.46.27-.4c.53-.83 1.36-1.4 2.4-1.31 1.14.1 1.83.84 2.32 1.81Z" fill="#A35B2B"/><path d="M11.3 8.34c-.02 0-.03 0-.03.04l-.42-.1a9.32 9.32 0 0 0-.73-.77c-.06-.06-.09-.12-.13-.18a9.01 9.01 0 0 0-1.78.03 8.22 8.22 0 0 0-.86 1.1l.02.04h-.1c-.05 0-.07-.03-.06-.06a.04.04 0 0 0-.05-.05.65.65 0 0 0-.57.4c-.03-.02-.05 0-.06.02 0 .02-.02.02-.03.01-.01 0-.02 0-.02-.02-.03-.18.04-.36.19-.54l.22-.37c.5-.84 1.3-1.44 2.35-1.33 1.08.12 1.64.84 2.07 1.78Z" fill="#AB6536"/><path d="m10.85 8.27-.01.05-.25-.04c.07 0 .08-.04.04-.1-.1-.16-.35-.25-.5-.24-.27.01-.45.15-.53.42a.05.05 0 0 0 .04.06c.03 0 .06 0 .07-.02.01.06.09.1.22.1.11.1.26.12.44.04.08-.04.13-.11.15-.2l.42.07c.03.01 0 .03-.06.06a.08.08 0 0 0-.05.04c0 .02 0 .03.02.04.06 0 .1.04.15.08.01.01 0 .02-.01.02a.6.6 0 0 0-.25.05.03.03 0 0 0-.02.03.03.03 0 0 0 .02.03l.21.1v.01l.01.02h-.01a.8.8 0 0 0-.32-.01c-.14.02-.14.05-.01.1l.07.06c.01.02 0 .02-.01.02l-.38-.03a.02.02 0 0 0-.02.02v.01c.05.06.1.1.15.12a.02.02 0 0 1 0 .02v.01l-.02.01-.3-.15c-.05-.04-.07-.09-.04-.13a.1.1 0 0 0 .02-.07.13.13 0 0 0-.04-.07 1.67 1.67 0 0 1-.2-.24.18.18 0 0 0-.04-.05c-.05-.03-.09-.03-.12 0a.07.07 0 0 0-.01.07l.38 1.06h.01l.06-.05c0 .04-.01.08-.04.1-.02.01-.05.02-.09 0a1.39 1.39 0 0 1-.3-.1c-.03-.02-.04-.02-.05 0a.46.46 0 0 0-.13-.09.73.73 0 0 0-.23-.07.58.58 0 0 0-.38.12 5.48 5.48 0 0 0-.56.2l-.03-.16v-.05l.24-.47a.77.77 0 0 0 .11-.4.05.05 0 0 0-.08-.04.98.98 0 0 0-.27.47c-.02-.03-.04-.03-.05-.03l-.29.17c-.06.03-.07.02-.02-.04l.08-.08c.05-.04.05-.05-.02-.04l-.45.08h-.01v-.04l.2-.11a.03.03 0 0 0-.01-.05 1.15 1.15 0 0 0-.5 0c-.03.01-.04 0-.01-.02.06-.06.13-.1.21-.11.07-.02.08-.05.02-.08a.5.5 0 0 0-.32-.06l-.02-.01c0-.01 0-.02.02-.03l.15-.08a.03.03 0 0 0 0-.05l-.03-.01.1-.01c.12.02.23 0 .35-.09.09.25.28.32.58.24l.24-.07.03-.03.01-.03c.05 0 .07-.02.07-.06 0-.05-.04-.13-.12-.23 0 0-.19-.3-.1-.14.04.06.03.07-.02.03-.29-.21-.7-.05-.83.26-.03.04-.1.06-.21.05a8.22 8.22 0 0 1 .84-1.07 9.01 9.01 0 0 1 1.78-.03c.04.06.07.12.13.18.26.24.5.5.73.76Z" fill="#B27243"/><path d="M8.58 8.52c-.07-.28-.27-.46-.56-.39a.72.72 0 0 0-.22.12c-.06.05-.14.1-.22.13.1-.26.31-.38.62-.34.08 0 .15.03.2.08.06.04.07.03.04-.03a4.36 4.36 0 0 1-.14-.26c-.03-.07-.09-.13-.06-.21a.1.1 0 0 1 .13-.06c.19.07.47.3.42.53-.01.06-.04.1-.1.12-.05.02-.1-.01-.15 0-.02 0-.02 0 0 .02.07.1.1.18.11.23 0 .04-.02.06-.07.06ZM10.6 8.28c-.12-.09-.2-.22-.32-.26-.28-.09-.51.1-.57.38-.01.02-.04.03-.07.02a.05.05 0 0 1-.04-.06c.08-.27.26-.4.53-.42.15 0 .4.08.5.23.04.07.03.1-.04.1Z" fill="#ECF2F6"/><path d="M10.52 8.33a.27.27 0 0 1-.15.2c-.18.09-.33.08-.44-.03.23.02.4-.05.5-.21.01-.02.02-.02.04-.01l.05.05Z" fill="#ECF2F6"/><path d="M11.27 8.38c.07.02.13.05.18.1.02.02.02.03 0 .04l-.08-.01h-.02v.02a.53.53 0 0 1 .23.26c0 .02 0 .03-.02.04-.02 0-.03 0-.03-.02a.21.21 0 0 0-.1-.06c-.07-.01-.08 0-.02.04.09.06.14.14.16.23.04.13.01.14-.06.02a.6.6 0 0 0-.1-.07c.07.15.08.3.04.46-.02.05-.03.05-.05 0a.63.63 0 0 0-.09-.15c-.02-.03-.02-.03-.02 0l.02.31a.03.03 0 0 1-.04.03.13.13 0 0 1-.04-.04c-.02-.03-.03-.02-.03 0 0 .12.01.21-.1.24-.04 0-.05.02-.06.05 0 .02 0 .04.03.04l.04.01c.02 0 .03.02.03.04l-.06.3-.37.3c-.05.03-.07.02-.07-.04v-.07c.01-.05 0-.06-.05-.02-.13.1-.26.18-.4.24-.08.03-.09.02-.02-.04.1-.09.14-.36.16-.44.03-.12.01-.13-.06-.03-.12.2-.37.34-.52.47h-.02v-.02c-.01-.02-.02-.02-.04-.01a.94.94 0 0 1-.84.08.09.09 0 0 1-.04-.03.08.08 0 0 0-.05-.03h-.01a.02.02 0 0 0-.01.02v.04H8.7l-.36-.31c.12.05.24.09.35.09.4.01.75 0 1.08-.06.27-.04.44-.16.49-.43h-.02v-.01a.01.01 0 0 0-.01 0v.01c-.11.4-.55.46-.87.3a.12.12 0 0 0-.12 0c-.25.13-.53.16-.83.07a.68.68 0 0 1-.22-.17c-.02-.02-.02-.02-.01 0 .02.07.06.13.13.18.02.11.07.22.15.33v.02h-.03c-.2-.15-.42-.23-.66-.24l-.03.01v.02l.04.03c.1.03.17.09.23.16a1.34 1.34 0 0 1-.5-.26c-.06-.05-.07-.04-.04.04l.04.04c.03.03.03.04-.02.03a1.4 1.4 0 0 1-.63-.38c.05.01.09 0 .12-.04.01-.02.02-.02.04-.01a.6.6 0 0 0 .12.03c.04.01.05 0 .02-.04a.67.67 0 0 1-.15-.23c0-.02-.01-.02-.03 0-.03.02-.06.01-.08-.03a.76.76 0 0 1-.05-.14c0-.03-.02-.03-.03 0l-.02.07-.01.02h-.02l-.01-.01a.8.8 0 0 1-.07-.4H6.7l-.04.08c0 .02-.02.02-.04.01l-.02-.04a.67.67 0 0 1 .04-.3V9.1H6.6a.06.06 0 0 1-.03.01c-.02 0-.03 0-.02-.02.06-.16.13-.22.2-.32.02-.03.01-.03-.02-.02a.37.37 0 0 1-.15.03.65.65 0 0 1 .59-.4.04.04 0 0 1 .03.06c0 .03.01.06.06.07h.03a.03.03 0 0 1 0 .06l-.15.08-.02.03.01.01a.5.5 0 0 1 .33.06c.06.03.05.06-.02.08a.45.45 0 0 0-.21.11c-.03.03-.02.03.01.03a1.15 1.15 0 0 1 .51 0 .03.03 0 0 1 0 .04l-.2.1v.04s0 .01 0 0l.46-.07c.07-.01.07 0 .02.04l-.08.08c-.05.06-.04.07.02.04l.29-.17s.03 0 .05.03l-.15.32a.05.05 0 0 0 0 .05c.07.1.04.26.18.28l.56-.2c-.17.24.06.45.26.55.07.05.13.06.18.03.21-.12.32-.3.3-.53 0-.03.02-.03.05-.02.11.06.2.1.3.12l.09-.01c.03-.02.04-.06.04-.1a.5.5 0 0 0 0-.3v-.05c.02-.04.01-.1-.02-.17l.3.15h.02V9.2a.02.02 0 0 0 0-.02.43.43 0 0 1-.15-.12v-.02h.01l.01-.01.38.03c.02 0 .02 0 0-.02a.3.3 0 0 0-.06-.07c-.13-.04-.13-.07 0-.1.1 0 .21 0 .33.03h.01v-.03l-.22-.11a.03.03 0 0 1-.02-.03.03.03 0 0 1 .02-.03.6.6 0 0 1 .25-.05c.02 0 .02 0 0-.02a.26.26 0 0 0-.14-.08c-.02 0-.03-.02-.02-.04 0-.02.02-.03.05-.04.07-.03.09-.05.06-.06l-.1-.1v-.04l.43.1Z" fill="#ECF2F6"/><path d="M8.3 8.65c-.3.08-.5 0-.58-.24.03-.03.05-.04.08-.04.02 0 .03 0 .03.02.06.25.27.22.47.26Z" fill="#ECF2F6"/><path d="M10.11 9.07c.03.08.04.13.01.17v.05c.03.1.04.2 0 .3l-.05.05h-.01l-.38-1.06a.07.07 0 0 1 .01-.06c.03-.04.07-.04.12-.01l.04.05c.06.08.12.16.2.24l.04.07a.1.1 0 0 1-.02.07c-.03.04-.01.09.04.13ZM11.08 10.26a.77.77 0 0 1-.38.37c-.2.1-.42.15-.64.18-.7.1-1.38.06-2.04-.13a.48.48 0 0 0-.23-.16l-.04-.03v-.02l.03-.01c.24 0 .46.09.66.24h.03v-.02a.71.71 0 0 1-.15-.33c.04.01.05.02.03.02l.36.31h.02v-.04a.02.02 0 0 1 .03-.02c.02 0 .04.02.05.03l.04.03c.3.1.59.08.84-.08.02-.01.03 0 .03.01v.02h.03c.15-.13.4-.27.52-.47.07-.1.09-.09.06.03-.02.08-.06.35-.16.44-.07.06-.06.07.02.04.14-.06.27-.14.4-.24.04-.04.06-.03.06.02l-.01.07c0 .06.02.07.07.03l.37-.29Z" fill="#6B3D24"/><path d="M11.34 10.71v.04c0 .01-.02.02-.03 0h-.05c-.01.1-.07.17-.18.21-.06-.02-.08-.06-.06-.12 0-.01 0-.03-.02-.04a.16.16 0 0 0-.07-.02.02.02 0 0 1-.02-.02v-.03c.01-.02.02-.02.03-.02l.13.04c.02 0 .03 0 .03-.03a1.77 1.77 0 0 1-.02-.07c0-.08.01-.08.05-.02l.04.04c.03.05.05.04.05-.01 0-.03.03-.06.06-.1a.03.03 0 0 1 .02-.02.03.03 0 0 1 .03.01v.06c-.02.04-.02.07.01.1Z" fill="#ECF2F6"/><path d="M6.84 10.96c0-.01 0-.03.03-.05v-.11h.03s.02 0 .02.02l.04.12c.01.02.02.02.03.01.02 0 .03-.03.06-.06 0-.02.02-.02.04-.02l.02.02v.04l-.05.06V11l.2.01v.03l-.02.02-.08.01c-.02 0-.03.02-.03.04v.06c-.01.02-.02.03-.05.02-.03 0-.03-.03 0-.08 0-.02 0-.03-.02-.02-.07.02-.12 0-.13-.07a.07.07 0 0 0-.04-.04l-.05-.03Z" fill="#fff"/><path d="M10.64 11.4c.04 0 0-.02.06-.03l.1-.01c.21-.01.35.07.42.23.13.32-.11.62-.47.55-.36-.06-.4-.53-.11-.73Z" fill="#FA7C30"/><path d="M8.32 13.78a.53.53 0 0 0 .07.45v.01l-.02.03h-.02L8.2 14a.06.06 0 0 0-.04-.03.12.12 0 0 1-.1-.09.03.03 0 0 0-.02-.02h-.02l-.02.01V14.01c0 .03 0 .03-.02.01a.43.43 0 0 1-.1-.28c0-.02 0-.02-.01-.01l-.01-.01h-.01a.01.01 0 0 0-.02 0 .27.27 0 0 0-.04.17l-.02.02-.02-.24c0-.01 0-.02-.02-.03H7.7v.02c-.02.02-.02.02-.03 0-.01-.12-.04-.17-.07-.14-.03 0-.06-.02-.1-.05-.03-.05-.08-.1-.13-.14-.02-.01-.03 0-.03.02l.01.03a.02.02 0 0 1-.03.02.47.47 0 0 1-.16-.2.11.11 0 0 0-.04-.04c-.02-.02-.03-.01-.03.01v.04c0 .01-.01.02-.03.02h-.01l-.02-.02a1.47 1.47 0 0 0-.2-.34c-.04-.04-.06-.03-.06.02 0 .03-.02.06-.05.09a.03.03 0 0 1-.02 0 .03.03 0 0 1-.02-.02 1.74 1.74 0 0 0-.28-.55h-.01v.04c.02.1.04.17.04.24 0 .06-.02.06-.05.01l-.2-.34a.12.12 0 0 1-.02-.06c0-.03 0-.05-.02-.07h-.04c0 .02-.02.02-.03.02-.02 0-.03 0-.03-.02a.15.15 0 0 0-.06-.1l.18-.26v-.03H6.1a.98.98 0 0 1-.18.07c-.06.02-.07 0-.03-.05l.32-.41.02-.01.01.02c.05.46.29.77.58 1.2.11.16.24.3.4.4.38.3.64.45 1.1.72Z" fill="#402514"/><path d="m11.85 11.88.3.57c0 .02 0 .03-.03.03h-.2c-.02 0-.03.01 0 .03.12.1.19.24.2.4a.15.15 0 0 1-.12-.05H12v.01c.08.12.14.25.17.4 0 .02-.01.03-.03.03h-.03c-.03 0-.03.01-.02.03.08.1.13.2.15.3.02.04.02.08 0 .1 0 .02-.01.03-.03.01a.84.84 0 0 0-.12-.09c-.05-.03-.07-.02-.04.04l.05.12c0 .02 0 .03-.02.04l-.2.11a.84.84 0 0 1-.09-.31c0-.03 0-.03.03-.01l.07.04c.02.01.03 0 .03-.02a.1.1 0 0 0-.03-.07v-.07c.02-.02.04-.03.06-.02l.12.03h.04l.01-.02-.32-.39c-.04-.04-.03-.06.03-.05.03 0 .06.01.11.04.07.03.08.02.06-.05a1 1 0 0 0-.17-.26.06.06 0 0 1-.01-.04v-.02l.04-.03.08.01c.03 0 .03 0 .02-.03a.4.4 0 0 0-.16-.19.05.05 0 0 1-.03-.05.05.05 0 0 1 .04-.04h.06c.06-.02.06-.04 0-.07-.01 0-.03-.02-.04-.06-.01-.02 0-.03.02-.03h.03c.08.04.1.03.05-.05l-.07-.12c-.04-.08-.06-.07-.07 0-.05.3-.2.51-.38.8l-.25.38c-.17.22-.33.44-.48.67l-.36.47c0-.1.04-.2.1-.28l.86-1.2c.24-.34.4-.72.51-1.14.01-.02.02-.02.03 0v.06c0 .01 0 .03.02.04h.02Z" fill="#0E0807"/><path d="m11.88 13.6-.17-.28c-.01-.02 0-.03.01-.04h.02c.02-.02.02-.04 0-.05a.7.7 0 0 0-.17-.17c-.02-.01-.03-.01-.04.01l-.01.02c-.02.03-.03.03-.03 0 0-.04-.02-.06-.05-.06-.02 0-.03.01-.04.03l-.12.26c0 .02-.02.03-.03.04l-.07.04a.06.06 0 0 0-.03.03.65.65 0 0 1-.08.18.6.6 0 0 1-.13.12.53.53 0 0 0-.16.19c-.03.04-.06.05-.09.02h-.02a16.47 16.47 0 0 1 .73-1.06c.18-.29.33-.5.38-.8 0-.07.03-.08.07 0l.07.12c.04.08.03.1-.05.05h-.03c-.03 0-.03.01-.02.03 0 .04.03.06.04.06.06.03.06.05 0 .07h-.06a.05.05 0 0 0-.03.07c0 .01 0 .02.02.02.07.04.12.1.16.2.01.01 0 .02-.02.02h-.08c-.01 0-.03 0-.04.02v.02l.01.04c.07.08.13.17.17.26.02.07 0 .08-.06.05a.35.35 0 0 0-.11-.04c-.06-.01-.07 0-.03.05l.32.38v.02l-.03.01h-.02l-.12-.03c-.02 0-.04 0-.05.02l-.01.07Z" fill="#402514"/><path d="M7.59 13.52c-.02.15-.01.28.04.38.1.24.1.46 0 .68-.02 0-.04 0-.05-.02.02-.07.02-.12 0-.16h-.05c-.02.03-.02.08-.02.14a.91.91 0 0 1-.44-.11h.08c.03-.02.03-.03 0-.05-.35-.19-.65-.27-.84-.65a4.77 4.77 0 0 0-.34-.58 18.35 18.35 0 0 1-.13-.79l.13-.22c.03.02.05.05.06.09 0 .02.01.03.03.02l.03-.01c.01-.02.03-.02.04 0l.02.06.02.06.2.34c.03.05.04.05.05 0a.74.74 0 0 0-.05-.25v-.03h.01v-.01h.02a1.74 1.74 0 0 1 .28.57h.03a.13.13 0 0 0 .05-.1c0-.04.02-.05.06-.01.07.1.14.2.2.34l.02.02h.01c.02 0 .02 0 .02-.02v-.04c0-.02.02-.03.04-.01.02 0 .03.02.04.04.04.09.1.16.16.2a.02.02 0 0 0 .03 0v-.05c0-.03 0-.03.02-.02l.14.14c.03.03.06.05.09.05Z" fill="#AB6536"/><path d="M5.84 12.36a18.39 18.39 0 0 0 .13.79 4.77 4.77 0 0 1 .34.58c.2.38.49.46.84.65.03.02.03.03 0 .05h-.08c-.3-.09-.6-.22-.86-.4l-.01-.1c0-.02-.01-.02-.03 0-.02.01-.04 0-.06-.02-.08-.1-.02-.32 0-.42 0-.01 0-.02-.02-.02l-.01.02c-.06.13-.11.26-.15.4l-.72-.56.63-.97Z" fill="#A35B2B"/><path d="M11.88 13.6a.1.1 0 0 1 .03.06c0 .03-.01.03-.03.02a.22.22 0 0 1-.08-.04c-.01-.02-.02-.02-.02 0 .01.12.04.22.1.32-.13.12-.28.2-.46.26-.02.01-.03 0-.03-.02l.01-.03a.16.16 0 0 0 .04-.14v-.05c.08-.16.15-.29.09-.47-.03-.08-.06-.08-.08 0a1 1 0 0 0-.04.27h-.03l-.02-.17c-.02-.07-.03-.07-.05 0a1.56 1.56 0 0 1-.13.31h-.01a.02.02 0 0 1-.02-.01l-.01-.1h-.03l-.01.01a.91.91 0 0 1-.12.25c-.04.05-.05.04-.05-.02l.01-.12c0-.03 0-.03-.03-.01l-.18.18c-.04.04-.06.03-.06-.03 0-.03 0-.07.02-.13.03.03.06.02.09-.02.04-.08.1-.14.16-.19.07-.05.12-.1.13-.12.03-.05.06-.1.08-.18l.03-.03.07-.04.03-.04.12-.26c.01-.02.02-.03.04-.03.03 0 .04.02.05.06 0 .03.01.03.03 0v-.02c.02-.02.03-.02.05-.01.07.04.12.1.18.17.01.01 0 .03-.01.04l-.02.01c-.02.01-.02.02-.01.04l.17.27Z" fill="#B27243"/><path d="M11.4 14.17c-.05.07-.1.1-.14.11-.1.02-.23.07-.42.16-.13.06-.37.12-.72.19l.19-.23.36-.47.02.01a.68.68 0 0 0-.02.13c0 .06.02.07.06.03l.18-.18c.02-.02.03-.02.03.01v.12c-.01.06 0 .07.04.02.05-.08.09-.16.12-.25l.01-.01h.03l.01.1.02.01h.02c.05-.1.09-.2.12-.31.02-.07.03-.07.05 0l.02.17h.03c0-.1.02-.2.04-.27.02-.08.05-.08.08 0 .06.18 0 .31-.09.47v.05c0 .06 0 .1-.04.14ZM8.32 13.78l.99.47.72.4c-.55.1-1.1.12-1.64.07-.07 0-.13-.03-.2-.05a.64.64 0 0 0-.17-.23.04.04 0 0 0-.04 0 .04.04 0 0 0-.02.04l.02.15a.7.7 0 0 1-.35-.05c.1-.22.1-.44 0-.68a.69.69 0 0 1-.04-.38c.03-.03.06.02.07.14 0 .02.01.02.02 0l.01-.01c0-.01.02-.02.03-.01h.01l.02.03.01.23h.03v-.01c0-.07.01-.12.04-.17a.01.01 0 0 1 .02 0h.02v.02c0 .1.04.2.11.28.02.02.03.02.02 0v-.13a.03.03 0 0 1 .02-.03h.02l.02.02c.01.06.05.09.1.1.02 0 .03 0 .04.02l.15.26h.02l.02-.01v-.01a.53.53 0 0 1-.07-.46Z" fill="#ECF2F6"/><path d="M8.19 14.67c-.02.03-.06.04-.11.02a.42.42 0 0 1-.1-.06l-.02-.15a.04.04 0 0 1 .02-.04.04.04 0 0 1 .04 0c.07.06.13.13.17.23Z" fill="#402514"/><path d="M9.79 8.04c-.07.1-.27.13-.32-.01-.08-.2.15-.44.3-.52.07-.03.14-.07.2-.04a.1.1 0 0 1 .04.14l-.22.43Z" fill="#ECF2F6"/><path d="M10.24 8.09c.03 0 .06.02.08.04.03.02.04.04.05.07l-.01.07a.2.2 0 0 1-.05.07.38.38 0 0 1-.17.09.39.39 0 0 1-.2 0 .2.2 0 0 1-.1-.06.12.12 0 0 1-.02-.1c.02-.05.05-.1.11-.13.17-.1.21-.08.3-.05ZM8.15 8.56c.15.01.28-.05.29-.15.01-.1-.1-.2-.25-.21-.15-.02-.28.05-.3.14 0 .1.1.2.26.22Z" fill="#F17330"/><path d="M9.31 9.66c.1 0 .18-.03.18-.07 0-.04-.08-.07-.18-.07-.1 0-.18.03-.18.07 0 .04.08.07.18.07Z" fill="#ECF2F6"/><path d="M8.52 12.04a.53.53 0 0 1-.73.24c-.21-.12-.3-.31-.26-.58a.04.04 0 0 1 .02-.03.04.04 0 0 1 .03 0c.07.02.11.03.12 0 .01-.01-.02-.04-.09-.07a.04.04 0 0 1-.02-.05v-.02c.18-.2.38-.27.62-.2.28.1.43.43.3.7Z" fill="#FA7C30"/><path d="M9.37 11.33c.05 0 .06.05.05.16 0 .05.01.06.05.03l.16-.14a.03.03 0 0 1 .04-.01.03.03 0 0 1 .02.03v.02a.04.04 0 0 1-.01.04l-.08.06a.03.03 0 0 0 0 .03.03.03 0 0 0 0 .02c.07.06.07.13 0 .2l-.01.03.01.02.08.1v.03l-.03.02a.03.03 0 0 1-.04 0l-.14-.16c-.03-.04-.05-.04-.04.01 0 .13 0 .2-.06.2-.04 0-.06-.07-.05-.2 0-.05-.01-.05-.04-.01l-.14.16a.03.03 0 0 1-.03 0H9.1l-.03-.02v-.03l.08-.1v-.05c-.07-.07-.07-.14 0-.2a.03.03 0 0 0 0-.02.03.03 0 0 0 0-.02l-.09-.07v-.02l-.01-.02v-.02a.03.03 0 0 1 .02-.03.04.04 0 0 1 .04 0l.16.15c.04.03.06.02.05-.03-.01-.1 0-.16.05-.16Z" fill="#fff"/><path d="M10.34 13.2a.61.61 0 1 1-1.23 0 .61.61 0 0 1 1.23 0Z" fill="#FA7C30"/><path d="M10.93 12.87c.02.03.04.04.07.03.02 0 .04 0 .05.02l.09.09c.02.02.02.03-.02.04-.03 0-.06-.02-.11-.06-.05-.04-.06-.03-.05.03l.04.12-.03.01h-.02l-.06-.1c-.02-.03-.03-.03-.04 0l-.01.08c-.02.09-.05.1-.07.02v-.05c0-.02-.01-.03-.03-.04-.04-.03-.06-.07-.05-.12l-.01-.04a.15.15 0 0 0-.05-.03l-.01-.02v-.02h.03l.12.02c.03.01.03 0 .02-.02l-.03-.09.01-.03h.02c.01-.02.02-.01.03 0a.7.7 0 0 0 .03.06c.03.05.05.05.07-.02 0-.04.03-.07.06-.1H11l.02.02v.02l-.04.04a.03.03 0 0 0 0 .03v.02c.03.01.06.04.09.08v.01l-.02.02a.02.02 0 0 1-.02 0 .14.14 0 0 0-.1-.05.02.02 0 0 0 0 .03ZM8.36 13.4c-.04-.03-.03-.1.03-.2.02-.05.01-.06-.04-.04l-.19.1a.03.03 0 0 1-.04-.02l-.01-.03.01-.03.1-.05c.02 0 .02-.02.03-.02v-.03c-.03-.1 0-.15.08-.19a.03.03 0 0 0 .02-.01.03.03 0 0 0 0-.03l-.05-.09a.05.05 0 0 1 0-.04l.01-.02a.04.04 0 0 1 .04-.01.04.04 0 0 1 .03.02l.09.19c.02.04.04.04.05 0 .03-.1.07-.15.12-.13.04.02.03.07-.02.16-.03.05-.02.06.03.05l.2-.06a.03.03 0 0 1 .05.04v.02a.04.04 0 0 1-.04.03l-.1.03a.03.03 0 0 0-.01.04c.03.08 0 .14-.09.18l-.02.02v.03l.04.11c0 .02 0 .03-.02.04h-.03a.03.03 0 0 1-.04-.02l-.06-.2c-.01-.05-.03-.05-.05 0-.04.12-.08.17-.12.15Z" fill="#ECF2F6"/><path fill-rule="evenodd" d="M9 15A6 6 0 1 0 9 3a6 6 0 0 0 0 12Zm0-.35a5.65 5.65 0 1 0 0-11.3 5.65 5.65 0 0 0 0 11.3Z" fill="#F17A22"/><defs><linearGradient id="a" x1="9" y1="3.71" x2="9" y2="14.29" gradientUnits="userSpaceOnUse"><stop stop-color="#F28423"/><stop offset="1" stop-color="#F6AF21"/></linearGradient></defs></svg>