<!-- by TradingView --><svg width="18" height="18" viewBox="0 0 18 18" xmlns="http://www.w3.org/2000/svg"><path fill="#8E4EC9" d="M0 0h18v18H0z"/><path d="m9.22 3.3-.09 1.2-.18.07c-.15 0-.3-.07-.29-.23a585.7 585.7 0 0 0 .07-1.14c.01-.11.08-.18.2-.2.12-.02.28.04.3.17l-.01.13Zm-1.05.46c.07.16.12.33.17.49.05.15 0 .24-.15.29a.27.27 0 0 1-.23-.03c-.26-.15-.52-.32-.8-.5-.05-.03-.06-.02-.04.03l.15.44c.05.13.08.27-.08.34-.29.11-.33-.14-.4-.32l-.3-.87c-.1-.27.2-.4.42-.27l.79.5c.02 0 .03 0 .02-.03a48 48 0 0 1-.17-.48.33.33 0 0 1-.03-.15c.02-.14.18-.18.31-.17.05.01.08.04.1.09.1.2.17.42.24.64Zm3.08-.26c0 .35-.4.16-.57.13h-.02l-.01.01a37.55 37.55 0 0 0-.3.93c-.11.2-.52.07-.45-.16a31.12 31.12 0 0 1 .27-.92h-.01c-.17-.02-.4-.06-.48-.23.02-.26.2-.25.41-.2.33.1.66.18 1 .26.08.02.14.08.16.17Z" fill="#ECB0D3"/><path fill-rule="evenodd" d="M6.69 4.85c.04-.06.04-.14 0-.25-.47-.25-.95-.5-1.43-.73a.64.64 0 0 0-.23-.08.3.3 0 0 0-.25.1c-.07.09-.1.17-.08.24l.12.45.26 1.02c.04.14.12.26.3.22.28-.08.2-.3.13-.49v-.07a30.07 30.07 0 0 1 .59-.44l.04.01.03.02c.17.1.37.22.52 0ZM5.25 4.4l.1.35v.01h.01a.03.03 0 0 0 .02 0l.24-.17a.02.02 0 0 0 0-.03l-.34-.18a.02.02 0 0 0-.02 0l-.01.01v.01Zm6.01.48.04-.02a.05.05 0 0 1 .05 0l.5.4c.01 0 .02 0 .02.02v.07c-.05.17-.11.44.14.5.13.04.25-.08.27-.2l.31-1.48c.03-.15-.1-.28-.23-.32-.12-.04-.26.04-.37.1l-.03.02c-.3.18-.65.36-1.02.56-.14.08-.24.17-.17.34.1.24.33.1.49.01Zm.8-.45-.32.17v.02l.23.18a.02.02 0 0 0 .02 0l.01-.01.09-.34v-.02a.02.02 0 0 0-.03 0Z" fill="#ECB0D3"/><path d="M9.13 4.5c.18.01.33.1.48.25.13.14.25.27.35.4l.09.02c.11.01.2.05.27.14 0 .02.02.03.03.03h.05c.23-.05.5-.08.73-.06.38.02.6.41.62.73v.02l-.02.01-.04-.03a.7.7 0 0 0-.33-.6c-.26-.17-.7-.03-1 0h-.03v.03l-.02.17c0 .01 0 .02.02.03l.16.09v.03l-.17-.06-.04.01a.32.32 0 0 1-.12.12c-.02 0-.02.02-.01.04.09.14.2.26.34.36.04.02.06.06.05.1l-.28-.24a2.86 2.86 0 0 1-.16-.2.04.04 0 0 0-.04-.03.41.41 0 0 1-.36-.15.05.05 0 0 0-.03-.02l-.25-.05-.02-.04.25.02c.02 0 .03 0 .03-.02 0-.05 0-.1.03-.16v-.02l-.02-.02-.25-.13v-.03h.02a.86.86 0 0 1 .27.13.03.03 0 0 0 .02-.01c.05-.06.1-.11.16-.15.02 0 .02-.02 0-.03a3.04 3.04 0 0 0-.42-.47c-.19-.17-.38-.23-.57-.03-.13.14-.32.33-.34.52-.02.15.05.23.19.24l-.01.03c-.25 0-.26-.27-.18-.43a.01.01 0 0 0 0-.01h-.01c-.47.04-.91.17-1.34.37l-.24.12a3.17 3.17 0 0 0-.65.38h-.02a4.71 4.71 0 0 1 2.31-.94l.32-.4.18-.07Z" fill="#442D33"/><path d="M9.4 5.6a.39.39 0 0 0-.09-.22c-.16-.19-.42-.15-.54.06-.14-.01-.2-.1-.19-.24.02-.19.2-.38.34-.52.19-.2.38-.14.57.03.16.14.3.3.43.47v.03a.56.56 0 0 0-.17.15.03.03 0 0 1-.04 0 .86.86 0 0 0-.25-.12h-.02v.02l.25.14.02.02v.02a.29.29 0 0 0-.03.16c0 .02 0 .02-.03.02L9.4 5.6Z" fill="#F5E052"/><path d="m8.76 5.47-.39.83-.5.12-.01.01v.02l.02.01.47-.11-.15.32a.56.56 0 0 0-.07.21c0 .26.37.35.5.1a2.17 2.17 0 0 0 .1-.21h.03l.46.02h.02l.02.02.12.3a4.51 4.51 0 0 0-1.02.13c-.32 0-.64.04-.97.13-.15.05-.3.14-.44.2-.03-.2-.01-.4.04-.6v-.01h-.03c-.07.26-.08.51-.03.77v.03l-.03.02c-.3.12-.5.33-.6.64-.18.13-.26.33-.34.55-.13.36-.27.7-.39 1.09l-.15.46a3.07 3.07 0 0 1-.08-1.5l.08-.44c.04-.35.12-.71.17-1.04.05-.37.14-.72.2-1.08a.3.3 0 0 1 .07-.12l.05.05.32.82c.07.18.14.34.37.29.16-.03.25-.2.2-.35a6.75 6.75 0 0 1-.1-.34c.17.11.35.2.5 0 .04-.04.05-.1.05-.16 0-.02.01-.04.04-.06a.03.03 0 0 1 .03.01v.01l.12.3c.05.15.22.22.37.16.24-.1.16-.35.07-.53a25.76 25.76 0 0 0-.35-.9c-.04-.12-.14-.2-.3-.24a4.35 4.35 0 0 1 1.35-.36c-.08.16-.07.42.18.43Z" fill="#E8B988"/><path d="M10.27 5.58c-.02.43-.88.2-.4-.28.1-.1.25-.09.37-.01.07.05.03.22.03.3Z" fill="#F5E052"/><path d="m9.4 5.6.02.04.17.53.02.03.2.61c.1.28-.2.51-.43.3l-.12-.3-.02-.02h-.02l-.46-.03h-.02l-.02.03-.1.2c-.12.24-.49.15-.49-.1a.6.6 0 0 1 .07-.22l.15-.32.02-.05.39-.83v-.03c.13-.2.4-.25.55-.06.05.06.08.14.09.22Z" fill="#F7F1EA"/><path d="M11.7 6.01c-.23 0-.38.15-.56.23a.03.03 0 0 1-.04 0v-.02a5.6 5.6 0 0 1-.11-.38.27.27 0 0 0-.1-.15c-.13-.1-.26-.08-.4.04l-.16-.09c-.02 0-.02-.02-.02-.03l.01-.17.01-.02.02-.01c.3-.03.75-.17 1.01 0a.7.7 0 0 1 .33.6Z" fill="#F5E052"/><path d="M8.65 6.7c-.05.13-.12.4-.32.32A.08.08 0 0 1 8.29 7c-.06-.07-.07-.15-.03-.22l.61-1.3c.08-.17.34-.14.4.03l.45 1.35V7a.2.2 0 0 1-.09.1h-.02c-.09.02-.15-.01-.18-.1a1.47 1.47 0 0 1-.1-.26V6.7H9.3l-.6-.04c-.03 0-.04.01-.05.04Z" fill="#3C58E0"/><path d="M7.23 5.4c.16.04.26.12.3.24a25.76 25.76 0 0 1 .35.9c.09.18.17.43-.07.53a.28.28 0 0 1-.37-.15 38.8 38.8 0 0 0-.14-.33.06.06 0 0 0-.04.06c0 .07-.01.12-.05.17-.15.2-.33.1-.5-.01-.02-.01-.03 0-.02.01l.11.33a.26.26 0 0 1-.2.35c-.22.05-.3-.11-.36-.3-.14-.36-.24-.63-.32-.8a.16.16 0 0 0-.05-.06c.02-.03.02-.05 0-.09-.07-.14-.05-.26.08-.35.12-.09.24-.09.38 0h.02l.46.34a.02.02 0 0 0 .02 0l.01-.02.16-.7.24-.12Z" fill="#F7F1EA"/><path d="m6.99 5.52-.16.7v.01l-.01.01a.02.02 0 0 1-.02 0l-.46-.34h.02c.19-.15.4-.28.63-.38Z" fill="#E8B988"/><path d="m6.45 6.54.24.62c.05.12.02.2-.1.23-.1.03-.18 0-.22-.1-.15-.38-.3-.76-.43-1.13-.03-.07-.01-.13.06-.18.09-.07.18-.07.28 0a603.6 603.6 0 0 0 .61.45v-.01l.16-.73c.02-.08.07-.12.15-.14.12-.03.2 0 .24.11l.42 1.1c.09.23-.24.35-.33.11a105 105 0 0 1-.24-.62c-.01-.04-.02-.04-.03 0l-.11.46c-.03.12-.15.18-.27.1l-.4-.3c-.03-.01-.04 0-.03.03Z" fill="#3C58E0"/><path d="M11.7 6.01c0 .01 0 .02.03.03.25.09.23.35.03.48-.02.01-.02.02-.02 0l-.45.23a.05.05 0 0 0-.03.05c.03.14.06.28.12.4.18.48-.4.66-.53.23a4.35 4.35 0 0 1-.11-.43h-.01l-.23.13-.02.01a.52.52 0 0 1-.33.11c-.27-.01-.35-.32-.14-.45.11-.07.24-.14.38-.2.03 0 .06-.03.1-.06.03 0 .05 0 .06-.03.03-.05.02-.11-.01-.17 0-.05 0-.09-.05-.11 0-.08-.02-.18-.04-.29a.23.23 0 0 1 .04-.18v-.03c.14-.12.27-.14.4-.04.05.04.09.1.1.15a5.6 5.6 0 0 0 .13.4h.02c.18-.08.33-.22.55-.23Z" fill="#F7F1EA"/><path d="M10.54 6.34c.03.06.04.12.01.17-.16-.23-.33-.37-.63-.37l-.33.03-.17-.53.25.05c.01 0 .02 0 .03.02.1.1.21.16.36.15.02 0 .03 0 .04.02l.16.2c.08.1.19.17.28.26Z" fill="#E8B988"/><path d="M10.49 5.76a.23.23 0 0 0-.04.18l.04.29a1.3 1.3 0 0 1-.34-.36v-.04a.3.3 0 0 0 .13-.12c.01-.01.03-.02.04-.01l.17.06Z" fill="#F5E052"/><path d="m10.78 6.87-.52.27c-.1.05-.18.03-.25-.06-.03-.1 0-.18.1-.24l.58-.28c.02 0 .02-.02.02-.03l-.16-.58c-.06-.25.3-.3.35-.08a265.82 265.82 0 0 0 .14.54h.01c.17-.1.34-.18.5-.26.22-.11.37.17.17.28a13.07 13.07 0 0 1-.59.3v.02c.07.18.13.39.17.63.03.1-.02.17-.13.18-.12.02-.2-.03-.22-.16a6.94 6.94 0 0 0-.13-.52c-.01-.02-.02-.02-.04-.01Z" fill="#3C58E0"/><path d="m8.82 6.32.2-.46.01-.01a.02.02 0 0 1 .02 0l.16.5a.02.02 0 0 1-.02.02l-.36-.02a.02.02 0 0 1-.01-.01.02.02 0 0 1 0-.02Z" fill="#F7F1EA"/><path d="M10.55 6.51c0 .02-.03.03-.06.03v-.01a.04.04 0 0 0 0-.04.6.6 0 0 0-.48-.3 3 3 0 0 0-.4.01l-.02-.03.33-.03c.3 0 .47.14.63.37Z" fill="#442D33"/><path d="M10.49 6.54a.55.55 0 0 1-.1.06 2.7 2.7 0 0 0-.38.2c-.21.13-.13.44.14.45.1.01.21-.03.33-.1-.03.24-.01.45-.23.64a.03.03 0 0 1-.04 0 1 1 0 0 0-.7-.1 1 1 0 0 0-.67.47.09.09 0 0 1-.07.04l-.32.05-.27.02c-.25-.44-.65-.62-1.17-.53l-.03-.01-.03-.15c.15-.07.29-.16.44-.2a3 3 0 0 1 .97-.14h.1a4 4 0 0 1 .92-.13c.23.21.53-.02.43-.3l-.2-.6a3 3 0 0 1 .4-.02.6.6 0 0 1 .48.32v.03Z" fill="#E2A86A"/><path d="M5.87 6.25c.01.04 0 .07-.01.09a.3.3 0 0 0-.06.12c-.07.36-.16.71-.21 1.08-.05.33-.13.69-.17 1.04l-.08.45c-.1.5-.07 1 .08 1.49.04.1.11.14.2.14.2 0 .37-.08.55-.14v-.02a.21.21 0 0 1-.09-.22c.03-.17.14-.63.44-.46a29.16 29.16 0 0 0 .28.13v-.01l-.05-.4c.03 0 .05 0 .06.02H6.8c0 .11 0 .22.02.32.01.06.04.11.09.15.14.12.29.19.46.25.1.04.18.06.28.08.48.07.95.06 1.43.01.18-.02.34-.05.5-.11l.49-.2c.12-.05.38-.23.4-.37.02-.15.03-.3.03-.46a.1.1 0 0 0 .06-.06l-.04.45c0 .04.01.05.05.03l.16-.04c.02 0 .03 0 .05-.02l.33-.35c.04-.05.1-.06.15-.05.14.04.26.1.36.2.15.15.08.31-.01.46-.1.17-.2.32-.32.46a.04.04 0 0 0 0 .04c.05.11.03.21-.07.3a.03.03 0 0 0 0 .05h.01c.26.1.6.08.76-.14a.02.02 0 0 1 .02 0h.01l.05.08.05.04h.05c.1-.04.12-.1.14-.19.05-.25.09-.48.11-.71a4.1 4.1 0 0 0-.14-1.88 13.48 13.48 0 0 0-.52-1.38h.03l.01.01c.2.44.38.9.54 1.4a5.4 5.4 0 0 1 0 2.63c-.03.14-.22.22-.33.1l-.02-.01h-.02c-.26.2-.48.2-.76.1l-.05.01-.12.18v.04c.07.2.15.37.23.55.03.05.02.09-.03.12a2.24 2.24 0 0 1-.92.36l-.01.01a.03.03 0 0 0 0 .03l.1.2c.01.02.02.03.01.04 0 .02 0 .03-.02.04l-.2.13c-.02 0-.03.02-.02.04.03.13-.02.22-.14.28-.1.04-.18.1-.28.12-.22.06-.4-.02-.52-.22a.03.03 0 0 0-.03-.01h-.12c-.02.01-.02.02-.02.04.04.1.15.32 0 .4-.2.1-.42.15-.64.14a.15.15 0 0 1-.12-.07 1.8 1.8 0 0 1-.2-.37h-.23c-.07.01-.1-.02-.1-.09l-.01-.19c0-.02-.01-.03-.03-.03-.15-.02-.28-.13-.25-.29A2.97 2.97 0 0 0 7.5 12l-.01-.01c-.28-.06-.4-.2-.32-.47a4.03 4.03 0 0 0 .1-.4l-.03-.02a.9.9 0 0 1-.55-.33 4.03 4.03 0 0 1-.36-.2.18.18 0 0 0-.17 0c-.2.1-.4.14-.6.13a.15.15 0 0 1-.14-.08c-.1-.19-.17-.39-.18-.6 0-.35 0-.63.03-.83.04-.28.1-.56.13-.84.03-.21.06-.43.11-.66.05-.2.05-.39.1-.58l.16-.75c.01-.04.04-.08.1-.1Z" fill="#442D33"/><path d="M11.74 6.53c.07.12.12.25.17.37.14.33.26.66.37 1 .19.6.24 1.23.14 1.88a4.62 4.62 0 0 0-.37-.37c-.2-.18-.38-.4-.51-.64a5.32 5.32 0 0 0-.98-1.18l-.02-.01-.01-.02h-.03l-.02-.01-.02-.04.04-.38.23-.12a.02.02 0 0 1 .02 0v.01l.1.4c.12.44.71.26.53-.21-.06-.13-.09-.27-.12-.4v-.04l.03-.02.45-.22Z" fill="#E8B988"/><path d="m6.95 7.58.03.15c0 .01.01.02.03.01.52-.09.92.09 1.17.53.02.01.02.02.01.02l.08.31c0 .01 0 .02.02.02l.39-.01c.02 0 .03-.01.03-.03a1.12 1.12 0 0 1 .07-.33v-.01h-.01l-.22.02-.1-.01.32-.05c.03 0 .05-.02.07-.04a1 1 0 0 1 .68-.47 1 1 0 0 1 .69.1h.04c.22-.19.2-.4.23-.65l.02-.01-.04.38-.07.2v.04c.03.06.05.12.06.2l.02.04c.3.37.32.76.09 1.18a.1.1 0 0 1-.06.06c-.42.48-1.12.5-1.56.03H8.9v.02c-.01-.03-.02-.05-.04-.05h-.01c-.11.01-.18.05-.2.12a.17.17 0 0 1-.12.1l-.04-.02a.19.19 0 0 0 .14-.13l.05-.06.14-.04v-.03c-.05-.15-.16-.21-.32-.2a.55.55 0 0 0-.33.17l-.02.06-.03.03-.04.02c-.34.4-.76.5-1.27.3l-.06-.01c0-.02-.02-.03-.05-.05a.94.94 0 0 1-.4-1.07 1 1 0 0 1 .6-.64l.03-.02v-.03c-.05-.26-.04-.51.03-.77h.02l.01.01c-.05.2-.07.4-.04.6Z" fill="#0A0403"/><path d="m3.95 7.57.06.39v.02h.03c.41.03.77.23.74.68-.02.26-.3.45-.54.5a.06.06 0 0 0-.04.02v.04c.01.1.04.23-.1.27a.21.21 0 0 1-.2-.05c-.03-.05-.02-.13-.03-.19 0-.02-.02-.03-.04-.03-.22 0-.43-.05-.61-.13-.27-.11-.12-.47.17-.37a3.39 3.39 0 0 0 .42.11V8.8l-.05-.4-.02-.02c-.2-.04-.42-.06-.56-.2A.53.53 0 0 1 3 7.73c.03-.28.25-.44.53-.52h.02l.01-.03c.03-.09.05-.18.17-.19.1 0 .15.05.18.14 0 .02.02.04.04.04.13 0 .26.02.4.06.3.1.17.47-.11.4a4.64 4.64 0 0 1-.28-.07l-.01.02Zm9.91 1.48.09-.39v-.02l-.02-.01a3.1 3.1 0 0 0-.18-.1c-.28-.15-.4-.36-.34-.64.06-.35.4-.44.73-.45.01 0 .02 0 .03-.02.03-.06.07-.12.15-.13.13 0 .2.08.19.2 0 0 0 .02.02.03.16.06.28.13.38.21.23.18-.03.49-.29.3a1.54 1.54 0 0 0-.2-.13.03.03 0 0 0-.02.01v.01l-.08.37a.04.04 0 0 0 .02.04c.33.18.62.35.51.78-.08.3-.42.42-.72.4l-.02.01-.02.02c-.02.06-.02.12-.05.17-.05.08-.13.1-.22.06-.11-.04-.1-.19-.06-.27a.04.04 0 0 0 0-.03l-.01-.02h-.02a1.66 1.66 0 0 1-.53-.3c-.22-.17.04-.52.3-.3a1.45 1.45 0 0 0 .33.22.03.03 0 0 0 .02-.01l.01-.01Z" fill="#F5E052"/><path d="m10.46 7.51.02.04h.02l.03.01v.02h.03l.05.02c.38.4.68.72.93 1.17.13.24.3.46.5.64.14.11.26.23.38.37-.02.23-.06.46-.1.71-.03.1-.06.15-.15.19h-.05a.08.08 0 0 1-.05-.04l-.05-.08-.02-.01a.02.02 0 0 0-.01 0c-.17.23-.5.25-.76.16a.03.03 0 0 1-.02-.03v-.01l.01-.01c.1-.1.12-.2.07-.31v-.04c.11-.14.22-.29.32-.46.09-.15.16-.3.01-.45a.77.77 0 0 0-.36-.2.15.15 0 0 0-.15.04 14.28 14.28 0 0 0-.38.37.54.54 0 0 0-.16.04c-.04.02-.05 0-.05-.03l.04-.45a.98.98 0 0 0-.1-1.18.08.08 0 0 1-.01-.05.52.52 0 0 0-.06-.19v-.04l.07-.2Z" fill="#E2A86A"/><path d="m10.4 7.92-.1-.07c-.02-.02-.03-.03-.01-.04l.03-.04c.02-.02.03-.02.04 0l.05.15c0 .01 0 .02-.01 0Z" fill="#ECB0D3"/><path d="m9.24 8.13-.3.03c.3-.36.67-.47 1.14-.33.02 0 .03.02 0 .04a.46.46 0 0 1-.17.08 8.3 8.3 0 0 0-.67.18Zm-1.17.15a.22.22 0 0 1-.14.02l.02-.01v-.02l-.03-.01a4.2 4.2 0 0 1-.6-.11c-.12-.04-.21-.14-.28-.29 0-.01 0-.02.02-.02a.94.94 0 0 1 .66.1c.15.08.27.2.35.34Z" fill="#E2A86A"/><path d="M14.04 8.16v.01a.02.02 0 0 1-.02 0 .2.2 0 0 1-.13-.08.17.17 0 0 1 0-.2.2.2 0 0 1 .2-.08.02.02 0 0 1 .02.01v.01l-.07.33Z" fill="#9151CC"/><path d="M7.93 8.3c.04 0 .09 0 .14-.02.14.31.12.6-.04.85a.91.91 0 0 1-1.2.31.07.07 0 0 1-.04-.03 8.22 8.22 0 0 1 .15-1.54H7l.02.02c.06.11.14.2.23.26v.03c-.12.3-.12.6 0 .89.1.22.37.24.57.14.2-.1.19-.4.15-.57 0-.01-.01-.02-.03-.01-.06.01-.21.05-.27 0a.09.09 0 0 1-.02-.07.08.08 0 0 1 .03-.06.33.33 0 0 1 .23-.06.03.03 0 0 0 .02-.01.03.03 0 0 0 .01-.02V8.3Zm2.52-.15a29.2 29.2 0 0 1 .07.79c0 .06-.02.12-.08.2a.92.92 0 0 1-1.59-.23.8.8 0 0 1 .03-.62.14.14 0 0 1 .07-.08c.1-.03.18-.04.24-.04.02 0 .02 0 .02.02a.52.52 0 0 0-.1.15c-.05.2-.03.4.05.59.06.15.2.28.39.26.26-.02.46-.22.35-.48V8.7h-.03c-.13.03-.35 0-.35-.17 0-.02 0-.04.02-.05a.08.08 0 0 1 .06-.02.9.9 0 0 1 .32.05l.01-.01a.55.55 0 0 0-.23-.39h-.02l-.04-.02c-.02-.01-.02-.02 0-.03.18-.05.35-.09.51-.17h.04a.8.8 0 0 1 .27.26Z" fill="#F7F1EA"/><path d="M6.88 7.93a9.26 9.26 0 0 0-.16 1.45H6.7c-.52-.43-.44-1.14.14-1.47a.02.02 0 0 1 .02 0h.01v.02Z" fill="#E2A86A"/><path d="m9.24 8.13-.03.06c0-.02 0-.02-.02-.02l-.24.03v-.04l.29-.03Zm1.29.14c-.02 0-.03.02-.02.06-.02-.01-.03 0-.03.04a.41.41 0 0 1-.03-.22l.08.12Zm-2.08-.02.1.01-.36.03v-.02l.26-.02Z" fill="#442D33"/><path d="m8.2 8.3.35-.04.22-.02h.01a.01.01 0 0 1 0 .02c-.04.1-.06.2-.07.32 0 .02-.01.03-.03.03h-.41l-.08-.32Z" fill="#F7F1EA"/><path d="M10.53 8.27c.08.18.1.36.07.53-.03.09-.04.08-.04 0 0-.14-.02-.3-.05-.47 0-.04 0-.06.02-.06Z" fill="#E8B988"/><path d="M6.3 8.42c-.11.45.03.8.4 1.07l.05.05.05.4v.01l-.01.01a.02.02 0 0 1-.02 0l-.25-.14c-.3-.17-.41.3-.44.46-.01.1.02.16.1.22v.01a.02.02 0 0 1-.01.01c-.18.06-.35.15-.54.14a.22.22 0 0 1-.21-.14l.15-.46c.12-.38.26-.73.4-1.1.07-.2.15-.4.33-.54Z" fill="#E2A86A"/><path d="M8.6 8.94a.64.64 0 0 0-.38.12c-.03.01-.03 0-.02-.02a.76.76 0 0 0 .06-.33c0-.01.01-.02.03-.02l.4-.02s.02.01.02.03c0 .1.03.2.06.28.01.03 0 .03-.02.02a.32.32 0 0 0-.15-.06Z" fill="#F7F1EA"/><path d="M8.68 9.24c-.16 0-.36 0-.5-.1.1-.1.2-.15.32-.17.16-.01.27.05.33.2l-.01.03-.14.04Z" fill="#ECB0D3"/><path d="M8.17 9.14c.15.1.35.1.51.1l-.05.06-.25-.04c-.02 0-.03 0-.03.03.04.1.08.15.14.14l.04.02a.1.1 0 0 0-.03.02v.03l.09.2.04.03c.06.02.1.06.14.11l.02.01h.02c.25-.1.13-.38.08-.57l.01-.01h.02l.02-.01c.06.25.18.6-.23.66a.44.44 0 0 1-.4-.13.83.83 0 0 1-.23-.54l.04-.02c0 .22.1.4.26.57h.03c.02-.04.06-.06.1-.07a.03.03 0 0 0 .03-.01.03.03 0 0 0 0-.02c-.04-.09-.07-.19-.14-.26a.32.32 0 0 1-.1-.17.04.04 0 0 0-.03-.03l-.12-.04c.02-.03.03-.05.02-.06Z" fill="#442D33"/><path d="m8.15 9.2.12.04c.02 0 .03.01.03.03.01.07.05.13.1.17.07.07.1.17.14.26a.03.03 0 0 1-.01.03h-.01c-.05.01-.09.03-.1.06-.02.02-.03.02-.04 0a.79.79 0 0 1-.26-.56l.03-.03Zm.75.08c.04.19.16.46-.1.57a.03.03 0 0 1-.03 0 .25.25 0 0 0-.14-.12.07.07 0 0 1-.04-.04l-.1-.2.01-.02.03-.02c.05-.02.1-.05.12-.1.02-.07.09-.1.2-.12h.01c.02 0 .03.02.03.05Z" fill="#ECB0D3"/><path d="M10.5 9.23c0 .15 0 .3-.03.46-.02.14-.28.32-.4.37-.16.07-.32.14-.5.2-.15.06-.31.1-.49.11a5.6 5.6 0 0 1-1.43-.01c-.1-.02-.19-.04-.28-.08a1.5 1.5 0 0 1-.46-.25.25.25 0 0 1-.09-.15 1.7 1.7 0 0 1-.02-.31c0-.01 0-.02.01-.01.5.18.93.08 1.27-.3.02.21.1.4.23.53.1.11.24.15.4.13.41-.06.3-.41.23-.66.44.47 1.14.45 1.56-.03Zm1.15.44a2.88 2.88 0 0 1-.4.58.03.03 0 0 1-.02-.01 2.66 2.66 0 0 0-.44-.59v-.02l.36-.37a.1.1 0 0 1 .1-.03c.17.05.5.22.4.44Z" fill="#F7F1EA"/><path d="M8.63 9.3c-.02.06-.06.1-.14.13-.06 0-.1-.04-.14-.14 0-.02 0-.03.03-.03l.25.04Z" fill="#DB5348"/><path d="m10.97 10.99.27.57a.05.05 0 0 1-.02.06c-.47.31-1 .39-1.58.36-.1-.01-.2-.04-.18-.17.08-.38.13-.68.16-.9.02-.17.02-.32 0-.46-.01-.1.06-.18.16-.22.27-.1.56-.2.7-.45a.28.28 0 0 1 .21-.12l.04.01c.16.14.32.35.49.63.06.1.06.19.02.26a384.47 384.47 0 0 1-.27.4V11ZM8.45 9.85a.02.02 0 0 1 0-.02v-.01a.11.11 0 0 1 .05-.04h.06l.02.02v.03a.1.1 0 0 1 0 .03l-.01.03-.01.01h-.02l-.09-.05Zm.16-.05v-.01l.02-.01c.04.01.07.03.1.07v.02l-.02.01c-.05 0-.08-.02-.1-.08Z" fill="#ECB0D3"/><path d="M6.92 10.13c-.2.13-.25.32-.24.54v.01a.02.02 0 0 1-.03 0l-.43-.22a.18.18 0 0 1-.08-.07c-.05-.11.06-.36.11-.47.07-.14.2-.1.32-.03a5 5 0 0 0 .35.23v.01Z" fill="#F7F1EA"/><path d="M4.8 10.2a.3.3 0 0 0-.24.16c-.03.06-.05.05-.07 0-.02-.09-.08-.16-.18-.22-.05-.02-.04-.04 0-.04a.3.3 0 0 0 .24-.17c.02-.03.04-.03.05 0 .03.14.1.17.2.25a.01.01 0 0 1 0 .02Z" fill="#F5E052"/><path d="M7.3 11.07a1.03 1.03 0 0 1-.54-.28.07.07 0 0 1-.02-.03c-.04-.23-.02-.48.22-.6a.04.04 0 0 1 .04 0c.15.08.3.14.44.2.16.05.33.04.5.08.02 0 .03.01.03.03l.05.21.08.52c.03.17.1.35.14.52.09.3-.55.23-.69.23-.2-.02-.42-.12-.35-.34a4.96 4.96 0 0 0 .1-.54Z" fill="#ECB0D3"/><path d="M12.88 10.62c.33 0 .58-.13.73-.39.03-.04.04-.03.04.01 0 .3.14.53.4.68.05.03.05.04-.01.04-.35 0-.54.17-.72.42-.02.02-.03.02-.03 0a.72.72 0 0 0-.42-.73c-.04-.02-.04-.03.01-.03Zm-9.78-.08c.22-.04.36-.12.43-.27.02-.05.04-.05.05 0 .01.17.1.29.26.38.05.02.04.03 0 .04-.2.02-.31.14-.4.3h-.01a.01.01 0 0 1-.01 0v-.01c-.01-.22-.15-.33-.32-.43v-.01Z" fill="#F5E052"/><path d="M8.76 10.72h.02a6.7 6.7 0 0 0 .77-.4c.05-.02.06-.01.04.02-.13.23-.3.42-.54.58-.16.11-.24.02-.28-.13-.01-.05-.03-.05-.05 0-.04.14-.1.27-.27.15a3.44 3.44 0 0 1-.34-.26c-.06-.05-.07-.14-.1-.21v-.01h.01l.01-.01h.01l.46.2c.06.02.17.04.24.08h.02Z" fill="#F7F1EA"/><path d="M8.36 10.45c.3 0 .58-.02.84-.07.1-.01.11 0 .02.06l-.35.2a.26.26 0 0 1-.23.01l-.42-.16c-.06-.02-.05-.03 0-.03h.14Z" fill="#F7F1EA"/><path d="M9.55 12a4.2 4.2 0 0 0 .67.02l.03.03.1.21v.04a1.2 1.2 0 0 1-.38.17c-.17.04-.33.1-.5.12-.3.04-.6.08-.92.14-.12.02-.36.04-.7.04-.02 0-.03-.01-.03-.03v-.2c0-.03.01-.04.04-.04l.5-.01c.1 0 .25-.05.26-.16a99.33 99.33 0 0 1 .05-.35c.2-.18.3-.34.4-.56.06-.12.16-.18.21-.3.05-.1.06-.21.12-.31l.14-.24c.02-.04.04-.04.04 0v.27c-.03.31-.1.64-.17.98-.02.1.04.18.14.19Z" fill="#E0CA42"/><path d="M8.82 10.98c.07.06.2.01.27-.03a2.04 2.04 0 0 0 .33-.29.02.02 0 0 1 0 .03.84.84 0 0 0-.15.35c-.04.14-.16.21-.23.34-.06.1-.1.21-.16.3s-.13.17-.22.24l-.02.01H8.6l-.28-.14a25 25 0 0 0-.15-.5c-.05-.17-.07-.35-.1-.53 0-.04.01-.05.04-.02.08.08.18.15.28.22.15.1.26.08.34-.06v-.01h.01a.02.02 0 0 1 .01 0l.06.09Z" fill="#E0CA42"/><path d="M4.36 10.98c.04.31.2.52.5.64.04.02.04.03 0 .04-.3.04-.53.2-.66.48-.01.03-.02.03-.03 0a.77.77 0 0 0-.52-.64c-.05-.01-.05-.03 0-.03a.8.8 0 0 0 .69-.52h.01l.01.03Zm9.97.34c.06.16.17.27.33.33.04.02.04.03 0 .05a.5.5 0 0 0-.34.3c-.02.04-.04.04-.05 0a.5.5 0 0 0-.32-.33c-.05-.02-.05-.03 0-.05a.5.5 0 0 0 .34-.3c.02-.04.03-.04.04 0Z" fill="#F5E052"/><path d="M5.82 14c-.1.06-.18.08-.22.07-.2-.03-.2-.2-.13-.34a41.74 41.74 0 0 1 .33-.7l-.72.42c-.1.06-.2.05-.28-.02-.12-.1 0-.31.05-.41l.46-.9c.05-.1.16-.31.3-.3.2.01.2.19.13.31a40.15 40.15 0 0 1-.38.76l.68-.43c.1-.06.23-.13.33-.06.1.09.12.18.06.3l-.36.66c-.04.08-.03.1.06.04l.67-.42c.18-.11.4.02.3.23a.28.28 0 0 1-.11.1l-1.17.7Z" fill="#70BF45"/><path d="m8.28 11.86.02-.02h.03l.2.1.02.02a.02.02 0 0 1 0 .02l-.02.01a2.2 2.2 0 0 0-.35.12c-.13.05-.27 0-.37-.07-.04-.02-.04-.03 0-.04.18 0 .35 0 .47-.14Z" fill="#DB5348"/><path d="M13.44 11.99c.03.1.07.17.17.22.05.03.05.05 0 .06a.3.3 0 0 0-.22.16c-.02.04-.04.04-.05-.01a.3.3 0 0 0-.17-.2c-.05-.03-.04-.05 0-.06a.32.32 0 0 0 .24-.18.02.02 0 0 1 .02 0Z" fill="#F5E052"/><path d="M8.6 12.1c-.03.09.02.23-.07.3a.28.28 0 0 1-.14.04c-.22.02-.42.02-.63.01-.12 0-.24-.1-.23-.23a1.12 1.12 0 0 1 .03-.2.05.05 0 0 1 .04 0h.02l.26.11c.12.06.22.06.34.01a5.16 5.16 0 0 1 .37-.1v.06Z" fill="#DB5348"/><path d="M12.56 14.01c.03.1.01.18-.05.24-.17.14-.29.04-.41-.1a58.9 58.9 0 0 0-.79-.87c-.09-.1-.19-.24-.1-.37.08-.1.18-.14.3-.11l1.07.25c.05 0 .05 0 .02-.04l-.48-.51c-.11-.13-.1-.38.12-.39.09 0 .16.03.22.1.3.32.6.67.91 1.03.08.08.1.24 0 .33-.08.05-.16.06-.27.04l-1.07-.27c-.07-.01-.08 0-.03.05l.56.62Z" fill="#70BF45"/><path d="M9.38 12.74v.01s0 .01 0 0c.14 0 .31-.04.44 0h.02c.03-.08.11-.15.25-.22.04-.02.06 0 .05.04v.06a.25.25 0 0 1-.08.1l-.27.12a.37.37 0 0 1-.38-.04.79.79 0 0 1-.14-.15v-.01a.01.01 0 0 1 .01 0 2.3 2.3 0 0 0 .78-.17v.01l-.24.2a.05.05 0 0 1-.04.01 1.18 1.18 0 0 0-.4.04Zm-.31.16c-.11 0-.21.1-.3.17a.06.06 0 0 1-.04 0 1.4 1.4 0 0 0-.42 0c-.02 0-.04-.01-.04-.03l-.1-.21c0-.02 0-.03.03-.03a5.47 5.47 0 0 0 .84-.08l.05.16c0 .01 0 .02-.02.02Z" fill="#F7F1EA"/><path d="M8.79 13.1c.08-.07.17-.13.27-.18.02-.02.04-.01.04.02V13c0 .03 0 .05-.04.07-.19.09-.38.14-.59.14a.13.13 0 0 1-.11-.05l-.02-.02c-.02-.03-.01-.05.03-.06.12-.01.24 0 .37.03l.05-.01Z" fill="#F7F1EA"/><path d="m11.06 13.94.11.34c.04.12.06.2.04.26-.07.2-.3.2-.44.09l-.83-.6c-.04-.03-.05-.02-.04.02l.2.58c.06.16.04.36-.19.37a.19.19 0 0 1-.14-.04.39.39 0 0 1-.1-.18 37.67 37.67 0 0 0-.38-1.12c-.03-.1-.02-.18.02-.24.14-.17.33-.12.48 0a20.13 20.13 0 0 0 .8.52v-.02a7.85 7.85 0 0 1-.21-.6c-.04-.12 0-.25.14-.29.14-.03.23.02.28.15l.26.76Zm-2.07-.2-.78.5a.16.16 0 0 0-.07.08c-.04.13-.07.33-.17.42-.14.12-.37.05-.4-.12-.01-.1.05-.25.08-.35.05-.13 0-.24-.07-.36a5.83 5.83 0 0 0-.22-.47c-.03-.07-.05-.13-.04-.16.05-.24.38-.22.47-.02l.24.54c0 .03.02.03.04.02l.47-.3c.15-.1.3-.15.43-.04.08.07.08.16.02.26Z" fill="#70BF45"/></svg>