<!-- by TradingView --><svg width="18" height="18" viewBox="0 0 18 18" xmlns="http://www.w3.org/2000/svg"><path fill="url(#azhbmjx23)" d="M0 0h18v18H0z"/><path d="M14.84 7.98c.24.78.21 1.55-.1 2.3-.51 1.23-1.83 1.98-3.03 1.64-.85-.25-1.65-.73-2.42-1.18a.53.53 0 0 0-.56-.02c-.53.33-1.05.6-1.54.84-.33.16-.7.32-1.04.39-1.83.37-3.4-1.45-3.12-3.41.16-1.1.86-2.04 1.85-2.4a2.43 2.43 0 0 1 1.84.1c.68.27 1.34.63 1.97 1.01.19.11.4.14.58.02.51-.3 1.02-.59 1.53-.83A3.57 3.57 0 0 1 12.35 6c1.12.03 2.13.84 2.49 1.98Zm-1.2.02a1.6 1.6 0 0 0-1.25-.8c-.28-.02-.6.1-.87.21-.54.24-1.1.53-1.67.89-.38.23-.77.3-1.16.21a2.5 2.5 0 0 1-.74-.33 9.4 9.4 0 0 0-1.87-.91c-.7-.24-1.44.19-1.78.85-.35.69-.25 1.53.24 2.12.39.46 1.01.68 1.58.48.72-.24 1.41-.64 2.07-1.04.36-.21.74-.28 1.16-.19.15.03.4.15.72.34.6.36 1.25.72 1.9.92.3.09.62.06.95-.1.92-.44 1.3-1.71.71-2.65Z" fill="#fff"/><defs><linearGradient id="azhbmjx23" x1="3.35" y1="3.12" x2="21.9" y2="24.43" gradientUnits="userSpaceOnUse"><stop stop-color="#1A1E21"/><stop offset="1" stop-color="#06060A"/></linearGradient></defs></svg>