<!-- by TradingView --><svg width="18" height="18" viewBox="0 0 18 18" xmlns="http://www.w3.org/2000/svg"><path fill="#F0F3FA" d="M0 0h18v18H0z"/><path fill-rule="evenodd" d="M13.77 7.51A5.02 5.02 0 0 0 9.17 4h-.33A5.02 5.02 0 0 0 4 8.8v.4A5.02 5.02 0 0 0 8.86 14h.32a4.97 4.97 0 0 0 4.69-3.87c.2-.83.17-1.77-.1-2.62Zm-5.17.93a5463.3 5463.3 0 0 1-3.15 3.05 4.28 4.28 0 0 1 .65-5.76 4.47 4.47 0 0 1 2.58-1.09V8.2c0 .12 0 .16-.08.24Zm3.92 3.05L9.4 8.44c-.09-.08-.09-.12-.09-.24v-.02a2171.8 2171.8 0 0 0 .03-3.55 4.48 4.48 0 0 1 3.7 2.67 4.28 4.28 0 0 1-.52 4.2Zm-3.18 1.88a4.68 4.68 0 0 0 2.78-1.26v-.05L9.32 9.32a.01.01 0 0 0-.02 0v4.03a.03.03 0 0 0 .02.02h.01Zm-3.42-1.23a.23.23 0 0 1-.04-.03v-.05l2.79-2.74a.01.01 0 0 1 .02 0v4.03a.03.03 0 0 1-.02.02h-.01a4.68 4.68 0 0 1-2.74-1.23Z" fill="url(#a)"/><defs><linearGradient id="a" x1="3.79" y1="9" x2="13.73" y2="9" gradientUnits="userSpaceOnUse"><stop stop-color="#06FCFA"/><stop offset="1" stop-color="#06FE0D"/></linearGradient></defs></svg>