<!-- by TradingView --><svg width="18" height="18" viewBox="0 0 18 18" xmlns="http://www.w3.org/2000/svg"><path fill="url(#a)" d="M0 0h18v18H0z"/><path fill-rule="evenodd" d="M11 10.82 8.85 7 6.6 11H15V7h-4v3.82Zm-.63-.28L8.85 7.92l-1.52 2.62h3.04ZM5 11a2 2 0 1 0 0-4 2 2 0 0 0 0 4Zm0-.46a1.54 1.54 0 1 0 0-3.08 1.54 1.54 0 0 0 0 3.08Zm6.46-3.08h3.08v3.08h-3.08V7.46Z" fill="#FE1B7A"/><defs><linearGradient id="a" x1="3.35" y1="3.12" x2="21.9" y2="24.43" gradientUnits="userSpaceOnUse"><stop stop-color="#1A1E21"/><stop offset="1" stop-color="#06060A"/></linearGradient></defs></svg>