<!-- by TradingView --><svg width="18" height="18" viewBox="0 0 18 18" xmlns="http://www.w3.org/2000/svg"><path fill="#F0F3FA" d="M0 0h18v18H0z"/><path fill-rule="evenodd" d="M13.5 7.67A5.02 5.02 0 0 0 9 5a5.02 5.02 0 0 0-4.5 2.67c-.45.89-.6 1.82-.44 2.8.02.07.08.09.14.1h.02a22.78 22.78 0 0 0 1.11.31l.01.03c-.02.47-.08.98-.55 1.26a.03.03 0 0 0-.02.03v.02a4.67 4.67 0 0 0 .84.91l.05-.01c.67-.45.93-1.2.97-1.98 0-.02.02-.03.04-.03l.29.06c.02 0 .04.01.04.03v2.76c0 .03 0 .04.02.04h1.4c.03 0 .05-.02.05-.05V11.3a.02.02 0 0 1 .01-.02h.02a11.44 11.44 0 0 0 .99.02v2.65l.01.04.04.01h1.42c.03 0 .04-.01.04-.04V11.2c0-.02 0-.03.03-.03l.3-.06c.02 0 .03 0 .03.03.05.79.31 1.53.98 1.98a.09.09 0 0 0 .1 0 4.69 4.69 0 0 0 .78-.94c-.48-.29-.54-.8-.56-1.27v-.03l.03-.01 1.09-.29h.02c.06-.02.12-.04.13-.1.17-.98.02-1.92-.43-2.8ZM11.7 7.3A3.75 3.75 0 0 0 9 6.16a3.75 3.75 0 0 0-3.74 3.57l.02.02a15.11 15.11 0 0 0 7.44 0s.02 0 .02-.02l.01-.02a3.63 3.63 0 0 0-1.06-2.42Z" fill="#FF0D9F"/></svg>