<!-- by TradingView --><svg width="18" height="18" viewBox="0 0 18 18" xmlns="http://www.w3.org/2000/svg"><path fill="url(#a)" d="M0 0h18v18H0z"/><path d="M14.93 9.8c0-.4 0-.67-.02-.8-.04-.33-.25-.35-.55-.3-.25.03-.5.04-.74.04a.04.04 0 0 1-.04-.03l-.16-.43c0-.75-.21-1.45-.62-2.08a.16.16 0 0 1 0-.18c.36-.52.19-1.21-.37-1.52-.3-.16-.62-.2-.97-.1-.49-.28-1-.42-1.54-.43a7.02 7.02 0 0 0-3.05.77c-.44-.28-.85-.3-1.25-.06a1.25 1.25 0 0 0-.38 1.81v.05c-.41.73-.6 1.54-.5 2.36.01.1 0 .18-.02.26l-.1.29c-.26.98.13 1.95.96 2.52l.03.05a.14.14 0 0 1-.08.03 6.28 6.28 0 0 1-.65-.67A2.17 2.17 0 0 1 4.6 9.3c.08-.28.05-.57.04-.94 0-.23.05-.57.16-1.01.07-.29.36-.65.25-.98a1.7 1.7 0 0 1-.1-.67.15.15 0 0 0-.16-.16l-.65.04A5.96 5.96 0 0 1 8.2 3.1l.55-.08c.33-.05.58.02 1.03.08a5.93 5.93 0 0 1 5.06 4.71c.04.22.11.41.12.64 0 .45 0 .9-.03 1.35Z" fill="#D9B401"/><path d="M11.46 4.4c-.07.07.03.12.3.15 0 .03.03.07.06.1l-.07.03a.06.06 0 0 1-.06 0l-.66-.3c-.31-.14-.68-.2-1.09-.17a10.5 10.5 0 0 0-3.03.72c-.14.07-.28.1-.43.11l.17-.15a.46.46 0 0 0 .22-.15 7.02 7.02 0 0 1 3.05-.77c.54 0 1.05.15 1.54.42Z" fill="#291903"/><path d="M11.03 4.38c.18.19.38.36.58.52a2.3 2.3 0 0 1 .49.48.08.08 0 0 1 0 .09l-.2.35v.04l.03.01a.02.02 0 0 0 .02 0l.24-.32a.03.03 0 0 1 .04 0c.26.36.42.56.52.82.03.07.01.08-.06.05-.23-.13-.49-.22-.77-.26-.07-.01-.17-.08-.3-.2-.01-.02-.02-.02-.04 0-.16.14-.32.24-.48.3-.13.03-.15 0-.06-.1.2-.24.33-.53.37-.86l-.02-.02h-.01l-.02.03c-.21.5-.58.97-1.14 1.1-.17.04-.4.06-.7.05-.51-.02-1-.1-1.2-.59-.08-.2-.12-.38-.14-.54a6.65 6.65 0 0 0-.07-.4c-.13.34-.12.7-.1 1.05-.12-.28-.07-.53-.13-.78 0-.05 0-.08-.04-.1l-.05.01c-.26.3-.2.7-.12 1.04-.59-.09-1.05 0-1.39.28-.15.06-.24.14-.28.24l-.12.35c-.12.33-.37.48-.67.6a.06.06 0 0 1-.09-.05c0-.18.01-.34.07-.52l.21-.74c.22-.34.4-.6.53-.76.12-.13.3-.3.55-.5.15-.02.3-.05.43-.12l.35-.15c.87-.3 1.77-.5 2.68-.57.41-.03.78.03 1.09.17Z" fill="#140D05"/><path d="M13.42 8.28v.28c-.01.03 0 .06.02.08 1.07 1.3.31 3.03-1.15 3.56a14.2 14.2 0 0 0-.86.16.01.01 0 0 1-.02 0l-.06-.03c-.02 0-.04 0-.05.03a.43.43 0 0 1-.08.13l-.42.57a.04.04 0 0 1-.03.02.04.04 0 0 1-.03-.02l-.23-.3c-.04-.05-.07-.04-.06.03 0 .26-.17.54-.33.77a.1.1 0 0 0-.01.06c0 .22-.03.44-.08.67-.02.1-.01.3.03.55a.4.4 0 0 1-.12.02c-.04-.3-.05-.53-.02-.7.06-.31.1-.48 0-.73-.07-.2-.14-.4-.18-.63 0-.04-.02-.04-.05 0l-.29.37a.08.08 0 0 1-.11.02l-.9-.75c-.18.05-.36.08-.54.06-.02 0-.06 0-.13.03h-.08c-.35 0-.58-.01-.67-.04-.39-.12-.87-.22-1.3-.44-.03 0-.05 0-.06-.03a.12.12 0 0 0-.03-.05 2.29 2.29 0 0 1-.86-2.81.55.55 0 0 0 .02-.26c-.1-.82.09-1.63.5-2.36a.04.04 0 0 0 0-.05c-.45-.6-.25-1.44.38-1.81.4-.24.81-.22 1.25.06a.46.46 0 0 1-.22.15c-.3-.18-.57-.2-.85-.05-.23.13-.4.3-.49.53-.13.32-.1.64.1.94l-.22.74a1.51 1.51 0 0 0-.06.55.06.06 0 0 0 .08.03c.3-.13.55-.28.67-.6L6 6.66c.04-.1.13-.18.28-.24a.92.92 0 0 0-.17.4c0 .26-.18.51-.36.68-.02.02-.12.1-.29.21a.94.94 0 0 0-.41.79c0 .03 0 .03.03.01l.04-.02a.07.07 0 0 1 .05-.02c.06.01.09.04.1.1l-.03.06c-.2.26-.34.55-.43.87-.09.34-.1.68-.02 1.02.3 1.2 1.52 1.78 2.66 1.82a3.89 3.89 0 0 0 1.8-.37.03.03 0 0 0-.01-.03l-.04-.05a.05.05 0 0 1 0-.07c.03-.04.06-.06.1-.05a.1.1 0 0 1 .06.04c.13.19.32.31.58.37.48.1.89.02 1.23-.24.06-.05.14-.02.15.06v.03l-.02.05c-.02.03 0 .04.02.04a2.28 2.28 0 0 0 2.41-1.88 1.9 1.9 0 0 0-.23-1.21 1.78 1.78 0 0 0-.57-.56c-.06-.03-.1-.1-.05-.16a.08.08 0 0 1 .09-.03c.07.03.13.07.2.12a.03.03 0 0 0 .02.01.03.03 0 0 0 .02-.02 2.8 2.8 0 0 0-.49-1.85 2.14 2.14 0 0 1-.2-.1 1.5 1.5 0 0 0-.84-.18 6.4 6.4 0 0 0-1.23.32 7.6 7.6 0 0 1-1.37.02 1.54 1.54 0 0 1-.5-.09c-.3-.17-.6-.3-.9-.37-.08-.35-.15-.74.11-1.04.02-.01.03-.02.05 0 .03.01.04.04.04.1a.92.92 0 0 0-.05.67c.03.09.07.15.12.19.02.01.04.02.06.01.03 0 .03-.02.02-.04l-.02-.06c-.02-.36-.03-.71.1-1.06.01-.02.02-.02.03 0l.04.41c.02.16.06.34.14.54.2.5.69.57 1.2.59.3.01.53 0 .7-.05.56-.13.93-.6 1.14-1.1l.02-.02h.01l.02.01a1.5 1.5 0 0 1-.37.86c-.1.1-.07.13.06.1.16-.06.32-.16.48-.3.02-.02.03-.02.05 0 .12.12.22.19.29.2.28.04.54.13.77.26.07.03.09.02.06-.05-.1-.26-.26-.46-.51-.82a.03.03 0 0 0-.03-.01.03.03 0 0 0-.02.01l-.24.32h-.04c-.02-.02-.02-.03-.01-.05l.2-.35a.08.08 0 0 0 0-.1l-.22-.25a2.29 2.29 0 0 0-.27-.22c-.2-.16-.4-.33-.58-.52l.66.3h.06l.07-.03a2.66 2.66 0 0 1 .82 1.14.02.02 0 0 0 .02 0 .1.1 0 0 0 .04-.05c.23-.66-.28-1.2-.94-1.19-.27-.03-.37-.08-.3-.16.35-.09.67-.05.97.11.56.3.73 1 .37 1.52a.16.16 0 0 0 0 .18c.4.63.61 1.33.62 2.08Z" fill="#040202"/><path d="m8 5.98.03.06c.01.02 0 .03-.02.04l-.06-.01c-.05-.04-.1-.1-.12-.2a.92.92 0 0 1 .05-.67c.06.25 0 .5.13.78Z" fill="#291903"/><path d="M5.53 12.05c-.32.3-.61.62-.87 1a5.92 5.92 0 0 1-1.45-2.8c-.07-.32-.12-.6-.15-.87.11-.65.29-1.24.54-1.77a.22.22 0 0 0 0-.19 2.14 2.14 0 0 0-.2-.35 5.7 5.7 0 0 1 .74-1.5l.65-.03a.15.15 0 0 1 .15.16c-.01.19.02.41.1.67.12.33-.17.69-.24.98-.11.44-.16.78-.16 1.01.01.37.04.66-.04.94a2.17 2.17 0 0 0 .28 2.08c.08.12.3.34.65.67Z" fill="#C1A001"/><path d="M7.68 6.15c.3.07.6.2.9.37.06.04.23.07.5.1.45.03.9.02 1.37-.03-.2.09-.43.11-.7.09a4.06 4.06 0 0 0-.44.03l.01.02.02.01.99-.01h.02c.59.35 1.43.75 2.03.16l.34-.34a2.8 2.8 0 0 1 .48 1.86.03.03 0 0 1-.03.01.45.45 0 0 0-.2-.13.08.08 0 0 0-.09.03c-.05.07-.01.13.05.16.23.15.42.33.57.56.04.2.05.4.03.58-.08.59-.65.82-1.17.64-.1-.03-.23-.1-.36-.23-.33-.28-.48-.49-.87-.94a.06.06 0 0 0-.1.02.94.94 0 0 1-.04.13c-.07.14 0 .31-.12.44-.07.07-.12.2-.21.25-.17.08-.33.1-.47.03-.29-.14-.38-.37-.44-.67-.02-.1-.02-.17.01-.2a.02.02 0 0 0-.02-.04 29.34 29.34 0 0 1-.89.9 3.37 3.37 0 0 1-3.46.8 2.35 2.35 0 0 1-.12-1.9.06.06 0 0 0-.03-.04l-.02-.01c-.02 0-.03.02-.05.05a4.25 4.25 0 0 0-.27.64c-.05.08-.08.09-.09.02.1-.32.24-.61.43-.87a.08.08 0 0 0 .02-.06c0-.06-.03-.09-.09-.1-.02 0-.04 0-.05.02l-.04.02c-.02.02-.04.02-.03-.01.01-.35.15-.61.41-.79l.3-.2c.17-.18.34-.43.35-.69 0-.09.06-.22.17-.4.34-.28.8-.37 1.4-.28Z" fill="#FED952"/><path d="m12.72 6.55-.34.34c-.6.59-1.44.2-2.03-.15l-.02-.01-.99.01-.02-.01V6.7a4.05 4.05 0 0 1 .44-.02c.26.02.5 0 .69-.09.49-.17.9-.28 1.23-.32.24-.03.6.04.85.18l.2.1Z" fill="#FFF69A"/><path d="M3.06 9.38c-.05-.78.06-1.55.34-2.31l.2.35c.02.07.02.13 0 .2a6.76 6.76 0 0 0-.54 1.76Z" fill="#ECC402"/><path d="M12.07 8.89c-.04.05-.1.1-.16.13a.53.53 0 0 1-.2.05.66.66 0 0 1-.66-.52.53.53 0 0 1 0-.21.47.47 0 0 1 .26-.32.53.53 0 0 1 .2-.05.66.66 0 0 1 .66.52v.21a.47.47 0 0 1-.1.19ZM9.28 8.22c.07.11.1.26.07.4a.64.64 0 0 1-.67.46.52.52 0 0 1-.2-.06.47.47 0 0 1-.15-.14.5.5 0 0 1-.07-.4.64.64 0 0 1 .67-.46c.07 0 .14.03.2.06.06.04.1.08.15.14Z" fill="#040202"/><path d="m14.93 9.8-.16.63a5.9 5.9 0 0 1-1.51 2.73 3.38 3.38 0 0 0-.97-.96c1.46-.53 2.22-2.26 1.15-3.56a.13.13 0 0 1-.03-.08l.01-.28.16.43c0 .02.02.03.04.03.25 0 .5-.01.74-.05.3-.04.5-.02.55.32.02.12.03.39.02.79Z" fill="#ECC402"/><path d="M11.65 8.5c-.07 0-.1.05-.13.06-.1.04-.11.01-.06-.07.04-.05.1-.08.18-.09.09 0 .15.02.2.07.06.07.05.1-.05.07-.04 0-.07-.05-.14-.05ZM8.82 8.4c.08 0 .15.03.19.08.06.07.05.1-.05.07-.03 0-.07-.05-.14-.05-.06 0-.1.05-.13.06-.1.04-.11.01-.06-.07.04-.05.1-.08.19-.08Z" fill="#fff"/><path d="M10.55 8.53a.07.07 0 0 1 .07.07.3.3 0 0 1-.01.1.26.26 0 0 1-.05.09.21.21 0 0 1-.06.05.17.17 0 0 1-.08.02h-.02a.19.19 0 0 1-.15-.07.28.28 0 0 1-.06-.18V8.6a.07.07 0 0 1 .07-.07h.3ZM10.72 9.35c0 .07.01.13.06.18.05.04.04.06-.02.07l-.7.04a.04.04 0 0 1-.03-.03V9.6c.05-.18 0-.3-.13-.34-.04-.01-.05-.04-.05-.08v-.02c.01-.03.03-.04.06-.02.1.04.14.08.22.07a.26.26 0 0 0 .22-.19c0-.03.02-.04.03-.05h.04l.03.01v.03c.01.1.07.17.18.18.08 0 .15-.06.24-.12.02-.02.03-.02.05 0l.02.03a.04.04 0 0 1 0 .06l-.2.15a.05.05 0 0 0-.02.04Z" fill="#040202"/><path d="M13.5 9.04c.21.4.29.8.23 1.21-.06.38-.22.73-.5 1.06-.45.57-1.1.84-1.9.82-.04 0-.05-.01-.03-.04l.02-.05V12c0-.08-.09-.1-.15-.06-.34.26-.75.34-1.23.24a.9.9 0 0 1-.58-.37.1.1 0 0 0-.05-.04c-.05-.01-.08 0-.11.05a.05.05 0 0 0 0 .07l.04.05a.03.03 0 0 1-.01.05c-.57.26-1.16.37-1.78.35-1.14-.04-2.36-.62-2.66-1.82l.13.02c.08.42.29.76.62 1.04a2.85 2.85 0 0 0 1.61.63l.02-.02c.01-.02 0-.03-.02-.04a2.7 2.7 0 0 1-1.76-1.38v-.03c.02.01.04.03.07.03.2.05.35.1.49.12a3.37 3.37 0 0 0 2.9-.96c.1-.08.37-.37.84-.87 0-.01.02-.02.05-.02a.02.02 0 0 1 .02.02v.01c-.03.04-.03.1-.01.2.06.3.15.54.44.68.14.06.3.05.47-.03.1-.05.14-.17.2-.25.12-.13.06-.3.13-.44l.05-.13a.05.05 0 0 1 .1-.02c.38.45.53.66.86.94.13.12.25.2.36.24.52.17 1.1-.06 1.17-.65a1.7 1.7 0 0 0-.03-.58Z" fill="#DAB644"/><path d="m10.6 9.41-.42.02a.03.03 0 0 0-.02.03v.04c0 .02.01.03.03.03l.41-.02c.02 0 .03-.01.03-.03v-.04a.03.03 0 0 0-.03-.03Z" fill="#DAB644"/><path d="M10.58 9.76h-.33a.06.06 0 1 0 0 .12h.33c.03 0 .06-.03.06-.06a.06.06 0 0 0-.06-.06Z" fill="#040202"/><path d="m4.92 10.55.47.23a2.7 2.7 0 0 0 1.76 1.38c.03 0 .03.02.02.04l-.02.02h-.01a2.85 2.85 0 0 1-1.6-.63 1.7 1.7 0 0 1-.62-1.04Z" fill="#CC9C31"/><path d="M5.61 12.02c.01.02.03.03.06.03l-.9 1.11-.11-.12c.26-.37.55-.7.87-.99.03 0 .06-.01.08-.03Z" fill="#19166B"/><path d="m7.64 12.52-.3.53a.1.1 0 0 0 .04.13l.46.22a.04.04 0 0 1 .02.03.04.04 0 0 1-.01.03l-.2.2a.08.08 0 0 0 0 .1l.8 1.15a5.95 5.95 0 0 1-3.68-1.75l.9-1.1c.43.21.91.3 1.3.43.1.03.32.04.67.03Z" fill="#030130"/><path d="m9.85 12.39-.5.66h-.03l-.72-.6a.03.03 0 0 1 0-.04.03.03 0 0 1 .02-.02 2.99 2.99 0 0 0 .76-.25l.02.01a1.46 1.46 0 0 0 .45.2.02.02 0 0 1 0 .03Z" fill="#fff"/><path d="M12.3 12.2c.37.22.68.58.96.96-.54.56-1.2 1-1.95 1.31l.62-1.07a.08.08 0 0 0-.02-.1l-.18-.14a.04.04 0 0 1 0-.04v-.02l.32-.2a.09.09 0 0 0 .02-.13l-.3-.45a.02.02 0 0 0-.02-.01.02.02 0 0 0-.02 0l-.02.04a.04.04 0 0 0 0 .05l.24.37.01.01v.04l-.02.01-.38.26a.05.05 0 0 0-.03.04l.01.02.01.02.23.17c.02.02.03.04.01.07l-.65 1.13-.88.26.98-2.28v-.02l-.02-.01a.43.43 0 0 0 .08-.13c.01-.02.03-.03.05-.03l.06.03a.01.01 0 0 0 .01 0h.01c0-.02.01-.02.03-.03.22-.04.5-.09.83-.13Z" fill="#030130"/><path d="m10.7 12.39.35-.12c.03-.01.07 0 .12.03.02.01.03.03.01.05l-.4.53a.02.02 0 0 1-.02 0 .02.02 0 0 1-.02 0l-.32-.43c-.02-.01-.01-.02 0-.03l.27-.03Z" fill="#fff"/><path d="m11.31 14.47-.17.07.65-1.13c.02-.03.01-.05-.01-.07l-.23-.17-.01-.02a.05.05 0 0 1 0-.04l.02-.02.38-.26.01-.01a.05.05 0 0 0 0-.05l-.24-.37a.04.04 0 0 1 0-.05l.02-.03h.01a.02.02 0 0 1 .02 0h.01l.3.45a.09.09 0 0 1-.02.12l-.32.21a.04.04 0 0 0 0 .06l.18.14a.08.08 0 0 1 .02.1l-.62 1.07Z" fill="#19166B"/><path d="m9.83 12.61.14-.18a.06.06 0 0 1 .05-.02c.17 0 .31 0 .32.22 0 .26-.08.51-.25.76-.03.04-.05.04-.07-.01l-.2-.7a.07.07 0 0 1 .01-.07Z" fill="#FED952"/><path d="m8.38 12.44.6 1.8c.08.24.18.47.31.69l-.68-.01-.84-1.17v-.05l.25-.24a.07.07 0 0 0-.02-.12l-.53-.24a.03.03 0 0 1-.01-.02.04.04 0 0 1 0-.03l.26-.43a.1.1 0 0 0 0-.1l.13-.02c.18.02.36 0 .53-.06Z" fill="#030130"/><path d="m9.94 14.86-.65.07a3.57 3.57 0 0 1-.31-.7l-.6-1.8.9.76a.08.08 0 0 0 .1 0s.02 0 .02-.02l.3-.38c.02-.03.03-.03.04.01.04.23.1.44.19.63.1.25.05.42 0 .73-.04.17-.03.4 0 .7ZM11.22 12.49l.01.01v.02l-.97 2.28-.2.04a1.65 1.65 0 0 1-.03-.55c.05-.23.08-.46.08-.67l.01-.06c.16-.23.33-.52.33-.77 0-.08.02-.08.06-.03l.23.3a.04.04 0 0 0 .03.02.04.04 0 0 0 .03-.02l.42-.57Z" fill="#fff"/><path d="M7.72 12.53a.1.1 0 0 1 0 .09 21.75 21.75 0 0 1-.26.47l.01.01.53.24a.07.07 0 0 1 .03.1l-.01.02-.24.24c-.02.02-.02.03 0 .05l.83 1.17h-.16l-.8-1.16a.08.08 0 0 1 0-.1l.2-.2a.04.04 0 0 0 0-.03.04.04 0 0 0-.01-.03l-.46-.22a.1.1 0 0 1-.05-.13l.31-.53h.08Z" fill="#19166B"/><path fill-rule="evenodd" d="M9 14.82A5.82 5.82 0 1 0 9 3.18a5.82 5.82 0 0 0 0 11.64ZM9 15A6 6 0 1 0 9 3a6 6 0 0 0 0 12Z" fill="#140D05"/><defs><linearGradient id="a" x1="9" y1="0" x2="9" y2="18" gradientUnits="userSpaceOnUse"><stop stop-color="#D9B401"/><stop offset="1" stop-color="#ECC402"/></linearGradient></defs></svg>