<!-- by TradingView --><svg width="18" height="18" viewBox="0 0 18 18" xmlns="http://www.w3.org/2000/svg"><path fill="url(#achjqbzpt)" d="M0 0h18v18H0z"/><path d="M9.54 7.8v2.66h-.36V7.8h.36Z" fill="#ADE465"/><path d="m9.54 12.03-2.18 1.4L9.18 15l2.18-1.4-1.82-1.57Z" fill="#E99EC9"/><path fill-rule="evenodd" d="M7.36 13.44 9.18 15l2.18-1.4-1.82-1.57-2.18 1.4Zm.28.01 1.55 1.34 1.89-1.21-1.56-1.35-1.88 1.22Z" fill="#131112"/><path d="M9.54 12.03v-1.88l1.82 1.56v1.88l-1.82-1.56Z" fill="#DD9209"/><path fill-rule="evenodd" d="m9.72 11.96 1.45 1.25v-1.43l-1.45-1.25v1.43Zm-.18-1.8v1.87l1.82 1.56v-1.88l-1.82-1.56Z" fill="#131112"/><path d="m9.54 10.15-2.18 1.4v1.89l2.18-1.41v-1.88Z" fill="#F1DA4E"/><path fill-rule="evenodd" d="M7.54 11.64v1.48l1.82-1.17v-1.49l-1.82 1.18Zm-.18-.08v1.88l2.18-1.41v-1.88l-2.18 1.4Z" fill="#131112"/><path d="M9.36 3.27c-.3 0-.85.52-1.1.78-.56-.36-1.8-.31-2.17.63-.3.75.48 1.87.9 2.34.88-.5 1.94-2.71 2.37-3.75Z" fill="#CFE16B"/><path d="M9.48 5.35a2.74 2.74 0 0 0-.42-.81l-.28.2a2.61 2.61 0 0 1 .48 1.47 2.8 2.8 0 0 0-1-.6l-.17.32c.44.13 1.09.46 1.17.9a5.2 5.2 0 0 1-.08.64l.36.05a5.48 5.48 0 0 0 .07-1.55c.18-.52.49-1.36 1.1-1.62l-.16-.28c-.18.07-.34.2-.47.35-.25.27-.45.61-.6.93Z" fill="#DEE385"/><path d="M14 4.25c-1.45.25-2.28-.3-3.37.11h-.36c0-.2.21-.75 1.09-1.25.87-.5.32.84 2.64 1.14Z" fill="#DEE385"/><path d="M11.17 3.11c-.43.13-.78.68-.9.94a.66.66 0 0 1 0-.63c.14-.25.66-.3.9-.3Z" fill="#AFD739"/><path d="M12.26 5.14c-.36 0-.72-.46-.9-.46-.15 0-.54.2-.72.3.37.47 2.71.63 2.71.48 0-.16-.72-.32-1.09-.32Z" fill="url(#bchjqbzpt)"/><path d="M9.9 5.14c-.14.13-.18.58-.18.79C9.9 5.46 11 5.3 11 5.14 11 5 10.45 5 10.27 5c-.19 0-.19 0-.37.15Z" fill="url(#cchjqbzpt)"/><path d="M8.63 7.5c0 .24.24.2.37.15.06 0 .21-.03.36-.16.14-.12-.18-.68-.36-.94-.13.21-.37.7-.37.94Z" fill="#D1E769"/><path d="M10.08 5.61c-.29.13-.48.68-.54.94.36-.2 1.09-.65 1.09-.78 0-.16-.18-.31-.55-.16ZM8.81 5.46c0 .5.25.73.37.78h.18c.06-.1.14-.34 0-.47a2.56 2.56 0 0 0-.55-.31Z" fill="#ABC754"/><path d="M6.09 5.61c-.3 0-.85.1-1.09.16.15-.12.67-.26.9-.31l.19.15Z" fill="#DEE385"/><path d="M9 7.8c0-.12.24-.15.36-.15h.36a.9.9 0 0 1 .55-.16c.29 0 .36.63.36.94-.18-.47-1.09-.47-1.27-.47-.18 0-.36 0-.36-.16Z" fill="#ADE465"/><path d="m9.36 3.58-.18 1.25h-.55l.73-1.25Z" fill="url(#dchjqbzpt)"/><defs><linearGradient id="achjqbzpt" x1="3.35" y1="3.12" x2="21.9" y2="24.43" gradientUnits="userSpaceOnUse"><stop stop-color="#1A1E21"/><stop offset="1" stop-color="#06060A"/></linearGradient><linearGradient id="bchjqbzpt" x1="11.17" y1="4.68" x2="13.47" y2="5.49" gradientUnits="userSpaceOnUse"><stop stop-color="#E1EB78"/><stop offset="1" stop-color="#A8BA65"/></linearGradient><linearGradient id="cchjqbzpt" x1="10.63" y1="4.99" x2="9.85" y2="5.89" gradientUnits="userSpaceOnUse"><stop stop-color="#91C443"/><stop offset=".43" stop-color="#E3F07A"/><stop offset="1" stop-color="#95C756"/></linearGradient><linearGradient id="dchjqbzpt" x1="9" y1="3.58" x2="9" y2="4.83" gradientUnits="userSpaceOnUse"><stop stop-color="#679646"/><stop offset="1" stop-color="#DEE385"/></linearGradient></defs></svg>