<!-- by TradingView --><svg width="18" height="18" viewBox="0 0 18 18" xmlns="http://www.w3.org/2000/svg"><path fill="#F0F3FA" d="M0 0h18v18H0z"/><path fill-rule="evenodd" d="m13.8 5.05-4.58-2c-.15-.07-.32-.06-.52.03-.9.4-2.34 1.04-4.34 1.9-.02 0-.04 0-.05.02-.15.06-.26.1-.3.3v.4L4 12.63c0 .15.07.26.2.31l4.52 1.98c.22.1.37.09.59-.02a202.2 202.2 0 0 1 4.32-1.88c.22-.09.37-.15.37-.4V5.36a.33.33 0 0 0-.2-.32Zm-4.65.3c.51-.52 1.33-.62 1.89-.15.21.18.38.42.52.72l.03.02h.03l1.38-.6h.01a.02.02 0 0 0 0-.03V5.3a829.88 829.88 0 0 1-3.69-1.62c-.25-.11-.4-.1-.65 0l-3.65 1.6c-.06.02-.06.04 0 .06l3.61 1.58a.03.03 0 0 0 .03 0l.01-.01v-.02l.02-.2c.04-.52.07-.94.46-1.34Zm1.8.89-1.62.7a.03.03 0 0 1-.03 0l-.01-.02V6.9c0-.19.02-.36.04-.53.13-.96 1.28-1.06 1.64-.2a.06.06 0 0 1 0 .04v.02h-.02Zm-6.42.29.4-.28h.01l.45-.11.01-.02V6.1h-.01l-.86-.36a.02.02 0 0 0-.02 0v.79a.02.02 0 0 0 .02 0Zm8.8 1.43v.97c0 .5-.15.82-.55.96-.46.16-.98-.13-1.1-.66l-.01-.63v-2c0-.06.01-.12.08-.14l1.7-.74a.03.03 0 0 1 .04 0l.01.02v1.58c0 .14-.04.25-.1.37l-.02.05a.51.51 0 0 0-.05.2ZM6.61 6.7c.23.32.39.65.39 1.07v3.67c0 .33.1.59.3.77.45.39 1.1.22 1.3-.38.05-.15.07-.33.07-.56V7.65c0-.08-.03-.13-.1-.16l-1.92-.84c-.09-.03-.1-.01-.04.06Zm2.72 5.08v-4.1c0-.1.01-.16.09-.2l1.56-.68.02.03V8.5c-.02.91.13 1.63.94 2a1.38 1.38 0 0 0 1.54-.26l.02.01v2.15c0 .03 0 .06-.02.09a.15.15 0 0 1-.07.05l-4.08 1.8V11.8Zm-4.66-3.9v1.08c0 .1-.05.17-.09.24a.43.43 0 0 0-.09.23v2.93c0 .09.04.15.12.18l4.01 1.78h.03l.01-.02v-1.53a.02.02 0 0 0-.03 0 1.3 1.3 0 0 1-1.72-.04 1.68 1.68 0 0 1-.58-1.3v-3.6c0-1.33-1.67-1.34-1.66.05Z"/></svg>