<!-- by TradingView --><svg width="18" height="18" viewBox="0 0 18 18" xmlns="http://www.w3.org/2000/svg"><path fill="url(#avqpi1l3z)" d="M0 0h18v18H0z"/><path fill-rule="evenodd" d="M9 3a4.9 4.9 0 0 0-5 4.8v.25c0 .25.21.45.48.45.26 0 .47-.2.47-.45V7.8C4.95 5.66 6.77 4 9 4c2.23 0 4.05 1.66 4.05 3.8v.25c0 .25.21.45.47.45.27 0 .48-.2.48-.45V7.8A4.9 4.9 0 0 0 9 3ZM4.95 9.98a.47.47 0 0 0-.47-.46c-.27 0-.48.2-.48.46v.22A4.9 4.9 0 0 0 9 15c2.76 0 5-2.15 5-4.8v-.22a.47.47 0 0 0-.48-.46c-.26 0-.47.2-.47.46v.22c0 2.14-1.82 3.8-4.05 3.8-2.23 0-4.05-1.66-4.05-3.8v-.22Zm4.4-1.83v1.7c0 .21-.1.39-.3.39-.22 0-.33-.18-.33-.39v-1.7c0-.21.1-.39.32-.39.21 0 .32.18.32.39Zm-1.58 0c0-.7.57-1.26 1.27-1.26.7 0 1.27.56 1.27 1.26v1.7c0 .7-.57 1.26-1.27 1.26-.7 0-1.27-.56-1.27-1.26v-1.7Zm4.51.85c0 .35-.29.63-.64.63A.64.64 0 0 1 11 9c0-.35.29-.63.64-.63.35 0 .64.28.64.63ZM6 7.94A2.99 2.99 0 0 1 9.03 5c1.4 0 2.6.94 2.93 2.2.07.25-.15.48-.41.48-.24 0-.42-.17-.5-.38C10.78 6.47 9.97 6 9.03 6 7.85 6 7 6.8 7 7.94v2.12C7 11.2 7.85 12 9.03 12c.97 0 1.8-.51 2.05-1.38.06-.22.26-.4.5-.4.25 0 .46.21.41.46A3.01 3.01 0 0 1 9.03 13 2.99 2.99 0 0 1 6 10.06V7.94Z"/><defs><linearGradient id="avqpi1l3z" x1="14.65" y1="2.64" x2="3" y2="15.54" gradientUnits="userSpaceOnUse"><stop stop-color="#52EE6B"/><stop offset=".52" stop-color="#A4FE49"/><stop offset="1" stop-color="#15E382"/></linearGradient></defs></svg>