<!-- by TradingView --><svg width="18" height="18" viewBox="0 0 18 18" xmlns="http://www.w3.org/2000/svg"><path fill="#F0F3FA" d="M0 0h18v18H0z"/><path d="m12.39 11.6.2-.08c.04-.01.08 0 .12.02.13.1.27.24.44.4.04.04.08.07.12.08.06 0 .1.05.18.07.17.04.33.1.48.18.1.06.1.1-.02.14-.1.03-.17.08-.27.1-.19 0-.4.11-.56.16a6 6 0 0 0-.55.17c-.12.04-.27.04-.37.05-.17.03-.34.04-.5.1a534.05 534.05 0 0 0-1.18.44 6.23 6.23 0 0 0-.79.3l-.32.08c-.23.04-.59.12-.88.14h-1l-.27.03c-.1.02-.31.05-.38-.05a3.99 3.99 0 0 1 0-.45c.01-.17.08-.35.2-.54.05-.1.1-.28.17-.33a.9.9 0 0 0 .23-.24v-.04a.47.47 0 0 1-.07-.18c-.01-.1-.04-.1-.08-.02-.04.1-.12.13-.24.13-.1 0-.22.16-.28.23a.05.05 0 0 1-.03.02.26.26 0 0 0-.1.03.38.38 0 0 1-.25.02.05.05 0 0 0-.04 0 .15.15 0 0 1-.1.03c-.14-.02-.24 0-.34-.06a1.32 1.32 0 0 1-.31-.17c-.15-.15-.35-.4-.32-.64a5.15 5.15 0 0 1 .08-.58.37.37 0 0 1-.04-.2c0-.08.06-.13.09-.2.04-.13.1-.26.2-.4v-.04c0-.08.03-.17.1-.25v-.01l-.17-.2a.1.1 0 0 0-.05-.03.34.34 0 0 1-.26-.21v-.05c.02-.06.03-.08.03-.15a.24.24 0 0 1 .02-.14l.06-.07c.02-.01.01-.03 0-.03-.11-.02-.3-.1-.33-.22-.05-.18.12-.49.17-.65.1-.3.23-.58.35-.82a.04.04 0 0 0-.01-.05H5.5a.19.19 0 0 1-.14-.1c-.08-.1-.08-.2-.02-.29A.1.1 0 0 0 5.36 7c.02-.17.06-.31.13-.41.07-.1.11-.17.14-.24l.1-.29c.05-.17.14-.33.2-.44v-.04c-.1-.17.03-.33.12-.5.05-.1.1-.18.17-.22.13-.1.27-.18.43-.24a6.62 6.62 0 0 0 .46-.18l.7-.21c.17-.06.34-.1.5-.14L8.82 4c.6 0 1.05-.01 1.58.1.4.08.71.25.95.5.22.24.36.54.41.9.02.09.04.15.07.2.05.05.13.18.16.27.07.2.17.44.3.7a.2.2 0 0 1 .01.11l.01.27c.04.22.03.34.02.62a1 1 0 0 1-.14.44c-.08.14-.19.37-.34.5-.15.14-.3.29-.43.44a.6.6 0 0 0-.14.36 3.7 3.7 0 0 0 .07 1.01 8.6 8.6 0 0 1 .3.78l.39-.02c.05-.01.1 0 .15.02.03.02.06.06.08.12l.08.25c0 .02.02.03.04.02Z" fill="#030100"/><path d="M8.41 5.66c-.03.04-.02.07 0 .1.04.02.03.04 0 .06l-.03-.01-.02-.04v-.04c-.11-.04-.2-.08-.27-.13-.29-.18-.44-.28-.45-.3-.26-.16-.47-.42-.75-.54a.3.3 0 0 0-.26 0 .01.01 0 0 0 0 .01l.02.03.02.01c.12-.02.23 0 .32.07l.39.3c.21.2.42.3.68.48l.12.07a5.93 5.93 0 0 0 .14.05v.01c0 .01 0 .02-.02.01A2.32 2.32 0 0 0 8 5.75c-.07 0-.13-.05-.2-.06-.07-.02-.09.01-.04.08l.05.08c.03.06.01.07-.04.04L7 5.44l-.25-.19a1.16 1.16 0 0 0-.5-.22c-.02 0-.03 0-.04.02v.02l.01.03c.19.02.36.1.5.21l.2.14a8.52 8.52 0 0 0 .63.4v.02l-.01.02H7.5a7.18 7.18 0 0 0-.45-.09c-.23-.03-.35-.23-.55-.33a.62.62 0 0 0-.2-.09.85.85 0 0 1-.25-.04c-.01 0-.02 0-.03-.02l-.01-.02a.07.07 0 0 1 0-.06c.06-.07.1-.13.12-.18.06-.1.18-.2.25-.24.33-.18.67-.32 1.03-.4l.4-.12c.15-.06.31-.1.49-.14.34-.06.53-.08.55-.08h.72c.2 0 .4.03.57.1.28.11.57.25.87.42.03.01.06.04.09.09l.44.67c.03.04.06.12.11.16l.02.04v.04c-.03.05-.07.06-.12.04a1.31 1.31 0 0 0-.2-.07c-.04-.02-.07-.01-.07 0a.06.06 0 0 1-.04.05h-.07c-.15-.07-.3-.1-.46-.1-.01 0-.02 0-.03-.02a.11.11 0 0 0-.05-.07l-.76-.42-.39-.24a3.92 3.92 0 0 0-1.36-.44s-.02 0-.02.02v.02a.02.02 0 0 0 0 .02c.17.04.32.05.5.1.34.09.68.24 1.03.44l.93.55a.35.35 0 0 0 .1.04l.01.01v.01l-.02.07c0 .02-.02.03-.04.02a3.24 3.24 0 0 0-.3-.09c-.08-.01-.12 0-.14.07l-.02.01-.02.01h-.68c-.09 0-.15.03-.19.09a.05.05 0 0 1-.04.02l-.78-.1h-.01l-.02.02Z" fill="#E8D0A2"/><path d="M10.33 4.15c.39.07.86.28 1.08.64.12.2.22.4.28.59.03.09.02.1-.03.02l-.47-.7a.55.55 0 0 0-.18-.17 5.39 5.39 0 0 0-.72-.38h.04Z" fill="#E8D0A2"/><path d="M11.36 5.22c.05.1.12.18.22.3.01.02.02.04.01.06v.02h-.01a.01.01 0 0 1-.02 0 1.7 1.7 0 0 1-.36-.55.28.28 0 0 0-.15-.13c-.4-.17-.63-.28-.7-.34a2.93 2.93 0 0 0-.64-.39v-.01l.01-.01a.03.03 0 0 1 .02-.01h.01c.14.04.24.1.32.16a4 4 0 0 0 .98.53c.16.06.23.21.3.37ZM10.98 5.4c-.15-.07-.24-.07-.37-.2-.2-.22-.41-.4-.63-.54a.98.98 0 0 0-.27-.1c-.14-.04-.24-.11-.37-.13a1.23 1.23 0 0 1-.51-.2v-.01l.03-.03h.01c.13.05.25.11.38.15l.52.16c.14.05.27.12.39.21.2.15.32.25.35.29.16.18.2.23.4.3.12.04.2.1.27.2.05.07.03.09-.04.05-.05-.03-.1-.12-.16-.15ZM7.78 4.64a3.4 3.4 0 0 1-.31-.11l-.01-.04a.02.02 0 0 1 0-.01h.02c.1.03.15.07.23.08.25.04.5.17.75.28.22.1.57.2.78.33.2.14.28.2.47.24a7.82 7.82 0 0 1 .35.1l.01.03v.02a3.66 3.66 0 0 1-.49-.12.9.9 0 0 1-.27-.14c-.15-.1-.31-.2-.5-.25-.36-.1-.73-.33-1.03-.41ZM7.02 4.61c-.01 0-.02 0-.01-.02v-.01c0-.02 0-.02.02-.02.2.03.35.08.47.16l.35.26c.18.14.33.22.54.34a3.44 3.44 0 0 0 .73.31v.04c0 .02 0 .02-.02.02-.32-.1-.53-.18-.6-.23-.21-.13-.45-.24-.64-.4L7.5 4.8a1.52 1.52 0 0 0-.48-.18Z" fill="#030100"/><path d="M6.14 5.57a9.34 9.34 0 0 1 .44.34c-.14-.01-.27-.12-.43-.24-.07-.06-.1-.13-.18-.18a.03.03 0 0 1-.02-.03v-.02c0-.03.01-.03.03-.03.14.01.27.04.4.07.08.03.16.07.23.13l.35.32c.14.18.25.32.3.52l-.01.03h-.03a1.1 1.1 0 0 0-.31-.4 4.6 4.6 0 0 0-.63-.47c-.03-.01-.06-.06-.08-.08-.09-.06-.1-.04-.06.04ZM8.3 9.45c.04 0 .04-.02 0-.04-.04-.03-.08-.04-.11-.08a6.01 6.01 0 0 0-.3-.32 1.24 1.24 0 0 1-.11-.2.24.24 0 0 1-.03-.16.48.48 0 0 1 .07-.16v-.02a.04.04 0 0 1 .06.01c.14.16.3.3.49.42l.02-.01v-.05l-.31-.23c-.15-.13-.15-.26 0-.4a.04.04 0 0 1 .04 0h.02v.02c.09.15.17.3.34.35a89.93 89.93 0 0 1 .24.05l.01-.01v-.04a.7.7 0 0 0-.26-.06l-.04-.01a.2.2 0 0 1-.07-.1.1.1 0 0 0-.03-.04.44.44 0 0 1-.13-.2v-.05c.03-.12.05-.2.04-.22-.03-.12-.1-.36-.08-.48a.1.1 0 0 0 0-.05c-.06-.21-.07-.4-.16-.58-.12-.25-.22-.71 0-.94l.03-.01h.02l.43.05h.02l.01-.02a.04.04 0 0 0 0-.03l-.03-.1c0-.02 0-.03.02-.02.22.02.36.04.43.06.14.02.27.01.43.01.01 0 .02 0 .03-.02v-.04c0-.02.02-.03.04-.02h.81c.02 0 .03-.02.03-.05a.04.04 0 0 1 .01-.04h.03l.4.1c.06.02.08 0 .05-.07l-.02-.02c0-.02 0-.03.02-.03.12 0 .2 0 .22.02.1.05.21.08.32.08l.04-.01.01-.02a.04.04 0 0 1 .05-.01l.21.06c.02 0 .04 0 .05-.02l.02-.02c.01-.02.03-.02.04 0 .08.15.16.25.23.43l.22.5a.5.5 0 0 1 .05.22v.73c0 .23-.03.4-.14.58l-.14.23a.6.6 0 0 1-.16.2c-.08.07-.2.18-.35.35a.04.04 0 0 1-.04.01c-.26-.06-.43 0-.7.08a.77.77 0 0 1-.31.01.9.9 0 0 0-.26 0c-.16.04-.38.05-.68.04-.07 0-.1-.02-.12-.04-.04-.1-.08-.23-.02-.31.1-.16.25-.34.25-.52 0-.45.01-.75-.19-1.11-.08-.15-.2-.21-.34-.18-.13.02-.21.12-.33.16a.6.6 0 0 0-.36.27.05.05 0 0 0 0 .06l.32.43v.02h-.02a.51.51 0 0 1-.25-.2.35.35 0 0 0-.06-.07c-.02-.02-.04-.02-.05-.02-.03.02-.02.04 0 .07.12.11.18.2.32.28.04.01.06 0 .08-.02 0-.02.02-.02.03-.01.02 0 .03.02.03.05a3.19 3.19 0 0 0 .04.4h-.02a.7.7 0 0 1-.39-.43.02.02 0 0 0-.01 0l-.01.01-.01.02a.04.04 0 0 0 0 .05l.14.22c.03.06.13.13.29.2.01 0 .02.01.01.03 0 .14.01.25.06.34.03.06 0 .14.05.2l.1.16c.05.14.03.15-.06.04-.1-.13-.17-.3-.31-.4a.06.06 0 0 0-.04-.02h-.04v.03c.21.15.25.4.44.52.1.06.13.16.15.26v.02h-.03l-.2-.05a.03.03 0 0 0-.02 0l-.01.01v.05l.23.07c.02 0 .03.01.02.03l-.02.5c0 .01 0 .01 0 0a1.21 1.21 0 0 1-.09-.07.43.43 0 0 0-.33-.13c-.01 0-.02.01-.02.03v.02l.01.01c.18 0 .31.1.4.25.02.01.02.03.02.04l-.05.23c-.04.25-.25.25-.44.22h-.02v.02l-.01.02.01.02a.5.5 0 0 0 .35 0c-.01.14-.06.2-.17.27l-.27.18a.07.07 0 0 1-.04.02h-.3c-.02 0-.03 0-.02.02v.03l.02.01h.22c.03 0 .03.02.02.03-.04.06-.08.09-.13.1a.96.96 0 0 0-.43.19h-.03l-.2-.12h-.02v.01h-.01v.03l.13.12c.02.02.02.04 0 .05l-.34.2a.4.4 0 0 0-.1.12h-.01a.02.02 0 0 1-.03.01l-.1-.09h-.03v.06l.08.06v.05h-.02a.4.4 0 0 0-.22.03.03.03 0 0 1-.03-.01l-.1-.13a.04.04 0 0 0-.03-.01h-.02v.01a.02.02 0 0 0 0 .02l.12.16a.02.02 0 0 1 0 .03c-.06.06-.1.16-.21.18l-.18.02c-.17 0-.29.03-.35-.16v-.02l-.03-.01h-.02l-.02.02c-.01.03.01.07.07.13v.01a.03.03 0 0 1 0 .03H6.1c-.22.05-.35-.2-.4-.37l-.01-.02h-.02a.03.03 0 0 0-.03 0 .08.08 0 0 0-.02.04.05.05 0 0 0 .01.04l.09.13c0 .03 0 .04-.03.02a.84.84 0 0 1-.32-.4c-.06-.16-.03-.32-.01-.44 0-.09.03-.1.08-.02a1.49 1.49 0 0 0 .17.2.05.05 0 0 0 .06-.01.32.32 0 0 0 .06-.1l.01-.03a.05.05 0 0 1 .05-.01l.02.01c.03.04.07.04.12.01.01-.01.02 0 .03.02 0 .07.02.13.03.18 0 .07.03.12.05.13.07.05.08.03.05-.04a.86.86 0 0 1-.05-.23.16.16 0 0 0-.03-.07l.01-.05c.13-.1.32-.4.37-.59a.85.85 0 0 0 0-.54V10.19a2.78 2.78 0 0 1-.08-.16l.01-.01H6.43l.02.01c0 .12.04.2.13.24l.03.04.01.08c.07.14.16.3.3.48a.3.3 0 0 1 .06.15c.02.23.08.42.17.58.05.08.14.15.27.23h.06l.02-.02v-.02a.6.6 0 0 1-.25-.18c-.11-.15-.18-.33-.2-.54a.53.53 0 0 0-.04-.18c-.05-.08-.13-.15-.17-.23a9.54 9.54 0 0 0-.32-.58c-.04-.05-.03-.07.03-.06.15.04.2.02.38-.02.19-.03.31-.23.34-.42l.04-.17c.02-.04.03-.1.04-.18l.01-.05a.23.23 0 0 1 .07-.07c.02 0 .02-.02.01-.04a.15.15 0 0 1 .04-.16c.01-.02.02-.02.02 0v.23c0 .09 0 .16.02.22.07.22.13.36.18.43l.13.18c.04.09.06.08.07-.01l-.04-.06c-.23-.29-.33-.63-.3-1 0-.1.02-.18.05-.24l.05-.04c.02 0 .03 0 .02.03l-.01.05v.05c.08.18.2.34.34.48l.08.08c.05.07.13.17.2.14Z" fill="#E8D0A2"/><path d="m7.69 8.37.03.17s0 .01 0 0c-.07-.02-.1-.01-.12.03-.07.15-.13.26-.2.34-.03.05-.08.18-.12.4 0 .02-.01.02-.02 0-.1-.19-.35-.43-.57-.29-.02.02-.04.01-.06 0-.06-.08-.1-.1-.12-.04v.03l.02.02.07.05v.04c-.07.05-.13.16-.08.24.05.07.1.1.16.12h.02l.01-.02a.04.04 0 0 0 0-.04.13.13 0 0 1-.01-.1V9.3a.02.02 0 0 1 .03 0c.09.04.11.12.07.23a.06.06 0 0 1-.03.04.06.06 0 0 1-.05 0c-.18-.09-.31-.2-.5-.24a.07.07 0 0 1-.04-.02c-.06-.07-.09-.11-.18-.13-.19-.04-.32-.05-.38-.1-.02-.02-.01-.03.01-.02.16 0 .3.04.44.1.03.02.1.02.19 0h.02l.01-.02c.16-.28-.06-.47-.32-.44l-.02.01v.04l.01.02h.16c.13.06.18.15.14.28a.1.1 0 0 1-.05.05.09.09 0 0 1-.06 0c-.22-.07-.36-.12-.57-.1-.01 0-.03 0-.03.02v.04c0 .02.02.03.03.03.02 0 .03.02.01.03h-.01a1.67 1.67 0 0 1-.4-.12c-.1-.04-.12-.1-.1-.2.14-.45.32-.9.55-1.36.01-.02 0-.05-.02-.07a.14.14 0 0 1-.02-.04.8.8 0 0 0-.09-.15c-.14-.17 0-.46.1-.6a.52.52 0 0 0 .1-.19c.07-.25.16-.5.29-.72.01-.03.03-.03.05-.01.19.18.4.27.64.38.13.06.2.14.34.23.06.05.1.14.15.2.07.1.11.1.13-.02a.46.46 0 0 0-.07-.28 3.4 3.4 0 0 0-.25-.32l.83.12c.01 0 .02.01.01.03a1.35 1.35 0 0 0 .1.8c.09.23.14.48.16.74.01.17.03.3.05.4 0 .03 0 .08-.02.14a.06.06 0 0 1-.02.04c-.1.06-.16.14-.17.24 0 .02 0 .02-.02.01-.04-.01-.08 0-.1.03h-.03a.1.1 0 0 0-.06-.06c-.02 0-.03 0-.02.02Z" fill="#F0E2DB"/><path d="M5.74 6.56c.24-.08.44-.12.61-.12a5.69 5.69 0 0 1 .78.14v.02l-.02.02H7.1a4.1 4.1 0 0 0-.81-.09c-.18 0-.36.04-.53.1h-.02l-.01-.02c0-.03 0-.04.02-.05ZM7.38 6.77c-.01-.02 0-.04.02-.05h.02a.02.02 0 0 1 .03 0v.01c.06.2.07.4.05.6 0 .01-.01.02-.03.02h-.02l-.01-.02c.02-.18 0-.37-.06-.56ZM6.17 7.81a.35.35 0 0 1 0-.3.03.03 0 0 0 0-.05h-.02c-.09 0-.14-.03-.17-.1h-.03l-.07.04c-.1.06-.2.01-.23-.1s-.1-.23.01-.33h.03V7l.02.07.02.05.05.01c.13-.01.23-.03.3-.06.4-.17.7.01 1.03.26a2.16 2.16 0 0 0 .3.2v.02c0 .02 0 .02-.02.02-.1-.03-.17-.09-.26-.11a6.63 6.63 0 0 1-.47-.18.7.7 0 0 0-.59.04c-.02 0-.02.02 0 .03.09.07.31.05.46.05.17-.01.26.06.41.18.07.05.07.1 0 .15-.09.08-.17.13-.25.17-.16.06-.34.05-.54.05-.02 0-.02-.01-.02-.03l.04-.05a.04.04 0 0 0 0-.05Z" fill="#030100"/><path d="M8.56 7.35a.02.02 0 0 0 .01.04h.02a.03.03 0 0 0 .03-.01v-.01A.57.57 0 0 1 9 6.99c.2-.07.34.16.39.34.08.27.11.52.1.75a.8.8 0 0 1-.04.27c-.09.2-.24.34-.41.53L9 8.9a.04.04 0 0 1-.04 0l-.02-.02c-.12-.22-.08-.43-.1-.64l-.02-.26c0-.04-.02-.08-.03-.11-.01-.04 0-.06.03-.07.16-.04.26-.02.33.06a.03.03 0 0 0 .04 0l.02-.04a.09.09 0 0 0-.05-.07c-.15-.07-.3-.08-.43.02h-.01l-.31-.38-.01-.02v-.03c.05-.06.1-.1.17-.13a.02.02 0 0 1 .01 0h.01v.02l-.04.12ZM5.7 7.16c.15.06.3.02.44-.04.25-.1.4-.04.64.06a.54.54 0 0 1 .19.12v.01h-.01c-.03 0-.1-.03-.22-.08a.96.96 0 0 0-.9.1.11.11 0 0 1-.07.01.04.04 0 0 1-.03-.02l-.05-.14c0-.02 0-.02.02-.02Z" fill="#F0E2DB"/><path d="M5.4 7.26c.03.05.07.08.08.08l-.04-.1c-.04-.05-.07-.09-.08-.08-.01 0 0 .05.04.1Z" fill="#fff"/><path d="m8.86 7.42-.08.03c-.02.01-.03 0-.02-.02 0-.07.06-.1.16-.08.52.09.56.63.34 1.03l-.02.02h-.03l-.01-.02h-.01a.03.03 0 0 1 0-.03c.1-.2.2-.64 0-.8a.62.62 0 0 0-.29-.13h-.04Z" fill="#030100"/><path d="m6.41 7.74.01-.01c.05-.19-.16-.21-.18-.1v.01h-.01l.03-.13c0-.02.01-.03.03-.03h.21c.02 0 .03.01.04.03.03.1.05.2.04.3l-.01.02h-.26c-.02 0-.03 0-.04-.02l-.03-.1c-.01-.02 0-.02 0 0 .04.03.1.05.17.03Z" fill="#989E9E"/><path d="m6.65 7.77-.03-.22v-.03l.02-.02a.05.05 0 0 1 .06 0l.2.12a.03.03 0 0 1 0 .03v.01l-.22.13c-.02.01-.03 0-.03-.02Z" fill="#fff"/><path d="M7.05 7.65v-.01c0-.03.02-.04.04-.05h.08l.19.05.04.01.03.02.02.03v.04h-.01l-.39-.09ZM5.86 7.6c-.02 0-.04 0-.05.03l-.22.68c0 .02 0 .04.02.05.03 0 .05 0 .05-.03l.22-.68c.01-.02 0-.04-.02-.05Z" fill="#030100"/><path d="M9.31 9.11c.18.07.38.06.58.05l.27-.04c.08-.01.17-.02.26-.01.16 0 .31-.02.46-.08a.94.94 0 0 1 .45-.04c.02 0 .02 0 .01.02a.8.8 0 0 0-.14.32l-.03.38c-.03.19.03.3.05.47.02.17.1.35.17.53a12.54 12.54 0 0 1 .13.48c-.26.01-.43.03-.5.04-.25.05-.61.26-.81.4l-.4.23-.4.22a5.5 5.5 0 0 1-1.7.61c-.08.02-.1 0-.1-.08v-.08l-.02-.04a.9.9 0 0 1-.15-.45v-.03l.03-.02.27-.14c.14-.07.2-.2.36-.23a.8.8 0 0 0 .5-.31c.02-.05.12-.1.29-.16.1-.03.12-.25.16-.34a.8.8 0 0 0 .05-.18c.02-.14.06-.28.07-.43l.01-.42c0-.16 0-.28-.03-.38A7.07 7.07 0 0 0 9 8.98l.2-.15.07.24c0 .02.01.04.03.04Z" fill="#F0E2DB"/><path d="M6.1 9.84v.04c.03.04.02.05-.02.03l-.16-.07c-.07-.02-.11-.09-.17-.12l-.03.01c-.03.04-.05.05-.08.04a20.22 20.22 0 0 1-.3-.15 8.02 8.02 0 0 1-.03-.24c0-.26.37-.22.5-.16.05.02.1.03.19.03l.04.02c.07.05.1.15.2.16.17.03.29.11.43.2.07.05.17.05.19-.07a2 2 0 0 0 0-.09c.01-.02.02-.03.04-.02.04 0 .06-.02.07-.08 0-.1-.01-.18-.07-.23a.05.05 0 0 0-.04-.02h-.03v.04c.06.06.08.14.06.23-.02.08-.03.08-.04 0-.02-.1-.08-.17-.19-.2-.04 0-.05-.03 0-.06l.1-.09a.11.11 0 0 1 .13-.01c.24.13.4.36.3.65l-.03.02H7c-.1.04-.1.06 0 .08l.1-.02c.02 0 .03 0 .03.02l-.03.06c-.08.05-.28.1-.34.02-.02-.02-.01-.03 0-.04l.04-.01.02-.03v-.02c0-.02-.02-.02-.03-.02-.07 0-.15 0-.24-.03h-.01l-.01.02v.04l.17.04c.02.01.04.03.03.06l-.02.06c0 .04-.03.05-.05.02l-.11-.08c-.04-.03-.06-.02-.06.03v.05c-.02.02-.03.02-.04 0l-.04-.03h-.04c-.08.05-.2-.05-.26-.1-.02-.01-.03 0-.02.02Z" fill="#E8D0A2"/><path d="M8.68 9.69c.04.04.1.07.18.07a.03.03 0 0 1 .02 0 .03.03 0 0 1 0 .03v.03a.27.27 0 0 1-.27-.12l-.23-.37a.74.74 0 0 0-.14-.17c-.05-.04-.04-.06.03-.05a29.97 29.97 0 0 1 .41.57Z" fill="#030100"/><path d="M6.64 9.4v.01h-.01c-.06-.05-.08-.11-.05-.19 0-.02.02-.02.03 0l.02.02V9.4Z" fill="#F0E2DB"/><path d="M5.49 9.5c.02.07.08.11.15.15a.03.03 0 0 1 0 .03v.01c-.08.03-.18-.08-.22-.15-.03-.07-.06-.21 0-.27a.02.02 0 0 1 .03 0l.01.01v.02c-.01.08 0 .15.03.2ZM7.1 9.51c-.03.05-.07.08-.13.11-.02.01-.03 0-.03-.01v-.03l.01-.02a.62.62 0 0 0 .07-.08l.02-.1v-.04l.02-.01c.02-.01.03 0 .04.01v.17Z" fill="#030100"/><path d="M5.62 9.43c.07.1.16.17.28.23h.01v.05l-.01.01a.03.03 0 0 1-.03 0l-.25-.14c-.09-.05-.12-.13-.09-.23 0-.03.02-.03.04-.02.02.01.03.07.05.1ZM5.94 9.43h.04l.02.02.14.15c.1.06.24.04.32.07.02.01.03.03.02.04v.01h-.01a.6.6 0 0 1-.58-.23c-.04-.05-.07-.1-.07-.13v-.01l.02-.01h.02a.02.02 0 0 1 .02 0l.03.06c0 .02.01.03.03.03ZM8.05 9.78l.05.08.34.61c.03.05.08.09.15.11l.01.03c0 .01 0 .02-.02.02-.08-.01-.14-.04-.17-.09-.08-.13-.2-.33-.33-.6l-.11-.16a.03.03 0 0 1 0-.04L8 9.72c.03 0 .05.02.06.05ZM7.42 10.17c.01.12.07.2.11.3v.06H7.5a.62.62 0 0 1-.15-.28c-.03-.19-.06-.34-.1-.45-.02-.07 0-.09.05-.04a3.52 3.52 0 0 1 .1.41Z" fill="#030100"/><path d="M5.65 9.84c.07.01.12.01.18.04a5.92 5.92 0 0 0 .33.17l-.03.02h-.02L5.8 10a.07.07 0 0 1-.04-.02l-.1-.13v-.01Z" fill="#F0E2DB"/><path d="M8.82 10.44c-.23-.12-.4-.16-.49-.47a.01.01 0 0 1 0-.01h.04l.01.01c.04.1.09.19.16.25.1.09.3.11.37.22a1 1 0 0 0 .08.11.02.02 0 0 1-.01.03l-.05-.01a.29.29 0 0 1-.08-.1.08.08 0 0 0-.03-.03ZM8 11.12v.01h-.06l-.01-.03-.33-.98v-.04l.04-.03h.01l.36 1.07Z" fill="#030100"/><path d="M5.9 10.17c-.08 0-.12.02-.17.07-.03.01-.03 0-.02-.02.03-.07.09-.14.17-.13h.1c.07.02.08.04.01.07l-.1.01Z" fill="#F0E2DB"/><path d="M5.52 10.96c.02 0 .03-.02.03-.05.02.04.03.1.03.19a.05.05 0 0 0 .01.03.04.04 0 0 0 .03.01h.02a.01.01 0 0 0 .01-.01v-.01l-.03-.26v-.05a.72.72 0 0 0 .12-.38c0-.07-.02-.07-.06 0a.42.42 0 0 0-.03.1c0-.03-.02-.05-.04-.06.09-.17.22-.25.4-.23l.03-.01a.16.16 0 0 1 .12-.05h.03l.07-.07h.01a.03.03 0 0 1 .03 0v.03c0 .11.02.21.05.31.03.1.03.18.02.26-.03.16-.06.25-.08.3a2.46 2.46 0 0 1-.35.45.03.03 0 0 1-.03-.01l-.01-.02s0-.03.03-.06a.02.02 0 0 0 0-.03h-.04a.43.43 0 0 0-.09.09l-.02.01h-.02v-.02c.03-.1.04-.2.03-.32 0-.02-.01-.03-.03-.01l-.02.01a.05.05 0 0 0-.02.05.8.8 0 0 1-.09.42h-.02l-.01-.01c-.05-.11-.1-.18-.18-.21l-.02-.02a.05.05 0 0 1 .01-.07c.1-.08.14-.18.1-.3Z" fill="#E8D0A2"/><path d="M6.87 10.15h.01l.25.55a.2.2 0 0 1 .02.06l-.01.04h-.02l-.02-.02-.02-.02-.01-.03-.25-.55.05-.03ZM7.24 10.52a10.62 10.62 0 0 0-.17-.2v-.02c0-.01.02-.02.03 0 .1.1.21.17.26.3.07.16.11.31.14.46 0 .02.03.08.09.17.07.11.22.2.3.27v.03a.03.03 0 0 1-.01.02.02.02 0 0 1-.02 0 .95.95 0 0 1-.48-.68.83.83 0 0 0-.14-.35ZM5.9 10.62a.82.82 0 0 1-.05.2h-.02l-.02.01H5.8c-.01-.01-.02-.02-.01-.04a1 1 0 0 0 .06-.37c0-.02.01-.03.03-.03h.03l.01.03-.01.2Z" fill="#030100"/><path d="M5.65 10.54c0 .08-.04.17-.1.27v.1c0 .03 0 .05-.03.05s-.05 0-.05.03a.5.5 0 0 1 0 .07c-.04.09-.06.09-.08 0-.03-.13.06-.2.1-.31.03-.1.07-.19.12-.28.02.01.03.03.04.07Z" fill="#F0E2DB"/><path d="m7.14 11.8.06.06v.03h-.06a.57.57 0 0 1-.13-.24 7.36 7.36 0 0 1-.1-.37c-.02-.08-.07-.15-.09-.25-.01-.12-.1-.19-.19-.29a.22.22 0 0 1-.04-.07v-.07c.02 0 .03 0 .04.03l.07.1c.15.12.17.26.23.4l.07.22c.03.16.08.3.14.45ZM6.7 11.56c-.03-.07-.07-.13-.08-.22a2.24 2.24 0 0 0-.09-.46.02.02 0 0 1 .02-.01h.01c.02 0 .04.01.04.03.05.25.05.4.15.6.04.1.08.24.11.42v.02h-.04l-.01-.01a6.28 6.28 0 0 1-.1-.37Z" fill="#030100"/><path d="m11.58 11.97.01.01h.03l1-.39a.06.06 0 0 1 .06.01l.42.4a.02.02 0 0 1 0 .02c-.15.06-.28.1-.43.14a26.99 26.99 0 0 0-.75.16l-.22.04c-.25.07-.42.1-.53.12a2.2 2.2 0 0 0-.63.17c-.1.04-.21.07-.35.1a4.97 4.97 0 0 0-1.3.51v.02l.01.01.02.01h.02c.4-.21.8-.37 1.2-.46.15-.03.28-.07.4-.11.3-.12.58-.2.88-.23.17-.02.37-.1.5-.1.08 0 .16-.02.23-.04.24-.07.45-.1.54-.13.17-.03.34-.1.5-.15h.05l.59.21.01.01a.04.04 0 0 1 0 .04v.02c-.16.09-.33.08-.47.13a980.2 980.2 0 0 1-1.07.32l-.21.03c-.16.02-.3.03-.42.08a48.96 48.96 0 0 1-2.37.83 8.44 8.44 0 0 1-.95.11l-.8.01c-.2 0-.4.05-.57.04-.02 0-.03 0-.05-.02a.08.08 0 0 1-.02-.05l-.01-.24c0-.15.08-.26.1-.4.01-.05.04-.12.1-.2.05-.07.1-.14.13-.22.04-.08.12-.19.22-.32.02-.02.03-.02.04 0 .04.06.05.14.03.24v.03c0 .02.01.03.02.03l.04.02h.03c.04-.02.1 0 .15-.02.26-.08.5-.11.73-.2l.46-.17 1.13-.6c.3-.2.56-.33.8-.43.25-.1.6-.09.82-.08.14 0 .28-.02.4-.03.02 0 .04 0 .06.02a.1.1 0 0 1 .03.04l.1.28c0 .02 0 .03-.02.04-.21.12-.36.19-.43.2-.16.04-.24.08-.26.13Z" fill="#282828"/><path d="M6.3 11.51h-.01c-.02 0-.03.02-.03.04l.08.6c0 .02.02.04.04.04s.03-.03.03-.05l-.08-.6c0-.02-.02-.03-.04-.03ZM6.58 12.15a.01.01 0 0 1-.01.01.18.18 0 0 1-.06-.05.13.13 0 0 1-.03-.07c0-.07-.01-.15-.04-.2-.02-.03-.03-.06-.02-.08.01-.07.03-.08.07 0l.1.39ZM5.85 11.99V12a2.97 2.97 0 0 0 .1.25l-.01.01c-.03 0-.05 0-.07-.03a.99.99 0 0 1-.09-.22.98.98 0 0 1-.01-.25c0-.02.02-.04.05-.06h.02v.02a3.32 3.32 0 0 0 .01.27ZM11.16 11.9l-.13.05a21.48 21.48 0 0 0-1.3.58l-.4.15c-.27.1-.52.14-.79.19a153.57 153.57 0 0 1-1.2.38c-.02 0-.03 0-.02-.03v-.02l.01-.03.03-.02c.15-.03.29-.08.43-.13.17-.07.28-.1.33-.11.16-.04.29-.1.45-.13a5.5 5.5 0 0 0 1.47-.46c.43-.22.86-.4 1.32-.58.02 0 .04 0 .05.02l.01.02a.02.02 0 0 1 0 .02h-.01c-.1.04-.17.04-.25.1ZM5.48 11.79c0 .13.08.19.1.28.01.07 0 .08-.04.03-.05-.07-.13-.21-.13-.3 0-.02.02-.03.04-.03h.01c.02 0 .02 0 .02.02ZM7.93 11.84v.17c0 .13-.06.23-.12.4l-.02.01a.03.03 0 0 1-.02 0h-.01l-.01-.02v-.02a1.82 1.82 0 0 0 .1-.53l.03-.02h.02c.02-.02.03-.01.03.01Z" fill="#030100"/></svg>