<!-- by TradingView --><svg width="18" height="18" viewBox="0 0 18 18" xmlns="http://www.w3.org/2000/svg"><path fill="#F0F3FA" d="M0 0h18v18H0z"/><path d="m9.63 4-.23-.75.6-.46v-.04h-.75L9 2h-.03l-.23.75H8v.04l.6.46-.23.75h.04L9 3.55l.6.45h.03ZM7.63 4.5l-.23-.75.6-.46v-.04h-.75L7 2.5h-.03l-.23.75H6v.04l.6.46-.23.75h.04L7 4.05l.6.45h.03ZM10.37 4.5l.23-.75-.6-.46v-.04h.75L11 2.5h.03l.23.75H12v.04l-.6.46.23.75h-.04L11 4.05l-.6.45h-.03ZM5.63 6l-.23-.75.6-.47v-.03h-.75L5 4h-.03l-.23.75H4v.04l.6.46-.23.75h.04L5 5.55l.6.45h.03ZM13.63 6l-.23-.75.6-.47v-.03h-.75L13 4h-.03l-.23.75H12v.04l.6.46-.23.75h.04l.59-.45.59.45h.04Z" fill="#19AE47"/><path d="M9 14.21c-.63-.51-1.24-.74-1.76-.93-.6-.22-1.02-.38-1.37-.9a2.18 2.18 0 0 1-.36-1.21V8.05a2.6 2.6 0 0 0-.4-1.4 5.46 5.46 0 0 0 1.7-.99c.64-.5 1.16-.9 2.19-.9s1.57.42 2.14.86l.06.04c.46.36.97.75 1.7.99-.27.42-.41.9-.41 1.4v3.12c0 .43-.13.85-.36 1.2-.33.5-.7.66-1.34.9l-.03.01c-.52.19-1.13.42-1.76.93Z" fill="#0C87D1"/><path d="M12 7.69v3.4h-.02l-.92-.68a.6.6 0 0 0-.4-.17H10v.67c0 .35.63.83.86 1.04V12H7.14v-.05c.23-.2.86-.68.86-1.04v-.67h-.66a.6.6 0 0 0-.4.17l-.9.68H6v-3.4h.03l.91.63c.1.1.25.16.4.16H8v-.61c0-.37-.61-.7-.86-.87h3.72c-.24.17-.86.5-.86.87v.6h.66a.6.6 0 0 0 .4-.15l.92-.63H12Z" fill="#F0F3FA"/><path d="M6 9h-.46v-.7H6V9ZM12 9h.33v.73H12V9Z" fill="#19AE47"/><path d="M12.33 11.17c0 .4-.12.8-.33 1.13-.33.49-.71.63-1.3.85-.26.1-.63.2-.93.35V12H9v2.02c-.61-.47-1.21-.7-1.7-.87-.59-.22-.97-.36-1.3-.85a2.05 2.05 0 0 1-.33-1.13V9.73H6V9h-.33v-.95c0-.46-.12-.92-.34-1.33a5.91 5.91 0 0 0 1.57-.95c.43-.33.87-.6 1.33-.74V7H9V4.91c.97 0 1.44.36 2.1.86.43.33.91.7 1.57.95-.22.41-.34.87-.34 1.33v.27H12V9h.33v2.17ZM13 8.32h-.52v-.27c0-.5.15-.98.41-1.4-.72-.24-1.23-.63-1.7-.99-.65-.5-1.16-.9-2.19-.9v-.65c-.32 0-.52.03-.77.1v.67a4.4 4.4 0 0 0-1.43.78c-.46.36-.97.75-1.7.99.27.42.41.9.41 1.4V9H5v.73h.51v1.44c0 .43.13.85.36 1.2.35.53.78.69 1.37.9.52.2 1.13.43 1.76.94V15c.29-.3.49-.52.77-.7v-.64c.32-.17.71-.28.99-.38.6-.22 1.02-.38 1.37-.9.23-.36.35-.78.35-1.21V9H13v-.68Z" fill="#FDDC02"/><path d="M9.77 5A2.36 2.36 0 0 0 9 4.9V7h.77V5ZM8.23 13.54c.27.13.48.26.77.48V12h-.77v1.54Z" fill="#19AE47"/><path d="M9 4.77c1.03 0 1.54.4 2.2.9.46.35.97.74 1.7.98-.27.42-.44.9-.44 1.4v.27H13v-.27c0-.7.45-1.34 1-1.76-1.18-.08-1.82-.6-2.47-1.1-.66-.5-1.32-1.08-2.53-1.08v.66ZM5.54 8.05c0-.5-.17-.98-.43-1.4a5.47 5.47 0 0 0 1.7-.99c.44-.34.9-.63 1.42-.78v-.67C6.56 4.59 6.05 6.16 4 6.29c.55.42 1 1.05 1 1.76V9h.54v-.95ZM7.24 13.28c-.6-.22-1.02-.38-1.37-.9a2.17 2.17 0 0 1-.33-1.21V9.73H5v1.44c0 .52.06 1.04.35 1.49C6.25 14 7.6 13.52 9 15v-.8c-.63-.5-1.24-.73-1.76-.92ZM12.46 11.17c0 .43-.1.85-.33 1.2-.35.53-.78.69-1.37.9-.28.11-.67.23-1 .39v.65c.41-.25.88-.4 1.25-.53 1.26-.46 1.99-1.33 1.99-2.61V9h-.54v2.17Z" fill="#193375"/><path opacity=".6" fill="#193375" d="M6.98 9h4v1h-4z"/></svg>