<!-- by TradingView --><svg width="18" height="18" viewBox="0 0 18 18" xmlns="http://www.w3.org/2000/svg"><path fill="url(#amlioe4ik)" d="M0 0h18v18H0z"/><path d="M10.75 4.05c.38.06.66.13.82.23.16.1.33.28.5.57a.6.6 0 0 1-.25.13c-.2.04-.38-.04-.55-.12a.4.4 0 0 0-.51.18.33.33 0 0 0 .08.38c.1.1.26.11.38.15.08.06.11.14.1.25 0 .1-.05.2-.14.3l.14.39c-.17.03-.38.05-.63.03-.4-.03-.7-.31-1.06-.49A3.02 3.02 0 0 0 9 5.99C7.12 6 6 7.34 6 9c0 1.65 1.26 3 3 3 1.38 0 2.25-.55 2.77-1.44h-.92c-.49 0-.92-.25-1.05-.7l-.17-.59a.21.21 0 0 1 .12-.25.22.22 0 0 1 .1-.02h3.55c.3 0 .56.22.6.5v.12a4.1 4.1 0 0 1-.53 1.72A5.03 5.03 0 0 1 4 9c0-2.6 2.02-4.7 4.6-4.91.34-.05.68-.1 1.02-.09.31 0 .68.02 1.13.05Zm1.47.97c.14.1.23.2.27.27.04.07.08.19.11.35l.01.03.95.84c.05.05.09.11.1.18v.01l.01.07a.06.06 0 0 1-.03.06l-.06.02h-.04a9.78 9.78 0 0 1-1.77-.33c-.19-.07-.23-.25-.12-.53.05-.14 0-.26-.05-.38s-.17-.2-.25-.29c-.1-.02-.2 0-.3-.04a.11.11 0 0 1-.03-.03c-.07-.06-.02-.16.05-.2.12-.06.3.04.4.1.2.04.35.05.45.03.1-.01.2-.07.3-.16Z" fill="url(#bmlioe4ik)"/><defs><linearGradient id="amlioe4ik" x1="3.35" y1="3.12" x2="21.9" y2="24.43" gradientUnits="userSpaceOnUse"><stop stop-color="#1A1E21"/><stop offset="1" stop-color="#06060A"/></linearGradient><linearGradient id="bmlioe4ik" x1="5.02" y1="6.32" x2="12.09" y2="13.49" gradientUnits="userSpaceOnUse"><stop stop-color="#5250FF"/><stop offset="1" stop-color="#E959FF"/></linearGradient></defs></svg>