<!-- by TradingView --><svg width="18" height="18" viewBox="0 0 18 18" xmlns="http://www.w3.org/2000/svg"><path fill="url(#ap5pdewot)" d="M0 0h18v18H0z"/><path d="M5.21 3.24a3.28 3.28 0 0 1 1-.24c.07 0 .12.01.17.04.05.03.08.08.1.13.02.05.02.1.01.15a.25.25 0 0 1-.08.14.4.4 0 0 1-.2.07 2.97 2.97 0 0 0-2.4 1.77c-.06.1-.1.17-.16.2a.26.26 0 0 1-.36-.35 3.5 3.5 0 0 1 1.92-1.9Z" fill="#fff"/><path d="M4.2 5.48a2.47 2.47 0 0 1 2.13-1.55c.08 0 .14.02.18.07.04.05.06.1.07.17 0 .07-.02.12-.05.17a.24.24 0 0 1-.18.1c-.8.1-1.37.53-1.68 1.3a.26.26 0 0 1-.13.13.22.22 0 0 1-.19.01c-.18-.07-.22-.2-.14-.4Z" fill="#fff"/><path d="M6.33 5.26c-.38.14-.65.4-.83.77a.28.28 0 0 1-.16.15.24.24 0 0 1-.2-.01.25.25 0 0 1-.13-.16.33.33 0 0 1 .03-.24c.13-.25.28-.46.48-.64.2-.18.42-.3.67-.38a.25.25 0 0 1 .33.17c.02.06.01.13-.02.19a.3.3 0 0 1-.17.15Z" fill="#fff"/><path fill-rule="evenodd" d="M12.44 7.01a4 4 0 0 0-2.13-1.82 3.71 3.71 0 0 0-3.16.3 4.07 4.07 0 0 0-1.84 2.47c0 .03-.02.05-.04.05-.6.2-1.12.46-1.6.77-.27.18-.46.37-.57.56-.15.26-.13.5.06.73.17.16.4.3.67.4.21.08.46.14.75.2.36.06.7.1 1.05.13.02 0 .04.01.05.04.22.37.5.71.86 1a3.84 3.84 0 0 0 4.17.55.22.22 0 0 1 .1-.03l.1.03a118.6 118.6 0 0 0 1.6.6v-.01l-.29-1.77c0-.06 0-.1.03-.15.25-.36.43-.76.55-1.21a.1.1 0 0 1 .07-.08c.5-.18.95-.4 1.35-.64.2-.12.38-.26.54-.44a.95.95 0 0 0 .17-.23.7.7 0 0 0 .07-.27c0-.09-.01-.17-.05-.25a.63.63 0 0 0-.18-.24c-.13-.1-.26-.19-.4-.25a4.02 4.02 0 0 0-.91-.27c-.33-.06-.65-.1-.97-.14a.06.06 0 0 1-.05-.03ZM6.36 9.16l.01.12c0 .01 0 .02-.03.02-.38.02-.75 0-1.11-.07-.02 0-.03-.01-.03-.03v-.53h-.02l-.4.18a1.1 1.1 0 0 0-.32.26c-.1.13-.07.25.1.35l.23.09.2.05c.32.05.68.09 1.06.1.3 0 .66 0 1.08-.02 1.53-.08 3-.3 4.43-.65.42-.1.81-.23 1.19-.37.25-.1.47-.2.63-.31a.67.67 0 0 0 .26-.26c.04-.1 0-.18-.11-.25a1.68 1.68 0 0 0-.77-.2h-.02v.03l.09.3V8l-.03.03c-.33.21-.68.34-1.03.4-.02 0-.03 0-.03-.03A2.84 2.84 0 0 0 9.5 6.18a2.42 2.42 0 0 0-1.12.05A2.76 2.76 0 0 0 6.5 8.1a2.96 2.96 0 0 0-.13 1.06Z" fill="#fff"/><path d="M7.31 8.93a.5.5 0 0 0 .5-.5.5.5 0 0 0-.5-.51.5.5 0 0 0-.5.5c0 .28.22.51.5.51ZM9.33 8.96a.5.5 0 0 0 .5-.5.5.5 0 0 0-.5-.51.5.5 0 0 0-.5.5c0 .28.22.5.5.5Z" fill="#fff"/><defs><linearGradient id="ap5pdewot" x1="2.17" y1="3.44" x2="14.79" y2="15.84" gradientUnits="userSpaceOnUse"><stop stop-color="#4F4EE8"/><stop offset="1" stop-color="#984BFE"/></linearGradient></defs></svg>