<!-- by TradingView --><svg width="18" height="18" viewBox="0 0 18 18" xmlns="http://www.w3.org/2000/svg"><path fill="url(#a)" d="M0 0h18v18H0z"/><path d="M8.79 5.25a.73.73 0 0 0 0-1.04.74.74 0 0 0-1.04 0L4.2 7.76a.73.73 0 0 0 0 1.04c.3.28.76.28 1.04 0L8.8 5.24ZM13.79 10.25a.73.73 0 0 0 0-1.04.74.74 0 0 0-1.04 0L9.2 12.76a.73.73 0 0 0 0 1.04c.3.28.76.28 1.04 0l3.54-3.54ZM4.47 10.06c-.3.3-.29.77 0 1.06.3.3.78.29 1.07 0l5.5-5.5c.29-.3.29-.77 0-1.06a.76.76 0 0 0-1.07 0l-5.5 5.5ZM13.6 8.01c.3-.3.29-.77 0-1.06a.76.76 0 0 0-1.07 0l-5.5 5.5c-.29.3-.29.77 0 1.06.3.3.78.3 1.07 0l5.5-5.5ZM9.2 7.82l2.62-2.62c.27-.27.7-.27.98 0a.7.7 0 0 1 0 .98L10.18 8.8a.69.69 0 0 1-.98 0 .7.7 0 0 1 0-.98ZM5.2 11.82 7.82 9.2c.27-.27.7-.27.98 0a.7.7 0 0 1 0 .98L6.18 12.8a.68.68 0 0 1-.98 0 .7.7 0 0 1 0-.98Z" fill="#EFFBF7" fill-opacity=".6"/><defs><linearGradient id="a" x1="2.89" y1="2.41" x2="13.82" y2="15.91" gradientUnits="userSpaceOnUse"><stop stop-color="#28AC87"/><stop offset="1" stop-color="#3EEB91"/></linearGradient></defs></svg>