<!-- by TradingView --><svg width="18" height="18" viewBox="0 0 18 18" xmlns="http://www.w3.org/2000/svg"><path fill="url(#a)" d="M0 0h18v18H0z"/><path d="M12.74 3.03c.05.18 0 .46 0 .64-.04.32-.12.6-.23.88a2.62 2.62 0 0 1-2.06 1.7l-.35-.01a3.23 3.23 0 0 1-1.1-.3.13.13 0 0 1-.06-.07.14.14 0 0 1 0-.1.13.13 0 0 1 .1-.09 2 2 0 0 1 .6-.54c.19-.11.55-.3 1.1-.57.07-.12.17-.21.28-.3.07-.04.06-.05-.01-.03-.47.1-.89.23-1.27.4a2.32 2.32 0 0 0-1.02.84H8.7v-.02l-.02-.5c.24-.92.82-1.44 1.73-1.58.25-.04.56-.06.92-.06.55 0 .9-.07 1.36-.31.02-.02.04-.01.05.02Z" fill="url(#b)"/><path d="m6.56 5.1.34.3c.16.14.29.22.38.24.25.05.5 0 .74-.14l.01-.02a.05.05 0 0 0 0-.05L8 5.4c-.25-.06-.5-.18-.73-.35l.6.12a.11.11 0 0 1 .08.05l.07.09a.02.02 0 0 0 .03-.01V5.3a.59.59 0 0 0-.36-.46 1.1 1.1 0 0 0-1.17.15c-.02.01-.03.04-.02.06 0 .03.03.04.06.06Z" fill="url(#c)"/><path d="M8.58 6.04a.31.31 0 0 1-.1.08c-.6.07-1.13.28-1.57.62-.34.26-.67.62-1 1.07l-.5.39a.14.14 0 0 0-.05.07l-.16.54a.1.1 0 0 1-.02.04.1.1 0 0 1-.04.02c-.01 0-.03 0-.05-.03a4.02 4.02 0 0 1 2.4-2.9c.26-.11.6-.19 1.04-.23.03 0 .04.01.04.04l.01.3Z" fill="#FDE96D"/><path d="M8.58 6.04v.34a.54.54 0 0 1-.29.12l-.3.06c-.9.3-1.57.9-1.98 1.79-.03 0-.06-.01-.07-.05a.2.2 0 0 0-.01-.1c-.01-.02 0-.05 0-.07a3.56 3.56 0 0 1 2.53-1.81c.02 0 .04-.02.05-.04.03-.07.02-.12-.02-.16a.31.31 0 0 0 .1-.08Z" fill="#FE9402"/><path d="M8.49 6.12c.04.04.05.1.02.16a.07.07 0 0 1-.05.04c-1.1.16-1.95.86-2.52 1.81a.09.09 0 0 0-.01.07.2.2 0 0 1 0 .1l-.04-.07c-.02-.02-.04-.03-.06-.01a.19.19 0 0 0-.06.05v-.14c.03-.13.14-.17.15-.32.32-.45.65-.81.99-1.07.44-.34.97-.55 1.58-.62Z" fill="#F95602"/><path d="m11.38 6.48.75.85c.17.2.38.56.63 1.09.21.55.28 1.15.21 1.8-.16-.17-.35-.08-.39.14a4 4 0 0 1-1.09 2.18 4.2 4.2 0 0 1-1.73.98.42.42 0 0 1-.25 0c-.09-.04-.09-.06 0-.07.37-.04.71-.15 1.05-.35.24-.09.89-.45.9-.73a3.6 3.6 0 0 0 .64-.85c.08-.1.14-.22.18-.32.12-.32.2-.66.23-1.03 0-.07-.01-.12-.05-.14-.04-.03-.1-.02-.18.02a.51.51 0 0 0-.2-.06c-.02 0-.04 0-.04.04-.08.33-.22.66-.4.97-.1.15-.24.3-.44.44-.2.15-.5.43-.83.58.25-.24.37-.48.37-.73.21-1.07-.56-1.8-1.54-1.82a.03.03 0 0 1-.02 0 .03.03 0 0 1-.01-.03v-.36a.65.65 0 0 1 .09-.1c.02-.03.06-.05.11-.05L11 8.92c.03 0 .06-.02.09-.04.02-.02.02-.03-.01-.03l-.77-.02v-.1l.76-.09h.02a.05.05 0 0 0 .02-.06v-.02a.22.22 0 0 0-.05-.04 2.8 2.8 0 0 0-.86.02l-3.37-.01c.66-.07 1.31-.05 1.97-.08.32 0 .62-.05.9-.12.3-.08.6-.16.88-.25.29.05.47.02.55-.07l.02-.24c0-.02 0-.04-.03-.05a.92.92 0 0 0-.32-.07H9.3c.43-.11.77-.34.7-.85.2.12.41.23.62.33.16.08.26.07.31-.01.13.06.23.14.3.24.11.2.24.37.38.54l.13.21c.05.1.11.16.18.19.02.03.05.06.1.08l.2.9c.04.12.04.24.2.25a.07.07 0 0 0 .05-.02.07.07 0 0 0 .02-.06 3.7 3.7 0 0 0-.27-1.16 2.72 2.72 0 0 0-.59-.99h-.03a3.81 3.81 0 0 0-1.08-.86v-.02a.04.04 0 0 1 .03-.03l.52-.07c.1 0 .2.05.3.16Z" fill="#FE9402"/><path d="M9.6 6.5c.02.12.16.22.4.3.08.51-.26.74-.7.85l-.1-.01c.06-.17.08-.34.06-.52l-.02-.04h-.05v-.04h-.06c-.1-.02-.2-.02-.26.02h-.03a.03.03 0 0 0-.02.03v.56l-.03.01h-1.6c-.2 0-.34.06-.35.26a.13.13 0 0 0-.08-.01h-.02a.05.05 0 0 0-.01.06l.01.02c.1.08.2.12.33.12 1.18 0 2.35-.01 3.5-.03l-.88.25a4.3 4.3 0 0 1-.9.12c-.66.03-1.31 0-1.97.08-.13.04-.15.15-.06.33-.02-.01-.04 0-.04.03a.04.04 0 0 0 .04.04c.68.03 1.36.02 2.06-.03l-.01.53c0 .04-.02.05-.05.05-.13 0-.23 0-.36.04a2.54 2.54 0 0 0-.6.34.05.05 0 0 0 .01.06l.26.16c-.02.07-.05.12-.1.13h-.02v.05c-.02.04 0 .04.04 0 .22-.22.5-.33.82-.33v.03c-.68.85-1.65 1.19-2.6 1.6l-.35-.77a.08.08 0 0 0-.05-.05h-.12c-.18-.13-.2-.45-.2-.64l.19-.02c.02 0 .03 0 .05-.02a.08.08 0 0 0 .01-.06c-.04-.47.02-.88.18-1.23.12-.2.22-.4.31-.6.04-.08.1-.17.17-.26.09-.11.16-.24.25-.34a3.16 3.16 0 0 1 1.83-1l.66-.13.45.06Z" fill="#FEC102"/><path d="M10.94 7.12c-.05.08-.15.09-.31 0L10 6.8c-.24-.08-.38-.18-.4-.3.51.08.96.28 1.34.62Z" fill="#FE8101"/><path d="M12.76 8.42c-.25-.53-.46-.9-.63-1.1l-.75-.84a3.56 3.56 0 0 1 1.38 1.94Z" fill="#FDE96D"/><path d="M9.13 7.04c-.1.07-.19.07-.26.02.07-.04.15-.04.26-.02Z" fill="#F95602"/><path d="M9.19 7.08h.05l.02.04c.02.18 0 .35-.06.52a1.2 1.2 0 0 1-.01-.56Z" fill="#FDE96D"/><path d="M12.23 8.29c-.06-.04-.1-.04-.1-.02a3.96 3.96 0 0 0-.6-.9.17.17 0 0 1 .07-.02c.02 0 .02-.02.02-.04l-.01-.02.03.01.03.02c.26.3.44.61.56.97Z" fill="#F95602"/><path d="M11.24 7.36c.09.03.14.08.17.16.21.19.39.45.52.78a.4.4 0 0 1-.18-.19c-.05-.1-.1-.16-.13-.21a3.84 3.84 0 0 1-.38-.54Z" fill="#FDE96D"/><path d="M11.53 7.37c.25.28.44.58.6.9a.3.3 0 0 0-.1.11.18.18 0 0 1-.1-.08c-.13-.33-.3-.6-.52-.78a.32.32 0 0 1 .12-.15Z" fill="#FE8101"/><path d="M5.92 7.81c-.01.15-.12.2-.15.32v.14a3.74 3.74 0 0 0-.3 1.84c-.03.03-.04.06-.04.1.02.24-.03.43.15.61.12.41.3.79.53 1.12l.17.26.32.32c.47.5 1.08.8 1.83.95-.08.05-.19.05-.32 0a4.34 4.34 0 0 1-1.46-.78 1.9 1.9 0 0 0-.24-.2.08.08 0 0 0-.07-.02L6 12.6a4.2 4.2 0 0 1-1-3.1c.02-.26.05-.48.08-.66.02.03.04.04.05.03a.1.1 0 0 0 .04-.02.1.1 0 0 0 .02-.04l.16-.54c0-.03.02-.05.05-.07l.5-.39Z" fill="#FEC102"/><path d="M10.3 8.73c.02-.14-.03-.2-.11-.2a2.8 2.8 0 0 1 .86-.01l.04.04a.05.05 0 0 1 0 .05.05.05 0 0 1-.03.03l-.75.09Z" fill="#F95602"/><path d="m10.3 8.83.77.02c.03 0 .03 0 0 .03-.02.02-.05.04-.08.04-.47.01-1.01.02-1.62.01-.05 0-.09.02-.11.04a.65.65 0 0 0-.08.1.5.5 0 0 1 0-.16c0-.03.01-.05.04-.05l1.08-.03ZM6.76 8.86c.68-.04 1.37-.02 2.06.04a15.77 15.77 0 0 1-2.09.02.04.04 0 0 1 0-.03c0-.04 0-.04.03-.03ZM8.81 9.93c-.33 0-.6.1-.82.33-.04.04-.06.04-.05 0v-.03l.01-.01.02-.01c.05-.01.08-.06.1-.13.23-.14.46-.22.69-.24.04 0 .05.03.05.1ZM10.2 10.28a1.68 1.68 0 0 0-.9-.34.05.05 0 0 0-.04.05l-.06 1.95-.02-2.05c0-.03.02-.04.05-.04.38-.01.7.13.97.43Z" fill="#FDE96D"/><path d="M10.2 10.28c.36.43.34.87-.04 1.32-.23.28-.53.42-.9.42a.1.1 0 0 1-.06-.01c-.05-.03-.05-.05 0-.07l.06-1.95a.05.05 0 0 1 .04-.05h.02c.3.02.6.13.88.34Z" fill="#FE8101"/><path d="M12.97 10.22a4.2 4.2 0 0 1-2.3 3.4A3.95 3.95 0 0 1 6 12.6l.33-.14a.08.08 0 0 1 .07.01l.24.21.24.2c.35.24.75.44 1.22.59.13.04.24.04.32 0l.6.05c.09.01.14-.03.14-.13l.01-.27c.07-.2.09-.4.06-.6 0-.05.01-.08.06-.08.42-.03.78-.17 1.07-.43.32-.15.63-.43.83-.58.2-.14.34-.29.43-.44.19-.31.33-.64.4-.97.01-.03.03-.05.06-.04.07.01.13.03.19.06l-.2.88c-.02.08-.1.27-.24.56-.01.03 0 .04.03.04l.24-.01a3.6 3.6 0 0 1-.64.85c-.08-.12-.17-.15-.3-.05-.2.16-.4.32-.63.48-.06.04-.07.09-.05.15l.07.15c-.34.2-.68.31-1.04.35-.1.01-.1.03 0 .07.06.02.15.02.24 0a4.21 4.21 0 0 0 1.73-.98 4 4 0 0 0 1.1-2.18c.03-.22.22-.31.38-.14Z" fill="#F95602"/><path d="m8.82 9.96-.02 2.01c0 .03-.01.05-.04.05-.49.02-.78-.23-1.1-.6-.01-.02-.03-.03-.06-.02-.18.08-.26.17-.23.29.31.5.8.76 1.45.77v.68l-.04.02c-.16.02-.34 0-.54-.06-.5-.14-.95-.37-1.34-.69-.07-.05-.13-.08-.17-.07-.06.02-.1.08-.13.18l-.32-.32c-.05-.05-.1-.14-.16-.26a.37.37 0 0 0 .18-.14v-.08a.6.6 0 0 0-.1-.16c.96-.41 1.93-.75 2.62-1.6Z" fill="#FE9402"/><defs><linearGradient id="a" x1="3.35" y1="3.12" x2="21.9" y2="24.43" gradientUnits="userSpaceOnUse"><stop stop-color="#1A1E21"/><stop offset="1" stop-color="#06060A"/></linearGradient><linearGradient id="b" x1="10.14" y1="3.99" x2="11.31" y2="5.61" gradientUnits="userSpaceOnUse"><stop stop-color="#D9D602"/><stop offset="1" stop-color="#137205"/></linearGradient><linearGradient id="c" x1="7.57" y1="5.64" x2="7.57" y2="4.98" gradientUnits="userSpaceOnUse"><stop stop-color="#9BBC03"/><stop offset="1" stop-color="#D9D602"/></linearGradient></defs></svg>