<!-- by TradingView --><svg width="18" height="18" viewBox="0 0 18 18" xmlns="http://www.w3.org/2000/svg"><path fill="#FFB135" d="M0 0h18v18H0z"/><path d="M10.18 13.76v-.01l-.01-.01a.02.02 0 0 0-.03 0c-.32.33-.39.81-.47 1.25a.01.01 0 0 1-.02 0c-.24-.13-.5-.25-.79-.33l-.71-.23a2.1 2.1 0 0 1-.52-.24c-.13-.08-.28-.25-.38-.33a.65.65 0 0 0-.2-.14l-.22-.07a1.42 1.42 0 0 1-.9-.88 4.6 4.6 0 0 1-.1-.37.45.45 0 0 0-.07-.14c-.07-.1-.21-.15-.27-.24-.13-.19-.06-.4.01-.6a.62.62 0 0 0 0-.26l-.04-.36a3.32 3.32 0 0 1 .17-1.42v-.02c-.17-.16-.31-.29-.42-.49a.91.91 0 0 1-.05-.17c-.05-.2-.23-.35-.13-.57.06-.13.23-.15.25-.32l.01-.23c0-.21.2-.35.2-.56 0-.47.26-.92.59-1.21.17-.15.29-.25.37-.45l.14-.38c.37-1 1.11-1.96 2.24-1.98.52 0 1.05.22 1.42.6.38.39.6.87.68 1.44.01.11.05.19.15.26.2.14.38.3.54.5a4.56 4.56 0 0 1 1.06 2.74l.01.67c0 .12.04.26.09.4.1.32.17.47.2.75l.02.44c.01.63-.3 1.18-.71 1.62-.38.4-.7.66-1.18 1.07-.28.24-.55.5-.8.77l-.2.26a2.05 2.05 0 0 1 .06-.76Z"/><path d="M10.51 5.15a.02.02 0 0 0 .02 0 .02.02 0 0 0 .01-.02v-.34c0-.03.01-.04.04-.02l.03.06c.05.12.08.22.09.29 0 .08 0 .15.02.2 0 .01 0 .02.02.02a1.08 1.08 0 0 1 .3.3l-.01.02H11l-.25-.12a.03.03 0 0 0-.03 0l-.01.02v.02l.07.26c0 .01 0 .02-.02.02a.13.13 0 0 1-.07-.05 1.68 1.68 0 0 0-.35-.32l-.03-.07v-.07c.01-.15 0-.3-.05-.43 0-.02 0-.03.01-.02l.03.02c.08.1.16.22.2.23ZM7.72 5.19a.02.02 0 0 0 0 .02l.01.01h.02c.21-.1.44-.11.67-.05.03 0 .06.02.09.05a.02.02 0 0 1 0 .02l-.01.01c-.15.03-.28.03-.43.07-.4.11-.75.31-1.03.6-.02.02-.03.02-.03 0a.4.4 0 0 1 .03-.11c.17-.44.48-.76.88-.98.02-.02.03-.01.01.01l-.21.35Z" fill="#FB1848"/><path d="M8.6 6.3c-.01-.07-.1-.15-.17-.2-.02-.02-.02-.04.02-.03.02 0 .05 0 .08.02.27.1.48.3.64.58a.62.62 0 0 1 .06.21.03.03 0 0 1-.01.02H9.2c-.03 0-.05 0-.07-.02-.12-.1-.19-.17-.33-.18-.06-.01-.15 0-.28.02-.43.1-.88.22-1.34.4a.6.6 0 0 1-.2.02c-.03 0-.05-.01-.06-.04-.22-.4.45-.68.72-.73.08-.02.22-.03.42-.03a12.63 12.63 0 0 0 .52-.03h.01v-.02ZM6.57 7.57a.02.02 0 0 0 .01-.01.03.03 0 0 0 0-.02c-.12-.11-.2-.21-.18-.37.01-.14.1-.23.23-.27a.01.01 0 0 1 .01 0v.01c-.03.15.05.33.14.44.07.07.1.15.08.25l-.02.03a.07.07 0 0 1-.04.02l-.2.04a.04.04 0 0 1-.05-.01.05.05 0 0 1-.01-.04c0-.03.01-.05.03-.07Z" fill="#FFB135"/><path d="M9.34 7.08h.17a6.84 6.84 0 0 1 1.13.5l.02.02c.01.04 0 .05-.03.05a.45.45 0 0 1-.19-.06 4.45 4.45 0 0 0-.5-.23 8.52 8.52 0 0 1-.61-.26c-.02-.01-.01-.02 0-.02ZM7.43 8.18c-.23-.1-.28-.42-.23-.65.02-.1.15-.15.24-.19.27-.1.57-.19.89-.24.12-.02.25-.03.31.1.12.24.15.48.1.72-.1.41-.45.43-.8.48-.1.01-.16 0-.24-.06a1.32 1.32 0 0 0-.27-.16Z" fill="#FB1848"/><path d="M6.24 7.51c-.17.04-.36.1-.55.2H5.6L5.6 7.7c-.06-.06-.07-.13-.04-.19a.5.5 0 0 1 .4-.3c.18-.03.24.16.3.3ZM8.92 10.8c.04 0 .04-.01 0-.03-.56-.32-1.2-.26-1.85-.25-.13 0-.18-.07-.22-.2a1.52 1.52 0 0 1-.05-.39l-.01-.48c0-.05-.02-.05-.04 0-.1.18-.14.4-.13.62a71.12 71.12 0 0 0 .02.61c-.18.07-.38.16-.6.29a.82.82 0 0 1-.24.08h-.03a.05.05 0 0 1-.03-.03 1.3 1.3 0 0 1-.06-.35c-.03-.4.03-.77.17-1.12a.6.6 0 0 1 .11-.2c.03-.03.06-.03.1 0l.18.11c.1.05.26.06.32-.05a.02.02 0 0 0 0-.03H6.48c-.07-.01-.15-.1-.18-.16a.3.3 0 0 1-.05-.19c0-.22.25-.27.42-.23.1.02.1.1.15.16.02.04.04.04.04 0 .02-.2.01-.35.18-.47.12-.08.3-.08.42.02.1.1.11.32.06.45-.03.09-.16.18-.2.24l-.01.02h.01a.53.53 0 0 0 .43-.3c.04-.1.07-.23.2-.25l.3-.06c.21-.04.44-.13.57-.3.09-.13.15-.3.17-.47 0-.1 0-.18.04-.25.06-.1.14-.18.23-.24a.05.05 0 0 1 .07.01c.05.1 0 .34-.02.42-.07.29-.22.59-.43.8l-.22.23c-.04.04-.03.06.02.06.13 0 .28.01.38.08h.01a.03.03 0 0 1 0 .04c-.09.06-.2.07-.3.1a.1.1 0 0 0-.05.02.03.03 0 0 0-.01.02.03.03 0 0 0 .01.03c.42.25.77.58.93 1.09h-.01a.29.29 0 0 1-.06-.04.95.95 0 0 0-.45-.25c-.04 0-.05.01-.02.05.11.16.2.32.24.5.01.03 0 .04-.03.02a.7.7 0 0 0-.5-.15.02.02 0 0 0 0 .02l.22.23c.1.1.14.24.1.4-.03.1-.17.22-.25.29v.01c.2.02.4 0 .52-.17a.02.02 0 0 1 .01 0h.01l.03.1c.04.3-.02.57-.2.82-.3.44-.69.55-1.2.52a1.57 1.57 0 0 1-.75-.24H7.3v.01l.02.36c0 .04-.01.05-.05.03l-.47-.32a.02.02 0 0 0-.02 0v.16c.02.24.07.47.15.71v.1h-.01c-.4-.12-.82-.51-.83-.98a5.75 5.75 0 0 1 0-.61c-.1.07-.43.25-.45-.01-.01-.14.07-.23.17-.34.47-.5 1.2-.67 1.87-.72.14-.02.32-.02.54 0l.7.04Z" fill="#FFB135"/><path d="m8.46 7.63.07-.15c.02-.05.04-.05.05 0 .03.13 0 .29-.04.42-.05.2-.18.32-.39.34a.03.03 0 0 1-.02-.01.03.03 0 0 1 0-.03c.02-.12.22-.34.33-.57Z"/><path d="M7.78 7.7c-.03.09-.16.41-.28.3-.1-.07-.1-.27-.06-.37.07-.21.43-.27.34.06Z" fill="#fff"/><path d="M11.14 8.93a.02.02 0 0 0 .01 0l.01-.01c.03-.15 0-.31 0-.5V8.3l.02-.02.12-.1v-.02a.02.02 0 0 0 0-.01c-.15-.12-.4-.14-.56-.11a.03.03 0 0 1-.03-.01V8a.6.6 0 0 1 .12-.23c.08-.1.23-.12.34-.06.25.14.28.36.28.65 0 .24-.02.42-.03.53-.03.2-.13.47-.3.57-.07.05-.18.03-.2-.06-.02-.07.04-.16.05-.21.03-.14-.01-.24-.1-.34-.07-.09-.1-.18-.02-.27a.07.07 0 0 1 .1 0c.09.08.11.19.15.31 0 .02.02.03.04.04Z" fill="#FFB135"/><path d="M6.33 8.33c0-.05 0-.05-.03-.01-.03.03-.06.1-.12.2a1.68 1.68 0 0 1-.26.36v.02l.02.01h.04l.02.01.01.02a.04.04 0 0 1 0 .04c-.17.17-.41.1-.53-.09a1 1 0 0 1-.15-.53c0-.2.58-.41.76-.47.1-.03.23-.06.28.08.06.14.08.44-.03.58-.02.02-.03.02-.03-.01l.02-.21Z" fill="#FB1848"/><path d="M6.99 8.2a1.53 1.53 0 0 0-.26.36.03.03 0 0 1-.04 0c-.09-.1-.05-.31-.02-.45.02-.08.04-.17.11-.2.11-.03.19.08.23.18.02.05.02.07-.02.11Z" fill="#FFB135"/><path d="M5.76 8.54a.6.6 0 0 1-.14.25.04.04 0 0 1-.04.01.04.04 0 0 1-.02-.02c-.06-.08-.1-.24-.07-.34.03-.1.17-.2.26-.22a.04.04 0 0 1 .03 0 .04.04 0 0 1 .02.03c.02.1 0 .2-.04.29Z" fill="#fff"/><path d="M7.1 8.9a.05.05 0 0 1-.03-.04v-.04l.03-.06a.17.17 0 0 1 .08-.09.13.13 0 0 1 .1 0h.02l.04.04.03.05v.06l-.01.06-.02.06-.03.03h-.04l-.17-.08Z"/><path d="M12.29 9.67c.01.07.04.25 0 .3a.02.02 0 0 1-.02.01h-.02a2.98 2.98 0 0 0-.23-.43.24.24 0 0 1-.04-.16c.04-.16.06-.31.07-.46 0-.04 0-.04.02 0l.15.3a.01.01 0 0 0 .02 0l.09-.3v-.02h.03c.02 0 .03.01.03.04a4 4 0 0 1 0 .41c0 .07 0 .12.04.2.06.06.16.22.15.31 0 .05-.01.05-.04.01a.72.72 0 0 0-.24-.23h-.01v.02Z" fill="#FB1848"/><path d="M6.57 9.2c0 .02-.02.02-.03.03h-.03v-.01a.2.2 0 0 1-.08-.1v-.07L6.44 9a.13.13 0 0 1 .1-.07c.04 0 .09 0 .12.03h.01L6.7 9v.03l-.12.19ZM7.47 11.45a3.28 3.28 0 0 1-1.04.2.02.02 0 0 1 0-.03.28.28 0 0 1 .09-.07c.25-.15.46-.24.64-.26a6.77 6.77 0 0 1 .65-.07c.07.01.07.03.01.07-.08.05-.2.1-.35.16Z"/></svg>