<!-- by TradingView --><svg width="18" height="18" viewBox="0 0 18 18" xmlns="http://www.w3.org/2000/svg"><path fill="url(#awnolqyim)" d="M0 0h18v18H0z"/><path fill-rule="evenodd" d="M12.1 7.73v-.01a4.2 4.2 0 0 0-.01-3.28c-.01-.03-.02-.03-.03 0l-.19.37c-.26.55-.53 1.1-.87 1.6-.44.67-1.04 1.12-1.88.66-.27-.15-.2-.69-.15-.92a4.2 4.2 0 0 1 .5-1.2h-.03a403.92 403.92 0 0 0-1 1.18c-.19.2-.38.35-.58.46-.18.1-.35.11-.51.04-.23-.1-.42-.28-.41-.54 0-.28.19-.62.34-.9.01-.02 0-.03-.02-.02-.9.29-1.64.84-2.18 1.59a5.24 5.24 0 0 0-1.06 3.38c.11 1.22.7 2.17 1.77 2.85.31.2.65.36 1 .48.9.3 1.81.48 2.73.52.53.03 1.04-.03 1.54-.16.35-.1.66-.25.93-.45a5.57 5.57 0 0 0 1.35-6.88c-.01-.03-.02-.03-.03 0-.15.6-.52 1.15-1.2 1.25a.02.02 0 0 1-.02-.02Zm-1.05 4.82-.42-1.56v-.02l.02-.02 1.3-.33.02-.02v-.02l-.2-.7v-.01a.03.03 0 0 0-.02-.02h-.01l-1.3.34h-.02a.03.03 0 0 1-.02-.02l-.26-.96V9.2l.02-.01 1.6-.41.02-.02v-.02l-.2-.7V8h-.03l-2.53.64-.02.02v.02l1.12 4.1.02.01h.02l.87-.22.02-.01v-.02Z" fill="#EA5E18"/><path d="M11.1 3.02c.22.3.43.57.48.94.03.2.02.41 0 .64-.06.52-.47.9-.9 1.17h-.02l.02-.15c.21-.69.33-1.42.35-2.19l.03-.4c0-.04.02-.04.04-.01ZM8.65 4.29a.3.3 0 0 1 .03.03.02.02 0 0 1 0 .02l-.97.13c-.57.07-1.1.23-1.6.48-.03.01-.04 0-.03-.02.12-.25.24-.45.38-.62.55-.69 1.57-.48 2.19-.02Z" fill="#EA5E18"/><path d="M7.01 9.77a.02.02 0 0 0 .01.01.03.03 0 0 0 .02 0l1.36-.34h.02l.01.02.2.7a.03.03 0 0 1-.03.03l-1.33.34a.05.05 0 0 0-.03.02v.03l.25.93.02.02h.02l1.65-.42a.03.03 0 0 1 .02.01v.01l.2.7c0 .02 0 .03-.02.03l-2.54.65c-.04.01-.06 0-.07-.03L5.65 8.42c0-.03 0-.05.04-.05l2.5-.64h.03l.02.02.19.67v.03l-.02.01a339.82 339.82 0 0 0-1.63.43v.03l.23.85Z" fill="#FFFCF8"/><defs><linearGradient id="awnolqyim" x1="3.35" y1="3.12" x2="21.9" y2="24.43" gradientUnits="userSpaceOnUse"><stop stop-color="#1A1E21"/><stop offset="1" stop-color="#06060A"/></linearGradient></defs></svg>