<!-- by TradingView --><svg width="18" height="18" viewBox="0 0 18 18" xmlns="http://www.w3.org/2000/svg"><path fill="#091D40" d="M0 0h18v18H0z"/><path d="M4.85 5.37c.13-.24.4-.37.69-.37h7.69c.57 0 .94.54.69 1.02l-1.22 2.1c-.12.23-.35.43-.63.44h-.96l-1.43 4.92c-.1.3-.4.52-.74.52h-2.1c-.51 0-.88-.45-.75-.9.24-.85.79-2.68 1.23-3.9.32-.92 1.3-1.2 2.3-1.2h.68c-.18-.2-.37-.44-.8-.44H4.84c-.57 0-1.02-.26-.77-.74l.78-1.45ZM11.1 8h.28c.41 0 .83-.15.98-.5l.86-1.48c.13-.3-.17-.48-.53-.48H5.87a.5.5 0 0 0-.46.28l-.42.68c-.13.3-.35.5 0 .5h4.5c.98 0 1.4.6 1.62 1Zm-.83.56H9.5c-.65 0-1.23.25-1.45.86-.35.98-.78 2.47-1.05 3.44-.09.29-.17.57.16.57h1.39a.5.5 0 0 0 .48-.34l1.25-4.53Z" fill="url(#aesd0ymld)"/><defs><linearGradient id="aesd0ymld" x1="5.72" y1="5.7" x2="8.64" y2="14.48" gradientUnits="userSpaceOnUse"><stop stop-color="#FDC85B"/><stop offset="1" stop-color="#A811AA"/></linearGradient></defs></svg>