<!-- by TradingView --><svg width="18" height="18" viewBox="0 0 18 18" xmlns="http://www.w3.org/2000/svg"><path fill="#F0F3FA" d="M0 0h18v18H0z"/><path d="M4.44 5.83c1.16-1.33 3.83-.67 4.91-.2-.07-.3.25-.91 2.18-1.02 2.41-.13 3.83 2.2 3.34 3.67-.5 1.48-1.16.98-1.55 2.43-.4 1.44-1.12 3.13-2.5 3.59a5.04 5.04 0 0 1-4.76-.63c-1.75-1.1-1.29-2.96-.84-3.62-.67-.83-1.95-2.88-.78-4.22Z" fill="#F11E99"/><path d="M4.41 12.57c-.46-1.2.48-2.18 1.01-2.52l2.66-.84 1.64 4.38c-1.35.12-1.36.3-2.26.47-.9.17-2.47 0-3.05-1.5Z" fill="url(#az2ogsusn)"/><path d="M14.13 11.93c-.86 2.17-3.15 1.97-4.77 1.97-1.15 0-2.61.38-3.47-.39a3.06 3.06 0 0 1-.88-1.25c-.64-1.87.75-2.25.91-3.3.17-1.06-3.34-5.54 2.46-5.32 6.18.24 6.61 6.12 5.75 8.29Z" fill="#873DEE"/><path d="M14.44 9.14c-.12.15-.24.26-.36.36-.28.25-.55.48-.75 1.21-.3 1.11-.8 2.37-1.64 3.1-.65.11-1.33.1-1.94.1h-.38c-.31 0-.65.03-1 .07-.61.07-1.24.13-1.78 0a7.8 7.8 0 0 1-.52-.3c-.16-.1-.31-.22-.44-.33a4.1 4.1 0 0 1-.77-1.39c-.09-.52 0-1.03.14-1.42.11-.2.26-.4.4-.58.24-.32.48-.62.54-1 .04-.25-.13-.7-.34-1.23-.27-.72-.6-1.6-.56-2.35 1.31-.69 3.4-.15 4.33.25-.08-.29.25-.9 2.18-1.01h.28a5.91 5.91 0 0 1 2.61 4.52Z" fill="url(#bz2ogsusn)"/><path d="M8.99 5.63A3.47 3.47 0 0 0 5.5 9.09c0 1.9 1.56 3.45 3.49 3.45a3.47 3.47 0 0 0 3.49-3.45c0-1.91-1.56-3.46-3.49-3.46ZM4.44 9.09c0-2.5 2.04-4.52 4.55-4.52 2.5 0 4.55 2.02 4.55 4.52 0 2.5-2.04 4.51-4.55 4.51A4.53 4.53 0 0 1 4.44 9.1Z" fill="#fff"/><defs><linearGradient id="az2ogsusn" x1="4.59" y1="12.17" x2="14.41" y2="9.1" gradientUnits="userSpaceOnUse"><stop stop-color="#4BDAF7"/><stop offset="1" stop-color="#6A63E3"/></linearGradient><linearGradient id="bz2ogsusn" x1="6.23" y1="12.49" x2="13.83" y2="7.68" gradientUnits="userSpaceOnUse"><stop stop-color="#2424E5"/><stop offset="1" stop-color="#781390"/></linearGradient></defs></svg>