<!-- by TradingView --><svg width="18" height="18" viewBox="0 0 18 18" xmlns="http://www.w3.org/2000/svg"><path fill="#F0F3FA" d="M0 0h18v18H0z"/><path d="M9.16 3a5.91 5.91 0 0 1 4.28 1.97A5.99 5.99 0 0 1 15 8.86v.32a6 6 0 0 1-1.5 3.8 3.34 3.34 0 0 0 .58-2.4c-.06-.4-.2-.78-.4-1.14a8 8 0 0 0-1.17-3.57c-.12-.19-.28-.24-.48-.17-.15.06-.3.14-.43.25l-.36.32a9.25 9.25 0 0 0-.84.94 6.47 6.47 0 0 0-1.64-.17 15.42 15.42 0 0 0-1.8-1.4c-.33-.19-.54-.23-.66-.14a.95.95 0 0 0-.25.32l-.15.33a12.14 12.14 0 0 0-.56 2.06c-.43.33-.79.72-1.05 1.16a3.23 3.23 0 0 0-.1 3.26A6.02 6.02 0 0 1 3 9.2v-.33a6.07 6.07 0 0 1 3.36-5.25c.76-.38 1.59-.58 2.48-.61h.32Z" fill="#FFD56C"/><path d="m6.3 6.5.12-.4c.02-.07.04-.11.06-.13a.13.13 0 0 1 .13-.02 14.8 14.8 0 0 1 .84.82c.09.09.16.18.23.29.02.03.04.07.04.12.02.08-.01.15-.09.2l-.24.1-.6.18a5.59 5.59 0 0 0-.8.32c-.06-.01-.08-.05-.06-.11L6.3 6.5ZM12.42 6.85a96.41 96.41 0 0 1 .4 1.57h-.04a5.45 5.45 0 0 1-.6-.28 121.8 121.8 0 0 1-1.34-.78c-.03-.04 0-.1.06-.16a6.68 6.68 0 0 1 1.08-.8c.06-.04.12-.06.16-.05.08.01.14.07.18.17l.1.33Z" fill="#F08DB1"/><path d="M6.53 9.57c.25-.1.5-.15.74-.17.05 0 .08 0 .1.03.03.02.03.05.02.09-.01.03-.03.06-.06.07a9.17 9.17 0 0 0-.84.37.4.4 0 0 1-.18.01c-.07-.01-.1-.06-.1-.13.01-.05.02-.09.05-.11a.85.85 0 0 1 .27-.16ZM11.1 10.16c.1.06.17.13.22.21.03.03.03.07.02.12 0 .07-.05.1-.12.1a.4.4 0 0 1-.17-.04 9.22 9.22 0 0 0-.73-.56c-.03-.02-.04-.04-.05-.08 0-.04.01-.06.04-.08.03-.02.06-.02.1-.01.24.08.46.19.69.34ZM8.86 10.07c.02 0 .03 0 .04.03.1.17.22.25.36.22a.6.6 0 0 0 .14-.06c.04-.02.07-.01.1.02.01.03 0 .06-.02.08a.42.42 0 0 1-.34.1.43.43 0 0 1-.29-.2v-.01h-.02c-.1.1-.2.14-.32.13a.42.42 0 0 1-.31-.16c-.02-.03-.02-.05 0-.08.04-.03.07-.03.1 0l.12.09c.14.06.27 0 .4-.14.01-.02.03-.03.04-.02Z" fill="#1D1D1B"/></svg>