<!-- by TradingView --><svg width="18" height="18" viewBox="0 0 18 18" xmlns="http://www.w3.org/2000/svg"><path fill="#F0F3FA" d="M0 0h18v18H0z"/><path d="M7.9 4 6.5 5l5-.67L7.9 4Z" fill="#C6E9F4"/><path d="m10.25 7.17-1.56-.5 2.81-2.34-1.25 2.84Z" fill="#42C6EA"/><path d="M8.69 6.67 6.5 5 4 10.33l4.69-3.66Z" fill="#42AADB"/><path d="M10.1 7.67 4 10.33h5.63l.46-2.66Z" fill="#2A4D9B"/><path d="m9.63 10.33.78-2.83L14 9l-4.38 1.33Z" fill="#1B6DB7"/><path d="m14 9-2.5-4.67-.94 2.84L14 9Z" fill="#2589C9"/><path d="m9 14 .63-3.67L14 9l-5 5Z" fill="#243E81"/><path d="M9.63 10.33H4L9 14l.63-3.67Z" fill="#1D1F50"/><path d="m10.1 7.33-1.41-.66L4 10.33l6.1-3Z" fill="#1996CE"/><path d="M8.69 6.67 6.5 5l5-.67-2.81 2.34Z" fill="#7CD1EC"/></svg>