<!-- by TradingView --><svg width="18" height="18" viewBox="0 0 18 18" xmlns="http://www.w3.org/2000/svg"><path fill="url(#a)" d="M0 0h18v18H0z"/><path d="M6 10.8c-.03-.03-.04-.04-.04-.07a10.21 10.21 0 0 1-.04-.5h-.01c-.02 0-.03 0-.03.02V10.73h-.02a.13.13 0 0 1-.12-.05 7.63 7.63 0 0 1-.16-.27l.06-.36.01-.02c.12-.04.2-.1.25-.14.18-.19.44-.43.5-.7.03-.06.04-.13.06-.2.02-.09.01-.19.04-.28.04-.17 0-.25-.04-.4 0-.03 0-.04.02-.02l.3.25h.04c.01 0 .02 0 .02-.02V8.5a.4.4 0 0 0-.1-.1 1.3 1.3 0 0 1-.2-.18c-.02-.03 0-.08-.03-.1-.02-.05-.07-.07-.14-.11a.23.23 0 0 1-.09-.1.91.91 0 0 1-.09-.23c-.03-.21-.02-.52.07-.76l.02-.02a.62.62 0 0 1 .15-.05c.18 0 .37 0 .57-.04.2-.03.34-.14.44-.31.11-.2.06-.37.04-.57a2.25 2.25 0 0 0-.52-1.06 5.23 5.23 0 0 0-.52-.5c-.02 0-.01-.02.01-.02h.12c.2.01.37.04.53.08.14.03.27.12.42.18.18.07.35.2.52.37.07.08.18.15.33.24l.5.24.19.12c.12.09.14.22.14.38a.7.7 0 0 1-.05.37c-.08.16-.21.32-.3.46l-.27.46a.67.67 0 0 0-.1.2c-.03.14.03.25.08.39.02.04 0 .07-.02.1a1.12 1.12 0 0 0-.23.73v.01h.03c.02 0 .03-.02.03-.04.05-.35.12-.59.38-.78l.22-.16.43-.28a3.9 3.9 0 0 1 .47-.2c.24-.04.42-.07.55-.07.23 0 .46-.01.69-.05a.9.9 0 0 0 .32-.13.7.7 0 0 0 .3-.54.94.94 0 0 0-.06-.47 9.63 9.63 0 0 0-.4-.76 4.02 4.02 0 0 0-.9-1.16v-.01l.02-.01A9.3 9.3 0 0 1 10.8 4c.1 0 .17.01.22.03a10.57 10.57 0 0 1 1.25.78c.2.15.38.33.55.54.07.1.13.2.18.31a2.59 2.59 0 0 1 .17.93c.02.3-.11.53-.3.72-.13.14-.25.24-.33.31l-.19.1c-.12.06-.28.1-.4.14a.49.49 0 0 1-.18.03c-.09 0-.17.03-.27.02h-.83c-.14 0-.26.1-.4.21a.56.56 0 0 0-.21.44v.27c0 .04 0 .07.02.1l.12.25c.04.08.07.08.1 0a.16.16 0 0 1 .1-.1c.15-.05.24-.07.27-.07h.42c.05 0 .1 0 .13.03.22.1.4.25.56.44l.2.23c.13.13.28.25.45.34.07.04.14.05.22.05h.48l.18-.01a11.19 11.19 0 0 1 .68.01.34.34 0 0 1-.05.1c-.1.1-.19.2-.26.32-.16.25-.34.47-.65.49h-.34a.3.3 0 0 1-.14-.04c-.18-.1-.34-.2-.47-.32a1.1 1.1 0 0 0-.34-.16l-.2-.06a.53.53 0 0 0-.19-.04 2.3 2.3 0 0 1-.54-.1 1.84 1.84 0 0 0-.38-.06c-.18-.01-.32.07-.45.21-.01.02-.02.01-.03 0-.04-.18-.06-.34-.15-.5a132.3 132.3 0 0 1-.5-.5c-.11-.1-.24-.06-.37 0a.06.06 0 0 0-.03.03v.01c-.01.03 0 .04.02.03.1-.02.19-.08.29-.02l.11.1.33.3c.12.12.16.25.19.43l.05.21.01.1.1.37c.03.14.07.22.18.29.1.06.21.1.32.12a25.65 25.65 0 0 1 .42.05 53.43 53.43 0 0 0 1.2 0 .84.84 0 0 1-.26.15c-.1.03-.25.08-.35.13a2.88 2.88 0 0 1-.39.13H11a2.23 2.23 0 0 1-.65-.04c-.03-.01-.09-.02-.13-.05-.1-.07-.14-.18-.24-.28a4.1 4.1 0 0 0-.7-.55c-.15-.1-.32-.17-.46-.25a.95.95 0 0 1-.15-.1c-.1-.1-.2-.12-.31-.07a3.63 3.63 0 0 0-.37.19l-.22-.19c-.04-.04-.07-.1-.08-.18 0-.03-.02-.06-.05-.06l-.02.02c0 .14.03.25.13.31.09.07.15.13.18.19l.02.01.04.04.63.55c.09.09.17.09.3.1.15.03.28.11.37.25l.24.38c.09.13.15.24.2.34a9.12 9.12 0 0 1 .17.52h-.01a1.86 1.86 0 0 1-.6-.58l-.2-.27c-.06-.1-.18-.24-.29-.25h-.4a2.52 2.52 0 0 1-.65-.47 5.38 5.38 0 0 0-.2-.31 1.1 1.1 0 0 1-.16-.44c0-.04-.04-.11-.11-.23-.01-.02-.03-.02-.04 0v.01a2.16 2.16 0 0 0 0 .06c.04.12.1.23.1.33v.03c.05.13.12.26.2.37l.06.1v.03l-.24.37a.68.68 0 0 0-.12.34c-.01.16-.02.26-.06.37 0 .03-.02.03-.03 0l-.14-.35a.3.3 0 0 1 0-.2 7.37 7.37 0 0 0 .2-.89c0-.1.06-.08.12-.13v-.02l-.01-.03h-.23a28.84 28.84 0 0 0-.54 0c-.05-.3-.1-.55-.18-.76 0-.02-.02-.03-.05-.02v.03c0 .13.03.21.08.38l.05.22c.01.1.02.21.05.3a5.27 5.27 0 0 1 .16.48l.26.62a10.16 10.16 0 0 0 .26.7.02.02 0 0 1 0 .02.02.02 0 0 1-.01.01.27.27 0 0 1-.17-.06 1.7 1.7 0 0 1-.4-.49c-.07-.18-.12-.35-.2-.52a7.27 7.27 0 0 0-.3-.53c-.05-.07-.19-.33-.11-.4v-.02Z" fill="#DC6062"/><path d="M7.47 4.97c.02.03.03.07.02.11l-.02.02a.48.48 0 0 1-.17 0c-.08-.01-.13-.12-.07-.2.06-.06.13-.04.19.02l.05.05ZM11.62 5.33c-.08.02-.22.03-.23-.09-.02-.11-.03-.22.07-.26.04-.01.07 0 .1.03.07.08.13.17.11.27 0 .03-.02.04-.05.05Z"/><path d="M11.6 5.22v.01l-.03.02a.08.08 0 0 1-.1-.02.1.1 0 0 1 0-.14h.01l.12.13Z" fill="#fff"/><path d="M8.03 5.36c-.01.04-.01.06-.05.07-.08 0-.22 0-.16-.14.04-.1.11-.12.22-.08l.01.02c0 .03 0 .08-.02.13ZM12.44 5.32c0 .06.04.1.08.14l.02.03c.03.06-.01.11-.07.12-.12.01-.23-.01-.24-.16-.01-.1.02-.16.1-.19.05-.02.1-.01.11.06Z"/><path d="M12.44 5.5c.01.01.01.02-.01.02h-.05a.08.08 0 0 1-.06-.03c-.02-.03-.02-.07 0-.12 0-.02.01-.02.03-.03l.01.02c0 .04.03.08.08.13Z" fill="#fff"/><path d="M7.87 5.94a.05.05 0 0 1-.01.04l-.01.01h-.02L7.75 6a.3.3 0 0 1-.08 0 .23.23 0 0 1-.06-.02.14.14 0 0 1-.05-.04.09.09 0 0 1-.02-.05c0-.04.02-.07.05-.1a.28.28 0 0 1 .14-.05h.11l.01.02v.02l.02.16ZM8.33 6.02h-.01L8.3 6v-.02l-.01-.02v-.03a.13.13 0 0 1 .13-.13h.03a.13.13 0 0 1 .14.13v.03a.06.06 0 0 1-.01.03l-.02.01h-.01l-.22.01Z"/><path d="M8.45 5.94c.03 0 .06-.01.06-.03 0-.01-.03-.03-.06-.02-.04 0-.06.01-.06.03l.06.02Z" fill="#fff"/><path d="M8.37 6.6c.05.05.08.07.08.14a1.92 1.92 0 0 1-.01.12h-.01c-.09.02-.28.04-.27-.11 0-.12.08-.26.2-.15Z"/><path d="M8.26 6.79a.01.01 0 0 1-.01 0v-.1c.02-.02.03-.03.05-.03.01 0 .03 0 .04.03l.02.07a.02.02 0 0 1 0 .02h-.11Z" fill="#fff"/><path d="M7.55 6.94h-.02v-.01l-.01-.02V6.9c0-.05.01-.1.04-.13a.15.15 0 0 1 .19-.04l.05.05c.01.01.03.03.03.05l.02.07a.04.04 0 0 1-.02.03v.01h-.28ZM6.77 6.97l.1.1c.01.07 0 .14-.08.15-.06 0-.16.02-.2-.02l-.02-.03a.28.28 0 0 1 .03-.19c.04-.08.11-.06.17 0Z"/><path d="m6.66 7.04.02-.01a.27.27 0 0 1 .08.04l.02.02v.02c0 .01-.01.02-.03.02h-.09l-.01-.01v-.08Z" fill="#fff"/><path d="M12.03 7.22c.07-.03.16-.07.22-.03.17.1.1.3-.06.35a.58.58 0 0 1-.22.02c-.1-.01-.1-.1-.1-.18 0-.1.08-.12.16-.16Z"/><path d="M12.21 7.27a.03.03 0 0 1 .03 0v.02h.01v.03a.1.1 0 0 1 0 .08.12.12 0 0 1-.07.05l-.1.03H12a.1.1 0 0 1-.05-.07V7.4a.04.04 0 0 1 0-.02l.01-.02h.01l.24-.08Z" fill="#fff"/><path d="M7.3 7.38c.14.07.62.34.37.57a.18.18 0 0 1-.12.04h-.28a.6.6 0 0 1-.18-.07c-.13-.07-.16-.22-.13-.36 0-.02.02-.04.06-.07.08-.05.15-.09.21-.11.02-.01.05-.01.07 0Z"/><path d="M7.28 7.83c.05.02.1.02.16 0l.02-.02a.21.21 0 0 0 0-.15v-.02l-.07-.04c-.01 0-.02-.01-.01-.03v-.01h.05c.08.07.18.12.22.22.03.06-.04.13-.1.13-.19 0-.28.02-.42-.08-.07-.04-.1-.11-.1-.2.01-.07.1-.1.16-.13.05-.02.1.02.14.04.03.02.03.03 0 .03-.1.03-.07.14-.06.24l.01.02Z" fill="#fff"/><path d="M5.63 9.92c0-.25-.1-.72-.4-.72a14.37 14.37 0 0 1-.19-.02 3.28 3.28 0 0 0-.13-.39.64.64 0 0 1-.03-.2c0-.16-.02-.43.08-.54a.7.7 0 0 1 .16-.12c.13-.08.23-.07.4-.07.13 0 .27-.01.39.02.05.02.12.02.18.05.08.04.23.13.25.23l.09.31c.04.12-.02.2-.03.3 0 .08-.02.2-.06.34a.62.62 0 0 1-.07.2c-.09.14-.23.31-.41.5a.48.48 0 0 1-.22.13l-.01-.01v-.01Z" fill="#DC6062"/><path d="M9.22 8.29c.15-.08.26-.14.43-.12.04 0 .05.04.06.08 0 .08.02.24-.05.3a.65.65 0 0 1-.2.09c-.15.04-.28.08-.42.06l-.02-.02c-.05-.2.05-.31.2-.4Z"/><path d="M9.32 8.57a.39.39 0 0 1-.2.05L9.1 8.6l-.01-.02c0-.1.08-.17.14-.2h.02c0 .09.03.14.08.17.02 0 .05 0 .08-.02l.01-.02c.01-.07 0-.13-.05-.18a.03.03 0 0 1 0-.03.39.39 0 0 1 .24-.06l.02.02c0 .07 0 .17-.04.21-.04.04-.18.1-.24.09h-.03Z" fill="#fff"/><path d="M7.89 9.17c.12 0 .2 0 .35-.02.2-.01.44.15.4.4-.02.07-.06.1-.13.11l-.3.03-.43.01c-.12 0-.21-.02-.22-.18 0-.1-.02-.21.06-.26a.5.5 0 0 1 .27-.09ZM11.21 9.18c.07.04.12.26.03.3a.17.17 0 0 1-.16 0 .2.2 0 0 1-.1-.14c-.02-.11.16-.2.23-.16Z"/><path d="M8.11 9.59c.15-.03.07-.2.04-.3a.04.04 0 0 1 0-.03h.02c.14-.05.33.01.38.18.02.08 0 .13-.08.14a1.61 1.61 0 0 1-.36.02v-.01ZM7.94 9.36a.43.43 0 0 0 0 .23v.02H7.7c-.07-.01-.07-.16-.06-.22 0-.03.02-.06.04-.07a.5.5 0 0 1 .33-.06l.02.02-.01.04H8l-.06.02-.01.02Z" fill="#fff"/><path d="M5.37 9.35c.13.15.17.35.18.56 0 .12 0 .26-.05.42a.58.58 0 0 1-.08.2c-.03.05-.1.08-.13.1a.29.29 0 0 1-.24.05 2.57 2.57 0 0 1-.4-.12.4.4 0 0 1-.25-.38c0-.19.02-.48.16-.58l.37-.26a.3.3 0 0 1 .14-.06c.1-.01.23-.02.3.07Z" fill="#6FD4FE"/><path d="M11.2 9.41h-.04a.32.32 0 0 1-.07-.05l-.01-.02v-.02c0-.01.01-.02.03-.02.03 0 .05.01.08.03h.02v.01l-.02.07Z" fill="#fff"/><path d="M4.8 9.49h-.01a.05.05 0 0 0 0 .07l.07.12c.02.02.05.03.07 0a.05.05 0 0 0 .01-.07l-.08-.11a.04.04 0 0 0-.07-.01ZM5.3 9.5l-.13.1a.06.06 0 0 0-.01.08c.02.02.05.03.07.01l.13-.11a.06.06 0 0 0 0-.08.04.04 0 0 0-.06 0Z"/><path d="M4.21 10.4a1.15 1.15 0 0 0 0 .42h-.02a.18.18 0 0 1-.06-.07l-.09-.16a.4.4 0 0 1-.04-.16c0-.15-.01-.29.05-.43a.78.78 0 0 1 .34-.36l.01.01v.01l-.05.18c-.03.1-.03.26-.04.37l-.01.02c-.04.06-.08.1-.09.17Z" fill="#DC6062"/><path d="M4.72 9.84c.03.02.07.02.08 0 .02-.03.02-.07-.01-.1-.03-.02-.06-.01-.08.01-.02.03-.01.07.01.09ZM5.2 9.9c.01.04.05.05.07.03.02-.02.02-.05 0-.09-.02-.03-.05-.04-.07-.02-.03.02-.03.05 0 .09ZM4.89 10.24c-.07-.03-.12.02-.12.1v.02l-.01.01h-.04c-.08-.01-.07-.1-.02-.16a.35.35 0 0 1 .1-.09c.08-.03.18.04.27.1.08.04.13.1.16.2.02.03 0 .05-.03.06h-.02c-.01 0-.02 0-.02-.02a.5.5 0 0 0-.27-.22ZM12.07 10.23c.06.05.16.15.12.24-.03.06-.08.05-.13.05-.13.01-.2-.06-.19-.21 0-.03.02-.06.05-.09.05-.04.1-.04.15 0ZM13 10.31a.06.06 0 0 1 .01-.04l.02-.01H13.15c.03 0 .07 0 .1.03a.1.1 0 0 1 .04.08v.01a.1.1 0 0 1 0 .05l-.04.04a.16.16 0 0 1-.05.02l-.06.01h-.1a.05.05 0 0 1-.03-.02.06.06 0 0 1-.01-.04v-.13ZM9.59 10.35c.03.04.05.1.05.15l-.01.02c-.06.05-.23.03-.3.03l-.02-.01v-.01c-.06-.15-.02-.23.11-.27.1-.02.11 0 .17.1Z"/><path d="M12.11 10.4v.01s-.01.02-.03.02a.08.08 0 0 1-.1-.01.1.1 0 0 1-.02-.1.1.1 0 0 1 .02-.04l.13.12Z" fill="#fff"/><path d="M9.04 10.5v.03l-.03.02H9a.4.4 0 0 1-.18.05c-.06 0-.1-.03-.1-.06v-.06l.03-.06a.37.37 0 0 1 .07-.06.5.5 0 0 1 .09-.05h.06v.02l.07.17Z"/><path d="M10.42 10.88c-.07-.12-.26-.1-.36-.05a.02.02 0 0 1-.01 0l-.01-.02-.04-.22v-.03a.4.4 0 0 1 .13-.14h.03l.2.08c.25.05.4.08.57.16l.02.03.01.02v.4c0 .1.05.14.12.22l.01.01v.02h-.02c-.1.03-.2.01-.28-.03-.16-.08-.27-.28-.37-.45Z" fill="#DC6062"/><path d="M8.81 10.5a.06.06 0 0 1 .06-.06.07.07 0 0 1 .07.06H8.8Z" fill="#fff"/><path d="M5.28 10.92c.05-.04.06-.1.05-.17v-.04l.03-.02a.26.26 0 0 0 .11-.09c.03-.04.05-.04.07 0l.01.04c.02.04.02.08 0 .13a2.5 2.5 0 0 0-.1.23l-.03.06c-.05.05-.23.02-.27 0-.05-.02-.05-.04 0-.06.03 0 .07-.04.13-.08ZM5.5 12.86l-.02-.06a114.59 114.59 0 0 1-.07-.63v-.5c0-.05.01-.09.03-.12l.12-.25.16-.32c.02-.06.07-.1.14-.12h.01l.01.01a.03.03 0 0 1 .01.02c0 .1.04.2.1.3a18.2 18.2 0 0 1 .19.39c-.1.07-.24.16-.31.27l-.07.12c-.04.04-.1.15-.2.32-.09.2-.12.38-.08.57H5.5ZM9.95 11.62c-.07.05-.11.17-.13.24a1.36 1.36 0 0 1-.13.34.02.02 0 0 1-.02 0v-.01l-.25-.37a.21.21 0 0 1-.04-.13v-.52c0-.03 0-.04.03-.02.19.12.37.27.54.44.02.02.01.03 0 .03Z" fill="#DC6062"/><path d="M10.66 11.8h-.04a.06.06 0 0 1-.01-.04v-.02a.2.2 0 0 1 .03-.13.15.15 0 0 1 .04-.04.13.13 0 0 1 .06-.01H10.81l.05.04.04.05.01.06v.02a.06.06 0 0 1-.01.04l-.02.02h-.02l-.2.02Z"/><path d="M11.57 12.32c-.07-.08-.14-.19-.23-.25a9.5 9.5 0 0 1-.13-.1v-.02c.1-.04.2-.08.27-.02.1.08.2.15.3.2l.38.25c.11.07.2.15.3.23l.02.01c.01.03 0 .05-.03.04l-.18-.07-.45-.12a.54.54 0 0 1-.25-.15ZM9.44 12.74l-.11.22v.01h-.01v-.33h.01l.1.09h.01v.01Z" fill="#DC6062"/><defs><linearGradient id="a" x1="3.35" y1="3.12" x2="21.9" y2="24.43" gradientUnits="userSpaceOnUse"><stop stop-color="#1A1E21"/><stop offset="1" stop-color="#06060A"/></linearGradient></defs></svg>