<!-- by TradingView --><svg width="18" height="18" viewBox="0 0 18 18" xmlns="http://www.w3.org/2000/svg"><path fill="url(#aifits4ni)" d="M0 0h18v18H0z"/><path d="M11.3 10.73a.44.44 0 0 1 .31-.15l.27-1.52a.5.5 0 0 1-.08-.05l-1.15 1.04a.47.47 0 0 1 .04.34l.62.34Zm2.65 1.17L12.32 9a.4.4 0 0 1-.24.1l-.27 1.51c.07.03.13.09.19.16a.46.46 0 0 1-.11.65.46.46 0 0 1-.23.07.41.41 0 0 1-.23-.06.4.4 0 0 1-.17-.16.45.45 0 0 1-.05-.36l-.62-.34a.43.43 0 0 1-.29.15L10.13 12c.1.04.18.1.23.2.05.1.07.2.06.3h3.19a.39.39 0 0 0 .34-.2.41.41 0 0 0 0-.4ZM9.02 8.51a.47.47 0 0 1 0-.48L7.47 6.5a.48.48 0 0 1-.15.07l-.12 3.66.12.05 1.7-1.77Zm-1.34-2.4c0 .09-.02.17-.06.24l1.54 1.53a.44.44 0 0 1 .54.04c.08.08.13.18.14.3l1.8.25c.02-.06.05-.1.1-.15a.5.5 0 0 1 .14-.1L9.34 3.7a.39.39 0 0 0-.68 0L7.5 5.75c.06.05.1.1.14.16a.5.5 0 0 1 .04.2Zm2.16 4.31-2.3.3a.7.7 0 0 1-.02.09l2.14 1.3a.46.46 0 0 1 .28-.13l.17-1.29a.38.38 0 0 1-.16-.1.38.38 0 0 1-.1-.17Zm-.44-1.7a.45.45 0 0 1-.23-.06l-1.7 1.77.05.08 2.3-.3c0-.05.02-.11.05-.17.03-.06.07-.1.12-.14l-.51-1.19-.08.01ZM7.42 11a.4.4 0 0 1-.17.11.47.47 0 0 1-.2.03.39.39 0 0 1-.2-.08.44.44 0 0 1-.14-.16.49.49 0 0 1-.05-.2c0-.07 0-.15.04-.21a.44.44 0 0 1 .31-.25l.12-3.66-.06-.03-3.02 5.36a.41.41 0 0 0 .14.55c.06.03.13.05.2.05h5.14v-.07c0-.05 0-.1.02-.14L7.42 11Zm2.84-1.17c.1 0 .18.02.26.08l1.14-1.04a.41.41 0 0 1-.05-.17l-1.8-.26a.46.46 0 0 1-.14.2l.5 1.2c.03-.01.06-.02.09-.01Z" fill="#fff"/><defs><linearGradient id="aifits4ni" x1="3.35" y1="3.12" x2="21.9" y2="24.43" gradientUnits="userSpaceOnUse"><stop stop-color="#1A1E21"/><stop offset="1" stop-color="#06060A"/></linearGradient></defs></svg>