<!-- by TradingView --><svg width="18" height="18" viewBox="0 0 18 18" xmlns="http://www.w3.org/2000/svg"><path fill="url(#a)" d="M0 0h18v18H0z"/><path d="M9.56 3.5H8.37L9.73 8h1.69l1.81-1.5H10.7l-.85-2.78a.3.3 0 0 0-.28-.22ZM4.38 6.8 4 8h4.28l.51-1.72L8.09 4l-.76 2.56H4.65c-.12 0-.23.1-.27.23Zm9.6 1.1-.37-1.26-3.42 2.83.55 1.75 1.84 1.44-.84-2.65 2.15-1.76c.1-.09.13-.23.1-.35Zm-1.52 5.27-.97.77a.26.26 0 0 1-.34 0L8.98 12.2l-2.04 1.68.7-2.37L9 10.4l3.46 2.77Zm-5.93.77-.96-.79a.33.33 0 0 1-.1-.35l.84-2.8-2.1-1.62H6.5l1.38 1.09-1.34 4.47Z" fill="#FDFDFE"/><defs><linearGradient id="a" x1="0" y1="9" x2="18" y2="9" gradientUnits="userSpaceOnUse"><stop stop-color="#A618FF"/><stop offset="1" stop-color="#029CFE"/></linearGradient></defs></svg>