<!-- by TradingView --><svg width="18" height="18" viewBox="0 0 18 18" xmlns="http://www.w3.org/2000/svg"><path fill="url(#a)" d="M0 0h18v18H0z"/><path d="M8.42 4.46c-.18.14-.38.26-.59.37-.34.18-.7.36-1.06.52.28-.25.59-.47.92-.64l.73-.25Z" fill="#7C868F"/><path d="M11.5 4.45a3.78 3.78 0 0 0 .56.93c.22.32.36.55.42.7a3.39 3.39 0 0 1 0 1.75l-.42.33c-.25.2-.07.37.08.5l.06.07c-.17-.11-.35-.16-.55-.16h-.02v-.02l-.01-.03V8.5a2 2 0 0 1 .44-.42l.3-.27c.05-.05.1-.14.13-.26.1-.34.08-.65-.05-.93.14.45.12.92-.18 1.28a3.28 3.28 0 0 0-.72.64v.03l.02.02h.02c.26 0 .5.06.69.3-.41-.16-.78-.1-1.11.16-.16.01-.98.08-1-.2-.02-.1.17-.18.24-.2l.28-.09c.32-.1.63-.2 1-.35.2-.21.42-.48.47-.79.1-.64-.59-.79-1.02-.83l-.87-.06c-.5-.01-.91.09-1.23.54l-.45.61c-.13.18-.35.4-.65.65-.28.14-.56.24-.86.3l.23-.11c-.2.02-.58.03-.6-.25l-.03-.44c-.02-.3-.2-.42-.36-.52-.13-.09-.27-.17-.3-.35l-.16.06-.04-.1-.2-.2a6.67 6.67 0 0 1 1.16-1.37c.36-.16.72-.34 1.06-.52.21-.1.4-.23.59-.37.22-.1.42-.21.62-.35a.83.83 0 0 1 .3-.09c.72-.07 1.54.03 2.17.43Z" fill="#4E4F55"/><path d="M11.68 8.21c-.53.08-1.08.14-1.6.26-.38.1-.72.24-1.06.33-.47.12-.4-.42-.81-.4l-.41.07.13-.14c.3-.26.52-.47.65-.65l.45-.61c.32-.45.72-.55 1.23-.54.28 0 .57.03.87.06.43.04 1.12.19 1.02.83-.05.3-.27.58-.47.8Z" fill="#3D4248"/><path d="m5.8 6.92.05.1-.64.86a3.1 3.1 0 0 0-.34.59l.1-.58c.2-.4.4-.8.64-1.17l.2.2Z" fill="#3F6877"/><path d="m12.2 8.73.22.02.07.27c-.1.53-.28 1-.64 1.38-.18.19-.42.33-.52.6-.1.3-.22.58-.33.87-.11.29-.3.48-.52.67a3.9 3.9 0 0 1-.31.22c-.1.07-.21.15-.3.24H7.58l1.2-.4c.35-.13.67-.34.97-.62l.43-.36a.75.75 0 0 0 .19-.23c.07-.14.12-.26.21-.33.12-.1.31-.13.43-.16a.62.62 0 0 0 .23-.1l.5-.4c.3-.26.4-.52.53-.88a.32.32 0 0 0 .02-.12l-.03-.51c-.2-.24-.43-.3-.69-.3h-.02l-.02-.02a.05.05 0 0 1 0-.05c.22-.25.46-.45.72-.62.3-.36.32-.83.18-1.28.13.28.15.59.05.93a.64.64 0 0 1-.13.26c-.22.24-.53.4-.74.7v.04l.02.01h.01c.2 0 .38.06.55.17Z" fill="#2B5161"/><path d="M6 6.96c.1.4.64.32.67.87l.03.44c.02.28.4.27.6.25l-.24.11c.3-.06.6-.16.87-.3l-.13.13-1.25.47a.05.05 0 0 0-.03.04l-.14.44v.04c.02.07.06.12.12.16a3.95 3.95 0 0 0 .7 1.4c-.7.5-1.07 1.06-1.06 1.99H4.89c.42-.72.82-1.46.64-2.35-.1-.5-.24-1.02-.3-1.49a6.32 6.32 0 0 1-.02-1.28l.64-.86.15-.06Z" fill="#42555F"/><path d="m4.98 7.9-.11.57c-.19.46-.25.8-.36 1.36l-.09.68c-.03.45-.1.92-.18 1.4-.06.31-.08.73-.14 1.09H4v-1.2c.05-.62.14-1.28.27-1.97.13-.7.36-1.35.7-1.94Z" fill="#457280"/><path d="M5.21 7.88c-.03.43-.03.86.02 1.28.06.47.2 1 .3 1.5.18.88-.22 1.62-.64 2.34H4.1c.06-.36.08-.78.14-1.1.09-.47.15-.94.18-1.39.02-.22.05-.45.1-.68.1-.56.16-.9.35-1.36.1-.21.2-.4.34-.59Z" fill="#3E5D68"/><path d="M12.52 7.97c-.03-.04-.04-.08-.03-.14-.15.1-.29.21-.42.33-.25.2-.08.37.07.5l.06.07.22.02.18.1h.03l-.08-.18.1.1h.04c.2-.13.19-.54.15-.77l-.32-.03Z" fill="#7C868F"/><path d="M11.68 8.21c-.47.2-.85.3-1.28.44-.07.02-.26.1-.25.2.03.28.85.21 1 .2-.14.2-.02.27.08.43.05.07.03.1-.04.09 0 0-.03 0-.07.03a7.4 7.4 0 0 1-1.76.07l.84-.01c.02 0 .03-.01.02-.03-.05-.2-.46-.17-.6-.12a.49.49 0 0 0-.27.16l-.73-.03-.02.01v.04c.68.08 1.35.1 2.02.07H11c.02 0 .02 0 0 0-.59.38-1.32.26-1.97.36-.59.1-.86.5-1.14 1l-.7-.11a3.95 3.95 0 0 1-.69-1.4.32.32 0 0 1-.12-.16v-.04l.14-.44c0-.02.01-.03.03-.04l1.25-.46c.13-.03.27-.05.4-.06.42-.03.35.51.82.39.34-.1.68-.24 1.05-.33.53-.12 1.08-.18 1.6-.26Z" fill="#394750"/><path d="m12.27 8.89.03.5c0 .05 0 .1-.02.13-.13.36-.23.62-.54.89l-.5.39a.63.63 0 0 1-.22.1c-.12.03-.31.07-.43.16-.1.07-.14.2-.21.33a.75.75 0 0 1-.19.23l-.43.36c-.6.41-1.46.88-1.8-.2a2.58 2.58 0 0 1-.07-.65c.28-.51.55-.91 1.14-1 .65-.1 1.38 0 1.98-.36v-.02h-.4l.93-.06h.05c.23.14.42.2.58-.09.04-.07.03-.13-.03-.2h-.05a.32.32 0 0 0-.19-.28h-.05a.07.07 0 0 0-.04.03.34.34 0 0 0-.03.2c0 .03 0 .06-.02.08a.1.1 0 0 1-.07.05l-.57.12c.04-.02.06-.04.07-.03.07 0 .09-.02.04-.09-.1-.16-.22-.24-.07-.43.33-.27.7-.32 1.1-.16Z" fill="#273E49"/><path d="M13.28 8.15c.04-.7-.16-1.29-.49-1.88l-.02-.04a4.28 4.28 0 0 0-1.26-1.78c.1.27.26.51.42.75l.13.18c.22.32.36.55.42.7a3.39 3.39 0 0 1 0 1.75c0 .06 0 .1.04.14l.32.03c.04.23.05.64-.15.77h-.04l-.1-.1.08.17h-.03l-.18-.1.06.28c.06.17.05.34-.02.5l-.07.19a2.7 2.7 0 0 1-.76 1.17c-.08.08-.1.2-.12.34a.96.96 0 0 1-.12.38c-.14.21-.25.4-.34.56-.08.16-.18.28-.28.41-.1.13-.2.26-.3.43h1.77l.35-.59c.1-.18.23-.3.37-.35a.14.14 0 0 1 .13 0l.05.05.03.07c.05.26.07.53.07.82h.24l.03-.01h.1c.03-.02.03-.05.03-.1-.05-.49-.12-.97-.2-1.45 0-.65-.02-1.3-.17-1.92-.1-.39-.03-.97 0-1.37Z" fill="#457280"/><path d="M10.46 13h-.6l.3-.24c.17-.1.28-.18.32-.22.22-.19.41-.38.52-.67l.33-.87c.1-.27.34-.41.52-.6.36-.38.55-.85.63-1.38.06.17.05.34-.02.5-.2.5-.3.78-.56 1.07l-.27.3c-.16.16-.08.47-.24.71l-.34.56c-.17.3-.39.5-.59.84Z" fill="#3E5D68"/><path d="M6.44 9.46c-.02-.02-.03-.03-.02-.06.03-.11.04-.19.12-.25a.23.23 0 0 1 .23-.04c.02 0 .03.02.04.03.1.16.2.43-.01.54-.07.03-.16 0-.2-.06a.91.91 0 0 0-.16-.16ZM10.62 9.76a12.35 12.35 0 0 1-2.02-.1c0-.02.01-.02.02-.02l.73.03h.01a7.4 7.4 0 0 0 1.76-.07l.57-.12a.1.1 0 0 0 .07-.05.12.12 0 0 0 .02-.08c-.01-.06 0-.13.03-.2l.04-.03h.05c.1.05.17.14.19.27 0 .02 0 .02.02.02h.03c.06.06.07.12.03.2-.16.27-.35.22-.58.09a.09.09 0 0 0-.05-.01l-.92.07Z" fill="#2A2D34"/><path d="M9.36 9.67a.49.49 0 0 1 .26-.17c.14-.04.55-.08.6.13 0 .02 0 .03-.02.03h-.84Z" fill="#42555F"/><path d="M7.9 11.13c0 .29.03.5.07.65.33 1.08 1.18.61 1.79.2-.3.28-.62.5-.97.62l-1.2.4H6.14c0-.93.36-1.49 1.06-2l.7.13Z" fill="#314D59"/><path d="M13.24 13h-1l.35-.59c.1-.18.23-.3.37-.35a.14.14 0 0 1 .13 0l.05.05.03.07c.05.26.07.53.07.82Z" fill="#3E5D68"/><defs><linearGradient id="a" x1="9" y1="0" x2="9" y2="18" gradientUnits="userSpaceOnUse"><stop stop-color="#71C4E2"/><stop offset="1" stop-color="#A8E7F1"/></linearGradient></defs></svg>