<!-- by TradingView --><svg width="18" height="18" viewBox="0 0 18 18" xmlns="http://www.w3.org/2000/svg"><path fill="#181B1E" d="M0 0h18v18H0z"/><path d="M10.26 10.75 11 7l-3.75.74a3.02 3.02 0 0 0-2.47 2.62c-.1.84.2 1.6.72 2.13a1.77 1.77 0 0 1-.5-1.4c.06-.84.7-1.52 1.55-1.64L9 9l-.45 2.45c-.12.84-.8 1.49-1.65 1.56a1.77 1.77 0 0 1-1.4-.51c.53.52 1.3.82 2.14.72a3.02 3.02 0 0 0 2.62-2.47Z" fill="#ED3C59"/><path fill-rule="evenodd" d="m13.32 6.49.65-2.43-2.4.65a5 5 0 1 0 1.76 1.78Zm0 0a5.02 5.02 0 0 0-1.75-1.78l-3.72 1-.35.06a3.94 3.94 0 0 0-3.23 3.65 4.15 4.15 0 0 0 4.34 4.34 3.94 3.94 0 0 0 3.65-3.22l.07-.35 1-3.7Z" fill="#F06F2D"/><path d="M13.33 6.5 14 4l-2.5.66a5.2 5.2 0 0 1 1.83 1.84Z" fill="#F1F2F7"/></svg>