<!-- by TradingView --><svg width="18" height="18" viewBox="0 0 18 18" xmlns="http://www.w3.org/2000/svg"><path fill="url(#au1h3jyui)" d="M0 0h18v18H0z"/><path d="M14 12.87h-.1c-.25 0-.47-.06-.7-.2-.21-.13-.38-.33-.51-.59L9.03 4h-.12c0 .18-.17.62-.5 1.3l-3.09 6.78c-.13.26-.31.46-.53.6-.22.13-.44.2-.67.2H4V13h2.74v-.13h-.12c-.2 0-.34-.05-.44-.16-.09-.12-.13-.22-.13-.32s.01-.2.05-.3L7.02 10h3.68l.87 2.08c.04.1.06.2.06.3 0 .1-.05.21-.15.33-.1.1-.24.16-.43.16h-.12V13H14v-.13ZM10.53 9.4H7.18L8.9 5.51l1.63 3.89Z" fill="#fff"/><defs><linearGradient id="au1h3jyui" x1="3.35" y1="3.12" x2="21.9" y2="24.43" gradientUnits="userSpaceOnUse"><stop stop-color="#1A1E21"/><stop offset="1" stop-color="#06060A"/></linearGradient></defs></svg>