<!-- by TradingView --><svg width="18" height="18" viewBox="0 0 18 18" xmlns="http://www.w3.org/2000/svg"><path fill="url(#a)" d="M0 0h18v18H0z"/><path d="m11.18 6 .08.12.14.2c.26.37.4.77.4 1.2 0 .06 0 .12.02.17-.03-.02-.05.01-.07.1 0-.5-.1-.93-.32-1.3a3.56 3.56 0 0 0-.68-.83 2.15 2.15 0 0 0-.96-.46l-.2-.05a4.2 4.2 0 0 0-.9-.03c-.65.06-1.2.37-1.64.9-.2.25-.37.56-.52.92-.16.4-.2.78-.09 1.18.04.11.1.2.2.28-.01.1 0 .2.03.28l-.05.05-.16-.27c-.03-.06-.08-.07-.14-.05l-.37.16a.4.4 0 0 1-.17.07l.44-.3a.05.05 0 0 0 .03-.05l-.28-1.32a.07.07 0 0 0-.05-.06.07.07 0 0 0-.07.03c-.14.18-.26.44-.51.52a3.9 3.9 0 0 1-1.54.3.08.08 0 0 0-.04.05v.04A3.42 3.42 0 0 1 4.03 9L3.99 9a.02.02 0 0 1-.03 0v-.02a4.45 4.45 0 0 0-.33-1.09v.02A5.87 5.87 0 0 1 3.87 9h-.04V9l-.32-1.46.37-.2c.22-.1.45-.07.69.1a.12.12 0 0 0 .17-.02c.07-.1.15-.17.24-.25.06-.05.16-.1.3-.14.22-.07.51-.2.75-.14a.67.67 0 0 1 .3.28.02.02 0 0 0 .03-.01c.13-.22.16-.4.1-.52a.48.48 0 0 1 .16-.14c.14-.26.3-.49.5-.7.35-.4.79-.63 1.3-.72l.18-.04.17-.03c.46-.04.9.02 1.33.18.3.1.55.27.75.48l.32.34Z" fill="#DFAF9D"/><path d="M9.6 5.15c-.21.32-.47.58-.77.79-.16.1-.26.18-.29.23-.06.08-.13.19-.2.33a.13.13 0 0 1-.07.05.13.13 0 0 1-.1 0l-.07-.02a.07.07 0 0 0-.07.01l-.2.2c0 .02-.03.02-.04 0-.1-.08-.2-.07-.26.03a1.47 1.47 0 0 0-.21.48.05.05 0 0 0 .03.04h.02l.7-.09c.01 0 .03 0 .05.02.04.06.11.1.2.1h1.3c.2 0 .38.02.55.07.03 0 .04 0 .03-.03-.02-.05-.01-.09.03-.11v-.01h-.06c-.15-.06-.32-.1-.5-.1L8.8 7.1c.3-.03.6-.03.9-.01.16 0 .3.05.44.11a.12.12 0 0 0 .17-.11l-.03-.7c0-.04 0-.04.02-.01l.38.76a.04.04 0 0 0 .04.03h.02l.02-.03c.15-.29.37-.38.65-.29.03.01.04 0 .02-.02L11 6.18a2.2 2.2 0 0 0-1.03-.69 1.59 1.59 0 0 1-.27-.15.06.06 0 0 1-.03-.07c.02-.06.06-.08.13-.07.38.08.7.24.96.46.24.21.47.5.68.84a2.32 2.32 0 0 1 .23 1.82c0 .02-.02.04-.04.05l-.24.17c-.07-.07-.2-.07-.4 0l-.08.24c-.02.03-.05 0-.08-.07.03-.25 0-.42-.09-.5l-.32-.18c-.11-.06-.23-.1-.34-.13a3.79 3.79 0 0 0-.66-.1l-.64-.04c-.46-.04-.91 0-1.36.13-.06.01-.12.07-.17.17-.02 0-.04.02-.05.05-.09.04-.13.09-.12.15 0 .18 0 .36-.02.54L7 8.77a1.08 1.08 0 0 0-.21-.33c-.02-.02-.05-.03-.08-.03a.07.07 0 0 0-.08-.01.5.5 0 0 1-.19-.28c-.1-.4-.07-.79.09-1.18.15-.36.32-.67.52-.91.44-.54.99-.85 1.64-.9.25-.03.55-.02.9.02Z" fill="#0D0A04"/><path d="m9.6 5.15.2.05c-.08-.01-.12.01-.14.07 0 .03 0 .05.03.07.13.08.22.14.27.15.45.16.8.39 1.03.69l.43.65c.02.02.01.03-.02.02-.28-.1-.5 0-.65.3l-.02.01h-.02a.04.04 0 0 1-.04-.02l-.38-.76c-.02-.03-.02-.03-.02 0l.03.71a.12.12 0 0 1-.05.1.12.12 0 0 1-.12.01c-.13-.06-.28-.1-.44-.11a5.6 5.6 0 0 0-.9.01l.88.04c.18 0 .35.04.5.1h.06c.01 0 .01 0 0 0-.04.03-.05.07-.03.12.01.02 0 .03-.03.03a2.25 2.25 0 0 0-.54-.08h-1.3c-.1 0-.17-.03-.21-.09a.06.06 0 0 0-.06-.02l-.69.09a.05.05 0 0 1-.04-.02.05.05 0 0 1-.01-.04c.04-.16.1-.31.2-.46.07-.1.16-.11.27-.02h.05l.2-.2a.07.07 0 0 1 .06-.02l.08.02h.09a.13.13 0 0 0 .06-.05l.21-.33c.03-.05.13-.13.29-.23.3-.2.56-.47.77-.79Z" fill="#1F100E"/><path d="M12.54 6.19c.21.07.43.13.65.18.1.02.2.06.29.13l.27.2c.02.01.04 0 .05-.03v-.02c0-.03.02-.03.05-.03l.42.14-.02.04a.5.5 0 0 0-.27-.06c-.05 0-.06.03-.02.06a6.57 6.57 0 0 0 .3.28c.07.07.17.12.3.13a.7.7 0 0 1 .3.16v.01l-.01.02h-.03a.26.26 0 0 0-.19-.05c-.04 0-.04.02 0 .04.26.14.46.3.61.49.06.06.12.09.19.07.02 0 .03 0 .02.03 0 .01-.01.02-.03.02-.08.01-.09.04-.04.1.11.13.34.14.49.17.07.07.11.17.13.3l-.25-.15a.05.05 0 0 0-.07.02v.14a.06.06 0 0 1-.02.06.06.06 0 0 1-.05 0l-.08-.04c-.03 0-.04 0-.03.03 0 .08.05.14.11.19l-.24.5c0 .02-.03.03-.05.02h-.03a.05.05 0 0 1-.03-.05c-.05-.32-.1-.52-.15-.6-.14-.22-.29-.4-.43-.55-.04-.05-.05-.04-.02.01l.65 1.4a.07.07 0 0 0 .07.04l.03-.02c.02 0 .02-.02.03-.03l.2-.63c.01-.02.03-.03.05-.03l.03.01.01.05c0 .03.02.04.04.04.11.1.13.2.06.28a.13.13 0 0 0-.02.07c-.02.14-.05.27-.1.4-.04.14-.07.27-.08.4l-.01.52c-.06.15-.11.2-.14.17l.07-.17c.03-.16 0-.17-.1-.04-.12.17-.28.15-.44.22a.07.07 0 0 0-.04.05.07.07 0 0 0 .03.07c.04.03.06.08.03.14a.1.1 0 0 1-.08.06l-.25.03c-.03 0-.04.02-.04.04-.02.17-.22.18-.33.08l-.02-.01a.05.05 0 0 0-.05.01l-.02.03c-.06.2-.2.25-.41.16-.08-.03-.1-.1-.16-.14-.02-.02-.04-.02-.06 0a.19.19 0 0 0-.1.16c0 .05 0 .08-.02.1-.02.01-.06.02-.1 0-.04.02-.06-.02-.07-.1l.42-.57.05-.13c.01-.03.03-.04.06-.03.16.02.29-.05.38-.22.07-.15.1-.3.08-.46a.12.12 0 0 0-.04-.08.12.12 0 0 0-.1-.02l-.15.02c-.02 0-.03 0-.03-.03l-.04-.45c-.03-.29.01-.43.09-.69.04-.16.04-.33 0-.53a.3.3 0 0 0-.1-.15.32.32 0 0 0-.16-.06.5.5 0 0 1-.22-.08.57.57 0 0 0-.2-.1 6.95 6.95 0 0 0-.27-.05c.1.01.12 0 .1-.04l.4.05.02-.01v-.01l-.67-.11a.44.44 0 0 1-.2-.08.1.1 0 0 0-.07-.02.63.63 0 0 1-.3-.03.65.65 0 0 0-.23-.04l-.26.01c-.03 0-.05 0-.06-.02a.13.13 0 0 1-.01-.06 2.28 2.28 0 0 0-.4-1.2c.18.06.37.07.56.02l.15.04h.07a.53.53 0 0 1 .29-.02c.03 0 .04-.01.04-.04a.17.17 0 0 0-.04-.07c-.02-.02-.01-.04.01-.06h.05Z" fill="#0D0A04"/><path d="M6.47 6.64c.06.12.03.3-.1.52a.02.02 0 0 1-.02.01.02.02 0 0 1-.02-.01.67.67 0 0 0-.3-.27 1.25 1.25 0 0 0-.87-.24c-.53.05-.95.28-1.27.69l-.37.2-.08.08a.5.5 0 0 0-.12.2c-.07.18-.18.34-.31.48-.03-.3.02-.55.13-.79a6.84 6.84 0 0 1 .47-.58c.39-.4.86-.6 1.42-.62.1 0 .31 0 .64.04a2 2 0 0 1 .8.29Z" fill="#1F100E"/><path d="M6.04 6.9c-.24-.07-.53.06-.76.13a.88.88 0 0 0-.3.14l-.23.25a.12.12 0 0 1-.17.02c-.24-.17-.47-.2-.7-.1.33-.41.75-.64 1.28-.69.33-.03.62.05.88.24Z" fill="#0D0A04"/><path d="M5.78 8.64a1.3 1.3 0 0 0-.4.24L4.83 9H4.5l-.65.03a.08.08 0 0 1-.08-.08c-.02-.2-.05-.4-.1-.59l-.23-.74.08-.08L3.83 9h.01l.02.01h.02v-.02a5.87 5.87 0 0 0-.25-1.1l.01.01A4.45 4.45 0 0 1 3.98 9h.05l.01-.02a3.42 3.42 0 0 0-.28-1.17.08.08 0 0 1 .04-.06h.04c.53.02.94-.1 1.5-.29.25-.08.37-.34.51-.52a.07.07 0 0 1 .07-.03.07.07 0 0 1 .05.05l.28 1.33c0 .03 0 .04-.03.06l-.44.29Z" fill="#ECCBBC"/><path d="M12.94 7.76c.07.04.13.05.2.04.01 0 .01 0 0 0h-.02v.02l.07.02c.02.04 0 .05-.1.04a.73.73 0 0 0-.31-.03c-.3-.05-.6-.09-.88-.1l-.08-.06a.42.42 0 0 1-.01-.17l.01.06c.01.02.03.03.06.02l.26-.01c.07 0 .15.01.24.04.08.04.18.05.3.03a.1.1 0 0 1 .06.02c.06.05.13.07.2.08Z" fill="#674138"/><path d="m3.44 7.62.22.74c.06.2.09.4.11.6a.08.08 0 0 0 .08.07L4.5 9c-.19.05-.38.06-.58.04-.03 0-.05 0-.06.03a.63.63 0 0 0-.06.2c-.02.09 0 .1.07.04.05-.05.13-.1.21-.1.26.01.5-.04.74-.15v-.03l-.01-.01c-.02 0-.02-.02 0-.03h.02l.55-.12v.03a.03.03 0 0 0 0 .03.03.03 0 0 0 .03 0l.87-.28h.16c.02-.02.03-.04.01-.06-.07-.11-.16-.14-.27-.09a.6.6 0 0 1-.23.06l.37-.16c.06-.02.11 0 .14.05l.16.27v.42c-.18.11-.39.12-.61.04.07 0 .1-.04.11-.1 0-.03-.01-.05-.04-.05-.12 0-.21.02-.27.07-.07.17-.18.27-.31.29.03-.2-.13-.24-.5-.1a.98.98 0 0 0-.73.06c-.03.01-.03.03 0 .04l.06.05c.04.18.14.2.3.04l-.03.13v.03h.03v.01a.02.02 0 0 1 0 .02.74.74 0 0 1-.68.18.05.05 0 0 0-.04 0 .05.05 0 0 0-.02.05c.04.47.17.92.37 1.33l.53.86a.86.86 0 0 1-.39-.28c-.17-.22-.31-.5-.44-.82-.03-.05-.07-.07-.14-.05 0-.15-.01-.26-.05-.32l-.2-.24c-.07-.07-.1-.06-.1.04 0 .03.04.08.09.13v.01l-.02.02h-.01c-.07-.04-.12-.09-.13-.18 0-.11 0-.2.03-.28.01-.02 0-.04-.01-.06a.35.35 0 0 0-.13-.08c-.03 0-.04 0-.04.03v.09c0 .06-.02.06-.05.01a.22.22 0 0 1-.04-.15h-.04v.01l-.02.16-.03.03a.65.65 0 0 1-.04-.31c0-.08.04-.14.1-.17a.56.56 0 0 1 .2-.05c0 .02.02.04.03.05.08.06.1.04.05-.04a.66.66 0 0 1-.09-.47 2 2 0 0 0 .04-.34c0-.22-.03-.46-.07-.72 0-.05 0-.15.03-.3a.5.5 0 0 1 .12-.2Z" fill="#C08E7D"/><path d="M11.82 7.7c.03.02.05.04.08.04.29.02.58.06.88.11.04.05.11.07.21.07l.8.28c.04.02.06.05.05.09l-.23 1.26a.66.66 0 0 0-.3-.2 1.4 1.4 0 0 0-.68.01l-.13.1a.1.1 0 0 0-.03.05 1.18 1.18 0 0 0-.08.5l.02.01h.01l.63-.1.03-.02v-.03l-.02-.01-.11-.04a.1.1 0 0 1-.05-.05.21.21 0 0 0-.1-.1c-.03 0-.04-.03-.03-.05.01-.05.05-.08.1-.1.04.03.06.07.07.12 0 .03.01.04.04.05.06.03.13.02.22-.02a.04.04 0 0 1 .05.01c.04.05.11.1.22.11.19.12.26.28.21.45-.1.37-.48.4-.8.39-.03 0-.05-.02-.06-.05a1.23 1.23 0 0 1-.07-.56c0-.06 0-.06-.04-.02l-.19.23a.07.07 0 0 0-.01.07l.02.12a.07.07 0 0 1-.01.05.07.07 0 0 1-.05.03l-.45.02c-.1 0-.15-.02-.19-.06a.64.64 0 0 1-.12-.17.07.07 0 0 1 0-.07.57.57 0 0 1 .2-.17.13.13 0 0 0 .05-.05c.12-.2.16-.45.14-.73 0-.04-.03-.07-.08-.07a1.2 1.2 0 0 0-.47-.25.14.14 0 0 1-.06-.04.1.1 0 0 0-.05-.03c-.03 0-.05 0-.06.03-.05.07-.04.12.01.15l.02.02c.02.02.01.03 0 .04l-.07.04c-.02 0-.02.02-.02.04l.03.16v.06a.25.25 0 0 0 0 .17c0 .03.02.05.04.06.1.07.17.17.2.33 0 .02 0 .05-.02.07a1.62 1.62 0 0 1-.36.47.05.05 0 0 0 0 .05l.01.02.02.01a.03.03 0 0 0 .03 0l.33-.38c.02-.03.03-.02.04.01a1.17 1.17 0 0 1-.02.45.04.04 0 0 0 .04.03c.12 0 .23.05.33.12.02.02.04.02.06.02a.84.84 0 0 1 .42.04h.01v.04l-.04.02a2.2 2.2 0 0 1-.95-.21c-.09-.1-.17-.1-.25-.02-.06.07-.07.12-.03.17l.03.01h.04l.15-.1c.02 0 .04 0 .06.02l.3.3c.01.01 0 .02-.02.03l-.08.01h-.02v.01c-.03.02-.03.04-.01.07l.04.03c.04.01.06.03.08.07.02.02.04.04.06.04h.35l.02-.02v-.04c.02-.04 0-.06-.03-.06a.24.24 0 0 1-.12-.05c-.04-.02-.03-.04 0-.04l.51-.1c.08.33-.02.53-.33.6-.3.07-.63.01-.98-.2a1.1 1.1 0 0 0-.16-.25c-.18-.22-.17-.45-.18-.71l-.01-.04-.03-.01c-.02 0-.04 0-.04.03l-.07.36-.04.09a10.3 10.3 0 0 1-.32.83 3.7 3.7 0 0 1-.47.75c-.23.29-.52.44-.88.47-.36.04-.67-.1-.91-.4l-.35-.51-.26-.54-.18-.42c-.06-.08-.08-.14-.07-.17-.14-.3-.24-.6-.3-.92a.12.12 0 0 0-.03-.07l-.12-.11c-.02-.02-.03-.02-.04.01l-.36 1.91a.1.1 0 0 1-.04.06.09.09 0 0 1-.06.02c-.38-.03-.77 0-1.16.09-.03 0-.05 0-.06-.02l-.4-.41a.18.18 0 0 0-.05-.05H4.6l.02.06a5.75 5.75 0 0 1 .28.6c0 .01-.03.02-.06.01-.04 0-.06-.02-.06-.03l-.53-.86-.29-1.05a.07.07 0 0 1 .01-.06.07.07 0 0 1 .06-.03c.3 0 .56-.08.8-.26a.04.04 0 0 1 .07.02V10c0 .02 0 .04-.03.05l-.58.18v.04l.54-.17a.07.07 0 0 1 .06.01.07.07 0 0 1 .03.06l-.09.91c0 .09 0 .17.04.25l.1.23c.02.02.03.03.06.03h.42a.62.62 0 0 0 .62-.46.28.28 0 0 0 .12-.2l.21-.03c.04 0 .05-.02.02-.05l-.04-.04a.07.07 0 0 0-.06-.02l-.3.07a.5.5 0 0 0-.47 0 .12.12 0 0 1-.14-.03.13.13 0 0 1-.03-.05c-.07-.17-.06-.26.02-.25a.71.71 0 0 1 .33-.15c.06.02.12 0 .19-.03a.06.06 0 0 0 .03-.06v-.14l-.01-.01h-.03l-.01.01c0 .05-.02.07-.04.08l-.06-.01c-.1-.05-.2-.04-.32.03a.42.42 0 0 1-.28.03.07.07 0 0 1-.06-.04.37.37 0 0 1-.02-.18l-.01-.69c0-.02 0-.04.03-.06.04-.02.1-.03.15-.02.02 0 .04.02.05.04l.16.29a.03.03 0 0 0 .04.01h.02c.01-.02.01-.05-.01-.09.1 0 .18.04.26.1a.07.07 0 0 0 .06.02l.68-.14c.03 0 .04-.02.04-.05l.02-.33v-.42l.05-.05.03.07.01.41c0 .16.03.3.09.4.07.16.14.27.19.33a.5.5 0 0 1 .12.27c.03.17.07.33.13.48.12.32.34.8.64 1.42.06.12.17.28.31.45a1 1 0 0 0 .4.32c.77.27 1.25-.2 1.6-.83.2-.33.34-.67.44-1 .1-.27.16-.56.21-.9.02-.1.08-.2.17-.28a3.7 3.7 0 0 1 .18-.35.92.92 0 0 0 .08-.32c.02-.2.06-.4.1-.6l.25-.18a.11.11 0 0 0 .04-.05c.06-.17.09-.34.09-.53.02-.09.04-.12.07-.1Z" fill="#ECCBBC"/><path d="m13.19 7.84-.06-.02c-.01 0-.02 0 0-.02h.01c.01 0 .01 0 0 0a.27.27 0 0 1-.2-.04l.67.1v.01l-.01.02h-.02l-.4-.05Z" fill="#1F100E"/><path d="m8.95 7.83-.1.34a.07.07 0 0 0 .01.07.07.07 0 0 0 .07.02l.2-.06c-.03.06-.02.11.02.15.07.07.18.1.28.08.25-.04.43-.05.54-.01.14.04.3.1.47.14.01.47-.01.95-.08 1.42 0 .1-.03.2-.07.29-.15.37-.33.66-.4 1.09-.03.2-.02.52.03.95l-.32.35c-.4-.13-.74-.1-1 .1a.82.82 0 0 1-.28-.2 4.06 4.06 0 0 1 1.35-.17.09.09 0 0 0 .05-.07.1.1 0 0 0 0-.04c-.17-.43-.1-.8.03-1.27.07-.24.16-.47.26-.69.11-.22.17-.36.19-.44.07-.4-.2-.8-.53-1h.12c.03 0 .04-.01.05-.03.02-.05.04-.07.08-.07.03.12.09.1.16-.07l.03.04c.02.02.03.02.05 0a.06.06 0 0 0 0-.09.71.71 0 0 0-.55-.18c-.1 0-.16.09-.2.19a.25.25 0 0 0-.14.08.1.1 0 0 0-.02.07c.02.33.1.63.24.9.03.06.05.11.05.15 0 .15 0 .24.05.4.07.24.11.49 0 .76-.07.16-.13.36-.18.62 0 .05-.05.1-.12.14-.04.03-.1.04-.17.02l-.17-.02a.32.32 0 0 1-.16-.04c-.1-.06-.24-.2-.27-.31-.02-.06-.02-.06-.02 0 0 .15.1.31.2.43.01.02.03.03.06.03h.5c.08 0 .1.02.03.07-.24.16-.62.3-.87.07-.27-.25-.36-1-.36-1.36 0-.14.04-.36.12-.68.1-.41.17-.82.19-1.22.03-.06.1-.08.22-.07a.1.1 0 0 0 .08-.03.1.1 0 0 0 .02-.09l-.07-.3c.02-.02.03-.04.02-.06a.08.08 0 0 0-.02-.05 4.1 4.1 0 0 0-1.26.02.22.22 0 0 0-.17-.09c.01-.03.03-.05.05-.05a10 10 0 0 1 .96-.24c.17-.03.33-.04.5-.04.04 0 .07.02.1.04l.07.03c.02 0 .05 0 .08-.02Z" fill="#DFAF9D"/><path d="M3.32 7.82c-.03.15-.04.25-.03.3.04.26.06.5.07.72a2 2 0 0 1-.04.34c-.03.17 0 .33.09.47.05.08.03.1-.05.04a3.15 3.15 0 0 1-.35-1.4c.13-.13.24-.29.31-.47Z" fill="#674138"/><path d="M10.22 8.21a3.99 3.99 0 0 0-1.08-.01l-.2.06a.07.07 0 0 1-.08-.02.07.07 0 0 1-.02-.07l.1-.34c.1 0 .15.04.23.04a2.93 2.93 0 0 1 1.18.26.04.04 0 0 1 0 .05l-.02.02a.27.27 0 0 1-.11.01Z" fill="#ECCBBC"/><path d="m13.1 7.88.26.06c.07.01.13.04.2.09a.5.5 0 0 0 .22.08c.07 0 .13.03.16.06.05.05.09.1.1.15.04.2.04.37 0 .53-.08.26-.12.4-.1.69l.05.45c0 .02 0 .03.03.03l.16-.02a.11.11 0 0 1 .09.02.12.12 0 0 1 .04.08c.02.16-.01.31-.08.46-.1.17-.22.24-.38.22-.03 0-.05 0-.06.03l-.05.13.13-.47c.12-.37.05-.73.03-1-.03-.4.04-.75.07-1.15 0-.03-.01-.04-.03-.06-.29-.18-.6-.3-.95-.34-.1 0-.17-.02-.21-.07.1-.01.2 0 .31.03Z" fill="#A66357"/><path d="m13.74 10.94-.42.57c-.1.05-.18.1-.23.16l-.65.2-.02-.01.01-.01.39-.15.01-.03h-.01l-.3.11c.3-.19.51-.44.66-.74 0-.03 0-.03-.02-.03-.2.07-.4.09-.59.06l-.5.1c-.04 0-.05.02-.01.04.04.03.08.04.12.05.03 0 .05.02.04.06v.04l-.03.02h-.35a.07.07 0 0 1-.06-.04.15.15 0 0 0-.08-.07l-.04-.03c-.02-.03-.02-.05 0-.07h.03l.08-.02c.03 0 .03-.02.01-.04l-.29-.3c-.02-.01-.04-.02-.06 0l-.15.09a.06.06 0 0 1-.07-.01c-.04-.05-.03-.1.03-.17.08-.09.17-.08.25.02a2.2 2.2 0 0 0 .98.2l.01-.03v-.01l-.01-.01a.84.84 0 0 0-.42-.04c-.02 0-.04 0-.06-.02a.54.54 0 0 0-.33-.12.04.04 0 0 1-.03-.01l-.01-.02v-.02c.03-.15.04-.3.02-.43 0-.03-.02-.04-.04 0l-.32.37a.03.03 0 0 1-.02 0 .03.03 0 0 1-.02 0l-.02-.01a.06.06 0 0 1-.02-.04v-.03l.02-.01c.15-.14.27-.3.35-.46a.12.12 0 0 0 .01-.07c-.02-.16-.09-.26-.19-.33a.11.11 0 0 1-.05-.06.25.25 0 0 1 0-.17c.02-.02.02-.04.01-.06l-.03-.16c0-.02 0-.03.02-.04l.07-.04c.01-.01.02-.02 0-.04l-.02-.02.43.1a.12.12 0 0 0-.03.06l-.24-.02c-.03 0-.04.02-.04.05l.01.06c0 .02.03.03.07.05a.5.5 0 0 1 .07.05c-.02.07-.07.1-.15.11-.02 0-.03.02-.03.04.01.04.04.06.1.08.13.05.28.02.45-.1.02 0 .02-.01.02-.03l-.03-.1a.42.42 0 0 0-.12-.13c-.03-.03 0-.05.1-.06l.02-.02c.05 0 .08.03.08.07.02.28-.02.53-.14.73a.13.13 0 0 1-.05.05.57.57 0 0 0-.2.17.07.07 0 0 0 0 .07c.02.05.06.11.12.17.04.04.1.06.19.06a6.25 6.25 0 0 0 .5-.05.07.07 0 0 0 .01-.05l-.02-.12.01-.07.19-.23c.03-.04.05-.04.04.02-.02.2 0 .4.07.56 0 .03.03.05.06.05.32 0 .7-.02.8-.39.05-.18-.02-.33-.21-.45a.66.66 0 0 0-.32-.2.26.26 0 0 1-.1-.07c-.03-.02-.02-.03 0-.03h.18a14.6 14.6 0 0 0 .33.15.06.06 0 0 0 .05-.02v-.07l.23-1.26c.01-.04 0-.07-.05-.09l-.8-.28c.35.04.66.16.95.34.02.02.03.03.03.06-.03.4-.1.75-.07 1.14.02.28.09.64-.03 1.01a9 9 0 0 0-.13.47Z" fill="#C08E7D"/><path d="m7.36 8.2-.05.2a.09.09 0 0 0 .03.09.08.08 0 0 0 .1.01c.2-.1.42-.15.62-.15l.13.03c.06.05.06.08-.03.08-.2 0-.4.06-.59.18a.07.07 0 0 0-.03.07c.02.06.04.07.08.03.24-.27.49-.25.75.04-.02.4-.08.8-.19 1.22-.08.32-.12.54-.12.68 0 .35.09 1.11.36 1.36.25.22.63.09.87-.07.06-.05.05-.07-.02-.07h-.51a.08.08 0 0 1-.07-.03c-.09-.12-.19-.28-.2-.43 0-.06.01-.06.03 0 .03.11.17.25.27.31.04.03.1.04.16.04l.17.02c.07.02.13.01.17-.02.07-.05.12-.1.12-.14.05-.26.11-.46.18-.62.11-.27.07-.52 0-.76-.05-.16-.04-.25-.05-.4a.35.35 0 0 0-.05-.15 2.1 2.1 0 0 1-.24-.9c0-.03 0-.05.02-.07a.25.25 0 0 1 .15-.08.17.17 0 0 0-.05.07v.03h.04c.17-.3.45-.3.67-.06-.07.17-.13.19-.16.07.01-.2-.26-.24-.32-.08a.14.14 0 0 0 0 .1c.02.04.04.07.07.08.33.2.6.6.53 1-.02.08-.08.22-.19.44-.1.22-.2.45-.26.69-.12.47-.2.84-.04 1.27a.1.1 0 0 1 0 .08.09.09 0 0 1-.08.04c-.44-.02-.87.03-1.31.16-.17-.17-.3-.35-.4-.57.05-.44.02-.87-.1-1.29-.06-.17-.14-.3-.26-.42a.1.1 0 0 0-.14 0 .1.1 0 0 0-.02.05l-.1.33-.16-.75-.09-.72v-.4c.02-.17.02-.35.02-.53 0-.06.04-.1.12-.15.07 0 .13.04.17.1Z" fill="#ECCBBC"/><path d="M15.61 8.82c.1 0 .16.06.16.16-.02 0-.04-.01-.04-.04v-.05l-.04-.01c-.02 0-.04.01-.04.03l-.21.63-.03.03a.07.07 0 0 1-.08 0 .07.07 0 0 1-.03-.03l-.64-1.39c-.03-.05-.02-.06.02-.01.14.15.29.33.42.54.06.09.11.3.16.61 0 .02.01.03.03.04l.03.01c.02 0 .04 0 .05-.02l.24-.5ZM8.62 8.29c-.09.07-.16.1-.2.09a1.45 1.45 0 0 0-.36-.03c-.2 0-.42.05-.63.15a.08.08 0 0 1-.09-.01.09.09 0 0 1-.03-.09l.05-.2a4.1 4.1 0 0 1 1.26-.02l.02.05c0 .02 0 .04-.02.06ZM10.22 8.21c.19.03.26.15.22.35l-.47-.14c-.1-.04-.29-.03-.54 0a.35.35 0 0 1-.28-.07c-.04-.04-.05-.09-.01-.15.35-.04.71-.04 1.08.01Z" fill="#1F100E"/><path d="M10.73 8.21c.1.08.12.25.1.5l-.01.15.05.52c0 .02.02.03.04.03.13-.01.2.01.18.08l-.12.28c-.02.04-.04.05-.07.05l-.02-.03v-.02l-.01-.01a.02.02 0 0 0-.04 0L10.56 11c-.04.15-.1.29-.17.42.16-.58.28-1.14.34-1.69v-.9l-.03-.3a.58.58 0 0 1 .03-.3Z" fill="#ECCBBC"/><path d="m8.62 8.29.07.3a.1.1 0 0 1-.02.09.1.1 0 0 1-.08.03c-.12 0-.2.01-.22.07-.26-.3-.51-.3-.75-.04-.04.04-.06.03-.08-.03a.07.07 0 0 1 .03-.07c.2-.12.39-.18.6-.18.08 0 .08-.03.02-.08a.3.3 0 0 0-.13-.03c.12 0 .24 0 .36.03.04 0 .11-.02.2-.1Z" fill="#A66357"/><path d="M6.7 8.4c-.04.03-.04.06 0 .1l.2.2.02.06c0 .02.02.05.05.06.02.01.03 0 .03-.02v-.03l.05.03v.4c-.04-.03-.06-.05-.06-.08a.06.06 0 0 0-.03-.06.11.11 0 0 0-.07 0c-.03 0-.03-.01-.01-.03a.15.15 0 0 0 .04-.08c0-.01 0-.04-.02-.07l-.05-.12c-.04-.1-.07-.09-.08 0 0 .16 0 .32.04.51 0 .03.02.05.05.06l.07.04c.04.01.04.03 0 .05-.04.02-.06.01-.07-.02l-.01-.02h-.02l-.02.02v.03c.05.21.16.37.33.48l.17.75.6 1.33c.11.22.24.4.4.57.1.1.2.16.3.2.27.07.5.08.71.03.1-.03.1-.06 0-.1a.89.89 0 0 0-.5-.02c.17-.05.35-.05.54 0 .02 0 .04.02.06.05.01.02.03.02.05.01l.13-.07.32-.35.13-.2c.16-.22.27-.46.34-.7.08-.13.13-.27.17-.42h.07c-.1.34-.24.68-.43 1.01-.36.63-.84 1.1-1.6.83a1 1 0 0 1-.4-.32 2.4 2.4 0 0 1-.32-.45c-.3-.62-.52-1.1-.64-1.42a2.2 2.2 0 0 1-.13-.48A.5.5 0 0 0 7 9.9a1.38 1.38 0 0 1-.2-.33.99.99 0 0 1-.08-.4v-.41l-.04-.07a.86.86 0 0 1-.04-.28h.08Z" fill="#674138"/><path d="M6.7 8.4c.04.01.07.02.08.04.09.08.16.2.22.33a.1.1 0 0 1 0 .03c0 .03-.01.03-.03.02a.1.1 0 0 1-.05-.06.15.15 0 0 0-.03-.07l-.2-.2c-.03-.03-.03-.06.02-.08Z" fill="#ECCBBC"/><path d="M10.08 8.71c-.22-.25-.5-.24-.67.05-.01.02-.02.02-.03.01l-.01-.02v-.01a.17.17 0 0 1 .05-.07c.02-.1.08-.18.19-.2a.7.7 0 0 1 .55.2l.02.04c0 .01 0 .03-.02.04-.02.02-.03.02-.05 0l-.03-.04ZM11.38 8.54c-.05.2-.09.41-.1.6a.92.92 0 0 1-.08.33 3.74 3.74 0 0 0-.19.35.45.45 0 0 0-.17.29c-.05.33-.12.62-.21.88h-.07l.27-1.22.01-.01a.02.02 0 0 1 .03 0v.03l.03.03c.03 0 .05-.01.07-.05l.12-.28c.06-.07.1-.13.1-.18 0-.23.02-.45.08-.66l-.01-.06c-.02-.03-.03-.03-.05 0-.02.01-.03.04-.02.08v.03l-.03.02a.1.1 0 0 0-.08.06c-.07.16-.11.31-.13.45 0 .03-.02.03-.03 0a.8.8 0 0 1-.05-.32c0-.04-.01-.06-.05-.05a.26.26 0 0 0 0-.15c.03.07.06.1.08.07v.04c.02.02.03.03.05 0l.17-.22v-.05c-.03-.02-.07-.02-.14-.02.2-.06.33-.06.4.01Z" fill="#A66357"/><path d="M5.38 8.88c.12-.1.25-.18.4-.24a.4.4 0 0 0 .17-.07.6.6 0 0 0 .23-.06c.1-.05.2-.02.27.09.02.02.01.04-.01.05-.02.01-.05.02-.1 0l-.06.01-.87.28a.03.03 0 0 1-.03 0 .03.03 0 0 1 0-.03v-.03Z" fill="#674138"/><path d="M8.67 9.93c-.06-.06-.11-.08-.17-.05-.06 0-.1 0-.11-.04v-.1l.31-.7c.06-.13.09-.29.1-.4 0-.16.06-.18.16-.05.02 0 .03.05.06.12l.02.14.03.97c0 .03-.01.04-.04.05l-.36.06ZM10.98 8.53c.07 0 .11 0 .13.02.02.02.03.03.01.05l-.17.22c-.02.03-.03.03-.04 0l-.01-.04.08-.25Z" fill="#ECCBBC"/><path d="M11.09 9.49c.01-.07-.05-.1-.18-.08-.02 0-.04 0-.04-.03l-.05-.52c.04-.01.06 0 .05.05 0 .12.02.23.05.32.01.03.02.03.03 0 .02-.14.06-.29.13-.45a.1.1 0 0 1 .08-.06l.02-.02v-.03c0-.04 0-.07.03-.09.02-.02.03-.02.05.01l.01.06c-.06.21-.09.43-.09.66 0 .05-.03.11-.1.18Z" fill="#DFAF9D"/><path d="M9.92 8.78c-.04 0-.06.03-.08.07 0 .02-.02.03-.05.03h-.12c-.03-.01-.05-.04-.07-.09a.14.14 0 0 1 0-.1c.06-.15.33-.11.32.09Z" fill="#0D0A04"/><path d="m8.15 8.75-.01.06-.04.04a.17.17 0 0 1-.22 0 .14.14 0 0 1-.05-.1l.01-.05c0-.02.02-.03.03-.05a.17.17 0 0 1 .22 0c.04.03.06.06.06.1Z" fill="#1F100E"/><path d="m7.05 9.2.09.71a.77.77 0 0 1-.33-.48V9.4l.02-.02h.02v.02c.02.03.04.04.08.02s.04-.04 0-.05l-.07-.04a.08.08 0 0 1-.05-.06 1.93 1.93 0 0 1-.04-.5c.01-.1.04-.1.08-.01a18.4 18.4 0 0 1 .07.2l-.04.07c-.02.02-.02.03.01.03h.07c.02.02.03.03.03.06s.02.05.06.07Z" fill="#DFAF9D"/><path d="M12.02 9.2c-.02 0-.02.01-.01.02a.3.3 0 0 1-.19-.06l-.43-.1c-.05-.03-.06-.08-.01-.15.01-.03.03-.03.06-.03.02 0 .03.02.05.03l.06.04c.17.04.33.13.47.25Z" fill="#1F100E"/><path d="M4.82 9H4.8v.03l.02.01v.03c-.24.11-.48.16-.74.15-.08 0-.16.05-.2.1-.07.06-.1.05-.08-.04a.63.63 0 0 1 .06-.2.05.05 0 0 1 .06-.03c.2.02.4 0 .58-.04L4.82 9ZM6.01 9.19c-.06.01-.13-.01-.2-.08.06-.05.15-.07.27-.07.03 0 .04.02.04.04 0 .07-.04.1-.1.1Z" fill="#674138"/><path d="M10.73 9.72c-.06.55-.18 1.11-.34 1.69-.07.24-.18.48-.34.7-.04-.39-.02-.73.05-1.03.08-.34.3-.79.35-1.15a57.25 57.25 0 0 0 .13-.83c.02 0 .02-.01.03-.03.01-.03.02-.02.03.02l.09.63Z" fill="#A66357"/><path d="M5.8 9.11c.08.06.15.09.21.08.22.08.43.07.61-.04l-.02.33c0 .03-.01.04-.04.05l-.68.14a.07.07 0 0 1-.06-.02.38.38 0 0 0-.26-.1L5.5 9.4c.13-.02.24-.12.3-.29Z" fill="#DFAF9D"/><path d="M12 9.22c-.1.01-.14.03-.1.06-.03.02-.04.05-.04.1 0 .02.02.04.04.05.04.02.08 0 .12-.02l.03.1c0 .02 0 .03-.02.04-.17.11-.32.14-.45.1-.06-.03-.09-.05-.1-.09 0-.02 0-.04.03-.04.08 0 .13-.04.15-.1l.07-.01c.03 0 .04-.02.04-.04l.02-.15.03-.06a.3.3 0 0 0 .19.06Z" fill="#A66357"/><path d="M5 9.3c-.03.26-.01.52.03.79.01.02.02.03.05.02a.2.2 0 0 0 .05-.04c0 .07 0 .13.02.18.01.02.03.04.06.04.11.02.2.01.28-.03.12-.07.23-.08.32-.03h.06c.02 0 .04-.02.04-.07a.02.02 0 0 1 .02-.02h.02l.01.02v.14c0 .03-.01.05-.03.06a.25.25 0 0 1-.19.03c.07-.08.04-.1-.1-.08a.2.2 0 0 0-.08.03l-.07.05a.1.1 0 0 1-.07.02.7.7 0 0 0-.33.03.02.02 0 0 0 0 .02v.04a.02.02 0 0 0 .01 0h.02c.11-.04.21-.02.3.04-.09 0-.1.08-.03.25a.13.13 0 0 0 .07.08.12.12 0 0 0 .1 0 .5.5 0 0 1 .47 0l-.33-.02a.1.1 0 0 0-.04.01c-.08.05-.16.06-.25.05h-.04s-.02 0-.03.02a.6.6 0 0 1-.42.13c-.04.01-.05.04-.05.09 0 .02 0 .04.03.05l.55.27h.01l-.04-.15v-.02h.02a.4.4 0 0 0 .22.17l.06-.01.36-.32c-.1.3-.3.45-.62.47h-.42a.06.06 0 0 1-.06-.04 3.67 3.67 0 0 1-.1-.23.46.46 0 0 1-.04-.25 41.45 41.45 0 0 0 .08-.94.07.07 0 0 0-.08-.04l-.53.18a.01.01 0 0 1-.01-.02v-.02l.58-.2c.02 0 .03-.02.03-.04v-.13a.04.04 0 0 0-.02-.04.04.04 0 0 0-.05 0c-.24.18-.5.27-.8.26a.07.07 0 0 0-.06.03.07.07 0 0 0 0 .06l.28 1.05a3.73 3.73 0 0 1-.37-1.36.05.05 0 0 1 .03-.02h.03a.74.74 0 0 0 .68-.19v-.01h-.01l-.02-.01v-.03l.03-.13c.02-.12-.08-.13-.3-.04l-.07-.05c-.02-.01-.02-.03 0-.04A.98.98 0 0 1 5 9.3Z" fill="#DFAF9D"/><path d="m11.8 9.22-.02.15c0 .02-.02.04-.05.04h-.07a.5.5 0 0 0-.07-.04l-.07-.06a.16.16 0 0 1-.01-.06c0-.03.01-.05.04-.05l.24.02Z" fill="#0D0A04"/><path d="m5.5 9.4.06.15c.02.04.02.07 0 .08a.03.03 0 0 1-.02.01.03.03 0 0 1-.03-.01l-.16-.29a.07.07 0 0 0-.05-.04.23.23 0 0 0-.15.02.06.06 0 0 0-.03.06l.01.69a.2.2 0 0 1-.05.04c-.03 0-.04 0-.05-.02a2.83 2.83 0 0 1-.03-.8c.37-.13.53-.1.5.1Z" fill="#A66357"/><path d="M11.9 9.28c.05.04.1.08.12.13-.04.03-.08.04-.12.02a.06.06 0 0 1-.04-.06c0-.04 0-.07.04-.1Z" fill="#674138"/><path d="M13.6 9.55a.1.1 0 0 1 .02.04.06.06 0 0 1-.04.05.06.06 0 0 1-.05 0l-.3-.14a.77.77 0 0 0-.17-.01c-.03 0-.04 0-.02.03.03.03.07.05.11.06.13.05.24.12.32.21-.1-.02-.18-.06-.22-.11l-.02-.02h-.03c-.1.05-.16.06-.22.03a.07.07 0 0 1-.04-.05c-.01-.05-.03-.1-.06-.12-.06-.02-.1-.03-.11 0-.07.1-.1.1-.1-.03l-.04-.13c.25-.06.47-.06.68-.02.09.03.19.1.3.2Z" fill="#0D0A04"/><path d="m12.63 9.36.04.13c0 .12.03.13.1.02.01-.02.05-.01.1.01-.05.02-.09.05-.1.1 0 .02 0 .04.03.06.04.02.07.05.1.1a.1.1 0 0 0 .05.04l.1.04.03.01v.03l-.03.01-.63.11h-.03V10c-.02-.16.01-.32.08-.49a.1.1 0 0 1 .03-.04l.13-.1Z" fill="#A66357"/><path d="M4.63 9.49c-.16.15-.26.14-.3-.04.22-.1.32-.08.3.04ZM4.22 9.63c.03-.03.05-.07.03-.09-.02-.02-.06 0-.1.03-.03.03-.04.07-.02.1.01 0 .05 0 .09-.04Z" fill="#674138"/><path d="M12.82 9.8a.62.62 0 0 1-.13-.09V9.65c.01-.02.02-.03.04-.01l.11.13c.04.05.03.05-.02.03ZM7.29 10.95c-.04.02-.05.04-.05.05l-.02-.06c-.01-.04-.02-.04-.03 0-.04.15-.1.3-.2.46-.17.26-.37.48-.6.65a.72.72 0 0 1-.24.12 6.2 6.2 0 0 0-.26.08.8.8 0 0 1-.25.05H5.4c-.15-.06-.3-.1-.45-.11a.2.2 0 0 1-.1-.06h.06v-.06a5.75 5.75 0 0 0-.3-.6c.01-.02.03-.02.06 0 .02 0 .04.02.06.04l.39.41c.01.02.03.02.06.02.4-.09.78-.12 1.16-.1l.06-.01a.1.1 0 0 0 .04-.06l.36-1.91c.01-.03.02-.03.04-.01l.12.11.03.07c.06.32.16.62.3.92Z" fill="#C08E7D"/><path d="M9.34 9.89a.02.02 0 0 1 0 .02l-.05.03a.7.7 0 0 1-.14.08c-.04.02-.07.02-.08.01v-.01c-.02-.02 0-.04.02-.08a.7.7 0 0 1 .12-.11l.05-.03a.01.01 0 0 1 .02 0l.06.09ZM8.67 9.93c.04.03.06.06.06.09s-.02.04-.05.04c-.1-.01-.17-.07-.18-.18.06-.03.11-.01.17.05Z" fill="#0D0A04"/><path d="M3.82 10.95c-.17-.1-.3-.21-.4-.36a105.01 105.01 0 0 0-.32-.45l.01-.16.01-.01h.04c0 .06.01.11.04.15.03.05.05.05.05-.01V10c0-.02.01-.03.04-.02.06.02.1.05.13.08.02.02.02.04.01.06a.76.76 0 0 0-.03.28c0 .1.06.14.13.18l.03-.01v-.01a.02.02 0 0 0 0-.01c-.05-.05-.08-.1-.08-.13 0-.1.02-.11.09-.04l.2.24c.04.06.05.17.05.32Z" fill="#DFAF9D"/><path d="M3.1 10.14a14.27 14.27 0 0 0 .33.45c.1.15.23.27.39.36.07-.02.11 0 .14.05.13.33.27.6.44.82.09.12.22.21.39.28l.06.03a.2.2 0 0 0 .1.06c.15.01.3.05.45.1h.24a.8.8 0 0 0 .25-.04l.26-.08c.1-.03.18-.07.24-.12.23-.17.43-.4.6-.65.1-.16.16-.31.2-.46 0-.04.02-.04.03 0l.02.06c-.16.43-.42.79-.77 1.07a.98.98 0 0 1-.34.18c-.18.06-.3.1-.38.11a.85.85 0 0 1-.52-.04l-.27-.08a1.36 1.36 0 0 1-.85-.7c-.1-.2-.17-.35-.2-.46a.08.08 0 0 0-.06-.06.87.87 0 0 1-.4-.3 8.27 8.27 0 0 1-.38-.55l.03-.03Z" fill="#674138"/><path d="m7.92 12-.61-1.34.09-.33a.1.1 0 0 1 .07-.08.1.1 0 0 1 .1.03c.1.12.2.25.24.42.13.42.16.85.1 1.3Z" fill="#DFAF9D"/><path d="M5.74 10.4a.7.7 0 0 0-.33.14c-.08-.06-.18-.08-.3-.03a.02.02 0 0 1-.02-.01v-.03a.02.02 0 0 1 0-.02v-.01a.7.7 0 0 1 .33-.03.1.1 0 0 0 .07-.02l.07-.05a.2.2 0 0 1 .08-.03c.14-.02.17 0 .1.08Z" fill="#674138"/><path d="M11.26 11.48c.2.21.46.34.79.38l-.66-.02a2.6 2.6 0 0 1-.22-.22 3.78 3.78 0 0 1-.4-.77l.07-.36c0-.03.02-.04.04-.03l.03.01v.04c.02.26 0 .49.2.71.06.08.11.17.15.26ZM9.28 11.12a.29.29 0 0 0-.1-.16.24.24 0 0 0-.18-.06c-.11 0-.2.02-.26.03a.16.16 0 0 0-.1.1.17.17 0 0 0 0 .15l.13.22c.01.02.04.04.07.04l.23.02-.23.02c-.02 0-.04 0-.06-.02a.87.87 0 0 0-.38-.25l-.03-.01a.06.06 0 0 1 0-.09c.17-.2.38-.3.64-.32.1 0 .2.02.27.07l.22.17c.02.03.02.05 0 .08a.05.05 0 0 1-.05.03l-.17-.02Z" fill="#C08E7D"/><path d="M6.2 10.95c-.11 0-.22.03-.33.07l-.33.1-.55.07c-.08.02-.1-.03-.07-.13a.6.6 0 0 0 .42-.13l.03-.02h.04c.09.01.17 0 .25-.05a.1.1 0 0 1 .04 0h.33l.3-.06h.04l.02.02.04.04c.03.03.02.04-.02.05l-.2.04Z" fill="#A66357"/><path d="m9.28 11.12-.2.34-.24-.02a.08.08 0 0 1-.07-.04l-.13-.22a.17.17 0 0 1 .04-.21.16.16 0 0 1 .06-.04L9 10.9c.07 0 .13.01.18.06.05.04.09.1.1.16Z" fill="#0D0A04"/><path d="M6.2 10.95a.28.28 0 0 1-.12.2l-.36.3a.06.06 0 0 1-.06.02.4.4 0 0 1-.21-.17h-.03v.02l.04.14v.01l-.56-.27a.05.05 0 0 1-.03-.05c0-.05.01-.08.05-.1-.04.11-.01.16.07.14l.55-.08c.08 0 .19-.04.33-.1.1-.03.22-.06.33-.06Z" fill="#C08E7D"/><path d="m12.52 11.78-.47.08a1.23 1.23 0 0 1-.79-.38c.35.2.68.26.98.2.3-.08.41-.28.33-.61.2.03.4 0 .59-.06.02 0 .03 0 .02.03-.15.3-.37.55-.66.74Z" fill="#DFAF9D"/><path d="M13.09 11.67c-.54.44-1.1.5-1.7.17l.66.02.47-.08.3-.12c.01 0 .02 0 .01.01v.02h-.01l-.39.16v.01l.66-.19Z" fill="#A66357"/><path d="m9.6 12.66-.13.07h-.05c-.02-.04-.04-.05-.06-.06-.19-.05-.37-.05-.54 0 .2-.04.37-.03.5.03.1.03.1.06 0 .09-.2.05-.44.04-.71-.03.25-.2.58-.23.99-.1Z" fill="#C08E7D"/><defs><linearGradient id="a" x1="2.92" y1="2.05" x2="15.46" y2="16.1" gradientUnits="userSpaceOnUse"><stop stop-color="#FBA12F"/><stop offset="1" stop-color="#FEBC30"/></linearGradient></defs></svg>