<!-- by TradingView --><svg width="18" height="18" viewBox="0 0 18 18" xmlns="http://www.w3.org/2000/svg"><path fill="#00A7FD" d="M0 0h18v18H0z"/><path d="M12.68 10.33h-.01c-.07.03-.1.03-.11 0l.12-.06a1.52 1.52 0 0 0 .77-1.03l-.4.12c-.35.07-.7.13-1.07.15a22.93 22.93 0 0 1-1.69.06c-.72.03-1.54.17-2.19-.25a3.4 3.4 0 0 1-.68-.59c-.2-.23-.13-.53.2-.58.17-.02.42.17.6.29.26.15.53.24.84.27.37.04.72.04 1.07.02a154.68 154.68 0 0 1 2.42-.11 3.7 3.7 0 0 0 1.15-.28.58.58 0 0 0 .18-.4.4.4 0 0 0-.13-.25h-.03a1.4 1.4 0 0 1-.44.35c-.2.1-.44.17-.72.19l-.1-.04c-.02 0-.02-.01 0-.01.42 0 .82-.14 1.12-.44a.95.95 0 0 0 .17-.24v-.01h-.03a.6.6 0 0 1-.13.13c-.45.35-1.02.41-1.58.31-.16-.03-.31-.07-.47-.14-.17-.06-.34-.16-.42-.33a.01.01 0 0 0-.01-.01c-.56.86-2.05.84-2.87.45a1.33 1.33 0 0 1-.61-.48c-.09-.15-.1-.29-.05-.42.07-.17.2-.31.4-.43.53-.3 1.1-.42 1.72-.34.27.03.52.1.76.18.2.08.36.2.47.37.02.02.02.02.02 0 0-.1-.03-.2-.1-.29l-.03-.05a1.5 1.5 0 0 0-.92-.54 2.14 2.14 0 0 0-.65-.04c-.24 0-.48.03-.74.11a1.93 1.93 0 0 0-.7.37c-.02 0-.03-.01-.04-.04.23-.17.46-.29.69-.36.35-.1.75-.16 1.11-.14a2.07 2.07 0 0 1 .77.17c-.06-.1-.13-.23-.24-.31a.33.33 0 0 0-.1-.08c-.14-.1-.3-.17-.5-.22a1.93 1.93 0 0 0-1.47.23c.16-.15.37-.25.62-.3.47-.09.9-.03 1.28.17.21.11.37.3.47.54.02.03.05.05.09.07.28.17.52.45.51.78 0 0 0 .01 0 0 .11-.12.23-.22.35-.3a2.2 2.2 0 0 1 1.99-.08 1 1 0 0 1 .41.33h.01a.93.93 0 0 0-.22-.37l-.1-.11c-.24-.2-.51-.26-.8-.33a1.86 1.86 0 0 0-.7-.04 1.6 1.6 0 0 0-.48.11c-.05 0-.06 0-.03-.02l.33-.1c.31-.08.6-.06.91 0 .04.02.05 0 .02-.02a.38.38 0 0 1-.06-.12c-.02-.03-.06-.08-.14-.14l-.03-.03c-.15-.12-.32-.2-.52-.23a1.39 1.39 0 0 0-.83.1.3.3 0 0 1-.1.02 1.35 1.35 0 0 1 1-.18.83.83 0 0 0-.15-.22 1.68 1.68 0 0 0-.5-.36 1.2 1.2 0 0 0-.67-.12c-.32.03-.6.14-.84.33V5c.07.06.13.14.18.23l-.02.01a.02.02 0 0 1-.02 0 .8.8 0 0 0-.24-.24 1.6 1.6 0 0 0-1.07-.41 1.89 1.89 0 0 0-1.37.57l-.22.21c-.02 0-.03 0-.04-.02l.01-.02a15.45 15.45 0 0 1 .1-.14c-.2.14-.4.3-.6.48-.31.31-.58.6-.8.86A6.62 6.62 0 0 0 4.5 9.05a5.81 5.81 0 0 0-.06 2.08 3.14 3.14 0 0 0 .3.91 3.79 3.79 0 0 1 .39-1.05v.02c-.12.26-.21.5-.27.72-.05.17-.08.37-.09.6-.01.4.13.79.5.98.08.05.2.09.35.12.26.05.52.06.77.04l.57-.05a22.31 22.31 0 0 0 1.55-.25c.15-.07.22-.18.22-.32-.03-.2-.33-.24-.5-.25-.23 0-.45.05-.67.12H7.5c.01-.03.03-.04.05-.05.24-.1.48-.13.72-.13h.03c.06-.08.06-.16.01-.25l-.06-.08c-.13-.12-.3-.11-.46-.07a.56.56 0 0 0-.2.07h-.02v-.01l.02-.02c.19-.1.43-.16.63-.06a.02.02 0 0 0 .03 0c.07-.07.09-.15.05-.25-.03-.06-.06-.09-.08-.1a.41.41 0 0 0-.34-.1c-.1.01-.2.04-.29.07a2.01 2.01 0 0 0-.3.17c-.03 0-.04 0-.02-.02l.18-.12c.15-.1.3-.15.48-.16.04 0 .07-.01.1-.03a.76.76 0 0 0 .34-.33.25.25 0 0 0 .01-.1c0-.06-.02-.1-.06-.11-.16-.14-.4-.14-.6-.09-.5.13-.93.39-1.36.7a17.49 17.49 0 0 1-.94.64l-.01-.02.15-.1v-.01a.01.01 0 0 0 0-.02c-.28-.15-.22-.52-.17-.77l.05-.01c-.04.16-.04.33-.02.5.02.1.08.19.18.24h.04c.38-.26.78-.56 1.18-.82a3 3 0 0 1 .9-.38c.22-.06.47-.06.65.1.12.1.08.28-.02.39a1.05 1.05 0 0 1-.27.23c.23.06.41.32.22.53a.02.02 0 0 0 0 .02.5.5 0 0 1 .1.22c0 .07 0 .11-.04.14a.01.01 0 0 0 0 .02c.22.03.5.13.4.4-.05.17-.2.27-.36.3-.69.13-1.37.22-2.06.27h-.47c-.02 0-.02 0 0 .02a8 8 0 0 0 1.57 1.13.87.87 0 0 1-.3-.1A7.18 7.18 0 0 1 5.7 13.5a2.41 2.41 0 0 1-.31-.08c-.5-.17-.7-.65-.66-1.16 0-.05 0-.08-.02-.13-.2-.4-.35-.83-.39-1.28a5.53 5.53 0 0 1 .52-3.03c-.55.03-1.07-.12-1.44-.55 0-.04 0-.09.04-.15.24-.07.43-.2.59-.36.28-.3.5-.6.68-.89.17-.27.33-.55.52-.8A2.58 2.58 0 0 1 7.96 4c.17.05.33.13.48.24.08.06.15.14.2.23a.06.06 0 0 0 .05.03 1.62 1.62 0 0 1 1.1.44h.02c.22-.22.6-.34.89-.37.44-.05.84.16 1.15.47a.77.77 0 0 1 .21.32h.01c.1.03.18.07.27.12.2.1.35.27.43.48l.02.02c.19.04.3.08.35.1.33.14.6.43.69.79l.04.25c0 .1-.04.18-.05.28a.6.6 0 0 1-.07.23v.02c.17.1.23.26.18.45a.7.7 0 0 1-.11.19v.02c.06.06.08.14.07.22-.02.15-.12.25-.25.33v.02c.03.05.04.1.02.15-.04.1-.1.12-.17.18l-.01.03c0 .06-.02.12-.04.18-.13.41-.39.71-.76.9Z" fill="#010101"/><path d="M8.53 4.4h-.01c-.02 0-.02 0 0 .01v.04H8.5a2.38 2.38 0 0 0-.8.2h-.03a.94.94 0 0 0-.23-.07c-.36-.06-.7-.04-1.03.07-.03 0-.04.02-.05.04h-.03c-.03.03-.02.03.01.03.17-.03.36-.04.5-.04.18 0 .37.04.55.12-.3.2-.58.41-.84.64-.02.02-.05.04-.08.04-.37 0-.74.14-1.06.32a.17.17 0 0 0-.08.09l-.06.05c.35-.16.64-.27 1.02-.27a6.64 6.64 0 0 0-.77.86 2.33 2.33 0 0 0-.97.54.01.01 0 0 0 .01 0c.18-.1.37-.2.56-.27.1-.03.19-.06.28-.07a7.16 7.16 0 0 0-.53.94c.03.02.03.04.03.06-.31.04-.6 0-.87-.1a1.39 1.39 0 0 1-.57-.4.02.02 0 0 1 .01-.03c.4-.12.65-.4.9-.7.02 0 .05 0 .09-.05.29-.31.52-.66.71-1.04.05-.09.1-.18.18-.28.22-.3.51-.56.87-.76a10.59 10.59 0 0 1 .47-.26v-.02c.58-.17 1.33-.14 1.81.29.02 0 .03.02.03.03Z" fill="#FF8D00"/><path d="M6.68 4.1v.03c-.08.03-.23.11-.46.24A2.6 2.6 0 0 0 5.17 5.4c-.19.38-.42.73-.71 1.04-.04.04-.07.06-.09.05.23-.29.44-.61.65-.98.1-.18.23-.37.4-.56.32-.4.76-.71 1.26-.87Z" fill="#F5CD44"/><path d="m8.53 4.4.07.09v.01l-.15.02a2.12 2.12 0 0 0-.86.3h-.01c-.38-.22-.8-.22-1.22-.13.01-.02.02-.04.05-.04.33-.1.67-.13 1.03-.07l.23.07a.06.06 0 0 0 .05 0 2.38 2.38 0 0 1 .8-.2V4.4c-.02 0-.02 0 0 0Z" fill="#D77200"/><path d="M8.68 4.57c.03.02.08.03.12.03l.12.02.27.08c.12.04.2.08.25.12.1.07.2.13.3.17a.8.8 0 0 1 .26.24h.01l.02-.01a.54.54 0 0 1 .07-.17.86.86 0 0 1 .59-.4c.22-.04.45 0 .68.11.18.09.34.2.49.36-.23 0-.44.06-.62.18a1.84 1.84 0 0 0-.22.17l-.01.05a2.57 2.57 0 0 1 1.15 0 1 1 0 0 1 .23.1c.02.02.05.01.07.01l.03.03v.03h-.01a1.4 1.4 0 0 0-.22 0c-.29.03-.56.13-.82.3v.05c-.04.02-.03.02.02.02a139.28 139.28 0 0 1 1.45.04 1.45 1.45 0 0 1 .51.24h.02v-.02l.1.11a5.83 5.83 0 0 0-.54-.17 2.25 2.25 0 0 0-1.58.22c-.04.03-.06.05-.07.08-.12.07-.24.17-.34.3v-.01c0-.33-.24-.61-.52-.78a2.4 2.4 0 0 0-.1-.28c-.17-.35-.56-.54-.93-.6-.49-.07-1 .02-1.4.3-.03.02-.03.06-.03.1.2-.12.39-.2.57-.24.38 0 .71.03 1 .1.1.01.23.06.4.13.03.01.06.04.1.08l.01.03a2.2 2.2 0 0 0-.85-.07 3.4 3.4 0 0 0-.75.19c-.31.1-.56.27-.74.5 0 .02.02.03.03.03l.04-.02c.2-.16.42-.28.67-.35.26-.08.5-.11.74-.1.36.01.68.07.95.16.22.08.42.22.59.42h.02l.01-.01.04.05-.01.03h-.02c-.1-.07-.17-.12-.24-.15-.6-.3-1.38-.28-2.01-.1-.24.07-.44.17-.6.3a.95.95 0 0 0-.4.43c-.05.13-.04.27.05.42.13.22.35.35.61.48.82.4 2.3.41 2.86-.45a.01.01 0 0 1 .01 0c.09.18.26.28.43.34.16.07.31.11.47.14.56.1 1.13.04 1.58-.31a.6.6 0 0 0 .13-.13h.02v.02c-.05.1-.1.18-.16.23-.3.3-.7.43-1.13.44 0 0-.01 0 0 0l.11.05c.38.03.73-.05 1.07-.24.06-.04.1-.05.12-.05h.13c0 .15-.07.28-.18.4a3.7 3.7 0 0 1-1.15.28 155.11 155.11 0 0 0-2.42.11c-.35.02-.7.02-1.07-.02-.3-.03-.58-.12-.84-.27-.18-.12-.43-.31-.6-.29-.33.05-.4.35-.2.58.21.23.44.43.68.59.65.42 1.47.28 2.2.25l.54-.01c.36 0 .74-.02 1.14-.05a6.93 6.93 0 0 0 1.47-.26c-.1.42-.37.83-.77 1.02l-.12.06a.43.43 0 0 1-.17.08.05.05 0 0 0-.03.04 2.7 2.7 0 0 1-.64 1.11l-.37.4-.62.62c-.26.27-.46.53-.62.78-.2.34-.32.79-.2 1.17.02.09.07.17.14.25a5.96 5.96 0 0 1-2.25-.02 20.55 20.55 0 0 0-.37-.2 338.13 338.13 0 0 0-.58-.36.37.37 0 0 1-.1-.22c-.02-.24.24-.31.43-.36a10.57 10.57 0 0 0 1.22-.36c.16-.04.31-.14.36-.3.1-.28-.18-.38-.4-.4v-.01a.01.01 0 0 1 0-.02c.04-.03.05-.07.04-.14a.5.5 0 0 0-.1-.22.02.02 0 0 1 0-.02c.2-.21 0-.47-.22-.52v-.01c.1-.06.2-.14.27-.23.1-.1.14-.3.02-.4-.18-.15-.43-.15-.65-.1a3 3 0 0 0-.9.4c-.4.25-.8.55-1.18.81h-.05a.33.33 0 0 1-.17-.25c-.02-.16-.02-.33.02-.5l.1-.33c0-.01 0-.02-.02-.02a.03.03 0 0 0-.04.02l-.02.05c-.11.15-.15.35-.18.55a1 1 0 0 0 .1.63l.01.02h.02v.02h.02A1.63 1.63 0 0 1 7.9 11c.11-.02.25 0 .42.03.04 0 .06.05.06.1l-.01.11c-.24 0-.46.06-.67.2-.17.12-.31.25-.43.39v.05c-.02.02-.01.03.02.02l.02-.02.28-.15v.03l.01.01c.05 0 .09-.02.13-.03.15-.03.31-.03.49.02.02.01.05.04.08.1l-.01.03h-.03a.85.85 0 0 0-.63.22.09.09 0 0 0-.04.06.1.1 0 0 0-.03.02v.01h.02a.56.56 0 0 1 .2-.07l.47.07.06.08v.07l-.02.01c-.28.03-.49.14-.76.28a.1.1 0 0 0-.03.02c-.03.03-.03.04 0 .04.02.02.04.02.06.01.22-.07.44-.11.67-.12l-.04.02a.01.01 0 0 0 0 .02l.18.02a.8.8 0 0 1 .36.19c0 .14-.07.25-.22.32a22.22 22.22 0 0 1-2.12.3c-.25.02-.5 0-.77-.04a1.3 1.3 0 0 1-.36-.12c-.36-.19-.5-.59-.49-.98.01-.23.04-.43.09-.6.06-.22.15-.46.28-.72l.08-.16v-.01H5.2a.1.1 0 0 0-.05 0 .94.94 0 0 0-.15.1c-.22.18-.3.02-.33-.19a2.34 2.34 0 0 1-.03-.5c.02-.5.09-.96.19-1.4a6.44 6.44 0 0 1 1.29-2.5 9.55 9.55 0 0 1 1.18-1.2 1.89 1.89 0 0 1 1.37-.58Z" fill="#FF8D00"/><path d="M10.69 4.64a.86.86 0 0 0-.6.4.54.54 0 0 0-.06.18.84.84 0 0 0-.18-.23v-.02c.24-.2.52-.3.84-.33ZM5.33 5.89a.17.17 0 0 1 .08-.1c.32-.17.7-.3 1.06-.31a6.28 6.28 0 0 1 .92-.68l.13.07v.02a.95.95 0 0 0-.14.1 3.73 3.73 0 0 0-.88.64 1.02 1.02 0 0 0-.37-.03c-.28.03-.55.13-.8.29ZM11.86 5.12a.84.84 0 0 1 .15.22 1.35 1.35 0 0 0-1 .18v-.05l.02-.02.21-.15c.18-.12.39-.17.62-.18ZM7.09 5.36c-.35.3-.67.63-.97.98a6.44 6.44 0 0 0-1.47 3.9c0 .2 0 .37.03.51.03.2.11.37.33.2.05-.04.1-.08.15-.1l-.05.14a3.79 3.79 0 0 0-.38 1.05c-.14-.3-.24-.6-.29-.91a5.81 5.81 0 0 1 .2-2.6c.26-.73.63-1.4 1.13-2 .21-.27.48-.56.8-.87a4.8 4.8 0 0 1 .61-.47 15.45 15.45 0 0 0-.13.15l.04.02ZM10.49 6.07c-.04-.02-.07-.04-.09-.07-.1-.25-.26-.43-.47-.54-.38-.2-.8-.26-1.28-.17a1.3 1.3 0 0 0-.62.3c0-.04 0-.08.03-.1.4-.28.91-.37 1.4-.3.37.06.76.25.93.6l.1.28Z" fill="#D77200"/><path d="M10 5.58c-.17-.07-.3-.12-.4-.14-.29-.06-.62-.1-1-.09.3-.07.59-.06.9.01.2.05.36.12.5.22ZM12.46 5.63h-.07a1 1 0 0 0-.24-.1 2.57 2.57 0 0 0-1.04-.03c.27-.12.54-.15.83-.1.2.03.37.11.52.23Z" fill="#F5CD44"/><path d="M10.1 5.66a1.06 1.06 0 0 1 .24.32c-.24-.1-.5-.17-.77-.18a3.3 3.3 0 0 0-1.11.14c-.23.07-.46.2-.69.36.18-.22.43-.38.74-.5.3-.1.56-.16.75-.18a2.2 2.2 0 0 1 .85.07v-.03ZM11.43 6.04l.01-.05c.26-.17.53-.27.82-.3h.23v-.03c.08.06.12.1.14.14.01.05.04.09.06.12.03.03.02.04-.02.03-.3-.07-.6-.09-.91-.02l-.33.11Z" fill="#D77200"/><path d="m10.82 6.44-.01.01h-.02c-.17-.2-.37-.34-.6-.42-.26-.09-.58-.15-.94-.17.2-.02.42-.01.65.04.34.06.73.25.92.54ZM13.44 6.32v.02a.03.03 0 0 1-.04 0c-.14-.12-.29-.17-.5-.24a139.28 139.28 0 0 0-.96-.15c.22-.03.45-.02.7.04.29.07.56.13.8.33Z" fill="#F5CD44"/><path d="M10.86 6.5c.06.08.09.18.1.28 0 .02-.01.02-.03 0a.98.98 0 0 0-.47-.37 3.19 3.19 0 0 0-.76-.18 2.74 2.74 0 0 0-1.72.34c.16-.13.36-.23.6-.3.63-.18 1.4-.2 2.01.1.07.03.15.08.24.15h.02V6.5ZM13.54 6.43c.1.1.17.21.23.36v.01h-.02a1 1 0 0 0-.41-.33 2.2 2.2 0 0 0-1.99.09c0-.03.03-.05.07-.08a2.25 2.25 0 0 1 2-.09l.12.04Z" fill="#D77200"/><path d="m10.95 6.94-1.5.03c-.1 0-.19.02-.25.05l-1.58.04a.01.01 0 0 1 0-.02c.1-.2.24-.34.43-.45.7-.38 1.46-.4 2.2-.2.27.08.5.2.66.45.02.04.04.07.04.1ZM13.6 6.93c.02-.02 0-.03-.03-.03h-.53a18.22 18.22 0 0 0-.69.03l-.1.02-1.2.03s-.02 0-.02-.02v-.03l.01-.03c.46-.54 1.23-.66 1.89-.5.24.05.47.13.64.28a2.98 2.98 0 0 1 .2.24h-.16Z" fill="#FF8D00"/><path d="M4.9 7.73c0-.02 0-.04-.02-.05a.02.02 0 0 1 0-.02 7.16 7.16 0 0 1 .53-.92l.11-.03.01.01c-.23.32-.45.65-.63 1Z" fill="#D77200"/><path d="m13.6 6.93-1.34.02.1-.02a18.25 18.25 0 0 1 .69-.02c.15 0 .34-.02.52-.01.04 0 .05 0 .04.03Z" fill="#F5CD44"/><path d="M11.13 7.04h.44c-.07.63.5.96 1.04.72.28-.13.42-.46.43-.74l.01-.02h.74a.03.03 0 0 1 .03.02c.05.45-.42.73-.8.84-.3.08-.64.07-.97.01a1.9 1.9 0 0 1-.74-.26c-.17-.12-.21-.36-.19-.56l.01-.01Z" fill="#EFF2F3"/><path d="M12.1 7.11c.03.05.09.11.14.16.07.06.1.12.07.21-.06.2-.27.25-.42.12-.16-.13-.24-.41-.04-.53.09-.06.19-.04.25.04ZM8.6 7.12a.78.78 0 0 0 .1.58c.2.33.65.35.96.21.2-.1.31-.25.4-.46a.74.74 0 0 0 .06-.37l.01-.02.91-.02a.01.01 0 0 1 .02 0 .01.01 0 0 1 0 .02c-.02.1 0 .2.02.3v.02c-.04.05-.1.16-.17.22-.24.22-.5.36-.78.43-.74.16-1.57.07-2.2-.37a.82.82 0 0 1-.34-.52c0-.03 0-.04.03-.04h1l-.02.02Z" fill="#EFF2F3"/><path d="M9.23 7.33c.07.07.18.13.19.27 0 .06-.02.12-.07.17-.08.1-.25.08-.35.03-.23-.13-.36-.38-.17-.6.07-.09.15-.1.25-.03.05.03.1.12.15.16ZM12.63 7.4a.15.15 0 0 0 .04-.21.15.15 0 0 0-.2-.03.15.15 0 0 0-.05.2c.04.07.14.09.2.04ZM9.5 7.38c-.02.09.03.17.11.18.08.02.16-.04.18-.13.01-.08-.04-.16-.12-.18-.08-.01-.15.04-.17.13Z" fill="#EFF2F3"/><path d="M11.08 7.75c-.23.31-.52.5-.89.6-.25.05-.5.08-.74.02l-.03-.02v-.02h.03c.37.03.71-.02 1.04-.16.23-.1.43-.3.58-.47.04-.05.05-.04.03.02l-.02.03Z" fill="#010101"/><path d="M13.88 7.93h-.13a.34.34 0 0 0-.12.06c-.34.19-.7.27-1.07.24.28-.02.52-.08.72-.19.17-.09.32-.2.44-.35h.03a.4.4 0 0 1 .13.24Z" fill="#D77200"/><path d="M7.64 8.46a.02.02 0 0 0-.02.02.02.02 0 0 0 0 .01 2 2 0 0 0 .94.54c.52.12 1.09.13 1.61.12a25.69 25.69 0 0 0 2.85-.28c.11-.02.56-.07.6.07.02.08-.07.17-.13.2-.08.05-.16.08-.24.1a7.2 7.2 0 0 1-1.97.25c-.43 0-.86 0-1.28.03l-.67.03c-.3 0-.61-.03-.9-.13-.11-.04-.24-.1-.38-.2a3.32 3.32 0 0 1-.52-.44c-.12-.13-.24-.29-.14-.44a.3.3 0 0 1 .31-.13c.08.02.15.05.22.1l.41.25c.2.11.45.18.74.21.39.03.74.04 1.15.02l1.19-.06c.45-.03.94-.02 1.36-.06.24-.03.5-.1.77-.2.07-.02.17-.09.23-.13h.02c.13.16-.02.4-.17.48h-.08c-.12-.03-.3-.03-.52 0a29.4 29.4 0 0 1-2.85.27c-.35 0-.69 0-1-.02-.41-.03-.83-.1-1.16-.34a5.53 5.53 0 0 1-.37-.27Z" fill="#E95100"/><path d="M6.68 9.48a.57.57 0 0 1-.46-.32.22.22 0 0 1-.01-.07l.01-.02c.01 0 .02 0 .03.02.05.13.15.23.28.3.07.02.13.04.2.03.03 0 .03.01 0 .04a.13.13 0 0 1-.05.02Z" fill="#010101"/><path d="M12.56 10.33c0 .03.04.03.1 0v.01a4.06 4.06 0 0 1-1.08 1.7c-.39.4-.77.76-1.12 1.18-.12.14-.22.3-.3.47-.15.3-.24.75.1.96l.16.05-.37.08a.65.65 0 0 1-.15-.25c-.11-.38.02-.83.21-1.17.16-.25.36-.51.62-.78a1103.56 1103.56 0 0 1 .99-1.02 2.7 2.7 0 0 0 .65-1.14h.02a.43.43 0 0 0 .17-.09Z" fill="#D77200"/><path d="M12.68 10.34v.05a3 3 0 0 1-.17.42v.02l.1.03c.3.09.54.24.67.51.08.16.12.32.14.5.02.32.01.64-.02.96 0 .04-.02.07-.06.1a6.29 6.29 0 0 0-.02-1.32.87.87 0 0 0-.54-.63 1.2 1.2 0 0 0-.3-.1 3.95 3.95 0 0 1-.74 1.13c-.2.3-.35.6-.45.93-.03.09-.04.2-.05.35-.01.19.04.31.15.38h.11a.4.4 0 0 0 .23-.18l.07-.1v-.03a.79.79 0 0 1 .17-.62h.01v.02a.47.47 0 0 0-.06.14c-.07.15-.1.3-.07.45.02.1.08.18.17.22.04.02.1.03.18 0a.22.22 0 0 0 .08-.07v-.02a.86.86 0 0 1 0-.45.38.38 0 0 1 .04-.12l.02-.01h.02v.01l-.03.1a.8.8 0 0 0-.04.3c0 .1.05.2.12.25.06.05.12.06.2.02a.28.28 0 0 0 .12-.13c.03-.04.04-.1.04-.16l-.01-.3.01-.09c0-.01.01-.02.03-.02a.02.02 0 0 1 .03.02l-.02.18c0 .11 0 .22.04.33-.09.1-.19.17-.3.25-.1 0-.18-.04-.22-.1a.02.02 0 0 0-.04 0c-.15.14-.38.06-.45-.11a.02.02 0 0 0-.02-.01.02.02 0 0 0-.01 0c-.1.17-.33.4-.52.22-.17-.18-.1-.6-.02-.81.07-.22.13-.37.2-.47a.72.72 0 0 0 .07-.17c0-.01 0-.02-.01 0-.3.28-.7.67-1.02 1.05-.23.27-.46.67-.41 1.03.02.24.18.36.47.37l-.15.04-.17-.05c-.33-.21-.24-.66-.1-.96.09-.17.19-.33.3-.47.36-.42.74-.78 1.14-1.17.27-.27.52-.6.72-.96a15.07 15.07 0 0 0 .36-.75ZM7.3 10.83c.02 0 .02.01 0 .03a.1.1 0 0 1-.06.02c-.24-.01-.46-.14-.51-.4v-.02l.03.01c.12.23.26.3.53.36Z" fill="#010101"/><path d="M5.14 11.01 5.13 11H5.1l.05-.15a.1.1 0 0 1 .05 0 .01.01 0 0 1 .01 0v.01l-.08.16Z" fill="#696868"/><path d="m12.78 10.98-.18.13a.84.84 0 0 0-.17.13l-.15.17c-.06.1-.11.15-.2.26-.05.06-.1.1-.18.15a3.95 3.95 0 0 0 .6-.95c.09.02.18.06.28.1Z" fill="#D77200"/><path d="M8.32 11.04A1.54 1.54 0 0 0 7.9 11a4.71 4.71 0 0 0-1.04.39 6.5 6.5 0 0 1-.5.27c.43-.32.86-.58 1.35-.7.2-.06.45-.06.61.08Z" fill="#F5CD44"/><path d="M13.34 12.93a5.15 5.15 0 0 1-.47.47h-.02a.96.96 0 0 1-.04-.32 4.62 4.62 0 0 1 0-.2c-.03 0-.04 0-.04.02l-.01.09a.47.47 0 0 0-.08.24c0 .09.01.16.05.22a.28.28 0 0 1-.11.13c-.09.04-.15.03-.2-.02a1.05 1.05 0 0 1-.07-.46l-.02-.1.04-.09-.02-.01h-.03a.38.38 0 0 0-.05.13l-.06.04-.01.02a.73.73 0 0 0 0 .48c-.08.03-.14.02-.18 0a.96.96 0 0 1-.1-.29v-.38c0-.04.03-.09.07-.14v-.02h-.02a.43.43 0 0 0-.09.13.12.12 0 0 0-.04.04v.01h-.01c-.03 0-.04.02-.05.03a.73.73 0 0 0-.08.4c0 .05.03.1.03.14a.4.4 0 0 1-.23.18h-.1l-.1-.24a.96.96 0 0 1 0-.3c0-.06-.02-.12-.01-.19a3.67 3.67 0 0 1 .6-1.12c.08-.04.14-.1.2-.15l.2-.26.14-.17c.04-.04.1-.09.17-.13l.18-.13c.28.1.46.32.54.63l.05.34c.02.31 0 .64-.03.98Z" fill="#FF8D00"/><path d="M5.44 11.36H5.4l.07-.3.02-.04A.04.04 0 0 1 5.5 11h.01c.01 0 .02 0 .01.02l-.09.34Z" fill="#696868"/><path d="m5.46 11.07-.07.3c-.05.25-.1.62.17.77a.01.01 0 0 1 0 .02l-.15.11h-.02l-.01-.02a1 1 0 0 1-.1-.63c.04-.2.07-.4.18-.55ZM8.37 11.25a.76.76 0 0 1-.34.33.22.22 0 0 1-.1.03.92.92 0 0 0-.48.16l-.18.12v-.05c.12-.14.26-.27.43-.39.2-.14.43-.2.67-.2Z" fill="#D77200"/><path d="M8.22 11.77a.94.94 0 0 0-.49-.02 4 4 0 0 1-.14.02v-.03c.09-.03.18-.06.3-.07.12-.01.24.02.33.1Z" fill="#F5CD44"/><path d="M10.08 11.96c.12.07.23.06.35-.02.06-.04.12-.1.17-.16v-.03c.02 0 .03 0 .04.02.04.06-.02.15-.07.18-.13.13-.37.22-.51.07-.02-.02-.01-.04.02-.06ZM8.3 11.87c.04.1.02.18-.05.25h-.03c-.2-.1-.44-.05-.63.06 0-.03.02-.05.04-.06.19-.15.39-.24.63-.22h.03l.01-.03ZM7.5 12.71c-.03 0-.03-.01 0-.04 0 0 .01-.02.03-.02.27-.14.48-.25.76-.28l.01-.01.01-.07c.05.09.05.17-.01.24l-.03.01c-.24 0-.48.04-.72.13a.08.08 0 0 0-.05.04Z" fill="#D77200"/><path d="M8.73 12.85a.8.8 0 0 0-.36-.19 1.45 1.45 0 0 0-.18-.02.01.01 0 0 1 0-.02l.04-.02c.17 0 .47.04.5.25Z" fill="#F5CD44"/><path d="M11.88 12.87a.79.79 0 0 0-.07.49v.02l-.08.11c0-.05-.02-.1-.03-.14a.73.73 0 0 1 .08-.4c0-.01.02-.02.05-.02l.01-.02.04-.04Z" fill="#D77200"/><path d="M11.92 12.9v.38c.01.1.05.2.1.29a.28.28 0 0 1-.17-.22c-.02-.15 0-.3.07-.45ZM11.29 12.94v.2c-.01.1 0 .2.01.3l.1.23c-.12-.07-.17-.2-.16-.38 0-.14.02-.26.05-.35Z" fill="#F5CD44"/><path d="M12.76 12.99v.3c.01.06 0 .12-.03.16a.35.35 0 0 1-.05-.22c0-.1.03-.18.08-.24Z" fill="#D77200"/><path d="M12.41 13.56a.33.33 0 0 1-.12-.25c0-.11 0-.22.04-.3l.02.1c-.01.14 0 .29.06.45Z" fill="#F5CD44"/><path d="M12.27 13.03a.86.86 0 0 0 .01.45v.02a.22.22 0 0 1-.08.07.73.73 0 0 1 0-.48l.01-.02.06-.04ZM8.4 13.26a10.6 10.6 0 0 1-1.22.36c-.2.05-.45.12-.43.36.01.08.04.15.1.22a244.28 244.28 0 0 1 .95.56 1.74 1.74 0 0 1-.36-.1 8 8 0 0 1-1.57-1.14h.47c.69-.05 1.37-.14 2.06-.26Z" fill="#D77200"/><path d="M9.14 14.04v.02c-.11.2-.27.3-.47.34a.96.96 0 0 0 .27-.2l.14-.14c.02-.03.04-.03.06-.02ZM9.11 14.45c-.08.13-.17.19-.27.18.08-.05.15-.1.2-.17a.06.06 0 0 1 .03-.02l.04.01Z" fill="#010101"/><path fill-rule="evenodd" d="M9 15A6 6 0 1 0 9 3a6 6 0 0 0 0 12Zm0-.18A5.82 5.82 0 1 0 9 3.18a5.82 5.82 0 0 0 0 11.64Z" fill="#010101"/></svg>