<!-- by TradingView --><svg width="18" height="18" viewBox="0 0 18 18" xmlns="http://www.w3.org/2000/svg"><path fill="#0D74FD" d="M0 0h18v18H0z"/><path d="M11.23 5.84c-2.53 1.62-4 4.56-5.17 7.35a.62.62 0 0 1-.17.22c-.3.26-.52-.24-.6-.47a6.58 6.58 0 0 1 .67-5.35A7.57 7.57 0 0 1 14 4.17c-.4.9-.94 1.7-1.66 2.29l.3.1a9.3 9.3 0 0 1-1.71 1.42l.43.08a14.69 14.69 0 0 1-3.39 4.2l.73-.13a3.6 3.6 0 0 1-1.66 1.73c-.18.1-.42.2-.6.1-.13-.06-.16-.16-.1-.3.57-1.55 1.27-3 2.07-4.35a14.94 14.94 0 0 1 2.82-3.47Z" fill="#fff"/></svg>