<!-- by TradingView --><svg width="18" height="18" viewBox="0 0 18 18" xmlns="http://www.w3.org/2000/svg"><path fill="url(#a)" d="M0 0h18v18H0z"/><path d="m11.8 7.28-.98-1.57-.14.39.67 1.1.46.08Z" fill="#fff"/><path d="m10.85 6.32-1.77-2.9-.02-.04h-.03a.3.3 0 0 0-.13.08c-.07.08-.15.21-.24.39a2.7 2.7 0 0 1-.22.36c-.06.07-.13.19-.22.34l-.13.23c-.38.59-.75 1.19-1.11 1.8a.48.48 0 0 0-.05-.31.06.06 0 0 1 0-.06c.54-.94 1.15-1.95 1.83-3.04.06-.1.14-.16.24-.17.1 0 .17.05.24.15a1968.58 1968.58 0 0 0 1 1.6l.16.3c.15.21.3.44.43.67a.5.5 0 0 1 .07.28c0 .1-.02.21-.05.32Z" fill="#F5E9B6"/><path d="M9.08 3.42c-.04 0-.05.01-.05.06a529.48 529.48 0 0 0-.01 3.57c-.03.04-.05.05-.06.04L5.9 8.46a.08.08 0 0 1-.07-.04l.47-.82c.01-.03 0-.04-.03-.05-.07-.01-.18.04-.3.16l.2-.35c.1-.19.23-.36.37-.52a.11.11 0 0 1 .06-.04.76.76 0 0 0 .39-.22A62.26 62.26 0 0 1 8.44 4.2l.22-.36c.1-.18.17-.3.24-.39a.3.3 0 0 1 .13-.08h.03l.02.04Z" fill="#D2D2D2"/><path d="m9.08 3.42 1.77 2.9.21.37 1.02 1.68c-.23-.08-.39-.13-.47-.17a87.59 87.59 0 0 1-2.6-1.15v-.07l.02-3.5c0-.05.01-.07.05-.06Z" fill="#575757"/><path d="M12.05 9.95c0-.04 0-.08-.02-.1a.06.06 0 0 0-.06-.04h-.14l.83-1.51c.03-.07.02-.09-.06-.05l-.44.21-.08-.1-1.02-1.67c.07 0 .13.06.18.15 0 .02.02.03.05.02.11-.05.2-.02.28.08.25.36.5.72.72 1.1.03.04.06.05.11.03l.07-.03c.16-.08.28-.1.35-.07.1.05.16.12.18.22l-.01.07-.94 1.7Z" fill="#C2B970"/><path d="M9.02 7.05c.19.1.38.19.58.27l.59.25a44 44 0 0 0 1.89.8l.08.1-2.15 1c-.05.02-.07.06-.07.12.02.3 0 .56-.05.78l-.02-.48c0-.01 0-.02-.02-.03h-.03l-.72.44a.1.1 0 0 1-.1 0l-.23-.11c.02-.07.09-.08.2-.02.02.02.04 0 .04-.03l.02-2.9A.1.1 0 0 0 9 7.2a.42.42 0 0 1-.05-.1s.03 0 .06-.04Z" fill="#1E1E1E"/><path d="m8.96 7.09.05.1a.1.1 0 0 1 .02.06L9 10.15c0 .03-.02.04-.05.02-.1-.06-.17-.05-.19.02a1.98 1.98 0 0 0-.68-.3l-.01-.36a.06.06 0 0 0-.04-.06l-2.15-1 3.07-1.38Z" fill="#575757"/><path d="M5.82 8.42c-.16-.04-.3-.1-.41-.18-.09-.05-.1-.04-.06.05l.86 1.51a.42.42 0 0 1-.16-.05.06.06 0 0 0-.06 0 .15.15 0 0 0-.06.09L5 8.2a.06.06 0 0 1 0-.06c.06-.13.15-.2.27-.2.08 0 .2.03.33.1.07.04.13.02.17-.04l.18-.3c.12-.12.23-.17.3-.16.04 0 .04.02.03.05l-.47.82Z" fill="#C2B970"/><path d="M5.82 8.42c.01.02.04.04.07.04l2.15 1.01c.02.01.04.03.04.06v.76l-.1.02a8.13 8.13 0 0 0-.95-.55l-.22-.17a.4.4 0 0 0-.2-.1.2.2 0 0 0-.07-.04c-.05-.01-.06 0-.03.04l2.45 3.35c.08.55.07 1.14-.01 1.75L7.1 11.4l-.9-1.59-.86-1.51c-.05-.09-.03-.1.06-.05.12.08.25.14.4.18Z" fill="#FFF503"/><path d="m11.83 9.82-.6 1.05-1.08 1.95L9.1 14.7c-.02.03-.04.03-.07.01-.06-.04-.09-.07-.08-.1a6.1 6.1 0 0 0 0-1.76c.01.02.03.03.05.03.02 0 .03 0 .05-.02l2.44-3.34c.1-.12.08-.13-.04-.03-.17.14-.3.23-.39.28-.28.13-.67.35-1.19.66-.36.22-.63.37-.8.46h-.1l-.06-.03-.92-.54.09-.02.87.53a.1.1 0 0 0 .13 0l.81-.45c.05-.22.07-.48.05-.78 0-.06.02-.1.07-.12l2.15-1 .44-.22c.08-.04.1-.02.06.05l-.83 1.52Z" fill="#F7DF08"/><path d="M8.96 12.84 6.5 9.49c-.03-.04-.02-.05.02-.04a.2.2 0 0 1 .07.04l2.3 3.08c.05.08.08.07.09-.03a56.07 56.07 0 0 0 .04-1.61 16.04 16.04 0 0 1 2.03-1.17 1.92 1.92 0 0 0 .4-.28c.1-.1.12-.1.03.03l-2.44 3.34a.05.05 0 0 1-.05.02.05.05 0 0 1-.04-.03Z" fill="#1E1E1E"/><path d="m7.99 10.31.92.54c.02.02.05.02.07.03h.09a.25.25 0 0 0-.04.05 56.08 56.08 0 0 1-.04 1.62c0 .09-.04.1-.1.02L6.6 9.49a.4.4 0 0 1 .2.1 3.65 3.65 0 0 0 .47.31c.25.13.49.26.72.41Z" fill="#666667"/><path d="m6.2 9.8.91 1.6a1 1 0 0 1-.36-.11l-.82-1.45a.15.15 0 0 1 .06-.09.06.06 0 0 1 .06 0c.05.03.1.05.16.05Zm5.85.15-.44.76-.38.16.6-1.05h.14c.03 0 .05 0 .06.02.02.03.02.07.02.11Zm-2.15.42-.82.46a.12.12 0 0 1-.13 0l-.87-.54v-.4c.25.06.48.16.7.3l.23.11a.1.1 0 0 0 .09 0l.72-.43h.03l.02.02.02.48Z" fill="#554116"/><path d="m11.61 10.71-1.2 2.12h-.26l1.08-1.96.38-.16Z" fill="#D4A133"/><path d="m7.11 11.4 1.84 3.2c0 .03.02.06.08.1.03.02.05.02.07-.01l1.05-1.87.26.01a29.18 29.18 0 0 1-1.31 2.13c-.04.05-.09.05-.14.01a1.07 1.07 0 0 1-.2-.24 92.86 92.86 0 0 1-2.01-3.44 1 1 0 0 0 .36.1Z" fill="#ECD878"/><path d="M6.19 7.3 7.05 6l.22.1-.67 1.1-.41.1Z" fill="#fff"/><defs><linearGradient id="a" x1="3.35" y1="3.12" x2="21.9" y2="24.43" gradientUnits="userSpaceOnUse"><stop stop-color="#1A1E21"/><stop offset="1" stop-color="#06060A"/></linearGradient></defs></svg>