<!-- by TradingView --><svg width="18" height="18" viewBox="0 0 18 18" xmlns="http://www.w3.org/2000/svg"><path fill="#FFE842" d="M0 0h18v18H0z"/><path d="M13.63 14h-7.6C4.4 14 4.66 13.23 4 12.52c0-.04 0-.08.02-.1l.73-.9c.05-.07.06-.13.08-.2.01-.03.02-.05.04-.06a3 3 0 0 1 .22-.17.3.3 0 0 0 .1-.13.87.87 0 0 0 .05-.14c0-.02 0-.03-.02-.04-.22-.1-.31-.27-.28-.51.12-.83.23-1.55.35-2.16a3.22 3.22 0 0 1 .52-1.3v-.04c-.22-.38-.34-.8-.36-1.24-.02-.62.3-1.32.9-1.35h.74c.07 0 .25-.05.55-.13.17-.05.29-.06.36-.04.12.04.21.11.3.22.01.01.03.02.05.01.33-.14.7-.21 1.1-.22a7.8 7.8 0 0 1 1.87.17c.26.06.5.18.69.37.01.01.03.02.05.01.33-.06.62.18.9.27.18.05.32.11.42.18.26.17.44.42.54.76.02.08.03.27.03.58v.38c.03.14.04.27.03.38 0 .2-.08.3-.24.32v.01l-.01.01v.01c.11.32.24.64.26.98.01.28.03.74-.04 1.07-.04.22-.15.36-.32.4-.02 0-.03.02-.03.05 0 .13-.04.25-.1.37a.1.1 0 0 0-.02.06c.05.32-.1.44-.3.62a.08.08 0 0 0-.02.06c-.02.37-.17.62-.47.76-.03.02-.03.03 0 .04.2.1.38.14.5.4.14.3.3.7.46 1.17v.06a.2.2 0 0 0-.06.19l.04.3Z" fill="#070305"/><path d="m5.51 11.43-.33.12-.27-.2a.02.02 0 0 1 0-.02l.25-.22h.04l.31.32Z" fill="#EB141C"/><path d="M5.5 11.43c.11.07.2.15.3.26l-.38.1-.24-.24.33-.12Z" fill="#FFE44D"/><path d="M5.02 11.54c.12.06.21.15.3.26l-.32.03a.49.49 0 0 1-.34-.07l.18-.2c.06 0 .12 0 .18-.02Z" fill="#C4A237"/><path d="m6.26 12.09-.63.06-.2-.37.36-.09.47.4Z" fill="#00D634"/><path d="M4.66 11.76c.1.07.22.09.34.07l.15.18.03.06c.01.06.03.09.07.08-.02.02-.03.02-.02 0a2.4 2.4 0 0 1-.79-.11l.22-.28Z" fill="#00B32D"/><path d="m12.48 12.44-.45-.01c.2-.16.34-.29.42-.4.1-.15.15-.13.13.06a1.1 1.1 0 0 1-.1.35Z" fill="#FFE44D"/><path d="M4.44 12.04c.26.08.52.12.79.11l.15.3c.01.03.03.04.05.06l.06.02.17.02-.23.02c-.15 0-.3-.02-.46-.04-.25-.03-.49-.12-.71-.27a.7.7 0 0 1 .18-.22ZM6.26 12.09l.67.35-1.15.12-.15-.4.63-.07Z" fill="#EB141C"/><path d="M5.51 12.15c.08.12.13.25.16.39H5.5a.13.13 0 0 1-.06-.03.15.15 0 0 1-.05-.06l-.15-.3c0 .02 0 .02.02 0h.26Z" fill="#BB1218"/><path d="M4.26 12.26c.22.15.46.24.71.27l.46.04c.08.12.14.25.16.38-.38.05-.73-.01-1.05-.17-.15-.07-.3-.2-.44-.3a.5.5 0 0 1 .16-.22Z" fill="#FFE44D"/><path d="M12.03 12.43h.45a.7.7 0 0 0 .05.37c.01.02 0 .04-.02.04l-.14.04c-.03 0-.05 0-.07.03-.3-.26-.58-.24-.85.05l-5.43.4-.13-.45c.67-.01 1.34-.07 2.01-.16.64.13 1.25.2 1.84.21a5.26 5.26 0 0 0 2.13-.44.95.95 0 0 1 .16-.1Z" fill="#00D634"/><path d="m6.93 12.44.97.31c-.67.1-1.34.15-2 .16l-.12-.35 1.15-.12Z" fill="#FFE44D"/><path d="M5.6 12.95c.12.01.18 0 .19-.05l.1.42c.01.02 0 .03-.02.03l-.2.03c-.64.06-1.2-.13-1.67-.57v-.3c.06.01.1 0 .1-.04.15.11.29.24.44.31.32.16.67.22 1.05.17Z" fill="#00B32D"/><path d="M5.67 12.54c.06.1.1.22.12.36 0 .05-.07.06-.2.05a.95.95 0 0 0-.16-.38l.23-.02.01-.01Z" fill="#C4A237"/><path d="M5.66 13.38a.3.3 0 0 0 .22 0c.02 0 .04 0 .05.03.04.09.06.19.06.3 0 .03-.01.04-.03.03h-.07c-.01.02-.02.03 0 .06A2.76 2.76 0 0 1 4 13.3v-.5c.47.44 1.03.63 1.66.57ZM12.37 12.88c.19-.04.32.09.42.4l-.37.02a.82.82 0 0 0-.12-.4.08.08 0 0 1 .07-.02ZM11.46 12.96c-.07.15-.1.3-.1.42l-5.2.4-.06-.02-.08-.4 5.44-.4Z" fill="#EB141C"/><path d="M6.02 13.82a.28.28 0 0 1 .1-.01c.03 0 .04.01.05.03l.02.16H4.87L4 13.7v-.39c.62.38 1.3.55 2.02.51ZM12.79 13.28a1 1 0 0 1 .05.43l-.55.02c.1-.14.15-.28.13-.43l.37-.02Z" fill="#FFE44D"/><path d="M11.35 13.38c.03.16.1.3.2.42l-2 .2H6.13l-.02-.18c.01-.04.03-.05.06-.04l5.2-.4Z" fill="#FFE44D"/><path d="M13.55 14h-.6v-.06c.01-.02.02-.04.05-.04.17-.04.33-.12.48-.24.02-.01.03 0 .04.01.03.1.04.22.03.33Z" fill="#FF2829"/><path d="M4.82 14h-.78C4 14 4 13.98 4 13.95v-.29l.82.34Z" fill="#00B32D"/><path d="m12.3 13.73.54-.02.01.29h-3.3l2-.2c.12.09.24.13.39.14.02 0 .04 0 .05-.02a.31.31 0 0 1 .14-.06c.02 0 .04-.02.05-.03l.11-.1Z" fill="#00D634"/><path d="M6.16 13.78c-.03-.01-.05 0-.06.04a.2.2 0 0 1 0-.06l.06.02ZM8.45 4.97c-.12-.2-.26-.3-.44-.29-.02-.02-.03-.02-.05 0v.49a2.55 2.55 0 0 1-.6 1.46c-.23.3-.44.6-.63.9a.91.91 0 0 1-.2.21.1.1 0 0 1-.13 0 .12.12 0 0 1-.03-.02c-.11-.18-.2-.44-.29-.62a301 301 0 0 1-.27-.54c-.34-.66-.47-1.82.3-2.21.1-.05.26-.07.5-.07h.53c.05 0 .23-.04.55-.12a.6.6 0 0 1 .29-.03c.1.03.19.1.26.2l.27.48c.03.07.01.12-.06.16Z" fill="#FF2829"/><path d="M11.37 4.31c.05.05.15.1.3.2.09.04.17.13.24.26l.07.2c.02.07.05.13.1.19 0 .13-.06.23-.18.3-.02.01-.03 0-.03-.02a1.64 1.64 0 0 0-.23-.74h-.01l-.01.01v.03c.1.3.14.58.13.85l-.2.06h-.04l-.04-.02a.1.1 0 0 1-.02-.03.1.1 0 0 1-.01-.04.95.95 0 0 0-.25-.58l-.07-.17h-.03l-.01.03c.02.06.02.12 0 .17 0 .2.04.39.13.57-.01.1-.06.17-.13.2-.1.03-.19-.07-.2-.16-.04-.24-.07-.53-.12-.57-.02-.02-.03 0-.03.02v.05c-.03 0-.04.02-.04.07v.5c-.03.07-.07.11-.13.11a.12.12 0 0 1-.06-.03.14.14 0 0 1-.05-.06c-.06-.2-.14-.48-.35-.57v-.09l-.04-.01h-.01l-.01.02v.02l.06.56c0 .14-.04.26-.15.37-.03-.23-.1-.42-.21-.57-.08-.1-.1-.19-.13-.3l-.01-.06a.06.06 0 0 0-.06 0 .07.07 0 0 0-.03.03v.03a2.5 2.5 0 0 1-.17.78c-.3.04-.29-.35-.33-.57a2.97 2.97 0 0 1 .1-.32l-.01-.02h-.03a.85.85 0 0 0-.14.28c-.08.26-.16.52-.22.77-.1.06-.18.06-.22 0a.49.49 0 0 1-.1-.29c0-.18.01-.35.04-.52l.28-.46v-.04h-.06a.05.05 0 0 1-.05.02l-.02-.01-.02-.02-.19-.34a.05.05 0 0 1 0-.04l.01-.02.02-.01c.36-.14.74-.2 1.18-.2l.76.01c.18 0 .52.06 1.03.17Z" fill="#FF2829"/><path d="M12.07 5.16a.62.62 0 0 1-.09-.2l-.07-.19a.64.64 0 0 0-.24-.27 1.52 1.52 0 0 1-.3-.19c.2.08.34.14.39.18.2.15.31.37.31.67ZM13.83 7.32c0-.2 0-.4-.03-.6a2.14 2.14 0 0 1-.01-.38c.03-.42-.04-.77-.32-1.06-.07-.08-.2-.15-.37-.22l-.4-.15-.28-.13c-.1-.05-.2-.08-.31-.1l-.01-.01a.02.02 0 0 1 0-.02.02.02 0 0 1 .02 0c.14 0 .26.04.38.1.18.09.34.15.47.2.2.05.34.12.44.2.2.17.33.35.4.57.04.12.06.32.06.61 0 .26.01.52.05.78 0 .08-.02.15-.09.2Z" fill="#F1D3D6"/><path d="M8.45 4.97c-.1.3-.25.55-.43.76A.14.14 0 0 0 8 5.8c-.07.37-.2.71-.38 1.03.02-.05 0-.06-.06-.03l-.02.02c-.23.35-.45.65-.67.9a.94.94 0 0 1-.28.22.32.32 0 0 1-.16.04c-.03 0-.08-.03-.12-.08-.14-.15-.3-.3-.36-.51-.06-.26-.13-.27-.19-.02-.09.36-.23.72-.43 1.1a3.18 3.18 0 0 1 .5-1.52.06.06 0 0 1 .07 0l.02.03c.1.2.2.4.28.61.05.11.1.2.18.26.02.02.05.03.08.03.02 0 .05 0 .08-.02a2 2 0 0 0 .48-.6c.2-.32.44-.6.65-.92.32-.49.43-1.04.34-1.66.18 0 .32.09.44.29Z" fill="#D00225"/><path d="M13.83 7.32a.75.75 0 0 1-.3 0c-.11-.14-.24-.27-.3-.46a2.15 2.15 0 0 0-.23-.51.98.98 0 0 0-.59-.4 1.49 1.49 0 0 1-.06-.52 13.6 13.6 0 0 1 .03-.46h-.03l-.01.01-.05.14c0 .03-.02.03-.03 0a.76.76 0 0 1-.15-.43c.1.01.21.04.31.09l.28.13.4.15c.18.07.3.14.37.22.28.3.35.64.32 1.06l.01.38c.03.2.04.4.03.6Z" fill="#FF2829"/><path d="M11.75 5.6a.46.46 0 0 1-.11.15c-.08.06-.16.06-.22.01-.05-.03-.08-.1-.1-.19l-.13-.6c.15.17.23.37.25.59v.04l.03.03.04.02h.03l.21-.06ZM9.6 5.13c.05.12.06.21.14.31.1.15.18.34.21.57 0 .02-.03.04-.07.05a.09.09 0 0 1-.07-.02.1.1 0 0 1-.03-.03.12.12 0 0 1-.01-.04 1.39 1.39 0 0 0-.15-.44c-.08-.14-.1-.27-.01-.4ZM10.7 5.68v.03c0 .01 0 .02.02.01l.03-.02c-.03.12-.08.2-.16.24-.06.03-.11.02-.16-.03a4.2 4.2 0 0 1-.32-.77c.2.09.28.36.34.57l.05.06.06.03c.06 0 .1-.04.14-.12Z" fill="#D00225"/><path d="m12.24 5.33.01.02.01.02v.24h-.01l-.12-.09c-.02-.02-.03-.04-.02-.07l.06-.21c.01-.03.02-.04.04-.01l.02.07v.03Z" fill="#EB141C"/><path d="M8.43 5.25c-.03.17-.04.34-.04.52 0 .12.04.21.1.3.04.05.12.05.22-.01a.44.44 0 0 1-.2.16c-.15.05-.23-.01-.26-.19-.03-.3.03-.55.18-.78ZM9.01 5.35c.04.22.03.6.33.57-.02.07-.06.12-.1.15-.13.05-.22-.09-.25-.2A.67.67 0 0 1 9 5.35Z" fill="#D00225"/><path d="M12.06 5.58c-.04.05-.1.14-.18.29-.15.27-.34.3-.57.1h-.06c-.1.06-.2.07-.31.03l-.06.01-.28.26a1.3 1.3 0 0 0-.87.1l-.24-.23-.03-.01h-.03c-.05.05-.1.13-.14.16-.11.08-.24.08-.37-.02h-.05c-.1.06-.14.18-.26.21-.2.04-.36-.02-.49-.2-.02-.02-.03-.02-.03.01 0 .22-.08.42-.22.6a.66.66 0 0 0-.08.3c0 .25-.04.48-.12.68-.06.13-.09.23-.1.32-.02.11-.04.22-.08.33-.05.15-.08.32-.09.5 0 .31.02.64.09.99l-.2-.78c.01-.35.05-.6.1-.71.2-.43.29-.88.25-1.36 0-.12.05-.33.12-.46.14-.22.23-.5.28-.8a.43.43 0 0 1 .1-.2c.02-.03.03-.02.03 0-.03.22-.04.5.14.6.24.13.47-.13.55-.38.01-.06.03-.06.05 0 .09.22.24.35.43.17.07-.06.13-.2.2-.46 0-.03.01-.03.03 0l.1.34c.02.1.07.17.16.22h.05c.18-.08.28-.22.3-.43.01-.04.02-.04.03 0 .04.1.1.2.17.25.15.11.28.07.38-.13a.93.93 0 0 1 .06-.09c.01-.02.02-.02.04 0 .13.16.26.15.39-.02.01-.02.03-.02.05 0 .09.1.16.14.23.13.15-.02.25-.11.3-.27l.02-.03.02-.02c.1-.04.16-.04.19 0Z" fill="#D00225"/><path d="M12.06 5.58c.14.11.23.25.3.4 0 .02 0 .03-.02.03-.1-.01-.15.01-.14.08.2.08.34.16.43.25.18.2.3.47.34.82-.34-.13-.64-.2-.89-.22-.25-.02-.53.05-.84.2h-.02l-.02-.03-.02-.04c-.01-.03 0-.04.02-.05.1 0 .18-.03.23-.05.17-.09.35-.15.54-.2.22-.05.48 0 .72.01.01 0 .02 0 .02-.02 0-.01 0-.02-.02-.02-.45-.14-.89-.1-1.3.15a.72.72 0 0 1-.21.05h-.03l-.03-.03-.03-.09c-.01-.03 0-.04.02-.05a3.64 3.64 0 0 1 1.47-.2l-.02-.03v-.02h-.02a2.1 2.1 0 0 0-.57-.02c-.26.03-.56.1-.9.2-.02 0-.04 0-.05-.02a.64.64 0 0 0-.42-.41l.28-.26a.05.05 0 0 1 .06 0c.1.03.2.02.3-.04.03-.01.05-.01.07 0 .23.2.42.17.57-.1.08-.15.14-.24.18-.29Z" fill="#FF2829"/><path d="M13.54 7.32a.51.51 0 0 1-.44-.3c-.06-.12-.09-.31-.16-.45a2.1 2.1 0 0 0-.53-.61c.24.06.44.19.59.39.09.13.16.34.22.51.07.19.2.32.32.46Z" fill="#D00225"/><path d="M12.97 7.16a1.4 1.4 0 0 0-.34-.82 1.24 1.24 0 0 0-.43-.25c.25.03.44.14.57.34.15.21.23.46.26.73 0 .03 0 .04-.03.03a.07.07 0 0 1-.03-.03Z" fill="#F1D3D6"/><path d="M9.73 6.38c-.35.18-.62.3-.82.37-.14.04-.35.08-.61.1-.02 0-.03.01-.02.03l.01.02.02.01c.25 0 .45-.02.6-.07.25-.09.54-.21.84-.37.26-.13.51-.18.76-.14.15.09.26.17.31.25.06.08.14.28.26.6a2.1 2.1 0 0 0-1.94 0c-.69.34-.53.64-.5.56l1.27.42.08.1c.02.01.02.03 0 .05-.1.09-.21.05-.35.04-.01 0-.02-.01-.02-.03 0 0 0-.02-.02-.02a1.3 1.3 0 0 0-.65-.11l-.01.01a.04.04 0 0 0 0 .04c.05.06.1.1.14.09.09.06.19.1.3.12a2.26 2.26 0 0 0 1.7-.37l.02-.03c.03-.03.05-.07.07-.13a1.86 1.86 0 0 1 .72.23.03.03 0 0 1 0 .03h-.01a.53.53 0 0 0-.22.17l-.11.12c-.17.16-.4.2-.55.4-.28.33-.25.67.1 1.03.19.16.36.2.51.15.29-.1.58-.1.9-.03.1.02.2.01.32-.04a.54.54 0 0 0 .24-.22c.16-.27.19-.56.07-.88-.09-.22-.27-.31-.47-.38a.95.95 0 0 1-.23-.15 1.12 1.12 0 0 0-.52-.24l-.01-.01-.01-.02v-.04h.02A4.8 4.8 0 0 0 13 7.77c.05.04.1.04.13 0 .03.1 0 .17-.1.2l-.15.05c-.02 0-.03.02-.01.04.04.05.1.05.2 0 .21.53.31 1.08.29 1.64-.2.24-.44.4-.71.47-.06.01-.22.03-.48.03-.19 0-.39.04-.6.1a.58.58 0 0 1-.4-.05 4.72 4.72 0 0 0-.72-.37c-.19-.06-.38-.08-.58-.06-.21.02-.34.14-.38.35-.04.15-.05.3.02.44.15.31.39.5.71.58.44.1.87.16 1.3.17l.23.07c.1.03.17.06.2.11.09.13.04.29-.14.48a3.6 3.6 0 0 1-1.3.1c-.38-.04-.7-.18-1-.4a.32.32 0 0 0-.1-.04l-.12-.04h-.03a.06.06 0 0 0-.03.02v.06c.04.11.1.2.17.27.1.09.22.16.4.24.26.1.51.17.76.2.13.02.13.03 0 .06-.53.1-1.04.1-1.55.04-.75-.11-1.5-.3-2.22-.56a.94.94 0 0 1-.58-.55.2.2 0 0 1 0-.16.18.18 0 0 1 .05-.06.16.16 0 0 1 .06-.04c.13-.03.26-.1.36-.2h.06l.08.09.13.08c.3.14.47.03.54-.32.03-.27.03-.54 0-.81-.07-.35-.1-.68-.09-1 .01-.17.04-.34.1-.5.03-.1.06-.2.07-.32.01-.09.04-.2.1-.32.08-.2.12-.43.12-.69 0-.07.04-.23.08-.29.14-.18.22-.38.22-.6 0-.03.01-.03.03 0 .13.17.3.23.49.2.12-.04.17-.16.26-.22a.05.05 0 0 1 .05 0c.13.1.26.1.37.02.05-.03.09-.11.15-.15a.04.04 0 0 1 .05 0l.24.24Z" fill="#FF2829"/><path d="M11.08 7.17c-.12-.31-.2-.5-.26-.6a.84.84 0 0 0-.31-.24c.17.03.3.12.39.27.1.18.17.37.18.57Z" fill="#F1D3D6"/><path d="M7.63 6.83c-.03.17-.05.33-.05.5 0 .21-.02.38-.05.5-.06.28-.15.56-.25.83-.04.09-.06.27-.07.55.05.3.1.61.17.92.03.15.04.26.04.35 0 .13-.03.25-.07.35a.26.26 0 0 1-.25.16.2.2 0 0 1-.13-.15c-.03-.18-.09-.33-.1-.5-.01-.26-.04-.56-.09-.89-.05-.38-.04-.76.03-1.14 0-.02 0-.03-.02-.03h-.02l-.01.01c-.08.26-.11.53-.1.8.02.23.05.51.1.83.04.32-.03.6-.2.84-.17-.17-.26-.44-.28-.81-.07-.48-.05-.97.05-1.46 0-.04 0-.04-.03-.02a.16.16 0 0 0-.05.06c-.05.14-.08.34-.1.6l-.01 1.18c0 .16-.03.35-.17.44-.14.09-.28.04-.34-.13a.66.66 0 0 1 0-.42l.33-2.1c0-.03 0-.05-.03-.05-.02 0-.04.02-.06.05l-.05.18a18.52 18.52 0 0 0-.32 2.09.4.4 0 0 1-.1.2c-.17-.03-.26-.13-.28-.3l-.03-.3.24-1.5c.2-.38.34-.74.43-1.1.06-.25.13-.24.2.02.04.21.21.36.35.51.04.05.09.08.13.08.05 0 .1-.01.15-.04.11-.06.2-.13.28-.21a7.86 7.86 0 0 0 .69-.93c.06-.03.08-.02.07.03Z" fill="#FF2829"/><path d="M10.53 7.08c.16.33.1.59-.19.77-.08.06-.21.11-.38.17.16-.32.18-.63.04-.95 0-.02 0-.04.02-.04.18-.02.35 0 .51.05ZM12.63 7.14c.09.24.01.47-.22.7l-.32.08c-.03 0-.04 0-.02-.03a.94.94 0 0 0 .03-.84v-.01l.01-.01h.01l.51.11Z" fill="#fff"/><path d="M9.96 8.02c.17-.06.3-.11.38-.17.28-.18.35-.44.2-.77l.55.19c.02 0 .03.02.03.05 0 .18-.02.32-.07.43a.5.5 0 0 1-.38.33c-.24.04-.48.02-.71-.06ZM12.4 7.85c.24-.24.32-.47.23-.71.08.01.17.05.29.1.14.07.2.19.18.35 0 .02-.02.04-.04.06a2.13 2.13 0 0 1-.66.2Z" fill="#97A6C5"/><path d="M13.17 7.99c.06-.12.1-.19.01-.31a.1.1 0 0 1-.01-.07c0-.13 0-.23-.04-.3-.04-.08-.02-.1.05-.06.04.02.07.05.12.1a5.6 5.6 0 0 1 .37 1.79.2.2 0 0 1-.03.11l-.07.1c-.04.07-.06.06-.06-.02a2.85 2.85 0 0 0-.34-1.3v-.04Z" fill="#D00225"/><path d="M13.6 7.43c.15.5.23.82.22.98v1.02l-.07.34c-.02.04-.06.06-.11.06a.12.12 0 0 1-.1-.05c-.05-.06-.07-.15-.04-.26l.01-.03.03-.02c.07-.04.13-.1.16-.16a.44.44 0 0 0 .04-.22l-.05-.64c0-.15-.1-.48-.26-.99 0-.02 0-.03.03-.03h.14Z" fill="#FF2829"/><path d="m13.75 9.77.06-.34c.02-.1.02-.22.02-.35a9.89 9.89 0 0 1 0-.67c0-.16-.08-.49-.23-.98.18.34.28.64.3.89.01.26.02.58 0 .95 0 .2-.05.37-.15.5ZM13.36 9.7c.02-.55-.08-1.1-.3-1.63.33.5.43 1.05.3 1.64Z" fill="#F1D3D6"/><path d="M12.02 8.25c.18.07.33.17.45.3.05.06.15.09.3.08.26.12.38.36.35.7l-.18.09c-.03-.25-.25-.56-.48-.3-.2.05-.38.05-.56 0-.19-.17-.37-.1-.55.22-.03.05-.07.15-.1.28l-.33-.32c0-.21.08-.37.25-.47.25-.16.42-.27.5-.35.12-.17.23-.25.35-.23Z" fill="#EB141C"/><path d="M12.02 8.25c.16 0 .31.07.44.2.06.05.1.09.14.1l.17.08c-.15 0-.25-.02-.3-.07a1.16 1.16 0 0 0-.45-.31Z" fill="#F1D3D6"/><path d="M11.9 9.12c.04.1.04.2 0 .26a.57.57 0 0 1-.44.28l-.1.01a.08.08 0 0 0-.04.05l-.03.05c-.01.03-.03.03-.04 0a.22.22 0 0 1 0-.15c.03-.13.07-.23.1-.28.18-.31.36-.39.55-.22ZM12.94 9.42l.03.11c.03.1 0 .12-.07.06l-.05-.06-.02-.02h-.03c-.13.02-.24 0-.33-.08-.1-.08-.08-.22-.01-.32.23-.25.45.06.48.3Z" fill="#3B060A"/><path d="M12.46 9.11c-.07.1-.08.24.01.32.09.07.2.1.33.08h.03l.02.02a1 1 0 0 0 .05.06c.07.06.1.04.07-.06l-.03-.11.18-.1c-.01.3-.22.65-.53.6l-.37-.04a.8.8 0 0 0-.28 0 4 4 0 0 0-.28.07.48.48 0 0 1-.5-.12.7.7 0 0 1-.24-.53l.33.32a.22.22 0 0 0 0 .14c.01.04.03.04.04 0l.03-.04a.08.08 0 0 1 .05-.05l.1-.01a.57.57 0 0 0 .43-.28c.04-.07.04-.15 0-.26.18.05.37.05.56 0Z" fill="#BB1218"/><path d="M13.39 9.76a.7.7 0 0 1-.02.56c-.16.15-.36.26-.6.3l.18-.26a.4.4 0 0 0 .05-.25c.15-.08.28-.2.39-.35Z" fill="#D00225"/><path d="M13.39 9.76c.14.13.16.3.05.5-.03.04-.05.06-.07.06a.7.7 0 0 0 .02-.56Z" fill="#F1D3D6"/><path d="M11.07 10.32c.2.1.36.12.48.08.22-.08.5-.1.86-.1.18.02.37-.05.6-.19a.4.4 0 0 1-.06.25l-.18.26c-.3.09-.58.06-.88.08l-.46.04c-.16.02-.31.02-.47.01l-1.03-.42a.06.06 0 0 0-.05 0l-.02.01-.01.02a.05.05 0 0 0 0 .05l.02.01 1.06.45 1.3-.08a.94.94 0 0 1-.43.41c-.54.05-1.07 0-1.6-.15a.99.99 0 0 1-.38-.18c-.23-.2-.36-.49-.19-.8.05-.08.14-.13.27-.14.22-.02.42.02.6.11l.57.28Z" fill="#FF2829"/><path d="M6.55 10.76a.16.16 0 0 1-.1.05c-.04 0-.07-.01-.1-.04a.49.49 0 0 1-.15-.24c-.03-.15 0-.34.08-.58.02.37.11.64.27.81ZM5.1 9.97l.02.3c.02.17.11.27.28.3-.16.2-.28.13-.38-.16-.04-.1-.01-.25.07-.44Z" fill="#D00225"/><path d="m13.25 10.84.13-.36c.04.14 0 .26-.13.36Z" fill="#F1D3D6"/><path d="m13.38 10.48-.13.36c-.16.14-.35.23-.56.28a4.5 4.5 0 0 1-.89.08c.2-.1.35-.25.43-.41a2 2 0 0 0 1.15-.31ZM7.05 11.05c.13.03.2.03.24-.01l.2-.22c-.07.35-.25.46-.54.32a.38.38 0 0 1-.13-.08.83.83 0 0 0-.08-.09h-.06c-.1.1-.23.17-.36.2a.16.16 0 0 0-.06.04.18.18 0 0 0-.05.06.2.2 0 0 0 0 .16c.1.27.3.45.58.55.73.26 1.47.45 2.22.56.5.07 1.02.06 1.55-.04.13-.03.13-.04 0-.06-.25-.03-.5-.1-.76-.2a1.4 1.4 0 0 1-.4-.24.68.68 0 0 1-.18-.27.07.07 0 0 1 .01-.06l.03-.02h.03l.12.04c-.04.02-.02.06.05.13.51.44 1.31.5 1.92.4.34-.05.66-.13.95-.24.06-.02.07-.01.03.04-.16.19-.4.37-.62.47-.57.24-1.17.37-1.77.37-.6 0-1.22-.05-1.86-.18-.46-.1-.9-.24-1.33-.43a3.05 3.05 0 0 1-.55-.34c-.23-.17-.52-.42-.88-.74-.09-.08-.1-.18-.06-.3a.88.88 0 0 1 .1-.17c.07-.1.13-.09.19.02.08.18.2.22.39.12a.65.65 0 0 0 .18-.18c.02-.02.03-.02.04 0 .01.04.05.08.1.14.18.2.38-.02.45-.2.03-.1.06-.1.08 0a.9.9 0 0 0 .23.45Z" fill="#D00225"/><path d="M12.73 11.7c.13-.16.23-.36.3-.6.03.27-.08.47-.3.6Z" fill="#F1D3D6"/><path d="M13.04 11.1c-.08.24-.18.44-.31.6-.28.14-.59.25-.92.33.18-.2.23-.35.14-.48-.04-.05-.1-.09-.2-.11a4.56 4.56 0 0 1-.23-.07l.26-.08c.4 0 .82-.06 1.26-.2Z" fill="#D00225"/><path d="M13.56 13.44c-.05-.03-.1-.12-.15-.27l-.11-.32-.02-.02-.02-.01h-.02l-.02.02-.18.25-.17.14-.16-.29a.87.87 0 0 0 .28-.28c.2-.17.17-.34-.07-.51a.35.35 0 0 0-.23-.1.11.11 0 0 1-.03-.06c0-.03 0-.04.03-.03.16.08.32.12.42.31.18.38.33.76.45 1.17Z" fill="#FFE44D"/><path d="M12.92 12.15a.1.1 0 0 1-.05.11c-.09.12-.18.2-.3.28.02-.18.06-.35.12-.5.08 0 .16.04.23.11Z" fill="#008221"/><path d="M13 12.66c-.07-.11-.1-.24-.13-.4a.1.1 0 0 0 .05-.11c.24.17.26.34.07.5Z" fill="#EB141C"/><path d="M12.87 12.26c.02.16.06.29.12.4a.87.87 0 0 1-.28.28c-.07-.11-.1-.2-.13-.25-.02-.06-.02-.11 0-.15.1-.07.2-.16.3-.28Z" fill="#BB1218"/><path d="m13.4 13.17-.22.25c-.06-.04-.08-.08-.08-.12a.27.27 0 0 0-.06-.2l.18-.26.02-.02a.04.04 0 0 1 .04.01l.02.02.1.32Z" fill="#00D634"/><path d="M13.04 13.1c.05.05.07.12.06.2 0 .04.02.08.08.12l-.25.1-.06-.29.17-.14Z" fill="#008221"/><path d="M13.4 13.17c.05.15.1.24.16.27a.85.85 0 0 1-.45.32.9.9 0 0 0-.13.04c-.02.01-.03 0-.04-.02v-.25l.24-.1.23-.26ZM12.05 12.82c.1.14.25.2.27.42v.36a.51.51 0 0 1-.14.16.44.44 0 0 1-.43.07.48.48 0 0 1-.2-.15.58.58 0 0 1-.05-.65c.06-.1.15-.17.25-.2.1-.04.2-.05.3-.01Z" fill="#EB141C"/><path d="m8.02 7.51.11.09c.06.05.05.07-.02.06-.1 0-.15-.06-.18-.16l.01-.07a.25.25 0 0 1 .16-.1 3.78 3.78 0 0 0 1.16-.46c.14-.08.25-.12.33-.15a1.69 1.69 0 0 1 1.1.08v.01l-.02.02-.02.01a1.8 1.8 0 0 0-.88-.06c-.17.03-.35.1-.54.2a4.2 4.2 0 0 1-1.2.47l-.01.01-.01.02v.02l.01.01Z" fill="#070305"/></svg>