<!-- by TradingView --><svg xmlns="http://www.w3.org/2000/svg" width="18" height="18" viewBox="0 0 18 18"><path fill="url(#ayddlfiyw)" d="M0 0h18v18H0z"/><path d="M11.9 5l-1.3 2h2.1l-2.5 4h.82l1.26-2h1.32l-1.79 3H9.5l-1.26 2H6.86l1.29-2H5.9l2.63-4H7.7l-1.45 2L4.5 6.95 5.88 5h6.02zM6.64 6l-.72.97.46.95.68-.92H9.1l.65-1H6.64zM10 8l-1.95 3h.79l1.96-3H10z" fill="#F8B003"/><defs><linearGradient id="ayddlfiyw" x1="3.35" y1="3.12" x2="21.9" y2="24.43" gradientUnits="userSpaceOnUse"><stop stop-color="#1A1E21"/><stop offset="1" stop-color="#06060A"/></linearGradient></defs></svg>