<!-- by TradingView --><svg width="18" height="18" viewBox="0 0 18 18" xmlns="http://www.w3.org/2000/svg"><path fill="url(#aqfldk32j)" d="M0 0h18v18H0z"/><path d="m13.1 12.82-4.08-3.2-4.19 3.27c-.32.25-.83.05-.83-.34v-7.1c0-.39.51-.6.83-.34l4.2 3.28 4.1-3.23a.57.57 0 0 1 .74.03c.19.2.17.49-.05.65L9.81 9l3.98 3.14c.22.17.24.46.05.65-.19.2-.52.22-.74.04ZM5 6.42v5.13L8.23 9 5 6.43Z" fill="url(#bqfldk32j)"/><defs><linearGradient id="aqfldk32j" x1="3.35" y1="3.12" x2="21.9" y2="24.43" gradientUnits="userSpaceOnUse"><stop stop-color="#1A1E21"/><stop offset="1" stop-color="#06060A"/></linearGradient><linearGradient id="bqfldk32j" x1="4" y1="9" x2="14" y2="9" gradientUnits="userSpaceOnUse"><stop stop-color="#9EEBFD"/><stop offset=".23" stop-color="#AAC5F9"/><stop offset=".52" stop-color="#A5BCF8"/><stop offset=".74" stop-color="#B6B5F7"/><stop offset=".9" stop-color="#EBB0F2"/><stop offset="1" stop-color="#AEA0F4"/></linearGradient></defs></svg>