<!-- by TradingView --><svg width="18" height="18" viewBox="0 0 18 18" xmlns="http://www.w3.org/2000/svg"><path fill="#0945A5" d="M0 0h18v18H0z"/><path d="M6 7.98C6 6.3 7.3 5 9 5s3 1.3 3 2.98v2.59c0 .26.26.43.52.43s.48-.17.48-.43V7.98A4 4 0 0 0 9 4C6.8 4 5 5.78 5 7.98v2.59c0 .26.22.43.48.43s.52-.17.52-.43V7.98Zm2 1.5A.49.49 0 0 0 7.5 9c-.28 0-.5.21-.5.48v3.04c0 .27.22.48.5.48s.5-.21.5-.48V9.48ZM9 9c.28 0 .5.22.5.49v4.02A.5.5 0 0 1 9 14a.5.5 0 0 1-.5-.49V9.49A.5.5 0 0 1 9 9Zm2 .5c0-.28-.24-.5-.5-.5s-.5.22-.5.5v2.11c0 .77.58 1.39 1.3 1.39H12c.26 0 .51-.22.51-.5 0-.27-.24-.5-.5-.5h-.7c-.2 0-.3-.17-.3-.39V9.5Zm-3-2a.5.5 0 1 1-1 0 .5.5 0 0 1 1 0Zm2.5.5a.5.5 0 1 0 0-1 .5.5 0 0 0 0 1Z" fill="#fff"/></svg>