<!-- by TradingView --><svg width="18" height="18" viewBox="0 0 18 18" xmlns="http://www.w3.org/2000/svg"><path fill="url(#a)" d="M0 0h18v18H0z"/><path d="M9.66 4.34c-.02.21 0 .42.03.62.02.17-.03.32.05.47 0 .02 0 .02-.02.02a.92.92 0 0 1-.19-.07c-.13-.06-.06-.25-.17-.33a.14.14 0 0 1-.04-.06.01.01 0 0 0-.02 0l-.02.03a.07.07 0 0 0 0 .05c.06.1.1.19.05.3a.05.05 0 0 0 .03.05l.23.08c.03.01.04.03.04.05v.02c0 .04-.01.05-.05.04a5.63 5.63 0 0 0-.23-.04l.01.04c.07.05.14.07.22.06l-.01.13c0 .01 0 .02-.02.03a.19.19 0 0 1-.06.01l.03-.02a.03.03 0 0 0 .01-.03.03.03 0 0 0-.02-.02.74.74 0 0 1-.23-.11.75.75 0 0 0-.3-.06l-.15-.06a.35.35 0 0 0-.16-.02.02.02 0 0 1-.02-.01.03.03 0 0 1 0-.03c.02-.07.07-.1.14-.06l.02-.01c0-.1 0-.17-.03-.23a.36.36 0 0 1-.03-.16l-.03-.17a.48.48 0 0 0-.06-.16.6.6 0 0 1-.08-.42v-.04a1.18 1.18 0 0 1-.1-.36.67.67 0 0 0-.14-.4c-.1.02-.16.02-.21 0a.07.07 0 0 1-.04-.05.07.07 0 0 1 .01-.05c.1-.15.36-.23.51-.25V3.1h-.06c-.06-.02-.05-.03 0-.04l.26-.05c.09-.02.15-.04.23.01.2.13.39.28.51.49.05.08.04.18.06.29l.02.12c0 .14.01.27.03.41Z" fill="silver"/><path d="m8.81 3.02-.26.05c-.05 0-.06.02 0 .04h.06c-.15.03-.42.11-.5.26a.07.07 0 0 0 .02.1c.05.02.12.02.21 0-.04.02-.04.05 0 .08l.02.04c0 .03 0 .04-.03.05-.03.02-.04.04-.03.07.04.07.07.13.09.2a5.93 5.93 0 0 0 .2.92l.01.04c.06.07.06.14 0 .21-.1.13-.11.17-.03.13l-.06.13c-.04.1-.12.17-.17.26-.03.06-.07.1-.12.15v-.02l-.01-.02h-.03l.03-.1a.03.03 0 0 0 0-.03.03.03 0 0 0-.04 0c-.12.03-.22-.03-.34-.06a.03.03 0 0 1-.02-.01.03.03 0 0 1 0-.03c.06-.06.1-.12.12-.2l.02-.04c.03-.02.03-.05 0-.09h-.02c-.19.07-.47.13-.85.17-.16.02-.25.13-.27.32l-.06-.4c0-.01 0-.02.02-.02L7.45 5v.03l.01.02c.02 0 .02.01.02.03-.01.01 0 .02.02.02.18 0 .32-.23.6-.29l.01-.02a4.5 4.5 0 0 0-.07-.62 2 2 0 0 0-.15-.41.9.9 0 0 0-.59-.3c-.02 0-.04 0-.05-.02-.01-.01-.02-.04-.01-.06.1-.04.21-.06.32-.07.12 0 .2-.01.25-.03l.56-.2a.88.88 0 0 1 .22-.05l.22-.01Z" fill="#858685"/><path d="M7.23 3.38c0 .02 0 .05.02.06l.05.02a.9.9 0 0 1 .6.3l.08.44v.04c-.1.32-.28.54-.53.76l-.68.22c-.02 0-.02.01-.02.03l.06.39a.3.3 0 0 1-.02.11c0 .02-.01.02-.03.02l-.1.01a5.2 5.2 0 0 0-.17-.61l-.06-.33-.12-.44c-.03-.12-.12-.3-.12-.39 0-.16.08-.27.23-.33l.81-.3Z" fill="#397F31"/><path d="m8.83 5.54-.32.07c.05-.11.1-.22.17-.32.03-.04.05-.09.05-.14a.04.04 0 0 0-.03-.04.04.04 0 0 0-.05.01l-.08.1c-.08.03-.07-.01.03-.14.06-.07.06-.14 0-.21a.04.04 0 0 1-.01-.04c0-.04 0-.1-.03-.18-.06-.16-.11-.4-.17-.73-.02-.08-.05-.14-.09-.2-.01-.04 0-.06.03-.08.02 0 .03-.02.03-.05 0 0 0-.02-.03-.04-.03-.03-.03-.06.01-.08a.67.67 0 0 1 .15.4c0 .12.03.24.08.36v.04a.6.6 0 0 0 .09.42.78.78 0 0 1 .09.33c0 .05 0 .1.03.16s.04.14.03.23c0 .01-.01.02-.03 0-.06-.02-.1 0-.13.07a.03.03 0 0 0 0 .03h.01l.01.01c.06 0 .1 0 .16.02Z" fill="#696868"/><path d="m7.6 3.8.07.27c.02.06.02.12.01.19l-.02.13c-.06.39-.33.6-.73.6-.18 0-.25-.21-.36-.31a.88.88 0 0 1-.24-.38c-.04-.1-.04-.19 0-.26.05-.13.1-.2.22-.27.2-.1.37-.16.55-.17.15-.01.34.09.48.16l.02.04Z" fill="#0BA108"/><path d="M7.45 5c.25-.22.43-.44.53-.76V4.2l-.09-.44a2 2 0 0 1 .15.4 4.5 4.5 0 0 1 .05.65c-.27.06-.4.3-.6.3-.01 0-.02-.02-.01-.03 0-.02 0-.03-.02-.03-.01 0-.02 0 0-.02V5Z" fill="#696868"/><path d="M7.28 4.26a.4.4 0 0 1-.13.31.09.09 0 0 1-.11 0l-.26-.21a.07.07 0 0 1-.03-.07.54.54 0 0 1 .08-.2c.04-.07.1-.1.17-.1.17.02.28.1.28.27Z" fill="#F7FE01"/><path d="m9.66 4.34.07.39c.01.07.02.26.05.39.05.18.07.38.1.57a.23.23 0 0 1-.08.21l.01-.11a.08.08 0 0 0-.05-.1.5.5 0 0 0-.18-.02.29.29 0 0 1-.22-.06v-.04h.02l.2.04c.04.01.06 0 .05-.04v-.02a.06.06 0 0 0-.04-.05l-.23-.08a.05.05 0 0 1-.03-.04v-.02c.05-.1 0-.19-.04-.29a.07.07 0 0 1 0-.05v-.03a.01.01 0 0 1 .03 0c0 .02.02.04.04.06.1.08.04.27.17.33l.2.07v-.02c-.07-.15-.02-.3-.04-.47-.04-.2-.05-.41-.03-.62Z" fill="#858685"/><path d="M8.5 5.61c-.09.1-.16.22-.2.33v.05c.01.02.02.02.03 0l.03-.01.03.01.06.1.03.02c.04 0 .07 0 .1-.04.02 0 .02-.02.02-.03-.02-.08.01-.12.08-.12a.1.1 0 0 1 .07.01c.02 0 .02.02.03.04 0 .02.02.03.04.04h.03c.07-.06.11-.03.18-.05a101 101 0 0 0 .52-.13l.02-.03.01-.13a.5.5 0 0 1 .18.03.08.08 0 0 1 .06.09l-.02.11c-.17.24-.06.42.08.62.04.06.1.1.15.14.2.1.45.2.74.31.1.04.19.1.28.16h.02c.14-.16.27-.34.38-.54l.09.3c.01.09.04.14.12.14a.05.05 0 0 1 .04.03.05.05 0 0 1 0 .05.46.46 0 0 1-.1.11.04.04 0 0 0-.02.04l.01.05c0 .01.02.02.03.01h.04c.02 0 .02.01.02.02v.07a.45.45 0 0 0-.11.12v.03c.04.04.05.07.05.1l-.01.01-.02.01a.26.26 0 0 0-.1.06v.03h.02l.22-.15a.5.5 0 0 1 .44.2c.09.1.16.24.23.41.01.01.02.02.03 0 .09-.06.24-.2.45-.42.14-.14.15-.32.1-.51-.05-.2.04-.35.13-.51v-.03l-.01-.02a.86.86 0 0 1-.37-.4c.26.08.47.21.62.42.12.16.16.4.15.58a.7.7 0 0 1-.05.2c-.06.17-.08.26-.17.38l-.13.17c-.19.21-.35.4-.5.6a1.6 1.6 0 0 1-.3.2c-.06.05-.15.15-.27.3-.08.1-.05.16 0 .26.06.17.14.37.3.53a10.37 10.37 0 0 0 .3.34l.38.72c.04.1.06.17.08.28.04.17.12.3.25.41a5.96 5.96 0 0 1-2.51 1.87.4.4 0 0 0-.03-.14l.18-.3c.09-.11.13-.21.1-.34-.02-.04 0-.06.03-.08.06-.02.09-.05.09-.08 0-.02 0-.03-.02-.04a.33.33 0 0 0-.04-.04.05.05 0 0 1-.02-.04c0-.02.01-.04.03-.05h.04l.07.02a.04.04 0 0 0 .05-.02l.03-.05a.03.03 0 0 0 0-.03h-.02l-.19-.04a.04.04 0 0 1-.03-.03c-.06-.17-.01-.3.16-.38.13-.06.44-.21.4-.38 0-.03-.03-.07-.08-.13a.41.41 0 0 1-.11-.23.11.11 0 0 0-.1-.1.1.1 0 0 0-.04 0l-.56.14c-.02 0-.02.02 0 .03l.18.07c-.3.04-.59-.02-.86-.15a.4.4 0 0 1-.14-.13c-.14-.19-.28-.25-.5-.35a.85.85 0 0 0-.48-.05c-.02 0-.02 0-.01.02a2.72 2.72 0 0 1 .3.51l-.02.01h-.02c-.13-.2-.27-.4-.42-.58a.73.73 0 0 0-.23-.2c-.12-.07-.27-.1-.4-.2a9.96 9.96 0 0 0-.27-.19.6.6 0 0 1 0 .25 1.97 1.97 0 0 1-.22-.29 23.22 23.22 0 0 1-.3-.42c-.05-.06-.05-.15-.08-.2 0-.02-.02-.03-.03-.02-.04 0-.1 0-.15-.02-.01 0-.03 0-.04.02l-.01.01h-.05l-.11-.06H6.9c-.07 0-.14 0-.2-.05h-.02l-.02.01v.03c.09.07.16.1.2.11a41.41 41.41 0 0 0 .43.02l.02.02c.03.07.06.13.11.2.13.16.25.34.35.53l.14.18c.05.08.01.16.05.26.1.2.17.37.22.53l.02.15c0 .04.03.08.08.14l.16.12c.08.05.07.07-.02.05a.32.32 0 0 1-.2-.14 1 1 0 0 1-.08-.22c-.03-.1-.07-.2-.13-.31-.01-.05-.04-.07-.05-.12a1.3 1.3 0 0 0-.3-.55l-.13-.25a.04.04 0 0 0-.03-.02l-.31-.07c-.05-.07-.1-.08-.18-.1a.25.25 0 0 1-.18-.13c-.01-.02-.03-.03-.06-.02l-.02.02v.04c.09.12.2.19.33.2.07.07.1.16.12.26 0 .01 0 .02-.02.03h-.01a.03.03 0 0 1-.03-.02.58.58 0 0 0-.39-.27l-.21-.48h-.03l-.02.01v.03c.06.07.09.15.1.24l.01.04c.05.06.08.13.07.2a.02.02 0 0 1-.01.03h-.01L6.6 10a.04.04 0 0 1-.03-.03l-.07-.17-.07-.14a.2.2 0 0 0-.07-.03.05.05 0 0 1-.03-.03.43.43 0 0 1-.04-.1c0-.06-.04-.08-.1-.06h-.04c-.09-.03-.13-.05-.18-.13-.05-.08-.14-.14-.18-.22a2.19 2.19 0 0 1-.1-.2h-.02a.02.02 0 0 0-.02 0 .02.02 0 0 0 0 .03c.06.12.08.2.07.24a.43.43 0 0 0-.02.14c-.03.1-.1.16-.19.17-.01 0-.02 0-.02-.03v-.02l.1-.06a.05.05 0 0 0 .02-.07l-.01-.02c-.06-.06-.14-.12-.14-.22a40.72 40.72 0 0 0 .01-.2l.04-.06c-.01-.09.02-.1.08-.04.01.01.03.02.07.01a.04.04 0 0 0 .03-.03l.03-.12c0-.08-.03-.2.05-.25.04-.03.1-.02.14-.03.04 0 .08 0 .1-.03.02 0 .02-.01 0-.01-.1 0-.22-.03-.34-.07a.07.07 0 0 1-.04-.02c-.05-.08 0-.15-.03-.22a.9.9 0 0 0-.13-.14c-.01-.01-.02 0-.03.01a5.18 5.18 0 0 1 0 .06c-.03.03-.06.03-.1 0-.03-.12.05-.2-.06-.3 0-.02-.02-.02-.03 0a.03.03 0 0 0 0 .03c.03.07.04.14.03.21-.02.08.05.12.03.2l-.2.32-.01.04c0 .13.02.25.05.36 0 .02 0 .04-.02.05H5.1a.1.1 0 0 0-.04-.02A2.82 2.82 0 0 1 5 8.28l.08-.83c.06.01.11.04.14.06h.03a.02.02 0 0 0 0-.02.3.3 0 0 1-.06-.16c.1-.25.18-.4.4-.5.18-.09.4-.02.57-.08l.37-.14c.07-.03.14 0 .2-.02l.15-.04c.02 0 .02-.02.02-.03l-.03-.07c-.09-.01-.09-.03 0-.05.03-.01.04-.05.01-.12l.01-.03c.01-.02.02-.02.03 0 .02.02.02.05.02.06-.05.12.07.12.1.21 0 .02.02.03.03.03.02 0 .04 0 .05-.03l.06-.18c-.06-.07-.09-.12-.08-.16l.08-.05.08.04.03.03c.02.04.03.07.03.11.01.08.03.09.05.01v-.14h.04l.01.02a.4.4 0 0 0 .13.18l.11.11c.02.02.03.02.02-.01v-.04c0-.01 0-.03.02-.03a.28.28 0 0 1 .13-.02c.01.02.03.02.04.02.02 0 .03-.02.03-.03 0-.05.01-.08.02-.09.06-.07.1-.15.15-.24l.15-.3c.05-.05.09-.09.12-.15.05-.1.13-.16.17-.26l.06-.13.09-.09a.04.04 0 0 1 .07.03c0 .05-.02.1-.05.14l-.17.32Z" fill="#E5E5E5"/><path d="M8.18 5.72a5.94 5.94 0 0 1-.35.18c-.08.03-.12.06-.14.11a.37.37 0 0 0 0 .2c0 .05.03.07.08.07a.05.05 0 0 0 .04-.05v-.06l.01-.01a.02.02 0 0 1 .04 0l.01.1-.01.04a.11.11 0 0 0-.03.09c-.05 0-.09 0-.13.02a.04.04 0 0 0-.02.03v.04c0 .03 0 .03-.02.01l-.1-.11c-.04-.15-.02-.26.06-.34A.02.02 0 0 0 7.6 6l-.11-.02c-.03 0-.05 0-.06.02l-.1.1a.04.04 0 0 1-.06 0c-.05-.03-.09-.03-.1.03l-.08.05c0-.03-.02-.04-.04-.04a.03.03 0 0 0-.03.02c0 .04-.03.05-.07.05a.15.15 0 0 1-.06-.03.67.67 0 0 0-.14-.07.04.04 0 0 1-.03-.03l-.08-.3h.11c.02 0 .03-.01.03-.03a.3.3 0 0 0 .02-.11c.02-.2.1-.3.27-.32.38-.04.66-.1.85-.18l.03.01c.02.04.02.07 0 .1-.02 0-.02.01-.03.02a.47.47 0 0 1-.11.2.03.03 0 0 0 .01.05c.12.03.22.09.34.05a.03.03 0 0 1 .03.01.03.03 0 0 1 .01.03l-.03.1Z" fill="silver"/><path d="m8.83 5.54.14.06.18.06c.05.02.05.04 0 .06-.05.03-.14.07-.26.1-.02 0-.03 0-.03-.02l-.03-.12a.04.04 0 0 0-.03-.03h-.04l-.01.02v.02c0 .08-.03.16-.07.23-.07 0-.1.04-.08.12l-.01.03a.14.14 0 0 1-.11.04c-.01 0-.02 0-.03-.02L8.39 6a.03.03 0 0 0-.03-.01c-.01 0-.02 0-.03.02H8.3c-.02-.03-.02-.04-.01-.06.04-.11.11-.22.2-.33l.33-.07Z" fill="#0A0A0A"/><path d="m9.5 5.84-.47.12c-.07.02-.12 0-.18.04a.04.04 0 0 1-.03.01c-.02 0-.03-.02-.04-.04a.06.06 0 0 0-.03-.04.1.1 0 0 0-.07 0 .45.45 0 0 0 .06-.24v-.02l.02-.02h.04a.04.04 0 0 1 .03.03l.03.12c0 .02.01.03.03.02.12-.03.2-.07.27-.1.04-.02.04-.04 0-.06l-.19-.06c.16 0 .26.03.3.06.08.05.16.09.24.1a.03.03 0 0 1 .02.03.03.03 0 0 1-.01.03l-.03.02Z" fill="#397F31"/><path d="m8.22 5.75-.15.3c-.04.09-.09.17-.15.24 0 .01-.02.04-.02.09l-.03.03c-.01 0-.03 0-.04-.02 0-.04 0-.07.03-.09a.06.06 0 0 0 .01-.03l-.01-.1-.01-.01a.02.02 0 0 0-.03 0l-.01.07a.05.05 0 0 1-.04.05c-.05 0-.07-.02-.09-.07a.37.37 0 0 1 .01-.2c.02-.05.06-.08.14-.11a5.94 5.94 0 0 0 .4-.17v.02Z" fill="#0A0A0A"/><path d="M7.55 6.38a.4.4 0 0 1-.13-.18l-.01-.02h-.03c-.02 0-.02.02-.02.03.02.05.02.1.01.11-.02.08-.04.07-.05 0a.38.38 0 0 0-.03-.12.05.05 0 0 0-.03-.03.24.24 0 0 1-.08-.04c.01-.06.05-.06.1-.02a.04.04 0 0 0 .06 0l.1-.1a.06.06 0 0 1 .06-.03l.1.02a.02.02 0 0 1 .02.02.02.02 0 0 1 0 .02c-.08.08-.1.19-.07.34Z" fill="#696868"/><path d="m8.18 6.18-.03.01-.1.27.01.03c.01 0 .03 0 .03-.02l.1-.26-.01-.03Z" fill="#858685"/><path d="M12.73 6.34c.07.16.19.3.37.4l.01.02v.03c-.09.16-.18.3-.13.5.05.2.04.38-.1.52a7.55 7.55 0 0 1-.48.42 1.71 1.71 0 0 0-.23-.42.5.5 0 0 0-.44-.2.28.28 0 0 1 .09-.08v-.01l.01-.01-.01-.02-.05-.01c-.02 0-.02-.01-.02-.02l.04-.13a.03.03 0 0 1 .03-.02l.2.04c.02 0 .03 0 .03-.02V7.3a.04.04 0 0 0-.01-.04l-.08-.04-.01-.02a.04.04 0 0 1 0-.04l.02-.01a.16.16 0 0 1 .11 0 .05.05 0 0 0 .07-.01v-.03c.01-.04 0-.07-.03-.09h-.04a.45.45 0 0 1-.16.05 1.36 1.36 0 0 0-.32.2l.11.02h.01v.02c.02.02 0 .06-.03.09v-.07c0-.01-.01-.02-.03-.02a.1.1 0 0 0-.04 0l-.03-.01a.15.15 0 0 1 0-.05.04.04 0 0 1 0-.04.46.46 0 0 0 .1-.11.05.05 0 0 0 0-.05.05.05 0 0 0-.03-.03c-.08 0-.11-.05-.12-.13-.02-.1-.05-.2-.1-.3a1.5 1.5 0 0 1 .57-.27c.23-.04.4-.06.5-.05.08 0 .15.02.22.06ZM7.18 6.34l-.06.18-.06-.15v-.05c0-.01.02-.02.03 0 .03.03.06.04.09.02Z" fill="silver"/><path d="m11.73 7.62-.22.16h-.02v-.04a.26.26 0 0 1 .1-.06h.02v-.02c.01-.03 0-.06-.04-.1v-.03a.45.45 0 0 1 .12-.12c.04-.03.05-.07.04-.1a.02.02 0 0 0-.02 0l-.1-.03a.01.01 0 0 1-.01 0v-.01c.18-.12.29-.19.32-.19.06 0 .12-.02.16-.05h.04c.03.02.04.05.04.1a.05.05 0 0 1-.05.04h-.02a.16.16 0 0 0-.12-.01.04.04 0 0 0-.03.03.04.04 0 0 0 .02.04l.08.04a.04.04 0 0 1 .02.04v.02c0 .02-.02.02-.04.02l-.2-.04a.03.03 0 0 0-.03.02l-.04.13s0 .02.02.02h.05l.01.03-.01.02a.28.28 0 0 0-.09.09Z" fill="#9A9A9A"/><path d="M9.41 7.37c-.02-.1-.1-.14-.22-.13-.01 0-.03 0-.04.02a.65.65 0 0 1-.33.14c-.05-.05-.04-.1.02-.14.1-.07.18-.11.23-.13h.04l.12.06c.05.03.1.02.14.03a.1.1 0 0 1 .07.04.1.1 0 0 1 .01.07l-.04.04Z" fill="silver"/><path d="M9.41 7.37c-.03 0-.08-.01-.13-.05a.07.07 0 0 0-.1.02l-.04.08a.04.04 0 0 1-.03.01.4.4 0 0 0-.15.06.05.05 0 0 1-.04.01c-.06-.01-.1-.05-.1-.1a.65.65 0 0 0 .33-.14l.04-.02c.12 0 .2.03.22.13ZM9.23 7.68v-.02H9.2a.32.32 0 0 1-.17-.07v-.01a.01.01 0 0 1 0-.01l.08.01h.04c.11-.08.24-.13.4-.16a.03.03 0 0 1 .03.02c.07.15.06.24.04.42 0 .02 0 .02-.02.02-.13-.01-.33-.09-.37-.2Z" fill="#0A0A0A"/><path d="m9.5 7.72-.02.02h-.02a.1.1 0 0 1-.07-.05.1.1 0 0 1 0-.07V7.6a.1.1 0 0 1 .05-.06.1.1 0 0 1 .07 0 .03.03 0 0 1 .02 0 .03.03 0 0 1 0 .03l-.04.14Z" fill="#858685"/><path d="M5.36 7.92a.1.1 0 0 1-.07-.06c.01-.07 0-.14-.04-.2a.03.03 0 0 1 0-.05h.04c.11.1.03.2.07.3Z" fill="#9A9A9A"/><path d="M5.98 7.94a.24.24 0 0 0 .07-.06h.02a.01.01 0 0 1 0 .01l-.06.12a.05.05 0 0 1-.06.03h-.02a.32.32 0 0 1-.1-.12c-.01-.02 0-.03.01-.02l.1.04h.04Z" fill="#0A0A0A"/><path d="M5.32 8.25c-.03-.07.03-.1.06-.15l.05-.08a.06.06 0 0 1 .06-.03.06.06 0 0 1 .05.04.4.4 0 0 1 .02.2c0 .01 0 .02-.02.03a.05.05 0 0 1-.03.01l-.2-.02Z" fill="silver"/><path d="M5.32 8.06v.04c0 .02 0 .02.02.01l.04-.01c-.03.05-.09.08-.06.15-.02 0-.03.02-.02.05.02.1.04.15.06.18.04.05.08.07.13.04.06-.04.11-.02.15.06.01.04.04.06.09.04l-.04.12a.04.04 0 0 1-.02.03l-.07-.01c-.06-.06-.1-.05-.08.04 0 0-.01.03-.04.05a40.78 40.78 0 0 1-.01.2c0 .1.08.17.14.23a.05.05 0 0 1 .01.05.06.06 0 0 1-.02.04l-.1.06a1.67 1.67 0 0 1 .1-.11c0-.01 0-.02-.02-.03a.02.02 0 0 0-.03 0c-.03.05-.06.07-.1.05a.03.03 0 0 0-.04.01v.02l-.04.2a.56.56 0 0 0-.04.2c.02.16.11.38.3.4l.03.02.01.04c-.01.17.01.36.04.51.04.18.15.32.32.4.01.01.02.03.01.04v.02c0 .02-.01.02-.03.02a1.11 1.11 0 0 1-.4-.24v-.08a.88.88 0 0 0-.15-.33.06.06 0 0 1 0-.04.3.3 0 0 0-.17-.28l-.13-.55a1.07 1.07 0 0 1-.02-.21.87.87 0 0 0-.04-.22c-.04-.15-.05-.3-.04-.46a.1.1 0 0 1 .04.02h.04c.02-.01.02-.03.02-.05-.03-.11-.05-.23-.05-.36l.01-.04.2-.32Z" fill="#9A9A9A"/><path d="M5.92 8.34c-.05 0-.1 0-.14.03-.08.06-.04.17-.05.25-.05.02-.08 0-.1-.04-.03-.08-.08-.1-.14-.06-.02-.1-.01-.14.03-.16.12-.03.25-.04.4-.02Z" fill="#696868"/><path d="M6.44 9.67c-.05.03-.05.09 0 .18l.01.04a.06.06 0 0 1-.04.02c-.02 0-.03 0-.04-.02L6.1 9.6l-.2-.31v-.02c-.08-.04-.13-.06-.15-.04l-.04.08c0-.05 0-.1.02-.14.01-.04-.01-.12-.07-.24a.02.02 0 0 1 .02-.03h.02c0-.01 0 0 0 0l.1.2c.04.08.13.14.18.22.05.08.1.1.18.13h.04c.06-.02.09 0 .1.06l.04.1a.05.05 0 0 0 .03.03.2.2 0 0 1 .07.03Z" fill="#9A9A9A"/><path d="M6.1 9.6a.68.68 0 0 1-.1-.1c-.08-.12-.11-.11-.1.03 0 .1.04.21.05.32 0 .1.02.19.03.28 0 .03-.01.1-.05.24v.04c.04.05.06.1.06.16 0 .08.02.1.07.04a.18.18 0 0 0 .05-.1c.01-.06.04-.06.07-.01l.12.19-.14-.16a.02.02 0 0 0-.03 0l-.09.16a.04.04 0 0 1-.04.02.04.04 0 0 1-.03-.02c-.04-.1-.1-.15-.16-.16a.08.08 0 0 1-.06-.06 3.94 3.94 0 0 1-.09-.78l.14-.17a.07.07 0 0 0-.03-.1c-.06-.03-.06-.1-.02-.2.02 0 .07 0 .14.05l.02.02.2.31Z" fill="#696868"/><path d="M5.75 9.23c-.05.1-.04.16.02.2a.07.07 0 0 1 .04.04.07.07 0 0 1-.01.05l-.14.17v.04a3.94 3.94 0 0 0 .11.78l.04.02c.07.01.12.07.16.16l.01.01a.04.04 0 0 0 .06-.01l.1-.16a.02.02 0 0 1 .02 0l.14.16c.02.02.06.05.11.06.06.03.05.12-.03.26a.03.03 0 0 1-.02.02.03.03 0 0 1-.03 0l-.11-.07H6.2a.02.02 0 0 0-.01.03V11c.13.1.24.23.34.38.04.07.05.18.13.24a.1.1 0 0 0 .04.02c.12.02.18.03.25.14.17.25.49.34.78.38.24.03.45.12.7.18l.04.02c.04.07.07.14.08.21l-.08-.17a.03.03 0 0 0-.04-.02h-.12l-.04.01a.88.88 0 0 1-.5.22 4.39 4.39 0 0 0-1.2.18.68.68 0 0 1-.07-.26l.01-.04a.16.16 0 0 0 0-.13.05.05 0 0 0-.04-.03.05.05 0 0 0-.04.02l-.27.26c.01-.06.03-.11.07-.17a.4.4 0 0 0 .08-.2.04.04 0 0 0-.01-.04.56.56 0 0 1-.19-.25 1.45 1.45 0 0 0-.03-.09.38.38 0 0 0-.08-.07.05.05 0 0 1-.02-.04.05.05 0 0 1 .02-.04.22.22 0 0 0 .06-.06c.01-.02.01-.03-.01-.03-.03 0-.07 0-.1.03h-.03a.4.4 0 0 1-.19-.23c-.02-.08-.05-.1-.09-.17-.04-.07-.02-.19-.03-.27.12.1.26.19.4.24.02 0 .03 0 .03-.02v-.02l-.01-.03a.59.59 0 0 1-.32-.4 1.78 1.78 0 0 1-.04-.52v-.04l-.04-.01c-.19-.03-.27-.25-.3-.41 0-.04 0-.1.04-.2a1.1 1.1 0 0 0 .04-.22.03.03 0 0 1 .04 0c.04 0 .07 0 .1-.05a.02.02 0 0 1 .01-.02.02.02 0 0 1 .02.01l.02.03-.02.02-.08.1v.01c0 .02 0 .03.02.03.1-.01.16-.07.19-.17l.04-.08Z" fill="#858685"/><path d="m7.94 10.3.15.28c.14.2.24.37.3.52.06.15.1.27.15.35.03.07.04.16.1.23l.02.04v.06l.02.02c.03.01.04 0 .03-.01v-.16c-.07-.07-.1-.15-.08-.22l-.01-.04c-.05-.06-.07-.1-.07-.14 0-.07.01-.08.05-.02.03.04.06.11.13.12.01 0 .02 0 .02-.02v-.02c.01-.02.02-.03.04 0l.03.06.01.04c.05.05.11.1.18.11h-.16a.5.5 0 0 1-.06.05c-.07.04-.07.07.01.07H9l.13.14v.04l-.06.08h-.04l-.12-.1h-.03v.03c.09.1.2.17.34.2.01 0 .02.01.02.03l-.02.08c0 .01 0 .02-.02.03a.25.25 0 0 0-.07.06.02.02 0 0 1-.04 0l-.1-.18C9 12 8.97 12 8.96 12l-.05.01c-.02 0-.02.02-.01.04l.1.18a.07.07 0 0 1 0 .08c-.1.12-.05.32 0 .46.03.07.05.06.06 0l.03-.44c0-.03.02-.05.06-.06.14-.03.27-.02.4 0h.02v-.04l-.01-.01-.3-.06a.02.02 0 0 1 0-.01v-.01a.54.54 0 0 0 .07-.26c0-.02 0-.03.02-.03.04-.01.06-.04.05-.09.08.07.14.15.2.23.08.12.13.2.16.22.13.13.29.26.36.43l.05.09c.05.04.08.06.1.06.1 0 .1-.03.02-.09a.59.59 0 0 1-.17-.19c-.07-.1-.13-.17-.18-.26a4.48 4.48 0 0 0-.16-.15c-.07-.04-.08-.1-.11-.15l-.25-.3a.52.52 0 0 1-.11-.21.03.03 0 0 1 0-.03h.04c.13.05.24.3.35.51.03.04.08.08.12.09.02 0 .02 0 .01-.03l-.16-.29c-.01-.02-.01-.03.01-.03l.05-.02a.04.04 0 0 1 .05 0l.34.19c.01 0 .02 0 .01-.01-.04-.12-.2-.2-.3-.27h-.05l-.07.04a.07.07 0 0 1-.05 0 .07.07 0 0 1-.05-.03l-.1-.18a.03.03 0 0 1 .01-.05h.02c.2.01.44.07.71.18l.03.03v.12c.04.16.27.24.4.3.02 0 .02 0 .02.02 0 .22 0 .42.04.6.03.18 0 .28-.08.43h-.03l-.1-.03h-.01a.02.02 0 0 0-.02.02c0 .06.02.1.05.11l.02.04c.03.16.13.26.28.3a.4.4 0 0 1 .03.14 5.8 5.8 0 0 1-4.42-.06 5.9 5.9 0 0 1-.47-.22c.02-.27.04-.5.17-.71l.27-.26a.05.05 0 0 1 .04-.02.05.05 0 0 1 .04.03c.02.05.02.1 0 .13v.04c0 .08.02.17.06.26a4.39 4.39 0 0 1 1.2-.18c.16 0 .33-.08.5-.22l.04-.01h.12c.02 0 .03 0 .04.02l.08.17h.19a.03.03 0 0 1 .03.01.03.03 0 0 1 0 .04l-.1.12a.03.03 0 0 0 0 .04.04.04 0 0 0 .02.02l.18.03a.02.02 0 0 0 .02 0 .02.02 0 0 0 0-.03.46.46 0 0 1-.02-.23v-.04l-.13-.12a.05.05 0 0 1-.02-.04c.01-.1 0-.2-.05-.3a.04.04 0 0 0-.03-.02 1.79 1.79 0 0 1-.27-.07 7.34 7.34 0 0 0-.41-.21c-.25-.12-.36-.24-.34-.52 0-.02 0-.03-.02-.04l-.07-.07h-.14c-.02 0-.03 0-.02-.02a.2.2 0 0 0 0-.08c0-.02 0-.02-.02-.02l-.21.01c-.06.02-.1 0-.11-.06a1.65 1.65 0 0 0-.02-.1l-.03-.03-.16-.06v-.04h.02l.23.06c.05 0 .08 0 .1-.04v-.03l-.07-.05c-.06-.05-.05-.07.02-.08h.08c.03-.18-.02-.31-.14-.4l-.3-.25c.18.04.31.13.39.27a.03.03 0 0 0 .03.02c.02 0 .03-.02.03-.03-.01-.1-.05-.19-.12-.26.05 0 .08.02.1.07.03.1.04.18.03.26l.16.5.03.02h.04v-.15a.99.99 0 0 0-.15-.42l-.1-.29.3.07c.02 0 .03 0 .04.02l.14.25c-.04-.02-.06-.01-.07.02-.01.03-.04.04-.07.03l-.06-.02a.04.04 0 0 0-.04.01.04.04 0 0 0 0 .05l.13.34c.01.05.04.09.1.13v.06c0 .01 0 .03.02.03.04.02.07.04.09.07a.04.04 0 0 0 .03.02l.06-.03a.05.05 0 0 1 .06 0c.02 0 .03.03.02.05h-.01l-.08.02c-.02.02-.02.03-.01.03l.01.01c.04 0 .07 0 .08.02a5.46 5.46 0 0 1 .17.28c.03-.03.04-.06.03-.1-.07-.15-.1-.26-.12-.35.06.1.1.2.13.3a1 1 0 0 0 .07.23c.05.07.11.11.21.14.09.02.1 0 .02-.05l-.16-.12c-.05-.06-.08-.1-.08-.14a.76.76 0 0 0-.02-.15 5.7 5.7 0 0 0-.22-.53c-.04-.1 0-.18-.05-.26a4.62 4.62 0 0 1-.14-.18c-.1-.2-.22-.37-.35-.54a.78.78 0 0 1-.1-.19l-.03-.02-.02-.01-.41-.01c-.05 0-.11-.04-.2-.11v-.03h.03c.07.03.14.05.21.04h.04l.12.06h.05l.01-.01a.04.04 0 0 1 .04-.02c.06.02.1.02.15.02l.03.01c.03.06.03.15.08.21a23.22 23.22 0 0 0 .3.42c.06.1.13.2.21.29Z" fill="#9A9A9A"/><path d="m6.76 9.95.3.25c-.06-.03-.1-.02-.1.02-.01.05 0 .16.03.32 0 .02.01.03.03.03.05.02.11.02.18.02l-.08.01c-.07 0-.08.03-.02.08l.06.05v.03c-.01.03-.04.05-.09.04l-.23-.06h-.02v.04l.16.06.03.04.02.1c.01.05.05.07.1.05l.22-.01c.01 0 .02 0 .02.02a.2.2 0 0 1 0 .08c0 .02 0 .02.02.02a11.21 11.21 0 0 0 .14 0l.07.07c.02.01.02.02.02.04-.02.28.09.4.34.52l.4.21c.03.02.12.04.28.07l.03.03c.04.09.06.19.05.29 0 .01 0 .03.02.04l.12.12c.01.01.02.03.01.04 0 .09 0 .16.02.23a.02.02 0 0 1 0 .03.02.02 0 0 1-.02 0l-.18-.03a.04.04 0 0 1-.03-.02.04.04 0 0 1 0-.04l.1-.12a.03.03 0 0 0-.02-.06l-.19.01a.56.56 0 0 0-.08-.2.05.05 0 0 0-.04-.03c-.25-.06-.46-.15-.7-.18-.3-.04-.6-.13-.78-.38-.07-.11-.13-.12-.25-.14l-.04-.02c-.08-.06-.09-.17-.13-.24a1.73 1.73 0 0 0-.34-.39.02.02 0 0 1 0-.02l.02-.01.13.06a.03.03 0 0 0 .03 0h.01c.08-.15.1-.24.03-.27.05.02.1.04.14.08.05.06.1.1.12.1.06.02.13.02.2 0a.05.05 0 0 0 .04-.04.05.05 0 0 0-.03-.05l-.11-.06a.04.04 0 0 1-.01-.06l.02-.01.05-.01h.09l.12.08h.07c.02-.02.03-.03 0-.05a.7.7 0 0 0-.22-.12.05.05 0 0 1-.02-.02l-.01-.04c.02-.09.1-.25.03-.37a.06.06 0 0 0-.02-.03 1.34 1.34 0 0 0-.2-.08c-.12-.04-.17-.14-.16-.26l.07.17a.04.04 0 0 0 .03.03h.05a.02.02 0 0 0 .02-.01.29.29 0 0 0-.07-.2.07.07 0 0 1-.01-.05c-.01-.1-.04-.17-.1-.24v-.03l.02-.02.03.01.21.48Z" fill="#696868"/><path d="M7.16 9.63a.26.26 0 0 1-.03-.05c-.01-.06 0-.07.05-.03.02 0 .03.03.05.06l.1.17v.02H7.3l-.15-.17Z" fill="silver"/><path d="m7.2 9.94.1.3c-.03-.01-.05 0-.08.04.01-.08 0-.16-.03-.26-.02-.05-.05-.08-.1-.07a.43.43 0 0 1-.33-.2.03.03 0 0 1 0-.04l.02-.02c.03 0 .05 0 .06.02.04.08.1.12.18.14.09 0 .13.02.18.09Z" fill="#858685"/><path d="M10.85 13.46a.38.38 0 0 1-.28-.3.05.05 0 0 0-.02-.04c-.03-.02-.05-.05-.05-.1a.02.02 0 0 1 0-.02.02.02 0 0 1 .03 0l.1.03.03-.01c.09-.15.11-.25.08-.43a2.51 2.51 0 0 1-.04-.6c0-.01 0-.02-.02-.03-.13-.05-.36-.13-.4-.29v-.12a.05.05 0 0 0-.03-.03 2.47 2.47 0 0 0-.73-.18.03.03 0 0 0-.01.05l.1.18a.07.07 0 0 0 .07.04l.03-.01.07-.04h.04c.11.07.27.15.31.27 0 .01 0 .02-.01 0l-.34-.19a.04.04 0 0 0-.05 0 .13.13 0 0 1-.05.03c-.02 0-.02.01-.01.03l.16.3c.01.01 0 .02-.01.02-.04 0-.1-.05-.11-.09-.12-.21-.23-.46-.36-.52h-.02a.03.03 0 0 0-.02.02v.02c.01.06.05.13.1.2l.26.3c.04.05.05.12.1.16a4.05 4.05 0 0 1 .17.15c.05.09.11.15.18.26.05.09.11.15.17.2.09.05.08.08-.03.08l-.08-.06a.26.26 0 0 1-.06-.09c-.07-.17-.23-.3-.36-.43L9.6 12a1.14 1.14 0 0 0-.2-.23.87.87 0 0 0-.25-.35c-.04-.04-.06-.03-.05.03v.08c.01.02 0 .03-.01.02A.21.21 0 0 1 9 11.5a.4.4 0 0 1-.18-.11.08.08 0 0 1-.01-.04.17.17 0 0 0-.03-.07c-.02-.02-.03-.01-.03.01v.02c0 .02-.02.02-.03.02-.07 0-.1-.08-.13-.12-.04-.06-.06-.05-.05.02 0 .03.02.08.07.14v.04c0 .07.02.15.08.22l.01.03v.13c0 .02 0 .02-.02.02l-.01-.01-.02-.02v-.06l-.02-.04c-.06-.07-.07-.16-.1-.23-.04-.08-.1-.2-.15-.35a2.41 2.41 0 0 0-.3-.52c-.06-.09-.1-.19-.15-.28a.6.6 0 0 0 0-.25c0-.02 0-.02.02-.01l.26.2c.13.1.28.13.4.2.08.03.15.1.23.2a10.4 10.4 0 0 1 .44.58h.01v-.03a2.72 2.72 0 0 0-.3-.5l.02-.01c.15-.03.3-.01.47.05.23.1.37.16.51.35.04.06.09.1.14.13a1.48 1.48 0 0 0 .86.15l-.18-.07c-.02-.01-.02-.02 0-.03l.56-.13a.1.1 0 0 1 .09.01.11.11 0 0 1 .05.08c.01.1.05.17.1.23.06.06.1.1.1.13.03.17-.28.32-.4.38-.18.08-.23.21-.17.38 0 .02.02.02.03.03l.2.03v.02h.01v.02l-.03.05a.04.04 0 0 1-.05.02l-.07-.03h-.04l-.03.06c0 .02 0 .03.02.04l.04.04.02.04c0 .03-.03.06-.1.08-.03.02-.04.04-.03.08.04.13 0 .23-.09.34l-.18.3Z" fill="silver"/><path d="M7.3 10.23c.08.12.13.26.16.42v.13l-.01.02H7.4c-.02 0-.02-.01-.03-.02l-.16-.5c.03-.04.05-.05.08-.05Z" fill="#0A0A0A"/><path d="M5.6 10.9a.26.26 0 0 0-.1-.04.06.06 0 0 1-.05-.06c-.01-.1-.01-.2-.05-.3a4.12 4.12 0 0 0-.1-.25.3.3 0 0 1 .15.28l.01.04c.07.1.12.21.15.33Z" fill="#696868"/><path d="M7.68 10.28c.14.16.23.34.29.55 0 .05.04.07.05.12.01.09.05.2.12.35.01.04 0 .07-.03.1l-.03-.01a5.47 5.47 0 0 0-.14-.27c-.01-.02-.04-.03-.08-.02h-.01v-.03h.01l.08-.03c.02-.02.01-.04-.01-.06a.05.05 0 0 0-.06 0 .09.09 0 0 1-.06.04.04.04 0 0 1-.03-.02.22.22 0 0 0-.1-.07l-.01-.03v-.06a.27.27 0 0 1-.1-.13 3.56 3.56 0 0 0-.14-.36l.01-.03h.04l.06.01c.03.01.06 0 .07-.03.01-.03.03-.04.07-.02Z" fill="#858685"/><path d="M9.4 11.77c.01.05 0 .08-.05.09-.01 0-.02.01-.02.03a.54.54 0 0 1-.08.27l.01.01.3.06h.01v.04c0 .01 0 .02-.02.01a1.02 1.02 0 0 0-.4 0c-.04 0-.05.03-.06.06 0 .18-.02.33-.03.43-.01.07-.03.08-.06 0-.05-.13-.1-.33 0-.45a.07.07 0 0 0 0-.08l-.1-.18c-.01-.02 0-.03.01-.04H9l.1.18v.01a.02.02 0 0 0 .03 0h.01a.25.25 0 0 1 .07-.06l.02-.03.02-.08c0-.02 0-.03-.02-.03a.56.56 0 0 1-.34-.2v-.02c.01-.02.02-.02.03-.01l.12.1h.04l.06-.08v-.04L9 11.63a.05.05 0 0 0-.04-.02.87.87 0 0 1-.16.01c-.08 0-.08-.03-.01-.07a.5.5 0 0 0 .06-.05h.16c.02.03.05.04.08.05.01 0 .02 0 .02-.02l-.01-.08c-.01-.06 0-.07.05-.03.11.1.2.22.25.35Z" fill="#696868"/><path d="M9.7 12.76a.07.07 0 0 0-.02-.07h-.03l-.23-.05c-.03 0-.05 0-.06.03-.01.05-.03.08-.05.08-.02 0-.03 0-.03-.03a.37.37 0 0 0-.1-.18.04.04 0 0 1 0-.04.04.04 0 0 1 .01-.03.43.43 0 0 1 .26-.06c.02 0 .03 0 .04.02.08.13.22.13.3.25v.08a1.16 1.16 0 0 0-.02.11.03.03 0 0 1-.03.02h-.02c-.02-.01-.03-.03-.03-.05l.01-.08Z" fill="#696868"/><defs><linearGradient id="a" x1="3.35" y1="3.12" x2="21.9" y2="24.43" gradientUnits="userSpaceOnUse"><stop stop-color="#1A1E21"/><stop offset="1" stop-color="#06060A"/></linearGradient></defs></svg>