<!-- by TradingView --><svg width="18" height="18" viewBox="0 0 18 18" xmlns="http://www.w3.org/2000/svg"><path fill="url(#a)" d="M0 0h18v18H0z"/><path fill-rule="evenodd" d="M10.65 12.6c.15-.05.28-.04.38.03.07.04.14.11.2.22.09.13.18.18.28.14.44-.19.86-.42 1.25-.7.37-.29.67-.6.89-.94.27-.41.38-.83.34-1.23a389 389 0 0 1-.31-3.01 1.8 1.8 0 0 0-.38-.82 3.02 3.02 0 0 0-1.07-.8 6.9 6.9 0 0 0-2.92-.46c-.66.06-1.29.18-1.88.37a.6.6 0 0 1-.26.03c-.15-.02-.26-.11-.35-.27-.07-.14-.16-.19-.26-.15-.4.16-.8.37-1.21.66-.32.22-.6.48-.83.77-.17.2-.3.42-.39.66-.1.28-.15.53-.12.76a422.72 422.72 0 0 1 .32 3.02c.03.31.16.6.38.86.45.52 1.1.88 1.95 1.08.77.18 1.58.22 2.42.12a8.22 8.22 0 0 0 1.57-.34ZM9.29 9.85c.14-.02.23.01.28.1v.01l.16.23c.06.06.13.1.22.13.06.02.14.02.25-.01.48-.13.94-.3 1.38-.52.5-.24.97-.57 1.38-.97.03-.03.02-.06-.01-.08-.44-.26-.91-.45-1.4-.55a6.73 6.73 0 0 0-2.83-.03c-.1.02-.18-.02-.23-.1-.07-.12-.12-.2-.17-.24a.52.52 0 0 0-.24-.14.48.48 0 0 0-.22.02c-1.17.3-2.11.8-2.83 1.52-.02.02-.02.04 0 .05.47.28.96.47 1.47.57a6.91 6.91 0 0 0 2.8.01Z" fill="#fff"/><defs><linearGradient id="a" x1="3.35" y1="3.12" x2="21.9" y2="24.43" gradientUnits="userSpaceOnUse"><stop stop-color="#1A1E21"/><stop offset="1" stop-color="#06060A"/></linearGradient></defs></svg>