<!-- by TradingView --><svg width="18" height="18" viewBox="0 0 18 18" xmlns="http://www.w3.org/2000/svg"><path fill="#F0F3FA" d="M0 0h18v18H0z"/><path d="M8.82 6.78a1.4 1.4 0 0 1-.97-2.15A1.4 1.4 0 1 1 9.2 6.8a.04.04 0 0 0-.03.03v.79c0 .01 0 .02.02.02a1.46 1.46 0 0 1 .7.29l.03-.01 1.52-1.7v-.03a1.4 1.4 0 0 1-.13-1.31 1.4 1.4 0 1 1 .37 1.58h-.02l-1.52 1.68a.04.04 0 0 0 0 .05c.14.2.23.41.26.65a.03.03 0 0 0 .03.03h.76c.02 0 .03-.01.03-.03a1.4 1.4 0 1 1 2.2 1.32 1.4 1.4 0 0 1-2.2-.95s0-.02-.02-.02h-.77c-.02 0-.03.01-.03.02-.03.24-.12.46-.27.66v.04l1.51 1.66c.01.02.03.02.04 0a1.39 1.39 0 0 1 1.92 2.02 1.4 1.4 0 0 1-2.16-1.74v-.04L9.9 10.12a.02.02 0 0 0-.03 0c-.2.15-.43.25-.68.28a.03.03 0 0 0-.03.03v.75c0 .02.01.03.03.04.33.05.6.19.82.41a1.39 1.39 0 1 1-2 1.94 1.4 1.4 0 0 1 .8-2.35c.02 0 .03-.02.03-.03v-.77l-.02-.02a1.3 1.3 0 0 1-.62-.25h-.04L6.5 11.69v.04c.53.69.35 1.65-.4 2.1-.18.1-.37.15-.59.17-.92.05-1.7-.8-1.46-1.73a1.4 1.4 0 0 1 2.2-.79h.02l1.67-1.54a.03.03 0 0 0 0-.04c-.15-.2-.25-.44-.3-.7 0-.01 0-.02-.02-.02h-.8l-.02.02a1.4 1.4 0 0 1-2.77-.36 1.4 1.4 0 0 1 2.78 0c0 .01 0 .02.02.02h.8l.02-.03a1.4 1.4 0 0 1 .3-.71V8.1l-1.7-1.56h-.03a1.4 1.4 0 1 1 .37-.4 8.57 8.57 0 0 1-.1.19l1.7 1.56h.02c.18-.14.39-.22.62-.25.01 0 .02-.01.02-.03V6.8c0-.01 0-.02-.02-.02ZM6.37 5.39a.98.98 0 1 0-1.96 0 .98.98 0 0 0 1.96 0Zm3.61 0a.98.98 0 1 0-1.95 0 .98.98 0 0 0 1.95 0Zm3.59 0a.97.97 0 1 0-1.95 0 .97.97 0 0 0 1.95 0Zm-7.2 3.62a.98.98 0 1 0-1.96 0 .98.98 0 0 0 1.95 0Zm3.61 0a.98.98 0 1 0-1.95 0 .98.98 0 0 0 1.95 0Zm3.59 0a.97.97 0 1 0-1.95 0 .97.97 0 0 0 1.95 0Zm-7.2 3.59a.98.98 0 1 0-1.96 0 .98.98 0 0 0 1.95 0Zm3.61 0a.98.98 0 1 0-1.95 0 .98.98 0 0 0 1.95 0Zm3.59 0a.97.97 0 1 0-1.95 0 .97.97 0 0 0 1.95 0Z" fill="#268403"/></svg>