<!-- by TradingView --><svg width="18" height="18" viewBox="0 0 18 18" xmlns="http://www.w3.org/2000/svg"><path fill="#F0F3FA" d="M0 0h18v18H0z"/><path d="M13.33 11.5a5 5 0 0 1-8.66 0H6.2a3.74 3.74 0 0 0 5.6 0h1.53Zm0-5a5 5 0 0 0-8.66 0H6.2a3.74 3.74 0 0 1 5.6 0h1.53ZM12 7a1 1 0 0 0-1 .99V8h3v-.01A1 1 0 0 0 13 7h-1Zm2 1.57h-1v.93a.5.5 0 0 1-1 0v-.93h-1v1.44a1 1 0 0 0 1 .99h1a1 1 0 0 0 1-.99V8.57ZM7.13 7h1.22l.56 1h.18l.56-1h1.22l-.55 1h.24v.86H7.44V8h.24l-.55-1ZM10.56 9.29H7.44v.85h3.12V9.3Zm-.94.85H8.38V11h1.24v-.86ZM4 7h1.82c.5 0 .9.46.9 1.03v.51c0 .37-.16.69-.42.87L7 11H6l-.62-1.43H5V11H4V8.86h1.2a.43.43 0 0 0 0-.86H4V7Z" fill="#C79730"/></svg>