<!-- by TradingView --><svg width="18" height="18" viewBox="0 0 18 18" xmlns="http://www.w3.org/2000/svg"><path fill="#161B85" d="M0 0h18v18H0z"/><path d="M9.67 8.33v-.65L13.35 4H14v.65l-3.68 3.68h-.65ZM8.33 9.67v.65L4.65 14H4v-.65l3.68-3.68h.65ZM12.2 4h-1.33L9 5.87 7.13 4H5.8L9 7.2 12.2 4ZM14 7.13 12.13 9 14 10.87v1.33L10.8 9 14 5.8v1.33Zm-3.68 2.54h-.65v.65L13.35 14H14v-.65l-3.68-3.68ZM8.33 7.68v.65h-.65L4 4.65V4h.65l3.68 3.68ZM4 10.87v1.33L7.2 9 4 5.8v1.33L5.87 9 4 10.87ZM7.13 14H5.8L9 10.8l3.2 3.2h-1.33L9 12.13 7.13 14Z" fill="#10F48B"/></svg>