<!-- by TradingView --><svg width="18" height="18" viewBox="0 0 18 18" xmlns="http://www.w3.org/2000/svg"><path fill="url(#a)" d="M0 0h18v18H0z"/><path d="M11.13 6.42a3.48 3.48 0 0 0-1.61-.39 3.42 3.42 0 0 0-3.45 3.39c0 1.13.57 2.13 1.44 2.75L6.58 14A5.39 5.39 0 0 1 9.52 4c.98 0 1.9.25 2.7.7l-1.1 1.72Z" fill="url(#b)"/><path d="M12.27 5.6 11.2 7.38c.45.43.73 1.03.73 1.7a2.4 2.4 0 0 1-3.12 2.26l-1.07 1.78c.54.23 1.14.36 1.78.36A4.44 4.44 0 0 0 14 9.08c0-1.42-.68-2.67-1.73-3.48Z" fill="url(#c)"/><path d="M10.5 9a1.5 1.5 0 1 1-3 0 1.5 1.5 0 0 1 3 0Z" fill="url(#d)"/><defs><linearGradient id="a" x1="3.35" y1="3.12" x2="21.9" y2="24.43" gradientUnits="userSpaceOnUse"><stop stop-color="#1A1E21"/><stop offset="1" stop-color="#06060A"/></linearGradient><linearGradient id="b" x1="10.9" y1="5.35" x2="5.51" y2="12.73" gradientUnits="userSpaceOnUse"><stop stop-color="#01D6FE"/><stop offset="1" stop-color="#04FC8A"/></linearGradient><linearGradient id="c" x1="12.97" y1="7.38" x2="8.59" y2="13.05" gradientUnits="userSpaceOnUse"><stop stop-color="#01DEE6"/><stop offset="1" stop-color="#01FC8C"/></linearGradient><linearGradient id="d" x1="8.56" y1="8.94" x2="10.25" y2="10.63" gradientUnits="userSpaceOnUse"><stop stop-color="#D0D0D0"/><stop offset="1" stop-color="#212121"/></linearGradient></defs></svg>