<!-- by TradingView --><svg width="18" height="18" viewBox="0 0 18 18" xmlns="http://www.w3.org/2000/svg"><path fill="url(#agybnkq1e)" d="M0 0h18v18H0z"/><path d="M10 7.33v.77l.23 1.14A2 2 0 0 0 10.67 8v-.67a2 2 0 0 0-2-2H6a2 2 0 0 0-2 2V8a2 2 0 0 0 1 1.73v-.85c-.2-.23-.33-.54-.33-.88v-.67C4.67 6.6 5.27 6 6 6h2.67C9.4 6 10 6.6 10 7.33Z" fill="#F0F3FA"/><path d="M9.67 4.67h.66c.74 0 1.34.6 1.34 1.33v2.67c0 .73-.6 1.33-1.34 1.33h-.66c-.74 0-1.34-.6-1.34-1.33h-.66c0 1.1.9 2 2 2h.66a2 2 0 0 0 2-2V6a2 2 0 0 0-2-2h-.66a2 2 0 0 0-1.74 1h.85c.24-.2.55-.33.89-.33Z" fill="#F0F3FA"/><path d="M7.33 8H8c.74 0 1.33.6 1.33 1.33v.34H10v-.34a2 2 0 0 0-2-2h-.67a2 2 0 0 0-2 2V12c0 1.1.9 2 2 2H8a2 2 0 0 0 1.89-1.33h-.73c-.24.4-.67.66-1.16.66h-.67C6.6 13.33 6 12.73 6 12V9.33C6 8.6 6.6 8 7.33 8Z" fill="#F0F3FA"/><path d="M13 8.85c.2.24.33.54.33.88v.67c0 .74-.6 1.33-1.33 1.33H9.33c-.73 0-1.33-.6-1.33-1.33v-.2l-.67-.53v.73c0 1.1.9 2 2 2H12a2 2 0 0 0 2-2v-.67A2 2 0 0 0 13 8v.85Z" fill="#F0F3FA"/><defs><linearGradient id="agybnkq1e" x1="3.7" y1="3.05" x2="15.27" y2="15.43" gradientUnits="userSpaceOnUse"><stop stop-color="#074C7D"/><stop offset="1" stop-color="#5D0B5D"/></linearGradient></defs></svg>