<!-- by TradingView --><svg width="18" height="18" viewBox="0 0 18 18" xmlns="http://www.w3.org/2000/svg"><path fill="#F0F3FA" d="M0 0h18v18H0z"/><path d="M5.08 10.69c.17-.1.23-.32.13-.5a.37.37 0 0 0-.5-.15l-1.49.76c-.3.12-.3.54 0 .67L9 14v-.82l-4.67-2.05.75-.44Z" fill="url(#a)"/><path d="M12.92 10.69a.37.37 0 0 1 .36-.65l1.5.76c.3.12.3.54 0 .67L9 14v-.82l4.67-2.05-.75-.44Z" fill="url(#b)"/><path d="M6.02 7.85a.5.5 0 0 0 .14-.6c-.1-.23-.34-.31-.54-.2l-1.38.78c-.32.15-.32.66 0 .82L9 11v-1L5.45 8.23l.57-.39Z" fill="url(#c)"/><path d="M11.98 7.85a.5.5 0 0 1-.14-.6c.1-.23.34-.31.54-.2l1.38.78c.32.15.32.66 0 .82L9 11v-1l3.55-1.76-.57-.39Z" fill="url(#d)"/><path d="M9 4.75V4L6.2 5.2a.33.33 0 0 0 0 .6L9 7v-.75L7.24 5.5 9 4.75Z" fill="url(#e)"/><path d="M9 4.75V4l2.8 1.2c.27.11.27.49 0 .6L9 7v-.75l1.76-.75L9 4.75Z" fill="url(#f)"/><defs><linearGradient id="a" x1="9" y1="12" x2="3" y2="12" gradientUnits="userSpaceOnUse"><stop stop-color="#44B8EA"/><stop offset="1" stop-color="#4999D4"/></linearGradient><linearGradient id="b" x1="15" y1="12" x2="9" y2="12" gradientUnits="userSpaceOnUse"><stop stop-color="#80D1E7"/><stop offset="1" stop-color="#AFDDF6"/></linearGradient><linearGradient id="c" x1="9" y1="9" x2="4" y2="9" gradientUnits="userSpaceOnUse"><stop stop-color="#44B8EA"/><stop offset="1" stop-color="#4999D4"/></linearGradient><linearGradient id="d" x1="14" y1="9" x2="9" y2="9" gradientUnits="userSpaceOnUse"><stop stop-color="#80D1E7"/><stop offset="1" stop-color="#AFDDF6"/></linearGradient><linearGradient id="e" x1="9" y1="5.5" x2="6" y2="5.5" gradientUnits="userSpaceOnUse"><stop stop-color="#44B8EA"/><stop offset="1" stop-color="#4999D4"/></linearGradient><linearGradient id="f" x1="12" y1="5.5" x2="9" y2="5.5" gradientUnits="userSpaceOnUse"><stop stop-color="#80D1E7"/><stop offset="1" stop-color="#AFDDF6"/></linearGradient></defs></svg>