<!-- by TradingView --><svg width="18" height="18" viewBox="0 0 18 18" xmlns="http://www.w3.org/2000/svg"><path fill="#F0F3FA" d="M0 0h18v18H0z"/><path fill-rule="evenodd" d="M15 9A6 6 0 1 1 3 9a6 6 0 0 1 12 0Zm-4.77-3.82c.3.57.3 1.26.01 1.92a3.43 3.43 0 0 1-1.56 1.62c-.7.37-1.5.5-2.2.36a2.2 2.2 0 0 1-1.58-1.1 2.2 2.2 0 0 1-.01-1.92c.29-.66.85-1.24 1.56-1.61.7-.37 1.5-.5 2.2-.36a2.2 2.2 0 0 1 1.58 1.1Zm-2.19.58c-.02.03-.01.06.02.08.2.12.37.24.45.48.08.3-.04.7-.25.94-.29.32-.64.5-1.07.53a.93.93 0 0 1-.87-.4.85.85 0 0 1-.07-.8c.04-.1.11-.21.19-.31l.01-.02a.04.04 0 0 0 0-.05l-.13-.23a.48.48 0 0 1-.03-.38c.11-.32.35-.51.65-.65.22-.1.44-.17.68-.14.16.02.3.08.41.17.2.17.21.46.07.67a2.4 2.4 0 0 0-.06.1Zm-.57-.4c.08.14.02.33-.15.43-.17.1-.37.06-.45-.08-.08-.14-.01-.33.15-.43.17-.1.37-.06.45.08Zm.17 1.06c.13.16.08.41-.12.58-.2.16-.46.16-.59 0-.13-.15-.08-.4.12-.57.2-.16.46-.17.59-.01Z"/></svg>