<!-- by TradingView --><svg width="18" height="18" viewBox="0 0 18 18" xmlns="http://www.w3.org/2000/svg"><path fill="#F0F3FA" d="M0 0h18v18H0z"/><path d="m5.29 8.18.77-.7a5.3 5.3 0 0 1 1.8-.94l.01-.03.21-.42c.05-.1.07-.23.07-.38 0-.3-.02-.57.02-.93.08-.53.32-.98.72-1.35.42-.31.9-.45 1.43-.43.73.04 1.67.43 1.73 1.24a.17.17 0 0 0 .09.14l.21.1c.93.45 1.16 1.9.18 2.41-.19.1-.4.17-.63.22-.06.01-.06.05-.02.1a6.13 6.13 0 0 1 1.57 1.44c.08.1.14.22.2.34a.16.16 0 0 1-.03.18.6.6 0 0 0-.12.18.09.09 0 0 0 0 .07c.27.63.49 1.21.5 1.93.03 1.9-1.6 3.19-3.44 3.51-.75.14-1.54.17-2.36.11-2.21-.16-4.44-1.56-4.18-3.92A5.18 5.18 0 0 1 5.3 8.18Z" fill="#5D4035"/><path d="m11.6 4.05-.02.24c0 .03-.01.05-.03.06-.41.24-.57.53-.74.95-.05.15-.01.18.13.11.21-.11.7-.19.87.08.09.15.1.31.04.48-.03.08-.17.16-.25.19-.17.06-.32.13-.47.21l-.13.16c-.03.12-.15.12-.25.07-.5-.21-1-.38-1.49-.49a.55.55 0 0 0-.24 0c-.1.02-.13.1-.24.11l-.2-.04-.02-1.03c0-.8.53-1.68 1.43-1.74.71-.05 1.25.16 1.61.64Z" fill="#FFB976"/><path d="M11.5 6.78c.66-.13 1.33-.27 1.24-1.1a1.07 1.07 0 0 0-.63-.87 1.25 1.25 0 0 0-.22-.08c-.05 0-.1-.02-.14-.04a.18.18 0 0 1-.08-.06.17.17 0 0 1-.03-.09l-.04-.5-.02.25c0 .03-.01.05-.03.06-.41.24-.57.53-.74.95-.05.15-.01.18.13.11.21-.11.7-.19.87.08.09.15.1.31.04.48-.03.08-.17.16-.25.19l-.07.03c-.17.06-.4.14-.56.3-.05.04-.03.06 0 .09-.04.07-.13.06-.22.02-.5-.21-1-.38-1.49-.49a.55.55 0 0 0-.24 0c-.04.01-.07.03-.1.06a.25.25 0 0 1-.14.05c.62.13 1.22.3 1.82.48.27.1.6.06.9.08Z" fill="#F29A5A"/><path d="M8.78 6.23c.62.12 1.22.28 1.82.47.15.08.05.24-.02.53l.01.1c.02.04.05.06.09.08.37.12.74.32 1.13.6-.06-.02-.1 0-.08.05 0 .01 0 .04.02.07.26.44.36.9.32 1.37-.14 0-.26.01-.38.03-.16.04-.25-.02-.25-.18a3.08 3.08 0 0 0-.5-1.6c-.28-.42-.67-.5-1.22-.64a17.83 17.83 0 0 0-1-.26c.01 0 .02-.01.02-.03v-.04l-.03-.02-.53-.12c.01-.24.15-.39.4-.46l.2.05Z" fill="#D53830"/><path d="M8.63 6.86a.92.92 0 0 0-.46 0v-.22l.54.12c.01 0 .02 0 .03.02v.04c0 .02-.01.03-.03.03h-.08ZM11.47 7.22c.26.2.58.36.8.56.37.31.57.5.6.54a8 8 0 0 1 .44.7c0 .03-.01.06-.03.08l-.27.37A7.94 7.94 0 0 0 11.81 8a4.28 4.28 0 0 0-1.13-.6.15.15 0 0 1-.09-.07.14.14 0 0 1-.01-.1v-.55c.14 0 .55.08.65.07.03 0 .06.02.07.05.03.1.09.34.17.4Z" fill="#B32729"/><path d="M8.63 6.86c.36.07.73.15 1.1.25.54.14.93.22 1.2.64.32.48.48 1.01.5 1.6.01.16.1.22.26.18.12-.02.24-.03.38-.03.33.73.36 1.43.09 2.1-.15.37-.38.69-.7.96-.82.7-1.86.98-2.95 1.03a6.43 6.43 0 0 1-2.44-.5 8.97 8.97 0 0 1-1.49-.74.72.72 0 0 1-.15-.4c-.06-.56 0-1.15.2-1.77a5.05 5.05 0 0 1 2.71-3c.23-.11.5-.22.83-.33a.92.92 0 0 1 .46 0Z" fill="#FFB976"/><path d="M11.8 8c.43.4.83.89 1.21 1.47.38.59.57 1.26.56 2.01 0 .48-.11.9-.33 1.28-.17.28-.3.49-.55.7-1.27 1.1-2.88 1.16-4.48 1.1a5.23 5.23 0 0 1-1.89-.44 3.18 3.18 0 0 1-1.74-1.77c.62.36 1.11.61 1.49.74.8.29 1.6.54 2.44.5a4.77 4.77 0 0 0 2.96-1.03c.31-.27.54-.59.69-.96.27-.67.24-1.37-.09-2.1a2.3 2.3 0 0 0-.32-1.37.23.23 0 0 1-.02-.07c-.01-.05.02-.07.08-.05Z" fill="#F29A5A"/><path d="M7.45 11.63a.24.24 0 0 0-.23-.02l-1.26.51a.11.11 0 0 1-.11-.01.1.1 0 0 1-.03-.05.1.1 0 0 1 0-.05l.33-1.36a.31.31 0 0 0-.02-.22l-.48-.93a.07.07 0 0 1 0-.07l.03-.03.03-.01 1.17-.1c.09-.02.16-.05.22-.1l.98-.95a.11.11 0 0 1 .1-.03.1.1 0 0 1 .05.02.1.1 0 0 1 .03.05l.36.96a.29.29 0 0 0 .16.16l1.27.53c.07.03.08.07.03.14a101.9 101.9 0 0 0-1.1.83.27.27 0 0 0-.11.2l-.06 1.25-.01.05a.1.1 0 0 1-.13.02l-1.22-.8Z" fill="#5D4035"/></svg>