<!-- by TradingView --><svg width="18" height="18" viewBox="0 0 18 18" xmlns="http://www.w3.org/2000/svg"><path fill="#F0F3FA" d="M0 0h18v18H0z"/><circle cx="9" cy="9" r="6" fill="url(#a)"/><circle cx="9" cy="9" r="5.65" fill="url(#b)"/><circle cx="9" cy="9" r="5.29" fill="url(#c)"/><path d="M8 4.41h1.41v1.17c1.2.31 2.16 1.24 2.5 2.42h-.87a2.5 2.5 0 0 0-2.3-1.55A2.53 2.53 0 0 0 6.24 9c0 1.4 1.12 2.55 2.5 2.55a2.5 2.5 0 0 0 2.3-1.55h.88a3.54 3.54 0 0 1-2.5 2.42v1.17H8v-1.1a3.53 3.53 0 0 1 0-6.98v-1.1Z" fill="#856515"/><path d="M8.3 4.41h1.4v1.13A3.53 3.53 0 0 1 12.4 8h-1.13a2.47 2.47 0 1 0 0 2h1.13a3.53 3.53 0 0 1-2.68 2.46v1.13H8.29v-1.13a3.53 3.53 0 0 1 0-6.92V4.41Z" fill="url(#d)"/><path d="M8.97 10c.27 0 .52-.13.66-.34L10.66 8h-1.6c-.18 0-.33.17-.33.33s.15.34.32.34h.36l-.55.66H7.39c-.4 0-.86.3-.86.67h2.44Z" fill="#856515"/><path d="M9.32 10c.27 0 .52-.13.65-.34L11 8H9.4c-.18 0-.33.17-.33.33 0 .25.15.34.33.34h.36l-.56.66H7.73c-.4 0-.86.3-.86.67h2.45Z" fill="url(#e)"/><defs><linearGradient id="a" x1="9" y1="3" x2="9" y2="15" gradientUnits="userSpaceOnUse"><stop stop-color="#89640D"/><stop offset=".18" stop-color="#E3BA59"/><stop offset=".49" stop-color="#9A700E"/><stop offset=".76" stop-color="#E4B959"/><stop offset="1" stop-color="#99710E"/></linearGradient><linearGradient id="b" x1="9" y1="3.35" x2="9" y2="14.65" gradientUnits="userSpaceOnUse"><stop stop-color="#D19912"/><stop offset=".5" stop-color="#BE8A0F"/><stop offset="1" stop-color="#C8971A"/></linearGradient><linearGradient id="c" x1="11.96" y1="4.91" x2="5.83" y2="12.88" gradientUnits="userSpaceOnUse"><stop stop-color="#E7DE83"/><stop offset=".19" stop-color="#FFFCAF"/><stop offset=".52" stop-color="#D9C86A"/><stop offset="1" stop-color="#C2AA40"/></linearGradient><linearGradient id="d" x1="8.91" y1="4.26" x2="8.91" y2="13.86" gradientUnits="userSpaceOnUse"><stop offset=".04" stop-color="#F4F49D"/><stop offset=".17" stop-color="#F3F5B6"/><stop offset=".28" stop-color="#E3C641"/><stop offset=".53" stop-color="#D8B246"/><stop offset=".79" stop-color="#ECE943"/><stop offset="1" stop-color="#D7B040"/></linearGradient><linearGradient id="e" x1="10.74" y1="8" x2="7.1" y2="10.24" gradientUnits="userSpaceOnUse"><stop stop-color="#EEE66D"/><stop offset=".28" stop-color="#D7B23D"/><stop offset=".48" stop-color="#DBB440"/><stop offset="1" stop-color="#E9DC48"/></linearGradient></defs></svg>