<!-- by TradingView --><svg width="18" height="18" viewBox="0 0 18 18" xmlns="http://www.w3.org/2000/svg"><path fill="url(#a)" d="M0 0h18v18H0z"/><path d="M10.38 4.57c.16.3.26.57.41.85.17.2.32.4.46.6.31.42.31.79.32 1.37 0 .02.01.05.04.06.83.5.76.58 1.67 1.68.06.08.1.17.13.28l.02.03.04.01h.3c.03 0 .06.02.07.05.03.07.01.15-.06.23-.02.02-.03.04-.01.07l.21.32-.01.16-.31-.45a.1.1 0 0 0-.05-.04c-.2-.07-.32-.2-.33-.39-.02-.2-.11-.28-.29-.32a1.03 1.03 0 0 0-.28-.3 7.13 7.13 0 0 0-.54-.61 1.9 1.9 0 0 0-.4-.3l-.44-.27c-.03 0-.05 0-.08-.02-.03 0-.04-.03-.04-.06.03-.4.03-.89-.16-1.17l-.7-1.14-.41-.33a.09.09 0 0 0-.07-.02l-.48.1c-.03-.01-.08 0-.13.01a1.35 1.35 0 0 1-.4-.04h-.03c-.02.03-.03.02-.04-.01l-.1-.44.53-.21c.08-.03.08-.06 0-.1a.73.73 0 0 0-.3 0c-.03-.04-.05-.06-.04-.07l.04-.07a.56.56 0 0 1 .35 0l.29.08c.32.06.6.22.82.46Z" fill="#FCF6BF"/><path d="M8.92 4.17a.73.73 0 0 1 .3 0c.08.04.08.07 0 .1l-.53.21a.76.76 0 0 1-.32.17c-.05 0-.07.04-.05.09a.1.1 0 0 1 0 .07.23.23 0 0 1-.1.1c-.1-.02-.17.02-.21.11l-.31.69c-.06.12-.17.16-.17.31 0 .02 0 .03-.02.05l-.2.2a.12.12 0 0 1-.07.03c-.11.01-.17.07-.18.18 0 .03-.01.05-.03.06a.2.2 0 0 1-.2.04.07.07 0 0 1-.03-.02.07.07 0 0 1-.01-.04l-.03-.18c.09-.07.17-.23.28-.24.02 0 .04-.02.05-.05a.61.61 0 0 1 .25-.33c.11-.08.09-.15.16-.25.2-.25.35-.46.45-.63.07-.12.16-.23.27-.32l.32-.27c.13-.12.26-.15.38-.08Z" fill="#C027AB"/><path d="M10.36 5.21c.08.28.2.65.36 1.1.08.23.08.47 0 .72.03-.25.03-.42 0-.5l-.3-.64c-.01-.04-.05-.06-.12-.07l-.04-.15a.54.54 0 0 0-.1-.39.9.9 0 0 0-.76-.33l.47-.1a.09.09 0 0 1 .07.03l.42.33Z" fill="#ED8C92"/><path d="M8.23 4.9a.25.25 0 0 1-.1.16.1.1 0 0 0-.05.07.7.7 0 0 1-.08.22c-.16.21-.28.45-.36.72 0 .02-.02.05-.04.06a.2.2 0 0 0-.08.17c0 .03 0 .05-.02.08-.08.1-.16.2-.26.27l-.48.12a.08.08 0 0 1-.07-.02.08.08 0 0 1-.03-.05l-.03-.23c0-.04.02-.08.05-.11.02-.02.05-.03.08-.02l.03.18.01.04.03.02a.2.2 0 0 0 .2-.04.08.08 0 0 0 .03-.06c.01-.1.07-.17.18-.18.03 0 .06-.02.08-.04l.19-.2a.07.07 0 0 0 .02-.04c0-.15.11-.2.17-.31L8 5.02c.04-.1.12-.13.22-.12Z" fill="#5D52B1"/><path d="M9.4 4.95c.32 0 .57.1.75.33.08.1.12.23.1.39l.09.03c-.38-.4-.54-.4-.49-.02h-.04l-.02-.02.02-.21c0-.03.02-.04.04-.04h.12L10 5.4a.06.06 0 0 0 .03-.07c0-.01 0-.03-.02-.03a.74.74 0 0 0-.48-.22c-.12 0-.25.04-.39.15-.1.07-.21.17-.32.3-.03.02-.03.03.01.02.19-.07.21-.28.43-.26.07 0 .16.02.27.05.03 0 .05.02.06.05.04.1.02.2-.04.3 0-.05-.03-.08-.07-.09a.86.86 0 0 0-.43 0c-.02 0-.04.02-.04.05 0 .07.04.13.11.19-.1-.01-.16-.08-.17-.19l-.01-.03a.06.06 0 0 0-.06-.02l-.03.02-.17.17a.1.1 0 0 0-.03.07v.07c0-.03-.01-.05-.03-.04 0 0-.02 0-.03.02-.11.2-.2.42-.25.65l-.12.2a.11.11 0 0 0-.01.08c.02.15-.02.26-.14.35-.16.11-.31.22-.47.31-.16-.02-.17-.14 0-.36.05 0 .12-.02.18-.05.06-.03.07-.07.04-.13l-.02-.02V6.9c.21-.29.4-.6.54-.93.08-.18.19-.29.28-.44.13-.22.32-.36.52-.5.05-.01.09-.03.12-.06.05-.02.1-.02.13-.02Z" fill="#451057"/><path d="M9.14 5.03c-.2.14-.4.28-.52.5-.1.15-.2.26-.28.44-.15.33-.33.64-.54.93v.04l.02.02h-.1c-.02 0-.03-.02-.03-.04.06-.19.12-.34.2-.47.33-.56.6-.96.8-1.2a1 1 0 0 1 .45-.22Z" fill="#8A9DBF"/><path d="m9.83 5.69.06.22c-.12.02-.21-.03-.27-.15l-.03-.03h-.05l.01-.05c.06-.1.08-.2.04-.3a.07.07 0 0 0-.06-.04c-.11-.03-.2-.05-.27-.05-.22-.02-.24.2-.43.26-.04 0-.04 0-.01-.03.11-.12.22-.22.32-.3.14-.1.27-.15.39-.14.19.01.35.08.48.22a.06.06 0 0 1 .02.07.06.06 0 0 1-.06.04h-.12c-.02 0-.03 0-.04.04l-.02.2c0 .02 0 .03.02.03h.02Z" fill="#F39B79"/><path d="M11.33 7.6a.5.5 0 0 0-.15.2h-.03c-.67.27-1 .95-1.22 1.62 0 .01-.02.02-.03.01l-.02-.01v-.01l.02-.02v-.02h-.04a.03.03 0 0 1-.02-.01.73.73 0 0 1-.11-.66c.14-.43.23-.7.25-.82.35-.2.6-.49.73-.85.09-.25.1-.5.01-.71l-.36-1.1c.22.37.45.75.7 1.13.18.28.18.77.15 1.17 0 .03.01.05.04.06l.08.02Z" fill="#F1D2C0"/><path d="M10.34 5.7c-.29-.1-.45-.11-.49-.02-.05-.38.11-.38.49.02Z" fill="#0E1244"/><path d="M9.55 5.68v.05c-.1.16-.24.2-.43.11-.07-.06-.1-.12-.1-.19 0-.03 0-.05.03-.05a.86.86 0 0 1 .43 0c.04.01.07.04.07.08Z" fill="#1BEEF2"/><path d="M10.34 5.7a3.25 3.25 0 0 0-.08-.03l.04.15c-.03.1-.08.16-.15.17a.5.5 0 0 1-.26-.08l-.06-.22.02-.01c.04-.09.2-.08.49.02Z" fill="#2ED2E1"/><path d="M9.12 5.84c.19.1.33.05.42-.11h.05l.03.03c.06.12.15.17.27.15a.5.5 0 0 0 .26.08l-.02.2c-.14-.1-.25-.14-.35-.08 0 .02-.03.02-.08.02-.19-.16-.38-.13-.56.1-.23-.05-.4-.15-.49-.3v-.07a.1.1 0 0 1 .03-.07l.17-.17a.06.06 0 0 1 .06-.02l.03.02.01.03c.01.11.07.18.17.19Z" fill="#C7285B"/><path d="M10.3 5.82c.07 0 .1.03.13.07l.29.64c.03.08.03.25 0 .5-.14.36-.39.64-.74.85l-.14.1c-.03.01-.06.05-.1.12a.12.12 0 0 1-.1.08c.16-.15.16-.24.01-.27.3-.1.5-.23.63-.42a.8.8 0 0 0 .27-.43v-.08l-.1-.2a.1.1 0 0 0-.05-.06.78.78 0 0 0-.25-.08 1.69 1.69 0 0 1-.26-.06 1.05 1.05 0 0 0-.67 0h-.09c-.03-.01-.04-.03-.04-.05l.01-.07c.2-.03.38-.09.53-.17.06-.03.09-.08.07-.16.05 0 .07 0 .08-.02-.03.06-.02.12.01.17.12.15.42.42.6.25.06-.05.1-.1.1-.16 0-.04-.02-.05-.05-.03-.16.06-.26.01-.3-.15V6c.08-.01.13-.07.16-.17Z" fill="#400440"/><path d="M8.65 5.93c.1.15.26.25.49.3a.32.32 0 0 1-.33.03c-.02-.01-.05 0-.06.01l-.02.03c0 .03 0 .05.02.07.08.08.2.11.35.1v.06c0 .02 0 .04.03.04h.1a.67.67 0 0 1-.47-.05c-.02-.06-.05-.08-.08-.08l-.03.02v.03c.03.24.12.47.25.69.09.15.2.42.38.59.06.05.05.08-.03.07a.58.58 0 0 1-.2-.05 3.5 3.5 0 0 0-.4-.16c-.16-.06-.17-.26-.3-.34a.73.73 0 0 1-.01-.73 2.2 2.2 0 0 1 .28-.67c.02 0 .03 0 .03.04Z" fill="#1BEEF2"/><path d="M9.7 6.13c.01.08 0 .13-.07.16-.15.08-.32.14-.53.17-.15.02-.27 0-.35-.09a.07.07 0 0 1-.02-.07c0-.01 0-.02.02-.03.01-.02.04-.02.06-.01.11.05.22.05.33-.02.18-.24.37-.27.56-.11Z" fill="#EBFBE6"/><path d="M10.13 6.2c.05.15.15.2.31.14.03-.02.05 0 .04.03 0 .06-.03.1-.08.16-.19.17-.5-.1-.6-.25-.04-.05-.05-.1-.02-.17.1-.06.21-.03.35.08Z" fill="#FCF6BF"/><path d="M8.76 6.52c.08.4.26.76.55 1.06a.11.11 0 0 0 .1.03l.87-.12c-.13.19-.33.33-.63.42H9.5c-.3-.04-.57-.1-.77-.18a.56.56 0 0 1-.25-.19l-.13-.25c.13.08.14.28.3.34.16.05.3.1.4.16.06.03.13.04.2.05.08 0 .1-.02.03-.07-.17-.17-.3-.44-.38-.6a1.95 1.95 0 0 1-.26-.68l.01-.03.03-.02c.03 0 .06.02.08.08Z" fill="#74A4C3"/><path d="m6.63 6.47.03.23a.08.08 0 0 0 .03.05.08.08 0 0 0 .07.02l.48-.12c-.11.08-.2.18-.26.28-.01.02-.03.03-.06.02-.05 0-.1-.02-.15-.04-.05-.02-.1-.02-.13 0a.15.15 0 0 0-.07.07S6.56 7 6.54 7h-.03a.34.34 0 0 0-.23.03c-.02 0-.04 0-.04-.02l-.05-.2c-.04-.12 0-.14.1-.06.08.06.18.07.28.04.03-.01.04-.03.04-.06l.02-.26Z" fill="#2ED2E1"/><path d="M8.76 6.52c.12.07.27.09.46.06.23-.08.45-.08.67 0l.26.06c.1.01.18.04.25.08a.1.1 0 0 1 .05.05l.1.2v.09a.8.8 0 0 1-.27.43l-.87.12a.1.1 0 0 1-.1-.03c-.29-.3-.47-.66-.55-1.06Z" fill="#DCD5C8"/><path d="M8.34 6.56a.73.73 0 0 0 0 .73l.14.25a.3.3 0 0 0-.14-.04.07.07 0 0 0-.06.04l-.38.81-.25.31.22-.78a.06.06 0 0 0-.02-.06.05.05 0 0 0-.06 0l-.34.23-.42.14c-.02.02-.05.02-.07.01.18-.13.33-.29.44-.48a.09.09 0 0 0 .01-.08.19.19 0 0 0-.1-.1.15.15 0 0 1 .07-.04c.02 0 .04 0 .06.02.07.08.12.07.16-.02l.47-.31c.12-.09.16-.2.14-.35l.01-.07.12-.2Z" fill="#43639C"/><path d="M8.72 7.59c-.16-.12-.38-.39-.38-.6 0-.11-.02-.24.1-.28.03 0 .04 0 .05.03l.08.3.03.06c.1.1.18.23.26.4v.06c-.02.07-.07.08-.14.03Z" fill="#AAF9ED"/><path d="M7.52 7.07c.03.03.01.07-.05.1l-.13.07a.27.27 0 0 0-.12.1c-.05.07-.04.15.02.22l-.09.26a.05.05 0 0 1-.05.04h-.04a.03.03 0 0 1-.03-.03c.04-.21.04-.41 0-.6l-.1-.2c.19-.04.35-.05.5-.03.03 0 .06.02.09.07Z" fill="#7B5F7F"/><path d="m6.93 7.04.1.18a.2.2 0 0 0-.07-.05c-.03-.01-.05 0-.05.03-.03.19-.02.36.04.53v.1c0 .04-.04.06-.1.05a.05.05 0 0 1-.04-.02.05.05 0 0 1 0-.04c.03-.2.01-.4-.06-.57a.05.05 0 0 0-.02-.03h-.05a.04.04 0 0 0-.03.01.05.05 0 0 0-.01.04c0 .07.03.2.08.36.02.07.02.12 0 .16a.1.1 0 0 1-.04.04.1.1 0 0 1-.13-.04l-.13-.28c-.07-.14-.12-.13-.15.02v.08l.02.09.1.22c.01.04 0 .05-.04.05h-.04c-.02 0-.03 0-.04.02l-.13.23a.12.12 0 0 0 .04.15c.13.08.28.1.46.06 0 .06 0 .1-.04.14-.23.3-.71.17-.83-.18l.01-.07c.02-.02.04-.03.06-.01l.11.05c.03 0 .04 0 .04-.04 0-.06.02-.1.06-.12.03 0 .04-.02.04-.05 0-.14-.03-.25-.01-.36.03-.21.08-.37.13-.48a.12.12 0 0 1 .06-.05l.29-.15h.05a.7.7 0 0 0 .32-.07Z" fill="#43639C"/><path d="M7.6 7.14c-.17.22-.16.34 0 .36-.04.1-.09.1-.16.02a.06.06 0 0 0-.06-.02.15.15 0 0 0-.07.04l-.07.02c-.06-.07-.07-.15-.02-.23a.27.27 0 0 1 .12-.09l.13-.07c.06-.03.08-.07.05-.1.04 0 .06.03.07.07Z" fill="#5BADCC"/><path d="M7.02 7.22a1.36 1.36 0 0 1 .01.61.03.03 0 0 0 .03.03h.04a.05.05 0 0 0 .05-.04l.1-.26.06-.02c.05.02.08.06.1.1a.08.08 0 0 1 0 .08c-.12.2-.27.35-.45.48l-.27.17a.14.14 0 0 0-.05.06.6.6 0 0 1-.46-.06.12.12 0 0 1-.04-.16L6.27 8a.04.04 0 0 1 .04-.02h.04c.04 0 .05-.01.04-.05a1.5 1.5 0 0 0-.1-.22.2.2 0 0 1-.02-.09v-.08c.03-.15.08-.16.15-.02l.13.28c0 .02.02.03.04.04a.1.1 0 0 0 .13-.04c.02-.04.02-.1 0-.16a1.64 1.64 0 0 1-.08-.38.05.05 0 0 1 .02-.03h.07l.02.03a1.06 1.06 0 0 1 .05.6.05.05 0 0 0 .05.03c.06.01.1 0 .1-.05v-.1a1.07 1.07 0 0 1-.04-.53c0-.03.02-.04.05-.03a.2.2 0 0 1 .06.05Z" fill="#0E1244"/><path d="M8.48 7.54c.08.1.16.16.25.2.2.07.46.13.77.18a.38.38 0 0 1-.18.03.1.1 0 0 0-.07.02c-.2.2-.44.28-.7.24a.25.25 0 0 1-.17-.1.08.08 0 0 0-.06-.04.08.08 0 0 0-.07.03c-.07.09-.1.2-.07.36a5.58 5.58 0 0 0-.02-.18c-.03-.13-.06-.14-.1 0-.02.11-.02.25.02.43l-.18-.36.38-.81a.07.07 0 0 1 .06-.04.3.3 0 0 1 .14.04Z" fill="#5E3365"/><path d="m11.33 7.6.43.26c.17.1.3.2.41.3.19.2.37.4.54.61.1.15-.02.23-.36.24.01-.04-.05-.07-.2-.1.08-.09 0-.14-.21-.15-.04 0-.05-.01-.02-.04a.23.23 0 0 1 .2-.07c.02 0 .03 0 .04-.02v-.02c.01-.03 0-.04-.01-.05-.07-.02-.14-.01-.22.04 0-.05-.02-.08-.05-.1 0-.12-.03-.15-.1-.1-.07-.06-.13-.07-.18-.01-.06 0-.1 0-.1.05-.02.03-.01.05.02.07l.07.08a.74.74 0 0 1 .03.05v.04h-.06c-.09-.08-.27-.08-.25.08-.1.1-.13.26-.25.35-.03.02-.05.01-.06-.01-.04-.12-.14-.17-.08-.31a.87.87 0 0 0 .06-.4l.03-.06a.78.78 0 0 1 .2-.18c-.06.04-.1.1-.13.2-.05.17-.06.3-.05.39 0 .02 0 .02.02 0l.32-.56a.04.04 0 0 0 0-.05.04.04 0 0 0-.04-.02h-.08a.42.42 0 0 0-.07-.31.5.5 0 0 1 .15-.2Z" fill="#EF1151"/><path d="M11.15 7.8c-.07.12-.15.23-.25.33-.2.2-.35.44-.48.72-.1.23-.07.42.11.59l.34.37c.02.02.06.02.1 0H11c.2.16.44.3.6.5.25.3.36.46.77.33.03-.01.04-.03.04-.06l-.12-.55c.12 0 .2.07.25.2.02.03 0 .04-.03.04a.18.18 0 0 1-.06-.03c-.02-.01-.04 0-.05.03v.04c.07.14.12.29.13.44-.12.21-.05.3-.04.5l-.05.05c-.03-.2-.13-.28-.3-.26a.22.22 0 0 0-.17.11.4.4 0 0 0-.05.23.39.39 0 0 1-.31-.19c.08-.67-.12-1.04-.62-1.1-.32-.29-.57-.61-.77-.98 0-.04-.03-.04-.08-.02a.07.07 0 0 0-.04.05.98.98 0 0 0 .03.56.03.03 0 0 1-.02.03h-.01c-.1-.02-.15 0-.17.03a.12.12 0 0 1-.07.05l-.1-.01-.36-.13c-.14-.06-.25-.06-.34.01-.01-.1.04-.14.15-.14.11 0 .2-.03.3-.1a.09.09 0 0 0 .02-.08c0-.27.08-.48.14-.73a2.15 2.15 0 0 0 .17-.65l.14-.1c-.02.12-.11.39-.25.82a.73.73 0 0 0 .12.67h.04c.01 0 .02 0 0 .02v.03l.01.01.03-.01c.22-.67.55-1.35 1.22-1.62Z" fill="#C4B1BC"/><path d="M11.18 7.8c.06.09.09.2.07.32l-.04.03a.77.77 0 0 0-.2.18.11.11 0 0 0-.03.07c0 .14 0 .25-.06.39s.04.19.08.3c.01.03.03.04.06.02.12-.1.15-.24.25-.35l.15.11a.04.04 0 0 1 0 .06l-.01.01c-.05.02-.09.06-.11.13v.02h.04c.01 0 .03 0 .04-.02a.29.29 0 0 1 .13-.13h.05l.02.03c.02.02.02.04 0 .05a.57.57 0 0 0-.12.16.05.05 0 0 0 .04.07h.02c.03.02.05 0 .05-.03a.31.31 0 0 1 .1-.17c.03-.02.05-.02.05.02.01.08.05.17.1.26-.21.17-.49.28-.8.36-.06.01-.1.05-.1.12-.03.02-.07.02-.09 0l-.34-.37c-.18-.17-.22-.36-.11-.6.13-.27.29-.51.48-.7.1-.11.18-.22.25-.34h.03Z" fill="#6E094E"/><path d="M7.65 8.66c-.1.25-.22.5-.35.74a.69.69 0 0 0-.08.23.66.66 0 0 1-.06.25.99.99 0 0 0-.1.35c-.02.11-.06.27-.12.45-.07.2-.09.33-.2.52-.08.14-.14.3-.17.5.1.41 0 .72.1.97-.01-.01-.33-.4-.35-.39-.02 0 .01.36.01.39-.4.18-.83.16-1-.34l-.01-.78c.1-.05.25-.03.43.05l-.02.09c0 .02 0 .05.03.06.04.03.07.04.11.04.03 0 .05 0 .07-.03.06-.1.13-.18.23-.24a.1.1 0 0 0 .04-.06l.14-.52.03.2c0 .04 0 .04.02.02.17-.19.3-.4.37-.61.2-.6.42-1.15.65-1.65.17-.38.18-.66.03-.85l.34-.23a.05.05 0 0 1 .06 0l.02.02v.04l-.22.78Z" fill="#8690B5"/><path d="M9.65 7.9c.15.04.15.13 0 .28-.13.14-.2.3-.24.47a58.26 58.26 0 0 1-.2.89c-.1 0-.16.04-.15.14l.1.19a.87.87 0 0 0-.05.44v.08c-.04.1-.05.2-.05.3v.3c-.03.22-.04.43-.03.64 0 .3-.03.04-.07 1.04a.72.72 0 0 1-.4.04c-.06-.07-.15-.05-.29.05-.03-.12-.08-.13-.17-.03a.08.08 0 0 0-.02.07l.05.22c.03.1.08.1.14.03h.63l.04.01v.06l-.1.76h1.31c.14.03.24 0 .3-.09.08-.12.13-.1.13.04 0 .05.05.07.15.07l.23-.01h1.06c.05.01.08 0 .08-.02l.45.02c0 .18-8.15.09-8.5.09l-.03-.01c-.03-.03-.03-.06 0-.08l.98-.03c.2.05.35.07.44.06l.55-.04 1.25.01.04-.01c.04-.03.03-.05 0-.07a.72.72 0 0 0-.22-.04c-.05 0-.07-.03-.08-.07v-.04c0-.03.02-.05.05-.05.13 0 .22-.06.28-.16l.11-.16c.02-.03.02-.04-.02-.04-.02 0-.05.01-.08.04a.57.57 0 0 0-.45.07.07.07 0 0 1-.08 0 .07.07 0 0 1-.03-.07c.03-.16 0-.33-.08-.53-.1-.35-.18-.6-.1-1.06.02-.2.08-.36.16-.5.11-.19.13-.33.2-.52.06-.18.1-.34.12-.45a.98.98 0 0 1 .1-.35.66.66 0 0 0 .06-.25c0-.05.03-.13.08-.23.13-.24.25-.49.35-.74l.25-.3.18.35c.06.05.08.11.05.17a.4.4 0 0 1-.05.15.1.1 0 0 1-.06.05.7.7 0 0 0-.6.64c-.05.31.11.4.34.52.02.02.03.04.03.07l-.1.4c0 .04-.02.05-.05.04-.05-.02-.08-.08-.08-.2 0-.04-.02-.06-.05-.07l-.26-.06c-.04-.01-.07 0-.08.06-.07.36.05.59.35.7.02 0 .03.01.03.02v.04l-.05.25a.03.03 0 0 0 0 .02.03.03 0 0 0 .03.01h.04c.05 0 .08-.02.1-.07l.03-.15c0-.03.02-.04.04-.05h.03c.03 0 .04.03.03.06l-.03.16a.09.09 0 0 0 .02.07.09.09 0 0 0 .07.03.1.1 0 0 0 .03 0 .07.07 0 0 0 .05-.06c.01-.11.04-.19.06-.24a.08.08 0 0 1 .07-.04c.33-.02.65-.16.77-.49.17-.42-.1-.77-.53-.83-.04 0-.06-.03-.05-.07l.08-.34c0-.02 0-.03.02-.04a.07.07 0 0 1 .07-.01c.02 0 .03.01.03.02.04.06.06.12.05.18 0 .05.01.08.07.08h.32c.06 0 .09-.03.1-.08.02-.33-.12-.53-.43-.6-.03 0-.04-.02-.04-.04l.01-.08c.05-.04.08-.08.13-.1.36-.11.64-.33.83-.66.05-.08.03-.1-.06-.07a.71.71 0 0 0-.19.14 1.6 1.6 0 0 1-.37.3.7.7 0 0 1-.35.08c-.2 0-.31-.05-.35-.16-.02-.15 0-.27.07-.36a.08.08 0 0 1 .07-.03.08.08 0 0 1 .06.04c.04.05.1.08.17.1.26.04.5-.04.7-.24a.1.1 0 0 1 .07-.02c.06 0 .12 0 .18-.03l.15-.01Z" fill="#0E1244"/><path d="M5.78 7.95c.05.02.1.02.16 0 .02 0 .03 0 .03.02l.01.02-.01.04c-.19.07-.36.16-.52.28-.14.09-.16.2-.27.28a.45.45 0 0 0-.15.22c-.03.08-.06.17-.07.26-.01.22 0 .43.04.64.01.05-.02.07-.1.06a.17.17 0 0 0-.07-.08.7.7 0 0 1-.06-.31c0-.03 0-.06-.03-.08a.08.08 0 0 1 0-.07c.04-.18.03-.38.13-.58.12-.24.28-.43.48-.58.14-.07.28-.1.43-.12Z" fill="#EBFBE6"/><path d="M9.84 7.98a2.15 2.15 0 0 1-.17.65c-.06.25-.14.46-.14.73 0 .03 0 .05-.03.07a.37.37 0 0 1-.29.1L9.34 9l.07-.34c.03-.17.11-.33.24-.47.04 0 .08-.03.1-.08.03-.07.06-.1.1-.12Z" fill="#2ED2E1"/><path d="M7.45 8.05c.15.19.14.47-.03.85-.23.5-.44 1.05-.65 1.65-.07.22-.2.42-.37.6-.02.03-.03.02-.02 0 0-.07-.01-.14-.03-.2a.75.75 0 0 0 .17-.5c.06-.24 0-.46.2-.68.11-.11.17-.2.2-.25.05-.11.07-.25.08-.41 0-.15.07-.25.01-.42l.01-.05.02-.02c0-.02 0-.04-.03-.05a.19.19 0 0 1-.1-.18c0-.09.07-.13.12-.2l.42-.14Z" fill="#BFBFC8"/><path d="M8.54 8.93a.2.2 0 0 0 0-.1c-.02-.05-.04-.05-.06 0l-.12.2c-.01.03-.03.03-.06.02l-.03-.02L8.26 9V9c0-.05.04-.09.1-.13.03-.01.03-.03 0-.05-.09-.03-.16 0-.23.07.03-.06 0-.12-.05-.17a1.05 1.05 0 0 1-.01-.43c.03-.14.06-.13.09 0l.02.18c.04.11.16.16.35.16a.7.7 0 0 0 .35-.09c.14-.08.26-.17.37-.3a.71.71 0 0 1 .19-.13c.09-.04.1-.01.06.07-.2.33-.47.55-.82.66-.06.02-.1.06-.14.1Z" fill="#845A55"/><path d="M11.25 8.12h.08a.04.04 0 0 1 .04.01.04.04 0 0 1 0 .05l-.32.56c-.01.02-.02.02-.02 0-.01-.09 0-.22.05-.38.03-.1.07-.17.13-.21l.04-.03Z" fill="#ED8C92"/><path d="M6.96 8.2c.02.01.05.01.07 0-.05.06-.11.1-.12.19 0 .08.03.14.1.18.02.01.03.03.03.05 0 0 0 .02-.02.02a.04.04 0 0 0 0 .05c.05.17-.02.27-.02.42 0 .16-.03.3-.08.41a1.1 1.1 0 0 1-.2.25c-.2.22-.14.44-.2.67-.01-.04-.03-.07-.05-.08-.03 0-.05 0-.08.03l-.1.09c0-.08.03-.16.1-.25a.12.12 0 0 0 0-.09.12.12 0 0 0-.03-.07c-.04-.03-.08-.01-.15.05l.08-.13c0-.03 0-.05-.02-.07-.19-.18-.36-.17-.53.02-.02.02-.04.02-.06 0a.3.3 0 0 0-.17-.05.1.1 0 0 1-.07-.03 1.37 1.37 0 0 1-.28-.4l.02-.33c.3.68 1.08.68 1.58.3a.13.13 0 0 0 .05-.07c.11-.33.1-.64-.02-.93-.02-.04-.05-.06-.1-.06l.27-.17Z" fill="#8A9DBF"/><path d="M5.7 8.51c-.06.07-.04.16.07.28.13.15.3.2.52.15.08-.01.16-.07.26-.1.06-.07.08-.16.05-.27a.19.19 0 0 0 .04-.14l.05-.06c.05 0 .08.02.1.06.12.3.13.6.02.93 0 .02-.02.04-.05.06-.5.4-1.29.39-1.58-.29l.1-.25.03-.02h.02c.02 0 .03 0 .02-.02v-.01h.02l.01.01c.02.03.03.06.06.08.08.32.29.44.61.35a1.6 1.6 0 0 0 .32-.21v-.03c0-.03-.02-.04-.05-.02-.17.07-.29 0-.45-.04a.3.3 0 0 1-.14-.1.9.9 0 0 1-.17-.33l.07-.18c.01-.04.02-.04.03 0l.04.15Z" fill="#E0CDC5"/><path d="M11.79 8.4c0 .05.01.09.03.1.02.02.04.02.06 0 .03.02.04.05.05.1-.03.03-.06.04-.08.04h-.03l-.02-.03c0-.05-.04-.08-.09-.09a.09.09 0 0 1-.06-.04l-.05-.09c.05-.06.11-.05.19.02Z" fill="#6E094E"/><path d="M11.88 8.5c-.02.02-.04.02-.06 0-.02-.01-.03-.05-.03-.1.06-.05.09-.02.09.1Z" fill="#ED8C92"/><path d="m11.6 8.39.05.09c.01.02.03.04.06.04.05 0 .08.04.1.09v.03h.04c.02 0 .05-.01.08-.04.08-.05.15-.06.22-.04.02.01.02.02.02.05l-.01.02-.04.02a.23.23 0 0 0-.2.07c-.03.03-.02.04.02.04.22 0 .29.06.21.16a.67.67 0 0 0-.2-.05h-.02l-.02.02.01.03a.5.5 0 0 1 .17.1c.01.01.02.03 0 .04l-.01.01h-.04a.69.69 0 0 1-.1-.05c-.08-.04-.1-.03-.08.06a.47.47 0 0 1 0 .25.57.57 0 0 1-.1-.26c0-.04-.02-.04-.04-.02a.31.31 0 0 0-.1.17c-.01.03-.03.05-.06.04h-.02a.05.05 0 0 1-.04-.06v-.02c.02-.05.06-.1.12-.16.02-.01.02-.03 0-.05l-.02-.02c-.01-.02-.03-.02-.05-.01a.29.29 0 0 0-.13.13c-.01.02-.03.03-.04.02h-.03c-.01 0-.02-.01-.01-.02.02-.07.06-.11.1-.13h.03a.04.04 0 0 0 0-.07l-.16-.11c-.02-.16.16-.16.25-.09l.02.01h.04v-.06a.75.75 0 0 0-.03-.03.27.27 0 0 0-.07-.08c-.03-.02-.04-.04-.03-.07.02-.04.05-.06.1-.05Z" fill="#BC6C90"/><path d="M5.7 8.51c.21.28.48.36.8.24a.05.05 0 0 1 .04.01.05.05 0 0 1 .01.05v.03c-.1.03-.18.09-.26.1-.22.05-.39 0-.52-.15-.1-.12-.13-.21-.07-.28Z" fill="#400440"/><path d="M5.56 8.54a.9.9 0 0 0 .17.33.3.3 0 0 0 .14.1c.16.05.28.11.45.04.03-.02.05 0 .05.02v.03l-.02.02a1.6 1.6 0 0 1-.3.19c-.32.09-.53-.03-.61-.35a.92.92 0 0 1 .12-.38Z" fill="#0E1244"/><path d="M13 9.08c-.26.1-.51.2-.77.32-.13.05-.24.01-.27-.13l.39-.26c.34-.01.46-.1.36-.24.11.08.2.18.28.3Z" fill="#E05179"/><path d="M8.54 8.93a.14.14 0 0 0-.01.07c0 .03.01.05.04.06.31.06.45.26.42.59 0 .05-.03.08-.09.08h-.32c-.06 0-.08-.03-.07-.08 0-.06 0-.12-.05-.18a.07.07 0 0 0-.1-.01.07.07 0 0 0-.02.04l-.08.34c0 .04 0 .07.05.07.43.06.7.4.53.83-.12.33-.44.47-.77.5a.08.08 0 0 0-.07.03.74.74 0 0 0-.06.24.07.07 0 0 1-.05.06.1.1 0 0 1-.03 0 .09.09 0 0 1-.07-.03.09.09 0 0 1-.02-.07l.03-.16c.01-.03 0-.05-.03-.06h-.03a.06.06 0 0 0-.04.05l-.04.15c0 .05-.04.07-.1.07h-.05a.03.03 0 0 1 0-.03l.05-.25v-.04a.05.05 0 0 0-.04-.02c-.3-.11-.42-.34-.35-.7 0-.05.04-.07.08-.06l.26.06c.04 0 .05.03.05.06 0 .13.03.2.08.21.03.01.05 0 .05-.03l.1-.41c0-.03 0-.05-.03-.07-.23-.12-.39-.2-.34-.52a.7.7 0 0 1 .6-.64.1.1 0 0 0 .06-.05.4.4 0 0 0 .05-.15c.07-.08.14-.1.22-.07.04.02.04.04 0 .05-.05.04-.09.08-.1.13v.02l.02.02.03.02c.03.01.05 0 .06-.02l.12-.2c.02-.05.04-.05.06 0a.2.2 0 0 1 0 .1Z" fill="#D0B473"/><path d="M12.15 8.92c.15.02.21.05.2.1l-.4.25-.07.02a.47.47 0 0 0-.02-.2c-.03-.1 0-.11.08-.07l.1.05h.06v-.05a.5.5 0 0 0-.18-.1c-.01 0-.02-.02 0-.03v-.02h.03c.06 0 .13.02.2.05Z" fill="#451057"/><path d="M5.16 9.45a1.37 1.37 0 0 0 .31.43.1.1 0 0 0 .04.01.3.3 0 0 1 .17.05c.02.02.04.02.06 0 .17-.2.34-.2.53-.02.02.02.03.04.02.07a.42.42 0 0 1-.08.13c-.25.1-.5.13-.74.07a1.06 1.06 0 0 1-.49-.3c-.05 0-.08-.05-.08-.12.08 0 .11-.01.1-.06a2.95 2.95 0 0 1-.04-.64c.1-.01.18.12.2.38Z" fill="#2ED2E1"/><path d="M10.22 9.1c-.04.04-.05.09-.03.16.03.17.1.34.18.5.01.02.03.04.06.05.08.04.12.1.1.2a.1.1 0 0 1-.04.07c-.1.09-.16.18-.16.29v.02l-.02.02-.14.14a.06.06 0 0 0-.01.05.4.4 0 0 1-.02.25c-.01.03 0 .05.04.05l.37.04h.02v.01a.03.03 0 0 1 0 .03l-.02.04h-.02l-.4-.03c-.08 0-.11.03-.11.11.1.12.31.9.03 1.36a.17.17 0 0 0-.1.1l-.1.19c-.05-.03-.11-.02-.18.03-.02.02-.04.02-.06 0-.03-.05-.07-.07-.1-.06-.04 0-.05.03-.04.06l-.01.2c0 .03 0 .05.03.04l.3-.02c.03 0 .04-.01.05-.04v-.03a.2.2 0 0 0 .08.05c0 .02 0 .04.03.05a.24.24 0 0 0-.05.11l-.65.06a.8.8 0 0 0-.32-.08v-.06c.05.03.1.03.13 0a.11.11 0 0 1 .07-.02c.05 0 .1 0 .14.02.13.04.15 0 .07-.1-.02-.03 0-.08.06-.16a.05.05 0 0 0 0-.07.1.1 0 0 0-.12-.03.54.54 0 0 1-.24 0c-.01-.02-.04-.03-.08-.03 0-.21-.02-.29-.07-.23-.06-.27-.06-.6.07-.79.02.01.05 0 .07-.02.03.05.07.08.12.1h.08a.2.2 0 0 0 .07-.1c.31-.2.34-.52.5-.8.01-.02.02-.02.02-.01l.02.02v-.05c0-.02.01-.03.02-.03l.06-.02c.06.06.11.08.16.04.06-.04.06-.1 0-.16a.46.46 0 0 0-.19-.03.07.07 0 0 1-.06-.03.08.08 0 0 1-.02-.06c.02-.2 0-.36-.03-.49a.1.1 0 0 0-.05-.06 1.94 1.94 0 0 0-.47-.17c-.04 0-.06-.03-.05-.07 0-.03.02-.04.05-.05h.14l.35.14h.1c.04 0 .07-.02.08-.04.02-.04.08-.05.17-.03a.03.03 0 0 0 .02-.01v-.03a.98.98 0 0 1-.02-.55c0-.02.02-.04.04-.05.05-.02.08-.02.08.02Z" fill="#43639C"/><path d="M13 9.08c.17.04.26.12.28.32.01.2.12.32.33.39a.1.1 0 0 1 .05.04l.3.45c.03.1.02.2-.03.26a.08.08 0 0 0 0 .08c.08.25.1.53.04.83-.1.04-.14.09-.15.15l-.07-.03c-.02-.01-.03-.03-.03-.05a.1.1 0 0 1 .04-.06h.07a.04.04 0 0 0 .04 0l.02-.01v-.03a.68.68 0 0 0-.02-.22.15.15 0 0 1-.01-.08c.04-.23-.02-.4-.18-.53a.1.1 0 0 1-.04-.07c0-.09-.03-.14-.1-.16-.03 0-.04-.03-.04-.06.01-.1-.05-.17-.17-.2 0-.03-.02-.06-.04-.07h-.04a.05.05 0 0 0-.02.04v.02a.03.03 0 0 0 .03.02h.07a.07.07 0 0 1-.05.02s-.02 0-.03.02l-.01.02.01.05a3 3 0 0 1 .31.53l-.02.04h-.02c-.12-.18-.18-.29-.2-.3-.02-.03-.04-.03-.07 0l-.03.01h-.03a.07.07 0 0 1-.03-.03.07.07 0 0 1 0-.07.15.15 0 0 0 .03-.09c0-.02-.02-.03-.04-.03a.5.5 0 0 0-.03 0c-.02-.01-.03 0-.03.02v.35c0 .03 0 .05.03.07l.07.04a.04.04 0 0 0 .03 0l.02-.01v-.02l.02-.05.03-.03h.02c.02.01.03.03.03.05-.01.06 0 .13.06.2.04.06.05.11.03.17-.02.03-.04.03-.06 0a.45.45 0 0 1-.07-.15c0-.03-.02-.05-.05-.04-.1 0-.15-.02-.17-.1a.05.05 0 0 0-.03-.02.04.04 0 0 0-.03 0c-.03.01-.05.05-.04.12l-.01.02h-.07a.06.06 0 0 1-.04-.05.08.08 0 0 0-.03-.04c-.02-.02-.04-.02-.06.01a.23.23 0 0 0-.02.1.05.05 0 0 1-.01.03h-.02l-.01.01a.23.23 0 0 1-.12-.03l-.02-.02a.05.05 0 0 1 0-.06l.03-.01c.06-.02.07-.06.04-.12 0-.01 0-.02-.02-.02a.05.05 0 0 0-.04 0h-.02l-.03.05c-.01-.15-.06-.3-.13-.44v-.04c0-.04.03-.04.05-.03l.06.03c.04 0 .05-.01.03-.04-.04-.13-.13-.2-.25-.2l-.27-.28a.1.1 0 0 0-.07-.03.33.33 0 0 1-.16-.05.16.16 0 0 0-.08-.02c-.25-.02-.49.03-.71.16h-.03c0-.07.03-.1.08-.12.32-.08.6-.2.82-.36V9.3l.09-.02c.03.14.14.18.27.13l.76-.32Z" fill="#C7285B"/><path d="M10.22 9.1c.2.38.45.7.77.98 0 .06.04.08.14.08.06 0 .1.02.1.09.04.26.05.66-.26.78l-.25.06c-.09.13-.1.3-.06.5l-.03.05c.19 0 .36-.02.41.19.1-.28.98-.15 1.29.04-.01-.11.02-.22.1-.32.07-.11.07-.17.06-.3 0-.2-.08-.29.04-.5l.03-.04a.05.05 0 0 1 .04-.02.05.05 0 0 1 .04.03c.03.06.02.1-.04.12l-.02.01a.05.05 0 0 0 .01.08c.03.02.07.03.12.03a.04.04 0 0 0 .03-.01.04.04 0 0 0 .01-.03l.02-.1c.02-.03.04-.03.06-.01.02.01.03.02.03.04s.02.04.04.04l.04.01a.03.03 0 0 0 .03-.01v-.01c0-.07.02-.1.05-.12a.04.04 0 0 1 .03 0l.02.01v.02c.03.07.09.1.18.09.03 0 .04 0 .05.04.02.06.04.12.07.15.02.03.04.03.06 0 .02-.06 0-.11-.03-.17a.26.26 0 0 1-.06-.2c0-.02 0-.04-.03-.05h-.02a.04.04 0 0 0-.03.03l-.02.05a.04.04 0 0 1-.02.03h-.03l-.07-.04a.07.07 0 0 1-.03-.07v-.35c0-.02 0-.03.03-.03h.03c.02 0 .03.02.04.04 0 .03 0 .06-.02.09a.07.07 0 0 0 0 .07c0 .01 0 .02.02.03a.05.05 0 0 0 .06-.01c.03-.03.05-.03.07 0a11.87 11.87 0 0 1 .22.3l.02-.04v-.03a3 3 0 0 0-.3-.5.06.06 0 0 1-.02-.05l.01-.02.03-.02c.02 0 .03 0 .05-.02.13.02.18.09.17.2 0 .02.01.04.04.05.07.02.1.07.1.16a.1.1 0 0 0 .04.07c.16.12.22.3.18.53v.08c.03.06.04.14.04.22v.03l-.03.01a.04.04 0 0 1-.04 0h-.07a.1.1 0 0 0-.04.06c0 .02 0 .04.03.05l.07.03c-.1.12-.21.22-.36.3a.26.26 0 0 0 .03-.11c0-.04-.01-.05-.05-.05a.14.14 0 0 0-.11.08c0 .02-.02.02-.03.03h-.09a.13.13 0 0 0-.07.04l-.17.2c-.07.04-.1.1-.1.2 0 .02 0 .05-.02.07-.02.05-.41.31-.41.37l-.43.38a.05.05 0 0 1-.06 0 .9.9 0 0 0-.4-.2.05.05 0 0 0-.03.01l-.01.02-.01.18a.04.04 0 0 1-.01.03l-.02.01h-.01a1.7 1.7 0 0 0-.8.1h-.04l-.02-.03c-.02-.02-.02-.04.01-.04l.18-.01.03-.01.01-.03c.03-.15-.01-.26-.11-.33-.03-.02-.04 0-.04.03l-.02.19c0 .01 0 .03-.02.04a.06.06 0 0 1-.04.02c-.05 0-.08-.02-.08-.06l-.03-.24a.1.1 0 0 0-.05-.08.09.09 0 0 0-.09.01c-.05.03-.07.07-.07.1a.2.2 0 0 1-.13.03.17.17 0 0 0-.05-.11.05.05 0 0 0-.06 0 .45.45 0 0 0-.12.24.2.2 0 0 1-.08-.05l.01-.18.1-.2a.17.17 0 0 1 .1-.09c-.1-.3-.16-.56 0-.82l-.03-.54c0-.08.04-.12.12-.11l.4.04.01-.01.02-.04a.03.03 0 0 0 0-.03.03.03 0 0 0-.02-.01l-.37-.04c-.04 0-.05-.02-.04-.05a.4.4 0 0 0 .02-.25l.01-.05.14-.14a.05.05 0 0 0 .02-.04c0-.11.06-.2.17-.28a.1.1 0 0 0 .04-.07c0-.1-.03-.17-.11-.2a.12.12 0 0 1-.06-.06 1.7 1.7 0 0 1-.18-.5c-.02-.07 0-.12.03-.15Z" fill="#451057"/><path d="M8.2 9.4c-.03 0-.06.01-.07.05l-.1.3c0 .03.02.07.05.08.04 0 .07-.01.08-.04l.08-.3c.01-.04 0-.07-.03-.08Z" fill="#180F26"/><path d="M7.97 9.62a1.17 1.17 0 0 1-.05.12.03.03 0 0 1-.05 0 .16.16 0 0 1-.02-.16c.02-.06.06-.1.11-.1a.03.03 0 0 1 .03 0 .03.03 0 0 1 .01.03l-.03.11Z" fill="#400440"/><path d="M9.4 9.67a.36.36 0 0 0-.14 0c-.03 0-.05.01-.05.04 0 .04 0 .06.05.07.22.06.38.12.47.17a.1.1 0 0 1 .05.06c.04.13.05.3.03.5a.08.08 0 0 0 .02.05.07.07 0 0 0 .06.03c.06 0 .12 0 .2.03l-.13-.02c-.03 0-.05 0-.06.03-.02.03 0 .07.02.1l-.05.03c-.02 0-.03.01-.03.03a.28.28 0 0 0 0 .03v.01c0 .01 0 0 0 0l-.02-.01h-.01c-.17.29-.2.61-.51.8 0-.2.02-.4.07-.6.05-.2-.08-.5-.03-.73a1 1 0 0 0 0-.38c0-.06-.03-.1-.07-.1-.02 0-.04 0-.06.03a.07.07 0 0 1-.06.03l-.09-.19c.09-.07.2-.07.34-.01Z" fill="#99AFC7"/><path d="m12.29 10.03.12.55c0 .03 0 .05-.04.06-.41.13-.52-.02-.77-.33-.16-.2-.4-.34-.6-.5.22-.13.46-.18.71-.16.03 0 .05 0 .08.02.05.03.1.05.16.05a.1.1 0 0 1 .07.03l.27.28Z" fill="#F7DBBC"/><path d="M4.83 9.7c.03.01.05.04.07.07 0 .07.03.12.08.12.17.17.33.27.49.3.24.06.5.04.74-.07.07-.06.11-.08.15-.05l.04.07c0 .03 0 .06-.02.09a.45.45 0 0 0-.09.25c-.13.12-.18.26-.16.41 0 .03 0 .05-.03.07l-.1.11a.12.12 0 0 0-.04.08.98.98 0 0 1-.21.45c-.18-.08-.32-.1-.43-.05l-.28-.05c.15-.1.12-.22-.1-.34-.11-.07-.19-.2-.2-.37.07-.01.13-.03.2-.06a.06.06 0 0 0 .02-.05L5 10.1a.1.1 0 0 0-.06-.1.4.4 0 0 1-.22-.2c.01-.07.05-.1.1-.1Z" fill="#5C1C80"/><path d="M4.65 9.81c-.13.33-.1.65.09.98.01.18.08.3.2.37.22.12.25.23.1.34a1.2 1.2 0 0 1-.45-.47l-.05-.2c-.08-.15-.12-.26-.1-.33.03-.28.01-.52.16-.76l.03-.02h.03l.02.02v.02c0 .02-.02.03-.03.05Z" fill="#1BEEF2"/><path d="M4.72 9.8c.05.1.12.17.22.2a.1.1 0 0 1 .04.04.1.1 0 0 1 .02.06l-.04.58c0 .02 0 .04-.03.05a.58.58 0 0 1-.2.06 1.11 1.11 0 0 1-.08-.98l.07-.01Z" fill="#C027AB"/><path d="M9.3 11.63a.2.2 0 0 1-.07.1.08.08 0 0 1-.08 0 .25.25 0 0 1-.12-.1c0-.2 0-.42.02-.63v-.3c0-.1.02-.21.05-.31l.01-.08a.87.87 0 0 1 .04-.44c.03 0 .05-.01.06-.03a.06.06 0 0 1 .06-.03c.04 0 .06.04.08.1a1 1 0 0 1-.01.38c-.05.24.08.53.03.72-.05.2-.07.41-.07.62Z" fill="#1BEEF2"/><path d="M8.5 10.6c.03-.15-.14-.29-.26-.4a.1.1 0 0 1-.04-.07v-.05c0-.03.02-.05.05-.05.73-.02.69.96.02 1.08-.12.02-.3 0-.42.03-.03.01-.05 0-.07 0-.1-.07-.19-.01-.3-.07a.38.38 0 0 1-.22-.4c0-.06.04-.1.08-.12a.06.06 0 0 1 .07.02l.01.02c.07.19.17.3.36.33.08.01.17.06.23.03.2-.06.46-.16.49-.35Z" fill="#A88A69"/><path d="M11.6 11.19c-.02-.27-.08-.5-.15-.67-.07-.15-.12-.15-.16.01l.03.12c-.04.17-.12.33-.23.48-.02.02-.01.03 0 .05a.15.15 0 0 0-.02.04c-.04-.04-.09-.04-.13 0l-.01.02a.04.04 0 0 0 0 .03v.01l.24.25a.12.12 0 0 0 .1.03.11.11 0 0 0 .07-.04l.14-.16c.03 0 .05 0 .05-.02 0-.11.02-.16.08-.15.06.1.16.17.3.19.2.18.38.15.53-.08l.05-.05c.01.13.01.19-.06.3-.08.1-.11.2-.1.32-.16-.06-.3-.08-.45-.07-.03 0-.05.01-.05.04l-.1.77-.08-.02c.02-.07.01-.12-.02-.16a.1.1 0 0 0-.07-.03l-.18-.01c-.03 0-.05-.02-.05-.06l.04-.54c0-.09-.04-.11-.14-.06-.03-.02-.1.02-.19.1a.56.56 0 0 0-.41-.2c0-.02.02-.04.03-.05l.23.02h.03l.02-.02a.07.07 0 0 0 .02-.06c-.03-.22-.1-.37-.24-.43.08 0 .16-.03.25-.06.3-.12.3-.52.26-.78 0-.07-.04-.1-.1-.1-.1.01-.15-.01-.14-.07.5.07.7.44.62 1.11Z" fill="#43639C"/><path d="m10.46 10.42.11-.2a.06.06 0 0 1 .07-.05.6.6 0 0 1 .42.2.1.1 0 0 1 .03.06.57.57 0 0 1-.14.43.2.2 0 0 1-.25.04l-.24-.14a.06.06 0 0 1-.03-.05c-.02-.12-.01-.22.03-.29Z" fill="#694D56"/><path d="M7.97 10.3a.07.07 0 0 0-.09.05l-.09.38c0 .04.02.07.05.08h.01c.04.01.07 0 .08-.05l.1-.38a.07.07 0 0 0-.06-.08Z" fill="#180F26"/><path d="M8.13 10.38a.04.04 0 0 1 .02-.02.03.03 0 0 1 .03 0h.02c.05.02.1.05.12.1.03.05.04.11.02.17v.01a.23.23 0 0 1-.1.13.2.2 0 0 1-.16.02h-.03a.04.04 0 0 1-.02-.03v-.02l.1-.36Z" fill="#0E1244"/><path d="M6.52 10.44c.01.18-.05.34-.17.5l-.14.52a.1.1 0 0 1-.04.06.65.65 0 0 0-.23.24.06.06 0 0 1-.07.03.24.24 0 0 1-.11-.04.06.06 0 0 1-.03-.06l.02-.09c.12-.16.2-.3.21-.45 0-.03.02-.06.04-.08l.1-.1a.08.08 0 0 0 .03-.08c-.02-.15.03-.29.16-.41l.1-.09c.03-.03.05-.03.08-.03.02.01.04.04.05.08Z" fill="#1BEEF2"/><path d="M10.08 10.62c.06.07.06.12 0 .16-.05.04-.1.02-.16-.04-.03-.04-.04-.08-.02-.11 0-.03.03-.04.05-.03l.13.02ZM12.44 11.3c-.15.23-.32.26-.52.08a.4.4 0 0 1 .05-.23c.04-.06.1-.1.18-.11.16-.02.26.07.29.26ZM10.66 11.58c-.05-.2-.03-.36.06-.49.13.06.21.2.24.43a.07.07 0 0 1-.02.06.07.07 0 0 1-.05.02l-.23-.02Z" fill="#2ED2E1"/><path d="M11.6 11.19c-.05-.02-.08.04-.07.15 0 .01-.02.02-.05.02l-.14.16a.11.11 0 0 1-.17 0l-.23-.24-.01-.01a.04.04 0 0 1 0-.05c.17-.17.27-.29.36-.69.04-.16.1-.16.16-.01.07.17.13.4.16.67Z" fill="#0E1244"/><path d="M13.46 11.9a.84.84 0 0 1-.5.2l.18-.21a.13.13 0 0 1 .07-.05h.09c.01 0 .02 0 .03-.02a.14.14 0 0 1 .11-.08c.04 0 .05.01.05.05 0 .03 0 .07-.03.1Z" fill="#5D52B1"/><path d="M5.58 12.08c.02.24.07.46.16.63l.04.36-.78.79-.97.03c-.03 0-.04-.03-.02-.07.82-.82 1.34-1.63 1.57-1.74Z" fill="#74A4C3"/><path d="M6.68 12.76c0-.03-.02-.05-.05-.07-.04-.02-.06 0-.07.05l-.03.6v.02a.05.05 0 0 1-.05.02h-.02c-.16-.1-.36-.15-.6-.15-.03 0-.04.02-.01.05l.22.28a.1.1 0 0 0 .07.04h.09c.03 0 .05.02.04.06v.03c0 .04-.02.06-.06.06-.1.02-.18.06-.22.13-.18 0-.36.02-.55.04-.1.01-.24 0-.44-.06l.78-.79.39-.47c.05.02.1.02.13 0a.06.06 0 0 0 .02-.07l-.03-.2c0-.03.01-.04.03-.05h.03c.21.4.72.3.82-.12a.5.5 0 0 1-.02.2.33.33 0 0 1-.1.14c-.12.1-.24.18-.37.26Z" fill="#451057"/><path d="m6.17 12.6-.39.47-.04-.36c.16-.04.1-.2.09-.3l.01-.06a.1.1 0 0 1 .05-.04l.1-.03c.06-.02.09 0 .1.05l.08.27Z" fill="#43639C"/><path d="M8.27 12.76c-.05.1-.04.16.03.18.02.01.03.03.01.05l-.04.06c-.06.07-.11.06-.14-.03a3.62 3.62 0 0 1-.05-.22c0-.02 0-.05.02-.07.09-.1.14-.1.17.03Z" fill="#A2E3E4"/><path d="M8.56 12.7c-.44.04.11.51 0 0 .11.03.25.02.4-.03.04 0 .07.01.08.04h-.11a.04.04 0 0 0-.03.03.04.04 0 0 0 .02.04l.02.02a.05.05 0 0 1 .03.03.05.05 0 0 1-.02.05c-.09.07-.1.12-.05.17h-.63l.04-.06c.02-.02.01-.04-.01-.05-.07-.02-.08-.08-.03-.18.14-.1.23-.12.29-.05Z" fill="#5BADCC"/><path d="M9.04 12.7c.08.02.16.02.24 0a.1.1 0 0 1 .12.03.05.05 0 0 1 0 .07c-.06.08-.08.13-.06.16.08.1.06.14-.07.1a.4.4 0 0 0-.14-.02c-.03 0-.05 0-.07.02-.04.03-.08.03-.12 0H8.9c-.05-.06-.04-.11.05-.18a.05.05 0 0 0 0-.09h-.03l-.01-.02a.04.04 0 0 1 0-.05h.02a.24.24 0 0 1 .11-.02ZM10.15 12.85c.04.06.06.11.06.15 0 .03-.02.05-.05.04h-.21l-.03-.06c.02-.1.06-.18.12-.24a.05.05 0 0 1 .06 0c.03.02.04.06.05.11ZM10.52 13.03c-.06.08-.13.1-.18.06a.07.07 0 0 1-.03-.07c0-.07-.01-.13-.03-.2 0-.03.02-.07.07-.1a.09.09 0 0 1 .09 0 .1.1 0 0 1 .05.06l.03.25ZM9.85 12.75v.18l-.01.03c0 .03-.02.04-.04.04l-.3.02c-.03 0-.05 0-.04-.04a.55.55 0 0 0 0-.2c0-.03.01-.05.05-.06.03 0 .07.01.1.06.02.02.04.02.06 0 .07-.05.13-.06.18-.03Z" fill="#94D1D6"/><path d="M12.44 12.73s.06.83.1 1.16c-.97.06-1.7.11-2.67-.01a2 2 0 0 0 .03-.74l.05-.1h.21c.03 0 .04 0 .05-.04 0-.04-.02-.09-.06-.15.05 0 .1 0 .13-.03.02.07.03.13.03.2 0 .03 0 .05.03.07.05.04.12.02.18-.06 0 .04.03.06.08.06a.06.06 0 0 0 .06-.06l.02-.2c0-.03.01-.03.04-.02.1.07.14.18.11.33l-.01.03h-.03l-.18.02c-.03 0-.03.02-.01.04l.02.02h.03a1.7 1.7 0 0 1 .82-.09.04.04 0 0 0 .03-.02v-.02l.01-.18a.05.05 0 0 1 .06-.04c.13.04.26.1.38.21a.05.05 0 0 0 .06 0l.43-.38Z" fill="#721B78"/><path d="M9.25 13.2a.8.8 0 0 0-.31-.08l-.1.76h1.03a2 2 0 0 0 .03-.74l-.65.06Z" fill="#8A9DBF"/><path d="M6.76 13.28c.03-.15 0-.32-.08-.52 0-.03-.02-.05-.05-.07-.04-.02-.06 0-.07.05l-.03.6a.05.05 0 0 1-.03.04.04.04 0 0 1-.04 0c-.16-.1-.36-.15-.6-.15-.03 0-.04.02-.01.05l.22.28a.1.1 0 0 0 .07.04h.09c.03 0 .05.02.04.06v.03c0 .04-.02.06-.06.06-.1.02-.18.06-.22.13l1.25.01.04-.01c.04-.03.03-.05 0-.07a.72.72 0 0 0-.22-.04c-.05 0-.07-.03-.08-.07v-.04c0-.03.02-.05.05-.05.13 0 .22-.06.28-.16l.11-.16c.02-.03.02-.04-.02-.04-.02 0-.05.01-.08.04a.57.57 0 0 0-.45.07.07.07 0 0 1-.1-.04v-.04Z" fill="#94D1D6"/><defs><linearGradient id="a" x1="9" y1="0" x2="9" y2="18" gradientUnits="userSpaceOnUse"><stop stop-color="#064B85"/><stop offset="1" stop-color="#F69D99"/></linearGradient></defs></svg>