<!-- by TradingView --><svg width="18" height="18" viewBox="0 0 18 18" xmlns="http://www.w3.org/2000/svg"><path fill="#0799EF" d="M0 0h18v18H0z"/><path d="M12.17 5.54a5.34 5.34 0 0 1 1.48 6.04 5.4 5.4 0 0 1-.55 1.11c-.26.36-.43.6-.53.7a8.12 8.12 0 0 1-.71.62 5.05 5.05 0 0 1-2.34.96 4.79 4.79 0 0 1-4.62-2.19 5.54 5.54 0 0 1 1.5-7.62 3.61 3.61 0 0 1 .76-1.2 4.73 4.73 0 0 1 1.2-.75l.48-.14a2.73 2.73 0 0 1 1.56.08c.29.09.54.2.77.37.27.19.46.49.6.82.15.35.26.72.35 1.13.01.03.02.05.05.07Z" fill="#010102"/><path d="M10.1 3.28c-.02 0-.03.02-.02.03a.03.03 0 0 1 0 .03.03.03 0 0 1-.02.02c-.36.08-.64.28-.84.6a.52.52 0 0 0-.09.33c.02.12.15.1.22.05.16-.1.34-.18.52-.22.46-.1.94.07 1.3.39.14.12.26.27.36.43l.19.32a.6.6 0 0 0 .11.16c.05.04.11.08.17.1l.08.47a.15.15 0 0 0-.07.1.6.6 0 0 0-.02.11c0 .04 0 .08-.02.12-.08.24-.13.43-.15.56-.01.13-.02.3-.01.5 0 .04 0 .08-.02.12v.06a.1.1 0 0 0 .06.04l-.02.13c-.04.18-.03.38-.06.53-.06.29-.2.56-.34.83l-.13.32-.12.32a.67.67 0 0 1-.46-.04l-.98-.43c-.2-.09-.4-.2-.6-.33a1.77 1.77 0 0 1-.39-.31 6.1 6.1 0 0 1-.79-1.2c-.03-.04-.07-.06-.12-.06a.5.5 0 0 0-.02-.05c-.03-.06-.06-.05-.07.02a1.3 1.3 0 0 0 0 .42c.07.4.2.81.44 1.11.13.18.3.32.52.44l.4.2c0 .04.02.09.06.12.33.3.62.61.86.93l-.03.35-.01.02-.18.09a.75.75 0 0 0-.4.53l-.01.04a.1.1 0 0 1-.04 0c-.03-.07-.09-.08-.15-.05a.06.06 0 0 1-.07 0 .81.81 0 0 0-.43-.22.46.46 0 0 1-.23-.11 2.72 2.72 0 0 1-.47-.53c-.27-.4-.5-.84-.67-1.3a15.34 15.34 0 0 1-.82-2.95l-.04-.32-.06-.31c.07-.4.2-.8.41-1.14a3.12 3.12 0 0 1 1.51-1.23c.53-.24 1.2-.26 1.76-.14Z" fill="#C1C1C1"/><path d="M10.1 3.28c.33.06.63.18.92.35.13.08.24.18.32.3a3.71 3.71 0 0 1 .66 1.6.56.56 0 0 1-.17-.11.6.6 0 0 1-.11-.16 6.7 6.7 0 0 0-.19-.32c-.1-.16-.22-.3-.36-.43-.36-.32-.84-.5-1.3-.4-.18.05-.36.12-.52.23-.07.05-.2.07-.22-.05a.52.52 0 0 1 .1-.33 1.29 1.29 0 0 1 .84-.6.03.03 0 0 0 .02-.03V3.3c-.02-.01-.01-.02.01-.03Z" fill="#DCDCDC"/><path d="m9.7 5.85-.01.07-.01.01a.02.02 0 0 1-.03 0V5.9c-.01-.08 0-.16.06-.24.05-.09.15-.23.24-.3.35-.25.85-.03.96.4v.01c-.03 0-.07-.07-.12-.13a.67.67 0 0 0-.33-.24c-.2-.06-.36 0-.52.12a.7.7 0 0 0-.23.32Z" fill="#010102"/><path d="m4.66 12.03.2-.15.2-.14c.33-.2.58-.37.77-.5.26-.19.43-.4.62-.68a.61.61 0 0 0 .1-.44c0-.1-.03-.2-.06-.31-.05-.21-.12-.44-.2-.68a9.2 9.2 0 0 1-.3-2.75c0-.08.01-.2.04-.37l.05-.37.19-.15a5.72 5.72 0 0 0-.08 2.12 5.14 5.14 0 0 0 .39 1.68c.11.36.22.76.19 1.14 0 .03-.01.05-.03.07a4.73 4.73 0 0 0-.56.73l-.76.48a6.67 6.67 0 0 0-.68.47l-.08-.15Z" fill="#4793CA"/><path d="M11.76 5.65c-.09.01-.17.14-.23.22-.04.04-.05.03-.05-.02a.3.3 0 0 1 .08-.22c.08-.09.17-.12.28-.1.09.02.14.07.14.17v.01a.02.02 0 0 1-.02 0c-.07-.03-.1-.08-.2-.06Z" fill="#010102"/><path d="M6.08 5.64a5 5 0 0 1-.05.37l-.05.37a7.2 7.2 0 0 0 .3 2.75 10.32 10.32 0 0 1 .27 1 .61.61 0 0 1-.1.43c-.19.27-.36.5-.62.68a13.65 13.65 0 0 1-.97.64l-.2.15a5.38 5.38 0 0 1 1.42-6.4Z" fill="#114169"/><path d="M9.65 7.59c.02.07.07.18.05.3 0 .1-.04.1-.1 0-.03-.05-.06-.14-.12-.21a1.53 1.53 0 0 1-.3-.8l-.04-.58a2.83 2.83 0 0 0-.09-.5l.01-.03a.04.04 0 0 1 .05 0l.03.04a2.26 2.26 0 0 1 .36.76 4 4 0 0 1 .04.35c.03.25.06.48.11.67ZM9.36 11.59l-.16.07a.03.03 0 0 1-.04 0 .78.78 0 0 0-.52-.26 9.38 9.38 0 0 1-.47-.05 1.93 1.93 0 0 1-1.16-.7 8.2 8.2 0 0 0-.05-.59c-.05-.54-.33-1.15-.46-1.71-.04-.21-.1-.53-.14-.96a6.1 6.1 0 0 1 .06-1.6 80.31 80.31 0 0 0 .1.63 13.06 13.06 0 0 0 .5 2.07l.32.88c.18.46.4.9.67 1.3.14.2.3.37.47.53.06.05.13.1.23.11.15.03.31.1.43.21l.03.02h.04c.06-.04.12-.03.15.05Z" fill="#9F9F9F"/><path d="M12.47 6.1v.18a2.35 2.35 0 0 1-.12 1l-.18.72c-.03.11-.03.2-.05.3a1.2 1.2 0 0 1-.1.35l-.29.5a2.1 2.1 0 0 0-.2.49.98.98 0 0 1-.08.21.78.78 0 0 1-.4.37.9.9 0 0 1-.61.04c-.03-.01-.04 0-.04.03v.16l.01.03.35.23a12.05 12.05 0 0 0 .66.16 314 314 0 0 1 1.73.44.5.5 0 0 1 .32.29l-.1.23c0 .03-.02.03-.03 0-.03-.11-.06-.27-.2-.3L11 10.98c-.1-.03-.18-.04-.28-.05a.25.25 0 0 1-.11-.05l-.38-.27-.01-.01v-.02l.04-.52c0-.02.01-.02.02-.01l.18.06c.34.1.7 0 .85-.36l.18-.43c.07-.18.2-.38.27-.54.16-.33.18-.58.23-1 0-.1.04-.21.08-.35l.19-.7c.04-.2.05-.4.02-.57a7.4 7.4 0 0 0-.06-.3c-.01-.06 0-.07.04-.03.07.06.18.16.22.25Z" fill="#4793CA"/><path d="m10.2 6.04-.03-.06v-.03a.14.14 0 0 1 .07-.07c.06-.03.1 0 .12.06l.01.1v.03a.3.3 0 0 1-.33-.05c-.03-.03-.03-.03 0-.02l.12.06h.05v-.02ZM11.9 5.93a.23.23 0 0 0-.17.03.37.37 0 0 0-.08.05c-.04.03-.04.03-.02 0 .07-.1.16-.14.29-.1v.02h-.02ZM11.6 7.63c.04-.04.04-.1.02-.17a4.92 4.92 0 0 1-.21-.85l-.11-.66c.04.02.08.06.1.13.04.09.06.18.08.28a5.63 5.63 0 0 0 .2.97c.04.18.07.35-.12.43-.12.04-.24 0-.4-.02a.48.48 0 0 0-.23.01h-.03c-.09-.08-.1-.17-.01-.27a.6.6 0 0 1 .17-.14l.06-.03c.05.01.06.03 0 .06-.08.06-.21.15-.22.27a.03.03 0 0 0 .01.02h.03c.16-.08.31-.02.48.03.06.02.12 0 .18-.06Z" fill="#010102"/><path d="M11.9 6.1v.06l-.02.01a.63.63 0 0 1-.17 0c-.06 0-.06 0 0-.02l.03-.01v-.02a.1.1 0 0 0-.01-.03v-.03a.2.2 0 0 1 .01-.07l.04-.01.03-.02a.1.1 0 0 1 .06.02V6a.24.24 0 0 0-.03.03c-.03.04-.03.05.02.04.03 0 .04 0 .05.03Z" fill="#010102"/><path d="M12.08 6c.05.2.06.37.04.5-.04.18-.07.35-.12.52l-.16.58a.1.1 0 0 1-.05-.04.07.07 0 0 1 0-.06.35.35 0 0 0 .02-.12l.01-.5c.02-.13.07-.32.15-.56A.47.47 0 0 0 12 6.2a.6.6 0 0 1 .02-.12.15.15 0 0 1 .07-.09Z" fill="#DCDCDC"/><path d="M13.47 11.6a.5.5 0 0 0-.32-.29 314 314 0 0 0-1.73-.44 11.92 11.92 0 0 1-.66-.16l-.35-.23a.03.03 0 0 1-.01-.03v-.16c0-.03.01-.04.04-.03.2.06.4.04.6-.04.2-.08.3-.19.4-.37a.99.99 0 0 0 .09-.21c.06-.2.13-.36.2-.48l.28-.51c.05-.1.1-.23.11-.34.02-.1.02-.2.05-.31a78.53 78.53 0 0 1 .23-.91c.07-.28.1-.55.08-.81l-.01-.19c.04.03.08.05.1.08a5.39 5.39 0 0 1 .9 5.42Z" fill="#114169"/><path d="M11.18 9.73a.44.44 0 0 1-.28.25.69.69 0 0 1-.51-.03c-.2-.08-.32-.13-.38-.17-.16-.09-.31-.19-.47-.26-.2-.1-.4-.19-.63-.28A1.61 1.61 0 0 1 7.94 8a4.8 4.8 0 0 1-.1-.64c.05 0 .09.02.12.06l.1.16c.2.38.43.72.7 1.04a4.73 4.73 0 0 0 1 .65l.96.42c.16.07.3.08.46.04Z" fill="#9F9F9F"/><path d="M10.78 8.23h.13c.07-.01.15.03.23.06h.03a.93.93 0 0 0 .1-.04c.08-.03.16-.01.22.01.04.02.04.03 0 .04h-.1a.85.85 0 0 0-.18.04c-.03.01-.08 0-.13-.03a.48.48 0 0 0-.31-.06v-.02ZM11.2 8.53c-.05.03-.11-.02-.2-.05a578.38 578.38 0 0 0-.43-.09.3.3 0 0 1-.15-.08.02.02 0 0 1 0-.02.02.02 0 0 1 .01-.02h.06l.44.08c.04 0 .1.03.2.07h.04a.2.2 0 0 0 .05 0 .38.38 0 0 1 .18-.03c.04 0 .04.01 0 .03l-.2.1Z" fill="#010102"/><path d="m9.12 9.5.97.48.02.02v.02l-.08.53a6.7 6.7 0 0 0-.86-.93c-.04-.03-.06-.08-.05-.12Z" fill="#9F9F9F"/><path d="m7.3 11.17.27.41c.1.16.25.34.44.55l.59.64-.03.24c0 .01 0 .02-.02 0a13.12 13.12 0 0 1-1.75-2.14l.02-.15c0-.03 0-.03.02-.01.14.17.29.33.46.46Z" fill="#BD9D72"/><path d="M11.36 12c-.02 0-.03-.02-.04-.06l-.02-.02a17.14 17.14 0 0 0-1.05-.9c-.02-.02-.04-.04-.04-.08v-.01a.02.02 0 0 1 .03-.01c.2.12.4.27.6.44a54.6 54.6 0 0 0 .6.52v.03l-.08.1Z" fill="#30DCF8"/><path d="m7.01 11.5-.02.13v.22c.03.22.07.4.12.57.05.17.12.3.2.4.1.14.21.24.35.3.11.06.21.12.3.19a21.15 21.15 0 0 0-.98-.13.14.14 0 0 1-.09-.07 15.58 15.58 0 0 1-.58-1.6.2.2 0 0 1 .03-.16 162.79 162.79 0 0 0 .28-.42c.02.06.04.11.08.16l.31.41Z" fill="#07405C"/><path d="m11.36 12-.18.29a.16.16 0 0 0-.01.14c0 .03.02.04.05.05h.1v.04h.02l.4.01.05.02.03.04a7.73 7.73 0 0 1 .23 1.05 4.74 4.74 0 0 1-.77.54V14a8.14 8.14 0 0 0-.76-2.46 18.1 18.1 0 0 1-.27-.54 17.22 17.22 0 0 1 1.11 1Z" fill="#0799EF"/><path d="M10.35 12.2a1.8 1.8 0 0 0-.76-.62v-.01c.03-.15.1-.26.22-.34.08-.06.16-.1.26-.13h.03l.16.32a16.51 16.51 0 0 0 .32.78l.02.33c0 .06 0 .07-.03.01a2.78 2.78 0 0 0-.22-.35Z" fill="#FEFCE4"/><path d="M13.21 12.17a.64.64 0 0 0-.1-.11c-.13-.11-.26-.19-.37-.23a29.44 29.44 0 0 0-1.67-.52.48.48 0 0 1-.18-.14c-.02-.02-.01-.03.01-.02l2.16.53a.1.1 0 0 1 .05.03 7.27 7.27 0 0 1 .13.34c0 .04 0 .08-.03.12Z" fill="#30DCF8"/><path d="M7.3 11.17c.29.2.6.32.93.36l.45.06c.13.02.25.09.35.2a.02.02 0 0 1 0 .01c-.24.28-.35.59-.43.97l-.6-.64a4.3 4.3 0 0 1-.7-.96Z" fill="#FEFCE4"/><path d="M13.21 12.17a5.08 5.08 0 0 1-.9 1.2l-.26-1.06c-.02-.1-.05-.19-.17-.16l-.42.1c-.04 0-.05 0-.02-.04l.19-.28c.06-.1-.12-.24-.18-.29-.12-.1-.25-.2-.38-.34a29.58 29.58 0 0 1 1.67.53c.11.04.24.12.37.23.03.01.06.05.1.11Z" fill="#0799EF"/><path d="M6.17 11.64c-.16.14-.3.29-.45.44a.5.5 0 0 0-.14.39c.03.44.34.71.7.96.16.11.34.17.54.18.04 0 .05-.01.03-.05v-.01a2.03 2.03 0 0 0-.4-.28.03.03 0 0 1 0-.05l.23-.15a1 1 0 0 1 .05.09.3.3 0 0 0 .26.2l.63.08c.03 0 .03.02 0 .03l-.47.3a.08.08 0 0 0-.03.06v.06a.3.3 0 0 0 .12.1 125.59 125.59 0 0 1 1.17.82 4.44 4.44 0 0 1-1.47-.43 4.89 4.89 0 0 1-2.09-2l.02-.02.38-.29c.1-.08.23-.17.4-.27a11.27 11.27 0 0 0 .49-.3l.03.14Z" fill="#07405C"/><path d="M7.01 11.5a12.9 12.9 0 0 0 1.97 2.17l.11.11.12.12a12.54 12.54 0 0 0 .71.83.1.1 0 0 1-.06 0 1.23 1.23 0 0 0-.1-.13l-.12-.11c-.3-.35-.53-.62-.8-.87l-.4-.37A10.32 10.32 0 0 1 7 11.63c0-.06 0-.1.02-.13Z" fill="#30DCF8"/><path d="M9.86 14.73a3.71 3.71 0 0 1-.82.1 8.79 8.79 0 0 0-.27-.27 50.8 50.8 0 0 0-1.07-.85v-.01l.04-.05c.11-.06.2-.13.25-.2.05-.07.04-.11-.04-.14a1.37 1.37 0 0 0-.3-.19.96.96 0 0 1-.35-.3c-.07-.1-.14-.23-.2-.4a2.95 2.95 0 0 1-.1-.79l.58.73a10.32 10.32 0 0 0 1.26 1.26c.27.25.5.52.8.87l.11.11.11.13ZM6.17 11.64c.14.5.31.97.51 1.43l-.22.15-.01.01a.03.03 0 0 0 0 .04h.01a2.03 2.03 0 0 1 .4.29c.01.04 0 .06-.04.05-.2 0-.38-.07-.54-.18-.36-.25-.67-.52-.7-.96a.5.5 0 0 1 .14-.4l.45-.43Z" fill="#0799EF"/><path d="M9.97 12.71c0-.22 0-.38-.02-.47a.38.38 0 0 0-.22-.27l-.38-.18c.08-.04.14-.05.2-.03.18.07.35.2.53.39.01 0 .02.01.01.03-.02.13-.04.27-.03.43 0 .06-.03.1-.1.1Z" fill="#FEFCE4"/><path d="m9.35 11.8.38.17c.11.05.19.14.22.27.02.09.03.25.02.47l-.27.1-.64-.75a.58.58 0 0 1 .29-.27Z" fill="#FB667A"/><path d="m9.7 12.8-.24.02c-.03 0-.05 0-.07-.02l-.36-.36a.18.18 0 0 0-.12-.05H8.9a.02.02 0 0 1 0-.02l.16-.31.64.74Z" fill="#A94165"/><path d="m10.94 13.22-.01.1-.01.09c-.04.13-.05.27-.04.42l-.66-1.05-.01-.03.03-.36c0-.03.02-.03.03 0a27.92 27.92 0 0 1 .35.56h.03c.05 0 .08-.03.1-.09l.01-.17c0-.04.01-.05.03 0 .06.16.1.34.15.53Z" fill="#FEFCE4"/><path d="M12.05 13.64a.79.79 0 0 1-.04-.17 7.77 7.77 0 0 0-.22-.92.08.08 0 0 0-.05-.02h-.4l-.01-.01-.01-.01v-.02a1.94 1.94 0 0 0 .5-.1.03.03 0 0 1 .03 0v.02l.12.42a6.25 6.25 0 0 1 .13.77.33.33 0 0 1-.05.04Z" fill="#30DCF8"/><path d="M9.08 12.74v.06l.01.05c0 .17.02.31.1.45.11.22.28.42.5.6l.12.39c0 .03 0 .04-.02 0l-.45-.5c-.2-.23-.4-.41-.63-.62a.05.05 0 0 1-.01-.05l.14-.6c0-.02 0-.02.02 0l.22.22Z" fill="#BD9D72"/><path d="m9.08 12.74.31.28c.02.01.03.03.03.06l.02.06c.1.24.18.49.25.76a2.06 2.06 0 0 1-.5-.6.83.83 0 0 1-.1-.45v-.05l-.01-.06ZM10.93 14.39a33.02 33.02 0 0 1-.86-1.3 3.96 3.96 0 0 0-.1-.18.13.13 0 0 1 .08-.04l.02.01c.12.22.28.44.4.63a8.99 8.99 0 0 0 .54.83.2.2 0 0 1-.08.05Z" fill="#FEFCE4"/><path d="M9.98 12.9a3.93 3.93 0 0 1 .18.36 33.02 33.02 0 0 0 .77 1.13l-.6.23c-.21-.55-.4-1.1-.55-1.65l.2-.06Z" fill="#FB667A"/><path d="M9.78 12.97c.16.55.34 1.1.55 1.65l-.21.06c-.01 0-.02 0-.02-.02L9.8 13.6a6.83 6.83 0 0 0-.18-.6l.15-.02Z" fill="#A94165"/><path d="M10.88 13.83c0-.15 0-.29.04-.42v-.1l.02-.09a10.18 10.18 0 0 1 .17.9c0 .03 0 .03-.02 0l-.21-.29Z" fill="#BD9D72"/><path d="m7.74 13.65-.03.05v.04l.03.02a50.8 50.8 0 0 1 1.17.93l.14.13a.42.42 0 0 1-.32-.04 14.77 14.77 0 0 1-1.07-.72 4.13 4.13 0 0 1-.3-.2.03.03 0 0 1 .02-.02c.12-.08.24-.15.36-.2Z" fill="#07405C"/></svg>