<!-- by TradingView --><svg width="18" height="18" viewBox="0 0 18 18" xmlns="http://www.w3.org/2000/svg"><path fill="url(#a)" d="M0 0h18v18H0z"/><path d="m6.58 4.13.6.2a.02.02 0 0 1 .01.04l-.62.18a.02.02 0 0 0-.01.01l-.2.6a.02.02 0 0 1-.03.01v-.01l-.19-.6a.02.02 0 0 0 0-.02l-.6-.2a.02.02 0 0 1-.02-.03h.01l.61-.18a.02.02 0 0 0 .01-.02l.2-.6a.02.02 0 0 1 .03 0h.01l.18.61a.02.02 0 0 0 .01.01Z" fill="#fff"/><path d="M10.75 4.22c.48.2.89.48 1.24.85l-.14.03c-.15-.17-.3-.3-.44-.36a3.5 3.5 0 0 0-5.1 1v.02l.02.01c-.05.01-.08.04-.1.08l-.47-.24-.72-.27h-.03a.05.05 0 0 0-.03.03v.03l-.1.44a4.67 4.67 0 0 0 .33 2.23l.37-.4c.01-.02.01-.03-.01-.03a.82.82 0 0 1-.25-.07.15.15 0 0 1-.07-.07.12.12 0 0 1 0-.1c0-.04.06-.07.15-.1h.22c0-.03.02-.04.04-.04l.08.05c.05.05.05.06-.02.06h-.25c-.15.02-.16.07-.04.15l.12.06c.07.02.14.01.2-.04.2-.15.43-.3.7-.44 0 .03.02.04.06.05l-.13.07c-.43.22-.79.53-1.07.9-.34.44-.43 1.03-.11 1.5.12.14.27.23.44.28.02 0 .03 0 .04-.02l.07-.32c.03-.23.1-.39.21-.46l.07.06c-.06.03-.1.06-.1.1l-.1.54a2 2 0 0 1-.22.65c0 .02 0 .03.02.04a.2.2 0 0 0 .1 0h.12c.1-.03.1 0 .04.07-.02.02-.04.06-.04.1v.1c-.05.5.12.9.5 1.2l.13.14c.01.01.02.03.01.04l-.01.01h-.1c-.2-.15-.36-.34-.48-.56 0-.01 0-.04-.03-.08l-.1-.2v-.66c0-.03-.02-.04-.04-.04h-.2a.1.1 0 0 1-.09-.1l.01-.04.21-.36a.04.04 0 0 0 0-.05l-.02-.01-.32-.17-.16-.15-.14-.22c-.1-.2-.13-.41-.1-.63v-.24c.25-.31.19-.56.05-.88l-.12-.55c0-.18-.04-.37-.1-.55v-.53c.02-.2.04-.37.08-.5.03-.12 0-.13-.08-.04-.24.28-.37.62-.37 1.03a.81.81 0 0 0-.02.49c-.02 0-.04 0-.07.02 0-.04 0-.05-.01-.04.03-.09.04-.23.03-.42 0-.07.01-.18.05-.34l.05-.15c.03-.07.02-.13-.03-.17.13-.25.3-.47.48-.67.1-.11.2-.1.32-.05a5.82 5.82 0 0 1 1.02.41l.02-.02c.28-.5.68-.9 1.2-1.24a3.8 3.8 0 0 1 3.33-.23Z" fill="#7B4521"/><path d="M11.4 4.74a5.8 5.8 0 0 0-2.37-.51c-.03 0-.05.02-.04.05l.08.48c-.1.09-.2.19-.28.3-.08.1-.14.2-.19.35l-.22.71-.3-.15c-.34-.2-.55-.5-.61-.89v-.1a.07.07 0 0 0-.05-.03.08.08 0 0 0-.06.02c-.35.27-.63.58-.86.9l-.17-.1h-.01v-.03c.25-.44.57-.79.96-1.06a3.5 3.5 0 0 1 4.13.06Z" fill="#FFF457"/><path d="m13.37 4.95.6.2c.04 0 .04.02 0 .03l-.7.2c-.03.03-.06.03-.08.01l-.27.78c-.09-.04-.12-.11-.1-.2 0-.02 0-.03-.02-.04h-.02l-.03-.11v-.05l-.15-.38a.15.15 0 0 0-.07-.03l-.4-.13a.52.52 0 0 0-.22-.05c-.05-.01-.07-.04-.06-.08l.14-.03.39-.11c.25-.08.37-.22.37-.44l.14-.42c.01-.02.03-.03.05-.02l.03.02a.05.05 0 0 1 .02.05c0 .21.09.39.14.58.01.06.04.1.08.15.05.05.1.07.16.07Z" fill="#fff"/><path d="M11.4 4.74c.15.07.3.2.45.36-.01.04 0 .07.06.08v.02a.2.2 0 0 1-.01.08.04.04 0 0 1-.04.03.04.04 0 0 1-.03-.01l-.3-.3a.06.06 0 0 0-.1.03l-.14.29-.58-.61c-.12-.1-.33-.06-.47-.03l-.3.02c-.2 0-.42.05-.63.05h-.24l-.08-.47c0-.03 0-.05.04-.05.8 0 1.58.16 2.38.5Z" fill="#FEE953"/><path d="M12.75 4.52c0 .22-.12.36-.37.44l.37-.44Z" fill="#C98B32"/><path d="M10.71 4.7v.02a.9.9 0 0 0-.51.01v.02c.17 0 .3 0 .43.05l-.47-.01a.1.1 0 0 0-.06-.03c-.23-.02-.45 0-.68.03-.11.02-.22.01-.31.02-.07.01-.1.05-.1.13a.06.06 0 0 1-.03.04.14.14 0 0 0-.06.1c-.01.1-.03.2-.06.27l-.2.68c-.03.1-.09.16-.07.28 0 .02.02.03.03.05l1.06 1.1-.03.01-1.1-1.13c-.03 0-.04-.04-.02-.1l.33-1.07c0-.04 0-.05-.04-.03a.17.17 0 0 0-.07.1L8.42 6.3c0 .03-.02.05-.04.07H8.3a.12.12 0 0 1 .02-.1l.02-.04c0-.04.02-.08.03-.1l.22-.72c.05-.14.1-.26.19-.36l.28-.3h.24c.2 0 .43-.05.63-.05.1 0 .2 0 .3-.02.14-.03.35-.07.47.03Z" fill="#96581D"/><path d="m10.71 4.7.58.62.45.5c.09.08.09.18 0 .28-.03 0-.04.02-.03.06 0 .03.03.05.08.04a.23.23 0 0 0-.08.1.1.1 0 0 0-.01.05c0 .07 0 .12-.03.16a.08.08 0 0 0-.02.06.3.3 0 0 1-.03.13 3.17 3.17 0 0 1-.2.68c0-.03-.01-.05-.05-.06.04-.08.01-.09-.08-.03a.11.11 0 0 1-.06.01c-.15 0-.27.07-.4.06l-.23.03-.23.05c-.14.01-.35.07-.49.04-.07-.01-.1 0-.1.05a.24.24 0 0 1-.1-.07l-1.06-1.1a.1.1 0 0 1-.03-.05c-.02-.12.04-.19.06-.28.1-.37.18-.6.21-.68.03-.07.05-.16.06-.28 0-.03.03-.06.06-.09A.06.06 0 0 0 9 4.94c0-.08.04-.12.1-.13.1 0 .21 0 .32-.02.23-.04.45-.05.68-.03a.1.1 0 0 1 .06.03l-.08.03-.58.02a.3.3 0 0 1-.14.04.71.71 0 0 0-.24 0 .03.03 0 0 0-.02.03.03.03 0 0 0 .02.03h.03l-.4 1.31v.06l.39.4.59.62c.03.04.06.08.11.1.04.02.08.02.14.02l1.24-.2a.1.1 0 0 0 .09-.08l.31-1.2a.09.09 0 0 0-.02-.08l-.24-.27a3.84 3.84 0 0 0-.26-.28 4.12 4.12 0 0 1-.47-.54 1.14 1.14 0 0 0-.44-.05v-.02h.01a.9.9 0 0 1 .5 0h.01V4.7Z" fill="#B6A673"/><path d="M10.16 4.79h.47c.14.2.3.4.47.55l.26.28a5.08 5.08 0 0 0 .26.31v.05l-.31 1.19a.1.1 0 0 1-.09.07c-.41.08-.82.15-1.24.2-.06.01-.1 0-.14-.01a.27.27 0 0 1-.11-.1l.18-.29.09.07c.15.08.24.05.28-.09a3.8 3.8 0 0 0 .1-.35l.02-.02v-.02c0-.05.01-.07.06-.07h.38c.1 0 .17.03.26.06.02 0 .03.02.04.04l.04.05a.14.14 0 0 0 .1-.1v-.06a.12.12 0 0 0-.03-.06.28.28 0 0 1-.1-.16 3.8 3.8 0 0 0-.04-.17 1.33 1.33 0 0 0-.28-.42.08.08 0 0 0-.1 0 .13.13 0 0 1-.08.02c-.02 0-.04 0-.04-.03s.01-.07.04-.12c0-.02.02-.02.04-.02.24.04.44.28.6.47a.06.06 0 0 0 .06.01.06.06 0 0 0 .05-.04 7.32 7.32 0 0 0 0-.1c-.08-.2-.18-.35-.29-.44a4.02 4.02 0 0 0-.3-.26.51.51 0 0 0-.2-.27.12.12 0 0 0-.13 0l-.15.08a.1.1 0 0 1-.06 0c-.27-.03-.63.01-.83.21a.1.1 0 0 0 0 .14c.05.04.08.04.1.01a.05.05 0 0 1 .05-.02h.47l-.25.36a.56.56 0 0 0-.14.11.06.06 0 0 1-.04.02c-.19 0-.24.04-.18.1-.1.12-.12.25-.06.38l-.25.36-.38-.4a.05.05 0 0 1-.01-.06l.4-1.32.2-.05a.3.3 0 0 0 .15-.04c.2.03.4.03.58-.02l.08-.03ZM8.38 6.12a.33.33 0 0 0-.03.1l-.02.05a.12.12 0 0 0-.02.1l-.72.24h-.07L6.5 5.87a4.12 4.12 0 0 1 .89-.93.08.08 0 0 1 .06.01l.02.02v.1c.06.39.27.68.61.89l.3.15Z" fill="#FEDC46"/><path d="M10 7.11c.02-.03.08-.05.15-.06l.02-.02.1-.4c.01-.03 0-.04-.02-.04h-.13a.08.08 0 0 0-.08.06l-.02.07c0 .03-.02.03-.03 0-.01-.02-.02-.04-.04-.04h-.02a.05.05 0 0 0-.04-.02c-.1.04-.3.11-.25.23.01.02 0 .03-.02.04-.04 0-.07 0-.1-.03-.02-.02-.03-.05 0-.1l.03-.01c.15-.1.31-.18.5-.22.37-.08.74-.16 1.09-.01.1.04.12.02.06-.07a.55.55 0 0 0-.22-.17.9.9 0 0 0-.43-.08c-.04 0-.07 0-.07-.02 0-.03 0-.04.03-.03a.1.1 0 0 0 .09 0 .07.07 0 0 1 .05 0l.44.12.01-.03v-.02c-.05-.02-.07-.05-.07-.1l-.01-.03a7.93 7.93 0 0 0-.22-.34c-.05-.01-.1.01-.13.08-.02.02-.03.02-.05 0l-.02-.07c-.32-.17-.62-.14-.89.07-.02.01-.03.03-.02.04 0 .02.02.04.05.05-.02.04-.07.03-.13-.01-.05-.03-.1-.03-.16.01-.06-.05 0-.08.18-.09.01 0 .03 0 .04-.02a.56.56 0 0 1 .14-.11c.13-.07.26-.1.38-.1a.06.06 0 0 0 .07-.05l-.01-.15a.06.06 0 0 0-.04-.05.3.3 0 0 0-.15-.02h-.47c-.02 0-.04.02-.05.03-.02.03-.05.03-.1-.01a.1.1 0 0 1 0-.14c.2-.2.56-.24.83-.2a.1.1 0 0 0 .06-.01l.15-.08a.12.12 0 0 1 .13 0c.1.07.17.16.2.27l.04.05.26.2c.11.1.2.25.29.45v.05a3.12 3.12 0 0 1-.02.08.06.06 0 0 1-.06.01.06.06 0 0 1-.03-.01c-.16-.19-.36-.43-.6-.47-.02 0-.03 0-.04.02a.25.25 0 0 0-.04.12c0 .03.02.04.04.03.03 0 .05 0 .07-.03a.08.08 0 0 1 .11.01c.13.13.22.27.28.42l.05.17c.01.07.04.12.09.16a.12.12 0 0 1 .04.13l-.04.06a.14.14 0 0 1-.07.03l-.04-.05a.07.07 0 0 0-.04-.04c-.09-.03-.16-.07-.26-.07h-.38c-.05 0-.06.03-.05.08a.03.03 0 0 1-.01.02l-.02.02v.01l-.1.34c-.04.14-.13.17-.28.1Z" fill="#A5843B"/><path d="M10.76 5.3c-.06.06-.07.13-.01.22-.25.02-.42-.05-.5-.21.07-.07.09-.14.06-.21.06-.02.1-.05.15-.1a.1.1 0 0 1 .12 0c.05.02.08.06.1.1l.01.06.07.13Z" fill="#949496"/><path d="M11.9 5.2c.07.03.1.06.11.07a4.09 4.09 0 0 1 .52.97.02.02 0 0 1-.02 0l-.77-.14c.09-.1.09-.2 0-.29a6.99 6.99 0 0 1-.45-.5l.14-.28a.06.06 0 0 1 .05-.04.06.06 0 0 1 .06.02l.29.29a.04.04 0 0 0 .05 0l.02-.02a.2.2 0 0 0 0-.08Z" fill="#FEDC46"/><path d="M10.31 5.1c.03.07 0 .14-.05.2a2.08 2.08 0 0 0-.77.03c-.06 0-.07 0-.02-.04.22-.2.5-.21.84-.2Z" fill="#D9DAD4"/><path d="m8.56 6.34-.18.2-.01-.13v-.04a.16.16 0 0 0 .05-.07l.33-1.07a.17.17 0 0 1 .07-.09c.03-.02.05 0 .04.03l-.33 1.07c-.02.06 0 .1.03.1Z" fill="#E4721A"/><path d="M11.91 5.18c.09 0 .16.02.22.05l.22.35h.01a.03.03 0 0 0 .03 0c.03-.1.08-.17.14-.22.03 0 .05.01.07.03a.56.56 0 0 0-.13.48.05.05 0 0 0 .07.04l.02-.02c.04-.05.1-.1.2-.12l-.01.05a.47.47 0 0 0-.17.16l-.01.04.03.18c0 .02.02.04.03.05.05.04.1.06.17.06l.37.17a.2.2 0 0 1 0 .1c-.29-.14-.6-.24-.91-.3l-.47-.08c-.05 0-.08 0-.08-.04-.01-.04 0-.06.03-.06l.77.15h.01l.01-.01V6.2c-.13-.33-.3-.64-.52-.94a.48.48 0 0 0-.1-.07v-.02Z" fill="#3E250D"/><path d="M12.53 5.36a.41.41 0 0 0-.13.21.03.03 0 0 1-.02.02.03.03 0 0 1-.03-.01l-.22-.35.4.13Z" fill="#FEE953"/><path d="M10.76 5.3c.28.14.47.36.58.64v.04h-.06c-.12-.2-.3-.35-.53-.46-.06-.09-.05-.16.01-.23Z" fill="#D9DAD4"/><path d="M5.76 5.61a.43.43 0 0 1-.2.07l-.37-.17a.3.3 0 0 0-.21-.1v-.04s.01-.02.03-.02h.03l.72.26Z" fill="#FFF5D4"/><path d="m9.81 5.74.25-.37c.05 0 .1 0 .15.02l.04.05c.01.05.02.1 0 .15a.06.06 0 0 1-.06.05.92.92 0 0 0-.38.1ZM12.75 5.77a.37.37 0 0 0-.19.12.05.05 0 0 1-.05.02.05.05 0 0 1-.04-.04.56.56 0 0 1 .13-.48l.15.38Z" fill="#FEE953"/><path d="M13.27 5.39a6.05 6.05 0 0 1 .03 1.15l.17.12c.48.34.62.78.4 1.33l-.39.52a.07.07 0 0 0 0 .09l.24.32.23.28a.1.1 0 0 1 0 .14.1.1 0 0 1-.04.02l-.07.03c-.03.01-.03.03-.03.05l.14.4c.03.3.02.56-.02.74-.02.11-.08.26-.19.45l-.82 1.11c-.36.26-.76.45-1.19.57a14.66 14.66 0 0 1-3.56.62c-.44.04-.86-.03-1.31-.09-.05-.02-.04-.04.02-.08a.51.51 0 0 1 .17-.04c.23.11.44.15.63.12.26.01.5.03.73-.01l.29-.05c.33.01.6 0 .83-.05l.48-.1c.47-.06.86-.19 1.36-.3.1-.01.3-.08.6-.2.27-.1.52-.2.75-.34.18-.11.3-.3.42-.47.03-.06.02-.07-.04-.05l-.78.33c-1.03.3-2.06.5-3.09.59l-.97.07-.9-.12-.4-.1-.14-.08c-.04-.04-.05-.07-.03-.1 0-.01.02-.02.04 0 .13.05.25.1.35.12.52.13 1.08.17 1.66.13l.47-.04c.6-.07 1.18-.18 1.73-.32l1.19-.27c.35-.1.67-.25.96-.46a.07.07 0 0 0 .03-.04v-.03c0-.02 0-.02-.04-.01.19-.04.26-.2.36-.32l.22-.5.05-.2a1.2 1.2 0 0 0-.17-.96c-.08-.1-.1-.15-.07-.17.07.07.16.1.26.1a.04.04 0 0 0 .03-.05l-.01-.02-.24-.26-.33-.45a.28.28 0 0 0 .07-.1l.03.01h.02c.24-.21.4-.47.45-.79.08-.45-.29-.86-.68-1.04a.2.2 0 0 0 0-.11l.02-1.09c.02.02.05.02.08 0Z" fill="#7E3D1E"/><path d="M5.19 5.5c.32.2.6.4.85.62l.53.71c-.05.06-.07.11-.06.17-.07-.08-.15-.09-.25 0a.15.15 0 0 1-.06.03c-.02.01-.03 0-.04-.02a1 1 0 0 0-.47-.53.09.09 0 0 0-.12.07c-.03.13-.01.25.04.36.01.02 0 .03-.01.04l-.1.03a.1.1 0 0 0-.03.17l.15.14H5.4a.87.87 0 0 1-.33-.46c-.09-.3-.13-.58-.12-.85 0-.08-.02-.12-.07-.14l.1-.44a.3.3 0 0 1 .21.1Z" fill="#FCCD50"/><path d="m13.2 5.4-.03 1.08-.37-.17.02-.03c.1 0 .13-.04.1-.1l.27-.79Z" fill="#FEE953"/><path d="m5.56 5.68.61.41a4.45 4.45 0 0 1 .8.75l.45-.16v-.01c-.38-.3-.77-.58-1.19-.82.02-.04.05-.07.1-.08l.17.1 1.02.73a.07.07 0 0 0 .07.01l.72-.24h.07l-.01.04c-.02.06-.06.09-.1.09l-.67.18c-.38.11-.75.27-1.1.47-.03 0-.05-.02-.06-.05-.01-.07-.06-.1-.13-.07h-.04l-.01-.04c.1-.08.18-.07.25.01.07.04.17.01.3-.08.01-.01.02-.02 0-.04A4.82 4.82 0 0 0 5.19 5.5l.38.17Z" fill="#3E250D"/><path d="M4.75 6.13c-.05.2-.16.39-.31.58-.02.02-.03.02-.04 0a.17.17 0 0 1-.02-.1c0-.4.13-.74.37-1.02.08-.1.1-.08.07.04-.03.13-.05.3-.07.5Z" fill="#FEE953"/><path d="M6.24 5.85a10.9 10.9 0 0 1 1.18.83l-.44.16h-.03c-.3-.35-.56-.6-.78-.75l-.61-.41c.08-.01.15-.03.2-.07l.48.24ZM10.6 5.8c-.01.07-.03.1-.06.12h-.05c-.18-.16-.36-.18-.56-.05a.07.07 0 0 0-.03.05V6c0 .02 0 .03-.03.03a.23.23 0 0 1-.13-.06c-.03-.01-.05-.03-.05-.05 0-.01 0-.03.02-.04.27-.21.57-.24.9-.07Z" fill="#FEDC46"/><path d="m10.6 5.8.02.07c.02.02.03.02.05 0 .03-.07.08-.1.13-.08a7.8 7.8 0 0 1 .3.5v.02h-.01l-.44-.13h-.05a.1.1 0 0 1-.1.01c-.02 0-.03 0-.02.03 0 .02.03.03.07.02-.03.08-.07.13-.12.15a.58.58 0 0 1-.43-.05.08.08 0 0 0-.05 0 .6.6 0 0 0-.41.27l-.01.01H9.5a.04.04 0 0 0-.02.04c0 .06.01.1.06.13l-.04.02c-.06-.02-.09-.06-.08-.11a.55.55 0 0 0-.04-.35c-.06-.13-.04-.26.06-.39.05-.04.1-.04.16-.01.06.04.1.05.13.01.04.04.08.06.13.06.03 0 .04 0 .03-.03v-.07c0-.02.02-.04.04-.05.2-.13.38-.11.55.05h.05c.03-.01.05-.05.06-.12Z" fill="#FDBE26"/><path d="m12.75 5.82.03.11-.12.16c-.01.02 0 .04.02.04h.07l.05.01c.04.03.05.08.02.14 0 .01 0 .02-.02.03a.3.3 0 0 1-.17-.06.08.08 0 0 1-.03-.05l-.03-.18v-.04c.05-.07.1-.12.18-.16Z" fill="#FEEEB4"/><path d="M5.4 7.3c-.1.03-.15.06-.16.1a.12.12 0 0 0 0 .1l.08.07c.1.04.17.06.25.07.02 0 .02.01 0 .03l-.36.4a.02.02 0 0 1-.03 0 4.67 4.67 0 0 1-.3-2.23c.05.02.07.06.07.14 0 .27.03.55.12.85.05.19.17.35.33.47Z" fill="#C98B32"/><path d="M10.4 6.03c.07.04.07.14.01.2-.07.1-.17.1-.28.04-.1-.06-.13-.15-.1-.27a.07.07 0 0 1 .03-.04.34.34 0 0 1 .28-.02c.02 0 .03.02.03.03 0 .03.01.05.03.06Z" fill="#FFF5D4"/><path d="M12.92 6.17c.03.07 0 .1-.1.11.03-.06.02-.11-.02-.14a.09.09 0 0 0-.05-.01h-.07c-.03 0-.03-.02-.02-.04l.12-.16h.02l.02.04c-.02.09.01.16.1.2Z" fill="#A5843B"/><path d="M4.38 6c.05.05.06.1.03.18l-.05.15c-.04.16-.06.27-.05.34 0 .19 0 .33-.03.42l.01-.93c0-.04.03-.1.09-.15Z" fill="#696868"/><path d="M4.75 6.13v.53l-.4.45a.81.81 0 0 1 .03-.5c0 .05 0 .08.02.1.01.02.02.02.04 0 .15-.19.26-.39.31-.58Z" fill="#C98B32"/><path d="M6.04 6.12c.27.18.5.4.69.65a.2.2 0 0 0-.09.08.06.06 0 0 1-.04.03c-.04 0-.04-.02-.03-.05l-.53-.7Z" fill="#E4721A"/><path d="m4.3 6.16-.02.93v.04c.02.57.15 1.1.32 1.63.04.13 0 .23-.06.34-.17.33-.2.67-.07 1.03.03.1.08.18.15.25l.2.2-.47.16-.01-.01c-.13-.2-.2-.4-.2-.62 0-.29.07-.55.2-.79a.2.2 0 0 0 .01-.16l-.17-.48-.1-.49c-.13-.63-.1-1.25.08-1.86l.13-.17Z" fill="#186399"/><path d="m11.8 6.2.46.08-.23.53a.05.05 0 0 0 .02.06h.02c.38.05.73.18 1.06.4l-.3.46-.17-.3a.07.07 0 0 0-.06-.04l-1.17-.01a3.17 3.17 0 0 0 .2-.68.3.3 0 0 0 .02-.13c0-.02 0-.04.02-.06.03-.04.04-.1.03-.16V6.3a.23.23 0 0 1 .1-.1Z" fill="#FEE953"/><path d="M9.55 6.79a.13.13 0 0 1-.06-.13c0-.02 0-.03.02-.03h.02V6.6a.6.6 0 0 1 .42-.28l.05.01c.14.07.28.09.43.05.05-.02.1-.07.12-.15a.9.9 0 0 1 .43.08c.1.05.17.1.22.17.06.09.04.11-.06.07-.35-.15-.72-.07-1.1.01-.18.04-.34.11-.5.22Z" fill="#FEDC46"/><path d="M13.18 6.59c.38.18.75.6.67 1.04a1.27 1.27 0 0 1-.47.8l-.03-.01-.24-.29.08-.05c.02 0 .03-.02.04-.04.14-.3.1-.56-.1-.78a2.3 2.3 0 0 0-1.08-.4.05.05 0 0 1-.02-.03V6.8l.23-.53c.32.06.62.16.92.3Z" fill="#FFF457"/><path d="m8.56 6.34 1.1 1.13.15.14-.32.35-.21-.22-.95-1a.08.08 0 0 1-.02-.06c0-.06.02-.11.07-.14l.18-.2Z" fill="#FDBE26"/><path d="M9.4 6.35c.04.12.06.23.03.35 0 .05.02.09.08.1-.02.05-.01.08.01.1.03.02.06.03.1.03.02 0 .03-.02.02-.04-.04-.12.16-.2.25-.23a.04.04 0 0 1 .04.01l.02.01a.65.65 0 0 0-.04.36l-.18.29-.6-.62.26-.36Z" fill="#FEE953"/><path d="m8.37 6.41.01.13c-.05.03-.08.08-.07.14 0 .02 0 .04.02.06l.95 1-.05-.01h-.06l-.54-.55-.37-.4c-.05-.06-.05-.15 0-.28.05 0 .09-.03.1-.09ZM6.26 7v.02h.05a.17.17 0 0 0-.08.13c0 .02-.02.03-.04.03l-.04-.01c-.02-.01-.03-.03-.03-.05a1.51 1.51 0 0 1-.03-.14h-.01a.07.07 0 0 1-.04-.05c-.09-.15-.2-.28-.36-.38a.04.04 0 0 0-.05.01v.02c0 .18.06.34.17.46.02.02.02.03-.01.03l-.14-.03c-.13-.02-.15.02-.07.12l.08.1c-.02 0-.03 0-.04.03l-.15-.14a.1.1 0 0 1 .04-.17l.09-.03c.02 0 .02-.02.01-.04a.57.57 0 0 1-.04-.36.09.09 0 0 1 .12-.07 1 1 0 0 1 .47.53c.01.02.02.03.04.02.02 0 .04-.02.06-.04Z" fill="#96581D"/><path d="M8.26 6.5c-.05.13-.05.22 0 .28l.37.4c-.52.13-1.02.3-1.48.53.17-.32.4-.68.45-1.03l.66-.18Z" fill="#FEE953"/><path d="M6.31 7.03c.07-.02.12 0 .13.07-.26.14-.5.29-.7.44a.19.19 0 0 1-.19.04 1.03 1.03 0 0 1-.12-.06c-.12-.08-.1-.13.04-.15h.25c.07 0 .07-.01.02-.06l-.08-.05-.08-.1c-.08-.1-.06-.14.07-.12l.14.03c.03 0 .03 0 .01-.03a.73.73 0 0 1-.17-.46.04.04 0 0 1 .03-.04h.02c.15.1.27.24.35.4l.04.03.02.01V7l.03.13c0 .02.01.04.03.05h.04c.02 0 .03 0 .04-.02 0-.05.03-.1.08-.12Z" fill="#FEEEB4"/><path d="M10 7.11c0-.02-.04-.04-.1-.07a.65.65 0 0 1 .05-.36c.02 0 .03.02.04.04.01.03.03.03.03 0l.02-.07c0-.02.02-.04.03-.05a.08.08 0 0 1 .05-.01h.13c.02 0 .03.01.03.04l-.1.4-.03.02c-.07 0-.13.03-.16.06Z" fill="#C98B32"/><path d="M4.85 7.21V7.2a.03.03 0 0 0-.06-.02l-.21.22a.07.07 0 0 0-.03.07l.1.59a.04.04 0 0 0 .07.02l.25-.31c.14.32.2.57-.05.88l-.37.55-.01-.1c.06-.1.1-.2.06-.33a5.85 5.85 0 0 1-.31-1.63c.03-.02.05-.03.07-.02l.38-.45c.07.18.1.37.11.55Z" fill="#AC3209"/><path d="M7.6 6.68c-.05.35-.28.71-.45 1.03-.4.17-.76.4-1.12.71-.38.33-.47.7-.28 1.14l-.07.32c0 .02-.02.03-.04.02a.89.89 0 0 1-.44-.28c.1-.22.2-.43.32-.64l.73-1.4c.06-.12.1-.24.13-.36l.13-.07c.34-.2.71-.36 1.1-.47Z" fill="#FFF457"/><path d="M6.73 6.77a.4.4 0 0 1 .09.1l-.01.05c-.13.1-.23.12-.3.08 0-.06 0-.11.06-.17-.01.03 0 .05.03.05.02 0 .03-.02.04-.03a.2.2 0 0 1 .09-.08Z" fill="#FDBE26"/><path d="m4.85 7.21.12.55-.25.3a.04.04 0 0 1-.06-.01l-.1-.6c-.01-.02 0-.04.02-.06l.21-.22a.03.03 0 0 1 .06.02v.02Z" fill="#D95012"/><path d="M9.17 7.73c-.89.2-1.73.53-2.53.96l.5-.98c.47-.23.97-.4 1.5-.53l.53.55Z" fill="#FEDC46"/><path d="M6.38 7.22c-.03.12-.07.24-.13.35-.24.47-.43.85-.73 1.4a9.8 9.8 0 0 0-.32.65c-.32-.47-.23-1.06.1-1.5.3-.37.65-.68 1.08-.9Z" fill="#FEE953"/><path d="M13.13 7.26c.2.22.24.48.1.78 0 .02-.02.03-.04.04l-.08.05-.28-.4.3-.47Z" fill="#FEDC46"/><path d="M11.37 7.32c.04 0 .06.03.06.06l1.17.01a.07.07 0 0 1 .06.04l.17.3.28.4.24.29a.28.28 0 0 1-.07.1l-.7-1a.09.09 0 0 0-.06-.02 2.48 2.48 0 0 0-.53-.02.61.61 0 0 0-.33 0 .52.52 0 0 1-.15.02c-.12 0-.22-.03-.28.1l-.03.03c-.06.09-.12.14-.2.16l-1.53.24-.2-.2a.24.24 0 0 0-.04-.1h.05l.21.23a23.7 23.7 0 0 0 1.56-.26l.04-.04a.68.68 0 0 1 .15-.19c.04-.04.04-.06-.02-.05-.04 0-.07-.02-.12-.01-.43.08-.86.15-1.29.2l-.16-.14.03-.01c.03.03.06.06.1.07.05.03.13.03.23.02.35-.05.7-.1 1.05-.17.08-.02.2-.01.31-.06Z" fill="#392E18"/><path d="m9.5 7.96.31-.35c.43-.05.86-.12 1.29-.2h.12c.06 0 .06.02.02.06a.68.68 0 0 0-.15.19l-.04.04a23.7 23.7 0 0 1-1.56.27ZM12 7.48c-.02 0-.02.01-.03.03-.15-.02-.48.07-.39.3-.03-.14-.15-.21-.35-.21.06-.13.16-.1.28-.1.04 0 .1 0 .15-.02.1-.03.22-.03.33 0Z" fill="#E4721A"/><path d="m12.58 7.53-.01.06.01.05.22.32-.18.4a.07.07 0 0 0 .02.07l.21.2a.1.1 0 0 0-.05.03c-.12-.12-.26-.21-.43-.28l-.67-.4V7.9c.17.06.3.03.42-.1.04-.01.06-.05.04-.1-.02-.09-.08-.15-.19-.2 0-.02.01-.03.02-.03.18-.01.36 0 .53.02.02 0 .04 0 .06.03Z" fill="#F2BF1D"/><path d="M11.97 7.51c.1.05.17.11.2.2 0 .05 0 .09-.05.1l-.45.03-.02.01v.02c-.03 0-.05-.02-.07-.07-.09-.22.24-.31.39-.29Z" fill="#96581D"/><path d="m13.28 8.51.33.45c-.05-.01-.08.02-.1.08 0 .05.01.1.06.15-.03.02 0 .08.07.17-.05.03-.04.12.05.27-.22.12-.4.25-.54.4-.09.1-.07.12.05.1l.55-.14c-.02.16 0 .27.06.34l-.05.2a1.15 1.15 0 0 1-.69.09l-.01.01-.02.03c0 .01 0 .03.03.04.14.11.3.17.47.2.02 0 .02 0 .02.03l-.02.09c-.1.13-.17.28-.36.32l-.63.15a.12.12 0 0 0-.03-.03c.1-.16.25-.37.29-.56.03-.17.12-.4.04-.55-.12-.24-.38-.33-.62-.45.26 0 .47-.07.64-.2.1-.07.16-.2.14-.36 0-.02 0-.03.03-.02a.1.1 0 0 0 .08-.02.04.04 0 0 0 .02-.05 1.28 1.28 0 0 0-.26-.5l-.08-.1a.1.1 0 0 1 .05-.01c.15.1.3.22.43.35.04.03.08.05.12.04a.04.04 0 0 0 .03-.02.04.04 0 0 0 0-.04l-.63-1.01-.22-.32a.07.07 0 0 1-.01-.05v-.06l.71.98Z" fill="#FCCD50"/><path d="M11.23 7.6c.2 0 .32.07.35.2.02.05.04.07.07.07l.01.02a.94.94 0 0 1-.37-.23.08.08 0 0 0-.05-.03h-.04l.03-.03Z" fill="#F2BF1D"/><path d="M11.2 7.63h.04c.02 0 .04.01.05.03.1.1.22.18.37.23l.04.02v.07l-.12-.05a.09.09 0 0 0-.12.04l-.77 1.64a2.1 2.1 0 0 0-.66.25l-.65.38v-.2c-.02-.26-.11-.5-.29-.71h-.02l-.02-.05a.9.9 0 0 0-.75-.4.79.79 0 0 0-.45.29c-.2.25-.36.55-.44.9v.05l.04.03h.08l.1.18c.3.5 1.12.16 1.49-.02h.11c-.2.13-.41.25-.63.36-.28.15-.61.48-.6.82.02.1.04.2.09.27.09.13.22.27.41.41a9.9 9.9 0 0 1-1.5.04c.2-.15.32-.29.36-.4.04-.16 0-.19-.12-.09a.88.88 0 0 1-.53.17c-.02 0-.04 0-.04.03v.12l-.03-.13c0-.02-.01-.03-.03-.03H6.6c-.02 0-.03 0-.03.03l-.02.08c0-.05 0-.08-.03-.12a2.97 2.97 0 0 1-.2-.23c0-.03 0-.06.02-.08.13-.1.2-.18.25-.22.23-.23.47-.3.78-.27.02 0 .04 0 .05-.02l.01-.02c0-.03-.01-.04-.02-.05-.21-.13-.39-.19-.52-.17-.3.04-.59.06-.9.07a.5.5 0 0 1 .1-.4c.12-.17.24-.32.37-.47.34.04.62.06.81-.27l.16-.24c.04-.06.1-.13.19-.2.2-.18.37-.37.52-.6l.6-.36.74-.31A75 75 0 0 0 11 7.79c.08-.02.14-.07.2-.17Z" fill="#FEDC46"/><path d="m7.15 7.7-.51.99-.68.41c-.11.07-.18.23-.2.46-.2-.44-.1-.81.27-1.14.36-.3.73-.54 1.12-.71Z" fill="#FEE953"/><path d="M9.23 7.73c.03.04.04.07.04.1l-.2.05-.54.16a7.03 7.03 0 0 0-.38.13v.02c0 .02 0 .02.02.03l.44.03c-.12.12-.27.15-.45.1-.14-.04-.2-.13-.35-.07-.51.21-.95.42-1.3.62l-.48.26-.07-.06.68-.41a10.24 10.24 0 0 1 2.6-.96Z" fill="#2C1707"/><path d="M12.12 7.81c-.11.13-.25.16-.42.1l-.04-.02v-.04h.01l.45-.04Z" fill="#3E250D"/><path d="m9.27 7.82.2.21-.75.3a1 1 0 0 1 .33-.4c.02-.01.03-.03.01-.05l.21-.06Z" fill="#CF7027"/><path d="M9.06 7.88c.02.02.01.04-.01.05a1 1 0 0 0-.33.4l-.59.38A6.71 6.71 0 0 0 6.5 9.95c-.07.02-.1.05-.18.02-.1-.04-.26-.04-.26-.19l.45-.88c.36-.2.8-.41 1.3-.62.16-.06.22.03.35.07.19.05.34.02.46-.1a.22.22 0 0 0-.08-.21l.53-.16Z" fill="#BE4E02"/><path d="m11.7 7.98.67.4a.4.4 0 0 0-.26.07.2.2 0 0 1-.1.05c-.27.32-.38.7-.32 1.14l.03.13a2.3 2.3 0 0 0-1.03-.16l.77-1.64a.09.09 0 0 1 .12-.04l.12.05Z" fill="#FFF457"/><path d="m12.8 7.96.63 1V9a.04.04 0 0 1-.01.03l-.02.01c-.04 0-.08 0-.12-.04a5.86 5.86 0 0 0-.43-.35l-.2-.2a.07.07 0 0 1-.03-.09l.18-.4Z" fill="#F0980F"/><path d="M12.37 8.38c.17.07.31.16.43.28l.08.1-.07.05c-.06-.15-.32-.38-.44-.15-.02.04-.02.08.01.14.03.06.08.11.13.15-.1-.03-.18.04-.23.22-.04.12-.11.2-.15.33a.55.55 0 0 1-.16-.28.05.05 0 0 0-.03-.04l-.05-.02c.12-.12.24-.21.37-.27a.11.11 0 0 0 .05-.15.11.11 0 0 0-.03-.04l-.15-.1-.01-.03v-.02c0-.02.01-.05.03-.07v-.03h-.04a.4.4 0 0 1 .26-.07Z" fill="#5D4B23"/><path d="M12.1 8.45h.05v.03a.19.19 0 0 0-.03.07.04.04 0 0 0 .01.04l.15.1a.11.11 0 0 1 .02.16.11.11 0 0 1-.04.04c-.13.06-.25.15-.37.27a.7.7 0 0 0 .05.44c.06.12.15.2.28.22.13.02.26 0 .39-.09.29-.17.25-.49.15-.76.05-.02.07-.07.05-.16l.07-.06c.12.15.2.32.26.5v.03l-.02.02a.1.1 0 0 1-.08.02c-.02 0-.03 0-.03.02.02.16-.03.29-.14.37-.17.12-.38.18-.64.19l-.51-.13-.03-.13c.02-.4.13-.79.33-1.14a.2.2 0 0 0 .09-.05Z" fill="#392E18"/><path d="M12.02 8.5c-.2.35-.3.73-.33 1.14a1.4 1.4 0 0 1 .33-1.14Z" fill="#A5843B"/><path d="M12.81 8.81c.02.1 0 .14-.05.16a.24.24 0 0 1-.17.02l-.08-.04a.44.44 0 0 1-.13-.15c-.03-.06-.03-.1-.01-.14.12-.23.38 0 .44.15Z" fill="#fff"/><path d="m4.92 8.88-.03-.03a.03.03 0 0 0-.05.02l-.24.4c-.03.05-.07.16-.11.32-.04-.1-.02-.24.06-.4l.37-.55v.24Z" fill="#CF7027"/><path d="M8.13 8.7c-.15.23-.33.42-.52.6a1.2 1.2 0 0 0-.2.2l-.15.24c-.19.33-.47.31-.81.27a18.71 18.71 0 0 1 .53-.51c.34-.3.73-.56 1.15-.8Z" fill="#F2BF1D"/><path d="M4.92 8.88c-.03.22 0 .43.1.63a.9.9 0 0 1-.27.4.3.3 0 0 1-.22.07.97.97 0 0 1-.04-.39c.04-.16.08-.27.12-.32a3.23 3.23 0 0 0 .25-.42.03.03 0 0 1 .03 0l.03.03Z" fill="#FEDC46"/><path d="m8.3 8.87-.18.19a.04.04 0 0 0 0 .06c.12.08.21.14.28.17.07.03.07.07 0 .1l-.22.1c-.07.03-.09.07-.05.14.04.07.1.14.15.19.06.04.11.05.18.01.1-.06.18-.16.24-.3.05.03.11.04.19.02.15.6-.47.92-.92.52-.1-.16-.15-.34-.17-.53a.05.05 0 0 0-.08-.03.24.24 0 0 0-.06.16l-.02.15a.8.8 0 0 0-.03.15c-.01.07-.04.13-.08.17h-.08a.06.06 0 0 1-.04-.02v-.05c.08-.35.23-.65.44-.9a.79.79 0 0 1 .45-.3Z" fill="#140E09"/><path d="M9.05 9.28c-.05 0-.07.02-.07.06a.17.17 0 0 0-.05-.06.53.53 0 0 0-.32-.26h-.05a.17.17 0 0 0-.09.16c0 .16.08.28.23.35a.62.62 0 0 1-.24.3c-.07.04-.12.03-.18-.01a.73.73 0 0 1-.15-.2c-.04-.06-.02-.1.05-.13l.22-.1c.07-.03.07-.07 0-.1a1.73 1.73 0 0 1-.29-.18.04.04 0 0 1 .01-.05l.18-.19c.3 0 .55.14.75.4Z" fill="#362B22"/><path d="m6.5 8.9-.45.88-.06.14c-.02-.08-.07-.12-.17-.12.04-.18.08-.36.1-.55.01-.03.05-.06.1-.09l.48-.26Z" fill="#E4721A"/><path d="m12.51 8.95.08.04c.04.1.06.2.05.3 0 .07-.04.12-.09.16-.11.1-.29.16-.42.05.04-.12.11-.2.15-.33.05-.18.13-.25.23-.22Z" fill="#392E18"/><path d="M12.76 8.97c.1.27.14.59-.15.76a.54.54 0 0 1-.39.09.36.36 0 0 1-.28-.22.7.7 0 0 1-.05-.44l.05.02c.02 0 .03.02.03.04.03.11.08.2.16.28.13.11.3.05.43-.05.04-.04.07-.1.08-.16.01-.1 0-.2-.05-.3.06.01.12 0 .17-.02Z" fill="#FEE953"/><path d="m13.6 8.96.25.26a.04.04 0 0 1-.02.06.28.28 0 0 1-.26-.1c-.04-.04-.06-.09-.05-.14 0-.06.04-.09.09-.08Z" fill="#FFF5D4"/><path d="M8.93 9.28c0 .1-.01.19-.04.27a.22.22 0 0 1-.2-.02.35.35 0 0 1-.22-.35c0-.07.03-.12.09-.16a.06.06 0 0 1 .05 0c.14.04.25.13.32.26Z" fill="#fff"/><path d="m4.54 9.1.01.09c-.08.16-.1.3-.06.4-.01.15 0 .27.04.39l.09.28a.19.19 0 0 0 0 .12.64.64 0 0 1-.15-.25c-.13-.36-.1-.7.07-1.03Z" fill="#5D4B23"/><path d="m8.98 9.34.11.36-.02.38c0 .02 0 .04-.02.05-.29.32-.88.51-1.2.13a.77.77 0 0 1-.2-.6h.06c.02 0 .02.01.03.04.04.16.12.28.23.37.45.4 1.07.07.92-.52a.74.74 0 0 0 .04-.27c.02.01.04.03.05.06Z" fill="#FEDC46"/><path d="m9.05 9.28.02.05.3.7v.21a.26.26 0 0 1-.11.03c-.03-.02-.06-.03-.07-.02a.09.09 0 0 1-.1-.02.08.08 0 0 1 0-.1c.06-.15.06-.3 0-.43L9 9.34c0-.04.01-.06.06-.06Z" fill="#140E09"/><path d="m9.37 10.04-.3-.71h.03c.17.21.26.45.27.7Z" fill="#96581D"/><path d="M13.64 9.36c.2.3.25.62.17.97-.06-.07-.08-.18-.06-.34l-.06-.36c-.09-.15-.1-.24-.05-.27Z" fill="#FEEEB4"/><path d="M5.16 9.73c-.17.16-.32.34-.46.53-.02.02-.04.02-.07.01l-.01-.01-.09-.28a.3.3 0 0 0 .22-.08.9.9 0 0 0 .27-.4l.14.23Z" fill="#F2BF1D"/><path d="M10.69 9.61c.37-.02.71.03 1.03.16l.51.13c.24.12.5.21.62.45.08.15-.01.38-.04.55-.04.19-.18.4-.3.56l-1.3.3-1.7.28-1 .13a1.59 1.59 0 0 1-.42-.41.57.57 0 0 1-.08-.27c-.02-.34.31-.67.59-.82a6.55 6.55 0 0 0 .66-.4c.04 0 .08 0 .12-.03l.65-.38c.22-.13.44-.21.66-.25Z" fill="#FFF5D4"/><path d="m13.69 9.63.06.36-.55.13c-.12.03-.14 0-.05-.09.14-.15.32-.28.54-.4Z" fill="#F0980F"/><path d="M7.66 9.67c-.03.22.04.41.18.59.33.38.92.2 1.21-.13a.08.08 0 0 0 .02-.05l.02-.38c.06.13.06.28 0 .44a.08.08 0 0 0 .05.11h.05c.01 0 .04 0 .07.02a.09.09 0 0 0-.03.04h-.11c-.37.18-1.2.52-1.49.02a6.6 6.6 0 0 1-.1-.19c.04-.04.07-.1.08-.17l.03-.15.02-.15Z" fill="#3E250D"/><path d="m5.32 9.88-.47.52a.11.11 0 0 1-.14.03c-.06-.03-.08-.08-.08-.16.03.01.05 0 .07-.01.14-.2.3-.37.46-.53l.16.15Z" fill="#CF360E"/><path d="M6.05 9.78c0 .15.15.15.26.2.07.02.11 0 .18-.03a8.65 8.65 0 0 0-.4.53.5.5 0 0 0-.1.4c.05.24.14.48.27.72a.1.1 0 0 0 .06.04 3 3 0 0 0 .19.23c.04.04.04.07.03.12l-.04.17h-.02l.01-.02v-.04l-.13-.14c-.4-.3-.56-.7-.51-1.2v-.1c0-.04.02-.08.04-.1.07-.07.06-.1-.04-.07h-.13L6 9.91l.06-.14Z" fill="#D95012"/><path d="m6 9.92-.28.56a.2.2 0 0 1-.1 0c-.01 0-.02 0-.01-.03a2 2 0 0 0 .21-.65c.1 0 .15.04.17.12Z" fill="#F2BF1D"/><path d="m5.77 11.3-.4.46a.06.06 0 0 0-.01.06l.03.2c.05.06.07.1.07.14.1.24.25.44.47.6l-.11.02c-.3-.23-.52-.57-.55-.95a6.6 6.6 0 0 0-.02-.37 4.35 4.35 0 0 1 .04-.16.03.03 0 0 0-.03-.02.86.86 0 0 1-.3-.01.03.03 0 0 1-.02-.03l.19-.46c.01-.03 0-.06-.03-.07l-.28-.12-.2-.21a.19.19 0 0 1 0-.12l.01.01c0 .08.02.13.08.16a.12.12 0 0 0 .14-.03l.47-.52.32.17a.04.04 0 0 1 .03.04v.02l-.22.36a.09.09 0 0 0 .08.14h.2c.02 0 .04 0 .04.04v.65Z" fill="#A12306"/><path d="M11.04 9.91c0 .07-.04.12-.11.15-.2.08-.33.05-.42-.09.19.05.37.03.53-.06Z" fill="#E4721A"/><path d="M11.86 10.1c.08.01.14.05.17.1 0 .02 0 .03-.02.04h-.03c-.06-.02-.08-.07-.13-.08-.06-.02-.1.03-.16.02l-.03-.01c-.02-.02-.02-.03 0-.05.05-.04.11-.05.2-.03Z" fill="#5D4B23"/><path d="M9.48 10.55c-.14-.06-.19-.06-.3.05h-.03v-.03c.1-.12.22-.15.37-.09.03.02.03.03 0 .05v.02h-.04Z" fill="#140E09"/><path d="m13.76 10.53-.22.49.02-.1c0-.01 0-.02-.02-.03a.94.94 0 0 1-.47-.19l-.03-.04c0-.01 0-.02.02-.03a.04.04 0 0 1 .03-.01c.23.03.45 0 .67-.1Z" fill="#F0980F"/><path d="m4.82 10.59.28.12c.03.01.04.04.03.07l-.19.46a.03.03 0 0 0 .02.03c.09.02.19.03.3.01a.03.03 0 0 1 .04.03v.02l-.05.13a6.6 6.6 0 0 1 .01.36c.04.39.26.73.56.96l-.3.1c-.03 0-.03.01 0 .02l.39.14-.05.23c0 .02-.01.03-.04.04h-.05a.56.56 0 0 0-.2-.15A1.57 1.57 0 0 1 5 12.13a.99.99 0 0 1 .03-.45.02.02 0 0 0-.01-.02H5a.8.8 0 0 1-.32-.02.04.04 0 0 1-.03-.06l.11-.17.1-.25a.05.05 0 0 0-.04-.07.95.95 0 0 1-.48-.35l.47-.15Z" fill="#01299A"/><path d="M6.32 11.64a.1.1 0 0 1-.06-.04 2.64 2.64 0 0 1-.28-.72c.31 0 .6-.03.9-.07.13-.02.3.04.52.17 0 0 .02.02.02.05v.02a.05.05 0 0 1-.06.02.89.89 0 0 0-.78.27l-.25.22c-.02.02-.03.05-.01.08Z" fill="#F0980F"/><path d="m5.77 11.3.1.2c-.22.13-.38.3-.48.53l-.03-.21c0-.02 0-.04.02-.06l.39-.46Z" fill="#E4721A"/><path d="M13.18 11.34c.03-.01.05 0 .04.01v.03l-.03.04c-.3.2-.61.36-.96.46.08-.16.19-.3.32-.39l.63-.15Z" fill="#D95012"/><path d="M12.55 11.5c-.13.09-.24.22-.32.38l-1.19.27.16-.4 1.32-.29.03.03Z" fill="#E5A25D"/><path d="m5.87 11.5.03.1h-.05l-.03.05a.45.45 0 0 1-.08.19l-.28.32a.27.27 0 0 0-.07-.13c.1-.23.26-.4.48-.52Z" fill="#F2BF1D"/><path d="M5.9 11.6c.12.21.28.4.48.55h.1l.02.01-.12.3-.03.09c-.02.05-.07.1-.15.13l-.27.08a1.4 1.4 0 0 1-.47-.6l.28-.32a.45.45 0 0 0 .08-.2c0-.02.02-.03.03-.04a.07.07 0 0 1 .05 0Z" fill="#FFF457"/><path d="m11.97 12.53.35-.53.78-.33c.06-.02.07 0 .04.05-.11.17-.24.36-.42.47-.23.13-.48.25-.75.34Z" fill="#CF360E"/><path d="M7 12.2a.77.77 0 0 1-.25-.12c-.02-.01-.04 0-.06.02l-.03-.06.01-.12c0-.02.02-.03.04-.03.22 0 .4-.06.53-.17.12-.1.16-.07.12.08-.04.12-.15.26-.36.4Z" fill="#F0980F"/><path d="m11.2 11.75-.16.4c-.55.14-1.13.25-1.74.32l.22-.43 1.68-.29Z" fill="#FEE953"/><path d="m6.66 12.04.03.06c.01.1.04.19.08.27l.07.2c-.02.03 0 .06.06.08.12.05.23.1.34.13l.4.13.01.01a.01.01 0 0 1 0 .02l-.6.18a.51.51 0 0 0-.17.04c-.06.04-.07.06-.02.08l-.14.36-.16.36-.26-.8-.4-.12-.39-.14c-.02 0-.02-.01 0-.02l.3-.1.12-.02.27-.08c.08-.03.13-.08.15-.13a3.08 3.08 0 0 1 .15-.39l.04-.17.02-.08c0-.02.01-.03.03-.03h.02c.02 0 .03.01.03.03l.02.13Z" fill="#fff"/><path d="m12.32 12-.35.53c-.3.12-.5.19-.6.2-.5.11-.9.24-1.36.3l-.48.1c-.23.05-.5.06-.83.05l.53-.59c1.03-.1 2.06-.3 3.09-.6Z" fill="#AC3209"/><path d="m9.52 12.04-.22.43-.46.04-.4-.32c.02-.02.04-.02.06-.02l1.02-.13Z" fill="#E5A25D"/><path d="M7 12.2c.5.03.98.03 1.44-.01l.4.32c-.58.04-1.14 0-1.66-.13-.1-.03-.22-.07-.35-.13-.02 0-.03 0-.04.02-.02.02 0 .05.03.1h-.05a.72.72 0 0 1-.08-.27c.02-.02.04-.03.06-.02.1.07.18.11.25.13Z" fill="#CF7027"/><path d="M12.92 12.14c-.06.13-.14.24-.24.33-.14.13-.28.23-.43.3-.6.26-1.21.46-1.85.58-1 .22-2.02.34-3.05.36-.23-.01-.44-.05-.63-.11l.14-.36c.45.06.87.13 1.31.1l1.18-.13c.79-.1 1.58-.26 2.38-.5.43-.12.83-.31 1.2-.57Z" fill="#01299A"/><path d="m6.82 12.36.15.07-.13.15-.07-.21h.05Z" fill="#FEE953"/><path d="m7.36 12.54-.12.24a4.45 4.45 0 0 1-.34-.13c-.06-.02-.08-.05-.06-.07l.13-.15.4.1Z" fill="#D95012"/><path d="m8.26 12.66-.58.58c-.19.03-.4 0-.63-.12l.6-.18a.01.01 0 0 0 0-.02l-.4-.14.11-.24.9.12Z" fill="#AC3209"/><path d="m9.23 12.59-.53.6c-.1 0-.19.02-.29.04-.24.04-.47.02-.73.01l.58-.58.97-.07Z" fill="#CF360E"/><path d="m6.3 13.16.08.38-.6-.23h.04c.03 0 .04-.02.04-.04l.05-.23.4.12Z" fill="#014BC8"/><path d="M6.56 13.96c.01-.07.02-.06.02.01 0 .01 0 .02-.02.02h-.02l-.16-.45-.08-.38.26.8Z" fill="#35AEFF"/><defs><linearGradient id="a" x1="9" y1="0" x2="9" y2="18" gradientUnits="userSpaceOnUse"><stop stop-color="#35AEFF"/><stop offset="1" stop-color="#0241FF"/></linearGradient></defs></svg>