<!-- by TradingView --><svg width="18" height="18" viewBox="0 0 18 18" xmlns="http://www.w3.org/2000/svg"><path fill="#F0F3FA" d="M0 0h18v18H0z"/><path d="M8.85 2.66a5.86 5.86 0 0 1 3.64 1.15c.03.02.06.02.08 0 .3-.3.58-.44.85-.43.02 0 .03.01.04.03a.7.7 0 0 1 .07.2c.1.46.16.9.17 1.3 0 .06.02.12.06.16a6.09 6.09 0 0 1 1.19 4.55 6.27 6.27 0 0 1-2.27 4.08 5.81 5.81 0 0 1-6.22.73 6.19 6.19 0 0 1-3.44-6.1 6.4 6.4 0 0 1 1.42-3.5 6 6 0 0 1 3.14-2c.03 0 .05-.02.06-.03.37-.45.73-.71 1.08-.8.03 0 .06 0 .08.02.02.02.03.05.03.08-.03.17-.03.34-.02.52 0 .03.02.04.04.04Z" fill="#020102"/><path d="M8.71 2.95c-.18-.12-.37-.12-.56.02-.06-.02-.09 0-.1.06l-.02.22c-.13.08-.24.2-.36.35a5.94 5.94 0 0 0-.3.46.27.27 0 0 0-.02.25l-.37.07c-.02 0-.04 0-.05-.02a.06.06 0 0 1-.01-.05 2.96 2.96 0 0 1 .62-1.17l.17-.23c.25-.28.53-.52.85-.71.06-.05.1-.03.1.05l.05.7Z" fill="#2D2824"/><path d="M8.71 2.95c.07.38.18.75.34 1.1.02.04.02.08-.02.1a.48.48 0 0 1-.2.1l.16-.15v-.05a1.65 1.65 0 0 1-.4-.4l-.19-.37c-.08-.15-.16-.2-.24-.13l-.01-.18c.2-.14.38-.14.56-.02Z" fill="#6D5849"/><path d="M11.92 4.6a3.12 3.12 0 0 0-.69-.34l-.44-.15-.2-.03a.9.9 0 0 1-.31-.1c-.38-.22-.74-.28-1.09-.16-.05.02-.09 0-.1-.04-.13-.26-.2-.54-.24-.82 0-.05 0-.07.05-.07a5.7 5.7 0 0 1 3.4 1.07c.04.03.05.06.02.09l-.38.55h-.02Z" fill="#F5DDF3"/><path d="M8.82 4.25c-.21.05-.44.06-.67.03a.04.04 0 0 1-.04-.04L8.1 4c0-.02 0-.03.02-.03h.04a.3.3 0 0 0 .2.13c.02 0 .04 0 .05-.02a.05.05 0 0 0 .01-.05l-.04-.09a2.24 2.24 0 0 1-.2-.8c.07-.07.15-.02.23.13l.18.37a2 2 0 0 0 .4.4c.02.01.02.03.01.05-.04.05-.1.1-.17.15Z" fill="#979389"/><path d="M5.2 5.57a9.14 9.14 0 0 0-.85 1.24 5.29 5.29 0 0 1-1.03 1.18H3.3l-.01-.03a6.01 6.01 0 0 1 3.98-4.8c.07-.03.09 0 .04.06a3.5 3.5 0 0 0-.58 1.22c0 .02-.02.03-.04.04-.59.27-1.09.63-1.5 1.1Z" fill="#F5DDF3"/><path d="m8.03 3.25.05.26c-.24 0-.44.17-.58.52a.31.31 0 0 0 0 .26l-.15.02a.27.27 0 0 1 .03-.26c.13-.21.22-.36.3-.45.1-.15.22-.27.35-.35Z" fill="#696868"/><path d="m8.08 3.5.09.3c0 .03 0 .03-.03.02l-.05-.03h-.05a.17.17 0 0 0-.07.09c-.1-.07-.19-.04-.27.09a.9.9 0 0 0-.12.31l-.08.01a.31.31 0 0 1 0-.26c.14-.35.34-.53.58-.52Z" fill="#979389"/><path d="m13.55 5.9-.3-1.8a.06.06 0 0 0-.03-.04.06.06 0 0 0-.05 0l-.37.16c-.25.13-.45.21-.61.26.18-.3.42-.57.7-.78a1 1 0 0 1 .43-.2c.04 0 .06.02.07.05l.06.42.04.42.09.76c0 .1 0 .36-.03.76Z" fill="#2D2824"/><path d="m7.97 3.88.03.37c0 .02 0 .03-.03.03h-.39a.73.73 0 0 1 .12-.31c.08-.13.17-.16.27-.1Z" fill="#C4BDA9"/><path d="M10.33 4.52c-.18-.14-.36-.19-.54-.13l-1.17.35c-.12.03-.36.08-.73.14-.56.1-1.1.28-1.59.55a.8.8 0 0 0-.4.48l-.15.17.14-.21c.02-.03.01-.05-.01-.06H5.8c-.19.18-.37.36-.53.55a.54.54 0 0 0-.08.14.56.56 0 0 1-.07.12c-.09.12-.19.33-.3.63l-.08.21c.1-.47.1-.78-.02-.95.16-.22.31-.46.45-.7a3.35 3.35 0 0 1 .65-.64c.27-.18.55-.35.85-.52a3.2 3.2 0 0 1 1.36-.24l.45.02c.12 0 .26-.01.4-.06a1 1 0 0 0 .4-.2.07.07 0 0 0 .02-.04.07.07 0 0 0-.04-.07c-.07-.04-.07-.07 0-.1a.96.96 0 0 1 .68-.01c.35.12.48.31.39.57Z" fill="#2D2824"/><path d="M13.55 5.9a3.2 3.2 0 0 1-.25.93c.1-.4.12-.8.06-1.25a9.56 9.56 0 0 0-.2-1.13.33.33 0 0 0 .03-.17c0-.02-.01-.03-.03-.03a1.13 1.13 0 0 0-.49.23l-.44.24-.25.13.21-.37c.16-.05.36-.13.61-.26l.37-.16h.05l.04.05.29 1.8Z" fill="#6D5849"/><path d="M13.16 4.45c-.05 0-.08.02-.1.05l-.24.38a1 1 0 0 0-.72.08.07.07 0 0 0-.04.04.64.64 0 0 0-.03.4c.02.1.07.23.14.4a1.7 1.7 0 0 1-.18-.27.63.63 0 0 1-.1-.29c0-.09.03-.22.09-.4l.25-.12a3.84 3.84 0 0 0 .48-.26c.18-.13.33-.2.45-.21.02 0 .03 0 .03.03 0 .05 0 .11-.03.17Z" fill="#776851"/><path d="m13.48 7.66-.04-.03a.61.61 0 0 0-.16-.12c-.07-.02-.12 0-.17.06l-.21-.42a.79.79 0 0 0-.52-.4c-.04-.28-.14-.5-.3-.68-.26-.33-.47-.6-.63-.84a1.35 1.35 0 0 0-.3-.34.9.9 0 0 0-.65-.13.67.67 0 0 1 0-.47c0-.04.03-.05.07-.05.33.06.63.15.9.26.19.08.3.17.37.28v.05c-.03.12-.06.23-.07.34-.02.1.02.24.11.41.07.13.15.25.25.37l.49.6c.07.1.18.2.3.3.25.2.44.48.56.8Z" fill="#2D2824"/><path d="M10.33 4.52a.43.43 0 0 0-.1.13.54.54 0 0 0-.54-.05 7.8 7.8 0 0 1-1.23.39c-.55.14-.96.27-1.22.4-.2.1-.33.22-.42.34-.13.2-.28.39-.45.59l-.3.43c-.17.27-.31.46-.43.57a.03.03 0 0 1-.04 0 .03.03 0 0 1-.02-.02c0-.27.04-.52.12-.75.03-.08.08-.2.17-.35l.1-.18a.08.08 0 0 0 0-.07.07.07 0 0 0-.05-.04H5.9c.07-.21.2-.37.4-.48a5 5 0 0 1 1.59-.55 9.86 9.86 0 0 0 1.9-.49c.18-.06.36-.01.54.13Z" fill="#50443A"/><path d="M10.23 4.65c-.34.35-.66.59-.95.72l-.73.3a2.8 2.8 0 0 0-1.26 1.37c-.12.27-.16.26-.12-.03a3.57 3.57 0 0 1 .36-1.1l.1-.17a.77.77 0 0 1 .2-.21.09.09 0 0 0 .03-.1c0-.04-.03-.05-.07-.04-.3.1-.52.23-.69.37a3.81 3.81 0 0 0-.83.98c-.08.14-.15.29-.2.44l-.16.47a4.8 4.8 0 0 0 0 2.63l.3.89c.05.15.1.32.13.5 0 .04 0 .04-.02.02a4.15 4.15 0 0 1-1.4-2.93c-.05-.67.09-1.32.4-1.95.15-.28.29-.52.43-.73l.15-.17h.02c.02 0 .04.02.05.04v.07l-.1.18a2.1 2.1 0 0 0-.17.35c-.08.23-.12.48-.12.75 0 .01 0 .02.02.03h.04c.12-.12.26-.31.43-.58l.3-.43c.17-.2.32-.4.46-.59.08-.12.22-.23.41-.33.26-.14.67-.27 1.22-.41a11.3 11.3 0 0 0 1.23-.4c.2-.07.37-.05.54.06Z" fill="#6D5849"/><path d="M13.18 4.56c.07.28.13.62.18 1.02.06.44.04.86-.06 1.25a.2.2 0 0 1-.06.08h-.05a1.9 1.9 0 0 1-.57-.68l.46.48c.02.02.04.03.07.02.03 0 .04-.02.05-.05a2.27 2.27 0 0 0 .06-.85c-.05-.39-.2-.55-.48-.5.1-.27.23-.53.4-.77Z" fill="#696868"/><path d="M12.38 6.74c-.05.08-.04.16.03.24V7l-.02.01h-.02l-.53-.47c-.13-.1-.3-.3-.51-.56a1.35 1.35 0 0 1-.3-.74.06.06 0 0 0-.03-.05.06.06 0 0 0-.06 0 .28.28 0 0 0-.1.09c-.02.03-.05.03-.07-.01l-.27-.51a.9.9 0 0 1 .64.13c.08.05.19.17.3.34.17.23.38.51.65.84.15.18.25.4.3.67Zm-1.4-1.11c-.02.27-.12.5-.29.69a.79.79 0 0 0-.2.35c-.02.1-.01.24.02.4v.05l-.2.2c-.17.17-.29.3-.34.4a.53.53 0 0 0 0 .53c.02.02.03.02.03 0 .02-.24.1-.43.23-.57.16-.16.4-.32.7-.48a2.2 2.2 0 0 1-.34.26c-.13.08-.26.2-.39.36a.45.45 0 0 0-.1.31c0 .1.02.2.07.34v.04c0 .02-.02.03-.04.03s-.04 0-.06-.02a2.65 2.65 0 0 1-.1-.1c-.01 0-.01 0 0 0 .05.07.1.12.14.15.09.07.12.05.1-.06l-.03-.12c-.01-.06-.01-.06 0 0 .03.06.05.13.06.2v.04h-.04l-.13-.03-.3-.37a.76.76 0 0 1 .21-.64c.15-.15.29-.3.42-.46a.14.14 0 0 0 .04-.12 1.96 1.96 0 0 1-.03-.43c0-.02 0-.04.02-.05l.23-.3a.36.36 0 0 0 .05-.24.92.92 0 0 0-.14-.47c-.09-.12-.24-.19-.44-.2-.07 0-.13.03-.19.11-.16.22-.22.49-.2.79.08.15.12.28.13.36 0 .14-.05.24-.18.3l-.16.06c-.06.02-.09.07-.07.14.06.27.08.55.05.85a.2.2 0 0 1-.05.1.06.06 0 0 0-.01.05c0 .04-.01.06-.04.07a1 1 0 0 0-.23.1l-.23.1h-.02v-.02c.01-.1.07-.21.17-.33.1-.25.08-.56-.06-.93a.59.59 0 0 1-.05-.2c0-.09.08-.17.23-.26l.09-.05a.12.12 0 0 0 .05-.1.12.12 0 0 0-.04-.1.91.91 0 0 0-.68-.25.2.2 0 0 0-.15-.04h-.01a3.47 3.47 0 0 1 .35-.03 30.38 30.38 0 0 0-.39-.07h.01c.18 0 .36.02.54.05l.25.19.14.16c.02.03.03.06.03.1 0 .05-.02.08-.06.1l-.28.22a.05.05 0 0 0-.02.06l.08.36.1.39c.01.14.01.28-.02.42 0 .01 0 .02.02.03h.04c.13-.08.2-.22.22-.42a2.35 2.35 0 0 0-.06-.62c0-.05.01-.08.06-.1l.24-.13c.02 0 .03-.02.03-.04a.1.1 0 0 1 .03-.07.04.04 0 0 0 .02-.04 2.53 2.53 0 0 0-.1-.42 1.7 1.7 0 0 1-.04-.92l.66-.57c.02-.01.03 0 .04.02.05.2.12.37.22.5l.2.32c.04.04.07.05.12.03h.05l.02.04Z" fill="#6D5849"/><path d="m12.82 4.88-.22.54c-.08-.12-.16-.19-.25-.21-.1-.03-.2.02-.26.15-.01.02-.02.04 0 .05.05.17.1.3.17.4.09.12.2.2.33.24a.41.41 0 0 1-.07.14h-.03l-.32-.4c-.07-.16-.12-.3-.14-.4a.64.64 0 0 1 .03-.4l.04-.03a1 1 0 0 1 .72-.08Z" fill="#979389"/><path d="m12.6 5.42-.07.28c-.01.03 0 .06.02.08.02.02.04.03.07.02.03 0 .06-.02.08-.05h.04v.01l-.15.29a.6.6 0 0 1-.33-.25 1.58 1.58 0 0 1-.18-.39v-.05c.07-.13.16-.18.27-.15.1.02.17.1.25.21Z" fill="#C4BDA9"/><path d="M12.62 6.23a.33.33 0 0 0 .1-.14c.08.18.17.32.28.43.02.03.06.04.1.02a.09.09 0 0 0 .06-.08c0-.17 0-.3-.02-.4a.56.56 0 0 0-.21-.34l.04-.1-.01-.06c-.04-.05-.1-.05-.2 0-.03.03-.05.02-.05-.03 0-.06.03-.12.07-.2.27-.05.43.11.48.5a2.27 2.27 0 0 1-.06.85c0 .03-.02.05-.05.05-.03 0-.05 0-.07-.02l-.46-.48Z" fill="#979389"/><path d="M9.67 5.3c-.07.31-.06.62.04.9.04.14.08.29.1.43 0 .02 0 .03-.02.04a.08.08 0 0 0-.03.07c0 .02 0 .03-.03.04l-.24.12c-.05.03-.06.06-.06.11l.02.1c.04.24.05.41.04.52-.02.2-.1.34-.22.42h-.04a.03.03 0 0 1-.02-.03c.03-.14.03-.28.01-.42a3.3 3.3 0 0 0-.09-.4 4.08 4.08 0 0 1-.08-.35c0-.03 0-.05.02-.06l.28-.21a.14.14 0 0 0 .06-.1c0-.05 0-.08-.03-.11l-.14-.16a1 1 0 0 1 .24.24c.02.03.02.06-.02.1l-.31.26a.06.06 0 0 0-.02.06c.02.19.06.39.13.6.04.13.04.3.02.51l.01.02h.02c.02 0 .03-.01.04-.03.07-.13.1-.28.1-.44a2.65 2.65 0 0 0-.08-.5c0-.06.01-.1.06-.14.12-.08.23-.17.32-.28a.05.05 0 0 0 .01-.05 16.12 16.12 0 0 0-.15-.63c-.04-.2-.06-.39-.06-.58l.12-.06Z" fill="#50443A"/><path d="M9.78 8.23c-.1-.14-.09-.32.06-.54a2.88 2.88 0 0 1 .45-.5c.08-.08.1-.2.06-.32-.05-.15-.02-.3.1-.44a.67.67 0 0 0 .15-.38.53.53 0 0 0-.1-.38.42.42 0 0 0-.34-.16.2.2 0 0 0-.15.06.92.92 0 0 0-.27.65c-.02-.3.04-.57.2-.79.06-.08.12-.12.19-.11.2.01.35.08.44.2.08.1.13.26.14.47.01.1 0 .17-.05.24l-.23.3a.08.08 0 0 0-.02.05c-.01.14 0 .29.03.43 0 .05 0 .09-.04.12l-.42.46a.76.76 0 0 0-.2.64Z" fill="#696868"/><path d="M9.55 5.35c0 .2.02.38.06.58a7.72 7.72 0 0 0 .15.63v.05c-.1.11-.2.2-.33.28a.12.12 0 0 0-.06.13l.02.06c.04.2.06.36.06.45 0 .16-.03.3-.1.44A.05.05 0 0 1 9.3 8l-.01-.02c.02-.21.02-.38-.02-.51a2.82 2.82 0 0 1-.13-.6c0-.03 0-.05.02-.06l.31-.27c.04-.03.04-.06.01-.1a1 1 0 0 0-.23-.23L9 6.02a.2.2 0 0 0-.06-.04l-.37-.1c-.03 0-.03-.02 0-.03.1-.06.2-.1.31-.15a4.19 4.19 0 0 0 .68-.35Z" fill="#2D2824"/><path d="m13.07 11.17.01-.08c0-.11.02-.18.05-.22.31-.46.5-.75.57-.9.27-.52.4-1.15.39-1.89a2.63 2.63 0 0 0-.5-1.44.15.15 0 0 1-.03-.13c.09-.34.14-.68.17-1.02 0-.05.02-.05.04 0a6.09 6.09 0 0 1-.06 6.78c-.02.03-.05.04-.08 0l-.43-.62a.64.64 0 0 1-.13-.48Z" fill="#F5DDF3"/><path d="M10.45 6.43c.02-.22 0-.41-.09-.59-.02-.05-.06-.07-.12-.06-.23.07-.37.23-.41.49v.05c.07.14.1.28.06.44a.3.3 0 0 1-.2.13c.13-.07.19-.17.18-.3-.01-.1-.05-.22-.13-.37.01-.28.1-.5.27-.65a.2.2 0 0 1 .15-.06c.14 0 .26.06.34.16.08.11.12.24.1.38a.65.65 0 0 1-.15.38Z" fill="#979389"/><path d="M12.12 6.97a2.81 2.81 0 0 0-.59-.26c-.2-.04-.39-.04-.58.02-.05.01-.06.04-.05.09.03.11.04.24.03.38-.3.16-.54.32-.7.48a.85.85 0 0 0-.23.56c0 .03-.01.03-.02 0a.53.53 0 0 1-.01-.51c.05-.1.17-.24.34-.41l.2-.2a.05.05 0 0 0 0-.05.96.96 0 0 1-.02-.4.9.9 0 0 1 .2-.35c.17-.2.27-.42.29-.69.11.27.21.45.31.54l.35.35c.06.07.14.14.24.22.09.07.17.14.24.23Z" fill="#2D2824"/><path d="m12.71 6.1.22-.38c.1.08.18.2.2.34.03.1.04.23.03.4 0 .04-.03.07-.07.08a.08.08 0 0 1-.1-.02c-.1-.1-.2-.25-.28-.43Zm-2.26.33c-.12.14-.15.29-.1.44.04.13.02.24-.06.32l-.04.04c-.2.18-.33.34-.41.46-.15.22-.17.4-.07.54l.3.37.03.05h-.02l-.17-.16a1.3 1.3 0 0 0-.1-.13c-.07-.08-.08-.07-.02.02.13.23.32.4.56.51h.05a.04.04 0 0 0 .01-.05l-.05-.2a.7.7 0 0 0-.16-.45.1.1 0 0 1-.02-.05v-.15c0-.05.04-.06.1-.04.04.2.12.37.23.52l.07.77c0 .06-.01.1-.05.13l-.26.2c.02-.45-.21-.74-.7-.86l.19.04.04-.01a.04.04 0 0 0 0-.05l-.07-.2c-.01-.01-.01-.01 0 0a10.58 10.58 0 0 1 .1.16h.01c.01-.01.02-.02.01-.03l-.23-.34c-.01-.02-.03-.02-.05-.02-.14.06-.28.14-.43.25l-.38.32-.07.06a.21.21 0 0 1-.12.06.6.6 0 0 1-.15 0 .04.04 0 0 1-.03-.04.62.62 0 0 1 .08-.55c.08-.11.23-.23.44-.36.11-.08.16-.2.14-.35.03 0 .05 0 .06-.03 0-.02 0-.04-.02-.05a.61.61 0 0 1-.14-.24 1.8 1.8 0 0 1-.06-.26 1.9 1.9 0 0 0-.07-.29l.39-.27a.04.04 0 0 0 .02-.05.04.04 0 0 0-.03-.03 1 1 0 0 0-.8.02v.04c0 .02.01.03.03.03.08 0 .13 0 .15.05l-.19-.02c-.02 0-.03-.01-.03-.04-.01-.1 0-.2.05-.28.17-.04.34-.06.51-.06h.02l-.01-.02-.29-.04a.9.9 0 0 1 .68.25c.03.02.04.06.04.1 0 .04-.02.07-.05.1a1.3 1.3 0 0 1-.1.05c-.14.09-.22.17-.22.26 0 .04.01.1.05.2.14.37.16.68.06.93a.73.73 0 0 0-.25.4c0 .02 0 .03.03.05h.06l.24-.2a1 1 0 0 1 .23-.1c.03 0 .04-.03.04-.07l.01-.05a.2.2 0 0 0 .05-.1c.03-.3.01-.58-.05-.85-.02-.07 0-.12.07-.14l.16-.06v.01l-.16.1a.07.07 0 0 0-.04.06c.01.15.05.3.12.44.01.02.03.03.05.03.08.01.15-.02.21-.1l.35-.37a.07.07 0 0 0 .02-.06l-.04-.67c0-.06-.04-.08-.1-.07h-.03c-.05 0-.09.04-.1.1l-.08.4a.67.67 0 0 0-.05-.43l-.01-.05c.04-.26.18-.42.4-.49.07-.01.1 0 .13.06.09.18.11.37.09.59Z" fill="#C4BDA9"/><path d="M8.93 5.98a.2.2 0 0 1 .06.04 5.6 5.6 0 0 0-.55-.05l.01.02a30.57 30.57 0 0 1 .38.06 3.47 3.47 0 0 0-.35.02.2.2 0 0 1 .16.04.54.54 0 0 0-.22.07c0-.03 0-.05-.02-.05-.03 0-.07.02-.1.05v-.05c-.02-.01-.04-.02-.06 0a.17.17 0 0 1-.07.02l.25-.2a.22.22 0 0 1 .28-.02l.05.02.18.03Z" fill="#696868"/><path d="M8.64 6.1a3.44 3.44 0 0 1 .3.06c0 .01-.01.02-.02.01-.17 0-.34.02-.51.06l.01-.05a.54.54 0 0 1 .22-.07Z" fill="#979389"/><path d="M8.3 6.18a.58.58 0 0 0-.16.4c0 .03-.02.06-.06.07-.03.01-.05 0-.06-.03a.73.73 0 0 1-.03-.28c.02-.08.08-.15.18-.2.02 0 .05 0 .07-.02h.05c.01.02.02.04.01.06Z" fill="#C4BDA9"/><path d="M9.7 6.9a.3.3 0 0 0 .2-.14l.07-.41c.01-.06.05-.1.1-.1h.03c.06-.01.1.01.1.07l.04.67c0 .02 0 .04-.02.06l-.35.37c-.06.08-.13.11-.21.1a.05.05 0 0 1-.05-.03c-.07-.14-.1-.29-.12-.44 0-.03.01-.05.04-.06l.17-.1Zm-.88-.12a.55.55 0 0 0-.24-.21c-.02-.04-.07-.06-.15-.05-.02 0-.03 0-.03-.03v-.04a1 1 0 0 1 .8-.02c.02 0 .02.02.03.03 0 .02 0 .04-.02.05l-.4.27Z" fill="#F0F1E3"/><path d="M4.74 7.46a4.28 4.28 0 0 0-.07 2c0 .06 0 .06-.03.02a1.35 1.35 0 0 1-.18-.43 3.47 3.47 0 0 1-.08-1.33.82.82 0 0 1 .08-.25.07.07 0 0 0 0-.08c-.04-.06-.08-.06-.13 0-.16.2-.29.31-.38.36-.18.08-.2.05-.07-.1.3-.32.58-.7.84-1.14.12.17.13.48.02.95Z" fill="#6D5849"/><path d="M7.71 6.88c-.06-.12-.04-.24.08-.36.03-.03.04-.02.04.01-.01.1-.02.18-.01.27a.1.1 0 0 1-.03.07.07.07 0 0 1-.04.03c-.02 0-.03 0-.04-.02Z" fill="#F0F1E3"/><path d="M12.12 6.97c.13.11.22.21.28.28a.8.8 0 0 1 .15.37l-.08.64a10.63 10.63 0 0 0-.15.28 23.27 23.27 0 0 0 .17-.4h-.03l-.31.63a.46.46 0 0 0-.04.28c0 .01 0 .03.02.04l.03.02h-.1c-.02 0-.03 0-.03-.03l-.01-.24.03-.2a.08.08 0 0 0 .05-.08.4.4 0 0 0 .11-.08c.2-.35.24-.73.16-1.12 0-.01 0-.02-.01-.01h-.02a3.78 3.78 0 0 1 0 .74 2 2 0 0 0-.01-.52.77.77 0 0 0-.26-.45 1.14 1.14 0 0 0-.46-.3 1.02 1.02 0 0 0-.56-.05c-.05 0-.07.04-.06.09l.01.04c.02.1.03.18.02.23 0 .09-.04.15-.1.18-.13.06-.24.13-.34.21a.82.82 0 0 0-.23.26c-.02.02-.01.03.01.03h.03l-.07.02-.05.04.01.08c-.06-.02-.1-.01-.1.04v.15c0 .02 0 .04.02.05.1.13.16.28.16.45v.12l-.03.03a.2.2 0 0 1-.18-.04 14.48 14.48 0 0 1-.05-.1l-.03-.05.13.04.03-.01c.01-.01.02-.02.01-.04a1.18 1.18 0 0 0-.05-.2c-.02-.06-.02-.06-.01 0l.02.12c.03.11 0 .13-.09.06a1.42 1.42 0 0 1-.15-.15h.01l.1.1c.02.02.04.02.06.02.02 0 .03-.01.04-.03v-.04a1.06 1.06 0 0 1-.08-.34c0-.11.04-.22.11-.31.13-.16.26-.28.39-.36.15-.1.26-.19.34-.26.01-.14 0-.27-.03-.38-.01-.05 0-.08.05-.09.2-.06.39-.06.58-.02.14.04.34.12.59.26Z" fill="#696868"/><path d="M12.07 7.12c.23.32.28.78.15 1.36a.41.41 0 0 1-.12.08l-.01-.03c.14-.19.18-.4.13-.62 0-.05-.01-.07-.06-.05l-.02.01a.57.57 0 0 1-.25.24c-.03.01-.05 0-.06-.02a.12.12 0 0 1 .02-.12c0-.02.03-.04.05-.07.12-.16.18-.28.18-.36-.01-.07-.04-.08-.08-.03l-.2.21c-.01.02-.03.02-.05 0-.06-.07-.08-.14-.04-.21a.55.55 0 0 0 .08-.27c0-.03-.01-.04-.04-.03l-.04.03c-.1-.21-.25-.3-.48-.3a.07.07 0 0 0-.05.03.71.71 0 0 0-.12.27c0 .04-.03.07-.07.1l-.08.04c-.23.14-.38.26-.45.35a.04.04 0 0 0 0 .04c0 .01.01.02.03.01a.12.12 0 0 1-.1.04h-.03c-.02-.01-.03-.02-.01-.04.06-.1.14-.19.23-.26.1-.08.21-.15.33-.2.07-.04.1-.1.11-.19a.97.97 0 0 0-.03-.27c0-.05.01-.08.06-.1a1.14 1.14 0 0 1 1.02.36Z" fill="#C4BDA9"/><path d="M8.2 6.9c-.07 0-.13 0-.17.04-.04.04-.05.1-.03.17.02.07.08.09.17.06-.07.1-.03.16.13.19.07 0 .13 0 .18-.02.17-.1.23-.25.19-.5 0-.02 0-.02.02 0 .04.03.07.12.08.27v.05a.25.25 0 0 1-.06.2.61.61 0 0 1-.42.23.38.38 0 0 1-.38-.25.4.4 0 0 1 .08-.48.08.08 0 0 1 .07-.03c.03 0 .05.02.06.04.01.02.04.03.08.04Z" fill="#17C3BF"/><path d="M13.92 8.15a.34.34 0 0 0-.16.08c-.07-.4-.2-.74-.37-1.05a.18.18 0 0 1-.01-.15l.05-.16c.02-.06.04-.06.08-.01.3.42.43.85.4 1.29Zm-6.76-.38c-.1.17-.23.32-.38.45a.88.88 0 0 0-.2.23c-.15.26-.16.7-.04 1.28a18.29 18.29 0 0 0 .26 1.15 6.8 6.8 0 0 1-.5-1.18 2.06 2.06 0 0 1-.12-1.18 2.47 2.47 0 0 1 .85-1.55c.02-.01.03 0 .02.02-.02.16-.02.3 0 .42 0 .05.04.17.12.36Z" fill="#2D2824"/><path d="M7.51 6.9h.01c.03 0 .04.02.05.05a.1.1 0 0 1 0 .08.1.1 0 0 1-.06.06.08.08 0 0 1-.07 0l.07-.19Z" fill="#C4BDA9"/><path d="M11.72 7.24a.27.27 0 0 1-.12.15.23.23 0 0 1-.18.01c-.22-.06-.42 0-.62.16a4.28 4.28 0 0 1-.31.22l-.03-.01v-.04a1.7 1.7 0 0 1 .53-.4.15.15 0 0 0 .07-.1.68.68 0 0 1 .12-.26.07.07 0 0 1 .05-.03c.23 0 .39.09.49.3ZM8.2 6.9c.05.04.07.09.07.15s-.04.1-.1.12c-.1.03-.15 0-.17-.06a.2.2 0 0 1 .03-.17c.04-.04.1-.05.17-.03Z" fill="#F0F1E3"/><path d="M10.16 11.74c.16-.08.3-.14.41-.16.57-.12.95-.22 1.15-.3.24-.1.47-.3.69-.6.28-.33.37-.72.27-1.16a.75.75 0 0 0-.23-.4L12.27 9c-.02-.01-.02-.03-.02-.05.06-.17.13-.31.19-.43.12-.22.19-.45.2-.7l-.01-.02-.02.01a2.56 2.56 0 0 1-.12.53c.06-.2.1-.42.11-.63.05-.1.06-.2.04-.34a2.14 2.14 0 0 0-.08-.34l.01-.03.04.01c.32.39.5.9.56 1.52.04.57-.03 1.12-.23 1.63a4.29 4.29 0 0 1-.54.9c-.17.23-.46.43-.85.6h-.02c-.01-.01-.02-.02-.01-.03l.02-.18c0-.02 0-.03-.02-.04h-.05l-.12.13a5.07 5.07 0 0 0-1.2.21Z" fill="#2D2824"/><path d="M8.9 7.6a.58.58 0 0 1-.24.21.75.75 0 0 1-.64.03.5.5 0 0 1-.23-.22 3.83 3.83 0 0 0-.21-.34c-.02-.04-.02-.06.01-.08l.1-.08c.04-.02.05-.01.06.03.03.36.2.54.5.55.23 0 .41-.1.57-.29h.01l.07.16v.03Z" fill="#F0F1E3"/><path d="M12.21 8.48c.14-.58.09-1.04-.14-1.36a.8.8 0 0 1 .26.45 2 2 0 0 1 .02.52 3.78 3.78 0 0 0 0-.74h.02c.08.4.03.78-.15 1.13Z" fill="#979389"/><path d="m12.22 7.91-.02.11a1 1 0 0 1-.25.3c-.03.03-.03.06 0 .08l.11.1.03.03.01.03a.1.1 0 0 1-.04.08.11.11 0 0 1-.05-.02.19.19 0 0 1-.09-.1.6.6 0 0 0-.26.12.86.86 0 0 1-.22.15.77.77 0 0 1-.5.02.83.83 0 0 1-.43-.34 1.31 1.31 0 0 1-.24-.6c0-.02.03-.03.05-.04l.07-.01c.04 0 .07-.01.1-.04h.03l.28-.22c.2-.17.4-.22.62-.16.06.02.12.02.18-.01a.3.3 0 0 0 .12-.15c0-.02.02-.03.03-.03.03-.01.04 0 .04.03 0 .1-.03.18-.08.27-.04.07-.02.14.04.21.02.02.04.02.06 0l.19-.2c.04-.06.07-.05.08.02 0 .08-.06.2-.18.36l-.05.07a.12.12 0 0 0-.02.12c.01.03.03.03.06.02.11-.05.2-.13.25-.24h.02c.05-.03.07-.01.06.04Z" fill="#020102"/><path d="m7.54 7.45-.07.6.1.21c0 .03 0 .06-.03.08-.05.04-.08.08-.06.13l-.09.12c-.32.28-.44.58-.35.89.07.23.15.44.25.63a2.06 2.06 0 0 0 .8.82v.01a4.16 4.16 0 0 1-.53-.38 1.5 1.5 0 0 1-.27-.33 4.4 4.4 0 0 1-.32-.64h-.02v.02l.1.26c.1.26.19.44.27.55.2.29.48.48.83.58.09.1.22.2.4.28.15.07.3.13.45.17.14.03.37.03.7 0a.36.36 0 0 0 .28-.14c.17.04.3.05.38.03.27-.04.57-.07.88-.09a4.1 4.1 0 0 0 .56-.2 8.85 8.85 0 0 0-.3.09c0-.01 0-.02.02-.02.14-.07.27-.16.38-.27a.54.54 0 0 0 .14-.28c.03-.17.06-.32.07-.47a.9.9 0 0 0-.06-.46 2.3 2.3 0 0 0-.23-.37 7.87 7.87 0 0 1-.1-.15c-.04-.05-.03-.1.02-.15.1-.08.19-.2.27-.35l.04.02-.03.2a.52.52 0 0 0-.14.18c0 .02 0 .03.02.04.17.08.3.16.38.23.1.1.18.22.23.38.03.27-.02.52-.12.76a5.72 5.72 0 0 0 .04-.15l-.05.1c-.09.2-.17.34-.23.42-.1.13-.22.25-.39.34-.07.04-.23.1-.47.16l-.88.2-.58.2-1.46.12c-.02 0-.03 0-.04.02a.06.06 0 0 0 0 .05c.06.24.19.5.38.77l.22.35c.01.04.05.05.11.01.14.1.3.21.44.33.2.14.36.23.47.26.43.1.85.24 1.27.4l.15.16c.03.04.02.07-.02.09l-.14.07a2.25 2.25 0 0 0-.86-.06c-.23.02-.38.03-.47.02a.95.95 0 0 1-.41-.15c-.5-.32-1-.82-1.52-1.49a.81.81 0 0 0-.3-.2l-.29-.57a.5.5 0 0 0 .05-.58 8.3 8.3 0 0 1-.6-1.35 3.2 3.2 0 0 1-.17-1.2h-.02a4.75 4.75 0 0 0 .13 1.3 3.5 3.5 0 0 1-.18-1.13c0-.12.02-.22.07-.3.05-.12.14-.2.26-.28l.1-.06a.73.73 0 0 0 .26-.19c.02-.02.03-.02.03.01a.35.35 0 0 0 0 .04h.01a10 10 0 0 0-.05-.34l.06-.4c0-.04.02-.06.05-.07a.08.08 0 0 1 .1 0l.08.12Z" fill="#979389"/><path d="M13.48 7.66c.12.32.17.67.15 1.03 0 .04.01.05.04.05h.03c.02 0 .03-.01.04-.04l.02-.47c.05-.04.1-.07.16-.08v.57a3.31 3.31 0 0 1-.63 1.66c-.23.32-.46.65-.68 1-.16.24-.27.5-.31.78-.06.35-.06.7-.02 1.05 0 .03 0 .04-.03.03l-.33-.1c-.03-.01-.05-.03-.05-.06 0-.37.07-.8.24-1.28.06-.17.15-.34.3-.5.2-.23.37-.48.53-.74.1-.16.17-.33.19-.51.04-.17.1-.42.15-.75.06-.36.08-.66.05-.88a4.1 4.1 0 0 0-.22-.85c.05-.06.1-.08.17-.06.04.02.1.06.16.12l.04.03Z" fill="#6D5849"/><path d="m7.54 7.45.06.1c.1.16.17.27.23.32.1.1.22.14.38.15.15 0 .3-.01.46-.05.1-.03.23-.14.38-.32.02.16-.03.27-.14.35-.21.13-.36.25-.44.36a.62.62 0 0 0-.08.55c0 .02.01.03.03.04h.15c.05 0 .09-.03.12-.06a276.33 276.33 0 0 1 .45-.38c.15-.11.3-.2.43-.25.02 0 .04 0 .05.02l.23.34v.02l-.02.01a10.63 10.63 0 0 0-.1-.15l.08.2-.01.04a.04.04 0 0 1-.04.01l-.2-.04c-.37-.07-.66.06-.88.4a.18.18 0 0 0-.01.2c.01.03.04.04.08.02h.07c.02 0 .02.02.02.04-.03.08-.03.15 0 .2l.28.32c.16.14.27.2.34.19.16-.04.31-.12.45-.22a.05.05 0 0 0 .02-.04v-.09c.01-.05.03-.07.08-.06l.17.03c.07.01.1-.03.1-.13l.25-.2a.14.14 0 0 0 .05-.13l-.07-.77c.12.18.27.3.43.34.16.05.33.04.5-.02a.86.86 0 0 0 .22-.14.6.6 0 0 1 .26-.14.8.8 0 0 1-.25.37l-.28.22c-.02.02-.02.03 0 .05a2 2 0 0 1 .33.4c.08.14.1.3.07.5-.06.4-.14.68-.23.87a.13.13 0 0 1-.1.07 3.5 3.5 0 0 1-.77.16 12.43 12.43 0 0 1-.94.06 2.5 2.5 0 0 1-1.22-.22 2.53 2.53 0 0 1-.94-.84 1.9 1.9 0 0 1-.29-.68.75.75 0 0 1 .06-.54.73.73 0 0 1 .4-.33c.12-.05.24-.1.35-.18.02-.01.03-.02.03-.04a.28.28 0 0 0 0-.17c-.01-.03-.02-.03-.04 0a.99.99 0 0 1-.46.37.73.73 0 0 0-.4.41.86.86 0 0 0 .01.6c.09.23.17.42.25.56.11.18.25.33.41.47a5.38 5.38 0 0 0 .52.38 2.18 2.18 0 0 1-1.08-1.06 1.78 1.78 0 0 1-.19-.57.75.75 0 0 1 .17-.57 6.82 6.82 0 0 0 .16-.23h-.02a.2.2 0 0 0-.08.02l.09-.12c.14-.12.14-.27 0-.43l.06-.6Z" fill="#F0F1E3"/><path d="M10.99 7.72c-.12 0-.18.05-.17.14.01.1.06.15.14.13-.06.11 0 .17.2.17.02 0 .03 0 .05-.02.05-.03.1-.07.14-.12.06-.05.08-.17.08-.36v-.02c0-.1.03-.11.09-.03.04.06.07.12.08.2a.3.3 0 0 1-.03.2c-.16.28-.37.4-.63.34a.32.32 0 0 1-.18-.15.49.49 0 0 1-.08-.24.3.3 0 0 1 .06-.2c.06-.05.14-.06.25-.04Z" fill="#17C3BF"/><path d="M12.6 7.7a2.47 2.47 0 0 1-.1.62c.06-.17.1-.34.11-.52l.02-.01.01.01c-.01.26-.08.5-.2.71-.06.12-.13.26-.19.43 0 .02 0 .04.02.05l.18.13c.12.12.2.25.23.4.1.44 0 .83-.27 1.17.1-.2.18-.36.22-.5.05-.19.05-.38.01-.57-.04-.23-.14-.4-.28-.48l-.16-.1c-.03-.02-.04-.05-.03-.09l.3-.69.08-.64.05.08Z" fill="#50443A"/><path d="M4.21 8.74c-.1.14-.24.26-.38.35a5.1 5.1 0 0 0-.52.36h-.03a5.99 5.99 0 0 1-.03-1.13c0-.02.02-.03.04-.04.35-.14.64-.31.88-.53.04-.04.06-.03.05.03-.03.3-.03.6 0 .89a.1.1 0 0 1-.01.07Z" fill="#F5DDF3"/><path d="M10.99 7.72c.07.03.1.08.09.15-.01.07-.05.1-.12.12-.08.02-.13-.03-.14-.13 0-.1.05-.13.17-.14Z" fill="#F0F1E3"/><path d="m7.16 7.77.02.02c.02.14 0 .24-.05.32a.6.6 0 0 1-.2.15.96.96 0 0 0-.22.17c-.16.17-.21.47-.16.88a6.04 6.04 0 0 0 .2.96h-.01a29.32 29.32 0 0 0-.17-.6l.2.85c.03.1.04.2.03.29-.1-.36-.18-.72-.26-1.08-.12-.59-.1-1.02.03-1.28a.86.86 0 0 1 .21-.23c.15-.13.28-.28.38-.45Z" fill="#50443A"/><path d="M7.25 7.8a9.96 9.96 0 0 1 .04.3c0-.03 0-.03-.03 0a.73.73 0 0 1-.25.18l-.11.06a.67.67 0 0 0-.26.27.68.68 0 0 0-.07.31c0 .38.06.75.18 1.12l.17.62c.16.32.28.59.36.8.04.1.05.22.04.36l-.52-.94v-.07c.01-.1 0-.19-.02-.29a41.14 41.14 0 0 1-.04-.25h.01l.01-.01v-.01c-.12-.4-.19-.7-.21-.94-.05-.41 0-.7.16-.88.05-.05.12-.1.23-.17.1-.06.16-.11.2-.15a.52.52 0 0 0 .04-.32l.07.01Z" fill="#6D5849"/><path d="m12.09 8.53-.03-.04c.1-.14.14-.3.14-.47l.02-.1c.05.22 0 .42-.13.61Z" fill="#979389"/><path d="m10.46 7.97.05-.02c.03-.02.05 0 .05.03.01.19.09.33.22.42.14.1.3.12.47.06.17-.06.3-.19.4-.38l.04-.01s.02 0 .02.02l.06.27v.04a.8.8 0 0 1-.7.29.5.5 0 0 1-.32-.14 1.22 1.22 0 0 1-.32-.5c-.01-.04 0-.06.03-.08Z" fill="#F0F1E3"/><path d="m12.06 8.5-.1-.1c-.04-.02-.04-.05 0-.07a1 1 0 0 0 .24-.3c0 .16-.04.32-.14.46Z" fill="#C4BDA9"/><path d="M8.93 8.07a1.6 1.6 0 0 0-.27.46c-.02 0-.02-.01-.02-.02a1 1 0 0 1 .27-.45h.02v.01Z" fill="#979389"/><path d="m12.47 8.26-.3.69c-.01.04 0 .07.03.1l.16.09c.14.09.24.25.28.48.04.2.04.38-.01.57-.04.14-.11.3-.22.5-.22.3-.45.49-.69.59-.2.08-.58.18-1.15.3-.1.02-.25.08-.41.16l-.04.01c-.02 0-.02 0-.01-.02l.01-.01c.03-.01.03-.01 0-.01l-.16.03.17-.1a.6.6 0 0 0 .28-.14l.88-.2-.16.05-.01.02v.01l.26-.08a6.57 6.57 0 0 0 .33-.09c0-.01 0-.02-.01-.01l-.32.1h-.1c.25-.07.4-.12.48-.16.17-.1.3-.2.4-.34.05-.08.13-.22.22-.42l.05-.1c0-.02 0-.02 0 0l-.04.15-.1.16v.01l.02.01h.02l.19-.33c.08-.3.07-.6-.03-.88a.34.34 0 0 0-.13-.17 1.53 1.53 0 0 0-.2-.12l-.03-.02a.06.06 0 0 1-.02-.04c-.02-.1 0-.2.04-.28a131.92 131.92 0 0 0 .33-.64l.01.01a23.27 23.27 0 0 1-.17.4l.15-.28Z" fill="#6D5849"/><path d="M11.92 8.51c.02.05.05.09.09.1-.08.16-.17.28-.27.36-.05.05-.06.1-.02.15l.1.15c.12.16.19.29.23.37.06.15.08.3.06.46-.01.15-.04.3-.07.47a.54.54 0 0 1-.14.28c-.11.11-.24.2-.38.27l-.01.02h.02a8.95 8.95 0 0 1-.08.05h-.15c-.09.05-.08.07.02.04a4.67 4.67 0 0 0-.08.02c-.31.02-.6.05-.88.1-.08 0-.2 0-.38-.04-.02-.04-.06-.06-.1-.04-.28.1-.56.12-.86.04a2.06 2.06 0 0 1-.79-.38.05.05 0 0 0-.05-.01c-.02 0-.04.03-.03.08a1.5 1.5 0 0 1-.83-.58c-.08-.1-.17-.3-.27-.55a6.08 6.08 0 0 0-.1-.28h.01l.14.26c.08.17.14.3.2.38.07.13.16.24.26.33a4.17 4.17 0 0 0 .53.38v-.01a2.06 2.06 0 0 1-.8-.82c-.1-.2-.18-.4-.25-.63-.09-.31.03-.6.35-.9a.2.2 0 0 1 .08-.02l.02.01v.02l-.16.21a.75.75 0 0 0-.17.57c.02.15.08.34.2.57a2.18 2.18 0 0 0 1.07 1.05 5.4 5.4 0 0 1-.52-.37c-.16-.14-.3-.3-.4-.47a3.04 3.04 0 0 1-.26-.56.86.86 0 0 1 0-.6c.07-.18.2-.32.4-.41a1 1 0 0 0 .45-.37c.02-.03.03-.03.04 0 .02.06.02.12 0 .17 0 .02-.01.03-.03.04-.11.07-.23.13-.35.18a.73.73 0 0 0-.4.33.75.75 0 0 0-.06.54c.07.28.16.5.29.68.28.39.59.67.94.84a2.5 2.5 0 0 0 1.38.21c.35-.01.6-.03.78-.05.28-.03.54-.08.78-.16a.13.13 0 0 0 .09-.07c.09-.19.17-.48.23-.87a.8.8 0 0 0-.07-.5 2 2 0 0 0-.32-.4h-.01c-.02-.02-.02-.03 0-.05l.28-.22c.1-.09.2-.2.25-.37Z" fill="#C4BDA9"/><path d="M8.82 8.43a.2.2 0 0 0 0 .07v.09l-.02.02h-.03l-.02-.04.1-.38h.01c.01 0 .02.01.01.02l-.05.22Z" fill="#979389"/><path d="m7.73 12.99-.41-.72a.1.1 0 0 0-.12-.06c-.09.01-.2-.03-.32-.14-.13-.1-.23-.14-.32-.14l-.01.02a3.11 3.11 0 0 0-.16-.67c-.04-.16-.1-.33-.16-.5a5.7 5.7 0 0 1-.4-1.85c-.01-.22 0-.45.05-.68.01-.03.02-.03.02 0v.05c.05.39.1.77.18 1.16a8.74 8.74 0 0 0 .51 1.32l.53.97c.2.34.33.6.41.75.06.12.13.28.2.49Z" fill="#2D2824"/><path d="M5 10a.53.53 0 0 1-.08-.16 3.47 3.47 0 0 1-.18-1.51c0-.02.01-.03.03-.02h.01a4.1 4.1 0 0 0 .23 1.52l.02.16V10H5Z" fill="#50443A"/><path d="m9.9 8.49.25.26c.05.04.1.05.18.04.02 0 .02-.02.02-.03v-.12l.06.2-.01.04a.04.04 0 0 1-.05.01 1.24 1.24 0 0 1-.56-.5c-.06-.1-.05-.1.02-.03l.1.13Z" fill="#979389"/><path d="m7.36 11.88-.01-.02c.1-.18.12-.35.03-.51a16.24 16.24 0 0 1-.42-.88v.01a8.1 8.1 0 0 0 .46 1.07l-.02.01a6.35 6.35 0 0 1-.6-1.41l-.01.02.13.5-.17-.63a4.75 4.75 0 0 1-.13-1.3h.02l.01.02c-.02.41.03.8.16 1.19.13.4.33.85.6 1.35.11.2.1.4-.05.58Z" fill="#696868"/><path d="M12.16 9.11c.07.04.14.07.2.12.06.04.1.1.13.17.1.29.1.58.03.88.06-.33.03-.64-.09-.95h-.01s-.01 0 0 0l.1.34a.9.9 0 0 0-.24-.38 1.53 1.53 0 0 0-.38-.23c-.02 0-.02-.02-.02-.04a.52.52 0 0 1 .14-.18v.24l.04.04h.1Z" fill="#776851"/><path d="M9.83 9.7a1.02 1.02 0 0 0-.7 0 .37.37 0 0 1-.17-.33c0-.1-.03-.16-.1-.19a.05.05 0 0 1-.02-.03V9.1c.08-.1.17-.17.28-.21.26-.1.5-.07.73.07.18.12.28.3.3.53 0 .03-.01.05-.04.04-.15-.03-.25.03-.28.17Z" fill="#696868"/><path d="M4.42 9.37c-.2.02-.4.1-.6.23a1.84 1.84 0 0 0-.46.47c-.07-.25-.06-.4.02-.47a5 5 0 0 1 .65-.43.6.6 0 0 0 .16-.16l.05-.06h.03l.02.01.13.4Z" fill="#2D2824"/><path d="M9.78 9.15a1 1 0 0 0-.59-.07c-.02 0-.03 0-.05-.02-.02-.02-.01-.05 0-.08a.06.06 0 0 1 .05-.03c.14-.01.25-.02.33-.01.11.01.21.05.3.1l.02.04v.04c-.02.03-.03.04-.06.03Z" fill="#F0F1E3"/><path d="m12.52 10.28-.2.33h-.02v-.02l.09-.16c.1-.24.15-.5.12-.76a3.3 3.3 0 0 0-.1-.35h.02c.12.32.15.63.09.96Z" fill="#696868"/><path d="M4.42 9.37c.14.26.3.5.51.73.04.04.08.05.12.02.03-.01.06 0 .07.03a4.17 4.17 0 0 0 .68 1.17l.55.63c.05.05.11.06.18.03.14.07.24.14.3.23l.2.27c.19.24.32.42.39.54.1.18.21.35.33.52.17.24.28.52.35.82.01.07 0 .07-.02 0a12.03 12.03 0 0 0-1.26-2.03.94.94 0 0 0-.4-.3H6.4a4.28 4.28 0 0 0 .28 1.19c.04.1.1.16.18.2l.04.87c0 .02-.01.03-.03.05a.05.05 0 0 1-.05 0l-.38-.17a.07.07 0 0 1-.03-.04l-.13-.35c-.01-.04-.04-.06-.08-.06s-.07.03-.08.07v.03a1.1 1.1 0 0 0-.01-.67 18.9 18.9 0 0 0-.95-2.23.07.07 0 0 0-.06-.04c-.01 0-.04.01-.08.06l.05-.35c0-.02 0-.04-.02-.05 0-.01-.02-.02-.04-.01a.09.09 0 0 0-.05.03c-.08.1-.14.2-.2.31l.18-.38a.1.1 0 0 0 .01-.05c0-.16-.08-.23-.2-.21a.45.45 0 0 0-.3.16c-.19.21-.32.4-.4.58-.09.2-.12.44-.1.7a1.97 1.97 0 0 1-.22-.42l-.31-.9a1.1 1.1 0 0 1-.05-.27c.13-.2.28-.35.46-.48.2-.13.4-.21.6-.23Z" fill="#50443A"/><path d="M11.11 9.47c.05.17.05.34.01.5 0 .03-.02.04-.05.05-.02.01-.04 0-.06-.02.03-.18.02-.36-.02-.53-.01-.04 0-.06.04-.07.03 0 .05.01.08.06v.02Z" fill="#020102"/><path d="M9.83 9.7a.57.57 0 0 1-.39.23l-.05-.01-.27-.23c.23-.08.47-.08.7 0Z" fill="#979389"/><path d="M9.94 10.96a.85.85 0 0 1-.41-.27 6.97 6.97 0 0 1-.25-.37c-.02-.03-.05-.04-.09-.03-.32.12-.65.16-1 .1a12.76 12.76 0 0 1-.42-.21.8.8 0 0 1-.28-.3.24.24 0 0 1-.02-.08c-.01-.05 0-.08.02-.09.03 0 .05 0 .07.04.04.1.12.2.22.26.34.24.67.34 1 .3a1.9 1.9 0 0 0 .43-.14c.07-.02.11 0 .15.06.1.21.2.37.33.46.14.12.32.18.54.19.23 0 .4-.08.54-.24.01-.02.03-.02.06 0l.02.04a.1.1 0 0 1-.03.1.72.72 0 0 1-.42.21c-.11.02-.27 0-.46-.03Z" fill="#020102"/><path d="M4.75 10.87c-.1.17-.16.3-.18.39a40.37 40.37 0 0 0-.17.93v.07c0 .1-.03.12-.09.03l-.38-.61c-.01-.27.02-.5.11-.71.08-.17.21-.37.4-.58.09-.1.18-.15.3-.16.12-.02.2.05.2.2a.1.1 0 0 1 0 .06l-.2.38Z" fill="#6D5849"/><path d="m7.35 11.86-.03-.04a.77.77 0 0 0-.04-.35c-.08-.22-.2-.5-.36-.8l-.13-.5v-.02h.02l.2.6a6.35 6.35 0 0 0 .4.81h.01v-.02a8.1 8.1 0 0 1-.46-1.07h.01l.41.88c.09.16.07.33-.03.5Z" fill="#776851"/><path d="M9.94 10.96a.97.97 0 0 1-.58-.13 5.56 5.56 0 0 1-.28-.16c-.25.03-.48-.02-.68-.14a8.68 8.68 0 0 1-.2-.14c.34.06.67.02 1-.1.03-.01.06 0 .08.03l.25.37c.07.11.21.2.4.27ZM6.1 13.82c.01.06 0 .1-.05.1H6a.27.27 0 0 1-.1-.17 6.13 6.13 0 0 0-.58-1.62c-.19-.38-.3-.78-.31-1.2.04-.04.07-.06.08-.05.03 0 .05.01.06.04.37.73.68 1.47.95 2.23.07.2.07.43 0 .67Z" fill="#6D5849"/><path d="M4.62 11.61c.04-.2.1-.38.19-.56.04-.08.06-.08.05.02 0 .08 0 .15.02.23.08.32.2.64.35.94v.06l-.04.04c-.19.05-.39.05-.6.01-.03 0-.05-.02-.06-.05-.01-.14 0-.28.03-.42l.06-.27ZM13.37 12.71a1.1 1.1 0 0 0-.3-.43.07.07 0 0 0-.06-.02.07.07 0 0 0-.05.03c-.2.3-.24.62-.12.97l-.16.14c-.08.08-.15.06-.2-.03a.74.74 0 0 1-.09-.32c-.02-.36 0-.67.05-.93a2.71 2.71 0 0 1 .4-.86c.04-.07.06-.06.07.02.03.17.09.32.17.44l.26.35c.1.12.15.2.18.27.06.13 0 .26-.15.37ZM10.32 11.82a.9.9 0 0 1 .35-.09l.61-.03c.03 0 .04.01.03.04a.26.26 0 0 0 0 .12c0 .02.01.03.03.04h.05l.56-.27c.05-.03.06-.01.04.04-.09.16-.14.32-.17.48-.05.3-.08.6-.09.9 0 .03-.01.04-.04.04a5.3 5.3 0 0 1-1.25-.1 2.5 2.5 0 0 0-.29-.05.05.05 0 0 1-.04-.03 1.37 1.37 0 0 1-.06-.59c.02-.25.11-.41.27-.5Z" fill="#2D2824"/><path d="m10.13 11.64-.17.1c-.13.05-.3.12-.48.22a.73.73 0 0 0-.39.69.94.94 0 0 0-.16.36 3.2 3.2 0 0 0-.22-.35c-.2-.27-.32-.53-.39-.77v-.05a.05.05 0 0 1 .05-.02l1.46-.12c.06.03.16.01.3-.06Z" fill="#776851"/><path d="m9.96 11.74-.12.12c-.23.13-.42.3-.57.52l-.18.27c0-.32.13-.54.4-.69.18-.1.34-.17.47-.22Z" fill="#6D5849"/><path d="M9.27 12.38c.15-.21.34-.39.57-.52a.3.3 0 0 1 .2-.09v.02l-.09.02c-.25.16-.48.35-.68.57Zm-1.54.61.15.43a8.1 8.1 0 0 1-.3-.4 5.76 5.76 0 0 0-1.02-1.09c.09 0 .2.04.32.14.13.1.23.15.32.14a.1.1 0 0 1 .12.06l.41.72Z" fill="#50443A"/><path d="M11.05 13.01h-.17c-.02 0-.04 0-.05-.03a.76.76 0 0 1-.11-.27c-.09-.42.06-.7.45-.83.03 0 .05 0 .07.02.02.02.03.04.02.06l-.17 1.01c0 .03-.02.04-.04.04Zm-3.17.41a5.15 5.15 0 0 1 .26 1.27.04.04 0 0 1-.03.02l-.64-.14a.12.12 0 0 1-.1-.08 5.5 5.5 0 0 0-.22-.6 1.58 1.58 0 0 0-.3-.46.4.4 0 0 1-.18-.21 4.28 4.28 0 0 1-.28-1.19.04.04 0 0 1 .04 0 .9.9 0 0 1 .4.3 12.04 12.04 0 0 1 1.27 2.03 2.2 2.2 0 0 0-.35-.82 8.96 8.96 0 0 1-.33-.52 6.22 6.22 0 0 0-.59-.8.81.81 0 0 0-.3-.24l.02-.03.01-.02a3.45 3.45 0 0 1 .59.58c.1.1.24.28.42.52l.31.4Zm5.49-.71-.53.55c-.12-.35-.08-.68.12-.97a.07.07 0 0 1 .05-.03c.02 0 .04 0 .06.02.13.12.23.26.3.43Z" fill="#6D5849"/><path d="M11.2 14.33c-.64.26-1.31.41-2 .43a4.2 4.2 0 0 0-.87-1.06.84.84 0 0 0-.25-.15 8.09 8.09 0 0 0-.44-1.1c.15.06.25.13.3.2a6.26 6.26 0 0 0 1.53 1.49c.13.08.27.13.4.15a2.82 2.82 0 0 0 .57-.03c.26-.02.51 0 .77.07Z" fill="#C4BDA9"/><path d="M5.54 12.95a.56.56 0 0 0-.49.22 3.3 3.3 0 0 1-.52-.6v-.04c0-.02.01-.02.03-.02.24.03.48 0 .71-.06.05 0 .07 0 .1.05l.17.45Z" fill="#2D2824"/><path d="M9.3 12.65c.17.22.39.4.64.53.19.1.44.2.77.3a1 1 0 0 1 .47.37c-.03.04-.02.1.04.15-.42-.15-.84-.29-1.27-.4a1.54 1.54 0 0 1-.47-.25l-.44-.33c.06-.25.14-.37.25-.37Z" fill="#776851"/><path d="M9.47 12.78c.14.11.29.2.45.27.28.12.58.23.87.33.19.06.36.15.52.25.18.11.3.28.35.48-.14-.04-.3-.13-.48-.26a.99.99 0 0 0-.47-.37c-.33-.1-.58-.2-.77-.3a2.2 2.2 0 0 1-.65-.53l.18.13Z" fill="#6D5849"/><path d="M11.66 14.11a.77.77 0 0 0-.35-.48c-.16-.1-.33-.19-.52-.25-.3-.1-.59-.2-.88-.33-.15-.07-.3-.16-.44-.27a2.66 2.66 0 0 0 1.04.33l.41.06c.3.01.63.04.96.09.16.02.35.1.56.26.02.01.03.03 0 .05-.21.21-.48.4-.78.54Z" fill="#2D2824"/><path d="M5.54 12.95c.1.24.17.48.22.72.02.08 0 .1-.07.04l-.64-.54c.14-.16.3-.24.5-.22Z" fill="#6D5849"/><path d="M9.2 14.76c-.3.02-.58 0-.86-.04-.03-.01-.04-.03-.05-.06a4.32 4.32 0 0 0-.2-1.1c.1.03.18.08.24.14.34.3.63.65.87 1.06ZM7.05 14c.06.13.1.27.13.42 0 .02 0 .03-.03.03a.2.2 0 0 1-.1-.04.06.06 0 0 1-.02-.04 1.78 1.78 0 0 1 0-.36c0-.04 0-.04.02 0Z" fill="#F0F1E3"/></svg>