<!-- by TradingView --><svg xmlns="http://www.w3.org/2000/svg" width="18" height="18"><path fill="#9D2136" d="M0 0h18v18H0z"/><path fill-rule="evenodd" d="M14.5 9a5.5 5.5 0 11-11 0 5.5 5.5 0 0111 0zM9 14A5 5 0 109 4a5 5 0 000 10zm2.27-5.6c-.2.07-.4.13-.6.14a.6.6 0 01-.18-.02c-.1-.02-.12-.11-.07-.2l.06-.09.01-.01.08-.09a20.07 20.07 0 00.3-.39l.03-.06.02-.03h-.07a.34.34 0 01-.37-.15l-.01-.01-.01.01-.02.02c-.15.22-.31.43-.5.61-.14.15-.31.28-.5.35-.25.1-.5.08-.74 0l-.14-.06c-.07-.03-.08-.05-.02-.1l.25-.23.06-.05a2.04 2.04 0 01.07-.06l.06.02c.1.06.2.08.31.07a.7.7 0 00.28-.1c.13-.08.24-.18.35-.28.17-.18.32-.36.47-.55l.07-.09a22.02 22.02 0 01.57-.66l.07-.06.03-.03.01-.02-.08-.02a1.68 1.68 0 00-1.48.34.84.84 0 00-.15.2c-.17.3.06.55.29.56h.11v.02l-.02.03a20 20 0 01-.3.25.65.65 0 01-.35-.13c-.14-.12-.17-.27-.13-.45.04-.17.14-.31.25-.44.16-.18.36-.32.58-.43a2.16 2.16 0 011.44-.15l.07.01.08-.01a.2.2 0 01.14-.05h.14v.01l-.05.05-.1.08.02.01.03.02c.13.08.22.18.3.3.12.24.09.51-.08.72a1.1 1.1 0 01-.45.31l-.22.08c.03.11 0 .2-.04.3l-.05.1a5.76 5.76 0 00-.08.18c-.03.07 0 .12.08.12h.08l.18-.06.05-.02.04-.02-.02.07-.03.1-.12.04zm.04-2.03c-.27.27-.48.58-.69.9.18-.05.33 0 .46.13.11-.06.22-.13.3-.22a.7.7 0 00.17-.24.4.4 0 00-.06-.4.7.7 0 00-.18-.17zm-.4 1.1c-.06-.11-.24-.14-.31-.05.07.1.2.12.3.05zm-2.73.73l-.05.02-.15.05c-.17.05-.33.1-.5.12l-.17-.01c-.1-.01-.13-.06-.14-.16h-.02l-.03.02c-.18.08-.37.14-.57.15-.09.01-.17 0-.25-.03-.21-.08-.33-.3-.3-.54.04-.21.13-.4.26-.57a2.64 2.64 0 011.94-1.1c.14-.01.3.01.46.1h.01a.22.22 0 01.21-.08 2.83 2.83 0 00.3 0h.04c.03 0 .03.02.02.05l-.02.03H9.2a336.98 336.98 0 00-.62.76l-.66.81a1.4 1.4 0 00-.08.12v.01L7.81 8v.02c-.02.02-.03.05 0 .07.01.03.04.03.07.02a11.77 11.77 0 00.47-.19.22.22 0 00.07-.06l-.25.35zm.02-1.89h.04c.03 0 .07.01.1.03.09.03.12.1.09.2a.66.66 0 01-.12.2l-.24.28c-.2.25-.4.5-.61.73a.9.9 0 01-.57.3.4.4 0 01-.27-.06.245.245 0 01-.1-.25.79.79 0 01.06-.2c.08-.17.19-.31.3-.44.22-.24.46-.45.74-.6a1.48 1.48 0 01.5-.19h.08zm.57 4.42a.3.3 0 00-.03.23.3.3 0 00.08.13c.05.05.12.09.2.09a.28.28 0 00.24-.15l.01-.02a.31.31 0 000-.29h-.5zm.46-.11H7.97a.74.74 0 01.27-.47c.11-.1.26-.15.41-.15h.78c.1 0 .18.01.27.03h.02a1.05 1.05 0 01.48.3l.02.02.03.04.45.47.02.02.13.13.18.19.06.07a.61.61 0 01-.09.07.58.58 0 01-.71-.04l-.02-.02-.38-.4-.07-.07-.04-.04-.01-.01a.48.48 0 00-.33-.14h-.21zm-.17.84l-.01-.01-.03-.03-.07-.08-.18-.18-.01-.02-.08-.08-.02-.02a1.03 1.03 0 00-.2-.16.94.94 0 00-.5-.16h-.09a.57.57 0 00-.4.15.64.64 0 00-.1.82c-.02-.17.1-.33.27-.35h.34a.39.39 0 01.25.12l.09.1.3.3v.02l.03.03.02.02.1.1.25.26.09.1.02.02.13.14.17.18.06.06.07.08a.64.64 0 000-.88l-.02-.02-.1-.12-.18-.18-.15-.16-.02-.02-.02-.03h-.01zM13 9.32H5v.31h8v-.31z" fill="#F0F3FA"/></svg>