<!-- by TradingView --><svg width="18" height="18" viewBox="0 0 18 18" xmlns="http://www.w3.org/2000/svg"><path fill="url(#afklmsbm4)" d="M0 0h18v18H0z"/><path d="M13.35 8.72c-.37 0-.64.19-.64.28.27 0 .8.11.8.56 0 .44-.75.92-1.12 1.1.64 0 1.61-.41 1.61-1.1 0-.53-.32-.84-.65-.84Z" fill="url(#bfklmsbm4)"/><path d="M13.52 9.56c0-.56-.54-.6-.81-.56v.7c.39 0 .48.09.48.13h-.16c-.13.23-.48.37-.64.42v.42c.37-.14 1.13-.56 1.13-1.11Z" fill="#BBA1A2"/><path d="M4.65 8.72c.37 0 .64.19.64.28-.27 0-.8.11-.8.56 0 .44.75.92 1.12 1.1-.64 0-1.61-.41-1.61-1.1 0-.53.32-.84.65-.84Z" fill="url(#cfklmsbm4)"/><path d="M4.48 9.56c0-.56.54-.6.81-.56v.7c-.39 0-.48.09-.48.13h.16c.13.23.48.37.64.42v.42c-.37-.14-1.13-.56-1.13-1.11Z" fill="#BBA1A2"/><path d="M7.71 5.53C7.97 5.3 8.79 4.42 9.16 4v1.11l-.48 2.5c-.43-.6-1.23-1.86-.97-2.08Z" fill="url(#dfklmsbm4)"/><path d="M10.61 5.53A30.52 30.52 0 0 1 9.16 4v1.11l.48 2.5c.44-.6 1.23-1.86.97-2.08Z" fill="url(#efklmsbm4)"/><path d="M8.52 7.06C8 6.5 7.76 5.25 7.7 4.69c-.97.98-.22 2.13.16 2.64l.65-.27Z" fill="url(#ffklmsbm4)"/><path d="M6.26 6.22c.13-.78 1.02-1.34 1.45-1.53-.9.9-.48 2.13-.16 2.64 0 0-.2.02-.32 0-.63-.07-.97-1.1-.97-1.1Z" fill="url(#gfklmsbm4)"/><path d="M9.8 7.06c.52-.56.76-1.81.81-2.37.97.98.22 2.13-.16 2.64l-.64-.27Z" fill="url(#hfklmsbm4)"/><path d="M12.06 6.22c-.12-.78-1.02-1.34-1.45-1.53.9.9.49 2.13.16 2.64 0 0 .2.02.33 0 .62-.07.96-1.1.96-1.1Z" fill="url(#ifklmsbm4)"/><path d="M7.22 7.33C6.71 7 6.15 5.9 5.93 5.4c-.38 1 .38 1.9.81 2.22l.48-.28Z" fill="url(#jfklmsbm4)"/><path d="M5.93 8.44c-1.16-.88-.48-2.4 0-3.05-.25 1.33.22 2.04.49 2.22l-.49.83Z" fill="url(#kfklmsbm4)"/><path d="M8.2 13.3c-.34-.28-.6-1.1-.65-1.52h1.29L9.16 14c-.32-.42-.64-.42-.97-.7Z" fill="url(#lfklmsbm4)"/><path d="M10.13 13.3c.33-.28.59-1.1.64-1.52H9.48L9.16 14c.32-.42.65-.42.97-.7Z" fill="url(#mfklmsbm4)"/><path d="M11.1 7.33C11.6 7 12.17 5.9 12.39 5.4c.38 1-.38 1.9-.81 2.22l-.48-.28Z" fill="url(#nfklmsbm4)"/><path d="M12.39 8.44c1.16-.88.48-2.4 0-3.05.25 1.33-.22 2.04-.49 2.22l.49.83Z" fill="url(#ofklmsbm4)"/><path d="M8.51 11.22c-.51.56-.75 1.8-.8 2.36-.97-.97-.22-2.13.16-2.64l.64.28Z" fill="url(#pfklmsbm4)"/><path d="M6.25 12.06c.13.77 1.03 1.34 1.46 1.52-.9-.89-.49-2.13-.17-2.64h-.32c-.62.08-.97 1.12-.97 1.12Z" fill="url(#qfklmsbm4)"/><path d="M9.8 11.22c.52.56.76 1.8.81 2.36.97-.97.22-2.13-.16-2.64l-.64.28Z" fill="url(#rfklmsbm4)"/><path d="M12.06 12.06c-.12.77-1.02 1.34-1.45 1.52.9-.89.49-2.13.16-2.64h.33c.62.08.96 1.12.96 1.12Z" fill="url(#sfklmsbm4)"/><path d="M7.22 10.94c-.51.34-1.07 1.44-1.29 1.95-.39-1 .38-1.9.8-2.22l.5.27Z" fill="url(#tfklmsbm4)"/><path d="M6.12 9.56c-1.16.88-.67 2.68-.19 3.33-.26-1.33.83-2.6 1.1-2.78l-.9-.55Z" fill="url(#ufklmsbm4)"/><path d="M11.1 10.94c.51.34 1.07 1.44 1.29 1.95.38-1-.38-1.9-.8-2.22l-.5.27Z" fill="url(#vfklmsbm4)"/><path d="M12.03 9.7c1.16.88.84 2.54.36 3.19a3.3 3.3 0 0 0-.97-2.78l.61-.42Z" fill="url(#wfklmsbm4)"/><path d="M4.97 6.78c-1.16 1.78.32 3.33 1.29 3.33l-.32-.83c-.78-.22-.97-1.76-.97-2.5Z" fill="url(#xfklmsbm4)"/><path d="M6.26 7.89a3.95 3.95 0 0 1-1.3-1.11c-.12 1 .6 1.71.98 1.94l.32-.83Z" fill="url(#yfklmsbm4)"/><path d="M13.2 6.64c1.15 1.78-.17 2.96-.97 3.33v-.83c.77-.22.96-1.76.96-2.5Z" fill="url(#zfklmsbm4)"/><path d="M11.9 7.75a3.95 3.95 0 0 0 1.3-1.11c.12 1-.6 1.71-.97 1.94l-.33-.83Z" fill="url(#aafklmsbm4)"/><path d="M5.97 8.43c0-.54.55-1.6 1.8-1.6l-.34-.33c.52.05 1.22.28 1.72.56.41-.28.98-.43 1.82-.56l-.3.32c.52.06 1.52.45 1.66 1.61 0 .38-.09 1.22-1.07 1.6.24.06.62.27.62.91 0 .8-1.37 1.67-2.73 1.67-1.04 0-2.42-.54-2.42-1.67 0-.76.27-.92.5-.92-.59-.09-1.4-.53-1.26-1.59Z" fill="url(#abfklmsbm4)"/><path d="M6.42 8.17c-.53 0-.6.27-.6.41 0 .78 0 1.8.5 1.8h1c.83 0 1.17-1.24 1.83-1.24.77 0 .78 1.1 1.67 1.25h1c.66 0 .66-1.39.66-1.8 0-.34-.38-.42-.6-.42h-1.36c-.3 0-.97.55-1.37.55-.4 0-.9-.55-1.33-.55h-1.4Z" fill="url(#acfklmsbm4)"/><path d="M6.12 9.7v-.28l.76-.98h.3l-.53.63-.53.62Z" fill="url(#adfklmsbm4)"/><path d="M10.36 9.7v-.28l.76-.98h.3l-.53.63-.53.62Z" fill="url(#aefklmsbm4)"/><path d="M6.12 10.11v-.28l1.21-1.39h.3l-1.5 1.67Z" fill="url(#affklmsbm4)"/><path d="M10.36 10.11v-.28l1.22-1.39h.3l-1.52 1.67Z" fill="url(#agfklmsbm4)"/><path d="M6.58 10.11h-.3l1.5-1.67h.31l-1.51 1.67Z" fill="url(#ahfklmsbm4)"/><path d="M10.82 10.11h-.3l1.51-1.67h.3l-1.51 1.67Z" fill="url(#aifklmsbm4)"/><path d="M9.76 10.67H8.54c-.3 0-.3.16-.3.31 0 .16.3.8.91.8.6 0 .9-.48.9-.8 0-.25-.2-.31-.3-.31Z" fill="url(#ajfklmsbm4)"/><path d="M9.17 10.94c-.21 0-.58.33-.67.42a.7.7 0 0 0 .65.42.7.7 0 0 0 .65-.42c-.09-.1-.41-.42-.63-.42Z" fill="url(#akfklmsbm4)"/><path d="M8.7 10.39h.33s-.22-.28-.32-.28c-.11 0-.16.06-.16.14 0 .08.05.14.16.14ZM9.62 10.39H9.3s.22-.28.32-.28c.11 0 .17.06.17.14 0 .08-.06.14-.17.14Z" fill="#020207"/><defs><linearGradient id="afklmsbm4" x1="3.35" y1="3.12" x2="21.9" y2="24.43" gradientUnits="userSpaceOnUse"><stop stop-color="#1A1E21"/><stop offset="1" stop-color="#06060A"/></linearGradient><linearGradient id="bfklmsbm4" x1="13.68" y1="8.86" x2="13.19" y2="10.71" gradientUnits="userSpaceOnUse"><stop stop-color="#7BCC73"/><stop offset="1" stop-color="#158885"/></linearGradient><linearGradient id="cfklmsbm4" x1="4.32" y1="8.86" x2="4.81" y2="10.71" gradientUnits="userSpaceOnUse"><stop stop-color="#7BCC73"/><stop offset="1" stop-color="#158885"/></linearGradient><linearGradient id="dfklmsbm4" x1="8.41" y1="4" x2="8.41" y2="7.61" gradientUnits="userSpaceOnUse"><stop stop-color="#0E9284"/><stop offset="1" stop-color="#76BE62"/></linearGradient><linearGradient id="efklmsbm4" x1="9.48" y1="4.14" x2="9.8" y2="7.62" gradientUnits="userSpaceOnUse"><stop stop-color="#8ECB63"/><stop offset="1" stop-color="#4DBA76"/></linearGradient><linearGradient id="ffklmsbm4" x1="7.92" y1="4.69" x2="7.92" y2="7.33" gradientUnits="userSpaceOnUse"><stop stop-color="#0D827C"/><stop offset="1" stop-color="#58B56E"/></linearGradient><linearGradient id="gfklmsbm4" x1="6.98" y1="4.69" x2="6.98" y2="7.33" gradientUnits="userSpaceOnUse"><stop stop-color="#70AB6B"/><stop offset="1" stop-color="#2EA881"/></linearGradient><linearGradient id="hfklmsbm4" x1="10.73" y1="4.56" x2="10.73" y2="7.19" gradientUnits="userSpaceOnUse"><stop stop-color="#0D827C"/><stop offset="1" stop-color="#58B56E"/></linearGradient><linearGradient id="ifklmsbm4" x1="11.66" y1="4.56" x2="11.66" y2="7.19" gradientUnits="userSpaceOnUse"><stop stop-color="#70AB6B"/><stop offset="1" stop-color="#2EA881"/></linearGradient><linearGradient id="jfklmsbm4" x1="5.93" y1="5.53" x2="6.68" y2="7.69" gradientUnits="userSpaceOnUse"><stop stop-color="#199584"/><stop offset="1" stop-color="#6AB562"/></linearGradient><linearGradient id="kfklmsbm4" x1="5.86" y1="5.39" x2="5.86" y2="8.44" gradientUnits="userSpaceOnUse"><stop stop-color="#6EB374"/><stop offset=".57" stop-color="#4AB67C"/><stop offset="1" stop-color="#74B960"/></linearGradient><linearGradient id="lfklmsbm4" x1="8.35" y1="11.78" x2="8.35" y2="14" gradientUnits="userSpaceOnUse"><stop stop-color="#12837F"/><stop offset="1" stop-color="#ACDA5F"/></linearGradient><linearGradient id="mfklmsbm4" x1="9.97" y1="11.78" x2="9.97" y2="14" gradientUnits="userSpaceOnUse"><stop stop-color="#12837F"/><stop offset="1" stop-color="#ACDA5F"/></linearGradient><linearGradient id="nfklmsbm4" x1="12.71" y1="5.39" x2="11.96" y2="7.55" gradientUnits="userSpaceOnUse"><stop stop-color="#199584"/><stop offset="1" stop-color="#6AB562"/></linearGradient><linearGradient id="ofklmsbm4" x1="12.79" y1="5.25" x2="12.79" y2="8.31" gradientUnits="userSpaceOnUse"><stop stop-color="#6EB374"/><stop offset=".57" stop-color="#4AB67C"/></linearGradient><linearGradient id="pfklmsbm4" x1="7.91" y1="13.58" x2="7.91" y2="10.94" gradientUnits="userSpaceOnUse"><stop stop-color="#0D827C"/><stop offset="1" stop-color="#58B56E"/></linearGradient><linearGradient id="qfklmsbm4" x1="6.98" y1="13.58" x2="6.98" y2="10.94" gradientUnits="userSpaceOnUse"><stop stop-color="#70AB6B"/><stop offset="1" stop-color="#2EA881"/></linearGradient><linearGradient id="rfklmsbm4" x1="10.4" y1="13.58" x2="10.4" y2="10.94" gradientUnits="userSpaceOnUse"><stop stop-color="#0D827C"/><stop offset="1" stop-color="#58B56E"/></linearGradient><linearGradient id="sfklmsbm4" x1="11.34" y1="13.58" x2="11.34" y2="10.94" gradientUnits="userSpaceOnUse"><stop stop-color="#70AB6B"/><stop offset="1" stop-color="#2EA881"/></linearGradient><linearGradient id="tfklmsbm4" x1="5.93" y1="12.75" x2="6.68" y2="10.59" gradientUnits="userSpaceOnUse"><stop stop-color="#199584"/><stop offset="1" stop-color="#6AB562"/></linearGradient><linearGradient id="ufklmsbm4" x1="5.85" y1="12.89" x2="5.85" y2="9.83" gradientUnits="userSpaceOnUse"><stop stop-color="#6EB374"/><stop offset=".57" stop-color="#4AB67C"/><stop offset="1" stop-color="#74B960"/></linearGradient><linearGradient id="vfklmsbm4" x1="12.39" y1="12.75" x2="11.64" y2="10.59" gradientUnits="userSpaceOnUse"><stop stop-color="#199584"/><stop offset="1" stop-color="#6AB562"/></linearGradient><linearGradient id="wfklmsbm4" x1="12.47" y1="12.89" x2="12.47" y2="9.83" gradientUnits="userSpaceOnUse"><stop stop-color="#6EB374"/><stop offset=".57" stop-color="#4AB67C"/><stop offset="1" stop-color="#74B960"/></linearGradient><linearGradient id="xfklmsbm4" x1="4.81" y1="7.19" x2="5.54" y2="9.9" gradientUnits="userSpaceOnUse"><stop stop-color="#84BA5D"/><stop offset="1" stop-color="#1D9B85"/></linearGradient><linearGradient id="yfklmsbm4" x1="4.97" y1="6.78" x2="5.87" y2="8.56" gradientUnits="userSpaceOnUse"><stop stop-color="#108A82"/><stop offset="1" stop-color="#42A77F"/></linearGradient><linearGradient id="zfklmsbm4" x1="13.84" y1="7.06" x2="13.1" y2="9.76" gradientUnits="userSpaceOnUse"><stop stop-color="#84BA5D"/><stop offset="1" stop-color="#1D9B85"/></linearGradient><linearGradient id="aafklmsbm4" x1="13.68" y1="6.64" x2="12.78" y2="8.42" gradientUnits="userSpaceOnUse"><stop stop-color="#108A82"/><stop offset="1" stop-color="#42A77F"/></linearGradient><linearGradient id="abfklmsbm4" x1="9.17" y1="6.98" x2="9.38" y2="12.61" gradientUnits="userSpaceOnUse"><stop stop-color="#EFE6E7"/><stop offset="1" stop-color="#AF888B"/></linearGradient><linearGradient id="acfklmsbm4" x1="9" y1="8.44" x2="9.15" y2="10.24" gradientUnits="userSpaceOnUse"><stop stop-color="#041D21"/><stop offset="1" stop-color="#050306"/></linearGradient><linearGradient id="adfklmsbm4" x1="7.03" y1="8.44" x2="6.23" y2="9.76" gradientUnits="userSpaceOnUse"><stop stop-color="#394F51"/><stop offset="1" stop-color="#374D50" stop-opacity=".08"/></linearGradient><linearGradient id="aefklmsbm4" x1="11.27" y1="8.44" x2="10.47" y2="9.76" gradientUnits="userSpaceOnUse"><stop stop-color="#394F51"/><stop offset="1" stop-color="#374D50" stop-opacity=".08"/></linearGradient><linearGradient id="affklmsbm4" x1="7.03" y1="9" x2="6.23" y2="10.31" gradientUnits="userSpaceOnUse"><stop stop-color="#394F51"/><stop offset="1" stop-color="#374D50" stop-opacity=".08"/></linearGradient><linearGradient id="agfklmsbm4" x1="11.27" y1="9" x2="10.47" y2="10.31" gradientUnits="userSpaceOnUse"><stop stop-color="#394F51"/><stop offset="1" stop-color="#374D50" stop-opacity=".08"/></linearGradient><linearGradient id="ahfklmsbm4" x1="7.64" y1="9" x2="6.83" y2="10.31" gradientUnits="userSpaceOnUse"><stop stop-color="#394F51"/><stop offset="1" stop-color="#374D50" stop-opacity=".08"/></linearGradient><linearGradient id="aifklmsbm4" x1="11.88" y1="9" x2="11.08" y2="10.31" gradientUnits="userSpaceOnUse"><stop stop-color="#394F51"/><stop offset="1" stop-color="#374D50" stop-opacity=".08"/></linearGradient><linearGradient id="ajfklmsbm4" x1="9.15" y1="10.67" x2="9.15" y2="11.78" gradientUnits="userSpaceOnUse"><stop stop-color="#021B1F"/><stop offset="1" stop-color="#0B1110"/></linearGradient><linearGradient id="akfklmsbm4" x1="9.46" y1="10.81" x2="9.46" y2="11.5" gradientUnits="userSpaceOnUse"><stop stop-color="#5C1B15"/><stop offset="1" stop-color="#2E0002"/></linearGradient></defs></svg>