<!-- by TradingView --><svg width="18" height="18" viewBox="0 0 18 18" xmlns="http://www.w3.org/2000/svg"><path fill="#F0F3FA" d="M0 0h18v18H0z"/><path d="M14 9c0 2.76-2.37 5-5.3 5a5.4 5.4 0 0 1-4.1-1.84c.66.43 1.46.69 2.31.69 2.22 0 4.01-1.7 4.01-3.79a3.9 3.9 0 0 0-4-3.78c-.97 0-1.85.32-2.55.85A5.38 5.38 0 0 1 8.71 4C11.63 4 14 6.24 14 9ZM4 9c0 1.53 1.3 2.76 2.92 2.76.74 0 1.4-.25 1.92-.67-.14.02-.29.04-.44.04a2.16 2.16 0 0 1-2.21-2.1c0-1.15.99-2.09 2.21-2.09.2 0 .37.02.55.07a3 3 0 0 0-2.03-.77A2.85 2.85 0 0 0 4 9Z" fill="url(#a5b5kxvph)"/><defs><linearGradient id="a5b5kxvph" x1="4" y1="9" x2="14" y2="9" gradientUnits="userSpaceOnUse"><stop stop-color="#7A5AFB"/><stop offset="1" stop-color="#2860ED"/></linearGradient></defs></svg>