<!-- by TradingView --><svg width="18" height="18" viewBox="0 0 18 18" xmlns="http://www.w3.org/2000/svg"><path fill="#F0F3FA" d="M0 0h18v18H0z"/><circle cx="9" cy="9" r="6" fill="url(#a)"/><path fill-rule="evenodd" d="M9 14.3A5.3 5.3 0 1 0 9 3.7a5.3 5.3 0 0 0 0 10.6Zm0 .7A6 6 0 1 0 9 3a6 6 0 0 0 0 12Z" fill="url(#b)"/><path d="M6.39 10.41c-.18 0-.7-.17-.53-.88l.08-.36c.09-.45.17-.84.45-.7.07.07 0 .33-.08.62-.11.45-.24.97.08.97.68-.09.87-1.34.98-2.61-1.06.09-1.25.01-1.2-.04 0-.05.5-.14 1.22-.24l.02-.27c.1-1.13.17-2.14.56-2.14.29 0 .46.96.56 2.26l.94-.11c.1-1.24.27-2.15.55-2.15.38 0 .46.94.55 2.03a9.17 9.17 0 0 1 1.95-.08c.1.1-.8.24-1.93.38.11 1.38.27 2.87 1.02 2.97.32 0 .18-.52.07-.97-.08-.29-.14-.55-.07-.62.28-.14.36.25.45.7l.07.36c.18.7-.35.88-.52.88-.7 0-1.24-1.59-1.41-3l-.04-.26-.42.05c-.03.75-.05 1.76-.07 2.77-.05 1.99-.09 3.97-.18 3.97-.11 0-.23-3.99-.04-6.7l-.9.09c.18 2.72.06 6.61-.05 6.61-.09 0-.13-1.98-.18-3.97l-.06-2.6a140.87 140.87 0 0 1-.46.04c-.18 1.41-.7 3-1.41 3Zm1.44-3.3.42-.06A4.08 4.08 0 0 0 8.15 6h-.09c-.08.05-.12.23-.23 1.1Zm1.93-.24.36-.03c-.08-.65-.11-.8-.2-.83L9.85 6c-.03 0-.06.34-.08.87Z" fill="#E7B73F"/><defs><linearGradient id="a" x1="9" y1="3" x2="9" y2="15" gradientUnits="userSpaceOnUse"><stop stop-color="#0B0801"/><stop offset="1" stop-color="#2D2102"/></linearGradient><linearGradient id="b" x1="9" y1="3" x2="9" y2="15" gradientUnits="userSpaceOnUse"><stop stop-color="#CB9714"/><stop offset="1" stop-color="#EFC55E"/></linearGradient></defs></svg>