<!-- by TradingView --><svg width="18" height="18" viewBox="0 0 18 18" xmlns="http://www.w3.org/2000/svg"><path fill="#181B1E" d="M0 0h18v18H0z"/><path d="m8.96 5.61-.2-.79c0-.04-.03-.05-.06-.04l-.23.06a.08.08 0 0 0-.05.06c-.11.45-.27.9-.36 1.37l-.18.86c.1-.8.17-1.59.22-2.37 0-.14.03-.28.06-.43.03-.2.14-.3.36-.33.36-.03.44.2.45.51v1.1Z" fill="#6F5523"/><path d="m8.96 5.61.01.54a1.63 1.63 0 0 0-.28-.78c-.02-.02-.04-.03-.06 0-.52.38-.51 1-.67 1.57-.09.34-.3.8-.37 1.24-.08.54-.29 2.38.61 2.46.34.03.55-.13.62-.47.11-.6.19-1.19.21-1.8v1.79c-.1.24-.2.56-.31.74-.22.32-.53.42-.94.3-.52-.16-.58-.71-.52-1.17.09-.7.17-1.4.24-2.11.07-.25.2-.51.38-.79l.18-.86c.1-.47.25-.92.36-1.37a.08.08 0 0 1 .05-.06l.23-.06c.03 0 .05 0 .06.04l.2.8Z" fill="#957334"/><path d="m8.97 6.15.06 2.22c-.02.61-.1 1.2-.21 1.8-.07.34-.28.5-.62.47-.9-.08-.7-1.92-.6-2.46.06-.44.27-.9.36-1.24.16-.57.15-1.19.67-1.58.02-.02.04-.01.06.01.16.23.25.5.28.78Z" fill="#B38B41"/><path d="M7.5 7.92c-.07.71-.15 1.42-.24 2.11-.06.46 0 1.01.52 1.17.41.12.72.02.94-.3.12-.18.2-.5.3-.74l.02.82c-.1.39-.25.69-.56.88-.37.23-.77.34-1.2.32-.7-.03-.78-.88-.72-1.42.2-.26.37-.54.5-.84.09-.18.15-.42.2-.72.06-.42.14-.85.24-1.28Z" fill="#6F5523"/><path d="M6.56 10.76c-.06.54.01 1.39.71 1.42.44.02.84-.09 1.2-.32.32-.2.47-.5.57-.88.04.4.01.8-.24 1.1-.05.05-.14.12-.29.2-.12.07-.24.17-.34.29l-.38.35a.1.1 0 0 1-.07.03 1.2 1.2 0 0 1-.93-.32c-.43-.41-.65-.91-.64-1.5l.41-.37Z" fill="#553E19"/><path d="M6.15 11.13c0 .59.2 1.09.64 1.5.25.23.56.34.93.32a.1.1 0 0 0 .07-.03l.38-.35c-.11.57-.4 1.14-.99 1.32-.11.03-.43.06-.95.08L4.71 14c-.23 0-.45-.03-.66-.1-.02-.01-.04-.03-.04-.05 0-.66-.05-1.22.12-1.76a.12.12 0 0 1 .05-.06l1.88-1.08a.06.06 0 0 1 .07 0 .06.06 0 0 1 .03.06l-.01.12Z" fill="#1F3547"/><path d="M8.53 6.09a.06.06 0 0 1 .1 0c.19.17.3.41.31.72a12.87 12.87 0 0 1-.2 2.87c-.38.32-.68.23-.85-.24-.17-.43-.22-.89-.15-1.35.02-.13.1-.37.24-.72.16-.4.27-.93.55-1.28Z" fill="#CEA34A"/><path d="m9.04 5.61.2-.79c0-.04.03-.05.06-.04l.23.06a.08.08 0 0 1 .05.06c.11.45.27.9.36 1.37l.18.86c-.1-.8-.17-1.59-.22-2.37 0-.14-.03-.28-.06-.43-.03-.2-.14-.3-.36-.33-.36-.03-.44.2-.45.51v1.1Z" fill="#6F5523"/><path d="m9.04 5.61-.01.54c.03-.29.12-.55.28-.78.02-.02.04-.03.06 0 .52.38.51 1 .67 1.57.09.34.3.8.37 1.24.08.54.29 2.38-.61 2.46-.34.03-.55-.13-.62-.47-.11-.6-.19-1.19-.21-1.8v1.79c.1.24.2.56.31.74.22.32.53.42.94.3.52-.16.58-.71.52-1.17-.09-.7-.17-1.4-.24-2.11-.07-.25-.2-.51-.38-.79l-.18-.86c-.1-.47-.25-.92-.36-1.37a.08.08 0 0 0-.05-.06l-.23-.06c-.03 0-.05 0-.06.04l-.2.8Z" fill="#957334"/><path d="m9.03 6.15-.06 2.22c.02.61.1 1.2.21 1.8.07.34.28.5.62.47.9-.08.7-1.92.6-2.46-.06-.44-.27-.9-.36-1.24-.16-.57-.15-1.19-.67-1.58-.02-.02-.04-.01-.06.01-.16.23-.25.5-.28.78Z" fill="#B38B41"/><path d="M10.5 7.92c.07.71.15 1.42.24 2.11.06.46 0 1.01-.52 1.17-.41.12-.72.02-.94-.3-.12-.18-.2-.5-.3-.74l-.02.82c.1.39.25.69.56.88.37.23.77.34 1.2.32.7-.03.78-.88.72-1.42-.2-.26-.37-.54-.5-.84a2.82 2.82 0 0 1-.2-.72 17 17 0 0 0-.24-1.28Z" fill="#6F5523"/><path d="M11.44 10.76c.06.54-.01 1.39-.71 1.42-.44.02-.84-.09-1.2-.32-.32-.2-.47-.5-.57-.88-.04.4-.01.8.24 1.1.05.05.14.12.29.2.12.07.24.17.34.29l.38.35a.1.1 0 0 0 .07.03c.37.02.68-.09.93-.32.43-.41.65-.91.64-1.5l-.41-.37Z" fill="#553E19"/><path d="M11.85 11.13c0 .59-.2 1.09-.64 1.5a1.2 1.2 0 0 1-.93.32.1.1 0 0 1-.07-.03l-.38-.35c.11.57.4 1.14.99 1.32.11.03.43.06.95.08l1.52.03c.23 0 .45-.03.66-.1.02-.01.04-.03.04-.05 0-.66.05-1.22-.12-1.76a.12.12 0 0 0-.05-.06l-1.88-1.08a.06.06 0 0 0-.07 0 .06.06 0 0 0-.03.06l.01.12Z" fill="#1F3547"/><path d="M9.47 6.09a.06.06 0 0 0-.1 0 1 1 0 0 0-.31.72 12.87 12.87 0 0 0 .2 2.87c.38.32.68.23.85-.24.17-.43.21-.89.15-1.35-.02-.13-.1-.37-.24-.72-.16-.4-.27-.93-.55-1.28Z" fill="#CEA34A"/></svg>