<!-- by TradingView --><svg width="18" height="18" viewBox="0 0 18 18" xmlns="http://www.w3.org/2000/svg"><path fill="#F0F3FA" d="M0 0h18v18H0z"/><path d="M3.12 7.85c-.14.07-.16.2-.04.28l.13.1a.77.77 0 0 0 .82.07l4.3-2.13c.11-.06.23-.1.36-.13h.03a1.35 1.35 0 0 1 .92.11l4.32 2.18a.52.52 0 0 0 .49 0l.42-.22c.14-.08.14-.2 0-.27l-5.28-2.7c-.37-.19-.82-.19-1.2 0l-5.27 2.7Z" fill="url(#a2qbqkg4v)"/><path d="M12.87 9.23a.22.22 0 0 0 0-.4L9.53 7.1a1.14 1.14 0 0 0-1.05 0l-5.33 2.7a.24.24 0 0 0 0 .43l5.25 2.64c.37.19.82.19 1.19 0l5.3-2.65a.2.2 0 0 0 0-.37l-.37-.2a.53.53 0 0 0-.49 0l-4.4 2.2a1.34 1.34 0 0 1-.92.13l-.03-.01a1.5 1.5 0 0 1-.36-.13L5.09 10.2a.24.24 0 0 1 0-.42l.3-.16a.5.5 0 0 1 .48 0l2.6 1.24a1.14 1.14 0 0 0 1.05 0l3.35-1.64Zm-5.96-.37 1.46-.72a1.24 1.24 0 0 1 1.16 0l1.46.72c.12.07.12.25 0 .31l-1.46.69a1.24 1.24 0 0 1-1.16 0L6.9 9.17a.18.18 0 0 1 0-.31Z" fill="url(#b2qbqkg4v)"/><defs><linearGradient id="a2qbqkg4v" x1="14.99" y1="8.99" x2="3" y2="8.99" gradientUnits="userSpaceOnUse"><stop stop-color="#88C449"/><stop offset="1" stop-color="#71CFF5"/></linearGradient><linearGradient id="b2qbqkg4v" x1="14.99" y1="8.99" x2="3" y2="8.99" gradientUnits="userSpaceOnUse"><stop stop-color="#88C449"/><stop offset="1" stop-color="#71CFF5"/></linearGradient></defs></svg>