<!-- by TradingView --><svg width="18" height="18" viewBox="0 0 18 18" xmlns="http://www.w3.org/2000/svg"><path fill="#F0F3FA" d="M0 0h18v18H0z"/><path d="M3.1 7.9a6.03 6.03 0 0 0 .41 3.53c.12.08.39.23.66.3a3.65 3.65 0 0 1-.37-1.64c0-1 1.16-2.13 2.11-2.62l.2-.1c1.02-.51 2.83-1.42 2.83-3.32 0-.4-.15-.82-.23-.98l-.05-.06a6 6 0 0 0-5.2 3.7c.2-.2.51-.4 1-.54l.71-.15c.74-.14 1.57-.3 1.99-.74a3.6 3.6 0 0 1-2.18 1.53c-1.23.33-1.65.74-1.88 1.09Zm11.79 2.27a5.17 5.17 0 0 0-2.1-.45c-1.33 0-2.12.54-2.93 1.09l-.48.31c-.8.51-1.27.66-1.4.67.04.08.24.24.72.24.26 0 .57-.12.92-.25.44-.16.94-.34 1.47-.34.95 0 1.3.56 1.3 1.04 0 .49-.43 1.93-3.7 1.93a6.24 6.24 0 0 1-4.4-1.7 5.99 5.99 0 0 0 10.6-2.54Z" fill="#13B3EA"/><path d="M9.47 6.29A4.04 4.04 0 0 0 8.93 3a6.03 6.03 0 0 1 5.9 4.54c-1.7-.3-3.01.44-3.5.9.25-.15.98-.45 1.96-.45.62 0 1.22.1 1.66.21a6.05 6.05 0 0 1 .01 1.45 4.77 4.77 0 0 0-2.26-.62c-1.55 0-2.54.73-3.35 1.33l-.17.13a5.4 5.4 0 0 1-2.66 1.12c-.72 0-1.56-.41-1.56-1.07 0-.65.51-1.02 1.33-1.02.48 0 .83.12 1.12.22.2.07.38.13.56.13.41 0 .5-.22.5-.44a.58.58 0 0 0-.06-.31.8.8 0 0 0 .3-.09c.13-.06.01-.21-.06-.28.06.02.2.04.26 0 .07-.04.07-.16 0-.32-.05-.12-.02-.17 0-.18h.67c-.13-.2-.4-.73-.4-1.2 0-.46.4-.7.6-.76h-.3Zm-4.87 5.9a5.57 5.57 0 0 0 4.18 2.05 4.23 4.23 0 0 0 2.66-.8c-.2.16-.78.44-1.83.44-1.2 0-2.12-.6-2.64-.94a6.73 6.73 0 0 0-1.72-.82c-.38-.06-.6.02-.65.07Z" fill="#29D9A7"/></svg>