<!-- by TradingView --><svg width="18" height="18" viewBox="0 0 18 18" xmlns="http://www.w3.org/2000/svg"><path fill="url(#a)" d="M0 0h18v18H0z"/><path d="M7.03 7.85c-.37.08-.69.3-.93.67a1.4 1.4 0 0 0-.47-.79c-.1-.08-.28-.14-.53-.17a1.17 1.17 0 0 1-1.08-1.01c-.06-.38 0-.7.19-.95.18-.24.44-.4.79-.45a.7.7 0 0 1 .53.12c.3.21.46.53.5.95l.05.58c.08.61.4.96.95 1.05ZM11.9 8.57a1.38 1.38 0 0 0-.94-.71c.54-.1.85-.43.94-.97l.03-.36c.03-.38.08-.64.14-.77.18-.35.42-.56.7-.6.29-.06.58.04.87.3a1 1 0 0 1 .35.66c.03.27-.01.53-.13.78-.18.38-.53.6-1.06.66-.49.06-.79.4-.9 1.01Z" fill="#449EEB"/><path d="M11.9 8.57a1.38 1.38 0 0 0-.94-.71c-.4 0-.72-.16-.97-.48a.61.61 0 0 1-.14-.4c0-.08.02-.2.07-.37l.06-.25c.06-.4 0-.72-.2-.98a.94.94 0 0 0-.7-.38.94.94 0 0 0-.75.26c-.23.21-.35.52-.35.92 0 .08.02.21.06.4l.05.25a.86.86 0 0 1-.19.68c-.24.25-.53.37-.87.34-.37.08-.69.3-.93.67l-.07.3c-.12.52.03.95.45 1.3.2.13.42.19.67.19a.9.9 0 0 0 .61-.46l.24-.4c-.08-.86.12-1.45.6-1.75.63-.2 1.06 0 1.28.6.13.33.16.71.11 1.14.2.5.49.79.84.87.44-.01.77-.19.99-.52a1.27 1.27 0 0 0 .08-1.22Z" fill="url(#b)"/><path d="M10 9.44c.2.5.48.79.83.87-.46.1-.74.4-.85.9-.02.12-.03.31-.02.58.01.28-.06.54-.2.77a.9.9 0 0 1-.62.43.82.82 0 0 1-.8-.3c-.2-.24-.3-.53-.3-.88 0-.29 0-.49-.03-.6-.1-.5-.39-.8-.86-.9a.9.9 0 0 0 .61-.46l.24-.4c.04.34.14.6.3.79.23.26.5.37.82.32.32-.04.56-.23.72-.56.07-.16.12-.35.15-.56Z" fill="#449EEB"/><defs><linearGradient id="a" x1="9" y1="0" x2="9" y2="18" gradientUnits="userSpaceOnUse"><stop stop-color="#1F4EB0"/><stop offset="1" stop-color="#113B6A"/></linearGradient><linearGradient id="b" x1="10.66" y1="7.84" x2="8.53" y2="10.89" gradientUnits="userSpaceOnUse"><stop stop-color="#52DCEE"/><stop offset="1" stop-color="#54C8D8"/></linearGradient></defs></svg>