<!-- by TradingView --><svg width="18" height="18" viewBox="0 0 18 18" xmlns="http://www.w3.org/2000/svg"><path fill="#FFC83F" d="M0 0h18v18H0z"/><path d="m8.4 3.01-.62.1a3.3 3.3 0 0 0-.58.17 2.4 2.4 0 0 0-1.18 1c-.48.52-.84 1-1.06 1.67-.18.52-.3 1.05-.39 1.57-.35 2.22.34 4.7 2.1 6.15.27.21.6.43 1.02.66.5.32 1.04.47 1.62.45.33 0 .66-.04.98-.1a3.6 3.6 0 0 1-3.6-.37c-.52-.37-.93-.8-1.33-1.32-1.43-1.82-1.67-4.43-1.02-6.6.42-1.42 1.31-2.8 2.77-3.2.36-.1.79-.17 1.28-.18Z" fill="#F1D45E"/><path d="m10.23 3.61.45.41c-.1 0-.19.01-.26.06-.28-.27-.6-.5-.95-.66-.55-.25-1.1-.19-1.67-.08-.79.15-1.37.59-1.73 1.31l-.25-.03.2-.34c.26-.44.7-.82 1.18-1 .2-.08.4-.13.58-.17l.61-.1c.28-.02.52-.01.71.03.4.1.77.29 1.13.57Z" fill="#D2BF6F"/><path d="M10.42 4.08c.4.42.77.87 1.09 1.36.16.23.3.51.45.85a9.6 9.6 0 0 1 .77 4.09c-.02.65-.1 1.23-.26 1.74-.15.47-.33.85-.54 1.15-.5.71-1.15 1.15-2 1.23l-.46.04H9c-1.27-.13-2.28-1.22-2.8-2.35a7.11 7.11 0 0 1-.78-2.34 14.5 14.5 0 0 1-.13-2.37 6.98 6.98 0 0 1 .77-2.82c.37-.73.94-1.17 1.73-1.32.58-.1 1.12-.17 1.67.08.35.17.67.39.95.66Z" fill="#FDFFFF"/><path d="M11.01 4.86a1.36 1.36 0 0 0-.56-.26l-.1-.08a.05.05 0 0 0-.04-.01c-.23.08-.09.34 0 .52v.13a.05.05 0 0 1-.09.01c-.1-.1-.13-.21-.1-.32.03-.1 0-.11-.06-.05l-.04.08a.08.08 0 0 1-.05-.05l.04-.11c0-.02 0-.03-.02-.03h-.05l-.03.07c-.01.02-.03.02-.04.01l-.17-.1v-.01l.05-.19h.01l.15.08a.03.03 0 0 0 .03 0 .03.03 0 0 0 .02-.01c0-.03 0-.06-.03-.08a.76.76 0 0 0-.12-.07c-.02-.01-.03-.03-.02-.06l.04-.12a.02.02 0 0 1 .01-.02.02.02 0 0 1 .02 0l.15.09c.02.01.02.03.02.05v.1c.03.05.05.05.06 0a.5.5 0 0 0 .03-.16c0-.02 0-.03-.02-.04L9.77 4c-.06-.04-.08-.03-.06.05l.02.04v.04l-.12.44c0 .01-.01.02-.03.02l-.03.01a.04.04 0 0 0-.03.04.04.04 0 0 0 .02.04l.37.23-.61 1a.86.86 0 0 0-.71.26.44.44 0 0 1-.08-.16.08.08 0 0 0-.08-.06c-.33-.04-.7-.04-1.07 0 .03.06.04.1.03.13a.1.1 0 0 1 0 .04c0 .02 0 .02-.03.01a.1.1 0 0 0-.07 0 .05.05 0 0 0-.03.03.2.2 0 0 0-.02.09h-.1a.04.04 0 0 0-.03.03v.15c.06.35.1.57.14.67 0 .02.02.03.03.03.04.02.07.05.07.1l.03.03.3.03c.01 0 .02.01.02.03l.2 1.04.06.46c.01.17.04.32.07.46l.14.66.28 1.66c-.07.03-.09.06-.07.1a.25.25 0 0 0-.02.11.26.26 0 0 0-.15.12c-.1.02-.15.07-.13.17.06.26.08.5.14.71.01.02.02.03.04.03h.04a.04.04 0 0 1 .02.02.04.04 0 0 1 0 .03.1.1 0 0 0 0 .04c.01.01.02.02.04.01l1.16-.37c.02 0 .03-.01.04-.03l-.01-.08.12-.02a.04.04 0 0 0 .03-.04.04.04 0 0 0-.01-.04c-.02-.01-.03-.04-.04-.07l.17-.06.02-.03-.1-.56c.26.01.49.01.71-.14.22-.14.4-.39.57-.73l.04.15h.01c.02-.03.06-.04.12-.04a.06.06 0 0 1-.04.02.03.03 0 0 0-.04.02l.01.05c-.04-.01-.05.03-.05.13a.27.27 0 0 0-.14.12c-.05 0-.1.03-.12.06a3.81 3.81 0 0 0 .09.64c0 .04.05.09.11.16.01.02.03.02.04.02l.97-.34c-.03-.06-.01-.1.07-.1l.03-.03a.15.15 0 0 0-.01-.12l.16-.06h.01v-.02c0-.2-.05-.39-.12-.56l-.04-.18c0-.02-.01-.03-.03-.03a.3.3 0 0 0-.18.03l-.04.04-.05-.33-.03-.76a.09.09 0 0 1 .07-.1c.3-.06.54-.23.74-.5.08.67.07 1.4-.02 2.2-.09.72-.33 1.5-.78 2.07l-.36.4a1.6 1.6 0 0 1-.79.43h-.34c-.3.02-.66-.05-1.05-.22a3.1 3.1 0 0 1-1.1-.78 4.19 4.19 0 0 1-.71-1.13c-.32-.7-.56-1.39-.72-2.07a8.03 8.03 0 0 1-.22-2.32l.08-1.11c.12-.85.4-1.6.89-2.3 1.1-1.59 2.71-.53 3.53.64Z" fill="#F0DC55"/><path d="M9.32 4.04v.52l.04.03c.05.04.04.06-.02.07a.5.5 0 0 1-.2-.02.03.03 0 0 1-.02-.03v-.02l.01-.02c.03 0 .05-.02.06-.03V4.5A19.88 19.88 0 0 1 9.2 4a.05.05 0 0 0-.03-.01h-.04a.05.05 0 0 0-.06.03l-.03.1c0 .02-.01.03-.03.02l-.02-.01a.06.06 0 0 1-.03-.06l.03-.2c0-.01 0-.02.02-.02l.5.06.02.01.01.04v.19c0 .04-.01.05-.04.02-.03-.02-.04-.06-.04-.1A.06.06 0 0 0 9.44 4 .06.06 0 0 0 9.4 4h-.04c-.03 0-.04.02-.04.05Z" fill="#F58AFF"/><path d="m7.73 5 .22.3c.02.02.03.02.05 0a.1.1 0 0 1 .03-.02.03.03 0 0 1 .03.01c.02.01.02.03.02.05l-.02.04a.95.95 0 0 0-.1.15c-.02.02-.03.02-.04.01H7.9c-.03-.02-.03-.05-.02-.08l.02-.04v-.04L7.6 5a.04.04 0 0 0-.04-.02c-.01 0-.02 0-.03.02h-.04a.15.15 0 0 1-.03-.04l.01-.05.11-.12a.04.04 0 0 1 .05-.01l.37.17c.02 0 .03 0 .02-.02l-.1-.55a.04.04 0 0 1 .02-.03l.1-.12a.04.04 0 0 1 .03 0 .04.04 0 0 1 .03.01c.02.03.02.06-.01.09-.01 0-.02.01-.02.03v.02l.3.39c.01.01.02.02.04.01.05 0 .08-.03.09-.08l.04-.63c0-.16.06-.17.14-.04l.28.42c.04.06.07.08.11.11a.04.04 0 0 1 0 .06v.01l-.19.07-.04-.01-.01-.03c0-.02 0-.04.02-.05l.02-.03a.03.03 0 0 0 .01-.04c-.06-.08-.15-.02-.23.01l-.02.02c-.05.06-.04.1.03.14.02.01.03.02.03.04v.02c0 .01-.02.03-.04.03a.4.4 0 0 0-.3.23.03.03 0 0 1-.02.02.03.03 0 0 1-.02 0l-.02-.02A.05.05 0 0 1 8.27 5v-.03l.03-.06v-.03l-.24-.31.08.4c.02.06 0 .09-.02.13l-.03.02h-.04L7.75 5c-.04-.02-.04-.01-.02.01Z" fill="#EE6FFE"/><path d="m10.68 4.02.43.49c.2.27.43.55.6.8.55.86.83 1.8 1.07 2.81.1.39.12.69.15 1.04l.03.55v.8a.69.69 0 0 1-.23-.13 9.6 9.6 0 0 0-.77-4.1c-.14-.33-.3-.61-.45-.84a9.88 9.88 0 0 0-1.09-1.36.38.38 0 0 1 .26-.06Z" fill="#DBD178"/><path d="M9.97 4.83c-.01.05-.03.08-.06.09l-.37-.23a.04.04 0 0 1-.02-.04.04.04 0 0 1 .03-.04h.03l.03-.03.13-.44-.01-.04a.23.23 0 0 1-.02-.04c-.02-.08 0-.1.06-.05l.33.22.02.04c0 .04 0 .09-.03.16-.01.05-.03.05-.06 0a.19.19 0 0 1 0-.1c0-.02 0-.04-.02-.05l-.15-.09a.02.02 0 0 0-.03.02l-.04.12c0 .03 0 .05.02.06.04.01.08.04.12.07.03.02.03.05.03.08a.03.03 0 0 1-.05.01l-.15-.08h-.01l-.05.19v.02l.17.1c.01 0 .03 0 .04-.02l.03-.07H10c.02 0 .02.01.02.03l-.04.1Z" fill="#F58AFF"/><path d="M8.62 4.17c.01 0 .06.06.14.19a.02.02 0 0 1-.01.04.71.71 0 0 0-.12.03.02.02 0 0 1-.01-.01v-.25Z" fill="#F0DC55"/><path d="m6.02 4.28-.2.34c-.3.6-.52 1.23-.66 1.88-.06.32-.1.66-.1 1.03-.01.83.04 1.67.15 2.5.04.34.15.73.3 1.16.18.44.36.84.55 1.2.14.3.3.58.48.82.32.42.7.79 1.15 1.12-.41-.23-.75-.45-1.01-.66-1.77-1.45-2.46-3.93-2.1-6.15.07-.52.2-1.05.38-1.57a4.4 4.4 0 0 1 1.06-1.67Z" fill="#DBD178"/><path d="M10.45 4.6c.02.08.07.15.12.2.02.02.02.03.01.05a.69.69 0 0 1-.08.16h-.03a.03.03 0 0 1-.02-.04c.04-.11.02-.22-.08-.32a.05.05 0 0 0-.05-.02l-.03.02-.01.03c0 .04 0 .09.02.13.08.15.2.4 0 .49a.05.05 0 0 1-.05 0 .39.39 0 0 1-.18-.24.07.07 0 0 0-.03-.04c-.06-.03-.06-.08-.02-.14a.24.24 0 0 1 .04-.08c.07-.06.09-.05.06.05s0 .22.1.32a.05.05 0 0 0 .05.02.05.05 0 0 0 .03-.03.17.17 0 0 0 0-.13c-.08-.18-.22-.44 0-.52a.05.05 0 0 1 .05 0l.1.09Z" fill="#F58AFF"/><path d="M6.07 4.65a6.98 6.98 0 0 0-.77 2.83c-.03.8.02 1.58.13 2.37.1.82.4 1.62.79 2.34 0 .15-.06.21-.16.2a9.4 9.4 0 0 1-.54-1.2 5.24 5.24 0 0 1-.31-1.16c-.11-.83-.16-1.67-.15-2.5 0-.37.04-.71.1-1.03.14-.65.36-1.28.67-1.88l.24.03Z" fill="#C8CC84"/><path d="M11.01 4.86a8.68 8.68 0 0 1 1.6 4.2c-.2.26-.46.43-.75.5a.09.09 0 0 0-.07.1l.03.75-.58-3.42a.04.04 0 0 1 .03-.05l.22-.04c.02 0 .03-.01.02-.03a9.97 9.97 0 0 0-.08-.5c0-.02-.02-.03-.05-.04 0-.05 0-.08-.02-.1-.02-.09-.01-.12 0-.1a2.65 2.65 0 0 0-.82-.07l-.06.25a.7.7 0 0 0-.15.35l-.1-.1a1.54 1.54 0 0 0-.93-.63l.61-1.01c.03-.01.05-.04.06-.1 0 .03.02.05.05.06-.04.06-.04.1.02.14l.03.04c.03.1.1.19.18.23a.05.05 0 0 0 .05 0c.2-.08.08-.33 0-.48a.2.2 0 0 1-.02-.13.05.05 0 0 1 .04-.05.05.05 0 0 1 .05.02c.1.1.12.2.08.32a.03.03 0 0 0 .02.05h.03c.03-.05.06-.1.08-.17V4.8a.44.44 0 0 1-.13-.21c.2.04.38.12.56.26Z" fill="#F5E76F"/><path d="M5.74 5.67v-.06c.01-.02.02-.03.04-.03l.66-.18c.05-.01.06 0 .05.06l-.07.3a.12.12 0 0 1-.1.1l-.68.17a.01.01 0 0 1-.01-.01c0-.13.03-.22.1-.3a.06.06 0 0 0 .01-.05Z" fill="#CFFDFE"/><path d="M8.59 6.18c.01.02.02.05.01.08h-.04a.03.03 0 0 0 0 .03 571.94 571.94 0 0 0 1.64 3.53h.02v-.06h.01a.03.03 0 0 0 .01-.05 22.22 22.22 0 0 0 .09-1.07l.21.4c.04.06.08.19.12.38l-.11 1.27c0 .02-.01.03-.03.03l-.4.12h-.03a.04.04 0 0 1-.03-.03L8.73 8.06a.74.74 0 0 0-.12-.26l.63 3.72.01.01.02.01c.02 0 .04 0 .05-.02l.24-.02c.03 0 .04-.01.04-.04v-.03a.04.04 0 0 0-.01-.03.04.04 0 0 0-.03 0 .75.75 0 0 0-.25.05l-.01-.08.3-.05a.04.04 0 0 1 .02 0 .04.04 0 0 1 .02.03l.03.24.09.51a.05.05 0 0 1-.03.06l-1.14.35h-.06l-.03-.04a13.4 13.4 0 0 1-.1-.64l.03-.01a14.11 14.11 0 0 1 .37-.18c0-.05 0-.1-.03-.16L8 6.95c.02-.1-.1-.13-.38-.12l-.06-.01a.04.04 0 0 1-.03-.04l-.12-.67 1.06.03c.01 0 .02-.01.02-.03 0-.05-.03-.08-.07-.08-.48-.02-.83-.05-1.06-.08a5.86 5.86 0 0 1 1.12.03l.03.04c.01.06.04.11.08.16Z" fill="#EE6FFE"/><path d="M9.3 5.93c.4.1.7.31.93.64L9.97 9.2 8.6 6.26l-.01-.08c.2-.2.44-.28.71-.25Z" fill="#E9CD00"/><path d="M7.4 6.1V6.1l-.04-.14c.23.03.58.06 1.06.08.04 0 .07.03.07.08 0 .02 0 .03-.02.03L7.4 6.1Z" fill="#B3C5D9"/><path d="M10.54 6.06v.05c.01.02.02.02.04.02h.79c-.02-.02-.03.01 0 .1l-.8-.02-.01.02-.23 2.41a22.22 22.22 0 0 1-.09 1.07.04.04 0 0 1-.01.04l-.01.01-.07-.14c.03-.01.04-.02.04-.04a247.95 247.95 0 0 1 .29-3.27l.06-.25Z" fill="#D2CFD4"/><path d="m7.41 6.1.12.68c0 .02.02.03.03.04l.06.01c0 .06 0 .1.04.1.1.03.2.03.34.02l.77 4.53h-.02l-.18.09-.24-1.53L8 8.07l-.15-.85-.01-.03H7.8l-.27-.04a.04.04 0 0 1-.03-.03.22.22 0 0 0-.08-.1.1.1 0 0 1-.03-.04c-.09-.22-.11-.5-.15-.72 0-.04 0-.07.02-.1a.05.05 0 0 1 .03-.02.1.1 0 0 1 .07 0c.02.01.03 0 .04-.01a.1.1 0 0 0 0-.04l.01.02Z" fill="#E8A381"/><path d="m5.48 6.77.04-.37a.1.1 0 0 1 .07-.08l.68-.17c.04-.01.06 0 .05.04l-.04.38c0 .04-.03.06-.07.07l-.68.17c-.04 0-.05 0-.05-.04Z" fill="#6BEEF5"/><path d="m11.36 6.23.02.1.06.43a.04.04 0 0 1-.03.05l-.21.03c-.02 0-.02.02-.02.03l.47 2.9c-.06-.1-.1-.2-.14-.32a.56.56 0 0 0-.12-.23c-.08-.08-.18-.09-.29-.03l-.22-1.14c0-.14 0-.25-.02-.33-.02-.1-.03-.1-.04 0l-.16 1.7c-.04-.2-.08-.32-.12-.38a6.19 6.19 0 0 1-.21-.4l.23-2.41.01-.02.8.02Z" fill="#F58AFF"/><path d="M7.24 6.26c.04.23.06.5.15.72 0 .02.02.03.03.04.04.03.06.06.08.1 0 .02.02.03.03.03l.27.03a.05.05 0 0 1 .04.04l.15.85-.1.3-.19-1.04c0-.02 0-.03-.03-.03l-.29-.03c-.02 0-.03-.02-.03-.04 0-.04-.03-.07-.07-.09a.05.05 0 0 1-.03-.03 4.47 4.47 0 0 1-.14-.82c0-.02 0-.03.02-.03h.11Z" fill="#EEC252"/><path d="M8.6 6.26 9.97 9.2l.08.2.1.22.07.14v.06h-.02l-.01-.01-.02-.02a569.73 569.73 0 0 1-1.6-3.53h.03Z" fill="#521B72"/><path d="M10.48 6.3a7.15 7.15 0 0 0-.05.77l-.24 2.5c0 .03-.01.04-.04.05l-.1-.22c.05-.17.07-.3.08-.38.02-.48.07-1 .14-1.57.03-.22.05-.49.06-.8a.7.7 0 0 1 .15-.34Z" fill="#E8A381"/><path d="m11.82 10.4.05.34.02.1h-.05l-.01-.03-.18-1.04-.47-2.9c0-.01 0-.02.02-.03l.21-.03a.04.04 0 0 0 .03-.05l-.06-.43c.03 0 .05.02.05.04a10.22 10.22 0 0 1 .06.53l-.22.04c-.01 0-.02 0-.03.02v.03l.58 3.42Z" fill="#030102"/><path d="M10.33 6.66c-.01.3-.03.57-.06.79-.07.57-.12 1.09-.14 1.57 0 .09-.03.21-.08.38l-.08-.2.26-2.63.1.09Z" fill="#EEC252"/><path d="M8 6.95c-.13.01-.24 0-.34-.01-.03-.01-.05-.05-.04-.1.27-.02.4.02.38.11Z" fill="#030102"/><path d="M5.6 7.63c-.08-.05-.1-.1-.07-.15l.06-.11v-.04a.13.13 0 0 1-.03-.07c0-.01 0-.03.02-.04a.87.87 0 0 1 .3-.14.61.61 0 0 0 .27-.08c0 .01.02.02.04.01l.02.01v.43c0 .04-.02.06-.06.07l-.55.1Z" fill="#00D6E2"/><path d="M6.15 7a.61.61 0 0 1-.27.08.87.87 0 0 0-.3.14.04.04 0 0 0-.02.04c0 .03.02.05.03.07v.04l-.06.11c-.03.06 0 .1.07.15a.35.35 0 0 1-.18.04c-.02 0-.03-.02-.03-.04l.03-.4c0-.05.03-.08.07-.09L6.15 7Z" fill="#6BEEF5"/><path d="m10.88 8.05-.07.74-.06.63-.13 1.37c0 .01-.01.03-.03.03l-.1.02-.3.08-.05-.01a.12.12 0 0 1-.03-.07l.4-.12c.03 0 .03-.01.04-.03l.11-1.27.16-1.7c0-.1.02-.1.04 0 .02.08.02.2.02.33ZM8.74 8.06l.14.87.13.77.29 1.67.01.08.01.07c-.01.02-.03.03-.05.02a.03.03 0 0 1-.03-.02L8.61 7.8c.06.08.1.16.13.26Z" fill="#030102"/><path d="m5.54 8.54-.02-.43c0-.01 0-.03.02-.04A.3.3 0 0 1 5.68 8a5.17 5.17 0 0 0 .49-.1c.02 0 .02 0 .02.02v.48l-.04.02-.6.12Z" fill="#00D6E2"/><path d="M6 7.91a8.71 8.71 0 0 1-.46.16.05.05 0 0 0-.02.04l.02.43-.1.03a.04.04 0 0 1-.03 0 .04.04 0 0 1-.02-.04V8.1l.01-.04.04-.02L6 7.9Z" fill="#6BEEF5"/><path d="M10.11 10.84c0 .03.01.05.03.07.01.01.03.02.04.01l.31-.08c0 .05 0 .1-.02.14l-.01.02-.02.02c-.06.02-.1.05-.11.08a.54.54 0 0 0-.27.02.04.04 0 0 1-.04 0 .54.54 0 0 1-.14-.17 99.92 99.92 0 0 0-.91-1.9c0-.05-.04-.09-.09-.12l-.14-.87 1.32 2.75.03.02h.02ZM11.1 9.19l.27 1.58c0 .02 0 .03-.02.04a.43.43 0 0 1-.14.06 1.62 1.62 0 0 1-.08-.35 5.65 5.65 0 0 0-.1-.63c0-.1-.03-.19-.05-.28-.03-.1-.03-.33-.1-.5a.1.1 0 0 1-.01-.04c0-.11-.01-.2-.06-.28l.07-.74.22 1.14Z" fill="#E8A381"/><path d="m8 8.07.33 1.97a.35.35 0 0 1-.16-.1l-.14-.65c-.03-.14-.06-.3-.07-.46a8.6 8.6 0 0 0-.06-.46l.1-.3Z" fill="#FFC83F"/><path d="m5.56 9.47-.04-.42c0-.02 0-.03.02-.05a.5.5 0 0 1 .14-.1l.51-.12a.02.02 0 0 1 .03.02l.08.5c0 .01 0 .03-.03.03l-.71.14Z" fill="#00D6E2"/><path d="m11.21 10.87-.02.02c-.06 0-.1.01-.12.04 0 .01 0 .01 0 0l-.05-.15a6 6 0 0 0-.13-.76l-.05-.3a.92.92 0 0 0-.1-.3l.07-.63c.05.07.07.17.06.28a.1.1 0 0 0 0 .05c.08.16.08.38.11.5l.05.27.05.28.05.35c.01.12.04.24.08.35Z" fill="#EEC252"/><path d="M5.68 8.9a.5.5 0 0 0-.14.1.06.06 0 0 0-.02.05l.04.42c-.02.01-.04.02-.06 0a.04.04 0 0 1-.03-.03L5.43 9c0-.02 0-.03.02-.05a.26.26 0 0 1 .23-.05Z" fill="#6BEEF5"/><path d="M10.33 11.1a1.3 1.3 0 0 1-.4.15c-.03 0-.04 0-.05-.02a.4.4 0 0 1-.1-.11c-.16-.31-.34-.7-.55-1.16-.04-.06-.1-.14-.12-.24a.08.08 0 0 0-.09-.06v.04l-.14-.77c.05.03.08.07.09.12l.02.06.06.1.83 1.74.14.17a.04.04 0 0 0 .04 0c.1-.03.18-.03.27-.02Z" fill="#FFC83F"/><path d="m11.65 9.77.18 1.04.01.03h.05l.2-.03h.02v-.02h.01v-.02l-.02-.01a.04.04 0 0 0-.04-.02c-.11.03-.16.02-.15-.04a.3.3 0 0 1 .18-.03c.02 0 .03.01.03.03l.04.18.06.45a.05.05 0 0 1-.04.06l-.92.3c-.03.02-.05 0-.07-.06a3.68 3.68 0 0 1-.08-.53l.27-.12.02-.03v-.07c-.01-.02-.03-.03-.04-.01a.62.62 0 0 1-.24.11v-.05c0-.01.01-.02.03-.02.01 0 .03 0 .04-.02l.02-.02c.05 0 .1-.03.14-.06a.04.04 0 0 0 .02-.04L11.1 9.2c.11-.06.21-.05.3.03.03.03.07.1.1.23.04.11.1.22.15.32Z" fill="#EE6FFE"/><path d="M11.02 10.78c-.16.34-.35.59-.57.73-.22.15-.45.15-.7.14 0-.04-.03-.06-.08-.06l-.03-.24a.04.04 0 0 0-.02-.02l-.01-.01h-.02l-.3.05-.28-1.67.01-.04a.08.08 0 0 1 .09.06c.02.1.08.18.12.24l.54 1.16a.4.4 0 0 0 .1.11l.05.02c.15-.03.28-.08.4-.15.03-.03.06-.06.12-.08a.06.06 0 0 0 .03-.04c.02-.04.02-.09.02-.14l.1-.02c.02 0 .03-.02.03-.03l.13-1.37c.04.1.08.19.1.3l.04.3c.06.26.1.5.13.76Z" fill="#E9CD00"/><path d="m5.64 10.36-.08-.44a.05.05 0 0 1 .02-.05h.02l.72-.13a.05.05 0 0 1 .05.02v.02l.08.44a.05.05 0 0 1 0 .04.05.05 0 0 1-.04.01l-.72.13h-.02a.05.05 0 0 1-.02-.02l-.01-.02Z" fill="#00D6E2"/><path d="m8.33 10.04.24 1.53-.12.04-.28-1.66c.05.05.1.08.16.1Z" fill="#EEC252"/><path d="m12.97 10.51-.06.63a4.88 4.88 0 0 1-.87 2.39c-.24.3-.49.54-.74.72-.28.2-.61.34-1 .43-.33.06-.66.1-1 .1a2.76 2.76 0 0 1-1.61-.45 5.8 5.8 0 0 1-1.15-1.12 3.91 3.91 0 0 1-.48-.83c.1.03.16-.04.16-.19.5 1.13 1.52 2.22 2.79 2.35h.46l.45-.04c.86-.08 1.5-.52 2-1.23.22-.3.4-.68.55-1.15.16-.5.24-1.09.26-1.74.07.05.14.1.24.13Z" fill="#D2BF6F"/><path d="M6.14 11.2c-.05-.03-.06-.06-.03-.1l-.01-.03a.14.14 0 0 1-.06-.09.05.05 0 0 0-.04-.03c-.06-.02-.1-.07-.1-.15a.04.04 0 0 1 .02-.04l.19-.05.4-.09h.03l.03.04.13.43a.02.02 0 0 1-.02.03l-.54.09Z" fill="#00D6E2"/><path d="M11.9 10.7c0 .06.05.07.16.04h.03l.02.02v.01l.01.01v.02a.03.03 0 0 1-.02.01l-.2.03-.03-.1s0-.02.04-.04Z" fill="#B3C5D9"/><path d="m6.1 10.7-.18.06a.03.03 0 0 0-.02.04c0 .08.04.13.1.15.02 0 .03.01.04.03 0 .04.03.06.06.09v.03c-.02.04-.01.07.04.1l-.22.05c-.01 0-.03 0-.03-.03l-.14-.43c0-.02 0-.03.02-.04a.22.22 0 0 1 .1-.01.1.1 0 0 0 .05 0 .4.4 0 0 1 .19-.03Z" fill="#6BEEF5"/><path d="M11.11 11.1h-.04c0-.09.01-.13.05-.12.1-.02.17-.06.24-.11.01-.02.03-.01.03 0l.01.08c0 .01 0 .03-.02.03l-.27.12Z" fill="#B3C5D9"/><path d="M12.1 11.52a53.96 53.96 0 0 1-.82.24.16.16 0 0 1-.02-.07l.92-.3.03-.02v-.04l-.05-.45a1.66 1.66 0 0 1 .12.57l-.01.01-.16.06Z" fill="#030102"/><path d="M11.11 11.1c.02.18.04.35.08.53.02.06.04.08.07.06 0 .03 0 .06.02.07a53.98 53.98 0 0 0 .83-.24c.02.04.02.08 0 .12 0 .02 0 .03-.02.03-.08 0-.1.04-.07.1a.33.33 0 0 0-.27 0 4.14 4.14 0 0 1-.59.2h-.01a.5.5 0 0 1-.14-.28 11.9 11.9 0 0 0-.08-.46c.03-.05.08-.1.14-.12.02-.02.03-.02.04-.01Z" fill="#E8A381"/><path d="m10.93 11.23.08.46c.01.1.06.2.14.28h.04c.19-.05.37-.11.56-.2.1-.04.18-.04.27 0l-.97.33h-.04a.57.57 0 0 1-.11-.17 3.81 3.81 0 0 1-.09-.64c.03-.03.07-.05.12-.06Z" fill="#EEC252"/><path d="M9.32 11.52v-.07a.75.75 0 0 1 .26-.05.04.04 0 0 1 .02.02v.04c0 .03-.01.04-.04.04l-.24.02Z" fill="#B3C5D9"/><path d="M6.61 11.98H6.6c-.12.03-.24.04-.37.05-.02 0-.03-.01-.04-.03l-.15-.39c0-.02 0-.03.02-.03l.74-.13c.02 0 .04 0 .05.03l.15.4a.03.03 0 0 1-.01.03h-.01l-.35.06-.02.01Z" fill="#6BEEF5"/><path d="M8.75 11.49c.02.03.02.05-.02.07l-.35.15c-.02-.04 0-.07.07-.1l.12-.04.18-.08Z" fill="#EE6FFE"/><path d="M8.77 11.48c.03.06.04.11.03.16 0 .02-.01.03-.03.04a14.57 14.57 0 0 0-.36.15l-.01.03-.04-.04c0-.05 0-.09.02-.11l.35-.15c.04-.02.04-.04.02-.07h.02Z" fill="#B3C5D9"/><path d="m9.75 11.65.09.56c0 .01 0 .03-.02.03l-.17.06-1 .32h-.01a.04.04 0 0 1-.03-.02v-.02l-.01-.07 1.13-.35a.05.05 0 0 0 .03-.06l-.09-.51c.05 0 .08.02.08.06Z" fill="#030102"/><path d="m8.36 11.82.04.04a13.4 13.4 0 0 0 .13.65c.02.01.04 0 .07 0v.07a.04.04 0 0 0 .04.04h.02l1-.32c0 .03.01.06.03.07a.04.04 0 0 1 0 .06l-.02.02-.12.02c-.02.03-.04.04-.09.03l-.04.01a23.2 23.2 0 0 0-.88.3c-.04.02-.07.01-.07-.02a.07.07 0 0 0-.03-.04.23.23 0 0 1-.11-.15l-.12-.66c.04-.05.08-.1.15-.12Z" fill="#E8A381"/><path d="m8.21 11.94.12.66c.01.06.05.1.1.15.02 0 .03.02.03.04.01.03.04.04.08.03a23.47 23.47 0 0 1 .92-.32c.05 0 .07 0 .09-.03v.08c0 .02-.01.03-.03.03l-1.16.37c-.02.01-.03 0-.03-.01a.1.1 0 0 1 0-.04.04.04 0 0 0-.01-.03.04.04 0 0 0-.02-.01h-.04a.04.04 0 0 1-.04-.04c-.06-.2-.08-.45-.14-.7-.02-.1.02-.16.13-.18Z" fill="#EEC252"/><path d="M7.13 12.21c.06.06.12.1.12.17 0 .02 0 .04.02.05.04.04.07.08.09.13 0 .01 0 .02-.02.03a.58.58 0 0 1-.16.04 19.26 19.26 0 0 1-.65.01.15.15 0 0 1-.02-.05.1.1 0 0 0-.02-.04.38.38 0 0 1-.09-.13c-.01-.06.01-.1.07-.11l.62-.1h.04ZM7.52 13.15l.04.03.02.02v.02l-.03.01-.42-.11-.01-.01-.01-.02c0-.02.02-.03.04-.03.09 0 .15.02.25-.01a.75.75 0 0 1 .24-.04c.02 0 .03 0 .04.02l.1.13a.02.02 0 0 1 0 .02h-.01a.45.45 0 0 1-.19-.07c-.06-.06-.08-.04-.06.04Z" fill="#CFFDFE"/></svg>