<!-- by TradingView --><svg width="18" height="18" fill="none" xmlns="http://www.w3.org/2000/svg"><path fill="#F0F3FA" d="M0 0h18v18H0z"/><path d="M10.566 4.583A2.004 2.004 0 1113.4 7.418l-.365.364-.73-.73.337-.338A.97.97 0 1011.27 5.34L9.038 7.573a.97.97 0 101.373 1.373l1.48-1.482.732.73-1.508 1.509A2.004 2.004 0 018.28 6.869l2.286-2.286z" fill="#33C297"/><path d="M13.413 13.413a2.004 2.004 0 000-2.834l-1.588-1.585-.73.73 1.56 1.559a.97.97 0 11-1.372 1.373l-.338-.338-.731.73.365.365a2.004 2.004 0 002.834 0z" fill="#F6C94A"/><path d="M10.362 8.994l.733-.733a2.004 2.004 0 00-2.801 2.867l1.508 1.508.73-.731-1.481-1.481a.97.97 0 011.31-1.43z" fill="#F6C94A"/><path d="M4.587 13.396a2.004 2.004 0 002.834 0l1.57-1.57-.73-.73-1.544 1.543a.97.97 0 01-1.373-1.373l.338-.338-.73-.73-.365.364a2.004 2.004 0 000 2.834z" fill="#4BB0D8"/><path d="M9 10.371l.712.724c.733-.786.76-2.052-.006-2.818a2.004 2.004 0 00-2.834 0L5.364 9.785l.73.73 1.482-1.48a.97.97 0 011.373 0c.353.352.356.955.051 1.336z" fill="#4BB0D8"/><path d="M4.589 4.595a2.004 2.004 0 000 2.834l2.285 2.285c.267.267.566.448.908.533a2.102 2.102 0 01.015-1.142c-.07-.041-.159-.088-.219-.148L5.346 6.725A.97.97 0 116.72 5.352l.338.338.73-.73-.364-.365a2.004 2.004 0 00-2.834 0z" fill="#EB7350"/><path d="M9.1 7.801c.316-.09.628-.144 1.155-.02-.08-.358-.268-.623-.547-.901L8.2 5.372l-.73.73 1.48 1.482c.057.056.11.153.15.217z" fill="#EB7350"/></svg>