<!-- by TradingView --><svg width="18" height="18" viewBox="0 0 18 18" xmlns="http://www.w3.org/2000/svg"><path fill="#00F2FF" d="M0 0h18v18H0z"/><path d="M10.49 4.03c.05.18.15.35.3.49.22.2.43.35.64.46.13.07.17.16.13.28-.08.23-.12.3-.02.49.06.11.12.25.16.42.04.15-.01.26-.16.32a137.55 137.55 0 0 1-.74.33.13.13 0 0 0-.04.1l.02.05c.04.06.1.12.17.17.24.18.39.34.62.48a273.95 273.95 0 0 0 .58.4.4.4 0 0 0 .14.15c.02.01.04.02.06.01.25-.05.5-.06.76-.02.33.05.65.1.97.13.2.1.4.18.59.25.06.02.14.08.25.18a.6.6 0 0 1 .08.27c0 .12-.05.32-.13.62-.28.23-.56.3-.83.2l-.3-.11h-.06l-.06.13c-.03.16-.15.27-.3.33-.21.08-.52.26-.71.23-.14-.02-.26-.14-.36-.15-.18-.02-.33.02-.43.13-.07.07-.15.1-.2.18a.56.56 0 0 1-.12.14c-.06.04-.1.09-.11.14-.03.13 0 .24.07.32.14.14.24.3.3.45.07.15.02.3-.06.46a.1.1 0 0 0 .03.12l.5.4c.11.08.2.2.3.3.05.11-.02.19-.22.23l-.13-.07a.06.06 0 0 1-.04-.05.2.2 0 0 0-.1-.14c-.2-.14-.4-.3-.57-.46a.57.57 0 0 1-.17-.26v-.08l.05-.07c.27-.2.05-.45-.12-.63l-.15-.22a.81.81 0 0 0-.28-.26.66.66 0 0 1 .24-.18c.1-.05.17-.1.24-.17l.38-.38a.83.83 0 0 1 .7-.17c.11-.03.19.02.23.13a.08.08 0 0 0 .05.05.08.08 0 0 0 .07-.01c.13-.09.27-.15.43-.18a.14.14 0 0 0 .1-.11l.07-.39a.39.39 0 0 1 .12-.03c.11-.03.22-.04.33-.04.07 0 .16.02.28.08.22.1.4.07.51-.08l.16-.05c.06-.02.1-.06.1-.1v-.06c-.06-.08-.09-.2-.15-.25a.91.91 0 0 0-.3-.17.94.94 0 0 1-.2-.08c-.21-.13-.43-.1-.66-.13l-.65-.07c-.18-.02-.37-.01-.55.03-.32.06-.3-.23-.49-.36a3.29 3.29 0 0 0-.58-.32l-.05-.04c-.4-.43-.68-.75-.84-.95-.03-.04-.02-.08.02-.14l.47-.12h.02c.13 0 .24-.06.34-.17a.5.5 0 0 0 .18-.07.07.07 0 0 0 .03-.05c.06-.31-.05-.42-.22-.64v-.12c0-.02-.02-.04-.04-.05a.83.83 0 0 0-.05-.02.08.08 0 0 1-.04-.02.06.06 0 0 1-.02-.04c0-.03.02-.04.04-.05l.22-.06.03-.01a.05.05 0 0 0-.02-.08l-.32-.11a.09.09 0 0 1-.06-.07l-.05-.18a.1.1 0 0 0-.04-.05c-.11-.09-.25-.18-.32-.3a7.6 7.6 0 0 1-.22-.4.32.32 0 0 1-.03-.16c.01-.17.03-.32-.02-.44-.14-.37-.68-.13-.93.01a.55.55 0 0 1-.24.08c-.3 0-.55.03-.76.1-.13.05-.23 0-.34.02l-.66.19c-.25.07-.47.23-.73.25-.15 0-.34.1-.49.1-.05 0-.1.02-.12.06a.18.18 0 0 0-.06.12 1.18 1.18 0 0 0 .12.48l.21.2c-.05.02-.07.06-.07.1 0 .03 0 .05-.02.06l-.08.08-.36.5c-.02 0-.03 0-.04.03l-.03.01a.19.19 0 0 0 0 .16l.09.24c.07.25.2.39.45.45l.02.01c-.02.06-.03.09-.09.11-.4.2-.3.56-.54.86-.13.16-.22.35-.26.56a.59.59 0 0 1-.04.14c-.04.07-.07.12-.1.13-.17.1-.3.24-.4.42A.1.1 0 0 1 4.7 9c-.1.05-.19.12-.25.2a.1.1 0 0 0-.02.07c.05.5.11.87-.04 1.3l-.23.47a.68.68 0 0 1-.17-.28c.13-.17.2-.34.2-.52 0-.29-.01-.6-.05-.92-.02-.14.04-.26.17-.37.22-.19.42-.38.58-.58.08-.1.14-.2.17-.32.06-.21.15-.39.25-.52a.87.87 0 0 0 .16-.3c.04-.13.1-.26.2-.39a.08.08 0 0 0 0-.1c-.2-.27-.37-.48-.33-.82.04-.25.28-.44.46-.67a.15.15 0 0 0-.02-.2c-.2-.2-.32-.33-.34-.62-.03-.24.29-.46.5-.48l.5-.04c.12 0 .23-.03.32-.06l.31-.13a4.02 4.02 0 0 1 .51-.14c.18 0 .41-.12.61-.15l.67-.11c.12-.02.25-.07.39-.13.2-.1.42-.16.65-.19.17-.01.55.08.54.3-.02.24.02.49.04.73Z" fill="#FCFDFC"/><path d="M11.19 6.4c.14-.22.15-.6-.2-.58a.06.06 0 0 0-.06.03c-.02.04-.06.07-.13.08-.02 0-.05 0-.07-.02l-.17-.16a.03.03 0 0 0-.02-.01.03.03 0 0 0-.02.01l-.28.4-.08.3h-.09c-.02 0-.03-.02-.03-.05v-.08c.01.01.03-.01.07-.07a.61.61 0 0 0 .05-.2c0-.03.01-.05.03-.06.11-.1.08-.27.1-.4a.45.45 0 0 0 .02-.37.69.69 0 0 0-.37-.14l-.14-.06a.3.3 0 0 1-.12-.22c0-.02 0-.03.03-.03.06 0 .1 0 .16.03.18.07.34.18.48.33.06.06.1.05.12-.03l.02-.08a.17.17 0 0 0-.07-.2l-.41-.3a.61.61 0 0 0-.29-.09c-.03-.04-.07-.05-.12-.04a.3.3 0 0 1-.12.01.31.31 0 0 1-.15-.11c-.12-.3-.34-.42-.66-.4-.3.03-.56-.01-.89.05a3 3 0 0 0-.92.34c-.05.03-.16.04-.31.05-.1 0-.17.06-.22.15-.05.07-.01.15 0 .24v.06c-.06.1-.01.18.11.22.05.03.07.06.08.1 0 .02-.01.03-.04.03l-.24-.03-.2-.2c-.02 0-.02-.02-.03-.02-.06-.16-.1-.31-.1-.46 0-.04.02-.09.06-.12a.19.19 0 0 1 .12-.06c.15 0 .34-.1.49-.1.26-.02.48-.18.73-.25l.66-.19c.11-.02.21.03.34-.02.2-.07.46-.1.76-.1.05 0 .13-.02.24-.08.25-.14.79-.38.94-.01.05.12.02.27.01.44 0 .06.01.11.04.16l.21.4c.07.12.2.21.32.3a.1.1 0 0 1 .04.05l.05.18c0 .03.03.06.06.07l.32.11a.05.05 0 0 1 .03.05.05.05 0 0 1-.04.04l-.21.06c-.03 0-.04.02-.04.05v.04l.05.02.05.02c.03.01.04.03.03.05l.01.12c.17.22.28.33.22.64 0 .03-.01.04-.03.05a.5.5 0 0 1-.18.07Z" fill="#EBD1C4"/><path d="M9.22 3.62s-.01 0 0 0c.1-.09.24-.16.38-.22a.18.18 0 0 1 .1-.01c.02 0 .03.01.03.03l.11.4a.02.02 0 0 1 0 .02.02.02 0 0 1-.02 0l-.6-.22Z" fill="#D4A498"/><path d="m9.33 4.29-.13-.14a.51.51 0 0 0-.28-.2.06.06 0 0 0-.07.02.06.06 0 0 0 0 .06l.26.44.02.04-.01.03-.02.03h-.03l-.06-.02c-.24-.05-.4.1-.57.24-.1.09-.19.15-.28.2l-.3.15h-.07l-.52.27a.06.06 0 0 0-.03.06c-.02.3-.23.33-.37.54a.07.07 0 0 0-.02.07c.1.36.07.6.04 1.03a1.11 1.11 0 0 1-.31-.27l-.4-.11c-.26-.06-.38-.2-.45-.45a3.43 3.43 0 0 0-.09-.24.19.19 0 0 1 0-.16c0 .18.15.28.22.43.06.14.13.14.19 0l.04-.11c.26-.19.5-.44.43-.74v-.02a.03.03 0 0 0-.06 0l-.29.4c-.07-.02-.1-.05-.12-.11 0-.03 0-.05.02-.06a.75.75 0 0 0 .14-.29c0-.03 0-.04-.03-.05h-.11l.08-.07a.08.08 0 0 0 .02-.06c0-.04.02-.08.07-.1l.24.03c.03 0 .04-.01.04-.04s-.03-.06-.08-.1l.37.26-.13.35v.01h.03l.04-.01.2-.32c.26-.19.53-.3.84-.32.02 0 .02 0 .03-.02v-.05c0-.02 0-.03-.03-.02l-.24.06a.04.04 0 0 1-.03 0 .04.04 0 0 1-.01-.05.62.62 0 0 1 .48-.43l.03-.02.03-.03v-.03l-.02-.03c-.03-.02-.06-.02-.1.01a.1.1 0 0 1-.06.02l-1-.09a3 3 0 0 1 .91-.34c.33-.06.59-.02.9-.04.31-.03.53.1.65.39Z" fill="#D6A996"/><path d="M9.2 4.15c.04.09.1.17.17.23.12.1.15.18.17.32a.15.15 0 0 1-.03.12.13.13 0 0 1-.05.04.13.13 0 0 1-.06 0l-.08.04c-.1.01-.19.09-.26.23 0-.16.06-.25.16-.28.14-.04.14-.07 0-.09-.1 0-.16-.08-.21-.21l.06.02h.03l.02-.03v-.07l-.27-.44a.06.06 0 0 1 0-.06.06.06 0 0 1 .07-.02c.11.03.2.1.27.2Z" fill="#42383D"/><path d="M9.32 4.29c.05.06.1.1.16.11a.3.3 0 0 0 .12 0c.05-.02.1 0 .12.03l-.1.01c-.02.02-.01.04 0 .08l.13.15c.08.06.12.1.12.13a.28.28 0 0 0-.16-.04c-.03 0-.04.02-.03.04 0 .09.05.16.12.22-.02 0-.04 0-.06.02a.04.04 0 0 0-.01.03.04.04 0 0 0 .02.04c.06.02.12.02.19-.03.12.01.25.06.37.14-.23.05-.36-.01-.58.14a.07.07 0 0 0-.03.05c0 .1.04.2.13.29a.04.04 0 0 1 0 .06l-.07.06a.07.07 0 0 0-.02.07.07.07 0 0 0 .05.05.3.3 0 0 0 .22 0c.03-.02.07-.06.1-.15a.5.5 0 0 1 .18-.2c-.02.13.01.3-.1.4a.08.08 0 0 0-.03.05c-.01.1-.03.16-.05.2-.07-.1-.23-.11-.45-.03a.1.1 0 0 1-.07 0l-.21-.08a.06.06 0 0 1-.05-.05l-.01-.06a.06.06 0 0 0-.06-.03L9.11 6a.48.48 0 0 1 .21-.06l.04-.02.28-.27a.04.04 0 0 0 .01-.05.52.52 0 0 1 .04-.45.1.1 0 0 0 .01-.06c-.03-.17-.23-.18-.38-.19a.28.28 0 0 1 .08-.03l.06-.01c.02 0 .04-.02.05-.04a.15.15 0 0 0 .03-.12.44.44 0 0 0-.17-.32.67.67 0 0 1-.18-.23l.13.14Z" fill="#926B5E"/><path d="m6.96 5.28.2-.27c.03-.03.03-.06 0-.08l-.02-.01h-.1l-.16.15a.1.1 0 0 0-.03.05l-.04.13L6.44 5c-.12-.04-.17-.11-.12-.22v-.06c0-.09-.04-.17 0-.24.06-.1.14-.14.23-.15.15 0 .26-.02.31-.05l1 .1a.1.1 0 0 0 .07-.03c.04-.03.07-.03.1-.01l.02.03v.03l-.03.03a.08.08 0 0 1-.03.02c-.24.04-.4.2-.48.43a.04.04 0 0 0 0 .04.04.04 0 0 0 .05.01l.23-.06c.02 0 .03 0 .03.02v.05c0 .01-.01.02-.03.02-.3.03-.58.13-.83.32Z" fill="#C78E77"/><path d="M6.97 4.43a.14.14 0 0 1 .06-.06c.02-.01.04 0 .05.02.13.2-.05.3-.22.4-.03.02-.04.01-.06-.01a.33.33 0 0 1-.02-.2c0-.02 0-.03-.02-.05a.07.07 0 0 0-.04-.03 1.47 1.47 0 0 1-.14-.03c-.1-.09-.07-.12.05-.1a.5.5 0 0 1 .22.1.08.08 0 0 0 .07 0 .09.09 0 0 0 .05-.04Z" fill="#8A5332"/><path d="M9.87 4.8c0-.03-.04-.07-.12-.13.2-.03.29-.08.26-.15l.41.3c.07.05.1.12.07.2l-.02.08c-.02.08-.06.1-.12.03-.14-.15-.3-.26-.48-.33Z" fill="#62391D"/><path d="M9 4.55c.06.13.13.2.21.21.15.02.15.05.01.09-.1.03-.15.12-.16.28a.25.25 0 0 0-.1.12h-.03c-.08.01-.18.01-.24.06-.1.06-.15.13-.27.16-.14.02-.3.09-.49.19a.42.42 0 0 0-.23.33.64.64 0 0 1-.19.11.05.05 0 0 1-.05 0 .05.05 0 0 1-.01-.06l.16-.63c0-.02.02-.04.04-.05a.62.62 0 0 0 .2-.22l.31-.15c.1-.05.18-.11.28-.2.16-.14.33-.3.57-.24Z" fill="#0A1312"/><path d="M8.61 4.96v.03c0 .03-.02.05-.06.05-.05 0-.08-.02-.09-.05 0-.02 0-.04.02-.05l.18-.1h.07c.03.03.02.05-.01.06l-.06.02a.1.1 0 0 0-.05.04Z" fill="#42383D"/><path d="M9.32 4.9c.15 0 .35.02.38.19a.1.1 0 0 1 0 .06.52.52 0 0 0-.05.45l-.01.05-.28.27-.03.02A.48.48 0 0 0 9.1 6c-.04 0-.09.04-.15.11a.7.7 0 0 0-.34.3.09.09 0 0 1-.05.03l-.27.07a.02.02 0 0 1-.02 0 .02.02 0 0 1 0-.03.7.7 0 0 1 .38-.37c.03-.01.04-.03.05-.05l.1-.4c0-.03-.02-.04-.08-.03.1-.12.18-.24.23-.38a.25.25 0 0 1 .1-.12c.07-.14.16-.22.26-.23Z" fill="#D1B4AA"/><path d="m6.96 5.28-.2.32-.05.02H6.7l-.01-.02.13-.35.04-.13a.1.1 0 0 1 .03-.05l.17-.14c.02-.02.05-.02.09-.01h.02c.03.03.03.06 0 .09l-.2.27Z" fill="#926B5E"/><path d="M7.79 5.14c-.12.12-.26.22-.42.28-.03.01-.03.03-.03.05.02.1.02.2 0 .28 0 .03-.01.04-.03.05l-.16.1c-.02 0-.03.02-.02.05l.16.67c.01.08.11.23.3.43l-.56.24-.1.02-.05-.2c.04-.44.08-.67-.03-1.03 0-.03 0-.05.02-.07.14-.21.35-.24.37-.54 0-.03 0-.05.03-.06l.52-.27Z" fill="#B47D5E"/><path d="M7.86 5.14a.62.62 0 0 1-.21.22.09.09 0 0 0-.04.05l-.16.63a.05.05 0 0 0 .01.05.05.05 0 0 0 .05.01.64.64 0 0 0 .19-.11c.18-.07.36-.15.53-.25.13-.08.26-.13.4-.16a.32.32 0 0 0 .18-.13c.05-.06.08-.12.12-.2h.03a1.3 1.3 0 0 1-.23.38c-.13.04-.33.06-.38.2 0 .02-.02.02-.03 0-.04-.04-.09-.04-.15 0-.13.07-.38.17-.5.32-.09.1-.16.18-.23.23a.06.06 0 0 0-.02.02v.04c.01.06.04.1.07.11h.07c.1-.06.19-.07.25-.06.17.04.28 0 .31-.1l-.05.2c-.01.02 0 .03.02.03l.2-.03-.3.15a.05.05 0 0 0-.02.04v.17a.04.04 0 0 1-.03.04l-.06.03c-.01 0-.02 0-.02.02v.02c0 .02 0 .03.03.03.37.05.74.12 1.1.03a5.86 5.86 0 0 0 1-.36.11.11 0 0 0 .03-.09.1.1 0 0 0-.02-.04c-.02-.02-.04-.03-.06-.01a.37.37 0 0 0-.19 0c.03-.04.06-.05.08-.06a.7.7 0 0 0 .36-.11h.03c-.01.19-.13.34-.35.44l-.8.34c-.13.05-.29.06-.48.05-.4-.04-.74-.11-1-.23-.19-.2-.29-.35-.3-.43-.06-.25-.1-.48-.16-.67-.01-.03 0-.04.02-.06l.16-.09a.07.07 0 0 0 .03-.05.68.68 0 0 0 0-.28c0-.02 0-.04.03-.05.16-.06.3-.16.42-.28h.07Z" fill="#8A5332"/><path d="M10.31 5.22c.05.12.04.24-.02.37a.5.5 0 0 0-.17.2c-.04.09-.08.13-.11.15a.3.3 0 0 1-.22 0 .07.07 0 0 1-.05-.05.07.07 0 0 1 .02-.07l.07-.06a.04.04 0 0 0 0-.06.4.4 0 0 1-.13-.29c0-.02.01-.04.03-.05.22-.15.35-.09.58-.14Z" fill="#0A1312"/><path d="M8.93 5.26a1.2 1.2 0 0 1-.12.19.32.32 0 0 1-.18.13c-.14.03-.27.08-.4.16-.17.1-.35.18-.53.25.01-.14.1-.26.23-.33.19-.1.35-.17.49-.2.12-.02.18-.09.27-.15.06-.05.16-.05.24-.05Z" fill="#371E11"/><path d="M6.07 5.34a.23.23 0 0 1 .1 0c.04 0 .05.01.04.04-.03.1-.08.2-.14.29a.07.07 0 0 0-.02.06c.01.06.05.1.12.1a.21.21 0 0 1-.15 0 .15.15 0 0 0-.07-.01l-.24.02.36-.5Z" fill="#B47D5E"/><path d="M6.09 6.2 5.97 6a.08.08 0 0 0-.1-.03l-.13.05c-.02 0-.04 0-.05-.03a.35.35 0 0 1-.02-.12c.01-.02.02-.03.04-.03l.24-.02h.07c.06.03.1.03.15.01l.3-.38a.03.03 0 0 1 .03-.02.03.03 0 0 1 .02.03c.06.3-.17.55-.43.74Z" fill="#62391D"/><path d="M8.73 5.63c.06-.01.08 0 .08.03-.06.1-.18.13-.25.19a.85.85 0 0 1-.18.1.12.12 0 0 0-.06.04l-.2.25c-.02.02-.02.04 0 .06.04.04.04.07 0 .09-.03.1-.14.14-.31.1-.06-.01-.14 0-.25.06a.08.08 0 0 1-.07 0c-.03-.01-.06-.05-.08-.11V6.4l.03-.02c.07-.05.14-.13.23-.23.12-.15.37-.25.5-.33.06-.03.11-.03.15.01.01.02.03.02.03 0 .05-.14.25-.16.38-.2Z" fill="#0A1312"/><path d="m8.8 5.66-.1.4c0 .02-.01.04-.04.05a.7.7 0 0 0-.39.38.02.02 0 0 0 .02.02l.28-.07c.02 0 .04-.02.05-.04a.7.7 0 0 1 .34-.29c.16.04.28.1.36.17a.7.7 0 0 0 .2.14c.18.06.35.03.52-.1v.08c0 .03 0 .04.03.04h.12a.7.7 0 0 1-.36.12c-.03 0-.05.02-.08.05-.2.05-.7.07-.77-.2a.08.08 0 0 0-.04-.05.26.26 0 0 0-.2-.04.1.1 0 0 0-.05.04c-.12.2-.23.17-.4.23l-.2.03c-.02 0-.03-.01-.02-.03l.05-.2c.04-.02.04-.05 0-.1-.02-.01-.02-.03 0-.05l.2-.25a.12.12 0 0 1 .06-.04.85.85 0 0 0 .18-.1c.07-.06.19-.09.25-.2Z" fill="#926B5E"/><path d="M11.19 6.4c-.1.12-.2.18-.34.18l-.07-.25a.06.06 0 0 0-.04-.05l-.5-.13.28-.4a.03.03 0 0 1 .02-.01.03.03 0 0 1 .02 0l.17.17c.02.02.04.03.07.02.07 0 .11-.04.13-.08a.06.06 0 0 1 .05-.03c.36-.02.35.36.2.59Z" fill="#D1B4AA"/><path d="M5.67 5.87c0 .04 0 .08.02.12 0 .03.03.04.05.03l.13-.05a.08.08 0 0 1 .1.03l.12.2-.04.11c-.06.14-.13.14-.19 0-.07-.15-.22-.25-.22-.43l.03-.01Z" fill="#B47D5E"/><path d="M10.11 6.25c-.04.06-.06.08-.07.07a.57.57 0 0 1-.53.1.7.7 0 0 1-.19-.14.83.83 0 0 0-.36-.17c.06-.07.11-.1.15-.1l.15-.02a.06.06 0 0 1 .06.03l.01.06c0 .03.02.05.05.05l.2.08a.1.1 0 0 0 .08 0c.22-.08.38-.07.45.04Z" fill="#371E11"/><path d="M10.85 6.58h-.02c-.23 0-.44.05-.64.15l.11-.12c.04-.04.05-.07.05-.1-.01-.04-.05-.06-.13-.07h-.06l.08-.3.5.14.03.02.01.03.07.25Z" fill="#B47D5E"/><path d="M9.75 6.61a.86.86 0 0 1-.96-.2.06.06 0 0 0-.05-.01.06.06 0 0 0-.04.02 1.02 1.02 0 0 0-.22.48.03.03 0 0 1-.03.01l-.14-.13a.16.16 0 0 0-.14-.05.16.16 0 0 0-.12.1L8 7c0 .02 0 .04.02.04.4.08.7.1.9.03.5-.14.78-.22 1.04-.39.01 0 .02-.02 0-.04v-.02c.01-.02.03-.01.05.01a.11.11 0 0 1-.05.16c-.32.14-.63.25-.95.33-.37.1-.74.02-1.11-.03-.02 0-.04-.01-.03-.03v-.02c0-.01 0-.02.02-.02l.06-.03a.04.04 0 0 0 .03-.04v-.17A.05.05 0 0 1 8 6.74l.28-.15c.18-.06.29-.04.4-.23a.1.1 0 0 1 .06-.04c.07-.02.13 0 .2.04.02 0 .04.03.04.05.07.27.57.25.77.2Z" fill="#62391D"/><path d="M9.75 6.61a.37.37 0 0 1 .2 0v.03c.02.02.01.03 0 .04-.26.17-.55.25-1.03.4-.2.05-.5.04-.9-.04-.03 0-.04-.02-.03-.04l.06-.17a.15.15 0 0 1 .12-.1.16.16 0 0 1 .14.05l.13.13a.03.03 0 0 0 .03 0 .03.03 0 0 0 .02-.02 1.02 1.02 0 0 1 .23-.49.06.06 0 0 1 .05 0l.02.01c.28.27.6.34.96.2Z" fill="#371E11"/><path d="M10.2 6.73a13.55 13.55 0 0 0-.6.58c-.16.17-.29.28-.38.32-.62.32-1.73.2-2.19-.34l.55-.24c.27.12.6.19 1.01.23.2.01.35 0 .47-.05.27-.1.54-.22.8-.34.23-.1.35-.25.36-.45.08 0 .12.03.13.07 0 .03-.01.06-.05.1a1.5 1.5 0 0 0-.1.12Z" fill="#D15658"/><path d="m10.83 6.58-.47.12-.06.01c-.1.3-.16.63-.35.87-.35.19-.65.32-.89.4-.55.17-1.08.05-1.67-.14-.49-.16-.65-.52-.81-1 .08.11.19.2.3.27l.06.2c.1.16.19.27.29.33.65.38 1.34.43 2.05.14.2-.08.35-.2.46-.38a35.84 35.84 0 0 1 .45-.67c.2-.1.4-.15.64-.15Z" fill="#E597AA"/><path d="M10.36 6.7c-.04.06-.05.1-.02.14.16.2.44.52.84.95-.09-.05-.2-.11-.3-.05-.06.04-.06.1-.02.19.1.17.27.27.5.28a.05.05 0 0 0 .04-.02.05.05 0 0 0 .01-.04.62.62 0 0 0-.18-.32c.2.09.4.2.58.32.2.13.17.42.49.36.18-.04.37-.05.55-.03-.29.07-.67.2-.91.2-.3 0-.6-.04-.88-.14a.89.89 0 0 1-.56-.5 2.72 2.72 0 0 1-.2-1.33l.06-.01Z" fill="#F0C7D3"/><path d="M6.58 6.84c.17.48.32.84.8 1 .6.2 1.13.3 1.68.13.24-.07.54-.2.9-.39-.12.42-.06.8.18 1.16.1.13.2.21.31.23.11.01.2 0 .25-.06.09-.09.16-.12.23-.1.38.1.67.17 1.03.07.06-.01.18-.07.35-.16.19-.11.4-.17.65-.17-.3.05-.54.19-.71.4-.32.34-.73.23-1.13.14-.04-.01-.08 0-.12.01a.15.15 0 0 0-.06.1c-.06.2-.17.4-.35.54-.16.14-.26.38-.42.47-.2.11-.4.04-.6.01-.4-.06-.72-.27-.97-.62l-.14-.33a1.2 1.2 0 0 0-.18-.3c-.21-.26-.46-.35-.74-.29a.24.24 0 0 0-.1-.17.33.33 0 0 0-.27-.06c.2-.06.25-.2.1-.35-.2-.2-.42-.37-.56-.6a3.39 3.39 0 0 1-.35-.72l-.16-.04-.02-.01.4.11Z" fill="#EBA4B6"/><path d="M10.3 6.71c-.04.47.02.91.2 1.33.1.24.3.41.56.5.29.1.58.15.88.14.24 0 .62-.13.91-.2l.65.07h-.54c-.24 0-.46.06-.65.17-.17.1-.29.15-.35.16-.36.1-.65.03-1.03-.08-.07-.01-.14.02-.23.1-.06.06-.14.08-.25.07-.11-.02-.22-.1-.31-.23-.24-.35-.3-.74-.19-1.16.19-.24.25-.58.35-.87Z" fill="#EDBBC8"/><path d="M6.36 6.78c.02.47.19.76.47 1.17.15.21.15.39 0 .53a.27.27 0 0 0-.23.2c-.05.16.01.21.12.3.21.17.35.2.43.12.43 0 .8.14 1.1.4.08.07.07.1-.03.1-.58 0-1.23.03-1.78.31-.02.01-.04 0-.05-.02l-.32-.78c0-.02-.01-.02-.02 0-.12.28-.28.5-.49.65-.36.27-.68.03-.82-.32a.4.4 0 0 0 .42-.03c.08-.04.1-.11.06-.18-.02-.03-.01-.06.02-.08.12-.1.14-.17.07-.22-.2-.16-.5.04-.6.22-.06 0-.1.02-.14.05a.07.07 0 0 0-.03.05c-.02.31-.03.62-.02.93 0 .07-.04.2-.12.4.15-.44.1-.82.04-1.31 0-.02 0-.05.02-.07A.61.61 0 0 1 4.7 9a.1.1 0 0 0 .05-.04c.1-.18.24-.31.42-.42.02-.01.05-.06.09-.13a.59.59 0 0 0 .04-.14c.04-.21.13-.4.26-.56.24-.3.14-.66.54-.86.06-.02.07-.05.09-.1l.16.03Z" fill="#F0C7D3"/><path d="M7.17 8.45a.52.52 0 0 1-.34.03c.15-.14.15-.32 0-.53-.28-.41-.45-.7-.47-1.17.09.25.2.5.35.72.14.23.37.4.56.6.15.15.1.29-.1.35Z" fill="#EDBBC8"/><path d="m10.14 6.78-.4.62a.94.94 0 0 1-.46.38c-.71.29-1.4.24-2.05-.14a.89.89 0 0 1-.3-.33l.1-.02c.46.54 1.57.66 2.19.34.09-.04.22-.15.38-.32l.54-.53Z" fill="#E07881"/><path d="m11.18 7.8.05.03c.1.1.16.2.18.32v.02l-.01.02a.05.05 0 0 1-.04.02c-.23-.01-.4-.1-.5-.28-.04-.08-.04-.15.02-.19.1-.06.21 0 .3.05ZM7.54 8.68l-.4.42c-.07.09-.2.05-.42-.12-.1-.09-.17-.14-.12-.3a.27.27 0 0 1 .23-.2c.12.03.24.02.34-.03.1-.02.2 0 .28.06.05.04.08.1.1.17Z" fill="#B4021A"/><path d="m8.6 9.6.05.38-.01.03-.02.01h-.05a1 1 0 0 0-.4-.24c-.43-.09-.9-.08-1.38.02a.06.06 0 0 0-.05.05l-.13.4-.03.02c-.29.17-.58.15-.87-.07-.06-.1-.12-.13-.2-.08-.13.1-.13.21 0 .33.02.03.07.07.16.13a2.85 2.85 0 0 0 .59.53v.04a.2.2 0 0 1-.09.11c-.03.02-.09.03-.16.01a1.59 1.59 0 0 0-.53-.02h-.15a.06.06 0 0 1-.05-.04l-.06-.1c-.04-.06-.1-.08-.17-.05-.26.1-.06.7.14.8l.7.03c.02 0 .02.01.03.02V11.97l-.78.3-.01.03v.02l.02.02h.02l1-.26c.03 0 .04 0 .04.02v.05l-.01.01c-.33.07-.65.17-.95.3-.3-.31-.58-.64-.84-1-.1-.13-.18-.27-.24-.42l.23-.47c.08-.2.12-.32.12-.39 0-.3 0-.62.02-.93 0-.02.01-.04.03-.05a.27.27 0 0 1 .13-.05c-.09.1-.08.2.04.29.14.35.46.59.82.32.21-.15.37-.37.5-.65 0-.02 0-.02.01 0l.32.78c0 .03.03.03.05.02.55-.28 1.2-.3 1.78-.3.1 0 .11-.04.04-.1-.3-.27-.68-.4-1.11-.41l.4-.42c.27-.06.52.03.73.28.06.08.12.18.18.3l.14.34Z" fill="#EDBBC8"/><path d="M9.67 8.66c.06-.07.13-.1.19-.08.39.15.19.54 0 .77a.1.1 0 0 1-.12.02c-.26-.1-.54-.25-.45-.59a.15.15 0 0 1 .16-.1l.16.01c.03 0 .05 0 .06-.03Z" fill="#90010D"/><path d="m14.7 9.34-.15.05c.01-.04.04-.07.09-.08a.03.03 0 0 0 .02-.03c0-.01 0-.03-.02-.03a.3.3 0 0 1-.1-.04.06.06 0 0 1-.02-.06V9.1a.03.03 0 0 0-.03-.03h-.01c-.1.02-.15-.01-.15-.1-.22-.12-.44-.2-.68-.2-.17 0-.37.05-.55.08a.07.07 0 0 0-.06.04l-.1.27a.07.07 0 0 1-.06.04.07.07 0 0 1-.06-.04l-.07-.15c-.02-.07-.05-.07-.07 0-.07.3-.04.58.1.82a.08.08 0 0 0 .07.04.08.08 0 0 0 .07-.04.73.73 0 0 1 .39-.37l-.06.39a.14.14 0 0 1-.11.11c-.16.03-.3.1-.43.18a.08.08 0 0 1-.07 0 .08.08 0 0 1-.05-.05c-.04-.1-.12-.15-.24-.12 0-.02-.02-.02-.06-.03l.1-.03c.02-.01.03-.03.03-.05v-.79c-.02-.07-.07-.08-.15-.02 0-.05 0-.1.04-.12a.07.07 0 0 1 .07-.02l.11.03.05-.01.2-.2c0-.02.02-.02.05-.02l.86-.02c.2 0 .57.1.72.32.02.02.03.02.06.02l.1-.03c.04 0 .06 0 .08.02.07.1.1.2.1.32Z" fill="#B47D5E"/><path d="M14.33 8.97a2.29 2.29 0 0 0-.26-.06c-.1-.01-.19-.03-.26-.06a.55.55 0 0 0-.34-.02 30.8 30.8 0 0 1-.35.1.1.1 0 0 0-.03.05l-.01.12a.1.1 0 0 1-.03.06c-.08.1-.08.17.02.24.02.02.04.03.07.03h.3a.39.39 0 0 0-.13.03c-.18.08-.31.2-.4.37a.08.08 0 0 1-.06.04.08.08 0 0 1-.07-.04 1.06 1.06 0 0 1-.1-.82c.02-.07.05-.07.07 0l.07.15a.07.07 0 0 0 .06.04.07.07 0 0 0 .06-.04l.1-.27c.01-.02.03-.04.06-.04.18-.03.38-.09.55-.08.24 0 .46.08.68.2Z" fill="#8A5332"/><path d="M14.33 8.97c0 .09.05.12.15.1a.03.03 0 0 1 .04.02V9.15c0 .02 0 .04.02.06a.3.3 0 0 0 .1.03c.02.01.02.03.02.04v.02h-.02c-.05.02-.08.05-.09.09-.12.15-.29.18-.5.08a.78.78 0 0 0-.3-.08c-.1 0-.2.01-.32.04h-.3l-.06-.03c-.1-.07-.1-.15-.02-.24a.1.1 0 0 0 .03-.06l.01-.12a.1.1 0 0 1 .08-.08l.3-.07a.55.55 0 0 1 .34.02c.07.03.16.05.26.06l.26.06Z" fill="#26180E"/><path d="M4.74 9.44c-.12-.1-.13-.19-.04-.29.11-.18.4-.38.61-.22.07.05.05.12-.07.22-.03.02-.04.05-.02.08.04.07.02.14-.06.18a.4.4 0 0 1-.42.03Z" fill="#B4021A"/><path d="M12.25 8.95v.07c-.05.24-.19.37-.4.38a1.73 1.73 0 0 1-.75-.1.04.04 0 0 0-.02.03v.02l.17.64V10a.04.04 0 0 1-.04.03h-.02c-.15-.07-.5-.26-.6-.04-.03.07-.02.13.03.17.02.09.05.18.1.26.04.03.08.03.12.02.02 0 .03 0 .03.03-.01.04-.05.08-.1.1-.31.17-.64.28-1 .32-.2.03-.4.03-.58-.02.15-.06.18-.36.16-.51a.1.1 0 0 0-.02-.05.1.1 0 0 0-.15 0c-.1.1-.23.1-.31.18-.08.07-.07.15 0 .25l-.37-.3a.38.38 0 0 1-.13-.2l.11.14a.04.04 0 0 0 .04.02.04.04 0 0 0 .04-.04v-.05l-.01-.05c-.04-.06-.04-.1-.02-.15l-.01-.05c-.45-.4-1.09-.4-1.62-.24a.07.07 0 0 0-.05.04c-.06.14-.14.26-.24.37l.13-.4.05-.04c.49-.1.95-.1 1.38-.02.11.03.24.1.4.23.01.02.03.02.05.01l.02-.01v-.03L8.6 9.6c.24.35.57.56.97.62.2.03.4.1.6 0 .16-.1.26-.34.42-.48.18-.15.3-.33.35-.54 0-.04.03-.08.06-.1a.15.15 0 0 1 .12-.01c.4.1.81.2 1.13-.14Z" fill="#E597AA"/><path d="m12.24 9.02.02.06v.43l-.01.26c0 .03-.02.04-.05.03l-.33-.08c-.03 0-.06 0-.08.02l-.15.14c-.02.02-.04.02-.07.01a1.22 1.22 0 0 1-.16-.08c-.08-.06-.1-.03-.07.07l.08.24a.07.07 0 0 1-.01.07l-.18.23v.01l.02.02a1 1 0 0 1 .4-.3l-.37.37a.79.79 0 0 1-.24.17.66.66 0 0 0-.24.18c-.04.23-.2.4-.49.54-.39.19-.72.31-1 .39 0-.14.08-.23.24-.28.46-.14.86-.22 1.24-.57v-.02l-.08-.07c-.01-.04-.04-.05-.09-.03a5.3 5.3 0 0 1-1.47.3l.4-.1c.06-.02.06-.03 0-.02l-.26.04h-.01v-.02l.49-.13c.36-.04.69-.15 1-.31.05-.03.09-.07.1-.11 0-.03 0-.03-.03-.03-.04.01-.08 0-.11-.02.18-.03.3-.13.37-.3a.1.1 0 0 0-.02-.1.1.1 0 0 0-.1-.04c-.06.01-.11 0-.17-.05a.07.07 0 0 0-.06-.01c-.1.03-.15.11-.13.24-.05-.04-.06-.1-.03-.17.1-.22.45-.03.6.03h.02a.04.04 0 0 0 .04-.02v-.02l-.17-.64a.04.04 0 0 1 .02-.04h.02c.23.08.47.11.73.1.21-.02.35-.15.4-.39Z" fill="#E07881"/><path d="m12.3 9.94-.42.01a.02.02 0 0 1-.02 0V9.9c0-.03.01-.04.04-.05l.35-.03c.03 0 .04-.02.04-.04.02-.1 0-.19-.02-.28V9.05c.08-.06.13-.05.14.02.02.12.03.38.01.79 0 .02 0 .04-.03.05l-.1.03Z" fill="#8A5332"/><path d="M12.3 9.94c.03 0 .05.01.05.03a.84.84 0 0 0-.7.17 1 1 0 0 0-.4.3h-.02v-.02l.18-.23a.07.07 0 0 0 0-.07l-.07-.24c-.04-.1-.01-.13.07-.07l.16.08c.03.01.05 0 .07 0l.15-.15a.08.08 0 0 1 .08-.02l.33.08c.03.01.04 0 .05-.03l.02-.26c.03.1.04.19.02.28 0 .02-.01.04-.04.04l-.35.03c-.03 0-.04.02-.04.05v.03a.02.02 0 0 0 0 .01h.44Z" fill="#D15658"/><path d="M8.38 10.25a.67.67 0 0 0-.47-.37c-.16-.04-.67-.07-.88.05a.7.7 0 0 0-.2.18c-.19.26-.33.53-.16.85.07.08.06.15-.04.23a.39.39 0 0 1-.18-.06c-.02-.01-.03-.03 0-.05.04-.05.07-.1.06-.16-.02-.25 0-.47.07-.65a1.35 1.35 0 0 0 .27-.4c0-.02.03-.03.05-.04.53-.15 1.17-.15 1.62.24.01.01.02.03 0 .05-.01.04 0 .1.03.15l.01.05v.05a.04.04 0 0 1-.04.04H8.5l-.02-.02-.1-.14Z" fill="#E07881"/><path d="M4.6 10.06a.53.53 0 0 1 .08-.22.1.1 0 0 1 .07-.04.1.1 0 0 1 .08.02l.03.03c.05.05.04.1-.02.13l-.2.1c-.03.03-.04.02-.04-.02Z" fill="#B4021A"/><path d="M8.37 10.25c.02.08.07.14.13.2l.26.32c.08.09.05.13-.07.1-.3-.05-.39-.3-.57-.45a.93.93 0 0 0-.67-.17.75.75 0 0 0-.55.45l-.23.26c-.17-.32-.03-.6.16-.85a.7.7 0 0 1 .2-.18c.2-.12.72-.09.88-.05.2.05.36.17.46.37Z" fill="#EDBBC8"/><path d="M10.73 10.43a.71.71 0 0 1-.11-.26c-.02-.13.02-.2.13-.24l.06.01c.06.05.11.06.17.05a.1.1 0 0 1 .1.04.1.1 0 0 1 .02.1.44.44 0 0 1-.37.3Z" fill="#6A000B"/><path d="M5.71 10.2c-.03.13 0 .24.1.33.03.03.04.06.02.1 0 .01-.02.02-.05.02a1.54 1.54 0 0 1-.28-.2c-.12-.12-.12-.23.02-.33.07-.05.13-.02.2.08Z" fill="#90010D"/><path d="M6.58 10.27c-.06.18-.09.4-.07.65 0 .05-.02.1-.07.16v.05c.06.03.12.05.2.06 0 .08-.02.15-.05.2a.13.13 0 0 1-.06.05.14.14 0 0 1-.1 0 .43.43 0 0 1-.2-.12c-.02-.02-.04-.02-.05 0a.98.98 0 0 0-.21.53c0 .08 0 .09.04.01l.09-.19.03-.04h.05a1 1 0 0 1 .53.2c-.2-.02-.39.02-.57.12-.02.01-.02.03-.02.04.01.02.02.03.05.03.13-.04.25-.06.34-.07.03 0 .04 0 .04.03.01.25-.03.5-.14.73l-.39.13-.2.06-.57-.44a4.73 4.73 0 0 1 .96-.31v-.05c0-.02 0-.03-.03-.02l-1 .26h-.03l-.01-.02-.01-.02v-.02l.02-.01.76-.3a.03.03 0 0 0 .02-.03l-.01-.03-.03-.02-.7-.03c.23 0 .38-.09.43-.26.05-.16 0-.27-.14-.35.18-.02.35-.02.53.02.07.02.13.01.16 0a.2.2 0 0 0 .1-.12.05.05 0 0 0-.03-.06c-.22-.15-.4-.31-.57-.5.03.02.07.05.11.06.03 0 .04 0 .05-.03.02-.03 0-.06-.02-.09a.33.33 0 0 1-.1-.33c.3.22.58.24.87.07Z" fill="#EBA4B6"/><path d="m8.5 10.45.37.3a1.35 1.35 0 0 0 .9.15l-.49.13v.02h.01l.26-.04c.06 0 .07 0 0 .01l-.4.1c-.15-.08-.29-.14-.42-.17-.1-.03-.11 0-.05.08.1.11.24.17.42.16.08.04.14.09.16.14.04.08.02.1-.06.07a1.24 1.24 0 0 0-.44-.08l-.22-.12h-.02l-.01.01v.03c0 .03 0 .04.02.06l.24.18-.08.11a.37.37 0 0 0-.15-.07h-.02v.01a.02.02 0 0 0 0 .03l.25.22c.06.07.09.14.09.22 0 .02-.01.02-.03 0l-.25-.2c-.03-.02-.04-.01-.04.02s.03.06.07.09l.05.08-.01.08c0 .02-.02.04-.04.04-.05 0-.09-.02-.11-.07a.77.77 0 0 0-.4-.42.4.4 0 0 1-.17-.2l-.05-.28.24-.64a.02.02 0 0 0 0-.02.03.03 0 0 0-.02-.01c-.49-.12-.84.04-1.05.48-.3.61.3 1.11.85 1.3.01 0 .02 0 .02.02v.02c0 .01 0 .02-.02.03l-.47.1a.1.1 0 0 0-.06.02l-.11.02c.03-.12-.01-.23-.12-.32l-.43-.31a1 1 0 0 0-.53-.2.08.08 0 0 0-.08.04l-.09.19c-.03.08-.05.07-.04-.01.01-.2.08-.37.2-.53.02-.02.04-.02.06 0 .04.05.11.1.2.13h.1a.13.13 0 0 0 .06-.06.36.36 0 0 0 .04-.2c.1-.08.11-.15.04-.23l.23-.26a.38.38 0 0 0 .17-.12.62.62 0 0 1 .15-.14 2.4 2.4 0 0 1 .3-.13.03.03 0 0 0 0-.05l-.07-.01c.27-.02.5.03.67.17.18.14.28.4.57.45.12.03.15-.01.07-.1l-.26-.32Z" fill="#D4A498"/><path d="M7.45 10.25h.06a.03.03 0 0 1 0 .07l-.3.12a.61.61 0 0 0-.14.14.38.38 0 0 1-.17.12c.12-.26.3-.4.55-.45Z" fill="#B47D5E"/><path d="M9.19 10.88a.85.85 0 0 1-.32-.13c-.07-.1-.08-.18 0-.25s.22-.07.3-.18a.1.1 0 0 1 .11-.03.1.1 0 0 1 .05.03.1.1 0 0 1 .02.05c.02.15-.01.45-.16.51Z" fill="#6A000B"/><path d="m7.88 11.14-.1-.27c0-.03-.01-.03-.03-.01l-.18.17a.06.06 0 0 1-.04.02l-.04-.01c-.02-.02-.03-.04-.02-.06l.17-.36v-.02H7.6c-.15.16-.26.35-.36.55a.8.8 0 0 1-.22.26l-.01.02v.02c.16.27.38.47.65.6.21.11.45.1.71-.01l.04-.05c0-.08-.04-.15-.11-.22l-.2-.15c.17.07.3.22.39.42.02.05.06.07.1.07.03 0 .05-.02.05-.04v-.08c.04.05.05.1.05.14a.05.05 0 0 1-.04.04c-.23.05-.38.17-.63.2l-.6.05.46-.1c.02 0 .03-.02.03-.03v-.02c0-.02 0-.02-.02-.03-.55-.18-1.15-.68-.85-1.3.2-.43.56-.59 1.05-.47h.01v.01a.02.02 0 0 1 0 .02l-.23.64Z" fill="#C78E77"/><path d="m7.88 11.14.05.28a3.01 3.01 0 0 0-.14-.26c-.11-.17-.15-.15-.11.05l.1.44c.03.1.06.16.11.2.06.04.1.1.14.19.01.02.03.03.05.02.2-.07.27-.17.23-.29.07.07.11.14.1.22 0 .02 0 .04-.03.05-.26.12-.5.12-.71.02a1.54 1.54 0 0 1-.65-.6v-.03l.01-.02a.8.8 0 0 0 .22-.26 2.67 2.67 0 0 1 .36-.55h.02v.02l-.16.36c0 .02 0 .04.02.06h.08l.18-.18c.02-.02.03-.02.04 0l.09.28Z" fill="#B47D5E"/><path d="M9.31 11.8a.2.2 0 0 1-.06.07.04.04 0 0 0-.02.05l.02.08c.01.02.03.03.05.03h.27l-.2.01a.06.06 0 0 0-.05.04c-.02.05-.08.06-.15.03l-.02-.02v-.01c0-.15.03-.25.09-.3a.1.1 0 0 0 .03-.07c0-.08-.05-.12-.14-.13l-.37-.26c.17 0 .31.03.44.08.08.03.1.01.06-.07a.35.35 0 0 0-.16-.14c.04 0 .05-.02.05-.06h.28a5.3 5.3 0 0 0 1.2-.3c.04-.02.07 0 .08.03l.08.07v.02c-.38.35-.78.43-1.24.57-.16.05-.24.14-.24.28Z" fill="#D15658"/><path d="m11.47 12.39-.02.04a1.38 1.38 0 0 0-.87-.37 10.6 10.6 0 0 0-1-.03H9.3c-.02 0-.04 0-.05-.03l-.02-.08c0-.02 0-.03.02-.05a.2.2 0 0 0 .06-.07 6 6 0 0 0 1-.39c.3-.13.45-.31.5-.54.12.08.21.16.27.26l.15.22c.17.18.4.43.12.63a.13.13 0 0 0-.05.15c.03.1.09.18.17.26Z" fill="#E597AA"/><path d="M9.15 11.13c0 .04-.01.06-.05.06-.18 0-.33-.05-.42-.16-.06-.08-.05-.1.05-.08.13.03.27.09.42.18Z" fill="#26180E"/><path d="M5.48 11.25c.15.08.2.2.14.35-.05.17-.2.26-.43.26-.2-.1-.4-.7-.14-.8.07-.03.13-.01.17.06l.06.1.05.02.15.01Z" fill="#B4021A"/><path d="M7.93 11.42a.4.4 0 0 0 .18.2l.2.15c.04.12-.03.22-.23.29-.02 0-.04 0-.05-.02a.52.52 0 0 0-.14-.19.36.36 0 0 1-.1-.2c-.07-.23-.1-.37-.11-.44-.04-.2 0-.22.1-.05a3 3 0 0 1 .15.26Z" fill="#62391D"/><path d="m8.76 11.32.37.26c.05.03.07.08.06.14 0 .02 0 .03-.03.03-.02 0-.06 0-.1-.02l-.02-.02v-.02l-.02-.04a.1.1 0 0 0-.04-.05l-.2-.12-.25-.18a.05.05 0 0 1-.03-.06v-.03a.02.02 0 0 1 .03-.01l.23.12Z" fill="#42383D"/><path d="M9.13 11.58c.1 0 .14.05.14.13a.1.1 0 0 1-.03.07c-.06.05-.1.15-.1.3l.01.01.02.02c.07.03.13.02.15-.03a.06.06 0 0 1 .06-.04l.2-.01c.15-.01.49 0 1 .03.33.01.61.14.87.37.15.11.24.3.29.58.02.13.1.24.22.33l-.88.37c-.17-.23-.42-.35-.76-.36l-.4-.2c-.03 0-.05 0-.06.02a.32.32 0 0 0-.08.16.05.05 0 0 0 .02.05.06.06 0 0 0 .05.01c.2-.04.32.06.46.22.04.05.1.09.16.1.07.02.14.03.22.02l.2.05-.8.17.1-.24a.06.06 0 0 0-.02-.07l-.23-.16a.08.08 0 0 0-.07-.01c-.07.01-.15.07-.22.17v.05l.08.07a.02.02 0 0 1 0 .02.02.02 0 0 1 0 .02c-.1.01-.17 0-.2-.05a.08.08 0 0 1-.01-.07l.05-.2c0-.03 0-.04-.02-.06a1.29 1.29 0 0 0-.15-.07c-.13-.04-.13-.08 0-.12.03 0 .06-.05.09-.12l.06-.13a.6.6 0 0 1 .1-.1.06.06 0 0 0 .03-.04.06.06 0 0 0-.02-.05l-.1-.1a.06.06 0 0 1-.03-.07.3.3 0 0 1 .07-.12.1.1 0 0 0-.03-.16c-.12-.09-.26-.16-.41-.2a.1.1 0 0 1-.05-.04l-.26-.37c-.02-.05-.08-.1-.17-.14l.1-.1.2.1a.1.1 0 0 1 .04.06l.01.04v.02l.03.02.1.02c.02 0 .03-.01.03-.03 0-.06-.01-.11-.06-.14Z" fill="#8A5332"/><path d="M8.68 11.6c.1.03.15.08.17.13-.01.04-.04.05-.09.05l-.24-.22a.02.02 0 0 1 .02-.04c.04 0 .09.03.14.07Z" fill="#42383D"/><path d="m10.09 13.95-.47.05c-.03-.08-.08-.1-.15-.1a.47.47 0 0 1-.33-.03 9.44 9.44 0 0 0-.49-.26c-.06 0-.08.02-.05.08.08.17.07.27-.02.29A5.7 5.7 0 0 1 5.8 12.9l.21-.06h.07l.01.03v.02c-.01.02 0 .04.02.04.19.05.33.02.43-.1.03-.03.02-.06-.03-.06h-.07c-.02-.01-.03-.02-.01-.04.02-.02.03-.03.01-.03l.8-.24.12-.02h.08l.04.03c.01.02 0 .03-.01.04l-.08.05c-.04.02-.04.03 0 .03.35.02.83-.14 1.15-.3.08-.03.22-.04.4 0a1 1 0 0 0 .2.07c.06.02.07 0 .03-.04a1 1 0 0 0-.2-.16l-.18-.03a.06.06 0 0 1-.05-.03.5.5 0 0 0-.14-.2c-.04-.02-.07-.05-.07-.08s.01-.04.04-.02l.25.2c.02.02.02.02.03 0a.3.3 0 0 0-.1-.22c.05 0 .08-.01.1-.05l.25.37a.1.1 0 0 0 .05.04c.15.04.3.11.41.2a.11.11 0 0 1 .05.08.1.1 0 0 1-.02.08.3.3 0 0 0-.07.12c0 .03 0 .05.02.06l.11.11a.06.06 0 0 1 .02.05.06.06 0 0 1-.03.04.6.6 0 0 0-.1.1.48.48 0 0 0-.06.13c-.03.07-.06.11-.1.12-.12.04-.12.08 0 .12l.16.07c.02.02.03.03.02.06l-.05.2v.07c.04.04.1.06.2.05a.02.02 0 0 0 .01-.04l-.08-.07v-.05c.07-.1.15-.16.22-.17a.08.08 0 0 1 .07.01l.23.16a.06.06 0 0 1 .02.07l-.1.24Z" fill="#62391D"/><path d="m6.71 11.83.43.31c.1.09.15.2.12.32l-.8.24H6.4c.1-.22.15-.47.14-.72 0-.03-.02-.04-.04-.03-.1.01-.2.03-.34.07-.03 0-.04 0-.05-.03 0-.01 0-.03.02-.04.18-.1.37-.14.57-.12Z" fill="#E597AA"/><path d="M8.98 12.16c-.06 0-.09.01-.09.04s.03.06.07.08c-.19-.03-.33-.02-.4.02-.33.15-.8.31-1.15.3-.05 0-.05-.02-.01-.04l.08-.05c.02 0 .02-.02.01-.04l-.04-.02h-.08a17.02 17.02 0 0 0 .66-.08c.25-.03.4-.15.63-.2a.05.05 0 0 0 .04-.04c0-.05 0-.1-.04-.14l-.05-.08c.06.04.1.1.14.19.01.02.03.03.05.03l.18.03Z" fill="#8A5332"/><path d="M8.98 12.16a1 1 0 0 1 .2.16c.04.04.03.06-.02.04a.99.99 0 0 1-.2-.08c-.04-.02-.06-.05-.07-.08 0-.03.03-.04.1-.04Z" fill="#C78E77"/><path d="M8.46 12.79c-.05-.07-.08-.06-.07.02 0 .05-.02.1-.07.14a.05.05 0 0 1-.05.01l-.03-.02v-.03l.04-.37c0-.04.02-.05.05-.01l.02.02h.02a.56.56 0 0 1 .55-.2c.02 0 .03.02.04.04l.1.33c.01.09-.01.1-.08.06a1.81 1.81 0 0 0-.4-.17.04.04 0 0 0-.03.03v.02l.07.26c0 .02 0 .03-.02.03h-.03l-.01-.02a1.01 1.01 0 0 0-.1-.14Z" fill="#371E11"/><path d="M11.47 12.39c.18.17.37.32.58.46a.2.2 0 0 1 .1.14c0 .03 0 .04.03.05l.13.07c-.02.04-.07.06-.14.06a.11.11 0 0 1-.06-.03.16.16 0 0 0-.12-.03c-.02 0-.04.01-.04.04l.01.04.03.02a.2.2 0 0 0 .06.02c.03 0 .03.02 0 .05a.27.27 0 0 1-.09.06.51.51 0 0 1-.22-.33c-.05-.27-.15-.47-.3-.58l.03-.04Z" fill="#C78E77"/><path d="M6.41 12.7h.04c.02 0 .01.01-.01.03-.02.02-.01.03.01.03h.07c.05.01.06.04.03.08-.1.11-.24.14-.43.1-.02-.01-.03-.03-.02-.05v-.02l-.01-.02-.07-.01.4-.13Z" fill="#8A5332"/><path d="M10.32 13.35c.12.17.28.27.47.28.02 0 .04.02.05.04l.01.03c.01.02 0 .03-.01.03h-.15c-.08 0-.15 0-.22-.02a.3.3 0 0 1-.16-.1c-.14-.16-.27-.26-.46-.22a.06.06 0 0 1-.05-.01.05.05 0 0 1-.02-.05c0-.05.03-.1.08-.16.01-.02.03-.02.05-.01l.4.2Z" fill="#26180E"/><path d="m11.08 13.71-.18.07-.21-.05h.15c.02 0 .02 0 .01-.03v-.03a.06.06 0 0 0-.06-.04.65.65 0 0 1-.47-.28c.34.01.6.13.76.36Z" fill="#62391D"/><path d="m9.62 14-1.04-.02c.1-.02.1-.12.02-.3-.03-.05-.01-.08.05-.07l.07.03.42.23c.09.05.2.06.33.04.07-.02.12.01.15.09Z" fill="#8A5332"/></svg>