<!-- by TradingView --><svg width="18" height="18" viewBox="0 0 18 18" xmlns="http://www.w3.org/2000/svg"><path fill="#F0F3FA" d="M0 0h18v18H0z"/><path d="M11.5 5.98c.25.5.4 1.05.4 1.62v.05L14 5.98V4l-2.5 1.98Z" fill="#0DB9CB"/><path d="M11.24 7.6c0-1.97-1.82-3.59-4.24-3.59v1.5c1.49 0 2.54.9 2.59 2.03l-1.12.9c.3.46.5.99.57 1.54l1-.8A4.54 4.54 0 0 0 14 11.22V9.73c-1.53-.01-2.76-.96-2.76-2.12Z" fill="#0DB9CB"/><path d="M11 13.97v-1.49c-1.52 0-2.6-.95-2.6-2.1 0-1.99-1.98-3.6-4.4-3.6v1.49c1.29 0 2.37.69 2.66 1.61l-.58.47-1.2.96-.88.7V14l3-2.4c.6 1.37 2.09 2.37 4 2.37Z" fill="#0DB9CB"/></svg>