<!-- by TradingView --><svg width="18" height="18" viewBox="0 0 18 18" xmlns="http://www.w3.org/2000/svg"><path fill="url(#a4ce1peid)" d="M0 0h18v18H0z"/><path d="M16 8.98c0-.48-2.01-1-4.82-1.16 1.68-.16 2.8-.49 2.8-.81 0-.4-1.64-.78-3.84-.9.83-.1 1.4-.3 1.4-.53 0-.26-1.12-.58-2.56-.58-1.4 0-2.56.3-2.56.58 0 .26.52.42 1.31.52-2.13.1-3.75.49-3.75.88 0 .32 1.13.64 2.78.8C4 7.99 2 8.48 2 8.99c0 .55 1.98 1 4.73 1.2-1.62.16-2.75.49-2.75.81 0 .42 1.59.78 3.75.9-.76.1-1.3.27-1.3.53s1.12.58 2.55.58c1.4 0 2.57-.32 2.57-.58 0-.23-.58-.42-1.4-.52 2.19-.1 3.84-.52 3.84-.9 0-.33-1.13-.66-2.78-.82C14 9.98 16 9.5 16 8.98ZM7.29 7.42l1.36-.87a.6.6 0 0 1 .35-.1c.12 0 .23.04.32.1 0 0 .6.32 1.03.58.24.15.75.42.75.69 0 .05-.01.09-.06.09-1.27 0-2.39-.18-3.72-.36-.03 0-.07-.03-.07-.06 0-.02 0-.05.04-.07Zm2.03 4.03c-.09.06-.2.1-.32.1a.6.6 0 0 1-.35-.1c-.31-.2-1.32-.77-1.4-.9-.08-.17 3.37-.46 3.7-.46.11 0 .15.02.15.04 0 .04-.09.1-.18.16-.45.35-1.33 1-1.6 1.16ZM11 9.37c0 .19 0 .2-.3.25-1.05.19-1.91.23-2.98.24-.23 0-.72 0-.72-.2V8.34c0-.2 0-.25.4-.26a11.2 11.2 0 0 1 3.48.52c.09.02.12.09.12.19v.58Z" fill="url(#b4ce1peid)"/><defs><linearGradient id="a4ce1peid" x1="3.35" y1="3.12" x2="21.9" y2="24.43" gradientUnits="userSpaceOnUse"><stop stop-color="#1A1E21"/><stop offset="1" stop-color="#06060A"/></linearGradient><linearGradient id="b4ce1peid" x1="13.69" y1="5.48" x2="4.49" y2="11.56" gradientUnits="userSpaceOnUse"><stop offset=".04" stop-color="#5FF19D"/><stop offset=".2" stop-color="#59EEA3"/><stop offset=".43" stop-color="#49E5B4"/><stop offset=".68" stop-color="#2FD6D0"/><stop offset=".96" stop-color="#0AC2F7"/><stop offset="1" stop-color="#04BEFE"/></linearGradient></defs></svg>