<!-- by TradingView --><svg width="18" height="18" viewBox="0 0 18 18" xmlns="http://www.w3.org/2000/svg"><path fill="#F0F3FA" d="M0 0h18v18H0z"/><path d="M13.6 5.14a5.91 5.91 0 0 1 1.12 5.6 5.8 5.8 0 0 1-3.02 3.6c-1.5.76-3.06.86-4.7.32a5.84 5.84 0 0 1-3.34-2.88l-.24-.53-.12-.27-.15-.53L3 9.59l.05-1.6c.06-.14.06-.22.02-.21A6.32 6.32 0 0 1 5.36 4.2a6.02 6.02 0 0 1 8.25.93Z" fill="#72C7FA"/><path d="M9.07 3.68c-.23-.13-.4-.15-.54-.05-.08.04-.1.11-.07.2A.4.4 0 0 1 8.5 4c0 .02-.01.03-.03.04l-.06.02c-.04.01-.06 0-.07-.04a.83.83 0 0 1-.03-.34c.4-.3.65-.3.77 0Z" fill="#070709"/><path d="m10.13 3.58-.31-.08c.5-.08.6-.05.3.08ZM9.85 3.54l-.63.03c.17-.15.38-.16.63-.03Z" fill="#4B8398"/><path d="M8.14 3.59a.84.84 0 0 1-.7.25c-.02.01-.04 0-.05-.01-.01-.03 0-.05.02-.07.22-.12.46-.18.73-.17Z" fill="#070709"/><path d="m9.07 3.68.16-.11.63-.03-.04-.04.3.08c.22 0 .27.07.17.18-.16.1-.24.15-.24.17-.02.3.05.33.2.07.03-.06.1-.12.2-.18.15-.03.29-.03.42 0a.2.2 0 0 1 .15.13c.03.07.03.15.02.23a.92.92 0 0 1-.2.25.18.18 0 0 1-.2.03 1.53 1.53 0 0 0-1.03-.08c0-.13-.1-.16-.31-.08a.86.86 0 0 1-.27-.18c-.05-.05-.1-.04-.15 0-.12.13-.3.21-.56.26.07.03.05.03-.06.01-.22-.08-.52.04-.88.35l-.1.1c-.03-.03-.07-.03-.1.01l-.48-.6a.43.43 0 0 0 0-.19c.14-.13.32-.05.53.24.03.05.08.07.14.07.24-.02.24-.1.01-.25-.03-.06 0-.16.07-.28.24.03.47-.05.69-.25l.16.1c-.01.1 0 .22.03.33.01.04.03.05.07.04l.06-.02c.02 0 .03-.02.03-.04a.4.4 0 0 0-.03-.18c-.03-.08 0-.15.07-.2.13-.09.31-.07.54.06Z" fill="#B2E5F9"/><path d="M9.48 3.9c-.07.12-.1.23-.05.26.03.02.12-.06.19-.18.07-.11.1-.23.05-.25-.03-.02-.12.06-.19.17Z" fill="#085A90"/><path d="M10.45 3.82a.64.64 0 0 0-.2.18c-.15.26-.22.24-.2-.07 0-.02.08-.07.24-.17.43-.14.49-.12.16.06ZM7.38 4.12c.23.15.23.23-.01.25a.15.15 0 0 1-.14-.07c-.21-.3-.39-.37-.52-.24-.04-.09 0-.13.1-.14a.3.3 0 0 1 .21.06c.1.08.23.13.36.14ZM9.6 4.38c.35-.1.7-.07 1.04.08.07.03.14.02.2-.03a.92.92 0 0 0 .2-.25c.06-.06.1-.1.15-.12.13-.06.14-.04.02.08-.15.16-.28.33-.39.5-.03.07-.09.1-.16.07a.22.22 0 0 1-.1-.08.25.25 0 0 0-.22-.11c-.29 0-.53-.05-.73-.14ZM9.3 4.3c.06.2-.02.23-.26.06a.17.17 0 0 0-.2-.01c-.18.1-.35.1-.52.03.26-.05.44-.13.56-.25.05-.05.1-.06.15 0 .08.07.17.13.27.17ZM6.7 4.25l.48.6v.04c0 .01-.01.02-.04.01-.34-.1-.48-.32-.44-.65ZM8.26 4.4l-.97.5h-.02v-.06l.11-.1c.36-.31.66-.43.88-.35Z" fill="#070709"/><path d="M12.41 4.7h-.3c0-.04.02-.07.04-.09.05-.05.1-.06.16-.02.04.03.08.07.1.12Z" fill="#4B8398"/><path d="M12.1 4.7h.31c.06.07.1.14.11.22-.1.04-.2.09-.28.15a.2.2 0 0 0-.06.24c.04.08.08.08.13 0 .06-.1.13-.18.23-.25.07-.04.13-.03.18.02.16.14.32.25.5.32.14.11.18.23.12.35-.29-.03-.36 0-.22.1-.05.12-.13.17-.25.15-.2-.11-.38-.27-.56-.46a.17.17 0 0 0-.18-.06.45.45 0 0 1-.4-.04c-.07-.05-.09-.12-.05-.2l.17-.38.05-.02.06-.04c.04.02.09-.02.15-.1Z" fill="#B2E5F9"/><path d="m5.38 4.87-.26.34-.01-.04c.03-.2.13-.3.27-.3Z" fill="#4B8398"/><path d="M5.7 4.85c.12.17.29.3.5.37a.47.47 0 0 0-.02.22c-.17.04-.32.11-.45.22-.07.05-.12.05-.18-.01l-.43-.44.26-.34c.11-.03.22-.03.32-.02Z" fill="#B2E5F9"/><path d="M13.23 5.4a1.53 1.53 0 0 1-.5-.32c-.06-.05-.12-.06-.19-.02a.75.75 0 0 0-.23.25c-.05.08-.1.08-.13 0a.2.2 0 0 1 .06-.24.94.94 0 0 1 .28-.15l.06-.06c.05-.05.1-.05.16 0l.49.54ZM6.2 5.22a.98.98 0 0 1-.5-.37c.29.05.45.17.5.37Z" fill="#070709"/><path d="m11.85 4.86-.17.38c-.04.08-.02.15.06.2.1.07.24.08.39.04.07-.02.13 0 .18.06.18.2.36.35.56.46 0 .06-.02.1-.06.14-.06.04-.1.04-.16-.01l-.46-.46a.12.12 0 0 0-.1-.04.72.72 0 0 1-.54-.18.18.18 0 0 1-.04-.2c.06-.18.17-.3.34-.4Z" fill="#070709"/><path d="M12.5 7.05c.05.14.07.25.06.33 0 .09-.03.09-.07 0a3.5 3.5 0 0 0-2.8-2.2c-.7-.1-1.6.03-2.69.38.43-.3.95-.47 1.54-.51 1.8-.14 3.1.53 3.95 2Z" fill="#085A90"/><path d="m5.12 5.2.43.45c.06.06.12.06.18.01.13-.1.28-.18.45-.22a4.17 4.17 0 0 0 .23-.04 6.6 6.6 0 0 0-1.26 1.2l-.2.35c-.07.1-.17.2-.3.29a1 1 0 0 1-.33-.03c-.1-.03-.1-.06 0-.1.3-.11.51-.28.64-.51.1-.18.3-.38.61-.6.12-.09.11-.14-.04-.16-.19-.02-.37-.18-.54-.48 0-.04.03-.1.12-.19l.01.04Z" fill="#070709"/><path d="M12.5 7.05c.45.48.64 1 .57 1.59a8.01 8.01 0 0 1-.8 2.34c-.26.49-.6.87-1.01 1.16-.46.32-.94.54-1.45.66a.73.73 0 0 1-.74-.23l.92-.06c.07 0 .13-.03.18-.08l.34-.34c.05-.05.06-.12.02-.18-.1-.2-.2-.17-.26.1a.86.86 0 0 0-.05-.32c.5-.16.98-.4 1.4-.72.07-.05.1-.1.1-.19a.92.92 0 0 0-.25-.64c-.26-.3-.43-.74-.52-1.32V7.61c.28-.45.37-.94.26-1.48a.28.28 0 0 0-.13-.19.22.22 0 0 0-.2-.02c-.02 0-.04.02-.05.04-.02.05 0 .08.03.1.2.1.25.24.15.4a.59.59 0 0 0-.2-.07.62.62 0 0 0-.05-.24.37.37 0 0 0-.03-.23l.04-.06c.02-.06 0-.1-.07-.1l-1.04-.05a.34.34 0 0 0-.2-.23l-.76.34a.27.27 0 0 1-.2 0 1.9 1.9 0 0 0-1.6.16.42.42 0 0 0-.18.19c-.1.2-.05.3.15.27.08.05.1.18.08.38l-.01 1.21c0 .15.06.33.2.54.06.1.1.1.08-.03l-.03-.4c.16.25.26.5.28.75l.07.6c.09.38.18.75.3 1.12a.77.77 0 0 0-.33.14.3.3 0 0 1-.31.03.3.3 0 0 1-.2-.26c-.02-.2.08-.31.29-.34.08-.01.1-.06.08-.13a.62.62 0 0 0-.18-.29.17.17 0 0 1-.05-.2c.03-.1.04-.27.04-.51 0-.03 0-.06-.02-.07a.07.07 0 0 0-.05-.03c-.06 0-.1.02-.1.08-.08.37-.29.79-.64 1.26-.1.13-.13.26-.1.42a.5.5 0 0 0 .25.34l.84.48c.06.03.1.08.14.14.13.21.24.21.34 0-.02.19 0 .26.04.2-.04.08-.02.14.04.17-.08 0-.14.01-.18.05-.03.02-.04.06-.03.1a.29.29 0 0 0-.16-.09c-.06 0-.07.02-.05.07.06.1.14.17.24.19l.03.05c0 .1-.03.16-.06.19-.03.02-.08.02-.15-.02a3.8 3.8 0 0 1-1.66-1.32c-.21-.36-.45-.7-.73-1.03-.21-.7-.26-1.38-.15-2.02.21-1.2.87-2.08 1.98-2.65a6.28 6.28 0 0 1 2.68-.38 3.5 3.5 0 0 1 2.81 2.2c.04.09.06.09.07 0 .01-.08-.01-.2-.07-.33Z" fill="#1089D1"/><path d="M5 5.36c.16.3.34.46.53.48.15.02.17.07.04.16-.3.22-.51.42-.61.6-.13.23-.34.4-.64.51-.1.04-.1.07 0 .1a1 1 0 0 0 .34.03l.01.23a.64.64 0 0 0-.16.11c-.06.05-.08.12-.06.2.04.14-.02.23-.18.26-.15.03-.35.03-.6 0a.37.37 0 0 0 .06-.27c.24-.21.3-.34.16-.39.02-.13.09-.26.21-.38-.07-.1-.1-.2-.08-.28.02-.09.07-.13.15-.13.18 0 .32-.02.43-.04.24-.04.25-.1.02-.16a.75.75 0 0 0-.19.05c-.07-.08-.08-.2-.03-.34l.06-.12.14-.08.35.3c.03.02.05.02.08 0l.05-.06c.03-.03.03-.06 0-.08l-.41-.36c.04-.16.14-.27.32-.34Z" fill="#B2E5F9"/><path d="M9.46 5.48a.96.96 0 0 0-.24.26c-.04.07-.02.12.06.15.28.09.4.03.38-.18l1.04.05c.07 0 .1.04.06.1l-.03.06c-.48-.1-.82-.06-1.04.12-.23.04-.4.11-.49.22a.2.2 0 0 0-.04.2c.08.25.24.4.47.46.14.09.3.15.49.18.04 0 .07.03.08.07 0 .03 0 .05-.02.06-.2.1-.37.09-.54-.06l-.6-.54a.3.3 0 0 0-.2-.07c-.6-.01-.73-.15-.4-.41.03.4.21.44.54.1a.23.23 0 0 0 .07-.1v-.11c-.03-.08-.08-.1-.16-.08-.14.06-.25.05-.32 0-.38-.12-.77-.12-1.15-.02a.35.35 0 0 0-.18.12.3.3 0 0 1-.2.1c-.09.02-.14.04-.16.06-.04.05-.04.13 0 .22-.21.03-.26-.06-.16-.27.04-.09.1-.15.17-.2a1.9 1.9 0 0 1 1.61-.14c.07.02.13.02.2-.01l.76-.34Z" fill="#070709"/><path d="M9.46 5.48c.1.05.17.12.2.23.03.21-.1.27-.38.18-.08-.03-.1-.08-.06-.15a.96.96 0 0 1 .24-.26Z" fill="#4CC466"/><path d="m4.67 5.7.41.36c.03.02.03.05 0 .08l-.06.06c-.02.02-.04.02-.07 0l-.36-.3a.18.18 0 0 1-.03-.16c.01-.03.04-.05.1-.04ZM13.33 5.75c.26.06.4.18.45.35 0 .03 0 .04-.03.02-.23-.22-.45-.3-.64-.27-.13-.1-.06-.13.22-.1Z" fill="#070709"/><path d="M8.57 5.95c-.03.13-.07.2-.12.2-.34.26-.21.4.4.4a.3.3 0 0 1 .2.08l.6.54c.16.15.34.17.53.06.02 0 .03-.03.02-.06a.09.09 0 0 0-.08-.07c-.19-.03-.35-.1-.49-.18.04-.07.08-.12.13-.14a1.5 1.5 0 0 1 1.05-.4c.07.02.14.05.2.09.11.32.07.47-.12.44-.13.33-.21.67-.24 1.03a6.2 6.2 0 0 1-.15 1.03c-.12.48-.17 1-.15 1.54a2.53 2.53 0 0 0-1.5-.82.24.24 0 0 1-.13-.05l-.61-.52c-.07-.06-.13-.05-.2 0l-.05.07c-.03.03-.03.05 0 .07.25.22.5.36.74.44.08.02.12.08.1.16a.2.2 0 0 1-.03.1c-.05.06-.1.08-.18.04a.4.4 0 0 0-.22-.04c-.14.02-.12.06.04.13a.5.5 0 0 1 .26.26c.03.07.09.1.16.1l.8.05c.04 0 .06 0 .04-.02l-.41-.31c-.05-.04-.1-.05-.13-.04a.78.78 0 0 0-.21.17c-.04.04-.08.04-.12 0l-.06-.06c-.05-.05-.05-.1-.01-.15.2-.28.47-.32.8-.12.32.2.56.38.75.58.05.05.06.03.05-.08a.8.8 0 0 0 .03.09c.02.04.02.08 0 .12-.12.2-.1.44.03.74-.36-.1-.6-.1-.72 0-.27.26-.24.3.09.13.16-.08.35-.04.56.14.04.1.05.2.05.32-.19.35-.41.43-.67.24.14-.05.23-.1.28-.17.05-.08.04-.13-.05-.15a.48.48 0 0 0-.43.08c-.13-.03-.23 0-.3.12l-1.22-.26c-.04.06-.06-.01-.04-.2.33-.18.6-.14.83.12.08.1.24.14.48.11.08 0 .1-.04.04-.1a.32.32 0 0 0-.27-.11c-.29.02-.47-.07-.54-.27a.15.15 0 0 1 .04-.17c.05-.05.1-.06.17-.04.17.06.29.16.36.3.03.07.07.08.11.02l.23-.3c.08 0 .16-.01.23-.04.07-.04.11-.1.11-.18v-.13c0-.08-.03-.1-.09-.04a.98.98 0 0 0-.25.38c-.14.12-.27.13-.4.05-.3-.18-.45-.42-.46-.7 0-.02-.01-.03-.03-.01l-.05.03v.52c0 .08-.03.14-.09.19-.2.2-.4.2-.57.03a.1.1 0 0 0-.1-.02.92.92 0 0 0-.07.02c-.09.02-.14.02-.16-.02l-.11-.18c-.05-.08-.02-.13.08-.15l.1-.03c.08-.02.12.01.14.1.02.08.05.13.1.15.07.03.1.01.1-.07-.02-.2 0-.38.06-.52l-.29-1.12-.07-.6c-.02-.25-.12-.5-.28-.76-.07-.32-.1-.7-.07-1.13.01-.11-.05-.17-.17-.18.02-.2 0-.33-.08-.38-.03-.1-.03-.17 0-.22.03-.02.08-.04.18-.06a.3.3 0 0 0 .2-.1c.04-.06.1-.1.17-.12.38-.1.77-.1 1.15.01Z" fill="#B2E5F9"/><path d="M10.73 5.92c.04.09.04.16.03.23-.43.23-.78.3-1.04.18l-.03-.3c.22-.17.56-.21 1.04-.1Z" fill="#B2E5F9"/><path d="M10.95 7.6c.04-.3.02-.54-.07-.7.2.04.24-.11.13-.43.1-.17.05-.31-.15-.41-.04-.02-.05-.05-.03-.1l.04-.04a.22.22 0 0 1 .21.02c.07.04.11.1.13.19.1.54.02 1.03-.26 1.48Z" fill="#085A90"/><path d="m4.45 5.98-.05.12c-.06 0-.08-.02-.07-.07.03-.08.07-.1.12-.05Z" fill="#4B8398"/><path d="M8.45 6.15c.05 0 .1-.07.12-.2.07.06.18.07.33.01.07-.03.12 0 .15.08v.11c0 .04-.03.07-.06.1-.34.34-.52.3-.54-.1ZM9.7 6.04l.02.29c-.06-.05-.1-.05-.14-.02-.05.05-.06.11-.02.17l.2.3c-.04.02-.09.07-.13.14a.66.66 0 0 1-.47-.45.2.2 0 0 1 .04-.21c.1-.11.26-.18.5-.22Z" fill="#4CC466"/><path d="M7.7 6.3a3 3 0 0 1 .42.15.31.31 0 0 1-.03.05.09.09 0 0 1-.06.01 3.6 3.6 0 0 1-.76-.22v-.06h.01c.15 0 .29.03.43.07ZM10.76 6.15c.03.09.05.17.05.24-.42 0-.77.13-1.05.39l-.2-.3c-.04-.06-.03-.12.02-.17.04-.03.08-.03.14.02.26.11.6.05 1.04-.18ZM13.58 6.34l.26-.1c.02 0 .04 0 .05.02v.05c-.26.23-.52.21-.8-.06-.02-.02-.02-.03 0-.05 0-.02.02-.03.04-.02.06.02.12.06.2.11.07.07.16.08.25.05ZM13.04 6.75c.14.17.29.27.32.24.04-.03-.04-.2-.19-.36-.14-.16-.29-.27-.33-.24-.04.04.05.2.2.36Z" fill="#070709"/><path d="m4.43 6.44.19-.05c.23.07.22.12-.02.16-.1.02-.25.03-.43.04-.08 0-.13.04-.15.13-.01.08.01.18.08.28a.28.28 0 0 1-.18-.15.16.16 0 0 1 .04-.2c.14-.14.3-.2.47-.2Z" fill="#695443"/><path d="M14.07 6.82c.07 0 .08.01.03.06a.62.62 0 0 1-.41.2c-.25 0-.25-.06-.03-.19.03-.01.17-.04.41-.07ZM7.2 8.13l.02.4c.01.14-.02.15-.09.04-.13-.21-.2-.39-.2-.54l.02-1.2c.12 0 .18.06.17.17-.02.43 0 .81.07 1.13ZM7.9 7.18l-.29.13c-.06.03-.09 0-.1-.06V7.2l.02-.06c.02-.04.11-.1.28-.17.16-.07.27-.1.31-.08l.06.04.04.04c.04.05.03.09-.03.1l-.3.12Z" fill="#070709"/><path d="M10.88 6.9c.1.16.11.4.07.7v1.22c-.21.05-.23.29-.07.73.03.07.02.14-.04.2-.12.13-.16.35-.12.66 0 .04.03.07.08.08l.08.03c.1.06.1.12.02.16a.7.7 0 0 1-.32.08c-.06 0-.1.03-.1.09v.09c0 .04.03.07.08.06.28 0 .51-.1.7-.3.07-.08.06-.14-.04-.2a.36.36 0 0 1-.1-.07c-.05-.07-.04-.1.05-.1.15 0 .27.04.36.14.06.06.06.12 0 .18-.36.38-.78.63-1.24.77-.14-.3-.15-.54-.04-.74a.13.13 0 0 0 .01-.12.82.82 0 0 1-.03-.1l.11.05c0-.54.04-1.06.16-1.54.07-.3.13-.65.15-1.03.03-.36.1-.7.23-1.03Z" fill="#4B8398"/><path d="M13.68 7.58c.18-.17.4-.25.64-.22.07 0 .09.04.07.1-.02.05-.07.06-.16.03a.21.21 0 0 0-.21.05c-.1.1-.21.15-.32.14-.1 0-.14.05-.12.15.03.18.07.3.1.33.17.19.13.25-.1.19-.04 0-.04-.19-.02-.54 0-.1-.04-.17-.12-.22-.12-.07-.16-.18-.1-.33.04-.12.08-.12.12 0l.1.29c.03.07.07.08.12.03ZM3.88 7.38c.15.05.1.18-.15.39-.12-.08-.07-.21.15-.39ZM4.67 7.47c.25.02.23.1-.06.24-.08.04-.1.1-.08.17.05.2.04.32-.04.33l-.79-.04-.03-.14c.25.04.45.04.6.01.16-.03.22-.12.18-.27a.19.19 0 0 1 .06-.19c.04-.04.1-.08.16-.11ZM9.91 8.38c-.03.1 0 .2.13.3.02.02.03.05.02.09-.01.03-.03.05-.07.05h-.52c-.08 0-.12-.04-.12-.12 0-.36.11-.7.34-1 .04-.06.09-.1.14-.1.1 0 .17 0 .23.03.09.04.08.07-.02.1l-.16.04c-.04.01-.05.05-.05.11.02.11.12.2.32.23.03 0 .04.03.04.05v.08c0 .02-.03.04-.06.05a.38.38 0 0 1-.1 0c-.06 0-.1.04-.12.1ZM7.95 8.24c-.04-.1-.02-.2.07-.32.04-.06.04-.12-.02-.16a.12.12 0 0 0-.12-.03c-.06.02-.07 0-.02-.06l.05-.03c.52.05.72.32.6.83v.01l.15.23c.04.07 0 .11-.16.12-.12 0-.3-.01-.51-.05-.11-.02-.13-.08-.06-.16A.28.28 0 0 0 8 8.45a.56.56 0 0 0-.05-.21Z" fill="#070709"/><path d="M12.63 7.8c0-.02.01-.04.04-.05.03-.01.05 0 .07.01.06.06.1.13.09.21 0 .07-.04.09-.1.05-.07-.06-.11-.13-.1-.22Z" fill="#085A90"/><path d="m3.7 8.17.8.04c.07.09.11.18.11.3-.26.1-.53.15-.81.15-.1 0-.16-.03-.2-.09a.36.36 0 0 1-.08-.23c.01-.13.08-.19.18-.17Z" fill="#B2E5F9"/><path d="M3.52 8.34c0 .1.02.17.07.23s.11.09.2.09c.3 0 .56-.05.82-.16l.12.01c.05.03.05.06 0 .1-.6.38-1.04.3-1.32-.25-.04-.07-.02-.09.05-.05l.06.03ZM13.98 8.26c.2-.03.3-.03.33 0 .06.08.04.12-.09.13a.6.6 0 0 1-.26-.03c-.1-.04-.1-.08.02-.1Z" fill="#070709"/><path d="M13.07 8.64a6.94 6.94 0 0 1-.42 2.04c-.05.12-.13.25-.26.4-.12.14-.2.25-.23.34-.1.32-.45.64-1.03.98-.48.28-.87.45-1.18.5a4.19 4.19 0 0 1-3.72-1 3.7 3.7 0 0 1-1.06-1.67c.28.33.52.67.73 1.03.27.47.82.91 1.66 1.32.07.04.12.04.15.02.03-.03.05-.1.06-.19 0 .13.08.2.24.18l-.02.06c-.01.04 0 .07.04.08.22.1.46.12.72.07.12-.02.12-.06.02-.12a1.06 1.06 0 0 0-.53-.13l.02-.1.81.12c.21.22.46.3.74.23.5-.12.99-.34 1.45-.66.42-.29.75-.67 1.01-1.16a8 8 0 0 0 .8-2.34Z" fill="#085A90"/><path d="M10.95 8.82c.09.58.26 1.01.52 1.32.18.21.27.43.26.64 0 .08-.04.14-.1.2-.43.31-.9.55-1.4.71-.22-.18-.4-.22-.57-.14-.33.17-.36.13-.09-.13.12-.1.36-.1.72 0 .46-.14.88-.4 1.24-.77.06-.06.06-.12 0-.18a.44.44 0 0 0-.36-.14c-.08 0-.1.03-.04.1l.1.07c.1.06.1.12.03.2-.19.2-.42.3-.7.3-.05 0-.07-.02-.07-.06v-.09c0-.06.03-.09.09-.1a.7.7 0 0 0 .32-.07c.09-.04.08-.1-.02-.16l-.08-.03a.1.1 0 0 1-.08-.08c-.04-.3 0-.53.12-.66a.18.18 0 0 0 .04-.2c-.16-.44-.14-.68.07-.73ZM7.83 10.6c-.06.15-.08.33-.07.53 0 .08-.02.1-.1.07-.04-.02-.07-.07-.1-.16 0-.08-.05-.1-.13-.09l-.1.03c-.1.02-.13.07-.08.15l.1.18c.03.04.08.04.17.02l.06-.02a.1.1 0 0 1 .1.02c.19.18.38.17.58-.03a.24.24 0 0 0 .08-.19v-.52l.06-.03c.02-.02.03-.01.03.01.01.28.16.52.46.7.13.08.26.07.4-.05l-.23.3c-.04.07-.08.06-.11 0a.58.58 0 0 0-.36-.3.16.16 0 0 0-.17.03.15.15 0 0 0-.04.17c.07.2.25.29.54.27.1 0 .2.03.27.11.05.06.04.1-.04.1-.24.03-.4-.01-.48-.11-.23-.26-.5-.3-.83-.12-.1.21-.21.21-.34 0a.38.38 0 0 0-.14-.14l-.84-.48a.5.5 0 0 1-.25-.34.5.5 0 0 1 .1-.42c.35-.47.56-.9.63-1.26.01-.06.05-.09.11-.08.02 0 .04 0 .05.03l.02.07c0 .24-.01.42-.04.52-.02.07 0 .14.05.19.09.08.15.18.18.29.03.07 0 .12-.08.13-.21.03-.3.14-.28.34.01.12.08.2.19.26.1.05.21.04.31-.03.15-.1.25-.14.32-.14Z" fill="#070709"/><path d="M10.34 10.51a6.98 6.98 0 0 1-.11-.04c.01.1 0 .13-.05.08a3.6 3.6 0 0 0-.74-.58c-.34-.2-.61-.16-.81.12-.04.05-.04.1 0 .15l.07.06c.04.04.08.04.12 0 .1-.1.16-.15.2-.17.04-.01.08 0 .14.04l.41.31c.02.01 0 .02-.04.02l-.8-.04a.18.18 0 0 1-.16-.11.5.5 0 0 0-.26-.26c-.16-.07-.18-.11-.04-.13a.4.4 0 0 1 .22.04c.07.04.13.02.18-.04a.2.2 0 0 0 .04-.1c.01-.08-.03-.14-.1-.16-.25-.08-.5-.22-.75-.44-.03-.02-.03-.04 0-.07l.06-.06c.06-.06.12-.07.19 0l.6.51c.04.03.08.04.14.05.52.06 1.02.34 1.5.82ZM13.79 9.29c-.2.04-.32.12-.35.24h-.08c-.03-.1 0-.2.07-.27a.28.28 0 0 1 .26-.1c.06 0 .1.05.1.13ZM14.45 9.3a.6.6 0 0 0-.45.2.05.05 0 0 1-.06.02c-.03 0-.05 0-.06-.02-.05-.04-.05-.08 0-.1L14 9.3c.19-.16.34-.17.45 0Z" fill="#070709"/><path d="m13.79 9.29.2.02-.11.08c-.05.03-.05.07 0 .1.01.02.03.03.06.03.02 0 .04 0 .05-.02a.6.6 0 0 1 .46-.2c.04.18.06.35.05.5l-.59.03a.34.34 0 0 1-.2-.06l-.2-.14c0 .03-.03 0-.06-.1.02-.12.14-.2.34-.24Z" fill="#B2E5F9"/><path d="m14.5 9.8-.08.31h-.04c-.21-.2-.45-.2-.72.03-.1-.02-.15-.19-.15-.5l.2.13c.06.04.13.06.2.06l.59-.02ZM4.58 10.19c-.06-.1-.14-.2-.22-.29-.1-.1-.2-.15-.3-.13-.12.02-.22.11-.29.28 0-.3.22-.42.64-.38.08.01.12.05.13.12.01.08.04.15.07.22l.07.1c.03.01.03.03 0 .04l-.1.04Z" fill="#070709"/><path d="M4.58 10.19c.04.1.01.16-.09.2-.19.02-.37.02-.54-.01-.1-.07-.16-.17-.18-.33.07-.17.17-.26.29-.28.1-.02.2.03.3.13.08.09.16.18.22.29Z" fill="#B2E5F9"/><path d="M6.89 10.42c-.09.2-.09.32 0 .37.32.17.3.24-.04.2-.16 0-.3-.12-.43-.33a.2.2 0 0 1 0-.22l.35-.62c.03-.04.06-.05.1-.04.05 0 .08.04.08.08.03.23 0 .41-.06.56ZM11.01 10.13c-.03-.13-.03-.2-.02-.23.06-.13.11-.13.15 0 .05.16.04.25-.02.28-.06.03-.1 0-.1-.05Z" fill="#696868"/><path d="M14.38 10.11c0 .22-.08.41-.25.6-.06 0-.1.04-.15.1l-.51.17a.56.56 0 0 1-.06-.23c.15.01.2-.16.15-.5l.1-.11c.27-.23.51-.24.72-.03Z" fill="#B2E5F9"/><path d="M14.42 10.11c.1.28.03.5-.2.65-.02.02-.05.02-.07 0l-.02-.05a.83.83 0 0 0 .25-.6h.04ZM7.98 10.34l.02-.07c.05-.06.09-.06.13 0 .04.07.04.14-.01.2a.08.08 0 0 1-.08.04c-.1 0-.13-.04-.08-.11a.1.1 0 0 0 .02-.06Z" fill="#4B8398"/><path d="M13.56 10.25c.05.34 0 .51-.15.5a.17.17 0 0 1-.07-.02c-.03-.01-.04-.04-.03-.08.03-.16.11-.3.25-.4ZM4.5 10.38c.18.01.28.08.3.2 0 .03-.02.06-.05.08-.05.02-.06 0-.06-.05l-.78-.08c-.03 0-.07.02-.12.1-.04.06-.07.06-.07-.03s.08-.16.23-.22c.17.03.35.03.54 0Z" fill="#070709"/><path d="m4.69 10.61-.07.3-.38.13c-.04.01-.06.04-.05.09 0 .02.01.03.03.05.03.03.07.04.11.04.1-.01.2-.05.3-.12.04-.04.08-.04.11.01.02.03.03.06.03.1 0 .07.04.13.12.16.2.08.3.24.3.48 0 .08.03.14.09.19.36.3.76.52 1.2.64 0 .15-.03.23-.08.25l-.42.52-.26-.04c-.13-.1-.14-.22-.05-.36l.21-.03c.1-.01.14-.07.1-.17l-.05-.14c-.03-.08-.07-.1-.14-.03a.67.67 0 0 0-.15.28h-.1l-.24-.14c.02-.15-.14-.22-.46-.19l-.04-.33c.08.01.14 0 .18-.01.12-.06.1-.1-.07-.12l-.23.01c-.15-.12-.21-.25-.2-.4.01-.05.04-.09.09-.1l.08-.03.02-.03v-.08c-.03-.04-.05-.04-.08 0-.11.13-.24.16-.38.07a.48.48 0 0 1-.11-.4.2.2 0 0 0 0-.1c-.02-.05-.06-.07-.1-.06l-.09-.13v-.39l.78.08Z" fill="#B2E5F9"/><path d="M9.3 11.22a.98.98 0 0 1 .24-.38c.06-.05.09-.04.09.04v.13c0 .08-.04.14-.11.18a.42.42 0 0 1-.23.03ZM13.98 10.82l-.02.1-.95.58a.12.12 0 0 0-.06.12c.01.06.04.1.1.1.11.04.19.12.22.24.03.1 0 .12-.09.07a.6.6 0 0 1-.13-.15c-.05-.06-.11-.08-.19-.05a.43.43 0 0 0-.22.16c-.05.08-.03.13.05.17.15.07.25.17.31.3.04.08.02.1-.06.06a.9.9 0 0 1-.32-.27c-.05-.07-.1-.07-.14 0-.11.18-.24.32-.39.41h-.16c-.08-.04-.07-.09.03-.15l.2-.13c.07-.04.12-.1.15-.16.08-.2.24-.38.47-.56.06-.05.1-.1.13-.18.08-.25.26-.42.56-.5l.51-.16ZM3.91 10.92l.08.13c.02.04.02.07.02.1-.01.04-.03.04-.06 0-.14-.16-.15-.24-.04-.23ZM4.62 10.9c.4.16.61.42.64.77 0 .09.04.15.1.2.37.28.77.52 1.21.72.07.03.1.1.07.22-.02.09-.05.1-.1.01l-.06-.14a3.25 3.25 0 0 1-1.2-.64.24.24 0 0 1-.09-.2c.01-.23-.1-.4-.3-.47a.17.17 0 0 1-.12-.17.16.16 0 0 0-.03-.09c-.03-.05-.07-.05-.12-.01a.54.54 0 0 1-.29.12c-.04 0-.08-.01-.1-.04a.12.12 0 0 1-.04-.05c0-.05 0-.08.05-.1l.38-.12Z" fill="#070709"/><path d="m13.96 10.92.1.32c-.17.24-.41.34-.73.28v.06c0 .04.01.06.05.06l.47-.01c-.03.1-.04.2-.04.28a1 1 0 0 0-.51.49.3.3 0 0 1-.16.14c-.18.06-.26.2-.24.42l-.04.05-.1.1c-.22.07-.4 0-.54-.2l-.13-.25c.15-.1.28-.23.39-.4.04-.08.09-.08.14-.01.1.12.2.21.31.27.09.04.11.02.07-.06a.61.61 0 0 0-.31-.3c-.08-.04-.1-.1-.05-.17a.43.43 0 0 1 .22-.16c.08-.03.14-.01.19.05l.13.15c.09.05.12.03.09-.07a.32.32 0 0 0-.23-.23.12.12 0 0 1-.09-.1c0-.06.02-.1.06-.13l.95-.58Z" fill="#B2E5F9"/><path d="M13.85 11.63h-.47c-.04.01-.06 0-.05-.05v-.05c.32.05.56-.05.73-.3.04.2-.03.32-.21.4ZM4.68 12.18a.88.88 0 0 1-.47-.57c.14.09.27.06.38-.08.03-.03.05-.03.08.01v.08l-.02.03-.08.02a.12.12 0 0 0-.08.1c-.02.16.04.3.19.41Z" fill="#070709"/><path d="m9.07 12.57-.8-.13a.34.34 0 0 0-.12-.06c.06.02.1.02.14 0a.17.17 0 0 0 .05-.06c0-.03 0-.06-.02-.1.3.11.6.12.85.04.08-.03.08-.06.02-.1a.43.43 0 0 0-.09-.03c.07-.11.17-.15.3-.12.03.1.1.17.2.24.26.19.48.1.67-.24.06-.27.15-.3.26-.1.04.06.03.13-.02.18l-.34.34a.28.28 0 0 1-.18.08l-.92.06Z" fill="#4B8398"/><path d="M9.1 12.13c.04 0 .07.02.09.03.06.04.06.07-.02.1-.26.08-.54.07-.85-.03l-.4-.19c-.06-.03-.08-.1-.04-.17l1.22.26ZM7.71 12.19l.03.17c-.1-.02-.18-.08-.24-.2-.02-.04 0-.07.05-.06.06 0 .11.04.16.09ZM4.8 12.3a.4.4 0 0 1-.12-.12.9.9 0 0 1 .23 0c.16.01.19.05.07.1a.35.35 0 0 1-.18.02ZM8.15 12.38l.11.06-.02.1-.23.05c-.16.01-.24-.05-.24-.18l-.03-.05.4.02Z" fill="#070709"/><path d="M4.84 12.63c.32-.03.48.04.46.19a.88.88 0 0 1-.46-.19Z" fill="#695443"/><path d="M5.67 13.05c-.04-.03-.05-.06-.03-.1.03-.11.09-.2.15-.27.07-.06.11-.05.14.03l.05.14c.04.1 0 .16-.1.17l-.21.03Z" fill="#070709"/><path d="M5.64 12.96c-.02.03 0 .06.03.1-.1.13-.08.25.05.35.06.05.04.1-.08.14-.09.03-.15 0-.17-.1-.09-.32-.07-.48.06-.48l.1-.01Z" fill="#4B8398"/><path d="m6.4 12.93.07.01c.04 0 .05.03.04.07-.1.29-.27.43-.53.44l.42-.52ZM11.47 13.47c-.08.05-.16.02-.25-.09a.64.64 0 0 0-.3-.23c-.06-.04-.09-.08-.08-.12.01-.06.04-.08.1-.05l.43.25c.06.04.1.1.1.17v.07Z" fill="#070709"/><path d="M12.22 12.92c.14.2.32.26.55.18-.07.13-.18.15-.3.07-.15-.09-.23-.17-.25-.25Z" fill="#085A90"/><path d="M8.77 13.69c-.5-.02-.94-.13-1.33-.32l-.05-.1c-.03-.1-.01-.12.07-.08.37.17.75.3 1.14.37.05 0 .1.05.17.13Z" fill="#070709"/><path d="M10.93 13.15c.1.03.2.11.3.23.08.1.16.14.24.1l.15.2a.6.6 0 0 1-.56.22c-.23-.16-.33-.34-.3-.54a.56.56 0 0 1 .17-.2Z" fill="#B2E5F9"/><path d="M10.76 13.36c-.03.2.07.38.3.54l-.08.1a.9.9 0 0 1-.34-.38c-.04-.07-.1-.09-.17-.06l-.92.32a.15.15 0 0 1-.18-.05c-.09-.1-.2-.13-.33-.06-.06.02-.1.01-.14-.03-.02-.03-.03-.06-.01-.08.2-.12.38-.12.51 0 .06.06.12.07.19.05.35-.11.69-.23 1.02-.37.06-.02.1-.02.15.02Z" fill="#070709"/><path d="M7.44 13.37c.39.2.83.3 1.33.32a.4.4 0 0 1 .12-.03c-.02.02-.01.05 0 .08.05.04.1.05.15.03.13-.07.24-.05.33.06.05.06.11.08.18.05l.92-.32c.08-.03.13 0 .17.06.1.18.21.3.34.38l.06.05a1.6 1.6 0 0 1-.04.09c-.26.08-.59.08-.98 0-.15-.11-.25-.03-.29.26l-.98.1a.64.64 0 0 1-.28-.22l.2-.18c.06-.06.05-.09-.03-.1-.1 0-.19.1-.24.3-.17.01-.3-.02-.38-.1.05-.12.06-.22.03-.3-.03-.09-.07-.09-.1 0-.09.26-.22.38-.4.37a.6.6 0 0 0-.27-.12.9.9 0 0 1-.03-.05l.06-.23a.53.53 0 0 0 0-.24c.02-.13.06-.22.13-.26Z" fill="#B2E5F9"/><path d="M11.04 14.05a10.4 10.4 0 0 1-.06-.05l.08-.1a.6.6 0 0 0 .56-.21l.06.01c.05.02.06.05.03.1-.15.2-.38.28-.67.25Z" fill="#4B8398"/><path d="M8.02 14.2c-.24.15-.4.18-.48.07.18.01.32-.1.41-.37.03-.09.06-.09.1 0 .03.08.02.18-.03.3ZM8.47 14.28l-.06.1c-.01.02-.03.03-.05.02-.02 0-.03-.02-.02-.04 0-.03.02-.05.06-.06.05-.2.13-.3.24-.3.08.01.1.04.03.1l-.2.18Z" fill="#070709"/><path d="M8.95 14.02c-.01-.05.01-.07.06-.05.04.01.07.04.08.07.07.13.04.16-.07.1-.04-.02-.06-.06-.07-.12Z" fill="#4B8398"/><path d="M9.73 14.4a.94.94 0 0 1-.98.1l.98-.1Z" fill="#085A90"/></svg>