<!-- by TradingView --><svg width="18" height="18" viewBox="0 0 18 18" xmlns="http://www.w3.org/2000/svg"><path fill="#0F1829" d="M0 0h18v18H0z"/><path d="M7.3 7.66v-.9A2.16 2.16 0 0 0 5.68 6C3.92 6.01 3 7.66 3 8.98 3 10.29 3.67 12 5.74 12c2.07 0 3.7-2.47 4.43-3.13.72-.66 1.2-1.63 2.4-1.63.96 0 1.42.8 1.43 1.21V12h1V8.28C15 7.33 14.63 6 12.98 6c-1.66 0-2.74 1.57-3.84 2.76-1.09 1.19-2.08 2.05-3.1 2.05C5 10.8 4 10.18 4 9.09c0-1.1 1-1.9 1.94-1.9.75 0 1.23.31 1.37.47Z" fill="#CFF500"/><path d="M8 9V6h1v1.9L8 9Zm3-.37V12h-1V9.86l1-1.23Z" fill="#fff"/></svg>