<!-- by TradingView --><svg width="18" height="18" viewBox="0 0 18 18" xmlns="http://www.w3.org/2000/svg"><path fill="#04111A" d="M0 0h18v18H0z"/><path fill-rule="evenodd" d="M11.48 10.93v-.01A1524.43 1524.43 0 0 0 11.52 7l1.46.02.32.02c.88.02 1.46.61 1.42 1.48-.04.73-.47 1.26-1.21 1.36a4.82 4.82 0 0 1-.84.05v1.04l-.02.03h-2.58v-.02h-.01l-.2-.54h-.01l-.01-.01h-1.3l-.01.02-.18.5c0 .02 0 .02-.02.03L8.3 11H7l1.07-1.38v-.03l-.01-.01H7.6l-.02-.01a.02.02 0 0 1 0-.02l.64-2.5V7h1.6l.02.03 1.63 3.9h.01ZM3.02 11H7v-.01l.17-1.1c0-.02 0-.03-.03-.03h-1.4v-.02a.02.02 0 0 1 0-.02l2.46-2.8A.13.13 0 0 1 8.22 7H3.89l-.01.02v1.12h1.68l.01.01a.01.01 0 0 1 0 .02l-.82.91-.6.68c-.24.27-.48.5-.72.76l-.42.43v.01l-.01.01V11l.02.01Zm9.64-2.84v-.01h.44a.47.47 0 0 1 .3.1.4.4 0 0 1 .1.14c.03.05.04.1.04.15v.05c0 .1-.05.21-.13.29a.46.46 0 0 1-.31.12h-.42a.02.02 0 0 1-.01 0v-.01l-.01-.83Zm-3.48.56-.33.84v.01h.67a.01.01 0 0 0 .01-.01l-.33-.84a.01.01 0 0 0-.02 0ZM15 10.57c0 .24-.2.43-.44.43a.43.43 0 0 1-.44-.43c0-.23.2-.43.44-.43s.44.2.44.43Z" fill="#FDFD10"/></svg>