<!-- by TradingView --><svg width="18" height="18" viewBox="0 0 18 18" xmlns="http://www.w3.org/2000/svg"><path fill="#85C4BB" d="M0 0h18v18H0z"/><path d="M7.55 6.33c0 .02.01.04.04.03.03 0 .07 0 .12-.02a3.97 3.97 0 0 1 1.52.02l.54.15c.02 0 .04 0 .05-.02l.07-.21c.18-.5.5-.85.99-1.06.23-.1.46-.15.68-.15.2 0 .42.04.67.13.15.05.34.13.56.24.14.07.26.18.36.3.26.34.45.7.57 1.06.08.23.15.64.2 1.23.06.68.1 1.1.13 1.24 0 .02.02.04.04.04.1.02.17.08.22.2.1.2.16.35.2.48.05.17.07.34.05.5-.02.24-.11.48-.28.75-.24.4-.54.75-.9 1.05-.19.15-.38.27-.57.36-.3.13-.6.23-.9.31l-.06.02c-.56.15-.97.25-1.24.3-.44.1-.84.15-1.2.15a9.57 9.57 0 0 1-3.03-.42l-1.03-.32a2.75 2.75 0 0 1-.63-.29l-.6-.39-.44-.45a.68.68 0 0 1-.1-.18 2.45 2.45 0 0 1-.12-1.37c.04-.21.14-.42.3-.62.04-.06.05-.14.04-.25v-.08l-.01-.31c0-.43.01-.72.06-.9l.32-1.07c.1-.3.22-.53.36-.72.26-.35.61-.64 1.04-.9.1-.05.22-.08.37-.08h.44c.1.02.25.08.46.17.1.05.2.11.26.2l.22.25c.17.2.24.41.23.63Z"/><path d="M11.58 5.23c.17.23.33.26.47.07.45.12.8.33 1.04.64.32.4.52.88.61 1.44.07.39.13 1.03.19 1.93v.35c0 .03 0 .04.03.03h.02l.02-.02.06-.15.04-.02c.02 0 .03 0 .04.02.18.28.28.59.3.92a1 1 0 0 1-.13.5c-.37.75-.92 1.3-1.65 1.66-.29.14-.66.27-1.1.37-.68.16-1.17.26-1.49.3-.75.1-1.51.07-2.27-.06-.5-.09-1.06-.22-1.7-.4a5.07 5.07 0 0 1-1.98-1.05 1.34 1.34 0 0 1-.5-1.03v-.11c0-.33.01-.57.06-.7.04-.13.12-.28.24-.45a.32.32 0 0 0 .07-.2c-.02-.62-.02-.98 0-1.1.02-.18.08-.43.18-.75l.25-.75c.22-.53.59-.96 1.1-1.26l.1.06c.14.13.25.2.3.2.28.03.39-.08.32-.31.02-.04.08-.07.2-.1.27.04.5.16.65.36-.1.02-.1.08-.03.19.08.1.18.16.3.2.05.12.07.25.07.4 0 .02 0 .04-.02.05l-.73.36v.03h.03l.7-.26.64-.03c.17.19.36.28.6.28.03 0 .05 0 .07-.02l.15-.12c.02 0 .03-.03.02-.05a.53.53 0 0 1 .01-.2c.28.04.54.1.8.19.05.02.13.02.23 0 .02 0 .04-.01.05-.03.12-.34.28-.65.48-.92.15.11.29.1.42-.06.08-.1.12-.18.1-.27.22-.1.44-.14.64-.13Z" fill="#FDFDFD"/><path d="M12.05 5.3c-.14.19-.3.16-.47-.07.18-.03.34 0 .47.07ZM6.2 5.36c.07.23-.04.34-.31.31-.06 0-.17-.07-.31-.2a.74.74 0 0 1 .62-.11ZM10.94 5.36c.02.09-.02.18-.1.27-.14.15-.27.17-.42.06.17-.15.34-.26.52-.33Z" fill="#74EEF9"/><path d="M7.33 6a.53.53 0 0 1-.31-.2c-.08-.1-.07-.16.03-.17.12.1.21.22.28.38Z" fill="#4899B1"/><path d="M6.52 5.64c.12.06.2.16.24.3V6c-.01.03-.03.05-.06.06l-.25.03c-.03 0-.06-.01-.08-.04a.1.1 0 0 1-.02-.09l.08-.26c0-.02.02-.03.04-.04l.05-.02ZM10.34 6.4c-.06 0-.08-.02-.08-.07v-.01c0-.1.02-.17.07-.24.05-.06.11-.1.19-.1s.14.03.2.1c.04.06.07.14.07.23v.01c0 .05-.02.08-.08.08h-.37Z" fill="#74EEF9"/><path d="M11.86 10.33c-.4 0-.73-.2-1.01-.59a2.3 2.3 0 0 1-.42-1.4c0-.54.15-1 .43-1.39.29-.38.63-.57 1.03-.57s.74.2 1.02.58c.28.4.42.86.41 1.4 0 .55-.14 1.01-.43 1.4-.28.38-.63.57-1.03.57Z"/><path d="M8.8 6.44 8 6.56l-.63.04c.16-.05.32-.08.47-.11.3-.07.62-.08.94-.05Z" fill="#4899B1"/><path d="M8.86 6.45a.53.53 0 0 0 0 .2c0 .02-.01.04-.03.05l-.15.12a.11.11 0 0 1-.07.02.76.76 0 0 1-.6-.28l.78-.12h.07Z" fill="#74EEF9"/><path d="M5.26 10.31c-.33-.03-.6-.24-.8-.64-.2-.4-.27-.86-.22-1.4.05-.53.2-.97.47-1.32.27-.36.57-.52.9-.49.32.03.59.24.79.64.2.4.27.86.22 1.4-.05.53-.2.97-.47 1.32-.27.36-.56.52-.9.49Z"/><path d="M13.05 7.57c-.19-.06-.33-.02-.42.12a.74.74 0 0 0-.5-.43c.03-.06-.01-.08-.12-.05-.02.01-.04.01-.07 0a2.64 2.64 0 0 1-.24-.07.96.96 0 0 0-.72.03c-.07.03-.08.01-.04-.05.1-.17.25-.31.43-.43a.9.9 0 0 1 .6-.15c.2.02.4.1.58.25.24.2.4.45.5.78ZM5.36 7.39c-.18-.1-.34-.1-.5.03-.1.08-.16.2-.19.34l-.2-.02c.08-.3.22-.57.43-.8a.9.9 0 0 1 .53-.32c.21-.03.4.03.57.18.11.1.2.22.26.35.02.04 0 .05-.03.04-.36-.15-.65-.08-.87.2Z" fill="#296074"/><path d="M9.23 7.2c-.06.01-.1 0-.13-.01-.07-.04-.1-.1-.07-.2.02-.11.1-.2.21-.27a.06.06 0 0 1 .07 0c.08.04.16.11.24.22.04.06.04.11 0 .17-.06.05-.14.08-.24.09h-.08ZM7.61 6.8c.05-.05.1-.05.14 0l.07.07c.05.04.08.1.08.17a.2.2 0 0 1-.06.16.2.2 0 0 1-.17.07.25.25 0 0 1-.17-.08l-.07-.07c-.04-.04-.04-.1 0-.14l.18-.18ZM12.14 7.26c.23.07.4.21.49.43.07.24.05.45-.07.64-.18.22-.39.29-.63.2a.77.77 0 0 1-.33-.26c-.14-.27-.15-.52-.01-.75.11-.2.3-.29.55-.26ZM5.36 7.39c.3.32.33.63.08.95-.12.15-.28.19-.48.11a.51.51 0 0 1-.26-.3.75.75 0 0 1-.02-.39.52.52 0 0 1 .19-.34c.15-.12.31-.13.5-.03Z" fill="#74EEF9"/><path d="M13.05 7.57c.1.25.14.52.11.81h-.56c0-.02-.02-.03-.04-.05.12-.2.14-.4.07-.64.09-.14.23-.18.42-.12Z" fill="#4899B1"/><path d="M5.82 7.79c.02.1.1.16.17.15.07-.01.1-.1.1-.2-.03-.1-.1-.17-.17-.16-.07.02-.11.1-.1.2Z" fill="#74EEF9"/><path d="M4.68 7.76a.75.75 0 0 0 .02.4c.05.13.14.23.26.29a.43.43 0 0 0-.04.17.34.34 0 0 1-.14-.12.08.08 0 0 0-.05-.03c-.15-.03-.27.01-.37.11-.02-.28.01-.56.1-.84l.22.02Z" fill="#4899B1"/><path d="M10.91 8.13c.08.07.2.07.27 0 .06-.07.05-.19-.03-.26-.07-.07-.2-.07-.26 0s-.05.19.02.26Z" fill="#74EEF9"/><path d="M6.31 9.24h-.09c.1-.25.14-.51.13-.78 0-.03 0-.04-.03-.05l-.04.01a17.1 17.1 0 0 0-.22.68l-.42.02-.02.01.01.03c.1.08.14.19.1.34-.01.04-.03.04-.06.02a.29.29 0 0 0-.08-.34l-.45-.11c-.03 0-.06 0-.08.03a.08.08 0 0 0-.01.08l.22.5a1.75 1.75 0 0 1-.28-.5v-.06l.1-.16a.1.1 0 0 0 .02-.06.3.3 0 0 0-.13-.24.27.27 0 0 1 0-.1c0-.01.02-.03.04-.03l.3-.04.06-.03.1-.12a.9.9 0 0 1 .25-.25.8.8 0 0 1 .24-.05c.06 0 .14.01.24.05.08.03.16.03.24 0 .02 0 .03 0 .04.02.02.4-.04.77-.18 1.13ZM11.6 8.27c.1.12.2.21.33.26.24.09.45.02.63-.2.02.02.04.03.04.05l-.03.3c0 .07-.03.12-.1.16-.16.1-.18.2-.06.35.02.02.02.04 0 .05l-.15.26c-.06 0-.08-.03-.05-.1 0-.03.02-.05.05-.07a.47.47 0 0 0 .02-.03c.04-.05.05-.1.02-.15a.13.13 0 0 0-.13-.08h-.99a.08.08 0 0 0-.07.04.08.08 0 0 0 0 .08c.06.1.06.15 0 .17l-.23-.64c-.01-.03-.04-.05-.07-.05h-.02c-.03 0-.04.02-.03.04l.07.42-.11.03a1.95 1.95 0 0 1-.1-1.01c.01-.03.03-.04.05-.04a.3.3 0 0 1 .21.06c.07.05.15.06.25.04a.1.1 0 0 0 .05-.04.38.38 0 0 1 .12-.09.06.06 0 0 1 .06 0l.24.19Z" fill="#296074"/><path d="M13.16 8.38c.01.52-.13.97-.42 1.35-.15.2-.37.34-.65.43-.26.08-.52.02-.79-.18h.22c.09 0 .16-.01.22-.03.22-.08.4-.23.52-.45l.16-.26V9.2c-.13-.14-.11-.26.05-.35.07-.04.1-.1.1-.17 0-.09 0-.19.03-.29h.56ZM6.22 9.23c-.05.03-.1.04-.13.03-.03 0-.04-.03-.04-.05v-.1a17.1 17.1 0 0 1 .23-.69h.04c.02 0 .03.01.03.04.01.27-.03.53-.13.77ZM4.92 8.62l.06.04a.3.3 0 0 1 .13.24.1.1 0 0 1-.01.06l-.1.16a.07.07 0 0 0 0 .07c.06.18.15.34.27.5.09.14.23.27.43.37-.29.18-.55.16-.8-.05a1.27 1.27 0 0 1-.34-.44c-.14-.3-.2-.64-.2-.99.1-.1.22-.13.37-.1.02 0 .04 0 .06.02.03.06.08.1.13.12ZM11.11 9.36l.02.06c0 .03-.02.04-.04.04-.1 0-.17-.09-.23-.25a1.74 1.74 0 0 0-.03-.08l-.07-.42c-.01-.02 0-.04.03-.04h.02c.03 0 .06.02.07.05l.23.64Z" fill="#74EEF9"/><path d="M5.59 9.18c-.1.05-.14.12-.15.2-.01.04 0 .08.03.12.03.03.07.05.12.05.02 0 .05-.01.08-.04.03.03.05.03.06-.02.04-.14 0-.25-.1-.33l-.01-.03.02-.01.41-.02v.1c0 .03.01.05.04.06.03 0 .08 0 .13-.03h.1c-.1.29-.24.52-.43.7a.66.66 0 0 1-.2.13c-.19-.1-.33-.23-.42-.38l-.22-.5a.08.08 0 0 1 .01-.08.08.08 0 0 1 .08-.03l.45.1ZM12.26 9.5a.98.98 0 0 1-.52.45.63.63 0 0 1-.22.03h-.22a1.48 1.48 0 0 1-.58-.82l.1-.03c.02.01.03.04.04.08.06.17.14.25.23.25.02 0 .04 0 .04-.04 0-.01 0-.03-.02-.05.06-.03.06-.08 0-.18a.08.08 0 0 1 0-.08.08.08 0 0 1 .07-.04h1c.05 0 .1.03.12.08.03.05.02.1-.02.15l-.02.03a.21.21 0 0 0-.05.07c-.03.07 0 .1.05.1Z" fill="#4899B1"/><path d="M5.59 9.18c.1.1.13.2.08.33-.03.03-.06.04-.08.04a.15.15 0 0 1-.12-.05.15.15 0 0 1-.03-.13c.01-.07.06-.14.15-.2ZM11.8 9.65c.08 0 .16-.07.16-.16 0-.1-.08-.16-.17-.16a.16.16 0 0 0-.16.16c0 .09.07.16.16.16Z" fill="#74EEF9"/><path d="M7.5 10.17c.04.13.1.23.15.21.04-.01.05-.13 0-.26-.03-.13-.1-.22-.15-.2-.04 0-.04.12 0 .25ZM9 10c.01 0 .02 0 .02.02l-.04.1c-.03.1-.06.18-.1.25-.03.06-.06.09-.08.08h-.02c-.02-.01-.03-.05-.02-.12 0-.07.02-.16.05-.25l.03-.12h.02L9 10ZM4.9 11.52c.06.06.14.1.24.1.47.03.99-.06 1.55-.27L7.72 11c.19-.06.4-.04.64.04.51.2 1.08.36 1.68.5.5.13 1 .16 1.49.1.17 0 .32-.06.46-.13.06-.04.1-.09.13-.15l.03-.2c0-.03.01-.03.04-.02l.02.02c.02 0 .03.03.03.05.02.26-.15.43-.5.52-.22.06-.5.08-.83.07a5.83 5.83 0 0 1-1.3-.2c-.36-.1-.79-.25-1.28-.44a.97.97 0 0 0-.73 0c-.6.23-1.05.39-1.37.47-.25.07-.5.12-.78.15a.9.9 0 0 1-.6-.14c-.08-.04-.1-.1-.08-.2.01-.05.04-.08.07-.08.02 0 .03.02.03.04v.07l.03.06Z"/></svg>