<!-- by TradingView --><svg width="18" height="18" viewBox="0 0 18 18" xmlns="http://www.w3.org/2000/svg"><path fill="#0052FE" d="M0 0h18v18H0z"/><path d="M8.45 4.02c.27.08.43.54.48.82.07.4.09.75.05 1.06-.05.53-.28.88-.68 1.04a.83.83 0 0 1-.58.01.94.94 0 0 1-.49-.35c-.27-.38-.3-.81-.1-1.3.11-.28.29-.57.53-.86.18-.22.51-.51.79-.42ZM10.72 7.96a.93.93 0 0 1-.49-.36c-.26-.37-.3-.8-.1-1.29.1-.29.28-.58.52-.87.18-.22.52-.51.8-.42.27.08.42.53.47.82.08.4.1.74.07 1.06-.06.53-.28.87-.68 1.04a.83.83 0 0 1-.59.02ZM4.88 9a.9.9 0 0 1-.54-.27c-.32-.32-.41-.73-.29-1.23.08-.3.22-.62.41-.95.15-.24.45-.58.73-.55.3.04.5.45.6.72.13.37.2.71.2 1.02.03.53-.15.9-.53 1.13a.87.87 0 0 1-.58.12ZM9.64 8.06c.55.15.99.59 1.07 1.15l.09.64c.06.48.21.9.5 1.28l.49.65.12.23c.28.74-.1 1.53-.8 1.85-.4.19-.84.19-1.3 0-.48-.21-1.08-.54-1.66-.7-.57-.16-1.26-.18-1.78-.25a1.5 1.5 0 0 1-1.12-.66 1.45 1.45 0 0 1 .55-2.12l.76-.3c.46-.18.8-.45 1.12-.84l.41-.5c.38-.43 1-.58 1.55-.43ZM12.56 10.89a1 1 0 0 1-.42-.46c-.2-.43-.18-.87.07-1.32.15-.27.36-.54.63-.79.2-.18.56-.42.81-.28.25.14.34.63.35.93.01.41-.02.77-.1 1.09-.12.52-.38.83-.79.92a.77.77 0 0 1-.55-.09Z" fill="#fff"/></svg>