<!-- by TradingView --><svg width="18" height="18" viewBox="0 0 18 18" xmlns="http://www.w3.org/2000/svg"><path fill="url(#ackw53sac)" d="M0 0h18v18H0z"/><path d="M3 8h.67l2.82 5h-.68L3 8Zm1.26 0h.67l2.81 5h-.68l-2.8-5Zm1.93 0h-.67l2.8 5h.69L6.19 8Zm.57 0h.68l2.81 5h-.68l-2.8-5Z" fill="#fff"/><path d="m8.34 8.8.32.53L11.24 5h-.6l-2.3 3.8Zm.64 1.03.32.52L12.5 5h-.6L8.98 9.83Zm.93 1.59-.31-.53L13.15 5h.6l-3.84 6.42Zm.3.5.32.52L15 5h-.6l-4.19 6.92Z" fill="#FFE000"/><defs><linearGradient id="ackw53sac" x1="3.35" y1="3.12" x2="21.9" y2="24.43" gradientUnits="userSpaceOnUse"><stop stop-color="#1A1E21"/><stop offset="1" stop-color="#06060A"/></linearGradient></defs></svg>