<!-- by TradingView --><svg width="18" height="18" viewBox="0 0 18 18" xmlns="http://www.w3.org/2000/svg"><path fill="#F1A23F" d="M0 0h18v18H0z"/><path d="M8.67 4.45H9.7V7.6h-.43v1.1h-.59v2.8h2.51V9.45h.72v-1.1h-.38v-.72H11v-.82h-.54v-.04H9.7V5.54h.76v-.92h1.13V6h.83v1.29H13v2.94h-.48v2.33H11.59v.41H8.36v-.2h-.72v.85H6.17v-1.06h.4v-.34H5.56v-1.03H7.2V8.5h.58V6.57h-.41V5.54H8.67v-1.1Zm.76 9.17v-.65H8.36v.35h-.3V14h1.06v-.38h.3Z" fill="#111"/><path d="M8.12 4h1.14v1.1h.65v-.93h1.13v1.54h.83v1.13H8.7V8.5h-.59v2.55h2.51V9h.72V7.9h-.38V6.84h1.48V9.8h-.48v2.33H11.04v.4H7.82v-.2h-.73v.86H5.62v-1.06h.41v-.35H5v-1.02h1.65V8.5h.58V6.12h-.41V5.1H8.12V4Zm.76 9.18v-.65H7.82v.34H7.5v.68h1.06v-.37h.31Z" fill="#fff"/></svg>