<!-- by TradingView --><svg width="18" height="18" viewBox="0 0 18 18" xmlns="http://www.w3.org/2000/svg"><path fill="#F0F3FA" d="M0 0h18v18H0z"/><path d="M6 7.5h2V15H6V7.5Z" fill="#912FFF"/><path d="M8.96 4.13a4.05 4.05 0 0 0-3.94 4.5h1.81A2.2 2.2 0 0 1 8.96 6V4.12Z" fill="#CD5EFF"/><path d="M6.92 7.5H6v1.13h.83a2.36 2.36 0 0 1 .1-1.13Z" fill="#5E1BD6"/><path d="M11.09 8.63h1.81A4 4 0 0 1 9 12.37V10.5c1.07 0 1.92-.81 2.09-1.88Z" fill="#FE9E3D"/><path d="M13.95 9.38A5.52 5.52 0 0 0 8.6 3c-.24 0-.36.02-.6.05v1.9c.23-.05.35-.08.6-.08 1.99 0 3.6 1.68 3.6 3.75 0 .26-.02.51-.07.76h1.82Z" fill="#FE2A56"/><path d="M12.2 8.63c0 .25-.02.5-.07.74h.64c.07-.24.11-.49.13-.74h-.7Z" fill="#FFD057"/><path d="M8.96 4.9v-.78c-.37 0-.62.03-.96.13V5c.23-.05.35-.13.6-.13l.36.02Z" fill="#FE9E3D"/></svg>