<!-- by TradingView --><svg width="18" height="18" viewBox="0 0 18 18" xmlns="http://www.w3.org/2000/svg"><path fill="url(#a)" d="M0 0h18v18H0z"/><path d="m11.48 7.39-.15-.1-2.2-1.65c-.09-.06-.17-.06-.24 0L6.53 7.39a.23.23 0 0 1-.03-.1V5.98c0-.08.01-.13.04-.17a.57.57 0 0 1 .15-.13A3787.36 3787.36 0 0 1 8.94 4a.2.2 0 0 1 .17.02l.13.1 2.17 1.62c.06.04.09.11.09.2a703.17 703.17 0 0 1-.02 1.44Z" fill="#FF27D8"/><path d="M11.48 7.38c0 .04-.02.07-.06.1L9.16 9.15c-.11.09-.22.09-.33 0l-2.25-1.7c-.05-.03-.06-.05-.05-.07L8.9 5.64c.07-.06.15-.06.24 0a2932.25 2932.25 0 0 0 2.35 1.75Z" fill="#FE83ED"/><path d="M6.37 7.84v1.33c0 .13.02.22.07.25l2.13 1.66c.05.04.11.07.17.08a.6.6 0 0 1-.09.1 1445.39 1445.39 0 0 0-2.16 1.69.3.3 0 0 1-.12.05h-.03a712.17 712.17 0 0 1-2.28-1.74c-.04-.04-.06-.09-.06-.15V9.73c0-.07.04-.13.11-.19L6.24 7.9a.3.3 0 0 1 .13-.05Z" fill="#FF27D8"/><path d="M8.74 11.16a.42.42 0 0 1-.17-.08L6.44 9.42c-.05-.03-.07-.12-.07-.25V7.84c.06 0 .1.03.14.05l2.17 1.69c.05.04.07.1.07.18v1.4ZM11.63 7.84v1.4c0 .08-.02.14-.07.18l-2.13 1.66a.42.42 0 0 1-.17.08V9.78c0-.06 0-.1.02-.14a827.4 827.4 0 0 0 2.19-1.73.4.4 0 0 1 .16-.07Z" fill="#C500A7"/><path d="M9.26 11.16a.42.42 0 0 0 .17-.08l2.13-1.66c.05-.04.08-.1.08-.19v-1.4c.05.02.1.04.14.08l2.15 1.67c.05.03.07.09.07.17v1.32c0 .1-.03.16-.1.21l-2.16 1.68c-.07.06-.16.04-.27-.04L9.4 11.3a.54.54 0 0 1-.13-.14Z" fill="#FF27D8"/><defs><linearGradient id="a" x1="3.35" y1="3.12" x2="21.9" y2="24.43" gradientUnits="userSpaceOnUse"><stop stop-color="#1A1E21"/><stop offset="1" stop-color="#06060A"/></linearGradient></defs></svg>