<!-- by TradingView --><svg width="18" height="18" viewBox="0 0 18 18" xmlns="http://www.w3.org/2000/svg"><path fill="url(#a)" d="M0 0h18v18H0z"/><path opacity=".5" d="M9 5H6.5v.4H9V5Zm0 .52H6.5v.4H9v-.4Zm-2.5.51H9v.4H6.5v-.4Zm2.5.52H6.5v.4H9v-.4Zm-2.5.51H9v.4H6.5v-.4Zm2.5.52H6.5v.4H9v-.4Zm-2.5.51H9v.4H6.5v-.4ZM9 8.6H6.5V9H9v-.4ZM6.5 9H4v.4h2.5V9Zm0 .51H4v.4h2.5v-.4Zm-2.5.52h2.5v.4H4v-.4Zm2.5.51H4v.4h2.5v-.4Zm-2.5.52h2.5v.4H4v-.4Zm2.5.51H4v.4h2.5v-.4ZM4 12.1h2.5v.4H4v-.4Zm2.5.51H4v.4h2.5v-.4ZM14 5h-2.5v.4H14V5Zm0 .52h-2.5v.4H14v-.4Zm-2.5.51H14v.4h-2.5v-.4Zm2.5.52h-2.5v.4H14v-.4Zm-2.5.51H14v.4h-2.5v-.4Zm2.5.52h-2.5v.4H14v-.4Zm-2.5.51H14v.4h-2.5v-.4Zm2.5.51h-2.5V9H14v-.4ZM11.5 9H9v.4h2.5V9Zm0 .51H9v.4h2.5v-.4Zm-2.5.52h2.5v.4H9v-.4Zm2.5.51H9v.4h2.5v-.4Zm-2.5.52h2.5v.4H9v-.4Zm2.5.51H9v.4h2.5v-.4ZM9 12.1h2.5v.4H9v-.4Zm2.5.51H9v.4h2.5v-.4Z" fill="#049A30"/><defs><linearGradient id="a" x1="3.35" y1="3.12" x2="21.9" y2="24.43" gradientUnits="userSpaceOnUse"><stop stop-color="#1A1E21"/><stop offset="1" stop-color="#06060A"/></linearGradient></defs></svg>