<!-- by TradingView --><svg width="18" height="18" viewBox="0 0 18 18" xmlns="http://www.w3.org/2000/svg"><path fill="url(#a0ihgntym)" d="M0 0h18v18H0z"/><path d="m3 13 3.75-4.28.75.4-1.13 1.35 2.07-.97.94.58L3 13Z" fill="url(#b0ihgntym)"/><path d="m15 13-3.38-3.7 1.88-1.07L11.25 6h-4.5L4.5 8.23 15 13ZM7.12 7h3.75l1.13.94-1.13.59-.67-.62H7.5l1.65.64h.75l1.72 1.92L6 7.91 7.13 7Z" fill="#fff"/><path d="m11.9 9.16-.68-.79-.35.16-.2-.22.96 1 .28-.15Z" fill="#E9E9E9" fill-opacity=".6"/><defs><linearGradient id="a0ihgntym" x1="3.35" y1="3.12" x2="21.9" y2="24.43" gradientUnits="userSpaceOnUse"><stop stop-color="#1A1E21"/><stop offset="1" stop-color="#06060A"/></linearGradient><linearGradient id="b0ihgntym" x1="7.69" y1="9.11" x2="3.44" y2="12.46" gradientUnits="userSpaceOnUse"><stop stop-color="#FFA902"/><stop offset="1" stop-color="#FFF000"/></linearGradient></defs></svg>