<!-- by TradingView --><svg width="18" height="18" viewBox="0 0 18 18" xmlns="http://www.w3.org/2000/svg"><path fill="#F0F3FA" d="M0 0h18v18H0z"/><path d="m6.56 4.1.57 5.11c0 .06.07.1.13.07l6.7-3.16c.06-.03.05-.13-.02-.15L6.67 4c-.06-.01-.12.03-.11.1Zm4.8 9.76-.56-5c0-.09-.11-.14-.2-.1l-6.53 3.09c-.1.05-.09.2.03.23l7.08 1.91c.1.03.19-.04.18-.13Z" fill="url(#afs43ujnt)"/><defs><linearGradient id="afs43ujnt" x1="14.09" y1="5.91" x2="9.53" y2="14.29" gradientUnits="userSpaceOnUse"><stop stop-color="#241B77"/><stop offset="1" stop-color="#4B3ECC"/></linearGradient></defs></svg>