<!-- by TradingView --><svg width="18" height="18" viewBox="0 0 18 18" xmlns="http://www.w3.org/2000/svg"><path fill="#F0F3FA" d="M0 0h18v18H0z"/><path d="M4.56 9.22c-.3-.46-.5-.76-.48-1.32.02-.95.55-1.67 1.3-2.14a.18.18 0 0 0 .08-.1c.12-.4.37-.76.75-1.1.19-.17.36-.27.52-.31.4-.1.81-.19 1.2-.02a30.84 30.84 0 0 1 .77.42l.03-.03c.25-.37.56-.5.98-.6.3-.06.45.03.74.05.35.03.9.51 1.05.76.16.26.25.4.27.41.01.02.03.04.06.04.38.13.72.3.95.66.04.07.12.14.23.23.16.13.23.39.35.67.06.15.1.32.1.5.02.47.01.76-.01.86-.02.06-.1.21-.24.46-.02.03-.02.06 0 .1.33.37.58.81.75 1.3.02.08.04.26.04.52 0 .23-.03.4-.1.51-.14.26-.38.37-.7.32a.08.08 0 0 0-.07.02.09.09 0 0 0-.03.06c-.02.24 0 .44-.08.68l-.13.64c-.08.4-.29.75-.62 1.03a.74.74 0 0 1-.45.15c-.49.03-.71-.04-1.04-.41a.16.16 0 0 0-.09-.06c-.38-.08-.64-.1-.76-.07-.85.22-1.7.25-2.57.08a.8.8 0 0 0-.23-.01.16.16 0 0 0-.1.04c-.35.33-.73.54-1.2.4-.47-.16-.76-.83-.75-1.28 0-.4-.03-.72-.11-.95a.1.1 0 0 0-.08-.07c-.07-.02-.16 0-.22-.02a.9.9 0 0 1-.56-.45c-.3-.56.07-1.4.44-1.87a.08.08 0 0 0 0-.1Z"/><path d="M12.17 9.3h.22c.04 0 .08.01.1.04a1.98 1.98 0 0 1 .6 1.1l-.01.02a.05.05 0 0 1-.06 0 .56.56 0 0 0-.45-.04c-.25.08-.3.38-.3.67 0 .33-.06.66-.15.98-.11.37-.07.74-.42 1.06a.06.06 0 0 1-.09 0c-.24-.23-.47-.58-.92-.55h-.29c-.2 0-.48-.13-.68-.05-.52.18-.94.25-1.25.2a14.5 14.5 0 0 0-1.2-.12 1.2 1.2 0 0 0-1.02.43.09.09 0 0 1-.08.03.09.09 0 0 1-.07-.05c-.17-.33-.1-.67-.16-.97a4.9 4.9 0 0 1-.12-.96c0-.17-.03-.3-.09-.36-.24-.29-.47-.17-.76-.06-.04.02-.06 0-.05-.05.07-.35.22-.65.45-.89a.12.12 0 0 1 .1-.04c.15 0 .25-.02.3-.06.2-.16.25-.34.17-.51-.12-.27-.5-.35-.67-.52-.37-.36-.3-.76-.17-1.22.05-.15.1-.27.18-.34.24-.28.5-.47.75-.58.08-.04.15-.1.19-.2.1-.23.12-.47.3-.7.2-.24.4-.4.64-.46.42-.1.9.18 1.08.57.12.25.34.44.6.32.1-.04.2-.15.3-.34.21-.4.42-.8.94-.7.4.07.7.33.9.79.11.25.47.4.69.47.21.07.69.48.77.75l.14.48c.14.35-.12.76-.4.95-.3.2-.48.44-.25.78a.3.3 0 0 0 .1.1c.04.02.1.03.14.03Z" fill="#90EE4D"/><path d="M9.6 6.4c.03.3.28.52.55.48.27-.04.45-.32.41-.62-.04-.3-.3-.52-.56-.48-.27.03-.45.31-.4.62ZM6.83 6.42c0 .3.23.55.5.55.26 0 .47-.26.47-.57 0-.3-.23-.55-.5-.55s-.48.26-.47.57ZM9.92 8.47c-.31.07-.64.04-.94.1l-.3.04c-.27.04-.6-.03-.79-.02-.17.01-.35 0-.53-.05a3.51 3.51 0 0 0-.55-.04c-.27 0-.41-.14-.44-.42v-.02c-.02-.28.1-.43.36-.46l.54-.02c.08 0 .25.03.51.1.37.1.75.08 1.14-.05.09-.03.37-.05.85-.05l.16-.04a.18.18 0 0 1 .1 0c.13.02.24.04.34.04.67.01.56 1.08-.2.86-.03 0-.12 0-.25.03Z"/></svg>