<!-- by TradingView --><svg width="18" height="18" viewBox="0 0 18 18" xmlns="http://www.w3.org/2000/svg"><path fill="url(#ap21onxxy)" d="M0 0h18v18H0z"/><path d="M11 8a1 1 0 1 0 0-2 1 1 0 0 0 0 2ZM14 10a1 1 0 1 0 0-2 1 1 0 0 0 0 2ZM4 10a1 1 0 1 0 0-2 1 1 0 0 0 0 2Z" fill="#fff"/><path d="M8.92 8.63a1.2 1.2 0 0 0-.67-.59c-.47-.2-.8-.45-.8-.93 0-.42-.2-.77-.63-.98a1.36 1.36 0 0 0-1.61.33c-.34.43-.25.97.18 1.32.07.07.18.13.33.2.38.17.7.37.81.75.04.21.04.4 0 .55a1 1 0 0 1-.24.36c-.15.17-.4.3-.63.4l-.06.04c-.93.47-.73 1.64.32 1.89.57.13 1.2-.14 1.43-.6.09-.18.1-.35.1-.53l.01-.09c.02-.35.27-.57.63-.73l.07-.03c.17-.07.34-.14.46-.24a.94.94 0 0 0 .3-1.12Z" fill="url(#bp21onxxy)"/><path d="M11 12a1 1 0 1 0 0-2 1 1 0 0 0 0 2Z" fill="#fff"/><defs><linearGradient id="ap21onxxy" x1="3.35" y1="3.12" x2="21.9" y2="24.43" gradientUnits="userSpaceOnUse"><stop stop-color="#1A1E21"/><stop offset="1" stop-color="#06060A"/></linearGradient><linearGradient id="bp21onxxy" x1="7" y1="6" x2="7" y2="12" gradientUnits="userSpaceOnUse"><stop stop-color="#ED619C"/><stop offset="1" stop-color="#CC6BC7"/></linearGradient></defs></svg>