<!-- by TradingView --><svg width="18" height="18" viewBox="0 0 18 18" xmlns="http://www.w3.org/2000/svg"><path fill="url(#a)" d="M0 0h18v18H0z"/><path d="M4.72 6.96c-.2-.31-.44-.68-.44-.82a.8.8 0 0 0-.05-.2c-.09-.33-.28-1 .05-2.94.6-.04 2.07.38 3.17 2.42a5.08 5.08 0 0 1 3.52.16c.07-.23.15-.44.25-.53.28-.27 1.67-1.1 2.09-.96.41.14.27.96.13 1.37-.06.2-.13.5-.2.82a9.34 9.34 0 0 1-.24.87c.63.82 1 1.84 1 2.94C14 12.8 11.76 15 9 15s-5-2.2-5-4.9c0-1.06.34-2.04.91-2.84l-.19-.3Z" fill="url(#b)"/><path fill-rule="evenodd" d="M7.23 5.6c.07.51.16 1.02.28 1.51.1.44.33.8.72 1 .14.08.3.13.5.18a20.54 20.54 0 0 0 .56.1v-.01l-.07-.08c-.02-.03-.01-.06.02-.07l.08-.03c.03-.01.06 0 .09.03.11.14.2.3.27.48 0 .02.01.02.02 0a1.59 1.59 0 0 0 .09-.67v-.01a2.5 2.5 0 0 0 1.06-1.16c.12-.26.23-.58.33-.97.06-.24.12-.42.18-.55.04-.08.13-.14.2-.2a4.06 4.06 0 0 1 1.21-.65c.15-.04.29-.06.42-.06a.07.07 0 0 1 .07.07c.02.17.02.32 0 .45 0 .08-.03.23-.1.44-.06.22-.14.57-.23 1.04-.1.48-.3.9-.64 1.24-.08.09-.22.2-.4.36-.15.1-.3.22-.43.33-.3.25-.53.52-.69.8-.1.32-.13.63-.1.92 0 .06.04.15.1.18.22.2.4.43.5.72.01.03.02.05.01.06 0 .02-.02.02-.03 0L11.2 11l-.1-.13-.49-.4c-.04-.03-.1-.08-.15-.15a.82.82 0 0 0-.18-.15l-.02-.03c0-.02 0-.02.02-.02h.1v-.05a.15.15 0 0 0-.05-.08.03.03 0 0 1 .01-.05.4.4 0 0 1 .21-.02V9.9a.4.4 0 0 0-.37.08c-.02.02-.03.02-.04 0a.82.82 0 0 1-.2-.64H9.9c-.02.26.05.48.2.67.23.26.38.43.47.49.31.23.58.48.79.74.1.37.1.7.03.98a.17.17 0 0 1-.11.13h-.05l-.11-.03-.23-.08a.04.04 0 0 1-.03-.03l-.09-.3c.26-.1.42-.28.47-.55.01-.03.04-.06.1-.08 0-.04-.03-.05-.07-.05l-.04-.01c-.02-.03-.05-.03-.08-.01a.48.48 0 0 0-.2.2.03.03 0 0 1-.01.01.03.03 0 0 1-.03 0 .71.71 0 0 0-.38-.16c-.1 0-.25.03-.35.06l-.06.01a.99.99 0 0 1-.23.02c-.06 0-.1-.01-.12-.03a.64.64 0 0 1-.11-.14h-.02v.02h-.03a4.13 4.13 0 0 0-.53-.01.83.83 0 0 0-.37.08.6.6 0 0 0-.25.3c-.06.16-.1.3-.1.4l-.04.34a.32.32 0 0 1-.1.2v.05h.08c.02 0 .03 0 .03.03a.75.75 0 0 0 .17.6.01.01 0 0 1-.01.02 2.87 2.87 0 0 1-.96-.2c-.6-.25-.88-.83-.95-1.45a4.62 4.62 0 0 1 .2-2.02c.02-.06.02-.1.01-.15a5.3 5.3 0 0 0-.65-1.16l-.06-.1a5.93 5.93 0 0 0-.87-.93 1.59 1.59 0 0 1-.52-.85.02.02 0 0 1 .03-.01l.25.1c.06 0 .07 0 .02-.05-.45-.37-.7-.96-.72-1.54-.02-.53.08-1.05.3-1.55.01-.02.03-.03.05-.02a5 5 0 0 1 2.5 2c.05.1.08.21.1.33Zm3.3 3.2h.01l.02-.02.7-.61.2-.17a2.89 2.89 0 0 0 1.02-1.25 123.94 123.94 0 0 1 .43-1 1.46 1.46 0 0 0 .07-.99.05.05 0 0 0-.03-.02h-.02a5.13 5.13 0 0 0-1.14.48.55.55 0 0 0-.25.31 5.82 5.82 0 0 0-.2.6 10.09 10.09 0 0 1-1.06 2.58l.24.08Zm-3.7-3.16c.19.48.29.98.3 1.51a6.16 6.16 0 0 0-.02 1.53 3.15 3.15 0 0 0-.61-.86c-.26-.28-.47-.5-.66-.66a.75.75 0 0 1-.1-.1.73.73 0 0 1-.17-.3c-.1-.3-.2-.52-.3-.67-.22-.37-.4-.7-.47-1.12-.06-.42.02-.8.26-1.14a.03.03 0 0 1 .04-.02c.49.27.9.6 1.25 1.02.19.22.35.5.47.81Zm.88 3.83-.1.07c-.05.02-.05.02-.03-.03a2 2 0 0 1 .44-.54c.05-.04.14-.06.26-.06a5.15 5.15 0 0 1 1.07.12.04.04 0 0 1 0 .04l-.05.13c0 .03-.03.05-.07.04-.2-.03-.44-.06-.7-.07-.17 0-.28 0-.43.07l-.4.23Zm.53.13c.1-.12.23-.2.36-.23.1-.04.2.07.27.15.03.03.03.03.02 0a.5.5 0 0 0-.24-.25h-.04a1.7 1.7 0 0 0-.4.33h.03Zm2.14-.03-.11.15c-.02.03-.02.02-.02 0a.49.49 0 0 1 .12-.21.04.04 0 0 1 .05-.01c.05.01.09.04.12.1a.01.01 0 0 1-.01 0l-.08-.04a.05.05 0 0 0-.04-.01.06.06 0 0 0-.03.02Zm-1.49.27c.1.04.17.1.21.2 0 .05.03.08.08.08.02 0 .02 0 .02-.02a.86.86 0 0 0-.22-.25.22.22 0 0 0-.12-.04l-.12-.01a8.63 8.63 0 0 0-.7.11h.07c.02 0 .03.01.04.03.08.18.22.43.43.43a2.31 2.31 0 0 1 .25 0c.1-.04.18-.12.22-.23L9 10.2c-.07.07-.16.16-.23.16-.06 0-.06-.03-.02-.06.14-.12.16-.25.06-.38v-.05l.04-.03h.04Zm1.73-.64c-.12 0-.25.01-.38.05-.04 0-.07 0-.08-.05l-.05-.13c-.02-.04 0-.07.05-.07l.26-.02a.23.23 0 0 1 .21.1l.04.05c.04.05.02.07-.05.07Z" fill="url(#c)"/><path d="M7.58 6.23c1.1-.4 2.17-.38 3.24.07l.1-.37V5.9l-.02-.01a4.65 4.65 0 0 0-3.4-.06v.03l.08.37Z" fill="url(#d)"/><path d="m10.17 7.49.05.05v.03l-.07.05a.1.1 0 0 0-.04.03c-.01.03-.03.04-.05.04-.1 0-.17 0-.2-.02-.1-.02-.11 0-.05.08l.02.08-.01.05a.06.06 0 0 1-.04.02.03.03 0 0 1-.03-.02c-.04-.12-.09-.2-.14-.23-.09-.07-.08-.1.03-.1.13 0 .27.03.43.05.1.02.1 0 .02-.05a1.58 1.58 0 0 0-.97-.29.05.05 0 0 1-.02-.04V7.2a.4.4 0 0 1 .2-.18L9.31 7v-.01H9.3a1.8 1.8 0 0 0-.64.25 2.66 2.66 0 0 0-.65.57.04.04 0 0 1-.03-.01v-.08a2.17 2.17 0 0 1 1.41-.85l.02.01c.05.13.02.2-.1.23-.02 0-.03.02-.03.03 0 .02.01.03.03.03.31.02.6.13.86.32Z" fill="url(#e)"/><path d="M12.83 7.4a4.69 4.69 0 0 1 .82 3.57c-.2.99-.63 1.81-1.33 2.47a4.5 4.5 0 0 1-4.49 1.1A4.6 4.6 0 0 1 5.29 7.6l.29.28a.02.02 0 0 1 0 .03 4.12 4.12 0 0 0-.36 3.76 4.17 4.17 0 0 0 3.89 2.67 4.1 4.1 0 0 0 3.36-1.69 4.1 4.1 0 0 0 .78-3.26 4.07 4.07 0 0 0-.67-1.65l.23-.33h.02Z" fill="url(#f)"/><path d="m11.05 11.53.02-.1c.03-.03.07-.05.09-.04.01.01 0 .05-.02.1-.03.03-.07.06-.09.04Z" fill="#F4B9D6"/><path d="M10.77 12a.22.22 0 0 1-.02-.1l-.21-.03c-.28-.05-.6-.13-.73-.42a.36.36 0 0 0-.34-.22c-.16 0-.32 0-.47.02a.59.59 0 0 0-.29.09c-.2.14-.28.48-.3.7l-.02.3-.02.04a.1.1 0 0 0-.02.06c0 .01 0 .02.02.02h.01a.03.03 0 0 1 .02.03c-.02.27-.02.48.18.7a.08.08 0 0 0 .05.02c.31 0 .61.01.9.06.22.04.38.1.48.22h.04l.17-.06h.01c.02 0 .03.01.03.03v.02l-.07.08c-.05.04-.04.06.02.03l.12-.05c.05-.02.1-.03.16-.03.04 0 .1-.01.13-.03.06-.02.07 0 .04.05l-.03.04c-.04.05-.03.07.03.05a.85.85 0 0 0 .36-.16c.25-.2.2-.69.15-.98v-.01a.03.03 0 0 0-.03-.02.24.24 0 0 1-.14.04h-.3c-.25-.03-.5-.02-.72.04a.56.56 0 0 1-.34-.02 1.32 1.32 0 0 1-.68-.62c-.03-.06-.04-.1-.03-.13a.3.3 0 0 1 .12-.1v-.01h.01v.01c-.06.1-.07.18-.03.26.16.26.37.44.63.54.12.05.23.06.33.03l.28-.08c.05-.02.1-.01.14.02H11.1c.01 0 .02 0 .02-.02v-.05a.25.25 0 0 0-.12-.05.93.93 0 0 0-.35 0 .7.7 0 0 1-.2.05c-.06.01-.07 0-.01-.02.09-.04.2-.07.32-.09.01 0 .02 0 .03-.02a.38.38 0 0 0 0-.13.34.34 0 0 0-.03-.1Z" fill="url(#g)"/><defs><linearGradient id="a" x1="3.35" y1="3.12" x2="21.9" y2="24.43" gradientUnits="userSpaceOnUse"><stop stop-color="#1A1E21"/><stop offset="1" stop-color="#06060A"/></linearGradient><linearGradient id="b" x1="9" y1="3" x2="9" y2="15" gradientUnits="userSpaceOnUse"><stop stop-color="#513197"/><stop offset="1" stop-color="#3B2273"/></linearGradient><linearGradient id="c" x1="9" y1="3.28" x2="9" y2="14.73" gradientUnits="userSpaceOnUse"><stop stop-color="#FBE5F3"/><stop offset="1" stop-color="#F4B9D6"/></linearGradient><linearGradient id="d" x1="9" y1="3.28" x2="9" y2="14.73" gradientUnits="userSpaceOnUse"><stop stop-color="#FBE5F3"/><stop offset="1" stop-color="#F4B9D6"/></linearGradient><linearGradient id="e" x1="9" y1="3.28" x2="9" y2="14.73" gradientUnits="userSpaceOnUse"><stop stop-color="#FBE5F3"/><stop offset="1" stop-color="#F4B9D6"/></linearGradient><linearGradient id="f" x1="9" y1="3.28" x2="9" y2="14.73" gradientUnits="userSpaceOnUse"><stop stop-color="#FBE5F3"/><stop offset="1" stop-color="#F4B9D6"/></linearGradient><linearGradient id="g" x1="9" y1="3.28" x2="9" y2="14.73" gradientUnits="userSpaceOnUse"><stop stop-color="#FBE5F3"/><stop offset="1" stop-color="#F4B9D6"/></linearGradient></defs></svg>