<!-- by TradingView --><svg width="18" height="18" viewBox="0 0 18 18" xmlns="http://www.w3.org/2000/svg"><path fill="#143450" d="M0 0h18v18H0z"/><path d="M10.86 5c-1.16 0-3.1 2.2-3.1 2.2L6.1 9c1.04 1.2 3.73 4 5.59 4C12.93 13 15 11.6 15 9.8 15 8 12.31 5 10.86 5Z" fill="url(#a)"/><path d="M7.14 5c1.16 0 2.9 2.4 2.9 2.4l1.65 1.8C10.65 10.4 8.17 13 6.31 13 5.07 13 3 11.6 3 9.8 3 8 5.69 5 7.14 5Z" fill="url(#b)"/><path d="m8.93 6.05 5.4 5.49A3.85 3.85 0 0 1 11.7 13c-.67 0-1.44-.36-2.2-.88l-5.3-4.99C5.09 5.97 6.3 5 7.14 5c.54 0 1.2.52 1.76 1.08l.03-.03Z" fill="url(#c)"/><defs><linearGradient id="a" x1="9.21" y1="5.8" x2="13.8" y2="10.76" gradientUnits="userSpaceOnUse"><stop stop-color="#009DD8"/><stop offset=".51" stop-color="#00B9E3"/><stop offset=".84" stop-color="#01EAF6"/></linearGradient><linearGradient id="b" x1="4.45" y1="8.2" x2="8.65" y2="12.34" gradientUnits="userSpaceOnUse"><stop stop-color="#01E4F3"/><stop offset=".17" stop-color="#01F3F9"/><stop offset=".5" stop-color="#00A7DC"/><stop offset="1" stop-color="#0096D5"/></linearGradient><linearGradient id="c" x1="6.1" y1="5.8" x2="11.46" y2="12.57" gradientUnits="userSpaceOnUse"><stop stop-color="#00DDF0"/><stop offset=".34" stop-color="#00FDFD"/><stop offset="1" stop-color="#00E9F5"/></linearGradient></defs></svg>