<!-- by TradingView --><svg width="18" height="18" viewBox="0 0 18 18" xmlns="http://www.w3.org/2000/svg"><path fill="#F0F3FA" d="M0 0h18v18H0z"/><path d="M4 6.1C4 5.48 4.54 5 5.2 5h4.46c.16 0 .28.14.28.29 0 .14-.12.28-.28.28h-4.4c-.35 0-.63.26-.63.59v5.59c0 .37.27.68.68.68h.2c.23 0 .45-.1.59-.26l1.96-2.2c.23-.25.56-.4.92-.4.39 0 .75.17.96.46l.57.59a1 1 0 0 0 .75.38c.58.03.88-.35.87-.86a.8.8 0 0 0-.06-.27l-.93-2.48-.1-.06a.25.25 0 0 1-.16-.23c0-.04 0-.08.02-.11a.28.28 0 0 1 .24-.15c.05 0 .1 0 .14.03l.16.08c.1.04.17.12.2.21l1.02 2.53a1.39 1.39 0 0 1-1.4 1.88 1.58 1.58 0 0 1-1.21-.6l-.57-.59a.63.63 0 0 0-.5-.24.64.64 0 0 0-.48.21l-1.96 2.2c-.25.28-.63.45-1.03.45h-.2C4.6 13 4 12.47 4 11.8V6.1Z" fill="#6830A2"/><path d="M11.42 5.57c-.01 0-.03 0-.04.02L9.83 7.33a.68.68 0 0 1-.53.24h-.62a.7.7 0 0 1-.5-.2l-.38-.34A.1.1 0 0 0 7.73 7h-.69a.1.1 0 0 0-.1.06l-.88 2.5c-.06.2-.18.61-.18.84 0 .12.08.24.18.31.12.08.2.25.16.38a.24.24 0 0 1-.33.16c-.1-.04-.2-.1-.29-.17a.86.86 0 0 1-.35-.68c0-.3.13-.8.2-.98l.97-2.58a.66.66 0 0 1 .62-.41h.69a.7.7 0 0 1 .5.2l.37.34a.1.1 0 0 0 .08.03h.62a.1.1 0 0 0 .08-.04l1.56-1.74c.11-.14.29-.22.48-.22h1.47C13.5 5 14 5.45 14 6.01v6.04c0 .53-.47.95-1.04.95H7.72c-.16 0-.28-.14-.28-.29 0-.14.12-.28.28-.28h5.18c.26 0 .47-.2.47-.44V6.07c0-.27-.24-.5-.55-.5h-1.4Z" fill="#6830A2"/></svg>