<!-- by TradingView --><svg width="18" height="18" viewBox="0 0 18 18" xmlns="http://www.w3.org/2000/svg"><path fill="url(#afwe3o2ol)" d="M0 0h18v18H0z"/><path d="M2.1 7.72a.52.52 0 0 1 0-.6c.12-.16.32-.16.45 0l2.4 3.16c.12.17.12.43 0 .6-.13.16-.33.16-.45 0L2.1 7.72Zm6.5-.6c.13.17.13.43 0 .6l-2.4 3.16c-.13.16-.33.16-.45 0a.52.52 0 0 1 0-.6l2.4-3.16c.12-.16.33-.16.45 0Zm.8.6a.52.52 0 0 1 0-.6c.12-.16.33-.16.45 0l2.4 3.16c.13.17.13.43 0 .6-.12.16-.32.16-.45 0L9.4 7.72Zm6.5 0a.52.52 0 0 0 0-.6c-.12-.16-.32-.16-.45 0l-2.4 3.16a.52.52 0 0 0 0 .6c.13.16.33.16.45 0l2.4-3.16Z" fill="#F2F2F2"/><defs><linearGradient id="afwe3o2ol" x1="3.35" y1="3.12" x2="21.9" y2="24.43" gradientUnits="userSpaceOnUse"><stop stop-color="#1A1E21"/><stop offset="1" stop-color="#06060A"/></linearGradient></defs></svg>