<!-- by TradingView --><svg width="18" height="18" viewBox="0 0 18 18" xmlns="http://www.w3.org/2000/svg"><path fill="#1B1D28" d="M0 0h18v18H0z"/><path d="M13.24 6.65H4.82c.32-.79 1.6-2.36 4.15-2.36a4.67 4.67 0 0 1 4.27 2.36Z" fill="#003082"/><path d="M13.24 11.24H4.82c.32.82 1.6 2.47 4.15 2.47a4.64 4.64 0 0 0 4.27-2.47Z" fill="#FFCE00"/><path d="M13.83 9H4.19V7.93l.57-1.43h8.41l.53 1.04.13 1.46Z" fill="#F2F2F2"/><path d="M4.19 9h9.64v1.07l-.57 1.43H4.84l-.53-1.04L4.2 9Z" fill="#289728"/><path d="M8 13.63v-9.3l1-.2 1 .2v9.3l-.85.23h-.4L8 13.63Z" fill="#D21034"/><path fill-rule="evenodd" d="M9 14A5 5 0 1 0 9 4a5 5 0 0 0 0 10Zm0-.31A4.69 4.69 0 1 0 9 4.3a4.69 4.69 0 0 0 0 9.38Z"/><path d="m6.84 4.76.22.68h.71l-.58.42.23.68-.58-.42-.58.42.22-.68-.58-.42h.72l.22-.68Z" fill="#FDCC00"/><path opacity=".2" d="M11.97 7.45c-.91-2.07-3.38-2.5-4.5-2.47 1.9-1.3 5.13-.27 6.1 2.69.98 2.95-1.6 4.73-1.83 4.52-.22-.2 1.36-2.16.23-4.74Z" fill="#F8F7F7"/><path opacity=".2" d="M5.14 7.4c.16-.27.07-.4 0-.44-.39-.12-1.75 2.04-.1 4.36 1.63 2.31 3.63 2.29 4.04 2.26.42-.03.92-.49.26-.56a4.6 4.6 0 0 1-3.37-1.97c-1.1-1.6-1.02-3.3-.83-3.64Z"/></svg>