<!-- by TradingView --><svg width="18" height="18" viewBox="0 0 18 18" xmlns="http://www.w3.org/2000/svg"><path fill="#F0F3FA" d="M0 0h18v18H0z"/><circle cx="9" cy="9" r="6" fill="red"/><path d="M5.06 7.13c-.75.75-.93 2.06-.93 2.62.68 1 2.62 3 4.87 3s4.19-2 4.88-3c0-.9-.63-2.13-.94-2.63.3-2.4-.5-3.5-.94-3.75-.25.2-.79.6-.94.75a3.5 3.5 0 0 0-.37 1.13h-.19V4.12c-.15-.3-.81-.37-1.13-.37V5h-.74V3.75c-.46 0-.94.25-1.13.38v1.12h-.19a3.5 3.5 0 0 0-.37-1.13c-.15-.15-.69-.56-.94-.75-1.05.6-1.06 2.75-.94 3.75Z" fill="#F7A42A"/><path d="M6.75 5.63c-.3.15-.88.68-1.13.93A3.73 3.73 0 0 1 6 4.31l.37.38c.15.15.32.68.38.93ZM11.25 5.63c.3.15.88.68 1.13.93A3.73 3.73 0 0 0 12 4.31l-.37.38c-.15.15-.32.68-.38.93ZM9 12.75c-2.4 0-4.13-2.06-4.88-3 0 .38 1.32 4.13 4.88 4.13 2.85 0 4.44-2.76 4.88-4.13-.63 1-2.48 3-4.88 3Z"/><path d="M7.5 10.69c-.17-.33.08-1.29.38-1.5.34-.26.85-.38 1.12-.38.26 0 .82.15 1.13.38.55.4.56.94.37 1.5l.38-.56v-.2h-.2v-.55h.38V9h1.31l.2.38c.05-.07.22-.2.37-.2.18 0 .93.2.93.57 0 .3-1.44 2.05-3.37 2.73v1.4c-.3.3-.88.37-1.13.37v-1.52a4.03 4.03 0 0 1-.74 0v1.52c-.6-.15-1-.31-1.13-.38v-1.34c-1.93-.55-3.37-2.03-3.38-2.78 0-.38 1.13-.56 1.32-.56.15 0 .31.12.37.19L6 9h.94v.38h.37v.56h-.19v.19l.38.56Z" fill="#fff"/><path d="M8.63 10.88v-.2h-.2l-.37-.93c.19-.13.64-.38.94-.38.3 0 .75.26.94.38l-.38.94h-.19v.19l1.13.74-1.5-.37-1.5.38 1.13-.76Z"/><path fill-rule="evenodd" d="M10.88 9.56h.37V9.2h.19v.37h.19V9.2h.18v.37H12c.19 0 .56.08.56.38s-.12.37-.19.37c.13 0 .38.08.38.38 0 .37-.19.56-.56.56h-.38v.38h-.19v-.38h-.18v.38h-.19v-.38h-.38v-.19l.38-.19v-.93l-.38-.19v-.19Zm.74.75v-.37H12c.06 0 .19.04.19.19 0 .14-.13.18-.19.18h-.38Zm0 .56v-.37H12c.06 0 .19.04.19.19s-.13.19-.19.19h-.38ZM7.13 9.56h-.38V9.2h-.19v.37h-.18V9.2h-.2v.37H6c-.19 0-.56.08-.56.38s.12.37.18.37c-.12 0-.37.08-.37.38 0 .37.19.56.56.56h.38v.38h.18v-.38h.2v.38h.18v-.38h.38v-.19l-.38-.19v-.93l.38-.19v-.19Zm-.75.75v-.37H6c-.06 0-.19.04-.19.19 0 .14.13.18.19.18h.38Zm0 .56v-.37H6c-.06 0-.19.04-.19.19s.13.19.19.19h.38Z"/><path d="M7.7 7.28a.56.56 0 1 0-.96-.57l.96.57Z" fill="#fff"/><path d="M6.39 8.5c.53.13 1.2.13 1.86.13C7.87 8.43 6.37 7.3 6 7.3c-.26 0-.08.55.1.94.05.12.16.21.29.24ZM11.66 8.5c-.5.13-1.58.13-1.91.13.94-.2 1.88-1.32 2.25-1.32.26 0 .06.58-.12.98a.36.36 0 0 1-.22.2Z"/><path d="M10.27 7.31a.56.56 0 0 1 .96-.57l-.96.57Z" fill="#fff"/></svg>