<!-- by TradingView --><svg width="18" height="18" viewBox="0 0 18 18" xmlns="http://www.w3.org/2000/svg"><path fill="url(#a)" d="M0 0h18v18H0z"/><path d="M9.64 4.18c.45.24.68.64.68 1.17 0 .35-.19.78-.41.96l-.14.1-.33-.32c-.23-.24-.36-.33-.47-.33-.11 0-.42.28-1.69 1.55-1.35 1.35-1.55 1.57-1.55 1.7 0 .15.2.37 1.58 1.74 1.39 1.4 1.6 1.57 1.7 1.54.16-.05 2.94-2.82 2.94-2.94 0-.14-.16-.16-1.07-.14l-.83.02-.28.3c-.4.42-.75.5-1.18.3a.91.91 0 0 1-.3-1.42c.2-.22.4-.31.71-.31.32 0 .42.04.74.34.37.33.77.42 1.23.28.15-.05.33-.19.64-.5.34-.33.47-.43.67-.5 1.26-.33 2.22 1.06 1.44 2.09-.27.36-.5.46-1.12.51-.66.05-1.03.19-1.4.49a2.38 2.38 0 0 0-.87 1.73c-.04.71-.27 1.1-.78 1.33a1.3 1.3 0 0 1-1.42-.2c-.33-.3-.4-.46-.45-1.04-.06-.72-.2-1.03-.64-1.5-.5-.53-.84-.7-1.62-.8-.4-.04-.63-.1-.75-.17-.89-.55-.9-1.79-.02-2.3.17-.1.36-.15.7-.18a2.68 2.68 0 0 0 1.8-.82c.37-.4.53-.85.53-1.48 0-1.08 1.03-1.7 1.96-1.2Z" fill="#fff"/><defs><linearGradient id="a" x1="2.39" y1="2.27" x2="15.66" y2="15.1" gradientUnits="userSpaceOnUse"><stop stop-color="#975CA7"/><stop offset="1" stop-color="#37A0DA"/></linearGradient></defs></svg>