<!-- by TradingView --><svg width="18" height="18" viewBox="0 0 18 18" xmlns="http://www.w3.org/2000/svg"><path fill="#005290" d="M0 0h18v18H0z"/><path d="M9.05 6h-.81c-.02 0-.03.02-.03.04L7 11.87l-.01.13H5.43c-.03 0-.04-.13-.03-.15L6.6 6.04c0-.02 0-.04-.02-.04h-.86c-.3 0-.6.65-.35.8.06.04.22.06.48.05a3.98 3.98 0 0 1 .15.01l-.28 1.19c0 .02-.02.02-.03.03a1.56 1.56 0 0 1-1.61-1.04 1.55 1.55 0 0 1 .53-1.73c.26-.2.57-.31.91-.31h7.67c.02 0 .02.01.02.03l-1 5.62c-.01.03 0 .04.02.04H14v.03l-2.6 3.24c-.05.06-.06.05-.04-.01l.52-1.91c0-.03 0-.04-.03-.04h-1.52l-.01-.14 1.22-5.81c0-.03 0-.05-.03-.05h-.8c-.02 0-.03.02-.04.04l-1.21 5.83-.02.13H7.88c-.02 0-.02-.13-.02-.15l1.21-5.8c0-.02 0-.05-.02-.05Z" fill="#fff"/></svg>