<!-- by TradingView --><svg width="18" height="18" viewBox="0 0 18 18" xmlns="http://www.w3.org/2000/svg"><path fill="#EDECE7" d="M0 0h18v18H0z"/><path d="M12.31 12.11a.02.02 0 0 0-.02.03l.73 1c.08.11.1.18.08.3-.02.17-.4.23-.5.1a127.68 127.68 0 0 1-.91-1.36 41.38 41.38 0 0 1-2.38.03v1.4c0 .24-.03.43-.35.38-.15-.02-.23-.1-.24-.25a77.42 77.42 0 0 1 0-1.53l-2.4-.06a3714.85 3714.85 0 0 0-.92 1.44c-.13.09-.5 0-.54-.16-.03-.1-.02-.17.05-.27a406.39 406.39 0 0 1 .73-1.07c-.4-.02-.82-.06-1.27-.12a3.64 3.64 0 0 1-.68-.16c-.1-.04-.21-.1-.19-.22.04-.22.25-.45.41-.6a5.85 5.85 0 0 1 .9-.69 5.68 5.68 0 0 1-.19-3.06A4.4 4.4 0 0 1 8.82 4a4.55 4.55 0 0 1 3.6 1.43 4.51 4.51 0 0 1 .91 4.25 76.95 76.95 0 0 1-.16.68l.21.14c.32.2.6.43.85.68.13.13.26.3.28.48v.02l-.01.01c-.13.11-.28.14-.48.19l-.3.06c-.47.08-.93.14-1.4.17Z" fill="#222"/><path d="M12.2 10.1a17.2 17.2 0 0 0-2.12-.16H7.73a14.59 14.59 0 0 0-2.47.23c-.07-.3-.14-.58-.18-.83a4.52 4.52 0 0 1-.03-1.71 3.87 3.87 0 0 1 3.74-3.25 3.98 3.98 0 0 1 3.2 1.24c.68.74 1.04 1.7 1.05 2.68a6.17 6.17 0 0 1-.35 1.89c-.15-.04-.31-.08-.49-.1Z" fill="#fff"/><path d="M9.95 6.43a2.03 2.03 0 0 0-1.87-.04l-.1.07c-.34.2-.56.47-.69.78-.05.14-.1.37-.12.71a115.26 115.26 0 0 0-.1 1.36c-.02.15 0 .31.22.3a56.3 56.3 0 0 1 3.52 0c.1-.03.14-.1.13-.2L10.8 7.7a1.53 1.53 0 0 0-.71-1.19l-.14-.07Z" fill="url(#a)"/><path d="M9.55 6.98c.4.3.54.8.3 1.22-.18.31-.5.5-.88.49-.4-.01-.7-.22-.89-.62a.94.94 0 0 1 .62-1.2 1 1 0 0 1 .85.1Z" fill="#fff"/><path d="M8.53 7.74c.17.08.38.05.5-.1.1-.12.11-.26.02-.43 0-.01 0-.02.02-.02.25.02.47.18.54.43.12.49-.45.87-.92.6-.2-.11-.3-.29-.3-.54h.01v-.01a.02.02 0 0 1 .03 0l.1.07Z" fill="#222"/><path d="M5.93 11.5c.26 0 .48-.21.48-.47a.48.48 0 0 0-.48-.47.48.48 0 0 0-.49.47c0 .26.22.47.49.47ZM9 11.5c.27 0 .49-.21.49-.47a.48.48 0 0 0-.49-.47.48.48 0 0 0-.49.47c0 .26.22.47.49.47ZM12.07 11.5c.27 0 .49-.21.49-.47a.48.48 0 0 0-.49-.47.48.48 0 0 0-.48.47c0 .26.22.47.48.47Z" fill="#fff"/><path d="M8.12 6.37c.03.08.09.29.05.37-.01.04-.04.04-.07.01l-.02-.03-.07-.29a.93.93 0 0 0-.86-.53c-.02 0-.03 0-.03.02-.15.23-.46-.03-.28-.18.05-.04.1-.05.17-.04.05.02.07.05.11.08h.04c.44.03.76.22.96.59ZM10.03 6.48a.6.6 0 0 0-.07.23c0 .02-.03.04-.07.05a.54.54 0 0 1 .01-.36c.19-.26.38-.47.72-.55a3 3 0 0 1 .3-.03l.02-.01.02-.03c.06-.11.23-.1.3-.01.07.1-.02.24-.15.24-.09 0-.13-.09-.22-.08-.43.02-.71.2-.86.55Z" fill="#222"/><defs><linearGradient id="a" x1="10.64" y1="9.48" x2="9.27" y2="7.5" gradientUnits="userSpaceOnUse"><stop stop-color="#9A1C26"/><stop offset="1" stop-color="#EE021D"/></linearGradient></defs></svg>