<!-- by TradingView --><svg width="18" height="18" viewBox="0 0 18 18" xmlns="http://www.w3.org/2000/svg"><path fill="url(#akuzp3b1e)" d="M0 0h18v18H0z"/><path fill-rule="evenodd" d="M13.47 12.3a.57.57 0 0 0-.7.1c-.94.98-2.3 1.6-3.8 1.6A5.1 5.1 0 0 1 3.8 9c0-.63.12-1.24.34-1.8a.53.53 0 0 0-.21-.65l-.68-.4a.5.5 0 0 1-.16-.69l.01-.03a.53.53 0 0 1 .72-.16l.69.41c.22.14.5.08.69-.1A5.26 5.26 0 0 1 8.97 4a5.1 5.1 0 0 1 5.19 5c0 .62-.12 1.22-.34 1.77-.09.24-.01.52.22.65l.72.44a.5.5 0 0 1 .16.68l-.01.03a.53.53 0 0 1-.72.16l-.72-.43Zm-1.77-1.07c.26.16.32.51.1.72A4.18 4.18 0 0 1 9 13a4.06 4.06 0 0 1-4.13-4c0-.39.06-.77.17-1.12.08-.29.44-.4.7-.23l5.96 3.58Zm1.26-1.1c-.08.28-.44.38-.7.22L6.3 6.77c-.26-.16-.32-.51-.1-.72A4.18 4.18 0 0 1 9 5c2.28 0 4.13 1.8 4.13 4 0 .39-.06.77-.17 1.12Z" fill="#fff"/><defs><linearGradient id="akuzp3b1e" x1="9" y1="0" x2="9" y2="18" gradientUnits="userSpaceOnUse"><stop stop-color="#BF5AEE"/><stop offset="1" stop-color="#7B65FF"/></linearGradient></defs></svg>