<!-- by TradingView --><svg width="18" height="18" viewBox="0 0 18 18" xmlns="http://www.w3.org/2000/svg"><path fill="#F0F3FA" d="M0 0h18v18H0z"/><circle cx="9" cy="9" r="6" fill="url(#ahztv1rrn)"/><circle cx="9" cy="9" r="5" fill="url(#bhztv1rrn)"/><path d="M9.13 8.49a3.06 3.06 0 0 0-.93-.34L8 8.1C8.13 7.24 9.5 7.06 9.86 7h.05c.25-.04 3.23.07 3.09.38-.07.15-.21.25-.37.36-.2.14-.42.29-.56.56-.11.23-.2.34-.25.42a.67.67 0 0 0-.14.28c-.03.15.06.36.14.53.07.16.13.28.04.28-.1 0-.37.05-.64.1-.24.04-.46.08-.53.08-.11 0-.92-.85-1.33-1.28l-.23-.23Zm-3.42-1.4a1 1 0 0 0-.71.42h.52c.2 0 .1.12-.04.26-.07.07-.14.15-.18.23-.11.21.41.66.82.85.25.1.35.46.44.79.06.2.11.4.2.5.1.12.18.28.25.43.1.2.2.39.3.42.15.05.16-.14.18-.32 0-.06 0-.11.02-.16.01-.08.12-.2.23-.33.14-.17.3-.34.25-.43a6.56 6.56 0 0 0-1.23-.9c-.11-.03-.6-.34-.64-.46-.02-.06.19-.1.43-.15.2-.04.43-.08.58-.15.27-.12.69-.78.86-1.09-.6.02-1.92.07-2.28.1Zm6.31 3.68c.12-.01.36-.03.4.05.06.09.2.24.36.15.17-.09.27-.45.2-.67-.09-.23-.25-.32-.33-.3-.04.01-.08.06-.12.13-.07.1-.16.21-.3.28-.21.11-.26.27-.21.36Z" fill="url(#chztv1rrn)"/><path fill-rule="evenodd" d="m6 10.17 1.52-.15V12c.44-.07 1.48-.18 1.48-.18V9.95l.13-.1 1.04 1.86 1.3-.22-1.04-1.76L12 9.51v-.88l-1.3.11c.17-.18.3-.65.3-1.1C11 7.1 10.57 6 9.52 6c-1.04 0-2 .4-2 .4v2.53L6 9.18v1Zm3-3.06V9c.52-.12 1-.52 1-1.18 0-1-.5-.85-.92-.74L9 7.11Z" fill="url(#dhztv1rrn)"/><defs><linearGradient id="ahztv1rrn" x1="9" y1="3" x2="9" y2="15" gradientUnits="userSpaceOnUse"><stop offset=".2" stop-color="#F7FEFF"/><stop offset=".54" stop-color="#BD2339"/></linearGradient><linearGradient id="bhztv1rrn" x1="9" y1="4" x2="9" y2="14" gradientUnits="userSpaceOnUse"><stop stop-color="#F25D65"/><stop offset=".23" stop-color="#D92733"/><stop offset="1" stop-color="#F0C5CE"/></linearGradient><linearGradient id="chztv1rrn" x1="7.39" y1="6.47" x2="8.66" y2="9.52" gradientUnits="userSpaceOnUse"><stop stop-color="#F5E4DA"/><stop offset="1" stop-color="#DA4844"/></linearGradient><linearGradient id="dhztv1rrn" x1="9" y1="6" x2="9" y2="12" gradientUnits="userSpaceOnUse"><stop stop-color="#F6FCFD"/><stop offset="1" stop-color="#BD6D72"/></linearGradient></defs></svg>