<!-- by TradingView --><svg width="18" height="18" viewBox="0 0 18 18" xmlns="http://www.w3.org/2000/svg"><path fill="url(#a)" d="M0 0h18v18H0z"/><path d="M8.93 3.02c.13.1.27.16.43.19.12.02.2.03.22.05.05.03.1.09.16.17l.03.02h.02c.02 0 .03 0 .04-.03v-.11l.02-.02.01-.02a.04.04 0 0 1 .05 0l.2.13c.02.02.03.01.02-.01l-.02-.08c0-.03 0-.04.03-.02.19.12.32.27.58.3.16.12.3.28.4.5.02.03.07.04.13.03 0 .08-.01.17-.03.24-.02.13 0 .25.04.37 0 0 0 .02.02.03l.02.01a.07.07 0 0 0 .07-.01l.1-.08-.07.14v.04c.02.08 0 .15-.04.2v.05c0 .12.03.2.12.24a.4.4 0 0 1 .18.12l.02.04-.03.04a.03.03 0 0 0-.02.03c0 .05.03.09.06.13a.03.03 0 0 1 0 .03.33.33 0 0 1-.28.15h-.03l-.2-.11a.05.05 0 0 0-.05 0l-.02.02v.03c.04.16.21.17.2.35 0 .18 0 .3-.14.4a.06.06 0 0 0-.02.03v.04l.18.36c.04.07.06.14.06.2 0 .14 0 .26-.02.36l.03.15.02.02a.07.07 0 0 0 .09 0l.15-.13h.07l-.03.1-.15.18c-.06.06-.1.12-.1.17-.01.08 0 .17.06.26a.14.14 0 0 0-.01.08c0 .06.07.1.03.16-.01.02-.02.02-.04.02h-.06c-.02 0-.03 0-.03-.02l-.01-.06c-.02-.14-.06-.29-.07-.41 0-.13-.02-.26-.05-.38-.02-.06-.02-.15-.03-.23v-.17a.62.62 0 0 0-.07-.26l-.07-.15a.07.07 0 0 0-.02-.03.12.12 0 0 1-.05-.05 1.3 1.3 0 0 0-.2-.3v-.09l-.51-.71a3.8 3.8 0 0 1-.62-.25.42.42 0 0 0-.18-.04 46.57 46.57 0 0 1-.68 0l-.5.05c-.13 0-.24.02-.32.05l-.37.11a2.26 2.26 0 0 0-.8.43c-.03.03-.06.05-.08.1-.08.28-.17.56-.27.83l-.11.22a.14.14 0 0 0 0 .1l-.01.01h-.03L6.3 7c-.01-.08-.02-.15.01-.24.04-.1.07-.21.09-.32a.42.42 0 0 1 .09-.18l.1-.14a3.39 3.39 0 0 1 .38-.5c.07-.1.3-.15.41-.18a.49.49 0 0 1 .23-.02c.17 0 .33-.03.48-.09l.33-.1.41-.08.24-.03a.86.86 0 0 1 .17-.04c.19-.01.32-.03.49.01l.15.03c.28.03.57 0 .85 0l.2.03.04-.01a.17.17 0 0 1 .09-.03h.03c.1-.08 0-.19-.05-.26a.08.08 0 0 1-.01-.04.3.3 0 0 0-.1-.18.24.24 0 0 1-.08-.23v-.04a.41.41 0 0 1-.05-.16c0-.02 0-.06.03-.11.02-.06 0-.1-.05-.13s-.1-.02-.15 0a.09.09 0 0 1-.06.02.09.09 0 0 1-.06-.04c-.03-.05-.05-.1-.1-.12a.9.9 0 0 1-.11-.1c-.05-.04-.13-.06-.24-.08-.01 0-.02 0-.02.02v.26l-.01.04-.04.02-.08.01c-.02.01-.04.02-.04.05v.13h-.03a.67.67 0 0 0-.2.04.28.28 0 0 1-.15.01.92.92 0 0 0-.27-.03c-.05 0-.07.03-.07.07v.06l-.01.05h-.01a.1.1 0 0 0-.03.05.1.1 0 0 1-.1 0 .78.78 0 0 1-.22-.16.16.16 0 0 0-.16-.04l-.2.08c-.07.02-.07.05-.02.09.05.04.1.1.13.18a.03.03 0 0 1 0 .03H8.5a1.02 1.02 0 0 0-.38.02c-.11 0-.2.04-.25.12l-.32.37h-.09l.06-.3a.22.22 0 0 0-.1-.24.05.05 0 0 0-.04-.01c-.07.02-.13 0-.17-.05a.05.05 0 0 1-.01-.04c0-.11-.02-.14-.07-.23V4.2l.02-.1v-.03l-.05-.14a.58.58 0 0 0-.14-.17l-.07-.04-.01-.02a.04.04 0 0 1 0-.03v-.02a.31.31 0 0 1 .21-.07c.02 0 .03 0 .04.02l.14.08.05.03c-.04-.01-.06 0-.07.05v.03l.03.02c.05.03.1.06.12.11a.4.4 0 0 0 .1.1l.24.2c.06.05.15.07.19.12a.1.1 0 0 0 .07.04.1.1 0 0 0 .07-.02c.06-.05.12-.1.18-.12.08-.03.14-.07.19-.1a1 1 0 0 1 .5-.14 5.6 5.6 0 0 0 .64-.07.09.09 0 0 0 .03-.06l.02-.2a.06.06 0 0 0-.02-.06 2.4 2.4 0 0 0-.47-.34c-.03-.02-.05-.01-.04.02.06.19.1.37.21.5v.03h-.02l-.17-.02a.1.1 0 0 0 .04 0l.02-.03-.02-.1a.44.44 0 0 1-.01 0v-.01a.9.9 0 0 0-.3-.37c-.02-.01-.03-.03-.02-.07V3.2a.17.17 0 0 0-.14-.03c-.02 0-.03.02-.03.04 0 .06 0 .1.02.13.02.05.04.1.04.15l.01.04.13.1a.61.61 0 0 1-.3-.1.44.44 0 0 0-.15-.05H8.4v.04c.12.1.18.2.2.35 0 0 0 .02-.02.03a.84.84 0 0 1-.23.12c-.13-.1-.28-.18-.44-.24-.08-.03-.12-.08-.2-.13a.35.35 0 0 1-.16-.07.05.05 0 0 1-.02-.03c0-.03 0-.06.03-.07.01-.01.04-.02.08-.01.06 0 .18 0 .22-.05l.03-.02c.06-.02.08-.06.06-.12a.31.31 0 0 1-.02-.1c0-.02.01-.03.02-.03a.3.3 0 0 0 .12-.1c.3-.02.54-.06.86-.02Z" fill="#0691FB"/><path d="m11.11 3.42.18.16h.03l.03.02c.03.03.05.07.06.1.02.1.1.17.1.27.03.24.01.47-.05.7l-.1.09-.02.01a.07.07 0 0 1-.06-.01l-.02-.03a.73.73 0 0 1-.04-.37c.02-.07.03-.16.03-.24 0-.16.06-.28-.07-.42L11 3.52c-.06-.06-.12-.1-.16-.09-.1.01-.14.07-.12.16-.26-.03-.39-.18-.58-.3-.02-.02-.03-.01-.03.02l.02.08c0 .02 0 .03-.03.01l-.2-.12a.04.04 0 0 0-.05 0l-.01.03-.01.11c0 .02-.02.03-.04.03h-.02l-.03-.02a.62.62 0 0 0-.16-.17.8.8 0 0 0-.22-.05.86.86 0 0 1-.43-.2h.42c.25.02.52.06.82.12a.6.6 0 0 1 .25.11.1.1 0 0 0 .1.02h.04c.15.01.28.06.4.13.02.02.05.03.07.03a.6.6 0 0 0 .08 0Z" fill="#0BCBF0"/><path d="M8.07 3.05a.3.3 0 0 1-.12.09s-.02.01-.02.03c0 .03 0 .06.02.1.02.07 0 .1-.06.12a.05.05 0 0 0-.03.02c-.04.05-.16.05-.22.05h-.08c-.03.02-.03.05-.03.08 0 .01 0 .02.02.03.05.04.1.06.16.07-.05.05-.1.07-.14.06-.02 0-.03 0-.04-.02-.07-.09-.2-.12-.26 0a.42.42 0 0 1-.14-.08.05.05 0 0 0-.04-.02.31.31 0 0 0-.2.07l-.02.02a.04.04 0 0 0 .02.05l.07.04c-.03 0-.05 0-.06.02v.05c.02.06 0 .11-.06.14H6.8l-.08.01a.05.05 0 0 0-.03.04v.1l-.03.04c-.06.04-.13.02-.18.04a.2.2 0 0 0-.12.12.21.21 0 0 1-.04.07.17.17 0 0 1-.07.04c.05-.16.15-.29.3-.38l.02-.03c.02-.05.08-.1.09-.14 0-.03 0-.05-.02-.06a.05.05 0 0 1-.03-.05v-.03l.03-.02.25-.18.03-.02c.16-.04.29-.09.38-.13.02 0 .02-.02.02-.04s0-.03.02-.03l.47-.24.26-.03Z" fill="#DE1AF6"/><path d="M8.84 3.29c-.07 0-.12 0-.16.04a.3.3 0 0 1-.02-.13c0-.02 0-.04.03-.04.06 0 .1 0 .13.03.01.01.02.02.01.03l.01.07Z" fill="#BD39D9"/><path d="M7.32 3.7c.2.08.4.13.55.28l.15.12c.11.09.25 0 .33-.1a.84.84 0 0 0 .23-.11c.02-.01.02-.02.02-.03a.52.52 0 0 0-.2-.35v-.03s0-.01 0 0c.05 0 .1.02.15.05.1.06.2.09.3.1l.27.17.17.03h.01l.01-.01a.02.02 0 0 0 0-.03c-.1-.13-.15-.31-.2-.5-.02-.03 0-.04.03-.02a2.4 2.4 0 0 1 .49.37v.03l-.02.2-.03.06a5.6 5.6 0 0 1-.64.08 1 1 0 0 0-.5.13c-.05.03-.11.07-.19.1a.74.74 0 0 0-.18.12.1.1 0 0 1-.07.02.1.1 0 0 1-.07-.04c-.04-.05-.13-.07-.19-.12l-.24-.2a.4.4 0 0 1-.1-.1.4.4 0 0 0-.12-.11l-.02-.02v-.03c0-.04.02-.06.06-.05Z" fill="#0AD5D4"/><path d="M8.84 3.29a.9.9 0 0 1 .3.37h.01a.45.45 0 0 0 .01 0l.02.1c0 .02 0 .03-.02.04a.1.1 0 0 1-.04 0l-.26-.17-.13-.11a.05.05 0 0 1-.01-.04c0-.05-.02-.1-.04-.15.04-.03.1-.05.16-.04Z" fill="#F30C99"/><path d="M7.71 3.64c.08.05.12.1.2.13.16.06.3.14.44.24-.08.1-.22.18-.33.1a1.6 1.6 0 0 1-.15-.13c-.16-.15-.35-.2-.55-.27l-.05-.03c.06-.12.2-.09.26 0l.04.02c.04 0 .09-.01.14-.06Z" fill="#D20000"/><path d="M10.73 5.12c.01-.02.05-.04.12-.06l.04-.02a.08.08 0 0 0 .02-.05c0-.1.02-.17-.04-.24a.59.59 0 0 1-.15-.4c0-.02 0-.04-.02-.06a.08.08 0 0 0-.06-.02.22.22 0 0 1-.08-.03.05.05 0 0 1-.03-.03c-.04-.12-.14-.16-.2-.25a.53.53 0 0 0-.12-.12c-.03-.02-.06-.02-.08.02l-.01.01c-.02.04-.02.07.01.1.04.04.07.08.08.13v.02a.03.03 0 0 1-.04.01l-.09-.05h-.04c-.02.02-.02.04-.02.07 0 .03.03.08.06.13v.03h-.02a.37.37 0 0 0-.2.02H9.8c-.05-.01-.2-.09-.28-.08a3.87 3.87 0 0 1-.37.07v-.06c-.01-.04.01-.06.06-.06.09 0 .18 0 .27.02.04.01.1 0 .14 0a.67.67 0 0 1 .2-.04l.03-.01.01-.03v-.1c0-.03.02-.04.04-.04l.08-.02c.02 0 .03 0 .04-.02l.01-.04v-.26c0-.01 0-.02.02-.01.11 0 .19.03.24.07a.9.9 0 0 0 .12.1c.04.03.06.07.1.12 0 .02.02.03.04.04l.07-.01c.05-.03.1-.04.15-.01.05.03.07.07.05.13a.3.3 0 0 0-.03.11c0 .05.01.1.04.16v.04c0 .1.02.17.1.23a.3.3 0 0 1 .09.18l.01.04c.06.07.14.18.05.25a.07.07 0 0 1-.04.01.17.17 0 0 0-.08.03.06.06 0 0 1-.04 0l-.2-.02Z" fill="#DE1AF6"/><path d="M6.96 3.76c.05.04.1.1.14.17L7 4.2c0 .01-.01.02-.03.02h-.06a.05.05 0 0 0-.04.02.05.05 0 0 0 0 .05c.07.18.18.3.37.34.12.03.17.1.27.17l-.06.3c0 .06-.04.1-.09.13a.06.06 0 0 1-.03.01c-.16-.02-.18-.16-.3-.23-.18-.1-.35-.16-.52-.27-.1-.06-.2-.08-.28-.16H6.2a.08.08 0 0 0-.04.04c0-.1.03-.15.1-.19l.06-.04a.21.21 0 0 0 .04-.07.2.2 0 0 1 .12-.12c.05-.02.12 0 .18-.04l.02-.03.01-.11c0-.02.02-.03.03-.04a.12.12 0 0 1 .08 0l.04-.01c.05-.03.08-.08.06-.14v-.05c.01-.02.03-.02.06-.02ZM10.73 5.12c-.28 0-.57.03-.85 0l-.15-.03c-.17-.04-.3-.02-.5 0a.86.86 0 0 0-.17.03l-.23.03-.41.09c-.07.01-.17.04-.33.1-.15.05-.31.07-.48.08a.3.3 0 0 1-.08-.16c-.01-.05.02-.09.02-.15l.32-.37c.14.02.16-.04.25-.12a1.02 1.02 0 0 1 .4-.01V4.6a.03.03 0 0 0 0-.03.48.48 0 0 0-.12-.18c-.05-.04-.05-.07.01-.1l.2-.07a.16.16 0 0 1 .17.04c.07.07.14.12.23.16a.1.1 0 0 0 .1 0h.02v-.05a.14.14 0 0 0 .03-.05 3.86 3.86 0 0 0 .37-.07c.09 0 .23.07.28.08h.04a.37.37 0 0 1 .21-.02h.02v-.02a.4.4 0 0 1-.06-.14c0-.03 0-.05.02-.07h.04l.1.05a.03.03 0 0 0 .02 0 .03.03 0 0 0 .01-.03.35.35 0 0 0-.08-.13c-.03-.03-.03-.06-.01-.1v-.01c.03-.04.06-.04.09-.02l.12.12c.06.09.16.13.2.25l.03.03.08.03c.02 0 .04 0 .06.02l.02.06c0 .15.05.29.15.4.06.07.03.14.04.24 0 .01 0 .03-.02.05a.08.08 0 0 1-.04.02c-.07.02-.1.04-.12.06Z" fill="#E80501"/><path d="M7.52 4.8c-.1-.07-.15-.14-.27-.17-.19-.04-.3-.16-.38-.34a.05.05 0 0 1 0-.05l.03-.02h.08c.02 0 .03-.01.03-.02l.09-.27.05.14v.04l-.02.1v.03c.05.1.08.12.07.23v.04c.05.05.11.07.18.05a.05.05 0 0 1 .04 0c.09.06.12.14.1.24ZM7.03 4.71h-.04a.69.69 0 0 0-.15 0 .2.2 0 0 1-.1-.02c-.06-.04-.09-.07-.07-.1 0-.04.05-.05.12-.04a.2.2 0 0 1 .1.05L7 4.7c.02 0 .03.02.03.02ZM7.46 5.1c.04.02.07.02.09 0 0 .07-.03.1-.02.16 0 .06.03.11.08.16a.49.49 0 0 0-.23.02c-.1.03-.34.09-.41.17-.1.11-.2.24-.28.36 0-.03.02-.06.04-.1a.29.29 0 0 0 .06-.08.56.56 0 0 0 .02-.12c0-.06.02-.12.08-.15l.04-.02c.02 0 .03 0 .03-.03 0-.05-.02-.07-.07-.05h-.03l-.1.08a.05.05 0 0 1-.03 0l-.25-.06a.12.12 0 0 1-.07-.04l-.24-.35a.12.12 0 0 1-.02-.1l.02-.1v-.03c-.02-.02-.03-.03-.04-.02a.15.15 0 0 0-.07.05.12.12 0 0 0-.03.07c0 .13-.01.23-.18.21l.1-.22V4.9c-.03-.12.18-.16.21-.28.01-.02.02-.04.04-.04h.04c.08.08.19.1.28.16.17.11.34.17.52.27.12.07.14.2.3.23h.03a.18.18 0 0 0 .1-.13Z" fill="#DE1AF6"/><path d="M6.81 5.67a.78.78 0 0 0-.22.26l-.1.17a.82.82 0 0 0-.15.23l-.02.03a.6.6 0 0 0-.05.03c-.02.03-.04.05-.06.05h-.09c-.06-.06-.1-.04-.1.04.01.05-.03.09-.1.13a1 1 0 0 0-.1-.35.45.45 0 0 1-.03-.24l-.02-.13.03-.37a.2.2 0 0 0-.02-.1c-.02-.06-.05-.1-.05-.14 0-.07.05-.12.12-.15.17.02.19-.08.18-.2 0-.03.01-.06.03-.08a.15.15 0 0 1 .07-.05l.04.02v.04l-.02.09a.12.12 0 0 0 .02.1l.24.35c.02.02.04.04.07.04l.25.07.04-.01.1-.07.02-.01c.05-.02.07 0 .07.05 0 .02 0 .03-.03.03-.02 0-.03 0-.04.02a.16.16 0 0 0-.08.15Z" fill="#E80501"/><path d="M11.93 7.05c0-.15-.03-.34-.08-.56a.46.46 0 0 1 .02-.22c0-.01 0-.02.02-.03a.22.22 0 0 0 .1-.07l.03-.02.04-.02h.02l.02-.02v-.05c-.01-.08-.06-.12-.15-.11h-.02v.02c0 .11-.02.16-.13.2h-.04l-.14-.1a.03.03 0 0 0-.05.01v.02c0 .05.02.1.06.15l.01.04c-.02.18.07.28.08.45.02.3 0 .58-.06.87l-.15.13-.03.01a.07.07 0 0 1-.08-.03.34.34 0 0 1-.03-.15l.02-.36a.4.4 0 0 0-.06-.2 3.73 3.73 0 0 1-.18-.4c0-.01 0-.02.02-.03.14-.1.15-.22.15-.4 0-.18-.17-.19-.2-.35a.05.05 0 0 1 .01-.05.05.05 0 0 1 .06 0l.2.1.02.01c.13 0 .22-.05.28-.15v-.03a.22.22 0 0 1-.06-.13c0-.01 0-.02.02-.03l.03-.04-.02-.04a.4.4 0 0 0-.18-.12c.28.1.5.27.68.5.15.2.13.23.03.44v.04l.07.4c0 .06 0 .1-.02.13-.06.09-.21.15-.31.2Z" fill="#DE1AF6"/><path d="m9.04 5.43.24.03h.23c.21.03.38.16.6.3.12.1.22.22.34.33.07.05.14.14.21.21l.02.04.07.1.04.02c.03 0 .04.02.04.05.09.1.15.2.2.3.01.03.03.05.05.06l.02.03.07.15.02.28c0 .1.05.17.02.28v.02a.04.04 0 0 1-.04.01h-.02a.45.45 0 0 1-.1-.07l-.01-.03v-.09a.08.08 0 0 0-.04-.03l-.2-.1.05.01.02-.01c-.03-.23-.13-.5-.18-.68a.79.79 0 0 0-.12-.24l-.24-.3c-.17-.21-.4-.38-.67-.5-.3-.14-.55.05-.86.05a13.47 13.47 0 0 1-.82 0 34.62 34.62 0 0 0-.3.09l-.16.07-.4.22a.22.22 0 0 0-.16.07.07.07 0 0 1-.05.02.07.07 0 0 1-.05-.02v-.03a2.26 2.26 0 0 1 .8-.43l.36-.11c.08-.03.19-.05.32-.05a7.25 7.25 0 0 0 .7-.05Z" fill="#C8DA09"/><path d="M10.8 7.32c0-.02-.02-.04-.06-.05h-.35l.2-.06a.04.04 0 0 0 .03-.02.03.03 0 0 0 0-.03.65.65 0 0 0-.21-.3 10.1 10.1 0 0 1-.15-.37c-.03-.08-.03-.16-.04-.23a.44.44 0 0 0-.08-.15.6.6 0 0 1-.07-.14c-.05-.12-.11-.15-.25-.24-.13-.08-.22-.04-.36-.07-.04 0-.1 0-.18.03a2.14 2.14 0 0 1-.56.12.17.17 0 0 1-.13.02c-.2-.04-.32-.08-.48-.09-.16 0-.32-.06-.49.05a38.67 38.67 0 0 1 .5-.14h.68c.31 0 .56-.19.86-.05.27.12.5.29.67.5l.24.3c.05.07.09.15.12.24.05.18.15.45.18.68 0 .01 0 .02-.02.01h-.04Z" fill="#28FE46"/><path d="m6.81 5.67-.02.12-.06.09a.21.21 0 0 0-.04.1l-.1.14-.1.15a.42.42 0 0 0-.09.17l-.09.32c-.03.09-.02.16-.01.24l-.02.17c0 .01 0 .02-.02.03a.05.05 0 0 0-.01.07c.03.06.04.11.05.17 0 .11.03.22.06.33 0 .06 0 .1-.04.15l-.08.1a.4.4 0 0 1-.11-.18c.01-.03.04-.04.09-.02l-.12-.7c-.01-.09-.04-.16-.07-.25-.03-.09-.09-.16-.11-.26.07-.04.11-.08.1-.13 0-.08.04-.1.1-.04h.1l.05-.05.05-.03.02-.03a.82.82 0 0 1 .15-.23l.1-.17c.06-.1.13-.19.22-.26Z" fill="#F30C99"/><path d="m10.39 7.27-.4.01-.44-.04c-.15 0-.28.04-.42.08a.2.2 0 0 0-.1.04c-.12.12.02.23.1.3a25.52 25.52 0 0 0 .03.56l.03.56c0 .11.05.28.14.52.04.09.03.13-.04.2-.1.08-.2.12-.29.13a.43.43 0 0 1-.18 0 .57.57 0 0 0-.12-.15.1.1 0 0 1-.03-.06.1.1 0 0 1 0-.06c.06-.18.05-.3.03-.52a2.64 2.64 0 0 1-.02-.32c0-.13.06-.3.05-.45a.56.56 0 0 0-.03-.11c-.03-.11 0-.25 0-.37h.01v.07c.02-.1 0-.18-.08-.24a.04.04 0 0 1-.02-.04c0-.02 0-.04-.02-.04-.24-.07-.5-.08-.79-.03h-.21l-.1-.01a.67.67 0 0 0-.31 0c-.04.02-.06 0-.07-.03-.04-.16.05-.34.12-.5l.1-.32c.07-.24.14-.43.29-.66.17-.1.33-.06.5-.05.15 0 .28.05.47.09.05 0 .1 0 .13-.02l.04-.01c.18-.02.35-.05.52-.11a.37.37 0 0 1 .18-.03c.14.03.23-.01.36.07.14.09.2.12.25.24l.07.14.08.15c.01.07.01.15.04.23a10.16 10.16 0 0 0 .15.37c.1.08.17.18.2.3v.02a.03.03 0 0 1 0 .02l-.02.01-.2.06Z" fill="#2EFEEA"/><path d="M7.62 5.79c-.15.23-.22.42-.29.66l-.1.31c-.07.17-.16.35-.12.51.01.03.03.05.07.04.1-.03.2-.03.3-.01-.1-.01-.2 0-.3.05a.75.75 0 0 1-.2.02l-.02-.02c-.03-.13.03-.24.07-.36a.23.23 0 0 0 .01-.14L7 6.51a.59.59 0 0 1 .14-.48l.4-.22a.2.2 0 0 0 .09-.02Z" fill="#00FF94"/><path d="M11.93 7.05a.92.92 0 0 1-.2.56h-.07c.06-.29.08-.58.06-.87 0-.17-.1-.27-.08-.45v-.04a.3.3 0 0 1-.07-.15v-.02l.02-.01a.03.03 0 0 1 .03 0l.14.1h.04c.11-.04.13-.09.12-.2l.01-.02h.02c.09-.01.14.03.16.1v.04l-.01.02-.02.02h-.02l-.04.02a.08.08 0 0 0-.03.02.22.22 0 0 1-.1.07.04.04 0 0 0-.02.03.46.46 0 0 0-.02.22c.05.22.08.4.08.56Z" fill="#E80501"/><path d="M7.13 6.03a.59.59 0 0 0-.14.48l.05.34c.01.05.01.1 0 .14-.05.12-.11.23-.08.36 0 0 0 .02.02.02.12 0 .18-.01.2-.02.1-.04.2-.06.3-.05h.1c-.11.06-.24.1-.37.1a.95.95 0 0 0-.48.18.37.37 0 0 1-.14.06.07.07 0 0 1-.05-.01l-.01-.02-.01-.02c-.03-.22-.11-.37-.02-.59.1-.27.19-.55.27-.83.02-.05.05-.07.09-.1v.03a.07.07 0 0 0 .05.02.07.07 0 0 0 .05-.02c.05-.05.1-.07.17-.07Z" fill="#7BFE28"/><path d="M8.97 6.21a1.03 1.03 0 0 1-.05-.06c-.06-.09.02-.17.12-.11.06.03.1.08.14.15a.05.05 0 0 0 .03.03c.08.02.2.07.34.14.06.02.16.02.19.1l.13.32c.03.07.01.08-.05.05l-.13-.06a9.82 9.82 0 0 1-.44.08c-.09.02-.15-.01-.19-.09a.05.05 0 0 0-.03-.03l-.11-.04h-.03l-.02.02v.03c0 .02.02.02.03.02h.02l.02.01.02.03-.01.02-.02.02-.26.07h-.03a1.63 1.63 0 0 0-.35-.05.56.56 0 0 1-.12-.06c-.11-.05-.22-.06-.33-.12a.07.07 0 0 1-.02-.02.07.07 0 0 1 .02-.1c.17-.1.3-.22.5-.3.13-.04.3 0 .45-.04l.17.01c.01 0 .02 0 0-.02Z" fill="#FE6BFF"/><path d="M6.5 7c-.1.22-.01.37.02.59a.06.06 0 0 0 .02.04.06.06 0 0 0 .06 0c.05 0 .1-.03.13-.05.13-.1.32-.16.48-.17.13-.02.26-.05.38-.1h.21c0 .04.06.06.2.06h-.02c-.11 0-.23.04-.32.04-.2 0-.26 0-.42.07a.39.39 0 0 0-.14.13c-.05.07-.14.15-.27.25-.21.16-.22.33 0 .51.05.05.14.07.24.05l.15.17-.44-.13-.02-.02-.02-.02-.14-.33c-.01-.04-.03-.06-.05-.07a.03.03 0 0 0-.04 0c-.06.1-.06.18-.06.32-.01.38.05.75.17 1.1.03.08.06.13.09.15.05.05.13.1.24.14.2.14.21.32.2.55 0 .04.02.07.04.1.12.21.27.4.4.6l-.19-.22c-.02-.03-.06-.04-.1-.02l-.2.11a.06.06 0 0 1-.06 0l-.08-.06c-.01 0-.01 0 0 0l.02.1a1.68 1.68 0 0 0-.13-.23 1.8 1.8 0 0 1-.1-.18.36.36 0 0 0-.2-.18l-.03-.23c-.03-.1-.02-.18-.02-.3 0-.03 0-.06-.02-.08a.12.12 0 0 0-.06-.04c-.14-.04-.41-.15-.39-.32.04.07.08.11.12.14a.5.5 0 0 0 .28.09.05.05 0 0 0 .04-.02.05.05 0 0 0 0-.04v-.06c-.01-.02-.03-.04-.06-.04-.08 0-.14-.05-.19-.14v-.02h.03c.05.05.1.08.17.1a.03.03 0 0 0 .03 0 .03.03 0 0 0 0-.04c0-.04-.02-.06-.04-.08a1.74 1.74 0 0 1-.2-.15.1.1 0 0 0-.03-.03.11.11 0 0 1-.05-.02v-.06l-.03-.13.06-.01h.04c.03 0 .06 0 .08-.03l.01.26.01.03c.02.03.04.04.06.05.05.03.06.01.04-.03-.01-.04-.02-.07 0-.12a.73.73 0 0 0 .01-.2c0-.06-.02-.08-.05-.08l.03-.04.03-.44c0-.06-.02-.11-.03-.17-.02-.09 0-.19-.03-.28l-.06-.33a.63.63 0 0 0-.05-.17l.01-.07a.06.06 0 0 0 .02-.03L6.3 7l.05.33h.03a.14.14 0 0 1 0-.11L6.5 7Z" fill="#AA829A"/><path d="M11.39 8.5c0 .05 0 .08-.03.1a.68.68 0 0 0-.06-.36.03.03 0 0 0-.03-.02c-.05 0-.07-.03-.08-.07 0-.01 0-.02-.02-.03h-.01a.02.02 0 0 0-.03 0 .13.13 0 0 1-.07.07.1.1 0 0 0-.03.03c-.03.06-.05.1-.11.12a.45.45 0 0 1-.15.03c-.02 0-.03 0-.04.02l-.1.12c-.09.14-.27.15-.43.12a1 1 0 0 0 .53-.35c.16.01.25-.05.28-.18.01-.08-.02-.19-.03-.25 0-.06-.05-.12-.13-.18a.8.8 0 0 0-.14-.08.52.52 0 0 1-.12-.11c-.1-.1-.22-.15-.38-.13l.53-.08c.04.01.06.03.06.05l.2.1c.02 0 .03.02.04.03v.09l.01.03.1.07a.05.05 0 0 0 .05 0l.01-.03c.03-.1-.02-.18-.02-.28l-.02-.28c.04.09.06.18.07.26v.17c0 .08.01.17.03.23.03.12.04.25.05.38 0 .12.05.27.07.41Z" fill="#BD7775"/><path d="M10 7.28c-.16.04-.32.06-.48.07-.13 0-.22.05-.34.06a.06.06 0 0 0-.04.02.06.06 0 0 0-.02.04l.02.19c-.09-.07-.23-.18-.1-.3a.2.2 0 0 1 .09-.04c.14-.04.27-.09.42-.08l.44.04Z" fill="#8AEA4B"/><path d="M10.39 7.27h.35l-.53.08c-.13 0-.26.02-.38.04a.6.6 0 0 0-.42.23c-.08.1-.13.32-.15.4-.02.07-.01.13 0 .21 0 .13.09.25.24.37l.01.03.03.14.04.14c.06.08.13.15.18.24a13.14 13.14 0 0 1 .3.54c0 .03-.02.06-.04.07a.05.05 0 0 0-.03.04l-.03.27c-.02.18-.11.31-.3.4-.02.01-.03.03 0 .06.04.06.09.08.17.08.15-.01.3.01.46.06h.03l.03-.03c.1-.2.12-.38.12-.62a26.34 26.34 0 0 1 0-.33l.02-.02c.11-.04.2-.09.29-.15.18-.13.22-.31.3-.44.1-.22.14-.4.11-.62 0-.01 0-.02-.03-.02a.65.65 0 0 0-.56.27.66.66 0 0 1-.35 0l-.07-.07h.02c.16.03.34 0 .44-.13l.1-.12.03-.02.15-.03c.06-.03.08-.06.11-.12a.1.1 0 0 1 .03-.03.13.13 0 0 0 .06-.07h.02a.03.03 0 0 1 .02 0h.01l.02.03c0 .04.03.06.08.07.01 0 .02 0 .03.02.05.1.07.23.06.36l-.02.26c0 .07-.04.2-.12.41L11 9.5l-.16.13a.4.4 0 0 0-.15.3 1.87 1.87 0 0 1-.15.65l-.02.04c-.14.09-.3.13-.48.13a3.35 3.35 0 0 1-.56-.2c-.1-.05-.17 0-.29.04-.16.06-.25.03-.4-.03a.22.22 0 0 0-.18 0c-.1-.12-.24-.2-.34-.3l-.22-.22a.72.72 0 0 1-.15-.23c.07-.33.21-.6.4-.84a.44.44 0 0 0 .1-.17v-.03a.12.12 0 0 0-.08-.02c0-.07 0-.1.02-.07l.23-.27c.03-.03.04-.08.04-.16 0-.1 0-.18-.02-.27.02-.16.02-.38-.1-.49a.51.51 0 0 0-.36-.1l-.14-.02c-.13 0-.2-.02-.19-.06.29-.05.55-.04.79.03.02 0 .02.02.02.04l.02.04c.08.06.1.14.09.24V7.6H8.7c-.01.1-.04.25-.01.36l.03.1c0 .16-.04.33-.05.46 0 .1 0 .2.02.32.02.21.03.34-.03.52a.1.1 0 0 0 0 .06l.03.06c.04.03.08.08.12.14-.05 0-.1 0-.15-.03h-.04a.57.57 0 0 1-.16 0c-.04 0-.09.03-.12.04a.03.03 0 0 1-.03 0h-.01V9.6c-.01-.04 0-.09.04-.14.07-.1.11-.2.12-.3v-.02a.02.02 0 0 0-.03 0 .7.7 0 0 0-.28.56c0 .07.07.12.09.19l.07.17c.02.05.07.1.13.14l.32.25c.04.03.09.03.15.02h.04c.15.06.23.03.38-.04.06-.03.1-.07.13-.12.07-.12.19-.24.2-.43v-.04c.07-.11.16-.24.11-.35a2.17 2.17 0 0 0-.22-.37c-.04-.06-.06-.05-.06.01 0 .1.1.26.17.36.05.08.03.1-.06.06-.1-.05-.18-.07-.28 0-.1.06-.2.08-.33.07.1 0 .19-.05.29-.14.07-.06.08-.1.04-.2-.1-.23-.14-.4-.14-.5a10.16 10.16 0 0 0-.06-.6v-.72a.06.06 0 0 1 0-.04.06.06 0 0 1 .05-.02c.12 0 .2-.06.34-.06.16 0 .32-.03.47-.07l.4-.01Z" fill="#E0DA09"/><path d="M10.2 7.35c.17-.02.3.03.39.13.05.06.1.1.12.1a.8.8 0 0 1 .14.1c.08.05.12.11.13.17 0 .06.04.17.03.25-.03.13-.12.2-.28.18l-.14-.06-.18-.23c0-.03 0-.05-.03-.06a.65.65 0 0 0-.09-.06c-.07-.03-.06-.06.02-.07.1-.02.28.1.36.13.05.02.06.01.02-.03a.35.35 0 0 0-.14-.08l-.45-.16c-.07-.07-.17-.07-.3.01a.6.6 0 0 0-.2.15 2.98 2.98 0 0 0-.16.26c0 .02 0 .03.02.03l.13.1h.07a.27.27 0 0 1 .1-.07l.04.01.2.17-.35.07a.1.1 0 0 0-.03.02h-.06l-.16-.06-.15-.12.01-.22c.02-.07.07-.3.15-.39a.6.6 0 0 1 .42-.23l.38-.04ZM7.98 7.37a.9.9 0 0 1 .44.27c.08.1.12.22.17.34.02.09.03.18.02.27l-.01.03a.7.7 0 0 0-.16.05.54.54 0 0 1-.16.05c-.17.02-.33.01-.5-.02l.18-.18c.1.03.18.04.26.02.03 0 .05-.01.06-.03.07-.05.11-.1.02-.18L8 7.76c-.05-.13-.2-.07-.29 0a.75.75 0 0 0-.37.13l-.2.11-.02.01a.04.04 0 0 0 0 .04v.01c.03.03.13.12.2.11h.07c0 .02.02.03.03.03.03.06.08.12.13.16-.07.05-.18-.01-.26-.03-.04 0-.08 0-.1.04l-.04.02-.08.03c-.1.02-.19 0-.25-.05-.2-.18-.2-.35.01-.51.13-.1.22-.18.27-.25l.14-.13a.86.86 0 0 1 .42-.07c.1 0 .21-.04.32-.04Z" fill="#117BFC"/><path d="M8.59 7.98c-.05-.12-.09-.24-.17-.34a.9.9 0 0 0-.44-.27H8l.14.01.14.01c.08.02.15.06.21.1.13.11.13.33.1.49Z" fill="#F94B34"/><path d="M11.74 7.6c.22.18.06.37.1.59.01.1.01.2-.01.3l-.1-.19.06-.11v-.04l.01-.31c0-.1-.04-.14-.1-.12l.03-.11V7.6Z" fill="#CEAEEE"/><path d="m10.1 7.66.45.16c.06.02.1.05.13.08.05.04.04.05-.01.03-.08-.04-.26-.15-.36-.13-.08.01-.09.04-.02.07l.09.06v.05c-.02 0-.03 0-.04.03-.02.14.03.21-.12.29a.62.62 0 0 1-.22.02l-.2-.17a.04.04 0 0 0-.04 0 .27.27 0 0 0-.1.05l-.04.02-.03-.01-.13-.1a.05.05 0 0 1-.02-.03v-.03l.16-.23a.6.6 0 0 1 .2-.15l.3-.01Z" fill="#E80501"/><path d="M8 7.76h-.29c.08-.07.24-.13.3 0Z" fill="#04B50F"/><path d="M11.7 7.72c.06-.02.1.02.1.12-.04.1-.1.18-.17.25a.05.05 0 0 0-.02.04c.01.08.05.13.12.17l.1.19-.01.4c0 .09-.02.14-.05.16-.06-.04-.14-.01-.25.07l-.03.02c-.03.01-.05 0-.05-.03V9.1l.01-.02.14-.12c.04-.04.04-.06-.02-.06a.1.1 0 0 0-.05.02l-.03-.06a.21.21 0 0 0 .03-.1c.14-.01.14-.12.14-.22a.16.16 0 0 0-.04-.1.8.8 0 0 0-.11-.12.44.44 0 0 1-.06-.26c0-.05.04-.1.1-.17l.15-.17Z" fill="#F94B34"/><path d="M8.8 8.05c-.03-.07-.07-.2 0-.26.22-.2.27.27.25.36a.5.5 0 0 0 .01.17l.03.17c0 .1-.05.19-.04.28l.05.42c0 .07.03.1.05.16.02.06 0 .1-.07.11-.16.04-.19-.05-.18-.19.01-.16 0-.32-.03-.49a2.27 2.27 0 0 1-.05-.56c0-.06 0-.12-.02-.17Z" fill="#FE6BFF"/><path d="m8 7.76.3.23v.06l-.32.12h-.02l-.18.2a.3.3 0 0 1-.23-.01 5.42 5.42 0 0 1-.2-.27c-.04-.07-.02-.12 0-.2.1-.08.23-.12.36-.13h.3Z" fill="#E80501"/><path d="M6.22 7.82c-.05-.02-.08-.01-.1.02-.03-.01-.06 0-.07.02V8c.04.05.06.1.06.15a.33.33 0 0 0-.02.13l-.01.04-.05.07v.04c0 .05-.01.1-.03.14-.04.02-.06.07-.05.14A.49.49 0 0 1 6 8.36l.01-.03.01-.2-.01-.03a.42.42 0 0 1-.03-.08c-.04-.1-.03-.19.03-.25.05-.05.12-.03.2.05Z" fill="#CEAEEE"/><path d="m6.36 8.7-.03.02c-.06-.06-.08-.13-.04-.19l.01-.04v-.18a.5.5 0 0 0-.06-.3l.08-.09c.05-.05.05-.09.04-.15.02.1 0 .2.03.28.01.06.03.11.03.17 0 .18-.02.33-.03.44l-.03.04Z" fill="#4752D2"/><path d="M6.13 7.84a.4.4 0 0 0 .11.17c.05.1.07.2.06.3a.5.5 0 0 1-.2-.16c0-.05-.01-.1-.04-.15a.07.07 0 0 1-.02-.04l.01-.1c0-.03.04-.03.08-.02Z" fill="#E0DA09"/><path d="M11.73 8.3a.21.21 0 0 1-.12-.17.04.04 0 0 1 .02-.04.76.76 0 0 0 .17-.25v.31l-.01.04-.06.11Z" fill="#DE1AF6"/><path d="M7.34 7.89c-.01.08-.03.13.02.2a5.48 5.48 0 0 0 .03.09c-.01-.02-.02-.02-.03-.02a.2.2 0 0 1-.05.01c-.06 0-.16-.08-.19-.11a.04.04 0 0 1 0-.03V8h.01l.21-.12Z" fill="#04B50F"/><path d="m10.38 7.98.03.01.18.23c-.06 0-.11.02-.17.07a.32.32 0 0 1-.2 0c.15-.07.1-.14.12-.28 0-.03.02-.04.04-.03Z" fill="#0BCBF0"/><path d="m7.96 8.18.02-.01.3-.05c.02 0 .03 0 .03-.02s0-.04-.02-.05l.01-.06c.09.07.05.13-.02.18a.13.13 0 0 1-.06.03.57.57 0 0 1-.26-.02Z" fill="#0AD5D4"/><path d="M7.22 8.59c.06.04.14.08.25.11-.1.04-.21.06-.3.08a1.07 1.07 0 0 1-.38-.01.02.02 0 0 0-.02.01v.01l.03.17c0 .02.01.03.03.04.07.05.07.15.16.18.18.06.33.1.39.22.08.19.18.14.35.14.1-.01.2-.05.23-.14.05-.14.12-.29.22-.44.04-.07.12-.1.14-.2.02-.01.05 0 .07 0l.02.04a.44.44 0 0 1-.1.17c-.2.23-.34.51-.41.84l-.52-.03c-.16-.13-.3-.15-.43-.05a.9.9 0 0 1-.24-.14.35.35 0 0 1-.09-.14 3.1 3.1 0 0 1-.17-1.1c0-.15 0-.22.06-.32A.03.03 0 0 1 6.53 8a.03.03 0 0 1 .02 0 4.29 4.29 0 0 0 .2.43l.03.02.44.13Z" fill="#8AEA4B"/><path d="M6.3 8.31v.22c-.04.06-.03.13.03.19-.03.01-.04.04-.05.07-.02.03-.05.03-.08.02h-.04a.11.11 0 0 1-.06.02.3.3 0 0 1-.06-.15c0-.01 0-.02-.02-.03A.11.11 0 0 1 6 8.57a.3.3 0 0 0 .03-.14v-.04l.05-.07v-.04l.03-.13a.5.5 0 0 0 .2.16ZM9.4 8.35l.1.22v.03c-.15-.12-.23-.24-.25-.37l.15.12Z" fill="#F14764"/><path d="M8.6 8.25c.01.08 0 .13-.03.16l-.23.27v-.1c.06-.07.04-.08-.04-.05a2.04 2.04 0 0 1-.83.17.65.65 0 0 1-.25-.11l-.15-.17.08-.03.04-.02c.02-.04.06-.05.1-.04.04.08.1.13.2.14.14.01.3 0 .5-.03.1-.02.22-.02.38-.01.02 0 .03 0 .04-.02.05-.06.12-.1.19-.13v-.03Z" fill="#DE1AF6"/><path d="m10.42 8.29.02.05-.01.03c-.13.03-.22.05-.27.04l-.5.01c-.13.01-.13.04-.02.1.16.07.34.11.54.12l.07.08c-.23.04-.46.03-.68-.04l-.06-.05c-.02-.02-.02-.03 0-.03v-.03l-.1-.22.15.06h.06l.03-.02.35-.07c.07 0 .14 0 .22-.02.07.02.13.02.2-.01Z" fill="#CEAEEE"/><path d="M11.52 8.76v-.12c-.01-.03-.03-.05-.06-.04-.02 0-.02 0-.03.02a.68.68 0 0 0 0 .21l.01.03h.05l.03.06-.1.09a.4.4 0 0 0-.02.2c-.05.04-.06.07-.03.1-.02.04-.03.06-.02.08-.03-.06-.06-.06-.1-.01l-.19.33c-.01.03 0 .1.03.2 0 .02.02.03.03.03l.04.01.02.01v.02c0 .05.01.1.03.14l-.01.14c-.13.35-.18.55-.39.8a.69.69 0 0 0-.1.19c-.08.18-.19.35-.33.5.03-.09.01-.16-.05-.23a.03.03 0 0 0-.03 0c-.17.03-.31.14-.53.14l.4-.3v-.02l-.21-.14v-.01a.02.02 0 0 1 0-.03c.06-.05.08-.12.04-.22l.05-.01.08.04.03.03c.04.07.05.12.1.15.03.02.05.02.07.01.03-.01.04-.03.04-.07 0-.09-.04-.14-.12-.2a.07.07 0 0 1-.02-.03.21.21 0 0 0-.09-.1c.15.04.3.18.42-.01a3.49 3.49 0 0 0 .27-.6c.02-.02.03-.03.03-.05a.7.7 0 0 1 .18-.45c.04-.04.07-.1.09-.15 0-.02 0-.03.02-.04.04-.04.07-.1.07-.19.08-.2.12-.34.12-.4l.02-.27c.03-.02.04-.05.03-.1l.01.06c0 .02.01.02.03.02h.06c.02 0 .03 0 .04-.02.04-.07-.02-.1-.03-.16v-.08a.8.8 0 0 1 .12.13c.03.03.04.06.04.1 0 .1 0 .2-.14.2Z" fill="#C04EC8"/><path d="m9.51 8.63.06.05a.3.3 0 0 0 .14.17l.02.03v.09l.01.01.02.02.23.41.04.02.38.07.2-.03c.01 0 .02 0 .03-.02a.26.26 0 0 0 .05-.2V9.2l.04-.04c.15-.08.24-.2.27-.36v-.04c-.03-.03-.07-.05-.14-.05h-.26a.65.65 0 0 1 .56-.27c.02 0 .03 0 .03.02.03.22 0 .4-.12.62-.07.13-.11.31-.29.44-.08.06-.18.11-.29.15a.06.06 0 0 0-.02.02l-.01.03v.3c.01.24-.02.41-.11.62l-.03.03h-.03a1.38 1.38 0 0 0-.46-.06c-.08 0-.13-.02-.18-.08-.02-.03-.01-.05.02-.06.18-.09.27-.22.29-.4l.03-.27c0-.02.01-.03.03-.04a.08.08 0 0 0 .03-.07l-.01-.04a.33.33 0 0 1-.1-.12l-.05-.15-.13-.23c-.05-.09-.12-.16-.18-.24a.4.4 0 0 1-.04-.14c0-.05-.01-.1-.03-.14Z" fill="#7BFE28"/><path d="M8.34 8.68c-.01-.02-.02 0-.02.07-.02.1-.1.14-.14.2-.1.16-.17.31-.22.45-.02.09-.13.13-.23.14-.17 0-.27.05-.35-.14-.06-.13-.21-.16-.39-.22-.1-.03-.09-.13-.16-.18a.05.05 0 0 1-.03-.04l-.03-.17a.02.02 0 0 1 0-.02.02.02 0 0 1 .03 0c.11.02.23.02.36 0 .1 0 .2-.03.31-.07h.21c.2-.02.43-.1.62-.17.08-.03.1-.02.04.05v.1Z" fill="#2EFEEA"/><path d="M6 8.57c0 .03 0 .05.02.08l.02.03c0 .06.02.11.06.15l.02.13.01.06.05.02a.1.1 0 0 1 .04.03c.04.04.1.1.19.15l.04.08a.03.03 0 0 1 0 .03h-.03a.35.35 0 0 1-.17-.09h-.02v.02c.04.09.1.13.18.14.03 0 .05.02.05.04l.02.06a.04.04 0 0 1-.01.04.05.05 0 0 1-.04.02.5.5 0 0 1-.28-.09.37.37 0 0 1-.12-.14c-.02-.03-.03-.09 0-.15v-.04c-.1-.17-.06-.27-.08-.43 0-.07 0-.12.05-.14ZM11.52 8.76c0 .03-.01.07-.03.1h-.05l-.02-.03.01-.21c0-.01.01-.02.03-.02.03 0 .05 0 .05.04l.01.12Z" fill="#CBDB8F"/><path d="M10.25 8.72c.12.02.24.02.35-.01h.26c.07 0 .12.02.13.05l.01.04a.51.51 0 0 1-.27.36.09.09 0 0 0-.04.04v.05c.01.07 0 .14-.05.2l-.03.02c-.08.02-.14.04-.2.03A23.38 23.38 0 0 0 10 9.4L9.76 9l-.02-.02v-.01l-.01-.1a.04.04 0 0 0-.02-.02.3.3 0 0 1-.14-.17c.22.07.45.08.68.04Z" fill="#2AFECF"/><path d="M6.36 8.7c.03 0 .05.02.05.07 0 .09 0 .16-.02.21-.01.05 0 .08.01.12.02.04 0 .06-.04.03a.17.17 0 0 1-.06-.05v-.03l-.02-.26c.01-.03.02-.06.05-.07a.1.1 0 0 0 .03-.02Z" fill="#CBDB8F"/><path d="M10.15 8.92h.11c.03 0 .05.02.07.03.02 0 .04.03.05.05l.01.02c.03.05.02.07-.04.08-.08 0-.14 0-.17-.02a3.38 3.38 0 0 1-.3-.16c-.05-.05-.04-.08.02-.1.17-.03.15.08.25.1Z" fill="#8AEA4B"/><path d="M11.77 9.05a.52.52 0 0 0-.14.08.52.52 0 0 1-.23.09.4.4 0 0 1 .03-.21c0-.02.04-.05.1-.1a.1.1 0 0 1 .04 0c.06 0 .06.01.02.05l-.14.12v.03c0 .03.01.04.04.03l.03-.01c.1-.1.19-.12.25-.08Z" fill="#E0DA09"/><path d="M8.82 9.62c.06.02.12.02.18 0 .12.02.23 0 .33-.06.1-.07.18-.05.28 0 .09.04.1.02.06-.06-.06-.1-.18-.27-.17-.36 0-.06.02-.07.06-.02.09.12.16.25.22.38.05.1-.04.24-.1.35l-.01.04c-.01.19-.13.31-.2.43a.28.28 0 0 1-.13.12c-.15.07-.23.1-.38.05h-.04c-.06 0-.11 0-.15-.03a4.69 4.69 0 0 0-.32-.25.35.35 0 0 1-.13-.14 1.15 1.15 0 0 1-.07-.17c-.02-.07-.09-.12-.09-.19a.7.7 0 0 1 .3-.57v.01l.01.01a.6.6 0 0 1-.12.31.22.22 0 0 0-.05.14v.01l.02.02a.03.03 0 0 0 .03 0c.03-.02.08-.05.12-.05h.2c.05.03.1.04.15.03Z" fill="#F94B34"/><path d="M10.93 12.07a.37.37 0 0 1-.08-.2 3.46 3.46 0 0 0-.02-.15v-.16c0-.06-.02-.07-.06-.02l-.6.77-.2.16a.05.05 0 0 0-.01.04c0 .08-.05.14-.12.2a.72.72 0 0 1-.1.08 13.69 13.69 0 0 1-.4.48c0 .06-.02.09-.08.1-.17.04-.31.09-.49-.02-.04-.02-.07-.07-.09-.14a.86.86 0 0 0-.31-.45 1.58 1.58 0 0 1-.2-.18l-.84-.9c-.01-.02-.02-.01-.02 0l-.02.21v.02c-.03.03-.05.04-.06.02v-.36a4.56 4.56 0 0 0-.25-.34 1.86 1.86 0 0 1-.42-.93c.08.03.14.1.18.18l.1.18c.06.07.1.15.14.23l.33.46c.04.06.09.12.12.2.03.06.1.13.2.2a44.85 44.85 0 0 1 .53.44c.11.09.23.13.35.12.12 0 .3-.03.54-.08.06-.01.25 0 .58.03.07 0 .09.04.17.01a.69.69 0 0 0 .41-.28l.17-.23c.14-.16.25-.33.33-.51a.68.68 0 0 1 .1-.18c.21-.26.26-.46.39-.8.02-.06.02-.1 0-.15a.5.5 0 0 1-.01-.14l-.01-.02h-.02l-.04-.02a.04.04 0 0 1-.03-.03c-.03-.1-.04-.17-.03-.2.08-.17.15-.28.19-.33.04-.05.07-.05.1.01.08.04.16.05.24.03a.26.26 0 0 0 .15-.1.51.51 0 0 0 .09-.17c0-.03-.01-.04-.04-.04h.04l.01.04v.04a.62.62 0 0 1-.08.18.26.26 0 0 1-.26.12.1.1 0 0 0-.08.03.47.47 0 0 0-.1.2.93.93 0 0 0-.02.38l-.01.21c-.06.22-.11.4-.18.55-.07.17-.22.32-.23.51l-.02.33c0 .05 0 .1.03.17.03.06.04.13.04.2Z" fill="#117BFC"/><path d="M11.79 9.1c.03 0 .04.02.04.05a.51.51 0 0 1-.09.17c-.04.06-.1.09-.15.1a.33.33 0 0 1-.24-.03c0-.02 0-.04.02-.07.22.02.29-.06.42-.21Z" fill="#CBDB8F"/><path d="M11.22 9.27c0 .08-.03.15-.07.2a.07.07 0 0 0-.02.03.36.36 0 0 1-.09.15.7.7 0 0 0-.18.45c0 .02-.01.03-.03.05a64.06 64.06 0 0 1-.27.6c-.11.2-.27.05-.41.01a.13.13 0 0 0-.11-.01c.18 0 .34-.04.48-.13l.02-.04v-.03c.08-.2.13-.4.15-.62a.4.4 0 0 1 .15-.3L11 9.5l.22-.23Z" fill="#F8770D"/><path d="m7.38 9.78.08.4c.03.23.13.35.28.57l.02.02h.04l.48-.08-.14.11a.57.57 0 0 0-.29.13c-.07.07-.15.09-.25.05-.14-.2-.29-.39-.41-.6a.2.2 0 0 1-.03-.1c0-.23-.02-.4-.21-.55.13-.1.27-.08.43.05Z" fill="#F3940F"/><path d="M9.63 9.66c0 .11-.04.19-.13.22a.96.96 0 0 0-.08.04.04.04 0 0 0-.03.03c-.02.14-.07.28-.16.42a.28.28 0 0 1-.24.1c-.18 0-.2-.25-.26-.33-.05-.07-.17-.1-.22-.13-.1-.07-.17-.13-.16-.24 0-.05.04-.07.09-.07.1 0 .17 0 .24.03.1.03.19 0 .32 0 .1 0 .2-.03.3-.04.1-.01.23-.1.33-.03Z" fill="#117BFC"/><path d="M9.23 10.37c.09-.14.14-.28.16-.42 0-.02.01-.03.03-.03l.08-.04c.09-.03.13-.1.13-.22.03.07.03.14-.01.2l-.18.26-.02.08c0 .02-.02.02-.03 0h-.01l-.02.03a.25.25 0 0 1-.13.14Z" fill="#BD39D9"/><path d="M7.9 9.8c.03.1.08.17.15.24l.22.22c.1.1.24.18.34.3-.16.06-.32.14-.47.24l.14-.11-.48.09h-.04a.06.06 0 0 1-.02-.03c-.15-.22-.25-.34-.28-.58a5.64 5.64 0 0 0-.08-.4l.52.04Z" fill="#ADEB04"/><path d="M7.71 10.46c0 .04.04.06.07.06.03-.01.04-.04.03-.08 0-.03-.03-.06-.06-.05-.03 0-.05.04-.04.07Z" fill="#F94B34"/><path d="M10.04 10.75c.03-.01.07 0 .1.01.04.03.07.06.09.1 0 .02.01.03.02.03.08.06.12.11.12.2 0 .04-.01.06-.04.07-.02.01-.04 0-.07 0-.05-.04-.06-.09-.1-.16a.07.07 0 0 0-.03-.03l-.08-.04-.16-.17a2.86 2.86 0 0 1-.36-.1.58.58 0 0 0-.29.03.68.68 0 0 1-.43 0 .44.44 0 0 0-.19-.02.73.73 0 0 0-.45.24.08.08 0 0 0-.01.1c-.19.06-.29.04-.3-.08a.57.57 0 0 1 .28-.13c.15-.1.31-.18.47-.24a.22.22 0 0 1 .18 0c.15.06.24.09.4.03.12-.04.2-.09.3-.04.18.08.37.15.55.2Z" fill="#4752D2"/><path d="m10.05 10.93-.05.01-.13-.02c-.07-.06-.14-.05-.2.01l-.11.02c-.13-.02-.23-.01-.28.02-.07.04-.13.05-.17.04a1.84 1.84 0 0 0-.73-.05.37.37 0 0 1-.18.05h-.04a.08.08 0 0 1 .01-.1c.11-.13.26-.21.45-.24.04 0 .1 0 .19.03.14.04.28.04.43-.01a.58.58 0 0 1 .3-.03 2.88 2.88 0 0 0 .35.1l.16.17Z" fill="#04B50F"/><path d="M7.6 10.98c.1.04.18.02.25-.05.02.12.12.14.3.08h.05c-.02.04-.02.1.01.18-.13.16-.14.29-.04.38.11.11.28.17.49.17a.6.6 0 0 1-.15 0 .58.58 0 0 0-.15-.01c-.08 0-.15 0-.2-.02a7.2 7.2 0 0 1-.33-.18l-.16-.11a5.36 5.36 0 0 1-.12-.13.2.2 0 0 0-.1-.07c-.09-.03-.13.02-.14.13l-.33-.46-.03-.1h.01l.08.06a.06.06 0 0 0 .07 0l.2-.1c.03-.03.07-.02.1 0l.19.23Z" fill="#C04EC8"/><path d="m9.87 10.92.13.02c.04.1.02.17-.04.21a.2.2 0 0 1-.13.04c-.01 0-.02 0-.02-.02-.02-.06-.06-.07-.12-.05-.02 0-.04.02-.07.06l-.04.02a.4.4 0 0 0-.18.08.06.06 0 0 1-.03.02c-.12 0-.32.02-.48 0a5.4 5.4 0 0 1-.68-.1c-.03-.09-.03-.15 0-.19.07 0 .13-.02.17-.05l.4.07c.08.02.2.01.28 0 .1-.04.2-.03.31 0a.2.2 0 0 0 .11.02c.06-.01.09-.05.08-.1l.11-.02.2-.01Z" fill="#32B7F8"/><path d="M9.96 11.15v.01a.02.02 0 0 0-.01.02v.01l.21.15v.03l-.39.29c-.13.05-.3.06-.51.05-.08 0-.28 0-.6.03a.7.7 0 0 1-.5-.17c-.1-.1-.08-.22.05-.38.23.05.45.1.68.11.16.02.36 0 .48 0 .01 0 .02 0 .03-.02a.4.4 0 0 1 .18-.08l.04-.02c.03-.04.05-.06.07-.06.06-.02.1 0 .12.05l.02.02a.2.2 0 0 0 .13-.04Z" fill="#0E6DFD"/><path d="M8.66 11.74a6 6 0 0 1 .6-.03c.2.01.38 0 .51-.05.22 0 .36-.1.53-.15l.03.01c.06.07.08.14.05.24a7.4 7.4 0 0 0-.17.23.69.69 0 0 1-.41.28c-.08.03-.1 0-.17 0a3.55 3.55 0 0 0-.58-.04c-.24.05-.42.07-.54.08a.5.5 0 0 1-.35-.12 16.89 16.89 0 0 1-.73-.65.93.93 0 0 0-.12-.19c0-.11.05-.16.14-.13a.2.2 0 0 1 .1.07 5.36 5.36 0 0 0 .12.13c.06.03.1.08.16.1l.33.19c.05.02.12.03.2.02h.15l.15.01Z" fill="#F8770D"/><path d="M9.48 11.51c0-.02 0-.04-.02-.06a11.16 11.16 0 0 0-.62-.04.14.14 0 0 1 .09-.03 22.28 22.28 0 0 0 .47 0 .24.24 0 0 1 .2-.02c.02 0 .02.02.02.03a.2.2 0 0 1-.14.12Z" fill="#04B50F"/><path d="M8.84 11.4a11.16 11.16 0 0 1 .62.05c.02.02.03.04.02.06a.28.28 0 0 1-.17.07.1.1 0 0 0-.04 0c-.04.03-.08.05-.12.05-.11 0-.23.01-.3-.03a5.06 5.06 0 0 1-.13-.08.07.07 0 0 1 .02-.1c.02-.02.06-.02.1-.01Z" fill="#D20000"/><path d="M10.93 12.07c0 .06 0 .13.03.2s.04.15.06.22c.04.14.1.26.17.37l-.02.2c0 .02-.01.03-.03.03a.11.11 0 0 1-.06.01c-.01 0-.02 0-.03-.02a.77.77 0 0 0-.15-.31.05.05 0 0 0-.04-.02c-.11 0-.23.05-.33.18-.16.18-.15.37-.07.59v.03c-.06.13-.1.27-.11.43-.2.1-.43.18-.66.24-.1.03-.2.03-.3.05a.13.13 0 0 1-.06-.03c.04-.13.08-.22.15-.36a1 1 0 0 0 .12-.55c0-.04.01-.07.04-.1.24-.27.44-.56.52-.92l.6-.77c.05-.05.07-.04.06.02v.16l.03.16c.01.07.04.13.08.19Z" fill="#ECA504"/><path d="M8.17 12.58a5.33 5.33 0 0 0 .2.29c.05.05.1.12.14.2.03.07.03.15.08.2l.03.08c0 .03 0 .06-.02.1a.35.35 0 0 0-.02.24c0 .05.05.12.06.18.02.13 0 .26-.07.38l-.3-.04s-.02 0-.02-.02l-.09-.44a.64.64 0 0 1 .06-.36c.1-.23-.04-.34-.17-.5-.08-.1-.12-.2-.17-.3a1.33 1.33 0 0 0-.25-.36.3.3 0 0 1-.08-.22L7.54 12l-.02-.02c-.01-.1-.07-.14-.17-.14l-.03.01v.03l-.04.22-.03.04-.01.04-.07.4-.08.18-.04-.04.03-.03.01-.03.06-.19.01-.04c0-.09-.01-.14.02-.22a.62.62 0 0 0 .05-.28c.01.02.03 0 .06-.02v-.02l.02-.2c0-.02 0-.03.02-.01l.84.9Z" fill="#F8770D"/><path d="m9.91 11.98-.03.05-.04.02c-.06 0-.12 0-.17.03-.17.08-.39-.05-.53-.01-.26.07-.51.05-.77-.08l-.01-.01a.04.04 0 0 1 .02-.07c.09-.04.15-.07.24-.08.29-.04.54-.06.74-.07.09 0 .17 0 .24.03.12.03.24.05.36.04.1 0 .1.02.03.08l-.05.04a.1.1 0 0 0-.03.03Z" fill="#E0DA09"/><path d="m8.57 14.25-.39.02-.16-.02v.01l-.02.02c-.06 0-.1 0-.15-.02a3.1 3.1 0 0 0-.38-.13c-.05-.01-.1 0-.17-.05a.87.87 0 0 1-.29-.46.69.69 0 0 0-.11-.22.04.04 0 0 1 0-.04v-.11l.25.5v.02a.02.02 0 0 0 .04 0c0-.02.02-.01.05 0 .06.04.12.08.16.13.07.08.11.07.1-.04 0-.13.03-.27.09-.42.13-.31.16-.51-.1-.79-.1-.1-.2-.13-.32-.08l.07-.4.01-.03.03-.03v-.01l.03-.22.01-.03h.03c.1-.01.16.03.17.13l.02.02V12c0 .08.03.15.09.22.1.1.2.21.25.35.05.1.1.22.16.3.14.17.27.28.18.5a.64.64 0 0 0-.06.37 180.86 180.86 0 0 1 .12.46l.3.04Z" fill="#CACB02"/><path d="M10.16 12.31a2.1 2.1 0 0 1-.52.92.14.14 0 0 0-.04.1 1 1 0 0 1-.12.55c-.07.14-.11.23-.15.36l-.12-.04h.01l.02-.02.12-.28a.9.9 0 0 0 .09-.45c0-.12.02-.2.06-.25.13-.15.24-.32.33-.5a.28.28 0 0 0 .12-.2s0-.02.02-.03l.18-.16Z" fill="#F14764"/><path d="M8.62 12.62a1.11 1.11 0 0 1-.06-.05v-.01a.03.03 0 0 1 .02-.03c.1-.02.18-.05.25-.08.2-.1.44-.1.62-.03.1.04.17.03.27.06h.01a.03.03 0 0 1 0 .04v.02c-.1.08-.26.13-.35.2-.12.09-.22.15-.31.18-.08.03-.14.02-.19-.04-.1-.11-.18-.2-.26-.26Z" fill="#E80501"/><path d="M6.9 13.25c-.02-.22.1-.33.19-.49l.08-.19c.12-.05.23-.03.33.08.25.28.22.48.09.8a.99.99 0 0 0-.08.4c0 .12-.04.13-.11.05a.7.7 0 0 0-.16-.13c-.02-.01-.04-.02-.05 0a.02.02 0 0 1-.02 0h-.01v-.01l-.26-.51Z" fill="#7BFE28"/><path d="M13 13.49a6.4 6.4 0 0 1-3.78 1.5A6.45 6.45 0 0 1 5 13.74l.83-.3c.22-.08.43-.18.62-.3.1-.07.15-.06.28-.07.02 0 .03-.01.03-.03a.55.55 0 0 1 .3-.32l.03.04c-.1.16-.21.27-.19.49v.14c.05.07.1.16.11.23.05.18.15.33.3.46.06.05.1.04.16.05a16.64 16.64 0 0 0 .53.15c.01 0 .02-.01.01-.02h.17c.02.05.05.07.08.07h.43c.34.02.53.03.58.02.17-.03.21-.06.12-.08.1-.02.2-.02.3-.05.23-.06.45-.14.66-.24l.47-.33c.14-.12.29-.27.44-.46a.2.2 0 0 0 .04-.09l.01-.1-.01-.03-.11-.1a1.25 1.25 0 0 1-.17-.38l.1.2.01.02h.03c.4-.05.27.43.57.41.1 0 .19.01.26.04.2.1.33.1.63.18.14.04.26.09.38.15Z" fill="#D20000"/><path d="M9.84 12.7c-.09.18-.2.35-.33.5-.04.05-.06.13-.06.25a.9.9 0 0 1-.1.45 2.5 2.5 0 0 0-.13.3c0-.01 0 0 0 0-.01 0-.01 0 0 0l.11.04.06.03c.1.02.05.05-.12.08l-.58-.02h-.43c-.03 0-.06-.02-.08-.06l.4-.02a.63.63 0 0 0 .06-.38l-.06-.18a.35.35 0 0 1 .02-.25.15.15 0 0 0 .02-.09.13.13 0 0 0-.03-.07c-.05-.06-.05-.14-.08-.2a.91.91 0 0 0-.14-.21 1.08 1.08 0 0 1-.2-.29c.06.07.12.13.2.19.09.07.15.13.18.18.05.07.1.16.13.26.02.07.05.12.09.14.17.1.32.06.5.02.05-.01.08-.04.08-.1 0 0 0-.02.03-.04a13.71 13.71 0 0 0 .36-.44.72.72 0 0 0 .1-.08Z" fill="#BD39D9"/><path d="m11.19 12.86.1.1.02.04-.01.1a.2.2 0 0 1-.04.09 3.11 3.11 0 0 1-.91.79c.01-.16.05-.3.11-.43v-.03c-.08-.22-.09-.4.07-.6.1-.12.21-.17.33-.17a.05.05 0 0 1 .04.02c.06.07.11.17.15.3 0 .02.02.03.03.03a.1.1 0 0 0 .06 0l.03-.04.02-.2Z" fill="#ADEB04"/><path d="M8.77 13.72c-.02-.05-.02-.09 0-.12 0-.02.03-.04.07-.06a.23.23 0 0 1 .1-.03c.12-.01.46-.05.41.15a.25.25 0 0 1-.16.18.07.07 0 0 0-.03.02c-.07.08-.14.05-.23.02-.07-.02-.13-.07-.16-.16Z" fill="#0E6DFD"/><defs><linearGradient id="a" x1="0" y1="9" x2="18" y2="9" gradientUnits="userSpaceOnUse"><stop offset=".5" stop-color="#FFEC00"/><stop offset=".5" stop-color="#FF35FF"/></linearGradient></defs></svg>