<!-- by TradingView --><svg width="18" height="18" viewBox="0 0 18 18" xmlns="http://www.w3.org/2000/svg"><path fill="#019BFF" d="M0 0h18v18H0z"/><path d="M5.57 6c.3.05.6.13.88.24.47.18.77.3.91.34 1.14.4 2.27.4 3.4 0l.9-.33c.28-.12.58-.2.88-.25h.55c-.5.75-1.3 1.34-2.19 1.46-.48.07-1.08.1-1.57-.02-.24-.06-.52-.23-.76-.32a3.38 3.38 0 0 0-1.4-.2c-.02 0-.03 0-.03.03.02.46.33.76.73.93.3.13.63.25 1 .36l.35.07c.3.03.6.12.84.14.24.02.63.07.96.13-.28.14-.47.36-.56.64v-.08c0-.02 0-.04-.02-.05-.04-.02-.07-.02-.1 0-.06.04-.1.1-.1.18-.14-.44-.5-.75-.96-.78h-.42c-.4.04-.71.35-.86.7a.63.63 0 0 0-.02.26.29.29 0 0 0-.12.05c-.07-.47-.25-.8-.71-.98.25 0 .47.04.68.16.06.03.11.01.15-.05l.05-.09c.03-.05.02-.1-.05-.11-.17-.06-.32-.11-.44-.17a1.49 1.49 0 0 0-.44-.14l-.54-.1a5.46 5.46 0 0 1-1.12-.38c-.12-.05-.36-.2-.39-.37-.05-.27-.17-1-.46-.9a1.3 1.3 0 0 0-.44.26c-.27.3-.36.64-.3 1.03 0 .02.02.03.03.04l.02.04.03.49c.02.22.04.48.03.8 0 .24.06.49.17.73-.38-.21-.75-.46-1.1-.73 0-.06 0-.12-.03-.18V8.2c.14-1.08.78-1.98 1.88-2.21h.69Z" fill="#D40202"/><path d="M13.24 6c-.03.28-.15.52-.37.72-.52.5-1.03.85-1.7.95l-1.24.18c-.18.03-.59.1-.44.38l.04.04c.17.06.29.09.36.1.44.03.9.08 1.34.14a.5.5 0 0 0-.21.07 8.19 8.19 0 0 0-.96-.13c-.25-.02-.55-.1-.84-.14a1.8 1.8 0 0 1-.34-.07c-.38-.11-.72-.23-1.01-.36-.4-.17-.71-.47-.73-.93 0-.02 0-.04.03-.04.49-.03.95.04 1.4.21.24.09.52.26.76.32.5.11 1.1.09 1.57.02.9-.12 1.69-.7 2.2-1.46h.14Z" fill="#930101"/><path d="M13.27 6c.47.1.86.32 1.17.68-.02.18.02.34.12.48.06.08.1.15.12.2.09.27.21.55.23.8.05.68-.17 1.15-.5 1.74-.28.54-.84.98-1.35 1.29-.4.24-.93.5-1.59.77-.55.22-1.16.2-1.65.23-.72.04-1.37.02-2.04-.05-.46-.05-.91-.03-1.37-.08a26.6 26.6 0 0 0-.4-.04 6.15 6.15 0 0 1-1.65-.91l-.25-.33c-.01-.02-.01-.03.01-.03.3-.03.56.17.81.34.61.43 1.3.37 2.04.41.44.03.93-.02 1.31-.1.65-.12.39-.57.7-.94.38.04.73-.03 1.03-.23.1-.05.1-.11 0-.16l-.05-.03a.25.25 0 0 0-.28 0 .85.85 0 0 1-.8.04c-.1-.05-.2-.15-.3-.28a.12.12 0 0 1-.03-.09l.02-.04.03-.03c.04-.02.09-.01.16.03.48.05.97.05 1.47 0l.01-.4c0-.08.04-.14.1-.18.03-.02.06-.02.1 0 .02.01.02.03.02.05v.08l-.08 1.14v.02a.04.04 0 0 0 .04.02l.45-.02c.02 0 .03-.01.04-.04l.05-.78c.02-.29.08-.48.32-.63.32-.2.67.02.76.36.02.08.03.2 0 .39l-.06.62c0 .03.02.05.05.05l.33-.02c.02 0 .03 0 .04-.02a10.42 10.42 0 0 0 .12-.73c.1-.8-.57-1.22-1.3-1.07-.44-.06-.89-.1-1.33-.15-.07 0-.2-.03-.36-.1a.07.07 0 0 1-.04-.03c-.15-.27.26-.35.44-.38l1.24-.18c.67-.1 1.18-.45 1.7-.95.22-.2.34-.44.37-.72h.03Z" fill="#72090B"/><path d="M7.15 8.52a1.47 1.47 0 0 0-.8-.02.98.98 0 0 0-.3.16l-.25.02c-.09 0-.17 0-.23-.04-.12-.05-.22-.1-.33-.17a2.08 2.08 0 0 0-.42-.18c.03-.08.02-.14-.04-.18-.1-.06-.3-.03-.42-.03-.03 0-.04-.01-.05-.04v-.02a.03.03 0 0 1 .02-.04h.02l.42-.02c.05 0 .07-.03.08-.08v-.03c0-.06-.03-.1-.1-.09l-.33.03c-.02 0-.04-.01-.04-.03l-.02-.08a.07.07 0 0 0-.05-.05c-.34-.13-.34.42-.38.6a10.69 10.69 0 0 0-.05-.53.08.08 0 0 1-.03-.04c-.06-.4.03-.74.3-1.03.1-.11.32-.21.43-.25.3-.11.42.62.47.9.03.16.27.31.4.36a5.46 5.46 0 0 0 1.65.48c.11.01.26.06.44.14.12.06.27.11.44.17.07.02.08.06.05.11l-.05.1c-.04.05-.09.07-.15.04-.2-.12-.43-.17-.68-.16Z" fill="#FE9191"/><path d="m14.92 9.03-.12.42c-.1.35-.3.67-.58.96l-.52.53c-.13.13-.31.21-.44.31-.12.1-.23.17-.34.22l-.6.3c-.2.1-.4.2-.6.26a9.9 9.9 0 0 0-.62.22c-.14.05-.29.06-.41.09-.23.06-.54.08-.75.12a11.04 11.04 0 0 1-1.34.03c-.2-.04-.43-.1-.65-.1A6.12 6.12 0 0 1 6 12.01l.41.04c.46.05.91.03 1.37.08.67.07 1.32.1 2.04.05.5-.04 1.1-.01 1.65-.23.66-.27 1.19-.53 1.6-.77.5-.31 1.06-.75 1.35-1.29.32-.59.54-1.06.49-1.75-.02-.24-.14-.52-.23-.79a.75.75 0 0 0-.12-.2.64.64 0 0 1-.12-.48c.13.14.22.29.26.43.19.72.43 1.2.22 1.92Z" fill="#99393D"/><path d="M4.82 8.3h-.53v.27a.03.03 0 0 0 0 .03.03.03 0 0 0 .03 0c.26-.16.6-.14.85.07.3.23.44.55.42.93-.02.44-.35.8-.8.7a.95.95 0 0 1-.66-.54 1.69 1.69 0 0 1-.17-.73c0-.32 0-.58-.03-.8.04-.18.04-.73.38-.6.03.01.04.03.05.05l.02.08c0 .02.02.03.04.03l.33-.03c.07 0 .1.03.1.1v.02c0 .05-.03.07-.08.08l-.42.02a.04.04 0 0 0-.03.02v.04c0 .03.01.04.04.04.11 0 .33-.03.42.03.06.04.07.1.04.18Z" fill="#FEFEFE"/><path d="M14.04 8.21c.02.1.07.16.1.15.04 0 .05-.09.03-.18-.02-.1-.07-.16-.1-.15-.04 0-.05.09-.03.18Z" fill="#D0D9E7"/><path d="M4.82 8.3c.15.04.29.1.42.17.1.07.22.12.33.17.07.03.14.05.23.04l.25-.02c-.18.2-.29.38-.33.52-.05.2-.02.43.1.67.25.5.78.63 1.32.57.21-.03.4-.1.54-.22a.08.08 0 0 0-.02-.13l-.15-.06a.21.21 0 0 0-.2 0c-.4.23-.75.14-1.05-.24a.1.1 0 0 1 .02-.14 82.23 82.23 0 0 0 1.48.04c.08 0 .11-.05.1-.17a.29.29 0 0 1 .12-.05c-.01.14 0 .26.05.36.18.39.5.6.95.65-.31.37-.05.82-.7.94-.38.08-.87.13-1.3.1-.76-.04-1.44.02-2.05-.4-.25-.18-.52-.38-.81-.35-.02 0-.02.01-.01.03l.25.33a3.25 3.25 0 0 1-.62-.62c-.12-.2-.28-.38-.38-.55a2.88 2.88 0 0 1-.33-.91c.35.27.72.52 1.1.73.15.3.37.47.66.53.45.1.78-.25.8-.69.02-.38-.12-.7-.42-.94a.74.74 0 0 0-.86-.06.03.03 0 0 1-.02-.01V8.3h.53Z" fill="#AB0606"/><path d="M7.15 8.52c.46.18.64.51.7.98.02.12-.01.17-.09.17a82.22 82.22 0 0 1-1.48-.04.1.1 0 0 0-.04.1c0 .01 0 .03.02.04.3.38.66.47 1.05.25a.21.21 0 0 1 .2-.01l.15.06a.08.08 0 0 1 .05.06.08.08 0 0 1-.03.07c-.15.12-.33.2-.54.22-.54.06-1.07-.08-1.32-.57a.92.92 0 0 1-.1-.67c.04-.14.15-.32.33-.52a.98.98 0 0 1 .3-.16c.24-.07.51-.06.8.02ZM10.24 9.27v.4c-.5-.03-1-.03-1.48 0-.07-.04-.12-.05-.16-.03a.09.09 0 0 0-.03.03.1.1 0 0 0-.02.04v.05l.03.04c.1.13.2.23.3.28.24.13.58.1.8-.04.1-.06.18-.06.28 0l.05.03c.1.05.1.1 0 .16-.3.2-.65.27-1.03.23a1.1 1.1 0 0 1-.95-.65.67.67 0 0 1-.05-.36.63.63 0 0 1 .02-.27c.15-.34.47-.65.86-.68.17-.01.32-.02.42-.01.46.03.82.34.96.78ZM10.46 9.22c.09-.28.28-.5.56-.64a.5.5 0 0 1 .2-.07c.73-.15 1.4.26 1.3 1.07a10.34 10.34 0 0 1-.12.73.07.07 0 0 1-.04.02l-.33.02c-.03 0-.05-.02-.05-.05l.07-.62c.02-.18.01-.31 0-.39-.1-.34-.45-.57-.77-.36-.24.15-.3.34-.32.63l-.05.78c0 .03-.02.04-.04.04l-.45.02a.04.04 0 0 1-.04-.02v-.02l.08-1.14Z" fill="#FEFEFE"/><path d="M13.31 9.94a.07.07 0 0 0 .02.06.06.06 0 0 0 .06.02l.48-.12c.04-.01.05 0 .03.04l-.06.1a.18.18 0 0 1-.13.08l-.98.18c-.1.02-.12-.01-.06-.09a13.08 13.08 0 0 0 .89-1.36.04.04 0 0 0-.04-.02l-.68.03c-.07 0-.1-.03-.1-.1v-.1c0-.08.03-.11.1-.11H14a.06.06 0 0 1 .05.05v.03c-.18.4-.4.81-.7 1.2a.5.5 0 0 0-.04.1Z" fill="#D0D9E7"/><path d="M4.89 9.97c-.33.08-.57-.23-.59-.52a5.02 5.02 0 0 1 0-.5l.03-.03c.33-.16.58-.08.74.26.1.22.13.7-.18.79ZM9.12 8.87c.26 0 .48.2.57.43a.05.05 0 0 1-.02.07h-.02a18.57 18.57 0 0 1-1.1-.02.05.05 0 0 1-.01-.04c.09-.24.31-.44.58-.44ZM6.21 9.38v-.01c0-.07.01-.13.04-.19.02-.05.06-.1.11-.15a.6.6 0 0 1 .38-.13h.01c.14 0 .27.05.37.14.1.09.16.21.15.33v.01H6.2Z" fill="#D40202"/><path d="M10.23 9.68c-.5.04-.98.04-1.47-.01.49-.03.98-.03 1.47 0Z" fill="#99393D"/></svg>