<!-- by TradingView --><svg width="18" height="18" viewBox="0 0 18 18" xmlns="http://www.w3.org/2000/svg"><path fill="#181B1E" d="M0 0h18v18H0z"/><path fill-rule="evenodd" d="M9.88 9a.78.78 0 0 1-.78-.77c0-.42.35-.77.78-.77.43 0 .79.35.79.77 0 .43-.36.77-.79.77Zm0-.38a.39.39 0 0 1-.39-.39c0-.21.18-.38.4-.38.2 0 .38.17.38.38s-.17.39-.39.39Z" fill="#4BF755"/><path d="M6.74 9.38c0 1.07.88 1.93 1.97 1.93 1.08 0 1.96-.86 1.96-1.93 0-.43-.15-.83-.4-1.15 0 .16-.1.3-.23.35.15.24.23.51.23.8 0 .85-.7 1.54-1.56 1.54-.87 0-1.57-.69-1.57-1.54 0-.85.7-1.53 1.57-1.53.3 0 .58.08.81.22a.4.4 0 0 1 .36-.22 1.98 1.98 0 0 0-1.17-.39c-1.09 0-1.97.86-1.97 1.92Z" fill="#4BF755"/><path fill-rule="evenodd" d="M13.22 9.77a.78.78 0 0 1-.79-.77c0-.42.35-.77.79-.77.43 0 .78.35.78.77 0 .42-.35.77-.78.77Zm0-.39a.39.39 0 0 1-.4-.38c0-.21.18-.38.4-.38.21 0 .39.17.39.38s-.18.38-.4.38ZM9.1 5.54a.78.78 0 0 1-.79-.77c0-.43.35-.77.79-.77.43 0 .78.34.78.77 0 .42-.35.77-.78.77Zm0-.39a.39.39 0 0 1-.4-.38c0-.21.18-.39.4-.39.21 0 .39.18.39.39 0 .21-.18.38-.4.38Z" fill="#4BF755"/><path fill="#4BF755" d="M9 6.7h-.39v1.14H9zM11.06 9v.38h1.18V9z"/><path d="M11.45 9.38c0 1.5-1.23 2.7-2.74 2.7a2.72 2.72 0 0 1-2.75-2.7C5.96 7.9 7.2 6.7 8.71 6.7v.39a2.33 2.33 0 0 0-2.36 2.3c0 1.28 1.06 2.31 2.36 2.31 1.3 0 2.35-1.03 2.35-2.3h.39Z" fill="#4BF755"/><path d="m12.45 9 .02.38c0 2.04-1.69 3.7-3.76 3.7a3.73 3.73 0 0 1-3.77-3.7A3.73 3.73 0 0 1 9 5.7v.37h-.3a3.36 3.36 0 0 0-3.38 3.31 3.36 3.36 0 0 0 3.39 3.33A3.36 3.36 0 0 0 12.07 9h.38Z" fill="#4BF755"/><path d="M13.41 9.38c0 2.55-2.1 4.62-4.7 4.62S4 11.93 4 9.38c0-2.54 2.1-4.61 4.7-4.61v.38a4.27 4.27 0 0 0-4.3 4.23 4.27 4.27 0 0 0 4.3 4.24c2.39 0 4.32-1.9 4.32-4.24h.4Z" fill="#4BF755"/></svg>