<!-- by TradingView --><svg width="18" height="18" viewBox="0 0 18 18" xmlns="http://www.w3.org/2000/svg"><path fill="#1A62DB" d="M0 0h18v18H0z"/><path fill-rule="evenodd" d="M13.54 9a4.53 4.53 0 1 1-9.07-.02 4.53 4.53 0 0 1 9.07.02ZM14 9A5 5 0 1 1 4 9a5 5 0 0 1 10 0Zm-3.22-1.28a.06.06 0 0 0-.07-.05l-.92.2a.54.54 0 0 0-.36.25l-1.19 1.9c-.24.4-.48.74-.72 1.04-.16.2-.35.16-.47-.05L6.02 9.02c-.1-.18-.38-.1-.52-.05-.06.02-.1 0-.1-.07v-.15c0-.07.02-.12.1-.13l.74-.18a.24.24 0 0 1 .27.12l.75 1.45a.1.1 0 0 0 .07.05.1.1 0 0 0 .09-.02.89.89 0 0 0 .2-.21 879.63 879.63 0 0 1 1.34-2.06c.15-.22.33-.5.6-.54a27.32 27.32 0 0 0 1.06-.18.07.07 0 0 0 0-.06l-.01-.09a.92.92 0 0 1-.04-.38.11.11 0 0 1 .1-.08h.04c.44.12.88.28 1.34.46.07.03.12.07.15.13a.07.07 0 0 1 0 .08 1.4 1.4 0 0 1-.2.2 62.69 62.69 0 0 0-.98.83.07.07 0 0 1-.05 0c-.14-.04-.16-.18-.18-.31l-.01-.11Zm-1.2 1.66h-.26c-.04 0-.07-.03-.08-.08v-.02a.16.16 0 0 1 .14-.12c.35-.04.63-.2.83-.5a.3.3 0 0 1 .14-.1.06.06 0 0 1 .06 0 .06.06 0 0 1 .02.06c0 .13-.04.28-.11.44a.08.08 0 0 0 .07.1h.51c.06 0 .08.03.07.08v.06a.1.1 0 0 1-.1.08h-.6a.1.1 0 0 0-.1.06l-.35 1.17a.2.2 0 0 0 .04.2c.17.2.43.07.63-.04l.08-.04a.12.12 0 0 1 .06-.02.1.1 0 0 1 .06.03c.02.01.02.03.02.06a.05.05 0 0 1-.03.03c-.25.18-.5.3-.75.35-.19.05-.67-.02-.69-.28 0-.07 0-.15.03-.22l.37-1.22c.02-.05 0-.08-.05-.08Z" fill="#fff"/></svg>