<!-- by TradingView --><svg width="18" height="18" viewBox="0 0 18 18" xmlns="http://www.w3.org/2000/svg"><path fill="#57AD47" d="M0 0h18v18H0z"/><path fill-rule="evenodd" d="M11.38 8.86c0 1.5-1.18 2.7-2.64 2.7a2.68 2.68 0 0 1-2.65-2.7c0-1.49 1.18-2.7 2.65-2.7a2.68 2.68 0 0 1 2.64 2.7Zm-.78 3.89c-.56.28-1.2.44-1.86.44A4.28 4.28 0 0 1 4.5 8.86c0-2.38 1.9-4.32 4.24-4.32a4.36 4.36 0 0 1 3.02 7.36c.18.42.56.94 1.21 1.02L11.91 14c-.35-.12-.9-.66-1.3-1.25Z" fill="#fff"/><path d="M7.06 7.14a2.45 2.45 0 0 0 1.67 4.16c.73 0 1.38-.33 1.82-.86-.42.37-.96.59-1.55.59a2.4 2.4 0 0 1-2.38-2.44c0-.5.14-.96.4-1.34 0-.04.02-.08.04-.11ZM12.98 10.23c.33-.6.52-1.3.52-2.04A4.15 4.15 0 0 0 9.4 4c-.73 0-1.4.2-2 .53.46-.17.95-.26 1.47-.26 2.4 0 4.36 2 4.36 4.46 0 .52-.08 1.03-.25 1.5ZM12.18 11.57l-.14.27c.11.32.67.94.93.94v-.4c-.21-.11-.62-.59-.8-.81Z" fill="#3F6532"/></svg>