<!-- by TradingView --><svg width="18" height="18" viewBox="0 0 18 18" xmlns="http://www.w3.org/2000/svg"><path fill="url(#agwrgtzeo)" d="M0 0h18v18H0z"/><path d="M10 5c-.4 2.4-2 3.6-4 4 2 .8 3.6 2 4 4 .4-2 2-3.6 4-4-2-.4-3.6-1.6-4-4ZM5.5 4c-.15.9-.75 1.35-1.5 1.5.75.3 1.35.75 1.5 1.5.15-.75.75-1.35 1.5-1.5-.75-.15-1.35-.6-1.5-1.5ZM6.5 11c-.15.9-.75 1.35-1.5 1.5.75.3 1.35.75 1.5 1.5.15-.75.75-1.35 1.5-1.5-.75-.15-1.35-.6-1.5-1.5Z" fill="#fff"/><defs><linearGradient id="agwrgtzeo" x1="15.43" y1="4.5" x2="4.02" y2="16.71" gradientUnits="userSpaceOnUse"><stop stop-color="#EB5968"/><stop offset="1" stop-color="#AB3AEB"/></linearGradient></defs></svg>