<!-- by TradingView --><svg width="18" height="18" viewBox="0 0 18 18" xmlns="http://www.w3.org/2000/svg"><path fill="#F0F3FA" d="M0 0h18v18H0z"/><path d="M4.01 8.9C4.13 6.91 5.5 4.78 7.6 4.2a5.22 5.22 0 0 1 2.13-.14c.26.04.45.1.73.14.02 0 .04 0 .07.02.07.04.07.05-.01.05a8.93 8.93 0 0 1-.53-.06c-.06.01-.06.03 0 .05l.57.2c1.93.63 3.55 2.7 3.44 4.75-.12 2.33-1.96 4.63-4.48 4.78-2.04.13-4-.48-4.93-2.4v-.02h.01l.07.05h.03l.13-.14a.02.02 0 0 1 .03 0l.19.2.01-.01v-.01c-.07-.13-.18-.21-.25-.33-.55-.91-.86-1.23-.79-2.42Z" fill="#0FC1E4"/><path d="M9.5 5.17a.07.07 0 0 0-.04.07c0 .02 0 .02-.02.02a.9.9 0 0 0-.1-.03c-.13-.02-.13-.04 0-.06a5.32 5.32 0 0 1 .38-.06v.01l-.01.01-.2.03H9.5ZM11.53 5.99l-.41-.14a.05.05 0 0 0-.05.01.23.23 0 0 1-.15.04.05.05 0 0 0-.04.01.05.05 0 0 0-.02.04l-.02.22a.48.48 0 0 0-.08-.14c-.06-.07-.04-.15.05-.2a.48.48 0 0 1 .2-.05l.04-.01.01-.02h.02c.07.01.13 0 .18-.03l.04-.02c.1 0 .15.05.16.14 0 .01 0 .02-.02.02a.01.01 0 0 0-.01.02l.1.1Z" fill="#34897B"/><path d="M11.53 5.99c.1.12.19.26.27.4.09.15.16.26.22.33a7.84 7.84 0 0 0 .53.58v.19c-.02.1-.11.19-.17.25a.04.04 0 0 1-.05 0 1.74 1.74 0 0 0-.6-.5l-.07-.08a.1.1 0 0 0-.03-.03c-.12-.06-.2-.1-.24-.23a2.55 2.55 0 0 0-.07-.16c-.03-.07-.08-.1-.15-.11-.12 0-.18-.04-.18-.15a.5.5 0 0 0-.15-.31l.02-.22a.05.05 0 0 1 .02-.04.05.05 0 0 1 .04 0c.06 0 .1-.02.15-.05a.05.05 0 0 1 .05 0l.4.13Z" fill="#DFB885"/><path d="M11.16 7.12c-.04-.04-.12-.05-.16-.1a5.31 5.31 0 0 1-.21-.27.4.4 0 0 1-.07-.17c0-.08.01-.09.06-.01l.04.08.03.02c.11.04.2.1.28.22l.01.04c0 .12.05.14.09.24l.02.05c0 .1-.03.1-.08.02v-.08l-.01-.04Z" fill="#4E6C28"/><path d="M6.78 7.5a.8.8 0 0 1-1.06.51.75.75 0 0 1-.29-1.2.9.9 0 0 1 .48-.25c.59-.06.98.4.87.95Z" fill="#F2792D"/><path d="M5.94 7.66a.03.03 0 0 0-.01-.02.03.03 0 0 0-.02-.01h-.03l-.01.01-.02.07-.03.03h-.03c-.01 0-.02-.01-.02-.03v-.1l-.01-.02-.1-.04c-.04-.02-.04-.04 0-.07l.08-.03c.02 0 .03-.02.03-.03l.08-.35v-.02a.29.29 0 0 0-.08-.06c-.02-.01-.02-.03 0-.04l.02-.01a.04.04 0 0 1 .04 0c.08.03.13.01.15-.06 0-.03.02-.04.05-.04l.02.01v.13h.01a.01.01 0 0 0 .01 0h.02a.04.04 0 0 0 .02-.03l.05-.08h.04V7c.01.02.02.03.04.03.1.06.16.17.07.28a.05.05 0 0 0 0 .04c.03.14.06.25-.12.3-.01.01-.06.01-.14 0-.02 0-.03.01-.03.03l-.03.07v.02h-.04a.03.03 0 0 1-.03-.01.03.03 0 0 1 0-.02l.02-.08Z" fill="#fff"/><path d="m6 7.11.02-.02h.06l.04.03.04.02.03.03v.04c0 .02-.03.04-.06.04H6.01a.03.03 0 0 1-.02-.02.03.03 0 0 1 0-.02L6 7.1ZM5.94 7.37a.04.04 0 0 1 .02-.02.04.04 0 0 1 .03 0H6c.04 0 .09.03.12.05.03.02.04.05.04.07 0 .03-.03.05-.07.06h-.15a.04.04 0 0 1-.03-.03.04.04 0 0 1 0-.02l.02-.1Z" fill="#F2792D"/><path d="M11.46 7.68a.46.46 0 0 1-.06-.1c0-.01 0-.02.02 0l.06.07h.04c.02 0 .04-.02.06-.06v-.01h.04c0 .06.01.1.03.12l.01.03v.02h-.04a.58.58 0 0 0-.09-.02.1.1 0 0 1-.07-.05ZM11.1 7.85c0-.05.02-.12.06-.2.01-.02.03-.03.06-.02.01 0 .02 0 .02.03v.03a.6.6 0 0 0-.1.2c-.01.04-.04.07-.1.1a.02.02 0 0 1-.02-.01v-.04a.14.14 0 0 0 .07-.09Z" fill="#34897B"/><path d="M11.52 7.86h.01c.01-.02.02-.02.04-.02.03.02.08.03.14.02l.03.02c.06.1.13.25.04.36v.01a.02.02 0 0 1-.03 0l-.31-.3-.01-.01a.03.03 0 0 1 0-.03l.02-.01a.3.3 0 0 1 .04-.02.1.1 0 0 0 .03-.02Z" fill="#4E6C28"/><path d="m11.42 8.82-.23.09c-.02 0-.02.02 0 .03l.01.01h.07c.08-.02.1 0 .03.05l-.15.1a.06.06 0 0 0-.03.03l-.1.3a.04.04 0 0 1-.03.03.15.15 0 0 0-.07.04.7.7 0 0 1-.05.06c-.07.05-.12.06-.15.03.08-.06.17-.1.23-.18a.5.5 0 0 0 .09-.22c.03-.08.02-.14-.03-.2a.04.04 0 0 1-.01-.03c.01-.05 0-.1-.02-.13a.03.03 0 0 0-.04-.01c-.05.01-.09 0-.12-.01a.05.05 0 0 1-.02-.04.58.58 0 0 0-.07-.2.06.06 0 0 1 0-.06l.01-.02.03-.01.1-.03c.01 0 .02-.02.01-.03l-.03-.12a.06.06 0 0 0-.03-.04c-.04-.02-.06-.06-.06-.1l-.02-.02h-.06l-.03.01-.19.19h-.03l-.17-.02-.03-.01c-.02 0-.03 0-.03.02v.03c0 .02 0 .03.02.03l.04.03c.06.05.06.07-.02.07-.02 0-.03.02-.05.05a.06.06 0 0 0 .03.08h.03c.03 0 .07.03.1.07l-.02.47c.02.03.03.05.02.08l-.03.02c-.1.01-.15.06-.18.13-.08.2-.18.36-.3.5-.06.05-.12.13-.2.15a2.67 2.67 0 0 1-.35.09.09.09 0 0 1-.07-.09l.01-.14.1-.22c.01-.02.03-.02.05-.02h.1l.03-.02a.46.46 0 0 0 .09-.2c0-.02 0-.03-.02-.04a.1.1 0 0 1-.04-.08c0-.06 0-.11.03-.17.03-.06 0-.14-.05-.26-.08-.15-.2-.28-.36-.38-.06-.04-.08-.1-.08-.15l.02-.04c.08-.08.17-.1.28-.07l.05.04h.04c.12 0 .18.08.3.06.03 0 .05-.02.05-.05 0-.02-.01-.03-.03-.03-.02 0-.02-.01-.02-.02a.46.46 0 0 1 .15-.2.06.06 0 0 0 .02-.05c0-.02.02-.04.06-.04.02 0 .03 0 .04-.02.15-.12.26-.06.4.03l.02.02v.02a.01.01 0 0 1 0 .01.01.01 0 0 1-.02 0 1.47 1.47 0 0 0-.16-.08c-.15-.06-.18.04-.3.07a.13.13 0 0 0-.07.07l-.04.08c-.02.03-.01.03.02.02.1-.06.2-.07.3-.03.09.03.15.04.19-.05.01-.03.03-.04.06-.04.1 0 .17.03.22.07h.04c.07 0 .19.02.24.07.05.05.11.12.19.16l.03.03v.04c0 .05 0 .09.04.1.01.02.02.01.03 0l.08-.12c.06-.1.19-.05.19.07l.01.03h.02v.04l-.06.11c-.03.04-.01.06.03.06h.04a.1.1 0 0 0 .1-.05.3.3 0 0 0 .03-.1v-.03h.02a.6.6 0 0 0 .22-.2l.02-.01a.04.04 0 0 1 .04 0v.02c.02.06.01.11-.02.17a1.38 1.38 0 0 1-.2.32h-.02l-.01-.01v-.01a.29.29 0 0 0 .05-.2c0-.02-.01-.02-.03 0l-.1.12-.03.02-.19.06Z" fill="#63783C"/><path d="M9.41 8.21V8.2a1.4 1.4 0 0 1 .12-.14h.02v.01l-.01.04a.85.85 0 0 1-.08.12h-.01l-.04-.02Z" fill="#4E6C28"/><path d="M11.04 9.19c0-.07-.04-.1-.1-.1l-.03-.02-.01-.01a.3.3 0 0 0-.07-.1.05.05 0 0 1-.02-.03v-.07l-.04-.02c-.02 0-.04.02-.07.06h-.02c-.01-.07.01-.13.07-.17a.03.03 0 0 0 .01-.04v-.01l-.12-.12a.04.04 0 0 0-.04 0 .19.19 0 0 1-.18-.09l-.02-.08-.02-.01-.01-.01a.3.3 0 0 1-.1-.05l.16.03.03-.01.19-.19h.08l.03.01c0 .04.02.08.06.1l.03.04.03.12c0 .01 0 .02-.02.03l-.1.03a.06.06 0 0 0-.03.03.06.06 0 0 0 0 .05c.04.08.06.14.07.21l.02.04c.03.02.07.02.12 0a.03.03 0 0 1 .04.02c.02.04.03.08.02.13V9c.06.05.07.11.04.19Z" fill="#8A9A4F"/><path d="M7.76 9.64a.4.4 0 0 1 0-.13v-.03l-.04-.1v-.03l.08-.2v-.02h-.01c-.06-.03-.07-.06-.05-.09A.5.5 0 0 0 8 8.77a.1.1 0 0 0 .04-.07.04.04 0 0 0-.02-.04.3.3 0 0 0-.14-.04.1.1 0 0 1-.06-.02.05.05 0 0 1-.02-.06c0-.01 0-.02.02-.03h.12c.02 0 .02-.02 0-.03a.5.5 0 0 0-.16-.14.13.13 0 0 1-.04-.04c-.01-.01 0-.02.01-.02.05 0 .14.05.23.1h.04c.14 0 .26.01.35.04.05.07.13.07.24 0h.04c.01.02.02.02.02 0v-.2c.04-.04.11-.04.22.03.02 0 .02.02.02.03 0 .09 0 .16.02.22a.07.07 0 0 1-.03.07l-.02.01c-.06.02-.09 0-.09-.03 0-.02 0-.03-.02-.02-.02 0-.04.01-.06.04a.7.7 0 0 0-.05.13l-.03.03a.4.4 0 0 1-.13.06.04.04 0 0 0-.02.02l-.04.11-.03.03a.27.27 0 0 0-.11.04l-.01.02v.02c0 .02 0 .05.03.07v.03H8.3l-.09-.07h-.03c-.11 0-.17.07-.16.21a.03.03 0 0 0 .02.03.04.04 0 0 0 .04 0h.04c.02 0 .03 0 .03.02.02.07.07.13.04.22a.72.72 0 0 0-.04.17l-.01.04a.3.3 0 0 0-.09.1c0 .02-.01.02-.03.02-.02 0-.04-.02-.05-.06 0-.01 0-.02.02-.02l.04-.02v-.04a.16.16 0 0 0-.09-.06c-.01 0-.02 0-.02.02v.07h-.04a4.48 4.48 0 0 0-.12-.12Z" fill="#4E6C28"/><path d="M8.67 8.23v.19c0 .02 0 .02-.02 0H8.6c-.11.07-.2.07-.24 0 .16-.02.26-.09.3-.2ZM7.78 8.34a.5.5 0 0 1 .17.14v.03H7.9c-.05-.04-.1-.03-.14.03l-.03.02a.56.56 0 0 0-.2.07l-.05.03-.15.1a.05.05 0 0 1-.04.01.41.41 0 0 1-.23-.13l.26-.12-.01-.05v-.03c.09-.07.2-.13.32-.16a.1.1 0 0 1 .03 0 .1.1 0 0 1 .03 0c.01 0 .02 0 .03.02l.01.02.05.02Z" fill="#D4C194"/><path d="M10.26 8.32a.3.3 0 0 0 .1.05h.02l.02.02c0 .03 0 .06.02.08.05.06.1.09.18.08l.04.01.11.12a.03.03 0 0 1 .01.02.03.03 0 0 1 0 .03c-.07.04-.1.1-.08.16 0 .02.01.02.02 0 .03-.03.05-.05.07-.05.01 0 .02 0 .03.02l.01.07c0 .01 0 .02.02.03a.3.3 0 0 1 .07.1l.01.01.02.01c.07 0 .1.04.1.1a.5.5 0 0 1-.08.23c-.06.08-.15.12-.23.18-.04.04-.08.05-.11.02l-.01-.02-.02-.42h-.03c0 .04-.02.06-.03.08l-.01.02a.04.04 0 0 1-.05-.02.68.68 0 0 0-.07-.1c-.07-.08 0-.16.03-.23v-.05l-.07-.18c-.03-.04-.07-.06-.1-.06a.06.06 0 0 1-.05-.03.06.06 0 0 1 0-.06c0-.03.02-.05.04-.05.08 0 .08-.02.02-.07a.4.4 0 0 0-.04-.03.03.03 0 0 1-.02-.03v-.03c0-.02 0-.03.03-.02h.03Z" fill="#E9DEBA"/><path d="m7.32 8.52-.26.12a.18.18 0 0 0-.1.08l.01.03.09.03v.04h-.04c-.16-.02-.19.14-.19.26a110.24 110.24 0 0 1 .07.05c.02.02.03.03.03.05 0 .02 0 .02-.02.02l-.1-.02a.05.05 0 0 0-.04.01.04.04 0 0 0-.02.03v.13h-.01c-.1 0-.14.04-.14.1a9.33 9.33 0 0 0 .03.28c.1.1.13.21.17.34l.06.13c.04.06.04.14.01.22.02-.07 0-.12-.04-.15a4.76 4.76 0 0 1-.4-.38c-.02-.03-.03-.07-.02-.12 0-.01 0-.02.03-.02h.13a.02.02 0 0 0 .02-.02v-.02c.01-.01 0-.02-.01-.02l-.05-.01.04-.02v-.04a.35.35 0 0 1 .04-.3.97.97 0 0 0 .1-.15l.11-.4a.3.3 0 0 1 .1-.17.68.68 0 0 1 .38-.11c.02 0 .02.01.02.03Z" fill="#63783C"/><path d="M7.9 8.51h-.08a.04.04 0 0 0-.02.03c0 .03 0 .05.02.06a.1.1 0 0 0 .05.02c.06 0 .1.02.15.04a.04.04 0 0 1 .02.04.1.1 0 0 1-.04.07c-.17.1-.3.14-.41.13-.15 0-.29 0-.42.02a.1.1 0 0 0-.04-.03l-.11-.07h.04v-.04l-.09-.03c-.02 0-.02-.02-.01-.03a.18.18 0 0 1 .1-.08c.07.07.14.11.23.13h.04l.15-.1c.03.02.07.04.1.03.02 0 .03 0 .03-.02-.01-.03-.04-.05-.08-.05a.56.56 0 0 1 .2-.07s.02 0 .03-.02c.04-.06.1-.07.14-.03Z" fill="#B2B381"/><path d="M7.53 8.63c.04 0 .07.02.08.05 0 .02 0 .02-.02.02a.17.17 0 0 1-.11-.04l.05-.03Z" fill="#8A9A4F"/><path d="M10.72 9.6c.03.02.08.01.15-.04l.05-.06a.15.15 0 0 1 .07-.04.04.04 0 0 0 .02-.02l.11-.3c0-.02.02-.03.03-.04l.15-.1c.06-.05.05-.07-.03-.05h-.07l-.02-.01.01-.03.23-.09c.01.11-.05.12-.1.2-.07.06-.07.14-.03.22a6.32 6.32 0 0 1 .12.23c.1.03.16.06.2.1.06.07.04.1-.05.09-.04 0-.1 0-.13.02l-.33.14-.07-.33c0-.01 0-.02-.02 0a.95.95 0 0 1-.5.23.03.03 0 0 1-.03-.04v-.3h-.04c-.1.2-.2.39-.24.62l-.04-.02a.03.03 0 0 0-.04 0 .03.03 0 0 0 0 .03c0 .03.02.05.03.07a.2.2 0 0 1-.09.06h-.02l-.01-.02a.23.23 0 0 1-.06-.1.05.05 0 0 1 0-.05l.1-.12a.26.26 0 0 0 .05-.14c0-.1.03-.21.08-.34l.03-.03.1-.06c.02 0 .03-.02.03-.03.02-.04 0-.07-.03-.09l.02-.47.07.18v.05c-.03.07-.1.15-.03.23l.07.1.01.02a.04.04 0 0 0 .05-.02.25.25 0 0 0 .03-.08h.03l.02.42a.03.03 0 0 0 .01.02c.03.03.07.02.11-.02Z" fill="#B2B381"/><path d="M8 8.77a.5.5 0 0 1-.25.27h-.01c-.02.03 0 .06.05.08v.02l-.07.2v.04l.04.1v.03a.4.4 0 0 0 0 .13 1.67 1.67 0 0 0-.28-.11c-.1-.03-.15-.08-.23-.12h-.04l-.1.03c-.03.01-.03 0 0-.02l.1-.1a.04.04 0 0 0 0-.04l-.04-.36c.13-.02.27-.03.42-.02.1 0 .24-.03.41-.13Z" fill="#729146"/><path d="M8.5 8.88v-.01l.05-.02h.07c.03 0 .05.01.06.03l-.01.01c-.05.01-.08.03-.08.07l-.01.02-.03.01h-.06a.03.03 0 0 1-.02 0 .03.03 0 0 1 0-.03l.02-.05.01-.03Z" fill="#fff"/><path d="M9.52 8.9c.06.1.08.2.05.25a.2.2 0 0 1-.08-.05h-.03a.1.1 0 0 1-.02 0c-.06.02-.07 0-.03-.04a.6.6 0 0 0 .1-.17Z" fill="#89ADC5"/><path d="m8.9 9.25-.19.01c.06-.06.03-.07-.1-.05a.05.05 0 0 0-.03.02l-.12.2a.02.02 0 0 1-.02 0l-.01-.03V9.4a.59.59 0 0 0 .1-.2c0-.02 0-.03.02-.04a.7.7 0 0 1 .17-.06c.12 0 .18.06.18.16Z" fill="#F8F0DA"/><path d="m10.15 10.08.12.02a.59.59 0 0 1-.07.07.49.49 0 0 0-.07.08c-.05.07-.12.1-.2.16l-.09.07c-.24.04-.52.03-.78.1-.11-.04-.18.01-.2.14 0 .04.03.05.1.03-.07.03-.03.05.11.04-.14 0-.23.03-.28.1l.11-.35.03-.03c.07-.05.08-.11.04-.2a.06.06 0 0 0-.03-.02.06.06 0 0 1-.03-.03v-.04c.04-.04.06-.09.08-.12 0-.02.02-.02.03-.03h.03l.02.04c-.01.05 0 .08.03.1h.06s.02 0 .03-.02l.01-.02c.02-.04.02-.06 0-.08a.04.04 0 0 1-.02-.03c0-.05.01-.1.05-.16v.14a.08.08 0 0 0 .02.07.09.09 0 0 0 .08.02l.3-.09c.09-.02.15-.1.2-.16.13-.13.23-.3.3-.49.04-.07.1-.12.19-.13.01 0 .02 0 .03-.02 0-.03 0-.05-.02-.08.04.02.05.05.03.1l-.02.02-.11.06a.06.06 0 0 0-.03.03 1.2 1.2 0 0 0-.08.34c0 .05-.02.1-.05.14a44.47 44.47 0 0 1-.1.16c0 .04.02.08.05.11l.02.01h.02a.2.2 0 0 0 .1-.05Z" fill="#729146"/><path d="M8.9 9.25c.1.03.14.09.08.19-.04.07-.1.16-.17.24a.07.07 0 0 1-.06.03c-.1 0-.18.01-.26.05-.04.02-.05.01-.05-.03v-.02a.12.12 0 0 1 .05-.1c.11-.07.19-.19.22-.35h.19Z" fill="#fff"/><path d="m11.1 9.82-.1.07c-.09.06-.1.15-.15.23l-.03.03a.23.23 0 0 0-.11.1c0 .02-.02.03-.03.03l-.1.03c-.08.02-.08.04 0 .05.02 0 .07 0 .14-.03.02 0 .03-.01.03-.03l.01-.05.03-.03.12-.05h.02l.04.14a.95.95 0 0 1-.16.47c-.01.02-.03.03-.05.02l-.56-.12h-.01v.01l.01.03.3.14a.1.1 0 0 0 .04 0h.25a.59.59 0 0 0 .16-.18c.04-.07.08-.07.1.01.04.1.1.31-.04.36a.03.03 0 0 0-.02.03l-.01.21-.01.05h-.03a.3.3 0 0 0-.06-.04c-.08-.03-.17.04-.25.02-.05-.02-.07-.04-.04-.07l.2-.12c.02 0 .02-.01.02-.03 0-.03 0-.07-.02-.11a.04.04 0 0 0-.04-.02c-.06 0-.1-.04-.17-.03a.18.18 0 0 0-.17.15c0 .02 0 .03-.02.04-.09.07-.15.17-.32.15a2.09 2.09 0 0 1-1.44.1.4.4 0 0 0-.1-.01c-.08 0-.12-.03-.11-.06a.6.6 0 0 1 .37-.43c.05-.06.14-.1.28-.09l.28-.05h.04l.05.06h.02l.19.03a.05.05 0 0 0 .04 0l.05-.06.04-.02c.14-.04.46-.07.31-.3 0-.02-.01-.02-.03-.01a.48.48 0 0 1-.2.09s-.02 0-.02-.02v-.03l.1-.07c.07-.07.14-.09.19-.16a.49.49 0 0 1 .07-.08.58.58 0 0 0 .07-.07l.06.05c0 .02.02.02.03.02a.1.1 0 0 0 .08-.06l-.01-.03a.68.68 0 0 0-.23-.08c.04-.23.14-.42.23-.62h.01a.02.02 0 0 1 .03 0v.31a.03.03 0 0 0 .02.02.03.03 0 0 0 .03 0c.19-.02.35-.1.5-.23l.01.01.07.33Z" fill="#F8F0DA"/><path d="M6.34 9.6c-.19 0-.31.12-.37.39-.01.03 0 .1.03.19v.32a.05.05 0 0 1-.01.04.06.06 0 0 1-.04.02c-.11 0-.5.04-.43.22.05.12.07.21.06.27a.6.6 0 0 1-.2-.18.05.05 0 0 0-.03-.02.3.3 0 0 1-.17-.07h-.03c0 .01-.02.02-.04.01l-.02-.01a.53.53 0 0 0-.1-.07c-.13-.06-.14-.25-.15-.37 0-.02 0-.03.02-.04.03-.02.08-.02.12 0 .02 0 .02.02.02.03l-.02.05a.03.03 0 0 0 0 .02.03.03 0 0 0 .03.02c.15.01.36 0 .45-.14.12-.02.43.06.43-.14 0-.15.01-.26.06-.32a10 10 0 0 0 .22-.27c.08-.01.14 0 .17.05Z" fill="#D4C194"/><path d="M6.34 9.6c.08.06.14.09.2.08h.04l.02.03v.02a.02.02 0 0 1-.03.02h-.13c-.02 0-.03 0-.03.02-.01.05 0 .09.02.12a4.78 4.78 0 0 0 .4.38c.05.03.06.08.04.15l.14.37c-.1.1-.03.16 0 .24a.03.03 0 0 1 0 .03v.01h-.02c-.12 0-.24.03-.36.07a.03.03 0 0 1-.03-.01c-.1-.13-.17-.29-.28-.41-.14-.16-.29-.28-.32-.54-.03-.1-.04-.16-.03-.2.06-.26.18-.39.37-.38Z" fill="#4E6C28"/><path d="M10.2 10c.08.01.16.04.23.08.01 0 .02.02 0 .03a.1.1 0 0 1-.07.06c-.01 0-.03 0-.03-.02a.25.25 0 0 0-.06-.05l-.12-.02a.22.22 0 0 1-.03-.07V10a.03.03 0 0 1 .02-.02h.02l.04.02Z" fill="#34897B"/><path d="M7 10.79c-.03.06-.04.12 0 .16l.02.04.09.2.11.1c.04.04.08.09.11.15.01.02.02.03.01.05 0 .02-.01.04-.03.05a.22.22 0 0 1-.08.03l-.13.01a.71.71 0 0 1-.25.09l.05-.03H6.9c-.03-.01-.03-.01 0-.02v-.02c0-.02 0-.03-.02-.03a1.31 1.31 0 0 1-.76-.43h-.02c-.03 0-.03 0-.02.02l.11.24c.02.04.01.05-.03.03l-.48-.26-.09-.12a.66.66 0 0 0-.06-.27c-.06-.18.31-.23.43-.22a.06.06 0 0 0 .05-.04v-.34c.03.26.18.38.32.54.11.13.18.28.28.4l.01.02h.02a1.08 1.08 0 0 1 .38-.07.03.03 0 0 0 0-.04c-.03-.08-.1-.15 0-.24Z" fill="#8A9A4F"/><path d="M5.46 10.28c-.1.14-.3.15-.45.14a.03.03 0 0 1-.03-.02.03.03 0 0 1 0-.02l.02-.05c0-.01 0-.03-.02-.03-.04-.02-.09-.02-.12 0a.04.04 0 0 0-.02.04c.01.12.02.3.15.37-.07.01-.1.06-.05.13v.01H4.9c-.05-.1-.05-.18-.08-.26-.05-.12-.12-.42.12-.39l.51.08Z" fill="#63783C"/><path d="M13.01 10.72c0 .13-.04.25-.13.34a.5.5 0 0 1-.52.11.49.49 0 0 1-.27-.24.45.45 0 0 1 .09-.5.5.5 0 0 1 .52-.12.49.49 0 0 1 .27.24c.03.05.04.11.04.17Z" fill="#6C61F0"/><path d="M9.06 10.58c.06.03.06.07 0 .12a.42.42 0 0 1-.1.05c-.07.02-.1 0-.1-.03.02-.13.09-.18.2-.14Z" fill="#D4C194"/><path d="M10.6 11.25c-.03 0-.05.01-.05.03 0 .02 0 .03.02.03l.11.03c.08 0 .1.02.04.07a.31.31 0 0 0-.06.13c0 .02 0 .03.02.03a.2.2 0 0 0 .08-.03.03.03 0 0 1 .02 0l.08.03c.01 0 .02 0 .03-.02l.04-.13.04-.02c.03 0 .06.02.1.04l.1.05.01.02.01.02c.03.08-.01.14-.06.24a.36.36 0 0 0-.02.12c-.01.15-.03.26-.06.34a.55.55 0 0 1-.31.3l.14-.14c.02-.01.01-.02 0-.03a.5.5 0 0 0-.18-.06c-.01 0-.02-.01-.02-.03l.03-.1a.03.03 0 0 0-.01-.04.04.04 0 0 0-.04 0l-.47.13a.58.58 0 0 1-.37-.02c-.01 0-.02 0-.03.02l-.02.07.06-.25.16.09h.04c.19-.05.37-.14.53-.24.01 0 .02-.02 0-.03-.03-.09-.17-.06-.25-.05-.07 0-.08 0-.02-.05l.2-.15c.02 0 .02-.02.02-.03a.59.59 0 0 0-.15-.25.05.05 0 0 0-.04-.02c-.22 0-.4.08-.53.23-.01.01-.02.02-.04.01-.17-.06-.26-.02-.26.13-.05 0-.11-.02-.2-.05a.34.34 0 0 0-.16.02.6.6 0 0 1-.17.03c-.13 0-.2 0-.3-.05a.69.69 0 0 1-.26-.27c-.03-.04-.02-.07.02-.1 0 .04.03.06.1.06a.4.4 0 0 1 .11.02c.3.1.6.13.91.1a3.29 3.29 0 0 0 .53-.2c.17.02.23-.08.32-.15l.02-.04a.18.18 0 0 1 .17-.15c.06-.01.11.03.17.03.02 0 .03 0 .04.02.02.04.03.08.02.11 0 .02 0 .03-.02.03l-.2.12ZM6.85 11.67a.26.26 0 0 1-.17-.02c-.1-.08-.17-.13-.2-.13a1.3 1.3 0 0 1-.8-.35l.47.26c.04.02.05.01.03-.03l-.11-.24c-.01-.02 0-.02.01-.02h.03c.21.24.46.38.76.43.01 0 .02.01.02.03v.02c-.03 0-.03.01 0 .01h.01l-.05.04Z" fill="#729146"/><path d="m11.6 11.63-.12-.14c-.08-.06-.01-.17 0-.23 0-.04.02-.06.04-.07.06-.03.1 0 .12.05a4.92 4.92 0 0 1 .08.2l-.03.16a.05.05 0 0 1-.03.04.05.05 0 0 1-.05 0ZM10.6 11.25c-.04.03-.02.05.03.07.08.02.17-.05.25-.02a.3.3 0 0 1 .06.04h.03v-.05c.05.05.08.1.1.15a.24.24 0 0 0-.1-.04c-.02 0-.03 0-.04.02l-.04.13c0 .02-.02.02-.03.02l-.08-.03a.03.03 0 0 0-.02 0 .2.2 0 0 1-.08.03c-.02 0-.03 0-.02-.03a.31.31 0 0 1 .06-.13c.06-.05.04-.08-.04-.07-.03 0-.06 0-.1-.03-.02 0-.03-.01-.03-.03 0-.02.02-.03.04-.03Z" fill="#B2B381"/><path d="m9.83 12.08-.24-.17a.12.12 0 0 1-.04-.05.1.1 0 0 1 0-.06c0-.04-.01-.06-.06-.08 0-.15.1-.2.26-.13h.04a.67.67 0 0 1 .53-.24c.01 0 .03 0 .04.02.07.06.11.15.15.25 0 .01 0 .02-.02.03l-.2.15c-.06.04-.05.06.02.05.08-.01.22-.04.26.05v.03a2.1 2.1 0 0 1-.56.25l-.02-.01-.16-.1Z" fill="#4E6C28"/><path d="m10.74 12.53-.33.19h-.03c-.07-.03-.12-.08-.2-.1a.4.4 0 0 1-.23-.18.08.08 0 0 0-.03-.03l-.15-.08.02-.07c0-.02.02-.02.03-.02.13.05.25.06.37.02a36.9 36.9 0 0 1 .5-.13l.02.02v.02l-.03.1c0 .02 0 .03.02.03a.5.5 0 0 1 .18.06c.01.01.02.02 0 .03l-.14.14Z" fill="#D4C194"/></svg>