<!-- by TradingView --><svg width="18" height="18" viewBox="0 0 18 18" xmlns="http://www.w3.org/2000/svg"><path fill="#DAFF02" d="M0 0h18v18H0z"/><path fill-rule="evenodd" d="M9 14A5 5 0 1 0 9 4a5 5 0 0 0 0 10Zm0-.48a4.55 4.55 0 1 0 .02-9.1 4.55 4.55 0 0 0-.02 9.1ZM8 7H7v3.45c0 .3.26.55.57.55H8v.43c0 .31.32.57.7.57H11v-1H8V7Zm1.86-.89c0-.06.08-.11.14-.11.06 0 .14.05.14.11v.3c0 .26.19.45.46.45h.29c.06 0 .11.08.11.14 0 .06-.05.14-.11.14h-.3a.43.43 0 0 0-.45.46v.29c0 .06-.08.11-.14.11-.06 0-.14-.05-.14-.11v-.3a.43.43 0 0 0-.46-.45h-.29C9.05 7.14 9 7.06 9 7c0-.06.05-.14.11-.14h.3c.26 0 .45-.19.45-.46v-.29Z" fill="#101010"/></svg>