<!-- by TradingView --><svg width="18" height="18" viewBox="0 0 18 18" xmlns="http://www.w3.org/2000/svg"><path fill="#F0F3FA" d="M0 0h18v18H0z"/><path fill-rule="evenodd" d="m3.36 7.42.91.91.6-.59-.91-.9-.6.58ZM5.7 5.1l.9.9-.59.6-.9-.9.59-.6Zm1.73-1.73.91.9-.6.6-.9-.91.6-.6ZM9.45 14.8l5.36-5.36a.64.64 0 0 0 0-.9L9.45 3.19a.64.64 0 0 0-.9 0l-.3.3.79.78-1.3 1.3-.79-.79-.43.44.79.78L6 7.3l-.8-.78-.43.43.8.79-1.3 1.3-.8-.79-.3.3a.64.64 0 0 0 0 .9l5.37 5.36c.25.25.65.25.9 0ZM11 9.9c0-.36-.1-.65-.32-.87-.21-.23-.55-.4-1.01-.54a9.82 9.82 0 0 0-.35-.1 2.14 2.14 0 0 1-.31-.1.76.76 0 0 1-.23-.14.27.27 0 0 1-.09-.2c0-.13.06-.23.18-.3a.8.8 0 0 1 .44-.12c.14 0 .3.03.45.08.15.05.3.14.46.24l.56-.96A4.06 4.06 0 0 0 9.1 6.5c-.3 0-.55.04-.78.11-.24.08-.43.18-.6.32a1.42 1.42 0 0 0-.5 1.13c0 .23.04.43.13.58.08.15.2.28.33.38.13.1.29.18.46.24l.54.17.4.12c.1.04.19.08.25.13.07.04.12.09.15.14.03.05.04.11.04.19 0 .11-.06.22-.17.31-.11.1-.28.14-.51.14-.2 0-.4-.04-.61-.12a2.5 2.5 0 0 1-.63-.37l-.6 1a3.6 3.6 0 0 0 2.79.41c.26-.07.48-.18.66-.32A1.39 1.39 0 0 0 11 9.89Z" fill="#30B396"/></svg>