<!-- by TradingView --><svg width="18" height="18" viewBox="0 0 18 18" xmlns="http://www.w3.org/2000/svg"><path fill="#F0F3FA" d="M0 0h18v18H0z"/><path d="M12.9 8.15c.37-.46.6-1.07.6-1.65-.02-1.4-1.3-2.51-2.8-2.5H6.5v1.5H4V14h4.7c.91 0 1.88-.46 2.37-1.25h.15A2.83 2.83 0 0 0 14 10c0-.75-.45-1.37-1.1-1.85Zm-2.2-3.53c1.16 0 2.12.78 2.13 1.88 0 .46-.12.96-.42 1.33a3.21 3.21 0 0 0-1.41-.4A2.34 2.34 0 0 0 10 6c.67 0 1.5-.13 1.5.5h.5c0-1-.9-1-2-1H7v-.88h3.7ZM11 8c.36.05.66.1.98.26-.33.26-.75.41-1.19.44.1-.24.2-.44.2-.7ZM8.7 13.5H4.5V6h3.67c1.17-.01 2.17.74 2.18 1.84 0 .46-.17.91-.46 1.28C9.5 9 8.78 9.02 8.17 9H6V7.5h1.5c.67 0 1.5.22 1.5 1h.67C9.67 7.4 8.6 7 7.5 7h-2v2.5h2.7c.44.01.8-.06 1.29.03-.37.29-.82.47-1.3.47H5.5v2.5h2.26c.84 0 2.24.06 2.24-1.5h-.51c0 .78-.57 1-1.73 1H6v-1.5h2.2c.66-.01 1.31-.2 1.8-.64.52.39.83.91.83 1.48A2.2 2.2 0 0 1 8.7 13.5Zm2.64-1.36c.09-.25.13-.52.13-.8.7-.2 1.2-.56 1.2-1.34h-.69c0 .55-.28.67-.6.79-.18-.54-.53-1.01-1-1.35l.12-.18h.19a2.79 2.79 0 0 0 1.8-.69c.53.39 1 .86 1 1.43.03 1.08-1 2.06-2.15 2.14Z" fill="#488BF7"/></svg>