<!-- by TradingView --><svg width="18" height="18" viewBox="0 0 18 18" xmlns="http://www.w3.org/2000/svg"><path fill="#F0F3FA" d="M0 0h18v18H0z"/><path fill="url(#a)" d="M4 4h10v10H4z"/><path d="m7.7 4-.13.34a.37.37 0 0 0-.2.26c-.05.28-.1.5-.16.63a.84.84 0 0 0-.18.36l-.02.12v-.03c-.01-.03-.02-.03-.03 0l-.16.4v.03l.04.01.8.1c-.02.37-.07.74-.12 1.1l.01.14c0 .02.02.03.03.04.08.03.12.08.14.13.04.16.1.28.15.37.02.03.04.06.04.1 0 .02 0 .03-.02.03a.35.35 0 0 0-.1.05c-.02.01-.02.03-.02.04 0 .02.02.03.04.03.15 0 .2.01.13.06l-.05.09a.44.44 0 0 1-.13.2l-.16.16a.87.87 0 0 0-.08.16.62.62 0 0 1-.09.16c-.06.08-.11.16-.15.25a.2.2 0 0 0-.08.02h-.03l-.33-.37a.03.03 0 0 1 .02-.06L7 8.9c.02 0 .03-.01.03-.03 0-.05-.02-.1-.05-.14l-.1-.23-.07-.14v-.05a.21.21 0 0 0 .04-.07V8.2L6.7 8a.08.08 0 0 1-.01-.06.36.36 0 0 0-.08-.29A3.91 3.91 0 0 1 6.7 6.5c.03-.19 0-.2-.07-.02l-1.1 2.64-.16-.1.01-.08a111.14 111.14 0 0 1 1.08-2.52.55.55 0 0 1 .1-.16.06.06 0 0 0 .02-.05c0-.1.03-.18.1-.24a.07.07 0 0 0 .02-.04c.01-.1.05-.2.1-.27a.1.1 0 0 0 .02-.05c.02-.12.09-.18.12-.28a10.59 10.59 0 0 1 .5-1.1c.05-.06.05-.14.01-.23h.25Z" fill="#090811"/><path d="M14 4.13v3.53a2.4 2.4 0 0 1-.07-.43l.01-.13a.4.4 0 0 0 .02-.12c0-.12-.03-.29-.06-.53a204.47 204.47 0 0 0-.19-2.22l.28-.1Z" fill="#690F19"/><path d="M13.71 4.23a204.4 204.4 0 0 1 .2 2.22l.05.53a.4.4 0 0 1-.02.12.42.42 0 0 0-.01.13c0 .14.03.28.06.43v.7l-.04.02a.15.15 0 0 1-.06-.03 1.7 1.7 0 0 1-.15-.5c0-.36-.04-.73-.1-1.1a7.37 7.37 0 0 1-.13-1.19c-.02-.38-.08-.68-.14-1.15a.04.04 0 0 0-.02-.03.04.04 0 0 0-.03 0l-.25.08c-.03.01-.04.03-.04.07l.2 1.06.06.63a5 5 0 0 0 .12.78.84.84 0 0 0-.25.22l-.15-.73c-.02-.11 0-.23-.02-.34-.07-.42-.17-.92-.3-1.5 0-.03-.03-.05-.06-.04l-.22.04c-.04 0-.06.03-.05.08l.24 1.05a.4.4 0 0 1-.17 0 .22.22 0 0 1-.1-.07 2.44 2.44 0 0 0-.1-.1l-.22-.82c.01-.02.05-.04.1-.06.07 0 .12-.01.16-.04a.93.93 0 0 1 .13-.06l.24-.06c.11-.01.22-.04.32-.08l.24-.1c.12-.03.26-.06.38-.11l.13-.05Z" fill="#99A0BA"/><path d="M8.35 4.8a.33.33 0 0 1-.08.18 1.7 1.7 0 0 1-.82-.11.04.04 0 0 0-.03.06.6.6 0 0 1 .04.13c.02.11-.04.26-.03.35.01.1.06.18.14.24-.14 0-.28-.04-.4-.1.03-.1.05-.21.04-.32.06-.14.11-.35.17-.63.02-.11.08-.2.2-.26.25 0 .47.07.65.22.06.05.1.13.12.24Z" fill="#EEB3A9"/><path d="m13.9 8.35.05.15.04.16v.54l-.33-.75a2.66 2.66 0 0 1-.11-.31c-.02-.09-.04-.2-.04-.33s-.01-.27-.04-.41l-.06-.4a5 5 0 0 1-.12-.78c-.02-.3-.05-.51-.07-.63l-.19-1.06c0-.04 0-.06.04-.07l.25-.08a.04.04 0 0 1 .03 0 .04.04 0 0 1 .02.03c.06.47.12.77.14 1.15l.05.6.08.6c.06.36.1.73.1 1.1 0 .08.05.25.15.49ZM13.16 7.22l.09.57c.02.08.03.16.03.25 0 .1.01.18.03.25l.12.3.34.74c0 .03-.03.06-.08.08-.06.02-.1.03-.13.02-.15-.32-.31-.63-.44-.95-.03-.1-.06-.2-.06-.28-.01-.1-.04-.21-.07-.32-.04-.1-.05-.28-.06-.35a10.45 10.45 0 0 1-.29-1.58l-.04-.17-.24-1.05c-.01-.05 0-.08.05-.08l.21-.04c.04 0 .06 0 .07.05.13.57.23 1.07.3 1.5.02.1 0 .22.02.33l.15.73Z" fill="#690F19"/><path d="M7.74 5.58c0 .04-.02.08-.05.1l-.12-.03.08-.25.02-.02c.04-.05.07-.11.09-.17 0-.02.01-.03.03-.04.08-.05.21-.1.4-.12.04 0 .07-.03.08-.07.04-.05.07-.1.08-.18.02.11 0 .21-.08.3a.43.43 0 0 1-.15.12c-.18.1-.32.14-.38.36Z" fill="#5A1F28"/><path d="m12.01 4.8.22.81.1.4.15.73c0 .08-.08.14-.25.2l-.3.09-.27.05h-.56a.1.1 0 0 0-.08 0l-.02.04.03.07-.17.07-.1-.3a1079.3 1079.3 0 0 1-.41-.84l-.6-.9c.1-.04.2-.05.3-.04a.6.6 0 0 0 .2 0c.09-.03.17-.06.25-.07.5-.09 1.01-.2 1.51-.32Z" fill="#0A1036"/><path d="M8.27 4.98c-.01.04-.04.07-.08.07-.19.03-.32.07-.4.12a.07.07 0 0 0-.03.04.42.42 0 0 1-.1.17v.02l-.1.25a.35.35 0 0 1-.13-.24c0-.1.05-.24.03-.35a.6.6 0 0 0-.04-.13.04.04 0 0 1 .06-.06c.25.1.51.13.8.1Z" fill="#CC8776"/><path d="M7.17 5.55c.12.06.26.1.4.1l.12.04c0 .02.02.03.03.03a.04.04 0 0 1 .04.01.04.04 0 0 1 0 .04c-.06.16-.1.31-.1.45l-.8-.1c.1-.14.15-.27.15-.41l.02-.12.14-.04Z" fill="#D3CADC"/><path d="m12.6 5.78.04.16-.15.08h-.05a.26.26 0 0 0-.1 0l-.11-.4.1.09c.03.04.07.06.1.07h.17Z" fill="#7279A3"/><path d="M7 5.7c0 .15-.04.28-.14.42h-.03c-.02-.02-.02-.03-.01-.05l.16-.39c.01-.03.02-.03.02 0v.03Z" fill="#0F5A9F"/><path d="m12.64 5.94.04.22a10.48 10.48 0 0 0 .25 1.37c.01.07.02.25.06.35.03.1.06.22.06.32.01.09.04.18.07.28.13.32.3.63.44.95-.02.11-.09.17-.19.17a61.92 61.92 0 0 1-.54-1.18 2.85 2.85 0 0 1-.09-.37c-.04-.31-.1-.58-.16-.82a3.13 3.13 0 0 1-.1-.5l-.14-.72c.03 0 .07 0 .1.02h.05l.15-.09Z" fill="#99A0BA"/><path d="M13.37 9.6a.3.3 0 0 1-.18.12 6.4 6.4 0 0 1-.79-2l-.18-.79c.18-.05.27-.11.26-.2.02.16.05.33.1.5.06.24.12.5.16.82a2.86 2.86 0 0 0 .23.72l.4.83Z" fill="#690F19"/><path d="m12.22 6.93.18.8-.27.02-.2-.72.3-.1Z" fill="#B3AFC3"/><path d="m13.41 7 .06.4c-.11.07-.19.2-.22.39l-.09-.57c.09-.1.17-.18.25-.22Z" fill="#7279A3"/><path d="m11.93 7.03.2.72.05.2c0 .11-.09.12-.28.03l-.24-.9.27-.05Z" fill="#91141F"/><path d="M11.1 7.08a3.38 3.38 0 0 0 .08.36.01.01 0 0 1-.02 0l-.13-.25a.19.19 0 0 1-.03-.07c0-.02 0-.03.02-.04a.1.1 0 0 1 .08 0Z" fill="#9A9A9A"/><path d="m11.37 7.07.21.78.03.14a.1.1 0 0 1-.03.09l-.12.12c-.01.01-.03.02-.04 0l-.15-.07-.11-.22-.3-.65.17-.07.13.25a.01.01 0 0 0 .02 0v-.02a3.35 3.35 0 0 1-.08-.34h.27Z" fill="#690F19"/><path d="m11.66 7.08.24.9-.2.04a.04.04 0 0 1-.05-.01.4.4 0 0 1-.07-.16l-.21-.78.29.01Z" fill="#B3AFC3"/><path d="m9.9 7.38.24.34c.02.02.02.04.02.06l-.03.15c0 .02 0 .03-.02.04a.53.53 0 0 0-.19.26.33.33 0 0 1 0-.17v-.08a6.56 6.56 0 0 1-.23-.23l-.12-.06c.03-.05.03-.1 0-.13a2.6 2.6 0 0 1-.28-.28h-.02L9 7.29c.35-.08.64-.05.9.09Z" fill="#AA6E64"/><path d="M9.57 7.7c-.04.03-.03.07.03.1l.23.2c.02.04.03.07.01.1a.86.86 0 0 0-.07.35c0 .05-.02.11-.05.18-.02.04-.07.07-.14.08-.16.03-.3 0-.42-.11l.06-.15c0-.01 0-.03-.02-.04a1.35 1.35 0 0 1-.2-.2c-.06-.07-.05-.1.05-.08.12.01.27 0 .43-.06.06.02.1.05.14.09.04.03.06.02.05-.03L9.65 8a.04.04 0 0 0-.04-.04.25.25 0 0 0-.24.06l-.12.07a.04.04 0 0 1-.04 0L9 8a.05.05 0 0 1-.02-.07c.04-.06.1-.1.2-.1.01-.01.03 0 .04.01.03.05.09.06.16.01.04-.02.06-.06.05-.1l.01-.02a.05.05 0 0 0-.05-.08l-.29.1a.54.54 0 0 0-.23.26c-.06.16-.1.16-.1-.01v-.23a.15.15 0 0 1 .08-.12l.33-.18c.03-.02.02-.03-.01-.03h-.35a.33.33 0 0 1 .2-.15l.25-.01a.05.05 0 0 1 .04.02c.08.1.16.18.25.26.04.03.04.08.01.13Z" fill="#EC9282"/><path d="M13.47 7.4c.03.14.04.28.04.41 0 .13.02.24.04.33l.1.3.34.76-.01.1c-.08.05-.15.06-.2.03a32.2 32.2 0 0 0-.47-1.04.89.89 0 0 1-.03-.25c0-.09-.01-.17-.03-.25.03-.2.1-.32.22-.4Z" fill="#99A0BA"/><path d="M9.1 7.76a.22.22 0 0 0-.03.03c0 .02 0 .03.03.02.1-.03.16-.04.2-.01l.04.01c.04 0 .07-.02.09-.06 0 .04 0 .08-.05.1-.07.05-.13.04-.16-.01a.04.04 0 0 0-.04-.02.25.25 0 0 0-.2.11A.05.05 0 0 0 9 8l.21.1.04-.01.12-.07c0 .03.03.04.11.05a.92.92 0 0 1-.43.05c-.1 0-.11.02-.05.1l.2.2c.02 0 .02.02.02.03l-.06.15c-.05 0-.04.05.05.12l.01.02v.03c0 .02-.02.03-.04.02a.53.53 0 0 1-.27-.18.52.52 0 0 0-.11-.14.07.07 0 0 0-.06 0c-.07.01-.17-.08-.2-.12-.02 0-.02-.02-.01-.03.03-.06.07-.07.12-.05h.05c.04-.06.04-.12 0-.18a.04.04 0 0 0-.03-.02h-.08c-.03 0-.04-.02-.03-.05l.12-.26a.02.02 0 0 0-.03-.04.13.13 0 0 0-.05.03l.22-.3h.35c.03-.01.04 0 0 .02l-.32.18a.15.15 0 0 0-.07.12c-.01.1-.02.18-.01.23 0 .17.04.17.1.01.03-.09.1-.17.23-.25Z" fill="#CC8776"/><path d="M9.43 7.75c-.02.04-.05.06-.09.06L9.3 7.8c-.04-.03-.1-.02-.2.01-.03.01-.04 0-.03-.02l.03-.03.3-.1a.05.05 0 0 1 .04.07l-.01.02Z" fill="#5A1F28"/><path d="m9.57 7.7.12.04.16.17c0 .03 0 .06-.02.09a1.8 1.8 0 0 0-.23-.2c-.06-.03-.07-.07-.03-.1Z" fill="#29100E"/><path d="M9.16 8.6c.12.1.26.14.42.11.07-.01.12-.04.14-.08a.45.45 0 0 0 .05-.18c0-.12.02-.23.07-.34.02-.04.01-.07 0-.11a.22.22 0 0 0 .01-.09c.03.02.06.04.07.07v.08a.33.33 0 0 0 0 .17c.08.18.04.36-.1.54l-.1.13a.94.94 0 0 0-.16.35c0 .04-.04.04-.1-.02l-.13-.26a.05.05 0 0 0-.06-.03.06.06 0 0 0-.05.05c0 .02.01.05.04.07a.06.06 0 0 1 .02.04v.15l-.1-.12a.08.08 0 0 0-.03-.02.18.18 0 0 1-.1-.08C9.02 9 9.01 9 9 9.02c-.02.01-.03.04-.04.07 0 .04-.01.06-.02.07-.01.03-.02.02-.02 0a.55.55 0 0 0-.06-.2c-.01-.03-.02-.03-.03-.01l-.1.16a.11.11 0 0 0-.03.07c0 .03.02.05.03.07.08.08.13.16.17.24v.04l-.32.32h-.04c-.07-.07-.17-.09-.28-.05a.04.04 0 0 0-.03.03l-.06.2-.01.03h-.02c-.15.07-.26.08-.35.2a.48.48 0 0 1-.16-.15 1.44 1.44 0 0 0-.16-.22l.18.13c.02.01.03.02.05 0 .15-.08.27-.2.36-.34a.04.04 0 0 1 .05-.02.4.4 0 0 1 .16.08l.22.02a.04.04 0 0 0 .04-.02l.12-.3V9.4l-.28-.35c-.04-.04-.05-.04-.04.02 0 .06-.01.1-.05.15a.07.07 0 0 1-.04.03l-.4.07a.03.03 0 0 1-.04-.02v-.28a.08.08 0 0 0-.1-.08.08.08 0 0 0-.04.02l-.17.18-.11.16a.17.17 0 0 0-.04.1v.1c-.06-.05-.09-.1-.06-.17.04-.1.1-.17.15-.25l.09-.16.08-.16.16-.16c.06-.05.1-.12.13-.2 0 .07.08.05.22-.05a.2.2 0 0 1 .06.04c.01.01.03.02.04 0a.2.2 0 0 1 .1-.02c.01 0 .02 0 .02-.03 0-.02-.01-.04-.04-.05l-.23-.15c-.02-.02-.02-.03.01-.02.1.01.19.05.28.11h.05l.01-.04h.02l.01-.02c.04-.13.06-.33.16-.42a.13.13 0 0 1 .05-.03.02.02 0 0 1 .03.04l-.12.26c0 .03 0 .05.03.05h.08c.01 0 .03 0 .04.02.03.06.03.12-.01.17-.02.02-.03.02-.05.01-.05-.02-.09-.01-.12.05v.03c.04.04.14.13.21.11l.06.01c.02.01.06.06.11.14.06.07.15.14.27.18.02 0 .03 0 .04-.02v-.03l-.01-.02c-.09-.07-.1-.11-.05-.12Z" fill="#57312C"/><path d="M12.4 7.73a6.4 6.4 0 0 0 .78 2c-.1.07-.17.1-.23.09-.2-.3-.34-.6-.44-.93a3.68 3.68 0 0 1-.03-.4c0-.16-.05-.27-.15-.33-.1-.06-.14-.13-.15-.2l-.05-.2.27-.03Z" fill="#8891B4"/><path d="M11.9 7.98c.2.09.29.08.28-.02 0 .07.06.14.15.2.1.06.15.17.15.32 0 .14.01.28.03.4-.07-.06-.13-.07-.16-.03a.2.2 0 0 0-.05-.19c.08-.12.1-.22.03-.32-.04-.08-.12-.12-.23-.14a1.21 1.21 0 0 0-.55.04.1.1 0 0 0-.07.1l.01.29h-.16a1.52 1.52 0 0 1 0-.26.3.3 0 0 0-.02-.13 1.54 1.54 0 0 0-.05-.11l.16.08h.04l.12-.13a.1.1 0 0 0 .03-.09l-.03-.14a.4.4 0 0 0 .07.16l.02.01h.02l.2-.04Z" fill="#57312C"/><path d="M9.48 8.07c-.08 0-.12-.02-.1-.05a.25.25 0 0 1 .23-.06c.02 0 .03.02.04.04l.02.13c0 .05 0 .06-.05.03a.42.42 0 0 0-.14-.09Z" fill="#29100E"/><path d="m8.41 8.19-.02.03c0 .02-.02.02-.04.01a.78.78 0 0 0-.28-.11c-.03 0-.03 0 0 .02.04.04.11.09.22.15.03.01.04.03.04.05 0 .02 0 .03-.03.03a.2.2 0 0 0-.09.03h-.04a.2.2 0 0 0-.06-.05l.06-.04v-.04c-.04-.03-.07-.04-.1-.02l-.13.06c.07-.05.02-.07-.13-.06-.02 0-.03-.01-.04-.03 0-.01 0-.03.02-.04a.35.35 0 0 1 .1-.05c.01 0 .02-.01.02-.03a.22.22 0 0 0-.04-.1l.54.19Z" fill="#CC8776"/><path d="m12.3 8.66-.78-.03h-.03v-.3a.1.1 0 0 1 .06-.1c.18-.05.37-.06.55-.03.11.02.19.06.24.14.05.1.04.2-.04.32Z" fill="#D98A8B"/><path d="M8.1 8.35c-.13.1-.2.12-.22.05l.06-.1c.04 0 .08-.03.13-.05.03-.02.06 0 .1.02v.04l-.06.04Z" fill="#EC9282"/><path d="M6.98 8.73c.04.07.04.12.02.14h-.05l-.23-.26h.1c.03 0 .05-.01.06-.03V8.5l.1.23Z" fill="#57312C"/><path d="M6.72 8.61c.21.23 1.07.66 1.07 1.65-.1.1-.2.14-.33.12a3.2 3.2 0 0 0-.68-.03c-.68.52 1.75 2.24-.84 3.65l-1.89-.01a.05.05 0 0 1-.05-.05v-3.71l.46-.09a.04.04 0 0 0 .03-.03.3.3 0 0 0-.02-.14l.06.1.04.02c.04 0 .07.02.1.04-.07-.02-.1 0-.12.06.39.37.15.5.84-.08.55-.47.6-.6.91-.84a.23.23 0 0 0 .09-.14v-.06c-.07-.28.04-.43.33-.46Z" fill="#191B2E"/><path d="M11.5 8.63h.02l-.14.01a.07.07 0 0 0-.06.04.07.07 0 0 0 0 .06l.1.17h.03l.06-.03a.07.07 0 0 1 .1 0l.01.04c.01.03.04.05.08.06l-.16.03a.06.06 0 0 0-.04.02c-.08.11-.12.23-.03.36.04.05.07.12.11.23a.12.12 0 0 0 .12.08h.3c.01 0 .03 0 .04-.02a.93.93 0 0 0 .18-.22c.06-.12.06-.25-.01-.4a.05.05 0 0 0-.05-.02H12c-.02 0-.03-.01-.04-.03l-.01-.05c.09.03.17.05.26.04.02 0 .04-.01.04-.03l.09-.12c.03-.04.09-.03.16.04.1.32.25.63.44.93-.1.08-.18.09-.25.04l-.29-.51c-.01-.03-.03-.03-.04 0l-.02.06a.1.1 0 0 0 0 .1l.32.43c.05.07.06.15.06.25l-.05-.1c0-.01-.02-.02-.04-.01l-.13.02c-.01-.08-.05-.13-.1-.15l-.07-.04c.02-.03.03-.06.02-.1h-.02a.44.44 0 0 1-.27.27 1 1 0 0 0-.3.11c-.02.02-.03.02-.05.02l-.04-.04a.1.1 0 0 0-.02-.05.76.76 0 0 0-.23-.43.31.31 0 0 0-.07-.12.7.7 0 0 0-.03-.3l-.02-.03-.03-.02-.02-.03c-.05-.17-.03-.35.07-.56h.16Z" fill="#5A1F28"/><path d="M12.3 8.66a.2.2 0 0 1 .05.2l-.08.11a.05.05 0 0 1-.05.03.52.52 0 0 1-.26-.04l-.05-.14a.06.06 0 0 0-.08-.03s-.02 0-.02.02l-.1.17c-.05 0-.08-.03-.09-.06a.07.07 0 0 0-.04-.05.07.07 0 0 0-.07 0l-.06.04h-.03l-.1-.17a.07.07 0 0 1 0-.06.07.07 0 0 1 .06-.04l.14-.01.78.03Z" fill="#090811"/><path d="m11.96 8.96.01.05c0 .02.02.03.04.03h.15c.02 0 .04 0 .05.02.07.15.07.28 0 .4a.93.93 0 0 1-.17.22.06.06 0 0 1-.05.02h-.3a.12.12 0 0 1-.1-.08c-.05-.1-.08-.18-.12-.23-.1-.13-.05-.25.03-.36l.04-.02.16-.03.1-.17a.06.06 0 0 1 .06-.03.06.06 0 0 1 .05.04l.05.14Z" fill="#AA6E64"/><path d="M8.27 9.74a.2.2 0 0 0 .1 0V9.7l-.22-.32a.05.05 0 0 0-.04-.02h-.26l-.04-.01a.43.43 0 0 0-.18-.06.1.1 0 0 0 .03-.05.03.03 0 0 0-.01-.03H7.55a.2.2 0 0 1 .08-.02c.02 0 .03-.01.02-.03a.15.15 0 0 0-.03-.05.04.04 0 0 0-.05 0 .25.25 0 0 1-.08.03l.17-.18a.08.08 0 0 1 .13.01l.01.05v.26a.03.03 0 0 0 .01.03.03.03 0 0 0 .03 0l.4-.06c.02 0 .03-.01.04-.03a.2.2 0 0 0 .05-.15c-.01-.06 0-.06.04-.02l.28.35v.03l-.12.3a.04.04 0 0 1-.04.03l-.22-.02Z" fill="#866051"/><path d="m9.63 9.96.22.6c.02.05.02.15 0 .28-.03.06.07.5.22.97.2.62-.1.38.1.85 0 .03.03.05.1.07l.44.2c.02.01.04.03.05.06.34 1-.34.03-.62-.02l-.2-.02a.1.1 0 0 0-.02 0l-.2.03c-.03 0-.04 0 0-.03l.24-.18c.12-.09.1-.12-.04-.1-.4.05-1.5.43-1.91.25l-.26.14c-.74.12-.78-.56-1.17-1.1-.08-.11-.16-.31-.25-.6-.02-.08-.08-.18-.18-.31l.16.02c.02 0 .02 0 .02-.02-.02-.36.18-.5.45-.7a3.2 3.2 0 0 1 .68.03c.12.02.23-.02.33-.12.1-.12.2-.13.35-.2h.02v-.02l.07-.21c0-.02.01-.03.03-.03.39-.12.24.13.64-.27a.03.03 0 0 0 0-.04.94.94 0 0 0-.17-.24.1.1 0 0 1-.03-.07c0-.02 0-.04.02-.07l.1-.16c.02-.02.03-.02.04 0 .03.06.05.12.05.2 0 .03.02.04.03.01l.02-.07c0-.03.02-.06.04-.07h.04c.03.05.06.07.1.09l.05.02c.19.24.34.54.44.83Z" fill="#14111C"/><path d="m5.36 9.08-.26.1a.1.1 0 0 0-.05.04L5 9.3a.04.04 0 0 0 .03.07l.27.04c.01 0 .03 0 .04.02.02.02.05.03.08.03a.09.09 0 0 1 .09.07v.04c-.01.05-.04.09-.08.13a.16.16 0 0 0-.04.03.42.42 0 0 1-.04.06c-.02.02-.05.03-.1.03-.25.02-.5-.02-.74-.1l.02-.2c0-.17.04-.3.15-.42.05-.07.13-.1.23-.12l.27-.02c.12 0 .18.05.19.12Z" fill="#AA6E64"/><path d="M9.46 9.22h-.11c-.02 0-.02.02 0 .03a.2.2 0 0 1 .03.2l-.1-.2V9.1a.06.06 0 0 0-.02-.04c-.03-.02-.04-.05-.04-.07a.06.06 0 0 1 .05-.05.05.05 0 0 1 .06.03l.13.25Z" fill="#9A9A9A"/><path d="M5.53 9.12a1.01 1.01 0 0 1 .08.41.02.02 0 0 0 .04.01l.1-.09c.07-.08.18-.1.31-.06l-.05.05a.33.33 0 0 0-.19.12l-.43.55c-.22.19-.42.4-.6.63-.06.09-.13.16-.21.23-.08.06-.1.05-.04-.04l.16-.28s.03-.48-.04-.52a.17.17 0 0 0-.08-.04.07.07 0 0 1-.05-.03l-.06-.09c-.05-.09-.07-.16-.05-.2.02-.06.05-.08.08-.06.24.1.49.13.75.11.04 0 .07-.01.09-.03a.42.42 0 0 0 .04-.06.16.16 0 0 1 .04-.03.21.21 0 0 0 .08-.13.09.09 0 0 0-.05-.1h-.04a.12.12 0 0 1-.08-.04.07.07 0 0 0-.04-.02l-.27-.04a.04.04 0 0 1-.03-.07l.06-.08a.1.1 0 0 1 .05-.03l.26-.11.01-.07.16.11Z" fill="#14111C"/><path d="M7.55 9.2a.05.05 0 0 0-.03.04v.03l.03.02h.08c.06 0 .12.03.18.06h.12a.7.7 0 0 1 .24.19.03.03 0 0 1-.02.03l-.76.14-.05-.21a.33.33 0 0 1 0-.1c0-.04.01-.07.04-.1l.11-.16c.03 0 .05-.01.08-.03a.04.04 0 0 1 .05 0c0 .02.02.03.03.05.01.02 0 .03-.02.03a.2.2 0 0 0-.08.01Z" fill="#CC8776"/><path d="M9.46 9.22v.01c.08.08.12.13.13.16a5.45 5.45 0 0 0 .16.34c.08.01.15.04.2.07l.04.04.05.16c-.04.03-.05.05-.06.08 0 .02 0 .03.02.04.12.07.19.17.22.3a66.42 66.42 0 0 0 .12.54.4.4 0 0 0 .02.33c-.04 0-.08-.03-.11-.07-.01-.01-.02-.02-.04 0h-.02c-.02.02-.02.03 0 .05.02.03.05.04.06.04a.04.04 0 0 1 .03.02.04.04 0 0 1 0 .04c-.02.03-.04.04-.06.04-.02-.03-.06-.03-.1-.02l-.16.07-.13-.48.01-.14c.03-.13.03-.23 0-.28a18.33 18.33 0 0 1-.32-.87l-.14-.25a.2.2 0 0 0-.04-.19c-.01-.01 0-.02.01-.03h.1Z" fill="#E4E2ED"/><path d="M12.7 9.86c0 .03 0 .06-.03.08l-.31-.42a.1.1 0 0 1-.01-.1l.02-.07c.01-.03.03-.03.04 0l.3.51Z" fill="#99A0BA"/><path d="M8.27 9.74a.4.4 0 0 0-.17-.08.04.04 0 0 0-.04.02c-.1.15-.21.26-.36.35h-.05l-.18-.14a.41.41 0 0 1-.08-.18l.76-.14a.03.03 0 0 0 .01-.04.7.7 0 0 0-.23-.18h.18c.02 0 .03.02.04.03l.22.32v.03a.2.2 0 0 1-.1.01Z" fill="#CA725C"/><path d="m6.01 9.44.07.01a.03.03 0 0 1 .02.03.04.04 0 0 1-.01.03l-.7.6c.1-.13.25-.3.43-.55.04-.06.1-.1.19-.12Z" fill="#EEB3A9"/><path d="M9.84 10.84v.14l-.11.56a.02.02 0 0 0 .01.02h.01l.2-.1.18-.07c.03-.01.07 0 .09.02l-.04.04c-.08.02-.16.05-.23.09-.17.05-.27.15-.3.29a.05.05 0 0 0 .05.06l.23-.03-.34.1a.02.02 0 0 1-.01 0v-.01l.05-.37c0-.04-.01-.06-.05-.07h-.06a.05.05 0 0 0-.05.04.7.7 0 0 1-.12.28.04.04 0 0 1-.06 0 1.35 1.35 0 0 1-.33-.5.06.06 0 0 1 .04-.06.82.82 0 0 0 .36-.27c0-.32-.1-.62-.26-.9a.63.63 0 0 1 .1-.58c0-.02.01-.01.02 0 .04.32.17.59.38.82a.52.52 0 0 1 .09.26c0 .09 0 .18.02.27 0 .02.01.03.03.04.05 0 .08-.01.1-.07Z" fill="#25233D"/><path d="M11.36 9.57c.03.03.05.07.07.12 0 .04-.03.06-.12.07 0 0-.02 0-.02-.02v-.02a.23.23 0 0 1 .07-.15Z" fill="#F4F4F5"/><path d="M11.66 10.12c-.03-.04-.07-.06-.1-.06h-.2c-.07 0-.12.02-.15.05a.87.87 0 0 0-.2.27l.2-.4.02-.04.03-.18c0-.02.02-.03.03-.04v.02l.02.02c.09 0 .13-.03.12-.07.12.1.2.25.23.43Z" fill="#99A0BA"/><path d="m11.26 9.76-.03.18-.02.04-.2.4-.18.59a.8.8 0 0 0 0 .55 1.5 1.5 0 0 0-.3 0l-.1-.03c-.02-.01-.03 0-.04.01l-.02.08a.1.1 0 0 0-.03 0 .51.51 0 0 1 .02-.3.4.4 0 0 1-.02-.32 40.6 40.6 0 0 1-.12-.54.48.48 0 0 0-.22-.3.04.04 0 0 1-.02-.04c0-.03.02-.05.06-.08.11-.15.27-.29.45-.3a.8.8 0 0 1 .16.02c.2.03.4.04.6.01l.01.01v.02Z" fill="#191B2E"/><path d="m12.34 9.91-.07.18a.31.31 0 0 1-.2-.01.44.44 0 0 0 .27-.26c0-.02.01-.02.02 0 .01.03 0 .06-.02.09Z" fill="#F4F4F5"/><path d="m12.34 9.91.07.04c.02.07.05.12.1.15l.13-.02.04.01.05.1c.02.04.05.07.08.08a7.33 7.33 0 0 1 .76.4c.04.09.05.16.04.19-.04.18-.04.37 0 .56.02.09.02.16-.02.23v.05l.13.84c0 .02.02.03.04.03l.22.02.01 1.06c-.1.04-.2.06-.28.05a.1.1 0 0 1-.09-.05.57.57 0 0 0-.32-.28c-.07-.03-.2-.03-.4-.02-.43.03-.82-.02-1.22-.15-.23-.08-.5-.21-.74-.03l-.02-.03a.88.88 0 0 1-.01-.39l.05-.19v-.05l.17-.16a.06.06 0 0 1 .05-.02l.38.02c.07.02.14.02.22 0 .08-.22.14-.46.24-.66a25.88 25.88 0 0 1 .5-1.05.12.12 0 0 0-.03-.07.87.87 0 0 0-.34-.26c.06-.07.1-.14.12-.22l.07-.18Z" fill="#14111C"/><path d="M11.66 10.12a.1.1 0 0 1 .02.05v.06c-.01.02-.02.03-.04.02-.05 0-.1 0-.13.02a.02.02 0 0 0 0 .04c.12.09.24.16.37.2h.04a.1.1 0 0 0 .04 0l.03-.02v-.03l.05-.04c.02 0 .03 0 .04.02v.04c-.2.5-.3 1.01-.29 1.55v.14a.03.03 0 0 1-.03.03.03.03 0 0 1-.03 0l-.22-.13c-.08-.05-.14-.07-.19-.06-.09 0-.15.03-.19.08v.06a.04.04 0 0 0 .03.01.04.04 0 0 0 .04-.02c.01-.04.04-.06.06-.07l.08.01a.9.9 0 0 1 .32.23v.03a.24.24 0 0 1-.1.01l-.38-.02c-.02 0-.04 0-.05.02l-.16.16-.02.05-.04.2a.88.88 0 0 0 .01.38c-.05.01-.1 0-.13-.04a7.57 7.57 0 0 0 .02-.51c0-.08.03-.15.08-.2a.07.07 0 0 0 .01-.05l-.01-.24a9.42 9.42 0 0 1 .02-.42l.03-.02c.02-.05-.01-.1-.1-.14a.8.8 0 0 1-.01-.55l.19-.59a.87.87 0 0 1 .19-.27c.03-.03.08-.04.14-.04l.2-.01c.04 0 .08.02.1.06Z" fill="#F4F4F5"/><path d="M12.07 10.08c.07.02.14.03.2.01a.56.56 0 0 1-.12.22.42.42 0 0 1-.07.17v-.04c-.01-.02-.02-.02-.04-.02l-.05.04v.03l-.03.02a.1.1 0 0 1-.04 0h-.04a1.17 1.17 0 0 1-.37-.2v-.04c.04-.02.08-.03.13-.02.02 0 .03 0 .03-.02v-.06l.05.04c.02 0 .03 0 .05-.02a1 1 0 0 1 .3-.11Z" fill="#99A0BA"/><path d="M4.66 10.13c.3.18-.15.13.16.41v.04l-.12.07-.07.06a.03.03 0 0 1-.03.01.03.03 0 0 1-.03-.02.45.45 0 0 1 0-.27v-.05a.38.38 0 0 1-.02-.2c.02-.05.05-.07.11-.05Z" fill="#AA6E64"/><path d="M12.15 10.31c.14.07.26.15.34.26a.13.13 0 0 1 .01.14c-.16.32-.33.65-.48.98-.1.2-.16.44-.24.66.02-.1.03-.21.01-.32a3.87 3.87 0 0 1 .36-1.72Z" fill="#25233D"/><path d="M6.15 11.05c.1.13.16.23.18.32.09.28.17.48.25.59l.42.61c.05.06.1.12.16.16.1.07.21.13.35.2 2.43-.97 3.1.11 3.1.16.42.21.45.34.67.49l.2.41H5.95c-.08-.12-.15-.2-.22-.2a1.17 1.17 0 0 1-.35-.14.04.04 0 0 1 0-.04l.02-.01a6.1 6.1 0 0 0 1.38-1l-.06-.16c0-.02-.02-.03-.04-.03l-.44.09h-.27c-.01 0-.03 0-.03-.02l-.04-.1c0-.02 0-.03.02-.03l.63-.15c.02 0 .02-.02.01-.04a.04.04 0 0 0-.03-.03h-.27c-.1-.01-.1-.03-.02-.07a1 1 0 0 1 .13-.04c.12-.04.12-.07 0-.1a3.96 3.96 0 0 0-.35-.07.04.04 0 0 1 0-.04l.2-.5a.06.06 0 0 0-.02-.08l-.51-.26a.51.51 0 0 1-.16-.13l.01-.03.17-.03a.06.06 0 0 0 .05-.08l-.05-.13c-.02-.07 0-.08.04-.03.14.15.27.32.41.5Z" fill="#030205"/><path d="m9.83 10.98.13.48-.2.1h-.02a.02.02 0 0 1-.01-.02l.1-.56Z" fill="#8891B4"/><path d="M10.36 11.29c-.04.1-.04.2-.02.3 0 .1-.02.22-.08.32a.05.05 0 0 1-.04.02c-.1 0-.2-.03-.28-.1v-.3l.25-.08.03-.04c.02 0 .04 0 .06-.04a.04.04 0 0 0-.03-.06c-.01 0-.04-.01-.07-.04v-.04l.03-.02h.04c.03.05.07.08.11.08Z" fill="#EEB3A9"/><path d="M10.84 11.52c.09.05.12.1.1.14a.35.35 0 0 0-.22-.03c-.01 0-.02.02-.01.03l.06.2a.54.54 0 0 1-.15-.13c-.01-.02-.03-.02-.04-.01a.28.28 0 0 0-.1.06c-.08.1-.11.1-.1-.03v-.17l.01-.08c0-.01.02-.02.03-.01l.12.03h.3Z" fill="#EC9282"/><path d="M9.95 11.54v.29l-.02.03-.23.03a.05.05 0 0 1-.06-.04v-.02c.04-.14.14-.24.3-.3Z" fill="#8891B4"/><path d="M10.37 11.58v.17c0 .12.03.14.1.03a.28.28 0 0 1 .1-.06h.05c.04.06.09.1.15.14-.05.05-.05.1-.02.14.01.01.02.03.01.05 0 .06-.03.1-.09.1l-.11.03-.15.09a.9.9 0 0 1-.23.1.08.08 0 0 1-.1-.06l-.14-.44h-.01l.01-.04c.08.07.17.1.28.1h.02l.02-.02c.05-.1.08-.21.08-.33a.1.1 0 0 1 .03 0Z" fill="#CA725C"/><path d="M11.8 12.03a.8.8 0 0 1-.02.32.33.33 0 0 1-.22 0h.1v-.04a.9.9 0 0 0-.32-.23c-.04-.01-.07-.02-.08-.01-.02 0-.05.03-.06.07l-.02.01-.02.01a.04.04 0 0 1-.03-.01v-.06c.04-.05.1-.07.2-.08.04 0 .1.01.18.06a147.4 147.4 0 0 1 .25.13.03.03 0 0 0 .02-.03l.01-.14Z" fill="#B3AFC3"/><path d="m10.92 13.14.02.03c.03.09.06.14.1.15.2.07.3.08.44.23v.04c0 .02-.02.04-.05.06l-.15-.07c-.1-.07-.21-.12-.34-.15-.05-.02-.07 0-.04.05l.03.03s.01.02.03.02c.1.06.19.13.25.22l.02.05c0 .02-.01.03-.03.03h-.03a.4.4 0 0 1-.06-.05.09.09 0 0 0-.04-.02.36.36 0 0 1-.22-.12.48.48 0 0 0-.16-.09.06.06 0 0 1-.04-.06c0-.16.04-.3.1-.44a.09.09 0 0 0-.04-.12l-.45-.2c-.05-.02-.09-.04-.1-.07-.05-.13.2-.29.3-.35.01-.01.03-.02.05-.01l.34.05c.01 0 .02 0 .02-.02l.02-.23.01.24-.01.04a.35.35 0 0 0-.08.21 7.64 7.64 0 0 1-.02.51c.04.04.08.05.13.04Z" fill="#CC8776"/><path d="M14 13.65v.32a.03.03 0 0 1-.01.02.03.03 0 0 1-.03 0l-.73-.02-.72.02h-.97a.55.55 0 0 0-.09-.17.08.08 0 0 1-.01-.05v-.12a.12.12 0 0 0 .05-.06l-.01-.04c-.13-.15-.24-.16-.44-.23-.04-.01-.08-.06-.1-.15.23-.18.5-.05.74.03.4.13.78.18 1.21.15.2-.01.34 0 .4.02.16.06.27.15.33.28a.1.1 0 0 0 .09.05c.09 0 .18-.01.28-.05Z" fill="#030205"/><path d="M11.43 13.65v.12l.02.05c.04.05.07.1.09.17h-.05l-.2-.42.14.08Z" fill="#91141F"/><path d="M8.14 4.77h.08l.04.02v.02a.12.12 0 0 1-.1.06 4.2 4.2 0 0 1-.38-.05c-.15-.03-.18-.18-.25-.3a.01.01 0 0 1 .02-.02l.33.05.01.02.02.09a.05.05 0 0 0 .1 0l.02-.07a.02.02 0 0 1 .05 0l.02.02a.04.04 0 0 1 0 .04v.1l.04.02Z" fill="#690F19"/><path d="M7.16 5.99a.16.16 0 0 1-.07.04.03.03 0 0 1-.04-.05c.06-.1.09-.2.09-.31v-.01l.02-.01h.01l.01.27c0 .03 0 .05-.02.07Z" fill="#48547E"/><path d="m9.97 7.45-.03-.01h-.02l-.06.2.01.02.04.01h.01l.06-.2v-.02Z" fill="#866051"/><path d="M9.61 8.48a.15.15 0 0 1-.06-.02c-.05-.06-.1-.08-.16-.07-.11.02-.13-.01-.07-.1.05-.08.14-.1.26-.09.14.03.12.21.03.28Z" fill="#29100E"/><path d="M9.61 8.48c.02.04.02.08 0 .1a.04.04 0 0 1-.04.01l-.21-.05c-.02 0-.02-.02-.02-.04v-.02h.02c.07 0 .14 0 .19-.02l.06.02Z" fill="#5A1F28"/><path d="M8.76 8.74c0 .1-.03.18-.07.26h-.04a.18.18 0 0 0-.09-.03c-.01 0-.02.01-.02.04v.01h-.02c-.12-.07-.2-.11-.27-.11a8.04 8.04 0 0 0-.34-.01L8 8.7l.03-.01c.07-.01.15-.02.23-.05l.1-.04c.04-.02.09-.02.14 0a.01.01 0 0 0 .01 0 .28.28 0 0 0-.1-.2.02.02 0 0 1 .01-.05h.03l.02.01.18.18c.01.02.03.02.04 0 .05-.03.1-.01.16.06.07.1.11.17.13.18a.1.1 0 0 1 .03.13l-.04.08c-.01.04-.03.04-.05 0a.73.73 0 0 1-.1-.24l-.02-.02c-.02-.02-.03-.02-.03.01Z" fill="#866051"/><path d="M11.74 9.32c.01-.02 0-.07-.03-.15-.02-.05 0-.07.05-.06l.17-.01c.07-.02.09 0 .07.07l-.03.13a.04.04 0 0 0 .02.04H12c.05.01.09.04.1.09.01.02 0 .03-.02.03l-.03-.01a.08.08 0 0 0-.04-.01l-.37-.02h-.02a.03.03 0 0 1 0-.05l.09-.02c.02 0 .03-.01.03-.03Z" fill="#29100E"/><path d="M12.03 9.53a.01.01 0 0 1 .01 0v.01c0 .03-.02.05-.04.06a.12.12 0 0 1-.08.02l-.09-.02-.04-.01a.11.11 0 0 1-.03-.03.1.1 0 0 1-.02-.03V9.5a.01.01 0 0 1 0-.02l.3.05Z" fill="#5A1F28"/><defs><linearGradient id="a" x1="9" y1="4" x2="9" y2="14" gradientUnits="userSpaceOnUse"><stop stop-color="#2160A3"/><stop offset=".86" stop-color="#4D89CE"/></linearGradient></defs></svg>