<!-- by TradingView --><svg width="18" height="18" viewBox="0 0 18 18" xmlns="http://www.w3.org/2000/svg"><path fill="url(#aank1hyle)" d="M0 0h18v18H0z"/><path fill-rule="evenodd" d="M9 14a5 5 0 1 0-2.9-9.08.83.83 0 0 0-1.43.58c0 .24.1.45.25.6A5 5 0 0 0 9 14ZM4.92 6.1a.83.83 0 0 0 1.41-.6.83.83 0 0 0-.23-.58c-.45.33-.85.73-1.18 1.18Zm1.99.9h4.13l.46 1h-5l.4-1Zm0 1.5h4.13l.46 1h-5l.4-1Zm4.13 1.5H6.9l-.41 1h5l-.46-1Zm2.13 4a.83.83 0 1 0 0-1.67.83.83 0 0 0 0 1.67Z" fill="#00FFE0"/><defs><linearGradient id="aank1hyle" x1="3.35" y1="3.12" x2="21.9" y2="24.43" gradientUnits="userSpaceOnUse"><stop stop-color="#1A1E21"/><stop offset="1" stop-color="#06060A"/></linearGradient></defs></svg>