<!-- by TradingView --><svg width="18" height="18" viewBox="0 0 18 18" xmlns="http://www.w3.org/2000/svg"><path fill="#F0F3FA" d="M0 0h18v18H0z"/><path d="M10.92 3.31a.9.9 0 0 0-.14.55c0 .02 0 .04.02.05a.2.2 0 0 1 .04.13c0 .02-.01.03-.03.04a.05.05 0 0 1-.05 0 2.19 2.19 0 0 1-.27-.13.39.39 0 0 0-.2-.03.7.7 0 0 0-.22.04c-.17.07-.38.1-.63.09-.07 0-.12.03-.18.1a.58.58 0 0 0-.1.44v.23c0 .1-.02.17-.04.23-.02.07 0 .12.06.15.11.06.22.15.34.28a.24.24 0 0 1-.11.15c-.09.06-.18.04-.27-.06a.06.06 0 0 1-.02-.05c0-.06 0-.12.02-.17.01-.1 0-.16-.05-.2-.05-.04-.12-.05-.2-.04-.05 0-.09.04-.1.1a2.1 2.1 0 0 0-.07.19c0 .03-.02.05-.04.06a.23.23 0 0 1-.06.05c-.04 0-.08 0-.12-.03a.17.17 0 0 1-.07-.1.62.62 0 0 1-.02-.24C8.37 5.04 8.3 5 8.16 5c-.07 0-.1.03-.1.09-.01.18 0 .37.04.56 0 .03 0 .05-.02.07a.27.27 0 0 1-.17-.06 4.33 4.33 0 0 0-.78-.5c-.06-.03-.1-.03-.14 0a1.07 1.07 0 0 1-.4-.17.03.03 0 0 1 0-.03c0-.01 0-.02.02-.03a.46.46 0 0 0 .23-.17c.02-.04.02-.07-.01-.1a1.04 1.04 0 0 1-.17-.22c-.04-.07-.14-.11-.3-.11-.1 0-.21.01-.33.05a.58.58 0 0 1-.11.01H5.8c-.17-.08-.36-.1-.57-.07a6.09 6.09 0 0 1 5.68-1.01Z" fill="#00DBEC"/><path d="M11.26 3.44a.89.89 0 0 0-.08.5c.01.11.06.27.14.48.01.02 0 .03-.02.03a2.18 2.18 0 0 1-.62-.16 1.8 1.8 0 0 0-.29-.1 1.02 1.02 0 0 0-.45.02c-.18.05-.32.13-.39.23a.64.64 0 0 0-.1.44c.02.15.07.3.15.44l-.08.16a1.15 1.15 0 0 0-.34-.28c-.06-.03-.08-.08-.06-.15l.05-.23c0-.04 0-.12-.02-.23a.58.58 0 0 1 .11-.44c.06-.07.11-.1.18-.1.25 0 .46-.02.63-.1a.7.7 0 0 1 .22-.03c.1 0 .16 0 .2.03l.27.14h.05a.05.05 0 0 0 .03-.05.2.2 0 0 0-.04-.13.1.1 0 0 1-.02-.05.9.9 0 0 1 .14-.55l.34.13Z" fill="#82E4EE"/><path d="M11.26 3.44c1.1.45 2 1.17 2.7 2.17a22.24 22.24 0 0 1-1.37.08l-.27-.02c-.17-.02-.32 0-.47.07-.13.05-.27.13-.43.25l-.12.03c-.25.07-.5.07-.75-.01-.09-.03-.14-.06-.15-.1-.07-.15-.19-.21-.36-.18-.02 0-.04 0-.06-.02-.02-.01-.03-.03-.02-.05.06-.14.04-.24-.06-.3a.4.4 0 0 0-.3-.04 1.07 1.07 0 0 1-.14-.44.64.64 0 0 1 .1-.44c.06-.1.2-.18.39-.23.17-.04.31-.05.44-.02.06 0 .15.04.29.1a2.19 2.19 0 0 0 .62.16c.02 0 .03 0 .02-.03a2.1 2.1 0 0 1-.14-.48.89.89 0 0 1 .08-.5Z" fill="#CDEDF0"/><path d="M5.24 4.33c.21-.03.4 0 .57.07h.11l.1-.01c.13-.04.24-.05.35-.05.15 0 .25.04.3.11.04.07.09.15.16.22.03.03.03.06 0 .1a.46.46 0 0 1-.22.17.03.03 0 0 0-.03.03c0 .01 0 .02.02.03.12.08.25.14.39.17l.07.07a1.4 1.4 0 0 1-.53-.18c-.07-.05-.1-.14-.11-.26a.43.43 0 0 0-.03-.15.25.25 0 0 0-.14-.12.62.62 0 0 0-.29-.04l-1 .08.28-.24Z" fill="#82E4EE"/><path d="M7.06 5.24a6.6 6.6 0 0 0 .75.93c-.17.2-.31.4-.44.66-.24-.1-.4-.16-.49-.17a4.58 4.58 0 0 1-1.27-.26c-.16-.03-.3-.04-.39-.02-.22.03-.45.06-.68.06-.05-.06-.05-.13 0-.2.09-.02.13-.08.13-.17 0-.1-.04-.27-.12-.5a.91.91 0 0 0-.14-.39v-.05c.16-.2.34-.4.55-.56l1-.08c.1 0 .2 0 .29.04.07.03.12.07.14.12.02.03.03.08.03.15 0 .12.04.2.1.26.1.07.27.13.54.18Z" fill="#CDEDF0"/><path d="M8.41 5.14a.32.32 0 0 0-.36-.04c0-.06.04-.09.1-.09.14 0 .23.04.26.13Z" fill="#416768"/><path d="M8.41 5.14c0 .1 0 .18.02.25.01.04.03.07.07.1l.12.02.06-.05a.12.12 0 0 0 .04-.06l.06-.2c.02-.05.06-.08.1-.1.05.04.1.05.13.06a.1.1 0 0 1 .07.04.1.1 0 0 1 .01.08c-.02.1-.03.2-.01.28a.34.34 0 0 1-.2.02.1.1 0 0 1-.06-.02l-.05-.05c-.03-.02-.05-.02-.07 0-.1.06-.2.04-.28-.06h-.04l-.09.08c-.08-.01-.13 0-.16.02l-.02.1v.1a.1.1 0 0 0-.03-.02c.02-.02.03-.04.02-.07a2.54 2.54 0 0 1-.05-.56.32.32 0 0 1 .36.04Z" fill="#E6573A"/><path d="m9.52 5.48.08-.16c.1-.03.2-.01.3.05.1.05.12.15.06.3-.08.22-.2.44-.34.63-.02.03-.02.06 0 .09l.17.2c0 .1.04.17.12.2.04.13.14.23.3.3l.56.18.6.08c.2.02.4.07.6.13.3.12.6.28.84.47a.7.7 0 0 1-.29 0 12.8 12.8 0 0 0-.27-.07 2.48 2.48 0 0 0-1.1.1 3.2 3.2 0 0 1-.7.14 403.07 403.07 0 0 1-.6.02l-.08-.03c-.03 0-.04 0-.02.02a.3.3 0 0 0 .1.12l-2.69.55c-.02 0-.03 0-.03-.03v-.16a2.41 2.41 0 0 1-.01-.43v-.32a4 4 0 0 1 .4-1.22c.09-.16.19-.29.31-.38.02-.02.04-.02.06 0 .06.04.1.09.14.14.03.06.09.13.17.21l.14.16c.03.04.08.07.15.08.03.01.06 0 .08-.02a.09.09 0 0 0 .03-.08 1.9 1.9 0 0 0-.26-.87l.36-.03a.1.1 0 0 1 .06.02l.14.04c.04 0 .1.02.15.05l.14.08.15.12c0 .04.03.09.1.13h.03l.01-.02.03.01.05-.01c.15-.17.27-.35.35-.55.06-.17 0-.28-.16-.34-.07-.02-.13 0-.16.07l-.13.2c-.14.07-.26.04-.38-.1a.65.65 0 0 1 .01-.27.1.1 0 0 0-.01-.08.1.1 0 0 0-.07-.04.39.39 0 0 1-.13-.05c.1-.01.16 0 .2.04.05.04.07.1.06.2l-.02.17c0 .02 0 .04.02.05.1.1.18.12.27.06.06-.03.1-.09.1-.15Z" fill="#965D39"/><path d="m8.08 5.73.03.01.22.14c.16.25.25.54.27.87 0 .04 0 .06-.03.08a.09.09 0 0 1-.08.02c-.07-.01-.12-.04-.15-.08a1.5 1.5 0 0 0-.14-.16 1.16 1.16 0 0 1-.17-.2.48.48 0 0 0-.15-.16h-.05c-.12.1-.22.23-.31.4a4 4 0 0 0-.36.9c-.02.1-.03.2-.03.31l-.02.32.01.43-.03.7c0 .01 0 .02-.02 0h-.01l-.02-.13.04-.68c0-.04-.02-.07-.07-.07h-.35a8.59 8.59 0 0 1-1.39-.07.11.11 0 0 0-.06-.06l-.06.01-.17.11-.07.02a.54.54 0 0 0-.18-.13.07.07 0 0 1-.03-.03l-.17-.33.01-.05.08-.1.02-.1c.08.07.2.11.34.13.1.03.17.04.21.02.14-.06.29-.1.44-.11.02 0 .03-.02.03-.04 0-.05.03-.09.09-.1.18-.01.3-.03.36-.06.28-.16.65-.33 1.1-.51.1-.04.15-.11.16-.2a3.11 3.11 0 0 1 .44-.68 6.6 6.6 0 0 1-.75-.9l-.07-.08c.04-.03.08-.03.14 0 .25.13.52.3.78.5.05.04.1.06.17.06Z" fill="#443023"/><path d="M4.55 5.56c.08.24.12.4.12.5 0 .1-.04.16-.13.18-.14.02-.28.08-.42.16.03-.05 0-.07-.08-.07l-.01-.03h.02l.44-.24c.05-.02.06-.05.05-.1V5.9c-.02-.05-.04-.06-.07-.02a.35.35 0 0 1-.29.1c-.06 0-.1-.04-.1-.1a.48.48 0 0 0-.06-.2l.32-.44c.03-.03.05-.03.07 0l.14.32ZM9.91 5.72c-.07 0-.1.01-.12.06-.02.07-.06.1-.14.1-.11 0-.18-.08-.2-.23.05-.06.1-.13.13-.2.04-.07.1-.1.17-.07.16.06.22.17.16.34Z" fill="#E6573A"/><path d="M9.08 5.56c.12.13.24.16.38.09.01.15.08.23.2.24.07 0 .11-.04.13-.1.02-.06.05-.08.12-.07-.08.2-.2.38-.35.55a.05.05 0 0 1-.05.01h-.03a.52.52 0 0 0-.14-.12l-.15-.12c.11-.11.06-.18-.14-.22 0 0-.02 0-.02.02v.02c0 .02-.01.03-.03.03-.08.01-.11 0-.1-.06.06-.04.05-.08-.03-.1-.04-.01-.07 0-.08.05-.05.07-.08.05-.1-.05 0-.02-.02-.03-.04-.03l-.28-.02a.16.16 0 0 1-.06-.03.34.34 0 0 1-.02-.12l.1-.08h.03c.09.1.18.12.28.05.02-.01.04 0 .07.01l.05.05a.1.1 0 0 0 .05.02c.07.02.14 0 .2-.02Z" fill="#FFF73C"/><path d="m8.3 5.53.01.12h-.07a.04.04 0 0 0-.02.03l-.01.03c0 .03.01.04.04.03.04 0 .08-.02.12-.06l.28.02c.02 0 .04.01.04.03.02.1.06.12.1.05 0 .04.04.06.11.05-.01.05.02.07.1.06.02 0 .03-.01.03-.03v-.02l.02-.02c.2.04.25.1.14.22l-.14-.08a.4.4 0 0 0-.15-.05.33.33 0 0 1-.14-.04.1.1 0 0 0-.06-.02l-.36.03-.23-.14v-.1c0-.04 0-.07.02-.09.03-.03.08-.03.16-.02Z" fill="#FDC93F"/><path d="M14.1 5.86a2.8 2.8 0 0 0-.73-.17.94.94 0 0 0-.45.1c-.18.07-.36.05-.55-.08a.12.12 0 0 0-.05-.02.29.29 0 0 0-.2.05.6.6 0 0 1-.2.08c-.17.05-.34.1-.5.17.16-.12.3-.2.43-.25.15-.06.3-.09.47-.07a11.63 11.63 0 0 1 .53.03c.36-.02.73-.05 1.1-.1l.16.26Z" fill="#82E4EE"/><path d="m8.31 5.65.06.03a.16.16 0 0 1-.12.06c-.03 0-.04 0-.04-.03v-.03l.03-.02c.02-.01.05-.01.07 0Z" fill="#E6573A"/><path d="M9.96 5.66c0 .02 0 .04.02.05.02.02.04.02.06.02.17-.03.29.03.36.19.01.03.06.06.15.09.25.08.5.08.75.01.1.11.25.25.47.41l.3.24c.06.06.12.15.18.26-.7-.14-1.22-.22-1.55-.23h-.75c-.02 0-.04.01-.05.04a.5.5 0 0 0-.1-.15l-.18-.2c-.02-.03-.02-.06 0-.09.15-.2.26-.4.34-.64Z" fill="#00FBFE"/><path d="m4.02 5.68.06.2c0 .06.04.1.1.1.11.01.2-.03.29-.1.03-.04.05-.03.06.02l.01.06c.01.05 0 .08-.05.1l-.44.23-.02.01v.02h.01c.08 0 .1.03.08.08-.16.15-.3.13-.45-.04-.02-.04-.02-.08.02-.11.06.03.13.02.2-.03.14-.09.15-.21.01-.37a.52.52 0 0 1 .12-.17Z" fill="#FDC93F"/><path d="M14.1 5.86c.19.28.35.6.5.95-.4.08-.75.11-1.06.11-.36 0-.63 0-.8.02h-.49c-.06-.12-.12-.21-.18-.27a3.43 3.43 0 0 0-.3-.24c-.22-.16-.38-.3-.47-.4l.12-.04c.16-.07.33-.12.5-.17a.6.6 0 0 0 .2-.08.29.29 0 0 1 .2-.05l.05.02c.19.13.37.15.55.07.16-.07.32-.1.45-.1.24.03.49.08.74.18Z" fill="#00DBEC"/><path d="M3.9 5.85c.14.16.13.28 0 .37-.08.05-.15.06-.21.03l.21-.4ZM9.44 6.1c.04 0 .08 0 .09-.03 0-.03-.02-.06-.06-.07-.04 0-.08 0-.09.03 0 .03.02.06.06.07Z" fill="#E6573A"/><path d="M4.54 6.24c-.05.07-.05.14 0 .2.04.1.05.16.03.2l.38.96c.03.07.08.1.16.09l.64-.1c-.06.02-.09.06-.1.11 0 .02 0 .03-.02.04-.15.02-.3.05-.44.1-.04.03-.12.02-.21-.01H5c.02 0 .02-.01.01-.02l-.49-1.1c0-.03-.02-.04-.05-.03l-.17.08c-.03.01-.04.04-.02.07l.09.18c0 .02.01.03.03.04l.03.03c.02 0 .03.02.04.04.08.18.14.37.17.58l-.02.1a12.62 12.62 0 0 0-.46-1.05.32.32 0 0 1-.09-.17c0-.03-.02-.04-.05-.03-.15.03-.26 0-.35-.12-.03-.06-.03-.08 0-.07.14.17.3.19.45.04.14-.08.28-.14.42-.16Z" fill="#965D39"/><path d="M5.61 6.4c-.06 0-.11.01-.17.03a.42.42 0 0 0-.14.09c-.14.12-.39.16-.73.12.02-.04.01-.1-.03-.2.23 0 .46-.03.68-.06.1-.02.23-.01.4.02Z" fill="#82E4EE"/><path d="M9.04 6.56c.08.03.15.02.17-.03.02-.04-.03-.1-.1-.13-.08-.03-.15-.02-.17.02-.02.04.03.1.1.14Z" fill="#443023"/><path d="M3.67 6.43c.09.12.2.15.36.12.02-.01.04 0 .04.03.01.07.04.13.09.17l.1.16.36.9-.08.09c-.01.02-.02.03 0 .05l.16.33.03.03c.08.04.14.09.18.13l.3.69a.62.62 0 0 1-.37.18 1.86 1.86 0 0 1-.5-.04A2.69 2.69 0 0 1 3 8.78a5.7 5.7 0 0 1 .59-2.36c.01-.03.04-.03.08.01Z" fill="#70CDD1"/><path d="M5.61 6.4c.41.15.84.24 1.27.26.09.01.25.06.5.17a.25.25 0 0 1-.17.2c-.45.18-.82.35-1.1.5a.94.94 0 0 1-.36.07l-.64.09c-.08 0-.13-.02-.16-.1l-.38-.95c.34.04.59 0 .73-.12.06-.05.1-.08.14-.09a.63.63 0 0 1 .17-.03Z" fill="#00FBFE"/><path d="M9.9 6.74v.05c-.07-.03-.11-.1-.1-.2l.1.15Z" fill="#443023"/><path d="M4.98 7.83a.67.67 0 0 1-.34-.13c-.03-.2-.09-.4-.17-.58a.13.13 0 0 0-.04-.04l-.03-.03a.07.07 0 0 1-.03-.04.54.54 0 0 0-.09-.18c-.02-.03-.01-.06.02-.07l.17-.08c.03 0 .04 0 .05.02l.5 1.1c0 .02 0 .03-.02.03h-.02Z" fill="#FDC93F"/><path d="M14.6 6.81c.23.6.37 1.25.4 1.93a3.41 3.41 0 0 1-.65-.17.78.78 0 0 0-.38-.03c-.44.06-.9.02-1.37-.1-.21-.06-.4-.16-.55-.3a38.78 38.78 0 0 0 .8.03c.06-.03.08-.06.07-.1a.1.1 0 0 0-.04-.06l-.07-.06c-.25-.2-.53-.35-.85-.47l.46-.13c.13-.05.26-.08.4-.11l.4-.12c.05-.01.13-.03.24-.03l.1-.01c.02 0 .03-.02.03-.03v-.03c0-.02-.01-.03-.04-.03l-.82-.05.81-.02c.31 0 .67-.03 1.05-.1Z" fill="#70CDD1"/><path d="M4.96 8.3a.21.21 0 0 1-.2-.06c-.04-.04-.08-.11-.14-.21 0-.03-.02-.04-.02-.05a.06.06 0 0 1 0-.06c.05-.1.2-.1.46.02.12.05.16.13.13.23 0 .02-.01.04-.03.05a.5.5 0 0 1-.2.09Z" fill="#965D39"/><path d="m12.81 7.95.07.06a.1.1 0 0 1 .03.05c.01.05 0 .08-.05.11-.03.01-.08.02-.15.01-.22 0-.44-.02-.66-.04-.33-.03-.61 0-.85.08-.22.07-.36.1-.44.1-.2-.04-.4-.04-.6 0-.01 0-.02 0-.02.03v.26c-.07-.2-.16-.31-.28-.36a.3.3 0 0 1-.11-.12c-.02-.02-.01-.03.02-.02l.08.03c.01.01.03.02.05.01l.55-.03a3.2 3.2 0 0 0 .83-.18c.28-.08.6-.1.96-.06l.28.07c.1.02.2.02.3 0Z" fill="#443023"/><path d="M12.05 8.14c.15.14.34.24.55.3.48.12.93.16 1.37.1.14-.02.26 0 .37.03.22.08.43.14.66.17v.23a461.1 461.1 0 0 0-.94-.2 3.75 3.75 0 0 0-.52-.08c-.48-.05-.97-.13-1.47-.26-.3-.07-.53.03-.66.29-.04.06-.07.1-.12.12a.16.16 0 0 1-.08 0 .2.2 0 0 0-.1 0 11.4 11.4 0 0 0-.24-.17.32.32 0 0 0-.21-.03c-.16.03-.3.1-.43.18a.04.04 0 0 1-.05 0 .04.04 0 0 1-.02-.04c0-.08 0-.13-.03-.17v-.26c0-.02.02-.03.04-.04.2-.03.4-.03.6 0 .07.02.21-.02.44-.1.23-.07.51-.1.84-.07Z" fill="#A0F9FA"/><path d="M10.13 8.6c.03.05.04.1.03.18 0 .02 0 .04.02.05h.05c.13-.1.27-.16.43-.19.06-.02.14 0 .21.03l.2.14.04.03c.03.1.08.17.15.2.02.01.04.02.06 0 .2-.07.4-.03.57.12l.12.17c.02.05.05.08.09.1a.57.57 0 0 0 .16.05c.13.03.24.12.34.27.05.1.07.2.07.27 0 .1-.07.17-.18.23a.11.11 0 0 1-.04.03c-.04-.03-.05-.06-.01-.1.05 0 .09-.02.12-.05a.15.15 0 0 0 .07-.11.38.38 0 0 0-.1-.3.63.63 0 0 0-.27-.2l-.2-.06a.07.07 0 0 1-.04-.04.74.74 0 0 0-.13-.2c-.16-.18-.36-.23-.58-.14-.06.02-.1 0-.14-.06a.75.75 0 0 0-.29-.31.34.34 0 0 0-.3-.04.98.98 0 0 0-.35.2.14.14 0 0 0-.05.11l.03 1.03c0 .15 0 .37-.04.66 0 .02 0 .03.03.04l.15.03h.01v.02c-.3 0-.5.13-.63.38a.06.06 0 0 0 0 .06l.04.07h-.01c-.34-.16-.64-.11-.9.15-.03.03-.04.02-.02-.01v-.03a.09.09 0 0 0 0-.07.09.09 0 0 0-.05-.05c-.27-.05-.45.03-.57.24h-.01v-.02a.27.27 0 0 0 .04-.12c0-.02 0-.04-.03-.05a.3.3 0 0 0-.3.01c-.02.02-.04.01-.06 0a1.3 1.3 0 0 0-.48-.38.12.12 0 0 1-.07-.08c-.13-.4-.2-.83-.23-1.28 0-.03-.02-.05-.05-.06-.02 0-.02-.02 0-.03.04-.05.05-.1.03-.19l.01.01c.02.02.02.01.03 0l.02-.7.01.16c0 .02.01.03.03.03l2.7-.55c.12.05.21.17.27.36Z" fill="#734927"/><path d="m5.28 8.36.01.06.01.09a431.7 431.7 0 0 1 1.12 2.6l-.02.05c0 .02-.01.03-.03.04-.06.06-.14.07-.21.03-.05-.03-.08-.1-.1-.21a.38.38 0 0 0-.05-.15 38.1 38.1 0 0 0-1.03-2.45l.18-.1a.06.06 0 0 1 .05-.02c.03.01.05.03.07.06Z" fill="#FFF73C"/><path d="M7.04 9.18a3.1 3.1 0 0 0-1.42 0l-.33-.76-.02-.06.58.07a8.59 8.59 0 0 0 1.16 0c.05 0 .07.03.07.07l-.04.68Z" fill="#A0F9FA"/><path d="M15 8.97c0 .43-.04.87-.13 1.3-.56.11-1.13.13-1.7.04-.06-.16-.2-.16-.44.02-.15.01-.23-.02-.24-.08.11-.06.17-.14.18-.23a.55.55 0 0 0-.07-.27c.15-.14.27-.27.36-.4.08-.1.11-.23.09-.36a.08.08 0 0 0-.03-.05 1.92 1.92 0 0 0-1.34-.47l-.06.03-.21.22c.13-.26.35-.36.66-.29.5.13.99.2 1.47.26.19.01.36.04.52.08a518.9 518.9 0 0 1 .94.2Z" fill="#CDEDF0"/><path d="M4.98 8.42a38.08 38.08 0 0 1 1.18 2.8c.07.05.14.04.21-.02a.08.08 0 0 0 .03-.04l.02-.06c.05.01.14-.04.25-.15.02-.02.03-.02.01 0a.45.45 0 0 1-.2.2.1.1 0 0 0-.05.04.42.42 0 0 1-.1.12.1.1 0 0 0-.08.03l-.21-.1c-.02 0-.02-.01-.01-.03.03-.05.02-.1-.03-.15l-.32-.8-.48-1.13-.29-.69.07-.02Z" fill="#734927"/><path d="m5.2 9.13.48 1.13c-.35.05-.69.04-1.02-.03a.64.64 0 0 0-.32.01l-.32.12c-.28.12-.57.12-.86.02A5.9 5.9 0 0 1 3 8.78a2.69 2.69 0 0 0 1.4.5c.21.03.36.04.44.03a.62.62 0 0 0 .36-.18Z" fill="#DAECEA"/><path d="M10.91 9.52c.04.02.08.01.1-.02a.56.56 0 0 1 .26-.17v.03l-.25.18a.1.1 0 0 1-.11.01c-.13-.07-.26-.06-.4.04h-.01v-.02c.13-.1.26-.12.41-.05Z" fill="#416768"/><path d="M13.45 9.79c-.04 0-.09 0-.16-.03a.07.07 0 0 1-.03-.02c-.04-.06-.04-.1.01-.1h.06c.05.04.09.06.11.06.03 0 .06-.03.1-.07a.07.07 0 0 1 .06-.03c.05 0 .06.04.03.1l-.03.03a.42.42 0 0 1-.15.06ZM6.64 10.1l-.02-.02c.07-.1.15-.18.25-.24h.02v.03a.72.72 0 0 0-.25.23Z" fill="#696868"/><path d="M11.63 10.42c.06.1.14.19.23.26.02.01.03.02.05.01l.39-.02c.02 0 .04-.01.05-.03.06-.07.1-.16.12-.25l.03-.01.01.03a.5.5 0 0 1-.13.27c-.02.02-.02.03 0 .05.05.04.12.08.2.1.06.02.14.02.25-.01.14-.04.24-.03.3 0 .18.12.34.18.47.19.1 0 .1.02.02.06-.08.04-.17.02-.28-.05a2.84 2.84 0 0 1-.21-.1.36.36 0 0 0-.2-.06c-.07 0-.14.01-.2.03a.26.26 0 0 1-.19-.02 1.5 1.5 0 0 0-.28-.12.62.62 0 0 0-.33-.02l-.06-.01a.8.8 0 0 1-.2-.16.94.94 0 0 0-.28-.15.57.57 0 0 0-.22-.01.4.4 0 0 1-.29-.1 6.1 6.1 0 0 0-.13-.1.93.93 0 0 0-.42-.14c-.1-.01-.1-.02 0-.02.12 0 .23.04.35.1a2.87 2.87 0 0 1 .33.21c.01.01.03.02.05.01.2-.01.38 0 .57.06Z" fill="#416768"/><path d="M6.62 10.08c0 .02.02.02.02.02-.06.16-.09.3-.09.45a.3.3 0 0 0-.18.13c-.04.03-.06.08-.05.14l-.22-.52c.09.04.16.03.22-.02a.07.07 0 0 1 .05-.02h.04a.1.1 0 0 0 .08.03c.03 0 .05-.02.06-.05l.07-.16Z" fill="#CDEDF0"/><path d="m5.68 10.26.32.8-.1.1c-.11.12-.11.28 0 .47l.1.17v.06c-.07.09-.06.18.01.26.02.02.02.04.02.06a.8.8 0 0 0-.03.26c0 .1.05.17.13.23a.43.43 0 0 0 .34.1c.08-.02.15 0 .2.04l.05.03c.17.12.32.2.44.2.23.03.45 0 .66-.06a.27.27 0 0 1 .2 0l.1.05c.16.08.28.12.36.12.12.01.25-.01.38-.07.09-.04.2-.12.34-.22a.08.08 0 0 1 .06-.01c.1 0 .2 0 .3-.03a.1.1 0 0 1 .05 0c.18.05.31.08.4.07.14 0 .26-.04.36-.12a.8.8 0 0 0 .1-.12.88.88 0 0 1 .08-.08.1.1 0 0 1 .06-.03l.16-.02c.03 0 .05-.02.06-.04l.02-.07.05-.05.29-.13c.18-.08.33-.2.46-.37l.06-.04c.04 0 .08.02.1.03a.3.3 0 0 0 .35-.05c.17-.16.28-.25.32-.27a.1.1 0 0 1 .05-.02c.14 0 .23 0 .26-.04l.2-.2c.05-.05.13-.09.25-.12h.04c.02-.01.02-.02.02-.04l-.02-.01h.05c.02-.01.03-.02.02-.05v-.03c.1.07.2.09.27.05.08-.04.07-.06-.02-.06a.96.96 0 0 1-.47-.18c-.06-.04-.16-.04-.3-.01-.1.03-.19.03-.24.02a.74.74 0 0 1-.21-.1c-.02-.03-.02-.04 0-.06a.5.5 0 0 0 .13-.27v-.03h-.04l-.02-.1.04-.03c.01.06.1.09.24.08.03.12.12.19.25.19.1 0 .16-.07.2-.2.56.08 1.13.06 1.7-.05a6.3 6.3 0 0 1-.86 2.03c-.27-.04-.5-.04-.7 0l-1.24.19c-.08.01-.29.07-.62.17l-.62.16a6.2 6.2 0 0 0-.8.23c-.24.08-.53.14-.87.18-.61.06-1.18.1-1.68.1l-.48.04c-.3.03-.6-.01-.85-.12-.04-.01-.18-.1-.44-.26a2.15 2.15 0 0 0-.84-.32c-.05 0-.06.01-.03.05l.07.04c.32.11.61.27.89.46l-.01.05c-.29-.23-.6-.37-.95-.43a2.8 2.8 0 0 0-.54-.33c-.07-.03-.2-.13-.37-.3a5.71 5.71 0 0 1-.78-1.83c.3.1.58.1.86-.02l.32-.12c.1-.03.2-.03.32 0 .33.06.67.07 1.02.02Z" fill="#70CDD1"/><path d="M12.44 10.18c-.04.04-.03.07 0 .1l.03.1a.63.63 0 0 1-.12.26.06.06 0 0 1-.05.03l-.39.02-.05-.01a.86.86 0 0 1-.23-.26c.05-.04.07-.11.05-.2l.01-.05a.05.05 0 0 1 .05-.02l.14.03.22.03.34-.03Z" fill="#CDEDF0"/><path d="M13.18 10.31c-.04.14-.1.2-.2.2-.13 0-.22-.06-.25-.18.23-.18.38-.18.45-.02Z" fill="#696868"/><path d="M12.98 10.43c.08-.02.13-.08.11-.13-.01-.04-.09-.06-.16-.04-.08.03-.12.08-.1.13 0 .05.08.07.15.04Z" fill="#C5D9D5"/><path d="m13.34 11.02.01.03c0 .03 0 .04-.03.04h-.04a.63.63 0 0 0-.35.14c-.15.08-.36.15-.65.2l-.2.05-.52.11c-.46.08-.76.15-.9.2a.78.78 0 0 0-.31.26c-.09.1-.16.17-.21.2-.17.1-.36.17-.58.17l-.11-.01-.42-.35c-.04-.04-.09-.04-.13 0-.11.08-.25.12-.43.1a2.53 2.53 0 0 1-.5-.13 1.73 1.73 0 0 0-.59-.09v-.02c.26-.02.5.01.73.1.31.1.62.09.93-.02l.05.01a.7.7 0 0 0 .54.16c.2-.02.37-.09.54-.2a.98.98 0 0 0 .14-.14c.11-.13.2-.2.28-.23.1-.04.2-.05.3-.06.09 0 .23-.06.44-.17.33-.18.63-.38.93-.62.07.02.17.06.28.12.05.03.11.03.18.02l.21-.03c.07 0 .14.02.2.05.07.04.14.08.21.1Z" fill="#DAECEA"/><path d="M14.24 10.93c.1-.03.18-.08.17-.11 0-.03-.1-.03-.2 0s-.18.08-.17.1c0 .04.1.04.2 0Z" fill="#696868"/><path d="M6 11.06c.05.05.06.1.03.15v.04l.22.09c.31.32.7.5 1.18.52.25-.03.48.03.68.16a1.65 1.65 0 0 0-.72-.1l-.01.01v.01a1.73 1.73 0 0 1 .62.1l.47.12c.18.02.32-.02.43-.1.04-.04.09-.04.14 0l.4.35c-.09-.02-.15-.05-.2-.08A3.32 3.32 0 0 0 9 12.1a.05.05 0 0 0-.06 0c-.01 0-.02.01-.02.03-.1.12-.23.17-.37.14l-.62-.14a.96.96 0 0 0-.57.05c.02.17 0 .25-.07.23-.23-.1-.47-.16-.7-.2-.09-.08-.16-.18-.22-.3l-.35-.19a.52.52 0 0 1-.12-.56l.1-.1Z" fill="#CDEDF0"/><path d="m13.28 11.1.02.01c0 .02 0 .03-.02.03l-.04.01a.56.56 0 0 0-.25.13l-.2.19c-.03.03-.12.05-.26.04a.1.1 0 0 0-.05.02c-.04.02-.15.11-.32.27a.3.3 0 0 1-.34.05c.03-.03.1-.04.17-.03.02 0 .04 0 .05-.02l.34-.28c.04-.04.08-.06.12-.06.18.02.32-.06.43-.23.1-.08.23-.13.35-.13ZM5.9 11.16c-.08.22-.04.4.12.56.02.06.05.1.09.13.02.01.06.02.13.02.05 0 .09.02.13.05.05.11.13.21.22.3.03.04.07.06.13.06v.01l.02.03c0 .01 0 .02-.02.02-.07 0-.16-.04-.25-.12a.84.84 0 0 1-.18-.2.1.1 0 0 0-.05-.04l-.17-.07h-.04a.18.18 0 0 0-.02.07c0 .02.01.05.04.08.03.05.04.12.02.2-.04.14-.02.25.05.32.14.12.28.15.45.1l.05.01c.29.33.67.4 1.13.24.06-.02.07-.04 0-.07-.12-.05-.2-.15-.26-.31-.03-.07-.08-.1-.15-.1l-.16.02-.02-.02.01-.02.12-.02c.07.02.09-.06.07-.23.04 0 .07.02.08.07.03.14.1.27.18.39.06.1.17.18.31.25l.43.18c.22.04.42 0 .6-.14.08-.06.16-.12.25-.16a.09.09 0 0 1 .06-.01l.22.01c.14 0 .24.01.3.03.14.04.24.05.3.03.15-.05.23-.08.25-.11.06-.08.12-.15.18-.2a.09.09 0 0 1 .05-.04.37.37 0 0 0 .28-.18.09.09 0 0 1 .05-.04h.01c.23-.1.39-.17.48-.25l.15-.11c.02 0 .03-.02.04-.04 0-.09.05-.12.13-.12.01 0 .02 0 .03.02v.03l-.03.03a.17.17 0 0 0-.06.04c-.13.17-.29.29-.46.37a55.36 55.36 0 0 1-.34.18l-.03.07a.07.07 0 0 1-.05.04l-.17.02a.1.1 0 0 0-.05.03.88.88 0 0 0-.07.08.57.57 0 0 1-.46.24c-.1 0-.24-.02-.41-.07a.1.1 0 0 0-.06 0 .78.78 0 0 1-.3.03l-.05.01-.34.22a.76.76 0 0 1-.38.07c-.08 0-.2-.04-.36-.12a8.76 8.76 0 0 0-.1-.05.27.27 0 0 0-.2 0c-.22.06-.43.09-.66.06a.98.98 0 0 1-.44-.2 8.28 8.28 0 0 0-.05-.03.29.29 0 0 0-.2-.05.43.43 0 0 1-.34-.1.32.32 0 0 1-.13-.22c-.01-.06 0-.15.02-.26l-.01-.06c-.07-.08-.08-.17-.02-.26a.05.05 0 0 0 0-.06c0-.02-.04-.07-.1-.17-.1-.19-.1-.35 0-.47Z" fill="#416768"/><path d="M12.93 11.23c-.1.17-.25.25-.43.23-.04 0-.08.02-.12.06-.1.1-.22.2-.34.28a.08.08 0 0 1-.05.02c-.08-.01-.14 0-.18.03a.21.21 0 0 0-.1-.03.14.14 0 0 0 .03-.03v-.03a.03.03 0 0 0-.03-.02c-.08 0-.13.03-.13.12 0 .02-.02.03-.04.04a.64.64 0 0 0-.15.1 1.66 1.66 0 0 1-.5.26.09.09 0 0 0-.04.04.37.37 0 0 1-.28.18.09.09 0 0 0-.05.03 1.7 1.7 0 0 0-.18.21c-.02.03-.1.06-.25.11-.06.02-.15.01-.3-.03a1.25 1.25 0 0 0-.3-.03l-.22-.01h-.06c-.09.05-.17.1-.25.17a.73.73 0 0 1-.6.14l-.43-.18a.75.75 0 0 1-.31-.25 1.15 1.15 0 0 1-.18-.39c0-.05-.04-.07-.08-.07a.96.96 0 0 1 .57-.05l.62.14c.14.03.26-.02.37-.14l.16.25c.02.02.02.04.01.06l-.1.23c-.02.08 0 .1.07.06.19-.08.36-.14.53-.18.1-.01.1-.04 0-.07-.07-.02-.08-.04-.03-.06.22 0 .41-.06.58-.17.05-.03.12-.1.2-.2a.78.78 0 0 1 .32-.26c.14-.05.44-.12.9-.2a11.48 11.48 0 0 0 1.37-.36ZM6.37 11.92a.22.22 0 0 0-.13-.05c-.07 0-.11 0-.13-.02a.23.23 0 0 1-.1-.13l.36.2ZM6.6 12.21c.22.04.46.1.7.2l-.12.02c-.02 0-.02.01-.01.02v.02h.01l.16-.01c.08-.01.12.02.15.09.06.16.15.26.27.31.06.03.06.05 0 .07-.47.17-.85.09-1.13-.24a.05.05 0 0 0-.06-.01.43.43 0 0 1-.44-.1c-.08-.07-.1-.18-.06-.32.02-.08.01-.15-.02-.2-.03-.03-.04-.06-.04-.08l.02-.06c.01-.02.02-.02.04-.01l.17.07a.1.1 0 0 1 .05.04c.04.07.1.14.18.2.1.08.18.12.25.12.02 0 .02 0 .02-.02l-.01-.03v-.01c-.07 0-.11-.02-.14-.07Z" fill="#ACD3D6"/><path d="m9.45 12.4.11.02c-.05.02-.04.04.04.06.09.03.09.06 0 .07-.18.04-.35.1-.54.18-.07.04-.1.02-.06-.06l.09-.23v-.06l-.17-.25c0-.02 0-.03.02-.04l.06.01.25.23c.03.03.1.06.2.08Z" fill="#90C1B6"/><path d="m4.85 12.84.95.43v-.05c.3.18.61.28.96.28h.62c.2-.01.35 0 .42.03l.38.16c.11.05.29.08.52.11.2.03.36.06.46.1.4.13.63.2.7.24.27.12.46.35.57.7-.36.09-.73.14-1.1.16a3.08 3.08 0 0 0-2.15-1.1l-.73-.08a1.7 1.7 0 0 1-.62-.2c-.2-.1-.4-.24-.6-.4-.07-.06-.16-.12-.28-.17-.26-.1-.5-.25-.74-.43l-.27-.4c.18.16.3.26.37.3.2.08.37.19.54.32Z" fill="#C5D9D5"/><path d="M14.02 12.3a6.05 6.05 0 0 1-3.59 2.53c-.1-.34-.3-.57-.57-.7l-.7-.24c-.1-.03-.26-.06-.46-.09a2.26 2.26 0 0 1-.9-.27 1.16 1.16 0 0 0-.42-.04h-.62c-.35 0-.66-.09-.96-.27a3.67 3.67 0 0 0-.95-.5c-.03-.04-.02-.05.03-.05.29.05.57.15.84.32.26.16.4.25.44.26.26.11.54.15.85.12l.48-.04c.5 0 1.07-.04 1.68-.1.34-.04.63-.1.87-.18.27-.1.54-.18.8-.23.2-.04.4-.1.62-.16.33-.1.54-.16.62-.17.41-.06.83-.12 1.24-.2.2-.03.43-.03.7.01Z" fill="#90C1B6"/><path d="M9.33 15h-.96a7.02 7.02 0 0 1-1.81-.5 6.3 6.3 0 0 1-2.35-1.88c.23.18.48.32.74.43.12.05.21.1.28.16.2.17.4.3.6.41.23.12.43.19.62.2l.73.07c.88.08 1.59.45 2.15 1.11Z" fill="#DAECEA"/><path d="m5.8 13.27-.95-.43c.35.06.66.2.94.43Z" fill="#ACD3D6"/></svg>