<!-- by TradingView --><svg width="18" height="18" viewBox="0 0 18 18" xmlns="http://www.w3.org/2000/svg"><path fill="#F0F3FA" d="M0 0h18v18H0z"/><path d="m6.4 8.37-.23-.6c-.38.13-1.14.52-1.14 1 0 .62 1.36 2.84 3.17 2.84 1.82 0 2.72-.6 3.63-.8.9-.2 3.17-.61 3.17-1.83 0-.97-2.15-1.35-3.51-1.42l.57.81H6.39Z" fill="url(#au2b12pn3)"/><path d="M14.16 9.09c-.05.54-2 .86-4.38.72s-4.27-.7-4.23-1.23c.04-.54 2-.87 4.38-.73 2.38.15 4.27.7 4.23 1.24Z" fill="url(#bu2b12pn3)"/><path d="M6.95 8.66c-.07-.04-.12-.11-.1-.19.13-.74.99-1.31 2.03-1.31 1.13 0 2.04.68 2.04 1.52l-.01.18c-.01.07-.07.12-.15.14a5.69 5.69 0 0 1-3.8-.34Z" fill="url(#cu2b12pn3)"/><path fill-rule="evenodd" d="M9.34 13.24a.78.78 0 0 0-.12-.37.57.57 0 0 0-.22-.23.12.12 0 0 0-.06-.01c-.02.01-.06.07-.06.19 0 .11.04.25.12.37.07.13.16.2.22.23.03.01.05.02.06.01.02-.01.06-.07.06-.19Zm.1.34c.17-.14.16-.5-.02-.8-.18-.31-.46-.44-.64-.3-.17.14-.16.5.02.8.18.31.46.44.64.3ZM6.63 6.1c.14.06.25.06.33.03.06-.02.1-.06.1-.14.02-.08 0-.2-.1-.32a.85.85 0 0 0-.36-.28.47.47 0 0 0-.32-.04.16.16 0 0 0-.11.14c-.01.08.01.2.1.33.1.13.23.23.36.28Zm-.55-.17c.24.32.66.5.96.39.3-.1.34-.45.11-.76-.23-.32-.66-.5-.95-.4-.3.1-.35.45-.12.77Z" fill="#3C8655"/><path d="M11.15 7.16C10.1 5.98 7.05 3.32 5.1 4.68c-1.94 1.36.24 4.94 1.28 6.12.44.5 1.3 1.26 2.28 1.86-.02.1-.02.2 0 .33a11.26 11.26 0 0 1-2.53-2.15C3.92 8.3 3.34 5.42 4.83 4.36c1.5-1.05 4.32.28 6.55 2.8l.34.4h-.23l-.34-.4Zm2.04 3.3c.4 1.09.43 2.15-.46 2.77-.88.62-2.06.42-3.18-.1.02.12.01.23-.02.32 1.35.63 2.62.75 3.43.19.87-.61.94-1.84.42-3.26l-.2.08Z" fill="#3C8655"/><path d="M6.08 5.93c.08.1.17.18.26.25-.39 1.17.93 3.36 1.41 3.99.56.71 2.88 2.97 4.17 2.14.48-.3.55-.88.43-1.53l.3-.12c.2.91.06 1.64-.46 1.98-1.02.65-3.13-.45-4.7-2.47-1.26-1.62-1.8-3.34-1.44-4.3l.03.06ZM11.34 8a9.6 9.6 0 0 0-.16-.2C9.72 5.92 7.8 4.83 6.72 5.2c.14.06.28.16.39.3 1.33-.3 3.3 1.64 3.81 2.29l.11.15.31.05Z" fill="#3C8655"/><defs><linearGradient id="au2b12pn3" x1="15" y1="9.39" x2="5.03" y2="9.39" gradientUnits="userSpaceOnUse"><stop stop-color="#99C454"/><stop offset="1" stop-color="#4E984D"/></linearGradient><linearGradient id="bu2b12pn3" x1="5.94" y1="8.58" x2="12.5" y2="9.08" gradientUnits="userSpaceOnUse"><stop stop-color="#B8CF52"/><stop offset="1" stop-color="#D7DD50"/></linearGradient><linearGradient id="cu2b12pn3" x1="7.06" y1="8.34" x2="11" y2="9.52" gradientUnits="userSpaceOnUse"><stop stop-color="#A07B58"/><stop offset="1" stop-color="#B9966D"/></linearGradient></defs></svg>