<!-- by TradingView --><svg width="18" height="18" viewBox="0 0 18 18" xmlns="http://www.w3.org/2000/svg"><path fill="#181B1E" d="M0 0h18v18H0z"/><path d="m12.16 12.08-.6-.16c.2-.1.34-.17.47-.36.16-.23.57-.71.42-1-.02-.04-.08-.09-.17-.13a7.3 7.3 0 0 1-.78-.49c-.03-.02-.03-.04-.01-.07.16-.26.33-.5.19-.78a1.1 1.1 0 0 1-.1-.24c-.06-.26-.36-.38-.62-.42a.08.08 0 0 1-.05-.04.08.08 0 0 1 0-.07 4.05 4.05 0 0 1 .68-1.12h.06c.09.05.26.14.37.13a.34.34 0 0 0 .3-.3c.15-.73-.69-.9-1.21-.8l-.5.13a.53.53 0 0 0-.44.08.96.96 0 0 1-.2.1l-.18.06c-.09.04-.14.08-.17.1-.34.3-.57.5-.68.58a.9.9 0 0 0-.15-.35c-.39-.5-.93-.7-1.62-.59-.52.03-.9.27-1.15.73-.1.18-.16.36-.17.56-.05.58-.02 1.13.05 1.72a.48.48 0 0 1-.05.25c-.1.19-.19.39-.26.59-.46.5-.71-.03-.92-.38a4.41 4.41 0 1 1 7.5 2.27Z" fill="#002F4F"/><path d="M11.57 11.92c-.24.24-.52.38-.85.42-.04 0-.06.03-.06.07v.28c0 .03 0 .05.02.06.06.08.1.16.1.25 0 .04-.04.07-.1.08 0-.12-.05-.2-.13-.26a.05.05 0 0 1-.03-.05v-.53a.04.04 0 0 1 .02-.03.04.04 0 0 1 .02 0 1 1 0 0 0 .71-.2c.16-.12.23-.22.4-.28a.59.59 0 0 0 .34-.38c0-.02.01-.04.03-.05.11-.1.41-.52.3-.7-.06-.08-.2-.08-.28-.13a12.94 12.94 0 0 0-.82-.55h.01c.15-.14.26-.3.34-.48.06-.18.04-.24-.09-.38a.08.08 0 0 1-.02-.06c.05-.35-.42-.45-.68-.47a.08.08 0 0 1-.08-.07v-.04c.18-.47.44-.93.79-1.35.03-.04.06-.05.1-.03.17.09.47.3.58.05.1-.22.05-.4-.13-.56-.38-.34-1.14-.17-1.56.02a4.86 4.86 0 0 0-1.47 1l-.25-.04c-.03 0-.04-.02-.02-.04.08-.15.06-.3-.07-.47a1.4 1.4 0 0 0-1.75-.42 1.3 1.3 0 0 0-.81 1.22 6.23 6.23 0 0 0 .1 1.7c-.12.18-.22.38-.3.62-.15.46-.23.93-.25 1.42 0 .1-.05.15-.12.21-.04-.01-.06-.04-.06-.09a.53.53 0 0 0 .05-.15 5.02 5.02 0 0 1 .54-2.1 6.7 6.7 0 0 1-.08-1.66c.03-.34.11-.6.26-.8.2-.27.5-.47.9-.6.7-.12 1.23.07 1.62.58.07.1.12.21.15.35-.01.02-.01.05 0 .07a.08.08 0 0 0 .12.03c.45-.42.97-.76 1.55-1.02l.5-.12c.52-.1 1.36.06 1.22.8a.34.34 0 0 1-.3.29c-.12.01-.29-.08-.38-.12a.09.09 0 0 0-.1.02 4.05 4.05 0 0 0-.65 1.12.08.08 0 0 0 .03.06l.03.02c.26.04.56.16.62.42.02.08.06.16.1.24.14.28-.03.52-.2.78-.01.03 0 .05.02.07.27.2.53.36.78.49.09.04.15.1.17.14.15.28-.26.76-.42 1-.13.18-.27.26-.46.35Z" fill="#fff"/><path d="M7.17 6.34c-.4.14-.7.34-.9.6-.15.2-.23.47-.26.8a6.7 6.7 0 0 0 .08 1.72c-.33.64-.5 1.33-.54 2.05 0 .03-.01.08-.05.15a.91.91 0 0 1-.22-.29c.14-.39.24-.79.3-1.18.08-.2.17-.4.27-.59a.48.48 0 0 0 .05-.25c-.07-.6-.1-1.14-.05-1.72.01-.2.07-.38.17-.56.25-.46.63-.7 1.15-.73ZM10.61 6.36A5.65 5.65 0 0 0 9.03 7.4a.08.08 0 0 1-.1-.05l.01-.07c.1-.08.34-.27.68-.58a1.01 1.01 0 0 1 .35-.17.96.96 0 0 0 .2-.1c.14-.09.3-.11.44-.07Z" fill="#110F0D"/><path d="M10.69 13.08c-.01.02-.04.03-.09.03a.3.3 0 0 0 0-.12.04.04 0 0 0-.04-.03.04.04 0 0 0-.04.01.47.47 0 0 1-.32.13c-.45 0-.73-.05-1.32-.13a9.19 9.19 0 0 1-3.1-.98l-.22-.24c.07-.06.12-.1.12-.2.02-.5.1-.97.25-1.43.08-.24.18-.44.3-.62a6.23 6.23 0 0 1-.1-1.7c.02-.58.29-.98.8-1.22A1.4 1.4 0 0 1 8.7 7c.13.17.15.32.07.47-.02.02-.01.03.02.04l.25.05c.02 0 .03 0 .05-.02.4-.41.88-.74 1.42-.99.42-.2 1.18-.36 1.56-.02.18.16.23.34.13.56-.11.25-.41.04-.58-.05-.04-.02-.07 0-.1.03a4.53 4.53 0 0 0-.79 1.39.09.09 0 0 0 .04.06l.04.01c.26.02.73.12.68.47 0 .02 0 .04.02.06.13.14.15.2.09.38a1.19 1.19 0 0 1-.35.48.03.03 0 0 0 0 .03h.01c.3.19.58.36.81.52.08.05.22.05.28.13.11.18-.19.6-.3.7a.13.13 0 0 0-.03.05.59.59 0 0 1-.34.38c-.17.06-.24.16-.4.28a1 1 0 0 1-.72.2.04.04 0 0 0-.02.02v.54c0 .02 0 .04.02.05.08.06.13.14.14.26Z" fill="#110F0D"/><path d="M5.59 10.19c-.07.4-.17.79-.3 1.18a4.15 4.15 0 0 1-.62-1.56c.2.35.46.88.92.38ZM11.57 11.92l.59.16c-.38.4-.82.7-1.3.92-.04.02-.06.02-.08 0a.44.44 0 0 0-.1-.25.1.1 0 0 1-.02-.06v-.28c0-.04.02-.07.06-.07.33-.04.61-.18.85-.42Z" fill="#011D28"/><path d="M10.6 13.11a4.3 4.3 0 0 1-2.01.26.02.02 0 0 0-.02-.02l-.99-.18c-.7-.23-1.3-.62-1.8-1.18a9.99 9.99 0 0 0 3.1.98c.6.08.87.12 1.32.13.12 0 .24-.05.32-.13a.04.04 0 0 1 .07.02.3.3 0 0 1 .01.12Z" fill="#FE2837"/><path d="M8.54 13.39a2.58 2.58 0 0 1-.96-.22l1 .18a.02.02 0 0 1 0 .05l-.04-.01ZM11.15 6.76c.03.04.11.09.25.15a.07.07 0 0 1 .04.08l-.01.03a3.36 3.36 0 0 0-.75 1.34.04.04 0 0 1-.04.01h-.02a4.27 4.27 0 0 0-1.45-.79.04.04 0 0 1 0-.03l.22-.2c.54-.38 1-.7 1.6-.86.27-.07.53-.07.79 0 .24.05.36.23.35.53a.06.06 0 0 1-.03.05c-.08.06-.17.06-.26 0-.18-.11-.4-.23-.67-.34-.05-.02-.05 0-.02.03ZM8.12 7.7a.97.97 0 0 1-.14.15c-.28.23-.5.6-.63.92-.16.37-.21 1.38-.8 1.33a4.97 4.97 0 0 1-.28-2.62.93.93 0 0 1 .26-.48 1.4 1.4 0 0 1 1.87-.15c.12.1.51.52.16.6-.14.04-.32.04-.54.01L6.9 7.32c-.02 0-.03 0-.03.02v.03l.02.01.94.18c.04 0 .08.03.1.07.03.08.1.1.19.08Z" fill="#71352D"/><path d="M9.88 8.57c-.15-.15-.31-.29-.44-.45-.1-.12-.2-.23-.33-.33-.05-.04-.05-.03-.02.02.16.22.36.46.6.71a2.06 2.06 0 0 0-1.64.18c-.14.08-.13.1.02.04.28-.1.44-.16.65-.19.32-.04.93-.03 1.18.25.01.02.03.02.04 0 .02 0 .03-.02.04-.05a.5.5 0 0 1 .15.18h-.1c-.02.02-.02.04-.01.07h-.09c.02-.06-.02-.1-.1-.1a6.53 6.53 0 0 0-1.68.2.09.09 0 0 0-.03.1c.02.06.06.12.12.18.3.33.68.47 1.13.43.4-.04.69-.28.87-.72.19.24.32.47.42.71.12.34.09.6-.17.83-.36.32-1.05.15-1.53.07-.27-.05-.53.02-.84.15-.34.13-.61.22-.97.2a.7.7 0 0 1-.26-.13l-.34-.82c.59.05.64-.96.8-1.33.13-.32.35-.69.63-.92l.14-.14a.94.94 0 0 1 .74-.1c.56.14 1.1.4 1.63.76.04.03.07.07.11.13.01.02 0 .02-.01.03l-.7.04Z" fill="#B45143"/><path d="M9.88 8.57c-.04.04-.1.02-.2-.05a6.2 6.2 0 0 1-.6-.71c-.02-.05-.02-.06.03-.02.13.1.24.2.33.33.13.16.3.3.44.45Z" fill="#fff"/><path d="m10.31 9-.29-.34c.25-.03.48-.04.7-.04.2 0 .39.05.54.14.08.05.12.13.12.24l-.01.02H10.4c-.06-.06-.09-.06-.09-.02Z" fill="#B45143"/><path d="m10.02 8.66.3.34c.32.75.92 1.06 1.57 1.45.05.03.05.05 0 .06l-.48.04a.1.1 0 0 0-.08.05.1.1 0 0 0-.01.1c.06.19.45.45.6.55.02 0 .02.02.02.04-.16.4-.43.42-.81.36a14.48 14.48 0 0 1-2.02-.43l.01.02c.72.28 1.46.45 2.23.53.05 0 .05.02.02.05a.95.95 0 0 1-.8.27 4.13 4.13 0 0 1-.64-.13l-.84-.23a2.56 2.56 0 0 0-.85.02v.02l.01.01a3 3 0 0 1 1.18.13c.4.13.73.22.96.28.02 0 .04.01.04.03v.72c0 .04-.02.05-.06.06-.43.03-.7-.02-1.3-.1-.9-.13-1.8-.38-2.72-.75a3.03 3.03 0 0 1-.46-.23.27.27 0 0 1-.14-.23c0-.22.01-.38.06-.48a2 2 0 0 1 .82-.6 5.05 5.05 0 0 0 .52.84h.02v-.03a1.33 1.33 0 0 1-.28-.5c.12.08.2.12.26.12.36.03.63-.06.97-.2.3-.12.57-.19.84-.14.48.08 1.17.25 1.53-.08.26-.22.3-.49.17-.82-.1-.24-.23-.47-.42-.7l-.1-.17a.5.5 0 0 0-.16-.18.1.1 0 0 1-.03-.05c0-.02 0-.03.02-.04h.05Z" fill="#fff"/><path d="M10.02 9c.1.03.13.1.08.23-.19.43-.69.6-1.12.5-.3-.08-.54-.22-.72-.42a.32.32 0 0 1-.07-.12c0-.03 0-.05.04-.06l.68-.11h.04l.03.04c.07.19.2.29.42.3.25.01.43-.1.53-.36h.09ZM10.83 9.14c.04.38.48.43.6.05.02-.05.05-.06.08-.02l.03.04c.02.04.03.07.02.11-.06.22-.19.4-.38.55h-.04a2.6 2.6 0 0 1-.7-.75l.01-.01h.37v.03Z" fill="#fff"/><path d="M6.63 10.6a2 2 0 0 0-.82.61 3.78 3.78 0 0 1 .46-1.56.02.02 0 0 1 .02 0 .03.03 0 0 1 .02.01l.32.94Z" fill="#B45143"/><path d="m11.78 10.64-.05.01c-.03 0-.03.02-.02.04l.02.01h.02c.14 0 .25 0 .34-.02.07 0 .1.01.15.05.02.03.02.06 0 .08l-.15.27a.1.1 0 0 1-.08.06.1.1 0 0 1-.1-.03c-.05-.08-.06-.14-.17-.19l-.23-.12c-.13-.1-.11-.15.05-.16h.22Z" fill="#71352D"/><path fill-rule="evenodd" d="M9 14A5 5 0 1 0 9 4a5 5 0 0 0 0 10Zm0-.12a4.88 4.88 0 1 0 0-9.76 4.88 4.88 0 0 0 0 9.76Z" fill="#fff"/><path fill-rule="evenodd" d="M9 13.41A4.41 4.41 0 1 0 9 4.6a4.41 4.41 0 0 0 0 8.82Zm0-.13a4.28 4.28 0 1 0 0-8.56 4.28 4.28 0 0 0 0 8.56Z" fill="#fff"/></svg>