<!-- by TradingView --><svg width="18" height="18" viewBox="0 0 18 18" xmlns="http://www.w3.org/2000/svg"><path fill="#F0F3FA" d="M0 0h18v18H0z"/><path d="M4.74 4.3c.26.24.53.46.8.67.07.05.14.12.2.19.09.1.23.16.27.31.02.13.03.22.02.27 0 .03 0 .05.02.07.02.02.04.05.04.08v.03l-.03.03-.28.23c-.11.1-.12.2-.02.3.02.02.02.05 0 .07a.59.59 0 0 0-.1.21c0 .03-.02.05-.05.07a.3.3 0 0 0-.14.23l-.01.04-.03.03c-.2.1-.32.32-.33.64-.07-.06-.1-.17-.09-.34l-.06-.29a.07.07 0 0 1 .01-.05.07.07 0 0 1 .06-.03h.33c.03 0 .04-.01.03-.03-.01-.03-.05-.06-.1-.08-.03 0-.04-.03-.04-.06 0-.01 0-.04.02-.07.02-.02.01-.04-.02-.05l-.08-.05c-.01-.03 0-.05.02-.06.1-.03.12-.08.08-.15a.07.07 0 0 0-.07-.04h-.17L5 6.46l-.02-.02c-.02-.02-.01-.03 0-.03l.22-.05c.08-.02.08-.05 0-.09l-.54-.25a.02.02 0 0 1 0-.03c.21-.16.45-.25.72-.29.02 0 .03-.01.03-.03v-.04c0-.02-.01-.03-.03-.03H4.67l-.01-.02v-.03l.85-.21c.01 0 .02 0 .03-.02v-.05l-.02-.02a3.3 3.3 0 0 1-.7-.55c-.1-.1-.23-.2-.4-.27l-.66-.3c.28-.3.73-.03.98.17Z" fill="#B38089"/><path d="m3.76 4.14.66.3c.17.07.3.16.4.26a3.3 3.3 0 0 0 .72.57v.05l-.03.02-.85.2v.04l.01.02H5.37c.02 0 .03.01.03.03v.04c0 .02-.01.03-.03.03a1.54 1.54 0 0 0-.73.3.02.02 0 0 0 0 .01l.01.01.54.25c.08.04.08.07 0 .09l-.21.05c-.02 0-.03.01 0 .03l.01.02h.2c.04 0 .06.02.08.05.03.07 0 .12-.09.15-.02 0-.03.03-.02.06 0 .01.03.03.09.05.02.01.03.03.01.05a.16.16 0 0 0-.02.07c0 .03.01.05.04.06.05.02.09.05.1.08 0 .02 0 .03-.03.03h-.33a.07.07 0 0 0-.06.03.07.07 0 0 0-.01.05l.06.29-.03.38c0 .01-.01.02-.03.01l-.04-.02-.02-.03.06-.58-.27-.3-.03-.02h-.03l-.02.02v.02a.98.98 0 0 1-.09.35l-.03.01a.02.02 0 0 1-.02 0v-.02a.57.57 0 0 0-.16-.6c-.03-.02-.03-.02-.02.01.08.25.1.5.07.75l-.04-.02v-.52l-.02-.02-.01-.02a.06.06 0 0 0-.05-.01.07.07 0 0 0-.04.03c-.02.03-.01.05 0 .07.06.04.07.12.05.22a.71.71 0 0 0-.34-.13c-.05-.05-.08-.06-.11-.03a3.67 3.67 0 0 0-.1-.7 4.73 4.73 0 0 1-.17-1.55c0-.22.09-.43.24-.6Z" fill="#9B616D"/><path d="M7.9 4.39a6.2 6.2 0 0 0-1.43 1.79l-.16.09c-.24.13-.32.3-.25.5.07.07.16.1.27.07-.09.1-.18.15-.28.13a.28.28 0 0 0-.11 0 .16.16 0 0 0-.1.08.13.13 0 0 0-.05.12c0 .03.01.05.04.06.06.02.12.03.19.02l.02.71v.02h-.01L6 8.02a.05.05 0 0 1-.05.01l-.03-.01-.01-.02-.04-.15c-.01-.05-.02-.05-.03 0l-.08.31v.03l.02.02a.05.05 0 0 0 .04 0c.86-.41 1.72-.5 2.58-.25.06.09.15.14.26.14.03 0 .05.02.07.03.15.14.3.17.46.1.24-.1.46-.22.74-.21h.04l.01.03a.04.04 0 0 1-.01.05h-.02l-.92.32-.82.55.1-.17c.04-.09.04-.1-.02-.01l-.04.07c-.03.06-.08.08-.15.05a.04.04 0 0 1-.02-.03v-.02c-.02-.02-.03-.02-.05 0L8 8.9l-.16-.3c-.15-.33-.41-.48-.78-.45a2.11 2.11 0 0 0-1.36.4.11.11 0 0 0-.02.05l.01.58v.02a.35.35 0 0 1 .04-.24l.16-.24c0 .02-.02.04-.03.05l-.14.46c-.01.03 0 .06.01.08.14.17.34.24.6.24.52 0 .84-.02.94-.06.03 0 .05-.02.07-.04.07-.08.1-.12.2-.15.17-.05.34-.12.5-.2-.19.17-.36.3-.51.36-.29.11-.47.19-.54.23-.18.1-.29.19-.32.25a3.87 3.87 0 0 0-.26 2.03h-.02c-.01.02-.03 0-.04-.03-.1-.36-.12-.71-.08-1.08.03-.28.13-.54.22-.85.04-.12.02-.13-.06-.04-.43.5-.35 1.63-.22 2.22v.03l-.03.03a.02.02 0 0 1-.02 0v-.01c-.14-.44-.2-.88-.18-1.32.02-.24.12-.55.17-.81 0-.04-.01-.06-.05-.05l-.04.01a.08.08 0 0 0-.04.02.08.08 0 0 0-.02.04c-.2.59-.29 1.45.02 2.04.24.47.54.91.88 1.33a4.97 4.97 0 0 1-1.58-1.4c-.3-.47-.49-.88-.75-1.48-.13-.29-.2-.68-.24-.9-.06-.27-.04-.53.06-.79a.1.1 0 0 0 0-.08l-.03-.1a.13.13 0 0 0 0-.1.9.9 0 0 1 .18-.26c.08-.08.15-.16.2-.24.1-.13.22-.26.36-.37.01-.32.12-.54.33-.64l.03-.03.01-.04a.3.3 0 0 1 .14-.23.11.11 0 0 0 .05-.07c.03-.1.06-.17.1-.21.02-.02.02-.05 0-.07-.1-.1-.1-.2.02-.3a7.12 7.12 0 0 0 .3-.26l.01-.03a.14.14 0 0 0-.04-.08.08.08 0 0 1-.02-.07c.01-.05 0-.14-.02-.27-.04-.15-.18-.2-.27-.31a1.24 1.24 0 0 0-.2-.19c-.27-.21-.54-.43-.8-.67.2.1.4.23.56.37.22.19.56.5.84.49.03 0 .05-.02.07-.03.48-.41 1.04-.66 1.7-.74Z" fill="#F1B6DE"/><path d="M13.85 7.56a.36.36 0 0 1-.01-.17.03.03 0 0 0-.03-.04h-.03c-.02 0-.03 0-.03.02-.05.2-.08.4-.1.6 0 .08-.06.23-.15.46l-.44.17a.06.06 0 0 1-.06-.01l-.02-.03v-.03l.14-.45v-.03h-.03l-.25.5a.06.06 0 0 1-.05.03h-.03l-.02-.02a1.6 1.6 0 0 1-.3-1.06c0-.03 0-.05-.03-.07a.23.23 0 0 0-.2-.03l-.04-.33c.13.06.3.08.5.06.07 0 .08-.02.01-.06l-.17-.1.24.1h.01a.04.04 0 0 1 0 .05c-.1.1-.15.24-.15.38l-.04.06.06.65c0 .01 0 .03.02.04l.03.02a.08.08 0 0 0 .08-.01l.56-.54a.09.09 0 0 0 0-.12.1.1 0 0 0-.02-.02l-.13-.06c-.04-.02-.05-.04-.04-.07a1 1 0 0 1 .22-.38c.1-.09.15-.18.18-.27.07-.23.25-.54.52-.93.12-.18.1-.35-.06-.52-.02-.02-.04-.02-.07 0-.08.05-.14.1-.16.15-.08.2-.2.16-.38.16-.11 0-.13.04-.03.1l.2.19c.07.07.05.1-.04.08L13.3 6c-.05 0-.08 0-.1.04l-.03.07a.04.04 0 0 0 0 .04.05.05 0 0 0 .02.02l.08.03c.09.04.08.07-.01.08a2.57 2.57 0 0 1-.7.01l-.01.02c0 .02 0 .03.02.03l.37.12c.06.02.06.04 0 .06l-.13.03-.1-.01c-.14-.07-.26-.07-.37 0-.17-.17.01-.28.13-.38a.13.13 0 0 0 .03-.07c.05-.22-.01-.3.17-.54.38-.5.84-.89 1.51-.94l.03-.01.01-.03v-.02c0-.02 0-.03-.02-.03l-.26-.14c.2-.1.37-.03.5.19l.04.32c.03.27-.06.6-.08.85-.05.43-.22.85-.4 1.2-.1.2-.12.4-.16.62Z" fill="#B38089"/><path d="M11.6 5.53a3.86 3.86 0 0 0-3.23.38.97.97 0 0 1-.32.1 1.47 1.47 0 0 0-.7.31.14.14 0 0 1-.07.03l-.08-.01c-.03-.02-.04-.03 0-.05l.03-.03c.03-.01.04-.04.03-.07-.01-.04-.06-.05-.13-.04a.16.16 0 0 0-.07.02.15.15 0 0 0-.05.06l-.38.73c-.02.05 0 .07.05.07a.2.2 0 0 0 .09-.01.2.2 0 0 0 .1-.09c.07-.12.12-.31.29-.31.03 0 .05.01.05.04l.06.22c.02.07.07.1.14.08l.17-.05a.09.09 0 0 0 .06-.04.08.08 0 0 0 0-.07l-.13-.29c.05-.15.33-.27.48-.34.04-.02.06-.05.04-.1h.13l-.36.72a.1.1 0 0 0 .01.1c.01.02.03.04.05.04h.06c.16-.02.2-.2.25-.33.05 0 .1.01.15.04a.1.1 0 0 1 .04.06c.01.08.07.13.15.16l.02.02c.19.4.15.76-.12 1.07a3.56 3.56 0 0 0-2.6.26l-.02-.01-.02-.02v-.03l.08-.31c0-.05.02-.05.03 0l.04.15.01.02.03.01A.05.05 0 0 0 6 8.01l.02-.02v-.03l-.01-.7c.12-.02.2-.06.22-.13.16-.09.47-.35.33-.54a.07.07 0 0 0-.07-.03h-.15c-.13-.04-.13-.09 0-.14.14-.05.28-.01.42-.15.03-.02.03-.04 0-.06a.16.16 0 0 0-.17-.02 1.1 1.1 0 0 1-.29.08l.16-.1A6.2 6.2 0 0 1 7.9 4.39c.6-.03 1.17 0 1.72.1.54.11 1.05.32 1.53.64.17.11.3.26.45.4Z" fill="#E69AC6"/><path d="m13.95 4.38.26.14c.01 0 .02.01.02.03v.02l-.01.03h-.03c-.67.06-1.13.45-1.5.95-.2.24-.13.32-.18.54 0 .03-.02.05-.04.07-.1.1-.29.21-.12.38l.58.16c.03 0 .03.02 0 .03-.18.05-.34.09-.49.1-.14 0-.14.04-.02.1l.1.04.16.1c.07.04.06.06-.01.06-.2.02-.37 0-.5-.06l-.11-.13c-.22-.44-.35-.9-.38-1.38.43-.15.76-.38 1.2-.66.16-.1.31-.15.48-.21.17-.07.37-.23.59-.3Z" fill="#C7919A"/><path d="m11.6 5.53.08.03c.03.48.16.94.38 1.38a.6.6 0 0 0-.34.44c-.08.45-.19.82-.34 1.11-.39-.31-.88-.4-1.5-.24-.17.05-.34.07-.5.18a.08.08 0 0 0-.03.1c.04.12.12.24.23.35a.07.07 0 0 0 .06.02.07.07 0 0 0 .05-.03c.04-.06.1-.11.17-.14l-.06.22a.1.1 0 0 0 0 .08c.06.08.12.13.2.14.18.03.3.07.37.12.37.23.77.22 1.2-.02a.07.07 0 0 0 .04-.06c.01-.18-.02-.34.2-.42l.53.6c.02.03.01.05-.02.06l-.14.03a.05.05 0 0 0-.04.03.05.05 0 0 0 0 .04l.2.31-.01.08-.02.03a.02.02 0 0 1-.02.01h-.01l-.2-.27a.03.03 0 0 0-.04-.02l-.02.01c-.02 0-.02.03-.01.06l.15.53c0 .02 0 .04-.03.05l-.03.02a.03.03 0 0 1-.03-.01l-.01-.01a1.2 1.2 0 0 0-.25-.51c-.12-.13-.14-.12-.08.04l.19.43v.02l-.02.02c-.02 0-.02.02 0 .03l.3.13c.03.02.03.03-.02.03h-.15a.08.08 0 0 0-.06.03.07.07 0 0 0-.02.06l.07.26c.01.03 0 .04-.03.03l-.07-.03a.09.09 0 0 1-.05-.07 2.86 2.86 0 0 0-.28-.86l-.02-.01a.1.1 0 0 0-.03 0c-.02 0-.03.01-.03.04.06.28.19.58.25.85.06.26.21.74.19 1.02-.03.36-.16.7-.4 1-.01.01-.02.02-.03.01h-.02c-.01-.02-.02-.03 0-.04.22-.37.4-.67.35-1.1a5 5 0 0 1-.07-.5c-.04-.01-.05-.05-.04-.1l-.04-.16c-.11-.25-.2-.5-.29-.76l-.12-.18c-.02-.01-.03-.02-.05 0-.01 0-.02 0-.02.02v.05c.16.42.3.85.4 1.29a1.5 1.5 0 0 1-.43 1.51l-.02-.05a.02.02 0 0 1 0-.02c.36-.44.47-.9.33-1.38-.15-.57-.3-1.08-.48-1.46-.09-.18-.12-.17-.1.02a2.02 2.02 0 0 0 .19.59l-.01.03v.03c.14.5.26.93.34 1.3a.1.1 0 0 1 0 .07 20.83 20.83 0 0 1-.57.95c-.02 0-.03 0-.02-.02a8 8 0 0 1 .27-.7.9.9 0 0 0 .08-.6 12.68 12.68 0 0 0-.5-1.66h-.02l-.02.02v.03a9.84 9.84 0 0 0 .43 1.75l.03.01c.03.01.04.03.02.06-.2.24-.34.5-.43.81a1.04 1.04 0 0 1-.29.4.07.07 0 0 1-.06 0l-.02-.03a.86.86 0 0 1-.16-.58c0-.02 0-.03-.02-.04l-.03-.02h-.01a.02.02 0 0 0-.02.01v.01a.93.93 0 0 0 .01.34v.04c0 .01 0 .03-.02.04l-.07.09a.1.1 0 0 0-.03.07v.06c-.02.03-.04.03-.06 0a.18.18 0 0 1-.04-.1c0-.05-.01-.05-.04-.03-.25.21-.5.36-.76.44-.26.08-.36.18-.4.43l-.01.03-.02.01c-.03.01-.05 0-.05-.02-.13-.52-.7-.37-.78.08l-.46-.13c-.33-.32-.54-.65-.33-1.09l.48-1.1c.08-.21.18-.34.31-.56.18-.28.43-.46.72-.62.29-.16.19-.56.14-.81-.07-.42.18-.82.35-1.18l.92-.32a.05.05 0 0 0 .03-.02.04.04 0 0 0 0-.03l-.01-.02L9.94 8c-.28-.01-.5.11-.74.21-.16.07-.31.04-.46-.1a.12.12 0 0 0-.07-.03.33.33 0 0 1-.26-.14c.27-.31.3-.67.12-1.07.2.06.42.07.64.03.03 0 .05 0 .07.02.07.09.16.13.26.12a.1.1 0 0 0 .04-.01l.03-.03a.5.5 0 0 1 .12-.12.11.11 0 0 1 .08-.02c.16.03.3.08.4.17.03.02.04.05.03.07l.01.12c0 .02.02.03.04.04a.1.1 0 0 0 .05.02h.05a.1.1 0 0 0 .06-.03.09.09 0 0 0 .03-.06v-.55c0-.21-.1-.34-.28-.4-.11-.04-.26.02-.31.09-.12.17-.28.31-.46.42a.08.08 0 0 1-.1-.02.07.07 0 0 1-.02-.03c-.01-.05-.05-.06-.12-.04a.77.77 0 0 1-.45.01c-.03 0-.04-.03-.04-.06 0-.27.2-.49.5-.4l.06.05c.05.09.13.13.24.13a.07.07 0 0 0 .05-.03.06.06 0 0 0 0-.06c-.08-.24-.26-.27-.55-.27-.38 0-.56.33-.54.65 0 .03 0 .05.02.07l.07.1c-.09-.03-.14-.08-.15-.16a.1.1 0 0 0-.04-.06.26.26 0 0 0-.15-.04l.18-.44a.08.08 0 0 0 0-.08.1.1 0 0 0-.06-.04c-.06 0-.1 0-.13.03h-.13l-.08.01c-.06-.03-.15-.02-.26.03.12-.05.24-.08.36-.1a.97.97 0 0 0 .32-.1l.49-.25c.9-.43 1.78-.37 2.74-.13Z" fill="#DE89B3"/><path d="M12.57 7.56c.06.13.09.27.08.4a.07.07 0 0 0 .04.06.07.07 0 0 0 .07 0l.46-.25.03-.03a.08.08 0 0 0 0-.09.09.09 0 0 0-.03-.03l-.18-.08c-.03-.02-.05-.04-.04-.08.02-.11.05-.2.1-.27.06-.08.05-.1-.04-.05-.16.08-.3.2-.45.36 0-.14.05-.27.15-.38v-.05h-.01l-.24-.1a5.14 5.14 0 0 1-.09-.04c-.12-.06-.12-.1.02-.1.15-.01.3-.05.49-.1.03-.01.03-.02 0-.03l-.58-.16c.11-.07.23-.07.37 0 .03.01.06.02.1 0l.13-.02c.06-.02.06-.04 0-.06l-.37-.12c-.02 0-.02-.01-.02-.03l.01-.02h.01c.26.03.49.02.69 0 .1-.02.1-.05.01-.09a1.23 1.23 0 0 0-.1-.04v-.01a.04.04 0 0 1 0-.04l.03-.07c.02-.03.05-.05.1-.04l.2.03c.1.02.1-.01.04-.08a1.46 1.46 0 0 0-.2-.19c-.1-.06-.08-.1.03-.1.19 0 .3.04.38-.16.02-.05.08-.1.16-.16.03-.01.05 0 .07.01.16.17.18.34.06.52-.27.39-.45.7-.52.93a.73.73 0 0 1-.18.27 1 1 0 0 0-.22.38c0 .03 0 .05.04.07l.13.06a.1.1 0 0 1 .05.06.09.09 0 0 1-.03.08l-.56.54a.08.08 0 0 1-.08.02.08.08 0 0 1-.03-.03.07.07 0 0 1-.02-.04l-.06-.65Z" fill="#9B616D"/><path d="m8.53 6.88-.02-.02-.07-.1a.13.13 0 0 1-.02-.07c-.02-.32.16-.65.54-.65.29 0 .47.03.56.27a.06.06 0 0 1 0 .06l-.03.02h-.03a.25.25 0 0 1-.24-.12.11.11 0 0 0-.07-.04c-.29-.1-.5.12-.5.4 0 .02.02.04.05.05.12.04.27.04.45-.01.07-.02.11 0 .12.04 0 .01 0 .02.02.03 0 .01.01.02.03.02a.08.08 0 0 0 .07 0c.18-.11.34-.25.46-.42.05-.07.2-.13.3-.1.2.07.29.2.29.41a15 15 0 0 0 0 .58l-.03.03a.1.1 0 0 1-.06.03h-.05a.1.1 0 0 1-.05-.02.09.09 0 0 1-.04-.04.25.25 0 0 1 0-.12c0-.02-.01-.05-.03-.07a.83.83 0 0 0-.4-.17c-.04 0-.06 0-.09.02a.5.5 0 0 0-.12.12c0 .02-.02.02-.03.03a.1.1 0 0 1-.04.01c-.1 0-.2-.03-.26-.12a.07.07 0 0 0-.07-.02 1.3 1.3 0 0 1-.64-.03Z" fill="#8F7818"/><path d="M8.17 6.6c-.04.13-.09.31-.25.34a.12.12 0 0 1-.11-.04.1.1 0 0 1-.01-.11l.36-.72a.14.14 0 0 1 .12-.03.1.1 0 0 1 .06.04.08.08 0 0 1 0 .08l-.17.44ZM7.95 6.08l-.47.3c-.03.02-.03.04-.02.07 0 .02.02.04.05.06l.13.3a.08.08 0 0 1 0 .06l-.02.03a.09.09 0 0 1-.04.01l-.17.05c-.07.01-.12-.01-.14-.08l-.06-.22c0-.03-.02-.04-.05-.04-.17 0-.23.2-.29.31a.2.2 0 0 1-.1.09.2.2 0 0 1-.09.01c-.05 0-.07-.02-.05-.07l.38-.73a.15.15 0 0 1 .05-.06.16.16 0 0 1 .07-.02c.07-.01.12 0 .13.04 0 .03 0 .06-.03.07l-.04.03c-.03.02-.03.03 0 .05l.09.01.07-.03c.1-.08.22-.15.34-.2.11-.06.2-.07.26-.04Z" fill="#F6F32C"/><path d="M8.03 6.08c.02.04 0 .07-.04.09-.15.07-.43.2-.48.34a.14.14 0 0 1-.05-.06c-.01-.03 0-.05.02-.07l.47-.3h.08Z" fill="#8F7818"/><path d="m6.24 7.13-.26.07c-.15.03-.2-.02-.14-.15a.16.16 0 0 1 .1-.08h.1c.1.02.2-.02.29-.13.02-.06-.07-.09-.27-.08-.07-.2.01-.36.25-.49.08 0 .17-.04.29-.08a.16.16 0 0 1 .17.02c.03.02.03.04 0 .06-.15.14-.28.1-.42.15-.13.05-.13.1 0 .14h.15c.03 0 .05 0 .07.03.14.2-.17.45-.33.54Z" fill="#F6F32C"/><path d="M11.38 6.76c-.09-.06-.14-.03-.17.1l-.1.56c-.02.06-.05.08-.11.07l-.08-.02a.12.12 0 0 1-.07-.04.1.1 0 0 1-.02-.09l.14-.6c.02-.05 0-.08-.04-.1l-.23-.11-.02-.02a.04.04 0 0 1 0-.05l.02-.01c.18-.06.64.14.8.22.04.02.06.05.06.09 0 .02 0 .04-.04.03a.44.44 0 0 1-.14-.03Z" fill="#8F7818"/><path d="M10.13 6.72c-.03.03-.08.05-.14.05-.03 0-.04-.01-.04-.05l.07-.09a.35.35 0 0 1 .1-.08c.02 0 .04 0 .04.03.01.06 0 .1-.03.14Z" fill="#DE89B3"/><path d="m4.95 7.19-.09.73c0 .02-.01.03-.03.02H4.8a.09.09 0 0 1-.04-.05l-.1-.2-.18-.15c-.04-.02-.05-.02-.03.02l.07.23-.17-.38c.03-.25 0-.5-.07-.75-.01-.03 0-.03.02 0 .16.15.22.35.16.59a.02.02 0 0 0 0 .02h.05v-.01a.97.97 0 0 0 .08-.35l.01-.02.02-.02a.05.05 0 0 1 .06.01l.27.3Z" fill="#4A1D2F"/><path d="m4.31 7.4-.07-.26c.02-.1 0-.18-.04-.22-.02-.02-.03-.04-.01-.07a.07.07 0 0 1 .04-.03.06.06 0 0 1 .05 0 .05.05 0 0 1 .02.05l.01.52Z" fill="#B38089"/><path d="M3.9 7c.03.43.09.72.15.87.12.26.22.52.3.77.02.04.02.07 0 .1a1.3 1.3 0 0 1-.46-.8l-.1-.96c.03-.03.06-.02.1.03Z" fill="#696868"/><path d="m12.06 6.94.1.13.05.33c-.04.21-.06.5.07.69.06.09.1.17.1.26.02.1.13.2.22.28.1.08.13.15.2.28l.06.06c.11.05.19.13.22.24 0 .03.03.04.06.03l.05-.02.04-.08c.01-.07.03-.14.06-.2.07-.18.07-.34.2-.5.1-.24.15-.4.16-.46.02-.2.05-.4.1-.61 0-.02.01-.03.03-.02h.03a.03.03 0 0 1 .03.04c-.01.06 0 .12.01.17-.09.55-.17.92-.24 1.14-.1.3-.39.62-.47.99-.07.3-.2.67-.4 1.11-.06.15-.11.3-.14.45-.14.62-.35 1.44-.87 1.88-.3.24-.56.4-.8.46-.81.22-1.35.34-1.6.38-.43.06-.93.03-1.5-.07.08-.45.65-.6.78-.08 0 .02.02.03.05.02h.02v-.04c.05-.25.15-.35.4-.43.27-.08.52-.23.77-.44.03-.02.04-.02.04.02s.01.08.04.11c.02.03.04.03.05 0L10 13c0-.03 0-.05.02-.07l.08-.1a.08.08 0 0 0 .02-.07.93.93 0 0 1-.01-.35h.06c.02.02.03.03.02.05-.01.22.04.41.16.58a.07.07 0 0 0 .08.03l.03-.02c.1-.1.21-.24.26-.38.1-.3.24-.57.43-.81.02-.03.01-.05-.02-.06a.1.1 0 0 1-.03 0l-.02-.04a9.84 9.84 0 0 1-.41-1.75l.02-.02h.02a12.68 12.68 0 0 1 .5 1.65.9.9 0 0 1-.08.6 8 8 0 0 0-.28.7c0 .02 0 .03.03.03h.02l.02-.02.52-.93a.1.1 0 0 0 .01-.08 19.78 19.78 0 0 0-.34-1.32.06.06 0 0 0 0-.06c-.1-.21-.15-.4-.17-.56-.03-.2 0-.2.1-.02.17.38.32.9.47 1.46.14.48.03.94-.33 1.38v.02l.01.05h.01c.44-.43.58-.93.43-1.51a12.8 12.8 0 0 0-.4-1.34c0-.01 0-.02.02-.02.02-.02.03-.01.05 0 .07.1.12.17.12.19a8.12 8.12 0 0 0 .33.9c-.01.06 0 .1.04.11l.02.03v.05a5 5 0 0 0 .05.41c.05.44-.13.74-.36 1.11l.01.03.02.01h.03c.24-.31.37-.65.4-1.01.02-.28-.13-.76-.2-1.02-.05-.27-.18-.57-.24-.85 0-.03 0-.04.03-.04h.03l.02.01.02.02c.13.27.21.55.26.84 0 .03.02.05.05.07l.06.03c.04.01.05 0 .04-.03l-.07-.26a.07.07 0 0 1 .02-.06.08.08 0 0 1 .06-.03h.15c.05 0 .05-.01.01-.03l-.29-.13c-.02-.01-.02-.02 0-.03l.02-.02v-.02l-.19-.43c-.06-.16-.04-.17.08-.04a1.2 1.2 0 0 1 .25.52h.02l.01.01h.01l.03-.02c.03-.01.03-.03.03-.05L12 9.76l.01-.06h.05l.2.27.02.01a.02.02 0 0 0 .02 0l.02-.04c.01-.03.02-.06 0-.08l-.18-.3a.05.05 0 0 1 0-.05V9.5h.03l.14-.04c.03-.01.04-.03.02-.05l-.52-.6-.44-.31c.15-.3.26-.66.34-1.11a.6.6 0 0 1 .34-.44Z" fill="#C76D90"/><path d="m4.24 7.14.07.25.04.02.17.38.14.15c.02.02.03.01.03-.02l-.02-.22.09.19c0 .02.02.03.04.04l.03.01c.02 0 .03 0 .03-.02l.09-.73-.06.58c0 .01 0 .02.02.03l.04.02.03-.01.03-.38c0 .17.02.28.1.34-.15.11-.27.24-.36.37a2.1 2.1 0 0 1-.2.24.9.9 0 0 0-.2.26c-.08-.25-.18-.5-.3-.77A3.08 3.08 0 0 1 3.9 7c.12.01.23.06.34.13ZM5.84 7.05c-.05.13 0 .18.14.15l.26-.07c-.02.07-.1.11-.22.12-.07 0-.13 0-.19-.02a.06.06 0 0 1-.04-.06c0-.05.01-.1.05-.12Z" fill="#C7919A"/><path d="m12.57 7.56.04-.06c.14-.16.29-.28.45-.36.09-.04.1-.03.04.05a.59.59 0 0 0-.1.27c0 .04 0 .06.04.08l.18.08.03.03a.08.08 0 0 1-.03.12l-.46.25a.08.08 0 0 1-.07 0 .07.07 0 0 1-.03-.02v-.04a.98.98 0 0 0-.09-.4Z" fill="#8F7818"/><path d="M13.5 8.43c-.14.17-.14.33-.21.5l-.06.21-.04.08a.23.23 0 0 1-.05.02c-.03.01-.05 0-.06-.03a.38.38 0 0 0-.22-.24.13.13 0 0 1-.05-.06c-.08-.13-.12-.2-.21-.28-.1-.08-.2-.17-.21-.28a.55.55 0 0 0-.11-.26c-.13-.19-.11-.48-.07-.69a.23.23 0 0 1 .2.03c.03.02.04.04.04.07a1.6 1.6 0 0 0 .31 1.08.06.06 0 0 0 .08-.03l.25-.5h.02l.02.02v.01l-.15.45v.03l.02.03.03.01h.03l.44-.17Z" fill="#C7919A"/><path d="m4.67 7.7.02.22c0 .03 0 .04-.03.02l-.14-.15-.07-.23c-.02-.04 0-.04.03-.02l.19.16Z" fill="#9B616D"/><path d="m5.69 8.2.03.01v.01a.03.03 0 0 1 0 .04c-.44.38-.4.78-.23 1.28a.08.08 0 0 1-.01.07 1.91 1.91 0 0 0-.28 1.55l-.02.02h-.06c-.14-.46-.14-.88.03-1.3.07-.17.1-.3.11-.4.02-.37-.11-.75.1-1.1.06-.13.13-.26.18-.4 0-.03.02-.04.05-.03l.02.02.02.04c0 .09 0 .15.02.18l.04.02Z" fill="#E69AC6"/><path d="M7.06 8.14a.97.97 0 0 0-.36.09.92.92 0 0 0-.4.12l-.02.02a.05.05 0 0 0 0 .05l.03.01c.03.02.06.04.06.07l.07.24c.17.48.61.4 1.02.38.09 0 .15.02.2.06.01.03 0 .05-.03.06a.72.72 0 0 0-.24.12c-.06.05-.21.05-.3.06-.05 0-.05 0 0 0a.9.9 0 0 0 .21-.01c.03 0 .03 0 .01.01-.09.06-.18.08-.26.05l-.2-.08c-.26-.06-.5-.16-.7-.3-.08-.18-.07-.35.03-.49a.06.06 0 0 1 .06-.03c.04 0 .07.02.1.04.02.03.03.02.03-.01s-.02-.06-.06-.1a.08.08 0 0 0-.06-.02.09.09 0 0 0-.07.03l-.1.14-.22.11a.15.15 0 0 0 .03-.05.93.93 0 0 0 .18-.21c.03-.05.02-.07-.04-.04-.18.08-.28.25-.3.5a.35.35 0 0 0-.03.23v-.02l-.02-.58c0-.02 0-.04.02-.06a2.11 2.11 0 0 1 1.36-.4Z" fill="#FCEAF0"/><path d="M8.6 8.58h-.08a.12.12 0 0 1-.08-.03 1.13 1.13 0 0 1-.3-.42.04.04 0 0 1 0-.04h.04c.22.07.4.22.55.42v.06a.29.29 0 0 1-.1.1c-.07.03-.07.02-.03-.03l.01-.03c.02-.02.01-.03-.01-.03Z" fill="#E69AC6"/><path d="M7.06 8.14c.37-.03.63.12.78.44.05.12.1.22.16.31a.55.55 0 0 1-.46.22l.08-.38v-.11c-.02-.14-.09-.23-.2-.27-.1-.03-.42-.06-.56-.02-.15.05-.25.18-.28.39 0 .02-.01.03-.03.03-.03 0-.05-.02-.05-.06V8.4l.03-.06.17-.11a.97.97 0 0 1 .36-.1Z" fill="#2D251D"/><path d="m11.38 8.49.44.3c-.23.08-.2.24-.21.42 0 .03-.02.05-.04.06-.43.24-.83.25-1.2.02a3 3 0 0 0 .57 0c.07-.02.14-.08.22-.18a.12.12 0 0 0 .03-.07c0-.16.06-.26.17-.3.03-.02.04-.04.02-.07-.02-.05-.1-.1-.23-.16-.44-.2-.99-.2-1.29.22a.36.36 0 0 0-.17.14l-.02.02a.07.07 0 0 1-.1-.01.95.95 0 0 1-.23-.36.08.08 0 0 1 .03-.09c.17-.1.34-.13.52-.18.6-.15 1.1-.07 1.5.24Z" fill="#FCEAF0"/><path d="m6.7 8.23-.17.11a.07.07 0 0 0-.03.06v.3c0 .03.02.04.05.05.02 0 .03-.01.03-.03.03-.21.13-.34.28-.39.14-.04.45-.01.56.02.11.04.18.13.2.27l-.07-.07a.11.11 0 0 0-.12-.02.1.1 0 0 0-.04.04.1.1 0 0 0-.02.06c0 .18.08.21.25.1l-.08.38h-.08c-.4.03-.85.11-1.02-.37l-.07-.24c0-.03-.03-.05-.06-.07l-.02-.01a.05.05 0 0 1 .01-.07.92.92 0 0 1 .4-.12Z" fill="#696868"/><path d="M10.37 9.3a.85.85 0 0 0-.37-.13c-.08 0-.14-.06-.2-.14a.1.1 0 0 1 0-.08l.06-.22c.3-.42.85-.42 1.29-.22.13.06.2.11.23.16.02.03.01.05-.02.06-.1.05-.17.15-.17.3 0 .04-.01.06-.03.08-.08.1-.15.16-.22.18a3 3 0 0 1-.57 0Z" fill="#4A1D2F"/><path d="M9.04 8.41c-.17.36-.42.76-.35 1.18.05.25.15.65-.14.81-.29.16-.54.34-.72.62-.13.22-.23.35-.31.55-.17.42-.33.79-.48 1.11-.21.44 0 .77.33 1.1l-.47-.3a7.32 7.32 0 0 1-.88-1.32c-.3-.6-.21-1.45-.02-2.04l.02-.04.04-.02h.04c.04-.02.05 0 .05.04-.05.26-.15.57-.17.81a3.78 3.78 0 0 0 .2 1.33l.03-.03v-.03c-.13-.59-.2-1.72.22-2.22.08-.09.1-.08.06.04-.1.3-.19.57-.22.85-.04.37-.01.72.08 1.08.01.04.03.05.04.03h.02v-.01a3.87 3.87 0 0 1 .26-2.02c.03-.06.14-.15.32-.25.07-.04.25-.12.54-.23.15-.07.32-.19.5-.37l.2-.12.81-.55Z" fill="#E69AC6"/><path d="m5.9 8.71-.17.24c.02-.24.12-.4.3-.5.06-.02.07 0 .04.05a.93.93 0 0 1-.18.21Z" fill="#B38089"/><path d="M6.15 9.1c-.16-.1-.2-.21-.14-.38 0-.01.01-.02.03-.01v.01L6.04 9h.04l.02-.35.1-.13c0-.01 0-.02.02-.03a.09.09 0 0 1 .1.02c.04.03.06.06.06.09s0 .04-.04.01a.16.16 0 0 0-.09-.04c-.02 0-.05 0-.06.03-.1.14-.1.3-.03.5Z" fill="#F1B6DE"/><path d="M7.62 8.62v.11c-.17.11-.25.08-.25-.1 0-.02 0-.04.02-.06a.1.1 0 0 1 .04-.04.11.11 0 0 1 .12.02l.07.07Z" fill="#FCEAF0"/><path d="M10.68 9.01c.05 0 .08-.02.08-.05.02-.13-.03-.18-.15-.13 0-.06 0-.1-.03-.13-.03-.01-.07-.02-.11 0l-.2.06-.03.03.02.04-.1.01a.08.08 0 0 0-.05.06c-.01.04 0 .07.01.1.01.02.04.04.07.04h.08l-.05.05a.11.11 0 0 1-.05.04.11.11 0 0 1-.11-.04.1.1 0 0 1-.03-.05c-.04-.26.08-.41.35-.44.26-.03.56.01.65.27.04.13-.01.24-.17.34-.03.02-.05.03-.07.02l-.03-.01c-.03-.01-.04-.03-.03-.06.02-.05 0-.1-.05-.15Z" fill="#B38089"/><path d="M6.09 8.65 6.07 9h-.04l.02-.28-.01-.01-.03.01c-.06.17-.02.29.14.37.2.14.44.24.7.3l.2.08c.08.03.17.01.26-.05.02-.01.02-.02 0-.01a.9.9 0 0 1-.23.02c-.04 0-.04-.01 0-.01.1 0 .25 0 .31-.06a.72.72 0 0 1 .24-.12c.04-.01.04-.03.02-.06-.04-.04-.1-.07-.19-.06l.08-.01c.18 0 .34-.07.46-.22l.04-.04c.02-.02.03-.02.04 0v.02l.03.03c.07.03.11.01.15-.05l.04-.07c.06-.08.06-.08.02.01l-.1.17-.19.12c-.15.1-.32.16-.48.2-.12.04-.14.08-.21.16a.13.13 0 0 1-.07.04c-.1.04-.42.06-.93.06-.27 0-.47-.07-.6-.24a.08.08 0 0 1-.02-.08l.14-.46.23-.11Z" fill="#C7919A"/><path d="M7.08 8.6c.03.05.03.1.01.13-.05.02-.09.02-.12-.01-.01 0-.02-.01-.02-.03a.06.06 0 0 1 0-.06L7 8.61h.09Z" fill="#F1B6DE"/><path d="M10.68 9h-.04c-.06-.04-.07-.1-.03-.17.12-.05.17 0 .15.13 0 .03-.03.04-.08.05Z" fill="#FCEAF0"/><path d="M10.26 8.83c.04 0 .06.03.07.08 0 .07-.01.11-.06.13h-.08a.07.07 0 0 1-.07-.04.12.12 0 0 1-.01-.1c0-.03.02-.05.05-.06h.1Z" fill="#F1B6DE"/><path d="m9.27 11.56-.34.04c-.01 0-.02 0 0 .01l.05.02c.03 0 .04 0 .05.03.02.14.01.28-.03.42 0 .01 0 .02.02.02h.03v-.32c0-.02.01-.02.02-.03l.02-.02a.06.06 0 0 1 .06 0l.15.12a.3.3 0 0 0-.11.07h-.01a.03.03 0 0 0 0 .03v.01l.04.03h.02a.38.38 0 0 0 .11-.12c.06.05.1.1.12.16.01.02 0 .04-.02.05l-.47.15h-.01l-.01.03c0 .02 0 .03.02.03l.42-.02a9 9 0 0 1-1.13.08c-.26 0-.4-.13-.41-.38 0-.03.01-.05.03-.06.05-.02.07-.05.07-.1 0-.02-.01-.03-.02 0v.02h-.02v-.02l.09-.14c.03-.18.12-.31.27-.38a.9.9 0 0 1 .63-.02c.07.02.13.07.2.13l.16.16Z" fill="#696868"/><path d="M8.28 11.29a.49.49 0 0 0-.27.38.93.93 0 0 0-.2.17c-.04.06-.05.14-.02.24-.1-.38.06-.64.5-.79Z" fill="#C76D90"/><path d="M8.32 11.56c.07 0 .13-.03.13-.07 0-.04-.06-.07-.13-.07s-.13.03-.13.07c0 .04.06.07.13.07Z" fill="#E69AC6"/><path d="M9.65 11.86c.04.08.06.17.05.26 0 .03-.01.05-.04.06l-.26.09-.42.02c-.02 0-.03-.01-.02-.03v-.02l.02-.01.47-.15c.03 0 .03-.03.02-.05a.4.4 0 0 0-.12-.16l-.05-.02-.15-.12a.06.06 0 0 0-.08.02l-.01.03v.3l-.01.02h-.03c-.01 0-.02 0-.02-.02a.92.92 0 0 0 .03-.42c0-.02-.02-.03-.05-.03-.02 0-.04 0-.05-.02-.02 0-.01-.01 0-.01l.34-.04c.24-.05.28.16.38.3ZM8.3 11.83l-.23.41-.03.02c-.02 0-.03-.01-.04-.03l.1-.6.02-.03.03-.03a.12.12 0 0 1 .08-.01l.16.04c.05.01.07.04.07.09V12c0 .02 0 .03-.03.04H8.4l-.02-.01a.53.53 0 0 1-.06-.2c0-.02-.01-.02-.02 0Z" fill="#4A1D2F"/><path d="m8.93 11.65-.13-.03a.1.1 0 0 0-.11.07l-.03.13c-.01.05.02.1.07.1l.13.04a.1.1 0 0 0 .11-.07l.03-.14a.09.09 0 0 0-.07-.1Z" fill="#4A1D2F"/><path d="M8 11.67a1.07 1.07 0 0 1-.08.14v.01h.02c.01-.04.01-.03.02 0 0 .04-.02.07-.07.1-.02 0-.03.02-.03.05 0 .25.15.38.42.38.18 0 .36 0 .54-.02l-.12.08c-.2 0-.35.04-.47.13l-.44-.46c-.03-.1-.02-.18.02-.24.03-.04.1-.1.2-.17Z" fill="#B38089"/><path d="m9.3 11.85.05.02a.38.38 0 0 1-.1.12h-.03l-.03-.03a.03.03 0 0 1-.01-.02.03.03 0 0 1 0-.02.3.3 0 0 1 .12-.07Z" fill="#9B616D"/><path d="m8.7 12.58.43-.12c.08-.02.07-.03 0-.03a6.79 6.79 0 0 0-.62.03l.19-.05.12-.08c.2.02.4 0 .58-.06l.26-.1c.03 0 .04-.02.04-.05a.48.48 0 0 0-.05-.26c.04.02.07.06.08.13 0 .07.05.18-.04.23v.02h.02c-.03.36-.3.48-.63.65a.06.06 0 0 1-.07 0c-.07-.05-.1-.1-.1-.16a.08.08 0 0 1 .04-.07c.08-.06.17-.1.26-.13a3.37 3.37 0 0 0-.51.05Z" fill="#E69AC6"/></svg>