<!-- by TradingView --><svg width="18" height="18" xmlns="http://www.w3.org/2000/svg"><path fill="url(#paint0_linear)" d="M0 0h18v18H0z"/><path d="M4.305 5.184c.035-.064.088-.158.214-.18.127-.023.222.058.28.107l.03.024h-.017c.208.018.315.115.35.194.218.256.18.453.105.524l-.002.015.351.942 1.076.502V7.31h.002l.008-.001v.003l1.004-.16L8.884 5.29l.001-.009h.241l.566 1.39.394.07.753-1.198.002-.002v.003l.001.002.974.58v-.003l.503 1.229.727.668.582 2.227 1.03 1.102.053.72.002.001.14 1.235-.002-.003.15.487h-.882l.006-.002.449-.334-.225-1.343-.157-.372-1.787-1.24-.001.004.48 1.718v.003l.004.003-1.28 1.385-.007-.003.01.392-.9-.4h.867-.87a7.72 7.72 0 01.531-.133h.004l1.01-1.087.008-.004-.488-1.262-.2-.2.067-.959-.438-.325.009-.007-.007-.011L9.94 9.58l-2.747.666-.82.98.359.682.311.013-.166.903.002.012-.658-.881H6.22v-.002l-.003-.003h.002l-.016-.416-.167.147-1.401 1.58v.001l-.118.166-.756-.646-.011-.006h.696l1.429-1.792a2.394 2.394 0 01-.302-.54.443.443 0 01.268-.465l.672-.147.233-.33-.097-.002-.012.004-.004.003V9.5L5.034 7.815h-.001L4.92 7.69l.001-.006-.784-1.7-.244.022v.002l-.412-.265-.297.23L3 5.704l.35-.283-.001-.002c.106-.094.356-.287.466-.302.11-.014.292.085.369.137v.001a2.332 2.332 0 01.101-.038l.02-.033zm1.864 5.436l.08-.056.069-.148h-.236l.082.206.005-.006v.005zm-.234.29l.006-.008-.006.007zm-.147-.491l.012.039-.012-.04zm4.075-3.324z" fill="#FFA40E"/><defs><linearGradient id="paint0_linear" x1="3.349" y1="3.122" x2="21.904" y2="24.434" gradientUnits="userSpaceOnUse"><stop stop-color="#1A1E21"/><stop offset="1" stop-color="#06060A"/></linearGradient></defs></svg>