<!-- by TradingView --><svg width="18" height="18" viewBox="0 0 18 18" xmlns="http://www.w3.org/2000/svg"><path fill="#F0F3FA" d="M0 0h18v18H0z"/><path d="M10.07 4.12c.14.29.4.46.77.53l-.15.11a.57.57 0 0 0-.18.14l-.58.33a.15.15 0 0 1-.1.02l-.17-.01c-.04 0-.1 0-.2.03a.74.74 0 0 1-.23.04.1.1 0 0 1-.07-.04l-.08-.2c-.04-.13-.14-.2-.29-.22l-.02-.01c-.02-.01-.02-.02 0-.04v-.03A1.9 1.9 0 0 0 8 4.4a1.1 1.1 0 0 1-.48-.16 4.71 4.71 0 0 1 2.56-.12Z" fill="#8BD9F7"/><path d="M11.6 4.74c-.07.32-.02.63.18.9.11.15.21.26.3.32.31.2.69.33 1.13.36.44.67.7 1.4.77 2.2a3.94 3.94 0 0 1-1.05-.93l-.8-1.16c-.03-.05-.12-.1-.26-.15-.1-.05-.22-.17-.34-.35l-.63-.58.09-.54c0-.08-.04-.13-.15-.16-.37-.07-.63-.24-.77-.53.55.12 1.06.33 1.53.62Z" fill="#4DA5D9"/><path d="M7.5 4.24c.1.08.27.13.5.16a1.9 1.9 0 0 1 .78.37l-.01.03c-.02.02-.02.03 0 .04h.02c-.07 0-.12.02-.15.05-.21.3-.45.6-.7.87-.1-.01-.17-.03-.21-.08-.05-.04-.05-.1 0-.14l.34-.34c.02.03.06.04.1.04.02 0 .03-.02.01-.05a.21.21 0 0 0-.08-.06c.03 0 .05-.02.06-.05v-.04l-.19-.33a.15.15 0 0 0-.08-.07l-.7-.28a.9.9 0 0 1 .32-.12Z" fill="#AABAE3"/><path d="m7.19 4.36.7.28c.04.02.06.04.08.07l.19.33v.04c0 .03-.03.05-.06.05l-1.33-.6.42-.17Z" fill="#E489B2"/><path d="m6.77 4.54 1.33.59c.04.02.07.04.08.06.02.03.01.04-.02.05a18.65 18.65 0 0 0-1.21-.45.84.84 0 0 0-.38 0h-.08c-.03-.02-.04-.05-.04-.09l.32-.16Z" fill="#EBCAA4"/><path d="m10.9 5.35-.09.38c0 .03 0 .06.03.08.35.26.52.6.51 1.05 0 .03.02.06.04.08l.34.26c-.06.06-.13.05-.21-.02a.17.17 0 0 0-.07-.03.06.06 0 0 1-.05-.04c-.02-.05-.05-.08-.1-.1-.23-.06-.3-.14-.25-.24a.7.7 0 0 0 0-.24c0-.04.01-.08.03-.1a.1.1 0 0 0 0-.1.64.64 0 0 0-.3-.39l-.15-.17c0-.04.03-.08.06-.12V5.43c.02-.03.04-.04.07-.05.04 0 .06-.04.07-.1 0-.04-.02-.06-.06-.04l-.04.02c-.03.01-.06 0-.08-.02-.02-.02-.03-.05-.01-.08a.54.54 0 0 0 .03-.22.23.23 0 0 0 .09-.1V4.8c-.02-.03-.04-.04-.07-.03l.15-.1c.11.02.16.07.15.15l-.1.54Z" fill="#FCF7DF"/><path d="M6.45 4.7c0 .04 0 .07.04.09h.07c.17-.03.3-.03.39 0 .16.04.53.18 1.12.41l-.34.34c-.05.05-.05.1 0 .14.04.05.12.07.21.08l-.98.52v.03l.02.04.02.01.78-.46c.05-.02.05-.01.02.02l-.32.37-.91.2-1.64-.38.31-.4 1.03.23c.03 0 .05 0 .06-.03v-.04c0-.02-.02-.04-.05-.05a.7.7 0 0 0-.2-.09c-.28 0-.47-.1-.57-.3l.94-.73Z" fill="#E489B2"/><path d="M13.21 6.32a2.33 2.33 0 0 1-1.13-.36c-.09-.06-.19-.17-.3-.32-.2-.27-.25-.58-.18-.9.66.4 1.2.93 1.61 1.58Z" fill="#6E95C5"/><path d="M10.7 4.76c.02 0 .04 0 .05.03.01.01.02.03 0 .05a.23.23 0 0 1-.08.1.61.61 0 0 0-.25.5c0 .04-.02.05-.05.04a1.1 1.1 0 0 1-.37-.2c.2-.1.37-.22.5-.38.06-.06.12-.1.2-.14Z" fill="#2B1305"/><path d="M8.8 4.85c.14.02.24.1.28.22l.08.2a.1.1 0 0 0 .07.04c.05 0 .13 0 .23-.04a.68.68 0 0 1 .2-.03l.18.01c.03 0 .06 0 .09-.02l.58-.33c-.14.16-.3.28-.5.38-.15.1-.26.14-.33.13a.51.51 0 0 0-.38.05l-.16.06a.08.08 0 0 0-.05.06c-.01.07-.04.15-.08.24H9a.03.03 0 0 1-.01-.03c0-.19-.02-.36-.08-.52-.05-.06-.04-.12.03-.18.02-.02.03-.04 0-.06-.06-.1-.1-.13-.1-.07a.35.35 0 0 0-.28.19c-.09.16-.3.44-.6.87l-.1.11-.35.5-.19.31c-.05.1-.1.2-.12.34a.9.9 0 0 1-.35.53.15.15 0 0 0-.06.08.34.34 0 0 0-.01.14l-.31.4c-.12.1-.23.23-.34.35-.1.11-.22.2-.35.27l-1.09.5c-.07.03-.23.03-.47-.02l-.02.03.01.02c.16.03.32.03.48.02l-.63-.01a.3.3 0 0 0-.01-.16 4.21 4.21 0 0 1 .04-1.2l1.6-.29c.18 0 .38-.05.59-.12.05-.02.1-.05.14-.09l.13-.12c.05-.04.07-.09.06-.15 0-.06-.04-.1-.1-.13-.2-.1-.42-.22-.65-.36-.26-.17-.67-.3-1.23-.37l.3-.49 1.65.37.58.17c.03 0 .06 0 .08-.02.1-.1.19-.2.25-.34l.32-.37c.03-.03.03-.04-.02-.02L7 6.36h-.02l-.03-.05.01-.03.98-.52c.26-.27.49-.56.7-.87.03-.03.08-.05.15-.04Z" fill="#FCF7DF"/><path d="M8.9 5.27c-.11-.03-.17.04-.18.2a.8.8 0 0 0-.08.5c0 .06 0 .1-.05.13a.07.07 0 0 1-.08 0 .07.07 0 0 1-.03-.08l.04-.42c0-.15.1-.37.3-.64.01-.06.05-.04.12.07.02.02.01.04-.01.06-.07.06-.08.12-.03.18Z" fill="#CC9580"/><path d="M8.82 4.96c-.2.27-.3.49-.3.64 0 .16-.02.3-.04.42 0 .03 0 .06.03.07.03.02.05.02.08 0 .04-.01.06-.06.05-.12a.8.8 0 0 1 .08-.5c.18.03.23.22.12.57-.02.05 0 .08.04.1h.04c.07 0 .12-.02.15-.08l.12-.27.03-.01c.03-.02.05 0 .05.03v.05l-.22.39c-.01.03-.04.04-.07.03l-.25-.07h-.1c-.23.1-.28.23-.12.37-.02 0-.04.01-.04.03a.28.28 0 0 0-.28.18.68.68 0 0 0-.03.37c0 .03.02.05.05.06.12.07.2.16.25.29-.06.43.07.8.38 1.1v.03h-.02l-.44-.42h-.02c-.01 0-.01 0 0 0l.4.43c.16.15.13.2-.08.16a2.5 2.5 0 0 1-.28-.1.77.77 0 0 0-.19-.04c-.1-.01-.27-.1-.5-.29a5.08 5.08 0 0 0-.06-.03H7.6c-.03 0-.04.02-.01.04.55.5 1.2.82 1.93.93.08.08.02.11-.2.1a7.5 7.5 0 0 1-1.18-.26.52.52 0 0 0-.2-.03c-.28.02-.38.14-.27.35 0 .02.03.04.06.05.4.18.84.27 1.3.28 0 .11.05.21.14.3l-.12.19c-.02.03-.01.05.02.05.2.02.34.05.4.08.4.2.62.3.65.3.2.06.62.12 1.26.17l.53.04c.2.02.4 0 .58-.04l.02.08c0 .03.03.05.06.06a.6.6 0 0 1 .2.11v.08a21.92 21.92 0 0 0-2.68-.07c-.11 0-.2 0-.28-.02a.89.89 0 0 0-.3-.03c-.1.01-.25 0-.43-.04a7.6 7.6 0 0 0-.79-.1c-.03 0-.05.02-.05.06 0 .03.03.07.09.12a3.3 3.3 0 0 1-2.07.41c-.44.03-.87.1-1.3.22-.02.01-.03 0-.02-.02v-.03a4.36 4.36 0 0 1 1.14-.22h-.1v-.02c0-.02.04-.04.1-.04l1.12-.07c.33-.03.57-.12.71-.28a.1.1 0 0 1 .08-.03l.1.01c.04 0 .05 0 .01-.03a.2.2 0 0 0-.1-.05l.1-.11.6.09c.04-.01.03-.04-.03-.07a4.94 4.94 0 0 1-1.8-.86c-.05-.05-.12-.06-.17-.03-.02 0-.04.03-.05.06-.01.03 0 .06.02.08l.17.17c.26.3.57.53.93.68.03.01.03.03 0 .04a1.2 1.2 0 0 1-.48.26c-.31.06-.73.1-1.24.12-.47-.06-.86.06-1.18.34-.02.02-.04.02-.06-.01l-.02-.03c-.02-.03-.01-.05.02-.08.32-.23.68-.35 1.09-.34.02 0 .02 0 .02-.02l-.02-.01c-.55-.03-.92.08-1.12.32-.03.03-.05.03-.07 0-.3-.5-.5-1.02-.61-1.58.52-.06 1-.19 1.43-.4.35-.13.6-.3.71-.49l.37-.6c.2-.1.39-.33.54-.7.08-.35.2-.68.37-1.01l.26-.41c0-.01 0-.01 0 0l.02.02v.03a8.17 8.17 0 0 0-.16.5c.12-.28.21-.6.3-.94.3-.43.51-.71.6-.87a.35.35 0 0 1 .27-.2Z" fill="#2B1305"/><path d="M10.67 4.94c0 .06 0 .13-.03.22-.02.03-.01.06 0 .08.03.03.06.03.09.02l.04-.02c.04-.02.06 0 .06.04 0 .06-.03.1-.07.1a.07.07 0 0 0-.06.05.42.42 0 0 0-.01.17.5.5 0 0 0-.05-.27h-.04c-.03 0-.04.02-.03.05.04.06.04.11 0 .16-.02.03-.02.05.01.08a.2.2 0 0 0 .11.03.24.24 0 0 0-.06.12c-.18-.1-.37-.18-.56-.25a1.05 1.05 0 0 0-.38-.07l-.4.01c.11-.06.24-.08.39-.05.07.01.18-.03.32-.13.11.1.24.16.37.2.03 0 .05 0 .05-.03 0-.2.08-.38.25-.5Z" fill="#EBCAA4"/><path d="m7.33 5.3-1.27-.2a.1.1 0 0 0-.11.08v.01c-.01.06.02.1.08.12l1.27.2a.1.1 0 0 0 .03-.2Z" fill="#7A62C0"/><path d="M8.9 5.27c.06.16.08.33.08.52l.01.03h.02c.04-.09.07-.17.08-.24 0-.03.02-.05.05-.06l.16-.06.39-.01c.13 0 .26.02.38.07.2.07.38.15.56.25l.16.17a.54.54 0 0 0-.03.36c.01.16.07.24.16.26 0 .14.04.2.13.21-.06.1.02.18.25.25l-.5.6a.1.1 0 0 1-.06.04h-.03c0-.09-.05-.1-.17-.04-.03.01-.06 0-.09-.04a1.33 1.33 0 0 1-.17-.38.1.1 0 0 0-.05-.06.45.45 0 0 0-.25-.05l.32-.04c.03 0 .06-.02.07-.06a.08.08 0 0 0-.02-.09l-.24-.24a.14.14 0 0 0-.12-.04.14.14 0 0 0-.1.06.71.71 0 0 1-.37.29c-.05.02-.05.03 0 .03l.1.01c-.12.05-.26.07-.43.06a.39.39 0 0 0-.35.18l-.1.09.02-.24-.01-.01h-.03l-.03.01c-.07.14-.12.2-.16.16l-.13-.22.05-.23c.02.07.05.13.09.19.03.05.04.04.03 0v-.06c-.02-.03-.01-.05 0-.07l.27-.26c.02-.02.03-.05.01-.07-.01-.02-.03-.03-.05-.01l.1-.09c.02-.02.02-.03 0-.05l-.02-.02a.1.1 0 0 0-.07 0 .9.9 0 0 0-.3.21c-.16-.14-.11-.26.12-.37a.13.13 0 0 1 .1 0l.25.07c.03.01.06 0 .07-.03l.21-.4c.09.02.11.04.08.08-.18.27-.17.52.05.76.06.07.13.08.2.03l.34-.19a.07.07 0 0 0 .04-.06c0-.1.03-.15.1-.17.19-.05.28-.02.28.1a.18.18 0 0 0-.1-.06c-.04-.01-.06 0-.07.04a.2.2 0 0 1-.1.1.06.06 0 0 0-.04.06c0 .02.01.04.04.05l.3.18h.05a.05.05 0 0 0 .02-.06l-.03-.16c.08.03.16.04.25.04.04 0 .05-.02.03-.06-.05-.14-.1-.28-.13-.43a.45.45 0 0 0-.14-.22 4.09 4.09 0 0 0-.2-.17c-.03-.02-.05-.01-.05.01v.1c-.01.03-.04.04-.08.02a1.3 1.3 0 0 0-.31-.13l-.55-.05c-.03 0-.05 0-.06.04l.01.09-.12.27a.14.14 0 0 1-.15.08h-.04c-.04-.02-.06-.05-.04-.1.1-.35.06-.54-.12-.56 0-.17.07-.24.18-.2Z" fill="#DE993A"/><path d="M10.69 5.6v.05a.2.2 0 0 1-.1-.03c-.04-.03-.04-.05-.02-.08.04-.05.04-.1 0-.16-.01-.03 0-.05.03-.05h.04a.5.5 0 0 1 .05.27Z" fill="#2B1305"/><path d="m10.9 5.35.63.58a4.8 4.8 0 0 0 .59 1.46 3.92 3.92 0 0 1 .37.68c.11.28.2.48.27.6.12.22.25.38.4.49.09.06.2.1.36.1l.48-.02-.04.5a2.4 2.4 0 0 1-.94-.26 4.04 4.04 0 0 0-.98-.16l-.34-.02c-.16-.01-.26-.04-.32-.1-.1-.08-.26-.25-.45-.51l.27-.03c.15.02.24 0 .26-.06h.04a.1.1 0 0 1 .06.04c.11.13.22.2.32.22.13.02.22-.01.26-.09.13-.22.1-.4-.1-.51-.09-.05-.24-.1-.48-.15a.49.49 0 0 1-.26-.13.35.35 0 0 1 .07-.15.22.22 0 0 1 .19-.02l.08-.01c.05-.03.1-.07.13-.15.12-.04.12-.12.02-.23.03-.05.01-.12-.06-.22l-.34-.26a.1.1 0 0 1-.04-.08c0-.44-.16-.8-.5-1.05a.07.07 0 0 1-.04-.08l.09-.38Z" fill="#5BDBF6"/><path d="M5.51 5.43c.1.2.29.3.57.3.03 0 .1.03.2.09.03.01.05.03.05.05v.04c-.01.02-.03.03-.06.03l-1.03-.22.27-.3Z" fill="#EBCAA4"/><path d="M10.42 6.55c-.01-.05-.04-.1-.07-.14 0-.13-.1-.16-.28-.11-.07.02-.1.07-.1.17 0 .03-.02.05-.04.06l-.33.2c-.08.04-.15.03-.21-.04-.22-.24-.23-.5-.05-.76.03-.04 0-.06-.08-.07.01-.02.02-.04.01-.05 0-.04-.02-.05-.05-.03l-.03.01a.16.16 0 0 1-.01-.09c0-.03.03-.05.06-.04l.55.05c.04 0 .14.05.3.13.05.02.08.01.08-.03v-.09c.01-.03.03-.03.06-.01l.2.17c.08.07.13.15.14.22.04.15.08.3.13.43.02.04 0 .06-.03.06-.09 0-.17 0-.25-.04Z" fill="#B15814"/><path d="m13.98 8.53.02.7-.48.02a.57.57 0 0 1-.36-.1 1.49 1.49 0 0 1-.4-.48 5.97 5.97 0 0 1-.31-.7 3.92 3.92 0 0 0-.33-.58 4.8 4.8 0 0 1-.59-1.46c.12.18.23.3.34.35.14.05.23.1.26.15l.8 1.16c.2.3.56.61 1.05.94Z" fill="#4FC5EB"/><path d="M11.04 6.53a.19.19 0 0 0-.03-.06.44.44 0 0 0-.12-.32c-.03-.03-.05-.03-.08-.01-.04.02-.06.08-.05.16a.54.54 0 0 1 .03-.36c.15.1.25.23.3.4a.1.1 0 0 1-.01.08.34.34 0 0 0-.04.1Z" fill="#EBCAA4"/><path d="M7.94 6.02a5.57 5.57 0 0 1-.12.44l-.01-.03-.01-.03h-.01l-.26.42.15-.35.11-.15a.27.27 0 0 0 .05-.19l.1-.11Z" fill="#B15814"/><path d="M7.84 6.13c.01.07 0 .14-.05.2l-.1.14-.16.35c-.17.33-.3.66-.37 1.01a.06.06 0 0 1-.05.02c-.03 0-.03 0 0-.02l.02-.01c.02-.01.04-.03.04-.05l.22-.83.11-.3.34-.5Z" fill="#CA7431"/><path d="M7.48 6.3c-.06.12-.15.23-.25.33a.08.08 0 0 1-.08.02l-.58-.17.91-.19Z" fill="#FAE9F6"/><path d="M10.35 6.4c.03.05.06.1.07.15l.03.16c0 .02 0 .04-.02.05a.05.05 0 0 1-.05 0l-.3-.17a.06.06 0 0 1-.04-.05c0-.03.01-.05.04-.06a.2.2 0 0 0 .1-.1c0-.04.03-.05.07-.04.04 0 .07.03.1.07ZM8.8 6.53l-.35.28-.05.23c-.1-.2-.08-.35.07-.43 0-.02.02-.03.04-.03a.9.9 0 0 1 .3-.21.1.1 0 0 1 .07 0l.02.02c.02.02.02.03 0 .05l-.1.09Z" fill="#FCF7DF"/><path d="M11 6.47c.02.01.03.03.04.06a.7.7 0 0 1 .01.24c-.1 0-.14-.07-.13-.2 0-.06.04-.1.09-.1Z" fill="#2B1305"/><path d="M8.8 6.53c.02-.02.04-.01.05 0 .02.03.01.06 0 .08l-.27.26a.07.07 0 0 0-.02.07l.01.05c.01.05 0 .06-.03 0a1.17 1.17 0 0 1-.1-.18l.36-.28Z" fill="#CA7431"/><path d="M4.62 6.6c.56.07.97.2 1.23.37.23.14.45.26.65.36.06.03.09.07.1.13 0 .06-.01.11-.06.15l-.13.12a.43.43 0 0 1-.14.09c-.21.07-.41.11-.6.12-.07-.1-.15-.2-.24-.27a.38.38 0 0 0-.22-.1h-.26c-.26.05-.5.09-.76.11.01-.08.03-.12.06-.1l1.35-.19c.06 0 .06-.02 0-.04L4.45 7l.18-.39Z" fill="#E79EEF"/><path d="M8.47 6.6c-.15.1-.17.24-.07.44l.13.22.05.22v.16c-.05 0-.1-.05-.12-.13a.53.53 0 0 0-.25-.29.09.09 0 0 1-.05-.06.68.68 0 0 1 .03-.37.28.28 0 0 1 .28-.18Z" fill="#696868"/><path d="m9.98 7.1-.07-.03c-.03-.1-.1-.13-.2-.1-.04 0-.05.02-.01.03h.04l-.13.01h-.09c-.05-.01-.05-.02 0-.04a.71.71 0 0 0 .36-.29.14.14 0 0 1 .1-.06c.05 0 .1 0 .13.04l.24.24c.02.03.03.06.02.1a.08.08 0 0 1-.07.05l-.32.04Z" fill="#090408"/><path d="M10.02 6.77c.04-.01.05 0 .03.04l-.08.05c-.03.01-.04 0-.03-.03.01-.02.04-.05.08-.06Z" fill="#967E84"/><path d="m7.4 6.94-.23.83c0 .02-.02.04-.04.05l-.03.01c-.02.01-.02.02 0 .02.03 0 .05 0 .06-.02-.15.37-.34.6-.54.7.19-.2.3-.43.34-.65.12-.08.18-.17.2-.27.04-.25.12-.48.23-.67Z" fill="#B15814"/><path d="m9.28 7.04-.44.05c-.07.01-.08 0-.02-.04a.46.46 0 0 0 .09-.07c.01-.02.05-.02.1-.02.13 0 .24.02.32.03.02 0 .02.02.02.03 0 .03-.02.04-.04.02h-.03Z" fill="#CC9580"/><path d="m4.44 6.99 1.17.36c.05.02.05.03 0 .04l-1.36.18c.02-.2.09-.4.2-.58Z" fill="#7A62C0"/><path d="M9.74 7c.05.04.1.06.17.07l.07.02c.1 0 .18 0 .25.05a.1.1 0 0 1 .05.06c.04.14.1.26.17.38.03.04.06.05.1.04.03.06.08.08.16.04h.03a.1.1 0 0 0 .07-.04l.49-.6c.05.01.08.04.1.09 0 .02.02.04.05.04.03 0 .05.01.07.03-.13 0-.22.06-.27.17 0 .03 0 .05.02.08.09.1.11.23.07.36v.03l.02.01a.35.35 0 0 0-.06.15s0-.02-.03-.04a.76.76 0 0 1-.3-.15.1.1 0 0 0-.08-.02.46.46 0 0 1-.35-.06.14.14 0 0 0-.1-.02l-.48.01a.64.64 0 0 0-.32.06c-.13.07-.2.16-.23.26-.01.03-.03.04-.06.04a1.03 1.03 0 0 1-.47-.24c-.07-.06-.1-.13-.1-.2l.02-.21a.1.1 0 0 1 .05-.07l.12-.05c.04-.02.04-.03-.01-.03h-.12c.1-.13.2-.2.35-.19.17.01.3 0 .42-.06h.13Z" fill="#D9DEDB"/><path d="M10.46 7.3c.08.08.17.1.2.07.05-.04.01-.13-.07-.2-.08-.09-.17-.12-.2-.08-.04.04-.01.13.07.2Z" fill="#B15814"/><path d="M8.74 7.34v.33c0 .03 0 .04-.02.03a5.76 5.76 0 0 1-.12-.25c0 .02-.01.03-.02.03l-.05-.22c.04.04.1-.02.16-.16 0-.01.02-.02.03-.01h.03l-.01.25Z" fill="#CC9580"/><path d="M11.52 7.18c.08.07.15.08.21.02.07.1.09.17.06.22l-.02.23a.29.29 0 0 1-.13.15.11.11 0 0 1-.08 0 .22.22 0 0 0-.2.03l-.03-.01v-.03a.35.35 0 0 0-.06-.36.07.07 0 0 1-.02-.08c.05-.11.14-.17.27-.17Z" fill="#090408"/><path d="M8.84 7.25h.12c.05.01.05.02 0 .04l-.1.05a.1.1 0 0 0-.06.07l-.02.22c0 .06.03.13.1.19.15.12.3.2.47.24.03 0 .05-.01.06-.04.03-.1.1-.19.23-.26a.64.64 0 0 1 .32-.06l.49-.01c.03 0 .06 0 .09.02.1.07.22.09.35.06a.1.1 0 0 1 .09.02c.08.07.18.12.3.15a.99.99 0 0 1-.54.03c-.26-.07-.52-.1-.79-.08a.1.1 0 0 0-.08.05.1.1 0 0 0 0 .1c.1.18.34.3.7.38.07.01.18.05.32.12l.31.12-.27.03-.32-.05c-.24-.06-.42-.06-.55 0l-.6.25c-.36-.21-.66-.63-.88-1.25v-.16s.02-.01.02-.03a5.76 5.76 0 0 0 .12.25c.02 0 .02 0 .02-.03-.01-.11-.02-.22 0-.33l.1-.09Z" fill="#1F93D7"/><path d="M8.46 7.5c.03.1.07.14.12.14.22.62.52 1.04.89 1.25a.3.3 0 0 0 .1.05l.26.05c.03.01.05.03.05.06s0 .05-.03.07l-.32.2A3.67 3.67 0 0 1 7.6 8.4c-.03-.02-.02-.03.01-.04h.07l.04.03c.22.18.38.28.5.29.05 0 .12.02.18.05l.28.1c.21.03.24-.02.09-.17l-.42-.43h.03l.44.42h.02V8.6a1.2 1.2 0 0 1-.38-1.1Z" fill="#265377"/><path d="M11.38 7.56c0-.03.03-.04.06-.04s.04.02.03.04l-.04.04h-.04a.03.03 0 0 1-.01-.04Z" fill="#967E84"/><path d="m5.67 7.94-1.6.3.12-.56c.25-.02.5-.06.76-.11a.93.93 0 0 1 .26 0c.09 0 .16.04.22.1.09.08.17.17.24.27Z" fill="#7A62C0"/><path d="M6.96 7.88c-.04.22-.15.44-.34.65l-.37.6c-.12.2-.36.36-.7.5.14-.13.3-.24.46-.34.07-.04.18-.17.35-.38v-.02h-.02c-.16.21-.3.36-.44.45-.5.31-1.09.48-1.76.52l.67-.19c.17-.04.35-.1.53-.18l.52-.22c.24-.1.38-.27.4-.48l.2-.37.3-.4c.08-.07.14-.16.2-.25.02-.03.04-.05.07-.05.03 0 .04.01.01.03-.06.05-.09.1-.08.13Z" fill="#CA7431"/><path d="M11.27 7.94c.03.02.04.03.03.04.05.06.14.1.26.13.01.03.03.05.06.06l-.01.05-.2-.04c-.1 0-.18.01-.28.05L11 8.22c-.04 0-.05.01-.06.04 0 .07 0 .13.02.19l.2.05c.01 0 .02 0 .03-.02 0-.02 0-.03-.02-.04l-.14-.09a.03.03 0 0 1-.02-.03V8.3c.02-.02.03-.03.05-.02l.07.02.28.17a.1.1 0 0 1 .05.08v.06c-.02.06-.11.08-.26.06a1.94 1.94 0 0 1-.31-.12c-.14-.07-.25-.1-.32-.12-.36-.07-.6-.2-.7-.38a.1.1 0 0 1 0-.1.1.1 0 0 1 .09-.05c.26-.02.52.01.78.08.15.04.32.03.53-.03Z" fill="#090408"/><path d="M5.85 8.4c-.03.08-.14.12-.35.11-.02 0-.03.01-.03.04 0 .01 0 .02.02.03v.09c-.04.05-.05.1-.02.14.02.02.02.05 0 .08a.08.08 0 0 1-.06.05l-.96.13c-.08 0-.08.03 0 .05.05.02.1.02.15.01.2-.04.36-.06.48-.07.03 0 .04.02.05.04v.04c-.28.13-.56.19-.87.17-.04 0-.06-.03-.04-.06l.03-.13a.2.2 0 0 0 0-.08l-.03-.29c0-.04 0-.06.04-.08.06-.04.1-.06.1-.08 0-.04.02-.05.05-.03.08.06.2.05.37 0 .03-.02.03-.03 0-.03a.86.86 0 0 1-.26-.08.13.13 0 0 0-.08-.03h-.28c-.03 0-.04-.01-.03-.05l.04-.03a7.03 7.03 0 0 0 .93-.2c.1-.02.2-.03.3-.02.03 0 .06 0 .09-.02a.4.4 0 0 1 .33-.05l.33.1c.1.02.1.05 0 .07-.03 0-.08 0-.14-.03a.4.4 0 0 0-.13-.05 2.92 2.92 0 0 0-.35 0c-.01 0-.02 0-.01.02v.02l.25.07c.06.02.06.03 0 .05a.55.55 0 0 1-.42-.06c-.04-.02-.15-.02-.33 0-.01 0-.02.01-.02.03l.01.02h.01c.13 0 .24.02.34.08.02.02.05.03.08.03h.41Z" fill="#7A62C0"/><path d="m10.5 8.22-.1-.08c-.04-.05-.03-.06.02-.03.06.03.1.06.1.1v.02h-.03Z" fill="#696868"/><path d="M11.46 8.6v-.06a.1.1 0 0 0-.05-.08l-.28-.17v-.06c.1-.04.19-.06.28-.05v.04c0 .03 0 .06.04.07.17.04.31.13.4.27l.03.01c.04 0 .05-.02.02-.07a.1.1 0 0 0 .03 0c.03 0 .04-.01.02-.03a.91.91 0 0 0-.33-.3.12.12 0 0 1-.06-.06c.23.05.4.1.47.15.2.12.24.3.11.51-.04.08-.13.1-.26.09-.1-.02-.2-.09-.32-.22a.1.1 0 0 0-.06-.04h-.04Z" fill="#E489B2"/><path d="m11.6 8.22.3.28c.03.05.02.07-.02.07l-.02-.01a.7.7 0 0 0-.4-.27c-.04-.01-.06-.04-.06-.07l.01-.04.2.04Z" fill="#FAE9F6"/><path d="m11.9 8.5-.3-.28.02-.05c.13.07.24.17.33.3.02.02.01.03-.02.03h-.03Z" fill="#2B1305"/><path d="M5.13 9.14V9.1c0-.02-.02-.04-.05-.04-.12.01-.28.03-.48.07h-.16c-.07-.03-.07-.05.01-.06l.96-.13c.03 0 .06-.02.07-.05a.08.08 0 0 0 0-.08c-.04-.05-.03-.1 0-.14a.07.07 0 0 0 0-.09.1.1 0 0 1 0-.03c-.01-.03 0-.04.02-.04.2.01.32-.03.35-.12.03-.07.14-.1.32-.08.04 0 .04.02.03.05-.13.22-.3.4-.52.52l-.35.21a.33.33 0 0 1-.2.05Z" fill="#E79EEF"/><path d="M4.83 8.44a1.84 1.84 0 0 0-.26-.06c-.02 0-.02-.02-.01-.04l.03-.02.77.08.02.02a.6.6 0 0 1 0 .03l-.02.01a.8.8 0 0 1-.53-.02Z" fill="#FAE9F6"/><path d="m6.46 8.42-.2.37a3.2 3.2 0 0 1-1.37.8 2.37 2.37 0 0 1-.84.07V9.6l.63.01c-.16.01-.32 0-.48-.02-.01 0-.02-.01-.01-.02l.01-.02c.25.04.41.04.48.01l1.09-.5c.13-.07.25-.16.35-.27l.34-.36Z" fill="#EBCAA4"/><path d="m10.6 8.64-.25 1.03c-.03.09-.08.13-.17.13-.17 0-.31.04-.44.11L9.6 9.9c.35-.1.57-.26.65-.5l.19-.52c.04-.1.01-.12-.08-.07-.23.12-.5.16-.8.13a.3.3 0 0 1-.1-.05l.6-.25c.13-.06.31-.06.55 0Z" fill="#967E84"/><path d="M10.93 8.69c.2.26.35.43.45.52.06.05.16.08.32.1l.34.01a4.04 4.04 0 0 1 .98.16c.3.15.6.24.93.27 0 .26-.11.37-.35.32a7 7 0 0 0-.37-.06l-.1-.3a.15.15 0 0 0-.05-.06.64.64 0 0 0-.3-.12l-.3-.06h-.84a.1.1 0 0 0-.08.03.78.78 0 0 1-.42.22c-.12.02-.29.03-.51.01-.03 0-.05.01-.06.05-.02.08.03.14.16.17.27.07.5.13.71.16l.77.2c.05 0 .18 0 .36-.05a.8.8 0 0 1 .47.07c.04.04.09.06.14.08.02.01.04 0 .04-.03v-.03c0-.02.02-.03.04-.04.13.04.24.1.34.18-.27 0-.53-.03-.77-.1a.55.55 0 0 0-.27.03c-.04.01-.04.03 0 .04l.18.1c.1.27.28.48.55.64v.01h-.04c-.18-.1-.34-.11-.47-.06a.6.6 0 0 0-.2-.11.08.08 0 0 1-.06-.06l-.02-.08c.08-.06.12-.11.13-.17 0-.03-.01-.05-.04-.07-.16-.1-.33-.18-.52-.24-.74-.22-1.5-.37-2.28-.44-.02 0-.04-.02-.05-.07a.87.87 0 0 1 .44-.1c.09 0 .14-.05.17-.14l.26-1.03.32.05Z" fill="#FCF7DF"/><path d="M6.25 8.79c-.01.21-.15.37-.4.48l-.51.22c-.18.08-.36.14-.53.18l-.67.19c-.03.05-.06-.02-.09-.2h.02c.36.02.64 0 .82-.07a3.2 3.2 0 0 0 1.36-.8Z" fill="#DE993A"/><path d="M9.6 9.9c-.16.15-.3.22-.42.2a.42.42 0 0 1-.15-.29l.55-.05c.03 0 .05-.02.06-.05a.33.33 0 0 1 .05-.11c.02-.03.02-.05-.02-.06l-.34-.11c.22 0 .28-.03.2-.1l.32-.2a.07.07 0 0 0 .03-.08.06.06 0 0 0-.05-.06l-.27-.05c.3.03.57-.01.8-.13.1-.05.12-.03.08.07l-.2.53c-.07.23-.29.4-.64.49Z" fill="#795C51"/><path d="m9.33 9.43.34.11c.04.01.04.03.02.06a.33.33 0 0 0-.05.11c0 .03-.03.05-.06.05l-.55.05c-.45-.01-.88-.1-1.3-.28a.11.11 0 0 1-.05-.05c-.1-.21-.01-.33.27-.35.05-.01.12 0 .2.03.39.12.78.2 1.18.27Z" fill="#265377"/><path d="m12.48 9.47-.48.01c-.25.17-.43.38-.56.63a8.3 8.3 0 0 1-.71-.16c-.13-.03-.18-.09-.16-.17 0-.04.03-.05.06-.05.22.02.4.01.5 0 .18-.04.32-.12.44-.23a.1.1 0 0 1 .07-.04l.84.01Z" fill="#EBCAA4"/><path d="M12 9.48c-.08.08-.13.16-.13.23 0 .04 0 .06.03.08.31.19.66.3 1.04.33.04 0 .07-.02.07-.06l.03-.3c0-.04 0-.06-.03-.08l-.23-.15c.12.02.22.06.3.12.03.01.04.04.05.07l.1.3.03.3c-.02 0-.03.01-.05.03a.3.3 0 0 0-.08-.1c-.03-.03-.05-.03-.07 0-.02.02-.02.04-.02.08a.8.8 0 0 0-.47-.07c-.18.04-.3.06-.36.04-.22-.05-.48-.11-.77-.2.13-.24.31-.45.56-.62Z" fill="#CC9580"/><path d="m12.48 9.47.3.06.23.15c.03.02.04.04.03.07l-.03.3c0 .05-.03.07-.07.07a2.32 2.32 0 0 1-1.04-.33.07.07 0 0 1-.03-.08c0-.07.05-.15.13-.23h.48Z" fill="#CA7431"/><path d="m4.44 9.9-.33.12a.12.12 0 0 1-.03-.06c0-.04 0-.06.05-.06h.3Z" fill="#2B1305"/><path d="m9.6 9.9.14.01c.01.05.03.07.05.07.78.07 1.54.22 2.28.44.19.06.36.14.52.24.03.02.04.04.04.07-.01.06-.05.11-.13.17a1.8 1.8 0 0 1-.58.04l-.53-.04a7.96 7.96 0 0 1-1.26-.17c-.03 0-.25-.1-.65-.3-.06-.03-.2-.06-.4-.08-.04 0-.04-.02-.02-.05l.12-.2c.12.02.26-.05.42-.2Z" fill="#CA7431"/><path d="M8.71 10.98c-.5-.1-.97-.3-1.42-.59a.51.51 0 0 0-.44-.06l-.17-.17a.07.07 0 0 1-.02-.08c0-.03.03-.05.05-.06.05-.03.12-.02.18.03a4.94 4.94 0 0 0 1.73.83c.03 0 .05.01.06.03.06.03.07.06.03.07Z" fill="#696868"/><path d="m13.76 10.52-.1-.01c.02-.04 0-.08-.05-.12-.04-.03-.05-.05-.04-.08 0-.02.01-.03.03-.04.11-.03.21-.08.3-.15h.02v.02l-.16.38Z" fill="#090408"/><path d="m8.71 10.98-.6-.1a2.53 2.53 0 0 0-.19-.07c-.16-.06-.19-.02-.08.12a.5.5 0 0 0 .17.07.2.2 0 0 1 .1.05c.04.02.03.04-.01.03H8a.1.1 0 0 0-.08.02c-.14.16-.38.25-.7.28l-1.14.07-.02-.02c.51-.02.93-.06 1.24-.12.15-.03.32-.12.49-.26.02-.01.02-.03 0-.04a2.43 2.43 0 0 1-.94-.68c.16-.04.3-.02.44.06.45.29.92.48 1.42.59Z" fill="#265377"/><path d="M13.6 10.5h.07c.02.02.05.02.1.02a.78.78 0 0 1-.13.38l-.9-.34-.19-.1c-.03-.01-.03-.03 0-.04.13-.03.22-.04.28-.02.24.06.5.09.77.1Z" fill="#4FC5EB"/><path d="m8.1 10.89-.09.11a.5.5 0 0 1-.17-.07c-.11-.14-.08-.18.08-.12l.18.08ZM12.78 11.23l.56.22-.04.17c-.03.02-.03.02-.01 0a.54.54 0 0 1-.23-.06 3.88 3.88 0 0 0-1.04-.28l-2.7.02c-.35 0-.68-.05-.98-.15-.06-.05-.1-.1-.1-.12 0-.04.03-.05.06-.05.36.03.62.06.8.1.17.03.32.04.43.03.09 0 .18 0 .29.03.07.02.17.02.28.02.66-.03 1.27-.03 1.85 0 .22 0 .5.03.83.07Z" fill="#1F93D7"/><path d="M8.34 11.15c.3.1.63.15.98.15-.17.23-.4.4-.7.5a1.83 1.83 0 0 0-.6-.07 16.1 16.1 0 0 1-1.79.06l.02-.02a12.47 12.47 0 0 1 .67-.01.66.66 0 0 1-.39-.06h-.05c-.04-.01-.04-.02 0-.04l.05-.01a7.25 7.25 0 0 1-.4-.05.2.2 0 0 0 .14-.04c.8.08 1.5-.06 2.07-.41Z" fill="#265377"/><path d="M13.06 11.56v.04c-.01.04-.03.05-.06.04a6.99 6.99 0 0 0-1-.25l.02.02a.1.1 0 0 1 .05.07c.05.16.13.32.24.48a.1.1 0 0 1 .01.06l-.01.15c0 .03 0 .04.04.04a.9.9 0 0 1 .46.06c-.03.05-.05.07-.07.08a.66.66 0 0 0-.41 0c-.03.02-.04.04-.03.07.03.06.03.1 0 .14-.01.04-.03.04-.06 0l-.05-.09c-.03-.06-.06-.06-.07.02-.01.15.03.26.14.33l-.37.28a.32.32 0 0 1-.14-.3c.04 0 .06-.01.08-.03.03-.01.04-.04.02-.06a6.6 6.6 0 0 0-.42-.68.52.52 0 0 1-.14-.19 7.19 7.19 0 0 0-.18-.4.1.1 0 0 0-.07-.05.52.52 0 0 0-.21 0 .5.5 0 0 0-.19-.02l-.66.06a.27.27 0 0 0-.2 0c.01-.08-.03-.12-.13-.11-.05 0-.1.02-.14.05-.33.26-.68.46-1.05.6-.02-.04.04-.1.16-.17.3-.1.53-.27.7-.5l2.7-.02c.17 0 .52.1 1.04.28Z" fill="#AABAE3"/><path d="M9.78 11.42c-.19.09-.34.2-.44.33a.16.16 0 0 0-.03.16c.03.07.07.1.14.1l.25.03.01.02v.03l-.01.01-.4.02a.05.05 0 0 0-.05.03.05.05 0 0 0 0 .05.2.2 0 0 0 .07.06l.05.06.23.4c.02.03.04.04.06.05h.3l.66.04a.64.64 0 0 1-.31.05 43.22 43.22 0 0 1-2.3 0 .17.17 0 0 0-.05.08c.01-.01 0-.02-.05-.01-.03-.1-.1-.16-.23-.16-.2 0-.35 0-.46-.02-.08-.02-.08-.03 0-.04.2-.03.41-.03.6 0l.04-.01v-.03l-.13-.22a.13.13 0 0 0-.06-.05c-.05-.02-.07-.06-.06-.12 0-.04 0-.06-.04-.06l-.38-.02-.27-.02a.27.27 0 0 1-.09-.03.46.46 0 0 0-.4.01l-.38-.03c-.03 0-.06.01-.08.03l-.42.47a.28.28 0 0 1-.13-.12l.3-.26a.09.09 0 0 0 .02-.09.09.09 0 0 0-.06-.06l-.1-.04c.25-.07.53-.07.86-.02.1.03.2.05.3.04a3.23 3.23 0 0 1 .83.03c.13 0 .33-.03.6-.1.1-.04.2-.05.29-.03.37-.15.72-.35 1.05-.6.05-.04.1-.06.14-.06.1 0 .14.03.13.1Z" fill="#FCF7DF"/><path d="M13.06 11.56c.06.03.14.05.23.06l-.48.65a.9.9 0 0 0-.46-.06c-.03 0-.04-.01-.04-.04l.01-.15a.1.1 0 0 0-.01-.06 1.47 1.47 0 0 1-.24-.48.1.1 0 0 0-.05-.07.08.08 0 0 1-.02-.02c-.02-.01 0-.02.02-.01.33.06.66.15.98.26.03 0 .05 0 .05-.04v-.04Z" fill="#4FC5EB"/><path d="m10.64 11.37.38.48c.02.04.02.07-.01.1l-.08.02h-.22c-.04 0-.04.01 0 .03.06.02.13.03.21.02.03 0 .06 0 .08.02.04.03.07.06.08.1l.06.14c.1.15.15.3.17.48 0 .03-.01.04-.04.04h-.65l-.66-.03.01-.07c0-.03.03-.04.06-.04l.07.01c.05 0 .06-.01.04-.06l-.4-.97c-.02-.03-.01-.06.02-.07l.22-.14.66-.06Z" fill="#7A62C0"/><path d="m11.75 12.8-.92-1.41a.52.52 0 0 1 .22 0 .1.1 0 0 1 .06.05 28.79 28.79 0 0 1 .18.4c.02.06.07.12.14.2l.1.1c.14.22.24.4.32.57.02.02.01.05-.02.06a.23.23 0 0 1-.08.03ZM9.98 11.43l-.22.14c-.03.01-.04.04-.03.07l.41.97c.02.05 0 .06-.04.06h-.07c-.03-.01-.05 0-.06.03l-.01.07h-.3a.08.08 0 0 1-.06-.04l-.23-.4a.17.17 0 0 0-.05-.07.2.2 0 0 1-.07-.06v-.05a.05.05 0 0 1 .05-.03l.4-.02h.01v-.04l-.01-.02-.25-.02a.16.16 0 0 1-.14-.1.16.16 0 0 1 .03-.17c.1-.14.25-.24.44-.33a.27.27 0 0 1 .2.01Z" fill="#E489B2"/><path d="M6.53 11.7a.66.66 0 0 0 .4.06s.01 0 0 0a10.83 10.83 0 0 1-.68.01c-.01 0-.02 0-.02.02s.01.02.02.02c.6 0 1.18-.02 1.76-.08.17-.02.37 0 .61.07-.12.07-.18.13-.16.18a.58.58 0 0 0-.29.03l.23-.13c.03-.02.03-.02 0-.02l-2.98.03c-.14-.02-.3 0-.48.05-.03-.08.09-.13.36-.15l1.23-.09Z" fill="#1F93D7"/><path d="M8.17 12c-.27.08-.47.12-.6.11l-.52-.04-.3.01a.8.8 0 0 1-.31-.04l-1.02-.15 2.97-.03c.04 0 .04 0 0 .02l-.22.13Z" fill="#4DA5D9"/><path d="m11.53 12.87-1.22-.01c.12 0 .23-.01.3-.05h.66c.03 0 .04-.02.04-.05a1.25 1.25 0 0 0-.17-.48l-.06-.14a.24.24 0 0 0-.08-.1.11.11 0 0 0-.08-.02.44.44 0 0 1-.2-.02c-.05-.02-.05-.03 0-.03h.21c.04 0 .06 0 .08-.02.03-.03.03-.06.01-.1.12.15.24.31.33.49.14.23.2.41.18.53Z" fill="#6E95C5"/><path d="m5.42 11.9 1.02.14c-.33-.05-.61-.05-.85.02a1.6 1.6 0 0 0-.53.02c-.02 0-.06-.04-.12-.14.19-.05.34-.07.48-.05Z" fill="#8BD9F7"/><path d="m5.59 12.06.1.04c.03 0 .05.03.05.06 0 .04 0 .07-.03.09l-.29.26-.36-.43c.16-.04.33-.04.53-.02Z" fill="#E489B2"/><path d="m8.42 12.33-.3-.02a.2.2 0 0 1-.06-.02c-.06-.02-.12 0-.19.05a.26.26 0 0 1-.11-.08c-.03-.04-.02-.06.02-.07l.67-.07c.02 0 .04 0 .06-.02l.04-.02h.05l.09.12c.07.13.04.17-.1.11-.03 0-.09 0-.17.02ZM6.43 12.16c.05 0 .1.03.13.06a.1.1 0 0 1 .02.08c0 .05.02.08.06.11.11.09.16.2.12.31-.01.04 0 .07.04.07h.03c.04 0 .05.03.06.06 0 .07 0 .13-.04.17-.03.02-.05.02-.08 0-.03 0-.05-.04-.04-.09 0-.03-.01-.04-.04-.03l-.03.04c-.01.03-.03.04-.06.03-.07-.02-.11 0-.15.03-.01.02-.02.02-.03 0a.4.4 0 0 1-.1-.12v-.03c.12-.08.22-.1.32-.04.03.01.05 0 .05-.03l-.01-.07c-.02-.02-.03-.03-.06-.02a.53.53 0 0 1-.26.04.11.11 0 0 1-.08-.04c-.03-.03-.05-.09-.06-.18 0-.01-.01-.02-.03-.02h-.03c-.02.02-.02.04-.01.06.06.16.1.3.11.44 0 .05-.01.07-.06.07h-.04l-.04-.04c-.03-.13-.07-.14-.13-.04l-.44-.35.42-.47a.09.09 0 0 1 .08-.03l.38.03Z" fill="#DF6DE5"/><path d="M7.2 12.2h-.24c-.02 0-.03.02-.03.04l.01.04.06.03h.03l.44.03c.02 0 .02.01.02.03l-.02.02a1.34 1.34 0 0 0-.46.01c-.04 0-.06.03-.06.07.02.12.06.2.13.27a.1.1 0 0 1 .04.08c0 .08.04.13.12.14.2.03.42.02.67-.03.05 0 .06 0 .05.01l2.3.03 1.03.02V13l-1 .04-.8.01c-.05 0-.08.03-.07.1 0 .05.03.08.07.09h.05c.08.02.14.01.2-.02a.15.15 0 0 1 .08-.02l.25.03c.05.02.05.03 0 .04a.36.36 0 0 0-.16.05.07.07 0 0 1-.08 0c-.06-.04-.15-.05-.27-.03-.04 0-.06.03-.05.06 0 .03.02.06.06.09.03.02.05.05.05.08l.05.33c0 .03.02.04.05.04.1-.02.15 0 .18.04-.15.04-.3.06-.44.04a.16.16 0 0 1-.01-.09 1.14 1.14 0 0 0-.23-.44.57.57 0 0 0-.07-.06c-.1-.08-.13-.16-.11-.25.01-.05-.01-.08-.07-.08l-.94.05-.76-.02c-.04 0-.06.01-.07.05-.06.2 0 .4.15.6a5.07 5.07 0 0 1-1.36-.76c.06-.1.1-.09.13.04 0 .02.02.03.04.03h.04c.05.01.07-.01.06-.06a1.37 1.37 0 0 0-.11-.44c-.01-.02 0-.04.01-.05h.03l.03.01c0 .09.03.15.06.18.02.03.05.04.08.04.1 0 .19 0 .26-.04.03-.01.04 0 .06.02l.01.07c0 .03-.02.04-.05.03-.1-.06-.2-.04-.32.04v.03c.02.05.05.09.1.13h.03c.04-.04.08-.06.15-.04.03 0 .05 0 .06-.03l.03-.04c.03 0 .04 0 .04.03 0 .05 0 .08.04.1.03.01.05.01.08-.01.03-.04.05-.1.04-.17 0-.03-.02-.05-.06-.06H6.8c-.04 0-.05-.03-.04-.07.04-.12 0-.22-.12-.3a.12.12 0 0 1-.06-.12.1.1 0 0 0-.02-.08.2.2 0 0 0-.13-.06.46.46 0 0 1 .4 0l.1.02.26.02Z" fill="#FAE9F6"/><path d="M8.07 12.5c-.02-.04-.03-.06-.02-.08 0-.02.03-.02.06-.02a1 1 0 0 0 .3-.04c.07.04.13.06.2.05l.19-.03c.13.01.2.08.22.2 0 .04.02.07.05.08.05.03.1.03.15.01.02 0 .03-.02.03-.04a.04.04 0 0 0-.03-.05c-.1-.04-.14-.1-.1-.18.01-.03 0-.05-.02-.07l-.15-.08c-.03-.02-.05-.01-.05.03l-.01.03c-.02.03-.04.03-.06 0a8.17 8.17 0 0 1-.1-.14l.01-.03h.03l.1.05c.03.02.05.02.07 0 .04-.02.1-.01.17.03.03.01.05.04.05.07 0 .04.03.07.07.1.03.01.05.03.06.05l.23.31v.02l-.02.02h-.02a.54.54 0 0 0-.24-.03 2.38 2.38 0 0 1-.84-.03.34.34 0 0 1-.19-.07.98.98 0 0 1-.14-.16Z" fill="#E489B2"/><path d="M7.91 12.93c-.25.05-.48.06-.67.03-.08 0-.13-.06-.12-.14a.1.1 0 0 0-.04-.08.43.43 0 0 1-.13-.27c0-.04.02-.06.06-.07a1.34 1.34 0 0 1 .46 0l.02-.03c0-.02 0-.03-.02-.03l-.44-.02L7 12.3l-.06-.03c-.01-.01-.02-.03-.01-.04 0-.02.01-.03.03-.03h.23l.38.01c.03 0 .05.02.04.06-.01.06 0 .1.06.12.03 0 .05.03.06.05l.13.22v.03c-.01.01-.02.02-.04.01-.19-.03-.4-.03-.6 0-.08.01-.08.02 0 .04l.46.02c.12 0 .2.06.23.16Z" fill="#DF6DE5"/><path d="M5.83 12.45c.03-.1.13-.15.3-.16.03 0 .05.01.07.04a.1.1 0 0 1 .03.08l-.02.01h-.05c-.11-.07-.21-.03-.3.12v.04h.03l.03.01.03.03v.05c-.03.03-.05.03-.07 0l-.1-.1c-.05 0-.05-.02-.03-.05l.04-.02a.08.08 0 0 0 .04-.05Z" fill="#FAE9F6"/><path d="M8.42 12.33v.03a1 1 0 0 1-.31.04c-.03 0-.05 0-.06.02-.01.02 0 .04.02.08-.04.03-.03.1.03.23.02.03.01.05-.02.06a.1.1 0 0 1-.05.01c-.03 0-.05-.02-.06-.05l-.1-.41c.07-.06.13-.07.2-.05a.2.2 0 0 0 .06.02l.3.02Z" fill="#E79EEF"/><path d="m12.74 12.35-.48.47c-.1-.07-.15-.18-.13-.33 0-.08.03-.08.06-.02l.06.1c.02.03.04.03.06 0 .02-.05.02-.1 0-.15-.02-.03-.01-.05.02-.06a.66.66 0 0 1 .4-.01Z" fill="#4FC5EB"/><path d="M10.24 12.86c-.03.04-.02.07.02.11l-2.3-.03a.17.17 0 0 1 .05-.08c.02-.02.05-.02.09-.02.71.02 1.42.03 2.14.02Z" fill="#E489B2"/><path d="m11.53 12.87.03.01.02.04v.33c-.14.01-.19-.06-.14-.2.01-.04 0-.06-.02-.08-.03-.01-.07 0-.13.02l-1.03-.02c-.04-.04-.05-.07-.02-.11 0 .01.02.01.07 0l1.22.01Z" fill="#1F93D7"/><path d="M11.59 13.25c-.02 0 0 .02.03.03l-.21.14-.07-.01a.29.29 0 0 1-.02-.18.32.32 0 0 0-.03-.22V13c.06-.03.1-.03.13-.02.03.02.03.04.02.07-.05.15 0 .22.15.21Z" fill="#AABAE3"/><path d="m11.3 13.01.03.1v.12c-.02.07-.01.12.01.18-.22.15-.5.27-.82.36l-.24-.72 1.01-.04Z" fill="#1F93D7"/><path d="m10.28 13.05.24.72c-.09-.07-.15-.19-.17-.35 0-.04-.02-.06-.03-.07-.03-.02-.06-.02-.1 0-.03 0-.04.03-.02.06.05.08.07.17.07.26 0 .04.01.07.04.09l.03.02.02.02-.02.02-.44.12c-.03-.04-.09-.06-.18-.04-.03 0-.05-.01-.05-.04l-.05-.33a.11.11 0 0 0-.05-.08c-.04-.03-.06-.06-.06-.09s.01-.05.05-.06c.12-.02.21 0 .27.03.03.02.06.02.08 0 .05-.03.1-.04.16-.05.05 0 .05-.02 0-.04l-.25-.03c-.03 0-.06 0-.09.02a.27.27 0 0 1-.19.02H9.5c-.04 0-.07-.04-.07-.1-.01-.06.02-.09.07-.09h.8Z" fill="#E489B2"/><path d="M9.45 13.9a.47.47 0 0 0-.26.03.07.07 0 0 1-.07 0l-.18-.1a.15.15 0 0 0-.1-.02c-.12.02-.29.02-.5 0-.1 0-.15-.05-.14-.13a.1.1 0 0 0-.02-.08.73.73 0 0 1-.12-.23c0-.01 0-.03.02-.03l.03-.02c.02-.02.03-.03.01-.06l-.1-.15.95-.05c.06 0 .08.03.07.08-.02.09.01.17.1.25l.08.06c.1.13.18.28.23.44Z" fill="#7A62C0"/><path d="m8.03 13.11.1.15c0 .03 0 .04-.02.06l-.03.02c-.02 0-.02.02-.02.03.04.1.08.18.12.23a.1.1 0 0 1 .02.08c-.01.08.03.12.13.13.22.02.39.02.5 0 .04-.01.08 0 .11.01l.18.1c.02.02.04.02.07.01a.47.47 0 0 1 .26-.04l.01.1a.7.7 0 0 0-.33.01c-.1.01-.18-.01-.25-.08a.13.13 0 0 0-.08-.04c-.16-.01-.32 0-.48.07a.15.15 0 0 1-.09 0l-.88-.2c-.16-.21-.2-.41-.15-.61.01-.04.03-.05.07-.05l.76.02ZM8.85 13.37a1.45 1.45 0 0 1-.08-.05c-.07-.07-.05-.1.04-.09l.07.04.02.03v.05c-.01.03-.02.04-.05.02Z" fill="#E79EEF"/><path d="M7.56 13.34a.3.3 0 0 1 .2-.02.1.1 0 0 1 .07.05l.2.35c.02.02.01.04-.01.04a.87.87 0 0 1-.56-.03.08.08 0 0 1-.04-.07.83.83 0 0 0-.05-.29c-.02-.03-.01-.05.03-.05.03 0 .06 0 .1.02h.06Z" fill="#7A62C0"/></svg>