<!-- by TradingView --><svg width="18" height="18" viewBox="0 0 18 18" xmlns="http://www.w3.org/2000/svg"><path fill="#F0F3FA" d="M0 0h18v18H0z"/><path d="M13.82 5.67s.4 1.28-.96 2.61c-.32.3-.7.67-1.07 1.07 0 0-1.62 1.17-1.74 3.87 0 0-.81.45-2.02.6 0 0 1.33.23 3.27-.84 0 0 1.65-.85 2.2-2.41l-.81.24 1.54-1.89.4 1.3-.56.19s-.91 4.12-5.36 4.18c0 0-3.09.18-5.02-2.14A6.4 6.4 0 0 0 8.7 15C12.18 15 15 12.19 15 8.97c0-.85-.28-2.2-1.18-3.3Z" fill="url(#aq02djaa4)"/><path d="M6.76 11.75c-.03-.4-.06-.86-.12-1.35 0 0 .14-1.8-1.75-3.44 0 0 .18-.82.8-1.75 0 0-.97.8-1.39 2.75 0 0-.36 1.7.43 2.98l.48-.83.24 2.2-1.14-.6.17-.29s-2.44-3.08.25-6.18c0 0 1.77-2.23 4.64-2.22A6.27 6.27 0 0 0 4.44 5a5.4 5.4 0 0 0 .5 7.83c.63.5 1.77 1.09 3.12 1.1 0 0-1.17-.48-1.3-2.18Z" fill="url(#bq02djaa4)"/><path d="M8.12 4.7s2.01-1.37 4.46.2c0 0 .69.39 1.47 1.34-.07-.1-.42-.87-1.26-1.5a4.65 4.65 0 0 0-5.86.2c-.43.4-.99 1.2-1.08 2.11 0 0 .47-.76 1.82-.75.37 0 .62-.02 1.08 0 0 0 1.42.23 2.88-1.03 0 0 .57.17 1.27.66 0 0-.57-.72-2.09-1.13 0 0-1.26-.37-2.37.1l.6.42-1.73.02.52-.77.29.14Z" fill="url(#cq02djaa4)"/><path d="M6.07 4.58c.19 0 .73.11 1.8 1.09L5.77 7.72C5.6 7.1 5.24 5.47 6 4.59h.07Zm0-.15c-.11 0-.16.03-.16.03-1.07 1.16-.2 3.55-.2 3.55l2.37-2.35C6.95 4.6 6.34 4.43 6.07 4.43Z" fill="#083629"/><path d="M5.75 7.89a6.7 6.7 0 0 1-.27-1.23c-.07-.65-.05-1.54.45-2.12.09.03.3.1.58.31.33.25.82.75 1.3 1.7L5.76 7.9Z" fill="#C4FF8B"/><path d="M5.96 4.63c.1.04.29.11.52.29.31.24.78.71 1.24 1.61L5.8 7.77a6.46 6.46 0 0 1-.23-1.12c-.05-.42-.04-.8.02-1.12.06-.36.19-.66.37-.9Zm-.05-.17c-1.07 1.16-.2 3.55-.2 3.55l2.2-1.43c-.96-1.97-2-2.12-2-2.12Z" fill="#083629"/><path opacity=".15" d="M5.93 4.6s.97.55 1.25 1.67l.4-.2S6.6 4.5 5.93 4.6Z"/><path d="M12.71 4.58a.3.3 0 0 1 .07 0c.21.25.35.56.42.95.06.33.06.7.02 1.12-.05.44-.15.83-.22 1.07l-2.08-2.05c1.06-.98 1.6-1.09 1.8-1.09Zm0-.15c-.26 0-.88.16-2.01 1.23l2.38 2.35s.86-2.39-.2-3.55c0 0-.05-.03-.17-.03Z" fill="#083629"/><path d="M12.88 4.46s-1.04.15-2.01 2.12l2.2 1.43s.87-2.39-.2-3.55Z" fill="#C4FF8B"/><path d="M12.82 4.63c.19.24.31.54.38.9.06.32.06.7.02 1.12-.05.47-.16.89-.23 1.12l-1.92-1.24c.46-.9.92-1.37 1.24-1.61.23-.18.41-.25.5-.29Zm.06-.17s-1.04.15-2.01 2.12l2.2 1.43s.87-2.39-.2-3.55Z" fill="#083629"/><path d="M12.93 6.9C11.83 5.4 9.8 5.42 9.4 5.44 9 5.41 6.95 5.4 5.85 6.91c0 0-1.43 1.96-1.26 3.82 0 0 .03.65 1.07 1.38 0 0 2 1.57 3.73 1.48 1.74.1 3.74-1.48 3.74-1.48 1.04-.73 1.07-1.38 1.07-1.38.16-1.86-1.27-3.82-1.27-3.82Z" fill="#35B975"/><path d="M14.11 9.96s0-.26-.08-.47c-.23-.1-.55-.16-1.02-.17 0 0-1.17.07-2.2.53 0 0-.05-.7-1.43-.69-1.37-.01-1.43.7-1.43.7a6.93 6.93 0 0 0-2.2-.54c-.45 0-.77.07-1 .17l-.08.45c-.1.62-.1 1.17.75 1.92 0 0 1.9 1.66 3.95 1.67v.01c1.8.1 3.93-1.64 3.93-1.64.86-.7.92-1.14.81-1.94Z" fill="#C4FF8B"/><path opacity=".15" d="M14.11 10.76c-.11.82-1.45 1.62-1.45 1.62-2.12 1.34-3.23 1.15-3.23 1.15-2.45.04-4.46-2.17-4.46-2.17 2.25 1.98 4.44 1.89 4.44 1.89 1.3.02 3.11-1.16 3.11-1.16s1.18-.76 1.22-1.36c0 0 .21-2-.68-3.48 0 0 1.21 1.59 1.05 3.51Z"/><path d="M9.56 5.58c.3 0 .88.03 1.5.22.75.24 1.33.64 1.74 1.2 0 0 .35.48.68 1.18.2.41.34.82.43 1.2.12.48.16.93.13 1.34 0 .01-.02.16-.14.38-.12.2-.37.54-.87.9-.01 0-.48.36-1.14.72a5.3 5.3 0 0 1-2.49.72h-.16a5.3 5.3 0 0 1-2.34-.72c-.67-.36-1.13-.72-1.14-.73-.5-.35-.76-.68-.88-.9a1 1 0 0 1-.14-.37c-.03-.4.01-.86.13-1.33.1-.39.24-.79.43-1.2.33-.7.68-1.2.68-1.2.4-.55.99-.95 1.74-1.19a5.13 5.13 0 0 1 1.66-.22H9.56Zm0-.15a4.2 4.2 0 0 0-.34 0c-.64 0-2.38.13-3.37 1.48 0 0-1.43 1.96-1.26 3.82 0 0 .03.65 1.07 1.38 0 0 1.88 1.49 3.58 1.49h.3c1.7 0 3.59-1.49 3.59-1.49 1.04-.73 1.07-1.38 1.07-1.38.16-1.86-1.27-3.82-1.27-3.82-.98-1.35-2.73-1.48-3.37-1.48Z" fill="#083629"/><path d="M9.45 10.44H9.3v.8h.14v-.8Z" fill="#073629"/><path d="M10.58 11.17c-.02-.1-.1-.07-.1-.07-.2.06-.54.08-.54.08a.6.6 0 0 1-.56-.39v-.02.01l-.01-.01v.02a.6.6 0 0 1-.56.39s-.34-.02-.55-.08c0 0-.07-.03-.1.07 0 0-.17.8.65 1.06h1.13c.82-.26.64-1.06.64-1.06Z"/><path d="m9.36 10.99.01.04.02-.04c.1.13.27.27.55.27.02 0 .34-.02.55-.07a1 1 0 0 1-.01.4.78.78 0 0 1-.55.56H8.82c-.3-.1-.48-.29-.55-.56a.97.97 0 0 1-.01-.4c.21.05.53.07.54.07.29 0 .46-.14.56-.27Zm.02-.23v.02l-.01-.02v.03a.6.6 0 0 1-.56.39s-.34-.02-.55-.08h-.02c-.03 0-.06 0-.07.07 0 0-.18.8.64 1.06h1.13c.82-.26.64-1.06.64-1.06-.01-.06-.04-.07-.07-.07h-.03c-.2.06-.54.08-.54.08a.6.6 0 0 1-.56-.39v-.03Z" fill="#073629"/><path d="M9.36 12.92c-.57 0-.73-.37-.74-.39-.09-.19 0-.43.02-.5a.7.7 0 0 1 .37-.12c.2 0 .3.12.32.14l.05.07.06-.07a.43.43 0 0 1 .32-.14.7.7 0 0 1 .36.12c.03.07.11.31.02.5 0 .02-.16.37-.7.39h-.08Z" fill="#E46767"/><path d="M9 11.97c.17 0 .27.11.27.13l.11.13.11-.13c.02-.02.1-.12.27-.12.1 0 .2.03.3.1.04.1.09.29.02.42-.01.03-.15.33-.61.36h-.11c-.51 0-.67-.33-.68-.35-.06-.14-.02-.34.02-.44.11-.06.21-.1.3-.1Zm0-.13a.79.79 0 0 0-.41.15s-.15.32-.03.56c0 0 .17.43.8.43h.05c.62 0 .8-.43.8-.43.12-.24-.03-.56-.03-.56a.8.8 0 0 0-.42-.14.5.5 0 0 0-.38.16.5.5 0 0 0-.37-.17Z" fill="#8B2D30"/><path d="M9.46 12.07h-.14v.67h.14v-.67Z" fill="#8B2D30"/><path d="M9.83 12.19c-.2-.08-.33.17-.33.17l-.1.15s-.05-.03-.12-.15c0 0-.12-.25-.32-.17 0 0-.18.06-.06.33 0 0 .1.3.5.3.38 0 .49-.3.49-.3.11-.27-.06-.33-.06-.33Z" fill="#FFAAAE"/><path d="M9.41 9.52c-.45 0-.82.14-.82.32 0 .32.58.68.8.68.2 0 .84-.36.84-.68 0-.18-.36-.32-.82-.32Z" fill="#000709"/><path d="M9.4 9.98c.35 0 .64-.1.64-.2 0-.12-.29-.2-.64-.2-.35 0-.63.08-.63.2 0 .1.28.2.63.2Z" fill="gray"/><path d="M7.2 6.64s.54-.14.92.15c0 0-.34-.52-.93-.15ZM10.64 6.79c.38-.3.93-.15.93-.15-.59-.38-.93.15-.93.15Z" fill="#003323"/><path d="M8.12 8.47c-.04-.74-.55-.94-.55-.94-.63-.19-1.03.38-1.03.38-.4.5-.16 1.04-.16 1.04a3.91 3.91 0 0 1 1.58.17c.2-.2.16-.65.16-.65Z" fill="#23A662"/><path d="M7.94 8.43c-.09-.65-.53-.72-.53-.72-.52-.08-.78.41-.78.41-.2.38-.01.72-.01.72.82-.06 1.26.17 1.26.17.13-.16.06-.58.06-.58Z"/><path d="M6.82 8.39c.05-.03.07-.08.05-.12-.03-.03-.08-.03-.13 0-.05.04-.07.09-.05.12.02.03.08.03.13 0ZM7.45 8.02c-.03-.08-.12-.05-.12-.05l-.11.02c.1-.04.05-.12.05-.12-.06-.09-.17-.02-.17-.02-.16.1-.14.3-.14.3.15.05.33.02.33.02.2-.03.16-.15.16-.15Z" fill="#fff"/><path d="M12.23 7.9s-.4-.56-1.02-.37c0 0-.52.2-.56.94 0 0-.03.45.16.65 0 0 .54-.23 1.58-.17 0 0 .24-.54-.16-1.05Z" fill="#23A662"/><path d="M12.14 8.12s-.25-.5-.78-.41c0 0-.44.06-.53.72 0 0-.06.42.06.58 0 0 .44-.23 1.26-.18 0 0 .19-.33-.01-.7Z"/><path d="M11.13 8.27c-.03-.03-.08-.02-.13 0-.05.04-.07.1-.04.12.03.03.08.02.13 0 .05-.04.07-.1.04-.12ZM11.72 8.02c-.03-.08-.12-.05-.12-.05l-.11.02c.1-.04.05-.12.05-.12-.06-.09-.17-.02-.17-.02-.16.1-.14.3-.14.3.14.05.33.02.33.02.2-.03.16-.15.16-.15Z" fill="#fff"/><defs><linearGradient id="aq02djaa4" x1="8.69" y1="15.07" x2="10.27" y2="5.11" gradientUnits="userSpaceOnUse"><stop stop-color="#32B875"/><stop offset="1" stop-color="#78C940"/></linearGradient><linearGradient id="bq02djaa4" x1="5.12" y1="13.53" x2="6.76" y2="2.63" gradientUnits="userSpaceOnUse"><stop stop-color="#39B971"/><stop offset="1" stop-color="#78C940"/></linearGradient><linearGradient id="cq02djaa4" x1="9.78" y1="7.64" x2="10.36" y2="3.8" gradientUnits="userSpaceOnUse"><stop stop-color="#69C54B"/><stop offset="1" stop-color="#7DCA2D"/></linearGradient></defs></svg>