<!-- by TradingView --><svg width="18" height="18" viewBox="0 0 18 18" xmlns="http://www.w3.org/2000/svg"><path fill="url(#a)" d="M0 0h18v18H0z"/><path d="M11.22 3.42a5.7 5.7 0 0 1 .83.41l.33.2.28.2a12.14 12.14 0 0 1 .77.71l.34.4.34.48.18.3a12.37 12.37 0 0 0 .14.27 6.63 6.63 0 0 1 .5 3.59 6.86 6.86 0 0 1-.64 1.87 4.55 4.55 0 0 1-.66.97c-.14.16-.25.3-.4.44a6.55 6.55 0 0 1-1.58 1.13l-.5.21a5.8 5.8 0 0 1-4.33 0l-.43-.2a9.2 9.2 0 0 1-.87-.52 6.32 6.32 0 0 1-1.76-1.95 5.89 5.89 0 0 1-.7-2.16 5.48 5.48 0 0 1 .01-1.67 6.1 6.1 0 0 1 .63-1.9c.08-.17.16-.34.27-.5a12.57 12.57 0 0 1 .8-.97 10.77 10.77 0 0 1 .9-.73l.5-.3a9 9 0 0 1 1.03-.43 13.61 13.61 0 0 1 1.21-.24 5.73 5.73 0 0 1 2.8.39Zm-2.66-.2a3.92 3.92 0 0 0-1.75.52 3.57 3.57 0 0 0-.6.52c-.08.1-.14.2-.2.3l-.12.3c-.07.24-.08.48 0 .72.03.15.1.28.18.41.05.08.12.16.2.25.28.26.6.48.95.67a4.74 4.74 0 0 1-.7-.74 1.4 1.4 0 0 1-.14-.25.9.9 0 0 1-.03-.45c.1-.3.27-.53.52-.7l.3-.17a3.33 3.33 0 0 1 1.1-.3 3.57 3.57 0 0 1 .5-.05h.41c.33.02.66.06.97.12.36.08.7.2 1.04.38a1.27 1.27 0 0 1 .41.35c.16.18.22.4.2.63-.03.16-.08.29-.14.39a3.28 3.28 0 0 1-1.09 1.04v.01h.01c.22-.06.43-.13.63-.22.19-.08.35-.19.48-.32a.44.44 0 0 0 .12-.09c.26-.28.42-.6.49-.97a1.47 1.47 0 0 0-.13-.93 1.72 1.72 0 0 0-.47-.6 4.48 4.48 0 0 0-.72-.44 4.4 4.4 0 0 0-1.47-.37c-.3-.02-.62-.02-.95 0Zm-3.32 1.7c-.02.2 0 .41.04.62.03.27.13.52.3.74.19.24.42.44.68.59.08.04.17.08.28.11l.19.07.2.07a5.08 5.08 0 0 0 .79.11 17.76 17.76 0 0 1-.93-.44 3.96 3.96 0 0 1-.8-.73c-.07-.1-.13-.21-.17-.32a1.34 1.34 0 0 1 .02-1.05l.18-.36c.11-.17.25-.32.4-.44a4.74 4.74 0 0 1 .7-.44 20.97 20.97 0 0 0 .57-.22l-.14.04a35.2 35.2 0 0 0-.93.33l-.37.19c-.3.15-.57.33-.83.52-.05.03-.1.07-.11.12-.03.1-.05.27-.07.48Zm6.86-.62.15.24c.05.12.1.23.13.35a1.78 1.78 0 0 1-.2 1.32 4.38 4.38 0 0 1-.4.5 1.87 1.87 0 0 1-.47.3c-.3.15-.6.26-.93.33-.07 0-.1.02-.13.07a7.27 7.27 0 0 0-.14.25h.01a5.7 5.7 0 0 0 1.78-.36c.18-.07.34-.17.52-.27.15-.1.28-.2.39-.32.1-.12.2-.24.28-.37.08-.13.15-.27.2-.42.07-.21.1-.43.11-.66 0-.08 0-.19-.05-.25a9.84 9.84 0 0 0-.46-.43c-.2-.2-.43-.37-.68-.52a9 9 0 0 0-.99-.52 5.2 5.2 0 0 0-.88-.29 4.23 4.23 0 0 1 1.51.77c.08.06.16.15.25.28ZM6.98 6.53l.13.12h.02l-.07-.15c-.1-.25-.05-.45.12-.62a1.56 1.56 0 0 1 .8-.42 5.75 5.75 0 0 1 1.47-.14 4.45 4.45 0 0 1 1.09.2c.13.06.25.13.36.22.12.1.2.23.24.37.01.12 0 .24-.04.35a33.46 33.46 0 0 0-.13.25l-.03.04c-.01.01 0 .02 0 0h.03c.2-.18.38-.38.53-.6.09-.1.15-.24.18-.38a.63.63 0 0 0-.03-.35.86.86 0 0 0-.15-.27 1.63 1.63 0 0 0-.51-.39 4.77 4.77 0 0 0-1.65-.38l-.1-.01c-.43-.02-.85 0-1.27.09-.33.06-.64.17-.93.33-.23.12-.4.3-.52.54-.1.2-.1.4 0 .6.02.07.07.15.14.23.1.14.21.26.32.37ZM5.16 5.5a2.37 2.37 0 0 1 0-.83l.02-.13c0-.03 0-.03-.02-.01-.21.16-.4.34-.57.54l-.47.6a.21.21 0 0 0-.04.19c.04.12.09.24.15.34a2.08 2.08 0 0 0 1.02.86c.1.05.19.1.27.12.48.2.98.32 1.49.4a11.5 11.5 0 0 0 .98.08 3 3 0 0 0-.14-.23c-.03-.05-.05-.06-.1-.07a9.9 9.9 0 0 1-.58-.08 4.3 4.3 0 0 1-.87-.3 1.87 1.87 0 0 1-.46-.28 2.5 2.5 0 0 1-.37-.4c-.08-.11-.15-.23-.2-.36-.05-.16-.09-.3-.11-.44Zm8.32-.03a2.2 2.2 0 0 1-.77 1.47 3.35 3.35 0 0 1-1.33.65 2.4 2.4 0 0 1-.37.08 242.78 242.78 0 0 0-1 .13l-.07.22-.05.12a.02.02 0 0 0 .01.03h.01l.55-.03a8.07 8.07 0 0 0 2.15-.4 3.39 3.39 0 0 0 1.4-.9c.1-.11.2-.24.25-.4a.15.15 0 0 0 0-.12 4.8 4.8 0 0 0-.76-1.1l-.02.25Zm-4.62-.04a37.83 37.83 0 0 0-.56.05l-.36.1c-.28.08-.53.19-.71.41a.45.45 0 0 0-.1.25c0 .08.01.17.05.25.04.1.09.17.14.22.08.1.17.18.28.28.02.02.03.01.03-.02-.01-.1.02-.18.1-.26.05-.05.1-.09.16-.12.13-.07.28-.13.43-.17.27-.06.53-.1.8-.1h.23c.2 0 .4.02.58.06.23.03.56.12.67.35.03.05.03.11.03.17 0 .03 0 .03.02.01.12-.11.21-.24.29-.37.1-.18.14-.4.01-.59a.59.59 0 0 0-.13-.14 1.64 1.64 0 0 0-.74-.32 5.4 5.4 0 0 0-1.22-.06Zm-5.07.8c-.14.26-.25.52-.35.8l.01.04a2.51 2.51 0 0 0 .51.34 4.1 4.1 0 0 0 1.2.39l.31.07c.71.13 1.43.21 2.15.24h.56v-.04l-.11-.28a.03.03 0 0 0-.02-.02c-.35-.02-.67-.05-.97-.09a5.06 5.06 0 0 1-2.43-.85 2.05 2.05 0 0 1-.68-.92l-.18.33Zm5.36.2h-.08c-.24.01-.47.04-.7.1-.2.04-.37.1-.52.22a.35.35 0 0 0-.09.1c-.06.13.01.27.1.36a.02.02 0 0 0 .02 0 1.43 1.43 0 0 1 .85-.25 8.22 8.22 0 0 0 .5-.03 16.09 16.09 0 0 1 .7.07l.25.1.11.08a.02.02 0 0 0 .03 0c.11-.08.22-.22.2-.36a.25.25 0 0 0-.14-.18 1.6 1.6 0 0 0-.44-.15c-.23-.05-.5-.07-.79-.06Zm1.45 1.82-.7.02c-.04 0-.05.02-.05.05a5.53 5.53 0 0 1-.02.3l.53-.01a19.38 19.38 0 0 0 2.53-.2 5.9 5.9 0 0 0 1.3-.35c.15-.06.3-.15.48-.28a.18.18 0 0 0 .06-.07.17.17 0 0 0 0-.1 5.97 5.97 0 0 0-.4-1.07 3.72 3.72 0 0 1-.27.42 4.21 4.21 0 0 1-.95.69l-.4.15c-.23.1-.47.17-.7.23a8.7 8.7 0 0 1-1.41.22Zm-.4-.95V7.25a.95.95 0 0 0-.4-.16 3.95 3.95 0 0 0-1.52.06.8.8 0 0 0-.33.18c-.02.02-.02.03 0 .06a10.03 10.03 0 0 1 .15.25h.03c.16-.08.3-.1.5-.13.3-.04.6-.04.9 0 .15.03.29.07.42.14a.03.03 0 0 0 .04 0l.21-.34Zm-4.04 1.3.56.01a74.64 74.64 0 0 0 1.53-.02 1.58 1.58 0 0 0-.04-.35H8.2c-.61-.01-1.22-.05-1.83-.12a10.59 10.59 0 0 1-2.21-.5c-.27-.11-.52-.26-.75-.44-.01-.01-.02 0-.03.01a6.5 6.5 0 0 0-.2.83c0 .02 0 .03.02.05l.16.07a4.77 4.77 0 0 0 1.07.28c.57.09 1.15.14 1.73.17Zm2.1-.53c0 .02 0 .04.02.05h.05a2.67 2.67 0 0 1 .87-.08 2.62 2.62 0 0 1 .58.11l.01-.01.13-.38a.03.03 0 0 0-.02-.04c-.15-.06-.31-.1-.47-.12a3.12 3.12 0 0 0-1.28.13c.05.1.09.22.11.34Zm3.67.57a3.97 3.97 0 0 0-.44.03 15.87 15.87 0 0 0-.73.04 6.78 6.78 0 0 1-.93.02l-.01.01v.29a120.62 120.62 0 0 0 2.36.01c.53-.01 1.07-.04 1.6-.09.25-.02.5-.05.75-.1a1.53 1.53 0 0 0 .36-.12 5.4 5.4 0 0 0-.12-.89c-.22.17-.46.3-.72.39a5.88 5.88 0 0 1-1.52.33l-.6.08ZM8.3 8.28v.02l.04.3a.02.02 0 0 0 .02.02h1.36V8.6l.03-.3a.03.03 0 0 0-.03-.04 2.2 2.2 0 0 0-.55-.11 3 3 0 0 0-.87.09v.03Zm-3.08.36a10.36 10.36 0 0 1-1.55-.26 3.64 3.64 0 0 1-.52-.19 5.64 5.64 0 0 0-.03 1.18 7.2 7.2 0 0 1 1.61-.19l.34-.01.32-.03a11.17 11.17 0 0 0 .87-.03 42.12 42.12 0 0 0 1.27-.03 40.77 40.77 0 0 0 .7-.01l.01-.03v-.29a.02.02 0 0 0-.01-.02 129.8 129.8 0 0 1-2.06-.02c-.28-.01-.6-.04-.95-.07Zm3.1.42a3.2 3.2 0 0 0 .74.1 4.05 4.05 0 0 0 .67-.12l-.01-.19v-.1a.01.01 0 0 0-.02-.01l-.58-.02a6.44 6.44 0 0 0-.76.02l-.03.32Zm5.05.06a4.13 4.13 0 0 0-.63.02c-.14 0-.26 0-.42.02h-.28a155.72 155.72 0 0 1-2.2.03l.07.31a.03.03 0 0 0 .04.03l1 .03a206 206 0 0 0 1.25.06 287.64 287.64 0 0 1 1.3.12l.21.02a6.25 6.25 0 0 1 1.1.22l.03-.17.04-.44a4.6 4.6 0 0 0 .01-.5h-.03a4.95 4.95 0 0 1-.77.16l-.72.09Zm-9.55.23a3.62 3.62 0 0 0-.71.13v.02a6.52 6.52 0 0 0 .15.85h.02a3.1 3.1 0 0 1 .95-.4l.4-.1a11.1 11.1 0 0 1 2.23-.26c.42-.02.88-.02 1.24-.02a.04.04 0 0 0 .04-.03l.09-.35-.02-.01a47.66 47.66 0 0 1-2.13.04 11.97 11.97 0 0 1-.9.03c-.54.03-.9.05-1.36.1Zm4.64-.14-.14-.03-.09.35c0 .02 0 .04.02.05.02.02.03.02.05.01a2.18 2.18 0 0 0 1.18.07 1.37 1.37 0 0 0 .34-.13l-.08-.34v-.01h-.02l-.5.06a2.35 2.35 0 0 1-.57-.01l-.19-.02Zm1.73.8c.48.02.92.05 1.34.09.45.04.9.1 1.36.2.37.09.73.2 1.08.36a1.4 1.4 0 0 1 .53.42h.01v-.01a5.9 5.9 0 0 0 .27-.95l-.02-.02a2.02 2.02 0 0 0-.57-.16 22.22 22.22 0 0 0-3.24-.27 19.81 19.81 0 0 1-.99-.02l.02.04a3.94 3.94 0 0 0 .14.3c.02.02.04.03.07.02Zm-.18.03a.02.02 0 0 0 0-.02l-.15-.35c0-.02-.02-.03-.04-.01a2.43 2.43 0 0 1-1.6.04h-.04a1.24 1.24 0 0 1-.15.34.03.03 0 0 0 .01.02h.01c.16.08.33.13.51.15.29.04.59.04.9 0 .16-.01.33-.05.48-.12a.2.2 0 0 0 .07-.05Zm-3.3-.33a12.59 12.59 0 0 0-2.4.32l-.43.14c-.22.08-.4.18-.57.3-.02 0-.03.02-.03.04.08.28.18.57.3.85.01.02.02.03.04.02.1-.17.24-.31.4-.43.14-.1.26-.17.38-.22a6.31 6.31 0 0 1 1.1-.38 10.26 10.26 0 0 1 1.85-.29l.57-.03a.03.03 0 0 0 .03-.02l.14-.31a.02.02 0 0 0-.01-.03h-.07c-.44 0-.87.02-1.3.04Zm3.3.46c-.09.05-.17.08-.24.1a3.31 3.31 0 0 1-1.3.04 1.56 1.56 0 0 1-.48-.15l-.02.01c-.12.13-.26.36-.07.5.14.11.3.17.48.2.44.09.88.08 1.32-.04.15-.04.28-.1.4-.19.07-.04.11-.1.12-.17.02-.12-.04-.23-.12-.32h-.03l-.05.02Zm4.07 1.7.02.06a27.5 27.5 0 0 1 .32-.62.15.15 0 0 0 0-.16 1.42 1.42 0 0 0-.58-.43 6.44 6.44 0 0 0-1.94-.47 40.64 40.64 0 0 0-.82-.08v.01c.62.12 1.2.3 1.77.55a3.2 3.2 0 0 1 .97.7c.13.13.21.28.26.45ZM4.16 11c-.19.12-.35.27-.46.46-.03.06 0 .09.02.15a3.17 3.17 0 0 0 .41.7.02.02 0 0 0 .02-.02 2.25 2.25 0 0 1 .62-.87l.37-.3a4.24 4.24 0 0 1 1.3-.65 6.97 6.97 0 0 1 .86-.27v-.01a11.4 11.4 0 0 0-2.36.45 3.01 3.01 0 0 0-.78.36Zm9.32 1.72.01.06c.02 0 .05 0 .07-.04l.42-.58c.05-.06.05-.11.02-.2a1.13 1.13 0 0 0-.38-.6 2.45 2.45 0 0 0-.46-.35 4.6 4.6 0 0 0-1.34-.54 12.73 12.73 0 0 0-.95-.22 8.79 8.79 0 0 1 1.16.57l.34.24c.2.16.39.35.57.56.2.24.35.5.48.8.02.08.05.18.06.3Zm-8.16-.79-.15.34A2.4 2.4 0 0 0 5 13.33l.08.09a71.74 71.74 0 0 1 .38.3 10.87 10.87 0 0 0 .88.56 5.94 5.94 0 0 0 2.3.61h.55l.53-.04a6.26 6.26 0 0 0 2.7-1.06 4.38 4.38 0 0 0 .88-.77l.04-.04a.15.15 0 0 0 .06-.1l-.04-.2a2.22 2.22 0 0 0-.2-.53 3.68 3.68 0 0 0-.58-.74 5.42 5.42 0 0 0-1.07-.74l.05.03c.14.09.26.2.37.32.11.13.21.28.3.45.07.12.11.25.15.4.06.28.05.56-.02.83-.02.08-.05.16-.1.26a2.62 2.62 0 0 1-.43.6 3.7 3.7 0 0 1-1.68.8l-.4.06-.49.04a4.13 4.13 0 0 1-1.04-.04 3.86 3.86 0 0 1-1.47-.5 4.52 4.52 0 0 1-.34-.25 1.5 1.5 0 0 1-.44-.52 1.46 1.46 0 0 1-.12-1.37c.1-.22.23-.43.4-.61a4.2 4.2 0 0 1 1.07-.83 3.63 3.63 0 0 0-.73.34l-.06.03a3.37 3.37 0 0 0-1.22 1.22Zm3.35-.04a3.6 3.6 0 0 0 1.55-.23c.12-.05.22-.12.3-.2.06-.06.1-.11.13-.18a.46.46 0 0 0 .04-.2.73.73 0 0 0-.1-.36 10.43 10.43 0 0 0-.24-.32c0 .07-.02.13-.05.2a.55.55 0 0 1-.16.16 1.4 1.4 0 0 1-.23.12c-.16.06-.33.1-.5.13-.26.03-.53.03-.83 0-.25-.02-.5-.09-.71-.24a.4.4 0 0 1-.13-.15.32.32 0 0 1-.02-.2c0-.04 0-.05-.03-.02-.1.08-.2.19-.29.31a.8.8 0 0 0-.15.33c-.03.14 0 .26.1.37.08.1.2.19.32.25.3.15.65.21 1 .23Zm2.93-.33a.9.9 0 0 1-.03.4c-.04.1-.1.18-.16.25a1.8 1.8 0 0 1-.57.44 4.5 4.5 0 0 1-.7.25 7.62 7.62 0 0 0-.57.1l-.4.05h-.59a3.97 3.97 0 0 1-1.1-.2 2.1 2.1 0 0 1-.7-.4l-.15-.17a1.12 1.12 0 0 1-.22-.86.9.9 0 0 1 .22-.42h-.02c-.13.1-.24.22-.33.33-.14.13-.24.29-.3.46-.07.15-.11.3-.13.45-.01.14 0 .28.04.43a1.77 1.77 0 0 0 .59.92c.17.14.35.26.52.35.32.16.7.28 1.06.35a5.43 5.43 0 0 0 2.48-.15 3.97 3.97 0 0 0 1.2-.64c.26-.23.43-.51.53-.85.07-.28.07-.55-.01-.82a1.08 1.08 0 0 0-.07-.21 1.88 1.88 0 0 0-.54-.73 3.72 3.72 0 0 0-1.02-.48c-.03 0-.03 0-.01.02l.35.25a2.22 2.22 0 0 1 .5.54c.06.1.1.21.13.34Zm-4.3-1-.33.22c-.16.13-.3.3-.4.5a.38.38 0 0 0-.04.12c-.07.33.02.64.24.89.1.12.23.22.36.3.28.15.57.25.89.3l.57.05H9c.15 0 .34-.01.56-.04a3.63 3.63 0 0 0 1.55-.53c.14-.1.25-.22.32-.36.11-.22.11-.43 0-.64a1.91 1.91 0 0 0-.72-.75c-.03-.03-.05-.05-.06-.04.06.1.11.2.14.31.06.23 0 .43-.15.6a1.3 1.3 0 0 1-.56.35c-.26.09-.53.14-.8.16H9.2a5.19 5.19 0 0 1-1.24-.11 1.33 1.33 0 0 1-.7-.4.5.5 0 0 1-.14-.39c0-.1.04-.21.1-.32a5.95 5.95 0 0 1 .22-.33 1.6 1.6 0 0 0-.15.1ZM4.34 12.6l.07.09.06.03c.03 0 .04.03.05.06 0 .04.02.08.05.11l.28.3c.02.02.03.02.03 0 0-.41.1-.8.27-1.17a2.46 2.46 0 0 1 .51-.75l.23-.23c.13-.13.28-.24.43-.33a6.15 6.15 0 0 1 .38-.2v-.01h-.01a254.78 254.78 0 0 0-.7.26 6.9 6.9 0 0 0-.48.25c-.21.12-.36.24-.59.4l-.24.22a2.58 2.58 0 0 0-.43.68.22.22 0 0 0-.01.15c.01.04.07.1.1.14Z" fill="#fff"/><defs><linearGradient id="a" x1="9" y1="0" x2="9" y2="18" gradientUnits="userSpaceOnUse"><stop offset=".46" stop-color="#1B1A1E"/><stop offset="1" stop-color="#716959"/></linearGradient></defs></svg>