<!-- by TradingView --><svg width="18" height="18" viewBox="0 0 18 18" xmlns="http://www.w3.org/2000/svg"><path fill="#0A9DEB" d="M0 0h18v18H0z"/><path d="M8.9 3.09c-.22.24-.3.57-.25 1l-.26.75c-.02.07 0 .12.06.15.18.1.21.22.1.35a.27.27 0 0 0-.07.18v.9c0 .05.04.09.1.1l.47.04c.07.2.03.42-.11.62a.27.27 0 0 0-.05.17c.02.34.11.63.28.89.02.03.08.05.17.03.02.1.14.14.37.13-.27.14-.34.38-.23.7.01.04.03.05.07.02l.63-.54a.14.14 0 0 0 .04-.08v-.08c-.15-.29-.16-.75-.03-1.4.04-.22-.06-.34-.29-.35-.14-.84-.17-1.68-.1-2.52.34-.05.47-.2.39-.48.17-.05.28 0 .34.13-.22.64-.1 1.14 0 1.78.07.39-.05.8-.02 1.12 0 .09.06.14.15.16.05.01.09.05.1.13v.06a4.4 4.4 0 0 0-.19 1.63c.03.3-.17.53-.35.73-.06.07-.04.1.06.12.17.03.3.03.4 0a.4.4 0 0 1 .2 0c.14.04.27.04.38 0 .03.2-.04.37.12.54.14.15.36.23.65.26-.08.14-.04.35.14.62.05.08.02.16-.1.25a.33.33 0 0 1-.1-.2c0-.07-.04-.11-.11-.14a.4.4 0 0 0-.25.01c-.03-.03-.03-.08 0-.15.03-.06 0-.1-.07-.1-.12-.02-.2-.07-.23-.16a.05.05 0 0 0-.02-.03.06.06 0 0 0-.07 0l-.02.04-.05.3c-.01.09-.06.1-.14.04l-.93-.7V10l-.02-.03-.03-.02a.1.1 0 0 0-.08 0 .32.32 0 0 0-.08.06c0-.05-.03-.08-.07-.09l-.1.02c-.18.1-.37.18-.57.25a.96.96 0 0 1-.02-.06l.4-.43c.14-.16.1-.2-.13-.15-.08.02-.2.07-.37.15l.15-.63L9.15 9a.16.16 0 0 0-.06-.07.56.56 0 0 0-.38-.08.3.3 0 0 0-.17.07l-.21.18a.17.17 0 0 1-.18.03c-.5-.2-.86.2-1.34.3.3-.4.25-.78-.11-1.16A.54.54 0 0 1 6.66 8c.1.04.15 0 .16-.1 0-.17.05-.32.13-.44a.13.13 0 0 0 0-.16.6.6 0 0 0-.41-.25l.12-2.72h.3c.07-.02.1-.06.1-.13l.02-.34c.25-.04.37.02.34.17-.24.39-.35.84-.32 1.33 0 .06-.03.1-.1.13s-.11.08-.12.14c0 .06.03.1.1.1.14.02.23.05.26.1-.3.2-.38.53-.25 1.02.01.06.05.1.11.14l.43.22-.28 1.13.01.08c.02.03.04.05.07.06.15.08.32.13.5.16l.03.07c.03.05.08.07.15.06.2-.05.38-.13.53-.24a.2.2 0 0 0 .09-.16c-.01-.23-.13-.38-.35-.45l-.1-.8a.55.55 0 0 0 .28-.5c0-.07-.03-.12-.11-.13a.46.46 0 0 0-.23.02l-.08-3.06c.28 0 .4-.15.37-.42.07-.05.23-.03.5.06Z" fill="#A88672"/><path d="M8.41 3.03c.03.27-.1.41-.37.42-.1-.22.03-.36.37-.42Z" fill="#F3D3C4"/><path d="M9.34 8.27c-.1.02-.15 0-.17-.03a1.79 1.79 0 0 1-.28-.89c0-.06.01-.12.05-.17.14-.2.18-.41.11-.62a3.7 3.7 0 0 1-.24-1.44.32.32 0 0 0-.05-.18 1.07 1.07 0 0 1-.1-.86c-.06-.42.02-.75.25-1 .16.91.3 1.82.41 2.72.1.8 0 1.64.02 2.47Z" fill="#100905"/><path d="M10.19 3.67c.08.27-.05.43-.4.48-.03-.32.1-.48.4-.48Z" fill="#F3D3C4"/><path d="M10.53 3.8c.43.38.45 1.64.55 2.54.04.34.04.76 0 1.27-.06.65-.12 1.22.17 1.83-.02.05-.01.08.01.1a.73.73 0 0 1-.38 0 .4.4 0 0 0-.2 0 .99.99 0 0 1-.4 0c-.1-.02-.12-.06-.06-.13.18-.2.38-.44.35-.73a4.4 4.4 0 0 1 .2-1.7c-.02-.07-.06-.1-.1-.12-.1-.02-.16-.07-.16-.16-.03-.32.09-.73.03-1.12-.1-.64-.23-1.14-.01-1.78Z" fill="#100905"/><path d="m7.08 3.86-.01.34c0 .07-.04.1-.12.12-.1.02-.2.02-.3.01 0-.25.14-.4.43-.47Z" fill="#F3D3C4"/><path d="M7.42 4.03c.1.04.16.1.16.17.07 1.45.17 2.9.31 4.35a.24.24 0 0 1-.06.1 1.76 1.76 0 0 1-.5-.17.15.15 0 0 1-.07-.06.12.12 0 0 1 0-.08l.27-1.13-.29-1.37c-.03-.06-.12-.1-.25-.1-.08-.01-.11-.05-.1-.11 0-.06.04-.11.12-.14.06-.03.09-.07.09-.13-.02-.5.08-.94.32-1.33Z" fill="#100905"/><path d="M8.65 4.08c-.08.33-.04.61.1.86.04.06.06.11.06.18-.01.52.07 1 .24 1.44l-.46-.05c-.07 0-.1-.04-.1-.1v-.9c0-.06.02-.12.06-.17.11-.13.08-.25-.1-.35-.06-.03-.08-.08-.06-.15l.26-.76Z" fill="#745641"/><path d="M7.53 7.2 7.1 7A.22.22 0 0 1 7 6.85c-.13-.5-.04-.83.25-1.01l.3 1.37Z" fill="#473224"/><path d="M8.19 7.12a1.1 1.1 0 0 1-.07-.61.46.46 0 0 1 .23-.02c.08.01.11.06.11.13 0 .22-.09.4-.27.5ZM9.71 8.4l.19-1.73c.23.01.33.13.29.36-.13.64-.12 1.1.03 1.39v.08c0 .03-.02.06-.04.08l-.63.54c-.04.03-.06.02-.07-.01-.11-.33-.04-.57.23-.71ZM6.66 8l-.12-.95a.6.6 0 0 1 .41.25c.04.05.04.1 0 .16a.84.84 0 0 0-.13.44c0 .1-.06.14-.16.1Z" fill="#F3D3C4"/><path d="M13.87 7.86c-.46.41-.8.9-1.02 1.48-.03.08-.1.14-.22.2-.25-.01-.38.02-.4.09-.03-.15-.1-.3-.2-.45.09-.3.25-.59.48-.87.38-.46.83-.61 1.36-.45ZM4.77 7.88l-.08.25c0 .07-.19-.02-.55-.26.42-.07.63-.06.63.01Z" fill="#A88672"/><path d="M4.14 7.87c.36.24.54.33.55.26 0 .3.13.52.38.66.06.03.1.08.13.14a.8.8 0 0 0 .3.34c.17.11.21.25.11.42-.05.09-.05.16 0 .22-.26-.09-.42-.28-.66-.34 0 0-.2-.36-.3-.78a6.8 6.8 0 0 1-.5-.92Z" fill="#745641"/><path d="m13.27 9.52-.03.1a1.24 1.24 0 0 0-.37-.02l-.24-.07c.11-.05.19-.11.22-.2.22-.57.56-1.06 1.02-1.47.1.01.14.06.13.14a.3.3 0 0 1-.09.13c-.4.4-.6.86-.64 1.4ZM4.77 7.88c.65.38.97 1.14 1.24 1.74.02.04.05.07.09.08l.05.03c0 .03.01.05.03.08-.37.5.13.64.48.87-.15.1-.38.06-.68-.12-.12-.07-.14-.15-.08-.23.04-.04.04-.09 0-.13L5.6 9.9c-.05-.06-.05-.13 0-.22.1-.17.06-.3-.11-.42a.8.8 0 0 1-.3-.34.32.32 0 0 0-.13-.14.72.72 0 0 1-.38-.66l.08-.25Z" fill="#100905"/><path d="M7.83 8.64a.24.24 0 0 0 .06-.09c.29-.01.42-.22.39-.63.22.07.34.22.35.45a.2.2 0 0 1-.09.16c-.15.11-.32.2-.53.24-.07.01-.12 0-.15-.06l-.03-.07ZM6.81 9.44c-.2.08-.31.08-.34 0 .16-.31.24-.7.23-1.17.36.38.4.77.11 1.17Z" fill="#F3D3C4"/><path d="M9.01 9.7a.9.9 0 0 1-.14.4c-.05 0-.1-.02-.12-.05-.02-.02-.02-.06-.02-.11 0-.07 0-.14-.03-.2-.03-.07-.09-.1-.17-.07l-.2.05c-.08.02-.12.07-.1.15.03.2 0 .4-.07.63l-.02.03-.04.02a.5.5 0 0 1-.06.01v-.06c-.03-.05-.06-.07-.12-.07s-.1.02-.14.05l-.02.03a.07.07 0 0 0 .02.1c.04.02.08.01.15-.02-.03.05-.07.08-.15.08-.19-.06-.37-.18-.54-.35l.6-.08c.08 0 .1-.04.08-.1-.03-.08-.1-.1-.23-.07-.36-.55-.7-.4-1.3-.39a.66.66 0 0 1 .08-.23c.03.07.14.07.34-.01.48-.11.84-.5 1.34-.3.06.02.12 0 .18-.04l.21-.18a.3.3 0 0 1 .17-.07c.15-.02.27.01.38.08.02.02.05.04.06.07v.08l-.14.63Z" fill="#8F6D59"/><path d="M12.02 9.18c.12.15.18.3.21.45v.35c0 .02 0 .04-.02.05a.1.1 0 0 1-.05.03h-.06a.1.1 0 0 1-.05-.02l-.35-.31.32-.55ZM11.53 9.74l.5.59c-.3-.03-.5-.11-.65-.26-.16-.17-.09-.33-.12-.54-.02 0-.02-.04 0-.1.13.1.22.2.27.3Z" fill="#F3D3C4"/><path d="M5.61 9.91c.03.05-.01.15.2 1.19.1 0 .12-.01.06-.03.24.3.53.5.89.62.28.85.12 1.3-.48 1.37-.52-1.13-.9-2.33-1.33-3.49.24.06.4.25.66.34Z" fill="#A88672"/><path d="M9.1 10.14a.27.27 0 0 1-.23.04v-.08a.9.9 0 0 0 .15-.4c.15-.07.28-.12.36-.14.23-.06.27 0 .12.15l-.4.43Z" fill="#F3D3C4"/><path d="m12.63 9.53.24.07c-.23.01-.38.08-.45.18-.04.05-.03.12 0 .22l.08.23a.2.2 0 0 1-.04.17c-.11.15-.09.3.07.44.06.05.07.1.04.17l-.21.42-.32-.05.02-.18c.13-.09.16-.17.1-.25-.16-.27-.21-.48-.13-.62l-.5-.6a.42.42 0 0 1 .17 0l.35.31a.1.1 0 0 0 .05.03h.06a.1.1 0 0 0 .05-.04.08.08 0 0 0 .02-.05v-.35c.02-.07.15-.1.4-.1Z" fill="#745641"/><path d="M13.24 9.62c-.17.38-.17.24-.37.56a.24.24 0 0 0-.03.18c.1.48-.2.91-.34 1.26-.27 0-.14-.08-.14-.19l.2-.42c.04-.07.03-.12-.03-.17-.16-.14-.18-.29-.07-.44a.2.2 0 0 0 .04-.17 1.74 1.74 0 0 0-.08-.23c-.03-.1-.04-.17 0-.22.07-.1.22-.17.45-.18.12-.01.24 0 .37.02ZM7.69 10.07c-.28.08-.5.05-.65-.08-.3-.28-.44-.22-.41.16 0 .1.2.16.6.17.18.17.36.29.55.35l.07.31c-.02.33-.26.52-.7.57-.36.06-.79-.1-1.28-.48.06.02.04.03-.06.03l.15-.14c.05-.05.11-.06.18-.03.13.04.23.06.3.06.07 0 .13.03.18.08.12.15.32.16.59.02.06-.03.08-.07.06-.14l-.05-.1c-.02-.05-.07-.08-.14-.08a.81.81 0 0 1-.42-.1c-.35-.22-.85-.37-.48-.86a.3.3 0 0 0 .15-.1.18.18 0 0 1 .05-.03c.6 0 .95-.16 1.31.39Z" fill="#F3D3C4"/><path d="M8.87 10.1v.08a.33.33 0 0 1-.07.03c-.02 0-.03 0-.03.03v.82c0 .06.04.09.1.09h.67l.07.01.06.05.03.06v.06a.63.63 0 0 0-.05.3l-.76.07a.18.18 0 0 0-.11.04.13.13 0 0 0-.04.1c0 .27-.06.53-.2.78a.67.67 0 0 1-.23-.35l-.23-.47c.1-.33.09-.64-.05-.93-.05-.1-.09-.1-.13 0l-.05.11-.07-.31c.08 0 .12-.03.15-.08a.34.34 0 0 1 .1-.03.5.5 0 0 0 .07-.01.1.1 0 0 0 .04-.02l.02-.03c.08-.22.1-.43.07-.63-.02-.08.02-.13.1-.15l.2-.05c.08-.03.14 0 .17.07.03.06.04.13.03.2 0 .05 0 .09.02.1.03.04.07.06.12.06Z" fill="#A88672"/><path d="m5.61 9.91.29.29c.04.04.04.09 0 .13-.06.08-.04.16.08.23.3.18.53.22.68.12.12.06.26.1.42.09.07 0 .12.03.14.08l.05.1c.02.07 0 .11-.06.14-.27.14-.47.13-.6-.02a.22.22 0 0 0-.17-.08c-.07 0-.17-.02-.3-.06-.07-.03-.13-.02-.18.03l-.15.14c-.18-.86-.5-.89-.26-1.02.08-.05.1-.1.06-.17Z" fill="#473224"/><path d="M7.69 10.07c.12-.03.2 0 .23.07.02.06 0 .1-.07.1l-.61.08c-.4-.01-.6-.07-.61-.17-.03-.38.1-.44.41-.16.16.13.37.16.65.08Z" fill="#100905"/><path d="m9.87 10.02-.27.54c0 .01 0 .02.02.03l.05.02h.04l.37-.5.93.7c.08.06.13.05.14-.04l.05-.3c0-.02 0-.03.02-.03l.03-.02.04.01.02.03c.03.09.11.14.23.16.08 0 .1.04.07.1-.03.07-.03.12 0 .15.2.12.22.23.1.32-.15.1-.3.1-.44.01-.05-.03-.08-.02-.1.03-.01.03 0 .06.03.09.06.04.06.09.01.14a.25.25 0 0 1-.14.06 1.48 1.48 0 0 1-.89-.3c-.02-.02-.04-.02-.06 0l-.05.03v.01c.19.18.41.32.68.4-.21.34-.48.6-.8.76-.34.17-.8.36-1.38.55a.78.78 0 0 1-.03-.35c.14-.25.2-.51.2-.78 0-.03.01-.07.04-.1a.18.18 0 0 1 .11-.04l.76-.06.21-.57c.02-.05 0-.07-.06-.07h-.73c-.13 0-.2-.06-.2-.17.02-.4.1-.6.26-.63a4 4 0 0 0 .57-.25c.05-.02.08-.03.1-.02.04.01.06.04.07.09Z" fill="#F3D3C4"/><path d="m9.1 10.14.03.06c-.15.02-.24.23-.25.63 0 .11.06.17.2.17h.72c.06 0 .08.02.06.07l-.2.57a.63.63 0 0 1 .03-.3c.01-.03.01-.05 0-.07a.13.13 0 0 0-.02-.06.16.16 0 0 0-.06-.05.19.19 0 0 0-.07-.01h-.67c-.06 0-.1-.03-.1-.09v-.82c0-.02.01-.03.03-.03l.07-.03c.08.03.16.01.24-.04ZM8.04 10.56a.34.34 0 0 0-.11.03c-.07.03-.11.04-.15.01l-.02-.02a.07.07 0 0 1 0-.07l.02-.03a.22.22 0 0 1 .14-.05c.06 0 .1.02.11.07v.06Z" fill="#473224"/><path d="M8.08 11.8a.82.82 0 0 1-.35.2.18.18 0 0 1-.17-.05l-.41-.4c.44-.05.68-.24.7-.57l.05-.11c.04-.1.08-.1.13 0 .14.3.16.6.05.93Z" fill="#100905"/><path d="m12.06 11.2-.02.18a.8.8 0 0 1-.27.27c-.64.3-.79.85-1.1 1.2-.27.3-.49.48-.64.53a3.8 3.8 0 0 0-.7.36c-.29.18-.62.17-1-.02l-.63.44a.27.27 0 0 1-.2.04l-.13-.01c-.12-.01-.15.02-.1.11l.18.3-.37-.08-.8-1.46c.6-.06.76-.52.48-1.37.24.03.38.15.43.35.03.17.09.38.16.63.01.06 0 .13-.03.2l-.12.22v.05c0 .01 0 .02.02.03.04.05.1.06.15.06l.03-.01.02-.03.54-1c.03-.05.07-.06.11-.01.1.08.12.2.09.34-.01.05.01.07.06.05.07-.02.1-.12.1-.3.04.15.11.27.22.35-.02.08 0 .2.03.35-.11.07-.13.17-.04.3.04.06.1.1.19.13a.4.4 0 0 0 .24-.01 3.68 3.68 0 0 0 1.72-1.15c.14-.18.35-.27.58-.41a.1.1 0 0 0 .03-.03l.01-.03v-.04a.08.08 0 0 0-.03-.03.23.23 0 0 0-.08-.04.2.2 0 0 0-.12-.14c.07 0 .11-.03.14-.06.05-.05.04-.1 0-.14-.04-.03-.05-.06-.04-.1.02-.04.05-.05.1-.02.15.09.29.08.43-.01.13-.1.1-.2-.1-.32a.4.4 0 0 1 .26 0c.07.02.1.06.11.12.01.1.04.16.1.21Z" fill="#8F6D59"/><path d="m7.15 11.55.4.4c.05.05.11.06.18.05.12-.03.24-.1.35-.2l.23.47c0 .18-.02.28-.09.3-.05.02-.07 0-.06-.05.03-.14 0-.26-.09-.34-.04-.05-.08-.04-.1.01l-.55 1-.02.03h-.03a.18.18 0 0 1-.15-.05.07.07 0 0 1-.03-.03v-.05l.13-.23a.26.26 0 0 0 .03-.2c-.07-.24-.13-.45-.16-.62-.05-.2-.2-.32-.43-.35a1.84 1.84 0 0 1-.9-.62c.5.38.93.54 1.29.48ZM11.07 11.52c.07.04.1.08.12.14-.19.04-.33.04-.44 0a1.89 1.89 0 0 1-.68-.4l.05-.04c.02-.02.04-.02.06 0 .25.2.55.3.9.3Z" fill="#473224"/><path d="m12.04 11.38.31.05c.01.2.18.12.18.12-.53.86-1.14 1.67-1.82 2.42-.11.12-.16.38-.16.78 0 .06-.03.1-.1.13-.36.13-.74.15-1.12.08 0 0 0-.02-.05-.05.12-.2.17-.39.17-.58a.74.74 0 0 0-.15-.24c-.05-.05-.04-.09.03-.12a5.48 5.48 0 0 0 1.41-.93c.21-.2.27-.42.36-.63.03-.06.08-.1.14-.13a.86.86 0 0 0 .53-.63.8.8 0 0 0 .27-.27Z" fill="#100905"/><path d="m11.19 11.66.08.04.02.03.01.04-.01.03a.1.1 0 0 1-.03.03c-.23.14-.44.23-.58.41-.37.49-.95.87-1.72 1.15a.4.4 0 0 1-.24 0 .34.34 0 0 1-.2-.12c-.08-.13-.06-.23.05-.3.58-.2 1.04-.38 1.37-.55.33-.16.6-.42.8-.75.12.03.26.03.45 0Z" fill="#A88672"/><path d="M11.77 11.65a.86.86 0 0 1-.53.63.25.25 0 0 0-.14.13c-.1.21-.15.44-.36.63-.4.37-.87.68-1.41.93-.07.03-.08.07-.03.12.08.1.13.17.15.24l-.73-.09c-.03-.12-.16-.3-.4-.52.39.19.72.2 1.02.02.32-.2.55-.32.69-.36.15-.05.37-.23.64-.53.31-.35.46-.9 1.1-1.2Z" fill="#473224"/><path d="m8.72 14.24-.98.35-.29.01-.18-.3c-.05-.09-.02-.12.1-.11l.14.02c.07 0 .13-.01.19-.05l.63-.44c.23.22.36.4.39.52Z" fill="#100905"/><path d="m8.72 14.24.73.09c0 .2-.05.39-.17.58l-1.54-.32.98-.35Z" fill="#745641"/><path d="m7.45 14.6.3-.01 1.53.32c.04.03.06.04.05.05a6.4 6.4 0 0 1-2.06-.16c-.15-.04-.22-.13-.2-.28l.38.08Z" fill="#A88672"/><path d="M11.77 11.53V9.67h.93a1 1 0 0 1 .42.08c.12.06.21.13.28.23.07.1.1.22.1.35 0 .13-.04.25-.1.34a.65.65 0 0 1-.3.23c-.11.05-.26.08-.42.08h-.55v-.4h.43c.07 0 .13 0 .18-.03a.24.24 0 0 0 .15-.23.23.23 0 0 0-.15-.22.45.45 0 0 0-.18-.03h-.2v1.46h-.59Z" fill="#F3D3C4"/><path d="M11.56 10.6c0 .2-.05.37-.13.51a.84.84 0 0 1-.35.31c-.15.07-.31.1-.5.1-.18 0-.34-.03-.49-.1a.84.84 0 0 1-.35-.31.95.95 0 0 1-.13-.51c0-.2.05-.37.13-.5.09-.15.2-.25.35-.32.15-.07.31-.11.5-.11.18 0 .34.04.49.1.14.08.26.18.35.32.08.14.13.3.13.51Zm-.56 0a.7.7 0 0 0-.05-.27.35.35 0 0 0-.14-.17.41.41 0 0 0-.23-.06.42.42 0 0 0-.22.06c-.06.03-.11.1-.14.17a.7.7 0 0 0-.05.27c0 .1.02.2.05.27.03.08.08.14.14.17.06.04.13.06.22.06.1 0 .17-.02.23-.06.06-.03.1-.1.14-.17a.7.7 0 0 0 .05-.27Z" fill="#8F6D59"/><path d="M8.1 11.53V9.67h.6v1.45h.91v.4h-1.5ZM4.8 11.72V9.48h.17v2.24h-.16Zm.36-1.46c0-.05-.03-.1-.07-.13-.05-.03-.11-.05-.2-.05-.06 0-.1 0-.15.02a.17.17 0 0 0-.08.05.1.1 0 0 0-.02.07v.05l.06.05.09.04.12.03.17.03c.12.02.21.05.3.08a.7.7 0 0 1 .2.12c.05.05.08.1.1.16.03.06.05.12.05.19 0 .11-.04.21-.1.3a.62.62 0 0 1-.3.18 1.4 1.4 0 0 1-.44.06c-.18 0-.34-.02-.47-.07a.65.65 0 0 1-.3-.2.6.6 0 0 1-.12-.38h.53c0 .06.02.1.05.14.03.04.07.07.12.09.05.02.11.03.18.03a.5.5 0 0 0 .15-.02.2.2 0 0 0 .1-.06.12.12 0 0 0 .03-.07.1.1 0 0 0-.04-.08.25.25 0 0 0-.1-.05l-.17-.05-.21-.04c-.18-.03-.33-.09-.43-.17a.4.4 0 0 1-.16-.33c0-.11.04-.21.1-.3a.7.7 0 0 1 .3-.2c.13-.04.27-.07.44-.07.16 0 .3.03.43.08.12.04.21.11.28.2.06.09.1.19.1.3h-.54Z" fill="#F3D3C4"/></svg>