<!-- by TradingView --><svg width="18" height="18" viewBox="0 0 18 18" xmlns="http://www.w3.org/2000/svg"><path fill="url(#acm4qnu5h)" d="M0 0h18v18H0z"/><path d="M5 5.64c0-.35.29-.64.64-.64h6.72c.35 0 .64.29.64.64v6.72c0 .35-.29.64-.64.64h-2.07c-.23 0-.36-.3-.22-.49A3.3 3.3 0 0 0 5.48 7.9c-.2.13-.49 0-.49-.22V5.64ZM7 12a1 1 0 1 0 0-2 1 1 0 0 0 0 2Z" fill="#A1FE00"/><defs><linearGradient id="acm4qnu5h" x1="3.35" y1="3.12" x2="21.9" y2="24.43" gradientUnits="userSpaceOnUse"><stop stop-color="#1A1E21"/><stop offset="1" stop-color="#06060A"/></linearGradient></defs></svg>