<!-- by TradingView --><svg xmlns="http://www.w3.org/2000/svg" width="18" height="18"><path fill="url(#apkgrpkaj)" d="M0 0h18v18H0z"/><path fill-rule="evenodd" d="M8.16 3.72c.52-.3 1.16-.3 1.68 0l3.33 1.92c.51.3.83.84.83 1.43v3.86c0 .59-.32 1.13-.83 1.43l-3.33 1.92c-.52.3-1.16.3-1.68 0l-3.33-1.92c-.51-.3-.83-.84-.83-1.43V7.07c0-.59.32-1.13.83-1.43l3.33-1.92zM5.43 8.28h.01c.28.09.94.3 1.04 1.17h-.02c-.43-.14-1-.31-1.03-1.17zM8 5.37c-.79.34-1.33 1.09-1.33 1.83v2.94a2.5 2.5 0 104.32-1.7 1.8 1.8 0 00-1.23-.43C8.37 8 8.09 8.94 8 9.25v.02-3.9zm0 3.9l.03-.02C8.25 9.13 8.51 9 9 9c.51 0 .98.25 1 1 .03 1.08-1 1-1 1s-1 0-1-1v-.73z" fill="#fff"/><defs><linearGradient id="apkgrpkaj" x1="0" y1="9" x2="18" y2="9" gradientUnits="userSpaceOnUse"><stop stop-color="#F69C24"/><stop offset="1" stop-color="#F9B140"/></linearGradient></defs></svg>