<!-- by TradingView --><svg width="18" height="18" viewBox="0 0 18 18" xmlns="http://www.w3.org/2000/svg"><path fill="#F0F3FA" d="M0 0h18v18H0z"/><path d="M9.07 3a6 6 0 1 1-.15 12 6 6 0 0 1 .15-12Zm.47 3.09c.7-.18 1.4-.2 2.1-.06.6.12 1.4.43 1.5 1.13.02.2-.04.42-.12.6a2.54 2.54 0 0 1-.84.93v.02a45.53 45.53 0 0 0 .29 4.97 5.84 5.84 0 1 0-7.55-.52l.02-.01c.12-.98.35-1.93.68-2.84.4-1.1.98-2.18 1.81-3.01a4.67 4.67 0 0 1 1.88-1.14l.14-.04.1-.03Zm-.25.25c-.7.24-1.3.62-1.81 1.15a7.24 7.24 0 0 0-1.3 1.93 11.3 11.3 0 0 0-.71 1.95l.28.6.92 1.9a17.1 17.1 0 0 1 .28.6 5.81 5.81 0 0 0 5.35-.68 47.02 47.02 0 0 1-.2-1.95 1.64 1.64 0 0 1-.3-.08 2.81 2.81 0 0 1-1.13-.82 3.67 3.67 0 0 1-.65-1.09H10c-.38.14-.76.24-1.14.3-.5.07-1.04.06-1.51-.13-.14-.06-.31-.17-.42-.24-.04-.02-.05-.06-.03-.1v-.01c.04-.04.07-.05.12-.03l.32.19.25.1c.33.1.72.12 1.07.08a5.55 5.55 0 0 0 1.3-.32 3.8 3.8 0 0 1-.51-.08c-.05-.02-.08-.05-.07-.1.02-.05.05-.07.1-.06.12.02.24.05.36.05l-.16-.25c-.03-.04-.02-.08.03-.11l.02-.01c.04-.01.07 0 .1.03l.15.24H10l.1-.29c.01-.05.05-.06.1-.05.05.02.07.06.05.1l-.08.25c-.01.03 0 .03.02.02l.26-.18c.04-.03.08-.02.12.04.01.05 0 .08-.04.1l-.22.16a8.08 8.08 0 0 0 1.96-1.15c.41-.33.9-.92.62-1.47a1.29 1.29 0 0 0-.69-.56 4.33 4.33 0 0 0-2.91-.03Zm2.82 5.3A38.74 38.74 0 0 1 12 8.81a8.95 8.95 0 0 1-1.82.98c.32.85 1 1.62 1.9 1.87.02 0 .03 0 .03-.02v-.02Zm-6.58 2.04a5.76 5.76 0 0 0 1.18.66l-.98-2.01-.32-.68a14.04 14.04 0 0 0-.32 1.67c.15.14.3.26.44.36Z"/><path d="M9.29 6.34v.01a6.3 6.3 0 0 0-1.95 1.8 9.95 9.95 0 0 0-1.57 3.8l-.02.02-.28-.6v-.02c.18-.67.41-1.32.7-1.93.34-.7.77-1.37 1.3-1.93A4.51 4.51 0 0 1 9.3 6.34Z" fill="#DADADA"/><path d="M11.72 7.76a.18.18 0 1 0 0-.36.18.18 0 0 0 0 .36ZM9.4 8.53a.23.23 0 1 0 0-.46.23.23 0 0 0 0 .46Z"/><path d="M5.73 12.33a18 18 0 0 0-.2 1.36 4.82 4.82 0 0 1-.44-.38 14.05 14.05 0 0 1 .32-1.66l.32.68Z" fill="#DADADA"/></svg>