<!-- by TradingView --><svg width="18" height="18" viewBox="0 0 18 18" xmlns="http://www.w3.org/2000/svg"><path fill="#171E2C" d="M0 0h18v18H0z"/><path d="M9.42 4.41c-.02.15-.01.32.04.5.07.22.2.4.4.51-.11.19-.2.27-.29.23l-.13-.13a.5.5 0 0 1-.11-.16 2.94 2.94 0 0 1-.18-.89 3.5 3.5 0 0 0-.03-.3 10.09 10.09 0 0 0-.16.44 1.8 1.8 0 0 1-.22.46.49.49 0 0 1-.17.16.8.8 0 0 1-.85 0l.3-.05c.12-.03.22-.05.28-.08.2-.1.32-.25.37-.45.12-.2.18-.4.2-.58l.1-.62c.03-.14.09-.29.18-.44.01-.02.02-.01.02 0l-.01.25c0 .14 0 .3.05.5.02.1.1.32.21.65Z" fill="#FC9315"/><path d="M8.34 3.34c0 .02.03.04.04.03.02 0 .03-.03.02-.05 0-.03-.03-.05-.05-.04-.01 0-.02.03-.01.06ZM9.42 3.35c.03 0 .04-.01.04-.04a.04.04 0 0 0-.04-.04.04.04 0 0 0-.03.04c0 .03.01.04.03.04Z" fill="#C0982E"/><path d="m12.31 3.33.04.02c.05.03.06.07.05.12a.27.27 0 0 1-.08.13l-.02-.01a.27.27 0 0 1-.07-.11c-.01-.06 0-.1.05-.13a.14.14 0 0 1 .03-.02Z" fill="#FC7C7B"/><path d="m10.1 3.44.05-.01c.01-.02 0-.04-.01-.05h-.05c-.01.02 0 .04.01.06ZM10.68 3.58c.02 0 .04-.01.04-.03a.04.04 0 0 0-.04-.04.04.04 0 0 0-.03.04c0 .02.01.03.03.03ZM7.04 3.57l.01.02v.01c-.03.06-.05.08-.1.07-.04-.02-.05-.06-.03-.11v-.02h.03l.09.03Z" fill="#C0982E"/><path d="M9.32 3.6v-.03c.02-.03.05-.03.09-.02.02 0 .02.02.03.03 0 .02-.01.03-.03.03l-.1-.01Z" fill="#696868"/><path d="M11.23 3.7c0 .02-.01.05-.03.07a.04.04 0 0 1-.04 0 .23.23 0 0 1-.1-.05V3.7a.23.23 0 0 1 .08-.08h.04c.03.01.04.04.05.06Z" fill="#FC7C7B"/><path d="M3.56 3.72h.01c.07.24.21.4.44.49v.02a.7.7 0 0 0-.44.49h-.02a.7.7 0 0 0-.43-.49V4.2a.7.7 0 0 0 .43-.49h.01Z" fill="#FDB80B"/><path d="M7.06 4.53c-.02.08 0 .15.07.2a3.62 3.62 0 0 1 .8.95 5.14 5.14 0 0 1 1.05-.1c.09 0 .28.02.59.07.09.04.18-.04.29-.23.09-.08.18-.18.27-.29V5.1a8.1 8.1 0 0 1 1.23-.92c.02.01.04 0 .07 0a23.97 23.97 0 0 1 1.04-.3.4.4 0 0 1 .3.08c.05.04.1.13.16.25.11.22.2.45.27.69.04.13.07.3.09.5a12.44 12.44 0 0 1 .06.77l.35.6c-.02-.02-.02-.01-.01.03a.94.94 0 0 1-.35-.04c-.02 0-.04 0-.04.03l-.05.27-.07.29-.08.32c-.06.23-.16.5-.3.77-.02.02-.01.03 0 .04l.2.1c.03 0 .04.04.06.08l-.12.4.01.04.1.02c.05.03.06.09.02.15l-.15.22-.32.26a.04.04 0 0 0-.02.03c.02.27-.05.51-.2.72a.7.7 0 0 1-.12.12.8.8 0 0 0-.13.12 5.38 5.38 0 0 1-.4.49l.01.19c.02.24.07.49.17.75l.08.32c0 .02.02.03.05.02.3-.07.56-.01.79.17-.27.29-.58.54-.91.75a5.1 5.1 0 0 0-.1-.77l-.33-1.22-.03-.07h-.03l-.13.07c-.26.14-.54.23-.83.28H10.12v-.02l.01-.02c.1-.03.18-.07.24-.12l.39-.15c.24-.1.46-.23.67-.39.34-.25.58-.56.74-.94 0-.01.01-.02.03-.02l.02.02.07.17c.01.03.02.03.04 0 .08-.24.08-.48-.01-.72 0-.02 0-.03.02-.03a.68.68 0 0 0 .4-.24c.04-.03.03-.05-.02-.04-.06 0-.13-.02-.22-.08V9.1c.14-.08.23-.2.28-.34v-.03l-.03-.01a.45.45 0 0 1-.4-.24 2.07 2.07 0 0 1-.18-.4l-.24-.84a1.61 1.61 0 0 0-.46-.69 2.72 2.72 0 0 0-1.01-.53c-.01 0-.02 0 0-.02.32-.5.7-.93 1.14-1.3.2-.18.44-.3.7-.38.08-.02.14 0 .17.06.18.3.3.63.35 1a4.5 4.5 0 0 1-.22 2.25c-.04.1-.11.2-.23.33a.03.03 0 0 0 0 .04l.11.29.02.07c.02.03.03.03.05 0 .23-.34.38-.71.45-1.1.06-.32.1-.66.12-1.02 0-.24 0-.47-.04-.7-.05-.32-.1-.55-.14-.67a56.42 56.42 0 0 1-.3-.82c-.13 0-.3.04-.49.1a5.43 5.43 0 0 0-2.35 1.7 3.9 3.9 0 0 0-1.15-.09c-.26.02-.5.08-.75.18-.02 0-.03 0-.04-.02a3.35 3.35 0 0 0-.68-.85c-.3-.28-.58-.5-.82-.67a3.9 3.9 0 0 0-.97-.48.05.05 0 0 0-.03.03 4.47 4.47 0 0 0-.45 2.48l.07.6c.07.47.23.9.5 1.29 0 .02.01.01.02 0l.06-.17c.06-.08.07-.14.04-.18l-.17-.24c-.12-.25-.2-.55-.25-.88a5.4 5.4 0 0 1 .02-1.54 3.26 3.26 0 0 1 .34-1.04c0-.01.02-.02.04-.01.16.04.32.13.46.26l.17.16c.45.39.82.86 1.12 1.4.01.03 0 .04-.01.06a4.64 4.64 0 0 0-1.66 2.55 1 1 0 0 1-.12.26.64.64 0 0 1-.2.19v.02c.07.1.16.16.27.19h.05l.04-.03c.05-.02.07-.01.04.04a1.07 1.07 0 0 0-.06.61c0 .02.02.02.03 0a.18.18 0 0 1 .05-.04c.02 0 .03 0 .03.02.05.24.14.43.26.56a4.32 4.32 0 0 0 1.98 1.24c.06.02.06.04 0 .07-.26.1-.52.18-.79.23-.18.04-.32.05-.43.04-.02 0-.03 0-.03.02l-.08.29c-.13.38-.23.78-.29 1.2a.49.49 0 0 1-.3-.21 22.29 22.29 0 0 1 .46-1.66l-.01-.01c-.22.53-.4 1.07-.54 1.62a6.09 6.09 0 0 1-.96-.85c.17-.08.33-.16.5-.22.14-.05.25-.05.34 0l.12.06.02-.01.14-.4.14-.47c.03-.04.04-.09.04-.14l-.02-.03c-.3-.29-.47-.47-.54-.55a4.3 4.3 0 0 1-.34-.5.5.5 0 0 1-.1-.16c-.02-.08-.02-.2-.01-.35V9.6l-.3-.27c-.05-.1-.1-.21-.12-.36l.2-.06a.46.46 0 0 0 .15-.06.17.17 0 0 0 .07-.14c0-.05-.04-.12-.1-.21l-.02-.02c-.2-.35-.35-.72-.45-1.11L4.73 7l-.05-.33c0-.02 0-.03-.02-.02l-.3.04h-.02v-.03l.28-.5a.06.06 0 0 0 .03-.05l-.03-.19v-.04c.04-.17.06-.33.05-.48 0-.02 0-.03-.02-.04l-.07-.06a.07.07 0 0 1-.03-.07c.01-.03.03-.05.06-.06h.06l.03-.03c.07-.28.17-.58.3-.89.08-.17.16-.31.23-.4.09-.1.2-.13.34-.08l.43.15c.05.02.1.01.13-.02h.06c.05.03.07.06.06.09 0 .04 0 .06.04.08l.35.18h.06v.05s0 .02.02.02c.07.09.15.17.24.24h.03c.02-.03.04-.04.07-.03Z" fill="#060D1F"/><path d="m7.4 3.77.02.01c0 .04-.02.06-.05.05-.04 0-.04-.01 0-.04l.04-.02ZM7.1 3.92l-.04.03c-.02.02-.02.01-.03 0 0-.02.01-.04.03-.05.02-.02.03-.03.05-.02v.04Z" fill="#696868"/><path d="M12.48 8.29c.17-.3.28-.56.35-.76.12-.4.2-.86.2-1.37.01-.4-.04-.79-.16-1.19-.06-.2-.15-.44-.26-.72-.03-.08-.1-.1-.18-.07-.3.1-.58.22-.83.36a22.43 22.43 0 0 0-1.34.9c-.16.14-.3.3-.4.46a.07.07 0 0 1-.07.03 5.69 5.69 0 0 0-1.9.05c-.02 0-.04 0-.05-.03a11.96 11.96 0 0 0-1.76-1.58 2 2 0 0 0-.72-.33h-.03a.13.13 0 0 0 .03-.09l.03-.03h.04c.33.11.64.28.93.48.24.17.51.4.82.67.27.24.5.52.68.85.01.02.02.02.04.02.25-.1.5-.16.75-.18.4-.02.79.01 1.15.1l.04-.01a5.43 5.43 0 0 1 2.31-1.7c.2-.06.36-.1.49-.1a56.38 56.38 0 0 0 .3.82A4.7 4.7 0 0 1 13 7.26a2.9 2.9 0 0 1-.45 1.1c-.02.03-.03.03-.05 0a.16.16 0 0 1-.02-.07Z" fill="#fff"/><path d="M11.66 3.94c0 .03.01.05.03.05.02 0 .03-.02.04-.04 0-.03-.02-.05-.03-.05-.02 0-.04.02-.04.04Z" fill="#C0982E"/><path d="M6.15 4c.02.01.05.02.06 0 0-.01 0-.04-.02-.05-.02-.02-.04-.02-.06-.01 0 .01 0 .04.02.06Z" fill="#696868"/><path d="M8.67 4.65a.65.65 0 0 1-.37.45c-.06.03-.16.06-.29.08l-.3.05-.16-.07c-.12-.15-.26-.29-.42-.42a.19.19 0 0 1-.07-.2c.05-.22.14-.4.29-.54.04-.04.05-.04.02.02a.63.63 0 0 0-.04.32c.02.2.1.36.23.49a.6.6 0 0 0 .53.15.9.9 0 0 0 .58-.33ZM5.33 4.03l.03.01-.14.52-.14.52A3.8 3.8 0 0 0 5 6.28c.03.26.06.48.1.65.08.42.23.83.45 1.22l-.06.17c0 .02-.02.02-.03 0a3.08 3.08 0 0 1-.49-1.3 12.73 12.73 0 0 1-.09-1.18c.02-.63.17-1.23.44-1.81Z" fill="#F56425"/><path d="M12.48 8.29 12.36 8v-.03c.13-.13.2-.24.24-.34a4.5 4.5 0 0 0 .22-2.25c-.05-.37-.17-.7-.35-1-.03-.06-.1-.08-.17-.06-.26.08-.5.2-.7.38a6.02 6.02 0 0 0-1.14 1.33c.4.11.73.29 1.01.52a9.2 9.2 0 0 1 .74 1.87c.09.24.2.38.31.43.04.01.05.03 0 .05-.09.04-.2.07-.32.1l-.02.01v.03l.15.18c.03.03.02.04-.02.04-.4-.09-.8-.2-1.2-.34.22-.1.45-.12.7-.09l.01-.02V8.8a.97.97 0 0 0-.3-.02c-.23.01-.41.05-.57.11l-.3-.15c.27-.2.56-.3.88-.31l.02-.01c0-.01 0-.02-.02-.02-.16-.01-.34.01-.52.08a2.2 2.2 0 0 0-.47.24 6.88 6.88 0 0 1-.88-.43 1.3 1.3 0 0 1-.4-.41c-.1-.17-.17-.34-.2-.54-.03-.17-.06-.18-.09 0-.04.23-.14.45-.29.64a3.4 3.4 0 0 1-1.2.96 1.9 1.9 0 0 0-.65-.37.62.62 0 0 0-.36 0l-.01.01v.02c.19-.03.38.02.58.13.18.12.31.2.38.27l-.29.16a2.54 2.54 0 0 0-1.1 0v.03c.33-.07.65-.06.97.02l-1 .5a.63.63 0 0 1-.1-.2c-.05-.25-.04-.51.03-.8l.1-.35a15.15 15.15 0 0 0 .52-1.32 4 4 0 0 0 .07-.14c.02-.03.01-.06-.02-.08.2-.28.44-.5.72-.68a4.92 4.92 0 0 0-1.27-1.62c-.15-.13-.3-.22-.47-.26h-.04a3.26 3.26 0 0 0-.34 1.05 5.4 5.4 0 0 0-.02 1.54c.05.33.13.63.26.88.02.05.07.13.16.25.03.04.02.1-.03.17-.23-.39-.38-.8-.47-1.22a9.72 9.72 0 0 1-.1-.65 3.8 3.8 0 0 1 .22-1.71l.14-.52a2 2 0 0 1 .72.33 11.96 11.96 0 0 1 1.81 1.6 5.69 5.69 0 0 1 1.9-.05c.02 0 .05-.01.06-.03a2.9 2.9 0 0 1 .9-.82l.85-.54c.25-.14.52-.26.83-.36.09-.03.15 0 .18.07.11.28.2.52.26.73.12.4.17.79.16 1.18 0 .51-.08.97-.2 1.37-.07.2-.18.46-.35.76Z" fill="#FDB80B"/><path d="M9.57 5.65c-.31-.05-.5-.07-.59-.07a5.14 5.14 0 0 0-1.05.1c-.1-.18-.23-.36-.38-.52l.17.07a.8.8 0 0 0 .85 0c.07-.04.12-.1.17-.16.1-.18.18-.33.22-.46a10.1 10.1 0 0 1 .16-.44l.03.3a3.29 3.29 0 0 0 .18.9c.02.04.05.1.1.15l.14.13Z" fill="#FDD60C"/><path d="M11.43 4.18c-.03.01-.05.01-.07 0 0-.01 0-.02.02-.03.03 0 .05 0 .05.03Z" fill="#C0982E"/><path d="M9.43 4.41c.1.2.19.34.28.44.12.13.26.22.42.25v.03l-.27.3a.86.86 0 0 1-.4-.53 1.05 1.05 0 0 1-.03-.49Z" fill="#F56425"/><path d="M6.24 6.05h-.02v.02l.16.3v.01h-.02a.9.9 0 0 1-.41-.19c-.05-.04-.06-.03-.03.03.12.21.25.4.4.57.02.01.02.03.01.04-.22.3-.4.6-.55.91-.03.05-.05.05-.07 0a2.75 2.75 0 0 1-.41-1.11 4.96 4.96 0 0 1 .11-1.75c.04-.14.09-.28.15-.4 0-.02.01-.03.03-.03l.04.01a6.92 6.92 0 0 1 .77 1.42 2.72 2.72 0 0 1-.45-.48v.02a3.11 3.11 0 0 0 .4.68h-.02a.2.2 0 0 1-.09-.05ZM11.89 6.01c-.14.05-.3.07-.46.07-.08 0-.09-.02-.01-.06a.32.32 0 0 0 .1-.08c.02-.02.02-.03 0-.02a.84.84 0 0 1-.13.01c-.07 0-.07 0-.01-.04a3.88 3.88 0 0 0 .66-.42l-.01-.02H12a.65.65 0 0 1-.2.1 3.18 3.18 0 0 1-.46.1l.78-.92c.08-.1.15-.17.23-.21h.05a.8.8 0 0 1 .16.27c.14.38.2.78.2 1.2-.02.4-.08.77-.17 1.13-.07.23-.17.43-.3.62-.02.02-.03.02-.04-.01a8.9 8.9 0 0 0-.2-.57 1.68 1.68 0 0 0-.68-.86l-.01-.02c0-.01 0-.02.02-.02.19-.04.36-.11.5-.22.07-.04.06-.05 0-.03Z" fill="#FC7C7B"/><path d="M13.93 4.6c.03 0 .05 0 .06-.03 0-.02-.01-.04-.04-.05-.03 0-.05 0-.06.03 0 .02.01.04.04.05Z" fill="#E6EAE9"/><path d="m13.48 5.29-.1-.13v-.03l.1-.1h.03c.03.05.05.09.04.12l-.05.1a4.15 4.15 0 0 0-.02.04Z" fill="#FC7C7B"/><path d="M15 5.5v.03a.63.63 0 0 0-.24.27h-.02a.63.63 0 0 0-.23-.27v-.04c.1-.07.18-.16.23-.28h.02c.05.12.13.2.23.28l.01.02Z" fill="#FDB80B"/><path d="M4.32 5.56h.06v-.05c-.03-.02-.05-.02-.06 0-.02 0-.01.03 0 .05Z" fill="#FC7C7B"/><path d="M4.06 6c.02.02.04.02.05 0 .02-.01.01-.04 0-.05-.02-.02-.04-.02-.06 0V6Z" fill="#696868"/><path d="m4.61 6.15-.27.5v.03l.03.01.29-.04c.01 0 .02 0 .02.02l.05.33a.56.56 0 0 1-.28-.02 3.37 3.37 0 0 0-.16-.05v.02l.5.4c.09.4.24.77.44 1.12-.15.16-.3.29-.47.37-.08.04-.08.07.02.07l.15.05c.03.15.07.27.12.36a12.48 12.48 0 0 1 .04.43c-.02.2-.08.37-.18.5a1.78 1.78 0 0 1-.8.63l.01.01c.39-.1.63-.17.73-.21a.9.9 0 0 1 1 .2c.17.16.33.35.47.57l-.14.46a.6.6 0 0 0-.56-.03c-.03.01-.04 0-.03-.02a.97.97 0 0 0-.06-.56c-.08-.2-.21-.32-.4-.36a1.09 1.09 0 0 0-.53.04.3.3 0 0 0-.16.12.66.66 0 0 0-.1.19c-.01 0-.03 0-.04.02l-.08.01a.08.08 0 0 0-.07-.03 2.01 2.01 0 0 1-.74-.17 1.01 1.01 0 0 1-.23-.15.54.54 0 0 1-.18-.23c0-.02 0-.02.02 0l.09.05c.14.07.4.02.75-.17.05-.02.07-.06.07-.1l.07-.01c.02.01.04 0 .07-.02l.16-.15c.23-.1.38-.28.47-.53.06-.17.06-.32-.02-.45a.63.63 0 0 0-.36-.26l-.02-.02.01-.02c.31-.33.49-.72.52-1.18a.9.9 0 0 0-.08-.43.25.25 0 0 0-.07-.09.48.48 0 0 1-.05-.04 3.54 3.54 0 0 0-.47-.25c-.1-.04-.2-.05-.25-.03-.12-.1-.22-.22-.3-.36a.8.8 0 0 1-.15-.44c0-.03.01-.03.03 0 .17.3.43.44.78.44 0 0 .02 0 .02-.02l.32-.51Z" fill="#FC9315"/><path d="m13.7 6.77-.35-.6a2.16 2.16 0 0 1 .35.6Z" fill="#FC7C7B"/><path d="M3.85 6.45c.02 0 .04 0 .04-.03 0-.02 0-.04-.03-.04-.02 0-.04 0-.04.02-.01.02 0 .05.03.05Z" fill="#FDB80B"/><path d="M14.12 7.1a3.25 3.25 0 0 0-.92.49c-.03.03-.07.1-.1.2l-.01.08a.42.42 0 0 0 0 .31c.07.2.2.35.4.45.05.04.1.06.16.09v.02a.69.69 0 0 1-.06.08 1.63 1.63 0 0 0-.32.6c-.07.2-.07.4-.03.57.05.2.16.34.33.44a5.19 5.19 0 0 0 .47.24l.04-.03c.1.1.23.18.36.24.13.05.24.06.33.03.1-.05.1-.03.03.04-.1.1-.22.17-.33.21-.2-.06-.4-.1-.6-.12-.49-.05-.85-.01-1.1.12a.51.51 0 0 0-.29.56c.02.12.08.25.19.42.02.03.01.05-.03.04a2.14 2.14 0 0 0-.36-.06c-.12 0-.25.01-.37.05-.1-.26-.15-.51-.17-.75l.18-.24a1.05 1.05 0 0 1 .96-.53c.26 0 .53.05.8.14l.33.09c.01 0 .02 0 .02-.02 0-.01 0-.02-.02-.02a5.31 5.31 0 0 1-.78-.53 1.14 1.14 0 0 1-.28-.44.87.87 0 0 1-.03-.38l.15-.22c.04-.06.03-.12-.03-.15 0-.06.03-.1.08-.12l.33-.2c.02-.02.02-.04 0-.04l-.4-.1c0-.04-.03-.07-.05-.08a2.32 2.32 0 0 0-.2-.1c-.01 0-.02-.02 0-.04a3.7 3.7 0 0 0 .38-1.1 3 3 0 0 0 .61-.27c.03-.02.03-.03 0-.03l-.54.02.05-.27c0-.02.02-.03.04-.03.11.04.23.05.35.04.25-.02.49-.09.71-.22.08-.04.14-.1.18-.15.02-.04.04-.04.03 0 0 .05-.02.1-.04.15-.1.24-.25.41-.45.52Z" fill="#FC9315"/><path d="M10.37 11.57a.92.92 0 0 1 .2-.12l.21-.1c.4-.25.73-.53 1-.84.16-.18.27-.38.33-.6.01-.07 0-.08-.05-.03a3.63 3.63 0 0 1-1.66 1.09 4.48 4.48 0 0 1-3.25-.18 3.76 3.76 0 0 1-.77-.54c.24-.22.58-.39 1.01-.5l.02-.01v-.02c0-.02-.02-.03-.04-.03-.4.09-.74.26-1 .54h-.04c-.07-.11-.15-.22-.25-.32.17-.13.37-.22.62-.27.28-.06.51-.1.7-.11.02 0 .03-.01.03-.03v-.01c0-.03-.01-.04-.03-.03a4.2 4.2 0 0 0-.7.12 1.9 1.9 0 0 0-.62.3.49.49 0 0 1-.1-.14s.02 0 .03-.03l.99-.5.42.12h.01l.02-.02.02-.02-.02-.02-.32-.11.3-.16a1.24 1.24 0 0 1 .17.1h.02v-.03l-.14-.13a3.4 3.4 0 0 0 1.2-.96c.15-.2.25-.41.3-.64.02-.18.05-.18.08 0 .03.2.1.37.2.54.1.17.24.3.4.41.17.1.46.25.88.43l-.25.23V9c.02.02.03.02.04.01l.33-.26.29.15c-.17.07-.33.17-.47.29v.01l.01.01h.03l.05-.01c.17-.12.35-.2.53-.27.4.14.8.25 1.2.33.05.01.06 0 .03-.03l-.15-.18v-.03l.02-.02c.12-.02.23-.05.33-.1.03-.01.03-.03 0-.04-.13-.05-.23-.19-.32-.43a9.21 9.21 0 0 0-.74-1.87c.24.24.4.47.46.7l.24.83c.04.11.1.25.18.4.09.15.22.24.4.24.01 0 .02 0 .03.02v.02a.65.65 0 0 1-.28.34v.04c.08.06.16.08.22.08.05 0 .06 0 .03.05-.1.11-.23.19-.41.23-.02 0-.03.01-.02.03.09.24.09.48 0 .72 0 .03-.02.03-.03 0l-.07-.17-.02-.01-.03.01c-.16.38-.4.7-.74.95a3.4 3.4 0 0 1-1.06.54Z" fill="#fff"/><path d="M3.6 6.81h.02l.02.01v.05c0 .02 0 .03-.02.02-.04-.03-.05-.05-.03-.08Z" fill="#FC7C7B"/><path d="M6.6 6.81c.03.02.04.05.02.09a4.04 4.04 0 0 1-.14.27c-.13.41-.28.8-.44 1.19-.03.06-.06.17-.11.36-.07.28-.08.54-.02.79.01.06.04.13.1.2-.01.03-.02.03-.03.03l-.32.18c-.02-.2 0-.38.08-.56.03-.05.01-.06-.04-.04l-.05.02a.07.07 0 0 1-.04.01.45.45 0 0 1-.27-.2v-.01a.64.64 0 0 0 .2-.2 1 1 0 0 0 .11-.26c.07-.23.12-.4.16-.49.18-.5.45-.96.8-1.38Z" fill="#F56425"/><path d="M9.63 7.19c-.02-.02 0-.04.03-.07A.7.7 0 0 1 9.78 7h.01a.7.7 0 0 1 .14-.09c.04-.02.07-.02.08 0l-.38.27Z" fill="#060D1F"/><path d="m4.73 7 .05.36-.5-.4v-.02l.02-.01.15.05c.1.03.19.04.28.02Z" fill="#FDD60C"/><path d="M4.23 10.34c.14-.2.22-.41.23-.62 0-.09 0-.15-.04-.19a.67.67 0 0 0-.36-.16 3.07 3.07 0 0 1-.27-.06l-.02-.18a.81.81 0 0 0 .6-.48c.24-.54.15-1.01-.27-1.4 0-.02-.02-.02-.03-.02h-.01A.18.18 0 0 0 4 7.2a.3.3 0 0 0-.1-.15c.06-.02.14-.02.25.03a3.54 3.54 0 0 1 .47.25l.05.04c.04.03.06.06.07.1a.9.9 0 0 1 .08.42c-.03.46-.2.85-.52 1.17v.03l.01.02c.18.06.3.14.36.26.08.12.08.27.02.45a.88.88 0 0 1-.47.53ZM14.12 7.1l-.17.16a.04.04 0 0 0 0 .05 5.04 5.04 0 0 1 .3 1.33c.13 0 .26-.01.39-.07v.05l-.36.2a.07.07 0 0 0-.04.08c.03.56-.03 1.1-.19 1.64 0 .04 0 .07.03.1l-.04.03H14l-.43-.24a.69.69 0 0 1-.33-.44 1.1 1.1 0 0 1 .02-.58 1.63 1.63 0 0 1 .4-.67l-.01-.02a3.4 3.4 0 0 1-.16-.09.87.87 0 0 1-.4-.45.42.42 0 0 1 0-.3l.02-.09c.02-.1.06-.17.1-.2l.19-.14c.22-.15.46-.26.72-.35Z" fill="#F56425"/><path d="M4.06 7.24a6.21 6.21 0 0 0-.29 1.89l.02.18c.03.4.1.8.2 1.2l-.06.02a2.08 2.08 0 0 1-.1-.36 10.2 10.2 0 0 1-.16-.86 1.67 1.67 0 0 1-.3-.07c-.03-.01-.03-.02.01-.03l.27-.04c.02 0 .03-.01.03-.03l.04-.73c.06-.41.15-.82.29-1.22l.05.05Z" fill="#FC7C7B"/><path d="M3.77 9.13V8.6c.04-.44.14-.9.29-1.37h.04c.42.4.5.87.26 1.41a.81.81 0 0 1-.59.48Z" fill="#171E2C"/><path d="M9.95 7.65c.22-.3.52-.41.9-.34a53.06 53.06 0 0 1 .7.15 1.9 1.9 0 0 1-.24.48.96.96 0 0 1-.44.32c-.32.12-.71.1-1.19-.08-.01 0-.02-.01-.01-.02.08-.2.17-.37.28-.51Z" fill="#060D1F"/><path d="M14.38 7.36c0 .03.02.06.04.06.03 0 .06-.02.06-.05 0-.03-.02-.06-.04-.07-.03 0-.06.02-.06.06Z" fill="#FDB80B"/><path d="M13.93 7.38c.13.49.21.9.24 1.24 0 .02-.01.04-.04.03a1.17 1.17 0 0 1-.42-.13.49.49 0 0 1-.28-.43.72.72 0 0 1 .16-.5c.07-.1.17-.19.27-.26.02-.02.04-.02.06 0l.01.05Z" fill="#171E2C"/><path d="M6.55 7.54c.06 0 .11-.02.15-.04l.44-.14c.5-.12.88.15 1.13.8.01.02 0 .04-.02.06-.15.08-.3.15-.45.19-.22.06-.42.06-.61 0a.95.95 0 0 1-.48-.38 1.47 1.47 0 0 1-.2-.43c0-.03 0-.05.04-.06Z" fill="#060D1F"/><path d="M7.22 7.8c.13-.03.22-.13.2-.2-.03-.09-.15-.12-.28-.08-.13.03-.22.13-.2.2.03.09.15.12.28.08ZM10.3 7.76c.09-.08.12-.18.08-.23-.04-.05-.15-.02-.23.05-.09.08-.12.18-.08.23.04.05.15.02.23-.05ZM11.2 7.73c0 .05.01.1.04.09.02 0 .03-.04.03-.1 0-.04-.02-.08-.04-.08-.03 0-.04.04-.04.1ZM10.96 7.97c0 .08.03.15.07.15.04 0 .08-.07.08-.15 0-.09-.03-.15-.08-.15-.04 0-.07.06-.07.15ZM7.85 8.12c-.02.08 0 .16.04.17.04 0 .1-.05.11-.13.02-.09 0-.16-.04-.17-.04-.01-.09.05-.11.13Z" fill="#fff"/><path d="M3.19 8.14c0 .03.03.06.06.05.03 0 .04-.04.04-.07 0-.04-.04-.06-.07-.06-.02.01-.04.04-.03.08Z" fill="#FC7C7B"/><path d="M14.66 8.14a.1.1 0 0 1 .07 0l.02.01v.03c-.03.03-.06.03-.1.01l-.01-.02c0-.01 0-.02.02-.03Z" fill="#C0982E"/><path d="m10.66 8.74-.33.26h-.03l-.01-.01v-.03l.25-.24c.14-.1.3-.17.47-.24.18-.07.36-.1.52-.08.01 0 .02 0 .02.02h-.02c-.32.02-.61.13-.87.32ZM9.03 9.7l-.18.12a.75.75 0 0 1-1.09-.26.06.06 0 0 1 0-.08l.01-.01c.03-.03.05-.03.07 0 .08.1.14.18.2.21.27.2.55.19.83-.03a.4.4 0 0 0 .06-.1c.04-.07.05-.19.03-.35a.1.1 0 0 0-.05-.07 4.1 4.1 0 0 1-.23-.18.53.53 0 0 1-.18-.24c-.01-.04 0-.1.04-.14.04-.04.1-.07.19-.08.26-.06.5-.05.7 0 .1.04.15.1.14.2a.4.4 0 0 1-.13.22l-.29.23a.07.07 0 0 0-.03.03l-.02.29c0 .06.03.11.08.16.12.1.25.17.4.2.15.03.3 0 .42-.06.05-.02.1-.08.16-.17l.04-.05c.01-.02.02-.02.04-.02.03 0 .05.02.06.04v.07a.55.55 0 0 1-.4.3.87.87 0 0 1-.75-.17 79.89 79.89 0 0 1-.12-.06Z" fill="#060D1F"/><path d="m5.23 8.47.01.02c.07.09.1.16.1.2 0 .07-.01.11-.06.15a.46.46 0 0 1-.15.06l-.2.06a.43.43 0 0 0-.15-.05c-.1 0-.1-.03-.02-.07.17-.08.32-.2.47-.37Z" fill="#FDD60C"/><path d="M9.43 8.56c.02 0 .04.02.04.05v.02c0 .02 0 .03-.02.02a2.22 2.22 0 0 0-.7-.03l-.04-.02V8.6c.22-.06.46-.06.72-.03Z" fill="#fff"/><path d="m7.48 8.94.13.13v.02l-.01.01h-.01a1.24 1.24 0 0 0-.17-.1c-.07-.07-.2-.15-.38-.27a.85.85 0 0 0-.58-.13v-.02h.01a.62.62 0 0 1 .36 0c.24.07.45.2.65.36Z" fill="#060D1F"/><path d="m13.04 9.12-.09-.02v-.04l.1-.4.4.1c.02 0 .02.01 0 .03l-.33.2a.16.16 0 0 0-.08.13Z" fill="#FDD60C"/><path d="M13.97 10.52a2.41 2.41 0 0 1-.36-.54.8.8 0 0 1-.08-.51.74.74 0 0 1 .27-.44c.1-.09.23-.14.36-.17.02 0 .02 0 .02.02a5.64 5.64 0 0 1-.18 1.64h-.03Z" fill="#171E2C"/><path d="M3.12 9.11v-.03c.05-.05.08-.06.1-.03h.02c.02.03.02.07-.02.1v.02h-.04l-.06-.06ZM14.78 9.17c.04 0 .06-.03.06-.06a.06.06 0 0 0-.06-.06.06.06 0 0 0-.06.06c0 .03.03.06.06.06Z" fill="#FC7C7B"/><path d="M12.04 9.29a2.78 2.78 0 0 0-.93.01 32.6 32.6 0 0 0-.53.09v-.02c0-.02 0-.03.02-.03a3.03 3.03 0 0 1 1.45-.07v.01s0 .01 0 0Z" fill="#060D1F"/><path d="m4.23 10.34-.16.15c-.03.03-.05.03-.07.02-.11-.4-.18-.8-.21-1.2l.27.06c.16.03.28.09.36.16.03.04.05.1.04.19-.02.2-.1.41-.23.62Z" fill="#171E2C"/><path d="m5.05 9.32.3.27v.14c-.01.15 0 .26.01.34a.5.5 0 0 0 .1.16l.06.08.28.43a10.36 10.36 0 0 0 .56.57c0 .05-.01.1-.04.14-.14-.22-.3-.41-.48-.58a.9.9 0 0 0-.99-.19 12.42 12.42 0 0 1-.73.21v-.02c.34-.14.6-.34.8-.62a1.06 1.06 0 0 0 .17-.72 12.4 12.4 0 0 0-.04-.21Z" fill="#FDD60C"/><path d="M6.08 9.9c0 .03-.02.04-.03.04-.02 0-.02 0-.01-.02a.13.13 0 0 1 .04-.05c.2-.13.4-.23.63-.3.21-.05.44-.1.69-.11.02 0 .03 0 .03.03s0 .04-.03.04c-.19.01-.42.05-.7.1-.25.06-.45.15-.62.28Z" fill="#060D1F"/><path d="M14.76 9.46c.03.06.07.12.14.16.01.01.02.02 0 .03a.6.6 0 0 0-.13.2h-.02l-.13-.16c-.02-.03-.02-.05 0-.07l.07-.07a.12.12 0 0 0 .03-.04l.01-.05c.01-.02.02-.02.03 0Z" fill="#FDB80B"/><path d="M12.92 9.49c-.02.15 0 .28.03.39.06.16.15.3.28.43a5.28 5.28 0 0 0 .8.55c0 .01 0 .02-.02.02a3.23 3.23 0 0 1-.33-.1 2.93 2.93 0 0 0-.8-.13 1.05 1.05 0 0 0-.96.53l-.18.24v-.19l.01-.04c.16-.16.28-.31.38-.44a.8.8 0 0 1 .13-.13.7.7 0 0 0 .12-.11c.15-.22.22-.46.2-.72 0-.02 0-.03.02-.04l.32-.26Z" fill="#FDD60C"/><path d="M11.71 9.8c-.3-.1-.62-.15-.95-.13-.02 0-.02-.01-.02-.03v-.01c0-.02.01-.02.03-.02a1.9 1.9 0 0 1 .95.18v.02ZM6.38 10.25c-.01 0-.02 0-.02-.02.27-.27.61-.45 1.01-.54.03 0 .04.01.04.03v.02s0 .02-.02.02c-.43.1-.77.27-1.01.5Z" fill="#060D1F"/><path d="M5.98 9.74c.03.05.06.1.1.13a.13.13 0 0 0-.04.05v.02c.02 0 .03 0 .05-.03.1.1.17.2.24.31l.03.01c0 .01 0 .02.02.02l.01.02a3.77 3.77 0 0 0 1.59.81c.8.19 1.6.15 2.42-.11a3.63 3.63 0 0 0 1.66-1.09c.05-.05.06-.04.05.02a1.5 1.5 0 0 1-.33.61 4.33 4.33 0 0 1-1.65 1.17l-.01.02v.01l.02.01h.33a.2.2 0 0 1-.07.08.06.06 0 0 0-.03.06c0 .02.01.04.03.05l.25.16a6.35 6.35 0 0 1-3.41.25.9.9 0 0 0-.25.02l-.29.06.08-.29c0-.01.01-.02.03-.02a4.07 4.07 0 0 0 1.22-.28c.06-.02.06-.04 0-.06h-.09a4.31 4.31 0 0 1-1.9-1.24c-.11-.13-.2-.32-.25-.56 0-.02-.01-.03-.03-.02a.18.18 0 0 0-.05.05h-.03a.1.1 0 0 1-.02-.06l.32-.18Z" fill="#B3BCC2"/><path d="M3.34 10.24c.02.02.04.02.05.01.02 0 .02-.03.01-.05-.01-.02-.03-.03-.05-.02-.01.01-.02.04 0 .06Z" fill="#696868"/><path d="m3.46 10.7.03-.05c-.01-.02-.03-.02-.05 0-.02 0-.04.02-.03.04 0 .01.03.02.05 0Z" fill="#C0982E"/><path d="m6.18 11.91-.14.41c0 .01 0 .02-.02.01l-.12-.06c-.09-.05-.2-.05-.33 0a4.7 4.7 0 0 0-.5.22c-.06-.02-.08-.05-.08-.1.17-.2.27-.33.3-.41a.46.46 0 0 0-.02-.36.5.5 0 0 0-.39-.3 2.67 2.67 0 0 0-.53-.03.65.65 0 0 1 .09-.19.3.3 0 0 1 .16-.11c.19-.07.37-.08.54-.05.18.04.3.16.39.36.07.18.1.37.06.56 0 .02 0 .03.03.02a.6.6 0 0 1 .56.03ZM14.47 11.16c-.13.07-.27.1-.41.13-.02 0-.03 0-.04.02-.02.01-.05.02-.07 0a.04.04 0 0 0-.04 0 .17.17 0 0 0-.05.03h-.09c-.26 0-.5.07-.71.23-.22.16-.25.35-.11.58.02.03.07.1.17.2a.79.79 0 0 1-.3.33.89.89 0 0 0-.78-.16c-.03 0-.04 0-.05-.03l-.08-.32c.12-.04.25-.05.37-.05.1 0 .21.02.36.06.04 0 .05 0 .03-.04-.11-.16-.17-.3-.19-.42a.51.51 0 0 1 .29-.56c.25-.13.61-.17 1.1-.12l.6.12Z" fill="#F56425"/><path d="M4.3 11.31a4.78 4.78 0 0 0 .76 1.18c.29.32.6.6.96.85l.1.05c.07.1.16.17.29.2l.03.03c0 .04.04.08.1.1a5.3 5.3 0 0 0 1.78.62c.08 0 .15-.01.2-.05.43.03.86.02 1.3-.03.36-.04.69-.13.98-.27.18-.04.34-.1.49-.18l.34-.17c.1-.03.16-.08.18-.13a4.76 4.76 0 0 0 1.02-.83.8.8 0 0 0 .29-.32c.25-.31.47-.65.65-1.02h.1a5.46 5.46 0 0 1-4.49 3.07 5.2 5.2 0 0 1-4.33-1.8 4.71 4.71 0 0 1-.83-1.29h.08Z" fill="#FC7C7B"/><path d="M13.77 11.34c-.18.37-.4.7-.65 1.02-.1-.11-.15-.18-.17-.22-.14-.22-.1-.41.11-.57.21-.16.45-.23.71-.23Z" fill="#171E2C"/><path d="m11.48 11.44-.08.1a.31.31 0 0 0-.1-.1l.13-.07h.03l.02.07Z" fill="#B3BCC2"/><path d="M11.3 11.45c.04.02.08.06.1.1l-.01.03a5.35 5.35 0 0 1-.74.49l-.25-.16a.06.06 0 0 1-.03-.05c0-.03.01-.04.03-.06a.2.2 0 0 0 .07-.08c.29-.05.57-.14.83-.27Z" fill="#C0982E"/><path d="m11.49 11.44.33 1.22c.04.2.08.46.1.77a.3.3 0 0 1-.11.08 17.53 17.53 0 0 0-.41-1.96l.09-.1Z" fill="#fff"/><path d="M14.27 11.6c.02 0 .04-.01.04-.03a.04.04 0 0 0-.04-.04.04.04 0 0 0-.04.04c0 .02.02.04.04.04Z" fill="#C0982E"/><path d="M11.39 11.58c.17.64.31 1.28.42 1.93-.02.05-.08.1-.18.13l-.34.17c-.15.08-.3.14-.49.18.11-.25.19-.49.23-.72a1.2 1.2 0 0 0-.21-1l-.16-.2c.25-.13.5-.3.73-.49Z" fill="#FDB80B"/><path d="m6.12 13.39-.1-.05a15.63 15.63 0 0 1 .54-1.62l.01.02c-.17.54-.32 1.1-.45 1.65Z" fill="#B3BCC2"/><path d="m4.09 12.08-.16.2c-.01.02-.02.02-.03 0a.56.56 0 0 0-.17-.19c.06-.05.11-.11.16-.2h.03a2.53 2.53 0 0 0 .17.2Z" fill="#FC7C7B"/><path d="M10.65 12.07h.01l.16.2a1.2 1.2 0 0 1 .21 1c-.04.23-.12.47-.23.72-.3.14-.62.23-.98.27-.44.05-.87.06-1.3.03a4.96 4.96 0 0 1-2.11-.7c.06-.4.16-.8.3-1.19l.28-.06a.9.9 0 0 1 .24-.02c.06 0 .14 0 .24.03a6.35 6.35 0 0 0 3.17-.28Z" fill="#E6EAE9"/><path d="M4.48 12.51c-.01.06-.05.08-.12.05l-.01-.02v-.03l.08-.07h.04a.2.2 0 0 1 .04.04l-.01.02h-.01l-.01.01Z" fill="#F56425"/><path d="M14.2 12.92v.02a.58.58 0 0 0-.32.36c0 .03-.02.03-.03 0a.59.59 0 0 0-.34-.36v-.03c.17-.08.29-.2.34-.36.01-.03.02-.03.03 0 .05.16.16.28.32.36v.01Z" fill="#FDB80B"/><path d="m9.62 13.23-.7.87H8.9l-.03-.01-.52-1.28v-.04h.04l.98.18h.02l.23.24v.04Z" fill="#CF0400"/><path d="m8.6 12.88.64.12.01.01v.02l-.24.2h-.03l-.4-.32c-.02-.03-.02-.04.02-.03ZM8.53 12.94l.42.36v.01l-.06.55v.01h-.02l-.36-.91v-.02h.02ZM9.47 13.2l-.34.05h-.01v-.02l.22-.18h.04l.1.13v.02ZM9.47 13.3l-.45.55c-.04.04-.05.04-.05-.03l.06-.46c0-.01 0-.02.02-.02l.4-.07c.03 0 .03 0 .02.02Z" fill="#E6EAE9"/><path d="M13.05 13.3h.03v.05l-.03.01-.02-.01c-.02-.01-.02-.03 0-.04l.02-.02Z" fill="#C0982E"/><path d="M4.48 13.35c.06.15.15.27.28.35.02.01.02.02 0 .03a.78.78 0 0 0-.27.35h-.01a.78.78 0 0 0-.28-.34c-.02-.01-.02-.02 0-.04.13-.08.22-.2.27-.34h.01Z" fill="#FDB80B"/><path d="M12.51 13.64c0-.02.02-.03.04-.04h.05c.04.06.04.14 0 .23 0 .02-.02.02-.03 0a.18.18 0 0 1-.06-.19Z" fill="#FC7C7B"/><path d="M8.53 14.3a.34.34 0 0 1-.21.04.27.27 0 0 1-.12-.04.13.13 0 0 0-.08-.01l-.09-.02c-.5-.1-1-.27-1.5-.54-.05-.03-.08-.07-.1-.1.65.37 1.35.6 2.1.66Z" fill="#FC9315"/><path d="M11.78 14.21c.01.02.04.02.05 0v-.04c-.01-.02-.04-.02-.05 0v.04Z" fill="#696868"/><path d="M6.56 14.3v.03l-.03.02c-.03.02-.06.02-.08 0l-.01-.01c-.02-.03-.02-.06.01-.08l.03-.03h.03l.05.06Z" fill="#FC7C7B"/><path d="m11.2 14.46-.01.05c0 .01-.02.02-.03 0-.04-.01-.06-.04-.05-.06l.05-.05.04.01a.1.1 0 0 1 0 .05ZM10.7 14.7c.02 0 .04-.01.04-.04a.04.04 0 0 0-.04-.03.04.04 0 0 0-.04.03c0 .03.02.04.04.04ZM7.8 14.77h.02c.02.02.01.04-.02.07h-.03a.03.03 0 0 1-.02-.02c-.01-.02 0-.04.05-.05ZM8.47 14.97c.03 0 .05-.03.05-.06a.05.05 0 0 0-.05-.05.05.05 0 0 0-.05.05c0 .03.03.06.05.06Z" fill="#C0982E"/><path d="M8.96 14.91v.05c0 .01-.01.02-.03.02l-.04-.01v-.04c0-.01.02-.03.05-.03l.02.01ZM9.16 14.92c-.02.02-.02.04 0 .06l.05-.01c.02-.02.02-.05 0-.06-.01-.02-.04-.01-.05 0Z" fill="#696868"/></svg>