<!-- by TradingView --><svg width="18" height="18" viewBox="0 0 18 18" xmlns="http://www.w3.org/2000/svg"><path fill="#F0F3FA" d="M0 0h18v18H0z"/><path d="m9.68 3.05.4 1.31a.8.8 0 0 1 .08.39l-.84 1.28c-.28.43-.57.84-.85 1.23-.3.42-.64.81-1 1.18l-.35-.26-.22-.85a.03.03 0 0 1 0-.03.03.03 0 0 1 .03-.01l.35.04a.07.07 0 0 0 .07-.1.07.07 0 0 0-.04-.03l-.03-.02a.11.11 0 0 1-.05-.05c-.27-.57-.47-.87-.88-1.47-.4-.58-.49-1.2-.27-1.88a6.04 6.04 0 0 1 3.6-.73Z" fill="#CCD5E3"/><path d="M9.84 3.06c.04.17.1.3.17.38a4.6 4.6 0 0 0 3.07 1.53l.07.07a.04.04 0 0 1 .01.04.04.04 0 0 1-.02.02 29.4 29.4 0 0 1-3.05-.74l-.41-1.3h.16Z" fill="#8B837D"/><path d="m13.74 5.32-.76-.1c-.01-.05 0-.08.04-.1l.06-.01h.06a.04.04 0 0 0 .01-.07l-.07-.07A4.6 4.6 0 0 1 10 3.44a.87.87 0 0 1-.16-.38c1.59.25 2.89 1 3.9 2.26Z" fill="#9B9289"/><path d="M6.08 3.78c-.22.67-.13 1.3.27 1.88.4.6.61.9.88 1.47 0 .02.03.04.05.05l.03.02a.07.07 0 0 1-.03.13l-.35-.04a.03.03 0 0 0-.03.01.03.03 0 0 0 0 .03l.22.85-.66-.44-.87-2.02a4.29 4.29 0 0 0-.21-.45 40.51 40.51 0 0 0-.28-.44c0 .05.02.09.03.1a1.98 1.98 0 0 1 .39.83l.15.35-.43-.46a2.8 2.8 0 0 0-.48-.89c.37-.38.82-.7 1.32-.98Z" fill="#B6BECD"/><path d="m13.08 5.1-.06.03c-.04 0-.05.04-.04.08l-2.47-.39-.25-.03a.06.06 0 0 0-.04.01l-.02.02a.03.03 0 0 1-.05-.03l.01-.04a.8.8 0 0 0-.07-.39l1 .36c.27.09.57.16.9.2l1.1.19Z" fill="#736B66"/><path d="M10.16 4.75a.1.1 0 0 0 0 .04.03.03 0 0 0 .04.03l.02-.02a.06.06 0 0 1 .04-.01l.25.03c-.35.29-.43.65-.66.93-.54.67-1.09 1.32-1.57 2.03a3.2 3.2 0 0 1-.62.63c.22-.3.49-.55.69-.84l.73-1.03c.14-.17.21-.35.24-.51l.84-1.28Z" fill="#AB9B8E"/><path d="M5.24 5.65c.1.3.25.56.46.8a.05.05 0 0 0 .08-.02V6.4l-.11-.3-.15-.34-.01-.04a1.98 1.98 0 0 0-.38-.78.25.25 0 0 1-.03-.1.01.01 0 0 1 0-.02h.01l.27.45a344.26 344.26 0 0 0 1.08 2.47l-.57-.08-.28-.1a.06.06 0 0 1-.04-.05c0-.04 0-.1.02-.15.04-.02.06-.05.06-.09.09-.1.09-.18 0-.26a.3.3 0 0 0-.18-.09h-.03l-.01.04a.4.4 0 0 1-.16.26l.03-.45c.04-.41-.03-.82-.19-1.24-.1-.24-.27-.47-.42-.7l.07-.07c.21.27.37.57.48.89Z" fill="#79767A"/><path d="M4.69 4.83c.15.23.33.46.42.7.16.42.23.83.2 1.24-.03.22-.04.37-.04.45l.01.7A5.85 5.85 0 0 1 5 9.52c-.08.25-.21.52-.39.8l-.24.33-.53.48a.05.05 0 0 1-.06 0c-.4-.32-.3-.75.05-1.05.12-.1.3-.25.44-.45a.04.04 0 0 0-.02-.05l-.62-.22a.05.05 0 0 1-.03-.03.05.05 0 0 1 0-.04l.34-.58v-.04a.05.05 0 0 0-.02-.03c-.03-.02-.04-.03-.03-.01-.08-.06-.15-.06-.23 0-.35-.4-.35-1.07-.07-1.5a1.94 1.94 0 0 0 .6 1h.02l.01-.03v-.02a1.33 1.33 0 0 1-.33-.53.02.02 0 0 1 .04-.01c.18.1.36.13.54.08.14-.03.3.07.4.03a.1.1 0 0 0 .06-.05l.15-.32a.04.04 0 0 0 0-.05l-.33-.26v-.01l.38.04a.03.03 0 0 0 .03-.01.03.03 0 0 0 0-.02l.01-.43-.01-.06-.07-.11a.13.13 0 0 0-.11-.06l-1.08.05a.17.17 0 0 0-.16.13l-.13.6c-.09-.05-.18.02-.29-.06.3-.83.76-1.56 1.37-2.19Z" fill="#D8907A"/><path d="m10.51 4.82 2.47.4.76.1.2.29c-1.1.18-2.13.61-3.08 1.3l-1.33.98-.07.03a.02.02 0 0 0 0 .05h.04a.03.03 0 0 1 .03.03v.02c-.03.03-.07.04-.12.03a.03.03 0 0 0-.03.01.03.03 0 0 0 0 .03c0 .07-.02.15-.07.25a.06.06 0 0 1-.06.03 14.29 14.29 0 0 0-1.41.5L7.6 8.6c-.05-.07-.03-.13.06-.18.3-.24.5-.45.62-.63.48-.71 1.03-1.36 1.57-2.03.23-.28.31-.64.66-.93Z" fill="#C7BCB1"/><path d="m13.94 5.6.26.41c-.19.13-.3.2-.36.22-.47.19-.92.4-1.36.63L12.3 7c-.32.2-.73.27-1 .37-.18.08-.39.14-.6.19-.08.01-.14.03-.21.06-.38.16-.64.32-.96.28l1.33-.98a7.16 7.16 0 0 1 3.08-1.3Z" fill="#D0C7BD"/><path d="m5.67 6.1.11.3a.05.05 0 0 1-.05.06l-.03-.01c-.2-.24-.36-.5-.46-.8l.43.46Z" fill="#9B9289"/><path d="m14.2 6.01.09.15c-.12.16-.26.3-.43.4-.06.04-.15.12-.26.25-.31.08-.46.32-.57.61-.01.03-.02.05-.01.08 0 .07.01.11.02.13 0 .05 0 .1-.04.15a.2.2 0 0 1-.13.08c-.03.01-.08-.02-.14-.1h-.03a.02.02 0 0 0-.02.04c.12.24.31.35.58.33a4.2 4.2 0 0 1 .47 1.12c-.2.42-.19.82.02 1.22l.15.52c.04.15.07.35.08.62.01.12.06.23.14.35-.03.07-.09.1-.17.1-.3-.43-.56-.89-.77-1.37-.13-.28-.36-.3-.52-.38-.1-.05-.17-.11-.2-.18a.8.8 0 0 0-.32-.42.05.05 0 0 0-.08.04c0 .22-.03.48-.27.53-.4.07-.75-.22-.65-.63a2.2 2.2 0 0 1 .13-.42.1.1 0 0 0-.04-.08.1.1 0 0 0-.03-.01l-.25-.07a.08.08 0 0 0-.1.08l-.02.56c-.05-.39-.14-.73-.11-1.13v-.04l.36-.44c.08-.1.2-.18.31-.22l.48-.14c.45-.14.54-.47.6-.88.45-.23.9-.44 1.37-.63.06-.02.17-.1.36-.22Z" fill="#231813"/><path d="M7.66 8.4c-.1.06-.11.12-.06.2a.33.33 0 0 1-.12-.16c.35-.37.68-.76.99-1.18.28-.4.57-.8.85-1.23-.03.16-.1.34-.24.51l-.73 1.03c-.2.29-.47.55-.7.84Z" fill="#8B837D"/><path d="M14.83 10.48a.52.52 0 0 0-.32-.16l-.07.01a.63.63 0 0 1-.24.04c-.03 0-.05 0-.08.03-.1.08-.23.1-.37.07-.21-.4-.22-.8-.02-1.22V9.2a4.2 4.2 0 0 0-.47-1.07l-.14-.37a.1.1 0 0 1 0-.06c.03-.11.07-.18.13-.2l.02-.03v-.24l.01-.05.32-.37c.11-.13.2-.2.26-.24.17-.11.31-.25.43-.41a6.1 6.1 0 0 1 .54 4.32Z" fill="#D0C7BD"/><path d="m3.59 7.12.02-.04.13-.6a.17.17 0 0 1 .16-.13l1.08-.05a.13.13 0 0 1 .11.06l.07.11.01.06v.43a.03.03 0 0 1-.01.02.03.03 0 0 1-.03 0l-.38-.03v.01l.32.26a.04.04 0 0 1 .01.05l-.15.32a.1.1 0 0 1-.06.05c-.1.04-.26-.06-.4-.03a.75.75 0 0 1-.54-.08.02.02 0 0 0-.04.01v.01c.08.2.18.38.32.52l.01.02v.02a.03.03 0 0 1-.05 0c-.3-.27-.49-.6-.58-.99Z" fill="#A7766C"/><path d="m13.6 6.8-.32.38a.08.08 0 0 0-.01.05v.24l-.02.02c-.06.03-.1.1-.13.2a.1.1 0 0 0 0 .07l.14.37c-.27.02-.46-.09-.58-.33a.02.02 0 0 1 .02-.04h.02c.07.08.12.11.15.1a.2.2 0 0 0 .13-.08c.03-.04.05-.1.04-.15a11.28 11.28 0 0 1-.01-.2c.12-.3.26-.54.57-.62Z" fill="#4E3728"/><path d="M12.48 6.86c-.07.41-.16.74-.61.88l-.47.14a.63.63 0 0 0-.32.22l-.35.44-.01.04c-.03.4.06.74.11 1.13 0 .22-.06.42-.15.6a2 2 0 0 1 .3.94l-.01.03c-.27.16-.55.2-.86.12.2-.05.3-.21.33-.48a.85.85 0 0 0-.12-.6c-.3-.43-.6-.9-.96-1.32a.05.05 0 0 1 .06-.09c.35.12.6.37.78.74a.07.07 0 0 0 .08.04l.03-.02c.25-.26.26-.44.32-.88.04-.25.11-.5.24-.73l1.24-.85a.65.65 0 0 0 .19-.22l.18-.13Z" fill="#35241C"/><path d="M5.57 7.51a.06.06 0 0 0 .04.06l.28.09-.52-.03a.04.04 0 0 0-.04.03l-.03.25-.02.02-.01-.7a.4.4 0 0 0 .16-.27l.01-.03h.03a.3.3 0 0 1 .18.08c.35-.01-.1.32-.08.5Z" fill="#736157"/><path d="M12.3 7a.65.65 0 0 1-.19.21l-1.24.85c-.25.3-.33.53-.48.95a.13.13 0 0 1-.15.08l-.06-.01a.1.1 0 0 1-.06-.14l.28-.67a.04.04 0 0 0 0-.04.04.04 0 0 0-.05 0c-.25.13-.56.24-.92.34-.17.04-.24.18-.21.37.02.16-.03.3-.16.44-.09.1-.12.2-.15.29-.08.2-.39.36-.55.45a.05.05 0 0 1-.06 0l-.02-.03v-.03l.24-.94.01-.04.1-.15a.03.03 0 0 0-.02-.04l-.05-.01a.04.04 0 0 0-.03-.01 4.5 4.5 0 0 0-.5.09c-.24.06-.42.03-.59-.14a6.64 6.64 0 0 0-.59-.49c-.29-.12-.67-.2-.83-.5a.1.1 0 0 0-.18.01l-.14.34a.07.07 0 0 1-.05.04.06.06 0 0 1-.06-.02l-.29-.3.03-.24a.04.04 0 0 1 .04-.03l.52.03c.32.25.66.42 1 .62l.17.13c.25.22.51.37.78.47.27-.12.6-.25.99-.4a1.55 1.55 0 0 1 .45-.12l.03-.02c.05-.1.07-.18.06-.25a.03.03 0 0 1 0-.03.03.03 0 0 1 .04 0c.05 0 .09-.01.11-.04a.03.03 0 0 0-.02-.05h-.03a.02.02 0 0 1-.03-.02.02.02 0 0 1 .02-.03l.07-.03c.32.04.58-.12.96-.28.06-.03.13-.05.2-.06.22-.05.43-.1.62-.19.26-.1.67-.18.99-.37Z" fill="#5B3E2D"/><path d="M3.32 7.02c.11.08.2 0 .3.06l-.03.04c-.28.43-.28 1.1.07 1.5 0 .16.07.16.23 0-.01-.02 0-.01.03.01l.02.03v.04l-.34.58a.05.05 0 0 0 0 .04.05.05 0 0 0 .03.03l.62.22a.04.04 0 0 1 .02.05c-.13.2-.32.35-.44.45-.34.3-.45.73-.05 1.05l.03.01.03-.01.53-.48c-.13.23-.3.44-.48.62a.23.23 0 0 0-.1.19c0 .15-.02.3-.05.45a6.47 6.47 0 0 1-.7-2.1c.14-.02.26-.09.37-.2a.05.05 0 0 0-.03-.08 1.05 1.05 0 0 0-.37-.05L3 8.8c.08-.06.17-.1.28-.1.04-.02.07-.03.08-.05a.06.06 0 0 0-.05-.1l-.3.01c.03-.53.14-1.04.31-1.54Z" fill="#C37665"/><path d="m6.46 7.74.66.44.36.26c.02.06.06.12.12.15l.24.3c-.27-.1-.53-.26-.78-.48-.06-.06-.12-.1-.17-.13-.34-.2-.68-.37-1-.62l.57.08Z" fill="#694E3D"/><path d="M6.85 8.33c.2.22.52.54.55.82.05.55.16.75.48 1.24l-.59-.54a.05.05 0 0 0-.07.04c.02.45-.01.95-.44 1.18-.28.15-.62-.1-.78-.3-.2-.27-.18-.86-.73-.6l-.66.13c.18-.27.3-.54.39-.8a5.85 5.85 0 0 0 .3-1.6l.3.3a.06.06 0 0 0 .05.02.07.07 0 0 0 .05-.04l.14-.34a.1.1 0 0 1 .14-.05.1.1 0 0 1 .04.04c.16.3.54.38.83.5Z" fill="#35241C"/><path d="M10.87 8.06c-.13.23-.2.48-.24.73-.06.44-.07.62-.32.88a.07.07 0 0 1-.06.02.07.07 0 0 1-.05-.04 1.31 1.31 0 0 0-.78-.74.05.05 0 0 0-.07.06l.01.03c.36.41.65.9.96 1.33.1.15.15.35.12.6-.03.26-.14.42-.33.47-.32-.1-.64-.23-.94-.37a3.17 3.17 0 0 0-.39-.16c-.35-.11-.64-.16-.9-.48-.32-.5-.43-.69-.48-1.24-.03-.28-.36-.6-.55-.82.2.16.4.32.59.5.17.16.35.19.59.13a4.5 4.5 0 0 1 .53-.08l.05.01a.03.03 0 0 1 .02.01.03.03 0 0 1 0 .03l-.1.15a.1.1 0 0 0-.01.04l-.24.94a.06.06 0 0 0 .05.07h.03c.16-.1.47-.27.55-.46.03-.09.06-.2.15-.29.13-.14.18-.28.16-.44-.03-.2.04-.33.21-.37a4.16 4.16 0 0 0 .94-.35.04.04 0 0 1 .03.05l-.28.67a.1.1 0 0 0 .06.14l.06.01a.13.13 0 0 0 .15-.08c.15-.42.23-.64.48-.95Z" fill="#4E3728"/><path d="M3 8.8v-.24a1.85 1.85 0 0 1 .35 0 .06.06 0 0 1 .01.09c-.01.02-.04.03-.08.04-.1.02-.2.05-.28.1Z" fill="#35241C"/><path d="M3.9 8.62c-.17.16-.25.16-.24 0 .08-.06.15-.06.23 0Z" fill="#4E3728"/><path d="m13.95 12.06-.69-.08c-.29-.1-.55-.24-.77-.45-.17-.1-.34-.1-.48-.29a.5.5 0 0 0-.13-.3 34.42 34.42 0 0 0-.45-.1 1.2 1.2 0 0 1-.75-.53c.09-.18.14-.38.15-.6l.03-.56a.08.08 0 0 1 .03-.06.08.08 0 0 1 .06-.01l.25.06a.1.1 0 0 1 .07.1 2.2 2.2 0 0 0-.14.42c-.09.4.27.69.66.62.24-.05.27-.31.27-.53a.05.05 0 0 1 .06-.05h.02c.16.11.27.25.33.43.02.07.08.13.19.18.16.09.39.1.52.38a8 8 0 0 0 .77 1.37Z" fill="#0E0905"/><path d="m3.04 9.8-.03-.33c.14 0 .26.01.37.05a.05.05 0 0 1 .04.06l-.01.03c-.1.1-.23.17-.37.2Z" fill="#A7766C"/><path d="M7.88 10.4c.26.31.55.36.9.47l.39.16c.3.14.62.27.94.37.3.08.6.04.86-.12l.02-.03v-.03a2 2 0 0 0-.31-.91c.18.26.43.46.75.52a30.53 30.53 0 0 1 .45.1.5.5 0 0 1 .13.31l-.14-.23a.1.1 0 0 0-.05-.04l-.2-.07c-.04-.02-.1-.03-.18-.01-.04.14-.06.3-.06.48 0 .1-.01.16-.03.2a3.78 3.78 0 0 1-.8.72c-.27.17-.34.3-.55.55l-.02.02-.03-.01-.68-.52.36.03h.05l.02-.04.04-.08a.1.1 0 0 0-.06-.13l-.97-.32c-.29-.1-.48-.2-.58-.3a13.68 13.68 0 0 0-.46-.48.06.06 0 0 0-.07.06c-.03.36.05.59.38.8.22.14.45.26.7.35l-.75-.1-.42-.38-.29-.26a.04.04 0 0 0-.06 0v.03c0 .27-.05.55-.14.85a.14.14 0 0 0 .04.14c.2.2.45.33.73.41.12.04.17.11.16.22l-1.31.2c-.01.08 0 .17.05.25l.02.15c-.12-.01-.17-.24-.19-.32-.06-.4-.15-.9-.28-1.47a3 3 0 0 0-.19-.6c-.22-.49-.48-.78-.78-1.16.55-.27.53.32.73.58.16.21.5.46.78.31.43-.23.46-.73.44-1.18a.05.05 0 0 1 .05-.05l.02.01.6.54Z" fill="#1B130E"/><path d="M5.27 10.18c.3.38.56.67.78 1.16a3 3 0 0 1 .2.6c.12.58.21 1.07.27 1.47.02.08.07.3.19.32l.02.05.05.34v.03l.15.29c-.43-.16-.6-.58-.91-1.07a5.73 5.73 0 0 1-.39-.72 6.89 6.89 0 0 0-.7-1.23 1.6 1.6 0 0 0-.44-.4.04.04 0 0 0-.04.02v.03c.05.2.13.39.28.59.39.53.75 1.16 1.07 1.89.1.24.18.46.22.66-.3-.17-.6-.37-.85-.6a3.51 3.51 0 0 0-.3-.6 5.35 5.35 0 0 1-.4-1.02c-.1-.3-.3-.55-.58-.73.19-.18.35-.39.48-.62l.24-.34.66-.12Z" fill="#19191B"/><path d="m14.83 10.48-.11.35a.41.41 0 0 0-.22.15.1.1 0 0 1-.06.04c-.2.03-.38.02-.54-.03l-.15-.52c.14.03.27 0 .37-.07a.12.12 0 0 1 .08-.03c.09 0 .17-.01.24-.04.02 0 .05-.01.07 0 .13 0 .23.06.32.15Z" fill="#694E3D"/><path d="m14.72 10.83-.15.4a.87.87 0 0 1-.38-.04h-.03a.05.05 0 0 0-.04.08c.08.18.12.4.1.64 0-.02 0-.02-.04.01l-.06.04a.7.7 0 0 1-.14-.35 3.8 3.8 0 0 0-.08-.62c.16.05.34.06.54.03a.1.1 0 0 0 .06-.04.41.41 0 0 1 .22-.15Z" fill="#393533"/><path d="M11.44 10.89c-.03.09-.02.18.04.27l.02.07.03.48-.01.04-.03.02-.38.13a.09.09 0 0 0-.05.06c-.05.12-.12.28-.23.47-.11.2-.15.4-.17.62a.09.09 0 0 0 .04.1c.39.2.72.34.9.7a.05.05 0 0 1-.05.07l-.6-.06a.14.14 0 0 1-.09-.04c-.26-.31-.58-.63-.97-.96-.29-.26-.43-.4-.76-.47-.39-.07-.8-.11-1.2-.27l.75.1.6.1.67.53H10c.21-.26.28-.39.55-.56a3.78 3.78 0 0 0 .8-.72c.02-.04.03-.1.03-.2 0-.18.02-.34.06-.48Z" fill="#35241C"/><path d="M11.61 10.9c-.08-.02-.13 0-.15.04v.03c.07.2.1.4.08.62l-.02.23a.05.05 0 0 1-.05.04.42.42 0 0 0-.3.11.06.06 0 0 0-.03.06c.05.34-.01.67-.19 1a.1.1 0 0 0 0 .08.1.1 0 0 0 .06.06c.34.13.66.1.65.59a.09.09 0 0 0 .08.08l.47.05h.02a.03.03 0 0 1 0 .05l-.01.01-.11.04-.65.24c-.1.03-.24 0-.44-.08l-.1-.03-.31-.19a19.8 19.8 0 0 1-.17-.35c-.14-.31-.32-.47-.65-.53-.46-.09-.78.07-1.18.25-.13.06-.4.11-.51.1a36.94 36.94 0 0 0-1.46-.08l1.3-.2.83-.07a.1.1 0 0 0 .09-.08.1.1 0 0 0 0-.04l-.01-.05a.13.13 0 0 0-.16-.1c-.59.13-1.07.1-1.54-.34a.07.07 0 0 1-.02-.08c.1-.27.13-.52.06-.78a.03.03 0 0 1 .01-.04.03.03 0 0 1 .04 0l.27.2.42.38c.4.16.81.2 1.2.27.33.07.47.2.76.47.39.33.7.65.97.96.02.02.06.04.09.04l.6.06a.05.05 0 0 0 .05-.04v-.03c-.18-.36-.51-.5-.9-.7a.09.09 0 0 1-.04-.1c.02-.21.06-.41.17-.62a3.33 3.33 0 0 0 .25-.5l.03-.03.38-.13s.02 0 .03-.02v-.04l-.02-.48c0-.03 0-.05-.02-.07a.31.31 0 0 1-.04-.27c.08-.02.14-.01.17 0Z" fill="#4E3728"/><path d="m11.61 10.9.21.07a.1.1 0 0 1 .05.04l.14.23c.14.2.3.18.48.29-.34.1-.63.28-.88.56l-.07-.5a1.4 1.4 0 0 0-.08-.63v-.02c.02-.05.07-.06.15-.04Z" fill="#736157"/><path d="m6.93 14.44.14.24a4.73 4.73 0 0 1-1.05-.47c-.04-.2-.11-.42-.22-.66-.32-.73-.68-1.36-1.07-1.9a1.54 1.54 0 0 1-.28-.6.04.04 0 0 1 .04-.04l.03.01c.14.1.28.23.4.4.27.36.5.77.71 1.23.12.27.25.5.39.72.31.5.48.9.91 1.07ZM9.27 12.33l-.59-.1a3.9 3.9 0 0 1-.7-.37c-.33-.2-.4-.43-.38-.8a.06.06 0 0 1 .04-.04.06.06 0 0 1 .06 0l.43.46c.1.1.3.2.58.3a1002.37 1002.37 0 0 1 1 .35.1.1 0 0 1 .03.11l-.04.08a.07.07 0 0 1-.07.04l-.36-.03Z" fill="#0E0905"/><path d="m14.57 11.23-.34.68a1.4 1.4 0 0 0-.11-.65.05.05 0 0 1 .04-.07h.03c.1.04.23.06.38.04Z" fill="#C7BCB1"/><path d="M3.89 11.26c.28.18.48.43.57.73.14.45.28.8.41 1.02.15.25.25.46.3.6a6 6 0 0 1-1.43-1.71c.03-.15.04-.3.04-.45 0-.08.04-.14.1-.19Z" fill="#0E0905"/><path d="m7.5 11.74-.26-.2a.03.03 0 0 0-.04 0l-.01.02v.02c.07.26.05.51-.06.78v.04c0 .01 0 .03.02.04.47.44.95.47 1.54.35a.13.13 0 0 1 .16.1v.04a.1.1 0 0 1-.08.12l-.82.08c.01-.11-.04-.18-.16-.22a1.8 1.8 0 0 1-.73-.41.13.13 0 0 1-.04-.14 2.8 2.8 0 0 0 .14-.88l.02-.01a.04.04 0 0 1 .04 0l.29.27Z" fill="#35241C"/><path d="M12.49 11.53c.22.2.48.36.77.45h-.24l-.43-.26a.08.08 0 0 0-.06-.01 1.16 1.16 0 0 0-.61.48v.03a.06.06 0 0 0 .04.04c.23.12.46.2.76.24a6.6 6.6 0 0 1 .66.11l.19.08a.1.1 0 0 0 .1-.03c.04-.05.09-.08.14-.08l-.13.16c-.4.07-.76.1-1.08.1-.26 0-.5-.07-.73-.22l-.19-.25-.07-.28c.25-.28.54-.47.88-.56Z" fill="#A7927A"/><path d="m11.61 12.1.07.27a1 1 0 0 1-.23-.42.07.07 0 0 0-.04-.05.07.07 0 0 0-.07.01l-.05.04a.14.14 0 0 0-.05.14 1.4 1.4 0 0 1-.1.97.04.04 0 0 0 .02.04c.14.04.24.05.3.04.47-.14.8-.21 1.22-.02a.05.05 0 0 1 .01.08c-.2.2-.41.35-.64.44a.08.08 0 0 0-.04.09.08.08 0 0 0 .07.06l.5.02-.36.24c-.02-.04-.06-.06-.11-.06l.1-.04.02-.01a.03.03 0 0 0 0-.04l-.02-.01-.47-.05a.09.09 0 0 1-.08-.08c.01-.48-.31-.46-.65-.59a.1.1 0 0 1-.07-.1l.01-.04a1.59 1.59 0 0 0 .2-1.03l.01-.03c.1-.08.2-.12.31-.1a.05.05 0 0 0 .04-.02.05.05 0 0 0 .02-.03v-.23l.08.5Z" fill="#5B3E2D"/><path d="m13.02 11.98-.26-.06a.07.07 0 0 0-.06.02.08.08 0 0 0-.03.06c.01.08.04.17.09.26a.06.06 0 0 0 .06.04c.27-.03.43-.03.47 0l.57.2-.05.08c-.05 0-.1.03-.13.08a.1.1 0 0 1-.11.03l-.19-.08h-.02a6.58 6.58 0 0 0-.64-.11 2.29 2.29 0 0 1-.79-.26.07.07 0 0 1-.01-.05l.01-.03c.15-.21.35-.36.6-.45a.07.07 0 0 1 .06 0l.43.27Z" fill="#AB9B8E"/><path d="m11.68 12.37.2.25.08.18a.08.08 0 0 0 .05.04c.48.15.97.19 1.5.12-.29.32-.6.6-.93.85l-.5-.02a.08.08 0 0 1-.07-.06.08.08 0 0 1 .04-.09 2.1 2.1 0 0 0 .65-.46.05.05 0 0 0-.02-.06c-.42-.2-.75-.12-1.22.02-.06.01-.16 0-.3-.04a.04.04 0 0 1-.02-.02v-.04c.15-.33.18-.64.1-.95a.14.14 0 0 1 .05-.14l.05-.04a.07.07 0 0 1 .07-.01.07.07 0 0 1 .04.05 1 1 0 0 0 .23.42Z" fill="#694E3D"/><path d="M13.02 11.98h.24l.7.08c.07 0 .13-.03.16-.1l.06-.04c.02.02.03.04 0 .08-.09.18-.2.35-.32.5l-.57-.2a1.7 1.7 0 0 0-.47 0l-.04-.01a.06.06 0 0 1-.02-.03.7.7 0 0 1-.09-.26l.01-.03a.07.07 0 0 1 .08-.05l.26.06Z" fill="#C7BCB1"/><path d="m13.68 12.74-.18.22a3.54 3.54 0 0 1-1.52-.14l-.02-.02-.09-.18c.23.15.47.22.73.22.32 0 .69-.03 1.08-.1Z" fill="#736157"/><path d="M10.61 13.93c-.44-.24-.9-.38-1.42-.41-.84-.05-1.68-.11-2.52-.19l1.43.07c.12.01.38-.04.5-.1.41-.18.73-.34 1.2-.25.32.06.5.22.64.53l.17.35Z" fill="#694E3D"/><path d="M6.67 13.33c.84.08 1.68.14 2.52.19.51.03.98.17 1.42.41l.32.2-.76-.3a2.5 2.5 0 0 0-1.08-.22c-.65.06-1.07.08-1.26.05-.4-.05-.73-.13-1.14-.08a.5.5 0 0 1-.05-.26l.03.01Z" fill="#736157"/><path d="M10.17 13.82c-.47 0-.8 0-1.16.26-.21.16-.34.25-.38.26-.33.15-.67.11-1-.11-.33-.22-.54-.39-.9-.45a.13.13 0 0 0-.02-.05l-.02-.15c.41-.05.75.03 1.14.08.19.03.6.01 1.26-.05.28-.03.64.04 1.08.21Z" fill="#8A7B72"/><path d="m10.17 13.82.76.3.09.03.49.3-.27.12c-.2-.27-.47-.45-.78-.56h-.03a.05.05 0 0 0-.03.02l-.6.92c-.95.12-1.85.03-2.73-.27l-.14-.24-.14-.29a.1.1 0 0 1-.01-.03l-.05-.34c.36.06.57.23.9.45.33.22.67.26 1 .11.04-.01.17-.1.38-.26.36-.26.69-.27 1.16-.26Z" fill="#9C8B7E"/><path d="M11.24 14.57c-.47.18-.95.3-1.45.38l.61-.92a.05.05 0 0 1 .06-.02c.31.11.57.3.78.56Z" fill="#AB9B8E"/><path d="M12.11 14c.05 0 .1.01.11.05l-.71.4-.5-.3c.21.09.36.11.45.08l.65-.24ZM3.97 7.14l-.03-.01a.03.03 0 0 1-.02-.02.03.03 0 0 1 0-.03c.07-.08.16-.1.28-.05A.03.03 0 0 0 4.24 7l.01-.03a.04.04 0 0 0 0-.04.04.04 0 0 0-.03-.01c-.18-.04-.31.03-.38.2v.04l.04.34a.04.04 0 0 1-.06.04H3.8a.04.04 0 0 1-.02-.04 2.64 2.64 0 0 1-.04-.27.4.4 0 0 1 .18-.34c.11-.08.28-.1.5-.07a.05.05 0 0 1 .03.06l-.01.03a.2.2 0 0 0-.07.09v.04l.03.02.43.15a.05.05 0 0 1 .03.03c.03.07-.03.11-.2.1a.04.04 0 0 1-.03-.03v-.04a.03.03 0 0 0-.04-.05.3.3 0 0 0-.15.13c-.03.04-.08.07-.15.07a.56.56 0 0 1-.36-.1.07.07 0 0 1-.03-.07c0-.01 0-.02.02-.03l.03-.01h.03A.04.04 0 0 0 4 7.17a.04.04 0 0 0-.03-.04ZM8.66 12.6a.04.04 0 0 1 .03.04.04.04 0 0 1-.02.04c-.55.21-.84-.01-1.2-.4a.2.2 0 0 1-.03-.2l.03-.1a.1.1 0 0 1 .15-.03c.29.28.63.5 1.04.66Z" fill="#736157"/></svg>