<!-- by TradingView --><svg xmlns="http://www.w3.org/2000/svg" width="18" height="18"><path fill="#FFE702" d="M0 0h18v18H0z"/><path d="M10.74 11.8l.09-.38c.11-.63.11-1.28-.01-1.9-.04-.2-.01-.38.14-.5.16-.12.32-.1.48-.01.52.3 1.07.5 1.66.57h.09l-.03-.17a6.2 6.2 0 00-1.4-3.24 3.55 3.55 0 00-1.98-1.22 2.27 2.27 0 00-1.67.23c-.51.31-.8.79-.78 1.44.02.66.46 1.21 1.11 1.41l-.7.68a2.5 2.5 0 010-4.34A3 3 0 019.47 4c1.22.08 2.2.7 3 1.65A6.82 6.82 0 0114 9.39l.03.2.19-.02a6.43 6.43 0 00.86-.22l.06-.02c.16-.06.3-.01.36.13.06.15 0 .3-.17.37-.8.38-1.65.54-2.53.45-.24-.02-.47-.06-.71-.1a18.8 18.8 0 00-.35-.07v.7l-.01.08c-.03.29-.1 1.1-.2 1.1h-.83l.04-.18zM5.98 5.68c.2.3.27.61.15.95a.29.29 0 01-.09.11c-.9.79-1.46 1.8-1.65 3.02a4.94 4.94 0 00.16 2.2l.01.05H3.9c-.12 0-.17 0-.21-.03a6.04 6.04 0 01.17-3.6c.4-1.07 1.11-1.99 2.02-2.63l.03-.02.07-.05zM6.91 12h.05c-.09-.37 0-.68.3-.88.25-.17.5-.17.75 0 .3.2.39.52.3.88h.83c.06-.7-.16-1.27-.73-1.62a1.38 1.38 0 00-1.67.09c-.5.37-.68.9-.61 1.53h.78zm6.53-1.52c.23 0 .25.02.22.2-.05.34-.11.67-.18 1-.04.19-.21.33-.38.32-.08 0-.16-.06-.22-.12a.42.42 0 01-.13-.23.55.55 0 010-.2l.1-.5.02-.06.03-.09c.14-.2.34-.31.54-.32zm-2.01-2.3a.45.45 0 00.04-.17.46.46 0 00-.8-.33.47.47 0 000 .65c.09.08.2.13.33.13a.46.46 0 00.43-.27z"/></svg>