<!-- by TradingView --><svg width="18" height="18" viewBox="0 0 18 18" xmlns="http://www.w3.org/2000/svg"><path fill="url(#a)" d="M0 0h18v18H0z"/><path d="m11.1 3.33.26.43a5.99 5.99 0 0 0-4.94.16c.01-.13.05-.26.1-.39a6.27 6.27 0 0 1 4.58-.2Z" fill="#B5227D"/><path d="M13.15 4.5c-.03.11-.08.2-.16.29a5.95 5.95 0 0 0-1.63-1.03l-.26-.43c.77.26 1.45.65 2.05 1.18ZM6.53 3.53c-.06.13-.1.26-.1.4-.32.15-.6.34-.89.54l-.1-.32c.34-.24.7-.45 1.09-.62Z" fill="#85185A"/><path d="M8.1 3.73a.62.62 0 0 1-.22.14c-.83.2-1.57.56-2.23 1.08l-.06-.1c.74-.6 1.58-.96 2.52-1.12Z" fill="#D2CDCD"/><path d="m8.19 11.52.22-.14c.09-.05.16-.1.2-.14.1-.1.17-.21.22-.35.1-.12.16-.25.2-.4l-.01-.02h-.04v-.02l.03-.01h.04l.02.03-.05.18c0 .03 0 .04.03.03l.02-.01c.02 0 .04-.03.05-.06.05-.16.08-.33.09-.52 0-.18-.03-.35-.1-.5a1.65 1.65 0 0 0-.3-.45c-.32-.32-.71-.46-1.17-.43-.13 0-.23.02-.3.03a2.16 2.16 0 0 0-.56.32c-.35.3-.51.7-.47 1.17.01.26.09.48.22.66.21.25.4.48.7.57a107.66 107.66 0 0 0 .57.08 1.9 1.9 0 0 1 .67.65c.27-.44.56-.84.9-1.2a4.92 4.92 0 0 0 .93-1.5c.06-.19.16-.3.3-.48a.8.8 0 0 0 .1-.16.02.02 0 0 1 .02 0c.03.07.04.14.05.2 0 .1-.08.2-.15.28v.01a.01.01 0 0 0 0 .01c.13 0 .2-.06.29-.15.1-.1.21-.18.34-.24a.18.18 0 0 1 .18.02l.02.01c.05.04.05.08 0 .1-.15.09-.27.17-.35.25-.06.05-.05.07.02.05l.3-.08c.12-.03.24-.04.28.07a.06.06 0 0 1 0 .05.06.06 0 0 1-.04.03c-.07.02-.16.02-.23.05-.08.04-.17.1-.2.18v.01a.01.01 0 0 0 .01.01h.01c.18-.04.35-.1.5-.1a.06.06 0 0 1 .05.03.06.06 0 0 1 0 .05c0 .02-.01.04-.04.06-.13.1-.27.13-.44.18a.47.47 0 0 0-.23.15c-.11.13-.2.2-.35.27-.18.08-.32.14-.44.35-.04.07-.07.17-.1.3a20.76 20.76 0 0 1-1.04 2.32c-.1.18-.24.44-.43.5-.12.05-.27-.01-.42-.06a.6.6 0 0 1-.21-.12 9.2 9.2 0 0 1-1.51-1.89l-.22-.4c-.17-.31-.3-.63-.38-.95-.04-.15-.06-.3-.04-.44.05-.45.22-.85.67-1.05.14-.06.3-.1.49-.14l.3-.13a3.79 3.79 0 0 0 1.5-1.37 11.83 11.83 0 0 1 .51-.74c-.25.19-.49.4-.7.67l-.35.4a4.76 4.76 0 0 1-1.32.95c-.14.06-.24.1-.29.1-.3.05-.64.16-.8.44-.02.03-.02.03-.02 0a2.5 2.5 0 0 1 .43-.96c.12-.18.2-.37.27-.58.08-.25.14-.5.2-.76l.28-1.42c.12-.55.39-.99.89-1.29a2.2 2.2 0 0 1 2.62.26c.24.26.4.56.4.91 0 .09-.02.22-.07.4-.06.26-.11.4-.13.6a.5.5 0 0 0 .11.35c.03.04.04.08.03.14-.02.12-.16.17-.27.18-.02 0-.03.01-.02.03l.03.2v.03l-.04.02-.15.02-.02.01-.01.02v.04l.08.07a.04.04 0 0 1 .01.04l-.01.02h-.02l-.2.04a.09.09 0 0 0-.06.03.09.09 0 0 0-.02.06v.13c.03.18-.22.18-.33.16a2.2 2.2 0 0 1-.4-.15c-.11-.05-.25-.07-.3.08a.55.55 0 0 0 .05.48c.15.24.43.3.7.3l.58-.02c.24 0 .45.05.64.16.04.02.04.04-.01.04a.53.53 0 0 0-.2.09c-.02.01-.03 0-.03-.01-.04-.1-.08-.15-.14-.18a.26.26 0 0 0-.25 0 .51.51 0 0 0-.14.17c-.1.15-.23.29-.31.45l-.08.18a4.74 4.74 0 0 1-.8 1.32l-.28.3a8.23 8.23 0 0 0-.53.7l-.01-.01-.24-.22Z" fill="#1B1725"/><path d="M10.66 4.01a.14.14 0 0 1-.1-.06l.04-.11.01-.03.03-.01h.04c.03 0 .04.01.03.04l-.05.17Z" fill="#D2CDCD"/><path d="M10.83 4.19a.27.27 0 0 1-.09-.09l.07-.2c.01-.03.03-.04.06-.03h.03c.03.01.04.03.03.05l-.1.27Z" fill="#BF8DAC"/><path d="m11.1 4.11-.08-.1.02-.05.01-.01h.07l.01.02v.01c0 .05-.01.09-.03.13Z" fill="#fff"/><path d="M9.16 4.02c-.44.3-.83.65-1.18 1.05a1.34 1.34 0 0 0-.33.73c-.08.33-.25.6-.52.84-.04.03-.05.03-.02-.02a2.65 2.65 0 0 0 .26-.9c.02-.1.03-.17.05-.21.16-.46.5-.87.89-1.17.19-.14.4-.25.64-.31.06-.02.14-.02.2-.03.02 0 .03 0 0 .02Z" fill="#B441EC"/><path d="m11.02 4.02.08.1-.12.26a.17.17 0 0 1-.03-.05c.02 0 .01-.02-.03-.06a.66.66 0 0 1 .1-.25Z" fill="#BF8DAC"/><path d="M11.3 4.22c-.03-.02-.05-.05-.07-.1l.03-.08c0-.02.02-.03.04-.01l.03.01.02.03v.02l-.05.13Z" fill="#fff"/><path d="m11.54 4.14-.03-.02a.04.04 0 0 0-.05.02l-.2.42c-.02.02 0 .04.01.05l.03.01c.02.01.05 0 .06-.02l.2-.4a.04.04 0 0 0-.02-.06Z" fill="#BF8DAC"/><path d="M9.91 4.14c-.41.27-.74.5-1.05.83-.13.14-.22.33-.36.46a1.91 1.91 0 0 1-.72.42h-.01v-.02c.33-.72.93-1.39 1.71-1.63.15-.04.29-.07.43-.07.01 0 .01 0 0 0Z" fill="#B441EC"/><path d="M11.23 4.12c.02.05.04.08.07.1l-.14.3c0 .01-.02.02-.03.01-.04-.02-.05-.04-.04-.08.02-.11.07-.23.14-.33Z" fill="#AF309C"/><path d="m5.44 4.15.1.32A6.25 6.25 0 0 0 3.86 6.4a5.94 5.94 0 0 0-.41.95.5.5 0 0 1-.31 0c.05-.17.1-.35.17-.52.45-1.1 1.16-2 2.13-2.7Z" fill="#440A2D"/><path d="m11.76 4.24-.05-.02c-.01 0-.04 0-.04.02l-.24.41c0 .02 0 .04.02.05l.04.02c.02.01.04 0 .05-.01l.23-.42-.01-.05Z" fill="#BF8DAC"/><path d="M7.34 4.29c-.02.07-.05.12-.09.14-.43.17-.83.39-1.2.66a.31.31 0 0 1-.07-.1c.41-.3.87-.54 1.36-.7Z" fill="#E5DDEE"/><path d="m11.95 4.36-.03-.03a.04.04 0 0 0-.05.02l-.25.4c0 .01 0 .04.02.05l.03.02.05-.01.25-.4a.04.04 0 0 0-.02-.05Z" fill="#BF8DAC"/><path d="M9.44 5.31c-.3.42-.83.66-1.23.9a5.06 5.06 0 0 0-1.33 1.46c.04-.2.1-.39.2-.54a5.54 5.54 0 0 1 1.74-1.67l.17-.15c.15-.14.3-.34.4-.46.14-.15.23-.24.28-.27a.72.72 0 0 1 .6-.1c-.2.12-.37.26-.53.43-.11.12-.2.25-.3.4Z" fill="#B441EC"/><path d="m12.15 4.48-.04-.02a.04.04 0 0 0-.05 0l-.26.4c-.01.02 0 .04.01.05l.04.02c.01.01.04 0 .05-.01l.26-.39a.04.04 0 0 0-.01-.05Z" fill="#BF8DAC"/><path d="M13.15 4.5c.9.8 1.52 1.75 1.85 2.87l-.28.01a.04.04 0 0 1-.04-.02 5.95 5.95 0 0 0-1.69-2.57.71.71 0 0 0 .16-.28Z" fill="#440A2D"/><path d="m12.33 4.6-.02-.01a.05.05 0 0 0-.06 0l-.27.38a.04.04 0 0 0 .01.06l.02.01c.02.02.05.01.06 0l.27-.38a.04.04 0 0 0 0-.06Z" fill="#BF8DAC"/><path d="M8.18 6.37c.39-.2.76-.4 1.13-.65.17-.11.34-.26.48-.41.16-.19.3-.38.45-.6.04-.05.05-.05.04.02-.13.54-.6.94-1.08 1.2a5.9 5.9 0 0 1-1.02.45v-.01Z" fill="#B441EC"/><path d="M6.74 8.44a9.09 9.09 0 0 0 .86-.92c.07-.1.13-.23.18-.32.09-.17.26-.31.4-.43.4-.3.87-.58 1.3-.83.28-.16.48-.29.58-.39.24-.22.4-.5.48-.83.01-.05.02-.05.03 0 .06.36-.13.74-.38 1-.3.3-.64.55-1.05.74-.27.13-.52.17-.7.44l-.2.29c-.28.38-.6.7-.97.98a1.84 1.84 0 0 1-.53.27Z" fill="#B441EC"/><path d="m12.53 4.75.01.02v.01l-.24.3a.49.49 0 0 1-.08.08.12.12 0 0 1-.03.01h-.01l-.03-.02V5.1a.5.5 0 0 1 .05-.09l.25-.3a.02.02 0 0 1 .02 0h.01l.05.04ZM12.36 5.3l-.05-.03h-.01v-.04l.33-.38a.03.03 0 0 1 .03 0l.05.05a.02.02 0 0 1 0 .03l-.32.38a.03.03 0 0 1-.03 0Z" fill="#BF8DAC"/><path d="m5.6 4.85.05.1-.24.2a5.26 5.26 0 0 0-1.7 3.14H3.65c-.02 0-.03 0-.03-.02.11-.75.36-1.43.76-2.05.33-.52.74-.97 1.22-1.37Z" fill="#B8B7BB"/><path d="m6.97 4.98-.1.4c-.48.27-.88.61-1.22 1.03l-.15-.29c.4-.47.9-.85 1.47-1.14Z" fill="#A6A2A5"/><path d="m5.98 5 .06.09a4.88 4.88 0 0 0-1.96 3.2h-.1a.01.01 0 0 1 0-.01c.2-1.32.92-2.47 2-3.28Z" fill="#B8B7BB"/><path d="m12.87 5.03-.02-.02a.04.04 0 0 0-.06 0l-.32.34a.04.04 0 0 0 0 .06l.02.02c.02.02.05.01.06 0l.32-.34a.04.04 0 0 0 0-.06Z" fill="#BF8DAC"/><path d="m12.96 6.55-.04.52a4.34 4.34 0 0 0-1.63-1.69v-.33h.02c.68.37 1.23.87 1.65 1.5Z" fill="#949098"/><path d="M13.05 5.2a.02.02 0 0 1 0 .04l-.33.32-.02.01-.03.01h-.04v-.02c-.02 0-.02-.02-.02-.04a.1.1 0 0 1 .03-.04l.33-.32a.03.03 0 0 1 .03 0l.05.04ZM13.11 5.33l-.35.31a.04.04 0 0 0 0 .07l.02.02h.06l.35-.31a.04.04 0 0 0 0-.07l-.01-.02a.04.04 0 0 0-.07 0Z" fill="#BF8DAC"/><path d="M12.92 7.07c.12.22.22.46.3.72-.26-.25-.4-.43-.7-.77-.2-.25-.41-.48-.64-.66l-.69-.56.1-.42a4.34 4.34 0 0 1 1.63 1.69ZM6.86 5.37l-.13.69c-.3.16-.57.37-.8.61-.41.43-.7.86-1.06 1.29a4.15 4.15 0 0 1 2-2.59Z" fill="#0C0411"/><path d="M13.36 5.54v.04l-.33.27a.2.2 0 0 1-.04.02.14.14 0 0 1-.03.01h-.05v-.06c0-.02.02-.04.04-.06l.33-.27a.03.03 0 0 1 .03 0l.05.05ZM13.41 5.67l-.36.28a.04.04 0 0 0-.01.06l.02.02c.01.02.04.02.06 0l.36-.27a.04.04 0 0 0 .01-.06l-.02-.02a.04.04 0 0 0-.06 0Z" fill="#BF8DAC"/><path d="m11.19 5.8.7.56c.22.18.43.4.63.66.3.34.44.52.7.77a4.4 4.4 0 0 1 .2 1.01.2.2 0 0 0 .1 0c.11.05.2.12.27.22 0 .19.09.33.24.44l.17.38-.18-.02v.09l.26.06a.14.14 0 0 0-.09.08l-.2-.03a.03.03 0 0 0-.02.02v.05c0 .01 0 .02.02.03l.18.05c-.04.01-.07.04-.08.07l-.13-.02c-.01 0-.02 0-.03.02-.02.01-.02.03-.01.05l.02.02.28.1a.41.41 0 0 0-.12.06l-.2-.05h-.02l-.02.02v.01l-.01.02a.04.04 0 0 0 .01.03l.02.01.34.12h-.11c-.02 0-.02 0-.02.02s.01.03.03.05l-.27-.09c-.03 0-.05 0-.05.03l-.01.02c0 .03 0 .04.03.05l.23.08.25.08c.1.04.2.04.3 0a5.5 5.5 0 0 1-1.25 2.04l-.1-.3.03-.07v-.03l-.13-.1a.16.16 0 0 1 .1-.06l.1.08c.01.02.03.02.04 0l.04-.05c.02-.02.01-.03 0-.04l-.2-.15a.16.16 0 0 1 .12-.04l.14.1c.01.02.03.01.04 0l.04-.05c.02-.02.01-.03 0-.04l-.17-.1a.33.33 0 0 1 .09-.09l.12.1.06-.01.03-.03c.02-.03.01-.05-.01-.06l-.4-.24.1-.07.35.22c.02.01.04 0 .06-.01l.02-.03c.03-.03.02-.05 0-.06l-.3-.17a.3.3 0 0 1 .12-.05l.22.12c.03.02.05.01.06-.01l.02-.03c.01-.03 0-.05-.02-.06l-.24-.13a.23.23 0 0 1 .1-.07l.2.11c.02.01.03 0 .05-.01l.02-.04c.01-.02 0-.04-.02-.06l-.41-.2c0-.03.02-.06.04-.09l.41.2c.03.01.04 0 .06-.02l.02-.04c.01-.02 0-.04-.02-.05L13.7 11l.03-.1.45.19c.03 0 .05 0 .05-.03l.02-.03c0-.03 0-.05-.04-.06l-.4-.15c-.04-.02-.08 0-.1.04l-.2-.5a4.06 4.06 0 0 0 .19-1.12h-.28v.01c-.02.3-.07.59-.16.88-.06-.43-.14-.87-.23-1.3a3.98 3.98 0 0 0-1.23-2.19l-.66-.6.06-.24Z" fill="#1C0B2A"/><path d="M13.77 6.1v.01l-.38.24a.15.15 0 0 1-.07.03c-.02 0-.04 0-.04-.02l-.01-.02V6.3l.03-.03.03-.02.37-.24a.01.01 0 0 1 .02 0l.05.08Z" fill="#BF8DAC"/><path d="m6.73 6.06-.13.63a2.9 2.9 0 0 0-.72.69c-.2.25-.37.53-.52.82-.25.48-.35 1-.57 1.5l-.05-.46c0-.02-.01-.03-.03-.03h-.25c-.02 0-.03 0-.03.03.02.3.07.6.14.9-.12.19-.19.39-.2.61-.12-.3-.2-.6-.26-.9 0-.03-.02-.04-.04-.04h-.05c-.02 0-.03.01-.02.03a4.95 4.95 0 0 0 1.26 2.53l-.19.18a5.14 5.14 0 0 1-1.36-2.73h-.07c-.01 0-.02 0-.01.01.15.96.54 1.82 1.17 2.57l-.11.4a5.81 5.81 0 0 1-1.24-2.13.1.1 0 0 0-.05-.02.7.7 0 0 0-.26.01L3 10.08c.07-.13.1-.25.12-.37.03-.26.08-.5.15-.73 0 .16.04.3.15.4.24.24.65.2.83-.08.06-.09.09-.2.08-.32 0-.19-.1-.33-.28-.43a5 5 0 0 1 .23-.38c.06-.1.14-.2.26-.15a4.71 4.71 0 0 0-.09.76h.27l.02-.01a4 4 0 0 1 .13-.81c.36-.43.65-.86 1.06-1.29.23-.24.5-.45.8-.61Z" fill="#1C0B2A"/><path d="m11.13 6.04.66.61c.35.32.62.66.81 1 .19.34.33.74.42 1.19.1.42.17.86.23 1.3a4 4 0 0 1-.31.8l-.29.46.17-1.68a4.35 4.35 0 0 0-1.59-3 .54.54 0 0 0-.11-.3c-.07-.1-.02-.29 0-.38Z" fill="#43144C"/><path d="m5.5 6.12.15.3a4.15 4.15 0 0 0-.93 2.36h-.27c-.01 0-.02 0-.01-.01A4.48 4.48 0 0 1 5.5 6.12Z" fill="#D2CDCD"/><path d="m13.8 6.23-.4.23a.05.05 0 0 0-.01.06l.01.02c.01.02.04.03.06.01l.4-.23a.05.05 0 0 0 .01-.06v-.02a.05.05 0 0 0-.07-.01ZM13.98 6.45c.01.02.02.04.01.05l-.01.02-.42.21h-.04a.07.07 0 0 1-.04-.07c0-.02.01-.02.03-.03l.41-.21h.02c.02 0 .03 0 .04.03Z" fill="#BF8DAC"/><path d="M13.52 8.8a.2.2 0 0 1-.1 0l-.02-.02a4.4 4.4 0 0 0-.48-1.71l.04-.52a4.27 4.27 0 0 1 .73 2.25.55.55 0 0 1-.17 0Z" fill="#B8B7BB"/><path d="m14.02 6.62-.4.19a.04.04 0 0 0-.03.06l.01.02c.01.03.04.03.07.02l.4-.2a.04.04 0 0 0 .02-.05v-.02a.05.05 0 0 0-.07-.02Z" fill="#BF8DAC"/><path d="m6.6 6.69-.11.46c-.32.28-.57.6-.76.96l-.3.61c-.18.38-.2.82-.18 1.22l.03 1.12a4 4 0 0 1-.49-1.35c.22-.5.32-1.03.57-1.5.15-.3.32-.58.52-.83.2-.27.44-.5.72-.7Z" fill="#43144C"/><path d="M12.82 9.72c-.05.24-.1.48-.17.71-.05.2-.11.37-.2.53a.84.84 0 0 1-.24.3.02.02 0 0 1-.02-.01 10.23 10.23 0 0 0 .1-.9c-.01-.04-.02-.05-.04-.02a3.58 3.58 0 0 1-.57 1.16l.05-.32c.18-.31.3-.62.34-.93.06-.33.06-.69.02-1.08a3.17 3.17 0 0 0-.58-1.53l-.44-.59c.1-.08.16-.19.16-.32l.26.24a4.35 4.35 0 0 1 1.33 2.76Z" fill="#6D1F72"/><path d="M14.2 6.88a.02.02 0 0 1 0 .02.02.02 0 0 1-.02.02l-.38.16a.22.22 0 0 1-.08.01c-.02 0-.04 0-.05-.02 0-.02 0-.04.02-.05a.22.22 0 0 1 .07-.05l.38-.16a.03.03 0 0 1 .02 0v.02l.04.05ZM14.28 7.1a.02.02 0 0 1 0 .01.03.03 0 0 1-.01.02l-.41.15h-.1l-.02-.02v-.03l.01-.02.03-.02.03-.02.41-.15h.02l.02.01.02.06Z" fill="#BF8DAC"/><path d="M11.07 7.04c.07.08.22.28.44.6.32.43.51.94.58 1.52.04.4.04.75-.02 1.08-.05.31-.16.62-.34.93a11.4 11.4 0 0 0 .2-1.23.43.43 0 0 0 .08-.12c.08-.14.04-.22-.03-.34a.38.38 0 0 1-.04-.1.54.54 0 0 0-.07-.18.87.87 0 0 1-.08-.15 1.21 1.21 0 0 0-.31-.46c-.18-.38-.41-.73-.69-1.06.08-.11.13-.23.16-.35 0-.03.02-.06.04-.08a.45.45 0 0 1 .08-.06Z" fill="#94288A"/><path d="M6.49 7.15c-.06.3-.16.58-.31.83l-.22.37c-.18.39-.27.8-.27 1.22l.01.64.03.19c.07.29.17.57.3.85a18.28 18.28 0 0 0 .57 1.03l.26.37a4.23 4.23 0 0 1-1.58-1.6l-.03-1.1c-.01-.41 0-.85.18-1.23l.3-.6c.19-.37.44-.7.76-.97Z" fill="#521C68"/><path d="m14.3 7.23-.45.15a.04.04 0 0 0-.03.05l.02.03c0 .02.02.03.04.03l.45-.15c.02 0 .03-.03.02-.05v-.03a.04.04 0 0 0-.06-.03ZM14.42 7.53v.02h-.01l-.4.11a.3.3 0 0 1-.09.01h-.02l-.01-.02-.01-.03.02-.04a.25.25 0 0 1 .07-.03l.4-.1a.02.02 0 0 1 .03 0l.02.08Z" fill="#BF8DAC"/><path d="M10.8 7.53c.27.33.5.68.68 1.06-.2-.17-.45-.26-.72-.28a3 3 0 0 0-.44 0c-.18 0-.36 0-.53-.02-.16-.02-.35-.15-.33-.32a.03.03 0 0 1 .01-.02.03.03 0 0 1 .03 0c.27.12.52.22.8.1a.34.34 0 0 0 .22-.26 1.29 1.29 0 0 1 .03-.1l.02-.01c.11-.02.19-.07.22-.15Z" fill="#C233A8"/><path d="m14 7.97.5-.09a.02.02 0 0 1 .02.02l.01.06c0 .02 0 .03-.02.04l-.49.08c-.02 0-.03 0-.03-.02v-.08a.03.03 0 0 1 .02-.01ZM14 8.23v-.01c0-.02 0-.03.02-.04l.03-.01.48-.07c.02 0 .03 0 .03.02v.06c.01.02 0 .03-.02.04a5.75 5.75 0 0 0-.48.08c-.05 0-.07-.02-.06-.07Z" fill="#BF8DAC"/><path d="M14.03 9.46a.51.51 0 0 1-.24-.44c0-.23.11-.4.32-.48a.6.6 0 0 1 .5.04c.18.11.26.28.24.5-.01.1-.04.19-.1.26a.56.56 0 0 1-.72.12Z" fill="#D2CDCD"/><path d="M4.3 9.01a.47.47 0 0 1-.15.34.5.5 0 0 1-.35.14.5.5 0 0 1-.35-.14.48.48 0 0 1 .16-.78.5.5 0 0 1 .54.1.48.48 0 0 1 .15.34ZM14.82 9.02c0 .13-.05.25-.14.34a.5.5 0 0 1-.81-.16.47.47 0 0 1 .1-.52.5.5 0 0 1 .36-.15.5.5 0 0 1 .35.15.48.48 0 0 1 .14.34Z" fill="#0C0411"/><path d="M3.8 9.34c.19 0 .34-.15.34-.33a.33.33 0 0 0-.34-.32.33.33 0 0 0-.33.32c0 .18.15.33.33.33Z" fill="#D2CDCD"/><path d="M14.32 9.35c.19 0 .34-.15.34-.33a.33.33 0 0 0-.34-.33.33.33 0 0 0-.33.33c0 .18.15.33.33.33Z" fill="#CABFCD"/><path d="M8.98 10.48c-.12.35-.34.6-.66.75a.2.2 0 0 1-.1-.01.7.7 0 0 1 .1-.06.4.4 0 0 0 .1-.05c.14-.11.27-.24.39-.39a.2.2 0 0 0 .03-.09l.01-.03a.1.1 0 0 0 .03-.09l.01-.03a.24.24 0 0 0 .05-.1.07.07 0 0 1-.01-.05v-.03H8.9l-.07-.01c-.02-.02-.02-.03 0-.03l.1-.01.05-.03a.08.08 0 0 0 .02-.06v-.07a.1.1 0 0 0-.05-.08.11.11 0 0 0-.1 0L8.83 10 8.8 10l-.01.05h-.02l-.03-.21c0-.03 0-.04.03-.02l.07.1c0 .01 0 .02.02.03h.04c.02 0 .03 0 .03-.02V9.9a.14.14 0 0 1-.01-.09l-.17-.17h-.01a.15.15 0 0 0-.06-.06.02.02 0 0 1-.02-.03l.02-.02c.05.06.1.12.15.15.05.04.06.04.03-.02l-.04-.05a.85.85 0 0 0-.43-.46.32.32 0 0 0-.11-.07h-.01l.2.2c-.01 0-.02 0-.03.02h-.02l-.1-.1c0-.02-.02-.05-.06-.07a.06.06 0 0 1-.03-.02c-.02-.04-.07-.1-.12-.1-.02 0-.02 0 0 .01l.11.13-.11.05c-.2-.05-.4-.06-.6-.02a.45.45 0 0 0-.18.07l-.18.1a.12.12 0 0 0-.04.03c-.02.03-.06.04-.09.07l-.07.1-.08-.05c.21-.27.5-.41.84-.44v-.02H7.7c-.41.03-.72.22-.93.56h-.02a.02.02 0 0 1-.01 0l-.01-.02c.2-.35.52-.54.94-.6v-.01a1.2 1.2 0 0 0-1.1.99c-.08.1-.12.25-.1.43l.06.51c-.13-.18-.2-.4-.22-.66-.04-.48.12-.87.47-1.17a2.16 2.16 0 0 1 .56-.32l.3-.03c.46-.03.85.11 1.16.43.12.13.22.28.3.45.08.15.11.32.1.5 0 .19-.03.36-.08.52-.01.03-.03.05-.05.06h-.02c-.03.02-.04 0-.03-.02l.05-.18c0-.01 0-.02-.02-.02l-.04-.01-.02.01-.01.03Z" fill="#0C0411"/><path d="m8.07 8.92-.18-.04a.6.6 0 0 0-.19 0l-.16.02a1.32 1.32 0 0 0-.62.27 2.15 2.15 0 0 0-.33.42.65.65 0 0 0-.05.14c0 .02-.02.02-.03.03h-.03c0-.04.02-.08.03-.11.13-.31.35-.54.65-.7.2-.09.38-.13.57-.13l.24.02c.1.01.17.03.24.06l.24.1a1.25 1.25 0 0 1 .33.28v.03c.12.13.2.27.24.43L9 9.75h-.02a14.32 14.32 0 0 0-.14-.29c-.11-.16-.25-.3-.41-.4-.08-.05-.17-.08-.25-.11a.32.32 0 0 0-.1-.03Z" fill="#521C68"/><path d="m6.73 9.57-.16.38c.04-.28.17-.52.4-.7a1.2 1.2 0 0 1 .7-.3v.02c-.42.06-.73.25-.94.6Z" fill="#949098"/><path d="M8.1 9.07v.01l-.03.01h-.04l-.02-.03A.08.08 0 0 1 7.99 9L8 8.98h.01l.09.1ZM6.87 9.49a1.11 1.11 0 0 0-.2.47h-.03c.02-.13.07-.25.13-.37a1.15 1.15 0 0 1 .94-.56v.02c-.35.03-.63.17-.84.44Z" fill="#AF309C"/><path d="m8.39 9.14.1.12.1.11c.06.09.14.16.23.23l.04.05c.03.06.02.06-.03.02a.78.78 0 0 1-.15-.15l-.21-.25-.2-.2c-.01 0 0 0 0 0 .05.01.08.04.12.07Z" fill="#94288A"/><path d="m8.22 9.14.1.06.1.09h.02c0-.02.02-.02.03-.02l.2.25v.05c.04.02.06.04.07.06v.04l.08.1c.04.05.07.06.1.03v.1a.1.1 0 0 1-.07-.02h-.01c0 .05.02.07.06.07h-.04a.04.04 0 0 1-.02-.02.26.26 0 0 0-.07-.1c-.02-.02-.03-.01-.03.02l.03.2c0 .02 0 .02.02.01v-.05c0-.01.01-.02.03-.01h.05a.12.12 0 0 1 .09.02.1.1 0 0 1 .04.07v.07l-.01.06a.09.09 0 0 1-.06.03l-.08.01c-.03 0-.03.01-.01.03h.07c-.04 0-.06.02-.07.04v.03h.01a.13.13 0 0 1 .08-.03v.05a.32.32 0 0 0-.2.26c0 .01 0 .02-.02.03a1 1 0 0 1-.05.05.33.33 0 0 0-.06.08c-.03.06-.14.14-.19.18a.56.56 0 0 1-.14.08l-.12.05a.2.2 0 0 0-.06.05 1.76 1.76 0 0 0-.05.08v.01a.02.02 0 0 0 .03.01c.01 0 .02 0 .03-.02a.1.1 0 0 1 .03-.02H8.22a.2.2 0 0 0 .1.01c-.43.2-.83.19-1.23-.04-.02-.01-.02 0 0 .01a.2.2 0 0 0 .04.05c.02.01.01.01 0 .01l-.06-.01a.5.5 0 0 1-.21-.14c.03-.01.07 0 .1.04l.02.02h.08c.02 0 .02 0 0 0l-.15-.1h-.02a.2.2 0 0 1-.14-.1.1.1 0 0 0-.05-.05c0-.02-.01-.03-.02-.03l.02-.07c.04.09.11.16.21.21.02.02.03.01.02-.01v-.03a1.25 1.25 0 0 0 .62.29v-.01l.02-.01a.01.01 0 0 0 0-.02h-.01a1.13 1.13 0 0 1-.58-.26c.02 0 .03 0 .03-.02.09.05.18.13.26.16.11.05.24.08.37.1.02 0 .03 0 .02-.02v-.01c0-.02-.02-.03-.04-.03l-.14-.01a1.06 1.06 0 0 1-.58-.36l.06-.04.04.03c.07.08.14.14.2.18.05.04.06.03.02-.02a.43.43 0 0 0-.1-.1H7.1l.01-.02h.01a6.07 6.07 0 0 0 .13.07c-.03 0-.03 0-.01.02l.03.02h-.01v.03c.09.09.2.14.33.14.02 0 .02 0 0-.02l-.08-.03v-.02c.13.02.26.02.39 0l.03-.01c.04-.05.1-.07.16-.08h.03a.82.82 0 0 0 .17-.25l.06-.1.03-.1v.07l-.06.16a.48.48 0 0 0-.04.13c0 .02 0 .03.02 0 .04-.02.06-.08.06-.15l.03-.04h.01l.01.06c0 .02.01.02.02.02h.04l.02-.03v-.1a19.5 19.5 0 0 1 .05-.5l.04.19a.94.94 0 0 1 .01.09 3.71 3.71 0 0 0 0-.33h.02a11.23 11.23 0 0 0 .03.3l.08-.2-.1-.1.05-.05c.07.1.09.08.07-.08l-.03-.08V9.75l-.02-.01a1.29 1.29 0 0 0-.27-.35.46.46 0 0 0-.1-.07.35.35 0 0 1-.1-.08l-.02-.01a.17.17 0 0 1-.1-.04l.1-.05Z" fill="#491D72"/><path d="m8.1 9.19.1.04.04.01c.03.04.06.06.1.08l.1.07a1.29 1.29 0 0 1 .27.36.4.4 0 0 0 .01 0V9.86l.03.08c.02.16 0 .19-.07.08l-.02-.12a.2.2 0 0 0-.05-.13l-.01-.03a.2.2 0 0 0-.02-.07l-.04-.04a.13.13 0 0 1-.03-.06.04.04 0 0 0-.02-.02h-.02l-.02-.04a.36.36 0 0 0-.14-.12.94.94 0 0 0-.77-.15.92.92 0 0 1-.16.05.43.43 0 0 0-.18.1c-.08.06-.15.13-.21.2a.3.3 0 0 0-.04.08c-.01.05 0 .06.04.02.04-.04.1-.09.17-.13l-.2.2-.06.01v-.02h-.02a.67.67 0 0 0-.06.18.6.6 0 0 1-.02.15l-.02.02h-.02l-.01-.03.01-.14a1.66 1.66 0 0 1 .26-.48l.1-.07a.12.12 0 0 1 .03-.04c.08-.03.14-.07.18-.1a.45.45 0 0 1 .18-.06c.2-.04.4-.03.6.02Z" fill="#521C68"/><path d="M8.82 9.6c-.1-.07-.17-.14-.23-.23a1.36 1.36 0 0 0-.1-.11 1.45 1.45 0 0 1-.1-.12c.2.1.34.25.43.46Z" fill="#6D1F72"/><path d="M4.8 9.7a4.17 4.17 0 0 0 1.42 2.49l.04.43-.32-.26a4.54 4.54 0 0 1-1.51-3.12c0-.02 0-.03.03-.03h.25c.02 0 .03 0 .03.03l.05.47Z" fill="#CABFCD"/><path d="M13.5 10.36c-.12.38-.29.74-.51 1.08l-.05-.5a4.01 4.01 0 0 0 .47-1.7h.28l.01.01c-.01.37-.08.74-.2 1.1Z" fill="#B8B7BB"/><path d="m8.13 9.4.22.07h.02v-.03c-.04 0-.05-.03-.06-.06.06.03.1.07.14.12l.02.03.02.01.02.02c0 .03.02.05.03.06l.04.04a.2.2 0 0 1 .02.07l.01.03a.2.2 0 0 1 .05.13c-.03.14-.04.28-.03.43h.02l.01-.01.03-.15h.04l-.08.2h-.02a11.23 11.23 0 0 1-.02-.3H8.6a3.71 3.71 0 0 1 0 .24l-.04-.25c.03-.05.04-.1.05-.15l-.17-.29a.01.01 0 0 0-.02 0v.03c.02.02.02.02 0 0l-.04-.02a.75.75 0 0 0-.37-.22 1.15 1.15 0 0 0-.53 0v-.01c.2-.04.38-.04.57 0h.08Z" fill="#0C0411"/><path d="M8.01 9.4c.15.04.28.11.37.22l-.04-.02c-.28-.2-.56-.22-.9-.17.19-.05.38-.06.57-.03Z" fill="#440A2D"/><path d="m8.34 9.6.1.14a.89.89 0 0 0-.84-.31l-.33.1-.1.05c-.1.1-.17.18-.2.25-.05.12-.11.23-.18.33-.05.04-.06.1-.02.22.02.08.04.15.09.22h.02a.23.23 0 0 1-.03-.08c0-.04 0-.05.02 0l.05.09c-.05 0-.04.05.04.14l-.06.04a1.08 1.08 0 0 1-.23-.49h-.03c.05.27.18.48.37.66 0 .01 0 .02-.03.02a1.2 1.2 0 0 1-.4-.68l-.01.01v.04l-.06.14c-.02.06 0 .14.05.23v.02c0 .02 0 .05.02.07h.01v-.04h.01l.08.12s.02.01.02.03c.07.17.19.3.34.42.13.08.25.13.37.15a3.9 3.9 0 0 1-.18-.03c-.3-.1-.49-.32-.7-.57l-.06-.5c-.02-.2.02-.34.1-.44l.16-.38v.01a.02.02 0 0 0 .02.01h.02c-.06.12-.1.24-.13.36v.02h.02v-.01c.04-.17.1-.33.21-.47l.08.04c-.08.12-.14.25-.19.4l-.01.13.01.03h.02l.02-.02a.6.6 0 0 0 .02-.15c0-.04.03-.1.06-.18h.01v.02h.01c.04 0 .06-.01.07-.02.03-.03.1-.09.19-.2h.04l.24-.11c.34-.05.62-.03.9.17Z" fill="#1C0B2A"/><path d="M8.44 9.74c.07.1.11.2.12.31l.03.25-.04-.2-.16-.28a.65.65 0 0 0-.34-.28.89.89 0 0 0-.6.03c-.18.08-.3.18-.35.32l-.08.22-.05.04c.04-.23.15-.4.32-.54l.03-.03a.2.2 0 0 1 .1-.08l.18-.07c.35-.05.63.06.84.31Z" fill="#5A1656"/><path d="m7.6 9.43-.18.07a.2.2 0 0 0-.1.08l-.03.03a.85.85 0 0 0-.32.54l-.02.16-.02-.06-.02.05-.1-.03c.07-.09.1-.19.13-.3.1-.16.2-.31.33-.44l.33-.1Z" fill="#43144C"/><path d="M8.05 9.54c.14.05.25.14.34.28l-.08-.1H8.3a1.5 1.5 0 0 0 .05.15 2.17 2.17 0 0 1 0 .04c.05.12.08.23.09.36a.85.85 0 0 0-.06-.21v.01c0 .02-.01.02-.02 0a2.52 2.52 0 0 0-.1-.14l.06.22-.07.41-.1.16-.01-.32a.03.03 0 0 0-.02-.02.03.03 0 0 0-.03 0 .8.8 0 0 1-.46.05l-.01-.02.03-.3v-.02a.02.02 0 0 0-.03 0c-.14.1-.18.23-.13.38a.01.01 0 0 1 0 .01.01.01 0 0 1-.01.01h-.01c-.01 0-.02 0-.02.02l.01.03c0 .05-.01.05-.02 0l-.02-.14c0-.04-.02-.04-.03 0l-.04.12c0 .01 0 .01 0 0h-.01l-.01.03H7.3a.7.7 0 0 0-.12-.22v-.01c0 .1.01.2.04.3-.04-.13-.08-.2-.13-.24a.4.4 0 0 1-.03-.15c0-.03 0-.08.02-.14a.65.65 0 0 0 .02-.2c.05-.14.17-.24.35-.32a1.13 1.13 0 0 1 .47-.04v-.01l-.42.03v.03c.18-.03.35-.03.51 0 .01 0 .02 0 0-.02a.1.1 0 0 0-.06-.02.5.5 0 0 0 .1 0Z" fill="#C233A8"/><path d="M7.17 9.58c-.1.12-.18.25-.23.4-.02.1-.06.2-.13.3 0-.06 0-.1-.02-.12.07-.1.13-.21.18-.33.03-.07.1-.15.2-.25Z" fill="#391558"/><path d="m8.38 9.62.23.28c-.01.06-.02.1-.05.15a.59.59 0 0 0-.12-.31l-.1-.14.04.02Z" fill="#43144C"/><path d="M8.92 9.8c-.03.03-.06.02-.1-.03a.68.68 0 0 1-.08-.1v-.04h.01l.17.17Z" fill="#AF309C"/><path d="m8.39 9.82.16.29c0 .07 0 .14-.02.22l-.04.29v.1l-.01.01h-.06v-.06H8.4l-.03.03.02-.14v-.07l.05-.22a1.18 1.18 0 0 0-.1-.36v-.03a2.17 2.17 0 0 0 0-.02 1.5 1.5 0 0 1-.04-.14l.09.1Z" fill="#6D1F72"/><path d="M12.65 11.4c-.33.47-.74.86-1.23 1.17l.26-1.09a3.58 3.58 0 0 0 .54-1.09.24.24 0 0 1 .03-.06c.02-.03.03-.02.03 0v.18a10.3 10.3 0 0 1-.1.74h.01l.01.01h.02c.1-.08.18-.18.24-.3.08-.16.14-.33.2-.53l.16-.7-.17 1.67Z" fill="#491D72"/><path d="M5.07 12.55c.2.2.4.4.63.57l-.05.1a5.45 5.45 0 0 1-2.02-3.39l.01-.01h.08s.02 0 .02.02a5.14 5.14 0 0 0 1.33 2.7Z" fill="#B8B7BB"/><path d="M4.36 10.75c.34.86.88 1.58 1.63 2.14.47.36 1 .64 1.58.82l.01.11a5.06 5.06 0 0 1-3.56-4h.05c.02 0 .04 0 .04.03.05.3.14.6.25.9Z" fill="#CABFCD"/><path d="m14.2 9.84.33.05a.02.02 0 0 1 .02.03v.07c0 .01 0 .02-.02.02l-.25-.04-.26-.06v-.09l.18.02Z" fill="#CA92BE"/><path d="m7.09 10.38.06.33a.04.04 0 0 1-.01.04.04.04 0 0 1-.04 0 .23.23 0 0 1-.1-.03H7l.01.06c-.02 0-.04-.02-.04-.03-.08-.1-.09-.14-.04-.14l.1.1c.04.03.05.02.04-.03L7 10.45l.02-.34.08-.22c0 .06 0 .13-.02.2a.68.68 0 0 0-.02.14c0 .06 0 .11.03.15Z" fill="#6D1F72"/><path d="M8.92 9.9c.02.01.02.03.02.04 0 .01-.02.02-.04.01-.04 0-.06-.02-.06-.07h.01a.1.1 0 0 0 .07.01Z" fill="#AF309C"/><path d="m8.44 10.27-.05.22-.03.1-.04-.44-.05-.22c-.01 0-.01 0 0 0l.09.14c0 .02.01.02.01 0v-.01h.01l.06.2Z" fill="#94288A"/><path d="m14.2 10.05.29.06c.02 0 .03.02.02.04l-.01.06c0 .02-.02.03-.04.02l-.29-.06-.18-.05c-.02 0-.02-.02-.02-.03v-.04a.02.02 0 0 1 0-.02H14l.2.02Z" fill="#BF8DAC"/><path d="M6.54 10.13c.01.04.04.06.08.06.03 0 .05-.04.05-.08a.07.07 0 0 0-.08-.05.06.06 0 0 0-.05.07ZM8.94 10.08a.05.05 0 0 1 .03.03.05.05 0 0 1-.01.04l-.02.03-.03.01c-.03 0-.05-.01-.07-.05a.05.05 0 0 1 0-.04c.03-.04.06-.05.1-.02ZM8.14 10.72c-.16.32-.55.32-.75.04l-.1-.22.02.02h.02v-.04h.02l.04-.13c.01-.03.02-.03.03 0l.02.15c0 .05.02.05.02 0v-.05h.02a.01.01 0 0 0 .01-.01c-.05-.16-.01-.28.13-.4h.02a.02.02 0 0 1 .01.02l-.03.31v.01h.01a.8.8 0 0 0 .48-.05h.01l.01.02v.01l.01.32Z" fill="#B441EC"/><path d="M9.73 15H8.37l-.74-.13c-.02 0-.02-.01-.02-.03.18-.33.25-.7.22-1.09h.01c.1.08.2.17.3.21l.3.1c.28.07.5 0 .68-.23.1-.13.2-.27.27-.42a21.6 21.6 0 0 0 1.03-2.28c.04-.16.06-.31.17-.42.03-.03.1-.07.18-.1.2-.1.3-.15.47-.34.05-.05.1-.08.14-.1l.23-.07c.02 0 .02 0 .02.02-.17 1.42-.53 2.8-1.01 4.1a5.27 5.27 0 0 1-.33.7l-.56.08Z" fill="#1B1725"/><path d="M4.57 10.14c.24.87.7 1.61 1.37 2.22l.05.53a4.84 4.84 0 0 1-1.63-2.14c.02-.22.1-.42.21-.6Z" fill="#391558"/><path d="m8.36 10.58-.06.1a.47.47 0 0 1-.13.11s-.01 0 0 0l.08-.23.07-.41.04.43Z" fill="#AF309C"/><path d="m6.79 10.16.02.11.1.03-.06.13-.06-.09h-.01v.04c-.05-.11-.04-.18 0-.22Z" fill="#6D1F72"/><path d="m6.95 10.3.05.15.06.23c.01.05 0 .06-.04.02a1.1 1.1 0 0 1-.1-.1l-.05-.09c-.02-.04-.02-.03-.02.01a.23.23 0 0 0 .03.08h-.02a.58.58 0 0 1-.09-.22v-.03h.02l.06.08c.07.07.1.01.08-.18l.02.06Z" fill="#491D72"/><path d="m14.1 10.24.33.1c.02 0 .03.01.02.04v.04c-.01.02-.03.03-.05.03l-.18-.05-.28-.09a.04.04 0 0 1-.02-.02v-.05l.04-.02.13.02Z" fill="#BF8DAC"/><path d="m7.3 10.54.09.22c-.05 0-.09 0-.11-.03a.69.69 0 0 1-.06-.1.94.94 0 0 1-.04-.31c.05.07.1.14.12.22Z" fill="#AF309C"/><path d="m7.22 10.62.06.11c.02.03.06.04.1.03.2.28.6.28.76-.04l.11-.16-.09.22c0 .02 0 .02.01.01.05-.02.1-.06.13-.1-.04.09-.1.17-.17.24l-.03.01a.22.22 0 0 0-.16.08l-.03.01c-.13.02-.26.02-.39 0v.01l.08.04c.02.01.02.02 0 .02a.46.46 0 0 1-.34-.14v-.02h.02l-.03-.03c-.02-.02-.02-.02 0-.02l.03.01h.01a6.05 6.05 0 0 1-.17-.08l-.01.01.11.11c.04.05.03.06-.02.02-.06-.04-.13-.1-.2-.18-.01-.02-.02-.04-.01-.06H7l.1.04a.04.04 0 0 0 .04-.03v-.02l-.06-.33c.05.03.1.11.13.24Z" fill="#94288A"/><path d="M6.98 10.98a1.13 1.13 0 0 0 .59.27l-.01.02-.01.01h-.02a1.17 1.17 0 0 1-.96-.97h.02c.06.26.18.49.39.67Z" fill="#AF309C"/><path d="m13.5 10.36.2.5.02.04-.03.1c-.07 0-.08.03-.03.1a.26.26 0 0 0-.04.08c-.06 0-.08.01-.09.05v.02l.02.02.23.11a.23.23 0 0 0-.1.07l-.18-.08a.04.04 0 0 0-.05.01v.01c-.02.03-.02.05.01.06l.18.1a.3.3 0 0 0-.12.06l-.13-.07h-.03a.08.08 0 0 0-.02.05v.03a.2.2 0 0 0 .06.04l-.1.07h-.03a.04.04 0 0 0-.05.02.04.04 0 0 0 .02.05l.25.17a.33.33 0 0 0-.09.08l-.23-.15c-.02-.02-.04-.02-.06 0v.07l.24.18a.16.16 0 0 0-.11.04l-.19-.13-.02-.01c-.02 0-.04 0-.05.02-.02.02-.01.04.01.06l.25.22a.16.16 0 0 0-.09.05 3.53 3.53 0 0 0-.22-.17c-.03-.02-.07-.02-.1 0v.02c.12.14.26.26.41.37l.1.3a5.84 5.84 0 0 1-2.53 1.54l.14-.33c0-.03.03-.04.07-.04a.02.02 0 0 0 .02-.01v-.02c-.04-.08-.04-.16.01-.25a.4.4 0 0 1 .1.18c0 .04.02.05.06.04l.02-.01c.03-.02.04-.05.02-.08l-.14-.29.03-.12c.06.04.1.1.14.18l.07.2c.02.03.04.04.07.02l.03-.01c.02-.02.03-.03.02-.05l-.08-.16.1-.06.07.15c.01.04.04.05.07.03h.02c.03-.02.04-.05.02-.08l-.21-.39a.2.2 0 0 1 .1-.02l.2.37c.02.02.04.03.07.01h.02c.03-.02.04-.04.02-.07l-.2-.33a.16.16 0 0 1 .1-.08l.19.35c.01.03.04.04.07.02l.01-.01c.03-.02.04-.05.02-.07l-.2-.29c.01-.03.03-.05.05-.05a.3.3 0 0 1 .06 0l.19.28c.01.03.03.03.06.02l.02-.02c.03-.02.03-.04.01-.06l-.19-.26c-.02-.04-.02-.07 0-.09h.02l.08.03.18.26c.02.02.04.02.06 0l.04-.02c.02-.01.02-.03 0-.05l-.29-.37.12-.02.26.33c.02.02.03.02.05 0l.04-.04c.02-.01.02-.03 0-.04l-.31-.36.08-.05.31.34c.02.02.04.02.06 0l.03-.03c.02-.02.02-.03 0-.05l-.1-.12a.35.35 0 0 1 .08-.07l.1.12c.02.02.04.02.06 0l.03-.03c.02-.02.02-.04 0-.06l-.35-.33-.05-.5a4.54 4.54 0 0 0 .95-1.64Z" fill="#391558"/><path d="m8.94 10.38-.05.1v.03a.1.1 0 0 1-.04.1l-.01.02a.2.2 0 0 1-.03.1c-.12.14-.25.27-.4.38a.4.4 0 0 1-.1.06.7.7 0 0 0-.09.05h-.09s-.02 0-.03.02c0 .02-.02.02-.03.02a.02.02 0 0 1-.03-.02v-.01l.05-.07a.19.19 0 0 1 .06-.05l.12-.05.14-.08c.05-.04.16-.12.2-.18a.33.33 0 0 1 .05-.08l.05-.05.02-.03c.02-.13.09-.21.2-.26Z" fill="#AF309C"/><path d="m14.1 10.47.27.08c.02 0 .03.02.02.04v.04c-.01.03-.03.04-.05.03l-.12-.03-.34-.12a.04.04 0 0 1-.03-.02v-.04l.01-.01.02-.02h.03l.19.05Z" fill="#BF8DAC"/><path d="M8.83 10.9a1.28 1.28 0 0 1-1.3.5 4.01 4.01 0 0 0-.2-.02l-.26-.13.06.01c.01 0 .02 0 0-.01a.2.2 0 0 1-.05-.05c-.01-.02 0-.02.01 0 .4.22.8.23 1.23.03.32-.14.54-.4.66-.75.01-.01.03-.02.04-.01.01 0 .02 0 .01.02-.04.15-.1.28-.2.4Z" fill="#94288A"/><path d="m6.51 10.49.19.33-.02.07-.08-.12h-.01v.04c0 .01 0 .01 0 0-.02-.02-.03-.05-.02-.07v-.02c-.06-.09-.08-.17-.06-.23Z" fill="#6D1F72"/><path d="m15 10.66-.05.18c-.3.9-.78 1.68-1.45 2.36l-.1-.33v-.02a5.5 5.5 0 0 0 1.28-2.21c.02-.04.04-.07.1-.07h.14c.02 0 .05.04.07.09Z" fill="#5A1656"/><path d="M14.12 10.7v.01h-.06l-.02.01v.07l-.22-.08c-.03 0-.04-.02-.03-.05v-.02c.01-.03.03-.03.06-.03l.27.1Z" fill="#94288A"/><path d="M4.69 12.8a5.33 5.33 0 0 0 1.05.9l.09.44a6.08 6.08 0 0 1-2.7-3.48.7.7 0 0 1 .27-.01.1.1 0 0 1 .08.06c.25.78.66 1.47 1.21 2.09Z" fill="#5A1656"/><path d="M8.37 10.7c0 .07-.02.13-.06.16-.02.02-.03.01-.02-.01 0-.04.02-.08.04-.13l.04-.03Z" fill="#6D1F72"/><path d="m14.12 10.71.18.05s.02 0 .02.02v.02l-.02.07-.25-.08-.01-.07c0-.01.01-.02.02-.01h.06Z" fill="#E5DDEE"/><path d="M13.72 10.9a.06.06 0 0 1-.01-.04c.01-.05.05-.06.09-.04l.4.15c.04 0 .05.03.04.06l-.02.03c0 .03-.02.04-.05.03l-.45-.19Z" fill="#CA92BE"/><path d="M8.83 10.9a.99.99 0 0 1-.22.34 6.53 6.53 0 0 0-.42.28l-.36.02a3.9 3.9 0 0 0-.42-.05.76.76 0 0 1-.37-.15.98.98 0 0 1-.34-.42.1.1 0 0 1 .05.05l.11.14c.05.06.12.1.21.14l.25.13c.18.07.38.08.6.04.37-.03.67-.21.91-.53Z" fill="#391558"/><path d="m12.94 10.93.05.51a4.64 4.64 0 0 1-1.66 1.53l.09-.4c.5-.31.9-.7 1.23-1.17l.29-.47Z" fill="#949098"/><path d="M6.75 10.97a.2.2 0 0 0 .14.1h.02l.16.1c.01 0 .01 0 0 0h-.09l-.03-.02c-.02-.04-.06-.05-.09-.04l-.11-.14Z" fill="#94288A"/><path d="m13.69 11 .44.18c.03.01.03.03.02.05l-.02.04c-.02.02-.03.03-.06.02l-.41-.2c-.05-.06-.04-.09.03-.09Z" fill="#CABFCD"/><path d="M7.93 11.2c-.03.03-.03.07 0 .08.01.02.05 0 .07-.04.02-.03.02-.07 0-.08-.02-.02-.05 0-.07.04Z" fill="#B441EC"/><path d="m13.62 11.18.41.2c.03.02.03.04.02.06l-.02.04c-.02.02-.03.02-.06.01l-.2-.11-.22-.11-.01-.02v-.02c0-.04.02-.05.08-.05ZM13.68 11.45l.24.13c.03.01.03.03.02.06l-.02.03c-.01.02-.03.03-.06.01l-.22-.12-.18-.1c-.03-.02-.03-.04-.02-.07.01-.02.02-.02.03-.02h.03l.18.08ZM13.52 11.6l.3.18c.02.01.03.03 0 .06l-.02.03c-.02.02-.04.02-.06 0l-.34-.21a.21.21 0 0 1-.06-.04v-.03l.02-.04h.03l.13.06ZM13.3 11.73l.39.24c.02.01.03.03 0 .06l-.02.03c-.01.02-.03.02-.06 0l-.12-.09-.25-.17-.02-.02v-.03l.02-.02h.06ZM13.4 12.05l.16.1c.02.02.03.03.01.05l-.04.05c-.01.01-.03.02-.04 0l-.14-.1-.23-.18a.04.04 0 0 1-.02-.05l.01-.02c.02-.02.04-.02.06 0l.23.15Z" fill="#CA92BE"/><path d="m12.56 12 .05.5c-.04 0-.06.02-.06.04a.04.04 0 0 0 0 .03l.22.23a.35.35 0 0 0-.09.07l-.22-.21h-.03c-.02 0-.04.03-.04.07l-.08.05c-.03-.01-.05 0-.07.03v.03l.03.05-.12.02c-.03-.01-.05 0-.07.01v.06l.08.1-.08-.02h-.02c-.02.02-.02.05 0 .09l-.09-.1c-.04-.05-.05-.04-.05.01 0 .04.01.08.05.13h-.06c-.02 0-.04.02-.04.05l-.06-.08-.03-.01-.04.01v.03c0 .02 0 .04.02.05a.16.16 0 0 0-.1.08.15.15 0 0 0-.05-.08h-.05l-.02.02v.02l.02.06a.2.2 0 0 0-.1.02c-.02-.03-.05-.04-.09 0a.04.04 0 0 0-.01.03c0 .03.01.06.04.09l.09.17-.1.06-.08-.15c-.02-.04-.03-.04-.04 0v.15a.53.53 0 0 0-.13-.18 30.27 30.27 0 0 1 .19-.56h.01c.46-.26.87-.58 1.22-.97Z" fill="#491D72"/><path d="m13.24 12.2.19.14c.01.01.02.03 0 .04l-.04.05c-.01.02-.03.02-.04 0l-.1-.08-.26-.22c-.02-.02-.03-.04 0-.06 0-.02.02-.02.04-.02h.02l.19.14Z" fill="#CA92BE"/><path d="m6.86 12.65.37.5c-.02.01-.05 0-.1-.01a5.16 5.16 0 0 1-.87-.52l-.04-.42c.2.16.4.32.64.45Z" fill="#949098"/><path d="m13.15 12.4.13.11v.03l-.04.08a2.43 2.43 0 0 1-.41-.37v-.02c.03-.02.07-.02.1 0l.22.17ZM13.08 12.77h-.03a4.52 4.52 0 0 1-.35-.39l.02-.02.04.02a3.5 3.5 0 0 1 .37.3.02.02 0 0 1 0 .02v.01l-.05.06Z" fill="#CA92BE"/><path d="M6.26 12.62a5.16 5.16 0 0 0 .97.53c.17.16.28.35.34.56a5.3 5.3 0 0 1-1.58-.82l-.05-.53.32.26Z" fill="#491D72"/><path d="M7.58 13.82c.03.08.03.17.02.27a2.35 2.35 0 0 0-.18-.05 5.75 5.75 0 0 1-2.35-1.49l.18-.17a5.06 5.06 0 0 0 2.33 1.45Z" fill="#491D72"/><path d="M5.65 13.22a5.09 5.09 0 0 0 1.94.97l-.07.33A6.03 6.03 0 0 1 4.7 12.8l.1-.4c.26.3.54.58.86.82Z" fill="#391558"/><path d="m12.61 12.5.35.33c.02.02.02.04 0 .06l-.03.03c-.02.02-.04.02-.06 0l-.1-.12-.21-.23-.01-.01v-.02c0-.02.02-.04.06-.04ZM12.68 12.87l.11.12c.02.02.02.03 0 .05l-.03.03c-.02.02-.04.02-.06 0l-.3-.34c0-.04 0-.07.03-.08h.03l.22.22ZM12.3 12.78l.33.36v.04l-.05.04c-.02.02-.03.02-.05 0l-.26-.33a.18.18 0 0 1-.03-.05v-.03c.02-.03.04-.04.07-.03Z" fill="#CA92BE"/><path d="m13.4 12.87.1.33a6.1 6.1 0 0 1-2.94 1.64c.05 0 .08-.01.1-.04l.15-.34a5.84 5.84 0 0 0 2.59-1.6Z" fill="#94288A"/><path d="m12.15 12.91.3.37c.01.02 0 .04-.01.05l-.04.03c-.02.01-.04.01-.06-.01l-.18-.26-.08-.1c-.01-.03-.01-.05 0-.07.02-.02.04-.02.07 0Z" fill="#CA92BE"/><path d="m12.06 13.15.2.26c.01.02 0 .04-.02.06l-.02.02c-.03.01-.05 0-.06-.02l-.2-.28a.25.25 0 0 1-.04-.13c0-.05.01-.06.05-.02l.1.1Z" fill="#CABFCD"/><path d="M7.6 14.1c.01.02 0 .05-.01.09-.19-.06-.4-.13-.62-.22a5.1 5.1 0 0 1-1.32-.75l.05-.1a5.75 5.75 0 0 0 1.9.97Z" fill="#E5DDEE"/><path d="m11.87 13.24.19.29c.02.02.01.05-.02.07h-.01c-.03.03-.05.02-.07 0l-.2-.36a.14.14 0 0 1-.03-.05v-.03a.05.05 0 0 1 .05-.01l.03.01.06.08ZM11.66 13.32l.21.33c.02.03.01.05-.02.06l-.02.01c-.03.02-.05.01-.07-.02l-.2-.36-.03-.06a.05.05 0 0 1 .03-.04.05.05 0 0 1 .05 0c.02.02.04.04.05.08Z" fill="#CA92BE"/><path d="m11.46 13.36.2.4c.03.02.02.05-.01.06l-.02.01c-.03.02-.06 0-.07-.03l-.07-.15-.1-.17a.15.15 0 0 1-.03-.1.04.04 0 0 1 .01-.02c.04-.04.07-.03.09 0ZM11.39 13.7l.08.17c0 .02 0 .03-.02.05l-.03.01c-.03.02-.05.01-.07-.02l-.07-.2a.4.4 0 0 1-.01-.15c0-.04.02-.04.04 0l.08.15ZM11.11 13.65l.14.29c.02.03.01.06-.02.08h-.02c-.04.02-.06.01-.07-.03a.4.4 0 0 0-.09-.18c0-.05.03-.1.06-.16Z" fill="#CABFCD"/><path d="M5.74 13.7c.54.38 1.14.65 1.78.82l-.1.29H7.4a6.56 6.56 0 0 1-1.57-.67l-.1-.43Z" fill="#AF309C"/><defs><linearGradient id="a" x1="3.35" y1="3.12" x2="21.9" y2="24.43" gradientUnits="userSpaceOnUse"><stop stop-color="#1A1E21"/><stop offset="1" stop-color="#06060A"/></linearGradient></defs></svg>