<!-- by TradingView --><svg width="18" height="18" viewBox="0 0 18 18" xmlns="http://www.w3.org/2000/svg"><path fill="#F0F3FA" d="M0 0h18v18H0z"/><path d="M3 7.26v3.48c0 .9.53 1.75 1.4 2.2l3.17 1.7c.88.48 1.98.48 2.86 0l3.18-1.7c.86-.45 1.39-1.3 1.39-2.2V7.26c0-.9-.53-1.75-1.4-2.2l-3.17-1.7a3.07 3.07 0 0 0-2.86 0l-3.18 1.7C3.53 5.5 3 6.35 3 7.25Z" fill="#272F27"/><path fill-rule="evenodd" d="M5 10.16V7.84c0-.6.35-1.17.93-1.47l2.12-1.13a2.05 2.05 0 0 1 1.9 0l2.12 1.13c.58.3.93.87.93 1.47v2.32c0 .6-.35 1.17-.93 1.47l-2.12 1.13c-.58.32-1.32.32-1.9 0l-2.12-1.13c-.58-.3-.93-.87-.93-1.47Zm1.9-1.51a1.35 1.35 0 0 1-.35-.89c0-.42.47-1 .7-1.23-.06.3-.1.95.17 1.23.24-.17.88-.52 1.58-.52.7 0 1.46.35 1.57.52.12-.17.32-.67.18-1.23.23.23.7.81.7 1.23 0 .43-.23.77-.35.89.06.23.21.77.35 1.06.09.17.18.35.18.7s-.36 1.41-2.63 1.41c-2.28 0-2.63-.88-2.63-1.4 0-.18 0-.36.18-.71.17-.36.35-.89.35-1.06Z" fill="url(#a)"/><path d="m8.63 9.61-1-.61c-.13.27-.28.86.2 1.02.48.16.73-.2.8-.4ZM9.38 9.61l.99-.61c.13.27.28.86-.2 1.02-.48.16-.73-.2-.8-.4ZM8.26 10.65a.62.62 0 0 0 .05-.06.3.3 0 0 0 .08-.18h-.2c0 .02 0 .04-.03.07a.61.61 0 0 1-.11.1c-.06.05-.13.08-.18.1l.09.16c.04-.02.1-.04.14-.08a1.82 1.82 0 0 0 1.83.04c.07.03.14.05.24.05v-.17a.29.29 0 0 1-.18-.06.28.28 0 0 1-.1-.2h-.2c0 .06.03.17.1.26a1.64 1.64 0 0 1-1.53-.03Z" fill="#FDFF8E"/><defs><linearGradient id="a" x1="9" y1="4.76" x2="9" y2="13.24" gradientUnits="userSpaceOnUse"><stop stop-color="#DCF145"/><stop offset=".5" stop-color="#669528"/><stop offset="1" stop-color="#F1FC63"/></linearGradient></defs></svg>