<!-- by TradingView --><svg width="18" height="18" viewBox="0 0 18 18" xmlns="http://www.w3.org/2000/svg"><path fill="url(#a)" d="M0 0h18v18H0z"/><path fill-rule="evenodd" d="M9.66 3.2a1.24 1.24 0 0 0-1.32 0L4.66 5.47c-.4.25-.66.72-.66 1.24v4.56c0 .52.25.99.66 1.24l3.68 2.29c.4.25.91.25 1.32 0l3.68-2.29c.4-.25.66-.72.66-1.24V6.72c0-.52-.25-.99-.66-1.24L9.66 3.19Zm.02 3.16a.81.81 0 0 0-1.36 0L6.11 9.91c-.3.48.07 1.09.67 1.09h4.44c.6 0 .98-.6.67-1.09L9.68 6.36Z" fill="#fff"/><defs><linearGradient id="a" x1="18" y1="9" x2="0" y2="9" gradientUnits="userSpaceOnUse"><stop stop-color="#63326D"/><stop offset=".49" stop-color="#120A45"/><stop offset="1" stop-color="#4824AA"/></linearGradient></defs></svg>