<!-- by TradingView --><svg width="18" height="18" viewBox="0 0 18 18" xmlns="http://www.w3.org/2000/svg"><path fill="url(#a)" d="M0 0h18v18H0z"/><path opacity=".5" d="M7.27 9.69c.78-.34 1.37.3 1.41.44.69-.31-.06-1.67-.53-2.3-.04-.2.1-.48 1.02-.19l1.7.54C10.42 6.92 9.42 6.46 9.01 6c1.91-.01 2.66.3 2.8.45-1.68-2.78-6.06-2.03-8.04-1.3C9.67 2.07 14 5.82 14 8.69 14 11.57 12.55 14 9.9 14c-2.67 0-3.6-1.47-3.72-2.3a1.89 1.89 0 0 1 1.1-2.01Z" fill="url(#b)"/><path d="M3.16 5.77c.09 0 .16-.06.16-.14 0-.09-.07-.15-.16-.15S3 5.54 3 5.63c0 .08.07.14.16.14Z" fill="#EC1163"/><path d="M7.58 6.19c.14 0 .25-.1.25-.23s-.11-.23-.25-.23c-.13 0-.24.1-.24.23 0 .12.1.23.24.23Z" fill="#626CB3"/><path d="M11.2 6.31c.12 0 .22-.09.22-.2 0-.12-.1-.22-.22-.22-.13 0-.23.1-.23.21 0 .12.1.21.23.21ZM5.67 7.81c.25 0 .45-.18.45-.4 0-.23-.2-.41-.45-.41-.24 0-.44.18-.44.4 0 .23.2.41.44.41ZM5.67 8.91c.06 0 .1-.04.1-.09 0-.05-.04-.09-.1-.09-.05 0-.1.04-.1.1 0 .04.05.08.1.08Z" fill="#EC1163"/><path d="M5.89 10.56c.2 0 .36-.15.36-.34 0-.18-.16-.33-.36-.33-.2 0-.37.15-.37.33 0 .19.16.34.37.34ZM13.24 13.25c.17 0 .32-.13.32-.3 0-.15-.15-.28-.32-.28-.18 0-.32.13-.32.29 0 .16.14.29.32.29Z" fill="#626CB3"/><defs><linearGradient id="a" x1="3.35" y1="3.12" x2="21.9" y2="24.43" gradientUnits="userSpaceOnUse"><stop stop-color="#1A1E21"/><stop offset="1" stop-color="#06060A"/></linearGradient><linearGradient id="b" x1="14.65" y1="6.26" x2="6.17" y2="9.05" gradientUnits="userSpaceOnUse"><stop stop-color="#A2438D"/><stop offset=".42" stop-color="#8A529A"/><stop offset="1" stop-color="#BE307E"/></linearGradient></defs></svg>