<!-- by TradingView --><svg width="18" height="18" viewBox="0 0 18 18" xmlns="http://www.w3.org/2000/svg"><path fill="url(#apfxhyihg)" d="M0 0h18v18H0z"/><path fill-rule="evenodd" d="M9.63 13.24c-.83.76-2.16.75-3-.04L3.6 10.26c-.82-.79-.8-2.05.04-2.83a2.22 2.22 0 0 1 3 .04l3.04 2.94c.8.8.8 2.06-.05 2.83ZM4.9 9.27c.35 0 .64-.28.64-.64A.63.63 0 0 0 4.89 8a.63.63 0 0 0-.63.63c0 .36.29.64.63.64Zm4.6 2.6a1.14 1.14 0 1 1-2.3 0 1.14 1.14 0 0 1 2.3 0Z" fill="#EFEFEF"/><path fill-rule="evenodd" d="M6.87 13.4a2.33 2.33 0 0 1-.23-3.42l3.87-4.16c.94-1 2.56-1.1 3.62-.22a2.33 2.33 0 0 1 .23 3.42l-3.87 4.16c-.94 1-2.56 1.1-3.62.22Zm1.47-.38a1.14 1.14 0 1 0 0-2.3 1.14 1.14 0 0 0 0 2.3ZM14 7.5a1.5 1.5 0 1 1-3 0 1.5 1.5 0 0 1 3 0Z" fill="#fff"/><defs><linearGradient id="apfxhyihg" x1="15.03" y1="2.25" x2="2.85" y2="16.05" gradientUnits="userSpaceOnUse"><stop stop-color="#0CB5AD"/><stop offset="1" stop-color="#9CCE7E"/></linearGradient></defs></svg>