<!-- by TradingView --><svg width="18" height="18" viewBox="0 0 18 18" xmlns="http://www.w3.org/2000/svg"><path fill="url(#a)" d="M0 0h18v18H0z"/><path d="M13.49 11.27a3.6 3.6 0 0 0-1.12-4.92 3.33 3.33 0 0 0-1.72-.55 3.2 3.2 0 0 0-1.53.28l-.77.39c-.28.15-.63.24-1.03.28a1 1 0 0 1-1.03-.53 2.65 2.65 0 0 1-.16-.46 1.09 1.09 0 0 0-2-.19c-.22.4-.16.89.12 1.25a1 1 0 0 0 .84.38c.12 0 .26-.01.37-.04a1 1 0 0 1 .91.17c.46.4.6 1.15.6 1.75L7 9.7c.05 1 .58 1.96 1.37 2.57a3.46 3.46 0 0 0 5.12-.99Zm-2.87-.07a1.8 1.8 0 0 1-1.9-1.67 1.8 1.8 0 0 1 1.64-1.94 1.8 1.8 0 0 1 1.9 1.67 1.8 1.8 0 0 1-1.64 1.94Z" fill="#fff"/><defs><linearGradient id="a" x1="0" y1="2.5" x2="15.31" y2="14.19" gradientUnits="userSpaceOnUse"><stop stop-color="#02010F"/><stop offset=".55" stop-color="#250E68"/><stop offset="1" stop-color="#7444E6"/></linearGradient></defs></svg>