<!-- by TradingView --><svg width="18" height="18" viewBox="0 0 18 18" xmlns="http://www.w3.org/2000/svg"><path fill="url(#a)" d="M0 0h18v18H0z"/><path d="M9.02 12.25h-.04v.28h.04v-.28ZM9.02 13.1h-.04v.28h.04v-.28ZM9.02 4.62h-.04v.28h.04v-.28ZM9.02 5.47h-.04v.28h.04v-.28Z" fill="#fff"/><path d="M12.54 5.46a4.97 4.97 0 0 0-7.08 0 4.97 4.97 0 0 0 0 7.08 4.97 4.97 0 0 0 7.08 0 4.97 4.97 0 0 0 0-7.08Zm-.52 5.74c0 1.08-.85 2-2.03 2.34-.32.07-.64.1-.97.1v-.12h-.04v.12c-.33 0-.65-.03-.97-.1-1.18-.34-2.03-1.26-2.03-2.34v-.04c.83.41 1.87.64 2.98.64l.02.18v.13h.04v-.12l.02-.19c1.1 0 2.15-.23 2.98-.64v.04ZM4.36 9.07h.1v-.05h-.1v-.24c.11-.72.7-1.36 1.58-1.8.06.77.56 1.45 1.3 1.87-.32.07-.7.12-1.17.17h-.19v.05h.18l1.05.15a2.41 2.41 0 0 0-1.18 1.86c-.86-.44-1.44-1.07-1.56-1.77l-.01-.24ZM5.98 6.8c0-1.1.86-2.02 2.06-2.35.3-.06.62-.1.94-.1v.13h.04v-.12c.32 0 .63.03.94.1 1.2.32 2.06 1.25 2.06 2.34a2 2 0 0 1 0 .1 6.87 6.87 0 0 0-2.98-.65l-.02-.14V5.9h-.04v.23l-.02.13c-1.1 0-2.15.23-2.98.65a2 2 0 0 1 0-.1Zm3.06-.5c1.14 0 2.18.25 2.98.65a2.42 2.42 0 0 1-1.32 1.89c-1.21-.28-1.45-.8-1.66-2.54Zm-.08 0c-.2 1.73-.45 2.26-1.66 2.54a2.42 2.42 0 0 1-1.32-1.9c.8-.4 1.84-.64 2.98-.64ZM7.18 9.23c1.3.27 1.56.77 1.77 2.53a6.82 6.82 0 0 1-2.97-.66c.03-.76.5-1.44 1.2-1.87Zm1.87 2.53c.21-1.76.46-2.26 1.77-2.53.7.43 1.16 1.11 1.2 1.87-.8.4-1.84.65-2.97.66Zm1.84-2.54c.3-.06.64-.1 1.05-.15h.18v-.05h-.2c-.46-.05-.84-.1-1.15-.17a2.46 2.46 0 0 0 1.3-1.88c.87.45 1.46 1.1 1.57 1.81v.24h-.1v.05h.1v.24c-.13.7-.71 1.33-1.57 1.77a2.41 2.41 0 0 0-1.18-1.86Zm2.73-.73a2.75 2.75 0 0 0-1.3-1.43l-.25-.14V6.8c0-.94-.63-1.76-1.57-2.2a4.63 4.63 0 0 1 3.12 3.89Zm-7.9-2.77A4.62 4.62 0 0 1 7.5 4.6c-.94.44-1.57 1.26-1.57 2.2v.12l-.25.14c-.67.4-1.12.89-1.3 1.43a4.6 4.6 0 0 1 1.34-2.77ZM4.39 9.6c.19.52.63 1 1.29 1.4l.25.13v.07c0 .94.63 1.76 1.55 2.2A4.63 4.63 0 0 1 4.4 9.6Zm7.9 2.68c-.51.51-1.12.88-1.77 1.11.92-.43 1.55-1.25 1.55-2.19a2 2 0 0 0 0-.07l.25-.14c.66-.38 1.1-.87 1.29-1.4a4.6 4.6 0 0 1-1.33 2.7Z" fill="#fff"/><defs><linearGradient id="a" x1="3.35" y1="3.12" x2="21.9" y2="24.43" gradientUnits="userSpaceOnUse"><stop stop-color="#1A1E21"/><stop offset="1" stop-color="#06060A"/></linearGradient></defs></svg>