<!-- by TradingView --><svg width="18" height="18" viewBox="0 0 18 18" xmlns="http://www.w3.org/2000/svg"><path fill="url(#a)" d="M0 0h18v18H0z"/><path d="M11 4.47c-.23-.17-.41-.33-.74-.25-.03 0-.03.02 0 .04.2.1.48.12.7.38.02.03.01.04-.02.06l-.25.11c-.4.05-.67.11-.8.2-.18.1-.36.2-.51.24-.6.13-.87.35-.84.68a.87.87 0 0 0-.15.47v.03l.03.03.03.01.07.04.04.06c-.07.04-.1.07-.1.12 0 .03.02.06.07.1.1.06.21.12.34.16.12.1.25.14.39.12.14-.03.46-.12.94-.27.07.02.13.03.17.02.08.03.18.03.28.02.03 0 .04 0 .06.02v.02s0 .02.02.02c.17.06.32.16.44.3.04.05.03.07-.03.08h-.09a.13.13 0 0 1-.05-.03c-.18-.16-.47-.43-.8-.35-.49.13-.88.2-1.17.25-.03 0-.04.02-.03.04.1.41.06.81-.12 1.2a.9.9 0 0 1-.19.27.6.6 0 0 0-.12.34v.02l-.03.01a.78.78 0 0 0-.4.1.08.08 0 0 0-.05.07v.32l-.01.04-.03.03a.1.1 0 0 1-.1 0 .85.85 0 0 0-.5-.14.47.47 0 0 1-.02-.25v-.02l-.02-.01H7.34c-.03 0-.04 0-.05.03a.58.58 0 0 0 .06.45c.02.02.04.03.07.03l.01.05a1 1 0 0 0 .09.33c.04.1.12.18.25.25.22.12.47.24.75.35.06.09.16.16.28.22l.77.43.02.02v.04l-.33.48a.06.06 0 0 0 0 .06s0 .02.02.02l.03.02c.16.05.3.14.4.27l.06.03c.04.02.13.09.25.2.07.07.2.11.35.13l-.05.2-.03.04c-.02.02-.04.04-.04.06l.01.01h.01c.16.03.26.06.3.09l.03.01h.03a.1.1 0 0 0 .06-.03l.14-.17a.04.04 0 0 1 .02-.01h.08v.01l-.22.25-.03.02h-.03l-.27-.04c-.03-.01-.05 0-.05.03v.22c0 .03 0 .05.03.07.14.13.23.28.27.45a.14.14 0 0 1-.07.02.3.3 0 0 0-.07-.11l-.41-.4c.03-.02.05-.03.06-.02.07.03.09.02.04-.04a7.43 7.43 0 0 0-1.58-1.5A3.7 3.7 0 0 1 7.33 10a.76.76 0 0 0-.27-.49.7.7 0 0 0-.12-.47c.06 0 .12.01.2.04h.07l.4-.07c.58.06.95-.4 1.06-.82.02-.05 0-.08-.06-.08-.26-.03-.35-.08-.25-.16.12.05.21.06.3.03a.1.1 0 0 0 .06-.05c.14-.28.19-.7-.1-.93-.18-.15-.59-.23-.83-.4-.03-.01-.03-.03.01-.04.07-.02.17-.03.3-.02l.04-.01c.02-.01.03-.02.03-.04.1-.27.13-.56.08-.88 0-.03 0-.05.03-.07.05-.03.06-.07.03-.11a.06.06 0 0 1 0-.07l.24-.35.01-.03v-.04a.07.07 0 0 0-.03-.03.09.09 0 0 0-.04 0c-.17-.03-.36-.01-.56.04l-.18-.01c-.03-.02-.05-.05-.04-.1 0-.03.01-.04.04-.04H8.72a2.21 2.21 0 0 1 .92-.66c.37-.06.43-.1.16-.14.26-.02.52.01.78.1.2.06.34.18.41.36Z" fill="#2A2251"/><path d="M9.8 4.01c.27.03.21.08-.16.13-.17-.02-.3 0-.37.04a.76.76 0 0 1-.76.09c-.02-.04.01-.08.1-.14.36-.11.76-.15 1.2-.12Z" fill="#FCAFEC"/><path d="M8.61 4.13c-.09.06-.12.1-.1.14-.18.13-.36.26-.52.4-.17.15-.43.03-.6.1a.82.82 0 0 0-.26.13c-.06.05-.05.08.04.07l.58-.02h.18l.31.06c.16.03.16.07.02.13-.1.03-.2.06-.3.07-.08-.11-.27-.14-.57-.1-.19.04-.26.1-.23.2a.56.56 0 0 0-.24.44c0 .02 0 .04.02.06v.1l-.01.01v.02l.03.02h.02l.33-.03h.02l.02.03v.02L7.33 6l-.09.05h-.01l-.36.03a.12.12 0 0 0-.07.03c-.2.18-.24.36-.14.55.03.06.01.1-.05.14-.3.16-.57.22-.84.2.07-.06.12-.1.15-.1l.03.01h.04l.56-.27-.01-.02H6.5l-.5.2a.17.17 0 0 1-.07.02h-.03c-.2.01-.48-.01-.63.1-.18.16-.36.5-.14.7.02 0 .01.02-.01.03h-.07l-.02-.02c-.05-.08-.11-.1-.2-.1l-.03.01c-.01 0-.02 0-.03.02v.04a7.84 7.84 0 0 1 .09.44c.02.02.05.02.09.01 0 .05-.01.1-.06.14 0-.08-.03-.12-.07-.13-.03-.01-.06 0-.08.02a.27.27 0 0 1-.08.05c.06-.2.04-.4-.07-.6a.47.47 0 0 1-.01-.37c0-.02.02-.04.04-.06a.6.6 0 0 0 .17-.2l.64-.27c.06-.03.06-.04 0-.05l-.15-.03h-.01l-.01-.02v-.04l.06-.01c.47-.03.9-.16 1.3-.4v-.03l-.04-.01h-.02c-.14.09-.27.15-.4.19-.1.03-.12 0-.04-.06l.82-.74c.04-.04.03-.06-.02-.06a.29.29 0 0 0-.24.1 7.04 7.04 0 0 1-.7.61h-.05c-.04 0-.05 0-.03-.04a1.92 1.92 0 0 1 .47-.42l-.02-.02-.01-.01a.03.03 0 0 0-.03 0 .3.3 0 0 1-.16.06c-.05 0-.06-.02-.03-.05l.64-.67c.16-.16.46-.32.64-.31.37.02.66-.1.88-.34a.08.08 0 0 0 .03-.05c0-.01 0-.03-.02-.05 0-.01-.02-.02-.05-.02l.36-.05Z" fill="#F953A1"/><path d="M9.64 4.14a2.21 2.21 0 0 0-.92.66.12.12 0 0 1-.05.01h-.92c-.03 0-.04.01-.04.04-.01.05 0 .08.04.1l-.58.02c-.09 0-.1-.02-.04-.07.06-.05.14-.1.25-.13.18-.07.44.05.61-.1l.52-.4c.28.1.54.08.76-.09.07-.05.2-.06.37-.04Z" fill="#6A4271"/><path d="M8 4.18a.1.1 0 0 0-.03.07c0 .03-.02.04-.04.05l-.65.13.01-.1c.23-.1.46-.16.7-.15Z" fill="#B62A9B"/><path d="M8.25 4.18c.03 0 .04 0 .05.02l.02.05c0 .02-.01.04-.03.05-.22.25-.51.36-.88.34-.18-.01-.48.15-.64.3l-.64.68c-.03.03-.02.05.03.05a.3.3 0 0 0 .16-.06.03.03 0 0 1 .03 0h.01l.02.03c-.19.12-.34.26-.47.42-.02.03-.01.05.03.04h.04c.02 0 .03 0 .05-.02.18-.14.4-.34.66-.6.07-.07.15-.1.24-.1.05.01.06.03.02.07l-.82.74c-.08.07-.07.09.04.06.13-.04.26-.1.4-.2h.03l.02.02c.02.01.02.02 0 .03-.39.24-.82.37-1.3.4l-.04.01c-.02.02-.02.03-.01.04v.02h.02l.14.03c.07 0 .07.02.01.05l-.64.27c-.25 0-.44.1-.57.3-.04-.01-.06-.05-.06-.11.17-.27.43-.44.78-.53.03 0 .03-.02.01-.04a.36.36 0 0 0-.24-.1c-.02 0-.02-.01-.01-.02l.02-.02c.2.04.38.02.55-.06.29-.22.52-.48.7-.78.06-.13.17-.2.27-.3.04-.02.03-.03-.02-.03a.83.83 0 0 0-.23.04h-.05v-.04l1.33-.8.65-.13c.02-.01.04-.02.04-.05 0-.03 0-.05.02-.07h.26Z" fill="#FCAFEC"/><path d="M12.5 4.48a.1.1 0 0 1-.01.05c-.2 0-.3-.2-.42-.31l-.02-.05c.21-.02.35.16.45.31Z" fill="#F953A1"/><path d="m11 4.47.08.13c.02.02.04.04.07.04h.13l.05.05c.02.02.02.04-.02.04l-.6.1a.03.03 0 0 0-.02-.02l.25-.11c.03-.02.04-.03.02-.06-.22-.26-.5-.28-.7-.38-.03-.02-.03-.03 0-.04.33-.08.5.08.73.25Z" fill="#F87AC4"/><path d="M12.49 4.53v.04c0 .02 0 .04-.03.06l-.2.1c-.03.01-.04.03-.03.05.02.03.05.07.1.1-.03.04-.03.09.02.15.1.15.17.3.2.46h-.04a.08.08 0 0 1-.06-.04 2.36 2.36 0 0 0-.42-.63.27.27 0 0 0-.24-.05l-.02.01-.01.02v.03l.02.02.15.07c.02.01.03.03.03.06l-.02.16c0 .05-.07.06-.2.05h-.03a.07.07 0 0 0-.04.02c-.04.05-.1.08-.2.08-.03 0-.05 0-.05-.04v-.1c0-.03-.01-.05-.05-.05a.62.62 0 0 1-.22-.07.12.12 0 0 0-.08-.02l-.38.09a.79.79 0 0 0-.34-.06c-.14.01-.15-.01-.02-.06.1-.05.24-.1.39-.15l.6-.1c.03 0 .03-.02.01-.04l-.05-.05c.25-.09.45-.1.61-.03.26.11.32.06.2-.16-.03-.04-.03-.11-.02-.23.12.1.22.32.42.31Z" fill="#651284"/><path d="M7.3 4.33a.2.2 0 0 0-.02.1l-1.33.8-.1.02.3-.36c.1-.14.22-.24.35-.3.24-.13.5-.21.8-.26Z" fill="#450855"/><path d="M12.54 5.5c.08.03.15.1.23.22.04.1.1.17.2.23l.25.37v.12c-.01.02-.03.03-.06.03l-.04-.02a.15.15 0 0 1-.06-.07c-.1-.25-.26-.43-.48-.56l-.37-.23-.39-.26c.15.02.27.05.39.1.1.04.13.02.07-.07a.51.51 0 0 0-.34-.22l.02-.16c0-.03 0-.05-.03-.06l-.15-.07-.02-.02a.04.04 0 0 1 0-.05l.03-.01c.1-.02.17 0 .24.05.1.07.23.28.42.63.01.02.03.04.06.04h.03Z" fill="#F87AC4"/><path d="m10.7 4.81.02.02-.4.15c-.12.05-.11.07.03.06.1-.01.2 0 .34.06l-.41.25c-.02 0-.02.01 0 .02l.01.02h.02l.39-.2a.24.24 0 0 1 .24 0c.09.07.18.1.28.13.04.01.04.02 0 .04l-.04.02c-.03.02-.03.04 0 .05.04.02.07.04.08.06h.01v.03h-.01l-.4.2-.02.02v.02h.01c.23-.06.4-.15.54-.25.13-.1.17-.08.12.07v.1c.01.02.03.03.06.02.05 0 .08-.04.1-.1l.03-.12c0-.02.03-.04.06-.04.05 0 .09 0 .13.04-.02 0-.03 0-.04.02-.02.01-.02.03 0 .05l.34.24.03.01h.02c.05-.02.06-.05.03-.08.03 0 .05 0 .07.02.03.03.03.05 0 .06l-.36.4c-.19-.05-.4-.04-.66.02l.1-.23c.02-.03 0-.05-.03-.05a.23.23 0 0 0-.11.04.83.83 0 0 0-.66-.02l-.91.39a.43.43 0 0 1-.23.02c-.03 0-.04-.02-.02-.04l.38-.52c.07-.1.16-.2.26-.28l.02-.02V5.5l-.01-.02-.02-.01a6.31 6.31 0 0 0-.46-.1c-.15-.04-.2.01-.27.12-.14.22-.27.48-.37.78-.06.2-.2.29-.43.31l-.04-.06c.24-.07.38-.19.4-.34.03-.11 0-.13-.1-.05a9.74 9.74 0 0 0-.37.31v.04l-.03-.01a.08.08 0 0 1-.02-.03l-.01-.03c0-.15.05-.3.15-.47a.2.2 0 0 1-.02.16c-.01.02 0 .04.03.04l.07-.01c.13-.1.33-.28.45-.43l.3-.44c.16-.05.34-.13.52-.25.13-.08.4-.14.8-.19Z" fill="#B62A9B"/><path d="M12.33 4.87c.27.22.42.5.44.85a.59.59 0 0 0-.23-.23 1.05 1.05 0 0 0-.2-.46c-.04-.06-.04-.11 0-.16Z" fill="#AF46D9"/><path d="m8.36 7.96-.17-.87-.01-.02h-.06c-.02 0-.04 0-.03.03l.07.63c0 .02-.01.04-.05.04l-.19.02c-.03 0-.06.02-.07.04a.81.81 0 0 1-.12.18.1.1 0 0 1-.08.03c-.26.01-.5.08-.71.19a.08.08 0 0 0-.05.06c-.02.1 0 .17.07.22l.04.01a.1.1 0 0 0 .05 0c.16-.05.26-.04.3.03-.26.12-.5.1-.73-.07.07 0 .1-.04.08-.1l.01-.08.04-.06c.02-.02.01-.04 0-.06l-.26-.21a.1.1 0 0 1-.03-.06c-.04-.27.08-.84.52-.76.26.05.38.4.44.62 0 .05.04.08.1.1h.04c.03 0 .05-.02.05-.06v-.44c0-.02 0-.04-.02-.06-.15-.16-.36-.4-.64-.37a.65.65 0 0 0-.54.42c-.15.34-.13.67.05.98.03.05.06.09.1.1-.04.01-.06.04-.05.1a6.36 6.36 0 0 0-.2-.25.35.35 0 0 1-.08-.16l-.03-.18c0-.03-.03-.05-.07-.04h-.1c-.05.01-.06 0-.03-.03a1 1 0 0 0 .31-.63c0-.05-.01-.06-.06-.02-.06.05-.12.12-.22.16l-.47.19c-.2.08-.25.17-.34.33-.04.07-.1.21-.18.43-.01.02-.03.04-.06.05l-.13.04-.2-.01V8.4c.1-.05.18-.12.25-.2.05-.04.07-.1.06-.14.02-.06.04-.1.07-.12.1-.08.19-.18.23-.3.07-.13.11-.23.15-.28.12-.14.24-.27.36-.37.27.02.55-.04.84-.2.06-.03.08-.08.05-.14-.1-.19-.06-.37.14-.55a.12.12 0 0 1 .07-.03l.36-.02h.01l.1-.06.01-.02v-.02c0-.01 0-.02-.02-.02h-.02l-.33.02h-.02l-.02-.02-.01-.02V5.9c.02-.04.02-.07 0-.1a.1.1 0 0 1 0-.05.56.56 0 0 1 .23-.43c.3.02.57-.01.8-.1l.3-.08c.14-.06.14-.1-.02-.13l-.31-.05c.2-.05.39-.07.56-.05l.04.01.02.03a.06.06 0 0 1 0 .07l-.24.35v.07c.03.04.02.08-.03.11-.02.02-.03.04-.03.07.05.32.03.61-.08.88 0 .02-.01.03-.03.04a.09.09 0 0 1-.04 0c-.13 0-.23.01-.3.03-.04.01-.04.03-.01.05.24.16.65.24.83.39.29.23.24.65.1.93a.1.1 0 0 1-.07.05.49.49 0 0 1-.3-.03Z" fill="#6A4271"/><path d="M9.07 5.12h-.01v-.06a.22.22 0 0 1 .07-.04.9.9 0 0 1 .22-.06h.04a.92.92 0 0 1 .23 0l.08.02.03.04v.02h-.01l-.65.08Z" fill="#B62A9B"/><path d="M11.94 5.14c.14.03.25.1.34.22.06.09.04.11-.07.07a1.46 1.46 0 0 0-.39-.1c-.17.03-.22.12-.14.27-.03.06-.06.1-.1.1-.04.01-.06 0-.06-.03a.35.35 0 0 1-.01-.1c.05-.14.01-.16-.12-.06a1.72 1.72 0 0 1-.55.25v-.02l.01-.01.4-.2.01-.01.01-.01v-.02a.27.27 0 0 0-.09-.06c-.03-.01-.03-.03 0-.05l.05-.02c.03-.02.03-.03 0-.04a.85.85 0 0 1-.29-.12.24.24 0 0 0-.25-.01l-.38.2h-.02l-.02-.02v-.02l.42-.25.38-.09c.03 0 .06 0 .08.02.07.03.14.06.22.07.04 0 .05.02.05.05v.1c0 .03.02.04.05.04.1 0 .16-.03.2-.08l.04-.02h.04c.12.01.19 0 .2-.05Z" fill="#450855"/><path d="M7.96 5.21c-.23.1-.5.13-.8.1-.03-.1.04-.16.23-.2.3-.04.5-.01.57.1Z" fill="#FCAFEC"/><path d="M5.95 5.23v.03c.02.02.03.02.05.01a.84.84 0 0 1 .23-.04c.05 0 .06 0 .02.04-.1.08-.2.16-.28.29-.17.3-.4.56-.7.78 0-.45.2-.8.58-1.09l.1-.02Z" fill="#691D5B"/><path d="M9.38 5.25c-.1.16-.2.3-.31.44-.12.15-.32.33-.45.43-.03.01-.05.02-.07.01-.03 0-.04-.02-.03-.04a.2.2 0 0 0 .02-.16c-.03-.33.25-.55.84-.68Z" fill="#F953A1"/><path d="m11.82 5.33.39.26.37.23c.22.13.38.31.48.56a.15.15 0 0 0 .1.09c.03 0 .05 0 .06-.03a.24.24 0 0 0 0-.12c.03.07.03.13 0 .19a.15.15 0 0 0-.02.07v.32c-.08.01-.13.06-.15.14-.05-.19-.1-.37-.13-.56a.77.77 0 0 0-.13-.34.68.68 0 0 0-.36-.21c-.05 0-.08-.04-.08-.13.02 0 .02-.03-.01-.06-.02-.02-.04-.03-.07-.02l-.38-.24a.16.16 0 0 0-.13-.04c-.03 0-.05.02-.06.04l-.02.12c-.08-.15-.03-.24.14-.27Z" fill="#2A2251"/><path d="m11.28 5.98-.04.02c-.29.2-.61.3-.97.31-.07 0-.2.05-.4.13-.03.01-.03.02 0 .03l.54.1-.16.13c-.23.17-.61.13-.91.14a.4.4 0 0 1-.2-.03.56.56 0 0 0-.2-.06c-.06 0-.06-.02 0-.04l.4-.15c.12-.05.26-.04.39-.07.04-.01.04-.02 0-.02-.14-.01-.24 0-.33.02l-.3.07c-.14.02-.28.07-.41.12-.1.04-.1.08.01.1.2.05.25.1.17.17-.13-.04-.24-.1-.34-.16-.05-.04-.08-.07-.08-.1 0-.05.04-.08.11-.12.22-.02.37-.1.43-.3.1-.31.23-.57.37-.79.07-.1.12-.16.27-.13a6.33 6.33 0 0 1 .49.14v.02c0 .01 0 .02-.02.02-.1.09-.2.18-.26.28l-.38.52c-.02.02-.01.04.02.04.07.01.16.01.23-.02l.9-.4a.83.83 0 0 1 .67.03Z" fill="#F953A1"/><path d="m11.89 5.48.38.24c.03.03.02.06-.03.08a.06.06 0 0 1-.05 0l-.34-.25c-.02-.02-.02-.04 0-.05l.04-.02Z" fill="#F87AC4"/><path d="M10.35 5.64c.08.06.12.06.22.08.03 0 .05.02.06.04.02.04 0 .08-.06.1-.2.12-.46.24-.78.36-.1.04-.11.02-.06-.05l.43-.58c.01-.02.04-.03.1-.01l.1.06Z" fill="#F953A1"/><path d="m7.68 5.92-.07-.01c-.17-.05-.5-.02-.61-.14l-.01-.02v-.02L7 5.7h1.01c.08 0 .1.02.07.08l-.03.07c-.02.05-.07.08-.14.07l-.23-.01Z" fill="#141031"/><path d="M13.2 6.9v-.32l.02-.07c.03-.06.03-.12 0-.19l-.26-.37c.15-.16.35-.21.6-.14.23.06.31.21.43.39l.01.02v.03l-.03.03h-.03l-.58.06c-.03 0-.04.01-.04.04l.02.16c0 .02 0 .04-.03.05-.07.06-.11.17-.11.31Z" fill="#030444"/><path d="M12.35 5.8c0 .1.03.13.08.13l.07.22c-.06-.11-.16-.02-.3.27a.14.14 0 0 0-.09-.01c-.03 0-.05.02-.05.05l-.02.15a.35.35 0 0 1-.1.06c-.13-.1-.25-.14-.36-.1-.4.16-.7.25-.87.29a.11.11 0 0 0-.06-.02.3.3 0 0 1 .13-.06c.32-.07.6-.18.87-.36l.33-.22.37-.4Z" fill="#691D5B"/><path d="M7.68 5.92c.06.09.03.13-.09.13s-.14-.03-.04-.1l.06-.04.07.01Z" fill="#9B6287"/><path d="m11.32 6.22-.1.06-.35.27c-.14.1-.31.2-.5.27-.04 0-.1 0-.17-.02.03 0 .05-.03.05-.1l.16-.13.62-.27c.1-.05.17-.15.21-.3l.04-.02a.23.23 0 0 1 .11-.04c.04 0 .05.02.03.05l-.1.23Z" fill="#7B365E"/><path d="m13.05 7.04.02.12c0 .03.02.05.05.05.04.01.07 0 .09-.04.05-.12.1-.2.13-.24.02-.03.04-.02.05.01.03.14-.03.27-.17.39-.02.02-.02.03 0 .05.16.18.38.25.64.23.04 0 .05 0 0 .03-.28.15-.6.13-.93-.06-.1-.04-.12-.07-.1-.1l.02-.6a.33.33 0 0 0-.06-.2 3.4 3.4 0 0 1-.29-.53l-.07-.22c.16.04.28.1.36.2.06.07.1.19.13.35.03.19.08.37.13.56Z" fill="#F1F997"/><path d="M11.24 6c-.04.15-.11.25-.21.3l-.62.27-.54-.1c-.03-.01-.03-.02 0-.03.2-.08.33-.12.4-.13.36-.01.68-.12.97-.31Z" fill="#B62A9B"/><path d="M8.52 6.51a.18.18 0 0 1-.07-.04v-.04l.03-.03.34-.28c.1-.08.13-.06.1.05-.02.15-.16.27-.4.34Z" fill="#F953A1"/><path d="M12.5 6.15c.09.2.19.37.3.53.04.07.06.13.05.2l-.01.6c-.15.28-.18.53-.08.76-.13 0-.13.11.01.3.04.06.13.15.27.28-.26-.07-.55-.17-.64-.35a.11.11 0 0 0-.03-.04.13.13 0 0 0-.05-.02.15.15 0 0 0-.1 0l-.27.16-.09.26h-.05c0-.07 0-.13-.03-.19 0-.03-.01-.07-.05-.1-.03-.02-.03-.04.01-.06.36-.1.56-.27.6-.5v-.02l-.03-.02a.07.07 0 0 0-.07 0 .89.89 0 0 1-.4.1c0-.02-.02-.03-.02-.03a.71.71 0 0 0 .4-.7c.15-.1.22-.26.22-.46 0-.1-.05-.11-.13-.04l-.3.29c-.02.01-.02.03-.01.07h-.04l-.55.32c-.06.04-.07.03-.02-.03.05-.04.04-.08.12-.12.26-.17.4-.39.43-.67a.35.35 0 0 0 .1-.06c0 .06.07.08.17.07.02 0 .04 0 .05-.02a.1.1 0 0 0 .04-.03.08.08 0 0 0-.01-.1l-.09-.1c.14-.3.24-.4.3-.28Z" fill="#298E87"/><path d="m11.98 6.2-.33.22-.43-.14.1-.06c.25-.06.47-.07.66-.02Z" fill="#F87AC4"/><path d="m11.22 6.28.43.14c-.26.18-.55.3-.87.36a.3.3 0 0 0-.13.06c-.1.01-.2 0-.28-.02.19-.07.36-.16.5-.27l.35-.27Z" fill="#F953A1"/><path d="M6.82 6.55H6.8l-.02-.03c-.02-.04-.01-.06.03-.08.17-.08.35-.12.56-.12.03 0 .04.01.05.04v.07l-.03.02h-.04c-.13 0-.3.04-.52.1Z" fill="#141031"/><path d="m12.2 6.42.09.12.02.04-.01.05a.1.1 0 0 1-.04.03.12.12 0 0 1-.05.02c-.1.01-.16-.01-.17-.07l.02-.15c0-.03.02-.05.05-.05.03-.01.06 0 .1.01Z" fill="#A0F7A0"/><path d="M10.25 6.7c0 .07-.02.1-.05.1-.48.15-.8.24-.94.27a.44.44 0 0 1-.4-.12c.1-.06.04-.12-.16-.17-.1-.02-.11-.06-.01-.1.13-.05.27-.1.41-.12l.3-.07c.09-.02.2-.03.32-.02.05 0 .05 0 0 .02-.12.03-.26.02-.37.07l-.42.15c-.05.02-.05.03 0 .04.08 0 .15.03.21.06.05.02.11.03.2.03.3 0 .68.03.9-.14Z" fill="#B62A9B"/><path d="M11.94 6.67a.88.88 0 0 1-.43.67c-.07.04-.07.08-.12.12-.05.06-.04.07.02.03l.55-.32c.05 0 .07.03.05.08-.03.12-.06.24-.07.35-.13-.02-.23 0-.31.04-.03.02-.03.04 0 .05.05 0 .1 0 .18-.02 0 .09-.06.18-.18.3-.15-.11-.28-.1-.37.05-.06.09-.04.11.07.08l.04-.03c.02-.02.05-.02.07 0l.05.1-.13.13c-.02.03-.02.05.01.06l.12.06c.03.02.04.04.04.06 0 .08-.03.14-.06.2-.17.03-.24.07-.2.13-.07.1-.06.22.04.37-.1.05-.19.13-.27.24 0 0 0 .02-.03.04-.14.09-.2.2-.15.35-.18-.01-.24.04-.2.17-.3.13-.62.07-.95-.16L9 9.35l-.01-.02v-.01L9 9.3l.33-.17c.03-.01.03-.03 0-.04a.23.23 0 0 0-.13-.01c-.2-.11-.37-.25-.5-.43a.9.9 0 0 0 .18-.27c.18-.39.22-.79.12-1.2-.01-.02 0-.04.03-.04.3-.04.68-.12 1.17-.25.33-.08.62.2.8.35l.05.02h.09c.06 0 .07-.02.03-.06a.96.96 0 0 0-.44-.3l-.03-.03v-.02c.18-.04.47-.13.88-.29.1-.04.23 0 .36.1Z" fill="#E47F89"/><path d="M5.92 6.9a.12.12 0 0 0 .02-.04v-.02H5.9h.03c.02 0 .04 0 .06-.02l.51-.2h.03v.02c.01 0 .01 0 0 0L6 6.91h-.07Z" fill="#9B6287"/><path d="M12.23 7.3c0-.12-.09-.16-.23-.13-.01-.04-.01-.06 0-.07.12-.11.23-.2.31-.29.08-.07.12-.06.13.04 0 .2-.07.35-.21.45Z" fill="#0C3440"/><path d="M5.9 6.84h.03c.01 0 .02.01.01.02 0 .02 0 .03-.02.05-.03 0-.08.03-.15.09-.12.1-.24.23-.36.37-.04.05-.09.15-.15.29a.72.72 0 0 1-.23.3.28.28 0 0 0-.07.11c-.04.01-.07.01-.1-.01L4.85 8a7.83 7.83 0 0 0-.06-.42l.03-.02h.02c.1-.02.16.01.2.09l.03.02h.07c.02 0 .03-.02 0-.04-.2-.2-.03-.53.15-.68.15-.12.43-.1.63-.11Z" fill="#A0F7A0"/><path d="M6.62 8.48a.16.16 0 0 1-.06-.03.28.28 0 0 1-.1-.1c-.18-.32-.2-.65-.05-.99.1-.24.29-.38.54-.42.28-.03.49.2.64.37.02.02.02.04.02.06v.44c0 .04-.02.06-.06.06a.1.1 0 0 1-.04 0c-.05-.02-.08-.05-.1-.1-.05-.22-.17-.57-.43-.62-.44-.08-.56.5-.52.75 0 .03.01.05.03.07l.25.21c.02.02.03.04.01.06l-.04.06a.09.09 0 0 0-.01.07c.01.07-.01.1-.08.11Z" fill="#9B6287"/><path d="M8.36 7.96c-.1.08-.01.13.25.16.06 0 .08.03.06.08-.1.43-.48.88-1.06.82.22-.23.4-.48.54-.76 0-.01 0-.03-.02-.03L8.1 8.2c-.02 0-.04 0-.05.02-.18.24-.33.5-.68.61.05-.27.27-.22.4-.36a.49.49 0 0 0 .13-.28v-.04a.07.07 0 0 0-.04-.02l-.04-.01c-.04-.02-.07 0-.08.03 0 .05.01.08-.03.13a.75.75 0 0 1-.37.26c-.03-.07-.13-.08-.3-.03a.1.1 0 0 1-.08-.01c-.07-.05-.09-.13-.07-.22 0-.03.02-.05.05-.06.21-.11.45-.18.71-.19a.1.1 0 0 0 .08-.03c.04-.05.08-.1.12-.18.01-.02.04-.04.07-.04l.2-.02c.03 0 .04-.02.04-.04l-.07-.63c0-.02 0-.03.03-.03h.06l.01.02.17.87Z" fill="#4C325F"/><path d="M4.17 7.11c0 .06.02.1.06.1-.1.18-.1.35-.03.5.02.03 0 .04-.03.04a.19.19 0 0 1-.1-.08c-.12-.2-.08-.39.1-.56Z" fill="#9B6287"/><path d="M12 7.17c.14-.03.22.01.23.13 0 .33-.13.57-.41.7-.09.01-.15 0-.2-.04.13-.1.2-.2.2-.29.06 0 .1-.03.12-.07.01-.11.04-.23.07-.35.02-.05 0-.08-.05-.08H12Z" fill="#A0F7A0"/><path d="m6.5 8.53.15.13.02.47c0 .01 0 .02.02.02h.02c.02 0 .03-.01.03-.03v-.08c.02-.02.04-.04.08-.03.04 0 .08.02.12.04.1.13.13.29.12.47a.59.59 0 0 0-.25-.09c-.05 0-.06.01-.04.05l.21.31c.02.03.01.04-.02.03a.66.66 0 0 1-.4-.26c.03-.14 0-.2-.09-.2.03-.1 0-.17-.07-.22.02-.06 0-.1-.05-.11-.06-.02-.09-.04-.07-.07.03-.17 0-.25-.1-.22-.12-.04-.15-.1-.1-.2l-.3-.25c-.05-.05-.1-.04-.15.02a.27.27 0 0 0-.04.25c-.17.1-.04.29.06.4.02.03.02.05.02.07 0 .02 0 .02-.03 0a.8.8 0 0 0-.34-.25l-.03.03a.4.4 0 0 0 .04-.05.07.07 0 0 0 .02-.05.83.83 0 0 1 .07-.4v-.04l-.02-.01h-.03a.36.36 0 0 0-.29.22c-.05.04-.1.05-.14.04-.05-.02-.07-.05-.07-.1l.13-.03c.03-.01.05-.03.06-.05.07-.22.14-.36.18-.43.1-.16.14-.25.34-.33l.47-.2c.1-.03.16-.1.22-.15.05-.04.07-.03.06.02a1 1 0 0 1-.31.63c-.03.03-.02.04.02.04l.11-.01c.04 0 .06 0 .07.04l.03.18c0 .05.03.1.08.16l.2.24Z" fill="#667BF6"/><path d="M10.4 7.58v-.01c-.05-.15-.18-.16-.34-.19a.32.32 0 0 0-.17.02c-.04.02-.04.03 0 .04l.23.08.02.01v.03h-.02l-.03.01c-.1.01-.2 0-.32-.04 0-.05-.06-.04-.18.02l-.22-.23c-.03-.03-.02-.05.03-.04.1.01.22.01.34-.02a.86.86 0 0 1 .7.09c.17.1.2.23.08.37-.02.03-.04.02-.05 0l-.06-.14Z" fill="#141031"/><path d="M10.75 7.6a.3.3 0 0 0-.19-.25l-.01-.02v-.01l.03-.02h.02c.12.06.2.15.25.28.01.02 0 .03-.02.03h-.05c-.02 0-.03 0-.03-.02Z" fill="#7B365E"/><path d="m12.49 7.44.01-.02.02-.02a.07.07 0 0 1 .05 0l.04.01.02.01v.01l.01.02v.02l-.18.4-.02.02h-.03a.21.21 0 0 1-.09-.05c-.02-.02-.02-.04 0-.06a.7.7 0 0 0 .17-.34Z" fill="#0C3440"/><path d="M12.84 7.47c-.03.04 0 .08.09.11l.04.22c-.02.1-.02.2 0 .3 0 .02.02.04.05.06.05.03.11.05.19.06.04 0 .05.01.01.04-.03.03-.1.02-.18 0H13l-.02.03v.02c.08.15.2.24.38.28.01 0 .02.01 0 .02l-.02.02-.03.01a.8.8 0 0 1-.54-.4c-.1-.23-.07-.48.08-.77Z" fill="#FCAFEC"/><path d="M7 7.48h-.18c-.05 0-.09.04-.09.08v.04c0 .05.04.08.1.08H7c.05 0 .09-.03.09-.08v-.04c0-.04-.04-.08-.1-.08Z" fill="#9B6287"/><path d="M9.77 7.53c.12.04.23.05.32.04 0 .04.05.05.13.04l-.1.18a.1.1 0 0 0-.02.03c0-.04 0-.06-.03-.06-.26 0-.36-.08-.3-.23Z" fill="#F87AC4"/><path d="M10.4 7.57v.01l.02.15c0 .13-.1.18-.24.15l-.04-.01-.01-.03V7.8l.09-.18a.3.3 0 0 1 .18-.04Z" fill="#FEB0D0"/><path d="M11.94 7.6c-.02.04-.06.07-.13.07a.38.38 0 0 1-.17.02c-.04-.01-.04-.03-.01-.05.08-.05.18-.06.3-.04Z" fill="#0C3440"/><path d="M5.4 7.95c-.1.08-.15.16-.13.17.02.02.1-.03.2-.1.08-.09.14-.17.12-.18-.02-.02-.11.03-.2.11Z" fill="#525096"/><path d="M11.63 7.96c.04.04.1.05.19.05l.03.04-.36.12a.22.22 0 0 0-.05-.1c-.02-.02-.05-.02-.07 0a.97.97 0 0 1-.04.03c-.1.03-.13 0-.07-.08.1-.14.22-.16.37-.06Z" fill="#020114"/><path d="M11.78 8.64v.48l-.47.06c-.1-.15-.11-.27-.04-.37.08.02.13.07.15.14 0 .02.02.04.05.05.02.01.05.02.08.01.03 0 .04-.02.02-.04a.59.59 0 0 1-.1-.29.52.52 0 0 0 .06-.2c0-.02 0-.04-.04-.06l-.12-.06c-.03-.01-.03-.03 0-.06l.12-.13.36-.12a.9.9 0 0 0 .4-.11.07.07 0 0 1 .06 0l.02.02v.03c-.03.22-.23.38-.59.5-.04 0-.04.03-.01.05.04.03.05.07.05.1Z" fill="#A0F7A0"/><path d="M4.9 8.2a.86.86 0 0 1-.26.21.68.68 0 0 1-.47-.11.67.67 0 0 1 .28 0l.03-.01v-.03a.42.42 0 0 1-.13-.1c-.03-.04-.02-.05.02-.03.12.04.21.05.3.02a.27.27 0 0 0 .08-.05.07.07 0 0 1 .08-.02c.04 0 .07.05.07.13Z" fill="#F87AC4"/><path d="M7.37 8.84c-.1.08-.18.1-.25.1a.09.09 0 0 1-.07-.04.54.54 0 0 0-.4-.24l-.14-.13c0-.05.01-.08.05-.08l.06.03c.23.17.47.19.72.07a.75.75 0 0 0 .37-.26c.04-.05.03-.08.03-.13.01-.04.04-.05.08-.03h.04l.03.03c.01.02.02.03.01.04a.49.49 0 0 1-.13.28c-.13.14-.35.1-.4.36Z" fill="#141031"/><path d="m7.6 9.02-.39.07h-.08a.54.54 0 0 0-.19-.04.42.42 0 0 0-.12-.04c-.04 0-.06 0-.07.03a.15.15 0 0 0-.01.08c0 .02 0 .03-.03.03H6.7c-.01 0-.02 0-.02-.02l-.02-.47c.17.02.3.1.4.24.01.03.04.04.07.04.07 0 .16-.02.25-.1.35-.1.5-.37.68-.61.01-.02.03-.02.04-.02l.04.02c.02 0 .03.02.02.03-.14.28-.32.53-.54.76Z" fill="#6A4271"/><path d="M5.27 8.8c-.15-.03-.22-.14-.2-.32.05-.13.15-.2.28-.23h.03l.01.02.01.02v.02a.83.83 0 0 0-.07.4c0 .02 0 .04-.02.05a.4.4 0 0 1-.04.05Z" fill="#030332"/><path d="M4.85 8.43c0 .04.02.07.07.09.04.01.09 0 .14-.04-.01.18.06.29.2.33l.04-.03c-.12.12-.3.16-.54.1.05-.11.01-.27-.1-.46h.2Z" fill="#651284"/><path d="M13.04 8.82c.08.05.13.11.2.18.05.04.07.1.04.15a.08.08 0 0 0 0 .06l.23.55v.02l-.03.08h-.01a.03.03 0 0 1-.03 0h-.01a.73.73 0 0 0-.32-.44l-.72-.45-.25-.23a.25.25 0 0 0-.07-.04.23.23 0 0 1-.12-.13l.27-.15a.14.14 0 0 1 .1-.01l.05.02.03.04c.09.18.38.28.64.35Z" fill="#F1F997"/><path d="M6.07 8.54c-.04.1 0 .16.11.2a.34.34 0 0 0-.1.14c0 .03 0 .05.04.06l.16.02c-.02.03 0 .05.07.07.05.01.07.05.05.1-.05.01-.08.04-.1.09-.02.02-.04.03-.07.02l-.1.01c-.02 0-.03.03-.02.08 0 .1.07.15.2.15.04 0 .1-.04.16-.12.1 0 .12.06.09.2a.96.96 0 0 1-.87-.17c-.1-.28-.35-.28-.63-.34-.16-.04-.25-.1-.3-.17.24.06.42.02.54-.1.1.03.22.12.34.26.02.01.03.01.03-.01s0-.04-.02-.06c-.1-.12-.23-.31-.06-.41l.13-.1a.08.08 0 0 1 .08-.01l.27.1Z" fill="#A0F7A0"/><path d="M11.94 8.57c.03.06.07.1.13.13l.07.04.24.23c0 .08.03.16.1.23l.15.2c.1.19.05.36.04.56 0 .03-.01.05-.03.07a.65.65 0 0 1-.3.2l-.02-.12c.12.02.2-.01.27-.1a.1.1 0 0 0 .02-.07l-.03-.28c0-.02-.02-.04-.04-.04h-.02c-.03 0-.04 0-.05.03l-.15.46a.35.35 0 0 0-.08-.13.75.75 0 0 1-.1-.45c0-.01 0-.02-.03-.04.03 0 .04 0 .04-.02 0-.03 0-.06-.03-.08.02-.11-.02-.17-.12-.19-.13-.01-.2-.04-.22-.08v-.48l.03.18.01.02h.03v-.01l.1-.26Z" fill="#43AC8C"/><path d="M9.2 9.09a.75.75 0 0 1-.48.01.09.09 0 0 0-.07.01.07.07 0 0 0-.02.03l-.01.03c0 .13-.05.26-.16.36l-.19.18c-.27.11-.55.12-.84.02-.01 0-.02-.02-.01-.05a.35.35 0 0 0 .04-.23c.18-.01.34.04.5.13a.1.1 0 0 0 .09 0s.02 0 .03-.02l.01-.04V9.2c0-.03.02-.05.04-.07a.78.78 0 0 1 .4-.1h.03L8.57 9c0-.1.04-.22.12-.34.14.18.31.32.5.43Z" fill="#AF46D9"/><path d="M11.47 8.68c0 .1.04.2.1.29.02.02 0 .03-.02.04h-.08a.08.08 0 0 1-.06-.06c-.01-.07-.06-.12-.14-.14-.04-.06.03-.1.2-.13Z" fill="#696868"/><path d="M6.28 8.96c-.06 0-.12 0-.16-.02-.03-.01-.04-.03-.04-.06.02-.05.05-.1.1-.15.1-.02.13.06.1.23Z" fill="#141031"/><path d="M5.7 9.4a.38.38 0 0 0-.21.2c0 .02-.02.03-.03.04a.11.11 0 0 1-.1.01.1.1 0 0 1-.04-.03c-.16-.2-.24-.38-.26-.57.28.06.54.06.63.34Z" fill="#651284"/><path d="m5.9 9.14.02.21c0 .03-.02.04-.05.04-.05-.01-.1-.05-.15-.12a.13.13 0 0 1-.02-.1c0-.04.03-.07.06-.09h.08c.03 0 .05.03.05.06Z" fill="#2C2C5B"/><path d="M9.71 9.82c-.31.03-.5.2-.58.53-.03-.06-.07-.03-.13.1l-.2.43a.79.79 0 0 1-.28-.22.99.99 0 0 0-.25-.95l.19-.18c.11-.1.17-.23.16-.36v-.03l.03-.03.03-.01h.04c.16.05.32.05.48-.01h.13c.03.02.03.04 0 .05L9 9.31h-.02v.03l.01.01.72.47Z" fill="#7B365E"/><path d="M11.78 9.12c.02.04.09.07.22.08a.34.34 0 0 0-.05.15c0 .03.02.05.05.05l.12-.01c.02.02.03.05.03.08 0 .02-.01.03-.04.02a.44.44 0 0 1-.3.04 2.21 2.21 0 0 0-.77-.1c.08-.12.17-.2.27-.25l.47-.06Z" fill="#2C2C5B"/><path d="M7.46 9.45c.01.08 0 .16-.04.23a.07.07 0 0 1-.07-.03.58.58 0 0 1-.06-.45c0-.02.02-.04.05-.04h.06l.02.01v.03c0 .08 0 .16.04.25Z" fill="#667BF6"/><path d="M11.09 9.24a.16.16 0 0 1-.12.04l-.54-.04V9.2l.7-.06h.01l.01.02v.03l-.06.05Z" fill="#691D5B"/><path d="M12.12 9.39a.26.26 0 0 1-.12.02c-.03-.01-.05-.03-.05-.06 0-.04.02-.09.05-.15.1.02.14.08.12.19Z" fill="#9B6287"/><path d="m12.56 9.59-.15.02c-.06 0-.1-.02-.12-.06-.02-.03.02-.09.1-.15s.13-.05.17.03l.04.1v.04l-.02.01h-.02ZM12.11 9.5c.02 0 .03.02.03.03-.01.17.02.32.1.46a.15.15 0 0 1-.09-.12c0-.03-.02-.04-.05-.05a.1.1 0 0 0-.08.03l-.02.02a.06.06 0 0 0 0 .06c.07.1.06.2-.03.31-.2-.4-.63-.5-.96-.78.03-.02.04-.03.03-.04.23-.01.5.02.78.1.08.03.18.02.3-.03Z" fill="#A0F7A0"/><path d="m12.32 10.11.15-.46c0-.02.02-.03.05-.03h.02c.03 0 .04.02.04.04l.03.28a.1.1 0 0 1-.02.07c-.06.09-.15.12-.27.1Z" fill="#030332"/><path d="M8.27 9.7c.25.3.33.61.25.96a7.52 7.52 0 0 1-.75-.35.55.55 0 0 1-.25-.25 1 1 0 0 1-.09-.33c.3.1.57.1.84-.02Z" fill="#E47F89"/><path d="m13.74 10.2-.63-.41a.06.06 0 0 0-.08 0v.01c-.02.02-.02.05 0 .07l.63.42c.03.01.07.01.09-.01.02-.03.01-.06-.01-.08Z" fill="#298E87"/><path d="m10.86 9.81.08.23c.08.22.04.24-.13.07l-.15-.13c-.04-.13.02-.18.2-.17Z" fill="#A0F7A0"/><path d="M12.24 9.98c.04.04.06.08.08.13l.02.11.11.2v.03h-.06c-.06-.01-.08-.05-.09-.1 0-.01 0-.03-.02-.04a.1.1 0 0 0-.04-.04c-.1-.04-.17 0-.2.1 0 .03-.02.05-.04.07-.1.1-.21.18-.34.25h-.02l-.05-.01v-.01l.27-.2a.1.1 0 0 0 .03-.04.08.08 0 0 0 0-.08.1.1 0 0 0-.04-.04l-.21-.13c-.04-.02-.03-.03.01-.03.1.01.2.04.32.09.09-.12.1-.22.04-.3L12 9.9v-.03s0-.02.02-.02c0-.01.01-.02.03-.02a.1.1 0 0 1 .05 0c.03 0 .05.01.05.04.01.05.04.1.1.11Z" fill="#F1F997"/><path d="M6.57 9.91a2.48 2.48 0 0 1-.52.67v.03l.02.02h.02l.5.13c-.03.07.04.13.22.16l-.05.1-.54-.14-.24-.22a.12.12 0 0 1-.04-.1c0-.03.02-.06.05-.09.16-.14.28-.3.36-.5a.1.1 0 0 1 .06-.05c.06-.02.12-.03.16 0Z" fill="#7B365E"/><path d="m6.57 9.91.25.1c.03 0 .04.02.02.04l-.15.25c0 .02 0 .07.03.14l.4.14c.05.01.05.02 0 .03a1.2 1.2 0 0 1-.7-.02l-.01.01-.01.02v.01l.48.16a.56.56 0 0 1-.28-.03l-.5-.12-.03-.01-.02-.02v-.03l.02-.02c.2-.19.37-.4.5-.65Z" fill="#FDD0CB"/><path d="M10.08 13.3a3.47 3.47 0 0 0-.89-.9c-.09-.03-.11 0-.08.07l-.14.08c-.12-.28-.3-.45-.52-.51l-.55-.24a.1.1 0 0 1-.06-.05.53.53 0 0 1-.05-.26.1.1 0 0 0-.02-.07 1.49 1.49 0 0 0-.96-.5c-.18-.03-.25-.09-.21-.16.1.03.19.04.28.03.23.1.47.12.72.09.03 0 .04-.02.02-.05l-.37-.66.08-.16a3.7 3.7 0 0 0 1.27 1.73c.62.47 1.16.91 1.58 1.5.05.06.03.07-.04.04l-.06.02Z" fill="#141031"/><path d="m7.25 10.17.37.66c.02.03 0 .04-.02.05-.25.03-.49 0-.72-.09l-.48-.16v-.03h.03c.23.07.46.08.7.01.04 0 .04-.02 0-.03l-.41-.14.04-.14v-.01h.03v.05c-.02.03 0 .04.05.04.15-.02.3-.09.41-.21Z" fill="#4C325F"/><path d="M9.13 10.35c.49.34.83.58 1.04.7.12.07.36.16.53.2a3.62 3.62 0 0 1 .76.27h.02l.01-.02.26-.57.02-.03a.1.1 0 0 1 .04-.02h.04c.06-.01.07 0 .05.05l-.26.58.01.04.48.41c.02.02.03.03.02.05v.27l-.38.04a.1.1 0 0 0-.03.01.08.08 0 0 0-.03.03c-.03.03-.02.06.01.07a.06.06 0 0 0 .06-.01.3.3 0 0 1 .37-.01l.03.04a.02.02 0 0 1 0 .03h-.04c-.05 0-.1 0-.14.02-.04.02-.04.04 0 .06l.53.26c.06.03.1.02.15-.02l.02-.02v-.07l-.02-.01c-.12-.05-.2-.09-.28-.1-.21-.05-.21-.09 0-.13.05 0 .14.03.28.1.09.06.18.1.28.12 0 .03-.02.05-.05.07-.33.25-.7.47-1.1.66-.36.16-.78.26-1.18.37a.84.84 0 0 0-.27-.45.09.09 0 0 1-.03-.07v-.22c0-.03.02-.04.05-.03l.27.04h.03l.03-.02.22-.24v-.02h-.09l-.01.01-.14.17-.02.02a.1.1 0 0 1-.04.01h-.03l-.03-.01c-.04-.03-.14-.06-.3-.08h-.01v-.02c0-.02 0-.04.03-.06a.08.08 0 0 0 .03-.04l.05-.2c.14 0 .2.06.18.17 0 .04.01.05.05.03l.07-.02c.03-.01.04-.03.02-.07l-.02-.02c-.04-.03-.03-.05 0-.06a.37.37 0 0 1 .19 0c.03 0 .03-.01.02-.03-.16-.17-.3-.22-.57-.36-.03-.01-.04-.03-.04-.06v-.14l.01-.04a.1.1 0 0 1 .03-.03l.04-.02h.05c.15.03.3.05.43.05.3.02.58.14.87.24l.03-.01.02-.02-.02-.02c-.1-.04-.26-.13-.4-.14-.11 0-.23-.03-.36-.08-.2-.08-.46-.08-.67-.18-.02-.01-.04-.03-.04-.06v-.19c0-.03-.02-.05-.06-.05h-.4c-.04 0-.07-.02-.08-.05-.06-.24-.5-.42-.68-.52a.2.2 0 0 1-.08-.08.16.16 0 0 1-.02-.1l.06-.26c.06-.14.1-.17.13-.11Z" fill="#060E7E"/><path d="m9 10.46-.06.25c0 .04 0 .08.02.11a.2.2 0 0 0 .08.08c.19.1.62.28.68.52.01.03.04.05.07.05h.41c.04 0 .06.02.06.05v.2c0 .02.02.04.04.05.2.1.46.1.67.18.13.05.25.07.36.08.14.01.3.1.4.14.02 0 .02.02.02.02l-.02.02h-.03c-.3-.09-.58-.21-.87-.23a3.18 3.18 0 0 1-.48-.05l-.04.02a.1.1 0 0 0-.03.03V12.16c0 .03 0 .05.03.06.28.14.41.19.57.36.01.02 0 .03-.02.02a.37.37 0 0 0-.18.01c-.04.01-.05.03-.01.06l.02.02c.02.04.01.06-.02.07l-.07.02c-.04.02-.05 0-.05-.03.02-.11-.04-.17-.18-.17a.66.66 0 0 1-.35-.13 1.24 1.24 0 0 0-.25-.2.12.12 0 0 1-.05-.03.9.9 0 0 0-.41-.27.09.09 0 0 1-.03-.02l-.02-.02a.06.06 0 0 1 0-.06l.33-.48v-.04a.05.05 0 0 0-.02-.02l-.77-.43.2-.42Z" fill="#525096"/><path d="M13.07 10.82v.05a.12.12 0 0 1-.05.03.17.17 0 0 1-.16-.02l-.09-.06a.14.14 0 0 1-.03-.04.12.12 0 0 1-.02-.04.1.1 0 0 1 .02-.09h.01c.01-.02.02-.02.03-.02h.03l.26.19Z" fill="#9B6287"/><path d="m6.22 10.88.54.13c-.03.23.08.32.35.3.02.05.03.1.02.14-.3-.11-.5.03-.73.12-.11.05-.1.06.02.04l.16-.03c.05 0 .09 0 .12.02s.03.03 0 .04l-.12.04h-.01v.03l.02.02.2.04c.05 0 .05.02 0 .03l-.12.04c-.04.01-.05.03 0 .04a1.83 1.83 0 0 0 .12.04v.04c-.14.1-.27.15-.41.18l-.43.03c-.27 0-.43-.07-.49-.21l.62-1.02.14-.06Z" fill="#FEB0D0"/><path d="M8.45 12.04c-.08.07-.02.14.18.22.02.01.03.02 0 .03h-.05A4.05 4.05 0 0 0 8 12.1c-.06-.02-.09 0-.08.06v.02c0 .04.03.07.07.1.2.11.53.11.72.29a4.36 4.36 0 0 1 .64.65h.03c.04 0 .05-.02.03-.05l-.45-.63.14-.08c.16.3.3.6.62.82l.77.52a.47.47 0 0 1-.11.05c-.9.18-1.8.19-2.7.02a4.8 4.8 0 0 1-.89-.25.96.96 0 0 0 .23-.61L7.02 13a.04.04 0 0 0-.04 0c-.25.1-.44.25-.58.47l-.67-.33.03-.51c0-.02-.01-.03-.03-.04l-.03-.02c-.02 0-.02-.02 0-.03l.68-.4a1.16 1.16 0 0 0 .41-.2v-.03l-.02-.01-.1-.03c-.05-.01-.04-.03 0-.04l.12-.04c.05-.01.05-.02 0-.03l-.2-.04s-.02 0-.02-.02v-.02l.01-.01.11-.04c.04 0 .04-.02 0-.04a.16.16 0 0 0-.11-.02l-.16.03c-.13.02-.13 0-.02-.04.24-.1.43-.23.73-.12.11.08.25.1.4.08l.03-.01.01-.02v-.02l-.01-.01c-.15-.09-.3-.14-.45-.17-.27.03-.38-.06-.35-.29l.05-.09c.4.06.71.22.96.5a.1.1 0 0 1 .02.07c0 .1.02.18.05.26a.1.1 0 0 0 .06.05l.55.24Z" fill="#2C2C5B"/><path d="m6.08 10.94-.62 1.02-.35.8c.02.03 0 .02-.05-.03.12-.43.25-.74.37-.91.18-.24.33-.49.46-.74.04-.08.1-.11.19-.14Z" fill="#6A4271"/><path d="M13.53 11.28c.1.05.2.06.23.02.03-.04-.03-.12-.12-.17-.1-.05-.2-.06-.22-.02-.03.04.02.11.11.17Z" fill="#B62A9B"/><path d="M5.28 11.27a.13.13 0 0 1-.03-.02c-.01-.02 0-.03.02-.03.13-.02.23 0 .28.05.09.07.07.1-.05.1a.32.32 0 0 1-.17-.07l-.05-.03Z" fill="#667BF6"/><path d="M4.56 12.04c-.08.09-.03.17.16.25l-.17.01-.22-.25-.1-.4v-.04l.03-.01H4.38l.02.05a1 1 0 0 0 .16.4Z" fill="#060E7E"/><path d="M13.65 11.97c-.1.15-.07.29-.29.42-.06-.15-.04-.27.09-.37.05-.04.04-.06-.03-.07l-.45-.02h-.03a.07.07 0 0 1-.03-.02v-.06l.07-.04h.08c.14.06.31.07.52.04.04 0 .06.01.07.04v.08Z" fill="#525096"/><path d="M5.46 11.96c.06.14.22.21.49.2.2 0 .35 0 .43-.02l-.68.41c-.02.01-.02.02 0 .03l.03.02c.02 0 .03.02.03.04l-.03.5-.62-.37.35-.81ZM7.02 12.14c-.02 0-.03-.02-.03-.03v-.04c0-.06.04-.09.1-.08.05 0 .08.01.1.05.01.02.01.05 0 .07-.03.03-.09.04-.17.03Z" fill="#F87AC4"/><path d="M4.56 12.04c.15.04.27.1.37.17l.01.02v.04l-.02.01a.28.28 0 0 1-.2.01c-.2-.08-.24-.16-.16-.25Z" fill="#298E87"/><path d="m8.97 12.55.45.63c.02.03 0 .04-.03.05h-.05c-.16-.22-.36-.43-.62-.65-.2-.18-.51-.18-.72-.3a.12.12 0 0 1-.07-.09v-.02c0-.06.02-.08.08-.06a4.03 4.03 0 0 1 .62.18c.03-.01.02-.02 0-.03-.2-.08-.26-.15-.18-.22.23.06.4.23.52.5Z" fill="#F87AC4"/><path d="m12.14 12.28.86.36-.04.05c-.1-.03-.2-.06-.28-.12-.14-.07-.23-.1-.28-.1-.21.04-.21.08 0 .13a1.34 1.34 0 0 1 .3.11v.07l-.02.02c-.04.04-.1.05-.15.02l-.53-.26c-.04-.02-.04-.04 0-.06a.27.27 0 0 1 .14-.02.03.03 0 0 0 .03 0v-.02c.01 0 .01 0 0 0a.08.08 0 0 0-.02-.05.3.3 0 0 0-.37 0 .06.06 0 0 1-.06.02c-.03-.01-.04-.04-.01-.07l.03-.03a.1.1 0 0 1 .03-.01l.37-.04Z" fill="#651284"/><path d="m10.08 13.3.41.4c.03.02.05.06.07.11h-.06l-.77-.52c-.33-.22-.46-.51-.62-.82-.03-.08 0-.1.08-.07.03 0 .06.02.09.04.32.25.59.54.8.86Z" fill="#F87AC4"/><path d="m6.8 13.63-.4-.15A1.2 1.2 0 0 1 7 13h.02v.02l.01.01c0 .23-.08.43-.23.6Z" fill="#4C325F"/><defs><linearGradient id="a" x1="9" y1="0" x2="9" y2="18" gradientUnits="userSpaceOnUse"><stop offset=".42" stop-color="#030332"/><stop offset=".94" stop-color="#060E7E"/></linearGradient></defs></svg>