<!-- by TradingView --><svg width="18" height="18" xmlns="http://www.w3.org/2000/svg"><path fill="url(#paint0_linear)" d="M0 0h18v18H0z"/><path d="M14.839 8.657A326.58 326.58 0 0011.68 5L9.002 8.074 6.29 5.03S4.152 7.474 3.104 8.72c-.136.137-.136.394-.016.543.546.646 3.219 3.731 3.219 3.731l2.695-3.08L11.675 13l3.23-3.743c.17-.179.08-.442-.066-.6zm-10.25.514c-.083-.114-.055-.285.027-.382.343-.406 1.707-1.943 1.707-1.943l1.91 2.114-1.91 2.189c-.988-1.108-1.73-1.982-1.735-1.978zm8.586.275l-1.479 1.68L9.787 9l1.877-2.154s1.085 1.171 1.582 1.8c.188.281.13.555-.071.8z" fill="#fff"/><defs><linearGradient id="paint0_linear" x1="3.349" y1="3.122" x2="21.904" y2="24.434" gradientUnits="userSpaceOnUse"><stop stop-color="#1A1E21"/><stop offset="1" stop-color="#06060A"/></linearGradient></defs></svg>