<!-- by TradingView --><svg width="18" height="18" viewBox="0 0 18 18" xmlns="http://www.w3.org/2000/svg"><path fill="#CF0" d="M0 0h18v18H0z"/><path d="M11.19 5.69c.08.03.14.19.14.29 0 .72.02 1.65 0 2.68 0 .02.03.04.05.03.03 0 .06-.03.08-.06.08-.1.38-.73 1.29-1.89.23-.3.24-.56.25-.97 0-.32-.02-.63-.08-.95-.08-.43-.24-.74-.7-.79-.3-.03-.67-.04-1.13-.02-.56.02-.95.08-1.36.46-.41.39-.82.67-1.23 1.05a.8.8 0 0 0-.1.11.02.02 0 0 0 0 .02h.01l.02.02a686.28 686.28 0 0 0 2.76.02Z" fill="url(#a)"/><path d="M8.92 7.74a14.85 14.85 0 0 1 1.24-1.39l-.03-.02H8.14c-.21 0-.3-.01-.46.16-.36.4-.54.58-.67.74-.28.34-.54.69-.8 1.05-.08.14-.1.21-.11.36-.08.69-.1 1.42-.08 2.2a35.55 35.55 0 0 0-1 3.14.05.05 0 0 0 .03.02h.28c.03 0 .06-.02.07-.05a25.87 25.87 0 0 1 3.52-6.2Z" fill="url(#b)"/><path d="M10.67 9.34c0 .1-.04.17-.07.22l-1.02 1.58c-.07.1-.1.13-.21.16a619.47 619.47 0 0 1-2.47.72l-.01-.01v-.03a29.46 29.46 0 0 1 3.72-5.28c.02 0 .05 0 .06.03v2.61Z" fill="url(#c)"/><defs><linearGradient id="a" x1="13.87" y1="4.64" x2="8.03" y2="14.52" gradientUnits="userSpaceOnUse"><stop stop-color="#18EB99"/><stop offset=".45" stop-color="#4EA8C2"/></linearGradient><linearGradient id="b" x1="13.87" y1="4.64" x2="8.03" y2="14.52" gradientUnits="userSpaceOnUse"><stop stop-color="#18EB99"/><stop offset=".45" stop-color="#4EA8C2"/><stop offset="1" stop-color="#9C44FE"/></linearGradient><linearGradient id="c" x1="13.87" y1="4.64" x2="8.03" y2="14.52" gradientUnits="userSpaceOnUse"><stop stop-color="#18EB99"/><stop offset=".45" stop-color="#4EA8C2"/><stop offset="1" stop-color="#9C44FE"/></linearGradient></defs></svg>