<!-- by TradingView --><svg width="18" height="18" viewBox="0 0 18 18" xmlns="http://www.w3.org/2000/svg"><path fill="#F0F3FA" d="M0 0h18v18H0z"/><path d="m9 12-2.5-1.5L4 12l2.5 1.5L9 12Z" fill="url(#a)"/><path d="M6.5 13.5 9 15v-3l-2.5 1.5Z" fill="#11FA98"/><path d="M11.5 10.5 9 12v3l5-3-2.5-1.5Z" fill="url(#b)"/><path d="M11.5 10.5 9 9l2.5-1.5L14 9v3l-2.5-1.5Z" fill="url(#c)"/><path d="M4 6v3l2.5 1.5L9 9 6.5 7.5 4 6Z" fill="url(#d)"/><path d="M9 6V3L4 6l2.5 1.5L9 6Z" fill="url(#e)"/><path d="m9 6 2.5-1.5L9 3v3Z" fill="#11FA98"/><path d="m14 6-2.5 1.5L9 6l2.5-1.5L14 6Z" fill="url(#f)"/><defs><linearGradient id="a" x1="6.93" y1="8.01" x2="9.54" y2="11.01" gradientUnits="userSpaceOnUse"><stop stop-color="#EDF1F9"/><stop offset="1" stop-color="#A5ACBC"/></linearGradient><linearGradient id="b" x1="14.63" y1="11.74" x2="8.17" y2="15.29" gradientUnits="userSpaceOnUse"><stop stop-color="#222935"/><stop offset="1" stop-color="#EDF1F9"/></linearGradient><linearGradient id="c" x1="11.5" y1="5.23" x2="13.76" y2="12.16" gradientUnits="userSpaceOnUse"><stop stop-color="#EDF1F9"/><stop offset="1" stop-color="#A5ACBC"/></linearGradient><linearGradient id="d" x1="4.58" y1="3.43" x2="7.14" y2="10.71" gradientUnits="userSpaceOnUse"><stop stop-color="#EDF1F9"/><stop offset="1" stop-color="#A5ACBC"/></linearGradient><linearGradient id="e" x1="2.43" y1="7.54" x2="8.86" y2="1.19" gradientUnits="userSpaceOnUse"><stop stop-color="#222935"/><stop offset="1" stop-color="#EDF1F9"/></linearGradient><linearGradient id="f" x1="7.21" y1="2.1" x2="13.29" y2="3.49" gradientUnits="userSpaceOnUse"><stop stop-color="#EDF1F9"/><stop offset="1" stop-color="#A5ACBC"/></linearGradient></defs></svg>