<!-- by TradingView --><svg width="18" height="18" viewBox="0 0 18 18" xmlns="http://www.w3.org/2000/svg"><path fill="#181B1E" d="M0 0h18v18H0z"/><path fill-rule="evenodd" d="M13.84 6.47a.34.34 0 0 0 .16-.3.34.34 0 0 0-.17-.3L9 3 4 6.1V9.2l2 1.23-1.84 1.1a.34.34 0 0 0-.16.3c0 .12.05.24.17.3L9 15 14 11.9V8.8L12 7.6l1.84-1.12ZM9.54 9l1.92-1.06 1.79 1.03-1.8 1.14L9.54 9Zm-2.39 1.42 1.86-1.07 1.93 1.07L9 11.47l-1.85-1.05Zm-.51.31L8.67 12v2.22l-3.97-2.4 1.94-1.09Zm6.66-4.55-3.97-2.4V6l2.03 1.24 1.94-1.06ZM10.83 7.6 9 6.46 7.06 7.6 9 8.65l1.83-1.05ZM8.46 9 6.54 7.94l-1.79 1.1 1.79 1.13L8.46 9ZM4.77 6.25l3.9-2.46v2.2L6.54 7.24l-1.77-1Zm-.25.46v1.84L6 7.58l-1.48-.87Zm8.7 5.04-3.89 2.46v-2.2l2.14-1.28 1.76 1.02Zm.26-.46V9.45l-1.48.97 1.48.87Z" fill="#FABF00"/></svg>