<!-- by TradingView --><svg width="18" height="18" viewBox="0 0 18 18" xmlns="http://www.w3.org/2000/svg"><path fill="#F0F3FA" d="M0 0h18v18H0z"/><path d="m12.05 5.09.92 1.64c.08.12-.01.27-.16.27H8.27a.2.2 0 0 0-.15.08L6.7 8.8a.16.16 0 0 0 0 .17l.95 1.77c.06.12-.03.26-.17.26H5.6a.2.2 0 0 1-.16-.08l-1.4-1.94a.17.17 0 0 1-.01-.2l2.56-3.7A.2.2 0 0 1 6.75 5h5.14a.2.2 0 0 1 .16.09Z" fill="#23D2A7"/><path d="m9.62 9.6.97-1.52c.07-.1.25-.1.33-.02l3.04 3.04c.05.05.05.13 0 .18l-1.6 1.66a.22.22 0 0 1-.16.06h-5c-.16 0-.25-.13-.17-.23l1.3-1.7c.04-.04.1-.07.17-.07h2.22c.16 0 .25-.15.15-.25l-1.23-1c-.05-.04-.06-.1-.02-.16Z" fill="#23D2A7"/></svg>