<!-- by TradingView --><svg width="18" height="18" viewBox="0 0 18 18" xmlns="http://www.w3.org/2000/svg"><path fill="url(#ayrd5tgry)" d="M0 0h18v18H0z"/><path d="M9 6V4H5l1 1.67V12h-.31L5 14h4v-2H8v-2h1V8H8V6h1ZM10 6V4c2 0 3 1.43 3 2.5 0 1.14-.42 1.86-.87 1.89.7.12 1.87 1.18 1.87 2.48 0 2.28-1.94 3.1-2.9 3.13H10v-2h.38c.1 0 1.62 0 1.62-1s-1.24-.97-1.67-1H10V8c.22 0 1 0 1-1s-.46-1-1-1Z" fill="#F0F3FA"/><defs><linearGradient id="ayrd5tgry" x1="9" y1="0" x2="9" y2="18" gradientUnits="userSpaceOnUse"><stop stop-color="#008DE7"/><stop offset="1" stop-color="#173780"/></linearGradient></defs></svg>