<!-- by TradingView --><svg width="18" height="18" viewBox="0 0 18 18" xmlns="http://www.w3.org/2000/svg"><path fill="#F0F3FA" d="M0 0h18v18H0z"/><circle cx="9" cy="9" r="6" fill="url(#affbh2xph)"/><path fill-rule="evenodd" d="M9 14.65a5.65 5.65 0 1 0 0-11.3 5.65 5.65 0 0 0 0 11.3ZM9 15A6 6 0 1 0 9 3a6 6 0 0 0 0 12Z" fill="url(#bffbh2xph)"/><path fill-rule="evenodd" d="M12.34 9a3.34 3.34 0 1 1-6.68 0 3.34 3.34 0 0 1 6.68 0Zm1.95 0A5.3 5.3 0 1 1 3.71 9a5.3 5.3 0 0 1 10.58 0ZM8.25 4.07c-.05.1-.1.3.06.3.2.03.18-.18.12-.26-.06-.08.02-.1.12-.1.1 0 .18.08.18.22 0 .15-.08.41-.42.4-.33-.03-.33-.29-.33-.35 0-.05.08-.25.27-.2Zm2.15.19a4.9 4.9 0 0 1 3.4 3.38 5.33 5.33 0 0 0-2.23-1.23 4.38 4.38 0 0 0-1.17-2.15ZM4.28 7.62a6.35 6.35 0 0 1 2.11-1.19c.18-.5.67-1.62 1.2-2.15-.42.08-1.36.48-2.15 1.3a4.94 4.94 0 0 0-1.16 2.04Zm1.05-.43c-.2.03-.14.32-.08.47 0-.2.08-.26.13-.27.22.04.25.56.23.9.07-.6.38-1.03.54-1.18v-.35a.8.8 0 0 0-.47.71c-.03-.1-.13-.32-.35-.28Zm-.67.43-.3.24.04.57.26-.06v-.75Zm-.65 1.03v.2c0 .03.05.09.16.09v-.08c-.02 0-.07-.02-.06-.19l-.1-.02Zm.12.47L4 8.98v.61h.12c0-.05.02-.14.1-.12.09.01.2.2.25.3l.55.78.49-.67.02-.76c-.28.06-.32.29-.38.56v.03c-.06.23-.14.29-.17.29l-.04-.61H4.8v.57l-.34-.84h-.33ZM5.3 10.8c.24-.1.33-.2.45-.49l.51.94-.96-.45Zm2.49 1.43-1.06-.45.63 1.1c.02-.3.3-.56.43-.65Zm-3.57-1.8c.4.36 1.38 1.1 2.18 1.2.28.64.93 1.96 1.29 2.19-.41-.12-1.4-.51-2.12-1.17a5.73 5.73 0 0 1-1.35-2.21Zm4.55 2.94c-.04-.06-.1-.03-.15 0a.26.26 0 0 1-.12.04c-.1 0-.14-.12-.14-.2 0-.09.1-.33.38-.33.44 0 .43.4.43.57v.02c0 .2-.28.47-.4.5h.34c.05-.09.18-.28.35-.3.16-.01.19.2.18.3h.22c-.08-1.01-.69-1.34-1.12-1.34-.4 0-.63.29-.63.57 0 .29.19.43.39.43s.35-.14.27-.26Zm.38-.88h.35c.01.03.07.08.2.08s.18-.12.19-.18c.3-.07 1-.28 1.36-.57-.12.25-.38.8-.45.98-.04-.13-.19-.38-.45-.35a.63.63 0 0 0-.53.35H9.4l-.25-.3Zm.78.71c0 .27.15.44.22.5a2.1 2.1 0 0 1-.04-.5c.02-.16.12-.2.18-.2s.19.06.19.14c0 .13-.11.22-.17.25a.33.33 0 0 0 .29-.33c0-.16-.12-.28-.3-.28-.2 0-.37.1-.37.42Zm1.73-1.56c.49-.18 1.6-.67 2.13-1.2-.07.38-.4 1.33-1.14 2.01-.91.86-1.5 1.2-2.24 1.35.34-.4 1.05-1.4 1.25-2.16Zm1.22-.9h-.53l.16.22.37-.22Zm-.84.14-.3.43.34-.1-.04-.33Zm.43-1.1c-.06.22-.16.4-.2.47l.32-.08-.12-.39Zm-.24.66-.15.18.72-.02c.15-.02.5-.1.69-.3.23-.25.22-.41.22-.5v-.02c0-.08-.04-.2-.26-.2-.23 0-.23.08-.23.14 0 .03.05.05.1.07.03.01.08.03.09.05.02.07 0 .13-.12.1-.13-.01-.23-.07-.25-.32-.02-.24.1-.4.4-.4.31 0 .52.26.52.4 0 .11-.08.27-.12.33H14v-1.4c-.1.17-.36.53-.57.54-.16.01-.23 0-.3-.02l-.13-.02c-.14 0-.43.08-.43.47 0 .2.12.27.22.32.09.05.17.1.15.23-.04.28-.24.37-.73.37Zm.81-2.08c.1.05.14-.02.14-.06l.02-.01c.05-.03.1-.07.1.09 0 .18-.22.26-.36.26-.14 0-.37-.12-.39-.49-.02-.36.25-.55.5-.55.19 0 .28.03.3.05-.02-.15-.21-.19-.3-.19-.64.04-.7.53-.7.7 0 .16.08.67.59.65.5-.02.59-.3.61-.5.02-.18-.16-.42-.4-.38-.25.04-.23.37-.1.43ZM11.8 6.76l.5.24c0 .08-.01.29-.1.53L11.84 7l-.04-.24Zm-.98-1.47-.47.45.96.51-.49-.96Zm-3.54-.08L6.7 6.25l.9-.39-.07-.34-.1.22-.16-.53Zm.39-.5-.19.16.25.25-.06-.42Zm.65.87-.15-.29h.09l.18.25-.12.04Zm2.5-.4-.3.28-.1-.06.26-.31.14.08Zm-1.04.46.68-.88-.37-.48-.16.81c-.07-.2-.32-.58-.76-.55-.55.04-.6.4-.6.63 0 .23.15.37.42.37.26 0 .28-.08.28-.16 0-.09-.04-.17-.1-.13-.02.02-.02.03-.02.05 0 .01 0 .02-.06.03-.1.02-.24 0-.24-.16s.12-.4.32-.4.55.18.51.52c-.03.28-.01.35 0 .35h.1Z" fill="url(#cffbh2xph)"/><path d="M7.2 10.88c.04.23-.16.5-.28.59.35 0 .52-.18.57-.27.56.1.7-.17.72-.45.02-.27-.16-.53-.37-.55-.17-.02-.3.12-.35.2.1-.05.33.01.35.16.02.15-.08.2-.19.2-.1 0-.52-.4-.16-1.03.35-.63.62-.73 1.7-.9 1.14-.2 1.89-1 1.85-1.79a.9.9 0 0 0-.86-.86c.1.3.21 1.52-1.24 1.94-1.45.43-1.85.77-2.02 1.32-.16.55.21 1.14.27 1.44Z" fill="url(#dffbh2xph)"/><path d="M9.19 9.04c-.63.05-1.16.34-1.35.48.05.07.4.21 1.35.21.94 0 1.68-.69 1.93-1.03v-.91c-.33.74-1.14 1.18-1.93 1.25Z" fill="url(#effbh2xph)"/><path d="M9.19 9.95a6.11 6.11 0 0 1-1.27-.13c.28.17.96.52 1.5.57.53.05 1-.1 1.16-.19.31-.2.49-.8.54-1.08-.35.5-1.37.8-1.93.83Z" fill="url(#fffbh2xph)"/><path d="M10.45 10.48a3.58 3.58 0 0 1-2.18-.22c.44.66 1.28.76 1.64.72.3-.08.49-.37.54-.5Z" fill="url(#gffbh2xph)"/><path d="M9.5 11.15c-.33.02-.82-.26-1.02-.4.12.32.4.5.52.55.18 0 .4-.1.5-.15Z" fill="url(#hffbh2xph)"/><path fill-rule="evenodd" d="M6.43 5.76c0 .1-.09.19-.19.19h-.19v-.19a.19.19 0 0 1 .38 0Zm.1 0c0 .16-.13.3-.29.3h-.19v.18a.29.29 0 1 1-.29-.3h.19v-.18a.29.29 0 0 1 .58 0Zm-.96.48c0-.1.09-.19.2-.19h.18v.19a.19.19 0 1 1-.38 0Z" fill="#E5E5E5"/><path fill-rule="evenodd" d="M6.43 12.6c0-.11-.09-.2-.19-.2h-.19v.2a.19.19 0 0 0 .38 0Zm.1 0a.29.29 0 0 0-.29-.3h-.19v-.19a.29.29 0 1 0-.29.3h.19v.18a.29.29 0 0 0 .58 0Zm-.96-.49c0 .1.09.2.2.2h.18v-.2a.19.19 0 0 0-.38 0Z" fill="url(#iffbh2xph)"/><path fill-rule="evenodd" d="M11.93 5.76c0 .1.08.19.18.19h.2v-.19a.19.19 0 0 0-.38 0Zm-.1 0c0 .16.12.3.28.3h.2v.18a.29.29 0 1 0 .28-.3h-.19v-.18a.29.29 0 1 0-.58 0Zm.95.48c0-.1-.09-.19-.19-.19h-.19v.19a.19.19 0 0 0 .38 0Z" fill="url(#jffbh2xph)"/><path fill-rule="evenodd" d="M11.65 12.24c0-.16.13-.3.29-.3h.19v-.18a.29.29 0 1 1 .29.3h-.2v.18a.29.29 0 1 1-.57 0Zm.1 0c0-.1.08-.19.19-.19h.19v.19a.19.19 0 1 1-.38 0Zm.85-.48c0 .1-.08.19-.18.19h-.2v-.19a.19.19 0 0 1 .38 0Z" fill="url(#kffbh2xph)"/><defs><linearGradient id="affbh2xph" x1="6.1" y1="4.04" x2="11.78" y2="14.02" gradientUnits="userSpaceOnUse"><stop stop-color="#D2D2D2"/><stop offset=".16" stop-color="#BEBEBE"/><stop offset=".37" stop-color="#CBC9C7"/><stop offset=".7" stop-color="#7E7D7D"/></linearGradient><linearGradient id="bffbh2xph" x1="6.1" y1="4.04" x2="11.78" y2="14.02" gradientUnits="userSpaceOnUse"><stop stop-color="#F2F2F2"/><stop offset=".22" stop-color="#9B9A99"/><stop offset=".43" stop-color="#706F6E"/><stop offset=".66" stop-color="#ECEDED"/><stop offset="1" stop-color="#C1C1C1"/></linearGradient><linearGradient id="cffbh2xph" x1="5.33" y1="5.17" x2="12.5" y2="12.75" gradientUnits="userSpaceOnUse"><stop stop-color="#DBDBDB"/><stop offset=".21" stop-color="#FBFBFB"/><stop offset=".38" stop-color="#E3E3E3"/><stop offset=".6" stop-color="#B5B4B4"/><stop offset=".77" stop-color="#BBB"/><stop offset="1" stop-color="#908F8E"/></linearGradient><linearGradient id="dffbh2xph" x1="6.88" y1="9.06" x2="11.12" y2="9.16" gradientUnits="userSpaceOnUse"><stop stop-color="#DEDEDE"/><stop offset=".48" stop-color="#fff"/><stop offset=".71" stop-color="#DEDEDE"/><stop offset="1" stop-color="#C6C5C4"/></linearGradient><linearGradient id="effbh2xph" x1="6.88" y1="9.06" x2="11.12" y2="9.16" gradientUnits="userSpaceOnUse"><stop stop-color="#DEDEDE"/><stop offset=".48" stop-color="#fff"/><stop offset=".71" stop-color="#DEDEDE"/><stop offset="1" stop-color="#C6C5C4"/></linearGradient><linearGradient id="fffbh2xph" x1="6.88" y1="9.06" x2="11.12" y2="9.16" gradientUnits="userSpaceOnUse"><stop stop-color="#DEDEDE"/><stop offset=".48" stop-color="#fff"/><stop offset=".71" stop-color="#DEDEDE"/><stop offset="1" stop-color="#C6C5C4"/></linearGradient><linearGradient id="gffbh2xph" x1="6.88" y1="9.06" x2="11.12" y2="9.16" gradientUnits="userSpaceOnUse"><stop stop-color="#DEDEDE"/><stop offset=".48" stop-color="#fff"/><stop offset=".71" stop-color="#DEDEDE"/><stop offset="1" stop-color="#C6C5C4"/></linearGradient><linearGradient id="hffbh2xph" x1="6.88" y1="9.06" x2="11.12" y2="9.16" gradientUnits="userSpaceOnUse"><stop offset=".48" stop-color="#fff"/><stop offset="1" stop-color="#C6C5C4"/></linearGradient><linearGradient id="iffbh2xph" x1="5.47" y1="12.06" x2="6.43" y2="12.88" gradientUnits="userSpaceOnUse"><stop stop-color="#D1D1D1"/><stop offset=".48" stop-color="#fff"/><stop offset="1" stop-color="#838281"/></linearGradient><linearGradient id="jffbh2xph" x1="11.98" y1="5.59" x2="12.74" y2="6.38" gradientUnits="userSpaceOnUse"><stop stop-color="#D7D7D7"/><stop offset=".47" stop-color="#F4F4F4"/><stop offset="1" stop-color="#A2A1A1"/></linearGradient><linearGradient id="kffbh2xph" x1="12.01" y1="12.02" x2="12.37" y2="12.36" gradientUnits="userSpaceOnUse"><stop stop-color="#C9C9C9"/><stop offset="1" stop-color="#747373"/></linearGradient></defs></svg>