<!-- by TradingView --><svg width="18" height="18" viewBox="0 0 18 18" xmlns="http://www.w3.org/2000/svg"><path fill="url(#az1ueaq4g)" d="M0 0h18v18H0z"/><path d="M12.09 5.07a.73.73 0 0 0-.21.05l-.2.06c-.13.03-.2.11-.33.14-.16.04-.33.05-.5.03v-.03a2.26 2.26 0 0 0 .46-.05v-.04h-.02a3.08 3.08 0 0 1-.26-.09.02.02 0 0 1 .02-.01c.2 0 .5.05.7-.02.05-.02.05-.03 0-.04a4.2 4.2 0 0 0-.4-.03c-.17-.01-.32-.09-.5-.12a.09.09 0 0 1-.05-.03l-.21-.26c-.02-.02-.04-.02-.05 0-.28.3-.63.44-1.05.41-.28-.01-.56 0-.75-.24-.01-.02-.03-.03-.06-.02-.38.14-.8.17-1.24.1a4.9 4.9 0 0 0-.3-.04c-.15-.01-.25-.1-.38-.17a.05.05 0 0 0-.05 0 1.7 1.7 0 0 1-.73.35 5 5 0 0 1 6.1.05Z" fill="#2C2716"/><path d="M12.09 5.07a4 4 0 0 1 .65.6.65.65 0 0 1-.39.12c-.3-.01-.54 0-.67-.29.1-.05.37-.15.42-.26.06-.11.05-.13-.04-.04-.12.12-.26.2-.43.26-.09.03-.24.04-.46.05-.17 0-.33.02-.48.05l-.21-.13a.06.06 0 0 0-.06 0c-.4.15-.8.17-1.2.06-.11-.03-.2-.12-.29-.27-.25.08-.48.12-.66.13-.24.02-.48-.01-.73-.09-.03 0-.03 0-.02.02.01.02.03.03.06.03.04.01.04.03.01.06a1 1 0 0 1-.7.33c-.34.01-.67-.06-1-.24a.13.13 0 0 1-.05-.04.36.36 0 0 0-.08-.08c-.02-.02-.03-.02-.02.01.05.17.25.24.4.29a.02.02 0 0 1 0 .04.7.7 0 0 1-.57.07 11.65 11.65 0 0 0-.26-.06l-.02.02v.02l-.06-.02c.23-.27.48-.5.75-.69.27-.06.51-.17.73-.35a.05.05 0 0 1 .05 0c.13.06.23.16.38.17l.3.04c.44.07.86.04 1.24-.1.03 0 .04 0 .06.02.2.24.47.23.75.24.42.03.77-.11 1.05-.41.01-.02.03-.02.04 0l.22.26c.01.02.03.03.05.03.18.03.33.1.5.12.14 0 .27.02.4.03.05.01.05.02 0 .04-.2.07-.5.03-.7.02a.02.02 0 0 0-.02.01l.01.02a3.1 3.1 0 0 0 .26.07l.01.01v.03l-.02.02-.43.03c-.01 0-.02 0-.02.02h.01c.17.03.34.02.5-.02.13-.03.2-.1.33-.14l.2-.06a.73.73 0 0 1 .2-.05Z" fill="#4F4326"/><path d="M11.68 5.5a.66.66 0 0 0-.24.08c-.03.01-.03.03 0 .03h.15a.06.06 0 0 1 .08.06l-.03.7a.05.05 0 0 0 .01.03.05.05 0 0 0 .04.02c.54-.06 1.23.05 1.51.54.26.42-.06.83-.45 1.02-.18.1-.36.15-.54.17-.02 0-.03.02-.03.04l.03.05a14.6 14.6 0 0 0 .71.67l.01-.01.17-.62h.03l-.19.69a13.42 13.42 0 0 1-.88-.8v.08l.01.03.87.85a.04.04 0 0 0 .03 0 .04.04 0 0 0 .03-.02l.19-.69c.05-.2.15-.4.23-.6.04-.1.13-.18.2-.27a.11.11 0 0 0 .04-.06c0-.05.02-.09.04-.12.03 0 .04.01.04.04a.24.24 0 0 0-.05.11l-.03.06c-.08.07-.15.14-.2.24-.11.24-.2.45-.24.64l-.21.73c0 .03-.02.03-.05.01l-.9-.89a.14.14 0 0 1-.04-.08.05.05 0 0 0-.05-.04c-.11 0-.22 0-.32-.02a.08.08 0 0 0-.07.04c-.17.23-.33.5-.48.82a.58.58 0 0 0-.07.26c0 .19 0 .37-.03.54 0 .02 0 .02.02.01.13-.07.26-.12.38-.14.02 0 .03-.02.03-.05a2.93 2.93 0 0 1 0-.5.08.08 0 0 1 .08-.07h.06l-.05.06c-.01.01 0 .02.01.02l.63.01a.03.03 0 0 0 .03-.03l-.03-.06c.24.1.36.23.36.36-.01.04-.03.02-.04-.05 0-.08-.06-.13-.17-.15-.03 0-.04.01-.04.04v.05c.01.03.03.04.06.05.03 0 .05.02.06.05-.1-.04-.13 0-.1.13 0 .02 0 .03.03.02h.02c.05.01.05.02 0 .04-.07.03-.1.07-.09.13l.01.01h.02c.04 0 .04 0 0 .02-.04.03-.06.08-.05.15a.05.05 0 0 1-.03.05h-.02l-.61.01a.08.08 0 0 1-.09-.07l-.03-.16c0-.02-.01-.03-.03-.02-.13.04-.35.11-.43.23a.13.13 0 0 0 .04.17c.1.07.2.1.31.12.61.1 1.23.14 1.85.13-.01.04.02.06.1.06-.55.02-1.1 0-1.65-.07a2.3 2.3 0 0 1-.7-.2c-.02 0-.04 0-.04.03v.32a.07.07 0 0 0 .04.06c.11.07.23.12.36.14.62.1 1.25.11 1.88.12-.01.01 0 .03.02.05l-.12.02c-.02 0-.03.02-.03.04v.68c0 .02.01.04.03.04l.11.03h-.01c-.1.01-.15.07-.14.17 0 .02 0 .03-.04.03v-.36c0-.04-.02-.06-.06-.06h-.17v.01a.47.47 0 0 1 .2-.03c.02 0 .03 0 .03-.03v-.08a.02.02 0 0 0 0-.02h-.02l-.2.04a.06.06 0 0 0-.04.04l-.02.02c-.02.02-.03.02-.02-.01.01-.17 0-.33-.02-.5 0-.03-.03-.04-.06-.02h-.04l-.7-.03c-.04 0-.07.02-.07.06v.33a.07.07 0 0 0 .02.05.07.07 0 0 0 .05.02c.15 0 .28 0 .4.05.03 0 .05 0 .06-.03l.16-.27h.01v.03c-.09.2-.2.36-.3.47-.26.23-.6.47-1.05.7a.38.38 0 0 0-.13.1l-.28.39a.97.97 0 0 0-.15.33 800.81 800.81 0 0 0-.17.58l-.02-.01v-.02l.15-.58c.06-.26.24-.44.38-.65a.74.74 0 0 1 .24-.2 6.49 6.49 0 0 0 .57-.37.1.1 0 0 0 .02-.05v-.75c0-.04-.02-.05-.06-.04l-.16.05a.1.1 0 0 0-.06.09l-.01.86c-.03 0-.04-.01-.04-.04.02-.18.01-.35 0-.53v-.58c0-.04-.01-.06-.05-.06l-.08-.02c-.03 0-.04.01-.05.04l-.07.36c-.04.15-.17.25-.26.37l.01.03h.02c.07-.06.15-.1.24-.09l-.33.17c-.02.02-.03.01-.02-.02.06-.12.13-.23.22-.32.04-.05.07-.1.1-.18l-.01-.04c-.02-.05-.05-.06-.1-.03a2.21 2.21 0 0 1-.62.34c-.06 0-.07-.01-.03-.03.34-.1.61-.3.81-.6.02-.01.01-.03-.01-.03-.19-.02-.4-.07-.39-.3.01-.17-.04-.44.1-.55a.06.06 0 0 0 .01-.09 5.9 5.9 0 0 1-.3-.5.54.54 0 0 1-.06-.33v-.01a.03.03 0 0 0-.02-.02h-.03a.05.05 0 0 0-.02.03 1.3 1.3 0 0 0-.09.42c0 .32-.01.65.01.97a2.56 2.56 0 0 1-.02.5h-.01l-.02-1a2.33 2.33 0 0 1 .12-1l-.02-.02h-.05c-.1.21-.14.43-.13.67l-.03-.14c-.02-.1.03-.23.03-.33 0-.04 0-.05-.03-.02-.27.3-.58.3-.93.22-.03-.01-.04 0-.04.03 0 .18.03.34.1.48.07.18.1.37.08.56 0 .02.01.04.03.04.12.01.17.1.16.26 0 .03.02.05.05.04.2-.05.33.05.26.25-.02.04 0 .05.03.05h.18l.05-.02a60.83 60.83 0 0 1 .07-.18c0 .16-.05.3-.1.44l-.03.06-.1.11c-.15.1-.11.06.11-.16a.09.09 0 0 0 .02-.1.09.09 0 0 0-.08-.05c-.2 0-.4.02-.6.08-.02 0-.03.02-.03.04l.01.11c-.04-.02-.06-.01-.07.02a33.69 33.69 0 0 0-.17 1.12.05.05 0 0 1-.03-.05l-.01-1.15a.02.02 0 0 0-.01-.01h-.02l-.2.05a.06.06 0 0 0-.04.04.2.2 0 0 0 0 .07c-.02.01-.03 0-.03-.02l-.01-.04a.04.04 0 0 0-.04-.03.35.35 0 0 1-.13-.05.4.4 0 0 0-.04-.12.05.05 0 0 0-.05-.02c-.04 0-.06.02-.07.06l.01 1.21c-.03.02-.1.02-.21.01-.03 0-.04-.02-.04-.04v-1.2c0-.02-.01-.03-.04-.03h-.46c-.02 0-.03.01-.03.03l-.01 1.28-.01.03-.03.01c-.13.03-.2 0-.22-.06.07.04.14.05.2.03.03-.01.04-.03.04-.05l-.01-1.17c0-.06-.03-.08-.09-.07h-.01c-.08 0-.11.05-.12.13l-.02.68v-.8c0-.03 0-.04-.03-.04-.27 0-.4-.02-.38-.33 0-.03 0-.04-.03-.04-.13.01-.21-.05-.27-.2a2.67 2.67 0 0 1-.06-1.06.46.46 0 0 1 .2-.35.06.06 0 0 0 .02-.05c0-.38.17-.63.48-.81a.06.06 0 0 0 .03-.07l-.04-.35a.11.11 0 0 0-.02-.06.28.28 0 0 1-.04-.29c.02-.05.08-.09.07-.17.03-.02.04-.04.04-.05-.02-.16-.04-.35.08-.47.05-.06.13-.05.19-.1a.07.07 0 0 0 .03-.06v-.42c0-.03-.01-.04-.04-.04A149.32 149.32 0 0 1 6 6.2a.05.05 0 0 0-.02.04h-.04l-.01.02L5.9 6a.02.02 0 0 1 .02-.02H8.3c.03 0 .04.02.05.05V7a.01.01 0 0 0 .02 0c.2-.2.36.11.29.3a.04.04 0 0 0 0 .03.04.04 0 0 0 .03.02c.2.03.36.14.48.33a.1.1 0 0 0 .05.04c.27.12.37.33.29.65 0 .03 0 .05.03.04.1-.01.2-.02.29-.01.02 0 .04 0 .06-.02.33-.17.77 0 .52.44-.02.03-.02.04.02.01a.18.18 0 0 0 .06-.1.07.07 0 0 1 .05-.06.18.18 0 0 0 .1-.08c.01-.03.02-.03.02.01-.02.27.04.52.17.74.03.05.05.04.05-.01 0-.1 0-.2.04-.29.12-.24.28-.52.47-.84.02-.02.04-.03.06-.02-.16.26-.31.52-.45.8a.92.92 0 0 0-.07.48c0 .03-.02.04-.04.01-.16-.14-.17-.32-.23-.5-.04-.1-.02-.2-.03-.29 0-.03-.01-.04-.04-.02a.35.35 0 0 0-.09.15v.02l.01.02c.07.06.1.13.1.2.02.25.18.47.33.67.02.03.03.02.03 0 .03-.16.04-.3.04-.46 0-.09.02-.17.06-.25.14-.3.3-.56.48-.82.01-.02 0-.03-.01-.04h-.1l-.16-.06h-.06c-.15.13-.32.22-.51.29-.04.01-.05 0-.03-.04.09-.14.14-.3.16-.47 0-.02 0-.03-.02-.05-.05-.07-.11-.12-.21-.13-.12 0-.24-.02-.36-.05l-.02-.01-.01-.03a11.89 11.89 0 0 1 .04-1.96.08.08 0 0 1 .04-.03l.4-.05c.16-.03.31-.05.48-.05.22 0 .37-.02.46-.05.17-.06.31-.14.43-.26.09-.09.1-.07.05.04-.06.1-.32.21-.43.26ZM8.93 5.22c-.24.16-.53.23-.87.2l-.4-.05c-.02 0-.03 0-.04.02-.3.43-.87.43-1.32.3h-.06c-.3.16-.62.17-.95.04V5.7l.02-.02h.02l.24.06a.7.7 0 0 0 .59-.08.02.02 0 0 0-.01-.03c-.16-.05-.36-.12-.41-.29-.01-.03 0-.03.02-.01.04.02.06.05.08.08l.05.04c.33.18.66.25 1 .24a1 1 0 0 0 .7-.33c.03-.03.03-.05-.01-.06a.08.08 0 0 1-.06-.03c-.01-.02 0-.02.02-.02.25.08.5.11.73.1.19-.02.4-.06.66-.14Z" fill="#2C2716"/><path d="M8.93 5.22c.08.15.18.24.29.27.4.11.8.09 1.2-.07h.06l.22.14-.4.05a.08.08 0 0 0-.07.07 11.9 11.9 0 0 0-.01 1.95l.02.01c.12.03.24.05.36.05.1 0 .16.06.21.13.02.02.02.03.02.05-.02.17-.07.33-.16.47-.02.04-.01.05.03.04.19-.07.36-.16.51-.28a.05.05 0 0 1 .06-.01l.17.06v.03c-.02 0-.04 0-.05.02-.2.32-.36.6-.48.84-.04.09-.04.2-.04.29 0 .05-.02.06-.05 0a1.25 1.25 0 0 1-.17-.73c0-.04 0-.04-.03 0a.18.18 0 0 1-.1.07.07.07 0 0 0-.04.05.18.18 0 0 1-.06.11c-.03.03-.04.02-.02-.01.25-.43-.19-.61-.52-.44a.12.12 0 0 1-.06.02l-.29.01c-.03 0-.04 0-.03-.04.08-.32-.02-.53-.3-.65a.1.1 0 0 1-.04-.04.65.65 0 0 0-.48-.33.04.04 0 0 1-.03-.02.04.04 0 0 1 0-.03c.07-.19-.09-.5-.29-.3a.01.01 0 0 1-.02 0v-.97c0-.03-.02-.05-.05-.05H5.93a.02.02 0 0 0-.02.02l.02.26v4.64a.08.08 0 0 1-.08.08l-.48-.01c-.04 0-.06-.02-.05-.06.04-.45.1-.82-.05-1.27a1.4 1.4 0 0 1-.07-.38c-.03-.85-.08-1.54-.15-2.08a2.93 2.93 0 0 0-.26-.83v-.06l.44-.58.06.02c.33.13.65.12.95-.03h.06c.45.12 1.02.12 1.32-.3a.05.05 0 0 1 .05-.03l.4.04c.33.04.62-.03.86-.19ZM11.68 5.5c.13.28.38.28.67.29.14 0 .27-.04.39-.11.34.38.62.81.83 1.29.04.09.05.16.04.21l-.06.24c-.04.12-.14.18-.2.3-.07.11-.15.3-.25.56l-.17.62a.03.03 0 0 1-.04 0 14.65 14.65 0 0 1-.7-.71c-.01-.02 0-.04.02-.04.18-.02.36-.07.54-.17.39-.2.7-.6.45-1.02-.28-.5-.97-.6-1.51-.54a.05.05 0 0 1-.05-.05l.03-.7v-.03a.07.07 0 0 0-.08-.04.37.37 0 0 1-.15.01c-.03 0-.03-.02 0-.03a.66.66 0 0 1 .24-.08Z" fill="#948F0D"/><path d="M11.53 5.65c.05 0 .07.02.06.07l-.06.68c0 .03-.02.04-.04.05h-.02c-.02.01-.04 0-.04-.02l-.02-.48c0-.03-.02-.05-.04-.05a2.97 2.97 0 0 0-.97.01 7.1 7.1 0 0 0-.08 1c0 .13.02.26.05.37 0 .02.02.04.04.05l.12.05c.03 0 .05.01.05.04l.02.08c0 .03 0 .05-.04.05l-.26-.01a.06.06 0 0 1-.06-.06l-.03-1.23c0-.18.04-.36.06-.53a.08.08 0 0 1 .07-.07c.19-.04.38-.06.57-.04.2.03.4.04.62.04Z" fill="#706B3B"/><path d="m11.04 6.19-.25.57c-.08.18-.2.32-.22.53 0 .03-.02.04-.04.03-.06-.02-.11-.05-.12-.11-.05-.37-.03-.8.03-1.15.01-.08.06-.12.14-.13.24-.01.48 0 .72.02.04 0 .05.03.06.06v.43c0 .02 0 .04-.03.05l-.43.22c-.03.02-.04 0-.03-.02l.2-.5c.01 0 0 0 0 0l-.01-.01h-.02Z" fill="#706B3B"/><path d="M7.46 7.34c-.03 0-.03-.02-.01-.02 0-.04 0-.07-.02-.1a.77.77 0 0 0-.2-.18c-.02-.02-.03-.01-.02.02 0 .02.01.04.05.07-.04 0-.04.02 0 .1 0 .03.01.07.04.1.01.02.02.04.01.06l-.01.06-.02.1c0 .04-.02.04-.03 0V7.5c.02-.03.01-.04-.02-.03l-.04.06a.1.1 0 0 1 0-.04c0-.05 0-.05-.02 0v.01c-.01.02-.02.03-.01.05.01.07.02.13 0 .17l-.13.46c-.03.08-.06.13-.1.13a.09.09 0 0 1-.06-.04 1.14 1.14 0 0 1-.17-.59H6.7v.02l-.01.05c-.02-.02-.04-.01-.06.01l.01-.36a.19.19 0 0 0 .05-.11c0-.02 0-.04.02-.06.03-.05.05-.1.05-.17.06-.06.08-.15.07-.26.05 0 .08-.02.09-.04 0-.02 0-.03-.02-.02-.37.07-.63.27-.8.6l-.08.18c-.02.03-.03.03-.03-.01V6.24c0-.01 0-.03.02-.04h1.76c.03 0 .04.01.04.04v.42c0 .03 0 .05-.03.07-.06.04-.14.03-.2.09-.1.12-.09.31-.07.47 0 .01-.01.03-.04.05Z" fill="#948F0D"/><path d="M4.66 6.57a.08.08 0 0 1 0-.08l.04-.06c.02-.02.03-.02.04 0 .15.33.24.63.27.92.06.6.1 1.26.14 1.97 0 .04 0 .05-.03.02l-.04-.03a.13.13 0 0 1-.05-.1L4.91 7.5c-.02-.27-.1-.59-.25-.93Z" fill="#E8DE78"/><path d="M11.2 8.03c-.12.12-.26.22-.43.27-.03.01-.03 0-.02-.03.06-.11.1-.26.13-.43 0-.02 0-.04-.02-.06-.44-.41-.15-.92.3-1.13.54-.26 1.28-.28 1.79.1.55.43.22 1-.3 1.22-.46.2-.92.2-1.38.04-.02 0-.05 0-.07.02Z" fill="#E9E7E8"/><path d="M5.9 11.8c.03.1.03.2.01.3a1.9 1.9 0 0 0-.03.35c0 .02 0 .02.02.01.02 0 .02-.02.03-.04.02-.2.03-.4.02-.6-.05-.03-.01-.12.11-.26.02 0 .04-.02.06-.06.01-.02.02-.01.03.01l.03.21.01.13c0 .04.02.07.04.1.1.17.18.35.25.56.02.06.04.08.08.07-.01.03-.01.05 0 .07h.04c.12-.15.25-.27.39-.36.02-.01.04 0 .04.02 0 .06.01.11.03.14l-.04.47.01.05.06.1c0 .04-.02.05-.07.05l-.62.1c-.02-.02-.03-.01-.05.02a5.01 5.01 0 0 1-2.32-4.8c0-.13.1-.25.14-.38a12.27 12.27 0 0 0 .11-.27.03.03 0 0 1 .03.01c.1.1.16.24.17.42v.74a.7.7 0 0 1-.05.22v.02h.04a.32.32 0 0 0 .04-.12h.05c.01 0 .03-.02.05-.06a10.91 10.91 0 0 1 .01-.82c0-.15-.01-.34-.13-.46a2.83 2.83 0 0 1-.23-.26.06.06 0 0 1 0-.06c.08-.26.19-.52.32-.77.02-.03.03-.03.05 0l.07.17c.09.29.16.59.18.89.02.45.1.95.09 1.43 0 .05-.02.05-.05.02l-.1-.09h-.04v.02c.2.13.32.26.4.4.04.12.08.29.1.52.04.43-.04.85-.02 1.26.02.31.1.65.23 1.02.01.03.03.04.07.04l.18.01c.03.01.05 0 .05-.03l.12-.51Z" fill="#FFC704"/><path d="M7.54 7.35a.2.2 0 0 0 0-.16c-.07-.23.03-.4.26-.43.07 0 .12.01.17.05L8.2 7c.05.03.04.06-.02.07-.12.03-.25.07-.37.15l-.25.15c-.03.02-.04.02-.02-.02Z" fill="#DA8322"/><path d="M6.81 6.8c.02.1 0 .2-.06.26.01-.03 0-.05-.04-.08.02-.01.03-.03.03-.05a.02.02 0 0 0-.02-.01c-.16.1-.32.17-.43.34-.1.17-.2.4-.28.67-.01.04-.02.04-.03 0-.07-.27.25-.77.39-.9.08-.07.23-.15.44-.23Z" fill="#E8DE78"/><path d="M6.71 6.98c.04.03.05.05.04.08 0 .07-.02.12-.05.17a.1.1 0 0 0-.02.06c0 .03-.02.07-.05.1a.6.6 0 0 1-.01-.08L6.6 7.3v.01c0 .18 0 .36-.02.53 0 .07.02.15.06.22l.22.52c.02.04.03.04.05 0L7 8.42H7c.06-.07.1-.13.1-.2v-.04c-.01-.01-.02-.02-.04 0h-.03l.14-.46c.02.06.03.12.02.19h.02c0-.13 0-.26-.02-.38l.04-.06c.03 0 .04 0 .03.03a.07.07 0 0 0 0 .06c0 .03.01.03.02 0l.02-.11.04-.05c.02-.02.02-.04 0-.06l-.08-.12c-.04-.07-.04-.1 0-.1.07.04.11.1.13.17.01.02.03.03.06.03-.02 0-.02.01 0 .02.02.08-.04.12-.06.17-.05.1-.03.2.04.3l.02.05.04.35c0 .03 0 .05-.03.07-.31.18-.49.43-.48.81 0 .02 0 .04-.02.05a.46.46 0 0 0-.2.35c-.05.4-.03.75.06 1.07a1.5 1.5 0 0 1-.83.15V8.38c0-.31.1-.55.22-.87.1-.26.26-.44.5-.53Z" fill="#FFC704"/><path d="M7.8 7.87c-.12 0-.32-.04-.37-.16-.08-.17.08-.27.23-.25h.14c.22 0 .49-.23.6-.4a.1.1 0 0 1 .12-.03.1.1 0 0 1 .03.03c.11.12 0 .37-.09.48-.18.2-.4.31-.67.33Z" fill="#DA8322"/><path d="M13.7 7.37a.4.4 0 0 0-.04.12.1.1 0 0 1-.03.06c-.08.09-.17.17-.21.27-.08.2-.18.4-.23.6a11.36 11.36 0 0 1-.22.72.04.04 0 0 1-.03-.01l-.87-.85a.07.07 0 0 1-.02-.07l.01-.03a.02.02 0 0 1 .03-.01h.01c.26.28.53.55.8.8.03.02.04.02.04 0l.19-.68.2-.47c.04-.1.1-.17.17-.25.08-.08.1-.2.13-.31.02-.07.04-.07.06 0a.3.3 0 0 1 0 .1Z" fill="#E8DE78"/><path d="M13.74 7.4c.23.72.31 1.44.23 2.18 0 .02-.02.03-.04.03l-.86-.04-.52-.01a.34.34 0 0 1-.03-.12c0-.13-.12-.25-.37-.36H11.51a.08.08 0 0 0-.08.07c-.02.18-.01.34 0 .5 0 .03 0 .04-.03.05-.12.02-.25.07-.38.14-.02.01-.03 0-.02-.01.02-.17.04-.35.03-.54 0-.1.02-.18.07-.26a6.38 6.38 0 0 1 .5-.85h.37a.05.05 0 0 1 .05.05c0 .03.02.06.04.08l.9.9c.03.01.04.01.05-.02.07-.23.14-.47.2-.73.05-.19.14-.4.25-.64.05-.1.12-.17.2-.24a.12.12 0 0 0 .03-.06.24.24 0 0 1 .05-.11Z" fill="#FFC704"/><path d="M9.34 8.44v.06a.93.93 0 0 1 .38-.04c.03 0 .04.01.02.04-.1.13-.08.26.03.37.1.1.3.08.44.06a.02.02 0 0 1 .02.01.02.02 0 0 1 0 .03c-.2.3-.8.36-1.08.15-.02-.02-.03-.03 0-.05a.3.3 0 0 0 .07-.17v-.03h-.03l-.02.02c-.04.12-.13.2-.29.22-.04 0-.05.02 0 .03.05.01.09.01.14 0a.17.17 0 0 1 .2.14c.05.33.06.64.04.95 0 .03-.01.05-.04.07a.24.24 0 0 0-.13.17c0 .03-.02.03-.03.01-.11-.09-.25-.12-.43-.1-.32.03-.47-.18-.51-.47l.01-.06a3.64 3.64 0 0 0 .05-.07c.02-.06.02-.08 0-.09-.02 0-.03 0-.03.02l-.03.03c-.02.02-.03.01-.04-.02V9.7c0-.02 0-.03-.02-.02-.01 0-.02 0-.02.02 0 .22.05.62.3.7.04.01.04.03.01.04l-.02.02a.11.11 0 0 1-.1.01c-.34-.1-.33-.52-.34-.81 0 0 0-.01 0 0h-.02l-.01.01c0 .17 0 .33.02.48.02.18.25.48.47.37a.9.9 0 0 1 .55-.07.1.1 0 0 1 .07.06c.05.08.08.19.09.3 0 .03 0 .05-.03.07a.33.33 0 0 0-.06.11c-.01.04 0 .05.03.03l.14-.1c.05-.03.1-.03.15 0 .02 0 .02.03.01.08a.16.16 0 0 1-.06.09.65.65 0 0 1-.38.13c-.02 0-.04 0-.06-.02a.09.09 0 0 1-.03-.05l-.09-.47a.06.06 0 0 0-.02-.04.06.06 0 0 0-.05-.01c-.19.04-.36.14-.56.07-.6-.2-.66-.73-.62-1.3l.03-.05c.08-.07.19-.13.23-.23.06-.14.08-.3.09-.47l.01-.03.05-.03a.01.01 0 0 1 .02 0c.07.35.41.6.69.27a.56.56 0 0 0 .09-.57c-.16-.44-.67-.35-.77.07a.04.04 0 0 1-.04.03h-.02c-.01 0-.02-.01-.02-.03A.87.87 0 0 0 7.75 8a.06.06 0 0 0-.06-.04c-.02 0-.04-.01-.05-.03 0-.02 0-.03.02-.03l.04.01h.03c.38-.03.67-.18.87-.46a.06.06 0 0 1 .05-.03c.18 0 .34.13.47.26.02.02.01.03-.02.04a.35.35 0 0 0-.28.19c-.13.27-.08.5.15.68.02.02.02.04 0 .05a.34.34 0 0 0-.1.1c.02.02.02.02.03.01.12-.1.24-.2.39-.24.02 0 .03-.01.04-.04v-.04Z" fill="#DA8322"/><path d="M4.57 9.08H4.5c.03-.3.03-.61 0-.91a.64.64 0 0 0-.19-.42c-.04-.04-.07-.04-.09.02l-.12.33c-.03.06-.04.06-.02 0a3.43 3.43 0 0 1 .15-.57.02.02 0 0 1 .02 0c.12.14.27.27.3.46l.04.25c0 .22 0 .5-.03.84ZM6.68 7.75c0 .22.08.43.21.63.02.02.03.02.04-.01V8.3c.04 0 .07-.05.1-.13h.03c.04.08-.04.15-.06.23-.03 0-.03 0 0 .01a.11.11 0 0 0-.07.08.03.03 0 0 1-.02.03.03.03 0 0 1-.03-.02 1.33 1.33 0 0 1-.26-.75c.02-.02.03-.03.06-.01Z" fill="#E8DE78"/><path d="M9.34 8.5v-.06c.1-.16.12-.48-.11-.56a.1.1 0 0 0-.06 0c-.21.07-.22.29-.17.48.02.06.06.1.13.14.05.03.05.05-.01.06-.12.02-.2-.03-.26-.15-.1-.18-.09-.36.03-.51.15-.2.43-.14.54.07.06.11.07.23.03.36a.41.41 0 0 1-.12.17ZM8.26 8.95a.3.3 0 0 1-.14-.03.37.37 0 0 1-.11-.1.47.47 0 0 1-.08-.15.55.55 0 0 1 .08-.49.37.37 0 0 1 .12-.1.3.3 0 0 1 .27 0c.05.03.09.06.12.1l.08.15a.55.55 0 0 1-.08.5.37.37 0 0 1-.12.09.3.3 0 0 1-.14.03Z" fill="#E9E7E8"/><path d="M11.44 8.15h.09a6.32 6.32 0 0 0-.47.86.57.57 0 0 0-.06.25c0 .15-.01.3-.04.45 0 .03-.01.04-.03.01-.15-.2-.31-.42-.33-.67a.3.3 0 0 0-.1-.2V8.8c.01-.06.04-.1.08-.15.03-.02.04-.01.04.02.01.1 0 .18.03.28.06.2.07.37.23.51.02.03.04.02.04-.01-.01-.17-.01-.33.07-.49a9.58 9.58 0 0 1 .45-.82Z" fill="#E8DE78"/><path d="M8.05 8.52c0 .16.1.3.23.3s.24-.13.24-.3c0-.15-.1-.28-.23-.28s-.24.13-.24.28Z" fill="#2C2716"/><path d="M10.41 11.39a.29.29 0 0 1-.07-.07c.08-.04.16-.08.22-.13.02-.02.02-.02 0-.01a.8.8 0 0 0-.32.17c-.07.06-.13.07-.17.03l.1-.11a.15.15 0 0 0 .03-.06c.05-.15.1-.28.1-.44a60.83 60.83 0 0 0-.01-1.24c-.02-.24.03-.46.13-.67h.05l.01.02v.02c-.12.32-.13.64-.11.97a22.7 22.7 0 0 1 .02 1.02h.02c.02-.18.02-.34.01-.5a9.46 9.46 0 0 1-.01-.98c0-.13.03-.27.09-.42 0-.01 0-.02.02-.03h.02a.03.03 0 0 1 .02 0v.02c.01 0 .01 0 0 0 0 .13.02.24.07.34a5.88 5.88 0 0 0 .32.55l-.02.04c-.15.1-.1.38-.1.54-.02.24.2.29.38.3.02.01.03.03.01.05-.2.3-.47.5-.8.59Z" fill="#FFC704"/><path d="M10.29 9.53a31.54 31.54 0 0 1-.04.51 14.6 14.6 0 0 1-.02.9.07.07 0 0 1-.05.03H10c-.04 0-.05-.01-.03-.05.07-.2-.05-.3-.26-.25-.03 0-.05 0-.05-.04.01-.16-.04-.25-.16-.26-.02 0-.03-.02-.03-.04.02-.2-.01-.38-.09-.56-.06-.14-.09-.3-.1-.48 0-.03.02-.04.05-.03.35.09.66.07.93-.22.03-.03.04-.02.03.02 0 .1-.05.23-.03.33 0 .04.01.1.03.14Z" fill="#948F0D"/><path d="M6.86 10.53c-.1-.37-.12-.75-.04-1.14a.34.34 0 0 1 .13-.2c.03-.02.04-.01.06.01.02.05.04.09.08.12.02.02.04.04.03.07-.02.35-.03.65-.02.9 0 .06.03.12.07.17a.15.15 0 0 1-.14.24c-.08-.02-.14-.07-.17-.17Z" fill="#AF5A3A"/><path d="M11.51 9.25c.2.18.5.15.68 0a.03.03 0 0 1 .02-.01.02.02 0 0 1 .02.02c.01.22 0 .43-.06.64 0 .03-.02.04-.05.04h-.54c-.03 0-.04-.02-.05-.04a2.91 2.91 0 0 1-.05-.65.03.03 0 0 1 .03 0Z" fill="#E8DE78"/><path d="m7.45 10.39-.1.05a.13.13 0 0 1-.17-.05 5.36 5.36 0 0 1 .02-1 .05.05 0 0 1 .03-.02l.09.01c.03 0 .05.03.05.06-.05.36-.04.6.1.87a.05.05 0 0 1 0 .06l-.02.02Z" fill="#AF5A3A"/><path d="M12.48 9.39c.01.07.03.09.04.05l.03.12c-.02-.02-.04-.01-.04 0-.01.03 0 .04.02.04h.52l.83.04c.06 0 .08.03.07.09l-.12.58c0 .03-.02.04-.05.04l-.59.04c-.62 0-1.24-.04-1.85-.13a.71.71 0 0 1-.3-.12.13.13 0 0 1-.05-.17c.08-.12.3-.2.43-.23.02 0 .03 0 .03.02l.03.16a.08.08 0 0 0 .09.07h.6a.05.05 0 0 0 .06-.04v-.02c-.01-.07 0-.12.06-.15.03-.02.02-.03-.01-.02h-.02l-.01-.01c-.01-.06.02-.1.09-.13.05-.02.05-.03 0-.04h-.02c-.02.01-.03 0-.04-.02-.02-.13.01-.17.1-.13.04.02.07 0 .1-.04Z" fill="#E1B66C"/><path d="m12.55 9.56.52.01-.02.03h-.52c-.03 0-.03-.01-.02-.03 0-.02.02-.03.04-.01Z" fill="#2C2716"/><path d="M9.32 10.27c-.02-.1-.01-.21.02-.32a.1.1 0 0 0-.01-.09c-.02-.03-.01-.04.02-.02a.1.1 0 0 1 .03.02l.02.03c.03.23.12.56-.22.62h-.02a.04.04 0 0 1-.03-.03v-.03a.26.26 0 0 1 .16-.14c.02 0 .03-.02.03-.04Z" fill="#DA8322"/><path d="m13.29 10.45.49-.04a.01.01 0 0 1 .01 0v.01l-.13.4-.01.01-.01.01h-.47c-.62 0-1.25 0-1.87-.11a1.04 1.04 0 0 1-.36-.14.07.07 0 0 1-.04-.06v-.32c0-.03.01-.04.04-.02.22.1.45.16.7.2.55.06 1.1.08 1.65.06Z" fill="#E1B66C"/><path d="M7.94 10.77c.22.09.43.03.63-.07a.04.04 0 0 1 .04 0 .04.04 0 0 1 .02.03l.04.27c0 .03-.01.04-.04.04H7.3a.08.08 0 0 1-.08-.07.66.66 0 0 1 0-.4.1.1 0 0 1 .06-.07l.18-.08h.03s.02 0 .03.02c.08.13.23.24.42.33Z" fill="#AF5A3A"/><path d="M9.54 10.81c-.05.05-.04.06.01.02.12-.08.22-.11.3-.1a.09.09 0 0 1 .05.15.54.54 0 0 1-.39.2c-.1 0-.14-.05-.13-.15a.84.84 0 0 0-.03-.38c-.02-.05 0-.09.06-.1l.06-.01a.1.1 0 0 1 .12.08l.03.17-.01.05a3.2 3.2 0 0 1-.07.07Z" fill="#DA8322"/><path d="M9.3 10.86a.28.28 0 0 0-.14 0h-.02a.03.03 0 0 1-.02-.03l-.04-.22c0-.02 0-.04.03-.04h.15c.03 0 .06.01.06.05l.02.2c0 .04 0 .05-.05.04Z" fill="#AF5A3A"/><path d="M6.82 10.56c.05.14.14.2.27.2.02 0 .03 0 .03.03-.02.31.11.33.37.33.03 0 .04.01.04.04v1.25c.03.07.1.09.23.06l.03-.01v-.03l.02-1.28c0-.02 0-.03.03-.03h.46c.03 0 .04.01.04.04v1.19c0 .02.01.04.04.04h.21c.03-.06.05-.04.08.04a.07.07 0 0 0 .06.05l.18.01c.03 0 .04 0 .04-.04v-1.06a.2.2 0 0 1 0-.07c0-.02.02-.04.04-.04l.2-.06h.01l.01.01v.01l.02 1.15c0 .02 0 .04.03.05h.02l.18.01h.02a.03.03 0 0 0 .02-.02V11.3l-.01-.11c0-.02 0-.04.03-.04.2-.06.4-.08.6-.08a.09.09 0 0 1 .08.05.09.09 0 0 1-.02.1c-.23.22-.26.27-.11.16.04.04.1.03.17-.03.03 0 .06 0 .1-.03l.07.07c-.04.02-.03.03.03.03a2.21 2.21 0 0 0 .62-.34c.05-.03.08-.02.1.03v.04a.41.41 0 0 1-.1.18c-.08.1-.15.2-.2.32-.02.03-.02.04.01.02l.32-.17.25-.05v.53c0 .03.01.04.04.04v.03l-.3.18a.74.74 0 0 0-.24.2c-.14.21-.32.39-.38.65a14.75 14.75 0 0 1-.15.6h.03l.01-.02c-.01.02.02.05.1.07a5 5 0 0 1-4.2-.5c.02-.02.03-.03.05-.02.22.04.43 0 .62-.1.05.01.07 0 .07-.04.08.1.08.07 0-.11a.1.1 0 0 1-.01-.06c.02-.16.02-.3-.02-.45a.28.28 0 0 1-.03-.14c0-.03-.02-.03-.04-.02-.14.1-.27.21-.39.35 0 .02-.02.02-.04 0v-.06l-.38-.86-.03-.21c0-.02-.02-.03-.03 0-.02.03-.04.05-.06.05a.42.42 0 0 0-.2.29l-.1.4c0 .03-.02.05-.04.05-.1 0-.16 0-.2-.1a3.3 3.3 0 0 1-.2-1.13c0-.03.01-.03.04-.03s.06.02.08.04l.04.01a.95.95 0 0 1 .39-.03c.02 0 .04 0 .05-.03a.7.7 0 0 0 .06-.32c.28.04.56-.01.84-.15Z" fill="#C18350"/><path d="m11.44 11.45-.25.05a.31.31 0 0 0-.23.1l-.02-.01v-.03c.08-.12.21-.22.25-.37l.07-.36c0-.03.02-.04.05-.04l.08.02c.04 0 .05.02.05.06v.58ZM12.58 10.9l-.04.15.01.02h.02c-.02 0-.04.01-.06.05v-.03h-.01l-.16.27c-.01.03-.03.04-.06.03a1.07 1.07 0 0 0-.4-.05.07.07 0 0 1-.05-.02.07.07 0 0 1-.03-.05l.01-.33c0-.04.03-.06.07-.06l.7.02Z" fill="#FFC704"/><path d="M12.62 10.9c.03 0 .05 0 .06.03.02.17.03.33.01.5 0 .03.01.03.03.01l.02-.02c0-.02.02-.03.04-.04l.2-.04h.01a.02.02 0 0 1 .02.01v.01l-.01.08c0 .02-.01.03-.03.03-.06 0-.12 0-.2.03v-.01h.17c.04 0 .06.02.06.06v.36l.01.05-.32.4c-.03.02-.04.02-.04-.02l-.02-.41a.04.04 0 0 0-.02-.03c-.02 0-.02-.02-.02-.03a.6.6 0 0 0-.01-.23v-.06a.74.74 0 0 0 .01-.33v-.04c.02-.01.03-.03.03-.06a.81.81 0 0 1 0-.24Z" fill="#E1B66C"/><path d="M13.2 10.9h.4v.02a.03.03 0 0 1 0 .02l-.4.77-.12-.03c-.02 0-.03-.02-.03-.04v-.68c0-.02.01-.04.03-.04l.12-.02Z" fill="#FFC704"/><path d="M11.48 12.05v-.89a.1.1 0 0 1 .07-.09l.16-.05c.04-.01.06 0 .06.04v.75a.1.1 0 0 1-.02.05.54.54 0 0 1-.27.2Z" fill="#E1B66C"/><path d="M12.57 11.07c.02.02.03.07.02.14v.04a.14.14 0 0 0-.08.08 3.96 3.96 0 0 1-.32.42 3.9 3.9 0 0 1-.81.55.63.63 0 0 0-.25.19c-.13.2-.32.36-.37.6a22.77 22.77 0 0 1-.18.64h-.03c-.07-.02-.1-.05-.1-.07l.15-.55a.97.97 0 0 1 .15-.33l.28-.39a.38.38 0 0 1 .13-.1c.44-.23.8-.47 1.04-.7.12-.11.22-.27.31-.47.02-.04.04-.05.06-.05Z" fill="#E8DE78"/><path d="M7.54 12.41v-.45l.01-.68c0-.08.04-.12.12-.13h.01c.06-.01.08.01.09.07v1.17c0 .02 0 .04-.02.05-.07.02-.14.01-.21-.03Z" fill="#AF5A3A"/><path d="M10.34 11.32c-.04.03-.07.04-.1.03a.8.8 0 0 1 .31-.17h.01c-.06.06-.14.1-.22.14Z" fill="#2C2716"/><path d="m8.74 11.25.13.05c.02 0 .03.01.04.03v.05a69.37 69.37 0 0 1-.01 1.05l-.02.01h-.14c-.02 0-.04-.02-.04-.05l.01-.62a2.77 2.77 0 0 0 .01-.52h.02ZM9.5 11.3v1.12a.03.03 0 0 1-.01.02l-.01.01h-.01l-.19-.01a33.8 33.8 0 0 1 .15-1.12c0-.03.03-.04.07-.02Z" fill="#AF5A3A"/><path d="M12.51 11.33c.03-.01.06-.01.07 0v.04a1.1 1.1 0 0 0-.03.43.1.1 0 0 1-.01.06c-.08.14-.06.3-.1.44-.01.08 0 .15.03.23a.08.08 0 0 1-.01.07 5 5 0 0 1-1.81 1.1l.14-.58c.05-.25.23-.4.37-.6a.62.62 0 0 1 .23-.2c.28-.13.57-.33.86-.58.1-.08.14-.18.2-.29.04-.02.06-.06.06-.12Z" fill="#FFC704"/><path d="M11.8 11.77v-.38a.05.05 0 0 1 .04-.03h.02l.35.03a.05.05 0 0 1 .05.07l-.02.02-.36.33a.05.05 0 0 1-.07-.01v-.03ZM13.18 11.71a.9.9 0 0 1-.17.25v-.05c.02 0 .03 0 .03-.03 0-.1.04-.16.14-.17Z" fill="#C18350"/><defs><linearGradient id="az1ueaq4g" x1="3.35" y1="3.12" x2="21.9" y2="24.43" gradientUnits="userSpaceOnUse"><stop stop-color="#1A1E21"/><stop offset="1" stop-color="#06060A"/></linearGradient></defs></svg>