<!-- by TradingView --><svg width="18" height="18" viewBox="0 0 18 18" xmlns="http://www.w3.org/2000/svg"><path fill="url(#asduyitnv)" d="M0 0h18v18H0z"/><path d="M7.91 3.34a1.77 1.77 0 0 1 2.07-.01l3.37 2.37c.4.29.65.77.65 1.28v5.49c0 .84-.65 1.53-1.44 1.53H5.44C4.64 14 4 13.31 4 12.47v-5.5c0-.5.24-.98.63-1.27l3.28-2.36Zm1.6.82a.98.98 0 0 0-1.15 0L5.23 6.43c-.17.12-.23.32-.23.54v5.32c0 .37.23.71.57.71h6.84c.34 0 .59-.34.59-.7V6.97c0-.22-.08-.43-.25-.55L9.51 4.16ZM10.25 8H6.43c-.05 0-.1.04-.1.1v.78c0 .07.05.12.1.12h5.14c.05 0 .1-.05.1-.12v-.71L10.4 6.64c-.03-.04-.08-.05-.11-.03a.19.19 0 0 0-.05.04l-.02.02-.5.43a.17.17 0 0 0-.07.07c-.01.04 0 .1.03.14l.57.69Zm1.32 2.6H7.75l.57.7c.03.03.04.1.03.14a.17.17 0 0 1-.06.07l-.5.42-.03.02a.19.19 0 0 1-.05.04c-.03.02-.08 0-.1-.03l-1.28-1.52v-.68c0-.07.05-.12.1-.12h5.14c.05 0 .1.05.1.12v.73c0 .07-.05.11-.1.11Z" fill="#fff"/><defs><linearGradient id="asduyitnv" x1="3.35" y1="3.12" x2="21.9" y2="24.43" gradientUnits="userSpaceOnUse"><stop stop-color="#1A1E21"/><stop offset="1" stop-color="#06060A"/></linearGradient></defs></svg>