<!-- by TradingView --><svg width="18" height="18" viewBox="0 0 18 18" xmlns="http://www.w3.org/2000/svg"><path fill="#181B1E" d="M0 0h18v18H0z"/><circle cx="9" cy="9" r="5" fill="url(#a)"/><circle cx="9" cy="9" r="4.38" fill="url(#b)"/><path d="m6.3 13.2 2.5-9.19h.02a5.1 5.1 0 0 1 .65.01L6.9 13.54a5 5 0 0 1-.6-.34Zm4.9.29a4.98 4.98 0 0 1-3.65.3l2.59-9.66a5 5 0 0 1 3 2.08l-1.93 7.28Z" fill="#fff" fill-opacity=".2"/><path d="M8.26 5.07a4 4 0 0 1 1.8 7.79 4.02 4.02 0 0 1-4.75-3.94 4.02 4.02 0 0 1 2.95-3.85Z" fill="#236BBF"/><path fill-rule="evenodd" d="M9 8c1.1 0 2-.22 2-.5S10.1 7 9 7s-2 .22-2 .5.9.5 2 .5Zm0-.1c.9 0 1.64-.14 1.64-.31 0-.18-.74-.31-1.64-.31-.9 0-1.64.13-1.64.3 0 .18.74.32 1.64.32Z" fill="#00020E"/><path d="M6.33 8.6c0 .28.06.46.1.51l.31.16c.02.02-.25.37-.46.35-.16 0-.12-.2-.07-.3-.07.05-.21.12-.28.09-.07-.03 0-.21.06-.3-.13.12-.33.22-.43.16-.07-.03.08-.17.2-.27-.22.15-.47.15-.47.03 0-.1.26-.23.42-.3-.08.03-.23.07-.42.07-.28 0-.46-.24-.46-.38 0-.1.08-.1.11-.08.23.12.53.1.65.08-.73-.12-.93-.51-.93-.66 0-.12.1-.1.14-.07l.5.25c-.6-.31-.67-.8-.67-.91v-.04c0-.1 0-.18.07-.18.1 0 .26.26.37.48.09.16.41.3.7.42l.25.1c.31.15.31.44.31.79Zm5.34 0c0 .28-.06.46-.1.51l-.31.16c-.02.02.25.37.46.35.16 0 .12-.2.07-.3.07.05.21.12.28.09.07-.03 0-.21-.06-.3.13.12.33.22.43.16.07-.03-.08-.17-.2-.27.22.15.47.15.47.03 0-.1-.26-.23-.42-.3.08.03.23.07.42.07.28 0 .46-.24.46-.38 0-.1-.08-.1-.11-.08-.23.12-.53.1-.65.08.73-.12.93-.51.93-.66 0-.12-.1-.1-.14-.07l-.5.25c.6-.31.67-.8.67-.91v-.04c0-.1 0-.18-.07-.18-.1 0-.26.26-.37.48-.09.16-.41.3-.7.42a6.9 6.9 0 0 0-.25.1c-.31.15-.31.44-.31.79Z"/><path fill-rule="evenodd" d="M11.48 9.54c.07-.1.12-.23.12-.36a.6.6 0 0 0-.6-.61.6.6 0 0 0-.59.6c0 .15.05.3.14.4a.8.8 0 0 0-.3.63c0 .44.35.8.78.8a.8.8 0 0 0 .78-.8.8.8 0 0 0-.33-.66Zm-.18.63a.3.3 0 0 1-.3.3.3.3 0 0 1-.3-.3c0-.17.14-.3.3-.3.17 0 .3.13.3.3Zm-.28-.69c.1 0 .17-.12.17-.26 0-.15-.08-.26-.17-.26-.1 0-.18.11-.18.26 0 .14.08.26.18.26Z" fill="#00020E"/><path fill-rule="evenodd" d="M11.47 9.32c.07-.1.12-.22.12-.34a.56.56 0 0 0-.56-.57c-.3 0-.55.25-.55.57 0 .13.05.26.13.36a.75.75 0 0 0-.28.6c0 .4.32.74.73.74.4 0 .73-.34.73-.75a.75.75 0 0 0-.32-.61Zm-.16.58c0 .16-.13.29-.28.29a.28.28 0 0 1-.28-.29c0-.15.13-.28.28-.28.15 0 .28.13.28.28Zm-.27-.64c.1 0 .17-.11.17-.25 0-.13-.08-.24-.17-.24-.09 0-.16.1-.16.24 0 .14.07.25.16.25Z" fill="#fff"/><path fill-rule="evenodd" d="M7.42 9.54c.07-.1.11-.23.11-.36a.6.6 0 0 0-.59-.61.6.6 0 0 0-.6.6c0 .15.06.3.15.4a.8.8 0 0 0-.3.63c0 .44.35.8.78.8a.8.8 0 0 0 .78-.8.8.8 0 0 0-.33-.66Zm-.18.63a.3.3 0 0 1-.3.3.3.3 0 0 1-.3-.3c0-.17.14-.3.3-.3.17 0 .3.13.3.3Zm-.28-.69c.1 0 .17-.12.17-.26 0-.15-.08-.26-.17-.26-.1 0-.18.11-.18.26 0 .14.08.26.18.26Z" fill="#00020E"/><path fill-rule="evenodd" d="M6.55 9.32a.57.57 0 0 1-.11-.34c0-.32.25-.57.55-.57.31 0 .56.25.56.57 0 .13-.05.26-.13.36.17.14.28.35.28.6 0 .4-.33.74-.73.74a.74.74 0 0 1-.73-.75c0-.25.12-.48.31-.61Zm.17.58c0 .16.12.29.27.29.16 0 .28-.13.28-.29A.28.28 0 0 0 7 9.62a.28.28 0 0 0-.27.28Zm.26-.64c-.09 0-.16-.11-.16-.25 0-.13.07-.24.16-.24.1 0 .17.1.17.24 0 .14-.08.25-.17.25Z" fill="#fff"/><path fill-rule="evenodd" d="M9.61 9.03c.09-.13.13-.3.13-.46 0-.46-.33-.82-.74-.82s-.74.36-.74.82c0 .17.04.33.13.46-.24.2-.39.51-.39.87 0 .6.45 1.1 1 1.1s1-.5 1-1.1c0-.36-.15-.67-.39-.87Zm-.4-.44c0 .17-.1.3-.21.3-.12 0-.2-.13-.2-.3 0-.17.08-.3.2-.3.12 0 .2.13.2.3ZM9 10.31c.2 0 .37-.19.37-.41 0-.23-.16-.41-.37-.41-.2 0-.37.18-.37.4 0 .23.16.42.37.42Z" fill="#00020E"/><path fill-rule="evenodd" d="M9.61 8.72c.09-.13.13-.3.13-.46 0-.46-.33-.82-.74-.82s-.74.36-.74.82c0 .17.04.33.13.46-.24.2-.39.52-.39.87 0 .6.45 1.1 1 1.1s1-.5 1-1.1c0-.35-.15-.67-.39-.87Zm-.4-.44c0 .17-.1.31-.21.31-.12 0-.2-.14-.2-.3 0-.18.08-.31.2-.31.12 0 .2.13.2.3ZM9 10c.2 0 .37-.18.37-.41 0-.23-.16-.41-.37-.41-.2 0-.37.18-.37.41 0 .23.16.41.37.41Z" fill="#fff"/><defs><linearGradient id="a" x1="4.47" y1="6.86" x2="14" y2="9.74" gradientUnits="userSpaceOnUse"><stop stop-color="#1866E7"/><stop offset=".49" stop-color="#29A6FA"/><stop offset="1" stop-color="#1460D4"/></linearGradient><linearGradient id="b" x1="5.01" y1="7.24" x2="13.15" y2="10.03" gradientUnits="userSpaceOnUse"><stop stop-color="#2583ED"/><stop offset=".48" stop-color="#3BBBF8"/><stop offset="1" stop-color="#1E76DA"/></linearGradient></defs></svg>