<!-- by TradingView --><svg width="18" height="18" viewBox="0 0 18 18" xmlns="http://www.w3.org/2000/svg"><path fill="url(#a)" d="M0 0h18v18H0z"/><path d="M11.55 4.75a1.4 1.4 0 0 1-.68-.25c-.23-.15-.38-.15-.62-.16a.18.18 0 0 1-.12-.04c-.15-.14-.37-.29-.57-.15-.02.02-.02.04 0 .06 0 .01.01.02.03.01-.04.05-.05.1-.03.14-.08.02-.13.08-.14.17a.08.08 0 0 1-.04.07.17.17 0 0 1-.06 0 .05.05 0 0 1-.04 0 .05.05 0 0 1-.02-.05l.03-.12c0-.05-.01-.07-.06-.06l-.06.01-.1.01c.3-.44.65-.5 1.07-.21a.3.3 0 0 0 .13.05c.45.06.88.23 1.28.52Z" fill="#C2B1BF"/><path d="M8.75 4.25a.26.26 0 0 1-.12.14.13.13 0 0 0-.05.05l-.02.08c0 .06.02.07.08.04a.47.47 0 0 1 .18-.08c.08.18.1.4.06.68a.68.68 0 0 1-.34-.08c-.13-.06-.18-.03-.15.1a.27.27 0 0 0-.03.15c-.05-.02-.09-.02-.11.02v.05l.04.02c-.1.1-.14.23-.14.38 0 .02.02.04.04.04l.03.02c.05.06.04.1-.04.1-.06 0-.1-.03-.13-.07l-.02-.02a.04.04 0 0 0-.04 0l-.01.03-.18.56c-.46-.25-.67-.46-.63-.65.15-.03.26-.07.32-.15a.1.1 0 0 0 .02-.12c-.06-.14-.13-.15-.22-.01-.18-.04-.27-.11-.41-.27a.43.43 0 0 0-.37-.15.1.1 0 0 0-.1.07.3.3 0 0 0-.02.12.45.45 0 0 0-.3.04c.04-.04.02-.04-.09 0 .06-.14.14-.21.23-.23l.72-.15c.03-.01.04-.03.02-.06l-.03-.05a.08.08 0 0 0-.07-.04H6.7a.05.05 0 0 1-.02-.07l.02-.02.57-.31a.25.25 0 0 1 .13-.04c.17.01.28-.02.35-.07a.73.73 0 0 1 .84-.2c.1.03.14.08.15.15ZM11.55 4.75c.07 0 .08.05.05.14a.81.81 0 0 1-.42-.1c-.05-.03-.09-.02-.1.03-.02.03-.02.09 0 .15l.04.05a.1.1 0 0 0 .06.01c.16-.02.43-.06.63.07.19.11.36.28.51.51 0 .14.04.25.13.32h-.44a.2.2 0 0 0-.12.05c-.22.16-.39.36-.5.6a.32.32 0 0 0 .01-.13c0-.06-.03-.08-.08-.06a.64.64 0 0 0-.24.11c-.04.03-.04.07 0 .1.02.01.04.05.06.1.01.05.04.07.09.05a.16.16 0 0 0 .09-.07l.01.06c.01.05 0 .07-.06.06-.1-.01-.18.04-.25.14l-.16.16c-.22-.03-.3.04-.26.21a.68.68 0 0 1-.3.26l-.76-.15c.02-.12-.08-.14-.3-.06-.04.02-.06 0-.06-.04a.9.9 0 0 0-.1-.46c.08-.07.14-.1.2-.07.04.02.06.05.05.1l-.03.14c-.01.05.01.08.07.07.14-.02.2-.12.17-.3.13-.05.18-.11.14-.2.07-.07.06-.13-.02-.19 0-.1-.03-.18-.08-.27a.05.05 0 0 1 0-.05l.02-.02h.03l.89.15.01-.05c0-.03 0-.04-.03-.04a2.08 2.08 0 0 1-.75-.16.22.22 0 0 1-.12-.13.2.2 0 0 1 .02-.18c.08-.11.1-.19.05-.23l.08-.07c.04-.06.04-.14 0-.23a.95.95 0 0 1 .58-.19v.01l.01.01v.05l-.02.02-.03.01c-.12 0-.18.02-.2.05a.17.17 0 0 0-.04.1c0 .04.01.07.03.1.02.04.05.07.1.1.03.01.07.03.11.03.16.02.29-.03.4-.15l-.01-.05-.03-.03-.04-.01h-.03c-.1.1-.2.12-.3.09-.07-.03-.07-.05 0-.07.18-.04.29-.14.33-.3a.4.4 0 0 0 .09-.01c.1-.06.1-.1-.02-.12a.35.35 0 0 0-.2.02l-.27-.07a.21.21 0 0 0-.14.02.38.38 0 0 1-.26.03.15.15 0 0 0-.12 0l-.37.21c-.02.01-.02.03 0 .04 0 .01.01.02.03.02-.08.03-.1.05-.08.09a.28.28 0 0 1-.15 0 .72.72 0 0 1 .07-.66c.02-.02.02-.05 0-.08h-.05c.02-.02.04-.02.06-.02.05 0 .07.01.06.06l-.03.12a.05.05 0 0 0 .02.04.05.05 0 0 0 .04.02l.06-.01a.08.08 0 0 0 .04-.07c.01-.09.06-.15.14-.17.08.02.15.02.2 0 .07-.03.07-.06.03-.1-.04-.03-.1-.05-.2-.04l-.04-.01.01-.06c.2-.14.42 0 .57.15.03.02.07.04.12.04.24 0 .39 0 .62.16.22.15.44.23.68.25Z" fill="#8A6A7C"/><path d="M8.5 4.35h-.2c-.12-.06-.12-.1 0-.13.1-.02.17 0 .23.08.03.03.02.05-.03.05ZM9.56 4.36c-.02-.05-.01-.1.03-.14.1 0 .16 0 .2.04.04.04.04.07-.02.1a.33.33 0 0 1-.21 0Z" fill="#EEE6EE"/><path d="M7.76 4.3c-.07.05-.18.08-.35.07-.05 0-.1.01-.13.04l-.57.3a.05.05 0 0 0-.02.03.05.05 0 0 0 .02.06l.03.01h.13a.08.08 0 0 1 .07.04l.03.05c.02.03.01.05-.02.06a6.6 6.6 0 0 1-.72.15c-.1.02-.17.1-.23.23-.06.02-.09.04-.1.07-.05.23-.14.28-.27.14.16-.28.4-.48.7-.62a.17.17 0 0 0 .09-.09c.05-.13.16-.22.33-.28.37-.13.58-.36 1-.26Z" fill="#C2B1BF"/><path d="M8.86 4.42a.18.18 0 0 0-.04.06.47.47 0 0 0-.18.08c-.06.03-.08.02-.08-.04 0-.03 0-.05.02-.08 0-.02.02-.04.05-.05.06-.04.1-.09.12-.14.08.03.12.08.11.17ZM9.94 4.4c0-.04.04-.06.08-.06.03 0 .05.01.07.03.03.04.02.06-.03.07a.2.2 0 0 1-.1 0h-.01a.04.04 0 0 1-.02-.03v-.02Z" fill="#D0C4B7"/><path d="m9.08 4.4.09-.02.04.01c.03.03.03.06.01.08a.72.72 0 0 0-.07.66c-.07.07-.16.08-.27.03.04-.28.02-.5-.06-.68l.04-.06a.46.46 0 0 1 .22-.03Z" fill="#481532"/><path d="M10.52 4.8c.02.05.07.1.12.1-.04.16-.15.26-.33.3-.07.02-.07.04 0 .07.1.03.2 0 .3-.08l.03-.01h.04l.03.04c.02.02.02.04 0 .05a.42.42 0 0 1-.39.15.32.32 0 0 1-.12-.04.27.27 0 0 1-.09-.08.2.2 0 0 1-.03-.1c0-.04.01-.08.03-.1.03-.04.1-.05.2-.06h.04l.01-.03.01-.05v-.01a.02.02 0 0 0-.02-.01c-.22 0-.4.07-.57.2l-.17-.04a.32.32 0 0 0-.23-.06c-.02 0-.03 0-.04-.02v-.04l.38-.2a.15.15 0 0 1 .12-.01c.08.02.16 0 .26-.03a.21.21 0 0 1 .14-.02l.28.07Z" fill="#4D265B"/><path d="M7.68 4.93c.04 0 .08 0 .13.05V5h-.03c-.24-.1-.43-.15-.56-.13-.03 0-.05 0-.06-.03V4.8l.02-.02c.16-.07.3-.04.43.1a.08.08 0 0 0 .07.04Z" fill="#EEE6EE"/><path d="M10.64 4.9a.19.19 0 0 1-.12-.1.35.35 0 0 1 .2-.03c.1.03.11.06.01.12a.4.4 0 0 1-.09.02Z" fill="#C2B1BF"/><path d="M11.6 4.9c.26.15.72.37.72.71-.15-.23-.32-.4-.51-.51-.2-.13-.47-.09-.63-.07a.1.1 0 0 1-.06-.01.09.09 0 0 1-.04-.05c-.02-.06-.02-.12 0-.15.01-.05.05-.06.1-.04.14.08.28.12.42.11Z" fill="#F6EFE4"/><path d="M8.54 5.08c.02.05-.03.09-.15.1-.03-.13.02-.16.15-.1Z" fill="#D0C4B7"/><path d="M9.6 5.1c.02.1-.08.12-.3.03-.02-.04 0-.06.08-.09.08-.01.16 0 .23.06Z" fill="#C2B1BF"/><path d="M8.88 5.16c.11.05.2.04.27-.03h.15c.22.09.32.08.3-.03l.18.03c.04.09.04.17 0 .23 0-.05-.04-.07-.1-.06a.2.2 0 0 0-.09.05c-.06.04-.14.04-.26 0-.08-.04-.15-.03-.2 0a.1.1 0 0 0-.02.05.09.09 0 0 0 .02.1.1.1 0 0 0 .05.02c.09.02.17 0 .25-.04a.22.22 0 0 1 .12-.04h.15c.04.03.03.1-.05.22a.21.21 0 0 0-.02.18.21.21 0 0 0 .12.13c.21.1.46.15.75.16.03 0 .04.01.03.04v.04l-.01.01-.89-.16H9.6a.06.06 0 0 0-.02.03l-.01.03v.02c.06.09.09.17.09.27-.23-.14-.4-.34-.53-.6a.2.2 0 0 0-.2-.12c-.02 0-.04 0-.05.02a.08.08 0 0 0-.03.05c-.03.23-.16.4-.4.5 0-.13.08-.23.23-.28.03-.01.03-.03.02-.05l-.03-.05c-.02-.03-.04-.03-.07-.02l-.21.12a.07.07 0 0 1-.07 0 .06.06 0 0 1-.02-.03v-.03l.05-.48.34.09h.06c.02 0 .03 0 .05-.02a.1.1 0 0 0 .03-.03l.01-.05c0-.05-.03-.08-.07-.1l-.1.03c-.13.05-.23.04-.31-.03-.01-.05 0-.1.03-.15.12-.01.17-.05.15-.1.12.06.23.08.34.08Z" fill="#517BA9"/><path d="M7.29 5.53a.3.3 0 0 1 .08.05c.03.03.02.06-.01.09l-.2.14c-.03.19.18.4.64.65l-.11.07c-.08-.03-.14-.04-.17-.02a.09.09 0 0 0-.04.11l.02.04c.06.06.14.08.22.06.1.09.15.2.13.32 0 .06-.04.07-.09.04a.2.2 0 0 0-.18-.02c-.02 0-.03.02-.03.03v.08l.02.01a.05.05 0 0 0 .03.01c.14-.01.22.03.25.12 0 .03.02.06.04.08l.63.62h.04c-.06.1-.12.17-.16.19-.06-.1-.13-.13-.22-.1-.07.02-.08.08-.03.16-.02.06-.08.06-.17.02-.05-.03-.07-.06-.06-.11l.05-.08a.13.13 0 0 0 .02-.13c-.02-.04-.06-.06-.11-.08l-.1.01a.89.89 0 0 1-.09.02c-.05.01-.1 0-.13-.03l-.27-.24a.15.15 0 0 0-.1-.04H6.8c-.06 0-.1-.03-.08-.09 0-.03.02-.07.05-.1.06.03.11.04.15.03.06-.01.08-.04.04-.09-.04-.06-.1-.09-.2-.1l-.24.17-.23.08c-.2-.1-.4-.25-.58-.46a.2.2 0 0 0-.1-.07c-.18-.04-.24-.15-.19-.33l.41-.03c.1 0 .1-.02.01-.05L5.7 6.5c-.06-.02-.08-.06-.07-.11v-.05c.02-.05 0-.08-.05-.1L5.4 6.2c-.1-.02-.1-.05 0-.06a.3.3 0 0 0 .13-.05c.02-.01.03-.02.03-.04.04-.06.03-.11-.04-.15.13-.1.17-.2.12-.35.13.14.22.1.28-.14 0-.03.03-.05.09-.07.1-.04.14-.04.08 0 .14.08.28.13.42.16.05.01.1 0 .13-.02.07-.05.1-.09.11-.12v-.02l-.01-.01h-.04a.43.43 0 0 0-.12.09c-.04.03-.07.04-.12 0-.03-.02-.05-.06-.06-.12 0-.04 0-.08.02-.12a.1.1 0 0 1 .1-.07c.16 0 .28.04.37.15.14.16.23.23.4.27Z" fill="#4D265B"/><path d="M6.4 5.3c0 .06.02.1.05.13.05.03.08.02.12-.01a.43.43 0 0 1 .12-.1.04.04 0 0 1 .04 0l.01.02v.02c0 .03-.04.07-.1.12a.16.16 0 0 1-.14.02 1.28 1.28 0 0 1-.42-.16.45.45 0 0 1 .31-.04Z" fill="#C2B1BF"/><path d="m9.78 5.36-.08.07h-.15a.22.22 0 0 0-.12.05.31.31 0 0 1-.25.04.1.1 0 0 1-.05-.03.09.09 0 0 1-.02-.1.1.1 0 0 1 .03-.03c.04-.04.11-.05.2-.01.1.04.2.04.25 0a.2.2 0 0 1 .1-.05c.05 0 .08.01.1.06Z" fill="#CEF0EE"/><path d="M8.36 5.33c.08.07.18.08.3.03.05-.02.08-.03.1-.02.05 0 .08.04.08.09v.05a.1.1 0 0 1-.04.03.12.12 0 0 1-.05.02h-.06l-.34-.09-.06-.02a.07.07 0 0 1-.04-.02v-.05c.02-.04.06-.04.1-.02ZM11.4 5.4c.04 0 .06.02.08.04.01.03 0 .05-.03.04a.67.67 0 0 1-.22-.08c-.05-.03-.05-.05 0-.07.06-.01.11 0 .17.07Z" fill="#EEE6EE"/><path d="m8.29 5.42.06.02-.06.48v.03l.03.03a.07.07 0 0 0 .07 0l.21-.12c.03-.01.05 0 .07.02l.03.05c.01.02 0 .04-.02.05-.15.05-.22.15-.22.27.01.12-.03.2-.13.22-.05 0-.07.04-.06.08 0 .03.03.06.06.08-.07.02-.1.05-.06.07a.5.5 0 0 0 .13.1c-.06.22.04.35.29.4.04 0 .07.03.1.06s.04.06.04.1l.02.47-.33.18-.63-.62a.17.17 0 0 1-.04-.08c-.03-.1-.1-.13-.25-.12a.05.05 0 0 1-.03 0l-.02-.02v-.08c0-.01 0-.03.03-.03a.2.2 0 0 1 .18.02c.05.03.08.02.09-.04a.36.36 0 0 0-.13-.32c0-.08 0-.14-.03-.2l.1-.06.19-.56.01-.02a.04.04 0 0 1 .04 0l.02.01c.03.04.07.07.13.06.08 0 .1-.03.04-.09l-.03-.02c-.02 0-.03-.02-.04-.04 0-.15.04-.28.14-.38Z" fill="#686684"/><path d="M6.03 5.58c.03-.02.1-.01.19.02.06.02.06.05 0 .08-.04.02-.1.03-.18 0-.1-.02-.1-.06-.01-.1Z" fill="#EEE6EE"/><path d="M9.66 6.41c.08.06.1.12.02.2-.13.06-.22.05-.3-.03a.11.11 0 0 0-.11-.04H9.12v.02l.03.02a.1.1 0 0 0 .02.01c.15.03.27.1.37.21.02.18-.03.28-.17.3-.06 0-.08-.02-.07-.07l.03-.14c0-.05-.01-.08-.06-.1-.05-.02-.11 0-.2.07-.06-.04-.13-.03-.22 0a.37.37 0 0 0-.14-.01c-.1.04-.18.03-.25-.03a.13.13 0 0 0 .06-.06c.03-.05.01-.08-.04-.1a.46.46 0 0 0-.15-.03c-.03-.02-.06-.05-.06-.08-.01-.04 0-.07.06-.08.1-.02.14-.1.13-.21.23-.1.36-.27.4-.5 0-.02 0-.04.02-.05a.09.09 0 0 1 .05-.02c.1 0 .16.03.2.12.13.26.3.46.53.6Z" fill="#280923"/><path d="m6.8 5.74.01.01v.02a.32.32 0 0 1-.2.04c-.04 0-.05-.02-.03-.05.02-.04.1-.05.22-.02Z" fill="#EEE6EE"/><path d="M6.88 6.58c0 .07-.01.12-.04.14-.03.03-.07.02-.12 0a.25.25 0 0 1-.13-.2c-.13-.27-.3-.47-.52-.6-.08-.05-.07-.06.02-.05.17.04.29.14.34.31.01.05.04.08.08.1.15.07.28.18.37.3Z" fill="#C2B1BF"/><path d="M5.51 5.9c.07.04.08.09.04.15 0 .02-.01.03-.03.04a.3.3 0 0 1-.12.05c-.12.01-.12.04 0 .06l.18.05c.05 0 .07.04.06.09l-.01.05c-.01.05.01.1.07.11l.15.06c.09.03.09.05 0 .05l-.42.03c-.1 0-.18.02-.25.06a.15.15 0 0 0-.04.04.14.14 0 0 0-.03.05c-.01.06-.05.09-.13.09l.06-.46c0-.05.02-.09.04-.13.12-.17.26-.3.43-.39Z" fill="#EEE6EE"/><path d="m12.45 5.93.13.08a.2.2 0 0 1-.15.15c-.05.02-.07.04-.07.08v.2c0 .03 0 .05-.03.06l-.04.03c-.05.02-.05.04 0 .07.16.08.34.14.53.16.1.05.18.15.23.27v.1a.12.12 0 0 1-.07.05l-.37.14c-.05.02-.07.05-.08.1-.01.18-.12.32-.33.44-.38 0-.73.1-1.06.27a.49.49 0 0 1 0-.4l.22-.13.25-.06.02-.02a.05.05 0 0 0 .01-.05l-.02-.02c-.08-.04-.19-.02-.32.06.2-.12.29-.25.24-.4a.11.11 0 0 0-.08-.07l-.44-.1c.07-.1.15-.15.25-.14.05 0 .07-.01.06-.06l-.01-.06c.01-.06.04-.1.07-.1.11-.24.28-.44.5-.6a.2.2 0 0 1 .12-.05h.44Z" fill="#6B3D6D"/><path d="M6 6.27c.08-.03.14-.04.2-.02l.02.02a.05.05 0 0 1 0 .05l-.02.02c-.08.04-.15.04-.2 0l-.02-.01a.04.04 0 0 1 0-.05L6 6.27ZM12.59 6.44l.02-.16c.13-.05.22-.04.28.05.03.04.03.1.01.15-.01.04-.05.06-.1.05a.74.74 0 0 1-.21-.1Z" fill="#EEE6EE"/><path d="M8.97 6.28c.2 0 .3.01.3.04s-.1.04-.3.04c-.2 0-.3-.01-.3-.04s.1-.04.3-.04Z" fill="#C2B1BF"/><path d="M11.76 6.27H11.93l.02.02a.03.03 0 0 1 0 .04c-.05.05-.11.04-.2-.01-.05-.03-.05-.05 0-.05Z" fill="#EEE6EE"/><path d="M11.39 6.57c-.03.01-.06.05-.07.1a.16.16 0 0 1-.1.08c-.04.02-.07 0-.08-.05-.02-.05-.04-.09-.06-.1-.04-.03-.04-.07 0-.1.09-.06.17-.1.24-.11.05-.02.08 0 .08.06l-.01.12Z" fill="#D0C4B7"/><path d="M6.88 6.58c.1-.04.2-.06.29-.04.05 0 .06.03.02.07a.28.28 0 0 1-.1.07.14.14 0 0 0-.04.01l-.02.02-.01.03v.01l.03.03c.02.01.05.02.07.01.1-.03.2-.03.26 0 .06.02.07.05.03.1a.33.33 0 0 0-.06.24.11.11 0 0 0 .05.08l.37.3h.01a.04.04 0 0 1 0 .03v.02l-.04.03c-.03.03-.06.03-.09 0L7.02 7c-.04-.04-.09-.05-.14-.02a.46.46 0 0 1-.13.05c-.05 0-.09-.01-.1-.06a.44.44 0 0 0-.37-.34c-.08-.02-.09-.04 0-.07a.97.97 0 0 1 .31-.03c.01.08.05.14.13.2.05.02.09.03.12 0 .03-.02.04-.07.04-.14Z" fill="#8A6A7C"/><path d="M7.69 6.53c.02.05.03.11.03.19a.23.23 0 0 1-.22-.06.1.1 0 0 1-.02-.03.09.09 0 0 1 .04-.12c.03-.02.09-.01.17.02Z" fill="#EEE6EE"/><path d="M8.67 6.54c.06-.02.11-.01.15 0l.01.02a.04.04 0 0 1 0 .04l-.02.02c-.07.03-.12.03-.16 0-.03-.05-.03-.07.02-.08Z" fill="#C2B1BF"/><path d="m10.3 6.5.19.03.03.02v.07c-.01.04-.03.06-.07.06-.09 0-.15-.05-.18-.15v-.02l.01-.01h.02Z" fill="#D0C4B7"/><path d="M11.73 6.6c.05.02.09.05.12.08.04.04.03.05-.02.02a1.15 1.15 0 0 0-.25-.1c-.06-.02-.06-.03 0-.03.05 0 .1 0 .15.03Z" fill="#C2B1BF"/><path d="M5.43 6.64c-.05.18.01.29.18.33a.2.2 0 0 1 .11.07c.18.21.37.36.58.46.07.08.17.1.3.06l.03-.02a.06.06 0 0 0 0-.08.06.06 0 0 0-.03-.02l-.07-.02.25-.16c.01.05.01.1 0 .14a.22.22 0 0 0-.05.11c-.01.06.01.1.08.1h.38c.04 0 .07 0 .1.03l.27.24c.04.03.08.04.13.03l.1-.02a.18.18 0 0 1 .09 0c.05 0 .09.03.1.07a.13.13 0 0 1-.01.13.24.24 0 0 0-.05.08c0 .05 0 .08.06.1.09.05.15.05.17-.01.06.03.12.04.17.04.03 0 .05-.01.07-.03a.14.14 0 0 0 .01-.07c.04-.02.1-.09.16-.2.04.44.04.87 0 1.27 0 .02-.03.05-.07.08-.1 0-.2 0-.3.03-.66.15-1.31.28-1.98.38a.95.95 0 0 1-.32 0 .16.16 0 0 0 .03-.09l.55.02a.1.1 0 0 0 .05-.01l.99-.37c.1-.04.11-.07 0-.1-.11-.02-.23-.11-.37-.28a.31.31 0 0 0-.1-.09.59.59 0 0 0-.2-.06c-.02 0-.04-.01-.05-.03a.08.08 0 0 1-.02-.05c0-.02 0-.03.03-.04l.04-.01c.15-.01.36.12.65.38l.04.02c.02 0 .04 0 .05-.02V9c0-.03.02-.04.05-.04.04.01.08.03.11.06a.07.07 0 0 0 .06 0h.03l.01-.03c.02-.03.02-.05 0-.07a4.82 4.82 0 0 0-.69-.65l-.06-.01a.13.13 0 0 1-.1-.08c-.13-.27-.35-.32-.65-.17a.14.14 0 0 1-.13 0 2.02 2.02 0 0 1-.52-.4h-.02l-.05.02c-.05.02-.05.05-.02.09.16.2.37.35.62.47.06.03.1.07.1.12.02.06 0 .08-.07.07l-.1-.01c-.05-.01-.06 0-.04.05 0 .04.03.07.07.1-.2-.1-.31-.1-.32-.01-.03-.17-.16-.21-.36-.12h-.04l-.03-.03c-.02-.02-.01-.05.02-.1a.17.17 0 0 0 0-.2c-.03-.04-.07-.04-.1-.01l-.11.07c-.24.08-.42.08-.53.03l.13-.51.02.08c0 .04.02.06.06.08.21.09.38.05.51-.1.04-.04.05-.09.05-.15-.01-.07-.06-.12-.13-.13a.13.13 0 0 0-.1-.07l-.3-.19c-.05-.12-.04-.2.03-.27.08 0 .12-.03.13-.09 0-.02.01-.03.03-.05a.15.15 0 0 1 .04-.04.56.56 0 0 1 .25-.06Z" fill="#5B4875"/><path d="M8.33 6.63c.06 0 .1.01.15.03.05.02.07.05.04.1a.13.13 0 0 1-.06.06L8.4 6.8a.5.5 0 0 1-.13-.1c-.03-.02 0-.05.06-.07Z" fill="#C2B1BF"/><path d="m8.4 6.8.06.02c.07.06.16.07.25.03-.02.06-.02.11-.01.14 0 .02 0 .03.02.04a.09.09 0 0 0 .07.02l.04-.01c.07-.05.08-.1.02-.18.09-.03.16-.04.23 0 .07.14.1.3.1.46 0 .05.02.06.06.04.22-.08.32-.06.3.06-.09.14-.2.2-.32.2a.1.1 0 0 0-.06.03.09.09 0 0 0-.03.06v1.43c0 .03-.01.07-.04.09a.14.14 0 0 1-.1.04h-.06c-.06 0-.08-.03-.08-.08V7.83l-.02-.47a.17.17 0 0 0-.04-.1.18.18 0 0 0-.1-.06c-.25-.05-.35-.18-.3-.4Z" fill="#31386E"/><path d="M8.85 6.86c.06.07.05.13-.02.18a.09.09 0 0 1-.11-.01l-.02-.04c-.01-.03 0-.08.01-.14l.14.01Z" fill="#C2B1BF"/><path d="m11.02 6.94.44.1c.04 0 .07.04.08.08.05.14-.04.27-.24.39l.01.05c-.34.09-.4.14-.16.17a.49.49 0 0 0-.01.4l.36.02c-.28 0-.35.03-.19.1-.29-.06-.51 0-.66.17a4.73 4.73 0 0 1-.68.65v.04c.06.06.07.12.05.18a3.05 3.05 0 0 0-.05-.06L9.9 8.7a.12.12 0 0 0-.04-.07l-.07-.07-.04-.02-.04.01a.06.06 0 0 0-.02.03v.03c.03.18-.05.3-.23.37-.04.02-.07 0-.07-.05v-.67c0-.03.02-.05.05-.05.06 0 .1.02.15.03.13.07.22.05.26-.04.1-.24.25-.45.45-.63a.68.68 0 0 0 .3-.26l.26-.21.16-.16Z" fill="#344A6D"/><path d="M6.27 7.18c.1.02.17-.01.19-.06 0-.06-.05-.11-.14-.13-.1-.02-.18 0-.19.06-.01.05.05.1.14.13ZM11.62 7.04c.04-.05.1-.06.15-.01l.02.02a.07.07 0 0 1 0 .07l-.03.03c-.05.04-.1.04-.14 0a.08.08 0 0 1 0-.11Z" fill="#EEE6EE"/><path d="M10.45 7.08h.03a.04.04 0 0 1 0 .07c-.05.04-.12.04-.23.01-.01 0-.02 0-.03-.02V7.1l.03-.02a.47.47 0 0 1 .2 0Z" fill="#C2B1BF"/><path d="m10.86 7.1-.26.21c-.04-.17.04-.24.26-.21ZM4.94 7.15l.31.2c-.11-.02-.19 0-.23.07a.13.13 0 0 0 .03.16l.06.03c.08.02.15 0 .2-.03.03-.02.04-.04.05-.08a.4.4 0 0 0 0-.1c.06.02.1.07.12.14 0 .06-.01.11-.05.15-.13.15-.3.19-.5.1a.1.1 0 0 1-.07-.08l-.02-.08c-.21-.14-.18-.3.1-.48Z" fill="#A26BD2"/><path d="M6.78 7.4a.28.28 0 0 0 0-.14c.09 0 .15.03.2.09.03.05.01.08-.05.09-.04 0-.09 0-.15-.04Z" fill="#C2B1BF"/><path d="M5.25 7.34c.05.01.08.03.1.07v.09c0 .04 0 .06-.03.08-.06.04-.12.05-.21.03a.14.14 0 0 1-.05-.03.13.13 0 0 1-.03-.16c.03-.07.1-.1.22-.08Z" fill="#EEE6EE"/><path d="M12.63 7.46c.09-.13.18-.16.29-.1l.04.06c.01.03.02.05.01.08l-.03.06a.13.13 0 0 1-.07.03.51.51 0 0 1-.18 0 .1.1 0 0 1-.04-.02.09.09 0 0 1-.03-.07l.01-.04Z" fill="#7CBEC6"/><path d="m6.53 7.42.07.02c.02 0 .03.01.03.02a.06.06 0 0 1 0 .08l-.03.02c-.13.04-.23.02-.3-.06l.23-.08Z" fill="#D0C4B7"/><path d="m9.54 7.42.76.15c-.2.18-.35.4-.45.63-.15-.12-.23-.1-.26.04a.4.4 0 0 0-.15-.03c-.03 0-.05.02-.05.05v.67c0 .05.03.07.07.05.18-.06.26-.19.22-.37v-.03l.03-.03a.06.06 0 0 1 .08.01l.07.07.04.07.07.53-1.32.25-.16-.13c.04-.03.06-.06.07-.08.04-.4.04-.83 0-1.27l-.04.01.33-.18V9.2c0 .05.02.08.08.08h.06c.04 0 .07-.01.1-.04a.13.13 0 0 0 .04-.1V7.72a.08.08 0 0 1 .03-.06.1.1 0 0 1 .06-.03c.13 0 .23-.06.32-.2Z" fill="#517BA9"/><path d="m11.36 7.6-.05-.04-.01-.05c.13-.08.24-.1.32-.06l.02.02v.05l-.03.02-.25.06Z" fill="#EEE6EE"/><path d="M10.59 7.62c.06-.06.1-.12.08-.14-.02-.02-.1.01-.16.07-.06.06-.1.12-.08.14.02.02.1-.01.16-.07Z" fill="#8A6A7C"/><path d="M6.84 8.65c-.04-.06-.02-.1.05-.14.11-.05.11-.08-.01-.11-.28-.06-.49 0-.64.16l-.06-.05a.31.31 0 0 1-.07-.1c-.02-.04 0-.06.05-.05l.1.01c.05.01.08-.01.07-.07-.01-.05-.05-.1-.1-.12a1.76 1.76 0 0 1-.63-.47c-.03-.04-.03-.07.02-.1h.05l.02-.01h.02c.15.17.31.3.5.4a.13.13 0 0 0 .13 0c.3-.15.52-.1.65.17.02.04.06.07.1.08h.06l.06.03c.25.22.47.42.63.63.02.02.02.04 0 .07L7.83 9a.07.07 0 0 1-.06.02L7.74 9a.26.26 0 0 0-.11-.06c-.03 0-.05.01-.05.04v.04a.07.07 0 0 1-.05.02c-.01 0-.03 0-.04-.02-.29-.26-.5-.4-.65-.38ZM13.27 8c.02.14-.05.21-.21.22-.1-.09-.19-.1-.27-.05-.04.02-.04.05 0 .08.04.02.1.03.17.03-.03.11-.01.2.05.28.04.03.04.06 0 .09a.41.41 0 0 0-.13.13c-.03.05-.01.08.04.08.12.01.19.05.22.1-.22.26-.47.41-.76.46l-.05.01-.65.38-1.66-.52c.02-.06 0-.12-.04-.18a.06.06 0 0 1 0-.08c.3-.24.53-.44.67-.6.15-.18.37-.24.66-.17.17 0 .23-.04.2-.1l-.37-.03c.33-.17.68-.26 1.06-.27-.03.1-.19.22-.48.35-.04.02-.06.05-.05.1 0 .03.05.03.13 0 .15-.05.3-.11.43-.18v.06c0 .06.03.07.08.05a.89.89 0 0 0 .35-.31c.02-.03.01-.04-.02-.04l-.05-.01-.07.01-.29.24a.95.95 0 0 1 .33-.36c.06-.04.09-.03.1.04 0 .02 0 .03.02.04h.03c.2-.1.4-.06.56.16Z" fill="#4D265B"/><path d="M5.86 8.5c-.07.16.04.22.31.17.04 0 .06-.03.07-.06v-.05c.15-.17.36-.22.64-.16.12.03.12.06.01.11-.07.04-.1.08-.05.14l-.04.01c-.02 0-.03.02-.03.04s0 .04.02.05c.01.02.03.02.05.03.08 0 .14.03.2.06.04.02.08.05.1.09.14.17.26.26.37.29.11.02.1.05 0 .09l-1 .37a.1.1 0 0 1-.04 0h-.55a.8.8 0 0 1-.22-.24c-.02-.03-.06-.04-.1-.04-.25.04-.4-.04-.48-.24a.07.07 0 0 0-.04-.03.08.08 0 0 0-.04-.01c-.03 0-.06 0-.1-.02a.12.12 0 0 1-.07-.1c-.01-.23-.23-.3-.24-.41 0-.02 0-.04.02-.07a.09.09 0 0 0 0-.1c-.07-.08-.06-.15 0-.21.07.02.12.06.14.12.04.08.08.1.14.16.07.05.1.04.07-.05l-.01-.04c-.01-.05 0-.08.05-.1a.3.3 0 0 0 .2-.19l.1-.07c.04-.03.08-.02.1.01.05.07.05.14.01.2-.03.05-.04.08-.02.1l.03.03h.04c.2-.1.33-.05.36.12Z" fill="#31386E"/><path d="m8.4 8.2-.01.07c-.02.02-.04.03-.07.03a.36.36 0 0 1-.17-.04c-.05-.08-.04-.14.03-.16.09-.03.16 0 .22.1Z" fill="#C2B1BF"/><path d="M5.24 8.11a.3.3 0 0 1-.2.19c-.05.02-.06.05-.05.1l.01.04c.02.09 0 .1-.07.05-.06-.05-.1-.08-.14-.16a.23.23 0 0 0-.14-.12c.03-.07.05-.1.06-.07.11.05.29.05.53-.03Z" fill="#5588A6"/><path d="M6.79 8.25a.9.9 0 0 1-.28 0c-.07-.02-.08-.05 0-.08.1-.05.2-.05.3.02.05.03.05.05-.02.06Z" fill="#696868"/><path d="M9.85 8.2c-.04.1-.13.1-.26.04.03-.14.11-.16.26-.04Z" fill="#D0C4B7"/><path d="m13.06 8.22-.1.06c-.08 0-.13-.01-.17-.03-.04-.03-.04-.06 0-.08.08-.05.17-.04.27.05Z" fill="#7CBEC6"/><path d="M11.5 8.15c.04.07-.02.11-.19.1-.16-.07-.1-.1.2-.1Z" fill="#517BA9"/><path d="M13.36 8.25c.04.06 0 .13-.14.2a.15.15 0 0 1-.04.03c-.05.01-.06 0-.03-.04.05-.1.12-.16.21-.2Z" fill="#344A6D"/><path d="M11.84 8.57c.08-.08.14-.12.17-.11l.05.02.02.04v.05c0 .02-.02.03-.03.04a.23.23 0 0 1-.19.04l-.02-.01a.04.04 0 0 1-.02-.05l.02-.02Z" fill="#C2B1BF"/><path d="M12.64 8.7c.1 0 .16-.06.15-.12-.01-.06-.1-.1-.18-.08-.1.01-.16.07-.15.13.01.06.1.1.18.08Z" fill="#CEF0EE"/><path d="M5.33 8.68c.09 0 .17-.03.17-.07 0-.05-.07-.08-.17-.09-.09 0-.17.03-.17.07 0 .04.07.08.17.09Z" fill="#D0C4B7"/><path d="M6.03 8.91A.05.05 0 0 1 6 8.9a.05.05 0 0 1 0-.04c0-.03.03-.05.07-.06.07-.02.1 0 .13.04a.06.06 0 0 1-.01.07l-.03.02h-.13Z" fill="#686684"/><path d="m6.97 9.2-.62-.15c-.03-.01-.06 0-.07.03v.04c-.01.02 0 .05.03.06l.62.16c.03 0 .06-.01.07-.04l.01-.03a.05.05 0 0 0-.04-.07Z" fill="#5588A6"/><path d="M11.41 9.09a.36.36 0 0 1 .23.02c.05.02.05.04 0 .07-.05.03-.13.03-.23-.01 0 0-.02 0-.02-.02l-.01-.02.01-.03.02-.01Z" fill="#C2B1BF"/><path d="M3.57 9.28c.2.24.55.37 1.04.39-.02.02-.03.05-.02.07l-.23.03c-.14.15-.3.26-.49.35a.12.12 0 0 1-.11-.01.93.93 0 0 0-.32-.14c-.09-.02-.1 0-.04.06.47.46 1.04-.15 1.57.4.22.22.35.33.56.48l.21.08c-.01.1.02.2.1.26.04.03.08.03.12 0 .07-.04.11-.1.13-.19v-.03l.03-.02a.08.08 0 0 1 .06 0c.21.04.15.33.45.36l.02.01.55.34c.03.02.05.04.06.07.04.08.1.12.2.12l.03-.02.01-.03c0-.03 0-.04-.03-.05a.47.47 0 0 1-.22-.11c-.18-.19-.39-.3-.58-.47-.08-.07-.07-.12.02-.15l.2-.07a.18.18 0 0 1 .18.02c.15.11.24.08.28-.08.06.04.11.1.16.16.46.57 1.09-.16 1.32-.5.12-.18.32-.22.62-.15l-.4.25c-.05.03-.05.07-.01.1.02.02.03.04.03.07 0 .03-.03.06-.08.1-.29.17-.53.4-.72.69l-.22.13c-.04.03-.04.04.01.05.38.02.75.14 1.11.37a.59.59 0 0 0-.22.05c-.04.02-.06.06-.05.1l.08.28c-.34-.14-.5-.37-.93-.31a.2.2 0 0 1-.11-.02l-.49-.27a.12.12 0 0 0-.1-.01l-.57.24a.5.5 0 0 1-.3 0c-.05-.02-.07-.05-.06-.09.02-.1-.03-.16-.14-.2-.03 0-.04-.02-.01-.05l.07-.01c.03 0 .04-.02.04-.06 0 0 0-.02-.02-.03-.01-.02-.03-.03-.07-.04a2.94 2.94 0 0 1-.39-.1c-.37-.11-.47-.4-.96-.33-.49.08-.98.08-1.47.01l-.29-.15c.02-.05.05-.1.1-.15a.28.28 0 0 0 .17-.08c.03-.03.03-.05-.02-.06-.03 0-.05-.02-.05-.05 0-.02.02-.04.05-.04h.17c.04 0 .05-.02.04-.05a.09.09 0 0 0-.06-.06 2.22 2.22 0 0 1-.41-.2c.1-.16.08-.25-.04-.29l-.07-.34c0-.05 0-.09.02-.12l.26-.43c.02-.02 0-.04-.03-.04h-.03c-.06-.01-.06-.03 0-.05.12-.04.22-.04.29 0Z" fill="#344A6D"/><path d="m9.97 9.23.05.06 1.66.52c.54-.02 1.01-.1 1.44-.23.44-.13.85-.21 1.22-.23l-.73.29-1.63.39c-.27-.03-.52-.17-.74-.23-.4-.1-.82-.27-1.21-.28-.63-.02-1 .11-1.56.23-.18.04-.29 0-.33-.12l.51-.15 1.32-.25Z" fill="#F6EFE4"/><path d="M14.64 10.6a1.05 1.05 0 0 0-.4-.09c0-.04-.03-.07-.07-.08-.07-.01-.12 0-.15.06l-.72.36c-.13-.01-.2.01-.23.08a.72.72 0 0 1-.47-.07c-.04-.02-.07-.02-.1-.02a.16.16 0 0 0-.07.07c-.08-.1-.16-.09-.24.04-.21-.1-.37-.22-.6-.28-.27-.07-.53-.16-.79-.25a20.3 20.3 0 0 1-.7-.37c-.2-.1-.4-.16-.6-.17h-.73l1.02-.14a.43.43 0 0 1 .32.09c.11.09.27.17.46.24.2 0 .4.05.57.13.04.02.09.03.13.03.23 0 .32-.06.6 0 .33.05.66.01.98-.12.04-.01.09-.02.14 0 .26.05.54.04.84-.04.01 0 .02-.02.01-.03l-.02-.05c-.01-.03-.03-.04-.07-.02a.53.53 0 0 1-.38.06c-.07-.02-.08-.05-.03-.1s.13-.07.25-.07c0-.04-.02-.07-.05-.09 0-.03.02-.08.07-.13l.73-.29c.1-.06.19-.1.3-.1.04-.01.06 0 .06.05 0 .14 0 .28.03.42l.11.27c.05.12.02.23-.08.34-.03.03-.02.06 0 .09l.04.04v.04c0 .02 0 .03-.02.04-.03.02-.07.04-.14.05Z" fill="#6B3D6D"/><path d="M5.9 9.76c.1.01.2.02.31 0 .67-.1 1.32-.23 1.98-.38l.3-.03.16.13-.51.15H8.1a48 48 0 0 0-1.55.27c-.25.05-.46.07-.64.05a3.4 3.4 0 0 1-.64-.13 4.46 4.46 0 0 0-.67-.15c-.49-.02-.83-.15-1.04-.4l2.32.49Z" fill="#CEF0EE"/><path d="M11.98 10.03c-.55.24-.91-.08-1.4.04-.2-.07-.36-.15-.47-.24a.42.42 0 0 0-.32-.1l-1.02.14a.3.3 0 0 0-.15.04.15.15 0 0 0-.08.1c-.14.45-.42.7-.84.73-.23.02-.26-.04-.1-.19.13-.11.23-.22.31-.34l.2-.59.03.01c.04.12.15.16.33.12.55-.12.93-.25 1.56-.23.39.01.82.17 1.2.28.23.06.48.2.75.23Z" fill="#D0C4B7"/><path d="m8.11 9.62-.2.6c-.02-.26-.15-.2-.4.13a.2.2 0 0 1-.09.08.29.29 0 0 1-.24-.04.13.13 0 0 0-.14-.01c-.26.12-.54.05-.84-.21 0 .08 0 .14.02.19.01.04 0 .07-.05.08a.18.18 0 0 1-.11 0c-.16-.06-.3-.14-.43-.26a.54.54 0 0 0-.53-.15c-.11.03-.2.04-.24.02a.37.37 0 0 1-.2-.18l-.07-.13c0-.02 0-.05.02-.07.22.03.45.08.67.15.21.06.42.1.64.13.18.02.4 0 .64-.05.52-.1 1.03-.2 1.55-.28Z" fill="#7CBEC6"/><path d="M13.6 9.64a.28.28 0 0 0-.06.13l-.05.02c-.05.02-.05.04 0 .06l.1.01c-.12 0-.2.02-.25.07-.05.05-.04.08.03.1.12.03.25 0 .38-.06.04-.02.06 0 .07.02l.02.05v.03c-.3.08-.6.09-.85.03a.25.25 0 0 0-.14.01c-.32.13-.65.17-.98.11-.28-.05-.37 0-.6.01-.04 0-.09 0-.13-.03a1.48 1.48 0 0 0-.57-.13c.5-.12.86.2 1.41-.04l1.63-.39Z" fill="#8A6A7C"/><path d="M4.36 9.77c-.03.1.07.14.3.1.05.09.11.15.2.18.04.02.13.01.24-.02.2-.05.38 0 .53.15.13.12.27.2.43.26h.11c.05-.01.06-.04.05-.08a.52.52 0 0 1-.02-.2c.24.55.8.35 1.14.38.06 0 .09.03.07.08 0 .04-.05.08-.11.1-.05.03-.06.07-.04.11.02.04.05.08.1.12-.05.16-.14.2-.29.08a.18.18 0 0 0-.18-.02l-.2.07c-.1.03-.1.08-.02.15.19.16.4.28.58.47.05.05.12.09.22.11.02 0 .03.02.03.05l-.01.03-.03.02c-.1 0-.16-.04-.2-.12a.18.18 0 0 0-.06-.07l-.55-.34h-.02c-.3-.04-.24-.33-.45-.38a.08.08 0 0 0-.08.03l-.01.03a.26.26 0 0 1-.13.2c-.04.02-.08.02-.12-.01a.26.26 0 0 1-.1-.26c.08-.08.07-.13 0-.15-.15-.03-.22 0-.2.07a3.62 3.62 0 0 1-.57-.48c-.53-.55-1.1.06-1.57-.4-.06-.06-.05-.08.04-.06.12.03.22.07.32.14a.11.11 0 0 0 .11 0c.19-.08.35-.2.5-.34Z" fill="#5588A6"/><path d="M13.54 9.77c.03.02.04.05.05.1l-.1-.02c-.05-.02-.05-.04 0-.06l.05-.02Z" fill="#C2B1BF"/><path d="M10.8 10.42c.06.16.1.3.25.4.21.13.74.33.59.64-.05.05-.11.1-.19.12-.57-.43-1.05-.77-1.44-1.02a.5.5 0 0 0-.32-.06.5.5 0 0 0-.24-.04c-.3-.07-.5-.03-.62.14-.23.35-.86 1.08-1.32.5a.97.97 0 0 0-.16-.15.31.31 0 0 1-.1-.12c-.01-.04 0-.08.05-.1.06-.03.1-.07.11-.11.02-.05 0-.07-.07-.08-.34-.03-.9.17-1.14-.37.3.26.58.33.84.2a.13.13 0 0 1 .14.02c.08.05.16.06.24.04a.2.2 0 0 0 .1-.08c.24-.34.37-.39.4-.14-.09.12-.19.23-.31.34-.17.15-.14.21.09.19.42-.04.7-.28.84-.73a.15.15 0 0 1 .08-.1.3.3 0 0 1 .15-.04l.73.01c.2.01.4.07.6.17l.7.37Z" fill="#280923"/><path d="M3.17 10.54c-.1 0-.12-.1-.04-.29.12.04.14.13.04.29Z" fill="#5588A6"/><path d="M4.77 10.44c.04.01.05.04.02.07-.03.03-.08.04-.15.03-.05-.01-.06-.04-.03-.08.02-.04.08-.04.16-.02Z" fill="#C2B1BF"/><path d="M12.19 10.95a.7.7 0 0 0 .24-.04.16.16 0 0 1 .08-.07c.02 0 .05 0 .09.02.15.08.3.1.47.07.15.04.22.01.23-.08l.72-.36c.03.05.1.06.23.02.13 0 .26.03.39.08v.05c.01.04.04.06.08.07a.2.2 0 0 0 .04 0c.01 0 .03 0 .03.02v.04c0 .03-.02.04-.05.04a.78.78 0 0 0-.5.09.02.02 0 0 0-.01.02l.02.01c.19-.01.33 0 .45.04.04.02.07.05.07.1 0 .13-.04.26-.1.4-.09 0-.15.03-.18.13a.13.13 0 0 1-.08.09.15.15 0 0 1-.13-.01l-.37-.2a.16.16 0 0 0-.14-.02c-.26.09-.68.05-.9.21-.11.07-.23.15-.37.22a.36.36 0 0 1-.42-.06l-.2-.2.63-.05.03-.01.02-.03v-.03l-.01-.02c-.18-.15-.76-.33-.8.03-.06.01-.1-.01-.11-.06.15-.31-.38-.5-.6-.65-.15-.1-.18-.23-.24-.39.26.1.52.18.8.25.22.06.38.18.59.28Z" fill="#4D265B"/><path d="M14.25 10.51c-.12.04-.2.03-.23-.02.03-.05.08-.07.15-.06.04.01.06.04.08.08Z" fill="#EEE6EE"/><path d="M9.7 10.5a.25.25 0 0 0-.2.13.11.11 0 0 0 .05.14l.05.02.62.11c.05.01.08.03.11.07.35.45.79.77 1.32.96.04.02.07.05.1.09.06.12.15.22.27.3-.01.07 0 .15.04.24-.3 0-.4-.27-.51-.42a.19.19 0 0 0-.11-.07c-.55-.15-1.01-.43-1.4-.84a.46.46 0 0 0-.11-.08 1.25 1.25 0 0 0-.14-.07c-.32-.04-.34.03-.08.23.1.08.2.19.3.33.08.09.17.19.3.3.17.14.34.3.5.49l-.75-.48a.13.13 0 0 1-.06-.11c0-.13-.06-.22-.16-.27a.24.24 0 0 1-.1-.09.6.6 0 0 0-.47-.28c-.28-.03-.41.23-.31.46-.16-.07-.4-.07-.7 0 .2-.28.44-.51.73-.69.05-.03.08-.06.08-.1 0-.02 0-.04-.03-.05-.04-.04-.04-.08.01-.1l.4-.26a.5.5 0 0 1 .24.04Z" fill="#5588A6"/><path d="m11.45 11.58.62.65-.05.08a.76.76 0 0 1-.28-.3.17.17 0 0 0-.1-.08 2.9 2.9 0 0 1-1.3-.96.17.17 0 0 0-.12-.07l-.62-.1a.12.12 0 0 1-.1-.11l.01-.06c.04-.07.1-.12.18-.13.14-.01.24 0 .32.06.4.25.87.6 1.44 1.02Z" fill="#CEF0EE"/><path d="m5.74 11-.2-.09c-.02-.08.05-.1.2-.07.07.02.08.07 0 .15Z" fill="#7CBEC6"/><path d="M12.43 10.9a.7.7 0 0 1-.24.05c.08-.13.16-.14.24-.04Z" fill="#D0C4B7"/><path d="M13.3 10.85c0 .1-.08.12-.23.08.03-.07.1-.1.23-.08Z" fill="#C2B1BF"/><path d="M3.28 11.08a.36.36 0 0 0-.1.15c-.06 0-.11 0-.14-.02-.04-.04-.04-.08 0-.1.07-.05.15-.06.24-.03Z" fill="#5588A6"/><path d="m12.06 12.56.09.05c.05.03.05.06.01.1-.15.15-.29.19-.4.1a.17.17 0 0 1-.03-.02 1.1 1.1 0 0 0-.26-.23c-.03-.02-.06-.02-.1.02a.06.06 0 0 0-.01.04c0 .01 0 .03.02.04l.21.2c.02.02.04.04.04.07a.13.13 0 0 1-.04.13.14.14 0 0 1-.06.03.56.56 0 0 1-.2 0c0-.2-.11-.37-.32-.51a.42.42 0 0 0-.2-.15 5.16 5.16 0 0 0-.5-.5c-.13-.1-.22-.2-.3-.3-.1-.13-.2-.24-.3-.32-.26-.2-.24-.27.08-.23a1.26 1.26 0 0 1 .26.15c.38.41.84.7 1.39.84.04 0 .08.03.1.07.11.15.22.42.52.42Z" fill="#280923"/><path d="M10.81 12.43c.07.02.13.07.2.15-.05.13-.15.16-.3.08-.18-.1-.3-.15-.4-.16-.13-.09-.3-.27-.52-.55-.16-.21-.44-.3-.83-.29-.1-.23.03-.5.3-.46.2.02.36.11.47.28l.1.1c.11.04.17.13.17.26 0 .05.02.08.06.11l.75.48Z" fill="#7CBEC6"/><path d="M11.88 11.62a.23.23 0 0 1-.13-.1c.04-.36.62-.18.8-.03l.01.02v.03c0 .01 0 .02-.02.03l-.03.01-.63.04Z" fill="#F6EFE4"/><path d="m6.78 12.28-.28.35a.2.2 0 0 1-.13.07c-.05.01-.1 0-.15-.03a.71.71 0 0 0-.25-.1c.05-.03.06-.06.03-.1-.36-.48-.88-.64-1.57-.47a.61.61 0 0 0-.6.18 6 6 0 0 1-.68.07c-.08 0-.09 0-.04-.04l.07-.02h.02l.02-.02a.04.04 0 0 0 0-.05.86.86 0 0 1-.22-.46c0-.04.01-.07.05-.08l.42-.2c.49.07.98.07 1.47 0 .49-.08.59.21.96.33l.4.1c.03 0 .05.01.06.03l.02.03c0 .04 0 .05-.04.06l-.07.01c-.03.03-.02.05.01.06.11.03.16.1.14.2 0 .03 0 .06.05.08.1.03.2.03.31 0Z" fill="#4D265B"/><path d="m14.67 11.48.29.14c.05.03.05.06.02.1a.56.56 0 0 0-.14.5c0 .06-.01.08-.07.07l-.36-.06c-.35-.12-.81-.32-1.17-.24-.32.07-.7.2-.8.5l-.03.03a.07.07 0 0 1-.1-.01l-.24-.28-.62-.65a.48.48 0 0 0 .19-.12c.01.05.05.07.1.06.04.05.08.08.14.1l.2.21c.06.05.13.09.2.1.08.01.16 0 .22-.04.14-.07.26-.15.36-.22.23-.16.65-.12.9-.21.06-.02.1-.01.15.01l.37.2a.15.15 0 0 0 .13.02c.02 0 .03-.02.05-.03a.13.13 0 0 0 .03-.06c.03-.1.1-.14.18-.12Z" fill="#481532"/><path d="M8.96 11.66c.39-.02.67.08.83.29.22.28.4.46.52.55.1.26.35.38.73.37h.04l.02.03a.07.07 0 0 1 0 .08c-.3.36-.68.04-.92-.15h-.03l-.04.04c-.02.01-.02.03 0 .04l.54.51a.09.09 0 0 1 .02.08v.03a.1.1 0 0 1-.04.03c-.36.25-.72.24-1.07-.04l-.03.01v.06l.01.04c.16.1.29.21.4.35L8.17 14a.96.96 0 0 0-.32-.24.23.23 0 0 0-.13-.03l-.21.03c-.06 0-.1-.02-.08-.08l.02-.2 1.07-.82c.06-.05.06-.1-.02-.12l-.2-.08a.24.24 0 0 0-.24.03l-.33.3c-.2.1-.3.21-.33.35a.2.2 0 0 1-.08.12.22.22 0 0 1-.16.04l-.47-.09-.03-.01-.02-.02a.06.06 0 0 1 0-.06.17.17 0 0 1 .08-.1c.17-.02.31-.08.42-.18.2-.18.26-.23.47-.37.1-.07.1-.13-.01-.19l-.08-.03a.36.36 0 0 0-.32 0c-.14.07-.28.2-.43.38l-.43.6c-.14.05-.27.05-.38-.01-.05-.03-.05-.06 0-.09l.23-.12c.04-.03.05-.06.02-.1-.08-.11-.23-.13-.46-.05-.08-.01-.05-.1.1-.26l.12-.03c.1.02.2.06.25.1.04.03.1.04.15.03a.2.2 0 0 0 .13-.07l.28-.35.56-.24a.12.12 0 0 1 .11 0l.49.28a.2.2 0 0 0 .11.02c.43-.06.59.17.93.3.33.3.7.56 1.11.8.13.07.26.1.39.07l.02-.02.02-.02a.05.05 0 0 0-.02-.05l-1.33-1.2a2.33 2.33 0 0 0-1.1-.37c-.06 0-.06-.02-.02-.05l.22-.13c.3-.08.53-.08.69 0Z" fill="#280923"/><path d="M5.45 11.83c.08 0 .15-.05.15-.1 0-.06-.07-.1-.16-.1s-.16.05-.15.1c0 .06.07.1.16.1Z" fill="#5B4875"/><path d="m5.97 12.57-.13.03c-.06-.01-.09-.02-.07-.03a.85.85 0 0 0-.5-.35c-.26-.08-.54-.15-.84-.22.69-.17 1.21-.01 1.57.47.03.04.02.07-.03.1Z" fill="#A33A3C"/><path d="M14.41 12.23c-.1.01-.31 0-.65-.04-.77-.08-1.23.19-1.37.8-.14.1-.33.12-.56.05l-.09.01a.1.1 0 0 0-.05.06c0 .01 0 .03.02.05-.2.05-.27.16-.22.34l-.57.28a.3.3 0 0 1-.14-.06c-.02-.16.05-.28.22-.35.18-.08.21-.13.33-.28.08.02.14.02.2 0l.06-.03a.13.13 0 0 0 .04-.13.13.13 0 0 0-.04-.07l-.21-.2a.06.06 0 0 1-.02-.04c0-.02 0-.03.02-.04.03-.04.06-.04.1-.02.07.04.15.12.25.23l.03.03c.11.08.25.04.4-.11.04-.04.04-.07-.01-.1l-.1-.05a.46.46 0 0 1-.03-.25l.05-.08.24.28.03.02a.07.07 0 0 0 .1-.04c.1-.3.48-.43.8-.5.36-.08.82.12 1.17.24Z" fill="#D97C4B"/><path d="M4.43 12c.3.07.58.14.84.22.23.07.4.19.5.35a1.59 1.59 0 0 1-.46-.19 2.5 2.5 0 0 0-1.49-.2.61.61 0 0 1 .6-.18ZM6.72 13.03c-.09-.02-.07-.16.05-.4.15-.19.3-.31.43-.38a.36.36 0 0 1 .32 0l.08.03c.11.06.11.12.01.19a2.9 2.9 0 0 0-.47.37c-.1.1-.25.16-.42.19Z" fill="#D0C4B7"/><path d="m9.17 12.22 1.33 1.2a.05.05 0 0 1 .02.05.05.05 0 0 1-.04.04.5.5 0 0 1-.39-.07c-.4-.24-.78-.5-1.11-.8l-.08-.26c0-.05 0-.09.05-.1a.59.59 0 0 1 .22-.06Z" fill="#686684"/><path d="M7.45 13.48c-.06-.01-.1-.04-.08-.06.08-.23.2-.44.36-.63l.33-.3a.23.23 0 0 1 .25-.03l.19.08c.08.03.08.07.02.12l-1.07.82Z" fill="#D0C4B7"/><path d="M11.01 12.58c.21.14.32.31.32.51-.12.14-.15.2-.33.28-.17.07-.24.19-.22.35-.1.02-.13.1-.12.28l-.72-.02c-.11-.14-.24-.26-.4-.35a.03.03 0 0 1-.02-.04l.01-.06c0-.01.02-.02.03 0 .35.27.71.28 1.07.03a.1.1 0 0 0 .03-.03.09.09 0 0 0 0-.07.09.09 0 0 0-.01-.04l-.54-.51c-.02-.01-.02-.03 0-.04l.04-.04h.03c.24.19.63.51.92.15l.01-.04v-.04a.07.07 0 0 0-.03-.02.07.07 0 0 0-.04-.01c-.38.01-.62-.11-.73-.37.1.01.22.07.4.16.15.08.25.05.3-.08ZM6.77 12.63c-.12.24-.14.38-.05.4a.17.17 0 0 0-.08.09.06.06 0 0 0 0 .06l.02.02.03.01.47.09c.05 0 .11 0 .16-.04a.2.2 0 0 0 .08-.12c.03-.14.14-.26.33-.36-.16.2-.28.41-.36.64-.01.02.02.05.08.06l-.02.2c-.01.06.02.09.08.08l.21-.03c.05 0 .1 0 .13.03.13.06.23.14.32.24H7.2l-.15-.4-.62-.14c0-.03-.02-.06-.05-.1a.31.31 0 0 0-.04-.13l.43-.6Z" fill="#A33A3C"/><path d="M6.34 13.23c.03.06.04.1.04.13l-.39.03a.31.31 0 0 1-.2-.06.29.29 0 0 1-.12-.18c-.02-.12 0-.22.08-.29.23-.08.38-.06.46.05.03.04.02.07-.02.1l-.23.12c-.05.03-.05.06 0 .09.1.06.24.06.38.01Z" fill="#F6EFE4"/><path d="m8.91 13.09-.46.45a.1.1 0 0 1-.1.02l-.08-.01-.02-.01-.02-.02a.05.05 0 0 1 .01-.05c.16-.2.33-.54.65-.46.06.01.07.04.02.08Z" fill="#D0C4B7"/><path d="M12.39 13c.07.14 0 .22-.18.25a.85.85 0 0 1-.5-.09c-.02-.02-.03-.04-.02-.05a.1.1 0 0 1 .05-.06.12.12 0 0 1 .09 0c.23.06.42.05.56-.05Z" fill="#F6EFE4"/><path d="M7.05 13.6c-.1.2-.26.22-.5.1-.12-.08-.16-.16-.12-.24l.62.14Z" fill="#D0C4B7"/><path d="M11.49 13.5c.06.2-.06.34-.35.4-.14.03-.21-.01-.22-.12l.57-.28Z" fill="#F6EFE4"/><defs><linearGradient id="a" x1="0" y1="9" x2="18" y2="9" gradientUnits="userSpaceOnUse"><stop stop-color="#986CE7"/><stop offset="1" stop-color="#B86ADC"/></linearGradient></defs></svg>