<!-- by TradingView --><svg width="18" height="18" viewBox="0 0 18 18" xmlns="http://www.w3.org/2000/svg"><path fill="url(#a)" d="M0 0h18v18H0z"/><path d="M9.13 4v.22c-.53 0-1.05.1-1.55.3-.05.02-.08.02-.1 0a.05.05 0 0 1-.03-.02v-.04a.67.67 0 0 0 .02-.22A4.9 4.9 0 0 1 9.13 4Z" fill="#DDECF1"/><path d="M12.54 5.47c-.17.2-.35.35-.55.46-.2-.48-.39-1.07-.89-1.27-.3-.12-.62-.22-.94-.31-.3-.08-.69-.09-1.04-.13V4c1.09.04 2.06.38 2.93 1.02.19.14.35.3.49.45Z" fill="#9FCBF5"/><path d="M7.47 4.24c0 .08 0 .15-.03.22v.04l.03.02c.03.02.06.02.1 0 0 .02.02.04.07.05l-.42.14a.06.06 0 0 0-.02.1c.04.03.06.08.08.14l.13.35c.08.17.07.28.09.5a.06.06 0 0 0 .05.05c.07 0 .16-.04.27-.12a.03.03 0 0 1 .04.02c0 .14-.02.22-.02.26 0 .04-.03.06-.08.06.03-.08.03-.13-.02-.16a.05.05 0 0 0-.04 0 .28.28 0 0 1-.24-.02.08.08 0 0 1-.04-.05l-.14-.76c-.01-.05-.04-.07-.09-.05l-.14.05c.06-.03.09-.06.1-.1a.05.05 0 0 0-.05-.06.5.5 0 0 0-.4.13 3.7 3.7 0 0 1-.5.38 2.1 2.1 0 0 1-.1-.3c-.02-.06-.06-.1-.12-.1.46-.34.95-.6 1.49-.79Z" fill="#5D4538"/><path d="M9.7 4.52V4.5c0-.02.03-.04.06-.05a.06.06 0 0 1 .05 0l.46.27a.05.05 0 0 1 .01.08l-.03.01-.42.1c-.13.02-.15-.02-.08-.12.05-.06.03-.15-.05-.27Z" fill="#4B481F"/><path d="M11.73 6.02c.12 0 .2.02.28.1a.23.23 0 0 0 .03.2l.02.04a.08.08 0 0 1-.03.07.08.08 0 0 1-.04.01c-.19.03-.34.03-.46 0-.03 0-.05.01-.06.04a.3.3 0 0 0 0 .1c0 .03-.02.04-.04.03h-.06c-.03-.01-.05-.03-.04-.07v-.02a.06.06 0 0 0-.04-.07.24.24 0 0 0-.14 0c-.03 0-.05.02-.05.05 0 .04 0 .07.02.11v.03a.05.05 0 0 1-.05.04l-.04-.01c-.02-.02-.02-.04 0-.06a.24.24 0 0 0 .04-.08c.01-.03 0-.04-.03-.05a1.5 1.5 0 0 0-.6.05c-.05 0-.06.02-.02.05.05.04.07.1.06.17a.06.06 0 0 0 .01.05.06.06 0 0 0 .05.02h.04c.03 0 .05-.02.04-.06l-.01-.15c0-.04.01-.05.05-.04.06.03.1.07.1.1 0 .09.04.13.12.12l.74-.08c.16 0 .3.04.4.11a.08.08 0 0 1 0 .14c-.24.08-.47.12-.72.14-.61.04-1.24.1-1.9.2-.04 0-.05.02-.03.05l.01.03c.02.03 0 .05-.03.06-.14 0-.34.03-.51 0-.25-.05-.38-.08-.6-.09a7.52 7.52 0 0 1-1.28-.11 9.62 9.62 0 0 0-.78-.22c.3-.15.66-.19.99-.28.2-.06.37-.1.52-.1.39-.04.72-.14 1.13-.2a18 18 0 0 0 .63-.1V6.3l-.01-.01h-.02l-1.94.2c-.04 0-.06-.01-.06-.05 0-.06-.02-.1-.07-.11-.03 0-.04-.02-.02-.05l.02-.03a.1.1 0 0 1 .05-.05l.36-.14c.05 0 .08-.02.08-.06a25.34 25.34 0 0 1 0-.28.03.03 0 0 0-.02 0c-.1.08-.2.12-.27.12a.06.06 0 0 1-.05-.05c-.02-.22-.01-.33-.09-.5a2.93 2.93 0 0 1-.13-.35.23.23 0 0 0-.08-.13.06.06 0 0 1 .02-.1l.42-.15c.53-.02.95.11 1.21.6.16.3.26.58.32.85.02.09.07.12.15.12.72-.07 1.59-.21 2.41-.12Z" fill="#F8E164"/><path d="M7.05 5.08a.37.37 0 0 0-.15.08.13.13 0 0 0-.04.07l-.15.72c-.04.15-.08.27-.12.35-.04.07-.02.1.06.07.17-.05.3-.03.47-.11a2 2 0 0 1 .64-.2l-.36.15a.1.1 0 0 0-.05.05l-.02.03c-.02.03-.01.04.02.05.05.01.07.05.07.1s.02.06.05.06l1.95-.2h.02v.04l-.62.1c-.41.06-.74.16-1.13.2a2.9 2.9 0 0 0-.52.1c-.33.1-.69.13-.99.28l-.21.06c.15-.05.17-.14.08-.3a1.6 1.6 0 0 1-.05-1c.11-.06.18-.17.2-.35.19-.12.35-.24.5-.38a.5.5 0 0 1 .4-.13.05.05 0 0 1 .05.07c0 .03-.04.06-.1.09Z" fill="#E2C862"/><path d="M7.76 6.07a2 2 0 0 0-.64.19c-.18.08-.3.06-.47.11-.08.03-.1 0-.06-.07.04-.08.08-.2.12-.35l.15-.72c0-.03.02-.05.04-.07.04-.04.1-.07.15-.08l.14-.05c.05-.02.08 0 .09.05l.14.76c0 .02.02.04.04.05.07.04.15.04.24.01a.05.05 0 0 1 .04 0c.05.04.05.1.02.17Z" fill="#4B481F"/><path d="M5.98 5.02c.06.02.1.05.11.12l.12.29c-.03.18-.1.3-.2.35-.12.18-.16.4-.12.66 0 .12-.02.13-.1.05-.1-.12-.23-.22-.4-.31l-.3-.17c.2-.22.44-.34.72-.35a.1.1 0 0 0 .09-.13l-.15-.33.23-.18Z" fill="#C8B5AC"/><path d="m10.37 5.22.18.03c.03 0 .04.02.03.05-.04.07-.09.11-.16.12a.08.08 0 0 1-.07-.02.84.84 0 0 1-.21-.33c-.01-.04 0-.05.04-.05l.3.04c.04 0 .05.02.05.04v.06a.03.03 0 0 1-.02.03H10.37c-.05.01-.05.02 0 .03Z" fill="#5D4538"/><path d="m5.75 5.2.15.33a.1.1 0 0 1-.09.13.99.99 0 0 0-.73.35l-.03.02c-.02.02-.03.01-.04-.01v-.04l.74-.78Z" fill="#AC9C97"/><path d="M6.99 5.25h.04a.04.04 0 0 1 .03.06c0 .01-.03.02-.06.01-.02 0-.04-.02-.03-.05v-.01L7 5.25Z" fill="#9C9371"/><path d="M7.04 5.63c.09-.02.15-.07.14-.1 0-.04-.09-.04-.18 0-.09.02-.15.07-.14.1.01.03.09.03.18 0Z" fill="#E2C862"/><path d="m13.6 7.07-.22-.13a.08.08 0 0 0-.08 0c-.16.07-.23.2-.37.28-.15.08-.29.12-.34.24a.96.96 0 0 0-.06.23v.04l.04.02c.22.03.39-.01.5-.11.1-.09.22-.07.33-.02.03.01.05 0 .06-.02a.24.24 0 0 0 .02-.11c0-.03.02-.05.05-.06l.2-.09c.2.57.29 1.17.27 1.78l-.43-.2c-.03-.02-.05-.01-.06.01a.77.77 0 0 0-.1.56.06.06 0 0 0 .05.04l.5.02-.43.02-.35-.11c-.03 0-.04-.03-.03-.05a.51.51 0 0 0-.02-.33c-.05-.08-.12-.11-.19-.08-.06.02-.1.1-.12.15a.07.07 0 0 1-.06.05l-.06-.01-.5-1.76c0-.2.16-.3.07-.49l-.06-.23-.2-.6a.34.34 0 0 0-.28-.09c.18.02.26-.01.26-.1.2-.1.38-.26.55-.45.48.46.83 1 1.07 1.6Z" fill="#3C3F52"/><path d="M6 5.78c-.09.37-.07.7.05 1l-.7-.17-.26-.03c.16-.1.26-.23.3-.4.17.09.3.2.4.3.08.09.1.08.1-.04-.04-.26 0-.48.11-.66Z" fill="#AC9C97"/><path d="M7.04 5.99c.1-.03.18-.08.17-.11-.01-.03-.1-.03-.2 0s-.19.08-.18.1c.01.04.1.04.2 0Z" fill="#9C9371"/><path d="m5 5.98.01.04c0 .02.02.03.05.01l.02-.02.31.17a.69.69 0 0 1-.3.4.58.58 0 0 0-.36.02.1.1 0 0 0-.05.06c-.16.47-.08.98.38 1.24.02.02.03.04.01.07l-.22.35c-.14.6-.1 1.19-.07 1.8 0 .22.06.4.17.56a.07.07 0 0 1-.03.12c-.11.03-.23.1-.34.19l-.01-.17c0-.03 0-.05.03-.06a.13.13 0 0 0 .08-.06c.02-.04.03-.08 0-.12-.02-.05-.08-.07-.17-.07.09-.37.11-.75.09-1.12a.07.07 0 0 0-.04-.06l-.35-.17.01-.28c.12.05.24.07.38.06.03 0 .04-.02.04-.05.03-.32.05-.68.04-1.08a.6.6 0 0 0-.05-.27c-.1-.18-.11-.37-.19-.56.12-.4.37-.66.56-1Z" fill="#9E848A"/><path d="M12.21 6.71h-.6l-.73.08c-.08 0-.12-.03-.12-.11 0-.04-.04-.08-.1-.1-.04-.02-.06-.01-.05.03l.01.15c0 .04 0 .06-.04.06h-.04a.06.06 0 0 1-.06-.04v-.03c.01-.08 0-.13-.06-.17-.04-.03-.03-.04.01-.05.24-.06.44-.08.6-.05.04 0 .05.02.04.05 0 .02-.02.05-.05.08-.01.02-.01.04.01.06h.04a.05.05 0 0 0 .05-.06.29.29 0 0 1-.02-.1c0-.04.02-.06.05-.07l.14.01c.03.01.04.04.04.07a.3.3 0 0 1 0 .02c0 .04 0 .06.04.06l.06.01c.02.01.04 0 .04-.03a.3.3 0 0 1 0-.1c0-.03.03-.04.06-.03.12.02.27.02.46 0a.08.08 0 0 0 .06-.05.08.08 0 0 0 0-.08.23.23 0 0 1-.04-.2l.2.59ZM9.7 6.7l.02.11c0 .03 0 .05-.03.05-.03.01-.07 0-.13-.01a.07.07 0 0 0-.07.02.22.22 0 0 1-.14.07 3.67 3.67 0 0 0-.6.1A.06.06 0 0 1 8.7 7v-.14c0-.05.02-.08.06-.08l.85-.16c.03 0 .05-.02.07-.04l.04-.04a.1.1 0 0 1 .07-.03l.4.03c.03 0 .03.01.01.04a.2.2 0 0 0-.05.21c.01.03 0 .05-.03.06a.11.11 0 0 1-.08 0 .06.06 0 0 1-.04-.07l-.01-.12a.09.09 0 0 0-.09-.06l-.15.03c-.04.01-.06.04-.05.08Z" fill="#7D6C30"/><path d="m5.09 6.58.27.03a.78.78 0 0 0-.36.26c-.02.02-.01.04.02.05l.75.26c-.13.45-.2.9-.19 1.34a.12.12 0 0 0 .12.11h.33a.05.05 0 0 1 .04.06c-.09.29-.21.56-.37.82-.1.14-.13.37-.12.67l.02.01h.02a.02.02 0 0 0 .01 0h.01l.06-.54c0-.03.02-.06.05-.07a.14.14 0 0 1 .05-.02c.02 0 .04.02.05.07l.02.1-.03.88-.22.03a.08.08 0 0 0-.06.04l-.1.18a.06.06 0 0 1-.07.03.83.83 0 0 0-.29.01c-.03.08-.06.02-.1-.16a.05.05 0 0 1 .04-.06h.03c.12.05.23.08.36.08a.07.07 0 0 0 .06-.05l.1-.2-.07-2.1a.08.08 0 0 0-.04-.06c-.05-.03-.12-.03-.2-.01l-.43-.02.22-.35c.02-.03.01-.05-.01-.07-.46-.26-.54-.77-.38-1.24a.1.1 0 0 1 .05-.06c.1-.04.23-.05.36-.02Z" fill="#C8B5AC"/><path d="m5.36 6.6.69.19c.1.15.07.24-.08.3l-.09.04-.11.05-.75-.26c-.03-.01-.04-.03-.02-.05.09-.12.2-.2.36-.26Z" fill="#CFC7B5"/><path d="m12.21 6.71.06.23c.02.1 0 .19-.04.25-.02.02-.04.03-.07.02a.59.59 0 0 0-.24-.03 4.4 4.4 0 0 0-.68.14l-.62.07a.95.95 0 0 0-.55.07l-.13.04a1.5 1.5 0 0 0-.42-.02c-.16.01-.3.02-.42.01-.22 0-.45.03-.68.11-.05-.01-.11-.01-.2.01l-.03-.04a6.41 6.41 0 0 1-.92-.08c-.2-.03-.39-.12-.58-.12l-.33-.07a.1.1 0 0 1-.07-.04.31.31 0 0 1-.05-.2c.24.04.48.1.72.18.17.04.6.08 1.29.11.2.01.34.04.59.08.17.04.37.02.5 0 .05 0 .06-.02.04-.05l-.01-.03c-.02-.03 0-.05.02-.06.67-.08 1.3-.15 1.9-.19a2.83 2.83 0 0 0 .76-.16.08.08 0 0 0-.02-.12.87.87 0 0 0-.41-.11h.6Z" fill="#E2C862"/><path d="M13.6 7.07c.06.09.1.18.12.27l-.2.09a.07.07 0 0 0-.04.06c0 .05 0 .08-.02.1-.01.03-.03.04-.06.03-.1-.05-.22-.07-.32.02-.12.1-.29.14-.5.11-.02 0-.03 0-.04-.02a.05.05 0 0 1-.01-.04c0-.05.03-.13.06-.23.05-.12.19-.16.34-.24.14-.08.2-.21.37-.28h.08l.23.13Z" fill="#9C9371"/><path d="M12.2 7.43c0-.13-.1-.21-.25-.24a.1.1 0 0 0-.12.13l.14.46c.01.02 0 .04-.03.04l-.16.02c-.05 0-.1-.1-.13-.29a.07.07 0 0 0-.04-.06l-.37-.17c.26-.08.5-.12.68-.14.07-.01.15 0 .24.03.03 0 .05 0 .07-.02.04-.06.06-.14.04-.25.1.2-.07.3-.07.49Z" fill="#595A4E"/><path d="M4.44 6.98c.08.2.1.38.19.56a.6.6 0 0 1 .05.27c0 .4 0 .76-.04 1.08 0 .03-.01.05-.04.05a.68.68 0 0 1-.38-.06 6.1 6.1 0 0 1 .05-1.29l-.03.02h-.01v-.03l.21-.6Z" fill="#472E31"/><path d="M6.18 7.02a.1.1 0 0 0 .06.03c0 .08.02.15.05.2a.1.1 0 0 0 .07.05l.33.07c.2 0 .38.09.58.12a6.41 6.41 0 0 0 .92.08l.03.04c-.05.1-.1.15-.17.14a.1.1 0 0 1-.07-.05c-.04-.05-.08-.08-.13-.08-.03 0-.05.02-.06.05-.1.46-.3.77-.6.94-.11-.03-.2.02-.28.16l-.02.01a.85.85 0 0 0-.37.07c-.04.01-.05 0-.04-.04l.12-.37c0-.03 0-.04-.02-.06a.07.07 0 0 0-.04-.01.05.05 0 0 0-.06.03c-.3.6-.48 1.02-.54 1.26-.03.13-.06.45-.1.95l.03-.89c0-.17.04-.33.1-.46a45.88 45.88 0 0 1 .82-1.7.17.17 0 0 0-.15-.17l-.83-.1c-.03 0-.04-.02-.03-.05a.33.33 0 0 1 .1-.11l.09-.05.21-.06Z" fill="#998C82"/><path d="M5.88 7.13a.33.33 0 0 0-.1.11c-.01.03 0 .05.03.05l.83.1a.17.17 0 0 1 .15.16c0 .03 0 .06-.02.08-.25.47-.51 1.01-.8 1.63-.06.13-.1.29-.1.46 0-.03 0-.06-.02-.1-.01-.04-.03-.06-.05-.06l-.05.02a.08.08 0 0 0-.05.07l-.06.53a.02.02 0 0 1-.02.02H5.6l-.02-.02c-.01-.3.03-.53.12-.67a3.55 3.55 0 0 0 .37-.84.04.04 0 0 0-.04-.04H5.7a.12.12 0 0 1-.12-.11c0-.44.06-.89.19-1.34l.11-.05ZM12.2 7.43l.5 1.76c.06.12.21.32.24.45.02.12 0 .13-.09.04l-.2-.26c-.1-.17-.17-.21-.2-.12a4.5 4.5 0 0 1-.5 1.34.06.06 0 0 1-.09-.02v-.06c.05-.36.2-.7.24-1.04l.05-.48c.02-.18-.02-.23-.1-.16.2-.49.14-.83-.18-1.04h-.09l.16-.02c.03 0 .04-.02.03-.04l-.14-.46a.1.1 0 0 1 .07-.13.1.1 0 0 1 .05 0c.16.03.24.1.25.24Z" fill="#AC9C97"/><path d="m11.24 7.32.37.17c.02.02.04.04.04.06.04.2.08.29.13.3l.09-.01-.55.01c.03-.05-.02-.05-.17 0a4.92 4.92 0 0 0-.74.08.08.08 0 0 0-.02.07c0 .03.03.05.06.05.12.03.25.03.4.01l-.34.3c-.09.07-.15.1-.2.12-.24.03-.32.06-.56-.11a9.02 9.02 0 0 1-.27-.2c.1-.04.14-.07.1-.1a.23.23 0 0 0-.2-.06c-.11.02-.21.05-.32.09l-.72.07a.5.5 0 0 0-.3.03.6.6 0 0 0-.24.03.1.1 0 0 0-.02.2l.08-.01c-.03.18-.15.23-.32.21a4.1 4.1 0 0 0-.34-.02c.3-.17.5-.48.59-.94 0-.03.03-.05.06-.05.05 0 .1.03.13.08a.1.1 0 0 0 .07.05c.07.01.12-.04.17-.14.09-.02.15-.02.2 0 .19.14.4.26.65.35.14.05.21 0 .21-.15v-.2c0-.03.02-.05.04-.07.04-.02.08-.02.11 0s.06.05.07.1c.1.3.22.32.5.48a.04.04 0 0 0 .04 0 .04.04 0 0 0 .01-.04.87.87 0 0 0-.16-.36c-.05-.08-.03-.15.05-.22l.13-.04c.08.12.1.25.05.38-.03.08 0 .1.07.05.17-.1.32-.27.43-.5l.62-.07ZM6.02 7.64c-.07-.01-.11-.06-.12-.14 0-.04 0-.06.03-.08.08-.05.16-.07.23-.05.03.01.05.04.05.07v.72a.15.15 0 0 1-.18.15l-.28-.06a.08.08 0 0 1-.06-.05.08.08 0 0 1 .02-.08l.35-.35a.08.08 0 0 0 .02-.08.08.08 0 0 0-.06-.05Z" fill="#CFC7B5"/><path d="M10.62 7.4c-.11.22-.26.39-.43.49-.08.04-.1.03-.07-.05a.37.37 0 0 0-.05-.38c.17-.08.36-.1.55-.07ZM9.94 7.5c-.08.07-.1.14-.05.22.09.12.14.24.16.36v.02a.04.04 0 0 1-.03.03L10 8.12c-.28-.16-.4-.18-.5-.48-.01-.05-.04-.08-.07-.1-.03-.02-.07-.02-.1 0a.08.08 0 0 0-.05.07v.2c0 .15-.07.2-.2.15-.26-.1-.47-.21-.66-.36.23-.08.46-.11.68-.1l.42-.02c.14-.02.28 0 .42.02Z" fill="#7B8777"/><path d="M5.58 7.67v.18a.07.07 0 0 1-.1.07l-.5-.15c-.06-.02-.06-.05-.02-.1l.11-.1a.07.07 0 0 1 .07-.03l.36.05c.05 0 .08.03.08.08Z" fill="#E6E6E7"/><path d="M4.23 7.58v.02l.01.01c.01 0 .02 0 .03-.02v.02a6.1 6.1 0 0 0-.05 1.27v.28l-.03 1.16a4.54 4.54 0 0 1 .04-2.74Z" fill="#CFC7B5"/><path d="M11.32 7.85a.27.27 0 0 1-.11.03l-.06-.03c.15-.05.2-.05.17 0Z" fill="#998C82"/><path d="M11.87 7.84c.32.2.38.55.18 1.04-.1.23-.25.43-.45.6-.19.11-.39.17-.6.18a.51.51 0 0 1-.4-.17.92.92 0 0 1-.23-.47.08.08 0 0 0-.05-.07c-.11-.04-.2 0-.28.11-.14.44-.52.87-1 .9-.2.01-.42 0-.63-.06a1.08 1.08 0 0 1-.61-.39 2.06 2.06 0 0 0-.3-.32 2.54 2.54 0 0 0-.53-.31c-.05-.03-.07-.06-.06-.11.08-.14.17-.2.29-.16.09 0 .2 0 .34.02.17.02.29-.03.32-.21l.24-.16a.67.67 0 0 0 .24-.09l.72-.07.42.07.27.2c.24.17.32.14.55.1.06 0 .12-.04.2-.11l.34-.3.37-.18c.02 0 .06 0 .1-.03l.56-.01Z" fill="#FAE8F9"/><path d="m11.15 7.85.06.03-.37.18c-.14.02-.27.02-.4 0A.07.07 0 0 1 10.4 8c0-.03 0-.05.02-.07a4.92 4.92 0 0 1 .74-.08ZM9.48 8.17l-.42-.07c.1-.04.21-.07.32-.09.07-.01.14 0 .2.06.04.03 0 .06-.1.1Z" fill="#1D1D16"/><path d="M11.4 8.06c.1.17.17.3.2.42-.02.04-.03.06-.06.07a.06.06 0 0 1-.07-.01.2.2 0 0 0-.08-.06.05.05 0 0 0-.06.03l-.12.4c-.04.11-.1.14-.21.1-.26-.12-.35-.29-.27-.52.18-.24.4-.38.66-.43Z" fill="#030304"/><path d="M10.65 8.57c.03.04.03.08.01.13-.1.2-.08.38.04.56l.04.02.34.07a.16.16 0 0 0 .18-.09l.33-.78a1.16 1.16 0 0 0-.2-.42c.22-.02.38.03.48.16.22.3-.04.81-.27 1.05-.25.24-.82.4-.98-.05a.81.81 0 0 1 .03-.65Z" fill="#595A4E"/><path d="m8.04 8.2.06.06-.24.16h-.08a.1.1 0 0 1 .02-.2.6.6 0 0 1 .24-.02Z" fill="#1D1D16"/><path d="m4.85 8.32.43.02c-.16.41-.22.92-.19 1.51.02.35.13.61.33.8.02.02.03.02.05 0l.12-.15-.1.21a.07.07 0 0 1-.06.05.87.87 0 0 1-.36-.08.05.05 0 0 0-.07.06c.04.18.07.24.1.16l.04.02-.56.07c.11-.1.23-.16.34-.2a.08.08 0 0 0 .05-.08l-.02-.03a1 1 0 0 1-.17-.56c-.03-.61-.07-1.2.07-1.8Z" fill="#D0C5CE"/><path d="m5.59 10.5-.12.15c-.02.02-.03.02-.05 0-.2-.19-.3-.45-.33-.8-.03-.59.03-1.1.19-1.51.08-.02.15-.02.2 0a.08.08 0 0 1 .04.07l.07 2.1Z" fill="#E6E6E7"/><path d="m8.98 8.36.32.4a.22.22 0 0 1 .04.2c-.02.08-.05.18-.06.29-.03.19-.13.24-.21.4A.12.12 0 0 1 9 9.7a.71.71 0 0 1-.25.04c-.23-.04-.41-.2-.55-.47 0-.06.01-.1.03-.15.02-.03.04-.03.05 0 .08.18.2.31.38.4a.24.24 0 0 0 .22-.02l.24-.14c.01 0 .02 0 .02-.02v-.03l-.02-.03a.06.06 0 0 0-.1-.01c-.1.1-.23.11-.38.04a.4.4 0 0 1-.15-.11c-.15-.19-.18-.26-.2-.5a.73.73 0 0 1 .7-.34Z" fill="#030304"/><path d="M8.75 9.74c.1 0 .18-.01.25-.04a.12.12 0 0 0 .07-.05c.08-.16.18-.21.2-.4l.07-.3a.22.22 0 0 0-.04-.2l-.32-.39c.2 0 .33.01.39.03.57.17.6.74.24 1.1-.2.22-.49.3-.86.25Z" fill="#595A4E"/><path d="M6.89 8.78a.5.5 0 0 1-.27.15L6.5 9a.07.07 0 0 0-.04.07c0 .03 0 .06-.02.08a.17.17 0 0 0-.02.1c-.02.4.03.8.14 1.18a3.36 3.36 0 0 1-.2-1.28c0-.06-.01-.07-.05-.02-.17.27-.27.6-.15.94.15.4.2.66.15 1.2 0 .03-.02.05-.05.06l-.5.19-.69.56-.27-.4c.1-.1.24-.19.4-.26a.1.1 0 0 0 .06-.06c.04-.1 0-.16-.1-.18l.18-.1a.07.07 0 0 0 .02-.1.07.07 0 0 0-.03-.03.32.32 0 0 0-.19-.03.85.85 0 0 0-.04-.02c.1-.02.2-.02.29 0a.06.06 0 0 0 .06-.04l.1-.18a.08.08 0 0 1 .06-.04l.23-.03c.04-.5.07-.82.1-.95.06-.24.24-.66.54-1.26a.05.05 0 0 1 .06-.03l.03.01c.03.02.03.03.03.06l-.12.37c0 .04 0 .05.04.04a.85.85 0 0 1 .37-.07ZM13.02 8.55c.07 0 .13-.05.12-.1 0-.05-.06-.09-.14-.08-.07 0-.13.05-.13.1s.07.09.15.08Z" fill="#7D7C7E"/><path d="m11.6 8.48-.34.78a.16.16 0 0 1-.18.1l-.34-.08a.06.06 0 0 1-.04-.02.52.52 0 0 1-.04-.56c.02-.05.02-.1-.01-.13l.08-.08c-.08.23.01.4.27.52.1.04.17.01.2-.1l.13-.4a.05.05 0 0 1 .02-.03.05.05 0 0 1 .04 0 .2.2 0 0 1 .08.06.06.06 0 0 0 .07.01c.03 0 .04-.03.05-.07Z" fill="#2D2626"/><path d="M8.53 8.7c.04 0 .08-.02.08-.06 0-.04-.03-.07-.08-.07s-.09.03-.09.06c0 .04.04.07.09.07Z" fill="#7D7C7E"/><path d="M8.3 8.7c0 .24.04.31.19.5a.4.4 0 0 0 .15.11c.15.07.27.06.38-.04a.06.06 0 0 1 .1.01l.01.03v.05l-.25.14a.24.24 0 0 1-.22.01.7.7 0 0 1-.38-.38c-.01-.04-.03-.04-.05 0a.32.32 0 0 0-.03.14.66.66 0 0 1 .1-.58Z" fill="#5D4538"/><path d="M6.91 8.77c-.01.05 0 .08.06.1.17.08.34.18.53.32.07.05.17.16.3.32.16.2.36.34.6.4.22.04.44.06.65.05.47-.03.85-.46 1-.9.04.14.15.34.31.58.15.22.14.42-.02.62-.13.16-.39.22-.65.3-.57.17-.97-.02-1.5-.16l-.62-.4c-.25-.17-.51-.15-.78-.3a.83.83 0 0 1-.29-.4c-.03-.13.01-.26.13-.37a.5.5 0 0 0 .26-.15l.02-.01Z" fill="#CFC7B5"/><path d="m11.85 10.56-.01.11c0 .03 0 .05.03.07l.04.02c.05 0 .1.01.14.04.04.03.06.06.07.1l.18.87-.14.36c-.04.1-.06.1-.04-.01.03-.32-.05-.64-.23-.97a.17.17 0 0 0-.07-.07.11.11 0 0 0-.08 0c-.02 0-.04-.01-.06-.04a.12.12 0 0 1-.04-.05c-.1-.33-.55-.45-.82-.5l.46-.4c.14-.11.25-.32.32-.62.2-.16.35-.36.45-.6.08-.06.12-.01.1.17l-.05.48c-.04.34-.2.68-.25 1.04Z" fill="#595A4E"/><path d="m14 9.12-.03.43h-.01l-.5-.02a.05.05 0 0 1-.05-.04c-.04-.2 0-.38.1-.56.01-.02.03-.03.06-.02l.43.21Z" fill="#2D2626"/><path d="M6.63 8.93c-.12.11-.16.24-.13.36.04.14.13.28.3.42l-.1-.02c-.02 0-.04 0-.03.03l.12 1.13c0 .02 0 .03-.02.03h-.03a.04.04 0 0 1-.03 0 .04.04 0 0 1-.02-.02l-.13-.43a3.8 3.8 0 0 1-.14-1.19c0-.03 0-.06.02-.09a.14.14 0 0 0 .02-.08c0-.03.01-.06.04-.07l.13-.07Z" fill="#998C82"/><path d="M11.6 9.47c-.07.3-.18.5-.32.62l-.46.4c-.22.15-.5.25-.82.29a.12.12 0 0 0-.1.13c0 .12.05.23.13.35-.1.19-.07.45-.3.56-.1.04-.27.03-.36.03-.39 0-.44-.33-.56-.62.12-.1.22-.2.27-.33a.13.13 0 0 0-.07-.18.58.58 0 0 0-.24-.03l-.62-.2c.04-.01.05-.04.04-.09.53.14.93.33 1.5.16.26-.08.52-.14.65-.3.16-.2.17-.4.02-.62a2.64 2.64 0 0 1-.32-.58c.08-.11.17-.15.28-.1.03 0 .05.03.05.06.04.18.11.34.23.47.1.11.24.17.4.17.21 0 .41-.07.6-.19Z" fill="#C8B5AC"/><path d="M13.13 9.08c.01.05 0 .09-.01.11-.04.05-.2.02-.28.1a.06.06 0 0 0-.02.07l.08.09c.03.02.04.04.05.07l.09.27c0 .02 0 .04-.03.04-.09.02-.19.05-.3.1-.04.02-.07.04-.06.08 0 .01 0 .03.02.04l.04.01a4 4 0 0 1 .99.04l-1 .03c-.03 0-.06-.01-.08-.03a.32.32 0 0 0-.19-.06.14.14 0 0 0-.13.11l-.04.18c-.01.07.02.1.1.1.08-.01.2 0 .32.03.07.02.17.04.3.04.18 0 .35.04.53.1a.4.4 0 0 1 .2.03.36.36 0 0 0 0 .12c-.03-.05-.06-.07-.1-.05h-.06l-1.14-.23a.07.07 0 0 0-.08.08c.07.41.06.82-.03 1.22l-.18-.86a.18.18 0 0 0-.07-.11.22.22 0 0 0-.14-.04l-.04-.02a.06.06 0 0 1-.03-.07l.01-.1.01.05a.06.06 0 0 0 .06.03l.02-.01.03-.03c.22-.4.38-.83.47-1.3-.01.1.01.19.07.24a.08.08 0 0 0 .14-.04v-.09l.2.26c.08.09.1.08.09-.04-.03-.13-.18-.33-.24-.45h.06c.03 0 .05 0 .06-.04.03-.06.06-.13.12-.15.07-.03.14 0 .19.08Z" fill="#7B8777"/><path d="m13.53 9.57-.22.24c-.08.1-.06.13.06.12.16 0 .33 0 .53.02l-.02.1c-.05 0-.11 0-.18.05a4.01 4.01 0 0 0-1.03-.05.06.06 0 0 1-.02-.04c0-.04.02-.06.06-.08.11-.05.21-.08.3-.1.03 0 .03-.02.03-.04l-.09-.27a.14.14 0 0 0-.05-.07.27.27 0 0 1-.08-.1.07.07 0 0 1 .02-.07c.08-.07.24-.04.28-.09.02-.02.02-.06.01-.11.04.08.05.2.02.33 0 .02 0 .04.03.05l.35.11Z" fill="#595A4E"/><path d="m6.56 10.43.13.43a.04.04 0 0 0 .05.03h.03l.02-.04-.12-1.13c0-.02 0-.03.03-.03l.1.02c.26.14.52.12.77.29.2.14.4.27.62.4.01.05 0 .08-.04.09l-.42.12c-.3.08-.52.14-.7.38-.09.16-.22.3-.38.4a.15.15 0 0 1-.07-.1.06.06 0 0 0-.03-.06.06.06 0 0 0-.07 0 .62.62 0 0 0-.19.64v.03l-.02.02h-.02l-.03-.01-.02-.03-.11-.28a.12.12 0 0 0-.06-.06.34.34 0 0 0-.26-.02l.5-.2a.07.07 0 0 0 .04-.05c.06-.54 0-.8-.15-1.2-.12-.34-.02-.67.15-.94.04-.05.05-.04.05.02-.02.43.05.86.2 1.28ZM4.51 10.51a.55.55 0 0 0-.16-.02c-.05 0-.07.05-.06.12a.65.65 0 0 1-.1-.29l.02-1.16.35.17c.02 0 .04.03.04.06.02.37 0 .75-.09 1.12Z" fill="#696868"/><path d="M12.64 9.42v.09a.08.08 0 0 1-.04.06.08.08 0 0 1-.08-.02c-.07-.05-.1-.14-.08-.25.04-.1.1-.05.2.12Z" fill="#472E31"/><path d="M13.97 9.55c0 .14-.02.27-.07.4-.2-.02-.37-.03-.53-.02-.12.01-.14-.03-.06-.12l.22-.24.43-.02Z" fill="#7D7C7E"/><path d="M12.38 9.69a.04.04 0 0 1 .03-.04h.1l.06.03.04.04.01.04v.02c0 .03-.02.05-.05.07a.27.27 0 0 1-.13.03h-.03a.04.04 0 0 1-.03-.02V9.69Z" fill="#2D2626"/><path d="m10.28 10.01-.38.04a.1.1 0 0 0-.08.1v.01c0 .06.05.1.1.09l.38-.04a.1.1 0 0 0 .09-.1v-.01a.1.1 0 0 0-.11-.09Z" fill="#030304"/><path d="M13.7 10.1c.07-.04.13-.06.18-.04-.01.1-.04.2-.08.28a17.57 17.57 0 0 1-.59.07c-.01.03 0 .04.02.05.1.02.2.07.28.14-.18-.06-.35-.1-.52-.1-.14 0-.24-.02-.31-.04a.9.9 0 0 0-.33-.03c-.07 0-.1-.03-.09-.1l.04-.18a.14.14 0 0 1 .13-.1c.07-.01.13.01.2.05.01.02.04.03.07.03l1-.03Z" fill="#82B9C0"/><path d="M13.8 10.34c0 .12-.02.21-.08.29a.4.4 0 0 0-.2-.03.6.6 0 0 0-.29-.14c-.02 0-.03-.02-.02-.05l.01-.01.03-.01.55-.05Z" fill="#DDECF1"/><path d="M13.7 10.75a5.1 5.1 0 0 1-2.43 2.71 6.23 6.23 0 0 1-.34-1.12 1.1 1.1 0 0 0-.3-.54l-.36-.36a.48.48 0 0 0-.24-.18.72.72 0 0 1-.13-.35.12.12 0 0 1 .1-.13c.33-.04.6-.14.82-.29.27.05.71.17.82.5l.04.05c.02.03.04.04.06.03l.08.01c.03.01.06.04.07.07.18.33.26.65.22.97 0 .11 0 .11.05 0l.14-.35a3.2 3.2 0 0 0 .03-1.25.07.07 0 0 1 .05-.05h.03l1.14.23h.06c.04-.02.07 0 .1.05Z" fill="#4FC8D6"/><path d="M4.51 10.51c.1 0 .15.02.18.07.02.04.01.08-.01.12a.13.13 0 0 1-.08.06c-.02.01-.04.03-.03.06V11l.57-.07c.07 0 .13 0 .2.03a.07.07 0 0 1 .02.1l-.02.02-.18.1c-.25.07-.47.07-.66 0l-.21-.56c-.01-.07 0-.11.06-.12.05 0 .1 0 .16.02Z" fill="#416DB2"/><path d="m8.15 10.49.62.2c-.54.34-.88.31-1.04-.08l.42-.12Z" fill="#DDECF1"/><path d="M7.73 10.61c.16.39.5.42 1.04.08.08 0 .16 0 .24.03a.13.13 0 0 1 .07.18.91.91 0 0 1-.27.33.54.54 0 0 0-.37.17c-.05.02-.08.02-.1 0-.3-.01-.25-.08.14-.22.12-.04.12-.07 0-.1a1.67 1.67 0 0 0-.8 0c-.17.03-.18.09 0 .17l.18.06c.08.03.08.05 0 .08l-.52.16a.09.09 0 0 0-.05.05.33.33 0 0 0-.02.12c0 .04.01.05.04.05l.52.03-.03.04-.09.04a3.04 3.04 0 0 1-1.02-.32.03.03 0 0 1 .02-.04c.2-.08.35-.22.44-.42.01-.02 0-.04-.02-.05a.18.18 0 0 1-.1-.06c.18-.24.4-.3.7-.38Z" fill="#9FCBF5"/><path d="M5.72 11.11c-.17-.1-.2-.21-.09-.35a.12.12 0 0 1 .16-.03l.06.04c.03.02.04.04.04.07v.18c0 .12-.06.16-.17.1Z" fill="#2D2626"/><path d="M7.04 10.99c.02.02.05.05.09.06.03.01.03.03.02.05-.09.2-.24.34-.44.42a.03.03 0 0 0-.02.02.03.03 0 0 0 .01.03c.33.16.66.27 1.01.31l-.37 1.83a4.86 4.86 0 0 1-1.88-1.2c.23-.26.44-.51.74-.63l.02.03.06.04c.03.01.04 0 .06-.02l.3-.54c.17-.1.3-.24.4-.4Z" fill="#72DBE6"/><path d="M8.34 11.4c-.04.18-.36.3-.51.4l-.52-.03c-.03 0-.04-.01-.04-.05s0-.08.02-.12a.09.09 0 0 1 .05-.05l.52-.16c.08-.03.08-.05 0-.08l-.19-.06c-.17-.08-.16-.14.02-.18.28-.06.54-.06.79 0 .12.04.12.07 0 .11-.39.14-.44.2-.14.21Z" fill="#DDECF1"/><path d="m6.65 11.4-.31.53c-.02.02-.03.03-.06.02a.22.22 0 0 1-.06-.04l.03.01h.02l.01-.02.01-.01v-.02a.62.62 0 0 1 .2-.63.06.06 0 0 1 .08 0l.01.04c0 .04.03.08.07.11Z" fill="#4FC8D6"/><path d="M8.8 11.23c.13.29.18.63.57.62.1 0 .25.01.35-.03.24-.11.21-.37.31-.56.1.03.18.1.24.18-.04.42-.02.86.03 1.33.03.2.03.28.14.46.1.15.15.32.15.52l-.6.14a.14.14 0 0 1-.02-.14c.02-.07 0-.13-.08-.16a2.4 2.4 0 0 0-.57.01c-.09.01-.12 0-.2-.04-.02-.02-.04 0-.04.03l-.03.26-.03.14-.72-.04c-.04-.22 0-.43.09-.63.07-.16.12-.28.13-.36.08-.51.05-1.03-.08-1.56.08-.1.2-.16.37-.17Z" fill="#E6E6E7"/><path d="M8.44 11.4c.13.53.16 1.05.08 1.56-.01.08-.06.2-.13.36-.1.2-.13.4-.1.63l-.84-.2c.18-.62.3-1.26.35-1.91l.03-.04c.15-.1.47-.22.51-.4.02.02.05.02.1 0ZM11.27 13.46l-.68.29a1 1 0 0 0-.15-.52c-.1-.18-.11-.27-.14-.46-.05-.47-.07-.9-.03-1.33l.37.36c.15.14.26.37.3.54.07.38.18.75.33 1.12Z" fill="#C8B5AC"/><path d="M6.2 11.88c-.3.12-.5.37-.74.64l-.39-.44.7-.56c.1-.03.19-.02.26.02l.06.06.1.28Z" fill="#4FC8D6"/><path d="M7.8 11.84c-.06.65-.17 1.29-.35 1.91l-.1-.04.36-1.83.09-.04Z" fill="#82B9C0"/><path d="M9.9 12.53a.18.18 0 0 1-.06-.03l.04-.2c.01-.03 0-.06-.01-.08-.04-.06-.1-.07-.16-.03a.1.1 0 0 1-.08.01.37.37 0 0 0-.17 0l-.26.03c-.05.09-.05.17 0 .25l.01.08c0 .06.01.12.04.17a.3.3 0 0 1-.13.04.08.08 0 0 1-.08-.1.8.8 0 0 0-.01-.45.09.09 0 0 1 .09-.12h.82a.08.08 0 0 1 .07.07c.02.17-.02.3-.1.36Z" fill="#1D1D16"/><path d="m9.84 12.5-.05.15-.03.03h-.04a.06.06 0 0 1-.05-.05c0-.04-.01-.04-.03-.01a.15.15 0 0 1-.13.05c-.03 0-.04-.02-.04-.05l-.01-.42h.17a.1.1 0 0 0 .08 0c.06-.05.12-.04.16.02.02.02.02.05.01.07l-.04.21Z" fill="#696868"/><path d="M9.46 12.2v.42c0 .03.02.05.05.05.05 0 .1-.02.13-.05.02-.03.03-.03.03 0s.02.05.05.06a.06.06 0 0 0 .07-.03.37.37 0 0 0 .05-.15c.02.02.04.03.07.03l-.02.17a.05.05 0 0 1-.02.03.05.05 0 0 1-.03 0c-.05 0-.1 0-.14.03a.12.12 0 0 1-.08 0 .92.92 0 0 0-.34-.01c.1-.34.07-.52-.08-.52l.26-.03Z" fill="#3C3F52"/><path d="M9.2 12.23c.15 0 .17.18.08.52.02-.02.02-.03-.03-.02a.32.32 0 0 1-.04-.17c0-.03 0-.06-.02-.08-.04-.08-.04-.16 0-.25Z" fill="#AC9C97"/><path d="M9.86 13.2c.1.01.13.1.1.23 0 .03-.02.04-.05.04h-.82a.02.02 0 0 1-.02-.02v-.54l.01-.02h.81c.04 0 .07.03.07.07v.03c0 .03-.01.04-.03.06a.3.3 0 0 0-.1.09c-.01.03 0 .04.03.05Z" fill="#2D2626"/><path d="M9.34 13.08c.09 0 .16-.02.16-.04 0-.03-.07-.05-.15-.06-.09 0-.16.02-.16.05 0 .03.07.05.15.05Z" fill="#C8B5AC"/><path d="M9.37 13.36c.05 0 .1-.03.09-.06 0-.03-.04-.06-.1-.06-.05 0-.09.03-.09.07 0 .03.05.05.1.05Z" fill="#D0C5CE"/><path d="M9.89 13.59a.31.31 0 0 0-.04.18c0 .02 0 .05-.02.07-.03.03-.07.04-.12.03-.03 0-.04-.02-.04-.06l.02-.09c.02-.02.01-.05-.01-.06-.03-.02-.06-.02-.1 0-.06.04-.08.12-.04.23l-.17.04c-.03 0-.05-.01-.05-.04v-.03a.06.06 0 0 0-.06-.06c-.07-.01-.12.01-.15.07-.01.03-.03.03-.04 0a.1.1 0 0 1-.02-.02l.03-.26c0-.04.02-.05.05-.03.07.03.1.05.19.04.18-.03.37-.03.57-.01Z" fill="#2D2626"/><path d="m9.99 13.9-.4.04v-.04h-.05c-.04-.12-.02-.2.04-.24.04-.02.07-.02.1 0 .02.01.03.04.01.06a.27.27 0 0 0-.02.1c0 .03.01.05.04.05.05.01.09 0 .12-.03a.09.09 0 0 0 .02-.07c0-.06 0-.12.04-.18.07.03.1.09.08.17-.02.04-.01.09.02.13Z" fill="#696868"/><path d="M9.54 13.9h.05v.04c-.18.05-.37.07-.57.05l.03-.14.02.03c.01.02.03.02.04 0 .03-.07.08-.1.15-.08.03.01.05.03.05.06v.03c.01.03.03.04.06.04l.17-.04Z" fill="#D0C5CE"/><defs><linearGradient id="a" x1="3.35" y1="3.12" x2="21.9" y2="24.43" gradientUnits="userSpaceOnUse"><stop stop-color="#1A1E21"/><stop offset="1" stop-color="#06060A"/></linearGradient></defs></svg>