<!-- by TradingView --><svg width="18" height="18" viewBox="0 0 18 18" xmlns="http://www.w3.org/2000/svg"><path fill="#F0F3FA" d="M0 0h18v18H0z"/><path d="M9.01 4c0 .06-.01.1-.05.14-.03.03-.07.05-.13.07l-.6.1c-.16.02-.3.06-.44.11a26.92 26.92 0 0 0-.64.25.99.99 0 0 0-.38.24.03.03 0 0 0 .01.04h.02l.05.02.02.01v.03c0 .08-.05.18-.18.32-.1.1-.2.3-.3.6a.45.45 0 0 1-.22.11v-.02L6.56 5c.1-.22.3-.39.6-.49.6-.2 1.22-.38 1.84-.51Z" fill="#E2905E"/><path d="M9.52 4.03c-.13.15-.28.32-.48.5-.1.08-.13.2-.12.34-.2-.06-.42-.1-.63-.12-.04 0-.08 0-.12.02a.44.44 0 0 1-.12.03c-.2.02-.46.07-.77.15a.68.68 0 0 0-.26.15l-.22.2a23.04 23.04 0 0 0-.4.62c.1-.3.2-.5.3-.6.12-.13.18-.23.18-.31l-.01-.03-.02-.01-.05-.01-.02-.01-.01-.02a.03.03 0 0 1 .01-.03.99.99 0 0 1 .37-.23 27.57 27.57 0 0 0 .64-.25c.13-.05.28-.09.45-.11l.59-.1c.06-.02.1-.04.13-.07A.21.21 0 0 0 9.01 4l.5.03Z" fill="#B2714E"/><path d="m11.07 4.27-.46.2c-.42.16-.45.4-.1.59l.58.3c.06.01.11 0 .18.04.12.08.24.16.33.26.05.04.1.13.15.24.04.09.09.17.15.25l.72.9c.08.1.48.69.45.84a4.7 4.7 0 0 0-.04.37h.02l.02.01c.01 0 .02 0 .03-.02l.02-.1c.01-.04.03-.04.05 0v.06c.04.37-.04.64-.22.81-.21.19-.36.3-.44.32-.16.05-.22.03-.19-.05.14-.13.26-.28.37-.43a.6.6 0 0 0 .1-.3c.02-.14.05-.26.08-.36.01-.02.01-.04 0-.07a14.07 14.07 0 0 0-.12-.26c-.15-.23-.22-.38-.4-.54-.11-.1-.23-.26-.36-.44l-.34-.5a1.2 1.2 0 0 1-.16-.36c-.2-.76-.08-.17-.6-.54a.74.74 0 0 0-.26-.11 4.58 4.58 0 0 0-.29-.06l-.85-.24-.57-.21c-.01-.14.03-.26.12-.34.2-.18.35-.35.48-.5h.8c.2 0 .44.08.75.24Z" fill="#8B5841"/><path d="m11.07 4.27.66.37.24.3.02.06-.09 1.15a1.08 1.08 0 0 1-.15-.25.88.88 0 0 0-.15-.24c-.1-.1-.2-.18-.33-.26-.07-.04-.12-.03-.18-.04l-.57-.3c-.36-.19-.33-.43.09-.6l.46-.19Z" fill="#724839"/><path d="M12.55 5.4c.1.4.27.76.43 1.14.06.13.15.44.28.94.05.2.02.44-.09.73.01-.02.01-.05 0-.07-.02-.03-.04-.03-.05 0l-.02.11c0 .02-.02.02-.03.02h-.02l-.02-.01v-.02c0-.12.02-.24.04-.35.03-.15-.37-.74-.45-.84l-.72-.9L12 5c0-.02 0-.04-.02-.06l-.24-.3c.33.2.6.45.82.76Z" fill="#5E3B31"/><path d="m8.92 4.87.57.2-.12.05h-.2a.1.1 0 0 1-.06-.03.23.23 0 0 0-.12-.05.07.07 0 0 1-.05-.03.13.13 0 0 0-.08-.07l-.07.01-.23.13a.09.09 0 0 1-.07 0c-.32-.1-.95-.06-1.25.14l-.16.1c-.1.07-.2.14-.3.23a.42.42 0 0 0-.1.28l-.17.13a.18.18 0 0 1-.07-.08 23 23 0 0 1 .36-.58l.22-.2a.68.68 0 0 1 .26-.15c.3-.08.56-.13.77-.15l.12-.03a.22.22 0 0 1 .12-.02c.21.02.42.06.63.12Z" fill="#290B18"/><path d="m9.37 5.12.48.17c.01 0 .02.01.02.03v.02c0 .02-.01.03-.03.03l-.7.09.25-.13c.07-.03.07-.05-.01-.05-.3 0-.52.05-.8.13a1.6 1.6 0 0 1-.41.02c-.28 0-.56.04-.83.13-.2.02-.42.11-.67.27.01-.12.05-.21.12-.28.08-.09.18-.16.3-.22l.15-.1c.3-.21.93-.25 1.25-.15.03.01.05 0 .07 0l.23-.13a.09.09 0 0 1 .07 0c.03 0 .06.02.08.06l.02.02H9l.12.06a.1.1 0 0 0 .06.02h.2Z" fill="#444231"/><path d="M6.4 5.92c.02 0 .04 0 .04-.04l.07.08c-.02 0-.03.02-.04.03 0 .01 0 .02.02.02h.4l.06.02c.03.02.07.04.12.04.1.02.21.13.27.2.07.1.11.19.12.28 0 .02.01.03.04.02.18-.05.37-.06.59-.01.02.06.06.09.1.09.02 0 .03-.02.04-.04 0-.11.06-.22.16-.3l-.16.4c.21.12.4.15.57.09.5-.19.84-.36 1.4-.18.19.06.4.18.62.35l.02.05v.03c0 .03-.01.04-.04.03a.6.6 0 0 1-.17-.1l-.02.04c0 .02-.03.04-.07.06a.13.13 0 0 0-.08-.08.58.58 0 0 1-.11-.06.55.55 0 0 0-.11-.06.87.87 0 0 0-.33-.05c-.03 0-.04.01-.05.03l-.01.02-.01.01a.02.02 0 0 1-.02 0l-.01-.04c0-.02-.03-.03-.05-.03H9.7c-.06-.03-.1-.03-.14 0-.03.02-.04.06-.04.1-.11.18-.26.24-.45.18a.14.14 0 0 1-.07-.05c.01-.02.03-.03.05-.03V7l.01-.02c0-.02 0-.03-.03-.02-.13.02-.2.07-.22.16 0 .03-.01.04-.04.03a.4.4 0 0 1-.2-.09 74.35 74.35 0 0 0-.5-.36c-.22-.13-.42-.13-.62.02-.12.1-.19.2-.2.3l-.11.2a.44.44 0 0 0-.08.22l-.01.05c-.02.02-.03.02-.05.01l-.07.01a.35.35 0 0 0-.12.15.84.84 0 0 1-.11.2.12.12 0 0 1-.05.04.98.98 0 0 0-.4.3.46.46 0 0 1 0-.3c0-.02 0-.04-.03-.05-.1-.04-.14-.12-.13-.21l.03-.2c-.02-.14-.08-.17-.19-.1a.37.37 0 0 0-.16-.2.2.2 0 0 1-.05-.08c-.01-.02-.03-.02-.05-.01a.12.12 0 0 0-.06.06c-.1.26-.24.52-.41.77l.5-1 .21.29a.34.34 0 0 0 .18-.1c.01-.02.03-.03.05-.01a1.5 1.5 0 0 0 .9.15V7.2c0-.01 0-.02-.02-.02l-.33-.05H6.7l-.01-.02a.03.03 0 0 1 0-.02v-.04h.01a.04.04 0 0 1 .03-.01c.1.03.21.03.31.02.03 0 .04-.01.06-.03.15-.26.26-.45.15-.72-.02-.06-.05-.1-.1-.11a1.1 1.1 0 0 1-.23-.11.12.12 0 0 0-.07-.02c-.04 0-.1 0-.14.02-.37-.08-.66.05-.88.38-.03 0-.04-.01-.03-.05.05-.08.1-.16.17-.23a.88.88 0 0 0 .16-.25c.13-.31.28-.63.44-.94l-.4 1.02a.02.02 0 0 0 0 .02h.03a.45.45 0 0 0 .2-.12Z" fill="#412324"/><path d="M10.34 5.32c.28.21.55.42.79.63.12.1.2.2.24.28l.37.73c.12.22.18.4.28.66a.03.03 0 0 0 .02.01.03.03 0 0 0 .03 0l.25-.14a.09.09 0 0 1 .1.02c.02 0 .02.02.03.03.1.3.1.61 0 .92-.07.26-.24.37-.45.52a1.2 1.2 0 0 0-.23.25 5.25 5.25 0 0 1-.98.99.03.03 0 0 0 .02.02l.01.01h.03l.24-.13c.1-.05.1-.03.04.04l-.53.62.01.01h.01l.2-.17c.06-.05.07-.04.04.03l-.09.21c0 .02 0 .03.02.01l.11-.07c-.1.16-.21.3-.34.44-.06.07-.13.22-.21.45 0 .02-.02.04-.04.05-.15.14-.26.3-.34.48a6.3 6.3 0 0 1-.17.33c-.07.14-.12.3-.12.45h-.33a3.88 3.88 0 0 1-1.16-1.22l-.17-.64c0-.03 0-.03.02 0l.13.14c.07.08.09.08.04-.03-.03-.09-.1-.21-.19-.38-.04-.09-.02-.1.07-.05.36.22.66.48.88.78.01.02.02.02.02 0v-.02c0-.02 0-.03-.02-.04-.1-.17-.2-.3-.3-.37a30 30 0 0 1-.38-.32.97.97 0 0 0-.34-.2c-.15-.04-.3-.08-.47-.1.15-.2.08-.38.02-.61 0-.01 0-.02.02-.02h.02c.02-.01.03 0 .04.01.08.25.24.42.48.53.24.06.44.06.61 0l.99-.34c.36-.1.5-.29.7-.55.03-.03.05-.03.04.02 0 .02 0 .07-.03.13 0 .03 0 .04.03.02a.18.18 0 0 0 .11-.1 3.67 3.67 0 0 1 .15-.27l.01.01a.8.8 0 0 0-.04.29v.03l.03.02a.07.07 0 0 0 .06 0c.4-.15.69-.67.74-1.03.05-.3-.09-.55-.14-.78-.05-.23 0-.54-.04-.73a1.7 1.7 0 0 0-.39-.86c-.2-.53-.58-.81-1.15-.86-.11-.02-.2 0-.27.05-.27.02-.53.1-.77.24a.87.87 0 0 0-.64.5c-.01.03-.03.03-.04 0-.02-.01-.02-.05 0-.1.1-.17.22-.3.36-.38l.76-.31.7-.1c.02 0 .03 0 .03-.02v-.02c0-.02 0-.03-.02-.03l-.48-.17.12-.04.85.24Z" fill="#322222"/><path d="m10.34 5.32.3.06c.1.02.18.06.26.11.51.37.4-.22.59.54.03.12.08.24.16.36l.34.5c.13.18.25.33.37.44.17.16.24.3.4.54a14.34 14.34 0 0 1 .12.33c-.04.1-.07.22-.08.37-.01.1-.05.2-.11.29-.11.15-.23.3-.37.43a22.57 22.57 0 0 0-1.42 1.5l-.1.08c-.03.02-.04.01-.03 0l.1-.22c.02-.07 0-.08-.05-.03l-.2.17h-.01l-.01-.01.53-.62c.06-.07.05-.09-.04-.04l-.24.14h-.03l-.01-.02a.03.03 0 0 1-.02-.02v-.02l.02-.01c.36-.29.68-.6.96-.96.08-.12.16-.2.23-.25.2-.15.38-.26.46-.52.09-.3.08-.61-.01-.92a.08.08 0 0 0-.02-.03.09.09 0 0 0-.07-.03l-.04.01-.25.14a.03.03 0 0 1-.04 0v-.01c-.1-.26-.17-.44-.29-.66l-.37-.73a.95.95 0 0 0-.24-.28c-.24-.2-.5-.42-.79-.63Z" fill="#290B18"/><path d="M12.55 5.4c.1.13.15.22.17.26.12.28.27.54.44.8l.38.61c.13.22.23.43.32.63.1.21.14.45.14.72v2.37l-.77.4a.12.12 0 0 0-.05.03.11.11 0 0 0-.02.05c-.06.41-.15.83-.17 1.25V13h-.3c.1-.8.26-1.6.46-2.38l.3-1.2c.02-.08 0-.09-.06-.04-.24.17-.48.27-.69.45-.24.2-.6.4-.8.57-.28.23-.44.37-.48.42l-.56.69c-.15.19-.29.38-.4.58a240.72 240.72 0 0 0-.36.65v.02l.02.01.02.01c.02.01.03 0 .04-.01.19-.28.35-.59.58-.85l.2-.26c.16-.24.39-.51.68-.81.14-.14.29-.26.45-.37.15-.1.3-.22.44-.36.03-.03.04-.02.03.01l-.34 1.57v-.12c-.01-.02-.04-.01-.08.01-.53.34-1.01.72-1.44 1.17-.07.07-.07.15-.09.24h-.67c.08-.47.29-.77.6-1.22.23-.34.33-.7.62-.99l.34-.3.32-.32c.26-.31.42-.48.46-.51.24-.18.46-.4.67-.64.18-.17.26-.44.22-.8.11-.3.14-.54.09-.74a9.5 9.5 0 0 0-.28-.94c-.16-.38-.33-.74-.43-1.14Z" fill="#412324"/><path d="M10.9 6.32c-.23.17-.52.04-.75-.08-.2-.11-.43-.1-.69.04l-.37.22.52-.41a.1.1 0 0 1 .07-.02c.3 0 .58.08.83.23h.03l.01-.02v-.02c-.21-.4-.38-.63-.8-.8.56.05.94.33 1.14.86Z" fill="#444231"/><path d="M9.74 5.46c.43.17.6.4.81.8v.02l-.01.02h-.03a1.6 1.6 0 0 0-.83-.23.1.1 0 0 0-.07.02l-.52.41c-.32-.02-.56.08-.86.21l.16-.4c.24-.1.47-.22.7-.35.18-.1.3-.26.38-.45.07-.06.16-.07.27-.05Z" fill="#605F3C"/><path d="m8.38 5.77.76-.31.25-.13c.08-.03.07-.05-.01-.05-.3 0-.52.05-.8.13a1.6 1.6 0 0 1-.41.02c-.28 0-.56.04-.83.13a1.7 1.7 0 0 0-.87.43c0 .01 0 .02.02.02h.4l.06.02c.03.02.07.04.12.04.1.02.21.13.27.2l.59.15.02-.01v-.03l-.37-.12c-.05-.01-.05-.02 0-.03L8 6.14c.1-.16.23-.28.38-.37Z" fill="#737144"/><path d="M9.47 5.51c-.07.2-.2.34-.39.45-.22.13-.45.24-.69.35-.1.08-.16.19-.16.3 0 .02-.02.04-.04.04-.04 0-.08-.03-.1-.1v-.2c0-.03 0-.05.02-.06a.97.97 0 0 0 .13-.17c.07-.1.22-.23.46-.37.24-.14.5-.22.77-.24Z" fill="#737144"/><path d="M8.7 5.75c-.24.14-.39.26-.46.37a.96.96 0 0 1-.13.17.08.08 0 0 0-.02.06v.2c-.22-.04-.41-.03-.6.02-.02.01-.03 0-.03-.02 0-.1-.05-.19-.12-.27l.59.14.02-.01v-.03l-.37-.12c-.05-.01-.05-.02 0-.03L8 6.14v.12c.02.02.04.02.05 0a.87.87 0 0 1 .64-.51Z" fill="#605F3C"/><path d="M6.7 6.1a.4.4 0 0 1-.03.23c-.04.1-.08.1-.1-.01 0-.01-.04-.02-.11-.02-.02 0-.03 0-.04-.02v-.06l.09-.04c.02-.01.02-.02 0-.03-.04-.01-.07 0-.1.02-.2.16-.36.3-.49.45-.08.08-.12.07-.12-.05l.02-.1c.22-.33.5-.46.88-.38Z" fill="#85824D"/><path d="M7.24 6.31c-.02.17-.06.3-.12.43a.11.11 0 0 1-.04.05 30.6 30.6 0 0 0-.7.03c-.22 0-.37.12-.46.36l-.2-.3c-.07-.11-.04-.26.07-.46 0 .04 0 .06.03.05a.53.53 0 0 0-.02.1c0 .12.04.13.12.05.13-.15.3-.3.5-.45.02-.02.05-.03.08-.02.03 0 .03.02 0 .03l-.07.04a.03.03 0 0 0-.02.04v.02l.05.02c.07 0 .11 0 .11.02.02.1.06.1.1.01a.4.4 0 0 0 .03-.24l.14-.02c.03 0 .05 0 .07.02.06.04.14.07.23.1.05.03.08.06.1.12Z" fill="#605F3C"/><path d="M10.9 6.32c.2.25.33.53.38.86.03.2-.01.5.04.73.05.23.19.49.14.78-.05.37-.34.88-.74 1.03a.07.07 0 0 1-.06 0l-.02-.02v-.03a.8.8 0 0 1 .03-.29h-.01v-.01h-.01c-.06.1-.11.33-.25.38-.03 0-.04 0-.03-.03l.03-.13c0-.05 0-.05-.04-.02-.2.26-.34.44-.7.55l-.99.34c-.17.06-.37.06-.6 0 .04-.1.1-.18.17-.24h.07c.23.16.41.05.66-.1.18-.1.36-.17.54-.2a1 1 0 0 0 .36-.13l.02-.03a.05.05 0 0 0-.01-.05l-.03-.02c-.55-.12-2.42-.3-2.89-.2-.1.02-.22-.02-.32-.13.27-.18.59-.26.94-.24.29.02.56.05.83.1.33.06.58.09.75.09a16.4 16.4 0 0 0 .93-.04v-.04l-.14-.14c-.02-.02-.02-.04 0-.06l.01-.01a.07.07 0 0 1 .06 0c.18.08.48-.29.52-.22.63 1.07-.2-.3.24.6.01.03.03.03.05.01.19-.2.3-.36.35-.5.06-.22.07-.51.04-.88a.05.05 0 0 0-.04-.05h-.03a3.93 3.93 0 0 1-.48-.06.78.78 0 0 0-.32.05c-.18.05-.34.04-.55.05a.5.5 0 0 1-.23-.05 1.81 1.81 0 0 1-.6-.45.05.05 0 0 1-.02-.05l.01-.03c.01-.01.03-.02.05 0 .36.28.78.37 1.24.26.14-.03.27-.1.4-.2.02-.02 0-.12-.02-.1-.12.11-.26.19-.42.24-.12.04.42-.41.45-.48 0-.02 0-.03-.02-.05h-.04a1.1 1.1 0 0 1-.5.33l-.24-.05.3-.04c.17-.04.3-.12.38-.27.04-.02.07-.04.07-.06 0-.02.01-.04.02-.03a.6.6 0 0 0 .17.1c.03 0 .04 0 .04-.04v-.03c0-.02 0-.04-.02-.05a2.22 2.22 0 0 0-.62-.35c-.56-.18-.9 0-1.4.18-.17.06-.36.03-.57-.09.3-.13.54-.23.86-.2l.37-.23c.26-.13.48-.15.69-.04.23.12.52.25.74.08Z" fill="#362B26"/><path d="M5.92 7.18c.09-.24.24-.36.45-.36a30.67 30.67 0 0 1 .7-.03.11.11 0 0 0 .05-.05c.06-.12.1-.26.12-.43.11.27 0 .46-.15.72a.07.07 0 0 1-.06.03.84.84 0 0 1-.32-.02.04.04 0 0 0-.03.01v.04a.03.03 0 0 0 0 .02v.01l.02.01.33.05c.02 0 .02 0 .02.02v.02h-.02a1.5 1.5 0 0 1-.88-.15c-.02-.02-.04-.01-.05 0a.34.34 0 0 1-.18.11ZM9.01 7.05c-.02-.03-.05-.03-.07-.02l-.02.02v.03c.04.14.15.22.33.23l-.05.08c0 .02 0 .04.02.05.3.17.6.17.87 0 .2-.06.37-.17.51-.32h.04c.02 0 .03.02.02.04l-.03.24.02.01V7.5a.89.89 0 0 1-.4.2c-.46.1-.88.02-1.24-.26-.02-.02-.04-.01-.05 0v.08c.16.18.36.33.6.45a.5.5 0 0 0 .24.05c.21 0 .37 0 .55-.05a.78.78 0 0 1 .32-.05 3.94 3.94 0 0 0 .51.06c.02.01.04.02.04.05.03.37.02.66-.05.88-.04.14-.15.3-.34.5-.02.02-.32.11-.33.09a1.77 1.77 0 0 0-.48-.49.07.07 0 0 0-.06 0l-.02.02c-.01.02 0 .04.01.06l.13.14a.04.04 0 0 1 0 .04l-.01.02h-.02a4.98 4.98 0 0 1-1.64-.08 9.14 9.14 0 0 0-.83-.1c.34-.05.66-.07.96-.05.11 0 .12-.02.03-.08-.1-.07-.22-.11-.36-.14l-.37-.03c-.15-.01-.3-.04-.42-.1a3.04 3.04 0 0 1 1.42.3c.22.08.5.12.75.13.06 0 .07-.01.01-.04l-.34-.22a.53.53 0 0 0-.26-.3L9 8.55v-.02L9 8.5h.02l.2.05c.03 0 .04 0 .03-.03l-.48-.84a.06.06 0 0 0-.05-.03l-.76-.02a.28.28 0 0 1-.18-.04c-.04-.03-.06-.09-.06-.16v-.19c0-.02 0-.05.02-.07 0 .12.04.21.17.24.19.05.35.03.47-.05a.2.2 0 0 0 .1.06c.03 0 .05 0 .04-.04 0-.05-.01-.1-.06-.15a27.6 27.6 0 0 1-.42-.36c-.05-.05-.17-.09-.34-.11-.16.04-.3.13-.44.26.01-.1.08-.2.2-.3.2-.15.4-.15.62-.01a74.35 74.35 0 0 1 .7.44c.03 0 .04 0 .04-.03.02-.09.09-.14.22-.16.02 0 .03 0 .03.02v.02c-.03.01-.05.02-.06.04Z" fill="#444231"/><path d="M8.38 7.37a.88.88 0 0 0-.4-.38 1.07 1.07 0 0 0-.28-.22c.17.02.29.06.34.1l.42.37c.05.04.06.1.06.15 0 .03 0 .04-.03.04a.2.2 0 0 1-.11-.06Z" fill="#605F3C"/><path d="M7.7 6.77c.1.06.2.14.28.22-.14 0-.22.06-.25.2a.13.13 0 0 0-.01.06V8c0 .03.02.04.04.06l.47.33c-.28-.05-.47 0-.7.01-.11 0-.23-.02-.36-.04a.42.42 0 0 0-.25.06 1.7 1.7 0 0 0-.29.23.49.49 0 0 0-.14.25l-.1.29c-.08.17-.05.2.08.05L6.68 9c.04.02.06.04.07.06.02.02.01.03 0 .05l-.38.34-.05.02c-.03-.03-.04-.08-.03-.16.04-.36.11-.67.21-.9l.57-.3c.11-.05.2-.12.24-.2.07-.12.12-.26.16-.44l.04-.23a.1.1 0 0 0-.01-.07c-.06-.11-.12-.13-.2-.04l-.11.13c-.03 0-.04-.02-.04-.05l.1-.19c.14-.13.3-.22.45-.26Z" fill="#85824D"/><path d="M10.54 7.08a.54.54 0 0 1-.38.27.5.5 0 0 1 .17-.23.05.05 0 0 0 0-.06l-.01-.02c-.16-.07-.3-.12-.44-.13-.1.21-.23.34-.4.38h-.02v-.04c.1-.04.2-.1.25-.18.07-.1.08-.17.02-.23l-.02-.01.05-.01c.02 0 .04.01.05.03v.03l.01.01a.02.02 0 0 0 .03 0v-.03c.02-.02.03-.03.06-.03.1 0 .21.01.33.05.02 0 .06.03.1.06l.12.06c.04.01.07.04.08.08Z" fill="#8B5841"/><path d="m9.46 7.25-.21.06c-.18 0-.3-.09-.33-.23v-.03l.02-.02c.02-.01.05 0 .07.02l.07.05c.19.06.34 0 .45-.18.04.07.1.08.16.05.04-.01.05-.06.04-.13.06.06.05.13-.02.23a.48.48 0 0 1-.25.18Z" fill="#FB7159"/><path d="M9.88 6.9c-.1.22-.23.35-.4.4l-.11.02c-.02 0-.03.02 0 .03.05.03.11.04.2.03.08.04.18.04.3.01l.3-.04a.5.5 0 0 1 .16-.23.05.05 0 0 0 0-.06l-.01-.02c-.16-.07-.3-.12-.44-.13Z" fill="#E2905E"/><path d="M7.98 6.99c.16.08.3.2.4.38-.12.08-.28.1-.47.05-.13-.03-.17-.12-.17-.24.02-.13.1-.2.24-.19Z" fill="#290B18"/><path d="M5.78 7.15a6.9 6.9 0 0 1-.33.68c-.07.11-.17.23-.3.36-.12.12-.17.22-.29.39a.65.65 0 0 0-.12.31l-.02.35c0 .13.02.23.07.29a2.26 2.26 0 0 1 .2.31v.04l-.03.02h-.04c-.02 0-.05.01-.07.03-.11-.16-.17-.2-.16-.12-.18-.37-.21-.75-.08-1.16.03-.08.13-.22.32-.4a.9.9 0 0 0 .13-.19c.04-.07.09-.13.15-.17.17-.25.3-.5.41-.77a.12.12 0 0 1 .06-.06c.02-.01.04 0 .05.01a.2.2 0 0 0 .05.08Z" fill="#E2905E"/><path d="m7.47 7.48-.16.11a.1.1 0 0 1-.14-.03.08.08 0 0 1 0-.05l.02-.24c.04-.05.07-.1.11-.13.08-.09.14-.07.2.04a.1.1 0 0 1 .01.07l-.04.23Z" fill="#290B18"/><path d="M5.94 7.36c-.07.15-.11.31-.21.45-.14.18-.29.35-.45.5-.2.2-.33.35-.37.43a.84.84 0 0 0 .04.84l.17.6c0 .03.02.05.03.07l.17.17v.04h-.04a1.97 1.97 0 0 1-.43-.53.12.12 0 0 1 .07-.02h.04L5 9.87a.07.07 0 0 0 0-.07c-.06-.1-.13-.2-.2-.28-.05-.06-.07-.16-.07-.3l.02-.34c0-.08.04-.18.12-.31.12-.17.17-.27.3-.4.12-.12.22-.24.29-.35.08-.14.19-.36.33-.68.07.05.13.11.16.2Z" fill="#B2714E"/><path d="M7.15 7.22c0 .03.01.05.04.05l-.03.24.01.05.04.04a.1.1 0 0 0 .1-.01l.16-.11c-.04.18-.1.32-.16.44a.54.54 0 0 1-.24.2l-.57.3.16-.4L6.65 8h-.03c-.25.4-.38.84-.4 1.3-.01.02-.02.03-.04 0a.34.34 0 0 1-.07-.16.75.75 0 0 1 .11-.67l.04-.27c.1-.12.23-.22.4-.29.02 0 .03-.02.05-.04.05-.07.09-.14.11-.2a.35.35 0 0 1 .12-.15.06.06 0 0 1 .07 0c.02 0 .03 0 .05-.02l.01-.05c0-.08.03-.16.08-.23Z" fill="#737144"/><path d="M7.72 7.25v.2c0 .06.02.12.06.15.05.03.1.05.18.04.16 0 .4 0 .76.02.02 0 .04.01.05.03l.48.84c0 .03 0 .03-.02.03l-.21-.05H9l-.01.02v.02l.01.03c.13.07.22.17.26.3-.2-.09-.43-.1-.6-.26a.72.72 0 0 0-.19-.13l-.24-.1-.47-.34a.06.06 0 0 1-.03-.06l-.01-.74Z" fill="#605F3C"/><path d="M9.46 7.25v.03l.02.01-.11.03c-.02 0-.03.02 0 .03.05.03.11.04.2.03.08.04.18.04.3.01l.22.05c-.27.17-.56.17-.87 0-.02-.01-.03-.03-.02-.05l.05-.08.21-.06Z" fill="#7D4E3B"/><path d="m6.26 8.2-.04.27-.13.02a.53.53 0 0 1-.23-.1.04.04 0 0 0-.06-.01c-.25.15-.43.34-.54.58a.74.74 0 0 0-.05.4c.04.32.1.54.32.79.01.04.04.07.06.1l-.07.08-.57-.75a.84.84 0 0 1-.04-.84c.04-.08.16-.23.37-.42.16-.16.31-.33.45-.51.1-.14.14-.3.21-.45.1-.08.17-.05.19.08 0 .03 0 .1-.03.2-.01.1.03.18.13.22.03.01.03.03.02.05-.03.1-.02.2.01.3Z" fill="#290B18"/><path d="M6.5 8.42c-.1.23-.17.54-.21.9-.01.08 0 .13.03.16l.41.4.37.4.16.14c.08.26.18.5.32.72.05.08.14.17.26.27.13.1.24.23.35.37.3.48.68.9 1.16 1.22H8l-.3-.44a.03.03 0 0 0-.02-.01h-.02v.02L7.6 13h-.25a4.32 4.32 0 0 0 .1-.98.03.03 0 0 1 .02 0c.26.15.5.33.75.51.09.07.19.12.3.14l.07.05c.08 0 .09-.02.04-.07-.38-.37-.7-.72-.98-1.05a.78.78 0 0 0-.24-.2c-.2-.1-.35-.21-.47-.33-.09-.08-.18-.2-.28-.34a2.07 2.07 0 0 0-.28-.35c-.31-.2-.59-.43-.81-.67-.06-.07-.08-.06-.07.03.03.12.03.26.03.4-.23-.24-.28-.46-.32-.79a.74.74 0 0 1 .05-.4c.11-.23.3-.42.54-.57h.06c.06.06.14.1.23.1l-.08.4-.03.05c-.2.2-.36.41-.49.64 0 .02 0 .03.02.04h.02c.17-.19.36-.34.58-.47.01.07.04.12.07.17.02.02.03.01.03-.01A2.8 2.8 0 0 1 6.63 8h.02v.02l-.15.4Z" fill="#412324"/><path d="m8.23 8.38.24.1.2.14c.16.16.4.17.6.26l.33.22c.06.03.05.04-.01.04a2.47 2.47 0 0 1-1.05-.25 3.04 3.04 0 0 0-1.12-.17c-.3 0-.55.1-.74.29l-.2.22c-.14.14-.17.12-.09-.05.04-.08.07-.18.1-.29.02-.1.07-.19.14-.25.12-.11.22-.19.29-.23.09-.05.17-.07.25-.06.13.02.25.05.36.04.23-.02.42-.06.7 0Z" fill="#412324"/><path d="M6.22 8.47a.75.75 0 0 0-.11.67c-.22.13-.41.28-.58.46h-.02c-.02 0-.02-.01-.02-.03.13-.23.29-.44.49-.64A.12.12 0 0 0 6 8.87l.08-.38.13-.02Z" fill="#322222"/><path d="M7.42 8.72c.13.05.27.08.42.09l.37.03c.14.03.25.07.36.14.1.06.08.08-.03.08-.3-.02-.62 0-.96.06-.35-.02-.67.06-.95.24l-.26.1.38-.34c.01-.02.02-.03 0-.05A.23.23 0 0 0 6.68 9c.2-.2.44-.3.74-.3Z" fill="#605F3C"/><path d="M12.95 9.02c-.2.24-.43.46-.67.64-.04.03-.2.2-.46.5-.1.12-.21.23-.32.33l-.34.3c-.3.29-.39.65-.62 1-.31.44-.52.74-.6 1.21h-.26c0-.16.05-.31.12-.45l.17-.33c.08-.19.2-.34.34-.48a.13.13 0 0 0 .04-.05c.08-.23.15-.38.2-.45a6.27 6.27 0 0 1 .56-.7c.4-.43.8-.85 1.21-1.25-.03.08.03.1.19.05.08-.03.23-.13.44-.32Z" fill="#5E3B31"/><path d="M6.63 9.36c.11.1.22.15.33.13a12.68 12.68 0 0 1 2.92.22l.01.02v.03l-.02.03a1 1 0 0 1-.36.14c-.18.02-.36.09-.54.2-.25.14-.43.25-.66.1a.06.06 0 0 0-.07 0 .57.57 0 0 0-.18.23.87.87 0 0 1-.48-.53l-.04-.02h-.02c-.02 0-.02.02-.02.03.06.23.13.42-.02.6l-.22-.12-.16-.15a.76.76 0 0 0-.18-.3.1.1 0 0 1-.03-.05.48.48 0 0 1 .1-.35l-.01-.01-.05-.01h-.02l-.18.34-.4-.41.04-.02.26-.1Z" fill="#444231"/><path d="M12.68 13H12l.22-1.3.34-1.57c0-.03 0-.04-.03-.01-.14.14-.29.26-.44.36-.16.1-.31.23-.45.37-.29.3-.52.57-.68.81l-.2.26c-.23.26-.4.57-.58.85 0 .02-.02.02-.04.01h-.02l-.01-.02-.01-.02v-.04l.36-.61c.11-.2.25-.4.4-.58l.56-.69c.04-.05.2-.19.48-.42.2-.18.56-.36.8-.57.2-.18.45-.28.69-.45.06-.05.08-.04.07.04l-.3 1.2c-.21.78-.37 1.58-.48 2.38Z" fill="#290B18"/><path d="m7.1 10.27-.37-.38.18-.33v-.01h.07v.02c-.08.1-.1.22-.1.35l.04.06c.08.08.14.18.18.3Z" fill="#737144"/><path d="m5.52 10.33.38.42.22.17.23.17c.32.16.58.35.78.58-.4-.15-.76-.35-1.08-.62-.16-.13-.32-.22-.49-.33a1.33 1.33 0 0 1-.14-.13.3.3 0 0 0-.19-.09.6.6 0 0 1-.25-.26l-.27-.35-.02-.08c0-.08.05-.04.16.12.12.21.27.4.43.53h.03l.01-.02v-.02l-.17-.17a.13.13 0 0 1-.03-.06l-.17-.61.57.75Z" fill="#7D4E3B"/><path d="m8.52 12.67-.3-.27-.31-.24c-.24-.2-.5-.36-.78-.49-.2-.23-.46-.42-.78-.58l.52.2c.02 0 .03 0 .03-.02v-.03c.01-.02 0-.03-.02-.04l-.59-.26a1.36 1.36 0 0 0-.6-.62c-.02 0-.05-.02-.1-.07a.28.28 0 0 1-.06-.1c0-.15 0-.29-.03-.4-.01-.1 0-.1.07-.04.22.24.5.47.81.67.04.02.13.14.28.35.1.15.2.26.28.34.12.12.28.23.47.32.09.05.17.12.24.2.28.34.6.7.98 1.06.05.05.04.07-.04.07l-.07-.05Z" fill="#724839"/><path d="m4.7 9.9.28.34c-.27.34-.4.69-.4 1.03 0 .11.04.28.11.51l.16.51.23.57v.05l-.02.03c-.02.01-.04 0-.07-.03a1.42 1.42 0 0 1-.17-.3 78.75 78.75 0 0 0-.59-1.7c-.03-.1-.02-.2.04-.35.08-.09.14-.2.15-.31l.29-.36Z" fill="#E2905E"/><path d="m5.23 10.5.02.05.13.67v.03l-.02.02c-.3.3-.29-.58-.31.39a.7.7 0 0 1-.05.26c-.06.12-.1.24-.15.37l-.16-.5c-.07-.24-.1-.41-.1-.52-.01-.34.12-.69.4-1.03.05.1.13.2.24.26Z" fill="#8B5841"/><path d="M5.68 10.32c.13.28.33.48.61.62l.6.26c.02 0 .02.02.02.04v.03c-.01.02-.02.02-.04.02l-.52-.2a2.93 2.93 0 0 0-.23-.17 1.35 1.35 0 0 1-.22-.17 8.48 8.48 0 0 1-.38-.42l.07-.08c.05.05.08.08.1.07Z" fill="#412324"/><path d="M6.3 10.94a1.21 1.21 0 0 1-.62-.62c.27.13.47.34.61.62Z" fill="#8B5841"/><path d="m7.26 10.42.22.13c.16.02.32.06.47.1.11.04.23.1.34.2l.38.32a1.5 1.5 0 0 1 .32.4v.03c0 .02-.01.02-.02 0-.22-.3-.52-.56-.88-.78-.09-.06-.1-.04-.07.05l.2.38c.04.1.02.11-.05.03l-.13-.15c-.02-.02-.03-.02-.02.01l.17.64c-.1-.14-.22-.26-.35-.37-.12-.1-.21-.2-.26-.27a3.02 3.02 0 0 1-.32-.72Z" fill="#290B18"/><path d="M7.13 11.67c.28.13.54.29.78.49l.31.24.3.27a.68.68 0 0 1-.3-.14 7.41 7.41 0 0 0-.78-.51h-.01v.02c0 .32-.02.64-.08.96h-.98a7.33 7.33 0 0 0 .31-1.38.1.1 0 0 0-.05-.05 2.52 2.52 0 0 1-.95-.64c-.09-.1-.2-.17-.3-.25l-.13-.13-.02-.05a.3.3 0 0 1 .19.09l.14.13c.17.11.33.2.5.33.3.27.67.47 1.07.62Z" fill="#322222"/><path d="M5.38 10.68c.06.2.17.37.33.52.23.22.48.41.76.57a.1.1 0 0 1 .05.1c.02.38-.07.77-.28 1.13h-.89a.44.44 0 0 0-.12-.33c-.06-.07-.08-.06-.07.03.01.08.05.19.11.3h-.39a.09.09 0 0 1-.02-.03v-.01c.02-.01.02-.02 0-.02.05.04.09.05.1.04.04 0 .04-.03.03-.07.03.03.05.04.07.03l.03-.03v-.05l-.24-.57c.04-.13.1-.25.15-.37a.7.7 0 0 0 .05-.26c.02-.97 0-.09.31-.39l.02-.02v-.03l-.13-.67.13.13Z" fill="#7D4E3B"/><path d="M6.37 13h-.13c.2-.36.3-.75.28-1.14a.1.1 0 0 0-.05-.09 4.6 4.6 0 0 1-.76-.57 1.17 1.17 0 0 1-.33-.52c.1.08.21.16.3.25.27.29.58.5.95.64a.1.1 0 0 1 .05.05A7.33 7.33 0 0 1 6.37 13Z" fill="#412324"/><path d="M14 10.8v1.5c0-.06-.01-.1-.05-.1-.02-.02-.04-.01-.05.01l-.4.8H13v-.49c.02-.42.1-.84.17-1.25l.02-.05a.12.12 0 0 1 .05-.04l.77-.39ZM4.99 12.9c.01.05 0 .08-.02.08s-.06 0-.11-.04l-.5-1.29c.01-.1-.01-.2-.06-.28l-.07-.46a.6.6 0 0 1 .07.18l.05.19.47 1.33c.02.07.08.17.17.3Z" fill="#5E3B31"/><path d="M4.3 11.37c.05.08.07.18.07.28-.06.38-.18.71-.33 1a1.36 1.36 0 0 1-.01-.59c.05-.23.14-.46.27-.69Z" fill="#E2905E"/><path d="M12.22 11.7 12 13h-.77c.18-.23.4-.44.64-.61a.04.04 0 0 0 .02-.05v-.02c-.02-.02-.03-.02-.05-.01-.4.16-.75.4-1.05.7h-.18c.02-.1.02-.18.1-.25.42-.45.9-.83 1.43-1.17.04-.02.07-.03.08 0v.11Z" fill="#5E3B31"/><path d="M4.94 13h-.3a1.78 1.78 0 0 1-.46-.44h-.02l-.01.01a.03.03 0 0 0-.01.04c.05.13.13.27.24.4H4a1 1 0 0 1 .04-.36c.15-.29.27-.62.33-1 .1.28.41 1.05.57 1.35Z" fill="#8B5841"/><path d="M14 12.3v.7h-.5l.4-.79c.01-.02.03-.03.05-.02.04.02.05.05.05.1ZM11.23 13h-.44c.3-.3.65-.53 1.05-.7.02 0 .03 0 .04.02l.01.02c0 .02 0 .04-.02.05-.24.17-.46.38-.64.61Z" fill="#412324"/><path d="M8 13h-.4l.05-.43v-.01l.03-.01h.01l.02.01L8 13Z" fill="#724839"/><path d="M4.64 13h-.26c-.11-.12-.2-.26-.24-.4v-.03h.05c.11.15.26.3.45.43Z" fill="#5E3B31"/><path d="M6.86 7.37c-.12.21-.3.27-.57.15.04-.03.02-.1-.08-.22-.01-.02-.02-.04 0-.05h.05l.13.1c.01.01.02.02.01.03v.02c0 .02 0 .02.02.03h.11c.03-.01.05-.02.06-.04.08-.08.17-.08.27-.02Z" fill="#8B5841"/><path d="M6.29 7.52c.26.12.45.06.57-.15.04-.05.07-.06.08-.05a.08.08 0 0 1 .04.06l-.01.04-.03.03-.15.14a.33.33 0 0 1-.19.09c-.23.04-.33-.01-.31-.16Z" fill="#E2905E"/></svg>