<!-- by TradingView --><svg width="18" height="18" viewBox="0 0 18 18" xmlns="http://www.w3.org/2000/svg"><path fill="#F0F3FA" d="M0 0h18v18H0z"/><path fill-rule="evenodd" d="M9 3 3 9l6 6 6-6-6-6Zm0 .77L3.77 9 9 14.23 14.23 9 9 3.77Zm0 1.3-3.9 3.9 1 .99L9 7.06l2.9 2.9.99-1-3.9-3.89Zm2 5.48-2 2-2-2 .77-.77L9 11.01l1.23-1.23.77.77Z" fill="#22282C"/><path d="M9 10.1V9H7.9L9 10.1Z" fill="url(#afk2tvzwz)"/><path d="M7.9 9H9V7.9L7.9 9Z" fill="url(#bfk2tvzwz)"/><path d="M9 10.1V9h1.1L9 10.1Z" fill="url(#cfk2tvzwz)"/><path d="M10.1 9H9V7.9L10.1 9Z" fill="url(#dfk2tvzwz)"/><defs><linearGradient id="afk2tvzwz" x1="8.35" y1="9.5" x2="8.81" y2="8.91" gradientUnits="userSpaceOnUse"><stop stop-color="#172E34"/><stop offset=".49" stop-color="#2A6263"/><stop offset="1" stop-color="#3ABABB"/></linearGradient><linearGradient id="bfk2tvzwz" x1="7.99" y1="8.69" x2="9.12" y2="8.72" gradientUnits="userSpaceOnUse"><stop offset=".4" stop-color="#1E272E"/><stop offset="1" stop-color="#34CAC9"/></linearGradient><linearGradient id="cfk2tvzwz" x1="9.65" y1="9.5" x2="9.19" y2="8.91" gradientUnits="userSpaceOnUse"><stop offset=".4" stop-color="#172E34"/><stop offset="1" stop-color="#3ABABB"/></linearGradient><linearGradient id="dfk2tvzwz" x1="9.04" y1="8.91" x2="9.55" y2="8.4" gradientUnits="userSpaceOnUse"><stop stop-color="#ACFEFC"/><stop offset="1" stop-color="#A8F9F3"/></linearGradient></defs></svg>