<!-- by TradingView --><svg width="18" height="18" viewBox="0 0 18 18" xmlns="http://www.w3.org/2000/svg"><path fill="url(#a)" d="M0 0h18v18H0z"/><path d="M13.04 6.06a4.97 4.97 0 0 1 .42 5.2 5.07 5.07 0 0 1-3.38 2.62c-.96.21-1.9.14-2.85-.22-.04-.01-.04-.03 0-.04l.52-.2a3.1 3.1 0 0 0 1.22-.83A2.13 2.13 0 0 0 7.84 9.1c-.09-.02-.09-.04 0-.05.18-.03.35-.1.51-.21.1-.06.18-.14.27-.23.37-.37.6-.81.68-1.32.04-.25.04-.5-.01-.73-.1-.53-.44-.96-.9-1.27a3.37 3.37 0 0 0-1.12-.47c-.19-.04-.45-.1-.78-.15-.03 0-.03-.02 0-.04a5.22 5.22 0 0 1 4.76-.1c.71.36 1.3.86 1.79 1.52Z" fill="url(#b)"/><path d="M7.16 6.06c-.29-.14-.6-.18-1.04-.18h-1c-.06 0-.1 0-.14.05A4.54 4.54 0 0 0 4 8.35s.01.02.03.02H5.9a2.68 2.68 0 0 0 1.19-.2c.67-.27 1-.91.62-1.56a1.33 1.33 0 0 0-.55-.55Zm-.03 3.77a2.49 2.49 0 0 0-.81-.19 1.5 1.5 0 0 0-.21-.02H4.06c-.03 0-.04.03-.05.05v.17c.08.48.21.91.4 1.3a5.76 5.76 0 0 0 .6.96l.07.03h1.26c.09 0 .17-.01.25-.03.27-.04.49-.1.72-.26a1.54 1.54 0 0 0 .51-.68.94.94 0 0 0 0-.61 1.17 1.17 0 0 0-.7-.72Z" fill="url(#c)"/><defs><linearGradient id="a" x1="3.35" y1="3.12" x2="21.9" y2="24.43" gradientUnits="userSpaceOnUse"><stop stop-color="#1A1E21"/><stop offset="1" stop-color="#06060A"/></linearGradient><linearGradient id="b" x1="6.47" y1="4.6" x2="12.26" y2="12.46" gradientUnits="userSpaceOnUse"><stop stop-color="#9BD91B"/><stop offset="1" stop-color="#32FCA6"/></linearGradient><linearGradient id="c" x1="4.42" y1="9" x2="8.11" y2="9" gradientUnits="userSpaceOnUse"><stop stop-color="#8FDD25"/><stop offset="1" stop-color="#36FDA4"/></linearGradient></defs></svg>