<!-- by TradingView --><svg width="18" height="18" viewBox="0 0 18 18" xmlns="http://www.w3.org/2000/svg"><path fill="#39BDF8" d="M0 0h18v18H0z"/><path d="m3.78 11.72-.05-.1c.2-.1.36-.27.46-.48.04-.08.03-.14-.03-.18a1.7 1.7 0 0 1-.33-.53.48.48 0 0 1-.05-.18c0-.13.06-.24.13-.37a.08.08 0 0 0 0-.08c-.23-.3-.53-.53-.9-.68L3 9a2.22 2.22 0 0 1 1 .73c.18-.23.35-.46.5-.7a15.9 15.9 0 0 1 1.44-1.96l-.01-.06a3.4 3.4 0 0 0-.87-1.08c-.1-.07-.24-.16-.16-.3.07-.1.17-.2.3-.27a3.5 3.5 0 0 1 3.08-.01c.02.01.04.01.07 0 .38-.15.73-.24 1.07-.25h.67c.45 0 .87.07 1.27.22.09.03.15.04.2.04a1.44 1.44 0 0 1 .32.02c.5.12.9.37 1.2.74.16.19.3.43.42.73l.1.19c.1.11.18.24.24.37.06.11.28.22.2.36l-.04.09v.03c.02.08.06.15.07.23 0 .06.01.1.03.15.03.09 0 .17.02.26a3 3 0 0 1 .12.63l.01.02c.1.04.18.1.23.19.17.27-.02.5-.23.67v.03c.08.17.06.33-.07.48a.96.96 0 0 1-.25.2c-.06.04-.06.06.02.05.2-.02.38-.04.54-.14.08-.04.24-.15.36-.15.06 0 .1.04.14.1v.13c-.03.18-.27.4-.38.47a1.8 1.8 0 0 1-1.2.2 5.12 5.12 0 0 1-2.36 1.35 6.75 6.75 0 0 1-3.55-.02 6.68 6.68 0 0 1-1.76-.67l-.37-.18a6.76 6.76 0 0 1-1.06-.77c-.1.25-.28.45-.53.6Z"/><path d="M6.56 6.48a3.92 3.92 0 0 0-1.41-.94v-.01c.1-.07.2-.12.28-.15a3.74 3.74 0 0 1 2.45-.03 1.2 1.2 0 0 1 .21.1v.01l-.64.35c-.24.14-.54.37-.89.67Z" fill="#3D5D81"/><path d="M10.86 5.73c-.09.13-.16.27-.22.42a.84.84 0 0 0-.05.25c0 .06.01.07.05.02l.07-.1c.19-.28.46-.52.78-.67a20.93 20.93 0 0 0 .3-.15c.25.05.49.18.68.32a5.17 5.17 0 0 1 .8.88c.03.05.02.05-.03.02-.13-.09-.26-.15-.38-.19-.1-.03-.1-.01-.02.05a7.18 7.18 0 0 0 .5.34 1.54 1.54 0 0 1 .32.44h-.02a1.95 1.95 0 0 0-2 .27.65.65 0 0 0-.15.19l.01.02h.03c.3-.33.67-.52 1.12-.56.43-.04.93.05 1.26.33.02.01.04.05.07.1v.04h-.04a.83.83 0 0 0-.34-.19 2.14 2.14 0 0 0-1.69.12c-.26.13-.51.44-.38.74.01.03.06.08.14.15.14.1.35.18.54.23.43.14.87.14 1.3-.03.22-.08.4-.21.52-.39.01-.02.02-.02.02 0a2.3 2.3 0 0 0 0 .05c-.1.15-.2.27-.32.34-.22.14-.46.22-.71.24L12.61 9a3.22 3.22 0 0 1-.78-.2c-.02 0-.02.01 0 .02.31.16.66.25 1.04.25A1.47 1.47 0 0 0 14 8.61a.02.02 0 0 1 .02 0v.01c.07.27.1.54.09.81 0 .04 0 .07-.05.09a6.6 6.6 0 0 1-3.06.43 78.5 78.5 0 0 1-.65-.06 5.07 5.07 0 0 0-.64-.02c-.21 0-.56.06-.67.26-.07.14 0 .3.11.4.1.1.2.17.33.24.24.13.53.23.86.3.38.08.78.13 1.18.13.73 0 1.43-.1 2.1-.3.05-.02.06 0 .03.03a7.33 7.33 0 0 1-.82.8 4.64 4.64 0 0 1-2.45 1.05l-.36.06c-.64.07-1.28.04-1.9-.1a.4.4 0 0 0-.14-.07l-.01-.02-.02-.02h-.01l-.27-.09-.5-.19c-.08-.03-.18-.1-.3-.18a3.27 3.27 0 0 1-1.42-1.8.33.33 0 0 0 .16-.11c.03-.05.03-.05-.02-.02a.54.54 0 0 1-.15.07h-.02a.04.04 0 0 1-.03-.02v-.02a.7.7 0 0 1 .07-.27v-.01h-.03a.32.32 0 0 0-.06.1l-.05-.28c.1-.08.2-.18.27-.3v-.03h-.01a.02.02 0 0 0-.02 0 1.1 1.1 0 0 1-.24.25l-.01-.24.12-.16v-.01H5.4l-.07.04a5.32 5.32 0 0 1 1.56-2.8.39.39 0 0 0 .13-.26A4.51 4.51 0 0 1 9.5 5.24a5.3 5.3 0 0 1 1.75.2h-.01c-.2.05-.32.15-.38.29Z" fill="#93B5DC"/><path d="M11.8 5.5c0 .02 0 .04-.04.04h-.04l-.23.11a1.97 1.97 0 0 0-.85.77c-.04.05-.06.04-.05-.02 0-.08.02-.17.05-.25.06-.15.13-.3.22-.42.3-.21.6-.29.93-.23Z" fill="#6D87A5"/><path d="m5.15 5.53.01.03c.54.2 1 .51 1.4.92l-.47.47a.02.02 0 0 1-.03 0 2.62 2.62 0 0 0-1.01-1.12.13.13 0 0 1-.07-.08c0-.02 0-.05.03-.08.04-.06.08-.1.14-.14Z" fill="#2C4058"/><path d="M8.63 5.94c-.33.06-.59.23-.77.5a2.8 2.8 0 0 0-.22.42c-.03.07-.06.19-.1.36-.02 0-.04-.02-.04-.04 0-.29.1-.54.27-.77a2 2 0 0 1 .38-.4c.22-.15.46-.23.72-.23.46 0 .89.12 1.27.38.18.12.32.25.42.4.11.16.19.34.22.52 0 .05 0 .06-.03.02a1.57 1.57 0 0 0-.62-.82 2.02 2.02 0 0 0-1.23-.39.9.9 0 0 0-.27.05Z"/><path d="M8.63 5.94a.79.79 0 0 1-.13.15l-.11.1a1.9 1.9 0 0 0-.32.39 2.8 2.8 0 0 0-.37.95l-.02.03a.06.06 0 0 1-.04 0c-.09 0-.11-.13-.1-.19v-.15c.04-.17.07-.3.1-.36.03-.1.11-.24.22-.41.18-.28.44-.45.77-.51ZM7.03 6.3c0 .1-.04.18-.13.26-.22.23-.43.47-.62.73a5.32 5.32 0 0 0-.94 2.07c-.06.06-.12.14-.18.24a.33.33 0 0 0-.04.18c0 .02 0 .03.02.04l.04.02a.3.3 0 0 0 .14-.03l.05.28a.41.41 0 0 0-.04.19c0 .07.04.1.12.1l.03.09.05.09a3.27 3.27 0 0 0 1.34 1.6c.12.1.22.16.3.2l.5.18c.09.04.19.06.27.08l.01.01.01.02.02.02c.05.01.1.04.14.07a4.2 4.2 0 0 1-.72-.14c-.5-.16-.88-.3-1.16-.42l-.77-.4a4.73 4.73 0 0 1-1.45-1.22c-.13-.2-.08-.44.02-.64A33.36 33.36 0 0 0 5.2 8.24 11.75 11.75 0 0 1 7.03 6.3ZM12.86 6.86l-.2-.01c-.2-.02-.4 0-.58.08a.6.6 0 0 0-.3.28c-.1-.02-.14-.06-.13-.13.01-.05.04-.1.08-.15.12-.12.25-.2.42-.24.23-.05.44-.04.64.01a.1.1 0 0 1 .06.06c.02.02 0 .07.01.1Z" fill="#6D87A5"/><path d="M12.86 6.86c.04 0 .07.02.1.04v.03c0 .02-.03.02-.05.02-.21-.04-.4-.04-.58-.01-.17.03-.36.11-.45.25a.31.31 0 0 1-.06.07h-.03c-.01 0-.02-.03-.01-.05a.6.6 0 0 1 .3-.28c.19-.07.38-.1.59-.08l.2.01Z"/><path d="M10.01 7.13c-.38.03-.75.11-1.09.26a.49.49 0 0 0-.25.21c0 .04-.03.04-.1 0-.02 0-.03-.03-.04-.07-.02-.1.17-.27.26-.32.33-.2.72-.25 1.1-.22.1 0 .14.06.12.14Z" fill="#6D87A5"/><path d="M10.01 7.13c0 .06-.01.09-.05.09-.33.02-.64.09-.93.21-.1.05-.2.1-.29.17-.02.02-.05.02-.07 0a.49.49 0 0 1 .25-.2c.34-.16.7-.24 1.09-.27ZM8.25 8.73c-.1.04-.2.08-.3.02-.08-.04-.1-.1-.07-.18 0-.02.03-.05.09-.08a2 2 0 0 1 .22-.1.77.77 0 0 0 .22-.12l.3-.28c.43-.38.9-.6 1.5-.57.29.01.64.15.76.42.03.05.04.1.05.16 0 .07.04.15.05.23 0 .13-.02.26-.07.39a.65.65 0 0 1-.23.29c-.15.1-.32.18-.5.23-.3.08-.62.09-.94.01a2.95 2.95 0 0 1-.67-.24 10.81 10.81 0 0 0-.4-.18Z"/><path d="M10.71 7.84c-.28-.08-.6-.11-.96-.08-.1 0-.2.03-.28.07a3.3 3.3 0 0 0-1.07.7.93.93 0 0 1-.27.17.17.17 0 0 1-.17-.02.06.06 0 0 1-.01-.08.16.16 0 0 1 .07-.06l.27-.11c.11-.06.2-.14.32-.25l.3-.27c.32-.26.68-.4 1.1-.42.34-.03.78.07.92.4.02.05 0 .06-.04.04a.9.9 0 0 0-.18-.09Z" fill="#93B5DC"/><path d="M12.77 7.54a.81.81 0 0 1-.03 0c-.03-.02-.03-.03 0-.03a2.92 2.92 0 0 1 1 .19.2.2 0 0 1 .1.1c.07.15.11.31.12.49 0 .1-.06.15-.14.22a.88.88 0 0 1-.13.1c-.35.2-.74.26-1.15.2a2.43 2.43 0 0 1-.75-.26.55.55 0 0 1-.2-.17.17.17 0 0 1-.03-.11.58.58 0 0 1 .2-.4c.02-.01.03-.01.03.02-.05.23.02.43.2.59.2.2.53.33.8.15.19-.13.39-.4.33-.64a.87.87 0 0 0-.2-.34.37.37 0 0 0-.15-.1Z" fill="#fff"/><path d="M12.36 7.75c-.02.03 0 .08.03.1.03 0 .07-.01.1-.05.01-.04 0-.08-.04-.1-.03-.01-.07 0-.09.05ZM9.44 9.05c.1-.01.2-.07.27-.12a.62.62 0 0 0 .31-.63.7.7 0 0 0-.03-.2c-.06-.13-.17-.21-.34-.23l-.02-.01v-.01c.11-.03.24-.04.39-.04.15 0 .27.01.37.03.18.02.36.08.53.2.03.01.05.04.06.07l.01.1c.03.2-.02.37-.14.54a.58.58 0 0 1-.16.14c-.2.12-.4.2-.61.22-.33.05-.63.03-.92-.07a3.37 3.37 0 0 1-.41-.16 4.73 4.73 0 0 0-.42-.2l.38-.33c.03-.02.04-.02.03.01-.03.3.18.53.46.64.09.04.17.05.24.05ZM12.2 8.17c.05.04.13.04.17 0 .04-.05.03-.13-.03-.17-.05-.05-.13-.05-.17 0-.04.04-.03.12.02.17Z" fill="#fff"/><path d="M11.35 8.02a.8.8 0 0 0 .06.6.02.02 0 0 1-.01.03l-.03-.01a.3.3 0 0 1-.07-.12 1 1 0 0 1 0-.52.03.03 0 0 1 .02-.01h.02v.03Z"/><path d="M9.46 8.17c.04-.01.06-.06.05-.09-.02-.03-.06-.05-.1-.03-.05.01-.07.05-.05.09.01.03.06.05.1.03ZM9.29 8.49c.07-.03.1-.1.08-.15-.02-.06-.1-.08-.17-.06-.07.03-.1.1-.08.15.03.06.1.08.17.06Z" fill="#fff"/><path d="M5.93 9.38v.01a.05.05 0 0 0 .05.01H6c.13-.11.18-.24.26-.42h.04V9l.02.06a.8.8 0 0 1-.26.41c-.04.03-.09.04-.15.02-.07-.02-.09-.12-.1-.18 0-.14.04-.27.13-.38.03-.04.04-.03.03.02-.04.12-.06.22-.06.3 0 .06 0 .1.02.14ZM6.41 9.76c.05.01.09 0 .13-.02.2-.15.23-.38.22-.62l.02-.02h.02c.02.02.03.03.03.05a.72.72 0 0 1-.17.6c-.06.06-.17.1-.25.09-.15-.03-.14-.2-.1-.32.03-.08.07-.17.12-.24h.01v.01c-.03.13-.11.36-.05.45l.02.02ZM12.7 9.18h.02c.21.04.4.02.58-.07h.02v.03a.3.3 0 0 1-.12.07 1.06 1.06 0 0 1-.5 0 .02.02 0 0 1-.01 0v-.02Z"/><path d="M4.16 10.96c-.08.1-.17.19-.27.26a1 1 0 0 1-.3.15 5.88 5.88 0 0 1-.37-.96.13.13 0 0 0 .1-.09v-.01H3.2c-.11-.39-.17-.79-.2-1.2.38.16.68.39.9.69a.08.08 0 0 1 .01.08.85.85 0 0 0-.13.37c0 .04.02.1.05.18.07.19.19.37.33.53Z" fill="#3D5D81"/><path d="M9.55 10.34c.2.09.47.15.8.2 1.04.12 2.05.08 3-.14a2.91 2.91 0 0 0 .82-.29.03.03 0 0 1 .01.02c.07.15.04.28-.08.4-.14.13-.32.23-.54.3-.84.23-1.7.31-2.56.24-.22-.02-.5-.07-.83-.15a2.43 2.43 0 0 1-.88-.4.43.43 0 0 1-.15-.17c-.12-.29.33-.36.52-.38h.53l.7.07a6.8 6.8 0 0 0 3.35-.5c.04-.02.05-.05.03-.09a.25.25 0 0 1-.03-.13v-.01l.02-.01a.03.03 0 0 1 .03 0c.23.22.13.52-.11.68-.2.12-.43.22-.67.28a9.46 9.46 0 0 1-3.03.2c-.3-.02-.65-.11-.93-.14-.03 0-.03 0 0 .02Z" fill="#D86B5B"/><path d="M5.3 9.49c-.05.05-.09.1-.12.18a.17.17 0 0 0-.01.1l.02.02a.04.04 0 0 0 .03 0 .24.24 0 0 0 .1-.06 1.1 1.1 0 0 0 .24-.26.02.02 0 0 1 .02 0l.01.02v.03c-.08.11-.17.2-.27.29a.3.3 0 0 1-.14.03l-.04-.02a.06.06 0 0 1-.02-.04c0-.07.01-.13.04-.18.06-.1.12-.18.18-.24l.07-.05h.01v.02l-.11.16ZM10.6 9.36a.58.58 0 0 1 .04-.03c.06-.01.07 0 .02.04a.34.34 0 0 1-.1.06 1.56 1.56 0 0 1-.39.08V9.5c0-.02.01-.03.02-.03.16-.01.3-.05.4-.11Z"/><path d="m5.3 9.49.02.24a.24.24 0 0 1-.1.06.04.04 0 0 1-.04-.01l-.01-.02.01-.09a.47.47 0 0 1 .13-.18Z" fill="#6D87A5"/><path d="M5.59 9.85a.54.54 0 0 0 .31-.26c.03-.06.05-.06.06 0 0 .02 0 .04-.02.07a.56.56 0 0 1-.31.25c-.07.02-.11 0-.15-.03-.04-.06 0-.13.03-.18a95.36 95.36 0 0 0 .11-.13v.01l.01.01v.01l-.1.2a.04.04 0 0 0 .01.04l.03.01h.02ZM8.71 10.27c-.1-.32.1-.52.4-.58a.28.28 0 0 1 .17 0c.01 0 .02 0 .02.02v.03l-.04.01c-.33.04-.59.18-.44.54a.02.02 0 0 1 0 .03.03.03 0 0 1-.03 0 .12.12 0 0 1-.08-.05ZM6.08 10.27c.13-.02.28-.2.34-.3 0-.01 0-.02.02-.02h.01l.01.02c0 .04-.02.08-.05.11-.06.08-.26.3-.39.24-.05-.02-.08-.06-.08-.12 0-.13.05-.26.15-.4h.01l.03.01v.01l-.11.25a.28.28 0 0 0-.01.16c0 .01 0 .02.02.03.01.01.03.02.05.01ZM8.31 10.42c-.06.08-.14.16-.25.23a1.86 1.86 0 0 1-.82.33c-.1.01-.25.03-.42.07a.28.28 0 0 0-.2.14c-.05.1 0 .18.06.25a.04.04 0 0 0 .03.01.04.04 0 0 0 .02 0c.09-.1.2-.15.33-.19l.36-.1.26-.07a.01.01 0 0 1 .01.01v.02a.83.83 0 0 1-.2.09c-.2.05-.37.1-.56.18a.38.38 0 0 0-.14.11v.03c.04.05.1.09.17.11a.94.94 0 0 0 .28.1c.08-.13.2-.23.35-.28a2.92 2.92 0 0 1 .63-.15.01.01 0 0 1 0 .02.54.54 0 0 1-.18.07l-.3.08c-.15.05-.33.13-.4.27a.02.02 0 0 0 0 .02h.01c.22.04.44.03.65-.04.2-.07.38-.18.52-.31a.75.75 0 0 0 .13-.94v-.02c0-.05.01-.07.05-.04.04.02.07.06.1.12.08.24.08.48-.01.72l-.18.23c-.2.17-.42.3-.65.35-.36.1-.72.06-1.07-.11a.8.8 0 0 1-.16-.1 5.96 5.96 0 0 1-.16-.17.23.23 0 0 1-.08-.18c.01-.21.18-.32.39-.34l.48-.09c.18-.03.35-.1.5-.2a25 25 0 0 1 .46-.26v.03Z"/><path d="m7.42 11.16-.36.1a.74.74 0 0 0-.34.19h-.01a.04.04 0 0 1-.03-.01c-.06-.07-.1-.16-.06-.25a.28.28 0 0 1 .2-.14l.42-.08a1.86 1.86 0 0 0 1.07-.55l.02.1v.03a.63.63 0 0 1-.14.15c-.22.16-.47.3-.74.4-.02 0-.03.02-.03.06Z" fill="#6D87A5"/><path d="m14.15 11.29-.01-.37a3 3 0 0 0 .69-.3c.05 0 .07.03.07.08 0 .04-.02.08-.06.13-.16.25-.39.4-.69.46Z" fill="#93B5DC"/><path d="m14.14 10.92.01.37c-.2.04-.4.04-.6-.01v-.03c.08-.08.15-.18.2-.3 0 0 0-.02.02-.02h.37Z" fill="#6D87A5"/><path d="M3.73 11.63a6.5 6.5 0 0 1-.14-.26 1 1 0 0 0 .3-.15c.1-.07.19-.16.27-.26.06.04.07.1.03.18-.1.21-.25.38-.46.49Z" fill="#2C4058"/><path d="M8.79 11.26a1.17 1.17 0 0 1-.8.74c-.13.04-.3.06-.5.05-.28-.02-.53-.11-.73-.3a.12.12 0 0 1-.03-.13 1.5 1.5 0 0 0 1.88-.14c.03-.03.1-.1.18-.22Z" fill="#6D87A5"/><path d="M6.93 11.39a.7.7 0 0 1 .03.25.36.36 0 0 1-.17-.11v-.03a.38.38 0 0 1 .14-.11Z" fill="#6D87A5"/></svg>