<!-- by TradingView --><svg width="18" height="18" xmlns="http://www.w3.org/2000/svg"><path fill="#0BB3AB" d="M0 0h18v18H0z"/><path fill-rule="evenodd" d="M4.716 4H9.85c1.954 0 4.871 1.664 2.598 4.844h-1.605c-.092 0-.166.07-.166.156s.074.156.166.156H12.5c1.602 1.563 1.17 3.456-.168 4.375-.655.45-1.527.469-2.483.469H4.716c-.241 0-.255-.313 0-.313s.828-.25.828-.624V4.937c0-.375-.573-.625-.828-.625S4.474 4 4.716 4zM9.45 6.464c.354.343.71.687.895 1.13.256.61.003 1.243 0 1.25C9.285 8.094 8.8 6.969 8.69 6.5c.132 1.125.917 2.135 1.324 2.5-1.345-.122-1.829-1.115-1.821-2.188.003-.423.144-.91.255-1.291l.076-.271c.17.484.548.849.926 1.214zm.895 3.942c-.185.443-.54.787-.895 1.13-.378.365-.755.73-.926 1.214a12.567 12.567 0 00-.076-.27c-.11-.382-.252-.869-.255-1.293-.008-1.072.476-2.065 1.821-2.187-.407.365-1.192 1.375-1.324 2.5.11-.469.596-1.594 1.655-2.344.003.007.256.64 0 1.25z" fill="#fff"/></svg>