<!-- by TradingView --><svg width="18" height="18" viewBox="0 0 18 18" xmlns="http://www.w3.org/2000/svg"><path fill="url(#aj4iq1s3z)" d="M0 0h18v18H0z"/><path d="M4 8.99A4.99 4.99 0 0 1 9 4a4.99 4.99 0 1 1 0 9.97c-2.77 0-5-2.22-5-4.98ZM9 12a3 3 0 1 0 0-6 3 3 0 0 0 0 6Z" fill="url(#bj4iq1s3z)"/><path d="M14 9v-.07A4.93 4.93 0 0 0 13 6c-.63.81-1 1.86-1 3s.37 2.19 1 3c.6-.8.98-1.8 1-2.93V9Z" fill="url(#cj4iq1s3z)"/><path d="M5 6c-.6.79-.98 1.81-1 2.93v.14c.02 1.12.4 2.14 1 2.93a5 5 0 0 0 0-6Z" fill="url(#dj4iq1s3z)"/><path d="M12 5c-.79-.6-1.8-.98-2.93-1h-.14C7.8 4.02 6.79 4.4 6 5c.81.63 1.86 1 3 1a5.15 5.15 0 0 0 3-1Z" fill="url(#ej4iq1s3z)"/><path d="M6 13a5 5 0 0 0 6 0 5 5 0 0 0-6 0Z" fill="url(#fj4iq1s3z)"/><path d="M9 10a1 1 0 1 0 0-2 1 1 0 0 0 0 2Z" fill="url(#gj4iq1s3z)"/><defs><linearGradient id="aj4iq1s3z" x1="3.35" y1="3.12" x2="21.9" y2="24.43" gradientUnits="userSpaceOnUse"><stop stop-color="#1A1E21"/><stop offset="1" stop-color="#06060A"/></linearGradient><linearGradient id="bj4iq1s3z" x1="6.73" y1=".89" x2="11.13" y2="16.66" gradientUnits="userSpaceOnUse"><stop offset=".14" stop-color="#FF78F1"/><stop offset=".3" stop-color="#C199F2"/><stop offset=".49" stop-color="#7DBDF4"/><stop offset=".66" stop-color="#47D9F5"/><stop offset=".81" stop-color="#20EEF6"/><stop offset="1" stop-color="#00FFF7"/></linearGradient><linearGradient id="cj4iq1s3z" x1="13.01" y1="5.98" x2="13.01" y2="12.01" gradientUnits="userSpaceOnUse"><stop stop-color="#8172E8"/><stop offset="1" stop-color="#00C4EF"/></linearGradient><linearGradient id="dj4iq1s3z" x1="4.99" y1="6.01" x2="4.99" y2="11.75" gradientUnits="userSpaceOnUse"><stop stop-color="#8172E8"/><stop offset="1" stop-color="#00C4EF"/></linearGradient><linearGradient id="ej4iq1s3z" x1="11.88" y1="4.99" x2="7.26" y2="4.99" gradientUnits="userSpaceOnUse"><stop stop-color="#008DEB"/><stop offset="1" stop-color="#956DE7"/></linearGradient><linearGradient id="fj4iq1s3z" x1="6" y1="12.99" x2="12" y2="12.99" gradientUnits="userSpaceOnUse"><stop stop-color="#009BEC"/><stop offset="1" stop-color="#00CAEF"/></linearGradient><linearGradient id="gj4iq1s3z" x1="9" y1="11.22" x2="9" y2="8.37" gradientUnits="userSpaceOnUse"><stop stop-color="#FF78F1"/><stop offset="1" stop-color="#00FFF7"/></linearGradient></defs></svg>