<!-- by TradingView --><svg width="18" height="18" viewBox="0 0 18 18" fill="none" xmlns="http://www.w3.org/2000/svg"><path fill="url(#a)" d="M0 0h18v18H0z"/><path d="M7.68 3.11a.05.05 0 1 0 0-.1.05.05 0 0 0 0 .1ZM9.02 3.1c.03 0 .04-.03.04-.06-.01-.02-.04-.03-.07-.02-.03 0-.05.03-.04.06 0 .02.04.03.07.02ZM10.32 3.02h.04c.03.02.03.04.01.06a.06.06 0 0 1-.06.02c-.02 0-.04-.02-.04-.04s.01-.04.05-.04ZM8.29 3.06c0-.04.02-.06.07-.04.03 0 .04.03.03.06-.02.03-.04.03-.08.02-.02 0-.02-.02-.02-.04ZM9.63 3.02h.06c.02 0 .03.02.02.04l-.02.04c-.02.02-.04.02-.05 0l-.03-.03c-.02-.02 0-.03.02-.05ZM7.36 3.46a.07.07 0 1 0 0-.14.07.07 0 0 0 0 .14ZM10.65 3.46a.07.07 0 1 0 0-.14.07.07 0 0 0 0 .14ZM6.7 3.44c.04 0 .06-.03.05-.05 0-.03-.03-.05-.06-.04-.03 0-.05.03-.05.05 0 .03.03.05.07.04ZM11.3 3.45a.05.05 0 1 0 0-.1.05.05 0 0 0 0 .1ZM8.35 3.85a.14.14 0 1 0 0-.27.14.14 0 0 0 0 .27ZM9 3.86a.14.14 0 1 0 0-.29.14.14 0 0 0 0 .3ZM9.67 3.85a.14.14 0 1 0 0-.27.14.14 0 0 0 0 .27ZM7.69 3.84a.13.13 0 1 0 0-.25.13.13 0 0 0 0 .25ZM7.03 3.81a.1.1 0 1 0 0-.2.1.1 0 0 0 0 .2ZM10.99 3.8a.1.1 0 1 0 0-.18.1.1 0 0 0 0 .19ZM6.36 3.78a.06.06 0 1 0 0-.13.06.06 0 0 0 0 .13ZM11.64 3.78a.06.06 0 1 0 0-.13.06.06 0 0 0 0 .13ZM8.02 4.22a.17.17 0 1 0 0-.35.17.17 0 0 0 0 .35ZM8.68 4.23a.18.18 0 1 0 0-.37.18.18 0 0 0 0 .37ZM9.34 4.23a.18.18 0 1 0 0-.37.18.18 0 0 0 0 .37ZM10 4.22a.17.17 0 1 0 0-.35.17.17 0 0 0 0 .35ZM7.36 4.2a.15.15 0 1 0 0-.3.15.15 0 0 0 0 .3ZM10.66 4.2a.15.15 0 1 0 0-.3.15.15 0 0 0 0 .3ZM6.7 4.16a.12.12 0 1 0 0-.24.12.12 0 0 0 0 .24ZM11.32 4.16a.12.12 0 1 0 0-.23.12.12 0 0 0 0 .23ZM11.97 4.13a.08.08 0 1 0 0-.17.08.08 0 0 0 0 .17ZM6.03 4.12a.08.08 0 1 0 0-.15.08.08 0 0 0 0 .15ZM12.6 4c0-.02.01-.03.03-.02.03.01.04.04.02.08 0 .02-.01.02-.03 0-.02-.01-.03-.03-.03-.06Z" fill="#FDFDFB"/><path d="M12.57 6.87c-.11-.05-.15-.15-.12-.29 0-.02 0-.03-.03-.03l-.15.03h-.04c-.1-.06-.15-.13-.15-.23 0-.05-.02-.07-.07-.07h-.07c-.04 0-.07.02-.07.07 0 .13-.08.2-.22.24l-.06-.01c-.1-.06-.16-.13-.17-.22 0-.05-.03-.07-.08-.07h-.12c-.03 0-.05.02-.05.05 0 .08-.03.14-.08.18-.05.05-.12.05-.19.01-.08-.04-.11-.12-.1-.23 0-.02 0-.03-.03-.03h-.24c-.02 0-.02.01-.02.03a.2.2 0 0 1-.01.1c-.04.12-.13.17-.26.12-.08-.03-.11-.1-.1-.2 0-.02 0-.04-.03-.04h-.2c-.03 0-.05.02-.05.06a.2.2 0 0 1-.12.2.18.18 0 0 1-.19-.02.26.26 0 0 1-.1-.16c0-.02-.02-.03-.04-.03a.3.3 0 0 0-.11 0 .05.05 0 0 0-.04.05c-.04.16-.14.24-.32.22-.04 0-.05.01-.05.05 0 .13-.06.21-.18.24-.08.03-.16-.02-.25-.14l-.02-.03-.05-.04c-.03 0-.06 0-.08.03a.06.06 0 0 0 0 .05c0 .02.01.03.03.04.06.02.11.06.15.1.06.06.07.11.04.17-.05.11-.12.16-.2.14-.09-.02-.15-.08-.19-.19-.02-.05-.05-.06-.1-.04-.05.03-.07.07-.07.1s.02.04.04.05c.07.04.12.08.16.12.06.06.05.12 0 .19l-.05.05c-.06.06-.11.07-.17.02a.36.36 0 0 1-.14-.18.05.05 0 0 0-.04-.03c-.05-.01-.1.01-.13.07-.02.05 0 .08.04.1.1.03.16.1.19.17.03.08-.01.15-.12.21-.05.04-.1.02-.17-.03a.33.33 0 0 1-.1-.15.05.05 0 0 0-.04-.04.1.1 0 0 0-.08.03.07.07 0 0 0-.03.06c0 .02.01.04.03.05.17.1.23.2.19.3-.05.11-.14.16-.28.13-.02 0-.03 0-.03.03.06.2-.02.3-.24.34-.03 0-.04.02-.04.05v.17c0 .02 0 .03.03.03.09-.01.16.02.2.09.02.03.03.07.02.12-.01.04-.03.07-.07.1-.07.05-.14.05-.2.01s-.1-.1-.09-.2c0-.03-.02-.04-.05-.03-.08.02-.12.05-.12.11 0 .03.01.04.03.05.1.05.18.11.2.18.05.09.03.16-.06.24a.7.7 0 0 1-.15.07.06.06 0 0 0-.04.04.15.15 0 0 0 0 .1l.05.05c.23.1.28.22.14.39-.02.02-.07.04-.14.05a.06.06 0 0 0-.04.04.2.2 0 0 0 0 .15c0 .02.02.03.04.03l.12.05c.11.1.12.22.03.33a.33.33 0 0 1-.13.08l-.03.01a.05.05 0 0 0-.03.05c0 .06.05.1.15.13.04 0 .05 0 .04-.04-.02-.06 0-.12.05-.17.05-.04.1-.06.17-.04.06.01.1.05.1.1.02.05.01.1-.03.16s-.1.08-.18.06h-.03l-.01.04.03.2c0 .02.02.04.05.04.06 0 .11.02.14.04.09.06.12.14.1.21-.02.07-.08.13-.17.18-.05.03-.07.05-.08.07 0 .04.01.07.06.1.02.02.04.02.06.01a.06.06 0 0 0 .04-.05c0-.07.04-.12.1-.17.07-.05.13-.05.19-.01.08.06.11.13.09.22-.03.09-.1.13-.2.14-.03 0-.04.01-.04.04v.11c0 .04.02.06.05.07.18.02.26.13.25.31 0 .03 0 .04.03.04l.1.01c.15.06.2.16.16.31 0 .02 0 .04.03.05a.1.1 0 0 0 .07 0 .1.1 0 0 1 .06-.01c.1.02.16.09.18.21 0 .07-.04.12-.1.17-.09.06-.17.06-.25-.02-.07-.07-.1-.14-.06-.21v-.04a.03.03 0 0 0-.03-.02H7.6c-.02 0-.04.01-.03.04a6.08 6.08 0 0 1-.02.18c-.13.15-.25.16-.38.03-.05-.05-.07-.11-.04-.19.01-.03 0-.04-.03-.04h-.23c-.01 0-.02 0-.02.02l.01.02c.03.06.03.1 0 .15-.06.07-.12.1-.18.1a.18.18 0 0 1-.14-.07.2.2 0 0 1-.05-.14c0-.06.03-.11.09-.15.03-.02.09-.03.15-.02h.02c.02 0 .03-.01.04-.03 0-.14-.07-.2-.2-.2-.02 0-.03.02-.03.03.01.13-.04.21-.15.25-.07.02-.14 0-.2-.05-.08-.07-.09-.16-.03-.25.06-.08.13-.12.21-.1.02 0 .04-.01.04-.03l-.01-.1c-.02-.04-.07-.06-.14-.07-.02 0-.03.01-.03.04 0 .05-.02.09-.04.13-.07.12-.16.16-.27.1-.12-.07-.16-.16-.11-.27.04-.1.11-.14.22-.14.02 0 .03-.01.04-.03 0-.06 0-.1-.03-.12a.14.14 0 0 0-.1-.02c-.03 0-.04.01-.04.03-.01.1-.05.16-.12.2-.07.05-.15.05-.23 0-.07-.05-.1-.11-.1-.18.02-.13.1-.2.24-.22.03 0 .04-.02.04-.04.01-.1-.04-.15-.14-.13-.02 0-.03.01-.03.03 0 .12-.06.2-.17.24-.1.03-.19-.01-.25-.14a.15.15 0 0 1 0-.15c.05-.09.12-.14.2-.14.03 0 .05-.01.06-.03a.06.06 0 0 0 0-.06c-.02-.07-.07-.1-.14-.1-.02 0-.04.02-.03.04 0 .08-.03.14-.1.2-.08.07-.16.06-.25 0-.09-.07-.1-.15-.06-.23.05-.11.13-.15.22-.13l.04-.01a.04.04 0 0 0 .01-.04l-.02-.12c0-.02-.02-.04-.04-.04l-.14-.03c-.02 0-.03 0-.02.03.02.1 0 .17-.05.22-.11.1-.22.08-.3-.05a.16.16 0 0 1 0-.19c.07-.1.14-.12.23-.07l.04-.01v-.03c-.03-.04-.04-.1-.02-.19 0-.03 0-.04-.04-.04l-.14-.01c-.12-.07-.17-.16-.12-.28.04-.1.11-.16.22-.16.02 0 .03-.01.04-.03.02-.06 0-.1-.03-.13a.24.24 0 0 0-.12-.04c-.02 0-.03 0-.03.03.01.1-.03.2-.1.25-.06.04-.12.04-.2 0-.1-.07-.13-.16-.08-.26.04-.1.12-.13.23-.1.05 0 .07-.02.05-.07a.24.24 0 0 1 0-.15c0-.02-.01-.04-.03-.04h-.13c-.15-.08-.2-.19-.14-.3.05-.1.13-.15.24-.13.02 0 .04-.01.04-.04v-.15c0-.02-.02-.03-.04-.03-.14 0-.22-.06-.26-.17-.02-.07 0-.14.05-.2.06-.06.13-.09.2-.08.03 0 .05 0 .05-.03v-.15c0-.03-.02-.04-.04-.04h-.08l-.05-.01c-.1-.08-.14-.16-.13-.23.02-.14.12-.2.28-.2.03 0 .04 0 .03-.03a.26.26 0 0 1 0-.17c.02-.02 0-.04-.01-.04h-.04c-.05.02-.1.02-.14-.02-.15-.13-.14-.25 0-.35.08-.06.15-.05.22.02.07.06.1.13.08.2 0 .03 0 .04.02.06h.06c.09-.06.12-.11.11-.15a.05.05 0 0 0-.03-.04c-.17-.06-.25-.13-.26-.24 0-.04.02-.1.07-.15.06-.07.13-.1.22-.07.03 0 .05 0 .04-.04L4.8 7l.01-.04c.06-.13.16-.2.27-.19.03 0 .04-.01.04-.04V6.6c0-.02 0-.03-.03-.04H5l-.05-.02c-.1-.07-.13-.16-.1-.25.02-.05.06-.1.13-.13L5 6.15c.02-.02.04-.02.07 0 .13.04.2.12.2.25 0 .02 0 .03.03.03l.1-.02c.02 0 .03-.01.03-.04v-.1c0-.02 0-.03-.03-.03-.1 0-.17-.04-.22-.14-.07-.12-.02-.21.14-.29.04-.02.08-.01.14.02.09.05.13.12.13.22 0 .02.01.04.03.04.1 0 .15-.04.15-.14 0-.03-.02-.05-.06-.04-.05.01-.1 0-.14-.05-.09-.1-.1-.18-.07-.25.04-.08.1-.12.16-.13.08-.02.14 0 .2.08.05.05.07.1.07.14 0 .02.01.04.04.06h.06c.06-.04.08-.09.07-.13 0-.03-.02-.04-.04-.04-.1 0-.18-.06-.23-.18-.03-.06-.02-.12.02-.16.09-.1.17-.12.24-.1.1.06.15.12.16.21 0 .03.02.05.05.07l.08-.01c.05-.04.07-.1.06-.15 0-.02-.01-.03-.03-.03-.13 0-.21-.05-.25-.17-.02-.09.01-.16.1-.22.07-.04.14-.04.2 0 .09.05.12.12.11.2 0 .04.01.06.05.06h.1c.03 0 .04-.02.05-.04.03-.21.14-.3.33-.27.03 0 .04-.01.03-.04-.03-.1 0-.18.1-.25.08-.05.16-.05.24 0 .07.06.11.13.12.21 0 .02 0 .03.03.03h.08c.04 0 .06-.01.06-.04l.02-.1c.01-.03 0-.04-.04-.04-.08.02-.16-.01-.22-.1-.04-.06-.05-.11-.03-.15.03-.07.07-.11.12-.13.05-.03.1-.03.14-.01.05.02.09.05.11.1.03.05.03.1.02.17 0 .02 0 .03.02.02a.43.43 0 0 1 .2 0c.04 0 .04-.01.04-.04-.03-.1 0-.18.09-.24.11-.07.22-.05.31.09.03.04.04.08.02.14 0 .03.01.04.04.04l.15-.03c.02 0 .03-.01.03-.03 0-.12.06-.21.2-.26h.06c.13.06.2.15.2.27 0 .02 0 .03.03.03h.15c.01 0 .02 0 .02-.02 0-.12.05-.2.15-.25.09-.04.16-.02.22.04s.09.13.07.22c0 .03 0 .04.02.03.07-.01.14 0 .2.01.03.01.04 0 .03-.02V4.4c-.02-.04 0-.1.03-.14a.21.21 0 0 1 .12-.08c.12-.03.21.04.26.2l-.01.05a.58.58 0 0 1-.17.16.06.06 0 0 1-.05 0l-.06-.02c-.04-.02-.05 0-.03.03l.04.14c.01.02.03.03.05.03h.07c.02 0 .03-.01.03-.03a.3.3 0 0 1 .14-.23.17.17 0 0 1 .22 0c.09.07.12.15.1.25 0 .02.01.03.03.04a.1.1 0 0 0 .07 0c.02-.02.03-.02.05 0 .14.05.21.14.22.28 0 .02.02.04.05.04h.11c.02 0 .04-.01.04-.03V5c0-.05.02-.1.07-.13a.2.2 0 0 1 .13-.05c.06 0 .12.02.17.08.06.07.06.14.01.22-.05.08-.12.11-.21.1-.02 0-.04 0-.04.03-.02.06 0 .12.08.17.03.01.05.01.07 0a.06.06 0 0 0 .03-.05c0-.06.03-.12.08-.16.1-.11.22-.1.33.03.03.04.04.07.03.1-.02.15-.1.23-.25.23-.02 0-.03.02-.03.04 0 .06.01.1.04.12a.1.1 0 0 0 .1.03c.02 0 .03-.02.03-.04.01-.1.05-.18.12-.23a.2.2 0 0 1 .16-.02c.05.01.1.04.13.09.03.05.04.1.03.15 0 .06-.03.1-.08.15-.03.02-.09.04-.17.04-.03 0-.04.01-.04.04l.01.12c0 .03.03.05.08.06l.08.01c.02 0 .03 0 .03-.03-.02-.17.04-.28.2-.31.03 0 .07 0 .12.04.1.09.13.17.08.27-.07.11-.16.15-.28.11h-.03v.04l.02.06v.05l-.02.1c-.01.03 0 .04.03.02.11-.04.2-.01.27.1.04.06.04.13 0 .2-.05.08-.14.1-.25.08Z" fill="#FDFDFB"/><path d="M7.03 4.55a.18.18 0 1 0 0-.35.18.18 0 0 0 0 .35ZM10.98 4.55a.17.17 0 1 0 0-.35.17.17 0 0 0 0 .35ZM6.36 4.52a.14.14 0 1 0 0-.28.14.14 0 0 0 0 .28ZM11.64 4.52a.14.14 0 1 0 0-.28.14.14 0 0 0 0 .28ZM6.7 4.9a.2.2 0 1 0 0-.39.2.2 0 0 0 0 .39ZM11.32 4.9a.2.2 0 1 0 0-.39.2.2 0 0 0 0 .39ZM6.04 4.86a.15.15 0 1 0 0-.3.15.15 0 0 0 0 .3ZM11.97 4.85a.15.15 0 1 0 0-.3.15.15 0 0 0 0 .3Z" fill="#FDFDFB"/><path d="M8.4 4.6c.01 0 .02 0 .02.02v.02c0 .06-.03.1-.08.1l-.02-.01c-.05 0-.07-.04-.06-.1V4.6c0-.02 0-.03.03-.02h.1ZM9.7 4.58h-.05a.06.06 0 0 0-.06.06v.03c0 .03.03.06.06.06h.05c.03 0 .05-.03.05-.06v-.03a.06.06 0 0 0-.06-.06Z" fill="#0D0D0D"/><path d="M5.38 4.8a.1.1 0 1 0 0-.2.1.1 0 0 0 0 .2Z" fill="#FDFDFB"/><path d="M9 4.73c.04 0 .08-.03.08-.06 0-.04-.03-.08-.07-.08-.04 0-.08.02-.08.06 0 .04.02.07.07.08Z" fill="#0D0D0D"/><path d="M12.64 4.8a.1.1 0 1 0 0-.2.1.1 0 0 0 0 .2ZM13.29 4.73a.04.04 0 1 0 0-.08.04.04 0 0 0 0 .08ZM5.7 5.2a.16.16 0 1 0 0-.33.16.16 0 0 0 0 .32ZM12.3 5.2a.16.16 0 1 0 0-.32.16.16 0 0 0 0 .31ZM5.05 5.14a.1.1 0 1 0 0-.2.1.1 0 0 0 0 .2Z" fill="#FDFDFB"/><path d="M7.4 5.04a.06.06 0 0 1-.06.02.06.06 0 0 1-.05-.03c-.03-.05-.03-.08-.02-.1.02-.02.05-.02.1 0l.04.05c0 .02 0 .04-.02.06ZM10.68 5.06c.04 0 .08-.04.07-.08 0-.04-.04-.06-.08-.06-.05 0-.08.04-.07.08 0 .04.04.06.08.06Z" fill="#0D0D0D"/><path d="M12.96 5.14a.1.1 0 1 0 0-.2.1.1 0 0 0 0 .2ZM4.36 5.06v-.02c-.02-.02-.01-.04 0-.05h.06c.02.02.02.03.01.05l-.03.03-.04-.01ZM13.58 5.02c0 .03 0 .05.03.05.02 0 .04 0 .04-.03s0-.05-.02-.06c-.03 0-.05.02-.05.04ZM5.38 5.53a.16.16 0 1 0 0-.33.16.16 0 0 0 0 .33ZM12.64 5.52a.16.16 0 1 0 0-.32.16.16 0 0 0 0 .32ZM4.65 5.44c.04.03.1.03.14 0 .04-.05.03-.1-.01-.15-.04-.03-.1-.03-.14 0-.04.05-.03.1.01.15Z" fill="#FDFDFB"/><path d="M6.96 5.33c0 .03.03.06.06.05.02 0 .04-.03.03-.06 0-.03-.03-.05-.05-.05-.03 0-.04.03-.04.06ZM11.02 5.37c.03 0 .05-.03.04-.06 0-.03-.03-.04-.06-.03-.04 0-.06.03-.05.06 0 .03.04.04.07.03Z" fill="#0D0D0D"/><path d="M13.3 5.46a.1.1 0 1 0 0-.2.1.1 0 0 0 0 .2ZM12.96 5.85a.16.16 0 1 0 0-.31.16.16 0 0 0 0 .31ZM4.38 5.79a.1.1 0 1 0 0-.19.1.1 0 0 0 0 .19ZM13.62 5.78a.09.09 0 1 0 0-.18.09.09 0 0 0 0 .18ZM3.73 5.73a.05.05 0 1 0 0-.1.05.05 0 0 0 0 .1Z" fill="#FDFDFB"/><path d="M11.3 5.68c0 .03.01.06.04.06.02 0 .04-.03.04-.06s-.01-.06-.04-.06c-.02 0-.04.03-.04.06Z" fill="#09607B"/><path d="M14.24 5.66v.06c.02.01.05 0 .06-.02.02-.02.01-.04 0-.05-.02-.02-.05 0-.06.01ZM4.71 6.17a.15.15 0 1 0 0-.3.15.15 0 0 0 0 .3ZM13.3 6.18a.15.15 0 1 0 0-.3.15.15 0 0 0 0 .3ZM4.06 6.1a.08.08 0 1 0 0-.16.08.08 0 0 0 0 .17ZM13.96 6.1a.08.08 0 1 0 0-.16.08.08 0 0 0 0 .16Z" fill="#FDFDFB"/><path d="M11.6 6.05c0 .05.04.07.08.06.03 0 .05-.04.04-.09-.01-.04-.05-.07-.08-.06-.04 0-.05.05-.04.1Z" fill="#0D0D0D"/><path d="M10.98 6.17a.08.08 0 1 0 0-.16.08.08 0 0 0 0 .16ZM10.33 6.18a.08.08 0 1 0 0-.16.08.08 0 0 0 0 .16ZM9.68 6.15a.06.06 0 1 0 0-.12.06.06 0 0 0 0 .12Z" fill="#09607B"/><path d="M12.97 6.56a.2.2 0 1 0 0-.41.2.2 0 0 0 0 .4ZM4.39 6.5a.14.14 0 1 0 0-.28.14.14 0 0 0 0 .27ZM13.63 6.5a.14.14 0 1 0 0-.28.14.14 0 0 0 0 .28Z" fill="#FDFDFB"/><path d="m12.57 6.87.04.15a.1.1 0 0 0 .07.07c.05.01.08 0 .1-.06l.12.16c-.02.1.02.2.12.26h.05c.04 0 .05-.04.05-.09l.1.15c-.02-.02-.04-.02-.05 0v.06c.04.08.05.14.04.2v.03h.04l.07-.02.06.01c.16.12.18.24.08.38a.1.1 0 0 1-.05.03l-.11.04a.05.05 0 0 0-.03.04c-.03.09.02.15.13.19.07.02.1.07.1.15.02.19-.06.28-.25.28-.02 0-.03.01-.04.03-.01.07.01.12.07.14l.13.04c.05.01.09.05.1.1.03.13.01.22-.05.28-.05.06-.14.07-.25.05-.03 0-.04 0-.03.03.02.09 0 .17-.04.22a.21.21 0 0 1-.17.08.22.22 0 0 1-.17-.06c-.05-.05-.07-.11-.06-.2 0-.04-.01-.06-.06-.06-.1 0-.17-.01-.22-.05-.04-.04-.06-.1-.07-.2a.04.04 0 0 0-.04-.04h-.05a.34.34 0 0 1-.12-.04c-.1-.06-.13-.16-.1-.3 0-.01 0-.02-.03-.02-.2.02-.3-.06-.32-.25 0-.04-.01-.05-.04-.06-.22-.01-.31-.12-.29-.3 0-.03 0-.04-.03-.04h-.05a.1.1 0 0 1-.06 0 .26.26 0 0 1-.19-.2c0-.04-.02-.07-.04-.08a.08.08 0 0 0-.08 0 .07.07 0 0 0-.03.04c-.06.15-.14.23-.24.24-.15.01-.24-.07-.28-.24a.06.06 0 0 0-.03-.05.15.15 0 0 0-.1 0 .04.04 0 0 0-.04.04c-.02.1-.05.17-.1.2-.1.06-.18.07-.25.03A.52.52 0 0 1 9.72 8c-.03-.05-.06-.05-.08 0a.42.42 0 0 1-.31.28.05.05 0 0 0-.04.04c-.03.15-.12.24-.28.28-.04 0-.06.03-.06.07-.02.16-.1.25-.24.27a.08.08 0 0 0-.05.03.13.13 0 0 0-.03.1c0 .02 0 .03.03.04l.03.02.14.1c.04.05.03.1-.01.17-.07.1-.14.13-.21.09-.08-.05-.12-.12-.11-.21 0-.02 0-.03-.02-.04h-.05c-.07.04-.1.09-.08.14 0 .02.02.03.04.04.09.03.15.09.18.18.04.1.01.17-.07.23a.44.44 0 0 1-.13.06.05.05 0 0 0-.04.04v.1l.1.08.1.06c.03.04.05.08.06.13 0 .11-.07.2-.2.25a.05.05 0 0 0-.04.04c-.02.06.03.1.13.14h.02v-.02c-.03-.1 0-.18.1-.22.05-.03.11-.02.16.02.06.04.08.1.06.15-.02.1-.09.16-.2.15-.02 0-.03.01-.03.03l.03.16c0 .02.02.03.04.04.17.04.26.14.27.3 0 .03.01.04.03.04.19.02.29.1.29.28 0 .03.02.05.05.05.06 0 .1.01.15.03.03.01.04 0 .03-.03-.02-.06-.02-.1 0-.13.08-.12.17-.14.27-.05.05.05.07.1.04.18-.05.1-.13.13-.25.08-.01 0-.02 0-.01.01l.06.19.02.01.16.03c.02 0 .04 0 .03-.03 0-.08.02-.13.06-.17.08-.05.14-.06.2-.03.07.03.1.1.1.17 0 .08-.04.14-.13.18H10a.3.3 0 0 1-.04 0c-.02 0-.03 0-.05.02a.06.06 0 0 0 0 .06c.05.1.1.14.17.12.02 0 .03-.02.03-.04.02-.15.1-.23.21-.23.07 0 .13.02.18.08.04.06.05.13.02.22 0 .02 0 .03.02.02.03-.02.1-.03.21-.03.02 0 .03-.01.03-.03-.02-.11.02-.19.11-.24.1-.05.17-.04.24.03.05.07.08.15.06.25 0 .02 0 .03.03.02a.3.3 0 0 1 .23.03c.02 0 .03 0 .02-.02-.05-.15-.01-.26.12-.33a.17.17 0 0 1 .1 0h.08c.02 0 .02 0 .02-.02-.06-.16 0-.27.18-.32.03 0 .07.01.13.06.13.11.13.23-.02.35-.04.03-.1.04-.19.01-.02 0-.03 0-.02.03.02.08.03.15 0 .19-.07.13-.18.17-.32.11-.04-.02-.05-.01-.03.02.02.03.03.06.03.1-.01.2-.12.26-.33.22h-.02l-.01.03c.03.1.02.17-.03.23-.07.07-.14.1-.22.09-.08-.02-.13-.08-.16-.19l.01-.11c0-.03 0-.05-.04-.04l-.14.02c-.02 0-.03.01-.02.03a.3.3 0 0 1-.03.17l.01.04c.01.01.02.02.04.01.1-.01.17.03.2.14.01.1-.02.18-.11.22-.07.04-.14 0-.21-.09a.08.08 0 0 1-.02-.04v-.1c0-.03-.01-.05-.04-.04l-.16.02c-.02 0-.04.02-.04.05a.26.26 0 0 1-.17.22c-.06.03-.12.02-.18-.04a.3.3 0 0 1-.1-.17c0-.02 0-.03-.03-.04-.07 0-.13 0-.18.03a.05.05 0 0 0-.03.04c-.03.17-.16.23-.4.18-.1-.08-.2-.07-.29.03-.12-.08-.22-.04-.3.11a.26.26 0 0 0-.2-.23.2.2 0 0 0 .06-.04.05.05 0 0 0 .02-.05.05.05 0 0 0-.03-.04c-.08-.03-.14-.03-.17.01-.02-.12-.08-.2-.18-.21a.1.1 0 0 0-.06 0 .1.1 0 0 1-.07 0c-.02 0-.03-.02-.03-.04.04-.15-.01-.25-.15-.3h-.01l-.1-.02c-.02 0-.03-.01-.03-.04 0-.18-.07-.29-.25-.31-.03 0-.05-.03-.05-.07v-.1c0-.04.01-.05.05-.05.1 0 .16-.05.19-.14.02-.09 0-.16-.1-.22-.05-.04-.11-.04-.18.01-.06.05-.1.1-.1.17 0 .02-.01.04-.04.05a.06.06 0 0 1-.06 0c-.05-.04-.07-.07-.06-.11 0-.02.03-.04.08-.07.1-.05.15-.1.17-.18.02-.07-.01-.15-.1-.21A.27.27 0 0 0 7 11.4c-.03 0-.04-.02-.05-.05l-.03-.2v-.02h.04c.08.01.14-.01.18-.07.04-.05.05-.1.04-.16-.02-.05-.05-.09-.11-.1-.06-.02-.12 0-.17.04-.05.05-.07.1-.05.17 0 .03 0 .05-.04.04-.1-.02-.15-.07-.15-.13 0-.02 0-.04.03-.05l.03-.01.13-.08c.1-.11.08-.22-.04-.33a.35.35 0 0 0-.11-.05.06.06 0 0 1-.04-.03.2.2 0 0 1 0-.15c0-.02.02-.03.04-.04.07-.01.12-.03.14-.05.13-.17.09-.3-.14-.4a.08.08 0 0 1-.05-.04.15.15 0 0 1 0-.1l.04-.04a.7.7 0 0 0 .15-.07c.08-.08.1-.15.07-.24a.42.42 0 0 0-.2-.18.05.05 0 0 1-.04-.05c0-.06.04-.1.12-.11.03-.01.05 0 .05.03 0 .1.03.16.09.2.06.04.13.04.2-.02a.15.15 0 0 0 .07-.1c0-.04 0-.08-.02-.11-.04-.07-.11-.1-.2-.1-.02.01-.03 0-.03-.02v-.17c0-.03.01-.05.04-.05.22-.03.3-.14.24-.34 0-.02 0-.03.03-.03.14.03.23-.02.28-.13.04-.1-.02-.2-.19-.3a.07.07 0 0 1-.03-.05c0-.03 0-.05.03-.06a.1.1 0 0 1 .08-.03c.02 0 .03.02.04.04.02.05.05.1.1.15.06.05.12.07.17.03.1-.06.15-.13.12-.21-.03-.08-.1-.14-.2-.18-.04-.01-.05-.04-.03-.09.04-.06.08-.08.13-.07.02 0 .04.01.04.03.02.07.07.13.14.18.06.05.11.04.17-.02l.05-.05c.05-.07.06-.13 0-.19a.47.47 0 0 0-.16-.12.06.06 0 0 1-.04-.05c0-.03.02-.07.07-.1.05-.02.08-.01.1.04.04.11.1.17.18.19.09.02.16-.03.21-.14.03-.06.01-.11-.04-.17a.47.47 0 0 0-.15-.1.05.05 0 0 1-.03-.04V6.7c.02-.03.05-.04.08-.03l.05.04.02.03c.1.12.17.17.25.14.12-.03.18-.11.18-.24 0-.04.01-.05.05-.05.17.02.28-.06.32-.22 0-.02.02-.04.04-.04a.3.3 0 0 1 .1-.01c.03 0 .04 0 .05.03.01.07.05.12.1.16.06.05.12.05.2.02a.2.2 0 0 0 .11-.2c0-.04.02-.06.05-.06h.2c.03 0 .04.02.03.05-.01.1.02.16.1.19.13.05.22 0 .26-.13a.2.2 0 0 0 .01-.1c0-.01 0-.02.02-.02h.24c.02 0 .03.01.03.03-.01.1.02.19.1.23.07.04.14.04.19 0 .05-.05.08-.1.08-.19 0-.03.02-.05.05-.05h.12c.05 0 .07.02.08.07 0 .09.07.16.17.22h.05c.15-.02.22-.1.23-.23 0-.05.03-.07.07-.07h.07c.05 0 .07.02.07.07 0 .1.05.17.15.22h.04l.15-.02c.02 0 .03 0 .03.03-.03.14 0 .24.12.3Z" fill="#09607B"/><path d="M14.29 6.43a.07.07 0 1 0 0-.15.07.07 0 0 0 0 .15ZM3.73 6.42a.06.06 0 1 0 0-.13.06.06 0 0 0 0 .13Z" fill="#FDFDFB"/><path d="M8.7 6.46c.03.01.06 0 .07-.02 0-.03-.01-.06-.04-.06-.03-.01-.06 0-.07.02 0 .03.01.05.04.06Z" fill="#09607B"/><path d="M4.71 6.87a.2.2 0 1 0 0-.38.2.2 0 0 0 0 .38ZM11.97 6.87a.19.19 0 1 0 0-.37.19.19 0 0 0 0 .37ZM13.3 6.88a.2.2 0 1 0 0-.39.2.2 0 0 0 0 .39ZM9.19 6.63c-.04.09 0 .18.09.21.08.03.17-.01.2-.1a.16.16 0 0 0-.09-.21.16.16 0 0 0-.2.1ZM4.05 6.8a.12.12 0 1 0 0-.24.12.12 0 0 0 0 .25ZM10 6.81a.13.13 0 1 0 0-.26.13.13 0 0 0 0 .26ZM11.32 6.82a.14.14 0 1 0 0-.27.14.14 0 0 0 0 .27ZM13.95 6.8a.12.12 0 1 0 0-.24.12.12 0 0 0 0 .24ZM10.65 6.8a.12.12 0 1 0 0-.24.12.12 0 0 0 0 .24ZM3.39 6.74a.06.06 0 1 0 0-.11.06.06 0 0 0 0 .11ZM14.57 6.66c0-.02.02-.03.04-.04.02 0 .04 0 .05.03.02.02.01.05-.02.07-.01.02-.03.02-.05 0-.02-.01-.03-.04-.02-.06ZM12.9 7.19l-.13-.16a.2.2 0 0 1 .12-.19c.07-.03.13-.03.19.01.1.09.1.17.05.26-.06.09-.13.11-.23.08ZM4.38 7.19a.18.18 0 1 0 0-.36.18.18 0 0 0 0 .36ZM12.3 7.16a.15.15 0 1 0 0-.3.15.15 0 0 0 0 .3ZM13.62 7.2a.17.17 0 1 0 0-.35.17.17 0 0 0 0 .34ZM9.01 7.13a.13.13 0 1 0 0-.25.13.13 0 0 0 0 .25ZM11.64 7.12a.1.1 0 1 0 0-.21.1.1 0 0 0 0 .2ZM9.65 7.1a.08.08 0 1 0 0-.16.08.08 0 0 0 0 .16ZM10.32 7.07a.06.06 0 1 0 0-.12.06.06 0 0 0 0 .12ZM10.99 7.07a.06.06 0 1 0 0-.12.06.06 0 0 0 0 .12ZM13.22 7.5l-.1-.14c0-.08.04-.14.13-.18.06-.03.11-.02.15.04.13.18.07.28-.18.29ZM4.06 7.49a.15.15 0 1 0 0-.3.15.15 0 0 0 0 .3ZM13.96 7.5a.15.15 0 1 0 0-.3.15.15 0 0 0 0 .3ZM12.64 7.47a.12.12 0 1 0 0-.25.12.12 0 0 0 0 .25Z" fill="#FDFDFB"/><path d="M4.95 7.37c.03.03.08.04.1.01.03-.02.03-.07 0-.1-.03-.04-.08-.04-.1-.02-.03.03-.03.07 0 .1Z" fill="#0D0D0D"/><path d="M14.61 7.42a.08.08 0 1 0 0-.16.08.08 0 0 0 0 .16ZM3.4 7.42a.07.07 0 1 0 0-.14.07.07 0 0 0 0 .14ZM11.97 7.42a.07.07 0 1 0 0-.14.07.07 0 0 0 0 .14ZM13.62 7.83a.16.16 0 1 0 0-.33.16.16 0 0 0 0 .33ZM13.03 7.76c.05-.04.06-.11.03-.16-.04-.04-.1-.05-.16 0-.05.03-.06.1-.02.15.04.04.1.05.15 0ZM8.35 7.76a.09.09 0 1 0 0-.18.09.09 0 0 0 0 .18ZM3.06 7.73a.05.05 0 1 0 0-.11.05.05 0 0 0 0 .1ZM14.95 7.73a.05.05 0 1 0 0-.11.05.05 0 0 0 0 .1ZM12.25 7.67c0-.01 0-.02.02-.03h.04c.03 0 .04.03.03.07 0 .03-.03.04-.05.03-.03-.02-.04-.04-.04-.07ZM4.05 8.17a.17.17 0 1 0 0-.34.17.17 0 0 0 0 .34ZM13.96 8.14a.14.14 0 1 0 0-.28.14.14 0 0 0 0 .28ZM13.3 8.1a.1.1 0 1 0 0-.2.1.1 0 0 0 0 .2ZM3.4 8.08a.09.09 0 1 0 0-.18.09.09 0 0 0 0 .18ZM8.01 8.09a.08.08 0 1 0 0-.17.08.08 0 0 0 0 .17Z" fill="#FDFDFB"/><path d="M7.15 8.11c-.02.02-.06.01-.1-.03a.07.07 0 0 1-.02-.05c0-.02 0-.03.02-.05a.06.06 0 0 1 .06 0c.01 0 .03.01.03.03.03.05.03.09.01.1Z" fill="#09607B"/><path d="M3.73 8.47a.14.14 0 1 0 0-.27.14.14 0 0 0 0 .27Z" fill="#FDFDFB"/><path d="M9.65 8.48a.14.14 0 1 0 0-.27.14.14 0 0 0 0 .27ZM10.34 8.48a.13.13 0 1 0 0-.26.13.13 0 0 0 0 .26ZM10.98 8.47a.13.13 0 1 0 0-.25.13.13 0 0 0 0 .25Z" fill="#09607B"/><path d="M13.63 8.46a.12.12 0 1 0 0-.25.12.12 0 0 0 0 .25Z" fill="#FDFDFB"/><path d="M4.6 8.27c0-.02.01-.03.03-.03h.01c.08 0 .11.03.1.08v.02c0 .04-.03.07-.1.07h-.01c-.02 0-.03-.01-.03-.03v-.1ZM12.72 8.34v.03a.05.05 0 0 1-.05.03c-.07 0-.1-.03-.1-.07 0-.04.04-.06.1-.06.02 0 .04.01.05.03v.04Z" fill="#0D0D0D"/><path d="M3.07 8.38c.03 0 .06-.03.05-.05 0-.03-.03-.05-.06-.05s-.05.03-.05.06c0 .02.03.04.06.04ZM12.93 8.38c.03.02.07.01.08-.01.02-.03 0-.06-.02-.08-.03-.02-.07-.01-.08.01-.02.03 0 .06.02.08ZM14.94 8.28h.04l.02.05-.02.04c-.03.03-.05.02-.07 0-.03-.05-.02-.07.03-.09ZM4.05 8.84a.18.18 0 1 0 0-.36.18.18 0 0 0 0 .36ZM13.96 8.8a.14.14 0 1 0 0-.28.14.14 0 0 0 0 .29ZM3.4 8.76a.1.1 0 1 0 0-.2.1.1 0 0 0 0 .2ZM14.6 8.77a.1.1 0 1 0 0-.21.1.1 0 0 0 0 .2Z" fill="#FDFDFB"/><path d="M13.01 8.6h-.06a.04.04 0 0 0-.04.03v.07c0 .03.01.05.04.05h.06c.03 0 .05-.02.05-.04v-.07a.04.04 0 0 0-.05-.05Z" fill="#0D0D0D"/><path d="M11.24 8.64c-.02.04-.01.1.02.11.04.02.08 0 .1-.04.03-.04.01-.1-.02-.1-.04-.03-.08 0-.1.03Z" fill="#09607B"/><path d="M13.3 8.74a.07.07 0 1 0 0-.15.07.07 0 0 0 0 .15Z" fill="#FDFDFB"/><path d="M9.98 8.76a.07.07 0 1 0 0-.14.07.07 0 0 0 0 .14Z" fill="#09607B"/><path d="M12.2 8.68c0 .04.01.09.05.1.04 0 .08-.02.09-.07.01-.04 0-.09-.05-.1-.03 0-.07.02-.08.07Z" fill="#0D0D0D"/><path d="M10.6 8.7c.01.03.04.05.06.03.02 0 .02-.03.01-.06s-.04-.04-.06-.03c-.02.01-.02.04-.01.07Z" fill="#09607B"/><path d="M3.73 9.13a.15.15 0 1 0 0-.29.15.15 0 0 0 0 .3Z" fill="#FDFDFB"/><path d="M9 9.14a.13.13 0 1 0 0-.26.13.13 0 0 0 0 .26Z" fill="#09607B"/><path d="M14.3 9.11a.12.12 0 1 0 0-.23.12.12 0 0 0 0 .23ZM13.62 9.1a.1.1 0 1 0 0-.2.1.1 0 0 0 0 .2Z" fill="#FDFDFB"/><path d="M11.64 9.08a.08.08 0 1 0 0-.16.08.08 0 0 0 0 .16Z" fill="#09607B"/><path d="M12.67 8.93h-.06a.05.05 0 0 0-.05.04v.07c0 .03.01.05.04.05h.06c.03.01.05 0 .05-.04v-.07a.05.05 0 0 0-.04-.05Z" fill="#0D0D0D"/><path d="m4.2 9.22-.05-.05a.14.14 0 0 0-.2 0l-.05.05a.14.14 0 0 0 0 .2l.06.05c.05.05.14.05.2 0l.04-.05a.14.14 0 0 0 0-.2ZM13.96 9.44a.12.12 0 1 0 0-.24.12.12 0 0 0 0 .24ZM7.36 9.41a.1.1 0 1 0 0-.2.1.1 0 0 0 0 .2ZM3.4 9.42a.1.1 0 1 0 0-.19.1.1 0 0 0 0 .2ZM14.61 9.43a.1.1 0 1 0 0-.2.1.1 0 0 0 0 .2Z" fill="#FDFDFB"/><path d="M11.97 9.41a.08.08 0 1 0 0-.16.08.08 0 0 0 0 .16ZM9.3 9.41a.07.07 0 1 0 0-.13.07.07 0 0 0 0 .13Z" fill="#09607B"/><path d="M12.9 9.29h.15c.02 0 .03 0 .04.02v.04c0 .02-.01.03-.03.03l-.16.03c-.02 0-.03 0-.03-.03v-.06c0-.02.01-.03.03-.03Z" fill="#0D0D0D"/><path d="M7.02 9.8a.15.15 0 1 0 0-.3.15.15 0 0 0 0 .3ZM3.73 9.79a.14.14 0 1 0 0-.28.14.14 0 0 0 0 .28Z" fill="#FDFDFB"/><path d="M12.3 9.8a.14.14 0 1 0 0-.26.14.14 0 0 0 0 .27Z" fill="#09607B"/><path d="M13.71 9.62c.02.01.03.03.01.05l-.01.02a.16.16 0 0 1-.08.06l-.07-.01-.01-.01c-.02-.02-.03-.04-.03-.07 0-.03.02-.06.04-.09l.01-.01c.02-.02.04-.03.06 0l.08.06Z" fill="#FDFDFB"/><path d="M4.67 9.74a.08.08 0 1 0 0-.16.08.08 0 0 0 0 .16Z" fill="#0D0D0D"/><path d="M8.93 9.66c-.01.04 0 .09.05.1.04 0 .08-.02.09-.07.01-.04 0-.09-.05-.1-.04 0-.08.02-.09.07Z" fill="#09607B"/><path d="M14.92 9.62h.04c.03 0 .04 0 .04.02 0 .03 0 .05-.02.06 0 .02-.02.02-.04.01a.1.1 0 0 1-.04-.04c-.02-.03-.01-.04.02-.05Z" fill="#FDFDFB"/><path d="M12.62 10.2a.2.2 0 1 0 0-.42.2.2 0 0 0 0 .42Z" fill="#09607B"/><path d="M4.06 10.16a.17.17 0 1 0 0-.35.17.17 0 0 0 0 .35Z" fill="#FDFDFB"/><path d="M13.28 10.21a.2.2 0 1 0 0-.41.2.2 0 0 0 0 .41ZM8.66 10.15a.17.17 0 1 0 0-.34.17.17 0 0 0 0 .34Z" fill="#09607B"/><path d="M13.95 10.1a.11.11 0 1 0 0-.23.11.11 0 0 0 0 .23ZM3.4 10.08a.1.1 0 1 0 0-.18.1.1 0 0 0 0 .18ZM7.36 10.07a.09.09 0 1 0 0-.17.09.09 0 0 0 0 .17Z" fill="#FDFDFB"/><path d="M11.97 10.07a.09.09 0 1 0 0-.17.09.09 0 0 0 0 .17Z" fill="#09607B"/><path d="M14.61 10.06a.08.08 0 1 0 0-.16.08.08 0 0 0 0 .16Z" fill="#FDFDFB"/><path d="M12.76 10.37a.2.2 0 0 0 .25.15.2.2 0 0 0 .14-.25.2.2 0 0 0-.24-.15.2.2 0 0 0-.15.25Z" fill="#09607B"/><path d="M7.02 10.46a.15.15 0 1 0 0-.3.15.15 0 0 0 0 .3ZM3.72 10.43a.12.12 0 1 0 0-.24.12.12 0 0 0 0 .24Z" fill="#FDFDFB"/><path d="M12.3 10.46a.13.13 0 1 0 0-.26.13.13 0 0 0 0 .26Z" fill="#09607B"/><path d="M13.62 10.42a.1.1 0 1 0 0-.19.1.1 0 0 0 0 .19ZM14.28 10.39a.07.07 0 1 0 0-.15.07.07 0 0 0 0 .15Z" fill="#FDFDFB"/><path d="M9 10.42a.08.08 0 1 0 0-.17.08.08 0 0 0 0 .17Z" fill="#09607B"/><path d="M3.05 10.37a.05.05 0 1 0 0-.1.05.05 0 0 0 0 .1Z" fill="#FDFDFB"/><path d="M11.63 10.38a.06.06 0 1 0 0-.11.06.06 0 0 0 0 .11Z" fill="#09607B"/><path d="M14.93 10.37c.03 0 .05-.02.06-.05a.05.05 0 0 0-.05-.05.05.05 0 0 0-.06.05c0 .03.02.05.05.05Z" fill="#FDFDFB"/><path d="M12.62 10.87a.2.2 0 1 0 0-.41.2.2 0 0 0 0 .4ZM13.29 10.85a.2.2 0 1 0 0-.4.2.2 0 0 0 0 .4Z" fill="#09607B"/><path d="M4.06 10.8a.15.15 0 1 0 0-.3.15.15 0 0 0 0 .3ZM3.4 10.72a.07.07 0 1 0 0-.14.07.07 0 0 0 0 .14ZM14.62 10.7a.06.06 0 1 0 0-.13.06.06 0 0 0 0 .13Z" fill="#FDFDFB"/><path d="M5 10.73a.07.07 0 1 0 0-.14.07.07 0 0 0 0 .14Z" fill="#0D0D0D"/><path d="M9.19 10.7c.02.03.06.04.09.01.03-.02.03-.06 0-.1-.02-.02-.06-.03-.09-.01-.02.02-.03.06 0 .1ZM11.95 10.75c.05 0 .1-.02.1-.07.01-.04-.02-.08-.07-.1-.05 0-.1.03-.1.07-.01.05.02.1.07.1ZM12.75 10.95a.2.2 0 0 0 .16.25.2.2 0 0 0 .24-.17.2.2 0 0 0-.16-.25.2.2 0 0 0-.24.17Z" fill="#09607B"/><path d="M4.38 11.15a.17.17 0 1 0 0-.35.17.17 0 0 0 0 .35Z" fill="#FDFDFB"/><path d="M12.3 11.17a.17.17 0 1 0 0-.34.17.17 0 0 0 0 .34ZM8.99 11.11a.12.12 0 1 0 0-.25.12.12 0 0 0 0 .25Z" fill="#09607B"/><path d="M3.72 11.07a.1.1 0 1 0 0-.19.1.1 0 0 0 0 .19ZM13.63 11.07a.09.09 0 1 0 0-.18.09.09 0 0 0 0 .18Z" fill="#FDFDFB"/><path d="M11.64 11.07a.09.09 0 1 0 0-.17.09.09 0 0 0 0 .17Z" fill="#09607B"/><path d="M14.28 11.04a.06.06 0 1 0 0-.13.06.06 0 0 0 0 .13Z" fill="#FDFDFB"/><path d="M12.63 11.53a.2.2 0 1 0 0-.4.2.2 0 0 0 0 .4ZM9.18 11.23c-.03.06-.02.14.04.17.06.04.13.02.17-.04.03-.06.02-.14-.04-.17-.06-.04-.13-.01-.17.04Z" fill="#09607B"/><path d="M4.06 11.42a.12.12 0 1 0 0-.24.12.12 0 0 0 0 .24ZM13.38 11.29c.01.05 0 .08-.05.1a.09.09 0 0 1-.1-.04c-.03-.03-.02-.07 0-.11a.1.1 0 0 1 .1-.02c.02.01.04.03.05.07ZM13.95 11.39a.09.09 0 1 0 0-.18.09.09 0 0 0 0 .18Z" fill="#FDFDFB"/><path d="M13.23 11.24c-.02.04-.03.08 0 .1.02.04.05.06.1.05.04-.02.06-.05.05-.1.03.04.03.08.02.1a.12.12 0 0 1-.07.08.12.12 0 0 1-.1-.01c-.07-.04-.08-.1-.06-.17.02-.05.04-.07.06-.05Z" fill="#09607B"/><path d="M3.39 11.34a.05.05 0 1 0 0-.1.05.05 0 0 0 0 .1Z" fill="#FDFDFB"/><path d="M11.3 11.41a.09.09 0 1 0 0-.17.09.09 0 0 0 0 .17ZM9.97 11.38a.07.07 0 1 0 0-.13.07.07 0 0 0 0 .13Z" fill="#09607B"/><path d="M14.63 11.35c.03-.02.03-.06.02-.08-.02-.02-.06-.02-.08 0-.03.02-.03.05-.01.08.01.02.05.02.07 0Z" fill="#FDFDFB"/><path d="M12.12 11.6a.2.2 0 0 0 .14.25.2.2 0 0 0 .23-.15.2.2 0 0 0-.13-.25.2.2 0 0 0-.24.15ZM12.97 11.82a.17.17 0 1 0 0-.35.17.17 0 0 0 0 .35Z" fill="#09607B"/><path d="M4.39 11.77a.14.14 0 1 0 0-.28.14.14 0 0 0 0 .28Z" fill="#FDFDFB"/><path d="M11.64 11.83a.17.17 0 1 0 0-.34.17.17 0 0 0 0 .34Z" fill="#09607B"/><path d="M7.68 11.73a.1.1 0 1 0 0-.2.1.1 0 0 0 0 .2Z" fill="#FDFDFB"/><path d="M10.98 11.78a.13.13 0 1 0 0-.26.13.13 0 0 0 0 .26ZM6.81 11.6v.02a.12.12 0 0 1-.06.03c-.02 0-.03 0-.04-.02v-.04c0-.02.01-.03.03-.04l.05.01.02.03Z" fill="#09607B"/><path d="M3.73 11.69a.06.06 0 1 0 0-.12.06.06 0 0 0 0 .12ZM14.24 11.68c.02.02.05.02.07 0 .02-.02.02-.06 0-.08-.03-.02-.07-.02-.08 0-.02.02-.02.06 0 .08Z" fill="#FDFDFB"/><path d="M11.32 12.17a.18.18 0 1 0 0-.37.18.18 0 0 0 0 .37ZM10.66 12.15a.17.17 0 1 0 0-.34.17.17 0 0 0 0 .34ZM12.62 12.17a.18.18 0 1 0 0-.36.18.18 0 0 0 0 .36Z" fill="#09607B"/><path d="M8.02 12.04a.08.08 0 1 0 0-.17.08.08 0 0 0 0 .17ZM4.06 12.03c.05 0 .09-.03.09-.07 0-.04-.04-.07-.09-.07-.05 0-.09.03-.09.07 0 .04.04.07.09.07ZM13.3 12.07a.09.09 0 1 0 0-.18.09.09 0 0 0 0 .18ZM7.7 12.46a.17.17 0 1 0-.01-.35.17.17 0 0 0 0 .35ZM5.04 12.45a.16.16 0 1 0 0-.32.16.16 0 0 0 0 .32Z" fill="#FDFDFB"/><path d="M12.3 12.5a.18.18 0 1 0 0-.37.18.18 0 0 0 0 .36Z" fill="#09607B"/><path d="M4.38 12.38a.09.09 0 1 0 0-.18.09.09 0 0 0 0 .18ZM8.34 12.37a.08.08 0 1 0 0-.17.08.08 0 0 0 0 .17ZM12.97 12.4a.1.1 0 1 0 0-.19.1.1 0 0 0 0 .19ZM3.73 12.34a.04.04 0 1 0 0-.09.04.04 0 0 0 0 .1ZM13.61 12.37a.06.06 0 1 0 0-.12.06.06 0 0 0 0 .12ZM14.27 12.34a.04.04 0 1 0 0-.08.04.04 0 0 0 0 .08ZM8.02 12.78a.17.17 0 1 0 0-.34.17.17 0 0 0 0 .34ZM5.38 12.78a.16.16 0 1 0 0-.32.16.16 0 0 0 0 .32Z" fill="#FDFDFB"/><path d="m10.42 12.5.02-.01c.03-.03.04-.02.02.01a.28.28 0 0 0-.02.18c0 .02 0 .03-.02.03h-.1c-.02 0-.04-.01-.04-.04l-.02-.13c0-.02 0-.03.03-.03h.13Z" fill="#0D0D0D"/><path d="M11.98 12.84a.18.18 0 1 0 0-.36.18.18 0 0 0 0 .36Z" fill="#09607B"/><path d="m10.92 12.75-.01-.01v-.12c0-.07.03-.11.07-.11h.08c.04 0 .06.04.06.12v.11l-.02.02-.18-.01Z" fill="#0D0D0D"/><path d="M4.72 12.72a.1.1 0 1 0 0-.2.1.1 0 0 0 0 .2ZM12.67 12.55h-.05a.06.06 0 0 0-.07.04v.03c-.02.03 0 .06.04.07h.05c.03.01.06 0 .07-.04v-.03a.06.06 0 0 0-.04-.07Z" fill="#FDFDFB"/><path d="M7.03 12.72a.08.08 0 1 0 0-.16.08.08 0 0 0 0 .16ZM9.72 12.66c.04-.01.06-.05.05-.08-.01-.03-.05-.03-.1-.02-.03.02-.05.06-.04.08.01.03.05.04.1.02Z" fill="#0D0D0D"/><path d="M13.28 12.7a.06.06 0 1 0 0-.13.06.06 0 0 0 0 .12ZM5.7 13.1a.16.16 0 1 0 0-.3.16.16 0 0 0 0 .3ZM8.35 13.1a.16.16 0 1 0 0-.31.16.16 0 0 0 0 .3Z" fill="#FDFDFB"/><path d="M11.81 12.98c0 .05-.02.09-.05.12a.16.16 0 0 1-.12.05.16.16 0 0 1-.12-.05.16.16 0 0 1-.05-.12c0-.04.02-.08.05-.12a.16.16 0 0 1 .12-.04c.05 0 .09.01.12.04.03.04.05.08.05.12Z" fill="#09607B"/><path d="M5.05 13.05a.1.1 0 1 0 0-.2.1.1 0 0 0 0 .2ZM9 13.05a.1.1 0 1 0 0-.2.1.1 0 0 0 0 .2Z" fill="#FDFDFB"/><path d="M7.4 12.87h-.08a.06.06 0 0 0-.06.07V13c.01.04.04.06.07.06h.08c.03 0 .06-.04.06-.07v-.07a.06.06 0 0 0-.07-.06ZM10.09 12.87c.02 0 .02.01.02.03v.01c0 .1-.03.14-.08.14-.06 0-.08-.05-.07-.15v-.01c0-.02.01-.03.03-.03l.1.01Z" fill="#0D0D0D"/><path d="M9.65 13.05a.09.09 0 1 0 0-.17.09.09 0 0 0 0 .17ZM11.62 13.04c.05.01.1-.01.1-.06.01-.04-.02-.08-.07-.08-.05-.01-.1.01-.1.05s.02.08.07.1ZM12.29 13.04a.08.08 0 1 0 0-.15.08.08 0 0 0 0 .15ZM12.94 13.02c.04 0 .07-.01.08-.04 0-.03-.02-.07-.05-.07-.04-.01-.07 0-.08.04 0 .03.02.06.05.07ZM6.04 13.43a.15.15 0 1 0 0-.3.15.15 0 0 0 0 .3ZM8.67 13.44a.15.15 0 1 0 0-.3.15.15 0 0 0 0 .3ZM9.33 13.4a.13.13 0 1 0 0-.24.13.13 0 0 0 0 .25ZM11.31 13.38a.1.1 0 1 0 0-.2.1.1 0 0 0 0 .2ZM12.04 13.33c0 .02 0 .03-.03.03h-.05c-.05 0-.08-.02-.08-.07v-.01c0-.05.03-.08.08-.08H12c.02 0 .03.01.03.03v.1ZM12.63 13.36a.06.06 0 1 0 0-.13.06.06 0 0 0 0 .13ZM13.27 13.24l.04.01c.01.02.02.04.01.06 0 .02-.02.03-.04.03a.04.04 0 0 1-.04-.03c0-.02 0-.05.03-.07ZM7.69 13.81a.2.2 0 1 0 0-.4.2.2 0 0 0 0 .4ZM8.34 13.4c.12.04.2.12.2.24-.06.16-.16.2-.28.15a.18.18 0 0 1-.11-.14.18.18 0 0 1 .04-.16.28.28 0 0 1 .15-.08ZM7.03 13.79a.18.18 0 1 0 0-.35.18.18 0 0 0 0 .35ZM9.14 13.5c.05.07.05.14 0 .2-.04.07-.1.1-.17.06-.12-.04-.15-.12-.12-.23.1-.1.19-.11.29-.03ZM6.36 13.75a.14.14 0 1 0 0-.28.14.14 0 0 0 0 .28ZM9.66 13.73c.08 0 .14-.04.14-.1 0-.07-.05-.13-.13-.13-.07 0-.13.04-.13.11s.05.12.12.12ZM10.33 13.73a.11.11 0 1 0 0-.23.11.11 0 0 0 0 .23ZM11.09 13.67c-.14.06-.21.03-.22-.1.03-.06.08-.08.14-.06.06.03.1.08.08.16ZM5.7 13.7a.09.09 0 1 0 0-.18.09.09 0 0 0 0 .18ZM12.29 13.68a.06.06 0 1 0 0-.13.06.06 0 0 0 0 .13Z" fill="#FDFDFB"/><path d="M10.87 13.58c0 .12.08.15.22.1 0 .03-.03.06-.06.09a.1.1 0 0 1-.09.01.11.11 0 0 1-.07-.06.15.15 0 0 1 0-.14Z" fill="#09607B"/><path d="M8.67 14.12a.18.18 0 1 0 0-.36.18.18 0 0 0 0 .36ZM8.02 14.11a.17.17 0 1 0 0-.34.17.17 0 0 0 0 .34ZM10 14.07a.13.13 0 1 0 0-.26.13.13 0 0 0 0 .26ZM6.7 14.06a.12.12 0 1 0 0-.24.12.12 0 0 0 0 .24ZM10.65 14.05a.1.1 0 1 0 0-.21.1.1 0 0 0 0 .2ZM6.04 14.02a.08.08 0 1 0 0-.16.08.08 0 0 0 0 .16ZM11.31 14.03a.09.09 0 1 0 0-.17.09.09 0 0 0 0 .17ZM11.97 14.01a.06.06 0 1 0 0-.13.06.06 0 0 0 0 .13ZM8.34 14.4a.14.14 0 1 0 0-.26.14.14 0 0 0 0 .27ZM9 14.41a.14.14 0 1 0 0-.28.14.14 0 0 0 0 .28ZM9.66 14.4a.14.14 0 1 0 0-.27.14.14 0 0 0 0 .28ZM7.7 14.4a.12.12 0 1 0 0-.25.12.12 0 0 0 0 .24ZM10.32 14.38a.12.12 0 1 0 0-.23.12.12 0 0 0 0 .23ZM10.98 14.36a.1.1 0 1 0 0-.19.1.1 0 0 0 0 .19ZM6.36 14.33a.06.06 0 1 0 0-.12.06.06 0 0 0 0 .12ZM11.58 14.24a.05.05 0 0 1 .05-.02c.05 0 .07.04.05.09 0 .03-.03.04-.05.03-.07-.03-.08-.06-.05-.1ZM5.68 14.24h.04c.02 0 .03.02.02.04 0 .01 0 .02-.02.03H5.7a.06.06 0 0 1-.02-.04l.01-.03ZM12.28 14.32a.09.09 0 0 1-.03-.04c0-.01 0-.03.02-.04h.02c.02 0 .03 0 .04.02 0 .03 0 .05-.02.06h-.03ZM8.67 14.7a.1.1 0 1 0 0-.2.1.1 0 0 0 0 .2ZM9.3 14.68c.04.02.1 0 .12-.04.02-.05 0-.1-.05-.13-.05-.02-.1 0-.13.05-.02.04 0 .1.06.12ZM7.36 14.67a.07.07 0 1 0 0-.14.07.07 0 0 0 0 .14ZM8 14.69a.1.1 0 1 0 0-.18.1.1 0 0 0 0 .18ZM10 14.69a.09.09 0 1 0 0-.18.09.09 0 0 0 0 .18ZM10.6 14.63c0 .03.05.05.08.04.03-.02.05-.06.03-.1-.01-.03-.05-.05-.09-.04-.03.02-.04.06-.03.1ZM6.7 14.67a.05.05 0 1 0 0-.11.05.05 0 0 0 0 .1ZM11.31 14.55c.02 0 .03.02.04.03v.05l-.07.03c-.02 0-.03 0-.03-.03v-.05l.06-.03ZM8.35 14.98a.06.06 0 1 0 0-.1.06.06 0 0 0 0 .1ZM7.65 14.9c-.03.02-.03.05-.01.07.02.02.05.01.07 0 .02-.03.02-.06 0-.08h-.06ZM8.99 15a.06.06 0 1 0 0-.12.06.06 0 0 0 0 .11ZM9.65 15a.05.05 0 1 0 0-.12.05.05 0 0 0 0 .11ZM10.27 14.93c0-.02.01-.03.03-.03l.04.01v.04c0 .01 0 .02-.02.03-.02.02-.03.01-.04-.01a.1.1 0 0 1 0-.04Z" fill="#FDFDFB"/><defs><linearGradient id="a" x1="3.35" y1="3.12" x2="21.9" y2="24.43" gradientUnits="userSpaceOnUse"><stop stop-color="#1A1E21"/><stop offset="1" stop-color="#06060A"/></linearGradient></defs></svg>