<!-- by TradingView --><svg width="18" height="18" viewBox="0 0 18 18" xmlns="http://www.w3.org/2000/svg"><path fill="url(#ajjsovnjs)" d="M0 0h18v18H0z"/><path fill-rule="evenodd" d="M8 6H5v8h3a4 4 0 0 0 0-8Zm0 1H6v6h2a3 3 0 0 0 0-6Z" fill="#fff"/><path d="m11.8 11.28-1 .3c0 .03-.12.04-.27.03a3 3 0 0 1-.21.3l.78.62a4 4 0 0 0 .7-1.25Z" fill="#B2B2B2"/><path fill-rule="evenodd" d="M10 4H7v8h3a4 4 0 0 0 0-8Zm0 1H8v6h2a3 3 0 1 0 0-6Z" fill="#fff"/><path d="M8 8.03 7 7h1v1.03Z" fill="#B2B2B2"/><defs><linearGradient id="ajjsovnjs" x1="2.73" y1="3.21" x2="14.95" y2="14.63" gradientUnits="userSpaceOnUse"><stop stop-color="#422C81"/><stop offset="1" stop-color="#7B368A"/></linearGradient></defs></svg>