<!-- by TradingView --><svg width="18" height="18" viewBox="0 0 18 18" xmlns="http://www.w3.org/2000/svg"><path fill="#F0F3FA" d="M0 0h18v18H0z"/><path d="M4.5 13.67h.03c.15-.24.24-.48.29-.71a23 23 0 0 1 .4-1.37c0-.03 0-.04-.02-.05-.1-.03-.18-.07-.26-.13-1.25-.9-.64-2.22-.12-3.26.01-.03 0-.05-.01-.07a.9.9 0 0 1-.26-.47c-.03-.1-.13-.14-.2-.2A.99.99 0 0 1 4 6.77c-.03-.23.21-.41.2-.65 0-.26-.13-.46 0-.7.08-.19.23-.37.4-.52a.96.96 0 0 0 .27-.49c.04-.15.16-.27.29-.37.27-.22.43-.37.48-.44a29.57 29.57 0 0 1 .46-.59.15.15 0 0 1 .14.02l.04.05c.09.24.17.5.3.71.15.27.4.54.3.85 0 .03.01.03.04.02a.63.63 0 0 1 .5.03c.08.04.17.07.26.05.4-.08.81-.04 1.13.15.02.02.04.01.05 0 .25-.22.68-.28 1-.24.1 0 .22.05.38.12h.03l.03-.01c.2-.24.7-.27.96-.14.03.01.04 0 .03-.02a.51.51 0 0 1 .02-.29l.25-.59a.95.95 0 0 0 .08-.25c.02-.12.05-.43.23-.45.07-.01.13 0 .18.04.08.08.12.14.14.17.24.4.57.75.93 1.08.37.35.61.69.73 1.02.1.26.08.57-.05.9v.05l.1.21c.2.4.08.75-.19 1.07a.78.78 0 0 0-.16.29.5.5 0 0 1-.13.25v.05c.36.67.45 1.46.43 2.22 0 .28-.17.55-.35.77-.16.2-.36.34-.6.43-.03 0-.04.02-.04.04 0 .17-.03.33-.01.5.02.32.06.6.12.87.06.26.17.52.26.78v.02h.02a.04.04 0 0 0 .03 0c-4.86 2.44-8.94-.22-8.78-.11Z" fill="#040405"/><path d="M6.2 3.45c-.06.04-.09.1-.06.2 0 .04.03.1.08.17.15.25.23.52.22.8 0 .02 0 .03.02.03l.03.01c.02 0 .04 0 .06-.04.05-.1.09-.2.1-.33.15.22.08.36-.06.53-.02.04-.02.07 0 .11h.01a.04.04 0 0 0 .03.01h.02l.08-.07a.1.1 0 0 1 .05-.02c.2-.03.4-.02.56.03.02 0 .03.02.01.04a.14.14 0 0 0 0 .16v.02h.06c.21-.18.45-.24.72-.2.17.1.34.17.5.24.04.02.1.05.15.11.01.01.03.02.04 0 .07-.02.17-.08.3-.17.14-.09.36-.15.68-.2a1 1 0 0 1 .38.1 1.23 1.23 0 0 0 .43.08l.01-.02v-.02a.28.28 0 0 0-.1-.1V4.9a.03.03 0 0 1 0-.03h.01c.22-.12.5-.1.76-.05.08.02.12.12.16.17l.02.02a.06.06 0 0 0 .04 0h.03c.03-.03.04-.07.02-.11a1.2 1.2 0 0 1-.09-.33l.2-.26.18-.26c.12-.16.2-.34.23-.55l.28.38-.2.05c-.12.03-.21.11-.23.22-.03.23-.02.5.03.8.03.2.12.39.26.57.02.03.01.04-.02.01a.86.86 0 0 0-.5-.17 25.92 25.92 0 0 1 .84.81c.12.11.25.2.34.31.05.06.07.05.06-.02a.8.8 0 0 0-.06-.24h.01l.46.59c.02.02.05.02.07 0a.14.14 0 0 0 .07-.07l.12-.3c.2.33.16.64-.13.9-.02.02-.03.02-.03 0a.75.75 0 0 0-.3-.53.13.13 0 0 0-.11-.03.1.1 0 0 0-.05.03.1.1 0 0 0-.02.04.1.1 0 0 0 0 .04c0 .02 0 .04.02.05.05.07.1.13.13.2.09.17.07.4.06.58v.01h-.02a.42.42 0 0 0-.12-.07.05.05 0 0 0-.05 0l-.01.02-.01.02c0 .07.02.15.05.23l.15.34c.01.18.05.36.12.53-.05 0-.08 0-.1.04a1.48 1.48 0 0 1-1.01 1.01h-.02v-.01l-.01-.02a.47.47 0 0 1 .03-.25c.12-.3.23-.58.33-.89.04-.14.1-.28.16-.42.1-.21.15-.44.15-.67 0-.12.04-.21.07-.32a1.04 1.04 0 0 0-.04-.7h-.01a.05.05 0 0 0-.03.04c0 .23-.1.45-.28.64-.02.02-.03.02-.03 0a.66.66 0 0 0-.16-.5c-.03-.03-.05-.02-.04.02.02.23.02.47.01.71 0 .02-.01.02-.03.02a.69.69 0 0 0-.18-.22.08.08 0 0 1-.03-.04c0-.01 0-.03.02-.04h.01v-.04c-.2-.18-.44-.2-.72-.2-.06 0-.07-.02-.02-.06l.16-.08c.07-.03.07-.04 0-.05a.94.94 0 0 0-.67.16l-.33.07a.49.49 0 0 1-.24 0 .4.4 0 0 1-.2-.1.73.73 0 0 1-.15-.2.3.3 0 0 0 .08-.06c.24-.24.65-.25 1-.2.02 0 .03 0 0-.02a.7.7 0 0 0-.74-.12c-.02-.03-.05-.05-.08-.05l-.14.03c0-.06.03-.1.07-.12.12-.04.11-.07 0-.1a1.25 1.25 0 0 0-.42.02c-.24.02-.4.1-.5.2-.08.11-.14.18-.17.2-.05.06-.1.04-.15-.04l-.08-.11c-.02-.04-.04-.06-.07-.07l-.3-.09a1.08 1.08 0 0 0-.44-.07.02.02 0 0 0 0 .04c.03.04.03.07 0 .07-.08-.04-.18-.04-.28 0a.67.67 0 0 0-.6.24c-.04.03-.03.05.02.04.3-.06.57-.16.79.1l.22.24c-.03.06-.1.1-.2.11-.32.04-.61-.01-.88-.15a1.62 1.62 0 0 1-.08-.17c-.02-.05-.06-.09-.12-.08-.02 0-.03.02-.03.04l.01.1c-.1-.02-.21-.02-.31-.02a.75.75 0 0 0-.3.06c-.22.1-.43.24-.61.4-.06.04-.07.03-.04-.03.13-.23.25-.48.36-.73.02-.05.05-.1.1-.13.05-.07.04-.08-.04-.03-.14.08-.25.2-.37.32-.26.26-.43.54-.53.85-.02.06-.03.06-.03 0 0-.15.02-.29.05-.43 0-.04 0-.05-.03 0a1 1 0 0 0-.19.65c0 .07.04.1.1.1a.53.53 0 0 1-.1.2h-.02c-.1-.34-.13-.69.11-.97.05-.05.06-.13 0-.16-.08-.04-.19.04-.23.09a.79.79 0 0 0-.2.4c-.02.04-.04.04-.07 0-.13-.17-.24-.42-.16-.63.03.09.03.24.09.3.02.02.03.02.05 0 .07-.1.12-.22.18-.33.1-.23.31-.4.5-.57L5.18 6a.05.05 0 0 1 .04 0l.01.01v.04l-.04.25c-.02.07 0 .07.03 0a11.29 11.29 0 0 1 .56-.66c.12-.12.26-.21.41-.31.03-.03.03-.03-.01-.02a1 1 0 0 0-.29.11c-.04.03-.06.02-.05-.02.04-.2.11-.39.2-.57.14-.25.05-.52 0-.78a.6.6 0 0 0-.18-.28l.27-.45h.04c.03.05.04.1.04.12Z" fill="#72A1ED"/><path d="M12.07 3.5c-.03.2-.1.39-.22.55a12.07 12.07 0 0 0-.38.52c.09-.23.18-.45.28-.66.05-.1.08-.2.1-.28a1.78 1.78 0 0 1 .08-.31h.05l.1.18ZM6.2 3.45l.14.32.3.52a.82.82 0 0 1-.1.33c0 .03-.03.04-.05.04h-.03l-.02-.03c0-.29-.07-.56-.22-.81a.68.68 0 0 1-.08-.17c-.03-.1 0-.16.06-.2Z" fill="#fff"/><path d="M5.85 3.78c.1.1.15.2.18.28.05.26.14.53 0 .78-.09.18-.16.37-.2.57-.01.04 0 .05.05.02a1 1 0 0 1 .29-.11c.04-.01.04 0 0 .02-.14.1-.28.19-.4.31a11.29 11.29 0 0 0-.56.67c-.04.06-.05.06-.03-.01a26.94 26.94 0 0 1 .04-.29h-.01A.05.05 0 0 0 5.17 6h-.01c-.2.18-.4.35-.51.58l-.18.33c-.02.02-.03.02-.05 0-.06-.06-.06-.21-.09-.3.15-.17.2-.36.13-.56.13-.12.26-.27.38-.45a.51.51 0 0 1 .13-.12.05.05 0 0 1 .05 0l.06.03.02.01a.05.05 0 0 0 .04 0l.01-.02L5.5 5a.03.03 0 0 0 0-.04h-.04l-.2.05h-.02l-.03-.02v-.05c.14-.2.3-.4.46-.56.02-.02.01-.03 0-.04a.15.15 0 0 0-.13 0c-.09.05-.16.06-.2.03.18-.14.29-.27.34-.4.03-.07.1-.13.18-.18ZM12.36 3.88c.03.05.07.1.13.15-.02.02-.01.06.03.13-.15.05-.2.1-.18.17.08.21.16.44.23.69.02.05 0 .06-.05.03a2.28 2.28 0 0 0-.1-.07c-.02-.01-.04 0-.06.01l-.01.02v.03c.1.31.37.63.57.9 0 .02.01.02.03.02h.02l.02-.02.06-.3c0-.1.05-.11.1-.02.1.14.2.27.34.41.01.05.03.07.05.05v.22c0 .06.02.1.07.13l-.12.31a.14.14 0 0 1-.07.08c-.02.01-.05 0-.07-.01a5.43 5.43 0 0 1-.47-.6v.01a.8.8 0 0 1 .06.24c0 .07-.01.08-.06.02-.1-.12-.22-.2-.33-.3l-.85-.8c-.02 0-.02-.02 0-.02.15 0 .32.05.5.17.03.03.04.02.02 0a1.35 1.35 0 0 1-.26-.59c-.05-.3-.06-.56-.03-.79.02-.1.1-.2.24-.22l.2-.05Z" fill="#0D0E49"/><path d="M5.67 3.95c-.05.14-.16.27-.34.41a.25.25 0 0 0-.04.07c-.03.08.02.15-.05.22a.8.8 0 0 0-.2.37c0 .02 0 .03-.02.05-.13.09-.26.19-.37.3-.09.08-.16.2-.23.32 0-.07.01-.14.05-.2.1-.15.22-.3.36-.43a1 1 0 0 0 .28-.5.64.64 0 0 1 .25-.35l.31-.26ZM12.5 4.03c.1.12.2.25.3.35.31.3.62.61.79.97.1.24.02.5-.05.73-.02.02-.04 0-.05-.05.07-.2-.04-.33-.08-.48a1.81 1.81 0 0 0-.36-.75c-.06-.07-.08-.06-.06.02l.03.12v.03l-.02.02a.07.07 0 0 1-.07 0 .2.2 0 0 1-.08-.09 50.8 50.8 0 0 1-.33-.74c-.04-.07-.05-.11-.03-.13Z" fill="#fff"/><path d="m12.52 4.16.33.74a.2.2 0 0 0 .08.09.07.07 0 0 0 .07 0l.02-.02v-.03L13 4.82c-.02-.08 0-.09.06-.02.19.2.29.5.36.75.04.15.15.29.08.48a2.98 2.98 0 0 1-.33-.4c-.06-.1-.1-.1-.11.02 0 .08-.03.18-.06.29l-.02.02h-.02l-.03-.01c-.2-.28-.47-.6-.57-.92v-.02l.01-.02c.02-.02.04-.02.06 0 .04.01.07.03.1.06.05.03.07.02.05-.03a9.94 9.94 0 0 0-.23-.69c-.03-.06.03-.12.18-.17ZM4.46 6.06c-.05-.16-.07-.28-.04-.37.07-.13.14-.24.23-.32.11-.11.24-.21.37-.3a.07.07 0 0 0 .03-.05.8.8 0 0 1 .2-.37c.06-.07.01-.14.04-.22a.25.25 0 0 1 .04-.07c.04.03.11.02.2-.03a.15.15 0 0 1 .12 0c.02.01.03.02.01.04-.17.17-.32.36-.46.56v.05l.03.02h.02l.2-.06h.02l.02.01V5l-.34.52-.01.02a.05.05 0 0 1-.04 0h-.02a.21.21 0 0 0-.06-.04h-.05a.51.51 0 0 0-.13.12 2.8 2.8 0 0 1-.38.45Z" fill="#5A5FEC"/><path d="M9.8 4.89c-.32.04-.54.1-.68.19-.13.09-.23.15-.3.18h-.04a.56.56 0 0 0-.15-.12 8.76 8.76 0 0 1-.5-.23c.3.02.53.1.7.26a.1.1 0 0 0 .03.02.1.1 0 0 0 .08-.01l.03-.03c.08-.1.2-.18.34-.24.1-.04.26-.05.49-.02Z" fill="#fff"/><path d="M8.9 5.58a.02.02 0 0 0 .02 0c.22-.38.89-.5 1.3-.47.38.02.78.25 1 .5.01.03 0 .03-.01.02a1.99 1.99 0 0 0-1.8-.18.92.92 0 0 0-.35.27.13.13 0 0 1-.04.03.15.15 0 0 1-.16-.02c-.08-.09-.16-.18-.28-.24a1.9 1.9 0 0 0-1.21-.16 5.05 5.05 0 0 0-.74.17c.22-.15.46-.26.7-.33.17-.05.37-.07.6-.04.42.04.75.2.97.45Z" fill="#fff"/><path d="M10.05 6.28c-.2.1-.34.24-.41.43l-.23.15h-.02v-.01a.94.94 0 0 1 .04-.43.52.52 0 0 1 .1-.18l.17-.16c.14-.03.28-.03.41-.01.12.02.13.05.01.09-.04.02-.07.06-.07.12Z" fill="#3A52B5"/><path d="M9.7 6.08a2.9 2.9 0 0 0-.16.16.52.52 0 0 0-.11.18.94.94 0 0 0-.04.44.02.02 0 0 0 .02 0l.23-.15v.14a.6.6 0 0 0 .12.4c.2.23.45.3.77.2.08-.01.19-.07.33-.15h.04v.03a.3.3 0 0 0-.13.24v.03l.02.01a.06.06 0 0 0 .06 0h.04c-.03.1 0 .2.06.27l.16.22c.03.1.1.16.2.18l.37.02c.27 0 .5-.11.69-.25.06-.04.08-.03.05.04-.06.13-.22.28-.33.4a.97.97 0 0 0-.26.66v.14c0 .05-.02.05-.05 0a1.57 1.57 0 0 1-.15-.4c0-.06-.05-.08-.12-.07l-.03.01-.01.03-.06.3c-.02.08-.04.08-.07 0a2.55 2.55 0 0 0-.28-.6c-.05-.07-.13-.13-.18-.22-.11-.2-.35-.37-.53-.52a2.62 2.62 0 0 0-.82-.28 3.17 3.17 0 0 0-1.83.3c-.08.04-.07.1.02.17.01.03-.01.06-.06.08a.85.85 0 0 0-.22.12l-.36.3-.2.29h-.02c-.02-.01-.02-.02-.01-.04.05-.07.1-.15.13-.23.03-.07.01-.09-.06-.05-.23.13-.35.37-.4.6-.01.03-.02.03-.03 0-.05-.14-.09-.34-.18-.44-.2-.24-.4-.49-.55-.76-.04-.06-.04-.09.01-.09l.18.25c.02.03.06.06.14.11.22.1.49.1.78.02.23-.07.4-.2.5-.4a.14.14 0 0 0 .01-.13.07.07 0 0 0-.05-.04c-.03-.01-.05 0-.08.02V7.42l.02-.02h.04c.21.07.38.1.6.05a.6.6 0 0 0 .48-.39c.03-.1 0-.21.01-.32l.31.19h.04V6.9c.02-.21-.09-.53-.3-.65-.1-.06-.11-.09-.03-.09l.31.09c.03 0 .05.03.07.07l-.05-.03c-.03-.02-.04-.01-.05.01 0 .02 0 .03-.02.05v.05c.13.22.28.35.27.64 0 .04.03.06.07.06l.08-.01c.05 0 .07-.03.08-.06.03-.13.05-.25.04-.37 0-.1.04-.19.1-.26a.05.05 0 0 0 .02-.06c-.02-.04-.05-.05-.09-.03a.26.26 0 0 0-.07.05.44.44 0 0 0-.11.25v.01l-.02.01a.03.03 0 0 1-.03 0 .3.3 0 0 1-.14-.2c.05.08.1.1.15.04.03-.02.09-.09.17-.2.1-.1.26-.18.5-.2Z" fill="#0D0E49"/><path d="M8.42 6.17c-.08 0-.08.03.02.09.22.12.33.44.32.65v.01l-.02.01a.03.03 0 0 1-.03 0l-.3-.2a.73.73 0 0 0-.43-.52c.04 0 .04-.03 0-.07V6.1L8 6.1h.02c.15 0 .29.02.41.07ZM6.84 6.67c.07.14.07.2 0 .21-.23-.14-.45-.11-.64.06v.03c0 .02.01.03.03.02a2 2 0 0 1 .4-.01c.05 0 .09.01.13.04.03.01.05.03.06.05.01.02 0 .03-.02.03-.2.01-.39-.02-.58.04a.53.53 0 0 0-.32.28c.04.14.07.23.1.27.06.08.04.1-.05.05a.38.38 0 0 0-.11-.03c-.08 0-.1.02-.07.08-.05 0-.05.03-.01.1.16.26.34.51.55.75.1.1.13.3.18.44 0 .03.02.03.02 0 .06-.23.18-.47.4-.6.08-.04.1-.02.07.05l-.13.23v.04h.04l.19-.29.03.16c0 .01 0 .03-.02.04-.12.17-.16.32-.1.46-.2.16-.32.35-.37.56-.03.13-.04.3-.03.51-.12.52.09.9.64 1.13a.9.9 0 0 1-.78.36c-.21 0-.4-.02-.5-.19a5.8 5.8 0 0 1-.16-.3l.09-.85c0-.02-.01-.03-.03-.03-.03 0-.05 0-.06.04-.04.14-.09.27-.14.36-.03.07-.08.23-.13.48-.11-.18-.2-.37-.26-.56-.02-.07-.07-.1-.15-.09h-.04a.05.05 0 0 1-.03-.03 2.3 2.3 0 0 1-.1-.64c0-.06-.03-.1-.1-.12l.12-.53.04.19a1.83 1.83 0 0 0 .87.87h.03l.02-.02.24-.32c.08-.11.17-.36.03-.46a.56.56 0 0 0-.17-.08.97.97 0 0 1-.75-.77.73.73 0 0 1 .05-.53c.08-.16.06-.3-.17-.33l-.01-.14-.04-.03c-.03 0-.06.01-.1.04-.06 0-.1-.03-.1-.1a1 1 0 0 1 .19-.66c.02-.04.03-.03.03.01-.03.14-.04.28-.05.43 0 .06 0 .06.03 0 .1-.3.27-.59.53-.85.12-.11.23-.24.37-.32.08-.05.1-.04.03.03a.54.54 0 0 0-.09.13c-.11.25-.23.5-.36.73-.03.06-.02.07.04.03.18-.16.39-.3.6-.4a.75.75 0 0 1 .3-.06l.32.01Z" fill="#3A52B5"/><path d="M7.98 6.21c.23.12.37.3.42.53 0 .1.02.23 0 .32a.6.6 0 0 1-.48.4c-.23.03-.4 0-.6-.06a.05.05 0 0 0-.05 0l-.01.02V7.62a.14.14 0 0 1-.1.08l-.12-.13c-.02-.02-.03-.02-.03 0 0 .07-.04.12-.1.16-.17.1-.32.08-.46-.03-.15-.12-.17-.25-.05-.37.02-.02.01-.03-.02-.02l-.22.05-.13.01a.25.25 0 0 1-.13.05.53.53 0 0 1 .32-.28c.2-.06.38-.03.58-.04.03 0 .03 0 .02-.03a.15.15 0 0 0-.06-.05.32.32 0 0 0-.13-.04 2 2 0 0 0-.4.01c-.02 0-.03 0-.04-.02v-.01l.01-.02c.2-.17.4-.2.64-.06l.28.1c.3.23.9.4 1.1-.03a.34.34 0 0 0 .02-.23c0-.05 0-.09-.02-.12-.1-.14-.27-.27-.51-.38.1-.05.2-.05.27 0Z" fill="#040405"/><path d="M7.7 6.22c.25.1.42.24.52.38.02.03.02.07.02.12a.31.31 0 0 0-.1.11l-.22-.24c-.22-.26-.5-.16-.79-.1-.05 0-.06 0-.02-.04a.67.67 0 0 1 .6-.23ZM9.93 6.7 9.9 6.7c0-.03.01-.05.03-.07.1-.11.2-.22.34-.32a.7.7 0 0 1 .74.12c.03.02.02.03 0 .02-.35-.05-.76-.04-1 .2a.3.3 0 0 1-.08.06Z" fill="#fff"/><path d="m8.8 6.33.08.11a.3.3 0 0 0 .14.2h.04v-.02c.02-.1.06-.2.12-.25a.26.26 0 0 1 .07-.05c.04-.02.07 0 .09.03l-.01.06a.38.38 0 0 0-.1.26c0 .12-.02.24-.05.37 0 .03-.03.05-.08.06h-.08c-.04.01-.07 0-.07-.05.01-.29-.14-.42-.27-.64v-.05a.12.12 0 0 0 .02-.05c0-.02.02-.03.05-.01l.05.03Z" fill="#040405"/><path d="M7.06 6.8c-.02.06 0 .12.06.18l-.28-.1c.07 0 .07-.07 0-.2l-.01-.1c0-.02 0-.03.03-.04.06 0 .1.03.12.08l.08.17Z" fill="#0D0E49"/><path d="m13.29 8.8.21.87c.03.06.02.16-.05.29a8 8 0 0 0-.18.37c-.08.18-.18.3-.32.43-.06.05-.07.04-.05-.02.06-.15.1-.3.1-.45.01-.03 0-.07-.01-.1-.03-.04-.06-.05-.1-.03l-.02.01v.03c-.07.25-.2.48-.4.7a.78.78 0 0 0-.2-.35c-.02-.02-.04-.01-.04.01 0 .14 0 .27.02.4 0 .13-.03.26-.06.39l-.4.18c-.34.15-.63.1-.85-.19.13-.07.25-.16.36-.26a.85.85 0 0 0 .19-.27c.05-.12.08-.23.1-.32.01-.1-.02-.21-.1-.32a2.04 2.04 0 0 0-.54-.97.84.84 0 0 0-.27-.63.82.82 0 0 0-.46-.56c0-.05 0-.09.02-.12v-.05a.07.07 0 0 0-.02-.03l-.16-.13a.9.9 0 0 1 .29.14c.18.15.42.32.53.52.05.09.13.15.18.23.12.18.21.38.28.6.03.07.05.07.07 0l.06-.3.01-.04.04-.01c.06-.01.1 0 .11.06.03.15.08.28.15.41.03.05.04.05.04 0l.01-.14c0-.25.09-.47.26-.67.1-.11.27-.26.33-.4.03-.06.01-.07-.05-.03-.2.14-.42.26-.69.25-.16 0-.28 0-.36-.02a.25.25 0 0 1-.2-.18c.19.09.37.1.55.03.23-.09.42-.22.56-.4.04-.05.04-.1 0-.12l.04-.03c.01 0 .02-.02.01-.04V7.5c.02 0 .03 0 .03-.02.02-.24.01-.48-.01-.71 0-.04 0-.05.04-.01.12.15.17.31.16.48 0 .03 0 .03.03.01.18-.2.28-.4.28-.64 0-.01 0-.03.02-.04a.02.02 0 0 1 .02 0c.1.23.1.46.04.7-.03.1-.06.2-.07.32 0 .23-.05.46-.15.67-.07.14-.12.28-.16.42-.1.31-.21.6-.33.9a.47.47 0 0 0-.03.24v.02h.01a.04.04 0 0 0 .04 0c.52-.18.86-.52 1-1 0-.03.04-.05.09-.04ZM9.9 6.69l.03.01c.04.07.09.14.15.2a.4.4 0 0 0 .2.1c.1.02.18.02.24 0l.33-.07c-.18.24-.57.42-.85.21-.13-.1-.18-.23-.14-.4 0-.02.01-.03.03-.04l.01-.01ZM8.24 6.72c.02.09.01.17-.02.23-.2.43-.8.26-1.1.03-.06-.06-.08-.12-.06-.19.27.14.56.19.88.15.1-.01.17-.05.2-.1a.31.31 0 0 1 .1-.12Z" fill="#3A52B5"/><path d="M7.15 7.7a.33.33 0 0 1-.18.17.87.87 0 0 1-.51.02c-.24-.13-.34-.3-.3-.53l.22-.05c.03 0 .04 0 .02.02-.12.12-.1.25.05.37.14.11.3.12.46.03.06-.04.1-.1.1-.16 0-.02.01-.02.03 0l.11.13ZM11.88 7.4c.1.09.1.17.03.27-.09.11-.27.14-.42.17-.27.06-.47 0-.58-.24 0-.06.02-.09.08-.1l.02.01.02.02c.06.17.2.24.4.22.26-.03.37-.21.24-.41-.01-.02 0-.03.02-.02a.3.3 0 0 1 .2.08Z" fill="#fff"/><path d="M6.16 7.36c-.04.22.06.4.3.53-.26.01-.4-.1-.4-.34a.62.62 0 0 0-.03-.18.34.34 0 0 1 .13 0Z" fill="#3A52B5"/><path d="M11.52 7.48c.03 0 .06-.02.06-.05 0-.03-.03-.06-.06-.06-.04 0-.06.03-.06.06s.02.05.06.05Z" fill="#fff"/><path d="m6.03 7.37.03.18c0 .24.14.35.4.34.19.05.36.04.51-.02a.33.33 0 0 0 .18-.17c.05-.01.08-.04.1-.08a.07.07 0 0 1 .08-.02c.02 0 .04.01.05.04.02.04.02.09 0 .13a.87.87 0 0 1-.5.4 1.21 1.21 0 0 1-.4-.07 6.16 6.16 0 0 0-.39-.13c.02.05.02.11 0 .18a.48.48 0 0 1-.14-.11 3.06 3.06 0 0 0-.18-.25c-.04-.06-.01-.09.07-.08l.1.03c.1.05.12.03.06-.05a1.1 1.1 0 0 1-.1-.27c.05 0 .1-.02.13-.05ZM11.88 7.4l.34.2c.05.04.05.08 0 .14-.13.17-.32.3-.55.39a.71.71 0 0 1-.56-.03l-.16-.22a.32.32 0 0 1-.06-.28h.02c.11.24.31.3.58.24.15-.03.33-.06.42-.17.07-.1.06-.18-.03-.27ZM10.06 7.68l.16.13.02.03v.05a.2.2 0 0 0-.02.12 1.9 1.9 0 0 0-1.12-.25l-.64.07c-.11.02-.27.07-.48.15-.04-.03-.13-.02-.26.03-.1-.08-.1-.13-.02-.17a3.17 3.17 0 0 1 1.82-.3c.12 0 .3.06.54.14Z" fill="#72A1ED"/><path d="M10.22 8.01c.25.14.4.32.46.56v.03h-.03c-.12-.2-.35-.32-.56-.42a1.32 1.32 0 0 0-.67-.23c-.44-.01-.8 0-1.1.05-.27.04-.45.18-.55.41a.71.71 0 0 0-.18.22l-.01.02h-.03a.06.06 0 0 1-.04 0 .25.25 0 0 1-.1-.23c.02-.18.4-.37.57-.44.2-.08.37-.13.48-.15l.64-.07c.41-.02.79.06 1.12.25Z" fill="#fff"/><path d="M5.15 7.82c.23.03.25.17.17.33a.73.73 0 0 0-.05.53c.1.41.35.67.75.77l.17.08c.14.1.05.35-.03.46a12.5 12.5 0 0 1-.29.34h-.05A1.83 1.83 0 0 1 5 9.45a1.45 1.45 0 0 1-.04-.19l.12-.36v-.04c-.01-.09-.08-.1-.2-.05l.27-1Z" fill="#72A1ED"/><path d="M6.87 8.17c-.3.08-.56.07-.78-.02a.29.29 0 0 0 0-.17v-.02h.03l.36.14c.12.05.25.06.4.07Z" fill="#3A52B5"/><path d="M7.98 7.98c-.18.07-.55.26-.57.44-.01.09.02.16.1.23h.02a.06.06 0 0 0 .05 0l.01-.02c.04-.08.1-.15.18-.22a3.3 3.3 0 0 1-.04.25c-.01.07.02.16.1.25.1.11.27.29.52.52.1.08.16.17.16.28 0 .06-.03.13-.08.2l-.32.48c-.25.4-.56.66-.88.98-.55-.24-.76-.61-.64-1.13l.05.13c.04.08.06.08.05 0-.02-.27.03-.55.16-.83.05-.12.16-.2.24-.28l.02-.03V9.2l-.02-.03-.03-.02-.07.02c-.06-.14-.03-.3.1-.46a.06.06 0 0 0 .02-.04l-.03-.16.36-.3c.07-.06.14-.09.22-.12.05-.02.07-.05.06-.08.13-.05.22-.06.26-.03Z" fill="#5A5FEC"/><path d="M9.73 8.17a.92.92 0 0 1-.28.03c-.22-.01-.48 0-.78.04-.16.02-.32 0-.5-.04a.07.07 0 0 1 .06-.06c.28-.01.56-.05.84-.05.16 0 .32-.02.47.02l.2.06Z" fill="#fff"/><path d="M9.73 8.17c.22.06.37.2.47.42.02.04.02.08 0 .1-.1.15-.23.2-.41.14-.03 0-.04-.02-.03-.04.1-.24.03-.4-.28-.42-.03 0-.06.01-.08.04-.2.29.09.53.36.63l.01.01.01.01v.02h-.01a1.3 1.3 0 0 1-.61.26h-.02l-.02-.02V9.3l-.07-.33-.01-.01-.01-.01a.04.04 0 0 0-.03 0c-.03 0-.05.03-.05.06-.01.08 0 .15.01.24v.02l-.02.03-.03.01h-.03l-.48-.14a.06.06 0 0 1-.03-.02l-.02-.03.01-.04.03-.02c.25-.1.32-.28.2-.53a.18.18 0 0 0-.1-.08V8.4h-.11l-.05.01c-.12.09-.04.18 0 .27v.04c0 .02-.01.03-.03.04l-.2.15h-.06a.86.86 0 0 1-.18-.19c-.02-.03-.02-.07 0-.13l.16-.33a12.58 12.58 0 0 0 .41.04l.1.03c.12.02.25.1.35.17l.1.02c.03 0 .06-.02.08-.05.1-.1.23-.2.4-.28l.27-.03Z" fill="#0D0E49"/><path d="M10.09 8.18c.21.1.44.22.56.42h.02v-.03c.2.2.29.4.28.63l-.06-.02a.06.06 0 0 0-.03.05l.02.04a2.04 2.04 0 0 1 .5 1.22c0 .03 0 .03.02.02a.11.11 0 0 0 .06-.09l.02-.25c.09.1.12.22.1.32 0 .1-.04.2-.1.32-.04.1-.1.2-.18.27-.1.1-.23.19-.36.26-.15-.13-.29-.28-.45-.4-.4-.28-.66-.6-1-.93-.07-.06-.07-.15-.05-.23.03-.12.09-.25.17-.4.14-.06.27-.16.38-.27.06-.05.11-.1.17-.13.14-.1.22-.22.2-.37-.03-.13-.18-.3-.27-.43Z" fill="#5A5FEC"/><path d="M8.16 8.2c.19.05.35.06.5.04.31-.04.57-.05.8-.04-.17.08-.3.17-.4.28a.14.14 0 0 1-.08.05c-.04 0-.07 0-.1-.02-.1-.06-.23-.15-.35-.17a.54.54 0 0 1-.1-.03 12.58 12.58 0 0 1-.4-.04c.06-.06.1-.08.13-.07Z" fill="#3A52B5"/><path d="M13.17 8.27c.1.18.17.35.21.52.07.28.11.58.12.88l-.21-.87c-.07-.17-.11-.35-.12-.53ZM4.96 9.27l-.11.53-.1.63a.96.96 0 0 0 .04.46l-.15-.36-.04-.74c.06-.33.15-.65.28-.97.12-.05.19-.04.2.05v.04l-.12.36ZM6.6 10.24c-.02-.2-.01-.38.02-.5.05-.22.17-.4.37-.57l.07-.02.03.02.02.03v.03l-.02.03c-.08.09-.2.16-.24.28-.13.28-.18.56-.16.82 0 .09-.01.1-.05.01a.77.77 0 0 1-.05-.13ZM10.95 9.2c.27.28.45.6.53.97l-.02.25c0 .04-.02.07-.06.09-.02.01-.03 0-.03-.02a2.04 2.04 0 0 0-.49-1.22.07.07 0 0 1-.02-.04c0-.02.01-.04.03-.05l.06.02Z" fill="#fff"/><path d="M9.61 9.39a1.5 1.5 0 0 0-.17.39c-.02.08-.02.17.05.23.34.32.6.65 1 .94.17.11.3.26.45.4.22.27.5.33.86.18l.4-.18a.7.7 0 0 1-.4.48c-.25.12-.64.05-.87-.07-.16-.08-.28-.23-.42-.35a.78.78 0 0 1-.16-.17c-.25-.4-.71-.78-1.21-.94l-.04-.04a4.47 4.47 0 0 1-.01-.7l.02-.01c.18-.02.34-.1.5-.16ZM8.35 9.43l.5.1c.01 0 .02.01.02.03v.24a5.28 5.28 0 0 0 .03.5l-.04.03c-.13.06-.27.15-.42.26-.12.08-.23.2-.35.34a39.81 39.81 0 0 1-.68.8c-.28.25-.64.32-1.1.23-.42-.09-.59-.33-.52-.72l.15.3c.1.17.3.19.51.2a.9.9 0 0 0 .78-.37c.32-.32.63-.59.88-.98.1-.16.2-.32.32-.48a.39.39 0 0 0 .08-.2c0-.11-.05-.2-.16-.28Z" fill="#2A2A9B"/><path d="m4.6 9.79.04.74c-.1-.25-.12-.5-.04-.74Z" fill="#72A1ED"/><path d="M4.85 9.8c.06.02.09.06.09.12 0 .21.04.43.1.64l.03.03h.04c.08-.01.13.02.15.1.06.18.15.37.26.55v.28l-.03.01h-.04a4.4 4.4 0 0 1-.66-.64.96.96 0 0 1-.04-.46l.1-.63ZM13.45 9.96c.13.44-.07.76-.4 1.1a1.67 1.67 0 0 1-.53.36h-.02v-.01l-.01-.02-.01-.5a1.61 1.61 0 0 0 .4-.72l.01-.01c.04-.02.07 0 .1.03l.02.1c-.01.15-.05.3-.1.45-.03.06-.02.07.04.02.14-.12.24-.25.32-.43l.18-.37ZM9.62 11.9c.03-.1.03-.2.02-.3.02.03.06.02.12-.01l.02-.02v-.03l-.08-.14v-.03c0-.02 0-.04-.04-.06l.39.2a.05.05 0 0 0 .04 0h.01l.02-.02-.01-.06a1.15 1.15 0 0 0-.95-.49c-.28-.01-.46 0-.56.05l-.33.14c.04-.2.18-.32.42-.35l.53-.02c.27 0 .44.05.66.18.08.05.15.13.21.25l.17.3v.05l-.01.03c-.16.14-.34.25-.54.33h-.09Z" fill="#0D0E49"/><path d="M9.66 11.3c-.25-.08-.41-.12-.48-.13a.96.96 0 0 0-.88.33c-.04.04-.08.04-.12 0l-.05-.07a.1.1 0 0 1-.03-.06c0-.03.01-.05.03-.07l.14-.17.33-.14c.1-.05.28-.06.56-.05.41.02.73.18.95.49V11.5l-.02.01a.05.05 0 0 1-.04 0l-.4-.2Z" fill="#5A5FEC"/><path d="M9.59 11.54c-.2 0-.38 0-.56.02-.15.01-.26.07-.31.18l-.02.02a.07.07 0 0 1-.06 0 .06.06 0 0 1-.03-.01.27.27 0 0 1-.03-.22c.3-.25.7-.2 1.01.01Z" fill="#72A1ED"/><path d="M8.58 11.53c-.02.07-.01.15.03.22l.03.02a.07.07 0 0 0 .06 0l.02-.03c.05-.1.16-.17.31-.18.18-.02.37-.03.56-.02.02-.01.04.01.05.06.01.1 0 .2-.02.3-.14.16-.68.17-.9.15-.16-.02-.36-.08-.42-.23v-.03l.01-.02.08-.05a.1.1 0 0 0 .04-.04.3.3 0 0 1 .15-.15Z" fill="#3A52B5"/><path d="M11.76 12.06c-.1.23-.23.43-.4.6a.08.08 0 0 1-.03.03h-.05a.08.08 0 0 1-.03-.02.06.06 0 0 1-.02-.04l-.01-.1c-.01-.06-.03-.06-.07 0l-.16.2c-.35.32-.7.63-.98 1.02a.03.03 0 0 0 0 .03v.02h.02l.13.04.02.01.02.03v.03s0 .02-.02.02c-.11.1-.28.2-.43.26-.18.08-.33.2-.45.35l-.24.33a.16.16 0 0 1-.14.07.1.1 0 0 1-.04-.01.09.09 0 0 1-.04-.03.07.07 0 0 1 0-.07.5.5 0 0 0 .05-.23l-.02-.05c-.15-.16-.33-.3-.55-.39a1.55 1.55 0 0 1-.38-.25v-.03l.01-.03.03-.01.11-.04c.04-.01.04-.03.03-.06-.3-.46-.8-.8-1.16-1.23-.02-.03-.04-.03-.04.01v.07c-.02.13-.08.14-.17.05a1.51 1.51 0 0 1-.32-.46c.53 0 .96-.01 1.28-.43l.02-.02a.07.07 0 0 1 .06 0l.03.02c.39.5 1.05.62 1.68.44.15-.04.3-.1.46-.2.19-.09.32-.21.4-.36.01-.02.03-.03.04-.01l.15.15c.17.18.37.28.61.3.13.02.34.01.6 0Z" fill="#0D0E49"/><path d="M6.43 12.18c.1.19.2.34.32.46.1.1.15.08.16-.05v-.07c.01-.04.03-.04.05-.01.36.43.85.77 1.16 1.23.01.03 0 .05-.03.06l-.11.04-.03.01-.01.03v.02c0 .01 0 .02.02.03.1.09.23.17.36.23.22.1.4.23.54.4.02 0 .02.02.03.04a.5.5 0 0 1-.05.23.07.07 0 0 0 0 .07l.04.03a.1.1 0 0 0 .04 0c.06 0 .1-.01.13-.06l.25-.33c.12-.14.27-.27.45-.35.15-.07.32-.15.43-.26l.02-.02v-.03c0-.01 0-.02-.02-.03l-.02-.01-.13-.04h-.01l-.01-.02v-.03c.27-.4.63-.7.98-1.03.07-.06.1-.13.16-.2.04-.05.06-.05.07.02v.1l.02.03.04.02h.05l.03-.02c.16-.18.3-.38.4-.6l.18-.07c.21-.08.36-.26.57-.32h.02l.01.01v.36c-.14.29-.26.5-.37.64l-.43.54a.15.15 0 0 1-.16.04.1.1 0 0 1-.03-.02.08.08 0 0 1-.02-.03l-.01-.03c0-.07.02-.14.04-.2.03-.09.01-.1-.05-.04a2.72 2.72 0 0 0-.76.98v.01l.01.01a.03.03 0 0 0 .03 0l.22-.12a.04.04 0 0 1 .05 0l.02.03v.03c-.06.2-.15.36-.27.49-.14.13-.3.26-.49.38a1.1 1.1 0 0 1-.15.08.4.4 0 0 0-.15.1c-.64.08-1.25.08-1.84.01a2.34 2.34 0 0 1-.9-.64 1.15 1.15 0 0 1-.22-.44v-.02l.02-.02h.05a4.46 4.46 0 0 0 .23.13l.01-.01.01-.01v-.05a3.01 3.01 0 0 0-.76-.96c-.05-.04-.07-.04-.06.03.03.1.07.18.04.3-.01.02-.03.03-.05.03a.18.18 0 0 1-.15-.06c-.16-.18-.31-.37-.46-.58-.15-.18-.25-.4-.34-.6-.06-.1-.09-.1-.1.01-.04.36-.06.74-.04 1.14.01.3.07.67.18 1.1l-.78-.4a.05.05 0 0 1-.02-.03v-.04c.07-.18.15-.36.2-.55.16-.54.31-1.08.45-1.63 0-.03.02-.03.04 0 .13.15.28.33.48.42.08.04.22.07.42.1Z" fill="#2A2A9B"/><path d="M8.18 14.95a5.7 5.7 0 0 1-.94-.14c-.17-.22-.35-.5-.56-.8a.74.74 0 0 1-.12-.37c0-.04-.03-.07-.07-.08h-.04c-.07.01-.1.05-.09.11l.02.12c.01.05 0 .06-.04.01a2.7 2.7 0 0 1-.35-.66c-.01-.04-.05-.08-.1-.08h-.01l-.02.01-.02.02v.02c.04.4.11.79.23 1.15.01.04.05.13.13.26l-.56-.22a5.62 5.62 0 0 1-.14-2.24c.01-.11.04-.12.1-.01.1.2.2.42.34.6.15.2.3.4.46.58.04.04.09.06.15.06.02 0 .04-.01.05-.04.03-.1-.01-.19-.04-.3 0-.06 0-.06.06-.02.3.3.6.58.76.96V13.95h-.02a.04.04 0 0 1-.03 0 4.37 4.37 0 0 1-.25-.12l-.02.02v.02c.03.15.11.3.22.44.22.26.51.47.9.64ZM12.54 12.05c.02.42.09.8.19 1.16l-.07.25-.06.26-.08.48-.53.23a4.42 4.42 0 0 0 .29-1.36.04.04 0 0 0-.04 0c-.05 0-.08.03-.1.08-.07.22-.2.44-.36.66-.02.02-.02.02-.02 0l.01-.14c0-.05-.01-.08-.06-.1h-.05c-.04 0-.06.02-.07.06-.02.15-.07.29-.15.4-.1.17-.22.33-.33.5-.03.05-.1.13-.23.25l-.86.15a.4.4 0 0 1 .15-.1l.15-.07c.2-.12.35-.25.49-.38.12-.13.21-.3.27-.5v-.02l-.02-.02a.04.04 0 0 0-.05 0 5.09 5.09 0 0 1-.25.11l-.01-.02.01-.05c.15-.36.44-.65.75-.93.06-.06.08-.05.05.03a.83.83 0 0 0-.04.2v.04l.03.03a.1.1 0 0 0 .08.03c.04 0 .08-.02.1-.05l.44-.54c.11-.14.23-.35.37-.64Z" fill="#3A52B5"/><path d="M7.24 14.81a7.17 7.17 0 0 1-1.04-.29 1.84 1.84 0 0 1-.13-.26 5.41 5.41 0 0 1-.21-1.19h.02l.02-.01c.04 0 .08.04.09.08.09.24.2.46.35.66.04.05.05.04.04-.01l-.02-.12c0-.06.02-.1.09-.11h.04c.04.01.06.04.07.08 0 .12.04.24.12.37l.56.8ZM12 14.43c-.36.14-.73.26-1.12.35.13-.12.2-.2.23-.25l.33-.5c.08-.11.13-.25.15-.4 0-.04.03-.06.07-.07h.05c.05.03.07.06.06.1v.14a2.42 2.42 0 0 0 .38-.65c.01-.05.04-.08.1-.08a.05.05 0 0 1 .03 0l.01.02v.01c-.03.46-.13.9-.3 1.33Z" fill="#72A1ED"/><path d="m12.73 13.2.25.72v.03l-.02.02-.44.23.08-.48.06-.26.07-.25Z" fill="#2A2A9B"/></svg>