<!-- by TradingView --><svg width="18" height="18" viewBox="0 0 18 18" xmlns="http://www.w3.org/2000/svg"><path fill="#F0F3FA" d="M0 0h18v18H0z"/><path d="M9.84 11.26s-.17.1-.47.08c-.09-.14-.7-.2-.7-.2s-.07-.03-.2.03c-.14.07-.27.06-.39.1-.12.03-.23-.15-.33-.2-.09-.03-.2-.13-.2-.13l-.26-.03-.52-.25-.81-.96-.22.41-.07.5.24.6.67.71 1.3.39.76-.27.96-.47.24-.3Z" fill="#F1D789"/><path d="M6.07 7.3s-.08.02-.12.07l-.1.16c-.05.08-.05.14-.1.24l-.14.28-.05.4c-.02.12.02.26.02.26l.06-.02s0 .08.05.14c.05.05.06-.18.06-.18l.2-.78.3-.24.03-.19-.21-.14Z" fill="#F5EEC0"/><path d="M5.21 13.2v-.02l.06-.62c.03-.2.05-.26.04-.33 0-.11-.01-.2 0-.28.01-.12.1-.26.1-.35 0-.07-.03-.12-.06-.17l-.05-.08s.2-.15.19-.77h.01l.1.32.06.09.24.53.32.36.46.37.3.37.02 1-.38.58-.06.13c-.5-.3-.95-.67-1.35-1.13Z" fill="#E5CB7A"/><path d="m7.62 11.28-.18-.4.1-.5.75-.35-.32-.77.16-.78.3-.7.91-.16.68-.75 1.45.13.28 1.82-.54 2.3-.17.62c.32-.15 1.23-.47 1.23-.47l.42.03.07.53-.04 1.4v.02l-.72.43-.23.42a4.66 4.66 0 0 1-4.44.6 4.98 4.98 0 0 1-.94-.48l-.01-.07s0-.12.09-.2l.02.07a.57.57 0 0 1 .37-.3.4.4 0 0 0 .31-.26l.53-.56.6-.65.74-.3.05-.02-.06-.05-.69-.34-.72-.26Z" fill="#E0CD81"/><path d="m6.23 7.62-.1.01c0 .02.09.04.12.06.03 0 .09.07.1.12.02.04.58.3.58.3l.4-.02.14-.22-.26-.27.18-.63-.24.05-.58.4-.3.14-.04.06Z" fill="#DFC57C"/><path d="m7.1 7.83.03.02.03.01c.08 0 .16.03.19.08l.2.32.35.15.02-.48-.38-.31-.44.18v.03Z" fill="#E5CC7C"/><path d="M7.04 8s.06.01.14-.02c.08-.04.21-.11.27-.08.08.04.06.16.15.28.05.07.15.06.2.14.06.07.25.04.25.04l.07.45-.29.43-.1.53h-.38L7 9.61l-.17-.5.08-.5.13-.6Z" fill="#D2C281"/><path d="M7.78 8.03h.03c0 .01-.03.04-.02.1 0 .06.04.14.01.19.02.02.04.05.04.09.02.05.02.1.13.1a.23.23 0 0 0-.04.04s.07.08.1.14l.14-.03.02.01.04-.02s-.04-.02 0-.13c.02-.1.04-.1.05-.1l.02-.17.02-.22-.03-.38-.16-.12-.14-.15-.13.28-.08.1v.27Z" fill="#E2C270"/><path d="m8.18 7.71.04.18a4.14 4.14 0 0 0 .03.17h.03l.02.2a.5.5 0 0 1 .15-.19c.04-.02.08-.05.13-.05.07 0 .12.05.2.05.2 0 .4-.18.53-.23.1-.04.19-.07.25-.14.03-.03.08-.09.13-.19.06-.13.13-.24.2-.25h-.1l.06-.05c.04-.03.08-.07.14-.07l.21.02c.06 0 .1-.02.1-.02s.06.05.2.05l.3.02.4-.02c.04 0 .08.02.12.04l-.22-.77-.82-.84-.48.4-.74.88-.73.31-.15.2v.3Z" fill="#CCB360"/><path d="m9.8 7.27.05-.06c.04-.03.08-.07.14-.07l.21.02c.06 0 .1-.02.1-.02s.06.05.2.05.23.02.3.03l.4-.03c.04 0 .08.02.13.04l-.1-.35-.13-.26-.34-.44-.4-.28-.15-.05-.37.27-.33 1.01-.01.22.22.12c.05-.11.11-.2.17-.2h-.1Z" fill="#D5B457"/><path d="M9.8 7.34c-.04 0-.07 0-.07-.03-.03-.1-.05-.1-.08-.1-.02 0-.05.05-.07.06-.02 0-.04-.07-.04-.07h-.02s-.12.08-.2.19c-.09.1-.22.29-.29.32-.06.03-.27.05-.34.06a.43.43 0 0 0-.17.1l.04.04c0 .01-.07 0-.08.02l.03.1a.13.13 0 0 1 .07-.01c.07 0 .12.05.2.05.21 0 .4-.17.53-.23.1-.04.19-.07.25-.13.03-.03.08-.1.13-.2l.1-.17Z" fill="#D2B257"/><path d="M6.5 11.77a2.68 2.68 0 0 0 .86.25c.2 0 .37-.03.53-.07l.3-.07h.08c.14-.02.29-.04.45-.08.24-.07.4-.15.59-.26l.13-.07.25-.14.13-.1a.78.78 0 0 1 .26-.16v.02a.38.38 0 0 1-.16.22h.16s-.09.05-.24.2c-.04.02-.08.06-.12.1-.24.24-1.34.76-1.3.83-.16 0-.23.13-.3.28-.25.47-.86.68-1.06 1.2-.05.1-.08.2-.13.25 0-.05-.08.16-.08.12-.07.09-.2-.2-.21-.08 0-.04 0-.12.06-.2l.08-.13c.3-.43.1-1.26-.22-1.6-.16-.18-.41-.23-.56-.41a4.93 4.93 0 0 1-.42-1c0-.02.03-.07.06-.06.02 0 .02.04.03.07v.02l.05.08.02.02c.04.06.1.12.12.21 0-.09-.03-.19-.03-.19a4.54 4.54 0 0 0 .54.5l.04.08.08.17Z" fill="#C2A44D"/><path d="M9.5 4.93a.12.12 0 0 0-.06-.05l-.03-.08.5-.06.77.66.73.7a.83.83 0 0 0 .05-.13c.05-.24.22-.25.22-.25l.1-.09.17.47.14.42.04.33.03.27-.07.59-.38.4-.11-.32v.02l-.1.59c-.12-.5-.12-.73-.12-.83v-.04a.91.91 0 0 0-.14-.32c-.03-.05-.05-.12-.08-.21a1.89 1.89 0 0 0-.15-.39.88.88 0 0 0-.42-.4c-.14-.06-.15.03-.15.08a1.92 1.92 0 0 0-.2-.42l-.01-.03a1.56 1.56 0 0 1-.04-.07 1.09 1.09 0 0 0-.1-.16c-.04-.05-.1-.03-.1-.03s.02-.07-.03-.1c-.1-.04-.22.07-.22.07v-.06a2.45 2.45 0 0 0-.32.29c0-.14.06-.22.06-.22s-.04-.02-.04-.1c0-.07.08-.17.11-.22h.01c-.03 0-.05 0-.09-.03.1-.11.07-.22.03-.28Z" fill="#C89D3A"/><path d="M6.34 14.19v-.01l.02-.02.01-.03.08-.02c.02 0 .08.04.11.03.07 0 .15-.06.27-.03.2.04.3.3.52.3.1 0 .24-.05.33-.02.07.03.1.14.05.2-.06.06-.12.12-.13.17l.04.04c-.45-.13-.9-.34-1.3-.61Z" fill="#CEB052"/><path d="M9.97 14.9a.5.5 0 0 1 .11-.08c.15-.06.3-.08.36-.1l.17-.07v.06c-.21.07-.43.14-.64.18Z" fill="#D2BA6B"/><path d="M10.23 4.47s-.08.04-.2.04c-.1 0-.07-.05-.24-.05-.25 0-1.13.17-1.29.17-.1 0 .34.05.34.05l1.13.02.22-.02.09-.2h-.05Z" fill="#A88F33"/><path d="M7.3 7.06s-.14.13-.2.22l-.16.25h.05l-.01.02H7l.03.02c-.02.01-.08.08-.03.15.03.06.1.07.1.07s-.02.05.05.05c.14-.01.3-.08.37-.07.07.03.11.03.16.14.06.1.1.12.1.12s.04-.1.03-.24a.82.82 0 0 0 .05-.25l-.05-.41-.21-.31-.27.17-.02.07Z" fill="#E3C571"/><path d="m6.12 6.88.11-.01-.19.65-.15.3.03-.01.01-.02.03-.03A.33.33 0 0 1 6 7.72c.07-.06.21-.07.21-.07l.11-.1.22.29-.38.28-.18.82-.09.05.05.07.17.52.06.5s-.1-.34-.17-.28c-.04.05-.04.2-.04.31v.08c0-.04-.03-.07-.03-.07l-.01.03-.09-.05s.02.12-.04.2c-.05.06-.05.09-.05.15v.04c0 .07.04.15.06.2l.02.04v.12c-.02.08 0 .17 0 .17l.13.2-.08.05-.11-.06-.21-.26-.05-.3v-.03h-.01s-.2-.41-.26-.72a4.96 4.96 0 0 1-.07-1.88c.04-.3.2-.6.2-.6l.05-.11.2-.38c.01-.18.1-.4.1-.4l.3-.15.21.07.07.33-.17.1Z" fill="#F4EFC8"/><path d="M6.13 7.47s-.03.01-.05.06a1.5 1.5 0 0 1-.06-.43c0-.18-.01-.23.02-.29.04-.06.18-.13.16-.25-.02-.1-.1-.15-.2-.12-.08.02-.13.2-.2.3-.07.06-.14.05-.15.1-.03.04 0 .1-.01.13a.7.7 0 0 1-.07.14c-.08.14-.23.34-.24.52l.02-.22-.01-.03.09-.35.06-.29.13-.48.23-.5.23-.3.23.03.03.41.14.78.28.4-.45.37-.18.02Z" fill="#EBCC73"/><path d="M6.27 7.61H6.2L6.2 7.6l.03-.04v-.02l-.02-.01h-.03l-.04-.01h.03a.26.26 0 0 0-.08-.03c.03-.02.07-.07.1-.07s.05 0 .04-.02a.1.1 0 0 0-.05-.06c.01 0 .02-.03 0-.08-.03-.05-.02-.09-.01-.1l.04-.07.04-.05.07-.04c.03-.01.06-.03.07-.01.02.01.01.04.01.04s.07-.03.13 0c.05.04.2.06.2.06l.04.12-.33.33-.14.08h-.02Z" fill="#E5C66B"/><path d="m6.73 7.07-.13.1c.01.01.04.02.03.04l-.12.12a.85.85 0 0 0-.09.16.48.48 0 0 1-.15.12c.08 0 .23-.1.29-.1 0 .03.01.06.04.07.04 0 .13.02.25-.07.13-.09.09-.16.14-.2.1-.08.14-.15.2-.2a.34.34 0 0 1 .08-.04s0-.04.02-.03h.01l.01.02s.1-.08.22-.1v-.02s.01-.02.02-.01c0 0 0 .05.02.06.02 0 .05-.11.05-.11l.1-.31v-.29l-.07.02-.55.27-.34.4-.03.1Z" fill="#E6BD62"/><path d="m6.78 5.21.01-.1.14-.27.15-.46v-.63l-.01-.36.02-.24.02-.07.02-.03.11.07.17.26.01.5-.16.8-.45.59-.03-.06Z" fill="#DFC068"/><path d="M7.14 3.02s-.07 0-.09.36l-.03.72c-.01.17-.04.28-.05.38-.01.1-.02.25-.06.34-.02.04-.06.16-.15.26-.1.1-.26.17-.28.18-.04.01-.25.03-.33.09-.03.02-.08.04-.14.1-.1.12-.26.33-.36.58-.17.38-.33 1.46-.33 1.46l.03-.07s0-.1.1-.27c.07-.17.05-.36.16-.68l.16-.42c.11-.23.24-.42.37-.52.2-.17.44-.2.44-.2l.24-.2.1-.21c.09-.16.19-.34.21-.6.03-.37-.05-.62-.04-.85 0-.22 0-.39.04-.43.04-.04.01-.02.01-.02Z" fill="#A88F33"/><path d="M7.14 4.72s.11-.32.16-.6l.04-.16c.02-.26.03-.37 0-.52-.03-.1-.12-.2-.16-.28-.05-.07-.07-.1-.06-.12A.1.1 0 0 1 7.2 3c.04 0 .07.01.1.03.04.02.07.04.1.08.07.1.12.42.12.42l.06.43.15.55-.59.2Z" fill="#C99E3D"/><path d="M8.38 4.59c0 .01-.29-.12-.3-.11-.04-.02-.4.02-.4.02s-.17-.04-.22-.3c-.04-.17.02-.41 0-.57-.03-.2-.07-.42-.16-.58.01 0 .09.02.18.11.08.1.2.25.26.37l.16.53.05.1c.06.08.35.4.43.43Z" fill="#B58634"/><path d="M7.69 4.55v-.03a.18.18 0 0 0-.03-.04s-.16-.03-.24-.02c-.15.02-.28.23-.34.33-.06.11-.14.28-.22.36v-.02.02c-.02 0-.02.01-.01.02l.01.01s.13-.06.3-.25c.2-.2.33-.3.4-.34a.5.5 0 0 1 .13-.04Z" fill="#C29637"/><path d="M12.07 11.63c.14-.1.41-.48.57-.16.09.2-.02.5-.05.68-.04.2.03.5-.07.67a.95.95 0 0 0-.03.05.57.57 0 0 1-.04.06c-.41.53-.62 1.1-1.2 1.46l.02.01A5.58 5.58 0 0 0 13 12.9a12.12 12.12 0 0 0-.03-.85v-.14c-.07-1.5-.4-2.93-.74-4.38 0 0-.09-.62-.12-.68.01.37-.04 1.09-.35.44-.13.57-.19.27-.22.69-.01.25.01.52-.03.77-.04.24-.1.38-.21.68l-.14.35c-.22.58-.59 1.2-.64 1.29.62-.31.35.43.13 1.12.43-.2 1.03-.3 1.42-.56Z" fill="#A67A2E"/><path d="M11.04 3.49v.01l-.01.02a1.47 1.47 0 0 0-.19.22l-.06.09a5.23 5.23 0 0 1-.29.33c-.03.05-.07.1-.12.14l-.17.2-.14.2-.13.17a.4.4 0 0 0-.05.16 1.3 1.3 0 0 0-.04-.02l.03.04.05.07.03.05.05.12h.04c.01.05.03.1.06.13.04.04.08.1.13.19.07.1.14.23.22.3.08.07.17.1.26.15.1.04.2.09.31.18.23.17.25.28.25.29l.38-.7-.05-.96-.13-.65-.05-.07c.05-.04.02-.15.02-.15l-.12-.32-.24-.2h-.04Zm0 .1a.62.62 0 0 1 0 .06V3.6Z" fill="#BE9C44"/><path d="M11.66 5.94s-.1-.13-.15-.56c-.04-.43-.03-1.07-.03-1.07l-.09-.25s-.02-.16-.06-.23l-.18-.21c-.04-.05-.08-.12-.11-.13.01-.03.07-.18.31-.19.24 0 .31.16.34.21.02.06.13.3.18.77.03.46.04.5.03.66 0 .09-.03.3-.07.51-.04.19-.09.4-.17.49Z" fill="#A17C34"/><path d="M11.33 6.3c.11.02.29-.04.35-.14.05.21.08.32-.06.61.04-.05.08-.04.12-.05 0 .12.03.45-.16.4 0-.1-.04-.14-.1-.2-.2-.23-.06-.5-.15-.61Z" fill="#8C6228"/><path d="M10.59 4.96c.04-.29.43-.61.67-.69.09-.03.14-.1.13-.21.04.02.21.14.27.42.05.22-.02.79-.15.98-.1.15-.63.47-.35.66.03.02.1.02.14.01-.01.29-.37.01-.45-.01a.4.4 0 0 1 0-.12l.08-.14.29-.6.06-.47-.6.14c-.05.04-.1.04-.1.03Z" fill="#806031"/><path d="M8.82 6.74s-.04-.07 0-.14c.06-.06.13-.09.15-.13l-.02-.02a.2.2 0 0 1 .08-.08c0-.02-.03-.03-.05-.03-.04 0-.07.03-.11.03-.04 0-.05-.03-.05-.03s.07 0 .06-.04l-.01-.04s.13-.06.15-.1l.03-.09c.01 0 .1-.05.14-.03.04.03.01.09.01.09s.11-.1.17-.2c.05.01.07-.04.11-.04.04 0 .12.08.13.23 0 .1.02.14 0 .3 0 .09 0 .28.03.37.01.08.05.07.05.07l-.03.06c-.03.02-.03.1-.03.12l.02.06-.04.07c0 .03-.04.04-.06.04h-.1c-.02 0-.03-.01-.02-.08 0-.07-.23-.23-.23-.23l-.38-.16Z" fill="#CCA849"/><path d="M8.38 7.42s.08.13.43.13c.16 0 .22-.01.25-.03a.7.7 0 0 0 .32-.26c.12-.18.1-.25.1-.25L9.4 7l-.24.04-.7.35-.08.03Z" fill="#585136"/><path d="M8.63 7.46s-.3.07-.3-.15.19-.44.24-.48c.04-.04.16-.09.16-.09H9l.06.16-.03.36-.4.2Z" fill="#252211"/><path d="M8.91 6.8s-.06-.05-.19.03a.56.56 0 0 0-.24.41c0 .14.1.25.26.25.12 0 .2 0 .23-.02l-.06-.08V6.8Z" fill="#C3B378"/><path d="M8.85 6.84s-.01-.01-.05.01l-.12.12-.06.06c-.06.08-.1.2-.08.27.03.07.12.14.36.1l-.05-.56Z" fill="#E6D89C"/><path d="M8.78 6.98s-.04.06-.04.17c0 .11.05.28.25.3.15 0 .25-.25.35-.36.09-.07.14-.08.14-.08s-.09-.1-.31-.24c-.22-.14-.47-.16-.6.05.06 0 .26-.06.26-.06l.1.04-.15.18Z" fill="#252211"/><path d="M6.52 7.03s.08.07.16.07c.09 0 .2-.1.24-.17l.09-.11.05-.06.04-.08-.08.08a10.15 10.15 0 0 0-.4.24l-.1.03Z" fill="#AC924C"/><path d="M9.83 4.62c.11 0 .23.03.34.08 0 0-.13.31-.3.34a1.3 1.3 0 0 0-.26-.12l.06.38.38.16.24.42s-.04.01-.12.07l-.06.03c-.06.04-.11.06-.14.13l-.04.15.1-.05c.04 0 .09 0 .08.01 0 .02 0 .03-.02.04 0 0 .08 0 .07.04 0 .04 0 .09-.02.1 0 .02-.02.03-.04.04l-.04.04a.1.1 0 0 0 0 .06v.04c0 .04-.04.12-.14.25-.1.14-.15.24-.15.24s-.05-.11-.07-.2c-.02 0-.12.07-.12.07l-.22-.9-.12.2-.15-.03.03.12-.12.28-.23.14-.24.15-.06.16s-.08.23-.09.35c0 .07-.03.07-.07.07-.03 0-.06 0-.07.04l-.06.19v-.03c-.03.01-.07-.01-.11-.06-.05-.04-.05-.1-.05-.1V7.5l-.01-.05-.04.16c-.03.09-.07.13-.1.14a.24.24 0 0 0-.06.04v-.1l.01-.08-.01.02a1.44 1.44 0 0 1-.03-.26h.01a.08.08 0 0 1-.01-.03v.02a.32.32 0 0 1-.06-.1s0-.01 0 0H7.7a.22.22 0 0 1-.02-.04.2.2 0 0 1 0-.05v-.04l-.02.02v-.09c-.09 0-.1-.07-.1-.07a.9.9 0 0 0 .06-.22v-.1l.01-.13H7.2c-.06.18-.24.26-.24.26v-.02l-.13-.25-.16-.23-.05.04-.14.1-.02.01v.05l-.1.17c-.21-.29-.52-.77-.2-1.08-.02-.04-.02-.1-.02-.1l-.01-.01a2.62 2.62 0 0 0 .56-.27c.17-.1.27-.13.27-.13v.03l.08-.09.31-.31.1-.06a.3.3 0 0 1-.03 0c.46-.37.63-.23.7-.18l.01.01c.19.01.35.05.5.08a2.07 2.07 0 0 0 .75.06h.46Zm.46 1.26Z" fill="#D7BC6B"/><path d="M6.44 6.5s-.04.03-.06.13c-.02.1.02.23.04.27.02.04.07.15.18.15l.07-.01a.47.47 0 0 0 .1-.08.35.35 0 0 0 .08-.08l-.28-.26-.1-.13-.03.01Z" fill="#585136"/><path d="M6.42 6.54s.1-.14.17-.17c.09-.04.12-.02.12-.02l-.05.15-.06.09v.04s-.01.12.06.2c.07.09.12.08.15.08s.11-.02.15-.14c.04-.12.08-.26 0-.4a.27.27 0 0 0-.24-.16c-.02 0-.23.02-.3.33Z" fill="#252211"/><path d="M8.76 7.02c-.03-.02 0-.13.04-.16a.23.23 0 0 1 .15-.08c.03 0 .05.01.05.04 0 .04-.05.1-.1.13-.06.06-.1.1-.14.07Z" fill="#F7F7E7"/><path d="M6.92 6.4c.02 0 .05.03.06.06 0 .04-.01.1-.06.1-.04 0-.06-.05-.06-.07a.1.1 0 0 1 0-.04s.01-.04.06-.04Z" fill="#F8F6DE"/><path d="m6.56 6.43.06-.05c.02-.01.08-.05.1-.03.02.02.01.05 0 .07.03 0 .08.03.07.06 0 .03-.02.03-.04.03H6.7c-.02 0-.04.02-.06.05l-.04.04a.78.78 0 0 0-.02.19c0 .03-.03.07-.05.08l-.05-.04a.46.46 0 0 1-.04-.12c-.01-.06 0-.12.01-.17a.23.23 0 0 1 .1-.11Z" fill="#E2D59D"/><path d="m8.03 8.7.14-.04.04.03c.02.06.02.2.04.2 0 0-.12.25.12.49l-.17.08.11.05.05.05c.03.02.04.04.03.05-.01-.01-.06-.04-.07-.01-.01.03-.23.02-.23.02l-.37.08s.01-.04-.03-.08c-.04-.05-.1 0-.15-.06-.08-.06-.09-.15-.11-.18.13-.09.28-.4.42-.42.11-.01.2-.13.18-.26Z" fill="#CBAC5A"/><path d="M8.37 9.58s.2.12.26.26c.13.3-.21.5-.41.53-.06.01-.22-.02-.25.03-.17.28-.17.44-.56.67-.04.03-.3.17-.4.15-.2-.07-.43-.47-.64-.62l-.06-.15c-.04-.07-.1-.17-.13-.26-.1-.2-.1-.28-.18-.4l.06-.01.68.26 1.2.04.3-.52.13.02Z" fill="#DFC677"/><path d="m6.43 10.15.59-.34.69.04.56-.2s.12.01.1.15c-.07.39-.56.48-.81.6-.3.13-.37.04-.39.02-.18 0-.42.14-.56-.05-.05-.08-.17-.12-.18-.22Z" fill="#927D49"/><path d="M5.92 8.24s-.02.02-.03.09c-.01.06 0 .06-.02.1 0 .05-.12.5-.08.65.05.15.12.21.17.33l.02.07c.02.08 0 .14.02.22 0 .03.02.06.05.1l.18.17c.06.07.13.2.23.22.05 0 .13-.02.2-.06.05-.04.08-.1.14-.13.04-.03.08-.03.12-.05a.48.48 0 0 1 .2 0c.06.01.22.07.3.07.08 0 .14-.02.2-.04.14-.04.3-.12.4-.15.07-.03.12-.03.17-.04.09-.03.16-.06.2-.12-.03-.04-.06-.1-.25-.1-.2 0-.45.15-.57.17-.12.02-.17.04-.3-.02-.13-.06-.14-.1-.14-.1s-.13-.1-.2-.4a.8.8 0 0 1 .16-.69c.04-.05.03-.1.03-.1s.1-.15.07-.3c-.03-.14-.22-.1-.22-.1l-1.05.2Z" fill="#6E6342"/><path d="M5.94 8.02 5.97 8c-.02.04-.1.2-.04.45.07.25.24.44.45.45.21 0 .33-.11.45-.3.05-.07.1-.16.16-.22.08-.1.14-.12.14-.22 0-.19-.17-.27-.42-.36-.24-.08-.46-.07-.58-.01a.36.36 0 0 0-.19.23ZM5.93 9.38h.02c.01 0 .15-.07.3-.06.12.01.23.03.34.07.19.06.42.17.58.24l.1.06.2.07c.07.01.16-.02.24-.04.1-.03.29-.04.45-.07a.8.8 0 0 0 .15-.04s-.13.15-.43.2c-.12.02-.25.03-.37 0a.97.97 0 0 1-.2-.04l-.3-.1-.33-.08a3.4 3.4 0 0 1-.75-.21Z" fill="#252211"/><path d="m10.9 5.95-.05.1a.34.34 0 0 1-.04-.07c-.04-.07-.09-.16-.21-.1v-.11c.08-.02.47-.51.49-.62-.2.1-.16-.15-.52.07.04-.1.13-.21.14-.33l.14-.08.4-.1h.25l-.03.22-.15.36-.13.34-.15.2-.14.12Z" fill="#543E26"/></svg>