<!-- by TradingView --><svg width="18" height="18" viewBox="0 0 18 18" xmlns="http://www.w3.org/2000/svg"><path fill="url(#a)" d="M0 0h18v18H0z"/><path fill-rule="evenodd" d="M14.08 10.91a4.6 4.6 0 0 0-1.2-5.45 5.98 5.98 0 0 0-7.78 0A4.78 4.78 0 0 0 3.51 9c0 1.33.58 2.6 1.61 3.54a5.98 5.98 0 0 0 7.78 0 5 5 0 0 0 1.2-1.63Zm-1.47.74a4.1 4.1 0 0 0 1.5-3.1 4.1 4.1 0 0 0-1.5-3.1A5.57 5.57 0 0 0 9 4.17c-1.36 0-2.66.46-3.61 1.28a4.1 4.1 0 0 0-1.5 3.1 4.1 4.1 0 0 0 1.5 3.1A5.57 5.57 0 0 0 9 12.93c1.36 0 2.66-.46 3.61-1.28ZM9 7.33c.54 0 .98-.36.98-.82 0-.46-.43-.84-.96-.84-.54 0-.98.36-.98.82 0 .46.43.84.96.84Zm-1.93.8c.01.46-.4.85-.94.87-.54.02-.99-.34-1-.8-.02-.46.4-.85.94-.87.53-.02.98.34 1 .8Zm4.5.87c.54.02.98-.34 1-.8.01-.46-.4-.85-.94-.87-.54-.01-.99.35-1 .8-.02.47.4.85.94.87Zm-2.33-.65-.22-.02-.23.02c-.98.1-1.58.78-1.7 1.7-.06.36.02.64.38.78.16.07.34.12.52.13a12.1 12.1 0 0 0 2.03 0c.19 0 .36-.05.53-.12.35-.14.44-.42.39-.78-.12-.92-.71-1.6-1.7-1.7Z" fill="#F5AC01"/><defs><linearGradient id="a" x1="3.35" y1="3.12" x2="21.9" y2="24.43" gradientUnits="userSpaceOnUse"><stop stop-color="#1A1E21"/><stop offset="1" stop-color="#06060A"/></linearGradient></defs></svg>