<!-- by TradingView --><svg width="18" height="18" viewBox="0 0 18 18" xmlns="http://www.w3.org/2000/svg"><path fill="url(#a)" d="M0 0h18v18H0z"/><path d="M12.94 12.24a4.11 4.11 0 0 1-1.89 1.33c-.76.27-1.57.41-2.42.42H6.2c-.28 0-.5.03-.7-.06a.8.8 0 0 1-.47-.53 3.5 3.5 0 0 1-.04-.64V4.84c0-.28.11-.5.33-.67A.8.8 0 0 1 5.85 4h2.92c1.14 0 2.26.21 3.22.76.89.5 1.52 1.38 1.8 2.3a5.2 5.2 0 0 1 .2 1.95 5.1 5.1 0 0 1-1.05 3.23Z" fill="#EECF43"/><path d="M10.48 9.68a.06.06 0 0 1 .06-.02c.59.12 1.17.1 1.74-.06.12-.03.27-.09.33-.2a.04.04 0 0 0 0-.03.3.3 0 0 0-.1-.15c-.27-.2-.6-.32-.92-.48 0-.05.06-.1.15-.13.3-.12.52-.25.66-.53.09-.18.1-.34.02-.5a.08.08 0 0 0-.03-.04 3.94 3.94 0 0 0-1.1.17c0-.02-.02-.02-.04-.02-.03.02-.06.02-.07 0-.31-1.07-1.4-1.68-2.54-1.61-.9.05-1.74.52-2.1 1.31-.41.91-.04 1.94.83 2.47.04.02.04.03 0 .04a4.7 4.7 0 0 0-1.88.56v-5.8c0-.03.02-.08.06-.12.08-.1.2-.16.34-.16h2.94c.27 0 .6.02 1.01.07.69.08 1.32.28 1.9.62.67.38 1.15.91 1.46 1.6.32.74.4 1.54.37 2.37a4.43 4.43 0 0 1-1.54 3.46c-.03.02-.04.01-.03-.02.13-1.28-.91-2.1-2.1-2.41-.04 0-.04-.02-.01-.03.21-.1.4-.21.59-.36Z" fill="#16191C"/><path d="M10.52 7.59c.03.15.07.3.07.45 0 .2-.05.38-.13.56a.48.48 0 0 1-.17.04c-.46 0-.9-.04-1.31-.22-.38-.17-.58-.67-.65-1.05-.02-.13.02-.26.15-.29a.55.55 0 0 1 .27.02l1.77.49ZM11.6 8.74c-.17-.09-.3-.18-.41-.3l.1-.73a3.94 3.94 0 0 1 1.1-.17l.03.04c.08.16.07.32-.02.5-.14.28-.36.41-.66.53-.1.03-.14.08-.15.13Z" fill="#0E0E06"/><path d="M11.18 7.7h.07c.02-.01.03 0 .03.01l-.1.74-.1-.1c.05-.12-.04-.26-.17-.16a.72.72 0 0 0-.33.35l-.02.01a.04.04 0 0 0-.03.03c0 .02-.01.02-.03.03h-.04c.08-.2.12-.38.13-.57 0-.15-.04-.3-.07-.45.14.07.24.13.32.15.12.05.23.03.34-.04Z" fill="#7D7B77"/><path d="m10.9 8.19.18.16.1.1c.12.1.25.2.41.29.31.16.65.28.92.48a.3.3 0 0 1 .1.15v.03c-.06.11-.2.17-.33.2-.57.16-1.15.18-1.74.06-.02 0-.04 0-.06.02-.01-.02-.02-.04-.04-.04a2.34 2.34 0 0 1-.55-.17.83.83 0 0 1-.26-.15c-.12-.12-.01-.2.1-.25.2-.1.4-.24.58-.39l-.02-.04c.06 0 .12-.02.17-.04h.04c.02 0 .03 0 .03-.02l.03-.03h.02v-.02a.72.72 0 0 1 .33-.34Z" fill="#EC732E"/><defs><linearGradient id="a" x1="3.35" y1="3.12" x2="21.9" y2="24.43" gradientUnits="userSpaceOnUse"><stop stop-color="#1A1E21"/><stop offset="1" stop-color="#06060A"/></linearGradient></defs></svg>