<!-- by TradingView --><svg width="18" height="18" viewBox="0 0 18 18" xmlns="http://www.w3.org/2000/svg"><path fill="#009FE1" d="M0 0h18v18H0z"/><path d="M14.97 5.41c.01-.14-.12-.3-.26-.33-1.53-.28-2.24.66-2.24.66L9.82 8.69l.82 1.05 3.27-2.15c1.11-.73 1.06-2.18 1.06-2.18ZM13.8 6.9a.53.53 0 0 1-.77-.08.6.6 0 0 1 .07-.81c.24-.2.58-.17.77.08.2.24.16.6-.07.8ZM10.5 7.6l-1.27-.38-.34.29.79 1 .81-.91Z" fill="#039"/><path d="M3.12 12.43c.26.62 1.23.76 2.64.3.68-.22 2.13-.8 2.97-1.41a10.35 10.35 0 0 0 1.68-1.4l-.8-1.06s-.74.78-1.94 1.33c-.9.42-2.36.92-2.77.7-.67-.35.28-1.3.28-1.3-1.14.26-1.97.82-2.16 1.92-.04.27-.03.63.1.92Z" fill="url(#a)"/><path d="m10.78 9.92.78 1 .34-.29-.11-1.37-1.01.66Z" fill="#039"/><path d="m13.41 5.48.03.1h.1l-.08.05.03.1-.08-.06-.08.06.03-.1-.08-.06h.1l.03-.1ZM13.82 5.59l.03.1h.1l-.09.06.03.1-.07-.06-.08.06.03-.1-.08-.06h.1l.03-.1ZM14.11 5.9l.03.1h.1l-.08.06.03.1-.08-.06-.08.06.03-.1-.08-.06h.1l.03-.1ZM14.22 6.33l.03.1h.1l-.08.05.03.1-.08-.06-.08.06.03-.1-.08-.06h.1l.03-.1ZM14.11 6.75l.03.1h.1l-.08.06.03.1-.08-.06-.08.06.03-.1-.08-.06h.1l.03-.1ZM13.41 7.18l.03.1h.1l-.08.05.03.1-.08-.06-.08.06.03-.1-.08-.06h.1l.03-.1ZM12.7 6.75l.04.1h.1l-.08.06.03.1-.08-.06-.08.06.03-.1-.08-.06h.1l.03-.1ZM12.7 5.9l.04.1h.1l-.08.06.03.1-.08-.06-.08.06.03-.1-.08-.06h.1l.03-.1ZM13 5.59l.04.1h.1l-.09.06.03.1-.07-.06-.08.06.03-.1-.08-.06h.1l.03-.1Z" fill="#FFCE00"/><defs><linearGradient id="a" x1="2.99" y1="13.57" x2="10.2" y2="10.15" gradientUnits="userSpaceOnUse"><stop/><stop offset=".5" stop-color="#D00"/><stop offset="1" stop-color="#FFCE00"/></linearGradient></defs></svg>