<!-- by TradingView --><svg width="18" height="18" viewBox="0 0 18 18" xmlns="http://www.w3.org/2000/svg"><path fill="#F0F3FA" d="M0 0h18v18H0z"/><path d="M14.8 9A5.8 5.8 0 1 1 3.2 9a5.8 5.8 0 0 1 11.6 0Z" fill="#FFEC62"/><path d="M15 9A6 6 0 1 1 3 9a6 6 0 0 1 12 0Zm-6 5.8A5.8 5.8 0 1 0 9 3.2a5.8 5.8 0 0 0 0 11.6Z" fill="#8D6521"/><circle cx="9" cy="9" r="5.19" fill="#D8B343"/><path fill-rule="evenodd" d="M9 13.14a4.14 4.14 0 1 0 0-8.28 4.14 4.14 0 0 0 0 8.28Zm0 .15a4.29 4.29 0 1 0 0-8.58 4.29 4.29 0 0 0 0 8.58Z" fill="#8D6521"/><path d="M12.27 9a3.27 3.27 0 1 1-6.54 0 3.27 3.27 0 0 1 6.54 0Z" fill="#B88829"/><path fill-rule="evenodd" d="M9 12.13a3.13 3.13 0 1 0 0-6.26 3.13 3.13 0 0 0 0 6.26Zm0 .14a3.27 3.27 0 1 0 0-6.54 3.27 3.27 0 0 0 0 6.54Z" fill="#8D6521"/><path d="m7.74 10.07 1.29 2.02.84-.9c.1-.12.14-.24.15-.28.72-1.45.42-2.76-.46-5.57L9.03 4.3l-.57.97c-.48 1.45-.68 3.8-.72 4.8Z" fill="url(#aq0xdv5xx)"/><path d="m9.03 4.15.6 1.17c.88 2.8 1.2 4.14.46 5.61a.72.72 0 0 1-.16.3l-.85.91-.06.07-1.36-2.12v-.03c.05-1 .25-3.35.73-4.81v-.01l.64-1.1Zm-.5 1.15a21.5 21.5 0 0 0-.72 4.75l1.23 1.93.78-.84c.1-.11.12-.21.13-.24v-.02c.71-1.42.42-2.7-.46-5.52l-.47-.91-.5.85Z" fill="#341902"/><path d="m10.51 8.82.2 1.07c.14-.06.44-.2.5-.24.07-.03.1-.07.12-.08.55-.49.64-1.09.75-2.42l-.04-.52-.4.3a9.75 9.75 0 0 0-1.13 1.9Z" fill="url(#bq0xdv5xx)"/><path d="m12.1 6.5.06.66c-.11 1.32-.21 1.95-.78 2.45a.37.37 0 0 1-.13.11l-.51.24-.09.04-.21-1.19V8.8c.2-.4.69-1.37 1.14-1.9l.52-.4Zm-.41.5c-.43.5-.9 1.41-1.1 1.83l.17.96a25.55 25.55 0 0 0 .5-.26v-.01l.02-.01c.52-.46.62-1.03.73-2.36l-.03-.38-.3.22Z" fill="#341902"/><path d="m11.22 10.24-.04 1.53.74-.23c.1-.03.16-.08.17-.1.88-.56 1.18-1.37 1.72-3.2l.09-.74-.63.35c-.75.63-1.68 1.86-2.05 2.39Z" fill="url(#cq0xdv5xx)"/><path d="m13.99 7.37-.11.9c-.53 1.8-.84 2.65-1.74 3.23a.5.5 0 0 1-.2.11l-.74.23-.1.02.05-1.65.01-.02a15 15 0 0 1 2.06-2.4l.77-.42Zm-.68.54c-.73.62-1.64 1.81-2.01 2.35l-.05 1.4.65-.19a.36.36 0 0 0 .14-.08l.02-.01c.84-.54 1.14-1.33 1.67-3.15l.08-.6-.5.28Z" fill="#341902"/><path d="m6.77 10.24.04 1.53-.74-.23a.42.42 0 0 1-.18-.1c-.87-.56-1.17-1.37-1.7-3.2l-.1-.74.63.35c.75.63 1.68 1.86 2.05 2.39Z" fill="url(#dq0xdv5xx)"/><path d="m4 7.37.11.9c.53 1.8.84 2.65 1.74 3.23.03.03.1.08.2.11l.74.23.1.02-.05-1.65-.02-.02a15 15 0 0 0-2.05-2.4h-.01L4 7.37Zm.68.54c.73.62 1.64 1.81 2.01 2.35l.05 1.4-.65-.19a.35.35 0 0 1-.14-.08l-.02-.01c-.84-.54-1.14-1.33-1.68-3.15l-.07-.6.5.28Z" fill="#341902"/><path d="m7.49 8.82-.2 1.07c-.14-.06-.44-.2-.5-.24a.28.28 0 0 1-.11-.08c-.56-.49-.65-1.09-.76-2.42l.04-.52.4.3c.45.53.94 1.48 1.13 1.9Z" fill="url(#eq0xdv5xx)"/><path d="m5.9 6.5-.06.66c.11 1.32.21 1.95.78 2.45.02.03.07.08.13.11l.51.24.09.04.21-1.19V8.8a9.82 9.82 0 0 0-1.14-1.9l-.52-.4Zm.41.5c.44.5.9 1.41 1.1 1.83l-.17.96a25.36 25.36 0 0 1-.5-.26v-.01l-.02-.01C6.2 9.05 6.1 8.48 6 7.15l.03-.38.3.22Z" fill="#341902"/><path d="M8.29 13c-.01.67.49 1.14.74 1.29.22-.2.81-.86.81-1.23 0-.23-.58-.58-.81-.65-.23.08-.6.37-.74.59Z" fill="url(#fq0xdv5xx)"/><path d="M9.03 12.33h.02a1.99 1.99 0 0 1 .75.5c.06.07.11.15.11.23 0 .11-.04.23-.1.35a3.96 3.96 0 0 1-.73.93l-.04.04-.05-.03A1.65 1.65 0 0 1 8.21 13v-.02l.02-.02c.07-.11.21-.24.35-.36.14-.1.3-.2.43-.25h.02Zm0 .15c-.1.04-.23.13-.36.23-.13.1-.24.21-.31.3 0 .6.41 1.02.66 1.19a4.06 4.06 0 0 0 .66-.85.68.68 0 0 0 .09-.29c0-.03-.02-.08-.08-.14a1.95 1.95 0 0 0-.66-.43Z" fill="#341902"/><defs><linearGradient id="aq0xdv5xx" x1="9.08" y1="4.3" x2="9.08" y2="12.09" gradientUnits="userSpaceOnUse"><stop stop-color="#FFF894"/><stop offset=".31" stop-color="#E7C233"/><stop offset=".46" stop-color="#FFE478"/><stop offset=".61" stop-color="#CE9801"/><stop offset=".85" stop-color="#A4750F"/></linearGradient><linearGradient id="bq0xdv5xx" x1="12.06" y1="6.64" x2="10.73" y2="9.9" gradientUnits="userSpaceOnUse"><stop stop-color="#FFF894"/><stop offset=".31" stop-color="#E7C233"/><stop offset=".46" stop-color="#FFE478"/><stop offset=".61" stop-color="#CE9801"/><stop offset=".85" stop-color="#A4750F"/></linearGradient><linearGradient id="cq0xdv5xx" x1="13.92" y1="7.52" x2="11.2" y2="11.78" gradientUnits="userSpaceOnUse"><stop stop-color="#FFF894"/><stop offset=".31" stop-color="#E7C233"/><stop offset=".46" stop-color="#FFE478"/><stop offset=".61" stop-color="#CE9801"/><stop offset=".85" stop-color="#A4750F"/></linearGradient><linearGradient id="dq0xdv5xx" x1="4.06" y1="7.52" x2="6.79" y2="11.78" gradientUnits="userSpaceOnUse"><stop stop-color="#FFF894"/><stop offset=".31" stop-color="#E7C233"/><stop offset=".46" stop-color="#FFE478"/><stop offset=".61" stop-color="#CE9801"/><stop offset=".85" stop-color="#A4750F"/></linearGradient><linearGradient id="eq0xdv5xx" x1="5.94" y1="6.64" x2="7.27" y2="9.9" gradientUnits="userSpaceOnUse"><stop stop-color="#FFF894"/><stop offset=".31" stop-color="#E7C233"/><stop offset=".46" stop-color="#FFE478"/><stop offset=".61" stop-color="#CE9801"/><stop offset=".85" stop-color="#A4750F"/></linearGradient><linearGradient id="fq0xdv5xx" x1="9.06" y1="12.41" x2="9.06" y2="14.29" gradientUnits="userSpaceOnUse"><stop stop-color="#FFF894"/><stop offset=".31" stop-color="#E7C233"/><stop offset=".61" stop-color="#CE9801"/><stop offset=".85" stop-color="#A4750F"/></linearGradient></defs></svg>