<!-- by TradingView --><svg width="18" height="18" viewBox="0 0 18 18" xmlns="http://www.w3.org/2000/svg"><path fill="#F0F3FA" d="M0 0h18v18H0z"/><path d="M9.75 3.34c-.02.05 0 .09.04.12.09.08.18.16.27.27l.06.04.05.05.21.19.13.1.14.13.1.1a9.34 9.34 0 0 1 .64 1.27l.02.08a26.85 26.85 0 0 1 .05.73l.02.1c0 .07.03.15.06.24l.01.04a3 3 0 0 0 0 .25c0 .06 0 .1-.02.14a.7.7 0 0 0-.02.12c0 .08-.02.13-.04.17l-.05.2-.03.1v.18l-.06.16a4.1 4.1 0 0 0-.16.28c-.06.09-.14.17-.21.25a20.72 20.72 0 0 0-.46.5 1.93 1.93 0 0 1-1.07.53c-.02 0-.02 0-.01.02l.02.02a2.61 2.61 0 0 1-1 .09 12.15 12.15 0 0 0-1.14-.14c-.14-.02-.3-.07-.45-.16a6.95 6.95 0 0 0-.5-.24.58.58 0 0 1-.24-.2l.33.12a7.2 7.2 0 0 0 .98.27c.06.02.1.01.16-.01.11-.05.24-.1.38-.13.28-.08.55-.18.8-.3a.45.45 0 0 1 .12-.1.28.28 0 0 0 .1-.08.14.14 0 0 0 0-.15.24.24 0 0 0-.11-.08l-.3-.15a.98.98 0 0 1 .27-.17 2.9 2.9 0 0 0 .33-.18l.03-.02a13.48 13.48 0 0 0 .77-.54c.08-.07.14-.16.2-.26a29.69 29.69 0 0 1 .44-.87c.1-.2.14-.42.13-.65a10 10 0 0 1-.01-.54l-.02-.26c0-.03 0-.06-.02-.1a1.07 1.07 0 0 0-.05-.1.84.84 0 0 1-.07-.12.32.32 0 0 0-.07-.12 3.68 3.68 0 0 1-.36-.37 2.12 2.12 0 0 1-.12-.12 1.74 1.74 0 0 0-.24-.23 2.63 2.63 0 0 0-.23-.18 2.15 2.15 0 0 0-.51-.2.82.82 0 0 1-.13-.06 28.05 28.05 0 0 1-.62-.2.87.87 0 0 0-.24-.02H7.3l.06-.03.18-.05c.47-.08.92-.1 1.35-.02.28.04.56.14.85.29Z" fill="#C3B406"/><path d="M7.3 3.15h.36c.02 0 .02.02-.02.06l-.01.02.01.01h.02c.1-.02.18 0 .24.03.02.02.04.03.07.03l.07.02c.05 0 .09.02.11.03l.15.04a20.17 20.17 0 0 0 .65.2 5.03 5.03 0 0 1 .46.2l.08.1.1.1a.6.6 0 0 1 .1.12c.03.05.06.1.09.12a.5.5 0 0 1 .07.08 1.69 1.69 0 0 1 .1.18c.05.08.11.15.19.22a.2.2 0 0 1 .06.13l.03.16.03.3a5.61 5.61 0 0 1-.08.86 3.03 3.03 0 0 1-.11.32.28.28 0 0 1-.08.13.28.28 0 0 1-.19.07c-.1-.11-.19-.18-.25-.22a.87.87 0 0 0-.45-.08.76.76 0 0 0-.52.33c0-.02-.02-.01-.04.03 0 .01 0 .02-.02.03a.09.09 0 0 0-.03.07.07.07 0 0 1-.01.04 10.46 10.46 0 0 1 0 .33l.01.08c.01.06.04.1.09.14l.01.03c0 .02.02.04.04.05.05.04.06.09.04.15v.03l.01.01a.02.02 0 0 1 0 .03.97.97 0 0 1-.26.18c-.06.02-.11.06-.17.1l-.16.1-.01-.02a1181.48 1181.48 0 0 1-.34-.76.24.24 0 0 0-.1-.13c-.41-.23-.8-.43-1.17-.62a.2.2 0 0 0-.12-.02l-.77.12a.25.25 0 0 0-.13.07 7.16 7.16 0 0 0-.5.54l-.2-.74a.38.38 0 0 1-.02-.18l.17-1.03a.44.44 0 0 1 .08-.18 240.93 240.93 0 0 0 .74-1.04c.1-.11.18-.2.25-.25.1-.1.19-.17.28-.22l.82-.43a.77.77 0 0 1 .24-.07Z" fill="#DFD70C"/><path d="M7.66 3.14h.39c.09 0 .17.02.23.04a28.08 28.08 0 0 0 .63.2l.13.04a2.15 2.15 0 0 1 .64.29 2.63 2.63 0 0 1 .2.18l.14.15.12.12.17.18.19.2c.03.02.05.06.07.11l.07.13.05.1.02.09.02.26a3.97 3.97 0 0 1 .01.54c0 .23-.04.45-.13.65a1327.97 1327.97 0 0 0-.2.41l-.25.46c-.05.1-.1.19-.19.26a13.49 13.49 0 0 1-1.4.9l-.18-.08a1.45 1.45 0 0 1-.15-.1l-.15-.16a9.32 9.32 0 0 0 .33-.2c.1-.04.18-.1.26-.18a.02.02 0 0 0 0-.03.03.03 0 0 1-.01-.04c.02-.06.01-.11-.04-.15a.08.08 0 0 1-.04-.05l-.01-.03a.22.22 0 0 1-.09-.14.37.37 0 0 0-.02-.08 10.37 10.37 0 0 0 0-.33h.01l.01-.04c0-.03.01-.05.03-.07l.02-.03c.02-.04.03-.05.04-.03a.64.64 0 0 0-.02.67c.02.04.1.13.21.25a.2.2 0 0 0 .1.05l.08.03.1.03.09.01c.2 0 .38-.09.5-.24a.8.8 0 0 0 .16-.83c.08 0 .14-.02.19-.07a.28.28 0 0 0 .08-.13 2.48 2.48 0 0 1 .1-.32A5.6 5.6 0 0 0 10.23 5a3.81 3.81 0 0 1-.02-.16.2.2 0 0 0-.06-.13 1.07 1.07 0 0 1-.23-.3 1.69 1.69 0 0 0-.06-.1.5.5 0 0 0-.07-.08.64.64 0 0 1-.1-.12A.6.6 0 0 0 9.6 4a.89.89 0 0 1-.1-.12.84.84 0 0 0-.09-.1 5.02 5.02 0 0 0-1.1-.4.85.85 0 0 1-.16-.03.49.49 0 0 0-.11-.03.63.63 0 0 1-.07-.02.24.24 0 0 1-.07-.03c-.06-.04-.14-.05-.24-.03h-.03V3.2c.05-.04.05-.06.03-.07Z" fill="#D5CB07"/><path d="m9.75 3.34.24.14c.07.1.15.2.25.28.1.07.19.15.27.24a1.04 1.04 0 0 0 .17.16l.13.12.1.17.06.1.02.04.05.1c.03.1.07.17.11.24l.03.06.05.07.01.02c.02.08.05.15.09.22a.4.4 0 0 1 .02.07l.05.07c.01.02.02.03.01.05v.03l.02.05c.03.1.04.17.04.24a10.32 10.32 0 0 0 .07.95.82.82 0 0 1-.06-.25l-.02-.1a27.94 27.94 0 0 0-.07-.81.59.59 0 0 1-.03-.1l-.02-.02a.28.28 0 0 1-.08-.14 4 4 0 0 0-.15-.3 9.33 9.33 0 0 0-.37-.7.37.37 0 0 0-.1-.1 1.26 1.26 0 0 1-.13-.12 1.3 1.3 0 0 0-.13-.11 1.52 1.52 0 0 1-.21-.2.32.32 0 0 0-.05-.04.29.29 0 0 1-.06-.04c-.09-.1-.18-.2-.27-.27-.05-.03-.06-.07-.04-.12Z" fill="#A89B05"/><path d="m10 3.48.36.19c.15.2.32.4.5.56.05.04.12.17.23.38a.1.1 0 0 1 0 .05.1.1 0 0 0 .01.05c.05.08.08.15.1.23 0 0 0 .02.02.02l.02.03a16.37 16.37 0 0 0 .24.52v.1a11.91 11.91 0 0 0 .1 1.2v.16l-.03-.17v-.04a3.14 3.14 0 0 1-.06-.66l-.02-.3a1.18 1.18 0 0 0-.06-.31l-.01-.05a.15.15 0 0 1-.05-.07.4.4 0 0 0-.02-.07 1.2 1.2 0 0 1-.09-.22l-.01-.02a.14.14 0 0 1-.05-.07.32.32 0 0 0-.03-.06 1.18 1.18 0 0 1-.1-.23.56.56 0 0 0-.08-.15.62.62 0 0 1-.06-.1.54.54 0 0 0-.1-.17 1.15 1.15 0 0 0-.18-.15 1.04 1.04 0 0 1-.12-.13 1.67 1.67 0 0 0-.27-.24.99.99 0 0 1-.25-.28Z" fill="#908303"/><path d="M10.36 3.67a2.4 2.4 0 0 1 .72.76h-.03c-.02.01-.02.02-.02.03l.02.02.01.01a11.97 11.97 0 0 0 .31.66c.06.1.1.23.15.37a.77.77 0 0 1 .02.25l.01.2.03.35c0 .05.01.1.04.16l.03.12.01.13c0 .04.02.06.05.05l-.1.22c0 .02-.01.02-.02 0l-.01-.03V6.56a11.91 11.91 0 0 1-.1-1.04.2.2 0 0 0-.03-.07.5.5 0 0 1-.06-.14 1.76 1.76 0 0 0-.52-1.08 3.64 3.64 0 0 1-.5-.56Z" fill="#706302"/><path d="m11.08 4.43.39.54c-.03.07-.01.16.06.26l.04.05.02.05.03.24a4.17 4.17 0 0 0 .04.57.95.95 0 0 0 .05.25c0 .02.01.03.03.03l.04-.01a.14.14 0 0 0 .03-.07v-.07a5.11 5.11 0 0 1-.05-.37.6.6 0 0 1-.03-.12l-.01-.09a.66.66 0 0 1-.02-.1l-.02-.13a5.24 5.24 0 0 1-.04-.24l.04.1a58.84 58.84 0 0 0 .18 1.08v.1l-.15.28c-.03 0-.05 0-.05-.05l-.01-.13a.56.56 0 0 0-.03-.12.5.5 0 0 1-.04-.16 4.42 4.42 0 0 0-.04-.6c0-.09 0-.16-.02-.2a2.61 2.61 0 0 0-.2-.5 11.8 11.8 0 0 1-.27-.6l.03.01Z" fill="#514602"/><path d="M8.84 4.9c.13.12.17.26.15.4a.63.63 0 0 1-.08.2l-.13.2a.51.51 0 0 1-.13.1.58.58 0 0 0-.1.08.11.11 0 0 1-.05.03h-.06l-.6-.06a6.25 6.25 0 0 1-.88-.08H6.7c-.17.05-.26.03-.28-.06-.03-.1-.05-.22-.06-.34v-.13l.05-.1.03-.09a.68.68 0 0 1 .26-.32c.26-.14.54-.2.83-.17a7.85 7.85 0 0 0 .51.05l.12.01.4.1c.1.03.2.09.28.17Z" fill="#EBE458"/><path d="M11.47 4.97c.08.08.13.16.17.25a5.25 5.25 0 0 0 .1.56c0 .04 0 .08.02.12l.02.11a5.12 5.12 0 0 0 .03.33c0 .03-.02.05-.03.07a.03.03 0 0 1-.04.01.03.03 0 0 1-.03-.03l-.01-.05a.95.95 0 0 1-.04-.2 4.31 4.31 0 0 0-.04-.57l-.03-.24a.1.1 0 0 0-.02-.05.67.67 0 0 1-.04-.05c-.07-.1-.1-.2-.06-.26Z" fill="#271F01"/><path d="M14.52 8.07h-.17l-.02.03v.03c.05.2.07.41.04.62a1.3 1.3 0 0 0 0 .24 2.96 2.96 0 0 1-.13 1.04l-.01.06a31.89 31.89 0 0 1-.33 1.04 53.02 53.02 0 0 0-.22.58c-.08.23-.17.42-.29.56l-.04.05-.2.23a3.13 3.13 0 0 0-.37.45l-.1.11c-.03.04-.07.1-.14.16a2.5 2.5 0 0 0-.17.2 2.6 2.6 0 0 1-.22.32.3.3 0 0 1-.13.1 20.44 20.44 0 0 0-.95.37c-.24.1-.49.2-.73.28-.05.01-.18.08-.36.2-.02 0-.02.01 0 .02l.03.02v.02l-.01.01-.61.18a729.28 729.28 0 0 1-1.96-.34 4.2 4.2 0 0 1-1.11-.38 893.19 893.19 0 0 0-1.78-1.04.27.27 0 0 1-.08-.14c.05 0 .1.03.17.07l.12.05.13.06a6 6 0 0 0 .53.3c.19.13.38.24.56.33l.3.16c.14.08.3.14.46.17a88.39 88.39 0 0 1 1.72.32 6.64 6.64 0 0 0 .77.12 4.62 4.62 0 0 1 .45-.13 2.13 2.13 0 0 0 .12-.07l.15-.07a4.62 4.62 0 0 0 .79-.32l.08-.03a2.91 2.91 0 0 1 .39-.14l.19-.08a5.05 5.05 0 0 0 .77-.36l.08-.08.07-.07a.76.76 0 0 0 .1-.11c.03-.05.08-.12.16-.2l.12-.13a12.54 12.54 0 0 0 .33-.45.46.46 0 0 0 .04-.1.6.6 0 0 1 .02-.07l.06-.12a5.7 5.7 0 0 1 .38-.98 4.9 4.9 0 0 1 .17-.42l.01-.06c0-.02.02-.04.03-.05a.28.28 0 0 0 .06-.1l.02-.17v-.16c-.02-.1-.02-.18-.01-.23a7.99 7.99 0 0 0 .06-.43 48.06 48.06 0 0 0 .12-1.56l-.02-.12a.32.32 0 0 0-.03-.1.37.37 0 0 1-.03-.09l-.03-.14a6.92 6.92 0 0 1-.18-.62.37.37 0 0 0-.09-.13.62.62 0 0 1-.1-.14 15.81 15.81 0 0 1-.76-1.14.78.78 0 0 1-.12-.18.64.64 0 0 0-.1-.13.6.6 0 0 1-.1-.2c.03-.01.05 0 .07.02l1.86 2.56c.09.13.14.3.17.5Z" fill="#908303"/><path d="M12.41 5a.6.6 0 0 0 .12.19l.1.13c.02.07.06.13.1.18l.1.11a2.62 2.62 0 0 1 .16.28 23.66 23.66 0 0 1 .61.9c.03.02.06.06.09.12l.05.14a6.92 6.92 0 0 0 .22.8 2.6 2.6 0 0 0 .03.28.8.8 0 0 1 0 .17 47.24 47.24 0 0 1-.13 1.24 7.99 7.99 0 0 1-.06.43v.23l.01.16c0 .06 0 .12-.02.16a.28.28 0 0 1-.06.11.15.15 0 0 0-.03.05l-.01.06-.02.07-.15.35-.13.33a5.7 5.7 0 0 0-.33.85.46.46 0 0 1-.04.09 3 3 0 0 0-.13.19 12.54 12.54 0 0 1-.73.85 5.06 5.06 0 0 1-.97.43 4.59 4.59 0 0 1-1.42.57 2.03 2.03 0 0 1-.21.1 4.73 4.73 0 0 0-.38.1 4.32 4.32 0 0 1-1.49-.26c-.07 0-.12-.02-.16-.03a84.1 84.1 0 0 0-.8-.15 1.57 1.57 0 0 1-.47-.17l-.29-.16a4.17 4.17 0 0 1-.65-.37 6.06 6.06 0 0 1-.57-.32.75.75 0 0 1-.12-.05.46.46 0 0 0-.17-.07.5.5 0 0 1-.08-.16c.08.03.15.07.21.11l.14.07.16.06 1.08.65a1.97 1.97 0 0 0 1 .3l.42.09.36.07a6.18 6.18 0 0 1 .68.13c.08 0 .14.02.18.03.05.02.14.04.25.05l.2.03c.08.02.17.02.25 0a.66.66 0 0 0 .23-.09.34.34 0 0 1 .08-.04l.08-.02a172.84 172.84 0 0 0 2.34-.95l.09-.06a.82.82 0 0 0 .07-.04 2.38 2.38 0 0 0 .37-.52c.1-.13.17-.25.2-.36l.11-.23c.05-.1.09-.17.1-.23l.11-.23a5.84 5.84 0 0 0 .4-.96c.03-.1.04-.2.04-.3 0-.16 0-.34.03-.52l.08-.89.02-.2.03-.18.03-.12.1-.6-.01-.14a7.58 7.58 0 0 1-.1-.37 3.73 3.73 0 0 1-.1-.39.62.62 0 0 0-.23-.37.54.54 0 0 1-.08-.1 1.47 1.47 0 0 0-.11-.12l-.12-.15a4.92 4.92 0 0 1-.31-.51l-.13-.21a2.57 2.57 0 0 0-.32-.46.1.1 0 0 0-.07 0 2.6 2.6 0 0 0-.3.12c-.01 0-.02 0-.01-.02v-.02h-.03l.51-.24Z" fill="#A89B05"/><path d="m4.38 12.93-.16-.35c.07-.01.14 0 .22.05a58.94 58.94 0 0 0 1.47.84l.25.1.27.05.29.07a3.06 3.06 0 0 0 .53.1c.07.03.12.03.16.03a17.06 17.06 0 0 0 .66.11c.3.05.5.1.66.14.16.04.31.06.46.06.03 0 .07 0 .12-.02l.12-.04.1-.04a8.1 8.1 0 0 0 1.87-.86c.27-.14.5-.28.66-.42.11-.09.2-.2.25-.37 0 0 0-.02.02-.03a.1.1 0 0 0 .02-.03c.07-.16.16-.3.26-.43a.8.8 0 0 0 .1-.14l.06-.15c0-.04.04-.1.08-.17l.06-.11.01-.06.02-.06a.34.34 0 0 0 .05-.14 1.68 1.68 0 0 0 .02-.19v-.06a.48.48 0 0 0-.04-.06V10.34l-.02-.25a.92.92 0 0 0-.13-.48l-.03-.04a2.1 2.1 0 0 1-.15-.27 1.03 1.03 0 0 0-.1-.19l-.04-.02-.24-.1a.04.04 0 0 1-.03-.02c0-.03-.02-.04-.05-.04a.09.09 0 0 0-.05.03.76.76 0 0 1-.35.2.78.78 0 0 0-.17.06 1 1 0 0 1-.16.06l-.15.06a17.53 17.53 0 0 1-1.11.24l-.13.03a1.04 1.04 0 0 1-.4.03l.83-.41a11.56 11.56 0 0 0 .76-.2 2.58 2.58 0 0 0 .25-.13c.07-.03.14-.07.22-.13a4.23 4.23 0 0 0 .31-.27.95.95 0 0 0 .3-.5 1.56 1.56 0 0 0 .03-.6 33.87 33.87 0 0 0-.33-.63 3.1 3.1 0 0 1-.17-.27v-.2a3.1 3.1 0 0 1-.08-.42 55.8 55.8 0 0 1-.1-.56l.22-.09.03.01v.04h.02l.3-.12a.1.1 0 0 1 .06 0 5.16 5.16 0 0 0 .14.17c.09.13.15.22.18.29l.13.21c.05.08.1.14.11.19a4.91 4.91 0 0 0 .32.47c.05.05.09.1.1.13l.1.1c.05.05.1.1.13.16.04.06.07.13.08.2a3.73 3.73 0 0 0 .16.6l.05.16a.3.3 0 0 1 0 .14 125.5 125.5 0 0 1-.15.9l-.02.2-.08.89c-.03.18-.04.36-.03.53 0 .1-.01.2-.04.3a3.98 3.98 0 0 1-.4.95l-.1.23-.1.23c-.06.1-.1.17-.11.23-.04.11-.11.23-.2.35a.84.84 0 0 0-.1.14 2.38 2.38 0 0 1-.28.38.86.86 0 0 1-.07.05l-.09.06a.4.4 0 0 1-.12.05l-.2.09a.48.48 0 0 1-.1.04.46.46 0 0 0-.08.03 14.3 14.3 0 0 1-2.23.9.54.54 0 0 1-.24 0 1.77 1.77 0 0 0-.2-.04c-.12-.01-.2-.03-.26-.05l-.18-.03-.14-.02a6.22 6.22 0 0 0-.54-.1l-.36-.08a4.23 4.23 0 0 0-.42-.09 1.97 1.97 0 0 1-1-.3l-1.08-.65a.67.67 0 0 0-.16-.06.48.48 0 0 1-.14-.07.93.93 0 0 0-.2-.1Z" fill="#C3B406"/><path d="M4.85 6.42c-.01-.28 0-.54.06-.8a.5.5 0 0 1 .06-.14.1.1 0 0 1 .05-.05.1.1 0 0 1 .05-.01c.03 0 .04.01.05.03a27.03 27.03 0 0 1 .02.6c0 .25-.06.48-.17.68 0 .01-.02.02-.03.01-.01 0-.02 0-.03-.02a1.2 1.2 0 0 1-.06-.3ZM9.8 6.68a.8.8 0 0 1-.15.83.69.69 0 0 1-.51.24h-.1a.95.95 0 0 1-.09-.04 1.12 1.12 0 0 0-.09-.03.2.2 0 0 1-.09-.05c-.12-.12-.19-.2-.21-.25a.64.64 0 0 1 .02-.67c.14-.19.3-.3.52-.33a.87.87 0 0 1 .45.08c.06.04.15.11.25.22Z" fill="#0B0902"/><path d="M11.86 6.5c.05.1.1.18.17.27a30.62 30.62 0 0 1 .33.63 1.55 1.55 0 0 1-.03.6.95.95 0 0 1-.3.5 5.38 5.38 0 0 0-.31.27c-.08.06-.15.1-.22.13a3 3 0 0 0-.25.13 11.54 11.54 0 0 1-.75.2 11.18 11.18 0 0 1 .37-.32l.17-.11a4.09 4.09 0 0 0 .48-.48c.06-.08.13-.2.2-.34a.51.51 0 0 0 .05-.34l-.03-.11V7.5a.34.34 0 0 1-.01-.1.6.6 0 0 0-.01-.1c0-.02 0-.02-.02-.03h-.05l-.01.05a.5.5 0 0 0 0 .1l-.3.7c0-.06.03-.12.04-.17l.01-.1v-.08l.03-.1.05-.2a.56.56 0 0 0 .04-.17l.02-.12a.54.54 0 0 0 .02-.14 2.17 2.17 0 0 0 0-.25l.03.17.01.03c0 .02.01.02.02 0l.1-.22.15-.28Z" fill="#A89B05"/><path d="M8.1 8.1c.04.08.1.13.14.17l.15.1a1.57 1.57 0 0 1-.95.2.51.51 0 0 0-.18.04v.03a.1.1 0 0 1 .05.06c.02.03.04.05.08.07-.04.03-.07.02-.1-.02a.17.17 0 0 0-.06-.06 1.34 1.34 0 0 1-.2-.13.22.22 0 0 0-.06-.03.19.19 0 0 1-.06-.03 1.21 1.21 0 0 0-.15-.12 10.74 10.74 0 0 0-1.5-.87c-.06 0-.12 0-.17.02l-.2.04-.32.04.36-.26a.1.1 0 0 0 .03-.06h.03c.16-.2.3-.39.46-.54a.25.25 0 0 1 .13-.07l.77-.12a.2.2 0 0 1 .12.02l1.17.62c.04.02.08.07.1.13a1306.55 1306.55 0 0 0 .34.76l.01.02Z" fill="#DE7B01"/><path d="M9.17 7.22a.2.2 0 1 0 0-.4.2.2 0 0 0 0 .4Z" fill="#514602"/><path d="m10.5 9.23-.84.4-.22.09-.02-.02v-.03c.16-.05.28-.1.37-.15a6.32 6.32 0 0 1 .7-.38c.06-.03.1-.08.15-.13a20.72 20.72 0 0 1 .3-.32c-.02.05 0 .06.04.04a.2.2 0 0 0 .06-.06 3.82 3.82 0 0 0 .5-.6c.07-.14.1-.27.1-.4l.04-.25c0-.01 0-.02-.02-.01l-.01.01a.5.5 0 0 1-.01-.1l.01-.04h.05c.01 0 .02.01.02.03a.6.6 0 0 1 0 .1.34.34 0 0 0 .02.12 2.4 2.4 0 0 1 .04.22c0 .07-.02.15-.06.23-.07.15-.14.26-.2.34a4.1 4.1 0 0 1-.48.48 4.85 4.85 0 0 0-.23.14l-.32.29Z" fill="#908303"/><path d="M11.64 7.67h-.02a15.6 15.6 0 0 1-.41.87 8.66 8.66 0 0 1-.17.13.2.2 0 0 1-.06.06c-.04.02-.06.01-.04-.04l.02-.04a4.82 4.82 0 0 0 .3-.38l.07-.15.31-.7.02-.01.02.01-.04.25Z" fill="#514602"/><path d="m7.4 8.77.12.1a.3.3 0 0 1 .1.11c0 .02 0 .04.02.05.02.01.02.03.01.04-.02.06-.06.09-.1.1-.1 0-.23 0-.37-.05l-.06-.02a.34.34 0 0 1-.08-.02.09.09 0 0 1-.05-.06S7 9 7.01 9L7.06 9c.02 0 .02-.01 0-.02l-.27-.1a.35.35 0 0 1-.12-.1 1 1 0 0 0-.12-.12 2.5 2.5 0 0 1-.06-.06 13.81 13.81 0 0 1-.37-.24 1.35 1.35 0 0 0-.24-.1l-.32-.18a6.5 6.5 0 0 0-.33-.18.1.1 0 0 0-.05.05l-.1.01c-.17.1-.35.23-.57.4-.03.03-.08.04-.14.02a.04.04 0 0 1-.03-.02.63.63 0 0 1-.05-.14.3.3 0 0 1 0-.15 9.52 9.52 0 0 0 .12-.37l.16-.08a6.19 6.19 0 0 0 .7-.1c.06 0 .12.03.17.06l.1.05.08.04a27.5 27.5 0 0 0 .64.36 3.34 3.34 0 0 1 .5.36l.15.12.06.03.06.03c.06.05.13.1.2.13a.17.17 0 0 1 .06.06c.03.04.06.05.1.02Z" fill="#D99440"/><path d="M11.64 7.67c0 .13-.03.26-.1.4a3.82 3.82 0 0 1-.33.47 5.77 5.77 0 0 1 .43-.87Z" fill="#706302"/><path d="m5.56 8.07.01.05-.01.03a.94.94 0 0 0-.43.16.68.68 0 0 1-.15.08.5.5 0 0 0-.17.1c0 .02-.02.02-.02 0l-.03-.03a5.74 5.74 0 0 0 .47-.57 6.5 6.5 0 0 1 .33.18Z" fill="#771502"/><path d="m14.52 8.07.09.35h-.05v.03c.03.17.03.33 0 .49-.01.1-.02.21-.01.33 0 .06 0 .12-.02.17l-.16.57c-.05.15-.1.38-.17.68a1.86 1.86 0 0 1-.1.34c0 .03 0 .05-.02.07a6.4 6.4 0 0 0-.26.72 9 9 0 0 1-.75.95.96.96 0 0 1-.12.16l-.07.09a49.21 49.21 0 0 0-.69.84.8.8 0 0 1-.13.1v.02c.02.01.02.02 0 .03a2.27 2.27 0 0 1-.56.27v.02c.05 0 .1-.02.14-.03.05-.02.08 0 .08.03L10 14.8h.01v-.03l-.04-.02v-.02c.2-.12.32-.19.37-.2a14.17 14.17 0 0 0 .99-.37c.08-.05.18-.09.3-.12l.05-.03a19.3 19.3 0 0 1 .34-.14.3.3 0 0 0 .13-.09c.08-.1.16-.2.22-.32a2.6 2.6 0 0 1 .17-.2l.14-.16.1-.11.09-.1c.09-.13.18-.24.28-.35a4.15 4.15 0 0 0 .24-.28c.12-.14.21-.33.3-.56a50.23 50.23 0 0 1 .42-1.2 32.34 32.34 0 0 0 .14-.54c.1-.33.13-.66.11-.98v-.24c.04-.2.02-.42-.04-.62V8.1l.03-.02.17-.01Z" fill="#706302"/><path d="m5.56 8.07.32.19v.03a.07.07 0 0 1-.07.01.67.67 0 0 0-.37-.02.89.89 0 0 1-.14.03c-.05 0-.1.02-.19.04l-.1.04L5 8.4a.28.28 0 0 1-.16.1c-.04.01-.06.04-.06.08l.04.07.06.02a.3.3 0 0 0 .06.01.3.3 0 0 1 .07 0 .2.2 0 0 0 .1.05h.03l.01.03c0 .01 0 .02-.02.02l-.11.03c-.06-.02-.1-.02-.12-.01a.38.38 0 0 1-.2-.22v-.03l.07-.1.03.04c0 .02.01.02.02 0a.5.5 0 0 1 .17-.1c.05-.02.1-.04.15-.08a.94.94 0 0 1 .43-.16c.01 0 .02-.01.01-.03v-.05Z" fill="#B1560F"/><path d="M5.88 8.26a4.24 4.24 0 0 1 .67.4 1 1 0 0 1 .12.1c.03.05.07.08.12.1.09.05.18.08.27.11.02.01.02.02 0 .02L7.01 9c-.02 0-.02.01-.02.02 0 .03.03.05.05.06l.08.02.06.02a.2.2 0 0 1-.1 0h-.03a.06.06 0 0 0-.03.03l.01.03c.05.01.1.03.14.06l.13.04c.05.02.09.04.13.08-.16-.01-.31-.04-.46-.08l-.27-.07a1.69 1.69 0 0 1-.41-.15.16.16 0 0 1-.05-.04l-.02-.01a4.53 4.53 0 0 0-.99-.3 4.41 4.41 0 0 0-.36-.04.14.14 0 0 1-.06-.02l-.04-.07c0-.04.02-.07.06-.08A.28.28 0 0 0 5 8.4l.03-.01.1-.04a.74.74 0 0 1 .18-.04l.14-.03a.67.67 0 0 1 .37.02h.06l.01-.04Z" fill="#DE7B01"/><path d="m8.39 8.37.18.1.3.14c.05.03.09.05.1.08.03.05.04.1.01.15a.28.28 0 0 1-.1.08.45.45 0 0 0-.11.1c-.16 0-.27 0-.34.03l-.44.17c-.11.04-.3.09-.56.14a.36.36 0 0 0-.13-.08 1.16 1.16 0 0 1-.13-.04c-.04-.03-.1-.05-.14-.06-.01 0-.02-.02-.01-.03 0-.02.01-.03.03-.04h.03a.2.2 0 0 0 .1 0c.14.05.27.07.38.05.03 0 .07-.03.1-.09 0-.01 0-.03-.02-.04a.1.1 0 0 1-.03-.05.3.3 0 0 0-.1-.12.64.64 0 0 0-.12-.09.17.17 0 0 1-.08-.07.1.1 0 0 0-.05-.06v-.03a.51.51 0 0 1 .18-.05h.36c.2-.02.4-.08.59-.19Z" fill="#B1560F"/><path d="m14.6 8.42.21.77h-.02c-.02 0-.02 0-.02.02 0 .05-.02.12-.05.22l-.03.11a195.09 195.09 0 0 1-.4 1.66l-.05.17a.6.6 0 0 1-.14.28.2.2 0 0 0-.03.06.19.19 0 0 1-.05.08l-.14.17-.09.12-.12.15c-.07.1-.14.17-.19.22a.67.67 0 0 0-.12.18v.02h-.01l-.1.1a.26.26 0 0 0-.06.12c0 .04-.02.07-.05.09a.79.79 0 0 0-.1.1.89.89 0 0 1-.11.13.64.64 0 0 0-.08.07.2.2 0 0 0-.05.1c0 .02 0 .02.02.03l.07-.01a105.11 105.11 0 0 1-.94.79l-.23.13c0-.04-.03-.05-.08-.03a1.06 1.06 0 0 1-.14.03v-.02h.01c.19-.07.37-.15.55-.27.02 0 .02-.02 0-.02v-.03c.04-.03.1-.06.13-.1a2.1 2.1 0 0 0 .32-.39 49.22 49.22 0 0 1 1.24-1.53 2.05 2.05 0 0 0 .21-.46 6.46 6.46 0 0 1 .24-.79 8.28 8.28 0 0 1 .33-1.25.57.57 0 0 0 .02-.17c0-.12 0-.23.02-.33a1.5 1.5 0 0 0-.01-.49v-.02l.02-.01h.03Z" fill="#514602"/><path d="M5 8.69a4.41 4.41 0 0 1 .47.05 10.87 10.87 0 0 1 .77.28l.05.04c.13.07.27.12.4.15l.28.07c.15.04.3.07.46.08a3.56 3.56 0 0 0 1-.3c.07-.03.18-.04.34-.05-.26.13-.53.23-.8.3l-.39.14a.26.26 0 0 1-.16.01 11.21 11.21 0 0 1-1.3-.39 2.3 2.3 0 0 0-.94-.22.48.48 0 0 1-.17-.04l.11-.03c.01 0 .02 0 .02-.02l-.01-.02-.02-.01A.2.2 0 0 1 5 8.69Z" fill="#908303"/><path d="M5 8.8c.07.03.12.05.18.05.05.04.13.06.23.07.06 0 .15.03.27.09l.07.04a.2.2 0 0 0 .07.05c.04.01.08.04.1.07a.7.7 0 0 1 .08.1.8.8 0 0 0 .14.16l.17.16a.55.55 0 0 0 .24.11l.07.02.05.04a.5.5 0 0 0 .14.1c.03.02.08.05.15.07l.21.1c.04.04.1.06.16.08l.18.04.17.04c.12.04.25.06.38.06a3.96 3.96 0 0 0 .45-.02c.08 0 .16-.03.25-.08a.3.3 0 0 1 .09-.03.9.9 0 0 1 .09-.01c.06 0 .11-.02.15-.03a2.03 2.03 0 0 1 .79-.1h.61a28.74 28.74 0 0 0 .54-.04l.05.01a89 89 0 0 1 .28-.01c.1 0 .16 0 .22.03.18.06.28.17.3.34l.01.09c0 .06.02.12.03.15v.09l.02.1.03.07v.05a.37.37 0 0 0 0 .2v.06l-.02.05a.19.19 0 0 0-.02.07c0 .05 0 .1.03.16v.04a.34.34 0 0 0 0 .2v.03a.25.25 0 0 0-.07.07l-.23.3a.17.17 0 0 1-.07.04.2.2 0 0 0-.07.04.8.8 0 0 1-.26.16.35.35 0 0 0-.12.08v.03h.04c.03 0 .03.02 0 .04l-.02.02a2.09 2.09 0 0 1-.42.24.75.75 0 0 0-.18.11.05.05 0 0 0-.02.04v.03c0 .02 0 .03-.02.03a6.2 6.2 0 0 1-1.02.48 1 1 0 0 1-.46.05 3.37 3.37 0 0 0-.36-.06 8.78 8.78 0 0 0-1.3-.22 31.67 31.67 0 0 0-.77-.12 1.96 1.96 0 0 1-.45-.11 3.9 3.9 0 0 1-.75-.4.19.19 0 0 0-.1-.02l-.03-.01a2.23 2.23 0 0 1-.08-.05l-.13-.09a10.09 10.09 0 0 1-.85-.52.17.17 0 0 1-.04-.08l-.01-.1c0-.18.01-.36.04-.54l.02-.3.02-.3a1 1 0 0 0 .01-.18l.03-.21.03-.13.01-.04a.14.14 0 0 0 .04-.08 16.48 16.48 0 0 1 .23-.57c.01-.02 0-.05-.02-.1l.31-.4h.12Z" fill="#DFD70C"/><path d="M6.11 9.07c.06.1.14.16.23.2a526.64 526.64 0 0 0 .5.24c.17.09.32.14.46.16.1 0 .24.03.44.05a12.14 12.14 0 0 1 .9.1c.28.01.54-.03.8-.1l.22-.08h.18c.05 0 .12 0 .22-.03l.13-.03.15-.04.16-.03a17.53 17.53 0 0 0 .8-.17 1 1 0 0 1 .15-.06 1 1 0 0 0 .16-.06.78.78 0 0 1 .17-.06c.12-.03.24-.1.35-.2a.09.09 0 0 1 .05-.03c.03 0 .04.01.05.04l.03.02.24.1c.02 0 .02.01.03.02.05.06.08.13.11.2a2.1 2.1 0 0 0 .18.3c.08.13.13.3.13.48l.02.25V10.75l.03.06.01.06v.03l-.02.16a.34.34 0 0 1-.05.14.12.12 0 0 0-.02.06v.06l-.07.11a1.1 1.1 0 0 0-.08.17l-.07.15a.79.79 0 0 1-.09.14c-.1.13-.19.27-.26.43 0 0 0 .02-.02.03a.08.08 0 0 0-.02.03.78.78 0 0 1-.25.37c-.17.14-.39.28-.66.42a.87.87 0 0 0-.15.1.6.6 0 0 1-.13.07 8.1 8.1 0 0 1-1.93.8c-.15-.01-.3-.03-.46-.07a12.34 12.34 0 0 0-1.48-.27 1.13 1.13 0 0 1-1.34-.33 13.73 13.73 0 0 0-.54-.32 2.3 2.3 0 0 0-.34-.18l-.59-.34a.34.34 0 0 0-.22-.05c-.1-.17-.15-.33-.16-.5L4 10.84c0-.1 0-.18.02-.25l.22-.84c.03-.1.06-.18.11-.25.07-.1.14-.2.23-.29.02.05.03.08.02.1a16.41 16.41 0 0 0-.28.69l-.03.13a.86.86 0 0 0-.03.21 1 1 0 0 1 0 .19l-.03.3-.02.29a3.98 3.98 0 0 0-.03.64c0 .03.02.06.04.08l.14.11a10.1 10.1 0 0 0 .84.5 2.4 2.4 0 0 0 .1.06c.05 0 .08 0 .11.03.24.16.5.29.75.39.14.05.29.09.45.1a31.66 31.66 0 0 1 2.43.41 1 1 0 0 0 .46-.05 2.89 2.89 0 0 0 .64-.27 6.26 6.26 0 0 0 .4-.24v-.03c0-.01 0-.03.02-.04a.75.75 0 0 1 .18-.12l.2-.1a2.53 2.53 0 0 1 .22-.13l.02-.02c.03-.02.03-.03 0-.04h-.03l-.02-.02v-.01a.35.35 0 0 1 .13-.08c.1-.04.2-.1.26-.16a.2.2 0 0 1 .07-.04.17.17 0 0 0 .07-.04l.23-.3a.25.25 0 0 1 .07-.07v-.04a.34.34 0 0 1 0-.2v-.03a.38.38 0 0 1-.03-.16c0-.02 0-.04.02-.07a.23.23 0 0 0 .02-.05v-.06a.37.37 0 0 1 0-.2v-.05l-.03-.06a.34.34 0 0 1-.01-.11.4.4 0 0 0-.01-.09.85.85 0 0 1-.03-.15v-.1c-.03-.16-.13-.27-.3-.33a.72.72 0 0 0-.23-.03 2.74 2.74 0 0 0-.28.01h-.05a3.43 3.43 0 0 0-1.15.03l-.03-.01c-.29-.01-.54.03-.76.11a.57.57 0 0 1-.15.03h-.1a.29.29 0 0 0-.08.04.57.57 0 0 1-.25.08h-.07a4 4 0 0 1-.38.02c-.13 0-.26-.02-.38-.06l-.17-.04a2.11 2.11 0 0 1-.18-.04.55.55 0 0 1-.16-.07 1.1 1.1 0 0 0-.2-.1 1.5 1.5 0 0 1-.16-.08.5.5 0 0 1-.14-.1.15.15 0 0 0-.05-.04.44.44 0 0 0-.1-.02.55.55 0 0 1-.2-.11A1.79 1.79 0 0 1 6 9.27a.7.7 0 0 0-.07-.1.25.25 0 0 0-.11-.07.2.2 0 0 1-.07-.05.24.24 0 0 0-.07-.04.97.97 0 0 0-.27-.09.46.46 0 0 1-.23-.07c.33.01.64.08.93.22Z" fill="#D5CB07"/><path d="m14.81 9.2.18.71v.11l-.3.76c-.07.2-.16.4-.27.6a314.35 314.35 0 0 1-.63 1.21l-.9.79c-.03.01-.05.01-.07 0-.01 0-.02 0-.02-.02a.2.2 0 0 1 .05-.1.63.63 0 0 1 .1-.1.87.87 0 0 0 .1-.1.79.79 0 0 1 .1-.1.14.14 0 0 0 .04-.1c0-.02.03-.06.06-.1a1.27 1.27 0 0 1 .1-.12v-.01h.01a.68.68 0 0 1 .12-.18l.2-.22a3.8 3.8 0 0 1 .2-.27c.06-.08.1-.14.14-.17a.19.19 0 0 0 .05-.08.2.2 0 0 1 .03-.06.6.6 0 0 0 .14-.28l.05-.17a.8.8 0 0 0 .05-.16c.02-.08.03-.17.06-.25l.07-.25a206.48 206.48 0 0 0 .32-1.35h.02Z" fill="#271F01"/><path d="M7.94 10.75c.2.05.44.09.7.11a1.94 1.94 0 0 0 .94-.1c.04-.03.1-.04.16-.04h.2c.14.02.25.07.31.16.09.1.1.23.05.35a.72.72 0 0 1-.2.27c-.15.14-.3.23-.41.26a1.5 1.5 0 0 1-.68.02 111.72 111.72 0 0 0-1.88-.34l-.51-.06a.28.28 0 0 1-.18-.08.57.57 0 0 1-.1-.17l-.08-.15a1.3 1.3 0 0 1-.08-.2c-.04-.1-.01-.2.09-.27.12-.08.25-.1.4-.05l.22.08c.06.03.13.04.22.06l.23.02a.8.8 0 0 1 .15.03l.16.03c.04 0 .1.01.19.04l.1.03Z" fill="#EBE458"/></svg>