<!-- by TradingView --><svg width="18" height="18" viewBox="0 0 18 18" xmlns="http://www.w3.org/2000/svg"><path fill="#F0F3FA" d="M0 0h18v18H0z"/><path d="m13.38 4-3.86.36c-.1 0-.2.04-.28.1a.6.6 0 0 0-.19.24.65.65 0 0 0 .05.61l2.2 3.43c.07.1.14.16.23.2a.53.53 0 0 0 .56-.05.6.6 0 0 0 .19-.23l1.66-3.78a.65.65 0 0 0-.04-.61.58.58 0 0 0-.23-.21.53.53 0 0 0-.29-.06ZM4 4.62l.36 3.86c0 .1.04.2.1.28a.6.6 0 0 0 .24.19.66.66 0 0 0 .61-.05l3.44-2.2a.58.58 0 0 0 .2-.23.53.53 0 0 0-.06-.56.6.6 0 0 0-.23-.19L4.88 4.06a.65.65 0 0 0-.61.04.58.58 0 0 0-.21.23c-.05.09-.07.19-.06.29ZM4.61 14l3.87-.35c.1 0 .2-.04.28-.1a.6.6 0 0 0 .19-.25.66.66 0 0 0-.05-.6L6.69 9.24a.58.58 0 0 0-.23-.2.53.53 0 0 0-.55.06.6.6 0 0 0-.2.23l-1.66 3.79a.65.65 0 0 0 .05.6c.06.1.14.17.23.21.09.05.19.07.28.06ZM14 13.4l-.35-3.88c0-.1-.05-.2-.1-.28a.6.6 0 0 0-.25-.19.65.65 0 0 0-.6.05l-3.44 2.22a.58.58 0 0 0-.2.22.53.53 0 0 0 .05.56.6.6 0 0 0 .23.19l3.79 1.66a.65.65 0 0 0 .6-.05.58.58 0 0 0 .2-.22.53.53 0 0 0 .07-.29Z" fill="#5A5BEB"/></svg>