<!-- by TradingView --><svg width="18" height="18" viewBox="0 0 18 18" xmlns="http://www.w3.org/2000/svg"><path fill="#F0F3FA" d="M0 0h18v18H0z"/><path d="M4.58 11.34a5 5 0 1 0 8.84-4.68c.56 1.76-1.39 2.38-1.39 2.38l-2.35 1.23-2.45 1.28s-1.67 1.07-2.65-.21Z" fill="url(#apewowj43)"/><path d="M13.45 11.28a5 5 0 0 0-8.9-4.56c1.12-1.47 2.75-.23 2.75-.23l2.36 1.23 2.45 1.27s1.83.75 1.34 2.3Z" fill="url(#bpewowj43)"/><path d="M9 4a5 5 0 0 0 0 10c-1.7-.29-1.76-2.49-1.76-2.49V6.45S7.3 4.3 9 4Z" fill="url(#cpewowj43)"/><path d="M9 14a2.9 2.9 0 0 1-1.7-2.49s-.77.42-1.54.42c-.49 0-.98-.15-1.26-.75 0 0 1.2 2.83 4.5 2.82Z" fill="#473ADE"/><defs><linearGradient id="apewowj43" x1="13.12" y1="9.87" x2="7.23" y2="12.52" gradientUnits="userSpaceOnUse"><stop stop-color="#251E72"/><stop offset="1" stop-color="#473ADE"/></linearGradient><linearGradient id="bpewowj43" x1="7.53" y1="5.02" x2="13.27" y2="8.4" gradientUnits="userSpaceOnUse"><stop stop-color="#79113C"/><stop offset="1" stop-color="#D71D6A"/></linearGradient><linearGradient id="cpewowj43" x1="6.5" y1="4" x2="6.5" y2="12.23" gradientUnits="userSpaceOnUse"><stop offset=".24" stop-color="#FF5B25"/><stop offset="1" stop-color="#7F2E14"/></linearGradient></defs></svg>