<!-- by TradingView --><svg width="18" height="18" viewBox="0 0 18 18" xmlns="http://www.w3.org/2000/svg"><path fill="#181B1E" d="M0 0h18v18H0z"/><path d="M9.52 7.25 9.84 2 9 7.25h.52Z" fill="url(#a)"/><path d="m9.25 7.28 1.73-5.09L9.5 7.3h-.24Z" fill="url(#b)"/><path d="M9.4 7.19 12 2.54 9.97 7.4l-.58-.2Z" fill="url(#c)"/><path d="m8.8 10.7-1.08 5.14.9-5.14h.19Z" fill="url(#d)"/><path d="M8.71 10.8 7 15.56l1.29-4.97.42.2Z" fill="url(#e)"/><path d="M8.6 10.73 8.38 16 9 10.73h-.4Z" fill="url(#f)"/><path d="M10.74 8.5 15.98 7l-5.34 2.16.1-.65Z" fill="url(#g)"/><path d="m10.64 9.5 5.34 1.5-5.34-2.16v.65Z" fill="url(#h)"/><path d="m10.9 8.82 5-.79-5 1.07v-.28Z" fill="url(#i)"/><path d="m10.9 9.18 5 .79-5-1.07v.28Z" fill="url(#j)"/><path d="M10.74 8.66 16 9l-5.36.31.1-.65Z" fill="url(#k)"/><path d="M7.22 8.5 2.02 7l5.3 2.16-.1-.65Z" fill="url(#l)"/><path d="M7.31 9.37 2.01 11l5.3-2.16v.53Z" fill="url(#m)"/><path d="M7.07 8.82 2.1 8.03 7.07 9.1v-.28Z" fill="url(#n)"/><path d="m7.07 9.18-4.96.79L7.07 8.9v.28Z" fill="url(#o)"/><path d="M7.22 8.66 2 9l5.31.31-.1-.65Z" fill="url(#p)"/><path d="M9.76 9.96c.06.06.15.05.2-.02a.18.18 0 0 0-.01-.24L9.23 9l.72-.7a.18.18 0 0 0 .01-.24.14.14 0 0 0-.2-.02L9 8.78l-.76-.74a.14.14 0 0 0-.2.02.18.18 0 0 0 .01.24l.72.7-.72.7a.18.18 0 0 0-.01.24c.05.07.14.08.2.02L9 9.22l.76.74Z" fill="#E4FAF7"/><path fill-rule="evenodd" d="M9 11a2 2 0 1 0 0-4 2 2 0 0 0 0 4Zm0-.4a1.6 1.6 0 1 0 0-3.2 1.6 1.6 0 0 0 0 3.2Z" fill="#E4FAF7"/><defs><linearGradient id="a" x1="9.42" y1="2" x2="9.42" y2="7.25" gradientUnits="userSpaceOnUse"><stop stop-color="#88264F"/><stop offset="1" stop-color="#F572D0"/></linearGradient><linearGradient id="b" x1="10.11" y1="2.19" x2="10.11" y2="7.28" gradientUnits="userSpaceOnUse"><stop stop-color="#88264F"/><stop offset="1" stop-color="#F572D0"/></linearGradient><linearGradient id="c" x1="11.77" y1="2.75" x2="9.74" y2="7.31" gradientUnits="userSpaceOnUse"><stop stop-color="#36192B"/><stop offset="1" stop-color="#A74B9E"/></linearGradient><linearGradient id="d" x1="8.67" y1="10.7" x2="6.22" y2="14.88" gradientUnits="userSpaceOnUse"><stop stop-color="#4BF8F4"/><stop offset="1" stop-color="#666"/></linearGradient><linearGradient id="e" x1="8.5" y1="10.59" x2="6.77" y2="15.4" gradientUnits="userSpaceOnUse"><stop stop-color="#4BF8F4"/><stop offset="1" stop-color="#666"/></linearGradient><linearGradient id="f" x1="8.69" y1="10.73" x2="8.69" y2="16" gradientUnits="userSpaceOnUse"><stop stop-color="#89F2F8"/><stop offset="1" stop-color="#126168"/></linearGradient><linearGradient id="g" x1="15.98" y1="8.08" x2="10.64" y2="8.08" gradientUnits="userSpaceOnUse"><stop stop-color="#685131"/><stop offset="1" stop-color="#F8EF94"/></linearGradient><linearGradient id="h" x1="16" y1="11.11" x2="10.76" y2="9.42" gradientUnits="userSpaceOnUse"><stop stop-color="#88264F"/><stop offset="1" stop-color="#F572D0"/></linearGradient><linearGradient id="i" x1="15.75" y1="8.05" x2="10.8" y2="8.72" gradientUnits="userSpaceOnUse"><stop stop-color="#68563E"/><stop offset="1" stop-color="#FCD753"/></linearGradient><linearGradient id="j" x1="15.91" y1="10.02" x2="11.98" y2="7.6" gradientUnits="userSpaceOnUse"><stop stop-color="#88264F"/><stop offset="1" stop-color="#F572D0"/></linearGradient><linearGradient id="k" x1="16" y1="8.98" x2="10.64" y2="8.98" gradientUnits="userSpaceOnUse"><stop stop-color="#685131"/><stop offset="1" stop-color="#F8EF94"/></linearGradient><linearGradient id="l" x1="2.03" y1="7" x2="7.15" y2="8.44" gradientUnits="userSpaceOnUse"><stop stop-color="#1F0920"/><stop offset="1" stop-color="#9C8DF2"/></linearGradient><linearGradient id="m" x1="2.02" y1="9.92" x2="7.31" y2="9.92" gradientUnits="userSpaceOnUse"><stop stop-color="#126168"/><stop offset="1" stop-color="#89F2F8"/></linearGradient><linearGradient id="n" x1="2.12" y1="8.13" x2="7.12" y2="8.77" gradientUnits="userSpaceOnUse"><stop stop-color="#09030F"/><stop offset="1" stop-color="#6D8FF1"/></linearGradient><linearGradient id="o" x1="2.11" y1="9.43" x2="7.07" y2="9.43" gradientUnits="userSpaceOnUse"><stop stop-color="#126168"/><stop offset="1" stop-color="#89F2F8"/></linearGradient><linearGradient id="p" x1="2" y1="8.98" x2="7.31" y2="8.98" gradientUnits="userSpaceOnUse"><stop stop-color="#126168"/><stop offset="1" stop-color="#89F2F8"/></linearGradient></defs></svg>