<!-- by TradingView --><svg width="18" height="18" viewBox="0 0 18 18" xmlns="http://www.w3.org/2000/svg"><path fill="#4D14CD" d="M0 0h18v18H0z"/><path d="M5 13.65V7.73a.5.5 0 0 1 .11-.32l2.77-3.26a.4.4 0 0 1 .3-.15h2.52c.17 0 .3.16.3.35v2.3c0 .2-.13.35-.3.35H8.34c-.19 0-.34.18-.34.4v3.45c0 .1-.04.2-.1.28L5.5 13.9c-.18.22-.5.06-.5-.25ZM11 9l.63.78c.17.22.37.42.59.59L13 11l-.78.63c-.22.17-.42.37-.59.59L11 13l-.63-.78a3.82 3.82 0 0 0-.59-.59L9 11l.78-.63c.22-.17.42-.37.59-.59L11 9Z" fill="#fff"/></svg>