<!-- by TradingView --><svg width="18" height="18" viewBox="0 0 18 18" xmlns="http://www.w3.org/2000/svg"><path fill="url(#a)" d="M0 0h18v18H0z"/><path d="M9.73 4.06a.97.97 0 0 0-.21.36c-.02.05 0 .08.06.08h.4c.07 0 .1.03.1.09-.02.14-.07.24-.17.3a1.02 1.02 0 0 1-.37.1c-.04 0-.08 0-.11-.03-.2-.14-.43-.22-.68-.22l.44-.44c.09-.08.07-.12-.05-.12H8.9c-.1 0-.19.03-.26.1-.23.24-.44.48-.6.72-.11.16-.07.2.1.14.2-.07.4-.2.6-.4l-.3.82-.62.07c-.03 0-.05.03-.05.07v.05c0 .02.01.03.03.03.36-.07.71-.06 1.07.02.06.01.07.04.05.1l-.04.08c-.02.05 0 .07.05.06.18-.03.3-.08.34-.16.04-.07.1-.12.2-.13.08-.01.17 0 .25.06l.4.26c.02.02.03.04.01.07l-.02.06c-.01.03 0 .06.03.07h.04c.03 0 .06-.01.07-.05.03-.07.06-.1.07-.11.04-.02.08-.01.11.02.02.03.03.08.04.17 0 .04.02.06.06.07.18 0 .3.1.36.27a.1.1 0 0 0 .07.07c.07.01.13.04.18.1-.06.01-.11.01-.14-.02-.1 0-.19-.07-.23-.18-.02-.03-.05-.04-.08-.03a.55.55 0 0 0-.2.15l-.04-.02c-.02 0-.02-.02 0-.03.05-.06.1-.12.12-.18.02-.05 0-.07-.05-.08a.15.15 0 0 0-.12.05c-.03.03-.06.03-.1 0a.55.55 0 0 0-.29-.08.1.1 0 0 0-.1.05.3.3 0 0 0-.07.16c0 .04.02.08.07.1l.67.29a.2.2 0 0 0 .13.01c.14-.02.21.03.23.18.01.04.03.07.06.1.05.03.1.09.16.17.1.15.23.22.39.22.05 0 .07.02.05.07-.04.08-.02.13.05.16.04.01.05.04.04.08a.33.33 0 0 0 0 .13c-.07 0-.1-.04-.12-.13a.1.1 0 0 0-.05-.09l-.32-.18-.43-.52a.15.15 0 0 0-.1-.06c-.23-.03-.46-.1-.68-.22a.52.52 0 0 0-.23-.15c-.04-.01-.07 0-.1.04a.27.27 0 0 1-.1.13c-.03.03-.06.02-.09-.02-.15-.22-.34-.4-.56-.54a.06.06 0 0 0-.07 0 .05.05 0 0 0-.02.06c.04.3 0 .52-.12.64a.72.72 0 0 0-.59.02c-.1-.06-.06-.1.11-.15.05-.01.06-.04.05-.08l-.05-.18c-.01-.03-.05-.05-.1-.05h-.04c-.27 0-.46.03-.57.08-.17.07-.28.22-.32.46-.01.04-.03.07-.06.1l-.7.7c-.02.02-.03.01-.03-.02 0-.2.1-.34.3-.45.06-.03.07-.07.02-.12l-.03-.03c-.03-.03-.03-.06.02-.08a.1.1 0 0 0 .05-.05c.01-.04 0-.06-.04-.07-.05 0-.1.02-.16.05-.04-.07-.08-.12-.14-.13-.04 0-.07.01-.07.06a.46.46 0 0 1-.27.35c-.05.02-.09 0-.1-.05l-.1-.31c-.01-.05-.05-.08-.1-.08-.31.01-.54.06-.67.15-.32.22-.44.14-.37-.23.04-.23.17-.49.38-.76.03-.04.14-.1.33-.18a.12.12 0 0 0 .08-.08l.08-.2a.2.2 0 0 1 .12-.1l.15-.02c-.25.2-.28.32-.1.33.02.14.07.28.15.43l.13.3.5.32c.04.02.07.02.1-.01l.34-.34a.05.05 0 0 1 .05-.01h.04c.04.02.05.04.03.07l-.13.2c-.02.02-.01.04 0 .07l.03.02h.02l.14-.2a1.01 1.01 0 0 1 .27-.33l.42-.49c.03-.03.02-.05-.01-.07l-.52-.22c-.06-.02-.08-.07-.06-.13l.25-1c0-.03 0-.05-.04-.05h-.19c-.03 0-.04.01-.03.04.04.1.04.24 0 .4-.04.12-.12.14-.25.08a.64.64 0 0 0-.29-.02l-.24.11c-.32.15-.65.26-1 .32A4.56 4.56 0 0 1 7.6 4.2c.1.13.22.23.36.31.04.03.07.02.1 0 .12-.12.2-.27.22-.46.48-.07.97-.07 1.45 0Z" fill="#747B80"/><path d="M8.28 4.05a.77.77 0 0 1-.22.45c-.03.03-.06.04-.1.01a1.25 1.25 0 0 1-.36-.31l.68-.15Z" fill="#7599BF"/><path d="m9.73 4.06 1.08.27c-.22.03-.46.18-.72.46-.15.16-.28.28-.38.34-.09.06-.11.14-.07.23.01.03.04.05.07.07.05.02.05.04 0 .05h-.1c-.09-.03-.21-.03-.38.02-.12.04-.2.06-.27.06.24-.1.33-.26.27-.48-.07-.23-.2-.3-.4-.22a.12.12 0 0 0-.08.08l-.18.63h-.12l.3-.83c.25 0 .48.08.68.22.03.02.07.03.1.03h.05c.16-.03.27-.06.33-.1.1-.05.16-.16.16-.3 0-.06-.02-.1-.08-.1h-.41c-.06 0-.08-.02-.06-.07a.97.97 0 0 1 .21-.36Z" fill="#9A9C99"/><path d="M8.75 4.74c-.2.2-.4.33-.6.4-.17.06-.2.02-.1-.14.16-.24.37-.48.6-.72.08-.07.16-.1.26-.1h.23c.12 0 .14.04.05.12l-.44.44Z" fill="#616566"/><path d="m10.8 4.33 1.03.55c-.17.02-.33 0-.48-.05a.1.1 0 0 0-.1.02l-.25.23a.22.22 0 0 1-.1.06l-1.01.3c-.1.03-.09.05 0 .06l.29.03-.58-.05h.1c.06-.01.06-.03.01-.05-.04-.02-.06-.04-.07-.07-.04-.1-.02-.17.07-.23.1-.06.22-.18.38-.34.26-.28.5-.43.72-.46Z" fill="#B3BBC2"/><path d="M6.07 6.67c.2.13.38.17.57.1.05.05.1.05.14 0v-.05l-.3-.51.01-.03.05-.03c.03-.01.03-.04.01-.06a.35.35 0 0 0-.19-.1L6 5.97c-.05 0-.07.02-.07.06l.01.34a1.27 1.27 0 0 1-.16-.43c.08-.18.18-.25.32-.22.29.08.56.2.82.37.04.03.07.01.08-.04v-.07c.07.05.12.11.16.2.02.04.05.05.09.01.03-.03.05-.08.06-.17.01-.08-.02-.13-.1-.15a.97.97 0 0 0-.36-.03 3.5 3.5 0 0 1-.22-.1c-.32-.15-.56-.2-.74-.13a.61.61 0 0 0-.15.02.2.2 0 0 0-.12.1l-.08.2a.12.12 0 0 1-.08.08.96.96 0 0 0-.33.18c-.2.27-.34.53-.38.76-.07.37.05.45.37.23.13-.1.36-.14.67-.15.05 0 .09.03.1.08l.1.31c.01.06.05.07.1.05.15-.08.24-.2.27-.35 0-.05.03-.06.07-.06.06.01.1.06.14.13a.5.5 0 0 1-.13.13c-.13.12-.25.26-.33.42l-.32-.46c-.04-.05-.1-.07-.15-.05-.3.11-.6.14-.91.1a.1.1 0 0 1-.08-.08l-.04-.14a1.1 1.1 0 0 1-.08-.37c.25-.5.57-.94.97-1.3A3.97 3.97 0 0 0 6.74 5c.14 0 .24 0 .3.02.12.06.2.04.23-.07.05-.17.05-.3.01-.41 0-.03 0-.04.03-.04h.2c.02 0 .04.02.03.05l-.25 1c-.02.07 0 .1.06.13l.52.22c.03.02.04.04.01.07l-.42.49a1.01 1.01 0 0 0-.27.33 3.9 3.9 0 0 1-.16.2l-.02-.02c-.02-.03-.03-.05 0-.08l.12-.19c.02-.03.01-.05-.03-.06l-.04-.01-.05.01-.34.34c-.03.03-.06.03-.1 0l-.5-.32Z" fill="#616566"/><path d="M8.96 5.56c-.13.02-.26.03-.4 0l.2-.62a.12.12 0 0 1 .07-.08c.2-.08.33 0 .4.22.06.22-.03.38-.27.48Z" fill="#B3BBC2"/><path d="m11.83 4.88.33.24c-.07.03-.1.07-.06.11a.4.4 0 0 1-.07.13c-.07.07-.14.07-.2 0-.11-.13-.22-.16-.34-.1-.19.08-.32.16-.4.23-.38.08-.68.1-.91.04l-.29-.03c-.09-.01-.1-.03 0-.06l1.02-.3a.22.22 0 0 0 .09-.06l.24-.23a.1.1 0 0 1 .11-.02c.16.05.31.07.48.05Z" fill="#9A9C99"/><path d="M12.16 5.12c.38.3.7.66.98 1.07a5.32 5.32 0 0 1-1.36-.35.73.73 0 0 0 .03-.33.15.15 0 0 0-.1-.12.16.16 0 0 0-.15.01l-.23.15-.26.2c-.04.03-.06.02-.06-.03s.02-.12.07-.23c.09-.07.22-.15.4-.23.12-.06.24-.03.34.1.07.07.14.07.21 0a.4.4 0 0 0 .07-.13c-.03-.04-.01-.08.06-.1Z" fill="#9EC7E4"/><path d="m9.6 5.48.58.05c.23.05.53.04.9-.04a.57.57 0 0 0-.07.23c0 .05.02.06.06.03l.26-.2c.04.12 0 .22-.13.3v.03c0 .01 0 .02.02.01.06-.01.1-.03.13-.06a.1.1 0 0 1 .05-.02c.06 0 .09.01.1.05l-.02.06c-.06.15-.14.28-.22.4-.03.03-.03.07 0 .1.05.06.15.05.3-.04a.32.32 0 0 0 0 .27v.05c-.02.07-.08.09-.19.08-.04 0-.07 0-.1.02-.04.04-.08.03-.12 0a.43.43 0 0 0-.18-.1.1.1 0 0 1-.07-.06c-.06-.18-.18-.27-.36-.27-.04 0-.06-.03-.06-.07 0-.09-.02-.14-.04-.17-.03-.03-.07-.04-.1-.02-.02 0-.05.04-.08.11a.09.09 0 0 1-.07.06h-.04c-.04-.02-.04-.05-.03-.08l.02-.06c.02-.03 0-.05-.02-.07l-.39-.26a.37.37 0 0 0-.26-.06.24.24 0 0 0-.2.13c-.03.08-.15.13-.33.16-.05 0-.07-.01-.05-.06l.04-.09c.02-.05 0-.08-.05-.09-.36-.08-.71-.09-1.06-.02-.03 0-.04 0-.04-.03V5.7c0-.04.02-.06.05-.07l.61-.07h.13c.13.03.26.02.39 0 .06 0 .15-.02.27-.06.17-.05.29-.05.37-.02Z" fill="#605843"/><path d="M6.85 5.85c.05.06.1.1.16.14L7 6.06c0 .05-.04.07-.08.04a2.91 2.91 0 0 0-.82-.37c-.14-.03-.24.04-.32.22-.17-.01-.14-.12.12-.33.17-.07.42-.02.73.13l.22.1Z" fill="#DACCAD"/><path d="M7 5.99a.56.56 0 0 1-.15-.14c.11-.02.23 0 .36.03.08.02.11.07.1.15-.01.08-.03.14-.06.17-.04.04-.07.03-.1-.02a.64.64 0 0 0-.14-.2Z" fill="#161211"/><path d="M11.78 5.84c.43.18.89.3 1.36.35a5.02 5.02 0 0 1 .72 4c-.29-.1-.5-.22-.64-.37a4.25 4.25 0 0 0-.88-.7c-.05-.15-.15-.23-.3-.24-.03 0-.06 0-.1.03l-.06-.07a.08.08 0 0 1-.02-.09c.03-.08 0-.15-.09-.21-.05-.03-.05-.05.01-.05.11 0 .18.02.22.09.06.08.09.08.1-.02l-.04-.05v-.38l.03-.12c.08-.13.02-.37-.16-.7l-.07-.13a.11.11 0 0 0-.1-.06 1.73 1.73 0 0 1-.75-.33c.03.03.08.03.14.01.04.03.08.04.12 0a.12.12 0 0 1 .1-.02c.1.01.17-.01.2-.08v-.05a.32.32 0 0 1-.02-.27l.23-.54Z" fill="#77B0ED"/><path d="M6.36 5.98 6.1 6a.06.06 0 0 0-.05.03.06.06 0 0 0 0 .06c.09.14.15.28.17.43.03.12.1.18.22.18.07 0 .14.02.2.08-.19.06-.38.02-.57-.1l-.13-.3v-.34c-.01-.04.01-.06.06-.06h.36Z" fill="#49452F"/><path d="M9.63 6.04 9.6 6c-.05-.04-.05-.06.01-.06.1 0 .18.04.22.14.05.1.01.13-.1.07a.21.21 0 0 1-.05-.07.2.2 0 0 0-.05-.05Z" fill="#605843"/><path d="M8.02 6.46v.03c-.04.06-.08.06-.13 0l-.02-.02c-.03-.06-.03-.11 0-.15.02-.04.05-.04.08 0l.07.14Z" fill="#49452F"/><path d="M9.67 6.57v.14c0 .03-.01.05-.04.06a.06.06 0 0 1-.07 0 .69.69 0 0 1-.24-.36c-.01-.03 0-.06.01-.08a.08.08 0 0 1 .08-.03c.13.03.23.03.31 0 .05 0 .07.01.06.06 0 .02-.03.05-.07.11a.15.15 0 0 0-.04.1Z" fill="#DACCAD"/><path d="M10 6.91c-.2-.07-.34-.03-.42.14a.23.23 0 0 0 0 .2c.03.07.08.12.15.14l.45.15c.06.02.06.03 0 .05l-.08.02c-.04.02-.05.04-.05.08l.01.16c-.11-.07-.2-.1-.24-.1a.23.23 0 0 0-.18.17c-.03.1 0 .17.06.24.1.1.17.24.24.43.02.07.02.16 0 .26.02-.23-.08-.33-.27-.3l-.59.07a.13.13 0 0 0-.1.05.35.35 0 0 0-.06.24l-.02-.02v-.35l.18-.37a.1.1 0 0 0 0-.1l-.12-.2a.17.17 0 0 0-.14-.1c-.06 0-.1.02-.15.06l-.63.66c-.22 0-.48.05-.79.15-.12.04-.2 0-.24-.1a.09.09 0 0 1 .02-.1c.09-.1.14-.2.15-.3.02-.09.07-.16.15-.22l-.21.57.01.07c.02.02.04.02.07.02l.24-.08c.03 0 .04-.02.05-.05l.17-.67a.09.09 0 0 1 .08-.08l.67-.07a.1.1 0 0 0 .05-.02l.3-.23c.04-.03.05-.06.03-.1l-.08-.21c.12-.12.16-.33.12-.64 0-.02 0-.04.02-.06a.06.06 0 0 1 .07 0c.22.14.41.32.56.55.03.03.06.04.1.01a.27.27 0 0 0 .1-.13c.02-.04.05-.05.09-.04.09.03.16.08.23.15Z" fill="#433A33"/><path d="M11.01 6.79c.23.17.48.28.76.33.04 0 .07.03.09.06l.07.13c.18.33.24.57.16.7a.23.23 0 0 0-.03.12v.38a.46.46 0 0 0-.28-.2c-.05-.02-.05-.04 0-.05l.06-.02c.06-.02.06-.04.01-.08a.29.29 0 0 0-.15-.05v-.13c.01-.04 0-.07-.04-.08-.07-.03-.09-.08-.05-.16.02-.05 0-.07-.05-.07-.16 0-.29-.07-.39-.22a.68.68 0 0 0-.16-.17.14.14 0 0 1-.06-.1c-.02-.14-.1-.2-.23-.18a.2.2 0 0 1-.13-.01l-.67-.3a.1.1 0 0 1-.07-.1c0-.04.03-.1.07-.15a.1.1 0 0 1 .1-.05c.12 0 .22.04.3.09.03.02.06.02.09-.01a.15.15 0 0 1 .12-.05c.05 0 .07.03.05.08a.54.54 0 0 1-.13.18c-.01.01-.01.03.01.03l.03.02h.01a.55.55 0 0 1 .2-.15c.03-.01.06 0 .08.03.04.11.12.17.23.18Z" fill="#BCC4B6"/><path d="M8.12 7.09a.52.52 0 0 0-.25.18.5.5 0 0 1-.39.18c-.04 0-.06.02-.06.06 0 .15-.03.29-.09.41a.34.34 0 0 0-.15.22c-.24.17-.36.38-.35.63 0 .04-.02.08-.05.1-.06.06-.09.11-.08.16.02.06.06.11.12.14l.03.01c.02.01.03.03.03.05 0 .1-.01.15-.03.17-.03.04-.05.08-.04.11l.05.08c.07.13.06.25-.03.34a.08.08 0 0 0-.03.07c0 .05.02.06.06.02a.13.13 0 0 1 .08-.05c.06 0 .07.01.04.06-.2.3-.3.61-.35.96 0 .05-.01.08-.03.1l-.07.07c-.04.05-.03.1.03.12l.12.05c.1.04.16.01.2-.08l.08-.2c.03-.06.06-.07.1-.04.1.06.16.1.18.16.02.03 0 .05-.02.06-.17.05-.28.14-.33.26-.02.04-.02.09.01.15.03.05.05.04.07 0 .07-.18.23-.29.48-.35.05 0 .08 0 .1.06l.04.16c.01.04 0 .06-.03.08a.41.41 0 0 0-.14.12c-.03.04-.06.05-.1.01l-.08-.03c-.05 0-.08.02-.1.06l-.05.2c-.01.04-.04.06-.07.07a.27.27 0 0 0-.22.22c-.01.06 0 .06.04.02l.14-.15c.03-.04.07-.04.1-.03l.1.03c.05 0 .07-.02.06-.06-.02-.12 0-.2.02-.23s.05-.04.09-.02c.07.06.12.1.15.15.03.04.06.05.1.04.06-.02.1-.06.13-.13.01-.04.04-.06.09-.04.1.05.14.1.09.18l-.3.47a.06.06 0 0 0 0 .06l.02.02c.02.02.04.01.06-.01l.18-.26c.04-.02.07-.02.08 0l.02.1a2.9 2.9 0 0 0-.4.53c-.16.27-.22.47-.17.6.03.08.05.07.05 0 0-.1.03-.19.07-.26.16-.28.32-.53.5-.76a.27.27 0 0 1 .13-.1c.06-.01.07 0 .03.05l-.15.22c-.02.03-.01.04.02.03h.06c.06-.01.08.02.06.07l-.03.07c-.05.03-.08.06-.08.09-.02.05 0 .07.05.06l.1-.02h.03c.03.02.03.03 0 .05l-.29.28c-.16 0-.26.08-.3.23a.81.81 0 0 1-.09.27 4.9 4.9 0 0 1-1.8-.99l.22-.22a.1.1 0 0 0 .03-.1.33.33 0 0 0-.07-.13.1.1 0 0 1-.02-.1l.14-.44c0-.03.02-.04.03-.04 0-.1.01-.2.05-.26l.1-.22c.03-.12.02-.21-.01-.27a.1.1 0 0 1-.01-.1c.04-.1.05-.24.02-.41v-.12c.08-.28.1-.53.07-.75V9.5l.03-.1c.01-.04 0-.05-.04-.03l-.03.02c-.04.02-.07 0-.09-.04a.16.16 0 0 1 .03-.14.1.1 0 0 0 .01-.1l-.11-.36a.7.7 0 0 1 .01-.56.08.08 0 0 0 0-.1c-.04-.04-.05-.09-.02-.14.12-.2.24-.4.34-.63a.5.5 0 0 0 .13-.13c.05-.04.1-.05.16-.05.04 0 .05.03.04.06a.1.1 0 0 1-.05.06c-.05.02-.05.05-.02.08l.03.03c.05.05.04.09-.02.12-.2.1-.3.25-.3.45 0 .03.01.04.04.01l.69-.69a.19.19 0 0 0 .05-.1c.05-.24.16-.4.33-.46.1-.05.3-.07.57-.08h.04c.05 0 .09.02.1.05l.05.18c.01.04 0 .07-.05.08-.17.04-.2.09-.1.15Z" fill="#DACCAD"/><path d="M4.53 6.75c.01.17.04.3.08.37-.02.1-.01.2 0 .27.01.04.04.07.08.08.54.2.74.57.6 1.12 0 .04 0 .08.03.11l.03.03h.08a.7.7 0 0 1 .53-.2l-.03.19c-.03.08-.04.13-.03.16.02.05.05.09.11.1l.04.03v.04s0 .02-.02.03c-.06.04-.1.02-.13-.07-.01-.05-.04-.06-.08-.03-.18.1-.27.23-.3.36-.05.3-.12.5-.2.6a.13.13 0 0 0-.04.11l.04.4c0 .04.02.07.06.09a.1.1 0 0 0 .1-.01c.15-.1.3-.15.44-.19.07-.02.12.01.13.09.04.26 0 .5-.1.73a.08.08 0 0 0 0 .08c.06.08.08.14.09.18.01.05-.01.06-.06.03a.09.09 0 0 1-.04-.04c-.02-.05-.06-.07-.11-.06-.41.07-.68.29-.8.65a.44.44 0 0 1-.19-.28c.2-.13.3-.36.35-.7 0-.11-.04-.18-.15-.2a4.17 4.17 0 0 0-.53-.1c-.05 0-.1.01-.15.04-.03 0-.04-.03-.05-.1.2-.2.34-.43.4-.67.04-.16.05-.43.05-.8V9a.12.12 0 0 0-.05-.1c-.1-.09-.23-.1-.4-.07-.11.03-.14.1-.1.2.14.33.1.61-.12.86a4.9 4.9 0 0 1 .44-3.15Z" fill="#49452F"/><path d="M6.1 7.75a.63.63 0 0 1-.1.19.17.17 0 0 0-.03.1l-.01.5a.7.7 0 0 0-.53.18.06.06 0 0 1-.08.01.13.13 0 0 1-.03-.03.12.12 0 0 1-.03-.1c.14-.56-.06-.93-.6-1.13a.11.11 0 0 1-.08-.08.73.73 0 0 1 0-.27l.04.14a.1.1 0 0 0 .08.07c.3.05.61.02.9-.09.07-.02.12 0 .16.05l.32.46Z" fill="#605843"/><path d="M6.44 7.33c-.1.22-.22.44-.34.63-.03.05-.02.1.01.14.03.03.03.06.01.1a.7.7 0 0 0-.01.56c.06.18.1.3.11.37a.1.1 0 0 1-.01.1.16.16 0 0 0-.03.13c.02.05.05.06.09.04l.04-.02c.03-.02.04 0 .03.03l-.02.1a.32.32 0 0 0 0 .13c.03.22 0 .48-.08.76a.23.23 0 0 0 0 .11c.03.17.03.3-.02.4a.1.1 0 0 0 0 .12c.04.05.05.14.03.26a5 5 0 0 1-.11.22.53.53 0 0 0-.05.26c0-.06-.01-.1-.03-.12-.03-.03-.06-.03-.1 0-.05.06-.07.12-.05.2 0 .06.03.07.07.04a.25.25 0 0 0 .08-.07l-.14.43a.1.1 0 0 0 .02.1l.07.13a.1.1 0 0 1-.03.1l-.22.22c-.3-.23-.54-.5-.73-.8.12-.36.39-.58.8-.65.05 0 .09.01.1.06l.05.04c.05.03.07.02.06-.03 0-.04-.03-.1-.08-.18a.08.08 0 0 1 0-.08c.1-.22.13-.47.09-.73-.01-.08-.06-.1-.13-.09-.15.04-.3.1-.43.19a.1.1 0 0 1-.1 0 .1.1 0 0 1-.07-.08l-.04-.4c0-.04 0-.07.03-.1.1-.1.16-.3.21-.6.03-.14.12-.26.3-.37.04-.03.07-.02.08.03.03.09.08.11.13.07l.02-.03v-.03c0-.02-.01-.03-.04-.04-.06-.01-.1-.05-.1-.1-.02-.03 0-.08.02-.16a.54.54 0 0 0 .03-.19l.01-.49c0-.04.01-.07.04-.1a.63.63 0 0 0 .1-.19c.08-.16.2-.3.33-.42Z" fill="#847E62"/><path d="M11.7 8.1c.06.01.12.03.15.06.05.04.05.06-.01.08l-.06.02c-.05.01-.05.03 0 .04.13.04.22.1.28.2l.04.06c-.01.1-.04.1-.1.02-.04-.07-.1-.1-.21-.1-.06 0-.07.03-.02.06.1.06.13.13.09.21-.01.04 0 .07.02.1l.06.06c-.03.04-.07.05-.15.03-.13-.02-.22.02-.27.13-.02.05 0 .08.04.1l.16.08a.1.1 0 0 1 .05.05c.06.11.13.23.22.34.03.03.02.06-.03.07h-.03c-.07.01-.08.04-.03.09.02.03.05.03.1.02a.1.1 0 0 1 .1 0c.03.03.04.06.04.09s-.02.04-.05.03l-.03-.01c-.04 0-.06.02-.06.06 0 .04 0 .06.04.06.05.01.06.04.04.08-.07.18-.18.25-.32.2.07-.04.06-.1-.03-.17-.04-.03-.03-.06.02-.06l.16-.02c.02 0 .04 0 .05-.03a.08.08 0 0 0 .01-.05c0-.04-.02-.07-.06-.07-.15-.03-.3.02-.43.14-.03.02-.05.02-.06-.01v-.09a.84.84 0 0 1 .24-.16c.15-.05.15-.1 0-.16l-.42-.17c-.05-.01-.06 0-.05.05l.03.09c0 .02 0 .04-.03.04h-.03l-.07-.05-.3-.4c-.05-.09-.13-.11-.23-.08-.16.05-.29.1-.37.15l-.3.26c-.36.33-.76.34-1.22.01a.4.4 0 0 0-.17-.1.96.96 0 0 0-.51-.1c.23-.16.5-.22.8-.2.05.01.08 0 .1-.04.03-.05.03-.12.01-.22l.02.02c.08.09.03.22-.14.38-.04.04-.04.07 0 .1.2.12.39.18.59.17.22 0 .4-.1.52-.26a.09.09 0 0 0 0-.1c-.06-.12-.04-.23.06-.35V8.6c.25.1.5.16.74.17.2.02.24-.05.09-.2l-.52-.5.43.16a.3.3 0 0 0 .12.02c.2-.01.38.01.57.08h.1c.18-.1.1-.19-.24-.25-.06-.01-.06-.02 0-.03.04-.01.08-.02.12-.05.05-.02.05-.05 0-.08a.45.45 0 0 1-.15-.2l.32.18a.1.1 0 0 1 .06.1c0 .08.04.12.1.12Z" fill="#605843"/><path d="m8.9 8.54-.06.49c0 .04-.02.05-.07.04-.3-.1-.6-.04-.9.16a.23.23 0 0 1-.18.04.18.18 0 0 1-.14-.1c0-.02.01-.05.06-.09.03-.03.03-.06 0-.09l-.07-.07c-.05-.04-.04-.07.02-.1l.3-.08a.12.12 0 0 0 .08-.08.36.36 0 0 1 .1-.17l.63-.66c.04-.04.1-.06.15-.05.06 0 .1.04.14.09l.12.2a.1.1 0 0 1 0 .1l-.19.37Z" fill="#DACCAD"/><path d="m10.06 7.85.2.22.52.5c.15.14.12.2-.1.2a2.45 2.45 0 0 1-.74-.17 1.2 1.2 0 0 0-.24-.44.23.23 0 0 1-.06-.24c.03-.09.09-.14.18-.17.05 0 .13.03.24.1Z" fill="#BBAD95"/><path d="M7.18 8.14c-.01.1-.06.2-.15.3a.09.09 0 0 0-.02.1c.04.1.12.14.24.1.31-.1.57-.15.79-.16a.36.36 0 0 0-.1.18.12.12 0 0 1-.09.08l-.3.09c-.05.01-.06.05-.02.09l.08.07c.03.03.03.06 0 .1-.05.03-.07.05-.06.07.03.06.07.1.14.11.06.01.12 0 .18-.04.3-.2.6-.25.9-.16.04.01.07 0 .07-.04l.05-.49v.35c.03.1.03.17 0 .22a.09.09 0 0 1-.1.05c-.3-.03-.57.03-.8.2l-.35.2a.16.16 0 0 0-.08.15c0 .06.03.11.09.14.04.03.09.07.13.13.02.03.01.05-.02.06a.77.77 0 0 1-.31 0c-.04 0-.08 0-.12.02-.17.09-.29.2-.34.36-.02.04 0 .07.05.07.25 0 .42-.06.5-.2h.04l.03.01c.02.01.02.02.01.04a.69.69 0 0 0-.11.22c-.01.07-.05.1-.12.1-.27-.03-.44.03-.52.18a.09.09 0 0 0 0 .08c.02.03.04.04.08.04.07.01.13 0 .19-.05a.13.13 0 0 1 .1-.03c.29.05.54.04.77-.02.07-.02.1-.06.12-.14 0-.04.03-.06.07-.06l.37-.04c.03 0 .06 0 .1.02l.07.05c.04.04.03.06-.02.06a.25.25 0 0 1-.14-.06c-.04-.03-.07-.02-.1.01a.27.27 0 0 1-.2.08c-.05 0-.08.03-.08.08-.02.15-.14.26-.35.32-.06.02-.1.04-.11.07-.03.04-.03.09-.01.14.02.04.05.06.09.04a.73.73 0 0 0 .22-.14c.03.12.02.25-.02.39-.01.04 0 .06.03.07h.05c.02 0 .04-.02.07-.05.06-.08.12-.1.17-.06l.22.33c.02.04.04.08.04.12l.01.1c0 .01 0 .03-.02.03h-.05a.67.67 0 0 1-.2-.38c-.01-.05-.04-.06-.08-.04a.5.5 0 0 0-.15.14c-.04.05-.02.07.03.07.14-.01.22.05.23.18 0 .05-.02.07-.06.05a.29.29 0 0 1-.12-.08c-.03-.04-.06-.04-.1-.01a.37.37 0 0 0-.12.24c0-.06 0-.1-.02-.11-.01-.02-.04-.02-.08 0 .14-.18.15-.27.04-.28.05-.07.02-.13-.1-.18-.04-.02-.07 0-.08.04-.03.07-.07.11-.12.13-.04.01-.08 0-.1-.04a.64.64 0 0 0-.16-.14c-.04-.03-.07-.02-.1 0-.02.04-.03.12 0 .24 0 .04-.02.06-.06.06a.31.31 0 0 1-.1-.03c-.04-.01-.08 0-.1.03l-.15.15c-.04.04-.05.04-.04-.02.03-.12.1-.2.22-.22.03 0 .06-.03.07-.06l.06-.21c0-.04.04-.06.1-.06l.07.03c.04.04.07.03.1-.01a.41.41 0 0 1 .14-.12c.03-.02.04-.04.03-.08l-.05-.16c-.01-.05-.04-.07-.1-.06-.24.06-.4.17-.47.34-.02.05-.04.06-.07 0-.03-.05-.03-.1-.01-.14.05-.12.16-.21.33-.26.03-.01.04-.03.02-.06a.5.5 0 0 0-.17-.16c-.05-.03-.08-.02-.1.04l-.1.2c-.03.1-.1.12-.19.08l-.12-.05c-.06-.03-.07-.07-.03-.12l.07-.06a.18.18 0 0 0 .03-.1c.04-.36.16-.68.35-.97.03-.05.02-.07-.04-.06a.13.13 0 0 0-.08.05c-.04.04-.06.04-.06-.02 0-.03 0-.05.03-.07.1-.1.1-.2.03-.34a.72.72 0 0 1-.05-.08c0-.03 0-.07.04-.1.02-.03.03-.09.03-.18 0-.02-.01-.04-.03-.05l-.03-.01a.19.19 0 0 1-.12-.14c0-.05.02-.1.08-.16a.12.12 0 0 0 .05-.1c0-.25.11-.46.35-.63Z" fill="#807057"/><path d="M9.95 8.85c-.1.12-.12.23-.05.35.02.03.01.07-.01.1a.64.64 0 0 1-.52.26c-.2 0-.4-.05-.58-.17-.05-.03-.05-.06-.01-.1.17-.16.22-.3.14-.38 0-.1.02-.17.06-.24a.13.13 0 0 1 .1-.06c.2-.01.39-.03.59-.06.2-.03.29.07.28.3ZM7.48 8.8c-.12.14-.24.22-.37.23A.1.1 0 0 1 7 8.97.1.1 0 0 1 7 8.84c.15-.17.3-.2.46-.08.02 0 .02.02 0 .04Z" fill="#161211"/><path d="M4.3 10.66a1.48 1.48 0 0 1-.21-.76.74.74 0 0 0 .12-.85c-.05-.11-.01-.18.1-.21.17-.04.3-.02.4.06.04.03.05.06.05.1v.18c0 .38-.01.65-.05.8-.06.25-.2.48-.4.68Z" fill="#251B12"/><path d="M12.03 8.87c.06.14.15.24.27.32h.05c.01 0 0-.03 0-.07l.01.02c0 .05 0 .09.03.13-.07 0-.1.02-.13.06 0 .04 0 .08.02.11.03.06.08.11.15.17.02 0 .02.02.02.04s-.01.03-.03.03h-.04c-.05 0-.08.03-.09.08-.02.13.1.24.35.33.1.03.12.1.1.18-.04.08 0 .17.12.27.03.03.03.06 0 .1a.13.13 0 0 1-.08.03c-.05 0-.06.03-.03.07a.2.2 0 0 0 .13.09c.02 0 .04 0 .05-.02a.11.11 0 0 1 .03-.03c.04-.01.06 0 .08.05.07.15.15.27.24.36.05.04.08.03.1-.03v-.06a.1.1 0 0 0-.02-.1c-.17-.14-.24-.35-.23-.61.2.22.38.34.56.35-.24.62-.59 1.17-1.04 1.65.01-.05 0-.1-.02-.14a.05.05 0 0 0-.05-.02h-.04c-.04 0-.06-.03-.07-.07v-.08a.08.08 0 0 1 .09-.06c.07 0 .13-.02.18-.07.05-.05.06-.1 0-.13a.1.1 0 0 1-.03-.1c.03-.1 0-.16-.07-.19-.05-.02-.06-.06-.02-.1l.1-.14c.04-.04.04-.08.01-.11a.65.65 0 0 0-.63-.3c-.07 0-.08.03-.04.07.04.04.1.08.17.11.02.01.03.03.03.06 0 .01 0 .02-.02.03l-.06.02c-.09-.01-.16 0-.2.01-.18.05-.17.12 0 .22.05.02.1.08.17.18.02.03.04.04.07.05l.14.06c.06.04.06.06 0 .06a.28.28 0 0 1-.2-.06 2.22 2.22 0 0 0-.48-.3c-.13-.08-.15-.05-.05.07.08.1.2.2.35.32.04.02.05.05.06.1 0 .06.03.1.08.15v.04l-.01.04c-.01.02-.02.02-.04 0l-.5-.6c-.04-.04-.06-.04-.08.02l-.01.05a.38.38 0 0 1-.07-.12.38.38 0 0 1 .05-.12.12.12 0 0 1 .1-.05c.07 0 .14-.02.21-.05.04-.02.04-.04 0-.06l-.21-.08a.3.3 0 0 1-.1-.1c-.02-.05-.01-.07.04-.08a.1.1 0 0 0 .05-.02c.04-.04.04-.07-.01-.1l-.15-.07c-.07-.04-.07-.07 0-.1l.28-.07c.02-.01.04 0 .06.02 0 .02 0 .04-.02.06l-.05.05c-.03.02-.03.04 0 .06l.03.02c.03.03.04 0 .05-.05 0-.03.01-.04.03-.06a.1.1 0 0 1 .08 0l.4.1c.04 0 .05-.02.05-.05-.02-.1-.07-.15-.14-.15-.05 0-.07-.02-.07-.05 0-.03 0-.04-.04-.04l-.22.07c-.03.01-.06 0-.08-.03a.23.23 0 0 0-.14-.08c-.07-.02-.07-.04 0-.08.03-.02.08-.03.15-.02.14.05.24-.02.32-.2.02-.04 0-.07-.04-.08-.03 0-.05-.03-.04-.07 0-.03.02-.05.06-.05h.03c.03.02.05 0 .05-.03 0-.02-.02-.05-.05-.07a.1.1 0 0 0-.1-.01c-.04.01-.07 0-.1-.02-.04-.05-.03-.08.04-.09h.03c.05-.01.06-.04.03-.08-.09-.1-.16-.22-.22-.33a.1.1 0 0 0-.05-.05l-.16-.07c-.05-.03-.06-.06-.04-.11.05-.1.14-.15.27-.13.07.02.12 0 .15-.03.04-.02.07-.04.1-.04Z" fill="#847E62"/><path d="M12.35 9.12c0 .04.01.06 0 .07h-.04a.65.65 0 0 1-.28-.32c.16.02.26.1.32.25Z" fill="#433A33"/><path d="M11.76 10.34c-.07-.01-.12 0-.16.01-.06.04-.06.06.02.08.05.01.1.04.13.09.02.02.05.03.08.02l.23-.06c.02-.01.04 0 .03.03 0 .03.02.05.07.05.08 0 .12.05.14.15 0 .04-.01.05-.05.04l-.4-.1a.1.1 0 0 0-.07.01.07.07 0 0 0-.04.06c0 .06-.02.08-.05.06a1.12 1.12 0 0 0-.03-.03c-.03-.02-.03-.04 0-.06l.06-.05c.02-.02.02-.04 0-.06 0-.02-.02-.03-.05-.02l-.27.08c-.08.02-.08.05-.01.09l.15.08c.05.02.05.05.02.09a.1.1 0 0 1-.06.02c-.05 0-.06.03-.04.08a.3.3 0 0 0 .1.1c-.08.25-.17.21-.27-.1a.2.2 0 0 0-.06-.1.45.45 0 0 0-.15-.08c-.17-.05-.2-.01-.07.11a2.96 2.96 0 0 1 .52.76c0 .05-.01.07-.06.06a.46.46 0 0 1-.2-.1.04.04 0 0 0-.04 0l-.05.01c-.02.01-.02.02 0 .04.12.11.2.24.23.4.07.02.08.08.05.15l-.31-.35c-.12-.1-.31-.12-.57-.06-.04.01-.05.04-.04.08.02.11.14.16.35.14l.04.15c.07.23.16.37.28.42.04.13.1.24.2.35a.1.1 0 0 1 .02.1c-.03.09-.08.14-.17.14.03-.26-.06-.43-.26-.53-.05-.02-.06 0-.05.04v.05c-.04.02-.08.02-.11 0a.1.1 0 0 1-.04-.12c.07-.23.02-.36-.14-.38a.17.17 0 0 1-.11-.06l-.2-.23c-.02-.03-.05-.04-.09-.02-.13.07-.2.05-.23-.07.01-.23-.06-.4-.2-.52a6.82 6.82 0 0 0-.69-.35.14.14 0 0 0-.1 0l-.39.1c-.04.02-.06.05-.05.1 0 .08.02.15.03.2.01.06-.02.09-.1.09-.07-.04-.1-.12-.1-.25a.4.4 0 0 1 .12-.17c.03-.02.03-.05 0-.07L8.54 11c-.03-.04-.06-.04-.08 0a.65.65 0 0 1-.3.23.38.38 0 0 1-.11.06.73.73 0 0 1-.22.14c-.04.02-.07 0-.09-.04-.02-.05-.02-.1 0-.14.03-.03.06-.05.12-.07.21-.06.33-.17.35-.32 0-.05.03-.08.08-.08.08 0 .14-.02.2-.08.03-.03.06-.03.1 0 .05.03.1.05.14.05.05 0 .06-.02.02-.05a.27.27 0 0 0-.07-.06c-.03-.02-.07-.02-.1-.02l-.37.04c-.04 0-.07.02-.07.06-.01.08-.05.12-.12.14-.22.07-.48.07-.76.02-.04-.01-.08 0-.11.03a.25.25 0 0 1-.2.06.08.08 0 0 1-.06-.05.09.09 0 0 1 0-.08c.07-.15.24-.21.5-.18.08 0 .12-.03.13-.1 0-.04.04-.11.11-.22v-.04a.16.16 0 0 0-.04-.01h-.03c-.1.14-.26.2-.51.2-.05 0-.06-.03-.05-.07a.64.64 0 0 1 .35-.36.19.19 0 0 1 .1-.02c.14.02.24.02.32 0 .03 0 .04-.03.02-.06a.38.38 0 0 0-.13-.13.16.16 0 0 1-.1-.14c0-.07.03-.12.09-.15l.35-.2c.17-.02.34 0 .51.08l-.6.08c-.05 0-.07.04-.07.08 0 .06.03.09.07.1.22.07.46.13.74.18.04.01.07 0 .09-.04.03-.07.02-.17-.06-.29.46.33.86.32 1.22-.01l.3-.26c.08-.05.2-.1.37-.15.1-.03.18 0 .23.08a8.69 8.69 0 0 0 .37.44h.03c.03 0 .04 0 .03-.03l-.03-.1c-.01-.04 0-.05.05-.04l.43.16c.14.06.14.12 0 .17a.84.84 0 0 0-.24.16c-.02 0-.02.03-.02.05l.01.04c.01.03.03.03.06.01.14-.12.28-.17.43-.14.04 0 .06.03.06.07l-.01.05a.07.07 0 0 1-.05.03l-.16.02c-.05 0-.06.03-.02.06.1.07.1.13.03.18Z" fill="#251B12"/><path d="m13.86 10.2-.17.54c-.18 0-.37-.13-.56-.35a.35.35 0 0 1-.1-.17.3.3 0 0 0-.07-.12c-.04-.04-.09-.07-.13-.07-.04 0-.06-.03-.06-.08 0-.08-.03-.15-.13-.22a.17.17 0 0 1-.06-.1.84.84 0 0 0-.2-.36.36.36 0 0 1-.02-.12c.32.19.6.41.86.68.14.14.35.26.64.36Z" fill="#7599BF"/><path d="M12.39 9.27c.09.1.15.22.19.36.01.04.03.08.07.1.09.06.13.14.12.22 0 .05.02.07.06.08.05 0 .09.02.13.07a.3.3 0 0 1 .06.12c.03.08.07.13.11.17-.01.26.07.47.23.61a.1.1 0 0 1 .03.1l-.02.06c-.01.06-.04.07-.09.03-.1-.09-.17-.2-.24-.36-.02-.04-.04-.06-.07-.05l-.03.03a.06.06 0 0 1-.06.02.2.2 0 0 1-.13-.1c-.03-.03-.02-.06.03-.06.03 0 .06-.02.08-.04.03-.03.03-.06 0-.09-.11-.1-.16-.19-.13-.27.03-.09 0-.15-.09-.18-.25-.1-.37-.2-.35-.33.01-.05.04-.08.1-.07h.03c.02-.01.03-.02.03-.04s0-.03-.02-.04a.62.62 0 0 1-.15-.17.12.12 0 0 1-.02-.1c.02-.05.06-.07.13-.07Z" fill="#433A33"/><path d="M8.5 9.44a.4.4 0 0 1 .17.11c.07.12.1.22.06.3-.02.03-.05.04-.09.03a6.07 6.07 0 0 1-.74-.18c-.04-.01-.07-.04-.07-.1 0-.04.02-.07.07-.08l.6-.08Z" fill="#161211"/><path d="M4.84 11.72c-.04-.02-.07-.06-.07-.1a.45.45 0 0 0 .14-.43.1.1 0 0 0-.07-.08c-.22-.08-.33-.06-.34.05a.93.93 0 0 1-.14-.4c.05-.03.1-.04.15-.04.2.02.38.06.53.1.11.02.16.09.14.2-.03.34-.15.57-.34.7Z" fill="#847E62"/><path d="m11.56 11.1.2.08c.05.02.06.04.01.06a.46.46 0 0 1-.2.05.12.12 0 0 0-.1.05.39.39 0 0 0-.06.12c-.15-.23-.28-.4-.4-.53-.13-.12-.1-.16.07-.11.04.01.1.04.15.08a.2.2 0 0 1 .06.1c.1.32.19.35.27.1Z" fill="#605843"/><path d="M11.75 11.04c.06-.01.1-.06.1-.1-.02-.04-.08-.06-.14-.05-.06.02-.1.06-.1.1.02.05.07.07.14.05Z" fill="#433A33"/><path d="M12.65 12.4c-.1.13-.21.24-.35.33 0-.02-.02-.02-.04.02a.06.06 0 0 1-.07.03.06.06 0 0 1-.05-.05l-.07-.33.04-.01c.03-.02.03-.04.01-.07a.45.45 0 0 0-.28-.2.78.78 0 0 1-.22-.2c-.02-.04-.05-.05-.1-.03-.1.04-.13.1-.1.2a.8.8 0 0 0-.25-.4c-.01 0-.01-.02.01-.03l.05-.01h.04c.06.05.12.08.2.1.04 0 .07-.01.06-.06a.22.22 0 0 0-.05-.1l.01-.06c.02-.06.04-.06.08-.02l.5.6c.02.02.03.02.04 0l.01-.04v-.04a.24.24 0 0 1-.08-.15.13.13 0 0 0-.06-.1 2.06 2.06 0 0 1-.35-.32c-.1-.12-.08-.14.05-.08.19.1.34.2.47.31.05.04.12.06.21.06.06 0 .06-.02 0-.06a1.45 1.45 0 0 0-.14-.06.14.14 0 0 1-.07-.05.5.5 0 0 0-.17-.18c-.17-.1-.18-.17 0-.22a.64.64 0 0 1 .2-.01c.03 0 .05 0 .06-.02l.02-.03c0-.03 0-.04-.03-.06a.57.57 0 0 1-.17-.1c-.04-.05-.03-.08.04-.08.27-.03.48.07.63.3.03.04.03.07 0 .11l-.11.14c-.04.04-.03.08.02.1.07.04.1.1.07.19a.1.1 0 0 0 .04.1c.05.04.04.08-.01.13a.27.27 0 0 1-.18.07.08.08 0 0 0-.08.06v.08c0 .04.02.06.06.07h.04c.02 0 .04 0 .05.02.02.05.03.1.02.15Z" fill="#BBAD95"/><path d="m8.44 11.27-.03.14c0 .05-.03.06-.07.05-.08-.03-.14-.1-.2-.23a.65.65 0 0 0 .3-.23c.03-.04.06-.04.1 0l.02.03c.02.02.02.05 0 .07a.4.4 0 0 0-.12.17Z" fill="#847E62"/><path d="m10.03 11.9-.13.02c-.04 0-.07-.01-.1-.04-.04-.04-.04-.09-.02-.14.02-.04 0-.06-.03-.07l-.03-.02c-.06-.02-.1 0-.11.06l-.06.22-.02.02h-.04c-.03 0-.05-.01-.05-.04a.54.54 0 0 0-.26-.5h-.02l-.03.03c-.02.02-.02.04 0 .05.2.1.26.27.19.48-.02.05-.05.06-.09.02a.39.39 0 0 0-.2-.1.25.25 0 0 0-.2.05c-.07.06-.09.11-.04.15-.15.07-.12.17.1.31h.05a1 1 0 0 0 .02-.04c.02.02.03.04.02.06 0 .04-.04.06-.08.05-.18 0-.28.06-.29.2 0 .05.01.1.06.17l.03.07c.02.04 0 .06-.04.06H8.6c-.04.02-.05.05-.03.1.05.1.05.23-.01.38-.09-.07-.11-.17-.08-.3.01-.02 0-.04-.03-.06l-.03-.01c-.04-.02-.07 0-.09.03l-.08.2a.1.1 0 0 1-.1.06c-.1 0-.17-.03-.2-.08l.3-.28c.02-.02.02-.03 0-.04H8.2a.14.14 0 0 0 0-.13c0-.02-.03-.03-.06-.01a.22.22 0 0 0 .03-.07c.02-.05 0-.08-.06-.07h-.06c-.03 0-.04 0-.02-.03l.15-.22c.04-.05.03-.06-.03-.05a.27.27 0 0 0-.13.1c-.18.23-.34.48-.5.76a.56.56 0 0 0-.07.26c0 .07-.02.08-.05 0-.05-.13 0-.33.17-.6.12-.2.25-.37.4-.52 0-.1.05-.18.12-.24.04-.03.07-.03.1 0 .04.05.08.08.12.1.04 0 .06 0 .06-.06-.01-.13-.09-.2-.23-.18-.05 0-.07-.02-.03-.07a.5.5 0 0 1 .15-.14c.04-.02.07-.01.07.04.02.13.1.26.21.38h.05l.02-.04v-.09a.27.27 0 0 0-.05-.12l-.22-.33a.34.34 0 0 0 .18-.12c.08 0 .12-.03.1-.1a1.85 1.85 0 0 1-.03-.2c0-.04.02-.07.06-.08l.38-.12.11.01c.4.2.62.3.68.35.15.12.22.3.2.52Z" fill="#605843"/><path d="M4.77 11.63a1.3 1.3 0 0 1-.27-.47c.01-.11.13-.13.35-.05a.1.1 0 0 1 .07.08.45.45 0 0 1-.15.44Z" fill="#B3BBC2"/><path d="M8.15 11.23c.05.13.11.2.19.23.04.01.07 0 .07-.05l.03-.14c0 .13.02.21.08.25a.34.34 0 0 1-.18.12c-.05-.04-.1-.02-.17.06-.03.03-.05.05-.07.05h-.05c-.03-.01-.04-.03-.03-.07a.65.65 0 0 0 .02-.4l.1-.05Z" fill="#433A33"/><path d="M10.03 11.9c.02.12.1.14.23.07.04-.02.07-.01.1.02l.19.23c.03.03.06.05.11.06.16.02.2.15.14.38a.1.1 0 0 0 .03.11c.04.03.07.03.11 0v-.04c0-.05.01-.06.06-.04.2.1.29.27.26.53.07.06.1.12.08.2-1.2.62-2.46.75-3.78.37a.81.81 0 0 0 .1-.27c.02-.15.13-.23.3-.23.02.05.09.08.19.08a.1.1 0 0 0 .1-.06l.08-.2c.02-.04.05-.05.09-.03l.03.01c.03.02.04.04.03.07-.03.12 0 .22.08.29.18.08.24-.04.17-.37a.1.1 0 0 1 .04-.1c.1-.09.1-.19-.02-.3a.04.04 0 0 1 0-.05c0-.03.03-.04.06-.03.1.05.17.13.23.23a.2.2 0 0 0 .06.07l.27.17.06.01c.08.02.12.08.13.18v.3c0 .07.01.12.06.17.04.04.1.06.16.05.02 0 .04-.03.06-.08.02-.04.01-.07-.01-.1l-.04-.03c-.03-.03-.03-.06 0-.1.05-.05.05-.1.01-.14a.06.06 0 0 0-.04-.02h-.03c-.03-.02-.04-.04-.02-.07.05-.05.05-.11.02-.17a.1.1 0 0 1 0-.12.78.78 0 0 0 .08-.25c.02-.1 0-.15-.06-.16.02-.05.04-.09.08-.13.04-.03.06-.02.08.02l.05.04c.03 0 .06 0 .09-.04.05-.08.05-.18-.01-.32-.02-.05-.05-.05-.1-.01a.12.12 0 0 0-.03.09c0 .04-.02.07-.06.09-.04.01-.1 0-.14-.02.06-.01.1-.03.11-.05.03-.04.02-.07-.03-.07-.1 0-.14-.04-.1-.1 0-.04 0-.06-.04-.07-.04-.02-.07 0-.1.03a4.3 4.3 0 0 0-.14.3c-.06.13-.1.2-.14.2-.02 0-.04.03-.06.08-.01.05 0 .09.05.1l.2.09v.08c-.02.05-.05.07-.1.04-.18-.1-.33-.24-.46-.42.04 0 .07-.01.08-.05l-.02-.06c-.03-.13-.09-.22-.17-.27-.05-.04-.03-.09.04-.15a.25.25 0 0 1 .2-.04c.08.01.15.04.2.1.04.03.07.02.09-.03.07-.21 0-.37-.18-.48-.03-.01-.03-.03-.01-.05l.03-.03h.02c.18.11.27.28.26.5 0 .03.02.05.05.05h.03l.03-.03.06-.22c.01-.07.05-.08.1-.06l.04.02c.04.01.05.04.03.07-.02.05-.02.1.02.14.03.03.06.04.1.04l.13-.02Z" fill="#9A8E77"/><path d="M11.15 11.9c-.14-.01-.1.09.09.3a1.6 1.6 0 0 0-.03.05c-.01.02-.03.02-.05.02-.1-.02-.16-.08-.15-.19 0-.03 0-.05-.03-.06a.06.06 0 0 0-.08 0 .05.05 0 0 0-.01.04c-.21.02-.33-.03-.35-.14-.01-.04 0-.07.04-.08.26-.06.45-.04.57.06Z" fill="#605843"/><path d="M11.84 12.11c.05.12.13.21.23.3l.07.32c0 .02.02.04.05.05.03 0 .05 0 .07-.03.02-.04.04-.04.04-.02a.5.5 0 0 1-.2.17.2.2 0 0 1-.1 0c-.02-.01-.03-.02-.03-.04a.3.3 0 0 1 0-.03c.02-.03 0-.05-.02-.06a.31.31 0 0 1-.16-.22.6.6 0 0 0-.16-.14c0-.05-.06-.1-.17-.16.03-.07.01-.13-.05-.16-.02-.1.02-.16.12-.2.04-.02.07-.01.1.02.05.08.13.15.21.2Z" fill="#DACCAD"/><path d="M6.7 12c-.05.07-.09.12-.07.14.01.01.07-.03.13-.09.05-.05.09-.11.08-.12-.02-.02-.07.02-.13.08Z" fill="#9A8E77"/><path d="M9.71 12.26a.28.28 0 0 0-.07-.1c-.05-.03-.07-.02-.05.04.04.15.04.31-.02.47-.02.04-.01.07 0 .1.03.03.06.03.08-.01l.1-.21c.06 0 .08.06.06.15a.78.78 0 0 1-.08.25.1.1 0 0 0 0 .12c.03.06.03.12-.01.17-.03.03-.02.05.01.06l.03.01.04.02c.04.05.04.1 0 .14-.04.04-.04.07 0 .1l.03.03c.03.03.03.06.01.1-.02.05-.04.08-.06.08a.19.19 0 0 1-.16-.05.2.2 0 0 1-.06-.17v-.3c0-.1-.05-.16-.13-.18a.22.22 0 0 1-.06-.01l-.27-.17a.2.2 0 0 1-.06-.07.59.59 0 0 0-.23-.23c-.03-.01-.05 0-.07.03l.01.05c.11.11.12.21.02.3a.1.1 0 0 0-.04.1c.07.33.01.45-.17.37.06-.15.06-.28 0-.39-.01-.04 0-.07.04-.08l.06-.01c.04 0 .06-.02.04-.06a.46.46 0 0 0-.03-.07c-.05-.06-.07-.12-.06-.17.02-.14.11-.2.29-.2.13.18.28.32.47.42.04.03.07.01.08-.04l.02-.05c0-.02 0-.03-.02-.03l-.19-.08c-.05-.02-.06-.06-.05-.11.02-.05.04-.08.06-.08.04 0 .08-.07.14-.2l.15-.3c.02-.03.05-.05.09-.03.04 0 .05.03.03.07-.03.06 0 .1.11.1.05 0 .06.03.03.07-.02.02-.05.04-.11.05ZM11.15 11.9l.31.35c.11.06.17.1.17.16.02.22.07.26.16.14.02.1.08.18.17.22.02.01.03.03.02.06v.03l.01.04a.2.2 0 0 0 .1 0 .63.63 0 0 1-.22.19.63.63 0 0 1-.34-.43c-.02-.07-.1-.16-.26-.27l-.03-.2c-.2-.2-.23-.3-.1-.3Z" fill="#BBAD95"/><path d="M7.46 12.09c.03-.03.04-.06.03-.08-.02-.02-.05-.02-.09 0-.03.02-.04.06-.03.08.02.02.05.02.09 0Z" fill="#807057"/><path d="m7.87 12.28-.18.26c-.02.02-.04.03-.06.01a.06.06 0 0 1-.02-.02.06.06 0 0 1 0-.06l.3-.47c.11 0 .1.1-.04.28Z" fill="#49452F"/><path d="m11.24 12.2.04.19-.05-.03c-.04-.02-.06-.01-.04.04.06.12.06.2.02.23-.12-.05-.2-.19-.28-.42a2.58 2.58 0 0 0-.04-.15l.01-.03a.06.06 0 0 1 .08-.01c.02.01.04.03.03.06 0 .1.04.17.15.19.02 0 .04 0 .05-.02 0-.02.02-.03.03-.05ZM7.35 12.85l.02.16c.01.05 0 .08-.04.1-.04 0-.06-.01-.07-.05a.13.13 0 0 0-.07-.08c-.06-.03-.1-.01-.13.05l-.05.12c-.04.09-.1.1-.17.05l-.14-.1c-.06-.03-.06-.07 0-.11a1 1 0 0 1 .4-.2c.15-.03.2-.12.15-.26a.17.17 0 0 1 .07-.21l.36-.27h.03l.01.03v.03c-.2.17-.32.36-.37.6a.4.4 0 0 0 0 .14Z" fill="#9A8E77"/><path d="M8.8 12.1c.07.04.13.13.16.26a1 1 0 0 1-.02.03c0 .02-.02.02-.04.01-.23-.14-.26-.24-.1-.3Z" fill="#251B12"/><path d="m9.75 12.54-.1.22c-.02.04-.05.04-.07 0-.02-.02-.03-.05-.01-.09a.77.77 0 0 0 .02-.47c-.02-.06 0-.07.05-.04.02.02.05.05.07.1.05.03.1.03.14.02.04-.02.06-.05.06-.1 0-.03.02-.06.04-.08.04-.04.07-.04.09.01.06.14.06.24 0 .32a.08.08 0 0 1-.08.04c-.02 0-.04-.02-.05-.04-.02-.04-.04-.05-.08-.02a.33.33 0 0 0-.08.13Z" fill="#605843"/><path d="M12.07 12.4a.76.76 0 0 1-.23-.29c.11.03.2.1.28.2.02.04.02.06-.01.08a.15.15 0 0 1-.04.01Z" fill="#807057"/><path d="M11.66 12.14c.02-.02.04-.02.06 0 .02.02.03.05 0 .08-.01.02-.03.03-.05.01-.04-.02-.04-.05-.01-.09Z" fill="#9A8E77"/><path d="M11.28 12.39c.15.1.23.2.25.27.06.2.17.35.34.43l-.53.32c.01-.07-.01-.13-.08-.19.09 0 .14-.05.17-.13a.1.1 0 0 0-.02-.1.89.89 0 0 1-.2-.36c.04-.03.04-.1-.02-.23-.02-.05 0-.06.04-.04l.05.03Z" fill="#616566"/><path d="M11.63 12.4a.6.6 0 0 1 .16.15c-.09.13-.14.08-.16-.14Z" fill="#605843"/><path d="m8.2 12.96-.09.02c-.05.01-.07 0-.05-.06 0-.03.03-.06.08-.1.03 0 .06 0 .06.02.02.04.02.08 0 .12Z" fill="#49452F"/><path d="M8.95 13.22h-.1l-.01-.07c0-.03 0-.05.03-.06h.03l.03.01c.02.04.02.08.02.12Z" fill="#BBAD95"/><path d="M8.86 13.22h.09a.9.9 0 0 1 .17.25c.05.09.02.12-.08.1-.14-.05-.2-.16-.18-.35Z" fill="#49452F"/><path d="M8 13.5c0-.03.02-.04.05-.04.03 0 .04 0 .05.03.02.05.02.1.01.14 0 .05-.03.06-.07.03-.05-.04-.07-.1-.04-.17Z" fill="#605843"/><path d="M8.92 13.59c.04.03.05.07.05.1-.01.06-.04.08-.08.07a.19.19 0 0 1-.15-.1.06.06 0 0 1 0-.06.06.06 0 0 1 .05-.04c.07 0 .1 0 .13.03Z" fill="#BBAD95"/><defs><linearGradient id="a" x1="3.35" y1="3.12" x2="21.9" y2="24.43" gradientUnits="userSpaceOnUse"><stop stop-color="#1A1E21"/><stop offset="1" stop-color="#06060A"/></linearGradient></defs></svg>