<!-- by TradingView --><svg width="18" height="18" viewBox="0 0 18 18" xmlns="http://www.w3.org/2000/svg"><path fill="url(#a)" d="M0 0h18v18H0z"/><path d="M11.47 7.54 13 6.1v-.04l-.87-.82h-.03l-1.3 1.23h-.04L9.18 4h-.03l-.02.01v3.44l.02.03 2.97 1.17h.03v-.03l-.68-1.06v-.03ZM7.26 6.42c-.03.05-.06.05-.09.02l-1.25-1.2-.06.01-.85.81v.04l1.44 1.37c.06.05.07.11.03.18l-.62.94c-.04.06-.02.08.05.05l2.84-1.12c.07-.03.1-.08.1-.15V4.04c0-.05-.02-.05-.04 0L7.26 6.41Zm1.9 1.4 3.01 1.2c.03 0 .03.02 0 .03l-3 1.74c-.03 0-.04 0-.04-.02V7.84c0-.02.01-.03.03-.02Zm-.31 2.92V7.86c0-.03-.02-.04-.05-.03L5.84 9c-.01 0-.02.01-.02.03 0 .01 0 .02.02.03l2.95 1.71h.04l.02-.03Zm-2.04.55-.95-1.28c-.04-.04-.03-.05.02-.02l2.9 1.67c.05.03.07.07.07.12v2.19c0 .04-.01.04-.03 0L7.63 12.4a.07.07 0 0 0-.05-.03c-.03 0-.05 0-.06.02l-1.2 1.13c-.02.03-.06.03-.09 0l-.8-.77c-.04-.03-.04-.06 0-.1l1.38-1.3c.01-.02.02-.04 0-.06Zm5.74 1.36-1.37-1.3c-.02-.02-.02-.04 0-.06l.95-1.27c.03-.05.03-.06-.03-.03l-2.9 1.67a.13.13 0 0 0-.06.12v2.18c0 .04.01.04.04 0l1.17-1.57a.07.07 0 0 1 .06-.03c.02 0 .04 0 .06.02l1.19 1.13c.03.03.06.03.1 0l.8-.76c.03-.03.03-.07 0-.1Z" fill="#fff"/><defs><linearGradient id="a" x1="3.35" y1="3.12" x2="21.9" y2="24.43" gradientUnits="userSpaceOnUse"><stop stop-color="#1A1E21"/><stop offset="1" stop-color="#06060A"/></linearGradient></defs></svg>