<!-- by TradingView --><svg width="18" height="18" viewBox="0 0 18 18" xmlns="http://www.w3.org/2000/svg"><path fill="url(#a)" d="M0 0h18v18H0z"/><path d="M6.51 5c1.94 0 3.51 1.8 3.51 4H3c0-2.2 1.57-4 3.51-4Z" fill="url(#b)"/><path d="M15 9c0 2.21-1.57 4-3.51 4-1.94 0-3.51-1.79-3.51-4H15Z" fill="url(#c)"/><path d="M10.02 9c0 2.21-1.57 4-3.5 4C4.56 13 3 11.21 3 9h7.02Z" fill="url(#d)"/><path d="M11.49 5C13.43 5 15 6.8 15 9H7.98c0-2.2 1.57-4 3.5-4Z" fill="url(#e)"/><path transform="matrix(.65979 -.75145 .65979 .75145 6.51 9)" fill="url(#f)" d="M0 0h3.75v3.75H0z"/><defs><linearGradient id="a" x1="3.35" y1="3.12" x2="21.9" y2="24.43" gradientUnits="userSpaceOnUse"><stop stop-color="#1A1E21"/><stop offset="1" stop-color="#06060A"/></linearGradient><linearGradient id="b" x1="8.31" y1="7.79" x2="4.84" y2="8.74" gradientUnits="userSpaceOnUse"><stop stop-color="#976AFF"/><stop offset="1" stop-color="#B6BBFB"/></linearGradient><linearGradient id="c" x1="13.02" y1="9.23" x2="10.19" y2="11.34" gradientUnits="userSpaceOnUse"><stop stop-color="#FFD102"/><stop offset="1" stop-color="#FC6C29"/></linearGradient><linearGradient id="d" x1="6.86" y1="9.9" x2="4.9" y2="9.25" gradientUnits="userSpaceOnUse"><stop stop-color="#75C3FE"/><stop offset="1" stop-color="#B7BCFC"/></linearGradient><linearGradient id="e" x1="10.58" y1="7.52" x2="14.22" y2="7.54" gradientUnits="userSpaceOnUse"><stop stop-color="#A5DA3A"/><stop offset="1" stop-color="#F8D804"/></linearGradient><linearGradient id="f" x1="3.56" y1="2.24" x2=".23" y2="2.24" gradientUnits="userSpaceOnUse"><stop stop-color="#A5D939"/><stop offset="1" stop-color="#71C2F3"/></linearGradient></defs></svg>