<!-- by TradingView --><svg width="18" height="18" viewBox="0 0 18 18" xmlns="http://www.w3.org/2000/svg"><path fill="#0C2B11" d="M0 0h18v18H0z"/><path d="M9.02 6.29c0-.01 0-.02-.02-.02a6.62 6.62 0 0 0-.4 1.59c0 .08 0 .17.04.26a42.86 42.86 0 0 0 .2.58h-.02c-.1.02-.16 0-.25-.06a564.27 564.27 0 0 0-2.26-1.53.08.08 0 0 1-.01-.03l-.08-.9a.08.08 0 0 0-.04-.07L4.54 5a.02.02 0 0 0-.03 0v.52c0 .46.15.86.44 1.2.1.14.3.3.6.5a1297.3 1297.3 0 0 0 3.11 2.11v.01c-.4.35-.82.53-1.36.39-.22-.06-.49-.25-.68-.39a9.74 9.74 0 0 0-.12-.09.08.08 0 0 1-.01-.03l-.08-.9a.1.1 0 0 0-.05-.09L4.54 7.02a.02.02 0 0 0-.03 0l-.01.38a2 2 0 0 0 .44 1.36c.12.14.38.35.77.6a131.71 131.71 0 0 1 1.26.86l.01.04.13 1.45a.02.02 0 0 1-.02.02h-.01a8.74 8.74 0 0 1-.33-.21.19.19 0 0 1-.08-.14 573.27 573.27 0 0 1-.08-.9l-.02-.02L4.7 9.2c-.02-.01-.03 0-.03.02v.39c0 .46.08.84.35 1.22.1.15.3.33.59.56a4871.5 4871.5 0 0 0 3.4 2.6l3.38-2.6c.29-.23.49-.41.6-.56.26-.37.34-.76.34-1.22v-.39c0-.03 0-.03-.03-.02l-1.87 1.26a.07.07 0 0 0-.03.05l-.07.87c0 .05-.03.1-.09.14a8.75 8.75 0 0 1-.35.2l.13-1.46a.1.1 0 0 1 .04-.07l1.23-.82a4 4 0 0 0 .77-.61 2 2 0 0 0 .44-1.36 16.3 16.3 0 0 0-.03-.39l-1.83 1.23a.1.1 0 0 0-.05.08l-.08.9a.08.08 0 0 1-.03.07l-.1.07c-.2.13-.46.32-.68.38-.54.14-.95-.04-1.36-.39a.02.02 0 0 1 0-.02v-.01l3.1-2.1c.3-.19.5-.35.61-.48.3-.34.44-.75.44-1.21a11.17 11.17 0 0 0-.03-.53l-1.64 1.11a.08.08 0 0 0-.04.06l-.08.9a.08.08 0 0 1-.04.07c-.7.47-1.46.97-2.23 1.5-.09.06-.16.08-.25.07a.03.03 0 0 1-.02-.03v-.01l.2-.55a.6.6 0 0 0 .04-.26 6.6 6.6 0 0 0-.38-1.57Zm.4 4.85a.07.07 0 0 0-.03.06v.37a.12.12 0 0 1-.04.09l-.17.14c-.03.02-.04.02-.04-.02v-.85a.06.06 0 0 1 .02-.06l.48-.32c.03-.02.04-.02.04.02v.33a.1.1 0 0 1-.04.08l-.22.16Zm-1.07-.6.5.35a.02.02 0 0 1 .01.01v.88a.02.02 0 0 1-.02.01h-.01l-.21-.15a.02.02 0 0 1-.01-.01v-.46a.02.02 0 0 0-.01-.02l-.27-.19a.02.02 0 0 1-.01-.02v-.38a.02.02 0 0 1 0-.02h.03Z" fill="#C4C4C4"/></svg>