<!-- by TradingView --><svg width="18" height="18" viewBox="0 0 18 18" xmlns="http://www.w3.org/2000/svg"><path fill="#0E1E2D" d="M0 0h18v18H0z"/><path d="m8.06 13.2-.2-.12c-.03-.01-.05-.04-.04-.07l.34-1.86c0-.05.02-.09.05-.13a.28.28 0 0 1 .09-.08.24.24 0 0 1 .23 0l1.75.94.03.02v.2c0 .02.02.05.04.06l.33.23c.02.01.04.01.07 0l.32-.22a.08.08 0 0 0 .04-.06c.01-.18 0-.36-.02-.55a38747.56 38747.56 0 0 0 2.48-6.5l.4-.27c.02-.01.03-.03.03-.06v-.46c0-.03-.01-.05-.04-.07L13.6 4a.02.02 0 0 0-.02 0l-.34.22a.07.07 0 0 0-.02.03l-.01.04v.16c0 .02 0 .04-.02.05a.1.1 0 0 1-.04.04l-8.02 3.7-.05-.01-.22-.12a.05.05 0 0 0-.06 0l-.32.21a.08.08 0 0 0-.04.07v.45l.01.03.02.03.34.22c.02.02.04.02.06 0l.24-.15a.06.06 0 0 1 .06 0l1.24.66c.02.01.03.03.03.06v.18l.03.06.16.1c.1.05.15.1.18.23a550.53 550.53 0 0 0 .7 2.82l-.03.03-.15.1c-.02.01-.03.03-.03.06v.46c0 .03.01.06.04.07l.35.2h.05l.33-.22a.07.07 0 0 0 .03-.07v-.46c0-.03-.01-.05-.03-.06Zm1.8-5.78v.13l-.03.02-2.66 1.7c-.07.04-.13.02-.2-.06a.16.16 0 0 0-.1-.07c-.03 0-.07 0-.1.02l-.05.03c-.06.05-.15.11-.2.12a.2.2 0 0 1-.12-.03 158.63 158.63 0 0 0-1.17-.66.07.07 0 0 1 0-.07l.03-.02 8-3.68h.02c.02.01.02.03 0 .06l-2.44 6.42c-.01.02-.03.04-.05.04a.6.6 0 0 0-.34.16.1.1 0 0 1-.05.03l-.05-.01-1.73-.94a.1.1 0 0 1-.04-.04.12.12 0 0 1-.02-.05v-.26c0-.03.01-.06.03-.08l1.5-1.86c.07-.1.16-.17.25-.21a2.73 2.73 0 0 0 .32-.21v-.51a.06.06 0 0 0-.02-.03l-.34-.22a.06.06 0 0 0-.07 0l-.33.22a.07.07 0 0 0-.03.02v.04Zm-1.72 2.6-.35.22-.02.03v.51l.1.1.02.04a.1.1 0 0 1 0 .04l-.24 1.32c-.01.08-.03.08-.04 0l-.55-2.2c0-.03 0-.05.02-.07a.22.22 0 0 1 .06-.04c.1-.03.12-.14.1-.24v-.1a.15.15 0 0 1 .06-.07 252.41 252.41 0 0 1 2.62-1.62h.02v.07l-1.62 2.02a.06.06 0 0 1-.06.02.1.1 0 0 1-.05-.03c-.03-.02-.05-.02-.07 0Z" fill="#98D7F0"/><path d="m6.47 10.93-1.61 1.3a.07.07 0 0 0-.02.08l.07.1c.02.03.05.04.07.02l1.62-1.29a.07.07 0 0 0 .01-.08l-.06-.11c-.02-.03-.05-.03-.08-.02ZM6.53 12.08l-.77.64v.04l.1.16h.03l.77-.64v-.03l-.1-.17h-.03ZM4.6 12.43l-.55.44a.07.07 0 0 0-.02.1l.06.1c.02.02.06.03.08 0l.55-.43a.07.07 0 0 0 .02-.1l-.06-.1c-.02-.02-.06-.03-.08 0ZM5.54 12.9l-.31.27a.06.06 0 0 0-.01.08l.07.1c.01.03.05.04.07.02l.3-.26a.06.06 0 0 0 .02-.08l-.07-.1c-.02-.03-.05-.04-.07-.02ZM6.73 13.05l-.46.4a.06.06 0 0 0 0 .08l.07.11c.02.03.05.03.07.01l.46-.4a.06.06 0 0 0 0-.07l-.07-.12c-.02-.02-.05-.02-.07 0Z" fill="#98D7F0"/></svg>