<!-- by TradingView --><svg width="18" height="18" viewBox="0 0 18 18" xmlns="http://www.w3.org/2000/svg"><path fill="#F0F3FA" d="M0 0h18v18H0z"/><path d="m11.4 13.22.12.26c.01.02.01.05 0 .07a.1.1 0 0 1-.03.06c-.01.01-.02.03-.02.07 0 .02 0 .03-.02.04-.26.13-.64.13-.93.11l-.18-.03-.52-.08a.12.12 0 0 1-.06-.03.1.1 0 0 1-.03-.07c0-.02-.02-.03-.06-.05v-.1c0-.03 0-.04-.03-.03l-.4.03h-.8l-.6-.08h-.02v.01l-.02.02v.01c.05.12 0 .22-.13.3-.33.05-.63.09-.88.1a2 2 0 0 1-.74-.1c-.07-.22-.03-.4.12-.54.17-.15.43-.15.65-.14.02 0 .03 0 .04-.02V13a.04.04 0 0 0-.02-.03l-.39-.22a4.48 4.48 0 0 1-2.14-4.5l-.02-.03c-.1-.1-.18-.2-.26-.32-.1-.15.04-.23.2-.24.02 0 .02-.01.01-.03a1.04 1.04 0 0 1-.17-.38l.01-.06c.05-.08.13-.11.26-.1.04 0 .05-.02.04-.06-.05-.12-.1-.32.12-.3.13 0 .23.05.3.15a.04.04 0 0 0 .03.02.04.04 0 0 0 .03-.02l.43-.53A5.27 5.27 0 0 1 6.67 5.2a.04.04 0 0 0 .02-.04 4.16 4.16 0 0 1-.02-2.02c.03-.11.1-.15.23-.12a3.38 3.38 0 0 1 1.1.57 2 2 0 0 1 .6-.04h.02l-.14-.3a.05.05 0 0 1 .01-.06h.02c.02-.02.05-.02.09-.02.32.03.61.15.86.35.04.04.06.03.06-.02 0-.1.04-.12.12-.08l.02.02.2.3.04.03.31.13a.1.1 0 0 0 .1-.01 6.04 6.04 0 0 1 2.07-.8c.15-.03.34-.03.37.15a3.7 3.7 0 0 1-.57 2.48v.04a4.3 4.3 0 0 1 1.62 2.9c0 .02.01.04.03.05l.15.12.02.02a.05.05 0 0 1-.01.05l-.02.02-.12.05a.04.04 0 0 0-.03.03 4.25 4.25 0 0 1-1.42 3.12 6.1 6.1 0 0 1-1.32.94c.13.03.24.09.32.17Z" fill="#0E0403"/><path d="M7.77 3.69c-.2-.13-.45-.27-.74-.43a.33.33 0 0 0-.19-.04.1.1 0 0 0-.04-.07h.1c.33.12.63.28.91.48.02.01.02.03 0 .04 0 .01-.01.02-.04.02Z" fill="#fff"/><path d="M6.8 3.15a.1.1 0 0 1 .04.07l-.01.12c-.04.32-.04.64-.03.95l.05.65-.02.04c-.01.04-.03.04-.04 0a4.15 4.15 0 0 1 0-1.83Z" fill="#F8EBAE"/><path d="m7.77 3.69-.1.09a.08.08 0 0 0-.03.06.08.08 0 0 0 .03.06c.06.04.12.08.2.1.02 0 .02.01 0 .02l-.13.07a.42.42 0 0 1-.22-.14 2.56 2.56 0 0 0-.51-.55c-.08-.05-.14-.07-.18-.06l.01-.12c.06 0 .12 0 .19.04.3.16.54.3.74.43Z" fill="#F97C07"/><path d="m12.58 3.22-.15.08c-.2.03-.44.1-.71.22-.48.2-.9.42-1.23.64-.1.07-.24.08-.41.04.15-.1.3-.2.45-.27.54-.3 1.1-.52 1.69-.67.07-.02.19-.03.36-.04Z" fill="#fff"/><path d="m12.6 3.92-.01-.22c0-.09-.03-.14-.1-.16a.13.13 0 0 0 .03-.07l-.01-.04a.14.14 0 0 0-.08-.03.14.14 0 0 0 0-.1l.15-.08c.04.22.04.46.02.7Z" fill="#AB381A"/><path d="M12.43 3.3v.1c-.3.08-.56.21-.76.39-.28.23-.46.41-.56.53-.13.18-.21.3-.24.39a.34.34 0 0 0-.02.16c0 .04.04.05.08.04.04 0 .07 0 .1.05.15.24.27.48.35.7l.19.5c0 .03.04.1.1.23.05.08.07.16.07.24-.14-.1-.29-.16-.44-.19a.08.08 0 0 1-.04-.03c-.09-.09-.14-.19-.28-.25-.02-.01-.04 0-.05.02l-.06-.05a.11.11 0 0 0-.04-.02l-.12-.04c-.02 0-.03-.01-.03-.03.1-.87-.9-1.46-1.6-.85-.05.05-.13.15-.23.32v.05c0 .02 0 .03-.02.04a.06.06 0 0 0-.01.03c-.05.25-.02.47.1.68-.31-.12-.63-.16-.95-.22l.3-.07A.02.02 0 0 0 8.3 6V6c0-.01 0-.02-.02-.02l-.02-.01a.25.25 0 0 1-.1-.03c-.01-.01-.02-.03 0-.05l.02-.03.01-.04A.79.79 0 0 0 8 5.3a.66.66 0 0 0-.65-.2l-.21.05a.56.56 0 0 1 .11-.28c.15 0 .31-.02.5-.08.05-.01.06-.05.03-.1-.03-.04-.08-.05-.15-.04h-.15c.12-.15.28-.27.45-.37a.2.2 0 0 1-.02.15.06.06 0 0 0 .02.08l.03.01c.29.02.67-.17.93-.3.1-.05.1-.07-.02-.06-.17.02-.32.06-.5.12l-.21.08c0-.06.05-.11.13-.15a14.6 14.6 0 0 1 .45-.25v-.01l-.01-.03h-.03l-.77-.07a2.1 2.1 0 0 1 1.24.03.06.06 0 0 0 .04-.02v-.02c.01 0 0-.02-.03-.03a.11.11 0 0 0-.07-.1 1.28 1.28 0 0 1-.32-.23.07.07 0 0 1-.02-.03c-.01-.02 0-.03.01-.04.29.1.55.25.79.45.03.03.05.03.08 0 .08 0 .13.01.13.04.08.07.18.12.3.16l-.06.08c-.01.02 0 .03.01.04l.06.02c.17.04.3.03.4-.04a7.8 7.8 0 0 1 1.24-.64c.27-.12.5-.19.7-.22Z" fill="#F97C07"/><path d="M9.64 3.86c-.03.03-.05.03-.08 0-.24-.2-.5-.35-.79-.45l-.08-.04c-.02 0-.02-.02 0-.02a.14.14 0 0 1 .08 0c.34.08.63.26.87.51Z" fill="#fff"/><path d="m7.74 4.1-.2.13a.04.04 0 0 1-.07-.02A16.53 16.53 0 0 0 7 3.4c.18.12.35.3.52.54.05.06.12.11.22.14Z" fill="#AB381A"/><path d="M12.5 3.54c.06.02.1.07.09.16a1.53 1.53 0 0 0 0 .21.92.92 0 0 0-.04.22c-.01.1-.02.17-.04.22a2.19 2.19 0 0 0-.09.29l-.02.02c-.07.2-.16.37-.26.51a.6.6 0 0 1-.31.25c.38-.46.6-.97.63-1.52l.03-.36Z" fill="#B94C27"/><path d="m12.32 3.92-.34.47a.45.45 0 0 0-.17-.13c-.02-.01-.02-.02 0-.03l.15-.09a.04.04 0 0 0 .02-.02c.02-.07 0-.1-.09-.07l-.29.09c-.14.04-.15.02-.03-.07.22-.17.43-.36.72-.48a.03.03 0 0 1 .05.02v.01l-.02.3Z" fill="#AB381A"/><path d="M7.03 4.02c0 .07.03.17.05.29.02.07.08.1.14.13.03 0 .03.02 0 .04l-.15.14a.02.02 0 0 1-.02 0 .02.02 0 0 1-.02-.01c-.1-.32-.13-.63-.1-.94.01-.1.04-.1.09-.02l.25.41-.01.02h-.04l-.01-.01c-.04-.07-.1-.1-.16-.08-.02 0-.03.01-.02.03Z" fill="#B94C27"/><path d="m9.17 3.81.04.03a.06.06 0 0 1-.03.03.06.06 0 0 1-.05 0 2.1 2.1 0 0 0-1.2-.02h-.06c-.05-.02-.05-.04 0-.05.34-.12.67-.13.98-.06l.32.07Z" fill="#fff"/><path d="m9.77 3.9.31.09c.02 0 .03.02.03.04 0 .01-.02.03-.04.03a.81.81 0 0 1-.3-.16Z" fill="#F8EBAE"/><path d="M12.6 3.91c-.02.52-.15 1-.4 1.42-.19.14-.32.35-.4.62l-.11-.37.01-.05.13-.11a.6.6 0 0 0 .31-.25 2.45 2.45 0 0 0 .28-.53l.01-.02.08-.27c.02-.05.03-.13.04-.22 0-.07.02-.15.05-.22Z" fill="#AB381A"/><path d="M8.69 3.95h.04v.03H8.7l-.43.23c-.08.04-.12.09-.13.15-.09.03-.09-.01 0-.12.1-.15.35-.25.54-.3Z" fill="#FDFACE"/><path d="M12.32 3.92a2.33 2.33 0 0 1-.68 1.48h-.02v-.01l-.25-.42v-.01l.12.03c.1.04.22.01.32-.01a.1.1 0 0 0 .06-.03.1.1 0 0 0 .03-.06c.01-.12-.09-.22-.18-.28v-.03c.15-.07.23-.13.26-.19l.34-.47Z" fill="#B94C27"/><path d="M7.92 4.28c-.17.1-.33.22-.45.38a.48.48 0 0 0-.23.21.56.56 0 0 0-.11.28.95.95 0 0 0-.32.35c-.03 0-.04 0-.05-.04C7 4.86 7.4 4.38 8 4.14c.07-.03.08-.02.04.04a.94.94 0 0 1-.1.1Z" fill="#fff"/><path d="M7.25 4.3c.04.02.08.02.08 0 .01 0-.02-.03-.06-.05h-.09c0 .01.03.04.07.05Z" fill="#AB381A"/><path d="m6.85 4.94-.05-.65.15.46v.05l-.1.14ZM11.16 4.57h-.01v-.01c-.01-.03.01-.07.06-.1a.6.6 0 0 1 .2-.1h.01a.72.72 0 0 1 .22-.02.2.2 0 0 1 .07.01l.03.04v.01l-.58.17Z" fill="#B94C27"/><path d="M9.43 4.49c.22-.07.6-.04.72.2v.05a.05.05 0 0 1-.06 0c-.2-.08-.41-.12-.63-.1a.05.05 0 0 1-.04-.03.1.1 0 0 1-.02-.09c0-.02.02-.03.03-.03ZM7.24 4.87c.06-.1.13-.17.23-.21h.15c.07-.02.12 0 .15.03.03.05.02.09-.04.1-.18.06-.34.09-.49.08Z" fill="#0E0403"/><path d="M11.83 6.7a.35.35 0 0 1-.1-.07.54.54 0 0 0-.05-.24 3.63 3.63 0 0 1-.3-.72c-.08-.23-.2-.47-.35-.7-.03-.05-.06-.07-.1-.06a.32.32 0 0 1 .08-.11h.04a3 3 0 0 1 .6 1.1c.07.29.1.52.28.73v.03l-.1.04Z" fill="#B94C27"/><path d="m10.2 5.47.04-.02V5.4a.79.79 0 0 0-1.03.02c-.1.09-.16.2-.18.31-.04.24.19.46.43.48.02 0 .03 0 .04-.02v-.05l.04.02.14.13c.08.04.08.06-.01.06-.12 0-.26-.02-.42-.05-.2-.04-.31-.16-.33-.37-.02-.38.15-.64.5-.78a.8.8 0 0 1 .86.17c.2.19.27.43.24.73 0 .01 0 .02-.02.02h-.1v-.01a.57.57 0 0 0-.2-.6Z" fill="#B8C6D3"/><path d="M10.2 5.47c-.2-.13-.39-.12-.58.03-.21.17-.26.38-.12.65v.05l-.04.02c-.24-.02-.47-.24-.43-.48a.54.54 0 0 1 .17-.31.79.79 0 0 1 1.04-.02v.04l-.04.02ZM7.9 5.43c.06.06.1.14.12.24v.02H8c-.12-.27-.43-.34-.66-.16a.45.45 0 0 0-.17.42c0 .02 0 .04-.02.05a.23.23 0 0 1-.07.04c-.1-.03-.15-.07-.18-.14-.02-.06-.01-.12.02-.2.19-.38.51-.47.97-.27Z" fill="#fff"/><path d="M12.2 5.33c-.1.23-.24.43-.4.62.08-.27.21-.48.4-.62Z" fill="#A56761"/><path d="M6.76 5.46c0 .03.02.05.05.04-.06.21-.09.42-.09.63 0 .03-.01.04-.04.03h-.02c-.02-.01-.03-.02-.03-.04a1.4 1.4 0 0 1 .13-.66Z" fill="#696868"/><path d="M6.56 5.63c-.3.2-.53.4-.7.58-.23.24-.4.46-.55.66a1.1 1.1 0 0 0-.11.25l-.2.14c-.04.03-.05.02-.02-.02.37-.66.93-1.31 1.59-1.74.03-.02.04-.01.03.03 0 .03-.02.07-.04.1Z" fill="#fff"/><path d="M9.62 5.5c-.17.22-.2.44-.08.67l-.04-.02c-.14-.27-.1-.48.12-.65Z" fill="#AB9E8E"/><path d="M9.93 5.8c.09.01.16-.05.17-.13 0-.07-.07-.14-.16-.15-.1 0-.17.06-.17.14 0 .08.06.14.16.15Z" fill="#fff"/><path d="M6.56 5.63c.01.12-.02.21-.09.27a5.55 5.55 0 0 0-1.1 1.19l-.17.03c.03-.1.07-.2.11-.25.14-.2.32-.42.54-.66.18-.19.41-.38.71-.58Z" fill="#F6DE8F"/><path d="M13.65 8.43c-.1-.16-.19-.39-.27-.67a2.98 2.98 0 0 0-.62-1.07c-.23-.27-.45-.54-.73-.75l.04-.06.01-.02a.06.06 0 0 1 .07 0 4.26 4.26 0 0 1 1.5 2.57Z" fill="#FDFACE"/><path d="M12.03 5.94c.28.21.5.48.73.75.3.34.5.7.62 1.07.08.28.17.5.27.67l.04.16c0 .03 0 .03-.03.03l-.24-.07a.05.05 0 0 1-.03-.04 4.1 4.1 0 0 0-1.41-2.45c-.01 0-.02-.02 0-.04l.05-.08Z" fill="#F8EBAE"/><path d="m5.87 6.88-.29.2-.01.02v.01h-.04V7.1a.02.02 0 0 1 0-.03l.27-.33c.17-.23.37-.39.62-.62.07-.07.1-.06.06.04 0 .03-.01.05-.04.08-.16.2-.28.45-.56.57-.02 0-.02.02-.02.04v.03Z" fill="#D8994F"/><path d="M7.97 6.09c.32.06.64.1.94.22.24.13.5.2.79.18.4-.02.64-.35 1.03-.3l.18.03.03-.01-.01-.03c0-.02.03-.03.05-.02.14.06.2.16.28.25l.04.03a1.29 1.29 0 0 1 .53.26l.36.24v.03a.22.22 0 0 1-.1.04l-.52.03c-.04 0-.04.01 0 .03a4.17 4.17 0 0 1 .1.07v.05c0 .02 0 .03-.03.03-.08.01-.13.06-.13.14 0 .02 0 .03-.02.04-.06.07-.18.13-.24.18a4.11 4.11 0 0 1-2.38 1.01c-.02 0-.03 0-.04-.02-.02-.02-.01-.05 0-.07a2.67 2.67 0 0 0 .64-.25h-.01l-.01-.01c-.21.09-.43.14-.65.16a.19.19 0 0 1-.03-.17 2.34 2.34 0 0 0 1.85-1.35c.01-.02.01-.04 0-.07l.05-.11a.06.06 0 0 1 .06-.02.06.06 0 0 1 .05.05c0 .09 0 .17-.05.23l-.08.15c-.06.08-.04.1.05.06.2-.1.37-.22.34-.46-.01-.18-.13-.3-.32-.3l-.18.03a5.2 5.2 0 0 1-2.13.4c-.23 0-.5-.05-.82-.15.21-.09.29-.24.22-.45 0-.02-.03-.05-.08-.08-.02-.02-.01-.02 0-.03l.24-.04ZM7.3 6.14c.07 0 .14.02.21.06l.02.02a.04.04 0 0 1 0 .05l-.02.01a.7.7 0 0 1-.2.03c-.1 0-.16 0-.21-.02l-.03-.01a.04.04 0 0 1 0-.05l.01-.02a.42.42 0 0 1 .22-.07Z" fill="#fff"/><path d="M5.58 6.24c.03-.02.04-.05.03-.06 0-.02-.04-.01-.07 0-.03.03-.04.05-.03.07l.07-.01Z" fill="#AB381A"/><path d="m12.55 6.86-.06.05a1.15 1.15 0 0 1-.59-.63c-.03-.07 0-.08.05-.03.22.17.42.38.6.61Z" fill="#D8994F"/><path d="M7.03 6.65a1.9 1.9 0 0 1-.25-.06c-.08-.02-.14-.02-.19 0a.21.21 0 0 0-.13.17c-.03.15.04.26.22.31.02 0 .02 0 .03-.02v-.03c0 .02 0 .04.03.04a.03.03 0 0 0 .03 0v-.02l-.05-.16c0-.02 0-.03.02-.03.02-.01.06 0 .1.01.05.22.13.43.24.63h.02v-.03a.1.1 0 0 1 .03.06c.02.08.06.16.12.23a.08.08 0 0 1-.03.12l-.02.01c-.04.02-.07.02-.1-.02-.18-.2-.3-.34-.37-.45a4.5 4.5 0 0 0-.26-.4c-.07-.09-.19-.12-.37-.13.04-.05.12-.1.22-.16.07-.04.08-.09.05-.16v-.04c.1-.18.26-.26.46-.25.02 0 .03 0 .03.03-.02.14.03.26.17.35Z" fill="#fff"/><path d="M5.34 6.47c.06-.03.1-.06.09-.08-.01-.01-.06 0-.12.03-.05.04-.1.07-.08.09 0 .01.06 0 .11-.04Z" fill="#F8EBAE"/><path d="M10.73 6.96v.05h.05a.4.4 0 0 0 .12-.28c.02-.39-.48-.14-.67-.05l-.37.11c-.73.17-1.46.23-2.21.17-.3-.02-.56-.1-.8-.25a.28.28 0 0 0-.12-.04c-.07 0-.1.03-.12.1 0 .07.03.15.1.25v.03c0 .02-.01.03-.03.02-.18-.05-.25-.16-.22-.31a.21.21 0 0 1 .13-.17c.05-.02.11-.02.2 0 .07.03.15.04.24.06.18.1.37.11.56.04.32.1.59.15.82.16a5.2 5.2 0 0 0 2.13-.41.6.6 0 0 1 .18-.02c.2 0 .3.1.32.29.03.24-.14.36-.34.46-.1.04-.11.02-.05-.06l.08-.15Z" fill="#9CA6BA"/><path d="M5.07 6.77c.04-.04.05-.1.1-.13.07-.03.09-.01.04.04l-.27.4c-.01.02-.03.02-.04 0l-.02-.04a.07.07 0 0 1 0-.08.73.73 0 0 1 .19-.2Z" fill="#D8994F"/><path d="m10.1 7.08.02-.07c0-.02 0-.02-.03-.02-.14.01-.28.05-.41.11a.1.1 0 0 0-.05 0c-.02 0-.04 0-.05.02l-.03.06c.02-.06 0-.09-.05-.08-.15 0-.33.03-.55.1l-.02.01v.01c-.02 0-.05 0-.09.02l.01-.04a.05.05 0 0 0-.02-.03H8.8l-.55.05c-.04 0-.06.02-.05.06-.05-.04-.08-.05-.1-.03a1.16 1.16 0 0 0-.52-.05l-.01.01a.03.03 0 0 0 0 .03l.02.03c-.03 0-.05-.02-.06-.05a.04.04 0 0 0-.03-.03c-.02 0-.05 0-.07.03-.18-.1-.26-.11-.25-.03-.06-.03-.09-.09-.1-.16 0-.02 0-.03.02-.03.62.14 1.21.14 1.85.08a6.24 6.24 0 0 0 1.5-.3l.01.01v.04c-.05.02-.06.05-.06.08.01.05 0 .06-.04.03-.05-.03-.08-.05-.11-.05-.02 0-.04.03-.05.07a.25.25 0 0 1-.1.12Z" fill="#B8C6D3"/><path d="M10.63 6.81v.07c-.19.39-.45.7-.8.95l.24-.23a2.56 2.56 0 0 0 .56-.79Z" fill="#AB9E8E"/><path d="M4.93 7.85c.01 0 .02.02.01.03v.01a.02.02 0 0 1-.03 0 3.92 3.92 0 0 1-.45-1.02c0-.01 0-.02.02-.03a.06.06 0 0 1 .06 0c.2.08.26.32.3.51l.1.5Z" fill="#DFB450"/><path d="M7.1 7.46v.03h-.02c-.1-.2-.19-.4-.24-.63l.26.6Z" fill="#AB9E8E"/><path d="m12.69 7.06-1.93 1.89-.24-.21v-.02a3.07 3.07 0 0 0 1.08-.83c.17-.17.43-.34.6-.48l.01-.02a.05.05 0 0 0 0-.06l-.03-.01-.1-.05c-.04-.01-.04-.02-.01-.04.15-.08.28-.17.4-.26.03-.02.04-.04.02-.06l.06-.05.14.2Z" fill="#F6DE8F"/><path d="m7.13 7.52.16.25a.04.04 0 0 1 0 .05l-.22.26a.04.04 0 0 1-.03.02.05.05 0 0 1-.04-.02l-.3-.32-.01-.03v-.08l-.01-.03-.35-.27c-.05-.04-.04-.06.02-.08l.18-.03c.02 0 .02-.01 0-.03l-.43-.33c.18 0 .3.04.37.12l.26.41c.07.1.19.26.37.45.03.04.06.04.1.02l.02-.01a.08.08 0 0 0 .04-.05.08.08 0 0 0-.01-.07.62.62 0 0 1-.12-.23Z" fill="#9CA6BA"/><path d="M5.87 6.88c.1.12.22.2.33.24.04.01.04.03 0 .04a.38.38 0 0 0-.13.09c-.02.01-.02.03 0 .04.06.1.12.16.15.18.13.07.23.16.3.26-.01.12-.1.22-.24.3-.08-.3-.15-.49-.18-.57a.24.24 0 0 0-.18-.13.13.13 0 0 1-.05-.02l-.3-.2V7.1l.01-.03.29-.19Z" fill="#F6DE8F"/><path d="M10.1 7.08c-.15.12-.3.13-.42.02.13-.06.27-.1.41-.11.02 0 .03 0 .03.02l-.02.07Z" fill="#fff"/><path d="M12.1 7c-.14.13-.28.2-.42.26-.06.02-.06.04 0 .06l.25.07c.02 0 .02.01 0 .03a2.11 2.11 0 0 1-.72.4.02.02 0 0 0 0 .02H11.35c.03 0 .04.01.02.04a3.27 3.27 0 0 1-3.3.9l.22-.13a.02.02 0 0 1 .02 0 .7.7 0 0 0 .46-.04V8.6a.02.02 0 0 0 0-.02h-.01l-.02-.01c-.14.03-.25.03-.34-.01-.06-.03-.06-.05.01-.06h.43c-.02.02-.03.05-.01.07l.04.02c.25 0 .46-.04.74-.11.65-.17 1.1-.48 1.64-.9.06-.05.18-.1.24-.18a.07.07 0 0 0 .02-.04c0-.08.05-.13.13-.14.02 0 .03 0 .04-.03v-.05l-.04-.03a3.84 3.84 0 0 0-.08-.04c-.03-.02-.03-.03 0-.03l.54-.03Z" fill="#9CA6BA"/><path d="m12.69 7.06.11.18-.18.2L10.9 9.1l-.15-.14 1.93-1.9Z" fill="#FDFACE"/><path d="M9.55 7.18c-.2.21-.4.23-.62.04v-.01c0-.01 0-.02.02-.02.22-.06.4-.09.55-.1.05 0 .07.03.05.09ZM8.84 7.24a.4.4 0 0 1-.64.04c0-.04.01-.06.05-.06a43.63 43.63 0 0 1 .58-.05l.02.03v.04ZM8.1 7.25c-.17.2-.34.2-.51.02l-.02-.03a.03.03 0 0 1 0-.03V7.2h.02c.2-.02.36 0 .51.05Z" fill="#fff"/><path d="M4.46 7.33a.5.5 0 0 1-.25-.02c0-.13.08-.12.25.02ZM5.76 7.45a1 1 0 0 1-.24-.08.47.47 0 0 0-.18-.05.22.22 0 0 0-.18.1c-.06.1-.12.17-.15.2.04-.27.27-.47.54-.34.08.04.15.1.21.17Z" fill="#FDFACE"/><path d="m12.8 7.24.21.44-.94.91c-.37.12-.69.33-.97.62a.07.07 0 0 1-.08 0c-.07-.04-.1-.08-.11-.12a330.65 330.65 0 0 0 1.9-1.85Z" fill="#C48E24"/><path d="m4.46 7.33.17.34c.05.11.14.29.27.34a.07.07 0 0 0 .06 0A.07.07 0 0 0 5 7.94L5 7.62c.03-.03.09-.1.15-.2.05-.06.1-.1.18-.1.04 0 .1.02.18.05a1 1 0 0 0 .24.08l-.1.07c-.1.06-.23.03-.31 0-.06-.02-.1 0-.1.06l-.04.27c0 .06.02.1.08.12l.24.1h.03c.07-.02.12 0 .15.05l.01.02a.05.05 0 0 0 .07-.02l.01-.03a.11.11 0 0 0 0-.1c-.06-.11-.1-.27 0-.37l.24.15c.1.17.08.36-.04.56a.67.67 0 0 1-.3.27c-.23.05-.43.04-.6-.04-.27-.11-.5-.3-.72-.57a.08.08 0 0 0-.04-.02h-.1c-.06-.03-.08-.07-.08-.1l.3.04.28.25a.05.05 0 0 0 .04.01h.03l.01-.01a.02.02 0 0 0 0-.02l-.41-.45c-.07-.07-.13-.2-.2-.38.1.02.18.03.25.02Z" fill="#F97C07"/><path d="M7.64 8.22c0 .03.04.03.09 0a.24.24 0 0 0 .05-.05c.16-.21.36-.38.6-.5l.01-.04-.02-.01a.17.17 0 0 1 .12-.03h.26c.16-.01.16.02.02.07-.22.1-.4.37-.51.58-.06.11-.16.2-.3.28-.26.14-.5.13-.7-.04a.62.62 0 0 1 .23-.54l.44-.37c.1-.05.2-.07.32-.05.02 0 .02 0 0 .02-.3.17-.55.41-.72.72 0 .02 0 .03.02.02.04 0 .07-.03.1-.06Z" fill="#F88A48"/><path d="M7.18 8.18v.24c0 .03.03.05.08.06.2.17.44.18.7.04a.72.72 0 0 0 .3-.28c.12-.2.3-.48.51-.58.14-.05.14-.08-.02-.08H8.5c.16-.06.32-.08.49-.06.16.03.28.04.36.15.02.02.03.05.01.07-.01.02-.02.02-.04.02a.44.44 0 0 0-.18-.05.95.95 0 0 0-.4.14.91.91 0 0 0-.25.29c-.23.37-.58.73-1.08.55-.23-.08-.3-.25-.22-.51Z" fill="#B94C27"/><path d="m6.04 7.77-.24-.15a.17.17 0 0 1 .1-.07c.02 0 .04 0 .05.02l.09.2Z" fill="#F8EBAE"/><path d="m7.93 7.57-.44.37a.62.62 0 0 0-.23.54c-.05 0-.08-.03-.07-.06l-.01-.24c.19-.3.44-.5.75-.6Z" fill="#FDFACE"/><path d="M7.45 7.69c.03-.01.06-.03.05-.04 0-.02-.03-.02-.06-.02-.03.01-.06.03-.05.04 0 .02.03.02.06.02Z" fill="#AB9E8E"/><path d="m8.37 7.62.02.01c0 .02 0 .03-.02.04-.23.12-.43.29-.6.5a.24.24 0 0 1-.04.05c-.05.03-.08.03-.09 0 .22-.25.42-.48.73-.6Z" fill="#F6DE8F"/><path d="M9.48 7.86c-.02-.03-.02-.06 0-.09a.2.2 0 0 1 .08-.08h.02a.23.23 0 0 1 .05-.03h.11l.03.04-.29.16Z" fill="#fff"/><path d="M5.62 7.75c-.01.05-.01.1 0 .14 0 .03 0 .05-.04.04l-.15-.04c-.04 0-.05-.02-.05-.05v-.1l.01-.02.03-.02h.15a.04.04 0 0 1 .04.02.04.04 0 0 1 0 .03Z" fill="#F6DE8F"/><path d="m13.01 7.68.07.17-.66.65-.35.09.94-.91Z" fill="#FDFACE"/><path d="M6.83 8.13c-.2.14-.39.3-.55.5l-.16-.16a.05.05 0 0 1-.01-.06c.08-.12.14-.25.17-.39.15-.07.23-.17.25-.29.09.16.2.3.3.4Z" fill="#DFB450"/><path d="m4.45 7.9-.29-.04c-.03 0-.04 0-.05-.02 0-.02 0-.03.02-.04.11-.05.22-.02.32.1Z" fill="#FDFACE"/><path d="M8.98 7.97c.1-.13.2-.15.34-.06.02.01.02.03 0 .04l-.33.1h-.02l-.02-.01-.01-.02V8l.02-.01.02-.02Z" fill="#fff"/><path d="m13.08 7.85.05.14c-.2.14-.38.3-.54.5-.04.01-.1.02-.17 0l.66-.64ZM5.7 8.6c0 .02.01.04.03.05a.2.2 0 0 0-.07.04c-.01.01-.02.03 0 .04.25.37.64.75 1.14.74.37-.01.6-.21.7-.59.02 0 .05 0 .09.02.01 0 .02.02.01.03l-.31.73c-.4.03-.67.03-.8 0-.2-.04-.33-.1-.4-.17a8.5 8.5 0 0 0-.63-.63l-.03-.06a.05.05 0 0 0-.04-.03c-.51-.07-.83-.42-1.15-.8h.1l.04.02c.21.27.45.46.72.57.17.08.37.09.6.04Z" fill="#AB381A"/><path d="m13.13 7.99.12.48c0 .02 0 .02-.03.02h-.63c.16-.2.34-.36.54-.5Z" fill="#D8994F"/><path d="M8.83 8.03c0 .03-.01.04-.05.05l-.1-.01c-.01-.02.02-.03.08-.05.04-.01.06 0 .07.01ZM6.83 8.13c.03.05.05.07.06.06.01.06 0 .11-.04.15-.14.15-.28.28-.43.38a.4.4 0 0 1-.14-.08c.16-.2.34-.37.55-.51Z" fill="#FDFACE"/><path d="M7 8.4c-.18.08-.35.2-.5.37a.28.28 0 0 1-.08-.05c.15-.1.3-.23.43-.38.04-.04.05-.09.04-.15.08.07.12.14.12.22Z" fill="#C48E24"/><path d="M8.77 8.23c-.02.06-.01.12.03.17-.1 0-.2 0-.28-.03-.02 0-.02-.01-.01-.03.05-.1.14-.13.26-.11Z" fill="#B8C6D3"/><path d="M7 8.4c.01.06.01.1.05.14.01.02.03.04.03.08 0 .02.02.03.03.05l.04.03c.02.01.02.02 0 .03-.2.1-.42.12-.65.04.15-.16.32-.29.5-.36Z" fill="#F6DE8F"/><path d="M4.39 8.63a.02.02 0 0 1-.02 0v-.01l-.01-.01a.11.11 0 0 1 .01-.08.1.1 0 0 1 .07-.05.1.1 0 0 1 .09 0l.05.08v.02l-.01.01-.18.04Z" fill="#FDFACE"/><path d="M6 8.6c.01.09.06.17.16.24l.28.17c.28.13.6.06.88-.07.06-.03.1-.05.11-.08l.07.02c-.1.38-.33.58-.7.59-.5.01-.9-.37-1.14-.74-.02-.01-.01-.03 0-.04a.2.2 0 0 1 .07-.04c.08 0 .15-.03.21-.07h.04c.02 0 .03 0 .02.01Z" fill="#F97C07"/><path d="M7.43 8.86a.28.28 0 0 1-.11.08c-.28.13-.6.2-.88.07-.09-.04-.18-.1-.28-.17C6.06 8.77 6 8.7 6 8.6c.04.03.11.08.2.17.34.31.71.24 1.11.08.04-.01.08 0 .12.02Z" fill="#FDFACE"/><path d="M4.98 9.1c-.06.27-.06.54.02.81.03.08.1.28.24.6.16.37.34.76.6 1 .22.22.49.45.8.7a1 1 0 0 0 .2.1.3.3 0 0 0-.06.14.01.01 0 0 1 0 .01h-.01a741.62 741.62 0 0 1-.85-.75c-.1-.15-.21-.24-.3-.39-.04-.04-.1-.06-.18-.07a3.93 3.93 0 0 1-.73-2.62c.07.08.16.13.25.18l.01.02v.28Z" fill="#F8EBAE"/><path d="M13.59 8.88c-.3-.08-.7.37-.85.6-.14.23-.24.57-.36.88a.33.33 0 0 0 0 .24c-.02.04-.04.06-.07.08-.02 0-.03-.01-.04-.04l.07-.62c0-.02 0-.04.02-.05l.01-.04c-.01-.07-.04-.07-.07-.02-.1.15-.28.36-.47.33-.02 0-.04-.01-.04-.03-.03-.22.09-.42.24-.6 0 0 0-.02-.02-.02s-.04 0-.05.02a.95.95 0 0 1-.4.2h-.02v-.04c.05-.19.18-.35.37-.47.02-.01.02-.03 0-.04h-.05c-.22.06-.44.14-.65.24a.26.26 0 0 1-.05-.09c0-.03 0-.05.04-.08.08-.05.12-.12.2-.18a2.28 2.28 0 0 1 2.27-.35c.02 0 .03.01.01.03a.2.2 0 0 1-.1.05Z" fill="#fff"/><path d="M4.4 8.92a.03.03 0 0 1-.04-.01V8.9a.31.31 0 0 1-.01-.12c0-.01 0-.03.03-.03l.16-.05.03.01a.2.2 0 0 1 0 .13c0 .02-.01.03-.03.03l-.15.05Z" fill="#FDFACE"/><path d="M10.7 9.12a.29.29 0 0 0-.14 0c-.16-.1-.36-.1-.6 0l-.34.19.01-.3.67-.19h.05c.14.07.26.17.36.3Z" fill="#B94C27"/><path d="m5.87 9.57-.55.56a3.6 3.6 0 0 1-.2-1.25c.1-.01.16.01.21.08.16.23.34.44.54.61Z" fill="#DFB450"/><path d="M13.59 8.88c-.34.23-.56.5-.67.85-.1.3-.15.63-.16 1 0 .1-.02.16-.06.2a4.33 4.33 0 0 1-.34.44c0 .02.01.02.02.02h.03a.4.4 0 0 1 .11-.05c.05-.01.06 0 .02.03-.23.2-.5.36-.8.5.1-.11.21-.21.33-.3.04-.02.05-.05.05-.1v-.05l.16-.23c.15-.29.26-.55.32-.79.02-.1 0-.1-.07-.03a.96.96 0 0 0-.16.23.33.33 0 0 1 0-.24c.13-.31.23-.65.37-.87.16-.24.55-.69.85-.6ZM9.63 9l-.01.3c0 .04-.01.06-.04.08v-.03c0-.01-.01-.02-.03-.01-.24.11-.53.23-.76.4-.22.15-.73.32-.87-.03l-.07-.16a.45.45 0 0 1-.04-.17.43.43 0 0 0-.06-.22.08.08 0 0 0-.06-.04c-.01 0-.02 0-.02.02v.02c-.01.03-.02.03-.02 0v-.04l.12-.22.02-.02h.03c.6.22 1.2.26 1.81.13Z" fill="#9CA6BA"/><path d="M4.39 9.21a.03.03 0 0 1-.03 0v-.02a.31.31 0 0 1-.01-.11c0-.02.01-.03.03-.04L4.54 9c.01 0 .03 0 .03.02v.12c0 .02-.02.03-.03.03l-.15.04Z" fill="#F8EBAE"/><path d="M10.56 9.13a2.54 2.54 0 0 1 .6.69v.04a.83.83 0 0 1-.42.34c-.13.06-.3.11-.47.17a.44.44 0 0 0-.14.1.07.07 0 0 0-.02.04c-.01.07 0 .13.06.18l.01.05v.16c.17.12.32.1.46-.06a.1.1 0 0 1 .05-.03h.06c-.08.25-.25.35-.5.31a.47.47 0 0 1-.26-.12.96.96 0 0 1-.21-.3c0-.1 0-.18.02-.26.03-.12.1-.2.18-.26.15-.1.4-.2.72-.29l-.08-.09a.66.66 0 0 0-.58-.3c-.1 0-.18.03-.25.1h-.02c-.01 0-.02.02 0 .03 0 .01.02.03.05.04-.14.2-.23.44-.25.68l-.01.12c0 .14-.04.25-.01.38.02.11.04.2.07.24a4.6 4.6 0 0 1 .74 2v.15c-.04.05 0 .05.13.01.05.03.12.05.2.06-.03.07-.02.12.03.13l.01.06a.03.03 0 0 1 0 .03h-.01l-.02.01a1.23 1.23 0 0 1-.48-.13.04.04 0 0 1-.02-.03 1.07 1.07 0 0 0-.35-.76 3.04 3.04 0 0 0-1.19-.77c.25-.1.43-.22.53-.37a1 1 0 0 0 .16-.51 40.92 40.92 0 0 1 .07-.85c0-.06.06-.15.05-.2 0-.07.03-.1.05-.17V9.7l.02-.04.02-.03.02-.25c.03-.02.04-.04.04-.07l.34-.18c.24-.1.44-.1.6 0Z" fill="#F97C07"/><path d="M12.97 11.25a11 11 0 0 0-.32.31l-.11.14a5.2 5.2 0 0 1-1.91 1.3l-.01-.2a3.91 3.91 0 0 0 1.1-.58.1.1 0 0 0 0-.03c.18-.08.3-.16.39-.24.15-.15.3-.29.47-.41.16-.13.25-.26.27-.4l.2-.32a5.41 5.41 0 0 0 .5-1.69.42.42 0 0 1 .11-.08c.02-.01.04 0 .04.02 0 .3-.04.61-.13.92-.11.4-.31.83-.6 1.26Z" fill="#F6DE8F"/><path d="M4.98 9.1c.06.74.3 1.4.72 2 .3.43.68.81 1.13 1.13.03.02.03.05.01.08a1 1 0 0 1-.2-.1c-.31-.25-.58-.48-.8-.7a3.04 3.04 0 0 1-.6-1 7.7 7.7 0 0 1-.24-.6 1.58 1.58 0 0 1-.02-.8Z" fill="#FDFACE"/><path d="m9.58 9.38-.02.25c0 .01 0 .02-.02.03l-.01.04v.05c-.03.07-.07.1-.06.18 0 .04-.05.13-.05.19a11.36 11.36 0 0 1-.07.85 1 1 0 0 1-.16.51c-.1.15-.28.27-.53.36l-.1.02-.43-.04c-.61-.23-.76-.8-.68-1.38l.26-1.02c0-.02 0-.03-.02-.02-.04 0-.06.04-.08.08-.12.32-.2.62-.25.9-.18.88-.26 1.79-.25 2.73 0 .02-.01.03-.04.04l-.02-.01a.05.05 0 0 1-.03-.04 1.78 1.78 0 0 1-.04-.39c.02-.6.07-1.2.16-1.78a6.77 6.77 0 0 1 .38-1.46l.13-.35v.03c0 .04 0 .04.03.01v-.02l.01-.02c.03 0 .05.02.06.04.04.07.06.15.06.22 0 .05.02.1.04.17l.07.16c.14.35.65.18.87.02.23-.16.52-.28.76-.4.02 0 .03 0 .03.02v.03Z" fill="#fff"/><path d="M10.7 9.12c.24.2.4.44.51.71-.01.02-.03.01-.05-.01a2.54 2.54 0 0 0-.6-.7h.15Z" fill="#F8EBAE"/><path d="M13.54 9.14a5.41 5.41 0 0 1-.5 1.68l-.2.32a.26.26 0 0 1-.08-.03v-.04c.13-.18.23-.34.28-.48a5 5 0 0 0 .36-1.28c.01-.1.06-.14.14-.17Z" fill="#FDFACE"/><path d="M12.27 10.64c-.05.06-.1.12-.13.18l-.13.2c-.2.2-.44.34-.72.43-.3.09-.56.07-.8-.05l.3-.17c.19-.17.23-.35.1-.53-.04-.05-.1-.07-.2-.05a.4.4 0 0 0-.26.15.04.04 0 0 1-.06 0v-.01l-.02-.04c0-.03 0-.04.02-.05.22-.06.4-.12.56-.2a.82.82 0 0 0 .37-.33.5.5 0 0 0 .06-.34.67.67 0 0 0-.15-.33 4.74 4.74 0 0 1 .7-.24c.02.01.02.03 0 .04a.88.88 0 0 0-.38.49l.01.01.01.01h.02c.14-.03.27-.1.39-.2a.08.08 0 0 1 .05-.02c.02 0 .03.01.02.03-.15.17-.27.37-.24.59 0 .02.02.03.04.03.2.03.37-.18.47-.33.03-.05.06-.05.07.02l-.01.04a.1.1 0 0 0-.02.05l-.07.62Z" fill="#F97C07"/><path d="M4.4 9.47a.03.03 0 0 1-.02 0V9.34c0-.02 0-.03.02-.03l.15-.04c.02 0 .03 0 .03.02v.11c0 .02-.02.03-.04.03l-.13.03Z" fill="#FDFACE"/><path d="M7.45 10.44a.18.18 0 0 0-.09-.06c.05-.28.13-.58.25-.9.02-.04.04-.07.08-.08.02 0 .03 0 .02.02l-.26 1.02Z" fill="#DFB450"/><path d="M13.15 9.58a.39.39 0 0 1 .09-.14c.03-.02.04-.01.03.02-.06.32-.16.63-.3.93-.04.09-.05.08-.03-.02.05-.29.08-.5.21-.79Z" fill="#D8994F"/><path d="m10.62 9.8-.24-.02-.05-.02a.76.76 0 0 0-.54-.17c.07-.06.15-.1.25-.1.25.01.45.11.58.31Z" fill="#B94C27"/><path d="m4.57 9.54-.14.04a.04.04 0 0 0-.03.05l.03.07c0 .03.02.04.05.03l.14-.04c.02 0 .03-.03.02-.05l-.02-.07a.04.04 0 0 0-.05-.03Z" fill="#F8EBAE"/><path d="m5.87 9.57.2.17-.48.47a.75.75 0 0 1-.17.13l-.1-.21.55-.56Z" fill="#FDFACE"/><path d="M9.57 10.35c.02-.24.1-.47.25-.68.07.01.13.04.18.08.02.01.02.03.01.04-.05.14-.17.21-.24.3l-.2.26Z" fill="#AB381A"/><path d="m6.15 9.79-.7.64-.03-.09a.75.75 0 0 0 .17-.13l.48-.47a.2.2 0 0 1 .08.05Z" fill="#B94C27"/><path d="m6.15 9.79.46.12c-.3.32-.62.62-.96.9l-.2-.38.7-.64Z" fill="#F6DE8F"/><path d="m4.62 9.8-.12.04a.05.05 0 0 0-.04.06l.01.04c.01.03.04.04.07.04l.12-.04c.03 0 .04-.03.03-.06v-.04a.05.05 0 0 0-.07-.03Z" fill="#F8EBAE"/><path d="M11.21 9.83c0 .14.01.25-.08.35-.21.23-.6.32-.92.4v-.05l.03-.02c.3-.08.96-.22.92-.65v-.04c.02.02.04.03.05.01Z" fill="#A56761"/><path d="M11.16 9.86c.04.43-.61.57-.92.65a.06.06 0 0 0-.03.02v.05l-.02.02V10.9v-.16l-.02-.05a.21.21 0 0 1-.06-.18c0-.02 0-.03.02-.04.06-.05.1-.09.14-.1.18-.06.34-.11.47-.17a.83.83 0 0 0 .42-.34Z" fill="#AB381A"/><path d="M7.06 10.56c.01-.02 0-.04-.03-.04l-.02.01-.9.88-.3-.38a.11.11 0 0 0 .04-.03c.02.02.04.03.06 0a36.29 36.29 0 0 1 .57-.58h-.05l.4-.39c.05-.04.07-.08.08-.13l.3-.02a.02.02 0 0 1 .01 0 .02.02 0 0 1 0 .02l-.16.66Z" fill="#C48E24"/><path d="M10.7 9.9c-.33.09-.57.19-.72.28a.43.43 0 0 0-.18.26c-.03.08-.01.17-.02.26a.08.08 0 0 0-.06 0c-.04-.42.15-.62.54-.75.16-.05.3-.07.44-.06Z" fill="#F8EBAE"/><path d="M6.91 9.9c0 .05-.03.1-.08.13l-.4.4-.58.57-.04.03-.16-.22c.34-.28.66-.58.96-.9h.3ZM4.7 10.04l-.14.03a.03.03 0 0 0-.03.05l.03.09c0 .02.02.03.04.02l.14-.03c.02 0 .03-.03.02-.04l-.02-.1a.04.04 0 0 0-.05-.02ZM4.79 10.3l-.14.04a.04.04 0 0 0-.03.04l.02.06c0 .02.03.03.05.03l.13-.04c.02 0 .04-.02.03-.04l-.01-.06a.04.04 0 0 0-.05-.03Z" fill="#FDFACE"/><path d="M11.74 11.87a.25.25 0 0 0-.09.07 2.2 2.2 0 0 1-1.24.05l-.17-.56.01-.03a.49.49 0 0 1 .23 0c.25.12.52.13.8.05.3-.09.53-.23.73-.44l.13-.19.13-.18c0 .03.02.04.04.04.03-.02.05-.04.06-.08.05-.1.1-.17.16-.23.07-.08.09-.07.07.03-.06.24-.17.5-.32.8-.05.07-.11.14-.15.22l-.01.05c0 .05-.01.08-.05.1-.12.09-.23.19-.33.3Z" fill="#AB381A"/><path d="M7.45 10.44c-.08.58.07 1.15.68 1.38-.01.04 0 .08.05.11-.38.16-.64.42-.8.78-.06.17-.06.38-.06.57 0 .03-.01.05-.03.07a.14.14 0 0 1-.05.05l-.23.1-.31.05c0-.06.03-.12.1-.15.01-.01.02-.03.01-.04 0-.03-.03-.04-.08-.05v-.01l.37-.03h.04c.02 0 .03-.01 0-.03l-.07-.1c.03 0 .04-.01.04-.03-.01-.94.07-1.85.25-2.73.04.01.07.03.09.06Z" fill="#F97C07"/><path d="M9.56 10.47c0 .38.15.66.46.87l.03.04c.18.46.31.94.4 1.44.02.06.02.17.05.25v.04a.42.42 0 0 1-.14.13c0-.06.01-.11 0-.14a4.6 4.6 0 0 0-.74-2 .84.84 0 0 1-.07-.25c-.03-.13 0-.24 0-.38Z" fill="#B94C27"/><path d="M4.85 10.66c.06-.02.1-.06.1-.1-.01-.03-.07-.04-.14-.02-.06.02-.1.06-.1.1.02.03.08.04.14.02ZM7.06 10.56l-.07.24-.74.76-.14-.15.9-.88h.02c.03 0 .04 0 .03.03Z" fill="#FDFACE"/><path d="M9.78 10.7c.05.12.12.22.21.3.07.06.15.1.25.12.26.04.43-.06.5-.31.08.13.05.25-.1.34a.57.57 0 0 1-.58.02.65.65 0 0 1-.34-.48h.06Z" fill="#B94C27"/><path d="M10.78 11.23c.1-.16.14-.34.11-.53.13.18.09.36-.1.53Z" fill="#AB381A"/><path d="M5.05 10.83a.01.01 0 0 1 0 .01l-.16.07h-.03l-.01-.01-.01-.02-.02-.04v-.05l.01-.01.15-.07a.01.01 0 0 1 .02.01l.05.1Z" fill="#FDFACE"/><path d="M6.99 10.8c.01.1 0 .16-.02.19l-.67.64-.05-.07.74-.76Z" fill="#C48E24"/><path d="m5.07 10.95-.12.05a.04.04 0 0 0-.02.06l.03.06c.02.03.04.04.07.02l.11-.05a.04.04 0 0 0 .03-.06l-.04-.06a.05.05 0 0 0-.06-.02Z" fill="#F8EBAE"/><path d="m6.97 10.99-.07.57c-.16.08-.26.2-.3.33l-.3-.26.67-.64Z" fill="#F6DE8F"/><path d="m5.22 11.17-.14.07a.03.03 0 0 0-.01.04l.04.06c0 .02.02.02.04.01l.13-.06c.02-.01.02-.03.01-.04l-.03-.07a.03.03 0 0 0-.04-.01Z" fill="#FDFACE"/><path d="M6.83 12.32h.01v.2a.03.03 0 0 1-.01.03.03.03 0 0 1-.03 0 5.47 5.47 0 0 1-1.36-1.3c.09 0 .14.03.17.07.1.15.22.24.3.39l.12.13a752.7 752.7 0 0 0 .75.6.3.3 0 0 1 .05-.12Z" fill="#F6DE8F"/><path d="M12.97 11.25c-.09.17-.2.33-.32.46-.51.55-1.11.98-1.8 1.29-.1.03-.16.04-.22 0a5.2 5.2 0 0 0 2.14-1.57l.2-.18Z" fill="#C48E24"/><path d="m5.37 11.39-.14.06a.04.04 0 0 0-.01.05l.01.04c.01.02.04.03.06.02l.13-.07a.04.04 0 0 0 .02-.05l-.02-.04a.04.04 0 0 0-.05-.01Z" fill="#F8EBAE"/><path d="m6.9 11.56-.05.48c0 .02-.01.02-.03.02a.66.66 0 0 1-.21-.17c.03-.14.13-.25.29-.33Z" fill="#DFB450"/><path d="M5.36 11.62c.08-.02.18-.08.24.01l-.01.04-.13.06a.06.06 0 0 1-.05 0 .21.21 0 0 1-.06-.07c-.02-.02-.01-.03.01-.04ZM5.75 11.85l-.11.07a.04.04 0 0 1-.04 0 .18.18 0 0 1-.08-.06v-.03l.12-.08h.04l.07.07a.02.02 0 0 1 0 .02.02.02 0 0 1 0 .01Z" fill="#F6DE8F"/><path d="m8.56 11.86-.02.06c0 .02 0 .03.03.04.24.08.44.17.6.27.36.23.6.56.75 1 .02.05.02.13 0 .23 0 .01 0 .03.02.03.05.03.08.06.1.1a.57.57 0 0 1-.19-.04c-.02-.01-.02-.02-.02-.04 0-.11.02-.18-.02-.29-.14-.43-.4-.76-.79-.99-.3-.18-.58-.2-.87-.03a.87.87 0 0 0-.3.32c-.18.3-.33.63-.2.95a.08.08 0 0 1-.04.1 19.68 19.68 0 0 1-.8.1.2.2 0 0 1-.12-.03c-.02 0-.02-.02-.01-.04a.13.13 0 0 0 .02-.05l.31-.04c.17.06.34.06.52 0 .02 0 .02-.04-.01-.1v-.4c.11-.46.37-.85.84-.98.06-.02.06-.04 0-.07a.6.6 0 0 0-.18-.03c-.04-.03-.06-.07-.05-.1l.43.03Z" fill="#A56761"/><path d="M8.66 11.84a3.04 3.04 0 0 1 1.19.78c.2.18.32.43.35.76 0 .01 0 .03.02.03a1.23 1.23 0 0 0 .5.13v-.01l.01-.01v-.08c.05.05.07.11.06.2 0 .01-.01.02-.03.02l-.72-.08a.28.28 0 0 0-.1-.09.03.03 0 0 1-.02-.03.48.48 0 0 0 0-.24 1.79 1.79 0 0 0-.75-.99c-.16-.1-.36-.19-.6-.27-.02 0-.03-.02-.03-.04l.02-.06.1-.02ZM8.18 11.93a.6.6 0 0 1 .18.03c.06.03.06.05 0 .07-.47.13-.73.52-.83.99a.51.51 0 0 0-.01.19v.21c.03.05.03.08.01.09a.78.78 0 0 1-.52 0l.23-.11a.14.14 0 0 0 .08-.12c0-.19 0-.4.07-.57.15-.36.41-.62.8-.78Z" fill="#AB381A"/><path d="m11.65 11.94.12.01c.05.01.05.02 0 .04-.15.06-.32.1-.5.14-.31.05-.6 0-.86-.14.45.1.87.08 1.24-.05Z" fill="#AB9E8E"/><path d="m5.8 11.97.04-.01h.04a.2.2 0 0 1 .06.03c.02.02.02.03 0 .04a.53.53 0 0 1-.1.04l-.05.01h-.04a.2.2 0 0 1-.06-.03c-.02-.01-.01-.03 0-.04a.5.5 0 0 1 .1-.04Z" fill="#F6DE8F"/><path d="M5.88 12.2c.11-.08.21-.07.3.02l-.01.03c-.12.06-.21.05-.3-.02a.02.02 0 0 1 .01-.04Z" fill="#DFB450"/><path d="M11.72 12.19a.1.1 0 0 1 0 .03l-.02.02c-.33.24-.7.43-1.08.56l-.03-.04c-.02-.02-.01-.03 0-.04.36-.12.7-.29 1-.5.03-.02.07-.03.13-.03Z" fill="#fff"/><path d="M8.84 12.3c-.18.13-.34.28-.49.46l-.38-.1-.01-.01v-.03c.12-.1.2-.25.34-.32a.6.6 0 0 1 .54 0Z" fill="#DFB450"/><path d="M10.5 12.29c-.02 0-.02-.01-.03-.02v-.02l.02-.01h.04c.22.07.43.1.64.07.04 0 .04 0 0 .02a3 3 0 0 1-.58.25.08.08 0 0 1-.06-.04v-.22c0-.02-.01-.03-.03-.03Z" fill="#D8994F"/><path d="m8.84 12.3.14.08c-.11.15-.25.3-.42.42l-.2-.04c.14-.18.3-.33.48-.46Z" fill="#FDFACE"/><path d="M9.4 12.76c-.13-.07-.21-.04-.26.1l-.58-.06c.17-.13.3-.27.42-.42l.42.38Z" fill="#C48E24"/><path d="M6.71 12.62c.02.02.02.04 0 .05-.1.04-.2.02-.31-.06-.02 0-.02-.02 0-.03.09-.07.2-.05.31.04Z" fill="#D8994F"/><path d="m9.4 12.76.05.07-.01.02h-.3c.05-.13.13-.16.26-.09Z" fill="#F6DE8F"/><path d="M6.78 12.84c.05 0 .08-.03.08-.05 0-.03-.04-.04-.09-.04-.04 0-.08.03-.07.05 0 .02.04.04.08.04Z" fill="#B8C6D3"/><path d="M9.55 12.99a.2.2 0 0 1 0 .08l-.04.02-.67-.03a3.91 3.91 0 0 1-.97-.2v-.1a4.81 4.81 0 0 0 1.68.23Z" fill="#FDFACE"/><path d="M7.88 12.77c-.02.03-.02.07 0 .1a.18.18 0 0 0-.04.1c0 .02 0 .04.02.04a4.18 4.18 0 0 0 1.71.2l.03-.02a.06.06 0 0 0 0-.06.21.21 0 0 1-.03-.1c.06.06.1.14.1.21 0 .03-.02.05-.05.05a4.49 4.49 0 0 1-1.84-.25l-.01-.03c0-.07.04-.15.1-.24Z" fill="#A56761"/><path d="m9.55 12.99.02.04c0 .04 0 .07.02.1a.06.06 0 0 1-.02.08l-.03.01a4.18 4.18 0 0 1-1.68-.2.04.04 0 0 1-.02-.04c0-.04 0-.08.03-.12h.05c.33.11.63.18.92.2a15.86 15.86 0 0 0 .7 0 .2.2 0 0 0 .01-.07Z" fill="#F8EBAE"/><path d="m7.1 13.27-.38.03-.3.11c.13-.27.44-.26.68-.14ZM11.1 13.42a.08.08 0 0 1-.08.04c-.05 0-.1 0-.16-.02a.23.23 0 0 0-.16-.13.5.5 0 0 1-.21-.06c.27-.11.48-.06.62.17ZM6.18 13.56c-.03-.14.06-.3.2-.33.03 0 .03 0 .01.02-.09.1-.13.2-.13.3 0 .02-.01.03-.03.03H6.2c-.02 0-.03 0-.03-.02Z" fill="#FDFACE"/><path d="M11.14 13.22c.15.03.26.2.23.35 0 .01-.01.02-.03.02h-.02c-.02 0-.03-.01-.03-.03a.47.47 0 0 0-.17-.32c-.02-.02-.01-.02.02-.02Z" fill="#B8C6D3"/><path d="M11.4 13.22c.07.05.12.12.15.21v.02h.03c.46.01.9.07 1.33.18.08.02.09.05 0 .08-.08.04-.2.07-.32.09-.67.09-1.3.14-1.87.14a.22.22 0 0 1-.2-.1c.29.01.67.01.93-.12.02-.01.02-.02.02-.04 0-.04 0-.06.02-.07a.1.1 0 0 0 .04-.06l-.01-.07-.12-.26Z" fill="#AB9E8E"/><path d="m6.72 13.3.01.01c-.1.11-.2.2-.2.31 0 .04-.01.05-.04.04l-.08-.02c-.02 0-.04-.02-.04-.05 0-.1.02-.16.05-.18l.3-.11Z" fill="#D8994F"/><path d="M8.44 13.47c-.02.19-.32.22-.46.21-.1 0-.15 0-.17.02-.08.05-.12.06-.14.02.13-.07.18-.17.14-.29v-.01a.03.03 0 0 1 .01-.03h.02l.6.08Z" fill="#fff"/><path d="m10.86 13.44.16.02c.04 0 .07 0 .09-.04.03.05.05.12.04.2l-.03.03a.4.4 0 0 1-.15 0c-.02 0-.03-.01-.03-.03a.57.57 0 0 0-.08-.18Z" fill="#B94C27"/><path d="M9.67 13.57v.05c0 .02 0 .03-.03.03-.19 0-.33-.06-.4-.18l.4-.03c.02 0 .03 0 .03.02v.11Z" fill="#fff"/><path d="M9.23 13.47c.08.12.22.18.42.18.01 0 .02-.01.02-.03v-.05c.04.02.05.03.06.05 0 .03 0 .05.03.07.01.02.04.03.06.03l.52.08c-.02.04.02.08.1.11.04.02.04.04-.01.05l-.16.01c-.65.04-1.4.04-2.26.01-.18 0-.32-.03-.42-.07a5.8 5.8 0 0 1-1.45-.06c-.05-.02-.08-.06-.09-.12.26.08.5.12.74.1.25-.01.55-.05.88-.1.02.03.06.02.14-.03.02-.01.08-.02.17-.02.14 0 .44-.02.46-.21h.8ZM5.82 13.52c.07 0 .1.03.08.1l-.02.05c-.02.07-.07.1-.14.1a1.2 1.2 0 0 1-.44-.05l-.02-.02a.04.04 0 0 1 .01-.06c.08-.06.26-.1.53-.12Z" fill="#AB9E8E"/></svg>