<!-- by TradingView --><svg width="18" height="18" viewBox="0 0 18 18" xmlns="http://www.w3.org/2000/svg"><path fill="#621EFD" d="M0 0h18v18H0z"/><path d="M3 5h1.43v4.15L6.36 7H8L5.7 9.55H4.44 5.7L8 12H6.37L4.43 9.93V12H3V5Z" fill="#FEFDFF"/><circle cx="15" cy="11" r="1" fill="#FEFDFF"/><path fill-rule="evenodd" d="M13 12V9.5c0-.83-.48-2.5-2.4-2.5C8.46 7 8 8.9 8 9.5c0 .72.4 2.5 2.26 2.5 1.08 0 1.38-.8 1.4-.92V12H13Zm-2.5-1.33a1.17 1.17 0 1 0 0-2.34 1.17 1.17 0 0 0 0 2.34Z" fill="#FEFDFF"/></svg>