<!-- by TradingView --><svg width="18" height="18" viewBox="0 0 18 18" xmlns="http://www.w3.org/2000/svg"><path fill="#181B1E" d="M0 0h18v18H0z"/><circle cx="9" cy="9" r="5" fill="#F8F7C2"/><circle cx="9" cy="9" r="4.71" fill="#A79241"/><circle cx="9" cy="9" r="4.38" fill="url(#a)"/><circle cx="9" cy="9" r="4" fill="#FCFFCE"/><circle cx="9" cy="9" r="3.84" fill="url(#b)"/><path d="M12.27 8.37h1.2c.08.79.03 1.41-.22 2.2h-.98v-2.2Z" fill="#C1A55D"/><path fill-rule="evenodd" d="M8.09 11.23V6.42a3.31 3.31 0 0 1 1.8 0v2.42l-.4.18.4.19v2.02l-.9.7-.9-.7Zm.92-2.04.29.16v1.67l-.3.17-.28-.17V9.35L9 9.2Zm.29-.52V6.93h-.58v2.03l.58-.29Z" fill="url(#c)"/><path fill-rule="evenodd" d="m7.96 6.34.09-.03a3.44 3.44 0 0 1 1.89 0l.09.03v2.6l-.22.1.22.1v2.14L9 12.13l-1.04-.85V6.34Zm1.53 2.7.4-.18V6.44a3.31 3.31 0 0 0-1.8 0v4.78l.9.74.9-.74V9.23l-.4-.18Zm-.48.32-.16.1v1.5l.16.1.16-.1v-1.5L9 9.35Zm.29.02L9 9.2l-.28.17v1.66l.29.17.29-.17V9.38Zm-.13-.77V7.08h-.32v1.69l.32-.16Zm.13.08-.58.29V6.95h.58v1.74Z"/><path d="M7.94 7.98V6.4l-.66.21v1.22l-.46.22a5.12 5.12 0 0 1-.23-1.17l-.57.32c.1 1 .51 1.91.7 2.24l.38-.64-.16-.36.16-.09.18.12v1.87l.66.77V8.3l-.35-.16.35-.16Z" fill="url(#d)"/><path d="M8.08 6.3V8.1l-.17.07.17.07v3.14l-.12-.09-.81-.87V9l-.43.71-.11-.2c-.2-.34-.62-1.2-.73-2.23v-.08l.82-.46.02.2c.02.22.08.61.18.94l.25-.12V6.6l.93-.3Zm-.8 1.55-.46.22a4.83 4.83 0 0 1-.24-1.1l-.56.3a5.97 5.97 0 0 0 .7 2.19l.38-.64-.16-.36.16-.09.18.12v1.87l.66.68V8.32l-.35-.15.35-.17V6.5l-.66.2v1.16Zm-.16.7.03.01v.04l-.03-.06Z"/><path d="M10.08 11.02V6.44c.84.19 1.61.58 1.9.76l-.14.74-.61.05.1-.49-.6-.25v1.98l.32-.72.53.27a5.81 5.81 0 0 1-1.5 2.24Z" fill="url(#e)"/><path d="m9.95 6.32.16.04c.86.2 1.65.6 1.94.77l.07.05-.16.9-.9.08.12-.56-.32-.13v1.16l.12-.28.77.4-.04.1a5.93 5.93 0 0 1-1.54 2.3l-.22.19V6.32Zm.77 2.93V7.27l.62.25-.11.5.61-.06.14-.72a7.18 7.18 0 0 0-1.9-.76v4.56l.14-.11c.33-.31.91-1.02 1.36-2.12l-.53-.28-.33.72Z"/><defs><linearGradient id="a" x1="9" y1="4.63" x2="9" y2="13.38" gradientUnits="userSpaceOnUse"><stop stop-color="#E5C244"/><stop offset="1" stop-color="#D39B2A"/></linearGradient><linearGradient id="b" x1="12.84" y1="9" x2="5.16" y2="9" gradientUnits="userSpaceOnUse"><stop stop-color="#C1A55D"/><stop offset=".54" stop-color="#E0C254"/><stop offset="1" stop-color="#C1A55D"/></linearGradient><linearGradient id="c" x1="8.99" y1="6.3" x2="8.99" y2="11.94" gradientUnits="userSpaceOnUse"><stop offset=".05" stop-color="#FDE760"/><stop offset=".72" stop-color="#FDD65B"/><stop offset=".89" stop-color="#F3B44D"/><stop offset="1" stop-color="#D5983B"/></linearGradient><linearGradient id="d" x1="6.98" y1="6.4" x2="6.98" y2="11.11" gradientUnits="userSpaceOnUse"><stop stop-color="#FDFDB3"/><stop offset=".05" stop-color="#FDE760"/><stop offset=".72" stop-color="#FDD65B"/><stop offset=".89" stop-color="#F3B44D"/></linearGradient><linearGradient id="e" x1="11.03" y1="6.44" x2="11.03" y2="11.02" gradientUnits="userSpaceOnUse"><stop stop-color="#FDFDB3"/><stop offset=".05" stop-color="#FDE760"/><stop offset=".72" stop-color="#FDD65B"/><stop offset=".89" stop-color="#F3B44D"/><stop offset="1" stop-color="#D5983B"/></linearGradient></defs></svg>