<!-- by TradingView --><svg width="18" height="18" viewBox="0 0 18 18" xmlns="http://www.w3.org/2000/svg"><path fill="#5CDAFF" d="M0 0h18v18H0z"/><path d="M12.6 14H5.07l-.02-.17a2.71 2.71 0 0 1-.05-.48c0-.37.03-.65.06-.82.06-.3.2-.66.4-1.06a1 1 0 0 1 .2-.25c.12-.12.22-.25.3-.4l.12-.33c.04-.12.09-.23.16-.33l.01-.03c.06-.1.12-.18.12-.32 0-.24.02-.55.04-.93.02-.4.1-.7.21-1.05.01-.04 0-.06-.03-.08a1.43 1.43 0 0 1-.7-.78 6.95 6.95 0 0 1-.16-.35h-.1L5.6 6.6l-.01-.02v-.02c-.03-.3-.03-.57-.02-.84.04-.78.49-1.2 1.1-1.43a2.5 2.5 0 0 0 .2-.1.04.04 0 0 0 0-.03l-.04-.09a.09.09 0 0 1 0-.07l.03-.03h.03c.48-.01 1.01 0 1.31.46l.03.02h.03c.13-.08.28-.13.46-.14.38-.04.67-.04.94.27a.05.05 0 0 0 .02.02.04.04 0 0 0 .02 0 .04.04 0 0 0 .02 0 .05.05 0 0 0 0-.02l.25-.27a.1.1 0 0 0 .02-.06c.01-.07.02-.13.01-.17 0-.63.49-.9.92-1.09h.04c.04.03.05.07.04.12v.02a.05.05 0 0 0 0 .02l.03.01a.03.03 0 0 0 .02 0c.53-.23 1-.12 1.42.34.23.24.4.55.52.9 0 .03-.01.06-.06.11a.08.08 0 0 0-.02.04 1.77 1.77 0 0 1-.47 1.48.08.08 0 0 0-.03.05l.01.43c.03.28.01.4-.12.62-.02.02-.01.03 0 .05.07.09.14.19.2.3l.14.19c.16.23.05.4-.06.58l-.04.06-.02.03-.01.04.01.04c.1.18.03.31-.04.44l-.04.08-.01.06v.02c.02.08.03.14.01.23a2.72 2.72 0 0 1-1.05 1.73.06.06 0 0 0 0 .05.06.06 0 0 0 .02.02c.22.19.46.41.64.71l.21.33c.13.18.2.42.23.7l.1 1.2Z" fill="#0A0B0A"/><path d="M12.5 14H5.22a2.87 2.87 0 0 1-.05-.56c0-.42-.04-.76.08-1.11.07-.22.18-.48.32-.77l.43-.48c.07-.1.12-.17.13-.22.04-.21.1-.4.19-.6l.17-.34h.03l.02.02.02.02.58.65c.02.03.03.03.02-.02a.44.44 0 0 0-.15-.25c-.17-.14-.3-.34-.46-.52a.12.12 0 0 1-.03-.04v-.04a7.02 7.02 0 0 1 .23-1.92l.03-.01.44.04c.03 0 .05-.02.05-.07 0-.04 0-.07-.04-.07-.37-.06-.69-.06-.94-.37-.18-.21-.31-.48-.38-.8-.02-.06-.06-.11-.12-.1h-.03l-.02-.02V6.4c-.03-.64-.03-1.2.44-1.63.22-.2.55-.31.87-.43.02-.01.03-.03.03-.05.01-.03 0-.06-.01-.1v-.04h.02c.23 0 .47.02.69.1.25.1.41.39.53.67.01.04.04.05.08.03l.02-.03a.1.1 0 0 0 0-.09l-.08-.2a.12.12 0 0 1 .02-.12l.03-.02c.18-.06.4-.1.68-.09.36 0 .59.18.7.55 0 .04 0 .06-.04.06-.54-.04-1 0-1.34.52v.03h.02l.07-.01.03-.02c.12-.19.27-.3.45-.37.22-.07.62-.1.88-.03.29.06.6.52.73.8v.02l-.02.01a.36.36 0 0 0-.34-.14c-.39.03-.8.08-1.21.14-.3.04-.41.2-.6.48-.08.1-.08.2-.02.3 0 0 .02.02.04.01.18-.03.33.06.56.14.11.05.16.15.27.2.36.13.72.2 1.06.17.03 0 .04.02.03.05l-.01.02c-.02.03-.04.05-.08.05h-.7c-.3 0-.46-.22-.65-.36h-.03a.03.03 0 0 0-.02.01v.05c.2.18.32.29.39.32.06.04.2.06.4.07h.62c.02 0 .03 0 .04.03.02.17-.02.28-.12.33a12.05 12.05 0 0 1-.57.32l.05.02c.03.01.05.01.07 0l.55-.3c.02-.01.03 0 .03.02a1.66 1.66 0 0 0 .17.58v.01h-.01l-.01.01a9.72 9.72 0 0 1-1.86-.27.4.4 0 0 0-.19 0 .07.07 0 0 0-.04.03c-.17.24.05.43.25.55.15.08.5.25 1.07.5.16.07.35.06.58.08a8.5 8.5 0 0 0 1.39-.1c.23-.04.42.03.64-.2h.04v.22a2.7 2.7 0 0 1-.9 1.5 5.3 5.3 0 0 1-1.46.86c-.1.04-.1.06 0 .08.03 0 .08 0 .13-.03a5.71 5.71 0 0 0 1.16-.64l.02.02.46.4c.04.02.1.1.18.23l.16.25c.16.21.26.43.3.64.05.29.09.75.12 1.39Z" fill="#8F8F8F"/><path d="M10.62 14H7.31c.07-.4.04-.77-.08-1.1-.02-.03 0-.04.02-.02l.07.04a.08.08 0 0 0 .1 0 .1.1 0 0 0 .02-.03l.02-.05v-.21c0-.02 0-.04.02-.06.18-.22.4-.39.65-.5h.04s.02 0 .03.02l.18.2h.03V11.87l.02-.04.02-.02h.03l.02.02.36.63c0 .02.02.03.04.04a.09.09 0 0 0 .1 0 .1.1 0 0 0 .03-.04c.04-.09.1-.16.16-.22a.08.08 0 0 1 .03-.02.08.08 0 0 1 .07.01.1.1 0 0 1 .03.04l.09.21v.02l.03.01h.03c.07-.06.1-.15.1-.26 0-.03 0-.03.02 0 .1.12.19.2.28.2.15.03.24-.03.25-.16 0-.07.02-.07.05-.01.07.17.1.3.3.3a.9.9 0 0 0 .18-.04c.02 0 .04 0 .06.02a.1.1 0 0 1 .04.05c.01.06 0 .12-.05.18a7.02 7.02 0 0 0-.3.4v.02l.08.22.02.02h.23l.01.01.01.01a.04.04 0 0 1 0 .04c-.07.14-.12.3-.13.49Z" fill="silver"/><path d="M10.85 3.32v.03l.02.01.02.01h.02c.39-.15.71-.27 1.11-.05.35.19.62.52.81.99v.04l-.05.1v.05c.08.52-.03.99-.36 1.39l-.03.01h-.03l-.19-.13a.04.04 0 0 1 0-.06c.2-.19.39-.47.4-.78.04-.37-.14-.68-.38-.95-.21-.25-.46-.35-.74-.31a.94.94 0 0 0-.7.48l-.02.04a.05.05 0 0 1-.04.02h-.5l-.03-.01-.02-.04c-.02-.54.29-.78.68-.95a.02.02 0 0 1 .02 0h.01V3.34Z" fill="#8F8F8F"/><path d="M11.9 3.89a.95.95 0 0 0-.32.2c-.15.16-.25.37-.3.64a1.5 1.5 0 0 0-.42-.44l-.01-.02a.05.05 0 0 1 0-.03c.23-.4.66-.56 1.04-.35Z" fill="#BA8E8E"/><path d="M11.27 4.73c.06-.27.16-.48.3-.64a.95.95 0 0 1 .32-.2c.22.14.38.36.5.65.1.27.09.53-.06.77-.07.13-.16.24-.27.33h-.04a3.38 3.38 0 0 0-.4-.4c-.09-.09-.2-.25-.35-.5Z" fill="#DCB9B5"/><path d="M9.95 4.46c.07-.1.18-.15.3-.17a.9.9 0 0 1 .62.1c.22.14.38.43.52.67.03.05.02.07-.03.05-.3-.1-.6-.12-.89-.03-.08.02-.19.09-.29.12h-.05l-.23-.16a.08.08 0 0 1-.02-.03l-.12-.3v-.04c.03-.05.12-.13.19-.2Z" fill="#8F8F8F"/><path d="M11.23 5.92h.05c.25-.13.52-.17.8-.12.03 0 .05.02.08.04.06.03.06.05-.01.04a2.4 2.4 0 0 0-.57 0c-.23.04-.41.17-.55.4v.03l.02.02a.02.02 0 0 0 .02 0 .73.73 0 0 1 .64-.37c.08 0 .41-.04.51.04.07.06.1.15.09.27 0 .03-.02.03-.03.01-.07-.1-.11-.2-.23-.22-.28-.05-.6-.02-.79.23a3.54 3.54 0 0 0-.36.56l-.02-.01a.23.23 0 0 1-.04-.17l.03-.12c0-.2-.07-.36-.2-.47a.1.1 0 0 1-.02-.04L10.64 6c.01-.2-.28-.56-.39-.68a.03.03 0 0 1 0-.03v-.02a1.33 1.33 0 0 1 1.71.42v.02h-.02c-.21 0-.43.03-.64.11a.08.08 0 0 0-.05.04.17.17 0 0 0-.02.07Z" fill="#8F8F8F"/><path d="M10.77 6.57a4.3 4.3 0 0 0-.73-.63c-.02-.01-.02-.02 0-.03.15-.03.32-.05.45.1.16.19.32.23.3.55v.01h-.02Z" fill="#9E9E9E"/><path d="M10.5 6.49a.48.48 0 0 0-.14-.1l-.56-.3c-.23-.12-.72.04-.95.15a.68.68 0 0 0-.34.36l-.03.03a.09.09 0 0 1-.04.01c-.02 0-.03 0-.04-.02v-.05c.14-.32.33-.52.65-.54.14 0 .32-.03.56-.07.07 0 .2.01.38.07.1.03.2.1.32.2.25.23.44.34.48.61 0 .02 0 .04-.02.05h-.04c-.02 0-.03-.01-.04-.03-.06-.16-.1-.28-.2-.37Z" fill="#8F8F8F"/><path d="M11.76 6.3h-.26c-.14 0-.15-.03-.01-.1.15-.07.54-.15.68.04a8.01 8.01 0 0 1 .12.22h-.01l-.3-.12a.58.58 0 0 0-.22-.05ZM8.63 6.67h-.04v-.05c.13-.33.45-.39.75-.45.29-.06.55.01.78.22v.02c-.17.03-.35.05-.55.06-.3.02-.6.08-.94.2Z" fill="#9E9E9E"/><path d="M11.9 6.9c.07-.15.06-.31-.04-.49-.01-.03 0-.03.02-.02l.4.17c.01 0 .02.02.01.05a.57.57 0 0 1-.35.33h-.02v-.01l-.01-.02V6.9ZM10.02 7.12c.06-.17.09-.41-.02-.57-.01-.02 0-.03.01-.03.18-.03.36-.12.48.08.06.1.1.2.13.3v.04c-.17.19-.36.26-.57.22h-.02v-.01a.04.04 0 0 1 0-.03ZM11.35 6.52h.05l.02.03v.04c-.01.04-.03.05-.06.04l-.02-.02-.01-.03v-.04l.02-.02ZM11.72 6.78c.05 0 .09-.04.09-.1 0-.06-.04-.1-.09-.1-.05 0-.09.04-.09.1 0 .06.04.1.09.1ZM9.14 6.81v.02c0 .02 0 .03-.03.02l-.3-.11c-.04-.02-.04-.03 0-.05l.39-.1c.02 0 .03.01.02.04l-.07.12v.06ZM11.04 6.8l.08-.16c.04-.06.06-.05.05.03-.03.15-.07.2-.13.16V6.8ZM9.4 6.76c.03 0 .06-.03.06-.06s-.03-.06-.06-.06-.05.03-.05.06.02.06.05.06ZM9.85 6.93c.05-.04.07-.12.05-.17-.03-.06-.1-.08-.16-.04-.05.04-.08.12-.05.17.03.06.1.08.16.04Z" fill="#F6F8F6"/><path d="M11.7 7.3v-.02l-.01-.01c-.08 0-.13-.06-.14-.17 0-.02 0-.03.02-.03.27 0 .56-.04.72-.3l.01-.02h.02v.02l.01.01c-.05.27-.19.4-.42.4-.02 0-.03.01-.03.04v.02l.02.02h.1c.12 0 .13.02.01.09a.3.3 0 0 1-.15.03h-.01a.03.03 0 0 0 0 .02v.03l.01.02c.15.02.26-.04.33-.16 0-.02.02-.03.04-.01.2.14.25.34.17.6-.16.5-.42.55-.84.58-.02 0-.03-.01 0-.03.28-.29.18-.66.09-1.03v-.05l.05-.05Z" fill="#8F8F8F"/><path d="M11.4 6.77c.03 0 .04.02.05.06 0 .02 0 .03-.03.04l-.04-.01a.06.06 0 0 1-.01-.06l.01-.02.03-.01ZM9.46 6.97c.02 0 .04-.02.04-.05 0-.03-.02-.06-.04-.06-.03 0-.05.03-.05.06s.02.05.05.05ZM11.37 7.35c-.11-.05-.2-.02-.33.02-.16.06-.27-.18-.13-.29.2-.15.43.1.54.29.01.02 0 .02-.01.02l-.07-.04Z" fill="#F6F8F6"/><path d="M8.66 8.43h-.03v.07c.09.06.17.11.27.14.42.13.69.23 1.04.2.15-.02.27-.02.37 0 .23.02.39.05.58.04.4-.01.78-.04 1.1-.1.2-.03.28-.11.4-.28V8.5a.03.03 0 0 1 .04 0l.01.02c.02.06.02.13 0 .2a.79.79 0 0 1-.29.36c-.14.1-.36.1-.52.12l-.21.03c-.47.09-.93.1-1.39.05a1.78 1.78 0 0 1-.51-.14 26.9 26.9 0 0 1-.92-.44.47.47 0 0 1-.21-.21.14.14 0 0 1 0-.12c0-.02.01-.04.03-.05a.1.1 0 0 1 .05-.02h.09c.7.17 1.33.26 1.87.29.08 0 .15.01.2.04.26.09.48-.04.73-.05.27 0 .74-.04.94-.3.1-.13.17-.29.2-.47.02-.08.04-.08.08-.01.05.1.03.2-.03.29l-.2.33c-.2.3-.42.3-.77.34l-.64.05c-.1.01-.34 0-.71-.06-.13-.02-.37.03-.56 0-.26-.02-.51-.13-.75-.17-.1-.02-.17-.08-.26-.14Z" fill="#363534"/><path d="M8 5.47c-.34.38-.6.83-.7 1.36-.04.14-.04.34-.07.52 0 .07-.04.1-.1.07-.22-.08-.44-.2-.66-.36-.35-.25-.5-.63-.46-1.1.04-.41.2-.73.5-.95.53-.39 1.04-.07 1.48.3a.1.1 0 0 1 .02.04.12.12 0 0 1-.01.12ZM8.31 7.92 8.3 7.9v-.07a.14.14 0 0 1 .07-.04l.12-.04.04-.01a.1.1 0 0 1 .03 0l.03.01.01.03v.03l-.29.1ZM8.2 8.38c0 .01-.02.02-.04 0h-.01l-.01-.01a.04.04 0 0 1 0-.03v-.01c.12-.25.32-.32.56-.32h.01l.01.03v.02c0 .02 0 .03-.02.03-.2.02-.38.05-.5.29Z" fill="#0A0B0A"/><path d="M7.35 6.22c-.05-.2-.17-.4-.36-.58a.7.7 0 0 0-.65-.23.9.9 0 0 1 .4-.35c.43-.19.76.04 1.09.31l.01.02a.07.07 0 0 1 0 .08c-.2.23-.36.48-.49.75Z" fill="#BA8E8E"/><path d="M7.35 6.22a2.99 2.99 0 0 0-.2 1l-.02.02-.02.01H7.1c-.21-.1-.63-.3-.8-.59a.97.97 0 0 1-.14-.47c-.01-.29.05-.55.19-.78a.7.7 0 0 1 .65.23c.19.19.3.38.36.58Z" fill="#DCB9B5"/></svg>