<!-- by TradingView --><svg width="18" height="18" viewBox="0 0 18 18" xmlns="http://www.w3.org/2000/svg"><path fill="#F0F3FA" d="M0 0h18v18H0z"/><path d="M10 3H8v3h2V3Zm-5.03.75-1 1.01 3.39 3.46c.36.37.36.96 0 1.33l-3.61 3.69 1 1.01 3.58-3.66a.95.95 0 0 1 1.36 0l3.57 3.64.99-1.01-3.6-3.67a.95.95 0 0 1 0-1.33l3.37-3.44-1-1.01-3.33 3.4a.95.95 0 0 1-1.36 0L4.97 3.75ZM8 12h2v3H8v-3ZM3 8h3v2H3V8Zm12 0h-3v2h3V8Z" fill="url(#a)"/><defs><linearGradient id="a" x1="9" y1="3" x2="9" y2="15" gradientUnits="userSpaceOnUse"><stop stop-color="#8407ED"/><stop offset=".5" stop-color="#DF4B54"/><stop offset="1" stop-color="#FF6618"/></linearGradient></defs></svg>