<!-- by TradingView --><svg width="18" height="18" viewBox="0 0 18 18" xmlns="http://www.w3.org/2000/svg"><path fill="#102447" d="M0 0h18v18H0z"/><path d="M9 4v1.93L6.3 7.39a.1.1 0 0 0-.05 0l2.02-3.35L8.3 4 8.33 4H9Z" fill="#FFA80A"/><path d="m11.69 7.35-.04.05a.2.2 0 0 0-.06-.06A5539.61 5539.61 0 0 0 9 5.93V4h.68l.03.03 1.98 3.32Z" fill="#FFE50B"/><path d="m9 5.92.02.02a.57.57 0 0 0-.02.12v2.81a9.48 9.48 0 0 0-.83.43 170.3 170.3 0 0 1-1.94 1.03V7.55a.3.3 0 0 1 .05-.16L9 5.92Z" fill="#D7001F"/><path d="M11.69 7.4c.04.08.07.16.07.22a234.3 234.3 0 0 0 .02 2.75L9 8.87V6.06c0-.03 0-.07.02-.11l.14.05 2.47 1.34a.2.2 0 0 1 .06.06Z" fill="#EF8108"/><path d="m13.67 11.42-1.9-1.04-.03-.01-.02-.25v-2.5a.5.5 0 0 0-.07-.22l.04-.05 2.3 3.88v.03l-.32.16Z" fill="#FFA80A"/><path d="M6.25 7.38a.1.1 0 0 1 .04 0c-.04.06-.06.1-.06.15v2.67l.01.13-1.93 1.1-.3-.17a.04.04 0 0 1 0-.02.04.04 0 0 1 0-.03l2.24-3.83Z" fill="#FF3417"/><path d="m9 8.86 2.74 1.48.03.04c-.04.02-.04.04-.07.07-.09 0-.13.01-.18.04l-1.49.81c-.17.1-.46.27-.93.5-.01.02-.12.01-.17 0l-2.65-1.39-.05-.07L8.15 9.3c.22-.12.47-.25.74-.37.03-.01.1-.04.11-.07Z" fill="#95011B"/><path d="m6.22 10.33.02.01.05.07c-.06.08-.07.22-.07.4v1.7l-1.52-.86-.2-.1a.68.68 0 0 1-.18-.13l1.9-1.09ZM11.77 10.38l1.9 1.04a.88.88 0 0 1-.22.15l-.23.11-1.17.64c-.09.05-.2.13-.32.18-.02-.19-.03-.37-.03-.56v-1.23c0-.09 0-.18-.04-.26a.35.35 0 0 1 .1-.07Z" fill="#6D0044"/><path d="m6.28 10.4 2.7 1.4.02.05c-.1.03-.2.1-.27.14-.46.24-.92.5-1.39.73-.12.06-.23.13-.34.22l-.78-.43v-1.7c0-.18 0-.32.06-.4Z" fill="#41004E"/><path d="M11.7 10.45c.04.08.08.17.08.26v1.23c0 .19-.02.35 0 .54l-.76.43-2.03-1.06-.02-.04.13-.01a55.6 55.6 0 0 0 2.4-1.3.53.53 0 0 1 .2-.05Z" fill="#520034"/><path d="m9 11.85 2.02 1.06-.22.13-1.65.91c-.1.06-.15.07-.26 0l-1.86-1.01c.1-.09.21-.16.33-.22.46-.23.92-.49 1.38-.73.06-.04.16-.1.26-.14Z" fill="#6D0075"/></svg>