<!-- by TradingView --><svg width="18" height="18" viewBox="0 0 18 18" xmlns="http://www.w3.org/2000/svg"><path fill="#006" d="M0 0h18v18H0z"/><path d="M4.57 5h7.19C13 5 14 6.1 14 7.45c0 .64-.29 1.2-.73 1.55.44.34.73.91.73 1.55C14 11.9 13 13 11.76 13H10v-1h2.03c.5 0 .97-.71.97-1.29 0-.57-.58-1.14-.97-1.14H7.95l.55-1.14H12c.39 0 1-.46 1-1.14C13 6.6 12.5 6 12 6H4.02l.55-1ZM10.3 4h.7l-.3 1H10l.3-1ZM6.3 13H7l-.3 1H6l.3-1ZM11.3 4h.7l-.3 1H11l.3-1ZM7.3 13H8l-.3 1H7l.3-1Z" fill="#fff"/><path d="M8 7H6.74l-2.7 5.58c-.09.2.04.42.24.42H9v-1H6.11c-.14 0-.25-.12-.27-.27 0-.05 0-.1.03-.15L8 7Z" fill="#fff"/></svg>