<!-- by TradingView --><svg width="18" height="18" viewBox="0 0 18 18" xmlns="http://www.w3.org/2000/svg"><path fill="#F0F3FA" d="M0 0h18v18H0z"/><path d="m4 6 2 1v3l-2 1V6Z" fill="url(#aqnlzy2we)"/><path d="m14 7-2 1v3l2 1V7Z" fill="url(#bqnlzy2we)"/><path d="M6 7 4 6l5-3 5 3-2 1-3-1.79L6 7Z" fill="#004F9F"/><path d="m12 11 2 1-5 3-5-3 2-1 3 1.85L12 11Z" fill="#009945"/><path d="M11 7H7l2 1.5L11 7Z" fill="#0174BC"/><path d="M9 11V8.5L11 7l-2 4Z" fill="#024531"/><defs><linearGradient id="aqnlzy2we" x1="5" y1="6" x2="5" y2="12" gradientUnits="userSpaceOnUse"><stop stop-color="#1E5EA8"/><stop offset="1" stop-color="#163F71"/></linearGradient><linearGradient id="bqnlzy2we" x1="13" y1="6" x2="13" y2="12" gradientUnits="userSpaceOnUse"><stop stop-color="#03783C"/><stop offset="1" stop-color="#015429"/></linearGradient></defs></svg>