<!-- by TradingView --><svg width="18" height="18" viewBox="0 0 18 18" xmlns="http://www.w3.org/2000/svg"><path fill="url(#a)" d="M0 0h18v18H0z"/><path fill-rule="evenodd" d="M9.72 4.07a.1.1 0 0 0-.1-.07c-.04 0-.09.04-.09.09v.4c0 .29-.26.58-.56.56C8.55 5.03 8.05 5 7.74 5 7.16 5 4 5.21 4 7.23c0 .6.46 1.2.91 1.82.46.62.91 1.23.91 1.82a2 2 0 0 1-.16.7l-.19.08c.74.1 2.32.67 2.81 2.28a.1.1 0 0 0 .1.07c.04 0 .09-.04.09-.09v-.4c0-.29.26-.58.56-.56.42.02.92.05 1.23.05.58 0 3.74-.21 3.74-2.23 0-.6-.46-1.2-.91-1.82-.46-.62-.91-1.23-.91-1.82 0-.26.1-.55.16-.71l.19-.07c-.74-.1-2.32-.67-2.81-2.28Zm2.4 2.37-.96-.02h-.05c-.28 0-.85 0-1.32.28-.37.24-.54 1.02-.58 1.42 0 .02-.02.05-.05.05a.05.05 0 0 1-.06-.05c-.07-.48-.22-1.27-.25-1.4-.03-.15-.39-.25-1.17-.25-1.08 0-2.08.17-2.08 1.2 0 .52.15 1.03.3 1.53.14.47.28.94.28 1.39 0 .61-.16.88-.28.96h1.04c.3 0 .83.02 1.27-.25.37-.24.54-1.02.58-1.42 0-.02.02-.05.05-.05.03 0 .05.02.06.05.07.48.22 1.39.25 1.5.03.16.39.27 1.17.27 1.08 0 2.08-.3 2.08-1.32 0-.52-.15-1.03-.3-1.53-.14-.47-.28-.93-.28-1.39 0-.63.17-.9.3-.97Z" fill="#fff"/><defs><linearGradient id="a" x1="9" y1="0" x2="9" y2="18" gradientUnits="userSpaceOnUse"><stop stop-color="#6907BE"/><stop offset="1" stop-color="#180185"/></linearGradient></defs></svg>