<!-- by TradingView --><svg width="18" height="18" viewBox="0 0 18 18" xmlns="http://www.w3.org/2000/svg"><path fill="#FEBDD5" d="M0 0h18v18H0z"/><path d="M6.33 5.6c0 .07.06.22.09.3.44 0 1.07-1.41 1.05-1.47-.02-.06-.32 0-.41.06a6.7 6.7 0 0 0-.73 1.11Z" fill="#52434A"/><path d="m8.87 4.07-.58.08a.59.59 0 0 0-.26.08.7.7 0 0 0-.2.2c-.19.31-.39.58-.59.8a.24.24 0 0 0-.05.14l-.18.1a.79.79 0 0 1 .2-.35c.16-.18.3-.39.44-.63l.19-.32c.08-.06.18-.1.3-.14.16.06.3.02.5-.03.06 0 .14.01.23.07Z" fill="#FDF1F2"/><path d="M8.14 4.03a.84.84 0 0 0-.3.14.33.33 0 0 0-.22.17c-.1.17-.2.36-.35.49l-.03-.04a.03.03 0 0 1 0-.04c.05-.07.11-.12.1-.22.03-.01.04-.03.03-.05v-.04c0-.02.02-.03.03-.03.02 0 .03-.01.04-.03v-.02l-.01-.01-.02-.01h-.02l-.25.05a.78.78 0 0 0-.53.36c-.1.13-.1.27-.17.42-.01.02-.02.03-.04.03h-.02c-.02.01-.03 0-.02-.03l.05-.22.02-.02.01-.03a.02.02 0 0 0 0-.02.02.02 0 0 0-.02 0l-.38.1-.03.01-.02.03-.08.3a.52.52 0 0 1 .01-.34l.04-.04.85-.54c.16-.1.36-.14.53-.16.1-.02.2-.04.27-.07.18-.07.36-.16.53-.14Z" fill="#C6AABB"/><path d="M9.55 4.2c.08.07.2.1.33.1l.1.34c-.53-.23-1.67-.67-2.03.08v.05l.03.04.2.12.03.03V5a.84.84 0 0 1-.25.56.06.06 0 0 1-.05.02.06.06 0 0 1-.04-.03l-.13-.23-.02-.02H7.7l-.51.07c0-.06.03-.1.05-.13.2-.23.4-.5.59-.8a.7.7 0 0 1 .2-.21.59.59 0 0 1 .26-.08l.58-.08c.09.02.2.01.3-.01.04-.01.1 0 .16.03.08.03.15.07.22.12Z" fill="#EFD3C6"/><path d="m7.84 4.17-.2.32c-.13.24-.27.45-.43.63a.79.79 0 0 0-.2.35c-.23.26-.4.5-.49.72-.1.25-.16.57-.18.98a1 1 0 0 0 .04.3l.03.05a.54.54 0 0 1-.39.23c0-.17.01-.29.04-.37.16-.41.27-.85.33-1.3.05-.11.08-.24.15-.34.12-.17.26-.35.44-.54.08-.08.16-.2.25-.34l.04-.03c.15-.13.24-.32.35-.5.05-.09.13-.14.22-.16Z" fill="#EFD3C6"/><path d="M9.55 4.2h.24c.1 0 .17.02.24.05.23.1.45.07.69.16l.28.12c.05.05.11.1.19.11l.01.01v.04l-.02.01-.45-.15c-.14-.09-.24-.13-.31-.13-.19.01-.37-.02-.54-.11a.7.7 0 0 1-.33-.1Z" fill="#FDF1F2"/><path d="m9.99 4.64.35.67c.1.21.3.32.4.54a1.8 1.8 0 0 1 .1.32v.01h-.04l-.2-.08a.38.38 0 0 0-.31-.24c-.03-.04-.09-.05-.17-.02h-.05c-.11-.01-.19-.03-.3.02l-.43.23c-.06.04-.15.04-.28 0-.34-.22-.65-.2-1.02-.1a.31.31 0 0 1-.2-.01c-.17-.07-.26-.18-.28-.34a.08.08 0 0 0-.03-.05c-.02-.02-.07-.03-.13-.03a.5.5 0 0 0-.33.14l-.22.26a.5.5 0 0 0-.16.13l-.09.52c0 .08-.06.22-.15.42a.98.98 0 0 0-.07.43 1 1 0 0 1-.04-.29c.02-.4.08-.73.18-.98.1-.22.26-.46.5-.72l.17-.1.5-.07h.03l.02.02.13.23a.06.06 0 0 0 .04.03.06.06 0 0 0 .05-.02.84.84 0 0 0 .26-.56l-.01-.04a.08.08 0 0 0-.03-.03l-.2-.12a.07.07 0 0 1-.03-.04v-.05c.36-.75 1.5-.3 2.04-.08Z" fill="#E8C6B5"/><path d="M9.88 4.3c.17.1.35.13.54.12.07 0 .17.04.3.13l-.27.17c-.02 0-.02.02-.02.04.06.11.13.2.24.27l.06.04.01.03h-.03c-.03.02-.04.04-.02.07.13.2.24.42.37.63.08.14.2.23.27.37.04.1.06.2.06.32l-.28 1.2h-.01a.03.03 0 0 1-.03.02l-.02-.01-.25-.29-.18-.14a.06.06 0 0 1-.02-.04V7.2l.09-.14c.03-.07.02-.08-.05-.05l-.12.06c-.09.04-.1.02-.05-.06l.07-.12c.06-.03.1-.08.13-.14l.04-.03h.08a.03.03 0 0 0 .03-.04c.02-.1.01-.2 0-.27a.04.04 0 0 0-.03-.04c-.11-.03-.15-.16-.2-.26l.21.09a.03.03 0 0 0 .03 0l.01-.02v-.02a1.8 1.8 0 0 0-.1-.3c-.1-.22-.3-.33-.4-.54a9.71 9.71 0 0 0-.35-.67l-.1-.33Z" fill="#D6C6B9"/><path d="m7.37 4.48-.01-.05c0-.02-.01-.03-.03-.03-.28.04-.5.1-.65.32-.06.1-.12.21-.18.35l-.22.59-.17.23-.02.02a.04.04 0 0 1-.04-.01l-.01-.02-.13-.56.08-.3c0-.01 0-.02.02-.03l.03-.02.38-.1a.02.02 0 0 1 .02.01.02.02 0 0 1 0 .02l-.01.03-.02.02-.05.22c-.01.03 0 .04.02.03h.02c.02 0 .03-.01.04-.03.06-.15.08-.3.17-.42.13-.2.3-.33.53-.36a3.89 3.89 0 0 0 .29-.04v.03c0 .02 0 .03-.03.03-.01 0-.02.01-.02.03l-.01.04Z" fill="#736F71"/><path d="M7.37 4.48c.01.02 0 .04-.04.05-.12.04-.1.16-.2.2-.18.07-.32.12-.41.3v.05l.05.06a.08.08 0 0 1-.02.11.58.58 0 0 1-.22.12.2.2 0 0 0-.13.13l-.01.09c-.01.05-.05.07-.1.07l.21-.59c.06-.14.12-.26.18-.35.14-.22.37-.28.65-.32.02 0 .03 0 .03.03v.05Z" fill="#33262E"/><path d="M11.35 4.73c.05.07.09.13.1.18.04.1.02.12-.07.06a.17.17 0 0 0-.1-.02.97.97 0 0 0-.4-.17.44.44 0 0 1-.15-.08.05.05 0 0 0-.04 0 .3.3 0 0 0-.13.08v.02l-.01.02c.02.09.06.16.12.21a.62.62 0 0 1-.24-.27c0-.02 0-.03.02-.04l.28-.17.44.15h.03a.03.03 0 0 0 0-.05h-.01a.4.4 0 0 1-.2-.12c.13.03.25.1.36.2Z" fill="#C9BAB2"/><path d="m10.88 4.78-.2.04c-.01 0-.02.02 0 .04l.06.05.1.08.01.05c0 .05 0 .1-.02.16v.06c.02.06.07.09.16.1a.04.04 0 0 1 .03.02c.01.03 0 .05-.03.08a.62.62 0 0 1-.28-.35l.03-.01v-.03a.19.19 0 0 0-.07-.04.42.42 0 0 1-.12-.2.05.05 0 0 1 .01-.05.3.3 0 0 1 .13-.09l.04.01c.04.04.1.06.15.08ZM12.44 5.58l-.03.12-.01.01-.02.01a.03.03 0 0 1-.02 0c-.07-.08-.13-.16-.2-.2-.11-.07-.26-.18-.43-.33a.28.28 0 0 0-.13-.06c-.02 0-.03 0-.02.03l.01.07-.01.03c-.02 0-.04 0-.06-.02l-.24-.3c.04 0 .08.01.1.03.09.06.11.04.08-.06a.68.68 0 0 0-.11-.18c.25.2.55.42.9.65.07.05.13.12.19.2Z" fill="#736F71"/><path d="M10.88 4.78c.15.03.28.08.4.17l.24.29a2.38 2.38 0 0 0 .23.62c0 .05-.01.07-.04.07l-.03-.03c0-.1-.06-.15-.16-.15a.2.2 0 0 0-.02-.22 3.93 3.93 0 0 1-.1-.14.34.34 0 0 0-.13-.13l-.15-.07a.53.53 0 0 0-.13-.11c-.1-.06-.09-.08.02-.06.04 0 .1.03.18.07h.03v-.02a.78.78 0 0 0-.48-.16.17.17 0 0 1-.07-.05c0-.02 0-.03.02-.04l.19-.04Z" fill="#33262E"/><path d="M7.23 4.86c-.09.15-.17.26-.25.34-.18.2-.32.37-.44.54-.07.1-.1.23-.15.35a.62.62 0 0 1 0-.23c.02-.05.01-.09 0-.1-.06-.06-.05-.08.03-.07.03 0 .06-.02.08-.07a.6.6 0 0 1 .15-.21c.04-.04.12-.04.13-.13l.03-.03c.07-.03.1-.12.16-.18l.2-.19.06-.02Z" fill="#C9BAB2"/><path d="M11.12 5.2c-.04.05-.01.13.07.23l.03.02a.07.07 0 0 0 .08-.01l.02-.03c.02-.05 0-.1-.05-.15.05.03.1.07.13.13l.1.14a.2.2 0 0 1 .02.22.4.4 0 0 1-.26-.11L11 5.46c.02-.03.03-.05.02-.08l-.01-.02h-.02c-.09-.01-.14-.04-.16-.1V5.2a.45.45 0 0 0 .02-.16c0-.02 0-.04-.02-.05l-.1-.08c.18 0 .34.05.49.16v.02h-.03a.53.53 0 0 0-.18-.07c-.1-.02-.12 0-.02.06l.13.11Z" fill="#52434A"/><path d="M10.7 5.1c.06.16.16.28.3.36l.26.18c-.02.07 0 .11.06.14l.02.02.12.2.01.04a6.57 6.57 0 0 0 .47 1.39c-.1 0-.2 0-.29-.05h-.05l-.21.13a.04.04 0 0 1-.06-.01v-.03c0-.2.03-.4.09-.62a.86.86 0 0 0-.03-.36.91.91 0 0 0-.06-.32c-.06-.14-.2-.23-.27-.37-.13-.2-.24-.43-.37-.63-.02-.03-.01-.05.02-.06Z" fill="#BCA7A6"/><path d="M12.44 5.58c.03.01.05.04.05.1 0 .22.03.4-.12.52-.14.1-.3.1-.45-.02a1.38 1.38 0 0 1-.21-.25c.03 0 .04-.02.04-.07l-.02-.06c-.1-.18-.17-.36-.21-.56.02.02.04.03.06.02.01 0 .02-.01.01-.03l-.01-.07c0-.02 0-.03.02-.03.05.01.09.03.13.06.17.15.32.26.43.33.07.04.13.12.2.2a.03.03 0 0 0 .02 0h.02V5.7l.04-.12Z" fill="#52434A"/><path d="m11.12 5.2.15.06c.05.06.07.1.05.15l-.02.03a.08.08 0 0 1-.08.01.08.08 0 0 1-.03-.02c-.08-.1-.1-.18-.07-.24Z" fill="#926E6E"/><path d="M9.06 6.1a3.7 3.7 0 0 0-1.42 0c-.1 0-.14-.03-.14-.06.03-.17-.03-.28-.17-.34a.63.63 0 0 0-.26 0 .5.5 0 0 1 .33-.14c.06 0 .1 0 .13.03.02.01.03.03.03.05.02.16.11.27.27.34.06.02.12.02.2 0 .38-.1.7-.1 1.03.12Z" fill="#D0B0A3"/><path d="M11.52 5.75c.1 0 .15.05.16.15a.46.46 0 0 1-.17.15c-.02.01-.02.02-.02.04l.04.17a.44.44 0 0 1-.06-.22V6l-.13-.2-.02-.02c-.06-.03-.08-.08-.06-.14a.4.4 0 0 0 .26.11Z" fill="#926E6E"/><path d="M7.5 6.04c-.02.2-.14.31-.38.32-.04 0-.07 0-.1-.03s-.03-.07 0-.11h.19c.02 0 .04 0 .06-.03.01-.01 0-.03-.01-.04a.3.3 0 0 0-.12-.02c-.02 0-.03-.01-.03-.03A.25.25 0 0 1 7.1 6c0-.06.06-.07.15-.03l.01.05c0 .02.02.03.03.03.04 0 .07-.01.1-.03l.02-.03a.08.08 0 0 0 0-.08.07.07 0 0 0-.04-.03l-.07-.02c-.12-.03-.22 0-.29.09a.22.22 0 0 0-.07.12v.33c0 .02 0 .04-.03.04l-.05-.06c0-.13-.05-.26 0-.42l.2-.26a.63.63 0 0 1 .27 0c.14.06.2.17.17.34Z" fill="#1A121C"/><path d="m10.29 5.86.1.09.09.1a67.21 67.21 0 0 1 .12.32.12.12 0 0 1-.06-.03h-.01l-.1-.18v-.04c0-.02-.01-.03-.03-.04-.2-.11-.33-.2-.53-.1-.1-.05-.17-.02-.22.08-.17.19-.32.16-.58.14-.1-.01-.2-.04-.27-.08l-.2-.04c-.18-.06-.3-.03-.52.04a.67.67 0 0 1-.44-.01 3.7 3.7 0 0 1 1.42-.01c.13.03.22.03.28 0l.44-.24c.1-.05.18-.03.3-.02h.04c.08-.03.14-.02.17.02Z" fill="#B69595"/><path d="m7.3 5.86.07.02.03.03a.08.08 0 0 1-.01.11.19.19 0 0 1-.1.03c-.01 0-.03-.01-.03-.03l-.01-.05c-.01-.08 0-.11.05-.11Z" fill="#DDBDC7"/><path d="M10.29 5.86c.15.03.25.1.3.24.05.1.09.23.2.26.02 0 .03.02.03.04.01.08.02.17 0 .27a.03.03 0 0 1-.03.03l-.08.01a.05.05 0 0 0-.04.03.33.33 0 0 1-.13.14h-.03v-.02h-.03a.36.36 0 0 0-.1.02.13.13 0 0 1-.04.02l-.25.02a.66.66 0 0 1-.17-.05c-.08-.04-.14-.03-.17.03v.05c.02.02.06.03.1.02a.1.1 0 0 1 .1.02c.1.09.15.13.23.17.27.13.42.22.46.26.17.15.23.3.2.45l-.3.2c.07-.26.02-.38-.15-.37-.12.01-.2-.01-.25-.07a.04.04 0 0 1 0-.05l.07-.12v-.04l-.03-.01-.03.01a5.76 5.76 0 0 1-.08.04v-.02c-.02-.02-.01-.03 0-.04l.02-.02a.02.02 0 0 0 .01-.02v-.01l-.04-.02h-.02a.1.1 0 0 1-.1-.02c-.15-.12-.3-.3-.41-.4a8.12 8.12 0 0 1-.46-.5 1.3 1.3 0 0 0-.43-.25.65.65 0 0 0-.42.03l-.41.2a.7.7 0 0 0-.25.2l-.42.36a.56.56 0 0 0-.26.34c0 .02-.01.03-.03.04h-.02a.02.02 0 0 1-.02 0V7.3c.03-.1.1-.26.2-.45.11-.2.25-.35.41-.45.07-.04.07-.06-.01-.06a.42.42 0 0 0-.25.12c-.09.02-.19.09-.25-.03.03 0 .04-.02.04-.04a1.26 1.26 0 0 1 0-.33c0 .08.02.13.08.15-.04.04-.04.08 0 .11.02.02.05.03.09.03.24 0 .36-.11.38-.32 0 .03.04.05.14.07.16.05.31.06.44.01.22-.07.34-.1.53-.04l.19.04c.08.04.17.07.27.08.26.02.4.05.58-.14-.02.06-.05.13-.1.17a.7.7 0 0 0-.1.12.04.04 0 0 0 0 .05l.08.11c.08.08.17.14.28.18.16.1.32.14.46.12.2 0 .34-.08.43-.25a.1.1 0 0 0-.06-.14.16.16 0 0 1-.1-.08l.06.03c.02 0 .03 0 .02-.02l-.14-.3a.35.35 0 0 0-.09-.1 2.67 2.67 0 0 0-.1-.09Z" fill="#926E6E"/><path d="m10.53 6.34.02.09v.05l-.06.13c-.03.09-.1.15-.22.2a.66.66 0 0 1-.46-.12l-.08-.15a.3.3 0 0 1-.04-.16c0-.16.07-.3.18-.4.2-.1.33-.01.53.1.02 0 .02.02.02.04a3.97 3.97 0 0 0 .01.04l.1.18Z" fill="#1A121C"/><path d="M7.01 5.95c.04 0 .07.01.09.04v.11c.01.02.02.03.04.03a.3.3 0 0 1 .12.02c.02.01.02.03 0 .04-.01.03-.03.03-.05.03a.53.53 0 0 0-.18 0c-.06-.02-.09-.07-.09-.15.02-.05.04-.1.07-.12Z" fill="#DDBDC7"/><path d="M9.87 5.97a.59.59 0 0 0-.18.4c0 .06 0 .11.04.17l.08.15a.72.72 0 0 1-.28-.18.77.77 0 0 1-.08-.11.04.04 0 0 1 0-.05.7.7 0 0 1 .1-.12c.05-.04.07-.1.1-.17.05-.1.12-.13.22-.09Z" fill="#52434A"/><path d="M6.85 5.96c-.04.16 0 .29 0 .42a.32.32 0 0 1-.15-.07l-.01-.22a.5.5 0 0 1 .16-.13Z" fill="#696868"/><path d="m6.69 6.09.01.22c.02.15.08.26.2.35h.05a.64.64 0 0 0 .2-.2.42.42 0 0 1 .26-.1c.08 0 .08.01.01.05-.16.1-.3.25-.4.45a3.55 3.55 0 0 0-.21.48.02.02 0 0 0 .02 0l.02-.01c.02-.01.03-.02.03-.04a.56.56 0 0 1 .26-.34c0 .06-.02.12-.05.18 0 .02-.02.03-.03.03-.07.02-.1.06-.1.13v.05a.34.34 0 0 1-.03.05.18.18 0 0 0-.04.12c0 .04.01.08.04.1 0 .01.03.01.07 0 .02 0 .03-.01.04-.03a.4.4 0 0 1 .13-.13c.02-.01.03 0 .02.02a.42.42 0 0 1-.22.24c-.02 0-.02.02-.01.04l.1.14c.01.02.03.02.04.02.03 0 .05-.02.07-.04.02-.02.03-.02.02.01 0 .08-.05.12-.1.13a.85.85 0 0 1-.34-.52c0-.02-.02-.03-.04-.03a.2.2 0 0 0-.06.03.02.02 0 0 0-.01.02v.02c.11.07.1.18.18.27l.02.05.02.18c0 .02.01.03.03.03h.02c.02 0 .04 0 .03.03v.16l-.53-.73-.03-.06c0-.17.02-.32.07-.43.09-.2.14-.34.15-.42l.09-.52Z" fill="#D0B0A3"/><path d="M7.33 6.13c.05-.02.08-.02.09.01a.04.04 0 0 1 0 .03l-.02.02H7.4c-.03 0-.05 0-.06-.02-.03-.01-.03-.03 0-.04Z" fill="#DDBDC7"/><path d="M9.07 6.4c.01.1.06.19.13.27v.02h-.02l-.15-.06h-.05a.53.53 0 0 1-.33.07c-.01-.13 0-.21.04-.26.02-.02.04-.03.07-.01.02 0 .02.02.02.04l-.03.1a.06.06 0 0 0 .02.04.05.05 0 0 0 .04.02c.08-.01.14-.03.17-.06.01-.01.02-.03 0-.04-.14-.27-.3-.32-.6-.32a.68.68 0 0 0-.42.27.05.05 0 0 1-.04.02c-.07 0-.13 0-.2.03l-.16.06a.7.7 0 0 1 .25-.2l.41-.2c.1-.05.3-.07.42-.03.15.05.3.13.43.24Z" fill="#1A121C"/><path d="M10.02 6.24h.01v.03c0 .02 0 .03-.02.04h-.08a.05.05 0 0 1-.03-.04.12.12 0 0 0-.03-.05c-.02-.02-.02-.03 0-.05l.06-.03c.02-.02.04-.01.06.01a.2.2 0 0 1 .03.08c0 .01 0 .01 0 0Z" fill="#FDF1F2"/><path d="M8.65 6.7c-.04.02-.06.06-.08.13 0 .02 0 .03.03.01a.3.3 0 0 1 .13-.04c.02 0 .03.01.03.03l.03.2c0 .01-.01.02-.03.02l-.12-.01a.03.03 0 0 0-.03 0 .03.03 0 0 0 0 .03c0 .11.04.2.11.26a.05.05 0 0 0 .04.01.05.05 0 0 0 .03-.02c.07-.12.18-.22.32-.32a.05.05 0 0 1 .06 0c.03.04.07.04.1 0 .07-.05.08-.1.02-.16a.02.02 0 0 1 0-.02.02.02 0 0 1 0-.01l.02-.01a.01.01 0 0 1 .01 0l.37.4-.02.02-.04.02c-.02 0-.03.01-.02.03l.08.15c.04.06.02.07-.04.05a.78.78 0 0 1-.25-.17.05.05 0 0 0-.03-.01.05.05 0 0 0-.04.01l-.06.08c-.03.03-.02.05 0 .06.05.04.1.1.13.17.01.02.02.03.04.03.28.12.46.29.5.61 0 .02 0 .03-.02.04l-.07.04h-.31l-.2-.07A.94.94 0 0 0 9.19 8a.05.05 0 0 1-.01-.05l.07-.24c.02-.1.01-.1-.04-.02l-.09.2a.1.1 0 0 1-.03.04.1.1 0 0 1-.04.02l-.2.03-.15-.12c-.02-.02-.02-.03.01-.04l.18-.02c.04 0 .07-.01.1-.03a.2.2 0 0 0 .06-.08l.03-.08c.03-.06 0-.1-.06-.09-.08 0-.18.03-.31.07-.1.03-.2 0-.29-.07a.05.05 0 0 1-.01-.05c.01-.13 0-.46.05-.67.04-.16.07-.22.07-.3 0-.02-.02-.03-.04-.03h-.03l-.07-.25c.28 0 .45.05.6.32l-.01.04c-.03.03-.09.05-.17.06a.05.05 0 0 1-.04-.02.05.05 0 0 1-.02-.05l.03-.09c0-.02 0-.03-.02-.04-.03-.02-.05-.01-.07.01-.04.05-.05.13-.04.26Z" fill="#736F71"/><path d="m8.39 6.21.07.25-.09.36c0 .02 0 .02-.02.02h-.02c-.01 0-.02 0-.01.02.03.08.03.17 0 .25a.94.94 0 0 1-.26.34c-.09.07-.22.09-.3.12-.05.01-.05.03-.01.05l.17.07h.01a.04.04 0 0 1 0 .07c-.15.1-.27.25-.44.34h-.04l.24-.27-.03-.11-.09-.23v-.04l.12-.19v-.03l-.03-.4-.01-.01-.01-.01a.03.03 0 0 0-.03 0l-.38.22h-.01l-.01-.01V7a1.89 1.89 0 0 1 .52-.39l.01-.03-.01-.05a.54.54 0 0 1 .19-.03.05.05 0 0 0 .04-.02c.1-.14.25-.23.43-.27Z" fill="#7F7A7E"/><path d="m6.86 6.38.05.06c.06.12.16.05.25.03a.64.64 0 0 1-.21.2l-.04-.01a.46.46 0 0 1-.2-.35c.04.04.1.06.15.07Z" fill="#9A888B"/><path d="M10.54 6.34c.03.04.06.07.1.08a.1.1 0 0 1 .07.05.1.1 0 0 1 0 .09.43.43 0 0 1-.44.25c.11-.05.19-.11.22-.2l.06-.13v-.05l-.02-.1h.01Z" fill="#52434A"/><path d="M10.07 6.44c.05 0 .08-.02.08-.05 0-.02-.03-.04-.08-.05-.04 0-.07.03-.07.05 0 .03.03.05.07.05Z" fill="#DDBDC7"/><path d="M8.23 6.47c-.02-.06 0-.1.06-.1a.06.06 0 0 1 .04.01.06.06 0 0 1 .02.05c0 .07-.04.15-.13.25l.06.11c0 .02 0 .03-.02.02a.2.2 0 0 1-.1-.16c0-.02 0-.03-.02-.04l-.08-.05C8 6.52 8 6.5 8.08 6.51h.13c.02-.01.03-.02.02-.04Z" fill="#1A121C"/><path d="M9.95 6.45v.03c0 .01-.01.02-.03.02-.06-.01-.1-.04-.09-.07.01-.04.05-.05.11-.04.02 0 .02.02.02.04v.02Z" fill="#DDBDC7"/><path d="M10.54 8.07a.96.96 0 0 0-.22.28l-.22.14-.1.05.33-.33a.06.06 0 0 0 .02-.04.05.05 0 0 0-.02-.04h-.03l-.02.01a.78.78 0 0 1-.43.2l.07-.05.02-.04c-.04-.32-.22-.49-.5-.6a.07.07 0 0 1-.04-.04.45.45 0 0 0-.13-.17c-.02-.01-.03-.04 0-.06l.06-.08a.05.05 0 0 1 .04-.01.05.05 0 0 1 .03 0c.08.08.16.14.25.18.06.02.08 0 .04-.05l-.08-.15.01-.03.05-.02.02-.02a5.47 5.47 0 0 0-.38-.4l-.02.01a.02.02 0 0 0 0 .01.02.02 0 0 0 0 .02c.06.05.05.11-.01.17-.04.03-.08.03-.11 0l-.03-.02-.03.01a1.08 1.08 0 0 0-.33.33.05.05 0 0 1-.06 0 .35.35 0 0 1-.11-.27.03.03 0 0 1 .01-.02h.02l.12.01c.02 0 .03 0 .03-.03l-.03-.19c0-.02 0-.03-.03-.03a.3.3 0 0 0-.13.04c-.02.02-.03.01-.03-.01.02-.07.04-.11.08-.13.1.02.2 0 .33-.06h.05l.15.05h.02v-.02a.51.51 0 0 1-.13-.27c.15.18.3.35.46.5.1.11.26.29.4.41a.1.1 0 0 0 .1.03h.06a.02.02 0 0 1 .01.02v.02l-.03.02c-.01.01-.02.02 0 .04v.02h.02a9.35 9.35 0 0 0 .1-.05h.01c.02.02.02.03.01.05l-.07.12v.05c.04.06.13.08.25.07.17-.01.22.11.15.37Z" fill="#5E5C5F"/><path d="M8.85 7.97c.15.07.29.16.4.27-.02.05-.02.1 0 .12.05.17.05.29.24.37a14.48 14.48 0 0 0-.33.16.13.13 0 0 1-.05-.06.68.68 0 0 1-.23-.2.03.03 0 0 0-.04 0l-.1.02a.02.02 0 0 1-.02-.02c0-.11-.04-.2-.13-.25.06-.03.08-.06.06-.1v-.04h.04a.15.15 0 0 0 0 .11c0 .02.02.03.04.02.09 0 .12-.05.1-.13.04-.02.09-.02.13 0 .02 0 .02 0 0 .02l-.04.03c-.02 0-.02.02 0 .03.06.03.1.03.15 0 .05-.03.05-.09-.01-.17-.01-.04-.04-.06-.09-.08-.11-.05-.2-.1-.27-.16-.04-.03-.1-.04-.19-.02l.08-.06a.03.03 0 0 0 0-.02.03.03 0 0 0 0-.02.5.5 0 0 0-.3-.16c-.16-.03-.3.06-.4.26.06-.1.09-.18.09-.26 0-.02 0-.04.03-.04l.25-.06a.04.04 0 0 0 .03-.04l.03-.38a.36.36 0 0 0 0-.25l.01-.02h.02c.01 0 .02 0 .02-.02l.09-.36h.03c.02 0 .04 0 .04.03 0 .08-.03.14-.07.3-.05.2-.04.54-.05.67l.01.05c.1.08.19.1.29.07l.3-.07c.08 0 .1.03.07.1l-.03.07a.2.2 0 0 1-.07.08.19.19 0 0 1-.09.03l-.18.02c-.03 0-.03.02 0 .04l.14.12Z" fill="#52434A"/><path d="M11.94 7.43c.08.09.12.2.14.3l-.2.1c-.02 0-.03.02-.03.03 0 .24.03.55-.26.63a.04.04 0 0 1-.03-.01.04.04 0 0 1-.02-.04l.02-.29c.02-.1.02-.17.02-.22-.01-.12-.04-.12-.07-.01a.98.98 0 0 1-.38.48c-.2.1-.4.2-.6.28-.28.12-.34.53-.64.62-.14.04-.39.16-.75.36a.48.48 0 0 1-.38.02c.43-.08.7-.28 1.09-.57.26-.2.48-.4.67-.61a1 1 0 0 1 .4-.28l.03-.02.01-.04c.04-.28-.01-.53-.16-.75l.25.29h.02a.03.03 0 0 0 .03 0v-.02l.3-1.19c.03.17.04.29.02.36a2.45 2.45 0 0 0-.1.65l.02.01a.04.04 0 0 0 .05 0l.21-.12c.02-.01.03-.02.05 0 .1.03.2.05.3.04Z" fill="#C9BAB2"/><path d="m7.73 6.53.01.05-.01.03A1.89 1.89 0 0 0 7.2 7v.02l.02.01.38-.22a.03.03 0 0 1 .03 0h.01v.02l.05.4v.03l-.13.19v.04l.1.23c-.04-.03-.07-.05-.07-.08 0-.08-.03-.08-.08-.02l-.15.2a.03.03 0 0 0 0 .03h.02c.1.03.2.02.3-.02l-.24.27H7.2l-.12-.09c.06 0 .1-.05.11-.13 0-.03 0-.03-.02-.01-.02.02-.04.04-.07.04-.01 0-.03 0-.04-.02l-.1-.14c-.01-.02-.01-.03.01-.04.1-.04.17-.12.22-.24.01-.03 0-.03-.02-.02a.4.4 0 0 0-.13.13c0 .02-.02.03-.04.03-.04.01-.07.01-.07 0a.15.15 0 0 1-.04-.1c0-.04.01-.08.04-.12l.02-.05V7.3c0-.07.04-.11.1-.13.02 0 .04-.01.04-.03a.45.45 0 0 0 .05-.18l.42-.36.17-.06Z" fill="#9A888B"/><path d="M10.1 6.92c.12.07.26.05.41-.04h.03l-.07.12c-.05.08-.04.1.05.06l.12-.06c.07-.03.08-.02.05.05l-.08.14a.06.06 0 0 0 0 .08l.19.14c.15.22.2.47.16.75l-.01.04-.03.02a1 1 0 0 0-.4.28c-.19.21-.4.42-.67.6-.4.3-.66.5-1.1.58-.24-.04-.4-.2-.59-.32l-.03-.05c.1.02.19.03.28.1.19.1.42.2.62.1a3 3 0 0 0 .93-.71.8.8 0 0 1 .14-.31l.22-.14a.97.97 0 0 0 .51-.48c.04-.15-.02-.3-.19-.45-.04-.04-.2-.13-.46-.26A1.13 1.13 0 0 1 9.95 7a.1.1 0 0 0-.1-.02c-.04 0-.08 0-.1-.02a.04.04 0 0 1 0-.05c.03-.06.09-.07.17-.03l.17.05Z" fill="#BCA7A6"/><path d="M10.51 6.88c-.15.1-.3.1-.42.04l.25-.02c.02 0 .03 0 .05-.02a.37.37 0 0 1 .1-.03h.02v.03Z" fill="#33262E"/><path d="M10.84 7.1h.04v.01c.06.07.12.14.15.2.04.06.05.1.04.11h-.04a.32.32 0 0 1-.07-.04 1 1 0 0 1-.18-.17l-.01-.03v-.02l.07-.06Z" fill="#EFD3C6"/><path d="m8.32 7.1-.03.4a.04.04 0 0 1-.03.03L8 7.59c-.02 0-.03.02-.03.04 0 .08-.03.17-.1.26-.14.05-.19.1-.13.14l-.16.09a.1.1 0 0 1-.05.03V8.1h-.05c.16-.09.3-.23.44-.34v-.02a.04.04 0 0 0 0-.04l-.01-.01-.17-.07c-.04-.02-.04-.04 0-.05.09-.03.22-.05.3-.12.12-.08.2-.2.27-.34Z" fill="#5E5C5F"/><path d="m7.08 8.01.12.09c.02.06.05.1.1.11.05.02.13-.02.2-.04 0 .05.02.07.08.08l.22.04c-.04.04-.05.06-.03.06a3.03 3.03 0 0 1 .5.08l.04-.03-.01-.04.07.07c-.01.06.02.13.08.2.02.01.02.02 0 .03l-.25.14a.55.55 0 0 0-.07-.23.04.04 0 0 0-.03-.03c-.05 0-.1 0-.14-.02a.03.03 0 0 0-.03 0v.05c0 .03.01.05.04.06.08.03.15.03.16.16-.16-.02-.27.01-.32.07-.02.03-.06.03-.1.02-.02 0-.03-.01-.02-.03l.07-.11c.01-.03 0-.04-.02-.04-.12.02-.2-.02-.22-.14a.03.03 0 0 0-.02-.02.03.03 0 0 0-.03 0c-.03.03-.05.1-.07.21a.86.86 0 0 0-.35-.35l-.11-.15v-.16c0-.02 0-.03-.03-.03h-.02c-.02 0-.03 0-.03-.03l-.02-.18-.02-.05c-.08-.1-.07-.2-.17-.27a.02.02 0 0 1 0-.04.2.2 0 0 1 .06-.03c.02 0 .03 0 .04.03.04.21.15.39.33.52Z" fill="#7F7A7E"/><path d="m6.94 8.25.1.15c.13.25.23.5.31.75.04.1.08.17.13.23.1.1.2.13.3.11.1-.02.21-.14.3-.21l.05.03.03.05c.2.13.35.28.6.32.14.04.27.04.38-.02.36-.2.61-.32.75-.36.3-.1.36-.5.64-.62.2-.08.4-.18.6-.28l-1 1.41a.04.04 0 0 0 0 .07h.03c.43-.06.75-.28.98-.67.12-.2.26-.56.42-1.06l-.02.3a.04.04 0 0 0 .03.04h.02c.29-.08.26-.39.26-.63 0-.01 0-.03.02-.03l.2-.1.19.33a.1.1 0 0 1 0 .06l-.06.68.01.04c.05.11.12.2.22.3.11.17.2.35.23.55v.08c0 .02-.01.03-.03.02l-.2-.14-.2-.32-.13-.63a.06.06 0 0 0-.03-.04l-.22-.1a.11.11 0 0 0-.09-.01.12.12 0 0 0-.06.06c-.14.28-.16.6-.26.91-.06.05-.11.1-.15.18l-.57.24.24-.26v-.02l-.01-.01h-.04c-.23.25-.55.36-.84.51a.72.72 0 0 0-.28.26c-.26.07-.43.1-.52.08l-.66-.13c-.1-.02-.19-.05-.29-.1-.25-.1-.41-.16-.68-.11-.2-.14-.43-.2-.66-.2a.46.46 0 0 0-.2-.11.68.68 0 0 1-.23-.2l.1-.08v-.03l-.01-.01-.2-.02h-.02l-.02.03-.04.14-.04-.15a.34.34 0 0 0 .09-.2c0-.04-.02-.06-.07-.06-.15-.51-.31-.96-.32-1.51.18-.03.3-.11.39-.24l.53.73Z" fill="#E8C8C0"/><path d="m7.66 7.72.03.11c-.1.04-.2.05-.3.03h-.01a.03.03 0 0 1-.01-.03V7.8l.15-.2c.05-.05.07-.05.08.03 0 .03.03.05.06.08Z" fill="#B69B93"/><path d="m8.5 7.89-.07.09h-.04c-.01 0-.02-.01-.02-.03 0-.02 0-.03-.03-.04a.52.52 0 0 0-.53.12h-.06c-.06-.04-.01-.09.14-.14.1-.2.24-.29.4-.26a.5.5 0 0 1 .3.17.03.03 0 0 1 0 .02l-.08.07Z" fill="#1A121C"/><path d="m9.34 8.26-.1-.02a1.2 1.2 0 0 0-.4-.27l.2-.03a.1.1 0 0 0 .05-.02.1.1 0 0 0 .03-.04l.1-.2c.04-.08.05-.08.03.02-.01.07-.04.15-.07.24V8c.07.08.12.17.16.27Z" fill="#7F7A7E"/><path d="M11.56 8.15c-.16.5-.3.85-.42 1.06-.23.39-.55.6-.98.67h-.02l-.02-.02a.04.04 0 0 1 0-.05l1-1.41c.2-.13.32-.3.39-.48.03-.1.06-.1.07 0a.8.8 0 0 1-.02.23Z" fill="#EFD3C6"/><path d="M8.5 7.89c.1-.02.16-.01.2.02.06.05.16.1.27.16.05.02.08.04.09.08L7.8 8.03a.52.52 0 0 1 .53-.12c.02 0 .03.02.03.04s0 .03.02.03h.04l.08-.1Z" fill="#CC697F"/><path d="M10.83 7.87c-.13.24-.3.4-.51.48.06-.11.13-.2.22-.28l.3-.2Z" fill="#B69595"/><path d="m7.81 8.03 1.25.12c.06.08.06.14 0 .18-.03.02-.08.02-.14-.01-.02-.01-.02-.02 0-.03l.04-.03c.02-.01.02-.02 0-.03a.18.18 0 0 0-.13.01H8.65a1.72 1.72 0 0 0-.25-.03l-.25-.03a.87.87 0 0 0-.43 0c-.03.03-.07 0-.13-.06l.16-.09h.06Z" fill="#FE8CA5"/><path d="M7.45 8.1h.08v.05l-.04.02c-.06.02-.14.06-.2.04-.04 0-.07-.05-.09-.11h.25Z" fill="#1A121C"/><path d="M7.59 8.12c.06.06.1.09.13.07l.11.06h.04c.04-.05.09-.05.14-.01a.05.05 0 0 0 .05 0c.1-.02.2.01.29.1.02 0 .01.02 0 .02H8.3l-.5-.07a9.2 9.2 0 0 1-.22-.04c-.06 0-.09-.03-.09-.08l.05-.02a.1.1 0 0 0 .05-.03Z" fill="#FDF1F2"/><path d="M10 8.54a.85.85 0 0 1-.3.15l-.2.04c-.2-.08-.2-.2-.25-.37.08.09.2.12.33.11l.02-.01a.03.03 0 0 0 0-.03l-.06-.1h.31c.16-.01.3-.08.43-.19l.02-.01h.03l.02.02v.02a.06.06 0 0 1-.02.04l-.34.33Z" fill="#33262E"/><path d="M8.65 8.24v.04c-.06-.03-.1-.02-.14.03-.02 0-.05.02-.08.09 0 .02-.02.03-.06.03l-.06-.06h.03c.02-.01.03-.02 0-.04-.08-.08-.18-.1-.28-.08A.05.05 0 0 1 8 8.24c-.05-.04-.1-.04-.14 0-.01.02-.02.02-.04.01l-.1-.06a.87.87 0 0 1 .42-.01l.25.03.25.03Z" fill="#CC697F"/><path d="m9.25 8.24.09.02.2.07.06.1a.03.03 0 0 1-.01.04h-.01a.4.4 0 0 1-.33-.1c-.02-.04-.02-.08 0-.13Z" fill="#1A121C"/><path d="M8.65 8.28c.02.04 0 .07-.06.1-.06 0-.08-.03-.08-.07.03-.05.08-.06.14-.03Z" fill="#FAC2D2"/><path d="M8.3 8.36a.4.4 0 0 1 .01.04.08.08 0 0 1-.04.03h-.04c-.16-.04-.3-.07-.46-.08-.02 0 0-.02.03-.06l.5.07ZM8.51 8.31c0 .04.02.07.07.07.1.06.14.14.13.24a.03.03 0 0 0 .01.02.02.02 0 0 0 .02 0l.1-.02c.02 0 .03 0 .04.02.06.08.14.15.23.2h-.1c-.3.06-.5.1-.64.1-.12 0-.3-.03-.56-.08.05-.06.16-.09.32-.07.01 0 .04.01.07 0l.25-.13c.01 0 .02-.02 0-.03-.06-.07-.1-.14-.08-.2.04 0 .06-.01.06-.03.03-.07.06-.1.08-.09Z" fill="#5E5C5F"/><path d="M7.4 8.75c.03-.06.07-.07.1-.04.02.02.04.04.05.08.07.26.27.42.52.48-.08.08-.18.2-.28.22-.12.02-.22-.01-.3-.1a.61.61 0 0 1-.14-.24c-.08-.25-.18-.5-.3-.75.13.06.25.18.35.35Z" fill="#D0B0A3"/><path d="M7.33 8.47c0 .04.02.08.05.08.03 0 .07-.02.07-.06 0-.04-.02-.08-.05-.08-.03-.01-.06.02-.07.06Z" fill="#BCA7A6"/><path d="M10.1 8.49a.8.8 0 0 0-.14.3c0 .03-.02.05-.05.09a3 3 0 0 1-.88.64c-.2.1-.43 0-.62-.12-.1-.06-.18-.07-.28-.1l-.06-.02c-.25-.07-.45-.23-.52-.49l-.04-.08c-.04-.03-.08-.02-.1.04 0-.12.03-.18.06-.2a.03.03 0 0 1 .05 0v.01c.02.12.1.16.22.14.03 0 .03.01.02.04l-.07.11.01.03c.05.01.09 0 .1-.02.27.05.45.08.57.08a4.15 4.15 0 0 0 .68-.1l.03.02v.03a.07.07 0 0 1-.01.06l-.1.09v.04c.07.12.16.15.27.08.18-.1.42-.25.46-.47.1-.03.2-.08.3-.15l.1-.05Z" fill="#9A888B"/><path d="m8.2 8.8-.07-.01c-.01-.13-.08-.13-.16-.16a.06.06 0 0 1-.05-.06v-.02a.03.03 0 0 1 .01-.02.03.03 0 0 1 .03 0l.14.01a.04.04 0 0 1 .03.03c.04.07.06.14.07.23Z" fill="#9A888B"/><path d="m12.23 9.33-.21-.2c-.04-.04-.05-.03-.04.02l.02.08c0 .02-.01.04-.04.05l-.23-.08h-.04a.06.06 0 0 0-.03.03.92.92 0 0 1-.22.3c.1-.32.12-.64.26-.92a.12.12 0 0 1 .06-.06h.09l.22.1c.02.02.03.03.03.05l.13.63Z" fill="#D6C6B9"/><path d="M9.7 8.7c-.04.2-.28.36-.46.46-.11.07-.2.04-.27-.08v-.04l.1-.09a.07.07 0 0 0 .02-.06l-.01-.03-.03-.02h-.04.1l.05.05c.02.01.04 0 .07 0l.26-.16.21-.04Z" fill="#736F71"/><path d="M8.7 9.15a.07.07 0 0 0-.02-.03h-.04a1.25 1.25 0 0 1-.54-.09.02.02 0 0 1 0-.01L8.12 9h.01a2 2 0 0 0 .59.04h.03l.03.03.09.15a.02.02 0 0 1 0 .02h-.01a.17.17 0 0 1-.14-.09Z" fill="#926E6E"/><path d="m12.23 9.33.2.32c.03.2.07.38.11.53.04.11.08.12.12 0a.77.77 0 0 0 0-.49 1.6 1.6 0 0 0-.23-.56l.65.74c.06.47.14.82-.07 1.3l-.29.6a.2.2 0 0 0 0 .09c0 .15.12.18.24.21a.1.1 0 0 0 .1-.03c.13-.13.24-.3.33-.5.01-.02.02-.02.04 0l.07.1h.02l.16-.2c-.2.33-.4.64-.66.93l-.26.24c-.11.12-.2.2-.27.23-.16.1-.32.16-.47.22-.08.03-.1 0-.04-.07a.77.77 0 0 0 .15-.41c.03-.35.26-.61.43-.87a3.83 3.83 0 0 0 .26-.97c0-.02 0-.03-.02-.01a.19.19 0 0 0-.05.1c-.05.25-.16.7-.3.86h-.07v-.19c.06-.57.1-1.1 0-1.63a.46.46 0 0 0-.07-.19c-.05-.07-.07-.06-.06.03.05.41.12.9 0 1.3-.07.24-.1.5-.2.68-.12.2-.27.36-.33.57-.08.27-.16.52-.03.76.07.12.1.2.1.22.02.08 0 .16-.03.24l-.4.25a15.79 15.79 0 0 0 .1-1.01c.1-.21.16-.43.21-.65.03-.12.12-.28.27-.46a3.64 3.64 0 0 0 .16-1.01.04.04 0 0 0-.03-.01.79.79 0 0 0-.34.15c-.14.1-.31.34-.54.4a5.4 5.4 0 0 1-.34.05 29.3 29.3 0 0 0 .87-.67c.1-.1.16-.19.22-.28.21-.34.21-.68 0-1a5 5 0 0 0 .02.04c.03-.01.04-.03.04-.05l-.02-.08c-.01-.05 0-.06.04-.02l.2.2Z" fill="#D0B0A3"/><path d="m11.96 9.28-.01-.04c0 .29-.07.5-.19.67-.03.04-.05.04-.11.05-.04.01-.04.02-.01.05.03.03.04.06.02.09-.06.07-.11.15-.16.24l-.07.01a.47.47 0 0 0-.15-.2l.29-.42c.03-.04.02-.06-.03-.05l-.04.01h-.04c-.06-.04-.11-.03-.17.01a.63.63 0 0 1 .15-.18c.1-.08.17-.18.22-.3 0 0 .01-.02.03-.02h.04l.23.08Z" fill="#C6AABB"/><path d="M6.34 9.27c.05 0 .07.02.07.07 0 .06-.04.13-.1.19-.19.19-.3.34-.34.46-.06.17-.1.47-.27.52a.79.79 0 0 0-.3.16c-.1.1-.2.3-.3.36-.1.06-.16.06-.2 0a.66.66 0 0 0 .32-.35.47.47 0 0 1 .13-.15c.24-.17.4-.3.47-.6l.09-.3c.08-.18.27-.26.43-.36Z" fill="#FDF1F2"/><path d="M11.95 9.24c.2.32.2.66 0 1a1.72 1.72 0 0 1-.5.52l-.6.43-1.35.84a.45.45 0 0 0-.22.17c-.01.02 0 .04.01.05.02 0 .03.01.04.03a.02.02 0 0 1 0 .02c-.1.05-.14.13-.14.24l.01.04c.05.08.1.16.12.26 0 .03 0 .06-.04.09v.05l.46.43a.03.03 0 0 1 0 .04h-.02l-.28-.03a.3.3 0 0 1-.2-.11v-.05l.08-.08v-.03c-.23-.18-.34-.17-.57-.2a.56.56 0 0 1-.28-.15l-.21-.22a.12.12 0 0 1-.05-.05.03.03 0 0 1 0-.03h.03c.12 0 .26.03.28-.15 0-.03.02-.05.04-.05h.03c.02 0 .03.02.03.03l.01.11a.05.05 0 0 0 .02.04c.08.06.16.06.25 0 .02.06.07.09.15.1.02 0 .03-.02.04-.03a.2.2 0 0 0 0-.1.05.05 0 0 1 .01-.05c.06-.07.1-.15.14-.23l.23-.18c.36-.24.71-.47 1.08-.69l.75-.48c.15-.1.26-.2.33-.28.13-.16.3-.36.37-.6l.09-.25c.02-.07 0-.1-.06-.11l-.04.02c-.06.04-.1.18-.12.24a.48.48 0 0 1-.08.2c-.08.11-.18.21-.29.3.05-.09.1-.17.16-.24.02-.03.01-.06-.02-.1-.03-.02-.03-.03 0-.04.07 0 .09 0 .12-.05.12-.16.18-.38.19-.67Z" fill="#CC697F"/><path d="M6.55 9.66a.26.26 0 0 0-.03.02v.03c.03.19.08.37.16.56l.03.02h.02a.03.03 0 0 0 .02-.03c0-.05.01-.1.05-.13a.91.91 0 0 0 0 .28l-.02.02a.1.1 0 0 0-.03.04.94.94 0 0 0 .02.63 5.24 5.24 0 0 1-.16-.2.7.7 0 0 1-.12-.24 6.64 6.64 0 0 0-.12-.34 1.8 1.8 0 0 1 0-.64l.03-.14.02-.03h.02l.2.02.02.01a.03.03 0 0 1-.01.03l-.1.09Z" fill="#FE8CA5"/><path d="m6.32 9.53.04.15c-.03.23-.03.44.01.64l-.03.23.01.05.14.2v.02h-.05c-.07-.08-.16-.1-.29-.08-.28.07-.44.21-.48.44a1.1 1.1 0 0 0 .17.4v.02a.03.03 0 0 1-.04.02h-.02c-.02 0-.03-.01-.04-.03l-.04-.07-.01-.02a.04.04 0 0 0-.06.02c-.05.1-.07.2-.04.32 0 .01 0 .02-.02.02h-.04c.02-.24-.07-.4-.26-.47l-.05-.02c-.02 0-.03 0-.03.02l.03.2v.02a.03.03 0 0 1-.03.01h-.01c-.1-.07-.24-.2-.38-.24-.05 0-.08 0-.1.03-.02.02-.03.07-.04.14a.06.06 0 0 1-.03.05.06.06 0 0 1-.05 0l-.06-.03h-.05l-.12.17c-.07.1-.04.2-.04.33 0 .02-.01.03-.03.03l-.06.01-.01-.17c0-.05-.02-.1-.04-.14l-.06-.15a.1.1 0 0 1 0-.02.01.01 0 0 1 0-.01h.01l.02.02.02-.01c.07-.24.15-.4.36-.52h.02l.02.02a.02.02 0 0 1 0 .03.4.4 0 0 0-.1.12v.03h.04l.29-.28h.11c.04.06.1.06.2 0s.2-.27.3-.36a.79.79 0 0 1 .3-.16c.17-.05.21-.35.27-.52.04-.12.15-.27.35-.46Z" fill="#EFD3C6"/><path d="M11.28 10.14a1.5 1.5 0 0 0-.68.3l-.31-.04.26-.13.02-.03a.15.15 0 0 0-.03-.07.1.1 0 0 1-.02-.08.1.1 0 0 1 .06-.07l.14-.08.57-.24c.06-.04.11-.05.17-.02l.04.01h.04c.05-.02.06 0 .03.04l-.3.41Z" fill="#BCA7A6"/><path d="m9.24 12.17-.34.3c-.09.07-.17.07-.25 0l-.01-.01-.01-.02-.01-.1c0-.02-.01-.03-.03-.04h-.03l.3-.28c.12-.11.25-.18.38-.27.02-.01.02-.02.01-.04l-.08-.22a.67.67 0 0 1-.02-.34.1.1 0 0 1 .03-.05.1.1 0 0 1 .04-.03c.04 0 .07-.03.08-.06.22.07.42.16.65.17.04 0 .06 0 .08-.04.07 0 .14-.02.2-.07.08-.06.17-.1.27-.15a.14.14 0 0 0 .05-.06.14.14 0 0 0 .02-.08v-.14l.05.16c.01.04.04.05.07.03l.66-.38a.22.22 0 0 0 .08-.1l.07-.01c.11-.09.2-.19.3-.3a.48.48 0 0 0 .07-.2c.02-.06.06-.2.12-.24l.04-.02c.06 0 .08.04.06.1l-.09.27c-.07.23-.24.43-.37.6a1.5 1.5 0 0 1-.33.27l-.75.48a21.62 21.62 0 0 0-1.31.87Z" fill="#FE8CA5"/><path d="M13.02 12.37c-.35.43-.77.8-1.26 1.1a.39.39 0 0 0 .03-.23c0-.03-.03-.1-.1-.22-.13-.24-.05-.49.03-.76.06-.2.2-.37.33-.57.1-.18.13-.44.2-.67.12-.42.05-.9 0-1.31 0-.09.01-.1.06-.03.03.04.06.1.07.19.1.54.06 1.06 0 1.63v.16a.04.04 0 0 0 .02.04.04.04 0 0 0 .04-.01c.15-.15.26-.61.3-.86a.19.19 0 0 1 .06-.1c.02-.02.03-.01.03.01a3.83 3.83 0 0 1-.27.97c-.17.26-.4.52-.43.87a.77.77 0 0 1-.15.41c-.06.08-.04.1.04.07l.47-.22c.07-.04.16-.11.27-.23l.26-.24Z" fill="#B69B93"/><path d="m10.72 9.94-.14.08a.1.1 0 0 0-.05.11l.01.04c.02.02.02.04.03.07 0 .01 0 .03-.02.03l-.26.13c-.07 0-.14.02-.2.04-.12.02-.2 0-.3-.02.06-.11.16-.2.28-.26.3-.15.61-.26.84-.5l.02-.01h.03v.01a.02.02 0 0 1 0 .02l-.24.26Z" fill="#D0B0A3"/><path d="M12.66 9.7c.06.18.05.34 0 .49-.04.1-.08.1-.12 0a4.05 4.05 0 0 1-.12-.54l.21.14c.02 0 .03 0 .04-.02V9.7Z" fill="#D6C6B9"/><path d="M6.55 9.66c.1.1.17.17.23.19.08.03.15.07.2.12a.34.34 0 0 0-.18.16.14.14 0 0 0-.05.12.03.03 0 0 1 0 .03H6.7c-.01.01-.03 0-.03-.01a2.53 2.53 0 0 1-.17-.56l.01-.03.03-.02Z" fill="#FDF1F2"/><path d="m13.08 9.87.18.07c.07.02.12.04.16.07.23.17.37.39.54.63a.2.2 0 0 1 .02.2l-.3.6-.16.2h-.02l-.07-.1c-.02-.02-.03-.02-.04 0-.1.2-.2.37-.32.5a.1.1 0 0 1-.11.03c-.12-.03-.24-.06-.25-.21l.01-.1.29-.59c.2-.48.13-.83.07-1.3Z" fill="#E5BAA0"/><path d="M7.64 10.16c.05.05.1.11.12.2.03.14.02.23-.01.28-.14.18-.39.32-.62.25l-.09-.03h-.03c-.01.01-.02.02 0 .04.05.04.09.1.12.15l.06.12c-.06.1-.16.13-.28.11a.27.27 0 0 0-.06-.07l-.08-.1a.94.94 0 0 1-.02-.64.1.1 0 0 1 .03-.04l.01-.02v-.01a.91.91 0 0 1 0-.27c.04-.07.1-.12.19-.16.23-.02.45.05.66.19Z" fill="#FE8695"/><path d="M9.78 10.42c.11.02.19.04.3.02l.2-.04.32.05a.56.56 0 0 0-.04.2l.01.13c0 .03 0 .06-.02.08a.14.14 0 0 1-.06.06c-.09.04-.18.1-.26.15a.32.32 0 0 1-.2.07.11.11 0 0 0-.03-.03l.04-.01a.09.09 0 0 0 .02-.07.1.1 0 0 0-.04-.06c-.32-.2-.68-.1-1.02-.22a2.73 2.73 0 0 1-.49-.24l.14-.03c.02 0 .03-.01.03-.03l-.01-.03-.4-.06c-.04 0-.05 0-.02.03.07.05.14.09.22.12a1.2 1.2 0 0 1-.65-.2h-.04l-.02.05a.5.5 0 0 0-.12-.2c.26-.05.43 0 .68.11.1.05.2.08.29.1.22.05.44.1.65.13.1.02.27 0 .52-.08Z" fill="#E8C6B5"/><path d="M11.28 10.14c.07.06.12.13.15.2a.22.22 0 0 1-.08.1l-.66.4c-.03.01-.06 0-.07-.04l-.06-.16c0-.07.02-.13.04-.2.2-.15.43-.25.68-.3Z" fill="#FE8695"/><path d="M8.47 10.5h.04c.16.1.32.18.49.25.34.12.7.03 1.02.22a.09.09 0 0 1 .04.06.09.09 0 0 1-.02.07l-.04.01a.45.45 0 0 0-.18 0h-.04c-.2-.1-.28-.24-.51-.17-.02 0-.03.01-.01.03a.2.2 0 0 0 .04.04.13.13 0 0 1-.08.06.1.1 0 0 0-.04.03.1.1 0 0 0-.03.05.67.67 0 0 0 .02.34l-.39.38c-.02-.24-.13-.35-.34-.35a3.3 3.3 0 0 1-.82-.17c-.06-.16-.17-.24-.31-.24-.09 0-.15-.01-.18-.06a.57.57 0 0 0-.12-.15c-.02-.02-.01-.03 0-.04h.03l.1.03c.22.07.47-.07.6-.25.04-.05.05-.14.02-.28l.02-.05h.04c.2.13.42.2.65.2Z" fill="#FAC2D2"/><path d="m6.77 11.1.08.11c-.13-.04-.25-.1-.36-.2h-.02l-.02.02v.01l.37.35a.02.02 0 0 1 0 .02v.01c-.2.13-.4.21-.63.25l.04-.3a.03.03 0 0 0 0-.03.03.03 0 0 0-.03 0l-.14.03c-.02 0-.03.02-.02.04l.05.13a1.45 1.45 0 0 0-.42-.36c.04-.23.2-.37.48-.44.13-.02.22 0 .3.07a.03.03 0 0 0 .01 0h.03v-.01l-.14-.2a.06.06 0 0 1-.01-.05l.03-.23.12.34c.02.1.06.17.12.24l.16.2Z" fill="#D0B0A3"/><path d="m11.36 13.73-.23.11a1.21 1.21 0 0 1-.1-.37c0-.18.07-.4.02-.57-.04-.15-.07-.2 0-.38.04-.09.03-.16-.03-.21v-.02a.04.04 0 0 1 .01-.05l.26-.15v-.04h-.01a.55.55 0 0 0-.43.22c-.1.12-.09.3-.17.42-.1.12-.16.15-.26.23a.07.07 0 0 0-.02.05v.08a.03.03 0 0 1-.02.02l-.5.3h-.04a.6.6 0 0 1-.21-.23 1.24 1.24 0 0 0-.23-.3.07.07 0 0 1-.02-.05c-.02-.24.33-.17.5-.15a.03.03 0 0 0 .02-.01.03.03 0 0 0 0-.04l-.4-.56 1.35-.84.34-.06c.23-.05.4-.28.54-.4a.79.79 0 0 1 .36-.14h.01l.01.02v.02c0 .32-.05.6-.12.84-.01.06-.02.1-.05.14-.15.18-.24.34-.27.46-.05.22-.12.44-.2.65a15.78 15.78 0 0 1-.11 1.01Z" fill="#E8C8C0"/><path d="M8.63 10.84c-.04.1-.05.2-.04.29-.08.15-.22.19-.41.1a.95.95 0 0 0-.1-.33c0-.09.05-.13.1-.13.06 0 .1.05.16.07a.05.05 0 0 0 .04 0 .27.27 0 0 1 .25 0Z" fill="#FE8695"/><path d="M8.59 11.13c-.01-.1 0-.19.04-.3l.14.02a.02.02 0 0 1 .01 0v.03c0 .02-.01.05-.03.07-.02 0-.02.02 0 .03.04.04.07.06.1.06.04 0 .04.02.01.03a.53.53 0 0 1-.27.06ZM8.08 10.9c.05.1.08.21.1.33a.29.29 0 0 1-.18.02c-.02 0-.03-.02-.03-.04 0-.07-.02-.12-.09-.15a.04.04 0 0 1-.02-.03v-.02l.01-.02a.4.4 0 0 1 .2-.1ZM10 11.11l.03.03c-.02.03-.04.05-.08.04-.23-.01-.43-.1-.65-.17a.2.2 0 0 1-.04-.04c-.02-.02-.01-.03 0-.03.24-.07.33.07.52.17h.04a.45.45 0 0 1 .18 0Z" fill="#E7BB58"/><path d="m6.85 11.21.06.07c.04.08.12.16.25.25a4.2 4.2 0 0 1-1.59.33c.01 0 .02 0 .02-.02a.47.47 0 0 1 .04-.32l.01-.02h.02a.04.04 0 0 1 .04.02l.04.07c.01.02.02.03.04.03h.04l.01-.02a.03.03 0 0 0 0-.03 1.1 1.1 0 0 1-.16-.4c.17.1.3.23.42.37a.5.5 0 0 0 .1.13 1.57 1.57 0 0 0 .64-.26v-.01l-.01-.01-.37-.35v-.01l.02-.01h.02c.1.08.23.15.36.2Z" fill="#BCA7A6"/><path d="M4.78 11.03a4.68 4.68 0 0 0-.31.28c-.02 0-.03-.02-.01-.03a.4.4 0 0 1 .1-.12.02.02 0 0 0 0-.02.02.02 0 0 0 0-.01l-.02-.01h-.02c-.21.1-.29.27-.36.5 0 .02 0 .02-.02.02l-.01-.01v-.01H4.1v.03a.27.27 0 0 0-.09-.14.06.06 0 0 1-.02-.05.06.06 0 0 1 .02-.04c.06-.04.12-.07.16-.13.07-.09.14-.16.22-.23a.08.08 0 0 1 .05-.01l.33-.02Z" fill="#FDF1F2"/><path d="m7.62 11.35-.17.2-.26-.38-.06-.12c.03.05.1.07.18.06.14 0 .25.08.31.24Z" fill="#E5BAA0"/><path d="m7.2 11.17.25.37c.07.04.12.05.14.04.16-.02.21.05.31.14.02.02.03.02.05.01l.04-.01c.02 0 .03 0 .03.03v.04l.01.05.25.16c.01.03 0 .06-.04.08-.01 0-.02.02-.01.04l.02.11a.05.05 0 0 1 0 .05l-.03.01H8.2a.71.71 0 0 1-.27-.08h-.05c-.02.02-.02.04-.02.07a1.87 1.87 0 0 1-.05-.27c-.01-.07-.06-.13-.14-.19a2.5 2.5 0 0 0-.5-.3.66.66 0 0 1-.26-.24c.12.02.22-.02.28-.11Z" fill="#CC697F"/><path d="M6.2 11.67a.5.5 0 0 1-.11-.13l-.05-.13c0-.02 0-.04.02-.04l.14-.04.02.01v.03l-.03.3Z" fill="#E8C8C0"/><path d="M8.44 11.52c-.01.23.1.35.34.35l.39-.38.08.22v.04c-.14.09-.27.16-.4.27a6.68 6.68 0 0 1-.33.33c-.06.04-.12.03-.18-.04l-.06-.15v-.04c0-.02.02-.03.03-.04.02-.01.02-.02.02-.04a.06.06 0 0 0-.05-.04l-.25-.16a.04.04 0 0 1-.02-.05v-.04c.01-.02 0-.03-.02-.03l-.04.01H7.9c-.1-.1-.15-.17-.31-.15-.02 0-.07 0-.14-.04l.17-.19c.28.1.55.15.82.17Z" fill="#DDBDC7"/><path d="M5.27 11.4v.27c0 .14-.02.24-.15.3-.04.03-.06.02-.03-.03a.84.84 0 0 1 .13-.2c.03-.04.03-.06-.03-.07h-.06c-.06 0-.1.01-.12.06-.1.22-.06.39.11.51a.92.92 0 0 1-.67.06.8.8 0 0 1-.23-.19h.06c.02-.01.03-.02.03-.04 0-.13-.03-.23.04-.33a1.82 1.82 0 0 1 .14-.18h.03l.06.04a.06.06 0 0 0 .05 0l.02-.02.01-.03c0-.07.02-.12.04-.14.02-.03.05-.04.1-.03.14.04.27.17.38.24h.02l.01-.01v-.02l-.02-.2c0-.02 0-.02.03-.02.02 0 .04 0 .05.02Z" fill="#B69595"/><path d="M5.27 11.4c.2.07.28.22.26.46-.03-.04-.06-.05-.1-.02a.7.7 0 0 1-.12.21c-.05.06-.1.05-.17.05-.03 0-.05.02-.05.06l.02.04.03.02c0 .01 0 .02-.02.02-.17-.12-.2-.3-.1-.5.02-.06.06-.08.1-.07h.07c.06 0 .06.03.03.07a.84.84 0 0 0-.13.2c-.03.05-.01.06.03.04.13-.07.15-.17.14-.32v-.27Z" fill="#926E6E"/><path d="M8.78 11.87c-.23 0-.35-.12-.34-.35.2 0 .32.11.34.35Z" fill="#E7BB58"/><path d="M8.52 12.35c-.02.18-.16.14-.28.14a.03.03 0 0 0-.03.01.03.03 0 0 0 0 .03c0 .02.02.03.05.05l-.12.08c-.14-.1-.27-.16-.28-.38 0-.03 0-.05.02-.07h.05c.09.05.18.08.27.08a.05.05 0 0 0 .04-.01.05.05 0 0 0 .01-.05l-.02-.1c0-.03 0-.04.02-.05.03-.02.04-.05.03-.08.03 0 .04.02.05.04 0 .02 0 .03-.02.04a.08.08 0 0 0-.03.04v.04l.06.15c.06.07.12.08.18.04Z" fill="#C59299"/><path d="m9.5 12.03.4.56a.03.03 0 0 1 0 .04H9.9l-.02.01c-.16-.02-.51-.09-.49.15 0 .02 0 .04.02.05.08.08.16.18.23.3a.6.6 0 0 0 .21.22h.05l.49-.3.01-.01.01-.08.02-.05c.1-.08.17-.1.26-.23.08-.12.08-.3.17-.42.1-.14.25-.2.43-.22l.02.02-.01.02-.26.15-.01.01a.04.04 0 0 0 0 .04v.02c.06.05.07.12.04.21-.08.18-.05.23 0 .38.04.18-.04.39-.02.57.01.14.04.26.09.37l-.24.1h-.04a.92.92 0 0 1-.1-.47c0-.02-.03-.03-.1-.02l-.02-.01a.04.04 0 0 1 0-.05c.04-.05.04-.1.02-.15l-.02-.01-.02-.01c-.26 0-.49.07-.67.2a.08.08 0 0 1-.1 0c-.2-.16-.35-.38-.52-.58a.78.78 0 0 0-.12-.26.07.07 0 0 1-.01-.04c0-.11.05-.19.13-.23h.01a.02.02 0 0 0 0-.02v-.01a.07.07 0 0 0-.04-.03c-.02-.01-.02-.03 0-.05a.45.45 0 0 1 .2-.17Z" fill="#C9BAB2"/><path d="M11.88 12.34c-.06.14-.07.26-.04.28.04.01.11-.09.16-.23s.07-.26.03-.27c-.03-.02-.1.08-.15.22Z" fill="#D0B0A3"/><path d="M8.47 12.8c.02.1.07.19.15.23a1.04 1.04 0 0 1 .37.32.02.02 0 0 1-.01.03.07.07 0 0 1-.07 0 4.13 4.13 0 0 1-.4-.22c-.08-.05-.09-.04-.02.02.17.17.45.25.67.33l.12.1c-.4-.08-.75-.25-1.07-.51a.08.08 0 0 1-.02-.05.51.51 0 0 0-.1-.23c-.02-.02-.02-.03 0-.03.03 0 .04 0 .06.02.07.05.13.1.17.11.08.05.1.03.03-.04a1.45 1.45 0 0 0-.21-.22l.12-.08.21.22Z" fill="#FAC2D2"/><path d="m9.44 13.42-.06.1h-.22c-.22-.09-.5-.17-.67-.34-.07-.06-.06-.07.02-.02l.4.22h.07a.02.02 0 0 0 0-.02.02.02 0 0 0 0-.02c-.1-.13-.21-.24-.36-.31-.08-.04-.13-.12-.15-.23.09.07.16.12.28.14.23.04.34.03.56.2.02.02.02.03 0 .04l-.06.08c-.02.02-.02.03 0 .05.05.06.11.1.19.1Z" fill="#D0B0A3"/><path d="M10.65 13.45v.28c0 .02 0 .03-.02.04-.19.05-.37.13-.54.22-.06.02-.09 0-.13-.03-.02-.01-.02-.03 0-.04l.07-.06a.05.05 0 0 0 .02-.04v-.15c.07 0 .14.03.2.1l.04-.01c.04-.08.1-.15.18-.2l.02-.04c0-.01 0-.03-.02-.03a.09.09 0 0 0-.07-.02c-.34.09-.68.1-1.02.05l.06-.1.28.04h.01l.01-.02a.03.03 0 0 0 0-.03l-.46-.43v-.05c.03-.03.04-.06.04-.09.17.2.32.42.52.57a.08.08 0 0 0 .1 0 1.28 1.28 0 0 1 .7-.19v.02c.03.05.03.1 0 .15-.02.02-.02.03 0 .05l.01.01Z" fill="#C59299"/><path d="M10.05 13.67c-.02-.03-.04-.02-.06.03-.14-.03-.22.03-.25.16l-.07.01c-.08.05-.1.03-.06-.06a.4.4 0 0 1 .07-.1.03.03 0 0 0 0-.04c-.01-.02-.04-.02-.08-.01a.49.49 0 0 0-.21-.03l-.1-.02-.13-.1.21.01a2.52 2.52 0 0 0 1.07-.05c.01 0 .02 0 .03.02l.02.03c0 .02 0 .04-.02.05a.55.55 0 0 0-.19.19c0 .01-.01.02-.03 0-.06-.06-.13-.1-.2-.09Z" fill="#FE8CA5"/><path d="M9.6 13.66c0 .03-.01.05-.04.06 0-.03-.02-.04-.06-.05H9.4v-.04c.07 0 .14 0 .21.03Z" fill="#BCA7A6"/><path d="M9.56 13.72c-.07.04-.11.09-.13.14 0 .01-.01.02-.03.02l-.14-.01c-.02 0-.03-.02-.02-.04.04-.06.09-.1.15-.15h.11c.04 0 .06.01.06.04ZM9.99 13.7c-.1.17-.17.22-.25.16.03-.13.11-.19.25-.16Z" fill="#FDF1F2"/></svg>