<!-- by TradingView --><svg width="18" height="18" viewBox="0 0 18 18" xmlns="http://www.w3.org/2000/svg"><path fill="#F0F3FA" d="M0 0h18v18H0z"/><path d="M12.55 13.81a3.94 3.94 0 0 0-.14-.5 2 2 0 0 0-.28-.6.9.9 0 0 0-.5-.39 2.07 2.07 0 0 0-.28-.07l-.14-.14v-.03c.4-.18.7-.44.9-.79.04-.05.1-.1.17-.12l.38-.13a.35.35 0 0 0 .21-.25c.03-.1-.02-.19-.13-.25-.03-.01-.03-.03-.02-.05a.55.55 0 0 0 .06-.1c.06-.17.02-.3-.14-.38a.43.43 0 0 0-.2-.03v-.45c0-.03.01-.05.04-.05a10.6 10.6 0 0 1 .2-.08 7.5 7.5 0 0 1 .24-.18c.24-.23.35-.51.32-.85l.01-.06a.3.3 0 0 1 .05-.06.26.26 0 0 0 .05-.06.51.51 0 0 0 .06-.23c0-.13-.03-.27-.1-.43-.04-.1-.1-.24-.2-.4a5.08 5.08 0 0 1-.31-.61 2.66 2.66 0 0 1-.16-.54c-.03-.17-.02-.36.03-.56.03-.13.12-.3.28-.5.03-.03.04-.05.03-.07 0-.04-.03-.06-.07-.04a2.17 2.17 0 0 0-.56.36 1.91 1.91 0 0 0-.5.55l-.01-.01a.51.51 0 0 0 .04-.23c0-.01 0-.02-.02-.02-.05 0-.08 0-.1.04a.62.62 0 0 1-.09.09.67.67 0 0 0-.1.1l-.1.16c-.02.03-.04.02-.03-.02V5.7c0-.04 0-.06-.02-.06a.05.05 0 0 0-.05 0 .5.5 0 0 0-.13.1c-.1.14-.18.28-.23.41 0 .02 0 .02-.02.02-.17.01-.36.07-.56.16-.02.01-.03 0-.03-.02a.72.72 0 0 1 .07-.23c.07-.15.16-.28.25-.41.02-.03.02-.06 0-.1h-.03c-.17.08-.31.18-.45.3-.01.02-.02.01-.01 0a.74.74 0 0 1 .07-.2l.2-.4v-.04c-.03-.03-.06-.03-.1-.01-.32.19-.55.46-.69.8 0 .03-.01.03-.01 0v-.24c0-.01-.01-.02-.03-.02h-.03c-.16.14-.28.3-.36.49 0 .02-.02.02-.03.01a1.84 1.84 0 0 0-1.94.24c-.02.02-.03.02-.04 0l-.16-.23c-.11-.16-.23-.3-.37-.42-.02-.02-.05-.02-.1-.03-.02 0-.03.01-.03.02l.01.13c.01.06 0 .06-.02.02l-.2-.26a.34.34 0 0 0-.17-.12H6.2a.04.04 0 0 0-.01.05v.12c0 .03-.01.03-.03 0a3.78 3.78 0 0 0-.26-.36 1.4 1.4 0 0 0-.39-.35 1.7 1.7 0 0 1-.12-.08l-.13-.08-.42-.19a6 6 0 0 1 9.55 6.93 5.87 5.87 0 0 1-1.83 2.17Z" fill="#811A7F"/><path d="M4.83 4.71a7.53 7.53 0 0 1 .55.27l.12.08c.15.09.28.2.4.35l.25.36c.01.03.03.03.03 0V5.6a.04.04 0 0 1 .05 0c.07.02.13.06.18.12l.19.26c.02.04.03.04.02-.02v-.13l.01-.02c.05 0 .1.01.11.03.14.12.26.26.37.42l.16.23c0 .02.02.02.03 0a1.84 1.84 0 0 1 1.95-.24c.01.01.03 0 .03-.01.08-.18.2-.35.35-.49a.03.03 0 0 1 .04 0l.02.02v.24c0 .03.01.03.02 0 .14-.34.37-.61.7-.8.03-.02.06-.02.09.01v.03c-.04.12-.11.25-.2.4a.73.73 0 0 0-.07.2v.02c.14-.13.3-.23.46-.31h.02c.03.04.03.07.01.1-.1.13-.18.26-.25.41a.71.71 0 0 0-.07.23c0 .03 0 .03.03.02.2-.1.39-.15.56-.16.01 0 .02 0 .02-.02.05-.13.13-.27.23-.4a.5.5 0 0 1 .13-.11.05.05 0 0 1 .05 0c.01 0 .02.02.02.06v.14c0 .04 0 .05.03.02l.1-.15a.68.68 0 0 1 .1-.11.62.62 0 0 0 .09-.1c.02-.02.05-.04.1-.03l.02.02c0 .09-.01.16-.04.23l.01.01a1.91 1.91 0 0 1 .59-.61 2.94 2.94 0 0 1 .47-.3c.04-.02.07 0 .07.04 0 .02 0 .04-.03.07-.16.2-.25.37-.28.5-.05.2-.06.4-.03.56.03.18.09.36.16.54.07.18.18.39.31.62.1.15.16.28.2.4.07.15.1.3.1.42 0 .07-.02.15-.06.23l-.05.06a.3.3 0 0 0-.05.06v.06c.01.34-.1.62-.33.85l-.2.15-.04.03a9.74 9.74 0 0 0-.2.07c-.03.01-.05.03-.05.06v.44l.02.01c.09 0 .15.01.18.03.17.08.21.21.15.38a.55.55 0 0 1-.06.1c-.01.02 0 .04.02.05.11.06.16.14.13.25-.03.12-.1.2-.21.25a7.7 7.7 0 0 1-.38.13.29.29 0 0 0-.16.12c-.2.35-.51.61-.9.79l-.02.01v.02l.15.14.02.02.25.05c.2.06.38.19.51.38a2 2 0 0 1 .28.6 7.6 7.6 0 0 0 .14.51l-.12.08a3.56 3.56 0 0 0-.29-.93c-.13-.28-.31-.46-.54-.52l-.21-.07c-.02 0-.03 0-.03.02a.84.84 0 0 1-.21.39c-.22.23-.47.4-.76.53-.32.14-.65.24-.99.3-.12.02-.25.02-.37 0a.5.5 0 0 1-.17-.04c-.04-.02-.04-.03 0-.04l.3-.03c.14 0 .22 0 .27-.02.27-.04.56-.13.89-.26.28-.12.53-.3.77-.56a.53.53 0 0 0 .13-.27c.01-.09-.03-.15-.13-.2h-.03a5.07 5.07 0 0 0-.22.27.77.77 0 0 1-.13.1 2.4 2.4 0 0 1-.87.19l-.04-.02c-.06-.02-.06-.04 0-.06l.5-.1c.1-.02.22-.08.39-.17a.6.6 0 0 0 .2-.22c.01 0 .01-.01 0 0-.33.05-.66.08-.98.09l-.43-.03h-.01v-.02l.01-.02c.14-.02.35-.03.63-.04.29-.02.56-.06.82-.13.17-.04.32-.1.46-.19a1.99 1.99 0 0 0 .6-.58 6.15 6.15 0 0 1-1.13.11c-.43.01-.93 0-1.5-.04a4.4 4.4 0 0 1-.81-.14 5.9 5.9 0 0 1-1.43-.65 2.12 2.12 0 0 0-.09-.07.44.44 0 0 1-.13-.18c-.14-.33 0-.55.42-.67.22.03.38.08.5.14l1 .46c.24.1.42.16.55.17a5.86 5.86 0 0 0 2.87-.36c.03-.01.03-.02 0-.03a1.7 1.7 0 0 1-.71-.45 2.13 2.13 0 0 1-.3-.51c-.08-.21-.1-.45-.05-.7.09-.25.23-.45.42-.6.2-.15.44-.22.7-.22.11 0 .22.01.31.05.1.04.2.09.29.15.04.03.06.02.04-.03a.52.52 0 0 0-.27-.3c-.11-.06-.21-.1-.3-.11-.14-.03-.3-.04-.48-.01-.06 0-.17.03-.32.06a.68.68 0 0 0-.21.1 2.55 2.55 0 0 0-.37.16h-.01v-.02a.85.85 0 0 1 .24-.19 1.84 1.84 0 0 1 1.12-.2c.02 0 .02-.01.01-.02a.55.55 0 0 0-.46-.26c-.22 0-.43.02-.62.08-.05.01-.13.06-.27.15l-.1.03h-.02v-.03a.2.2 0 0 1 .06-.07c.26-.18.54-.26.86-.26v-.02a2.12 2.12 0 0 0-.38-.35 1 1 0 0 0-.23-.12.52.52 0 0 0-.25-.05c-.19.03-.38.1-.56.2l-.01.01a8.4 8.4 0 0 0-.03.32c-.01 0-.02 0-.02-.02a.9.9 0 0 1-.01-.54 2.59 2.59 0 0 1 .16-.37.46.46 0 0 0 .07-.1c.01-.03 0-.03-.01-.02l-.18.15c-.05.04-.1.1-.14.18l-.15.24c-.01.02-.02.02-.03.01-.02-.01-.03-.04-.02-.07.03-.17.08-.33.16-.48l.2-.4c0-.02 0-.03-.02-.03l-.02.01a5.99 5.99 0 0 1-.3.3 1.5 1.5 0 0 0-.28.54l-.1.18c0 .02-.01.02-.03.02-.01 0-.02 0-.03-.02a6.63 6.63 0 0 1 0-.4c0-.04-.01-.04-.04 0a2.03 2.03 0 0 0-.18.34v.03c.13.12.23.25.3.37.02.03.04.04.06.05.15.07.26.17.33.32l.03.1c.02.04.05.09.09.12l.1.1c.11.16.16.35.15.56V8c.15.23.2.47.18.71-.04.3-.16.54-.38.75-.44.35-.92.44-1.44.28-.3-.1-.53-.29-.7-.58-.19-.38-.17-.75.04-1.1.11-.2.27-.35.48-.46a18.39 18.39 0 0 0 .42-.14 1.35 1.35 0 0 1 1.24.34c.03.03.04.03.03-.02a2.66 2.66 0 0 0-.07-.23.23.23 0 0 0-.07-.11.48.48 0 0 0-.18-.12 1.4 1.4 0 0 0-.26-.08 2.34 2.34 0 0 0-1.13.08 11.86 11.86 0 0 0-.47.16v-.02l.01-.03c.01-.01.02-.03.04-.03.45-.26.92-.36 1.4-.3l.36.07h.02v-.03a.44.44 0 0 0-.1-.16.45.45 0 0 0-.16-.1 1.91 1.91 0 0 0-1.17-.01c-.12.04-.23.1-.34.16l-.53.26h-.02c0-.04.01-.06.04-.08.24-.18.47-.31.7-.41.13-.07.27-.1.41-.12.27-.03.52-.02.77.03.02 0 .02 0 0-.02a3.1 3.1 0 0 0-.18-.21.83.83 0 0 0-.3-.2 2.14 2.14 0 0 0-.68-.11c-.38.03-.72.16-1.02.39-.03.02-.04.05-.02.08l.06.16v.06l-.02.01h-.02c-.18-.3-.37-.59-.59-.85-.07-.09-.08-.08-.05.02a3.84 3.84 0 0 1 .11.53h-.02a.07.07 0 0 1-.04-.03 2.71 2.71 0 0 0-.5-.81c-.02 0-.03 0-.02.03l.1.55c0 .02 0 .03-.02.03h-.02c-.02 0-.03 0-.04-.02a2.32 2.32 0 0 0-.66-1.06l-.24-.16-.25-.15a1.31 1.31 0 0 0-.26-.1c-.02 0-.02 0-.01.01l.15.31c.1.3.16.54.17.74.02.24-.02.5-.12.8l-.15.36c-.03.08-.07.2-.1.37-.09.4 0 .7.27.9.25.18.52.22.82.13l.02-.02c.17-.25.3-.5.4-.78a.37.37 0 0 0 0-.26 6.58 6.58 0 0 0-.63-1.22l.03.01a2.88 2.88 0 0 1 .58.86l.14.28c.03.11.03.22 0 .33-.05.17-.1.29-.15.37l-.36.65c-.15.2-.25.37-.33.53-.1.22-.14.47-.14.76.01.23.08.44.2.63A4.42 4.42 0 0 0 7 11.91c.45.29.93.52 1.45.69a.4.4 0 0 1 .1.07c.01 0 .01.01 0 0a.72.72 0 0 1-.18-.02c-.18-.05-.3-.1-.38-.11-.34-.1-.66-.24-.97-.4l-.15-.1h-.02l-.01.02c-.02.06 0 .12.02.18.02.04.07.08.13.14.1.1.2.16.33.2l.52.25c.02 0 .03.02.03.04v.02c0 .02 0 .03-.03.03-.3-.08-.57-.2-.8-.36a.97.97 0 0 1-.25-.24l-.06-.1a.05.05 0 0 0-.03-.04c-.02 0-.03 0-.04.02a.24.24 0 0 0-.07.08v.04c.02.07.06.13.11.19l.23.16.22.16c.07.05.06.08-.02.07l-.06-.02a2.06 2.06 0 0 1-.4-.25.59.59 0 0 1-.2-.28l-.01-.02h-.01a.2.2 0 0 0-.08.04.27.27 0 0 1-.04.02c-.16.05-.3.14-.42.26a1.52 1.52 0 0 0-.48 1.1.36.36 0 0 1-.12-.08c.03-.23.08-.44.16-.61.15-.34.42-.6.78-.78l.2-.04c.02 0 .03-.01.03-.02a.35.35 0 0 1 .23-.14c.02 0 .02 0 .03-.02.02-.05.02-.09-.02-.11-.36-.3-.73-.69-1.1-1.17a1.47 1.47 0 0 1-.18-1.47 3.29 3.29 0 0 1 .39-.7V8.6H5.8c-.14.03-.28.03-.42 0A.88.88 0 0 1 5 8.42a.8.8 0 0 1-.31-.58 1.6 1.6 0 0 1 .1-.74c.11-.26.18-.4.19-.45A2 2 0 0 0 5 5.45a2.79 2.79 0 0 0-.28-.63l.11-.11Z" fill="#15081C"/><path d="M4.72 4.82c.12.2.2.41.27.64a2 2 0 0 1-.01 1.2l-.19.44a1.6 1.6 0 0 0-.1.74.8.8 0 0 0 .3.58 1.04 1.04 0 0 0 .8.17h.03v.02l-.01.05c-.15.2-.27.42-.37.65-.07.15-.1.3-.12.42-.03.4.07.75.3 1.05.37.48.74.87 1.1 1.17.04.02.04.06.02.11l-.02.02a.36.36 0 0 0-.23.14l-.03.02a.87.87 0 0 0-.2.04c-.37.18-.63.44-.79.78-.08.17-.13.38-.16.61L5 13.41a5.93 5.93 0 0 1-1.67-6.27c.28-.87.74-1.64 1.39-2.32Z" fill="#811A7F"/><path d="M8.18 7.03c.1 0 .22-.03.36-.09a1.06 1.06 0 0 1 .86.03 5.98 5.98 0 0 0 .2.12l-.02.01a2.27 2.27 0 0 0-1.44.33l-.02.03v.02h.03l.45-.16c.36-.12.74-.14 1.12-.08.07.01.15.04.26.08.07.03.13.07.18.12 0 .01-.01.02-.03.02h-.02a.97.97 0 0 0-.4-.15 4.28 4.28 0 0 0-.66.03c-.12.03-.23.08-.33.13a.21.21 0 0 0-.11.13c-.2.11-.36.26-.48.45-.21.36-.23.73-.05 1.11.12.37.36.6.73.72.15.04.29.07.4.08.24.02.48-.03.7-.16.02 0 .04-.02.06-.05l.02-.01a.35.35 0 0 1 .06-.05.48.48 0 0 0 .18-.23c.22-.2.35-.45.38-.75.02-.24-.03-.48-.17-.71l-.01-.04a.85.85 0 0 0-.15-.56.72.72 0 0 0-.1-.1.28.28 0 0 1-.09-.13l-.03-.1a.62.62 0 0 0-.33-.3.12.12 0 0 1-.05-.06 1.97 1.97 0 0 0-.3-.37c-.02-.01-.02-.02 0-.03a.63.63 0 0 0 .06-.13 2.03 2.03 0 0 1 .12-.21c.02-.04.03-.04.03 0a6.61 6.61 0 0 0 0 .4c0 .02.02.02.03.02.02 0 .03 0 .04-.02l.1-.18A.8.8 0 0 0 10 5.9a.94.94 0 0 1 .14-.22h.02v.08c-.07.15-.12.31-.15.48 0 .03 0 .06.02.07h.03l.16-.25a.76.76 0 0 1 .13-.18l.18-.15c.02-.01.02 0 .01.01a.46.46 0 0 1-.07.11 2.57 2.57 0 0 0-.17.37.91.91 0 0 0 .02.54l.02.02.02-.01v-.02a8.67 8.67 0 0 1 .02-.3c.18-.1.37-.17.56-.2a1 1 0 0 1 .48.17c.15.1.27.22.39.35l-.01.02c-.31 0-.6.08-.85.26a.2.2 0 0 0-.07.07v.02l.03.01.1-.03.14-.02a.4.4 0 0 1 .13-.02h.09l.13.01.23.03c.02 0 .04.02.03.06-.19.03-.37.1-.54.19a.85.85 0 0 0-.24.19v.01l.01.01.04-.01.33-.16c.13 0 .26-.01.38-.06h.01v.02l-.01.02-.24.17c-.13.13-.22.27-.29.43a5.4 5.4 0 0 0-.03.34 1.36 1.36 0 0 0 .18.97l.17.24c.2.21.44.36.7.45.04 0 .04.02 0 .03-.32.13-.59.22-.8.27-.68.15-1.36.18-2.06.1a2.17 2.17 0 0 1-.54-.18l-1-.46c-.12-.06-.3-.1-.5-.14a.53.53 0 0 0-.45.07c-.19.13-.24.3-.16.54.04.14.13.26.25.36.48.4 1 .65 1.58.77l.4.08.4.06a9.1 9.1 0 0 0 2.2-.07 3.1 3.1 0 0 1 .32-.09l.03.04c-.14.18-.31.34-.51.46-.14.09-.29.15-.46.2-.26.06-.53.1-.82.12a17.3 17.3 0 0 0-.64.06v.01l.01.01.43.03a7.07 7.07 0 0 1 .38.09c.12.02.24.01.37-.03l.03.01v.06c-.16.1-.3.15-.38.16l-.5.11c-.06.02-.07.04 0 .06l.03.02c.13.04.26.07.38.06a.5.5 0 0 0 .1-.01l.07-.01.13-.02.41-.17c.08-.04.18-.11.3-.2a.53.53 0 0 1-.14.26c-.23.26-.49.44-.77.56a3.92 3.92 0 0 1-1.15.28l-.3.03c-.05 0-.05.02-.01.04.05.02.1.04.17.04.12.02.25.02.38 0 .16.02.27.02.32.01a2.79 2.79 0 0 0 1.6-.7.58.58 0 0 0 .15-.2c0-.02.01-.02.02-.02h.01c.03.04.09.1.18.16.1.09.18.22.23.4 0 .03.02.05.04.06h.02v-.01a.45.45 0 0 0-.04-.33.89.89 0 0 0-.25-.25.3.3 0 0 0-.15-.06c-.02-.01-.02-.03 0-.05a.39.39 0 0 0 .06-.18c.23.06.4.24.54.52s.24.6.3.93a5.96 5.96 0 0 1-6.92-.07c.04-.37.17-.7.39-.98a.9.9 0 0 1 .14-.14l.14-.13a1.95 1.95 0 0 1 .26-.21v-.02h.03c.04.12.1.21.2.29a2.05 2.05 0 0 0 .45.27c.08 0 .09-.02.02-.07a2.24 2.24 0 0 0-.22-.16l-.18-.32v-.02h.04c.07.08.15.16.24.23.24.16.51.28.82.36.02 0 .03 0 .03-.03v-.02a.06.06 0 0 0-.04-.04l-.52-.25a.27.27 0 0 0-.07-.09 5.41 5.41 0 0 0-.23-.28c-.03-.03-.03-.06 0-.08a4.82 4.82 0 0 0 1.54.54.4.4 0 0 0-.11-.07c-.52-.17-1-.4-1.45-.69-.08-.1-.16-.19-.24-.25-.2-.16-.36-.31-.49-.46-.09-.1-.2-.28-.32-.53-.05-.09-.09-.2-.12-.34a4.3 4.3 0 0 1-.07-.4 1.68 1.68 0 0 1 0-.38 8.36 8.36 0 0 1 .12-.6.92.92 0 0 0 .05-.26l.36-.65c.05-.08.1-.2.15-.37a.51.51 0 0 0 0-.33l-.14-.28a2.88 2.88 0 0 0-.6-.87c-.02 0-.03 0-.03.02l.01.03a6.58 6.58 0 0 1 .63 1.17c.03.08.03.16 0 .26a2.85 2.85 0 0 1-.41.8c-.3.1-.57.05-.82-.12a2.04 2.04 0 0 1-.15-.49.61.61 0 0 1 .01-.25l.12-.36.18-.37c.12-.23.15-.49.09-.77L5.3 6c-.05-.23-.1-.4-.14-.51l-.05-.16a.32.32 0 0 0-.1-.16l-.16-.3v-.02c.14.04.23.07.27.1a35.58 35.58 0 0 0 .49.31c.16.13.3.3.43.54.11.2.2.37.23.52 0 .02.02.03.04.02h.02c.01 0 .02-.01.02-.03l-.1-.55c0-.03 0-.03.02-.03l.04.03c.2.23.35.49.46.78.01.01.02.03.04.03h.03v-.02c-.04-.23-.08-.4-.11-.5-.04-.1-.02-.12.04-.03a7.73 7.73 0 0 1 .61.85h.02c0-.02.01-.05 0-.07a1.36 1.36 0 0 0-.06-.16c-.02-.03-.01-.06.02-.08.3-.23.64-.36 1.02-.4a2.14 2.14 0 0 1 .68.11c.12.06.22.12.3.2l.19.22c.01.02.01.02-.01.02-.25-.05-.5-.06-.77-.03-.14.02-.28.05-.42.12-.22.1-.45.23-.69.4-.03.03-.04.05-.03.08 0 .02 0 .02.01.01l.53-.26ZM12.23 6.88c-.1-.12-.22-.2-.36-.27.01-.11.05-.23.1-.34a38.03 38.03 0 0 1 .2-.48c.01-.02 0-.02-.01-.01a2.97 2.97 0 0 0-.36.66c-.04-.02-.06-.07-.04-.14a3.32 3.32 0 0 1 .73-1c.04-.05.08-.1.11-.17l.11-.1c.02 0 .02 0 .01.02l-.03.07c-.08.14-.12.25-.14.33a1.4 1.4 0 0 0-.03.47c.04.3.15.6.3.9l.34.62c.06.12.1.23.13.34.04.18.02.31-.06.4-.01.02-.02.02-.02 0a1.57 1.57 0 0 0-.13-.26.4.4 0 0 1-.04-.14.56.56 0 0 0-.17-.37 1.38 1.38 0 0 0-.38-.21.05.05 0 0 1-.02-.03.88.88 0 0 0-.24-.3Z" fill="#AE76FD"/><path d="M12.6 5.13a.44.44 0 0 1-.12.16.54.54 0 0 0-.08.09.27.27 0 0 1-.06.05 3.32 3.32 0 0 0-.59.86c0 .08.01.13.05.15l-.04.14-.15-.12a1.16 1.16 0 0 0-.51-.28c-.02 0-.02-.01-.01-.03.05-.12.14-.26.25-.4 0-.02.01-.02.01 0v.3s0 .02.02.02h.03c.02 0 .02 0 .03-.02a2 2 0 0 1 .24-.35.37.37 0 0 1 .07-.06c.02-.01.03 0 .03.02l-.07.3c0 .02 0 .05.03.08h.02l.11-.17.05-.08c.12-.17.2-.29.27-.35a2.41 2.41 0 0 1 .42-.3ZM5.08 8.35c-.27-.21-.36-.52-.27-.9.03-.18.07-.3.1-.38l.15-.36c.1-.3.14-.56.12-.8-.01-.2-.07-.44-.17-.74.05.04.09.1.1.16l.06.16a2.58 2.58 0 0 1 .16.62c.06.28.03.54-.09.77l-.18.37-.12.36a.61.61 0 0 0 0 .25c.02.17.07.33.14.49Z" fill="#7948B5"/><path d="M5.74 5.63c.1.13.2.3.27.47v.02c-.03 0-.05-.01-.06-.04a3.1 3.1 0 0 0-.62-.73c-.03-.02-.04-.04-.03-.06 0-.02 0-.02.02-.01.17.1.3.22.42.35Z" fill="#15081C"/><path d="M10.17 5.77V5.7l-.01-.01h-.02a.94.94 0 0 0-.14.22.8.8 0 0 1-.25.28c.06-.2.15-.39.27-.55l.15-.15a6.14 6.14 0 0 0 .18-.15c.02 0 .02.01.02.02l-.2.4ZM11.87 6.61c.14.07.26.15.36.27l-.26-.08c-.05-.01-.08-.03-.1-.06a.15.15 0 0 1 0-.13ZM9.58 7.1l.01-.01-.01-.03a6.03 6.03 0 0 1-.18-.09 1.06 1.06 0 0 0-.85-.03c-.15.06-.27.09-.37.1a1.46 1.46 0 0 1 .7-.25c.31-.02.58 0 .81.1.07.02.13.05.17.1.04.03.07.08.1.15l-.01.02h-.02l-.35-.06ZM11.76 7.19c0-.04 0-.06-.03-.06a3.5 3.5 0 0 1-.36-.04h-.09a.4.4 0 0 0-.14.02.77.77 0 0 1-.14.02c.14-.09.23-.14.27-.15.2-.06.4-.09.62-.08.2.02.36.1.46.26v.01c-.2-.02-.4-.02-.59.02ZM11.18 8.34a5.12 5.12 0 0 1 .03-.34 1.18 1.18 0 0 1 .52-.6l.02-.02v-.01c0-.01 0-.02-.01-.01a.91.91 0 0 1-.38.06.68.68 0 0 1 .2-.09c.17-.03.27-.06.33-.06.19-.03.34-.02.48 0 .09.02.19.06.3.12.13.06.22.16.27.3.02.05 0 .06-.04.03a1.4 1.4 0 0 0-.29-.15.82.82 0 0 0-.3-.05 1.15 1.15 0 0 0-1.13.82ZM10.16 7.44c.03.03.06.06.07.1l.07.24c.01.05 0 .05-.03.02l-.03-.02a1.35 1.35 0 0 0-1.42-.26l-.21.08c.01-.06.05-.1.1-.13.11-.05.22-.1.34-.13.08-.03.2-.04.33-.04l.33.01c.13.01.26.06.4.15h.02c.01 0 .02 0 .03-.02Z" fill="#7948B5"/><path d="M5.12 7.82c.02.15.09.28.2.4v.05h-.06a.52.52 0 0 1-.21-.3.95.95 0 0 1-.03-.32.51.51 0 0 1 .11-.3c.03-.02.04-.02.03.02l-.01.1c-.03.15-.04.27-.03.35Z" fill="#15081C"/><path d="M9.52 7.55c.06.04.12.08.19.1l.18.1c.22.17.35.35.4.53.05.13.07.27.07.42 0 .16-.04.32-.11.48a.4.4 0 0 1-.1.13v.03h.02a1.33 1.33 0 0 1-1.71.07l-.17-.26c-.04-.07-.08-.2-.12-.4a.47.47 0 0 1 0-.2l.09-.34.05-.08a.1.1 0 0 0 0-.11c.07-.1.15-.17.24-.24a1.29 1.29 0 0 1 .97-.23Z" fill="#EA4521"/><path d="M10.17 9.35h-.01l-.01-.01V9.3a.4.4 0 0 0 .1-.13c.07-.16.11-.32.11-.48 0-.15-.02-.29-.06-.42a1.18 1.18 0 0 0-.4-.53.92.92 0 0 0-.2-.1 1.07 1.07 0 0 1-.18-.1c.2.03.37.1.52.2.17.12.3.27.37.44.08.18.1.37.08.56-.04.23-.15.43-.32.6Z" fill="#FBF3E7"/><path d="m12.54 7.7.33.28c.03.03.06.07.08.14.12.27.1.53-.03.77-.06.1-.2.26-.4.45a.9.9 0 0 1-.85-.07.94.94 0 0 1-.27-.63c0-.22.05-.45.17-.68a.98.98 0 0 1 .97-.26Z" fill="#EA4521"/><path d="M12.52 9.34c.2-.2.34-.34.4-.45a.84.84 0 0 0-.05-.9c-.1-.1-.2-.19-.33-.29.23.07.4.21.5.42.1.2.12.43.04.66a.98.98 0 0 1-.55.57Z" fill="#FBF3E7"/><path d="M8.36 8.38c.06.1.17.16.33.17a.31.31 0 0 1-.21.12c-.01 0-.02 0-.01.01a.2.2 0 0 0 .1.1c.12.06.27.08.45.07a.37.37 0 0 1-.17.02s-.02 0-.02.02h-.01v.02c.05 0 .1.02.13.03l.12.03c.11 0 .22 0 .3-.03a.5.5 0 0 0 .37-.31l-.01-.02h-.01v-.06c.05 0 .09-.02.1-.06.01-.04 0-.07-.03-.1-.04-.02-.09-.02-.15 0l-.02-.06c.04 0 .06 0 .07-.03v-.02a2.1 2.1 0 0 0-.67-.26C8.98 8 8.9 8 8.77 8c-.01 0-.02 0-.03.02l-.06.1c0 .01-.01.02-.03.02H8.6l-.03-.01h.05c.01 0 .02-.01.01-.03l-.04-.02-.01-.01v-.03c.01-.02.06-.06.14-.1l.06-.03a.61.61 0 0 1 .45-.05c.14.04.27.1.38.18l.07.05.21.17c.1.1.17.2.23.33.07.11.07.24.02.36a.3.3 0 0 1-.08.12 1.26 1.26 0 0 1-.19.14.5.5 0 0 1-.33.1 7.12 7.12 0 0 1-.3-.12.1.1 0 0 0-.08 0 4.23 4.23 0 0 1-.27.07.46.46 0 0 1-.3-.11c-.1-.09-.17-.17-.22-.24a.73.73 0 0 1-.06-.24.22.22 0 0 1 .02-.15l.01-.03a.3.3 0 0 1 .02-.1ZM12.71 8.38l-.12.01a.2.2 0 0 0-.13-.1 7.56 7.56 0 0 0-.1-.04c-.01-.09-.05-.16-.14-.22-.06-.05-.14-.05-.22 0a.62.62 0 0 0-.19.15v.05l.02.03c0 .02-.01.02-.02.02l-.05.01-.13-.01.02-.07.03-.06c.1-.14.23-.22.4-.26.15-.03.29.01.39.14l.06.11.08.1c.04.03.08.08.1.14Z" fill="#FB7932"/><path d="M11.57 7.96c-.12.23-.18.46-.17.68 0 .23.1.44.27.63a.77.77 0 0 1-.36-.55.86.86 0 0 1 .14-.6c.03-.06.07-.11.12-.16Z" fill="#FEE65D"/><path d="M12.35 8.25a.7.7 0 0 0-.46.1.3.3 0 0 0-.13-.06h.04c.02 0 .02-.01.03-.03 0 0 0-.02-.02-.03v-.05a.62.62 0 0 1 .19-.16c.08-.04.16-.04.22 0 .09.07.13.14.13.23ZM9.62 8.32a.81.81 0 0 0-.89-.06l-.13-.12h.05c.02 0 .02 0 .03-.02l.06-.1.03-.02c.13 0 .21 0 .25.02.24.05.46.13.66.26v.02c0 .02-.02.03-.06.02Z" fill="#FAA43F"/><path d="M8.3 8.02a.1.1 0 0 1 0 .1l-.04.1-.1.33a.48.48 0 0 0 0 .2c.05.2.09.33.13.4l.17.27a.99.99 0 0 1-.37-.66.99.99 0 0 1 .22-.74ZM8.57 8.13l.03.01.13.12.07.19c0 .02 0 .04-.02.05l-.09.05c-.16-.01-.27-.07-.33-.17 0-.08.01-.14.04-.19.04-.05.1-.07.17-.06Z" fill="#FEE65D"/><path d="m9.62 8.33.02.05c-.08 0-.11.03-.11.08l.01.03c.05.05.1.07.17.06v.06a.14.14 0 0 1-.07.09c-.2.1-.4.15-.62.15a.98.98 0 0 1-.45-.07.2.2 0 0 1-.1-.1v-.01c.09-.01.16-.05.22-.12l.09-.05c.02-.01.03-.03.02-.05l-.07-.2a.81.81 0 0 1 .9.08ZM12.35 8.25l.1.03a.2.2 0 0 1 .14.11c-.04 0-.06.02-.07.04a.05.05 0 0 0-.01.05l.03.03c.04.02.09.01.14 0a.32.32 0 0 1-.11.17c-.14.06-.27.1-.4.1a.46.46 0 0 1-.38-.16c-.02-.02-.02-.04 0-.05h.02c.06.02.1 0 .12-.04.03-.05.01-.11-.04-.19a.7.7 0 0 1 .46-.09Z" fill="#040202"/><path d="M8.98 8.27c.13-.02.23.02.29.14.02.04.02.07 0 .11a.17.17 0 0 1-.07.09c-.07.04-.13 0-.2-.09a.4.4 0 0 1-.07-.2c0-.03.01-.05.05-.05Z" fill="#FBF3E7"/><path d="m11.63 8.28.13.01c.05 0 .1.03.13.05.05.08.07.14.04.19-.02.04-.06.06-.12.04a.55.55 0 0 1-.18-.13.27.27 0 0 1-.04-.12.1.1 0 0 1 .04-.04Z" fill="#FEE65D"/><path d="M11.59 8.32c.01.06.02.1.04.12.03.04.1.09.18.13h-.02c-.02.01-.02.03 0 .05.1.11.23.17.38.16-.03 0-.06.01-.07.03v.02a.1.1 0 0 0 .04 0h.03c.06.04.12.05.18.03.14-.03.2-.1.22-.18.05-.05.1-.1.11-.17.06-.01.1-.04.1-.1a1 1 0 0 1 .02.2c0 .07-.01.13-.05.18a.68.68 0 0 1-.35.29.75.75 0 0 1-.26.04c-.12 0-.2 0-.24-.02a.4.4 0 0 1-.2-.1c-.04-.05-.06-.12-.04-.2 0-.02 0-.04-.03-.07a.68.68 0 0 1-.07-.24l.01-.02c.02-.01.02-.02.02-.03a.23.23 0 0 1 0-.12Z" fill="#FB7932"/><path d="M12.1 8.43c-.01-.02-.01-.04.01-.06l.02-.01a.1.1 0 0 1 .1-.02c.03 0 .07.03.1.06.03.04.04.08.04.12a.1.1 0 0 1-.04.09l-.01.01c-.03.02-.05.02-.07 0l-.14-.19ZM9.71 8.55a.2.2 0 0 1-.17-.06l-.01-.03c0-.05.03-.07.1-.08.07-.01.12-.01.16.02.03.02.04.05.03.09-.01.04-.05.06-.1.06ZM12.71 8.38c.03 0 .05.02.07.04 0 .05-.04.08-.1.09a.21.21 0 0 1-.14 0 .05.05 0 0 1-.03-.03v-.05l.08-.04a.32.32 0 0 1 .12-.01Z" fill="#FBF3E7"/><path d="M9.02 8.85c.22 0 .43-.05.62-.15a.14.14 0 0 0 .07-.1h.02l.01.03a.5.5 0 0 1-.37.31c-.09.03-.19.03-.3.03a.38.38 0 0 1-.12-.03.95.95 0 0 0-.13-.03v-.03h.03c.06 0 .12-.01.17-.03Z" fill="#FEE65D"/><path d="M5.93 8.69c0 .09-.02.18-.05.26l-.06.23-.06.37v.38l.07.4c.03.14.07.25.12.34.12.25.23.43.32.53.13.15.29.3.49.46.08.06.16.15.24.25a4.42 4.42 0 0 1-1.33-1.3c-.13-.2-.2-.4-.2-.63-.01-.29.03-.54.14-.76.07-.16.18-.33.32-.53ZM10.23 9.46c-.03.1-.1.17-.18.23a.34.34 0 0 0-.08.06.23.23 0 0 1-.05.05c-.23.13-.47.18-.71.16-.11-.01-.25-.04-.4-.08a1.02 1.02 0 0 1-.73-.72c.18.3.42.48.71.58.52.16 1 .07 1.44-.28Z" fill="#7948B5"/><path d="M7.78 9.2a7.22 7.22 0 0 1 .19.26c.17.18.37.33.6.44a.3.3 0 0 1 .06.05c.03.02.03.03-.01.03a1.11 1.11 0 0 1-.54-.27.91.91 0 0 1-.33-.5c-.02-.06 0-.06.03 0Z" fill="#15081C"/><path d="M11.66 9.42c.17.1.38.13.62.1.02 0 .03 0 .03.02.03.11.03.22.02.34 0 .01-.01.02-.03.02-.28-.09-.5-.24-.67-.44-.06-.07-.05-.08.03-.04Z" fill="#7948B5"/><path d="M9.4 10.07c.44-.07.82-.24 1.14-.5.07-.06.08-.05.03.02a.88.88 0 0 1-.24.24c-.14.1-.3.18-.44.23a.89.89 0 0 1-.48.07c-.11-.03-.11-.04 0-.06Z" fill="#15081C"/><path d="M7.33 9.62c-.43.12-.57.34-.43.67.03.07.08.13.13.18l.1.07c.07.07.13.11.18.14.45.24.86.41 1.24.51.26.07.53.11.82.14.56.04 1.06.05 1.5.04a6.15 6.15 0 0 0 1.12-.1.4.4 0 0 0-.09.11c0-.03-.02-.04-.03-.04a9.1 9.1 0 0 1-2.92.1l-.4-.08a3.68 3.68 0 0 1-1.58-.77.77.77 0 0 1-.25-.36c-.08-.23-.03-.41.16-.54.12-.09.27-.1.45-.07Z" fill="#7948B5"/><path d="m12.38 10.12.07.01c.01 0 .02.01.02.03 0 .04.02.07.05.11v.06l-.02.01a.3.3 0 0 1-.12.07l-.33.1-.2.06-.17.04-.28.07a6.86 6.86 0 0 1-2.1.03 1.71 1.71 0 0 0-.35-.01 4.83 4.83 0 0 0-.27-.08l-.69-.24c-.1-.03-.23-.08-.4-.16l-.11-.05-.02.01v.02a5.56 5.56 0 0 0 .8.39 5.34 5.34 0 0 0 2.9.35c.26-.03.47-.07.62-.12l.59-.17.06.01.07.02a.1.1 0 0 1 .03.1c0 .02-.02.05-.05.07a.57.57 0 0 1-.16.09 28.76 28.76 0 0 0-.84.17l-.2.02a125.95 125.95 0 0 0-1.6.03l-.38-.04h-.22l-.17-.01a1.8 1.8 0 0 0-.26-.02 5.18 5.18 0 0 1-1.17-.45 1.74 1.74 0 0 1-.4-.28.5.5 0 0 1-.12-.19.21.21 0 0 1 .02-.2c.16-.24.44-.27.84-.1l.77.37a3.7 3.7 0 0 0 1.05.3 5.8 5.8 0 0 0 2.74-.42Z" fill="#24DDF5"/><path d="M8.95 10.7h.35a6.03 6.03 0 0 0 1.29.06 10.23 10.23 0 0 0 1.09-.15l.16-.04.2-.06.34-.1a.3.3 0 0 0 .12-.07l.01-.01c.02-.02.02-.04 0-.06a.22.22 0 0 1-.04-.11c0-.02 0-.02-.02-.03l-.07-.01c.1-.02.18-.01.26.03l.02.02c.03.07.03.14 0 .21a.42.42 0 0 1-.2.13c-.3.1-.48.14-.52.15l-.52.13a6.33 6.33 0 0 1-2.47-.09Z" fill="#1DB6CF"/><path d="M8.65 11.1h.26c.07.02.12.02.16.02h.23l.38.04a19.63 19.63 0 0 1 1.6-.03c.05 0 .12 0 .2-.02a2 2 0 0 1 .12-.02l.13-.02.59-.13c.03 0 .08-.04.16-.1.03-.01.05-.04.05-.06a.1.1 0 0 0-.03-.1l-.07-.02h-.06a.67.67 0 0 1 .26-.02.2.2 0 0 1 .12.07c.01 0 .02.02.01.03 0 .08-.04.14-.12.18a1.65 1.65 0 0 1-.43.15 44.92 44.92 0 0 0-.68.14l-.23.02c-.75.04-1.5.03-2.24-.05a1.65 1.65 0 0 1-.41-.09Z" fill="#1DB6CF"/><path d="M7.02 12.13c-.03.02-.03.05 0 .09a5.5 5.5 0 0 1 .23.27c.03.03.06.06.07.09a.88.88 0 0 1-.46-.34.26.26 0 0 1-.02-.18l.01-.02h.02l.15.1ZM10.69 12.4v-.06h-.03a.74.74 0 0 1-.37.02l-.2-.04a.76.76 0 0 1-.18-.05 6.78 6.78 0 0 0 .99-.09.6.6 0 0 1-.21.22ZM6.8 12.32h-.04c-.01.01-.02.02-.01.03l.18.32a.87.87 0 0 1-.23-.16.47.47 0 0 1-.11-.2v-.03a.24.24 0 0 1 .07-.08.05.05 0 0 1 .04-.01c.02 0 .03 0 .03.02l.06.11Z" fill="#7948B5"/><path d="M11.23 12.4a1.71 1.71 0 0 1-.84.39l-.08.01a.5.5 0 0 1-.09.01c-.13 0-.25-.02-.38-.06.31-.02.6-.08.87-.2a1.26 1.26 0 0 0 .3-.28 4.1 4.1 0 0 1 .08-.08c.1.05.14.11.14.2ZM6.45 12.34v.02l-.01.01c-.1.07-.2.14-.25.2l-.14.13a.9.9 0 0 0-.14.14c-.22.28-.35.6-.4.97l-.08-.05c.01-.3.1-.57.24-.82.05-.08.13-.18.24-.3.12-.11.26-.2.42-.25l.04-.02a.2.2 0 0 1 .08-.03ZM11.6 12.44c0 .07-.03.13-.07.18-.01.02 0 .04.01.05-.02.01-.03.02-.03.04h-.03c-.04.1-.09.17-.15.22-.31.26-.6.43-.85.52-.2.07-.44.13-.75.17h-.32c.34-.07.67-.17.98-.31.3-.13.55-.3.76-.53.1-.11.17-.24.2-.39.01-.02.02-.02.04-.02l.21.07Z" fill="#7948B5"/><path d="m11.51 12.7.03-.03c.05 0 .1.03.15.06.12.09.2.17.25.25.05.1.07.21.05.33l-.02.02h-.02a.1.1 0 0 1-.03-.06.73.73 0 0 0-.23-.4 1.3 1.3 0 0 1-.18-.16ZM6.23 12.73h.02c0 .02 0 .04-.02.06-.12.13-.22.27-.3.43-.01.02-.03.03-.05.01v-.01c-.02-.04-.02-.07-.01-.09a1 1 0 0 1 .12-.23.56.56 0 0 1 .24-.17ZM6.87 13.05c.25.16.53.28.83.34a.1.1 0 0 1 .05.03v.02a1.57 1.57 0 0 1-1.26-.59v-.03h.02l.36.23Z" fill="#240E42"/><path fill-rule="evenodd" d="M9 14.65a5.65 5.65 0 1 0 0-11.3 5.65 5.65 0 0 0 0 11.3ZM9 15A6 6 0 1 0 9 3a6 6 0 0 0 0 12Z" fill="#15081C"/></svg>