<!-- by TradingView --><svg width="18" height="18" viewBox="0 0 18 18" xmlns="http://www.w3.org/2000/svg"><path fill="#F0F3FA" d="M0 0h18v18H0z"/><path d="M9 4a5 5 0 1 1 0 10A5 5 0 0 1 9 4Z" fill="#181B1E"/><path d="M7.95 9.3a8.2 8.2 0 0 0 1.68.1c-.65.05-1.12.04-1.74 0-.4.39.03.68.08 1.01.17-.01.26-.02.38.05 1.1-.02 1.92.07 2.9-.35l.02-.18c-.45-.18-.05-1.4-1.6-1.25-.44.05-1.45.26-1.38-.32h-.1s-1.02.32-.24.94Z" fill="silver"/><path d="M6.71 13.43c.18.18.92.46 1.21.44l.11-.02c-.14-.53-.02-.71-.02-.92 0-.12-.03-.13-.04-.3l-.47-.16v-2.12l.47.07c-.05-.33.04-.72-.09-1.02-.4-.06-.94-.14-1.26-.32-.03.33.04.3.04.57l-.03.6c0 .38.02.8 0 1.17l.02 1c.02.6-.13.68.06 1.01Z" fill="#F6F6F6"/><path d="M8.02 12.64h-.05c.01.16.04.17.04.29 0 .21-.12.4.02.92l-.14.02c.27.1.7.13 1.11.13.78 0 1.5-.15 2.2-.5.3-.28.12-.4.46-.55.02-.02-.44-.46-.46-.46-.25.02-.4.11-.72.17-.27.05-.51.08-.79.1-.66.06-1.04-.07-1.67-.12ZM9.4 10.85c.06.15.11 1.04 0 1.18-.3.35-.4 0-1.14.13a2.52 2.52 0 0 1-.15-1.29c.04-.12.31-.13.6-.13s.6.02.69.1Zm-1.43-.34.01.9c0 .15-.05.33-.04.5.02.34.1.17 0 .53l.2.04c.63.02 1.12.1 1.77.04.33-.03 1.27-.11 1.38-.35l.02-.28c-.27 0-.18.08-.5.1-.19-.29-.22-.9-.14-1.33.16-.1.4-.16.62-.24.05-.2.05-.1-.05-.16-1.6.43-1.02.28-3.27.25Z" fill="silver"/><path d="M8.29 8.36c-.03.24 0 .18-.13.32.6.1.98.1 1.5.05.56-.06.84.23.84.77-.01.28.78.34.75.62L12 9.7V8.63c-.3.13-.45.35-.9.44.34-.17.9-.48.91-.84a.42.42 0 0 0-.08-.25c-.07-.11-.12-.09-.2-.2-.09-.13-.02-.09-.15-.21l-.06.05c-.18.19-.29.29-.53.42-.24.12-.49.2-.79.26-.57.11-1.28.17-1.9.06Z" fill="#9A9A9A"/><path d="M6.71 13.44c-.04-.37-.04-.43-.05-1.02-.01-.4-.03-.64-.02-1v-1.17l.02-.6c0-.27-.07-.24-.03-.57-.14-.06-.2-.08-.32-.16-.1-.08-.2-.16-.31-.2V13c.23.14.26.2.71.44Z" fill="#C1C1C1"/><path d="M6.8 8.23c-.1.22-.2.49-.14.71.06.09.43.2.55.23.24.06.48.12.73.13l.16-.82c.21-.37-.02.2.09-.12-.48-.06-.82-.22-1.2-.31l-.2.18Z" fill="#F0F0F0"/><path d="M7.14 7.91c.27.24 1.33.36 1.8.36.54.01 1.54-.08 1.87-.36v-.08c-.09.04-.9.24-1.06.22v-.03l-.33.08c-.26.01-.66 0-.9-.06-.45-.13-.3-.27-.52-.62.08-.23-.2-.1-.17-.31l-.38.07c-.14.01-.2.08-.29.17-.18.22-.22.32-.02.56Z" fill="#EBEBEB"/><path d="M9 7.31c-.1-.1-.18-.15-.19-.3 0-.18.06-.18.17-.3l.36.01c.15.07.44.65-.35.6Zm-.62-.7c-.14-.61.6-.63.73-.35.19.37-.45.56-.73.35Zm-.07-.55c-.03.13-.03.02-.13.2l.01.25.18.4s.83 1.14 1.35.48c.3-.38-.52-1.1-.63-1.36L8.83 6c-.17 0-.24.02-.52.06Z" fill="#C6C6C6"/><path d="M7.14 7.91c-.2-.24-.16-.34.03-.56.08-.09.15-.15.29-.17l.31.05c-.02.22-.04.07-.12.3.2.34.42.38.87.51.24.07.64.08.9.07l.33-.08c-.56-.02-1.1.04-1.22-.46l-.07-.08-.02-.02-.09-.08c-.23-.19-.34-.2-.52-.44l-.05-.06a1 1 0 0 0-.63.29c-.2.17-.33.29-.27.64l.26.09Z" fill="#C1C1C1"/><path d="M11.2 12.5c-.04.13.07.48-.04.58l.11.04c.01.25-.05.18-.07.36.3-.13.56-.32.8-.47v-1l-.7.41c-.1.06-.03 0-.1.08Z" fill="#9A9A9A"/><path d="M9.75 8.05c.16.02.97-.18 1.06-.21v.08a.88.88 0 0 0 .46-.25c-.2-.69-1.17-1-1.6-.99l.13.23c.12.2 0 .11.25.17.18.05.51.13.6.24.29.36-.32.5-.55.59l-.16.05-.19.1Z" fill="silver"/><path d="M11.24 10.26c.1.07.1-.04.05.16.21-.08.2-.12.44-.12.04.3.02.63.02.96 0 .58-.2.36-.45.63l-.01.28c.24-.09.32-.11.5-.28.23-.17.2-.25.2-.57v-1.5l-.75.44Z" fill="#959595"/><path d="M11.35 7.56c.64-.84-1.22-1.28-1.96-1.3.13.28.13.23.47.3 1.12.22 1.26.66 1.47.97l.02.03Z" fill="#989898"/><path d="M7.94 12.44c.1-.36.03-.2 0-.52 0-.18.03-.36.04-.52v-.89l-.39-.04c.09.34.02 1.2.04 1.65 0 .28.03.27.3.32Z" fill="#F3F3F3"/><path d="m8.2 6.51-.02-.25c-.12.15-.1.01-.56.15-.28.09-.36.12-.6.24-.32.16-.73.51-.36.93 0-.01.01-.04.02-.03.02.06.03-.05.04-.06.58-.9 1-.64 1.47-.98Z" fill="#989898"/><path d="M6.66 8.94c0-.26.04-.49.14-.71a.79.79 0 0 1-.51-.38c-.13.07-.16.06-.21.24a.63.63 0 0 0 0 .42c.08.18.41.37.58.43Z" fill="#C1C1C1"/><path d="m7.78 6.88.05.06c.18.24.29.26.52.45a1.4 1.4 0 0 1 .1.1l.08.07c.03-.12.06-.17.1-.24l-.26-.41-.16-.19c-.16.03-.3.05-.43.16ZM6.29 7.85c.11.17.25.32.5.38.1-.07.11-.1.2-.19-.01 0-.02-.04-.03-.03l-.02-.03-.22-.16c-.1-.07-.14-.12-.24-.22l-.1.11-.09.14Z" fill="#9A9A9A"/><path d="M8.52 6.6c.24.04.38-.05.54-.14l-.04-.22c-.36-.08-.7.02-.5.37ZM9.43 7.13c0-.47-.42-.38-.5-.23-.07.13-.02.26.09.3.18.09.28-.02.4-.07Z" fill="#999"/></svg>