<!-- by TradingView --><svg width="18" height="18" viewBox="0 0 18 18" xmlns="http://www.w3.org/2000/svg"><path fill="#F0F3FA" d="M0 0h18v18H0z"/><path d="M15 8.72v.54a5.94 5.94 0 0 1-2.84 4.84 5.9 5.9 0 0 1-3.02.9H8.8a5.98 5.98 0 0 1-5.66-7.28 5.96 5.96 0 0 1 7.71-4.42A5.96 5.96 0 0 1 15 8.72Z"/><path d="M14.12 9.33a5.07 5.07 0 0 0-1.5-3.97l-.33-.31A5.6 5.6 0 0 0 9.6 3.9a5.15 5.15 0 0 0-5.74 5.34l-.49.3a.02.02 0 0 1-.01 0 .02.02 0 0 1-.01-.01 5.67 5.67 0 1 1 11.25.1l-.49-.3Z" fill="#F0F3FA"/><path d="M12.29 5.05a3.2 3.2 0 0 0-1.54.67h-.03a3.59 3.59 0 0 0-1-.28 4.97 4.97 0 0 0-2.37.26l-.06-.01c-.34-.26-.71-.45-1.11-.58-.19-.06-.35-.04-.48.07-.62.51-.91 1.4-.84 2.15v.06A4.5 4.5 0 0 0 4.27 9c0 .03-.02.04-.04.05l-.37.2c-.02-.6.01-1.08.11-1.44A5.2 5.2 0 0 1 9.61 3.9a5.6 5.6 0 0 1 2.68 1.15Z" fill="#FF9E49"/><path d="M12.34 5.51c.02-.14-.09-.19-.21-.15-.53.14-1.04.51-1.41.9a.09.09 0 0 1-.06.02c-.03 0-.04 0-.03-.03l.1-.2v-.03l-.03.01a4.1 4.1 0 0 1-1.2 1.1v.02h.03l.17-.06c.1-.04.1-.02.03.05a1.89 1.89 0 0 1-.7.34.1.1 0 0 1-.09-.1 2 2 0 0 1 .84-1.5c.09-.07.17-.14.24-.23.25.05.48.13.7.25a.12.12 0 0 0 .13-.02c.4-.31.83-.59 1.32-.7.17-.04.27.2.35.3v.01a.02.02 0 0 1-.01.03h-.17ZM7.3 5.88l.15.23a.08.08 0 0 1 .01.06.1.1 0 0 1-.03.06c-.03.02-.05.02-.07 0a4.1 4.1 0 0 0-1.13-.85c-.11-.05-.24-.07-.34-.02a.73.73 0 0 0-.34.38h-.09c-.02 0-.03-.02-.01-.04.09-.14.2-.28.33-.4.11-.12.24-.12.4-.07.42.16.79.38 1.11.65Z" fill="#F0F3FA"/><path d="M7.3 5.88c.3-.13.64-.22.99-.28-.31.32-.53.67-.64 1.05-.08.25-.09.53-.02.82.01.04.03.07.06.09.06.02.1.02.14-.03.22-.25.34-.53.51-.8.3-.43.65-.83 1.08-1.18l.6.1c-.07.09-.15.16-.24.23l-.26.2a2 2 0 0 0-.58 1.3.1.1 0 0 0 .08.1h.05c.29-.1.5-.21.66-.34.08-.07.07-.1-.03-.05l-.17.07-.03-.01v-.02c-.01 0 0 0 0 0a4.09 4.09 0 0 0 1.23-1.1v.02l-.1.2c0 .02 0 .03.03.03.02 0 .04 0 .06-.02.37-.39.88-.76 1.4-.9.13-.04.24.01.22.15-.22.04-.41.13-.58.27a.03.03 0 0 0 0 .06h.02l.13-.01h.02l.01.02v.02c-.26.1-.5.26-.7.5-.08.1-.06.12.05.09.13-.04.3-.05.5-.02-.01.05-.05.09-.12.11a.04.04 0 0 0-.03.04v.03c0 .02.02.03.04.04.09.02.16.01.21-.04.44.18.78.46 1.02.84.26.39.46.87.6 1.43-.5.18-1 .27-1.52.25-.07 0-.07.02-.01.05.27.17.69.2 1 .19v.05c0 .02-.02.03-.04.03l-.42.02c-.01 0-.03 0-.03-.02l-.04-.03a.07.07 0 0 0-.05-.02.52.52 0 0 1-.22-.04.1.1 0 0 0-.07 0c-.08.01-.13.06-.14.14a.07.07 0 0 1-.08.05.07.07 0 0 1-.04-.02l-.04-.05c-.01-.01-.03-.02-.05-.01-.05.02-.07.06-.06.12 0 .04-.02.07-.07.1a.96.96 0 0 0-.23-.64.8.8 0 0 0-1.38.3c-.07.24-.03.41 0 .65a2.81 2.81 0 0 0-2.48-.14.99.99 0 0 0-.23-.8c-.49-.55-1.27-.25-1.4.42l-.13-.04a.08.08 0 0 1-.04-.03c-.01-.02-.03-.02-.05-.02-.04.02-.05.05-.03.08v.02h-.02c-.01-.04-.03-.06-.07-.05-.05 0-.06-.02-.02-.06l.02-.02c.01-.03 0-.04-.03-.04l-.2.02c-.03 0-.04 0-.05-.02v-.05c.23-.03.41-.12.55-.28.03-.04.03-.05-.03-.04-.32.05-.65.04-1-.05-.03 0-.05-.03-.04-.07.07-.7.32-1.32.74-1.84a.94.94 0 0 1 .26-.21c.12-.07.2-.15.28-.24-.28-.1-.22-.13.2-.12a.03.03 0 0 0 .03-.05 1.3 1.3 0 0 0-.73-.64c.07-.17.18-.3.34-.38.1-.05.23-.03.34.02.41.21.8.5 1.13.85.02.02.04.02.06 0a.1.1 0 0 0 .04-.06.09.09 0 0 0-.01-.06l-.16-.23Z" fill="#FFCF72"/><path d="M12.61 5.36a5.07 5.07 0 0 1 1.5 3.97l-.37-.2a.07.07 0 0 1-.03-.05c-.04-.16-.05-.33-.1-.5a4.9 4.9 0 0 0-.46-1.03 5.05 5.05 0 0 0-.54-2.19Z" fill="#FF9E49"/><path d="M9.42 5.55a5.7 5.7 0 0 0-1.08 1.19c-.17.26-.29.54-.5.79-.05.05-.1.05-.15.03a.12.12 0 0 1-.06-.09c-.07-.3-.06-.57.02-.82.11-.38.33-.73.64-1.05.34-.07.72-.09 1.13-.05Z" fill="#F0F3FA"/><path d="M12.66 5.77c-.03.02-.05.02-.08-.02a.07.07 0 0 0-.05-.03 1.39 1.39 0 0 0-.4 0c-.02 0-.03 0-.02-.03 0-.01 0-.03.02-.04.13-.05.26-.07.4-.06.03 0 .04 0 .05.03l.08.15Z" fill="#E6DDC0"/><path d="M12.13 5.65a.12.12 0 0 0-.02.04c0 .02 0 .03.02.03.14-.02.27-.02.4 0 .02 0 .04.02.05.03.03.04.05.04.08.02l.02.04c-.05 0-.07.01-.07.03a3.32 3.32 0 0 1 .14.66l.01.02a.04.04 0 0 1 .03.04c0 .06.01.12.05.18v.06l-.07.05c-.02.02-.04.02-.06 0-.05-.05-.09-.09-.12-.15-.08-.18-.24-.2-.38-.3a.06.06 0 0 0-.05 0l-.1.03a.87.87 0 0 0-.65-.07c-.06.02-.07 0-.03-.04a1.54 1.54 0 0 1 .73-.44.03.03 0 0 0 .01-.03l-.01-.01A.2.2 0 0 0 12 5.8c-.1 0-.1-.03-.03-.09a.45.45 0 0 1 .16-.06ZM6 6.13a.9.9 0 0 1-.3.13.1.1 0 0 0-.04.03.6.6 0 0 1-.16.13c-.1.06-.2.13-.29.21-.02.02-.04.02-.06 0a.04.04 0 0 1 0-.05c.06-.11.05-.18-.04-.18.05-.2.14-.39.26-.57a.05.05 0 0 1 .05-.02c.21.04.4.14.59.32Z" fill="#FCAE79"/><path d="M12.68 5.81A5.43 5.43 0 0 1 13 7.36c0 .06-.01.06-.04.02a2.65 2.65 0 0 0-.44-.5c-.2-.18-.36-.28-.47-.3-.18-.03-.23-.01-.16.04-.05.05-.12.06-.21.04-.02 0-.04-.02-.04-.04v-.03c0-.02.01-.03.03-.04.07-.02.1-.06.12-.1.1-.01.19 0 .3.01l-.04-.03.11-.03a.06.06 0 0 1 .05 0c.14.1.3.12.38.3.03.06.08.1.12.15.02.02.04.02.06 0l.06-.05c.02-.02.02-.04.01-.06a.34.34 0 0 1-.05-.18.04.04 0 0 0-.03-.04l-.01-.02a3.33 3.33 0 0 0-.13-.67c-.01 0 0-.02.06-.02ZM6 6.13c.06.04.1.1.15.17.01.02 0 .03-.02.03a.7.7 0 0 0-.44.13c-.03.02-.03.04 0 .05l.03.01c.04.01.04.03 0 .05-.27.14-.5.35-.7.61 0 .02-.02.02-.02 0-.02-.26.01-.52.1-.78.1 0 .11.07.05.18v.05c.02.02.04.02.06 0 .09-.08.18-.15.29-.2a.6.6 0 0 0 .16-.14.1.1 0 0 1 .05-.03.9.9 0 0 0 .3-.13Z" fill="#F28D3D"/><path d="M6.05 6.55a.87.87 0 0 1-.28.24c-.1.05-.2.13-.26.2a3.45 3.45 0 0 0-.74 1.85c0 .04 0 .06.04.07.35.09.68.1 1 .05.06-.01.06 0 .03.04a.83.83 0 0 1-.55.28l-1.02-.04V9.2l.17-.1a.06.06 0 0 0 .03-.04c.05-.57.22-1.1.48-1.6.26-.48.62-.79 1.1-.92Z" fill="#FF9E49"/><path d="M7.92 8.46c.32-.03.56-.24.53-.46-.02-.22-.3-.37-.62-.33-.31.03-.55.24-.52.46.02.22.3.37.61.33ZM5.91 7.91c-.04.05-.05.1-.03.13.03.02.08 0 .12-.04.05-.04.06-.1.04-.12-.03-.03-.08-.01-.13.03ZM6.89 8.36c.16-.07.26-.22.21-.33-.05-.11-.22-.14-.39-.07s-.26.22-.21.33c.05.11.22.14.39.07ZM8.68 8.4a.12.12 0 1 0 0-.25.12.12 0 0 0 0 .24ZM9.1 8.74c.1.01.18-.04.2-.12 0-.08-.06-.15-.15-.16-.1-.02-.18.04-.2.12 0 .08.07.15.16.16ZM8.55 8.83c.05 0 .08-.04.08-.08s-.05-.06-.1-.06c-.04.01-.07.05-.07.08 0 .04.05.07.1.06Z" fill="#F0F3FA"/><path d="m13.51 8.9.05.25c0 .06.04.1.1.11-.02 0-.04 0-.06.02a.07.07 0 0 1-.04.02l-.58.08c-.31 0-.73-.02-1-.19-.06-.03-.06-.05.01-.05.52.02 1.03-.07 1.52-.25Z" fill="#FF9E49"/><path d="M10.74 9.47c.13.12.33.13.44.02.12-.12.1-.31-.02-.44-.13-.13-.32-.14-.44-.02-.12.11-.1.3.02.44ZM6.65 9.49c.13.12.33.13.45 0 .11-.11.1-.3-.03-.43s-.33-.13-.44-.01c-.12.11-.1.31.02.44Z" fill="#F0F3FA"/><path d="M4.27 9.2v.04c-.02.05-.01.1.03.14.04.03.04.05-.02.05-.07 0-.14 0-.2.02-.11.02-.12.06-.03.1a3.52 3.52 0 0 0 1 .42c0 .02.02.02.03 0a.19.19 0 0 1-.05.08l-.36.04a.18.18 0 0 0-.15.23c.01.04.04.08.07.1.25.23.52.33.8.33.04 0 .05.01.05.04v.02c0 .01 0 .02-.03.02l-.36-.01a.04.04 0 0 0-.04.03v.02c.06.14.15.25.26.33.02 0 .02.02.01.04s-.04.03-.08.02a1.6 1.6 0 0 1-.8-.28 1.31 1.31 0 0 1-.15-.4c0-.03 0-.04.03-.03a.5.5 0 0 0 .13.03c.16.01.16 0 .01-.07a3.41 3.41 0 0 0-.55-.15c-.05-.01-.06-.03 0-.05l.4-.17a.04.04 0 0 0 .03-.05v-.02l-.2-.22c-.03-.03-.03-.04.01-.03l.17.04a.01.01 0 0 0 .02-.02v-.01a.04.04 0 0 0-.02-.04 2.4 2.4 0 0 0-.67-.18c-.03 0-.03-.02 0-.03l.66-.37Z" fill="#F28D3D"/><path d="M5.3 9.28v.05c0 .02.01.02.03.02l.21-.02c.03 0 .04.01.03.04l-.02.02c-.04.04-.03.06.02.06.04 0 .06.01.07.04 0 .01 0 .02.01.01l.02-.01c-.03-.04-.02-.07.02-.09.02 0 .04 0 .05.02.01.02.03.03.05.03l.12.04c-.08.57.23 1.1.83 1.12-.2.27-.45.47-.75.58-.19.08-.42.07-.63.1l-.16-.03c.04 0 .07 0 .08-.02v-.04a.75.75 0 0 1-.26-.33.04.04 0 0 1 0-.03.04.04 0 0 1 .04-.02l.35.01c.02 0 .03 0 .03-.02v-.02c0-.03-.01-.04-.04-.04-.29 0-.55-.1-.8-.32a.22.22 0 0 1-.08-.11.18.18 0 0 1 .15-.23l.36-.04c-.15.38.24.63.55.46.5-.26-.04-.92-.5-.53h-.04a3.52 3.52 0 0 1-.99-.41c-.09-.06-.08-.1.02-.12a.92.92 0 0 1 .21-.02c.06 0 .06-.02.02-.05-.04-.04-.05-.09-.03-.14l1.03.04ZM13.66 9.26l.14.07a.52.52 0 0 1-.17.22c-.32.2-.71.35-1.19.47a.4.4 0 0 0-.37-.18.4.4 0 0 0-.27.11.33.33 0 0 0 .07.53c.28.15.66 0 .62-.35.11.02.22.03.34.02.2 0 .31.1.31.31a.68.68 0 0 1-.3.24c-.3.13-.66.12-1 .18-.08.02-.08.03 0 .05l.51.07c.1.01.12.05.03.1a.22.22 0 0 0-.1.15l-.06.02c-.44 0-.84-.11-1.19-.33-.14-.1-.25-.2-.33-.35.29.03.51-.06.68-.26.16-.18.24-.4.25-.64.05-.02.07-.05.07-.09-.01-.06.01-.1.06-.12l.05.01.04.05a.07.07 0 0 0 .12-.03c.01-.08.06-.13.14-.15a.1.1 0 0 1 .07 0c.06.04.14.05.22.05.02 0 .03 0 .05.02l.04.03.03.02.42-.02c.02 0 .03-.01.04-.03v-.05l.58-.08c.01 0 .03 0 .04-.02a.07.07 0 0 1 .06-.02Z" fill="#FFC463"/><path d="m13.8 9.33.57.3c.03.02.03.03 0 .04-.28.06-.55.16-.8.29-.01 0-.02.01 0 .03V10l.15-.03c.04 0 .05 0 .02.03a1.82 1.82 0 0 1-.25.17v.03a.04.04 0 0 0 .03.03l.14.04c.17.04.32.1.46.2.05.03.05.05-.01.06l-.79.16a.12.12 0 0 0-.05-.01v-.04l.15-.07c.04-.03.09-.03.13 0h.05a.43.43 0 0 1 .26-.09h.03v-.03c.01-.02 0-.03-.02-.03h-.04c-.02 0-.04 0-.05-.02-.04-.05-.09-.06-.14-.04a.12.12 0 0 1-.12-.02l-.09-.07c-.02-.03-.04-.02-.06 0-.04.07-.08.1-.14.1-.03 0-.05 0-.05.03-.01.04-.02.06-.04.06 0-.21-.1-.32-.31-.3-.12 0-.23 0-.34-.03l-.05-.11c.48-.12.87-.28 1.19-.47a.52.52 0 0 0 .17-.22Z" fill="#FF9E49"/><path d="M10.02 10.01c.13.32.36.51.68.58.08.14.2.26.33.35.35.22.75.33 1.2.33l-.53.42c-.72.5-1.55.73-2.44.74-.53.01-1.07-.01-1.6-.08a4.16 4.16 0 0 1-1.76-.6c-.11-.06-.2-.13-.27-.2a1.06 1.06 0 0 0-.28-.2c-.02-.02-.02-.03 0-.05v-.02c.22-.02.45-.01.64-.09.3-.11.55-.3.75-.58.42-.05.69-.3.8-.74.83-.34 1.66-.3 2.48.14ZM3.95 9.88c0 .1 0 .19.03.26l-.44.24c-.02 0-.04 0-.04-.02-.06-.22-.1-.44-.12-.66 0-.02 0-.03.03-.03.2.04.39.11.54.21Z" fill="#F0F3FA"/><path d="M9.02 9.97c-.16.22-.42.21-.6.01a.1.1 0 0 1 0-.14.1.1 0 0 1 .04-.03.96.96 0 0 1 .5 0 .1.1 0 0 1 .06.16Z"/><path d="M4.53 11.5a5.14 5.14 0 0 0 9.02-.15l.33-.66a.06.06 0 0 1 .04-.04l.38-.04.03-.01.02-.03a.06.06 0 0 0-.02-.06l-.37-.26c.08-.1.1-.2.08-.35.16-.07.34-.11.54-.12.03 0 .03.01.03.03a5.64 5.64 0 0 1-4.6 4.76 5.65 5.65 0 0 1-6.48-4.08c-.02-.04 0-.06.04-.05l.44.05c.04 0 .07.03.08.07.06.33.2.64.44.93Z" fill="#F0F3FA"/><path d="M8.97 9.87c0 .05-.02.1-.07.13a.31.31 0 0 1-.17.05H8.7a.31.31 0 0 1-.18-.05c-.04-.03-.07-.08-.07-.12h.51Z" fill="#FCAE79"/><path d="m3.95 9.88.16.17v.03l-.13.06a.78.78 0 0 1-.03-.26ZM14.04 9.9c.02.14 0 .26-.08.35l-.2-.07a.02.02 0 0 1-.02-.02.03.03 0 0 1 .01-.03l.29-.23Z" fill="#FF9E49"/><path d="M12.09 10.44c.17.01.31-.1.32-.23 0-.14-.12-.26-.3-.27-.16-.01-.3.1-.32.23 0 .14.13.26.3.27ZM5.38 10.46c.17 0 .3-.1.3-.25 0-.14-.13-.25-.3-.25-.17 0-.3.1-.3.25 0 .14.13.25.3.25ZM11.1 10.45a.76.76 0 0 1-.96-.36.04.04 0 0 1 .02-.04c.38-.17.77-.01.97.35v.02a.03.03 0 0 1-.02.03ZM7.03 10.4c.01.02 0 .04-.01.06a.17.17 0 0 1-.07.03c-.38.1-.67-.02-.87-.34-.02-.03-.01-.06.03-.07.4-.13.7-.02.92.31Z" fill="#FA7D76"/><path d="m13.32 10.69-.11.07-.02.02v.03h.01a2.78 2.78 0 0 1 .48-.1v.01l-.17.34-.28.07c-.3.07-.62.1-.95.12a.22.22 0 0 1 .1-.14c.09-.06.08-.1-.03-.1a8.98 8.98 0 0 1-.5-.08c-.09-.02-.09-.03 0-.05.33-.06.68-.05 1-.18.1-.04.2-.12.29-.24.02 0 .03-.02.04-.06 0-.02.02-.04.04-.03.07 0 .11-.03.15-.1.02-.02.04-.03.06 0l.09.07a.12.12 0 0 0 .12.02c.05-.02.1 0 .14.04l.05.02h.04c.02 0 .03.01.03.03l-.01.02-.03.01c-.1 0-.19.03-.26.09h-.05a.13.13 0 0 0-.13 0 8.43 8.43 0 0 1-.16.1c.03 0 .04 0 .06.02Z" fill="#F28D3D"/><path d="M9.46 10.64c-.2.2-.42.2-.66.03l-.04-.06c-.01-.02-.02-.02-.04 0l-.05.05c-.27.2-.51.17-.72-.07a.24.24 0 0 1-.06-.11c0-.04 0-.04.03-.02a.7.7 0 0 0 .25.17c.24.08.44-.07.54-.27a.03.03 0 0 1 .05 0c.14.36.51.39.75.12.02-.03.03-.03.03 0 0 .06-.03.11-.08.16Z"/><path d="M7.95 10.6c.2.23.45.26.72.06 0 .04 0 .08-.03.1-.18.18-.37.2-.6.06a.2.2 0 0 1-.09-.23ZM9.46 10.64c.02.03.01.05 0 .07a.06.06 0 0 0-.03.04c-.01.07-.05.11-.1.13-.19.08-.35.05-.5-.07-.03-.03-.05-.08-.03-.14.24.18.46.17.66-.03ZM4.4 10.98c.23.16.5.25.8.28l.16.02-.02.02.01.04c.1.06.2.13.28.21a4.16 4.16 0 0 0 2.03.8c.53.07 1.07.1 1.6.08a4.24 4.24 0 0 0 2.96-1.16l.06-.02a6.34 6.34 0 0 0 1.23-.2c-.34.52-.82.91-1.43 1.17-1.17.5-2.49.66-3.76.6-.8-.05-1.54-.21-2.24-.5-.67-.29-1.34-.69-1.68-1.34Z" fill="#E6DDC0"/><path d="M13.55 11.35A5.06 5.06 0 0 1 8.4 14.1a5.14 5.14 0 0 1-3.87-2.62c.27.25.5.43.72.55 1.17.63 2.41.93 3.72.9 1.01-.04 2-.13 2.96-.45.6-.2 1.14-.59 1.62-1.14Z" fill="#FF9E49"/></svg>