<!-- by TradingView --><svg width="18" height="18" viewBox="0 0 18 18" xmlns="http://www.w3.org/2000/svg"><path fill="#F0F3FA" d="M0 0h18v18H0z"/><path d="m13.05 13.47-.56-.65a.46.46 0 0 1-.11-.3v-.01h.01l.08.2a.03.03 0 0 0 .04.01l.01-.01c.12-.22.19-.32.2-.55l.01-.51c0-.15.03-.32.06-.53a.95.95 0 0 0-.17-.75 4.35 4.35 0 0 1-.24-.35h-.04c-.14.07-.29.1-.44.12-.15.02-.3.09-.48.2l-.5.34c-.28.19-.53.4-.69.7l-.16.3c-.05.09-.1.19-.14.3-.06.17-.16.35-.3.54-.04.06-.1.1-.16.14a1.91 1.91 0 0 0-.6.47v-.01c.1-.17.24-.3.4-.4.06-.04.05-.06-.01-.07-.11 0-.21 0-.28-.08a3.1 3.1 0 0 0-.34-.4.26.26 0 0 1-.05-.12l.02-.02c.06.09.14.16.22.23.08.08.13.15.18.23.04.06.12.08.2.09.04 0 .08.02.1.06.02.02.03.02.05.01a.45.45 0 0 0 .28-.3c0-.01 0-.03-.02-.03a.63.63 0 0 1-.42-.29.13.13 0 0 0-.1-.06l-.5-.03-.07.01a1.4 1.4 0 0 0-.28-.06 1.43 1.43 0 0 1-.64-.17c-.06-.03-.07-.02-.05.05l.09.25c.04.17.18.34.29.47.08.11.1.2.15.35.03.1.07.18.13.26a3.6 3.6 0 0 1 .15.29h-.03l-.2-.3a1.89 1.89 0 0 1-.16-.32 1.57 1.57 0 0 0-.24-.42l-.06-.08a.2.2 0 0 0-.17-.09h-.17a2.14 2.14 0 0 1-1.25-.61 8.76 8.76 0 0 0-.57-.28 15.4 15.4 0 0 1-.1-.03c.1-.02.2 0 .3.04.21.1.42.22.62.36.2.15.34.24.43.27.26.1.52.16.76.17.03 0 .04-.01.03-.04l-.07-.3a.09.09 0 0 0-.07-.08 2.2 2.2 0 0 1-.45-.12 3.44 3.44 0 0 1-.78-.54 3.33 3.33 0 0 1-.25-.38c0-.02 0-.02.01 0l.08.1.16.18.16.16.3.22c.2.14.42.23.65.28.08.02.24.07.46.16.12.05.25.08.38.09l1.09.05c.14 0 .32-.02.55-.07.12-.06.2-.12.23-.18.12-.27.28-.51.47-.72l.1-.1.1-.07.07-.05.26-.16.3-.2v-.03h-.04c-.22.08-.44.1-.65.07a1.66 1.66 0 0 0-.32-.02c-.1.01-.2.04-.31.09-.2.08-.44.1-.7.06l-.04-.01v-.03h.02l.34-.01c.22-.02.35-.1.54-.16.09-.03.2-.04.3-.02.19.01.31.03.46.01.25-.03.48-.1.69-.2h.05l.03.02h.06l.26-.06c.22-.04.33-.12.46-.3.27-.36.34-.75.22-1.17-.03-.1-.06-.1-.08 0a.75.75 0 0 1-.31.45c-.26.2-.53.25-.81.13l-.52-.21a1.7 1.7 0 0 0-.53 0 .96.96 0 0 0-.35.13c-.35.21-.56.34-.95.38-.33.02-.65-.04-.96-.18l-.11-.05a1.3 1.3 0 0 1-.33-.25.84.84 0 0 1-.16-.27 2.11 2.11 0 0 1-.1-.31.9.9 0 0 1 .05-.53c.06-.15.2-.28.3-.4h.04a.01.01 0 0 1 0 .02 1.5 1.5 0 0 0-.28.43.66.66 0 0 0-.04.33c-.01.4.16.7.54.88.29.15.55.23.78.25.3.02.59-.06.89-.23l.4-.22c.25-.11.5-.14.79-.08.46.1.74.44 1.19.18.37-.22.5-.55.37-.98-.12-.41-.29-.75-.5-1l-.04-.09h.01l.13.08a.16.16 0 0 0 .2-.14c0-.08-.04-.14-.12-.17a.88.88 0 0 1-.21-.15c.08 0 .16.01.24.05.07.04.12.1.14.17.04.12-.01.22-.14.3v.02l.01.02h.02l.11-.06c.1-.05.15-.16.12-.26a.53.53 0 0 0-.42-.38h-.02L12 6.37c-.06-.06-.1-.05-.11.03a.8.8 0 0 0-.02.33l.06.15-.01.01a.43.43 0 0 1-.1-.18c-.01-.03-.03-.04-.05-.03l-.1.02a.11.11 0 0 1-.1-.03l-.13-.14c-.04-.14-.05-.24-.04-.28.03-.13.12-.2.26-.22h.01v-.05l-.07-.07c-.02-.02-.05-.03-.08 0l-.13.07.01-.06.12-.07v-.01a.03.03 0 0 0 0-.04.79.79 0 0 0-.22-.2l-.03-.04c-.01-.02 0-.04.01-.05.1.03.18.08.24.15l.13.18c.05.05.09.1.1.18l.04.04a.4.4 0 0 1 .14.23.05.05 0 0 0 .03.03l.3.08a.6.6 0 0 1 .27.28c.11.22 0 .48-.25.5-.03 0-.03 0-.02.02.22.36.35.75.4 1.17 0 .1.08.12.1.22a1.37 1.37 0 0 1-.32 1.35v.01a.03.03 0 0 0 .02.02l.14.04c-.05.07-.03.16.06.28l.16.23c.1.19.13.38.1.6-.07.43-.1.74-.1.92a1 1 0 0 1-.04.37c-.06.14-.11.25-.17.34a.08.08 0 0 0 .01.1l.31.3a.05.05 0 0 0 .07 0 5.5 5.5 0 0 0 1.78-3.65A5.77 5.77 0 0 0 6.46 3.8a5.66 5.66 0 0 0-3.21 4.45 5.81 5.81 0 0 0 5.6 6.53c.06 0 .19.03.38.09h.09a.01.01 0 0 0 .01-.01L9 14.36a.02.02 0 0 1 0-.02l.04-.02.5.67-.69-.05a6 6 0 0 1-5.49-3.9 5.99 5.99 0 1 1 9.83 2.2.32.32 0 0 0-.07.11c-.02.06-.05.1-.08.1Z" fill="#030302"/><path d="M9.16 3.2c-.13.03-.31.1-.53.2a4.94 4.94 0 0 1-2.17.38 5.38 5.38 0 0 1 2.7-.58Z" fill="#956646"/><path d="M10.2 3.32a9.97 9.97 0 0 1-2.5 1.1 5.5 5.5 0 0 1-2.47.16c.4-.34.81-.6 1.23-.8a4.94 4.94 0 0 0 2.17-.38c.22-.1.4-.17.53-.2.33 0 .68.05 1.04.12Z" fill="#D5AC8A"/><path d="M10.2 3.32c.57.12 1.13.33 1.68.64l-1.82 1.07a1.61 1.61 0 0 0-.79-.16 3.12 3.12 0 0 0-.98.24c-.17.06-.35.01-.53.07a.83.83 0 0 0-.17.07c-.3.18-.56.42-.79.71-.07.1-.19.2-.29.21a5.5 5.5 0 0 1-.65.08c-.22 0-.4.04-.51.1a.6.6 0 0 0-.36.5 6.2 6.2 0 0 1-1.32-.14c.36-.84.88-1.55 1.56-2.13a5.5 5.5 0 0 0 2.48-.17 9.98 9.98 0 0 0 2.5-1.1Z" fill="#EED1B2"/><path d="M12.81 4.63c-.3.3-.6.57-.93.83-.12.1-.2.23-.24.4l-.13-.19a.54.54 0 0 0-.24-.15.33.33 0 0 0-.12 0c0-.06-.02-.08-.08-.08-.07 0-.15 0-.22-.02a.43.43 0 0 1-.2-.08c-.2-.14-.4-.24-.59-.3l1.81-1.08c.34.19.65.41.94.67Z" fill="#C99A76"/><path d="M12.81 4.63a5.77 5.77 0 0 1 1.95 5.05c-.31.21-.63.34-.97.38-.35.04-.75.03-1.2-.04l-.14-.04a.03.03 0 0 1-.02-.02v-.01l.01-.02c.34-.38.44-.82.31-1.33-.02-.1-.1-.13-.1-.22a2.6 2.6 0 0 0-.4-1.17c-.01-.02 0-.03.02-.03.26-.01.36-.27.25-.5a.6.6 0 0 0-.28-.27l-.29-.08a.05.05 0 0 1-.03-.03.4.4 0 0 0-.14-.23.08.08 0 0 1-.03-.04.35.35 0 0 0-.1-.18.72.72 0 0 1 .23-.39c.32-.26.63-.54.93-.83Z" fill="#D5AC8A"/><path d="M10.06 5.03c.2.07.4.17.6.31.06.05.12.08.19.08l.22.02c.06 0 .1.02.08.07h-.24a.48.48 0 0 1-.2-.06 4.8 4.8 0 0 0-.57-.28c-.2-.1-.42-.14-.64-.15a2.83 2.83 0 0 0-1.28.22l-.15.03a.05.05 0 0 0-.03.03.05.05 0 0 0 0 .05l.03.09a.03.03 0 0 1-.03.03.86.86 0 0 0-.5.07.1.1 0 0 0-.04.04c-.01.02-.03.03-.06.03-.02 0-.03 0-.05.02l-.19.2c-.02.01-.03 0-.03-.02v-.03c0-.03-.01-.04-.03-.04-.03 0-.08.04-.13.1l-.16.2a.57.57 0 0 1-.2.14 1.38 1.38 0 0 1-.45.12v.02h-.02l-.4.02c-.18 0-.3.03-.38.07-.07.03-.14.09-.23.16a.29.29 0 0 0-.1.25c.02.15.07.27.15.35.27.26.58.31.94.16l.31-.16c.03 0 .05 0 .06.03-.08.3-.2.6-.34.9-.1.21-.16.38-.18.49a1.8 1.8 0 0 0-.02.53l.06.26c.02.03.02.06.01.08 0 .01-.02.02-.04 0a.28.28 0 0 1-.1-.14c-.1-.49-.03-.92.22-1.3l.28-.63c.01-.03 0-.04-.02-.04s-.03.01-.05.03l-.5.11h-.24a.15.15 0 0 0-.06-.02.79.79 0 0 1-.56-.61.6.6 0 0 1 .36-.51c.12-.06.29-.1.5-.1.18 0 .4-.03.67-.08.1-.01.21-.11.28-.2.23-.3.5-.54.79-.72l.17-.07c.18-.06.36 0 .54-.07l.36-.13c.1-.04.3-.08.61-.11.21-.03.47.03.8.16Z" fill="#030302"/><path d="M11.15 5.51h.12c-.02.02-.02.04-.01.06l.03.03a.79.79 0 0 1 .23.22.03.03 0 0 1 0 .03h-.01l-.12.08c-.15-.18-.34-.3-.57-.35v.01l.52.33c.02 0 .02.02.02.05v.04c0 .02 0 .03.02 0V6l.13-.08c.03-.02.06-.01.09.01l.06.07.01.01v.02a.03.03 0 0 1-.02.02c-.14.02-.23.09-.26.22-.01.04 0 .14.04.28l-.01.06c-.05-.07-.12-.1-.2-.1h-.01a.03.03 0 0 0 0 .05c.13.03.2.1.2.2 0 .02 0 .03-.02.05a.46.46 0 0 0-.12.13c-.14.19-.28.33-.43.42-.38.24-.89.18-1.33.13l-.29.04a36.33 36.33 0 0 1 1.25.03l-.84.04c-.2.01-.49.16-.7.2a26.07 26.07 0 0 1-.89.17.06.06 0 0 1-.02-.03c-.04-.1-.06-.17-.06-.21-.02-.09-.04-.1-.07-.01-.08.18-.2.36-.35.53a.66.66 0 0 1 .04-.33 1.5 1.5 0 0 1 .29-.43.01.01 0 0 0 0-.01l-.03-.01h-.01c-.11.12-.25.25-.3.4a.9.9 0 0 0-.06.53c.01.06.04.16.1.3.04.12.1.2.16.28.1.1.2.18.33.25-.1.18-.24.23-.42.15-.2-.1-.33-.15-.4-.17-.03 0-.03 0-.03.02 0 .23.1.43.3.6.25.2.44.34.6.42.16.09.37.14.62.17.06 0 .15.02.28.06.1.03.2.04.29.03.26.04.48.02.69-.06.1-.05.21-.08.3-.1l.33.03c.21.03.43 0 .65-.08l.04.01a.02.02 0 0 1 0 .02v.01l-.3.2c-.46.1-.92.17-1.39.23-.2.03-.4.04-.59.02-.23-.01-.51-.1-.78-.14a7.35 7.35 0 0 0-.27-.04v.02a.01.01 0 0 0 0 .01c.36.04.58.12.88.28.1.06.26.09.34.06a5 5 0 0 1 1.55-.28l-.08.05c-.3 0-.57.02-.8.07a1.8 1.8 0 0 0-.71.34.37.37 0 0 0-.15-.04c-.02 0-.02 0 0 .01l.18.1a4.62 4.62 0 0 1-1.7-.3 3.2 3.2 0 0 1-.42-.21c-.03-.02-.04-.02-.02 0l.03.06v.05l-.04.04a.97.97 0 0 1-.31-.25 7.53 7.53 0 0 0-.29-.3h-.02c-.01 0-.02.01-.01.02l.12.18c.03.05.08.1.14.14l.14.11.13.1c.29.2.64.35 1.05.45.17.04.34.05.49.02.17-.1.36-.13.56-.06.13.04.26.11.4.21-.17-.04-.5-.14-.66-.07-.1.05-.2.18-.32.23a.57.57 0 0 1-.16.05c-.18 0-.36.02-.54.05a3.37 3.37 0 0 0-.46-.16 1.81 1.81 0 0 1-.65-.28l-.3-.22-.16-.16-.16-.17-.08-.12v.03c.13.22.21.34.24.36.23.22.5.4.78.54.07.03.22.08.45.12.04.01.06.03.07.07l.07.3c.01.04 0 .05-.03.05-.24 0-.5-.07-.76-.17a2.48 2.48 0 0 1-.43-.27c-.2-.14-.4-.26-.63-.36a.5.5 0 0 0-.3-.04 15.3 15.3 0 0 0 .2.07l.49.23-.07.25a.1.1 0 0 1-.03.04c-.03.03-.04.05-.04.07 0 .05.02.09.05.12.03.03.07.05.1.05h.33c.02 0 .04.02.05.03l.33.33v.01l.01.01-.02.19.07.05a.1.1 0 0 1 .07.16.88.88 0 0 0-.13.35v.01l.02.01a.02.02 0 0 0 .02 0v-.01c.07-.21.15-.41.27-.6l.15-.15c.07-.06.1-.04.1.05 0 .07.01.16-.01.24-.04.1-.06.2-.07.3l.02.02h.06c.13.14.27.34.47.43.07.04.06.05-.01.05-.15 0-.34 0-.57.02a1 1 0 0 1-.51-.06 2.1 2.1 0 0 1-.83-.63 3.78 3.78 0 0 0-.36-.39c-.24-.22-.38-.49-.5-.79a.9.9 0 0 1 0-.5l-.01-.04a.9.9 0 0 1-.26-.55c0-.15 0-.32.04-.53.02-.12.07-.27.16-.47l.17-.46c.04-.14.07-.14.08 0a3.71 3.71 0 0 0 .2 1.04c.09.13.1.12.05-.02a2.8 2.8 0 0 1-.07-1.59c.03-.14.05-.3.1-.46a.32.32 0 0 0 0-.16.72.72 0 0 1 .08-.5l.24.01c.07 0 .13 0 .18.02.02 0 .02.02.01.04-.1.21-.19.45-.27.7-.05.14-.13.25-.16.39-.08.3-.1.62-.08.93 0 .18.05.35.11.5.03.07.06.13.1.17a.01.01 0 0 0 .02-.02l-.1-.26-.07-.39c-.02-.17 0-.45.07-.84.02-.1.06-.2.13-.34l.14-.34c0-.04.06-.07.13-.1.02 0 .05.02.08.06-.25.39-.32.82-.21 1.3 0 .06.04.1.1.15 0 .02.02.01.03 0v-.08c.05-.09.09-.15.1-.2.05-.5.2-.99.44-1.44.1-.2.1-.38-.04-.55a.07.07 0 0 0-.04-.03h-.05c-.1.07-.2.12-.3.17-.37.15-.68.1-.95-.16a.53.53 0 0 1-.14-.35c-.01-.1.02-.18.1-.25s.15-.13.22-.16c.08-.04.2-.06.39-.07a27.74 27.74 0 0 1 .42-.04c.15-.02.3-.06.44-.12.1-.04.16-.1.2-.14l.16-.2c.05-.06.1-.1.13-.1.02 0 .03.01.03.04v.03c0 .03.01.03.03.01l.2-.19a.07.07 0 0 1 .04-.02c.03 0 .05-.01.06-.03a.1.1 0 0 1 .04-.04.86.86 0 0 1 .5-.08.03.03 0 0 0 .03-.02l-.03-.09a.05.05 0 0 1 0-.07h.03l.15-.04.15-.05c.32-.12.7-.18 1.13-.17.22.01.44.06.64.15l.56.28c.06.04.13.06.21.06h.24Z" fill="#A69896"/><path d="M11.4 5.93a.06.06 0 0 0-.01.06v.03c-.02.02-.03.01-.04-.01v-.09l-.53-.33v-.01c.23.06.42.17.57.35Z" fill="#8C817E"/><path d="M11.07 6.15a.45.45 0 0 1-.25-.1.07.07 0 0 0-.05-.03h-.05c-.4-.2-.84-.27-1.3-.2-.27.03-.46.1-.59.22a.9.9 0 0 1-.31.22l.35-.3c.13-.09.27-.15.43-.19.4-.08.75-.07 1.08.03.18.06.41.17.7.35Z" fill="#5B3A29"/><path d="M11.07 6.15c-.22.1-.42.13-.6.1a6.29 6.29 0 0 0-.76-.07c-.37 0-.63.06-.93.2-.16.08-.42.1-.57.19-.1.06-.2.16-.29.31a.43.43 0 0 0 .09-.24c0-.19 0-.35-.04-.48l.13.18c0 .02.02.02.04.02l.38-.1a.9.9 0 0 0 .31-.22c.13-.11.32-.19.6-.22.45-.07.88 0 1.3.2h.04c.02 0 .04 0 .05.02.06.06.15.1.25.11Z" fill="#8C817E"/><path d="M7.97 6.16c.03.13.05.3.04.48 0 .1-.04.17-.09.24-.2.23-.6.22-.73-.08-.03-.08-.02-.1.05-.03.04.04.09.12.16.15.14.06.27.05.38-.03.15-.12.14-.3.14-.49 0-.22-.14-.5-.39-.5a.41.41 0 0 0-.24.11c-.04.03-.05.02-.04-.03l.05-.07a.17.17 0 0 1 .07-.04c.28-.08.48.02.6.29Z" fill="#5B3A29"/><path d="M7.58 6.82a.26.26 0 0 1-.22-.07.4.4 0 0 1-.12-.23.4.4 0 0 1 .04-.25c.04-.08.1-.12.18-.14.07-.01.15.01.21.07.07.05.11.14.13.23a.4.4 0 0 1-.04.26.26.26 0 0 1-.18.13Z" fill="#030302"/><path d="M11.66 6.31c.02.06.08.1.14.08.05-.02.07-.09.05-.15-.02-.06-.08-.1-.14-.08-.05.02-.07.09-.05.15Z" fill="#A69896"/><path d="M6.42 6.72c-.1-.17-.29-.19-.5-.23a.15.15 0 0 1 0-.07.03.03 0 0 1 .01-.03l.63-.14c.03 0 .05 0 .07.02l.16.16v.03a.4.4 0 0 1-.37.26Z" fill="#EED1B2"/><path d="M7.57 6.44c.05.03.12.02.15-.02s.02-.1-.03-.14c-.05-.04-.12-.03-.15.01-.03.05-.02.11.03.15Z" fill="#A69896"/><path d="M11.57 6.46a.07.07 0 1 0 0-.14.07.07 0 0 0 0 .14Z" fill="#C7A4A0"/><path d="M8.23 6.92c.12-.08.27-.15.43-.23.04-.01.1-.07.21-.17a.43.43 0 0 1 .2-.1 2.9 2.9 0 0 0 .33-.08l.01.01v.02a.05.05 0 0 1 0 .03v.01l-.02.01-.35.09a.53.53 0 0 0-.24.18c-.08.09-.23.18-.45.27a1.5 1.5 0 0 1-.22.12c-.02.02-.03 0-.03-.01 0-.04.03-.09.07-.14 0-.02.02-.02.03-.02a3.36 3.36 0 0 1 .03 0Z" fill="#5B3A29"/><path d="M11.97 6.57c-.07.03-.11.09-.11.17a.8.8 0 0 1 .02-.33c.01-.08.05-.09.11-.03l.04.04h.01c.22.05.36.18.43.39.03.1-.02.21-.12.26l-.11.06h-.02l-.01-.02V7.1c.13-.09.18-.19.14-.3a.27.27 0 0 0-.14-.18.47.47 0 0 0-.24-.05Z" fill="#C7A4A0"/><path d="M11.68 6.46c0 .03 0 .06.02.07.02.01.05 0 .06-.03.02-.02 0-.05-.01-.06-.03-.01-.05 0-.07.02ZM7.42 6.58c.04.02.08.01.1-.02.02-.04 0-.08-.04-.1-.04-.02-.09 0-.1.03-.02.03 0 .07.04.1Z" fill="#A69896"/><path d="M5.92 6.49c.21.04.4.06.5.23.04.06.05.11.04.17l-.03.04c-.15.1-.28.18-.41.24-.16.07-.47.11-.57-.07-.02-.03 0-.04.02-.02.15.09.31.1.48.04.15-.05.29-.12.41-.2a.07.07 0 0 0 .03-.1.38.38 0 0 0-.18-.17 1.2 1.2 0 0 0-.65-.1c-.04 0-.04-.01 0-.03a.25.25 0 0 0 .05-.04h.31ZM11.42 6.6c.08.15.04.31-.15.33.03-.05.07-.1.12-.13a.05.05 0 0 0 .02-.05c0-.1-.07-.17-.2-.2V6.5l.02-.01c.07 0 .14.03.19.1Z" fill="#030302"/><path d="m11.9 6.9.06.05.04.08c.21.26.38.6.5 1 .13.44 0 .77-.38.99-.44.26-.72-.08-1.18-.18a1.24 1.24 0 0 0-.78.08c-.06.02-.2.1-.41.22-.3.17-.6.25-.89.23a2.1 2.1 0 0 1-.78-.25c-.38-.19-.55-.48-.54-.88.15-.17.27-.35.35-.53.03-.08.05-.08.07 0 0 .05.02.13.06.22a.06.06 0 0 0 .06.04l.85-.18c.21-.04.5-.19.7-.2a66.98 66.98 0 0 1 .84-.05 36.31 36.31 0 0 0-1.25-.02l.3-.04c.43.05.94.1 1.32-.13.15-.1.3-.23.43-.42.2-.02.22-.18.15-.33l.01-.06.12.14a.11.11 0 0 0 .11.03l.1-.02c.02 0 .04 0 .04.03.02.07.06.13.1.18Z" fill="#8C817E"/><path d="M7.62 6.63c.03 0 .05-.03.04-.05 0-.02-.03-.03-.05-.02-.03 0-.05.02-.05.04s.03.03.06.03Z" fill="#838383"/><path d="M11.97 6.57c.07.07.14.11.21.15.08.03.12.1.11.17a.16.16 0 0 1-.19.14.45.45 0 0 1-.13-.09l-.05-.05c0-.05-.03-.1-.06-.15 0-.08.04-.14.1-.17Z" fill="#A69896"/><path d="M4.99 6.86c.06.3.24.5.55.61l-.33.84h-.7c-.31.02-.73 0-1.26-.07.06-.5.2-1.01.42-1.53.44.1.88.15 1.32.15Z" fill="#C99A76"/><path d="m6.05 9.38-.07-.26c.06-.3.14-.6.24-.9.09-.24.28-.42.32-.66a.82.82 0 0 0 0-.36c-.02-.02-.04-.04-.07-.03l.05-.01c.02 0 .03.01.04.03.13.17.14.36.04.55-.25.45-.4.93-.45 1.45 0 .04-.04.1-.1.19Z" fill="#8C817E"/><path d="M5.98 9.12a1.8 1.8 0 0 1 .03-.53c.02-.11.08-.28.18-.5.14-.3.26-.59.34-.89.03.12.04.24.01.36-.04.24-.23.42-.32.66-.1.3-.18.6-.24.9Z" fill="#7B7474"/><path d="M6.14 8.01c-.03-.04-.06-.06-.08-.06l.29-.57c.01-.02.03-.03.05-.03.02 0 .03.01.02.04L6.14 8Z" fill="#C7A4A0"/><path d="m6.35 7.38-.29.57c-.08.03-.12.06-.14.1l-.13.34c-.07.13-.11.25-.13.34-.07.39-.09.67-.07.84a1.98 1.98 0 0 0 .17.66h-.01a.45.45 0 0 1-.11-.15c-.07-.16-.1-.33-.11-.51-.02-.31 0-.62.07-.93.04-.14.12-.25.17-.39.08-.25.18-.49.27-.7l-.01-.04a.33.33 0 0 0-.18-.02l.5-.1Z" fill="#5B3A29"/><path d="M6.97 7.37c.09.02.17.03.25.01.53.2.15.6.1.94-.02.17-.04.4-.14.6a.58.58 0 0 0-.09.26c.01.27.12.51.32.71a3.7 3.7 0 0 1 .24.28c-.36-.1-.69-.26-.84-.58a1.04 1.04 0 0 0-.21-.3c-.21-.2-.18-.7-.12-.92.1-.33.26-.66.49-1Z" fill="#C7A4A0"/><path d="M5.61 7.48a.72.72 0 0 0-.08.5v.16c-.05.16-.07.32-.1.46a2.8 2.8 0 0 0 .07 1.59c.06.14.04.15-.05.02a3.71 3.71 0 0 1-.2-1.03c-.01-.15-.04-.15-.08-.01-.05.16-.1.32-.17.46a2.02 2.02 0 0 0-.2 1c.02.21.1.4.26.55.01.02.02.03.01.05a.9.9 0 0 0 0 .5c.04.31.18.6.43.87a25.3 25.3 0 0 0 1.04 1.08c.3.28.5.44.56.47.4.21.81.25 1.25.13a.12.12 0 0 0 .1-.12 1 1 0 0 0-.06-.32c-.03-.07-.02-.23.02-.46.02-.04.04-.1.04-.18a.03.03 0 0 1 .03-.03h.02c.02 0 .03 0 .03.03 0 .11-.02.22-.04.33-.02.09-.02.2 0 .32.02.18.06.36.12.53.05.14.17.23.3.27.13.04.24.1.32.21-.2-.06-.32-.09-.38-.09a5.86 5.86 0 0 1-4.86-2.88l.96-.03a.05.05 0 0 0 .04-.02.05.05 0 0 0 0-.04.78.78 0 0 1-.01-.42l.02-.1c0-.03 0-.04-.02-.05-.13-.09-.22-.25-.27-.47a1.3 1.3 0 0 1 0-.67l.2-.53c.07-.17.12-.31.14-.42l.05-.46c0-.05.04-.17.1-.37l.34-.84.07.01Z" fill="#5B3A29"/><path d="M5.2 8.3a2.62 2.62 0 0 0-.15.84c-.02.11-.07.25-.14.42l-.2.53c-.05.21-.06.43 0 .67.05.22.14.38.27.47.02 0 .02.02.02.05l-.02.1a.78.78 0 0 0 .02.42.05.05 0 0 1-.03.05h-.02L4 11.9l-.16-.27a5.81 5.81 0 0 1-.58-3.38c.53.07.95.1 1.26.08.34-.02.57-.02.7-.01Z" fill="#D5AC8A"/><path d="M9.61 10.45h-.22c-.07-.03-.1-.06-.11-.1-.01-.02 0-.05.05-.09.24-.22.46-.38.4-.72a.04.04 0 0 0-.04-.04c-.1-.03-.19 0-.25.07a.07.07 0 0 1-.05.03c-.24.03-.33-.02-.26-.15.39-.04.6-.17.95-.38a.96.96 0 0 1 .35-.13c.18-.03.36-.03.53 0l.16.36v.02a.04.04 0 0 1-.03.04l-.77.18a.06.06 0 0 0-.04.03.14.14 0 0 0 0 .13 9.89 9.89 0 0 1 .52.15c.2.06.36.09.48.09.52 0 1.17-.28 1-.92a.75.75 0 0 0 .32-.45c.02-.1.05-.1.08 0 .12.42.05.8-.22 1.17-.13.18-.24.26-.45.3l-.27.07-.05-.01-.04-.02a.05.05 0 0 0-.05 0c-.21.1-.44.17-.69.2-.14.02-.27 0-.45-.01a.78.78 0 0 0-.31.02c-.19.06-.32.14-.54.16Z" fill="#A69896"/><path d="m10.96 8.94.52.2c.28.13.55.08.8-.12.17.64-.48.91-1 .92-.12 0-.28-.03-.48-.09a9.9 9.9 0 0 0-.52-.15.14.14 0 0 1 0-.13.05.05 0 0 1 .04-.03l.77-.18a.04.04 0 0 0 .03-.02.04.04 0 0 0 0-.04l-.16-.36Z" fill="#7B7474"/><path d="m6.52 9.66.15.2c.1.14.23.27.38.36l.44.31c.04.03.07.08.07.13L7 10.29h-.05c-.02.02-.02.03 0 .05l.3.24a.47.47 0 0 1-.22-.08.29.29 0 0 1-.14-.19.06.06 0 0 0-.03-.04.8.8 0 0 1-.26-.32l-.25-.55a.4.4 0 0 1-.03-.28.01.01 0 0 1 .02 0h.02c0 .06 0 .13.02.18l.14.36Z" fill="#5B3A29"/><path d="m8.06 9.22.1.05.4.4a.04.04 0 0 1-.03.08l-.56.05a.08.08 0 0 0-.05.12c.15.2.3.26.55.34a4.01 4.01 0 0 1 .52.18.05.05 0 0 1 .05-.01c.11.02.23.03.35.01h.22a7.02 7.02 0 0 1-.37.04h.01l.05.02c-.1 0-.2 0-.29-.03a1.91 1.91 0 0 0-.28-.06 1.67 1.67 0 0 1-.62-.17 3.76 3.76 0 0 1-.6-.42.79.79 0 0 1-.3-.6c0-.02 0-.02.02-.02.08.02.22.08.41.17.18.08.32.03.42-.15Z" fill="#8C817E"/><path d="M9.13 9.45c-.07.13.02.18.26.15.02 0 .04-.02.05-.03.06-.08.14-.1.25-.07.02 0 .03.02.03.04.07.34-.15.5-.4.72-.04.04-.05.07-.05.1.01.03.05.06.12.08-.12.02-.24.01-.35-.01h-.05a4.01 4.01 0 0 0-.52-.17c-.25-.08-.4-.14-.55-.34a.07.07 0 0 1 .05-.12l.56-.05a.04.04 0 0 0 .03-.05v-.02l-.4-.4c.32.13.64.19.97.17Z" fill="#7B7474"/><path d="M7.9 10.56a5.33 5.33 0 0 1-1.23-.7l-.15-.2 1.38.9Z" fill="#8C817E"/><path d="M14.76 9.68a6.15 6.15 0 0 1-1.12 2.77 5.5 5.5 0 0 1-.69.73l-.03-.01-.3-.3a.08.08 0 0 1-.02-.11l.17-.34a1 1 0 0 0 .04-.37c0-.18.03-.5.1-.93.03-.2 0-.4-.1-.6 0-.01-.06-.1-.16-.22s-.11-.21-.06-.28c.45.07.85.08 1.2.04.34-.04.66-.17.97-.38Z" fill="#5B3A29"/><path d="m7.9 10.56.62.36c.02.01.02.03 0 .04l-.05.04v-.05s0-.02-.03-.02c-.31-.06-.6-.15-.88-.27 0-.05-.02-.1-.07-.13l-.44-.3a1.5 1.5 0 0 1-.38-.38c.38.3.79.53 1.23.71Z" fill="#7B7474"/><path d="M13.05 13.47A6.17 6.17 0 0 1 9.54 15l-.48-.67h-.01l-.03.02a.02.02 0 0 0-.01 0v.02l.32.47a.01.01 0 0 1 0 .02H9.22a.67.67 0 0 0-.32-.21c-.13-.04-.25-.13-.3-.27-.06-.17-.1-.35-.12-.53a1.13 1.13 0 0 1 0-.32l.04-.33c0-.02 0-.03-.03-.03h-.02a.03.03 0 0 0-.03.03c0 .08-.02.14-.04.18h-.04l-.15-.28c-.06-.08-.1-.17-.13-.26-.05-.14-.07-.24-.15-.35-.1-.13-.25-.3-.3-.47a2.63 2.63 0 0 0-.08-.25c-.02-.07 0-.08.06-.05a1.43 1.43 0 0 0 .63.17c.1.01.2.03.28.06l.06.1c.01.06.03.1.05.11.12.12.23.26.34.4.07.1.17.09.28.1.06 0 .07.02.01.05-.16.1-.3.24-.4.4v.02h.01c.16-.2.36-.35.6-.47a.43.43 0 0 0 .15-.14c.14-.2.24-.37.3-.54l.14-.3.16-.3c.16-.3.4-.51.7-.7l.49-.33c.17-.12.33-.2.48-.2.15-.02.3-.06.44-.12a.05.05 0 0 1 .07.02l.2.32c.18.24.23.49.18.75l-.06.53-.01.5c-.01.24-.08.34-.2.56a.03.03 0 0 1-.02.01h-.02v-.01l-.09-.2h-.01c0 .11.03.21.11.3.18.23.37.44.56.66Z" fill="#D4B09C"/><path d="M11.79 10.33a.52.52 0 0 1-.13.01c-.03 0-.03 0 0-.02.23-.1.48-.11.74-.06l.02.02.02.02v.02a.02.02 0 0 1 0 .02.03.03 0 0 1-.03.01c-.2-.06-.41-.06-.62-.02ZM7.04 10.86c.3.17.63.3.97.38l.23.03a.8.8 0 0 1 .23.06A1.1 1.1 0 0 1 8 11.3a3.17 3.17 0 0 1-1.18-.55l-.14-.12a.6.6 0 0 1-.14-.13 6.97 6.97 0 0 1-.11-.2h.03l.28.3c.08.1.19.19.3.25ZM5.27 10.46c.07.16.14.28.21.37a2.37 2.37 0 0 0 .52.46v.03H6a1.43 1.43 0 0 1-.75-.86v-.01h.03Z" fill="#030302"/><path d="m11.01 10.53-.26.16a5 5 0 0 0-1.55.28c-.08.03-.25 0-.34-.06a1.97 1.97 0 0 0-.89-.28v-.03l.28.04c.27.03.55.13.78.14.18.02.38.01.59-.02.47-.06.93-.13 1.4-.23Z" fill="#8C817E"/><path d="M9.19 11.22a2.2 2.2 0 0 0 .77.08.03.03 0 0 0 .01-.02v-.02l-.01-.01a.02.02 0 0 0-.02-.01l-.51-.04c.32-.24.67-.34 1.05-.3-.2.22-.35.46-.47.73-.03.06-.1.12-.23.18a.5.5 0 0 0-.34-.33c-.14-.1-.27-.17-.4-.21a.65.65 0 0 0-.56.06.81.81 0 0 0-.24-.06l-.23-.03a4.18 4.18 0 0 1-.97-.38l.03-.04c.02-.02.02-.03.01-.05l-.03-.05c-.02-.03-.01-.03.02-.01a4.62 4.62 0 0 0 2.12.51Z" fill="#8C817E"/><path d="m10.67 10.74-.08.08a1.8 1.8 0 0 0-1.33.35l-.1-.02c.23-.18.47-.29.7-.34.24-.05.5-.07.81-.07Z" fill="#8C817E"/><path d="m10.59 10.82-.1.09c-.4-.05-.74.05-1.06.3l-.17-.04c.38-.29.82-.4 1.33-.35Z" fill="#7B7474"/><path d="m9.16 11.15.1.02.17.03.51.04a.02.02 0 0 1 .02 0v.02a.03.03 0 0 1 .01.03v.01h-.02a2.2 2.2 0 0 1-.76-.08l-.18-.1c-.02-.01-.02-.02 0-.01.05 0 .1.01.15.04Z" fill="#030302"/><path d="M9.44 11.48a.5.5 0 0 1 .34.33c-.23.05-.4.08-.55.07-.36 0-.73-.03-1.09-.05a1.4 1.4 0 0 1-.38-.09c.18-.03.36-.05.54-.05l.16-.05c.12-.05.22-.18.32-.23.16-.07.49.03.66.07Z" fill="#C7A4A0"/><path d="M8.37 13.37h.04c-.04.24-.05.4-.02.47a1 1 0 0 1 .05.32.12.12 0 0 1-.09.12c-.44.12-.86.08-1.25-.13a4.96 4.96 0 0 1-.86-.75c-.1-.1-.35-.36-.74-.8a1.57 1.57 0 0 1-.43-.88c.12.3.25.57.5.8.11.1.23.23.36.38.24.3.5.5.83.63a1 1 0 0 0 .5.06c.24-.02.43-.03.58-.02.07 0 .08-.01 0-.05-.2-.09-.33-.29-.46-.43h-.06c-.01 0-.02-.01-.02-.03 0-.1.03-.2.06-.3.03-.07.02-.16.02-.23 0-.1-.03-.1-.1-.05l-.15.15a.53.53 0 0 1 .1-.21v-.04c-.03-.03-.06-.03-.1-.01a.8.8 0 0 0-.32.29l.02-.19v-.02l-.34-.33a.08.08 0 0 0-.06-.02l-.31-.01a.15.15 0 0 1-.11-.05.18.18 0 0 1-.05-.12c0-.02.01-.04.04-.07a.1.1 0 0 0 .03-.04l.06-.25a2.14 2.14 0 0 0 1.42.62.2.2 0 0 1 .17.1l.06.07c.1.13.18.27.24.42a1.9 1.9 0 0 0 .36.62h.03v-.02Z" fill="#7B7474"/><path d="M8.6 12.03a.17.17 0 0 1 0-.1l.5.04a.13.13 0 0 1 .1.06c.09.15.23.24.42.29.02 0 .02.02.02.04a.45.45 0 0 1-.28.3c-.02 0-.03 0-.04-.02a.17.17 0 0 0-.12-.06c-.07-.01-.15-.03-.19-.09a.98.98 0 0 0-.18-.23 1.8 1.8 0 0 1-.22-.23Z" fill="#8C817E"/><path d="M11.1 12.23v-.01a1.87 1.87 0 0 1 .78-.13v.05h-.02c-.26 0-.5.04-.76.1Z" fill="#956646"/><path d="M7.13 12.63a2.22 2.22 0 0 0-.27.61h-.03l-.01-.02a.88.88 0 0 1 .13-.35.1.1 0 0 0-.02-.13.1.1 0 0 0-.05-.03.28.28 0 0 1-.07-.05.8.8 0 0 1 .32-.3c.04-.01.07 0 .1.02v.04a.53.53 0 0 0-.1.2Z" fill="#8C817E"/><path d="M10.02 13.13a8 8 0 0 0-.42.53v-.04a3.14 3.14 0 0 1 .87-1v.02a8.2 8.2 0 0 0-.45.5ZM10.02 12.7l.03.01.01.02v.01l-.68.87-.03-.01-.02-.02.69-.88Z" fill="#5B3A29"/></svg>