<!-- by TradingView --><svg width="18" height="18" viewBox="0 0 18 18" xmlns="http://www.w3.org/2000/svg"><path fill="url(#a)" d="M0 0h18v18H0z"/><path d="M14 9a3 3 0 0 1-6 .33h1.37a1.67 1.67 0 1 0 0-.66H8A3 3 0 0 1 14 9ZM5.58 13.09c.3.33.62.63.98.91L8 12.82c-.3-.2-.58-.45-.82-.71l-1.6.98Zm.69-2.37c.1.25.23.48.38.71l-1.6.98c-.26-.39-.48-.8-.65-1.23l1.87-.46Zm-.33-1.28c.02.16.04.32.08.48l-1.87.46c-.07-.3-.12-.62-.15-.94h1.94Zm.07-1.3c-.04.15-.06.31-.07.48H4c.02-.33.07-.64.14-.95L6 8.13Zm.61-1.53c-.15.23-.27.47-.37.73l-1.87-.46c.17-.44.38-.86.65-1.25l1.6.98Zm.52-.68c.26-.28.54-.53.86-.75L6.56 4c-.37.29-.7.6-1.01.95l1.6.98Z" fill="#BFFF01"/><defs><linearGradient id="a" x1="15.27" y1="2.09" x2="2.25" y2="14.95" gradientUnits="userSpaceOnUse"><stop stop-color="#4A8F24"/><stop offset=".49" stop-color="#181B1E"/></linearGradient></defs></svg>