<!-- by TradingView --><svg width="18" height="18" xmlns="http://www.w3.org/2000/svg"><path fill="#FFB634" d="M0 0h18v18H0z"/><path d="M5.563 5H4v6h2V7.591v-.055c-.002-.432-.007-1.336.969-1.336C7.989 6.2 8 7.092 8 7.553V11h2V8.111v-.16C9.994 7.105 9.99 6.2 11.03 6.2c.958 0 .969.753.969 1.391V11h1.998V7.73v-.097c.002-.51.004-1.175-.311-1.664C13.55 5.733 13.08 5 11.813 5c-.648 0-1.548.094-2.068 1.051C9.623 5.768 9.193 5 7.75 5c-1.2 0-1.638.583-1.847.862l-.028.037L5.563 5zM14 12H4v2h10v-2z" fill="#000"/></svg>