<!-- by TradingView --><svg width="18" height="18" viewBox="0 0 18 18" xmlns="http://www.w3.org/2000/svg"><path fill="#F0F3FA" d="M0 0h18v18H0z"/><path d="M9 4a5 5 0 1 1 0 10A5 5 0 0 1 9 4Z" fill="#0133A2"/><path d="M9 5a4 4 0 1 1 0 8 4 4 0 0 1 0-8Z" fill="#03A7E4"/><path d="M9 5a4 4 0 1 1 0 8 4 4 0 0 1 0-8Zm3.7 4a3.7 3.7 0 1 0-7.4 0 3.7 3.7 0 0 0 7.4 0Z" fill="#F0F3FA"/><path d="M7 7h1.24l2.47 2.72V11h-.15L7.13 7.28H7V7Z" fill="#F0F3FA"/><path d="M7.29 7.29v3.14s0 .28-.29.28V11h.86v-.29s-.29-.01-.29-.28V7.57L7.3 7.3ZM10.71 10.43V7.57s0-.28.29-.28V7h-.86v.29s.29 0 .29.28v2.57l.28.29Z" fill="#F0F3FA"/></svg>