<!-- by TradingView --><svg width="18" height="18" viewBox="0 0 18 18" xmlns="http://www.w3.org/2000/svg"><path fill="#F0F3FA" d="M0 0h18v18H0z"/><path d="m4.07 12.4 4.26-7.19.71.41-4.25 7.2-.72-.41Z" fill="#81D6D3"/><path fill-rule="evenodd" d="M9 6a1 1 0 1 0 0-2 1 1 0 0 0 0 2Zm0-.5a.5.5 0 1 0 0-1 .5.5 0 0 0 0 1Z" fill="#2C2D7F"/><path d="M9 5.5a.5.5 0 0 0 .47-.69l4.49 7.58-.71.4-4.32-7.3H9Z" fill="#593ED9"/><path d="m13.35 12.95-6.81-3.9.41-.7 6.83 3.88-.43.72Z" fill="#81D6D3"/><path d="m11.49 9.02-6.83 3.94-.48-.72 6.9-3.92.4.7Z" fill="#593ED9"/><circle cx="6.76" cy="8.72" fill="#2C2D7F" r=".44"/><ellipse cx="9" cy="9.98" rx=".43" ry=".42" fill="#2C2D7F"/><ellipse cx="11.27" cy="8.71" rx=".44" ry=".43" fill="#2C2D7F"/><circle cx="13.5" cy="12.5" fill="#2C2D7F" r=".5"/><circle cx="4.5" cy="12.5" r=".5" fill="#2C2D7F"/></svg>