<!-- by TradingView --><svg width="18" height="18" viewBox="0 0 18 18" xmlns="http://www.w3.org/2000/svg"><path fill="#F0F3FA" d="M0 0h18v18H0z"/><path d="M3.18 10.06c.6 2.7 2.58 4.41 4.42 3.82 1.83-.58 2.83-3.24 2.22-5.94-.6-2.7-2.58-4.41-4.42-3.82-1.83.58-2.83 3.24-2.22 5.94Z" fill="#0071C1"/><path d="M14.82 10.06c-.6 2.7-2.58 4.41-4.42 3.82-1.83-.58-2.83-3.24-2.22-5.94.6-2.7 2.58-4.41 4.42-3.82 1.83.58 2.83 3.24 2.22 5.94Z" fill="#01B0F1"/><path d="M6.34 6.23C6.09 6.4 6 8.13 6 8.88c0 1.72.14 2.47.28 2.76.14.28.42.36.95.36.96 0 1.23-.39 1.23-.6 0-.2-.25-.78-.33-1.01A4.14 4.14 0 0 1 8 9.36c0-.26.03-.52.11-.52.2 0 .84 1.42 1.2 2.3.37.89.65.86.82.86.67 0 1.34-.29 1.48-.52.54-.86.42-4.6.23-4.99-.2-.39-.62-.49-1.1-.49-.95 0-1.32.36-1.32.5 0 .12-.02.25.17.6.31.6.4 1.1.41 1.45 0 .13 0 .23-.02.3-.25-.19-.39-.62-.92-1.6C8.53 6.26 8.05 6 7.66 6c-.4 0-1.01.03-1.32.23Z" fill="#F7FFFC"/></svg>