<!-- by TradingView --><svg width="18" height="18" viewBox="0 0 18 18" xmlns="http://www.w3.org/2000/svg"><path fill="url(#a)" d="M0 0h18v18H0z"/><path d="m11.56 10.36-.15.57a.97.97 0 0 1-.82.65.99.99 0 0 1-1.09-.78L9.3 9.9a3.1 3.1 0 0 0-.2-.65 1.76 1.76 0 0 0-3.32.87c.01.17.05.38.04.54-.02.41-.19.75-.5 1.02-.46.38-1.16.41-1.67.1a1.38 1.38 0 0 1-.4-1.94c.26-.38.61-.58 1.07-.62h.32c.82 0 1.51-.55 1.7-1.33l.2-.77c.1-.45.5-.76.98-.75.46.01.83.32.94.76l.25 1.04a1.76 1.76 0 0 0 1.78 1.46c.7-.01 1.3-.4 1.6-1.03.11-.24.16-.5.14-.78l-.02-.39c-.02-.33.06-.62.26-.87.3-.4.72-.6 1.24-.57A1.4 1.4 0 0 1 15 7.43a1.39 1.39 0 0 1-1.24 1.33c-.18.02-.4-.01-.58 0-.65.07-1.2.45-1.46 1.03-.05.12-.1.3-.16.57Z" fill="#fff"/><defs><linearGradient id="a" x1="3.35" y1="3.12" x2="21.9" y2="24.43" gradientUnits="userSpaceOnUse"><stop stop-color="#1A1E21"/><stop offset="1" stop-color="#06060A"/></linearGradient></defs></svg>