<!-- by TradingView --><svg width="18" height="18" viewBox="0 0 18 18" xmlns="http://www.w3.org/2000/svg"><path fill="#F0F3FA" d="M0 0h18v18H0z"/><path d="M9.54 3c.56.1.95.18 1.16.25a5.97 5.97 0 0 1 3.15 2.22c.65.9 1.03 1.93 1.15 3.1v.86A6.04 6.04 0 0 1 9.43 15h-.86a6.4 6.4 0 0 1-2.3-.67 5.97 5.97 0 0 1-2.82-3.06A7.03 7.03 0 0 1 3 9.53v-.95A6.03 6.03 0 0 1 8.58 3h.96Zm5.1 6A5.64 5.64 0 1 0 3.36 9a5.64 5.64 0 0 0 11.28 0Z" fill="#98832F"/><path d="M15 3v5.56a6.18 6.18 0 0 0-1.15-3.09 5.97 5.97 0 0 0-3.15-2.22c-.21-.07-.6-.15-1.16-.25H15Z" fill="#D7D3DB" fill-opacity=".01"/><path d="M14.64 9A5.64 5.64 0 1 1 3.36 9a5.64 5.64 0 0 1 11.28 0Zm-8.84.97c.03.01.04.02.05.04l-.01.06-.04.03a.04.04 0 0 0 0 .05c.02.04.05.1.08.21l.09.18c.05.1.1.23.12.38.02.13.08.28.18.45v.02c0 .02 0 .02-.02.02-.04 0-.06 0-.05.02a.8.8 0 0 0-.1.41l-.2.88v.06c.03.03.02.08-.02.13a.08.08 0 0 0 0 .05c0 .15-.02.3-.1.44 0 .02 0 .03.02.05l.32.22a5.5 5.5 0 0 0 2.11.77l.46.04c.59.03 1.17-.03 1.73-.18l.52-.18c.52-.18.99-.44 1.4-.78.02 0 .03-.02.02-.04a2.17 2.17 0 0 1-.12-.69s0-.03-.03-.06a.06.06 0 0 1 0-.03v-.58a.1.1 0 0 0-.02-.05.78.78 0 0 1-.12-.5l-.1-.16c.11-.13.18-.24.21-.33.1-.25.14-.54.15-.88 0-.07.01-.18.05-.34v-.05c-.03-.05-.05-.08-.05-.13.02-.34-.08-.64-.3-.9l-.08-.23a1.15 1.15 0 0 0-.12-.21.76.76 0 0 1-.12-.31v-.2c0-.04.02-.04.03 0 .04.1.06.22.07.34 0 .02 0 .04.02.06.07.1.14.17.19.3.08.2.18.38.29.54.06.08.1.26.1.37 0 .11 0 .2.02.26.02.1.02.19.01.26-.02.11-.03.25-.03.42 0 .35-.14.71-.3 1a.08.08 0 0 0-.02.06c.04.27.08.44.11.52.06.12.08.23.08.32a2.66 2.66 0 0 0 .14 1.09c-.02.09 0 .1.08.05A5.44 5.44 0 0 0 14.12 7a5.52 5.52 0 0 0-7.35-3.02 223.85 223.85 0 0 0-.68.35 5.42 5.42 0 0 0-2.4 3.28 5.44 5.44 0 0 0 1.99 5.76c.03.02.04.01.06-.02a.54.54 0 0 0 .06-.2c.03-.43.1-.8.2-1.13l.04-.3a.72.72 0 0 1 .1-.35.08.08 0 0 0 .01-.05.94.94 0 0 0-.06-.23 1.2 1.2 0 0 1-.09-.25 2.29 2.29 0 0 0-.17-.45.69.69 0 0 1-.07-.4.03.03 0 0 1 .03-.02h.01Z" fill="#726326"/><path d="m11.71 7.85-.03-.3c.05-.13.07-.22.07-.26 0-.32.06-.63.15-.94.06-.2.08-.39.06-.57l-.08-.62c-.02-.16-.11-.23-.26-.16-.16.09-.28.16-.35.24l-.73.72c-.27.25-.47.4-.6.47a.41.41 0 0 1-.16.06 2.56 2.56 0 0 1-.5-.08.9.9 0 0 0-.36-.03c-.17.02-.3.05-.35.07a7.51 7.51 0 0 1-.69.24c-.03 0-.05 0-.07-.02l-.6-.3a6.63 6.63 0 0 0-1.56-.74c-.05-.01-.1 0-.14.03a.2.2 0 0 0-.08.06V5.7a.02.02 0 0 0-.02-.01H5.4a.32.32 0 0 0-.08.25 3.81 3.81 0 0 1 .07.76c.01.1.03.16.04.19.09.22.21.49.38.8l.09.24V8.05c.03.15.06.31.07.5.01.11 0 .28-.05.48-.05.24-.1.52-.14.84 0 .02 0 .03.02.03h.02c-.02.01-.03.03-.02.07h-.02a.03.03 0 0 0-.02.03c-.02.14 0 .27.07.4.09.19.15.34.17.45.02.07.05.16.1.25l.05.23-.01.05c-.06.1-.1.21-.1.35l-.04.3c-.1.33-.17.7-.2 1.13-.01.07-.03.14-.06.2-.02.03-.04.04-.06.02a5.67 5.67 0 0 1-1.84-2.5 5.44 5.44 0 0 1-.15-3.26A5.42 5.42 0 0 1 6.76 4a5.55 5.55 0 0 1 4.77.14 5.52 5.52 0 0 1 2.96 4.9 5.44 5.44 0 0 1-2 4.2c-.07.07-.1.05-.07-.04 0-.02 0-.05-.02-.09-.1-.25-.14-.58-.12-1 0-.09-.02-.2-.08-.32a2.65 2.65 0 0 1-.11-.52l.01-.05c.17-.3.3-.66.31-1.01 0-.17.01-.31.03-.42a.73.73 0 0 0-.01-.26 1.17 1.17 0 0 1-.02-.26.75.75 0 0 0-.1-.37 2.58 2.58 0 0 1-.3-.54c-.04-.13-.12-.2-.18-.3a.11.11 0 0 1-.02-.06c0-.12-.03-.23-.07-.34-.02-.04-.02-.04-.02 0l-.01.2Z" fill="#BAA032"/><path d="M11.68 7.56c-.04 0-.06 0-.08-.04a.48.48 0 0 0 .07-.16l.06-.51c.03-.28.15-.53.17-.81.02-.27-.03-.55-.05-.8a.3.3 0 0 0-.04-.15c-.05-.06-.11-.07-.19-.03-.16.1-.25.16-.29.2-.55.55-1.05.99-1.47 1.31a6.85 6.85 0 0 0-.59-.1c-.3-.03-.57 0-.82.1-.23.1-.42.16-.55.19a.53.53 0 0 1-.24-.06 39.14 39.14 0 0 0-1.87-.97 1 1 0 0 0-.28-.07c.05-.03.1-.04.13-.03a6.63 6.63 0 0 1 1.56.74l.6.3a.19.19 0 0 0 .15.01c.22-.06.42-.14.62-.23.06-.02.18-.05.36-.07a.9.9 0 0 1 .35.03c.14.04.31.07.5.08.03 0 .08-.02.16-.06.13-.06.33-.22.6-.47.1-.08.33-.32.73-.72.07-.08.2-.15.35-.24.15-.07.24 0 .26.16l.08.62c.02.18 0 .37-.06.57-.1.3-.14.62-.15.94 0 .04-.02.13-.07.27Z" fill="#726326"/><path d="M11.6 7.52a.4.4 0 0 1-.2.08c-.02 0-.04-.01-.05-.03a.91.91 0 0 1-.06-.5c.08-.3.1-.6.07-.88-.01-.11-.06-.12-.12-.02l-.08.12c-.02.01-.02.03 0 .05.09.15.14.24.14.3v.34-.28c0-.02 0-.04-.02-.05l-.24-.29c.04-.23.1-.4.14-.53.1-.22.26-.44.48-.67h.03v-.02l-.01-.02a.25.25 0 0 1-.06-.06c.08-.04.14-.03.19.03a.3.3 0 0 1 .04.15c.02.25.07.53.05.8-.02.28-.14.53-.17.8l-.06.52c0 .05-.03.1-.07.16Z" fill="#E5DDD2"/><path d="m11.62 5.06.06.06v.04h-.02c-.1.01-.2.06-.29.15a23.93 23.93 0 0 1-1.4 1.3l.01.02c.14.06.26.15.38.29.01.01 0 .02-.01.02h-.15c-.19-.04-.34-.07-.46-.08l-.46.02c-.19.02-.38.02-.58 0-.39-.03-.7.07-1.03.16A.04.04 0 0 1 7.6 7a.47.47 0 0 0 0-.26l.05-.03c.08.04.16.06.24.06l-.08.02-.01.02v.04a.03.03 0 0 0 .02.02c.1 0 .2-.02.3-.06l.28-.08c.2-.03.44.03.62.04a1 1 0 0 0 .3-.05c.15-.04.31-.05.49-.01a.05.05 0 0 0 .04-.02c.02-.03.02-.07 0-.1.42-.33.92-.77 1.47-1.32.03-.04.13-.1.29-.2ZM9.35 6.74h-.01a.05.05 0 0 0-.02 0v.01a.05.05 0 0 0 .03 0v-.01Zm-.21.07h-.01a.08.08 0 0 0-.04 0h.01a.08.08 0 0 0 .03 0Z" fill="#E4D2B4"/><path d="M11.66 5.16c-.22.23-.38.45-.48.67-.05.12-.1.3-.14.53l-.18.34a.88.88 0 0 0-.04.34c0 .02 0 .04.02.05.06.1.12.11.17.06l-.02.13c-.01.07-.04.08-.08.02l-.04-.05c-.06-.08-.07-.07-.04.02.07.21.2.3.42.38.13.06.25.11.35.18.02.01.02 0 .01-.01a.39.39 0 0 0-.19-.16l-.16-.07c-.06-.04-.1-.09-.09-.14V7.1c0-.06-.01-.06-.04-.01-.01.03-.05.05-.1.06l.22-.41c0-.02.01-.02.02 0l.02.33c-.02.15 0 .32.06.49.01.02.03.03.05.03a.4.4 0 0 0 .2-.08c.02.03.04.05.08.04l.03.29c.02.1.06.2.12.3.06.1.1.16.12.22l.09.23a.55.55 0 0 1-.38-.16h-.02v.02c.1.07.2.16.26.27-.3-.28-.64-.4-1.05-.35-.05-.05-.08-.07-.1-.06l-.2-.14c.04 0 .07-.03.07-.08l-.01-.05-.08-.08-.2-.32a.68.68 0 0 0-.23-.22l-.35-.06a.62.62 0 0 0-.33.11c-.1.09-.2.23-.27.43a1.19 1.19 0 0 1-.35-.26c-.37-.33-.88-.22-1.17.15l-.33.3.29-.3-.01-.02-.44.12a.05.05 0 0 0-.04.03.17.17 0 0 0 0 .1v.02l-.03.01h-.03l-.13-.3v-.03a.58.58 0 0 0-.02-.4c-.06-.12-.09-.21-.1-.28a.55.55 0 0 0-.25-.3.1.1 0 0 1-.04-.05.82.82 0 0 0-.21-.26.6.6 0 0 1-.13-.13.86.86 0 0 0-.13-.13.17.17 0 0 1-.04-.05.64.64 0 0 0-.08-.12l-.28-.2c-.15-.1-.14-.11.03-.05l.66.27c.13.06.34.18.63.35l.65.35c.03.08.04.17.02.26a.04.04 0 0 0 .05.05c.34-.09.64-.2 1.03-.16.2.02.4.02.58 0 .25-.02.4-.03.47-.02l.45.08h.15c.02 0 .02-.01.01-.02a.99.99 0 0 0-.38-.29.05.05 0 0 1 0-.08l.19-.13c.4-.34.8-.71 1.2-1.1.1-.1.19-.15.29-.16Z" fill="#D8B789"/><path d="M5.51 5.66a1 1 0 0 1 .29.07 39.14 39.14 0 0 1 1.87.97l-.06.03-.66-.35c-.3-.17-.5-.29-.63-.35l-.66-.27c-.17-.06-.18-.04-.03.06.18.12.27.18.28.2l.08.11.04.05c.07.06.12.1.13.13l.13.13c.07.06.14.15.2.26l.05.04c.13.08.21.19.25.31l-.6-.21a.06.06 0 0 0-.07.03v.03c.01.17.04.35.1.53l.18.53c.02.09 0 .1-.07.04l-.17-.14a.03.03 0 0 0-.03 0l-.02.01v.04l.15.14c.03.03.04.06.03.1a.06.06 0 0 1-.05.03l-.04.01-.03-.03c-.13-.18-.25-.35-.34-.55l-.3-.6a1.1 1.1 0 0 1-.09-.4l-.06-.67c-.01-.08 0-.15.05-.22a.2.2 0 0 1 .08-.06Z" fill="#E5DDD2"/><path d="M5.43 5.72a.35.35 0 0 0-.06.22l.07.68c0 .12.04.26.1.38l.29.6c.1.2.21.38.34.56l-.01.02a.01.01 0 0 1-.01 0h-.01A.73.73 0 0 1 6 8H6l-.02-.01v.02l.07.66-.1.57-.02.06-.07.4.01.16c0 .03 0 .04-.05.05H5.8c-.02-.01-.03-.02-.02-.04.04-.32.1-.6.14-.84a1.81 1.81 0 0 0-.02-.98v-.07a.05.05 0 0 0 0-.05c-.04-.08-.05-.16-.09-.23-.16-.32-.3-.6-.38-.81l-.04-.19a3.81 3.81 0 0 0-.07-.76.32.32 0 0 1 .07-.24.02.02 0 0 1 .02-.01h.01v.03Z" fill="#726326"/><path d="m11.3 7.08-.03-.33c0-.02-.01-.02-.02 0l-.23.4h-.01c-.05.05-.1.03-.17-.06a.1.1 0 0 1-.02-.05c0-.17.02-.28.04-.34l.18-.34.24.29c.02.01.02.03.02.05v.28-.35a.84.84 0 0 0-.14-.3c-.01-.01-.02-.03 0-.04l.08-.12c.06-.1.1-.1.12.02.03.28.01.58-.07.89Z" fill="#E4D2B4"/><path d="M9.86 6.57c.02.04.02.08 0 .1a.04.04 0 0 1-.04.03 1.04 1.04 0 0 0-.49.01 1 1 0 0 1-.3.05c-.18 0-.41-.07-.62-.04l-.27.08a1.2 1.2 0 0 1-.32.06.03.03 0 0 1-.01-.02V6.8c0-.01 0-.02.02-.02l.07-.02c.13-.03.32-.1.55-.19.25-.1.52-.13.82-.1l.59.1Z" fill="#FAFAEE"/><path d="M6.79 7.05c.01.07.04.16.1.28.05.12.06.25.02.4v.03l.13.3h.05l.01-.02v-.01a.17.17 0 0 1 0-.1.05.05 0 0 1 .04-.03l.44-.12c.01 0 .02 0 0 .02l-.28.3a.79.79 0 0 1-.35.62c-.4.3-.73.58-.98 1.01-.01.02-.02.02-.04.01l-.07-.04.07-.4.36-.18c.01 0 .02 0 .01.01v.03a8.18 8.18 0 0 1 .2-.22c.17-.18.35-.31.56-.47a.04.04 0 0 0-.02-.08 2.1 2.1 0 0 0-.5-.03.38.38 0 0 1-.34-.17h.04a.05.05 0 0 0 .05-.04c.01-.04 0-.07-.03-.1a.9.9 0 0 1-.15-.14v-.04l.01-.01a.03.03 0 0 1 .04 0l.17.14c.07.06.09.05.06-.04-.03-.13-.1-.3-.17-.53a2.17 2.17 0 0 1-.1-.56.06.06 0 0 1 .04-.04h.03l.6.22Z" fill="#E4D2B4"/><path d="M11 7.15h.02c.06 0 .1-.02.11-.05.03-.05.04-.05.04 0v.35c0 .05.03.1.09.14l.16.07c.08.03.15.09.19.16.01.02 0 .02-.01.01-.1-.07-.22-.12-.35-.18-.22-.09-.35-.17-.42-.38-.03-.1-.02-.1.04-.02l.04.05c.04.06.07.05.08-.02l.02-.13Z" fill="#C3A47F"/><path d="M9.75 7.37c-.1.03-.2.07-.3.13-.03.02-.02.02.01.02.12-.01.24-.03.37-.01.14.02.28.07.43.14.02.01.03 0 .01-.02a.76.76 0 0 0-.18-.2c.1.05.17.12.24.22l.2.32a5.94 5.94 0 0 1-.39-.18 1.3 1.3 0 0 0-.37-.15c-.25-.03-.45.1-.62.27.08-.2.17-.34.27-.43a.62.62 0 0 1 .33-.1Z" fill="#E5DDD2"/><path d="m8.8 7.65.21.38c.01.02.03.02.04 0a.34.34 0 0 0 .1-.12c.18-.17.38-.3.62-.27.07 0 .2.06.37.15l.4.18.07.08c.01.01.02.03.01.05 0 .05-.03.07-.07.08a.44.44 0 0 0-.35-.02c-.15.06-.23.2-.33.27h-.05a.11.11 0 0 0-.02-.04c-.01 0-.02 0-.02.03v.02c0 .07.01.13.04.18.07.12.24.26.32.4l.07.21a3.91 3.91 0 0 1 .1.68.1.1 0 0 1-.05.04l-.1.04a.07.07 0 0 1-.1-.06v-.05c-.02-.02-.03-.02-.04 0-.1.24-.22.46-.5.5.26-.13.38-.32.37-.58.01.02.03.02.04 0l.01-.04a.76.76 0 0 0-.1-.34c-.15-.3-.37-.29-.7-.28-.13 0-.25.02-.35.05a.53.53 0 0 0-.37.36c-.1.22-.17.4-.2.53-.07.23-.14.23-.2 0 0-.03 0-.1.03-.22 0-.04-.03-.1-.03-.16l.05-.5a.33.33 0 0 1 .08-.16l.17-.21c.03-.05.03-.1 0-.13-.01-.1 0-.14.03-.12a.27.27 0 0 0 .04-.13l-.02-.05a.63.63 0 0 0-.58-.15.88.88 0 0 0-.41.26c-.02.02-.03.02-.02-.01.06-.25.15-.48.27-.7.3-.37.8-.48 1.17-.15Z" fill="#FAFAEE"/><path d="M9.15 7.9a.34.34 0 0 1-.1.14h-.04l-.21-.4c.1.12.22.2.35.27Z" fill="#E4D2B4"/><path d="M7.63 7.8c-.12.22-.21.45-.27.7 0 .03 0 .03.02.01a.88.88 0 0 1 .4-.26c.21-.05.4 0 .59.15l.02.05c0 .04-.01.08-.04.13-.01-.04-.04-.05-.1-.02a.04.04 0 0 1-.04 0l-.26-.16c-.09-.03-.16-.01-.22.08-.02.03-.03.03-.03 0s-.02-.05-.05-.06c-.02 0-.05.01-.08.04-.08.07-.15.15-.21.23l-.23.08c-.01 0-.02 0-.02.02v.02c0 .02.02.03.05.04.04.02.04.04 0 .05a.22.22 0 0 0-.14.16c-.03.16-.04.32-.02.46 0 .02.01.04.03.05l.23.13a.05.05 0 0 1 .02.07l-.21.4v.01h-.02l-.15-.1c-.03-.03-.04-.05-.02-.09 0-.02 0-.06-.03-.13-.06-.15-.1-.32-.1-.52 0-.13.04-.26.13-.41l.01-.04-.01-.02a.04.04 0 0 0-.06 0c-.21.14-.37.27-.46.39a.94.94 0 0 0-.18.29 1.9 1.9 0 0 0 .57 1.98c.24.23.38.37.65.47.23.09.41.23.64.35.08.04.1.02.05-.06-.23-.37-.4-.75-.52-1.14-.04-.14-.15-.27-.2-.43a.95.95 0 0 0-.3-.41.05.05 0 0 1-.02-.04.05.05 0 0 1 .02-.04l.11-.1v.1c.04.07.07.07.08-.03a.7.7 0 0 1 .16-.36l.14.2c-.23 0-.24.25-.14.4l.19.15c.06.04.11.1.15.19l.07.07c.02 0 .03.02.03.03.02.05.04.07.08.08V11l-.06-.03c-.06-.03-.08-.02-.04.05.1.16.16.32.29.47l.26.34c.16.23.32.37.55.47.25.1.5.08.75-.06.1-.06.36-.21.32-.35l.02-.04a.23.23 0 0 0 .1-.13c.06-.21.13-.42.22-.63.1-.1.15-.2.18-.33l.07-.28c.06-.15.12-.3.2-.43.02.03.02.07 0 .14a3.3 3.3 0 0 1-.1.24c-.06.13-.04.14.06.04a.93.93 0 0 0 .28-.58.12.12 0 0 0-.19-.1c-.04.03-.08.09-.1.17-.1.25-.21.43-.3.55a.58.58 0 0 1-.34.18l-.19.03-.29.02c-.42.03-.83.07-1.25.13l-.16-.02a.41.41 0 0 1-.23-.17c-.1-.15-.22-.3-.33-.43-.02-.03-.02-.06-.01-.1l.1.06a.1.1 0 0 0 .14-.08 4.3 4.3 0 0 1 .07-.88.44.44 0 0 1 .13-.23l.19-.22v-.05l-.02-.02.05-.02c.04.04.04.08 0 .13-.02.05-.07.12-.16.2a.33.33 0 0 0-.08.18l-.05.5c0 .05.04.1.03.15a.76.76 0 0 0-.02.22c.06.23.12.23.18 0l.2-.53.03.1c-.08.33.03.59.31.76.06.03.19.07.4.1l.04.04.03.15s0 .01 0 0h.02l.01-.18.01-.02.03-.02a.77.77 0 0 0 .24-.1c.27-.04.39-.26.49-.5 0-.02.02-.02.03 0l.01.05a.07.07 0 0 0 .04.06.07.07 0 0 0 .06 0l.1-.04a.1.1 0 0 0 .06-.1 3.91 3.91 0 0 0-.18-.83c-.08-.14-.25-.28-.32-.4a.32.32 0 0 1-.04-.18c.02 0 .04 0 .04.03 0 .06.03.1.06.1 0 .04.01.07.03.09.1.07.19.16.27.27.06.08.1.19.14.33.03.15.08.33.15.54.04.15.1.15.15 0l.1-.23a.1.1 0 0 0 .02-.06c0-.15.04-.3.11-.45.01-.02.04-.03.08-.04.02 0 .03-.01.03-.03 0-.06.02-.12.07-.17a.04.04 0 0 0 0-.05.13.13 0 0 0-.04-.06c-.01-.01-.02-.03 0-.04l.02-.05L11 8.6l-.15-.09c-.02 0-.02-.02 0-.04l.02-.02c.03-.01.03-.02.01-.04l-.03-.02c.4-.04.76.07 1.05.35l.04.02a.06.06 0 0 0-.04-.02c-.07-.1-.16-.2-.26-.27v-.02h.02c.11.1.24.15.38.16.21.26.31.56.3.9-.01.05 0 .08.03.13v.05c-.03.16-.04.27-.04.34-.01.34-.06.63-.14.88-.04.1-.1.2-.21.33l-.23.32a.1.1 0 0 1-.02.03.28.28 0 0 0-.12.14l-.19.2c-.05.06-.11.12-.2.18a.91.91 0 0 0-.2.22l-.14.13c-.05.05-.1.1-.11.14a.4.4 0 0 1-.17.16l-.19.13c-.09.08-.18.13-.28.17a1 1 0 0 1-.4.14 3.54 3.54 0 0 1-.67-.06 1.42 1.42 0 0 0-.33-.04c-.04 0-.07 0-.1-.03-.2-.12-.43-.26-.68-.43a5.31 5.31 0 0 0-.67-.38l-.83-.56a.04.04 0 0 1-.02-.04v-.08l-.16-.2c-.1-.17-.16-.32-.18-.45a1.34 1.34 0 0 0-.12-.38l-.09-.18-.08-.21v-.05l.04-.03a.05.05 0 0 0 .01-.06c0-.02-.02-.03-.05-.04 0-.04 0-.06.02-.06.04 0 .06-.03.05-.05a.48.48 0 0 1 0-.16l.06.04h.04c.25-.44.57-.72.98-1.02a.79.79 0 0 0 .35-.62l.33-.3Zm3.8 1.75c-.03.04-.03.08.01.14l-.01.02h-.02a4.56 4.56 0 0 0-.17-.15h-.02c-.02.01-.02.02-.01.04.06.08.1.17.12.28-.17.24-.33.5-.47.77-.08.17-.16.35-.22.55-.08.28-.2.57-.37.86-.06.09-.04.1.06.06l.43-.27c.26-.17.5-.22.7-.42.3-.28.5-.53.64-.89.04-.1.06-.23.07-.41l.02-.42a1.26 1.26 0 0 0-.12-.75H12l.15.52-.11-.4-.38-.38.43.23h.02V8.9l-.39-.22a.8.8 0 0 0-.54-.28c-.02 0-.04-.01-.07 0-.02 0-.02 0 0 .02.32.23.26.58.17.92a.05.05 0 0 0 .05.06h.17c.02 0 .02 0 0 .02-.06.05-.1.09-.09.12Z" fill="#E5DDD2"/><path d="m6.17 8.16.03.03c.08.12.2.17.35.17a2.1 2.1 0 0 1 .51.04.04.04 0 0 1 0 .07c-.2.16-.4.3-.56.47a8.18 8.18 0 0 0-.2.22v-.03c.01-.02 0-.02-.01 0l-.36.17.02-.06a.24.24 0 0 0 .15-.17l.02-.05c.06-.08.1-.16.12-.25.01-.03 0-.04-.03-.02a.17.17 0 0 1-.07.02c-.02 0-.03 0-.04-.03l-.05-.07L5.97 8V8l.01-.01H6l.01.01a.73.73 0 0 0 .13.18.01.01 0 0 0 .02 0v-.02Z" fill="#CDBA9C"/><path d="m10.54 8.18.2.14a.58.58 0 0 1-.5.28l-.36-.04c-.04 0-.06-.03-.06-.1l-.04-.02v-.02c0-.02 0-.03.02-.03l.02.03c.01.02.03.02.04 0 .1-.06.2-.2.33-.26a.44.44 0 0 1 .35.02Zm-.2.04a.03.03 0 0 0 0 .03c.02.03.04.03.06 0v-.03c-.03-.02-.05-.02-.06 0Zm-.1.05h-.07a.12.12 0 0 0-.04.05l-.01.03v.04l.02.01h.06a.12.12 0 0 0 .06-.08v-.03l-.01-.02Zm.29.16c-.01.05 0 .05.04.03.02-.03.04-.05.03-.09-.01-.09-.03-.09-.05 0l-.02.06Z" fill="#060402"/><path d="M10.23 8.37c.03-.03.04-.07.02-.1-.02-.02-.07-.01-.1.02-.04.04-.04.08-.02.1.02.02.06.02.1-.02ZM10.85 8.38c.01 0 .03 0 .03.02.02.02.02.03 0 .04a.07.07 0 0 0-.04.02l.01.04.15.09c.01 0 .02.02 0 .03l-.02.05.01.04.05.06-.01.05a.23.23 0 0 0-.07.17c0 .02-.01.03-.03.03-.04 0-.07.02-.08.04-.07.15-.1.3-.1.45a.1.1 0 0 1-.02.06c-.04.06-.08.14-.11.23-.06.15-.1.15-.15 0a7.43 7.43 0 0 1-.15-.54.85.85 0 0 0-.14-.33c-.08-.1-.17-.2-.27-.27-.02-.02-.03-.05-.03-.1.18.03.3.04.37.04.21 0 .38-.1.5-.28.02 0 .05.01.1.06Z" fill="#FAFAEE"/><path d="m10.53 8.43.02-.06c.02-.09.04-.09.05 0 0 .04 0 .06-.03.09-.04.02-.05.02-.04-.03Z" fill="#FAFAEE"/><path d="M8.35 8.58c-.03-.02-.05.02-.04.12l-.05.02a.3.3 0 0 0-.13.02c-.15.04-.3.06-.45.06-.04 0-.07-.02-.09-.06l-.04-.09c-.01-.02-.03-.02-.04 0l-.02.04.01.05-.02.04-.13-.09.22-.23c.03-.03.06-.04.08-.04.03 0 .04.03.05.06 0 .03.01.03.03 0 .05-.09.13-.11.22-.08l.26.16h.04c.05-.03.09-.02.1.02Zm-.36 0v-.04a.14.14 0 0 0-.04-.05l-.02-.02-.03-.01h-.05v.05c0 .02.02.04.04.05l.03.02.02.01H8Z" fill="#060402"/><path d="M11.19 8.4c.22.08.4.17.54.3l.38.2v.02s0 .01 0 0l-.44-.22a.12.12 0 0 0-.04-.02.03.03 0 0 0-.03.02v.02l.01.01.43.36.12.4.03.22-.02.42c-.01.18-.04.32-.07.41-.15.36-.35.61-.63.9-.2.19-.46.24-.71.41l-.43.27c-.1.05-.12.03-.06-.06.16-.3.29-.58.37-.86.06-.2.13-.38.22-.55.14-.27.3-.53.47-.77a.5.5 0 0 0 .2-.18.06.06 0 0 0 .01-.06c-.01-.04-.05-.07-.12-.1 0-.02.03-.06.1-.1.01-.02.01-.03-.02-.03h-.16a.05.05 0 0 1-.05-.04v-.02c.1-.34.14-.69-.18-.92-.01-.02-.01-.02.01-.03h.07ZM7.89 8.56c.03.04.08.05.1.03.02-.02 0-.07-.04-.1-.03-.04-.08-.05-.1-.03-.02.03 0 .07.04.1Z" fill="#FAFAEE"/><path d="m11.67 8.7.37.39-.43-.36V8.7l.02-.01.04.02Z" fill="#FCE9C3"/><path d="M7.6 8.74c0 .04-.03.04-.1 0a.08.08 0 0 1-.01-.05c0-.02 0-.04.02-.05.01-.01.03 0 .04.01l.04.1Z" fill="#E5DDD2"/><path d="m5.95 9.24.1-.57.05.07c0 .02.02.03.05.03l.06-.02c.03-.02.04-.01.03.02a.63.63 0 0 1-.12.25.13.13 0 0 0-.02.05.24.24 0 0 1-.15.17Z" fill="#D8B789"/><path d="m7.35 8.69.13.09c.03.04.07.07.12.07.18.03.36 0 .54-.1a.3.3 0 0 1 .12-.03l.02.02v.05l-.19.22a.44.44 0 0 0-.13.23 4.95 4.95 0 0 0-.08.92.1.1 0 0 1-.13.04l-.1-.06a.27.27 0 0 0-.09-.1l-.14-.2.12-.13v-.02l-.01-.01H7.5a.72.72 0 0 0-.33.46l-.1.09a.05.05 0 0 0-.03.04.05.05 0 0 0 .02.04c.13.1.23.24.3.4.05.17.16.3.2.44.12.4.3.77.52 1.14.05.08.03.1-.05.06-.23-.12-.4-.26-.64-.35-.27-.1-.4-.24-.65-.47a1.9 1.9 0 0 1-.57-1.98.94.94 0 0 1 .18-.3c.1-.1.25-.24.46-.38a.04.04 0 0 1 .06 0l.01.02v.04a.83.83 0 0 0-.14.41c0 .2.04.37.1.52.03.07.04.1.02.13-.01.04 0 .06.03.09l.15.1h.01l.22-.41a.05.05 0 0 0-.02-.07l-.23-.13A.06.06 0 0 1 7 9.52c-.02-.14 0-.3.02-.46a.22.22 0 0 1 .14-.16c.04-.01.04-.03 0-.05-.03 0-.05-.02-.05-.04v-.02l.02-.02.22-.08Z" fill="#FAFAEE"/><path d="M7.6 8.74c0 .04.04.06.08.06.15 0 .3-.02.45-.06a.78.78 0 0 1-.53.11.17.17 0 0 1-.12-.07l.02-.03c.06.03.1.03.1 0Z" fill="#A88C70"/><path d="m12.19 9.7-.03-.22-.15-.51.01-.02h.03a.03.03 0 0 1 .03.02c.11.24.15.48.11.74Z" fill="#E4D2B4"/><path d="M9.89 9.8a.95.95 0 0 0-.15-.27.12.12 0 0 0-.04-.04.6.6 0 0 1-.04-.03 3.46 3.46 0 0 0-.78-.04.87.87 0 0 0-.44.23l-.02-.1c.07-.2.19-.31.37-.36.1-.03.22-.04.36-.05.32 0 .54-.01.7.28.06.12.09.23.09.35l-.01.03c-.01.02-.03.02-.04 0Z" fill="#C3A47F"/><path d="M9.89 9.8c.01.26-.1.45-.36.57a.77.77 0 0 1-.24.11l-.03.02v.02l-.02.18h-.02l-.03-.15a.06.06 0 0 0-.05-.03c-.2-.04-.33-.08-.39-.11-.28-.17-.39-.43-.31-.76.15-.14.3-.21.43-.23a3.46 3.46 0 0 1 .79.04l.04.03c.02 0 .03.02.04.04.08.1.13.19.15.27Zm-1.45.1c-.01.03 0 .06.02.11a.05.05 0 0 0 .05.03h.33a.04.04 0 0 0 .04-.04c0-.1-.02-.19-.06-.28a.05.05 0 0 0-.09 0 .34.34 0 0 1-.21.15c-.05 0-.07.02-.08.03Zm1.38-.08c-.16.04-.16-.05-.26-.11a.07.07 0 0 0-.1.02c-.05.1-.04.18.03.24.1.07.24.03.33-.05a.1.1 0 0 0 .03-.07c0-.03 0-.03-.03-.03Z" fill="#261911"/><path d="M15 9.43V15H9.43A6.06 6.06 0 0 0 15 9.43ZM8.57 15H3V9.53c.1.69.25 1.27.45 1.74a5.97 5.97 0 0 0 2.81 3.06 6.4 6.4 0 0 0 2.31.67Z" fill="#D7D3DB" fill-opacity=".01"/><path d="M8.52 9.87a.34.34 0 0 0 .21-.15.05.05 0 0 1 .1 0c.03.1.05.18.05.28a.04.04 0 0 1-.04.04H8.5a.06.06 0 0 1-.05-.03c-.02-.05-.03-.08-.02-.11l.08-.03ZM9.56 9.7c.1.07.1.16.26.12.02 0 .03 0 .03.03a.1.1 0 0 1-.03.07c-.1.08-.23.12-.33.05-.07-.06-.08-.14-.02-.24a.07.07 0 0 1 .09-.02Z" fill="#060402"/><path d="M10.79 10.04c0-.04 0-.07-.04-.09.02-.08.05-.14.1-.17a.12.12 0 0 1 .19.1.93.93 0 0 1-.28.58c-.1.1-.12.09-.06-.04l.1-.24c.02-.07.02-.11-.01-.14Z" fill="#CDC1B5"/><path d="m10.79 10.04-.19.43-.07.28a.72.72 0 0 1-.18.33.45.45 0 0 0-.2.25c-.03 0-.05-.02-.07-.03l-.04-.27.01-.01h.02l.01-.03-.05-.26c0-.02 0-.03.03-.04h.04c.16-.04.27-.1.34-.19.1-.12.2-.3.31-.55.03.02.04.05.04.09Z" fill="#210804"/><path d="m7.56 10.03.09.1v.11h-.03a.03.03 0 0 0-.02.03.03.03 0 0 0 0 .02c.18.2.29.42.34.67a.11.11 0 0 1-.08-.08.06.06 0 0 0-.03-.04.14.14 0 0 1-.07-.06.46.46 0 0 0-.16-.2 1.05 1.05 0 0 1-.18-.14c-.1-.15-.1-.4.14-.4Z" fill="#CDC1B5"/><path d="m7.66 10.24.33.43c.06.09.14.14.23.17v.1c.03.1.07.22.13.35.04.08.12.12.13.2 0 .06.02.11.05.16.06.11.14.22.22.31.04.06.1.1.16.12.17.08.33.1.46.07a2.83 2.83 0 0 0 .42-.14l.02.04a.89.89 0 0 1-1.01.08.68.68 0 0 1-.24-.21l-.53-.74a1.08 1.08 0 0 1-.09-.19v-.03a1.43 1.43 0 0 0-.34-.68.03.03 0 0 1 .02-.03l.04-.01Zm.4.71.03.1h.03c0-.03 0-.07-.03-.12a.2.2 0 0 0-.07-.08h-.01v.02l.05.08Z" fill="#210804"/><path d="m10.1 10.68-.04.02c-.02 0-.03.01-.03.03l.05.26-.01.02h-.02v.02l.03.27-.09.3a.2.2 0 0 1-.06-.02l.03-.54c.04-.02.05-.06.02-.11l-.05-.11c.02-.06.02-.1-.01-.11l.18-.03Z" fill="#FAFAEE"/><path d="M9.92 10.7c.03.02.03.06 0 .12-.16.03-.33.05-.5.05-.1 0-.19 0-.29.02-.09 0-.18.01-.28 0-.08 0-.26.03-.54.1 0-.06-.03-.1-.08-.13v-.02l.15.02a15.01 15.01 0 0 1 1.54-.15Z" fill="#99180D"/><path d="m9.93 10.82.05.1c.03.06.02.1-.02.12l-.02-.05a1.18 1.18 0 0 0-.69.05.07.07 0 0 0-.03.02c-.03.03-.06.03-.1 0a.08.08 0 0 0-.05-.01l-.62.01-.1.02-.04-.1a2.7 2.7 0 0 1 .82-.1l.28-.01c.18 0 .35-.02.52-.05Z" fill="#C15344"/><path d="M8.31 10.99c.01.05.03.08.05.1 0 .05.02.1.06.15a.03.03 0 0 0 .02.01h.02c.02 0 .03 0 .04.02l.23.57c.04.04.05.08.02.12-.08-.1-.16-.2-.22-.3a.4.4 0 0 1-.05-.16c-.01-.09-.1-.13-.13-.2a3.87 3.87 0 0 1-.13-.4v-.04c.06.02.1.07.1.13Z" fill="#FAFAEE"/><path d="m7.94 11 .09.18.53.74c.06.09.14.16.24.2.36.2.7.17 1.01-.07l.2-.17c.04.14-.22.29-.33.35a.82.82 0 0 1-.74.06c-.23-.1-.4-.24-.55-.47a6.8 6.8 0 0 0-.26-.34c-.13-.15-.2-.31-.29-.47-.04-.07-.02-.08.04-.05l.06.03Z" fill="#FAFAEE"/><path d="M9.94 11a5.81 5.81 0 0 0-.08.67c0 .02.01.02.03.01.03-.01.04-.05.04-.1a.2.2 0 0 0 .06.02l-.04.11c0 .02-.01.03-.03.05l-.23.16a.56.56 0 0 1-.25.12.64.64 0 0 1-.6-.16l-.02-.01a.04.04 0 0 0-.04.02v.06l-.03.01c.03-.04.02-.08-.02-.12h.04l.02-.02v-.03l-.34-.73.62-.01c.02 0 .04 0 .05.02.04.02.07.02.1-.01l.03-.02c.25-.09.48-.1.7-.05Z" fill="#EBB69C"/><path d="m9.94 11 .02.04-.03.54c0 .05-.01.09-.04.1-.02.01-.03 0-.04-.01a.56.56 0 0 1 0-.2 10.03 10.03 0 0 1 .1-.48ZM8.45 11.06l.33.73v.03l-.01.02h-.04l-.23-.57c0-.02-.02-.03-.04-.02h-.03l-.01-.01a.34.34 0 0 1-.06-.16l.1-.02Z" fill="#C3A47F"/><path d="M10.35 11.08a4.9 4.9 0 0 0-.22.63.23.23 0 0 1-.1.13l.12-.51c.04-.11.1-.2.2-.25Z" fill="#A88C70"/><path d="m11.98 11.23.09.16v.04h-.04c-.02 0-.03 0-.04.03l-.42.89a.87.87 0 0 1-.15.32c-.24.47-.45 1-.77 1.38a.54.54 0 0 1-.24.17l-.02.01v.05l.03.02c-.56.15-1.14.21-1.73.18-.02-.06 0-.1.06-.13.01 0 .02-.01.01-.03a.83.83 0 0 0-.36-.45.08.08 0 0 1-.04-.05.29.29 0 0 1 .04-.2.2.2 0 0 0 .07-.06l.02-.1c0-.06.03-.12.07-.17.24.12.5.2.76.23.1.02.18.02.22.01l.57-.1c.12-.02.24-.12.38-.3l.32-.57.04-.03c.16-.1.3-.21.39-.36a.12.12 0 0 1 .04-.04.46.46 0 0 0 .2-.2.08.08 0 0 1 .04-.03.23.23 0 0 0 .1-.09c.04-.04.03-.08 0-.1.02-.05.05-.1.1-.13a.1.1 0 0 0 .03-.03l.23-.32Z" fill="#CDC1B5"/><path d="m10.15 11.33-.12.5c0 .02 0 .03-.02.05l-.2.17c0-.02 0-.03-.02-.04h-.05c-.19.08-.31.13-.37.14a.76.76 0 0 1-.46-.07c.04.01.05 0 .04-.03l-.01-.01a.3.3 0 0 1-.16-.09v-.06a.04.04 0 0 1 .02-.02.04.04 0 0 1 .03 0c.17.16.37.22.6.17.11-.02.2-.06.26-.12l.23-.16a.09.09 0 0 0 .03-.05l.04-.11.1-.3.06.03Z" fill="#261911"/><path d="m7.28 12.25-.03.04a1.08 1.08 0 0 0-.17-.06.6.6 0 0 1-.15-.08 10.91 10.91 0 0 0-.42-.25.03.03 0 0 0-.02.02.03.03 0 0 0 .01.02 4.15 4.15 0 0 1 .4.5l.14.1c.03.02.01.06-.03.1l-.63-.3c-.01-.02-.03-.01-.04 0a.25.25 0 0 0-.06.2c.02.1 0 .11-.05.02l-.05-.06c-.01-.01-.03-.01-.03.01a.1.1 0 0 0-.01.06c.02.14.02.26 0 .35a.69.69 0 0 0 0 .26c.02.16.01.33-.02.49l-.32-.22c-.02-.02-.02-.03-.01-.05.07-.14.1-.29.08-.44l.01-.05c.04-.05.05-.1.03-.13a.08.08 0 0 1-.01-.06l.2-.88.13-.39-.01-.02H6.2c0-.01.01-.02.05-.02.02 0 .03 0 .03-.02l-.01-.02.15.2.01.03v.05c0 .02 0 .03.02.04l.83.56Z" fill="#A88C70"/><path d="m10.94 14.12.6-.4a.13.13 0 0 0 .05-.13 3.91 3.91 0 0 1-.1-.68c0-.04-.03-.12-.07-.24.07-.1.12-.2.15-.32.03-.11.08-.2.15-.3.04-.05.08-.08.12-.08.07 0 .12.02.17.07.02.01.03.04.03.06v.21l.04.01h.02a.02.02 0 0 0 .01-.01v-.39a.1.1 0 0 0-.01-.05.63.63 0 0 1-.08-.39h.02l.03-.01v-.08c-.02.18.02.35.12.5a.1.1 0 0 1 .01.05v.58l.01.03.03.06c0 .24.05.47.12.69l-.01.04c-.42.34-.89.6-1.41.78Z" fill="#FCE9C3"/><path d="M12.06 11.43v.04c0 .01 0 .02-.02 0h-.02v.01c-.02.14 0 .27.08.4a.1.1 0 0 1 .01.04v.39l-.01.01h-.05l-.01-.03v-.2c0-.02-.01-.04-.03-.05a.22.22 0 0 0-.17-.07c-.04 0-.08.03-.12.08-.07.1-.12.19-.15.3l.42-.9.04-.02h.03Z" fill="#E4D2B4"/><path d="M11.61 11.72c.04.01.05.04.02.1a.23.23 0 0 1-.1.08.08.08 0 0 0-.05.04.46.46 0 0 1-.2.2.12.12 0 0 0-.04.03c-.1.15-.23.27-.4.36a.08.08 0 0 0-.03.03l-.32.58c-.12 0-.2.04-.26.14-.03.06-.05.05-.06 0l-.04-.23c.1-.04.2-.1.28-.17l.2-.13a.4.4 0 0 0 .15-.16.54.54 0 0 1 .12-.14l.14-.13a.91.91 0 0 1 .2-.22c.09-.06.15-.12.2-.18.06-.07.12-.14.2-.2Z" fill="#A88C70"/><path d="M7.25 12.3c.07.06.19.18.36.37.24.27.55.48.95.62a.27.27 0 0 0-.07.18c0 .04 0 .07-.02.09a.2.2 0 0 1-.07.06c-.28-.04-.5-.1-.68-.18a.56.56 0 0 1-.19-.18v-.05l.04-.04a.04.04 0 0 0-.03-.06h-.19l-.18-.42c-.04-.1-.1-.11-.16-.05.05-.04.06-.08.03-.1a2.1 2.1 0 0 1-.14-.1.1.1 0 0 1-.02-.04 4.15 4.15 0 0 0-.38-.48.03.03 0 0 1 0-.02h.04l.39.25.16.08.16.06Z" fill="#C3A47F"/><path d="M7.28 12.25c.23.11.45.24.67.38.25.17.47.31.68.43.03.02.06.03.1.03.08 0 .19.01.33.04a3.54 3.54 0 0 0 .67.06 1 1 0 0 0 .4-.14l.04.22c.01.06.03.07.06.01.06-.1.14-.15.26-.14-.14.17-.26.27-.38.29l-.57.1h-.22a2.48 2.48 0 0 1-.76-.24c-.4-.14-.71-.35-.95-.62a6.22 6.22 0 0 0-.36-.38c0-.01 0-.03.03-.04Z" fill="#704D3E"/><path d="M7.01 12.64c.07-.06.12-.04.16.05a5.16 5.16 0 0 0 .2.44 1.03 1.03 0 0 0-.38-.09c-.02 0-.04 0-.05.02a.72.72 0 0 0-.11.13c-.04.06-.02.08.04.05l.08-.02c.05-.02.07 0 .03.04l-.08.13c-.04.07-.03.09.05.05l.06-.02c.03-.02.04 0 .04.03v.04l.02.05c.05.07.08.15.09.24 0 .07.03.08.07.03.04-.03.07-.03.1-.01v.04l-.22.31c-.37-.13-.7-.29-.99-.48.03-.16.04-.33.01-.5a.69.69 0 0 1 0-.25.81.81 0 0 0 0-.35.1.1 0 0 1 .02-.06c0-.02.02-.02.03 0l.05.05c.05.1.07.09.05-.02a.25.25 0 0 1 .06-.2c.01-.01.03-.02.04 0l.63.3Z" fill="#D8B789"/><path d="m11.42 12.67.06.24c.02.24.06.46.11.68a.13.13 0 0 1-.05.13l-.6.4-.52.18a.09.09 0 0 1-.03-.02.03.03 0 0 1 0-.03v-.02h.02c.09-.04.17-.1.24-.18.32-.38.53-.91.77-1.38Z" fill="#E5DDD2"/><path d="M7.36 13.13c.15.39.37.73.67 1.04.09.09.19.15.3.2.02.02.03.03 0 .04-.01.02-.05.03-.1.03a5.5 5.5 0 0 1-1.12-.29l.22-.3v-.05c-.03-.02-.06-.02-.1.01-.05.05-.07.04-.07-.03-.01-.09-.04-.17-.09-.24a.08.08 0 0 1-.02-.05v-.04c0-.04-.01-.05-.04-.03l-.06.02c-.08.04-.1.02-.05-.05l.08-.13c.03-.05.02-.06-.03-.04l-.08.02c-.06.03-.08.01-.04-.05a.72.72 0 0 1 .1-.13.07.07 0 0 1 .06-.02c.12 0 .24.03.37.09Z" fill="#E4D2B4"/><path d="M8.4 13.62a.29.29 0 0 0-.04.2.08.08 0 0 0 .04.05c.18.11.3.26.36.45l-.01.04c-.07.02-.09.06-.06.12l-.46-.04c.05 0 .09-.01.1-.03.03-.01.02-.02 0-.03a1.03 1.03 0 0 1-.3-.21 2.88 2.88 0 0 1-.68-1.06h.22a.04.04 0 0 1 0 .06l-.03.04c-.02.01-.02.03 0 .05.06.1.13.15.18.18.17.08.4.14.68.18Z" fill="#CDBA9C"/></svg>