<!-- by TradingView --><svg width="18" height="18" viewBox="0 0 18 18" xmlns="http://www.w3.org/2000/svg"><path fill="url(#a)" d="M0 0h18v18H0z"/><path d="M4 9a4.77 4.77 0 0 1 3-4.37v2.13a3 3 0 0 0 0 4.48v2.13A4.77 4.77 0 0 1 4 9Zm8 0a3 3 0 0 1-1 2.24v2.13c1.77-.73 3-2.41 3-4.37a4.77 4.77 0 0 0-3-4.37v2.13A3 3 0 0 1 12 9Zm-3 1.5a1.5 1.5 0 1 0 0-3 1.5 1.5 0 0 0 0 3Z" fill="#fff"/><defs><linearGradient id="a" x1="-3.04" y1="0" x2="15.4" y2="15.36" gradientUnits="userSpaceOnUse"><stop offset=".16" stop-color="#4C5816"/><stop offset=".65" stop-color="#101216"/></linearGradient></defs></svg>