<!-- by TradingView --><svg width="18" height="18" viewBox="0 0 18 18" xmlns="http://www.w3.org/2000/svg"><path fill="#F0F3FA" d="M0 0h18v18H0z"/><path d="M9 7.03c.2.46.3.93.3 1.41l-.02.5a7.9 7.9 0 0 0-.34.51c-.04.04-.07.04-.07 0L7.3 7.86 4.75 5.24a.02.02 0 0 1 0-.02A3.35 3.35 0 0 1 9 7.02Z" fill="#34A852"/><path d="M10.73 7.82c-.57.24-1.05.61-1.45 1.12A3.47 3.47 0 0 0 9 7.04a3.32 3.32 0 0 1 4.23-1.82c.02 0 .02.01 0 .03l-2.5 2.57Z" fill="#FCBE03"/><path d="m7.3 7.85 1.57 1.6A3.54 3.54 0 0 0 7 9.47l-.48.2h-3.5A.3.3 0 0 1 3 9.6v-.02a3.34 3.34 0 0 1 4.3-1.73Z" fill="#EA4334"/><path d="M11.47 9.66a3.44 3.44 0 0 0-2.49-.15c-.02 0-.03.02-.02.04l.02.1L4.77 14h-.02v-.01c-.3-.85-.27-1.78.09-2.61.33-.77.9-1.35 1.68-1.75L7 9.46a3.54 3.54 0 0 1 1.87 0c0 .03.03.03.07 0a3.63 3.63 0 0 1 1.8-1.63c.74-.27 1.45-.3 2.1-.1a3.45 3.45 0 0 1 2.15 1.88l-.01.01-.02.04h-3.49Z" fill="#4285F4"/><path d="M11.47 9.63A3.52 3.52 0 0 1 13.24 14a.02.02 0 0 1-.02-.01l-4.2-4.34h-.04l-.02-.1c0-.02 0-.03.02-.04a3.44 3.44 0 0 1 2.5.12Z" fill="#34A852"/></svg>