<!-- by TradingView --><svg width="18" height="18" viewBox="0 0 18 18" xmlns="http://www.w3.org/2000/svg"><path fill="url(#a)" d="M0 0h18v18H0z"/><path d="M5 12.8V7.31c0-.16.13-.31.3-.31h1.13c.32 0 .57-.24.57-.57V5.3c0-.16.15-.29.32-.29h3.45c.17 0 .23.13.23.3v1.13c0 .33.34.57.67.57h1.15c.17 0 .3.15.3.31v1.4c0 .17-.13.29-.3.29h-1.15c-.33 0-.67.31-.67.64v1.1c0 .16-.17.26-.33.26H8.23c-.17 0-.23-.1-.23-.26V9.29c0-.16.06-.29.23-.29h2.25c.33 0 .52-.26.52-.59v-.76c0-.33-.2-.59-.52-.59H7.6c-.32 0-.61.26-.61.59v5.15c0 .11-.07.2-.18.2H5.2a.2.2 0 0 1-.2-.2Zm8.54-1.4h-.46c-.04 0-.08-.04-.08-.1v-.2c0-.05.04-.1.08-.1h.5c.05 0 .09.05.09.1v.2c0 .06.03.1.08.1h.17c.04 0 .08.05.08.1v.2c0 .07-.04.11-.08.11h-.17c-.05 0-.08.05-.08.1v.2c0 .05.03.1.08.1h.17c.04 0 .08.05.08.1v.22c0 .05-.04.1-.08.1h-.17c-.05 0-.08.04-.08.1v.17c0 .05-.04.1-.09.1h-.5c-.04 0-.08-.05-.08-.1v-.22c0-.06.04-.1.08-.1h.46c.05 0 .09-.05.09-.1v-.17c0-.05-.04-.1-.09-.1h-.26c-.05 0-.09-.05-.09-.1v-.21c0-.06.04-.1.09-.1h.26c.05 0 .09-.05.09-.1v-.2c0-.05-.04-.1-.09-.1Z" fill="#fff"/><defs><linearGradient id="a" x1="3.35" y1="3.12" x2="21.9" y2="24.43" gradientUnits="userSpaceOnUse"><stop stop-color="#1A1E21"/><stop offset="1" stop-color="#06060A"/></linearGradient></defs></svg>