<!-- by TradingView --><svg width="18" height="18" viewBox="0 0 18 18" xmlns="http://www.w3.org/2000/svg"><path fill="url(#a)" d="M0 0h18v18H0z"/><path d="M8.84 4c-.96.03-1.86.33-2.62.84l1.2 1.65c.41-.26.9-.43 1.42-.45V4Zm1.74 2.49c-.41-.26-.9-.43-1.42-.45V4c.96.03 1.86.33 2.62.84l-1.2 1.65Zm1.18 1.4a2.97 2.97 0 0 0-.87-1.18l1.19-1.65a5.02 5.02 0 0 1 1.6 2.2l-1.92.63Zm.11 1.86a2.98 2.98 0 0 0 0-1.5l1.94-.64a5 5 0 0 1 0 2.78l-1.94-.64Zm-.98 1.54c.38-.31.68-.72.87-1.18l1.93.63a5.02 5.02 0 0 1-1.61 2.2l-1.2-1.65Zm-1.73.67a2.95 2.95 0 0 0 1.42-.45l1.2 1.65c-.76.5-1.66.81-2.62.84v-2.04Zm-1.74-.45c.41.26.9.43 1.42.45V14a4.97 4.97 0 0 1-2.62-.84l1.2-1.65Zm-1.18-1.4c.2.46.5.87.87 1.18l-1.19 1.65a5.01 5.01 0 0 1-1.6-2.2l1.92-.63Zm-.11-1.86a2.97 2.97 0 0 0 0 1.5l-1.94.64a5 5 0 0 1 0-2.78l1.94.64Zm.98-1.54c-.38.31-.68.72-.87 1.18l-1.93-.63c.33-.88.89-1.64 1.61-2.2l1.2 1.65Z" fill="#fff"/><defs><linearGradient id="a" x1="3.35" y1="3.12" x2="21.9" y2="24.43" gradientUnits="userSpaceOnUse"><stop stop-color="#1A1E21"/><stop offset="1" stop-color="#06060A"/></linearGradient></defs></svg>