<!-- by TradingView --><svg width="18" height="18" viewBox="0 0 18 18" xmlns="http://www.w3.org/2000/svg"><path fill="url(#a)" d="M0 0h18v18H0z"/><path d="M13.99 9.46a5.3 5.3 0 0 0 0-.9A4.94 4.94 0 0 0 12.2 5.2a5.3 5.3 0 0 0-7.7 1.1v.03l.12.07.03-.01a5.07 5.07 0 0 1 6.52-1.66A4.83 4.83 0 0 1 13.84 9c0 1.8-1.04 3.45-2.66 4.27a5.07 5.07 0 0 1-6.56-1.67l-.1.06c-.02 0-.02.02-.01.04a5.3 5.3 0 0 0 7.7 1.1 4.94 4.94 0 0 0 1.78-3.34ZM9 5.58c.16 0 .27.15.3.3.01.13 0 .26-.06.38a.52.52 0 0 0-.05.14v.13c0 .01 0 .02.02.03.13.13.26.17.42.22l.09.02c.1.04.19.12.22.24.04.15.01.29-.02.43a21.01 21.01 0 0 0 0 .54c0 .08.02.15.04.23.02.09.05.18.04.27l-.04.5v.55c.01.07 0 .12-.01.16a.97.97 0 0 1-.12.2l-.03.02-.04.01h-.01c-.03 0-.03 0-.02-.03l.04-.06c.05-.06.1-.12.09-.2v-.03h-.02l-.02.01c0 .05-.01.07-.02.08 0 .02-.01.03-.03.03l-.02-.02a.4.4 0 0 1 .07-.33.1.1 0 0 0 .02-.06c0-.16-.03-.29-.06-.46a17.6 17.6 0 0 1-.06-.4v-.05c0-.12 0-.28-.02-.4a6.5 6.5 0 0 1-.06-.5h-.02c0 .1-.02.18-.05.26l-.06.26-.01.3c0 .06 0 .13.03.23.16.54.1 1.14-.01 1.69l-.01.04a2.26 2.26 0 0 0-.07.61c0 .13.01.34-.01.52l-.08.43-.04.23a.72.72 0 0 0 .03.4.06.06 0 0 1 0 .06l-.03.02H9.06l-.01-.02a.04.04 0 0 1 0-.03c.09-.12.1-.24.12-.4v-.25l-.04-.2c-.02-.2-.04-.32-.04-.5 0-.05 0-.1.02-.16a.53.53 0 0 0 .02-.19l-.06-.55a5.37 5.37 0 0 0-.03-.9.05.05 0 0 0-.04-.02c-.02 0-.03 0-.04.02l-.01.03c-.03.29-.04.58-.02.87l-.06.55c0 .07 0 .13.02.2.01.05.03.1.02.16 0 .17-.02.3-.04.48l-.03.2v.25c0 .17.02.29.1.4a.04.04 0 0 1 0 .06H8.71a.05.05 0 0 1-.04-.02.06.06 0 0 1 0-.06.72.72 0 0 0 .02-.4l-.04-.23-.08-.43c-.02-.18-.02-.39-.01-.52v-.06c0-.21-.03-.36-.07-.55v-.04a3.63 3.63 0 0 1-.02-1.7c.02-.09.04-.16.03-.22l-.01-.3-.06-.26a1.24 1.24 0 0 1-.05-.27h-.02a6.5 6.5 0 0 1-.06.5c-.02.13-.02.29-.02.4v.06a1.91 1.91 0 0 1-.06.4c-.03.17-.06.3-.06.46 0 .02 0 .04.02.06.07.1.1.2.07.33l-.02.02c-.02 0-.03 0-.03-.03l-.02-.08-.02-.01h-.01v.03c-.01.08.03.14.08.2l.04.06c.01.02 0 .03-.02.03h-.01a.08.08 0 0 1-.07-.03.97.97 0 0 1-.12-.2.34.34 0 0 1-.02-.16A4.61 4.61 0 0 0 8 8.51a.9.9 0 0 1 .04-.27c.02-.08.04-.15.04-.22a21.01 21.01 0 0 0 0-.55.85.85 0 0 1-.02-.43c.03-.12.11-.2.22-.24l.09-.02c.16-.05.3-.1.42-.22l.02-.03V6.4a.52.52 0 0 0-.05-.14.67.67 0 0 1-.06-.38c.03-.15.14-.3.3-.3Zm0 2.26c.18 0 .32-.15.32-.34 0-.19-.14-.34-.32-.34s-.32.15-.32.34c0 .19.14.34.32.34Z" fill="url(#b)"/><defs><linearGradient id="a" x1="3.35" y1="3.12" x2="21.9" y2="24.43" gradientUnits="userSpaceOnUse"><stop stop-color="#1A1E21"/><stop offset="1" stop-color="#06060A"/></linearGradient><linearGradient id="b" x1="8.86" y1="5.33" x2="8.86" y2="12.66" gradientUnits="userSpaceOnUse"><stop stop-color="#E3C47C"/><stop offset="1" stop-color="#C99E5E"/></linearGradient></defs></svg>