<!-- by TradingView --><svg width="18" height="18" viewBox="0 0 18 18" xmlns="http://www.w3.org/2000/svg"><path fill="#F0F3FA" d="M0 0h18v18H0z"/><circle cx="9" cy="9" r="5" fill="#CF0"/><path d="M6 10.38V7h.8c.33 0 .6.25.88.41.18.11.37.2.56.2h3.58c.1 0 .18.08.18.17v.44c0 .09-.08.16-.18.16H8.9a.56.56 0 0 1-.37-.14l-.35-.33c-.15-.13-.35-.14-.56-.14h-.94v.47h1.47c.16 0 .31.05.44.14l.48.41c.14.1.32.21.5.21h2.26c.1 0 .18.07.18.17v.28c0 .1-.08.17-.18.17h-1.66a.56.56 0 0 1-.35-.13l-.41-.3A.82.82 0 0 0 8.87 9h-2.2v.62H9.5c.11 0 .22 0 .32.05.13.06.23.18.35.26.09.05.17.12.25.18.13.08.28.12.44.12h.95c.1 0 .18.07.18.22v.38c0 .1-.08.17-.18.17h-.3a.57.57 0 0 1-.2-.04c-.14-.05-.24-.14-.36-.2-.18-.1-.33-.24-.52-.31a.79.79 0 0 0-.3-.07H6Z"/><path fill-rule="evenodd" d="M9 14A5 5 0 1 0 9 4a5 5 0 0 0 0 10Zm0-.63a4.38 4.38 0 1 0 0-8.75 4.38 4.38 0 0 0 0 8.75Z"/></svg>