<!-- by TradingView --><svg width="18" height="18" viewBox="0 0 18 18" xmlns="http://www.w3.org/2000/svg"><path fill="url(#a)" d="M0 0h18v18H0z"/><path d="M11.44 6.89 5 4v.86c0 1.09.63 2.06 1.6 2.47L9.36 8.5l1.77-.22.31-1.4Z" fill="url(#b)"/><path d="m11.66 7-.48-.2c.26.41-.07.7-.26.8L7.73 9.07l-.36.74 2.24.92 2.04-.91a.6.6 0 0 0 .35-.54V7.51a.55.55 0 0 0-.34-.5Z" fill="url(#c)"/><path d="m7.3 9.27.54-.25c-.23.47.1.75.3.83L12 11.5V14l-4.61-1.96a.63.63 0 0 1-.39-.58V9.73c0-.2.12-.38.3-.46Z" fill="#136DE4"/><defs><linearGradient id="a" x1="2.1" y1="4.04" x2="15.3" y2="16.24" gradientUnits="userSpaceOnUse"><stop stop-color="#020664"/><stop offset="1" stop-color="#022EB9"/></linearGradient><linearGradient id="b" x1="5.33" y1="5.05" x2="11.31" y2="7.32" gradientUnits="userSpaceOnUse"><stop stop-color="#166FE4"/><stop offset="1" stop-color="#8CBBFA"/></linearGradient><linearGradient id="c" x1="11.76" y1="8.41" x2="8.62" y2="10.57" gradientUnits="userSpaceOnUse"><stop stop-color="#136DE4"/><stop offset="1" stop-color="#579BF5"/></linearGradient></defs></svg>