<!-- by TradingView --><svg width="18" height="18" viewBox="0 0 18 18" xmlns="http://www.w3.org/2000/svg"><path fill="url(#a)" d="M0 0h18v18H0z"/><path d="M12.46 5.4a.19.19 0 0 0-.08-.01.04.04 0 0 0-.03.03c-.03.15-.05.31-.05.47 0 .09-.04.16-.09.22a.61.61 0 0 1-.15.1.77.77 0 0 0-.16.12l-.26-.92a.03.03 0 0 0-.03-.02h-.03a.02.02 0 0 0-.01 0v.01c.02.1.02.19-.01.29l-.01-.23c0-.04-.04-.07-.08-.09a.38.38 0 0 0-.32.01l-.2.07-.49.53a.06.06 0 0 0-.02.04c0 .1.03.18.08.25.01.02.03.02.04 0 0 .03.02.03.04.02a.32.32 0 0 0 .1-.11c.07.06.05.14-.09.23-.04.03-.03.05.02.06l.05.04.01.02v.02l-.03.05a.04.04 0 0 0 0 .05l.05.02c-.03.03-.06.02-.1-.02a1.28 1.28 0 0 1-.28-.6.16.16 0 0 0-.04-.09c-.03-.03-.06-.04-.1-.02l-.1.27a.96.96 0 0 0 0-.44.06.06 0 0 0-.04-.04c-.33-.1-.62-.1-1-.07-.2.02-.46-.04-.62-.03-.16 0-.33.06-.46.07a.03.03 0 0 1-.03-.01.03.03 0 0 1 0-.03c.03-.17.06-.34.07-.5V4.1a4.98 4.98 0 0 1 4.45 1.3Z" fill="#7D746A"/><path d="M8 4.1c.02.55.02.9.01 1.06a3.02 3.02 0 0 1-.07.53.03.03 0 0 0 .03.01c.13 0 .3-.07.46-.07.16 0 .42.05.62.03a2.51 2.51 0 0 1 1.03.09l.01.02c.03.14.03.29 0 .44l-.02.02a.1.1 0 0 1-.08-.03.07.07 0 0 1-.02-.06L10 5.9c0-.02 0-.04-.03-.04a5.86 5.86 0 0 0-1.85-.01.9.9 0 0 1-.16.2.05.05 0 0 1-.07 0 .28.28 0 0 1-.1-.12c-.03-.08-.07-.09-.1 0l-.13.27a.64.64 0 0 1-.2.22.04.04 0 0 1-.03-.02v-.03c.09-.09.14-.2.16-.35l.1-.17V5.8a5.36 5.36 0 0 1-.03-1.59l.46-.1Z" fill="#AEAA9F"/><path d="M7.56 4.21a5.36 5.36 0 0 0 .02 1.63l-.1.17a9.62 9.62 0 0 0-.07-.68c-.05-.33-.03-.7.05-1.09l.1-.03Z" fill="#90877D"/><path d="M7.46 4.24c-.08.4-.1.76-.05 1.1l.07.67a.55.55 0 0 1-.16.35h-.1a6.3 6.3 0 0 1-.15-.14.56.56 0 0 1-.13-.2 1.28 1.28 0 0 0-.09-.21.6.6 0 0 0-.32-.23.08.08 0 0 1-.04-.03c-.06-.08-.13-.24-.24-.29-.13-.05-.2.06-.24.17l-.15.5a2.62 2.62 0 0 0-.85.04 5.02 5.02 0 0 1 2.45-1.73Z" fill="#7D746A"/><path d="m6.82 5.48-.26-.18-.13-.12a.05.05 0 0 1-.02-.04.73.73 0 0 1 .14-.37.07.07 0 0 1 .08-.03c.27.1.4.3.4.58a.1.1 0 0 1-.04.07.55.55 0 0 1-.17.09Z" fill="#90877D"/><path d="M7.21 6.36c0 .18-.05.34-.17.48l.04-.26a.12.12 0 0 0-.05-.13 2.04 2.04 0 0 0-.2-.1c-.03-.02-.05-.01-.06.02-.03-.02-.04-.03-.02-.03 0-.1-.01-.2-.04-.3a.63.63 0 0 0-.12-.24 1.72 1.72 0 0 1-.18-.26c-.01-.02-.03-.03-.06-.02-.02 0-.03.01-.03.03 0 .03.02.06.04.1v.04c0 .02-.02.03-.04.03a.07.07 0 0 0-.05-.03c-.01 0-.02 0-.03.03-.08.16-.13.34-.14.53a2 2 0 0 0 .03.32c.02.11.03.22.02.33a1.74 1.74 0 0 1-.12-.99.4.4 0 0 1 .08-.17.78.78 0 0 0 .11-.23.08.08 0 0 0-.03-.1l-.03-.03c-.05-.04-.08-.03-.09.03-.04.21-.1.4-.17.57a.76.76 0 0 0-.03.35l.04.27c-.35-.35-.68-.24-1.09-.22-.02 0-.02-.01-.02-.03v-.08l.1-.13c.34-.06.62-.1.85-.12.07-.01.1-.04.1-.1l.16-.5c.04-.1.11-.21.24-.16.1.05.18.21.24.3l.04.02a.6.6 0 0 1 .32.23l.1.2c.02.08.06.15.12.2l.14.15Z" fill="#9F9B90"/><path d="m6.56 5.3.26.18c.07.1.15.22.24.29.1.07.2.17.3.28a.2.2 0 0 1 .04.11v.03c-.02.03-.04.03-.06 0l-.36-.29a.45.45 0 0 1-.11-.17.71.71 0 0 0-.3-.34.07.07 0 0 1-.03-.04c0-.03 0-.04.02-.05Z" fill="#3A281D"/><path d="M11.56 5.69c.14.28.23.58.26.89-.01.2-.1.23-.23.3-.09.06-.1.04-.07-.05l.07-.13v-.04a.05.05 0 0 0-.02-.03l-.1-.05-.01-.04.05-.36v-.02l-.33-.33a.05.05 0 0 0-.05-.02c-.04 0-.07 0-.1-.02a.32.32 0 0 1 .25-.03h.04c.06-.04.07-.09.05-.15-.04-.11-.09-.23-.22-.23.1-.05.2-.05.32 0 .04.01.07.04.08.08v.23Z" fill="#9F9B90"/><path d="M6.15 6.9c.03.08.07.13.12.14.08.03.13.06.16.09-.06.03-.13.01-.22-.05L6.03 7a.04.04 0 0 1-.02-.04 1.08 1.08 0 0 0-.1-.36l-.04-.27a.76.76 0 0 1 .03-.35c.07-.17.13-.36.17-.57.01-.06.04-.07.09-.03l.03.03c.03.02.04.06.03.1a.78.78 0 0 1-.11.23.4.4 0 0 0-.08.17c-.05.35-.02.68.12 1Z" fill="#BEBDBB"/><path d="m11.9 6.33.04.16v.13l-.03-.03c-.01-.02-.02-.01-.03 0l-.05.21-.01-.22a2.5 2.5 0 0 0-.26-.9.42.42 0 0 0 0-.28v-.01a.02.02 0 0 1 .02 0h.03a.03.03 0 0 1 .03.02l.26.92Z" fill="#554435"/><path d="M11.15 5.38c.13 0 .18.12.22.23.02.06 0 .1-.05.14a.06.06 0 0 1-.04 0 .32.32 0 0 0-.24.04h-.08l-.27.39a.31.31 0 0 1-.09.1c-.02.02-.03.02-.04 0l.03-.35.02-.04.35-.44.19-.07Z" fill="#D3D2CF"/><path d="M12.46 5.4c.21.2.4.41.56.66l.25.46v.03c0 .01 0 .02-.02.02h-.01l-1.13.04c-.09 0-.14-.04-.17-.12l-.04-.16c.04-.04.1-.07.16-.11a.61.61 0 0 0 .15-.11.37.37 0 0 0 .09-.22c0-.16.02-.32.05-.47 0-.02.01-.03.03-.03h.08ZM10.96 5.45l-.35.44a.08.08 0 0 0-.02.04l-.03.35c-.01.01-.03.01-.04-.01a.42.42 0 0 1-.08-.25l.02-.04.5-.53Z" fill="#9F9B90"/><path d="M6.75 6.34a.09.09 0 0 1-.06-.05c-.02-.16-.26-.45-.37-.57.02 0 .03 0 .04-.03v-.05a.23.23 0 0 1-.04-.09c0-.02.01-.03.03-.03.03 0 .05 0 .06.02.06.1.11.19.18.26.06.08.1.16.12.25.03.1.04.19.04.29Z" fill="#7D746A"/><path d="M6.32 5.72c.11.12.35.4.37.57a1.34 1.34 0 0 1-.37-.23c-.06-.06-.08-.04-.07.03l.08.7a.19.19 0 0 1-.09-.06.07.07 0 0 1-.01-.04l.01-.97c0-.02.02-.03.03-.03.02 0 .04.01.05.03Z" fill="#665A4E"/><path d="m6.24 5.72-.01.97.01.04.09.06c.06.08.24.25.1.34-.03-.03-.08-.06-.16-.09-.05-.01-.1-.06-.12-.14 0-.1 0-.22-.02-.33a2 2 0 0 1-.03-.32c.01-.2.06-.37.14-.53Z" fill="#7D746A"/><path d="M10.07 6.23c-.12.1-.2-.03-.28-.12-.05-.05-.12-.07-.2-.07-.11.02-.22.02-.33.02a.3.3 0 0 0-.24.1c-.04.05-.06.04-.06-.02v-.25a.05.05 0 0 0-.01-.05c-.16-.1-.3-.04-.47-.06.5-.03 1-.03 1.48.07.02 0 .04.02.03.04l-.02.25.02.06a.1.1 0 0 0 .08.03Z" fill="#BA9170"/><path d="M8.48 5.78c.17.02.31-.04.47.06a.05.05 0 0 1 .02.05l-.01.25c0 .06.02.07.06.02a.3.3 0 0 1 .24-.1c.11 0 .22 0 .32-.02.04.42-.27.7-.63.77a.11.11 0 0 1-.13-.07.11.11 0 0 1-.01-.05l.06-.76c0-.1-.02-.1-.08-.03-.12.13-.24.28-.35.45-.04.05-.14.14-.32.26-.1.08-.25.2-.3.28a4.6 4.6 0 0 1-.4.71l.01.03.25.19.25.2c.12.1.18.22.28.34.07.26.2.55.07.81-.13.25-.3.5-.5.77a.15.15 0 0 0-.1.03c-.04 0-.06.03-.07.07 0 .16.11.33.16.48l-.07-.04a.21.21 0 0 0-.11-.11l-.12.54c-.02.12.02.2.12.25l.03.02c.1.05.17.01.18-.1a1 1 0 0 0 0-.39.9.9 0 0 1-.03-.17l.28.65a.04.04 0 0 1-.02.05h-.02l-.32.02a.55.55 0 0 1-.22-.09c-.02-.01-.03 0-.03.01v.08a.4.4 0 0 1-.12-.15.08.08 0 0 1-.01-.04l.01-.16v-.03l-.08-.1a1.17 1.17 0 0 1-.03-.4l-.01-.03h-.02c-.12 0-.17-.03-.15-.08a.4.4 0 0 0 .2-.07l.04.18c0 .02 0 .03.03.03l.14.07c.07.03.08.02.05-.05a.96.96 0 0 1-.07-.35.04.04 0 0 0-.03-.03c-.03-.01-.06 0-.09.06 0-.08.02-.15.04-.21.03-.06.07-.1.13-.14.15-.08.3-.2.44-.35.06-.07.05-.1-.04-.06l-.2.1c-.1.04-.28-.12-.34-.18l.38-.01c.02 0 .03 0 .04-.02a.28.28 0 0 0 .07-.14l-.01-.04c-.1-.07-.19-.16-.25-.25-.04-.05-.05-.09-.05-.12.04 0 .07.03.08.08.04.11.11.17.23.17A.09.09 0 0 1 7.9 9l.02.14a.04.04 0 0 0 .03.03.03.03 0 0 0 .03-.01c.14-.2.2-.43.17-.7a.35.35 0 0 0-.12-.22.83.83 0 0 0-.66-.22.02.02 0 0 0 0 .03.9.9 0 0 1 .08.08c.05.06.04.08-.03.06-.1-.04-.25-.08-.38-.08-.04 0-.09.02-.14.05a.94.94 0 0 1-.27.14.1.1 0 0 0-.06.13l.03.13c0 .13-.04.14-.13.04-.1-.1-.2-.2-.34-.29-.1-.08-.1-.14-.02-.2a.32.32 0 0 1 .12-.03c.2 0 .34-.07.42-.17.05-.05.04-.07-.03-.06a.98.98 0 0 0-.27.1.03.03 0 0 1-.03-.03v-.03l.11-.1c.02 0 .03-.02.05-.06l.03-.03.16-.03a.02.02 0 0 0 .02-.02.03.03 0 0 0-.01-.03l-.08-.04V7.5c.05 0 .09-.02.12-.07.05-.08.06-.13.03-.17.1-.07.17-.15.22-.25.03-.02.06-.08.07-.18.12-.14.18-.3.17-.48h.1v.03a.04.04 0 0 0 .06.01.64.64 0 0 0 .18-.21l.13-.27c.03-.09.07-.08.1 0 .02.04.05.09.1.12a.05.05 0 0 0 .07 0 .9.9 0 0 0 .16-.2c.02-.04.07-.06.13-.05l.24-.01Z" fill="#976E50"/><path d="M10.96 5.8c0 .05-.01.1-.06.15a.06.06 0 0 0-.02.04v.13a.1.1 0 0 1-.02.05.78.78 0 0 0-.07.43.27.27 0 0 0-.08.07c-.02 0-.04 0-.05-.02a.04.04 0 0 1 0-.05l.03-.05v-.02l-.01-.02a.26.26 0 0 0-.05-.04c-.05-.01-.06-.03-.02-.06.14-.09.16-.17.08-.23l.27-.38Z" fill="#AEAA9F"/><path d="M11.04 5.8c.02.01.05.02.1.01.01 0 .03 0 .04.02l.33.33v.02l-.05.36c0 .02 0 .03.02.04l.1.05a.05.05 0 0 1 .01.07l-.07.13c-.04.09-.01.1.07.06.13-.08.22-.1.23-.31l.01.22c0 .18-.08.3-.23.35a.34.34 0 0 1-.15.02c-.02 0-.03-.02-.03-.03l-.04-.42v-.3c0-.15-.07-.2-.18-.29a.07.07 0 0 0-.06-.01.74.74 0 0 0-.24.12.07.07 0 0 0-.03.03l-.08.33c-.02-.15 0-.3.07-.43a.1.1 0 0 0 .01-.05l.01-.13.02-.04c.05-.05.07-.1.06-.15h.08Z" fill="#7D746A"/><path d="M9.58 6.04c.1 0 .16.02.2.07.1.1.17.21.29.12l.02-.02.1-.27-.02.28-.34.28c-.37.26-.79.48-1.05.85-.05.07-.07.07-.07-.02a6.7 6.7 0 0 1 .1-1.18.03.03 0 0 0-.02 0c-.32.1-.23.55-.47.74-.3.22-.73.49-.64.93l-.25-.19a.05.05 0 0 1-.02-.03l.01-.04c.15-.2.29-.43.4-.67.05-.09.2-.2.3-.28.18-.12.28-.21.32-.26.11-.17.23-.32.35-.45.06-.07.08-.06.08.03l-.06.76a.11.11 0 0 0 .08.12h.06c.36-.08.67-.35.63-.77Z" fill="#885F43"/><path d="M10.7 6.67a.27.27 0 0 1 .09-.07l.08-.33c0-.01.01-.03.03-.03.07-.06.15-.1.24-.12a.07.07 0 0 1 .06.01c.1.1.17.14.18.3v.3l-.05-.2c0-.03-.02-.04-.05-.04a.4.4 0 0 0-.31.14.48.48 0 0 0-.07.16.36.36 0 0 1-.12.2.54.54 0 0 1-.29-.26.03.03 0 0 0-.03-.01.03.03 0 0 0-.03.01c-.11.2-.22.46-.33.63-.13.18-.26.37-.37.57a.03.03 0 0 0 0 .03.03.03 0 0 0 .02.02c.17.03.34.04.52.04.22 0 .37.1.46.3v.04c0 .01 0 .03-.02.04l-.34.27a.09.09 0 0 1-.07.02 3.2 3.2 0 0 1-.48-.15.51.51 0 0 0-.22 0c-.08-.36-.07-.67.01-.92l.14-.33c.08-.17.12-.34.16-.52.03-.1.15-.27.21-.43l.05-.12.02-.28c.04-.02.07-.01.1.02.02.02.04.05.04.09.04.22.14.42.29.6.03.04.06.05.09.02Z" fill="#493527"/><path d="M6.69 6.3c.01.02.03.03.06.04-.02 0-.01 0 .02.03l.14.15v.04a.37.37 0 0 0-.14.21l.01.05.19.2a.63.63 0 0 1-.22.25.7.7 0 0 0-.16-.13c-.08-.04-.1-.02-.06.06.03.06.04.13.03.23 0 .03.01.05.05.08l-.01.07c-.12-.05-.16-.13-.13-.24a.07.07 0 0 0-.04-.09h-.04a.26.26 0 0 1-.2-.07l-.02-.04c0-.03 0-.04.04-.06.09.06.16.08.22.05.14-.09-.04-.26-.1-.34l-.08-.7c-.01-.07.01-.09.07-.03.1.09.22.17.37.23Z" fill="#554435"/><path d="m13.4 6.62-.08.5a1.1 1.1 0 0 1-.12.35c-.09.16-.2.32-.34.5-.23.27-.36-.12-.44-.3a.07.07 0 0 1 .03-.09c.33-.18.42-.45.56-.74.04-.08.02-.12-.07-.13h-.58a.33.33 0 0 1-.25-.1l1.13-.04a.04.04 0 0 0 .03-.02v-.03l-.25-.46c.15.16.28.35.37.56Z" fill="#90877D"/><path d="m9.83 6.5-.29.5c-.01.03-.08.1-.2.2-.2.16-.39.36-.53.48a.06.06 0 0 1-.1-.02l-.04-.12a.04.04 0 0 0-.07-.02l-.29.3c-.07.07-.13.05-.21.03h-.04a.05.05 0 0 0-.03.03.27.27 0 0 0-.01.13c0 .02.02.04.04.05l.33.16.02.02.01.1c.02.17.09.3.2.43a.07.07 0 0 0 .08.01l.02-.01c.11-.14.27-.37.42-.48.1-.08.2-.1.28-.05a.58.58 0 0 0-.23.25c-.05.09-.05.14 0 .16.05.07.11.1.2.1-.18.12-.4.18-.54.34-.1.13-.2.23-.32.32l.15-.36-.01-.04a2.8 2.8 0 0 1-.46-.65c-.1-.12-.16-.23-.28-.33l-.25-.21c-.09-.44.35-.7.64-.93.24-.19.15-.63.47-.74a.03.03 0 0 1 .03 0 .03.03 0 0 1 0 .03 6.7 6.7 0 0 0-.11 1.15c0 .09.02.1.07.02.26-.37.68-.6 1.05-.85Z" fill="#755036"/><path d="m10.17 6.22-.05.12c-.06.16-.18.33-.2.43-.05.18-.09.35-.17.52a3.8 3.8 0 0 0-.14.33c-.08.25-.09.56-.01.92l-.05.1-.05.02c.03-.05.05-.1.04-.17a.3.3 0 0 0-.05-.13 1.26 1.26 0 0 1-.07-.12c-.08-.05-.17-.03-.28.05-.15.11-.3.34-.42.48a.07.07 0 0 1-.08.02l-.02-.02a.74.74 0 0 1-.2-.42l-.01-.1c0-.02 0-.02-.02-.03l-.33-.16a.07.07 0 0 1-.04-.05l.01-.13.03-.03h.04c.08.02.14.04.21-.03a4.9 4.9 0 0 0 .33-.31.04.04 0 0 1 .03.03l.04.12a.06.06 0 0 0 .1.02l.52-.48c.13-.1.2-.17.21-.2l.29-.5.34-.28Z" fill="#5D412F"/><path d="M4.8 6.27v.08c0 .02 0 .03.02.03.41-.02.74-.13 1.09.22.05.11.08.23.1.36 0 .02 0 .03.02.04l.18.08c-.03.02-.05.03-.04.06-.14 0-.23.03-.26.11-.02-.25-.05-.4-.09-.47-.25-.43-.86-.25-1.17.01a.05.05 0 0 0-.01.06l.01.02.22.22a.06.06 0 0 1 .01.04 1.23 1.23 0 0 1-.18.53.02.02 0 0 0 .03.03c.24-.05.43.04.55.26a.32.32 0 0 1-.08.14c-.22.1-.4.06-.56-.13a.05.05 0 0 0-.08 0c-.12.2-.23.39-.5.38a5.64 5.64 0 0 1 .74-2.07Z" fill="#90877D"/><path d="M9.24 6.43a.37.37 0 0 1-.21.27.11.11 0 0 1-.15-.05c-.1-.21.2-.34.36-.34.02 0 .03.01.03.03 0 .03 0 .04-.02.06a.05.05 0 0 0-.01.03Z" fill="#BA9170"/><path d="M7.04 6.84c-.01.1-.04.16-.07.18l-.19-.2a.05.05 0 0 1-.01-.05.37.37 0 0 1 .13-.21c.02-.01.02-.03 0-.04l-.13-.15c.01-.03.03-.04.07-.02l.19.1a.12.12 0 0 1 .06.13l-.05.26Z" fill="#BEBDBB"/><path d="m11.38 6.72.04.42.03.03c.05 0 .1 0 .15-.02.02.01.04.03.05.06l-.24.17a.03.03 0 0 0-.01.04l.03.05c.05.13.14.26.28.4-.1 0-.18 0-.26-.02-.09-.1-.17-.21-.24-.33a.14.14 0 0 1-.02-.12l.05-.28c0-.06-.02-.07-.06-.03l-.2.14c-.17 0-.24-.06-.2-.25.06-.05.1-.11.12-.19a.48.48 0 0 1 .07-.16.4.4 0 0 1 .31-.14c.03 0 .04.01.05.04l.05.2Z" fill="#1E1B1A"/><path d="M12.1 6.6c.07.08.16.1.26.1l.58.01c.09 0 .11.05.07.13-.14.29-.23.56-.56.74a.07.07 0 0 0-.03.09c.08.18.2.57.44.3.14-.18.25-.34.34-.5.06-.1.1-.22.12-.35l.07-.5a7.46 7.46 0 0 1 .4 1c-.29.23-.59.54-.46.95.04.16.07.29.1.5 0 .1-.04.13-.1.18a.05.05 0 0 1-.05 0c-.21-.06-.34-.11-.4-.16l-.82-.73-.03-.76c.05-.24.03-.47-.05-.7l-.04-.28v-.13c.03.08.08.12.17.12Z" fill="#7D746A"/><path d="M5.9 7.25c0 .2.05.35.18.46v.01h-.02c-.11.02-.18.1-.2.25l-.01-.14a.08.08 0 0 0-.08-.07.8.8 0 0 0-.49.19c-.12-.22-.3-.3-.55-.26a.02.02 0 0 1-.03-.04 1.23 1.23 0 0 0 .18-.54l-.01-.02-.22-.22a.05.05 0 0 1-.01-.06l.01-.02c.3-.26.92-.44 1.17-.01.04.07.07.22.09.47Z" fill="#887C72"/><path d="M10.78 6.98c-.04.19.03.25.2.25-.01.24.1.36.24.53l.07.1a9.16 9.16 0 0 1 .28.65l-.01.04c-.18.2-.38.31-.62.36a5.7 5.7 0 0 1-.53.08c.04-.05.06-.08.06-.1a.1.1 0 0 0-.07-.11c-.18-.07-.5-.16-.68-.12a.08.08 0 0 0-.04.02l-.4.4c-.08.25-.09.55-.26.74l-.34.37h-.14A9.46 9.46 0 0 0 9.04 9a.13.13 0 0 1 .07-.04c.2-.06.36-.1.44-.33l.05-.1c.1-.02.17-.01.22 0a3.2 3.2 0 0 0 .51.15l.04-.02.34-.27a.07.07 0 0 0 .02-.09.46.46 0 0 0-.46-.3 3.09 3.09 0 0 1-.55-.05.03.03 0 0 1 0-.03c.12-.2.25-.39.38-.57.11-.17.22-.43.33-.63a.03.03 0 0 1 .03-.01.03.03 0 0 1 .03.01c.07.12.16.2.29.25Z" fill="#3A281D"/><path d="M12.03 7.6a.51.51 0 0 1-.14.22c-.08.07-.14.09-.18.04a1.3 1.3 0 0 1-.28-.4l.14.07a.05.05 0 0 0 .06-.02c.07-.1.1-.2.13-.32.02.07.01.15 0 .24-.02.03 0 .04.02.04s.04 0 .05-.02a.26.26 0 0 0 .07-.1l.08-.45c.08.23.1.46.05.7ZM11.45 7.85c-.02 0-.04 0-.05.02v.04c.24.3.33.62.46 1.03.05.17.05.34.1.52.04.4-.06.82-.12 1.2-.02.13-.01.23.04.3l.4.6c.07.13.1.26.14.4l.03.02.02.03.18.4c-.34.36-.73.67-1.19.93l-.37-.08c-.17-.03-.17-.08 0-.14l.6-.21c.02 0 .02-.02.02-.03a.28.28 0 0 0-.03-.06c-.06-.06-.05-.1.05-.13l.2-.04s.02 0 .02-.02v-.02c0-.01-.01-.02-.03-.02l-.22-.02c-.02 0-.03 0-.04-.02a.6.6 0 0 0-.26-.16.05.05 0 0 0-.05 0c-.04.04-.07.1-.12.12-.1.06-.21.04-.32-.06a1.6 1.6 0 0 1-.27-.37c.16.07.35.1.57.09.14 0 .24 0 .3.02a12.68 12.68 0 0 1 .41.12.03.03 0 0 0 0-.03l-.22-.58a.72.72 0 0 1-.04-.3.04.04 0 0 0-.06-.03l-.18.06a.04.04 0 0 0-.02.02v.03l.18.38v.05c-.05.15-.31.08-.43.05-.1-.03-.3-.18-.46-.24a4.48 4.48 0 0 0-.2-.07.04.04 0 0 0-.04.02v.03l.05.21c-.11-.04-.16-.12-.16-.22 0-.02 0-.03.02-.04.3-.18.5-.38.64-.6l.52-.8a.9.9 0 0 0 .15-.7c-.07-.44-.47-.48-.84-.49a.08.08 0 0 0-.07.06.66.66 0 0 0-.03.18c0 .26-.02.48-.06.67-.06.28-.17.35-.31.54h-.01l-.25.29c.03-.1.1-.25.22-.44.05-.09.06-.2.02-.3-.08-.29-.67-.51-.28-.83.17-.06.23-.15.35-.24l.53-.08c.24-.05.44-.17.62-.36a.07.07 0 0 0 0-.08 9.06 9.06 0 0 0-.34-.7c-.14-.18-.25-.3-.23-.54l.19-.14c.04-.04.06-.03.06.03l-.05.28c-.01.04 0 .08.02.12.07.12.15.23.24.33Z" fill="#554435"/><path d="M6.75 7.27c.03.04.02.1-.03.17-.03.05-.07.07-.11.07-.04-.03-.06-.05-.05-.08 0-.1 0-.17-.03-.23-.04-.08-.02-.1.06-.06.04.02.1.06.16.13Z" fill="#D3D2CF"/><path d="m6.17 7.14.03.04c0 .14.03.26-.06.4-.02.02-.02.04-.02.05 0 .02.02.04.04.06l-.08.02c-.13-.1-.18-.26-.17-.46.03-.08.12-.12.26-.11Z" fill="#BEBDBB"/><path d="m6.6 7.58.08.04a.03.03 0 0 1 .01.03.02.02 0 0 1-.02.02l-.16.03a.05.05 0 0 0-.03.03c-.02.04-.03.06-.05.06l-.27-.1a.1.1 0 0 1-.04-.06c0-.01 0-.03.02-.05.09-.14.05-.26.06-.4.06.05.12.07.2.07a.08.08 0 0 1 .07.06v.03c-.03.11.01.19.13.24Z" fill="#AEAA9F"/><path d="M11.76 7.19c-.02.11-.06.22-.13.32a.05.05 0 0 1-.06.02l-.14-.06a.17.17 0 0 1-.03-.05l.01-.04.24-.17c.04-.03.08-.04.11-.02Z" fill="#665A4E"/><path d="M6.42 7.66c.03.02.08 0 .09-.02 0-.03-.01-.07-.05-.08-.04-.02-.08 0-.1.02 0 .03.02.07.06.08Z" fill="#7D746A"/><path d="m12.03 7.6.03.76-.1.73-.01.37c-.04-.18-.04-.35-.1-.52-.12-.41-.21-.72-.45-1.03v-.04l.05-.02c.08.02.16.02.26.01.04.05.1.03.18-.04a.51.51 0 0 0 .14-.22Z" fill="#665A4E"/><path d="M13.83 7.77a.46.46 0 0 0-.1.31 66.46 66.46 0 0 1 0 2.19c-.01.13.01.16.07.09l-.14.4c-.4.26-.91.41-1.2-.1-.08-.14-.14-.3-.18-.46-.1-.37-.23-.73-.31-1.1l.09-.74.83.73c.05.05.18.1.39.16h.04c.07-.05.12-.08.1-.18a2.65 2.65 0 0 0-.1-.5c-.12-.41.18-.72.47-.95l.04.15Z" fill="#887C72"/><path d="m6.16 7.7.27.1-.11.1c-.08.05-.11.12-.1.18-.05.01-.09.02-.1.04-.09.05-.08.11.01.2-.02.14-.02.28 0 .42l-.09.03c-.04-.15-.06-.3-.07-.46a.45.45 0 0 0-.05-.17.8.8 0 0 1-.06-.17c.02-.15.09-.23.2-.24h.01V7.7l.09-.02Z" fill="#EDD6BE"/><path d="m5.86 7.97.06.17c.03.06.04.12.05.17 0 .16.03.3.07.46.06.2.1.4.11.6.01.16.03.29.05.38.06.3.15.51.23.77-.2.08-.46.18-.6.33-.15.14-.26.27-.47.34-.27.09-.54.12-.8.11l-.02-.05-.28-.73c.2.01.39 0 .58-.02.21-.03.33-.14.36-.33.05-.31-.08-.48-.38-.5a.67.67 0 0 0-.56.23.06.06 0 0 0-.02.05c0 .03.01.05.03.07a.15.15 0 0 0-.03.05c-.06.03-.09.07-.08.14l.03.19A6.13 6.13 0 0 1 4 8.92c0-.18.01-.34.04-.46.2.15.45.15.73 0 .18-.1.32-.22.43-.37a.32.32 0 0 0 .08-.14.8.8 0 0 1 .49-.2.08.08 0 0 1 .08.08v.14Z" fill="#7D746A"/><path d="m13.83 7.77.06.2c0 .23.05.47.06.67 0 .17.02.32 0 .51v.4l-.15.8c-.06.08-.08.05-.07-.08l.02-.64-.01-1.55c0-.12.03-.23.1-.3Z" fill="#AEAA9F"/><path d="M6.23 8.08c-.02-.06 0-.13.09-.19v.03a.03.03 0 0 0 .03.02h.01a.98.98 0 0 1 .26-.09c.07-.01.08.01.03.06-.08.1-.22.16-.42.17Z" fill="#90877D"/><path d="M5.2 8.1c-.1.14-.25.26-.43.36-.28.15-.52.15-.73 0l.02-.12c.27 0 .38-.18.5-.37a.05.05 0 0 1 .08 0c.15.18.34.22.56.12Z" fill="#887C72"/><path d="m7.51 8.67-.1-.11a.04.04 0 0 0-.04-.01c-.03 0-.04.03-.03.07 0 .03 0 .05-.04.06l-.34.07a.06.06 0 0 0-.05.07c.01.08.03.14.06.18-.04 0-.08-.04-.14-.1-.2 0-.4-.02-.59-.07a.44.44 0 0 1-.1-.1 1.14 1.14 0 0 1 0-.42c.12.09.24.19.33.3.09.1.13.08.13-.05a.57.57 0 0 0-.03-.13.1.1 0 0 1 .06-.13c.1-.03.19-.07.27-.14.05-.03.1-.05.14-.05.13 0 .28.04.38.08.07.02.08 0 .03-.06a.9.9 0 0 0-.09-.1.02.02 0 0 1 .02-.02c.25-.01.47.06.65.23.07.06.1.13.12.22.03.27-.03.5-.17.7a.03.03 0 0 1-.03 0 .04.04 0 0 1-.03-.02L7.9 9a.09.09 0 0 0-.08-.08c-.12 0-.2-.06-.23-.17-.01-.05-.04-.08-.08-.08Z" fill="#BA9170"/><path d="m9.42 8.24.07.12c.03.06.05.1.05.13 0 .07 0 .12-.04.17l-.12.1a.25.25 0 0 1-.2-.11c.1.03.19.01.26-.05a.03.03 0 0 0 0-.05.4.4 0 0 0-.25-.06c.04-.1.12-.18.23-.25Z" fill="#976E50"/><path d="M8.53 9.41c-.2.25-.46.43-.75.53.2-.27.37-.52.5-.77.13-.26 0-.55-.07-.81.12.24.28.46.46.65v.04l-.14.36Z" fill="#885F43"/><path d="M9.18 8.65c-.04-.02-.04-.07 0-.16a.4.4 0 0 1 .26.06.03.03 0 0 1 0 .05.27.27 0 0 1-.26.05Z" fill="#887C72"/><path d="M7.51 8.67c0 .03.01.07.05.12.07.14.03.27-.1.39a.07.07 0 0 1-.05.02h-.17l-.1-.03L6.97 9a.37.37 0 0 1-.06-.18.06.06 0 0 1 .05-.07l.34-.07c.04 0 .05-.03.04-.06-.01-.04 0-.06.03-.07h.05l.1.12Z" fill="#38312B"/><path d="M9.55 8.64c-.08.24-.25.27-.44.33a.13.13 0 0 0-.1.1 9.46 9.46 0 0 1-.48 1.11l-.36.01-.08.02c0-.03-.01-.05-.03-.06a24.28 24.28 0 0 0-.38-.16v-.02a1.66 1.66 0 0 0 .84-.56c.13-.09.24-.2.33-.32.13-.16.36-.22.53-.33l.12-.1.05-.02Z" fill="#554435"/><path d="m6.14 8.74.1.1c.05.08.14.13.26.14.11 0 .21 0 .31-.02h.03l.02.03c.02.09.02.18.02.27 0 .05-.03.14-.07.27-.07.2-.07.4 0 .63l.29.42.14.18.07.1.01.03-.01.16v.04a45.48 45.48 0 0 1 .6.6c.01.02.03.02.07.02.1.05.19.1.28.12.2.05.34.1.4.14.09.07.16.13.21.2a.03.03 0 0 1 0 .04.03.03 0 0 1-.04.01.99.99 0 0 0-.38-.04c-.04.01-.07 0-.1-.01a.05.05 0 0 1-.01-.05c0-.04 0-.08-.02-.13a.04.04 0 0 0-.03-.02c-.07 0-.2-.06-.42-.15a.53.53 0 0 0-.33-.02c-.01 0-.02 0-.01.02.1.29.12.53.05.75-.03.08-.01.1.06.05l.2-.14c.13-.08.15-.06.07.06-.03.03-.05.1-.1.14-.17.21-.23.43-.34.64-.04.08-.02.1.06.06l.28-.14c.03-.02.06-.02.09 0v.03l-.49.48c-.29-.1-.56-.22-.83-.37a.2.2 0 0 1 .03-.16l.02-.05.1-.67a.05.05 0 0 1 .02-.03.05.05 0 0 1 .04-.01l.32.05c.02 0 .03 0 .04-.03l.28-.58v-.02c0-.01 0-.02-.02-.02-.17-.1-.31-.24-.4-.42l-.11-.3a.8.8 0 0 0-.43-.48l-.04-.14c-.08-.26-.17-.48-.23-.77-.02-.1-.04-.22-.05-.38-.02-.2-.05-.4-.1-.6l.09-.03Z" fill="#EEEAE2"/><path d="M7.33 9.25c-.02 0-.05 0-.1-.04l.18-.01.04-.02c.14-.12.18-.25.1-.39.07.1.16.18.26.25.01.01.02.03.01.04a.28.28 0 0 1-.07.14.06.06 0 0 1-.04.02l-.38.01Z" fill="#554435"/><path d="M6.83 8.9c.17.28.27.59.38.88a.07.07 0 0 1-.03.09c-.14.06-.26.16-.37.29a1.01 1.01 0 0 1 0-.63c.04-.13.07-.22.07-.27 0-.09 0-.18-.02-.27l-.02-.03h-.03c-.1.02-.2.03-.3.02-.13 0-.22-.06-.27-.15.2.05.4.07.6.07Z" fill="#EDD6BE"/><path d="m5.18 9.15.14-.25.04-.04c.35-.1.4.36.3.56-.02.01-.03.02-.04.01-.16-.05-.3-.12-.43-.23a.04.04 0 0 1-.01-.05Z" fill="#90877D"/><path d="m6.97 9 .17.17a5 5 0 0 0 .11.37c.04.11.02.25-.06.4l-.16.31c-.02.05.03.07.15.08v.04c0 .02-.01.02-.03.03a.45.45 0 0 1-.06.01.03.03 0 0 0-.02.04l.03.13-.29-.42c.11-.13.23-.23.37-.3a.07.07 0 0 0 .03-.08c-.11-.3-.21-.6-.38-.88.06.06.1.1.14.1Z" fill="#BEBDBB"/><path d="M10.5 11.91c.05.03.1.09.14.17.07.12.16.25.27.37.1.1.21.12.32.06.05-.02.08-.08.12-.11l.02-.01h.03c.1.03.18.08.26.16l.04.02.22.02c.02 0 .03 0 .03.02v.02l-.02.02-.2.04c-.1.03-.11.07-.05.13l.03.06c0 .01 0 .02-.02.03l-.6.21c-.17.06-.17.1 0 .14l.37.08-.3.16c-.12-.17-.26-.17-.43-.21l-.01-.01a.03.03 0 0 1 0-.03v-.01a.92.92 0 0 0 .22-.2.05.05 0 0 1 .04-.03h.17c.1.02.2-.03.3-.14.04-.05.03-.09-.03-.11-.21-.09-.48-.2-.62-.4l-.2-.23c-.2-.23-.43-.13-.68-.12a.38.38 0 0 0-.18.04.29.29 0 0 0-.13.17c0 .02 0 .03.02.03.03 0 .06 0 .09-.03.01-.01.02 0 .02.01 0 .06.01.1.03.14l.05.05c.01.02.01.03-.01.03h-.06l-.22-.16a.4.4 0 0 1 .04-.32c.03-.06.1-.11.2-.15.42-.15.82-.37 1.02-.8V11a.05.05 0 0 0-.02-.03l-.42-.24c-.04-.02-.06 0-.06.04a.83.83 0 0 0 .04.4v.01a.02.02 0 0 1-.01.01l-.37.07a.45.45 0 0 0-.17.07l-.17.1c.15-.13.29-.26.4-.41.05-.05.08-.12.09-.21l.25-.28c.04.06.15.01.2.02.01 0 .02 0 .03.02.05.1.14.26.24.3a.07.07 0 0 0 .07 0c.33-.29.87-.7.33-1.16.06 0 .11 0 .15-.03a.03.03 0 0 0 .01-.03v-.02l-.3-.26c.05-.1.01-.16-.1-.2a6.48 6.48 0 0 0-.16-.05c-.06.02-.08.08-.06.17a4.95 4.95 0 0 0 .3.86.1.1 0 0 1-.08.1c-.22.05-.42.14-.62.27.14-.2.25-.26.31-.54.04-.19.06-.41.06-.67 0-.05 0-.12.03-.18 0-.02.01-.04.03-.05a.08.08 0 0 1 .04-.01c.37.01.77.05.84.5a.9.9 0 0 1-.15.69l-.52.8c-.13.22-.35.42-.64.6a.04.04 0 0 0-.02.04c0 .1.05.18.16.22Z" fill="#665A4E"/><path d="M9.29 9.09c.12.1.26.15.42.14 0 .27.03.55.08.82.05.35.03.54-.1.83-.03.08-.01.1.07.06l.18-.1h.01a.04.04 0 0 1 .03.01l.01.02.03.14a2.93 2.93 0 0 1-.99.8c-.06-.05-.09-.1-.07-.14a.9.9 0 0 1 .07-.44l.11-.25a1.15 1.15 0 0 0-.02-.7.04.04 0 0 0-.05 0 .22.22 0 0 0-.05.09.46.46 0 0 1-.14.25.5.5 0 0 0 .07-.2c0-.02 0-.03-.02-.04a.72.72 0 0 0-.25-.19l.34-.37c.17-.19.18-.49.27-.73Z" fill="#1E1B1A"/><path d="M11.97 9.1c.08.37.21.73.3 1.1.05.17.11.32.2.46.28.51.8.36 1.2.1-.13.31-.27.6-.44.88-.25-.14-.61-.13-.8.12a.07.07 0 0 0-.01.05v.15c-.04-.14-.07-.27-.15-.4l-.4-.6c-.04-.07-.05-.17-.03-.3.06-.38.16-.8.11-1.2l.02-.37ZM11.09 9.36c-.04.14 0 .26.13.34.54.46 0 .87-.33 1.15a.07.07 0 0 1-.07.02c-.1-.05-.19-.2-.24-.3a.04.04 0 0 0-.04-.03c-.04 0-.15.04-.19-.02h.01a2.02 2.02 0 0 1 .66-.3.1.1 0 0 0 .03-.08 4.95 4.95 0 0 1-.29-.86c-.02-.09 0-.15.06-.17h.05l.12.05c.1.04.14.1.1.2Z" fill="#7D746A"/><path d="M7.24 9.2c.04.04.07.06.1.05.05.06.23.22.33.17l.2-.09c.09-.03.1-.01.04.06-.14.15-.29.27-.44.35a.29.29 0 0 0-.13.14.58.58 0 0 0-.04.2l-.06.1a.4.4 0 0 1-.2.07l.15-.3c.08-.16.1-.3.06-.41a5 5 0 0 1-.1-.37l.09.04Z" fill="#BA9170"/><path d="M10.06 9.23c-.39.32.2.54.28.82.04.12.03.22-.02.3-.12.2-.2.35-.22.45-.01.1-.04.16-.08.2l-.03-.13a.04.04 0 0 0-.02-.03h-.03l-.18.1c-.08.04-.1.02-.07-.06.13-.3.15-.48.1-.83a5.08 5.08 0 0 1-.08-.82h.35Z" fill="#38312B"/><path d="M11.22 9.7c-.13-.08-.17-.2-.13-.34l.29.26v.02a.03.03 0 0 1 0 .03h-.01a.38.38 0 0 1-.15.03Z" fill="#554435"/><path d="m4.26 10.52-.02.07-.05-.2-.03-.18c-.01-.07.02-.11.08-.14l.12.33a.07.07 0 0 0 .04.04.07.07 0 0 0 .06 0l.22-.14.02-.04c0-.07.01-.13.03-.18.02-.03 0-.06-.02-.08l-.18-.1h-.05l-.2.12a.1.1 0 0 1-.04-.07c0-.02 0-.03.02-.05a.67.67 0 0 1 .56-.23c.3.02.43.19.38.5-.03.2-.15.3-.36.33-.19.02-.39.03-.58.02Z" fill="#887C72"/><path d="M4.24 10.07a.15.15 0 0 1 .03-.05l.21-.12h.05l.18.1c.03.02.04.05.02.08a.46.46 0 0 0-.03.18c0 .02 0 .03-.02.04l-.22.13a.07.07 0 0 1-.06 0 .07.07 0 0 1-.04-.03l-.12-.33Z" fill="#9F9B90"/><path d="M7.69 9.97v.02a24.24 24.24 0 0 1 .37.16c.02 0 .03.03.03.06-.03.05-.02.1.02.14.07.06.1.12.06.15l-.23-.05c-.04 0-.06.01-.05.06l.02.1a.1.1 0 0 0 .07.06l.11.02c.02 0 .03.02.03.04v.02c0 .02-.01.03-.03.03a.5.5 0 0 0-.08 0c-.1.02-.1.05-.02.1l.19.12.13.13a.04.04 0 0 1-.02.06l-.14.05c-.1.04-.1.07 0 .09.2.03.4.03.64 0 .05 0 .09.02.1.07a.6.6 0 0 1 .01.2c0 .01 0 .03.02.04l.04.03c-.02.05 0 .1.07.13-.07-.02-.12-.05-.14-.09a.5.5 0 0 1-.05-.31.03.03 0 0 0-.05-.03l-.16.13a.07.07 0 0 1-.05.02h-.12l-.38-.16c-.07-.02-.13-.02-.18 0v.04c.03.07.05.14.05.22l-.12-.2v-.05a.1.1 0 0 0 .02-.07l-.01-.02H7.8a.38.38 0 0 1-.12-.04l.32-.01a.04.04 0 0 0 .04-.02.04.04 0 0 0 0-.04l-.28-.65c-.05-.15-.16-.32-.16-.48 0-.04.03-.06.08-.07Z" fill="#665A4E"/><path d="M8.54 10.19h.14c.1.05.19.1.25.19.02 0 .02.02.02.04a.5.5 0 0 1-.07.2c-.07.1-.15.19-.24.28-.03.04-.07.04-.1.08l-.18.07h-.04L8.18 11l-.2-.12c-.07-.05-.06-.08.03-.1a.5.5 0 0 1 .08 0c.02 0 .03 0 .03-.03v-.02c0-.02 0-.04-.03-.04l-.1-.02a.1.1 0 0 1-.08-.07l-.02-.1c-.01-.04 0-.06.05-.05l.23.05c.04.02.08.01.12-.02a.1.1 0 0 0 0-.12l-.12-.17h.37Z" fill="#0D1019"/><path d="m8.17 10.2.13.16a.1.1 0 0 1-.01.12c-.04.03-.08.04-.12.02.03-.03.01-.09-.06-.15-.04-.04-.05-.1-.02-.14l.08-.02ZM8.96 11.67a.11.11 0 0 1-.04-.03.05.05 0 0 1-.02-.04.6.6 0 0 0-.01-.2c-.01-.05-.05-.08-.1-.07-.23.03-.44.03-.64 0-.1-.02-.1-.05 0-.09l.14-.05a.04.04 0 0 0 .02-.06L8.18 11l.14.05h.04l.17-.07c-.07.04-.11.08-.12.13a.1.1 0 0 0 .02.08.1.1 0 0 0 .07.03c.11.02.22 0 .34-.04l.03-.03a.63.63 0 0 0 0-.28.06.06 0 0 0-.1-.03.51.51 0 0 1-.24.14c.04-.04.08-.04.11-.08l.24-.28a.46.46 0 0 0 .14-.25l.05-.1h.04a.04.04 0 0 1 .02.02c.08.23.08.46.01.7l-.1.24a.9.9 0 0 0-.08.44Z" fill="#38312B"/><path d="m7.59 10.37.03.36a.05.05 0 0 0 .02.04.1.1 0 0 0 .1 0l.02-.04c.01-.09 0-.17-.06-.25l.07.04.03.17a1 1 0 0 1 0 .39c-.01.11-.08.15-.18.1l-.03-.02c-.1-.05-.14-.13-.12-.25l.12-.54Z" fill="#9F9B90"/><path d="M7.7 10.48c.05.08.07.16.06.25 0 .02-.01.03-.03.04a.1.1 0 0 1-.09 0 .05.05 0 0 1-.02-.04l-.03-.36c.05.02.08.06.11.11Z" fill="#BEBDBB"/><path d="m6.47 10.66.04.42c-.11.32-.4.38-.72.34a5.43 5.43 0 0 0-1.12-.02.04.04 0 0 0 0 .04l.1.19.08.13v.07l-.25-.4a.37.37 0 0 1-.05-.13c.27.01.54-.02.8-.11.22-.07.33-.2.47-.34.15-.15.41-.25.6-.33l.05.14Z" fill="#887C72"/><path d="m6.58 13.38-.03-.02.06-.57c.01-.09 0-.19.02-.29l.04-.2c.02-.42.06-.64-.09-.96l-.07-.26-.04-.42c.2.1.35.26.43.48l.1.3c.1.18.24.32.41.42.01 0 .02 0 .02.02v.02l-.28.58c0 .02-.02.03-.04.03l-.32-.05h-.02a.05.05 0 0 0-.04.04l-.1.67-.02.05a.2.2 0 0 0-.03.16Z" fill="#EDD6BE"/><path d="M9.53 12.29a1.19 1.19 0 0 0-.08-.11.27.27 0 0 0-.1-.08 4.17 4.17 0 0 1-.9-.59l.13.01c.02 0 .03 0 .05-.02l.16-.13h.02a.03.03 0 0 1 .03.03.5.5 0 0 0 .05.31c.02.04.07.07.14.1.2-.1.4-.24.58-.4l.17-.1a.45.45 0 0 1 .17-.06 9.33 9.33 0 0 0 .38-.09c-.04-.12-.06-.25-.04-.4 0-.05.02-.06.06-.04l.42.24a.05.05 0 0 1 .02.06c-.2.43-.6.65-1.01.8a.41.41 0 0 0-.21.15.4.4 0 0 0-.04.32Z" fill="#7D746A"/><path d="M8.53 10.98c.1-.02.17-.07.23-.14a.06.06 0 0 1 .07-.01.06.06 0 0 1 .04.04c.02.1.02.2 0 .28 0 .02-.02.03-.03.03a.73.73 0 0 1-.34.04.1.1 0 0 1-.07-.03.1.1 0 0 1-.02-.08c.01-.05.05-.09.12-.13Z" fill="#665A4E"/><path d="m6.51 11.08.07.26a.65.65 0 0 1-.52.29c-.52.02-.91-.1-1.3 0l-.1-.2a.04.04 0 0 1 .04-.05c.36-.02.72-.01 1.1.04.31.04.6-.02.71-.34Z" fill="#9F9B90"/><path d="M7.69 11.24c.03.02.08.03.12.03l.03.01v.02a.1.1 0 0 1 0 .07c-.02.02-.02.03 0 .05l.1.2c.02.02.03.05.04.1-.04 0-.06-.01-.07-.02l-.46-.46a.15.15 0 0 1-.01-.08c0-.02.01-.02.03 0 .07.04.14.07.22.08Z" fill="#38312B"/><path d="M6.58 11.34c.15.32.11.54.09.96l-.04.2c-.02.1 0 .2-.02.3-.03.18-.05.37-.06.56l-.05-.02.03-.3a2.26 2.26 0 0 0 .04-.77l-.02-.02a1.85 1.85 0 0 0-.77-.35c-.23-.04-.63.06-.93-.14l-.09-.13c.39-.1.78.02 1.3 0 .22-.01.4-.11.52-.3Z" fill="#AEAA9F"/><path d="m8.08 11.36.08.16c.03.05.07.1.12.13.12.08.2.12.25.14.26.07.43.24.49.5l.03.03.09.03c.03 0 .05.01.05.05l-.02.19c0 .03-.01.04-.04.04l-.47.06a.09.09 0 0 0-.06.03.1.1 0 0 0-.02.06v.02c0 .05.02.07.07.05.32-.1.55-.04.68.17.06.1.1.09.12-.02a.62.62 0 0 1 .12-.3v-.03l-.24-.23a.02.02 0 0 1 0-.02.02.02 0 0 1 .01-.02c.17-.03.3.02.42.13l.01.03-.04.29.01.04c.03.03.06.04.09.04.02 0 .03 0 .04-.02l.07-.16.02-.01h.02l.01.01.23.4a.05.05 0 0 1-.04.07L10 13.2c-.01 0-.02 0-.03.02v.18c-.01.02 0 .03.02.04.23.03.25.18.4.3.02.02.03.04.06.04l-.6.15-.22-.39a.13.13 0 0 0-.1-.07l-.17-.01c-.01 0-.03 0-.03-.02l-.15-.32a.04.04 0 0 0-.03-.03.04.04 0 0 0-.03.01l-.04.04a.05.05 0 0 0-.01.04.4.4 0 0 0 .09.22.03.03 0 0 1 0 .03l-.02.01-.26-.02a.08.08 0 0 0-.07.03c-.14.2-.42.24-.65.2l-.05.01a.37.37 0 0 1-.1.1c-.03.02-.03.03 0 .04.08.03.12.08.12.13l-.34-.07c.15-.31.31-.46.49-.68.03-.04.02-.07-.01-.1l-.1-.07c-.04-.04-.08-.04-.11.01l-.06.1h-.03l-.14-.14c-.02-.02-.02-.03 0-.05.19-.13.3-.22.32-.27.1-.15.2-.31.29-.48.14 0 .27 0 .38.04a.03.03 0 0 0 .04-.04.97.97 0 0 0-.2-.2 1.2 1.2 0 0 0-.4-.15c-.1-.02-.2-.07-.3-.12a.18.18 0 0 0-.02-.1.47.47 0 0 0-.06-.21l.01-.04c.05-.02.1-.02.18 0Z" fill="#BEBDBB"/><path d="M8.46 11.51c.27.24.57.44.9.6.04.01.07.04.1.07l.07.1a4.02 4.02 0 0 0 .28.17c.02 0 .02-.01 0-.03l-.04-.05c.04-.07.14-.1.28-.1.3.02.47.07.7.25a1.63 1.63 0 0 0 .56.28.04.04 0 0 1 .02.04v.01a.64.64 0 0 1-.18.17h-.17l-.04.01a.92.92 0 0 1-.23.22v.02l.02.02c.17.04.3.04.42.21l-.25.13c-.07-.15-.19-.24-.28-.36v-.05l.26-.25v-.03h-.01a2.18 2.18 0 0 1-.68-.44.52.52 0 0 0-.15-.09c-.06-.02-.07 0-.04.06l.27.42c.12.18.17.4.29.59l.14.22-.08.02c-.11-.13-.2-.25-.26-.38-.03-.08-.06-.08-.08 0-.01.04 0 .1.03.17.04.07.06.15.09.23-.15-.12-.17-.27-.4-.3-.02 0-.03-.02-.03-.04l.01-.18c0-.02.02-.02.03-.02l.17.02a.05.05 0 0 0 .04-.07l-.23-.4h-.01l-.02-.01h-.01l-.01.01-.07.16-.04.02a.11.11 0 0 1-.09-.04.05.05 0 0 1-.01-.04l.04-.29-.01-.03a.46.46 0 0 0-.42-.13.02.02 0 0 0-.02.03l.01.01.23.23v.03a.62.62 0 0 0-.11.3c-.02.1-.06.12-.12.02-.13-.21-.36-.27-.68-.17-.05.02-.08 0-.07-.05v-.02c0-.02 0-.04.02-.06a.09.09 0 0 1 .06-.03l.47-.06c.03 0 .04-.01.04-.04l.02-.2c0-.03-.02-.04-.05-.04l-.1-.03a.05.05 0 0 1-.02-.04.66.66 0 0 0-.5-.5 1.2 1.2 0 0 1-.24-.13.39.39 0 0 1-.12-.13l-.08-.16.38.15Z" fill="#9F9B90"/><path d="M10.64 12.08a.49.49 0 0 0-.14-.17l-.05-.21v-.03l.02-.01a.04.04 0 0 1 .04-.01l.18.07c.15.06.36.21.46.24.12.03.38.1.43-.05v-.05l-.18-.38a.04.04 0 0 1 0-.03.04.04 0 0 1 .02-.02l.18-.06a.04.04 0 0 1 .04 0 .04.04 0 0 1 .02.04c0 .1 0 .2.04.29a11.84 11.84 0 0 0 .22.6l-.01.02h-.02l-.38-.13a.96.96 0 0 0-.3-.02 1.3 1.3 0 0 1-.57-.09Z" fill="#493527"/><path d="M13.06 11.9c-.09.07-.16.14-.26.17a.38.38 0 0 1-.33-.06l-.02-.03v-.13c0-.01 0-.03.02-.04.18-.18.38-.21.61-.1.02 0 .02.01.02.03l-.04.17ZM6.53 13.03c.03-.23.02-.4-.01-.52-.07-.24-.4-.4-.6-.48a1.15 1.15 0 0 0-.44-.03l-.47.03-.16-.2v-.07c.3.2.7.1.93.14a1.85 1.85 0 0 1 .79.37v.02c.03.25.02.5-.04.74Z" fill="#9F9B90"/><path d="m8.45 12.18-.29.48a1.5 1.5 0 0 1-.32.27c-.02.02-.02.03 0 .05l.14.14H8l.06-.1c.03-.05.07-.05.12-.01l.09.07c.03.03.04.06 0 .1-.17.22-.33.37-.48.68l-.39-.11.49-.48v-.03c-.03-.02-.06-.02-.1 0l-.27.14c-.08.04-.1.02-.06-.06.11-.21.16-.43.35-.64.04-.04.06-.1.09-.14.08-.12.06-.14-.07-.06l-.2.14c-.07.05-.1.03-.06-.05.07-.22.06-.46-.05-.75l.01-.02a.53.53 0 0 1 .33.02c.21.1.35.14.42.15.02 0 .03 0 .03.02.02.05.03.1.02.13 0 .02 0 .04.02.05.02.02.05.02.09.01Z" fill="#D3D2CF"/><path d="m13.06 11.9-.41.51-.18-.4c.1.07.2.09.33.06.1-.03.17-.1.26-.16Z" fill="#7D746A"/><path d="m6.53 13.03-.03.31a5.68 5.68 0 0 1-.82-.6c.12-.01.23 0 .35.06.1.04.2.02.27-.07l.06-.08c.08-.1.06-.17-.04-.22-.17-.1-.45-.25-.65-.25-.19 0-.29.06-.44.12l-.22-.27c.16 0 .32-.02.47-.03.2-.01.34 0 .43.03.22.08.54.24.61.48.03.12.04.3.01.52Z" fill="#90877D"/><path d="M11.15 13.02c.07-.05.13-.1.17-.17a.04.04 0 0 0 0-.03.04.04 0 0 0-.02-.03c-.22-.07-.4-.16-.55-.27-.23-.18-.4-.23-.7-.25-.14 0-.24.03-.28.1a.34.34 0 0 1-.03-.14c0-.02 0-.02-.02-.01a.12.12 0 0 1-.1.03c-.01 0-.02-.01-.01-.03a.29.29 0 0 1 .13-.17c.04-.02.1-.04.18-.04.25-.01.48-.1.68.12a4 4 0 0 1 .2.24c.14.2.4.3.62.39.06.02.07.06.03.1-.1.12-.2.17-.3.16ZM5.68 12.74l-.45-.44c.15-.06.25-.12.44-.12.2 0 .48.16.65.25.1.05.12.13.04.22l-.06.08c-.07.1-.16.11-.27.07a.62.62 0 0 0-.35-.06Z" fill="#7D746A"/><path d="m8.33 12.66.1-.23a.13.13 0 0 1 .12-.07h.03c.05 0 .06.03.04.07a.6.6 0 0 1-.25.3h-.03l-.02-.04.01-.03Z" fill="#D3D2CF"/><path d="m10.9 13.63-.2.07-.14-.22c-.12-.2-.17-.4-.3-.59-.1-.16-.2-.3-.26-.42-.03-.06-.02-.08.04-.06.05.02.1.05.15.1a2.18 2.18 0 0 0 .7.44v.01l-.01.01-.25.25a.03.03 0 0 0 0 .05c.08.12.2.21.27.36Z" fill="#BEBDBB"/><path d="M9.85 13.93c-.56.1-1.13.1-1.7 0 0-.05-.05-.1-.13-.13-.03 0-.03-.02 0-.04a.37.37 0 0 0 .1-.1.04.04 0 0 1 .05-.01c.23.04.5 0 .65-.2a.08.08 0 0 1 .07-.03l.26.02h.01a.03.03 0 0 0 .01-.03v-.01a.4.4 0 0 1-.1-.22l.02-.04.04-.04a.04.04 0 0 1 .03 0 .04.04 0 0 1 .03.02l.15.32.03.02.17.01a.13.13 0 0 1 .1.07l.21.39Z" fill="#9F9B90"/><path d="m10.62 13.72-.16.06c-.03 0-.04-.02-.06-.04a1.5 1.5 0 0 0-.09-.23c-.03-.07-.04-.13-.03-.16.02-.09.05-.09.08-.01.06.13.15.25.26.38Z" fill="#665A4E"/><defs><linearGradient id="a" x1="3.35" y1="3.12" x2="21.9" y2="24.43" gradientUnits="userSpaceOnUse"><stop stop-color="#1A1E21"/><stop offset="1" stop-color="#06060A"/></linearGradient></defs></svg>