<!-- by TradingView --><svg width="18" height="18" viewBox="0 0 18 18" xmlns="http://www.w3.org/2000/svg"><path fill="#2658DD" d="M0 0h18v18H0z"/><path d="M6.86 6.46a.01.01 0 0 0-.02 0c-.55.66-.92 1.4-1.15 2.23-.14.51-.93.35-.86-.2a6.14 6.14 0 0 1 1.05-2.26c.05-.07.03-.1-.04-.07-.35.08-.68.2-1 .33-.2.1-.35.14-.43.14-.46-.03-.57-.66-.13-.9.74-.4 1.56-.54 2.55-.72.25-.04.43.04.53.27.33.7.54 1.46.63 2.28.02.18.01.32-.02.4-.12.32-.56.35-.76.09-.06-.07-.1-.2-.11-.4a5.89 5.89 0 0 0-.24-1.19Zm6.09.54a.02.02 0 0 0-.02-.02c-.82.3-1.54.76-2.15 1.36-.39.38-1.02-.18-.68-.63a6.03 6.03 0 0 1 2.08-1.43c.07-.03.07-.06 0-.08a6 6 0 0 0-1.07-.23c-.24-.03-.4-.07-.46-.12-.4-.26-.2-.88.32-.85.88.04 1.7.35 2.67.71.26.1.38.27.36.52-.06.8-.25 1.57-.58 2.34a.9.9 0 0 1-.22.34c-.27.21-.68.01-.73-.33-.02-.09.02-.22.1-.4.17-.4.3-.78.38-1.18Zm-2.56 4H7.6c-.37 0-.71.25-.56.65C7.34 12.47 8.12 13 9 13c.88 0 1.66-.53 1.96-1.35.15-.4-.2-.65-.57-.65Z" fill="#fff"/></svg>