<!-- by TradingView --><svg width="18" height="18" viewBox="0 0 18 18" xmlns="http://www.w3.org/2000/svg"><path fill="#F0F3FA" d="M0 0h18v18H0z"/><circle cx="9" cy="9" r="5" fill="#6CB184"/><path fill="#22222A" d="M7.44 5.56h3.13v.94H7.44zM10.56 6.5h.94v.94h-.94zM6.5 6.5h.94v.94H6.5zM6.5 10.56h.94v.94H6.5z"/><path fill="#4E1717" d="M6.5 8.69h.94v.94H6.5z"/><path d="M6.5 7.44v.62h3.44V9h.62v.63h.94v-2.2h-.94V6.5H7.44v.94H6.5Z" fill="#A36E00"/><path d="M9.94 8.06H6.5v.63h.94v.94H6.5v.93h.94v.94H9v-.94h.94v-.94h.62V9h-.62v-.94Z" fill="#FFCEA4"/><path d="M11.5 9.63H9.94v.93H9v.94h1.56v-.94h.94v-.94Z" fill="#EAAF7E"/><path fill="#22222A" d="M10.56 10.56h.94v.94h-.94zM11.5 11.5h.94v.94h-.94zM5.56 11.5h.94v.94h-.94zM5.56 7.44h.94v3.13h-.94zM11.5 7.44h.94v3.13h-.94z"/><path fill="#4E1717" d="M8.06 8.69H9v.94h-.94z"/><path d="M6.08 13.06c-.25-.18-.5-.4-.71-.62H6.5v-.94h.94v1.56H6.08ZM12.63 12.44a5 5 0 0 1-2.07 1.31v-1.31h-.62v-.94h1.56v.94h1.13Z" fill="#1B5B3B"/><path d="M10.56 13.75c-.2.07-.4.12-.62.16v-1.47h.62v1.31Z" fill="#EAAF7E"/><path d="M9.94 13.91c-.3.06-.62.09-.94.09v-1.56h.94v1.47Z" fill="#FFCEA4"/><path d="M8.06 13.91v-.85h-.62V11.5h2.5v.94H9V14c-.32 0-.63-.03-.94-.09Z" fill="#36885B"/><path d="M8.06 13.91c-.21-.04-.42-.1-.62-.16v-.69h.62v.85Z" fill="#1B5B3B"/><path d="M7.44 13.75a4.97 4.97 0 0 1-.63-.25v-.44h.63v.7Z" fill="#EAAF7E"/><path d="M6.81 13.5a5 5 0 0 1-.73-.44h.73v.44Z" fill="#FFCEA4"/></svg>