<!-- by TradingView --><svg width="18" height="18" viewBox="0 0 18 18" xmlns="http://www.w3.org/2000/svg"><path fill="url(#a4j4tipj2)" d="M0 0h18v18H0z"/><path d="m10.76 5.94-.01-.01-1.54-2.9c-.03-.04-.04-.04-.04.01v2.97c.87.1 1.54.92 1.54 1.92l1.44.68h.02v-.04a121.36 121.36 0 0 1-.68-1.3l1.5-1.72c.02-.03.02-.05 0-.08l-.85-.97a.06.06 0 0 0-.05-.02c-.01 0-.03 0-.04.02L10.8 5.93v.01a.03.03 0 0 1-.04 0Zm-1.92-2.9V6c-.87.09-1.55.91-1.55 1.92l-1.42.68h-.02l-.01-.02v-.01l.69-1.29v-.03L5 5.53v-.01a.03.03 0 0 1 0-.03l.9-1.02h.02l1.29 1.48a.02.02 0 0 0 .02 0L8.8 3.02a.02.02 0 0 1 .01 0h.03v.02Zm-3 5.99 1.48-.71c.15.82.77 1.45 1.52 1.53v1.29h-.01a.03.03 0 0 1-.03 0L5.83 9.1v-.01a.04.04 0 0 1 0-.04v-.01Zm3.33 2.09V9.85c.75-.09 1.36-.72 1.51-1.53l1.5.7v.01l.01.03v.02h-.02l-2.95 2.07h-.03l-.02-.01v-.02Zm-1.6 1.96.02-.01.03.01A237.85 237.85 0 0 0 8.82 15h.02V12.28l-.02-.02-2.92-2.04c-.02-.01-.03 0-.03.02a625.72 625.72 0 0 1 .95 1.59L5.4 13.46l-.01.02v.03l.88 1h.01l.02.01.03-.01 1.24-1.43Zm2.86 0 1.23 1.4c.03.04.06.04.1 0l.84-.96c.02-.03.02-.05 0-.07l-1.4-1.6a.07.07 0 0 1 0-.04v-.05l.96-1.53v-.01l-.01-.01h-.01L9.2 12.24a.1.1 0 0 0-.03.04.1.1 0 0 0 0 .05l-.01 2.65v.01h.03a.03.03 0 0 0 .02 0l1.17-1.91.01-.01h.01a.03.03 0 0 1 .01 0h.01ZM9.31 8.32l.01.1c0 .03 0 .07-.02.1a.2.2 0 0 1-.1.09.37.37 0 0 1-.15.03l-.16-.02a.3.3 0 0 1-.12-.06.26.26 0 0 1-.07-.1.44.44 0 0 1-.02-.16h-.44c0 .12.02.22.07.3.04.1.1.17.18.22.08.06.17.1.26.13a1.08 1.08 0 0 0 .59 0 .66.66 0 0 0 .23-.11.5.5 0 0 0 .14-.19.57.57 0 0 0 .05-.24.6.6 0 0 0-.04-.24.54.54 0 0 0-.13-.18.87.87 0 0 0-.2-.15 1.85 1.85 0 0 0-.28-.11 1.5 1.5 0 0 1-.28-.13.3.3 0 0 1-.07-.08.18.18 0 0 1-.03-.09c0-.04.02-.08.04-.11a.23.23 0 0 1 .1-.09c.04-.02.1-.03.16-.03s.12.01.16.04c.05.02.08.06.1.1.02.05.04.1.04.15h.43a.61.61 0 0 0-.35-.56 1 1 0 0 0-.67-.04.7.7 0 0 0-.23.12.52.52 0 0 0-.21.42.52.52 0 0 0 .2.42l.2.14.26.1.19.08c.04.02.08.04.1.07a.2.2 0 0 1 .06.08Z" fill="#fff"/><defs><linearGradient id="a4j4tipj2" x1="3.35" y1="3.12" x2="21.9" y2="24.43" gradientUnits="userSpaceOnUse"><stop stop-color="#1A1E21"/><stop offset="1" stop-color="#06060A"/></linearGradient></defs></svg>