<!-- by TradingView --><svg width="18" height="18" fill="none" xmlns="http://www.w3.org/2000/svg"><path fill="#F0F3FA" d="M0 0h18v18H0z"/><path d="M14.473 8.386h-2.487v1.23h1.218c-.344 1.495-1.877 2.423-3.41 2.088-1.533-.335-2.484-1.829-2.14-3.323.343-1.495 1.88-2.414 3.413-2.079.608.13.945.234 1.341.698h1.48c-.925-1.776-3.327-2.562-5.336-1.557-2.01 1.005-2.803 3.401-1.772 5.385s3.49 2.732 5.499 1.727c1.374-.696 2.247-2.062 2.22-3.556 0-.206 0-.407-.026-.613z" fill="#39C2CF"/><path d="M11.619 8.394l-6.801-.008c.343-1.49 1.871-2.432 3.4-2.098.607.128.923.25 1.345.712h1.476c-1.028-1.952-3.374-2.498-5.298-1.56A3.978 3.978 0 003.5 9.01c0 .206.026.4.053.605h6.827c-.343 1.49-1.872 2.453-3.4 2.119a2.875 2.875 0 01-1.556-.89H3.948c1.028 1.953 3.48 2.714 5.51 1.712a3.944 3.944 0 002.213-3.545c0-.206-.026-.411-.052-.617z" fill="#15307C"/></svg>