<!-- by TradingView --><svg width="18" height="18" viewBox="0 0 18 18" xmlns="http://www.w3.org/2000/svg"><path fill="url(#a)" d="M0 0h18v18H0z"/><path d="M14 12.28v.08l-1.36-.95c-.19-.14-.47.05-.6-.23-.06-.15-.1-.28-.23-.38-.42-.33-.85-.67-1.3-1l-.83-.62c-.17-.12-.27-.28-.43-.4a17.8 17.8 0 0 0-.77-.61l-.09-.25a.1.1 0 0 0-.02-.03.09.09 0 0 0-.03-.03l-.86-.4a.05.05 0 0 1-.02-.04l-.04-.3-.01-.03a147.07 147.07 0 0 0-1.34-.8.57.57 0 0 0-.25-.09c-.02 0-.03 0-.05-.02L4.9 5.4v-.01h.01l1.1.58.05.01c.01 0 .03 0 .04-.02l.1-.1c.02-.03.02-.05 0-.07a8.82 8.82 0 0 0-.54-.37V5.4l.02-.01.85.44c.07.04.09.02.06-.06l-.06-.17v-.05l.2-.13h.05l.06.09.05.02c.1 0 .13-.14.13-.24 0-.02 0-.03.02-.04a2.9 2.9 0 0 1 3.41.83v.02l-.23.87.01.06.3.34c.07.09.19.28.34.59v.05l-.09.1c-.01.02-.03.03-.05.02l-.71-.28c-.03 0-.04 0-.03.03l.01.07-.01.05-.28.3v.04l.39.38c.05.06.08.13.07.21 0 .03-.01.03-.03.02l-.65-.49c-.02 0-.02 0-.02.02.05.14.12.21.24.3a219.12 219.12 0 0 1 3.17 2.54l1.12.95ZM9.86 10.81h-.02v.02c.2.19.4.37.58.58.06.07.13.14.22.2.02 0 .02.02 0 .04a2.5 2.5 0 0 1-1.28.35.02.02 0 0 1 0-.01l.02-.34c.02-.14.06-.25.1-.38.03-.05.03-.1.02-.15a1.86 1.86 0 0 1-.01-.38c0-.05-.02-.07-.06-.05l-.4.2a.1.1 0 0 0-.06.08c-.02.14-.06.28-.03.43l.04.24c0 .03 0 .04-.03.02l-.38-.3H8.5l-.6.35c-.1.06-.17.1-.27.08-1.49-.31-2.5-1.65-2.51-3.32 0-.13 0-.27.03-.4 0-.02.01-.03.03-.04l.17-.07c.02 0 .02-.02.02-.03a.85.85 0 0 0-.15-.29l-.3-.4c-.1-.16-.23-.3-.35-.45l.01-.01h.02c.22.2.44.42.65.64.02.01.03.01.04-.02l.02-.07v-.06c-.16-.19-.32-.36-.49-.5-.28-.25-.52-.55-.82-.8v-.02h.01c.37.24.72.49 1.1.76.25.2.54.34.77.57l1.46 1.48c.06.07.14.11.23.14a62.76 62.76 0 0 1 .78.24l.52.53c.03.04.07.06.11.07.17.06.37.1.5.24l.35.3c.1.1.24.12.37.15.03.01.06.03.08.06.17.24.35.5.58.66l.51.32c.08.05.2.12.24.22l.1.14a576.2 576.2 0 0 0 1.45 1.16l-.01.01c-.56-.36-1.1-.67-1.64-1.04L9.86 10.8Z" fill="#EEE"/><path d="M10.96 7.62c-.06-.2-.27-.38-.4-.54a.05.05 0 0 1 0-.04 4.97 4.97 0 0 1 .24-.85h.01c.45.56.67 1.2.65 1.95 0 .02 0 .03-.03.02l-.3-.1a.07.07 0 0 1-.03-.01l-.02-.03a7.34 7.34 0 0 1-.12-.4ZM10.49 8.98l-.52-.57v-.02l.12-.3v-.01h.02l.8.31a.02.02 0 0 1 0 .02l-.4.56-.01.01a.01.01 0 0 1-.01 0ZM11.87 10.17a1.82 1.82 0 0 0-.44-.25c-.21-.08-.4-.24-.6-.37-.13-.08-.16-.22-.18-.36v-.06l.5-.78.03-.03h.66c.01 0 .02 0 .03.02a3.44 3.44 0 0 1 .02 1.83.02.02 0 0 1-.02 0ZM12.59 10.55a.5.5 0 0 0-.3-.07.39.39 0 0 1-.3-.12l-.02-.03v-.04l.13-.37c0-.01 0-.02.02-.02h.03l.44.12h.01v.51a.01.01 0 0 1 0 .01h-.01ZM11.14 10.9l-.26-.33v-.03h.02l.3.02h.02l.4.42V11h-.01l-.46-.1h-.01ZM12.63 10.97l-.12-.26v-.02l.31-.1h.01l.01.02.26.62a.02.02 0 0 1 0 .02h-.02l-.44-.28ZM9.25 11.3l-.13-.02H9.1v-.02l-.02-.12v-.02l.01-.01.2-.12h.02l.01.01v.02l-.04.25v.02h-.03ZM7.93 12l.52-.42.04-.02.03.01.33.19a.02.02 0 0 1 0 .03 3.11 3.11 0 0 1-.92.22V12ZM11.09 11.83a4.2 4.2 0 0 1 .8.5l.07.28a.02.02 0 0 1 0 .01h-.01a4.7 4.7 0 0 0-.55-.03c-.11 0-.17-.1-.23-.18a.77.77 0 0 1-.1-.57c0-.01.01-.02.02-.01Z" fill="#EEE"/><defs><linearGradient id="a" x1="3.35" y1="3.12" x2="21.9" y2="24.43" gradientUnits="userSpaceOnUse"><stop stop-color="#1A1E21"/><stop offset="1" stop-color="#06060A"/></linearGradient></defs></svg>