<!-- by TradingView --><svg width="18" height="18" viewBox="0 0 18 18" xmlns="http://www.w3.org/2000/svg"><path fill="#F38A46" d="M0 0h18v18H0z"/><path d="M12.92 12.66a6.45 6.45 0 0 1-.4.32l-.58-1.07-.05-.1-.03-.04-.01-.03-.02-.05a.37.37 0 0 1-.03-.2c.02-.23.07-.44.15-.64l.04-.11a5.54 5.54 0 0 0 .19-.5 1 1 0 0 1 .07-.16l.07-.13a96.29 96.29 0 0 1 .3-.87c.04-.2.08-.34.11-.43a51.29 51.29 0 0 1 .33-.8 3.74 3.74 0 0 0 .1-.22c.12-.3.18-.57.19-.83 0-.1-.03-.22-.09-.33a1 1 0 0 0-.1-.17h-.01c-.06-.09-.1-.14-.14-.17a.66.66 0 0 0-.17-.12c0-.01 0-.01 0 0-.16-.11-.29-.18-.38-.21a.72.72 0 0 0-.32-.03.65.65 0 0 0-.3.1l-.23.18a.5.5 0 0 0-.09.12.38.38 0 0 0-.05.13c0 .05.02.12.07.21l.03.05.04.18.02.16.03.3v.52a3.72 3.72 0 0 1-.1.67 7.07 7.07 0 0 0-.32.79 877.96 877.96 0 0 1-.2.43.27.27 0 0 1-.13.08c-.04.02-.1 0-.19-.05a.94.94 0 0 1-.28-.34 11.1 11.1 0 0 0-.15-.35 2.85 2.85 0 0 1-.07-.24 1.43 1.43 0 0 1-.04-.26 1.02 1.02 0 0 0-.06-.3 4.72 4.72 0 0 0-.41-.74 640.66 640.66 0 0 0-.32-.7l-.14-.32-.03-.08A.93.93 0 0 1 9.2 6a16.25 16.25 0 0 1 .2-.82c.03-.09.06-.2.07-.31a1.48 1.48 0 0 1 .08-.3l.04-.3c0-.02-.01-.02-.02 0l-.14.14a21.94 21.94 0 0 1-1.06.72 1 1 0 0 1-.12.07l-.3.08a3.94 3.94 0 0 0-.83.23l-.5.15a.65.65 0 0 1-.37-.02l-.7-.24a1.02 1.02 0 0 0-.25-.06c-.03 0-.05.01-.06.04a.2.2 0 0 0 .03.16c.02.05.1.13.21.26.09.1.15.2.19.33.01.13-.01.25-.07.34l-.06.1a.43.43 0 0 0-.05.16l-.06.29v.03c-.02 0-.02.02-.02.03-.03.1-.04.21-.04.32l.06.25.02.2c-.03.17-.01.3.06.38a8.24 8.24 0 0 0 .45.45c.03.03.08.05.13.07l.1.05.02.02a.6.6 0 0 1 .2.2l.03.07.01.04c.01.06 0 .13-.02.2l-.14.37c-.02.05-.07.14-.16.25a.39.39 0 0 0-.07.14 4.83 4.83 0 0 0-.24 1.13c0 .06-.02.12-.04.18a6.81 6.81 0 0 1-.27.8l-.07.2a.75.75 0 0 0-.04.16 3 3 0 0 1-.39-.36l.08-.3c.1-.4.2-.7.25-.9l.44-1.34a.5.5 0 0 0 .02-.23 4.7 4.7 0 0 1-.06-.3.6.6 0 0 0-.1-.22c-.18-.2-.3-.4-.39-.57l-.2-.41A.35.35 0 0 1 5 7.72c.1-.57.2-1.13.33-1.67a.35.35 0 0 0-.02-.2.86.86 0 0 0-.08-.16.83.83 0 0 1-.1-.2.33.33 0 0 1 .03-.26.32.32 0 0 1 .23-.16c.07-.01.14 0 .22.02l.68.21c.05.02.13.01.24-.02l.95-.25c.13-.03.24-.07.33-.12a469.87 469.87 0 0 0 1.04-.5l.4-.32c.17-.13.34-.12.49.02.07.07.1.16.1.27a160.38 160.38 0 0 0-.14 1.34c-.06.17-.1.28-.1.33a.35.35 0 0 0 .04.3 2945.98 2945.98 0 0 1 .66.97l.26.75c.07.16.1.31.13.44l.13.6c.01.07.05.1.11.1s.1-.02.13-.08c.11-.22.21-.47.3-.74.1-.26.1-.59.04-.97a43.71 43.71 0 0 1-.17-1.21c-.02-.1 0-.2.05-.26.03-.04.1-.1.21-.18l.03-.02.53-.36a.32.32 0 0 1 .13-.05 1.2 1.2 0 0 1 .2-.01h.6a.5.5 0 0 1 .2.05l.48.23c.06.02.1.06.13.1a8.06 8.06 0 0 1 .2.69c.02.07.01.13-.01.2a48.39 48.39 0 0 1-.29.91l-.3.63c-.05.1-.1.22-.14.38a696.9 696.9 0 0 0-.7 2.47.64.64 0 0 0-.01.3 24.72 24.72 0 0 1 .18.92 6.75 6.75 0 0 0 .2.45Z" fill="#FEEADE"/><path d="M9.2 6.01a.52.52 0 0 0-.28-.08c-.07 0-.17 0-.29.03-.1.03-.22.04-.33.03-.02 0-.02 0-.02-.02l.02-.22c0-.01 0-.02-.02-.02l-.15-.05a.77.77 0 0 0-.55.04l-.22.07-.02-.01.02-.15.01-.02.02-.03-.02-.02a.16.16 0 0 0-.16 0 .63.63 0 0 0-.14.1 1.94 1.94 0 0 1-.01.02.49.49 0 0 0 .05-.08.1.1 0 0 0 0-.08l.41-.13.43-.1a2.21 2.21 0 0 0 .3-.09c-.02.08 0 .14.05.18h.02l.24-.12a.9.9 0 0 0 .22-.15l.14-.14.26-.24.16-.14c.05-.05.08-.1.09-.17l.14-.14c.01-.02.02-.01.02 0a1.32 1.32 0 0 1-.06.38l-.06.22c-.01.12-.04.22-.07.31a.9.9 0 0 0-.06.2l-.03.14-.04.12L9.2 6Z" fill="#9A715A"/><path d="M9.42 4.42c0 .06-.03.12-.08.17l-.16.14-.26.24-.14.14a.9.9 0 0 1-.22.15 20.22 20.22 0 0 0-.26.12c-.06-.04-.07-.1-.05-.18a7.14 7.14 0 0 0 1.18-.79Z" fill="#79492C"/><path d="M7.12 5.52a.1.1 0 0 1 0 .08l-.06.08-.03.03-.25.24-.1.06a.09.09 0 0 0-.05.08c0 .15-.05.29-.14.4-.02.04-.03.04-.03 0 0-.09.01-.17.03-.26.01-.06 0-.06-.03-.02l-.1.11a.18.18 0 0 0-.05.04c.02-.05 0-.09-.03-.1a.34.34 0 0 0-.27-.02.43.43 0 0 0-.27.25l.08-.2H5.8l-.1.17.08-.23c.02-.03 0-.05-.02-.07a.23.23 0 0 0-.1-.02.83.83 0 0 0-.2-.33c-.1-.13-.18-.21-.2-.26a.2.2 0 0 1-.03-.16c.01-.03.03-.04.06-.04.08.01.17.03.25.06l.7.24c.13.05.25.05.36.02.17-.04.34-.1.5-.15Z" fill="#976340"/><path d="M8.12 5.71c.05.03.07.06.08.1v.11l.01.12c0 .01 0 .02.02.02a4.01 4.01 0 0 1 .26-.03 3.2 3.2 0 0 1 .37-.06c0 .13.03.25.08.37v.01a.52.52 0 0 1-.2.02.88.88 0 0 1-.23-.06.65.65 0 0 0-.24-.04 1.55 1.55 0 0 0-.44.1c-.03.02-.09.03-.16.04l-.25.06c-.14.08-.28.12-.44.13l-.18.03a.75.75 0 0 0-.18.08l-.04.03a.25.25 0 0 0-.1.1.16.16 0 0 0 0 .12c0 .05.04.08.08.1.07.02.14.03.23.03l-.14.03c-.02 0-.03.02-.03.04v.01c0 .03.01.04.04.03l.15-.02-.08.06a.48.48 0 0 1-.1-.03.7.7 0 0 1-.07-.04.42.42 0 0 0-.16-.08c-.1 0-.17.03-.24.11l-.02.01H6.1l-.2-.02a.52.52 0 0 1-.16-.06c-.02-.05-.04-.08-.07-.1a.32.32 0 0 0-.12-.01h-.05L5.49 7V7h-.03l-.03.03.06-.3a.43.43 0 0 1 .05-.15l.06-.1c.06-.1.08-.2.07-.34.04 0 .07 0 .1.02s.04.04.02.07l-.08.23c-.05.1-.07.2-.06.3.01.1.06.2.14.26h.02L6.14 7l.02-.01a.7.7 0 0 1 .17-.25V6.7a.36.36 0 0 1 .03-.38l.1-.1c.03-.05.04-.05.03 0l-.03.27c0 .04 0 .04.03 0a.78.78 0 0 0 .14-.4c0-.04.02-.06.05-.08l.1-.06c.1-.06.18-.1.24-.1.08-.02.16-.01.25.02h.08l.07-.02.03-.02.32-.14a.6.6 0 0 1 .35.02Z" fill="#D1A183"/><path d="M8.63 5.96c.12-.02.22-.04.3-.03.1 0 .19.03.27.08 0 .1 0 .2.02.3a.3.3 0 0 0-.14.14.05.05 0 0 1-.05.03h-.31a1.61 1.61 0 0 1-.28-.07c-.1-.02-.2-.03-.31-.02l-.31.06-.35.02h-.05l.25-.06a1.59 1.59 0 0 0 .22-.05c.18-.06.3-.09.38-.09.1 0 .19.01.24.04.1.03.16.06.22.06.07.01.13 0 .2-.02.02 0 .02 0 .01-.01a.87.87 0 0 1-.08-.37l-.01-.02-.36.08a1.35 1.35 0 0 1-.26.03c-.01 0-.02 0-.02-.02a.5.5 0 0 1 0-.12v-.11a.17.17 0 0 0-.09-.1l.14.04.01.02-.02.19c0 .04.02.06.06.06.11 0 .22-.02.32-.06Z" fill="#A48269"/><path d="M12.84 6c-.33 0-.63.15-.92.43a.52.52 0 0 0-.15.4c0 .2 0 .4-.03.58 0 .1.02.19.03.28a.3.3 0 0 1-.02.15l-.15.35a3.72 3.72 0 0 0 .06-1c0-.06 0-.16-.03-.3a2.97 2.97 0 0 1-.02-.16.51.51 0 0 0-.07-.22c-.05-.1-.07-.16-.07-.2 0-.04.02-.08.05-.14a.5.5 0 0 1 .1-.12c.06-.07.14-.13.22-.18.08-.06.18-.1.3-.1.12-.02.23 0 .32.03.1.03.22.1.38.2Z" fill="#B2917A"/><path d="M12.84 6c0 .07 0 .13.03.18l.15.32c.09.2.13.44.11.7 0 .23-.04.41-.1.53l-.12.2a1.75 1.75 0 0 0-.2.46c-.05.14-.14.2-.27.2v-.01a.6.6 0 0 0-.17 0 .56.56 0 0 0-.15.09.4.4 0 0 1-.17.07c-.05 0-.1-.02-.13-.07a.35.35 0 0 1-.05-.15.74.74 0 0 1 .1-.5.7.7 0 0 0 .07-.18.24.24 0 0 0-.04-.18l-.02-.01h-.01l-.02.01h-.03l-.08-.24.03-.58c0-.16.05-.3.16-.4.28-.29.59-.43.91-.44Z" fill="#9A715A"/><path d="M11.83 11.7c-.2.24-.32.41-.37.51l-.03.05c-.09.19-.17.33-.23.43a.35.35 0 0 1-.1.1 1.97 1.97 0 0 0-.29.22 1.85 1.85 0 0 0 .12-.05 1.1 1.1 0 0 0-.15.08.27.27 0 0 0-.1.12l-.04.11c-.07.06-.16.12-.26.16a.45.45 0 0 0-.1.06.5.5 0 0 0-.08.08v.04c0 .01 0 .02.02.03l.32.21c-.37.08-.75.13-1.13.15h-.14c.11-.25.22-.44.31-.59a2.14 2.14 0 0 1 .73-.7c.14-.09.25-.16.3-.21a16.84 16.84 0 0 0 .93-.87c.14-.17.2-.36.18-.55a.63.63 0 0 0-.3-.5l-.28-.2a.5.5 0 0 1-.22-.3c-.02-.1-.02-.22 0-.39.05-.02.09-.05.11-.08a.38.38 0 0 0 .05-.1 4.07 4.07 0 0 1 .67-1.67.3.3 0 0 0 .02-.15l-.03-.28.08.24.01.02h.02l.02-.02h.01l.02.01c.04.06.05.12.04.18a.7.7 0 0 1-.1.21c-.07.14-.1.3-.07.47 0 .06.02.1.05.15.03.05.08.07.13.07a.4.4 0 0 0 .17-.08.56.56 0 0 1 .15-.07.6.6 0 0 1 .17-.01c.13 0 .22-.05.27-.19l.04-.1c.06-.17.11-.29.16-.36l.12-.2c.06-.12.1-.3.1-.52.01-.27-.02-.5-.11-.7l-.15-.33a.32.32 0 0 1-.03-.17c.07.03.12.07.17.12l.14.16v.01a1 1 0 0 1 .11.17c.06.11.09.22.08.33a2.38 2.38 0 0 1-.38 1.25l-.23.6a3.89 3.89 0 0 0-.13.5l-.06.2a96.05 96.05 0 0 0-.29.73 1 1 0 0 0-.08.15 5.54 5.54 0 0 1-.18.5.78.78 0 0 1-.04.12c-.08.2-.13.41-.15.64-.01.07 0 .14.03.2Z" fill="#A48269"/><path d="M6.31 6.36a.45.45 0 0 0-.06.11.4.4 0 0 0 0 .19l.01.04h-.01a.55.55 0 0 1-.16-.13h-.02a.66.66 0 0 0-.36.18c-.03.03-.04.02-.04-.02 0-.08.03-.16.07-.24A.43.43 0 0 1 6 6.24c.1-.04.19-.03.27.01.04.02.05.06.03.1Z" fill="#79492C"/><path d="m9.22 6.3.03.09a1.4 1.4 0 0 0-.14.53l.19-.15h.02l.02.01c.03.12.01.24-.07.35l-.4.48a4.57 4.57 0 0 1-.76.71 2.28 2.28 0 0 1-.27.21c-.05.03-.06.07-.05.12.01.02 0 .02-.01.03a1.54 1.54 0 0 1-.2.01v-.04a.94.94 0 0 0 .24-.16l.34-.28a3.26 3.26 0 0 0 .2-.3c.1-.11.18-.25.24-.4l.14-.23.13-.23c.02-.06.01-.1-.03-.13h-.02a.74.74 0 0 0-.26.12l.23-.18v-.03a.59.59 0 0 0-.3-.06l-.26-.01a.4.4 0 0 1-.21-.11.4.4 0 0 0-.2-.12l-.35-.06c.17 0 .28 0 .35-.02l.3-.06a1.03 1.03 0 0 1 .38.04 1.61 1.61 0 0 0 .53.05c.03 0 .04-.01.05-.03a.3.3 0 0 1 .14-.14Z" fill="#976340"/><path d="M5.74 6.49a.71.71 0 0 0-.07.24c0 .04.01.05.04.02.09-.1.2-.16.36-.19l.02.01c.04.06.1.1.16.14h.01v-.06a.4.4 0 0 1 0-.18.45.45 0 0 1 .05-.11.18.18 0 0 1 .05-.04.36.36 0 0 0-.03.38v.03a.7.7 0 0 0-.17.25l-.02.01-.33.04-.02-.01a.36.36 0 0 1-.14-.26c0-.1.01-.2.06-.3l.1-.17h.01l-.08.2Z" fill="#9A715A"/><path d="M7.2 6.35a.54.54 0 0 1-.26.1.83.83 0 0 0-.2.07.13.13 0 0 1-.03 0l-.03-.01v-.03c.06-.06.12-.1.19-.11.18-.05.29-.07.33-.04v.02Z" fill="#976340"/><path d="m9.25 6.39.14.31c.04.14.09.24.13.32l.19.4a1.28 1.28 0 0 0-.15.1l-.15.13a.46.46 0 0 1-.14.08.23.23 0 0 0-.1.06v.01c-.02.02-.02.02 0 0l.02-.02v.02a9.25 9.25 0 0 1-.32.17l-.22.13.22-.16a2.78 2.78 0 0 0 .2-.17 7.06 7.06 0 0 1 .45-.43v-.02l-.02-.1-.02-.01c-.14 0-.24.04-.31.12a3.42 3.42 0 0 1-.28.3c.15-.15.28-.31.38-.5.08-.11.1-.23.07-.35l-.02-.02H9.3l-.19.15s-.01 0 0 0a1.5 1.5 0 0 1 .14-.52Z" fill="#7A5440"/><path d="m7.47 6.46.35.07a.4.4 0 0 1 .2.12c.05.05.12.09.21.1a1.42 1.42 0 0 0 .31.02c.08 0 .16.02.24.05l.01.02v.02l-.23.18a32 32 0 0 1-.32.47.55.55 0 0 1-.15.1.53.53 0 0 0-.18.11.53.53 0 0 0-.27-.08 1.34 1.34 0 0 1-.52-.04.8.8 0 0 1-.3-.1c-.1-.06-.12-.15-.1-.26l.1-.06.3-.18a.41.41 0 0 0 .12-.16l.02-.03a.1.1 0 0 0 .03-.03.18.18 0 0 1 .1-.09l.01-.02-.01-.03c-.02-.02-.04-.02-.07-.02a.22.22 0 0 0-.07.03 8.73 8.73 0 0 1-.2.28.34.34 0 0 1-.12.1l-.14.06c-.09 0-.16-.01-.23-.04a.14.14 0 0 1-.09-.09.16.16 0 0 1 .02-.12.25.25 0 0 1 .09-.1l-.04.12v.03c.03.04.06.06.1.07h.01l.13-.06h.03a.3.3 0 0 1 .08.05c.02.02.04.02.06.01.02 0 .04-.02.04-.04L7 6.78 7 6.76a.22.22 0 0 1-.14-.1h-.03l-.2.05a.75.75 0 0 1 .18-.08l.18-.03c.16 0 .3-.05.44-.13h.05Z" fill="#79492C"/><path d="M12.63 8.04c-.13-.09-.25-.21-.36-.36a1.35 1.35 0 0 1-.14-.3 2.1 2.1 0 0 0-.09-.22c-.07-.14-.13-.3-.16-.46l.01-.04a.05.05 0 0 1 .05-.02l.06.02.24.04c.1.01.18 0 .24-.03a.57.57 0 0 0 .1-.07.65.65 0 0 1 .08-.06c.09-.05.17-.05.24.01.07.06.1.13.1.23l.02.64a.5.5 0 0 1-.04.22.7.7 0 0 1-.14.2c-.08.08-.14.14-.18.2h-.03Z" fill="#7A5440"/><path d="m6.81 7.18-.15.02c-.03 0-.04 0-.04-.03s0-.04.03-.05l.14-.03.14-.07a.34.34 0 0 0 .1-.1 8.73 8.73 0 0 0 .22-.27.22.22 0 0 1 .07-.03c.03 0 .05 0 .07.02l.01.03s0 .02-.02.02a.18.18 0 0 0-.1.1.1.1 0 0 1-.02.02.08.08 0 0 0-.02.03.41.41 0 0 1-.12.16l-.3.18Z" fill="#E6C2A0"/><path d="m6.57 6.74.05-.03.2-.06h.02c.03.06.08.1.15.1l.01.03-.01.14c0 .02-.02.04-.04.05-.02 0-.04 0-.06-.02a.3.3 0 0 0-.08-.05h-.03l-.13.05h-.01a.15.15 0 0 1-.1-.06v-.03l.03-.12Z" fill="#391704"/><path d="M7.9 6.83c-.07 0-.11.01-.13.04a.54.54 0 0 1-.15.16v.04l.15.2.02.02.04-.01.12-.1c-.03.11-.13.15-.28.12a.7.7 0 0 1-.17-.1h-.02a1 1 0 0 1-.2.15.58.58 0 0 1-.24.06l-.02-.01v-.03a3.16 3.16 0 0 0 .13-.17c.05-.05.1-.09.15-.11a63.1 63.1 0 0 1 .28-.15.8.8 0 0 0 .17-.14h.02a.2.2 0 0 1 .12.03Z" fill="#9A715A"/><path d="M7.9 6.83c.04.07.06.12.07.17.01.05 0 .11-.02.18l-.12.1a.04.04 0 0 1-.04 0h-.03l-.14-.21v-.04c.06-.04.11-.1.15-.16.02-.03.06-.04.12-.04Z" fill="#CC9B73"/><path d="M8.16 8.2a2.4 2.4 0 0 0-.43.34.29.29 0 0 0-.22.17v.02a.94.94 0 0 0 .39-.03.56.56 0 0 1-.46.02.9.9 0 0 0 .02-.41.23.23 0 0 0-.06-.13.6.6 0 0 0-.26-.16L7.06 8a.7.7 0 0 0-.28-.04l-.01.01V8l.05.05.02.02v.03l-.02.01-.06.01c-.06 0-.1.02-.12.04a.2.2 0 0 0-.08.1c0 .04 0 .08.02.13.02.06.03.1.02.11-.02.13-.1.2-.22.22l-.29.05a.57.57 0 0 1-.13-.07 2.22 2.22 0 0 1-.3-.32v-.02l.08-.12c.04-.06.03-.14-.02-.2a.46.46 0 0 0-.18-.15H5.5l-.01.01-.01.05c-.03.04-.04.03-.04 0v-.07l-.03-.2.02.04h.03a.62.62 0 0 0 .08-.2l-.01-.03-.08-.06.1.04.02-.01v-.07a.49.49 0 0 0-.13-.13h-.02c-.03.03-.03.07-.02.11l-.02-.01-.02.01v.05c0-.1 0-.21.04-.32l.01-.03v.06l.02.03.15.22.05.02.03-.03.08-.23c.05.03.1.05.17.06a1.73 1.73 0 0 0 .22.02h.02c.07-.1.15-.13.24-.12.03 0 .09.03.16.08a.7.7 0 0 0 .06.04l.1.03c-.02.11 0 .2.1.26a.8.8 0 0 0 .3.1l.1.07c.02 0 .02.02.02.03l-.01.02a.4.4 0 0 1-.33.1l-.02-.02-.1-.12a.37.37 0 0 0-.3-.07.3.3 0 0 0-.22.2l-.04.09v.02l.03.01.16-.02c.02 0 .03 0 .04-.02v-.03a.17.17 0 0 0-.05-.06l-.02-.02.02-.02.17-.06c.14 0 .24.05.29.16l.02.02.16.06c.13.04.21.08.27.11l.15.12h.02a.65.65 0 0 1 .13-.22c.06-.06.13-.1.22-.14.03 0 .05-.04.08-.09.03-.04.09-.07.17-.11a.55.55 0 0 0 .16-.1.45.45 0 0 0 .07-.11 32 32 0 0 0 .25-.36c.08-.06.16-.1.25-.12h.03c.04.03.05.07.03.13a1.6 1.6 0 0 1-.14.23c-.07.1-.11.18-.13.24a1.4 1.4 0 0 1-.23.4 2.18 2.18 0 0 0-.21.29Z" fill="#B2917A"/><path d="m12.43 7.04.07.03c.1.06.17.1.2.14.06.06.08.14.06.25 0 .02 0 .02-.02.02-.2.01-.33-.06-.42-.22a4.81 4.81 0 0 1-.14-.31c.02-.03.04-.03.07-.01l.18.1Z" fill="#573925"/><path d="M8.2 7 8.2 7h.24c.06-.01.07 0 .02.04a.9.9 0 0 1-.21.12l-.04-.01A.39.39 0 0 1 8.2 7Z" fill="#A48269"/><path d="m5.75 7.13-.08.23-.03.03c-.02 0-.03 0-.05-.02l-.15-.22-.01-.03-.01-.06.01-.03.03-.03h.03l.02.02h.05l.12.01c.03.02.05.05.07.1Z" fill="#391704"/><path d="M5.96 7.67a.68.68 0 0 0-.05-.13c-.03-.07-.04-.12-.04-.15.01-.05.06-.09.15-.12l.21-.1c.05-.04.1-.05.14-.06.04 0 .08 0 .13.03l.01.02c0 .07-.02.14-.06.2a.43.43 0 0 1-.13.1l-.02.02a.62.62 0 0 0-.12.1.75.75 0 0 1-.11.12.72.72 0 0 1-.24.13c-.02 0-.04 0-.05-.02v-.02c-.02-.03 0-.05.02-.05l.12-.02c.03 0 .04-.02.04-.05Z" fill="#7A5440"/><path d="M8.87 7.94c.07-.06.13-.14.18-.22a.74.74 0 0 1 .11-.12c.11-.1.2-.2.24-.28V7.3l-.02-.01a.3.3 0 0 0-.12.04 14 14 0 0 1-.79.76.82.82 0 0 0-.2.18c-.02.02-.02.03 0 .04h.03l.31-.19c-.1.07-.2.14-.27.23v.01l.11-.02a5.22 5.22 0 0 1 .48-.26l.21-.1c.03-.02.04-.01 0 0l-.4.26c-.1.03-.22.1-.38.22l-.14.1a1.03 1.03 0 0 0-.28.3h.01a1.46 1.46 0 0 1 .45-.38l-.2.16a1.6 1.6 0 0 0-.3.35l-.05.09-.06.08A.78.78 0 0 0 8 8.98a.87.87 0 0 1 .24-.18h.03v.04l-.1.16-.13.14.14-.12-.03.03a7.02 7.02 0 0 0-.22.2 1.57 1.57 0 0 0-.36.22.96.96 0 0 1-.15.11.78.78 0 0 1-.19.06c-.03.01-.04 0-.01-.02l.01-.02.3-.32.11-.1c.07-.06.11-.1.13-.14a3.52 3.52 0 0 1 .25-.4c0-.02-.02-.02-.03-.01a.85.85 0 0 1-.25.1V8.7h-.07.07l-.2.02-.02-.01V8.7a.37.37 0 0 1 .2-.16l.09-.05a.94.94 0 0 1-.24.16l-.01.02.01.02h.03l.17-.01c.01 0 .02-.01.01-.03-.01-.05 0-.09.05-.12h.01l.26-.2a3.31 3.31 0 0 1 .36-.3c.17-.17.3-.3.4-.42l.4-.48a2.1 2.1 0 0 1-.39.51s0 .01 0 0c.08-.07.18-.17.29-.3.07-.1.17-.14.3-.13l.03.01.03.1-.01.02a5.24 5.24 0 0 0-.14.11 7.07 7.07 0 0 0-.4.42l-.11.07Z" fill="#79492C"/><path d="m5.46 7.42-.05-.06c-.01-.04 0-.08.02-.1h.02c.05.03.1.07.12.12.01.02.01.04 0 .07l-.01.01a.26.26 0 0 1-.1-.04Z" fill="#E6C2A0"/><path d="m8.87 7.94-.22.16-.04.02-.31.19h-.03c-.02-.01-.02-.03 0-.04.02-.05.1-.1.2-.18l.13-.1a14 14 0 0 0 .66-.66.3.3 0 0 1 .12-.04h.02v.03a1.3 1.3 0 0 1-.24.28.74.74 0 0 0-.1.12c-.06.08-.12.16-.2.22Z" fill="#573925"/><path d="m5.41 7.36.05.06.08.06v.02a.62.62 0 0 1-.07.2c-.01.02-.02.02-.03.01l-.02-.05-.05-.25v-.05l.02-.01.02.01Z" fill="#7A5440"/><path d="M10.25 8.82v.03h-.03a1.47 1.47 0 0 0-.4-.35.37.37 0 0 0-.14-.03 4.89 4.89 0 0 1-.4-.06v-.02l.17-.1a2.13 2.13 0 0 1 .3-.09c.05-.01.1-.04.18-.1v-.02l-.1-.03c-.15.02-.3.06-.48.12-.1.03-.2.08-.32.15a4.48 4.48 0 0 0-.87.72l.03-.03.19-.2a2.66 2.66 0 0 1 1.15-.75C9.5 8 9.41 8 9.28 8.04c-.1.02-.18.05-.26.1a5.14 5.14 0 0 0-.78.54 1.55 1.55 0 0 1 .32-.3c.02-.04.07-.08.16-.13l.02-.01.4-.26c.04-.02.03-.02 0 0a1.5 1.5 0 0 0-.2.1 3.7 3.7 0 0 1-.6.27c.07-.1.16-.17.27-.23l.04-.02.22-.13a1.82 1.82 0 0 1 .32-.17v-.01c0-.01 0-.01 0 0l-.02.01c-.02.02-.02.02 0 0a.23.23 0 0 1 .1-.07c.04-.01.1-.04.14-.08a1.97 1.97 0 0 0 .16-.14l.14-.1.11.2a2.3 2.3 0 0 1 .3.53l.06.3a1.43 1.43 0 0 0 .07.38Z" fill="#9A715A"/><path d="M7.9 7.72c-.01.05-.04.08-.07.1a.65.65 0 0 0-.22.13l-.08.07c-.03.02-.04.01-.03-.02V8a.1.1 0 0 0 .02-.04c0-.1.03-.15.13-.15v-.02a.44.44 0 0 0-.1-.09.4.4 0 0 0-.14-.01 22.58 22.58 0 0 0-.14-.04c.08.01.2.02.37 0 .07 0 .16.02.27.08Z" fill="#7A5440"/><path d="m6.79 7.68.01.04v.01h-.02a.44.44 0 0 0-.2-.03l-.18.06a.03.03 0 0 0-.01.02v.02l.06.06v.03c0 .02-.02.02-.03.02l-.17.02h-.02V7.9s0-.04.03-.1a.3.3 0 0 1 .23-.19c.1-.02.2 0 .3.07Z" fill="#976340"/><path d="M7.61 7.95a.65.65 0 0 0-.13.21c0 .01-.01.02-.02 0l-.15-.1a1.15 1.15 0 0 0-.26-.12 2.15 2.15 0 0 1-.19-.08c-.05-.1-.15-.16-.29-.16.08 0 .15 0 .21.03h.02v-.01l-.01-.04.09.12.02.01a.4.4 0 0 0 .33-.09l.01-.02-.01-.03-.11-.07c.09.05.19.07.29.08a.4.4 0 0 1 .13.01l.12.09-.01.02c-.1 0-.14.05-.13.15l-.01.04L7.5 8c0 .03 0 .04.03.02l.08-.07Z" fill="#A48269"/><path d="m5.7 8.43-.19-.2c-.07-.08-.1-.2-.06-.36v.06c0 .04.01.04.04 0l.01-.04.02-.02h.02c.08.04.14.09.18.15.05.07.06.14.02.21l-.09.12v.02c.02.02.04.04.04.06Z" fill="#E6C2A0"/><path d="M7.44 8.72a.54.54 0 0 1-.13.07.45.45 0 0 0-.18.08.62.62 0 0 1-.1.08.85.85 0 0 1-.33.08h.05c.02 0 .02 0 0 0l-.15.05c.02-.04-.03-.03-.16.02l-.04-.08h.24L6.7 9l.26-.06c.12-.05.16-.1.1-.17a.38.38 0 0 0-.15-.02 1.23 1.23 0 0 0-.18.03h-.24c-.02 0-.02 0 0 0l.02-.01c-.1 0-.2.02-.3.06l-.03-.02.18-.05a.67.67 0 0 0 .18-.06.27.27 0 0 0 .1-.13c.03-.05.03-.1.02-.16a.31.31 0 0 1 .03-.25c.01-.02.02-.03.04-.03s.03 0 .04.02c.1.12.18.26.25.42h.01l.16.01c-.07-.23-.2-.4-.37-.54l-.05-.05v-.02h.01a.7.7 0 0 1 .28.03l.08.02c.1.03.18.08.26.16.03.03.05.07.06.13a.9.9 0 0 1-.02.41Z" fill="#9A715A"/><path d="m8.38 8.82-.2.17.1-.16v-.04h-.03a.87.87 0 0 0-.24.18.78.78 0 0 1-.22.2l.06-.1.39-.39c.1-.08.17-.16.25-.2.21-.16.39-.27.53-.34.08-.05.17-.08.26-.1.13-.03.21-.03.25.02v.01c-.45.15-.84.4-1.15.75Z" fill="#79492C"/><path d="m6.18 8.81-.09-.05.29-.05c.13-.02.2-.1.22-.22l-.02-.11a.24.24 0 0 1-.02-.13.2.2 0 0 1 .08-.1c.02-.02.06-.03.12-.04h.06l.02-.02v-.03l-.02-.02a1.13 1.13 0 0 1 .37.54h-.16l-.01-.01c-.07-.16-.15-.3-.25-.42a.05.05 0 0 0-.04-.02c-.02 0-.03.01-.04.03a.31.31 0 0 0-.03.25c.01.05 0 .1-.02.16a.27.27 0 0 1-.1.13.67.67 0 0 1-.18.06l-.18.05Z" fill="#A48269"/><path d="m10.22 8.85-.16-.03a.97.97 0 0 0-.5-.07.95.95 0 0 0-.46.16.71.71 0 0 0-.15.14.52.52 0 0 0-.1.18c-.04.15.02.26.19.32a10.7 10.7 0 0 1 .52.24c.09.05.16.1.2.1.06.03.16.04.3.04h.1c.07 0 .13.03.17.08.03.03.06.09.09.17l.02.05c.02.05.04.07.08.08.03 0 .06-.01.1-.04.06-.05.1-.13.13-.25l.03-.3a2.21 2.21 0 0 0 .25.76l.13.29c.05.1.07.21.07.3.01.14-.02.26-.1.36a.65.65 0 0 1-.3.21c-.08.03-.15.02-.2-.02a.63.63 0 0 1-.13-.16.65.65 0 0 0-.14-.17.18.18 0 0 0-.18-.02.36.36 0 0 0-.14.1.82.82 0 0 0-.16.3c-.03.06-.05.17-.08.32a6.04 6.04 0 0 1-.24.7c-.15.33-.3.57-.45.7a4.8 4.8 0 0 0-.52.58 5.88 5.88 0 0 1-2.14-.66l.64-.17c.01 0 .02-.01.01-.03l-.21-.44a.07.07 0 0 0-.06-.04c-.03 0-.05 0-.07.02l-.16.21c-.04.06-.09.08-.13.08h-.2a.42.42 0 0 0-.16.07v.02c.08.1.17.17.27.24a4.99 4.99 0 0 1-.78-.53c0-.14.01-.24.05-.3l.16-.4c.04-.13.08-.23.12-.3l.14-.37.15-.38c.07-.13.12-.23.18-.3a.63.63 0 0 1 .25-.2l.08-.02.16-.07c.06-.03.1-.07.14-.1.1-.11.09-.22-.01-.32a3.51 3.51 0 0 0-.37-.02h.04-.01v-.02l.03-.02c.02 0 .02-.02.01-.03v-.02l-.03-.02a.4.4 0 0 1-.05 0 .18.18 0 0 0-.12 0v-.01l.01-.01c.16 0 .27 0 .33-.03.1-.03.17-.09.22-.19h.02l-.07.2s0 .01 0 0c.09-.03.13-.08.14-.14v-.03a.19.19 0 0 1 .07-.05l-.01.02c-.03.02-.02.03.01.02a.78.78 0 0 0 .19-.06.96.96 0 0 0 .16-.11c.06-.05.12-.1.19-.13.1-.03.2-.08.32-.16a.53.53 0 0 1 .28-.1.42.42 0 0 0-.26.04c.08-.06.16-.09.23-.07h.02c.11.02.2.03.25.02.09 0 .16-.04.23-.11l.2-.2c.06-.05.13-.12.19-.22V8.5a.03.03 0 0 0-.03 0 .5.5 0 0 0-.16.05l-.15.12c-.16.14-.3.2-.44.21h-.02v-.02l.17-.23a6.77 6.77 0 0 0 .42-.3c.12-.08.22-.13.32-.16.18-.06.34-.1.47-.12.03 0 .07 0 .11.03v.02a.71.71 0 0 1-.28.13l-.2.06a.57.57 0 0 0-.16.1v.03l.39.05c.05 0 .1.01.14.03.13.07.26.19.4.35Z" fill="#CC9B73"/><path d="m8.16 8.2-.34.3-.08.04c.13-.13.27-.24.42-.33Z" fill="#9A715A"/><path d="m8.82 8.21-.2.12v.01h.01l.2-.11V8.2Z" fill="#976340"/><path d="M5.85 8.5c.11-.1.26-.1.44 0 .01 0 .02 0 .02.02l-.01.03c-.15.1-.3.1-.45 0l-.01-.03.01-.02Z" fill="#D1A183"/><path d="M7.78 9.33a2 2 0 0 0 .16-.09 6.93 6.93 0 0 1 .66-.62l-.15.24v.02h.01c.14 0 .28-.07.44-.21l.15-.12a.5.5 0 0 1 .16-.06l.03.01v.03c-.06.1-.12.17-.19.23l-.2.19a.34.34 0 0 1-.23.11 1.01 1.01 0 0 1-.27-.02c-.07-.02-.15 0-.23.07a.42.42 0 0 1 .26-.04c-.11.01-.2.04-.28.1a.98.98 0 0 1-.32.16Z" fill="#BC8A63"/><path d="M7.73 8.54a.37.37 0 0 0-.2.16v.02H7.74c.1-.02.19-.06.27-.1h.02v.03L8 8.7l-.21.33a.73.73 0 0 1-.13.14l-.1.1a3.52 3.52 0 0 1-.38.4c0 .06-.05.11-.13.14h-.01l.07-.2h-.01a.37.37 0 0 1-.23.2l-.33.02h-.01v.01a.18.18 0 0 1 .12 0 .4.4 0 0 0 .05.01c.01 0 .02 0 .02.02l.02.02c0 .01 0 .02-.02.03l-.03.02v.02c.01 0 0 0 0 0h-.03v.01h.02l.35.01a5.8 5.8 0 0 0-.58.05 1.15 1.15 0 0 0-.27.2.21.21 0 0 1-.15.04 2 2 0 0 1 .04-.17c.01-.05.04-.1.07-.14.09-.12.14-.2.16-.25l.14-.38a.38.38 0 0 0 .03-.2l.14-.05.15-.04c.02 0 .02-.01 0-.01H6.7c.12 0 .23-.03.33-.08l.1-.08c.05-.04.11-.07.18-.08.03 0 .07-.03.13-.07.15.06.3.05.45-.02a.94.94 0 0 1-.37.03c-.01 0-.02 0-.01-.02.04-.1.12-.15.22-.17ZM12.04 8.92c-.02.02-.03.04-.01.05l.07.03c.15.1.22.24.21.4 0 .17-.09.28-.25.35a.05.05 0 0 1-.06-.03l-.02-.04a.43.43 0 0 0-.13-.19h-.02l-.04-.01a1.53 1.53 0 0 1-.18-.2.62.62 0 0 0-.2-.21l-.01-.14c.02-.1.07-.18.15-.25h.01c0-.01.01-.02.03-.02l.02.02c.1.13.24.21.43.24Z" fill="#D1A183"/><path d="M10.06 8.82c.09.03.14.08.17.15a4.26 4.26 0 0 1 .1.22.3.3 0 0 0 .1.1c.08.15.17.26.3.35-.03.02-.02.05.05.08 0 .1 0 .2-.03.3a.46.46 0 0 1-.13.25c-.04.03-.07.04-.1.04-.04 0-.06-.03-.08-.08l-.02-.05a.66.66 0 0 0-.09-.17.23.23 0 0 0-.17-.08h-.1a.96.96 0 0 1-.3-.03 1.24 1.24 0 0 1-.2-.11 10.72 10.72 0 0 0-.52-.24c-.17-.06-.23-.17-.19-.32a.52.52 0 0 1 .1-.18c.04-.05.09-.1.15-.14.13-.1.28-.15.46-.16.19-.02.35 0 .5.07Z" fill="#E1B390"/><path d="M7.07 8.77c-.08-.01-.17 0-.28.02a3.07 3.07 0 0 0-.3.1v.01c.04.05.1.08.15.11l-.24.01a.6.6 0 0 0-.2-.2 1.03 1.03 0 0 1 .32-.06l-.03.01c-.02 0-.02.01 0 .01a1.03 1.03 0 0 0 .26 0l.16-.03c.06 0 .1 0 .16.02Z" fill="#7A5440"/><path d="M7.07 8.77c.05.06.01.12-.11.17a1.1 1.1 0 0 1-.25.06c.05-.01.04-.02-.05-.04a.04.04 0 0 1-.04-.03V8.9l.04-.04c0-.01 0-.01 0 0a.15.15 0 0 0-.08.06v.03c0 .03.03.05.06.07a.45.45 0 0 1-.15-.1v-.02l.01-.02h.02l.27-.08c.1-.03.2-.03.28-.02Z" fill="#79492C"/><path d="m8.38 8.82-.2.19-.13.12.13-.14.2-.17Z" fill="#7A5440"/><path d="M10.22 8.85h.02l.01-.03.04.13.05.13.1.22a.3.3 0 0 1-.12-.11 4.26 4.26 0 0 0-.1-.22c-.02-.07-.07-.12-.16-.15l.16.03Z" fill="#D1A183"/><path d="M6.7 9 6.65 9a.15.15 0 0 1-.06-.07V8.9a.15.15 0 0 1 .07-.07h.01l-.03.05v.04c0 .02.01.03.03.03.09.02.1.03.05.04Z" fill="#7A5440"/><path d="M11.61 9.27v.02l-.2-.22c.08.05.15.12.2.2ZM11.62 9.32v.02l.27.36h.02v-.02l-.27-.36h-.02Z" fill="#BC8A63"/><path d="m11.48 9.65.03-.01v-.02a.58.58 0 0 1-.03-.27c0-.02 0-.02.02-.01l.1.04.02.02.21.34c.03.05.04.1.02.19a1.58 1.58 0 0 1-.12.3l-.1.23-.02.02a.16.16 0 0 1-.15 0 .75.75 0 0 1-.15-.11 2.9 2.9 0 0 0-.21-.19c-.05-.06-.06-.14-.03-.24a.77.77 0 0 1 .11-.23.19.19 0 0 1 .14-.08c.04 0 .1 0 .16.02Z" fill="#976340"/><path d="m8.9 11.34.18.18v.02a2.1 2.1 0 0 0-.07.4c0 .05-.03.1-.07.14a.86.86 0 0 1-.13.1.6.6 0 0 0-.14.12c-.06.09-.14.17-.22.24H8.4l-.19-.22a.04.04 0 0 0-.04-.02.6.6 0 0 0-.31.21 1 1 0 0 0-.2.32 5 5 0 0 0-.1.38c-.08.04-.15.03-.2-.03a.53.53 0 0 1-.15-.29c-.02-.13.02-.22.12-.29a7.74 7.74 0 0 1 .28-.2c0-.02 0-.03-.02-.03l-.06.01-.1.04c-.18.08-.29.11-.34.1a.03.03 0 0 1-.03-.02v-.03c.07-.1.16-.2.26-.3a.48.48 0 0 1 .15-.1 2.11 2.11 0 0 1 .23-.09.72.72 0 0 0 .2-.11l.3-.22c.1-.06.15-.12.17-.16a.34.34 0 0 0 .04-.21.24.24 0 0 0-.11-.18.21.21 0 0 0-.17-.02 1.84 1.84 0 0 1-.82.04.37.37 0 0 1-.07-.04v-.05l.18-.08a.06.06 0 0 0 .04-.05c0-.03 0-.05-.03-.06l-.27-.18c-.02-.01-.03-.03-.01-.05.03-.05.06-.1.1-.13a.61.61 0 0 1 .14-.1c.03 0 .05-.02.06-.03a.97.97 0 0 1 .14-.06.73.73 0 0 0 .15-.07c.22-.17.45-.31.68-.43.08-.05.17-.08.27-.1a.8.8 0 0 1 .25-.02c.08 0 .16.02.23.06.16.07.22.2.18.4l-.06.24c-.02.07-.03.18-.04.32l-.02.18a.5.5 0 0 1-.1.26 1.1 1.1 0 0 1-.23.19c-.02 0-.02.01 0 .02ZM10.72 9.64c.08.06.14.08.2.05-.02.17-.02.3 0 .39.03.13.1.23.22.3l.28.2c.19.12.29.29.3.5.02.2-.04.38-.18.55-.09.1-.17.2-.27.29-.21.2-.43.4-.65.58a2.6 2.6 0 0 1-.3.21c-.14.08-.24.15-.3.2-.16.13-.3.3-.44.5-.1.15-.2.34-.31.6h-.24l-.44-.04a2.38 2.38 0 0 1 .52-.57c.15-.14.3-.38.45-.72l.15-.34c.04-.13.08-.24.1-.35l.06-.33c.04-.1.1-.2.16-.28.05-.05.1-.09.15-.1a.18.18 0 0 1 .18.01c.04.03.08.09.14.17.05.09.1.14.13.16.05.04.12.05.2.02a.65.65 0 0 0 .3-.21c.08-.1.11-.22.1-.35 0-.1-.03-.2-.07-.31a3.37 3.37 0 0 0-.13-.3 2.22 2.22 0 0 1-.25-.75c-.07-.03-.09-.06-.06-.08Z" fill="#BC8A63"/><path d="M7.02 9.98c.1.1.1.2.01.31a.48.48 0 0 1-.14.1 1.65 1.65 0 0 1-.24.1c-.1.05-.18.11-.25.2-.06.06-.11.16-.18.3l-.15.38-.14.36-.12.3c-.04.13-.1.26-.16.4a.73.73 0 0 0-.05.3l-.2-.16a13.24 13.24 0 0 0 .2-.65 6.81 6.81 0 0 0 .26-.93c.04-.24.1-.48.16-.72.06 0 .11-.01.15-.05l.03-.02c.1-.09.18-.14.24-.17a5.8 5.8 0 0 1 .58-.05Z" fill="#E6C2A0"/><path d="M10.14 10.24a.17.17 0 0 1 .07-.11l.04-.03c.04-.03.06-.02.05.03-.02.2-.09.4-.19.6-.02.04-.03.04-.04 0 0-.13.02-.3.07-.5Z" fill="#BC8A63"/><path d="m11.83 11.7.02.04c-.09.1-.15.22-.2.35h.02l.2-.32.02.05a.37.37 0 0 0-.1.17v.02h.02l.13-.1.58 1.07c-.47.33-.99.58-1.55.75-.1-.05-.19-.11-.26-.19a.26.26 0 0 1-.07-.27l.04-.11a.27.27 0 0 1 .1-.12l.15-.08.06-.03a1.85 1.85 0 0 1-.18.07c.08-.07.17-.15.28-.22a.35.35 0 0 0 .11-.1 4.93 4.93 0 0 0 .26-.47c.05-.1.17-.27.37-.52Z" fill="#573925"/><path d="m11.9 11.82.04.1-.13.09h-.01V12l-.02-.01a.37.37 0 0 1 .11-.17Z" fill="#79492C"/><path d="M9.24 12.12c.09 0 .17.01.24.04l.01.03a.97.97 0 0 1-.24.44c-.18.2-.37.4-.6.62-.18.18-.4.3-.64.37a3.56 3.56 0 0 1-.34.04c.03-.1.07-.18.11-.24.05-.07.11-.13.18-.19a.87.87 0 0 0 .23-.29c.05-.1.15-.23.29-.36.04-.05.1-.08.17-.1.1-.03.2-.08.3-.14a3.46 3.46 0 0 0 .3-.22Z" fill="#E1B390"/><path d="m6.45 13.3-.07-.03c-.1-.07-.19-.15-.27-.24v-.02c.06-.03.11-.05.17-.06l.19-.01c.04 0 .09-.03.13-.08l.16-.2a.07.07 0 0 1 .07-.04c.03 0 .04.02.06.04l.21.45-.01.03-.64.17Z" fill="#BC8A63"/><path d="M10.64 13.27c-.03.1 0 .2.07.27s.16.14.26.2l-.43.11-.32-.2a.05.05 0 0 1-.03-.04l.01-.04a.5.5 0 0 1 .08-.08.45.45 0 0 1 .1-.06c.1-.04.19-.1.26-.16Z" fill="#7A5440"/></svg>