<!-- by TradingView --><svg width="18" height="18" viewBox="0 0 18 18" xmlns="http://www.w3.org/2000/svg"><path fill="#0E0949" d="M0 0h18v18H0z"/><path d="M10.71 9.83c-.23-.34-.75-.24-.86.15-.02.05-.02.14-.03.26 0 .83-.06 1.64-.15 2.42-.03.27-.08.55-.17.84-.05.17-.2.43-.4.47-.32.05-.49-.3-.56-.55-.09-.3-.15-.66-.18-1.03a33.86 33.86 0 0 1-.12-2.14.95.95 0 0 0-.05-.33c-.24-.5-.98-.33-1 .22-.01.55-.07 1.1-.16 1.66-.03.15-.09.33-.15.48a.52.52 0 0 1-.38.3c-.35.05-.54-.32-.6-.6a6.86 6.86 0 0 1-.16-1.03 25.69 25.69 0 0 1 .09-4.64v-.05c.07-.37.13-.74.47-.9.22-.11.47.06.57.26.07.15.13.34.16.52.1.54.15 1.07.16 1.6 0 .26.13.44.36.53.24.09.53-.04.63-.27a.88.88 0 0 0 .06-.3l.02-.66c.02-.48.06-1.02.1-1.43.02-.3.06-.6.13-.9.05-.21.13-.49.3-.63.35-.3.63.1.72.4.08.25.13.5.16.77.09.76.14 1.55.15 2.38 0 .18.02.31.06.39.2.38.74.37.9-.05a.94.94 0 0 0 .03-.26c.02-.55.07-1.06.15-1.54.05-.27.14-.62.38-.78.13-.08.27-.09.4-.01.26.14.35.46.4.72.06.34.1.63.11.87.11 1.31.11 2.64 0 4-.02.33-.08.68-.15 1.04l-.12.29c-.1.2-.3.33-.54.27-.31-.08-.43-.54-.48-.8-.09-.53-.14-1.09-.16-1.7a.47.47 0 0 0-.09-.24ZM4.63 7.5c.27 0 .42.17.48.37.11.37.14.76.14 1.13 0 .37-.03.76-.14 1.13-.06.2-.2.37-.49.37-.27 0-.42-.17-.48-.37A3.93 3.93 0 0 1 4 9c0-.37.03-.76.14-1.13.06-.2.2-.37.49-.37Zm9.23 2.63c.11-.37.14-.76.14-1.13 0-.37-.03-.76-.14-1.13-.06-.2-.2-.37-.48-.37-.28 0-.43.17-.49.37-.11.37-.14.76-.14 1.13 0 .37.03.76.14 1.13.06.2.2.37.48.37.28 0 .43-.17.49-.37Z" fill="#fff"/></svg>