<!-- by TradingView --><svg width="18" height="18" viewBox="0 0 18 18" xmlns="http://www.w3.org/2000/svg"><path fill="url(#a)" d="M0 0h18v18H0z"/><circle cx="9" cy="9" r="6" fill="url(#b)"/><path d="M12.72 5.29a4.67 4.67 0 0 0 .43.5l.13.18a4 4 0 0 0 .32.51l.13.22c.15.25.26.53.34.8a1.21 1.21 0 0 1-.37-.47l-.16-.32a8.6 8.6 0 0 0-.6-.88c-.2-.22-.33-.39-.5-.54a8.85 8.85 0 0 1-.42-.37 133 133 0 0 0-.89-.54 3.88 3.88 0 0 0-.66-.27 328.84 328.84 0 0 1 .21.04 8.04 8.04 0 0 0-1.9-.28 12 12 0 0 0-.68.07l-.39.09a7.47 7.47 0 0 0-1.46.64 6.1 6.1 0 0 0-.44.29 9.04 9.04 0 0 0-.89.84c-.1.17-.25.38-.42.63a3.4 3.4 0 0 0-.28.5 8.01 8.01 0 0 0-.34.88c-.04.11-.11.18-.23.21l-.23.06c-.2.05-.22.17-.3.35a.52.52 0 0 1-.12.2 4.13 4.13 0 0 1 .23-1.29H3.3a3.88 3.88 0 0 0 .2-.45l.15-.33c.15-.28.3-.54.46-.76.13-.2.28-.36.46-.58l.02-.01c.31-.09.62-.15.94-.2.04 0 .07-.03.11-.05a3.85 3.85 0 0 1 .75-.45h-.01l-.22.09v-.01c.2-.14.4-.26.62-.35.27-.11.6-.21.86-.29a5.66 5.66 0 0 1 3.32.18 5.74 5.74 0 0 1 1.76 1.15Z" fill="#F4CB57"/><path d="m10.47 4.1-.35-.1a3.63 3.63 0 0 1 .56.15l-.21-.04Z" fill="#E5B54F"/><path d="M6.7 6.5v.1l-.1.2h-.02v.04c-.1.18-.15.38-.17.6v.14l.01.01c.11-.03.18-.06.22-.1.09-.06.18-.12.27-.16l-.29.24c-.13.02-.16.04-.07.05l-.06.03a27.11 27.11 0 0 0-.76.03.07.07 0 0 0-.02.04l-.02.1c-.01.08-.08.18-.08.24a96.74 96.74 0 0 1 0 .26l-.2.18a.4.4 0 0 0-.13.2.03.03 0 0 1-.03.02l-.49.02a.07.07 0 0 0-.07.06c-.01.1-.04.2-.1.3l-.2.37a.4.4 0 0 1-.16.16.1.1 0 0 0-.05.08V10.12c0 .02 0 .02-.01 0-.04-.14-.05-.3-.04-.45l.03-.58a11.52 11.52 0 0 1 .2-1.34c.05-.21.11-.4.19-.57.12-.28.25-.53.4-.75A4.48 4.48 0 0 1 6.1 5.16l.38-.28a4.64 4.64 0 0 1 2.55-.7c.19 0 .42.03.58.04.1 0 .2.03.3.05a41.08 41.08 0 0 1 .31.1l-.02.01c-.23-.03-.48-.08-.7-.1-.18-.01-.4-.02-.64-.01-.16 0-.35.02-.57.07a14.97 14.97 0 0 0-.86.2l-.28.12a42.7 42.7 0 0 1-.67.35c-.11.08-.24.15-.33.23A6.38 6.38 0 0 0 4.75 6.9a2.6 2.6 0 0 0-.2.53c-.06.21-.1.4-.12.56-.03.29.02.65.42.51.38-.13.6-.45.8-.8l.08-.11.03-.02c.22-.07.4-.18.54-.34.05-.07.12-.17.19-.32l.2-.42Z" fill="#BE8D37"/><path d="M12.53 6.87a.99.99 0 0 0-.62-.54c-.26-.1-.52-.16-.8-.19l-.16-.03a.3.3 0 0 1-.1-.06 2.13 2.13 0 0 0-.53-.28 11.77 11.77 0 0 0-.8-.23c.02.01.01.02 0 .01H9.5v.02a3.85 3.85 0 0 0 .16.01l-.08-.04.08.03a.02.02 0 0 1 0 .03l-.02.01-.15-.02-.02.01v.01l.02.01c.06.04.13.06.21.07a4.3 4.3 0 0 0 .28.11l-.47-.14a.07.07 0 0 1-.03-.03.07.07 0 0 1-.01-.05v-.05a.58.58 0 0 0 .04-.18 2.46 2.46 0 0 0-.05-.5v.48l-.01-.57a.04.04 0 0 0-.03-.03.4.4 0 0 0-.14-.01c-.03 0-.03 0 0 .01h.08l.02.01v.02a1.8 1.8 0 0 1-.2.02c-.33-.02-.5-.03-.7 0-.02 0-.03-.01-.02-.03v-.02h-.01l-.02.15V4.8a.5.5 0 0 0-.06.16c-.02.25-.02.45-.16.62l-.3.1v-.02c.22-.08.4-.16.41-.4a4.01 4.01 0 0 1 .06-.49h-.01a3.9 3.9 0 0 0-.05.37c-.02.2-.05.31-.2.4l-.2.12c-.24.04-.46.12-.65.26-.11.07-.22.16-.34.26-.08.08-.16.17-.22.28 0 .02 0 .02.01.01a.43.43 0 0 0 .1-.08c.15-.2.34-.36.54-.5.03 0 .06 0 .08.02-.17.1-.33.23-.47.39l-.25.3-.01-.1c-.14.1-.21.2-.33.35-.05.07-.14.1-.25.12-.29.03-.58.03-.87 0a.38.38 0 0 1-.15-.05c-.01 0-.02 0 0-.02v-.03l.01-.04c.14-.23.28-.43.4-.6a5.27 5.27 0 0 1 1.33-1.17 4.8 4.8 0 0 1 1.88-.56l.73-.02.36-.02h.15l.5.08c.2.05.42.13.61.23l.28.15c.2.1.33.16.48.27.06.03.12.08.18.14.3.28.47.42.65.66.1.12.2.25.3.4l.24.39a4.23 4.23 0 0 1 .36.9v.27c0 .2-.12.37-.34.32-.2-.05-.32-.26-.37-.45l-.12-.46c-.03-.14-.1-.3-.2-.49Z" fill="#E5B54F"/><path d="M9.5 4.56c.13 0 .25.01.36.03.34.07.6.14.77.2l.6.3a3.79 3.79 0 0 1 1.36 1.24v.02c-.07.02-.16 0-.26-.04A3.83 3.83 0 0 0 11.28 6a1.67 1.67 0 0 1-.29-.05 4.61 4.61 0 0 1-.9-.4c-.33-.18-.47-.45-.58-.79l-.02-.02a.31.31 0 0 1-.07-.11.03.03 0 0 1 0-.03c.02-.03.05-.04.09-.04Z" fill="#F4CB57"/><path d="m9.44 5.33.02.2v.1l.04.03.47.14a5.73 5.73 0 0 1 .43.13l.32.17.04.05v.02a.03.03 0 0 1-.02.02l-.18.04-.29.06a8.59 8.59 0 0 1-.6.24 7.8 7.8 0 0 0-.65.42v.06h.07l-.03.01-.35.04c-.28.04-.4.19-.36.46a.5.5 0 0 1-.17.03 6.3 6.3 0 0 1-.58-.03V7.5l.11-.19-.13.12.11-.23c.4-.36.83-.68 1.3-.95-.01.07-.05.14-.13.19a2.85 2.85 0 0 0-.33.27c.12-.09.24-.17.37-.24a.97.97 0 0 0 .18-.17v-.16a.03.03 0 0 0-.04-.04l-.21.01a.8.8 0 0 0-.2.07c-.13.06-.35.14-.5.23l-.2.1-.3.18a127.16 127.16 0 0 1-.86.55v.01a5.77 5.77 0 0 1 .28-.17c-.2.14-.4.26-.64.35a1.62 1.62 0 0 1 .17-.62V6.8h.01l.12-.2.25-.3-.03.06v.01h.02c.13-.1.26-.24.39-.32.3-.2.6-.27.97-.37l.12-.05.01-.02.02-.11a.03.03 0 0 0-.04-.03v.01-.6l.01-.15h.02v.02l.01.02c.22-.02.38 0 .71 0a1.8 1.8 0 0 0 .2-.02l-.02-.01h-.08c-.03-.01-.03-.02 0-.02h.14a.04.04 0 0 1 .03.04v.57Z" fill="#F4CB57"/><path d="M8.41 4.8c0 .24-.03.46-.1.66a.28.28 0 0 1-.11.12c.14-.17.14-.37.16-.62 0-.05.02-.1.05-.16Z" fill="#D0993F"/><path d="M8.42 4.88v.6c-.02.07-.06.12-.13.14a2.73 2.73 0 0 0-.86.3.12.12 0 0 0-.08-.03c.17-.1.35-.17.54-.21l.31-.1c.06-.04.1-.08.1-.12.08-.2.12-.42.11-.66l.01.08Z" fill="#BE8D37"/><path d="m9.46 5.53-.02-.2v-.49c0-.02 0-.02.01 0 .03.17.05.33.05.5 0 .07-.02.13-.04.19Z" fill="#D0993F"/><path d="M6.96 6.3a1.95 1.95 0 0 1 .92-.58l.41-.1c.07-.02.11-.07.12-.14h.01a.03.03 0 0 1 .04.02l-.02.1-.01.03-.12.05c-.38.1-.68.17-.97.37-.13.08-.26.22-.4.32h-.01v-.01l.03-.06Z" fill="#FDFE76"/><path d="M11.91 6.33c-.3-.09-.6-.1-.9-.06a.29.29 0 0 0-.12-.03l-.01-.01h-.32l.18-.04a.03.03 0 0 0 .02-.03v-.01l-.04-.05.08.04h.02l.01-.01v-.01l-.28-.2-.15-.06-.38-.14H10a37.4 37.4 0 0 1-.35-.13.02.02 0 0 0 0-.02l-.1-.03a2.13 2.13 0 0 1 1.27.52.3.3 0 0 0 .12.05c.06 0 .11.02.16.03.28.04.54.1.8.2Z" fill="#D0993F"/><path d="M9.63 5.61a37.47 37.47 0 0 0 .39.11l.38.14.05.05-.01.02h-.03a5.72 5.72 0 0 0-.93-.3l-.02-.02c0-.02.01-.02.02-.02l.15.02Z" fill="#FDFE76"/><path d="m8.98 6.26.07-.05.01-.03-.02-.01c-.05 0-.15.05-.3.1-.47.21-.92.44-1.34.7l-.49.36c-.1.04-.18.1-.27.17a.66.66 0 0 1-.22.1l-.01-.02v-.14a2.77 2.77 0 0 0 .36-.17v-.02c.05-.05.1-.1.15-.12a127.16 127.16 0 0 0 1.21-.71c.15-.1.37-.17.5-.23a.8.8 0 0 1 .2-.07.84.84 0 0 1 .21 0h.02l.01.02v.17a.02.02 0 0 1 0 .01.97.97 0 0 1-.17.15 4.9 4.9 0 0 0-.38.24c.12-.1.23-.2.34-.27a.26.26 0 0 0 .12-.18Z" fill="#E5B54F"/><path d="M8.98 6.26A7.54 7.54 0 0 0 7.3 7.63a.01.01 0 0 0 0 .02h1.1a301.74 301.74 0 0 0 1.75 0c.1 0 .15.01.2.09h.01c.02-.04.04-.06.07-.06.25-.02.63-.01 1.3-.01a.02.02 0 0 0 .03-.01.02.02 0 0 0 0-.02 1.25 1.25 0 0 0-.24-.53.68.68 0 0 0-.15-.13c-.1-.06-.22-.11-.36-.16-.1-.03-.23-.05-.37-.05a3.4 3.4 0 0 0-1.53.33c-.03.02-.07.02-.09.01-.03 0-.03-.02 0-.03l.06-.04.47-.28A4.91 4.91 0 0 1 11 6.27c.3-.05.6-.03.9.06.28.1.5.26.62.54.08.2.1.38.08.58a4.09 4.09 0 0 0-.02.24c.03.04.05.07.05.12a14.27 14.27 0 0 0-.02.52 1.1 1.1 0 0 1-.3.37c-.02.02-.02.03.02.03l1.22.01c.08 0 .12.04.12.12v.43a10.22 10.22 0 0 1-.34.67.56.56 0 0 1-.24.22.58.58 0 0 1-.23.03h-.23l-1 .02a18.08 18.08 0 0 1-.5-.02.2.2 0 0 1-.1-.12h-.01a.68.68 0 0 1-.4.13H8.9l-.03-.01-.05-.06H8.8l-.02.04a.07.07 0 0 1-.07.03H7.18a6.47 6.47 0 0 0-.35.01.03.03 0 0 0 0 .05c.12.15.26.26.42.33.1.07.22.12.33.15l.32.07a5.69 5.69 0 0 0 2.58-.21v.02a6.23 6.23 0 0 1-1.47.57 5.13 5.13 0 0 1-2.51.09c-.2-.07-.39-.15-.57-.27a1.33 1.33 0 0 1-.49-.53 8.28 8.28 0 0 1-.1-.24.04.04 0 0 0-.05-.02h-1a.28.28 0 0 1-.07-.05.12.12 0 0 1-.04-.08v-.4a.1.1 0 0 1 .05-.08.4.4 0 0 0 .16-.16l.2-.37c.06-.1.09-.2.1-.3a.07.07 0 0 1 .07-.06l.49-.02a.03.03 0 0 0 .03-.03.4.4 0 0 1 .14-.2 3.66 3.66 0 0 0 .2-.2v-.23c0-.06.06-.16.07-.24l.02-.1a.07.07 0 0 1 .06-.06h.72c.02 0 .04-.02.06-.04l.07-.05.3-.24c.21-.17.37-.3.48-.36a9.87 9.87 0 0 1 1.64-.8l.02.01-.01.03-.07.05Z" fill="#0D070B"/><path d="m11.01 6.27-.27.05a4.91 4.91 0 0 0-1.66.72l-.02-.02.03-.02h.01a.12.12 0 0 1-.08.01v-.06c.04-.05.12-.1.21-.16a7.8 7.8 0 0 1 .78-.4c.09-.05.18-.08.26-.1l.3-.06h.32v.01l.12.03Z" fill="#E5B54F"/><path d="M9.78 7.32a1.5 1.5 0 0 0-.42-.25c.18.02.3.12.42.25ZM7.7 7.21l-.12.23c-.03.06-.02.1.03.12a2 2 0 0 1 .19.1l-.5-.01a.01.01 0 0 1 0-.02c.12-.15.25-.29.4-.42Z" fill="#D0993F"/><path d="m8.56 8.08 1.58.01.02.01a.02.02 0 0 1 0 .02.6.6 0 0 1-.1.22l-.03.02h-.08a.03.03 0 0 0-.03.01l-.13.25a.04.04 0 0 1-.04.02 310.6 310.6 0 0 1-2.04 0c-.02 0-.02-.03-.01-.06.03-.1.07-.18.12-.25.03-.05.07-.07.13-.1a.03.03 0 0 0 .01-.05c-.03-.05-.03-.08 0-.12a.7.7 0 0 0 .13-.33l.01-.01 2.08.02c.06 0 .07.01.02.04L9.87 8a.04.04 0 0 1-.05 0 .36.36 0 0 0-.22-.07h-.97a.05.05 0 0 0-.05.03l-.05.08c0 .03 0 .04.03.04ZM7.05 8.42c.01-.02 0-.03-.03-.04a87.71 87.71 0 0 1-1.3-.27.08.08 0 0 1-.03-.1c.05-.1.1-.18.1-.27a.02.02 0 0 1 0-.02h2.14a.02.02 0 0 1 .02.01.02.02 0 0 1 0 .01v.02h-.01a18.58 18.58 0 0 1-.38.24c-.07-.03-.09-.07-.17-.07H6.33c-.02 0-.03 0-.03.03a.02.02 0 0 0 .02.02l1.32.24a.05.05 0 0 1 .04.08l-.17.32-.02.02H5.41a.02.02 0 0 1-.01-.03l.24-.22h.03c.05 0 .08.04.13.05h.04a24.9 24.9 0 0 0 1.21-.02ZM10.76 8.32l-.17.3a.07.07 0 0 1-.06.04 10.02 10.02 0 0 1-.52-.03v-.01a.01.01 0 0 1 0-.01c.06-.04.1-.1.14-.18l.3-.53c.01-.04.03-.09.02-.14a.02.02 0 0 1 0-.02.02.02 0 0 1 .02 0h2.02a.06.06 0 0 1 .06.06v.03a.83.83 0 0 1-.38.42.34.34 0 0 1-.16.04 82.23 82.23 0 0 1-1.27.03Z" fill="#fff"/><path d="m10.92 8.02.04-.06a.05.05 0 0 1 .04-.02h.89a.05.05 0 0 1 .05.04.05.05 0 0 1-.03.05l-.16.06h-.8a.05.05 0 0 1-.03-.07Z" fill="#0D070B"/><path d="m5.28 9.02-.05.08c-.01.02 0 .03.02.03l1.42.03c.03 0 .06.02.08.06v.03c-.1.2-.2.36-.4.43a60.27 60.27 0 0 1-2 .02c-.05 0-.06-.02-.02-.05a.43.43 0 0 0 .1-.13l.34-.6a.12.12 0 0 0 0-.1V8.8h.01l.01-.01 2.14.01c.03 0 .04.01 0 .03l-.34.23a.04.04 0 0 1-.04 0c-.06-.05-.1-.07-.19-.07a1173.38 1173.38 0 0 0-1.06 0l-.02.03ZM8.55 9.02A.01.01 0 0 0 8.53 9h-.97a.06.06 0 0 0-.05.04l-.04.07c0 .03 0 .04.04.04l.8.02a.01.01 0 0 1 .02.01.01.01 0 0 1 0 .01l-.14.14-.03.01h-1.2c-.05 0-.1 0-.12-.06l.01-.06c.09-.18.26-.4.47-.41a36.33 36.33 0 0 1 1.88.02l-.46.85a.03.03 0 0 1-.03.02H6.67c-.04 0-.05-.01-.01-.03l.33-.23h.03l.12.07h.02a73.74 73.74 0 0 0 1.12 0l.02-.03.25-.46ZM11.38 8.83c0 .04 0 .07-.02.1-.1.21-.2.4-.32.58-.14.19-.3.18-.5.19a60.15 60.15 0 0 1-1.6 0c-.04-.02-.05-.04-.04-.08.1-.2.2-.4.32-.6a.48.48 0 0 1 .22-.18.57.57 0 0 1 .23-.04 374.78 374.78 0 0 1 1.7.02v.01ZM12.38 8.8a218.7 218.7 0 0 1 1.23.03 14.68 14.68 0 0 1-.24.5c-.06.1-.1.17-.16.23-.1.1-.2.14-.33.14a383.33 383.33 0 0 1-1.72 0l-.02-.03a14.65 14.65 0 0 1 .24-.5c.05-.1.1-.18.16-.23.1-.1.2-.14.33-.14h.5Z" fill="#fff"/><path d="m9.51 9.49.26-.47A.02.02 0 0 1 9.79 9h.96a.02.02 0 0 1 .03.04l-.26.47a.02.02 0 0 1-.02.01h-.96a.02.02 0 0 1-.03-.02v-.01ZM11.73 9.47l.24-.45A.04.04 0 0 1 12 9h.96a.04.04 0 0 1 .04.05l-.24.45-.02.01h-.98a.04.04 0 0 1-.04-.03v-.01ZM5.02 9.46l.05-.09a.04.04 0 0 1 .04-.02h.95a.04.04 0 0 1 .04.06l-.05.1a.04.04 0 0 1-.04.01h-.95a.04.04 0 0 1-.04-.04v-.02Z" fill="#0D070B"/><path d="M13.95 10.14a4.84 4.84 0 0 1-2.17 3.18 4.93 4.93 0 0 1-5.7-.15 5.08 5.08 0 0 1-1.94-2.86c0-.01 0-.02.01 0 .02 0 .06.04.08.07.06.1.14.18.24.23l.01.02.03.1a4.8 4.8 0 0 0 3.2 2.9c.35.12.7.18 1.02.19.4 0 .74 0 1.02-.05a5.26 5.26 0 0 0 2.2-.97 4.86 4.86 0 0 0 1.71-2.53c.12-.1.22-.15.3-.13Z" fill="#FDFE76"/><path d="M9.84 10.23a.1.1 0 0 0-.04.02v.03a.4.4 0 0 1-.07.3.45.45 0 0 1-.33.2c-.17.02-.36.03-.58.02a.72.72 0 0 1-.23-.05 1.47 1.47 0 0 1-.45-.27l-.15-.21a.11.11 0 0 0-.1-.05h-.7H8.7c.03 0 .05-.01.07-.03l.02-.04h.03l.05.06h.03l.93.02ZM12.64 10.22a47.6 47.6 0 0 0-.64.12.39.39 0 0 0-.1.08c-.06.06-.12.09-.17.08l.01-.2-.01-.02a.33.33 0 0 0-.1-.05l1.01-.01Z" fill="#BE8D37"/><path d="m8.1 10.44.04.04c.13.11.28.2.45.27.08.03.15.04.23.05l.58-.01a.45.45 0 0 0 .33-.2c.02 0 .04.02.04.05l-.01.02a.74.74 0 0 1-.23.16c-.26.04-.53.06-.8.06l-.38-.18c-.12-.06-.24-.13-.26-.26Z" fill="#F4CB57"/><path d="M11.94 12.8c-.22.17-.45.32-.7.46l-.4.16a5.62 5.62 0 0 1-1.05.25c-.09 0-.18.02-.3.04l-.39.04c-.14 0-.41 0-.82-.03-.09 0-.28-.03-.57-.08a4.95 4.95 0 0 1-2.02-1.17c.1.07.19.12.3.17l.3.16a9.29 9.29 0 0 0 1.27.64l.68.17c.26.06.54.09.84.07a40.97 40.97 0 0 0 .82-.07 14.1 14.1 0 0 0 .99-.3c.23-.1.5-.25.8-.42a.89.89 0 0 1 .25-.1Z" fill="#E5B54F"/><path d="M11.25 13.26a2.8 2.8 0 0 1-.55.24.05.05 0 0 1-.03.02 5.97 5.97 0 0 1-1.94.3 3.82 3.82 0 0 1-1.02-.18 5.33 5.33 0 0 0 2.08.03l.3-.03a5.6 5.6 0 0 0 1.16-.38Z" fill="#F4CB57"/><defs><linearGradient id="a" x1="9" y1="0" x2="5.86" y2="17.33" gradientUnits="userSpaceOnUse"><stop stop-color="#FEE07C"/><stop offset=".44" stop-color="#E5B54F"/><stop offset="1" stop-color="#D0993F"/></linearGradient><linearGradient id="b" x1="9" y1="3" x2="6.91" y2="14.55" gradientUnits="userSpaceOnUse"><stop stop-color="#FDFE76"/><stop offset=".44" stop-color="#E5B54F"/><stop offset="1" stop-color="#D0993F"/></linearGradient></defs></svg>