<!-- by TradingView --><svg width="18" height="18" viewBox="0 0 18 18" xmlns="http://www.w3.org/2000/svg"><path fill="url(#a)" d="M0 0h18v18H0z"/><path d="M10.54 10.14v.77c0 .05-.05.09-.1.09H6.1c-.05 0-.1-.04-.1-.1V5.1c0-.06.05-.1.1-.1h4.79c.06 0 .11.04.11.1v.77c0 .05-.05.13-.11.13H7v4h3.44c.05 0 .1.09.1.14ZM7.47 7.87V7.1c0-.05.04-.09.1-.09h4.33c.05 0 .1.04.1.1v5.8c0 .06-.05.1-.1.1H7.13c-.05 0-.13-.04-.13-.1v-.78c0-.05.08-.12.13-.12H11V8H7.57c-.06 0-.1-.08-.1-.13Z" fill="#FFB496"/><defs><linearGradient id="a" x1="3.35" y1="3.12" x2="21.9" y2="24.43" gradientUnits="userSpaceOnUse"><stop stop-color="#1A1E21"/><stop offset="1" stop-color="#06060A"/></linearGradient></defs></svg>