<!-- by TradingView --><svg width="18" height="18" viewBox="0 0 18 18" xmlns="http://www.w3.org/2000/svg"><path fill="url(#a)" d="M0 0h18v18H0z"/><path d="m9.33 8.24-.68 2.72-.02.03-.02.01h-.55v-.03L7.42 8.5c-.01-.05-.03-.05-.04 0l-.62 2.47c0 .02-.02.03-.03.03h-.53c-.02 0-.03-.01-.04-.04L5.63 8.8l-.45-1.76a.04.04 0 0 1 0-.03H5.88v.02l.58 2.28c.01.04.02.04.03 0l.58-2.3.02-.01h.67v.01l.6 2.32c0 .02 0 .02.01 0l.58-2.3.01-.02.03-.01h.64l.01.01v.03l-.3 1.2ZM5.08 9.24c.17.6.12 1.03-.15 1.47a.57.57 0 0 1-.36.27c-.03.01-.16.02-.38.02H2.02l-.01-.01-.01-.02v-.68h2.4c.1 0 .15-.12.15-.26V9.6c0-.15-.05-.22-.16-.22H2.76c-.48 0-.78-.52-.76-1.16.01-.35.08-.64.2-.86.14-.24.32-.37.54-.37h2.13l.02.01.01.03.2.62a.03.03 0 0 1 0 .02l-.01.01H2.77c-.1 0-.15.12-.15.27v.45c0 .14.05.22.15.22h1.28c.32 0 .5 0 .57.03.2.08.36.27.46.58ZM12.32 7h.02v.02l.01.02v.02l-.2.65c-.01.03-.02.02-.04.03h-1.7c-.13 0-.2.15-.2.34v1.84c0 .3.11.38.3.38h1.63c.02 0 .02-.03.02-.05v-.97c0-.03 0-.06-.03-.06h-.81l.18-.85.02-.03h1.29v2.63a.03.03 0 0 1 0 .02l-.01.01h-2.24a.94.94 0 0 1-.44-.08 1.1 1.1 0 0 1-.5-.68 2.63 2.63 0 0 1-.07-.69v-1.4c.03-.35.13-.64.33-.87.15-.17.33-.28.53-.28h1.91Z"/><path d="M16 7.74h-1.3v3.22c0 .02-.01.04-.03.04h-.64c-.02 0-.03-.02-.03-.04V7.74h-1.47l-.01-.01a.03.03 0 0 1 0-.02l.21-.66.02-.04.03-.01H16l.01.03v.7Z"/><defs><linearGradient id="a" x1="3.74" y1="3" x2="14.97" y2="16.89" gradientUnits="userSpaceOnUse"><stop stop-color="#D1E0FF"/><stop offset="1" stop-color="#E4F5FF"/></linearGradient></defs></svg>