<!-- by TradingView --><svg xmlns="http://www.w3.org/2000/svg" width="18" height="18" viewBox="0 0 18 18"><path fill="url(#a3slgo1lb)" d="M0 0h18v18H0z"/><path d="M13 5.5a.5.5 0 0 0-.5-.5h-7a.5.5 0 0 0-.5.5v1c0 .28.22.5.5.5H8v6.5c0 .28.22.5.5.5h1a.5.5 0 0 0 .5-.5V7h2.5a.5.5 0 0 0 .5-.5v-1z" fill="#fff"/><defs><linearGradient id="a3slgo1lb" x1="2.89" y1="2.73" x2="14.3" y2="16.23" gradientUnits="userSpaceOnUse"><stop stop-color="#243A83"/><stop offset="1" stop-color="#162358"/></linearGradient></defs></svg>