<!-- by TradingView --><svg width="18" height="18" viewBox="0 0 18 18" xmlns="http://www.w3.org/2000/svg"><path fill="#F0F3FA" d="M0 0h18v18H0z"/><path d="m8.86 3 .69.03 1.49 1.13a.08.08 0 0 0 .1 0l.02-.02.38-.57.8.46 1.9 4.42-1.34-1.44a.3.3 0 0 0-.1-.07 14.8 14.8 0 0 0-1.6-.6 7.25 7.25 0 0 0-4.12-.06c-.46.12-.97.31-1.54.57L4.4 5.13A6.14 6.14 0 0 1 7.15 3.3l.4-.11C8 3.07 8.43 3 8.86 3Z" fill="#B75E59"/><path d="m11.12 3.4.42.17-.38.57a.08.08 0 0 1-.1.03l-.02-.01-1.49-1.13c.56.05 1.09.17 1.57.37ZM13 4.53c.35.31.65.65.9 1l.26.4a5.91 5.91 0 0 1 .74 4.11l-.67-1.59-1.88-4.42.66.5ZM4.4 5.13l1.14 1.72.18.3c.04.15-.02.14-.2-.02-.12-.13-.17-.1-.14.07.08.45.33.83.77 1.13l-.19.12-.72-1.13a.49.49 0 0 0-.1-.38l-.98-1.18c-.02-.02-.04-.02-.05 0l-.45.52c.2-.42.45-.8.74-1.15Z" fill="#79352F"/><path d="M5.13 6.94c-.82.7-1.52 1.5-2.12 2.4-.06-1.1.16-2.12.65-3.06l.45-.52c.01-.02.03-.02.05 0l.97 1.18Z" fill="#B75E59"/><path d="m14.23 8.45.68 1.6a5.6 5.6 0 0 1-.51 1.58c-.13-.44-.3-.86-.5-1.27a5.7 5.7 0 0 0-1.28-1.68c.19-.18.3-.43.32-.76.08-.23.02-.37-.17-.43-.02 0-.03-.02-.03-.04v-.3c0-.1-.04-.12-.11-.05-.09.08-.22.2-.4.39a.95.95 0 0 1-.33.17c-.18.07-.35.15-.5.26a5.6 5.6 0 0 0-4.1-.26 2.3 2.3 0 0 0-.52.25 22.87 22.87 0 0 0-.8-.42l-.01.02.08.07c.03.03.03.05-.02.03a.55.55 0 0 1-.24-.14.06.06 0 0 1-.01-.07c.03-.07 0-.16-.06-.25l-.18-.3a10.8 10.8 0 0 1 1.54-.57 7.25 7.25 0 0 1 4.12.06c.52.16 1.05.36 1.6.6a.3.3 0 0 1 .1.07l1.33 1.44ZM5.13 6.94c.09.1.12.23.1.38-.09.55.04 1 .4 1.34l-.11.1-.54.56c-.27.3-.5.63-.66.99-.22.47-.42.98-.61 1.52a5.79 5.79 0 0 1-.7-2.5c.6-.89 1.3-1.68 2.12-2.39Z" fill="#C6837F"/><path d="M5.72 7.15c.07.1.09.18.06.25-.01.03 0 .05.01.07.07.06.14.11.24.14.05.02.05 0 .02-.03a.28.28 0 0 0-.08-.06v-.03H6l.78.42-.35.24-.28.18c-.44-.3-.7-.68-.77-1.13-.03-.17.02-.2.15-.07.17.16.23.17.19.02ZM12.94 7.92a.94.94 0 0 0-.69.55l-.86-.55c.16-.1.33-.2.5-.26a.96.96 0 0 0 .34-.17l.4-.39c.07-.07.1-.05.1.05v.3c0 .02.02.04.04.04.2.06.25.2.17.43Z" fill="#B75E59"/><path d="m5.97 8.45-.34.2c-.36-.33-.49-.78-.4-1.33l.74 1.13Z" fill="#AE5048"/><path d="m11.4 7.92.85.55.37.21a5.7 5.7 0 0 1 1.28 1.68c.2.4.37.83.5 1.27-.21.43-.46.82-.76 1.17-.54.05-.98-.14-1.3-.6.05-.27.03-.55-.06-.81-.08-.22-.2-.35-.41-.41a1.75 1.75 0 0 0-.53-.07c-.35.01-.7.04-1.04.08-1.04.04-2.07.03-3.1-.04-.4-.03-.87 0-1.04.41-.5-.6-.9-1.29-1.18-2.04l.54-.56c.35-.13.66-.33.91-.6l.35-.25c.19-.12.36-.2.52-.26a5.6 5.6 0 0 1 4.1.27Z" fill="#E5EBEE"/><path d="M12.94 7.92c-.02.33-.13.58-.32.76l-.37-.21c.15-.3.38-.49.7-.55Z" fill="#AE5048"/><path d="M6.43 8.15c-.25.28-.56.48-.91.61l.1-.1.34-.2.19-.13.28-.18ZM4.98 9.32c.28.75.68 1.44 1.18 2.04-.09.22-.12.45-.1.71.04.45.27.73.69.85.31.1.82.16 1.5.2.07.34.24.57.5.7.42.2.8.13 1.13-.2.09-.07.17-.21.24-.41.02-.06.06-.09.1-.12.43-.02.85-.07 1.27-.15.1-.02.18-.05.26-.08l.25-.12a.76.76 0 0 0 .34-.53c.32.45.76.64 1.3.6l-.54.57c-.44.05-.68.24-.72.58a5.9 5.9 0 0 1-6.56.13c.05-.34-.1-.56-.42-.67a1.72 1.72 0 0 0-.48-.02c-.51-.47-.91-1-1.21-1.57.19-.54.4-1.05.61-1.52.17-.36.39-.69.66-1Z" fill="#CED3D2"/><path d="M12.34 12.2a.76.76 0 0 1-.34.54 2.29 2.29 0 0 1-.5.2c-.43.08-.85.13-1.28.15a.07.07 0 0 0-.02-.03l-.23-.66a.06.06 0 0 1 .04-.08l.18-.04c.85.29 1.34.04 1.46-.76 0-.03 0-.05-.03-.07a.26.26 0 0 0-.24-.02l-.77.28c-.32-.2-.27-.42-.31-.72.34-.04.69-.07 1.04-.08.18 0 .36.02.53.07.21.06.33.19.4.4.1.27.12.55.07.83Z" fill="#B75E59"/><path d="M10.3 10.99c.04.3-.01.52.31.72l-.57.2a.12.12 0 0 0-.05.2l.2.17-.18.04a.06.06 0 0 0-.04.08l.23.66h-.04c-.02 0-.04-.01-.04-.04-.03-.2-.09-.35-.17-.47-.08-.1-.15-.14-.2-.1l.13.68h.01-1.13l-.28-.01c-.03 0-.04-.02-.04-.04.1-.56.07-.68-.08-.37a.35.35 0 0 0-.1.4c-.7-.03-1.2-.1-1.51-.19-.42-.12-.65-.4-.69-.85-.02-.26.01-.5.1-.7.17-.41.64-.45 1.03-.42 1.04.07 2.07.08 3.1.04Zm-2.98.58a2.91 2.91 0 0 0-.66-.18.13.13 0 0 0-.1.14c.08.58.49.93 1.07.86.22-.03.42-.12.6-.28a.12.12 0 0 0-.02-.19 2.16 2.16 0 0 0-.44-.17l-.45-.18Z" fill="#AE5048"/><path d="M7.77 11.75c.17.05.32.1.44.17a.12.12 0 0 1 .02.2c-.18.15-.38.24-.6.27-.58.07-1-.28-1.06-.86a.13.13 0 0 1 .15-.15c.21.05.41.11.6.2l.45.17Zm.33.2-1.4-.48a.45.45 0 0 0-.02.23c.01.07.04.15.1.22.04.07.1.14.18.2.07.05.16.1.25.13h.01c.1.04.19.05.28.06.1 0 .19-.01.27-.04a.58.58 0 0 0 .21-.12c.06-.05.1-.11.12-.18v-.01ZM10.19 12.28l-.2-.17a.12.12 0 0 1 0-.16.12.12 0 0 1 .05-.04l.57-.2.77-.28c.09-.04.17-.03.24.02.02.02.03.04.03.07-.12.8-.6 1.05-1.46.76Zm.08-.36c-.2.07-.2.15 0 .23l.22.1c.17.06.35.07.54.01.32-.1.5-.33.54-.7a.07.07 0 0 0-.1-.08l-1.2.44Z" fill="#131313"/><path d="M8.1 11.96a.45.45 0 0 1-.12.2.58.58 0 0 1-.21.11.78.78 0 0 1-.27.04.94.94 0 0 1-.28-.06h-.01a.94.94 0 0 1-.25-.13.78.78 0 0 1-.19-.2.58.58 0 0 1-.09-.22.45.45 0 0 1 .02-.22v-.01l1.4.49Z" fill="#CED3D2"/><path d="m10.2 13.06.02.03c-.04.03-.08.06-.1.12a.97.97 0 0 1-.24.4c-.25.1-.48.15-.7.15a.86.86 0 0 1-.62-.24c-.2-.2-.28-.47-.2-.8.15-.32.18-.2.08.36 0 .02 0 .04.04.04l.28.01a.36.36 0 0 1-.22.03.04.04 0 0 0-.05.05.74.74 0 0 0 .86.45c.28-.05.46-.23.54-.52v-.01c.01.04.02.09.01.14l.01.01h.02a.78.78 0 0 0-.18-.83c.05-.04.12 0 .2.1.08.12.14.28.17.47 0 .03.02.04.04.04h.04Z" fill="#838383"/><path d="M9.75 12.45c.22.23.28.5.18.82l-.02.01c0-.06 0-.11-.03-.15l-.13-.68ZM8.36 12.71c-.08.34 0 .6.2.8.16.17.37.25.63.25.2 0 .44-.05.7-.14-.34.33-.72.4-1.14.2-.26-.13-.43-.36-.5-.7a.35.35 0 0 1 .1-.4Z" fill="#79352F"/><path d="M9.9 13.14c-.09.3-.27.47-.54.52a.74.74 0 0 1-.5-.05.8.8 0 0 1-.37-.4.04.04 0 0 1 .05-.05c.07.01.15 0 .22-.03h1.13Z" fill="#CED3D2"/><path d="m13.1 13.38-.72.58c.04-.34.28-.53.72-.58Z" fill="#B75E59"/><path d="m5.82 14.09-.9-.69c.25 0 .4 0 .48.02.33.11.47.33.42.67Z" fill="#AE5048"/></svg>