<!-- by TradingView --><svg width="18" height="18" viewBox="0 0 18 18" xmlns="http://www.w3.org/2000/svg"><path fill="#F0F3FA" d="M0 0h18v18H0z"/><path d="M8.5 4v2H7L5.33 9l1.84 3H8.5v2H6L3 9l3-5h2.5Z" fill="url(#atogu201x)"/><path d="M9.5 4v2h1.33l1.84 3-1.84 3H9.5v2H12l3-5-3-5H9.5Z" fill="url(#btogu201x)"/><path d="M10 7H8l1 2h2l-1-2Z" fill="url(#ctogu201x)"/><path d="M11 9H9l-1 2h2l1-2Z" fill="url(#dtogu201x)"/><path d="M9 9 8 7 7 9l1 2 1-2Z" fill="url(#etogu201x)"/><defs><linearGradient id="atogu201x" x1="5.67" y1="4" x2="7.28" y2="14.03" gradientUnits="userSpaceOnUse"><stop stop-color="#05CFB5"/><stop offset=".6" stop-color="#04C8CD"/><stop offset="1" stop-color="#03BFED"/></linearGradient><linearGradient id="btogu201x" x1="12.33" y1="4" x2="12.33" y2="14" gradientUnits="userSpaceOnUse"><stop stop-color="#05CCBF"/><stop offset=".48" stop-color="#04C1E7"/><stop offset="1" stop-color="#03BBFB"/></linearGradient><linearGradient id="ctogu201x" x1="9.58" y1="7.13" x2="9.58" y2="9" gradientUnits="userSpaceOnUse"><stop stop-color="#44D7D8"/><stop offset="1" stop-color="#43D4E3"/></linearGradient><linearGradient id="dtogu201x" x1="9.58" y1="9" x2="9.58" y2="10.88" gradientUnits="userSpaceOnUse"><stop stop-color="#03A5BA"/><stop offset="1" stop-color="#03A4BF"/></linearGradient><linearGradient id="etogu201x" x1="8" y1="7.13" x2="8" y2="10.88" gradientUnits="userSpaceOnUse"><stop stop-color="#04C9C9"/><stop offset="1" stop-color="#04C2D7"/></linearGradient></defs></svg>