<!-- by TradingView --><svg width="18" height="18" viewBox="0 0 18 18" xmlns="http://www.w3.org/2000/svg"><path fill="url(#abt14ksih)" d="M0 0h18v18H0z"/><path d="M12.8 12.64A4.25 4.25 0 0 0 15 8.9a4.3 4.3 0 0 0-2.44-3.68c-.4-.2-.82-.26-1.29-.19-.63.1 0 .91.23 1.2a4.23 4.23 0 0 1 .95 2.26c.1 1-.09 1.98-.67 2.87-.15.23-.32.47-.52.72-.21.28-.52.83.17.91.46.06 1.02-.14 1.38-.35Zm-4.14-5.3c.6 1.03.62 2.1.1 3.2-.12.23-.3.45-.46.67l-.2.27c-.11.16-.18.44.13.5.33.05.65 0 .95-.13a3.23 3.23 0 0 0 1.8-2.56c.1-1.15-.35-2.09-1.33-2.83a2.64 2.64 0 0 0-.63-.35c-.27-.1-.93-.23-1.01.1-.02.08 0 .17.07.28l.26.36c.11.17.23.33.32.49ZM6.61 9.81c.29-.81.15-1.58-.42-2.3-.1-.12-.31-.4-.04-.48.29-.1.68.09.9.24.76.56 1.07 1.27.91 2.14-.11.62-.84 1.71-1.82 1.58a.2.2 0 0 1-.06-.02.16.16 0 0 1-.05-.04.12.12 0 0 1-.02-.12.77.77 0 0 1 .1-.21l.05-.05c.17-.24.35-.48.45-.74ZM4 11c-.55 0-1-.9-1-2s.45-2 1-2 1 .9 1 2-.45 2-1 2Z" fill="url(#bbt14ksih)"/><defs><linearGradient id="abt14ksih" x1="3.35" y1="3.12" x2="21.9" y2="24.43" gradientUnits="userSpaceOnUse"><stop stop-color="#1A1E21"/><stop offset="1" stop-color="#06060A"/></linearGradient><linearGradient id="bbt14ksih" x1="3.71" y1="9" x2="14.47" y2="9" gradientUnits="userSpaceOnUse"><stop stop-color="#25F1A0"/><stop offset="1" stop-color="#7E45F2"/></linearGradient></defs></svg>