<!-- by TradingView --><svg width="18" height="18" viewBox="0 0 18 18" xmlns="http://www.w3.org/2000/svg"><path fill="#F0F3FA" d="M0 0h18v18H0z"/><path d="m6.53 7.9.2 1.01L7.5 12h1.18L10 6v6h1.4V9.88h.68L13.36 12H15l-1.5-2.42c.35-.16.61-.39.79-.69a2 2 0 0 0 .27-1.05c0-.26-.04-.5-.12-.7a1.44 1.44 0 0 0-.8-.88c-.2-.1-.4-.16-.62-.2A3.94 3.94 0 0 0 12.3 6H8.9l-.65 3.11-.13.77-.13-.77L7.29 6H5.9l-.67 3.11-.14.78-.15-.78L4.25 6H3l1.46 6h1.18l.7-3.1.2-1Zm5.66.86h-.78V7.24h.78c.29 0 .5.05.65.17.15.11.22.3.22.58 0 .26-.08.45-.24.58a.99.99 0 0 1-.63.19Z"/></svg>