<!-- by TradingView --><svg width="18" height="18" viewBox="0 0 18 18" xmlns="http://www.w3.org/2000/svg"><path fill="#181B1E" d="M0 0h18v18H0z"/><path d="m11.6 9.68.1-.37c.03-.13.05-.26.05-.38V7.86l.1-1.5a.4.4 0 0 1 .2-.31c.08-.05.27-.06.57-.04.03 0 .05.02.06.05l.15.77c.01.04.03.08.07.11.03.03.07.05.1.05.37.02.76.03 1.17.02a1.53 1.53 0 0 1 .76.2l.04.05a.18.18 0 0 1 .02.14c0 .03-.01.05-.03.07-.4.49-1.26.57-1.84.52-.12-.01-.18.05-.18.18v.34c0 .06.02.12.06.17.04.05.1.07.16.08.68.03 1.06.06 1.13.08.16.04.3.12.42.24l.02.06a.1.1 0 0 1-.01.05.96.96 0 0 1-.2.23.77.77 0 0 1-.23.11.46.46 0 0 0-.23.15c-.3-.09-.58-.1-.85-.07a.18.18 0 0 0-.15.1L13 9.8a.19.19 0 0 0-.04.1l-.07.55c0 .04-.03.08-.05.1a.48.48 0 0 0-.09.14.1.1 0 0 0 .01.1c.04.06.05.12.02.17l-.37.75c-.09.15-.14.32-.14.5l-.08 1.26c0 .03-.02.05-.05.06h-.04c-.04-.01-.06-.03-.06-.05V12.2l-.01-.05a.11.11 0 0 0-.03-.04.08.08 0 0 0-.03-.02h-.07a.1.1 0 0 0-.05.01.11.11 0 0 0-.04.03.14.14 0 0 0-.03.05V13.84c0 .03-.02.06-.04.09a.14.14 0 0 1-.07.05.8.8 0 0 1-.32 0c-.04 0-.06-.02-.05-.06 0-.03.02-.05.05-.07l.17-.06c.03-.01.05-.04.05-.08V12.4a.13.13 0 0 0-.04-.09.1.1 0 0 0-.08-.04h-1.2c-.24 0-.45-.26-.7-.5a.15.15 0 0 0-.05-.04c-.03-.01-.05-.01-.07 0a.15.15 0 0 0-.07.02 42.68 42.68 0 0 0-.2.42.97.97 0 0 1-.47.47c-.32.17-.66.3-1.01.39a1.9 1.9 0 0 1-.8-.12l-.39-.14a1 1 0 0 1-.33-.18 9.7 9.7 0 0 1-.5-.48 1.7 1.7 0 0 1-.37-.54 3.15 3.15 0 0 1-.2-1.74.1.1 0 0 0-.02-.04.1.1 0 0 0-.03-.02H5c-.83 0-1.35 0-1.54-.02-.19 0-.37-.04-.45-.24a.23.23 0 0 1 0-.16c.02-.05.06-.1.1-.12.1-.04.23-.09.43-.14.1-.03.23-.05.4-.05.31-.01.62-.03.91-.07.02 0 .03 0 .03-.03V8.2l-.01-.02-.03-.01-1.12-.05a.7.7 0 0 1-.33-.14.17.17 0 0 0-.1-.03h-.21l-.03-.01-.03-.03a.07.07 0 0 1 0-.06c.15-.3.4-.47.72-.54a782.69 782.69 0 0 1 1.19-.25.14.14 0 0 0 .03-.06l.18-.87.05-.07a.12.12 0 0 1 .07-.03h.87a.1.1 0 0 1 .06.03.1.1 0 0 1 .03.07c0 1.17.02 2.2.03 3.1.01.6.15 1.08.43 1.46.27.37.73.4 1.13.32a.59.59 0 0 0 .38-.24c.24-.34.36-.74.36-1.2V6.44c0-.03 0-.07.02-.1a.18.18 0 0 1 .07-.06c.05-.03.1-.1.14-.2.02-.04.04-.06.08-.07.05 0 .1.04.14.1.02.03.04.04.06.05l.52.13c.04 0 .06.04.07.08.03.17.04.32.04.44v2.48c.01.37.12.7.32.99a.6.6 0 0 0 .46.25c.31.02.58-.03.8-.16.2-.11.3-.34.33-.68Z" fill="#0EE"/></svg>