<!-- by TradingView --><svg width="18" height="18" viewBox="0 0 18 18" xmlns="http://www.w3.org/2000/svg"><path fill="#FE4D9E" d="M0 0h18v18H0z"/><path d="M9.12 8.17c.24-.25.44-.5.67-.75.13-.14.23-.28.28-.4.3-.7-.1-1.5-.9-1.61-.66-.1-1.26.36-1.34 1-.05.4.12.7.38 1.01 1 1.13 2 2.28 3 3.44.29.35.51.55.66.62.38.18.75.17 1.1-.02.5-.27.75-.9.53-1.42-.06-.15-.16-.3-.3-.46a168.95 168.95 0 0 1-1.66-1.93.1.1 0 0 1 0-.05c.27-.64.3-1.28.07-1.93-.02-.06 0-.07.04-.02.73.86 1.43 1.66 2.09 2.4.5.58.8.94.9 1.1a2.52 2.52 0 0 1-.63 3.3 2.66 2.66 0 0 1-3.7-.48 660.25 660.25 0 0 0-3.24-3.71 2.57 2.57 0 0 1-.67-1.62A2.56 2.56 0 0 1 8.83 4a2.55 2.55 0 0 1 2.47 3.74c-.1.17-.29.43-.59.77a47.4 47.4 0 0 0-.67.75.04.04 0 0 1-.03-.02l-.89-1.02v-.05Z" fill="#fff"/><path d="M6.4 5.62a2.7 2.7 0 0 0 .07 2c.01.03 0 .05 0 .07L4.7 9.7c-.21.25-.3.53-.28.84.07 1.02 1.38 1.45 2.08.65a285.12 285.12 0 0 1 1.45-1.65.05.05 0 0 1 .04.02l.87 1c.02.03.02.05 0 .07-.3.33-.6.66-.88 1.01-.38.46-.7.78-.95.94-1.2.76-2.75.45-3.57-.66a2.52 2.52 0 0 1-.24-2.54c.1-.22.34-.54.71-.96a391 391 0 0 0 2.46-2.8Z" fill="#fff"/></svg>