<!-- by TradingView --><svg xmlns="http://www.w3.org/2000/svg" width="18" height="18"><path fill="url(#a50boqcch)" d="M0 0h18v18H0z"/><path fill-rule="evenodd" d="M9 14a5 5 0 004.92-5.91l-1.42.83V9a3.5 3.5 0 01-6.31 2.09l1.39-.82a2.03 2.03 0 003.27-1.92l1.78-1.04.87-.5A5 5 0 109 14zM6.86 9.13l-1.25.74a3.5 3.5 0 015.8-3.4l-1.2.7a2.03 2.03 0 00-3.34 1.96zm2.93-.99l-.95-.55-.94.55v1.1l.94.54.95-.55V8.14z" fill="#fff"/><defs><linearGradient id="a50boqcch" x1="9" y1="0" x2="9" y2="18" gradientUnits="userSpaceOnUse"><stop stop-color="#017CEA"/><stop offset="1" stop-color="#161F73"/></linearGradient></defs></svg>