<!-- by TradingView --><svg width="18" height="18" viewBox="0 0 18 18" xmlns="http://www.w3.org/2000/svg"><path fill="#F0F3FA" d="M0 0h18v18H0z"/><path d="M7.7 10.36a.54.54 0 0 1-.15.28l.67.4c.02 0 .03.01.02.03-.06.48.13.79.6.9l.02.03v1.68c0 .03-.01.04-.03.05-.2.1-.3.27-.25.49.05.2.27.32.47.27.2-.06.3-.2.3-.42a.07.07 0 0 1 .03-.06l1.53-.89h.06c.21.19.51.2.7-.02a.48.48 0 0 0-.07-.7c-.37-.28-.85.06-.75.5 0 .04 0 .06-.03.08l-1.52.87h-.05a.57.57 0 0 0-.19-.12.06.06 0 0 1-.04-.06V12a.04.04 0 0 1 .03-.03c.36-.08.56-.31.6-.69l-.01-.15-.01-.05c0-.02 0-.03.02-.04l.68-.4h.04l.06.05c.03.02.05.05.09.06a.71.71 0 0 0 .87-.12l.04-.04a.04.04 0 0 1 .04 0l1.43.82c.02.01.02.02.02.04v.07l-.01.08c.05.68 1.1.36.7-.25 0-.02-.03-.04-.06-.06a.3.3 0 0 1-.06-.05.08.08 0 0 1-.01-.05V9.22a.09.09 0 0 1 .04-.08c.24-.14.34-.42.2-.66a.48.48 0 0 0-.9.19c-.03.28.19.5.46.53l.03.01v1.95a.04.04 0 0 1-.03.04.77.77 0 0 0-.22.07.05.05 0 0 1-.05 0l-1.44-.83a.04.04 0 0 1-.02-.04l.01-.07.02-.12c.02-.37-.15-.62-.5-.76a.05.05 0 0 1-.04-.05v-.76c0-.02 0-.03.02-.04.44-.16.6-.48.48-.96a.02.02 0 0 1 .01-.02l1.43-.82h.04a.9.9 0 0 1 .05.03l.1.05c.62.18.73-.8.09-.76l-.08.02c-.05.02-.1.04-.15 0a185.14 185.14 0 0 0-1.71-.99v-.02c.01-.2-.04-.35-.16-.46-.4-.35-1 .12-.74.6.17.3.57.3.8.06a.03.03 0 0 1 .03 0l1.68.96c.02.01.02.02.02.04a.68.68 0 0 0-.04.28.04.04 0 0 1-.02.04l-1.42.82-.04-.01c-.31-.32-.7-.35-1.05-.06a.05.05 0 0 1-.05 0l-.67-.38a.05.05 0 0 1-.03-.04l.01-.1v-.13c-.03-.36-.23-.58-.6-.66l-.01-.01-.01-.02V4.32a.06.06 0 0 1 .04-.06.36.36 0 0 0 .27-.33c.05-.6-.86-.57-.78.03a.08.08 0 0 1-.03.08l-1.15.66-.58.33a.04.04 0 0 1-.05 0 2.85 2.85 0 0 0-.11-.07c-.54-.36-1.05.39-.58.75.28.22.69.09.77-.26v-.14l.01-.08.02-.04.65-.37 1.1-.64a.06.06 0 0 1 .06 0l.17.1a.05.05 0 0 1 .03.04v1.73c0 .02-.01.03-.03.03-.45.12-.65.42-.59.9 0 .01 0 .02-.02.03l-.68.4.17.6-.02-.29.03-.04.67-.39h.04c.34.29.68.29 1.02 0a.04.04 0 0 1 .04 0l.67.4c.02 0 .03.02.02.04-.07.42.1.72.5.87.03 0 .03.02.03.04v.78a.03.03 0 0 1-.02.03c-.4.15-.57.44-.5.87 0 .02-.01.04-.03.05l-.68.4h-.01l-.02-.01c-.34-.28-.68-.28-1.02 0h-.04l-.7-.4Zm4.38-5.07a.24.24 0 1 0 0-.47.24.24 0 0 0 0 .47Zm-3.84.18a.23.23 0 1 1-.47 0 .23.23 0 0 1 .47 0Zm-.7 1.94.16.6a.7.7 0 0 1-.5.58.05.05 0 0 0-.04.05v.78c0 .01.01.03.03.03.4.16.58.46.5.91a.54.54 0 0 1-.14.28c-.2.15-.4.23-.59.21a.72.72 0 0 1-.51-.26l-.02-.01H6.4l-1.47.85a.08.08 0 0 0-.05.07v.18a.07.07 0 0 0 .03.06l1.58.92a.05.05 0 0 0 .07 0c.3-.32.83-.16.84.29.02.68-1.03.64-.95-.07 0-.03 0-.05-.03-.07l-1.6-.92a.08.08 0 0 0-.1 0c-.19.12-.43.09-.56-.1-.25-.4.24-.81.6-.51a.06.06 0 0 0 .08 0l1.47-.84c.02-.01.02-.03.01-.05a.7.7 0 0 1 .46-.92.06.06 0 0 0 .05-.06v-.78a.03.03 0 0 0-.03-.03.71.71 0 0 1-.47-.94v-.03l-.02-.01-1.46-.84a.04.04 0 0 0-.04 0 .88.88 0 0 1-.07.04c-.09.04-.19.1-.19.18a2411.25 2411.25 0 0 0 .02 1.82c.01.02.02.03.04.03.55.2.4.98-.19.94a.48.48 0 0 1-.28-.83.5.5 0 0 1 .15-.1l.06-.02.03-.04v-.1a165.4 165.4 0 0 0 0-1.76.07.07 0 0 0-.04-.05.63.63 0 0 1-.13-.1c-.22-.2-.1-.58.18-.65.31-.08.48.15.51.43a.09.09 0 0 0 .04.07l1.44.83a.05.05 0 0 0 .07 0c.27-.28.6-.34.93-.13l.15.08Zm2.23 1.28h-.48c-.04 0-.06-.01-.06-.05v-.48c0-.04-.06-.08-.1-.08h-.42c-.04 0-.1.04-.1.08v.48c0 .04-.01.05-.05.05h-.48c-.04 0-.08.06-.08.1v.42c0 .04.03.1.08.1h.48c.04 0 .05.01.05.05v.48c0 .04.06.08.1.08h.42c.04 0 .1-.04.1-.08v-.48c0-.04.02-.05.06-.05h.48c.04 0 .07-.06.07-.1v-.42c0-.04-.03-.1-.07-.1Zm4 1.39a.24.24 0 1 0 0-.48.24.24 0 0 0 0 .48Zm-7.47 1.4a.24.24 0 1 1-.48 0 .24.24 0 0 1 .48 0Z" fill="url(#a)"/><defs><linearGradient id="a" x1="4" y1="8.5" x2="13.72" y2="8.54" gradientUnits="userSpaceOnUse"><stop stop-color="#0AF785"/><stop offset="1" stop-color="#AE45F9"/></linearGradient></defs></svg>